0
SECTION
2
ENTITIES
0
POLYLINE
8
0
66
1
70
1
0
VERTEX
8
0
10
-0.2500
20
-0.0260
0
VERTEX
8
0
10
-0.2470
20
-0.0470
0
VERTEX
8
0
10
-0.2410
20
-0.0690
0
VERTEX
8
0
10
-0.2310
20
-0.0970
0
VERTEX
8
0
10
-0.2210
20
-0.1190
0
VERTEX
8
0
10
-0.2080
20
-0.1400
0
VERTEX
8
0
10
-0.1950
20
-0.1580
0
VERTEX
8
0
10
-0.1770
20
-0.1770
0
VERTEX
8
0
10
-0.1580
20
-0.1950
0
VERTEX
8
0
10
-0.1400
20
-0.2080
0
VERTEX
8
0
10
-0.1190
20
-0.2210
0
VERTEX
8
0
10
-0.0970
20
-0.2310
0
VERTEX
8
0
10
-0.0690
20
-0.2410
0
VERTEX
8
0
10
-0.0470
20
-0.2470
0
VERTEX
8
0
10
-0.0260
20
-0.2500
0
VERTEX
8
0
10
0.0150
20
-0.2520
0
VERTEX
8
0
10
399.9850
20
-0.2520
0
VERTEX
8
0
10
400.0260
20
-0.2500
0
VERTEX
8
0
10
400.0470
20
-0.2470
0
VERTEX
8
0
10
400.0690
20
-0.2410
0
VERTEX
8
0
10
400.0970
20
-0.2310
0
VERTEX
8
0
10
400.1190
20
-0.2210
0
VERTEX
8
0
10
400.1400
20
-0.2080
0
VERTEX
8
0
10
400.1580
20
-0.1950
0
VERTEX
8
0
10
400.1770
20
-0.1770
0
VERTEX
8
0
10
400.1950
20
-0.1580
0
VERTEX
8
0
10
400.2080
20
-0.1400
0
VERTEX
8
0
10
400.2210
20
-0.1190
0
VERTEX
8
0
10
400.2310
20
-0.0970
0
VERTEX
8
0
10
400.2410
20
-0.0690
0
VERTEX
8
0
10
400.2470
20
-0.0470
0
VERTEX
8
0
10
400.2500
20
-0.0260
0
VERTEX
8
0
10
400.2520
20
0.0150
0
VERTEX
8
0
10
400.2520
20
239.2650
0
VERTEX
8
0
10
400.2500
20
239.3060
0
VERTEX
8
0
10
400.2470
20
239.3270
0
VERTEX
8
0
10
400.2410
20
239.3490
0
VERTEX
8
0
10
400.2310
20
239.3770
0
VERTEX
8
0
10
400.2210
20
239.3990
0
VERTEX
8
0
10
400.2080
20
239.4200
0
VERTEX
8
0
10
400.1950
20
239.4380
0
VERTEX
8
0
10
400.1770
20
239.4570
0
VERTEX
8
0
10
400.1580
20
239.4750
0
VERTEX
8
0
10
400.1400
20
239.4880
0
VERTEX
8
0
10
400.1190
20
239.5010
0
VERTEX
8
0
10
400.0970
20
239.5110
0
VERTEX
8
0
10
400.0690
20
239.5210
0
VERTEX
8
0
10
400.0470
20
239.5270
0
VERTEX
8
0
10
400.0260
20
239.5300
0
VERTEX
8
0
10
399.9850
20
239.5320
0
VERTEX
8
0
10
0.0150
20
239.5320
0
VERTEX
8
0
10
-0.0260
20
239.5300
0
VERTEX
8
0
10
-0.0470
20
239.5270
0
VERTEX
8
0
10
-0.0690
20
239.5210
0
VERTEX
8
0
10
-0.0970
20
239.5110
0
VERTEX
8
0
10
-0.1190
20
239.5010
0
VERTEX
8
0
10
-0.1400
20
239.4880
0
VERTEX
8
0
10
-0.1580
20
239.4750
0
VERTEX
8
0
10
-0.1770
20
239.4570
0
VERTEX
8
0
10
-0.1950
20
239.4380
0
VERTEX
8
0
10
-0.2080
20
239.4200
0
VERTEX
8
0
10
-0.2210
20
239.3990
0
VERTEX
8
0
10
-0.2310
20
239.3770
0
VERTEX
8
0
10
-0.2410
20
239.3490
0
VERTEX
8
0
10
-0.2470
20
239.3270
0
VERTEX
8
0
10
-0.2500
20
239.3060
0
VERTEX
8
0
10
-0.2520
20
239.2650
0
VERTEX
8
0
10
-0.2520
20
0.0150
0
VERTEX
8
0
10
-0.2500
20
-0.0260
0
SEQEND
0
ENDSEC
0
EOF