0
SECTION
2
ENTITIES
0
POLYLINE
8
0
66
1
70
1
0
VERTEX
8
0
10
54.8580
20
-0.2036
0
VERTEX
8
0
10
54.8920
20
-0.2246
0
VERTEX
8
0
10
54.9130
20
-0.2346
0
VERTEX
8
0
10
54.9370
20
-0.2426
0
VERTEX
8
0
10
54.9640
20
-0.2496
0
VERTEX
8
0
10
54.9850
20
-0.2526
0
VERTEX
8
0
10
55.0250
20
-0.2546
0
VERTEX
8
0
10
383.0020
20
-0.2546
0
VERTEX
8
0
10
383.0460
20
-0.2526
0
VERTEX
8
0
10
383.0700
20
-0.2486
0
VERTEX
8
0
10
383.0960
20
-0.2416
0
VERTEX
8
0
10
383.1240
20
-0.2316
0
VERTEX
8
0
10
383.1440
20
-0.2216
0
VERTEX
8
0
10
383.1640
20
-0.2086
0
VERTEX
8
0
10
383.1980
20
-0.1816
0
VERTEX
8
0
10
383.4050
20
0.0004
0
VERTEX
8
0
10
400.0000
20
0.0004
0
VERTEX
8
0
10
400.0000
20
6.9824
0
VERTEX
8
0
10
400.1050
20
7.0384
0
VERTEX
8
0
10
400.1390
20
7.0584
0
VERTEX
8
0
10
400.1600
20
7.0744
0
VERTEX
8
0
10
400.1800
20
7.0924
0
VERTEX
8
0
10
400.1930
20
7.1064
0
VERTEX
8
0
10
400.2080
20
7.1274
0
VERTEX
8
0
10
400.2230
20
7.1514
0
VERTEX
8
0
10
400.2320
20
7.1704
0
VERTEX
8
0
10
400.2400
20
7.1944
0
VERTEX
8
0
10
400.2470
20
7.2214
0
VERTEX
8
0
10
400.2500
20
7.2424
0
VERTEX
8
0
10
400.2520
20
7.2824
0
VERTEX
8
0
10
400.2520
20
201.7024
0
VERTEX
8
0
10
400.2500
20
201.7424
0
VERTEX
8
0
10
400.2470
20
201.7634
0
VERTEX
8
0
10
400.2400
20
201.7904
0
VERTEX
8
0
10
400.2320
20
201.8134
0
VERTEX
8
0
10
400.2220
20
201.8344
0
VERTEX
8
0
10
400.2080
20
201.8594
0
VERTEX
8
0
10
400.1940
20
201.8774
0
VERTEX
8
0
10
400.1790
20
201.8934
0
VERTEX
8
0
10
400.1600
20
201.9114
0
VERTEX
8
0
10
400.1400
20
201.9264
0
VERTEX
8
0
10
400.1170
20
201.9404
0
VERTEX
8
0
10
400.0990
20
201.9484
0
VERTEX
8
0
10
400.0760
20
201.9564
0
VERTEX
8
0
10
400.0490
20
201.9634
0
VERTEX
8
0
10
400.0250
20
201.9674
0
VERTEX
8
0
10
399.9830
20
201.9694
0
VERTEX
8
0
10
345.2370
20
202.1694
0
VERTEX
8
0
10
345.1960
20
202.1674
0
VERTEX
8
0
10
345.1730
20
202.1644
0
VERTEX
8
0
10
345.1500
20
202.1584
0
VERTEX
8
0
10
345.1270
20
202.1504
0
VERTEX
8
0
10
345.1050
20
202.1404
0
VERTEX
8
0
10
345.0820
20
202.1264
0
VERTEX
8
0
10
345.0610
20
202.1114
0
VERTEX
8
0
10
345.0440
20
202.0974
0
VERTEX
8
0
10
345.0280
20
202.0794
0
VERTEX
8
0
10
345.0030
20
202.0474
0
VERTEX
8
0
10
344.9130
20
201.9174
0
VERTEX
8
0
10
296.3760
20
201.9174
0
VERTEX
8
0
10
296.2400
20
202.0724
0
VERTEX
8
0
10
296.2120
20
202.1004
0
VERTEX
8
0
10
296.1940
20
202.1154
0
VERTEX
8
0
10
296.1750
20
202.1294
0
VERTEX
8
0
10
296.1510
20
202.1424
0
VERTEX
8
0
10
296.1350
20
202.1504
0
VERTEX
8
0
10
296.1110
20
202.1584
0
VERTEX
8
0
10
296.0860
20
202.1644
0
VERTEX
8
0
10
296.0640
20
202.1674
0
VERTEX
8
0
10
296.0250
20
202.1694
0
VERTEX
8
0
10
256.2970
20
202.1694
0
VERTEX
8
0
10
256.2540
20
202.1674
0
VERTEX
8
0
10
256.2260
20
202.1624
0
VERTEX
8
0
10
256.2000
20
202.1554
0
VERTEX
8
0
10
256.1790
20
202.1474
0
VERTEX
8
0
10
256.1410
20
202.1274
0
VERTEX
8
0
10
255.7790
20
201.9174
0
VERTEX
8
0
10
225.2080
20
201.9174
0
VERTEX
8
0
10
225.0100
20
202.0944
0
VERTEX
8
0
10
224.9770
20
202.1214
0
VERTEX
8
0
10
224.9560
20
202.1344
0
VERTEX
8
0
10
224.9340
20
202.1464
0
VERTEX
8
0
10
224.9060
20
202.1564
0
VERTEX
8
0
10
224.8810
20
202.1634
0
VERTEX
8
0
10
224.8580
20
202.1674
0
VERTEX
8
0
10
224.8130
20
202.1694
0
VERTEX
8
0
10
102.9050
20
202.1694
0
VERTEX
8
0
10
102.8680
20
202.1674
0
VERTEX
8
0
10
102.8420
20
202.1634
0
VERTEX
8
0
10
102.8180
20
202.1584
0
VERTEX
8
0
10
102.7960
20
202.1504
0
VERTEX
8
0
10
102.7740
20
202.1404
0
VERTEX
8
0
10
102.7550
20
202.1284
0
VERTEX
8
0
10
102.7340
20
202.1134
0
VERTEX
8
0
10
102.7130
20
202.0954
0
VERTEX
8
0
10
102.6970
20
202.0794
0
VERTEX
8
0
10
102.6750
20
202.0504
0
VERTEX
8
0
10
102.5820
20
201.9174
0
VERTEX
8
0
10
0.0000
20
201.9174
0
VERTEX
8
0
10
0.0000
20
193.1954
0
VERTEX
8
0
10
-0.1220
20
193.1184
0
VERTEX
8
0
10
-0.1540
20
193.0964
0
VERTEX
8
0
10
-0.1720
20
193.0794
0
VERTEX
8
0
10
-0.1920
20
193.0594
0
VERTEX
8
0
10
-0.2060
20
193.0404
0
VERTEX
8
0
10
-0.2200
20
193.0184
0
VERTEX
8
0
10
-0.2310
20
192.9964
0
VERTEX
8
0
10
-0.2400
20
192.9724
0
VERTEX
8
0
10
-0.2460
20
192.9484
0
VERTEX
8
0
10
-0.2500
20
192.9234
0
VERTEX
8
0
10
-0.2520
20
192.8794
0
VERTEX
8
0
10
-0.2520
20
6.9524
0
VERTEX
8
0
10
-0.2500
20
6.9134
0
VERTEX
8
0
10
-0.2460
20
6.8884
0
VERTEX
8
0
10
-0.2410
20
6.8644
0
VERTEX
8
0
10
-0.2340
20
6.8444
0
VERTEX
8
0
10
-0.2240
20
6.8234
0
VERTEX
8
0
10
-0.2100
20
6.8004
0
VERTEX
8
0
10
-0.1940
20
6.7784
0
VERTEX
8
0
10
-0.1790
20
6.7604
0
VERTEX
8
0
10
-0.1620
20
6.7454
0
VERTEX
8
0
10
-0.1440
20
6.7304
0
VERTEX
8
0
10
-0.1250
20
6.7194
0
VERTEX
8
0
10
-0.0890
20
6.7014
0
VERTEX
8
0
10
0.0000
20
6.6624
0
VERTEX
8
0
10
0.0000
20
0.0004
0
VERTEX
8
0
10
54.5530
20
0.0004
0
VERTEX
8
0
10
54.8580
20
-0.2036
0
SEQEND
0
POLYLINE
8
0
66
1
70
1
0
VERTEX
8
0
10
330.9970
20
187.4414
0
VERTEX
8
0
10
330.9470
20
187.4044
0
VERTEX
8
0
10
330.8930
20
187.3724
0
VERTEX
8
0
10
330.8370
20
187.3454
0
VERTEX
8
0
10
330.7790
20
187.3244
0
VERTEX
8
0
10
330.7190
20
187.3084
0
VERTEX
8
0
10
330.6570
20
187.2984
0
VERTEX
8
0
10
310.6010
20
185.0544
0
VERTEX
8
0
10
310.5330
20
185.0504
0
VERTEX
8
0
10
310.4660
20
185.0534
0
VERTEX
8
0
10
310.3990
20
185.0634
0
VERTEX
8
0
10
310.3330
20
185.0804
0
VERTEX
8
0
10
310.2700
20
185.1044
0
VERTEX
8
0
10
305.1020
20
187.3624
0
VERTEX
8
0
10
305.0420
20
187.3924
0
VERTEX
8
0
10
304.9860
20
187.4284
0
VERTEX
8
0
10
304.9340
20
187.4694
0
VERTEX
8
0
10
304.8860
20
187.5154
0
VERTEX
8
0
10
304.8430
20
187.5664
0
VERTEX
8
0
10
304.8060
20
187.6224
0
VERTEX
8
0
10
304.7750
20
187.6804
0
VERTEX
8
0
10
303.7240
20
189.9174
0
VERTEX
8
0
10
334.0090
20
189.9174
0
VERTEX
8
0
10
330.9970
20
187.4414
0
SEQEND
0
POLYLINE
8
0
66
1
70
1
0
VERTEX
8
0
10
93.8260
20
182.3364
0
VERTEX
8
0
10
93.8060
20
182.2814
0
VERTEX
8
0
10
93.7820
20
182.2284
0
VERTEX
8
0
10
93.7530
20
182.1774
0
VERTEX
8
0
10
93.7200
20
182.1294
0
VERTEX
8
0
10
91.8270
20
179.6494
0
VERTEX
8
0
10
91.7860
20
179.6004
0
VERTEX
8
0
10
91.7390
20
179.5554
0
VERTEX
8
0
10
91.6890
20
179.5154
0
VERTEX
8
0
10
91.6350
20
179.4804
0
VERTEX
8
0
10
91.5780
20
179.4514
0
VERTEX
8
0
10
91.5180
20
179.4284
0
VERTEX
8
0
10
91.4560
20
179.4104
0
VERTEX
8
0
10
72.6380
20
175.1214
0
VERTEX
8
0
10
72.5780
20
175.1104
0
VERTEX
8
0
10
72.5170
20
175.1054
0
VERTEX
8
0
10
72.4570
20
175.1064
0
VERTEX
8
0
10
61.7830
20
175.7224
0
VERTEX
8
0
10
61.7050
20
175.7314
0
VERTEX
8
0
10
61.6300
20
175.7494
0
VERTEX
8
0
10
53.9580
20
178.1034
0
VERTEX
8
0
10
53.9170
20
178.1144
0
VERTEX
8
0
10
53.8780
20
178.1194
0
VERTEX
8
0
10
44.6440
20
178.9944
0
VERTEX
8
0
10
44.5860
20
179.0024
0
VERTEX
8
0
10
44.5290
20
179.0154
0
VERTEX
8
0
10
44.4730
20
179.0344
0
VERTEX
8
0
10
44.4190
20
179.0574
0
VERTEX
8
0
10
44.3680
20
179.0864
0
VERTEX
8
0
10
44.3190
20
179.1194
0
VERTEX
8
0
10
41.8560
20
180.9464
0
VERTEX
8
0
10
41.8120
20
180.9814
0
VERTEX
8
0
10
41.7720
20
181.0204
0
VERTEX
8
0
10
41.7350
20
181.0624
0
VERTEX
8
0
10
41.7020
20
181.1074
0
VERTEX
8
0
10
35.9580
20
189.7434
0
VERTEX
8
0
10
35.9320
20
189.7794
0
VERTEX
8
0
10
35.9150
20
189.7984
0
VERTEX
8
0
10
35.8830
20
189.8254
0
VERTEX
8
0
10
35.7670
20
189.9174
0
VERTEX
8
0
10
96.0970
20
189.9174
0
VERTEX
8
0
10
93.8260
20
182.3364
0
SEQEND
0
ENDSEC
0
EOF