0
SECTION
2
ENTITIES
0
POLYLINE
8
0
66
1
70
1
0
VERTEX
8
0
10
-0.1880
20
85.8870
0
VERTEX
8
0
10
-0.2120
20
85.8550
0
VERTEX
8
0
10
-0.2220
20
85.8380
0
VERTEX
8
0
10
-0.2330
20
85.8130
0
VERTEX
8
0
10
-0.2410
20
85.7910
0
VERTEX
8
0
10
-0.2460
20
85.7680
0
VERTEX
8
0
10
-0.2500
20
85.7420
0
VERTEX
8
0
10
-0.2520
20
85.7050
0
VERTEX
8
0
10
-0.2520
20
22.2750
0
VERTEX
8
0
10
-0.2500
20
22.2370
0
VERTEX
8
0
10
-0.2460
20
22.2110
0
VERTEX
8
0
10
-0.2400
20
22.1860
0
VERTEX
8
0
10
-0.2340
20
22.1690
0
VERTEX
8
0
10
-0.2220
20
22.1430
0
VERTEX
8
0
10
-0.2090
20
22.1210
0
VERTEX
8
0
10
-0.1980
20
22.1060
0
VERTEX
8
0
10
-0.1790
20
22.0840
0
VERTEX
8
0
10
-0.1620
20
22.0680
0
VERTEX
8
0
10
-0.1330
20
22.0460
0
VERTEX
8
0
10
0.0000
20
21.9540
0
VERTEX
8
0
10
0.0000
20
0.0000
0
VERTEX
8
0
10
74.5890
20
0.0000
0
VERTEX
8
0
10
75.1010
20
-0.2240
0
VERTEX
8
0
10
75.1420
20
-0.2390
0
VERTEX
8
0
10
75.1690
20
-0.2460
0
VERTEX
8
0
10
75.1940
20
-0.2500
0
VERTEX
8
0
10
75.2370
20
-0.2520
0
VERTEX
8
0
10
318.3950
20
-0.2520
0
VERTEX
8
0
10
318.4330
20
-0.2500
0
VERTEX
8
0
10
318.4590
20
-0.2460
0
VERTEX
8
0
10
318.4820
20
-0.2410
0
VERTEX
8
0
10
318.5000
20
-0.2350
0
VERTEX
8
0
10
318.5210
20
-0.2250
0
VERTEX
8
0
10
318.5570
20
-0.2050
0
VERTEX
8
0
10
318.8820
20
0.0000
0
VERTEX
8
0
10
400.0000
20
0.0000
0
VERTEX
8
0
10
400.0000
20
21.6050
0
VERTEX
8
0
10
400.1710
20
21.7840
0
VERTEX
8
0
10
400.1980
20
21.8160
0
VERTEX
8
0
10
400.2120
20
21.8350
0
VERTEX
8
0
10
400.2240
20
21.8570
0
VERTEX
8
0
10
400.2350
20
21.8790
0
VERTEX
8
0
10
400.2410
20
21.8970
0
VERTEX
8
0
10
400.2470
20
21.9210
0
VERTEX
8
0
10
400.2500
20
21.9450
0
VERTEX
8
0
10
400.2520
20
21.9850
0
VERTEX
8
0
10
400.2520
20
85.9550
0
VERTEX
8
0
10
400.2500
20
85.9960
0
VERTEX
8
0
10
400.2470
20
86.0160
0
VERTEX
8
0
10
400.2420
20
86.0380
0
VERTEX
8
0
10
400.2320
20
86.0660
0
VERTEX
8
0
10
400.2230
20
86.0870
0
VERTEX
8
0
10
400.2120
20
86.1050
0
VERTEX
8
0
10
400.1890
20
86.1380
0
VERTEX
8
0
10
400.0000
20
86.3780
0
VERTEX
8
0
10
400.0000
20
137.4090
0
VERTEX
8
0
10
400.2300
20
138.0060
0
VERTEX
8
0
10
400.2420
20
138.0420
0
VERTEX
8
0
10
400.2470
20
138.0640
0
VERTEX
8
0
10
400.2500
20
138.0860
0
VERTEX
8
0
10
400.2520
20
138.1260
0
VERTEX
8
0
10
400.2520
20
224.7250
0
VERTEX
8
0
10
400.2500
20
224.7620
0
VERTEX
8
0
10
400.2470
20
224.7870
0
VERTEX
8
0
10
400.2410
20
224.8120
0
VERTEX
8
0
10
400.2350
20
224.8310
0
VERTEX
8
0
10
400.2250
20
224.8530
0
VERTEX
8
0
10
400.2120
20
224.8750
0
VERTEX
8
0
10
400.1990
20
224.8930
0
VERTEX
8
0
10
400.1750
20
224.9220
0
VERTEX
8
0
10
400.0000
20
225.1100
0
VERTEX
8
0
10
400.0000
20
239.2800
0
VERTEX
8
0
10
365.8320
20
239.2800
0
VERTEX
8
0
10
362.3890
20
239.4510
0
VERTEX
8
0
10
362.3480
20
239.4510
0
VERTEX
8
0
10
362.3250
20
239.4490
0
VERTEX
8
0
10
362.2990
20
239.4430
0
VERTEX
8
0
10
362.2750
20
239.4360
0
VERTEX
8
0
10
362.2390
20
239.4210
0
VERTEX
8
0
10
361.9450
20
239.2800
0
VERTEX
8
0
10
203.1420
20
239.2800
0
VERTEX
8
0
10
201.9660
20
239.4660
0
VERTEX
8
0
10
201.9230
20
239.4710
0
VERTEX
8
0
10
201.8990
20
239.4710
0
VERTEX
8
0
10
201.8730
20
239.4680
0
VERTEX
8
0
10
201.8280
20
239.4590
0
VERTEX
8
0
10
201.1500
20
239.2800
0
VERTEX
8
0
10
186.2640
20
239.2800
0
VERTEX
8
0
10
186.0290
20
239.4680
0
VERTEX
8
0
10
185.9960
20
239.4910
0
VERTEX
8
0
10
185.9780
20
239.5020
0
VERTEX
8
0
10
185.9540
20
239.5130
0
VERTEX
8
0
10
185.9330
20
239.5210
0
VERTEX
8
0
10
185.9090
20
239.5260
0
VERTEX
8
0
10
185.8830
20
239.5300
0
VERTEX
8
0
10
185.8450
20
239.5320
0
VERTEX
8
0
10
157.7290
20
239.5320
0
VERTEX
8
0
10
157.6820
20
239.5290
0
VERTEX
8
0
10
157.6550
20
239.5250
0
VERTEX
8
0
10
157.6110
20
239.5120
0
VERTEX
8
0
10
156.9410
20
239.2800
0
VERTEX
8
0
10
139.4500
20
239.2800
0
VERTEX
8
0
10
138.8990
20
239.5070
0
VERTEX
8
0
10
138.8620
20
239.5210
0
VERTEX
8
0
10
138.8390
20
239.5270
0
VERTEX
8
0
10
138.8150
20
239.5300
0
VERTEX
8
0
10
138.7750
20
239.5320
0
VERTEX
8
0
10
117.4750
20
239.5320
0
VERTEX
8
0
10
117.4350
20
239.5300
0
VERTEX
8
0
10
117.4110
20
239.5270
0
VERTEX
8
0
10
117.3900
20
239.5210
0
VERTEX
8
0
10
117.3660
20
239.5130
0
VERTEX
8
0
10
117.3420
20
239.5010
0
VERTEX
8
0
10
117.3220
20
239.4900
0
VERTEX
8
0
10
117.2880
20
239.4650
0
VERTEX
8
0
10
117.0610
20
239.2800
0
VERTEX
8
0
10
0.0000
20
239.2800
0
VERTEX
8
0
10
0.0000
20
212.7470
0
VERTEX
8
0
10
-0.2030
20
212.4300
0
VERTEX
8
0
10
-0.2240
20
212.3930
0
VERTEX
8
0
10
-0.2350
20
212.3700
0
VERTEX
8
0
10
-0.2410
20
212.3510
0
VERTEX
8
0
10
-0.2470
20
212.3290
0
VERTEX
8
0
10
-0.2500
20
212.3040
0
VERTEX
8
0
10
-0.2520
20
212.2650
0
VERTEX
8
0
10
-0.2520
20
135.6450
0
VERTEX
8
0
10
-0.2500
20
135.6050
0
VERTEX
8
0
10
-0.2470
20
135.5820
0
VERTEX
8
0
10
-0.2410
20
135.5590
0
VERTEX
8
0
10
-0.2330
20
135.5360
0
VERTEX
8
0
10
-0.2150
20
135.4980
0
VERTEX
8
0
10
0.0000
20
135.0920
0
VERTEX
8
0
10
0.0000
20
119.0690
0
VERTEX
8
0
10
-0.1810
20
118.8560
0
VERTEX
8
0
10
-0.2060
20
118.8250
0
VERTEX
8
0
10
-0.2200
20
118.8010
0
VERTEX
8
0
10
-0.2310
20
118.7780
0
VERTEX
8
0
10
-0.2400
20
118.7550
0
VERTEX
8
0
10
-0.2460
20
118.7310
0
VERTEX
8
0
10
-0.2500
20
118.7060
0
VERTEX
8
0
10
-0.2520
20
118.6620
0
VERTEX
8
0
10
-0.2520
20
95.9470
0
VERTEX
8
0
10
-0.2500
20
95.9030
0
VERTEX
8
0
10
-0.2460
20
95.8780
0
VERTEX
8
0
10
-0.2390
20
95.8540
0
VERTEX
8
0
10
-0.2300
20
95.8300
0
VERTEX
8
0
10
-0.2110
20
95.7920
0
VERTEX
8
0
10
0.0000
20
95.4210
0
VERTEX
8
0
10
0.0000
20
86.1240
0
VERTEX
8
0
10
-0.1880
20
85.8870
0
SEQEND
0
POLYLINE
8
0
66
1
70
1
0
VERTEX
8
0
10
14.8370
20
15.6830
0
VERTEX
8
0
10
14.8830
20
15.6790
0
VERTEX
8
0
10
14.9130
20
15.6800
0
VERTEX
8
0
10
14.9610
20
15.6870
0
VERTEX
8
0
10
26.6490
20
18.1430
0
VERTEX
8
0
10
26.7180
20
18.1540
0
VERTEX
8
0
10
26.7880
20
18.1570
0
VERTEX
8
0
10
26.8580
20
18.1530
0
VERTEX
8
0
10
26.9270
20
18.1410
0
VERTEX
8
0
10
36.4910
20
15.9480
0
VERTEX
8
0
10
36.5300
20
15.9400
0
VERTEX
8
0
10
36.5510
20
15.9390
0
VERTEX
8
0
10
36.5740
20
15.9390
0
VERTEX
8
0
10
36.6150
20
15.9440
0
VERTEX
8
0
10
51.1510
20
18.3240
0
VERTEX
8
0
10
51.2120
20
18.3310
0
VERTEX
8
0
10
51.2720
20
18.3330
0
VERTEX
8
0
10
51.3330
20
18.3280
0
VERTEX
8
0
10
51.3930
20
18.3180
0
VERTEX
8
0
10
51.4520
20
18.3030
0
VERTEX
8
0
10
51.5090
20
18.2820
0
VERTEX
8
0
10
51.5640
20
18.2550
0
VERTEX
8
0
10
51.6160
20
18.2240
0
VERTEX
8
0
10
53.8750
20
16.7170
0
VERTEX
8
0
10
53.9250
20
16.6800
0
VERTEX
8
0
10
53.9710
20
16.6390
0
VERTEX
8
0
10
54.0130
20
16.5930
0
VERTEX
8
0
10
54.0500
20
16.5430
0
VERTEX
8
0
10
57.1520
20
12.0000
0
VERTEX
8
0
10
12.0000
20
12.0000
0
VERTEX
8
0
10
12.0000
20
16.0700
0
VERTEX
8
0
10
14.8370
20
15.6830
0
SEQEND
0
POLYLINE
8
0
66
1
70
1
0
VERTEX
8
0
10
382.5550
20
15.4330
0
VERTEX
8
0
10
382.5950
20
15.4820
0
VERTEX
8
0
10
382.6390
20
15.5270
0
VERTEX
8
0
10
382.6880
20
15.5680
0
VERTEX
8
0
10
382.7400
20
15.6030
0
VERTEX
8
0
10
382.7950
20
15.6340
0
VERTEX
8
0
10
382.8530
20
15.6580
0
VERTEX
8
0
10
382.9140
20
15.6780
0
VERTEX
8
0
10
382.9750
20
15.6910
0
VERTEX
8
0
10
388.0000
20
16.5050
0
VERTEX
8
0
10
388.0000
20
12.0000
0
VERTEX
8
0
10
380.0510
20
12.0000
0
VERTEX
8
0
10
382.5550
20
15.4330
0
SEQEND
0
POLYLINE
8
0
66
1
70
1
0
VERTEX
8
0
10
387.5280
20
91.6140
0
VERTEX
8
0
10
387.4900
20
91.6200
0
VERTEX
8
0
10
387.4680
20
91.6210
0
VERTEX
8
0
10
387.4440
20
91.6210
0
VERTEX
8
0
10
387.4050
20
91.6160
0
VERTEX
8
0
10
376.5210
20
89.8300
0
VERTEX
8
0
10
376.4570
20
89.8220
0
VERTEX
8
0
10
376.3930
20
89.8210
0
VERTEX
8
0
10
376.3290
20
89.8270
0
VERTEX
8
0
10
376.2660
20
89.8390
0
VERTEX
8
0
10
376.2040
20
89.8570
0
VERTEX
8
0
10
376.1440
20
89.8810
0
VERTEX
8
0
10
376.0880
20
89.9100
0
VERTEX
8
0
10
376.0340
20
89.9460
0
VERTEX
8
0
10
372.8890
20
92.2430
0
VERTEX
8
0
10
372.8390
20
92.2830
0
VERTEX
8
0
10
372.7940
20
92.3270
0
VERTEX
8
0
10
372.7540
20
92.3760
0
VERTEX
8
0
10
372.7180
20
92.4280
0
VERTEX
8
0
10
372.6880
20
92.4840
0
VERTEX
8
0
10
372.6630
20
92.5420
0
VERTEX
8
0
10
371.5350
20
95.6110
0
VERTEX
8
0
10
371.5170
20
95.6690
0
VERTEX
8
0
10
371.5040
20
95.7280
0
VERTEX
8
0
10
371.4970
20
95.7880
0
VERTEX
8
0
10
371.4950
20
95.8480
0
VERTEX
8
0
10
371.4990
20
95.9080
0
VERTEX
8
0
10
371.5090
20
95.9680
0
VERTEX
8
0
10
371.5240
20
96.0260
0
VERTEX
8
0
10
371.5440
20
96.0830
0
VERTEX
8
0
10
371.5700
20
96.1370
0
VERTEX
8
0
10
373.8470
20
100.4560
0
VERTEX
8
0
10
373.8800
20
100.5130
0
VERTEX
8
0
10
373.9200
20
100.5660
0
VERTEX
8
0
10
373.9640
20
100.6140
0
VERTEX
8
0
10
374.0130
20
100.6580
0
VERTEX
8
0
10
374.0660
20
100.6970
0
VERTEX
8
0
10
374.1230
20
100.7300
0
VERTEX
8
0
10
374.1830
20
100.7570
0
VERTEX
8
0
10
383.6370
20
104.4690
0
VERTEX
8
0
10
383.6750
20
104.4870
0
VERTEX
8
0
10
383.6980
20
104.5000
0
VERTEX
8
0
10
383.7200
20
104.5160
0
VERTEX
8
0
10
383.7510
20
104.5450
0
VERTEX
8
0
10
388.0000
20
108.8590
0
VERTEX
8
0
10
388.0000
20
91.5120
0
VERTEX
8
0
10
387.5280
20
91.6140
0
SEQEND
0
POLYLINE
8
0
66
1
70
1
0
VERTEX
8
0
10
346.7470
20
221.6690
0
VERTEX
8
0
10
346.7220
20
221.6090
0
VERTEX
8
0
10
346.6910
20
221.5510
0
VERTEX
8
0
10
346.6550
20
221.4980
0
VERTEX
8
0
10
346.6130
20
221.4480
0
VERTEX
8
0
10
346.5670
20
221.4020
0
VERTEX
8
0
10
346.5160
20
221.3610
0
VERTEX
8
0
10
339.7450
20
216.4830
0
VERTEX
8
0
10
339.7120
20
216.4570
0
VERTEX
8
0
10
339.6970
20
216.4420
0
VERTEX
8
0
10
339.6720
20
216.4130
0
VERTEX
8
0
10
333.7080
20
208.6730
0
VERTEX
8
0
10
333.6660
20
208.6230
0
VERTEX
8
0
10
333.6190
20
208.5780
0
VERTEX
8
0
10
333.5670
20
208.5370
0
VERTEX
8
0
10
333.5120
20
208.5030
0
VERTEX
8
0
10
333.4530
20
208.4740
0
VERTEX
8
0
10
333.3920
20
208.4510
0
VERTEX
8
0
10
333.3280
20
208.4340
0
VERTEX
8
0
10
333.2640
20
208.4240
0
VERTEX
8
0
10
333.1990
20
208.4200
0
VERTEX
8
0
10
317.0950
20
208.3320
0
VERTEX
8
0
10
317.0550
20
208.3300
0
VERTEX
8
0
10
317.0270
20
208.3250
0
VERTEX
8
0
10
317.0030
20
208.3190
0
VERTEX
8
0
10
316.9820
20
208.3110
0
VERTEX
8
0
10
316.9420
20
208.2910
0
VERTEX
8
0
10
303.1430
20
200.4770
0
VERTEX
8
0
10
303.0870
20
200.4490
0
VERTEX
8
0
10
303.0280
20
200.4260
0
VERTEX
8
0
10
302.9670
20
200.4090
0
VERTEX
8
0
10
302.9050
20
200.3980
0
VERTEX
8
0
10
302.8420
20
200.3930
0
VERTEX
8
0
10
302.7790
20
200.3950
0
VERTEX
8
0
10
302.7160
20
200.4020
0
VERTEX
8
0
10
302.6540
20
200.4160
0
VERTEX
8
0
10
302.5940
20
200.4350
0
VERTEX
8
0
10
299.0830
20
201.7680
0
VERTEX
8
0
10
299.0280
20
201.7920
0
VERTEX
8
0
10
298.9750
20
201.8210
0
VERTEX
8
0
10
298.9250
20
201.8550
0
VERTEX
8
0
10
298.8790
20
201.8930
0
VERTEX
8
0
10
298.8360
20
201.9350
0
VERTEX
8
0
10
298.7980
20
201.9810
0
VERTEX
8
0
10
298.7640
20
202.0300
0
VERTEX
8
0
10
294.4620
20
208.9100
0
VERTEX
8
0
10
294.4330
20
208.9620
0
VERTEX
8
0
10
294.4080
20
209.0160
0
VERTEX
8
0
10
294.3890
20
209.0720
0
VERTEX
8
0
10
294.3750
20
209.1290
0
VERTEX
8
0
10
294.3660
20
209.1880
0
VERTEX
8
0
10
294.3630
20
209.2470
0
VERTEX
8
0
10
294.3650
20
209.3060
0
VERTEX
8
0
10
295.2700
20
220.5060
0
VERTEX
8
0
10
295.2710
20
220.5440
0
VERTEX
8
0
10
295.2700
20
220.5660
0
VERTEX
8
0
10
295.2670
20
220.5880
0
VERTEX
8
0
10
295.2570
20
220.6270
0
VERTEX
8
0
10
293.2390
20
227.2800
0
VERTEX
8
0
10
348.7510
20
227.2800
0
VERTEX
8
0
10
346.7470
20
221.6690
0
SEQEND
0
POLYLINE
8
0
66
1
70
1
0
VERTEX
8
0
10
257.7080
20
226.3300
0
VERTEX
8
0
10
257.6560
20
226.2920
0
VERTEX
8
0
10
257.6000
20
226.2600
0
VERTEX
8
0
10
257.5420
20
226.2330
0
VERTEX
8
0
10
257.4810
20
226.2120
0
VERTEX
8
0
10
257.4180
20
226.1970
0
VERTEX
8
0
10
257.3540
20
226.1890
0
VERTEX
8
0
10
248.1740
20
225.4500
0
VERTEX
8
0
10
248.0990
20
225.4480
0
VERTEX
8
0
10
248.0240
20
225.4550
0
VERTEX
8
0
10
238.0260
20
226.9870
0
VERTEX
8
0
10
237.9870
20
226.9900
0
VERTEX
8
0
10
237.9600
20
226.9910
0
VERTEX
8
0
10
237.9380
20
226.9890
0
VERTEX
8
0
10
237.9120
20
226.9840
0
VERTEX
8
0
10
237.8740
20
226.9740
0
VERTEX
8
0
10
226.1310
20
223.1050
0
VERTEX
8
0
10
226.0670
20
223.0870
0
VERTEX
8
0
10
226.0010
20
223.0760
0
VERTEX
8
0
10
225.9350
20
223.0720
0
VERTEX
8
0
10
225.8690
20
223.0750
0
VERTEX
8
0
10
225.8030
20
223.0840
0
VERTEX
8
0
10
225.7390
20
223.1000
0
VERTEX
8
0
10
225.6770
20
223.1230
0
VERTEX
8
0
10
222.7470
20
224.3550
0
VERTEX
8
0
10
222.6930
20
224.3800
0
VERTEX
8
0
10
222.6410
20
224.4110
0
VERTEX
8
0
10
222.5930
20
224.4460
0
VERTEX
8
0
10
222.5480
20
224.4860
0
VERTEX
8
0
10
222.5060
20
224.5300
0
VERTEX
8
0
10
222.4700
20
224.5770
0
VERTEX
8
0
10
222.4370
20
224.6280
0
VERTEX
8
0
10
220.9030
20
227.2800
0
VERTEX
8
0
10
258.8900
20
227.2800
0
VERTEX
8
0
10
257.7080
20
226.3300
0
SEQEND
0
POLYLINE
8
0
66
1
70
1
0
VERTEX
8
0
10
105.6560
20
226.6100
0
VERTEX
8
0
10
105.6370
20
226.5780
0
VERTEX
8
0
10
105.6270
20
226.5560
0
VERTEX
8
0
10
105.6140
20
226.5190
0
VERTEX
8
0
10
103.2530
20
218.7770
0
VERTEX
8
0
10
103.2430
20
218.7410
0
VERTEX
8
0
10
103.2400
20
218.7200
0
VERTEX
8
0
10
103.2370
20
218.6840
0
VERTEX
8
0
10
102.7370
20
202.8070
0
VERTEX
8
0
10
102.7320
20
202.7460
0
VERTEX
8
0
10
102.7220
20
202.6870
0
VERTEX
8
0
10
102.7060
20
202.6290
0
VERTEX
8
0
10
102.6850
20
202.5720
0
VERTEX
8
0
10
102.6580
20
202.5180
0
VERTEX
8
0
10
102.6270
20
202.4660
0
VERTEX
8
0
10
99.8200
20
198.2840
0
VERTEX
8
0
10
99.7810
20
198.2310
0
VERTEX
8
0
10
99.7370
20
198.1830
0
VERTEX
8
0
10
99.6880
20
198.1400
0
VERTEX
8
0
10
99.6350
20
198.1010
0
VERTEX
8
0
10
99.5780
20
198.0690
0
VERTEX
8
0
10
96.6420
20
196.5610
0
VERTEX
8
0
10
96.5830
20
196.5340
0
VERTEX
8
0
10
96.5220
20
196.5130
0
VERTEX
8
0
10
96.4590
20
196.4990
0
VERTEX
8
0
10
96.3950
20
196.4910
0
VERTEX
8
0
10
96.3310
20
196.4890
0
VERTEX
8
0
10
96.2660
20
196.4940
0
VERTEX
8
0
10
84.2980
20
197.9780
0
VERTEX
8
0
10
84.2520
20
197.9810
0
VERTEX
8
0
10
84.2250
20
197.9800
0
VERTEX
8
0
10
84.2000
20
197.9760
0
VERTEX
8
0
10
84.1560
20
197.9640
0
VERTEX
8
0
10
73.5560
20
194.4930
0
VERTEX
8
0
10
73.4960
20
194.4770
0
VERTEX
8
0
10
73.4360
20
194.4660
0
VERTEX
8
0
10
73.3740
20
194.4610
0
VERTEX
8
0
10
73.3130
20
194.4620
0
VERTEX
8
0
10
60.8290
20
195.2540
0
VERTEX
8
0
10
60.7750
20
195.2600
0
VERTEX
8
0
10
60.7220
20
195.2700
0
VERTEX
8
0
10
60.6700
20
195.2850
0
VERTEX
8
0
10
50.0510
20
198.7250
0
VERTEX
8
0
10
50.0130
20
198.7350
0
VERTEX
8
0
10
49.9930
20
198.7390
0
VERTEX
8
0
10
49.9710
20
198.7410
0
VERTEX
8
0
10
49.9420
20
198.7400
0
VERTEX
8
0
10
49.9040
20
198.7370
0
VERTEX
8
0
10
38.4090
20
196.9820
0
VERTEX
8
0
10
38.3460
20
196.9760
0
VERTEX
8
0
10
38.2830
20
196.9760
0
VERTEX
8
0
10
38.2200
20
196.9810
0
VERTEX
8
0
10
38.1580
20
196.9930
0
VERTEX
8
0
10
38.0980
20
197.0110
0
VERTEX
8
0
10
38.0390
20
197.0350
0
VERTEX
8
0
10
37.9830
20
197.0640
0
VERTEX
8
0
10
37.9300
20
197.0990
0
VERTEX
8
0
10
37.8810
20
197.1380
0
VERTEX
8
0
10
34.7510
20
199.9130
0
VERTEX
8
0
10
34.7030
20
199.9600
0
VERTEX
8
0
10
34.6610
20
200.0110
0
VERTEX
8
0
10
34.6240
20
200.0670
0
VERTEX
8
0
10
34.5930
20
200.1260
0
VERTEX
8
0
10
34.5680
20
200.1880
0
VERTEX
8
0
10
34.5500
20
200.2520
0
VERTEX
8
0
10
34.5380
20
200.3180
0
VERTEX
8
0
10
33.2720
20
210.5180
0
VERTEX
8
0
10
33.2660
20
210.5530
0
VERTEX
8
0
10
33.2600
20
210.5750
0
VERTEX
8
0
10
33.2520
20
210.5980
0
VERTEX
8
0
10
33.2430
20
210.6160
0
VERTEX
8
0
10
33.2250
20
210.6480
0
VERTEX
8
0
10
28.6000
20
217.8430
0
VERTEX
8
0
10
28.5770
20
217.8760
0
VERTEX
8
0
10
28.5620
20
217.8940
0
VERTEX
8
0
10
28.5440
20
217.9100
0
VERTEX
8
0
10
28.5240
20
217.9260
0
VERTEX
8
0
10
28.4900
20
217.9470
0
VERTEX
8
0
10
21.0470
20
222.1720
0
VERTEX
8
0
10
21.0140
20
222.1890
0
VERTEX
8
0
10
20.9900
20
222.1980
0
VERTEX
8
0
10
20.9660
20
222.2050
0
VERTEX
8
0
10
20.9460
20
222.2090
0
VERTEX
8
0
10
20.9040
20
222.2120
0
VERTEX
8
0
10
12.3630
20
222.5110
0
VERTEX
8
0
10
12.3220
20
222.5100
0
VERTEX
8
0
10
12.2970
20
222.5080
0
VERTEX
8
0
10
12.2730
20
222.5020
0
VERTEX
8
0
10
12.2490
20
222.4940
0
VERTEX
8
0
10
12.2090
20
222.4760
0
VERTEX
8
0
10
12.0000
20
222.3680
0
VERTEX
8
0
10
12.0000
20
227.2800
0
VERTEX
8
0
10
106.0900
20
227.2800
0
VERTEX
8
0
10
105.6560
20
226.6100
0
SEQEND
0
POLYLINE
8
0
66
1
70
1
0
VERTEX
8
0
10
86.0440
20
151.0180
0
VERTEX
8
0
10
86.0110
20
150.9670
0
VERTEX
8
0
10
85.9730
20
150.9200
0
VERTEX
8
0
10
85.9310
20
150.8760
0
VERTEX
8
0
10
85.8850
20
150.8360
0
VERTEX
8
0
10
85.8360
20
150.8010
0
VERTEX
8
0
10
85.7830
20
150.7700
0
VERTEX
8
0
10
85.7280
20
150.7450
0
VERTEX
8
0
10
85.6710
20
150.7250
0
VERTEX
8
0
10
79.4310
20
148.8430
0
VERTEX
8
0
10
79.3700
20
148.8270
0
VERTEX
8
0
10
79.3080
20
148.8180
0
VERTEX
8
0
10
79.2450
20
148.8150
0
VERTEX
8
0
10
79.1830
20
148.8180
0
VERTEX
8
0
10
79.1210
20
148.8270
0
VERTEX
8
0
10
79.0600
20
148.8420
0
VERTEX
8
0
10
79.0000
20
148.8630
0
VERTEX
8
0
10
74.7850
20
150.5730
0
VERTEX
8
0
10
74.7300
20
150.5980
0
VERTEX
8
0
10
74.6780
20
150.6280
0
VERTEX
8
0
10
74.6290
20
150.6630
0
VERTEX
8
0
10
74.5830
20
150.7030
0
VERTEX
8
0
10
74.5410
20
150.7460
0
VERTEX
8
0
10
74.5040
20
150.7940
0
VERTEX
8
0
10
74.4700
20
150.8440
0
VERTEX
8
0
10
74.4420
20
150.8980
0
VERTEX
8
0
10
74.4190
20
150.9540
0
VERTEX
8
0
10
74.4010
20
151.0120
0
VERTEX
8
0
10
73.3550
20
155.0800
0
VERTEX
8
0
10
73.3430
20
155.1410
0
VERTEX
8
0
10
73.3360
20
155.2030
0
VERTEX
8
0
10
73.3350
20
155.2650
0
VERTEX
8
0
10
73.3410
20
155.3270
0
VERTEX
8
0
10
73.3520
20
155.3890
0
VERTEX
8
0
10
73.3690
20
155.4480
0
VERTEX
8
0
10
73.3920
20
155.5070
0
VERTEX
8
0
10
73.4200
20
155.5620
0
VERTEX
8
0
10
75.1960
20
158.6750
0
VERTEX
8
0
10
75.2320
20
158.7310
0
VERTEX
8
0
10
75.2740
20
158.7840
0
VERTEX
8
0
10
75.3210
20
158.8310
0
VERTEX
8
0
10
75.3730
20
158.8740
0
VERTEX
8
0
10
75.4280
20
158.9110
0
VERTEX
8
0
10
75.4870
20
158.9420
0
VERTEX
8
0
10
81.3030
20
161.6260
0
VERTEX
8
0
10
81.3620
20
161.6500
0
VERTEX
8
0
10
81.4230
20
161.6680
0
VERTEX
8
0
10
81.4860
20
161.6800
0
VERTEX
8
0
10
81.5490
20
161.6850
0
VERTEX
8
0
10
81.6120
20
161.6850
0
VERTEX
8
0
10
81.6750
20
161.6780
0
VERTEX
8
0
10
81.7370
20
161.6650
0
VERTEX
8
0
10
86.1350
20
160.5270
0
VERTEX
8
0
10
86.1930
20
160.5090
0
VERTEX
8
0
10
86.2500
20
160.4860
0
VERTEX
8
0
10
86.3030
20
160.4580
0
VERTEX
8
0
10
86.3540
20
160.4240
0
VERTEX
8
0
10
86.4010
20
160.3860
0
VERTEX
8
0
10
86.4450
20
160.3440
0
VERTEX
8
0
10
86.4850
20
160.2980
0
VERTEX
8
0
10
86.5200
20
160.2480
0
VERTEX
8
0
10
86.5500
20
160.1950
0
VERTEX
8
0
10
88.3760
20
156.6260
0
VERTEX
8
0
10
88.4030
20
156.5670
0
VERTEX
8
0
10
88.4230
20
156.5050
0
VERTEX
8
0
10
88.4380
20
156.4410
0
VERTEX
8
0
10
88.4450
20
156.3760
0
VERTEX
8
0
10
88.4470
20
156.3110
0
VERTEX
8
0
10
88.4410
20
156.2460
0
VERTEX
8
0
10
88.4290
20
156.1810
0
VERTEX
8
0
10
88.4110
20
156.1190
0
VERTEX
8
0
10
88.3870
20
156.0580
0
VERTEX
8
0
10
86.0720
20
151.0720
0
VERTEX
8
0
10
86.0440
20
151.0180
0
SEQEND
0
POLYLINE
8
0
66
1
70
1
0
VERTEX
8
0
10
56.7900
20
136.7230
0
VERTEX
8
0
10
56.8430
20
136.7580
0
VERTEX
8
0
10
56.9000
20
136.7880
0
VERTEX
8
0
10
56.9590
20
136.8120
0
VERTEX
8
0
10
57.0200
20
136.8300
0
VERTEX
8
0
10
57.0830
20
136.8430
0
VERTEX
8
0
10
57.1460
20
136.8480
0
VERTEX
8
0
10
57.2100
20
136.8480
0
VERTEX
8
0
10
60.9450
20
136.6400
0
VERTEX
8
0
10
61.0100
20
136.6330
0
VERTEX
8
0
10
61.0730
20
136.6200
0
VERTEX
8
0
10
61.1350
20
136.6000
0
VERTEX
8
0
10
61.1950
20
136.5740
0
VERTEX
8
0
10
61.2520
20
136.5430
0
VERTEX
8
0
10
61.3050
20
136.5060
0
VERTEX
8
0
10
61.3550
20
136.4640
0
VERTEX
8
0
10
61.3990
20
136.4170
0
VERTEX
8
0
10
63.8190
20
133.6150
0
VERTEX
8
0
10
63.8590
20
133.5630
0
VERTEX
8
0
10
63.8940
20
133.5080
0
VERTEX
8
0
10
63.9230
20
133.4500
0
VERTEX
8
0
10
63.9460
20
133.3890
0
VERTEX
8
0
10
63.9630
20
133.3260
0
VERTEX
8
0
10
63.9730
20
133.2620
0
VERTEX
8
0
10
63.9770
20
133.1970
0
VERTEX
8
0
10
63.9740
20
133.1320
0
VERTEX
8
0
10
63.6320
20
129.3910
0
VERTEX
8
0
10
63.6240
20
129.3280
0
VERTEX
8
0
10
63.6090
20
129.2670
0
VERTEX
8
0
10
63.5880
20
129.2070
0
VERTEX
8
0
10
63.5610
20
129.1500
0
VERTEX
8
0
10
63.5300
20
129.0960
0
VERTEX
8
0
10
63.4920
20
129.0450
0
VERTEX
8
0
10
63.4510
20
128.9970
0
VERTEX
8
0
10
63.4040
20
128.9540
0
VERTEX
8
0
10
60.6750
20
126.6560
0
VERTEX
8
0
10
60.6260
20
126.6190
0
VERTEX
8
0
10
60.5730
20
126.5860
0
VERTEX
8
0
10
60.5180
20
126.5580
0
VERTEX
8
0
10
60.4600
20
126.5360
0
VERTEX
8
0
10
60.4000
20
126.5200
0
VERTEX
8
0
10
60.3380
20
126.5090
0
VERTEX
8
0
10
60.2760
20
126.5040
0
VERTEX
8
0
10
60.2140
20
126.5050
0
VERTEX
8
0
10
56.6430
20
126.7460
0
VERTEX
8
0
10
56.5810
20
126.7540
0
VERTEX
8
0
10
56.5200
20
126.7670
0
VERTEX
8
0
10
56.4600
20
126.7860
0
VERTEX
8
0
10
56.4020
20
126.8110
0
VERTEX
8
0
10
56.3470
20
126.8410
0
VERTEX
8
0
10
56.2960
20
126.8770
0
VERTEX
8
0
10
56.2480
20
126.9170
0
VERTEX
8
0
10
56.2040
20
126.9610
0
VERTEX
8
0
10
53.7850
20
129.6710
0
VERTEX
8
0
10
53.7450
20
129.7210
0
VERTEX
8
0
10
53.7100
20
129.7730
0
VERTEX
8
0
10
53.6810
20
129.8290
0
VERTEX
8
0
10
53.6570
20
129.8880
0
VERTEX
8
0
10
53.6390
20
129.9490
0
VERTEX
8
0
10
53.6270
20
130.0110
0
VERTEX
8
0
10
53.6210
20
130.0740
0
VERTEX
8
0
10
53.6210
20
130.1370
0
VERTEX
8
0
10
53.8120
20
133.7940
0
VERTEX
8
0
10
53.8180
20
133.8570
0
VERTEX
8
0
10
53.8310
20
133.9200
0
VERTEX
8
0
10
53.8500
20
133.9800
0
VERTEX
8
0
10
53.8740
20
134.0390
0
VERTEX
8
0
10
53.9040
20
134.0950
0
VERTEX
8
0
10
53.9400
20
134.1480
0
VERTEX
8
0
10
53.9810
20
134.1970
0
VERTEX
8
0
10
54.0260
20
134.2420
0
VERTEX
8
0
10
56.7410
20
136.6830
0
VERTEX
8
0
10
56.7900
20
136.7230
0
SEQEND
0
POLYLINE
8
0
66
1
70
1
0
VERTEX
8
0
10
51.3010
20
99.7470
0
VERTEX
8
0
10
51.3460
20
99.7020
0
VERTEX
8
0
10
51.3870
20
99.6540
0
VERTEX
8
0
10
51.4230
20
99.6010
0
VERTEX
8
0
10
51.4530
20
99.5460
0
VERTEX
8
0
10
51.4780
20
99.4870
0
VERTEX
8
0
10
52.4650
20
96.8090
0
VERTEX
8
0
10
52.4860
20
96.7420
0
VERTEX
8
0
10
52.4990
20
96.6730
0
VERTEX
8
0
10
52.5050
20
96.6030
0
VERTEX
8
0
10
52.5030
20
96.5320
0
VERTEX
8
0
10
51.8290
20
88.2980
0
VERTEX
8
0
10
51.8190
20
88.2290
0
VERTEX
8
0
10
51.8030
20
88.1610
0
VERTEX
8
0
10
51.7790
20
88.0960
0
VERTEX
8
0
10
51.7480
20
88.0340
0
VERTEX
8
0
10
51.7110
20
87.9750
0
VERTEX
8
0
10
48.8360
20
83.9440
0
VERTEX
8
0
10
48.7950
20
83.8930
0
VERTEX
8
0
10
48.7500
20
83.8460
0
VERTEX
8
0
10
48.7010
20
83.8050
0
VERTEX
8
0
10
48.6480
20
83.7680
0
VERTEX
8
0
10
48.5910
20
83.7370
0
VERTEX
8
0
10
48.5310
20
83.7120
0
VERTEX
8
0
10
48.4690
20
83.6920
0
VERTEX
8
0
10
44.8030
20
82.7490
0
VERTEX
8
0
10
44.7430
20
82.7370
0
VERTEX
8
0
10
44.6820
20
82.7300
0
VERTEX
8
0
10
44.6200
20
82.7290
0
VERTEX
8
0
10
44.5580
20
82.7340
0
VERTEX
8
0
10
44.4980
20
82.7450
0
VERTEX
8
0
10
44.4380
20
82.7620
0
VERTEX
8
0
10
33.3700
20
86.4290
0
VERTEX
8
0
10
33.3120
20
86.4510
0
VERTEX
8
0
10
33.2560
20
86.4800
0
VERTEX
8
0
10
33.2020
20
86.5130
0
VERTEX
8
0
10
33.1530
20
86.5520
0
VERTEX
8
0
10
33.1070
20
86.5950
0
VERTEX
8
0
10
33.0660
20
86.6420
0
VERTEX
8
0
10
33.0290
20
86.6930
0
VERTEX
8
0
10
30.3310
20
90.8780
0
VERTEX
8
0
10
30.2990
20
90.9350
0
VERTEX
8
0
10
30.2720
20
90.9940
0
VERTEX
8
0
10
30.2510
20
91.0560
0
VERTEX
8
0
10
30.2370
20
91.1200
0
VERTEX
8
0
10
30.2290
20
91.1850
0
VERTEX
8
0
10
30.2280
20
91.2510
0
VERTEX
8
0
10
30.2340
20
91.3160
0
VERTEX
8
0
10
30.2460
20
91.3800
0
VERTEX
8
0
10
30.2640
20
91.4430
0
VERTEX
8
0
10
30.2890
20
91.5040
0
VERTEX
8
0
10
32.1830
20
95.5540
0
VERTEX
8
0
10
32.2150
20
95.6130
0
VERTEX
8
0
10
32.2520
20
95.6680
0
VERTEX
8
0
10
32.2950
20
95.7200
0
VERTEX
8
0
10
32.3430
20
95.7670
0
VERTEX
8
0
10
32.3960
20
95.8080
0
VERTEX
8
0
10
32.4530
20
95.8440
0
VERTEX
8
0
10
32.5130
20
95.8740
0
VERTEX
8
0
10
46.0500
20
101.7180
0
VERTEX
8
0
10
46.1110
20
101.7410
0
VERTEX
8
0
10
46.1730
20
101.7570
0
VERTEX
8
0
10
46.2360
20
101.7670
0
VERTEX
8
0
10
46.3010
20
101.7710
0
VERTEX
8
0
10
46.3650
20
101.7680
0
VERTEX
8
0
10
48.6590
20
101.5610
0
VERTEX
8
0
10
48.7280
20
101.5510
0
VERTEX
8
0
10
48.7960
20
101.5340
0
VERTEX
8
0
10
48.8620
20
101.5090
0
VERTEX
8
0
10
48.9240
20
101.4780
0
VERTEX
8
0
10
48.9830
20
101.4400
0
VERTEX
8
0
10
51.2520
20
99.7870
0
VERTEX
8
0
10
51.3010
20
99.7470
0
SEQEND
0
ENDSEC
0
EOF