0
SECTION
2
HEADER
9
$ACADVER
1
AC1009
9
$INSUNITS
70
4
0
ENDSEC
0
SECTION
2
TABLES
0
TABLE
2
LAYER
70
1
0
LAYER
2
CUT
70
0
62
7
6
CONTINUOUS
0
ENDTAB
0
ENDSEC
0
SECTION
2
ENTITIES
0
POLYLINE
8
CUT
66
1
70
1
10
0.0
20
0.0
30
0.0
0
VERTEX
8
CUT
10
0.0000
20
299.9386
0
VERTEX
8
CUT
10
0.0029
20
299.9971
0
VERTEX
8
CUT
10
0.0614
20
300.0000
0
VERTEX
8
CUT
10
299.8528
20
300.0000
0
VERTEX
8
CUT
10
299.9113
20
299.9971
0
VERTEX
8
CUT
10
299.9141
20
299.9386
0
VERTEX
8
CUT
10
299.9141
20
0.0614
0
VERTEX
8
CUT
10
299.9113
20
0.0029
0
VERTEX
8
CUT
10
299.8528
20
-0.0000
0
VERTEX
8
CUT
10
0.0614
20
-0.0000
0
VERTEX
8
CUT
10
0.0029
20
0.0029
0
VERTEX
8
CUT
10
0.0000
20
0.0614
0
SEQEND
0
POLYLINE
8
CUT
66
1
70
1
10
0.0
20
0.0
30
0.0
0
VERTEX
8
CUT
10
234.2013
20
139.4358
0
VERTEX
8
CUT
10
234.2175
20
139.1738
0
VERTEX
8
CUT
10
234.2611
20
138.9149
0
VERTEX
8
CUT
10
234.3315
20
138.6620
0
VERTEX
8
CUT
10
234.3775
20
138.5459
0
VERTEX
8
CUT
10
234.3770
20
138.5457
0
VERTEX
8
CUT
10
234.4214
20
138.4248
0
VERTEX
8
CUT
10
234.4275
20
138.3832
0
VERTEX
8
CUT
10
234.4289
20
138.3628
0
VERTEX
8
CUT
10
234.4771
20
137.2105
0
VERTEX
8
CUT
10
234.4966
20
136.9864
0
VERTEX
8
CUT
10
234.5362
20
136.7650
0
VERTEX
8
CUT
10
234.5955
20
136.5480
0
VERTEX
8
CUT
10
234.7432
20
136.0898
0
VERTEX
8
CUT
10
234.8459
20
135.8241
0
VERTEX
8
CUT
10
236.1304
20
132.9927
0
VERTEX
8
CUT
10
236.2627
20
132.7404
0
VERTEX
8
CUT
10
236.4229
20
132.5047
0
VERTEX
8
CUT
10
240.4755
20
127.2174
0
VERTEX
8
CUT
10
240.5071
20
127.1743
0
VERTEX
8
CUT
10
240.5368
20
127.1298
0
VERTEX
8
CUT
10
242.5353
20
123.9888
0
VERTEX
8
CUT
10
242.5692
20
123.9322
0
VERTEX
8
CUT
10
242.6000
20
123.8738
0
VERTEX
8
CUT
10
243.7265
20
121.5935
0
VERTEX
8
CUT
10
243.8681
20
121.3441
0
VERTEX
8
CUT
10
244.0372
20
121.1126
0
VERTEX
8
CUT
10
244.5903
20
120.4402
0
VERTEX
8
CUT
10
244.6038
20
120.4228
0
VERTEX
8
CUT
10
244.6536
20
120.3465
0
VERTEX
8
CUT
10
244.6640
20
120.3271
0
VERTEX
8
CUT
10
245.4783
20
118.7112
0
VERTEX
8
CUT
10
245.5010
20
118.6637
0
VERTEX
8
CUT
10
245.5321
20
118.5904
0
VERTEX
8
CUT
10
245.5330
20
118.5907
0
VERTEX
8
CUT
10
245.6228
20
118.3946
0
VERTEX
8
CUT
10
245.7466
20
118.1825
0
VERTEX
8
CUT
10
245.8906
20
117.9835
0
VERTEX
8
CUT
10
246.0534
20
117.7995
0
VERTEX
8
CUT
10
246.2335
20
117.6325
0
VERTEX
8
CUT
10
246.4291
20
117.4839
0
VERTEX
8
CUT
10
246.6384
20
117.3553
0
VERTEX
8
CUT
10
246.8593
20
117.2478
0
VERTEX
8
CUT
10
247.0896
20
117.1625
0
VERTEX
8
CUT
10
247.3273
20
117.1002
0
VERTEX
8
CUT
10
247.5698
20
117.0615
0
VERTEX
8
CUT
10
247.8150
20
117.0468
0
VERTEX
8
CUT
10
248.0605
20
117.0563
0
VERTEX
8
CUT
10
248.3039
20
117.0898
0
VERTEX
8
CUT
10
248.5427
20
117.1470
0
VERTEX
8
CUT
10
248.7749
20
117.2274
0
VERTEX
8
CUT
10
248.9980
20
117.3302
0
VERTEX
8
CUT
10
249.2099
20
117.4544
0
VERTEX
8
CUT
10
249.4086
20
117.5988
0
VERTEX
8
CUT
10
249.5922
20
117.7620
0
VERTEX
8
CUT
10
249.7589
20
117.9424
0
VERTEX
8
CUT
10
249.9071
20
118.1383
0
VERTEX
8
CUT
10
250.0354
20
118.3479
0
VERTEX
8
CUT
10
250.1424
20
118.5689
0
VERTEX
8
CUT
10
250.2273
20
118.7995
0
VERTEX
8
CUT
10
250.2891
20
119.0372
0
VERTEX
8
CUT
10
250.3273
20
119.2799
0
VERTEX
8
CUT
10
250.3415
20
119.5251
0
VERTEX
8
CUT
10
250.3315
20
119.7705
0
VERTEX
8
CUT
10
250.2975
20
120.0138
0
VERTEX
8
CUT
10
250.1692
20
120.6883
0
VERTEX
8
CUT
10
250.1663
20
120.7059
0
VERTEX
8
CUT
10
250.1591
20
120.7796
0
VERTEX
8
CUT
10
250.1585
20
120.7975
0
VERTEX
8
CUT
10
250.1229
20
125.1609
0
VERTEX
8
CUT
10
250.1117
20
125.3773
0
VERTEX
8
CUT
10
250.0818
20
125.5919
0
VERTEX
8
CUT
10
250.0335
20
125.8032
0
VERTEX
8
CUT
10
249.8909
20
126.3220
0
VERTEX
8
CUT
10
249.8857
20
126.3430
0
VERTEX
8
CUT
10
249.8715
20
126.4318
0
VERTEX
8
CUT
10
249.8698
20
126.4534
0
VERTEX
8
CUT
10
249.5503
20
132.8836
0
VERTEX
8
CUT
10
249.5249
20
133.1358
0
VERTEX
8
CUT
10
249.4741
20
133.3841
0
VERTEX
8
CUT
10
249.3984
20
133.6261
0
VERTEX
8
CUT
10
249.3071
20
133.8730
0
VERTEX
8
CUT
10
249.3004
20
133.8929
0
VERTEX
8
CUT
10
249.2897
20
133.9349
0
VERTEX
8
CUT
10
249.2836
20
133.9777
0
VERTEX
8
CUT
10
249.2823
20
133.9987
0
VERTEX
8
CUT
10
249.2474
20
134.9560
0
VERTEX
8
CUT
10
249.2293
20
135.1791
0
VERTEX
8
CUT
10
249.1912
20
135.3996
0
VERTEX
8
CUT
10
249.1336
20
135.6159
0
VERTEX
8
CUT
10
249.0569
20
135.8262
0
VERTEX
8
CUT
10
249.0134
20
135.9307
0
VERTEX
8
CUT
10
249.0068
20
135.9475
0
VERTEX
8
CUT
10
248.9957
20
135.9829
0
VERTEX
8
CUT
10
248.9912
20
136.0194
0
VERTEX
8
CUT
10
248.9903
20
136.0375
0
VERTEX
8
CUT
10
248.9599
20
136.9877
0
VERTEX
8
CUT
10
248.9349
20
137.2696
0
VERTEX
8
CUT
10
248.8782
20
137.5468
0
VERTEX
8
CUT
10
248.7905
20
137.8159
0
VERTEX
8
CUT
10
248.7219
20
137.9918
0
VERTEX
8
CUT
10
248.7160
20
138.0080
0
VERTEX
8
CUT
10
248.7060
20
138.0423
0
VERTEX
8
CUT
10
248.7021
20
138.0774
0
VERTEX
8
CUT
10
248.7013
20
138.0949
0
VERTEX
8
CUT
10
248.6602
20
139.8680
0
VERTEX
8
CUT
10
248.6435
20
140.1036
0
VERTEX
8
CUT
10
248.6048
20
140.3366
0
VERTEX
8
CUT
10
248.5441
20
140.5650
0
VERTEX
8
CUT
10
248.4623
20
140.7865
0
VERTEX
8
CUT
10
248.4331
20
140.8553
0
VERTEX
8
CUT
10
248.4266
20
140.8716
0
VERTEX
8
CUT
10
248.4154
20
140.9061
0
VERTEX
8
CUT
10
248.4106
20
140.9417
0
VERTEX
8
CUT
10
248.4093
20
140.9594
0
VERTEX
8
CUT
10
248.3686
20
141.8201
0
VERTEX
8
CUT
10
248.3494
20
142.0329
0
VERTEX
8
CUT
10
248.3121
20
142.2434
0
VERTEX
8
CUT
10
248.2570
20
142.4498
0
VERTEX
8
CUT
10
247.8410
20
143.7769
0
VERTEX
8
CUT
10
247.8395
20
143.7821
0
VERTEX
8
CUT
10
247.8281
20
143.8319
0
VERTEX
8
CUT
10
247.8246
20
143.8573
0
VERTEX
8
CUT
10
247.8227
20
143.8816
0
VERTEX
8
CUT
10
247.7903
20
144.4912
0
VERTEX
8
CUT
10
247.7638
20
144.7448
0
VERTEX
8
CUT
10
247.7116
20
144.9944
0
VERTEX
8
CUT
10
246.3210
20
150.2808
0
VERTEX
8
CUT
10
246.2749
20
150.4355
0
VERTEX
8
CUT
10
243.9826
20
157.3118
0
VERTEX
8
CUT
10
243.9418
20
157.4251
0
VERTEX
8
CUT
10
243.5298
20
158.4877
0
VERTEX
8
CUT
10
243.4282
20
158.7153
0
VERTEX
8
CUT
10
243.3044
20
158.9316
0
VERTEX
8
CUT
10
243.1598
20
159.1345
0
VERTEX
8
CUT
10
242.9956
20
159.3221
0
VERTEX
8
CUT
10
242.8136
20
159.4923
0
VERTEX
8
CUT
10
242.6156
20
159.6436
0
VERTEX
8
CUT
10
242.4035
20
159.7744
0
VERTEX
8
CUT
10
242.1794
20
159.8835
0
VERTEX
8
CUT
10
241.9455
20
159.9697
0
VERTEX
8
CUT
10
241.7043
20
160.0322
0
VERTEX
8
CUT
10
241.4580
20
160.0703
0
VERTEX
8
CUT
10
241.2091
20
160.0838
0
VERTEX
8
CUT
10
240.9602
20
160.0724
0
VERTEX
8
CUT
10
240.7136
20
160.0362
0
VERTEX
8
CUT
10
240.4718
20
159.9757
0
VERTEX
8
CUT
10
240.2373
20
159.8915
0
VERTEX
8
CUT
10
240.0123
20
159.7842
0
VERTEX
8
CUT
10
239.7991
20
159.6552
0
VERTEX
8
CUT
10
239.5998
20
159.5055
0
VERTEX
8
CUT
10
239.4164
20
159.3367
0
VERTEX
8
CUT
10
239.2507
20
159.1506
0
VERTEX
8
CUT
10
239.1044
20
158.9488
0
VERTEX
8
CUT
10
238.9789
20
158.7335
0
VERTEX
8
CUT
10
238.8755
20
158.5068
0
VERTEX
8
CUT
10
238.8245
20
158.3783
0
VERTEX
8
CUT
10
238.8035
20
158.3348
0
VERTEX
8
CUT
10
238.8056
20
158.3337
0
VERTEX
8
CUT
10
238.7225
20
158.1482
0
VERTEX
8
CUT
10
238.6412
20
157.8998
0
VERTEX
8
CUT
10
238.5863
20
157.6442
0
VERTEX
8
CUT
10
238.5583
20
157.3843
0
VERTEX
8
CUT
10
238.5391
20
157.0336
0
VERTEX
8
CUT
10
238.5387
20
157.0282
0
VERTEX
8
CUT
10
238.5319
20
156.9779
0
VERTEX
8
CUT
10
238.5263
20
156.9530
0
VERTEX
8
CUT
10
238.5196
20
156.9296
0
VERTEX
8
CUT
10
238.0548
20
155.4485
0
VERTEX
8
CUT
10
237.9736
20
155.1078
0
VERTEX
8
CUT
10
237.6506
20
153.1553
0
VERTEX
8
CUT
10
237.6466
20
153.1343
0
VERTEX
8
CUT
10
237.6230
20
153.0494
0
VERTEX
8
CUT
10
237.6157
20
153.0294
0
VERTEX
8
CUT
10
236.6317
20
150.5538
0
VERTEX
8
CUT
10
236.5547
20
150.3294
0
VERTEX
8
CUT
10
236.4992
20
150.0988
0
VERTEX
8
CUT
10
236.1877
20
148.4653
0
VERTEX
8
CUT
10
236.1838
20
148.4471
0
VERTEX
8
CUT
10
236.1623
20
148.3731
0
VERTEX
8
CUT
10
236.1559
20
148.3556
0
VERTEX
8
CUT
10
235.7264
20
147.2670
0
VERTEX
8
CUT
10
235.6262
20
146.9545
0
VERTEX
8
CUT
10
234.8226
20
143.7332
0
VERTEX
8
CUT
10
234.7650
20
143.4175
0
VERTEX
8
CUT
10
234.4428
20
140.6528
0
VERTEX
8
CUT
10
234.4401
20
140.6336
0
VERTEX
8
CUT
10
234.4316
20
140.5945
0
VERTEX
8
CUT
10
234.4193
20
140.5564
0
VERTEX
8
CUT
10
234.4121
20
140.5385
0
VERTEX
8
CUT
10
234.4068
20
140.5264
0
VERTEX
8
CUT
10
234.3156
20
140.2816
0
VERTEX
8
CUT
10
234.2504
20
140.0286
0
VERTEX
8
CUT
10
234.2119
20
139.7701
0
VERTEX
8
CUT
10
234.2006
20
139.5091
0
SEQEND
0
POLYLINE
8
CUT
66
1
70
1
10
0.0
20
0.0
30
0.0
0
VERTEX
8
CUT
10
203.5311
20
111.4933
0
VERTEX
8
CUT
10
203.4322
20
111.2792
0
VERTEX
8
CUT
10
203.3539
20
111.0567
0
VERTEX
8
CUT
10
203.2969
20
110.8278
0
VERTEX
8
CUT
10
203.2618
20
110.5945
0
VERTEX
8
CUT
10
203.2488
20
110.3590
0
VERTEX
8
CUT
10
203.2100
20
105.5180
0
VERTEX
8
CUT
10
203.2258
20
105.2169
0
VERTEX
8
CUT
10
203.2777
20
104.9198
0
VERTEX
8
CUT
10
203.4387
20
104.2425
0
VERTEX
8
CUT
10
203.4973
20
104.0358
0
VERTEX
8
CUT
10
203.5735
20
103.8349
0
VERTEX
8
CUT
10
204.2595
20
102.2361
0
VERTEX
8
CUT
10
204.2668
20
102.2177
0
VERTEX
8
CUT
10
204.2791
20
102.1787
0
VERTEX
8
CUT
10
204.2875
20
102.1386
0
VERTEX
8
CUT
10
204.2901
20
102.1190
0
VERTEX
8
CUT
10
204.3191
20
101.8451
0
VERTEX
8
CUT
10
204.3522
20
101.6260
0
VERTEX
8
CUT
10
204.4046
20
101.4107
0
VERTEX
8
CUT
10
204.4758
20
101.2008
0
VERTEX
8
CUT
10
204.5654
20
100.9981
0
VERTEX
8
CUT
10
205.4875
20
99.1381
0
VERTEX
8
CUT
10
205.6047
20
98.9278
0
VERTEX
8
CUT
10
207.8122
20
95.3803
0
VERTEX
8
CUT
10
207.9894
20
95.1309
0
VERTEX
8
CUT
10
210.3104
20
92.2553
0
VERTEX
8
CUT
10
210.4878
20
92.0580
0
VERTEX
8
CUT
10
211.9904
20
90.5550
0
VERTEX
8
CUT
10
212.1867
20
90.3784
0
VERTEX
8
CUT
10
215.0321
20
88.0779
0
VERTEX
8
CUT
10
215.2628
20
87.9122
0
VERTEX
8
CUT
10
217.3538
20
86.5829
0
VERTEX
8
CUT
10
217.5468
20
86.4720
0
VERTEX
8
CUT
10
217.7489
20
86.3787
0
VERTEX
8
CUT
10
220.6015
20
85.2125
0
VERTEX
8
CUT
10
220.8270
20
85.1327
0
VERTEX
8
CUT
10
221.0590
20
85.0748
0
VERTEX
8
CUT
10
221.2955
20
85.0393
0
VERTEX
8
CUT
10
221.5343
20
85.0266
0
VERTEX
8
CUT
10
226.4032
20
85.0008
0
VERTEX
8
CUT
10
226.6603
20
85.0127
0
VERTEX
8
CUT
10
226.9147
20
85.0510
0
VERTEX
8
CUT
10
227.9002
20
85.2514
0
VERTEX
8
CUT
10
228.1200
20
85.3066
0
VERTEX
8
CUT
10
228.3338
20
85.3814
0
VERTEX
8
CUT
10
229.3348
20
85.7835
0
VERTEX
8
CUT
10
229.5291
20
85.8713
0
VERTEX
8
CUT
10
229.7151
20
85.9754
0
VERTEX
8
CUT
10
229.8917
20
86.0949
0
VERTEX
8
CUT
10
230.6487
20
86.6560
0
VERTEX
8
CUT
10
230.8023
20
86.7795
0
VERTEX
8
CUT
10
230.9457
20
86.9148
0
VERTEX
8
CUT
10
232.5610
20
88.5633
0
VERTEX
8
CUT
10
232.7281
20
88.7519
0
VERTEX
8
CUT
10
232.8753
20
88.9564
0
VERTEX
8
CUT
10
233.0012
20
89.1747
0
VERTEX
8
CUT
10
233.6187
20
90.3823
0
VERTEX
8
CUT
10
233.7131
20
90.5897
0
VERTEX
8
CUT
10
233.7882
20
90.8048
0
VERTEX
8
CUT
10
234.5160
20
93.2401
0
VERTEX
8
CUT
10
234.5666
20
93.4390
0
VERTEX
8
CUT
10
234.6008
20
93.6414
0
VERTEX
8
CUT
10
234.6182
20
93.8459
0
VERTEX
8
CUT
10
234.6551
20
94.6843
0
VERTEX
8
CUT
10
234.6566
20
94.7052
0
VERTEX
8
CUT
10
234.6630
20
94.7478
0
VERTEX
8
CUT
10
234.6739
20
94.7896
0
VERTEX
8
CUT
10
234.6808
20
94.8093
0
VERTEX
8
CUT
10
234.7459
20
94.9823
0
VERTEX
8
CUT
10
234.8166
20
95.1993
0
VERTEX
8
CUT
10
234.8671
20
95.4219
0
VERTEX
8
CUT
10
234.8971
20
95.6481
0
VERTEX
8
CUT
10
234.9064
20
95.8762
0
VERTEX
8
CUT
10
234.9020
20
96.7555
0
VERTEX
8
CUT
10
234.8907
20
96.9811
0
VERTEX
8
CUT
10
234.8590
20
97.2048
0
VERTEX
8
CUT
10
234.8073
20
97.4247
0
VERTEX
8
CUT
10
234.7360
20
97.6391
0
VERTEX
8
CUT
10
234.6456
20
97.8461
0
VERTEX
8
CUT
10
234.4221
20
98.3005
0
VERTEX
8
CUT
10
234.4138
20
98.3186
0
VERTEX
8
CUT
10
234.3994
20
98.3573
0
VERTEX
8
CUT
10
234.3931
20
98.3980
0
VERTEX
8
CUT
10
234.3916
20
98.4180
0
VERTEX
8
CUT
10
234.3243
20
99.7039
0
VERTEX
8
CUT
10
234.2909
20
100.0013
0
VERTEX
8
CUT
10
234.2221
20
100.2925
0
VERTEX
8
CUT
10
233.2337
20
103.5836
0
VERTEX
8
CUT
10
233.2285
20
103.6025
0
VERTEX
8
CUT
10
233.2130
20
103.6817
0
VERTEX
8
CUT
10
233.2107
20
103.7010
0
VERTEX
8
CUT
10
233.1807
20
104.0142
0
VERTEX
8
CUT
10
233.1453
20
104.2570
0
VERTEX
8
CUT
10
233.0863
20
104.4952
0
VERTEX
8
CUT
10
233.0043
20
104.7264
0
VERTEX
8
CUT
10
231.2005
20
109.1142
0
VERTEX
8
CUT
10
231.1853
20
109.1530
0
VERTEX
8
CUT
10
231.1715
20
109.1923
0
VERTEX
8
CUT
10
230.3147
20
111.7605
0
VERTEX
8
CUT
10
230.3131
20
111.7657
0
VERTEX
8
CUT
10
230.3009
20
111.8147
0
VERTEX
8
CUT
10
230.2969
20
111.8397
0
VERTEX
8
CUT
10
230.2946
20
111.8638
0
VERTEX
8
CUT
10
230.2423
20
112.5669
0
VERTEX
8
CUT
10
230.2048
20
112.8509
0
VERTEX
8
CUT
10
230.1349
20
113.1288
0
VERTEX
8
CUT
10
229.7085
20
114.4903
0
VERTEX
8
CUT
10
229.7037
20
114.5073
0
VERTEX
8
CUT
10
229.6959
20
114.5431
0
VERTEX
8
CUT
10
229.6913
20
114.5796
0
VERTEX
8
CUT
10
229.6903
20
114.5968
0
VERTEX
8
CUT
10
229.6504
20
115.6978
0
VERTEX
8
CUT
10
229.6325
20
115.9199
0
VERTEX
8
CUT
10
229.5948
20
116.1395
0
VERTEX
8
CUT
10
229.5377
20
116.3548
0
VERTEX
8
CUT
10
229.4055
20
116.7768
0
VERTEX
8
CUT
10
229.4001
20
116.7959
0
VERTEX
8
CUT
10
229.3918
20
116.8360
0
VERTEX
8
CUT
10
229.3876
20
116.8767
0
VERTEX
8
CUT
10
229.3870
20
116.8965
0
VERTEX
8
CUT
10
229.3740
20
120.4194
0
VERTEX
8
CUT
10
229.3745
20
120.4406
0
VERTEX
8
CUT
10
229.3835
20
120.5279
0
VERTEX
8
CUT
10
229.3874
20
120.5487
0
VERTEX
8
CUT
10
229.5838
20
121.4713
0
VERTEX
8
CUT
10
229.6228
20
121.7117
0
VERTEX
8
CUT
10
229.6383
20
121.9547
0
VERTEX
8
CUT
10
229.6736
20
124.3303
0
VERTEX
8
CUT
10
229.6743
20
124.3491
0
VERTEX
8
CUT
10
229.6786
20
124.3878
0
VERTEX
8
CUT
10
229.6865
20
124.4258
0
VERTEX
8
CUT
10
229.6916
20
124.4439
0
VERTEX
8
CUT
10
229.8205
20
124.8615
0
VERTEX
8
CUT
10
229.8798
20
125.0920
0
VERTEX
8
CUT
10
229.9169
20
125.3271
0
VERTEX
8
CUT
10
229.9314
20
125.5647
0
VERTEX
8
CUT
10
229.9472
20
126.7246
0
VERTEX
8
CUT
10
229.9391
20
126.9632
0
VERTEX
8
CUT
10
229.9082
20
127.1999
0
VERTEX
8
CUT
10
229.6865
20
128.4362
0
VERTEX
8
CUT
10
229.6857
20
128.4414
0
VERTEX
8
CUT
10
229.6777
20
128.5181
0
VERTEX
8
CUT
10
229.6769
20
128.5363
0
VERTEX
8
CUT
10
229.6259
20
131.0193
0
VERTEX
8
CUT
10
229.6018
20
131.3178
0
VERTEX
8
CUT
10
229.5422
20
131.6113
0
VERTEX
8
CUT
10
228.5036
20
135.5114
0
VERTEX
8
CUT
10
228.4228
20
135.7613
0
VERTEX
8
CUT
10
228.3162
20
136.0013
0
VERTEX
8
CUT
10
227.4484
20
137.7079
0
VERTEX
8
CUT
10
227.3174
20
137.9352
0
VERTEX
8
CUT
10
227.1633
20
138.1476
0
VERTEX
8
CUT
10
226.9877
20
138.3425
0
VERTEX
8
CUT
10
226.1099
20
139.2203
0
VERTEX
8
CUT
10
225.9028
20
139.4057
0
VERTEX
8
CUT
10
225.6763
20
139.5668
0
VERTEX
8
CUT
10
225.4334
20
139.7019
0
VERTEX
8
CUT
10
225.3073
20
139.7630
0
VERTEX
8
CUT
10
225.0874
20
139.8570
0
VERTEX
8
CUT
10
224.8597
20
139.9295
0
VERTEX
8
CUT
10
224.6260
20
139.9799
0
VERTEX
8
CUT
10
224.3886
20
140.0078
0
VERTEX
8
CUT
10
224.1496
20
140.0129
0
VERTEX
8
CUT
10
223.9112
20
139.9951
0
VERTEX
8
CUT
10
223.6756
20
139.9546
0
VERTEX
8
CUT
10
223.5325
20
139.9229
0
VERTEX
8
CUT
10
223.3223
20
139.8667
0
VERTEX
8
CUT
10
223.1178
20
139.7924
0
VERTEX
8
CUT
10
222.9206
20
139.7007
0
VERTEX
8
CUT
10
222.7321
20
139.5921
0
VERTEX
8
CUT
10
222.4910
20
139.4388
0
VERTEX
8
CUT
10
222.2572
20
139.2707
0
VERTEX
8
CUT
10
222.0444
20
139.0767
0
VERTEX
8
CUT
10
220.6592
20
137.6602
0
VERTEX
8
CUT
10
220.4862
20
137.4636
0
VERTEX
8
CUT
10
220.3347
20
137.2501
0
VERTEX
8
CUT
10
219.0445
20
135.2133
0
VERTEX
8
CUT
10
218.9355
20
135.0231
0
VERTEX
8
CUT
10
215.0809
20
127.5631
0
VERTEX
8
CUT
10
215.0783
20
127.5584
0
VERTEX
8
CUT
10
215.0366
20
127.4909
0
VERTEX
8
CUT
10
215.0259
20
127.4757
0
VERTEX
8
CUT
10
210.9251
20
121.9466
0
VERTEX
8
CUT
10
210.8885
20
121.8997
0
VERTEX
8
CUT
10
210.8497
20
121.8547
0
VERTEX
8
CUT
10
206.9040
20
117.4930
0
VERTEX
8
CUT
10
206.7931
20
117.3615
0
VERTEX
8
CUT
10
204.8266
20
114.8616
0
VERTEX
8
CUT
10
204.6849
20
114.6621
0
VERTEX
8
CUT
10
204.5634
20
114.4497
0
VERTEX
8
CUT
10
204.2102
20
113.7556
0
VERTEX
8
CUT
10
204.1247
20
113.5690
0
VERTEX
8
CUT
10
204.0548
20
113.3760
0
VERTEX
8
CUT
10
204.0010
20
113.1779
0
VERTEX
8
CUT
10
203.6950
20
111.8367
0
VERTEX
8
CUT
10
203.6909
20
111.8204
0
VERTEX
8
CUT
10
203.6802
20
111.7870
0
VERTEX
8
CUT
10
203.6667
20
111.7545
0
VERTEX
8
CUT
10
203.6594
20
111.7397
0
SEQEND
0
POLYLINE
8
CUT
66
1
70
1
10
0.0
20
0.0
30
0.0
0
VERTEX
8
CUT
10
136.3754
20
140.7557
0
VERTEX
8
CUT
10
136.1336
20
140.8130
0
VERTEX
8
CUT
10
135.8874
20
140.8461
0
VERTEX
8
CUT
10
135.6391
20
140.8546
0
VERTEX
8
CUT
10
135.3911
20
140.8383
0
VERTEX
8
CUT
10
135.1460
20
140.7976
0
VERTEX
8
CUT
10
134.9062
20
140.7327
0
VERTEX
8
CUT
10
134.6739
20
140.6443
0
VERTEX
8
CUT
10
134.4516
20
140.5333
0
VERTEX
8
CUT
10
134.2415
20
140.4008
0
VERTEX
8
CUT
10
134.0455
20
140.2481
0
VERTEX
8
CUT
10
133.8656
20
140.0767
0
VERTEX
8
CUT
10
133.7036
20
139.8882
0
VERTEX
8
CUT
10
133.5612
20
139.6847
0
VERTEX
8
CUT
10
133.4396
20
139.4679
0
VERTEX
8
CUT
10
133.3402
20
139.2402
0
VERTEX
8
CUT
10
133.2639
20
139.0038
0
VERTEX
8
CUT
10
133.2114
20
138.7609
0
VERTEX
8
CUT
10
133.1832
20
138.5140
0
VERTEX
8
CUT
10
133.1798
20
138.2656
0
VERTEX
8
CUT
10
133.2010
20
138.0180
0
VERTEX
8
CUT
10
133.2466
20
137.7738
0
VERTEX
8
CUT
10
133.3163
20
137.5353
0
VERTEX
8
CUT
10
133.4094
20
137.3049
0
VERTEX
8
CUT
10
133.5248
20
137.0849
0
VERTEX
8
CUT
10
133.6615
20
136.8774
0
VERTEX
8
CUT
10
133.8181
20
136.6845
0
VERTEX
8
CUT
10
133.9931
20
136.5081
0
VERTEX
8
CUT
10
138.0537
20
132.8031
0
VERTEX
8
CUT
10
138.1041
20
132.7544
0
VERTEX
8
CUT
10
138.1516
20
132.7029
0
VERTEX
8
CUT
10
140.3660
20
130.1608
0
VERTEX
8
CUT
10
140.4042
20
130.1148
0
VERTEX
8
CUT
10
140.4400
20
130.0670
0
VERTEX
8
CUT
10
142.9642
20
126.5239
0
VERTEX
8
CUT
10
143.0391
20
126.4241
0
VERTEX
8
CUT
10
146.2710
20
122.3357
0
VERTEX
8
CUT
10
146.4098
20
122.1747
0
VERTEX
8
CUT
10
146.5617
20
122.0261
0
VERTEX
8
CUT
10
149.7982
20
119.1191
0
VERTEX
8
CUT
10
150.0562
20
118.9163
0
VERTEX
8
CUT
10
151.5796
20
117.8730
0
VERTEX
8
CUT
10
151.8746
20
117.6994
0
VERTEX
8
CUT
10
154.9946
20
116.1401
0
VERTEX
8
CUT
10
155.2257
20
116.0388
0
VERTEX
8
CUT
10
155.4658
20
115.9614
0
VERTEX
8
CUT
10
158.1693
20
115.2377
0
VERTEX
8
CUT
10
158.3780
20
115.1913
0
VERTEX
8
CUT
10
158.5898
20
115.1629
0
VERTEX
8
CUT
10
158.8033
20
115.1527
0
VERTEX
8
CUT
10
162.3849
20
115.1348
0
VERTEX
8
CUT
10
162.6064
20
115.1435
0
VERTEX
8
CUT
10
162.8261
20
115.1718
0
VERTEX
8
CUT
10
164.1384
20
115.4003
0
VERTEX
8
CUT
10
164.3209
20
115.4391
0
VERTEX
8
CUT
10
164.5000
20
115.4914
0
VERTEX
8
CUT
10
166.8730
20
116.2822
0
VERTEX
8
CUT
10
167.2084
20
116.4218
0
VERTEX
8
CUT
10
169.7165
20
117.6866
0
VERTEX
8
CUT
10
169.9196
20
117.8012
0
VERTEX
8
CUT
10
170.1111
20
117.9343
0
VERTEX
8
CUT
10
173.6993
20
120.6832
0
VERTEX
8
CUT
10
173.8691
20
120.8257
0
VERTEX
8
CUT
10
174.0256
20
120.9827
0
VERTEX
8
CUT
10
179.3950
20
126.8672
0
VERTEX
8
CUT
10
179.4152
20
126.8888
0
VERTEX
8
CUT
10
179.4360
20
126.9100
0
VERTEX
8
CUT
10
182.4054
20
129.8636
0
VERTEX
8
CUT
10
182.5744
20
130.0495
0
VERTEX
8
CUT
10
182.7239
20
130.2514
0
VERTEX
8
CUT
10
182.8524
20
130.4674
0
VERTEX
8
CUT
10
182.9585
20
130.6951
0
VERTEX
8
CUT
10
183.0413
20
130.9323
0
VERTEX
8
CUT
10
183.0998
20
131.1767
0
VERTEX
8
CUT
10
183.1335
20
131.4257
0
VERTEX
8
CUT
10
183.1420
20
131.6768
0
VERTEX
8
CUT
10
183.1253
20
131.9275
0
VERTEX
8
CUT
10
183.0835
20
132.1753
0
VERTEX
8
CUT
10
183.0171
20
132.4176
0
VERTEX
8
CUT
10
182.9266
20
132.6520
0
VERTEX
8
CUT
10
182.8131
20
132.8762
0
VERTEX
8
CUT
10
182.6777
20
133.0878
0
VERTEX
8
CUT
10
182.5217
20
133.2847
0
VERTEX
8
CUT
10
182.3467
20
133.4651
0
VERTEX
8
CUT
10
182.1545
20
133.6269
0
VERTEX
8
CUT
10
181.9470
20
133.7686
0
VERTEX
8
CUT
10
181.7264
20
133.8888
0
VERTEX
8
CUT
10
181.4948
20
133.9862
0
VERTEX
8
CUT
10
179.6331
20
134.6615
0
VERTEX
8
CUT
10
179.6283
20
134.6633
0
VERTEX
8
CUT
10
179.5593
20
134.6942
0
VERTEX
8
CUT
10
179.5435
20
134.7024
0
VERTEX
8
CUT
10
178.7149
20
135.1569
0
VERTEX
8
CUT
10
178.4889
20
135.2664
0
VERTEX
8
CUT
10
178.2531
20
135.3527
0
VERTEX
8
CUT
10
178.0098
20
135.4150
0
VERTEX
8
CUT
10
177.7615
20
135.4525
0
VERTEX
8
CUT
10
177.5108
20
135.4649
0
VERTEX
8
CUT
10
177.2600
20
135.4521
0
VERTEX
8
CUT
10
177.0117
20
135.4142
0
VERTEX
8
CUT
10
176.7686
20
135.3516
0
VERTEX
8
CUT
10
176.5329
20
135.2650
0
VERTEX
8
CUT
10
176.3071
20
135.1551
0
VERTEX
8
CUT
10
176.0935
20
135.0231
0
VERTEX
8
CUT
10
175.8942
20
134.8703
0
VERTEX
8
CUT
10
175.7112
20
134.6984
0
VERTEX
8
CUT
10
175.5464
20
134.5089
0
VERTEX
8
CUT
10
175.4014
20
134.3039
0
VERTEX
8
CUT
10
175.2778
20
134.0854
0
VERTEX
8
CUT
10
175.1766
20
133.8555
0
VERTEX
8
CUT
10
175.0991
20
133.6167
0
VERTEX
8
CUT
10
175.0459
20
133.3713
0
VERTEX
8
CUT
10
175.0175
20
133.1218
0
VERTEX
8
CUT
10
174.9813
20
132.5447
0
VERTEX
8
CUT
10
174.9795
20
132.5248
0
VERTEX
8
CUT
10
174.9728
20
132.4843
0
VERTEX
8
CUT
10
174.9543
20
132.4476
0
VERTEX
8
CUT
10
174.9439
20
132.4305
0
VERTEX
8
CUT
10
173.4483
20
130.0939
0
VERTEX
8
CUT
10
173.4453
20
130.0893
0
VERTEX
8
CUT
10
173.3963
20
130.0246
0
VERTEX
8
CUT
10
173.3838
20
130.0101
0
VERTEX
8
CUT
10
170.3187
20
126.6157
0
VERTEX
8
CUT
10
170.2580
20
126.5531
0
VERTEX
8
CUT
10
170.1929
20
126.4949
0
VERTEX
8
CUT
10
168.1153
20
124.7678
0
VERTEX
8
CUT
10
168.1015
20
124.7568
0
VERTEX
8
CUT
10
168.0715
20
124.7361
0
VERTEX
8
CUT
10
168.0397
20
124.7180
0
VERTEX
8
CUT
10
168.0243
20
124.7106
0
VERTEX
8
CUT
10
166.0577
20
123.8143
0
VERTEX
8
CUT
10
166.0393
20
123.8065
0
VERTEX
8
CUT
10
166.0009
20
123.7935
0
VERTEX
8
CUT
10
165.9653
20
123.8128
0
VERTEX
8
CUT
10
165.9485
20
123.8236
0
VERTEX
8
CUT
10
165.5490
20
124.0964
0
VERTEX
8
CUT
10
165.5345
20
124.1068
0
VERTEX
8
CUT
10
165.5062
20
124.1301
0
VERTEX
8
CUT
10
165.4881
20
124.1616
0
VERTEX
8
CUT
10
165.4803
20
124.1778
0
VERTEX
8
CUT
10
165.3299
20
124.5054
0
VERTEX
8
CUT
10
165.3219
20
124.5240
0
VERTEX
8
CUT
10
165.3086
20
124.5632
0
VERTEX
8
CUT
10
165.3077
20
124.6046
0
VERTEX
8
CUT
10
165.3088
20
124.6247
0
VERTEX
8
CUT
10
165.5594
20
127.7287
0
VERTEX
8
CUT
10
165.5671
20
127.9752
0
VERTEX
8
CUT
10
165.5504
20
128.2213
0
VERTEX
8
CUT
10
165.2863
20
130.4715
0
VERTEX
8
CUT
10
165.2436
20
130.7234
0
VERTEX
8
CUT
10
165.1754
20
130.9697
0
VERTEX
8
CUT
10
164.7053
20
132.3818
0
VERTEX
8
CUT
10
164.5723
20
132.7042
0
VERTEX
8
CUT
10
163.5529
20
134.7569
0
VERTEX
8
CUT
10
163.4175
20
134.9957
0
VERTEX
8
CUT
10
162.1495
20
136.9703
0
VERTEX
8
CUT
10
162.0166
20
137.1577
0
VERTEX
8
CUT
10
161.8672
20
137.3320
0
VERTEX
8
CUT
10
160.7937
20
138.4737
0
VERTEX
8
CUT
10
160.6829
20
138.5844
0
VERTEX
8
CUT
10
159.5071
20
139.6875
0
VERTEX
8
CUT
10
159.3604
20
139.8148
0
VERTEX
8
CUT
10
159.2042
20
139.9303
0
VERTEX
8
CUT
10
157.3537
20
141.1911
0
VERTEX
8
CUT
10
157.1364
20
141.3235
0
VERTEX
8
CUT
10
156.9067
20
141.4331
0
VERTEX
8
CUT
10
156.6670
20
141.5188
0
VERTEX
8
CUT
10
156.4199
20
141.5797
0
VERTEX
8
CUT
10
156.1679
20
141.6151
0
VERTEX
8
CUT
10
155.7960
20
141.6483
0
VERTEX
8
CUT
10
155.7745
20
141.6508
0
VERTEX
8
CUT
10
155.7305
20
141.6596
0
VERTEX
8
CUT
10
155.6878
20
141.6732
0
VERTEX
8
CUT
10
155.6361
20
141.6945
0
VERTEX
8
CUT
10
155.6351
20
141.6922
0
VERTEX
8
CUT
10
155.4484
20
141.7635
0
VERTEX
8
CUT
10
155.1923
20
141.8313
0
VERTEX
8
CUT
10
154.9306
20
141.8716
0
VERTEX
8
CUT
10
154.6660
20
141.8840
0
VERTEX
8
CUT
10
153.9006
20
141.8792
0
VERTEX
8
CUT
10
153.6268
20
141.8625
0
VERTEX
8
CUT
10
153.3566
20
141.8158
0
VERTEX
8
CUT
10
153.0930
20
141.7399
0
VERTEX
8
CUT
10
152.2157
20
141.4340
0
VERTEX
8
CUT
10
152.0069
20
141.3505
0
VERTEX
8
CUT
10
151.8065
20
141.2485
0
VERTEX
8
CUT
10
151.6160
20
141.1290
0
VERTEX
8
CUT
10
151.4370
20
140.9928
0
VERTEX
8
CUT
10
151.2710
20
140.8411
0
VERTEX
8
CUT
10
151.2352
20
140.8053
0
VERTEX
8
CUT
10
151.0615
20
140.6126
0
VERTEX
8
CUT
10
150.9088
20
140.4029
0
VERTEX
8
CUT
10
150.7786
20
140.1786
0
VERTEX
8
CUT
10
150.6723
20
139.9419
0
VERTEX
8
CUT
10
149.9980
20
138.2042
0
VERTEX
8
CUT
10
149.8960
20
137.8760
0
VERTEX
8
CUT
10
149.4057
20
135.8056
0
VERTEX
8
CUT
10
149.3543
20
135.5113
0
VERTEX
8
CUT
10
149.3384
20
135.2129
0
VERTEX
8
CUT
10
149.3474
20
133.8567
0
VERTEX
8
CUT
10
149.3611
20
133.6105
0
VERTEX
8
CUT
10
149.3991
20
133.3669
0
VERTEX
8
CUT
10
149.4609
20
133.1282
0
VERTEX
8
CUT
10
149.5459
20
132.8967
0
VERTEX
8
CUT
10
149.5667
20
132.8478
0
VERTEX
8
CUT
10
149.5732
20
132.8314
0
VERTEX
8
CUT
10
149.5843
20
132.7969
0
VERTEX
8
CUT
10
149.5892
20
132.7614
0
VERTEX
8
CUT
10
149.5904
20
132.7436
0
VERTEX
8
CUT
10
149.6270
20
131.9676
0
VERTEX
8
CUT
10
149.6540
20
131.7005
0
VERTEX
8
CUT
10
149.7095
20
131.4378
0
VERTEX
8
CUT
10
149.7929
20
131.1826
0
VERTEX
8
CUT
10
150.1471
20
130.2678
0
VERTEX
8
CUT
10
150.1531
20
130.2511
0
VERTEX
8
CUT
10
150.1632
20
130.2160
0
VERTEX
8
CUT
10
150.1669
20
130.1801
0
VERTEX
8
CUT
10
150.1675
20
130.1622
0
VERTEX
8
CUT
10
150.1755
20
129.5420
0
VERTEX
8
CUT
10
150.1753
20
129.5244
0
VERTEX
8
CUT
10
150.1725
20
129.4881
0
VERTEX
8
CUT
10
150.1602
20
129.4537
0
VERTEX
8
CUT
10
150.1533
20
129.4379
0
VERTEX
8
CUT
10
149.8035
20
128.6817
0
VERTEX
8
CUT
10
149.7951
20
128.6647
0
VERTEX
8
CUT
10
149.7754
20
128.6311
0
VERTEX
8
CUT
10
149.7423
20
128.6105
0
VERTEX
8
CUT
10
149.7255
20
128.6016
0
VERTEX
8
CUT
10
149.0330
20
128.2584
0
VERTEX
8
CUT
10
149.0149
20
128.2500
0
VERTEX
8
CUT
10
148.9770
20
128.2358
0
VERTEX
8
CUT
10
148.9407
20
128.2539
0
VERTEX
8
CUT
10
148.9236
20
128.2642
0
VERTEX
8
CUT
10
147.7805
20
128.9909
0
VERTEX
8
CUT
10
147.7639
20
129.0020
0
VERTEX
8
CUT
10
147.7315
20
129.0276
0
VERTEX
8
CUT
10
147.7018
20
129.0563
0
VERTEX
8
CUT
10
147.6885
20
129.0712
0
VERTEX
8
CUT
10
145.9136
20
131.1698
0
VERTEX
8
CUT
10
145.9013
20
131.1851
0
VERTEX
8
CUT
10
145.8552
20
131.2521
0
VERTEX
8
CUT
10
145.8453
20
131.2690
0
VERTEX
8
CUT
10
144.0011
20
134.6089
0
VERTEX
8
CUT
10
143.9930
20
134.6244
0
VERTEX
8
CUT
10
143.9783
20
134.6576
0
VERTEX
8
CUT
10
143.9666
20
134.6922
0
VERTEX
8
CUT
10
143.9622
20
134.7086
0
VERTEX
8
CUT
10
143.6577
20
135.9562
0
VERTEX
8
CUT
10
143.6533
20
135.9766
0
VERTEX
8
CUT
10
143.6475
20
136.0191
0
VERTEX
8
CUT
10
143.6554
20
136.0613
0
VERTEX
8
CUT
10
143.6608
20
136.0814
0
VERTEX
8
CUT
10
143.6851
20
136.1629
0
VERTEX
8
CUT
10
143.7422
20
136.3937
0
VERTEX
8
CUT
10
143.7770
20
136.6289
0
VERTEX
8
CUT
10
143.7894
20
136.8663
0
VERTEX
8
CUT
10
143.7791
20
137.1038
0
VERTEX
8
CUT
10
143.7464
20
137.3393
0
VERTEX
8
CUT
10
143.6914
20
137.5706
0
VERTEX
8
CUT
10
143.6727
20
137.6351
0
VERTEX
8
CUT
10
143.6691
20
137.6712
0
VERTEX
8
CUT
10
143.6684
20
137.6891
0
VERTEX
8
CUT
10
143.6606
20
138.3046
0
VERTEX
8
CUT
10
143.6612
20
138.3572
0
VERTEX
8
CUT
10
143.6524
20
138.5971
0
VERTEX
8
CUT
10
143.6206
20
138.8350
0
VERTEX
8
CUT
10
143.5662
20
139.0688
0
VERTEX
8
CUT
10
143.4896
20
139.2963
0
VERTEX
8
CUT
10
143.3915
20
139.5154
0
VERTEX
8
CUT
10
143.2729
20
139.7241
0
VERTEX
8
CUT
10
143.1348
20
139.9204
0
VERTEX
8
CUT
10
142.9785
20
140.1026
0
VERTEX
8
CUT
10
142.8055
20
140.2689
0
VERTEX
8
CUT
10
142.6173
20
140.4179
0
VERTEX
8
CUT
10
142.4157
20
140.5482
0
VERTEX
8
CUT
10
142.2025
20
140.6585
0
VERTEX
8
CUT
10
141.9797
20
140.7479
0
VERTEX
8
CUT
10
141.7494
20
140.8155
0
VERTEX
8
CUT
10
141.5136
20
140.8607
0
VERTEX
8
CUT
10
141.2747
20
140.8831
0
VERTEX
8
CUT
10
141.0346
20
140.8824
0
VERTEX
8
CUT
10
140.7958
20
140.8588
0
VERTEX
8
CUT
10
140.5603
20
140.8123
0
VERTEX
8
CUT
10
139.2410
20
140.4856
0
VERTEX
8
CUT
10
139.2360
20
140.4844
0
VERTEX
8
CUT
10
139.1859
20
140.4762
0
VERTEX
8
CUT
10
139.1605
20
140.4742
0
VERTEX
8
CUT
10
139.1362
20
140.4738
0
VERTEX
8
CUT
10
137.3608
20
140.4855
0
VERTEX
8
CUT
10
137.3426
20
140.4860
0
VERTEX
8
CUT
10
137.3050
20
140.4898
0
VERTEX
8
CUT
10
137.2677
20
140.4970
0
VERTEX
8
CUT
10
137.2506
20
140.5015
0
SEQEND
0
POLYLINE
8
CUT
66
1
70
1
10
0.0
20
0.0
30
0.0
0
VERTEX
8
CUT
10
154.4224
20
75.2609
0
VERTEX
8
CUT
10
154.3806
20
75.0188
0
VERTEX
8
CUT
10
154.3629
20
74.7738
0
VERTEX
8
CUT
10
154.3693
20
74.5282
0
VERTEX
8
CUT
10
154.3997
20
74.2844
0
VERTEX
8
CUT
10
154.4540
20
74.0448
0
VERTEX
8
CUT
10
154.5314
20
73.8117
0
VERTEX
8
CUT
10
154.6314
20
73.5873
0
VERTEX
8
CUT
10
154.7530
20
73.3738
0
VERTEX
8
CUT
10
154.8949
20
73.1733
0
VERTEX
8
CUT
10
155.0558
20
72.9876
0
VERTEX
8
CUT
10
155.2341
20
72.8187
0
VERTEX
8
CUT
10
155.4282
20
72.6680
0
VERTEX
8
CUT
10
155.6361
20
72.5372
0
VERTEX
8
CUT
10
155.8559
20
72.4273
0
VERTEX
8
CUT
10
156.0853
20
72.3396
0
VERTEX
8
CUT
10
156.3223
20
72.2748
0
VERTEX
8
CUT
10
156.5645
20
72.2336
0
VERTEX
8
CUT
10
156.8096
20
72.2164
0
VERTEX
8
CUT
10
157.0551
20
72.2233
0
VERTEX
8
CUT
10
157.2988
20
72.2543
0
VERTEX
8
CUT
10
157.5383
20
72.3090
0
VERTEX
8
CUT
10
157.7713
20
72.3870
0
VERTEX
8
CUT
10
157.9955
20
72.4875
0
VERTEX
8
CUT
10
158.2087
20
72.6094
0
VERTEX
8
CUT
10
158.4090
20
72.7518
0
VERTEX
8
CUT
10
158.5943
20
72.9131
0
VERTEX
8
CUT
10
158.7628
20
73.0918
0
VERTEX
8
CUT
10
158.9131
20
73.2861
0
VERTEX
8
CUT
10
159.0435
20
73.4943
0
VERTEX
8
CUT
10
159.0848
20
73.5680
0
VERTEX
8
CUT
10
159.1470
20
73.6864
0
VERTEX
8
CUT
10
166.6593
20
88.9647
0
VERTEX
8
CUT
10
166.7549
20
89.1852
0
VERTEX
8
CUT
10
166.8288
20
89.4139
0
VERTEX
8
CUT
10
166.8805
20
89.6485
0
VERTEX
8
CUT
10
166.9093
20
89.8871
0
VERTEX
8
CUT
10
166.9152
20
90.1273
0
VERTEX
8
CUT
10
166.8979
20
90.3670
0
VERTEX
8
CUT
10
166.8577
20
90.6039
0
VERTEX
8
CUT
10
166.7950
20
90.8359
0
VERTEX
8
CUT
10
166.7102
20
91.0608
0
VERTEX
8
CUT
10
166.6043
20
91.2765
0
VERTEX
8
CUT
10
166.4782
20
91.4810
0
VERTEX
8
CUT
10
166.3330
20
91.6725
0
VERTEX
8
CUT
10
166.1700
20
91.8491
0
VERTEX
8
CUT
10
165.9909
20
92.0093
0
VERTEX
8
CUT
10
165.7972
20
92.1515
0
VERTEX
8
CUT
10
165.5908
20
92.2745
0
VERTEX
8
CUT
10
165.3735
20
92.3772
0
VERTEX
8
CUT
10
165.1474
20
92.4584
0
VERTEX
8
CUT
10
164.9145
20
92.5176
0
VERTEX
8
CUT
10
164.6770
20
92.5542
0
VERTEX
8
CUT
10
164.4371
20
92.5678
0
VERTEX
8
CUT
10
164.1969
20
92.5582
0
VERTEX
8
CUT
10
163.9589
20
92.5257
0
VERTEX
8
CUT
10
163.7328
20
92.4837
0
VERTEX
8
CUT
10
163.7149
20
92.4808
0
VERTEX
8
CUT
10
163.6403
20
92.4738
0
VERTEX
8
CUT
10
163.6221
20
92.4734
0
VERTEX
8
CUT
10
157.6788
20
92.4639
0
VERTEX
8
CUT
10
157.6184
20
92.4653
0
VERTEX
8
CUT
10
157.5582
20
92.4697
0
VERTEX
8
CUT
10
157.3068
20
92.4942
0
VERTEX
8
CUT
10
157.0637
20
92.5060
0
VERTEX
8
CUT
10
156.8205
20
92.4940
0
VERTEX
8
CUT
10
156.5797
20
92.4585
0
VERTEX
8
CUT
10
156.3435
20
92.3998
0
VERTEX
8
CUT
10
156.1141
20
92.3183
0
VERTEX
8
CUT
10
155.8937
20
92.2149
0
VERTEX
8
CUT
10
155.6844
20
92.0906
0
VERTEX
8
CUT
10
155.4882
20
91.9464
0
VERTEX
8
CUT
10
155.3069
20
91.7839
0
VERTEX
8
CUT
10
155.1424
20
91.6046
0
VERTEX
8
CUT
10
154.9960
20
91.4101
0
VERTEX
8
CUT
10
154.8692
20
91.2022
0
VERTEX
8
CUT
10
154.7633
20
90.9831
0
VERTEX
8
CUT
10
154.6792
20
90.7546
0
VERTEX
8
CUT
10
154.6177
20
90.5191
0
VERTEX
8
CUT
10
154.5794
20
90.2787
0
VERTEX
8
CUT
10
154.5646
20
90.0357
0
VERTEX
8
CUT
10
154.5736
20
89.7924
0
VERTEX
8
CUT
10
154.6062
20
89.5512
0
VERTEX
8
CUT
10
154.6621
20
89.3142
0
VERTEX
8
CUT
10
154.8148
20
88.7839
0
VERTEX
8
CUT
10
154.8204
20
88.7620
0
VERTEX
8
CUT
10
154.8359
20
88.6700
0
VERTEX
8
CUT
10
154.8377
20
88.6476
0
VERTEX
8
CUT
10
154.8871
20
87.7220
0
VERTEX
8
CUT
10
154.9197
20
87.4319
0
VERTEX
8
CUT
10
154.9858
20
87.1476
0
VERTEX
8
CUT
10
155.1332
20
86.6483
0
VERTEX
8
CUT
10
155.1381
20
86.6300
0
VERTEX
8
CUT
10
155.1455
20
86.5917
0
VERTEX
8
CUT
10
155.1493
20
86.5529
0
VERTEX
8
CUT
10
155.1497
20
86.5340
0
VERTEX
8
CUT
10
155.1573
20
80.5758
0
VERTEX
8
CUT
10
155.1567
20
80.5527
0
VERTEX
8
CUT
10
155.1457
20
80.4579
0
VERTEX
8
CUT
10
155.1411
20
80.4353
0
VERTEX
8
CUT
10
154.9633
20
79.6798
0
VERTEX
8
CUT
10
154.9164
20
79.4191
0
VERTEX
8
CUT
10
154.8973
20
79.1548
0
VERTEX
8
CUT
10
154.8616
20
77.2835
0
VERTEX
8
CUT
10
154.8608
20
77.2635
0
VERTEX
8
CUT
10
154.8509
20
77.1816
0
VERTEX
8
CUT
10
154.8471
20
77.1620
0
SEQEND
0
POLYLINE
8
CUT
66
1
70
1
10
0.0
20
0.0
30
0.0
0
VERTEX
8
CUT
10
107.0359
20
120.3435
0
VERTEX
8
CUT
10
106.8184
20
120.3458
0
VERTEX
8
CUT
10
106.5784
20
120.3252
0
VERTEX
8
CUT
10
106.3415
20
120.2816
0
VERTEX
8
CUT
10
106.1099
20
120.2154
0
VERTEX
8
CUT
10
105.8857
20
120.1272
0
VERTEX
8
CUT
10
105.6711
20
120.0178
0
VERTEX
8
CUT
10
105.4680
20
119.8883
0
VERTEX
8
CUT
10
105.2783
20
119.7398
0
VERTEX
8
CUT
10
105.1037
20
119.5738
0
VERTEX
8
CUT
10
104.9460
20
119.3918
0
VERTEX
8
CUT
10
104.8065
20
119.1954
0
VERTEX
8
CUT
10
104.6866
20
118.9865
0
VERTEX
8
CUT
10
104.5873
20
118.7670
0
VERTEX
8
CUT
10
104.5096
20
118.5390
0
VERTEX
8
CUT
10
104.4542
20
118.3046
0
VERTEX
8
CUT
10
104.4216
20
118.0659
0
VERTEX
8
CUT
10
104.4122
20
117.8252
0
VERTEX
8
CUT
10
104.4259
20
117.5847
0
VERTEX
8
CUT
10
104.4628
20
117.3466
0
VERTEX
8
CUT
10
104.5224
20
117.1132
0
VERTEX
8
CUT
10
104.6041
20
116.8866
0
VERTEX
8
CUT
10
104.7073
20
116.6690
0
VERTEX
8
CUT
10
104.8310
20
116.4623
0
VERTEX
8
CUT
10
104.9740
20
116.2684
0
VERTEX
8
CUT
10
105.1350
20
116.0892
0
VERTEX
8
CUT
10
105.8254
20
115.3914
0
VERTEX
8
CUT
10
106.0042
20
115.2275
0
VERTEX
8
CUT
10
106.1980
20
115.0816
0
VERTEX
8
CUT
10
106.4050
20
114.9552
0
VERTEX
8
CUT
10
106.6233
20
114.8495
0
VERTEX
8
CUT
10
106.8508
20
114.7655
0
VERTEX
8
CUT
10
108.0692
20
114.3813
0
VERTEX
8
CUT
10
108.3118
20
114.3180
0
VERTEX
8
CUT
10
108.5596
20
114.2793
0
VERTEX
8
CUT
10
108.8100
20
114.2656
0
VERTEX
8
CUT
10
109.0098
20
114.2648
0
VERTEX
8
CUT
10
109.2407
20
114.2744
0
VERTEX
8
CUT
10
109.4698
20
114.3054
0
VERTEX
8
CUT
10
109.6951
20
114.3574
0
VERTEX
8
CUT
10
109.9146
20
114.4300
0
VERTEX
8
CUT
10
110.1264
20
114.5225
0
VERTEX
8
CUT
10
111.1884
20
115.0462
0
VERTEX
8
CUT
10
111.4176
20
115.1746
0
VERTEX
8
CUT
10
111.6320
20
115.3263
0
VERTEX
8
CUT
10
112.3546
20
115.8969
0
VERTEX
8
CUT
10
112.5405
20
116.0591
0
VERTEX
8
CUT
10
112.7094
20
116.2388
0
VERTEX
8
CUT
10
112.8598
20
116.4344
0
VERTEX
8
CUT
10
112.9902
20
116.6437
0
VERTEX
8
CUT
10
113.0993
20
116.8650
0
VERTEX
8
CUT
10
113.6791
20
118.2028
0
VERTEX
8
CUT
10
113.7545
20
118.3992
0
VERTEX
8
CUT
10
113.8132
20
118.6013
0
VERTEX
8
CUT
10
114.0044
20
119.3807
0
VERTEX
8
CUT
10
114.0509
20
119.6204
0
VERTEX
8
CUT
10
114.0738
20
119.8636
0
VERTEX
8
CUT
10
114.1157
20
120.7914
0
VERTEX
8
CUT
10
114.1169
20
120.8087
0
VERTEX
8
CUT
10
114.1216
20
120.8443
0
VERTEX
8
CUT
10
114.1324
20
120.8782
0
VERTEX
8
CUT
10
114.1388
20
120.8945
0
VERTEX
8
CUT
10
114.1573
20
120.9388
0
VERTEX
8
CUT
10
114.2407
20
121.1696
0
VERTEX
8
CUT
10
114.3010
20
121.4074
0
VERTEX
8
CUT
10
114.3377
20
121.6500
0
VERTEX
8
CUT
10
114.3505
20
121.8950
0
VERTEX
8
CUT
10
114.3566
20
123.9844
0
VERTEX
8
CUT
10
114.3419
20
124.2626
0
VERTEX
8
CUT
10
114.2963
20
124.5375
0
VERTEX
8
CUT
10
114.2204
20
124.8056
0
VERTEX
8
CUT
10
114.1301
20
125.0680
0
VERTEX
8
CUT
10
114.1246
20
125.0853
0
VERTEX
8
CUT
10
114.1156
20
125.1220
0
VERTEX
8
CUT
10
114.1100
20
125.1595
0
VERTEX
8
CUT
10
114.1086
20
125.1771
0
VERTEX
8
CUT
10
114.0539
20
126.1514
0
VERTEX
8
CUT
10
114.0262
20
126.4077
0
VERTEX
8
CUT
10
113.9722
20
126.6599
0
VERTEX
8
CUT
10
113.8925
20
126.9051
0
VERTEX
8
CUT
10
113.7880
20
127.1409
0
VERTEX
8
CUT
10
113.6598
20
127.3646
0
VERTEX
8
CUT
10
113.5092
20
127.5739
0
VERTEX
8
CUT
10
112.7175
20
128.5623
0
VERTEX
8
CUT
10
112.5237
20
128.7776
0
VERTEX
8
CUT
10
111.0506
20
130.2335
0
VERTEX
8
CUT
10
110.8014
20
130.4493
0
VERTEX
8
CUT
10
107.6937
20
132.8001
0
VERTEX
8
CUT
10
107.4933
20
132.9369
0
VERTEX
8
CUT
10
107.2807
20
133.0536
0
VERTEX
8
CUT
10
107.0577
20
133.1491
0
VERTEX
8
CUT
10
106.8266
20
133.2226
0
VERTEX
8
CUT
10
106.5894
20
133.2734
0
VERTEX
8
CUT
10
106.3484
20
133.3009
0
VERTEX
8
CUT
10
106.1058
20
133.3050
0
VERTEX
8
CUT
10
105.8640
20
133.2855
0
VERTEX
8
CUT
10
105.6253
20
133.2427
0
VERTEX
8
CUT
10
105.3918
20
133.1769
0
VERTEX
8
CUT
10
105.1658
20
133.0888
0
VERTEX
8
CUT
10
104.9493
20
132.9793
0
VERTEX
8
CUT
10
104.7446
20
132.8492
0
VERTEX
8
CUT
10
104.5534
20
132.7000
0
VERTEX
8
CUT
10
104.3775
20
132.5329
0
VERTEX
8
CUT
10
104.2187
20
132.3495
0
VERTEX
8
CUT
10
104.0784
20
132.1517
0
VERTEX
8
CUT
10
103.9579
20
131.9411
0
VERTEX
8
CUT
10
103.8584
20
131.7199
0
VERTEX
8
CUT
10
103.7808
20
131.4901
0
VERTEX
8
CUT
10
103.7259
20
131.2538
0
VERTEX
8
CUT
10
103.6941
20
131.0133
0
VERTEX
8
CUT
10
103.6857
20
130.7709
0
VERTEX
8
CUT
10
103.7163
20
128.6103
0
VERTEX
8
CUT
10
103.7297
20
128.3850
0
VERTEX
8
CUT
10
103.7633
20
128.1618
0
VERTEX
8
CUT
10
103.8169
20
127.9426
0
VERTEX
8
CUT
10
103.8901
20
127.7291
0
VERTEX
8
CUT
10
103.9822
20
127.5231
0
VERTEX
8
CUT
10
105.6269
20
124.2502
0
VERTEX
8
CUT
10
105.7566
20
124.0227
0
VERTEX
8
CUT
10
105.9093
20
123.8100
0
VERTEX
8
CUT
10
106.0835
20
123.6145
0
VERTEX
8
CUT
10
106.3156
20
123.3799
0
VERTEX
8
CUT
10
106.5073
20
123.2052
0
VERTEX
8
CUT
10
106.7160
20
123.0514
0
VERTEX
8
CUT
10
106.9395
20
122.9200
0
VERTEX
8
CUT
10
107.1755
20
122.8125
0
VERTEX
8
CUT
10
107.4213
20
122.7299
0
VERTEX
8
CUT
10
107.6743
20
122.6733
0
VERTEX
8
CUT
10
107.6940
20
122.6700
0
VERTEX
8
CUT
10
107.7361
20
122.6593
0
VERTEX
8
CUT
10
107.7726
20
122.6359
0
VERTEX
8
CUT
10
107.7894
20
122.6231
0
VERTEX
8
CUT
10
107.9653
20
122.4815
0
VERTEX
8
CUT
10
107.9806
20
122.4686
0
VERTEX
8
CUT
10
108.0099
20
122.4396
0
VERTEX
8
CUT
10
108.0292
20
122.4031
0
VERTEX
8
CUT
10
108.0372
20
122.3847
0
VERTEX
8
CUT
10
108.2622
20
121.8287
0
VERTEX
8
CUT
10
108.2691
20
121.8105
0
VERTEX
8
CUT
10
108.2803
20
121.7723
0
VERTEX
8
CUT
10
108.2720
20
121.7333
0
VERTEX
8
CUT
10
108.2666
20
121.7147
0
VERTEX
8
CUT
10
107.9876
20
120.8400
0
VERTEX
8
CUT
10
107.9810
20
120.8212
0
VERTEX
8
CUT
10
107.9648
20
120.7839
0
VERTEX
8
CUT
10
107.9300
20
120.7627
0
VERTEX
8
CUT
10
107.9123
20
120.7536
0
VERTEX
8
CUT
10
107.1029
20
120.3659
0
VERTEX
8
CUT
10
107.0849
20
120.3578
0
VERTEX
8
CUT
10
107.0464
20
120.3439
0
SEQEND
0
POLYLINE
8
CUT
66
1
70
1
10
0.0
20
0.0
30
0.0
0
VERTEX
8
CUT
10
93.7712
20
144.4927
0
VERTEX
8
CUT
10
93.7831
20
144.2383
0
VERTEX
8
CUT
10
93.8209
20
143.9865
0
VERTEX
8
CUT
10
93.8841
20
143.7397
0
VERTEX
8
CUT
10
93.9721
20
143.5007
0
VERTEX
8
CUT
10
94.0839
20
143.2719
0
VERTEX
8
CUT
10
94.3040
20
142.8742
0
VERTEX
8
CUT
10
94.4332
20
142.6658
0
VERTEX
8
CUT
10
94.5822
20
142.4709
0
VERTEX
8
CUT
10
94.7495
20
142.2916
0
VERTEX
8
CUT
10
94.9336
20
142.1296
0
VERTEX
8
CUT
10
95.1327
20
141.9864
0
VERTEX
8
CUT
10
95.3449
20
141.8634
0
VERTEX
8
CUT
10
95.5681
20
141.7617
0
VERTEX
8
CUT
10
95.8002
20
141.6825
0
VERTEX
8
CUT
10
96.0389
20
141.6263
0
VERTEX
8
CUT
10
96.2820
20
141.5938
0
VERTEX
8
CUT
10
96.5271
20
141.5853
0
VERTEX
8
CUT
10
96.7719
20
141.6008
0
VERTEX
8
CUT
10
97.0139
20
141.6403
0
VERTEX
8
CUT
10
97.2510
20
141.7033
0
VERTEX
8
CUT
10
97.4807
20
141.7892
0
VERTEX
8
CUT
10
98.5251
20
142.2393
0
VERTEX
8
CUT
10
98.5413
20
142.2458
0
VERTEX
8
CUT
10
98.6096
20
142.2684
0
VERTEX
8
CUT
10
98.6264
20
142.2728
0
VERTEX
8
CUT
10
99.9190
20
142.5782
0
VERTEX
8
CUT
10
99.9412
20
142.5827
0
VERTEX
8
CUT
10
100.0342
20
142.5937
0
VERTEX
8
CUT
10
100.0568
20
142.5945
0
VERTEX
8
CUT
10
102.6376
20
142.6051
0
VERTEX
8
CUT
10
102.6584
20
142.6046
0
VERTEX
8
CUT
10
102.7012
20
142.6003
0
VERTEX
8
CUT
10
102.7433
20
142.5915
0
VERTEX
8
CUT
10
102.7633
20
142.5856
0
VERTEX
8
CUT
10
103.1226
20
142.4700
0
VERTEX
8
CUT
10
103.3749
20
142.4031
0
VERTEX
8
CUT
10
103.6327
20
142.3629
0
VERTEX
8
CUT
10
103.8934
20
142.3498
0
VERTEX
8
CUT
10
104.3214
20
142.3507
0
VERTEX
8
CUT
10
104.6220
20
142.3694
0
VERTEX
8
CUT
10
104.9183
20
142.4242
0
VERTEX
8
CUT
10
106.7254
20
142.8725
0
VERTEX
8
CUT
10
106.9930
20
142.9550
0
VERTEX
8
CUT
10
107.2496
20
143.0670
0
VERTEX
8
CUT
10
107.9225
20
143.4065
0
VERTEX
8
CUT
10
108.1781
20
143.5550
0
VERTEX
8
CUT
10
108.4144
20
143.7327
0
VERTEX
8
CUT
10
110.5668
20
145.5601
0
VERTEX
8
CUT
10
110.7428
20
145.7248
0
VERTEX
8
CUT
10
110.9021
20
145.9056
0
VERTEX
8
CUT
10
111.0433
20
146.1010
0
VERTEX
8
CUT
10
111.1650
20
146.3091
0
VERTEX
8
CUT
10
111.2661
20
146.5279
0
VERTEX
8
CUT
10
111.3457
20
146.7555
0
VERTEX
8
CUT
10
111.4030
20
146.9896
0
VERTEX
8
CUT
10
111.4374
20
147.2282
0
VERTEX
8
CUT
10
111.4487
20
147.4690
0
VERTEX
8
CUT
10
111.4368
20
147.7098
0
VERTEX
8
CUT
10
111.4017
20
147.9483
0
VERTEX
8
CUT
10
111.3439
20
148.1823
0
VERTEX
8
CUT
10
111.2637
20
148.4096
0
VERTEX
8
CUT
10
111.1621
20
148.6282
0
VERTEX
8
CUT
10
111.0398
20
148.8360
0
VERTEX
8
CUT
10
110.8982
20
149.0310
0
VERTEX
8
CUT
10
110.7384
20
149.2115
0
VERTEX
8
CUT
10
110.5619
20
149.3757
0
VERTEX
8
CUT
10
110.3705
20
149.5222
0
VERTEX
8
CUT
10
110.1658
20
149.6496
0
VERTEX
8
CUT
10
109.9498
20
149.7566
0
VERTEX
8
CUT
10
109.7246
20
149.8424
0
VERTEX
8
CUT
10
109.3072
20
149.9787
0
VERTEX
8
CUT
10
109.0987
20
150.0369
0
VERTEX
8
CUT
10
108.8859
20
150.0768
0
VERTEX
8
CUT
10
108.6705
20
150.0982
0
VERTEX
8
CUT
10
107.7517
20
150.1494
0
VERTEX
8
CUT
10
107.7340
20
150.1508
0
VERTEX
8
CUT
10
107.6978
20
150.1561
0
VERTEX
8
CUT
10
107.6634
20
150.1676
0
VERTEX
8
CUT
10
107.6469
20
150.1745
0
VERTEX
8
CUT
10
105.5222
20
151.1061
0
VERTEX
8
CUT
10
105.5042
20
151.1145
0
VERTEX
8
CUT
10
105.4686
20
151.1347
0
VERTEX
8
CUT
10
105.4350
20
151.1582
0
VERTEX
8
CUT
10
105.4197
20
151.1708
0
VERTEX
8
CUT
10
103.2011
20
153.0913
0
VERTEX
8
CUT
10
103.1874
20
153.1036
0
VERTEX
8
CUT
10
103.1347
20
153.1586
0
VERTEX
8
CUT
10
103.1229
20
153.1728
0
VERTEX
8
CUT
10
100.9977
20
155.8433
0
VERTEX
8
CUT
10
100.8387
20
156.0244
0
VERTEX
8
CUT
10
100.6630
20
156.1893
0
VERTEX
8
CUT
10
100.4723
20
156.3366
0
VERTEX
8
CUT
10
100.2683
20
156.4648
0
VERTEX
8
CUT
10
100.0529
20
156.5728
0
VERTEX
8
CUT
10
99.8280
20
156.6596
0
VERTEX
8
CUT
10
99.5959
20
156.7243
0
VERTEX
8
CUT
10
99.3586
20
156.7663
0
VERTEX
8
CUT
10
99.1184
20
156.7853
0
VERTEX
8
CUT
10
98.8775
20
156.7811
0
VERTEX
8
CUT
10
98.6381
20
156.7538
0
VERTEX
8
CUT
10
98.4024
20
156.7035
0
VERTEX
8
CUT
10
98.1727
20
156.6307
0
VERTEX
8
CUT
10
97.9510
20
156.5362
0
VERTEX
8
CUT
10
97.7395
20
156.4207
0
VERTEX
8
CUT
10
97.5401
20
156.2854
0
VERTEX
8
CUT
10
97.3546
20
156.1316
0
VERTEX
8
CUT
10
97.1848
20
155.9606
0
VERTEX
8
CUT
10
97.0322
20
155.7741
0
VERTEX
8
CUT
10
96.8983
20
155.5737
0
VERTEX
8
CUT
10
96.6052
20
155.0856
0
VERTEX
8
CUT
10
96.4790
20
154.8472
0
VERTEX
8
CUT
10
96.3792
20
154.5967
0
VERTEX
8
CUT
10
96.3070
20
154.3369
0
VERTEX
8
CUT
10
95.8461
20
152.2474
0
VERTEX
8
CUT
10
95.8102
20
152.0458
0
VERTEX
8
CUT
10
95.7909
20
151.8418
0
VERTEX
8
CUT
10
95.7178
20
150.4685
0
VERTEX
8
CUT
10
95.7163
20
150.4494
0
VERTEX
8
CUT
10
95.7104
20
150.4103
0
VERTEX
8
CUT
10
95.6935
20
150.3746
0
VERTEX
8
CUT
10
95.6841
20
150.3579
0
VERTEX
8
CUT
10
94.7187
20
148.7447
0
VERTEX
8
CUT
10
94.5591
20
148.4294
0
VERTEX
8
CUT
10
93.9727
20
147.0335
0
VERTEX
8
CUT
10
93.8886
20
146.8023
0
VERTEX
8
CUT
10
93.8278
20
146.5640
0
VERTEX
8
CUT
10
93.7906
20
146.3208
0
VERTEX
8
CUT
10
93.7775
20
146.0752
0
SEQEND
0
POLYLINE
8
CUT
66
1
70
1
10
0.0
20
0.0
30
0.0
0
VERTEX
8
CUT
10
83.6881
20
78.4009
0
VERTEX
8
CUT
10
83.6732
20
78.3873
0
VERTEX
8
CUT
10
83.2497
20
78.0208
0
VERTEX
8
CUT
10
83.0716
20
77.8507
0
VERTEX
8
CUT
10
82.9111
20
77.6639
0
VERTEX
8
CUT
10
82.7698
20
77.4622
0
VERTEX
8
CUT
10
82.6490
20
77.2476
0
VERTEX
8
CUT
10
82.5499
20
77.0221
0
VERTEX
8
CUT
10
82.4735
20
76.7880
0
VERTEX
8
CUT
10
82.4205
20
76.5475
0
VERTEX
8
CUT
10
82.3914
20
76.3029
0
VERTEX
8
CUT
10
82.3865
20
76.0567
0
VERTEX
8
CUT
10
82.4059
20
75.8112
0
VERTEX
8
CUT
10
82.4493
20
75.5687
0
VERTEX
8
CUT
10
82.5164
20
75.3318
0
VERTEX
8
CUT
10
82.6065
20
75.1026
0
VERTEX
8
CUT
10
82.7186
20
74.8833
0
VERTEX
8
CUT
10
82.8518
20
74.6762
0
VERTEX
8
CUT
10
83.0048
20
74.4831
0
VERTEX
8
CUT
10
83.1760
20
74.3061
0
VERTEX
8
CUT
10
83.3638
20
74.1467
0
VERTEX
8
CUT
10
83.5663
20
74.0066
0
VERTEX
8
CUT
10
83.7817
20
73.8871
0
VERTEX
8
CUT
10
83.8323
20
73.8653
0
VERTEX
8
CUT
10
83.9591
20
73.8040
0
VERTEX
8
CUT
10
83.9747
20
73.7951
0
VERTEX
8
CUT
10
85.6795
20
72.7713
0
VERTEX
8
CUT
10
85.8930
20
72.6568
0
VERTEX
8
CUT
10
86.1167
20
72.5635
0
VERTEX
8
CUT
10
86.3483
20
72.4922
0
VERTEX
8
CUT
10
86.5857
20
72.4437
0
VERTEX
8
CUT
10
86.8268
20
72.4185
0
VERTEX
8
CUT
10
87.0691
20
72.4167
0
VERTEX
8
CUT
10
87.3105
20
72.4383
0
VERTEX
8
CUT
10
87.5486
20
72.4833
0
VERTEX
8
CUT
10
87.7813
20
72.5510
0
VERTEX
8
CUT
10
88.0063
20
72.6410
0
VERTEX
8
CUT
10
88.2215
20
72.7524
0
VERTEX
8
CUT
10
88.4250
20
72.8840
0
VERTEX
8
CUT
10
88.6147
20
73.0348
0
VERTEX
8
CUT
10
88.7890
20
73.2032
0
VERTEX
8
CUT
10
88.9461
20
73.3877
0
VERTEX
8
CUT
10
89.0846
20
73.5865
0
VERTEX
8
CUT
10
89.2033
20
73.7978
0
VERTEX
8
CUT
10
89.2390
20
73.8694
0
VERTEX
8
CUT
10
89.5572
20
74.4705
0
VERTEX
8
CUT
10
89.5669
20
74.4878
0
VERTEX
8
CUT
10
89.5895
20
74.5216
0
VERTEX
8
CUT
10
89.6274
20
74.5364
0
VERTEX
8
CUT
10
89.6464
20
74.5421
0
VERTEX
8
CUT
10
90.3536
20
74.7381
0
VERTEX
8
CUT
10
90.3722
20
74.7428
0
VERTEX
8
CUT
10
90.4113
20
74.7496
0
VERTEX
8
CUT
10
90.4452
20
74.7489
0
VERTEX
8
CUT
10
90.6897
20
74.7554
0
VERTEX
8
CUT
10
90.9325
20
74.7858
0
VERTEX
8
CUT
10
91.1711
20
74.8398
0
VERTEX
8
CUT
10
91.4034
20
74.9168
0
VERTEX
8
CUT
10
91.5845
20
74.9973
0
VERTEX
8
CUT
10
91.6605
20
74.8278
0
VERTEX
8
CUT
10
91.7824
20
74.6147
0
VERTEX
8
CUT
10
91.9246
20
74.4145
0
VERTEX
8
CUT
10
92.0858
20
74.2293
0
VERTEX
8
CUT
10
92.2644
20
74.0608
0
VERTEX
8
CUT
10
92.4587
20
73.9106
0
VERTEX
8
CUT
10
92.6667
20
73.7802
0
VERTEX
8
CUT
10
92.8865
20
73.6708
0
VERTEX
8
CUT
10
93.5483
20
73.3812
0
VERTEX
8
CUT
10
93.7807
20
73.2930
0
VERTEX
8
CUT
10
94.0206
20
73.2283
0
VERTEX
8
CUT
10
94.2657
20
73.1878
0
VERTEX
8
CUT
10
94.5137
20
73.1718
0
VERTEX
8
CUT
10
94.7620
20
73.1805
0
VERTEX
8
CUT
10
95.0083
20
73.2138
0
VERTEX
8
CUT
10
95.2500
20
73.2713
0
VERTEX
8
CUT
10
95.4848
20
73.3526
0
VERTEX
8
CUT
10
95.7104
20
73.4568
0
VERTEX
8
CUT
10
95.9245
20
73.5829
0
VERTEX
8
CUT
10
96.1251
20
73.7296
0
VERTEX
8
CUT
10
96.3101
20
73.8955
0
VERTEX
8
CUT
10
96.4777
20
74.0789
0
VERTEX
8
CUT
10
96.6263
20
74.2781
0
VERTEX
8
CUT
10
96.7544
20
74.4911
0
VERTEX
8
CUT
10
96.8607
20
74.7157
0
VERTEX
8
CUT
10
96.9442
20
74.9497
0
VERTEX
8
CUT
10
97.0040
20
75.1909
0
VERTEX
8
CUT
10
97.0396
20
75.4368
0
VERTEX
8
CUT
10
97.0506
20
75.6851
0
VERTEX
8
CUT
10
97.0369
20
75.9332
0
VERTEX
8
CUT
10
96.9986
20
76.1787
0
VERTEX
8
CUT
10
96.9362
20
76.4192
0
VERTEX
8
CUT
10
96.8502
20
76.6523
0
VERTEX
8
CUT
10
96.7415
20
76.8758
0
VERTEX
8
CUT
10
96.6111
20
77.0873
0
VERTEX
8
CUT
10
96.4604
20
77.2849
0
VERTEX
8
CUT
10
96.2908
20
77.4665
0
VERTEX
8
CUT
10
96.1040
20
77.6304
0
VERTEX
8
CUT
10
96.0867
20
77.6440
0
VERTEX
8
CUT
10
95.8777
20
77.7930
0
VERTEX
8
CUT
10
95.6545
20
77.9197
0
VERTEX
8
CUT
10
95.1345
20
78.1806
0
VERTEX
8
CUT
10
94.9380
20
78.2688
0
VERTEX
8
CUT
10
94.7346
20
78.3398
0
VERTEX
8
CUT
10
94.5259
20
78.3930
0
VERTEX
8
CUT
10
94.3134
20
78.4280
0
VERTEX
8
CUT
10
94.1888
20
78.4431
0
VERTEX
8
CUT
10
93.9439
20
78.4605
0
VERTEX
8
CUT
10
93.6985
20
78.4539
0
VERTEX
8
CUT
10
93.4548
20
78.4232
0
VERTEX
8
CUT
10
93.2154
20
78.3687
0
VERTEX
8
CUT
10
92.9825
20
78.2911
0
VERTEX
8
CUT
10
92.8050
20
78.2118
0
VERTEX
8
CUT
10
92.7378
20
78.3646
0
VERTEX
8
CUT
10
92.6180
20
78.5779
0
VERTEX
8
CUT
10
92.4779
20
78.7785
0
VERTEX
8
CUT
10
92.3189
20
78.9644
0
VERTEX
8
CUT
10
92.1424
20
79.1339
0
VERTEX
8
CUT
10
91.9502
20
79.2853
0
VERTEX
8
CUT
10
91.7814
20
79.3934
0
VERTEX
8
CUT
10
91.7820
20
79.3944
0
VERTEX
8
CUT
10
88.8086
20
81.2101
0
VERTEX
8
CUT
10
88.8042
20
81.2129
0
VERTEX
8
CUT
10
88.7412
20
81.2581
0
VERTEX
8
CUT
10
88.7270
20
81.2697
0
VERTEX
8
CUT
10
87.6894
20
82.1541
0
VERTEX
8
CUT
10
87.4969
20
82.3027
0
VERTEX
8
CUT
10
87.2908
20
82.4318
0
VERTEX
8
CUT
10
87.0731
20
82.5404
0
VERTEX
8
CUT
10
86.8460
20
82.6272
0
VERTEX
8
CUT
10
86.6114
20
82.6916
0
VERTEX
8
CUT
10
86.3718
20
82.7329
0
VERTEX
8
CUT
10
86.1292
20
82.7507
0
VERTEX
8
CUT
10
85.8860
20
82.7449
0
VERTEX
8
CUT
10
85.6446
20
82.7154
0
VERTEX
8
CUT
10
85.4072
20
82.6627
0
VERTEX
8
CUT
10
85.1760
20
82.5871
0
VERTEX
8
CUT
10
84.9533
20
82.4894
0
VERTEX
8
CUT
10
84.7411
20
82.3705
0
VERTEX
8
CUT
10
84.5415
20
82.2316
0
VERTEX
8
CUT
10
84.3563
20
82.0739
0
VERTEX
8
CUT
10
84.1873
20
81.8990
0
VERTEX
8
CUT
10
84.0361
20
81.7085
0
VERTEX
8
CUT
10
83.9042
20
81.5042
0
VERTEX
8
CUT
10
83.7927
20
81.2880
0
VERTEX
8
CUT
10
83.7027
20
81.0621
0
VERTEX
8
CUT
10
83.6351
20
80.8284
0
VERTEX
8
CUT
10
83.5906
20
80.5893
0
VERTEX
8
CUT
10
83.5695
20
80.3470
0
VERTEX
8
CUT
10
83.5720
20
80.1038
0
VERTEX
8
CUT
10
83.5982
20
79.8620
0
VERTEX
8
CUT
10
83.6477
20
79.6239
0
VERTEX
8
CUT
10
83.7201
20
79.3917
0
VERTEX
8
CUT
10
83.7443
20
79.3258
0
VERTEX
8
CUT
10
83.7468
20
79.2872
0
VERTEX
8
CUT
10
83.7467
20
79.2684
0
VERTEX
8
CUT
10
83.7230
20
78.4920
0
VERTEX
8
CUT
10
83.7219
20
78.4719
0
VERTEX
8
CUT
10
83.7164
20
78.4310
0
SEQEND
0
POLYLINE
8
CUT
66
1
70
1
10
0.0
20
0.0
30
0.0
0
VERTEX
8
CUT
10
54.9981
20
54.4008
0
VERTEX
8
CUT
10
54.9303
20
54.1882
0
VERTEX
8
CUT
10
54.8817
20
53.9704
0
VERTEX
8
CUT
10
54.8528
20
53.7492
0
VERTEX
8
CUT
10
54.8436
20
53.5262
0
VERTEX
8
CUT
10
54.8550
20
50.5064
0
VERTEX
8
CUT
10
54.8730
20
50.2159
0
VERTEX
8
CUT
10
54.9247
20
49.9294
0
VERTEX
8
CUT
10
55.0748
20
49.3073
0
VERTEX
8
CUT
10
55.1587
20
49.0309
0
VERTEX
8
CUT
10
55.2739
20
48.7659
0
VERTEX
8
CUT
10
56.2228
20
46.8886
0
VERTEX
8
CUT
10
56.3382
20
46.6848
0
VERTEX
8
CUT
10
56.4721
20
46.4926
0
VERTEX
8
CUT
10
57.9196
20
44.6099
0
VERTEX
8
CUT
10
58.0564
20
44.4468
0
VERTEX
8
CUT
10
58.2066
20
44.2959
0
VERTEX
8
CUT
10
58.3691
20
44.1584
0
VERTEX
8
CUT
10
61.3541
20
41.8427
0
VERTEX
8
CUT
10
61.3681
20
41.8313
0
VERTEX
8
CUT
10
61.3954
20
41.8059
0
VERTEX
8
CUT
10
61.4173
20
41.7763
0
VERTEX
8
CUT
10
61.4272
20
41.7609
0
VERTEX
8
CUT
10
62.3046
20
40.3203
0
VERTEX
8
CUT
10
62.3418
20
40.2547
0
VERTEX
8
CUT
10
62.3749
20
40.1870
0
VERTEX
8
CUT
10
63.7985
20
37.0314
0
VERTEX
8
CUT
10
63.8055
20
37.0150
0
VERTEX
8
CUT
10
63.8176
20
36.9800
0
VERTEX
8
CUT
10
63.8232
20
36.9439
0
VERTEX
8
CUT
10
63.8247
20
36.9259
0
VERTEX
8
CUT
10
63.8857
20
35.9586
0
VERTEX
8
CUT
10
63.9079
20
35.7480
0
VERTEX
8
CUT
10
63.9479
20
35.5400
0
VERTEX
8
CUT
10
64.0053
20
35.3362
0
VERTEX
8
CUT
10
64.1334
20
34.9461
0
VERTEX
8
CUT
10
64.1393
20
34.9264
0
VERTEX
8
CUT
10
64.1483
20
34.8847
0
VERTEX
8
CUT
10
64.1529
20
34.8424
0
VERTEX
8
CUT
10
64.1536
20
34.8217
0
VERTEX
8
CUT
10
64.1710
20
31.1198
0
VERTEX
8
CUT
10
64.1706
20
31.1011
0
VERTEX
8
CUT
10
64.1637
20
31.0237
0
VERTEX
8
CUT
10
64.1607
20
31.0052
0
VERTEX
8
CUT
10
63.9435
20
29.8387
0
VERTEX
8
CUT
10
63.9138
20
29.6313
0
VERTEX
8
CUT
10
63.9016
20
29.4222
0
VERTEX
8
CUT
10
63.8554
20
26.6121
0
VERTEX
8
CUT
10
63.8546
20
26.5918
0
VERTEX
8
CUT
10
63.8496
20
26.5502
0
VERTEX
8
CUT
10
63.8404
20
26.5093
0
VERTEX
8
CUT
10
63.8344
20
26.4899
0
VERTEX
8
CUT
10
63.7422
20
26.2149
0
VERTEX
8
CUT
10
63.6704
20
25.9554
0
VERTEX
8
CUT
10
63.6269
20
25.6896
0
VERTEX
8
CUT
10
63.6123
20
25.4208
0
VERTEX
8
CUT
10
63.6112
20
23.3285
0
VERTEX
8
CUT
10
63.6206
20
23.1111
0
VERTEX
8
CUT
10
63.6488
20
22.8954
0
VERTEX
8
CUT
10
63.6957
20
22.6829
0
VERTEX
8
CUT
10
63.7608
20
22.4753
0
VERTEX
8
CUT
10
63.8294
20
22.2861
0
VERTEX
8
CUT
10
63.8360
20
22.2665
0
VERTEX
8
CUT
10
63.8462
20
22.2253
0
VERTEX
8
CUT
10
63.8521
20
22.1832
0
VERTEX
8
CUT
10
63.8534
20
22.1627
0
VERTEX
8
CUT
10
63.8959
20
20.9876
0
VERTEX
8
CUT
10
63.9177
20
20.7365
0
VERTEX
8
CUT
10
63.9647
20
20.4889
0
VERTEX
8
CUT
10
64.1587
20
19.6889
0
VERTEX
8
CUT
10
64.2703
20
19.3414
0
VERTEX
8
CUT
10
65.1920
20
17.0606
0
VERTEX
8
CUT
10
65.2963
20
16.8354
0
VERTEX
8
CUT
10
65.4224
20
16.6216
0
VERTEX
8
CUT
10
65.5691
20
16.4213
0
VERTEX
8
CUT
10
65.7350
20
16.2366
0
VERTEX
8
CUT
10
67.9421
20
14.0115
0
VERTEX
8
CUT
10
68.1239
20
13.8455
0
VERTEX
8
CUT
10
68.3210
20
13.6982
0
VERTEX
8
CUT
10
68.5317
20
13.5710
0
VERTEX
8
CUT
10
68.7539
20
13.4651
0
VERTEX
8
CUT
10
69.6043
20
13.1101
0
VERTEX
8
CUT
10
69.8002
20
13.0377
0
VERTEX
8
CUT
10
70.0015
20
12.9820
0
VERTEX
8
CUT
10
70.8310
20
12.7893
0
VERTEX
8
CUT
10
71.1202
20
12.7397
0
VERTEX
8
CUT
10
71.4132
20
12.7244
0
VERTEX
8
CUT
10
72.4240
20
12.7311
0
VERTEX
8
CUT
10
72.7181
20
12.7504
0
VERTEX
8
CUT
10
73.0079
20
12.8041
0
VERTEX
8
CUT
10
74.9420
20
13.2825
0
VERTEX
8
CUT
10
75.1315
20
13.3374
0
VERTEX
8
CUT
10
75.3161
20
13.4070
0
VERTEX
8
CUT
10
77.0259
20
14.1306
0
VERTEX
8
CUT
10
77.3081
20
14.2717
0
VERTEX
8
CUT
10
79.0434
20
15.2805
0
VERTEX
8
CUT
10
79.2162
20
15.3907
0
VERTEX
8
CUT
10
79.3793
20
15.5146
0
VERTEX
8
CUT
10
80.9741
20
16.8324
0
VERTEX
8
CUT
10
81.1594
20
17.0018
0
VERTEX
8
CUT
10
84.8785
20
20.7635
0
VERTEX
8
CUT
10
85.0356
20
20.9380
0
VERTEX
8
CUT
10
86.1713
20
22.3259
0
VERTEX
8
CUT
10
86.3127
20
22.5165
0
VERTEX
8
CUT
10
88.4801
20
25.7479
0
VERTEX
8
CUT
10
88.6602
20
26.0641
0
VERTEX
8
CUT
10
91.3381
20
31.6771
0
VERTEX
8
CUT
10
91.4412
20
31.9273
0
VERTEX
8
CUT
10
91.5167
20
32.1871
0
VERTEX
8
CUT
10
91.5636
20
32.4536
0
VERTEX
8
CUT
10
91.6092
20
32.8303
0
VERTEX
8
CUT
10
91.6116
20
32.8473
0
VERTEX
8
CUT
10
91.6189
20
32.8821
0
VERTEX
8
CUT
10
91.6292
20
32.9162
0
VERTEX
8
CUT
10
91.6351
20
32.9319
0
VERTEX
8
CUT
10
92.5955
20
35.3398
0
VERTEX
8
CUT
10
92.6820
20
35.5960
0
VERTEX
8
CUT
10
92.7402
20
35.8600
0
VERTEX
8
CUT
10
93.0413
20
37.6894
0
VERTEX
8
CUT
10
93.0584
20
37.7741
0
VERTEX
8
CUT
10
93.0814
20
37.8575
0
VERTEX
8
CUT
10
93.4769
20
39.1161
0
VERTEX
8
CUT
10
93.5342
20
39.3313
0
VERTEX
8
CUT
10
93.5720
20
39.5508
0
VERTEX
8
CUT
10
93.5902
20
39.7728
0
VERTEX
8
CUT
10
93.6316
20
40.8867
0
VERTEX
8
CUT
10
93.6327
20
40.9047
0
VERTEX
8
CUT
10
93.6422
20
40.9789
0
VERTEX
8
CUT
10
93.6458
20
40.9966
0
VERTEX
8
CUT
10
94.1078
20
43.0743
0
VERTEX
8
CUT
10
94.1506
20
43.3276
0
VERTEX
8
CUT
10
94.1672
20
43.5840
0
VERTEX
8
CUT
10
94.2061
20
46.5242
0
VERTEX
8
CUT
10
94.2069
20
46.5442
0
VERTEX
8
CUT
10
94.2116
20
46.5850
0
VERTEX
8
CUT
10
94.2203
20
46.6252
0
VERTEX
8
CUT
10
94.2260
20
46.6443
0
VERTEX
8
CUT
10
94.3387
20
46.9905
0
VERTEX
8
CUT
10
94.4023
20
47.2237
0
VERTEX
8
CUT
10
94.4431
20
47.4619
0
VERTEX
8
CUT
10
94.4607
20
47.7029
0
VERTEX
8
CUT
10
94.4786
20
48.4268
0
VERTEX
8
CUT
10
94.4786
20
48.5497
0
VERTEX
8
CUT
10
94.4604
20
49.2892
0
VERTEX
8
CUT
10
94.4438
20
49.5214
0
VERTEX
8
CUT
10
94.4057
20
49.7511
0
VERTEX
8
CUT
10
94.3465
20
49.9762
0
VERTEX
8
CUT
10
94.2262
20
50.3593
0
VERTEX
8
CUT
10
94.2209
20
50.3779
0
VERTEX
8
CUT
10
94.2127
20
50.4169
0
VERTEX
8
CUT
10
94.2084
20
50.4566
0
VERTEX
8
CUT
10
94.2077
20
50.4759
0
VERTEX
8
CUT
10
94.1643
20
54.1183
0
VERTEX
8
CUT
10
94.1450
20
54.4001
0
VERTEX
8
CUT
10
94.0940
20
54.6779
0
VERTEX
8
CUT
10
94.0120
20
54.9482
0
VERTEX
8
CUT
10
93.9474
20
55.1246
0
VERTEX
8
CUT
10
93.9406
20
55.1450
0
VERTEX
8
CUT
10
93.9299
20
55.1883
0
VERTEX
8
CUT
10
93.9240
20
55.2324
0
VERTEX
8
CUT
10
93.9229
20
55.2540
0
VERTEX
8
CUT
10
93.8870
20
56.7356
0
VERTEX
8
CUT
10
93.8723
20
56.9524
0
VERTEX
8
CUT
10
93.8389
20
57.1671
0
VERTEX
8
CUT
10
93.7869
20
57.3780
0
VERTEX
8
CUT
10
93.7168
20
57.5837
0
VERTEX
8
CUT
10
93.6537
20
57.7455
0
VERTEX
8
CUT
10
93.6463
20
57.7660
0
VERTEX
8
CUT
10
93.6347
20
57.8094
0
VERTEX
8
CUT
10
93.6279
20
57.8539
0
VERTEX
8
CUT
10
93.6264
20
57.8756
0
VERTEX
8
CUT
10
93.6004
20
58.4968
0
VERTEX
8
CUT
10
93.5791
20
58.7341
0
VERTEX
8
CUT
10
93.5353
20
58.9682
0
VERTEX
8
CUT
10
93.4694
20
59.1972
0
VERTEX
8
CUT
10
93.3820
20
59.4188
0
VERTEX
8
CUT
10
93.3662
20
59.4539
0
VERTEX
8
CUT
10
93.3533
20
59.4885
0
VERTEX
8
CUT
10
93.3436
20
59.5242
0
VERTEX
8
CUT
10
93.3402
20
59.5411
0
VERTEX
8
CUT
10
92.8238
20
62.4329
0
VERTEX
8
CUT
10
92.7684
20
62.6738
0
VERTEX
8
CUT
10
92.6894
20
62.9082
0
VERTEX
8
CUT
10
92.5876
20
63.1335
0
VERTEX
8
CUT
10
92.4641
20
63.3477
0
VERTEX
8
CUT
10
92.3201
20
63.5487
0
VERTEX
8
CUT
10
92.1568
20
63.7345
0
VERTEX
8
CUT
10
91.9761
20
63.9032
0
VERTEX
8
CUT
10
91.7795
20
64.0532
0
VERTEX
8
CUT
10
91.5691
20
64.1831
0
VERTEX
8
CUT
10
91.3469
20
64.2916
0
VERTEX
8
CUT
10
91.1151
20
64.3775
0
VERTEX
8
CUT
10
90.8759
20
64.4402
0
VERTEX
8
CUT
10
90.6317
20
64.4789
0
VERTEX
8
CUT
10
90.3848
20
64.4933
0
VERTEX
8
CUT
10
90.1377
20
64.4833
0
VERTEX
8
CUT
10
89.8929
20
64.4489
0
VERTEX
8
CUT
10
89.6526
20
64.3904
0
VERTEX
8
CUT
10
89.4193
20
64.3086
0
VERTEX
8
CUT
10
89.1952
20
64.2040
0
VERTEX
8
CUT
10
88.9825
20
64.0779
0
VERTEX
8
CUT
10
88.7834
20
63.9313
0
VERTEX
8
CUT
10
88.5997
20
63.7658
0
VERTEX
8
CUT
10
88.4332
20
63.5830
0
VERTEX
8
CUT
10
88.2856
20
63.3846
0
VERTEX
8
CUT
10
88.1583
20
63.1726
0
VERTEX
8
CUT
10
88.0526
20
62.9491
0
VERTEX
8
CUT
10
87.9695
20
62.7162
0
VERTEX
8
CUT
10
87.9098
20
62.4762
0
VERTEX
8
CUT
10
87.8741
20
62.2315
0
VERTEX
8
CUT
10
87.8628
20
61.9845
0
VERTEX
8
CUT
10
87.8720
20
59.3807
0
VERTEX
8
CUT
10
87.8711
20
59.3284
0
VERTEX
8
CUT
10
87.8679
20
59.2761
0
VERTEX
8
CUT
10
87.5609
20
55.5381
0
VERTEX
8
CUT
10
87.5585
20
55.5164
0
VERTEX
8
CUT
10
87.5499
20
55.4723
0
VERTEX
8
CUT
10
87.5366
20
55.4294
0
VERTEX
8
CUT
10
87.5284
20
55.4092
0
VERTEX
8
CUT
10
87.4616
20
55.2563
0
VERTEX
8
CUT
10
87.3777
20
55.0365
0
VERTEX
8
CUT
10
87.3148
20
54.8098
0
VERTEX
8
CUT
10
87.2735
20
54.5782
0
VERTEX
8
CUT
10
86.9687
20
52.2369
0
VERTEX
8
CUT
10
86.9658
20
52.2180
0
VERTEX
8
CUT
10
86.9482
20
52.1411
0
VERTEX
8
CUT
10
86.9426
20
52.1229
0
VERTEX
8
CUT
10
85.5012
20
47.7904
0
VERTEX
8
CUT
10
85.4708
20
47.7090
0
VERTEX
8
CUT
10
85.4348
20
47.6300
0
VERTEX
8
CUT
10
83.7428
20
44.2422
0
VERTEX
8
CUT
10
83.7021
20
44.1673
0
VERTEX
8
CUT
10
83.6563
20
44.0955
0
VERTEX
8
CUT
10
82.4095
20
42.2832
0
VERTEX
8
CUT
10
82.3988
20
42.2685
0
VERTEX
8
CUT
10
82.3507
20
42.2106
0
VERTEX
8
CUT
10
82.3382
20
42.1975
0
VERTEX
8
CUT
10
79.9213
20
39.7806
0
VERTEX
8
CUT
10
79.9055
20
39.7656
0
VERTEX
8
CUT
10
79.8351
20
39.7092
0
VERTEX
8
CUT
10
79.8171
20
39.6971
0
VERTEX
8
CUT
10
78.3138
20
38.7419
0
VERTEX
8
CUT
10
78.2954
20
38.7309
0
VERTEX
8
CUT
10
78.2158
20
38.6916
0
VERTEX
8
CUT
10
78.1959
20
38.6837
0
VERTEX
8
CUT
10
76.4853
20
38.0590
0
VERTEX
8
CUT
10
76.4673
20
38.0529
0
VERTEX
8
CUT
10
76.4296
20
38.0432
0
VERTEX
8
CUT
10
76.3916
20
38.0521
0
VERTEX
8
CUT
10
76.3735
20
38.0577
0
VERTEX
8
CUT
10
75.9800
20
38.1914
0
VERTEX
8
CUT
10
75.7547
20
38.2563
0
VERTEX
8
CUT
10
75.5243
20
38.2999
0
VERTEX
8
CUT
10
75.2909
20
38.3216
0
VERTEX
8
CUT
10
73.7768
20
38.3914
0
VERTEX
8
CUT
10
73.7580
20
38.3927
0
VERTEX
8
CUT
10
73.7196
20
38.3982
0
VERTEX
8
CUT
10
73.6843
20
38.4142
0
VERTEX
8
CUT
10
73.6678
20
38.4233
0
VERTEX
8
CUT
10
71.5122
20
39.6667
0
VERTEX
8
CUT
10
71.4969
20
39.6761
0
VERTEX
8
CUT
10
71.4663
20
39.6976
0
VERTEX
8
CUT
10
71.4376
20
39.7220
0
VERTEX
8
CUT
10
71.4251
20
39.7343
0
VERTEX
8
CUT
10
70.1933
20
40.9934
0
VERTEX
8
CUT
10
70.1895
20
40.9974
0
VERTEX
8
CUT
10
70.1372
20
41.0600
0
VERTEX
8
CUT
10
70.1259
20
41.0755
0
VERTEX
8
CUT
10
69.4234
20
42.0837
0
VERTEX
8
CUT
10
69.4128
20
42.0997
0
VERTEX
8
CUT
10
69.3934
20
42.1343
0
VERTEX
8
CUT
10
69.3774
20
42.1706
0
VERTEX
8
CUT
10
69.3709
20
42.1887
0
VERTEX
8
CUT
10
69.0749
20
43.0880
0
VERTEX
8
CUT
10
69.0698
20
43.1049
0
VERTEX
8
CUT
10
69.0615
20
43.1406
0
VERTEX
8
CUT
10
69.0564
20
43.1770
0
VERTEX
8
CUT
10
69.0551
20
43.1941
0
VERTEX
8
CUT
10
69.0138
20
44.0059
0
VERTEX
8
CUT
10
68.9855
20
44.2748
0
VERTEX
8
CUT
10
68.9283
20
44.5391
0
VERTEX
8
CUT
10
68.8428
20
44.7956
0
VERTEX
8
CUT
10
68.6591
20
45.2616
0
VERTEX
8
CUT
10
68.5478
20
45.5050
0
VERTEX
8
CUT
10
68.4111
20
45.7351
0
VERTEX
8
CUT
10
68.2505
20
45.9493
0
VERTEX
8
CUT
10
68.0680
20
46.1450
0
VERTEX
8
CUT
10
67.8656
20
46.3201
0
VERTEX
8
CUT
10
67.4901
20
46.6114
0
VERTEX
8
CUT
10
67.4736
20
46.6249
0
VERTEX
8
CUT
10
67.4420
20
46.6554
0
VERTEX
8
CUT
10
67.4138
20
46.6892
0
VERTEX
8
CUT
10
67.4015
20
46.7066
0
VERTEX
8
CUT
10
66.2080
20
48.4952
0
VERTEX
8
CUT
10
66.1976
20
48.5117
0
VERTEX
8
CUT
10
66.1787
20
48.5471
0
VERTEX
8
CUT
10
66.1671
20
48.5856
0
VERTEX
8
CUT
10
66.1629
20
48.6046
0
VERTEX
8
CUT
10
65.8426
20
50.2330
0
VERTEX
8
CUT
10
65.7931
20
50.4385
0
VERTEX
8
CUT
10
65.7263
20
50.6392
0
VERTEX
8
CUT
10
65.6429
20
50.8334
0
VERTEX
8
CUT
10
65.2701
20
51.6093
0
VERTEX
8
CUT
10
65.2628
20
51.6253
0
VERTEX
8
CUT
10
65.2501
20
51.6592
0
VERTEX
8
CUT
10
65.2467
20
51.6954
0
VERTEX
8
CUT
10
65.2463
20
51.7125
0
VERTEX
8
CUT
10
65.2431
20
52.5584
0
VERTEX
8
CUT
10
65.2434
20
52.5755
0
VERTEX
8
CUT
10
65.2493
20
52.6462
0
VERTEX
8
CUT
10
65.2518
20
52.6632
0
VERTEX
8
CUT
10
65.5547
20
54.4421
0
VERTEX
8
CUT
10
65.5583
20
54.4606
0
VERTEX
8
CUT
10
65.5786
20
54.5359
0
VERTEX
8
CUT
10
65.5848
20
54.5537
0
VERTEX
8
CUT
10
66.4288
20
56.8087
0
VERTEX
8
CUT
10
66.4375
20
56.8301
0
VERTEX
8
CUT
10
66.4811
20
56.9151
0
VERTEX
8
CUT
10
66.4934
20
56.9346
0
VERTEX
8
CUT
10
67.7264
20
58.7736
0
VERTEX
8
CUT
10
67.7673
20
58.8310
0
VERTEX
8
CUT
10
67.8114
20
58.8859
0
VERTEX
8
CUT
10
69.3584
20
60.7010
0
VERTEX
8
CUT
10
69.3874
20
60.7339
0
VERTEX
8
CUT
10
69.4176
20
60.7657
0
VERTEX
8
CUT
10
72.4861
20
63.8837
0
VERTEX
8
CUT
10
72.6475
20
64.0644
0
VERTEX
8
CUT
10
72.7906
20
64.2600
0
VERTEX
8
CUT
10
72.9142
20
64.4684
0
VERTEX
8
CUT
10
73.0170
20
64.6879
0
VERTEX
8
CUT
10
73.0980
20
64.9163
0
VERTEX
8
CUT
10
73.1566
20
65.1514
0
VERTEX
8
CUT
10
73.1921
20
65.3911
0
VERTEX
8
CUT
10
73.2042
20
65.6331
0
VERTEX
8
CUT
10
73.1929
20
65.8752
0
VERTEX
8
CUT
10
73.1582
20
66.1150
0
VERTEX
8
CUT
10
73.1004
20
66.3503
0
VERTEX
8
CUT
10
73.0445
20
66.5094
0
VERTEX
8
CUT
10
73.2045
20
66.4561
0
VERTEX
8
CUT
10
73.4407
20
66.4021
0
VERTEX
8
CUT
10
73.6811
20
66.3712
0
VERTEX
8
CUT
10
73.9233
20
66.3638
0
VERTEX
8
CUT
10
74.1651
20
66.3798
0
VERTEX
8
CUT
10
74.4042
20
66.4191
0
VERTEX
8
CUT
10
74.6384
20
66.4814
0
VERTEX
8
CUT
10
74.8654
20
66.5661
0
VERTEX
8
CUT
10
75.0832
20
66.6724
0
VERTEX
8
CUT
10
75.2896
20
66.7993
0
VERTEX
8
CUT
10
75.4828
20
66.9455
0
VERTEX
8
CUT
10
75.6610
20
67.1098
0
VERTEX
8
CUT
10
75.8011
20
67.2522
0
VERTEX
8
CUT
10
75.9647
20
67.4357
0
VERTEX
8
CUT
10
76.1095
20
67.6344
0
VERTEX
8
CUT
10
76.2341
20
67.8463
0
VERTEX
8
CUT
10
76.3373
20
68.0695
0
VERTEX
8
CUT
10
76.4181
20
68.3017
0
VERTEX
8
CUT
10
76.4756
20
68.5408
0
VERTEX
8
CUT
10
76.5094
20
68.7843
0
VERTEX
8
CUT
10
76.5191
20
69.0300
0
VERTEX
8
CUT
10
76.5047
20
69.2754
0
VERTEX
8
CUT
10
76.4661
20
69.5183
0
VERTEX
8
CUT
10
76.4040
20
69.7561
0
VERTEX
8
CUT
10
76.3187
20
69.9868
0
VERTEX
8
CUT
10
76.2112
20
70.2079
0
VERTEX
8
CUT
10
76.0826
20
70.4174
0
VERTEX
8
CUT
10
75.9339
20
70.6132
0
VERTEX
8
CUT
10
75.7668
20
70.7935
0
VERTEX
8
CUT
10
75.5827
20
70.9565
0
VERTEX
8
CUT
10
75.3835
20
71.1007
0
VERTEX
8
CUT
10
75.1711
20
71.2246
0
VERTEX
8
CUT
10
74.9476
20
71.3270
0
VERTEX
8
CUT
10
74.7151
20
71.4069
0
VERTEX
8
CUT
10
74.4759
20
71.4637
0
VERTEX
8
CUT
10
74.2322
20
71.4967
0
VERTEX
8
CUT
10
73.9865
20
71.5055
0
VERTEX
8
CUT
10
73.7411
20
71.4902
0
VERTEX
8
CUT
10
73.4984
20
71.4509
0
VERTEX
8
CUT
10
73.3892
20
71.4276
0
VERTEX
8
CUT
10
73.1462
20
71.3629
0
VERTEX
8
CUT
10
72.9109
20
71.2742
0
VERTEX
8
CUT
10
72.6857
20
71.1622
0
VERTEX
8
CUT
10
72.4729
20
71.0281
0
VERTEX
8
CUT
10
72.2747
20
70.8734
0
VERTEX
8
CUT
10
72.0930
20
70.6995
0
VERTEX
8
CUT
10
71.9297
20
70.5083
0
VERTEX
8
CUT
10
71.7864
20
70.3016
0
VERTEX
8
CUT
10
71.6646
20
70.0816
0
VERTEX
8
CUT
10
71.5655
20
69.8504
0
VERTEX
8
CUT
10
71.4902
20
69.6105
0
VERTEX
8
CUT
10
71.4593
20
69.4913
0
VERTEX
8
CUT
10
71.4099
20
69.2541
0
VERTEX
8
CUT
10
71.3836
20
69.0132
0
VERTEX
8
CUT
10
71.3808
20
68.7709
0
VERTEX
8
CUT
10
71.4015
20
68.5295
0
VERTEX
8
CUT
10
71.4455
20
68.2912
0
VERTEX
8
CUT
10
71.5123
20
68.0582
0
VERTEX
8
CUT
10
71.5388
20
67.9912
0
VERTEX
8
CUT
10
71.4713
20
68.0167
0
VERTEX
8
CUT
10
71.2374
20
68.0798
0
VERTEX
8
CUT
10
70.9984
20
68.1199
0
VERTEX
8
CUT
10
70.7566
20
68.1367
0
VERTEX
8
CUT
10
70.5144
20
68.1300
0
VERTEX
8
CUT
10
70.2740
20
68.1000
0
VERTEX
8
CUT
10
70.0376
20
68.0467
0
VERTEX
8
CUT
10
69.8074
20
67.9709
0
VERTEX
8
CUT
10
69.5857
20
67.8731
0
VERTEX
8
CUT
10
66.8913
20
66.5251
0
VERTEX
8
CUT
10
66.8865
20
66.5228
0
VERTEX
8
CUT
10
66.8400
20
66.5039
0
VERTEX
8
CUT
10
66.8159
20
66.4965
0
VERTEX
8
CUT
10
66.7926
20
66.4907
0
VERTEX
8
CUT
10
66.5975
20
66.4476
0
VERTEX
8
CUT
10
66.3678
20
66.3852
0
VERTEX
8
CUT
10
66.1450
20
66.3012
0
VERTEX
8
CUT
10
65.9313
20
66.1964
0
VERTEX
8
CUT
10
63.3487
20
64.7739
0
VERTEX
8
CUT
10
63.1029
20
64.6193
0
VERTEX
8
CUT
10
62.8766
20
64.4372
0
VERTEX
8
CUT
10
59.1481
20
61.0606
0
VERTEX
8
CUT
10
58.9467
20
60.8559
0
VERTEX
8
CUT
10
56.8127
20
58.4225
0
VERTEX
8
CUT
10
56.6621
20
58.2331
0
VERTEX
8
CUT
10
56.5306
20
58.0301
0
VERTEX
8
CUT
10
55.7053
20
56.6096
0
VERTEX
8
CUT
10
55.5861
20
56.3772
0
VERTEX
8
CUT
10
55.4917
20
56.1337
0
VERTEX
8
CUT
10
55.4233
20
55.8816
0
VERTEX
8
CUT
10
55.3816
20
55.6238
0
VERTEX
8
CUT
10
55.3614
20
55.4384
0
VERTEX
8
CUT
10
55.3581
20
55.4144
0
VERTEX
8
CUT
10
55.3350
20
55.3164
0
VERTEX
8
CUT
10
55.3273
20
55.2933
0
SEQEND
0
POLYLINE
8
CUT
66
1
70
1
10
0.0
20
0.0
30
0.0
0
VERTEX
8
CUT
10
76.6457
20
86.5337
0
VERTEX
8
CUT
10
76.6637
20
86.4999
0
VERTEX
8
CUT
10
76.6716
20
86.4625
0
VERTEX
8
CUT
10
76.6741
20
86.4440
0
VERTEX
8
CUT
10
76.6850
20
86.3482
0
VERTEX
8
CUT
10
76.7220
20
86.1175
0
VERTEX
8
CUT
10
76.7805
20
85.8914
0
VERTEX
8
CUT
10
76.8597
20
85.6717
0
VERTEX
8
CUT
10
76.9592
20
85.4603
0
VERTEX
8
CUT
10
77.0779
20
85.2592
0
VERTEX
8
CUT
10
77.2149
20
85.0700
0
VERTEX
8
CUT
10
77.3690
20
84.8944
0
VERTEX
8
CUT
10
77.5387
20
84.7339
0
VERTEX
8
CUT
10
77.7227
20
84.5901
0
VERTEX
8
CUT
10
77.9194
20
84.4640
0
VERTEX
8
CUT
10
78.2846
20
84.2532
0
VERTEX
8
CUT
10
78.3009
20
84.2432
0
VERTEX
8
CUT
10
78.3651
20
84.1974
0
VERTEX
8
CUT
10
78.3798
20
84.1853
0
VERTEX
8
CUT
10
79.2538
20
83.4261
0
VERTEX
8
CUT
10
79.4490
20
83.2728
0
VERTEX
8
CUT
10
79.6585
20
83.1396
0
VERTEX
8
CUT
10
79.8801
20
83.0279
0
VERTEX
8
CUT
10
80.1117
20
82.9387
0
VERTEX
8
CUT
10
80.3510
20
82.8729
0
VERTEX
8
CUT
10
80.5957
20
82.8312
0
VERTEX
8
CUT
10
80.8433
20
82.8139
0
VERTEX
8
CUT
10
81.0914
20
82.8212
0
VERTEX
8
CUT
10
81.3376
20
82.8532
0
VERTEX
8
CUT
10
81.5793
20
82.9094
0
VERTEX
8
CUT
10
81.8144
20
82.9892
0
VERTEX
8
CUT
10
82.0403
20
83.0920
0
VERTEX
8
CUT
10
82.2549
20
83.2167
0
VERTEX
8
CUT
10
82.4561
20
83.3621
0
VERTEX
8
CUT
10
82.6419
20
83.5267
0
VERTEX
8
CUT
10
82.8104
20
83.7089
0
VERTEX
8
CUT
10
82.9601
20
83.9069
0
VERTEX
8
CUT
10
83.0894
20
84.1188
0
VERTEX
8
CUT
10
83.1970
20
84.3424
0
VERTEX
8
CUT
10
83.2819
20
84.5756
0
VERTEX
8
CUT
10
83.3433
20
84.8161
0
VERTEX
8
CUT
10
83.3806
20
85.0615
0
VERTEX
8
CUT
10
83.3933
20
85.3094
0
VERTEX
8
CUT
10
83.3813
20
85.5574
0
VERTEX
8
CUT
10
83.3449
20
85.8029
0
VERTEX
8
CUT
10
83.2843
20
86.0436
0
VERTEX
8
CUT
10
83.2001
20
86.2771
0
VERTEX
8
CUT
10
83.0932
20
86.5011
0
VERTEX
8
CUT
10
82.9645
20
86.7133
0
VERTEX
8
CUT
10
82.8155
20
86.9118
0
VERTEX
8
CUT
10
81.5246
20
88.4642
0
VERTEX
8
CUT
10
81.5108
20
88.4818
0
VERTEX
8
CUT
10
81.4601
20
88.5589
0
VERTEX
8
CUT
10
81.4495
20
88.5786
0
VERTEX
8
CUT
10
80.7953
20
89.8698
0
VERTEX
8
CUT
10
80.6713
20
90.0868
0
VERTEX
8
CUT
10
80.5263
20
90.2905
0
VERTEX
8
CUT
10
79.7704
20
91.2464
0
VERTEX
8
CUT
10
79.6095
20
91.4306
0
VERTEX
8
CUT
10
79.4314
20
91.5982
0
VERTEX
8
CUT
10
79.2378
20
91.7476
0
VERTEX
8
CUT
10
79.0305
20
91.8773
0
VERTEX
8
CUT
10
78.6268
20
92.1033
0
VERTEX
8
CUT
10
78.4059
20
92.2130
0
VERTEX
8
CUT
10
78.1753
20
92.3004
0
VERTEX
8
CUT
10
77.9372
20
92.3646
0
VERTEX
8
CUT
10
77.6940
20
92.4051
0
VERTEX
8
CUT
10
77.4479
20
92.4214
0
VERTEX
8
CUT
10
77.2015
20
92.4134
0
VERTEX
8
CUT
10
76.9570
20
92.3812
0
VERTEX
8
CUT
10
76.7168
20
92.3250
0
VERTEX
8
CUT
10
76.4834
20
92.2455
0
VERTEX
8
CUT
10
76.2590
20
92.1433
0
VERTEX
8
CUT
10
76.0457
20
92.0195
0
VERTEX
8
CUT
10
75.8456
20
91.8753
0
VERTEX
8
CUT
10
75.6608
20
91.7121
0
VERTEX
8
CUT
10
75.4929
20
91.5315
0
VERTEX
8
CUT
10
75.3436
20
91.3352
0
VERTEX
8
CUT
10
75.2144
20
91.1252
0
VERTEX
8
CUT
10
75.1065
20
90.9034
0
VERTEX
8
CUT
10
75.0209
20
90.6721
0
VERTEX
8
CUT
10
74.9586
20
90.4335
0
VERTEX
8
CUT
10
74.9201
20
90.1899
0
VERTEX
8
CUT
10
74.9058
20
89.9437
0
VERTEX
8
CUT
10
74.9158
20
89.6973
0
VERTEX
8
CUT
10
74.9500
20
89.4531
0
VERTEX
8
CUT
10
75.0081
20
89.2135
0
VERTEX
8
CUT
10
75.0896
20
88.9807
0
VERTEX
8
CUT
10
75.1936
20
88.7571
0
VERTEX
8
CUT
10
75.3191
20
88.5448
0
VERTEX
8
CUT
10
76.6359
20
86.5495
0
SEQEND
0
ENDSEC
0
EOF
