0
SECTION
2
ENTITIES
0
POLYLINE
8
CUT
66
1
70
1
0
VERTEX
8
CUT
10
299.9972
20
150.9204
0
VERTEX
8
CUT
10
299.9887
20
151.8407
0
VERTEX
8
CUT
10
299.9746
20
152.7610
0
VERTEX
8
CUT
10
299.9548
20
153.6812
0
VERTEX
8
CUT
10
299.9294
20
154.6012
0
VERTEX
8
CUT
10
299.8984
20
155.5211
0
VERTEX
8
CUT
10
299.8617
20
156.4407
0
VERTEX
8
CUT
10
299.8193
20
157.3602
0
VERTEX
8
CUT
10
299.7713
20
158.2793
0
VERTEX
8
CUT
10
299.7177
20
159.1981
0
VERTEX
8
CUT
10
299.6585
20
160.1166
0
VERTEX
8
CUT
10
299.5936
20
161.0347
0
VERTEX
8
CUT
10
299.5230
20
161.9524
0
VERTEX
8
CUT
10
299.4469
20
162.8696
0
VERTEX
8
CUT
10
299.3651
20
163.7863
0
VERTEX
8
CUT
10
299.2777
20
164.7026
0
VERTEX
8
CUT
10
299.1847
20
165.6182
0
VERTEX
8
CUT
10
299.0860
20
166.5333
0
VERTEX
8
CUT
10
298.9818
20
167.4478
0
VERTEX
8
CUT
10
298.8719
20
168.3616
0
VERTEX
8
CUT
10
298.7565
20
169.2747
0
VERTEX
8
CUT
10
298.6354
20
170.1871
0
VERTEX
8
CUT
10
298.5087
20
171.0987
0
VERTEX
8
CUT
10
298.3765
20
172.0096
0
VERTEX
8
CUT
10
298.2386
20
172.9196
0
VERTEX
8
CUT
10
298.0952
20
173.8287
0
VERTEX
8
CUT
10
297.9462
20
174.7370
0
VERTEX
8
CUT
10
297.7916
20
175.6443
0
VERTEX
8
CUT
10
297.6315
20
176.5506
0
VERTEX
8
CUT
10
297.4658
20
177.4560
0
VERTEX
8
CUT
10
297.2946
20
178.3603
0
VERTEX
8
CUT
10
297.1178
20
179.2635
0
VERTEX
8
CUT
10
296.9355
20
180.1657
0
VERTEX
8
CUT
10
296.7476
20
181.0667
0
VERTEX
8
CUT
10
296.5542
20
181.9665
0
VERTEX
8
CUT
10
296.3553
20
182.8652
0
VERTEX
8
CUT
10
296.1509
20
183.7626
0
VERTEX
8
CUT
10
295.9410
20
184.6587
0
VERTEX
8
CUT
10
295.7256
20
185.5535
0
VERTEX
8
CUT
10
295.5047
20
186.4470
0
VERTEX
8
CUT
10
295.2783
20
187.3391
0
VERTEX
8
CUT
10
295.0465
20
188.2298
0
VERTEX
8
CUT
10
294.8092
20
189.1191
0
VERTEX
8
CUT
10
294.5664
20
190.0069
0
VERTEX
8
CUT
10
294.3182
20
190.8932
0
VERTEX
8
CUT
10
294.0646
20
191.7780
0
VERTEX
8
CUT
10
293.8055
20
192.6611
0
VERTEX
8
CUT
10
293.5411
20
193.5427
0
VERTEX
8
CUT
10
293.2712
20
194.4226
0
VERTEX
8
CUT
10
292.9959
20
195.3009
0
VERTEX
8
CUT
10
292.7153
20
196.1774
0
VERTEX
8
CUT
10
292.4292
20
197.0523
0
VERTEX
8
CUT
10
292.1378
20
197.9253
0
VERTEX
8
CUT
10
291.8411
20
198.7965
0
VERTEX
8
CUT
10
291.5390
20
199.6659
0
VERTEX
8
CUT
10
291.2316
20
200.5335
0
VERTEX
8
CUT
10
290.9189
20
201.3991
0
VERTEX
8
CUT
10
290.6009
20
202.2628
0
VERTEX
8
CUT
10
290.2775
20
203.1245
0
VERTEX
8
CUT
10
289.9489
20
203.9843
0
VERTEX
8
CUT
10
289.6150
20
204.8419
0
VERTEX
8
CUT
10
289.2759
20
205.6976
0
VERTEX
8
CUT
10
288.9315
20
206.5511
0
VERTEX
8
CUT
10
288.5819
20
207.4025
0
VERTEX
8
CUT
10
288.2271
20
208.2518
0
VERTEX
8
CUT
10
287.8671
20
209.0988
0
VERTEX
8
CUT
10
287.5019
20
209.9436
0
VERTEX
8
CUT
10
287.1315
20
210.7862
0
VERTEX
8
CUT
10
286.7559
20
211.6265
0
VERTEX
8
CUT
10
286.3752
20
212.4644
0
VERTEX
8
CUT
10
285.9894
20
213.3000
0
VERTEX
8
CUT
10
285.5984
20
214.1333
0
VERTEX
8
CUT
10
285.2023
20
214.9641
0
VERTEX
8
CUT
10
284.8012
20
215.7924
0
VERTEX
8
CUT
10
284.3949
20
216.6183
0
VERTEX
8
CUT
10
283.9836
20
217.4417
0
VERTEX
8
CUT
10
283.5673
20
218.2625
0
VERTEX
8
CUT
10
283.1459
20
219.0808
0
VERTEX
8
CUT
10
282.7196
20
219.8965
0
VERTEX
8
CUT
10
282.2882
20
220.7095
0
VERTEX
8
CUT
10
281.8518
20
221.5199
0
VERTEX
8
CUT
10
281.4105
20
222.3276
0
VERTEX
8
CUT
10
280.9642
20
223.1325
0
VERTEX
8
CUT
10
280.5130
20
223.9347
0
VERTEX
8
CUT
10
280.0569
20
224.7342
0
VERTEX
8
CUT
10
279.5959
20
225.5308
0
VERTEX
8
CUT
10
279.1300
20
226.3245
0
VERTEX
8
CUT
10
278.6593
20
227.1154
0
VERTEX
8
CUT
10
278.1837
20
227.9034
0
VERTEX
8
CUT
10
277.7033
20
228.6885
0
VERTEX
8
CUT
10
277.2181
20
229.4705
0
VERTEX
8
CUT
10
276.7280
20
230.2496
0
VERTEX
8
CUT
10
276.2332
20
231.0257
0
VERTEX
8
CUT
10
275.7337
20
231.7987
0
VERTEX
8
CUT
10
275.2294
20
232.5687
0
VERTEX
8
CUT
10
274.7204
20
233.3355
0
VERTEX
8
CUT
10
274.2068
20
234.0992
0
VERTEX
8
CUT
10
273.6884
20
234.8598
0
VERTEX
8
CUT
10
273.1654
20
235.6171
0
VERTEX
8
CUT
10
272.6377
20
236.3712
0
VERTEX
8
CUT
10
272.1054
20
237.1221
0
VERTEX
8
CUT
10
271.5686
20
237.8697
0
VERTEX
8
CUT
10
271.0271
20
238.6140
0
VERTEX
8
CUT
10
270.4811
20
239.3549
0
VERTEX
8
CUT
10
269.9306
20
240.0925
0
VERTEX
8
CUT
10
269.3755
20
240.8267
0
VERTEX
8
CUT
10
268.8160
20
241.5574
0
VERTEX
8
CUT
10
268.2520
20
242.2847
0
VERTEX
8
CUT
10
267.6835
20
243.0086
0
VERTEX
8
CUT
10
267.1106
20
243.7289
0
VERTEX
8
CUT
10
266.5333
20
244.4457
0
VERTEX
8
CUT
10
265.9516
20
245.1590
0
VERTEX
8
CUT
10
265.3655
20
245.8687
0
VERTEX
8
CUT
10
264.7751
20
246.5747
0
VERTEX
8
CUT
10
264.1804
20
247.2772
0
VERTEX
8
CUT
10
263.5813
20
247.9759
0
VERTEX
8
CUT
10
262.9780
20
248.6710
0
VERTEX
8
CUT
10
262.3705
20
249.3624
0
VERTEX
8
CUT
10
261.7587
20
250.0500
0
VERTEX
8
CUT
10
261.1427
20
250.7338
0
VERTEX
8
CUT
10
260.5225
20
251.4139
0
VERTEX
8
CUT
10
259.8981
20
252.0901
0
VERTEX
8
CUT
10
259.2697
20
252.7626
0
VERTEX
8
CUT
10
258.6371
20
253.4311
0
VERTEX
8
CUT
10
258.0004
20
254.0957
0
VERTEX
8
CUT
10
257.3596
20
254.7564
0
VERTEX
8
CUT
10
256.7148
20
255.4132
0
VERTEX
8
CUT
10
256.0660
20
256.0660
0
VERTEX
8
CUT
10
255.4132
20
256.7148
0
VERTEX
8
CUT
10
254.7564
20
257.3596
0
VERTEX
8
CUT
10
254.0957
20
258.0004
0
VERTEX
8
CUT
10
253.4311
20
258.6371
0
VERTEX
8
CUT
10
252.7626
20
259.2697
0
VERTEX
8
CUT
10
252.0901
20
259.8981
0
VERTEX
8
CUT
10
251.4139
20
260.5225
0
VERTEX
8
CUT
10
250.7338
20
261.1427
0
VERTEX
8
CUT
10
250.0500
20
261.7587
0
VERTEX
8
CUT
10
249.3624
20
262.3705
0
VERTEX
8
CUT
10
248.6710
20
262.9780
0
VERTEX
8
CUT
10
247.9759
20
263.5813
0
VERTEX
8
CUT
10
247.2772
20
264.1804
0
VERTEX
8
CUT
10
246.5747
20
264.7751
0
VERTEX
8
CUT
10
245.8687
20
265.3655
0
VERTEX
8
CUT
10
245.1590
20
265.9516
0
VERTEX
8
CUT
10
244.4457
20
266.5333
0
VERTEX
8
CUT
10
243.7289
20
267.1106
0
VERTEX
8
CUT
10
243.0086
20
267.6835
0
VERTEX
8
CUT
10
242.2847
20
268.2520
0
VERTEX
8
CUT
10
241.5574
20
268.8160
0
VERTEX
8
CUT
10
240.8267
20
269.3755
0
VERTEX
8
CUT
10
240.0925
20
269.9306
0
VERTEX
8
CUT
10
239.3549
20
270.4811
0
VERTEX
8
CUT
10
238.6140
20
271.0271
0
VERTEX
8
CUT
10
237.8697
20
271.5686
0
VERTEX
8
CUT
10
237.1221
20
272.1054
0
VERTEX
8
CUT
10
236.3712
20
272.6377
0
VERTEX
8
CUT
10
235.6171
20
273.1654
0
VERTEX
8
CUT
10
234.8598
20
273.6884
0
VERTEX
8
CUT
10
234.0992
20
274.2068
0
VERTEX
8
CUT
10
233.3355
20
274.7204
0
VERTEX
8
CUT
10
232.5687
20
275.2294
0
VERTEX
8
CUT
10
231.7987
20
275.7337
0
VERTEX
8
CUT
10
231.0257
20
276.2332
0
VERTEX
8
CUT
10
230.2496
20
276.7280
0
VERTEX
8
CUT
10
229.4705
20
277.2181
0
VERTEX
8
CUT
10
228.6885
20
277.7033
0
VERTEX
8
CUT
10
227.9034
20
278.1837
0
VERTEX
8
CUT
10
227.1154
20
278.6593
0
VERTEX
8
CUT
10
226.3245
20
279.1300
0
VERTEX
8
CUT
10
225.5308
20
279.5959
0
VERTEX
8
CUT
10
224.7342
20
280.0569
0
VERTEX
8
CUT
10
223.9347
20
280.5130
0
VERTEX
8
CUT
10
223.1325
20
280.9642
0
VERTEX
8
CUT
10
222.3276
20
281.4105
0
VERTEX
8
CUT
10
221.5199
20
281.8518
0
VERTEX
8
CUT
10
220.7095
20
282.2882
0
VERTEX
8
CUT
10
219.8965
20
282.7196
0
VERTEX
8
CUT
10
219.0808
20
283.1459
0
VERTEX
8
CUT
10
218.2625
20
283.5673
0
VERTEX
8
CUT
10
217.4417
20
283.9836
0
VERTEX
8
CUT
10
216.6183
20
284.3949
0
VERTEX
8
CUT
10
215.7924
20
284.8012
0
VERTEX
8
CUT
10
214.9641
20
285.2023
0
VERTEX
8
CUT
10
214.1333
20
285.5984
0
VERTEX
8
CUT
10
213.3000
20
285.9894
0
VERTEX
8
CUT
10
212.4644
20
286.3752
0
VERTEX
8
CUT
10
211.6265
20
286.7559
0
VERTEX
8
CUT
10
210.7862
20
287.1315
0
VERTEX
8
CUT
10
209.9436
20
287.5019
0
VERTEX
8
CUT
10
209.0988
20
287.8671
0
VERTEX
8
CUT
10
208.2518
20
288.2271
0
VERTEX
8
CUT
10
207.4025
20
288.5819
0
VERTEX
8
CUT
10
206.5511
20
288.9315
0
VERTEX
8
CUT
10
205.6976
20
289.2759
0
VERTEX
8
CUT
10
204.8419
20
289.6150
0
VERTEX
8
CUT
10
203.9843
20
289.9489
0
VERTEX
8
CUT
10
203.1245
20
290.2775
0
VERTEX
8
CUT
10
202.2628
20
290.6009
0
VERTEX
8
CUT
10
201.3991
20
290.9189
0
VERTEX
8
CUT
10
200.5335
20
291.2316
0
VERTEX
8
CUT
10
199.6659
20
291.5390
0
VERTEX
8
CUT
10
198.7965
20
291.8411
0
VERTEX
8
CUT
10
197.9253
20
292.1378
0
VERTEX
8
CUT
10
197.0523
20
292.4292
0
VERTEX
8
CUT
10
196.1774
20
292.7153
0
VERTEX
8
CUT
10
195.3009
20
292.9959
0
VERTEX
8
CUT
10
194.4226
20
293.2712
0
VERTEX
8
CUT
10
193.5427
20
293.5411
0
VERTEX
8
CUT
10
192.6611
20
293.8055
0
VERTEX
8
CUT
10
191.7780
20
294.0646
0
VERTEX
8
CUT
10
190.8932
20
294.3182
0
VERTEX
8
CUT
10
190.0069
20
294.5664
0
VERTEX
8
CUT
10
189.1191
20
294.8092
0
VERTEX
8
CUT
10
188.2298
20
295.0465
0
VERTEX
8
CUT
10
187.3391
20
295.2783
0
VERTEX
8
CUT
10
186.4470
20
295.5047
0
VERTEX
8
CUT
10
185.5535
20
295.7256
0
VERTEX
8
CUT
10
184.6587
20
295.9410
0
VERTEX
8
CUT
10
183.7626
20
296.1509
0
VERTEX
8
CUT
10
182.8652
20
296.3553
0
VERTEX
8
CUT
10
181.9665
20
296.5542
0
VERTEX
8
CUT
10
181.0667
20
296.7476
0
VERTEX
8
CUT
10
180.1657
20
296.9355
0
VERTEX
8
CUT
10
179.2635
20
297.1178
0
VERTEX
8
CUT
10
178.3603
20
297.2946
0
VERTEX
8
CUT
10
177.4560
20
297.4658
0
VERTEX
8
CUT
10
176.5506
20
297.6315
0
VERTEX
8
CUT
10
175.6443
20
297.7916
0
VERTEX
8
CUT
10
174.7370
20
297.9462
0
VERTEX
8
CUT
10
173.8287
20
298.0952
0
VERTEX
8
CUT
10
172.9196
20
298.2386
0
VERTEX
8
CUT
10
172.0096
20
298.3765
0
VERTEX
8
CUT
10
171.0987
20
298.5087
0
VERTEX
8
CUT
10
170.1871
20
298.6354
0
VERTEX
8
CUT
10
169.2747
20
298.7565
0
VERTEX
8
CUT
10
168.3616
20
298.8719
0
VERTEX
8
CUT
10
167.4478
20
298.9818
0
VERTEX
8
CUT
10
166.5333
20
299.0860
0
VERTEX
8
CUT
10
165.6182
20
299.1847
0
VERTEX
8
CUT
10
164.7026
20
299.2777
0
VERTEX
8
CUT
10
163.7863
20
299.3651
0
VERTEX
8
CUT
10
162.8696
20
299.4469
0
VERTEX
8
CUT
10
161.9524
20
299.5230
0
VERTEX
8
CUT
10
161.0347
20
299.5936
0
VERTEX
8
CUT
10
160.1166
20
299.6585
0
VERTEX
8
CUT
10
159.1981
20
299.7177
0
VERTEX
8
CUT
10
158.2793
20
299.7713
0
VERTEX
8
CUT
10
157.3602
20
299.8193
0
VERTEX
8
CUT
10
156.4407
20
299.8617
0
VERTEX
8
CUT
10
155.5211
20
299.8984
0
VERTEX
8
CUT
10
154.6012
20
299.9294
0
VERTEX
8
CUT
10
153.6812
20
299.9548
0
VERTEX
8
CUT
10
152.7610
20
299.9746
0
VERTEX
8
CUT
10
151.8407
20
299.9887
0
VERTEX
8
CUT
10
150.9204
20
299.9972
0
VERTEX
8
CUT
10
150.0000
20
300.0000
0
VERTEX
8
CUT
10
149.0796
20
299.9972
0
VERTEX
8
CUT
10
148.1593
20
299.9887
0
VERTEX
8
CUT
10
147.2390
20
299.9746
0
VERTEX
8
CUT
10
146.3188
20
299.9548
0
VERTEX
8
CUT
10
145.3988
20
299.9294
0
VERTEX
8
CUT
10
144.4789
20
299.8984
0
VERTEX
8
CUT
10
143.5593
20
299.8617
0
VERTEX
8
CUT
10
142.6398
20
299.8193
0
VERTEX
8
CUT
10
141.7207
20
299.7713
0
VERTEX
8
CUT
10
140.8019
20
299.7177
0
VERTEX
8
CUT
10
139.8834
20
299.6585
0
VERTEX
8
CUT
10
138.9653
20
299.5936
0
VERTEX
8
CUT
10
138.0476
20
299.5230
0
VERTEX
8
CUT
10
137.1304
20
299.4469
0
VERTEX
8
CUT
10
136.2137
20
299.3651
0
VERTEX
8
CUT
10
135.2974
20
299.2777
0
VERTEX
8
CUT
10
134.3818
20
299.1847
0
VERTEX
8
CUT
10
133.4667
20
299.0860
0
VERTEX
8
CUT
10
132.5522
20
298.9818
0
VERTEX
8
CUT
10
131.6384
20
298.8719
0
VERTEX
8
CUT
10
130.7253
20
298.7565
0
VERTEX
8
CUT
10
129.8129
20
298.6354
0
VERTEX
8
CUT
10
128.9013
20
298.5087
0
VERTEX
8
CUT
10
127.9904
20
298.3765
0
VERTEX
8
CUT
10
127.0804
20
298.2386
0
VERTEX
8
CUT
10
126.1713
20
298.0952
0
VERTEX
8
CUT
10
125.2630
20
297.9462
0
VERTEX
8
CUT
10
124.3557
20
297.7916
0
VERTEX
8
CUT
10
123.4494
20
297.6315
0
VERTEX
8
CUT
10
122.5440
20
297.4658
0
VERTEX
8
CUT
10
121.6397
20
297.2946
0
VERTEX
8
CUT
10
120.7365
20
297.1178
0
VERTEX
8
CUT
10
119.8343
20
296.9355
0
VERTEX
8
CUT
10
118.9333
20
296.7476
0
VERTEX
8
CUT
10
118.0335
20
296.5542
0
VERTEX
8
CUT
10
117.1348
20
296.3553
0
VERTEX
8
CUT
10
116.2374
20
296.1509
0
VERTEX
8
CUT
10
115.3413
20
295.9410
0
VERTEX
8
CUT
10
114.4465
20
295.7256
0
VERTEX
8
CUT
10
113.5530
20
295.5047
0
VERTEX
8
CUT
10
112.6609
20
295.2783
0
VERTEX
8
CUT
10
111.7702
20
295.0465
0
VERTEX
8
CUT
10
110.8809
20
294.8092
0
VERTEX
8
CUT
10
109.9931
20
294.5664
0
VERTEX
8
CUT
10
109.1068
20
294.3182
0
VERTEX
8
CUT
10
108.2220
20
294.0646
0
VERTEX
8
CUT
10
107.3389
20
293.8055
0
VERTEX
8
CUT
10
106.4573
20
293.5411
0
VERTEX
8
CUT
10
105.5774
20
293.2712
0
VERTEX
8
CUT
10
104.6991
20
292.9959
0
VERTEX
8
CUT
10
103.8226
20
292.7153
0
VERTEX
8
CUT
10
102.9477
20
292.4292
0
VERTEX
8
CUT
10
102.0747
20
292.1378
0
VERTEX
8
CUT
10
101.2035
20
291.8411
0
VERTEX
8
CUT
10
100.3341
20
291.5390
0
VERTEX
8
CUT
10
99.4665
20
291.2316
0
VERTEX
8
CUT
10
98.6009
20
290.9189
0
VERTEX
8
CUT
10
97.7372
20
290.6009
0
VERTEX
8
CUT
10
96.8755
20
290.2775
0
VERTEX
8
CUT
10
96.0157
20
289.9489
0
VERTEX
8
CUT
10
95.1581
20
289.6150
0
VERTEX
8
CUT
10
94.3024
20
289.2759
0
VERTEX
8
CUT
10
93.4489
20
288.9315
0
VERTEX
8
CUT
10
92.5975
20
288.5819
0
VERTEX
8
CUT
10
91.7482
20
288.2271
0
VERTEX
8
CUT
10
90.9012
20
287.8671
0
VERTEX
8
CUT
10
90.0564
20
287.5019
0
VERTEX
8
CUT
10
89.2138
20
287.1315
0
VERTEX
8
CUT
10
88.3735
20
286.7559
0
VERTEX
8
CUT
10
87.5356
20
286.3752
0
VERTEX
8
CUT
10
86.7000
20
285.9894
0
VERTEX
8
CUT
10
85.8667
20
285.5984
0
VERTEX
8
CUT
10
85.0359
20
285.2023
0
VERTEX
8
CUT
10
84.2076
20
284.8012
0
VERTEX
8
CUT
10
83.3817
20
284.3949
0
VERTEX
8
CUT
10
82.5583
20
283.9836
0
VERTEX
8
CUT
10
81.7375
20
283.5673
0
VERTEX
8
CUT
10
80.9192
20
283.1459
0
VERTEX
8
CUT
10
80.1035
20
282.7196
0
VERTEX
8
CUT
10
79.2905
20
282.2882
0
VERTEX
8
CUT
10
78.4801
20
281.8518
0
VERTEX
8
CUT
10
77.6724
20
281.4105
0
VERTEX
8
CUT
10
76.8675
20
280.9642
0
VERTEX
8
CUT
10
76.0653
20
280.5130
0
VERTEX
8
CUT
10
75.2658
20
280.0569
0
VERTEX
8
CUT
10
74.4692
20
279.5959
0
VERTEX
8
CUT
10
73.6755
20
279.1300
0
VERTEX
8
CUT
10
72.8846
20
278.6593
0
VERTEX
8
CUT
10
72.0966
20
278.1837
0
VERTEX
8
CUT
10
71.3115
20
277.7033
0
VERTEX
8
CUT
10
70.5295
20
277.2181
0
VERTEX
8
CUT
10
69.7504
20
276.7280
0
VERTEX
8
CUT
10
68.9743
20
276.2332
0
VERTEX
8
CUT
10
68.2013
20
275.7337
0
VERTEX
8
CUT
10
67.4313
20
275.2294
0
VERTEX
8
CUT
10
66.6645
20
274.7204
0
VERTEX
8
CUT
10
65.9008
20
274.2068
0
VERTEX
8
CUT
10
65.1402
20
273.6884
0
VERTEX
8
CUT
10
64.3829
20
273.1654
0
VERTEX
8
CUT
10
63.6288
20
272.6377
0
VERTEX
8
CUT
10
62.8779
20
272.1054
0
VERTEX
8
CUT
10
62.1303
20
271.5686
0
VERTEX
8
CUT
10
61.3860
20
271.0271
0
VERTEX
8
CUT
10
60.6451
20
270.4811
0
VERTEX
8
CUT
10
59.9075
20
269.9306
0
VERTEX
8
CUT
10
59.1733
20
269.3755
0
VERTEX
8
CUT
10
58.4426
20
268.8160
0
VERTEX
8
CUT
10
57.7153
20
268.2520
0
VERTEX
8
CUT
10
56.9914
20
267.6835
0
VERTEX
8
CUT
10
56.2711
20
267.1106
0
VERTEX
8
CUT
10
55.5543
20
266.5333
0
VERTEX
8
CUT
10
54.8410
20
265.9516
0
VERTEX
8
CUT
10
54.1313
20
265.3655
0
VERTEX
8
CUT
10
53.4253
20
264.7751
0
VERTEX
8
CUT
10
52.7228
20
264.1804
0
VERTEX
8
CUT
10
52.0241
20
263.5813
0
VERTEX
8
CUT
10
51.3290
20
262.9780
0
VERTEX
8
CUT
10
50.6376
20
262.3705
0
VERTEX
8
CUT
10
49.9500
20
261.7587
0
VERTEX
8
CUT
10
49.2662
20
261.1427
0
VERTEX
8
CUT
10
48.5861
20
260.5225
0
VERTEX
8
CUT
10
47.9099
20
259.8981
0
VERTEX
8
CUT
10
47.2374
20
259.2697
0
VERTEX
8
CUT
10
46.5689
20
258.6371
0
VERTEX
8
CUT
10
45.9043
20
258.0004
0
VERTEX
8
CUT
10
45.2436
20
257.3596
0
VERTEX
8
CUT
10
44.5868
20
256.7148
0
VERTEX
8
CUT
10
43.9340
20
256.0660
0
VERTEX
8
CUT
10
43.2852
20
255.4132
0
VERTEX
8
CUT
10
42.6404
20
254.7564
0
VERTEX
8
CUT
10
41.9996
20
254.0957
0
VERTEX
8
CUT
10
41.3629
20
253.4311
0
VERTEX
8
CUT
10
40.7303
20
252.7626
0
VERTEX
8
CUT
10
40.1019
20
252.0901
0
VERTEX
8
CUT
10
39.4775
20
251.4139
0
VERTEX
8
CUT
10
38.8573
20
250.7338
0
VERTEX
8
CUT
10
38.2413
20
250.0500
0
VERTEX
8
CUT
10
37.6295
20
249.3624
0
VERTEX
8
CUT
10
37.0220
20
248.6710
0
VERTEX
8
CUT
10
36.4187
20
247.9759
0
VERTEX
8
CUT
10
35.8196
20
247.2772
0
VERTEX
8
CUT
10
35.2249
20
246.5747
0
VERTEX
8
CUT
10
34.6345
20
245.8687
0
VERTEX
8
CUT
10
34.0484
20
245.1590
0
VERTEX
8
CUT
10
33.4667
20
244.4457
0
VERTEX
8
CUT
10
32.8894
20
243.7289
0
VERTEX
8
CUT
10
32.3165
20
243.0086
0
VERTEX
8
CUT
10
31.7480
20
242.2847
0
VERTEX
8
CUT
10
31.1840
20
241.5574
0
VERTEX
8
CUT
10
30.6245
20
240.8267
0
VERTEX
8
CUT
10
30.0694
20
240.0925
0
VERTEX
8
CUT
10
29.5189
20
239.3549
0
VERTEX
8
CUT
10
28.9729
20
238.6140
0
VERTEX
8
CUT
10
28.4314
20
237.8697
0
VERTEX
8
CUT
10
27.8946
20
237.1221
0
VERTEX
8
CUT
10
27.3623
20
236.3712
0
VERTEX
8
CUT
10
26.8346
20
235.6171
0
VERTEX
8
CUT
10
26.3116
20
234.8598
0
VERTEX
8
CUT
10
25.7932
20
234.0992
0
VERTEX
8
CUT
10
25.2796
20
233.3355
0
VERTEX
8
CUT
10
24.7706
20
232.5687
0
VERTEX
8
CUT
10
24.2663
20
231.7987
0
VERTEX
8
CUT
10
23.7668
20
231.0257
0
VERTEX
8
CUT
10
23.2720
20
230.2496
0
VERTEX
8
CUT
10
22.7819
20
229.4705
0
VERTEX
8
CUT
10
22.2967
20
228.6885
0
VERTEX
8
CUT
10
21.8163
20
227.9034
0
VERTEX
8
CUT
10
21.3407
20
227.1154
0
VERTEX
8
CUT
10
20.8700
20
226.3245
0
VERTEX
8
CUT
10
20.4041
20
225.5308
0
VERTEX
8
CUT
10
19.9431
20
224.7342
0
VERTEX
8
CUT
10
19.4870
20
223.9347
0
VERTEX
8
CUT
10
19.0358
20
223.1325
0
VERTEX
8
CUT
10
18.5895
20
222.3276
0
VERTEX
8
CUT
10
18.1482
20
221.5199
0
VERTEX
8
CUT
10
17.7118
20
220.7095
0
VERTEX
8
CUT
10
17.2804
20
219.8965
0
VERTEX
8
CUT
10
16.8541
20
219.0808
0
VERTEX
8
CUT
10
16.4327
20
218.2625
0
VERTEX
8
CUT
10
16.0164
20
217.4417
0
VERTEX
8
CUT
10
15.6051
20
216.6183
0
VERTEX
8
CUT
10
15.1988
20
215.7924
0
VERTEX
8
CUT
10
14.7977
20
214.9641
0
VERTEX
8
CUT
10
14.4016
20
214.1333
0
VERTEX
8
CUT
10
14.0106
20
213.3000
0
VERTEX
8
CUT
10
13.6248
20
212.4644
0
VERTEX
8
CUT
10
13.2441
20
211.6265
0
VERTEX
8
CUT
10
12.8685
20
210.7862
0
VERTEX
8
CUT
10
12.4981
20
209.9436
0
VERTEX
8
CUT
10
12.1329
20
209.0988
0
VERTEX
8
CUT
10
11.7729
20
208.2518
0
VERTEX
8
CUT
10
11.4181
20
207.4025
0
VERTEX
8
CUT
10
11.0685
20
206.5511
0
VERTEX
8
CUT
10
10.7241
20
205.6976
0
VERTEX
8
CUT
10
10.3850
20
204.8419
0
VERTEX
8
CUT
10
10.0511
20
203.9843
0
VERTEX
8
CUT
10
9.7225
20
203.1245
0
VERTEX
8
CUT
10
9.3991
20
202.2628
0
VERTEX
8
CUT
10
9.0811
20
201.3991
0
VERTEX
8
CUT
10
8.7684
20
200.5335
0
VERTEX
8
CUT
10
8.4610
20
199.6659
0
VERTEX
8
CUT
10
8.1589
20
198.7965
0
VERTEX
8
CUT
10
7.8622
20
197.9253
0
VERTEX
8
CUT
10
7.5708
20
197.0523
0
VERTEX
8
CUT
10
7.2847
20
196.1774
0
VERTEX
8
CUT
10
7.0041
20
195.3009
0
VERTEX
8
CUT
10
6.7288
20
194.4226
0
VERTEX
8
CUT
10
6.4589
20
193.5427
0
VERTEX
8
CUT
10
6.1945
20
192.6611
0
VERTEX
8
CUT
10
5.9354
20
191.7780
0
VERTEX
8
CUT
10
5.6818
20
190.8932
0
VERTEX
8
CUT
10
5.4336
20
190.0069
0
VERTEX
8
CUT
10
5.1908
20
189.1191
0
VERTEX
8
CUT
10
4.9535
20
188.2298
0
VERTEX
8
CUT
10
4.7217
20
187.3391
0
VERTEX
8
CUT
10
4.4953
20
186.4470
0
VERTEX
8
CUT
10
4.2744
20
185.5535
0
VERTEX
8
CUT
10
4.0590
20
184.6587
0
VERTEX
8
CUT
10
3.8491
20
183.7626
0
VERTEX
8
CUT
10
3.6447
20
182.8652
0
VERTEX
8
CUT
10
3.4458
20
181.9665
0
VERTEX
8
CUT
10
3.2524
20
181.0667
0
VERTEX
8
CUT
10
3.0645
20
180.1657
0
VERTEX
8
CUT
10
2.8822
20
179.2635
0
VERTEX
8
CUT
10
2.7054
20
178.3603
0
VERTEX
8
CUT
10
2.5342
20
177.4560
0
VERTEX
8
CUT
10
2.3685
20
176.5506
0
VERTEX
8
CUT
10
2.2084
20
175.6443
0
VERTEX
8
CUT
10
2.0538
20
174.7370
0
VERTEX
8
CUT
10
1.9048
20
173.8287
0
VERTEX
8
CUT
10
1.7614
20
172.9196
0
VERTEX
8
CUT
10
1.6235
20
172.0096
0
VERTEX
8
CUT
10
1.4913
20
171.0987
0
VERTEX
8
CUT
10
1.3646
20
170.1871
0
VERTEX
8
CUT
10
1.2435
20
169.2747
0
VERTEX
8
CUT
10
1.1281
20
168.3616
0
VERTEX
8
CUT
10
1.0182
20
167.4478
0
VERTEX
8
CUT
10
0.9140
20
166.5333
0
VERTEX
8
CUT
10
0.8153
20
165.6182
0
VERTEX
8
CUT
10
0.7223
20
164.7026
0
VERTEX
8
CUT
10
0.6349
20
163.7863
0
VERTEX
8
CUT
10
0.5531
20
162.8696
0
VERTEX
8
CUT
10
0.4770
20
161.9524
0
VERTEX
8
CUT
10
0.4064
20
161.0347
0
VERTEX
8
CUT
10
0.3415
20
160.1166
0
VERTEX
8
CUT
10
0.2823
20
159.1981
0
VERTEX
8
CUT
10
0.2287
20
158.2793
0
VERTEX
8
CUT
10
0.1807
20
157.3602
0
VERTEX
8
CUT
10
0.1383
20
156.4407
0
VERTEX
8
CUT
10
0.1016
20
155.5211
0
VERTEX
8
CUT
10
0.0706
20
154.6012
0
VERTEX
8
CUT
10
0.0452
20
153.6812
0
VERTEX
8
CUT
10
0.0254
20
152.7610
0
VERTEX
8
CUT
10
0.0113
20
151.8407
0
VERTEX
8
CUT
10
0.0028
20
150.9204
0
VERTEX
8
CUT
10
0.0000
20
150.0000
0
VERTEX
8
CUT
10
0.0028
20
149.0796
0
VERTEX
8
CUT
10
0.0113
20
148.1593
0
VERTEX
8
CUT
10
0.0254
20
147.2390
0
VERTEX
8
CUT
10
0.0452
20
146.3188
0
VERTEX
8
CUT
10
0.0706
20
145.3988
0
VERTEX
8
CUT
10
0.1016
20
144.4789
0
VERTEX
8
CUT
10
0.1383
20
143.5593
0
VERTEX
8
CUT
10
0.1807
20
142.6398
0
VERTEX
8
CUT
10
0.2287
20
141.7207
0
VERTEX
8
CUT
10
0.2823
20
140.8019
0
VERTEX
8
CUT
10
0.3415
20
139.8834
0
VERTEX
8
CUT
10
0.4064
20
138.9653
0
VERTEX
8
CUT
10
0.4770
20
138.0476
0
VERTEX
8
CUT
10
0.5531
20
137.1304
0
VERTEX
8
CUT
10
0.6349
20
136.2137
0
VERTEX
8
CUT
10
0.7223
20
135.2974
0
VERTEX
8
CUT
10
0.8153
20
134.3818
0
VERTEX
8
CUT
10
0.9140
20
133.4667
0
VERTEX
8
CUT
10
1.0182
20
132.5522
0
VERTEX
8
CUT
10
1.1281
20
131.6384
0
VERTEX
8
CUT
10
1.2435
20
130.7253
0
VERTEX
8
CUT
10
1.3646
20
129.8129
0
VERTEX
8
CUT
10
1.4913
20
128.9013
0
VERTEX
8
CUT
10
1.6235
20
127.9904
0
VERTEX
8
CUT
10
1.7614
20
127.0804
0
VERTEX
8
CUT
10
1.9048
20
126.1713
0
VERTEX
8
CUT
10
2.0538
20
125.2630
0
VERTEX
8
CUT
10
2.2084
20
124.3557
0
VERTEX
8
CUT
10
2.3685
20
123.4494
0
VERTEX
8
CUT
10
2.5342
20
122.5440
0
VERTEX
8
CUT
10
2.7054
20
121.6397
0
VERTEX
8
CUT
10
2.8822
20
120.7365
0
VERTEX
8
CUT
10
3.0645
20
119.8343
0
VERTEX
8
CUT
10
3.2524
20
118.9333
0
VERTEX
8
CUT
10
3.4458
20
118.0335
0
VERTEX
8
CUT
10
3.6447
20
117.1348
0
VERTEX
8
CUT
10
3.8491
20
116.2374
0
VERTEX
8
CUT
10
4.0590
20
115.3413
0
VERTEX
8
CUT
10
4.2744
20
114.4465
0
VERTEX
8
CUT
10
4.4953
20
113.5530
0
VERTEX
8
CUT
10
4.7217
20
112.6609
0
VERTEX
8
CUT
10
4.9535
20
111.7702
0
VERTEX
8
CUT
10
5.1908
20
110.8809
0
VERTEX
8
CUT
10
5.4336
20
109.9931
0
VERTEX
8
CUT
10
5.6818
20
109.1068
0
VERTEX
8
CUT
10
5.9354
20
108.2220
0
VERTEX
8
CUT
10
6.1945
20
107.3389
0
VERTEX
8
CUT
10
6.4589
20
106.4573
0
VERTEX
8
CUT
10
6.7288
20
105.5774
0
VERTEX
8
CUT
10
7.0041
20
104.6991
0
VERTEX
8
CUT
10
7.2847
20
103.8226
0
VERTEX
8
CUT
10
7.5708
20
102.9477
0
VERTEX
8
CUT
10
7.8622
20
102.0747
0
VERTEX
8
CUT
10
8.1589
20
101.2035
0
VERTEX
8
CUT
10
8.4610
20
100.3341
0
VERTEX
8
CUT
10
8.7684
20
99.4665
0
VERTEX
8
CUT
10
9.0811
20
98.6009
0
VERTEX
8
CUT
10
9.3991
20
97.7372
0
VERTEX
8
CUT
10
9.7225
20
96.8755
0
VERTEX
8
CUT
10
10.0511
20
96.0157
0
VERTEX
8
CUT
10
10.3850
20
95.1581
0
VERTEX
8
CUT
10
10.7241
20
94.3024
0
VERTEX
8
CUT
10
11.0685
20
93.4489
0
VERTEX
8
CUT
10
11.4181
20
92.5975
0
VERTEX
8
CUT
10
11.7729
20
91.7482
0
VERTEX
8
CUT
10
12.1329
20
90.9012
0
VERTEX
8
CUT
10
12.4981
20
90.0564
0
VERTEX
8
CUT
10
12.8685
20
89.2138
0
VERTEX
8
CUT
10
13.2441
20
88.3735
0
VERTEX
8
CUT
10
13.6248
20
87.5356
0
VERTEX
8
CUT
10
14.0106
20
86.7000
0
VERTEX
8
CUT
10
14.4016
20
85.8667
0
VERTEX
8
CUT
10
14.7977
20
85.0359
0
VERTEX
8
CUT
10
15.1988
20
84.2076
0
VERTEX
8
CUT
10
15.6051
20
83.3817
0
VERTEX
8
CUT
10
16.0164
20
82.5583
0
VERTEX
8
CUT
10
16.4327
20
81.7375
0
VERTEX
8
CUT
10
16.8541
20
80.9192
0
VERTEX
8
CUT
10
17.2804
20
80.1035
0
VERTEX
8
CUT
10
17.7118
20
79.2905
0
VERTEX
8
CUT
10
18.1482
20
78.4801
0
VERTEX
8
CUT
10
18.5895
20
77.6724
0
VERTEX
8
CUT
10
19.0358
20
76.8675
0
VERTEX
8
CUT
10
19.4870
20
76.0653
0
VERTEX
8
CUT
10
19.9431
20
75.2658
0
VERTEX
8
CUT
10
20.4041
20
74.4692
0
VERTEX
8
CUT
10
20.8700
20
73.6755
0
VERTEX
8
CUT
10
21.3407
20
72.8846
0
VERTEX
8
CUT
10
21.8163
20
72.0966
0
VERTEX
8
CUT
10
22.2967
20
71.3115
0
VERTEX
8
CUT
10
22.7819
20
70.5295
0
VERTEX
8
CUT
10
23.2720
20
69.7504
0
VERTEX
8
CUT
10
23.7668
20
68.9743
0
VERTEX
8
CUT
10
24.2663
20
68.2013
0
VERTEX
8
CUT
10
24.7706
20
67.4313
0
VERTEX
8
CUT
10
25.2796
20
66.6645
0
VERTEX
8
CUT
10
25.7932
20
65.9008
0
VERTEX
8
CUT
10
26.3116
20
65.1402
0
VERTEX
8
CUT
10
26.8346
20
64.3829
0
VERTEX
8
CUT
10
27.3623
20
63.6288
0
VERTEX
8
CUT
10
27.8946
20
62.8779
0
VERTEX
8
CUT
10
28.4314
20
62.1303
0
VERTEX
8
CUT
10
28.9729
20
61.3860
0
VERTEX
8
CUT
10
29.5189
20
60.6451
0
VERTEX
8
CUT
10
30.0694
20
59.9075
0
VERTEX
8
CUT
10
30.6245
20
59.1733
0
VERTEX
8
CUT
10
31.1840
20
58.4426
0
VERTEX
8
CUT
10
31.7480
20
57.7153
0
VERTEX
8
CUT
10
32.3165
20
56.9914
0
VERTEX
8
CUT
10
32.8894
20
56.2711
0
VERTEX
8
CUT
10
33.4667
20
55.5543
0
VERTEX
8
CUT
10
34.0484
20
54.8410
0
VERTEX
8
CUT
10
34.6345
20
54.1313
0
VERTEX
8
CUT
10
35.2249
20
53.4253
0
VERTEX
8
CUT
10
35.8196
20
52.7228
0
VERTEX
8
CUT
10
36.4187
20
52.0241
0
VERTEX
8
CUT
10
37.0220
20
51.3290
0
VERTEX
8
CUT
10
37.6295
20
50.6376
0
VERTEX
8
CUT
10
38.2413
20
49.9500
0
VERTEX
8
CUT
10
38.8573
20
49.2662
0
VERTEX
8
CUT
10
39.4775
20
48.5861
0
VERTEX
8
CUT
10
40.1019
20
47.9099
0
VERTEX
8
CUT
10
40.7303
20
47.2374
0
VERTEX
8
CUT
10
41.3629
20
46.5689
0
VERTEX
8
CUT
10
41.9996
20
45.9043
0
VERTEX
8
CUT
10
42.6404
20
45.2436
0
VERTEX
8
CUT
10
43.2852
20
44.5868
0
VERTEX
8
CUT
10
43.9340
20
43.9340
0
VERTEX
8
CUT
10
44.5868
20
43.2852
0
VERTEX
8
CUT
10
45.2436
20
42.6404
0
VERTEX
8
CUT
10
45.9043
20
41.9996
0
VERTEX
8
CUT
10
46.5689
20
41.3629
0
VERTEX
8
CUT
10
47.2374
20
40.7303
0
VERTEX
8
CUT
10
47.9099
20
40.1019
0
VERTEX
8
CUT
10
48.5861
20
39.4775
0
VERTEX
8
CUT
10
49.2662
20
38.8573
0
VERTEX
8
CUT
10
49.9500
20
38.2413
0
VERTEX
8
CUT
10
50.6376
20
37.6295
0
VERTEX
8
CUT
10
51.3290
20
37.0220
0
VERTEX
8
CUT
10
52.0241
20
36.4187
0
VERTEX
8
CUT
10
52.7228
20
35.8196
0
VERTEX
8
CUT
10
53.4253
20
35.2249
0
VERTEX
8
CUT
10
54.1313
20
34.6345
0
VERTEX
8
CUT
10
54.8410
20
34.0484
0
VERTEX
8
CUT
10
55.5543
20
33.4667
0
VERTEX
8
CUT
10
56.2711
20
32.8894
0
VERTEX
8
CUT
10
56.9914
20
32.3165
0
VERTEX
8
CUT
10
57.7153
20
31.7480
0
VERTEX
8
CUT
10
58.4426
20
31.1840
0
VERTEX
8
CUT
10
59.1733
20
30.6245
0
VERTEX
8
CUT
10
59.9075
20
30.0694
0
VERTEX
8
CUT
10
60.6451
20
29.5189
0
VERTEX
8
CUT
10
61.3860
20
28.9729
0
VERTEX
8
CUT
10
62.1303
20
28.4314
0
VERTEX
8
CUT
10
62.8779
20
27.8946
0
VERTEX
8
CUT
10
63.6288
20
27.3623
0
VERTEX
8
CUT
10
64.3829
20
26.8346
0
VERTEX
8
CUT
10
65.1402
20
26.3116
0
VERTEX
8
CUT
10
65.9008
20
25.7932
0
VERTEX
8
CUT
10
66.6645
20
25.2796
0
VERTEX
8
CUT
10
67.4313
20
24.7706
0
VERTEX
8
CUT
10
68.2013
20
24.2663
0
VERTEX
8
CUT
10
68.9743
20
23.7668
0
VERTEX
8
CUT
10
69.7504
20
23.2720
0
VERTEX
8
CUT
10
70.5295
20
22.7819
0
VERTEX
8
CUT
10
71.3115
20
22.2967
0
VERTEX
8
CUT
10
72.0966
20
21.8163
0
VERTEX
8
CUT
10
72.8846
20
21.3407
0
VERTEX
8
CUT
10
73.6755
20
20.8700
0
VERTEX
8
CUT
10
74.4692
20
20.4041
0
VERTEX
8
CUT
10
75.2658
20
19.9431
0
VERTEX
8
CUT
10
76.0653
20
19.4870
0
VERTEX
8
CUT
10
76.8675
20
19.0358
0
VERTEX
8
CUT
10
77.6724
20
18.5895
0
VERTEX
8
CUT
10
78.4801
20
18.1482
0
VERTEX
8
CUT
10
79.2905
20
17.7118
0
VERTEX
8
CUT
10
80.1035
20
17.2804
0
VERTEX
8
CUT
10
80.9192
20
16.8541
0
VERTEX
8
CUT
10
81.7375
20
16.4327
0
VERTEX
8
CUT
10
82.5583
20
16.0164
0
VERTEX
8
CUT
10
83.3817
20
15.6051
0
VERTEX
8
CUT
10
84.2076
20
15.1988
0
VERTEX
8
CUT
10
85.0359
20
14.7977
0
VERTEX
8
CUT
10
85.8667
20
14.4016
0
VERTEX
8
CUT
10
86.7000
20
14.0106
0
VERTEX
8
CUT
10
87.5356
20
13.6248
0
VERTEX
8
CUT
10
88.3735
20
13.2441
0
VERTEX
8
CUT
10
89.2138
20
12.8685
0
VERTEX
8
CUT
10
90.0564
20
12.4981
0
VERTEX
8
CUT
10
90.9012
20
12.1329
0
VERTEX
8
CUT
10
91.7482
20
11.7729
0
VERTEX
8
CUT
10
92.5975
20
11.4181
0
VERTEX
8
CUT
10
93.4489
20
11.0685
0
VERTEX
8
CUT
10
94.3024
20
10.7241
0
VERTEX
8
CUT
10
95.1581
20
10.3850
0
VERTEX
8
CUT
10
96.0157
20
10.0511
0
VERTEX
8
CUT
10
96.8755
20
9.7225
0
VERTEX
8
CUT
10
97.7372
20
9.3991
0
VERTEX
8
CUT
10
98.6009
20
9.0811
0
VERTEX
8
CUT
10
99.4665
20
8.7684
0
VERTEX
8
CUT
10
100.3341
20
8.4610
0
VERTEX
8
CUT
10
101.2035
20
8.1589
0
VERTEX
8
CUT
10
102.0747
20
7.8622
0
VERTEX
8
CUT
10
102.9477
20
7.5708
0
VERTEX
8
CUT
10
103.8226
20
7.2847
0
VERTEX
8
CUT
10
104.6991
20
7.0041
0
VERTEX
8
CUT
10
105.5774
20
6.7288
0
VERTEX
8
CUT
10
106.4573
20
6.4589
0
VERTEX
8
CUT
10
107.3389
20
6.1945
0
VERTEX
8
CUT
10
108.2220
20
5.9354
0
VERTEX
8
CUT
10
109.1068
20
5.6818
0
VERTEX
8
CUT
10
109.9931
20
5.4336
0
VERTEX
8
CUT
10
110.8809
20
5.1908
0
VERTEX
8
CUT
10
111.7702
20
4.9535
0
VERTEX
8
CUT
10
112.6609
20
4.7217
0
VERTEX
8
CUT
10
113.5530
20
4.4953
0
VERTEX
8
CUT
10
114.4465
20
4.2744
0
VERTEX
8
CUT
10
115.3413
20
4.0590
0
VERTEX
8
CUT
10
116.2374
20
3.8491
0
VERTEX
8
CUT
10
117.1348
20
3.6447
0
VERTEX
8
CUT
10
118.0335
20
3.4458
0
VERTEX
8
CUT
10
118.9333
20
3.2524
0
VERTEX
8
CUT
10
119.8343
20
3.0645
0
VERTEX
8
CUT
10
120.7365
20
2.8822
0
VERTEX
8
CUT
10
121.6397
20
2.7054
0
VERTEX
8
CUT
10
122.5440
20
2.5342
0
VERTEX
8
CUT
10
123.4494
20
2.3685
0
VERTEX
8
CUT
10
124.3557
20
2.2084
0
VERTEX
8
CUT
10
125.2630
20
2.0538
0
VERTEX
8
CUT
10
126.1713
20
1.9048
0
VERTEX
8
CUT
10
127.0804
20
1.7614
0
VERTEX
8
CUT
10
127.9904
20
1.6235
0
VERTEX
8
CUT
10
128.9013
20
1.4913
0
VERTEX
8
CUT
10
129.8129
20
1.3646
0
VERTEX
8
CUT
10
130.7253
20
1.2435
0
VERTEX
8
CUT
10
131.6384
20
1.1281
0
VERTEX
8
CUT
10
132.5522
20
1.0182
0
VERTEX
8
CUT
10
133.4667
20
0.9140
0
VERTEX
8
CUT
10
134.3818
20
0.8153
0
VERTEX
8
CUT
10
135.2974
20
0.7223
0
VERTEX
8
CUT
10
136.2137
20
0.6349
0
VERTEX
8
CUT
10
137.1304
20
0.5531
0
VERTEX
8
CUT
10
138.0476
20
0.4770
0
VERTEX
8
CUT
10
138.9653
20
0.4064
0
VERTEX
8
CUT
10
139.8834
20
0.3415
0
VERTEX
8
CUT
10
140.8019
20
0.2823
0
VERTEX
8
CUT
10
141.7207
20
0.2287
0
VERTEX
8
CUT
10
142.6398
20
0.1807
0
VERTEX
8
CUT
10
143.5593
20
0.1383
0
VERTEX
8
CUT
10
144.4789
20
0.1016
0
VERTEX
8
CUT
10
145.3988
20
0.0706
0
VERTEX
8
CUT
10
146.3188
20
0.0452
0
VERTEX
8
CUT
10
147.2390
20
0.0254
0
VERTEX
8
CUT
10
148.1593
20
0.0113
0
VERTEX
8
CUT
10
149.0796
20
0.0028
0
VERTEX
8
CUT
10
150.0000
20
0.0000
0
VERTEX
8
CUT
10
150.9204
20
0.0028
0
VERTEX
8
CUT
10
151.8407
20
0.0113
0
VERTEX
8
CUT
10
152.7610
20
0.0254
0
VERTEX
8
CUT
10
153.6812
20
0.0452
0
VERTEX
8
CUT
10
154.6012
20
0.0706
0
VERTEX
8
CUT
10
155.5211
20
0.1016
0
VERTEX
8
CUT
10
156.4407
20
0.1383
0
VERTEX
8
CUT
10
157.3602
20
0.1807
0
VERTEX
8
CUT
10
158.2793
20
0.2287
0
VERTEX
8
CUT
10
159.1981
20
0.2823
0
VERTEX
8
CUT
10
160.1166
20
0.3415
0
VERTEX
8
CUT
10
161.0347
20
0.4064
0
VERTEX
8
CUT
10
161.9524
20
0.4770
0
VERTEX
8
CUT
10
162.8696
20
0.5531
0
VERTEX
8
CUT
10
163.7863
20
0.6349
0
VERTEX
8
CUT
10
164.7026
20
0.7223
0
VERTEX
8
CUT
10
165.6182
20
0.8153
0
VERTEX
8
CUT
10
166.5333
20
0.9140
0
VERTEX
8
CUT
10
167.4478
20
1.0182
0
VERTEX
8
CUT
10
168.3616
20
1.1281
0
VERTEX
8
CUT
10
169.2747
20
1.2435
0
VERTEX
8
CUT
10
170.1871
20
1.3646
0
VERTEX
8
CUT
10
171.0987
20
1.4913
0
VERTEX
8
CUT
10
172.0096
20
1.6235
0
VERTEX
8
CUT
10
172.9196
20
1.7614
0
VERTEX
8
CUT
10
173.8287
20
1.9048
0
VERTEX
8
CUT
10
174.7370
20
2.0538
0
VERTEX
8
CUT
10
175.6443
20
2.2084
0
VERTEX
8
CUT
10
176.5506
20
2.3685
0
VERTEX
8
CUT
10
177.4560
20
2.5342
0
VERTEX
8
CUT
10
178.3603
20
2.7054
0
VERTEX
8
CUT
10
179.2635
20
2.8822
0
VERTEX
8
CUT
10
180.1657
20
3.0645
0
VERTEX
8
CUT
10
181.0667
20
3.2524
0
VERTEX
8
CUT
10
181.9665
20
3.4458
0
VERTEX
8
CUT
10
182.8652
20
3.6447
0
VERTEX
8
CUT
10
183.7626
20
3.8491
0
VERTEX
8
CUT
10
184.6587
20
4.0590
0
VERTEX
8
CUT
10
185.5535
20
4.2744
0
VERTEX
8
CUT
10
186.4470
20
4.4953
0
VERTEX
8
CUT
10
187.3391
20
4.7217
0
VERTEX
8
CUT
10
188.2298
20
4.9535
0
VERTEX
8
CUT
10
189.1191
20
5.1908
0
VERTEX
8
CUT
10
190.0069
20
5.4336
0
VERTEX
8
CUT
10
190.8932
20
5.6818
0
VERTEX
8
CUT
10
191.7780
20
5.9354
0
VERTEX
8
CUT
10
192.6611
20
6.1945
0
VERTEX
8
CUT
10
193.5427
20
6.4589
0
VERTEX
8
CUT
10
194.4226
20
6.7288
0
VERTEX
8
CUT
10
195.3009
20
7.0041
0
VERTEX
8
CUT
10
196.1774
20
7.2847
0
VERTEX
8
CUT
10
197.0523
20
7.5708
0
VERTEX
8
CUT
10
197.9253
20
7.8622
0
VERTEX
8
CUT
10
198.7965
20
8.1589
0
VERTEX
8
CUT
10
199.6659
20
8.4610
0
VERTEX
8
CUT
10
200.5335
20
8.7684
0
VERTEX
8
CUT
10
201.3991
20
9.0811
0
VERTEX
8
CUT
10
202.2628
20
9.3991
0
VERTEX
8
CUT
10
203.1245
20
9.7225
0
VERTEX
8
CUT
10
203.9843
20
10.0511
0
VERTEX
8
CUT
10
204.8419
20
10.3850
0
VERTEX
8
CUT
10
205.6976
20
10.7241
0
VERTEX
8
CUT
10
206.5511
20
11.0685
0
VERTEX
8
CUT
10
207.4025
20
11.4181
0
VERTEX
8
CUT
10
208.2518
20
11.7729
0
VERTEX
8
CUT
10
209.0988
20
12.1329
0
VERTEX
8
CUT
10
209.9436
20
12.4981
0
VERTEX
8
CUT
10
210.7862
20
12.8685
0
VERTEX
8
CUT
10
211.6265
20
13.2441
0
VERTEX
8
CUT
10
212.4644
20
13.6248
0
VERTEX
8
CUT
10
213.3000
20
14.0106
0
VERTEX
8
CUT
10
214.1333
20
14.4016
0
VERTEX
8
CUT
10
214.9641
20
14.7977
0
VERTEX
8
CUT
10
215.7924
20
15.1988
0
VERTEX
8
CUT
10
216.6183
20
15.6051
0
VERTEX
8
CUT
10
217.4417
20
16.0164
0
VERTEX
8
CUT
10
218.2625
20
16.4327
0
VERTEX
8
CUT
10
219.0808
20
16.8541
0
VERTEX
8
CUT
10
219.8965
20
17.2804
0
VERTEX
8
CUT
10
220.7095
20
17.7118
0
VERTEX
8
CUT
10
221.5199
20
18.1482
0
VERTEX
8
CUT
10
222.3276
20
18.5895
0
VERTEX
8
CUT
10
223.1325
20
19.0358
0
VERTEX
8
CUT
10
223.9347
20
19.4870
0
VERTEX
8
CUT
10
224.7342
20
19.9431
0
VERTEX
8
CUT
10
225.5308
20
20.4041
0
VERTEX
8
CUT
10
226.3245
20
20.8700
0
VERTEX
8
CUT
10
227.1154
20
21.3407
0
VERTEX
8
CUT
10
227.9034
20
21.8163
0
VERTEX
8
CUT
10
228.6885
20
22.2967
0
VERTEX
8
CUT
10
229.4705
20
22.7819
0
VERTEX
8
CUT
10
230.2496
20
23.2720
0
VERTEX
8
CUT
10
231.0257
20
23.7668
0
VERTEX
8
CUT
10
231.7987
20
24.2663
0
VERTEX
8
CUT
10
232.5687
20
24.7706
0
VERTEX
8
CUT
10
233.3355
20
25.2796
0
VERTEX
8
CUT
10
234.0992
20
25.7932
0
VERTEX
8
CUT
10
234.8598
20
26.3116
0
VERTEX
8
CUT
10
235.6171
20
26.8346
0
VERTEX
8
CUT
10
236.3712
20
27.3623
0
VERTEX
8
CUT
10
237.1221
20
27.8946
0
VERTEX
8
CUT
10
237.8697
20
28.4314
0
VERTEX
8
CUT
10
238.6140
20
28.9729
0
VERTEX
8
CUT
10
239.3549
20
29.5189
0
VERTEX
8
CUT
10
240.0925
20
30.0694
0
VERTEX
8
CUT
10
240.8267
20
30.6245
0
VERTEX
8
CUT
10
241.5574
20
31.1840
0
VERTEX
8
CUT
10
242.2847
20
31.7480
0
VERTEX
8
CUT
10
243.0086
20
32.3165
0
VERTEX
8
CUT
10
243.7289
20
32.8894
0
VERTEX
8
CUT
10
244.4457
20
33.4667
0
VERTEX
8
CUT
10
245.1590
20
34.0484
0
VERTEX
8
CUT
10
245.8687
20
34.6345
0
VERTEX
8
CUT
10
246.5747
20
35.2249
0
VERTEX
8
CUT
10
247.2772
20
35.8196
0
VERTEX
8
CUT
10
247.9759
20
36.4187
0
VERTEX
8
CUT
10
248.6710
20
37.0220
0
VERTEX
8
CUT
10
249.3624
20
37.6295
0
VERTEX
8
CUT
10
250.0500
20
38.2413
0
VERTEX
8
CUT
10
250.7338
20
38.8573
0
VERTEX
8
CUT
10
251.4139
20
39.4775
0
VERTEX
8
CUT
10
252.0901
20
40.1019
0
VERTEX
8
CUT
10
252.7626
20
40.7303
0
VERTEX
8
CUT
10
253.4311
20
41.3629
0
VERTEX
8
CUT
10
254.0957
20
41.9996
0
VERTEX
8
CUT
10
254.7564
20
42.6404
0
VERTEX
8
CUT
10
255.4132
20
43.2852
0
VERTEX
8
CUT
10
256.0660
20
43.9340
0
VERTEX
8
CUT
10
256.7148
20
44.5868
0
VERTEX
8
CUT
10
257.3596
20
45.2436
0
VERTEX
8
CUT
10
258.0004
20
45.9043
0
VERTEX
8
CUT
10
258.6371
20
46.5689
0
VERTEX
8
CUT
10
259.2697
20
47.2374
0
VERTEX
8
CUT
10
259.8981
20
47.9099
0
VERTEX
8
CUT
10
260.5225
20
48.5861
0
VERTEX
8
CUT
10
261.1427
20
49.2662
0
VERTEX
8
CUT
10
261.7587
20
49.9500
0
VERTEX
8
CUT
10
262.3705
20
50.6376
0
VERTEX
8
CUT
10
262.9780
20
51.3290
0
VERTEX
8
CUT
10
263.5813
20
52.0241
0
VERTEX
8
CUT
10
264.1804
20
52.7228
0
VERTEX
8
CUT
10
264.7751
20
53.4253
0
VERTEX
8
CUT
10
265.3655
20
54.1313
0
VERTEX
8
CUT
10
265.9516
20
54.8410
0
VERTEX
8
CUT
10
266.5333
20
55.5543
0
VERTEX
8
CUT
10
267.1106
20
56.2711
0
VERTEX
8
CUT
10
267.6835
20
56.9914
0
VERTEX
8
CUT
10
268.2520
20
57.7153
0
VERTEX
8
CUT
10
268.8160
20
58.4426
0
VERTEX
8
CUT
10
269.3755
20
59.1733
0
VERTEX
8
CUT
10
269.9306
20
59.9075
0
VERTEX
8
CUT
10
270.4811
20
60.6451
0
VERTEX
8
CUT
10
271.0271
20
61.3860
0
VERTEX
8
CUT
10
271.5686
20
62.1303
0
VERTEX
8
CUT
10
272.1054
20
62.8779
0
VERTEX
8
CUT
10
272.6377
20
63.6288
0
VERTEX
8
CUT
10
273.1654
20
64.3829
0
VERTEX
8
CUT
10
273.6884
20
65.1402
0
VERTEX
8
CUT
10
274.2068
20
65.9008
0
VERTEX
8
CUT
10
274.7204
20
66.6645
0
VERTEX
8
CUT
10
275.2294
20
67.4313
0
VERTEX
8
CUT
10
275.7337
20
68.2013
0
VERTEX
8
CUT
10
276.2332
20
68.9743
0
VERTEX
8
CUT
10
276.7280
20
69.7504
0
VERTEX
8
CUT
10
277.2181
20
70.5295
0
VERTEX
8
CUT
10
277.7033
20
71.3115
0
VERTEX
8
CUT
10
278.1837
20
72.0966
0
VERTEX
8
CUT
10
278.6593
20
72.8846
0
VERTEX
8
CUT
10
279.1300
20
73.6755
0
VERTEX
8
CUT
10
279.5959
20
74.4692
0
VERTEX
8
CUT
10
280.0569
20
75.2658
0
VERTEX
8
CUT
10
280.5130
20
76.0653
0
VERTEX
8
CUT
10
280.9642
20
76.8675
0
VERTEX
8
CUT
10
281.4105
20
77.6724
0
VERTEX
8
CUT
10
281.8518
20
78.4801
0
VERTEX
8
CUT
10
282.2882
20
79.2905
0
VERTEX
8
CUT
10
282.7196
20
80.1035
0
VERTEX
8
CUT
10
283.1459
20
80.9192
0
VERTEX
8
CUT
10
283.5673
20
81.7375
0
VERTEX
8
CUT
10
283.9836
20
82.5583
0
VERTEX
8
CUT
10
284.3949
20
83.3817
0
VERTEX
8
CUT
10
284.8012
20
84.2076
0
VERTEX
8
CUT
10
285.2023
20
85.0359
0
VERTEX
8
CUT
10
285.5984
20
85.8667
0
VERTEX
8
CUT
10
285.9894
20
86.7000
0
VERTEX
8
CUT
10
286.3752
20
87.5356
0
VERTEX
8
CUT
10
286.7559
20
88.3735
0
VERTEX
8
CUT
10
287.1315
20
89.2138
0
VERTEX
8
CUT
10
287.5019
20
90.0564
0
VERTEX
8
CUT
10
287.8671
20
90.9012
0
VERTEX
8
CUT
10
288.2271
20
91.7482
0
VERTEX
8
CUT
10
288.5819
20
92.5975
0
VERTEX
8
CUT
10
288.9315
20
93.4489
0
VERTEX
8
CUT
10
289.2759
20
94.3024
0
VERTEX
8
CUT
10
289.6150
20
95.1581
0
VERTEX
8
CUT
10
289.9489
20
96.0157
0
VERTEX
8
CUT
10
290.2775
20
96.8755
0
VERTEX
8
CUT
10
290.6009
20
97.7372
0
VERTEX
8
CUT
10
290.9189
20
98.6009
0
VERTEX
8
CUT
10
291.2316
20
99.4665
0
VERTEX
8
CUT
10
291.5390
20
100.3341
0
VERTEX
8
CUT
10
291.8411
20
101.2035
0
VERTEX
8
CUT
10
292.1378
20
102.0747
0
VERTEX
8
CUT
10
292.4292
20
102.9477
0
VERTEX
8
CUT
10
292.7153
20
103.8226
0
VERTEX
8
CUT
10
292.9959
20
104.6991
0
VERTEX
8
CUT
10
293.2712
20
105.5774
0
VERTEX
8
CUT
10
293.5411
20
106.4573
0
VERTEX
8
CUT
10
293.8055
20
107.3389
0
VERTEX
8
CUT
10
294.0646
20
108.2220
0
VERTEX
8
CUT
10
294.3182
20
109.1068
0
VERTEX
8
CUT
10
294.5664
20
109.9931
0
VERTEX
8
CUT
10
294.8092
20
110.8809
0
VERTEX
8
CUT
10
295.0465
20
111.7702
0
VERTEX
8
CUT
10
295.2783
20
112.6609
0
VERTEX
8
CUT
10
295.5047
20
113.5530
0
VERTEX
8
CUT
10
295.7256
20
114.4465
0
VERTEX
8
CUT
10
295.9410
20
115.3413
0
VERTEX
8
CUT
10
296.1509
20
116.2374
0
VERTEX
8
CUT
10
296.3553
20
117.1348
0
VERTEX
8
CUT
10
296.5542
20
118.0335
0
VERTEX
8
CUT
10
296.7476
20
118.9333
0
VERTEX
8
CUT
10
296.9355
20
119.8343
0
VERTEX
8
CUT
10
297.1178
20
120.7365
0
VERTEX
8
CUT
10
297.2946
20
121.6397
0
VERTEX
8
CUT
10
297.4658
20
122.5440
0
VERTEX
8
CUT
10
297.6315
20
123.4494
0
VERTEX
8
CUT
10
297.7916
20
124.3557
0
VERTEX
8
CUT
10
297.9462
20
125.2630
0
VERTEX
8
CUT
10
298.0952
20
126.1713
0
VERTEX
8
CUT
10
298.2386
20
127.0804
0
VERTEX
8
CUT
10
298.3765
20
127.9904
0
VERTEX
8
CUT
10
298.5087
20
128.9013
0
VERTEX
8
CUT
10
298.6354
20
129.8129
0
VERTEX
8
CUT
10
298.7565
20
130.7253
0
VERTEX
8
CUT
10
298.8719
20
131.6384
0
VERTEX
8
CUT
10
298.9818
20
132.5522
0
VERTEX
8
CUT
10
299.0860
20
133.4667
0
VERTEX
8
CUT
10
299.1847
20
134.3818
0
VERTEX
8
CUT
10
299.2777
20
135.2974
0
VERTEX
8
CUT
10
299.3651
20
136.2137
0
VERTEX
8
CUT
10
299.4469
20
137.1304
0
VERTEX
8
CUT
10
299.5230
20
138.0476
0
VERTEX
8
CUT
10
299.5936
20
138.9653
0
VERTEX
8
CUT
10
299.6585
20
139.8834
0
VERTEX
8
CUT
10
299.7177
20
140.8019
0
VERTEX
8
CUT
10
299.7713
20
141.7207
0
VERTEX
8
CUT
10
299.8193
20
142.6398
0
VERTEX
8
CUT
10
299.8617
20
143.5593
0
VERTEX
8
CUT
10
299.8984
20
144.4789
0
VERTEX
8
CUT
10
299.9294
20
145.3988
0
VERTEX
8
CUT
10
299.9548
20
146.3188
0
VERTEX
8
CUT
10
299.9746
20
147.2390
0
VERTEX
8
CUT
10
299.9887
20
148.1593
0
VERTEX
8
CUT
10
299.9972
20
149.0796
0
VERTEX
8
CUT
10
300.0000
20
150.0000
0
VERTEX
8
CUT
10
299.9972
20
150.9204
0
SEQEND
0
POLYLINE
8
CUT
66
1
70
1
0
VERTEX
8
CUT
10
152.9964
20
281.8528
0
VERTEX
8
CUT
10
152.9856
20
281.7059
0
VERTEX
8
CUT
10
152.9675
20
281.5598
0
VERTEX
8
CUT
10
152.9424
20
281.4147
0
VERTEX
8
CUT
10
152.9101
20
281.2711
0
VERTEX
8
CUT
10
152.8708
20
281.1291
0
VERTEX
8
CUT
10
152.8246
20
280.9893
0
VERTEX
8
CUT
10
152.7716
20
280.8519
0
VERTEX
8
CUT
10
152.7120
20
280.7173
0
VERTEX
8
CUT
10
152.6458
20
280.5858
0
VERTEX
8
CUT
10
152.5732
20
280.4577
0
VERTEX
8
CUT
10
152.4944
20
280.3333
0
VERTEX
8
CUT
10
152.4096
20
280.2129
0
VERTEX
8
CUT
10
152.3190
20
280.0968
0
VERTEX
8
CUT
10
152.2229
20
279.9853
0
VERTEX
8
CUT
10
152.1213
20
279.8787
0
VERTEX
8
CUT
10
152.0147
20
279.7771
0
VERTEX
8
CUT
10
151.9032
20
279.6810
0
VERTEX
8
CUT
10
151.7871
20
279.5904
0
VERTEX
8
CUT
10
151.6667
20
279.5056
0
VERTEX
8
CUT
10
151.5423
20
279.4268
0
VERTEX
8
CUT
10
151.4142
20
279.3542
0
VERTEX
8
CUT
10
151.2827
20
279.2880
0
VERTEX
8
CUT
10
151.1481
20
279.2284
0
VERTEX
8
CUT
10
151.0107
20
279.1754
0
VERTEX
8
CUT
10
150.8709
20
279.1292
0
VERTEX
8
CUT
10
150.7289
20
279.0899
0
VERTEX
8
CUT
10
150.5853
20
279.0576
0
VERTEX
8
CUT
10
150.4402
20
279.0325
0
VERTEX
8
CUT
10
150.2941
20
279.0144
0
VERTEX
8
CUT
10
150.1472
20
279.0036
0
VERTEX
8
CUT
10
150.0000
20
279.0000
0
VERTEX
8
CUT
10
149.8528
20
279.0036
0
VERTEX
8
CUT
10
149.7059
20
279.0144
0
VERTEX
8
CUT
10
149.5598
20
279.0325
0
VERTEX
8
CUT
10
149.4147
20
279.0576
0
VERTEX
8
CUT
10
149.2711
20
279.0899
0
VERTEX
8
CUT
10
149.1291
20
279.1292
0
VERTEX
8
CUT
10
148.9893
20
279.1754
0
VERTEX
8
CUT
10
148.8519
20
279.2284
0
VERTEX
8
CUT
10
148.7173
20
279.2880
0
VERTEX
8
CUT
10
148.5858
20
279.3542
0
VERTEX
8
CUT
10
148.4577
20
279.4268
0
VERTEX
8
CUT
10
148.3333
20
279.5056
0
VERTEX
8
CUT
10
148.2129
20
279.5904
0
VERTEX
8
CUT
10
148.0968
20
279.6810
0
VERTEX
8
CUT
10
147.9853
20
279.7771
0
VERTEX
8
CUT
10
147.8787
20
279.8787
0
VERTEX
8
CUT
10
147.7771
20
279.9853
0
VERTEX
8
CUT
10
147.6810
20
280.0968
0
VERTEX
8
CUT
10
147.5904
20
280.2129
0
VERTEX
8
CUT
10
147.5056
20
280.3333
0
VERTEX
8
CUT
10
147.4268
20
280.4577
0
VERTEX
8
CUT
10
147.3542
20
280.5858
0
VERTEX
8
CUT
10
147.2880
20
280.7173
0
VERTEX
8
CUT
10
147.2284
20
280.8519
0
VERTEX
8
CUT
10
147.1754
20
280.9893
0
VERTEX
8
CUT
10
147.1292
20
281.1291
0
VERTEX
8
CUT
10
147.0899
20
281.2711
0
VERTEX
8
CUT
10
147.0576
20
281.4147
0
VERTEX
8
CUT
10
147.0325
20
281.5598
0
VERTEX
8
CUT
10
147.0144
20
281.7059
0
VERTEX
8
CUT
10
147.0036
20
281.8528
0
VERTEX
8
CUT
10
147.0000
20
282.0000
0
VERTEX
8
CUT
10
147.0036
20
282.1472
0
VERTEX
8
CUT
10
147.0144
20
282.2941
0
VERTEX
8
CUT
10
147.0325
20
282.4402
0
VERTEX
8
CUT
10
147.0576
20
282.5853
0
VERTEX
8
CUT
10
147.0899
20
282.7289
0
VERTEX
8
CUT
10
147.1292
20
282.8709
0
VERTEX
8
CUT
10
147.1754
20
283.0107
0
VERTEX
8
CUT
10
147.2284
20
283.1481
0
VERTEX
8
CUT
10
147.2880
20
283.2827
0
VERTEX
8
CUT
10
147.3542
20
283.4142
0
VERTEX
8
CUT
10
147.4268
20
283.5423
0
VERTEX
8
CUT
10
147.5056
20
283.6667
0
VERTEX
8
CUT
10
147.5904
20
283.7871
0
VERTEX
8
CUT
10
147.6810
20
283.9032
0
VERTEX
8
CUT
10
147.7771
20
284.0147
0
VERTEX
8
CUT
10
147.8787
20
284.1213
0
VERTEX
8
CUT
10
147.9853
20
284.2229
0
VERTEX
8
CUT
10
148.0968
20
284.3190
0
VERTEX
8
CUT
10
148.2129
20
284.4096
0
VERTEX
8
CUT
10
148.3333
20
284.4944
0
VERTEX
8
CUT
10
148.4577
20
284.5732
0
VERTEX
8
CUT
10
148.5858
20
284.6458
0
VERTEX
8
CUT
10
148.7173
20
284.7120
0
VERTEX
8
CUT
10
148.8519
20
284.7716
0
VERTEX
8
CUT
10
148.9893
20
284.8246
0
VERTEX
8
CUT
10
149.1291
20
284.8708
0
VERTEX
8
CUT
10
149.2711
20
284.9101
0
VERTEX
8
CUT
10
149.4147
20
284.9424
0
VERTEX
8
CUT
10
149.5598
20
284.9675
0
VERTEX
8
CUT
10
149.7059
20
284.9856
0
VERTEX
8
CUT
10
149.8528
20
284.9964
0
VERTEX
8
CUT
10
150.0000
20
285.0000
0
VERTEX
8
CUT
10
150.1472
20
284.9964
0
VERTEX
8
CUT
10
150.2941
20
284.9856
0
VERTEX
8
CUT
10
150.4402
20
284.9675
0
VERTEX
8
CUT
10
150.5853
20
284.9424
0
VERTEX
8
CUT
10
150.7289
20
284.9101
0
VERTEX
8
CUT
10
150.8709
20
284.8708
0
VERTEX
8
CUT
10
151.0107
20
284.8246
0
VERTEX
8
CUT
10
151.1481
20
284.7716
0
VERTEX
8
CUT
10
151.2827
20
284.7120
0
VERTEX
8
CUT
10
151.4142
20
284.6458
0
VERTEX
8
CUT
10
151.5423
20
284.5732
0
VERTEX
8
CUT
10
151.6667
20
284.4944
0
VERTEX
8
CUT
10
151.7871
20
284.4096
0
VERTEX
8
CUT
10
151.9032
20
284.3190
0
VERTEX
8
CUT
10
152.0147
20
284.2229
0
VERTEX
8
CUT
10
152.1213
20
284.1213
0
VERTEX
8
CUT
10
152.2229
20
284.0147
0
VERTEX
8
CUT
10
152.3190
20
283.9032
0
VERTEX
8
CUT
10
152.4096
20
283.7871
0
VERTEX
8
CUT
10
152.4944
20
283.6667
0
VERTEX
8
CUT
10
152.5732
20
283.5423
0
VERTEX
8
CUT
10
152.6458
20
283.4142
0
VERTEX
8
CUT
10
152.7120
20
283.2827
0
VERTEX
8
CUT
10
152.7716
20
283.1481
0
VERTEX
8
CUT
10
152.8246
20
283.0107
0
VERTEX
8
CUT
10
152.8708
20
282.8709
0
VERTEX
8
CUT
10
152.9101
20
282.7289
0
VERTEX
8
CUT
10
152.9424
20
282.5853
0
VERTEX
8
CUT
10
152.9675
20
282.4402
0
VERTEX
8
CUT
10
152.9856
20
282.2941
0
VERTEX
8
CUT
10
152.9964
20
282.1472
0
VERTEX
8
CUT
10
153.0000
20
282.0000
0
VERTEX
8
CUT
10
152.9964
20
281.8528
0
SEQEND
0
ENDSEC
0
EOF
