0
SECTION
2
HEADER
9
$ACADVER
1
AC1009
9
$INSUNITS
70
4
0
ENDSEC
0
SECTION
2
TABLES
0
TABLE
2
LAYER
70
1
0
LAYER
2
CUT
70
0
62
7
6
CONTINUOUS
0
ENDTAB
0
ENDSEC
0
SECTION
2
ENTITIES
0
POLYLINE
8
CUT
66
1
70
1
10
0.0
20
0.0
30
0.0
0
VERTEX
8
CUT
10
12.9778
20
187.4466
0
VERTEX
8
CUT
10
11.9704
20
188.3014
0
VERTEX
8
CUT
10
11.8525
20
188.7404
0
VERTEX
8
CUT
10
12.1873
20
188.9488
0
VERTEX
8
CUT
10
13.2841
20
188.7287
0
VERTEX
8
CUT
10
19.5588
20
186.3735
0
VERTEX
8
CUT
10
29.0962
20
183.5791
0
VERTEX
8
CUT
10
33.1562
20
182.7437
0
VERTEX
8
CUT
10
34.0350
20
182.4508
0
VERTEX
8
CUT
10
36.7696
20
182.0001
0
VERTEX
8
CUT
10
39.7531
20
181.3862
0
VERTEX
8
CUT
10
43.2602
20
180.9303
0
VERTEX
8
CUT
10
44.9362
20
180.6541
0
VERTEX
8
CUT
10
46.9037
20
180.4567
0
VERTEX
8
CUT
10
51.2495
20
179.8918
0
VERTEX
8
CUT
10
58.7666
20
179.3445
0
VERTEX
8
CUT
10
59.1473
20
179.4114
0
VERTEX
8
CUT
10
59.3184
20
179.7403
0
VERTEX
8
CUT
10
59.1684
20
180.0412
0
VERTEX
8
CUT
10
58.5296
20
180.3691
0
VERTEX
8
CUT
10
54.8793
20
181.8130
0
VERTEX
8
CUT
10
51.1708
20
183.6228
0
VERTEX
8
CUT
10
49.7130
20
184.4945
0
VERTEX
8
CUT
10
47.5123
20
186.3942
0
VERTEX
8
CUT
10
46.7066
20
187.4222
0
VERTEX
8
CUT
10
45.6058
20
189.5931
0
VERTEX
8
CUT
10
45.1275
20
191.8636
0
VERTEX
8
CUT
10
45.2810
20
193.8849
0
VERTEX
8
CUT
10
45.6242
20
194.8988
0
VERTEX
8
CUT
10
47.4104
20
197.6642
0
VERTEX
8
CUT
10
47.4100
20
198.1265
0
VERTEX
8
CUT
10
40.0512
20
203.4573
0
VERTEX
8
CUT
10
33.5668
20
209.0256
0
VERTEX
8
CUT
10
29.7877
20
212.9876
0
VERTEX
8
CUT
10
27.1763
20
216.1213
0
VERTEX
8
CUT
10
24.6265
20
219.7515
0
VERTEX
8
CUT
10
24.1903
20
220.7810
0
VERTEX
8
CUT
10
24.2399
20
221.2072
0
VERTEX
8
CUT
10
24.6304
20
221.1727
0
VERTEX
8
CUT
10
25.7167
20
220.3649
0
VERTEX
8
CUT
10
33.0341
20
214.0846
0
VERTEX
8
CUT
10
40.3825
20
208.8010
0
VERTEX
8
CUT
10
48.1509
20
204.3529
0
VERTEX
8
CUT
10
50.9962
20
203.0337
0
VERTEX
8
CUT
10
52.1565
20
202.8624
0
VERTEX
8
CUT
10
52.3729
20
203.1731
0
VERTEX
8
CUT
10
52.3535
20
203.8685
0
VERTEX
8
CUT
10
51.3478
20
208.1138
0
VERTEX
8
CUT
10
51.4234
20
209.0944
0
VERTEX
8
CUT
10
51.9750
20
210.3396
0
VERTEX
8
CUT
10
52.7402
20
211.1944
0
VERTEX
8
CUT
10
53.8205
20
211.6645
0
VERTEX
8
CUT
10
55.0363
20
211.7267
0
VERTEX
8
CUT
10
57.9649
20
211.3014
0
VERTEX
8
CUT
10
58.9186
20
211.4106
0
VERTEX
8
CUT
10
59.7361
20
211.7555
0
VERTEX
8
CUT
10
59.9127
20
211.9257
0
VERTEX
8
CUT
10
59.9415
20
211.9358
0
VERTEX
8
CUT
10
60.4927
20
212.4329
0
VERTEX
8
CUT
10
60.5395
20
212.5300
0
VERTEX
8
CUT
10
60.7171
20
212.7013
0
VERTEX
8
CUT
10
61.2077
20
213.6640
0
VERTEX
8
CUT
10
61.5071
20
214.7869
0
VERTEX
8
CUT
10
61.5662
20
216.3142
0
VERTEX
8
CUT
10
60.9745
20
217.7311
0
VERTEX
8
CUT
10
56.5030
20
223.7232
0
VERTEX
8
CUT
10
52.4670
20
230.3596
0
VERTEX
8
CUT
10
49.2854
20
237.1236
0
VERTEX
8
CUT
10
48.3002
20
239.9066
0
VERTEX
8
CUT
10
48.1466
20
240.6974
0
VERTEX
8
CUT
10
48.2703
20
241.1516
0
VERTEX
8
CUT
10
48.7961
20
241.0614
0
VERTEX
8
CUT
10
49.3553
20
240.4457
0
VERTEX
8
CUT
10
53.3089
20
234.4547
0
VERTEX
8
CUT
10
55.7212
20
231.1557
0
VERTEX
8
CUT
10
59.1905
20
226.9871
0
VERTEX
8
CUT
10
61.9186
20
224.1784
0
VERTEX
8
CUT
10
62.2370
20
224.1450
0
VERTEX
8
CUT
10
62.5905
20
224.3804
0
VERTEX
8
CUT
10
62.9402
20
225.0826
0
VERTEX
8
CUT
10
63.3634
20
229.9624
0
VERTEX
8
CUT
10
63.8295
20
231.5248
0
VERTEX
8
CUT
10
64.2217
20
232.2177
0
VERTEX
8
CUT
10
64.6444
20
232.8590
0
VERTEX
8
CUT
10
65.7025
20
233.8657
0
VERTEX
8
CUT
10
67.3522
20
234.6905
0
VERTEX
8
CUT
10
67.7550
20
234.7600
0
VERTEX
8
CUT
10
68.7015
20
234.7173
0
VERTEX
8
CUT
10
69.7499
20
234.3669
0
VERTEX
8
CUT
10
70.3928
20
234.0515
0
VERTEX
8
CUT
10
70.4766
20
234.0104
0
VERTEX
8
CUT
10
70.5432
20
233.9777
0
VERTEX
8
CUT
10
70.5728
20
233.9632
0
VERTEX
8
CUT
10
71.5111
20
233.2360
0
VERTEX
8
CUT
10
72.0499
20
232.5767
0
VERTEX
8
CUT
10
72.5494
20
231.7454
0
VERTEX
8
CUT
10
75.1497
20
225.3570
0
VERTEX
8
CUT
10
75.2136
20
225.2627
0
VERTEX
8
CUT
10
75.6764
20
224.2319
0
VERTEX
8
CUT
10
77.1705
20
222.4634
0
VERTEX
8
CUT
10
78.0243
20
221.7926
0
VERTEX
8
CUT
10
79.9452
20
221.0303
0
VERTEX
8
CUT
10
80.9820
20
220.8778
0
VERTEX
8
CUT
10
83.2078
20
221.1522
0
VERTEX
8
CUT
10
84.9154
20
221.9755
0
VERTEX
8
CUT
10
85.4947
20
222.4634
0
VERTEX
8
CUT
10
85.5448
20
222.6471
0
VERTEX
8
CUT
10
85.8182
20
222.8442
0
VERTEX
8
CUT
10
86.6942
20
223.7750
0
VERTEX
8
CUT
10
88.2595
20
226.0265
0
VERTEX
8
CUT
10
89.5088
20
228.8267
0
VERTEX
8
CUT
10
90.4138
20
232.0289
0
VERTEX
8
CUT
10
91.0166
20
236.3395
0
VERTEX
8
CUT
10
91.0784
20
239.6202
0
VERTEX
8
CUT
10
90.3473
20
250.6203
0
VERTEX
8
CUT
10
90.3174
20
254.2904
0
VERTEX
8
CUT
10
90.4427
20
255.7439
0
VERTEX
8
CUT
10
90.9619
20
258.0045
0
VERTEX
8
CUT
10
92.2218
20
260.3115
0
VERTEX
8
CUT
10
92.5208
20
260.6206
0
VERTEX
8
CUT
10
93.8799
20
261.6757
0
VERTEX
8
CUT
10
95.0996
20
262.0111
0
VERTEX
8
CUT
10
96.5327
20
261.9196
0
VERTEX
8
CUT
10
98.6090
20
260.5435
0
VERTEX
8
CUT
10
99.2321
20
259.6357
0
VERTEX
8
CUT
10
99.6591
20
258.6907
0
VERTEX
8
CUT
10
99.8830
20
257.3223
0
VERTEX
8
CUT
10
100.0047
20
244.8909
0
VERTEX
8
CUT
10
100.2798
20
242.5928
0
VERTEX
8
CUT
10
101.4725
20
240.5140
0
VERTEX
8
CUT
10
102.4627
20
239.6168
0
VERTEX
8
CUT
10
102.7393
20
239.4875
0
VERTEX
8
CUT
10
102.8156
20
239.4255
0
VERTEX
8
CUT
10
102.9291
20
239.3988
0
VERTEX
8
CUT
10
103.4805
20
239.1410
0
VERTEX
8
CUT
10
104.4649
20
239.0549
0
VERTEX
8
CUT
10
105.6441
20
239.3660
0
VERTEX
8
CUT
10
105.7613
20
239.4385
0
VERTEX
8
CUT
10
105.8791
20
239.4665
0
VERTEX
8
CUT
10
106.2035
20
239.7119
0
VERTEX
8
CUT
10
106.6556
20
239.9913
0
VERTEX
8
CUT
10
106.8616
20
240.2096
0
VERTEX
8
CUT
10
106.9175
20
240.2519
0
VERTEX
8
CUT
10
107.0103
20
240.3672
0
VERTEX
8
CUT
10
107.6455
20
241.0402
0
VERTEX
8
CUT
10
108.5537
20
242.5264
0
VERTEX
8
CUT
10
109.1761
20
244.0198
0
VERTEX
8
CUT
10
109.7410
20
247.0390
0
VERTEX
8
CUT
10
110.5349
20
259.0878
0
VERTEX
8
CUT
10
110.9406
20
260.7096
0
VERTEX
8
CUT
10
111.7511
20
261.9674
0
VERTEX
8
CUT
10
112.8069
20
263.0287
0
VERTEX
8
CUT
10
113.8797
20
263.6319
0
VERTEX
8
CUT
10
114.2508
20
263.7012
0
VERTEX
8
CUT
10
114.8327
20
263.6848
0
VERTEX
8
CUT
10
115.0627
20
263.6456
0
VERTEX
8
CUT
10
115.2252
20
263.5931
0
VERTEX
8
CUT
10
115.3040
20
263.5676
0
VERTEX
8
CUT
10
115.3853
20
263.5414
0
VERTEX
8
CUT
10
115.6307
20
263.4621
0
VERTEX
8
CUT
10
116.7783
20
262.5118
0
VERTEX
8
CUT
10
119.1964
20
258.2456
0
VERTEX
8
CUT
10
119.8966
20
257.6261
0
VERTEX
8
CUT
10
121.0248
20
257.1855
0
VERTEX
8
CUT
10
122.1840
20
257.0766
0
VERTEX
8
CUT
10
123.3396
20
257.3294
0
VERTEX
8
CUT
10
124.5950
20
257.9531
0
VERTEX
8
CUT
10
125.8162
20
258.8759
0
VERTEX
8
CUT
10
127.0305
20
260.1538
0
VERTEX
8
CUT
10
128.1702
20
261.7184
0
VERTEX
8
CUT
10
129.1912
20
263.5520
0
VERTEX
8
CUT
10
130.5410
20
266.7321
0
VERTEX
8
CUT
10
131.6369
20
270.7149
0
VERTEX
8
CUT
10
133.3435
20
278.5166
0
VERTEX
8
CUT
10
134.3440
20
281.4183
0
VERTEX
8
CUT
10
135.5615
20
283.5491
0
VERTEX
8
CUT
10
137.1433
20
285.3243
0
VERTEX
8
CUT
10
138.1824
20
286.0905
0
VERTEX
8
CUT
10
138.6417
20
286.3739
0
VERTEX
8
CUT
10
141.9348
20
287.6241
0
VERTEX
8
CUT
10
142.7466
20
287.7673
0
VERTEX
8
CUT
10
143.1446
20
287.7971
0
VERTEX
8
CUT
10
144.0387
20
287.7460
0
VERTEX
8
CUT
10
147.0007
20
286.9495
0
VERTEX
8
CUT
10
148.4345
20
286.0827
0
VERTEX
8
CUT
10
150.4977
20
283.8937
0
VERTEX
8
CUT
10
151.6662
20
281.8028
0
VERTEX
8
CUT
10
152.5948
20
278.9012
0
VERTEX
8
CUT
10
154.4244
20
269.4518
0
VERTEX
8
CUT
10
155.0382
20
267.2129
0
VERTEX
8
CUT
10
156.6128
20
263.4986
0
VERTEX
8
CUT
10
157.5325
20
262.0474
0
VERTEX
8
CUT
10
158.6010
20
260.8632
0
VERTEX
8
CUT
10
159.7021
20
259.9970
0
VERTEX
8
CUT
10
160.8799
20
259.4373
0
VERTEX
8
CUT
10
161.5135
20
259.3702
0
VERTEX
8
CUT
10
161.9606
20
259.2044
0
VERTEX
8
CUT
10
162.2749
20
259.2896
0
VERTEX
8
CUT
10
162.5506
20
259.2604
0
VERTEX
8
CUT
10
163.2405
20
259.5511
0
VERTEX
8
CUT
10
163.3334
20
259.5762
0
VERTEX
8
CUT
10
163.3700
20
259.6056
0
VERTEX
8
CUT
10
164.1770
20
259.9457
0
VERTEX
8
CUT
10
166.5191
20
262.0416
0
VERTEX
8
CUT
10
167.5741
20
262.6366
0
VERTEX
8
CUT
10
168.1191
20
262.7381
0
VERTEX
8
CUT
10
169.0036
20
262.5800
0
VERTEX
8
CUT
10
170.1283
20
261.7662
0
VERTEX
8
CUT
10
171.0100
20
260.4609
0
VERTEX
8
CUT
10
171.5969
20
258.5982
0
VERTEX
8
CUT
10
172.5419
20
250.0012
0
VERTEX
8
CUT
10
173.2415
20
246.8773
0
VERTEX
8
CUT
10
173.9316
20
245.2622
0
VERTEX
8
CUT
10
174.8983
20
243.6716
0
VERTEX
8
CUT
10
175.9675
20
242.6064
0
VERTEX
8
CUT
10
176.8768
20
242.1368
0
VERTEX
8
CUT
10
176.9562
20
242.0736
0
VERTEX
8
CUT
10
177.0215
20
242.0621
0
VERTEX
8
CUT
10
177.1216
20
242.0105
0
VERTEX
8
CUT
10
177.4884
20
241.9798
0
VERTEX
8
CUT
10
178.5380
20
241.7948
0
VERTEX
8
CUT
10
178.7704
20
241.8727
0
VERTEX
8
CUT
10
179.0750
20
241.8473
0
VERTEX
8
CUT
10
180.1906
20
242.3488
0
VERTEX
8
CUT
10
180.2136
20
242.3565
0
VERTEX
8
CUT
10
180.2191
20
242.3616
0
VERTEX
8
CUT
10
180.4950
20
242.4856
0
VERTEX
8
CUT
10
180.8559
20
242.9469
0
VERTEX
8
CUT
10
181.0536
20
243.1286
0
VERTEX
8
CUT
10
181.1973
20
243.3833
0
VERTEX
8
CUT
10
181.7167
20
244.0473
0
VERTEX
8
CUT
10
182.4912
20
245.7915
0
VERTEX
8
CUT
10
182.7671
20
248.1230
0
VERTEX
8
CUT
10
182.8910
20
260.1513
0
VERTEX
8
CUT
10
183.1182
20
261.5428
0
VERTEX
8
CUT
10
184.2475
20
263.8824
0
VERTEX
8
CUT
10
185.9613
20
265.7765
0
VERTEX
8
CUT
10
186.9755
20
266.3787
0
VERTEX
8
CUT
10
188.0385
20
266.7310
0
VERTEX
8
CUT
10
190.3503
20
266.6237
0
VERTEX
8
CUT
10
191.5118
20
266.1475
0
VERTEX
8
CUT
10
193.2569
20
264.8020
0
VERTEX
8
CUT
10
194.5280
20
262.7629
0
VERTEX
8
CUT
10
195.0450
20
261.4058
0
VERTEX
8
CUT
10
195.6528
20
258.3663
0
VERTEX
8
CUT
10
195.8097
20
255.3720
0
VERTEX
8
CUT
10
195.4426
20
250.3094
0
VERTEX
8
CUT
10
193.7994
20
239.7845
0
VERTEX
8
CUT
10
193.6763
20
236.0868
0
VERTEX
8
CUT
10
193.9224
20
232.6214
0
VERTEX
8
CUT
10
194.5173
20
229.5577
0
VERTEX
8
CUT
10
195.4460
20
226.8497
0
VERTEX
8
CUT
10
196.6971
20
224.5739
0
VERTEX
8
CUT
10
197.1328
20
224.0773
0
VERTEX
8
CUT
10
197.1552
20
223.9880
0
VERTEX
8
CUT
10
197.8260
20
223.1647
0
VERTEX
8
CUT
10
198.7712
20
222.2499
0
VERTEX
8
CUT
10
199.8994
20
221.5181
0
VERTEX
8
CUT
10
202.3692
20
220.6644
0
VERTEX
8
CUT
10
203.6499
20
220.5424
0
VERTEX
8
CUT
10
206.1197
20
220.9693
0
VERTEX
8
CUT
10
207.7358
20
221.9450
0
VERTEX
8
CUT
10
209.2908
20
223.5306
0
VERTEX
8
CUT
10
210.0226
20
224.6283
0
VERTEX
8
CUT
10
210.2971
20
225.4821
0
VERTEX
8
CUT
10
210.2876
20
225.5295
0
VERTEX
8
CUT
10
210.4660
20
225.8642
0
VERTEX
8
CUT
10
211.0996
20
228.2222
0
VERTEX
8
CUT
10
211.8866
20
237.2947
0
VERTEX
8
CUT
10
212.3600
20
239.8645
0
VERTEX
8
CUT
10
213.0956
20
241.5802
0
VERTEX
8
CUT
10
213.6449
20
242.3282
0
VERTEX
8
CUT
10
214.2491
20
242.8611
0
VERTEX
8
CUT
10
215.3587
20
243.7161
0
VERTEX
8
CUT
10
217.1882
20
244.2344
0
VERTEX
8
CUT
10
219.1091
20
244.2039
0
VERTEX
8
CUT
10
219.9934
20
243.9600
0
VERTEX
8
CUT
10
221.0118
20
243.4508
0
VERTEX
8
CUT
10
221.7478
20
242.7458
0
VERTEX
8
CUT
10
223.0596
20
240.8841
0
VERTEX
8
CUT
10
223.7913
20
238.6580
0
VERTEX
8
CUT
10
224.0746
20
235.8706
0
VERTEX
8
CUT
10
223.7097
20
230.1843
0
VERTEX
8
CUT
10
223.8609
20
226.6153
0
VERTEX
8
CUT
10
224.1879
20
225.3121
0
VERTEX
8
CUT
10
224.6404
20
224.4069
0
VERTEX
8
CUT
10
225.2368
20
223.8106
0
VERTEX
8
CUT
10
225.9858
20
223.5387
0
VERTEX
8
CUT
10
226.8299
20
223.6282
0
VERTEX
8
CUT
10
227.6088
20
224.0963
0
VERTEX
8
CUT
10
230.3619
20
226.9089
0
VERTEX
8
CUT
10
235.7045
20
233.6784
0
VERTEX
8
CUT
10
240.1511
20
240.5004
0
VERTEX
8
CUT
10
240.6341
20
241.0487
0
VERTEX
8
CUT
10
241.1589
20
241.1692
0
VERTEX
8
CUT
10
241.3026
20
240.7684
0
VERTEX
8
CUT
10
241.2111
20
240.1274
0
VERTEX
8
CUT
10
240.5007
20
237.7978
0
VERTEX
8
CUT
10
237.6167
20
231.3237
0
VERTEX
8
CUT
10
233.5811
20
224.5378
0
VERTEX
8
CUT
10
228.2241
20
217.2187
0
VERTEX
8
CUT
10
227.9209
20
216.0109
0
VERTEX
8
CUT
10
227.9801
20
214.9782
0
VERTEX
8
CUT
10
228.4365
20
213.4321
0
VERTEX
8
CUT
10
228.4554
20
213.3990
0
VERTEX
8
CUT
10
228.4701
20
213.1939
0
VERTEX
8
CUT
10
228.8665
20
212.5536
0
VERTEX
8
CUT
10
229.6278
20
211.9826
0
VERTEX
8
CUT
10
229.8017
20
211.8204
0
VERTEX
8
CUT
10
229.8817
20
211.7922
0
VERTEX
8
CUT
10
230.4520
20
211.3644
0
VERTEX
8
CUT
10
231.2753
20
211.1815
0
VERTEX
8
CUT
10
235.9137
20
211.5447
0
VERTEX
8
CUT
10
236.7006
20
211.2313
0
VERTEX
8
CUT
10
237.4674
20
210.4575
0
VERTEX
8
CUT
10
238.1176
20
209.0639
0
VERTEX
8
CUT
10
238.2237
20
208.0516
0
VERTEX
8
CUT
10
237.2406
20
203.9787
0
VERTEX
8
CUT
10
237.1349
20
203.1699
0
VERTEX
8
CUT
10
237.3253
20
202.6538
0
VERTEX
8
CUT
10
238.1056
20
202.6204
0
VERTEX
8
CUT
10
240.4244
20
203.5958
0
VERTEX
8
CUT
10
245.1085
20
206.1816
0
VERTEX
8
CUT
10
250.3939
20
209.4622
0
VERTEX
8
CUT
10
257.3583
20
214.6010
0
VERTEX
8
CUT
10
264.3027
20
220.8081
0
VERTEX
8
CUT
10
265.0929
20
221.2675
0
VERTEX
8
CUT
10
265.2980
20
220.6067
0
VERTEX
8
CUT
10
264.2025
20
218.6342
0
VERTEX
8
CUT
10
262.0259
20
215.7204
0
VERTEX
8
CUT
10
255.9944
20
209.1069
0
VERTEX
8
CUT
10
249.7981
20
203.6126
0
VERTEX
8
CUT
10
242.1873
20
198.0026
0
VERTEX
8
CUT
10
242.2263
20
197.4668
0
VERTEX
8
CUT
10
243.7910
20
195.0933
0
VERTEX
8
CUT
10
244.3426
20
193.7719
0
VERTEX
8
CUT
10
244.6253
20
192.4202
0
VERTEX
8
CUT
10
244.6249
20
191.0636
0
VERTEX
8
CUT
10
244.3112
20
189.7111
0
VERTEX
8
CUT
10
243.7481
20
188.3970
0
VERTEX
8
CUT
10
242.8603
20
187.0384
0
VERTEX
8
CUT
10
240.9062
20
185.0233
0
VERTEX
8
CUT
10
238.9899
20
183.6293
0
VERTEX
8
CUT
10
235.2372
20
181.7197
0
VERTEX
8
CUT
10
230.7875
20
180.0284
0
VERTEX
8
CUT
10
230.5725
20
179.7711
0
VERTEX
8
CUT
10
230.6372
20
179.4420
0
VERTEX
8
CUT
10
230.9336
20
179.2852
0
VERTEX
8
CUT
10
232.1889
20
179.3144
0
VERTEX
8
CUT
10
238.3923
20
179.8316
0
VERTEX
8
CUT
10
245.3367
20
180.5931
0
VERTEX
8
CUT
10
250.9404
20
181.4765
0
VERTEX
8
CUT
10
252.7791
20
181.8633
0
VERTEX
8
CUT
10
253.0418
20
181.9029
0
VERTEX
8
CUT
10
255.3644
20
182.4071
0
VERTEX
8
CUT
10
258.6136
20
183.0906
0
VERTEX
8
CUT
10
265.9691
20
185.0358
0
VERTEX
8
CUT
10
272.3540
20
187.1635
0
VERTEX
8
CUT
10
276.8836
20
188.9687
0
VERTEX
8
CUT
10
277.3458
20
189.0205
0
VERTEX
8
CUT
10
277.7704
20
188.5722
0
VERTEX
8
CUT
10
276.9402
20
187.6463
0
VERTEX
8
CUT
10
273.2049
20
185.2900
0
VERTEX
8
CUT
10
267.8248
20
182.5089
0
VERTEX
8
CUT
10
260.7014
20
179.5852
0
VERTEX
8
CUT
10
259.7995
20
178.8356
0
VERTEX
8
CUT
10
260.3870
20
175.9146
0
VERTEX
8
CUT
10
260.3901
20
175.0575
0
VERTEX
8
CUT
10
259.9302
20
172.1741
0
VERTEX
8
CUT
10
258.2515
20
166.5766
0
VERTEX
8
CUT
10
258.1653
20
164.2528
0
VERTEX
8
CUT
10
258.7460
20
162.5913
0
VERTEX
8
CUT
10
260.1264
20
161.3958
0
VERTEX
8
CUT
10
261.5793
20
161.0817
0
VERTEX
8
CUT
10
262.8059
20
161.2648
0
VERTEX
8
CUT
10
266.0642
20
162.6255
0
VERTEX
8
CUT
10
267.7142
20
163.1204
0
VERTEX
8
CUT
10
269.1629
20
163.0561
0
VERTEX
8
CUT
10
270.4649
20
162.4579
0
VERTEX
8
CUT
10
271.1200
20
161.9665
0
VERTEX
8
CUT
10
272.1238
20
160.7448
0
VERTEX
8
CUT
10
272.8204
20
159.2290
0
VERTEX
8
CUT
10
273.1978
20
157.4836
0
VERTEX
8
CUT
10
273.2581
20
155.5859
0
VERTEX
8
CUT
10
273.0145
20
153.5689
0
VERTEX
8
CUT
10
272.4777
20
151.3610
0
VERTEX
8
CUT
10
271.6631
20
149.2492
0
VERTEX
8
CUT
10
269.8271
20
146.0409
0
VERTEX
8
CUT
10
268.1008
20
143.9472
0
VERTEX
8
CUT
10
265.9039
20
141.8725
0
VERTEX
8
CUT
10
258.0701
20
136.1105
0
VERTEX
8
CUT
10
255.5748
20
133.6801
0
VERTEX
8
CUT
10
254.0235
20
131.1262
0
VERTEX
8
CUT
10
253.5164
20
129.7463
0
VERTEX
8
CUT
10
253.0157
20
127.1888
0
VERTEX
8
CUT
10
253.1359
20
124.9654
0
VERTEX
8
CUT
10
253.4557
20
123.8549
0
VERTEX
8
CUT
10
253.4123
20
123.6704
0
VERTEX
8
CUT
10
253.7782
20
122.4508
0
VERTEX
8
CUT
10
254.7234
20
120.6213
0
VERTEX
8
CUT
10
255.7906
20
119.1577
0
VERTEX
8
CUT
10
255.9802
20
119.0392
0
VERTEX
8
CUT
10
256.9004
20
117.7331
0
VERTEX
8
CUT
10
257.8274
20
116.0696
0
VERTEX
8
CUT
10
258.4307
20
114.5214
0
VERTEX
8
CUT
10
258.6221
20
113.0072
0
VERTEX
8
CUT
10
258.4341
20
111.4582
0
VERTEX
8
CUT
10
257.8930
20
109.8430
0
VERTEX
8
CUT
10
256.9996
20
108.0606
0
VERTEX
8
CUT
10
253.8442
20
103.0556
0
VERTEX
8
CUT
10
252.7665
20
100.7566
0
VERTEX
8
CUT
10
252.2478
20
98.4352
0
VERTEX
8
CUT
10
252.1588
20
94.0892
0
VERTEX
8
CUT
10
252.3419
20
91.6694
0
VERTEX
8
CUT
10
252.8814
20
89.0633
0
VERTEX
8
CUT
10
257.1222
20
74.9348
0
VERTEX
8
CUT
10
259.6850
20
64.1649
0
VERTEX
8
CUT
10
261.6996
20
52.4141
0
VERTEX
8
CUT
10
263.1947
20
41.1258
0
VERTEX
8
CUT
10
263.9584
20
30.8644
0
VERTEX
8
CUT
10
263.8976
20
22.7956
0
VERTEX
8
CUT
10
263.1522
20
19.1618
0
VERTEX
8
CUT
10
261.9634
20
16.1132
0
VERTEX
8
CUT
10
261.3182
20
14.9853
0
VERTEX
8
CUT
10
259.4185
20
12.8753
0
VERTEX
8
CUT
10
257.2061
20
11.3257
0
VERTEX
8
CUT
10
254.9001
20
10.6429
0
VERTEX
8
CUT
10
251.1645
20
10.3682
0
VERTEX
8
CUT
10
247.4224
20
11.0209
0
VERTEX
8
CUT
10
243.1251
20
12.6058
0
VERTEX
8
CUT
10
240.8904
20
13.7229
0
VERTEX
8
CUT
10
236.2577
20
16.5879
0
VERTEX
8
CUT
10
233.8529
20
18.3451
0
VERTEX
8
CUT
10
227.7872
20
23.4355
0
VERTEX
8
CUT
10
220.4813
20
30.3744
0
VERTEX
8
CUT
10
213.2551
20
38.0274
0
VERTEX
8
CUT
10
209.7130
20
42.1188
0
VERTEX
8
CUT
10
198.5771
20
55.9383
0
VERTEX
8
CUT
10
195.2384
20
59.2181
0
VERTEX
8
CUT
10
193.7831
20
60.2797
0
VERTEX
8
CUT
10
192.3837
20
60.9644
0
VERTEX
8
CUT
10
191.0186
20
61.3500
0
VERTEX
8
CUT
10
189.6726
20
61.4688
0
VERTEX
8
CUT
10
187.2638
20
61.1091
0
VERTEX
8
CUT
10
184.8729
20
59.8669
0
VERTEX
8
CUT
10
180.1387
20
56.3554
0
VERTEX
8
CUT
10
177.8040
20
55.4947
0
VERTEX
8
CUT
10
175.2087
20
55.4045
0
VERTEX
8
CUT
10
173.2188
20
55.8087
0
VERTEX
8
CUT
10
171.9354
20
56.4814
0
VERTEX
8
CUT
10
168.6985
20
58.7949
0
VERTEX
8
CUT
10
167.0926
20
59.2715
0
VERTEX
8
CUT
10
165.6174
20
58.9845
0
VERTEX
8
CUT
10
162.5442
20
56.8864
0
VERTEX
8
CUT
10
161.0975
20
56.1496
0
VERTEX
8
CUT
10
159.7146
20
55.7790
0
VERTEX
8
CUT
10
158.2543
20
55.7153
0
VERTEX
8
CUT
10
157.0189
20
55.9955
0
VERTEX
8
CUT
10
155.8442
20
56.5804
0
VERTEX
8
CUT
10
154.7086
20
57.5761
0
VERTEX
8
CUT
10
153.7855
20
58.8348
0
VERTEX
8
CUT
10
152.5870
20
61.3218
0
VERTEX
8
CUT
10
151.8819
20
64.2973
0
VERTEX
8
CUT
10
151.0869
20
70.6813
0
VERTEX
8
CUT
10
150.0881
20
74.2362
0
VERTEX
8
CUT
10
149.6345
20
75.0699
0
VERTEX
8
CUT
10
148.4208
20
76.4188
0
VERTEX
8
CUT
10
146.9123
20
77.3725
0
VERTEX
8
CUT
10
145.2819
20
77.7506
0
VERTEX
8
CUT
10
143.5821
20
77.5161
0
VERTEX
8
CUT
10
141.8940
20
76.6755
0
VERTEX
8
CUT
10
141.1415
20
76.0748
0
VERTEX
8
CUT
10
139.9629
20
74.4017
0
VERTEX
8
CUT
10
139.4075
20
73.2569
0
VERTEX
8
CUT
10
138.6054
20
70.5805
0
VERTEX
8
CUT
10
137.6290
20
64.1471
0
VERTEX
8
CUT
10
136.6753
20
60.6984
0
VERTEX
8
CUT
10
135.0999
20
58.1167
0
VERTEX
8
CUT
10
133.6031
20
56.6505
0
VERTEX
8
CUT
10
132.7249
20
56.1117
0
VERTEX
8
CUT
10
130.9047
20
55.4682
0
VERTEX
8
CUT
10
129.9504
20
55.3734
0
VERTEX
8
CUT
10
128.7605
20
55.5347
0
VERTEX
8
CUT
10
126.9626
20
56.1743
0
VERTEX
8
CUT
10
124.1729
20
58.1598
0
VERTEX
8
CUT
10
122.4488
20
58.7235
0
VERTEX
8
CUT
10
121.2796
20
58.3879
0
VERTEX
8
CUT
10
120.2235
20
57.8295
0
VERTEX
8
CUT
10
117.9228
20
55.8811
0
VERTEX
8
CUT
10
116.6837
20
55.2280
0
VERTEX
8
CUT
10
114.4916
20
54.7933
0
VERTEX
8
CUT
10
111.7030
20
54.9155
0
VERTEX
8
CUT
10
108.9759
20
55.9893
0
VERTEX
8
CUT
10
107.0838
20
57.3016
0
VERTEX
8
CUT
10
104.1127
20
59.7581
0
VERTEX
8
CUT
10
102.3691
20
60.7668
0
VERTEX
8
CUT
10
100.7828
20
61.2862
0
VERTEX
8
CUT
10
99.0272
20
61.4691
0
VERTEX
8
CUT
10
96.2286
20
61.0685
0
VERTEX
8
CUT
10
95.0211
20
60.5205
0
VERTEX
8
CUT
10
93.7707
20
59.6574
0
VERTEX
8
CUT
10
91.0343
20
56.7425
0
VERTEX
8
CUT
10
84.1333
20
47.1265
0
VERTEX
8
CUT
10
80.5666
20
42.6758
0
VERTEX
8
CUT
10
76.4959
20
38.0849
0
VERTEX
8
CUT
10
64.2968
20
25.9772
0
VERTEX
8
CUT
10
58.0687
20
20.5425
0
VERTEX
8
CUT
10
55.2579
20
18.3424
0
VERTEX
8
CUT
10
52.6085
20
16.4635
0
VERTEX
8
CUT
10
47.7291
20
13.6273
0
VERTEX
8
CUT
10
44.8534
20
12.3109
0
VERTEX
8
CUT
10
42.0805
20
11.3458
0
VERTEX
8
CUT
10
39.5715
20
10.7715
0
VERTEX
8
CUT
10
37.1727
20
10.5207
0
VERTEX
8
CUT
10
34.9982
20
10.6750
0
VERTEX
8
CUT
10
33.0387
20
11.1637
0
VERTEX
8
CUT
10
31.1450
20
12.0936
0
VERTEX
8
CUT
10
29.5520
20
13.3208
0
VERTEX
8
CUT
10
27.9382
20
15.1525
0
VERTEX
8
CUT
10
26.6973
20
17.4164
0
VERTEX
8
CUT
10
25.8381
20
20.1424
0
VERTEX
8
CUT
10
25.3076
20
23.5066
0
VERTEX
8
CUT
10
25.1253
20
27.5444
0
VERTEX
8
CUT
10
25.2774
20
32.3194
0
VERTEX
8
CUT
10
26.5296
20
44.7569
0
VERTEX
8
CUT
10
28.9107
20
60.5058
0
VERTEX
8
CUT
10
29.7966
20
64.8425
0
VERTEX
8
CUT
10
31.9614
20
73.4407
0
VERTEX
8
CUT
10
36.4751
20
88.1111
0
VERTEX
8
CUT
10
37.5991
20
92.9769
0
VERTEX
8
CUT
10
37.7189
20
96.6919
0
VERTEX
8
CUT
10
37.1702
20
100.2158
0
VERTEX
8
CUT
10
35.7062
20
103.5266
0
VERTEX
8
CUT
10
32.6347
20
108.3935
0
VERTEX
8
CUT
10
31.6478
20
110.3316
0
VERTEX
8
CUT
10
31.0169
20
112.0619
0
VERTEX
8
CUT
10
30.7667
20
113.6561
0
VERTEX
8
CUT
10
30.9558
20
115.1835
0
VERTEX
8
CUT
10
31.5354
20
116.6862
0
VERTEX
8
CUT
10
32.4989
20
118.2031
0
VERTEX
8
CUT
10
33.1360
20
118.9781
0
VERTEX
8
CUT
10
33.4455
20
119.1882
0
VERTEX
8
CUT
10
35.5494
20
121.6275
0
VERTEX
8
CUT
10
36.2202
20
122.9996
0
VERTEX
8
CUT
10
36.4946
20
124.1888
0
VERTEX
8
CUT
10
36.3705
20
124.6356
0
VERTEX
8
CUT
10
36.5581
20
125.8525
0
VERTEX
8
CUT
10
36.3813
20
128.6379
0
VERTEX
8
CUT
10
35.4519
20
131.5327
0
VERTEX
8
CUT
10
33.5197
20
134.2419
0
VERTEX
8
CUT
10
30.1782
20
137.2546
0
VERTEX
8
CUT
10
25.0868
20
141.2793
0
VERTEX
8
CUT
10
22.6395
20
143.4808
0
VERTEX
8
CUT
10
20.6140
20
145.6574
0
VERTEX
8
CUT
10
18.9853
20
147.8052
0
VERTEX
8
CUT
10
17.7498
20
149.9604
0
VERTEX
8
CUT
10
16.8716
20
152.1478
0
VERTEX
8
CUT
10
16.3461
20
154.4042
0
VERTEX
8
CUT
10
16.1604
20
156.7008
0
VERTEX
8
CUT
10
16.2281
20
158.5463
0
VERTEX
8
CUT
10
16.8755
20
160.5804
0
VERTEX
8
CUT
10
18.1144
20
162.2158
0
VERTEX
8
CUT
10
18.2923
20
162.3761
0
VERTEX
8
CUT
10
18.3355
20
162.4150
0
VERTEX
8
CUT
10
18.3525
20
162.4304
0
VERTEX
8
CUT
10
18.5793
20
162.6346
0
VERTEX
8
CUT
10
19.1546
20
163.0144
0
VERTEX
8
CUT
10
20.1775
20
163.3365
0
VERTEX
8
CUT
10
22.4258
20
163.2140
0
VERTEX
8
CUT
10
27.0435
20
161.3958
0
VERTEX
8
CUT
10
28.5086
20
161.0520
0
VERTEX
8
CUT
10
29.8483
20
161.3982
0
VERTEX
8
CUT
10
31.1447
20
162.4438
0
VERTEX
8
CUT
10
31.5168
20
163.2173
0
VERTEX
8
CUT
10
31.5715
20
163.8884
0
VERTEX
8
CUT
10
31.6624
20
164.2462
0
VERTEX
8
CUT
10
31.6080
20
164.3373
0
VERTEX
8
CUT
10
31.6795
20
165.2139
0
VERTEX
8
CUT
10
31.0843
20
168.0483
0
VERTEX
8
CUT
10
29.7136
20
171.8606
0
VERTEX
8
CUT
10
29.3672
20
173.5437
0
VERTEX
8
CUT
10
29.6474
20
178.9704
0
VERTEX
8
CUT
10
29.1207
20
179.4457
0
VERTEX
8
CUT
10
23.1396
20
181.9035
0
VERTEX
8
CUT
10
17.4506
20
184.6878
0
SEQEND
0
POLYLINE
8
CUT
66
1
70
1
10
0.0
20
0.0
30
0.0
0
VERTEX
8
CUT
10
166.7400
20
141.7895
0
VERTEX
8
CUT
10
168.1509
20
134.6849
0
VERTEX
8
CUT
10
169.2689
20
130.6052
0
VERTEX
8
CUT
10
170.7452
20
127.0468
0
VERTEX
8
CUT
10
171.8615
20
125.1119
0
VERTEX
8
CUT
10
174.6678
20
121.5754
0
VERTEX
8
CUT
10
178.1696
20
118.6118
0
VERTEX
8
CUT
10
180.1368
20
117.4128
0
VERTEX
8
CUT
10
184.2178
20
115.6944
0
VERTEX
8
CUT
10
188.6796
20
114.8865
0
VERTEX
8
CUT
10
191.8219
20
114.8559
0
VERTEX
8
CUT
10
196.4792
20
115.5771
0
VERTEX
8
CUT
10
200.5549
20
117.0366
0
VERTEX
8
CUT
10
202.3665
20
117.9863
0
VERTEX
8
CUT
10
203.7379
20
118.9913
0
VERTEX
8
CUT
10
212.9310
20
127.7901
0
VERTEX
8
CUT
10
214.4187
20
128.7095
0
VERTEX
8
CUT
10
216.8057
20
129.5141
0
VERTEX
8
CUT
10
218.2485
20
131.3874
0
VERTEX
8
CUT
10
217.9649
20
131.8659
0
VERTEX
8
CUT
10
214.3628
20
132.1270
0
VERTEX
8
CUT
10
212.7205
20
132.9423
0
VERTEX
8
CUT
10
212.0449
20
133.6454
0
VERTEX
8
CUT
10
211.5224
20
134.5654
0
VERTEX
8
CUT
10
210.4257
20
137.4040
0
VERTEX
8
CUT
10
209.9188
20
137.5281
0
VERTEX
8
CUT
10
209.7159
20
137.2233
0
VERTEX
8
CUT
10
209.6211
20
133.7076
0
VERTEX
8
CUT
10
209.3064
20
131.8656
0
VERTEX
8
CUT
10
208.3163
20
129.1192
0
VERTEX
8
CUT
10
206.8596
20
126.4928
0
VERTEX
8
CUT
10
205.0015
20
124.2388
0
VERTEX
8
CUT
10
203.9219
20
123.2188
0
VERTEX
8
CUT
10
201.4506
20
121.4541
0
VERTEX
8
CUT
10
199.2713
20
120.5073
0
VERTEX
8
CUT
10
198.0497
20
120.2600
0
VERTEX
8
CUT
10
197.1807
20
120.4355
0
VERTEX
8
CUT
10
196.9765
20
120.8369
0
VERTEX
8
CUT
10
197.1693
20
121.2336
0
VERTEX
8
CUT
10
199.8407
20
124.1549
0
VERTEX
8
CUT
10
200.3414
20
124.8862
0
VERTEX
8
CUT
10
200.3811
20
124.9290
0
VERTEX
8
CUT
10
200.4626
20
125.0633
0
VERTEX
8
CUT
10
201.3734
20
126.3934
0
VERTEX
8
CUT
10
201.8635
20
127.7368
0
VERTEX
8
CUT
10
201.9466
20
127.9239
0
VERTEX
8
CUT
10
201.9983
20
128.1065
0
VERTEX
8
CUT
10
202.3527
20
129.0779
0
VERTEX
8
CUT
10
202.6513
20
130.5524
0
VERTEX
8
CUT
10
202.8582
20
133.9646
0
VERTEX
8
CUT
10
202.4960
20
137.8098
0
VERTEX
8
CUT
10
202.4675
20
137.9095
0
VERTEX
8
CUT
10
202.4342
20
138.2477
0
VERTEX
8
CUT
10
202.0084
20
139.8482
0
VERTEX
8
CUT
10
201.7576
20
140.3922
0
VERTEX
8
CUT
10
201.5314
20
141.1830
0
VERTEX
8
CUT
10
200.6538
20
142.7860
0
VERTEX
8
CUT
10
200.6514
20
142.7913
0
VERTEX
8
CUT
10
200.6497
20
142.7936
0
VERTEX
8
CUT
10
199.9691
20
144.0367
0
VERTEX
8
CUT
10
197.9373
20
146.2787
0
VERTEX
8
CUT
10
196.5680
20
147.1640
0
VERTEX
8
CUT
10
196.4537
20
147.2605
0
VERTEX
8
CUT
10
196.2770
20
147.3521
0
VERTEX
8
CUT
10
195.3708
20
147.9380
0
VERTEX
8
CUT
10
194.7502
20
148.1439
0
VERTEX
8
CUT
10
194.5661
20
148.2394
0
VERTEX
8
CUT
10
193.0702
20
148.7128
0
VERTEX
8
CUT
10
193.0324
20
148.7138
0
VERTEX
8
CUT
10
192.4932
20
148.8926
0
VERTEX
8
CUT
10
189.3460
20
149.1000
0
VERTEX
8
CUT
10
187.0780
20
148.7110
0
VERTEX
8
CUT
10
186.6009
20
148.6778
0
VERTEX
8
CUT
10
186.3513
20
148.5864
0
VERTEX
8
CUT
10
185.8423
20
148.4991
0
VERTEX
8
CUT
10
183.4488
20
147.4817
0
VERTEX
8
CUT
10
182.7005
20
146.9230
0
VERTEX
8
CUT
10
182.4986
20
146.8107
0
VERTEX
8
CUT
10
182.2103
20
146.5571
0
VERTEX
8
CUT
10
181.3236
20
145.8950
0
VERTEX
8
CUT
10
180.8931
20
145.3982
0
VERTEX
8
CUT
10
180.2842
20
144.8625
0
VERTEX
8
CUT
10
179.6313
20
143.9418
0
VERTEX
8
CUT
10
179.5822
20
143.8852
0
VERTEX
8
CUT
10
179.5437
20
143.8184
0
VERTEX
8
CUT
10
179.0933
20
143.1833
0
VERTEX
8
CUT
10
178.7894
20
142.5084
0
VERTEX
8
CUT
10
178.2152
20
141.5114
0
VERTEX
8
CUT
10
177.2289
20
138.7379
0
VERTEX
8
CUT
10
176.7535
20
135.8488
0
VERTEX
8
CUT
10
176.7431
20
134.8278
0
VERTEX
8
CUT
10
176.6616
20
134.0817
0
VERTEX
8
CUT
10
176.7291
20
133.4547
0
VERTEX
8
CUT
10
176.7225
20
132.8065
0
VERTEX
8
CUT
10
176.9517
20
131.3888
0
VERTEX
8
CUT
10
176.9660
20
131.2561
0
VERTEX
8
CUT
10
176.9832
20
131.1939
0
VERTEX
8
CUT
10
177.2322
20
129.6528
0
VERTEX
8
CUT
10
178.3216
20
126.4688
0
VERTEX
8
CUT
10
181.5791
20
121.9038
0
VERTEX
8
CUT
10
181.6225
20
121.5669
0
VERTEX
8
CUT
10
181.4191
20
121.2422
0
VERTEX
8
CUT
10
180.9417
20
120.9949
0
VERTEX
8
CUT
10
180.4112
20
121.0322
0
VERTEX
8
CUT
10
177.1871
20
123.1919
0
VERTEX
8
CUT
10
174.7842
20
125.5946
0
VERTEX
8
CUT
10
172.8637
20
128.3687
0
VERTEX
8
CUT
10
172.0630
20
129.8750
0
VERTEX
8
CUT
10
170.9075
20
133.1537
0
VERTEX
8
CUT
10
170.5096
20
136.3413
0
VERTEX
8
CUT
10
170.5700
20
139.9861
0
VERTEX
8
CUT
10
170.9068
20
142.1435
0
VERTEX
8
CUT
10
171.5519
20
144.2122
0
VERTEX
8
CUT
10
172.4666
20
146.2310
0
VERTEX
8
CUT
10
173.6104
20
148.1111
0
VERTEX
8
CUT
10
174.9674
20
149.8342
0
VERTEX
8
CUT
10
177.5333
20
152.3780
0
VERTEX
8
CUT
10
177.3606
20
152.7072
0
VERTEX
8
CUT
10
176.9905
20
152.7416
0
VERTEX
8
CUT
10
174.1305
20
150.8787
0
VERTEX
8
CUT
10
173.1932
20
150.5684
0
VERTEX
8
CUT
10
172.4057
20
150.7534
0
VERTEX
8
CUT
10
171.2895
20
151.9117
0
VERTEX
8
CUT
10
170.9679
20
153.1609
0
VERTEX
8
CUT
10
171.0590
20
155.2195
0
VERTEX
8
CUT
10
172.3753
20
160.8309
0
VERTEX
8
CUT
10
172.5794
20
162.4246
0
VERTEX
8
CUT
10
172.2469
20
163.9575
0
VERTEX
8
CUT
10
171.9084
20
164.5328
0
VERTEX
8
CUT
10
171.1279
20
165.0661
0
VERTEX
8
CUT
10
170.1591
20
164.9980
0
VERTEX
8
CUT
10
169.5823
20
164.5872
0
VERTEX
8
CUT
10
169.0835
20
163.8936
0
VERTEX
8
CUT
10
168.8305
20
162.9492
0
VERTEX
8
CUT
10
169.0992
20
154.8638
0
VERTEX
8
CUT
10
168.8544
20
152.6476
0
VERTEX
8
CUT
10
168.2995
20
150.6322
0
VERTEX
8
CUT
10
167.3101
20
148.4913
0
VERTEX
8
CUT
10
166.6975
20
147.7096
0
VERTEX
8
CUT
10
165.9840
20
147.2914
0
VERTEX
8
CUT
10
164.6044
20
147.0731
0
VERTEX
8
CUT
10
164.3801
20
146.7915
0
VERTEX
8
CUT
10
164.4533
20
146.3406
0
VERTEX
8
CUT
10
165.7869
20
144.2180
0
SEQEND
0
POLYLINE
8
CUT
66
1
70
1
10
0.0
20
0.0
30
0.0
0
VERTEX
8
CUT
10
195.9050
20
181.8180
0
VERTEX
8
CUT
10
195.0817
20
181.5436
0
VERTEX
8
CUT
10
195.1122
20
181.2082
0
VERTEX
8
CUT
10
195.6306
20
180.9033
0
VERTEX
8
CUT
10
197.9479
20
180.7203
0
VERTEX
8
CUT
10
198.1004
20
180.8728
0
VERTEX
8
CUT
10
197.9479
20
181.3301
0
VERTEX
8
CUT
10
197.1552
20
181.6960
0
SEQEND
0
POLYLINE
8
CUT
66
1
70
1
10
0.0
20
0.0
30
0.0
0
VERTEX
8
CUT
10
138.5807
20
177.5187
0
VERTEX
8
CUT
10
138.1843
20
177.4272
0
VERTEX
8
CUT
10
136.5987
20
176.2380
0
VERTEX
8
CUT
10
135.7145
20
175.9026
0
VERTEX
8
CUT
10
135.5925
20
175.5672
0
VERTEX
8
CUT
10
135.7755
20
175.2013
0
VERTEX
8
CUT
10
136.5682
20
175.2318
0
VERTEX
8
CUT
10
137.3000
20
175.6587
0
VERTEX
8
CUT
10
138.2453
20
176.5735
0
VERTEX
8
CUT
10
138.5807
20
177.0613
0
SEQEND
0
POLYLINE
8
CUT
66
1
70
1
10
0.0
20
0.0
30
0.0
0
VERTEX
8
CUT
10
73.1539
20
128.8109
0
VERTEX
8
CUT
10
75.6804
20
128.0476
0
VERTEX
8
CUT
10
77.1372
20
127.1058
0
VERTEX
8
CUT
10
82.1983
20
122.2021
0
VERTEX
8
CUT
10
85.2063
20
119.5601
0
VERTEX
8
CUT
10
87.8986
20
117.7481
0
VERTEX
8
CUT
10
92.4374
20
115.8552
0
VERTEX
8
CUT
10
95.5222
20
115.0977
0
VERTEX
8
CUT
10
98.7310
20
114.7028
0
VERTEX
8
CUT
10
103.3774
20
114.8510
0
VERTEX
8
CUT
10
107.1419
20
115.8211
0
VERTEX
8
CUT
10
109.5983
20
116.8232
0
VERTEX
8
CUT
10
111.5855
20
117.9102
0
VERTEX
8
CUT
10
113.9702
20
119.8785
0
VERTEX
8
CUT
10
116.1431
20
122.1752
0
VERTEX
8
CUT
10
117.3485
20
123.7450
0
VERTEX
8
CUT
10
119.2605
20
127.0907
0
VERTEX
8
CUT
10
120.6343
20
131.1756
0
VERTEX
8
CUT
10
122.4905
20
140.5203
0
VERTEX
8
CUT
10
124.4625
20
144.9927
0
VERTEX
8
CUT
10
124.3454
20
145.5172
0
VERTEX
8
CUT
10
122.9314
20
146.0084
0
VERTEX
8
CUT
10
121.5256
20
147.6258
0
VERTEX
8
CUT
10
120.7246
20
149.2548
0
VERTEX
8
CUT
10
120.1759
20
151.0841
0
VERTEX
8
CUT
10
119.8322
20
153.2366
0
VERTEX
8
CUT
10
119.7102
20
155.6465
0
VERTEX
8
CUT
10
120.0760
20
162.7415
0
VERTEX
8
CUT
10
119.7144
20
163.7232
0
VERTEX
8
CUT
10
118.8440
20
164.7287
0
VERTEX
8
CUT
10
117.8518
20
165.1069
0
VERTEX
8
CUT
10
116.8892
20
164.6400
0
VERTEX
8
CUT
10
116.4264
20
163.7339
0
VERTEX
8
CUT
10
116.2883
20
162.3796
0
VERTEX
8
CUT
10
116.4359
20
160.6715
0
VERTEX
8
CUT
10
117.3792
20
156.7740
0
VERTEX
8
CUT
10
117.7498
20
154.0951
0
VERTEX
8
CUT
10
117.7479
20
152.8160
0
VERTEX
8
CUT
10
117.4084
20
152.0606
0
VERTEX
8
CUT
10
116.5447
20
151.3259
0
VERTEX
8
CUT
10
115.8389
20
151.1799
0
VERTEX
8
CUT
10
114.9333
20
151.5123
0
VERTEX
8
CUT
10
112.2723
20
153.0646
0
VERTEX
8
CUT
10
111.9406
20
153.0480
0
VERTEX
8
CUT
10
111.7423
20
152.7816
0
VERTEX
8
CUT
10
111.8469
20
152.4307
0
VERTEX
8
CUT
10
113.9186
20
150.7005
0
VERTEX
8
CUT
10
115.4045
20
149.0037
0
VERTEX
8
CUT
10
116.6725
20
147.1229
0
VERTEX
8
CUT
10
117.7221
20
145.0913
0
VERTEX
8
CUT
10
118.5424
20
142.8175
0
VERTEX
8
CUT
10
119.1174
20
140.0336
0
VERTEX
8
CUT
10
119.2445
20
137.1099
0
VERTEX
8
CUT
10
118.9306
20
134.1252
0
VERTEX
8
CUT
10
118.2185
20
131.3237
0
VERTEX
8
CUT
10
117.1495
20
128.6996
0
VERTEX
8
CUT
10
115.7298
20
126.3233
0
VERTEX
8
CUT
10
114.0182
20
124.3045
0
VERTEX
8
CUT
10
112.0107
20
122.7214
0
VERTEX
8
CUT
10
110.7217
20
122.0094
0
VERTEX
8
CUT
10
109.3361
20
121.5476
0
VERTEX
8
CUT
10
108.7356
20
121.6491
0
VERTEX
8
CUT
10
108.5558
20
121.9775
0
VERTEX
8
CUT
10
111.4609
20
126.0992
0
VERTEX
8
CUT
10
112.7070
20
129.2908
0
VERTEX
8
CUT
10
113.0338
20
131.3283
0
VERTEX
8
CUT
10
113.0829
20
132.7866
0
VERTEX
8
CUT
10
113.0893
20
132.8332
0
VERTEX
8
CUT
10
113.0883
20
132.9467
0
VERTEX
8
CUT
10
113.1235
20
133.9918
0
VERTEX
8
CUT
10
113.0740
20
134.4868
0
VERTEX
8
CUT
10
113.0634
20
135.6383
0
VERTEX
8
CUT
10
112.8160
20
137.2219
0
VERTEX
8
CUT
10
112.7934
20
137.6372
0
VERTEX
8
CUT
10
112.7336
20
137.8942
0
VERTEX
8
CUT
10
112.6347
20
138.8836
0
VERTEX
8
CUT
10
111.5861
20
141.8143
0
VERTEX
8
CUT
10
111.4278
20
142.0808
0
VERTEX
8
CUT
10
110.5954
20
143.5876
0
VERTEX
8
CUT
10
110.3204
20
143.9455
0
VERTEX
8
CUT
10
110.0861
20
144.3401
0
VERTEX
8
CUT
10
109.7111
20
144.7386
0
VERTEX
8
CUT
10
109.4183
20
145.1197
0
VERTEX
8
CUT
10
108.9301
20
145.5686
0
VERTEX
8
CUT
10
108.2552
20
146.2858
0
VERTEX
8
CUT
10
106.1063
20
147.7604
0
VERTEX
8
CUT
10
104.4689
20
148.4047
0
VERTEX
8
CUT
10
104.4042
20
148.4397
0
VERTEX
8
CUT
10
104.3491
20
148.4519
0
VERTEX
8
CUT
10
103.6131
20
148.7415
0
VERTEX
8
CUT
10
100.9464
20
149.1312
0
VERTEX
8
CUT
10
98.1305
20
148.9261
0
VERTEX
8
CUT
10
97.5224
20
148.7366
0
VERTEX
8
CUT
10
96.2797
20
148.5003
0
VERTEX
8
CUT
10
95.0771
20
147.9747
0
VERTEX
8
CUT
10
94.1387
20
147.6823
0
VERTEX
8
CUT
10
92.3502
20
146.5148
0
VERTEX
8
CUT
10
90.7670
20
144.9568
0
VERTEX
8
CUT
10
90.3587
20
144.3749
0
VERTEX
8
CUT
10
89.9507
20
143.9365
0
VERTEX
8
CUT
10
89.5828
20
143.2689
0
VERTEX
8
CUT
10
89.4196
20
143.0363
0
VERTEX
8
CUT
10
89.2170
20
142.6051
0
VERTEX
8
CUT
10
88.4557
20
141.2236
0
VERTEX
8
CUT
10
88.2473
20
140.5414
0
VERTEX
8
CUT
10
87.9425
20
139.8928
0
VERTEX
8
CUT
10
87.2252
20
137.0419
0
VERTEX
8
CUT
10
87.1511
20
135.8644
0
VERTEX
8
CUT
10
87.0761
20
135.3658
0
VERTEX
8
CUT
10
87.0657
20
134.5096
0
VERTEX
8
CUT
10
87.0162
20
133.7220
0
VERTEX
8
CUT
10
87.0521
20
133.3776
0
VERTEX
8
CUT
10
87.0465
20
132.9099
0
VERTEX
8
CUT
10
87.2841
20
130.5095
0
VERTEX
8
CUT
10
87.3945
20
130.0974
0
VERTEX
8
CUT
10
87.4342
20
129.7166
0
VERTEX
8
CUT
10
87.9430
20
127.9392
0
VERTEX
8
CUT
10
88.5972
20
126.6199
0
VERTEX
8
CUT
10
88.7614
20
126.2392
0
VERTEX
8
CUT
10
88.8725
20
126.0646
0
VERTEX
8
CUT
10
89.5282
20
124.7423
0
VERTEX
8
CUT
10
90.5581
20
123.4497
0
VERTEX
8
CUT
10
91.7315
20
122.3918
0
VERTEX
8
CUT
10
94.0973
20
120.7605
0
VERTEX
8
CUT
10
94.3331
20
120.2897
0
VERTEX
8
CUT
10
94.0968
20
119.9165
0
VERTEX
8
CUT
10
92.4805
20
119.9011
0
VERTEX
8
CUT
10
89.1701
20
121.0497
0
VERTEX
8
CUT
10
86.4553
20
122.6272
0
VERTEX
8
CUT
10
84.9948
20
123.8141
0
VERTEX
8
CUT
10
83.7698
20
125.1937
0
VERTEX
8
CUT
10
82.1450
20
127.5548
0
VERTEX
8
CUT
10
81.0837
20
129.7465
0
VERTEX
8
CUT
10
80.1693
20
133.3732
0
VERTEX
8
CUT
10
80.0116
20
137.1574
0
VERTEX
8
CUT
10
79.8112
20
137.4619
0
VERTEX
8
CUT
10
79.2847
20
137.3120
0
VERTEX
8
CUT
10
78.2687
20
134.2720
0
VERTEX
8
CUT
10
77.6667
20
133.3551
0
VERTEX
8
CUT
10
76.9051
20
132.6241
0
VERTEX
8
CUT
10
75.0441
20
131.6359
0
VERTEX
8
CUT
10
73.9473
20
131.3886
0
VERTEX
8
CUT
10
71.5307
20
131.2365
0
VERTEX
8
CUT
10
71.2516
20
131.0056
0
VERTEX
8
CUT
10
71.2645
20
130.6773
0
VERTEX
8
CUT
10
72.5030
20
129.2121
0
SEQEND
0
POLYLINE
8
CUT
66
1
70
1
10
0.0
20
0.0
30
0.0
0
VERTEX
8
CUT
10
94.3373
20
182.0924
0
VERTEX
8
CUT
10
92.5993
20
182.0010
0
VERTEX
8
CUT
10
87.8426
20
181.1777
0
VERTEX
8
CUT
10
79.7928
20
180.2934
0
VERTEX
8
CUT
10
79.4879
20
179.9275
0
VERTEX
8
CUT
10
79.5793
20
179.3787
0
VERTEX
8
CUT
10
92.9652
20
180.8423
0
VERTEX
8
CUT
10
94.3983
20
181.1777
0
VERTEX
8
CUT
10
94.7337
20
181.7265
0
SEQEND
0
POLYLINE
8
CUT
66
1
70
1
10
0.0
20
0.0
30
0.0
0
VERTEX
8
CUT
10
86.7449
20
193.0999
0
VERTEX
8
CUT
10
85.9216
20
192.8255
0
VERTEX
8
CUT
10
85.9521
20
192.4901
0
VERTEX
8
CUT
10
86.4705
20
192.1852
0
VERTEX
8
CUT
10
88.7878
20
192.0022
0
VERTEX
8
CUT
10
88.9403
20
192.1547
0
VERTEX
8
CUT
10
88.7878
20
192.6121
0
VERTEX
8
CUT
10
87.9950
20
192.9780
0
SEQEND
0
POLYLINE
8
CUT
66
1
70
1
10
0.0
20
0.0
30
0.0
0
VERTEX
8
CUT
10
65.6142
20
158.3699
0
VERTEX
8
CUT
10
66.8948
20
157.3332
0
VERTEX
8
CUT
10
67.7181
20
157.1503
0
VERTEX
8
CUT
10
68.2364
20
157.2722
0
VERTEX
8
CUT
10
68.8158
20
157.7601
0
VERTEX
8
CUT
10
67.7181
20
158.0955
0
SEQEND
0
POLYLINE
8
CUT
66
1
70
1
10
0.0
20
0.0
30
0.0
0
VERTEX
8
CUT
10
56.1008
20
154.7414
0
VERTEX
8
CUT
10
55.4300
20
154.5280
0
VERTEX
8
CUT
10
54.2103
20
153.7047
0
VERTEX
8
CUT
10
53.2955
20
153.4913
0
VERTEX
8
CUT
10
52.3503
20
153.5827
0
VERTEX
8
CUT
10
50.5818
20
154.3145
0
VERTEX
8
CUT
10
50.2769
20
154.2231
0
VERTEX
8
CUT
10
50.4598
20
153.4303
0
VERTEX
8
CUT
10
51.5880
20
152.6070
0
VERTEX
8
CUT
10
53.2650
20
151.9362
0
VERTEX
8
CUT
10
55.0641
20
152.7900
0
VERTEX
8
CUT
10
55.9483
20
153.6742
0
VERTEX
8
CUT
10
56.1922
20
154.2536
0
SEQEND
0
POLYLINE
8
CUT
66
1
70
1
10
0.0
20
0.0
30
0.0
0
VERTEX
8
CUT
10
48.5998
20
56.9852
0
VERTEX
8
CUT
10
46.1300
20
55.7350
0
VERTEX
8
CUT
10
44.1480
20
55.7960
0
VERTEX
8
CUT
10
43.8431
20
55.6436
0
VERTEX
8
CUT
10
43.9956
20
55.3081
0
VERTEX
8
CUT
10
45.0323
20
54.6373
0
VERTEX
8
CUT
10
45.7031
20
54.4239
0
VERTEX
8
CUT
10
46.6179
20
54.5459
0
VERTEX
8
CUT
10
47.3802
20
54.9422
0
VERTEX
8
CUT
10
48.2339
20
55.7350
0
VERTEX
8
CUT
10
48.6913
20
56.5888
0
SEQEND
0
ENDSEC
0
EOF
