0
SECTION
2
HEADER
9
$ACADVER
1
AC1009
9
$INSUNITS
70
4
0
ENDSEC
0
SECTION
2
TABLES
0
TABLE
2
LAYER
70
1
0
LAYER
2
CUT
70
0
62
7
6
CONTINUOUS
0
ENDTAB
0
ENDSEC
0
SECTION
2
ENTITIES
0
POLYLINE
8
CUT
66
1
70
1
10
0.0
20
0.0
30
0.0
0
VERTEX
8
CUT
10
253.2362
20
0.0000
0
VERTEX
8
CUT
10
249.7019
20
0.4942
0
VERTEX
8
CUT
10
244.4930
20
1.8744
0
VERTEX
8
CUT
10
239.3048
20
3.9803
0
VERTEX
8
CUT
10
233.9050
20
6.8946
0
VERTEX
8
CUT
10
229.3535
20
9.8580
0
VERTEX
8
CUT
10
223.6496
20
14.0978
0
VERTEX
8
CUT
10
203.6782
20
30.7150
0
VERTEX
8
CUT
10
200.6573
20
32.9421
0
VERTEX
8
CUT
10
197.7377
20
34.6134
0
VERTEX
8
CUT
10
196.3313
20
34.8808
0
VERTEX
8
CUT
10
190.5569
20
34.3952
0
VERTEX
8
CUT
10
188.7878
20
34.5214
0
VERTEX
8
CUT
10
187.3585
20
35.0298
0
VERTEX
8
CUT
10
182.2345
20
37.6798
0
VERTEX
8
CUT
10
180.8667
20
38.0503
0
VERTEX
8
CUT
10
179.4136
20
38.0854
0
VERTEX
8
CUT
10
178.0652
20
37.8259
0
VERTEX
8
CUT
10
177.2465
20
37.4534
0
VERTEX
8
CUT
10
173.6351
20
34.2966
0
VERTEX
8
CUT
10
172.2831
20
33.5359
0
VERTEX
8
CUT
10
170.8284
20
33.1761
0
VERTEX
8
CUT
10
169.2975
20
33.2415
0
VERTEX
8
CUT
10
168.0725
20
33.5478
0
VERTEX
8
CUT
10
166.8466
20
34.1284
0
VERTEX
8
CUT
10
162.3385
20
37.8038
0
VERTEX
8
CUT
10
160.5940
20
38.9131
0
VERTEX
8
CUT
10
158.6950
20
39.8140
0
VERTEX
8
CUT
10
154.1677
20
41.0469
0
VERTEX
8
CUT
10
148.2281
20
41.5909
0
VERTEX
8
CUT
10
139.1391
20
41.4992
0
VERTEX
8
CUT
10
134.8470
20
40.9857
0
VERTEX
8
CUT
10
132.2833
20
40.4056
0
VERTEX
8
CUT
10
130.1920
20
39.7357
0
VERTEX
8
CUT
10
128.4258
20
38.8651
0
VERTEX
8
CUT
10
126.7801
20
37.7255
0
VERTEX
8
CUT
10
122.7089
20
34.1180
0
VERTEX
8
CUT
10
121.4764
20
33.3978
0
VERTEX
8
CUT
10
119.5110
20
32.9058
0
VERTEX
8
CUT
10
117.2688
20
33.0243
0
VERTEX
8
CUT
10
115.9120
20
33.5540
0
VERTEX
8
CUT
10
111.6394
20
36.9523
0
VERTEX
8
CUT
10
109.7567
20
37.6221
0
VERTEX
8
CUT
10
107.6566
20
37.3058
0
VERTEX
8
CUT
10
106.3014
20
36.7973
0
VERTEX
8
CUT
10
101.3304
20
34.2771
0
VERTEX
8
CUT
10
94.2551
20
34.8803
0
VERTEX
8
CUT
10
92.6099
20
34.7613
0
VERTEX
8
CUT
10
89.3102
20
33.0632
0
VERTEX
8
CUT
10
86.6545
20
31.1411
0
VERTEX
8
CUT
10
71.4152
20
18.4008
0
VERTEX
8
CUT
10
65.5049
20
13.6481
0
VERTEX
8
CUT
10
60.2671
20
9.7890
0
VERTEX
8
CUT
10
55.6433
20
6.7470
0
VERTEX
8
CUT
10
51.3916
20
4.4208
0
VERTEX
8
CUT
10
47.3511
20
2.6742
0
VERTEX
8
CUT
10
43.3658
20
1.4454
0
VERTEX
8
CUT
10
39.2880
20
0.6460
0
VERTEX
8
CUT
10
35.2880
20
0.2443
0
VERTEX
8
CUT
10
31.6546
20
0.3351
0
VERTEX
8
CUT
10
28.2425
20
0.8906
0
VERTEX
8
CUT
10
25.1604
20
1.9079
0
VERTEX
8
CUT
10
22.4142
20
3.3891
0
VERTEX
8
CUT
10
20.0064
20
5.3031
0
VERTEX
8
CUT
10
17.9861
20
7.6274
0
VERTEX
8
CUT
10
15.6931
20
11.8582
0
VERTEX
8
CUT
10
14.4285
20
15.9843
0
VERTEX
8
CUT
10
14.0259
20
19.1133
0
VERTEX
8
CUT
10
13.9650
20
25.7292
0
VERTEX
8
CUT
10
14.4246
20
31.4636
0
VERTEX
8
CUT
10
15.5839
20
39.0597
0
VERTEX
8
CUT
10
21.4996
20
69.5536
0
VERTEX
8
CUT
10
22.2885
20
74.7669
0
VERTEX
8
CUT
10
22.3501
20
78.7545
0
VERTEX
8
CUT
10
21.9660
20
82.0615
0
VERTEX
8
CUT
10
21.1749
20
84.0746
0
VERTEX
8
CUT
10
18.5074
20
88.8326
0
VERTEX
8
CUT
10
17.5864
20
90.9166
0
VERTEX
8
CUT
10
17.0184
20
92.9249
0
VERTEX
8
CUT
10
16.8012
20
94.8222
0
VERTEX
8
CUT
10
16.9568
20
96.6607
0
VERTEX
8
CUT
10
17.4620
20
98.5150
0
VERTEX
8
CUT
10
18.3028
20
100.4051
0
VERTEX
8
CUT
10
20.9580
20
104.7466
0
VERTEX
8
CUT
10
21.1639
20
105.6427
0
VERTEX
8
CUT
10
21.1622
20
107.8622
0
VERTEX
8
CUT
10
20.6895
20
109.7421
0
VERTEX
8
CUT
10
19.4155
20
111.7288
0
VERTEX
8
CUT
10
12.0923
20
119.3591
0
VERTEX
8
CUT
10
9.7396
20
122.4694
0
VERTEX
8
CUT
10
9.1188
20
124.3115
0
VERTEX
8
CUT
10
8.9079
20
126.8248
0
VERTEX
8
CUT
10
9.4766
20
129.0135
0
VERTEX
8
CUT
10
11.5453
20
132.6669
0
VERTEX
8
CUT
10
11.9744
20
133.7507
0
VERTEX
8
CUT
10
12.1596
20
134.8189
0
VERTEX
8
CUT
10
12.0453
20
135.9115
0
VERTEX
8
CUT
10
11.6187
20
137.1211
0
VERTEX
8
CUT
10
9.8344
20
140.0326
0
VERTEX
8
CUT
10
4.1997
20
147.6336
0
VERTEX
8
CUT
10
1.9716
20
152.1204
0
VERTEX
8
CUT
10
0.6124
20
156.2619
0
VERTEX
8
CUT
10
0.1527
20
159.0270
0
VERTEX
8
CUT
10
0.0000
20
161.8666
0
VERTEX
8
CUT
10
0.2439
20
165.3042
0
VERTEX
8
CUT
10
0.5953
20
166.8365
0
VERTEX
8
CUT
10
1.6671
20
169.2857
0
VERTEX
8
CUT
10
2.4607
20
170.3690
0
VERTEX
8
CUT
10
6.5194
20
173.7622
0
VERTEX
8
CUT
10
7.0349
20
174.6914
0
VERTEX
8
CUT
10
7.5008
20
176.6481
0
VERTEX
8
CUT
10
7.4056
20
178.3942
0
VERTEX
8
CUT
10
6.8349
20
180.5467
0
VERTEX
8
CUT
10
3.3680
20
188.2370
0
VERTEX
8
CUT
10
1.5657
20
193.1247
0
VERTEX
8
CUT
10
0.7955
20
197.2723
0
VERTEX
8
CUT
10
0.7967
20
200.7345
0
VERTEX
8
CUT
10
1.4684
20
203.7276
0
VERTEX
8
CUT
10
2.8776
20
206.3672
0
VERTEX
8
CUT
10
4.9642
20
208.4231
0
VERTEX
8
CUT
10
6.1246
20
209.1436
0
VERTEX
8
CUT
10
7.3253
20
209.5856
0
VERTEX
8
CUT
10
8.5588
20
209.7441
0
VERTEX
8
CUT
10
9.7902
20
209.6533
0
VERTEX
8
CUT
10
11.0785
20
209.3034
0
VERTEX
8
CUT
10
12.3319
20
208.6772
0
VERTEX
8
CUT
10
15.9284
20
206.1372
0
VERTEX
8
CUT
10
16.9236
20
205.6829
0
VERTEX
8
CUT
10
18.4839
20
205.5422
0
VERTEX
8
CUT
10
19.0808
20
205.8124
0
VERTEX
8
CUT
10
19.5943
20
206.3254
0
VERTEX
8
CUT
10
20.2264
20
207.6948
0
VERTEX
8
CUT
10
20.3670
20
210.1450
0
VERTEX
8
CUT
10
20.0638
20
212.5606
0
VERTEX
8
CUT
10
18.1767
20
221.8135
0
VERTEX
8
CUT
10
17.7155
20
226.4028
0
VERTEX
8
CUT
10
17.9962
20
233.3705
0
VERTEX
8
CUT
10
18.4000
20
235.0701
0
VERTEX
8
CUT
10
19.3133
20
237.2627
0
VERTEX
8
CUT
10
21.1273
20
239.8961
0
VERTEX
8
CUT
10
23.2949
20
241.5109
0
VERTEX
8
CUT
10
24.5569
20
241.9382
0
VERTEX
8
CUT
10
25.8174
20
242.0935
0
VERTEX
8
CUT
10
27.2375
20
241.9693
0
VERTEX
8
CUT
10
28.4854
20
241.4403
0
VERTEX
8
CUT
10
30.4037
20
239.8576
0
VERTEX
8
CUT
10
32.0273
20
237.7748
0
VERTEX
8
CUT
10
33.6250
20
235.1980
0
VERTEX
8
CUT
10
35.2479
20
233.4801
0
VERTEX
8
CUT
10
37.1269
20
232.7070
0
VERTEX
8
CUT
10
37.8248
20
232.7879
0
VERTEX
8
CUT
10
38.5494
20
233.2305
0
VERTEX
8
CUT
10
39.6882
20
234.6042
0
VERTEX
8
CUT
10
40.0653
20
236.0242
0
VERTEX
8
CUT
10
40.0656
20
238.2255
0
VERTEX
8
CUT
10
39.4878
20
244.7591
0
VERTEX
8
CUT
10
39.4258
20
247.6679
0
VERTEX
8
CUT
10
39.5778
20
250.3052
0
VERTEX
8
CUT
10
39.9541
20
252.7461
0
VERTEX
8
CUT
10
40.5273
20
254.8581
0
VERTEX
8
CUT
10
41.3266
20
256.8033
0
VERTEX
8
CUT
10
42.3474
20
258.5435
0
VERTEX
8
CUT
10
43.6752
20
260.1575
0
VERTEX
8
CUT
10
45.3497
20
261.6491
0
VERTEX
8
CUT
10
46.2618
20
262.2654
0
VERTEX
8
CUT
10
48.0917
20
263.0279
0
VERTEX
8
CUT
10
50.0653
20
263.3777
0
VERTEX
8
CUT
10
52.4848
20
263.2221
0
VERTEX
8
CUT
10
54.8099
20
262.3266
0
VERTEX
8
CUT
10
55.8970
20
261.5346
0
VERTEX
8
CUT
10
57.6071
20
259.3971
0
VERTEX
8
CUT
10
60.6263
20
253.2415
0
VERTEX
8
CUT
10
62.5181
20
251.0139
0
VERTEX
8
CUT
10
63.6163
20
250.2574
0
VERTEX
8
CUT
10
66.0162
20
249.4133
0
VERTEX
8
CUT
10
67.4151
20
249.2952
0
VERTEX
8
CUT
10
69.6790
20
249.6536
0
VERTEX
8
CUT
10
70.9839
20
250.2530
0
VERTEX
8
CUT
10
72.7011
20
251.7990
0
VERTEX
8
CUT
10
73.4729
20
252.7952
0
VERTEX
8
CUT
10
74.4293
20
255.0605
0
VERTEX
8
CUT
10
74.7386
20
256.5752
0
VERTEX
8
CUT
10
74.9479
20
260.4735
0
VERTEX
8
CUT
10
74.5215
20
272.0660
0
VERTEX
8
CUT
10
74.8881
20
276.3927
0
VERTEX
8
CUT
10
75.3030
20
278.1683
0
VERTEX
8
CUT
10
76.6922
20
281.0029
0
VERTEX
8
CUT
10
78.3220
20
282.9124
0
VERTEX
8
CUT
10
79.7214
20
284.0062
0
VERTEX
8
CUT
10
81.2308
20
284.7467
0
VERTEX
8
CUT
10
82.8754
20
285.1203
0
VERTEX
8
CUT
10
84.8754
20
285.1187
0
VERTEX
8
CUT
10
86.9556
20
284.5813
0
VERTEX
8
CUT
10
88.6973
20
283.3729
0
VERTEX
8
CUT
10
89.5173
20
282.4652
0
VERTEX
8
CUT
10
92.3495
20
278.1946
0
VERTEX
8
CUT
10
94.1792
20
276.3052
0
VERTEX
8
CUT
10
96.0860
20
275.3214
0
VERTEX
8
CUT
10
96.9002
20
275.1472
0
VERTEX
8
CUT
10
98.6274
20
275.2140
0
VERTEX
8
CUT
10
101.0693
20
276.0861
0
VERTEX
8
CUT
10
102.7184
20
277.5130
0
VERTEX
8
CUT
10
104.1154
20
280.1759
0
VERTEX
8
CUT
10
104.9949
20
283.7615
0
VERTEX
8
CUT
10
106.2513
20
286.7658
0
VERTEX
8
CUT
10
107.0728
20
287.8788
0
VERTEX
8
CUT
10
108.8015
20
289.0831
0
VERTEX
8
CUT
10
110.2090
20
289.5970
0
VERTEX
8
CUT
10
111.6878
20
289.7530
0
VERTEX
8
CUT
10
113.7767
20
289.4042
0
VERTEX
8
CUT
10
115.5716
20
288.1514
0
VERTEX
8
CUT
10
117.6804
20
285.7100
0
VERTEX
8
CUT
10
119.3195
20
284.3964
0
VERTEX
8
CUT
10
121.0054
20
283.8733
0
VERTEX
8
CUT
10
122.8464
20
284.1066
0
VERTEX
8
CUT
10
124.3230
20
284.7675
0
VERTEX
8
CUT
10
125.3916
20
285.6806
0
VERTEX
8
CUT
10
127.0498
20
287.9641
0
VERTEX
8
CUT
10
129.3390
20
291.9605
0
VERTEX
8
CUT
10
130.5087
20
293.5341
0
VERTEX
8
CUT
10
133.2195
20
296.1896
0
VERTEX
8
CUT
10
134.7971
20
297.3252
0
VERTEX
8
CUT
10
138.1183
20
299.0011
0
VERTEX
8
CUT
10
139.9874
20
299.5717
0
VERTEX
8
CUT
10
143.5203
20
300.0000
0
VERTEX
8
CUT
10
147.6152
20
299.9084
0
VERTEX
8
CUT
10
149.7983
20
299.5716
0
VERTEX
8
CUT
10
151.5052
20
299.0357
0
VERTEX
8
CUT
10
153.0817
20
298.3842
0
VERTEX
8
CUT
10
155.9474
20
296.6464
0
VERTEX
8
CUT
10
158.7482
20
294.0655
0
VERTEX
8
CUT
10
164.2619
20
287.3662
0
VERTEX
8
CUT
10
165.7962
20
286.2076
0
VERTEX
8
CUT
10
166.6111
20
285.8307
0
VERTEX
8
CUT
10
168.2394
20
285.4554
0
VERTEX
8
CUT
10
169.4251
20
285.5177
0
VERTEX
8
CUT
10
170.5543
20
285.8274
0
VERTEX
8
CUT
10
171.7346
20
286.5227
0
VERTEX
8
CUT
10
174.4616
20
288.8259
0
VERTEX
8
CUT
10
175.3862
20
289.2042
0
VERTEX
8
CUT
10
177.1068
20
289.3224
0
VERTEX
8
CUT
10
178.8389
20
288.5400
0
VERTEX
8
CUT
10
180.0744
20
287.4314
0
VERTEX
8
CUT
10
180.9368
20
285.8310
0
VERTEX
8
CUT
10
181.9681
20
281.2512
0
VERTEX
8
CUT
10
182.9113
20
279.0187
0
VERTEX
8
CUT
10
184.3527
20
277.4600
0
VERTEX
8
CUT
10
186.2199
20
276.6720
0
VERTEX
8
CUT
10
187.3174
20
276.5567
0
VERTEX
8
CUT
10
189.0410
20
276.8332
0
VERTEX
8
CUT
10
190.5768
20
277.8091
0
VERTEX
8
CUT
10
191.8911
20
279.5460
0
VERTEX
8
CUT
10
194.0149
20
284.2201
0
VERTEX
8
CUT
10
195.1768
20
285.9343
0
VERTEX
8
CUT
10
196.5994
20
287.3011
0
VERTEX
8
CUT
10
198.1005
20
288.2525
0
VERTEX
8
CUT
10
199.7884
20
288.8336
0
VERTEX
8
CUT
10
201.6153
20
288.9612
0
VERTEX
8
CUT
10
203.4900
20
288.6800
0
VERTEX
8
CUT
10
205.4412
20
287.9224
0
VERTEX
8
CUT
10
207.4275
20
286.6083
0
VERTEX
8
CUT
10
209.1730
20
284.6540
0
VERTEX
8
CUT
10
210.5690
20
282.1820
0
VERTEX
8
CUT
10
211.1408
20
280.6932
0
VERTEX
8
CUT
10
211.7538
20
278.5131
0
VERTEX
8
CUT
10
212.0314
20
276.4666
0
VERTEX
8
CUT
10
211.9399
20
264.6675
0
VERTEX
8
CUT
10
212.1247
20
260.3119
0
VERTEX
8
CUT
10
212.7405
20
257.6658
0
VERTEX
8
CUT
10
213.2489
20
256.6075
0
VERTEX
8
CUT
10
214.4425
20
254.8105
0
VERTEX
8
CUT
10
215.6754
20
253.6294
0
VERTEX
8
CUT
10
217.1766
20
252.7850
0
VERTEX
8
CUT
10
218.9133
20
252.3372
0
VERTEX
8
CUT
10
221.5364
20
252.1890
0
VERTEX
8
CUT
10
223.1910
20
252.6067
0
VERTEX
8
CUT
10
225.2056
20
253.6439
0
VERTEX
8
CUT
10
226.4743
20
254.6412
0
VERTEX
8
CUT
10
227.5459
20
255.8956
0
VERTEX
8
CUT
10
230.7081
20
260.6390
0
VERTEX
8
CUT
10
232.9429
20
262.6220
0
VERTEX
8
CUT
10
234.5389
20
263.4203
0
VERTEX
8
CUT
10
236.4266
20
263.9253
0
VERTEX
8
CUT
10
238.3291
20
264.0191
0
VERTEX
8
CUT
10
240.2295
20
263.7387
0
VERTEX
8
CUT
10
242.0634
20
263.0865
0
VERTEX
8
CUT
10
243.7478
20
262.1688
0
VERTEX
8
CUT
10
245.3547
20
260.8817
0
VERTEX
8
CUT
10
246.7341
20
259.3096
0
VERTEX
8
CUT
10
247.8436
20
257.5171
0
VERTEX
8
CUT
10
248.8590
20
255.2940
0
VERTEX
8
CUT
10
249.3829
20
253.2488
0
VERTEX
8
CUT
10
249.5971
20
250.6389
0
VERTEX
8
CUT
10
249.4431
20
235.4880
0
VERTEX
8
CUT
10
249.6853
20
234.3544
0
VERTEX
8
CUT
10
250.6598
20
233.1707
0
VERTEX
8
CUT
10
251.4325
20
232.7673
0
VERTEX
8
CUT
10
252.2363
20
232.6837
0
VERTEX
8
CUT
10
253.1002
20
232.9150
0
VERTEX
8
CUT
10
253.9862
20
233.4579
0
VERTEX
8
CUT
10
255.8798
20
235.4961
0
VERTEX
8
CUT
10
258.5066
20
239.5024
0
VERTEX
8
CUT
10
259.3230
20
240.4074
0
VERTEX
8
CUT
10
261.0371
20
241.6002
0
VERTEX
8
CUT
10
262.9683
20
242.0353
0
VERTEX
8
CUT
10
265.2678
20
241.8140
0
VERTEX
8
CUT
10
266.4633
20
241.3557
0
VERTEX
8
CUT
10
267.5076
20
240.6783
0
VERTEX
8
CUT
10
268.4662
20
239.7481
0
VERTEX
8
CUT
10
270.0548
20
237.3345
0
VERTEX
8
CUT
10
270.6790
20
235.7829
0
VERTEX
8
CUT
10
271.4278
20
233.1910
0
VERTEX
8
CUT
10
271.7642
20
230.2811
0
VERTEX
8
CUT
10
271.5814
20
224.7413
0
VERTEX
8
CUT
10
271.2448
20
221.7688
0
VERTEX
8
CUT
10
269.2301
20
212.0771
0
VERTEX
8
CUT
10
269.0831
20
209.5507
0
VERTEX
8
CUT
10
269.6212
20
206.7167
0
VERTEX
8
CUT
10
270.4659
20
205.7924
0
VERTEX
8
CUT
10
271.3720
20
205.5063
0
VERTEX
8
CUT
10
272.3906
20
205.5633
0
VERTEX
8
CUT
10
274.1995
20
206.4391
0
VERTEX
8
CUT
10
276.6610
20
208.2208
0
VERTEX
8
CUT
10
278.5406
20
209.2375
0
VERTEX
8
CUT
10
280.3900
20
209.6837
0
VERTEX
8
CUT
10
282.3383
20
209.5857
0
VERTEX
8
CUT
10
284.8153
20
208.4266
0
VERTEX
8
CUT
10
286.6784
20
206.5998
0
VERTEX
8
CUT
10
287.4255
20
205.3661
0
VERTEX
8
CUT
10
288.3417
20
202.5877
0
VERTEX
8
CUT
10
288.5962
20
200.8712
0
VERTEX
8
CUT
10
288.6264
20
197.5823
0
VERTEX
8
CUT
10
288.5298
20
196.1629
0
VERTEX
8
CUT
10
287.9518
20
193.3948
0
VERTEX
8
CUT
10
286.8086
20
190.2384
0
VERTEX
8
CUT
10
283.3619
20
182.6408
0
VERTEX
8
CUT
10
282.3950
20
179.8219
0
VERTEX
8
CUT
10
282.0414
20
177.6038
0
VERTEX
8
CUT
10
282.1959
20
175.6735
0
VERTEX
8
CUT
10
282.8114
20
174.1392
0
VERTEX
8
CUT
10
283.5755
20
173.2057
0
VERTEX
8
CUT
10
287.0691
20
170.2598
0
VERTEX
8
CUT
10
289.3127
20
166.2526
0
VERTEX
8
CUT
10
289.2963
20
159.2338
0
VERTEX
8
CUT
10
288.8897
20
156.1373
0
VERTEX
8
CUT
10
287.8464
20
152.9493
0
VERTEX
8
CUT
10
286.5236
20
149.9384
0
VERTEX
8
CUT
10
283.7115
20
145.4760
0
VERTEX
8
CUT
10
278.3276
20
138.3903
0
VERTEX
8
CUT
10
277.5402
20
137.0275
0
VERTEX
8
CUT
10
277.0994
20
135.8184
0
VERTEX
8
CUT
10
276.9850
20
134.7274
0
VERTEX
8
CUT
10
277.1734
20
133.6573
0
VERTEX
8
CUT
10
277.6269
20
132.6113
0
VERTEX
8
CUT
10
279.4916
20
129.5791
0
VERTEX
8
CUT
10
280.4198
20
127.1873
0
VERTEX
8
CUT
10
280.5159
20
124.8639
0
VERTEX
8
CUT
10
280.0052
20
122.6299
0
VERTEX
8
CUT
10
278.9694
20
120.6348
0
VERTEX
8
CUT
10
277.2649
20
118.6262
0
VERTEX
8
CUT
10
272.3053
20
114.2759
0
VERTEX
8
CUT
10
270.1676
20
112.0795
0
VERTEX
8
CUT
10
268.8281
20
110.0001
0
VERTEX
8
CUT
10
268.0993
20
107.9202
0
VERTEX
8
CUT
10
268.0425
20
106.0540
0
VERTEX
8
CUT
10
268.2890
20
105.0175
0
VERTEX
8
CUT
10
269.2214
20
103.0674
0
VERTEX
8
CUT
10
271.0514
20
100.3800
0
VERTEX
8
CUT
10
271.8631
20
98.6723
0
VERTEX
8
CUT
10
272.4003
20
96.8490
0
VERTEX
8
CUT
10
272.6178
20
94.9848
0
VERTEX
8
CUT
10
272.5204
20
93.0644
0
VERTEX
8
CUT
10
272.1464
20
91.1503
0
VERTEX
8
CUT
10
271.4607
20
89.2289
0
VERTEX
8
CUT
10
268.5188
20
83.8608
0
VERTEX
8
CUT
10
267.7946
20
82.2060
0
VERTEX
8
CUT
10
267.2174
20
79.8740
0
VERTEX
8
CUT
10
267.0088
20
77.4026
0
VERTEX
8
CUT
10
267.7378
20
71.1315
0
VERTEX
8
CUT
10
272.9504
20
44.2155
0
VERTEX
8
CUT
10
274.9942
20
31.7092
0
VERTEX
8
CUT
10
275.4538
20
23.2509
0
VERTEX
8
CUT
10
275.1186
20
17.5799
0
VERTEX
8
CUT
10
274.6594
20
15.0912
0
VERTEX
8
CUT
10
273.1869
20
10.7841
0
VERTEX
8
CUT
10
272.0837
20
8.7979
0
VERTEX
8
CUT
10
270.7881
20
7.0129
0
VERTEX
8
CUT
10
269.3055
20
5.3790
0
VERTEX
8
CUT
10
266.4987
20
3.0009
0
VERTEX
8
CUT
10
264.5224
20
1.8421
0
VERTEX
8
CUT
10
261.1042
20
0.6438
0
VERTEX
8
CUT
10
257.9985
20
0.1833
0
SEQEND
0
POLYLINE
8
CUT
66
1
70
1
10
0.0
20
0.0
30
0.0
0
VERTEX
8
CUT
10
190.6814
20
119.8864
0
VERTEX
8
CUT
10
192.5954
20
120.1322
0
VERTEX
8
CUT
10
195.3508
20
121.0055
0
VERTEX
8
CUT
10
197.7764
20
122.4176
0
VERTEX
8
CUT
10
199.7847
20
124.2777
0
VERTEX
8
CUT
10
201.2228
20
126.5139
0
VERTEX
8
CUT
10
201.9315
20
128.3028
0
VERTEX
8
CUT
10
202.7052
20
132.1120
0
VERTEX
8
CUT
10
202.7686
20
134.1698
0
VERTEX
8
CUT
10
202.3201
20
138.2395
0
VERTEX
8
CUT
10
201.7791
20
140.1720
0
VERTEX
8
CUT
10
201.0389
20
142.0504
0
VERTEX
8
CUT
10
199.9022
20
143.8970
0
VERTEX
8
CUT
10
197.4944
20
146.4244
0
VERTEX
8
CUT
10
195.6608
20
147.6764
0
VERTEX
8
CUT
10
192.7199
20
148.6731
0
VERTEX
8
CUT
10
190.5274
20
148.9498
0
VERTEX
8
CUT
10
188.4256
20
148.8622
0
VERTEX
8
CUT
10
186.3564
20
148.4765
0
VERTEX
8
CUT
10
184.3759
20
147.7618
0
VERTEX
8
CUT
10
182.5470
20
146.7301
0
VERTEX
8
CUT
10
180.9354
20
145.4156
0
VERTEX
8
CUT
10
179.6440
20
143.8868
0
VERTEX
8
CUT
10
178.4273
20
141.7535
0
VERTEX
8
CUT
10
177.5479
20
139.3439
0
VERTEX
8
CUT
10
177.0238
20
136.7587
0
VERTEX
8
CUT
10
176.8464
20
134.1327
0
VERTEX
8
CUT
10
177.0313
20
131.5395
0
VERTEX
8
CUT
10
177.5782
20
129.0389
0
VERTEX
8
CUT
10
178.4576
20
126.7516
0
VERTEX
8
CUT
10
179.6715
20
124.7414
0
VERTEX
8
CUT
10
180.8175
20
123.4460
0
VERTEX
8
CUT
10
182.1786
20
122.3013
0
VERTEX
8
CUT
10
183.6792
20
121.3756
0
VERTEX
8
CUT
10
185.2789
20
120.6776
0
VERTEX
8
CUT
10
188.8229
20
119.9197
0
SEQEND
0
POLYLINE
8
CUT
66
1
70
1
10
0.0
20
0.0
30
0.0
0
VERTEX
8
CUT
10
100.8533
20
119.8863
0
VERTEX
8
CUT
10
103.0127
20
120.1641
0
VERTEX
8
CUT
10
104.8158
20
120.6677
0
VERTEX
8
CUT
10
106.4946
20
121.4172
0
VERTEX
8
CUT
10
109.3177
20
123.4931
0
VERTEX
8
CUT
10
110.4786
20
124.8612
0
VERTEX
8
CUT
10
112.1495
20
128.0779
0
VERTEX
8
CUT
10
112.6933
20
129.9683
0
VERTEX
8
CUT
10
113.0893
20
132.8332
0
VERTEX
8
CUT
10
113.0634
20
135.6383
0
VERTEX
8
CUT
10
112.6399
20
138.3490
0
VERTEX
8
CUT
10
111.8266
20
140.8793
0
VERTEX
8
CUT
10
110.6831
20
143.1655
0
VERTEX
8
CUT
10
109.1867
20
145.1729
0
VERTEX
8
CUT
10
107.4428
20
146.7955
0
VERTEX
8
CUT
10
104.4042
20
148.4397
0
VERTEX
8
CUT
10
102.9069
20
148.7699
0
VERTEX
8
CUT
10
99.0310
20
148.7982
0
VERTEX
8
CUT
10
96.6044
20
148.4735
0
VERTEX
8
CUT
10
94.5025
20
147.7122
0
VERTEX
8
CUT
10
93.5477
20
147.1715
0
VERTEX
8
CUT
10
91.7023
20
145.6776
0
VERTEX
8
CUT
10
90.0500
20
143.7610
0
VERTEX
8
CUT
10
88.7354
20
141.5089
0
VERTEX
8
CUT
10
87.7945
20
138.9820
0
VERTEX
8
CUT
10
87.2290
20
136.3572
0
VERTEX
8
CUT
10
87.0796
20
133.5864
0
VERTEX
8
CUT
10
87.3249
20
130.8726
0
VERTEX
8
CUT
10
87.9644
20
128.2184
0
VERTEX
8
CUT
10
89.0544
20
125.7234
0
VERTEX
8
CUT
10
90.0793
20
124.2330
0
VERTEX
8
CUT
10
91.3991
20
122.9109
0
VERTEX
8
CUT
10
93.0364
20
121.7650
0
VERTEX
8
CUT
10
94.8142
20
120.8675
0
VERTEX
8
CUT
10
96.7582
20
120.2725
0
VERTEX
8
CUT
10
98.7476
20
119.9214
0
SEQEND
0
ENDSEC
0
EOF
