0
SECTION
2
HEADER
9
$ACADVER
1
AC1009
9
$INSUNITS
70
4
0
ENDSEC
0
SECTION
2
TABLES
0
TABLE
2
LAYER
70
1
0
LAYER
2
CUT
70
0
62
7
6
CONTINUOUS
0
ENDTAB
0
ENDSEC
0
SECTION
2
ENTITIES
0
POLYLINE
8
CUT
66
1
70
1
10
0.0
20
0.0
30
0.0
0
VERTEX
8
CUT
10
238.2656
20
4.6826
0
VERTEX
8
CUT
10
233.4151
20
7.3229
0
VERTEX
8
CUT
10
229.4737
20
9.8898
0
VERTEX
8
CUT
10
224.2188
20
13.8313
0
VERTEX
8
CUT
10
203.4585
20
31.0249
0
VERTEX
8
CUT
10
200.3850
20
33.2758
0
VERTEX
8
CUT
10
197.6108
20
34.8115
0
VERTEX
8
CUT
10
196.0002
20
35.2146
0
VERTEX
8
CUT
10
192.0128
20
34.5177
0
VERTEX
8
CUT
10
191.1828
20
34.4479
0
VERTEX
8
CUT
10
189.0727
20
34.6105
0
VERTEX
8
CUT
10
187.4205
20
35.1818
0
VERTEX
8
CUT
10
182.4784
20
37.7407
0
VERTEX
8
CUT
10
181.1024
20
38.1783
0
VERTEX
8
CUT
10
179.7107
20
38.3243
0
VERTEX
8
CUT
10
178.4515
20
38.1788
0
VERTEX
8
CUT
10
177.3926
20
37.7520
0
VERTEX
8
CUT
10
173.8867
20
34.7003
0
VERTEX
8
CUT
10
172.6718
20
33.8983
0
VERTEX
8
CUT
10
171.4627
20
33.5105
0
VERTEX
8
CUT
10
169.3349
20
33.4840
0
VERTEX
8
CUT
10
167.8389
20
33.8294
0
VERTEX
8
CUT
10
166.3814
20
34.6023
0
VERTEX
8
CUT
10
161.1403
20
38.7753
0
VERTEX
8
CUT
10
158.1072
20
40.2520
0
VERTEX
8
CUT
10
154.2388
20
41.1678
0
VERTEX
8
CUT
10
145.9916
20
41.8647
0
VERTEX
8
CUT
10
142.9343
20
41.8951
0
VERTEX
8
CUT
10
137.2726
20
41.5014
0
VERTEX
8
CUT
10
134.7004
20
41.1331
0
VERTEX
8
CUT
10
130.5024
20
40.0241
0
VERTEX
8
CUT
10
128.8678
20
39.3144
0
VERTEX
8
CUT
10
127.6276
20
38.4839
0
VERTEX
8
CUT
10
122.4340
20
34.1392
0
VERTEX
8
CUT
10
120.2381
20
33.2359
0
VERTEX
8
CUT
10
117.9118
20
33.1441
0
VERTEX
8
CUT
10
115.8049
20
33.6834
0
VERTEX
8
CUT
10
115.5143
20
33.8703
0
VERTEX
8
CUT
10
115.3998
20
33.9613
0
VERTEX
8
CUT
10
115.1922
20
34.1265
0
VERTEX
8
CUT
10
114.9498
20
34.3193
0
VERTEX
8
CUT
10
113.9929
20
35.0804
0
VERTEX
8
CUT
10
112.1892
20
36.8823
0
VERTEX
8
CUT
10
111.1233
20
37.4561
0
VERTEX
8
CUT
10
109.8967
20
37.7508
0
VERTEX
8
CUT
10
108.4161
20
37.7519
0
VERTEX
8
CUT
10
107.5136
20
37.5149
0
VERTEX
8
CUT
10
102.4443
20
35.1150
0
VERTEX
8
CUT
10
100.4931
20
34.5243
0
VERTEX
8
CUT
10
99.2249
20
34.4566
0
VERTEX
8
CUT
10
97.8456
20
34.5742
0
VERTEX
8
CUT
10
95.0109
20
35.0959
0
VERTEX
8
CUT
10
93.5857
20
35.0905
0
VERTEX
8
CUT
10
92.0936
20
34.7094
0
VERTEX
8
CUT
10
90.2434
20
33.7979
0
VERTEX
8
CUT
10
85.0220
20
30.0238
0
VERTEX
8
CUT
10
68.5530
20
16.1781
0
VERTEX
8
CUT
10
62.7845
20
11.7219
0
VERTEX
8
CUT
10
59.1808
20
9.2174
0
VERTEX
8
CUT
10
56.6594
20
7.5879
0
VERTEX
8
CUT
10
51.7792
20
4.9038
0
VERTEX
8
CUT
10
49.3753
20
3.7640
0
VERTEX
8
CUT
10
44.7149
20
2.0180
0
VERTEX
8
CUT
10
40.2052
20
0.9211
0
VERTEX
8
CUT
10
36.8788
20
0.5801
0
VERTEX
8
CUT
10
31.3977
20
0.6403
0
VERTEX
8
CUT
10
28.2361
20
1.0686
0
VERTEX
8
CUT
10
25.2635
20
2.0080
0
VERTEX
8
CUT
10
22.2438
20
3.6856
0
VERTEX
8
CUT
10
20.8228
20
4.7906
0
VERTEX
8
CUT
10
18.4433
20
7.2922
0
VERTEX
8
CUT
10
17.4029
20
8.7737
0
VERTEX
8
CUT
10
15.8777
20
11.7026
0
VERTEX
8
CUT
10
14.6424
20
15.7382
0
VERTEX
8
CUT
10
14.2699
20
18.9918
0
VERTEX
8
CUT
10
14.2699
20
26.2196
0
VERTEX
8
CUT
10
14.7909
20
32.6252
0
VERTEX
8
CUT
10
16.1019
20
41.1311
0
VERTEX
8
CUT
10
21.6812
20
69.3030
0
VERTEX
8
CUT
10
22.3212
20
73.7835
0
VERTEX
8
CUT
10
22.5329
20
77.8847
0
VERTEX
8
CUT
10
22.1668
20
81.7153
0
VERTEX
8
CUT
10
21.3587
20
83.9219
0
VERTEX
8
CUT
10
18.7207
20
88.7413
0
VERTEX
8
CUT
10
17.8287
20
90.8286
0
VERTEX
8
CUT
10
17.2624
20
92.8334
0
VERTEX
8
CUT
10
17.0452
20
94.7306
0
VERTEX
8
CUT
10
17.2003
20
96.5976
0
VERTEX
8
CUT
10
17.6662
20
98.4609
0
VERTEX
8
CUT
10
18.5143
20
100.3717
0
VERTEX
8
CUT
10
21.1061
20
104.8259
0
VERTEX
8
CUT
10
21.4959
20
106.1368
0
VERTEX
8
CUT
10
21.4686
20
107.4397
0
VERTEX
8
CUT
10
20.7921
20
109.8702
0
VERTEX
8
CUT
10
19.7012
20
111.6319
0
VERTEX
8
CUT
10
17.8281
20
113.8360
0
VERTEX
8
CUT
10
11.6910
20
120.0970
0
VERTEX
8
CUT
10
9.9537
20
122.3523
0
VERTEX
8
CUT
10
9.5036
20
123.3655
0
VERTEX
8
CUT
10
9.1492
20
125.4690
0
VERTEX
8
CUT
10
9.3319
20
127.9661
0
VERTEX
8
CUT
10
9.9602
20
129.6755
0
VERTEX
8
CUT
10
12.0092
20
133.1464
0
VERTEX
8
CUT
10
12.2858
20
134.8788
0
VERTEX
8
CUT
10
12.0466
20
136.2858
0
VERTEX
8
CUT
10
11.5219
20
137.6542
0
VERTEX
8
CUT
10
10.6229
20
139.1242
0
VERTEX
8
CUT
10
6.0076
20
145.2394
0
VERTEX
8
CUT
10
3.1415
20
149.9044
0
VERTEX
8
CUT
10
1.2657
20
154.5087
0
VERTEX
8
CUT
10
0.6794
20
156.8456
0
VERTEX
8
CUT
10
0.1832
20
161.7096
0
VERTEX
8
CUT
10
0.3961
20
165.2389
0
VERTEX
8
CUT
10
0.7169
20
166.7742
0
VERTEX
8
CUT
10
1.8204
20
169.2265
0
VERTEX
8
CUT
10
2.6472
20
170.3118
0
VERTEX
8
CUT
10
5.5550
20
172.6073
0
VERTEX
8
CUT
10
6.5791
20
173.6697
0
VERTEX
8
CUT
10
7.4364
20
175.4958
0
VERTEX
8
CUT
10
7.6216
20
177.1471
0
VERTEX
8
CUT
10
7.2965
20
179.5577
0
VERTEX
8
CUT
10
6.6650
20
181.5477
0
VERTEX
8
CUT
10
3.1539
20
189.0926
0
VERTEX
8
CUT
10
1.5974
20
193.6087
0
VERTEX
8
CUT
10
0.9768
20
197.8333
0
VERTEX
8
CUT
10
0.9753
20
200.7831
0
VERTEX
8
CUT
10
1.5074
20
203.1753
0
VERTEX
8
CUT
10
2.6654
20
205.8515
0
VERTEX
8
CUT
10
3.8202
20
207.2959
0
VERTEX
8
CUT
10
4.5420
20
208.0071
0
VERTEX
8
CUT
10
6.3218
20
209.0687
0
VERTEX
8
CUT
10
8.6278
20
209.4687
0
VERTEX
8
CUT
10
10.7158
20
209.1503
0
VERTEX
8
CUT
10
12.7768
20
208.1664
0
VERTEX
8
CUT
10
16.3480
20
205.6520
0
VERTEX
8
CUT
10
17.2885
20
205.3568
0
VERTEX
8
CUT
10
18.4017
20
205.5496
0
VERTEX
8
CUT
10
18.4839
20
205.5422
0
VERTEX
8
CUT
10
19.0808
20
205.8124
0
VERTEX
8
CUT
10
19.5943
20
206.3254
0
VERTEX
8
CUT
10
19.6725
20
206.4948
0
VERTEX
8
CUT
10
19.9003
20
206.6828
0
VERTEX
8
CUT
10
20.3239
20
207.5811
0
VERTEX
8
CUT
10
20.5180
20
210.0687
0
VERTEX
8
CUT
10
19.9463
20
213.9711
0
VERTEX
8
CUT
10
18.3273
20
221.9160
0
VERTEX
8
CUT
10
17.9618
20
224.5044
0
VERTEX
8
CUT
10
17.7706
20
227.7700
0
VERTEX
8
CUT
10
17.9274
20
231.6627
0
VERTEX
8
CUT
10
18.4483
20
234.4410
0
VERTEX
8
CUT
10
19.3213
20
237.0049
0
VERTEX
8
CUT
10
20.5660
20
239.0579
0
VERTEX
8
CUT
10
22.1099
20
240.5980
0
VERTEX
8
CUT
10
23.9377
20
241.5395
0
VERTEX
8
CUT
10
26.0257
20
241.8820
0
VERTEX
8
CUT
10
27.0144
20
241.8188
0
VERTEX
8
CUT
10
28.7004
20
241.2151
0
VERTEX
8
CUT
10
30.2618
20
239.9089
0
VERTEX
8
CUT
10
33.7747
20
234.7249
0
VERTEX
8
CUT
10
35.4545
20
233.2092
0
VERTEX
8
CUT
10
36.5292
20
232.7172
0
VERTEX
8
CUT
10
37.1163
20
232.6494
0
VERTEX
8
CUT
10
37.6663
20
232.7696
0
VERTEX
8
CUT
10
37.8248
20
232.7879
0
VERTEX
8
CUT
10
37.8663
20
232.8133
0
VERTEX
8
CUT
10
38.5577
20
232.9643
0
VERTEX
8
CUT
10
39.1352
20
233.3964
0
VERTEX
8
CUT
10
39.9181
20
234.8379
0
VERTEX
8
CUT
10
40.0519
20
235.9738
0
VERTEX
8
CUT
10
40.0653
20
236.0242
0
VERTEX
8
CUT
10
40.0653
20
236.0874
0
VERTEX
8
CUT
10
40.1860
20
237.1115
0
VERTEX
8
CUT
10
39.7305
20
247.7731
0
VERTEX
8
CUT
10
39.7914
20
250.5500
0
VERTEX
8
CUT
10
40.0673
20
252.5846
0
VERTEX
8
CUT
10
40.5075
20
254.2829
0
VERTEX
8
CUT
10
41.6960
20
257.2394
0
VERTEX
8
CUT
10
43.3333
20
259.6583
0
VERTEX
8
CUT
10
44.3360
20
260.6916
0
VERTEX
8
CUT
10
46.5746
20
262.1772
0
VERTEX
8
CUT
10
48.3435
20
262.9180
0
VERTEX
8
CUT
10
49.8605
20
263.2820
0
VERTEX
8
CUT
10
51.3904
20
263.2832
0
VERTEX
8
CUT
10
53.8453
20
262.6386
0
VERTEX
8
CUT
10
55.5662
20
261.5908
0
VERTEX
8
CUT
10
56.9623
20
260.0122
0
VERTEX
8
CUT
10
57.6646
20
258.9562
0
VERTEX
8
CUT
10
60.0735
20
253.9590
0
VERTEX
8
CUT
10
61.3127
20
252.0913
0
VERTEX
8
CUT
10
62.6495
20
250.7548
0
VERTEX
8
CUT
10
64.1504
20
249.8362
0
VERTEX
8
CUT
10
65.7982
20
249.2525
0
VERTEX
8
CUT
10
67.3358
20
249.0854
0
VERTEX
8
CUT
10
68.8306
20
249.2600
0
VERTEX
8
CUT
10
70.2041
20
249.7156
0
VERTEX
8
CUT
10
71.5539
20
250.5624
0
VERTEX
8
CUT
10
72.7404
20
251.6323
0
VERTEX
8
CUT
10
73.6927
20
253.0284
0
VERTEX
8
CUT
10
74.7022
20
255.4524
0
VERTEX
8
CUT
10
75.0705
20
258.9428
0
VERTEX
8
CUT
10
74.7959
20
273.1649
0
VERTEX
8
CUT
10
75.1315
20
276.8146
0
VERTEX
8
CUT
10
75.5176
20
278.3544
0
VERTEX
8
CUT
10
76.7016
20
280.8642
0
VERTEX
8
CUT
10
78.4798
20
282.9792
0
VERTEX
8
CUT
10
79.6350
20
283.7965
0
VERTEX
8
CUT
10
82.2239
20
284.8036
0
VERTEX
8
CUT
10
83.6584
20
284.9672
0
VERTEX
8
CUT
10
86.3219
20
284.6295
0
VERTEX
8
CUT
10
87.5516
20
284.1002
0
VERTEX
8
CUT
10
89.4361
20
282.4836
0
VERTEX
8
CUT
10
92.4714
20
277.7982
0
VERTEX
8
CUT
10
94.2710
20
275.9918
0
VERTEX
8
CUT
10
95.9886
20
275.3716
0
VERTEX
8
CUT
10
96.0860
20
275.3214
0
VERTEX
8
CUT
10
96.1885
20
275.2995
0
VERTEX
8
CUT
10
96.5119
20
275.1827
0
VERTEX
8
CUT
10
96.7488
20
275.1796
0
VERTEX
8
CUT
10
96.9002
20
275.1472
0
VERTEX
8
CUT
10
97.4867
20
275.1699
0
VERTEX
8
CUT
10
99.3491
20
275.1455
0
VERTEX
8
CUT
10
100.9345
20
276.0380
0
VERTEX
8
CUT
10
101.0693
20
276.0861
0
VERTEX
8
CUT
10
101.1610
20
276.1655
0
VERTEX
8
CUT
10
101.6873
20
276.4617
0
VERTEX
8
CUT
10
102.6881
20
277.4868
0
VERTEX
8
CUT
10
102.7184
20
277.5130
0
VERTEX
8
CUT
10
102.7239
20
277.5234
0
VERTEX
8
CUT
10
102.9657
20
277.7710
0
VERTEX
8
CUT
10
104.3467
20
280.3282
0
VERTEX
8
CUT
10
105.5086
20
284.7839
0
VERTEX
8
CUT
10
106.4349
20
286.7067
0
VERTEX
8
CUT
10
107.7224
20
288.1642
0
VERTEX
8
CUT
10
109.3262
20
289.1782
0
VERTEX
8
CUT
10
111.4338
20
289.6323
0
VERTEX
8
CUT
10
113.4545
20
289.3380
0
VERTEX
8
CUT
10
115.2660
20
288.3342
0
VERTEX
8
CUT
10
118.0820
20
285.0653
0
VERTEX
8
CUT
10
119.4864
20
284.0855
0
VERTEX
8
CUT
10
121.0921
20
283.6869
0
VERTEX
8
CUT
10
122.7532
20
283.8703
0
VERTEX
8
CUT
10
124.1249
20
284.4927
0
VERTEX
8
CUT
10
125.1611
20
285.4837
0
VERTEX
8
CUT
10
125.3916
20
285.6806
0
VERTEX
8
CUT
10
125.4474
20
285.7574
0
VERTEX
8
CUT
10
126.0565
20
286.3400
0
VERTEX
8
CUT
10
130.1929
20
292.9797
0
VERTEX
8
CUT
10
132.1847
20
295.1759
0
VERTEX
8
CUT
10
132.3615
20
295.3491
0
VERTEX
8
CUT
10
132.4508
20
295.4365
0
VERTEX
8
CUT
10
132.6118
20
295.5943
0
VERTEX
8
CUT
10
132.8209
20
295.7991
0
VERTEX
8
CUT
10
133.9369
20
296.6816
0
VERTEX
8
CUT
10
136.9654
20
298.3449
0
VERTEX
8
CUT
10
141.7547
20
299.7175
0
VERTEX
8
CUT
10
144.8315
20
299.9677
0
VERTEX
8
CUT
10
147.8248
20
299.7866
0
VERTEX
8
CUT
10
150.7187
20
299.1360
0
VERTEX
8
CUT
10
153.3807
20
298.0357
0
VERTEX
8
CUT
10
155.9248
20
296.4341
0
VERTEX
8
CUT
10
158.2290
20
294.4629
0
VERTEX
8
CUT
10
163.5659
20
287.9087
0
VERTEX
8
CUT
10
165.3009
20
286.3785
0
VERTEX
8
CUT
10
166.9502
20
285.5165
0
VERTEX
8
CUT
10
168.4485
20
285.1810
0
VERTEX
8
CUT
10
170.0838
20
285.4498
0
VERTEX
8
CUT
10
171.1775
20
285.9990
0
VERTEX
8
CUT
10
174.0412
20
288.3733
0
VERTEX
8
CUT
10
175.9202
20
289.1704
0
VERTEX
8
CUT
10
177.0147
20
289.1702
0
VERTEX
8
CUT
10
178.7197
20
288.5377
0
VERTEX
8
CUT
10
179.9423
20
287.4449
0
VERTEX
8
CUT
10
180.7864
20
285.8268
0
VERTEX
8
CUT
10
181.9570
20
280.7668
0
VERTEX
8
CUT
10
182.5371
20
279.3774
0
VERTEX
8
CUT
10
183.5952
20
278.0054
0
VERTEX
8
CUT
10
184.3139
20
277.3796
0
VERTEX
8
CUT
10
185.0293
20
276.9095
0
VERTEX
8
CUT
10
186.5861
20
276.3366
0
VERTEX
8
CUT
10
188.1313
20
276.3300
0
VERTEX
8
CUT
10
189.0206
20
276.6276
0
VERTEX
8
CUT
10
189.8703
20
277.0872
0
VERTEX
8
CUT
10
191.3101
20
278.3556
0
VERTEX
8
CUT
10
192.5124
20
280.1229
0
VERTEX
8
CUT
10
193.4323
20
282.5380
0
VERTEX
8
CUT
10
194.7139
20
284.9488
0
VERTEX
8
CUT
10
196.2605
20
286.8421
0
VERTEX
8
CUT
10
197.1470
20
287.5648
0
VERTEX
8
CUT
10
198.9943
20
288.4274
0
VERTEX
8
CUT
10
200.5814
20
288.6875
0
VERTEX
8
CUT
10
203.1757
20
288.5304
0
VERTEX
8
CUT
10
205.3931
20
287.8709
0
VERTEX
8
CUT
10
206.7869
20
286.9184
0
VERTEX
8
CUT
10
208.8542
20
284.7543
0
VERTEX
8
CUT
10
209.9713
20
283.1340
0
VERTEX
8
CUT
10
211.2055
20
280.1885
0
VERTEX
8
CUT
10
211.7570
20
276.2828
0
VERTEX
8
CUT
10
211.8812
20
259.2051
0
VERTEX
8
CUT
10
213.8589
20
255.3768
0
VERTEX
8
CUT
10
215.3139
20
253.8191
0
VERTEX
8
CUT
10
216.9342
20
252.7278
0
VERTEX
8
CUT
10
218.7281
20
252.0970
0
VERTEX
8
CUT
10
220.5985
20
251.9187
0
VERTEX
8
CUT
10
222.5455
20
252.2036
0
VERTEX
8
CUT
10
224.3701
20
252.9882
0
VERTEX
8
CUT
10
226.1594
20
254.2951
0
VERTEX
8
CUT
10
226.4255
20
254.6029
0
VERTEX
8
CUT
10
226.4743
20
254.6412
0
VERTEX
8
CUT
10
227.5459
20
255.8956
0
VERTEX
8
CUT
10
227.5559
20
255.9106
0
VERTEX
8
CUT
10
228.0914
20
256.5300
0
VERTEX
8
CUT
10
230.6384
20
260.3905
0
VERTEX
8
CUT
10
231.8617
20
261.6626
0
VERTEX
8
CUT
10
231.9555
20
261.7458
0
VERTEX
8
CUT
10
232.0606
20
261.8391
0
VERTEX
8
CUT
10
232.0936
20
261.8683
0
VERTEX
8
CUT
10
232.3861
20
262.1279
0
VERTEX
8
CUT
10
233.0374
20
262.5737
0
VERTEX
8
CUT
10
235.0050
20
263.4242
0
VERTEX
8
CUT
10
236.1808
20
263.7118
0
VERTEX
8
CUT
10
238.2627
20
263.8972
0
VERTEX
8
CUT
10
240.3226
20
263.6161
0
VERTEX
8
CUT
10
242.2542
20
262.8692
0
VERTEX
8
CUT
10
244.0321
20
261.7673
0
VERTEX
8
CUT
10
245.7008
20
260.2303
0
VERTEX
8
CUT
10
247.1072
20
258.3505
0
VERTEX
8
CUT
10
248.2480
20
256.1529
0
VERTEX
8
CUT
10
249.0930
20
253.7686
0
VERTEX
8
CUT
10
249.5111
20
251.6872
0
VERTEX
8
CUT
10
249.5971
20
250.6389
0
VERTEX
8
CUT
10
249.5296
20
243.9954
0
VERTEX
8
CUT
10
249.0493
20
236.8739
0
VERTEX
8
CUT
10
249.2656
20
234.9891
0
VERTEX
8
CUT
10
249.7829
20
233.8410
0
VERTEX
8
CUT
10
250.2338
20
233.3212
0
VERTEX
8
CUT
10
250.9911
20
232.8439
0
VERTEX
8
CUT
10
251.9247
20
232.6460
0
VERTEX
8
CUT
10
252.9649
20
232.7615
0
VERTEX
8
CUT
10
254.0310
20
233.2137
0
VERTEX
8
CUT
10
255.5528
20
234.7448
0
VERTEX
8
CUT
10
257.7643
20
238.3018
0
VERTEX
8
CUT
10
259.2000
20
239.9818
0
VERTEX
8
CUT
10
260.9224
20
241.2871
0
VERTEX
8
CUT
10
262.4730
20
241.9237
0
VERTEX
8
CUT
10
262.7977
20
241.9969
0
VERTEX
8
CUT
10
263.2264
20
242.0105
0
VERTEX
8
CUT
10
264.1390
20
241.9226
0
VERTEX
8
CUT
10
264.3447
20
241.9028
0
VERTEX
8
CUT
10
264.4392
20
241.8937
0
VERTEX
8
CUT
10
264.4632
20
241.8914
0
VERTEX
8
CUT
10
265.7456
20
241.4886
0
VERTEX
8
CUT
10
267.7090
20
240.2917
0
VERTEX
8
CUT
10
269.0377
20
238.8798
0
VERTEX
8
CUT
10
269.1627
20
238.6899
0
VERTEX
8
CUT
10
270.1990
20
236.8300
0
VERTEX
8
CUT
10
270.9636
20
234.4435
0
VERTEX
8
CUT
10
271.3678
20
232.6627
0
VERTEX
8
CUT
10
271.7031
20
229.0033
0
VERTEX
8
CUT
10
271.1537
20
222.5029
0
VERTEX
8
CUT
10
269.1084
20
212.1134
0
VERTEX
8
CUT
10
268.9303
20
208.8219
0
VERTEX
8
CUT
10
269.5051
20
206.7673
0
VERTEX
8
CUT
10
269.9918
20
206.3112
0
VERTEX
8
CUT
10
270.4659
20
205.7924
0
VERTEX
8
CUT
10
270.5857
20
205.7546
0
VERTEX
8
CUT
10
270.8498
20
205.5071
0
VERTEX
8
CUT
10
271.6357
20
205.2707
0
VERTEX
8
CUT
10
272.1812
20
205.3254
0
VERTEX
8
CUT
10
273.8748
20
206.0188
0
VERTEX
8
CUT
10
276.7357
20
208.1181
0
VERTEX
8
CUT
10
278.1565
20
208.8767
0
VERTEX
8
CUT
10
280.1941
20
209.4339
0
VERTEX
8
CUT
10
281.7570
20
209.4345
0
VERTEX
8
CUT
10
283.1757
20
209.1125
0
VERTEX
8
CUT
10
285.0628
20
208.0327
0
VERTEX
8
CUT
10
286.8040
20
206.1560
0
VERTEX
8
CUT
10
287.9534
20
203.6827
0
VERTEX
8
CUT
10
288.3825
20
200.3193
0
VERTEX
8
CUT
10
288.3512
20
197.2897
0
VERTEX
8
CUT
10
288.0702
20
194.5688
0
VERTEX
8
CUT
10
286.7250
20
190.3190
0
VERTEX
8
CUT
10
282.3721
20
180.5808
0
VERTEX
8
CUT
10
281.9530
20
178.9174
0
VERTEX
8
CUT
10
281.8580
20
177.2906
0
VERTEX
8
CUT
10
282.1176
20
175.3141
0
VERTEX
8
CUT
10
282.9175
20
173.7481
0
VERTEX
8
CUT
10
286.8244
20
170.2906
0
VERTEX
8
CUT
10
287.9903
20
168.6146
0
VERTEX
8
CUT
10
288.0967
20
168.4245
0
VERTEX
8
CUT
10
288.9457
20
166.2878
0
VERTEX
8
CUT
10
289.2000
20
165.0967
0
VERTEX
8
CUT
10
289.3054
20
163.1226
0
VERTEX
8
CUT
10
289.3033
20
162.2047
0
VERTEX
8
CUT
10
289.3031
20
162.1426
0
VERTEX
8
CUT
10
289.3027
20
161.9867
0
VERTEX
8
CUT
10
289.2987
20
160.2746
0
VERTEX
8
CUT
10
288.6157
20
155.9555
0
VERTEX
8
CUT
10
287.3965
20
152.2675
0
VERTEX
8
CUT
10
286.5569
20
150.4313
0
VERTEX
8
CUT
10
284.4983
20
146.8091
0
VERTEX
8
CUT
10
278.5213
20
138.9395
0
VERTEX
8
CUT
10
277.5386
20
137.3285
0
VERTEX
8
CUT
10
277.0060
20
135.9354
0
VERTEX
8
CUT
10
276.8329
20
134.7280
0
VERTEX
8
CUT
10
277.0122
20
133.5337
0
VERTEX
8
CUT
10
277.5623
20
132.3738
0
VERTEX
8
CUT
10
279.3723
20
129.5730
0
VERTEX
8
CUT
10
280.1718
20
127.3284
0
VERTEX
8
CUT
10
280.3008
20
125.6566
0
VERTEX
8
CUT
10
279.8237
20
122.5721
0
VERTEX
8
CUT
10
278.8146
20
120.6449
0
VERTEX
8
CUT
10
277.9533
20
119.5880
0
VERTEX
8
CUT
10
275.6038
20
117.2691
0
VERTEX
8
CUT
10
271.6539
20
113.8357
0
VERTEX
8
CUT
10
269.8601
20
111.9210
0
VERTEX
8
CUT
10
268.6644
20
110.1551
0
VERTEX
8
CUT
10
268.0060
20
108.4132
0
VERTEX
8
CUT
10
267.8689
20
106.7414
0
VERTEX
8
CUT
10
268.2209
20
105.0135
0
VERTEX
8
CUT
10
269.0578
20
103.1276
0
VERTEX
8
CUT
10
271.0570
20
99.9450
0
VERTEX
8
CUT
10
271.6184
20
98.7351
0
VERTEX
8
CUT
10
272.0377
20
97.4430
0
VERTEX
8
CUT
10
272.4030
20
94.7943
0
VERTEX
8
CUT
10
272.1911
20
92.0343
0
VERTEX
8
CUT
10
271.6929
20
90.2464
0
VERTEX
8
CUT
10
270.6107
20
87.8946
0
VERTEX
8
CUT
10
268.3992
20
83.9562
0
VERTEX
8
CUT
10
267.5485
20
81.9831
0
VERTEX
8
CUT
10
267.0692
20
79.9162
0
VERTEX
8
CUT
10
266.9487
20
77.4245
0
VERTEX
8
CUT
10
267.1611
20
74.2820
0
VERTEX
8
CUT
10
267.7081
20
70.2735
0
VERTEX
8
CUT
10
273.3463
20
40.7727
0
VERTEX
8
CUT
10
275.0857
20
29.0259
0
VERTEX
8
CUT
10
275.3162
20
25.7824
0
VERTEX
8
CUT
10
275.3896
20
24.4316
0
VERTEX
8
CUT
10
275.3683
20
21.8048
0
VERTEX
8
CUT
10
275.3657
20
21.7605
0
VERTEX
8
CUT
10
275.3595
20
21.6553
0
VERTEX
8
CUT
10
275.3560
20
21.5962
0
VERTEX
8
CUT
10
275.2810
20
20.3286
0
VERTEX
8
CUT
10
275.0269
20
17.9126
0
VERTEX
8
CUT
10
274.4156
20
14.9079
0
VERTEX
8
CUT
10
273.0566
20
10.9784
0
VERTEX
8
CUT
10
271.1451
20
7.6188
0
VERTEX
8
CUT
10
268.6767
20
4.8725
0
VERTEX
8
CUT
10
265.7723
20
2.7304
0
VERTEX
8
CUT
10
262.3202
20
1.1919
0
VERTEX
8
CUT
10
258.5313
20
0.3680
0
VERTEX
8
CUT
10
254.3203
20
0.1833
0
VERTEX
8
CUT
10
249.7573
20
0.6784
0
VERTEX
8
CUT
10
245.3202
20
1.8120
0
VERTEX
8
CUT
10
242.9893
20
2.6103
0
SEQEND
0
POLYLINE
8
CUT
66
1
70
1
10
0.0
20
0.0
30
0.0
0
VERTEX
8
CUT
10
260.1453
20
161.6207
0
VERTEX
8
CUT
10
261.6290
20
161.2993
0
VERTEX
8
CUT
10
263.6488
20
161.6801
0
VERTEX
8
CUT
10
266.7129
20
163.0135
0
VERTEX
8
CUT
10
267.5660
20
163.2072
0
VERTEX
8
CUT
10
269.1637
20
163.2138
0
VERTEX
8
CUT
10
270.4564
20
162.7547
0
VERTEX
8
CUT
10
270.8719
20
163.1199
0
VERTEX
8
CUT
10
270.7464
20
163.4303
0
VERTEX
8
CUT
10
270.1305
20
163.8153
0
VERTEX
8
CUT
10
268.3346
20
164.1940
0
VERTEX
8
CUT
10
266.3138
20
164.1129
0
VERTEX
8
CUT
10
264.0230
20
163.4440
0
VERTEX
8
CUT
10
262.1569
20
163.2828
0
VERTEX
8
CUT
10
259.9940
20
163.4685
0
VERTEX
8
CUT
10
259.0581
20
163.9494
0
VERTEX
8
CUT
10
258.6301
20
163.9323
0
VERTEX
8
CUT
10
258.4766
20
163.5324
0
VERTEX
8
CUT
10
259.4290
20
162.1080
0
SEQEND
0
POLYLINE
8
CUT
66
1
70
1
10
0.0
20
0.0
30
0.0
0
VERTEX
8
CUT
10
242.7431
20
180.3489
0
VERTEX
8
CUT
10
253.0418
20
181.9029
0
VERTEX
8
CUT
10
256.4230
20
182.6369
0
VERTEX
8
CUT
10
256.7067
20
183.0395
0
VERTEX
8
CUT
10
256.4367
20
183.3841
0
VERTEX
8
CUT
10
255.7076
20
183.4073
0
VERTEX
8
CUT
10
253.6135
20
182.9506
0
VERTEX
8
CUT
10
249.2844
20
182.5544
0
VERTEX
8
CUT
10
246.1454
20
182.4622
0
VERTEX
8
CUT
10
242.9640
20
182.6444
0
VERTEX
8
CUT
10
239.4392
20
181.8839
0
VERTEX
8
CUT
10
235.9115
20
181.5793
0
VERTEX
8
CUT
10
231.5324
20
180.1343
0
VERTEX
8
CUT
10
231.3404
20
179.8653
0
VERTEX
8
CUT
10
231.4242
20
179.5457
0
VERTEX
8
CUT
10
232.1460
20
179.4055
0
SEQEND
0
POLYLINE
8
CUT
66
1
70
1
10
0.0
20
0.0
30
0.0
0
VERTEX
8
CUT
10
254.1745
20
123.4570
0
VERTEX
8
CUT
10
253.5342
20
124.1888
0
VERTEX
8
CUT
10
253.4123
20
123.6704
0
VERTEX
8
CUT
10
253.7782
20
122.4508
0
VERTEX
8
CUT
10
254.7234
20
120.6213
0
VERTEX
8
CUT
10
255.7906
20
119.1577
0
VERTEX
8
CUT
10
256.5224
20
118.7003
0
VERTEX
8
CUT
10
256.6444
20
119.0357
0
VERTEX
8
CUT
10
256.2175
20
120.0724
0
SEQEND
0
POLYLINE
8
CUT
66
1
70
1
10
0.0
20
0.0
30
0.0
0
VERTEX
8
CUT
10
235.3002
20
212.8280
0
VERTEX
8
CUT
10
230.9094
20
212.7670
0
VERTEX
8
CUT
10
228.7750
20
214.2306
0
VERTEX
8
CUT
10
228.4091
20
214.0477
0
VERTEX
8
CUT
10
228.4701
20
213.1939
0
VERTEX
8
CUT
10
228.8665
20
212.5536
0
VERTEX
8
CUT
10
230.4520
20
211.3644
0
VERTEX
8
CUT
10
231.2753
20
211.1815
0
VERTEX
8
CUT
10
236.3369
20
211.5779
0
VERTEX
8
CUT
10
236.7638
20
211.8828
0
VERTEX
8
CUT
10
236.0625
20
212.4926
0
SEQEND
0
POLYLINE
8
CUT
66
1
70
1
10
0.0
20
0.0
30
0.0
0
VERTEX
8
CUT
10
219.9934
20
243.9600
0
VERTEX
8
CUT
10
221.8229
20
243.0453
0
VERTEX
8
CUT
10
222.0059
20
243.2282
0
VERTEX
8
CUT
10
221.7009
20
243.7161
0
VERTEX
8
CUT
10
220.4813
20
244.7833
0
VERTEX
8
CUT
10
219.1091
20
245.5456
0
VERTEX
8
CUT
10
217.9200
20
245.8505
0
VERTEX
8
CUT
10
216.5174
20
245.4541
0
VERTEX
8
CUT
10
214.2000
20
243.9295
0
VERTEX
8
CUT
10
213.1938
20
242.8318
0
VERTEX
8
CUT
10
213.0718
20
242.2525
0
VERTEX
8
CUT
10
213.4987
20
242.2830
0
VERTEX
8
CUT
10
215.3587
20
243.7161
0
VERTEX
8
CUT
10
217.1882
20
244.2344
0
VERTEX
8
CUT
10
219.1091
20
244.2039
0
SEQEND
0
POLYLINE
8
CUT
66
1
70
1
10
0.0
20
0.0
30
0.0
0
VERTEX
8
CUT
10
210.0226
20
224.6283
0
VERTEX
8
CUT
10
210.2971
20
225.4821
0
VERTEX
8
CUT
10
210.2056
20
225.9394
0
VERTEX
8
CUT
10
209.9312
20
225.9699
0
VERTEX
8
CUT
10
209.5043
20
225.5430
0
VERTEX
8
CUT
10
208.3151
20
223.7135
0
VERTEX
8
CUT
10
207.6748
20
223.1037
0
VERTEX
8
CUT
10
205.9977
20
222.4634
0
VERTEX
8
CUT
10
204.1682
20
222.0365
0
VERTEX
8
CUT
10
202.4302
20
221.9755
0
VERTEX
8
CUT
10
200.8446
20
222.3414
0
VERTEX
8
CUT
10
199.3810
20
223.1952
0
VERTEX
8
CUT
10
197.9479
20
224.3234
0
VERTEX
8
CUT
10
197.4296
20
224.4758
0
VERTEX
8
CUT
10
197.0637
20
224.3539
0
VERTEX
8
CUT
10
197.1552
20
223.9880
0
VERTEX
8
CUT
10
197.8260
20
223.1647
0
VERTEX
8
CUT
10
198.7712
20
222.2499
0
VERTEX
8
CUT
10
199.8994
20
221.5181
0
VERTEX
8
CUT
10
202.3692
20
220.6644
0
VERTEX
8
CUT
10
203.6499
20
220.5424
0
VERTEX
8
CUT
10
206.1197
20
220.9693
0
VERTEX
8
CUT
10
207.7358
20
221.9450
0
VERTEX
8
CUT
10
209.2908
20
223.5306
0
SEQEND
0
POLYLINE
8
CUT
66
1
70
1
10
0.0
20
0.0
30
0.0
0
VERTEX
8
CUT
10
199.7847
20
124.2777
0
VERTEX
8
CUT
10
199.8023
20
124.3050
0
VERTEX
8
CUT
10
200.3811
20
124.9290
0
VERTEX
8
CUT
10
201.2553
20
126.3685
0
VERTEX
8
CUT
10
201.9466
20
127.9239
0
VERTEX
8
CUT
10
202.4307
20
129.6335
0
VERTEX
8
CUT
10
202.6770
20
131.5422
0
VERTEX
8
CUT
10
202.6851
20
132.0131
0
VERTEX
8
CUT
10
202.7052
20
132.1120
0
VERTEX
8
CUT
10
202.7686
20
134.1698
0
VERTEX
8
CUT
10
202.7285
20
134.5343
0
VERTEX
8
CUT
10
202.7391
20
135.1523
0
VERTEX
8
CUT
10
202.4342
20
138.2477
0
VERTEX
8
CUT
10
202.0084
20
139.8482
0
VERTEX
8
CUT
10
201.3086
20
141.3660
0
VERTEX
8
CUT
10
201.0389
20
142.0504
0
VERTEX
8
CUT
10
200.8562
20
142.3471
0
VERTEX
8
CUT
10
200.6514
20
142.7913
0
VERTEX
8
CUT
10
200.2807
20
143.2820
0
VERTEX
8
CUT
10
199.9022
20
143.8970
0
VERTEX
8
CUT
10
199.4869
20
144.3329
0
VERTEX
8
CUT
10
198.7227
20
145.3445
0
VERTEX
8
CUT
10
197.7023
20
146.2061
0
VERTEX
8
CUT
10
197.4944
20
146.4244
0
VERTEX
8
CUT
10
197.2303
20
146.6047
0
VERTEX
8
CUT
10
196.4537
20
147.2605
0
VERTEX
8
CUT
10
195.6898
20
147.6566
0
VERTEX
8
CUT
10
195.6608
20
147.6764
0
VERTEX
8
CUT
10
195.6343
20
147.6854
0
VERTEX
8
CUT
10
194.5661
20
148.2394
0
VERTEX
8
CUT
10
193.0702
20
148.7128
0
VERTEX
8
CUT
10
192.2223
20
148.7359
0
VERTEX
8
CUT
10
190.5274
20
148.9498
0
VERTEX
8
CUT
10
188.4256
20
148.8622
0
VERTEX
8
CUT
10
187.9352
20
148.7708
0
VERTEX
8
CUT
10
186.6009
20
148.6778
0
VERTEX
8
CUT
10
184.4183
20
147.8789
0
VERTEX
8
CUT
10
182.4986
20
146.8107
0
VERTEX
8
CUT
10
180.2842
20
144.8625
0
VERTEX
8
CUT
10
179.0933
20
143.1833
0
VERTEX
8
CUT
10
178.5321
20
141.9372
0
VERTEX
8
CUT
10
178.4273
20
141.7535
0
VERTEX
8
CUT
10
178.3331
20
141.4954
0
VERTEX
8
CUT
10
177.8342
20
140.3875
0
VERTEX
8
CUT
10
177.6110
20
139.5168
0
VERTEX
8
CUT
10
177.5479
20
139.3439
0
VERTEX
8
CUT
10
177.4769
20
138.9935
0
VERTEX
8
CUT
10
176.9913
20
137.0991
0
VERTEX
8
CUT
10
176.6616
20
134.0817
0
VERTEX
8
CUT
10
176.9660
20
131.2561
0
VERTEX
8
CUT
10
177.5741
20
129.0576
0
VERTEX
8
CUT
10
177.5782
20
129.0389
0
VERTEX
8
CUT
10
177.5820
20
129.0289
0
VERTEX
8
CUT
10
178.0427
20
127.3635
0
VERTEX
8
CUT
10
179.0245
20
125.5127
0
VERTEX
8
CUT
10
179.6500
20
124.7769
0
VERTEX
8
CUT
10
179.6715
20
124.7414
0
VERTEX
8
CUT
10
179.8956
20
124.4881
0
VERTEX
8
CUT
10
180.7664
20
123.4638
0
VERTEX
8
CUT
10
181.4546
20
122.9102
0
VERTEX
8
CUT
10
182.1786
20
122.3013
0
VERTEX
8
CUT
10
182.3200
20
122.2141
0
VERTEX
8
CUT
10
182.8946
20
121.7518
0
VERTEX
8
CUT
10
185.2507
20
120.5246
0
VERTEX
8
CUT
10
187.1971
20
120.0096
0
VERTEX
8
CUT
10
188.7127
20
119.9433
0
VERTEX
8
CUT
10
188.8229
20
119.9197
0
VERTEX
8
CUT
10
189.5474
20
119.9067
0
VERTEX
8
CUT
10
190.0228
20
119.8859
0
VERTEX
8
CUT
10
190.1411
20
119.8961
0
VERTEX
8
CUT
10
190.6814
20
119.8864
0
VERTEX
8
CUT
10
192.0049
20
120.0564
0
VERTEX
8
CUT
10
192.8654
20
120.1304
0
VERTEX
8
CUT
10
195.2758
20
120.8472
0
VERTEX
8
CUT
10
198.1508
20
122.5245
0
VERTEX
8
CUT
10
199.7295
20
124.2266
0
SEQEND
0
POLYLINE
8
CUT
66
1
70
1
10
0.0
20
0.0
30
0.0
0
VERTEX
8
CUT
10
188.9632
20
266.9462
0
VERTEX
8
CUT
10
190.2537
20
266.7786
0
VERTEX
8
CUT
10
191.9829
20
265.9876
0
VERTEX
8
CUT
10
192.3033
20
266.0760
0
VERTEX
8
CUT
10
192.4388
20
266.3795
0
VERTEX
8
CUT
10
192.2849
20
266.6816
0
VERTEX
8
CUT
10
190.9114
20
267.5500
0
VERTEX
8
CUT
10
189.1605
20
268.1941
0
VERTEX
8
CUT
10
187.7088
20
267.7255
0
VERTEX
8
CUT
10
185.8101
20
266.7468
0
VERTEX
8
CUT
10
184.9769
20
266.1090
0
VERTEX
8
CUT
10
184.9853
20
265.6726
0
VERTEX
8
CUT
10
185.3933
20
265.5179
0
VERTEX
8
CUT
10
186.8011
20
266.5241
0
SEQEND
0
POLYLINE
8
CUT
66
1
70
1
10
0.0
20
0.0
30
0.0
0
VERTEX
8
CUT
10
176.9562
20
242.0736
0
VERTEX
8
CUT
10
178.5380
20
241.7948
0
VERTEX
8
CUT
10
180.2136
20
242.3565
0
VERTEX
8
CUT
10
181.0536
20
243.1286
0
VERTEX
8
CUT
10
182.0476
20
244.8902
0
VERTEX
8
CUT
10
182.4424
20
246.7631
0
VERTEX
8
CUT
10
182.2407
20
247.0652
0
VERTEX
8
CUT
10
181.8447
20
247.0507
0
VERTEX
8
CUT
10
180.7668
20
245.4813
0
VERTEX
8
CUT
10
179.7066
20
244.5097
0
VERTEX
8
CUT
10
178.0587
20
243.8128
0
VERTEX
8
CUT
10
177.4313
20
243.9215
0
VERTEX
8
CUT
10
176.1996
20
244.5373
0
VERTEX
8
CUT
10
174.6642
20
245.8785
0
VERTEX
8
CUT
10
174.2009
20
245.9257
0
VERTEX
8
CUT
10
174.0236
20
245.4950
0
VERTEX
8
CUT
10
175.4697
20
243.2575
0
SEQEND
0
POLYLINE
8
CUT
66
1
70
1
10
0.0
20
0.0
30
0.0
0
VERTEX
8
CUT
10
161.9606
20
259.2044
0
VERTEX
8
CUT
10
163.3334
20
259.5762
0
VERTEX
8
CUT
10
164.8581
20
260.8017
0
VERTEX
8
CUT
10
164.7638
20
261.1191
0
VERTEX
8
CUT
10
164.4593
20
261.2492
0
VERTEX
8
CUT
10
163.1025
20
260.6768
0
VERTEX
8
CUT
10
161.7365
20
260.7653
0
VERTEX
8
CUT
10
160.1466
20
261.1370
0
VERTEX
8
CUT
10
159.2094
20
261.5681
0
VERTEX
8
CUT
10
158.7062
20
261.3429
0
VERTEX
8
CUT
10
158.9199
20
260.8110
0
VERTEX
8
CUT
10
160.5202
20
259.7384
0
SEQEND
0
POLYLINE
8
CUT
66
1
70
1
10
0.0
20
0.0
30
0.0
0
VERTEX
8
CUT
10
142.9715
20
287.8070
0
VERTEX
8
CUT
10
144.0387
20
287.7460
0
VERTEX
8
CUT
10
147.6672
20
286.7703
0
VERTEX
8
CUT
10
147.9416
20
286.7398
0
VERTEX
8
CUT
10
148.0026
20
286.9227
0
VERTEX
8
CUT
10
147.4233
20
287.7155
0
VERTEX
8
CUT
10
146.2036
20
288.2949
0
VERTEX
8
CUT
10
142.8190
20
288.9657
0
VERTEX
8
CUT
10
141.0505
20
288.9352
0
VERTEX
8
CUT
10
139.4954
20
288.2949
0
VERTEX
8
CUT
10
137.8794
20
286.9532
0
VERTEX
8
CUT
10
135.5315
20
283.9955
0
VERTEX
8
CUT
10
135.9279
20
284.1785
0
VERTEX
8
CUT
10
137.2086
20
285.4896
0
VERTEX
8
CUT
10
138.6417
20
286.3739
0
VERTEX
8
CUT
10
141.9348
20
287.6241
0
SEQEND
0
POLYLINE
8
CUT
66
1
70
1
10
0.0
20
0.0
30
0.0
0
VERTEX
8
CUT
10
120.6333
20
257.3678
0
VERTEX
8
CUT
10
122.0706
20
257.1315
0
VERTEX
8
CUT
10
123.8275
20
257.6000
0
VERTEX
8
CUT
10
125.0209
20
258.3549
0
VERTEX
8
CUT
10
126.9509
20
260.1900
0
VERTEX
8
CUT
10
127.7902
20
261.4215
0
VERTEX
8
CUT
10
127.5885
20
261.7309
0
VERTEX
8
CUT
10
127.2191
20
261.7328
0
VERTEX
8
CUT
10
124.7341
20
259.6553
0
VERTEX
8
CUT
10
124.0258
20
259.2765
0
VERTEX
8
CUT
10
123.0183
20
259.0583
0
VERTEX
8
CUT
10
120.4774
20
259.3684
0
VERTEX
8
CUT
10
118.9332
20
260.4725
0
VERTEX
8
CUT
10
118.4688
20
260.4945
0
VERTEX
8
CUT
10
118.3046
20
260.0932
0
VERTEX
8
CUT
10
119.3969
20
258.3788
0
SEQEND
0
POLYLINE
8
CUT
66
1
70
1
10
0.0
20
0.0
30
0.0
0
VERTEX
8
CUT
10
115.8952
20
263.3766
0
VERTEX
8
CUT
10
116.2870
20
263.6295
0
VERTEX
8
CUT
10
116.1851
20
264.0523
0
VERTEX
8
CUT
10
115.4610
20
264.4418
0
VERTEX
8
CUT
10
113.8946
20
264.4384
0
VERTEX
8
CUT
10
113.6581
20
264.0461
0
VERTEX
8
CUT
10
113.9220
20
263.7104
0
VERTEX
8
CUT
10
114.9516
20
263.6815
0
SEQEND
0
POLYLINE
8
CUT
66
1
70
1
10
0.0
20
0.0
30
0.0
0
VERTEX
8
CUT
10
107.5441
20
121.9860
0
VERTEX
8
CUT
10
109.1558
20
123.2679
0
VERTEX
8
CUT
10
110.4712
20
124.7126
0
VERTEX
8
CUT
10
111.4987
20
126.3591
0
VERTEX
8
CUT
10
112.2684
20
128.2207
0
VERTEX
8
CUT
10
112.7941
20
130.3783
0
VERTEX
8
CUT
10
113.0183
20
132.3196
0
VERTEX
8
CUT
10
113.0893
20
132.8332
0
VERTEX
8
CUT
10
113.0634
20
135.6383
0
VERTEX
8
CUT
10
112.8160
20
137.2219
0
VERTEX
8
CUT
10
112.7934
20
137.6372
0
VERTEX
8
CUT
10
112.6649
20
138.1895
0
VERTEX
8
CUT
10
112.6399
20
138.3490
0
VERTEX
8
CUT
10
112.5958
20
138.4864
0
VERTEX
8
CUT
10
112.2704
20
139.8846
0
VERTEX
8
CUT
10
111.5419
20
141.8745
0
VERTEX
8
CUT
10
110.5954
20
143.5876
0
VERTEX
8
CUT
10
109.4183
20
145.1197
0
VERTEX
8
CUT
10
107.9888
20
146.4340
0
VERTEX
8
CUT
10
106.3394
20
147.5433
0
VERTEX
8
CUT
10
104.9728
20
148.1321
0
VERTEX
8
CUT
10
104.4042
20
148.4397
0
VERTEX
8
CUT
10
104.1062
20
148.5054
0
VERTEX
8
CUT
10
103.9607
20
148.5681
0
VERTEX
8
CUT
10
102.0310
20
148.9493
0
VERTEX
8
CUT
10
98.0178
20
148.8308
0
VERTEX
8
CUT
10
96.2797
20
148.5003
0
VERTEX
8
CUT
10
94.4271
20
147.6906
0
VERTEX
8
CUT
10
94.1822
20
147.5308
0
VERTEX
8
CUT
10
93.5477
20
147.1715
0
VERTEX
8
CUT
10
93.1981
20
146.8886
0
VERTEX
8
CUT
10
91.9249
20
146.0576
0
VERTEX
8
CUT
10
89.9507
20
143.9365
0
VERTEX
8
CUT
10
88.4557
20
141.2236
0
VERTEX
8
CUT
10
87.4736
20
138.0088
0
VERTEX
8
CUT
10
87.0761
20
135.3658
0
VERTEX
8
CUT
10
87.0465
20
132.9099
0
VERTEX
8
CUT
10
87.2841
20
130.5095
0
VERTEX
8
CUT
10
87.8813
20
128.2798
0
VERTEX
8
CUT
10
88.7614
20
126.2392
0
VERTEX
8
CUT
10
88.9772
20
125.9002
0
VERTEX
8
CUT
10
89.0544
20
125.7234
0
VERTEX
8
CUT
10
89.5309
20
125.0305
0
VERTEX
8
CUT
10
89.9239
20
124.4131
0
VERTEX
8
CUT
10
90.0454
20
124.2823
0
VERTEX
8
CUT
10
90.0793
20
124.2330
0
VERTEX
8
CUT
10
90.2479
20
124.0640
0
VERTEX
8
CUT
10
91.3372
20
122.8904
0
VERTEX
8
CUT
10
93.0088
20
121.6706
0
VERTEX
8
CUT
10
94.7998
20
120.7474
0
VERTEX
8
CUT
10
96.4477
20
120.1821
0
VERTEX
8
CUT
10
98.4472
20
119.9744
0
VERTEX
8
CUT
10
98.7476
20
119.9214
0
VERTEX
8
CUT
10
98.9977
20
119.9173
0
VERTEX
8
CUT
10
99.2974
20
119.8861
0
VERTEX
8
CUT
10
99.7449
20
119.9048
0
VERTEX
8
CUT
10
100.8533
20
119.8863
0
VERTEX
8
CUT
10
101.5985
20
119.9822
0
VERTEX
8
CUT
10
102.9533
20
120.0387
0
VERTEX
8
CUT
10
105.0499
20
120.6621
0
VERTEX
8
CUT
10
106.3553
20
121.3550
0
VERTEX
8
CUT
10
106.4946
20
121.4172
0
VERTEX
8
CUT
10
106.5521
20
121.4594
0
SEQEND
0
POLYLINE
8
CUT
66
1
70
1
10
0.0
20
0.0
30
0.0
0
VERTEX
8
CUT
10
101.4920
20
240.5001
0
VERTEX
8
CUT
10
102.8156
20
239.4255
0
VERTEX
8
CUT
10
104.2662
20
239.0836
0
VERTEX
8
CUT
10
105.8791
20
239.4665
0
VERTEX
8
CUT
10
106.9175
20
240.2519
0
VERTEX
8
CUT
10
107.9234
20
241.5017
0
VERTEX
8
CUT
10
108.8940
20
243.5274
0
VERTEX
8
CUT
10
108.7437
20
243.8658
0
VERTEX
8
CUT
10
108.3784
20
243.9256
0
VERTEX
8
CUT
10
107.4147
20
242.9632
0
VERTEX
8
CUT
10
106.0101
20
242.0166
0
VERTEX
8
CUT
10
104.3712
20
241.4424
0
VERTEX
8
CUT
10
103.3157
20
241.3719
0
VERTEX
8
CUT
10
102.7557
20
241.5306
0
VERTEX
8
CUT
10
102.2578
20
241.9342
0
VERTEX
8
CUT
10
100.8708
20
244.0693
0
VERTEX
8
CUT
10
100.3909
20
244.1691
0
VERTEX
8
CUT
10
100.1913
20
243.6896
0
VERTEX
8
CUT
10
100.6109
20
242.1540
0
SEQEND
0
POLYLINE
8
CUT
66
1
70
1
10
0.0
20
0.0
30
0.0
0
VERTEX
8
CUT
10
99.1550
20
260.1816
0
VERTEX
8
CUT
10
99.5209
20
260.2425
0
VERTEX
8
CUT
10
99.5514
20
260.4255
0
VERTEX
8
CUT
10
99.3074
20
261.0963
0
VERTEX
8
CUT
10
98.6671
20
261.8281
0
VERTEX
8
CUT
10
96.9901
20
262.9868
0
VERTEX
8
CUT
10
95.5875
20
263.5356
0
VERTEX
8
CUT
10
94.0629
20
263.0478
0
VERTEX
8
CUT
10
91.9285
20
261.7061
0
VERTEX
8
CUT
10
91.5626
20
261.1573
0
VERTEX
8
CUT
10
91.3796
20
260.1816
0
VERTEX
8
CUT
10
91.5626
20
259.8766
0
VERTEX
8
CUT
10
93.8799
20
261.6757
0
VERTEX
8
CUT
10
95.0996
20
262.0111
0
VERTEX
8
CUT
10
96.5327
20
261.9196
0
SEQEND
0
POLYLINE
8
CUT
66
1
70
1
10
0.0
20
0.0
30
0.0
0
VERTEX
8
CUT
10
85.4947
20
222.4634
0
VERTEX
8
CUT
10
85.5862
20
222.7988
0
VERTEX
8
CUT
10
81.2259
20
222.4329
0
VERTEX
8
CUT
10
79.5488
20
222.6768
0
VERTEX
8
CUT
10
78.0243
20
223.3781
0
VERTEX
8
CUT
10
75.4935
20
225.5126
0
VERTEX
8
CUT
10
75.0056
20
225.7260
0
VERTEX
8
CUT
10
75.6764
20
224.2319
0
VERTEX
8
CUT
10
77.1705
20
222.4634
0
VERTEX
8
CUT
10
78.0243
20
221.7926
0
VERTEX
8
CUT
10
79.9452
20
221.0303
0
VERTEX
8
CUT
10
80.9820
20
220.8778
0
VERTEX
8
CUT
10
83.2078
20
221.1522
0
VERTEX
8
CUT
10
84.9154
20
221.9755
0
SEQEND
0
POLYLINE
8
CUT
66
1
70
1
10
0.0
20
0.0
30
0.0
0
VERTEX
8
CUT
10
70.7063
20
233.8978
0
VERTEX
8
CUT
10
71.4686
20
233.8368
0
VERTEX
8
CUT
10
71.5905
20
234.0197
0
VERTEX
8
CUT
10
71.3161
20
234.6296
0
VERTEX
8
CUT
10
70.2794
20
235.4833
0
VERTEX
8
CUT
10
69.5476
20
235.8492
0
VERTEX
8
CUT
10
68.0535
20
236.0627
0
VERTEX
8
CUT
10
66.6204
20
235.7273
0
VERTEX
8
CUT
10
65.9496
20
235.3309
0
VERTEX
8
CUT
10
64.8824
20
234.1722
0
VERTEX
8
CUT
10
64.2725
20
232.7696
0
VERTEX
8
CUT
10
65.5227
20
233.7758
0
VERTEX
8
CUT
10
67.3522
20
234.6905
0
VERTEX
8
CUT
10
68.2364
20
234.8430
0
VERTEX
8
CUT
10
69.0902
20
234.6905
0
SEQEND
0
POLYLINE
8
CUT
66
1
70
1
10
0.0
20
0.0
30
0.0
0
VERTEX
8
CUT
10
59.9415
20
211.9358
0
VERTEX
8
CUT
10
60.4927
20
212.4329
0
VERTEX
8
CUT
10
60.7497
20
212.9672
0
VERTEX
8
CUT
10
60.6347
20
213.2365
0
VERTEX
8
CUT
10
60.3270
20
213.3482
0
VERTEX
8
CUT
10
57.9378
20
212.4690
0
VERTEX
8
CUT
10
55.4179
20
212.9842
0
VERTEX
8
CUT
10
54.1933
20
212.6227
0
VERTEX
8
CUT
10
54.0914
20
212.2348
0
VERTEX
8
CUT
10
54.3488
20
211.9723
0
VERTEX
8
CUT
10
58.2177
20
211.3315
0
SEQEND
0
POLYLINE
8
CUT
66
1
70
1
10
0.0
20
0.0
30
0.0
0
VERTEX
8
CUT
10
44.9362
20
180.6541
0
VERTEX
8
CUT
10
55.8617
20
179.5582
0
VERTEX
8
CUT
10
58.6282
20
179.3979
0
VERTEX
8
CUT
10
59.0009
20
179.7318
0
VERTEX
8
CUT
10
58.7261
20
180.1639
0
VERTEX
8
CUT
10
54.1048
20
181.9167
0
VERTEX
8
CUT
10
52.1045
20
182.3312
0
VERTEX
8
CUT
10
50.4119
20
183.2226
0
VERTEX
8
CUT
10
49.1653
20
182.9194
0
VERTEX
8
CUT
10
46.9959
20
183.2548
0
VERTEX
8
CUT
10
45.9255
20
182.9804
0
VERTEX
8
CUT
10
44.3201
20
182.8891
0
VERTEX
8
CUT
10
33.3326
20
183.4048
0
VERTEX
8
CUT
10
33.0007
20
183.1800
0
VERTEX
8
CUT
10
33.0429
20
182.7814
0
VERTEX
8
CUT
10
34.0350
20
182.4508
0
SEQEND
0
POLYLINE
8
CUT
66
1
70
1
10
0.0
20
0.0
30
0.0
0
VERTEX
8
CUT
10
36.3422
20
124.7376
0
VERTEX
8
CUT
10
35.8238
20
124.3717
0
VERTEX
8
CUT
10
32.8051
20
120.0724
0
VERTEX
8
CUT
10
32.3478
20
119.0662
0
VERTEX
8
CUT
10
32.4088
20
118.6698
0
VERTEX
8
CUT
10
32.5917
20
118.6088
0
VERTEX
8
CUT
10
33.4455
20
119.1882
0
VERTEX
8
CUT
10
35.5494
20
121.6275
0
VERTEX
8
CUT
10
36.2202
20
122.9996
0
VERTEX
8
CUT
10
36.4946
20
124.1888
0
SEQEND
0
POLYLINE
8
CUT
66
1
70
1
10
0.0
20
0.0
30
0.0
0
VERTEX
8
CUT
10
19.5887
20
163.2404
0
VERTEX
8
CUT
10
21.0992
20
163.4884
0
VERTEX
8
CUT
10
22.9397
20
163.1703
0
VERTEX
8
CUT
10
26.9708
20
161.5538
0
VERTEX
8
CUT
10
29.0835
20
161.3249
0
VERTEX
8
CUT
10
30.0535
20
161.6938
0
VERTEX
8
CUT
10
30.5699
20
162.1367
0
VERTEX
8
CUT
10
31.4390
20
163.3671
0
VERTEX
8
CUT
10
31.6624
20
164.2462
0
VERTEX
8
CUT
10
31.5069
20
164.5069
0
VERTEX
8
CUT
10
31.1734
20
164.5683
0
VERTEX
8
CUT
10
29.7114
20
163.5109
0
VERTEX
8
CUT
10
28.4043
20
163.3473
0
VERTEX
8
CUT
10
26.0939
20
163.8420
0
VERTEX
8
CUT
10
23.2832
20
164.8785
0
VERTEX
8
CUT
10
21.6867
20
165.1093
0
VERTEX
8
CUT
10
20.5211
20
165.0522
0
VERTEX
8
CUT
10
19.3876
20
164.6588
0
VERTEX
8
CUT
10
17.9463
20
163.8009
0
VERTEX
8
CUT
10
17.2571
20
163.1021
0
VERTEX
8
CUT
10
16.6260
20
161.7920
0
VERTEX
8
CUT
10
16.7501
20
161.4118
0
VERTEX
8
CUT
10
17.1439
20
161.3414
0
VERTEX
8
CUT
10
18.8841
20
162.9093
0
SEQEND
0
ENDSEC
0
EOF
