<svg xmlns="http://www.w3.org/2000/svg" width="300.0mm" height="300.0mm" viewBox="0 0 300.0 300.0">
  <path d="M 119.566 128.462 L 121.692 130.621 L 124.261 132.547 L 127.087 134.105 L 130.145 135.298 L 134.249 135.894 L 137.297 135.859 L 139.961 135.465 L 141.040 135.130 L 142.991 134.174 L 145.527 132.201 L 146.869 130.652 L 147.807 129.004 L 148.834 126.088 L 149.237 123.394 L 149.002 122.098 L 148.286 120.522 L 146.764 118.107 L 145.697 116.836 L 142.763 114.741 L 140.774 113.779 L 140.208 113.798 L 139.996 114.084 L 139.891 114.898 L 139.922 118.642 L 139.599 120.965 L 139.048 123.241 L 138.839 123.780 L 138.689 124.320 L 138.440 124.806 L 138.237 125.326 L 137.253 127.135 L 137.225 127.171 L 137.176 127.266 L 136.893 127.606 L 136.221 128.482 L 135.122 129.381 L 134.967 129.428 L 134.787 129.569 L 134.130 129.678 L 133.992 129.719 L 133.045 129.482 L 131.943 128.708 L 130.914 127.489 L 129.137 124.134 L 128.089 120.095 L 128.028 119.105 L 128.019 119.040 L 128.022 118.998 L 127.921 117.369 L 128.069 116.449 L 128.336 116.198 L 129.440 116.688 L 130.816 116.884 L 131.734 116.549 L 132.493 115.978 L 133.047 115.267 L 133.407 114.186 L 133.500 113.767 L 133.407 113.187 L 133.216 112.361 L 132.391 111.142 L 132.185 110.988 L 130.961 110.344 L 126.257 109.844 L 123.150 109.909 L 120.561 110.545 L 118.445 111.840 L 116.251 114.100 L 115.697 115.194 L 115.377 116.508 L 115.312 118.099 L 115.608 120.774 L 116.448 123.475 L 117.795 126.063 Z M 26.780 206.229 L 28.985 205.247 L 41.849 197.317 L 47.158 194.581 L 51.845 192.780 L 55.971 191.805 L 56.586 191.847 L 56.727 192.222 L 56.499 192.510 L 53.102 193.368 L 50.666 194.235 L 43.262 197.937 L 37.013 201.939 L 29.191 207.854 L 29.124 213.790 L 28.902 215.707 L 26.338 222.223 L 25.303 225.974 L 25.159 228.232 L 25.169 228.451 L 25.180 228.721 L 25.180 228.727 L 25.229 229.862 L 25.304 230.378 L 25.401 230.725 L 26.348 233.803 L 26.299 233.939 L 26.310 233.976 L 26.109 234.468 L 25.245 236.868 L 25.206 237.382 L 25.400 237.825 L 25.411 237.841 L 25.413 237.844 L 25.414 237.845 L 25.415 237.846 L 25.897 238.230 L 26.017 238.285 L 26.505 238.393 L 27.209 238.286 L 28.466 237.539 L 44.690 222.757 L 48.755 219.526 L 49.241 219.495 L 49.636 220.228 L 50.014 222.048 L 50.044 223.920 L 49.726 224.871 L 49.316 224.988 L 48.650 224.460 L 48.057 224.300 L 47.236 224.613 L 45.944 225.461 L 41.481 229.199 L 40.278 230.003 L 38.718 231.699 L 37.229 233.901 L 37.538 234.281 L 39.798 235.661 L 41.342 237.204 L 43.746 241.245 L 43.718 242.579 L 43.135 245.132 L 43.132 245.154 L 43.125 245.203 L 43.044 245.766 L 42.500 249.562 L 42.533 254.232 L 42.991 256.961 L 43.008 257.029 L 43.676 259.197 L 43.788 259.502 L 43.791 259.510 L 43.807 259.554 L 43.936 259.905 L 44.887 261.979 L 46.181 264.140 L 47.514 265.826 L 48.114 266.456 L 49.409 267.679 L 51.260 268.972 L 51.339 269.015 L 51.362 269.027 L 51.370 269.032 L 51.409 269.053 L 53.312 269.972 L 57.305 271.021 L 58.925 271.656 L 58.937 271.660 L 59.156 271.562 L 60.388 270.471 L 61.448 268.713 L 64.012 263.495 L 64.503 263.332 L 65.016 264.702 L 68.177 265.582 L 69.652 266.333 L 71.244 267.538 L 73.944 270.238 L 75.516 272.366 L 78.534 278.011 L 79.777 279.985 L 80.096 280.394 L 80.386 280.766 L 80.428 280.820 L 80.432 280.826 L 82.974 283.513 L 83.229 283.720 L 83.467 283.913 L 83.559 283.987 L 83.740 284.134 L 84.823 284.969 L 86.598 286.008 L 88.261 286.717 L 89.368 286.931 L 89.903 287.035 L 90.241 287.101 L 90.321 287.116 L 93.328 287.118 L 93.628 287.071 L 93.669 287.059 L 93.782 287.028 L 93.823 287.016 L 95.452 286.565 L 97.312 285.506 L 97.569 285.277 L 98.472 284.336 L 98.580 284.214 L 99.430 282.980 L 99.719 282.395 L 99.825 282.181 L 100.111 281.445 L 100.560 278.899 L 100.643 277.760 L 100.775 274.590 L 101.194 273.686 L 101.935 273.343 L 103.315 273.215 L 104.950 273.378 L 106.566 273.788 L 107.682 274.312 L 109.505 275.584 L 110.836 276.788 L 112.276 278.451 L 113.627 280.657 L 117.474 288.541 L 117.653 288.816 L 117.694 288.879 L 117.726 288.927 L 117.848 289.116 L 120.346 291.964 L 121.977 293.253 L 124.211 294.431 L 124.217 294.434 L 124.225 294.437 L 124.244 294.444 L 124.287 294.461 L 125.106 294.618 L 128.087 294.739 L 130.502 294.807 L 130.513 294.838 L 130.522 294.839 L 130.581 295.038 L 130.650 295.242 L 130.706 295.321 L 130.723 295.455 L 131.376 297.373 L 131.822 298.106 L 132.462 298.774 L 133.450 299.431 L 134.738 299.734 L 134.935 299.769 L 138.011 299.565 L 142.158 298.512 L 142.925 298.210 L 143.422 297.999 L 143.612 297.919 L 143.765 297.855 L 144.428 297.574 L 147.673 295.597 L 147.679 295.591 L 147.686 295.586 L 147.697 295.577 L 147.714 295.564 L 148.759 294.633 L 148.976 294.401 L 149.469 293.877 L 149.863 293.459 L 150.332 292.959 L 150.650 292.595 L 151.810 291.036 L 152.430 290.078 L 154.874 286.061 L 155.967 284.613 L 156.088 284.425 L 156.169 284.344 L 156.358 284.094 L 157.778 282.710 L 159.555 281.848 L 160.303 281.909 L 160.853 282.256 L 161.023 282.456 L 161.264 282.665 L 161.375 282.869 L 161.396 282.893 L 161.407 282.928 L 161.540 283.173 L 161.619 283.276 L 161.614 283.311 L 161.643 283.363 L 161.657 283.695 L 161.663 283.712 L 161.661 283.784 L 161.698 284.631 L 161.635 284.916 L 161.633 284.984 L 160.909 289.199 L 160.909 291.291 L 160.969 291.594 L 161.613 293.699 L 161.673 293.831 L 161.677 293.837 L 161.689 293.864 L 161.767 294.033 L 163.084 296.115 L 164.057 297.158 L 166.232 298.713 L 166.284 298.742 L 166.327 298.767 L 166.332 298.769 L 166.349 298.779 L 167.328 299.153 L 167.606 299.234 L 168.085 299.374 L 168.399 299.465 L 168.667 299.543 L 170.052 299.670 L 172.836 299.541 L 174.126 299.299 L 175.662 298.665 L 177.030 297.979 L 179.062 296.442 L 181.521 293.671 L 181.740 293.334 L 181.826 293.202 L 181.890 293.103 L 182.074 292.818 L 182.946 291.330 L 183.963 288.478 L 184.207 288.258 L 184.533 288.303 L 185.661 289.266 L 189.369 290.593 L 190.912 290.905 L 192.469 290.939 L 194.088 290.800 L 197.025 289.896 L 198.275 289.119 L 200.065 287.535 L 201.224 288.072 L 202.071 287.850 L 203.932 286.332 L 206.034 284.126 L 206.776 283.118 L 206.983 282.770 L 207.060 282.639 L 207.116 282.545 L 207.420 282.032 L 208.649 279.625 L 209.660 275.664 L 210.583 267.290 L 211.118 264.647 L 211.142 264.508 L 211.151 264.482 L 211.338 263.562 L 212.560 260.504 L 213.597 258.782 L 214.696 257.545 L 214.960 257.184 L 215.186 256.993 L 215.989 256.089 L 217.301 255.150 L 218.424 254.635 L 219.047 254.536 L 219.384 254.390 L 219.761 254.448 L 219.932 254.635 L 220.255 254.722 L 220.789 255.375 L 220.886 255.686 L 221.095 255.915 L 220.858 256.538 L 220.848 256.624 L 219.686 260.161 L 219.632 260.465 L 219.621 260.524 L 219.615 260.560 L 219.549 260.924 L 219.535 261.948 L 219.728 263.218 L 219.874 263.611 L 220.450 264.467 L 221.853 265.582 L 221.869 265.592 L 221.871 265.593 L 221.899 265.610 L 221.964 265.649 L 222.876 265.993 L 224.755 266.054 L 225.792 265.791 L 226.527 265.539 L 228.053 264.631 L 228.619 264.240 L 228.652 264.212 L 228.689 264.181 L 228.757 264.124 L 228.864 264.034 L 230.211 262.659 L 230.605 262.193 L 231.980 260.276 L 233.306 257.783 L 234.075 255.812 L 234.842 253.256 L 235.004 252.644 L 235.511 248.840 L 235.820 242.865 L 235.721 240.901 L 235.319 239.475 L 232.244 233.068 L 232.313 232.636 L 232.869 232.624 L 234.558 234.722 L 238.954 241.755 L 239.999 242.929 L 242.209 244.531 L 242.462 244.620 L 243.553 244.957 L 244.512 245.045 L 245.681 244.873 L 246.751 244.440 L 248.392 243.185 L 248.430 243.144 L 248.471 243.098 L 248.490 243.076 L 248.658 242.891 L 249.697 241.223 L 249.730 241.156 L 249.735 241.146 L 249.762 241.090 L 249.791 241.031 L 250.162 239.953 L 250.179 239.869 L 250.187 239.832 L 250.190 239.819 L 250.192 239.808 L 250.481 237.142 L 250.415 235.573 L 250.364 235.269 L 250.363 235.266 L 250.362 235.262 L 250.362 235.261 L 249.797 232.873 L 249.579 232.245 L 249.476 231.947 L 249.446 231.861 L 249.401 231.732 L 249.138 231.115 L 248.626 230.158 L 248.034 229.158 L 245.046 225.189 L 245.134 225.135 L 245.151 225.122 L 244.947 224.702 L 245.204 224.306 L 245.777 224.010 L 245.779 223.940 L 245.772 223.821 L 245.760 223.750 L 246.590 223.436 L 248.273 222.118 L 249.293 220.256 L 249.492 218.904 L 249.184 217.779 L 248.400 216.643 L 247.238 215.656 L 246.638 215.311 L 244.053 214.579 L 243.130 214.982 L 241.992 216.017 L 241.517 216.772 L 241.440 216.726 L 241.331 216.675 L 241.218 216.636 L 241.102 216.608 L 240.984 216.591 L 240.864 216.587 L 240.745 216.594 L 240.627 216.613 L 240.511 216.644 L 240.399 216.687 L 240.292 216.740 L 240.198 216.799 L 240.187 216.800 L 240.071 216.822 L 239.959 216.854 L 239.875 216.888 L 239.579 215.925 L 239.382 214.438 L 239.570 211.620 L 240.376 209.319 L 242.224 205.637 L 240.595 204.058 L 238.435 202.363 L 233.342 198.814 L 230.233 196.368 L 228.202 195.135 L 226.098 194.173 L 223.688 196.861 L 221.635 198.562 L 220.064 199.413 L 216.074 200.916 L 214.114 201.878 L 212.343 203.043 L 210.706 204.408 L 209.337 205.949 L 208.172 207.652 L 207.209 209.517 L 205.742 213.263 L 205.370 213.754 L 204.536 214.269 L 204.309 214.663 L 204.366 215.034 L 205.221 215.959 L 205.634 216.852 L 205.912 218.455 L 205.726 219.185 L 205.397 219.244 L 204.943 218.977 L 202.661 217.121 L 200.714 214.826 L 199.446 212.240 L 199.045 210.769 L 198.756 207.595 L 199.016 204.817 L 199.563 203.611 L 200.779 202.350 L 201.253 202.354 L 201.694 202.979 L 202.250 203.262 L 202.836 203.256 L 203.250 202.935 L 203.366 202.540 L 203.149 202.062 L 201.483 200.945 L 201.572 200.282 L 202.576 199.316 L 203.403 199.677 L 203.948 199.403 L 206.473 196.109 L 207.367 194.583 L 207.417 194.014 L 206.392 193.694 L 204.249 193.853 L 203.726 193.725 L 202.147 189.896 L 199.938 186.665 L 198.474 185.164 L 196.838 183.858 L 193.430 181.871 L 191.772 181.341 L 190.249 181.142 L 188.771 181.277 L 185.109 182.300 L 180.025 184.474 L 179.692 184.442 L 179.506 184.164 L 179.662 183.793 L 182.856 181.913 L 186.104 179.689 L 188.723 177.463 L 190.836 175.185 L 192.373 172.879 L 193.279 170.596 L 193.615 168.350 L 193.331 165.238 L 193.366 165.181 L 193.349 165.099 L 193.473 165.007 L 193.539 164.899 L 194.304 164.808 L 195.611 164.248 L 196.831 165.575 L 195.815 167.404 L 194.892 169.746 L 194.450 172.228 L 194.587 175.769 L 194.842 176.929 L 194.850 176.953 L 194.855 176.968 L 194.856 176.972 L 194.905 177.117 L 195.914 179.419 L 199.613 184.128 L 203.468 188.247 L 207.099 191.779 L 208.472 192.522 L 210.166 192.957 L 211.594 193.020 L 213.649 192.590 L 215.676 191.583 L 216.625 190.842 L 220.151 187.283 L 220.459 187.208 L 221.183 187.485 L 224.853 189.859 L 226.310 190.951 L 226.659 191.183 L 226.683 191.231 L 233.535 196.370 L 244.758 205.783 L 249.422 210.239 L 250.945 211.641 L 251.510 212.234 L 253.643 214.273 L 260.412 221.592 L 260.769 221.968 L 261.142 222.359 L 262.235 223.508 L 264.057 225.423 L 265.610 226.857 L 265.873 227.029 L 265.909 227.053 L 265.947 227.077 L 265.979 227.098 L 266.652 227.208 L 266.705 227.179 L 267.027 226.960 L 267.212 226.059 L 267.211 225.967 L 267.093 225.597 L 267.063 225.524 L 266.846 225.003 L 266.363 223.847 L 265.845 222.868 L 263.984 219.935 L 263.920 219.845 L 263.873 219.779 L 263.609 219.407 L 261.471 216.396 L 260.360 214.865 L 255.039 208.460 L 254.625 207.732 L 254.673 207.110 L 254.667 207.066 L 254.681 207.006 L 254.928 203.837 L 254.860 201.869 L 254.399 199.575 L 254.317 199.436 L 254.292 199.394 L 253.998 198.891 L 252.674 196.631 L 251.339 195.037 L 251.334 195.031 L 251.323 195.019 L 251.318 195.013 L 251.059 194.719 L 247.225 190.787 L 244.688 187.679 L 241.031 186.590 L 236.722 185.001 L 232.433 183.846 L 231.328 183.908 L 229.632 184.611 L 228.700 184.660 L 228.531 184.372 L 228.647 183.984 L 230.147 181.298 L 229.751 180.734 L 229.876 180.321 L 230.234 180.247 L 236.371 182.174 L 243.448 184.742 L 254.346 189.088 L 256.411 190.032 L 256.836 190.202 L 257.878 190.702 L 264.640 193.791 L 269.817 196.363 L 280.507 202.185 L 285.569 205.129 L 287.623 206.263 L 288.537 206.767 L 288.788 206.906 L 289.407 207.248 L 290.928 207.849 L 291.307 207.769 L 291.427 207.599 L 291.451 207.565 L 291.454 207.561 L 291.458 207.555 L 291.626 207.166 L 291.491 206.805 L 290.945 205.935 L 290.172 205.072 L 288.106 203.269 L 279.539 197.214 L 268.917 190.684 L 257.319 184.574 L 257.182 184.267 L 257.211 184.154 L 257.188 184.066 L 257.312 183.768 L 257.351 183.620 L 258.069 181.960 L 258.076 181.943 L 258.098 181.890 L 258.098 181.889 L 258.323 181.351 L 258.553 178.621 L 258.490 177.805 L 258.472 177.750 L 258.410 177.553 L 258.315 177.255 L 257.921 176.021 L 257.204 175.208 L 249.809 173.728 L 243.163 173.231 L 241.992 173.476 L 240.672 174.411 L 237.666 173.925 L 234.319 175.407 L 233.594 175.502 L 233.191 175.215 L 233.391 174.370 L 234.240 172.664 L 235.643 170.517 L 235.955 170.294 L 237.008 170.259 L 247.452 171.179 L 261.182 172.825 L 261.286 172.841 L 261.736 172.890 L 262.886 173.091 L 269.644 174.142 L 281.350 176.305 L 286.141 177.139 L 287.356 177.077 L 287.676 176.907 L 287.875 176.376 L 287.866 176.347 L 287.365 175.645 L 287.309 175.606 L 287.242 175.560 L 287.144 175.492 L 287.025 175.410 L 285.096 174.461 L 280.572 172.892 L 277.605 172.060 L 275.847 171.567 L 275.304 171.415 L 274.768 171.265 L 263.348 168.650 L 263.074 168.599 L 263.072 168.598 L 263.058 168.596 L 262.849 168.556 L 252.900 166.804 L 251.749 166.609 L 251.723 166.597 L 251.101 166.488 L 249.943 165.854 L 249.387 165.308 L 248.282 163.754 L 248.068 163.462 L 248.053 163.432 L 247.459 162.596 L 247.389 162.068 L 247.379 162.049 L 247.371 161.932 L 247.187 160.555 L 247.228 160.021 L 247.219 159.898 L 247.242 159.830 L 247.284 159.282 L 247.596 158.572 L 248.249 158.364 L 250.020 158.758 L 252.316 158.712 L 253.331 158.095 L 253.366 158.074 L 253.497 157.994 L 253.626 157.916 L 254.833 156.450 L 255.421 154.994 L 255.621 153.460 L 255.455 151.706 L 254.922 149.861 L 253.405 147.275 L 253.006 146.820 L 252.617 146.378 L 252.297 146.014 L 252.010 145.688 L 247.561 140.779 L 245.921 138.191 L 245.825 138.046 L 245.815 138.023 L 245.730 137.890 L 245.497 137.311 L 245.298 136.865 L 245.279 136.769 L 245.144 136.435 L 244.924 135.220 L 244.909 135.174 L 244.858 134.856 L 244.619 133.536 L 244.642 133.191 L 244.619 131.976 L 244.839 130.281 L 244.989 128.072 L 245.111 125.850 L 244.716 122.462 L 243.747 119.697 L 242.549 117.398 L 241.635 115.962 L 240.069 113.786 L 238.675 111.963 L 237.544 109.806 L 237.543 109.801 L 237.481 109.685 L 237.435 108.635 L 237.572 108.124 L 237.890 106.547 L 237.895 105.404 L 237.882 105.200 L 237.879 105.161 L 237.877 105.130 L 237.875 105.089 L 237.767 104.513 L 237.336 103.163 L 237.069 102.520 L 235.984 100.904 L 234.406 99.398 L 232.150 97.940 L 226.471 95.020 L 225.107 93.979 L 223.414 91.347 L 222.770 89.606 L 222.517 87.876 L 222.619 86.094 L 223.091 84.466 L 223.489 83.701 L 223.587 83.408 L 223.736 83.225 L 223.929 82.854 L 225.148 81.278 L 228.728 77.948 L 229.353 77.333 L 230.218 76.036 L 230.591 74.881 L 230.636 72.998 L 230.604 72.831 L 230.191 71.707 L 230.171 71.667 L 229.244 70.607 L 228.215 69.862 L 227.502 69.543 L 225.581 69.117 L 224.381 69.103 L 224.164 68.860 L 224.126 68.268 L 224.179 68.000 L 224.166 67.962 L 224.208 67.853 L 224.245 67.664 L 224.330 67.532 L 224.453 67.208 L 225.505 66.028 L 225.582 65.953 L 225.740 65.760 L 226.306 65.247 L 227.005 64.564 L 230.919 60.548 L 231.983 58.703 L 232.162 57.231 L 231.945 55.798 L 231.287 54.497 L 230.684 53.773 L 229.489 52.533 L 229.349 52.169 L 229.114 51.887 L 229.533 51.169 L 229.615 50.961 L 230.736 49.110 L 233.109 45.046 L 233.577 43.955 L 234.528 41.085 L 234.830 39.152 L 234.728 37.526 L 234.215 36.196 L 234.210 36.186 L 234.208 36.183 L 234.207 36.179 L 234.202 36.170 L 233.227 35.092 L 232.277 34.417 L 231.462 34.085 L 231.139 34.068 L 231.040 34.062 L 230.471 34.032 L 229.644 33.987 L 229.245 33.974 L 228.426 34.148 L 228.379 34.158 L 228.335 34.167 L 228.313 34.172 L 226.028 34.813 L 222.469 36.592 L 218.181 39.429 L 206.267 48.304 L 206.261 48.308 L 203.678 50.237 L 200.060 52.442 L 194.169 55.470 L 190.529 56.912 L 184.760 58.842 L 184.145 59.684 L 184.119 61.689 L 183.795 62.010 L 183.453 61.895 L 183.027 61.212 L 182.747 60.167 L 183.521 56.525 L 183.508 56.306 L 183.503 56.209 L 183.425 55.527 L 182.664 54.157 L 181.763 53.221 L 180.969 52.764 L 178.738 52.353 L 177.317 52.455 L 174.170 53.129 L 173.032 53.447 L 168.638 54.698 L 165.260 55.251 L 161.414 55.315 L 160.204 55.152 L 159.997 55.153 L 159.825 55.122 L 159.745 55.121 L 159.473 55.060 L 159.308 55.030 L 157.090 54.730 L 156.446 54.522 L 155.921 54.429 L 154.792 53.987 L 153.386 53.531 L 150.835 51.990 L 150.305 51.345 L 149.453 48.531 L 149.143 48.018 L 148.620 47.237 L 147.878 46.438 L 146.813 45.737 L 145.523 45.269 L 144.525 45.128 L 143.533 45.163 L 143.026 45.181 L 142.855 45.187 L 142.607 45.196 L 141.213 45.545 L 133.509 49.954 L 130.561 50.840 L 127.310 50.967 L 124.749 50.582 L 123.430 49.903 L 119.703 46.947 L 119.410 46.765 L 117.874 46.063 L 116.123 45.696 L 114.363 45.666 L 112.434 46.171 L 111.652 46.625 L 111.417 46.784 L 111.312 46.894 L 111.297 46.908 L 111.188 47.022 L 110.899 47.320 L 109.885 48.610 L 109.246 48.995 L 108.434 48.616 L 106.966 47.531 L 104.381 45.111 L 97.695 37.141 L 94.903 34.522 L 93.618 33.683 L 92.547 33.239 L 92.479 33.219 L 92.338 33.180 L 92.298 33.169 L 92.235 33.151 L 91.325 32.980 L 90.241 33.092 L 88.568 34.016 L 88.071 33.865 L 77.016 20.091 L 75.885 18.710 L 75.803 18.610 L 75.798 18.604 L 74.984 17.610 L 73.527 15.975 L 69.618 11.812 L 68.476 10.659 L 64.568 7.097 L 61.625 4.869 L 60.718 4.307 L 57.769 2.594 L 56.632 2.044 L 55.810 1.731 L 55.451 1.595 L 55.029 1.434 L 53.341 0.792 L 52.662 0.562 L 50.081 0.188 L 48.700 0.098 L 48.670 0.096 L 48.651 0.095 L 48.252 0.070 L 47.927 0.049 L 47.769 0.038 L 45.888 0.203 L 43.347 0.896 L 42.463 1.315 L 41.619 1.803 L 40.156 2.813 L 39.564 3.347 L 39.528 3.379 L 39.525 3.382 L 38.924 3.923 L 37.770 5.111 L 37.637 5.266 L 37.623 5.282 L 37.621 5.284 L 37.542 5.378 L 37.004 6.142 L 36.375 7.176 L 35.987 7.884 L 34.251 12.210 L 32.881 17.648 L 31.924 23.821 L 31.398 30.180 L 31.392 30.374 L 31.383 30.678 L 31.324 32.669 L 31.291 33.771 L 31.210 37.323 L 31.268 39.723 L 31.464 45.304 L 32.158 52.863 L 33.310 60.298 L 34.303 65.298 L 36.774 75.179 L 38.159 79.864 L 40.995 88.078 L 42.416 91.350 L 43.772 93.932 L 45.197 96.090 L 46.794 97.958 L 48.529 99.589 L 50.270 100.822 L 51.993 101.649 L 53.377 102.037 L 55.135 102.091 L 55.529 102.021 L 57.690 101.286 L 57.971 101.647 L 57.771 102.645 L 56.848 104.764 L 55.365 107.246 L 54.422 108.386 L 53.686 108.877 L 53.303 108.705 L 52.180 107.043 L 50.642 106.757 L 49.378 105.452 L 46.428 103.683 L 45.713 102.741 L 45.065 100.754 L 42.646 97.635 L 41.222 95.272 L 38.843 89.987 L 38.061 87.993 L 36.564 82.757 L 36.462 81.406 L 36.592 80.766 L 36.394 80.087 L 35.432 79.445 L 34.011 79.337 L 33.085 79.559 L 32.000 80.339 L 31.144 81.520 L 30.777 83.383 L 30.772 83.559 L 30.771 83.598 L 30.769 83.662 L 30.766 83.766 L 31.003 85.403 L 32.093 89.668 L 32.119 90.007 L 32.191 90.291 L 32.208 91.134 L 32.218 91.262 L 32.211 91.292 L 32.218 91.635 L 31.924 92.568 L 31.845 92.922 L 31.107 93.855 L 27.421 94.031 L 25.593 94.468 L 24.629 94.851 L 23.371 95.787 L 22.737 96.557 L 21.894 98.270 L 21.680 99.216 L 21.711 101.136 L 22.266 103.008 L 23.135 104.528 L 23.847 105.589 L 25.821 108.345 L 26.070 108.901 L 26.125 108.982 L 26.214 109.222 L 26.659 110.216 L 26.744 110.648 L 26.850 110.934 L 26.871 111.294 L 27.008 111.989 L 26.949 112.630 L 26.949 112.645 L 26.945 112.662 L 26.845 113.742 L 26.493 114.605 L 26.437 114.846 L 26.311 115.051 L 26.148 115.451 L 25.569 116.260 L 25.164 116.920 L 24.935 117.146 L 24.922 117.163 L 23.114 118.970 L 19.863 121.548 L 19.522 121.880 L 19.350 122.047 L 19.312 122.085 L 18.952 122.436 L 17.900 123.528 L 17.834 123.625 L 16.678 125.545 L 16.116 127.628 L 16.080 129.690 L 16.656 132.014 L 17.573 133.542 L 20.176 136.741 L 21.152 138.657 L 21.386 140.701 L 21.412 140.910 L 21.410 140.918 L 21.413 140.941 L 21.002 143.633 L 20.463 144.975 L 19.634 146.109 L 19.626 146.125 L 19.608 146.145 L 18.654 147.449 L 17.985 148.029 L 17.901 148.137 L 17.665 148.315 L 17.442 148.565 L 16.932 148.942 L 15.744 149.971 L 9.481 154.554 L 9.303 154.715 L 9.283 154.732 L 9.268 154.746 L 9.263 154.751 L 7.615 156.250 L 5.786 158.121 L 4.940 159.050 L 4.681 159.384 L 3.231 161.539 L 2.672 162.470 L 1.060 165.975 L 0.219 169.456 L 0.211 169.543 L 0.198 169.685 L 0.185 169.816 L 0.164 170.035 L 0.171 173.197 L 0.537 174.855 L 1.528 177.237 L 2.808 178.935 L 2.946 179.085 L 2.957 179.097 L 2.967 179.108 L 2.991 179.134 L 3.689 179.627 L 4.069 179.841 L 4.120 179.869 L 4.629 180.156 L 5.352 180.562 L 6.199 180.833 L 7.023 181.001 L 8.862 181.031 L 11.221 180.409 L 13.568 179.184 L 16.368 176.820 L 25.246 166.392 L 29.994 161.546 L 33.057 159.042 L 36.533 156.715 L 39.288 155.252 L 39.844 154.892 L 42.743 153.607 L 45.741 152.718 L 46.005 152.966 L 48.738 152.365 L 55.807 151.176 L 55.888 151.103 L 56.585 151.023 L 59.576 150.150 L 61.990 148.951 L 62.344 149.048 L 62.460 149.397 L 61.806 150.628 L 60.150 152.509 L 58.045 153.973 L 56.842 154.560 L 54.010 155.516 L 47.997 156.534 L 43.285 157.943 L 40.964 158.054 L 40.289 158.499 L 38.981 160.104 L 36.170 162.053 L 35.742 162.194 L 34.519 162.130 L 33.953 162.334 L 33.416 163.004 L 33.271 164.563 L 31.838 165.052 L 30.308 165.917 L 28.676 167.771 L 25.860 170.358 L 22.404 174.601 L 20.104 177.106 L 18.347 179.856 L 17.142 181.246 L 13.874 183.991 L 12.236 185.017 L 11.080 185.287 L 8.669 185.116 L 6.653 188.996 L 6.365 189.711 L 5.042 193.840 L 4.318 198.644 L 4.250 201.035 L 4.754 205.563 L 5.484 207.983 L 6.482 210.342 L 7.673 212.426 L 8.991 214.115 L 10.737 215.557 L 12.622 216.500 L 14.642 217.038 L 16.633 217.106 L 18.558 216.734 L 20.347 215.901 L 21.869 214.635 L 23.004 212.960 L 23.348 211.870 L 22.923 211.334 L 19.988 210.660 L 18.010 209.654 L 16.617 208.497 L 14.738 206.387 L 14.226 205.095 L 14.158 203.135 L 14.257 200.495 L 14.635 198.547 L 14.996 198.369 L 15.335 198.643 L 15.261 202.455 L 15.895 204.162 L 16.767 205.418 L 17.933 206.341 L 19.332 206.953 L 20.950 207.222 L 22.787 207.186 L 24.727 206.848 Z M 241.959 219.892 L 242.053 219.821 L 242.102 219.776 L 242.683 220.473 L 243.333 221.581 L 243.313 221.585 L 243.200 221.622 L 243.092 221.669 L 242.989 221.727 L 242.892 221.795 L 242.803 221.872 L 242.721 221.957 L 242.648 222.050 L 242.585 222.150 L 242.545 222.220 L 242.219 221.832 L 241.205 220.102 L 241.293 220.101 L 241.411 220.094 L 241.527 220.076 L 241.641 220.046 L 241.752 220.005 L 241.858 219.954 Z M 227.830 152.760 L 229.209 151.495 L 230.702 150.820 L 232.299 150.621 L 238.855 150.785 L 240.463 150.304 L 240.837 150.436 L 241.981 152.127 L 242.001 152.615 L 239.238 154.109 L 237.469 154.521 L 230.613 154.980 L 229.632 155.259 L 227.785 156.180 L 227.460 156.108 L 227.207 155.753 L 227.158 154.279 Z M 207.795 109.158 L 207.879 109.140 L 208.084 109.039 L 209.877 108.581 L 210.583 108.545 L 210.700 108.520 L 211.092 108.511 L 211.098 108.504 L 211.988 108.240 L 212.911 108.372 L 213.028 108.468 L 213.679 108.453 L 215.095 108.809 L 217.501 110.191 L 219.032 111.366 L 219.781 111.876 L 223.032 114.436 L 225.003 115.949 L 227.390 117.509 L 229.904 118.749 L 234.224 120.322 L 234.441 120.695 L 234.069 121.061 L 230.414 120.616 L 226.781 121.376 L 222.623 121.394 L 222.650 127.550 L 222.420 131.023 L 221.894 133.969 L 221.102 136.124 L 220.632 136.914 L 218.342 138.960 L 215.974 140.209 L 213.842 140.783 L 210.530 140.909 L 207.174 140.450 L 207.052 140.411 L 206.783 140.396 L 204.905 139.869 L 204.509 139.671 L 204.147 139.177 L 204.476 138.880 L 205.557 139.156 L 205.580 139.139 L 208.078 139.649 L 210.262 139.683 L 212.380 139.277 L 214.267 138.436 L 215.958 137.211 L 217.443 135.556 L 218.633 133.603 L 219.526 131.291 L 220.135 127.845 L 219.973 124.144 L 219.642 122.345 L 218.457 118.999 L 217.149 116.993 L 215.360 115.821 L 212.305 114.949 L 211.435 115.069 L 210.672 115.621 L 210.462 116.125 L 210.493 116.779 L 211.314 120.633 L 211.480 122.886 L 211.225 126.392 L 211.221 126.608 L 211.202 126.708 L 211.157 127.330 L 210.737 129.309 L 210.221 130.743 L 210.195 130.827 L 210.181 130.853 L 210.100 131.080 L 209.718 131.733 L 209.396 132.343 L 209.311 132.428 L 209.310 132.430 L 209.299 132.440 L 208.451 133.288 L 208.314 133.351 L 208.215 133.442 L 207.815 133.579 L 207.784 133.593 L 207.779 133.591 L 207.699 133.619 L 207.526 133.485 L 207.071 133.294 L 206.356 132.648 L 206.230 132.486 L 206.225 132.481 L 206.210 132.460 L 205.692 131.790 L 205.361 131.185 L 204.836 130.396 L 204.179 129.020 L 203.127 126.094 L 202.650 123.083 L 202.551 122.546 L 202.876 122.087 L 203.781 122.349 L 204.744 122.483 L 204.923 122.484 L 205.405 122.268 L 206.143 121.827 L 206.776 120.978 L 207.217 119.950 L 207.286 119.373 L 207.059 118.309 L 206.414 117.329 L 205.596 116.610 L 205.084 116.339 L 204.157 116.267 L 203.124 116.574 L 201.601 117.451 L 200.202 117.704 L 199.198 118.310 L 198.805 118.268 L 198.657 117.868 L 199.785 115.623 L 201.483 113.375 L 201.554 113.311 L 201.650 113.181 L 203.202 111.790 L 203.365 111.680 L 203.825 111.266 L 206.392 109.725 Z M 219.299 44.096 L 221.062 42.659 L 223.747 40.920 L 226.070 39.788 L 227.125 39.569 L 228.063 40.041 L 228.781 41.110 L 228.974 41.744 L 228.917 42.312 L 228.097 44.783 L 227.100 46.746 L 226.556 46.778 L 224.677 45.149 L 223.355 45.312 L 220.513 47.067 L 216.910 50.208 L 212.848 54.436 L 206.750 61.853 L 199.892 71.316 L 198.103 74.447 L 197.745 74.534 L 197.431 74.278 L 196.487 72.301 L 196.154 70.095 L 196.290 69.348 L 206.379 57.478 L 209.936 53.625 L 211.576 51.787 L 212.689 50.644 L 214.703 48.463 Z M 208.707 248.173 L 207.623 249.232 L 204.715 251.267 L 203.481 251.609 L 200.349 251.855 L 199.061 252.367 L 196.814 253.825 L 196.361 253.720 L 196.353 253.225 L 198.106 251.273 L 199.800 250.016 L 200.848 249.826 L 203.197 250.020 L 204.454 249.884 L 206.209 249.029 L 208.227 247.582 L 208.747 247.747 Z M 203.424 151.963 L 204.075 151.410 L 204.122 151.403 L 204.141 151.386 L 204.367 151.365 L 204.642 151.322 L 206.637 152.589 L 206.768 153.039 L 206.002 153.896 L 203.417 155.985 L 202.464 157.244 L 201.987 157.398 L 201.723 156.948 L 201.756 156.694 L 201.723 156.594 L 201.900 155.591 L 202.086 154.169 L 202.564 153.099 L 203.268 152.168 L 203.294 152.125 L 203.316 152.106 Z M 188.532 150.569 L 189.601 150.322 L 189.673 150.328 L 189.807 150.299 L 190.040 150.356 L 190.376 150.383 L 190.533 150.477 L 190.643 150.504 L 190.769 150.620 L 191.543 151.088 L 191.866 151.630 L 191.895 151.657 L 191.927 151.734 L 192.340 152.426 L 192.535 153.580 L 192.179 155.403 L 191.068 157.723 L 190.647 158.226 L 190.274 158.271 L 189.020 156.569 L 187.998 155.713 L 181.304 152.624 L 180.012 151.779 L 179.338 150.885 L 179.412 150.787 L 179.401 150.769 L 179.676 150.373 L 179.731 150.365 L 179.785 150.294 L 180.378 150.136 L 183.119 151.811 L 184.367 152.070 L 185.584 151.893 L 185.651 151.873 Z M 163.370 220.628 L 162.499 219.674 L 162.418 219.126 L 162.640 218.450 L 163.236 217.613 L 164.139 216.892 L 168.155 215.849 L 171.169 214.823 L 173.956 214.228 L 174.636 214.636 L 175.675 215.770 L 176.072 216.507 L 175.871 216.921 L 173.647 217.663 L 170.035 219.316 L 168.213 218.579 L 167.661 218.636 L 165.542 220.218 L 164.039 220.799 Z M 142.193 192.788 L 143.307 191.580 L 144.786 190.710 L 145.487 190.685 L 148.299 191.340 L 151.844 191.639 L 158.193 191.603 L 162.513 190.778 L 165.897 189.817 L 169.406 188.624 L 175.029 186.183 L 175.480 186.380 L 175.346 186.884 L 166.860 191.504 L 163.031 193.350 L 159.812 194.316 L 156.090 194.746 L 149.229 194.877 L 144.879 194.221 L 142.270 193.550 L 142.022 193.272 Z M 122.737 104.552 L 125.046 103.761 L 127.406 103.211 L 128.573 103.078 L 128.583 103.076 L 128.615 103.074 L 130.306 102.882 L 130.821 102.893 L 131.357 102.849 L 134.100 102.916 L 134.484 102.974 L 134.693 102.979 L 135.498 103.127 L 136.710 103.310 L 136.999 103.404 L 137.327 103.464 L 140.045 104.328 L 142.590 105.506 L 144.938 106.978 L 147.120 108.805 L 147.786 109.503 L 148.595 110.214 L 149.826 111.675 L 150.498 112.684 L 151.040 113.385 L 151.955 114.871 L 152.310 115.403 L 152.454 115.681 L 152.772 116.198 L 153.799 118.273 L 154.032 118.722 L 154.025 118.731 L 158.978 128.739 L 159.735 129.622 L 161.020 131.533 L 161.022 131.537 L 161.835 132.610 L 162.101 133.512 L 162.324 136.048 L 162.006 138.013 L 161.241 139.087 L 160.543 139.437 L 158.823 139.497 L 157.312 139.147 L 156.019 138.598 L 155.134 137.870 L 154.234 136.083 L 153.403 135.187 L 151.155 134.323 L 148.978 134.690 L 143.756 136.374 L 140.946 136.961 L 138.294 137.253 L 132.898 136.890 L 130.250 136.332 L 127.736 135.514 L 125.316 134.465 L 122.997 133.177 L 120.736 131.607 L 118.550 129.785 L 115.517 126.687 L 114.087 124.901 L 113.117 123.223 L 111.369 118.085 L 110.480 116.347 L 109.252 115.978 L 106.361 115.676 L 103.584 114.891 L 100.908 114.469 L 99.926 114.031 L 98.261 112.867 L 97.146 112.603 L 96.863 112.372 L 96.917 111.977 L 98.339 111.126 L 104.872 111.612 L 106.643 111.475 L 109.814 110.690 L 110.830 110.283 L 110.942 110.238 L 110.950 110.235 L 112.737 109.520 L 118.916 106.284 Z M 139.853 204.456 L 139.726 206.611 L 140.082 208.174 L 141.118 209.646 L 143.001 211.087 L 145.632 211.989 L 147.241 212.264 L 148.975 212.395 L 154.721 212.034 L 155.921 212.136 L 156.377 212.440 L 156.774 213.881 L 157.511 214.838 L 158.558 215.670 L 160.667 216.710 L 161.029 217.185 L 160.533 217.741 L 159.416 217.846 L 156.188 216.890 L 148.251 216.522 L 144.218 215.376 L 141.847 213.967 L 139.898 212.246 L 138.952 210.545 L 138.505 207.969 L 137.873 207.224 L 137.293 207.035 L 135.258 207.750 L 131.613 209.799 L 130.327 211.312 L 128.898 212.549 L 125.830 216.370 L 124.397 217.702 L 123.910 217.584 L 123.895 216.957 L 125.297 212.447 L 126.806 209.577 L 127.823 208.454 L 129.040 207.503 L 132.350 205.852 L 135.556 204.775 L 138.543 204.291 L 139.572 204.293 Z M 146.293 235.051 L 145.865 235.545 L 145.272 235.611 L 145.008 235.281 L 145.041 234.556 L 146.194 231.394 L 146.754 231.097 L 147.117 231.492 L 146.886 233.436 Z M 144.086 237.522 L 143.196 239.004 L 140.692 242.299 L 140.000 242.595 L 139.902 242.332 L 140.396 241.409 L 142.933 237.719 L 143.954 236.731 L 144.152 236.929 Z M 130.667 192.085 L 130.422 191.760 L 130.600 191.394 L 137.227 187.632 L 137.636 187.531 L 138.411 187.761 L 139.516 188.484 L 139.399 188.960 L 137.578 190.442 L 135.597 190.602 L 132.034 192.008 Z M 131.237 279.232 L 131.270 279.693 L 130.907 279.627 L 129.490 278.573 L 124.680 274.290 L 122.638 272.148 L 121.649 270.830 L 121.814 270.633 L 130.116 278.013 Z M 128.447 180.759 L 130.811 183.992 L 130.777 184.328 L 130.455 184.514 L 128.775 183.840 L 125.945 183.978 L 120.107 185.661 L 115.407 187.533 L 114.875 187.520 L 113.244 186.880 L 112.236 186.840 L 103.830 189.021 L 102.582 189.626 L 100.523 191.083 L 98.130 192.034 L 96.830 192.813 L 93.926 193.707 L 90.612 195.232 L 79.284 201.753 L 78.838 201.646 L 78.804 201.188 L 80.845 199.058 L 82.817 197.571 L 85.728 195.969 L 91.823 193.069 L 99.678 189.651 L 112.331 184.873 L 122.498 181.550 L 127.747 180.166 Z M 100.627 173.487 L 100.255 173.083 L 100.465 172.622 L 101.245 172.393 L 118.015 170.058 L 124.833 169.402 L 126.107 169.539 L 126.478 170.003 L 126.163 171.506 L 125.852 171.764 L 116.863 172.210 L 102.087 173.559 Z M 122.131 198.459 L 120.943 199.647 L 120.389 200.547 L 120.363 201.709 L 120.829 202.356 L 124.609 202.897 L 125.466 203.329 L 125.440 203.699 L 124.707 204.915 L 122.934 207.269 L 122.480 207.250 L 121.763 206.337 L 121.158 205.973 L 119.421 205.695 L 118.639 203.654 L 118.024 202.907 L 116.668 202.430 L 115.034 202.264 L 114.817 202.020 L 114.884 201.665 L 116.537 200.394 L 125.872 194.223 L 126.406 194.340 L 126.403 194.770 L 125.060 196.222 L 124.476 197.136 L 124.060 197.512 L 123.248 197.727 Z M 112.984 203.752 L 111.732 204.905 L 110.579 205.531 L 110.217 205.465 L 110.382 205.004 L 111.008 204.345 L 112.292 203.422 L 113.116 203.126 L 113.215 203.356 Z M 109.536 53.341 L 110.412 55.956 L 110.579 57.457 L 109.911 58.154 L 109.602 58.111 L 109.299 57.795 L 108.849 56.440 L 108.843 53.445 L 109.176 53.175 Z M 65.718 15.510 L 67.961 17.817 L 69.418 19.611 L 70.261 20.546 L 71.723 22.449 L 73.945 25.184 L 77.563 30.250 L 81.214 35.842 L 84.652 41.428 L 84.947 41.755 L 85.804 43.336 L 85.798 43.414 L 88.484 48.144 L 95.298 61.311 L 98.364 68.004 L 99.034 70.042 L 98.977 70.485 L 98.655 70.681 L 97.827 70.663 L 96.554 70.268 L 94.804 69.101 L 93.978 68.067 L 90.835 61.398 L 86.287 52.597 L 80.581 42.736 L 77.614 38.120 L 74.776 34.126 L 72.068 30.724 L 69.458 27.848 L 66.945 25.498 L 64.455 23.669 L 62.032 22.272 L 60.190 21.498 L 57.748 21.184 L 54.768 21.250 L 53.696 21.498 L 52.209 22.178 L 50.799 23.122 L 49.622 24.234 L 48.586 25.645 L 47.714 27.331 L 47.154 29.274 L 46.851 31.909 L 46.919 36.067 L 47.911 39.869 L 49.309 42.672 L 51.277 45.609 L 55.340 50.550 L 55.913 51.199 L 56.163 51.550 L 56.428 51.873 L 56.553 52.099 L 56.905 52.595 L 57.070 53.038 L 57.161 53.205 L 57.168 53.304 L 57.260 53.552 L 57.228 54.130 L 57.229 54.147 L 57.226 54.151 L 57.218 54.308 L 56.831 54.877 L 56.804 54.894 L 56.658 55.152 L 55.893 55.448 L 54.702 55.445 L 50.466 54.658 L 48.287 54.856 L 47.261 55.240 L 45.621 56.503 L 44.428 58.279 L 44.214 59.338 L 44.548 61.338 L 45.033 62.418 L 45.728 63.381 L 47.092 64.604 L 48.364 65.477 L 50.222 66.367 L 54.196 67.841 L 57.072 68.805 L 58.070 69.277 L 58.746 69.528 L 60.744 70.512 L 64.108 72.743 L 65.538 74.040 L 67.925 76.944 L 69.018 78.832 L 69.520 80.311 L 69.497 80.733 L 69.506 80.779 L 69.490 80.865 L 69.467 81.308 L 69.368 81.534 L 69.346 81.652 L 69.288 81.715 L 69.257 81.785 L 68.727 82.359 L 68.248 82.555 L 67.119 82.075 L 66.826 81.889 L 66.311 81.624 L 66.057 81.400 L 65.569 81.089 L 61.473 78.117 L 59.292 77.239 L 58.169 77.062 L 56.308 77.361 L 55.410 77.822 L 54.542 78.552 L 53.951 79.394 L 53.641 80.358 L 53.538 81.426 L 53.707 82.685 L 54.771 85.520 L 57.641 91.166 L 58.185 93.144 L 58.184 93.819 L 57.828 94.080 L 57.526 93.953 L 56.857 92.968 L 56.076 90.309 L 55.572 90.075 L 53.352 89.916 L 51.712 88.645 L 49.939 86.904 L 47.677 84.256 L 44.996 79.723 L 42.637 74.280 L 40.569 68.038 L 38.894 61.171 L 37.582 53.860 L 36.692 46.238 L 36.298 38.567 L 36.397 30.945 L 36.855 25.123 L 37.641 20.075 L 38.801 15.804 L 39.346 14.522 L 39.518 14.045 L 39.723 13.636 L 40.261 12.369 L 40.633 11.813 L 40.736 11.608 L 40.984 11.289 L 42.017 9.748 L 44.162 7.848 L 46.676 6.704 L 46.791 6.687 L 47.031 6.580 L 48.494 6.434 L 49.461 6.291 L 49.803 6.333 L 52.038 6.579 L 52.186 6.625 L 52.836 6.705 L 55.160 7.512 L 57.186 8.508 L 59.211 9.751 L 59.707 10.150 L 59.801 10.210 L 62.286 12.174 L 62.726 12.579 L 63.380 13.105 L 64.100 13.846 L 64.792 14.484 Z M 80.315 147.277 L 82.074 148.377 L 82.187 148.829 L 81.712 149.051 L 78.535 147.845 L 75.670 145.987 L 75.662 145.494 L 76.107 145.372 Z M 71.742 249.534 L 71.254 249.499 L 71.184 249.015 L 72.576 246.823 L 73.182 246.122 L 73.581 246.104 L 74.730 247.870 L 74.958 248.894 L 74.611 249.107 L 73.061 248.917 L 72.212 249.157 Z M 72.955 125.405 L 73.152 125.603 L 73.152 125.998 L 72.164 127.053 L 71.373 127.580 L 68.836 128.568 L 68.243 128.502 L 67.815 128.206 L 67.947 127.777 L 69.331 126.888 L 72.197 125.570 Z M 70.950 250.048 L 71.220 250.384 L 71.039 251.230 L 70.050 252.804 L 69.620 252.806 L 69.458 252.373 L 70.512 250.197 Z M 38.696 132.941 L 34.625 132.807 L 33.482 132.433 L 32.037 131.261 L 32.001 130.895 L 32.324 130.657 L 33.377 130.981 L 34.590 131.084 L 40.040 130.590 L 41.140 131.127 L 41.472 131.791 L 41.483 132.596 L 41.312 133.120 L 41.013 133.292 Z M 32.585 177.646 L 31.399 179.956 L 31.000 180.029 L 30.752 179.707 L 31.290 177.780 L 30.826 176.199 L 30.798 175.441 L 31.378 169.239 L 31.716 168.423 L 32.188 168.134 L 32.532 168.478 L 33.046 175.410 Z" fill-rule="evenodd" fill="none" stroke="#000" stroke-width="0.3"/>
</svg>
