0
SECTION
2
HEADER
9
$ACADVER
1
AC1009
9
$INSUNITS
70
4
0
ENDSEC
0
SECTION
2
TABLES
0
TABLE
2
LAYER
70
1
0
LAYER
2
CUT
70
0
62
7
6
CONTINUOUS
0
ENDTAB
0
ENDSEC
0
SECTION
2
ENTITIES
0
POLYLINE
8
CUT
66
1
70
1
10
0.0
20
0.0
30
0.0
0
VERTEX
8
CUT
10
119.5657
20
128.4617
0
VERTEX
8
CUT
10
121.6924
20
130.6210
0
VERTEX
8
CUT
10
124.2611
20
132.5471
0
VERTEX
8
CUT
10
127.0868
20
134.1055
0
VERTEX
8
CUT
10
130.1455
20
135.2984
0
VERTEX
8
CUT
10
134.2494
20
135.8936
0
VERTEX
8
CUT
10
137.2969
20
135.8592
0
VERTEX
8
CUT
10
139.9609
20
135.4647
0
VERTEX
8
CUT
10
141.0403
20
135.1305
0
VERTEX
8
CUT
10
142.9908
20
134.1736
0
VERTEX
8
CUT
10
145.5267
20
132.2007
0
VERTEX
8
CUT
10
146.8687
20
130.6525
0
VERTEX
8
CUT
10
147.8074
20
129.0043
0
VERTEX
8
CUT
10
148.8344
20
126.0876
0
VERTEX
8
CUT
10
149.2370
20
123.3938
0
VERTEX
8
CUT
10
149.0022
20
122.0985
0
VERTEX
8
CUT
10
148.2859
20
120.5216
0
VERTEX
8
CUT
10
146.7642
20
118.1067
0
VERTEX
8
CUT
10
145.6965
20
116.8363
0
VERTEX
8
CUT
10
142.7627
20
114.7405
0
VERTEX
8
CUT
10
140.7737
20
113.7795
0
VERTEX
8
CUT
10
140.2076
20
113.7984
0
VERTEX
8
CUT
10
139.9958
20
114.0837
0
VERTEX
8
CUT
10
139.8914
20
114.8978
0
VERTEX
8
CUT
10
139.9224
20
118.6423
0
VERTEX
8
CUT
10
139.5991
20
120.9650
0
VERTEX
8
CUT
10
139.0482
20
123.2411
0
VERTEX
8
CUT
10
138.8387
20
123.7800
0
VERTEX
8
CUT
10
138.6894
20
124.3199
0
VERTEX
8
CUT
10
138.4396
20
124.8063
0
VERTEX
8
CUT
10
138.2374
20
125.3264
0
VERTEX
8
CUT
10
137.2532
20
127.1349
0
VERTEX
8
CUT
10
137.2252
20
127.1714
0
VERTEX
8
CUT
10
137.1764
20
127.2664
0
VERTEX
8
CUT
10
136.8925
20
127.6055
0
VERTEX
8
CUT
10
136.2205
20
128.4824
0
VERTEX
8
CUT
10
135.1220
20
129.3814
0
VERTEX
8
CUT
10
134.9666
20
129.4279
0
VERTEX
8
CUT
10
134.7867
20
129.5690
0
VERTEX
8
CUT
10
134.1298
20
129.6779
0
VERTEX
8
CUT
10
133.9915
20
129.7192
0
VERTEX
8
CUT
10
133.0451
20
129.4819
0
VERTEX
8
CUT
10
131.9427
20
128.7079
0
VERTEX
8
CUT
10
130.9144
20
127.4895
0
VERTEX
8
CUT
10
129.1374
20
124.1341
0
VERTEX
8
CUT
10
128.0891
20
120.0951
0
VERTEX
8
CUT
10
128.0281
20
119.1045
0
VERTEX
8
CUT
10
128.0191
20
119.0399
0
VERTEX
8
CUT
10
128.0215
20
118.9979
0
VERTEX
8
CUT
10
127.9211
20
117.3686
0
VERTEX
8
CUT
10
128.0692
20
116.4494
0
VERTEX
8
CUT
10
128.3356
20
116.1979
0
VERTEX
8
CUT
10
129.4399
20
116.6884
0
VERTEX
8
CUT
10
130.8162
20
116.8837
0
VERTEX
8
CUT
10
131.7335
20
116.5494
0
VERTEX
8
CUT
10
132.4928
20
115.9778
0
VERTEX
8
CUT
10
133.0472
20
115.2671
0
VERTEX
8
CUT
10
133.4075
20
114.1856
0
VERTEX
8
CUT
10
133.4996
20
113.7675
0
VERTEX
8
CUT
10
133.4069
20
113.1869
0
VERTEX
8
CUT
10
133.2160
20
112.3608
0
VERTEX
8
CUT
10
132.3913
20
111.1418
0
VERTEX
8
CUT
10
132.1850
20
110.9881
0
VERTEX
8
CUT
10
130.9605
20
110.3436
0
VERTEX
8
CUT
10
126.2566
20
109.8442
0
VERTEX
8
CUT
10
123.1499
20
109.9090
0
VERTEX
8
CUT
10
120.5606
20
110.5454
0
VERTEX
8
CUT
10
118.4449
20
111.8402
0
VERTEX
8
CUT
10
116.2506
20
114.1004
0
VERTEX
8
CUT
10
115.6970
20
115.1941
0
VERTEX
8
CUT
10
115.3772
20
116.5082
0
VERTEX
8
CUT
10
115.3119
20
118.0988
0
VERTEX
8
CUT
10
115.6082
20
120.7737
0
VERTEX
8
CUT
10
116.4478
20
123.4754
0
VERTEX
8
CUT
10
117.7948
20
126.0629
0
SEQEND
0
POLYLINE
8
CUT
66
1
70
1
10
0.0
20
0.0
30
0.0
0
VERTEX
8
CUT
10
26.7797
20
206.2293
0
VERTEX
8
CUT
10
28.9849
20
205.2468
0
VERTEX
8
CUT
10
41.8492
20
197.3171
0
VERTEX
8
CUT
10
47.1584
20
194.5806
0
VERTEX
8
CUT
10
51.8451
20
192.7798
0
VERTEX
8
CUT
10
55.9714
20
191.8049
0
VERTEX
8
CUT
10
56.5855
20
191.8475
0
VERTEX
8
CUT
10
56.7270
20
192.2219
0
VERTEX
8
CUT
10
56.4994
20
192.5099
0
VERTEX
8
CUT
10
53.1017
20
193.3680
0
VERTEX
8
CUT
10
50.6660
20
194.2351
0
VERTEX
8
CUT
10
43.2621
20
197.9372
0
VERTEX
8
CUT
10
37.0131
20
201.9387
0
VERTEX
8
CUT
10
29.1914
20
207.8542
0
VERTEX
8
CUT
10
29.1241
20
213.7903
0
VERTEX
8
CUT
10
28.9021
20
215.7068
0
VERTEX
8
CUT
10
26.3383
20
222.2229
0
VERTEX
8
CUT
10
25.3026
20
225.9739
0
VERTEX
8
CUT
10
25.1593
20
228.2320
0
VERTEX
8
CUT
10
25.1686
20
228.4511
0
VERTEX
8
CUT
10
25.1802
20
228.7214
0
VERTEX
8
CUT
10
25.1804
20
228.7265
0
VERTEX
8
CUT
10
25.2288
20
229.8615
0
VERTEX
8
CUT
10
25.3036
20
230.3779
0
VERTEX
8
CUT
10
25.4007
20
230.7250
0
VERTEX
8
CUT
10
26.3478
20
233.8034
0
VERTEX
8
CUT
10
26.2991
20
233.9388
0
VERTEX
8
CUT
10
26.3096
20
233.9763
0
VERTEX
8
CUT
10
26.1088
20
234.4676
0
VERTEX
8
CUT
10
25.2449
20
236.8679
0
VERTEX
8
CUT
10
25.2056
20
237.3824
0
VERTEX
8
CUT
10
25.3999
20
237.8252
0
VERTEX
8
CUT
10
25.4114
20
237.8412
0
VERTEX
8
CUT
10
25.4135
20
237.8442
0
VERTEX
8
CUT
10
25.4142
20
237.8452
0
VERTEX
8
CUT
10
25.4147
20
237.8459
0
VERTEX
8
CUT
10
25.8967
20
238.2298
0
VERTEX
8
CUT
10
26.0169
20
238.2849
0
VERTEX
8
CUT
10
26.5046
20
238.3929
0
VERTEX
8
CUT
10
27.2094
20
238.2855
0
VERTEX
8
CUT
10
28.4656
20
237.5393
0
VERTEX
8
CUT
10
44.6900
20
222.7575
0
VERTEX
8
CUT
10
48.7545
20
219.5262
0
VERTEX
8
CUT
10
49.2405
20
219.4949
0
VERTEX
8
CUT
10
49.6360
20
220.2278
0
VERTEX
8
CUT
10
50.0142
20
222.0475
0
VERTEX
8
CUT
10
50.0439
20
223.9203
0
VERTEX
8
CUT
10
49.7265
20
224.8710
0
VERTEX
8
CUT
10
49.3158
20
224.9883
0
VERTEX
8
CUT
10
48.6497
20
224.4605
0
VERTEX
8
CUT
10
48.0573
20
224.2999
0
VERTEX
8
CUT
10
47.2359
20
224.6130
0
VERTEX
8
CUT
10
45.9437
20
225.4608
0
VERTEX
8
CUT
10
41.4814
20
229.1994
0
VERTEX
8
CUT
10
40.2785
20
230.0031
0
VERTEX
8
CUT
10
38.7181
20
231.6989
0
VERTEX
8
CUT
10
37.2292
20
233.9010
0
VERTEX
8
CUT
10
37.5385
20
234.2812
0
VERTEX
8
CUT
10
39.7983
20
235.6606
0
VERTEX
8
CUT
10
41.3418
20
237.2043
0
VERTEX
8
CUT
10
43.7457
20
241.2452
0
VERTEX
8
CUT
10
43.7185
20
242.5789
0
VERTEX
8
CUT
10
43.1347
20
245.1321
0
VERTEX
8
CUT
10
43.1315
20
245.1542
0
VERTEX
8
CUT
10
43.1246
20
245.2028
0
VERTEX
8
CUT
10
43.0440
20
245.7660
0
VERTEX
8
CUT
10
42.5005
20
249.5619
0
VERTEX
8
CUT
10
42.5331
20
254.2322
0
VERTEX
8
CUT
10
42.9913
20
256.9610
0
VERTEX
8
CUT
10
43.0078
20
257.0290
0
VERTEX
8
CUT
10
43.6762
20
259.1966
0
VERTEX
8
CUT
10
43.7884
20
259.5025
0
VERTEX
8
CUT
10
43.7910
20
259.5096
0
VERTEX
8
CUT
10
43.8073
20
259.5542
0
VERTEX
8
CUT
10
43.9358
20
259.9045
0
VERTEX
8
CUT
10
44.8868
20
261.9795
0
VERTEX
8
CUT
10
46.1805
20
264.1404
0
VERTEX
8
CUT
10
47.5136
20
265.8260
0
VERTEX
8
CUT
10
48.1145
20
266.4563
0
VERTEX
8
CUT
10
49.4085
20
267.6786
0
VERTEX
8
CUT
10
51.2596
20
268.9718
0
VERTEX
8
CUT
10
51.3395
20
269.0153
0
VERTEX
8
CUT
10
51.3618
20
269.0274
0
VERTEX
8
CUT
10
51.3704
20
269.0321
0
VERTEX
8
CUT
10
51.4092
20
269.0532
0
VERTEX
8
CUT
10
53.3117
20
269.9723
0
VERTEX
8
CUT
10
57.3047
20
271.0207
0
VERTEX
8
CUT
10
58.9245
20
271.6561
0
VERTEX
8
CUT
10
58.9369
20
271.6601
0
VERTEX
8
CUT
10
59.1561
20
271.5619
0
VERTEX
8
CUT
10
60.3877
20
270.4714
0
VERTEX
8
CUT
10
61.4482
20
268.7130
0
VERTEX
8
CUT
10
64.0121
20
263.4946
0
VERTEX
8
CUT
10
64.5025
20
263.3323
0
VERTEX
8
CUT
10
65.0164
20
264.7016
0
VERTEX
8
CUT
10
68.1772
20
265.5823
0
VERTEX
8
CUT
10
69.6522
20
266.3327
0
VERTEX
8
CUT
10
71.2440
20
267.5376
0
VERTEX
8
CUT
10
73.9441
20
270.2379
0
VERTEX
8
CUT
10
75.5157
20
272.3664
0
VERTEX
8
CUT
10
78.5344
20
278.0112
0
VERTEX
8
CUT
10
79.7773
20
279.9849
0
VERTEX
8
CUT
10
80.0957
20
280.3936
0
VERTEX
8
CUT
10
80.3862
20
280.7665
0
VERTEX
8
CUT
10
80.4280
20
280.8202
0
VERTEX
8
CUT
10
80.4322
20
280.8255
0
VERTEX
8
CUT
10
82.9740
20
283.5126
0
VERTEX
8
CUT
10
83.2293
20
283.7197
0
VERTEX
8
CUT
10
83.4672
20
283.9127
0
VERTEX
8
CUT
10
83.5590
20
283.9873
0
VERTEX
8
CUT
10
83.7399
20
284.1341
0
VERTEX
8
CUT
10
84.8229
20
284.9687
0
VERTEX
8
CUT
10
86.5977
20
286.0077
0
VERTEX
8
CUT
10
88.2613
20
286.7169
0
VERTEX
8
CUT
10
89.3682
20
286.9313
0
VERTEX
8
CUT
10
89.9030
20
287.0350
0
VERTEX
8
CUT
10
90.2412
20
287.1005
0
VERTEX
8
CUT
10
90.3211
20
287.1160
0
VERTEX
8
CUT
10
93.3278
20
287.1175
0
VERTEX
8
CUT
10
93.6277
20
287.0706
0
VERTEX
8
CUT
10
93.6685
20
287.0593
0
VERTEX
8
CUT
10
93.7824
20
287.0277
0
VERTEX
8
CUT
10
93.8232
20
287.0164
0
VERTEX
8
CUT
10
95.4521
20
286.5649
0
VERTEX
8
CUT
10
97.3121
20
285.5060
0
VERTEX
8
CUT
10
97.5686
20
285.2769
0
VERTEX
8
CUT
10
98.4723
20
284.3365
0
VERTEX
8
CUT
10
98.5797
20
284.2140
0
VERTEX
8
CUT
10
99.4304
20
282.9804
0
VERTEX
8
CUT
10
99.7193
20
282.3947
0
VERTEX
8
CUT
10
99.8247
20
282.1810
0
VERTEX
8
CUT
10
100.1112
20
281.4451
0
VERTEX
8
CUT
10
100.5601
20
278.8990
0
VERTEX
8
CUT
10
100.6432
20
277.7602
0
VERTEX
8
CUT
10
100.7752
20
274.5903
0
VERTEX
8
CUT
10
101.1937
20
273.6863
0
VERTEX
8
CUT
10
101.9350
20
273.3428
0
VERTEX
8
CUT
10
103.3148
20
273.2154
0
VERTEX
8
CUT
10
104.9498
20
273.3776
0
VERTEX
8
CUT
10
106.5661
20
273.7884
0
VERTEX
8
CUT
10
107.6823
20
274.3118
0
VERTEX
8
CUT
10
109.5046
20
275.5839
0
VERTEX
8
CUT
10
110.8363
20
276.7880
0
VERTEX
8
CUT
10
112.2761
20
278.4508
0
VERTEX
8
CUT
10
113.6270
20
280.6570
0
VERTEX
8
CUT
10
117.4739
20
288.5408
0
VERTEX
8
CUT
10
117.6529
20
288.8158
0
VERTEX
8
CUT
10
117.6943
20
288.8793
0
VERTEX
8
CUT
10
117.7256
20
288.9274
0
VERTEX
8
CUT
10
117.8481
20
289.1156
0
VERTEX
8
CUT
10
120.3463
20
291.9641
0
VERTEX
8
CUT
10
121.9765
20
293.2532
0
VERTEX
8
CUT
10
124.2108
20
294.4312
0
VERTEX
8
CUT
10
124.2174
20
294.4338
0
VERTEX
8
CUT
10
124.2248
20
294.4367
0
VERTEX
8
CUT
10
124.2445
20
294.4443
0
VERTEX
8
CUT
10
124.2873
20
294.4610
0
VERTEX
8
CUT
10
125.1061
20
294.6180
0
VERTEX
8
CUT
10
128.0871
20
294.7394
0
VERTEX
8
CUT
10
130.5021
20
294.8066
0
VERTEX
8
CUT
10
130.5129
20
294.8382
0
VERTEX
8
CUT
10
130.5223
20
294.8386
0
VERTEX
8
CUT
10
130.5809
20
295.0381
0
VERTEX
8
CUT
10
130.6505
20
295.2424
0
VERTEX
8
CUT
10
130.7060
20
295.3211
0
VERTEX
8
CUT
10
130.7230
20
295.4555
0
VERTEX
8
CUT
10
131.3760
20
297.3733
0
VERTEX
8
CUT
10
131.8220
20
298.1057
0
VERTEX
8
CUT
10
132.4615
20
298.7745
0
VERTEX
8
CUT
10
133.4496
20
299.4311
0
VERTEX
8
CUT
10
134.7378
20
299.7343
0
VERTEX
8
CUT
10
134.9349
20
299.7693
0
VERTEX
8
CUT
10
138.0110
20
299.5649
0
VERTEX
8
CUT
10
142.1581
20
298.5117
0
VERTEX
8
CUT
10
142.9250
20
298.2095
0
VERTEX
8
CUT
10
143.4220
20
297.9995
0
VERTEX
8
CUT
10
143.6125
20
297.9190
0
VERTEX
8
CUT
10
143.7645
20
297.8547
0
VERTEX
8
CUT
10
144.4280
20
297.5743
0
VERTEX
8
CUT
10
147.6727
20
295.5966
0
VERTEX
8
CUT
10
147.6795
20
295.5912
0
VERTEX
8
CUT
10
147.6862
20
295.5859
0
VERTEX
8
CUT
10
147.6968
20
295.5775
0
VERTEX
8
CUT
10
147.7142
20
295.5636
0
VERTEX
8
CUT
10
148.7588
20
294.6326
0
VERTEX
8
CUT
10
148.9762
20
294.4014
0
VERTEX
8
CUT
10
149.4689
20
293.8773
0
VERTEX
8
CUT
10
149.8625
20
293.4586
0
VERTEX
8
CUT
10
150.3323
20
292.9589
0
VERTEX
8
CUT
10
150.6500
20
292.5953
0
VERTEX
8
CUT
10
151.8101
20
291.0364
0
VERTEX
8
CUT
10
152.4302
20
290.0780
0
VERTEX
8
CUT
10
154.8743
20
286.0615
0
VERTEX
8
CUT
10
155.9665
20
284.6125
0
VERTEX
8
CUT
10
156.0879
20
284.4250
0
VERTEX
8
CUT
10
156.1689
20
284.3441
0
VERTEX
8
CUT
10
156.3577
20
284.0936
0
VERTEX
8
CUT
10
157.7776
20
282.7096
0
VERTEX
8
CUT
10
159.5554
20
281.8476
0
VERTEX
8
CUT
10
160.3029
20
281.9088
0
VERTEX
8
CUT
10
160.8529
20
282.2565
0
VERTEX
8
CUT
10
161.0230
20
282.4561
0
VERTEX
8
CUT
10
161.2643
20
282.6650
0
VERTEX
8
CUT
10
161.3750
20
282.8690
0
VERTEX
8
CUT
10
161.3955
20
282.8932
0
VERTEX
8
CUT
10
161.4068
20
282.9279
0
VERTEX
8
CUT
10
161.5398
20
283.1731
0
VERTEX
8
CUT
10
161.6187
20
283.2756
0
VERTEX
8
CUT
10
161.6143
20
283.3107
0
VERTEX
8
CUT
10
161.6427
20
283.3630
0
VERTEX
8
CUT
10
161.6571
20
283.6948
0
VERTEX
8
CUT
10
161.6626
20
283.7117
0
VERTEX
8
CUT
10
161.6610
20
283.7839
0
VERTEX
8
CUT
10
161.6977
20
284.6307
0
VERTEX
8
CUT
10
161.6349
20
284.9163
0
VERTEX
8
CUT
10
161.6334
20
284.9835
0
VERTEX
8
CUT
10
160.9090
20
289.1987
0
VERTEX
8
CUT
10
160.9088
20
291.2908
0
VERTEX
8
CUT
10
160.9695
20
291.5937
0
VERTEX
8
CUT
10
161.6127
20
293.6992
0
VERTEX
8
CUT
10
161.6734
20
293.8305
0
VERTEX
8
CUT
10
161.6766
20
293.8373
0
VERTEX
8
CUT
10
161.6887
20
293.8636
0
VERTEX
8
CUT
10
161.7669
20
294.0327
0
VERTEX
8
CUT
10
163.0838
20
296.1151
0
VERTEX
8
CUT
10
164.0572
20
297.1581
0
VERTEX
8
CUT
10
166.2322
20
298.7128
0
VERTEX
8
CUT
10
166.2838
20
298.7420
0
VERTEX
8
CUT
10
166.3271
20
298.7665
0
VERTEX
8
CUT
10
166.3322
20
298.7694
0
VERTEX
8
CUT
10
166.3487
20
298.7788
0
VERTEX
8
CUT
10
167.3278
20
299.1528
0
VERTEX
8
CUT
10
167.6055
20
299.2338
0
VERTEX
8
CUT
10
168.0847
20
299.3735
0
VERTEX
8
CUT
10
168.3986
20
299.4650
0
VERTEX
8
CUT
10
168.6671
20
299.5433
0
VERTEX
8
CUT
10
170.0520
20
299.6704
0
VERTEX
8
CUT
10
172.8363
20
299.5406
0
VERTEX
8
CUT
10
174.1261
20
299.2989
0
VERTEX
8
CUT
10
175.6619
20
298.6651
0
VERTEX
8
CUT
10
177.0299
20
297.9785
0
VERTEX
8
CUT
10
179.0622
20
296.4424
0
VERTEX
8
CUT
10
181.5215
20
293.6714
0
VERTEX
8
CUT
10
181.7401
20
293.3339
0
VERTEX
8
CUT
10
181.8256
20
293.2019
0
VERTEX
8
CUT
10
181.8899
20
293.1026
0
VERTEX
8
CUT
10
182.0740
20
292.8185
0
VERTEX
8
CUT
10
182.9463
20
291.3296
0
VERTEX
8
CUT
10
183.9635
20
288.4783
0
VERTEX
8
CUT
10
184.2074
20
288.2580
0
VERTEX
8
CUT
10
184.5330
20
288.3027
0
VERTEX
8
CUT
10
185.6609
20
289.2662
0
VERTEX
8
CUT
10
189.3688
20
290.5932
0
VERTEX
8
CUT
10
190.9125
20
290.9051
0
VERTEX
8
CUT
10
192.4690
20
290.9394
0
VERTEX
8
CUT
10
194.0882
20
290.8004
0
VERTEX
8
CUT
10
197.0245
20
289.8961
0
VERTEX
8
CUT
10
198.2751
20
289.1193
0
VERTEX
8
CUT
10
200.0653
20
287.5355
0
VERTEX
8
CUT
10
201.2243
20
288.0715
0
VERTEX
8
CUT
10
202.0711
20
287.8504
0
VERTEX
8
CUT
10
203.9319
20
286.3325
0
VERTEX
8
CUT
10
206.0344
20
284.1258
0
VERTEX
8
CUT
10
206.7762
20
283.1178
0
VERTEX
8
CUT
10
206.9826
20
282.7697
0
VERTEX
8
CUT
10
207.0603
20
282.6387
0
VERTEX
8
CUT
10
207.1157
20
282.5453
0
VERTEX
8
CUT
10
207.4199
20
282.0323
0
VERTEX
8
CUT
10
208.6493
20
279.6249
0
VERTEX
8
CUT
10
209.6598
20
275.6636
0
VERTEX
8
CUT
10
210.5829
20
267.2905
0
VERTEX
8
CUT
10
211.1179
20
264.6474
0
VERTEX
8
CUT
10
211.1420
20
264.5083
0
VERTEX
8
CUT
10
211.1513
20
264.4822
0
VERTEX
8
CUT
10
211.3375
20
263.5619
0
VERTEX
8
CUT
10
212.5600
20
260.5039
0
VERTEX
8
CUT
10
213.5968
20
258.7824
0
VERTEX
8
CUT
10
214.6961
20
257.5448
0
VERTEX
8
CUT
10
214.9603
20
257.1844
0
VERTEX
8
CUT
10
215.1858
20
256.9934
0
VERTEX
8
CUT
10
215.9895
20
256.0885
0
VERTEX
8
CUT
10
217.3006
20
255.1497
0
VERTEX
8
CUT
10
218.4241
20
254.6353
0
VERTEX
8
CUT
10
219.0470
20
254.5365
0
VERTEX
8
CUT
10
219.3843
20
254.3898
0
VERTEX
8
CUT
10
219.7612
20
254.4478
0
VERTEX
8
CUT
10
219.9316
20
254.6353
0
VERTEX
8
CUT
10
220.2550
20
254.7215
0
VERTEX
8
CUT
10
220.7886
20
255.3748
0
VERTEX
8
CUT
10
220.8864
20
255.6856
0
VERTEX
8
CUT
10
221.0946
20
255.9147
0
VERTEX
8
CUT
10
220.8581
20
256.5379
0
VERTEX
8
CUT
10
220.8482
20
256.6238
0
VERTEX
8
CUT
10
219.6859
20
260.1609
0
VERTEX
8
CUT
10
219.6316
20
260.4648
0
VERTEX
8
CUT
10
219.6210
20
260.5242
0
VERTEX
8
CUT
10
219.6146
20
260.5597
0
VERTEX
8
CUT
10
219.5494
20
260.9242
0
VERTEX
8
CUT
10
219.5349
20
261.9478
0
VERTEX
8
CUT
10
219.7283
20
263.2176
0
VERTEX
8
CUT
10
219.8736
20
263.6112
0
VERTEX
8
CUT
10
220.4504
20
264.4665
0
VERTEX
8
CUT
10
221.8531
20
265.5824
0
VERTEX
8
CUT
10
221.8688
20
265.5917
0
VERTEX
8
CUT
10
221.8712
20
265.5931
0
VERTEX
8
CUT
10
221.8994
20
265.6099
0
VERTEX
8
CUT
10
221.9644
20
265.6485
0
VERTEX
8
CUT
10
222.8757
20
265.9925
0
VERTEX
8
CUT
10
224.7552
20
266.0544
0
VERTEX
8
CUT
10
225.7915
20
265.7912
0
VERTEX
8
CUT
10
226.5266
20
265.5391
0
VERTEX
8
CUT
10
228.0528
20
264.6305
0
VERTEX
8
CUT
10
228.6189
20
264.2404
0
VERTEX
8
CUT
10
228.6521
20
264.2124
0
VERTEX
8
CUT
10
228.6890
20
264.1813
0
VERTEX
8
CUT
10
228.7572
20
264.1237
0
VERTEX
8
CUT
10
228.8640
20
264.0336
0
VERTEX
8
CUT
10
230.2112
20
262.6590
0
VERTEX
8
CUT
10
230.6047
20
262.1934
0
VERTEX
8
CUT
10
231.9800
20
260.2759
0
VERTEX
8
CUT
10
233.3062
20
257.7833
0
VERTEX
8
CUT
10
234.0754
20
255.8123
0
VERTEX
8
CUT
10
234.8422
20
253.2559
0
VERTEX
8
CUT
10
235.0045
20
252.6445
0
VERTEX
8
CUT
10
235.5107
20
248.8405
0
VERTEX
8
CUT
10
235.8202
20
242.8654
0
VERTEX
8
CUT
10
235.7213
20
240.9011
0
VERTEX
8
CUT
10
235.3187
20
239.4750
0
VERTEX
8
CUT
10
232.2437
20
233.0679
0
VERTEX
8
CUT
10
232.3131
20
232.6361
0
VERTEX
8
CUT
10
232.8690
20
232.6245
0
VERTEX
8
CUT
10
234.5578
20
234.7220
0
VERTEX
8
CUT
10
238.9536
20
241.7548
0
VERTEX
8
CUT
10
239.9990
20
242.9290
0
VERTEX
8
CUT
10
242.2091
20
244.5306
0
VERTEX
8
CUT
10
242.4618
20
244.6200
0
VERTEX
8
CUT
10
243.5533
20
244.9567
0
VERTEX
8
CUT
10
244.5118
20
245.0447
0
VERTEX
8
CUT
10
245.6812
20
244.8727
0
VERTEX
8
CUT
10
246.7511
20
244.4404
0
VERTEX
8
CUT
10
248.3919
20
243.1852
0
VERTEX
8
CUT
10
248.4296
20
243.1436
0
VERTEX
8
CUT
10
248.4707
20
243.0980
0
VERTEX
8
CUT
10
248.4901
20
243.0765
0
VERTEX
8
CUT
10
248.6576
20
242.8911
0
VERTEX
8
CUT
10
249.6974
20
241.2227
0
VERTEX
8
CUT
10
249.7300
20
241.1559
0
VERTEX
8
CUT
10
249.7348
20
241.1461
0
VERTEX
8
CUT
10
249.7623
20
241.0899
0
VERTEX
8
CUT
10
249.7913
20
241.0305
0
VERTEX
8
CUT
10
250.1616
20
239.9526
0
VERTEX
8
CUT
10
250.1792
20
239.8687
0
VERTEX
8
CUT
10
250.1868
20
239.8323
0
VERTEX
8
CUT
10
250.1896
20
239.8190
0
VERTEX
8
CUT
10
250.1918
20
239.8082
0
VERTEX
8
CUT
10
250.4809
20
237.1424
0
VERTEX
8
CUT
10
250.4150
20
235.5726
0
VERTEX
8
CUT
10
250.3637
20
235.2692
0
VERTEX
8
CUT
10
250.3632
20
235.2659
0
VERTEX
8
CUT
10
250.3625
20
235.2618
0
VERTEX
8
CUT
10
250.3624
20
235.2613
0
VERTEX
8
CUT
10
249.7973
20
232.8727
0
VERTEX
8
CUT
10
249.5792
20
232.2447
0
VERTEX
8
CUT
10
249.4760
20
231.9472
0
VERTEX
8
CUT
10
249.4462
20
231.8614
0
VERTEX
8
CUT
10
249.4013
20
231.7321
0
VERTEX
8
CUT
10
249.1382
20
231.1150
0
VERTEX
8
CUT
10
248.6264
20
230.1580
0
VERTEX
8
CUT
10
248.0337
20
229.1580
0
VERTEX
8
CUT
10
245.0462
20
225.1890
0
VERTEX
8
CUT
10
245.1344
20
225.1349
0
VERTEX
8
CUT
10
245.1510
20
225.1223
0
VERTEX
8
CUT
10
244.9474
20
224.7016
0
VERTEX
8
CUT
10
245.2041
20
224.3055
0
VERTEX
8
CUT
10
245.7769
20
224.0103
0
VERTEX
8
CUT
10
245.7794
20
223.9399
0
VERTEX
8
CUT
10
245.7717
20
223.8212
0
VERTEX
8
CUT
10
245.7599
20
223.7501
0
VERTEX
8
CUT
10
246.5904
20
223.4360
0
VERTEX
8
CUT
10
248.2734
20
222.1181
0
VERTEX
8
CUT
10
249.2932
20
220.2563
0
VERTEX
8
CUT
10
249.4924
20
218.9044
0
VERTEX
8
CUT
10
249.1836
20
217.7792
0
VERTEX
8
CUT
10
248.4001
20
216.6434
0
VERTEX
8
CUT
10
247.2379
20
215.6561
0
VERTEX
8
CUT
10
246.6383
20
215.3112
0
VERTEX
8
CUT
10
244.0528
20
214.5789
0
VERTEX
8
CUT
10
243.1296
20
214.9822
0
VERTEX
8
CUT
10
241.9924
20
216.0172
0
VERTEX
8
CUT
10
241.5174
20
216.7720
0
VERTEX
8
CUT
10
241.4397
20
216.7257
0
VERTEX
8
CUT
10
241.3313
20
216.6752
0
VERTEX
8
CUT
10
241.2184
20
216.6357
0
VERTEX
8
CUT
10
241.1022
20
216.6076
0
VERTEX
8
CUT
10
240.9837
20
216.5912
0
VERTEX
8
CUT
10
240.8643
20
216.5867
0
VERTEX
8
CUT
10
240.7449
20
216.5941
0
VERTEX
8
CUT
10
240.6269
20
216.6134
0
VERTEX
8
CUT
10
240.5114
20
216.6443
0
VERTEX
8
CUT
10
240.3995
20
216.6865
0
VERTEX
8
CUT
10
240.2924
20
216.7397
0
VERTEX
8
CUT
10
240.1978
20
216.7991
0
VERTEX
8
CUT
10
240.1870
20
216.8000
0
VERTEX
8
CUT
10
240.0715
20
216.8216
0
VERTEX
8
CUT
10
239.9587
20
216.8544
0
VERTEX
8
CUT
10
239.8750
20
216.8879
0
VERTEX
8
CUT
10
239.5786
20
215.9248
0
VERTEX
8
CUT
10
239.3818
20
214.4377
0
VERTEX
8
CUT
10
239.5698
20
211.6205
0
VERTEX
8
CUT
10
240.3761
20
209.3189
0
VERTEX
8
CUT
10
242.2235
20
205.6373
0
VERTEX
8
CUT
10
240.5954
20
204.0582
0
VERTEX
8
CUT
10
238.4349
20
202.3625
0
VERTEX
8
CUT
10
233.3424
20
198.8139
0
VERTEX
8
CUT
10
230.2330
20
196.3675
0
VERTEX
8
CUT
10
228.2023
20
195.1349
0
VERTEX
8
CUT
10
226.0977
20
194.1731
0
VERTEX
8
CUT
10
223.6884
20
196.8606
0
VERTEX
8
CUT
10
221.6348
20
198.5618
0
VERTEX
8
CUT
10
220.0639
20
199.4127
0
VERTEX
8
CUT
10
216.0736
20
200.9165
0
VERTEX
8
CUT
10
214.1140
20
201.8777
0
VERTEX
8
CUT
10
212.3427
20
203.0435
0
VERTEX
8
CUT
10
210.7065
20
204.4081
0
VERTEX
8
CUT
10
209.3371
20
205.9493
0
VERTEX
8
CUT
10
208.1721
20
207.6524
0
VERTEX
8
CUT
10
207.2090
20
209.5173
0
VERTEX
8
CUT
10
205.7424
20
213.2632
0
VERTEX
8
CUT
10
205.3700
20
213.7543
0
VERTEX
8
CUT
10
204.5356
20
214.2693
0
VERTEX
8
CUT
10
204.3086
20
214.6630
0
VERTEX
8
CUT
10
204.3663
20
215.0339
0
VERTEX
8
CUT
10
205.2213
20
215.9586
0
VERTEX
8
CUT
10
205.6338
20
216.8518
0
VERTEX
8
CUT
10
205.9120
20
218.4547
0
VERTEX
8
CUT
10
205.7259
20
219.1845
0
VERTEX
8
CUT
10
205.3973
20
219.2442
0
VERTEX
8
CUT
10
204.9435
20
218.9766
0
VERTEX
8
CUT
10
202.6608
20
217.1213
0
VERTEX
8
CUT
10
200.7139
20
214.8258
0
VERTEX
8
CUT
10
199.4462
20
212.2395
0
VERTEX
8
CUT
10
199.0447
20
210.7690
0
VERTEX
8
CUT
10
198.7557
20
207.5946
0
VERTEX
8
CUT
10
199.0158
20
204.8175
0
VERTEX
8
CUT
10
199.5634
20
203.6115
0
VERTEX
8
CUT
10
200.7787
20
202.3499
0
VERTEX
8
CUT
10
201.2534
20
202.3543
0
VERTEX
8
CUT
10
201.6943
20
202.9789
0
VERTEX
8
CUT
10
202.2500
20
203.2624
0
VERTEX
8
CUT
10
202.8361
20
203.2558
0
VERTEX
8
CUT
10
203.2503
20
202.9348
0
VERTEX
8
CUT
10
203.3662
20
202.5401
0
VERTEX
8
CUT
10
203.1485
20
202.0623
0
VERTEX
8
CUT
10
201.4833
20
200.9451
0
VERTEX
8
CUT
10
201.5723
20
200.2824
0
VERTEX
8
CUT
10
202.5760
20
199.3161
0
VERTEX
8
CUT
10
203.4026
20
199.6771
0
VERTEX
8
CUT
10
203.9477
20
199.4029
0
VERTEX
8
CUT
10
206.4730
20
196.1090
0
VERTEX
8
CUT
10
207.3675
20
194.5826
0
VERTEX
8
CUT
10
207.4174
20
194.0144
0
VERTEX
8
CUT
10
206.3923
20
193.6940
0
VERTEX
8
CUT
10
204.2492
20
193.8530
0
VERTEX
8
CUT
10
203.7259
20
193.7253
0
VERTEX
8
CUT
10
202.1470
20
189.8964
0
VERTEX
8
CUT
10
199.9381
20
186.6653
0
VERTEX
8
CUT
10
198.4738
20
185.1637
0
VERTEX
8
CUT
10
196.8384
20
183.8580
0
VERTEX
8
CUT
10
193.4298
20
181.8708
0
VERTEX
8
CUT
10
191.7717
20
181.3415
0
VERTEX
8
CUT
10
190.2485
20
181.1415
0
VERTEX
8
CUT
10
188.7714
20
181.2773
0
VERTEX
8
CUT
10
185.1088
20
182.3004
0
VERTEX
8
CUT
10
180.0250
20
184.4739
0
VERTEX
8
CUT
10
179.6919
20
184.4423
0
VERTEX
8
CUT
10
179.5061
20
184.1639
0
VERTEX
8
CUT
10
179.6621
20
183.7931
0
VERTEX
8
CUT
10
182.8556
20
181.9129
0
VERTEX
8
CUT
10
186.1041
20
179.6893
0
VERTEX
8
CUT
10
188.7232
20
177.4631
0
VERTEX
8
CUT
10
190.8363
20
175.1851
0
VERTEX
8
CUT
10
192.3726
20
172.8793
0
VERTEX
8
CUT
10
193.2788
20
170.5961
0
VERTEX
8
CUT
10
193.6152
20
168.3499
0
VERTEX
8
CUT
10
193.3313
20
165.2384
0
VERTEX
8
CUT
10
193.3664
20
165.1810
0
VERTEX
8
CUT
10
193.3485
20
165.0989
0
VERTEX
8
CUT
10
193.4727
20
165.0071
0
VERTEX
8
CUT
10
193.5386
20
164.8994
0
VERTEX
8
CUT
10
194.3035
20
164.8080
0
VERTEX
8
CUT
10
195.6112
20
164.2479
0
VERTEX
8
CUT
10
196.8312
20
165.5755
0
VERTEX
8
CUT
10
195.8149
20
167.4043
0
VERTEX
8
CUT
10
194.8921
20
169.7456
0
VERTEX
8
CUT
10
194.4502
20
172.2275
0
VERTEX
8
CUT
10
194.5874
20
175.7694
0
VERTEX
8
CUT
10
194.8420
20
176.9292
0
VERTEX
8
CUT
10
194.8500
20
176.9532
0
VERTEX
8
CUT
10
194.8548
20
176.9677
0
VERTEX
8
CUT
10
194.8563
20
176.9721
0
VERTEX
8
CUT
10
194.9047
20
177.1171
0
VERTEX
8
CUT
10
195.9139
20
179.4194
0
VERTEX
8
CUT
10
199.6126
20
184.1281
0
VERTEX
8
CUT
10
203.4677
20
188.2467
0
VERTEX
8
CUT
10
207.0988
20
191.7793
0
VERTEX
8
CUT
10
208.4720
20
192.5215
0
VERTEX
8
CUT
10
210.1664
20
192.9573
0
VERTEX
8
CUT
10
211.5944
20
193.0205
0
VERTEX
8
CUT
10
213.6491
20
192.5900
0
VERTEX
8
CUT
10
215.6762
20
191.5829
0
VERTEX
8
CUT
10
216.6251
20
190.8418
0
VERTEX
8
CUT
10
220.1513
20
187.2829
0
VERTEX
8
CUT
10
220.4588
20
187.2081
0
VERTEX
8
CUT
10
221.1828
20
187.4854
0
VERTEX
8
CUT
10
224.8534
20
189.8589
0
VERTEX
8
CUT
10
226.3100
20
190.9514
0
VERTEX
8
CUT
10
226.6593
20
191.1826
0
VERTEX
8
CUT
10
226.6826
20
191.2308
0
VERTEX
8
CUT
10
233.5349
20
196.3702
0
VERTEX
8
CUT
10
244.7583
20
205.7831
0
VERTEX
8
CUT
10
249.4216
20
210.2389
0
VERTEX
8
CUT
10
250.9453
20
211.6409
0
VERTEX
8
CUT
10
251.5096
20
212.2340
0
VERTEX
8
CUT
10
253.6434
20
214.2729
0
VERTEX
8
CUT
10
260.4117
20
221.5917
0
VERTEX
8
CUT
10
260.7694
20
221.9677
0
VERTEX
8
CUT
10
261.1419
20
222.3593
0
VERTEX
8
CUT
10
262.2349
20
223.5082
0
VERTEX
8
CUT
10
264.0566
20
225.4231
0
VERTEX
8
CUT
10
265.6099
20
226.8570
0
VERTEX
8
CUT
10
265.8726
20
227.0286
0
VERTEX
8
CUT
10
265.9091
20
227.0525
0
VERTEX
8
CUT
10
265.9469
20
227.0772
0
VERTEX
8
CUT
10
265.9789
20
227.0981
0
VERTEX
8
CUT
10
266.6519
20
227.2082
0
VERTEX
8
CUT
10
266.7053
20
227.1793
0
VERTEX
8
CUT
10
267.0266
20
226.9600
0
VERTEX
8
CUT
10
267.2119
20
226.0592
0
VERTEX
8
CUT
10
267.2108
20
225.9674
0
VERTEX
8
CUT
10
267.0934
20
225.5969
0
VERTEX
8
CUT
10
267.0631
20
225.5244
0
VERTEX
8
CUT
10
266.8455
20
225.0034
0
VERTEX
8
CUT
10
266.3627
20
223.8472
0
VERTEX
8
CUT
10
265.8452
20
222.8675
0
VERTEX
8
CUT
10
263.9836
20
219.9348
0
VERTEX
8
CUT
10
263.9197
20
219.8448
0
VERTEX
8
CUT
10
263.8733
20
219.7795
0
VERTEX
8
CUT
10
263.6087
20
219.4069
0
VERTEX
8
CUT
10
261.4706
20
216.3956
0
VERTEX
8
CUT
10
260.3597
20
214.8650
0
VERTEX
8
CUT
10
255.0387
20
208.4599
0
VERTEX
8
CUT
10
254.6248
20
207.7323
0
VERTEX
8
CUT
10
254.6733
20
207.1101
0
VERTEX
8
CUT
10
254.6673
20
207.0659
0
VERTEX
8
CUT
10
254.6814
20
207.0061
0
VERTEX
8
CUT
10
254.9284
20
203.8367
0
VERTEX
8
CUT
10
254.8601
20
201.8692
0
VERTEX
8
CUT
10
254.3986
20
199.5753
0
VERTEX
8
CUT
10
254.3171
20
199.4360
0
VERTEX
8
CUT
10
254.2924
20
199.3938
0
VERTEX
8
CUT
10
253.9977
20
198.8906
0
VERTEX
8
CUT
10
252.6743
20
196.6305
0
VERTEX
8
CUT
10
251.3386
20
195.0366
0
VERTEX
8
CUT
10
251.3337
20
195.0310
0
VERTEX
8
CUT
10
251.3227
20
195.0185
0
VERTEX
8
CUT
10
251.3182
20
195.0134
0
VERTEX
8
CUT
10
251.0586
20
194.7188
0
VERTEX
8
CUT
10
247.2248
20
190.7866
0
VERTEX
8
CUT
10
244.6880
20
187.6785
0
VERTEX
8
CUT
10
241.0314
20
186.5902
0
VERTEX
8
CUT
10
236.7223
20
185.0011
0
VERTEX
8
CUT
10
232.4331
20
183.8461
0
VERTEX
8
CUT
10
231.3281
20
183.9082
0
VERTEX
8
CUT
10
229.6320
20
184.6109
0
VERTEX
8
CUT
10
228.6999
20
184.6597
0
VERTEX
8
CUT
10
228.5311
20
184.3716
0
VERTEX
8
CUT
10
228.6471
20
183.9838
0
VERTEX
8
CUT
10
230.1472
20
181.2982
0
VERTEX
8
CUT
10
229.7512
20
180.7337
0
VERTEX
8
CUT
10
229.8757
20
180.3208
0
VERTEX
8
CUT
10
230.2340
20
180.2471
0
VERTEX
8
CUT
10
236.3705
20
182.1742
0
VERTEX
8
CUT
10
243.4476
20
184.7418
0
VERTEX
8
CUT
10
254.3464
20
189.0884
0
VERTEX
8
CUT
10
256.4109
20
190.0316
0
VERTEX
8
CUT
10
256.8362
20
190.2024
0
VERTEX
8
CUT
10
257.8783
20
190.7021
0
VERTEX
8
CUT
10
264.6398
20
193.7912
0
VERTEX
8
CUT
10
269.8166
20
196.3632
0
VERTEX
8
CUT
10
280.5072
20
202.1855
0
VERTEX
8
CUT
10
285.5693
20
205.1291
0
VERTEX
8
CUT
10
287.6228
20
206.2626
0
VERTEX
8
CUT
10
288.5366
20
206.7670
0
VERTEX
8
CUT
10
288.7879
20
206.9057
0
VERTEX
8
CUT
10
289.4072
20
207.2475
0
VERTEX
8
CUT
10
290.9281
20
207.8485
0
VERTEX
8
CUT
10
291.3074
20
207.7686
0
VERTEX
8
CUT
10
291.4270
20
207.5989
0
VERTEX
8
CUT
10
291.4508
20
207.5651
0
VERTEX
8
CUT
10
291.4537
20
207.5610
0
VERTEX
8
CUT
10
291.4580
20
207.5549
0
VERTEX
8
CUT
10
291.6264
20
207.1664
0
VERTEX
8
CUT
10
291.4914
20
206.8052
0
VERTEX
8
CUT
10
290.9451
20
205.9347
0
VERTEX
8
CUT
10
290.1720
20
205.0717
0
VERTEX
8
CUT
10
288.1059
20
203.2691
0
VERTEX
8
CUT
10
279.5391
20
197.2143
0
VERTEX
8
CUT
10
268.9174
20
190.6836
0
VERTEX
8
CUT
10
257.3195
20
184.5741
0
VERTEX
8
CUT
10
257.1819
20
184.2673
0
VERTEX
8
CUT
10
257.2115
20
184.1539
0
VERTEX
8
CUT
10
257.1876
20
184.0660
0
VERTEX
8
CUT
10
257.3123
20
183.7679
0
VERTEX
8
CUT
10
257.3511
20
183.6196
0
VERTEX
8
CUT
10
258.0686
20
181.9596
0
VERTEX
8
CUT
10
258.0758
20
181.9426
0
VERTEX
8
CUT
10
258.0977
20
181.8901
0
VERTEX
8
CUT
10
258.0982
20
181.8889
0
VERTEX
8
CUT
10
258.3232
20
181.3510
0
VERTEX
8
CUT
10
258.5533
20
178.6208
0
VERTEX
8
CUT
10
258.4899
20
177.8048
0
VERTEX
8
CUT
10
258.4723
20
177.7497
0
VERTEX
8
CUT
10
258.4096
20
177.5529
0
VERTEX
8
CUT
10
258.3148
20
177.2555
0
VERTEX
8
CUT
10
257.9212
20
176.0213
0
VERTEX
8
CUT
10
257.2041
20
175.2076
0
VERTEX
8
CUT
10
249.8093
20
173.7279
0
VERTEX
8
CUT
10
243.1627
20
173.2312
0
VERTEX
8
CUT
10
241.9918
20
173.4760
0
VERTEX
8
CUT
10
240.6722
20
174.4106
0
VERTEX
8
CUT
10
237.6655
20
173.9246
0
VERTEX
8
CUT
10
234.3193
20
175.4075
0
VERTEX
8
CUT
10
233.5940
20
175.5016
0
VERTEX
8
CUT
10
233.1906
20
175.2152
0
VERTEX
8
CUT
10
233.3909
20
174.3699
0
VERTEX
8
CUT
10
234.2401
20
172.6644
0
VERTEX
8
CUT
10
235.6434
20
170.5172
0
VERTEX
8
CUT
10
235.9553
20
170.2940
0
VERTEX
8
CUT
10
237.0083
20
170.2587
0
VERTEX
8
CUT
10
247.4517
20
171.1790
0
VERTEX
8
CUT
10
261.1823
20
172.8253
0
VERTEX
8
CUT
10
261.2857
20
172.8414
0
VERTEX
8
CUT
10
261.7365
20
172.8904
0
VERTEX
8
CUT
10
262.8861
20
173.0905
0
VERTEX
8
CUT
10
269.6438
20
174.1424
0
VERTEX
8
CUT
10
281.3497
20
176.3051
0
VERTEX
8
CUT
10
286.1412
20
177.1393
0
VERTEX
8
CUT
10
287.3556
20
177.0766
0
VERTEX
8
CUT
10
287.6759
20
176.9069
0
VERTEX
8
CUT
10
287.8751
20
176.3758
0
VERTEX
8
CUT
10
287.8658
20
176.3469
0
VERTEX
8
CUT
10
287.3645
20
175.6448
0
VERTEX
8
CUT
10
287.3085
20
175.6060
0
VERTEX
8
CUT
10
287.2416
20
175.5595
0
VERTEX
8
CUT
10
287.1436
20
175.4915
0
VERTEX
8
CUT
10
287.0255
20
175.4095
0
VERTEX
8
CUT
10
285.0964
20
174.4609
0
VERTEX
8
CUT
10
280.5718
20
172.8917
0
VERTEX
8
CUT
10
277.6052
20
172.0603
0
VERTEX
8
CUT
10
275.8467
20
171.5674
0
VERTEX
8
CUT
10
275.3041
20
171.4153
0
VERTEX
8
CUT
10
274.7680
20
171.2651
0
VERTEX
8
CUT
10
263.3479
20
168.6503
0
VERTEX
8
CUT
10
263.0741
20
168.5987
0
VERTEX
8
CUT
10
263.0722
20
168.5983
0
VERTEX
8
CUT
10
263.0582
20
168.5957
0
VERTEX
8
CUT
10
262.8487
20
168.5562
0
VERTEX
8
CUT
10
252.8995
20
166.8044
0
VERTEX
8
CUT
10
251.7489
20
166.6088
0
VERTEX
8
CUT
10
251.7225
20
166.5972
0
VERTEX
8
CUT
10
251.1006
20
166.4877
0
VERTEX
8
CUT
10
249.9432
20
165.8535
0
VERTEX
8
CUT
10
249.3868
20
165.3079
0
VERTEX
8
CUT
10
248.2822
20
163.7544
0
VERTEX
8
CUT
10
248.0678
20
163.4623
0
VERTEX
8
CUT
10
248.0532
20
163.4323
0
VERTEX
8
CUT
10
247.4589
20
162.5964
0
VERTEX
8
CUT
10
247.3885
20
162.0678
0
VERTEX
8
CUT
10
247.3792
20
162.0486
0
VERTEX
8
CUT
10
247.3705
20
161.9323
0
VERTEX
8
CUT
10
247.1872
20
160.5549
0
VERTEX
8
CUT
10
247.2277
20
160.0210
0
VERTEX
8
CUT
10
247.2185
20
159.8979
0
VERTEX
8
CUT
10
247.2422
20
159.8304
0
VERTEX
8
CUT
10
247.2837
20
159.2821
0
VERTEX
8
CUT
10
247.5961
20
158.5719
0
VERTEX
8
CUT
10
248.2495
20
158.3637
0
VERTEX
8
CUT
10
250.0204
20
158.7576
0
VERTEX
8
CUT
10
252.3163
20
158.7117
0
VERTEX
8
CUT
10
253.3308
20
158.0949
0
VERTEX
8
CUT
10
253.3657
20
158.0737
0
VERTEX
8
CUT
10
253.4975
20
157.9936
0
VERTEX
8
CUT
10
253.6256
20
157.9157
0
VERTEX
8
CUT
10
254.8327
20
156.4504
0
VERTEX
8
CUT
10
255.4205
20
154.9938
0
VERTEX
8
CUT
10
255.6205
20
153.4597
0
VERTEX
8
CUT
10
255.4552
20
151.7064
0
VERTEX
8
CUT
10
254.9218
20
149.8612
0
VERTEX
8
CUT
10
253.4053
20
147.2746
0
VERTEX
8
CUT
10
253.0057
20
146.8202
0
VERTEX
8
CUT
10
252.6172
20
146.3785
0
VERTEX
8
CUT
10
252.2967
20
146.0141
0
VERTEX
8
CUT
10
252.0101
20
145.6882
0
VERTEX
8
CUT
10
247.5605
20
140.7788
0
VERTEX
8
CUT
10
245.9206
20
138.1906
0
VERTEX
8
CUT
10
245.8247
20
138.0459
0
VERTEX
8
CUT
10
245.8146
20
138.0234
0
VERTEX
8
CUT
10
245.7300
20
137.8898
0
VERTEX
8
CUT
10
245.4969
20
137.3109
0
VERTEX
8
CUT
10
245.2981
20
136.8651
0
VERTEX
8
CUT
10
245.2787
20
136.7691
0
VERTEX
8
CUT
10
245.1442
20
136.4351
0
VERTEX
8
CUT
10
244.9238
20
135.2195
0
VERTEX
8
CUT
10
244.9093
20
135.1739
0
VERTEX
8
CUT
10
244.8580
20
134.8564
0
VERTEX
8
CUT
10
244.6186
20
133.5357
0
VERTEX
8
CUT
10
244.6420
20
133.1906
0
VERTEX
8
CUT
10
244.6189
20
131.9763
0
VERTEX
8
CUT
10
244.8390
20
130.2808
0
VERTEX
8
CUT
10
244.9885
20
128.0723
0
VERTEX
8
CUT
10
245.1107
20
125.8504
0
VERTEX
8
CUT
10
244.7157
20
122.4623
0
VERTEX
8
CUT
10
243.7469
20
119.6972
0
VERTEX
8
CUT
10
242.5487
20
117.3977
0
VERTEX
8
CUT
10
241.6353
20
115.9618
0
VERTEX
8
CUT
10
240.0689
20
113.7864
0
VERTEX
8
CUT
10
238.6748
20
111.9629
0
VERTEX
8
CUT
10
237.5435
20
109.8063
0
VERTEX
8
CUT
10
237.5432
20
109.8010
0
VERTEX
8
CUT
10
237.4811
20
109.6851
0
VERTEX
8
CUT
10
237.4347
20
108.6352
0
VERTEX
8
CUT
10
237.5722
20
108.1242
0
VERTEX
8
CUT
10
237.8897
20
106.5466
0
VERTEX
8
CUT
10
237.8950
20
105.4043
0
VERTEX
8
CUT
10
237.8817
20
105.2003
0
VERTEX
8
CUT
10
237.8792
20
105.1613
0
VERTEX
8
CUT
10
237.8772
20
105.1297
0
VERTEX
8
CUT
10
237.8745
20
105.0888
0
VERTEX
8
CUT
10
237.7667
20
104.5125
0
VERTEX
8
CUT
10
237.3358
20
103.1632
0
VERTEX
8
CUT
10
237.0685
20
102.5201
0
VERTEX
8
CUT
10
235.9842
20
100.9041
0
VERTEX
8
CUT
10
234.4058
20
99.3984
0
VERTEX
8
CUT
10
232.1501
20
97.9401
0
VERTEX
8
CUT
10
226.4711
20
95.0196
0
VERTEX
8
CUT
10
225.1074
20
93.9789
0
VERTEX
8
CUT
10
223.4145
20
91.3472
0
VERTEX
8
CUT
10
222.7703
20
89.6059
0
VERTEX
8
CUT
10
222.5165
20
87.8761
0
VERTEX
8
CUT
10
222.6193
20
86.0936
0
VERTEX
8
CUT
10
223.0908
20
84.4661
0
VERTEX
8
CUT
10
223.4886
20
83.7007
0
VERTEX
8
CUT
10
223.5871
20
83.4079
0
VERTEX
8
CUT
10
223.7359
20
83.2248
0
VERTEX
8
CUT
10
223.9287
20
82.8540
0
VERTEX
8
CUT
10
225.1475
20
81.2784
0
VERTEX
8
CUT
10
228.7285
20
77.9478
0
VERTEX
8
CUT
10
229.3534
20
77.3325
0
VERTEX
8
CUT
10
230.2180
20
76.0357
0
VERTEX
8
CUT
10
230.5907
20
74.8813
0
VERTEX
8
CUT
10
230.6363
20
72.9979
0
VERTEX
8
CUT
10
230.6039
20
72.8312
0
VERTEX
8
CUT
10
230.1910
20
71.7073
0
VERTEX
8
CUT
10
230.1706
20
71.6669
0
VERTEX
8
CUT
10
229.2437
20
70.6073
0
VERTEX
8
CUT
10
228.2147
20
69.8625
0
VERTEX
8
CUT
10
227.5025
20
69.5431
0
VERTEX
8
CUT
10
225.5812
20
69.1172
0
VERTEX
8
CUT
10
224.3815
20
69.1030
0
VERTEX
8
CUT
10
224.1636
20
68.8600
0
VERTEX
8
CUT
10
224.1263
20
68.2675
0
VERTEX
8
CUT
10
224.1789
20
67.9998
0
VERTEX
8
CUT
10
224.1664
20
67.9617
0
VERTEX
8
CUT
10
224.2077
20
67.8532
0
VERTEX
8
CUT
10
224.2448
20
67.6644
0
VERTEX
8
CUT
10
224.3298
20
67.5321
0
VERTEX
8
CUT
10
224.4530
20
67.2084
0
VERTEX
8
CUT
10
225.5047
20
66.0283
0
VERTEX
8
CUT
10
225.5822
20
65.9527
0
VERTEX
8
CUT
10
225.7402
20
65.7598
0
VERTEX
8
CUT
10
226.3055
20
65.2466
0
VERTEX
8
CUT
10
227.0049
20
64.5639
0
VERTEX
8
CUT
10
230.9188
20
60.5476
0
VERTEX
8
CUT
10
231.9834
20
58.7026
0
VERTEX
8
CUT
10
232.1624
20
57.2307
0
VERTEX
8
CUT
10
231.9454
20
55.7982
0
VERTEX
8
CUT
10
231.2873
20
54.4974
0
VERTEX
8
CUT
10
230.6840
20
53.7727
0
VERTEX
8
CUT
10
229.4893
20
52.5330
0
VERTEX
8
CUT
10
229.3490
20
52.1690
0
VERTEX
8
CUT
10
229.1141
20
51.8868
0
VERTEX
8
CUT
10
229.5333
20
51.1691
0
VERTEX
8
CUT
10
229.6150
20
50.9606
0
VERTEX
8
CUT
10
230.7360
20
49.1099
0
VERTEX
8
CUT
10
233.1095
20
45.0462
0
VERTEX
8
CUT
10
233.5773
20
43.9550
0
VERTEX
8
CUT
10
234.5280
20
41.0852
0
VERTEX
8
CUT
10
234.8296
20
39.1516
0
VERTEX
8
CUT
10
234.7280
20
37.5261
0
VERTEX
8
CUT
10
234.2146
20
36.1964
0
VERTEX
8
CUT
10
234.2099
20
36.1863
0
VERTEX
8
CUT
10
234.2083
20
36.1828
0
VERTEX
8
CUT
10
234.2066
20
36.1791
0
VERTEX
8
CUT
10
234.2024
20
36.1701
0
VERTEX
8
CUT
10
233.2271
20
35.0921
0
VERTEX
8
CUT
10
232.2769
20
34.4170
0
VERTEX
8
CUT
10
231.4620
20
34.0850
0
VERTEX
8
CUT
10
231.1394
20
34.0676
0
VERTEX
8
CUT
10
231.0396
20
34.0622
0
VERTEX
8
CUT
10
230.4711
20
34.0316
0
VERTEX
8
CUT
10
229.6437
20
33.9870
0
VERTEX
8
CUT
10
229.2449
20
33.9740
0
VERTEX
8
CUT
10
228.4263
20
34.1478
0
VERTEX
8
CUT
10
228.3793
20
34.1578
0
VERTEX
8
CUT
10
228.3353
20
34.1671
0
VERTEX
8
CUT
10
228.3131
20
34.1718
0
VERTEX
8
CUT
10
226.0279
20
34.8130
0
VERTEX
8
CUT
10
222.4691
20
36.5924
0
VERTEX
8
CUT
10
218.1814
20
39.4294
0
VERTEX
8
CUT
10
206.2666
20
48.3040
0
VERTEX
8
CUT
10
206.2606
20
48.3080
0
VERTEX
8
CUT
10
203.6784
20
50.2372
0
VERTEX
8
CUT
10
200.0600
20
52.4425
0
VERTEX
8
CUT
10
194.1686
20
55.4699
0
VERTEX
8
CUT
10
190.5290
20
56.9122
0
VERTEX
8
CUT
10
184.7601
20
58.8422
0
VERTEX
8
CUT
10
184.1454
20
59.6841
0
VERTEX
8
CUT
10
184.1185
20
61.6887
0
VERTEX
8
CUT
10
183.7947
20
62.0104
0
VERTEX
8
CUT
10
183.4528
20
61.8951
0
VERTEX
8
CUT
10
183.0271
20
61.2124
0
VERTEX
8
CUT
10
182.7469
20
60.1675
0
VERTEX
8
CUT
10
183.5212
20
56.5254
0
VERTEX
8
CUT
10
183.5084
20
56.3062
0
VERTEX
8
CUT
10
183.5027
20
56.2091
0
VERTEX
8
CUT
10
183.4247
20
55.5265
0
VERTEX
8
CUT
10
182.6643
20
54.1570
0
VERTEX
8
CUT
10
181.7629
20
53.2211
0
VERTEX
8
CUT
10
180.9687
20
52.7640
0
VERTEX
8
CUT
10
178.7379
20
52.3527
0
VERTEX
8
CUT
10
177.3171
20
52.4546
0
VERTEX
8
CUT
10
174.1701
20
53.1291
0
VERTEX
8
CUT
10
173.0319
20
53.4472
0
VERTEX
8
CUT
10
168.6378
20
54.6982
0
VERTEX
8
CUT
10
165.2602
20
55.2506
0
VERTEX
8
CUT
10
161.4139
20
55.3154
0
VERTEX
8
CUT
10
160.2040
20
55.1517
0
VERTEX
8
CUT
10
159.9972
20
55.1529
0
VERTEX
8
CUT
10
159.8255
20
55.1224
0
VERTEX
8
CUT
10
159.7449
20
55.1213
0
VERTEX
8
CUT
10
159.4733
20
55.0598
0
VERTEX
8
CUT
10
159.3084
20
55.0305
0
VERTEX
8
CUT
10
157.0899
20
54.7303
0
VERTEX
8
CUT
10
156.4462
20
54.5219
0
VERTEX
8
CUT
10
155.9210
20
54.4286
0
VERTEX
8
CUT
10
154.7924
20
53.9867
0
VERTEX
8
CUT
10
153.3856
20
53.5314
0
VERTEX
8
CUT
10
150.8349
20
51.9904
0
VERTEX
8
CUT
10
150.3049
20
51.3450
0
VERTEX
8
CUT
10
149.4531
20
48.5306
0
VERTEX
8
CUT
10
149.1432
20
48.0178
0
VERTEX
8
CUT
10
148.6200
20
47.2366
0
VERTEX
8
CUT
10
147.8777
20
46.4380
0
VERTEX
8
CUT
10
146.8131
20
45.7367
0
VERTEX
8
CUT
10
145.5231
20
45.2686
0
VERTEX
8
CUT
10
144.5251
20
45.1276
0
VERTEX
8
CUT
10
143.5332
20
45.1629
0
VERTEX
8
CUT
10
143.0258
20
45.1809
0
VERTEX
8
CUT
10
142.8553
20
45.1870
0
VERTEX
8
CUT
10
142.6065
20
45.1958
0
VERTEX
8
CUT
10
141.2127
20
45.5449
0
VERTEX
8
CUT
10
133.5089
20
49.9539
0
VERTEX
8
CUT
10
130.5606
20
50.8397
0
VERTEX
8
CUT
10
127.3102
20
50.9667
0
VERTEX
8
CUT
10
124.7488
20
50.5819
0
VERTEX
8
CUT
10
123.4302
20
49.9031
0
VERTEX
8
CUT
10
119.7035
20
46.9471
0
VERTEX
8
CUT
10
119.4096
20
46.7653
0
VERTEX
8
CUT
10
117.8740
20
46.0634
0
VERTEX
8
CUT
10
116.1227
20
45.6961
0
VERTEX
8
CUT
10
114.3635
20
45.6663
0
VERTEX
8
CUT
10
112.4339
20
46.1713
0
VERTEX
8
CUT
10
111.6524
20
46.6252
0
VERTEX
8
CUT
10
111.4174
20
46.7842
0
VERTEX
8
CUT
10
111.3117
20
46.8935
0
VERTEX
8
CUT
10
111.2971
20
46.9085
0
VERTEX
8
CUT
10
111.1877
20
47.0216
0
VERTEX
8
CUT
10
110.8990
20
47.3196
0
VERTEX
8
CUT
10
109.8846
20
48.6101
0
VERTEX
8
CUT
10
109.2457
20
48.9947
0
VERTEX
8
CUT
10
108.4345
20
48.6164
0
VERTEX
8
CUT
10
106.9664
20
47.5306
0
VERTEX
8
CUT
10
104.3814
20
45.1110
0
VERTEX
8
CUT
10
97.6950
20
37.1411
0
VERTEX
8
CUT
10
94.9033
20
34.5223
0
VERTEX
8
CUT
10
93.6183
20
33.6833
0
VERTEX
8
CUT
10
92.5470
20
33.2386
0
VERTEX
8
CUT
10
92.4790
20
33.2195
0
VERTEX
8
CUT
10
92.3383
20
33.1800
0
VERTEX
8
CUT
10
92.2980
20
33.1687
0
VERTEX
8
CUT
10
92.2355
20
33.1511
0
VERTEX
8
CUT
10
91.3246
20
32.9801
0
VERTEX
8
CUT
10
90.2411
20
33.0924
0
VERTEX
8
CUT
10
88.5683
20
34.0161
0
VERTEX
8
CUT
10
88.0710
20
33.8647
0
VERTEX
8
CUT
10
77.0160
20
20.0914
0
VERTEX
8
CUT
10
75.8848
20
18.7096
0
VERTEX
8
CUT
10
75.8030
20
18.6096
0
VERTEX
8
CUT
10
75.7983
20
18.6039
0
VERTEX
8
CUT
10
74.9845
20
17.6098
0
VERTEX
8
CUT
10
73.5268
20
15.9750
0
VERTEX
8
CUT
10
69.6184
20
11.8122
0
VERTEX
8
CUT
10
68.4762
20
10.6593
0
VERTEX
8
CUT
10
64.5676
20
7.0974
0
VERTEX
8
CUT
10
61.6249
20
4.8693
0
VERTEX
8
CUT
10
60.7177
20
4.3072
0
VERTEX
8
CUT
10
57.7690
20
2.5944
0
VERTEX
8
CUT
10
56.6321
20
2.0441
0
VERTEX
8
CUT
10
55.8103
20
1.7313
0
VERTEX
8
CUT
10
55.4510
20
1.5945
0
VERTEX
8
CUT
10
55.0293
20
1.4340
0
VERTEX
8
CUT
10
53.3414
20
0.7916
0
VERTEX
8
CUT
10
52.6620
20
0.5625
0
VERTEX
8
CUT
10
50.0814
20
0.1877
0
VERTEX
8
CUT
10
48.7005
20
0.0985
0
VERTEX
8
CUT
10
48.6697
20
0.0965
0
VERTEX
8
CUT
10
48.6507
20
0.0953
0
VERTEX
8
CUT
10
48.2525
20
0.0695
0
VERTEX
8
CUT
10
47.9271
20
0.0485
0
VERTEX
8
CUT
10
47.7689
20
0.0383
0
VERTEX
8
CUT
10
45.8878
20
0.2033
0
VERTEX
8
CUT
10
43.3466
20
0.8961
0
VERTEX
8
CUT
10
42.4628
20
1.3145
0
VERTEX
8
CUT
10
41.6190
20
1.8030
0
VERTEX
8
CUT
10
40.1557
20
2.8129
0
VERTEX
8
CUT
10
39.5637
20
3.3466
0
VERTEX
8
CUT
10
39.5278
20
3.3790
0
VERTEX
8
CUT
10
39.5248
20
3.3817
0
VERTEX
8
CUT
10
38.9245
20
3.9229
0
VERTEX
8
CUT
10
37.7704
20
5.1108
0
VERTEX
8
CUT
10
37.6373
20
5.2659
0
VERTEX
8
CUT
10
37.6232
20
5.2824
0
VERTEX
8
CUT
10
37.6214
20
5.2845
0
VERTEX
8
CUT
10
37.5415
20
5.3776
0
VERTEX
8
CUT
10
37.0041
20
6.1416
0
VERTEX
8
CUT
10
36.3751
20
7.1764
0
VERTEX
8
CUT
10
35.9874
20
7.8845
0
VERTEX
8
CUT
10
34.2506
20
12.2102
0
VERTEX
8
CUT
10
32.8809
20
17.6476
0
VERTEX
8
CUT
10
31.9245
20
23.8214
0
VERTEX
8
CUT
10
31.3979
20
30.1801
0
VERTEX
8
CUT
10
31.3921
20
30.3739
0
VERTEX
8
CUT
10
31.3831
20
30.6779
0
VERTEX
8
CUT
10
31.3241
20
32.6694
0
VERTEX
8
CUT
10
31.2915
20
33.7710
0
VERTEX
8
CUT
10
31.2104
20
37.3234
0
VERTEX
8
CUT
10
31.2678
20
39.7234
0
VERTEX
8
CUT
10
31.4645
20
45.3045
0
VERTEX
8
CUT
10
32.1584
20
52.8627
0
VERTEX
8
CUT
10
33.3099
20
60.2985
0
VERTEX
8
CUT
10
34.3031
20
65.2976
0
VERTEX
8
CUT
10
36.7735
20
75.1794
0
VERTEX
8
CUT
10
38.1590
20
79.8643
0
VERTEX
8
CUT
10
40.9952
20
88.0775
0
VERTEX
8
CUT
10
42.4158
20
91.3499
0
VERTEX
8
CUT
10
43.7716
20
93.9317
0
VERTEX
8
CUT
10
45.1969
20
96.0899
0
VERTEX
8
CUT
10
46.7939
20
97.9578
0
VERTEX
8
CUT
10
48.5295
20
99.5893
0
VERTEX
8
CUT
10
50.2700
20
100.8223
0
VERTEX
8
CUT
10
51.9928
20
101.6493
0
VERTEX
8
CUT
10
53.3768
20
102.0367
0
VERTEX
8
CUT
10
55.1352
20
102.0914
0
VERTEX
8
CUT
10
55.5294
20
102.0211
0
VERTEX
8
CUT
10
57.6905
20
101.2862
0
VERTEX
8
CUT
10
57.9706
20
101.6469
0
VERTEX
8
CUT
10
57.7714
20
102.6455
0
VERTEX
8
CUT
10
56.8477
20
104.7644
0
VERTEX
8
CUT
10
55.3651
20
107.2464
0
VERTEX
8
CUT
10
54.4223
20
108.3860
0
VERTEX
8
CUT
10
53.6864
20
108.8771
0
VERTEX
8
CUT
10
53.3033
20
108.7048
0
VERTEX
8
CUT
10
52.1797
20
107.0429
0
VERTEX
8
CUT
10
50.6424
20
106.7566
0
VERTEX
8
CUT
10
49.3777
20
105.4519
0
VERTEX
8
CUT
10
46.4280
20
103.6832
0
VERTEX
8
CUT
10
45.7134
20
102.7411
0
VERTEX
8
CUT
10
45.0647
20
100.7544
0
VERTEX
8
CUT
10
42.6457
20
97.6349
0
VERTEX
8
CUT
10
41.2219
20
95.2722
0
VERTEX
8
CUT
10
38.8431
20
89.9867
0
VERTEX
8
CUT
10
38.0607
20
87.9931
0
VERTEX
8
CUT
10
36.5635
20
82.7570
0
VERTEX
8
CUT
10
36.4622
20
81.4056
0
VERTEX
8
CUT
10
36.5920
20
80.7655
0
VERTEX
8
CUT
10
36.3936
20
80.0873
0
VERTEX
8
CUT
10
35.4317
20
79.4452
0
VERTEX
8
CUT
10
34.0111
20
79.3367
0
VERTEX
8
CUT
10
33.0854
20
79.5587
0
VERTEX
8
CUT
10
32.0001
20
80.3393
0
VERTEX
8
CUT
10
31.1443
20
81.5199
0
VERTEX
8
CUT
10
30.7774
20
83.3835
0
VERTEX
8
CUT
10
30.7722
20
83.5587
0
VERTEX
8
CUT
10
30.7710
20
83.5980
0
VERTEX
8
CUT
10
30.7691
20
83.6615
0
VERTEX
8
CUT
10
30.7660
20
83.7663
0
VERTEX
8
CUT
10
31.0034
20
85.4031
0
VERTEX
8
CUT
10
32.0926
20
89.6681
0
VERTEX
8
CUT
10
32.1192
20
90.0072
0
VERTEX
8
CUT
10
32.1906
20
90.2912
0
VERTEX
8
CUT
10
32.2076
20
91.1337
0
VERTEX
8
CUT
10
32.2176
20
91.2619
0
VERTEX
8
CUT
10
32.2108
20
91.2924
0
VERTEX
8
CUT
10
32.2177
20
91.6350
0
VERTEX
8
CUT
10
31.9244
20
92.5682
0
VERTEX
8
CUT
10
31.8450
20
92.9216
0
VERTEX
8
CUT
10
31.1070
20
93.8553
0
VERTEX
8
CUT
10
27.4212
20
94.0311
0
VERTEX
8
CUT
10
25.5930
20
94.4682
0
VERTEX
8
CUT
10
24.6286
20
94.8507
0
VERTEX
8
CUT
10
23.3714
20
95.7870
0
VERTEX
8
CUT
10
22.7371
20
96.5567
0
VERTEX
8
CUT
10
21.8943
20
98.2696
0
VERTEX
8
CUT
10
21.6805
20
99.2159
0
VERTEX
8
CUT
10
21.7111
20
101.1365
0
VERTEX
8
CUT
10
22.2657
20
103.0076
0
VERTEX
8
CUT
10
23.1349
20
104.5281
0
VERTEX
8
CUT
10
23.8469
20
105.5887
0
VERTEX
8
CUT
10
25.8212
20
108.3447
0
VERTEX
8
CUT
10
26.0702
20
108.9007
0
VERTEX
8
CUT
10
26.1249
20
108.9823
0
VERTEX
8
CUT
10
26.2140
20
109.2220
0
VERTEX
8
CUT
10
26.6591
20
110.2159
0
VERTEX
8
CUT
10
26.7442
20
110.6482
0
VERTEX
8
CUT
10
26.8504
20
110.9341
0
VERTEX
8
CUT
10
26.8712
20
111.2937
0
VERTEX
8
CUT
10
27.0080
20
111.9886
0
VERTEX
8
CUT
10
26.9485
20
112.6296
0
VERTEX
8
CUT
10
26.9494
20
112.6454
0
VERTEX
8
CUT
10
26.9455
20
112.6625
0
VERTEX
8
CUT
10
26.8452
20
113.7424
0
VERTEX
8
CUT
10
26.4932
20
114.6054
0
VERTEX
8
CUT
10
26.4371
20
114.8462
0
VERTEX
8
CUT
10
26.3115
20
115.0508
0
VERTEX
8
CUT
10
26.1483
20
115.4509
0
VERTEX
8
CUT
10
25.5687
20
116.2604
0
VERTEX
8
CUT
10
25.1640
20
116.9195
0
VERTEX
8
CUT
10
24.9347
20
117.1460
0
VERTEX
8
CUT
10
24.9221
20
117.1635
0
VERTEX
8
CUT
10
23.1141
20
118.9696
0
VERTEX
8
CUT
10
19.8628
20
121.5477
0
VERTEX
8
CUT
10
19.5215
20
121.8805
0
VERTEX
8
CUT
10
19.3504
20
122.0474
0
VERTEX
8
CUT
10
19.3119
20
122.0850
0
VERTEX
8
CUT
10
18.9522
20
122.4357
0
VERTEX
8
CUT
10
17.8999
20
123.5277
0
VERTEX
8
CUT
10
17.8342
20
123.6247
0
VERTEX
8
CUT
10
16.6778
20
125.5454
0
VERTEX
8
CUT
10
16.1160
20
127.6278
0
VERTEX
8
CUT
10
16.0798
20
129.6897
0
VERTEX
8
CUT
10
16.6555
20
132.0135
0
VERTEX
8
CUT
10
17.5726
20
133.5422
0
VERTEX
8
CUT
10
20.1764
20
136.7408
0
VERTEX
8
CUT
10
21.1525
20
138.6569
0
VERTEX
8
CUT
10
21.3855
20
140.7013
0
VERTEX
8
CUT
10
21.4116
20
140.9105
0
VERTEX
8
CUT
10
21.4102
20
140.9184
0
VERTEX
8
CUT
10
21.4128
20
140.9406
0
VERTEX
8
CUT
10
21.0022
20
143.6325
0
VERTEX
8
CUT
10
20.4632
20
144.9751
0
VERTEX
8
CUT
10
19.6338
20
146.1094
0
VERTEX
8
CUT
10
19.6259
20
146.1248
0
VERTEX
8
CUT
10
19.6079
20
146.1449
0
VERTEX
8
CUT
10
18.6540
20
147.4495
0
VERTEX
8
CUT
10
17.9854
20
148.0288
0
VERTEX
8
CUT
10
17.9009
20
148.1373
0
VERTEX
8
CUT
10
17.6649
20
148.3155
0
VERTEX
8
CUT
10
17.4418
20
148.5647
0
VERTEX
8
CUT
10
16.9319
20
148.9416
0
VERTEX
8
CUT
10
15.7439
20
149.9708
0
VERTEX
8
CUT
10
9.4808
20
154.5538
0
VERTEX
8
CUT
10
9.3026
20
154.7149
0
VERTEX
8
CUT
10
9.2833
20
154.7323
0
VERTEX
8
CUT
10
9.2679
20
154.7463
0
VERTEX
8
CUT
10
9.2627
20
154.7510
0
VERTEX
8
CUT
10
7.6148
20
156.2502
0
VERTEX
8
CUT
10
5.7863
20
158.1213
0
VERTEX
8
CUT
10
4.9401
20
159.0501
0
VERTEX
8
CUT
10
4.6815
20
159.3840
0
VERTEX
8
CUT
10
3.2307
20
161.5395
0
VERTEX
8
CUT
10
2.6722
20
162.4702
0
VERTEX
8
CUT
10
1.0602
20
165.9754
0
VERTEX
8
CUT
10
0.2192
20
169.4560
0
VERTEX
8
CUT
10
0.2110
20
169.5428
0
VERTEX
8
CUT
10
0.1976
20
169.6847
0
VERTEX
8
CUT
10
0.1852
20
169.8162
0
VERTEX
8
CUT
10
0.1644
20
170.0353
0
VERTEX
8
CUT
10
0.1706
20
173.1971
0
VERTEX
8
CUT
10
0.5366
20
174.8548
0
VERTEX
8
CUT
10
1.5279
20
177.2370
0
VERTEX
8
CUT
10
2.8085
20
178.9348
0
VERTEX
8
CUT
10
2.9462
20
179.0853
0
VERTEX
8
CUT
10
2.9570
20
179.0972
0
VERTEX
8
CUT
10
2.9671
20
179.1082
0
VERTEX
8
CUT
10
2.9907
20
179.1340
0
VERTEX
8
CUT
10
3.6888
20
179.6269
0
VERTEX
8
CUT
10
4.0689
20
179.8407
0
VERTEX
8
CUT
10
4.1198
20
179.8693
0
VERTEX
8
CUT
10
4.6286
20
180.1555
0
VERTEX
8
CUT
10
5.3520
20
180.5624
0
VERTEX
8
CUT
10
6.1987
20
180.8330
0
VERTEX
8
CUT
10
7.0227
20
181.0010
0
VERTEX
8
CUT
10
8.8619
20
181.0306
0
VERTEX
8
CUT
10
11.2209
20
180.4090
0
VERTEX
8
CUT
10
13.5684
20
179.1839
0
VERTEX
8
CUT
10
16.3675
20
176.8200
0
VERTEX
8
CUT
10
25.2459
20
166.3922
0
VERTEX
8
CUT
10
29.9938
20
161.5455
0
VERTEX
8
CUT
10
33.0573
20
159.0419
0
VERTEX
8
CUT
10
36.5326
20
156.7151
0
VERTEX
8
CUT
10
39.2881
20
155.2517
0
VERTEX
8
CUT
10
39.8436
20
154.8923
0
VERTEX
8
CUT
10
42.7428
20
153.6073
0
VERTEX
8
CUT
10
45.7409
20
152.7178
0
VERTEX
8
CUT
10
46.0054
20
152.9658
0
VERTEX
8
CUT
10
48.7381
20
152.3651
0
VERTEX
8
CUT
10
55.8071
20
151.1757
0
VERTEX
8
CUT
10
55.8884
20
151.1034
0
VERTEX
8
CUT
10
56.5849
20
151.0228
0
VERTEX
8
CUT
10
59.5765
20
150.1502
0
VERTEX
8
CUT
10
61.9896
20
148.9511
0
VERTEX
8
CUT
10
62.3442
20
149.0482
0
VERTEX
8
CUT
10
62.4602
20
149.3971
0
VERTEX
8
CUT
10
61.8057
20
150.6285
0
VERTEX
8
CUT
10
60.1498
20
152.5086
0
VERTEX
8
CUT
10
58.0446
20
153.9725
0
VERTEX
8
CUT
10
56.8419
20
154.5602
0
VERTEX
8
CUT
10
54.0095
20
155.5156
0
VERTEX
8
CUT
10
47.9967
20
156.5339
0
VERTEX
8
CUT
10
43.2850
20
157.9430
0
VERTEX
8
CUT
10
40.9643
20
158.0538
0
VERTEX
8
CUT
10
40.2893
20
158.4993
0
VERTEX
8
CUT
10
38.9812
20
160.1040
0
VERTEX
8
CUT
10
36.1699
20
162.0532
0
VERTEX
8
CUT
10
35.7416
20
162.1942
0
VERTEX
8
CUT
10
34.5186
20
162.1298
0
VERTEX
8
CUT
10
33.9532
20
162.3339
0
VERTEX
8
CUT
10
33.4159
20
163.0035
0
VERTEX
8
CUT
10
33.2709
20
164.5628
0
VERTEX
8
CUT
10
31.8383
20
165.0518
0
VERTEX
8
CUT
10
30.3083
20
165.9166
0
VERTEX
8
CUT
10
28.6761
20
167.7710
0
VERTEX
8
CUT
10
25.8603
20
170.3579
0
VERTEX
8
CUT
10
22.4039
20
174.6011
0
VERTEX
8
CUT
10
20.1044
20
177.1055
0
VERTEX
8
CUT
10
18.3467
20
179.8561
0
VERTEX
8
CUT
10
17.1421
20
181.2465
0
VERTEX
8
CUT
10
13.8735
20
183.9909
0
VERTEX
8
CUT
10
12.2357
20
185.0167
0
VERTEX
8
CUT
10
11.0805
20
185.2869
0
VERTEX
8
CUT
10
8.6691
20
185.1165
0
VERTEX
8
CUT
10
6.6528
20
188.9958
0
VERTEX
8
CUT
10
6.3647
20
189.7111
0
VERTEX
8
CUT
10
5.0418
20
193.8397
0
VERTEX
8
CUT
10
4.3180
20
198.6436
0
VERTEX
8
CUT
10
4.2498
20
201.0346
0
VERTEX
8
CUT
10
4.7537
20
205.5630
0
VERTEX
8
CUT
10
5.4845
20
207.9834
0
VERTEX
8
CUT
10
6.4822
20
210.3422
0
VERTEX
8
CUT
10
7.6729
20
212.4259
0
VERTEX
8
CUT
10
8.9913
20
214.1149
0
VERTEX
8
CUT
10
10.7367
20
215.5569
0
VERTEX
8
CUT
10
12.6217
20
216.4999
0
VERTEX
8
CUT
10
14.6419
20
217.0382
0
VERTEX
8
CUT
10
16.6328
20
217.1057
0
VERTEX
8
CUT
10
18.5584
20
216.7338
0
VERTEX
8
CUT
10
20.3472
20
215.9009
0
VERTEX
8
CUT
10
21.8688
20
214.6354
0
VERTEX
8
CUT
10
23.0038
20
212.9599
0
VERTEX
8
CUT
10
23.3482
20
211.8700
0
VERTEX
8
CUT
10
22.9233
20
211.3336
0
VERTEX
8
CUT
10
19.9882
20
210.6604
0
VERTEX
8
CUT
10
18.0095
20
209.6544
0
VERTEX
8
CUT
10
16.6175
20
208.4968
0
VERTEX
8
CUT
10
14.7384
20
206.3871
0
VERTEX
8
CUT
10
14.2256
20
205.0953
0
VERTEX
8
CUT
10
14.1578
20
203.1345
0
VERTEX
8
CUT
10
14.2575
20
200.4947
0
VERTEX
8
CUT
10
14.6345
20
198.5471
0
VERTEX
8
CUT
10
14.9964
20
198.3689
0
VERTEX
8
CUT
10
15.3353
20
198.6430
0
VERTEX
8
CUT
10
15.2605
20
202.4551
0
VERTEX
8
CUT
10
15.8954
20
204.1624
0
VERTEX
8
CUT
10
16.7674
20
205.4176
0
VERTEX
8
CUT
10
17.9328
20
206.3405
0
VERTEX
8
CUT
10
19.3325
20
206.9528
0
VERTEX
8
CUT
10
20.9500
20
207.2221
0
VERTEX
8
CUT
10
22.7874
20
207.1858
0
VERTEX
8
CUT
10
24.7273
20
206.8483
0
SEQEND
0
POLYLINE
8
CUT
66
1
70
1
10
0.0
20
0.0
30
0.0
0
VERTEX
8
CUT
10
241.9587
20
219.8922
0
VERTEX
8
CUT
10
242.0527
20
219.8210
0
VERTEX
8
CUT
10
242.1017
20
219.7756
0
VERTEX
8
CUT
10
242.6829
20
220.4726
0
VERTEX
8
CUT
10
243.3332
20
221.5808
0
VERTEX
8
CUT
10
243.3127
20
221.5853
0
VERTEX
8
CUT
10
243.2004
20
221.6218
0
VERTEX
8
CUT
10
243.0922
20
221.6693
0
VERTEX
8
CUT
10
242.9892
20
221.7271
0
VERTEX
8
CUT
10
242.8924
20
221.7948
0
VERTEX
8
CUT
10
242.8027
20
221.8717
0
VERTEX
8
CUT
10
242.7210
20
221.9570
0
VERTEX
8
CUT
10
242.6481
20
222.0499
0
VERTEX
8
CUT
10
242.5847
20
222.1496
0
VERTEX
8
CUT
10
242.5448
20
222.2196
0
VERTEX
8
CUT
10
242.2194
20
221.8324
0
VERTEX
8
CUT
10
241.2048
20
220.1021
0
VERTEX
8
CUT
10
241.2932
20
220.1013
0
VERTEX
8
CUT
10
241.4109
20
220.0944
0
VERTEX
8
CUT
10
241.5273
20
220.0759
0
VERTEX
8
CUT
10
241.6414
20
220.0462
0
VERTEX
8
CUT
10
241.7521
20
220.0053
0
VERTEX
8
CUT
10
241.8582
20
219.9538
0
SEQEND
0
POLYLINE
8
CUT
66
1
70
1
10
0.0
20
0.0
30
0.0
0
VERTEX
8
CUT
10
227.8299
20
152.7597
0
VERTEX
8
CUT
10
229.2092
20
151.4950
0
VERTEX
8
CUT
10
230.7019
20
150.8201
0
VERTEX
8
CUT
10
232.2987
20
150.6213
0
VERTEX
8
CUT
10
238.8552
20
150.7852
0
VERTEX
8
CUT
10
240.4634
20
150.3042
0
VERTEX
8
CUT
10
240.8372
20
150.4360
0
VERTEX
8
CUT
10
241.9813
20
152.1270
0
VERTEX
8
CUT
10
242.0008
20
152.6150
0
VERTEX
8
CUT
10
239.2379
20
154.1087
0
VERTEX
8
CUT
10
237.4692
20
154.5211
0
VERTEX
8
CUT
10
230.6129
20
154.9800
0
VERTEX
8
CUT
10
229.6319
20
155.2595
0
VERTEX
8
CUT
10
227.7850
20
156.1797
0
VERTEX
8
CUT
10
227.4598
20
156.1085
0
VERTEX
8
CUT
10
227.2068
20
155.7532
0
VERTEX
8
CUT
10
227.1581
20
154.2791
0
SEQEND
0
POLYLINE
8
CUT
66
1
70
1
10
0.0
20
0.0
30
0.0
0
VERTEX
8
CUT
10
207.7950
20
109.1582
0
VERTEX
8
CUT
10
207.8793
20
109.1397
0
VERTEX
8
CUT
10
208.0839
20
109.0395
0
VERTEX
8
CUT
10
209.8771
20
108.5812
0
VERTEX
8
CUT
10
210.5831
20
108.5454
0
VERTEX
8
CUT
10
210.7005
20
108.5196
0
VERTEX
8
CUT
10
211.0921
20
108.5108
0
VERTEX
8
CUT
10
211.0985
20
108.5038
0
VERTEX
8
CUT
10
211.9880
20
108.2403
0
VERTEX
8
CUT
10
212.9105
20
108.3721
0
VERTEX
8
CUT
10
213.0281
20
108.4676
0
VERTEX
8
CUT
10
213.6793
20
108.4531
0
VERTEX
8
CUT
10
215.0952
20
108.8094
0
VERTEX
8
CUT
10
217.5014
20
110.1913
0
VERTEX
8
CUT
10
219.0323
20
111.3663
0
VERTEX
8
CUT
10
219.7808
20
111.8762
0
VERTEX
8
CUT
10
223.0318
20
114.4362
0
VERTEX
8
CUT
10
225.0029
20
115.9491
0
VERTEX
8
CUT
10
227.3902
20
117.5087
0
VERTEX
8
CUT
10
229.9044
20
118.7495
0
VERTEX
8
CUT
10
234.2240
20
120.3218
0
VERTEX
8
CUT
10
234.4411
20
120.6949
0
VERTEX
8
CUT
10
234.0690
20
121.0607
0
VERTEX
8
CUT
10
230.4139
20
120.6160
0
VERTEX
8
CUT
10
226.7806
20
121.3756
0
VERTEX
8
CUT
10
222.6226
20
121.3940
0
VERTEX
8
CUT
10
222.6503
20
127.5501
0
VERTEX
8
CUT
10
222.4201
20
131.0228
0
VERTEX
8
CUT
10
221.8935
20
133.9688
0
VERTEX
8
CUT
10
221.1021
20
136.1238
0
VERTEX
8
CUT
10
220.6324
20
136.9144
0
VERTEX
8
CUT
10
218.3415
20
138.9604
0
VERTEX
8
CUT
10
215.9735
20
140.2089
0
VERTEX
8
CUT
10
213.8416
20
140.7831
0
VERTEX
8
CUT
10
210.5300
20
140.9092
0
VERTEX
8
CUT
10
207.1741
20
140.4498
0
VERTEX
8
CUT
10
207.0520
20
140.4108
0
VERTEX
8
CUT
10
206.7825
20
140.3959
0
VERTEX
8
CUT
10
204.9046
20
139.8687
0
VERTEX
8
CUT
10
204.5092
20
139.6711
0
VERTEX
8
CUT
10
204.1468
20
139.1769
0
VERTEX
8
CUT
10
204.4763
20
138.8803
0
VERTEX
8
CUT
10
205.5573
20
139.1557
0
VERTEX
8
CUT
10
205.5800
20
139.1390
0
VERTEX
8
CUT
10
208.0779
20
139.6486
0
VERTEX
8
CUT
10
210.2616
20
139.6830
0
VERTEX
8
CUT
10
212.3804
20
139.2775
0
VERTEX
8
CUT
10
214.2671
20
138.4356
0
VERTEX
8
CUT
10
215.9576
20
137.2112
0
VERTEX
8
CUT
10
217.4431
20
135.5556
0
VERTEX
8
CUT
10
218.6333
20
133.6027
0
VERTEX
8
CUT
10
219.5261
20
131.2914
0
VERTEX
8
CUT
10
220.1353
20
127.8449
0
VERTEX
8
CUT
10
219.9731
20
124.1438
0
VERTEX
8
CUT
10
219.6419
20
122.3454
0
VERTEX
8
CUT
10
218.4573
20
118.9986
0
VERTEX
8
CUT
10
217.1487
20
116.9927
0
VERTEX
8
CUT
10
215.3600
20
115.8205
0
VERTEX
8
CUT
10
212.3046
20
114.9492
0
VERTEX
8
CUT
10
211.4348
20
115.0691
0
VERTEX
8
CUT
10
210.6720
20
115.6208
0
VERTEX
8
CUT
10
210.4622
20
116.1250
0
VERTEX
8
CUT
10
210.4930
20
116.7792
0
VERTEX
8
CUT
10
211.3139
20
120.6327
0
VERTEX
8
CUT
10
211.4801
20
122.8862
0
VERTEX
8
CUT
10
211.2252
20
126.3921
0
VERTEX
8
CUT
10
211.2210
20
126.6076
0
VERTEX
8
CUT
10
211.2022
20
126.7082
0
VERTEX
8
CUT
10
211.1570
20
127.3301
0
VERTEX
8
CUT
10
210.7370
20
129.3087
0
VERTEX
8
CUT
10
210.2206
20
130.7431
0
VERTEX
8
CUT
10
210.1950
20
130.8265
0
VERTEX
8
CUT
10
210.1811
20
130.8529
0
VERTEX
8
CUT
10
210.0996
20
131.0795
0
VERTEX
8
CUT
10
209.7177
20
131.7326
0
VERTEX
8
CUT
10
209.3960
20
132.3433
0
VERTEX
8
CUT
10
209.3109
20
132.4283
0
VERTEX
8
CUT
10
209.3098
20
132.4303
0
VERTEX
8
CUT
10
209.2992
20
132.4401
0
VERTEX
8
CUT
10
208.4510
20
133.2879
0
VERTEX
8
CUT
10
208.3137
20
133.3508
0
VERTEX
8
CUT
10
208.2154
20
133.4416
0
VERTEX
8
CUT
10
207.8154
20
133.5789
0
VERTEX
8
CUT
10
207.7838
20
133.5934
0
VERTEX
8
CUT
10
207.7791
20
133.5914
0
VERTEX
8
CUT
10
207.6991
20
133.6188
0
VERTEX
8
CUT
10
207.5262
20
133.4854
0
VERTEX
8
CUT
10
207.0705
20
133.2945
0
VERTEX
8
CUT
10
206.3559
20
132.6481
0
VERTEX
8
CUT
10
206.2304
20
132.4859
0
VERTEX
8
CUT
10
206.2246
20
132.4814
0
VERTEX
8
CUT
10
206.2102
20
132.4598
0
VERTEX
8
CUT
10
205.6918
20
131.7897
0
VERTEX
8
CUT
10
205.3615
20
131.1851
0
VERTEX
8
CUT
10
204.8363
20
130.3963
0
VERTEX
8
CUT
10
204.1787
20
129.0203
0
VERTEX
8
CUT
10
203.1272
20
126.0937
0
VERTEX
8
CUT
10
202.6496
20
123.0834
0
VERTEX
8
CUT
10
202.5508
20
122.5459
0
VERTEX
8
CUT
10
202.8760
20
122.0867
0
VERTEX
8
CUT
10
203.7812
20
122.3486
0
VERTEX
8
CUT
10
204.7445
20
122.4831
0
VERTEX
8
CUT
10
204.9235
20
122.4839
0
VERTEX
8
CUT
10
205.4053
20
122.2676
0
VERTEX
8
CUT
10
206.1433
20
121.8268
0
VERTEX
8
CUT
10
206.7765
20
120.9781
0
VERTEX
8
CUT
10
207.2171
20
119.9504
0
VERTEX
8
CUT
10
207.2858
20
119.3728
0
VERTEX
8
CUT
10
207.0593
20
118.3093
0
VERTEX
8
CUT
10
206.4144
20
117.3288
0
VERTEX
8
CUT
10
205.5964
20
116.6099
0
VERTEX
8
CUT
10
205.0841
20
116.3389
0
VERTEX
8
CUT
10
204.1571
20
116.2671
0
VERTEX
8
CUT
10
203.1243
20
116.5743
0
VERTEX
8
CUT
10
201.6012
20
117.4509
0
VERTEX
8
CUT
10
200.2023
20
117.7038
0
VERTEX
8
CUT
10
199.1977
20
118.3097
0
VERTEX
8
CUT
10
198.8050
20
118.2684
0
VERTEX
8
CUT
10
198.6567
20
117.8681
0
VERTEX
8
CUT
10
199.7847
20
115.6228
0
VERTEX
8
CUT
10
201.4829
20
113.3753
0
VERTEX
8
CUT
10
201.5543
20
113.3110
0
VERTEX
8
CUT
10
201.6495
20
113.1810
0
VERTEX
8
CUT
10
203.2021
20
111.7903
0
VERTEX
8
CUT
10
203.3655
20
111.6797
0
VERTEX
8
CUT
10
203.8252
20
111.2656
0
VERTEX
8
CUT
10
206.3919
20
109.7253
0
SEQEND
0
POLYLINE
8
CUT
66
1
70
1
10
0.0
20
0.0
30
0.0
0
VERTEX
8
CUT
10
219.2990
20
44.0958
0
VERTEX
8
CUT
10
221.0616
20
42.6586
0
VERTEX
8
CUT
10
223.7474
20
40.9200
0
VERTEX
8
CUT
10
226.0700
20
39.7877
0
VERTEX
8
CUT
10
227.1247
20
39.5687
0
VERTEX
8
CUT
10
228.0628
20
40.0412
0
VERTEX
8
CUT
10
228.7806
20
41.1105
0
VERTEX
8
CUT
10
228.9740
20
41.7443
0
VERTEX
8
CUT
10
228.9172
20
42.3123
0
VERTEX
8
CUT
10
228.0972
20
44.7835
0
VERTEX
8
CUT
10
227.0996
20
46.7457
0
VERTEX
8
CUT
10
226.5560
20
46.7777
0
VERTEX
8
CUT
10
224.6770
20
45.1487
0
VERTEX
8
CUT
10
223.3546
20
45.3116
0
VERTEX
8
CUT
10
220.5130
20
47.0672
0
VERTEX
8
CUT
10
216.9103
20
50.2084
0
VERTEX
8
CUT
10
212.8483
20
54.4363
0
VERTEX
8
CUT
10
206.7499
20
61.8533
0
VERTEX
8
CUT
10
199.8916
20
71.3160
0
VERTEX
8
CUT
10
198.1026
20
74.4467
0
VERTEX
8
CUT
10
197.7448
20
74.5337
0
VERTEX
8
CUT
10
197.4312
20
74.2779
0
VERTEX
8
CUT
10
196.4870
20
72.3013
0
VERTEX
8
CUT
10
196.1541
20
70.0953
0
VERTEX
8
CUT
10
196.2899
20
69.3481
0
VERTEX
8
CUT
10
206.3785
20
57.4784
0
VERTEX
8
CUT
10
209.9365
20
53.6250
0
VERTEX
8
CUT
10
211.5761
20
51.7874
0
VERTEX
8
CUT
10
212.6891
20
50.6437
0
VERTEX
8
CUT
10
214.7026
20
48.4630
0
SEQEND
0
POLYLINE
8
CUT
66
1
70
1
10
0.0
20
0.0
30
0.0
0
VERTEX
8
CUT
10
208.7068
20
248.1731
0
VERTEX
8
CUT
10
207.6231
20
249.2325
0
VERTEX
8
CUT
10
204.7150
20
251.2668
0
VERTEX
8
CUT
10
203.4806
20
251.6094
0
VERTEX
8
CUT
10
200.3488
20
251.8548
0
VERTEX
8
CUT
10
199.0605
20
252.3672
0
VERTEX
8
CUT
10
196.8143
20
253.8248
0
VERTEX
8
CUT
10
196.3607
20
253.7203
0
VERTEX
8
CUT
10
196.3535
20
253.2247
0
VERTEX
8
CUT
10
198.1061
20
251.2732
0
VERTEX
8
CUT
10
199.8004
20
250.0161
0
VERTEX
8
CUT
10
200.8478
20
249.8259
0
VERTEX
8
CUT
10
203.1974
20
250.0204
0
VERTEX
8
CUT
10
204.4542
20
249.8841
0
VERTEX
8
CUT
10
206.2088
20
249.0286
0
VERTEX
8
CUT
10
208.2271
20
247.5819
0
VERTEX
8
CUT
10
208.7467
20
247.7471
0
SEQEND
0
POLYLINE
8
CUT
66
1
70
1
10
0.0
20
0.0
30
0.0
0
VERTEX
8
CUT
10
203.4238
20
151.9626
0
VERTEX
8
CUT
10
204.0751
20
151.4103
0
VERTEX
8
CUT
10
204.1218
20
151.4030
0
VERTEX
8
CUT
10
204.1409
20
151.3863
0
VERTEX
8
CUT
10
204.3670
20
151.3647
0
VERTEX
8
CUT
10
204.6416
20
151.3218
0
VERTEX
8
CUT
10
206.6369
20
152.5885
0
VERTEX
8
CUT
10
206.7685
20
153.0392
0
VERTEX
8
CUT
10
206.0017
20
153.8960
0
VERTEX
8
CUT
10
203.4171
20
155.9849
0
VERTEX
8
CUT
10
202.4643
20
157.2439
0
VERTEX
8
CUT
10
201.9871
20
157.3982
0
VERTEX
8
CUT
10
201.7226
20
156.9482
0
VERTEX
8
CUT
10
201.7557
20
156.6943
0
VERTEX
8
CUT
10
201.7234
20
156.5942
0
VERTEX
8
CUT
10
201.9000
20
155.5905
0
VERTEX
8
CUT
10
202.0858
20
154.1686
0
VERTEX
8
CUT
10
202.5644
20
153.0987
0
VERTEX
8
CUT
10
203.2684
20
152.1681
0
VERTEX
8
CUT
10
203.2940
20
152.1245
0
VERTEX
8
CUT
10
203.3155
20
152.1058
0
SEQEND
0
POLYLINE
8
CUT
66
1
70
1
10
0.0
20
0.0
30
0.0
0
VERTEX
8
CUT
10
188.5315
20
150.5685
0
VERTEX
8
CUT
10
189.6007
20
150.3218
0
VERTEX
8
CUT
10
189.6732
20
150.3275
0
VERTEX
8
CUT
10
189.8067
20
150.2990
0
VERTEX
8
CUT
10
190.0398
20
150.3563
0
VERTEX
8
CUT
10
190.3763
20
150.3827
0
VERTEX
8
CUT
10
190.5329
20
150.4773
0
VERTEX
8
CUT
10
190.6433
20
150.5045
0
VERTEX
8
CUT
10
190.7689
20
150.6201
0
VERTEX
8
CUT
10
191.5433
20
151.0885
0
VERTEX
8
CUT
10
191.8660
20
151.6304
0
VERTEX
8
CUT
10
191.8952
20
151.6573
0
VERTEX
8
CUT
10
191.9274
20
151.7336
0
VERTEX
8
CUT
10
192.3398
20
152.4261
0
VERTEX
8
CUT
10
192.5352
20
153.5796
0
VERTEX
8
CUT
10
192.1788
20
155.4029
0
VERTEX
8
CUT
10
191.0679
20
157.7230
0
VERTEX
8
CUT
10
190.6470
20
158.2257
0
VERTEX
8
CUT
10
190.2735
20
158.2715
0
VERTEX
8
CUT
10
189.0195
20
156.5689
0
VERTEX
8
CUT
10
187.9982
20
155.7134
0
VERTEX
8
CUT
10
181.3040
20
152.6245
0
VERTEX
8
CUT
10
180.0118
20
151.7793
0
VERTEX
8
CUT
10
179.3379
20
150.8846
0
VERTEX
8
CUT
10
179.4117
20
150.7871
0
VERTEX
8
CUT
10
179.4013
20
150.7694
0
VERTEX
8
CUT
10
179.6761
20
150.3734
0
VERTEX
8
CUT
10
179.7313
20
150.3646
0
VERTEX
8
CUT
10
179.7847
20
150.2940
0
VERTEX
8
CUT
10
180.3782
20
150.1361
0
VERTEX
8
CUT
10
183.1191
20
151.8114
0
VERTEX
8
CUT
10
184.3669
20
152.0701
0
VERTEX
8
CUT
10
185.5836
20
151.8931
0
VERTEX
8
CUT
10
185.6508
20
151.8732
0
SEQEND
0
POLYLINE
8
CUT
66
1
70
1
10
0.0
20
0.0
30
0.0
0
VERTEX
8
CUT
10
163.3705
20
220.6281
0
VERTEX
8
CUT
10
162.4988
20
219.6744
0
VERTEX
8
CUT
10
162.4178
20
219.1256
0
VERTEX
8
CUT
10
162.6401
20
218.4496
0
VERTEX
8
CUT
10
163.2364
20
217.6132
0
VERTEX
8
CUT
10
164.1390
20
216.8921
0
VERTEX
8
CUT
10
168.1551
20
215.8487
0
VERTEX
8
CUT
10
171.1691
20
214.8231
0
VERTEX
8
CUT
10
173.9563
20
214.2276
0
VERTEX
8
CUT
10
174.6365
20
214.6359
0
VERTEX
8
CUT
10
175.6749
20
215.7700
0
VERTEX
8
CUT
10
176.0724
20
216.5069
0
VERTEX
8
CUT
10
175.8711
20
216.9209
0
VERTEX
8
CUT
10
173.6473
20
217.6630
0
VERTEX
8
CUT
10
170.0346
20
219.3158
0
VERTEX
8
CUT
10
168.2127
20
218.5794
0
VERTEX
8
CUT
10
167.6612
20
218.6363
0
VERTEX
8
CUT
10
165.5424
20
220.2179
0
VERTEX
8
CUT
10
164.0391
20
220.7990
0
SEQEND
0
POLYLINE
8
CUT
66
1
70
1
10
0.0
20
0.0
30
0.0
0
VERTEX
8
CUT
10
142.1926
20
192.7884
0
VERTEX
8
CUT
10
143.3067
20
191.5803
0
VERTEX
8
CUT
10
144.7863
20
190.7100
0
VERTEX
8
CUT
10
145.4867
20
190.6851
0
VERTEX
8
CUT
10
148.2987
20
191.3398
0
VERTEX
8
CUT
10
151.8436
20
191.6388
0
VERTEX
8
CUT
10
158.1930
20
191.6030
0
VERTEX
8
CUT
10
162.5129
20
190.7784
0
VERTEX
8
CUT
10
165.8965
20
189.8167
0
VERTEX
8
CUT
10
169.4061
20
188.6241
0
VERTEX
8
CUT
10
175.0287
20
186.1827
0
VERTEX
8
CUT
10
175.4797
20
186.3801
0
VERTEX
8
CUT
10
175.3464
20
186.8840
0
VERTEX
8
CUT
10
166.8598
20
191.5036
0
VERTEX
8
CUT
10
163.0311
20
193.3499
0
VERTEX
8
CUT
10
159.8116
20
194.3157
0
VERTEX
8
CUT
10
156.0899
20
194.7459
0
VERTEX
8
CUT
10
149.2294
20
194.8767
0
VERTEX
8
CUT
10
144.8788
20
194.2206
0
VERTEX
8
CUT
10
142.2698
20
193.5497
0
VERTEX
8
CUT
10
142.0221
20
193.2719
0
SEQEND
0
POLYLINE
8
CUT
66
1
70
1
10
0.0
20
0.0
30
0.0
0
VERTEX
8
CUT
10
122.7369
20
104.5525
0
VERTEX
8
CUT
10
125.0455
20
103.7606
0
VERTEX
8
CUT
10
127.4058
20
103.2110
0
VERTEX
8
CUT
10
128.5733
20
103.0784
0
VERTEX
8
CUT
10
128.5830
20
103.0762
0
VERTEX
8
CUT
10
128.6155
20
103.0736
0
VERTEX
8
CUT
10
130.3058
20
102.8816
0
VERTEX
8
CUT
10
130.8208
20
102.8931
0
VERTEX
8
CUT
10
131.3568
20
102.8492
0
VERTEX
8
CUT
10
134.0998
20
102.9163
0
VERTEX
8
CUT
10
134.4843
20
102.9743
0
VERTEX
8
CUT
10
134.6926
20
102.9790
0
VERTEX
8
CUT
10
135.4977
20
103.1273
0
VERTEX
8
CUT
10
136.7104
20
103.3104
0
VERTEX
8
CUT
10
136.9987
20
103.4039
0
VERTEX
8
CUT
10
137.3270
20
103.4644
0
VERTEX
8
CUT
10
140.0454
20
104.3282
0
VERTEX
8
CUT
10
142.5899
20
105.5060
0
VERTEX
8
CUT
10
144.9383
20
106.9781
0
VERTEX
8
CUT
10
147.1201
20
108.8049
0
VERTEX
8
CUT
10
147.7856
20
109.5026
0
VERTEX
8
CUT
10
148.5954
20
110.2143
0
VERTEX
8
CUT
10
149.8258
20
111.6752
0
VERTEX
8
CUT
10
150.4980
20
112.6840
0
VERTEX
8
CUT
10
151.0402
20
113.3852
0
VERTEX
8
CUT
10
151.9552
20
114.8712
0
VERTEX
8
CUT
10
152.3099
20
115.4034
0
VERTEX
8
CUT
10
152.4538
20
115.6809
0
VERTEX
8
CUT
10
152.7723
20
116.1980
0
VERTEX
8
CUT
10
153.7992
20
118.2733
0
VERTEX
8
CUT
10
154.0321
20
118.7222
0
VERTEX
8
CUT
10
154.0254
20
118.7305
0
VERTEX
8
CUT
10
158.9778
20
128.7388
0
VERTEX
8
CUT
10
159.7352
20
129.6224
0
VERTEX
8
CUT
10
161.0201
20
131.5333
0
VERTEX
8
CUT
10
161.0218
20
131.5370
0
VERTEX
8
CUT
10
161.8347
20
132.6104
0
VERTEX
8
CUT
10
162.1015
20
133.5121
0
VERTEX
8
CUT
10
162.3240
20
136.0482
0
VERTEX
8
CUT
10
162.0061
20
138.0135
0
VERTEX
8
CUT
10
161.2412
20
139.0873
0
VERTEX
8
CUT
10
160.5428
20
139.4370
0
VERTEX
8
CUT
10
158.8234
20
139.4966
0
VERTEX
8
CUT
10
157.3120
20
139.1469
0
VERTEX
8
CUT
10
156.0190
20
138.5980
0
VERTEX
8
CUT
10
155.1338
20
137.8700
0
VERTEX
8
CUT
10
154.2342
20
136.0828
0
VERTEX
8
CUT
10
153.4026
20
135.1870
0
VERTEX
8
CUT
10
151.1550
20
134.3229
0
VERTEX
8
CUT
10
148.9776
20
134.6900
0
VERTEX
8
CUT
10
143.7563
20
136.3739
0
VERTEX
8
CUT
10
140.9456
20
136.9614
0
VERTEX
8
CUT
10
138.2937
20
137.2528
0
VERTEX
8
CUT
10
132.8980
20
136.8898
0
VERTEX
8
CUT
10
130.2495
20
136.3317
0
VERTEX
8
CUT
10
127.7357
20
135.5137
0
VERTEX
8
CUT
10
125.3163
20
134.4654
0
VERTEX
8
CUT
10
122.9965
20
133.1767
0
VERTEX
8
CUT
10
120.7362
20
131.6066
0
VERTEX
8
CUT
10
118.5500
20
129.7850
0
VERTEX
8
CUT
10
115.5170
20
126.6867
0
VERTEX
8
CUT
10
114.0872
20
124.9011
0
VERTEX
8
CUT
10
113.1166
20
123.2231
0
VERTEX
8
CUT
10
111.3695
20
118.0854
0
VERTEX
8
CUT
10
110.4802
20
116.3471
0
VERTEX
8
CUT
10
109.2524
20
115.9781
0
VERTEX
8
CUT
10
106.3609
20
115.6762
0
VERTEX
8
CUT
10
103.5840
20
114.8906
0
VERTEX
8
CUT
10
100.9083
20
114.4688
0
VERTEX
8
CUT
10
99.9260
20
114.0310
0
VERTEX
8
CUT
10
98.2615
20
112.8674
0
VERTEX
8
CUT
10
97.1464
20
112.6026
0
VERTEX
8
CUT
10
96.8631
20
112.3721
0
VERTEX
8
CUT
10
96.9174
20
111.9775
0
VERTEX
8
CUT
10
98.3391
20
111.1263
0
VERTEX
8
CUT
10
104.8715
20
111.6116
0
VERTEX
8
CUT
10
106.6434
20
111.4752
0
VERTEX
8
CUT
10
109.8137
20
110.6900
0
VERTEX
8
CUT
10
110.8300
20
110.2832
0
VERTEX
8
CUT
10
110.9418
20
110.2384
0
VERTEX
8
CUT
10
110.9501
20
110.2351
0
VERTEX
8
CUT
10
112.7372
20
109.5198
0
VERTEX
8
CUT
10
118.9156
20
106.2835
0
SEQEND
0
POLYLINE
8
CUT
66
1
70
1
10
0.0
20
0.0
30
0.0
0
VERTEX
8
CUT
10
139.8531
20
204.4555
0
VERTEX
8
CUT
10
139.7259
20
206.6108
0
VERTEX
8
CUT
10
140.0825
20
208.1738
0
VERTEX
8
CUT
10
141.1184
20
209.6461
0
VERTEX
8
CUT
10
143.0008
20
211.0868
0
VERTEX
8
CUT
10
145.6321
20
211.9893
0
VERTEX
8
CUT
10
147.2414
20
212.2639
0
VERTEX
8
CUT
10
148.9748
20
212.3955
0
VERTEX
8
CUT
10
154.7210
20
212.0342
0
VERTEX
8
CUT
10
155.9208
20
212.1362
0
VERTEX
8
CUT
10
156.3769
20
212.4397
0
VERTEX
8
CUT
10
156.7737
20
213.8805
0
VERTEX
8
CUT
10
157.5114
20
214.8379
0
VERTEX
8
CUT
10
158.5577
20
215.6703
0
VERTEX
8
CUT
10
160.6669
20
216.7101
0
VERTEX
8
CUT
10
161.0290
20
217.1853
0
VERTEX
8
CUT
10
160.5329
20
217.7413
0
VERTEX
8
CUT
10
159.4163
20
217.8458
0
VERTEX
8
CUT
10
156.1884
20
216.8896
0
VERTEX
8
CUT
10
148.2506
20
216.5221
0
VERTEX
8
CUT
10
144.2177
20
215.3760
0
VERTEX
8
CUT
10
141.8474
20
213.9672
0
VERTEX
8
CUT
10
139.8979
20
212.2463
0
VERTEX
8
CUT
10
138.9519
20
210.5450
0
VERTEX
8
CUT
10
138.5051
20
207.9687
0
VERTEX
8
CUT
10
137.8726
20
207.2242
0
VERTEX
8
CUT
10
137.2932
20
207.0346
0
VERTEX
8
CUT
10
135.2579
20
207.7498
0
VERTEX
8
CUT
10
131.6129
20
209.7991
0
VERTEX
8
CUT
10
130.3269
20
211.3121
0
VERTEX
8
CUT
10
128.8980
20
212.5492
0
VERTEX
8
CUT
10
125.8296
20
216.3703
0
VERTEX
8
CUT
10
124.3969
20
217.7023
0
VERTEX
8
CUT
10
123.9096
20
217.5842
0
VERTEX
8
CUT
10
123.8946
20
216.9573
0
VERTEX
8
CUT
10
125.2974
20
212.4467
0
VERTEX
8
CUT
10
126.8062
20
209.5768
0
VERTEX
8
CUT
10
127.8225
20
208.4535
0
VERTEX
8
CUT
10
129.0399
20
207.5032
0
VERTEX
8
CUT
10
132.3501
20
205.8523
0
VERTEX
8
CUT
10
135.5557
20
204.7746
0
VERTEX
8
CUT
10
138.5427
20
204.2909
0
VERTEX
8
CUT
10
139.5722
20
204.2926
0
SEQEND
0
POLYLINE
8
CUT
66
1
70
1
10
0.0
20
0.0
30
0.0
0
VERTEX
8
CUT
10
146.2931
20
235.0506
0
VERTEX
8
CUT
10
145.8648
20
235.5448
0
VERTEX
8
CUT
10
145.2718
20
235.6107
0
VERTEX
8
CUT
10
145.0082
20
235.2813
0
VERTEX
8
CUT
10
145.0411
20
234.5564
0
VERTEX
8
CUT
10
146.1942
20
231.3936
0
VERTEX
8
CUT
10
146.7543
20
231.0971
0
VERTEX
8
CUT
10
147.1167
20
231.4924
0
VERTEX
8
CUT
10
146.8861
20
233.4363
0
SEQEND
0
POLYLINE
8
CUT
66
1
70
1
10
0.0
20
0.0
30
0.0
0
VERTEX
8
CUT
10
144.0857
20
237.5216
0
VERTEX
8
CUT
10
143.1961
20
239.0042
0
VERTEX
8
CUT
10
140.6922
20
242.2988
0
VERTEX
8
CUT
10
140.0003
20
242.5953
0
VERTEX
8
CUT
10
139.9015
20
242.3318
0
VERTEX
8
CUT
10
140.3957
20
241.4093
0
VERTEX
8
CUT
10
142.9326
20
237.7193
0
VERTEX
8
CUT
10
143.9539
20
236.7309
0
VERTEX
8
CUT
10
144.1516
20
236.9286
0
SEQEND
0
POLYLINE
8
CUT
66
1
70
1
10
0.0
20
0.0
30
0.0
0
VERTEX
8
CUT
10
130.6674
20
192.0851
0
VERTEX
8
CUT
10
130.4222
20
191.7604
0
VERTEX
8
CUT
10
130.5999
20
191.3944
0
VERTEX
8
CUT
10
137.2267
20
187.6325
0
VERTEX
8
CUT
10
137.6358
20
187.5315
0
VERTEX
8
CUT
10
138.4110
20
187.7605
0
VERTEX
8
CUT
10
139.5165
20
188.4840
0
VERTEX
8
CUT
10
139.3985
20
188.9597
0
VERTEX
8
CUT
10
137.5780
20
190.4416
0
VERTEX
8
CUT
10
135.5967
20
190.6016
0
VERTEX
8
CUT
10
132.0344
20
192.0079
0
SEQEND
0
POLYLINE
8
CUT
66
1
70
1
10
0.0
20
0.0
30
0.0
0
VERTEX
8
CUT
10
131.2366
20
279.2316
0
VERTEX
8
CUT
10
131.2696
20
279.6929
0
VERTEX
8
CUT
10
130.9072
20
279.6270
0
VERTEX
8
CUT
10
129.4905
20
278.5727
0
VERTEX
8
CUT
10
124.6803
20
274.2897
0
VERTEX
8
CUT
10
122.6376
20
272.1482
0
VERTEX
8
CUT
10
121.6492
20
270.8303
0
VERTEX
8
CUT
10
121.8140
20
270.6326
0
VERTEX
8
CUT
10
130.1164
20
278.0126
0
SEQEND
0
POLYLINE
8
CUT
66
1
70
1
10
0.0
20
0.0
30
0.0
0
VERTEX
8
CUT
10
128.4466
20
180.7592
0
VERTEX
8
CUT
10
130.8108
20
183.9921
0
VERTEX
8
CUT
10
130.7768
20
184.3280
0
VERTEX
8
CUT
10
130.4547
20
184.5141
0
VERTEX
8
CUT
10
128.7746
20
183.8400
0
VERTEX
8
CUT
10
125.9450
20
183.9784
0
VERTEX
8
CUT
10
120.1073
20
185.6605
0
VERTEX
8
CUT
10
115.4066
20
187.5332
0
VERTEX
8
CUT
10
114.8747
20
187.5204
0
VERTEX
8
CUT
10
113.2443
20
186.8801
0
VERTEX
8
CUT
10
112.2362
20
186.8400
0
VERTEX
8
CUT
10
103.8303
20
189.0215
0
VERTEX
8
CUT
10
102.5819
20
189.6255
0
VERTEX
8
CUT
10
100.5228
20
191.0830
0
VERTEX
8
CUT
10
98.1297
20
192.0337
0
VERTEX
8
CUT
10
96.8296
20
192.8132
0
VERTEX
8
CUT
10
93.9255
20
193.7075
0
VERTEX
8
CUT
10
90.6121
20
195.2321
0
VERTEX
8
CUT
10
79.2845
20
201.7528
0
VERTEX
8
CUT
10
78.8382
20
201.6456
0
VERTEX
8
CUT
10
78.8037
20
201.1879
0
VERTEX
8
CUT
10
80.8455
20
199.0576
0
VERTEX
8
CUT
10
82.8173
20
197.5713
0
VERTEX
8
CUT
10
85.7281
20
195.9686
0
VERTEX
8
CUT
10
91.8230
20
193.0694
0
VERTEX
8
CUT
10
99.6777
20
189.6513
0
VERTEX
8
CUT
10
112.3312
20
184.8729
0
VERTEX
8
CUT
10
122.4978
20
181.5498
0
VERTEX
8
CUT
10
127.7472
20
180.1661
0
SEQEND
0
POLYLINE
8
CUT
66
1
70
1
10
0.0
20
0.0
30
0.0
0
VERTEX
8
CUT
10
100.6274
20
173.4867
0
VERTEX
8
CUT
10
100.2549
20
173.0827
0
VERTEX
8
CUT
10
100.4649
20
172.6215
0
VERTEX
8
CUT
10
101.2450
20
172.3927
0
VERTEX
8
CUT
10
118.0152
20
170.0584
0
VERTEX
8
CUT
10
124.8334
20
169.4018
0
VERTEX
8
CUT
10
126.1065
20
169.5393
0
VERTEX
8
CUT
10
126.4784
20
170.0026
0
VERTEX
8
CUT
10
126.1634
20
171.5061
0
VERTEX
8
CUT
10
125.8519
20
171.7641
0
VERTEX
8
CUT
10
116.8631
20
172.2101
0
VERTEX
8
CUT
10
102.0868
20
173.5593
0
SEQEND
0
POLYLINE
8
CUT
66
1
70
1
10
0.0
20
0.0
30
0.0
0
VERTEX
8
CUT
10
122.1311
20
198.4595
0
VERTEX
8
CUT
10
120.9427
20
199.6473
0
VERTEX
8
CUT
10
120.3893
20
200.5465
0
VERTEX
8
CUT
10
120.3626
20
201.7085
0
VERTEX
8
CUT
10
120.8291
20
202.3563
0
VERTEX
8
CUT
10
124.6094
20
202.8971
0
VERTEX
8
CUT
10
125.4658
20
203.3291
0
VERTEX
8
CUT
10
125.4395
20
203.6989
0
VERTEX
8
CUT
10
124.7066
20
204.9149
0
VERTEX
8
CUT
10
122.9340
20
207.2690
0
VERTEX
8
CUT
10
122.4799
20
207.2500
0
VERTEX
8
CUT
10
121.7631
20
206.3370
0
VERTEX
8
CUT
10
121.1581
20
205.9731
0
VERTEX
8
CUT
10
119.4215
20
205.6950
0
VERTEX
8
CUT
10
118.6387
20
203.6538
0
VERTEX
8
CUT
10
118.0240
20
202.9067
0
VERTEX
8
CUT
10
116.6684
20
202.4302
0
VERTEX
8
CUT
10
115.0339
20
202.2643
0
VERTEX
8
CUT
10
114.8166
20
202.0197
0
VERTEX
8
CUT
10
114.8842
20
201.6654
0
VERTEX
8
CUT
10
116.5367
20
200.3944
0
VERTEX
8
CUT
10
125.8719
20
194.2234
0
VERTEX
8
CUT
10
126.4064
20
194.3402
0
VERTEX
8
CUT
10
126.4034
20
194.7697
0
VERTEX
8
CUT
10
125.0596
20
196.2222
0
VERTEX
8
CUT
10
124.4756
20
197.1363
0
VERTEX
8
CUT
10
124.0605
20
197.5118
0
VERTEX
8
CUT
10
123.2483
20
197.7275
0
SEQEND
0
POLYLINE
8
CUT
66
1
70
1
10
0.0
20
0.0
30
0.0
0
VERTEX
8
CUT
10
112.9844
20
203.7516
0
VERTEX
8
CUT
10
111.7324
20
204.9048
0
VERTEX
8
CUT
10
110.5793
20
205.5307
0
VERTEX
8
CUT
10
110.2169
20
205.4648
0
VERTEX
8
CUT
10
110.3816
20
205.0036
0
VERTEX
8
CUT
10
111.0076
20
204.3447
0
VERTEX
8
CUT
10
112.2925
20
203.4222
0
VERTEX
8
CUT
10
113.1162
20
203.1257
0
VERTEX
8
CUT
10
113.2150
20
203.3563
0
SEQEND
0
POLYLINE
8
CUT
66
1
70
1
10
0.0
20
0.0
30
0.0
0
VERTEX
8
CUT
10
109.5357
20
53.3409
0
VERTEX
8
CUT
10
110.4117
20
55.9558
0
VERTEX
8
CUT
10
110.5790
20
57.4574
0
VERTEX
8
CUT
10
109.9114
20
58.1541
0
VERTEX
8
CUT
10
109.6016
20
58.1115
0
VERTEX
8
CUT
10
109.2992
20
57.7947
0
VERTEX
8
CUT
10
108.8487
20
56.4396
0
VERTEX
8
CUT
10
108.8435
20
53.4454
0
VERTEX
8
CUT
10
109.1757
20
53.1747
0
SEQEND
0
POLYLINE
8
CUT
66
1
70
1
10
0.0
20
0.0
30
0.0
0
VERTEX
8
CUT
10
65.7179
20
15.5104
0
VERTEX
8
CUT
10
67.9607
20
17.8173
0
VERTEX
8
CUT
10
69.4179
20
19.6112
0
VERTEX
8
CUT
10
70.2610
20
20.5456
0
VERTEX
8
CUT
10
71.7235
20
22.4493
0
VERTEX
8
CUT
10
73.9451
20
25.1841
0
VERTEX
8
CUT
10
77.5630
20
30.2497
0
VERTEX
8
CUT
10
81.2144
20
35.8422
0
VERTEX
8
CUT
10
84.6515
20
41.4280
0
VERTEX
8
CUT
10
84.9471
20
41.7546
0
VERTEX
8
CUT
10
85.8037
20
43.3360
0
VERTEX
8
CUT
10
85.7985
20
43.4141
0
VERTEX
8
CUT
10
88.4839
20
48.1445
0
VERTEX
8
CUT
10
95.2977
20
61.3106
0
VERTEX
8
CUT
10
98.3641
20
68.0038
0
VERTEX
8
CUT
10
99.0343
20
70.0422
0
VERTEX
8
CUT
10
98.9768
20
70.4854
0
VERTEX
8
CUT
10
98.6545
20
70.6813
0
VERTEX
8
CUT
10
97.8265
20
70.6629
0
VERTEX
8
CUT
10
96.5538
20
70.2677
0
VERTEX
8
CUT
10
94.8044
20
69.1010
0
VERTEX
8
CUT
10
93.9783
20
68.0665
0
VERTEX
8
CUT
10
90.8355
20
61.3978
0
VERTEX
8
CUT
10
86.2866
20
52.5967
0
VERTEX
8
CUT
10
80.5815
20
42.7358
0
VERTEX
8
CUT
10
77.6142
20
38.1197
0
VERTEX
8
CUT
10
74.7760
20
34.1257
0
VERTEX
8
CUT
10
72.0684
20
30.7237
0
VERTEX
8
CUT
10
69.4582
20
27.8480
0
VERTEX
8
CUT
10
66.9453
20
25.4985
0
VERTEX
8
CUT
10
64.4554
20
23.6690
0
VERTEX
8
CUT
10
62.0321
20
22.2719
0
VERTEX
8
CUT
10
60.1896
20
21.4978
0
VERTEX
8
CUT
10
57.7480
20
21.1845
0
VERTEX
8
CUT
10
54.7682
20
21.2496
0
VERTEX
8
CUT
10
53.6965
20
21.4976
0
VERTEX
8
CUT
10
52.2091
20
22.1777
0
VERTEX
8
CUT
10
50.7987
20
23.1225
0
VERTEX
8
CUT
10
49.6218
20
24.2338
0
VERTEX
8
CUT
10
48.5863
20
25.6448
0
VERTEX
8
CUT
10
47.7140
20
27.3305
0
VERTEX
8
CUT
10
47.1539
20
29.2743
0
VERTEX
8
CUT
10
46.8507
20
31.9091
0
VERTEX
8
CUT
10
46.9195
20
36.0665
0
VERTEX
8
CUT
10
47.9113
20
39.8689
0
VERTEX
8
CUT
10
49.3091
20
42.6721
0
VERTEX
8
CUT
10
51.2770
20
45.6088
0
VERTEX
8
CUT
10
55.3400
20
50.5496
0
VERTEX
8
CUT
10
55.9130
20
51.1987
0
VERTEX
8
CUT
10
56.1625
20
51.5499
0
VERTEX
8
CUT
10
56.4285
20
51.8733
0
VERTEX
8
CUT
10
56.5527
20
52.0990
0
VERTEX
8
CUT
10
56.9052
20
52.5950
0
VERTEX
8
CUT
10
57.0698
20
53.0384
0
VERTEX
8
CUT
10
57.1612
20
53.2046
0
VERTEX
8
CUT
10
57.1684
20
53.3040
0
VERTEX
8
CUT
10
57.2603
20
53.5515
0
VERTEX
8
CUT
10
57.2276
20
54.1298
0
VERTEX
8
CUT
10
57.2288
20
54.1470
0
VERTEX
8
CUT
10
57.2264
20
54.1513
0
VERTEX
8
CUT
10
57.2175
20
54.3076
0
VERTEX
8
CUT
10
56.8305
20
54.8770
0
VERTEX
8
CUT
10
56.8042
20
54.8943
0
VERTEX
8
CUT
10
56.6577
20
55.1521
0
VERTEX
8
CUT
10
55.8929
20
55.4484
0
VERTEX
8
CUT
10
54.7015
20
55.4446
0
VERTEX
8
CUT
10
50.4662
20
54.6579
0
VERTEX
8
CUT
10
48.2871
20
54.8563
0
VERTEX
8
CUT
10
47.2613
20
55.2404
0
VERTEX
8
CUT
10
45.6213
20
56.5028
0
VERTEX
8
CUT
10
44.4278
20
58.2786
0
VERTEX
8
CUT
10
44.2144
20
59.3377
0
VERTEX
8
CUT
10
44.5478
20
61.3381
0
VERTEX
8
CUT
10
45.0328
20
62.4181
0
VERTEX
8
CUT
10
45.7278
20
63.3806
0
VERTEX
8
CUT
10
47.0920
20
64.6035
0
VERTEX
8
CUT
10
48.3637
20
65.4768
0
VERTEX
8
CUT
10
50.2215
20
66.3671
0
VERTEX
8
CUT
10
54.1961
20
67.8408
0
VERTEX
8
CUT
10
57.0716
20
68.8049
0
VERTEX
8
CUT
10
58.0695
20
69.2769
0
VERTEX
8
CUT
10
58.7459
20
69.5277
0
VERTEX
8
CUT
10
60.7439
20
70.5118
0
VERTEX
8
CUT
10
64.1077
20
72.7431
0
VERTEX
8
CUT
10
65.5377
20
74.0399
0
VERTEX
8
CUT
10
67.9254
20
76.9438
0
VERTEX
8
CUT
10
69.0180
20
78.8322
0
VERTEX
8
CUT
10
69.5198
20
80.3111
0
VERTEX
8
CUT
10
69.4974
20
80.7334
0
VERTEX
8
CUT
10
69.5063
20
80.7789
0
VERTEX
8
CUT
10
69.4905
20
80.8650
0
VERTEX
8
CUT
10
69.4671
20
81.3078
0
VERTEX
8
CUT
10
69.3675
20
81.5343
0
VERTEX
8
CUT
10
69.3459
20
81.6520
0
VERTEX
8
CUT
10
69.2880
20
81.7153
0
VERTEX
8
CUT
10
69.2572
20
81.7855
0
VERTEX
8
CUT
10
68.7273
20
82.3593
0
VERTEX
8
CUT
10
68.2477
20
82.5554
0
VERTEX
8
CUT
10
67.1185
20
82.0747
0
VERTEX
8
CUT
10
66.8264
20
81.8889
0
VERTEX
8
CUT
10
66.3107
20
81.6242
0
VERTEX
8
CUT
10
66.0572
20
81.3995
0
VERTEX
8
CUT
10
65.5686
20
81.0887
0
VERTEX
8
CUT
10
61.4729
20
78.1167
0
VERTEX
8
CUT
10
59.2919
20
77.2394
0
VERTEX
8
CUT
10
58.1691
20
77.0622
0
VERTEX
8
CUT
10
56.3077
20
77.3614
0
VERTEX
8
CUT
10
55.4098
20
77.8216
0
VERTEX
8
CUT
10
54.5424
20
78.5523
0
VERTEX
8
CUT
10
53.9506
20
79.3942
0
VERTEX
8
CUT
10
53.6408
20
80.3583
0
VERTEX
8
CUT
10
53.5378
20
81.4259
0
VERTEX
8
CUT
10
53.7069
20
82.6852
0
VERTEX
8
CUT
10
54.7712
20
85.5198
0
VERTEX
8
CUT
10
57.6414
20
91.1662
0
VERTEX
8
CUT
10
58.1851
20
93.1440
0
VERTEX
8
CUT
10
58.1842
20
93.8192
0
VERTEX
8
CUT
10
57.8276
20
94.0797
0
VERTEX
8
CUT
10
57.5264
20
93.9526
0
VERTEX
8
CUT
10
56.8574
20
92.9684
0
VERTEX
8
CUT
10
56.0764
20
90.3087
0
VERTEX
8
CUT
10
55.5719
20
90.0749
0
VERTEX
8
CUT
10
53.3518
20
89.9165
0
VERTEX
8
CUT
10
51.7123
20
88.6454
0
VERTEX
8
CUT
10
49.9386
20
86.9036
0
VERTEX
8
CUT
10
47.6773
20
84.2562
0
VERTEX
8
CUT
10
44.9960
20
79.7227
0
VERTEX
8
CUT
10
42.6370
20
74.2801
0
VERTEX
8
CUT
10
40.5687
20
68.0384
0
VERTEX
8
CUT
10
38.8936
20
61.1706
0
VERTEX
8
CUT
10
37.5823
20
53.8599
0
VERTEX
8
CUT
10
36.6915
20
46.2380
0
VERTEX
8
CUT
10
36.2982
20
38.5673
0
VERTEX
8
CUT
10
36.3972
20
30.9451
0
VERTEX
8
CUT
10
36.8551
20
25.1230
0
VERTEX
8
CUT
10
37.6406
20
20.0751
0
VERTEX
8
CUT
10
38.8007
20
15.8042
0
VERTEX
8
CUT
10
39.3457
20
14.5221
0
VERTEX
8
CUT
10
39.5180
20
14.0449
0
VERTEX
8
CUT
10
39.7226
20
13.6355
0
VERTEX
8
CUT
10
40.2610
20
12.3688
0
VERTEX
8
CUT
10
40.6334
20
11.8130
0
VERTEX
8
CUT
10
40.7356
20
11.6084
0
VERTEX
8
CUT
10
40.9843
20
11.2892
0
VERTEX
8
CUT
10
42.0170
20
9.7477
0
VERTEX
8
CUT
10
44.1623
20
7.8476
0
VERTEX
8
CUT
10
46.6761
20
6.7042
0
VERTEX
8
CUT
10
46.7913
20
6.6871
0
VERTEX
8
CUT
10
47.0307
20
6.5802
0
VERTEX
8
CUT
10
48.4944
20
6.4345
0
VERTEX
8
CUT
10
49.4610
20
6.2911
0
VERTEX
8
CUT
10
49.8029
20
6.3330
0
VERTEX
8
CUT
10
52.0381
20
6.5791
0
VERTEX
8
CUT
10
52.1859
20
6.6253
0
VERTEX
8
CUT
10
52.8364
20
6.7051
0
VERTEX
8
CUT
10
55.1605
20
7.5118
0
VERTEX
8
CUT
10
57.1863
20
8.5075
0
VERTEX
8
CUT
10
59.2113
20
9.7505
0
VERTEX
8
CUT
10
59.7074
20
10.1498
0
VERTEX
8
CUT
10
59.8005
20
10.2099
0
VERTEX
8
CUT
10
62.2865
20
12.1739
0
VERTEX
8
CUT
10
62.7260
20
12.5792
0
VERTEX
8
CUT
10
63.3798
20
13.1054
0
VERTEX
8
CUT
10
64.0997
20
13.8458
0
VERTEX
8
CUT
10
64.7922
20
14.4844
0
SEQEND
0
POLYLINE
8
CUT
66
1
70
1
10
0.0
20
0.0
30
0.0
0
VERTEX
8
CUT
10
80.3152
20
147.2771
0
VERTEX
8
CUT
10
82.0744
20
148.3774
0
VERTEX
8
CUT
10
82.1871
20
148.8286
0
VERTEX
8
CUT
10
81.7124
20
149.0510
0
VERTEX
8
CUT
10
78.5347
20
147.8446
0
VERTEX
8
CUT
10
75.6699
20
145.9866
0
VERTEX
8
CUT
10
75.6616
20
145.4944
0
VERTEX
8
CUT
10
76.1071
20
145.3716
0
SEQEND
0
POLYLINE
8
CUT
66
1
70
1
10
0.0
20
0.0
30
0.0
0
VERTEX
8
CUT
10
71.7415
20
249.5337
0
VERTEX
8
CUT
10
71.2535
20
249.4989
0
VERTEX
8
CUT
10
71.1843
20
249.0146
0
VERTEX
8
CUT
10
72.5762
20
246.8233
0
VERTEX
8
CUT
10
73.1822
20
246.1220
0
VERTEX
8
CUT
10
73.5812
20
246.1043
0
VERTEX
8
CUT
10
74.7295
20
247.8695
0
VERTEX
8
CUT
10
74.9583
20
248.8942
0
VERTEX
8
CUT
10
74.6113
20
249.1066
0
VERTEX
8
CUT
10
73.0614
20
248.9168
0
VERTEX
8
CUT
10
72.2122
20
249.1573
0
SEQEND
0
POLYLINE
8
CUT
66
1
70
1
10
0.0
20
0.0
30
0.0
0
VERTEX
8
CUT
10
72.9546
20
125.4053
0
VERTEX
8
CUT
10
73.1523
20
125.6030
0
VERTEX
8
CUT
10
73.1523
20
125.9983
0
VERTEX
8
CUT
10
72.1639
20
127.0526
0
VERTEX
8
CUT
10
71.3732
20
127.5798
0
VERTEX
8
CUT
10
68.8363
20
128.5681
0
VERTEX
8
CUT
10
68.2433
20
128.5023
0
VERTEX
8
CUT
10
67.8150
20
128.2057
0
VERTEX
8
CUT
10
67.9468
20
127.7774
0
VERTEX
8
CUT
10
69.3305
20
126.8879
0
VERTEX
8
CUT
10
72.1968
20
125.5700
0
SEQEND
0
POLYLINE
8
CUT
66
1
70
1
10
0.0
20
0.0
30
0.0
0
VERTEX
8
CUT
10
70.9498
20
250.0481
0
VERTEX
8
CUT
10
71.2203
20
250.3837
0
VERTEX
8
CUT
10
71.0392
20
251.2296
0
VERTEX
8
CUT
10
70.0498
20
252.8036
0
VERTEX
8
CUT
10
69.6195
20
252.8058
0
VERTEX
8
CUT
10
69.4582
20
252.3735
0
VERTEX
8
CUT
10
70.5124
20
250.1974
0
SEQEND
0
POLYLINE
8
CUT
66
1
70
1
10
0.0
20
0.0
30
0.0
0
VERTEX
8
CUT
10
38.6955
20
132.9410
0
VERTEX
8
CUT
10
34.6255
20
132.8069
0
VERTEX
8
CUT
10
33.4817
20
132.4327
0
VERTEX
8
CUT
10
32.0371
20
131.2608
0
VERTEX
8
CUT
10
32.0013
20
130.8950
0
VERTEX
8
CUT
10
32.3236
20
130.6567
0
VERTEX
8
CUT
10
33.3771
20
130.9808
0
VERTEX
8
CUT
10
34.5900
20
131.0836
0
VERTEX
8
CUT
10
40.0403
20
130.5903
0
VERTEX
8
CUT
10
41.1404
20
131.1270
0
VERTEX
8
CUT
10
41.4720
20
131.7909
0
VERTEX
8
CUT
10
41.4831
20
132.5962
0
VERTEX
8
CUT
10
41.3124
20
133.1196
0
VERTEX
8
CUT
10
41.0126
20
133.2923
0
SEQEND
0
POLYLINE
8
CUT
66
1
70
1
10
0.0
20
0.0
30
0.0
0
VERTEX
8
CUT
10
32.5854
20
177.6463
0
VERTEX
8
CUT
10
31.3991
20
179.9560
0
VERTEX
8
CUT
10
31.0000
20
180.0289
0
VERTEX
8
CUT
10
30.7525
20
179.7074
0
VERTEX
8
CUT
10
31.2896
20
177.7803
0
VERTEX
8
CUT
10
30.8259
20
176.1992
0
VERTEX
8
CUT
10
30.7978
20
175.4409
0
VERTEX
8
CUT
10
31.3779
20
169.2389
0
VERTEX
8
CUT
10
31.7161
20
168.4235
0
VERTEX
8
CUT
10
32.1882
20
168.1343
0
VERTEX
8
CUT
10
32.5321
20
168.4785
0
VERTEX
8
CUT
10
33.0457
20
175.4098
0
SEQEND
0
ENDSEC
0
EOF
