0
SECTION
2
HEADER
9
$ACADVER
1
AC1009
9
$INSUNITS
70
4
0
ENDSEC
0
SECTION
2
TABLES
0
TABLE
2
LAYER
70
1
0
LAYER
2
CUT
70
0
62
7
6
CONTINUOUS
0
ENDTAB
0
ENDSEC
0
SECTION
2
ENTITIES
0
POLYLINE
8
CUT
66
1
70
1
10
0.0
20
0.0
30
0.0
0
VERTEX
8
CUT
10
6.2819
20
178.2432
0
VERTEX
8
CUT
10
6.9973
20
178.8112
0
VERTEX
8
CUT
10
8.3041
20
179.2344
0
VERTEX
8
CUT
10
9.9434
20
180.6828
0
VERTEX
8
CUT
10
10.8077
20
181.0266
0
VERTEX
8
CUT
10
11.2419
20
181.6078
0
VERTEX
8
CUT
10
12.4334
20
182.5279
0
VERTEX
8
CUT
10
13.0077
20
183.7869
0
VERTEX
8
CUT
10
13.8969
20
184.6187
0
VERTEX
8
CUT
10
13.8363
20
186.0661
0
VERTEX
8
CUT
10
14.5469
20
186.4549
0
VERTEX
8
CUT
10
15.3625
20
187.4683
0
VERTEX
8
CUT
10
15.2912
20
187.8294
0
VERTEX
8
CUT
10
14.1581
20
188.8563
0
VERTEX
8
CUT
10
9.8824
20
189.0794
0
VERTEX
8
CUT
10
9.6762
20
189.7127
0
VERTEX
8
CUT
10
10.1418
20
190.8395
0
VERTEX
8
CUT
10
9.7566
20
191.2530
0
VERTEX
8
CUT
10
8.8617
20
191.6582
0
VERTEX
8
CUT
10
8.1650
20
191.4555
0
VERTEX
8
CUT
10
7.6707
20
189.8829
0
VERTEX
8
CUT
10
5.9732
20
188.4165
0
VERTEX
8
CUT
10
5.4632
20
188.3319
0
VERTEX
8
CUT
10
5.1110
20
188.8647
0
VERTEX
8
CUT
10
5.4336
20
190.0740
0
VERTEX
8
CUT
10
5.8184
20
191.3044
0
VERTEX
8
CUT
10
6.5248
20
193.5627
0
VERTEX
8
CUT
10
7.3143
20
196.0868
0
VERTEX
8
CUT
10
8.8974
20
201.1479
0
VERTEX
8
CUT
10
9.0089
20
201.4763
0
VERTEX
8
CUT
10
9.4721
20
202.6688
0
VERTEX
8
CUT
10
11.4410
20
207.2947
0
VERTEX
8
CUT
10
12.5177
20
209.8244
0
VERTEX
8
CUT
10
12.8534
20
210.6129
0
VERTEX
8
CUT
10
13.6833
20
212.5629
0
VERTEX
8
CUT
10
14.1048
20
213.1892
0
VERTEX
8
CUT
10
14.6595
20
213.3511
0
VERTEX
8
CUT
10
16.2310
20
212.3188
0
VERTEX
8
CUT
10
17.9363
20
211.9365
0
VERTEX
8
CUT
10
18.6969
20
211.2957
0
VERTEX
8
CUT
10
19.2714
20
211.1621
0
VERTEX
8
CUT
10
20.0493
20
210.6670
0
VERTEX
8
CUT
10
20.7935
20
210.5754
0
VERTEX
8
CUT
10
21.4068
20
209.8770
0
VERTEX
8
CUT
10
22.2074
20
209.6601
0
VERTEX
8
CUT
10
22.7910
20
209.2296
0
VERTEX
8
CUT
10
25.1312
20
208.9743
0
VERTEX
8
CUT
10
26.1941
20
208.2091
0
VERTEX
8
CUT
10
27.1845
20
208.5161
0
VERTEX
8
CUT
10
28.2447
20
207.4719
0
VERTEX
8
CUT
10
32.8688
20
207.3195
0
VERTEX
8
CUT
10
33.6093
20
208.1072
0
VERTEX
8
CUT
10
34.4496
20
208.4482
0
VERTEX
8
CUT
10
36.8629
20
208.7166
0
VERTEX
8
CUT
10
38.8775
20
208.6040
0
VERTEX
8
CUT
10
39.2224
20
208.8683
0
VERTEX
8
CUT
10
39.0125
20
209.4755
0
VERTEX
8
CUT
10
38.2098
20
209.4862
0
VERTEX
8
CUT
10
37.9900
20
209.8181
0
VERTEX
8
CUT
10
38.5842
20
211.2940
0
VERTEX
8
CUT
10
38.3802
20
211.8833
0
VERTEX
8
CUT
10
35.1970
20
212.9980
0
VERTEX
8
CUT
10
32.5033
20
214.3774
0
VERTEX
8
CUT
10
31.4272
20
215.1938
0
VERTEX
8
CUT
10
30.7040
20
215.2258
0
VERTEX
8
CUT
10
29.2537
20
215.7708
0
VERTEX
8
CUT
10
28.5502
20
216.7373
0
VERTEX
8
CUT
10
27.8700
20
216.7122
0
VERTEX
8
CUT
10
27.0810
20
217.2255
0
VERTEX
8
CUT
10
26.1120
20
217.4492
0
VERTEX
8
CUT
10
25.5339
20
217.9014
0
VERTEX
8
CUT
10
21.9568
20
219.2311
0
VERTEX
8
CUT
10
20.8496
20
222.0002
0
VERTEX
8
CUT
10
19.6880
20
223.6658
0
VERTEX
8
CUT
10
19.7398
20
224.2652
0
VERTEX
8
CUT
10
20.1873
20
225.0813
0
VERTEX
8
CUT
10
20.3823
20
225.4370
0
VERTEX
8
CUT
10
20.4690
20
225.5950
0
VERTEX
8
CUT
10
20.6374
20
225.9021
0
VERTEX
8
CUT
10
21.1168
20
226.1785
0
VERTEX
8
CUT
10
22.9076
20
226.0606
0
VERTEX
8
CUT
10
25.2489
20
225.5345
0
VERTEX
8
CUT
10
26.4313
20
225.8311
0
VERTEX
8
CUT
10
27.2309
20
226.5584
0
VERTEX
8
CUT
10
27.7017
20
226.7446
0
VERTEX
8
CUT
10
32.2705
20
226.9604
0
VERTEX
8
CUT
10
35.0716
20
226.8776
0
VERTEX
8
CUT
10
36.4268
20
226.6731
0
VERTEX
8
CUT
10
37.6138
20
226.1611
0
VERTEX
8
CUT
10
40.5136
20
226.2609
0
VERTEX
8
CUT
10
41.3145
20
225.3908
0
VERTEX
8
CUT
10
42.3594
20
225.3927
0
VERTEX
8
CUT
10
43.0009
20
224.9762
0
VERTEX
8
CUT
10
44.0068
20
225.2137
0
VERTEX
8
CUT
10
45.1983
20
224.3570
0
VERTEX
8
CUT
10
47.9543
20
224.4961
0
VERTEX
8
CUT
10
49.5338
20
225.5993
0
VERTEX
8
CUT
10
51.8283
20
224.8470
0
VERTEX
8
CUT
10
53.6121
20
223.9259
0
VERTEX
8
CUT
10
54.5926
20
224.0555
0
VERTEX
8
CUT
10
55.4805
20
223.9250
0
VERTEX
8
CUT
10
55.9840
20
224.1482
0
VERTEX
8
CUT
10
56.0370
20
224.4800
0
VERTEX
8
CUT
10
55.7247
20
225.0821
0
VERTEX
8
CUT
10
56.1957
20
226.4359
0
VERTEX
8
CUT
10
56.0419
20
227.2159
0
VERTEX
8
CUT
10
54.5319
20
228.4730
0
VERTEX
8
CUT
10
53.3301
20
228.5454
0
VERTEX
8
CUT
10
52.5294
20
229.4582
0
VERTEX
8
CUT
10
51.3695
20
230.3065
0
VERTEX
8
CUT
10
50.4680
20
231.4718
0
VERTEX
8
CUT
10
50.1554
20
232.9299
0
VERTEX
8
CUT
10
49.3082
20
233.9275
0
VERTEX
8
CUT
10
45.8833
20
233.8428
0
VERTEX
8
CUT
10
45.3985
20
234.5857
0
VERTEX
8
CUT
10
44.1033
20
234.8645
0
VERTEX
8
CUT
10
43.3406
20
235.5108
0
VERTEX
8
CUT
10
42.0754
20
235.9985
0
VERTEX
8
CUT
10
41.2326
20
236.7765
0
VERTEX
8
CUT
10
40.5117
20
236.8688
0
VERTEX
8
CUT
10
39.7816
20
237.6809
0
VERTEX
8
CUT
10
38.8236
20
238.1723
0
VERTEX
8
CUT
10
38.3960
20
239.4559
0
VERTEX
8
CUT
10
37.3410
20
239.6744
0
VERTEX
8
CUT
10
35.5112
20
241.2818
0
VERTEX
8
CUT
10
33.8038
20
242.3758
0
VERTEX
8
CUT
10
33.0674
20
242.5403
0
VERTEX
8
CUT
10
32.7562
20
243.3185
0
VERTEX
8
CUT
10
33.4406
20
244.3385
0
VERTEX
8
CUT
10
37.3196
20
249.1096
0
VERTEX
8
CUT
10
37.7996
20
249.6681
0
VERTEX
8
CUT
10
46.6733
20
258.8202
0
VERTEX
8
CUT
10
56.4482
20
267.2965
0
VERTEX
8
CUT
10
66.6221
20
274.7189
0
VERTEX
8
CUT
10
67.2491
20
275.1334
0
VERTEX
8
CUT
10
67.2492
20
275.1335
0
VERTEX
8
CUT
10
67.2493
20
275.1336
0
VERTEX
8
CUT
10
67.2520
20
275.1352
0
VERTEX
8
CUT
10
67.2921
20
275.1595
0
VERTEX
8
CUT
10
69.7380
20
276.4974
0
VERTEX
8
CUT
10
71.0733
20
275.0913
0
VERTEX
8
CUT
10
72.2070
20
274.7508
0
VERTEX
8
CUT
10
72.4863
20
274.0076
0
VERTEX
8
CUT
10
74.0657
20
272.7607
0
VERTEX
8
CUT
10
74.5224
20
271.5775
0
VERTEX
8
CUT
10
75.4975
20
271.5176
0
VERTEX
8
CUT
10
76.3284
20
270.8880
0
VERTEX
8
CUT
10
77.1636
20
270.6754
0
VERTEX
8
CUT
10
78.2263
20
270.1022
0
VERTEX
8
CUT
10
79.9990
20
269.7242
0
VERTEX
8
CUT
10
81.9661
20
268.3447
0
VERTEX
8
CUT
10
82.6539
20
266.8098
0
VERTEX
8
CUT
10
82.7485
20
263.8798
0
VERTEX
8
CUT
10
83.7126
20
263.0626
0
VERTEX
8
CUT
10
83.6343
20
262.0482
0
VERTEX
8
CUT
10
87.3669
20
260.9861
0
VERTEX
8
CUT
10
87.6598
20
260.5545
0
VERTEX
8
CUT
10
87.6458
20
259.8305
0
VERTEX
8
CUT
10
88.3053
20
258.5207
0
VERTEX
8
CUT
10
88.8220
20
258.0397
0
VERTEX
8
CUT
10
89.5482
20
257.7533
0
VERTEX
8
CUT
10
90.6000
20
256.6258
0
VERTEX
8
CUT
10
91.9133
20
256.0644
0
VERTEX
8
CUT
10
93.1229
20
256.1732
0
VERTEX
8
CUT
10
93.5498
20
257.2237
0
VERTEX
8
CUT
10
94.5493
20
257.7509
0
VERTEX
8
CUT
10
94.8537
20
259.4863
0
VERTEX
8
CUT
10
95.0704
20
259.6129
0
VERTEX
8
CUT
10
95.3416
20
259.4963
0
VERTEX
8
CUT
10
96.4155
20
258.5202
0
VERTEX
8
CUT
10
96.5149
20
257.9934
0
VERTEX
8
CUT
10
97.2521
20
256.9672
0
VERTEX
8
CUT
10
97.6510
20
255.6712
0
VERTEX
8
CUT
10
98.4069
20
255.0353
0
VERTEX
8
CUT
10
98.9665
20
253.8214
0
VERTEX
8
CUT
10
101.6116
20
251.3025
0
VERTEX
8
CUT
10
102.4248
20
248.4606
0
VERTEX
8
CUT
10
102.3915
20
247.2674
0
VERTEX
8
CUT
10
102.0933
20
246.1579
0
VERTEX
8
CUT
10
102.6296
20
244.3695
0
VERTEX
8
CUT
10
103.2960
20
243.6065
0
VERTEX
8
CUT
10
104.0799
20
244.0535
0
VERTEX
8
CUT
10
105.3708
20
245.7566
0
VERTEX
8
CUT
10
107.4791
20
247.4774
0
VERTEX
8
CUT
10
107.9827
20
247.6609
0
VERTEX
8
CUT
10
109.0763
20
247.4679
0
VERTEX
8
CUT
10
110.5376
20
249.1320
0
VERTEX
8
CUT
10
111.8508
20
249.0221
0
VERTEX
8
CUT
10
112.8509
20
249.1661
0
VERTEX
8
CUT
10
114.3885
20
248.4768
0
VERTEX
8
CUT
10
114.7859
20
248.8638
0
VERTEX
8
CUT
10
114.4399
20
249.6564
0
VERTEX
8
CUT
10
114.4632
20
250.8813
0
VERTEX
8
CUT
10
113.8086
20
252.2840
0
VERTEX
8
CUT
10
113.9745
20
253.1452
0
VERTEX
8
CUT
10
113.6442
20
254.0854
0
VERTEX
8
CUT
10
113.7602
20
255.5144
0
VERTEX
8
CUT
10
112.9770
20
257.1160
0
VERTEX
8
CUT
10
112.8592
20
258.9328
0
VERTEX
8
CUT
10
112.3056
20
259.8638
0
VERTEX
8
CUT
10
112.3012
20
260.7317
0
VERTEX
8
CUT
10
111.4195
20
261.5615
0
VERTEX
8
CUT
10
111.3801
20
262.8167
0
VERTEX
8
CUT
10
110.6863
20
263.4096
0
VERTEX
8
CUT
10
110.5589
20
264.1865
0
VERTEX
8
CUT
10
110.0051
20
264.6656
0
VERTEX
8
CUT
10
109.5960
20
265.4513
0
VERTEX
8
CUT
10
108.9267
20
265.8664
0
VERTEX
8
CUT
10
108.7400
20
266.9895
0
VERTEX
8
CUT
10
107.8868
20
267.8993
0
VERTEX
8
CUT
10
107.3869
20
269.0600
0
VERTEX
8
CUT
10
106.2161
20
269.9958
0
VERTEX
8
CUT
10
105.7159
20
271.3258
0
VERTEX
8
CUT
10
103.3909
20
273.7810
0
VERTEX
8
CUT
10
103.3496
20
274.3612
0
VERTEX
8
CUT
10
104.1629
20
274.6857
0
VERTEX
8
CUT
10
105.5040
20
274.7496
0
VERTEX
8
CUT
10
106.6796
20
274.5423
0
VERTEX
8
CUT
10
107.8353
20
273.9806
0
VERTEX
8
CUT
10
109.3898
20
272.8083
0
VERTEX
8
CUT
10
110.1369
20
272.6921
0
VERTEX
8
CUT
10
110.9916
20
272.0490
0
VERTEX
8
CUT
10
111.7512
20
271.9922
0
VERTEX
8
CUT
10
112.2327
20
271.7440
0
VERTEX
8
CUT
10
113.6161
20
270.2601
0
VERTEX
8
CUT
10
114.2078
20
269.0717
0
VERTEX
8
CUT
10
114.4363
20
268.0721
0
VERTEX
8
CUT
10
115.0605
20
267.4007
0
VERTEX
8
CUT
10
116.6641
20
266.6061
0
VERTEX
8
CUT
10
117.3927
20
265.7858
0
VERTEX
8
CUT
10
118.6758
20
265.2856
0
VERTEX
8
CUT
10
119.6193
20
264.4506
0
VERTEX
8
CUT
10
119.9838
20
264.4538
0
VERTEX
8
CUT
10
120.4024
20
264.8964
0
VERTEX
8
CUT
10
120.8604
20
265.0542
0
VERTEX
8
CUT
10
122.1437
20
264.0902
0
VERTEX
8
CUT
10
122.6862
20
263.3284
0
VERTEX
8
CUT
10
122.8689
20
262.1838
0
VERTEX
8
CUT
10
123.5943
20
261.6417
0
VERTEX
8
CUT
10
123.8353
20
260.9406
0
VERTEX
8
CUT
10
123.4752
20
259.0706
0
VERTEX
8
CUT
10
123.5716
20
255.4246
0
VERTEX
8
CUT
10
123.0232
20
254.2346
0
VERTEX
8
CUT
10
123.2462
20
253.8680
0
VERTEX
8
CUT
10
125.7443
20
254.4794
0
VERTEX
8
CUT
10
126.7332
20
254.3009
0
VERTEX
8
CUT
10
127.5243
20
254.4234
0
VERTEX
8
CUT
10
129.7320
20
256.1060
0
VERTEX
8
CUT
10
130.1794
20
256.0127
0
VERTEX
8
CUT
10
130.8047
20
255.3706
0
VERTEX
8
CUT
10
131.1755
20
255.3763
0
VERTEX
8
CUT
10
131.3936
20
255.6833
0
VERTEX
8
CUT
10
131.5758
20
256.9076
0
VERTEX
8
CUT
10
131.9383
20
257.5062
0
VERTEX
8
CUT
10
132.0027
20
258.6544
0
VERTEX
8
CUT
10
132.9040
20
260.1099
0
VERTEX
8
CUT
10
134.1534
20
261.4959
0
VERTEX
8
CUT
10
135.8351
20
261.6052
0
VERTEX
8
CUT
10
136.3336
20
261.4204
0
VERTEX
8
CUT
10
136.6608
20
260.7831
0
VERTEX
8
CUT
10
137.6968
20
260.8544
0
VERTEX
8
CUT
10
138.4029
20
260.0945
0
VERTEX
8
CUT
10
139.3840
20
260.0590
0
VERTEX
8
CUT
10
140.2217
20
259.0257
0
VERTEX
8
CUT
10
141.4364
20
258.8098
0
VERTEX
8
CUT
10
142.0099
20
258.1578
0
VERTEX
8
CUT
10
142.9584
20
257.9504
0
VERTEX
8
CUT
10
143.6272
20
257.1683
0
VERTEX
8
CUT
10
144.6032
20
257.1413
0
VERTEX
8
CUT
10
146.1089
20
257.5047
0
VERTEX
8
CUT
10
147.0539
20
257.1550
0
VERTEX
8
CUT
10
148.0213
20
257.4144
0
VERTEX
8
CUT
10
149.1756
20
256.9908
0
VERTEX
8
CUT
10
149.7877
20
256.4078
0
VERTEX
8
CUT
10
150.1252
20
255.2436
0
VERTEX
8
CUT
10
150.5639
20
254.6862
0
VERTEX
8
CUT
10
151.8980
20
254.0881
0
VERTEX
8
CUT
10
152.4910
20
253.2625
0
VERTEX
8
CUT
10
153.3663
20
253.2013
0
VERTEX
8
CUT
10
154.0609
20
252.9063
0
VERTEX
8
CUT
10
156.4079
20
250.3493
0
VERTEX
8
CUT
10
157.0831
20
250.1299
0
VERTEX
8
CUT
10
157.9450
20
250.1539
0
VERTEX
8
CUT
10
158.5496
20
250.4568
0
VERTEX
8
CUT
10
158.6002
20
250.9044
0
VERTEX
8
CUT
10
157.5495
20
251.5819
0
VERTEX
8
CUT
10
157.2721
20
252.1984
0
VERTEX
8
CUT
10
156.4095
20
252.8920
0
VERTEX
8
CUT
10
155.3454
20
256.0830
0
VERTEX
8
CUT
10
154.5294
20
256.7788
0
VERTEX
8
CUT
10
153.6619
20
259.1327
0
VERTEX
8
CUT
10
151.6437
20
261.5871
0
VERTEX
8
CUT
10
150.7565
20
263.0568
0
VERTEX
8
CUT
10
147.6319
20
266.6612
0
VERTEX
8
CUT
10
146.4924
20
267.5203
0
VERTEX
8
CUT
10
145.3599
20
268.8999
0
VERTEX
8
CUT
10
141.9308
20
271.4824
0
VERTEX
8
CUT
10
141.4894
20
272.4948
0
VERTEX
8
CUT
10
140.3697
20
272.8036
0
VERTEX
8
CUT
10
139.6220
20
273.3279
0
VERTEX
8
CUT
10
138.1311
20
273.8380
0
VERTEX
8
CUT
10
137.8733
20
274.5970
0
VERTEX
8
CUT
10
137.1450
20
275.0230
0
VERTEX
8
CUT
10
136.5214
20
275.8153
0
VERTEX
8
CUT
10
136.7169
20
276.2375
0
VERTEX
8
CUT
10
137.5537
20
276.4743
0
VERTEX
8
CUT
10
137.7429
20
276.9923
0
VERTEX
8
CUT
10
136.9085
20
279.2484
0
VERTEX
8
CUT
10
136.3450
20
279.9154
0
VERTEX
8
CUT
10
134.9330
20
280.4015
0
VERTEX
8
CUT
10
134.4761
20
280.9776
0
VERTEX
8
CUT
10
134.6927
20
281.2553
0
VERTEX
8
CUT
10
135.8709
20
281.3294
0
VERTEX
8
CUT
10
136.6459
20
282.2373
0
VERTEX
8
CUT
10
137.6329
20
282.2039
0
VERTEX
8
CUT
10
138.2278
20
282.8768
0
VERTEX
8
CUT
10
138.7110
20
283.0610
0
VERTEX
8
CUT
10
139.3325
20
282.9683
0
VERTEX
8
CUT
10
140.2295
20
282.2330
0
VERTEX
8
CUT
10
141.3252
20
282.4955
0
VERTEX
8
CUT
10
141.6122
20
282.2552
0
VERTEX
8
CUT
10
141.7734
20
281.6386
0
VERTEX
8
CUT
10
142.5417
20
280.5417
0
VERTEX
8
CUT
10
143.0369
20
279.4215
0
VERTEX
8
CUT
10
144.8302
20
278.5670
0
VERTEX
8
CUT
10
145.4888
20
277.4131
0
VERTEX
8
CUT
10
146.9941
20
276.4075
0
VERTEX
8
CUT
10
147.5861
20
275.7376
0
VERTEX
8
CUT
10
149.6501
20
272.2470
0
VERTEX
8
CUT
10
150.0432
20
272.0737
0
VERTEX
8
CUT
10
151.2654
20
273.0526
0
VERTEX
8
CUT
10
154.8272
20
273.7598
0
VERTEX
8
CUT
10
155.0033
20
274.0396
0
VERTEX
8
CUT
10
154.8116
20
274.6777
0
VERTEX
8
CUT
10
154.9387
20
275.0031
0
VERTEX
8
CUT
10
155.3484
20
275.3205
0
VERTEX
8
CUT
10
156.1040
20
275.4223
0
VERTEX
8
CUT
10
156.4368
20
276.1207
0
VERTEX
8
CUT
10
156.9010
20
276.3807
0
VERTEX
8
CUT
10
158.2172
20
276.3610
0
VERTEX
8
CUT
10
159.1373
20
275.9145
0
VERTEX
8
CUT
10
159.6953
20
275.8661
0
VERTEX
8
CUT
10
160.5865
20
275.0530
0
VERTEX
8
CUT
10
161.5215
20
274.7097
0
VERTEX
8
CUT
10
161.8351
20
274.8215
0
VERTEX
8
CUT
10
162.7606
20
276.0605
0
VERTEX
8
CUT
10
162.7757
20
276.4803
0
VERTEX
8
CUT
10
162.3754
20
277.0350
0
VERTEX
8
CUT
10
157.5988
20
281.8452
0
VERTEX
8
CUT
10
157.4292
20
282.5645
0
VERTEX
8
CUT
10
156.7303
20
282.8220
0
VERTEX
8
CUT
10
156.5537
20
283.5296
0
VERTEX
8
CUT
10
156.8450
20
284.8150
0
VERTEX
8
CUT
10
156.7098
20
285.1679
0
VERTEX
8
CUT
10
155.7285
20
286.0596
0
VERTEX
8
CUT
10
154.9049
20
286.3640
0
VERTEX
8
CUT
10
154.6524
20
287.0024
0
VERTEX
8
CUT
10
154.0264
20
287.7884
0
VERTEX
8
CUT
10
152.2152
20
289.4543
0
VERTEX
8
CUT
10
151.7168
20
289.5883
0
VERTEX
8
CUT
10
150.9461
20
289.4260
0
VERTEX
8
CUT
10
150.3040
20
290.1481
0
VERTEX
8
CUT
10
149.6552
20
290.4846
0
VERTEX
8
CUT
10
147.7249
20
290.7543
0
VERTEX
8
CUT
10
146.5954
20
291.2303
0
VERTEX
8
CUT
10
145.4514
20
291.2858
0
VERTEX
8
CUT
10
144.8580
20
292.1267
0
VERTEX
8
CUT
10
143.9574
20
292.4471
0
VERTEX
8
CUT
10
141.1347
20
294.8722
0
VERTEX
8
CUT
10
140.6791
20
295.4987
0
VERTEX
8
CUT
10
139.4070
20
295.4423
0
VERTEX
8
CUT
10
139.1484
20
294.6386
0
VERTEX
8
CUT
10
138.8470
20
294.4741
0
VERTEX
8
CUT
10
136.9059
20
294.5214
0
VERTEX
8
CUT
10
136.3517
20
293.8771
0
VERTEX
8
CUT
10
134.6948
20
292.7071
0
VERTEX
8
CUT
10
133.9521
20
292.6948
0
VERTEX
8
CUT
10
132.4831
20
292.1813
0
VERTEX
8
CUT
10
131.7673
20
292.3007
0
VERTEX
8
CUT
10
131.1056
20
291.6508
0
VERTEX
8
CUT
10
130.2061
20
291.9997
0
VERTEX
8
CUT
10
129.0492
20
291.1061
0
VERTEX
8
CUT
10
128.0498
20
290.6132
0
VERTEX
8
CUT
10
125.7554
20
290.0842
0
VERTEX
8
CUT
10
124.5153
20
289.4087
0
VERTEX
8
CUT
10
123.7744
20
289.3393
0
VERTEX
8
CUT
10
122.9891
20
289.5772
0
VERTEX
8
CUT
10
121.1324
20
290.6709
0
VERTEX
8
CUT
10
119.9013
20
292.4123
0
VERTEX
8
CUT
10
118.9471
20
293.2646
0
VERTEX
8
CUT
10
116.6670
20
294.2240
0
VERTEX
8
CUT
10
116.3542
20
294.8476
0
VERTEX
8
CUT
10
116.3699
20
295.6016
0
VERTEX
8
CUT
10
116.7418
20
296.1647
0
VERTEX
8
CUT
10
117.7065
20
296.4886
0
VERTEX
8
CUT
10
118.0993
20
296.5657
0
VERTEX
8
CUT
10
122.7380
20
297.3176
0
VERTEX
8
CUT
10
124.0339
20
297.5276
0
VERTEX
8
CUT
10
126.0638
20
297.8566
0
VERTEX
8
CUT
10
133.0540
20
298.9896
0
VERTEX
8
CUT
10
134.4798
20
299.1725
0
VERTEX
8
CUT
10
149.3736
20
299.9429
0
VERTEX
8
CUT
10
152.2184
20
299.8986
0
VERTEX
8
CUT
10
165.6628
20
299.1155
0
VERTEX
8
CUT
10
167.1389
20
298.9903
0
VERTEX
8
CUT
10
181.2771
20
296.5978
0
VERTEX
8
CUT
10
184.8769
20
295.7630
0
VERTEX
8
CUT
10
185.1036
20
295.6986
0
VERTEX
8
CUT
10
194.0636
20
293.1547
0
VERTEX
8
CUT
10
195.7022
20
292.6895
0
VERTEX
8
CUT
10
197.1847
20
292.2686
0
VERTEX
8
CUT
10
199.0353
20
291.6980
0
VERTEX
8
CUT
10
199.0407
20
291.6958
0
VERTEX
8
CUT
10
199.2567
20
291.6079
0
VERTEX
8
CUT
10
199.3720
20
291.5609
0
VERTEX
8
CUT
10
212.4776
20
286.2274
0
VERTEX
8
CUT
10
214.7363
20
285.0760
0
VERTEX
8
CUT
10
215.5561
20
283.9330
0
VERTEX
8
CUT
10
215.6510
20
283.4543
0
VERTEX
8
CUT
10
215.4456
20
283.1131
0
VERTEX
8
CUT
10
214.6389
20
282.8821
0
VERTEX
8
CUT
10
213.2815
20
281.2966
0
VERTEX
8
CUT
10
212.3480
20
280.5323
0
VERTEX
8
CUT
10
209.6467
20
280.6740
0
VERTEX
8
CUT
10
208.2741
20
280.4680
0
VERTEX
8
CUT
10
206.1783
20
278.7547
0
VERTEX
8
CUT
10
205.3726
20
277.6517
0
VERTEX
8
CUT
10
204.9018
20
276.5633
0
VERTEX
8
CUT
10
204.8216
20
275.3417
0
VERTEX
8
CUT
10
205.5284
20
273.8059
0
VERTEX
8
CUT
10
204.8853
20
272.8915
0
VERTEX
8
CUT
10
204.8985
20
272.3937
0
VERTEX
8
CUT
10
205.6176
20
271.9479
0
VERTEX
8
CUT
10
206.3570
20
272.0292
0
VERTEX
8
CUT
10
206.6949
20
271.8521
0
VERTEX
8
CUT
10
207.3444
20
270.2408
0
VERTEX
8
CUT
10
211.0725
20
265.8742
0
VERTEX
8
CUT
10
211.4369
20
265.8813
0
VERTEX
8
CUT
10
212.1046
20
266.3896
0
VERTEX
8
CUT
10
213.7625
20
266.6608
0
VERTEX
8
CUT
10
214.4834
20
267.8625
0
VERTEX
8
CUT
10
215.6440
20
268.0843
0
VERTEX
8
CUT
10
216.7243
20
269.0741
0
VERTEX
8
CUT
10
217.4685
20
269.4259
0
VERTEX
8
CUT
10
217.9852
20
270.4010
0
VERTEX
8
CUT
10
219.1889
20
270.8329
0
VERTEX
8
CUT
10
220.3670
20
272.1085
0
VERTEX
8
CUT
10
221.6535
20
272.5759
0
VERTEX
8
CUT
10
223.6184
20
274.3285
0
VERTEX
8
CUT
10
225.1040
20
274.9394
0
VERTEX
8
CUT
10
225.6699
20
276.0211
0
VERTEX
8
CUT
10
226.0123
20
276.1113
0
VERTEX
8
CUT
10
226.5585
20
275.9014
0
VERTEX
8
CUT
10
227.1688
20
276.3027
0
VERTEX
8
CUT
10
228.5471
20
276.4288
0
VERTEX
8
CUT
10
229.2998
20
276.3813
0
VERTEX
8
CUT
10
230.1023
20
275.9316
0
VERTEX
8
CUT
10
230.8376
20
276.1096
0
VERTEX
8
CUT
10
231.3845
20
275.7920
0
VERTEX
8
CUT
10
234.5094
20
273.6724
0
VERTEX
8
CUT
10
236.1415
20
272.5654
0
VERTEX
8
CUT
10
237.6634
20
271.5331
0
VERTEX
8
CUT
10
238.3522
20
271.0659
0
VERTEX
8
CUT
10
239.4434
20
270.2933
0
VERTEX
8
CUT
10
239.7912
20
270.0272
0
VERTEX
8
CUT
10
242.0262
20
268.2101
0
VERTEX
8
CUT
10
243.4727
20
267.0341
0
VERTEX
8
CUT
10
243.5668
20
266.9576
0
VERTEX
8
CUT
10
244.6577
20
266.0707
0
VERTEX
8
CUT
10
245.4959
20
265.2727
0
VERTEX
8
CUT
10
245.5674
20
264.6490
0
VERTEX
8
CUT
10
245.3420
20
264.2709
0
VERTEX
8
CUT
10
243.7410
20
264.1702
0
VERTEX
8
CUT
10
242.5080
20
263.0875
0
VERTEX
8
CUT
10
242.2073
20
260.0016
0
VERTEX
8
CUT
10
242.4930
20
259.0833
0
VERTEX
8
CUT
10
242.2175
20
258.6462
0
VERTEX
8
CUT
10
241.3648
20
258.2953
0
VERTEX
8
CUT
10
241.2383
20
257.3656
0
VERTEX
8
CUT
10
241.3951
20
257.0665
0
VERTEX
8
CUT
10
241.8332
20
257.0481
0
VERTEX
8
CUT
10
242.6927
20
257.8942
0
VERTEX
8
CUT
10
244.1562
20
257.6897
0
VERTEX
8
CUT
10
245.4989
20
258.1350
0
VERTEX
8
CUT
10
245.9109
20
257.9850
0
VERTEX
8
CUT
10
246.4872
20
257.1872
0
VERTEX
8
CUT
10
247.0431
20
257.0565
0
VERTEX
8
CUT
10
250.1346
20
257.3984
0
VERTEX
8
CUT
10
251.0490
20
257.8038
0
VERTEX
8
CUT
10
253.9326
20
257.8189
0
VERTEX
8
CUT
10
256.3318
20
255.4933
0
VERTEX
8
CUT
10
257.1297
20
254.7198
0
VERTEX
8
CUT
10
258.0936
20
253.7854
0
VERTEX
8
CUT
10
258.1821
20
253.6997
0
VERTEX
8
CUT
10
259.0684
20
252.7691
0
VERTEX
8
CUT
10
260.8458
20
250.7203
0
VERTEX
8
CUT
10
262.5460
20
248.6164
0
VERTEX
8
CUT
10
262.4623
20
248.3062
0
VERTEX
8
CUT
10
262.0043
20
247.9548
0
VERTEX
8
CUT
10
259.9956
20
247.6318
0
VERTEX
8
CUT
10
259.2034
20
246.7776
0
VERTEX
8
CUT
10
259.4207
20
246.2786
0
VERTEX
8
CUT
10
261.1332
20
246.0638
0
VERTEX
8
CUT
10
261.8026
20
245.7542
0
VERTEX
8
CUT
10
261.8385
20
245.4493
0
VERTEX
8
CUT
10
261.4266
20
244.8492
0
VERTEX
8
CUT
10
261.3405
20
244.3566
0
VERTEX
8
CUT
10
261.4441
20
243.6675
0
VERTEX
8
CUT
10
261.8975
20
242.8269
0
VERTEX
8
CUT
10
261.0828
20
241.8659
0
VERTEX
8
CUT
10
260.0296
20
238.1821
0
VERTEX
8
CUT
10
258.9775
20
236.1999
0
VERTEX
8
CUT
10
258.5041
20
233.9849
0
VERTEX
8
CUT
10
257.7934
20
233.5053
0
VERTEX
8
CUT
10
257.9665
20
232.3770
0
VERTEX
8
CUT
10
257.1098
20
231.7710
0
VERTEX
8
CUT
10
256.9422
20
230.6944
0
VERTEX
8
CUT
10
256.1688
20
230.2047
0
VERTEX
8
CUT
10
255.9369
20
229.7859
0
VERTEX
8
CUT
10
256.1382
20
229.3463
0
VERTEX
8
CUT
10
257.2198
20
229.0467
0
VERTEX
8
CUT
10
257.5691
20
228.4714
0
VERTEX
8
CUT
10
257.2359
20
227.6913
0
VERTEX
8
CUT
10
256.2313
20
227.1306
0
VERTEX
8
CUT
10
256.2113
20
226.7026
0
VERTEX
8
CUT
10
257.1558
20
225.9080
0
VERTEX
8
CUT
10
260.0385
20
225.5309
0
VERTEX
8
CUT
10
260.2589
20
225.1482
0
VERTEX
8
CUT
10
260.0510
20
224.2657
0
VERTEX
8
CUT
10
260.7694
20
223.5362
0
VERTEX
8
CUT
10
260.4175
20
222.7436
0
VERTEX
8
CUT
10
260.5802
20
222.3794
0
VERTEX
8
CUT
10
260.9779
20
222.3493
0
VERTEX
8
CUT
10
261.5235
20
222.8882
0
VERTEX
8
CUT
10
261.8098
20
224.1804
0
VERTEX
8
CUT
10
262.2358
20
224.5738
0
VERTEX
8
CUT
10
263.0984
20
224.4723
0
VERTEX
8
CUT
10
264.3774
20
223.4680
0
VERTEX
8
CUT
10
265.2390
20
224.1990
0
VERTEX
8
CUT
10
265.7521
20
225.1211
0
VERTEX
8
CUT
10
265.5681
20
227.8326
0
VERTEX
8
CUT
10
266.6951
20
228.5222
0
VERTEX
8
CUT
10
266.9553
20
229.8420
0
VERTEX
8
CUT
10
267.9090
20
230.3099
0
VERTEX
8
CUT
10
268.2049
20
231.7424
0
VERTEX
8
CUT
10
268.8576
20
232.4346
0
VERTEX
8
CUT
10
269.0753
20
233.1710
0
VERTEX
8
CUT
10
270.1821
20
233.7912
0
VERTEX
8
CUT
10
270.7182
20
235.0234
0
VERTEX
8
CUT
10
271.5961
20
236.1862
0
VERTEX
8
CUT
10
272.0242
20
236.3721
0
VERTEX
8
CUT
10
272.3995
20
236.2632
0
VERTEX
8
CUT
10
274.4821
20
233.4100
0
VERTEX
8
CUT
10
275.3110
20
232.1270
0
VERTEX
8
CUT
10
281.4891
20
221.9197
0
VERTEX
8
CUT
10
286.8822
20
210.9959
0
VERTEX
8
CUT
10
288.6442
20
206.6443
0
VERTEX
8
CUT
10
291.6588
20
198.8753
0
VERTEX
8
CUT
10
292.2916
20
196.9999
0
VERTEX
8
CUT
10
293.8564
20
191.9502
0
VERTEX
8
CUT
10
294.3548
20
190.2657
0
VERTEX
8
CUT
10
296.1738
20
183.1327
0
VERTEX
8
CUT
10
296.2410
20
182.7978
0
VERTEX
8
CUT
10
296.4787
20
181.3535
0
VERTEX
8
CUT
10
296.1001
20
179.6148
0
VERTEX
8
CUT
10
296.1070
20
178.6436
0
VERTEX
8
CUT
10
296.3170
20
178.2632
0
VERTEX
8
CUT
10
297.0816
20
177.6690
0
VERTEX
8
CUT
10
296.6398
20
176.7536
0
VERTEX
8
CUT
10
297.5053
20
175.9780
0
VERTEX
8
CUT
10
297.8854
20
174.2684
0
VERTEX
8
CUT
10
297.9698
20
173.6954
0
VERTEX
8
CUT
10
297.9957
20
173.5198
0
VERTEX
8
CUT
10
298.0915
20
172.8693
0
VERTEX
8
CUT
10
298.1849
20
172.2346
0
VERTEX
8
CUT
10
299.2297
20
163.5630
0
VERTEX
8
CUT
10
299.2531
20
163.3105
0
VERTEX
8
CUT
10
299.2633
20
163.2008
0
VERTEX
8
CUT
10
299.3166
20
162.6257
0
VERTEX
8
CUT
10
299.5116
20
160.5236
0
VERTEX
8
CUT
10
299.5922
20
159.1300
0
VERTEX
8
CUT
10
299.7809
20
154.7498
0
VERTEX
8
CUT
10
299.7509
20
143.8210
0
VERTEX
8
CUT
10
299.3634
20
137.5982
0
VERTEX
8
CUT
10
299.1538
20
135.5412
0
VERTEX
8
CUT
10
298.9353
20
133.7908
0
VERTEX
8
CUT
10
298.6835
20
131.7731
0
VERTEX
8
CUT
10
298.5634
20
130.8104
0
VERTEX
8
CUT
10
298.2478
20
128.2818
0
VERTEX
8
CUT
10
297.7956
20
125.3063
0
VERTEX
8
CUT
10
297.6981
20
124.8024
0
VERTEX
8
CUT
10
297.5646
20
124.1124
0
VERTEX
8
CUT
10
297.2521
20
122.4976
0
VERTEX
8
CUT
10
296.7979
20
120.1506
0
VERTEX
8
CUT
10
296.7066
20
119.7610
0
VERTEX
8
CUT
10
295.7660
20
117.8242
0
VERTEX
8
CUT
10
295.4648
20
117.6290
0
VERTEX
8
CUT
10
294.5240
20
117.5478
0
VERTEX
8
CUT
10
293.4944
20
116.1600
0
VERTEX
8
CUT
10
293.9470
20
114.3751
0
VERTEX
8
CUT
10
294.8816
20
112.8217
0
VERTEX
8
CUT
10
294.8845
20
111.9253
0
VERTEX
8
CUT
10
293.8940
20
108.2323
0
VERTEX
8
CUT
10
292.9231
20
104.9622
0
VERTEX
8
CUT
10
290.6876
20
98.4420
0
VERTEX
8
CUT
10
289.8412
20
96.0616
0
VERTEX
8
CUT
10
289.3551
20
94.9111
0
VERTEX
8
CUT
10
288.6324
20
93.2036
0
VERTEX
8
CUT
10
287.8817
20
91.4299
0
VERTEX
8
CUT
10
287.5526
20
90.6523
0
VERTEX
8
CUT
10
285.9970
20
86.9767
0
VERTEX
8
CUT
10
285.7052
20
86.3871
0
VERTEX
8
CUT
10
282.1266
20
79.3421
0
VERTEX
8
CUT
10
281.8859
20
78.8682
0
VERTEX
8
CUT
10
281.6812
20
78.4653
0
VERTEX
8
CUT
10
281.6376
20
78.3794
0
VERTEX
8
CUT
10
280.9622
20
77.1363
0
VERTEX
8
CUT
10
279.8347
20
75.2497
0
VERTEX
8
CUT
10
279.2783
20
74.6140
0
VERTEX
8
CUT
10
277.2293
20
74.3879
0
VERTEX
8
CUT
10
276.1479
20
74.0511
0
VERTEX
8
CUT
10
275.7808
20
73.7102
0
VERTEX
8
CUT
10
275.8862
20
73.1686
0
VERTEX
8
CUT
10
277.3222
20
72.3557
0
VERTEX
8
CUT
10
277.6226
20
71.8100
0
VERTEX
8
CUT
10
277.4351
20
71.2346
0
VERTEX
8
CUT
10
275.9198
20
68.6990
0
VERTEX
8
CUT
10
269.9498
20
60.1072
0
VERTEX
8
CUT
10
269.8655
20
60.0015
0
VERTEX
8
CUT
10
266.0855
20
55.3831
0
VERTEX
8
CUT
10
263.9261
20
52.7449
0
VERTEX
8
CUT
10
263.1730
20
51.8246
0
VERTEX
8
CUT
10
262.7375
20
51.2926
0
VERTEX
8
CUT
10
260.5717
20
48.8771
0
VERTEX
8
CUT
10
259.3050
20
47.5751
0
VERTEX
8
CUT
10
259.1143
20
47.3791
0
VERTEX
8
CUT
10
258.2034
20
46.4428
0
VERTEX
8
CUT
10
253.5737
20
41.6843
0
VERTEX
8
CUT
10
252.5488
20
40.6677
0
VERTEX
8
CUT
10
248.4184
20
37.0909
0
VERTEX
8
CUT
10
246.0106
20
35.0058
0
VERTEX
8
CUT
10
244.8583
20
34.0079
0
VERTEX
8
CUT
10
244.0755
20
33.3300
0
VERTEX
8
CUT
10
241.7542
20
31.5109
0
VERTEX
8
CUT
10
235.4170
20
26.9046
0
VERTEX
8
CUT
10
234.5193
20
26.2521
0
VERTEX
8
CUT
10
234.5029
20
26.2402
0
VERTEX
8
CUT
10
234.0797
20
25.9326
0
VERTEX
8
CUT
10
232.2677
20
24.6798
0
VERTEX
8
CUT
10
229.2302
20
22.8467
0
VERTEX
8
CUT
10
226.6740
20
21.3041
0
VERTEX
8
CUT
10
226.3629
20
21.1163
0
VERTEX
8
CUT
10
222.9464
20
19.0544
0
VERTEX
8
CUT
10
219.0366
20
17.0082
0
VERTEX
8
CUT
10
212.5682
20
13.8246
0
VERTEX
8
CUT
10
211.7367
20
13.6799
0
VERTEX
8
CUT
10
211.0704
20
14.0544
0
VERTEX
8
CUT
10
210.7076
20
15.1907
0
VERTEX
8
CUT
10
210.0513
20
15.4513
0
VERTEX
8
CUT
10
209.4513
20
16.1159
0
VERTEX
8
CUT
10
207.6593
20
16.2702
0
VERTEX
8
CUT
10
203.4825
20
20.3392
0
VERTEX
8
CUT
10
200.3301
20
21.8841
0
VERTEX
8
CUT
10
200.1342
20
22.9013
0
VERTEX
8
CUT
10
199.5290
20
23.4247
0
VERTEX
8
CUT
10
199.3570
20
24.4687
0
VERTEX
8
CUT
10
196.9730
20
27.0215
0
VERTEX
8
CUT
10
195.9871
20
27.4761
0
VERTEX
8
CUT
10
194.3239
20
27.2776
0
VERTEX
8
CUT
10
194.0836
20
26.8847
0
VERTEX
8
CUT
10
194.4456
20
25.3891
0
VERTEX
8
CUT
10
193.9470
20
25.2176
0
VERTEX
8
CUT
10
192.9459
20
25.5642
0
VERTEX
8
CUT
10
192.6484
20
25.4917
0
VERTEX
8
CUT
10
192.0231
20
23.5879
0
VERTEX
8
CUT
10
192.8330
20
21.7125
0
VERTEX
8
CUT
10
193.0308
20
20.7024
0
VERTEX
8
CUT
10
193.9506
20
20.0383
0
VERTEX
8
CUT
10
194.1906
20
18.9362
0
VERTEX
8
CUT
10
194.6272
20
18.5466
0
VERTEX
8
CUT
10
195.3939
20
18.4698
0
VERTEX
8
CUT
10
195.6327
20
18.1730
0
VERTEX
8
CUT
10
195.6921
20
17.1482
0
VERTEX
8
CUT
10
195.1084
20
16.6456
0
VERTEX
8
CUT
10
195.0645
20
16.2502
0
VERTEX
8
CUT
10
196.2179
20
15.1129
0
VERTEX
8
CUT
10
197.2367
20
14.8413
0
VERTEX
8
CUT
10
197.8431
20
14.0044
0
VERTEX
8
CUT
10
199.1336
20
13.7123
0
VERTEX
8
CUT
10
200.4656
20
12.9620
0
VERTEX
8
CUT
10
202.4888
20
10.9164
0
VERTEX
8
CUT
10
202.8857
20
10.2927
0
VERTEX
8
CUT
10
202.8408
20
9.8933
0
VERTEX
8
CUT
10
202.5408
20
9.6790
0
VERTEX
8
CUT
10
200.9874
20
9.0712
0
VERTEX
8
CUT
10
200.9439
20
9.0542
0
VERTEX
8
CUT
10
200.8450
20
9.0155
0
VERTEX
8
CUT
10
199.0867
20
8.3276
0
VERTEX
8
CUT
10
196.8185
20
7.5912
0
VERTEX
8
CUT
10
191.4945
20
6.0229
0
VERTEX
8
CUT
10
190.3906
20
5.6977
0
VERTEX
8
CUT
10
190.0341
20
5.5927
0
VERTEX
8
CUT
10
185.9549
20
4.3911
0
VERTEX
8
CUT
10
185.9296
20
4.3843
0
VERTEX
8
CUT
10
176.5213
20
2.4152
0
VERTEX
8
CUT
10
173.8644
20
1.9381
0
VERTEX
8
CUT
10
173.6067
20
1.8990
0
VERTEX
8
CUT
10
173.4201
20
1.8707
0
VERTEX
8
CUT
10
172.9398
20
1.7979
0
VERTEX
8
CUT
10
172.1698
20
1.6812
0
VERTEX
8
CUT
10
168.5019
20
1.1715
0
VERTEX
8
CUT
10
167.6125
20
1.0697
0
VERTEX
8
CUT
10
167.0984
20
1.0108
0
VERTEX
8
CUT
10
166.5819
20
0.9517
0
VERTEX
8
CUT
10
165.3177
20
0.8070
0
VERTEX
8
CUT
10
163.6038
20
0.6430
0
VERTEX
8
CUT
10
153.7927
20
0.0381
0
VERTEX
8
CUT
10
152.0789
20
0.0150
0
VERTEX
8
CUT
10
142.3366
20
0.1487
0
VERTEX
8
CUT
10
142.3163
20
0.1493
0
VERTEX
8
CUT
10
132.5935
20
1.0194
0
VERTEX
8
CUT
10
125.9237
20
2.0066
0
VERTEX
8
CUT
10
123.0784
20
2.4722
0
VERTEX
8
CUT
10
122.2380
20
2.6097
0
VERTEX
8
CUT
10
121.9458
20
2.6575
0
VERTEX
8
CUT
10
121.6665
20
2.7033
0
VERTEX
8
CUT
10
121.0919
20
2.8394
0
VERTEX
8
CUT
10
120.7580
20
3.2321
0
VERTEX
8
CUT
10
120.7801
20
3.6920
0
VERTEX
8
CUT
10
121.1253
20
4.0633
0
VERTEX
8
CUT
10
122.1061
20
4.4265
0
VERTEX
8
CUT
10
122.2912
20
5.1063
0
VERTEX
8
CUT
10
123.0453
20
6.0465
0
VERTEX
8
CUT
10
123.1530
20
6.7274
0
VERTEX
8
CUT
10
123.7672
20
7.3172
0
VERTEX
8
CUT
10
123.7870
20
8.0979
0
VERTEX
8
CUT
10
124.4028
20
8.8646
0
VERTEX
8
CUT
10
124.6242
20
9.6383
0
VERTEX
8
CUT
10
125.6243
20
10.6668
0
VERTEX
8
CUT
10
124.2118
20
13.1342
0
VERTEX
8
CUT
10
123.9401
20
14.1092
0
VERTEX
8
CUT
10
122.9615
20
15.4183
0
VERTEX
8
CUT
10
122.5782
20
15.4999
0
VERTEX
8
CUT
10
121.6097
20
15.0472
0
VERTEX
8
CUT
10
121.1031
20
15.0411
0
VERTEX
8
CUT
10
120.1916
20
16.0067
0
VERTEX
8
CUT
10
118.7428
20
17.0600
0
VERTEX
8
CUT
10
118.2775
20
17.0439
0
VERTEX
8
CUT
10
116.2728
20
14.6940
0
VERTEX
8
CUT
10
116.2909
20
9.8820
0
VERTEX
8
CUT
10
115.3479
20
8.8636
0
VERTEX
8
CUT
10
113.8484
20
8.0340
0
VERTEX
8
CUT
10
111.1717
20
5.6486
0
VERTEX
8
CUT
10
110.2858
20
5.4306
0
VERTEX
8
CUT
10
109.6789
20
5.5018
0
VERTEX
8
CUT
10
108.2028
20
5.9296
0
VERTEX
8
CUT
10
101.4544
20
8.0930
0
VERTEX
8
CUT
10
99.1912
20
8.8825
0
VERTEX
8
CUT
10
94.9943
20
10.9634
0
VERTEX
8
CUT
10
94.0328
20
11.1491
0
VERTEX
8
CUT
10
93.0153
20
11.6705
0
VERTEX
8
CUT
10
91.2050
20
12.0368
0
VERTEX
8
CUT
10
90.9274
20
12.1441
0
VERTEX
8
CUT
10
88.9153
20
12.9593
0
VERTEX
8
CUT
10
86.4735
20
14.1378
0
VERTEX
8
CUT
10
79.6538
20
17.4971
0
VERTEX
8
CUT
10
77.4829
20
18.6847
0
VERTEX
8
CUT
10
69.1393
20
23.5963
0
VERTEX
8
CUT
10
61.0914
20
29.1556
0
VERTEX
8
CUT
10
58.7846
20
30.9007
0
VERTEX
8
CUT
10
52.1709
20
36.3138
0
VERTEX
8
CUT
10
49.4626
20
38.6105
0
VERTEX
8
CUT
10
41.3743
20
46.4798
0
VERTEX
8
CUT
10
40.4034
20
47.5211
0
VERTEX
8
CUT
10
40.0708
20
48.2879
0
VERTEX
8
CUT
10
40.2344
20
48.6989
0
VERTEX
8
CUT
10
40.6960
20
48.9187
0
VERTEX
8
CUT
10
43.4719
20
49.2350
0
VERTEX
8
CUT
10
45.1065
20
49.7580
0
VERTEX
8
CUT
10
46.2875
20
50.2878
0
VERTEX
8
CUT
10
48.1335
20
51.5365
0
VERTEX
8
CUT
10
48.6496
20
51.5631
0
VERTEX
8
CUT
10
49.5889
20
51.9923
0
VERTEX
8
CUT
10
51.8702
20
52.3807
0
VERTEX
8
CUT
10
52.4254
20
53.2035
0
VERTEX
8
CUT
10
53.2594
20
53.7811
0
VERTEX
8
CUT
10
53.7987
20
55.8546
0
VERTEX
8
CUT
10
54.6641
20
56.2502
0
VERTEX
8
CUT
10
55.2626
20
56.9844
0
VERTEX
8
CUT
10
56.5323
20
57.6991
0
VERTEX
8
CUT
10
56.6338
20
58.5218
0
VERTEX
8
CUT
10
56.2629
20
58.8083
0
VERTEX
8
CUT
10
54.7548
20
58.2503
0
VERTEX
8
CUT
10
53.7901
20
58.6593
0
VERTEX
8
CUT
10
53.0799
20
57.8284
0
VERTEX
8
CUT
10
49.6200
20
56.9544
0
VERTEX
8
CUT
10
48.7351
20
56.9940
0
VERTEX
8
CUT
10
48.1614
20
57.7016
0
VERTEX
8
CUT
10
47.3137
20
57.3583
0
VERTEX
8
CUT
10
46.8569
20
57.4877
0
VERTEX
8
CUT
10
46.5669
20
59.0746
0
VERTEX
8
CUT
10
45.9226
20
60.0537
0
VERTEX
8
CUT
10
45.7378
20
60.9235
0
VERTEX
8
CUT
10
44.9203
20
62.2564
0
VERTEX
8
CUT
10
44.7736
20
62.8511
0
VERTEX
8
CUT
10
45.0306
20
63.0669
0
VERTEX
8
CUT
10
46.7258
20
62.9507
0
VERTEX
8
CUT
10
48.2861
20
63.2334
0
VERTEX
8
CUT
10
49.3278
20
62.9309
0
VERTEX
8
CUT
10
49.9873
20
63.5306
0
VERTEX
8
CUT
10
50.2638
20
64.2732
0
VERTEX
8
CUT
10
50.2782
20
65.0314
0
VERTEX
8
CUT
10
49.6788
20
66.5695
0
VERTEX
8
CUT
10
49.3088
20
68.2430
0
VERTEX
8
CUT
10
48.8598
20
69.1482
0
VERTEX
8
CUT
10
48.5318
20
69.2060
0
VERTEX
8
CUT
10
47.7871
20
68.8084
0
VERTEX
8
CUT
10
46.9182
20
68.9948
0
VERTEX
8
CUT
10
46.1385
20
68.0173
0
VERTEX
8
CUT
10
45.0795
20
67.7843
0
VERTEX
8
CUT
10
44.2012
20
66.9243
0
VERTEX
8
CUT
10
42.8361
20
66.2004
0
VERTEX
8
CUT
10
42.0906
20
66.1337
0
VERTEX
8
CUT
10
41.2739
20
65.7878
0
VERTEX
8
CUT
10
38.4289
20
65.9657
0
VERTEX
8
CUT
10
36.9168
20
65.6230
0
VERTEX
8
CUT
10
36.2957
20
65.2735
0
VERTEX
8
CUT
10
35.5768
20
65.2941
0
VERTEX
8
CUT
10
34.0271
20
64.6933
0
VERTEX
8
CUT
10
32.7856
20
65.0622
0
VERTEX
8
CUT
10
30.9473
20
65.2995
0
VERTEX
8
CUT
10
29.4222
20
65.8016
0
VERTEX
8
CUT
10
26.6077
20
65.9866
0
VERTEX
8
CUT
10
26.0630
20
66.3937
0
VERTEX
8
CUT
10
26.0049
20
68.2264
0
VERTEX
8
CUT
10
25.7782
20
68.9807
0
VERTEX
8
CUT
10
25.8537
20
70.1167
0
VERTEX
8
CUT
10
25.4147
20
70.7539
0
VERTEX
8
CUT
10
25.5721
20
71.1711
0
VERTEX
8
CUT
10
26.1979
20
71.1867
0
VERTEX
8
CUT
10
27.1836
20
70.5041
0
VERTEX
8
CUT
10
28.3185
20
70.4837
0
VERTEX
8
CUT
10
29.1992
20
71.2095
0
VERTEX
8
CUT
10
30.1934
20
70.9883
0
VERTEX
8
CUT
10
30.6021
20
71.0934
0
VERTEX
8
CUT
10
31.6585
20
71.8968
0
VERTEX
8
CUT
10
32.3339
20
72.7711
0
VERTEX
8
CUT
10
32.3930
20
73.2949
0
VERTEX
8
CUT
10
31.6441
20
74.0035
0
VERTEX
8
CUT
10
29.7118
20
74.7185
0
VERTEX
8
CUT
10
28.7538
20
74.8684
0
VERTEX
8
CUT
10
28.4518
20
75.4185
0
VERTEX
8
CUT
10
28.4479
20
76.4767
0
VERTEX
8
CUT
10
28.6661
20
76.7202
0
VERTEX
8
CUT
10
29.3418
20
76.6798
0
VERTEX
8
CUT
10
29.6173
20
76.8650
0
VERTEX
8
CUT
10
29.8132
20
79.5579
0
VERTEX
8
CUT
10
31.6075
20
81.8697
0
VERTEX
8
CUT
10
32.3505
20
83.4199
0
VERTEX
8
CUT
10
32.9833
20
84.1750
0
VERTEX
8
CUT
10
33.6519
20
86.2252
0
VERTEX
8
CUT
10
34.8591
20
88.6860
0
VERTEX
8
CUT
10
36.1034
20
89.9984
0
VERTEX
8
CUT
10
36.8682
20
91.3430
0
VERTEX
8
CUT
10
37.4057
20
91.8112
0
VERTEX
8
CUT
10
37.4929
20
93.0508
0
VERTEX
8
CUT
10
37.9522
20
93.4164
0
VERTEX
8
CUT
10
39.1911
20
93.4886
0
VERTEX
8
CUT
10
39.4661
20
93.6813
0
VERTEX
8
CUT
10
39.4657
20
95.6766
0
VERTEX
8
CUT
10
40.4877
20
96.5450
0
VERTEX
8
CUT
10
41.0928
20
97.9945
0
VERTEX
8
CUT
10
43.2228
20
100.5481
0
VERTEX
8
CUT
10
43.2924
20
101.5840
0
VERTEX
8
CUT
10
44.0659
20
102.2770
0
VERTEX
8
CUT
10
44.0281
20
102.5996
0
VERTEX
8
CUT
10
43.1668
20
103.7198
0
VERTEX
8
CUT
10
43.1777
20
105.1424
0
VERTEX
8
CUT
10
44.5804
20
106.7395
0
VERTEX
8
CUT
10
45.4233
20
108.2707
0
VERTEX
8
CUT
10
47.6887
20
110.4369
0
VERTEX
8
CUT
10
48.1669
20
111.3721
0
VERTEX
8
CUT
10
48.2421
20
112.5301
0
VERTEX
8
CUT
10
47.8989
20
112.7900
0
VERTEX
8
CUT
10
45.5631
20
112.6645
0
VERTEX
8
CUT
10
44.2108
20
112.8002
0
VERTEX
8
CUT
10
43.9808
20
113.0474
0
VERTEX
8
CUT
10
43.7962
20
114.0514
0
VERTEX
8
CUT
10
42.5499
20
114.3109
0
VERTEX
8
CUT
10
41.2133
20
115.3073
0
VERTEX
8
CUT
10
38.5250
20
114.6566
0
VERTEX
8
CUT
10
36.4765
20
113.5683
0
VERTEX
8
CUT
10
32.3922
20
109.8019
0
VERTEX
8
CUT
10
28.9272
20
107.0901
0
VERTEX
8
CUT
10
24.9163
20
104.6764
0
VERTEX
8
CUT
10
22.6961
20
104.0800
0
VERTEX
8
CUT
10
21.9628
20
102.3284
0
VERTEX
8
CUT
10
19.8586
20
101.9162
0
VERTEX
8
CUT
10
18.4261
20
100.7501
0
VERTEX
8
CUT
10
17.9103
20
99.6541
0
VERTEX
8
CUT
10
17.0305
20
99.2117
0
VERTEX
8
CUT
10
16.8360
20
97.3069
0
VERTEX
8
CUT
10
15.4678
20
95.8003
0
VERTEX
8
CUT
10
14.9133
20
94.8226
0
VERTEX
8
CUT
10
15.5237
20
92.0640
0
VERTEX
8
CUT
10
15.4624
20
91.5423
0
VERTEX
8
CUT
10
15.0676
20
90.8886
0
VERTEX
8
CUT
10
14.9872
20
89.9513
0
VERTEX
8
CUT
10
14.0056
20
88.4780
0
VERTEX
8
CUT
10
13.5691
20
88.3140
0
VERTEX
8
CUT
10
13.2098
20
88.5443
0
VERTEX
8
CUT
10
12.5536
20
89.6778
0
VERTEX
8
CUT
10
10.0338
20
96.1182
0
VERTEX
8
CUT
10
9.8512
20
96.5849
0
VERTEX
8
CUT
10
8.9333
20
98.9310
0
VERTEX
8
CUT
10
8.2818
20
100.5960
0
VERTEX
8
CUT
10
7.2956
20
103.6528
0
VERTEX
8
CUT
10
6.1044
20
107.6978
0
VERTEX
8
CUT
10
5.3447
20
110.2773
0
VERTEX
8
CUT
10
5.1138
20
111.0615
0
VERTEX
8
CUT
10
4.8471
20
111.9670
0
VERTEX
8
CUT
10
3.9560
20
115.5190
0
VERTEX
8
CUT
10
1.4381
20
128.3353
0
VERTEX
8
CUT
10
1.2492
20
130.0154
0
VERTEX
8
CUT
10
1.0150
20
132.5355
0
VERTEX
8
CUT
10
0.8594
20
134.2091
0
VERTEX
8
CUT
10
0.8221
20
134.6106
0
VERTEX
8
CUT
10
0.7030
20
135.8924
0
VERTEX
8
CUT
10
1.5223
20
138.1641
0
VERTEX
8
CUT
10
2.0360
20
138.7143
0
VERTEX
8
CUT
10
3.7318
20
138.5959
0
VERTEX
8
CUT
10
4.3313
20
137.9632
0
VERTEX
8
CUT
10
5.3644
20
137.5703
0
VERTEX
8
CUT
10
6.2845
20
138.2905
0
VERTEX
8
CUT
10
6.2905
20
139.2200
0
VERTEX
8
CUT
10
7.1852
20
139.9119
0
VERTEX
8
CUT
10
7.6168
20
141.1572
0
VERTEX
8
CUT
10
8.6646
20
142.8863
0
VERTEX
8
CUT
10
9.2253
20
143.3135
0
VERTEX
8
CUT
10
10.5004
20
143.8420
0
VERTEX
8
CUT
10
11.2906
20
145.1864
0
VERTEX
8
CUT
10
12.2270
20
146.1241
0
VERTEX
8
CUT
10
12.2714
20
147.0404
0
VERTEX
8
CUT
10
11.9187
20
148.1219
0
VERTEX
8
CUT
10
12.2059
20
150.8220
0
VERTEX
8
CUT
10
12.6101
20
151.3958
0
VERTEX
8
CUT
10
13.6967
20
151.8278
0
VERTEX
8
CUT
10
14.9487
20
151.3273
0
VERTEX
8
CUT
10
15.5385
20
152.2363
0
VERTEX
8
CUT
10
17.3058
20
152.8385
0
VERTEX
8
CUT
10
19.0736
20
153.0558
0
VERTEX
8
CUT
10
20.3712
20
152.8715
0
VERTEX
8
CUT
10
21.4648
20
153.9954
0
VERTEX
8
CUT
10
22.1178
20
154.2459
0
VERTEX
8
CUT
10
23.4291
20
154.1760
0
VERTEX
8
CUT
10
24.0476
20
153.4424
0
VERTEX
8
CUT
10
24.3266
20
153.3535
0
VERTEX
8
CUT
10
26.4977
20
154.6964
0
VERTEX
8
CUT
10
27.2288
20
154.6292
0
VERTEX
8
CUT
10
28.1258
20
154.2173
0
VERTEX
8
CUT
10
28.9209
20
154.6925
0
VERTEX
8
CUT
10
30.5737
20
154.8348
0
VERTEX
8
CUT
10
31.9215
20
155.1942
0
VERTEX
8
CUT
10
34.4690
20
155.1572
0
VERTEX
8
CUT
10
36.7771
20
157.2420
0
VERTEX
8
CUT
10
38.2062
20
157.9011
0
VERTEX
8
CUT
10
39.8107
20
158.1688
0
VERTEX
8
CUT
10
41.4218
20
157.6568
0
VERTEX
8
CUT
10
42.5573
20
157.6590
0
VERTEX
8
CUT
10
43.3088
20
158.4793
0
VERTEX
8
CUT
10
43.9228
20
159.9795
0
VERTEX
8
CUT
10
43.4586
20
160.7627
0
VERTEX
8
CUT
10
43.6572
20
161.9334
0
VERTEX
8
CUT
10
43.5770
20
163.4410
0
VERTEX
8
CUT
10
43.3410
20
163.7512
0
VERTEX
8
CUT
10
42.4741
20
164.0692
0
VERTEX
8
CUT
10
42.1285
20
164.8283
0
VERTEX
8
CUT
10
41.8656
20
165.0142
0
VERTEX
8
CUT
10
39.9278
20
164.9009
0
VERTEX
8
CUT
10
38.5237
20
164.1593
0
VERTEX
8
CUT
10
36.8328
20
164.7213
0
VERTEX
8
CUT
10
36.4774
20
165.0215
0
VERTEX
8
CUT
10
35.9431
20
166.2008
0
VERTEX
8
CUT
10
34.5371
20
166.3848
0
VERTEX
8
CUT
10
34.3873
20
167.0836
0
VERTEX
8
CUT
10
34.1179
20
167.2876
0
VERTEX
8
CUT
10
32.8250
20
167.2349
0
VERTEX
8
CUT
10
32.2880
20
166.5532
0
VERTEX
8
CUT
10
31.6894
20
166.3696
0
VERTEX
8
CUT
10
29.8646
20
166.3741
0
VERTEX
8
CUT
10
28.9371
20
167.0975
0
VERTEX
8
CUT
10
28.1195
20
166.4523
0
VERTEX
8
CUT
10
26.6119
20
166.4152
0
VERTEX
8
CUT
10
25.7781
20
166.9704
0
VERTEX
8
CUT
10
25.1202
20
166.8154
0
VERTEX
8
CUT
10
20.4716
20
167.7109
0
VERTEX
8
CUT
10
18.0536
20
167.9033
0
VERTEX
8
CUT
10
16.6941
20
168.3509
0
VERTEX
8
CUT
10
14.6195
20
169.3772
0
VERTEX
8
CUT
10
12.7728
20
169.4716
0
VERTEX
8
CUT
10
11.5451
20
169.1985
0
VERTEX
8
CUT
10
11.1111
20
169.4368
0
VERTEX
8
CUT
10
10.7471
20
169.9709
0
VERTEX
8
CUT
10
9.9326
20
170.2112
0
VERTEX
8
CUT
10
8.9829
20
170.9598
0
VERTEX
8
CUT
10
5.2420
20
170.5682
0
VERTEX
8
CUT
10
1.7610
20
169.0357
0
VERTEX
8
CUT
10
1.4747
20
169.2343
0
VERTEX
8
CUT
10
1.3258
20
169.8757
0
VERTEX
8
CUT
10
1.6644
20
173.0679
0
VERTEX
8
CUT
10
1.8594
20
174.0137
0
VERTEX
8
CUT
10
2.3757
20
175.9939
0
VERTEX
8
CUT
10
2.7810
20
176.5479
0
VERTEX
8
CUT
10
4.1880
20
177.3641
0
VERTEX
8
CUT
10
4.9899
20
177.4372
0
VERTEX
8
CUT
10
5.6099
20
178.0095
0
SEQEND
0
ENDSEC
0
EOF
