0
SECTION
2
HEADER
9
$ACADVER
1
AC1009
9
$INSUNITS
70
4
0
ENDSEC
0
SECTION
2
TABLES
0
TABLE
2
LAYER
70
1
0
LAYER
2
CUT
70
0
62
7
6
CONTINUOUS
0
ENDTAB
0
ENDSEC
0
SECTION
2
ENTITIES
0
POLYLINE
8
CUT
66
1
70
1
10
0.0
20
0.0
30
0.0
0
VERTEX
8
CUT
10
106.1991
20
137.7942
0
VERTEX
8
CUT
10
107.6965
20
139.0895
0
VERTEX
8
CUT
10
108.8396
20
139.4364
0
VERTEX
8
CUT
10
110.1773
20
141.4509
0
VERTEX
8
CUT
10
111.5876
20
141.7341
0
VERTEX
8
CUT
10
112.5248
20
142.5964
0
VERTEX
8
CUT
10
113.6152
20
143.1958
0
VERTEX
8
CUT
10
113.9495
20
143.6705
0
VERTEX
8
CUT
10
114.0339
20
144.4928
0
VERTEX
8
CUT
10
114.8389
20
146.3614
0
VERTEX
8
CUT
10
114.7941
20
147.2755
0
VERTEX
8
CUT
10
113.3704
20
150.8433
0
VERTEX
8
CUT
10
111.6746
20
151.9934
0
VERTEX
8
CUT
10
111.6030
20
152.2949
0
VERTEX
8
CUT
10
111.8251
20
152.8312
0
VERTEX
8
CUT
10
112.5601
20
153.5308
0
VERTEX
8
CUT
10
113.8861
20
153.9806
0
VERTEX
8
CUT
10
115.9539
20
152.6193
0
VERTEX
8
CUT
10
116.8181
20
151.7975
0
VERTEX
8
CUT
10
117.6462
20
151.9239
0
VERTEX
8
CUT
10
118.9376
20
151.4491
0
VERTEX
8
CUT
10
119.8381
20
151.7826
0
VERTEX
8
CUT
10
120.6807
20
152.6669
0
VERTEX
8
CUT
10
120.6467
20
155.8306
0
VERTEX
8
CUT
10
120.2339
20
157.4705
0
VERTEX
8
CUT
10
119.9015
20
160.0804
0
VERTEX
8
CUT
10
120.5027
20
161.7129
0
VERTEX
8
CUT
10
120.6235
20
163.4385
0
VERTEX
8
CUT
10
120.2304
20
163.9602
0
VERTEX
8
CUT
10
119.1173
20
164.4799
0
VERTEX
8
CUT
10
117.3780
20
165.8635
0
VERTEX
8
CUT
10
118.0627
20
168.8909
0
VERTEX
8
CUT
10
118.7611
20
169.4136
0
VERTEX
8
CUT
10
119.7579
20
169.7382
0
VERTEX
8
CUT
10
121.1890
20
168.9846
0
VERTEX
8
CUT
10
122.0360
20
168.9099
0
VERTEX
8
CUT
10
122.7388
20
168.2144
0
VERTEX
8
CUT
10
125.5819
20
168.3898
0
VERTEX
8
CUT
10
125.9803
20
169.0070
0
VERTEX
8
CUT
10
127.8893
20
170.5836
0
VERTEX
8
CUT
10
128.8628
20
171.8675
0
VERTEX
8
CUT
10
128.9468
20
174.3247
0
VERTEX
8
CUT
10
127.8535
20
176.3834
0
VERTEX
8
CUT
10
127.9363
20
176.7658
0
VERTEX
8
CUT
10
128.2700
20
177.0972
0
VERTEX
8
CUT
10
130.3348
20
177.2594
0
VERTEX
8
CUT
10
131.7602
20
176.9800
0
VERTEX
8
CUT
10
133.6080
20
178.2814
0
VERTEX
8
CUT
10
135.4007
20
178.9308
0
VERTEX
8
CUT
10
136.6531
20
179.7499
0
VERTEX
8
CUT
10
137.7025
20
179.5399
0
VERTEX
8
CUT
10
138.3892
20
178.6845
0
VERTEX
8
CUT
10
139.8788
20
177.6102
0
VERTEX
8
CUT
10
141.2936
20
177.3683
0
VERTEX
8
CUT
10
142.1183
20
177.9280
0
VERTEX
8
CUT
10
144.1633
20
178.2847
0
VERTEX
8
CUT
10
145.2641
20
180.1222
0
VERTEX
8
CUT
10
145.7672
20
180.6342
0
VERTEX
8
CUT
10
146.4824
20
180.9723
0
VERTEX
8
CUT
10
147.0250
20
181.8428
0
VERTEX
8
CUT
10
148.7771
20
181.7983
0
VERTEX
8
CUT
10
149.5908
20
181.5345
0
VERTEX
8
CUT
10
150.2960
20
180.9922
0
VERTEX
8
CUT
10
150.7321
20
180.2522
0
VERTEX
8
CUT
10
150.8397
20
179.3405
0
VERTEX
8
CUT
10
151.3045
20
179.0687
0
VERTEX
8
CUT
10
152.8016
20
178.9040
0
VERTEX
8
CUT
10
153.6858
20
179.1474
0
VERTEX
8
CUT
10
154.8695
20
178.4378
0
VERTEX
8
CUT
10
156.6756
20
179.5001
0
VERTEX
8
CUT
10
158.1013
20
178.6483
0
VERTEX
8
CUT
10
158.9540
20
178.8690
0
VERTEX
8
CUT
10
159.3935
20
178.7904
0
VERTEX
8
CUT
10
159.7600
20
178.3156
0
VERTEX
8
CUT
10
159.9853
20
177.3047
0
VERTEX
8
CUT
10
161.3169
20
175.6488
0
VERTEX
8
CUT
10
161.4917
20
174.7598
0
VERTEX
8
CUT
10
162.4259
20
174.4036
0
VERTEX
8
CUT
10
162.9738
20
173.9216
0
VERTEX
8
CUT
10
164.3203
20
171.0879
0
VERTEX
8
CUT
10
167.2357
20
169.9514
0
VERTEX
8
CUT
10
168.7910
20
169.7355
0
VERTEX
8
CUT
10
170.2567
20
171.3009
0
VERTEX
8
CUT
10
171.9853
20
172.2003
0
VERTEX
8
CUT
10
172.8064
20
173.6827
0
VERTEX
8
CUT
10
173.1482
20
173.8558
0
VERTEX
8
CUT
10
173.5375
20
173.7692
0
VERTEX
8
CUT
10
173.9203
20
173.3656
0
VERTEX
8
CUT
10
174.1699
20
172.4234
0
VERTEX
8
CUT
10
174.3366
20
170.7052
0
VERTEX
8
CUT
10
174.2094
20
169.5038
0
VERTEX
8
CUT
10
174.8304
20
168.6926
0
VERTEX
8
CUT
10
175.2497
20
166.6596
0
VERTEX
8
CUT
10
175.9986
20
165.3912
0
VERTEX
8
CUT
10
177.6666
20
164.7715
0
VERTEX
8
CUT
10
181.6149
20
165.8385
0
VERTEX
8
CUT
10
182.0746
20
165.6811
0
VERTEX
8
CUT
10
182.4481
20
165.1605
0
VERTEX
8
CUT
10
182.3981
20
163.9493
0
VERTEX
8
CUT
10
181.1983
20
162.0850
0
VERTEX
8
CUT
10
180.0894
20
158.4009
0
VERTEX
8
CUT
10
179.3783
20
157.6139
0
VERTEX
8
CUT
10
179.1360
20
156.3540
0
VERTEX
8
CUT
10
180.2832
20
153.6012
0
VERTEX
8
CUT
10
180.4283
20
152.1475
0
VERTEX
8
CUT
10
180.2957
20
150.5212
0
VERTEX
8
CUT
10
179.7249
20
147.8620
0
VERTEX
8
CUT
10
178.1811
20
145.8511
0
VERTEX
8
CUT
10
177.6445
20
144.4608
0
VERTEX
8
CUT
10
177.7788
20
144.0908
0
VERTEX
8
CUT
10
178.5122
20
143.7777
0
VERTEX
8
CUT
10
178.6105
20
143.4251
0
VERTEX
8
CUT
10
177.9213
20
142.7958
0
VERTEX
8
CUT
10
177.9725
20
141.7710
0
VERTEX
8
CUT
10
177.7727
20
141.2472
0
VERTEX
8
CUT
10
176.8785
20
140.5612
0
VERTEX
8
CUT
10
176.0511
20
139.3846
0
VERTEX
8
CUT
10
175.5299
20
137.9727
0
VERTEX
8
CUT
10
174.8146
20
137.6206
0
VERTEX
8
CUT
10
174.5641
20
137.2022
0
VERTEX
8
CUT
10
174.3161
20
136.2195
0
VERTEX
8
CUT
10
174.2367
20
134.0051
0
VERTEX
8
CUT
10
174.0043
20
133.3108
0
VERTEX
8
CUT
10
172.9299
20
132.2460
0
VERTEX
8
CUT
10
169.2087
20
131.3835
0
VERTEX
8
CUT
10
168.8860
20
130.7129
0
VERTEX
8
CUT
10
168.2815
20
130.3006
0
VERTEX
8
CUT
10
167.9454
20
129.1769
0
VERTEX
8
CUT
10
166.6633
20
128.1808
0
VERTEX
8
CUT
10
166.2632
20
126.8745
0
VERTEX
8
CUT
10
164.4080
20
125.4598
0
VERTEX
8
CUT
10
162.3647
20
124.6793
0
VERTEX
8
CUT
10
161.6276
20
124.6494
0
VERTEX
8
CUT
10
160.9742
20
124.9184
0
VERTEX
8
CUT
10
160.6365
20
125.5953
0
VERTEX
8
CUT
10
160.2883
20
125.7313
0
VERTEX
8
CUT
10
159.1973
20
124.9794
0
VERTEX
8
CUT
10
158.2663
20
124.7867
0
VERTEX
8
CUT
10
157.8567
20
124.0630
0
VERTEX
8
CUT
10
157.1099
20
123.6314
0
VERTEX
8
CUT
10
157.1108
20
122.8277
0
VERTEX
8
CUT
10
156.3316
20
122.0013
0
VERTEX
8
CUT
10
156.3910
20
120.4932
0
VERTEX
8
CUT
10
155.4022
20
119.8469
0
VERTEX
8
CUT
10
155.1774
20
119.0122
0
VERTEX
8
CUT
10
154.9461
20
118.7948
0
VERTEX
8
CUT
10
153.8003
20
118.7481
0
VERTEX
8
CUT
10
153.0120
20
119.5361
0
VERTEX
8
CUT
10
151.6683
20
119.5477
0
VERTEX
8
CUT
10
150.6170
20
120.3823
0
VERTEX
8
CUT
10
150.2752
20
120.3275
0
VERTEX
8
CUT
10
149.5306
20
119.7492
0
VERTEX
8
CUT
10
148.5429
20
119.6530
0
VERTEX
8
CUT
10
147.2297
20
120.2087
0
VERTEX
8
CUT
10
145.4619
20
120.4097
0
VERTEX
8
CUT
10
144.1459
20
120.9368
0
VERTEX
8
CUT
10
142.3109
20
119.7497
0
VERTEX
8
CUT
10
140.8499
20
119.8190
0
VERTEX
8
CUT
10
140.0460
20
118.5541
0
VERTEX
8
CUT
10
137.8368
20
117.0276
0
VERTEX
8
CUT
10
137.3441
20
116.1036
0
VERTEX
8
CUT
10
136.9291
20
115.8632
0
VERTEX
8
CUT
10
136.3808
20
115.9513
0
VERTEX
8
CUT
10
135.3680
20
116.6060
0
VERTEX
8
CUT
10
133.7413
20
116.5594
0
VERTEX
8
CUT
10
132.8877
20
117.1678
0
VERTEX
8
CUT
10
131.1050
20
115.9697
0
VERTEX
8
CUT
10
130.3435
20
115.2418
0
VERTEX
8
CUT
10
129.3319
20
115.2910
0
VERTEX
8
CUT
10
128.7791
20
114.9119
0
VERTEX
8
CUT
10
127.9151
20
114.7820
0
VERTEX
8
CUT
10
126.3302
20
113.7156
0
VERTEX
8
CUT
10
125.7845
20
113.8967
0
VERTEX
8
CUT
10
124.7563
20
114.9688
0
VERTEX
8
CUT
10
124.0101
20
114.7241
0
VERTEX
8
CUT
10
123.2529
20
115.0960
0
VERTEX
8
CUT
10
122.2982
20
114.4804
0
VERTEX
8
CUT
10
121.7514
20
114.4477
0
VERTEX
8
CUT
10
120.5584
20
115.4112
0
VERTEX
8
CUT
10
118.6525
20
115.4037
0
VERTEX
8
CUT
10
117.9921
20
115.7972
0
VERTEX
8
CUT
10
117.9117
20
116.1990
0
VERTEX
8
CUT
10
118.2977
20
116.9546
0
VERTEX
8
CUT
10
118.0197
20
117.5705
0
VERTEX
8
CUT
10
117.5327
20
118.1200
0
VERTEX
8
CUT
10
116.6003
20
118.4539
0
VERTEX
8
CUT
10
115.8823
20
118.9656
0
VERTEX
8
CUT
10
115.7611
20
119.8893
0
VERTEX
8
CUT
10
114.3849
20
121.6517
0
VERTEX
8
CUT
10
114.3055
20
122.9471
0
VERTEX
8
CUT
10
113.7788
20
123.6582
0
VERTEX
8
CUT
10
113.5118
20
124.5992
0
VERTEX
8
CUT
10
113.6480
20
126.1095
0
VERTEX
8
CUT
10
112.5466
20
127.0929
0
VERTEX
8
CUT
10
111.5605
20
127.2415
0
VERTEX
8
CUT
10
109.9731
20
128.4775
0
VERTEX
8
CUT
10
108.1324
20
130.6871
0
VERTEX
8
CUT
10
107.7406
20
131.4757
0
VERTEX
8
CUT
10
106.9053
20
132.3779
0
VERTEX
8
CUT
10
106.7774
20
135.1845
0
VERTEX
8
CUT
10
106.1058
20
136.5396
0
SEQEND
0
ENDSEC
0
EOF
