0
SECTION
2
HEADER
9
$ACADVER
1
AC1009
9
$INSUNITS
70
4
0
ENDSEC
0
SECTION
2
TABLES
0
TABLE
2
LAYER
70
1
0
LAYER
2
CUT
70
0
62
7
6
CONTINUOUS
0
ENDTAB
0
ENDSEC
0
SECTION
2
ENTITIES
0
POLYLINE
8
CUT
66
1
70
1
10
0.0
20
0.0
30
0.0
0
VERTEX
8
CUT
10
68.3499
20
145.6441
0
VERTEX
8
CUT
10
69.3192
20
145.9398
0
VERTEX
8
CUT
10
69.4262
20
146.6588
0
VERTEX
8
CUT
10
69.6699
20
146.9500
0
VERTEX
8
CUT
10
70.0679
20
146.8067
0
VERTEX
8
CUT
10
70.3185
20
146.0115
0
VERTEX
8
CUT
10
71.6524
20
145.7284
0
VERTEX
8
CUT
10
72.6600
20
146.2334
0
VERTEX
8
CUT
10
74.6193
20
146.4795
0
VERTEX
8
CUT
10
74.7061
20
146.7974
0
VERTEX
8
CUT
10
74.4924
20
147.4544
0
VERTEX
8
CUT
10
75.1815
20
147.6932
0
VERTEX
8
CUT
10
75.3539
20
147.9749
0
VERTEX
8
CUT
10
74.9231
20
148.8385
0
VERTEX
8
CUT
10
74.9290
20
149.3371
0
VERTEX
8
CUT
10
75.2110
20
149.7544
0
VERTEX
8
CUT
10
76.3664
20
150.4157
0
VERTEX
8
CUT
10
76.3739
20
151.6299
0
VERTEX
8
CUT
10
77.4040
20
152.4199
0
VERTEX
8
CUT
10
77.4133
20
153.4209
0
VERTEX
8
CUT
10
77.8434
20
154.0911
0
VERTEX
8
CUT
10
77.4964
20
154.6638
0
VERTEX
8
CUT
10
77.4060
20
155.6373
0
VERTEX
8
CUT
10
76.7290
20
157.8460
0
VERTEX
8
CUT
10
77.1555
20
159.5446
0
VERTEX
8
CUT
10
76.6165
20
161.8758
0
VERTEX
8
CUT
10
75.8888
20
162.6110
0
VERTEX
8
CUT
10
75.3490
20
163.6614
0
VERTEX
8
CUT
10
74.7721
20
163.7282
0
VERTEX
8
CUT
10
72.6611
20
164.5929
0
VERTEX
8
CUT
10
72.1644
20
165.8009
0
VERTEX
8
CUT
10
71.6591
20
166.4324
0
VERTEX
8
CUT
10
71.6288
20
167.2111
0
VERTEX
8
CUT
10
70.8828
20
167.8540
0
VERTEX
8
CUT
10
70.6962
20
168.6600
0
VERTEX
8
CUT
10
69.8661
20
168.9672
0
VERTEX
8
CUT
10
69.4545
20
169.5334
0
VERTEX
8
CUT
10
68.4865
20
170.1448
0
VERTEX
8
CUT
10
68.3174
20
170.6120
0
VERTEX
8
CUT
10
69.2137
20
171.1457
0
VERTEX
8
CUT
10
69.5135
20
171.8501
0
VERTEX
8
CUT
10
71.0486
20
172.8589
0
VERTEX
8
CUT
10
72.0783
20
172.3992
0
VERTEX
8
CUT
10
74.6380
20
170.5001
0
VERTEX
8
CUT
10
76.1334
20
169.7420
0
VERTEX
8
CUT
10
79.3016
20
171.0468
0
VERTEX
8
CUT
10
80.1195
20
172.1621
0
VERTEX
8
CUT
10
81.2748
20
171.6389
0
VERTEX
8
CUT
10
81.7840
20
172.2129
0
VERTEX
8
CUT
10
82.8893
20
172.6295
0
VERTEX
8
CUT
10
83.2691
20
173.3404
0
VERTEX
8
CUT
10
84.2753
20
174.0413
0
VERTEX
8
CUT
10
83.8643
20
174.9923
0
VERTEX
8
CUT
10
83.9633
20
175.5452
0
VERTEX
8
CUT
10
84.8799
20
175.6758
0
VERTEX
8
CUT
10
85.5577
20
176.6749
0
VERTEX
8
CUT
10
86.4931
20
177.4560
0
VERTEX
8
CUT
10
88.4853
20
178.1385
0
VERTEX
8
CUT
10
89.1200
20
179.4771
0
VERTEX
8
CUT
10
90.2769
20
179.6953
0
VERTEX
8
CUT
10
90.6185
20
180.6157
0
VERTEX
8
CUT
10
91.3544
20
181.1536
0
VERTEX
8
CUT
10
91.9506
20
182.6038
0
VERTEX
8
CUT
10
92.5553
20
183.2302
0
VERTEX
8
CUT
10
91.5685
20
186.3536
0
VERTEX
8
CUT
10
91.8583
20
187.9535
0
VERTEX
8
CUT
10
91.5438
20
188.6650
0
VERTEX
8
CUT
10
90.7792
20
188.7346
0
VERTEX
8
CUT
10
90.4864
20
189.2837
0
VERTEX
8
CUT
10
90.6318
20
189.9800
0
VERTEX
8
CUT
10
91.4405
20
190.3502
0
VERTEX
8
CUT
10
91.6830
20
192.3056
0
VERTEX
8
CUT
10
92.1141
20
193.3397
0
VERTEX
8
CUT
10
93.9076
20
193.7424
0
VERTEX
8
CUT
10
95.4579
20
193.6498
0
VERTEX
8
CUT
10
96.3278
20
194.7980
0
VERTEX
8
CUT
10
97.2759
20
195.4396
0
VERTEX
8
CUT
10
97.1254
20
196.1988
0
VERTEX
8
CUT
10
97.2351
20
196.5519
0
VERTEX
8
CUT
10
98.2896
20
196.8992
0
VERTEX
8
CUT
10
98.7526
20
197.8053
0
VERTEX
8
CUT
10
99.8306
20
197.8054
0
VERTEX
8
CUT
10
100.3042
20
198.9373
0
VERTEX
8
CUT
10
103.2001
20
201.8718
0
VERTEX
8
CUT
10
104.1207
20
203.0822
0
VERTEX
8
CUT
10
106.0934
20
203.5176
0
VERTEX
8
CUT
10
109.3763
20
203.6807
0
VERTEX
8
CUT
10
110.2874
20
204.0354
0
VERTEX
8
CUT
10
111.0722
20
203.2125
0
VERTEX
8
CUT
10
112.0469
20
203.1814
0
VERTEX
8
CUT
10
112.7490
20
203.9118
0
VERTEX
8
CUT
10
113.6978
20
204.1978
0
VERTEX
8
CUT
10
114.1737
20
204.7012
0
VERTEX
8
CUT
10
115.3161
20
204.3523
0
VERTEX
8
CUT
10
115.8244
20
205.2971
0
VERTEX
8
CUT
10
116.4340
20
205.5464
0
VERTEX
8
CUT
10
118.9474
20
204.6967
0
VERTEX
8
CUT
10
119.8244
20
205.3464
0
VERTEX
8
CUT
10
120.2038
20
205.3163
0
VERTEX
8
CUT
10
121.0363
20
204.7351
0
VERTEX
8
CUT
10
122.0105
20
205.2099
0
VERTEX
8
CUT
10
122.8638
20
204.1969
0
VERTEX
8
CUT
10
123.6184
20
204.3306
0
VERTEX
8
CUT
10
124.3506
20
203.7626
0
VERTEX
8
CUT
10
125.8912
20
203.4997
0
VERTEX
8
CUT
10
126.7122
20
203.9569
0
VERTEX
8
CUT
10
129.0296
20
204.4536
0
VERTEX
8
CUT
10
129.1618
20
205.0287
0
VERTEX
8
CUT
10
128.9555
20
206.7028
0
VERTEX
8
CUT
10
129.5907
20
208.1477
0
VERTEX
8
CUT
10
130.0154
20
208.4481
0
VERTEX
8
CUT
10
130.4541
20
208.2204
0
VERTEX
8
CUT
10
130.9995
20
207.3826
0
VERTEX
8
CUT
10
131.9470
20
207.0375
0
VERTEX
8
CUT
10
133.1201
20
205.9520
0
VERTEX
8
CUT
10
134.3134
20
207.1216
0
VERTEX
8
CUT
10
135.1256
20
208.4793
0
VERTEX
8
CUT
10
135.7814
20
208.9158
0
VERTEX
8
CUT
10
136.4716
20
208.8523
0
VERTEX
8
CUT
10
137.5734
20
207.9768
0
VERTEX
8
CUT
10
138.6169
20
207.9133
0
VERTEX
8
CUT
10
139.7981
20
207.1498
0
VERTEX
8
CUT
10
140.8742
20
207.8919
0
VERTEX
8
CUT
10
142.0707
20
208.1019
0
VERTEX
8
CUT
10
142.5836
20
208.9780
0
VERTEX
8
CUT
10
143.4116
20
209.0869
0
VERTEX
8
CUT
10
144.1743
20
209.7567
0
VERTEX
8
CUT
10
144.8173
20
209.9610
0
VERTEX
8
CUT
10
145.3632
20
209.8510
0
VERTEX
8
CUT
10
145.9117
20
209.2655
0
VERTEX
8
CUT
10
146.5740
20
209.0618
0
VERTEX
8
CUT
10
147.2753
20
208.0361
0
VERTEX
8
CUT
10
148.3640
20
208.5333
0
VERTEX
8
CUT
10
149.3588
20
208.1243
0
VERTEX
8
CUT
10
149.9227
20
208.7992
0
VERTEX
8
CUT
10
150.6805
20
208.8086
0
VERTEX
8
CUT
10
151.1959
20
209.1135
0
VERTEX
8
CUT
10
152.2367
20
210.3643
0
VERTEX
8
CUT
10
152.4374
20
212.0194
0
VERTEX
8
CUT
10
152.1080
20
214.7372
0
VERTEX
8
CUT
10
152.2690
20
215.1638
0
VERTEX
8
CUT
10
152.7268
20
215.5052
0
VERTEX
8
CUT
10
153.3500
20
215.0562
0
VERTEX
8
CUT
10
153.7707
20
213.9329
0
VERTEX
8
CUT
10
154.1188
20
213.5581
0
VERTEX
8
CUT
10
154.5831
20
213.3467
0
VERTEX
8
CUT
10
155.4663
20
213.3876
0
VERTEX
8
CUT
10
156.4546
20
212.7176
0
VERTEX
8
CUT
10
156.8686
20
212.7967
0
VERTEX
8
CUT
10
157.3058
20
213.4631
0
VERTEX
8
CUT
10
157.7856
20
213.7101
0
VERTEX
8
CUT
10
159.3201
20
214.1561
0
VERTEX
8
CUT
10
159.6798
20
214.0199
0
VERTEX
8
CUT
10
159.8782
20
212.6483
0
VERTEX
8
CUT
10
159.7144
20
211.6339
0
VERTEX
8
CUT
10
159.8934
20
210.9443
0
VERTEX
8
CUT
10
159.1679
20
209.3077
0
VERTEX
8
CUT
10
159.1628
20
207.3434
0
VERTEX
8
CUT
10
159.6891
20
206.0022
0
VERTEX
8
CUT
10
160.6245
20
204.6628
0
VERTEX
8
CUT
10
161.2938
20
204.3674
0
VERTEX
8
CUT
10
161.8408
20
203.6739
0
VERTEX
8
CUT
10
162.9364
20
203.6267
0
VERTEX
8
CUT
10
163.9845
20
202.9405
0
VERTEX
8
CUT
10
165.1791
20
202.8382
0
VERTEX
8
CUT
10
165.7186
20
202.4022
0
VERTEX
8
CUT
10
166.5610
20
202.3142
0
VERTEX
8
CUT
10
167.4435
20
201.3025
0
VERTEX
8
CUT
10
168.4070
20
201.2766
0
VERTEX
8
CUT
10
169.6028
20
200.6623
0
VERTEX
8
CUT
10
171.5672
20
201.0421
0
VERTEX
8
CUT
10
172.8941
20
200.2229
0
VERTEX
8
CUT
10
173.5587
20
200.0518
0
VERTEX
8
CUT
10
174.0034
20
200.1523
0
VERTEX
8
CUT
10
175.3857
20
201.4050
0
VERTEX
8
CUT
10
175.5725
20
202.1560
0
VERTEX
8
CUT
10
176.5816
20
204.1362
0
VERTEX
8
CUT
10
177.0495
20
205.8866
0
VERTEX
8
CUT
10
178.0619
20
207.5905
0
VERTEX
8
CUT
10
178.5028
20
207.6323
0
VERTEX
8
CUT
10
179.4620
20
206.8640
0
VERTEX
8
CUT
10
181.0963
20
207.8108
0
VERTEX
8
CUT
10
181.8447
20
207.9601
0
VERTEX
8
CUT
10
182.0439
20
208.2279
0
VERTEX
8
CUT
10
182.0450
20
209.0572
0
VERTEX
8
CUT
10
182.7898
20
209.4904
0
VERTEX
8
CUT
10
182.6491
20
210.2399
0
VERTEX
8
CUT
10
182.8500
20
210.6294
0
VERTEX
8
CUT
10
184.0925
20
211.2884
0
VERTEX
8
CUT
10
185.7695
20
211.3039
0
VERTEX
8
CUT
10
186.3135
20
212.0133
0
VERTEX
8
CUT
10
187.1520
20
212.1483
0
VERTEX
8
CUT
10
187.5813
20
212.8429
0
VERTEX
8
CUT
10
188.6712
20
212.8760
0
VERTEX
8
CUT
10
189.3680
20
213.6847
0
VERTEX
8
CUT
10
190.9343
20
214.9122
0
VERTEX
8
CUT
10
191.4931
20
215.1883
0
VERTEX
8
CUT
10
191.8743
20
215.0879
0
VERTEX
8
CUT
10
192.2130
20
214.7017
0
VERTEX
8
CUT
10
192.4348
20
213.7799
0
VERTEX
8
CUT
10
193.2470
20
212.6167
0
VERTEX
8
CUT
10
194.0592
20
210.2818
0
VERTEX
8
CUT
10
195.9228
20
207.9888
0
VERTEX
8
CUT
10
196.9195
20
205.7192
0
VERTEX
8
CUT
10
197.9346
20
205.4452
0
VERTEX
8
CUT
10
199.1128
20
204.5669
0
VERTEX
8
CUT
10
199.6746
20
203.5839
0
VERTEX
8
CUT
10
200.7037
20
203.2243
0
VERTEX
8
CUT
10
201.3686
20
202.0967
0
VERTEX
8
CUT
10
202.3503
20
201.6283
0
VERTEX
8
CUT
10
202.7725
20
200.7792
0
VERTEX
8
CUT
10
203.6113
20
200.0808
0
VERTEX
8
CUT
10
202.8316
20
199.1629
0
VERTEX
8
CUT
10
203.0878
20
198.2328
0
VERTEX
8
CUT
10
202.8437
20
197.5775
0
VERTEX
8
CUT
10
200.9243
20
195.2672
0
VERTEX
8
CUT
10
199.8375
20
194.6063
0
VERTEX
8
CUT
10
200.1143
20
193.3023
0
VERTEX
8
CUT
10
200.0032
20
192.5807
0
VERTEX
8
CUT
10
198.8654
20
191.5268
0
VERTEX
8
CUT
10
199.6986
20
188.9183
0
VERTEX
8
CUT
10
200.8660
20
188.2833
0
VERTEX
8
CUT
10
201.6218
20
187.3235
0
VERTEX
8
CUT
10
202.2623
20
187.0415
0
VERTEX
8
CUT
10
202.8722
20
186.0733
0
VERTEX
8
CUT
10
206.3066
20
185.8919
0
VERTEX
8
CUT
10
207.3090
20
185.5494
0
VERTEX
8
CUT
10
207.9077
20
184.8654
0
VERTEX
8
CUT
10
208.0334
20
184.4152
0
VERTEX
8
CUT
10
207.5413
20
182.6571
0
VERTEX
8
CUT
10
207.5664
20
182.0371
0
VERTEX
8
CUT
10
208.1784
20
181.4888
0
VERTEX
8
CUT
10
208.6269
20
180.7601
0
VERTEX
8
CUT
10
211.1043
20
179.1423
0
VERTEX
8
CUT
10
211.8741
20
178.8281
0
VERTEX
8
CUT
10
213.1978
20
178.7563
0
VERTEX
8
CUT
10
214.5864
20
179.2552
0
VERTEX
8
CUT
10
215.0470
20
180.1023
0
VERTEX
8
CUT
10
216.8037
20
181.3551
0
VERTEX
8
CUT
10
218.4081
20
184.5369
0
VERTEX
8
CUT
10
219.0034
20
185.2190
0
VERTEX
8
CUT
10
219.9172
20
185.8165
0
VERTEX
8
CUT
10
221.3438
20
185.9739
0
VERTEX
8
CUT
10
222.5410
20
185.6544
0
VERTEX
8
CUT
10
223.1454
20
183.9065
0
VERTEX
8
CUT
10
224.1286
20
183.1081
0
VERTEX
8
CUT
10
224.1862
20
182.1782
0
VERTEX
8
CUT
10
224.7180
20
181.7173
0
VERTEX
8
CUT
10
225.4148
20
180.6306
0
VERTEX
8
CUT
10
226.4347
20
179.7824
0
VERTEX
8
CUT
10
226.8354
20
179.6716
0
VERTEX
8
CUT
10
227.2897
20
179.7904
0
VERTEX
8
CUT
10
228.5563
20
180.6519
0
VERTEX
8
CUT
10
228.8242
20
181.6355
0
VERTEX
8
CUT
10
229.0845
20
181.8623
0
VERTEX
8
CUT
10
230.0626
20
182.1072
0
VERTEX
8
CUT
10
232.1067
20
182.2009
0
VERTEX
8
CUT
10
232.6718
20
183.2158
0
VERTEX
8
CUT
10
234.7607
20
185.4652
0
VERTEX
8
CUT
10
236.9109
20
185.9063
0
VERTEX
8
CUT
10
239.4306
20
185.9886
0
VERTEX
8
CUT
10
239.6905
20
186.1994
0
VERTEX
8
CUT
10
239.8158
20
186.7750
0
VERTEX
8
CUT
10
240.2859
20
186.9833
0
VERTEX
8
CUT
10
241.1503
20
186.8632
0
VERTEX
8
CUT
10
241.8978
20
186.3931
0
VERTEX
8
CUT
10
243.2054
20
186.9664
0
VERTEX
8
CUT
10
243.8358
20
186.9659
0
VERTEX
8
CUT
10
244.2196
20
186.5844
0
VERTEX
8
CUT
10
244.3533
20
185.9452
0
VERTEX
8
CUT
10
243.5158
20
183.5696
0
VERTEX
8
CUT
10
244.6830
20
182.9350
0
VERTEX
8
CUT
10
245.4218
20
182.1291
0
VERTEX
8
CUT
10
245.9940
20
180.1878
0
VERTEX
8
CUT
10
246.6477
20
179.3372
0
VERTEX
8
CUT
10
246.7958
20
178.7186
0
VERTEX
8
CUT
10
246.6770
20
178.1243
0
VERTEX
8
CUT
10
245.9673
20
176.9528
0
VERTEX
8
CUT
10
245.4789
20
173.9670
0
VERTEX
8
CUT
10
245.0001
20
173.1302
0
VERTEX
8
CUT
10
244.2309
20
172.3409
0
VERTEX
8
CUT
10
244.5839
20
171.4148
0
VERTEX
8
CUT
10
244.5569
20
170.3997
0
VERTEX
8
CUT
10
243.5976
20
169.8498
0
VERTEX
8
CUT
10
243.6164
20
167.8519
0
VERTEX
8
CUT
10
243.9572
20
166.5698
0
VERTEX
8
CUT
10
243.4188
20
165.1335
0
VERTEX
8
CUT
10
243.4931
20
164.7059
0
VERTEX
8
CUT
10
243.7140
20
164.4997
0
VERTEX
8
CUT
10
244.2715
20
164.5253
0
VERTEX
8
CUT
10
244.5650
20
164.3418
0
VERTEX
8
CUT
10
244.6125
20
163.9566
0
VERTEX
8
CUT
10
244.2549
20
163.0078
0
VERTEX
8
CUT
10
245.2826
20
162.3612
0
VERTEX
8
CUT
10
245.2930
20
161.6973
0
VERTEX
8
CUT
10
245.4790
20
161.4259
0
VERTEX
8
CUT
10
246.5020
20
160.9530
0
VERTEX
8
CUT
10
247.8571
20
160.7716
0
VERTEX
8
CUT
10
248.6768
20
159.9157
0
VERTEX
8
CUT
10
249.9734
20
159.5389
0
VERTEX
8
CUT
10
251.0937
20
159.9128
0
VERTEX
8
CUT
10
252.8237
20
159.8729
0
VERTEX
8
CUT
10
253.1899
20
159.0434
0
VERTEX
8
CUT
10
253.8746
20
158.9074
0
VERTEX
8
CUT
10
255.1284
20
157.9236
0
VERTEX
8
CUT
10
256.2398
20
157.3341
0
VERTEX
8
CUT
10
256.5393
20
156.1751
0
VERTEX
8
CUT
10
256.1674
20
154.3930
0
VERTEX
8
CUT
10
255.8600
20
153.9415
0
VERTEX
8
CUT
10
255.1727
20
153.5413
0
VERTEX
8
CUT
10
254.6816
20
153.6401
0
VERTEX
8
CUT
10
253.8379
20
154.5427
0
VERTEX
8
CUT
10
253.1265
20
154.6638
0
VERTEX
8
CUT
10
252.6456
20
155.0593
0
VERTEX
8
CUT
10
252.3166
20
155.0395
0
VERTEX
8
CUT
10
252.1299
20
154.8112
0
VERTEX
8
CUT
10
252.1401
20
153.3059
0
VERTEX
8
CUT
10
252.5346
20
150.2290
0
VERTEX
8
CUT
10
252.1124
20
149.3705
0
VERTEX
8
CUT
10
250.8156
20
147.7325
0
VERTEX
8
CUT
10
250.5319
20
146.0627
0
VERTEX
8
CUT
10
250.7064
20
143.4039
0
VERTEX
8
CUT
10
250.9981
20
142.9097
0
VERTEX
8
CUT
10
251.8686
20
142.2478
0
VERTEX
8
CUT
10
251.7344
20
141.7349
0
VERTEX
8
CUT
10
250.3126
20
141.4347
0
VERTEX
8
CUT
10
249.2664
20
142.1887
0
VERTEX
8
CUT
10
248.2631
20
142.3288
0
VERTEX
8
CUT
10
247.1936
20
141.5799
0
VERTEX
8
CUT
10
245.3057
20
141.2518
0
VERTEX
8
CUT
10
244.0228
20
141.4988
0
VERTEX
8
CUT
10
243.2633
20
141.2678
0
VERTEX
8
CUT
10
241.6688
20
141.5482
0
VERTEX
8
CUT
10
239.4437
20
141.1035
0
VERTEX
8
CUT
10
236.6384
20
141.8955
0
VERTEX
8
CUT
10
236.1121
20
141.8037
0
VERTEX
8
CUT
10
235.4699
20
141.2704
0
VERTEX
8
CUT
10
234.6614
20
141.4402
0
VERTEX
8
CUT
10
232.9092
20
141.1262
0
VERTEX
8
CUT
10
230.5061
20
140.0096
0
VERTEX
8
CUT
10
229.5263
20
139.2248
0
VERTEX
8
CUT
10
228.7743
20
138.3170
0
VERTEX
8
CUT
10
228.3817
20
137.4011
0
VERTEX
8
CUT
10
227.1078
20
136.7682
0
VERTEX
8
CUT
10
226.0030
20
134.9659
0
VERTEX
8
CUT
10
225.4812
20
133.7116
0
VERTEX
8
CUT
10
220.7275
20
133.7151
0
VERTEX
8
CUT
10
219.9474
20
133.1275
0
VERTEX
8
CUT
10
218.9811
20
133.2293
0
VERTEX
8
CUT
10
218.4250
20
132.3002
0
VERTEX
8
CUT
10
217.5998
20
132.4273
0
VERTEX
8
CUT
10
217.1377
20
131.4025
0
VERTEX
8
CUT
10
215.9095
20
130.8024
0
VERTEX
8
CUT
10
212.8366
20
130.4020
0
VERTEX
8
CUT
10
212.6323
20
130.1018
0
VERTEX
8
CUT
10
212.7145
20
129.2596
0
VERTEX
8
CUT
10
211.7270
20
128.8096
0
VERTEX
8
CUT
10
211.4894
20
128.2188
0
VERTEX
8
CUT
10
210.8638
20
127.6813
0
VERTEX
8
CUT
10
210.5868
20
127.0753
0
VERTEX
8
CUT
10
210.2278
20
126.9753
0
VERTEX
8
CUT
10
209.7175
20
127.2444
0
VERTEX
8
CUT
10
209.4177
20
127.2032
0
VERTEX
8
CUT
10
208.8199
20
126.2387
0
VERTEX
8
CUT
10
207.3924
20
125.0324
0
VERTEX
8
CUT
10
206.6356
20
124.6314
0
VERTEX
8
CUT
10
206.1176
20
123.1410
0
VERTEX
8
CUT
10
205.2574
20
122.2817
0
VERTEX
8
CUT
10
204.2306
20
121.8114
0
VERTEX
8
CUT
10
203.6573
20
120.9650
0
VERTEX
8
CUT
10
202.9227
20
120.7006
0
VERTEX
8
CUT
10
202.8385
20
119.6154
0
VERTEX
8
CUT
10
202.2368
20
118.6931
0
VERTEX
8
CUT
10
201.4923
20
118.1703
0
VERTEX
8
CUT
10
201.5638
20
117.7322
0
VERTEX
8
CUT
10
202.2391
20
116.5978
0
VERTEX
8
CUT
10
202.6974
20
114.9079
0
VERTEX
8
CUT
10
203.5489
20
113.4320
0
VERTEX
8
CUT
10
204.2146
20
113.2592
0
VERTEX
8
CUT
10
204.7561
20
112.6520
0
VERTEX
8
CUT
10
205.5257
20
111.0350
0
VERTEX
8
CUT
10
205.7045
20
110.2362
0
VERTEX
8
CUT
10
206.3124
20
109.4611
0
VERTEX
8
CUT
10
206.6074
20
107.5863
0
VERTEX
8
CUT
10
206.4586
20
107.0946
0
VERTEX
8
CUT
10
205.6991
20
106.4479
0
VERTEX
8
CUT
10
205.0892
20
105.3461
0
VERTEX
8
CUT
10
202.6703
20
103.0900
0
VERTEX
8
CUT
10
202.1541
20
102.2354
0
VERTEX
8
CUT
10
198.7834
20
101.8436
0
VERTEX
8
CUT
10
197.7163
20
102.7448
0
VERTEX
8
CUT
10
196.0908
20
103.6433
0
VERTEX
8
CUT
10
194.0676
20
103.4026
0
VERTEX
8
CUT
10
193.1906
20
102.9617
0
VERTEX
8
CUT
10
192.2894
20
102.8182
0
VERTEX
8
CUT
10
191.7533
20
101.9197
0
VERTEX
8
CUT
10
190.9373
20
101.2810
0
VERTEX
8
CUT
10
190.8930
20
100.4430
0
VERTEX
8
CUT
10
190.4750
20
99.8536
0
VERTEX
8
CUT
10
190.3379
20
99.2897
0
VERTEX
8
CUT
10
190.4400
20
98.1476
0
VERTEX
8
CUT
10
191.1349
20
96.4921
0
VERTEX
8
CUT
10
191.0132
20
95.9783
0
VERTEX
8
CUT
10
190.6645
20
95.6763
0
VERTEX
8
CUT
10
190.3266
20
95.6589
0
VERTEX
8
CUT
10
188.9767
20
96.4531
0
VERTEX
8
CUT
10
187.9864
20
97.5518
0
VERTEX
8
CUT
10
187.6916
20
97.6493
0
VERTEX
8
CUT
10
186.7522
20
97.1525
0
VERTEX
8
CUT
10
185.7927
20
97.0903
0
VERTEX
8
CUT
10
185.2634
20
95.8378
0
VERTEX
8
CUT
10
182.5923
20
95.7390
0
VERTEX
8
CUT
10
181.9589
20
96.5486
0
VERTEX
8
CUT
10
181.3331
20
96.2972
0
VERTEX
8
CUT
10
180.3115
20
96.2376
0
VERTEX
8
CUT
10
180.0150
20
95.9801
0
VERTEX
8
CUT
10
179.9490
20
95.3005
0
VERTEX
8
CUT
10
179.6827
20
95.1334
0
VERTEX
8
CUT
10
178.7495
20
95.1097
0
VERTEX
8
CUT
10
177.7193
20
95.5201
0
VERTEX
8
CUT
10
176.7521
20
94.3399
0
VERTEX
8
CUT
10
176.0140
20
94.2921
0
VERTEX
8
CUT
10
175.1542
20
94.6294
0
VERTEX
8
CUT
10
174.8878
20
94.4342
0
VERTEX
8
CUT
10
174.8586
20
93.8728
0
VERTEX
8
CUT
10
174.6617
20
93.6432
0
VERTEX
8
CUT
10
173.2321
20
93.7857
0
VERTEX
8
CUT
10
172.5098
20
93.0910
0
VERTEX
8
CUT
10
171.1049
20
92.9550
0
VERTEX
8
CUT
10
170.6826
20
92.3348
0
VERTEX
8
CUT
10
169.7570
20
91.8067
0
VERTEX
8
CUT
10
168.9570
20
90.9195
0
VERTEX
8
CUT
10
168.5009
20
89.6002
0
VERTEX
8
CUT
10
167.8617
20
88.7668
0
VERTEX
8
CUT
10
167.6304
20
87.5292
0
VERTEX
8
CUT
10
167.2538
20
87.0848
0
VERTEX
8
CUT
10
165.9621
20
86.3082
0
VERTEX
8
CUT
10
165.8273
20
85.6297
0
VERTEX
8
CUT
10
165.2085
20
84.2610
0
VERTEX
8
CUT
10
164.5363
20
83.3577
0
VERTEX
8
CUT
10
164.2810
20
82.5229
0
VERTEX
8
CUT
10
163.6492
20
81.9766
0
VERTEX
8
CUT
10
162.5372
20
82.2263
0
VERTEX
8
CUT
10
161.4807
20
82.7793
0
VERTEX
8
CUT
10
160.7174
20
83.4433
0
VERTEX
8
CUT
10
160.1995
20
84.3963
0
VERTEX
8
CUT
10
159.0866
20
84.5592
0
VERTEX
8
CUT
10
157.2580
20
84.0179
0
VERTEX
8
CUT
10
155.1756
20
82.1386
0
VERTEX
8
CUT
10
154.4496
20
82.7382
0
VERTEX
8
CUT
10
152.5888
20
83.6325
0
VERTEX
8
CUT
10
151.8189
20
83.5954
0
VERTEX
8
CUT
10
150.7774
20
83.1824
0
VERTEX
8
CUT
10
148.7697
20
83.2468
0
VERTEX
8
CUT
10
148.5525
20
84.3318
0
VERTEX
8
CUT
10
148.6017
20
85.4988
0
VERTEX
8
CUT
10
149.1253
20
86.5890
0
VERTEX
8
CUT
10
150.6130
20
88.5905
0
VERTEX
8
CUT
10
150.5304
20
88.8776
0
VERTEX
8
CUT
10
150.0273
20
89.2783
0
VERTEX
8
CUT
10
150.1801
20
90.0539
0
VERTEX
8
CUT
10
149.8969
20
90.3934
0
VERTEX
8
CUT
10
142.5400
20
90.5527
0
VERTEX
8
CUT
10
140.4645
20
90.2971
0
VERTEX
8
CUT
10
138.5448
20
89.5715
0
VERTEX
8
CUT
10
136.4538
20
87.1056
0
VERTEX
8
CUT
10
135.8330
20
86.6617
0
VERTEX
8
CUT
10
134.8471
20
86.3488
0
VERTEX
8
CUT
10
134.5148
20
85.5466
0
VERTEX
8
CUT
10
133.3035
20
85.4079
0
VERTEX
8
CUT
10
132.7070
20
84.7603
0
VERTEX
8
CUT
10
132.1662
20
84.6134
0
VERTEX
8
CUT
10
131.5691
20
84.7091
0
VERTEX
8
CUT
10
130.8297
20
85.1857
0
VERTEX
8
CUT
10
129.3865
20
85.0874
0
VERTEX
8
CUT
10
127.8726
20
83.5007
0
VERTEX
8
CUT
10
126.4093
20
80.6973
0
VERTEX
8
CUT
10
126.3141
20
79.9110
0
VERTEX
8
CUT
10
124.4357
20
77.4444
0
VERTEX
8
CUT
10
123.4816
20
76.8888
0
VERTEX
8
CUT
10
122.7833
20
75.8763
0
VERTEX
8
CUT
10
121.6135
20
75.3207
0
VERTEX
8
CUT
10
121.1711
20
74.6352
0
VERTEX
8
CUT
10
120.5721
20
74.5205
0
VERTEX
8
CUT
10
119.8375
20
74.0615
0
VERTEX
8
CUT
10
119.0975
20
73.9599
0
VERTEX
8
CUT
10
118.6122
20
73.1005
0
VERTEX
8
CUT
10
118.0032
20
72.6599
0
VERTEX
8
CUT
10
116.7853
20
72.4955
0
VERTEX
8
CUT
10
116.4094
20
71.6117
0
VERTEX
8
CUT
10
115.0068
20
70.5483
0
VERTEX
8
CUT
10
114.5086
20
69.8617
0
VERTEX
8
CUT
10
109.4188
20
69.8068
0
VERTEX
8
CUT
10
108.8707
20
67.5021
0
VERTEX
8
CUT
10
107.7816
20
65.8104
0
VERTEX
8
CUT
10
108.2546
20
64.7265
0
VERTEX
8
CUT
10
107.3212
20
64.1218
0
VERTEX
8
CUT
10
107.1429
20
63.5976
0
VERTEX
8
CUT
10
107.2744
20
62.7988
0
VERTEX
8
CUT
10
106.7548
20
62.2380
0
VERTEX
8
CUT
10
106.4388
20
60.8420
0
VERTEX
8
CUT
10
105.9567
20
60.5750
0
VERTEX
8
CUT
10
105.3909
20
60.8144
0
VERTEX
8
CUT
10
104.9540
20
61.6148
0
VERTEX
8
CUT
10
104.9515
20
65.0226
0
VERTEX
8
CUT
10
104.7570
20
65.3450
0
VERTEX
8
CUT
10
98.9763
20
65.5323
0
VERTEX
8
CUT
10
96.1867
20
67.9010
0
VERTEX
8
CUT
10
95.0112
20
68.4399
0
VERTEX
8
CUT
10
93.4129
20
69.7705
0
VERTEX
8
CUT
10
92.8623
20
70.4740
0
VERTEX
8
CUT
10
91.9838
20
70.6702
0
VERTEX
8
CUT
10
90.7353
20
71.5445
0
VERTEX
8
CUT
10
89.9572
20
71.3634
0
VERTEX
8
CUT
10
88.8189
20
71.4842
0
VERTEX
8
CUT
10
88.1381
20
70.8134
0
VERTEX
8
CUT
10
87.7963
20
70.7246
0
VERTEX
8
CUT
10
87.3584
20
71.0725
0
VERTEX
8
CUT
10
87.1818
20
71.7691
0
VERTEX
8
CUT
10
87.1844
20
73.5816
0
VERTEX
8
CUT
10
87.4563
20
74.5725
0
VERTEX
8
CUT
10
88.0646
20
75.6634
0
VERTEX
8
CUT
10
88.7331
20
76.3509
0
VERTEX
8
CUT
10
88.9935
20
77.2002
0
VERTEX
8
CUT
10
90.1909
20
78.3932
0
VERTEX
8
CUT
10
90.2718
20
79.3748
0
VERTEX
8
CUT
10
91.0016
20
79.8257
0
VERTEX
8
CUT
10
92.6701
20
80.2437
0
VERTEX
8
CUT
10
94.2986
20
81.6424
0
VERTEX
8
CUT
10
95.2432
20
82.1346
0
VERTEX
8
CUT
10
95.3821
20
83.1405
0
VERTEX
8
CUT
10
95.8821
20
83.6411
0
VERTEX
8
CUT
10
96.2007
20
84.3511
0
VERTEX
8
CUT
10
95.9319
20
85.3710
0
VERTEX
8
CUT
10
96.6192
20
86.2084
0
VERTEX
8
CUT
10
97.1425
20
87.2964
0
VERTEX
8
CUT
10
97.5462
20
87.4865
0
VERTEX
8
CUT
10
98.3606
20
87.3047
0
VERTEX
8
CUT
10
100.4720
20
88.0091
0
VERTEX
8
CUT
10
100.8552
20
88.3544
0
VERTEX
8
CUT
10
100.9201
20
89.2473
0
VERTEX
8
CUT
10
101.8666
20
89.4734
0
VERTEX
8
CUT
10
103.1103
20
90.6536
0
VERTEX
8
CUT
10
104.2359
20
91.0620
0
VERTEX
8
CUT
10
104.2731
20
91.3578
0
VERTEX
8
CUT
10
103.5077
20
93.3120
0
VERTEX
8
CUT
10
102.5044
20
97.8681
0
VERTEX
8
CUT
10
101.2425
20
98.1813
0
VERTEX
8
CUT
10
100.4639
20
98.8951
0
VERTEX
8
CUT
10
99.6709
20
99.2032
0
VERTEX
8
CUT
10
97.9158
20
100.7357
0
VERTEX
8
CUT
10
96.0484
20
101.2420
0
VERTEX
8
CUT
10
94.4815
20
100.9628
0
VERTEX
8
CUT
10
93.8483
20
101.9709
0
VERTEX
8
CUT
10
92.8647
20
102.6221
0
VERTEX
8
CUT
10
93.1881
20
103.5087
0
VERTEX
8
CUT
10
93.0037
20
104.0946
0
VERTEX
8
CUT
10
92.1574
20
104.3282
0
VERTEX
8
CUT
10
91.6459
20
105.2569
0
VERTEX
8
CUT
10
90.4032
20
105.5994
0
VERTEX
8
CUT
10
90.0909
20
105.4999
0
VERTEX
8
CUT
10
89.4855
20
104.7979
0
VERTEX
8
CUT
10
87.3439
20
104.3119
0
VERTEX
8
CUT
10
87.2241
20
103.5425
0
VERTEX
8
CUT
10
86.9641
20
103.3147
0
VERTEX
8
CUT
10
85.3389
20
103.2190
0
VERTEX
8
CUT
10
83.6191
20
103.4050
0
VERTEX
8
CUT
10
82.1280
20
102.4078
0
VERTEX
8
CUT
10
81.0612
20
102.8127
0
VERTEX
8
CUT
10
80.7894
20
102.6098
0
VERTEX
8
CUT
10
80.7557
20
102.0309
0
VERTEX
8
CUT
10
80.4748
20
101.7290
0
VERTEX
8
CUT
10
80.1038
20
101.8994
0
VERTEX
8
CUT
10
79.8445
20
102.7553
0
VERTEX
8
CUT
10
78.8354
20
102.9866
0
VERTEX
8
CUT
10
78.0104
20
102.6276
0
VERTEX
8
CUT
10
77.5958
20
102.6500
0
VERTEX
8
CUT
10
76.5828
20
103.8842
0
VERTEX
8
CUT
10
74.0883
20
104.0492
0
VERTEX
8
CUT
10
73.3818
20
102.9133
0
VERTEX
8
CUT
10
72.6161
20
102.7217
0
VERTEX
8
CUT
10
72.0856
20
102.9944
0
VERTEX
8
CUT
10
72.2152
20
103.4424
0
VERTEX
8
CUT
10
72.8366
20
104.0921
0
VERTEX
8
CUT
10
72.8303
20
104.8440
0
VERTEX
8
CUT
10
73.3488
20
106.1126
0
VERTEX
8
CUT
10
72.9450
20
107.3456
0
VERTEX
8
CUT
10
73.0724
20
107.8080
0
VERTEX
8
CUT
10
73.8832
20
108.3138
0
VERTEX
8
CUT
10
75.2238
20
108.6395
0
VERTEX
8
CUT
10
77.3415
20
110.1430
0
VERTEX
8
CUT
10
78.4634
20
111.1979
0
VERTEX
8
CUT
10
79.1486
20
112.0981
0
VERTEX
8
CUT
10
80.2534
20
115.0525
0
VERTEX
8
CUT
10
80.9019
20
116.0053
0
VERTEX
8
CUT
10
80.6939
20
117.3202
0
VERTEX
8
CUT
10
80.7795
20
118.3806
0
VERTEX
8
CUT
10
81.1593
20
119.4173
0
VERTEX
8
CUT
10
82.0479
20
120.6988
0
VERTEX
8
CUT
10
81.9879
20
122.0201
0
VERTEX
8
CUT
10
80.8946
20
122.9802
0
VERTEX
8
CUT
10
80.4516
20
124.5273
0
VERTEX
8
CUT
10
79.6862
20
124.8700
0
VERTEX
8
CUT
10
79.4508
20
125.2858
0
VERTEX
8
CUT
10
79.6558
20
125.5977
0
VERTEX
8
CUT
10
80.2722
20
125.8353
0
VERTEX
8
CUT
10
80.3500
20
126.6822
0
VERTEX
8
CUT
10
81.1168
20
127.3090
0
VERTEX
8
CUT
10
80.8917
20
128.2605
0
VERTEX
8
CUT
10
81.0068
20
128.7899
0
VERTEX
8
CUT
10
81.9110
20
129.0966
0
VERTEX
8
CUT
10
82.1930
20
130.4012
0
VERTEX
8
CUT
10
82.8523
20
130.8645
0
VERTEX
8
CUT
10
82.5344
20
131.8311
0
VERTEX
8
CUT
10
82.5877
20
132.6867
0
VERTEX
8
CUT
10
83.8720
20
134.4149
0
VERTEX
8
CUT
10
83.4673
20
135.1134
0
VERTEX
8
CUT
10
82.4317
20
136.1807
0
VERTEX
8
CUT
10
82.0487
20
136.9897
0
VERTEX
8
CUT
10
80.8909
20
137.7093
0
VERTEX
8
CUT
10
80.1180
20
138.7385
0
VERTEX
8
CUT
10
79.7694
20
139.6310
0
VERTEX
8
CUT
10
77.7233
20
140.2933
0
VERTEX
8
CUT
10
76.9243
20
140.8901
0
VERTEX
8
CUT
10
76.4896
20
141.5884
0
VERTEX
8
CUT
10
75.4782
20
141.4673
0
VERTEX
8
CUT
10
73.3322
20
141.8329
0
VERTEX
8
CUT
10
69.6701
20
142.0411
0
VERTEX
8
CUT
10
69.3827
20
141.8767
0
VERTEX
8
CUT
10
68.9355
20
141.0552
0
VERTEX
8
CUT
10
68.2010
20
141.0096
0
VERTEX
8
CUT
10
67.9684
20
141.3159
0
VERTEX
8
CUT
10
68.0050
20
141.7287
0
VERTEX
8
CUT
10
68.8749
20
142.7160
0
VERTEX
8
CUT
10
68.4160
20
143.4261
0
VERTEX
8
CUT
10
68.5714
20
144.3650
0
VERTEX
8
CUT
10
67.9093
20
144.8107
0
VERTEX
8
CUT
10
67.7909
20
145.2036
0
SEQEND
0
ENDSEC
0
EOF
