0
SECTION
2
HEADER
9
$ACADVER
1
AC1009
9
$INSUNITS
70
4
0
ENDSEC
0
SECTION
2
TABLES
0
TABLE
2
LAYER
70
1
0
LAYER
2
CUT
70
0
62
7
6
CONTINUOUS
0
ENDTAB
0
ENDSEC
0
SECTION
2
ENTITIES
0
POLYLINE
8
CUT
66
1
70
1
10
0.0
20
0.0
30
0.0
0
VERTEX
8
CUT
10
121.1089
20
125.6160
0
VERTEX
8
CUT
10
120.9307
20
126.8952
0
VERTEX
8
CUT
10
120.2275
20
128.3296
0
VERTEX
8
CUT
10
118.6314
20
130.4238
0
VERTEX
8
CUT
10
116.2204
20
133.0014
0
VERTEX
8
CUT
10
116.0387
20
133.4889
0
VERTEX
8
CUT
10
116.5670
20
134.0000
0
VERTEX
8
CUT
10
118.4248
20
133.6023
0
VERTEX
8
CUT
10
120.2212
20
133.5925
0
VERTEX
8
CUT
10
123.0412
20
135.0049
0
VERTEX
8
CUT
10
125.5561
20
135.5643
0
VERTEX
8
CUT
10
127.2857
20
136.6825
0
VERTEX
8
CUT
10
129.9719
20
139.1251
0
VERTEX
8
CUT
10
129.9515
20
140.1199
0
VERTEX
8
CUT
10
130.3655
20
140.9233
0
VERTEX
8
CUT
10
130.6600
20
142.4398
0
VERTEX
8
CUT
10
131.4266
20
144.7186
0
VERTEX
8
CUT
10
131.4316
20
146.9392
0
VERTEX
8
CUT
10
130.8740
20
148.0426
0
VERTEX
8
CUT
10
131.0781
20
148.4742
0
VERTEX
8
CUT
10
131.7324
20
148.6911
0
VERTEX
8
CUT
10
131.9184
20
149.0145
0
VERTEX
8
CUT
10
131.8449
20
153.2066
0
VERTEX
8
CUT
10
133.2970
20
155.7333
0
VERTEX
8
CUT
10
133.2253
20
156.0667
0
VERTEX
8
CUT
10
132.4197
20
156.9082
0
VERTEX
8
CUT
10
132.0587
20
157.6080
0
VERTEX
8
CUT
10
131.9035
20
158.3306
0
VERTEX
8
CUT
10
132.0821
20
159.4055
0
VERTEX
8
CUT
10
130.8493
20
163.0689
0
VERTEX
8
CUT
10
131.1703
20
163.6703
0
VERTEX
8
CUT
10
131.5207
20
163.8592
0
VERTEX
8
CUT
10
133.1825
20
163.3470
0
VERTEX
8
CUT
10
134.1721
20
164.4493
0
VERTEX
8
CUT
10
134.8983
20
164.9520
0
VERTEX
8
CUT
10
134.8962
20
165.9246
0
VERTEX
8
CUT
10
135.9790
20
168.8951
0
VERTEX
8
CUT
10
137.5356
20
169.9525
0
VERTEX
8
CUT
10
140.1826
20
170.0375
0
VERTEX
8
CUT
10
141.8910
20
168.6201
0
VERTEX
8
CUT
10
142.5647
20
168.4294
0
VERTEX
8
CUT
10
144.4773
20
169.7705
0
VERTEX
8
CUT
10
145.8407
20
169.4558
0
VERTEX
8
CUT
10
147.0418
20
169.5022
0
VERTEX
8
CUT
10
151.3081
20
170.8283
0
VERTEX
8
CUT
10
152.5048
20
170.1000
0
VERTEX
8
CUT
10
153.6917
20
170.0857
0
VERTEX
8
CUT
10
154.1903
20
169.8581
0
VERTEX
8
CUT
10
155.6548
20
167.5681
0
VERTEX
8
CUT
10
157.7141
20
165.9321
0
VERTEX
8
CUT
10
158.8143
20
166.1876
0
VERTEX
8
CUT
10
159.3390
20
165.9716
0
VERTEX
8
CUT
10
159.8041
20
165.4042
0
VERTEX
8
CUT
10
160.1408
20
163.7425
0
VERTEX
8
CUT
10
162.1275
20
162.0130
0
VERTEX
8
CUT
10
163.7469
20
161.8072
0
VERTEX
8
CUT
10
164.7928
20
161.2989
0
VERTEX
8
CUT
10
167.5371
20
162.5356
0
VERTEX
8
CUT
10
168.1111
20
162.6177
0
VERTEX
8
CUT
10
168.5879
20
162.4503
0
VERTEX
8
CUT
10
168.7077
20
162.0379
0
VERTEX
8
CUT
10
168.5182
20
161.6200
0
VERTEX
8
CUT
10
166.3834
20
159.5960
0
VERTEX
8
CUT
10
166.1368
20
158.5997
0
VERTEX
8
CUT
10
166.1032
20
157.0504
0
VERTEX
8
CUT
10
166.2992
20
156.3327
0
VERTEX
8
CUT
10
167.7577
20
154.8018
0
VERTEX
8
CUT
10
167.7807
20
150.0321
0
VERTEX
8
CUT
10
168.6832
20
147.3993
0
VERTEX
8
CUT
10
168.6600
20
146.3102
0
VERTEX
8
CUT
10
167.3574
20
144.9683
0
VERTEX
8
CUT
10
166.0892
20
144.3260
0
VERTEX
8
CUT
10
165.1429
20
143.5809
0
VERTEX
8
CUT
10
163.9406
20
140.0274
0
VERTEX
8
CUT
10
162.9488
20
138.7005
0
VERTEX
8
CUT
10
161.2251
20
136.9946
0
VERTEX
8
CUT
10
160.2914
20
136.2572
0
VERTEX
8
CUT
10
159.1499
20
135.7886
0
VERTEX
8
CUT
10
158.2265
20
135.7989
0
VERTEX
8
CUT
10
157.5441
20
136.4780
0
VERTEX
8
CUT
10
157.1863
20
136.5113
0
VERTEX
8
CUT
10
154.2654
20
134.2134
0
VERTEX
8
CUT
10
154.2134
20
132.1536
0
VERTEX
8
CUT
10
153.0233
20
130.1013
0
VERTEX
8
CUT
10
152.8560
20
129.4055
0
VERTEX
8
CUT
10
152.8069
20
128.1560
0
VERTEX
8
CUT
10
153.1507
20
127.1265
0
VERTEX
8
CUT
10
152.2141
20
125.9064
0
VERTEX
8
CUT
10
151.6414
20
125.5207
0
VERTEX
8
CUT
10
151.1458
20
125.5330
0
VERTEX
8
CUT
10
149.8492
20
126.4805
0
VERTEX
8
CUT
10
149.3503
20
127.3674
0
VERTEX
8
CUT
10
146.7667
20
128.2043
0
VERTEX
8
CUT
10
142.5891
20
128.5952
0
VERTEX
8
CUT
10
140.3101
20
127.1613
0
VERTEX
8
CUT
10
139.4132
20
126.9576
0
VERTEX
8
CUT
10
138.5005
20
127.2694
0
VERTEX
8
CUT
10
137.7640
20
126.9365
0
VERTEX
8
CUT
10
137.3272
20
126.4870
0
VERTEX
8
CUT
10
137.0226
20
125.3920
0
VERTEX
8
CUT
10
136.1911
20
125.0157
0
VERTEX
8
CUT
10
135.5929
20
124.1006
0
VERTEX
8
CUT
10
133.7858
20
124.0611
0
VERTEX
8
CUT
10
132.6990
20
123.3565
0
VERTEX
8
CUT
10
130.9139
20
123.5737
0
VERTEX
8
CUT
10
129.0825
20
122.4886
0
VERTEX
8
CUT
10
126.8689
20
121.6794
0
VERTEX
8
CUT
10
124.6939
20
121.5957
0
VERTEX
8
CUT
10
123.6815
20
122.0382
0
VERTEX
8
CUT
10
122.6945
20
123.7210
0
VERTEX
8
CUT
10
121.4598
20
124.8640
0
SEQEND
0
ENDSEC
0
EOF
