0
SECTION
2
HEADER
9
$ACADVER
1
AC1009
9
$INSUNITS
70
4
0
ENDSEC
0
SECTION
2
TABLES
0
TABLE
2
LAYER
70
1
0
LAYER
2
CUT
70
0
62
7
6
CONTINUOUS
0
ENDTAB
0
ENDSEC
0
SECTION
2
ENTITIES
0
POLYLINE
8
CUT
66
1
70
1
10
0.0
20
0.0
30
0.0
0
VERTEX
8
CUT
10
18.1189
20
118.2292
0
VERTEX
8
CUT
10
17.7648
20
119.1187
0
VERTEX
8
CUT
10
19.9918
20
121.5835
0
VERTEX
8
CUT
10
22.5033
20
123.2993
0
VERTEX
8
CUT
10
24.5650
20
125.5044
0
VERTEX
8
CUT
10
25.4041
20
126.9374
0
VERTEX
8
CUT
10
26.5298
20
130.1311
0
VERTEX
8
CUT
10
29.3278
20
132.5273
0
VERTEX
8
CUT
10
30.2360
20
134.5383
0
VERTEX
8
CUT
10
31.1085
20
135.5789
0
VERTEX
8
CUT
10
31.2780
20
136.6067
0
VERTEX
8
CUT
10
31.9056
20
137.6892
0
VERTEX
8
CUT
10
32.1717
20
139.9066
0
VERTEX
8
CUT
10
30.6515
20
142.8230
0
VERTEX
8
CUT
10
30.1971
20
142.9282
0
VERTEX
8
CUT
10
28.8894
20
141.9371
0
VERTEX
8
CUT
10
27.6555
20
141.5826
0
VERTEX
8
CUT
10
27.1579
20
141.7289
0
VERTEX
8
CUT
10
26.8158
20
142.1159
0
VERTEX
8
CUT
10
26.8654
20
142.4483
0
VERTEX
8
CUT
10
27.3328
20
142.9335
0
VERTEX
8
CUT
10
28.1687
20
143.4405
0
VERTEX
8
CUT
10
28.9681
20
143.2768
0
VERTEX
8
CUT
10
29.7439
20
143.5427
0
VERTEX
8
CUT
10
30.2786
20
143.4522
0
VERTEX
8
CUT
10
30.8857
20
144.2079
0
VERTEX
8
CUT
10
32.1250
20
144.8034
0
VERTEX
8
CUT
10
32.8163
20
144.9045
0
VERTEX
8
CUT
10
33.5230
20
144.6072
0
VERTEX
8
CUT
10
34.5113
20
144.9063
0
VERTEX
8
CUT
10
36.5469
20
144.4650
0
VERTEX
8
CUT
10
39.7868
20
142.2661
0
VERTEX
8
CUT
10
40.9505
20
142.3480
0
VERTEX
8
CUT
10
42.1141
20
143.5806
0
VERTEX
8
CUT
10
42.7687
20
144.8224
0
VERTEX
8
CUT
10
43.8702
20
146.1265
0
VERTEX
8
CUT
10
44.1669
20
147.9371
0
VERTEX
8
CUT
10
44.7401
20
148.5708
0
VERTEX
8
CUT
10
45.5668
20
148.3050
0
VERTEX
8
CUT
10
47.7411
20
148.2413
0
VERTEX
8
CUT
10
48.4304
20
148.0417
0
VERTEX
8
CUT
10
48.8112
20
147.5882
0
VERTEX
8
CUT
10
49.2193
20
145.9867
0
VERTEX
8
CUT
10
50.2123
20
144.9640
0
VERTEX
8
CUT
10
50.8285
20
144.7548
0
VERTEX
8
CUT
10
53.8629
20
144.8549
0
VERTEX
8
CUT
10
55.8085
20
145.9794
0
VERTEX
8
CUT
10
56.3077
20
146.6130
0
VERTEX
8
CUT
10
56.6328
20
147.5619
0
VERTEX
8
CUT
10
56.4540
20
148.0462
0
VERTEX
8
CUT
10
55.1856
20
148.4362
0
VERTEX
8
CUT
10
54.7754
20
149.3888
0
VERTEX
8
CUT
10
53.9933
20
149.7689
0
VERTEX
8
CUT
10
52.9485
20
149.8655
0
VERTEX
8
CUT
10
52.2303
20
150.3788
0
VERTEX
8
CUT
10
51.6937
20
151.1663
0
VERTEX
8
CUT
10
51.4288
20
152.4541
0
VERTEX
8
CUT
10
50.9504
20
153.4454
0
VERTEX
8
CUT
10
51.0055
20
154.3923
0
VERTEX
8
CUT
10
51.5988
20
155.3645
0
VERTEX
8
CUT
10
52.5866
20
156.1515
0
VERTEX
8
CUT
10
53.6182
20
156.6675
0
VERTEX
8
CUT
10
54.4862
20
156.9067
0
VERTEX
8
CUT
10
55.7541
20
156.7783
0
VERTEX
8
CUT
10
56.4213
20
158.6914
0
VERTEX
8
CUT
10
56.0185
20
159.2704
0
VERTEX
8
CUT
10
54.9462
20
159.8885
0
VERTEX
8
CUT
10
52.6869
20
161.8130
0
VERTEX
8
CUT
10
51.5170
20
162.5299
0
VERTEX
8
CUT
10
50.3053
20
164.3729
0
VERTEX
8
CUT
10
50.1969
20
164.8561
0
VERTEX
8
CUT
10
50.3278
20
165.1809
0
VERTEX
8
CUT
10
51.7911
20
166.0249
0
VERTEX
8
CUT
10
52.0561
20
166.6780
0
VERTEX
8
CUT
10
51.8060
20
168.1874
0
VERTEX
8
CUT
10
49.3467
20
169.0881
0
VERTEX
8
CUT
10
48.6943
20
169.7400
0
VERTEX
8
CUT
10
49.2454
20
171.6569
0
VERTEX
8
CUT
10
49.9925
20
173.1872
0
VERTEX
8
CUT
10
49.6836
20
174.1589
0
VERTEX
8
CUT
10
49.7735
20
174.9637
0
VERTEX
8
CUT
10
49.2533
20
175.3172
0
VERTEX
8
CUT
10
47.5888
20
177.3823
0
VERTEX
8
CUT
10
47.2733
20
177.8707
0
VERTEX
8
CUT
10
47.1939
20
178.4581
0
VERTEX
8
CUT
10
46.6865
20
178.8127
0
VERTEX
8
CUT
10
45.2664
20
178.6332
0
VERTEX
8
CUT
10
43.3528
20
178.7870
0
VERTEX
8
CUT
10
42.6877
20
178.4668
0
VERTEX
8
CUT
10
41.9047
20
177.7526
0
VERTEX
8
CUT
10
40.8685
20
177.4712
0
VERTEX
8
CUT
10
38.3621
20
178.1585
0
VERTEX
8
CUT
10
35.7169
20
178.3366
0
VERTEX
8
CUT
10
35.4701
20
178.5696
0
VERTEX
8
CUT
10
35.7669
20
179.4928
0
VERTEX
8
CUT
10
35.4423
20
180.4572
0
VERTEX
8
CUT
10
35.8873
20
180.8395
0
VERTEX
8
CUT
10
36.5746
20
181.0125
0
VERTEX
8
CUT
10
37.4143
20
182.0122
0
VERTEX
8
CUT
10
37.4647
20
182.3717
0
VERTEX
8
CUT
10
37.0994
20
182.8360
0
VERTEX
8
CUT
10
37.3631
20
183.2739
0
VERTEX
8
CUT
10
37.8760
20
183.3567
0
VERTEX
8
CUT
10
38.0987
20
183.0503
0
VERTEX
8
CUT
10
38.0807
20
182.7937
0
VERTEX
8
CUT
10
37.5735
20
182.2738
0
VERTEX
8
CUT
10
37.9293
20
181.6728
0
VERTEX
8
CUT
10
37.7091
20
180.7675
0
VERTEX
8
CUT
10
37.9830
20
180.3940
0
VERTEX
8
CUT
10
38.8762
20
180.5762
0
VERTEX
8
CUT
10
38.9358
20
181.6263
0
VERTEX
8
CUT
10
39.8813
20
181.8097
0
VERTEX
8
CUT
10
40.1077
20
182.2885
0
VERTEX
8
CUT
10
40.0734
20
182.6420
0
VERTEX
8
CUT
10
39.4606
20
183.4664
0
VERTEX
8
CUT
10
38.7940
20
185.8895
0
VERTEX
8
CUT
10
38.1136
20
187.2467
0
VERTEX
8
CUT
10
38.1136
20
188.9151
0
VERTEX
8
CUT
10
38.8336
20
190.2839
0
VERTEX
8
CUT
10
38.9570
20
190.8800
0
VERTEX
8
CUT
10
38.2703
20
192.0312
0
VERTEX
8
CUT
10
38.3366
20
192.7827
0
VERTEX
8
CUT
10
37.2804
20
193.7560
0
VERTEX
8
CUT
10
37.2526
20
194.2029
0
VERTEX
8
CUT
10
37.4877
20
194.6861
0
VERTEX
8
CUT
10
38.2907
20
195.5119
0
VERTEX
8
CUT
10
39.1372
20
195.7006
0
VERTEX
8
CUT
10
40.1147
20
196.2066
0
VERTEX
8
CUT
10
40.8749
20
196.1977
0
VERTEX
8
CUT
10
41.7233
20
196.9874
0
VERTEX
8
CUT
10
42.3387
20
197.0692
0
VERTEX
8
CUT
10
42.7062
20
196.7289
0
VERTEX
8
CUT
10
42.4777
20
195.9424
0
VERTEX
8
CUT
10
42.7866
20
195.3783
0
VERTEX
8
CUT
10
46.1946
20
192.9080
0
VERTEX
8
CUT
10
48.2593
20
192.6428
0
VERTEX
8
CUT
10
50.0670
20
191.2700
0
VERTEX
8
CUT
10
54.7190
20
191.5853
0
VERTEX
8
CUT
10
55.6305
20
191.4547
0
VERTEX
8
CUT
10
56.9436
20
190.7562
0
VERTEX
8
CUT
10
59.0873
20
188.8856
0
VERTEX
8
CUT
10
61.6676
20
187.8721
0
VERTEX
8
CUT
10
62.6698
20
187.0814
0
VERTEX
8
CUT
10
63.0900
20
186.9556
0
VERTEX
8
CUT
10
64.8862
20
186.8909
0
VERTEX
8
CUT
10
65.7037
20
187.0995
0
VERTEX
8
CUT
10
66.0878
20
188.1920
0
VERTEX
8
CUT
10
67.5270
20
189.5060
0
VERTEX
8
CUT
10
68.2505
20
190.6806
0
VERTEX
8
CUT
10
68.1742
20
192.5094
0
VERTEX
8
CUT
10
67.2533
20
194.5431
0
VERTEX
8
CUT
10
66.6363
20
195.0992
0
VERTEX
8
CUT
10
66.6764
20
195.5150
0
VERTEX
8
CUT
10
67.1491
20
195.9308
0
VERTEX
8
CUT
10
69.4675
20
196.6467
0
VERTEX
8
CUT
10
69.7237
20
196.4185
0
VERTEX
8
CUT
10
70.0293
20
195.3734
0
VERTEX
8
CUT
10
71.1669
20
194.9800
0
VERTEX
8
CUT
10
72.9379
20
193.5704
0
VERTEX
8
CUT
10
73.9324
20
193.3094
0
VERTEX
8
CUT
10
74.4062
20
192.9150
0
VERTEX
8
CUT
10
74.7308
20
192.9662
0
VERTEX
8
CUT
10
77.1008
20
196.0860
0
VERTEX
8
CUT
10
77.2398
20
197.1060
0
VERTEX
8
CUT
10
77.8215
20
198.3853
0
VERTEX
8
CUT
10
79.3916
20
200.2879
0
VERTEX
8
CUT
10
80.1350
20
201.6849
0
VERTEX
8
CUT
10
79.9205
20
202.0241
0
VERTEX
8
CUT
10
77.6042
20
202.6586
0
VERTEX
8
CUT
10
76.1895
20
203.5437
0
VERTEX
8
CUT
10
74.1695
20
206.5461
0
VERTEX
8
CUT
10
74.0352
20
207.1209
0
VERTEX
8
CUT
10
74.1715
20
207.6840
0
VERTEX
8
CUT
10
79.3698
20
211.7669
0
VERTEX
8
CUT
10
80.6090
20
212.3548
0
VERTEX
8
CUT
10
82.2527
20
212.8324
0
VERTEX
8
CUT
10
83.6580
20
212.9809
0
VERTEX
8
CUT
10
85.6904
20
212.6763
0
VERTEX
8
CUT
10
86.4778
20
212.3561
0
VERTEX
8
CUT
10
88.5219
20
210.8648
0
VERTEX
8
CUT
10
89.9939
20
210.8074
0
VERTEX
8
CUT
10
90.6106
20
210.9963
0
VERTEX
8
CUT
10
90.4601
20
212.4253
0
VERTEX
8
CUT
10
88.4663
20
214.0914
0
VERTEX
8
CUT
10
87.1174
20
214.9424
0
VERTEX
8
CUT
10
86.4691
20
216.3035
0
VERTEX
8
CUT
10
84.5260
20
218.4472
0
VERTEX
8
CUT
10
83.9155
20
219.7380
0
VERTEX
8
CUT
10
83.7851
20
221.1090
0
VERTEX
8
CUT
10
84.0199
20
221.6798
0
VERTEX
8
CUT
10
85.4139
20
223.1876
0
VERTEX
8
CUT
10
85.3391
20
224.4789
0
VERTEX
8
CUT
10
85.5413
20
225.1589
0
VERTEX
8
CUT
10
85.8739
20
225.5587
0
VERTEX
8
CUT
10
86.4840
20
225.7886
0
VERTEX
8
CUT
10
86.6767
20
226.5535
0
VERTEX
8
CUT
10
87.8060
20
227.8581
0
VERTEX
8
CUT
10
88.6215
20
227.9265
0
VERTEX
8
CUT
10
89.3137
20
228.5345
0
VERTEX
8
CUT
10
90.3154
20
228.4358
0
VERTEX
8
CUT
10
91.2547
20
228.9455
0
VERTEX
8
CUT
10
92.7963
20
228.8428
0
VERTEX
8
CUT
10
93.0990
20
228.9745
0
VERTEX
8
CUT
10
93.4235
20
229.7928
0
VERTEX
8
CUT
10
93.2261
20
231.9193
0
VERTEX
8
CUT
10
93.6245
20
232.3010
0
VERTEX
8
CUT
10
94.4785
20
232.1653
0
VERTEX
8
CUT
10
95.8252
20
231.2442
0
VERTEX
8
CUT
10
97.6001
20
228.1719
0
VERTEX
8
CUT
10
98.5741
20
227.1799
0
VERTEX
8
CUT
10
98.8020
20
225.8376
0
VERTEX
8
CUT
10
99.6266
20
225.0557
0
VERTEX
8
CUT
10
99.9247
20
225.1118
0
VERTEX
8
CUT
10
101.3160
20
226.2983
0
VERTEX
8
CUT
10
101.9684
20
227.1692
0
VERTEX
8
CUT
10
103.1815
20
227.4002
0
VERTEX
8
CUT
10
103.3294
20
228.1149
0
VERTEX
8
CUT
10
103.5360
20
228.2841
0
VERTEX
8
CUT
10
104.1943
20
228.2158
0
VERTEX
8
CUT
10
104.9240
20
227.7154
0
VERTEX
8
CUT
10
105.7693
20
227.9050
0
VERTEX
8
CUT
10
106.0668
20
227.6499
0
VERTEX
8
CUT
10
106.3409
20
226.8163
0
VERTEX
8
CUT
10
107.3993
20
226.6623
0
VERTEX
8
CUT
10
109.3061
20
226.7502
0
VERTEX
8
CUT
10
110.1671
20
227.9087
0
VERTEX
8
CUT
10
111.7959
20
228.5981
0
VERTEX
8
CUT
10
114.2108
20
228.1502
0
VERTEX
8
CUT
10
114.6942
20
227.7407
0
VERTEX
8
CUT
10
115.3919
20
226.3965
0
VERTEX
8
CUT
10
115.7466
20
224.8868
0
VERTEX
8
CUT
10
116.4634
20
223.7227
0
VERTEX
8
CUT
10
116.7856
20
222.8086
0
VERTEX
8
CUT
10
117.6300
20
222.5394
0
VERTEX
8
CUT
10
118.8613
20
221.7089
0
VERTEX
8
CUT
10
119.1455
20
221.8201
0
VERTEX
8
CUT
10
120.3443
20
223.3619
0
VERTEX
8
CUT
10
120.7810
20
223.6486
0
VERTEX
8
CUT
10
122.3485
20
222.9236
0
VERTEX
8
CUT
10
123.5220
20
222.6469
0
VERTEX
8
CUT
10
124.2212
20
221.5704
0
VERTEX
8
CUT
10
124.8991
20
221.3784
0
VERTEX
8
CUT
10
125.2956
20
221.0497
0
VERTEX
8
CUT
10
125.4935
20
219.8107
0
VERTEX
8
CUT
10
125.9274
20
218.7566
0
VERTEX
8
CUT
10
125.6787
20
217.6322
0
VERTEX
8
CUT
10
125.9000
20
217.3851
0
VERTEX
8
CUT
10
126.5322
20
217.2239
0
VERTEX
8
CUT
10
128.2570
20
218.5089
0
VERTEX
8
CUT
10
129.7671
20
218.9084
0
VERTEX
8
CUT
10
130.2603
20
221.1737
0
VERTEX
8
CUT
10
131.4243
20
222.8806
0
VERTEX
8
CUT
10
131.4676
20
223.5236
0
VERTEX
8
CUT
10
130.8006
20
225.1420
0
VERTEX
8
CUT
10
130.5179
20
227.0276
0
VERTEX
8
CUT
10
129.7316
20
227.8225
0
VERTEX
8
CUT
10
129.8791
20
228.4745
0
VERTEX
8
CUT
10
130.4849
20
228.4023
0
VERTEX
8
CUT
10
131.0402
20
227.3828
0
VERTEX
8
CUT
10
132.6695
20
226.7531
0
VERTEX
8
CUT
10
134.7087
20
225.0004
0
VERTEX
8
CUT
10
135.4907
20
224.7234
0
VERTEX
8
CUT
10
135.7187
20
225.1251
0
VERTEX
8
CUT
10
135.2906
20
226.4756
0
VERTEX
8
CUT
10
135.1856
20
228.1986
0
VERTEX
8
CUT
10
135.8253
20
228.8105
0
VERTEX
8
CUT
10
135.8134
20
229.6701
0
VERTEX
8
CUT
10
136.9362
20
231.4008
0
VERTEX
8
CUT
10
137.4892
20
231.6242
0
VERTEX
8
CUT
10
138.6870
20
231.0461
0
VERTEX
8
CUT
10
139.9527
20
229.9969
0
VERTEX
8
CUT
10
140.8763
20
228.8964
0
VERTEX
8
CUT
10
141.4050
20
227.6797
0
VERTEX
8
CUT
10
141.7671
20
227.6049
0
VERTEX
8
CUT
10
142.0600
20
227.8475
0
VERTEX
8
CUT
10
141.8128
20
229.5710
0
VERTEX
8
CUT
10
141.7809
20
235.8581
0
VERTEX
8
CUT
10
141.2322
20
237.4192
0
VERTEX
8
CUT
10
141.4908
20
237.9052
0
VERTEX
8
CUT
10
141.9316
20
237.7956
0
VERTEX
8
CUT
10
142.8899
20
236.6346
0
VERTEX
8
CUT
10
143.0737
20
235.3568
0
VERTEX
8
CUT
10
143.7804
20
235.1105
0
VERTEX
8
CUT
10
145.2242
20
234.0309
0
VERTEX
8
CUT
10
145.9753
20
234.3921
0
VERTEX
8
CUT
10
146.4229
20
234.3793
0
VERTEX
8
CUT
10
146.8477
20
233.6692
0
VERTEX
8
CUT
10
147.1652
20
233.5282
0
VERTEX
8
CUT
10
148.0285
20
233.6951
0
VERTEX
8
CUT
10
148.9926
20
234.1695
0
VERTEX
8
CUT
10
149.6708
20
235.5116
0
VERTEX
8
CUT
10
150.3387
20
236.3282
0
VERTEX
8
CUT
10
151.0449
20
235.9952
0
VERTEX
8
CUT
10
151.7081
20
236.4515
0
VERTEX
8
CUT
10
152.3745
20
236.5347
0
VERTEX
8
CUT
10
153.9295
20
236.0028
0
VERTEX
8
CUT
10
154.3219
20
235.5880
0
VERTEX
8
CUT
10
154.5909
20
234.7520
0
VERTEX
8
CUT
10
156.7562
20
233.0424
0
VERTEX
8
CUT
10
158.6560
20
231.9220
0
VERTEX
8
CUT
10
160.3970
20
230.5054
0
VERTEX
8
CUT
10
161.9666
20
229.7459
0
VERTEX
8
CUT
10
162.4626
20
228.5236
0
VERTEX
8
CUT
10
164.2600
20
226.3507
0
VERTEX
8
CUT
10
164.9808
20
225.0224
0
VERTEX
8
CUT
10
165.8103
20
224.6218
0
VERTEX
8
CUT
10
166.6487
20
223.6829
0
VERTEX
8
CUT
10
167.1706
20
223.5501
0
VERTEX
8
CUT
10
167.4627
20
223.7633
0
VERTEX
8
CUT
10
167.7417
20
224.8601
0
VERTEX
8
CUT
10
168.8367
20
225.0514
0
VERTEX
8
CUT
10
169.4564
20
226.2898
0
VERTEX
8
CUT
10
170.1707
20
226.2427
0
VERTEX
8
CUT
10
170.7870
20
227.0159
0
VERTEX
8
CUT
10
172.5187
20
227.4991
0
VERTEX
8
CUT
10
172.9012
20
228.7639
0
VERTEX
8
CUT
10
172.3248
20
229.8383
0
VERTEX
8
CUT
10
174.4249
20
232.0914
0
VERTEX
8
CUT
10
174.4102
20
232.4810
0
VERTEX
8
CUT
10
173.9189
20
233.3205
0
VERTEX
8
CUT
10
174.3026
20
234.0631
0
VERTEX
8
CUT
10
174.0843
20
234.6548
0
VERTEX
8
CUT
10
174.2429
20
235.4807
0
VERTEX
8
CUT
10
174.1077
20
236.9788
0
VERTEX
8
CUT
10
173.6716
20
237.9516
0
VERTEX
8
CUT
10
173.4393
20
239.8992
0
VERTEX
8
CUT
10
173.0901
20
240.6482
0
VERTEX
8
CUT
10
173.1383
20
241.1051
0
VERTEX
8
CUT
10
172.5742
20
241.4864
0
VERTEX
8
CUT
10
172.4908
20
241.7746
0
VERTEX
8
CUT
10
172.9746
20
242.2791
0
VERTEX
8
CUT
10
174.9263
20
242.6212
0
VERTEX
8
CUT
10
175.0679
20
242.9119
0
VERTEX
8
CUT
10
174.9641
20
243.8533
0
VERTEX
8
CUT
10
175.1932
20
244.1843
0
VERTEX
8
CUT
10
175.7550
20
244.1742
0
VERTEX
8
CUT
10
176.2032
20
243.8163
0
VERTEX
8
CUT
10
176.3595
20
242.4903
0
VERTEX
8
CUT
10
175.8807
20
241.3652
0
VERTEX
8
CUT
10
176.6219
20
240.6834
0
VERTEX
8
CUT
10
177.8261
20
238.8207
0
VERTEX
8
CUT
10
178.4732
20
238.3248
0
VERTEX
8
CUT
10
180.3548
20
237.5753
0
VERTEX
8
CUT
10
181.1363
20
237.6390
0
VERTEX
8
CUT
10
182.4663
20
236.8055
0
VERTEX
8
CUT
10
183.4615
20
237.5288
0
VERTEX
8
CUT
10
183.8756
20
238.4638
0
VERTEX
8
CUT
10
184.4459
20
239.1107
0
VERTEX
8
CUT
10
184.0360
20
239.9215
0
VERTEX
8
CUT
10
183.9957
20
240.8373
0
VERTEX
8
CUT
10
183.5380
20
241.5981
0
VERTEX
8
CUT
10
183.6737
20
242.0817
0
VERTEX
8
CUT
10
184.1566
20
242.0891
0
VERTEX
8
CUT
10
184.7379
20
241.5234
0
VERTEX
8
CUT
10
185.3502
20
239.9937
0
VERTEX
8
CUT
10
185.2052
20
239.1471
0
VERTEX
8
CUT
10
185.8836
20
238.5435
0
VERTEX
8
CUT
10
186.2193
20
237.7640
0
VERTEX
8
CUT
10
186.6078
20
237.6654
0
VERTEX
8
CUT
10
186.8547
20
237.8866
0
VERTEX
8
CUT
10
187.0893
20
238.8938
0
VERTEX
8
CUT
10
187.3394
20
239.1940
0
VERTEX
8
CUT
10
188.2429
20
239.0668
0
VERTEX
8
CUT
10
189.3762
20
239.7260
0
VERTEX
8
CUT
10
190.3755
20
239.3513
0
VERTEX
8
CUT
10
191.3034
20
240.0139
0
VERTEX
8
CUT
10
192.3606
20
240.2596
0
VERTEX
8
CUT
10
193.3666
20
241.6533
0
VERTEX
8
CUT
10
193.9751
20
242.1374
0
VERTEX
8
CUT
10
195.6637
20
242.5977
0
VERTEX
8
CUT
10
195.7904
20
242.9742
0
VERTEX
8
CUT
10
195.4163
20
243.7601
0
VERTEX
8
CUT
10
195.5351
20
244.3778
0
VERTEX
8
CUT
10
195.0671
20
245.0605
0
VERTEX
8
CUT
10
195.3876
20
245.5412
0
VERTEX
8
CUT
10
195.9981
20
245.6311
0
VERTEX
8
CUT
10
196.6494
20
245.2120
0
VERTEX
8
CUT
10
198.0821
20
243.5351
0
VERTEX
8
CUT
10
199.5984
20
242.5937
0
VERTEX
8
CUT
10
200.5135
20
242.6560
0
VERTEX
8
CUT
10
202.8672
20
241.1058
0
VERTEX
8
CUT
10
205.4401
20
240.5879
0
VERTEX
8
CUT
10
205.6114
20
240.2529
0
VERTEX
8
CUT
10
205.4680
20
239.9521
0
VERTEX
8
CUT
10
204.5300
20
239.9122
0
VERTEX
8
CUT
10
204.2515
20
239.6148
0
VERTEX
8
CUT
10
204.5692
20
237.5809
0
VERTEX
8
CUT
10
204.8642
20
236.8551
0
VERTEX
8
CUT
10
205.9796
20
236.6124
0
VERTEX
8
CUT
10
206.8805
20
235.9861
0
VERTEX
8
CUT
10
208.1548
20
236.7533
0
VERTEX
8
CUT
10
209.7369
20
236.9361
0
VERTEX
8
CUT
10
210.1076
20
236.1922
0
VERTEX
8
CUT
10
210.9520
20
235.7732
0
VERTEX
8
CUT
10
211.4243
20
234.9902
0
VERTEX
8
CUT
10
212.3527
20
235.1776
0
VERTEX
8
CUT
10
213.5750
20
235.0609
0
VERTEX
8
CUT
10
214.8130
20
236.3134
0
VERTEX
8
CUT
10
216.1014
20
236.5858
0
VERTEX
8
CUT
10
216.9243
20
237.6588
0
VERTEX
8
CUT
10
217.3090
20
238.7712
0
VERTEX
8
CUT
10
220.0930
20
241.8784
0
VERTEX
8
CUT
10
220.3714
20
245.1971
0
VERTEX
8
CUT
10
220.8822
20
246.4595
0
VERTEX
8
CUT
10
221.4919
20
247.3360
0
VERTEX
8
CUT
10
221.7653
20
249.1634
0
VERTEX
8
CUT
10
222.3996
20
250.2686
0
VERTEX
8
CUT
10
222.4083
20
251.3046
0
VERTEX
8
CUT
10
222.7486
20
251.6225
0
VERTEX
8
CUT
10
223.8460
20
251.6028
0
VERTEX
8
CUT
10
224.5988
20
251.9963
0
VERTEX
8
CUT
10
225.5106
20
251.2436
0
VERTEX
8
CUT
10
226.3330
20
250.8841
0
VERTEX
8
CUT
10
226.4597
20
250.5846
0
VERTEX
8
CUT
10
226.1980
20
250.2034
0
VERTEX
8
CUT
10
225.1917
20
249.9072
0
VERTEX
8
CUT
10
225.3373
20
248.3794
0
VERTEX
8
CUT
10
224.4739
20
247.6504
0
VERTEX
8
CUT
10
224.6641
20
246.6291
0
VERTEX
8
CUT
10
223.5914
20
245.4108
0
VERTEX
8
CUT
10
223.5811
20
243.2984
0
VERTEX
8
CUT
10
224.5418
20
242.0585
0
VERTEX
8
CUT
10
224.6807
20
241.2826
0
VERTEX
8
CUT
10
223.1397
20
237.3137
0
VERTEX
8
CUT
10
223.2331
20
236.2946
0
VERTEX
8
CUT
10
223.6889
20
235.5897
0
VERTEX
8
CUT
10
223.2819
20
234.7301
0
VERTEX
8
CUT
10
223.2759
20
233.9273
0
VERTEX
8
CUT
10
221.5842
20
230.8531
0
VERTEX
8
CUT
10
222.0455
20
227.9889
0
VERTEX
8
CUT
10
221.5415
20
226.8467
0
VERTEX
8
CUT
10
222.7896
20
225.6382
0
VERTEX
8
CUT
10
225.4846
20
223.9779
0
VERTEX
8
CUT
10
226.1284
20
222.7660
0
VERTEX
8
CUT
10
226.1770
20
222.3115
0
VERTEX
8
CUT
10
224.0142
20
216.3788
0
VERTEX
8
CUT
10
222.6505
20
215.3511
0
VERTEX
8
CUT
10
221.0741
20
213.7748
0
VERTEX
8
CUT
10
220.1203
20
212.5853
0
VERTEX
8
CUT
10
219.3807
20
211.2642
0
VERTEX
8
CUT
10
218.6420
20
208.7619
0
VERTEX
8
CUT
10
218.4555
20
207.1028
0
VERTEX
8
CUT
10
218.0611
20
206.0748
0
VERTEX
8
CUT
10
218.0004
20
204.4774
0
VERTEX
8
CUT
10
218.3013
20
204.3349
0
VERTEX
8
CUT
10
219.1323
20
204.5242
0
VERTEX
8
CUT
10
219.4895
20
203.7885
0
VERTEX
8
CUT
10
219.7829
20
203.6437
0
VERTEX
8
CUT
10
220.2112
20
203.8357
0
VERTEX
8
CUT
10
220.6164
20
204.4262
0
VERTEX
8
CUT
10
221.0198
20
204.5400
0
VERTEX
8
CUT
10
221.4925
20
204.1617
0
VERTEX
8
CUT
10
222.5795
20
202.4283
0
VERTEX
8
CUT
10
223.0044
20
202.5149
0
VERTEX
8
CUT
10
223.2265
20
203.2690
0
VERTEX
8
CUT
10
223.5936
20
203.4852
0
VERTEX
8
CUT
10
224.8736
20
202.5186
0
VERTEX
8
CUT
10
225.8264
20
202.5169
0
VERTEX
8
CUT
10
226.7050
20
201.9855
0
VERTEX
8
CUT
10
227.1809
20
202.2213
0
VERTEX
8
CUT
10
227.7319
20
203.1056
0
VERTEX
8
CUT
10
228.4853
20
203.2314
0
VERTEX
8
CUT
10
229.1126
20
203.5833
0
VERTEX
8
CUT
10
232.9460
20
203.7866
0
VERTEX
8
CUT
10
234.6240
20
204.4746
0
VERTEX
8
CUT
10
234.9949
20
204.9633
0
VERTEX
8
CUT
10
235.1960
20
205.7436
0
VERTEX
8
CUT
10
236.8347
20
207.8328
0
VERTEX
8
CUT
10
237.3839
20
207.6728
0
VERTEX
8
CUT
10
238.7317
20
206.5404
0
VERTEX
8
CUT
10
240.1374
20
206.2134
0
VERTEX
8
CUT
10
241.0827
20
205.4995
0
VERTEX
8
CUT
10
241.9738
20
205.6193
0
VERTEX
8
CUT
10
242.4873
20
204.6183
0
VERTEX
8
CUT
10
242.7715
20
204.4499
0
VERTEX
8
CUT
10
243.4121
20
204.8086
0
VERTEX
8
CUT
10
244.2126
20
204.8460
0
VERTEX
8
CUT
10
245.5604
20
205.9117
0
VERTEX
8
CUT
10
248.7144
20
207.5168
0
VERTEX
8
CUT
10
250.2587
20
207.5101
0
VERTEX
8
CUT
10
251.8660
20
206.4070
0
VERTEX
8
CUT
10
253.2587
20
206.1854
0
VERTEX
8
CUT
10
253.8491
20
206.4589
0
VERTEX
8
CUT
10
256.4606
20
208.8796
0
VERTEX
8
CUT
10
258.6523
20
209.2234
0
VERTEX
8
CUT
10
259.8547
20
210.0185
0
VERTEX
8
CUT
10
260.3923
20
210.6612
0
VERTEX
8
CUT
10
260.0410
20
211.7188
0
VERTEX
8
CUT
10
260.2471
20
212.1026
0
VERTEX
8
CUT
10
261.3345
20
212.1028
0
VERTEX
8
CUT
10
262.7469
20
212.9337
0
VERTEX
8
CUT
10
266.0851
20
212.7135
0
VERTEX
8
CUT
10
267.4339
20
213.8950
0
VERTEX
8
CUT
10
268.0748
20
213.3613
0
VERTEX
8
CUT
10
268.3384
20
212.8820
0
VERTEX
8
CUT
10
268.1600
20
212.0915
0
VERTEX
8
CUT
10
268.4583
20
211.2968
0
VERTEX
8
CUT
10
268.2800
20
210.3166
0
VERTEX
8
CUT
10
268.3957
20
209.7382
0
VERTEX
8
CUT
10
269.0740
20
209.1834
0
VERTEX
8
CUT
10
270.1606
20
209.0832
0
VERTEX
8
CUT
10
271.8271
20
209.7639
0
VERTEX
8
CUT
10
272.9756
20
210.7668
0
VERTEX
8
CUT
10
273.0076
20
211.1720
0
VERTEX
8
CUT
10
272.3934
20
211.8677
0
VERTEX
8
CUT
10
272.5502
20
212.4005
0
VERTEX
8
CUT
10
273.0135
20
212.4355
0
VERTEX
8
CUT
10
273.7940
20
211.9597
0
VERTEX
8
CUT
10
274.4191
20
212.3175
0
VERTEX
8
CUT
10
275.3997
20
212.0835
0
VERTEX
8
CUT
10
276.2030
20
212.1341
0
VERTEX
8
CUT
10
277.0603
20
213.1420
0
VERTEX
8
CUT
10
277.1402
20
213.8097
0
VERTEX
8
CUT
10
277.6185
20
214.5207
0
VERTEX
8
CUT
10
278.6764
20
215.3820
0
VERTEX
8
CUT
10
279.4180
20
215.4573
0
VERTEX
8
CUT
10
279.7083
20
214.8976
0
VERTEX
8
CUT
10
278.5874
20
212.4796
0
VERTEX
8
CUT
10
278.5955
20
210.9101
0
VERTEX
8
CUT
10
279.7126
20
208.4211
0
VERTEX
8
CUT
10
280.9703
20
207.4716
0
VERTEX
8
CUT
10
280.9125
20
206.6696
0
VERTEX
8
CUT
10
281.1037
20
206.2974
0
VERTEX
8
CUT
10
281.5700
20
206.0318
0
VERTEX
8
CUT
10
282.3475
20
205.9583
0
VERTEX
8
CUT
10
283.0065
20
205.3625
0
VERTEX
8
CUT
10
283.7581
20
205.2356
0
VERTEX
8
CUT
10
284.2209
20
204.8709
0
VERTEX
8
CUT
10
284.2146
20
204.5462
0
VERTEX
8
CUT
10
283.6641
20
203.5989
0
VERTEX
8
CUT
10
283.6635
20
201.7996
0
VERTEX
8
CUT
10
282.5502
20
200.4996
0
VERTEX
8
CUT
10
282.2106
20
200.3360
0
VERTEX
8
CUT
10
281.8916
20
200.5910
0
VERTEX
8
CUT
10
281.2815
20
201.8788
0
VERTEX
8
CUT
10
280.4653
20
202.0174
0
VERTEX
8
CUT
10
279.6946
20
202.7130
0
VERTEX
8
CUT
10
279.3211
20
202.7484
0
VERTEX
8
CUT
10
277.6105
20
201.3595
0
VERTEX
8
CUT
10
275.7426
20
200.6822
0
VERTEX
8
CUT
10
274.9519
20
199.8054
0
VERTEX
8
CUT
10
273.3179
20
199.3682
0
VERTEX
8
CUT
10
272.8204
20
198.2896
0
VERTEX
8
CUT
10
270.9360
20
197.0327
0
VERTEX
8
CUT
10
269.3551
20
196.3098
0
VERTEX
8
CUT
10
268.5039
20
196.2273
0
VERTEX
8
CUT
10
267.2806
20
194.6754
0
VERTEX
8
CUT
10
265.9681
20
191.9286
0
VERTEX
8
CUT
10
265.2886
20
188.7358
0
VERTEX
8
CUT
10
264.9954
20
185.5830
0
VERTEX
8
CUT
10
264.6821
20
184.9758
0
VERTEX
8
CUT
10
263.9738
20
184.3111
0
VERTEX
8
CUT
10
263.9182
20
183.5057
0
VERTEX
8
CUT
10
263.3585
20
182.8046
0
VERTEX
8
CUT
10
263.0464
20
181.8285
0
VERTEX
8
CUT
10
262.2606
20
180.6544
0
VERTEX
8
CUT
10
261.6292
20
177.9258
0
VERTEX
8
CUT
10
261.2648
20
177.5484
0
VERTEX
8
CUT
10
261.2413
20
177.2144
0
VERTEX
8
CUT
10
261.9049
20
176.9314
0
VERTEX
8
CUT
10
263.1566
20
177.0694
0
VERTEX
8
CUT
10
264.2115
20
178.0868
0
VERTEX
8
CUT
10
266.2539
20
178.6511
0
VERTEX
8
CUT
10
267.7609
20
178.6999
0
VERTEX
8
CUT
10
269.6348
20
178.1253
0
VERTEX
8
CUT
10
273.0298
20
179.0848
0
VERTEX
8
CUT
10
273.5380
20
179.0214
0
VERTEX
8
CUT
10
274.1669
20
178.5993
0
VERTEX
8
CUT
10
274.3987
20
178.1489
0
VERTEX
8
CUT
10
274.3626
20
177.6312
0
VERTEX
8
CUT
10
273.4161
20
176.2150
0
VERTEX
8
CUT
10
273.4382
20
175.2324
0
VERTEX
8
CUT
10
273.1537
20
174.8519
0
VERTEX
8
CUT
10
271.9853
20
174.4509
0
VERTEX
8
CUT
10
270.0401
20
175.2730
0
VERTEX
8
CUT
10
268.5599
20
175.2760
0
VERTEX
8
CUT
10
268.2256
20
174.5391
0
VERTEX
8
CUT
10
267.6527
20
174.3123
0
VERTEX
8
CUT
10
266.4170
20
173.3142
0
VERTEX
8
CUT
10
265.5983
20
171.7068
0
VERTEX
8
CUT
10
266.8462
20
170.1049
0
VERTEX
8
CUT
10
268.8283
20
169.1803
0
VERTEX
8
CUT
10
270.1330
20
167.7863
0
VERTEX
8
CUT
10
271.0643
20
167.6597
0
VERTEX
8
CUT
10
272.2896
20
165.8584
0
VERTEX
8
CUT
10
273.2180
20
165.3729
0
VERTEX
8
CUT
10
275.2551
20
163.6482
0
VERTEX
8
CUT
10
275.2156
20
161.8350
0
VERTEX
8
CUT
10
274.9002
20
160.6284
0
VERTEX
8
CUT
10
275.1648
20
160.1959
0
VERTEX
8
CUT
10
277.9242
20
159.3453
0
VERTEX
8
CUT
10
280.1920
20
160.0780
0
VERTEX
8
CUT
10
280.8330
20
159.9845
0
VERTEX
8
CUT
10
281.7538
20
159.4901
0
VERTEX
8
CUT
10
283.0148
20
160.3565
0
VERTEX
8
CUT
10
284.5514
20
158.5918
0
VERTEX
8
CUT
10
285.1638
20
158.2486
0
VERTEX
8
CUT
10
285.8650
20
158.1377
0
VERTEX
8
CUT
10
287.1560
20
158.4454
0
VERTEX
8
CUT
10
288.4490
20
159.4205
0
VERTEX
8
CUT
10
289.2361
20
159.6542
0
VERTEX
8
CUT
10
291.3151
20
160.7912
0
VERTEX
8
CUT
10
296.2990
20
160.9760
0
VERTEX
8
CUT
10
298.8830
20
161.5064
0
VERTEX
8
CUT
10
299.3149
20
161.2825
0
VERTEX
8
CUT
10
299.4686
20
160.6919
0
VERTEX
8
CUT
10
299.6353
20
158.1303
0
VERTEX
8
CUT
10
299.7593
20
155.2519
0
VERTEX
8
CUT
10
299.7680
20
155.0493
0
VERTEX
8
CUT
10
299.7778
20
154.8205
0
VERTEX
8
CUT
10
299.7795
20
154.7813
0
VERTEX
8
CUT
10
299.7806
20
154.6619
0
VERTEX
8
CUT
10
299.7662
20
149.4121
0
VERTEX
8
CUT
10
299.7590
20
146.7781
0
VERTEX
8
CUT
10
299.7568
20
145.9590
0
VERTEX
8
CUT
10
299.7553
20
145.4077
0
VERTEX
8
CUT
10
299.3409
20
137.3765
0
VERTEX
8
CUT
10
299.1538
20
135.5412
0
VERTEX
8
CUT
10
298.9534
20
133.9357
0
VERTEX
8
CUT
10
298.5759
20
133.1999
0
VERTEX
8
CUT
10
297.8762
20
133.2677
0
VERTEX
8
CUT
10
296.1187
20
134.1942
0
VERTEX
8
CUT
10
295.1089
20
134.2925
0
VERTEX
8
CUT
10
294.0800
20
133.2247
0
VERTEX
8
CUT
10
293.0278
20
133.0029
0
VERTEX
8
CUT
10
291.8263
20
132.3886
0
VERTEX
8
CUT
10
289.4545
20
132.2692
0
VERTEX
8
CUT
10
288.2251
20
132.4772
0
VERTEX
8
CUT
10
287.7905
20
132.9384
0
VERTEX
8
CUT
10
287.5590
20
134.3255
0
VERTEX
8
CUT
10
286.9773
20
135.7463
0
VERTEX
8
CUT
10
284.8909
20
137.3536
0
VERTEX
8
CUT
10
284.2247
20
138.5672
0
VERTEX
8
CUT
10
283.5382
20
138.8341
0
VERTEX
8
CUT
10
282.6986
20
138.8662
0
VERTEX
8
CUT
10
282.2099
20
138.4379
0
VERTEX
8
CUT
10
282.0986
20
137.1254
0
VERTEX
8
CUT
10
281.6529
20
135.4764
0
VERTEX
8
CUT
10
280.8416
20
134.5016
0
VERTEX
8
CUT
10
280.0340
20
134.0514
0
VERTEX
8
CUT
10
277.5038
20
133.6881
0
VERTEX
8
CUT
10
275.0627
20
132.6133
0
VERTEX
8
CUT
10
274.6825
20
129.6884
0
VERTEX
8
CUT
10
274.3360
20
129.3037
0
VERTEX
8
CUT
10
273.6848
20
129.1812
0
VERTEX
8
CUT
10
273.2868
20
127.9089
0
VERTEX
8
CUT
10
272.7796
20
127.3995
0
VERTEX
8
CUT
10
271.6440
20
127.7041
0
VERTEX
8
CUT
10
270.7721
20
127.3745
0
VERTEX
8
CUT
10
270.3426
20
127.4174
0
VERTEX
8
CUT
10
270.0665
20
128.0712
0
VERTEX
8
CUT
10
269.8366
20
130.1814
0
VERTEX
8
CUT
10
268.7694
20
131.7936
0
VERTEX
8
CUT
10
267.4738
20
133.0381
0
VERTEX
8
CUT
10
264.3904
20
133.1504
0
VERTEX
8
CUT
10
262.5059
20
133.5068
0
VERTEX
8
CUT
10
261.6471
20
132.8855
0
VERTEX
8
CUT
10
261.4571
20
132.2315
0
VERTEX
8
CUT
10
260.0915
20
130.8371
0
VERTEX
8
CUT
10
260.2181
20
129.2656
0
VERTEX
8
CUT
10
261.3871
20
127.3578
0
VERTEX
8
CUT
10
261.2522
20
127.0285
0
VERTEX
8
CUT
10
260.1894
20
126.3639
0
VERTEX
8
CUT
10
259.5923
20
126.3677
0
VERTEX
8
CUT
10
258.9198
20
126.8263
0
VERTEX
8
CUT
10
257.2243
20
128.8408
0
VERTEX
8
CUT
10
256.2054
20
129.1981
0
VERTEX
8
CUT
10
254.6901
20
129.3885
0
VERTEX
8
CUT
10
254.2394
20
130.2595
0
VERTEX
8
CUT
10
252.4661
20
130.2671
0
VERTEX
8
CUT
10
252.1443
20
130.0812
0
VERTEX
8
CUT
10
251.9286
20
129.4145
0
VERTEX
8
CUT
10
250.6703
20
129.1169
0
VERTEX
8
CUT
10
250.1374
20
128.2656
0
VERTEX
8
CUT
10
249.3788
20
127.9738
0
VERTEX
8
CUT
10
249.2179
20
127.2646
0
VERTEX
8
CUT
10
248.6853
20
126.5952
0
VERTEX
8
CUT
10
247.3118
20
125.8817
0
VERTEX
8
CUT
10
247.1377
20
125.6228
0
VERTEX
8
CUT
10
247.2506
20
124.8681
0
VERTEX
8
CUT
10
247.6960
20
124.2874
0
VERTEX
8
CUT
10
249.4526
20
123.3773
0
VERTEX
8
CUT
10
250.2661
20
122.6897
0
VERTEX
8
CUT
10
251.1246
20
122.4667
0
VERTEX
8
CUT
10
252.6444
20
121.2976
0
VERTEX
8
CUT
10
255.3790
20
119.7204
0
VERTEX
8
CUT
10
256.4734
20
119.4664
0
VERTEX
8
CUT
10
257.3920
20
118.9761
0
VERTEX
8
CUT
10
258.2773
20
119.0969
0
VERTEX
8
CUT
10
259.1827
20
118.4824
0
VERTEX
8
CUT
10
261.2006
20
117.8280
0
VERTEX
8
CUT
10
262.0891
20
117.2115
0
VERTEX
8
CUT
10
263.0946
20
117.8274
0
VERTEX
8
CUT
10
264.4025
20
117.8543
0
VERTEX
8
CUT
10
265.1628
20
116.9787
0
VERTEX
8
CUT
10
267.9062
20
115.4067
0
VERTEX
8
CUT
10
268.3867
20
114.8109
0
VERTEX
8
CUT
10
268.5723
20
113.9360
0
VERTEX
8
CUT
10
269.2887
20
113.3782
0
VERTEX
8
CUT
10
270.3087
20
112.9542
0
VERTEX
8
CUT
10
271.9617
20
112.6872
0
VERTEX
8
CUT
10
274.7419
20
111.4395
0
VERTEX
8
CUT
10
275.2406
20
111.0343
0
VERTEX
8
CUT
10
276.0561
20
110.9228
0
VERTEX
8
CUT
10
276.8949
20
110.1638
0
VERTEX
8
CUT
10
279.0336
20
109.4500
0
VERTEX
8
CUT
10
279.8977
20
108.5754
0
VERTEX
8
CUT
10
281.3566
20
107.7896
0
VERTEX
8
CUT
10
285.7379
20
106.0822
0
VERTEX
8
CUT
10
288.9595
20
104.0146
0
VERTEX
8
CUT
10
289.2284
20
102.9965
0
VERTEX
8
CUT
10
289.9610
20
102.1404
0
VERTEX
8
CUT
10
290.6697
20
100.7473
0
VERTEX
8
CUT
10
290.1970
20
99.3945
0
VERTEX
8
CUT
10
289.0246
20
98.2197
0
VERTEX
8
CUT
10
288.6580
20
97.5805
0
VERTEX
8
CUT
10
288.6925
20
96.9700
0
VERTEX
8
CUT
10
289.5290
20
96.4105
0
VERTEX
8
CUT
10
289.4616
20
95.3687
0
VERTEX
8
CUT
10
288.9550
20
93.9659
0
VERTEX
8
CUT
10
288.6324
20
93.2036
0
VERTEX
8
CUT
10
288.3609
20
92.5622
0
VERTEX
8
CUT
10
287.8817
20
91.4299
0
VERTEX
8
CUT
10
287.6201
20
90.8118
0
VERTEX
8
CUT
10
287.4214
20
90.3916
0
VERTEX
8
CUT
10
284.6834
20
87.5790
0
VERTEX
8
CUT
10
282.7108
20
86.1230
0
VERTEX
8
CUT
10
280.9590
20
85.4946
0
VERTEX
8
CUT
10
279.6416
20
85.4071
0
VERTEX
8
CUT
10
278.2315
20
85.6210
0
VERTEX
8
CUT
10
276.6870
20
86.7831
0
VERTEX
8
CUT
10
274.9169
20
86.9877
0
VERTEX
8
CUT
10
273.8463
20
87.9024
0
VERTEX
8
CUT
10
272.5243
20
87.8248
0
VERTEX
8
CUT
10
271.5137
20
86.7356
0
VERTEX
8
CUT
10
269.8617
20
87.6030
0
VERTEX
8
CUT
10
267.7252
20
87.8730
0
VERTEX
8
CUT
10
266.6051
20
88.4782
0
VERTEX
8
CUT
10
265.1473
20
88.8760
0
VERTEX
8
CUT
10
264.3849
20
89.5500
0
VERTEX
8
CUT
10
263.8383
20
90.4870
0
VERTEX
8
CUT
10
263.5421
20
91.7411
0
VERTEX
8
CUT
10
262.8722
20
92.4700
0
VERTEX
8
CUT
10
262.9226
20
93.2975
0
VERTEX
8
CUT
10
262.2391
20
94.6246
0
VERTEX
8
CUT
10
261.8903
20
94.9448
0
VERTEX
8
CUT
10
261.1595
20
95.1182
0
VERTEX
8
CUT
10
260.5164
20
95.0107
0
VERTEX
8
CUT
10
259.6958
20
93.9371
0
VERTEX
8
CUT
10
258.5306
20
91.3403
0
VERTEX
8
CUT
10
258.0874
20
90.8468
0
VERTEX
8
CUT
10
255.4757
20
89.5043
0
VERTEX
8
CUT
10
253.5999
20
88.8181
0
VERTEX
8
CUT
10
252.8103
20
88.6610
0
VERTEX
8
CUT
10
252.1939
20
88.8369
0
VERTEX
8
CUT
10
250.1324
20
93.0459
0
VERTEX
8
CUT
10
249.1180
20
98.2359
0
VERTEX
8
CUT
10
248.9957
20
100.5528
0
VERTEX
8
CUT
10
248.7838
20
101.2631
0
VERTEX
8
CUT
10
249.0596
20
102.0507
0
VERTEX
8
CUT
10
248.3444
20
102.8375
0
VERTEX
8
CUT
10
248.1471
20
103.6680
0
VERTEX
8
CUT
10
247.6586
20
104.3679
0
VERTEX
8
CUT
10
247.5147
20
105.8937
0
VERTEX
8
CUT
10
246.0948
20
107.8112
0
VERTEX
8
CUT
10
245.9208
20
108.6588
0
VERTEX
8
CUT
10
245.3311
20
109.4048
0
VERTEX
8
CUT
10
245.1381
20
110.2065
0
VERTEX
8
CUT
10
244.3778
20
111.7431
0
VERTEX
8
CUT
10
242.4786
20
114.5987
0
VERTEX
8
CUT
10
242.2372
20
115.4572
0
VERTEX
8
CUT
10
240.7576
20
116.8084
0
VERTEX
8
CUT
10
239.8863
20
116.5489
0
VERTEX
8
CUT
10
239.0226
20
116.7368
0
VERTEX
8
CUT
10
238.7487
20
117.0354
0
VERTEX
8
CUT
10
238.6994
20
117.8161
0
VERTEX
8
CUT
10
237.5599
20
118.1393
0
VERTEX
8
CUT
10
237.1956
20
117.9838
0
VERTEX
8
CUT
10
237.0924
20
117.4207
0
VERTEX
8
CUT
10
236.7974
20
117.1740
0
VERTEX
8
CUT
10
234.7080
20
116.7557
0
VERTEX
8
CUT
10
233.6151
20
115.6995
0
VERTEX
8
CUT
10
231.4003
20
115.4200
0
VERTEX
8
CUT
10
230.3472
20
114.6795
0
VERTEX
8
CUT
10
230.1292
20
113.7738
0
VERTEX
8
CUT
10
229.4311
20
113.2673
0
VERTEX
8
CUT
10
229.2673
20
111.5016
0
VERTEX
8
CUT
10
229.4408
20
111.1268
0
VERTEX
8
CUT
10
230.3997
20
110.4487
0
VERTEX
8
CUT
10
230.5583
20
109.6795
0
VERTEX
8
CUT
10
231.3932
20
109.4653
0
VERTEX
8
CUT
10
231.4749
20
109.1261
0
VERTEX
8
CUT
10
229.5564
20
108.1485
0
VERTEX
8
CUT
10
229.4081
20
107.4980
0
VERTEX
8
CUT
10
229.1229
20
107.2277
0
VERTEX
8
CUT
10
227.2631
20
106.3973
0
VERTEX
8
CUT
10
226.9190
20
105.9082
0
VERTEX
8
CUT
10
226.8195
20
104.9984
0
VERTEX
8
CUT
10
225.7954
20
104.1315
0
VERTEX
8
CUT
10
225.8654
20
103.5848
0
VERTEX
8
CUT
10
226.4657
20
103.2114
0
VERTEX
8
CUT
10
227.1992
20
102.0289
0
VERTEX
8
CUT
10
229.5341
20
99.6770
0
VERTEX
8
CUT
10
230.3646
20
98.3094
0
VERTEX
8
CUT
10
231.3030
20
95.8383
0
VERTEX
8
CUT
10
231.3241
20
94.5537
0
VERTEX
8
CUT
10
231.9053
20
93.6850
0
VERTEX
8
CUT
10
232.4148
20
92.1158
0
VERTEX
8
CUT
10
233.1587
20
90.6890
0
VERTEX
8
CUT
10
233.0259
20
90.2029
0
VERTEX
8
CUT
10
232.4870
20
90.0624
0
VERTEX
8
CUT
10
231.6263
20
90.4842
0
VERTEX
8
CUT
10
229.8530
20
90.5591
0
VERTEX
8
CUT
10
228.8154
20
90.9174
0
VERTEX
8
CUT
10
227.7250
20
90.2040
0
VERTEX
8
CUT
10
226.7656
20
90.1046
0
VERTEX
8
CUT
10
225.1849
20
90.8901
0
VERTEX
8
CUT
10
224.2758
20
90.0070
0
VERTEX
8
CUT
10
223.4600
20
89.6127
0
VERTEX
8
CUT
10
223.1576
20
88.5680
0
VERTEX
8
CUT
10
222.7776
20
88.2280
0
VERTEX
8
CUT
10
222.3927
20
88.1672
0
VERTEX
8
CUT
10
222.0845
20
88.4036
0
VERTEX
8
CUT
10
221.7565
20
89.2175
0
VERTEX
8
CUT
10
220.3803
20
89.8657
0
VERTEX
8
CUT
10
219.1173
20
91.3733
0
VERTEX
8
CUT
10
216.0691
20
93.9256
0
VERTEX
8
CUT
10
215.5522
20
94.6422
0
VERTEX
8
CUT
10
214.6362
20
94.7000
0
VERTEX
8
CUT
10
214.3410
20
94.4682
0
VERTEX
8
CUT
10
213.9732
20
93.0695
0
VERTEX
8
CUT
10
214.1969
20
92.7854
0
VERTEX
8
CUT
10
215.0349
20
92.4438
0
VERTEX
8
CUT
10
215.1350
20
91.6512
0
VERTEX
8
CUT
10
215.5715
20
90.6494
0
VERTEX
8
CUT
10
215.4630
20
89.9651
0
VERTEX
8
CUT
10
214.6896
20
89.6588
0
VERTEX
8
CUT
10
214.5896
20
89.1617
0
VERTEX
8
CUT
10
215.4666
20
88.0723
0
VERTEX
8
CUT
10
215.7674
20
85.2506
0
VERTEX
8
CUT
10
216.4652
20
84.3586
0
VERTEX
8
CUT
10
216.4964
20
83.5767
0
VERTEX
8
CUT
10
217.3022
20
82.2187
0
VERTEX
8
CUT
10
217.3355
20
81.3747
0
VERTEX
8
CUT
10
220.0866
20
78.6307
0
VERTEX
8
CUT
10
220.7058
20
77.5813
0
VERTEX
8
CUT
10
221.7719
20
76.9917
0
VERTEX
8
CUT
10
222.9650
20
75.9328
0
VERTEX
8
CUT
10
226.1903
20
74.3656
0
VERTEX
8
CUT
10
227.9123
20
74.4737
0
VERTEX
8
CUT
10
228.7645
20
74.7502
0
VERTEX
8
CUT
10
231.7206
20
74.8706
0
VERTEX
8
CUT
10
232.8017
20
74.1933
0
VERTEX
8
CUT
10
234.0337
20
74.3298
0
VERTEX
8
CUT
10
235.0450
20
73.6286
0
VERTEX
8
CUT
10
236.0483
20
73.3500
0
VERTEX
8
CUT
10
236.6717
20
72.9014
0
VERTEX
8
CUT
10
237.5341
20
72.9930
0
VERTEX
8
CUT
10
238.6413
20
72.7487
0
VERTEX
8
CUT
10
239.4239
20
72.1376
0
VERTEX
8
CUT
10
240.0970
20
70.7407
0
VERTEX
8
CUT
10
241.5379
20
68.7128
0
VERTEX
8
CUT
10
245.6371
20
68.1922
0
VERTEX
8
CUT
10
246.5623
20
67.7910
0
VERTEX
8
CUT
10
247.8882
20
66.8349
0
VERTEX
8
CUT
10
249.4487
20
67.6577
0
VERTEX
8
CUT
10
250.7072
20
66.8191
0
VERTEX
8
CUT
10
253.9845
20
66.0079
0
VERTEX
8
CUT
10
255.7741
20
64.7770
0
VERTEX
8
CUT
10
258.2068
20
64.5593
0
VERTEX
8
CUT
10
258.9728
20
64.0816
0
VERTEX
8
CUT
10
259.7939
20
64.2481
0
VERTEX
8
CUT
10
260.5329
20
63.5845
0
VERTEX
8
CUT
10
261.6910
20
63.2334
0
VERTEX
8
CUT
10
264.4019
20
61.5735
0
VERTEX
8
CUT
10
264.8973
20
61.0848
0
VERTEX
8
CUT
10
265.3248
20
60.1779
0
VERTEX
8
CUT
10
265.2682
20
58.3781
0
VERTEX
8
CUT
10
265.6463
20
57.5496
0
VERTEX
8
CUT
10
266.4101
20
56.5641
0
VERTEX
8
CUT
10
266.5199
20
56.0943
0
VERTEX
8
CUT
10
265.9012
20
55.1579
0
VERTEX
8
CUT
10
263.9261
20
52.7449
0
VERTEX
8
CUT
10
263.1730
20
51.8246
0
VERTEX
8
CUT
10
262.7375
20
51.2926
0
VERTEX
8
CUT
10
260.5717
20
48.8771
0
VERTEX
8
CUT
10
259.3050
20
47.5751
0
VERTEX
8
CUT
10
259.1143
20
47.3791
0
VERTEX
8
CUT
10
258.2034
20
46.4428
0
VERTEX
8
CUT
10
253.5737
20
41.6843
0
VERTEX
8
CUT
10
253.4430
20
41.5546
0
VERTEX
8
CUT
10
251.7827
20
40.0043
0
VERTEX
8
CUT
10
251.1724
20
39.4758
0
VERTEX
8
CUT
10
250.8655
20
39.2100
0
VERTEX
8
CUT
10
250.4610
20
38.8597
0
VERTEX
8
CUT
10
248.4184
20
37.0909
0
VERTEX
8
CUT
10
246.0106
20
35.0058
0
VERTEX
8
CUT
10
244.8583
20
34.0079
0
VERTEX
8
CUT
10
244.6212
20
33.8026
0
VERTEX
8
CUT
10
243.7495
20
33.0746
0
VERTEX
8
CUT
10
241.7542
20
31.5109
0
VERTEX
8
CUT
10
235.4170
20
26.9046
0
VERTEX
8
CUT
10
234.5193
20
26.2521
0
VERTEX
8
CUT
10
234.5029
20
26.2402
0
VERTEX
8
CUT
10
234.4264
20
26.1846
0
VERTEX
8
CUT
10
234.2389
20
26.0732
0
VERTEX
8
CUT
10
233.4752
20
25.8723
0
VERTEX
8
CUT
10
232.6364
20
26.2797
0
VERTEX
8
CUT
10
231.5483
20
27.7280
0
VERTEX
8
CUT
10
231.1804
20
28.7823
0
VERTEX
8
CUT
10
231.2021
20
29.6554
0
VERTEX
8
CUT
10
230.8649
20
30.8187
0
VERTEX
8
CUT
10
229.7679
20
33.0867
0
VERTEX
8
CUT
10
228.9101
20
36.8385
0
VERTEX
8
CUT
10
228.4681
20
37.6617
0
VERTEX
8
CUT
10
229.6362
20
40.6287
0
VERTEX
8
CUT
10
229.0115
20
41.3671
0
VERTEX
8
CUT
10
229.0325
20
42.2374
0
VERTEX
8
CUT
10
228.5236
20
42.6670
0
VERTEX
8
CUT
10
228.1464
20
42.6831
0
VERTEX
8
CUT
10
227.4758
20
42.1555
0
VERTEX
8
CUT
10
227.3643
20
41.1755
0
VERTEX
8
CUT
10
226.7825
20
40.6144
0
VERTEX
8
CUT
10
226.9076
20
39.7616
0
VERTEX
8
CUT
10
226.4753
20
37.3443
0
VERTEX
8
CUT
10
225.6489
20
36.8919
0
VERTEX
8
CUT
10
225.2875
20
36.2461
0
VERTEX
8
CUT
10
224.5873
20
36.2592
0
VERTEX
8
CUT
10
224.1424
20
36.0052
0
VERTEX
8
CUT
10
223.2588
20
35.1714
0
VERTEX
8
CUT
10
223.0339
20
34.6886
0
VERTEX
8
CUT
10
222.9866
20
33.5499
0
VERTEX
8
CUT
10
223.6160
20
32.4934
0
VERTEX
8
CUT
10
223.9137
20
31.3525
0
VERTEX
8
CUT
10
224.6237
20
30.1751
0
VERTEX
8
CUT
10
225.4557
20
27.9441
0
VERTEX
8
CUT
10
225.6640
20
26.7023
0
VERTEX
8
CUT
10
225.4609
20
25.8981
0
VERTEX
8
CUT
10
224.5044
20
24.6591
0
VERTEX
8
CUT
10
222.6862
20
23.8489
0
VERTEX
8
CUT
10
220.8752
20
21.9947
0
VERTEX
8
CUT
10
220.3589
20
20.5123
0
VERTEX
8
CUT
10
219.5277
20
19.0209
0
VERTEX
8
CUT
10
218.2160
20
18.9932
0
VERTEX
8
CUT
10
217.7386
20
19.2507
0
VERTEX
8
CUT
10
216.6472
20
20.9987
0
VERTEX
8
CUT
10
215.6502
20
22.0053
0
VERTEX
8
CUT
10
215.5578
20
22.9757
0
VERTEX
8
CUT
10
213.9049
20
25.9163
0
VERTEX
8
CUT
10
213.0639
20
26.1846
0
VERTEX
8
CUT
10
211.1575
20
27.7533
0
VERTEX
8
CUT
10
209.6223
20
28.5304
0
VERTEX
8
CUT
10
208.3019
20
30.3306
0
VERTEX
8
CUT
10
206.2604
20
31.4013
0
VERTEX
8
CUT
10
203.0595
20
33.7963
0
VERTEX
8
CUT
10
202.9697
20
34.2653
0
VERTEX
8
CUT
10
203.2914
20
35.1258
0
VERTEX
8
CUT
10
202.9522
20
36.3787
0
VERTEX
8
CUT
10
203.0086
20
37.5007
0
VERTEX
8
CUT
10
203.7880
20
38.4337
0
VERTEX
8
CUT
10
205.5772
20
40.0076
0
VERTEX
8
CUT
10
207.3989
20
42.0829
0
VERTEX
8
CUT
10
207.5326
20
43.4909
0
VERTEX
8
CUT
10
207.3745
20
44.9758
0
VERTEX
8
CUT
10
206.4485
20
45.0530
0
VERTEX
8
CUT
10
206.1065
20
44.1271
0
VERTEX
8
CUT
10
202.7029
20
43.9069
0
VERTEX
8
CUT
10
201.8528
20
44.1087
0
VERTEX
8
CUT
10
200.6321
20
43.0750
0
VERTEX
8
CUT
10
200.2171
20
42.9979
0
VERTEX
8
CUT
10
199.5717
20
43.2564
0
VERTEX
8
CUT
10
199.1332
20
42.7908
0
VERTEX
8
CUT
10
198.5926
20
42.6282
0
VERTEX
8
CUT
10
197.3170
20
42.8039
0
VERTEX
8
CUT
10
196.7657
20
43.5344
0
VERTEX
8
CUT
10
196.0128
20
44.0032
0
VERTEX
8
CUT
10
196.1333
20
49.5575
0
VERTEX
8
CUT
10
197.4411
20
52.7937
0
VERTEX
8
CUT
10
196.3839
20
53.8804
0
VERTEX
8
CUT
10
196.1982
20
54.6909
0
VERTEX
8
CUT
10
195.0303
20
55.1885
0
VERTEX
8
CUT
10
192.7590
20
58.3162
0
VERTEX
8
CUT
10
191.2946
20
59.0898
0
VERTEX
8
CUT
10
191.0849
20
59.9285
0
VERTEX
8
CUT
10
189.8998
20
61.0582
0
VERTEX
8
CUT
10
189.5215
20
62.8036
0
VERTEX
8
CUT
10
189.8351
20
63.6711
0
VERTEX
8
CUT
10
188.3702
20
65.6928
0
VERTEX
8
CUT
10
188.0340
20
66.6580
0
VERTEX
8
CUT
10
187.5386
20
67.3469
0
VERTEX
8
CUT
10
187.6174
20
68.1223
0
VERTEX
8
CUT
10
187.2844
20
68.3867
0
VERTEX
8
CUT
10
186.6160
20
68.3828
0
VERTEX
8
CUT
10
184.3853
20
66.6998
0
VERTEX
8
CUT
10
183.5157
20
67.3824
0
VERTEX
8
CUT
10
182.8353
20
66.9694
0
VERTEX
8
CUT
10
182.2910
20
67.0664
0
VERTEX
8
CUT
10
180.1465
20
68.4618
0
VERTEX
8
CUT
10
177.9824
20
69.3632
0
VERTEX
8
CUT
10
177.1720
20
69.0571
0
VERTEX
8
CUT
10
175.2932
20
67.6411
0
VERTEX
8
CUT
10
173.3713
20
68.0121
0
VERTEX
8
CUT
10
172.2033
20
67.0650
0
VERTEX
8
CUT
10
171.8961
20
67.2882
0
VERTEX
8
CUT
10
171.0483
20
68.7801
0
VERTEX
8
CUT
10
170.7420
20
69.1008
0
VERTEX
8
CUT
10
170.4124
20
69.1400
0
VERTEX
8
CUT
10
169.9214
20
68.6135
0
VERTEX
8
CUT
10
169.5464
20
66.1646
0
VERTEX
8
CUT
10
169.1532
20
65.1809
0
VERTEX
8
CUT
10
169.0767
20
64.3596
0
VERTEX
8
CUT
10
168.7667
20
63.9938
0
VERTEX
8
CUT
10
168.3803
20
63.8948
0
VERTEX
8
CUT
10
167.6565
20
64.1119
0
VERTEX
8
CUT
10
166.7456
20
63.8126
0
VERTEX
8
CUT
10
165.0707
20
64.3416
0
VERTEX
8
CUT
10
161.1602
20
64.0563
0
VERTEX
8
CUT
10
161.0517
20
63.7129
0
VERTEX
8
CUT
10
161.3888
20
62.6318
0
VERTEX
8
CUT
10
161.1861
20
61.7226
0
VERTEX
8
CUT
10
159.6595
20
59.7975
0
VERTEX
8
CUT
10
159.1730
20
58.2451
0
VERTEX
8
CUT
10
158.3920
20
57.4204
0
VERTEX
8
CUT
10
156.5202
20
56.7889
0
VERTEX
8
CUT
10
153.6183
20
57.2950
0
VERTEX
8
CUT
10
152.9478
20
57.7181
0
VERTEX
8
CUT
10
151.9363
20
57.2043
0
VERTEX
8
CUT
10
149.8412
20
57.3695
0
VERTEX
8
CUT
10
148.2824
20
57.0474
0
VERTEX
8
CUT
10
148.2260
20
56.6766
0
VERTEX
8
CUT
10
149.4900
20
54.5328
0
VERTEX
8
CUT
10
149.7327
20
53.5076
0
VERTEX
8
CUT
10
151.1056
20
53.3278
0
VERTEX
8
CUT
10
151.4730
20
52.8362
0
VERTEX
8
CUT
10
151.0371
20
52.4285
0
VERTEX
8
CUT
10
149.6578
20
52.2627
0
VERTEX
8
CUT
10
149.1737
20
52.4563
0
VERTEX
8
CUT
10
149.0642
20
53.0706
0
VERTEX
8
CUT
10
148.6783
20
53.2623
0
VERTEX
8
CUT
10
147.1075
20
52.9396
0
VERTEX
8
CUT
10
146.9156
20
52.6611
0
VERTEX
8
CUT
10
147.0140
20
52.3374
0
VERTEX
8
CUT
10
148.6637
20
50.8707
0
VERTEX
8
CUT
10
150.1697
20
50.4514
0
VERTEX
8
CUT
10
150.8390
20
49.6584
0
VERTEX
8
CUT
10
151.7904
20
49.7867
0
VERTEX
8
CUT
10
152.9259
20
49.2367
0
VERTEX
8
CUT
10
154.3034
20
48.9406
0
VERTEX
8
CUT
10
154.8891
20
48.1353
0
VERTEX
8
CUT
10
156.0018
20
47.2026
0
VERTEX
8
CUT
10
157.4515
20
46.4641
0
VERTEX
8
CUT
10
158.7459
20
45.2361
0
VERTEX
8
CUT
10
159.2062
20
44.5131
0
VERTEX
8
CUT
10
160.7608
20
43.9333
0
VERTEX
8
CUT
10
162.0002
20
42.6295
0
VERTEX
8
CUT
10
162.6523
20
42.5908
0
VERTEX
8
CUT
10
163.1449
20
42.3442
0
VERTEX
8
CUT
10
167.1153
20
38.4795
0
VERTEX
8
CUT
10
169.8014
20
37.2339
0
VERTEX
8
CUT
10
170.2966
20
36.5005
0
VERTEX
8
CUT
10
170.5144
20
35.2699
0
VERTEX
8
CUT
10
170.9861
20
34.1182
0
VERTEX
8
CUT
10
172.2723
20
32.3762
0
VERTEX
8
CUT
10
173.4413
20
30.0868
0
VERTEX
8
CUT
10
173.6558
20
28.5630
0
VERTEX
8
CUT
10
173.4736
20
27.4073
0
VERTEX
8
CUT
10
173.6379
20
26.4151
0
VERTEX
8
CUT
10
173.4109
20
25.8399
0
VERTEX
8
CUT
10
173.6373
20
25.1171
0
VERTEX
8
CUT
10
172.9675
20
23.5660
0
VERTEX
8
CUT
10
172.2736
20
22.8617
0
VERTEX
8
CUT
10
172.8680
20
22.0279
0
VERTEX
8
CUT
10
172.7496
20
21.4980
0
VERTEX
8
CUT
10
173.0661
20
20.9860
0
VERTEX
8
CUT
10
172.9985
20
20.6281
0
VERTEX
8
CUT
10
172.3228
20
19.9123
0
VERTEX
8
CUT
10
171.9725
20
18.5945
0
VERTEX
8
CUT
10
171.1237
20
17.7892
0
VERTEX
8
CUT
10
171.1087
20
16.7789
0
VERTEX
8
CUT
10
170.7363
20
16.4852
0
VERTEX
8
CUT
10
170.4247
20
15.8322
0
VERTEX
8
CUT
10
169.9213
20
15.4600
0
VERTEX
8
CUT
10
169.8373
20
14.7660
0
VERTEX
8
CUT
10
169.1874
20
14.0638
0
VERTEX
8
CUT
10
169.0045
20
12.9396
0
VERTEX
8
CUT
10
168.6449
20
12.6650
0
VERTEX
8
CUT
10
167.8193
20
12.4660
0
VERTEX
8
CUT
10
167.3333
20
12.0477
0
VERTEX
8
CUT
10
166.8913
20
11.0556
0
VERTEX
8
CUT
10
166.1900
20
10.2761
0
VERTEX
8
CUT
10
166.0412
20
9.4506
0
VERTEX
8
CUT
10
164.9489
20
8.2750
0
VERTEX
8
CUT
10
164.9800
20
7.8540
0
VERTEX
8
CUT
10
165.8957
20
7.1286
0
VERTEX
8
CUT
10
167.2747
20
6.8037
0
VERTEX
8
CUT
10
168.1768
20
6.2432
0
VERTEX
8
CUT
10
173.0989
20
6.0235
0
VERTEX
8
CUT
10
175.0051
20
7.0453
0
VERTEX
8
CUT
10
176.4362
20
8.2373
0
VERTEX
8
CUT
10
178.5699
20
8.5038
0
VERTEX
8
CUT
10
180.7985
20
9.1176
0
VERTEX
8
CUT
10
183.0507
20
10.3438
0
VERTEX
8
CUT
10
184.2650
20
9.2081
0
VERTEX
8
CUT
10
185.0534
20
7.7401
0
VERTEX
8
CUT
10
187.7421
20
5.5755
0
VERTEX
8
CUT
10
187.6566
20
5.1875
0
VERTEX
8
CUT
10
187.3368
20
4.8799
0
VERTEX
8
CUT
10
185.6965
20
4.3380
0
VERTEX
8
CUT
10
175.7395
20
2.2748
0
VERTEX
8
CUT
10
173.8644
20
1.9381
0
VERTEX
8
CUT
10
173.6067
20
1.8990
0
VERTEX
8
CUT
10
173.4201
20
1.8707
0
VERTEX
8
CUT
10
173.1718
20
1.8331
0
VERTEX
8
CUT
10
163.0875
20
0.6112
0
VERTEX
8
CUT
10
162.6773
20
0.5859
0
VERTEX
8
CUT
10
162.2980
20
0.5625
0
VERTEX
8
CUT
10
160.9787
20
0.4812
0
VERTEX
8
CUT
10
160.0787
20
0.4257
0
VERTEX
8
CUT
10
159.8277
20
0.4102
0
VERTEX
8
CUT
10
159.4374
20
0.3861
0
VERTEX
8
CUT
10
151.4256
20
0.0240
0
VERTEX
8
CUT
10
151.1670
20
0.0275
0
VERTEX
8
CUT
10
150.4234
20
0.0377
0
VERTEX
8
CUT
10
142.5223
20
0.1462
0
VERTEX
8
CUT
10
142.3982
20
0.1491
0
VERTEX
8
CUT
10
141.9039
20
0.1862
0
VERTEX
8
CUT
10
141.6052
20
0.2129
0
VERTEX
8
CUT
10
138.4069
20
0.4992
0
VERTEX
8
CUT
10
138.1674
20
0.5206
0
VERTEX
8
CUT
10
134.9067
20
0.8124
0
VERTEX
8
CUT
10
134.0923
20
1.0781
0
VERTEX
8
CUT
10
133.1868
20
1.9140
0
VERTEX
8
CUT
10
132.9830
20
2.6738
0
VERTEX
8
CUT
10
133.0868
20
3.7941
0
VERTEX
8
CUT
10
133.6492
20
5.0416
0
VERTEX
8
CUT
10
134.2011
20
5.3313
0
VERTEX
8
CUT
10
137.6087
20
4.4624
0
VERTEX
8
CUT
10
138.5012
20
4.0273
0
VERTEX
8
CUT
10
143.4142
20
3.7829
0
VERTEX
8
CUT
10
144.7647
20
3.0770
0
VERTEX
8
CUT
10
147.1619
20
3.0995
0
VERTEX
8
CUT
10
148.1488
20
3.7313
0
VERTEX
8
CUT
10
149.0359
20
3.8719
0
VERTEX
8
CUT
10
150.0775
20
3.3187
0
VERTEX
8
CUT
10
150.7640
20
3.3100
0
VERTEX
8
CUT
10
151.6796
20
2.8588
0
VERTEX
8
CUT
10
152.4548
20
3.0875
0
VERTEX
8
CUT
10
153.0240
20
3.0376
0
VERTEX
8
CUT
10
153.6621
20
3.7891
0
VERTEX
8
CUT
10
154.7485
20
3.7965
0
VERTEX
8
CUT
10
155.0883
20
4.7895
0
VERTEX
8
CUT
10
156.0733
20
5.1606
0
VERTEX
8
CUT
10
156.4606
20
5.5726
0
VERTEX
8
CUT
10
156.6084
20
7.1725
0
VERTEX
8
CUT
10
157.6151
20
7.2829
0
VERTEX
8
CUT
10
157.9926
20
7.7363
0
VERTEX
8
CUT
10
157.7823
20
8.1120
0
VERTEX
8
CUT
10
156.9951
20
8.2116
0
VERTEX
8
CUT
10
156.6006
20
8.4778
0
VERTEX
8
CUT
10
156.1871
20
10.3700
0
VERTEX
8
CUT
10
154.1056
20
12.3622
0
VERTEX
8
CUT
10
152.6560
20
12.2339
0
VERTEX
8
CUT
10
150.9915
20
12.3517
0
VERTEX
8
CUT
10
150.0917
20
12.7873
0
VERTEX
8
CUT
10
147.7088
20
13.1879
0
VERTEX
8
CUT
10
146.8253
20
13.8127
0
VERTEX
8
CUT
10
146.4414
20
13.8851
0
VERTEX
8
CUT
10
144.1906
20
12.5382
0
VERTEX
8
CUT
10
143.1681
20
12.3293
0
VERTEX
8
CUT
10
142.3197
20
11.6868
0
VERTEX
8
CUT
10
141.0523
20
11.1056
0
VERTEX
8
CUT
10
137.9356
20
12.1610
0
VERTEX
8
CUT
10
136.5557
20
12.8762
0
VERTEX
8
CUT
10
136.1211
20
13.3044
0
VERTEX
8
CUT
10
136.0615
20
13.7807
0
VERTEX
8
CUT
10
136.3721
20
14.2741
0
VERTEX
8
CUT
10
139.1093
20
15.3929
0
VERTEX
8
CUT
10
140.9850
20
17.3431
0
VERTEX
8
CUT
10
141.2889
20
17.8529
0
VERTEX
8
CUT
10
141.3725
20
18.7762
0
VERTEX
8
CUT
10
141.6526
20
19.1527
0
VERTEX
8
CUT
10
141.4808
20
19.7430
0
VERTEX
8
CUT
10
141.6330
20
20.1019
0
VERTEX
8
CUT
10
142.9826
20
20.6761
0
VERTEX
8
CUT
10
144.9170
20
21.0909
0
VERTEX
8
CUT
10
146.2717
20
21.8165
0
VERTEX
8
CUT
10
147.1599
20
23.2062
0
VERTEX
8
CUT
10
148.3566
20
23.4987
0
VERTEX
8
CUT
10
148.5823
20
24.4935
0
VERTEX
8
CUT
10
149.4381
20
24.9184
0
VERTEX
8
CUT
10
150.3640
20
25.6416
0
VERTEX
8
CUT
10
150.4956
20
25.9437
0
VERTEX
8
CUT
10
149.4637
20
27.0668
0
VERTEX
8
CUT
10
147.8437
20
26.0974
0
VERTEX
8
CUT
10
145.3071
20
26.6613
0
VERTEX
8
CUT
10
144.9390
20
26.9149
0
VERTEX
8
CUT
10
144.4745
20
27.9204
0
VERTEX
8
CUT
10
143.0906
20
29.4266
0
VERTEX
8
CUT
10
142.6759
20
30.7453
0
VERTEX
8
CUT
10
142.7101
20
33.2825
0
VERTEX
8
CUT
10
143.2166
20
35.0652
0
VERTEX
8
CUT
10
144.1063
20
37.0521
0
VERTEX
8
CUT
10
145.2460
20
40.3705
0
VERTEX
8
CUT
10
145.3105
20
41.2861
0
VERTEX
8
CUT
10
144.9398
20
41.7319
0
VERTEX
8
CUT
10
144.7870
20
42.3875
0
VERTEX
8
CUT
10
144.6742
20
46.0184
0
VERTEX
8
CUT
10
144.1949
20
46.6604
0
VERTEX
8
CUT
10
143.4335
20
46.9205
0
VERTEX
8
CUT
10
142.6484
20
47.5330
0
VERTEX
8
CUT
10
141.5429
20
48.0475
0
VERTEX
8
CUT
10
138.7317
20
49.9504
0
VERTEX
8
CUT
10
137.4374
20
51.4126
0
VERTEX
8
CUT
10
136.9187
20
53.0762
0
VERTEX
8
CUT
10
136.0094
20
54.2356
0
VERTEX
8
CUT
10
135.4613
20
55.4442
0
VERTEX
8
CUT
10
135.1196
20
55.6725
0
VERTEX
8
CUT
10
134.0999
20
55.6772
0
VERTEX
8
CUT
10
133.0060
20
56.0647
0
VERTEX
8
CUT
10
131.7356
20
56.2241
0
VERTEX
8
CUT
10
130.8098
20
55.3466
0
VERTEX
8
CUT
10
128.0723
20
55.8611
0
VERTEX
8
CUT
10
127.6866
20
55.6075
0
VERTEX
8
CUT
10
127.4407
20
54.2435
0
VERTEX
8
CUT
10
127.5240
20
52.5731
0
VERTEX
8
CUT
10
128.1036
20
50.2731
0
VERTEX
8
CUT
10
128.8214
20
48.9254
0
VERTEX
8
CUT
10
129.3832
20
45.8929
0
VERTEX
8
CUT
10
129.6494
20
42.0674
0
VERTEX
8
CUT
10
129.5980
20
41.6256
0
VERTEX
8
CUT
10
129.3238
20
41.3349
0
VERTEX
8
CUT
10
128.5393
20
41.5601
0
VERTEX
8
CUT
10
127.5751
20
42.5244
0
VERTEX
8
CUT
10
125.5294
20
42.4789
0
VERTEX
8
CUT
10
124.2970
20
42.2051
0
VERTEX
8
CUT
10
123.9152
20
41.1803
0
VERTEX
8
CUT
10
123.4713
20
40.8443
0
VERTEX
8
CUT
10
122.3124
20
41.2102
0
VERTEX
8
CUT
10
119.1885
20
40.4746
0
VERTEX
8
CUT
10
118.2375
20
40.8621
0
VERTEX
8
CUT
10
117.5193
20
41.9457
0
VERTEX
8
CUT
10
115.9554
20
43.3118
0
VERTEX
8
CUT
10
113.5859
20
43.2859
0
VERTEX
8
CUT
10
111.8813
20
42.1847
0
VERTEX
8
CUT
10
111.7089
20
41.7934
0
VERTEX
8
CUT
10
112.8695
20
40.8394
0
VERTEX
8
CUT
10
113.2101
20
38.6570
0
VERTEX
8
CUT
10
114.3069
20
37.4303
0
VERTEX
8
CUT
10
114.4790
20
36.4878
0
VERTEX
8
CUT
10
113.2404
20
35.9385
0
VERTEX
8
CUT
10
110.8234
20
36.0896
0
VERTEX
8
CUT
10
110.2983
20
35.4247
0
VERTEX
8
CUT
10
109.6987
20
35.1249
0
VERTEX
8
CUT
10
109.5512
20
34.4252
0
VERTEX
8
CUT
10
108.9726
20
34.3982
0
VERTEX
8
CUT
10
108.2164
20
34.0460
0
VERTEX
8
CUT
10
107.5948
20
33.1658
0
VERTEX
8
CUT
10
107.2346
20
32.9587
0
VERTEX
8
CUT
10
106.0076
20
33.4240
0
VERTEX
8
CUT
10
105.0553
20
33.5569
0
VERTEX
8
CUT
10
104.2721
20
34.4841
0
VERTEX
8
CUT
10
103.8821
20
34.5647
0
VERTEX
8
CUT
10
102.9104
20
33.9566
0
VERTEX
8
CUT
10
101.8941
20
33.7429
0
VERTEX
8
CUT
10
100.5963
20
33.1671
0
VERTEX
8
CUT
10
97.4410
20
30.4505
0
VERTEX
8
CUT
10
95.8358
20
29.5162
0
VERTEX
8
CUT
10
95.1886
20
30.2254
0
VERTEX
8
CUT
10
93.1548
20
30.7428
0
VERTEX
8
CUT
10
92.6532
20
31.1984
0
VERTEX
8
CUT
10
91.9822
20
31.0170
0
VERTEX
8
CUT
10
91.2756
20
31.5210
0
VERTEX
8
CUT
10
90.0746
20
32.9864
0
VERTEX
8
CUT
10
89.2989
20
33.6317
0
VERTEX
8
CUT
10
88.9822
20
35.1089
0
VERTEX
8
CUT
10
88.3630
20
36.0646
0
VERTEX
8
CUT
10
87.2574
20
36.1091
0
VERTEX
8
CUT
10
85.2790
20
35.6732
0
VERTEX
8
CUT
10
83.7074
20
35.9349
0
VERTEX
8
CUT
10
82.8570
20
35.7230
0
VERTEX
8
CUT
10
80.4276
20
35.9868
0
VERTEX
8
CUT
10
76.8289
20
32.7176
0
VERTEX
8
CUT
10
75.2379
20
32.2597
0
VERTEX
8
CUT
10
74.0936
20
31.3981
0
VERTEX
8
CUT
10
73.0828
20
30.9838
0
VERTEX
8
CUT
10
72.3539
20
28.7049
0
VERTEX
8
CUT
10
70.2655
20
28.4424
0
VERTEX
8
CUT
10
68.5857
20
27.4683
0
VERTEX
8
CUT
10
68.3642
20
26.9952
0
VERTEX
8
CUT
10
68.4203
20
26.0061
0
VERTEX
8
CUT
10
68.8077
20
25.1558
0
VERTEX
8
CUT
10
69.5641
20
24.6303
0
VERTEX
8
CUT
10
69.5469
20
24.3272
0
VERTEX
8
CUT
10
69.2918
20
24.1341
0
VERTEX
8
CUT
10
68.6056
20
24.1904
0
VERTEX
8
CUT
10
67.6426
20
24.6327
0
VERTEX
8
CUT
10
67.5399
20
24.7011
0
VERTEX
8
CUT
10
62.6351
20
28.0893
0
VERTEX
8
CUT
10
61.1967
20
29.2450
0
VERTEX
8
CUT
10
60.0058
20
30.7230
0
VERTEX
8
CUT
10
58.4875
20
31.7251
0
VERTEX
8
CUT
10
58.3309
20
32.1175
0
VERTEX
8
CUT
10
58.5315
20
33.3221
0
VERTEX
8
CUT
10
57.7542
20
34.5450
0
VERTEX
8
CUT
10
56.9316
20
35.1969
0
VERTEX
8
CUT
10
55.8875
20
35.5022
0
VERTEX
8
CUT
10
55.1954
20
36.2260
0
VERTEX
8
CUT
10
54.9629
20
37.1896
0
VERTEX
8
CUT
10
55.6137
20
37.9878
0
VERTEX
8
CUT
10
55.6544
20
38.3109
0
VERTEX
8
CUT
10
54.6495
20
40.0612
0
VERTEX
8
CUT
10
53.3623
20
41.0900
0
VERTEX
8
CUT
10
53.0603
20
42.2496
0
VERTEX
8
CUT
10
53.9820
20
43.2410
0
VERTEX
8
CUT
10
54.6501
20
43.4978
0
VERTEX
8
CUT
10
56.1587
20
42.0941
0
VERTEX
8
CUT
10
59.0059
20
40.2571
0
VERTEX
8
CUT
10
60.2509
20
39.2156
0
VERTEX
8
CUT
10
61.5244
20
37.8760
0
VERTEX
8
CUT
10
61.9014
20
36.7730
0
VERTEX
8
CUT
10
63.3166
20
35.8850
0
VERTEX
8
CUT
10
64.9598
20
35.6381
0
VERTEX
8
CUT
10
65.4238
20
34.8062
0
VERTEX
8
CUT
10
66.4488
20
34.9931
0
VERTEX
8
CUT
10
67.5894
20
34.0540
0
VERTEX
8
CUT
10
67.9926
20
34.1715
0
VERTEX
8
CUT
10
68.3845
20
35.0487
0
VERTEX
8
CUT
10
69.4851
20
36.5478
0
VERTEX
8
CUT
10
70.2232
20
36.9746
0
VERTEX
8
CUT
10
70.5957
20
37.7850
0
VERTEX
8
CUT
10
71.1314
20
38.2582
0
VERTEX
8
CUT
10
71.5015
20
40.2111
0
VERTEX
8
CUT
10
72.3290
20
40.6078
0
VERTEX
8
CUT
10
72.8059
20
41.3115
0
VERTEX
8
CUT
10
72.7251
20
42.3227
0
VERTEX
8
CUT
10
73.8825
20
43.1402
0
VERTEX
8
CUT
10
75.9190
20
45.2647
0
VERTEX
8
CUT
10
76.1580
20
46.3196
0
VERTEX
8
CUT
10
76.0192
20
48.2626
0
VERTEX
8
CUT
10
76.8082
20
49.0376
0
VERTEX
8
CUT
10
76.3192
20
50.8343
0
VERTEX
8
CUT
10
76.0246
20
50.9827
0
VERTEX
8
CUT
10
75.0565
20
50.8615
0
VERTEX
8
CUT
10
74.7403
20
52.1495
0
VERTEX
8
CUT
10
73.1978
20
53.3116
0
VERTEX
8
CUT
10
73.1384
20
53.8754
0
VERTEX
8
CUT
10
73.7890
20
54.5336
0
VERTEX
8
CUT
10
73.8220
20
54.8943
0
VERTEX
8
CUT
10
72.6264
20
56.6063
0
VERTEX
8
CUT
10
71.5951
20
57.3333
0
VERTEX
8
CUT
10
71.1695
20
58.8609
0
VERTEX
8
CUT
10
70.1487
20
60.4569
0
VERTEX
8
CUT
10
69.9178
20
61.7445
0
VERTEX
8
CUT
10
69.9104
20
65.4908
0
VERTEX
8
CUT
10
70.8770
20
66.5801
0
VERTEX
8
CUT
10
71.2934
20
67.6061
0
VERTEX
8
CUT
10
72.6213
20
68.5202
0
VERTEX
8
CUT
10
75.6332
20
71.8274
0
VERTEX
8
CUT
10
75.7878
20
72.9875
0
VERTEX
8
CUT
10
76.6426
20
73.9632
0
VERTEX
8
CUT
10
76.8713
20
74.5191
0
VERTEX
8
CUT
10
76.8160
20
75.1569
0
VERTEX
8
CUT
10
76.1305
20
75.6164
0
VERTEX
8
CUT
10
75.9501
20
76.2039
0
VERTEX
8
CUT
10
76.7750
20
77.1992
0
VERTEX
8
CUT
10
77.4800
20
80.2668
0
VERTEX
8
CUT
10
77.9915
20
81.6721
0
VERTEX
8
CUT
10
78.2958
20
82.0399
0
VERTEX
8
CUT
10
80.2957
20
83.0185
0
VERTEX
8
CUT
10
81.5813
20
83.9389
0
VERTEX
8
CUT
10
83.6491
20
86.5749
0
VERTEX
8
CUT
10
82.8441
20
88.0496
0
VERTEX
8
CUT
10
81.7011
20
88.6616
0
VERTEX
8
CUT
10
81.3365
20
89.7816
0
VERTEX
8
CUT
10
80.2674
20
89.8915
0
VERTEX
8
CUT
10
75.7767
20
85.7244
0
VERTEX
8
CUT
10
73.7854
20
84.4854
0
VERTEX
8
CUT
10
73.3823
20
84.4939
0
VERTEX
8
CUT
10
72.4559
20
84.9404
0
VERTEX
8
CUT
10
69.9949
20
83.8534
0
VERTEX
8
CUT
10
69.0111
20
83.9367
0
VERTEX
8
CUT
10
68.3212
20
84.3070
0
VERTEX
8
CUT
10
67.6416
20
85.8144
0
VERTEX
8
CUT
10
67.3335
20
86.0102
0
VERTEX
8
CUT
10
66.5102
20
85.4355
0
VERTEX
8
CUT
10
65.6647
20
85.5513
0
VERTEX
8
CUT
10
64.5521
20
84.9767
0
VERTEX
8
CUT
10
63.2708
20
85.4556
0
VERTEX
8
CUT
10
61.6692
20
85.5844
0
VERTEX
8
CUT
10
60.3054
20
85.1922
0
VERTEX
8
CUT
10
59.3648
20
85.5147
0
VERTEX
8
CUT
10
57.2293
20
83.3545
0
VERTEX
8
CUT
10
56.5428
20
82.3040
0
VERTEX
8
CUT
10
56.6506
20
81.4274
0
VERTEX
8
CUT
10
56.1591
20
80.7979
0
VERTEX
8
CUT
10
55.3535
20
80.1957
0
VERTEX
8
CUT
10
54.5978
20
80.1167
0
VERTEX
8
CUT
10
54.2232
20
79.6307
0
VERTEX
8
CUT
10
53.3909
20
79.1413
0
VERTEX
8
CUT
10
52.9459
20
78.5355
0
VERTEX
8
CUT
10
52.6315
20
78.5355
0
VERTEX
8
CUT
10
52.2571
20
78.8217
0
VERTEX
8
CUT
10
51.6123
20
79.9133
0
VERTEX
8
CUT
10
50.4588
20
79.9159
0
VERTEX
8
CUT
10
50.1393
20
79.7644
0
VERTEX
8
CUT
10
49.8046
20
79.1758
0
VERTEX
8
CUT
10
49.1711
20
78.8041
0
VERTEX
8
CUT
10
48.9297
20
78.2331
0
VERTEX
8
CUT
10
48.6357
20
78.1582
0
VERTEX
8
CUT
10
48.2722
20
78.4109
0
VERTEX
8
CUT
10
48.1340
20
79.1463
0
VERTEX
8
CUT
10
47.5031
20
79.5593
0
VERTEX
8
CUT
10
47.2873
20
79.9190
0
VERTEX
8
CUT
10
47.2605
20
80.2419
0
VERTEX
8
CUT
10
47.7888
20
81.1837
0
VERTEX
8
CUT
10
47.4081
20
82.0076
0
VERTEX
8
CUT
10
47.6087
20
83.2420
0
VERTEX
8
CUT
10
47.6716
20
86.1737
0
VERTEX
8
CUT
10
48.9642
20
87.7090
0
VERTEX
8
CUT
10
50.2149
20
89.5894
0
VERTEX
8
CUT
10
50.6162
20
90.5840
0
VERTEX
8
CUT
10
52.2435
20
92.4316
0
VERTEX
8
CUT
10
53.0688
20
92.9090
0
VERTEX
8
CUT
10
53.0410
20
93.2847
0
VERTEX
8
CUT
10
52.3353
20
93.7523
0
VERTEX
8
CUT
10
52.2230
20
94.2220
0
VERTEX
8
CUT
10
52.6187
20
94.9306
0
VERTEX
8
CUT
10
53.6297
20
98.0740
0
VERTEX
8
CUT
10
54.6456
20
99.9330
0
VERTEX
8
CUT
10
55.0175
20
102.2283
0
VERTEX
8
CUT
10
55.4294
20
102.7015
0
VERTEX
8
CUT
10
57.0407
20
103.6681
0
VERTEX
8
CUT
10
58.3725
20
103.7468
0
VERTEX
8
CUT
10
59.1771
20
104.3541
0
VERTEX
8
CUT
10
60.1913
20
104.5729
0
VERTEX
8
CUT
10
61.0593
20
105.4429
0
VERTEX
8
CUT
10
61.9657
20
105.9963
0
VERTEX
8
CUT
10
62.4736
20
107.0877
0
VERTEX
8
CUT
10
62.5972
20
108.1503
0
VERTEX
8
CUT
10
62.3938
20
109.1738
0
VERTEX
8
CUT
10
61.7083
20
109.8740
0
VERTEX
8
CUT
10
60.3746
20
110.5777
0
VERTEX
8
CUT
10
59.6593
20
112.1466
0
VERTEX
8
CUT
10
59.9288
20
112.7163
0
VERTEX
8
CUT
10
61.5742
20
113.9805
0
VERTEX
8
CUT
10
61.5455
20
114.7975
0
VERTEX
8
CUT
10
62.1794
20
115.6277
0
VERTEX
8
CUT
10
62.6930
20
117.3962
0
VERTEX
8
CUT
10
63.0046
20
117.6704
0
VERTEX
8
CUT
10
63.4030
20
117.6713
0
VERTEX
8
CUT
10
64.5681
20
116.9520
0
VERTEX
8
CUT
10
65.8622
20
116.4804
0
VERTEX
8
CUT
10
68.5888
20
116.4788
0
VERTEX
8
CUT
10
69.8016
20
117.0668
0
VERTEX
8
CUT
10
71.5167
20
118.8793
0
VERTEX
8
CUT
10
71.4705
20
119.5121
0
VERTEX
8
CUT
10
70.5947
20
120.4191
0
VERTEX
8
CUT
10
69.6430
20
122.1220
0
VERTEX
8
CUT
10
67.7685
20
123.7374
0
VERTEX
8
CUT
10
66.4569
20
125.9712
0
VERTEX
8
CUT
10
67.0958
20
127.5278
0
VERTEX
8
CUT
10
66.8575
20
128.5402
0
VERTEX
8
CUT
10
66.2590
20
129.2581
0
VERTEX
8
CUT
10
65.8173
20
129.4118
0
VERTEX
8
CUT
10
64.3753
20
128.7918
0
VERTEX
8
CUT
10
63.8319
20
128.8520
0
VERTEX
8
CUT
10
62.7939
20
128.1211
0
VERTEX
8
CUT
10
62.2064
20
128.0239
0
VERTEX
8
CUT
10
62.0176
20
128.3757
0
VERTEX
8
CUT
10
62.1665
20
128.7953
0
VERTEX
8
CUT
10
63.2888
20
129.9655
0
VERTEX
8
CUT
10
62.9344
20
131.9161
0
VERTEX
8
CUT
10
60.9430
20
133.6415
0
VERTEX
8
CUT
10
59.0445
20
134.2529
0
VERTEX
8
CUT
10
55.7719
20
132.8584
0
VERTEX
8
CUT
10
52.4957
20
129.8742
0
VERTEX
8
CUT
10
48.3350
20
126.6701
0
VERTEX
8
CUT
10
47.7402
20
126.7730
0
VERTEX
8
CUT
10
45.6188
20
128.3870
0
VERTEX
8
CUT
10
44.6654
20
127.9874
0
VERTEX
8
CUT
10
43.5551
20
128.5322
0
VERTEX
8
CUT
10
42.2502
20
127.9881
0
VERTEX
8
CUT
10
41.4430
20
128.6534
0
VERTEX
8
CUT
10
41.1149
20
128.6837
0
VERTEX
8
CUT
10
39.7561
20
127.6904
0
VERTEX
8
CUT
10
39.0467
20
126.6666
0
VERTEX
8
CUT
10
36.8411
20
124.4579
0
VERTEX
8
CUT
10
35.9153
20
124.5633
0
VERTEX
8
CUT
10
33.2980
20
123.2626
0
VERTEX
8
CUT
10
31.4613
20
123.4720
0
VERTEX
8
CUT
10
29.8845
20
123.1172
0
VERTEX
8
CUT
10
26.7956
20
121.3112
0
VERTEX
8
CUT
10
20.6117
20
119.0319
0
VERTEX
8
CUT
10
18.7076
20
117.9131
0
VERTEX
8
CUT
10
18.3326
20
117.0909
0
VERTEX
8
CUT
10
17.6885
20
116.8336
0
VERTEX
8
CUT
10
17.1559
20
116.9401
0
VERTEX
8
CUT
10
16.9473
20
117.2732
0
VERTEX
8
CUT
10
17.1721
20
117.6466
0
SEQEND
0
ENDSEC
0
EOF
