0
SECTION
2
HEADER
9
$ACADVER
1
AC1009
9
$INSUNITS
70
4
0
ENDSEC
0
SECTION
2
TABLES
0
TABLE
2
LAYER
70
1
0
LAYER
2
CUT
70
0
62
7
6
CONTINUOUS
0
ENDTAB
0
ENDSEC
0
SECTION
2
ENTITIES
0
POLYLINE
8
CUT
66
1
70
1
10
0.0
20
0.0
30
0.0
0
VERTEX
8
CUT
10
2.4729
20
131.3262
0
VERTEX
8
CUT
10
1.1847
20
134.2107
0
VERTEX
8
CUT
10
0.3315
20
137.2399
0
VERTEX
8
CUT
10
0.0288
20
140.8277
0
VERTEX
8
CUT
10
0.0891
20
143.1518
0
VERTEX
8
CUT
10
0.3944
20
144.9373
0
VERTEX
8
CUT
10
2.2620
20
149.5285
0
VERTEX
8
CUT
10
0.8336
20
152.9568
0
VERTEX
8
CUT
10
0.3924
20
154.5307
0
VERTEX
8
CUT
10
0.0000
20
157.7302
0
VERTEX
8
CUT
10
0.2403
20
161.0918
0
VERTEX
8
CUT
10
1.3778
20
165.3968
0
VERTEX
8
CUT
10
2.7991
20
168.3904
0
VERTEX
8
CUT
10
4.0111
20
169.9496
0
VERTEX
8
CUT
10
3.1687
20
174.2829
0
VERTEX
8
CUT
10
2.8971
20
177.8129
0
VERTEX
8
CUT
10
2.9893
20
180.1872
0
VERTEX
8
CUT
10
3.4420
20
182.9347
0
VERTEX
8
CUT
10
4.6296
20
186.5069
0
VERTEX
8
CUT
10
6.2693
20
189.9409
0
VERTEX
8
CUT
10
8.2140
20
192.8917
0
VERTEX
8
CUT
10
10.2817
20
195.1775
0
VERTEX
8
CUT
10
10.8061
20
202.6339
0
VERTEX
8
CUT
10
11.5350
20
205.8319
0
VERTEX
8
CUT
10
12.1270
20
207.3920
0
VERTEX
8
CUT
10
13.7101
20
210.4331
0
VERTEX
8
CUT
10
16.2986
20
214.0232
0
VERTEX
8
CUT
10
19.6572
20
217.3218
0
VERTEX
8
CUT
10
20.3025
20
217.7280
0
VERTEX
8
CUT
10
21.0596
20
217.7925
0
VERTEX
8
CUT
10
21.3349
20
218.0193
0
VERTEX
8
CUT
10
21.8852
20
222.1115
0
VERTEX
8
CUT
10
22.7978
20
225.3445
0
VERTEX
8
CUT
10
24.1461
20
228.5917
0
VERTEX
8
CUT
10
25.8006
20
231.4335
0
VERTEX
8
CUT
10
28.0648
20
234.0900
0
VERTEX
8
CUT
10
30.9311
20
236.8341
0
VERTEX
8
CUT
10
33.6746
20
238.9654
0
VERTEX
8
CUT
10
36.1014
20
240.1672
0
VERTEX
8
CUT
10
36.8166
20
241.5901
0
VERTEX
8
CUT
10
37.9945
20
245.0297
0
VERTEX
8
CUT
10
39.2918
20
247.7756
0
VERTEX
8
CUT
10
40.7477
20
249.8827
0
VERTEX
8
CUT
10
42.6289
20
252.0355
0
VERTEX
8
CUT
10
45.7406
20
254.8755
0
VERTEX
8
CUT
10
47.7168
20
256.2048
0
VERTEX
8
CUT
10
51.7218
20
258.1764
0
VERTEX
8
CUT
10
52.5516
20
258.4913
0
VERTEX
8
CUT
10
54.0000
20
258.6789
0
VERTEX
8
CUT
10
54.4256
20
259.1673
0
VERTEX
8
CUT
10
56.5220
20
263.0588
0
VERTEX
8
CUT
10
58.1073
20
265.3408
0
VERTEX
8
CUT
10
59.9371
20
267.4410
0
VERTEX
8
CUT
10
62.0381
20
269.3560
0
VERTEX
8
CUT
10
64.3205
20
271.0271
0
VERTEX
8
CUT
10
66.7581
20
272.4562
0
VERTEX
8
CUT
10
69.3482
20
273.6111
0
VERTEX
8
CUT
10
73.0494
20
274.7015
0
VERTEX
8
CUT
10
76.2029
20
274.9068
0
VERTEX
8
CUT
10
79.6493
20
278.9727
0
VERTEX
8
CUT
10
81.2641
20
280.4379
0
VERTEX
8
CUT
10
84.7941
20
282.8763
0
VERTEX
8
CUT
10
86.7507
20
283.8699
0
VERTEX
8
CUT
10
90.8867
20
285.2887
0
VERTEX
8
CUT
10
94.3873
20
285.9905
0
VERTEX
8
CUT
10
97.2085
20
286.1726
0
VERTEX
8
CUT
10
98.6245
20
285.7472
0
VERTEX
8
CUT
10
102.2131
20
289.0051
0
VERTEX
8
CUT
10
104.8227
20
290.8248
0
VERTEX
8
CUT
10
107.4950
20
292.2034
0
VERTEX
8
CUT
10
111.8710
20
293.5614
0
VERTEX
8
CUT
10
116.5214
20
294.2327
0
VERTEX
8
CUT
10
120.8132
20
294.1145
0
VERTEX
8
CUT
10
123.5432
20
293.6085
0
VERTEX
8
CUT
10
129.2303
20
296.6412
0
VERTEX
8
CUT
10
131.0537
20
297.2782
0
VERTEX
8
CUT
10
134.9276
20
298.1894
0
VERTEX
8
CUT
10
138.8840
20
298.4298
0
VERTEX
8
CUT
10
142.7541
20
298.0364
0
VERTEX
8
CUT
10
145.2137
20
297.4216
0
VERTEX
8
CUT
10
149.8872
20
295.6576
0
VERTEX
8
CUT
10
150.6276
20
295.7766
0
VERTEX
8
CUT
10
153.5367
20
297.0655
0
VERTEX
8
CUT
10
157.8553
20
298.1829
0
VERTEX
8
CUT
10
160.2132
20
298.4308
0
VERTEX
8
CUT
10
164.7984
20
298.2498
0
VERTEX
8
CUT
10
167.0931
20
297.8464
0
VERTEX
8
CUT
10
169.7213
20
297.0607
0
VERTEX
8
CUT
10
172.7307
20
295.6034
0
VERTEX
8
CUT
10
176.0739
20
293.6730
0
VERTEX
8
CUT
10
181.6797
20
294.2647
0
VERTEX
8
CUT
10
185.2140
20
294.0230
0
VERTEX
8
CUT
10
188.8270
20
293.3788
0
VERTEX
8
CUT
10
191.6298
20
292.4628
0
VERTEX
8
CUT
10
195.0813
20
290.6765
0
VERTEX
8
CUT
10
197.3199
20
289.1433
0
VERTEX
8
CUT
10
201.2474
20
285.8034
0
VERTEX
8
CUT
10
202.5652
20
286.1751
0
VERTEX
8
CUT
10
206.4691
20
285.8371
0
VERTEX
8
CUT
10
210.5194
20
284.8093
0
VERTEX
8
CUT
10
214.2895
20
283.2305
0
VERTEX
8
CUT
10
216.0584
20
282.2064
0
VERTEX
8
CUT
10
219.1402
20
279.8195
0
VERTEX
8
CUT
10
223.3222
20
275.2362
0
VERTEX
8
CUT
10
227.4598
20
274.6348
0
VERTEX
8
CUT
10
232.0298
20
273.0311
0
VERTEX
8
CUT
10
234.8887
20
271.4644
0
VERTEX
8
CUT
10
238.0613
20
269.1379
0
VERTEX
8
CUT
10
239.5151
20
267.7468
0
VERTEX
8
CUT
10
242.0796
20
264.7602
0
VERTEX
8
CUT
10
245.4930
20
259.0323
0
VERTEX
8
CUT
10
246.0198
20
258.7269
0
VERTEX
8
CUT
10
248.2648
20
258.1988
0
VERTEX
8
CUT
10
252.5834
20
255.9638
0
VERTEX
8
CUT
10
254.5867
20
254.5772
0
VERTEX
8
CUT
10
257.3097
20
252.0661
0
VERTEX
8
CUT
10
259.7468
20
248.9024
0
VERTEX
8
CUT
10
260.7977
20
247.1722
0
VERTEX
8
CUT
10
262.3956
20
243.8260
0
VERTEX
8
CUT
10
263.2169
20
240.9221
0
VERTEX
8
CUT
10
263.6603
20
239.9914
0
VERTEX
8
CUT
10
265.3314
20
239.4467
0
VERTEX
8
CUT
10
267.9698
20
237.7181
0
VERTEX
8
CUT
10
269.9905
20
236.0647
0
VERTEX
8
CUT
10
272.4603
20
233.5610
0
VERTEX
8
CUT
10
274.9843
20
230.1192
0
VERTEX
8
CUT
10
276.7966
20
226.4039
0
VERTEX
8
CUT
10
277.9263
20
222.3856
0
VERTEX
8
CUT
10
278.5203
20
218.5745
0
VERTEX
8
CUT
10
280.8641
20
216.8260
0
VERTEX
8
CUT
10
282.5299
20
215.2233
0
VERTEX
8
CUT
10
284.2385
20
213.2981
0
VERTEX
8
CUT
10
286.8341
20
209.3443
0
VERTEX
8
CUT
10
288.5151
20
205.1083
0
VERTEX
8
CUT
10
289.0355
20
202.8225
0
VERTEX
8
CUT
10
289.3451
20
200.3790
0
VERTEX
8
CUT
10
289.5902
20
194.8017
0
VERTEX
8
CUT
10
290.4011
20
194.2523
0
VERTEX
8
CUT
10
291.5223
20
193.0702
0
VERTEX
8
CUT
10
293.5634
20
190.2091
0
VERTEX
8
CUT
10
295.2699
20
186.9215
0
VERTEX
8
CUT
10
296.1320
20
184.4576
0
VERTEX
8
CUT
10
296.8582
20
180.7057
0
VERTEX
8
CUT
10
296.9820
20
177.2619
0
VERTEX
8
CUT
10
296.7969
20
174.5291
0
VERTEX
8
CUT
10
296.0085
20
171.1601
0
VERTEX
8
CUT
10
295.8897
20
169.8702
0
VERTEX
8
CUT
10
297.2345
20
168.2797
0
VERTEX
8
CUT
10
298.1787
20
166.3679
0
VERTEX
8
CUT
10
299.4772
20
162.3520
0
VERTEX
8
CUT
10
299.8196
20
160.3015
0
VERTEX
8
CUT
10
299.9405
20
156.5602
0
VERTEX
8
CUT
10
299.6675
20
154.7754
0
VERTEX
8
CUT
10
299.2344
20
153.0699
0
VERTEX
8
CUT
10
298.0084
20
149.9420
0
VERTEX
8
CUT
10
298.0995
20
148.9697
0
VERTEX
8
CUT
10
299.3334
20
145.5706
0
VERTEX
8
CUT
10
299.8150
20
143.2526
0
VERTEX
8
CUT
10
300.0000
20
140.6223
0
VERTEX
8
CUT
10
299.7884
20
138.0549
0
VERTEX
8
CUT
10
299.2992
20
135.7865
0
VERTEX
8
CUT
10
298.4789
20
133.4450
0
VERTEX
8
CUT
10
297.0222
20
130.3470
0
VERTEX
8
CUT
10
296.1040
20
129.3113
0
VERTEX
8
CUT
10
296.0220
20
128.9549
0
VERTEX
8
CUT
10
296.8853
20
125.1784
0
VERTEX
8
CUT
10
297.0715
20
122.9750
0
VERTEX
8
CUT
10
296.8866
20
116.5066
0
VERTEX
8
CUT
10
296.0065
20
113.0175
0
VERTEX
8
CUT
10
294.2960
20
109.3498
0
VERTEX
8
CUT
10
291.5721
20
105.2328
0
VERTEX
8
CUT
10
289.7257
20
103.5210
0
VERTEX
8
CUT
10
289.5262
20
98.0772
0
VERTEX
8
CUT
10
289.2837
20
96.1570
0
VERTEX
8
CUT
10
288.9115
20
94.2981
0
VERTEX
8
CUT
10
287.7963
20
90.8318
0
VERTEX
8
CUT
10
286.1245
20
87.5417
0
VERTEX
8
CUT
10
284.3966
20
85.0718
0
VERTEX
8
CUT
10
281.1783
20
81.7036
0
VERTEX
8
CUT
10
278.9821
20
80.2391
0
VERTEX
8
CUT
10
278.5080
20
78.7963
0
VERTEX
8
CUT
10
278.0447
20
75.9756
0
VERTEX
8
CUT
10
276.7794
20
71.8781
0
VERTEX
8
CUT
10
274.8331
20
68.0682
0
VERTEX
8
CUT
10
273.6466
20
66.3005
0
VERTEX
8
CUT
10
272.2516
20
64.5953
0
VERTEX
8
CUT
10
269.0955
20
61.5928
0
VERTEX
8
CUT
10
266.4776
20
59.6462
0
VERTEX
8
CUT
10
263.6932
20
58.1112
0
VERTEX
8
CUT
10
261.6528
20
52.9715
0
VERTEX
8
CUT
10
260.4992
20
50.6602
0
VERTEX
8
CUT
10
257.5803
20
46.5777
0
VERTEX
8
CUT
10
255.7501
20
44.7463
0
VERTEX
8
CUT
10
251.6743
20
41.7574
0
VERTEX
8
CUT
10
247.9681
20
39.9480
0
VERTEX
8
CUT
10
245.6904
20
39.3601
0
VERTEX
8
CUT
10
243.4958
20
35.3690
0
VERTEX
8
CUT
10
241.3983
20
32.4479
0
VERTEX
8
CUT
10
238.9185
20
29.7538
0
VERTEX
8
CUT
10
236.3191
20
27.5774
0
VERTEX
8
CUT
10
233.3376
20
25.7496
0
VERTEX
8
CUT
10
230.0533
20
24.3067
0
VERTEX
8
CUT
10
226.9878
20
23.4230
0
VERTEX
8
CUT
10
223.7232
20
23.2472
0
VERTEX
8
CUT
10
220.2309
20
19.1868
0
VERTEX
8
CUT
10
218.4026
20
17.5681
0
VERTEX
8
CUT
10
216.3623
20
16.1337
0
VERTEX
8
CUT
10
214.1070
20
14.9114
0
VERTEX
8
CUT
10
209.1940
20
13.1613
0
VERTEX
8
CUT
10
206.6094
20
12.6767
0
VERTEX
8
CUT
10
200.7548
20
12.3195
0
VERTEX
8
CUT
10
197.2111
20
9.1452
0
VERTEX
8
CUT
10
194.8929
20
7.6461
0
VERTEX
8
CUT
10
192.3825
20
6.4065
0
VERTEX
8
CUT
10
189.7320
20
5.4651
0
VERTEX
8
CUT
10
186.9611
20
4.8283
0
VERTEX
8
CUT
10
184.0384
20
4.4962
0
VERTEX
8
CUT
10
181.0333
20
4.4978
0
VERTEX
8
CUT
10
175.9974
20
4.9236
0
VERTEX
8
CUT
10
172.8058
20
3.0001
0
VERTEX
8
CUT
10
170.0826
20
1.7732
0
VERTEX
8
CUT
10
167.1933
20
0.8577
0
VERTEX
8
CUT
10
164.2070
20
0.3359
0
VERTEX
8
CUT
10
161.1390
20
0.2114
0
VERTEX
8
CUT
10
158.1213
20
0.4589
0
VERTEX
8
CUT
10
155.1631
20
1.1037
0
VERTEX
8
CUT
10
150.3606
20
2.9911
0
VERTEX
8
CUT
10
146.3175
20
1.3353
0
VERTEX
8
CUT
10
143.3299
20
0.4601
0
VERTEX
8
CUT
10
140.2884
20
0.0287
0
VERTEX
8
CUT
10
137.2341
20
0.0000
0
VERTEX
8
CUT
10
132.8432
20
0.7266
0
VERTEX
8
CUT
10
129.9194
20
1.6993
0
VERTEX
8
CUT
10
127.2445
20
2.8993
0
VERTEX
8
CUT
10
124.0206
20
5.0630
0
VERTEX
8
CUT
10
120.4720
20
4.6183
0
VERTEX
8
CUT
10
117.6334
20
4.5264
0
VERTEX
8
CUT
10
113.2825
20
4.7981
0
VERTEX
8
CUT
10
110.8983
20
5.2624
0
VERTEX
8
CUT
10
108.0954
20
6.2090
0
VERTEX
8
CUT
10
104.2200
20
8.2377
0
VERTEX
8
CUT
10
101.8762
20
9.9708
0
VERTEX
8
CUT
10
99.2483
20
12.4101
0
VERTEX
8
CUT
10
93.6977
20
12.6764
0
VERTEX
8
CUT
10
91.1678
20
13.1312
0
VERTEX
8
CUT
10
88.6621
20
13.8428
0
VERTEX
8
CUT
10
86.2851
20
14.7904
0
VERTEX
8
CUT
10
84.0635
20
15.9798
0
VERTEX
8
CUT
10
82.0281
20
17.3567
0
VERTEX
8
CUT
10
80.1403
20
18.9371
0
VERTEX
8
CUT
10
76.7094
20
23.0316
0
VERTEX
8
CUT
10
76.0812
20
23.2458
0
VERTEX
8
CUT
10
73.1805
20
23.5205
0
VERTEX
8
CUT
10
69.6693
20
24.4711
0
VERTEX
8
CUT
10
66.0815
20
26.1765
0
VERTEX
8
CUT
10
62.6713
20
28.4641
0
VERTEX
8
CUT
10
60.2431
20
30.6516
0
VERTEX
8
CUT
10
58.0690
20
33.1277
0
VERTEX
8
CUT
10
54.3674
20
39.0585
0
VERTEX
8
CUT
10
53.9293
20
39.3826
0
VERTEX
8
CUT
10
50.9147
20
40.4141
0
VERTEX
8
CUT
10
48.1933
20
41.9262
0
VERTEX
8
CUT
10
45.4292
20
43.8993
0
VERTEX
8
CUT
10
43.0034
20
46.0807
0
VERTEX
8
CUT
10
40.2855
20
49.4024
0
VERTEX
8
CUT
10
38.9397
20
51.6916
0
VERTEX
8
CUT
10
36.3088
20
58.2265
0
VERTEX
8
CUT
10
34.6215
20
58.9454
0
VERTEX
8
CUT
10
33.3133
20
59.7650
0
VERTEX
8
CUT
10
30.2335
20
62.2920
0
VERTEX
8
CUT
10
27.1838
20
65.4025
0
VERTEX
8
CUT
10
24.9230
20
68.3731
0
VERTEX
8
CUT
10
23.6265
20
70.9665
0
VERTEX
8
CUT
10
22.5238
20
73.8176
0
VERTEX
8
CUT
10
21.8255
20
76.5552
0
VERTEX
8
CUT
10
21.3048
20
80.2541
0
VERTEX
8
CUT
10
20.4144
20
80.5690
0
VERTEX
8
CUT
10
19.2720
20
81.3126
0
VERTEX
8
CUT
10
16.1187
20
84.4650
0
VERTEX
8
CUT
10
14.0325
20
87.3478
0
VERTEX
8
CUT
10
12.3990
20
90.4028
0
VERTEX
8
CUT
10
11.7185
20
92.0748
0
VERTEX
8
CUT
10
10.6248
20
95.9774
0
VERTEX
8
CUT
10
10.1483
20
103.6674
0
VERTEX
8
CUT
10
8.6678
20
104.9865
0
VERTEX
8
CUT
10
7.3958
20
106.6596
0
VERTEX
8
CUT
10
5.5442
20
109.6065
0
VERTEX
8
CUT
10
4.2440
20
112.5991
0
VERTEX
8
CUT
10
3.1440
20
117.1956
0
VERTEX
8
CUT
10
2.8966
20
121.9733
0
VERTEX
8
CUT
10
3.5320
20
126.5132
0
VERTEX
8
CUT
10
4.2247
20
128.7783
0
SEQEND
0
POLYLINE
8
CUT
66
1
70
1
10
0.0
20
0.0
30
0.0
0
VERTEX
8
CUT
10
151.7500
20
8.0000
0
VERTEX
8
CUT
10
151.7500
20
14.9692
0
VERTEX
8
CUT
10
151.7994
20
14.9979
0
VERTEX
8
CUT
10
151.8725
20
15.0430
0
VERTEX
8
CUT
10
151.9445
20
15.0899
0
VERTEX
8
CUT
10
152.0153
20
15.1385
0
VERTEX
8
CUT
10
152.0849
20
15.1888
0
VERTEX
8
CUT
10
152.1533
20
15.2408
0
VERTEX
8
CUT
10
152.2204
20
15.2945
0
VERTEX
8
CUT
10
152.2861
20
15.3498
0
VERTEX
8
CUT
10
152.3505
20
15.4067
0
VERTEX
8
CUT
10
152.4134
20
15.4651
0
VERTEX
8
CUT
10
152.4749
20
15.5251
0
VERTEX
8
CUT
10
152.5349
20
15.5866
0
VERTEX
8
CUT
10
152.5933
20
15.6495
0
VERTEX
8
CUT
10
152.6502
20
15.7139
0
VERTEX
8
CUT
10
152.7055
20
15.7796
0
VERTEX
8
CUT
10
152.7592
20
15.8467
0
VERTEX
8
CUT
10
152.8112
20
15.9151
0
VERTEX
8
CUT
10
152.8615
20
15.9847
0
VERTEX
8
CUT
10
152.9101
20
16.0555
0
VERTEX
8
CUT
10
152.9570
20
16.1275
0
VERTEX
8
CUT
10
153.0021
20
16.2006
0
VERTEX
8
CUT
10
153.0453
20
16.2749
0
VERTEX
8
CUT
10
153.0867
20
16.3501
0
VERTEX
8
CUT
10
153.1263
20
16.4264
0
VERTEX
8
CUT
10
153.1640
20
16.5036
0
VERTEX
8
CUT
10
153.1997
20
16.5817
0
VERTEX
8
CUT
10
153.2336
20
16.6606
0
VERTEX
8
CUT
10
153.2655
20
16.7404
0
VERTEX
8
CUT
10
153.2954
20
16.8209
0
VERTEX
8
CUT
10
153.3233
20
16.9021
0
VERTEX
8
CUT
10
153.3493
20
16.9840
0
VERTEX
8
CUT
10
153.3732
20
17.0665
0
VERTEX
8
CUT
10
153.3951
20
17.1496
0
VERTEX
8
CUT
10
153.4150
20
17.2331
0
VERTEX
8
CUT
10
153.4327
20
17.3172
0
VERTEX
8
CUT
10
153.4485
20
17.4016
0
VERTEX
8
CUT
10
153.4621
20
17.4864
0
VERTEX
8
CUT
10
153.4737
20
17.5716
0
VERTEX
8
CUT
10
153.4831
20
17.6569
0
VERTEX
8
CUT
10
153.4905
20
17.7425
0
VERTEX
8
CUT
10
153.4958
20
17.8283
0
VERTEX
8
CUT
10
153.4989
20
17.9141
0
VERTEX
8
CUT
10
153.5000
20
18.0000
0
VERTEX
8
CUT
10
153.4989
20
18.0859
0
VERTEX
8
CUT
10
153.4958
20
18.1717
0
VERTEX
8
CUT
10
153.4905
20
18.2575
0
VERTEX
8
CUT
10
153.4831
20
18.3431
0
VERTEX
8
CUT
10
153.4737
20
18.4284
0
VERTEX
8
CUT
10
153.4621
20
18.5136
0
VERTEX
8
CUT
10
153.4485
20
18.5984
0
VERTEX
8
CUT
10
153.4327
20
18.6828
0
VERTEX
8
CUT
10
153.4150
20
18.7669
0
VERTEX
8
CUT
10
153.3951
20
18.8504
0
VERTEX
8
CUT
10
153.3732
20
18.9335
0
VERTEX
8
CUT
10
153.3493
20
19.0160
0
VERTEX
8
CUT
10
153.3233
20
19.0979
0
VERTEX
8
CUT
10
153.2954
20
19.1791
0
VERTEX
8
CUT
10
153.2655
20
19.2596
0
VERTEX
8
CUT
10
153.2336
20
19.3394
0
VERTEX
8
CUT
10
153.1997
20
19.4183
0
VERTEX
8
CUT
10
153.1640
20
19.4964
0
VERTEX
8
CUT
10
153.1263
20
19.5736
0
VERTEX
8
CUT
10
153.0867
20
19.6499
0
VERTEX
8
CUT
10
153.0453
20
19.7251
0
VERTEX
8
CUT
10
153.0021
20
19.7994
0
VERTEX
8
CUT
10
152.9570
20
19.8725
0
VERTEX
8
CUT
10
152.9101
20
19.9445
0
VERTEX
8
CUT
10
152.8615
20
20.0153
0
VERTEX
8
CUT
10
152.8112
20
20.0849
0
VERTEX
8
CUT
10
152.7592
20
20.1533
0
VERTEX
8
CUT
10
152.7055
20
20.2204
0
VERTEX
8
CUT
10
152.6502
20
20.2861
0
VERTEX
8
CUT
10
152.5933
20
20.3505
0
VERTEX
8
CUT
10
152.5349
20
20.4134
0
VERTEX
8
CUT
10
152.4749
20
20.4749
0
VERTEX
8
CUT
10
152.4134
20
20.5349
0
VERTEX
8
CUT
10
152.3505
20
20.5933
0
VERTEX
8
CUT
10
152.2861
20
20.6502
0
VERTEX
8
CUT
10
152.2204
20
20.7055
0
VERTEX
8
CUT
10
152.1533
20
20.7592
0
VERTEX
8
CUT
10
152.0849
20
20.8112
0
VERTEX
8
CUT
10
152.0153
20
20.8615
0
VERTEX
8
CUT
10
151.9445
20
20.9101
0
VERTEX
8
CUT
10
151.8725
20
20.9570
0
VERTEX
8
CUT
10
151.7994
20
21.0021
0
VERTEX
8
CUT
10
151.7251
20
21.0453
0
VERTEX
8
CUT
10
151.6499
20
21.0867
0
VERTEX
8
CUT
10
151.5736
20
21.1263
0
VERTEX
8
CUT
10
151.4964
20
21.1640
0
VERTEX
8
CUT
10
151.4183
20
21.1997
0
VERTEX
8
CUT
10
151.3394
20
21.2336
0
VERTEX
8
CUT
10
151.2596
20
21.2655
0
VERTEX
8
CUT
10
151.1791
20
21.2954
0
VERTEX
8
CUT
10
151.0979
20
21.3233
0
VERTEX
8
CUT
10
151.0160
20
21.3493
0
VERTEX
8
CUT
10
150.9335
20
21.3732
0
VERTEX
8
CUT
10
150.8504
20
21.3951
0
VERTEX
8
CUT
10
150.7669
20
21.4150
0
VERTEX
8
CUT
10
150.6828
20
21.4327
0
VERTEX
8
CUT
10
150.5984
20
21.4485
0
VERTEX
8
CUT
10
150.5136
20
21.4621
0
VERTEX
8
CUT
10
150.4284
20
21.4737
0
VERTEX
8
CUT
10
150.3431
20
21.4831
0
VERTEX
8
CUT
10
150.2575
20
21.4905
0
VERTEX
8
CUT
10
150.1717
20
21.4958
0
VERTEX
8
CUT
10
150.0859
20
21.4989
0
VERTEX
8
CUT
10
150.0000
20
21.5000
0
VERTEX
8
CUT
10
149.9141
20
21.4989
0
VERTEX
8
CUT
10
149.8283
20
21.4958
0
VERTEX
8
CUT
10
149.7425
20
21.4905
0
VERTEX
8
CUT
10
149.6569
20
21.4831
0
VERTEX
8
CUT
10
149.5716
20
21.4737
0
VERTEX
8
CUT
10
149.4864
20
21.4621
0
VERTEX
8
CUT
10
149.4016
20
21.4485
0
VERTEX
8
CUT
10
149.3172
20
21.4327
0
VERTEX
8
CUT
10
149.2331
20
21.4150
0
VERTEX
8
CUT
10
149.1496
20
21.3951
0
VERTEX
8
CUT
10
149.0665
20
21.3732
0
VERTEX
8
CUT
10
148.9840
20
21.3493
0
VERTEX
8
CUT
10
148.9021
20
21.3233
0
VERTEX
8
CUT
10
148.8209
20
21.2954
0
VERTEX
8
CUT
10
148.7404
20
21.2655
0
VERTEX
8
CUT
10
148.6606
20
21.2336
0
VERTEX
8
CUT
10
148.5817
20
21.1997
0
VERTEX
8
CUT
10
148.5036
20
21.1640
0
VERTEX
8
CUT
10
148.4264
20
21.1263
0
VERTEX
8
CUT
10
148.3501
20
21.0867
0
VERTEX
8
CUT
10
148.2749
20
21.0453
0
VERTEX
8
CUT
10
148.2006
20
21.0021
0
VERTEX
8
CUT
10
148.1275
20
20.9570
0
VERTEX
8
CUT
10
148.0555
20
20.9101
0
VERTEX
8
CUT
10
147.9847
20
20.8615
0
VERTEX
8
CUT
10
147.9151
20
20.8112
0
VERTEX
8
CUT
10
147.8467
20
20.7592
0
VERTEX
8
CUT
10
147.7796
20
20.7055
0
VERTEX
8
CUT
10
147.7139
20
20.6502
0
VERTEX
8
CUT
10
147.6495
20
20.5933
0
VERTEX
8
CUT
10
147.5866
20
20.5349
0
VERTEX
8
CUT
10
147.5251
20
20.4749
0
VERTEX
8
CUT
10
147.4651
20
20.4134
0
VERTEX
8
CUT
10
147.4067
20
20.3505
0
VERTEX
8
CUT
10
147.3498
20
20.2861
0
VERTEX
8
CUT
10
147.2945
20
20.2204
0
VERTEX
8
CUT
10
147.2408
20
20.1533
0
VERTEX
8
CUT
10
147.1888
20
20.0849
0
VERTEX
8
CUT
10
147.1385
20
20.0153
0
VERTEX
8
CUT
10
147.0899
20
19.9445
0
VERTEX
8
CUT
10
147.0430
20
19.8725
0
VERTEX
8
CUT
10
146.9979
20
19.7994
0
VERTEX
8
CUT
10
146.9547
20
19.7251
0
VERTEX
8
CUT
10
146.9133
20
19.6499
0
VERTEX
8
CUT
10
146.8737
20
19.5736
0
VERTEX
8
CUT
10
146.8360
20
19.4964
0
VERTEX
8
CUT
10
146.8003
20
19.4183
0
VERTEX
8
CUT
10
146.7664
20
19.3394
0
VERTEX
8
CUT
10
146.7345
20
19.2596
0
VERTEX
8
CUT
10
146.7046
20
19.1791
0
VERTEX
8
CUT
10
146.6767
20
19.0979
0
VERTEX
8
CUT
10
146.6507
20
19.0160
0
VERTEX
8
CUT
10
146.6268
20
18.9335
0
VERTEX
8
CUT
10
146.6049
20
18.8504
0
VERTEX
8
CUT
10
146.5850
20
18.7669
0
VERTEX
8
CUT
10
146.5673
20
18.6828
0
VERTEX
8
CUT
10
146.5515
20
18.5984
0
VERTEX
8
CUT
10
146.5379
20
18.5136
0
VERTEX
8
CUT
10
146.5263
20
18.4284
0
VERTEX
8
CUT
10
146.5169
20
18.3431
0
VERTEX
8
CUT
10
146.5095
20
18.2575
0
VERTEX
8
CUT
10
146.5042
20
18.1717
0
VERTEX
8
CUT
10
146.5011
20
18.0859
0
VERTEX
8
CUT
10
146.5000
20
18.0000
0
VERTEX
8
CUT
10
146.5011
20
17.9141
0
VERTEX
8
CUT
10
146.5042
20
17.8283
0
VERTEX
8
CUT
10
146.5095
20
17.7425
0
VERTEX
8
CUT
10
146.5169
20
17.6569
0
VERTEX
8
CUT
10
146.5263
20
17.5716
0
VERTEX
8
CUT
10
146.5379
20
17.4864
0
VERTEX
8
CUT
10
146.5515
20
17.4016
0
VERTEX
8
CUT
10
146.5673
20
17.3172
0
VERTEX
8
CUT
10
146.5850
20
17.2331
0
VERTEX
8
CUT
10
146.6049
20
17.1496
0
VERTEX
8
CUT
10
146.6268
20
17.0665
0
VERTEX
8
CUT
10
146.6507
20
16.9840
0
VERTEX
8
CUT
10
146.6767
20
16.9021
0
VERTEX
8
CUT
10
146.7046
20
16.8209
0
VERTEX
8
CUT
10
146.7345
20
16.7404
0
VERTEX
8
CUT
10
146.7664
20
16.6606
0
VERTEX
8
CUT
10
146.8003
20
16.5817
0
VERTEX
8
CUT
10
146.8360
20
16.5036
0
VERTEX
8
CUT
10
146.8737
20
16.4264
0
VERTEX
8
CUT
10
146.9133
20
16.3501
0
VERTEX
8
CUT
10
146.9547
20
16.2749
0
VERTEX
8
CUT
10
146.9979
20
16.2006
0
VERTEX
8
CUT
10
147.0430
20
16.1275
0
VERTEX
8
CUT
10
147.0899
20
16.0555
0
VERTEX
8
CUT
10
147.1385
20
15.9847
0
VERTEX
8
CUT
10
147.1888
20
15.9151
0
VERTEX
8
CUT
10
147.2408
20
15.8467
0
VERTEX
8
CUT
10
147.2945
20
15.7796
0
VERTEX
8
CUT
10
147.3498
20
15.7139
0
VERTEX
8
CUT
10
147.4067
20
15.6495
0
VERTEX
8
CUT
10
147.4651
20
15.5866
0
VERTEX
8
CUT
10
147.5251
20
15.5251
0
VERTEX
8
CUT
10
147.5866
20
15.4651
0
VERTEX
8
CUT
10
147.6495
20
15.4067
0
VERTEX
8
CUT
10
147.7139
20
15.3498
0
VERTEX
8
CUT
10
147.7796
20
15.2945
0
VERTEX
8
CUT
10
147.8467
20
15.2408
0
VERTEX
8
CUT
10
147.9151
20
15.1888
0
VERTEX
8
CUT
10
147.9847
20
15.1385
0
VERTEX
8
CUT
10
148.0555
20
15.0899
0
VERTEX
8
CUT
10
148.1275
20
15.0430
0
VERTEX
8
CUT
10
148.2006
20
14.9979
0
VERTEX
8
CUT
10
148.2500
20
14.9692
0
VERTEX
8
CUT
10
148.2500
20
8.0000
0
VERTEX
8
CUT
10
148.2521
20
7.9141
0
VERTEX
8
CUT
10
148.2584
20
7.8285
0
VERTEX
8
CUT
10
148.2689
20
7.7432
0
VERTEX
8
CUT
10
148.2836
20
7.6586
0
VERTEX
8
CUT
10
148.3024
20
7.5748
0
VERTEX
8
CUT
10
148.3254
20
7.4920
0
VERTEX
8
CUT
10
148.3523
20
7.4104
0
VERTEX
8
CUT
10
148.3832
20
7.3303
0
VERTEX
8
CUT
10
148.4180
20
7.2518
0
VERTEX
8
CUT
10
148.4566
20
7.1751
0
VERTEX
8
CUT
10
148.4990
20
7.1003
0
VERTEX
8
CUT
10
148.5449
20
7.0278
0
VERTEX
8
CUT
10
148.5944
20
6.9575
0
VERTEX
8
CUT
10
148.6472
20
6.8898
0
VERTEX
8
CUT
10
148.7033
20
6.8248
0
VERTEX
8
CUT
10
148.7626
20
6.7626
0
VERTEX
8
CUT
10
148.8248
20
6.7033
0
VERTEX
8
CUT
10
148.8898
20
6.6472
0
VERTEX
8
CUT
10
148.9575
20
6.5944
0
VERTEX
8
CUT
10
149.0278
20
6.5449
0
VERTEX
8
CUT
10
149.1003
20
6.4990
0
VERTEX
8
CUT
10
149.1751
20
6.4566
0
VERTEX
8
CUT
10
149.2518
20
6.4180
0
VERTEX
8
CUT
10
149.3303
20
6.3832
0
VERTEX
8
CUT
10
149.4104
20
6.3523
0
VERTEX
8
CUT
10
149.4920
20
6.3254
0
VERTEX
8
CUT
10
149.5748
20
6.3024
0
VERTEX
8
CUT
10
149.6586
20
6.2836
0
VERTEX
8
CUT
10
149.7432
20
6.2689
0
VERTEX
8
CUT
10
149.8285
20
6.2584
0
VERTEX
8
CUT
10
149.9141
20
6.2521
0
VERTEX
8
CUT
10
150.0000
20
6.2500
0
VERTEX
8
CUT
10
150.0859
20
6.2521
0
VERTEX
8
CUT
10
150.1715
20
6.2584
0
VERTEX
8
CUT
10
150.2568
20
6.2689
0
VERTEX
8
CUT
10
150.3414
20
6.2836
0
VERTEX
8
CUT
10
150.4252
20
6.3024
0
VERTEX
8
CUT
10
150.5080
20
6.3254
0
VERTEX
8
CUT
10
150.5896
20
6.3523
0
VERTEX
8
CUT
10
150.6697
20
6.3832
0
VERTEX
8
CUT
10
150.7482
20
6.4180
0
VERTEX
8
CUT
10
150.8249
20
6.4566
0
VERTEX
8
CUT
10
150.8997
20
6.4990
0
VERTEX
8
CUT
10
150.9722
20
6.5449
0
VERTEX
8
CUT
10
151.0425
20
6.5944
0
VERTEX
8
CUT
10
151.1102
20
6.6472
0
VERTEX
8
CUT
10
151.1752
20
6.7033
0
VERTEX
8
CUT
10
151.2374
20
6.7626
0
VERTEX
8
CUT
10
151.2967
20
6.8248
0
VERTEX
8
CUT
10
151.3528
20
6.8898
0
VERTEX
8
CUT
10
151.4056
20
6.9575
0
VERTEX
8
CUT
10
151.4551
20
7.0278
0
VERTEX
8
CUT
10
151.5010
20
7.1003
0
VERTEX
8
CUT
10
151.5434
20
7.1751
0
VERTEX
8
CUT
10
151.5820
20
7.2518
0
VERTEX
8
CUT
10
151.6168
20
7.3303
0
VERTEX
8
CUT
10
151.6477
20
7.4104
0
VERTEX
8
CUT
10
151.6746
20
7.4920
0
VERTEX
8
CUT
10
151.6976
20
7.5748
0
VERTEX
8
CUT
10
151.7164
20
7.6586
0
VERTEX
8
CUT
10
151.7311
20
7.7432
0
VERTEX
8
CUT
10
151.7416
20
7.8285
0
VERTEX
8
CUT
10
151.7479
20
7.9141
0
SEQEND
0
ENDSEC
0
EOF
