0
SECTION
2
HEADER
9
$ACADVER
1
AC1009
9
$INSUNITS
70
4
0
ENDSEC
0
SECTION
2
TABLES
0
TABLE
2
LAYER
70
1
0
LAYER
2
CUT
70
0
62
7
6
CONTINUOUS
0
ENDTAB
0
ENDSEC
0
SECTION
2
ENTITIES
0
POLYLINE
8
CUT
66
1
70
1
10
0.0
20
0.0
30
0.0
0
VERTEX
8
CUT
10
299.9926
20
299.9971
0
VERTEX
8
CUT
10
299.9954
20
299.9386
0
VERTEX
8
CUT
10
299.9954
20
0.0614
0
VERTEX
8
CUT
10
299.9926
20
0.0029
0
VERTEX
8
CUT
10
299.9341
20
-0.0000
0
VERTEX
8
CUT
10
0.0614
20
-0.0000
0
VERTEX
8
CUT
10
0.0029
20
0.0029
0
VERTEX
8
CUT
10
0.0000
20
0.0614
0
VERTEX
8
CUT
10
0.0000
20
299.9386
0
VERTEX
8
CUT
10
0.0029
20
299.9971
0
VERTEX
8
CUT
10
0.0614
20
300.0000
0
VERTEX
8
CUT
10
299.9341
20
300.0000
0
SEQEND
0
POLYLINE
8
CUT
66
1
70
1
10
0.0
20
0.0
30
0.0
0
VERTEX
8
CUT
10
224.3109
20
117.6588
0
VERTEX
8
CUT
10
224.3654
20
117.4205
0
VERTEX
8
CUT
10
224.4428
20
117.1886
0
VERTEX
8
CUT
10
224.5425
20
116.9653
0
VERTEX
8
CUT
10
224.6636
20
116.7529
0
VERTEX
8
CUT
10
224.8048
20
116.5533
0
VERTEX
8
CUT
10
224.9648
20
116.3685
0
VERTEX
8
CUT
10
225.1422
20
116.2002
0
VERTEX
8
CUT
10
225.3351
20
116.0500
0
VERTEX
8
CUT
10
225.5417
20
115.9194
0
VERTEX
8
CUT
10
225.7602
20
115.8095
0
VERTEX
8
CUT
10
225.9883
20
115.7216
0
VERTEX
8
CUT
10
226.2239
20
115.6563
0
VERTEX
8
CUT
10
226.4648
20
115.6144
0
VERTEX
8
CUT
10
226.7086
20
115.5962
0
VERTEX
8
CUT
10
226.9530
20
115.6019
0
VERTEX
8
CUT
10
227.1957
20
115.6315
0
VERTEX
8
CUT
10
227.4344
20
115.6846
0
VERTEX
8
CUT
10
227.6667
20
115.7608
0
VERTEX
8
CUT
10
227.8905
20
115.8593
0
VERTEX
8
CUT
10
228.6399
20
116.2340
0
VERTEX
8
CUT
10
228.6569
20
116.2419
0
VERTEX
8
CUT
10
228.7326
20
116.2708
0
VERTEX
8
CUT
10
228.7506
20
116.2761
0
VERTEX
8
CUT
10
230.8194
20
116.8357
0
VERTEX
8
CUT
10
230.8247
20
116.8370
0
VERTEX
8
CUT
10
230.8758
20
116.8464
0
VERTEX
8
CUT
10
230.9026
20
116.8488
0
VERTEX
8
CUT
10
230.9267
20
116.8494
0
VERTEX
8
CUT
10
233.9494
20
116.8557
0
VERTEX
8
CUT
10
233.9666
20
116.8554
0
VERTEX
8
CUT
10
234.0405
20
116.8487
0
VERTEX
8
CUT
10
234.0575
20
116.8460
0
VERTEX
8
CUT
10
235.5892
20
116.5665
0
VERTEX
8
CUT
10
235.6726
20
116.5482
0
VERTEX
8
CUT
10
235.7545
20
116.5239
0
VERTEX
8
CUT
10
237.3740
20
115.9802
0
VERTEX
8
CUT
10
237.3792
20
115.9784
0
VERTEX
8
CUT
10
237.4573
20
115.9447
0
VERTEX
8
CUT
10
237.4745
20
115.9358
0
VERTEX
8
CUT
10
240.3916
20
114.3416
0
VERTEX
8
CUT
10
240.4517
20
114.3064
0
VERTEX
8
CUT
10
240.5096
20
114.2678
0
VERTEX
8
CUT
10
243.3213
20
112.2732
0
VERTEX
8
CUT
10
243.3256
20
112.2700
0
VERTEX
8
CUT
10
243.3870
20
112.2187
0
VERTEX
8
CUT
10
243.4002
20
112.2062
0
VERTEX
8
CUT
10
245.4102
20
110.2062
0
VERTEX
8
CUT
10
245.4135
20
110.2028
0
VERTEX
8
CUT
10
245.4605
20
110.1489
0
VERTEX
8
CUT
10
245.4705
20
110.1360
0
VERTEX
8
CUT
10
250.2610
20
103.6958
0
VERTEX
8
CUT
10
250.2707
20
103.6822
0
VERTEX
8
CUT
10
250.3083
20
103.6209
0
VERTEX
8
CUT
10
250.3161
20
103.6062
0
VERTEX
8
CUT
10
250.9296
20
102.3759
0
VERTEX
8
CUT
10
251.1161
20
102.0617
0
VERTEX
8
CUT
10
253.5008
20
98.6418
0
VERTEX
8
CUT
10
253.6147
20
98.4910
0
VERTEX
8
CUT
10
255.8850
20
95.7093
0
VERTEX
8
CUT
10
256.0409
20
95.5355
0
VERTEX
8
CUT
10
259.3295
20
92.1976
0
VERTEX
8
CUT
10
259.3942
20
92.1342
0
VERTEX
8
CUT
10
260.6037
20
90.9924
0
VERTEX
8
CUT
10
260.8054
20
90.8212
0
VERTEX
8
CUT
10
262.7989
20
89.3034
0
VERTEX
8
CUT
10
262.9568
20
89.1925
0
VERTEX
8
CUT
10
263.1228
20
89.0941
0
VERTEX
8
CUT
10
266.2917
20
87.3778
0
VERTEX
8
CUT
10
266.4871
20
87.2827
0
VERTEX
8
CUT
10
266.6900
20
87.2050
0
VERTEX
8
CUT
10
268.8000
20
86.4999
0
VERTEX
8
CUT
10
269.0317
20
86.4347
0
VERTEX
8
CUT
10
269.2686
20
86.3921
0
VERTEX
8
CUT
10
271.5825
20
86.0899
0
VERTEX
8
CUT
10
271.5878
20
86.0891
0
VERTEX
8
CUT
10
271.6378
20
86.0784
0
VERTEX
8
CUT
10
271.6631
20
86.0705
0
VERTEX
8
CUT
10
271.6854
20
86.0620
0
VERTEX
8
CUT
10
271.7233
20
86.0465
0
VERTEX
8
CUT
10
271.9508
20
85.9661
0
VERTEX
8
CUT
10
272.1850
20
85.9079
0
VERTEX
8
CUT
10
272.4238
20
85.8727
0
VERTEX
8
CUT
10
272.6648
20
85.8606
0
VERTEX
8
CUT
10
274.4558
20
85.8573
0
VERTEX
8
CUT
10
274.7507
20
85.8742
0
VERTEX
8
CUT
10
275.0416
20
85.9258
0
VERTEX
8
CUT
10
276.9318
20
86.3775
0
VERTEX
8
CUT
10
277.1365
20
86.4358
0
VERTEX
8
CUT
10
277.3355
20
86.5112
0
VERTEX
8
CUT
10
278.8218
20
87.1483
0
VERTEX
8
CUT
10
279.0494
20
87.2598
0
VERTEX
8
CUT
10
279.2644
20
87.3937
0
VERTEX
8
CUT
10
280.7333
20
88.4154
0
VERTEX
8
CUT
10
280.9069
20
88.5477
0
VERTEX
8
CUT
10
281.0682
20
88.6947
0
VERTEX
8
CUT
10
281.2162
20
88.8552
0
VERTEX
8
CUT
10
282.5502
20
90.4355
0
VERTEX
8
CUT
10
282.7100
20
90.6465
0
VERTEX
8
CUT
10
283.0542
20
91.1549
0
VERTEX
8
CUT
10
283.1632
20
91.3311
0
VERTEX
8
CUT
10
283.2572
20
91.5158
0
VERTEX
8
CUT
10
283.3355
20
91.7075
0
VERTEX
8
CUT
10
284.1885
20
94.0700
0
VERTEX
8
CUT
10
284.2694
20
94.3411
0
VERTEX
8
CUT
10
284.3191
20
94.6197
0
VERTEX
8
CUT
10
284.3370
20
94.9020
0
VERTEX
8
CUT
10
284.3583
20
98.0319
0
VERTEX
8
CUT
10
284.3468
20
98.2884
0
VERTEX
8
CUT
10
284.3092
20
98.5423
0
VERTEX
8
CUT
10
284.2457
20
98.7910
0
VERTEX
8
CUT
10
284.1400
20
99.1309
0
VERTEX
8
CUT
10
284.1386
20
99.1358
0
VERTEX
8
CUT
10
284.1278
20
99.1834
0
VERTEX
8
CUT
10
284.1243
20
99.2085
0
VERTEX
8
CUT
10
284.1225
20
99.2311
0
VERTEX
8
CUT
10
284.0824
20
99.9567
0
VERTEX
8
CUT
10
284.0509
20
100.2374
0
VERTEX
8
CUT
10
283.9880
20
100.5127
0
VERTEX
8
CUT
10
283.8944
20
100.7791
0
VERTEX
8
CUT
10
282.8102
20
103.3848
0
VERTEX
8
CUT
10
282.7226
20
103.5729
0
VERTEX
8
CUT
10
282.6197
20
103.7531
0
VERTEX
8
CUT
10
282.5023
20
103.9241
0
VERTEX
8
CUT
10
280.2577
20
106.9181
0
VERTEX
8
CUT
10
280.0627
20
107.1479
0
VERTEX
8
CUT
10
279.8415
20
107.3525
0
VERTEX
8
CUT
10
278.3846
20
108.5458
0
VERTEX
8
CUT
10
278.2003
20
108.6830
0
VERTEX
8
CUT
10
278.0043
20
108.8028
0
VERTEX
8
CUT
10
275.4569
20
110.2023
0
VERTEX
8
CUT
10
275.1811
20
110.3326
0
VERTEX
8
CUT
10
274.8914
20
110.4283
0
VERTEX
8
CUT
10
272.8164
20
110.9762
0
VERTEX
8
CUT
10
272.7964
20
110.9821
0
VERTEX
8
CUT
10
272.7126
20
111.0145
0
VERTEX
8
CUT
10
272.6939
20
111.0236
0
VERTEX
8
CUT
10
272.3194
20
111.2183
0
VERTEX
8
CUT
10
272.0861
20
111.3249
0
VERTEX
8
CUT
10
271.8431
20
111.4069
0
VERTEX
8
CUT
10
271.5929
20
111.4637
0
VERTEX
8
CUT
10
271.3383
20
111.4945
0
VERTEX
8
CUT
10
270.9481
20
111.5214
0
VERTEX
8
CUT
10
270.9300
20
111.5231
0
VERTEX
8
CUT
10
270.8917
20
111.5295
0
VERTEX
8
CUT
10
270.8216
20
111.5558
0
VERTEX
8
CUT
10
270.6472
20
111.6260
0
VERTEX
8
CUT
10
270.4152
20
111.6943
0
VERTEX
8
CUT
10
270.1776
20
111.7397
0
VERTEX
8
CUT
10
269.9368
20
111.7621
0
VERTEX
8
CUT
10
269.3698
20
111.7871
0
VERTEX
8
CUT
10
269.3497
20
111.7885
0
VERTEX
8
CUT
10
269.3067
20
111.7951
0
VERTEX
8
CUT
10
269.2646
20
111.8062
0
VERTEX
8
CUT
10
269.2456
20
111.8130
0
VERTEX
8
CUT
10
269.0965
20
111.8704
0
VERTEX
8
CUT
10
268.8245
20
111.9575
0
VERTEX
8
CUT
10
268.5443
20
112.0131
0
VERTEX
8
CUT
10
268.2596
20
112.0364
0
VERTEX
8
CUT
10
266.8613
20
112.0705
0
VERTEX
8
CUT
10
266.8446
20
112.0713
0
VERTEX
8
CUT
10
266.8088
20
112.0753
0
VERTEX
8
CUT
10
266.7747
20
112.0856
0
VERTEX
8
CUT
10
266.7589
20
112.0915
0
VERTEX
8
CUT
10
266.6489
20
112.1355
0
VERTEX
8
CUT
10
266.4416
20
112.2080
0
VERTEX
8
CUT
10
266.2287
20
112.2621
0
VERTEX
8
CUT
10
266.0120
20
112.2972
0
VERTEX
8
CUT
10
265.7929
20
112.3132
0
VERTEX
8
CUT
10
264.6400
20
112.3466
0
VERTEX
8
CUT
10
264.6233
20
112.3475
0
VERTEX
8
CUT
10
264.5876
20
112.3517
0
VERTEX
8
CUT
10
264.5537
20
112.3621
0
VERTEX
8
CUT
10
264.5379
20
112.3680
0
VERTEX
8
CUT
10
264.4359
20
112.4093
0
VERTEX
8
CUT
10
264.2266
20
112.4832
0
VERTEX
8
CUT
10
264.0117
20
112.5384
0
VERTEX
8
CUT
10
263.7926
20
112.5742
0
VERTEX
8
CUT
10
263.5713
20
112.5905
0
VERTEX
8
CUT
10
262.4273
20
112.6236
0
VERTEX
8
CUT
10
262.4093
20
112.6246
0
VERTEX
8
CUT
10
262.3711
20
112.6294
0
VERTEX
8
CUT
10
262.3344
20
112.6414
0
VERTEX
8
CUT
10
262.3178
20
112.6482
0
VERTEX
8
CUT
10
262.1842
20
112.7065
0
VERTEX
8
CUT
10
261.9644
20
112.7905
0
VERTEX
8
CUT
10
261.7377
20
112.8534
0
VERTEX
8
CUT
10
261.5061
20
112.8947
0
VERTEX
8
CUT
10
259.3232
20
113.1788
0
VERTEX
8
CUT
10
259.3009
20
113.1824
0
VERTEX
8
CUT
10
259.2067
20
113.2064
0
VERTEX
8
CUT
10
259.1854
20
113.2139
0
VERTEX
8
CUT
10
258.3483
20
113.5380
0
VERTEX
8
CUT
10
258.1030
20
113.6187
0
VERTEX
8
CUT
10
257.8507
20
113.6736
0
VERTEX
8
CUT
10
257.5941
20
113.7022
0
VERTEX
8
CUT
10
256.7656
20
113.7515
0
VERTEX
8
CUT
10
256.7602
20
113.7519
0
VERTEX
8
CUT
10
256.7122
20
113.7588
0
VERTEX
8
CUT
10
256.6848
20
113.7678
0
VERTEX
8
CUT
10
256.6622
20
113.7768
0
VERTEX
8
CUT
10
253.1723
20
115.2725
0
VERTEX
8
CUT
10
252.8597
20
115.3825
0
VERTEX
8
CUT
10
251.7424
20
115.6944
0
VERTEX
8
CUT
10
251.7256
20
115.6996
0
VERTEX
8
CUT
10
251.6903
20
115.7131
0
VERTEX
8
CUT
10
251.6565
20
115.7298
0
VERTEX
8
CUT
10
251.6413
20
115.7386
0
VERTEX
8
CUT
10
248.0349
20
117.9603
0
VERTEX
8
CUT
10
247.9958
20
117.9854
0
VERTEX
8
CUT
10
247.9578
20
118.0121
0
VERTEX
8
CUT
10
245.8116
20
119.5770
0
VERTEX
8
CUT
10
245.7939
20
119.5907
0
VERTEX
8
CUT
10
245.7232
20
119.6565
0
VERTEX
8
CUT
10
245.7082
20
119.6731
0
VERTEX
8
CUT
10
242.4331
20
123.5426
0
VERTEX
8
CUT
10
242.4002
20
123.5833
0
VERTEX
8
CUT
10
242.3691
20
123.6253
0
VERTEX
8
CUT
10
240.4553
20
126.3363
0
VERTEX
8
CUT
10
240.4457
20
126.3506
0
VERTEX
8
CUT
10
240.4271
20
126.3828
0
VERTEX
8
CUT
10
240.4149
20
126.4175
0
VERTEX
8
CUT
10
240.4102
20
126.4343
0
VERTEX
8
CUT
10
240.3981
20
126.4825
0
VERTEX
8
CUT
10
240.3228
20
126.7275
0
VERTEX
8
CUT
10
240.2228
20
126.9635
0
VERTEX
8
CUT
10
240.0992
20
127.1880
0
VERTEX
8
CUT
10
239.9533
20
127.3987
0
VERTEX
8
CUT
10
239.8590
20
127.5210
0
VERTEX
8
CUT
10
239.8480
20
127.5360
0
VERTEX
8
CUT
10
239.8054
20
127.6042
0
VERTEX
8
CUT
10
239.7967
20
127.6207
0
VERTEX
8
CUT
10
237.8449
20
131.5686
0
VERTEX
8
CUT
10
237.7457
20
131.7499
0
VERTEX
8
CUT
10
235.3526
20
135.7259
0
VERTEX
8
CUT
10
235.1950
20
135.9572
0
VERTEX
8
CUT
10
233.8242
20
137.7462
0
VERTEX
8
CUT
10
233.6633
20
137.9358
0
VERTEX
8
CUT
10
233.4843
20
138.1085
0
VERTEX
8
CUT
10
233.2891
20
138.2626
0
VERTEX
8
CUT
10
233.0795
20
138.3965
0
VERTEX
8
CUT
10
232.8577
20
138.5090
0
VERTEX
8
CUT
10
232.6257
20
138.5988
0
VERTEX
8
CUT
10
232.3860
20
138.6652
0
VERTEX
8
CUT
10
232.1409
20
138.7074
0
VERTEX
8
CUT
10
231.8928
20
138.7250
0
VERTEX
8
CUT
10
231.6442
20
138.7179
0
VERTEX
8
CUT
10
231.3975
20
138.6861
0
VERTEX
8
CUT
10
231.1552
20
138.6300
0
VERTEX
8
CUT
10
230.9197
20
138.5501
0
VERTEX
8
CUT
10
230.6933
20
138.4472
0
VERTEX
8
CUT
10
230.4782
20
138.3223
0
VERTEX
8
CUT
10
230.2766
20
138.1766
0
VERTEX
8
CUT
10
230.0905
20
138.0116
0
VERTEX
8
CUT
10
229.9217
20
137.8290
0
VERTEX
8
CUT
10
229.7719
20
137.6304
0
VERTEX
8
CUT
10
229.6425
20
137.4180
0
VERTEX
8
CUT
10
229.5349
20
137.1938
0
VERTEX
8
CUT
10
229.4501
20
136.9599
0
VERTEX
8
CUT
10
229.3890
20
136.7189
0
VERTEX
8
CUT
10
229.3521
20
136.4729
0
VERTEX
8
CUT
10
229.3398
20
136.2245
0
VERTEX
8
CUT
10
229.3402
20
135.4414
0
VERTEX
8
CUT
10
229.3373
20
135.3580
0
VERTEX
8
CUT
10
229.3285
20
135.2750
0
VERTEX
8
CUT
10
228.7783
20
131.3621
0
VERTEX
8
CUT
10
228.7640
20
131.2811
0
VERTEX
8
CUT
10
228.7442
20
131.2013
0
VERTEX
8
CUT
10
227.6462
20
127.3503
0
VERTEX
8
CUT
10
227.6301
20
127.2985
0
VERTEX
8
CUT
10
227.6118
20
127.2476
0
VERTEX
8
CUT
10
224.4614
20
119.0915
0
VERTEX
8
CUT
10
224.3994
20
118.9109
0
VERTEX
8
CUT
10
224.3514
20
118.7261
0
VERTEX
8
CUT
10
224.3305
20
118.6308
0
VERTEX
8
CUT
10
224.2899
20
118.3897
0
VERTEX
8
CUT
10
224.2730
20
118.1457
0
VERTEX
8
CUT
10
224.2801
20
117.9014
0
SEQEND
0
POLYLINE
8
CUT
66
1
70
1
10
0.0
20
0.0
30
0.0
0
VERTEX
8
CUT
10
268.5349
20
188.4506
0
VERTEX
8
CUT
10
268.3277
20
188.3212
0
VERTEX
8
CUT
10
268.1340
20
188.1722
0
VERTEX
8
CUT
10
267.9558
20
188.0051
0
VERTEX
8
CUT
10
267.7948
20
187.8213
0
VERTEX
8
CUT
10
267.6525
20
187.6227
0
VERTEX
8
CUT
10
267.5302
20
187.4111
0
VERTEX
8
CUT
10
267.4292
20
187.1886
0
VERTEX
8
CUT
10
267.3504
20
186.9574
0
VERTEX
8
CUT
10
267.2945
20
186.7195
0
VERTEX
8
CUT
10
267.2621
20
186.4773
0
VERTEX
8
CUT
10
267.2536
20
186.2331
0
VERTEX
8
CUT
10
267.2762
20
184.5932
0
VERTEX
8
CUT
10
267.2916
20
184.3483
0
VERTEX
8
CUT
10
267.3310
20
184.1060
0
VERTEX
8
CUT
10
267.3939
20
183.8688
0
VERTEX
8
CUT
10
267.4798
20
183.6388
0
VERTEX
8
CUT
10
267.5878
20
183.4184
0
VERTEX
8
CUT
10
267.7170
20
183.2097
0
VERTEX
8
CUT
10
267.8659
20
183.0146
0
VERTEX
8
CUT
10
268.0333
20
182.8351
0
VERTEX
8
CUT
10
269.0876
20
181.8102
0
VERTEX
8
CUT
10
269.2791
20
181.6421
0
VERTEX
8
CUT
10
269.4866
20
181.4944
0
VERTEX
8
CUT
10
269.7082
20
181.3687
0
VERTEX
8
CUT
10
270.5771
20
180.9323
0
VERTEX
8
CUT
10
270.7833
20
180.8401
0
VERTEX
8
CUT
10
270.9970
20
180.7669
0
VERTEX
8
CUT
10
271.2165
20
180.7133
0
VERTEX
8
CUT
10
271.4399
20
180.6798
0
VERTEX
8
CUT
10
271.6654
20
180.6665
0
VERTEX
8
CUT
10
271.7847
20
180.6649
0
VERTEX
8
CUT
10
272.0340
20
180.6740
0
VERTEX
8
CUT
10
272.2812
20
180.7079
0
VERTEX
8
CUT
10
272.5238
20
180.7663
0
VERTEX
8
CUT
10
272.7594
20
180.8486
0
VERTEX
8
CUT
10
272.9856
20
180.9539
0
VERTEX
8
CUT
10
273.2002
20
181.0813
0
VERTEX
8
CUT
10
273.4010
20
181.2294
0
VERTEX
8
CUT
10
273.5860
20
181.3968
0
VERTEX
8
CUT
10
273.7534
20
181.5818
0
VERTEX
8
CUT
10
274.2787
20
182.2240
0
VERTEX
8
CUT
10
274.2919
20
182.2392
0
VERTEX
8
CUT
10
274.3213
20
182.2685
0
VERTEX
8
CUT
10
274.3665
20
182.2860
0
VERTEX
8
CUT
10
274.4961
20
182.3285
0
VERTEX
8
CUT
10
274.7171
20
182.4253
0
VERTEX
8
CUT
10
274.9278
20
182.5431
0
VERTEX
8
CUT
10
275.1261
20
182.6806
0
VERTEX
8
CUT
10
275.3103
20
182.8366
0
VERTEX
8
CUT
10
275.4786
20
183.0096
0
VERTEX
8
CUT
10
275.6294
20
183.1980
0
VERTEX
8
CUT
10
275.7613
20
183.4001
0
VERTEX
8
CUT
10
275.8731
20
183.6140
0
VERTEX
8
CUT
10
275.9638
20
183.8377
0
VERTEX
8
CUT
10
276.0325
20
184.0691
0
VERTEX
8
CUT
10
276.0785
20
184.3060
0
VERTEX
8
CUT
10
276.1015
20
184.5462
0
VERTEX
8
CUT
10
276.1012
20
184.7876
0
VERTEX
8
CUT
10
276.0777
20
185.0278
0
VERTEX
8
CUT
10
276.0311
20
185.2646
0
VERTEX
8
CUT
10
275.9281
20
185.6805
0
VERTEX
8
CUT
10
275.8504
20
185.9356
0
VERTEX
8
CUT
10
275.7459
20
186.1809
0
VERTEX
8
CUT
10
275.6159
20
186.4137
0
VERTEX
8
CUT
10
275.0966
20
187.2369
0
VERTEX
8
CUT
10
274.9464
20
187.4497
0
VERTEX
8
CUT
10
274.7749
20
187.6456
0
VERTEX
8
CUT
10
274.5839
20
187.8227
0
VERTEX
8
CUT
10
274.3755
20
187.9789
0
VERTEX
8
CUT
10
273.1539
20
188.7990
0
VERTEX
8
CUT
10
272.8906
20
188.9533
0
VERTEX
8
CUT
10
272.6105
20
189.0744
0
VERTEX
8
CUT
10
272.2125
20
189.2182
0
VERTEX
8
CUT
10
271.9735
20
189.2914
0
VERTEX
8
CUT
10
271.7285
20
189.3403
0
VERTEX
8
CUT
10
271.4797
20
189.3644
0
VERTEX
8
CUT
10
271.2298
20
189.3637
0
VERTEX
8
CUT
10
270.9813
20
189.3379
0
VERTEX
8
CUT
10
270.7365
20
189.2875
0
VERTEX
8
CUT
10
270.4980
20
189.2130
0
VERTEX
8
CUT
10
270.2681
20
189.1149
0
VERTEX
8
CUT
10
269.5841
20
188.7819
0
VERTEX
8
CUT
10
269.5680
20
188.7745
0
VERTEX
8
CUT
10
269.5338
20
188.7615
0
VERTEX
8
CUT
10
269.4982
20
188.7548
0
VERTEX
8
CUT
10
269.4591
20
188.7502
0
VERTEX
8
CUT
10
269.2182
20
188.7096
0
VERTEX
8
CUT
10
268.9823
20
188.6457
0
VERTEX
8
CUT
10
268.7539
20
188.5591
0
SEQEND
0
POLYLINE
8
CUT
66
1
70
1
10
0.0
20
0.0
30
0.0
0
VERTEX
8
CUT
10
195.3265
20
154.7277
0
VERTEX
8
CUT
10
195.3438
20
154.7151
0
VERTEX
8
CUT
10
197.6893
20
152.9084
0
VERTEX
8
CUT
10
197.7419
20
152.8655
0
VERTEX
8
CUT
10
197.7919
20
152.8197
0
VERTEX
8
CUT
10
203.2503
20
147.5253
0
VERTEX
8
CUT
10
203.3907
20
147.3991
0
VERTEX
8
CUT
10
203.5401
20
147.2838
0
VERTEX
8
CUT
10
205.9895
20
145.5384
0
VERTEX
8
CUT
10
206.2174
20
145.3940
0
VERTEX
8
CUT
10
208.2792
20
144.2375
0
VERTEX
8
CUT
10
208.2839
20
144.2348
0
VERTEX
8
CUT
10
208.3264
20
144.2061
0
VERTEX
8
CUT
10
208.3470
20
144.1893
0
VERTEX
8
CUT
10
208.3645
20
144.1732
0
VERTEX
8
CUT
10
209.8786
20
142.7053
0
VERTEX
8
CUT
10
209.8915
20
142.6922
0
VERTEX
8
CUT
10
209.9170
20
142.6621
0
VERTEX
8
CUT
10
209.9395
20
142.6297
0
VERTEX
8
CUT
10
209.9488
20
142.6139
0
VERTEX
8
CUT
10
210.7102
20
141.2464
0
VERTEX
8
CUT
10
210.7189
20
141.2298
0
VERTEX
8
CUT
10
210.7349
20
141.1929
0
VERTEX
8
CUT
10
210.7391
20
141.1530
0
VERTEX
8
CUT
10
210.7397
20
141.1342
0
VERTEX
8
CUT
10
210.7542
20
138.8446
0
VERTEX
8
CUT
10
210.7540
20
138.8274
0
VERTEX
8
CUT
10
210.7508
20
138.7905
0
VERTEX
8
CUT
10
210.7376
20
138.7557
0
VERTEX
8
CUT
10
210.7306
20
138.7405
0
VERTEX
8
CUT
10
210.3894
20
138.0417
0
VERTEX
8
CUT
10
210.3801
20
138.0238
0
VERTEX
8
CUT
10
210.3571
20
137.9872
0
VERTEX
8
CUT
10
210.3302
20
137.9532
0
VERTEX
8
CUT
10
210.3165
20
137.9385
0
VERTEX
8
CUT
10
209.1462
20
136.7455
0
VERTEX
8
CUT
10
209.1310
20
136.7309
0
VERTEX
8
CUT
10
209.0958
20
136.7022
0
VERTEX
8
CUT
10
209.0576
20
136.6778
0
VERTEX
8
CUT
10
209.0390
20
136.6679
0
VERTEX
8
CUT
10
207.5247
20
135.9222
0
VERTEX
8
CUT
10
207.5092
20
135.9150
0
VERTEX
8
CUT
10
207.4749
20
135.9019
0
VERTEX
8
CUT
10
207.4382
20
135.8985
0
VERTEX
8
CUT
10
207.4217
20
135.8981
0
VERTEX
8
CUT
10
204.4138
20
135.8933
0
VERTEX
8
CUT
10
204.3932
20
135.8938
0
VERTEX
8
CUT
10
204.3044
20
135.9034
0
VERTEX
8
CUT
10
204.2841
20
135.9074
0
VERTEX
8
CUT
10
202.9763
20
136.1976
0
VERTEX
8
CUT
10
202.9593
20
136.2017
0
VERTEX
8
CUT
10
202.9235
20
136.2133
0
VERTEX
8
CUT
10
202.8890
20
136.2281
0
VERTEX
8
CUT
10
202.8734
20
136.2360
0
VERTEX
8
CUT
10
200.8159
20
137.3527
0
VERTEX
8
CUT
10
200.5958
20
137.4586
0
VERTEX
8
CUT
10
200.3664
20
137.5426
0
VERTEX
8
CUT
10
200.1299
20
137.6037
0
VERTEX
8
CUT
10
199.8885
20
137.6414
0
VERTEX
8
CUT
10
199.6446
20
137.6554
0
VERTEX
8
CUT
10
199.4006
20
137.6456
0
VERTEX
8
CUT
10
199.1586
20
137.6119
0
VERTEX
8
CUT
10
198.9211
20
137.5549
0
VERTEX
8
CUT
10
198.6903
20
137.4749
0
VERTEX
8
CUT
10
198.4684
20
137.3727
0
VERTEX
8
CUT
10
198.2575
20
137.2494
0
VERTEX
8
CUT
10
198.0597
20
137.1061
0
VERTEX
8
CUT
10
197.8768
20
136.9442
0
VERTEX
8
CUT
10
197.7105
20
136.7652
0
VERTEX
8
CUT
10
197.5626
20
136.5708
0
VERTEX
8
CUT
10
197.4343
20
136.3630
0
VERTEX
8
CUT
10
197.3269
20
136.1436
0
VERTEX
8
CUT
10
197.2414
20
135.9147
0
VERTEX
8
CUT
10
197.1787
20
135.6786
0
VERTEX
8
CUT
10
197.1393
20
135.4376
0
VERTEX
8
CUT
10
197.1237
20
135.1938
0
VERTEX
8
CUT
10
197.1319
20
134.9496
0
VERTEX
8
CUT
10
197.1638
20
134.7075
0
VERTEX
8
CUT
10
197.2193
20
134.4696
0
VERTEX
8
CUT
10
197.2977
20
134.2382
0
VERTEX
8
CUT
10
197.3503
20
134.1050
0
VERTEX
8
CUT
10
197.3567
20
134.0860
0
VERTEX
8
CUT
10
197.3754
20
134.0255
0
VERTEX
8
CUT
10
197.6325
20
133.1124
0
VERTEX
8
CUT
10
197.7016
20
132.9028
0
VERTEX
8
CUT
10
197.7890
20
132.7001
0
VERTEX
8
CUT
10
197.8939
20
132.5060
0
VERTEX
8
CUT
10
198.4419
20
131.5904
0
VERTEX
8
CUT
10
198.5662
20
131.4025
0
VERTEX
8
CUT
10
198.7069
20
131.2266
0
VERTEX
8
CUT
10
198.8628
20
131.0641
0
VERTEX
8
CUT
10
198.9575
20
130.9739
0
VERTEX
8
CUT
10
199.0010
20
130.9280
0
VERTEX
8
CUT
10
199.0032
20
130.8648
0
VERTEX
8
CUT
10
198.9774
20
129.3292
0
VERTEX
8
CUT
10
198.9766
20
129.3098
0
VERTEX
8
CUT
10
198.9721
20
129.2703
0
VERTEX
8
CUT
10
198.9562
20
129.2338
0
VERTEX
8
CUT
10
198.9472
20
129.2166
0
VERTEX
8
CUT
10
198.6101
20
128.6097
0
VERTEX
8
CUT
10
198.6004
20
128.5932
0
VERTEX
8
CUT
10
198.5780
20
128.5607
0
VERTEX
8
CUT
10
198.5526
20
128.5305
0
VERTEX
8
CUT
10
198.5393
20
128.5168
0
VERTEX
8
CUT
10
197.7363
20
127.7307
0
VERTEX
8
CUT
10
197.7215
20
127.7169
0
VERTEX
8
CUT
10
197.6888
20
127.6908
0
VERTEX
8
CUT
10
197.6536
20
127.6683
0
VERTEX
8
CUT
10
197.6357
20
127.6587
0
VERTEX
8
CUT
10
195.9668
20
126.8143
0
VERTEX
8
CUT
10
195.7523
20
126.6921
0
VERTEX
8
CUT
10
195.5509
20
126.5493
0
VERTEX
8
CUT
10
195.3645
20
126.3874
0
VERTEX
8
CUT
10
195.1950
20
126.2079
0
VERTEX
8
CUT
10
195.0441
20
126.0125
0
VERTEX
8
CUT
10
194.9131
20
125.8032
0
VERTEX
8
CUT
10
194.8035
20
125.5820
0
VERTEX
8
CUT
10
194.7162
20
125.3511
0
VERTEX
8
CUT
10
194.6521
20
125.1127
0
VERTEX
8
CUT
10
194.6118
20
124.8691
0
VERTEX
8
CUT
10
194.5957
20
124.6228
0
VERTEX
8
CUT
10
194.6040
20
124.3761
0
VERTEX
8
CUT
10
194.6366
20
124.1313
0
VERTEX
8
CUT
10
194.6932
20
123.8910
0
VERTEX
8
CUT
10
194.7732
20
123.6575
0
VERTEX
8
CUT
10
194.8759
20
123.4330
0
VERTEX
8
CUT
10
195.0002
20
123.2197
0
VERTEX
8
CUT
10
195.1449
20
123.0197
0
VERTEX
8
CUT
10
195.3087
20
122.8349
0
VERTEX
8
CUT
10
195.4899
20
122.6672
0
VERTEX
8
CUT
10
195.6867
20
122.5182
0
VERTEX
8
CUT
10
195.8973
20
122.3893
0
VERTEX
8
CUT
10
196.1195
20
122.2819
0
VERTEX
8
CUT
10
196.3513
20
122.1968
0
VERTEX
8
CUT
10
196.5903
20
122.1351
0
VERTEX
8
CUT
10
196.8343
20
122.0972
0
VERTEX
8
CUT
10
197.0808
20
122.0836
0
VERTEX
8
CUT
10
197.3274
20
122.0943
0
VERTEX
8
CUT
10
197.5718
20
122.1293
0
VERTEX
8
CUT
10
197.8115
20
122.1883
0
VERTEX
8
CUT
10
200.4729
20
122.9840
0
VERTEX
8
CUT
10
200.8117
20
123.1127
0
VERTEX
8
CUT
10
204.0794
20
124.6336
0
VERTEX
8
CUT
10
204.1074
20
124.6467
0
VERTEX
8
CUT
10
204.1275
20
124.6553
0
VERTEX
8
CUT
10
204.2240
20
124.6879
0
VERTEX
8
CUT
10
204.4521
20
124.7776
0
VERTEX
8
CUT
10
204.6704
20
124.8893
0
VERTEX
8
CUT
10
204.8767
20
125.0218
0
VERTEX
8
CUT
10
205.0690
20
125.1738
0
VERTEX
8
CUT
10
205.2455
20
125.3440
0
VERTEX
8
CUT
10
205.4045
20
125.5307
0
VERTEX
8
CUT
10
205.5445
20
125.7320
0
VERTEX
8
CUT
10
205.6640
20
125.9460
0
VERTEX
8
CUT
10
205.7620
20
126.1708
0
VERTEX
8
CUT
10
205.8375
20
126.4040
0
VERTEX
8
CUT
10
205.8898
20
126.6436
0
VERTEX
8
CUT
10
205.9184
20
126.8871
0
VERTEX
8
CUT
10
205.9230
20
127.1322
0
VERTEX
8
CUT
10
205.9036
20
127.3766
0
VERTEX
8
CUT
10
205.8603
20
127.6179
0
VERTEX
8
CUT
10
205.7936
20
127.8539
0
VERTEX
8
CUT
10
205.7041
20
128.0821
0
VERTEX
8
CUT
10
205.5927
20
128.3005
0
VERTEX
8
CUT
10
205.5043
20
128.4385
0
VERTEX
8
CUT
10
205.4858
20
128.4708
0
VERTEX
8
CUT
10
205.5399
20
128.4897
0
VERTEX
8
CUT
10
212.1269
20
130.4363
0
VERTEX
8
CUT
10
212.4361
20
130.5504
0
VERTEX
8
CUT
10
214.4836
20
131.4630
0
VERTEX
8
CUT
10
214.7448
20
131.5984
0
VERTEX
8
CUT
10
214.9884
20
131.7635
0
VERTEX
8
CUT
10
215.9012
20
132.4644
0
VERTEX
8
CUT
10
216.1376
20
132.6708
0
VERTEX
8
CUT
10
217.7261
20
134.2437
0
VERTEX
8
CUT
10
217.9304
20
134.4724
0
VERTEX
8
CUT
10
218.7741
20
135.5425
0
VERTEX
8
CUT
10
218.8881
20
135.6993
0
VERTEX
8
CUT
10
218.9896
20
135.8644
0
VERTEX
8
CUT
10
220.2163
20
138.0446
0
VERTEX
8
CUT
10
220.3245
20
138.2607
0
VERTEX
8
CUT
10
220.4113
20
138.4861
0
VERTEX
8
CUT
10
220.7785
20
139.5976
0
VERTEX
8
CUT
10
220.8416
20
139.8238
0
VERTEX
8
CUT
10
220.8833
20
140.0549
0
VERTEX
8
CUT
10
220.9030
20
140.2889
0
VERTEX
8
CUT
10
220.9400
20
141.2806
0
VERTEX
8
CUT
10
220.9413
20
141.3005
0
VERTEX
8
CUT
10
220.9474
20
141.3430
0
VERTEX
8
CUT
10
220.9580
20
141.3846
0
VERTEX
8
CUT
10
220.9645
20
141.4034
0
VERTEX
8
CUT
10
221.0131
20
141.5342
0
VERTEX
8
CUT
10
221.0816
20
141.7471
0
VERTEX
8
CUT
10
221.1308
20
141.9653
0
VERTEX
8
CUT
10
221.1604
20
142.1870
0
VERTEX
8
CUT
10
221.1700
20
142.4105
0
VERTEX
8
CUT
10
221.1649
20
145.1249
0
VERTEX
8
CUT
10
221.1530
20
145.3632
0
VERTEX
8
CUT
10
221.1186
20
145.5992
0
VERTEX
8
CUT
10
221.0617
20
145.8309
0
VERTEX
8
CUT
10
220.3927
20
148.0873
0
VERTEX
8
CUT
10
220.3025
20
148.3405
0
VERTEX
8
CUT
10
220.1857
20
148.5826
0
VERTEX
8
CUT
10
218.7328
20
151.2207
0
VERTEX
8
CUT
10
218.5572
20
151.4955
0
VERTEX
8
CUT
10
217.1866
20
153.3598
0
VERTEX
8
CUT
10
217.0288
20
153.5534
0
VERTEX
8
CUT
10
216.8526
20
153.7302
0
VERTEX
8
CUT
10
214.4547
20
155.9065
0
VERTEX
8
CUT
10
214.3970
20
155.9626
0
VERTEX
8
CUT
10
214.3431
20
156.0225
0
VERTEX
8
CUT
10
212.4204
20
158.3118
0
VERTEX
8
CUT
10
212.4069
20
158.3288
0
VERTEX
8
CUT
10
212.3554
20
158.4069
0
VERTEX
8
CUT
10
212.3450
20
158.4260
0
VERTEX
8
CUT
10
211.8700
20
159.3660
0
VERTEX
8
CUT
10
211.8610
20
159.3853
0
VERTEX
8
CUT
10
211.8291
20
159.4713
0
VERTEX
8
CUT
10
211.8235
20
159.4917
0
VERTEX
8
CUT
10
211.5427
20
160.6302
0
VERTEX
8
CUT
10
211.5416
20
160.6353
0
VERTEX
8
CUT
10
211.5335
20
160.6851
0
VERTEX
8
CUT
10
211.5316
20
160.7112
0
VERTEX
8
CUT
10
211.5313
20
160.7346
0
VERTEX
8
CUT
10
211.5576
20
162.7951
0
VERTEX
8
CUT
10
211.5583
20
162.8144
0
VERTEX
8
CUT
10
211.5631
20
162.8556
0
VERTEX
8
CUT
10
211.5721
20
162.8961
0
VERTEX
8
CUT
10
211.5777
20
162.9146
0
VERTEX
8
CUT
10
212.0980
20
164.4792
0
VERTEX
8
CUT
10
212.0996
20
164.4837
0
VERTEX
8
CUT
10
212.1276
20
164.5514
0
VERTEX
8
CUT
10
212.1349
20
164.5664
0
VERTEX
8
CUT
10
212.7268
20
165.7235
0
VERTEX
8
CUT
10
212.7295
20
165.7284
0
VERTEX
8
CUT
10
212.7743
20
165.8005
0
VERTEX
8
CUT
10
212.7856
20
165.8162
0
VERTEX
8
CUT
10
213.6365
20
166.9379
0
VERTEX
8
CUT
10
213.6394
20
166.9416
0
VERTEX
8
CUT
10
213.6871
20
166.9959
0
VERTEX
8
CUT
10
213.6986
20
167.0077
0
VERTEX
8
CUT
10
215.5025
20
168.7638
0
VERTEX
8
CUT
10
215.5658
20
168.8211
0
VERTEX
8
CUT
10
215.6331
20
168.8738
0
VERTEX
8
CUT
10
217.4957
20
170.2278
0
VERTEX
8
CUT
10
217.5001
20
170.2308
0
VERTEX
8
CUT
10
217.5692
20
170.2731
0
VERTEX
8
CUT
10
217.5855
20
170.2816
0
VERTEX
8
CUT
10
218.7170
20
170.8431
0
VERTEX
8
CUT
10
218.7218
20
170.8454
0
VERTEX
8
CUT
10
218.7689
20
170.8642
0
VERTEX
8
CUT
10
218.7941
20
170.8717
0
VERTEX
8
CUT
10
218.8170
20
170.8770
0
VERTEX
8
CUT
10
220.3117
20
171.1875
0
VERTEX
8
CUT
10
220.3283
20
171.1906
0
VERTEX
8
CUT
10
220.3645
20
171.1947
0
VERTEX
8
CUT
10
220.4007
20
171.1890
0
VERTEX
8
CUT
10
220.4167
20
171.1853
0
VERTEX
8
CUT
10
220.4741
20
171.1708
0
VERTEX
8
CUT
10
220.7116
20
171.1228
0
VERTEX
8
CUT
10
220.9526
20
171.0980
0
VERTEX
8
CUT
10
221.1948
20
171.0967
0
VERTEX
8
CUT
10
221.4360
20
171.1188
0
VERTEX
8
CUT
10
221.6740
20
171.1642
0
VERTEX
8
CUT
10
221.9065
20
171.2324
0
VERTEX
8
CUT
10
222.1312
20
171.3228
0
VERTEX
8
CUT
10
222.3462
20
171.4345
0
VERTEX
8
CUT
10
222.5493
20
171.5664
0
VERTEX
8
CUT
10
222.7387
20
171.7175
0
VERTEX
8
CUT
10
222.9126
20
171.8861
0
VERTEX
8
CUT
10
223.0694
20
172.0708
0
VERTEX
8
CUT
10
223.2076
20
172.2698
0
VERTEX
8
CUT
10
223.3258
20
172.4812
0
VERTEX
8
CUT
10
224.4276
20
174.6966
0
VERTEX
8
CUT
10
224.5100
20
174.8807
0
VERTEX
8
CUT
10
226.0321
20
178.6830
0
VERTEX
8
CUT
10
226.1007
20
178.8772
0
VERTEX
8
CUT
10
226.1531
20
179.0765
0
VERTEX
8
CUT
10
226.1889
20
179.2793
0
VERTEX
8
CUT
10
226.2526
20
179.7537
0
VERTEX
8
CUT
10
226.2535
20
179.7591
0
VERTEX
8
CUT
10
226.2639
20
179.8065
0
VERTEX
8
CUT
10
226.2749
20
179.8332
0
VERTEX
8
CUT
10
226.2856
20
179.8551
0
VERTEX
8
CUT
10
226.7487
20
180.7457
0
VERTEX
8
CUT
10
226.8498
20
180.9655
0
VERTEX
8
CUT
10
226.9292
20
181.1941
0
VERTEX
8
CUT
10
226.9861
20
181.4292
0
VERTEX
8
CUT
10
227.0200
20
181.6688
0
VERTEX
8
CUT
10
227.0681
20
182.1878
0
VERTEX
8
CUT
10
227.0707
20
182.2092
0
VERTEX
8
CUT
10
227.0899
20
182.3005
0
VERTEX
8
CUT
10
227.0961
20
182.3212
0
VERTEX
8
CUT
10
227.8920
20
184.7052
0
VERTEX
8
CUT
10
227.8937
20
184.7100
0
VERTEX
8
CUT
10
227.9239
20
184.7817
0
VERTEX
8
CUT
10
227.9317
20
184.7975
0
VERTEX
8
CUT
10
228.1512
20
185.2157
0
VERTEX
8
CUT
10
228.2474
20
185.4211
0
VERTEX
8
CUT
10
228.3245
20
185.6343
0
VERTEX
8
CUT
10
228.3821
20
185.8537
0
VERTEX
8
CUT
10
228.4195
20
186.0774
0
VERTEX
8
CUT
10
228.4521
20
186.3474
0
VERTEX
8
CUT
10
228.4552
20
186.3682
0
VERTEX
8
CUT
10
228.4761
20
186.4565
0
VERTEX
8
CUT
10
228.4826
20
186.4765
0
VERTEX
8
CUT
10
229.8416
20
190.2707
0
VERTEX
8
CUT
10
229.8691
20
190.3405
0
VERTEX
8
CUT
10
229.9009
20
190.4083
0
VERTEX
8
CUT
10
231.5464
20
193.6496
0
VERTEX
8
CUT
10
231.6616
20
193.9130
0
VERTEX
8
CUT
10
231.7458
20
194.1879
0
VERTEX
8
CUT
10
231.8238
20
194.5072
0
VERTEX
8
CUT
10
231.8252
20
194.5124
0
VERTEX
8
CUT
10
231.8417
20
194.5616
0
VERTEX
8
CUT
10
231.8525
20
194.5861
0
VERTEX
8
CUT
10
231.8635
20
194.6075
0
VERTEX
8
CUT
10
233.4288
20
197.4661
0
VERTEX
8
CUT
10
233.4637
20
197.5258
0
VERTEX
8
CUT
10
233.5021
20
197.5834
0
VERTEX
8
CUT
10
234.3579
20
198.7893
0
VERTEX
8
CUT
10
234.4667
20
198.9564
0
VERTEX
8
CUT
10
234.5619
20
199.1317
0
VERTEX
8
CUT
10
235.3775
20
200.7881
0
VERTEX
8
CUT
10
235.3859
20
200.8043
0
VERTEX
8
CUT
10
235.4273
20
200.8710
0
VERTEX
8
CUT
10
235.4380
20
200.8858
0
VERTEX
8
CUT
10
236.4577
20
202.2245
0
VERTEX
8
CUT
10
236.5862
20
202.4100
0
VERTEX
8
CUT
10
236.6975
20
202.6064
0
VERTEX
8
CUT
10
236.7906
20
202.8120
0
VERTEX
8
CUT
10
237.1238
20
203.6461
0
VERTEX
8
CUT
10
237.1940
20
203.8461
0
VERTEX
8
CUT
10
237.2471
20
204.0513
0
VERTEX
8
CUT
10
237.2825
20
204.2602
0
VERTEX
8
CUT
10
237.3359
20
204.6826
0
VERTEX
8
CUT
10
237.3388
20
204.7019
0
VERTEX
8
CUT
10
237.3484
20
204.7427
0
VERTEX
8
CUT
10
237.3662
20
204.7806
0
VERTEX
8
CUT
10
237.3758
20
204.7975
0
VERTEX
8
CUT
10
238.1537
20
206.0882
0
VERTEX
8
CUT
10
238.2603
20
206.2844
0
VERTEX
8
CUT
10
238.3490
20
206.4894
0
VERTEX
8
CUT
10
238.4191
20
206.7015
0
VERTEX
8
CUT
10
238.6906
20
207.6664
0
VERTEX
8
CUT
10
238.7173
20
207.7494
0
VERTEX
8
CUT
10
238.7500
20
207.8303
0
VERTEX
8
CUT
10
239.6556
20
209.8542
0
VERTEX
8
CUT
10
239.7259
20
210.0284
0
VERTEX
8
CUT
10
239.7828
20
210.2074
0
VERTEX
8
CUT
10
241.0477
20
214.7701
0
VERTEX
8
CUT
10
241.1067
20
215.0399
0
VERTEX
8
CUT
10
241.1355
20
215.3146
0
VERTEX
8
CUT
10
241.1781
20
216.1759
0
VERTEX
8
CUT
10
241.1796
20
216.1954
0
VERTEX
8
CUT
10
241.1924
20
216.2787
0
VERTEX
8
CUT
10
241.1969
20
216.2977
0
VERTEX
8
CUT
10
241.6105
20
217.8708
0
VERTEX
8
CUT
10
241.6669
20
218.1483
0
VERTEX
8
CUT
10
241.6916
20
218.4304
0
VERTEX
8
CUT
10
241.7065
20
218.9213
0
VERTEX
8
CUT
10
241.7018
20
219.1693
0
VERTEX
8
CUT
10
241.6725
20
219.4155
0
VERTEX
8
CUT
10
241.6189
20
219.6576
0
VERTEX
8
CUT
10
241.5416
20
219.8933
0
VERTEX
8
CUT
10
241.4414
20
220.1201
0
VERTEX
8
CUT
10
241.3192
20
220.3359
0
VERTEX
8
CUT
10
241.1762
20
220.5385
0
VERTEX
8
CUT
10
241.0138
20
220.7259
0
VERTEX
8
CUT
10
240.8337
20
220.8964
0
VERTEX
8
CUT
10
240.6375
20
221.0481
0
VERTEX
8
CUT
10
240.4273
20
221.1797
0
VERTEX
8
CUT
10
240.2051
20
221.2898
0
VERTEX
8
CUT
10
239.9731
20
221.3773
0
VERTEX
8
CUT
10
239.7336
20
221.4415
0
VERTEX
8
CUT
10
239.4888
20
221.4816
0
VERTEX
8
CUT
10
239.2413
20
221.4972
0
VERTEX
8
CUT
10
238.9935
20
221.4882
0
VERTEX
8
CUT
10
238.7478
20
221.4548
0
VERTEX
8
CUT
10
238.5066
20
221.3971
0
VERTEX
8
CUT
10
238.2723
20
221.3158
0
VERTEX
8
CUT
10
238.0472
20
221.2118
0
VERTEX
8
CUT
10
237.6932
20
221.0262
0
VERTEX
8
CUT
10
237.6889
20
221.0241
0
VERTEX
8
CUT
10
237.6206
20
220.9945
0
VERTEX
8
CUT
10
237.6048
20
220.9886
0
VERTEX
8
CUT
10
235.0877
20
220.1304
0
VERTEX
8
CUT
10
234.8968
20
220.0564
0
VERTEX
8
CUT
10
234.7125
20
219.9671
0
VERTEX
8
CUT
10
230.9380
20
217.9419
0
VERTEX
8
CUT
10
230.6371
20
217.7517
0
VERTEX
8
CUT
10
227.8161
20
215.6732
0
VERTEX
8
CUT
10
227.5554
20
215.4521
0
VERTEX
8
CUT
10
225.2913
20
213.2485
0
VERTEX
8
CUT
10
225.1371
20
213.0842
0
VERTEX
8
CUT
10
223.4384
20
211.1031
0
VERTEX
8
CUT
10
223.2615
20
210.8704
0
VERTEX
8
CUT
10
221.8311
20
208.7424
0
VERTEX
8
CUT
10
221.7238
20
208.5676
0
VERTEX
8
CUT
10
221.6311
20
208.3846
0
VERTEX
8
CUT
10
221.5538
20
208.1947
0
VERTEX
8
CUT
10
220.8377
20
206.2058
0
VERTEX
8
CUT
10
220.7662
20
205.9720
0
VERTEX
8
CUT
10
220.7179
20
205.7323
0
VERTEX
8
CUT
10
220.6932
20
205.4891
0
VERTEX
8
CUT
10
220.6924
20
205.2446
0
VERTEX
8
CUT
10
220.7156
20
205.0011
0
VERTEX
8
CUT
10
220.7623
20
204.7612
0
VERTEX
8
CUT
10
220.8323
20
204.5269
0
VERTEX
8
CUT
10
220.9249
20
204.3006
0
VERTEX
8
CUT
10
221.2131
20
203.6838
0
VERTEX
8
CUT
10
221.2153
20
203.6788
0
VERTEX
8
CUT
10
221.2323
20
203.6327
0
VERTEX
8
CUT
10
221.2374
20
203.6038
0
VERTEX
8
CUT
10
221.2402
20
203.5792
0
VERTEX
8
CUT
10
221.3035
20
202.8467
0
VERTEX
8
CUT
10
221.3069
20
202.7937
0
VERTEX
8
CUT
10
221.3080
20
202.7406
0
VERTEX
8
CUT
10
221.2944
20
197.8353
0
VERTEX
8
CUT
10
221.2940
20
197.8180
0
VERTEX
8
CUT
10
221.2904
20
197.7807
0
VERTEX
8
CUT
10
221.2834
20
197.7437
0
VERTEX
8
CUT
10
221.2791
20
197.7275
0
VERTEX
8
CUT
10
221.1561
20
197.2994
0
VERTEX
8
CUT
10
221.1049
20
197.0864
0
VERTEX
8
CUT
10
221.0726
20
196.8696
0
VERTEX
8
CUT
10
221.0593
20
196.6509
0
VERTEX
8
CUT
10
221.0219
20
194.4098
0
VERTEX
8
CUT
10
221.0217
20
194.4045
0
VERTEX
8
CUT
10
221.0140
20
194.3246
0
VERTEX
8
CUT
10
221.0111
20
194.3065
0
VERTEX
8
CUT
10
220.7343
20
192.8123
0
VERTEX
8
CUT
10
220.7262
20
192.7725
0
VERTEX
8
CUT
10
220.7168
20
192.7331
0
VERTEX
8
CUT
10
220.4257
20
191.5989
0
VERTEX
8
CUT
10
220.4209
20
191.5819
0
VERTEX
8
CUT
10
220.4079
20
191.5460
0
VERTEX
8
CUT
10
220.3917
20
191.5115
0
VERTEX
8
CUT
10
220.3830
20
191.4960
0
VERTEX
8
CUT
10
219.6744
20
190.2978
0
VERTEX
8
CUT
10
219.5534
20
190.0665
0
VERTEX
8
CUT
10
219.4573
20
189.8239
0
VERTEX
8
CUT
10
219.3869
20
189.5725
0
VERTEX
8
CUT
10
219.3431
20
189.3151
0
VERTEX
8
CUT
10
219.0252
20
186.5924
0
VERTEX
8
CUT
10
219.0245
20
186.5870
0
VERTEX
8
CUT
10
219.0147
20
186.5388
0
VERTEX
8
CUT
10
219.0039
20
186.5116
0
VERTEX
8
CUT
10
218.9933
20
186.4893
0
VERTEX
8
CUT
10
217.6567
20
183.8379
0
VERTEX
8
CUT
10
217.6542
20
183.8332
0
VERTEX
8
CUT
10
217.6120
20
183.7638
0
VERTEX
8
CUT
10
217.6014
20
183.7487
0
VERTEX
8
CUT
10
215.1822
20
180.4681
0
VERTEX
8
CUT
10
215.1699
20
180.4523
0
VERTEX
8
CUT
10
215.1409
20
180.4207
0
VERTEX
8
CUT
10
215.1058
20
180.3959
0
VERTEX
8
CUT
10
215.0885
20
180.3857
0
VERTEX
8
CUT
10
214.4374
20
180.0236
0
VERTEX
8
CUT
10
214.4224
20
180.0157
0
VERTEX
8
CUT
10
214.3889
20
180.0009
0
VERTEX
8
CUT
10
214.2793
20
179.9746
0
VERTEX
8
CUT
10
214.2795
20
179.9736
0
VERTEX
8
CUT
10
214.1688
20
179.9492
0
VERTEX
8
CUT
10
213.9385
20
179.8746
0
VERTEX
8
CUT
10
213.7166
20
179.7780
0
VERTEX
8
CUT
10
213.5050
20
179.6605
0
VERTEX
8
CUT
10
213.3058
20
179.5230
0
VERTEX
8
CUT
10
213.1208
20
179.3670
0
VERTEX
8
CUT
10
212.9517
20
179.1937
0
VERTEX
8
CUT
10
212.0565
20
178.1827
0
VERTEX
8
CUT
10
212.0421
20
178.1673
0
VERTEX
8
CUT
10
212.0086
20
178.1371
0
VERTEX
8
CUT
10
211.9719
20
178.1107
0
VERTEX
8
CUT
10
211.9539
20
178.1000
0
VERTEX
8
CUT
10
209.4453
20
176.6963
0
VERTEX
8
CUT
10
209.4293
20
176.6879
0
VERTEX
8
CUT
10
209.3580
20
176.6565
0
VERTEX
8
CUT
10
209.3410
20
176.6504
0
VERTEX
8
CUT
10
205.1375
20
175.2653
0
VERTEX
8
CUT
10
205.1215
20
175.2604
0
VERTEX
8
CUT
10
205.0510
20
175.2440
0
VERTEX
8
CUT
10
205.0344
20
175.2412
0
VERTEX
8
CUT
10
203.1347
20
174.9731
0
VERTEX
8
CUT
10
203.0506
20
174.9643
0
VERTEX
8
CUT
10
202.9662
20
174.9614
0
VERTEX
8
CUT
10
198.3379
20
174.9692
0
VERTEX
8
CUT
10
198.3194
20
174.9697
0
VERTEX
8
CUT
10
198.2798
20
174.9736
0
VERTEX
8
CUT
10
198.2408
20
174.9815
0
VERTEX
8
CUT
10
198.2230
20
174.9864
0
VERTEX
8
CUT
10
197.8275
20
175.1074
0
VERTEX
8
CUT
10
197.6177
20
175.1618
0
VERTEX
8
CUT
10
197.4040
20
175.1978
0
VERTEX
8
CUT
10
197.1880
20
175.2151
0
VERTEX
8
CUT
10
195.8400
20
175.2646
0
VERTEX
8
CUT
10
195.8205
20
175.2658
0
VERTEX
8
CUT
10
195.7792
20
175.2717
0
VERTEX
8
CUT
10
195.7399
20
175.2859
0
VERTEX
8
CUT
10
195.7222
20
175.2940
0
VERTEX
8
CUT
10
195.1733
20
175.5608
0
VERTEX
8
CUT
10
194.9725
20
175.6477
0
VERTEX
8
CUT
10
194.7649
20
175.7168
0
VERTEX
8
CUT
10
194.5520
20
175.7674
0
VERTEX
8
CUT
10
194.3355
20
175.7992
0
VERTEX
8
CUT
10
192.0327
20
176.0354
0
VERTEX
8
CUT
10
191.7661
20
176.0484
0
VERTEX
8
CUT
10
186.8798
20
176.0258
0
VERTEX
8
CUT
10
186.5992
20
176.0087
0
VERTEX
8
CUT
10
186.3223
20
175.9602
0
VERTEX
8
CUT
10
184.5442
20
175.5446
0
VERTEX
8
CUT
10
184.2605
20
175.4603
0
VERTEX
8
CUT
10
183.9887
20
175.3430
0
VERTEX
8
CUT
10
183.3041
20
174.9982
0
VERTEX
8
CUT
10
183.0715
20
174.8650
0
VERTEX
8
CUT
10
182.8546
20
174.7077
0
VERTEX
8
CUT
10
181.8491
20
173.8928
0
VERTEX
8
CUT
10
181.6717
20
173.7344
0
VERTEX
8
CUT
10
181.5101
20
173.5599
0
VERTEX
8
CUT
10
181.3658
20
173.3709
0
VERTEX
8
CUT
10
180.9850
20
172.8191
0
VERTEX
8
CUT
10
180.8060
20
172.5164
0
VERTEX
8
CUT
10
179.6445
20
170.1920
0
VERTEX
8
CUT
10
179.5599
20
170.0038
0
VERTEX
8
CUT
10
179.4912
20
169.8091
0
VERTEX
8
CUT
10
179.4387
20
169.6095
0
VERTEX
8
CUT
10
179.0322
20
167.7540
0
VERTEX
8
CUT
10
178.9902
20
167.5000
0
VERTEX
8
CUT
10
178.9744
20
167.2431
0
VERTEX
8
CUT
10
178.9852
20
166.9859
0
VERTEX
8
CUT
10
179.0224
20
166.7312
0
VERTEX
8
CUT
10
179.4379
20
164.6427
0
VERTEX
8
CUT
10
179.4928
20
164.4205
0
VERTEX
8
CUT
10
179.5678
20
164.2043
0
VERTEX
8
CUT
10
179.6622
20
163.9958
0
VERTEX
8
CUT
10
180.4564
20
162.4368
0
VERTEX
8
CUT
10
180.5839
20
162.2152
0
VERTEX
8
CUT
10
180.7334
20
162.0078
0
VERTEX
8
CUT
10
180.9033
20
161.8168
0
VERTEX
8
CUT
10
182.7342
20
159.9589
0
VERTEX
8
CUT
10
182.8808
20
159.8216
0
VERTEX
8
CUT
10
183.0379
20
159.6966
0
VERTEX
8
CUT
10
183.7929
20
159.1437
0
VERTEX
8
CUT
10
183.9681
20
159.0265
0
VERTEX
8
CUT
10
184.1525
20
158.9244
0
VERTEX
8
CUT
10
185.9670
20
158.0178
0
VERTEX
8
CUT
10
186.1735
20
157.9260
0
VERTEX
8
CUT
10
186.3874
20
157.8533
0
VERTEX
8
CUT
10
192.1239
20
156.1879
0
VERTEX
8
CUT
10
192.2062
20
156.1607
0
VERTEX
8
CUT
10
192.2864
20
156.1275
0
VERTEX
8
CUT
10
195.2280
20
154.7849
0
VERTEX
8
CUT
10
195.2472
20
154.7755
0
SEQEND
0
POLYLINE
8
CUT
66
1
70
1
10
0.0
20
0.0
30
0.0
0
VERTEX
8
CUT
10
222.9314
20
30.4077
0
VERTEX
8
CUT
10
222.7803
20
30.2111
0
VERTEX
8
CUT
10
222.6495
20
30.0005
0
VERTEX
8
CUT
10
222.5402
20
29.7781
0
VERTEX
8
CUT
10
222.4535
20
29.5458
0
VERTEX
8
CUT
10
222.3902
20
29.3062
0
VERTEX
8
CUT
10
222.3509
20
29.0614
0
VERTEX
8
CUT
10
222.3361
20
28.8140
0
VERTEX
8
CUT
10
222.3458
20
28.5663
0
VERTEX
8
CUT
10
222.3800
20
28.3207
0
VERTEX
8
CUT
10
222.4384
20
28.0798
0
VERTEX
8
CUT
10
222.5203
20
27.8459
0
VERTEX
8
CUT
10
222.6251
20
27.6212
0
VERTEX
8
CUT
10
222.7515
20
27.4080
0
VERTEX
8
CUT
10
222.8985
20
27.2083
0
VERTEX
8
CUT
10
223.0644
20
27.0242
0
VERTEX
8
CUT
10
223.2479
20
26.8574
0
VERTEX
8
CUT
10
223.4469
20
26.7097
0
VERTEX
8
CUT
10
223.6596
20
26.5823
0
VERTEX
8
CUT
10
223.8838
20
26.4766
0
VERTEX
8
CUT
10
224.1174
20
26.3937
0
VERTEX
8
CUT
10
225.0154
20
26.1243
0
VERTEX
8
CUT
10
225.0880
20
26.1000
0
VERTEX
8
CUT
10
225.1590
20
26.0712
0
VERTEX
8
CUT
10
227.0241
20
25.2457
0
VERTEX
8
CUT
10
227.2411
20
25.1615
0
VERTEX
8
CUT
10
227.4650
20
25.0978
0
VERTEX
8
CUT
10
227.6939
20
25.0553
0
VERTEX
8
CUT
10
227.9257
20
25.0342
0
VERTEX
8
CUT
10
228.1584
20
25.0348
0
VERTEX
8
CUT
10
228.3901
20
25.0570
0
VERTEX
8
CUT
10
228.6188
20
25.1007
0
VERTEX
8
CUT
10
228.8424
20
25.1654
0
VERTEX
8
CUT
10
229.0521
20
25.2369
0
VERTEX
8
CUT
10
229.2430
20
25.3108
0
VERTEX
8
CUT
10
229.4271
20
25.4000
0
VERTEX
8
CUT
10
229.6033
20
25.5040
0
VERTEX
8
CUT
10
230.4485
20
26.0506
0
VERTEX
8
CUT
10
230.4652
20
26.0608
0
VERTEX
8
CUT
10
230.5010
20
26.0792
0
VERTEX
8
CUT
10
230.5406
20
26.0863
0
VERTEX
8
CUT
10
230.5600
20
26.0883
0
VERTEX
8
CUT
10
231.4479
20
26.1580
0
VERTEX
8
CUT
10
231.6893
20
26.1888
0
VERTEX
8
CUT
10
231.9266
20
26.2430
0
VERTEX
8
CUT
10
232.1574
20
26.3199
0
VERTEX
8
CUT
10
232.3797
20
26.4190
0
VERTEX
8
CUT
10
232.7131
20
26.5874
0
VERTEX
8
CUT
10
232.9406
20
26.7177
0
VERTEX
8
CUT
10
233.1531
20
26.8712
0
VERTEX
8
CUT
10
233.3485
20
27.0460
0
VERTEX
8
CUT
10
234.8515
20
28.5406
0
VERTEX
8
CUT
10
235.0073
20
28.7104
0
VERTEX
8
CUT
10
235.1467
20
28.8939
0
VERTEX
8
CUT
10
235.2687
20
29.0894
0
VERTEX
8
CUT
10
235.3721
20
29.2953
0
VERTEX
8
CUT
10
236.1203
20
30.9735
0
VERTEX
8
CUT
10
236.2107
20
31.2070
0
VERTEX
8
CUT
10
236.2772
20
31.4483
0
VERTEX
8
CUT
10
236.3193
20
31.6951
0
VERTEX
8
CUT
10
236.3365
20
31.9448
0
VERTEX
8
CUT
10
236.4243
20
36.6449
0
VERTEX
8
CUT
10
236.4179
20
36.8770
0
VERTEX
8
CUT
10
236.3900
20
37.1074
0
VERTEX
8
CUT
10
236.3408
20
37.3342
0
VERTEX
8
CUT
10
236.2708
20
37.5555
0
VERTEX
8
CUT
10
236.1806
20
37.7693
0
VERTEX
8
CUT
10
236.0709
20
37.9739
0
VERTEX
8
CUT
10
235.9428
20
38.1674
0
VERTEX
8
CUT
10
235.7972
20
38.3482
0
VERTEX
8
CUT
10
234.5396
20
39.7697
0
VERTEX
8
CUT
10
234.4840
20
39.8326
0
VERTEX
8
CUT
10
234.3136
20
40.0072
0
VERTEX
8
CUT
10
234.1270
20
40.1643
0
VERTEX
8
CUT
10
233.9260
20
40.3026
0
VERTEX
8
CUT
10
233.7125
20
40.4206
0
VERTEX
8
CUT
10
233.4885
20
40.5172
0
VERTEX
8
CUT
10
233.2562
20
40.5915
0
VERTEX
8
CUT
10
233.0177
20
40.6428
0
VERTEX
8
CUT
10
232.7753
20
40.6707
0
VERTEX
8
CUT
10
232.5314
20
40.6748
0
VERTEX
8
CUT
10
232.2882
20
40.6550
0
VERTEX
8
CUT
10
232.0482
20
40.6117
0
VERTEX
8
CUT
10
231.8135
20
40.5452
0
VERTEX
8
CUT
10
231.5864
20
40.4562
0
VERTEX
8
CUT
10
231.3690
20
40.3454
0
VERTEX
8
CUT
10
231.1635
20
40.2140
0
VERTEX
8
CUT
10
230.9718
20
40.0631
0
VERTEX
8
CUT
10
230.7956
20
39.8943
0
VERTEX
8
CUT
10
230.6368
20
39.7092
0
VERTEX
8
CUT
10
230.4968
20
39.5094
0
VERTEX
8
CUT
10
230.3769
20
39.2970
0
VERTEX
8
CUT
10
230.3499
20
39.2358
0
VERTEX
8
CUT
10
230.3110
20
39.1586
0
VERTEX
8
CUT
10
230.2343
20
39.0610
0
VERTEX
8
CUT
10
230.2357
20
39.0599
0
VERTEX
8
CUT
10
230.1616
20
38.9665
0
VERTEX
8
CUT
10
230.0371
20
38.7762
0
VERTEX
8
CUT
10
229.9304
20
38.5755
0
VERTEX
8
CUT
10
229.8424
20
38.3658
0
VERTEX
8
CUT
10
229.7738
20
38.1491
0
VERTEX
8
CUT
10
229.7251
20
37.9270
0
VERTEX
8
CUT
10
229.7151
20
37.8682
0
VERTEX
8
CUT
10
229.7112
20
37.8486
0
VERTEX
8
CUT
10
229.7001
20
37.8088
0
VERTEX
8
CUT
10
229.6813
20
37.7721
0
VERTEX
8
CUT
10
229.6708
20
37.7550
0
VERTEX
8
CUT
10
229.3518
20
37.2631
0
VERTEX
8
CUT
10
229.3416
20
37.2482
0
VERTEX
8
CUT
10
229.3186
20
37.2189
0
VERTEX
8
CUT
10
229.2869
20
37.2000
0
VERTEX
8
CUT
10
229.2706
20
37.1918
0
VERTEX
8
CUT
10
227.1620
20
36.1852
0
VERTEX
8
CUT
10
226.9277
20
36.0576
0
VERTEX
8
CUT
10
226.7083
20
35.9056
0
VERTEX
8
CUT
10
226.5063
20
35.7312
0
VERTEX
8
CUT
10
226.3241
20
35.5362
0
VERTEX
8
CUT
10
225.8179
20
34.9331
0
VERTEX
8
CUT
10
225.8146
20
34.9293
0
VERTEX
8
CUT
10
225.7632
20
34.8763
0
VERTEX
8
CUT
10
225.7504
20
34.8644
0
VERTEX
8
CUT
10
224.4081
20
33.6815
0
VERTEX
8
CUT
10
224.2351
20
33.5136
0
VERTEX
8
CUT
10
224.0791
20
33.3298
0
VERTEX
8
CUT
10
223.9415
20
33.1318
0
VERTEX
8
CUT
10
223.8236
20
32.9214
0
VERTEX
8
CUT
10
223.7266
20
32.7007
0
VERTEX
8
CUT
10
223.6513
20
32.4717
0
VERTEX
8
CUT
10
223.5983
20
32.2364
0
VERTEX
8
CUT
10
223.5683
20
31.9972
0
VERTEX
8
CUT
10
223.5615
20
31.7562
0
VERTEX
8
CUT
10
223.5779
20
31.5156
0
VERTEX
8
CUT
10
223.6016
20
31.3727
0
VERTEX
8
CUT
10
223.6007
20
31.3725
0
VERTEX
8
CUT
10
223.6194
20
31.2558
0
VERTEX
8
CUT
10
223.6145
20
31.2175
0
VERTEX
8
CUT
10
223.6108
20
31.1991
0
VERTEX
8
CUT
10
223.5629
20
30.9862
0
VERTEX
8
CUT
10
223.5582
20
30.9677
0
VERTEX
8
CUT
10
223.5460
20
30.9308
0
VERTEX
8
CUT
10
223.4899
20
30.8950
0
VERTEX
8
CUT
10
223.2879
20
30.7513
0
VERTEX
8
CUT
10
223.1011
20
30.5883
0
SEQEND
0
POLYLINE
8
CUT
66
1
70
1
10
0.0
20
0.0
30
0.0
0
VERTEX
8
CUT
10
207.0095
20
42.4642
0
VERTEX
8
CUT
10
206.8170
20
42.3106
0
VERTEX
8
CUT
10
206.6405
20
42.1387
0
VERTEX
8
CUT
10
206.4818
20
41.9504
0
VERTEX
8
CUT
10
206.3424
20
41.7473
0
VERTEX
8
CUT
10
206.2237
20
41.5315
0
VERTEX
8
CUT
10
206.1268
20
41.3050
0
VERTEX
8
CUT
10
206.0526
20
41.0702
0
VERTEX
8
CUT
10
206.0019
20
40.8291
0
VERTEX
8
CUT
10
205.9752
20
40.5843
0
VERTEX
8
CUT
10
205.9727
20
40.3380
0
VERTEX
8
CUT
10
205.9944
20
40.0926
0
VERTEX
8
CUT
10
206.0402
20
39.8506
0
VERTEX
8
CUT
10
206.1096
20
39.6143
0
VERTEX
8
CUT
10
206.2019
20
39.3859
0
VERTEX
8
CUT
10
206.3162
20
39.1677
0
VERTEX
8
CUT
10
206.4514
20
38.9619
0
VERTEX
8
CUT
10
206.6063
20
38.7703
0
VERTEX
8
CUT
10
208.3338
20
36.8363
0
VERTEX
8
CUT
10
208.5421
20
36.6290
0
VERTEX
8
CUT
10
212.9655
20
32.7171
0
VERTEX
8
CUT
10
212.9756
20
32.7081
0
VERTEX
8
CUT
10
213.1705
20
32.5524
0
VERTEX
8
CUT
10
213.3799
20
32.4168
0
VERTEX
8
CUT
10
213.6019
20
32.3028
0
VERTEX
8
CUT
10
213.8340
20
32.2115
0
VERTEX
8
CUT
10
214.0742
20
32.1438
0
VERTEX
8
CUT
10
214.3198
20
32.1004
0
VERTEX
8
CUT
10
214.5686
20
32.0816
0
VERTEX
8
CUT
10
214.8180
20
32.0878
0
VERTEX
8
CUT
10
215.0656
20
32.1187
0
VERTEX
8
CUT
10
215.3088
20
32.1742
0
VERTEX
8
CUT
10
215.5453
20
32.2537
0
VERTEX
8
CUT
10
215.7727
20
32.3563
0
VERTEX
8
CUT
10
215.9887
20
32.4811
0
VERTEX
8
CUT
10
216.1912
20
32.6268
0
VERTEX
8
CUT
10
216.3782
20
32.7920
0
VERTEX
8
CUT
10
216.5478
20
32.9750
0
VERTEX
8
CUT
10
216.6983
20
33.1739
0
VERTEX
8
CUT
10
216.8283
20
33.3869
0
VERTEX
8
CUT
10
216.9363
20
33.6118
0
VERTEX
8
CUT
10
217.0083
20
33.7829
0
VERTEX
8
CUT
10
217.1494
20
34.0751
0
VERTEX
8
CUT
10
217.1592
20
34.0940
0
VERTEX
8
CUT
10
217.1823
20
34.1311
0
VERTEX
8
CUT
10
217.2129
20
34.1625
0
VERTEX
8
CUT
10
217.2289
20
34.1765
0
VERTEX
8
CUT
10
217.3365
20
34.2654
0
VERTEX
8
CUT
10
217.5100
20
34.4230
0
VERTEX
8
CUT
10
217.6679
20
34.5961
0
VERTEX
8
CUT
10
217.8089
20
34.7833
0
VERTEX
8
CUT
10
217.9318
20
34.9828
0
VERTEX
8
CUT
10
218.0354
20
35.1929
0
VERTEX
8
CUT
10
218.1189
20
35.4118
0
VERTEX
8
CUT
10
218.1816
20
35.6376
0
VERTEX
8
CUT
10
218.2228
20
35.8683
0
VERTEX
8
CUT
10
218.2423
20
36.1018
0
VERTEX
8
CUT
10
218.2901
20
37.4162
0
VERTEX
8
CUT
10
218.2913
20
37.4360
0
VERTEX
8
CUT
10
218.2969
20
37.4766
0
VERTEX
8
CUT
10
218.3143
20
37.5136
0
VERTEX
8
CUT
10
218.3241
20
37.5309
0
VERTEX
8
CUT
10
218.4643
20
37.7646
0
VERTEX
8
CUT
10
218.8253
20
38.3664
0
VERTEX
8
CUT
10
218.9481
20
38.5977
0
VERTEX
8
CUT
10
219.0460
20
38.8405
0
VERTEX
8
CUT
10
219.1179
20
39.0923
0
VERTEX
8
CUT
10
219.1632
20
39.3502
0
VERTEX
8
CUT
10
219.1833
20
39.5154
0
VERTEX
8
CUT
10
219.2009
20
39.7589
0
VERTEX
8
CUT
10
219.1984
20
39.8585
0
VERTEX
8
CUT
10
219.2000
20
39.9299
0
VERTEX
8
CUT
10
219.2427
20
39.9713
0
VERTEX
8
CUT
10
220.1620
20
40.7815
0
VERTEX
8
CUT
10
220.2981
20
40.9108
0
VERTEX
8
CUT
10
220.4241
20
41.0500
0
VERTEX
8
CUT
10
220.9609
20
41.6895
0
VERTEX
8
CUT
10
221.0051
20
41.7395
0
VERTEX
8
CUT
10
221.0196
20
41.7550
0
VERTEX
8
CUT
10
221.1113
20
41.8432
0
VERTEX
8
CUT
10
221.2070
20
41.9173
0
VERTEX
8
CUT
10
221.3154
20
41.9841
0
VERTEX
8
CUT
10
221.3340
20
41.9942
0
VERTEX
8
CUT
10
221.3934
20
42.0245
0
VERTEX
8
CUT
10
222.8014
20
42.6967
0
VERTEX
8
CUT
10
223.0281
20
42.8196
0
VERTEX
8
CUT
10
223.2409
20
42.9653
0
VERTEX
8
CUT
10
223.4375
20
43.1320
0
VERTEX
8
CUT
10
223.6160
20
43.3182
0
VERTEX
8
CUT
10
223.7743
20
43.5218
0
VERTEX
8
CUT
10
223.9108
20
43.7405
0
VERTEX
8
CUT
10
224.0241
20
43.9722
0
VERTEX
8
CUT
10
224.1128
20
44.2143
0
VERTEX
8
CUT
10
224.1294
20
44.2678
0
VERTEX
8
CUT
10
224.1639
20
44.3617
0
VERTEX
8
CUT
10
224.2081
20
44.4550
0
VERTEX
8
CUT
10
224.2607
20
44.5438
0
VERTEX
8
CUT
10
224.3241
20
44.6318
0
VERTEX
8
CUT
10
224.3353
20
44.6459
0
VERTEX
8
CUT
10
224.3717
20
44.6897
0
VERTEX
8
CUT
10
224.6016
20
44.9540
0
VERTEX
8
CUT
10
224.7827
20
45.1889
0
VERTEX
8
CUT
10
224.9346
20
45.4437
0
VERTEX
8
CUT
10
225.1763
20
45.9097
0
VERTEX
8
CUT
10
225.2096
20
45.9697
0
VERTEX
8
CUT
10
225.2207
20
45.9884
0
VERTEX
8
CUT
10
225.2933
20
46.0973
0
VERTEX
8
CUT
10
225.3774
20
46.1975
0
VERTEX
8
CUT
10
225.3923
20
46.2134
0
VERTEX
8
CUT
10
225.4405
20
46.2621
0
VERTEX
8
CUT
10
225.6290
20
46.4422
0
VERTEX
8
CUT
10
225.6750
20
46.4841
0
VERTEX
8
CUT
10
225.6900
20
46.4971
0
VERTEX
8
CUT
10
225.7836
20
46.5702
0
VERTEX
8
CUT
10
225.8792
20
46.6306
0
VERTEX
8
CUT
10
225.9804
20
46.6812
0
VERTEX
8
CUT
10
226.0861
20
46.7215
0
VERTEX
8
CUT
10
226.1952
20
46.7510
0
VERTEX
8
CUT
10
226.3068
20
46.7696
0
VERTEX
8
CUT
10
226.4197
20
46.7769
0
VERTEX
8
CUT
10
226.5327
20
46.7730
0
VERTEX
8
CUT
10
226.6448
20
46.7578
0
VERTEX
8
CUT
10
226.7548
20
46.7316
0
VERTEX
8
CUT
10
226.8670
20
46.6927
0
VERTEX
8
CUT
10
226.8853
20
46.6853
0
VERTEX
8
CUT
10
226.9425
20
46.6605
0
VERTEX
8
CUT
10
227.7823
20
46.2718
0
VERTEX
8
CUT
10
227.8401
20
46.2432
0
VERTEX
8
CUT
10
227.8582
20
46.2337
0
VERTEX
8
CUT
10
227.9236
20
46.1948
0
VERTEX
8
CUT
10
228.1452
20
46.0775
0
VERTEX
8
CUT
10
228.3774
20
45.9831
0
VERTEX
8
CUT
10
228.6179
20
45.9124
0
VERTEX
8
CUT
10
228.8643
20
45.8661
0
VERTEX
8
CUT
10
229.1141
20
45.8448
0
VERTEX
8
CUT
10
229.3648
20
45.8485
0
VERTEX
8
CUT
10
229.6138
20
45.8774
0
VERTEX
8
CUT
10
229.8587
20
45.9310
0
VERTEX
8
CUT
10
230.0969
20
46.0089
0
VERTEX
8
CUT
10
230.3262
20
46.1103
0
VERTEX
8
CUT
10
230.5442
20
46.2341
0
VERTEX
8
CUT
10
230.7487
20
46.3791
0
VERTEX
8
CUT
10
230.9376
20
46.5439
0
VERTEX
8
CUT
10
231.1091
20
46.7268
0
VERTEX
8
CUT
10
231.2614
20
46.9259
0
VERTEX
8
CUT
10
231.3930
20
47.1393
0
VERTEX
8
CUT
10
231.5025
20
47.3648
0
VERTEX
8
CUT
10
231.5890
20
47.6001
0
VERTEX
8
CUT
10
231.6514
20
47.8429
0
VERTEX
8
CUT
10
231.6892
20
48.0907
0
VERTEX
8
CUT
10
231.7019
20
48.3411
0
VERTEX
8
CUT
10
231.7044
20
51.2391
0
VERTEX
8
CUT
10
231.6893
20
51.5154
0
VERTEX
8
CUT
10
231.6438
20
51.7883
0
VERTEX
8
CUT
10
231.5684
20
52.0545
0
VERTEX
8
CUT
10
231.1945
20
53.1413
0
VERTEX
8
CUT
10
231.1887
20
53.1598
0
VERTEX
8
CUT
10
231.1794
20
53.2001
0
VERTEX
8
CUT
10
231.1914
20
53.2397
0
VERTEX
8
CUT
10
231.1985
20
53.2577
0
VERTEX
8
CUT
10
231.2351
20
53.3442
0
VERTEX
8
CUT
10
231.3187
20
53.5725
0
VERTEX
8
CUT
10
231.3797
20
53.8078
0
VERTEX
8
CUT
10
231.4177
20
54.0479
0
VERTEX
8
CUT
10
231.4321
20
54.2905
0
VERTEX
8
CUT
10
231.4379
20
54.8373
0
VERTEX
8
CUT
10
231.4276
20
55.0930
0
VERTEX
8
CUT
10
231.3911
20
55.3463
0
VERTEX
8
CUT
10
231.3290
20
55.5946
0
VERTEX
8
CUT
10
231.2077
20
55.9913
0
VERTEX
8
CUT
10
231.2031
20
56.0077
0
VERTEX
8
CUT
10
231.1956
20
56.0438
0
VERTEX
8
CUT
10
231.1914
20
56.0805
0
VERTEX
8
CUT
10
231.1906
20
56.0970
0
VERTEX
8
CUT
10
231.1568
20
57.4966
0
VERTEX
8
CUT
10
231.1346
20
57.7742
0
VERTEX
8
CUT
10
231.0816
20
58.0476
0
VERTEX
8
CUT
10
230.9986
20
58.3134
0
VERTEX
8
CUT
10
230.9382
20
58.4745
0
VERTEX
8
CUT
10
230.9314
20
58.4943
0
VERTEX
8
CUT
10
230.9204
20
58.5381
0
VERTEX
8
CUT
10
230.9144
20
58.5829
0
VERTEX
8
CUT
10
230.9133
20
58.6038
0
VERTEX
8
CUT
10
230.8787
20
60.1341
0
VERTEX
8
CUT
10
230.8602
20
60.3862
0
VERTEX
8
CUT
10
230.8164
20
60.6351
0
VERTEX
8
CUT
10
230.3850
20
62.5208
0
VERTEX
8
CUT
10
230.3817
20
62.5371
0
VERTEX
8
CUT
10
230.3719
20
62.6082
0
VERTEX
8
CUT
10
230.3707
20
62.6248
0
VERTEX
8
CUT
10
230.3325
20
63.4143
0
VERTEX
8
CUT
10
230.3064
20
63.6739
0
VERTEX
8
CUT
10
230.2533
20
63.9293
0
VERTEX
8
CUT
10
230.1738
20
64.1778
0
VERTEX
8
CUT
10
230.0690
20
64.4167
0
VERTEX
8
CUT
10
229.9398
20
64.6433
0
VERTEX
8
CUT
10
229.0004
20
66.1079
0
VERTEX
8
CUT
10
228.9909
20
66.1234
0
VERTEX
8
CUT
10
228.9734
20
66.1578
0
VERTEX
8
CUT
10
228.9816
20
66.1955
0
VERTEX
8
CUT
10
228.9868
20
66.2129
0
VERTEX
8
CUT
10
229.0923
20
66.5388
0
VERTEX
8
CUT
10
229.1605
20
66.7952
0
VERTEX
8
CUT
10
229.2012
20
67.0573
0
VERTEX
8
CUT
10
229.2138
20
67.3223
0
VERTEX
8
CUT
10
229.2054
20
68.9028
0
VERTEX
8
CUT
10
229.1912
20
69.1559
0
VERTEX
8
CUT
10
229.1514
20
69.4063
0
VERTEX
8
CUT
10
229.0865
20
69.6514
0
VERTEX
8
CUT
10
228.4549
20
71.6251
0
VERTEX
8
CUT
10
228.4534
20
71.6300
0
VERTEX
8
CUT
10
228.4422
20
71.6776
0
VERTEX
8
CUT
10
228.4386
20
71.7027
0
VERTEX
8
CUT
10
228.4366
20
71.7253
0
VERTEX
8
CUT
10
228.3952
20
72.3809
0
VERTEX
8
CUT
10
228.3707
20
72.6058
0
VERTEX
8
CUT
10
228.3261
20
72.8276
0
VERTEX
8
CUT
10
227.8646
20
74.6806
0
VERTEX
8
CUT
10
227.7630
20
74.9971
0
VERTEX
8
CUT
10
226.8076
20
77.4090
0
VERTEX
8
CUT
10
226.8007
20
77.4277
0
VERTEX
8
CUT
10
226.7893
20
77.4689
0
VERTEX
8
CUT
10
226.7822
20
77.5112
0
VERTEX
8
CUT
10
226.7805
20
77.5310
0
VERTEX
8
CUT
10
226.7352
20
78.2992
0
VERTEX
8
CUT
10
226.7131
20
78.5142
0
VERTEX
8
CUT
10
226.6726
20
78.7264
0
VERTEX
8
CUT
10
226.6139
20
78.9343
0
VERTEX
8
CUT
10
226.5375
20
79.1364
0
VERTEX
8
CUT
10
225.1569
20
82.3588
0
VERTEX
8
CUT
10
225.1507
20
82.3742
0
VERTEX
8
CUT
10
225.1284
20
82.4424
0
VERTEX
8
CUT
10
225.1243
20
82.4585
0
VERTEX
8
CUT
10
224.8591
20
83.6009
0
VERTEX
8
CUT
10
224.8013
20
83.8086
0
VERTEX
8
CUT
10
224.7259
20
84.0105
0
VERTEX
8
CUT
10
224.6334
20
84.2052
0
VERTEX
8
CUT
10
224.5244
20
84.3911
0
VERTEX
8
CUT
10
224.1039
20
85.0427
0
VERTEX
8
CUT
10
223.9589
20
85.2446
0
VERTEX
8
CUT
10
223.7946
20
85.4311
0
VERTEX
8
CUT
10
223.6126
20
85.6004
0
VERTEX
8
CUT
10
223.4146
20
85.7507
0
VERTEX
8
CUT
10
223.2028
20
85.8806
0
VERTEX
8
CUT
10
222.9790
20
85.9889
0
VERTEX
8
CUT
10
222.7457
20
86.0744
0
VERTEX
8
CUT
10
222.5965
20
86.1128
0
VERTEX
8
CUT
10
222.6267
20
86.1620
0
VERTEX
8
CUT
10
222.7324
20
86.3798
0
VERTEX
8
CUT
10
222.8165
20
86.6068
0
VERTEX
8
CUT
10
222.8784
20
86.8409
0
VERTEX
8
CUT
10
222.9172
20
87.0798
0
VERTEX
8
CUT
10
222.9328
20
87.3214
0
VERTEX
8
CUT
10
222.9250
20
87.5634
0
VERTEX
8
CUT
10
222.8937
20
87.8035
0
VERTEX
8
CUT
10
222.8394
20
88.0394
0
VERTEX
8
CUT
10
222.7626
20
88.2690
0
VERTEX
8
CUT
10
222.6638
20
88.4900
0
VERTEX
8
CUT
10
222.6480
20
88.5213
0
VERTEX
8
CUT
10
222.6399
20
88.5384
0
VERTEX
8
CUT
10
222.6253
20
88.5764
0
VERTEX
8
CUT
10
222.6186
20
88.6166
0
VERTEX
8
CUT
10
222.6169
20
88.6355
0
VERTEX
8
CUT
10
222.5797
20
89.2198
0
VERTEX
8
CUT
10
222.5437
20
89.5118
0
VERTEX
8
CUT
10
222.4738
20
89.7975
0
VERTEX
8
CUT
10
222.0714
20
91.1025
0
VERTEX
8
CUT
10
222.0666
20
91.1194
0
VERTEX
8
CUT
10
222.0589
20
91.1564
0
VERTEX
8
CUT
10
222.0547
20
91.1940
0
VERTEX
8
CUT
10
222.0539
20
91.2116
0
VERTEX
8
CUT
10
222.0321
20
92.3932
0
VERTEX
8
CUT
10
222.0322
20
92.4099
0
VERTEX
8
CUT
10
222.0347
20
92.4459
0
VERTEX
8
CUT
10
222.0405
20
92.4818
0
VERTEX
8
CUT
10
222.0441
20
92.4976
0
VERTEX
8
CUT
10
222.2194
20
93.1881
0
VERTEX
8
CUT
10
222.2713
20
93.4510
0
VERTEX
8
CUT
10
222.2947
20
93.7179
0
VERTEX
8
CUT
10
222.3416
20
95.0937
0
VERTEX
8
CUT
10
222.3429
20
95.1145
0
VERTEX
8
CUT
10
222.3494
20
95.1590
0
VERTEX
8
CUT
10
222.3608
20
95.2025
0
VERTEX
8
CUT
10
222.3678
20
95.2222
0
VERTEX
8
CUT
10
222.7386
20
96.1823
0
VERTEX
8
CUT
10
222.8197
20
96.4302
0
VERTEX
8
CUT
10
222.8746
20
96.6852
0
VERTEX
8
CUT
10
222.9402
20
97.0920
0
VERTEX
8
CUT
10
222.9696
20
97.3793
0
VERTEX
8
CUT
10
222.9656
20
97.6681
0
VERTEX
8
CUT
10
222.8672
20
99.0437
0
VERTEX
8
CUT
10
222.8311
20
99.3243
0
VERTEX
8
CUT
10
222.7635
20
99.5989
0
VERTEX
8
CUT
10
222.6654
20
99.8642
0
VERTEX
8
CUT
10
222.6360
20
99.9317
0
VERTEX
8
CUT
10
222.6295
20
99.9474
0
VERTEX
8
CUT
10
222.6180
20
99.9822
0
VERTEX
8
CUT
10
222.6129
20
100.0181
0
VERTEX
8
CUT
10
222.6117
20
100.0353
0
VERTEX
8
CUT
10
222.5674
20
100.9504
0
VERTEX
8
CUT
10
222.5404
20
101.2152
0
VERTEX
8
CUT
10
222.4855
20
101.4756
0
VERTEX
8
CUT
10
222.4031
20
101.7286
0
VERTEX
8
CUT
10
222.2943
20
101.9715
0
VERTEX
8
CUT
10
221.8382
20
102.8598
0
VERTEX
8
CUT
10
221.8300
20
102.8768
0
VERTEX
8
CUT
10
221.8003
20
102.9524
0
VERTEX
8
CUT
10
221.7948
20
102.9704
0
VERTEX
8
CUT
10
221.5091
20
103.9856
0
VERTEX
8
CUT
10
221.4447
20
104.1826
0
VERTEX
8
CUT
10
221.3642
20
104.3736
0
VERTEX
8
CUT
10
221.2682
20
104.5573
0
VERTEX
8
CUT
10
220.1909
20
106.4253
0
VERTEX
8
CUT
10
220.1819
20
106.4418
0
VERTEX
8
CUT
10
220.1653
20
106.4787
0
VERTEX
8
CUT
10
220.1565
20
106.5182
0
VERTEX
8
CUT
10
220.1537
20
106.5368
0
VERTEX
8
CUT
10
220.1039
20
106.9471
0
VERTEX
8
CUT
10
220.0695
20
107.1556
0
VERTEX
8
CUT
10
220.0177
20
107.3604
0
VERTEX
8
CUT
10
219.9488
20
107.5601
0
VERTEX
8
CUT
10
219.6237
20
108.3873
0
VERTEX
8
CUT
10
219.5225
20
108.6115
0
VERTEX
8
CUT
10
219.3999
20
108.8247
0
VERTEX
8
CUT
10
219.2569
20
109.0248
0
VERTEX
8
CUT
10
219.0949
20
109.2099
0
VERTEX
8
CUT
10
218.9155
20
109.3781
0
VERTEX
8
CUT
10
218.7204
20
109.5279
0
VERTEX
8
CUT
10
218.5116
20
109.6579
0
VERTEX
8
CUT
10
218.2910
20
109.7666
0
VERTEX
8
CUT
10
218.0608
20
109.8532
0
VERTEX
8
CUT
10
217.8232
20
109.9168
0
VERTEX
8
CUT
10
217.5805
20
109.9566
0
VERTEX
8
CUT
10
217.3351
20
109.9725
0
VERTEX
8
CUT
10
217.0893
20
109.9641
0
VERTEX
8
CUT
10
216.8455
20
109.9317
0
VERTEX
8
CUT
10
216.6061
20
109.8754
0
VERTEX
8
CUT
10
216.3733
20
109.7959
0
VERTEX
8
CUT
10
216.1495
20
109.6939
0
VERTEX
8
CUT
10
215.5551
20
109.3868
0
VERTEX
8
CUT
10
215.3725
20
109.2825
0
VERTEX
8
CUT
10
215.1993
20
109.1633
0
VERTEX
8
CUT
10
215.0367
20
109.0299
0
VERTEX
8
CUT
10
214.9506
20
108.9529
0
VERTEX
8
CUT
10
214.7867
20
108.7923
0
VERTEX
8
CUT
10
214.6382
20
108.6174
0
VERTEX
8
CUT
10
212.9195
20
106.3933
0
VERTEX
8
CUT
10
212.7811
20
106.1950
0
VERTEX
8
CUT
10
212.6625
20
105.9842
0
VERTEX
8
CUT
10
211.4535
20
103.5706
0
VERTEX
8
CUT
10
211.3154
20
103.2364
0
VERTEX
8
CUT
10
210.8879
20
101.9446
0
VERTEX
8
CUT
10
210.8250
20
101.7199
0
VERTEX
8
CUT
10
210.7833
20
101.4904
0
VERTEX
8
CUT
10
210.5365
20
99.6439
0
VERTEX
8
CUT
10
210.5183
20
99.4514
0
VERTEX
8
CUT
10
210.5151
20
99.2582
0
VERTEX
8
CUT
10
210.5276
20
98.6819
0
VERTEX
8
CUT
10
210.5482
20
98.4122
0
VERTEX
8
CUT
10
210.5977
20
98.1463
0
VERTEX
8
CUT
10
210.7688
20
97.4418
0
VERTEX
8
CUT
10
210.8769
20
97.1038
0
VERTEX
8
CUT
10
211.8100
20
94.7700
0
VERTEX
8
CUT
10
211.9334
20
94.5070
0
VERTEX
8
CUT
10
212.0864
20
94.2600
0
VERTEX
8
CUT
10
213.8472
20
91.7562
0
VERTEX
8
CUT
10
213.9800
20
91.5838
0
VERTEX
8
CUT
10
217.5955
20
87.2914
0
VERTEX
8
CUT
10
217.6067
20
87.2774
0
VERTEX
8
CUT
10
217.6506
20
87.2139
0
VERTEX
8
CUT
10
217.6597
20
87.1985
0
VERTEX
8
CUT
10
218.2512
20
86.1409
0
VERTEX
8
CUT
10
218.3795
20
85.9356
0
VERTEX
8
CUT
10
218.5270
20
85.7437
0
VERTEX
8
CUT
10
218.6925
20
85.5669
0
VERTEX
8
CUT
10
218.8742
20
85.4069
0
VERTEX
8
CUT
10
219.0705
20
85.2653
0
VERTEX
8
CUT
10
219.2797
20
85.1433
0
VERTEX
8
CUT
10
219.4996
20
85.0422
0
VERTEX
8
CUT
10
219.7283
20
84.9628
0
VERTEX
8
CUT
10
219.8408
20
84.9355
0
VERTEX
8
CUT
10
219.7856
20
84.8412
0
VERTEX
8
CUT
10
219.6820
20
84.6153
0
VERTEX
8
CUT
10
219.6013
20
84.3802
0
VERTEX
8
CUT
10
219.5444
20
84.1383
0
VERTEX
8
CUT
10
219.5117
20
83.8919
0
VERTEX
8
CUT
10
219.5037
20
83.6435
0
VERTEX
8
CUT
10
219.5204
20
83.3955
0
VERTEX
8
CUT
10
219.5616
20
83.1504
0
VERTEX
8
CUT
10
219.6270
20
82.9106
0
VERTEX
8
CUT
10
219.8706
20
82.1653
0
VERTEX
8
CUT
10
219.8762
20
82.1465
0
VERTEX
8
CUT
10
219.8850
20
82.1054
0
VERTEX
8
CUT
10
219.8895
20
82.0635
0
VERTEX
8
CUT
10
219.8901
20
82.0440
0
VERTEX
8
CUT
10
219.9033
20
77.9804
0
VERTEX
8
CUT
10
219.9030
20
77.9636
0
VERTEX
8
CUT
10
219.8998
20
77.9272
0
VERTEX
8
CUT
10
219.8934
20
77.8912
0
VERTEX
8
CUT
10
219.8894
20
77.8753
0
VERTEX
8
CUT
10
219.3142
20
75.7668
0
VERTEX
8
CUT
10
219.3087
20
75.7485
0
VERTEX
8
CUT
10
219.2790
20
75.6714
0
VERTEX
8
CUT
10
219.2707
20
75.6541
0
VERTEX
8
CUT
10
218.7664
20
74.6609
0
VERTEX
8
CUT
10
218.7585
20
74.6462
0
VERTEX
8
CUT
10
218.7204
20
74.5853
0
VERTEX
8
CUT
10
218.7107
20
74.5718
0
VERTEX
8
CUT
10
217.7800
20
73.3392
0
VERTEX
8
CUT
10
217.7517
20
73.3032
0
VERTEX
8
CUT
10
217.7221
20
73.2683
0
VERTEX
8
CUT
10
212.9788
20
67.8991
0
VERTEX
8
CUT
10
212.8481
20
67.7381
0
VERTEX
8
CUT
10
212.7311
20
67.5669
0
VERTEX
8
CUT
10
212.6288
20
67.3865
0
VERTEX
8
CUT
10
212.4222
20
66.9845
0
VERTEX
8
CUT
10
212.3270
20
66.7763
0
VERTEX
8
CUT
10
212.2512
20
66.5602
0
VERTEX
8
CUT
10
212.1956
20
66.3382
0
VERTEX
8
CUT
10
212.1604
20
66.1119
0
VERTEX
8
CUT
10
212.1371
20
65.8973
0
VERTEX
8
CUT
10
212.1340
20
65.8752
0
VERTEX
8
CUT
10
212.1124
20
65.7814
0
VERTEX
8
CUT
10
212.1055
20
65.7602
0
VERTEX
8
CUT
10
211.9109
20
65.2199
0
VERTEX
8
CUT
10
211.8365
20
64.9744
0
VERTEX
8
CUT
10
211.7877
20
64.7225
0
VERTEX
8
CUT
10
211.7649
20
64.4670
0
VERTEX
8
CUT
10
211.7684
20
64.2104
0
VERTEX
8
CUT
10
211.7982
20
63.9556
0
VERTEX
8
CUT
10
211.8540
20
63.7052
0
VERTEX
8
CUT
10
211.9351
20
63.4618
0
VERTEX
8
CUT
10
212.0407
20
63.2280
0
VERTEX
8
CUT
10
212.1047
20
63.1039
0
VERTEX
8
CUT
10
212.1120
20
63.0889
0
VERTEX
8
CUT
10
212.1256
20
63.0555
0
VERTEX
8
CUT
10
212.1330
20
63.0207
0
VERTEX
8
CUT
10
212.1353
20
63.0039
0
VERTEX
8
CUT
10
212.1696
20
62.7187
0
VERTEX
8
CUT
10
212.2048
20
62.5044
0
VERTEX
8
CUT
10
212.2586
20
62.2940
0
VERTEX
8
CUT
10
212.3303
20
62.0890
0
VERTEX
8
CUT
10
212.4196
20
61.8910
0
VERTEX
8
CUT
10
213.2032
20
60.3376
0
VERTEX
8
CUT
10
213.3124
20
60.1432
0
VERTEX
8
CUT
10
213.4386
20
59.9592
0
VERTEX
8
CUT
10
214.1261
20
59.0466
0
VERTEX
8
CUT
10
214.2444
20
58.9013
0
VERTEX
8
CUT
10
214.3732
20
58.7652
0
VERTEX
8
CUT
10
215.0581
20
58.0942
0
VERTEX
8
CUT
10
215.2717
20
57.9075
0
VERTEX
8
CUT
10
215.5049
20
57.7462
0
VERTEX
8
CUT
10
219.2512
20
55.4587
0
VERTEX
8
CUT
10
219.2664
20
55.4489
0
VERTEX
8
CUT
10
219.2975
20
55.4255
0
VERTEX
8
CUT
10
219.3235
20
55.3966
0
VERTEX
8
CUT
10
219.3347
20
55.3823
0
VERTEX
8
CUT
10
220.9298
20
53.2230
0
VERTEX
8
CUT
10
220.9394
20
53.2094
0
VERTEX
8
CUT
10
220.9581
20
53.1788
0
VERTEX
8
CUT
10
220.9680
20
53.1442
0
VERTEX
8
CUT
10
220.9714
20
53.1284
0
VERTEX
8
CUT
10
221.2370
20
51.7584
0
VERTEX
8
CUT
10
221.2398
20
51.7415
0
VERTEX
8
CUT
10
221.2435
20
51.7047
0
VERTEX
8
CUT
10
221.2338
20
51.6695
0
VERTEX
8
CUT
10
221.2280
20
51.6531
0
VERTEX
8
CUT
10
221.2009
20
51.5813
0
VERTEX
8
CUT
10
221.1214
20
51.3324
0
VERTEX
8
CUT
10
221.0684
20
51.0765
0
VERTEX
8
CUT
10
221.0424
20
50.8166
0
VERTEX
8
CUT
10
220.9801
20
49.5064
0
VERTEX
8
CUT
10
220.9789
20
49.4891
0
VERTEX
8
CUT
10
220.9737
20
49.4522
0
VERTEX
8
CUT
10
220.9554
20
49.4198
0
VERTEX
8
CUT
10
220.9458
20
49.4053
0
VERTEX
8
CUT
10
220.2084
20
48.3415
0
VERTEX
8
CUT
10
220.1975
20
48.3267
0
VERTEX
8
CUT
10
220.1461
20
48.2661
0
VERTEX
8
CUT
10
220.1332
20
48.2530
0
VERTEX
8
CUT
10
218.8178
20
46.9800
0
VERTEX
8
CUT
10
218.8036
20
46.9669
0
VERTEX
8
CUT
10
218.7709
20
46.9413
0
VERTEX
8
CUT
10
218.7319
20
46.9269
0
VERTEX
8
CUT
10
218.7133
20
46.9216
0
VERTEX
8
CUT
10
217.7398
20
46.6733
0
VERTEX
8
CUT
10
217.7347
20
46.6721
0
VERTEX
8
CUT
10
217.6853
20
46.6636
0
VERTEX
8
CUT
10
217.6595
20
46.6615
0
VERTEX
8
CUT
10
217.6362
20
46.6610
0
VERTEX
8
CUT
10
216.4109
20
46.6645
0
VERTEX
8
CUT
10
216.1706
20
46.6536
0
VERTEX
8
CUT
10
215.9325
20
46.6196
0
VERTEX
8
CUT
10
215.6987
20
46.5629
0
VERTEX
8
CUT
10
215.4715
20
46.4841
0
VERTEX
8
CUT
10
215.2529
20
46.3837
0
VERTEX
8
CUT
10
215.0449
20
46.2628
0
VERTEX
8
CUT
10
214.8495
20
46.1225
0
VERTEX
8
CUT
10
214.6685
20
45.9640
0
VERTEX
8
CUT
10
214.5036
20
45.7889
0
VERTEX
8
CUT
10
214.3563
20
45.5987
0
VERTEX
8
CUT
10
214.2279
20
45.3953
0
VERTEX
8
CUT
10
214.1197
20
45.1805
0
VERTEX
8
CUT
10
214.0326
20
44.9562
0
VERTEX
8
CUT
10
213.9675
20
44.7246
0
VERTEX
8
CUT
10
213.9592
20
44.6886
0
VERTEX
8
CUT
10
213.9206
20
44.5762
0
VERTEX
8
CUT
10
213.8679
20
44.4630
0
VERTEX
8
CUT
10
213.8582
20
44.4446
0
VERTEX
8
CUT
10
213.8260
20
44.3876
0
VERTEX
8
CUT
10
213.5423
20
43.9147
0
VERTEX
8
CUT
10
213.5090
20
43.8650
0
VERTEX
8
CUT
10
213.4543
20
43.8895
0
VERTEX
8
CUT
10
213.2484
20
43.9944
0
VERTEX
8
CUT
10
213.2289
20
44.0051
0
VERTEX
8
CUT
10
213.1907
20
44.0303
0
VERTEX
8
CUT
10
213.1556
20
44.0596
0
VERTEX
8
CUT
10
213.1398
20
44.0752
0
VERTEX
8
CUT
10
212.3785
20
44.8710
0
VERTEX
8
CUT
10
212.2036
20
45.0370
0
VERTEX
8
CUT
10
212.0135
20
45.1854
0
VERTEX
8
CUT
10
211.8100
20
45.3147
0
VERTEX
8
CUT
10
211.5950
20
45.4239
0
VERTEX
8
CUT
10
211.3704
20
45.5119
0
VERTEX
8
CUT
10
211.1385
20
45.5778
0
VERTEX
8
CUT
10
210.9012
20
45.6210
0
VERTEX
8
CUT
10
210.6609
20
45.6412
0
VERTEX
8
CUT
10
210.4198
20
45.6381
0
VERTEX
8
CUT
10
210.1800
20
45.6118
0
VERTEX
8
CUT
10
209.9440
20
45.5626
0
VERTEX
8
CUT
10
209.7137
20
45.4908
0
VERTEX
8
CUT
10
209.4915
20
45.3972
0
VERTEX
8
CUT
10
209.2793
20
45.2826
0
VERTEX
8
CUT
10
209.0792
20
45.1481
0
VERTEX
8
CUT
10
208.8929
20
44.9949
0
VERTEX
8
CUT
10
208.7223
20
44.8245
0
VERTEX
8
CUT
10
208.5688
20
44.6384
0
VERTEX
8
CUT
10
208.4340
20
44.4384
0
VERTEX
8
CUT
10
208.3191
20
44.2264
0
VERTEX
8
CUT
10
208.2252
20
44.0043
0
VERTEX
8
CUT
10
208.1531
20
43.7742
0
VERTEX
8
CUT
10
208.0295
20
43.3005
0
VERTEX
8
CUT
10
208.0237
20
43.2804
0
VERTEX
8
CUT
10
208.0085
20
43.2402
0
VERTEX
8
CUT
10
207.9852
20
43.2040
0
VERTEX
8
CUT
10
207.9725
20
43.1874
0
VERTEX
8
CUT
10
207.7135
20
42.8660
0
VERTEX
8
CUT
10
207.7016
20
42.8519
0
VERTEX
8
CUT
10
207.6752
20
42.8248
0
VERTEX
8
CUT
10
207.6424
20
42.8060
0
VERTEX
8
CUT
10
207.6258
20
42.7979
0
VERTEX
8
CUT
10
207.4351
20
42.7111
0
VERTEX
8
CUT
10
207.2162
20
42.5982
0
SEQEND
0
POLYLINE
8
CUT
66
1
70
1
10
0.0
20
0.0
30
0.0
0
VERTEX
8
CUT
10
178.0706
20
80.3063
0
VERTEX
8
CUT
10
178.1228
20
80.0242
0
VERTEX
8
CUT
10
178.5803
20
78.1555
0
VERTEX
8
CUT
10
178.6883
20
77.8194
0
VERTEX
8
CUT
10
179.1779
20
76.5986
0
VERTEX
8
CUT
10
179.2812
20
76.3740
0
VERTEX
8
CUT
10
182.9113
20
69.4075
0
VERTEX
8
CUT
10
183.0301
20
69.2036
0
VERTEX
8
CUT
10
183.1676
20
69.0118
0
VERTEX
8
CUT
10
183.8463
20
68.1538
0
VERTEX
8
CUT
10
183.8489
20
68.1503
0
VERTEX
8
CUT
10
184.5828
20
67.2228
0
VERTEX
8
CUT
10
184.5941
20
67.2077
0
VERTEX
8
CUT
10
184.6367
20
67.1417
0
VERTEX
8
CUT
10
184.6459
20
67.1251
0
VERTEX
8
CUT
10
184.9232
20
66.5901
0
VERTEX
8
CUT
10
185.0324
20
66.4002
0
VERTEX
8
CUT
10
185.1578
20
66.2206
0
VERTEX
8
CUT
10
185.2985
20
66.0527
0
VERTEX
8
CUT
10
185.5071
20
65.8248
0
VERTEX
8
CUT
10
185.5320
20
65.7960
0
VERTEX
8
CUT
10
186.9222
20
64.2785
0
VERTEX
8
CUT
10
186.9354
20
64.2634
0
VERTEX
8
CUT
10
186.9863
20
64.1946
0
VERTEX
8
CUT
10
186.9973
20
64.1770
0
VERTEX
8
CUT
10
187.8723
20
62.6934
0
VERTEX
8
CUT
10
187.9921
20
62.5093
0
VERTEX
8
CUT
10
188.1275
20
62.3365
0
VERTEX
8
CUT
10
189.0111
20
61.3055
0
VERTEX
8
CUT
10
189.0243
20
61.2894
0
VERTEX
8
CUT
10
189.0486
20
61.2541
0
VERTEX
8
CUT
10
189.0692
20
61.2164
0
VERTEX
8
CUT
10
189.0776
20
61.1974
0
VERTEX
8
CUT
10
189.6013
20
59.9374
0
VERTEX
8
CUT
10
189.6938
20
59.7397
0
VERTEX
8
CUT
10
189.8031
20
59.5509
0
VERTEX
8
CUT
10
189.9285
20
59.3723
0
VERTEX
8
CUT
10
190.0690
20
59.2053
0
VERTEX
8
CUT
10
191.2555
20
57.9141
0
VERTEX
8
CUT
10
191.3067
20
57.8546
0
VERTEX
8
CUT
10
191.3541
20
57.7919
0
VERTEX
8
CUT
10
192.4155
20
56.2884
0
VERTEX
8
CUT
10
192.4483
20
56.2368
0
VERTEX
8
CUT
10
192.4852
20
56.1414
0
VERTEX
8
CUT
10
192.6131
20
55.8628
0
VERTEX
8
CUT
10
192.7741
20
55.6020
0
VERTEX
8
CUT
10
196.3894
20
50.4790
0
VERTEX
8
CUT
10
196.5585
20
50.2652
0
VERTEX
8
CUT
10
198.5010
20
48.0666
0
VERTEX
8
CUT
10
198.6759
20
47.8875
0
VERTEX
8
CUT
10
198.8679
20
47.7268
0
VERTEX
8
CUT
10
199.0750
20
47.5861
0
VERTEX
8
CUT
10
199.2951
20
47.4669
0
VERTEX
8
CUT
10
199.5260
20
47.3702
0
VERTEX
8
CUT
10
199.7655
20
47.2972
0
VERTEX
8
CUT
10
200.0110
20
47.2484
0
VERTEX
8
CUT
10
200.2602
20
47.2245
0
VERTEX
8
CUT
10
200.5105
20
47.2256
0
VERTEX
8
CUT
10
200.7595
20
47.2517
0
VERTEX
8
CUT
10
201.0046
20
47.3026
0
VERTEX
8
CUT
10
201.2434
20
47.3777
0
VERTEX
8
CUT
10
201.4735
20
47.4764
0
VERTEX
8
CUT
10
201.6926
20
47.5976
0
VERTEX
8
CUT
10
201.8984
20
47.7400
0
VERTEX
8
CUT
10
202.0898
20
47.8872
0
VERTEX
8
CUT
10
202.1476
20
47.9291
0
VERTEX
8
CUT
10
202.1663
20
47.9418
0
VERTEX
8
CUT
10
202.2884
20
48.0153
0
VERTEX
8
CUT
10
202.3085
20
48.0258
0
VERTEX
8
CUT
10
202.3725
20
48.0572
0
VERTEX
8
CUT
10
202.6978
20
48.2052
0
VERTEX
8
CUT
10
202.7526
20
48.2271
0
VERTEX
8
CUT
10
202.8535
20
48.2366
0
VERTEX
8
CUT
10
202.9377
20
48.2410
0
VERTEX
8
CUT
10
203.2006
20
48.2830
0
VERTEX
8
CUT
10
203.4576
20
48.3527
0
VERTEX
8
CUT
10
203.5234
20
48.3744
0
VERTEX
8
CUT
10
203.5431
20
48.3803
0
VERTEX
8
CUT
10
203.5850
20
48.3894
0
VERTEX
8
CUT
10
203.6271
20
48.3940
0
VERTEX
8
CUT
10
203.7830
20
48.4021
0
VERTEX
8
CUT
10
204.0270
20
48.4393
0
VERTEX
8
CUT
10
204.2662
20
48.5004
0
VERTEX
8
CUT
10
204.4983
20
48.5847
0
VERTEX
8
CUT
10
204.7208
20
48.6916
0
VERTEX
8
CUT
10
204.9318
20
48.8198
0
VERTEX
8
CUT
10
205.1291
20
48.9683
0
VERTEX
8
CUT
10
205.3107
20
49.1354
0
VERTEX
8
CUT
10
205.4750
20
49.3197
0
VERTEX
8
CUT
10
205.6203
20
49.5193
0
VERTEX
8
CUT
10
205.7453
20
49.7322
0
VERTEX
8
CUT
10
205.8486
20
49.9565
0
VERTEX
8
CUT
10
205.9293
20
50.1898
0
VERTEX
8
CUT
10
205.9865
20
50.4299
0
VERTEX
8
CUT
10
206.0199
20
50.6746
0
VERTEX
8
CUT
10
206.0289
20
50.9213
0
VERTEX
8
CUT
10
206.0135
20
51.1677
0
VERTEX
8
CUT
10
205.9739
20
51.4114
0
VERTEX
8
CUT
10
205.9105
20
51.6500
0
VERTEX
8
CUT
10
205.8239
20
51.8812
0
VERTEX
8
CUT
10
205.7149
20
52.1027
0
VERTEX
8
CUT
10
205.5845
20
52.3123
0
VERTEX
8
CUT
10
205.2895
20
52.7384
0
VERTEX
8
CUT
10
204.1511
20
54.3826
0
VERTEX
8
CUT
10
204.0204
20
54.5550
0
VERTEX
8
CUT
10
203.2094
20
55.5333
0
VERTEX
8
CUT
10
201.9537
20
57.0481
0
VERTEX
8
CUT
10
201.9410
20
57.0643
0
VERTEX
8
CUT
10
201.9174
20
57.0997
0
VERTEX
8
CUT
10
201.8976
20
57.1373
0
VERTEX
8
CUT
10
201.8895
20
57.1562
0
VERTEX
8
CUT
10
201.3337
20
58.5451
0
VERTEX
8
CUT
10
201.2451
20
58.7415
0
VERTEX
8
CUT
10
201.1399
20
58.9295
0
VERTEX
8
CUT
10
199.6155
20
61.3988
0
VERTEX
8
CUT
10
199.5879
20
61.4458
0
VERTEX
8
CUT
10
199.5624
20
61.4941
0
VERTEX
8
CUT
10
198.4628
20
63.6919
0
VERTEX
8
CUT
10
198.4549
20
63.7085
0
VERTEX
8
CUT
10
198.4273
20
63.7794
0
VERTEX
8
CUT
10
198.4218
20
63.7970
0
VERTEX
8
CUT
10
197.8101
20
65.9334
0
VERTEX
8
CUT
10
197.8054
20
65.9514
0
VERTEX
8
CUT
10
197.7984
20
65.9890
0
VERTEX
8
CUT
10
197.7948
20
66.0271
0
VERTEX
8
CUT
10
197.7944
20
66.0457
0
VERTEX
8
CUT
10
197.7956
20
66.9076
0
VERTEX
8
CUT
10
197.7962
20
66.9285
0
VERTEX
8
CUT
10
197.8008
20
66.9712
0
VERTEX
8
CUT
10
197.8098
20
67.0132
0
VERTEX
8
CUT
10
197.8158
20
67.0331
0
VERTEX
8
CUT
10
198.1251
20
67.9774
0
VERTEX
8
CUT
10
198.1320
20
67.9969
0
VERTEX
8
CUT
10
198.1669
20
68.0749
0
VERTEX
8
CUT
10
198.1768
20
68.0931
0
VERTEX
8
CUT
10
198.5440
20
68.7279
0
VERTEX
8
CUT
10
198.5527
20
68.7422
0
VERTEX
8
CUT
10
198.5724
20
68.7705
0
VERTEX
8
CUT
10
198.5945
20
68.7972
0
VERTEX
8
CUT
10
198.6057
20
68.8090
0
VERTEX
8
CUT
10
199.7120
20
69.9355
0
VERTEX
8
CUT
10
199.7286
20
69.9515
0
VERTEX
8
CUT
10
199.8029
20
70.0113
0
VERTEX
8
CUT
10
199.8220
20
70.0241
0
VERTEX
8
CUT
10
200.5960
20
70.5119
0
VERTEX
8
CUT
10
200.6163
20
70.5239
0
VERTEX
8
CUT
10
200.7048
20
70.5659
0
VERTEX
8
CUT
10
200.7270
20
70.5741
0
VERTEX
8
CUT
10
202.4667
20
71.1582
0
VERTEX
8
CUT
10
202.4717
20
71.1598
0
VERTEX
8
CUT
10
202.5461
20
71.1788
0
VERTEX
8
CUT
10
202.5639
20
71.1822
0
VERTEX
8
CUT
10
204.3994
20
71.4930
0
VERTEX
8
CUT
10
204.6429
20
71.5469
0
VERTEX
8
CUT
10
204.8799
20
71.6247
0
VERTEX
8
CUT
10
205.1079
20
71.7258
0
VERTEX
8
CUT
10
206.7283
20
72.5432
0
VERTEX
8
CUT
10
206.9437
20
72.6656
0
VERTEX
8
CUT
10
207.1459
20
72.8087
0
VERTEX
8
CUT
10
207.3329
20
72.9711
0
VERTEX
8
CUT
10
207.9245
20
73.5386
0
VERTEX
8
CUT
10
208.0888
20
73.7120
0
VERTEX
8
CUT
10
208.2358
20
73.9003
0
VERTEX
8
CUT
10
208.6645
20
74.5072
0
VERTEX
8
CUT
10
208.8233
20
74.7635
0
VERTEX
8
CUT
10
208.9501
20
75.0370
0
VERTEX
8
CUT
10
209.2657
20
75.8422
0
VERTEX
8
CUT
10
209.3412
20
76.0651
0
VERTEX
8
CUT
10
209.3954
20
76.2942
0
VERTEX
8
CUT
10
209.4278
20
76.5274
0
VERTEX
8
CUT
10
209.4382
20
76.7626
0
VERTEX
8
CUT
10
209.4330
20
78.4088
0
VERTEX
8
CUT
10
209.4183
20
78.6715
0
VERTEX
8
CUT
10
209.3761
20
78.9311
0
VERTEX
8
CUT
10
209.3068
20
79.1849
0
VERTEX
8
CUT
10
209.2113
20
79.4300
0
VERTEX
8
CUT
10
208.1169
20
81.8528
0
VERTEX
8
CUT
10
208.0193
20
82.0462
0
VERTEX
8
CUT
10
207.9052
20
82.2304
0
VERTEX
8
CUT
10
207.7756
20
82.4041
0
VERTEX
8
CUT
10
203.4877
20
87.6595
0
VERTEX
8
CUT
10
203.4770
20
87.6733
0
VERTEX
8
CUT
10
203.4364
20
87.7329
0
VERTEX
8
CUT
10
203.4276
20
87.7479
0
VERTEX
8
CUT
10
201.9386
20
90.4148
0
VERTEX
8
CUT
10
201.9300
20
90.4312
0
VERTEX
8
CUT
10
201.9145
20
90.4663
0
VERTEX
8
CUT
10
201.9024
20
90.5026
0
VERTEX
8
CUT
10
201.8977
20
90.5206
0
VERTEX
8
CUT
10
201.6110
20
91.7517
0
VERTEX
8
CUT
10
201.6064
20
91.7745
0
VERTEX
8
CUT
10
201.5957
20
91.8705
0
VERTEX
8
CUT
10
201.5951
20
91.8938
0
VERTEX
8
CUT
10
201.6084
20
94.0396
0
VERTEX
8
CUT
10
201.5982
20
94.2808
0
VERTEX
8
CUT
10
201.5648
20
94.5199
0
VERTEX
8
CUT
10
201.5085
20
94.7547
0
VERTEX
8
CUT
10
201.4299
20
94.9829
0
VERTEX
8
CUT
10
201.3296
20
95.2025
0
VERTEX
8
CUT
10
201.2085
20
95.4114
0
VERTEX
8
CUT
10
201.0679
20
95.6076
0
VERTEX
8
CUT
10
200.9090
20
95.7894
0
VERTEX
8
CUT
10
200.7334
20
95.9550
0
VERTEX
8
CUT
10
200.5425
20
96.1029
0
VERTEX
8
CUT
10
200.3383
20
96.2316
0
VERTEX
8
CUT
10
200.1227
20
96.3401
0
VERTEX
8
CUT
10
199.8975
20
96.4273
0
VERTEX
8
CUT
10
199.6651
20
96.4923
0
VERTEX
8
CUT
10
199.4274
20
96.5347
0
VERTEX
8
CUT
10
199.1867
20
96.5539
0
VERTEX
8
CUT
10
198.9453
20
96.5498
0
VERTEX
8
CUT
10
198.7055
20
96.5224
0
VERTEX
8
CUT
10
198.4694
20
96.4720
0
VERTEX
8
CUT
10
198.2392
20
96.3991
0
VERTEX
8
CUT
10
198.0172
20
96.3044
0
VERTEX
8
CUT
10
192.6844
20
93.7172
0
VERTEX
8
CUT
10
192.6134
20
93.6855
0
VERTEX
8
CUT
10
192.5404
20
93.6583
0
VERTEX
8
CUT
10
185.4242
20
91.2646
0
VERTEX
8
CUT
10
185.2055
20
91.1794
0
VERTEX
8
CUT
10
182.9416
20
90.1727
0
VERTEX
8
CUT
10
182.7462
20
90.0754
0
VERTEX
8
CUT
10
182.5601
20
89.9614
0
VERTEX
8
CUT
10
181.1743
20
89.0274
0
VERTEX
8
CUT
10
180.9834
20
88.8850
0
VERTEX
8
CUT
10
180.8069
20
88.7251
0
VERTEX
8
CUT
10
179.7555
20
87.6773
0
VERTEX
8
CUT
10
179.6089
20
87.5180
0
VERTEX
8
CUT
10
179.4767
20
87.3466
0
VERTEX
8
CUT
10
179.3598
20
87.1645
0
VERTEX
8
CUT
10
178.5339
20
85.7461
0
VERTEX
8
CUT
10
178.4135
20
85.5117
0
VERTEX
8
CUT
10
178.3184
20
85.2658
0
VERTEX
8
CUT
10
178.2497
20
85.0113
0
VERTEX
8
CUT
10
178.0743
20
84.1918
0
VERTEX
8
CUT
10
178.0315
20
83.9186
0
VERTEX
8
CUT
10
178.0191
20
83.6424
0
VERTEX
8
CUT
10
178.0512
20
80.5925
0
SEQEND
0
POLYLINE
8
CUT
66
1
70
1
10
0.0
20
0.0
30
0.0
0
VERTEX
8
CUT
10
195.4477
20
252.2705
0
VERTEX
8
CUT
10
195.5167
20
252.0458
0
VERTEX
8
CUT
10
195.6065
20
251.8285
0
VERTEX
8
CUT
10
195.7162
20
251.6206
0
VERTEX
8
CUT
10
195.8451
20
251.4239
0
VERTEX
8
CUT
10
196.5761
20
250.4150
0
VERTEX
8
CUT
10
196.5867
20
250.3996
0
VERTEX
8
CUT
10
196.6063
20
250.3662
0
VERTEX
8
CUT
10
196.6227
20
250.3312
0
VERTEX
8
CUT
10
196.6295
20
250.3137
0
VERTEX
8
CUT
10
196.8104
20
249.8085
0
VERTEX
8
CUT
10
196.9019
20
249.5870
0
VERTEX
8
CUT
10
197.0143
20
249.3753
0
VERTEX
8
CUT
10
197.1463
20
249.1753
0
VERTEX
8
CUT
10
197.2970
20
248.9888
0
VERTEX
8
CUT
10
197.4648
20
248.8176
0
VERTEX
8
CUT
10
197.6482
20
248.6633
0
VERTEX
8
CUT
10
197.8456
20
248.5273
0
VERTEX
8
CUT
10
198.0551
20
248.4108
0
VERTEX
8
CUT
10
198.2748
20
248.3149
0
VERTEX
8
CUT
10
198.8187
20
248.1079
0
VERTEX
8
CUT
10
199.0399
20
248.0353
0
VERTEX
8
CUT
10
199.2669
20
247.9836
0
VERTEX
8
CUT
10
199.4977
20
247.9532
0
VERTEX
8
CUT
10
199.7304
20
247.9445
0
VERTEX
8
CUT
10
199.9996
20
247.9469
0
VERTEX
8
CUT
10
200.2905
20
247.9665
0
VERTEX
8
CUT
10
200.5771
20
248.0198
0
VERTEX
8
CUT
10
201.2516
20
248.1866
0
VERTEX
8
CUT
10
201.5309
20
248.2732
0
VERTEX
8
CUT
10
201.7980
20
248.3919
0
VERTEX
8
CUT
10
202.3887
20
248.6966
0
VERTEX
8
CUT
10
202.5855
20
248.8098
0
VERTEX
8
CUT
10
202.7712
20
248.9403
0
VERTEX
8
CUT
10
202.9443
20
249.0871
0
VERTEX
8
CUT
10
203.4947
20
249.5987
0
VERTEX
8
CUT
10
203.6478
20
249.7540
0
VERTEX
8
CUT
10
203.7868
20
249.9220
0
VERTEX
8
CUT
10
205.4949
20
252.1810
0
VERTEX
8
CUT
10
205.6315
20
252.3811
0
VERTEX
8
CUT
10
205.7481
20
252.5935
0
VERTEX
8
CUT
10
206.2573
20
253.6381
0
VERTEX
8
CUT
10
206.3485
20
253.8495
0
VERTEX
8
CUT
10
206.4199
20
254.0685
0
VERTEX
8
CUT
10
206.4709
20
254.2930
0
VERTEX
8
CUT
10
206.5010
20
254.5213
0
VERTEX
8
CUT
10
206.5099
20
254.7514
0
VERTEX
8
CUT
10
206.5005
20
256.0593
0
VERTEX
8
CUT
10
206.4861
20
256.3099
0
VERTEX
8
CUT
10
206.4466
20
256.5579
0
VERTEX
8
CUT
10
206.3825
20
256.8006
0
VERTEX
8
CUT
10
206.2943
20
257.0357
0
VERTEX
8
CUT
10
206.1830
20
257.2607
0
VERTEX
8
CUT
10
206.0497
20
257.4735
0
VERTEX
8
CUT
10
205.8957
20
257.6718
0
VERTEX
8
CUT
10
205.7226
20
257.8536
0
VERTEX
8
CUT
10
205.5321
20
258.0172
0
VERTEX
8
CUT
10
205.3262
20
258.1609
0
VERTEX
8
CUT
10
204.6501
20
258.5837
0
VERTEX
8
CUT
10
204.4102
20
258.7160
0
VERTEX
8
CUT
10
204.1572
20
258.8213
0
VERTEX
8
CUT
10
203.8943
20
258.8983
0
VERTEX
8
CUT
10
203.6245
20
258.9460
0
VERTEX
8
CUT
10
203.4066
20
258.9724
0
VERTEX
8
CUT
10
203.3857
20
258.9755
0
VERTEX
8
CUT
10
203.3432
20
258.9853
0
VERTEX
8
CUT
10
203.3020
20
258.9996
0
VERTEX
8
CUT
10
203.2826
20
259.0081
0
VERTEX
8
CUT
10
202.7727
20
259.2484
0
VERTEX
8
CUT
10
202.5654
20
259.3349
0
VERTEX
8
CUT
10
202.3512
20
259.4025
0
VERTEX
8
CUT
10
202.1318
20
259.4505
0
VERTEX
8
CUT
10
201.9090
20
259.4787
0
VERTEX
8
CUT
10
201.6845
20
259.4868
0
VERTEX
8
CUT
10
201.5154
20
259.4853
0
VERTEX
8
CUT
10
201.2245
20
259.4657
0
VERTEX
8
CUT
10
200.9379
20
259.4123
0
VERTEX
8
CUT
10
200.2915
20
259.2525
0
VERTEX
8
CUT
10
200.0862
20
259.1923
0
VERTEX
8
CUT
10
199.8867
20
259.1148
0
VERTEX
8
CUT
10
199.6947
20
259.0205
0
VERTEX
8
CUT
10
199.0504
20
258.6692
0
VERTEX
8
CUT
10
198.8435
20
258.5430
0
VERTEX
8
CUT
10
198.6498
20
258.3974
0
VERTEX
8
CUT
10
198.4711
20
258.2337
0
VERTEX
8
CUT
10
196.4440
20
256.1872
0
VERTEX
8
CUT
10
196.2732
20
255.9962
0
VERTEX
8
CUT
10
196.1229
20
255.7886
0
VERTEX
8
CUT
10
195.9946
20
255.5667
0
VERTEX
8
CUT
10
195.7869
20
255.1608
0
VERTEX
8
CUT
10
195.6965
20
254.9635
0
VERTEX
8
CUT
10
195.6236
20
254.7591
0
VERTEX
8
CUT
10
195.5686
20
254.5491
0
VERTEX
8
CUT
10
195.5321
20
254.3352
0
VERTEX
8
CUT
10
195.3893
20
253.2039
0
VERTEX
8
CUT
10
195.3708
20
252.9695
0
VERTEX
8
CUT
10
195.3745
20
252.7344
0
VERTEX
8
CUT
10
195.4002
20
252.5008
0
SEQEND
0
POLYLINE
8
CUT
66
1
70
1
10
0.0
20
0.0
30
0.0
0
VERTEX
8
CUT
10
164.8563
20
145.6254
0
VERTEX
8
CUT
10
164.8714
20
145.4178
0
VERTEX
8
CUT
10
164.9038
20
145.2121
0
VERTEX
8
CUT
10
164.9531
20
145.0098
0
VERTEX
8
CUT
10
165.6547
20
142.5789
0
VERTEX
8
CUT
10
165.6601
20
142.5580
0
VERTEX
8
CUT
10
165.6754
20
142.4697
0
VERTEX
8
CUT
10
165.6774
20
142.4482
0
VERTEX
8
CUT
10
165.7212
20
141.7535
0
VERTEX
8
CUT
10
165.7457
20
141.5286
0
VERTEX
8
CUT
10
165.7904
20
141.3068
0
VERTEX
8
CUT
10
166.2992
20
139.2636
0
VERTEX
8
CUT
10
166.3546
20
139.0737
0
VERTEX
8
CUT
10
166.8951
20
137.4600
0
VERTEX
8
CUT
10
166.9900
20
137.2189
0
VERTEX
8
CUT
10
168.3230
20
134.2887
0
VERTEX
8
CUT
10
168.4313
20
134.0777
0
VERTEX
8
CUT
10
169.4931
20
132.2311
0
VERTEX
8
CUT
10
169.6357
20
132.0108
0
VERTEX
8
CUT
10
170.9134
20
130.2466
0
VERTEX
8
CUT
10
171.0333
20
130.0939
0
VERTEX
8
CUT
10
171.1647
20
129.9510
0
VERTEX
8
CUT
10
174.2499
20
126.8459
0
VERTEX
8
CUT
10
174.4028
20
126.7043
0
VERTEX
8
CUT
10
174.5670
20
126.5760
0
VERTEX
8
CUT
10
177.3128
20
124.6080
0
VERTEX
8
CUT
10
177.4781
20
124.4992
0
VERTEX
8
CUT
10
177.6515
20
124.4038
0
VERTEX
8
CUT
10
178.7938
20
123.8329
0
VERTEX
8
CUT
10
178.8298
20
123.8126
0
VERTEX
8
CUT
10
179.0026
20
123.7285
0
VERTEX
8
CUT
10
179.0042
20
123.7278
0
VERTEX
8
CUT
10
179.0043
20
123.7277
0
VERTEX
8
CUT
10
179.0047
20
123.7275
0
VERTEX
8
CUT
10
179.0061
20
123.7268
0
VERTEX
8
CUT
10
180.7879
20
122.8363
0
VERTEX
8
CUT
10
180.9769
20
122.7515
0
VERTEX
8
CUT
10
181.1723
20
122.6825
0
VERTEX
8
CUT
10
184.5252
20
121.6540
0
VERTEX
8
CUT
10
184.8201
20
121.5828
0
VERTEX
8
CUT
10
185.1214
20
121.5478
0
VERTEX
8
CUT
10
185.6817
20
121.5171
0
VERTEX
8
CUT
10
185.7032
20
121.5154
0
VERTEX
8
CUT
10
185.7471
20
121.5081
0
VERTEX
8
CUT
10
185.7899
20
121.4961
0
VERTEX
8
CUT
10
185.8102
20
121.4887
0
VERTEX
8
CUT
10
185.9359
20
121.4382
0
VERTEX
8
CUT
10
186.1480
20
121.3641
0
VERTEX
8
CUT
10
186.3659
20
121.3092
0
VERTEX
8
CUT
10
186.5879
20
121.2742
0
VERTEX
8
CUT
10
186.8121
20
121.2592
0
VERTEX
8
CUT
10
188.5643
20
121.2212
0
VERTEX
8
CUT
10
188.5846
20
121.2203
0
VERTEX
8
CUT
10
188.6262
20
121.2151
0
VERTEX
8
CUT
10
188.6671
20
121.2056
0
VERTEX
8
CUT
10
188.6864
20
121.1996
0
VERTEX
8
CUT
10
188.9523
20
121.1088
0
VERTEX
8
CUT
10
189.2177
20
121.0342
0
VERTEX
8
CUT
10
189.4897
20
120.9893
0
VERTEX
8
CUT
10
189.7649
20
120.9746
0
VERTEX
8
CUT
10
191.1468
20
120.9771
0
VERTEX
8
CUT
10
191.3911
20
120.9895
0
VERTEX
8
CUT
10
191.6330
20
121.0257
0
VERTEX
8
CUT
10
191.8702
20
121.0854
0
VERTEX
8
CUT
10
192.1004
20
121.1680
0
VERTEX
8
CUT
10
192.3214
20
121.2727
0
VERTEX
8
CUT
10
192.5312
20
121.3984
0
VERTEX
8
CUT
10
192.7277
20
121.5441
0
VERTEX
8
CUT
10
192.9090
20
121.7083
0
VERTEX
8
CUT
10
193.0733
20
121.8894
0
VERTEX
8
CUT
10
193.2192
20
122.0857
0
VERTEX
8
CUT
10
193.3453
20
122.2953
0
VERTEX
8
CUT
10
193.4502
20
122.5162
0
VERTEX
8
CUT
10
193.5331
20
122.7463
0
VERTEX
8
CUT
10
193.5930
20
122.9834
0
VERTEX
8
CUT
10
193.6295
20
123.2253
0
VERTEX
8
CUT
10
193.6422
20
123.4695
0
VERTEX
8
CUT
10
193.6310
20
123.7138
0
VERTEX
8
CUT
10
193.5960
20
123.9559
0
VERTEX
8
CUT
10
193.5375
20
124.1934
0
VERTEX
8
CUT
10
193.4560
20
124.4240
0
VERTEX
8
CUT
10
193.3524
20
124.6455
0
VERTEX
8
CUT
10
193.2277
20
124.8559
0
VERTEX
8
CUT
10
193.0830
20
125.0531
0
VERTEX
8
CUT
10
192.9197
20
125.2352
0
VERTEX
8
CUT
10
192.7394
20
125.4004
0
VERTEX
8
CUT
10
192.5438
20
125.5473
0
VERTEX
8
CUT
10
192.3348
20
125.6743
0
VERTEX
8
CUT
10
192.1144
20
125.7803
0
VERTEX
8
CUT
10
191.8847
20
125.8643
0
VERTEX
8
CUT
10
191.6479
20
125.9254
0
VERTEX
8
CUT
10
191.5760
20
125.9403
0
VERTEX
8
CUT
10
191.5580
20
125.9444
0
VERTEX
8
CUT
10
191.5220
20
125.9555
0
VERTEX
8
CUT
10
191.4948
20
125.9816
0
VERTEX
8
CUT
10
191.4824
20
125.9952
0
VERTEX
8
CUT
10
191.1615
20
126.3666
0
VERTEX
8
CUT
10
191.1483
20
126.3826
0
VERTEX
8
CUT
10
191.1241
20
126.4175
0
VERTEX
8
CUT
10
191.1162
20
126.4593
0
VERTEX
8
CUT
10
191.1140
20
126.4798
0
VERTEX
8
CUT
10
191.0585
20
127.1727
0
VERTEX
8
CUT
10
191.0575
20
127.1904
0
VERTEX
8
CUT
10
191.0579
20
127.2271
0
VERTEX
8
CUT
10
191.0681
20
127.2626
0
VERTEX
8
CUT
10
191.0740
20
127.2789
0
VERTEX
8
CUT
10
191.5374
20
128.4718
0
VERTEX
8
CUT
10
191.6350
20
128.7814
0
VERTEX
8
CUT
10
191.8377
20
129.6077
0
VERTEX
8
CUT
10
191.8842
20
129.8474
0
VERTEX
8
CUT
10
191.9071
20
130.0906
0
VERTEX
8
CUT
10
191.9489
20
131.0169
0
VERTEX
8
CUT
10
191.9501
20
131.0347
0
VERTEX
8
CUT
10
191.9550
20
131.0711
0
VERTEX
8
CUT
10
191.9663
20
131.1057
0
VERTEX
8
CUT
10
191.9729
20
131.1223
0
VERTEX
8
CUT
10
191.9787
20
131.1358
0
VERTEX
8
CUT
10
192.0662
20
131.3730
0
VERTEX
8
CUT
10
192.1292
20
131.6178
0
VERTEX
8
CUT
10
192.1672
20
131.8678
0
VERTEX
8
CUT
10
192.1798
20
132.1203
0
VERTEX
8
CUT
10
192.1777
20
134.5139
0
VERTEX
8
CUT
10
192.1640
20
134.7732
0
VERTEX
8
CUT
10
192.1235
20
135.0296
0
VERTEX
8
CUT
10
191.3663
20
138.6057
0
VERTEX
8
CUT
10
191.3132
20
138.8124
0
VERTEX
8
CUT
10
191.2427
20
139.0137
0
VERTEX
8
CUT
10
191.1553
20
139.2084
0
VERTEX
8
CUT
10
189.6375
20
142.2357
0
VERTEX
8
CUT
10
189.5467
20
142.4008
0
VERTEX
8
CUT
10
189.4438
20
142.5587
0
VERTEX
8
CUT
10
187.8393
20
144.8273
0
VERTEX
8
CUT
10
187.8286
20
144.8433
0
VERTEX
8
CUT
10
187.8092
20
144.8774
0
VERTEX
8
CUT
10
187.8127
20
144.8976
0
VERTEX
8
CUT
10
187.8559
20
145.0869
0
VERTEX
8
CUT
10
187.8867
20
145.3238
0
VERTEX
8
CUT
10
187.8947
20
145.5626
0
VERTEX
8
CUT
10
187.8798
20
145.8011
0
VERTEX
8
CUT
10
187.8423
20
146.0370
0
VERTEX
8
CUT
10
187.7824
20
146.2683
0
VERTEX
8
CUT
10
187.7007
20
146.4929
0
VERTEX
8
CUT
10
187.5979
20
146.7086
0
VERTEX
8
CUT
10
187.4750
20
146.9135
0
VERTEX
8
CUT
10
187.3331
20
147.1057
0
VERTEX
8
CUT
10
187.1735
20
147.2835
0
VERTEX
8
CUT
10
186.9977
20
147.4453
0
VERTEX
8
CUT
10
186.8072
20
147.5896
0
VERTEX
8
CUT
10
186.6038
20
147.7150
0
VERTEX
8
CUT
10
186.3894
20
147.8204
0
VERTEX
8
CUT
10
186.1659
20
147.9048
0
VERTEX
8
CUT
10
185.9354
20
147.9676
0
VERTEX
8
CUT
10
185.6999
20
148.0080
0
VERTEX
8
CUT
10
185.4616
20
148.0258
0
VERTEX
8
CUT
10
184.3169
20
148.0563
0
VERTEX
8
CUT
10
184.2985
20
148.0573
0
VERTEX
8
CUT
10
184.2225
20
148.0664
0
VERTEX
8
CUT
10
184.2044
20
148.0699
0
VERTEX
8
CUT
10
183.3440
20
148.2555
0
VERTEX
8
CUT
10
183.0880
20
148.2970
0
VERTEX
8
CUT
10
182.8292
20
148.3117
0
VERTEX
8
CUT
10
173.7574
20
148.3571
0
VERTEX
8
CUT
10
173.7522
20
148.3572
0
VERTEX
8
CUT
10
173.6754
20
148.3633
0
VERTEX
8
CUT
10
173.6574
20
148.3658
0
VERTEX
8
CUT
10
171.8410
20
148.6620
0
VERTEX
8
CUT
10
171.8235
20
148.6653
0
VERTEX
8
CUT
10
171.7877
20
148.6745
0
VERTEX
8
CUT
10
171.7528
20
148.6869
0
VERTEX
8
CUT
10
171.7369
20
148.6938
0
VERTEX
8
CUT
10
168.4860
20
150.1888
0
VERTEX
8
CUT
10
168.4710
20
150.1961
0
VERTEX
8
CUT
10
168.3493
20
150.2650
0
VERTEX
8
CUT
10
168.3492
20
150.2649
0
VERTEX
8
CUT
10
168.3005
20
150.2948
0
VERTEX
8
CUT
10
168.0824
20
150.4011
0
VERTEX
8
CUT
10
167.8550
20
150.4858
0
VERTEX
8
CUT
10
167.6205
20
150.5481
0
VERTEX
8
CUT
10
167.3810
20
150.5873
0
VERTEX
8
CUT
10
167.1389
20
150.6032
0
VERTEX
8
CUT
10
166.8963
20
150.5955
0
VERTEX
8
CUT
10
166.6557
20
150.5643
0
VERTEX
8
CUT
10
166.4192
20
150.5099
0
VERTEX
8
CUT
10
166.1891
20
150.4328
0
VERTEX
8
CUT
10
165.9676
20
150.3338
0
VERTEX
8
CUT
10
165.7567
20
150.2138
0
VERTEX
8
CUT
10
165.5584
20
150.0740
0
VERTEX
8
CUT
10
165.3746
20
149.9155
0
VERTEX
8
CUT
10
165.2070
20
149.7400
0
VERTEX
8
CUT
10
165.0573
20
149.5490
0
VERTEX
8
CUT
10
164.9268
20
149.3445
0
VERTEX
8
CUT
10
164.8167
20
149.1282
0
VERTEX
8
CUT
10
164.7281
20
148.9023
0
VERTEX
8
CUT
10
164.6618
20
148.6689
0
VERTEX
8
CUT
10
164.6184
20
148.4302
0
VERTEX
8
CUT
10
164.5985
20
148.1883
0
VERTEX
8
CUT
10
164.6020
20
147.9457
0
VERTEX
8
CUT
10
164.6291
20
147.7045
0
VERTEX
8
CUT
10
164.6794
20
147.4672
0
VERTEX
8
CUT
10
164.7524
20
147.2358
0
VERTEX
8
CUT
10
164.7883
20
147.1388
0
VERTEX
8
CUT
10
164.7952
20
147.1186
0
VERTEX
8
CUT
10
164.8060
20
147.0758
0
VERTEX
8
CUT
10
164.8121
20
147.0322
0
VERTEX
8
CUT
10
164.8133
20
147.0108
0
SEQEND
0
POLYLINE
8
CUT
66
1
70
1
10
0.0
20
0.0
30
0.0
0
VERTEX
8
CUT
10
184.8755
20
269.8443
0
VERTEX
8
CUT
10
185.0576
20
269.6995
0
VERTEX
8
CUT
10
185.1752
20
269.6146
0
VERTEX
8
CUT
10
185.3743
20
269.4849
0
VERTEX
8
CUT
10
185.5849
20
269.3746
0
VERTEX
8
CUT
10
185.8050
20
269.2848
0
VERTEX
8
CUT
10
186.0326
20
269.2163
0
VERTEX
8
CUT
10
186.1864
20
269.1779
0
VERTEX
8
CUT
10
186.4269
20
269.1302
0
VERTEX
8
CUT
10
186.6710
20
269.1063
0
VERTEX
8
CUT
10
186.9162
20
269.1065
0
VERTEX
8
CUT
10
187.1602
20
269.1307
0
VERTEX
8
CUT
10
187.4006
20
269.1786
0
VERTEX
8
CUT
10
187.6352
20
269.2499
0
VERTEX
8
CUT
10
187.8617
20
269.3438
0
VERTEX
8
CUT
10
188.0780
20
269.4595
0
VERTEX
8
CUT
10
188.2818
20
269.5957
0
VERTEX
8
CUT
10
188.6822
20
269.8929
0
VERTEX
8
CUT
10
188.8841
20
270.0597
0
VERTEX
8
CUT
10
189.0674
20
270.2468
0
VERTEX
8
CUT
10
189.2301
20
270.4521
0
VERTEX
8
CUT
10
189.3705
20
270.6732
0
VERTEX
8
CUT
10
189.4135
20
270.7495
0
VERTEX
8
CUT
10
189.5195
20
270.9602
0
VERTEX
8
CUT
10
189.6051
20
271.1801
0
VERTEX
8
CUT
10
189.6697
20
271.4070
0
VERTEX
8
CUT
10
189.7126
20
271.6390
0
VERTEX
8
CUT
10
189.7334
20
271.8740
0
VERTEX
8
CUT
10
189.7319
20
272.1099
0
VERTEX
8
CUT
10
189.7083
20
272.3447
0
VERTEX
8
CUT
10
189.6411
20
272.7962
0
VERTEX
8
CUT
10
189.5961
20
273.0247
0
VERTEX
8
CUT
10
189.5301
20
273.2480
0
VERTEX
8
CUT
10
189.4436
20
273.4642
0
VERTEX
8
CUT
10
189.3374
20
273.6714
0
VERTEX
8
CUT
10
189.2123
20
273.8678
0
VERTEX
8
CUT
10
189.0695
20
274.0517
0
VERTEX
8
CUT
10
188.9102
20
274.2216
0
VERTEX
8
CUT
10
188.7219
20
274.4045
0
VERTEX
8
CUT
10
188.5304
20
274.5724
0
VERTEX
8
CUT
10
188.3228
20
274.7200
0
VERTEX
8
CUT
10
188.1012
20
274.8457
0
VERTEX
8
CUT
10
188.0241
20
274.8844
0
VERTEX
8
CUT
10
187.8083
20
274.9802
0
VERTEX
8
CUT
10
187.5845
20
275.0552
0
VERTEX
8
CUT
10
187.3546
20
275.1088
0
VERTEX
8
CUT
10
187.1207
20
275.1405
0
VERTEX
8
CUT
10
186.8849
20
275.1499
0
VERTEX
8
CUT
10
186.6492
20
275.1371
0
VERTEX
8
CUT
10
186.4157
20
275.1021
0
VERTEX
8
CUT
10
186.1866
20
275.0452
0
VERTEX
8
CUT
10
185.9639
20
274.9670
0
VERTEX
8
CUT
10
185.7496
20
274.8681
0
VERTEX
8
CUT
10
185.6499
20
274.8162
0
VERTEX
8
CUT
10
185.4247
20
274.6837
0
VERTEX
8
CUT
10
185.2145
20
274.5285
0
VERTEX
8
CUT
10
185.0217
20
274.3521
0
VERTEX
8
CUT
10
184.6543
20
273.9790
0
VERTEX
8
CUT
10
184.4904
20
273.7953
0
VERTEX
8
CUT
10
184.3454
20
273.5963
0
VERTEX
8
CUT
10
184.2206
20
273.3841
0
VERTEX
8
CUT
10
184.1174
20
273.1606
0
VERTEX
8
CUT
10
184.0366
20
272.9280
0
VERTEX
8
CUT
10
183.9791
20
272.6886
0
VERTEX
8
CUT
10
183.9454
20
272.4448
0
VERTEX
8
CUT
10
183.9358
20
272.1987
0
VERTEX
8
CUT
10
183.9394
20
271.8566
0
VERTEX
8
CUT
10
183.9529
20
271.6223
0
VERTEX
8
CUT
10
183.9883
20
271.3902
0
VERTEX
8
CUT
10
184.0454
20
271.1624
0
VERTEX
8
CUT
10
184.1235
20
270.9410
0
VERTEX
8
CUT
10
184.2221
20
270.7279
0
VERTEX
8
CUT
10
184.3034
20
270.5717
0
VERTEX
8
CUT
10
184.4204
20
270.3707
0
VERTEX
8
CUT
10
184.5555
20
270.1813
0
VERTEX
8
CUT
10
184.7077
20
270.0053
0
SEQEND
0
POLYLINE
8
CUT
66
1
70
1
10
0.0
20
0.0
30
0.0
0
VERTEX
8
CUT
10
136.6690
20
169.2388
0
VERTEX
8
CUT
10
136.8655
20
169.1291
0
VERTEX
8
CUT
10
137.2492
20
168.9370
0
VERTEX
8
CUT
10
137.4621
20
168.8425
0
VERTEX
8
CUT
10
137.6829
20
168.7683
0
VERTEX
8
CUT
10
137.9096
20
168.7150
0
VERTEX
8
CUT
10
138.1403
20
168.6829
0
VERTEX
8
CUT
10
138.3730
20
168.6725
0
VERTEX
8
CUT
10
141.1783
20
168.6778
0
VERTEX
8
CUT
10
141.3937
20
168.6875
0
VERTEX
8
CUT
10
141.6076
20
168.7157
0
VERTEX
8
CUT
10
141.8181
20
168.7623
0
VERTEX
8
CUT
10
145.5729
20
169.7642
0
VERTEX
8
CUT
10
145.5892
20
169.7682
0
VERTEX
8
CUT
10
145.6236
20
169.7743
0
VERTEX
8
CUT
10
145.6584
20
169.7775
0
VERTEX
8
CUT
10
145.6748
20
169.7780
0
VERTEX
8
CUT
10
150.1371
20
169.8061
0
VERTEX
8
CUT
10
150.1840
20
169.8055
0
VERTEX
8
CUT
10
150.2309
20
169.8031
0
VERTEX
8
CUT
10
150.9936
20
169.7494
0
VERTEX
8
CUT
10
151.0152
20
169.7473
0
VERTEX
8
CUT
10
151.1035
20
169.7313
0
VERTEX
8
CUT
10
151.1245
20
169.7257
0
VERTEX
8
CUT
10
154.4510
20
168.7375
0
VERTEX
8
CUT
10
154.6604
20
168.6850
0
VERTEX
8
CUT
10
154.8736
20
168.6508
0
VERTEX
8
CUT
10
156.8195
20
168.4240
0
VERTEX
8
CUT
10
157.0522
20
168.4078
0
VERTEX
8
CUT
10
157.2853
20
168.4134
0
VERTEX
8
CUT
10
157.5169
20
168.4407
0
VERTEX
8
CUT
10
157.7450
20
168.4895
0
VERTEX
8
CUT
10
157.9675
20
168.5593
0
VERTEX
8
CUT
10
158.5907
20
168.7872
0
VERTEX
8
CUT
10
158.8215
20
168.8849
0
VERTEX
8
CUT
10
159.0412
20
169.0053
0
VERTEX
8
CUT
10
159.2479
20
169.1470
0
VERTEX
8
CUT
10
159.4393
20
169.3087
0
VERTEX
8
CUT
10
159.6664
20
169.5210
0
VERTEX
8
CUT
10
159.8409
20
169.7014
0
VERTEX
8
CUT
10
159.9965
20
169.8984
0
VERTEX
8
CUT
10
160.1315
20
170.1100
0
VERTEX
8
CUT
10
160.2446
20
170.3340
0
VERTEX
8
CUT
10
160.3347
20
170.5683
0
VERTEX
8
CUT
10
160.4009
20
170.8104
0
VERTEX
8
CUT
10
160.4424
20
171.0579
0
VERTEX
8
CUT
10
160.4589
20
171.3084
0
VERTEX
8
CUT
10
160.4502
20
171.5592
0
VERTEX
8
CUT
10
160.4165
20
171.8079
0
VERTEX
8
CUT
10
160.3579
20
172.0520
0
VERTEX
8
CUT
10
160.2752
20
172.2889
0
VERTEX
8
CUT
10
160.1691
20
172.5164
0
VERTEX
8
CUT
10
160.0407
20
172.7321
0
VERTEX
8
CUT
10
159.8914
20
172.9338
0
VERTEX
8
CUT
10
159.7226
20
173.1196
0
VERTEX
8
CUT
10
158.5465
20
174.2898
0
VERTEX
8
CUT
10
158.3829
20
174.4388
0
VERTEX
8
CUT
10
158.2069
20
174.5727
0
VERTEX
8
CUT
10
158.0196
20
174.6905
0
VERTEX
8
CUT
10
157.8227
20
174.7913
0
VERTEX
8
CUT
10
154.8553
20
176.1482
0
VERTEX
8
CUT
10
154.8358
20
176.1577
0
VERTEX
8
CUT
10
154.7973
20
176.1808
0
VERTEX
8
CUT
10
154.7615
20
176.2079
0
VERTEX
8
CUT
10
154.7453
20
176.2224
0
VERTEX
8
CUT
10
153.5834
20
177.3235
0
VERTEX
8
CUT
10
153.5686
20
177.3383
0
VERTEX
8
CUT
10
153.5407
20
177.3710
0
VERTEX
8
CUT
10
153.5163
20
177.4065
0
VERTEX
8
CUT
10
153.5059
20
177.4246
0
VERTEX
8
CUT
10
152.8024
20
178.7233
0
VERTEX
8
CUT
10
152.7944
20
178.7390
0
VERTEX
8
CUT
10
152.7799
20
178.7726
0
VERTEX
8
CUT
10
152.7684
20
178.8075
0
VERTEX
8
CUT
10
152.7641
20
178.8241
0
VERTEX
8
CUT
10
152.4370
20
180.2238
0
VERTEX
8
CUT
10
152.3527
20
180.5076
0
VERTEX
8
CUT
10
152.2355
20
180.7794
0
VERTEX
8
CUT
10
151.3170
20
182.6035
0
VERTEX
8
CUT
10
151.1941
20
182.8200
0
VERTEX
8
CUT
10
151.0503
20
183.0232
0
VERTEX
8
CUT
10
150.0348
20
184.3162
0
VERTEX
8
CUT
10
149.8727
20
184.5028
0
VERTEX
8
CUT
10
149.6930
20
184.6725
0
VERTEX
8
CUT
10
149.4974
20
184.8237
0
VERTEX
8
CUT
10
149.2878
20
184.9547
0
VERTEX
8
CUT
10
149.0663
20
185.0645
0
VERTEX
8
CUT
10
148.8350
20
185.1518
0
VERTEX
8
CUT
10
148.5963
20
185.2158
0
VERTEX
8
CUT
10
148.3524
20
185.2560
0
VERTEX
8
CUT
10
148.1057
20
185.2719
0
VERTEX
8
CUT
10
147.8586
20
185.2633
0
VERTEX
8
CUT
10
147.6136
20
185.2304
0
VERTEX
8
CUT
10
147.3731
20
185.1734
0
VERTEX
8
CUT
10
147.1393
20
185.0930
0
VERTEX
8
CUT
10
146.9147
20
184.9899
0
VERTEX
8
CUT
10
146.7013
20
184.8651
0
VERTEX
8
CUT
10
146.5013
20
184.7198
0
VERTEX
8
CUT
10
146.3166
20
184.5555
0
VERTEX
8
CUT
10
146.1491
20
184.3737
0
VERTEX
8
CUT
10
145.7137
20
183.8519
0
VERTEX
8
CUT
10
145.5228
20
183.5903
0
VERTEX
8
CUT
10
144.2939
20
181.6548
0
VERTEX
8
CUT
10
144.1810
20
181.4577
0
VERTEX
8
CUT
10
144.0864
20
181.2512
0
VERTEX
8
CUT
10
144.0110
20
181.0369
0
VERTEX
8
CUT
10
143.4325
20
179.1196
0
VERTEX
8
CUT
10
143.4266
20
179.1016
0
VERTEX
8
CUT
10
143.3970
20
179.0291
0
VERTEX
8
CUT
10
143.3886
20
179.0122
0
VERTEX
8
CUT
10
142.7511
20
177.7978
0
VERTEX
8
CUT
10
142.7409
20
177.7796
0
VERTEX
8
CUT
10
142.7169
20
177.7437
0
VERTEX
8
CUT
10
142.6893
20
177.7105
0
VERTEX
8
CUT
10
142.6747
20
177.6955
0
VERTEX
8
CUT
10
141.4786
20
176.5340
0
VERTEX
8
CUT
10
141.4635
20
176.5201
0
VERTEX
8
CUT
10
141.4302
20
176.4938
0
VERTEX
8
CUT
10
141.3943
20
176.4712
0
VERTEX
8
CUT
10
141.3761
20
176.4616
0
VERTEX
8
CUT
10
137.8604
20
174.7206
0
VERTEX
8
CUT
10
137.6906
20
174.6282
0
VERTEX
8
CUT
10
137.5286
20
174.5230
0
VERTEX
8
CUT
10
136.9090
20
174.0859
0
VERTEX
8
CUT
10
136.7243
20
173.9422
0
VERTEX
8
CUT
10
136.5538
20
173.7818
0
VERTEX
8
CUT
10
136.3991
20
173.6062
0
VERTEX
8
CUT
10
136.2615
20
173.4169
0
VERTEX
8
CUT
10
135.8523
20
172.7948
0
VERTEX
8
CUT
10
135.7312
20
172.5899
0
VERTEX
8
CUT
10
135.6300
20
172.3744
0
VERTEX
8
CUT
10
135.5498
20
172.1503
0
VERTEX
8
CUT
10
135.4913
20
171.9196
0
VERTEX
8
CUT
10
135.4550
20
171.6844
0
VERTEX
8
CUT
10
135.4412
20
171.4468
0
VERTEX
8
CUT
10
135.4501
20
171.2089
0
VERTEX
8
CUT
10
135.4816
20
170.9730
0
VERTEX
8
CUT
10
135.5353
20
170.7411
0
VERTEX
8
CUT
10
135.6109
20
170.5154
0
VERTEX
8
CUT
10
135.7076
20
170.2979
0
VERTEX
8
CUT
10
135.8245
20
170.0906
0
VERTEX
8
CUT
10
135.9606
20
169.8953
0
VERTEX
8
CUT
10
136.0041
20
169.8389
0
VERTEX
8
CUT
10
136.1493
20
169.6670
0
VERTEX
8
CUT
10
136.3094
20
169.5088
0
VERTEX
8
CUT
10
136.4831
20
169.3657
0
SEQEND
0
POLYLINE
8
CUT
66
1
70
1
10
0.0
20
0.0
30
0.0
0
VERTEX
8
CUT
10
106.3394
20
130.9445
0
VERTEX
8
CUT
10
106.3574
20
130.7145
0
VERTEX
8
CUT
10
106.3965
20
130.4871
0
VERTEX
8
CUT
10
106.8915
20
128.2376
0
VERTEX
8
CUT
10
106.9398
20
128.0522
0
VERTEX
8
CUT
10
107.0021
20
127.8711
0
VERTEX
8
CUT
10
107.3845
20
126.8849
0
VERTEX
8
CUT
10
107.3913
20
126.8657
0
VERTEX
8
CUT
10
107.4022
20
126.8257
0
VERTEX
8
CUT
10
107.3877
20
126.7869
0
VERTEX
8
CUT
10
107.3791
20
126.7685
0
VERTEX
8
CUT
10
107.1773
20
126.3630
0
VERTEX
8
CUT
10
107.1680
20
126.3455
0
VERTEX
8
CUT
10
107.1463
20
126.3110
0
VERTEX
8
CUT
10
107.1181
20
126.2815
0
VERTEX
8
CUT
10
107.1034
20
126.2682
0
VERTEX
8
CUT
10
106.7314
20
125.9493
0
VERTEX
8
CUT
10
106.7165
20
125.9372
0
VERTEX
8
CUT
10
106.6204
20
125.8698
0
VERTEX
8
CUT
10
106.5456
20
125.8227
0
VERTEX
8
CUT
10
106.3536
20
125.6735
0
VERTEX
8
CUT
10
106.1769
20
125.5065
0
VERTEX
8
CUT
10
106.0173
20
125.3230
0
VERTEX
8
CUT
10
105.8762
20
125.1249
0
VERTEX
8
CUT
10
105.7551
20
124.9140
0
VERTEX
8
CUT
10
105.6550
20
124.6924
0
VERTEX
8
CUT
10
105.5770
20
124.4621
0
VERTEX
8
CUT
10
105.5217
20
124.2253
0
VERTEX
8
CUT
10
105.4896
20
123.9842
0
VERTEX
8
CUT
10
105.4812
20
123.7412
0
VERTEX
8
CUT
10
105.4964
20
123.4985
0
VERTEX
8
CUT
10
105.5350
20
123.2584
0
VERTEX
8
CUT
10
105.5969
20
123.0232
0
VERTEX
8
CUT
10
105.6813
20
122.7952
0
VERTEX
8
CUT
10
105.7874
20
122.5764
0
VERTEX
8
CUT
10
105.9143
20
122.3689
0
VERTEX
8
CUT
10
106.0608
20
122.1748
0
VERTEX
8
CUT
10
106.2254
20
121.9958
0
VERTEX
8
CUT
10
106.4066
20
121.8337
0
VERTEX
8
CUT
10
106.6028
20
121.6899
0
VERTEX
8
CUT
10
106.8119
20
121.5659
0
VERTEX
8
CUT
10
107.0322
20
121.4628
0
VERTEX
8
CUT
10
107.2614
20
121.3815
0
VERTEX
8
CUT
10
107.4974
20
121.3229
0
VERTEX
8
CUT
10
107.7380
20
121.2876
0
VERTEX
8
CUT
10
107.9809
20
121.2757
0
VERTEX
8
CUT
10
110.6314
20
121.2757
0
VERTEX
8
CUT
10
110.9337
20
121.2940
0
VERTEX
8
CUT
10
111.2316
20
121.3487
0
VERTEX
8
CUT
10
113.0303
20
121.7935
0
VERTEX
8
CUT
10
113.0487
20
121.7976
0
VERTEX
8
CUT
10
113.1257
20
121.8090
0
VERTEX
8
CUT
10
113.1445
20
121.8105
0
VERTEX
8
CUT
10
113.6059
20
121.8350
0
VERTEX
8
CUT
10
113.8702
20
121.8633
0
VERTEX
8
CUT
10
114.1300
20
121.9194
0
VERTEX
8
CUT
10
114.3824
20
122.0028
0
VERTEX
8
CUT
10
115.2774
20
122.3523
0
VERTEX
8
CUT
10
115.2939
20
122.3583
0
VERTEX
8
CUT
10
115.3290
20
122.3685
0
VERTEX
8
CUT
10
115.3651
20
122.3756
0
VERTEX
8
CUT
10
115.3821
20
122.3778
0
VERTEX
8
CUT
10
115.6397
20
122.4051
0
VERTEX
8
CUT
10
115.8698
20
122.4404
0
VERTEX
8
CUT
10
116.0957
20
122.4969
0
VERTEX
8
CUT
10
116.3153
20
122.5742
0
VERTEX
8
CUT
10
116.5267
20
122.6716
0
VERTEX
8
CUT
10
117.5221
20
123.1876
0
VERTEX
8
CUT
10
117.5376
20
123.1952
0
VERTEX
8
CUT
10
117.5709
20
123.2089
0
VERTEX
8
CUT
10
117.6054
20
123.2197
0
VERTEX
8
CUT
10
117.6218
20
123.2237
0
VERTEX
8
CUT
10
117.8317
20
123.2697
0
VERTEX
8
CUT
10
118.0681
20
123.3337
0
VERTEX
8
CUT
10
118.2971
20
123.4206
0
VERTEX
8
CUT
10
118.5165
20
123.5295
0
VERTEX
8
CUT
10
120.6597
20
124.7275
0
VERTEX
8
CUT
10
120.9265
20
124.8998
0
VERTEX
8
CUT
10
122.8655
20
126.3339
0
VERTEX
8
CUT
10
123.0147
20
126.4533
0
VERTEX
8
CUT
10
123.1543
20
126.5838
0
VERTEX
8
CUT
10
125.5531
20
129.0037
0
VERTEX
8
CUT
10
125.7099
20
129.1773
0
VERTEX
8
CUT
10
125.8497
20
129.3649
0
VERTEX
8
CUT
10
128.0209
20
132.5811
0
VERTEX
8
CUT
10
128.1852
20
132.8624
0
VERTEX
8
CUT
10
129.4893
20
135.4720
0
VERTEX
8
CUT
10
129.6248
20
135.7995
0
VERTEX
8
CUT
10
130.4199
20
138.1863
0
VERTEX
8
CUT
10
130.4738
20
138.3719
0
VERTEX
8
CUT
10
131.2864
20
141.6326
0
VERTEX
8
CUT
10
131.3464
20
141.9709
0
VERTEX
8
CUT
10
131.6740
20
145.0300
0
VERTEX
8
CUT
10
131.6766
20
145.0496
0
VERTEX
8
CUT
10
131.6849
20
145.0894
0
VERTEX
8
CUT
10
131.6971
20
145.1283
0
VERTEX
8
CUT
10
131.7045
20
145.1466
0
VERTEX
8
CUT
10
131.7415
20
145.2330
0
VERTEX
8
CUT
10
131.8179
20
145.4347
0
VERTEX
8
CUT
10
131.8766
20
145.6423
0
VERTEX
8
CUT
10
131.9171
20
145.8541
0
VERTEX
8
CUT
10
131.9393
20
146.0687
0
VERTEX
8
CUT
10
132.0509
20
147.9336
0
VERTEX
8
CUT
10
132.0537
20
148.1741
0
VERTEX
8
CUT
10
132.0334
20
148.4138
0
VERTEX
8
CUT
10
131.9902
20
148.6504
0
VERTEX
8
CUT
10
131.9244
20
148.8817
0
VERTEX
8
CUT
10
131.8367
20
149.1056
0
VERTEX
8
CUT
10
131.7279
20
149.3201
0
VERTEX
8
CUT
10
131.5989
20
149.5232
0
VERTEX
8
CUT
10
131.4511
20
149.7129
0
VERTEX
8
CUT
10
131.2857
20
149.8875
0
VERTEX
8
CUT
10
131.1043
20
150.0454
0
VERTEX
8
CUT
10
130.9085
20
150.1851
0
VERTEX
8
CUT
10
130.7003
20
150.3054
0
VERTEX
8
CUT
10
130.4814
20
150.4052
0
VERTEX
8
CUT
10
130.2540
20
150.4834
0
VERTEX
8
CUT
10
130.0201
20
150.5394
0
VERTEX
8
CUT
10
129.7819
20
150.5727
0
VERTEX
8
CUT
10
129.5416
20
150.5830
0
VERTEX
8
CUT
10
129.3014
20
150.5701
0
VERTEX
8
CUT
10
129.0636
20
150.5342
0
VERTEX
8
CUT
10
128.8304
20
150.4756
0
VERTEX
8
CUT
10
128.6038
20
150.3948
0
VERTEX
8
CUT
10
128.3861
20
150.2927
0
VERTEX
8
CUT
10
128.1792
20
150.1701
0
VERTEX
8
CUT
10
127.9850
20
150.0282
0
VERTEX
8
CUT
10
127.5497
20
149.6768
0
VERTEX
8
CUT
10
127.5358
20
149.6660
0
VERTEX
8
CUT
10
127.5054
20
149.6457
0
VERTEX
8
CUT
10
127.4732
20
149.6281
0
VERTEX
8
CUT
10
127.4577
20
149.6208
0
VERTEX
8
CUT
10
125.3483
20
148.6971
0
VERTEX
8
CUT
10
125.3433
20
148.6950
0
VERTEX
8
CUT
10
125.2959
20
148.6785
0
VERTEX
8
CUT
10
125.2715
20
148.6723
0
VERTEX
8
CUT
10
125.2479
20
148.6678
0
VERTEX
8
CUT
10
123.4466
20
148.3655
0
VERTEX
8
CUT
10
123.4413
20
148.3647
0
VERTEX
8
CUT
10
123.3626
20
148.3576
0
VERTEX
8
CUT
10
123.3439
20
148.3571
0
VERTEX
8
CUT
10
115.0806
20
148.3119
0
VERTEX
8
CUT
10
114.8053
20
148.2952
0
VERTEX
8
CUT
10
114.5335
20
148.2483
0
VERTEX
8
CUT
10
113.7696
20
148.0724
0
VERTEX
8
CUT
10
113.7506
20
148.0685
0
VERTEX
8
CUT
10
113.6714
20
148.0583
0
VERTEX
8
CUT
10
113.6521
20
148.0572
0
VERTEX
8
CUT
10
113.6505
20
148.0571
0
VERTEX
8
CUT
10
113.4022
20
148.0368
0
VERTEX
8
CUT
10
113.1570
20
147.9918
0
VERTEX
8
CUT
10
112.9176
20
147.9226
0
VERTEX
8
CUT
10
112.6862
20
147.8299
0
VERTEX
8
CUT
10
112.4653
20
147.7147
0
VERTEX
8
CUT
10
112.2569
20
147.5780
0
VERTEX
8
CUT
10
112.0631
20
147.4213
0
VERTEX
8
CUT
10
111.8859
20
147.2460
0
VERTEX
8
CUT
10
111.7270
20
147.0540
0
VERTEX
8
CUT
10
111.5881
20
146.8471
0
VERTEX
8
CUT
10
111.4704
20
146.6274
0
VERTEX
8
CUT
10
111.3752
20
146.3971
0
VERTEX
8
CUT
10
111.3034
20
146.1584
0
VERTEX
8
CUT
10
111.2557
20
145.9138
0
VERTEX
8
CUT
10
111.2326
20
145.6656
0
VERTEX
8
CUT
10
111.2340
20
145.4686
0
VERTEX
8
CUT
10
111.2329
20
145.4436
0
VERTEX
8
CUT
10
111.2091
20
145.4117
0
VERTEX
8
CUT
10
111.1964
20
145.3971
0
VERTEX
8
CUT
10
109.2156
20
143.2304
0
VERTEX
8
CUT
10
109.0717
20
143.0580
0
VERTEX
8
CUT
10
108.9439
20
142.8735
0
VERTEX
8
CUT
10
108.8331
20
142.6782
0
VERTEX
8
CUT
10
107.9504
20
140.9452
0
VERTEX
8
CUT
10
107.8498
20
140.7209
0
VERTEX
8
CUT
10
107.7716
20
140.4878
0
VERTEX
8
CUT
10
107.4472
20
139.3351
0
VERTEX
8
CUT
10
107.4412
20
139.3158
0
VERTEX
8
CUT
10
107.4105
20
139.2380
0
VERTEX
8
CUT
10
107.4017
20
139.2198
0
VERTEX
8
CUT
10
107.1039
20
138.6450
0
VERTEX
8
CUT
10
107.0035
20
138.4258
0
VERTEX
8
CUT
10
106.9246
20
138.1979
0
VERTEX
8
CUT
10
106.8681
20
137.9635
0
VERTEX
8
CUT
10
106.5800
20
136.4529
0
VERTEX
8
CUT
10
106.5762
20
136.4351
0
VERTEX
8
CUT
10
106.5555
20
136.3630
0
VERTEX
8
CUT
10
106.5493
20
136.3459
0
VERTEX
8
CUT
10
106.2314
20
135.5283
0
VERTEX
8
CUT
10
106.1593
20
135.3145
0
VERTEX
8
CUT
10
106.1067
20
135.0952
0
VERTEX
8
CUT
10
106.0740
20
134.8720
0
VERTEX
8
CUT
10
106.0617
20
134.6467
0
VERTEX
8
CUT
10
106.0489
20
133.3289
0
VERTEX
8
CUT
10
106.0618
20
133.0493
0
VERTEX
8
CUT
10
106.1059
20
132.7729
0
VERTEX
8
CUT
10
106.1807
20
132.5031
0
VERTEX
8
CUT
10
106.2817
20
132.2046
0
VERTEX
8
CUT
10
106.2875
20
132.1860
0
VERTEX
8
CUT
10
106.2966
20
132.1468
0
VERTEX
8
CUT
10
106.3018
20
132.1070
0
VERTEX
8
CUT
10
106.3029
20
132.0875
0
SEQEND
0
POLYLINE
8
CUT
66
1
70
1
10
0.0
20
0.0
30
0.0
0
VERTEX
8
CUT
10
115.5956
20
24.8152
0
VERTEX
8
CUT
10
115.7801
20
24.6455
0
VERTEX
8
CUT
10
115.9808
20
24.4951
0
VERTEX
8
CUT
10
116.1955
20
24.3655
0
VERTEX
8
CUT
10
116.4221
20
24.2581
0
VERTEX
8
CUT
10
116.6583
20
24.1740
0
VERTEX
8
CUT
10
116.9017
20
24.1139
0
VERTEX
8
CUT
10
117.1500
20
24.0786
0
VERTEX
8
CUT
10
117.4005
20
24.0682
0
VERTEX
8
CUT
10
117.4751
20
24.0689
0
VERTEX
8
CUT
10
117.7040
20
24.0815
0
VERTEX
8
CUT
10
117.9308
20
24.1149
0
VERTEX
8
CUT
10
118.1535
20
24.1690
0
VERTEX
8
CUT
10
118.3704
20
24.2433
0
VERTEX
8
CUT
10
118.5795
20
24.3372
0
VERTEX
8
CUT
10
118.8371
20
24.4672
0
VERTEX
8
CUT
10
119.0711
20
24.6017
0
VERTEX
8
CUT
10
119.2892
20
24.7606
0
VERTEX
8
CUT
10
119.4889
20
24.9421
0
VERTEX
8
CUT
10
119.7361
20
25.1923
0
VERTEX
8
CUT
10
119.9151
20
25.3943
0
VERTEX
8
CUT
10
120.0714
20
25.6145
0
VERTEX
8
CUT
10
120.2030
20
25.8503
0
VERTEX
8
CUT
10
120.3269
20
26.1036
0
VERTEX
8
CUT
10
120.4178
20
26.3130
0
VERTEX
8
CUT
10
120.4892
20
26.5299
0
VERTEX
8
CUT
10
120.5405
20
26.7524
0
VERTEX
8
CUT
10
120.5713
20
26.9786
0
VERTEX
8
CUT
10
120.5813
20
27.2067
0
VERTEX
8
CUT
10
120.5807
20
27.5607
0
VERTEX
8
CUT
10
120.5678
20
27.8097
0
VERTEX
8
CUT
10
120.5302
20
28.0562
0
VERTEX
8
CUT
10
120.4683
20
28.2977
0
VERTEX
8
CUT
10
120.3825
20
28.5318
0
VERTEX
8
CUT
10
120.2739
20
28.7562
0
VERTEX
8
CUT
10
120.1435
20
28.9687
0
VERTEX
8
CUT
10
119.9926
20
29.1672
0
VERTEX
8
CUT
10
119.8226
20
29.3496
0
VERTEX
8
CUT
10
119.3136
20
29.8440
0
VERTEX
8
CUT
10
119.1317
20
30.0043
0
VERTEX
8
CUT
10
118.9351
20
30.1463
0
VERTEX
8
CUT
10
118.7256
20
30.2685
0
VERTEX
8
CUT
10
118.5053
20
30.3699
0
VERTEX
8
CUT
10
118.2763
20
30.4494
0
VERTEX
8
CUT
10
118.0406
20
30.5064
0
VERTEX
8
CUT
10
117.8004
20
30.5403
0
VERTEX
8
CUT
10
117.5582
20
30.5507
0
VERTEX
8
CUT
10
117.2240
20
30.5489
0
VERTEX
8
CUT
10
116.9953
20
30.5372
0
VERTEX
8
CUT
10
116.7686
20
30.5046
0
VERTEX
8
CUT
10
116.5459
20
30.4513
0
VERTEX
8
CUT
10
116.3290
20
30.3780
0
VERTEX
8
CUT
10
116.1197
20
30.2851
0
VERTEX
8
CUT
10
115.8545
20
30.1525
0
VERTEX
8
CUT
10
115.6171
20
30.0171
0
VERTEX
8
CUT
10
115.3960
20
29.8567
0
VERTEX
8
CUT
10
115.1937
20
29.6731
0
VERTEX
8
CUT
10
114.9447
20
29.4210
0
VERTEX
8
CUT
10
114.7688
20
29.2229
0
VERTEX
8
CUT
10
114.6148
20
29.0073
0
VERTEX
8
CUT
10
114.4845
20
28.7766
0
VERTEX
8
CUT
10
114.3783
20
28.5630
0
VERTEX
8
CUT
10
114.2838
20
28.3478
0
VERTEX
8
CUT
10
114.2098
20
28.1248
0
VERTEX
8
CUT
10
114.1572
20
27.8958
0
VERTEX
8
CUT
10
114.1262
20
27.6628
0
VERTEX
8
CUT
10
114.1173
20
27.4280
0
VERTEX
8
CUT
10
114.1305
20
27.1934
0
VERTEX
8
CUT
10
114.1656
20
26.9610
0
VERTEX
8
CUT
10
114.2224
20
26.7330
0
VERTEX
8
CUT
10
114.3004
20
26.5113
0
VERTEX
8
CUT
10
114.3988
20
26.2980
0
VERTEX
8
CUT
10
114.5186
20
26.0674
0
VERTEX
8
CUT
10
114.6437
20
25.8532
0
VERTEX
8
CUT
10
114.7895
20
25.6525
0
VERTEX
8
CUT
10
114.9545
20
25.4672
0
SEQEND
0
POLYLINE
8
CUT
66
1
70
1
10
0.0
20
0.0
30
0.0
0
VERTEX
8
CUT
10
66.0178
20
144.1586
0
VERTEX
8
CUT
10
66.0513
20
143.9125
0
VERTEX
8
CUT
10
66.1091
20
143.6708
0
VERTEX
8
CUT
10
66.1905
20
143.4361
0
VERTEX
8
CUT
10
66.2949
20
143.2106
0
VERTEX
8
CUT
10
66.4211
20
142.9966
0
VERTEX
8
CUT
10
66.5679
20
142.7962
0
VERTEX
8
CUT
10
66.7339
20
142.6113
0
VERTEX
8
CUT
10
66.9174
20
142.4439
0
VERTEX
8
CUT
10
67.1167
20
142.2954
0
VERTEX
8
CUT
10
67.3297
20
142.1675
0
VERTEX
8
CUT
10
67.5543
20
142.0614
0
VERTEX
8
CUT
10
67.7884
20
141.9780
0
VERTEX
8
CUT
10
68.0296
20
141.9184
0
VERTEX
8
CUT
10
68.2755
20
141.8829
0
VERTEX
8
CUT
10
68.5237
20
141.8721
0
VERTEX
8
CUT
10
68.7717
20
141.8859
0
VERTEX
8
CUT
10
69.0172
20
141.9243
0
VERTEX
8
CUT
10
69.2577
20
141.9868
0
VERTEX
8
CUT
10
69.2802
20
141.9939
0
VERTEX
8
CUT
10
69.3197
20
141.9982
0
VERTEX
8
CUT
10
69.3382
20
141.9988
0
VERTEX
8
CUT
10
72.1833
20
142.0220
0
VERTEX
8
CUT
10
72.2010
20
142.0217
0
VERTEX
8
CUT
10
72.2388
20
142.0184
0
VERTEX
8
CUT
10
72.2742
20
142.0047
0
VERTEX
8
CUT
10
72.2902
20
141.9971
0
VERTEX
8
CUT
10
73.8955
20
141.1927
0
VERTEX
8
CUT
10
73.9116
20
141.1841
0
VERTEX
8
CUT
10
73.9781
20
141.1423
0
VERTEX
8
CUT
10
73.9928
20
141.1315
0
VERTEX
8
CUT
10
75.3855
20
140.0546
0
VERTEX
8
CUT
10
75.3895
20
140.0514
0
VERTEX
8
CUT
10
75.4474
20
139.9990
0
VERTEX
8
CUT
10
75.4599
20
139.9863
0
VERTEX
8
CUT
10
76.2154
20
139.1762
0
VERTEX
8
CUT
10
76.2191
20
139.1721
0
VERTEX
8
CUT
10
76.2716
20
139.1054
0
VERTEX
8
CUT
10
76.2825
20
139.0895
0
VERTEX
8
CUT
10
77.5068
20
137.1986
0
VERTEX
8
CUT
10
77.6227
20
137.0345
0
VERTEX
8
CUT
10
80.2816
20
133.5730
0
VERTEX
8
CUT
10
80.5178
20
133.3070
0
VERTEX
8
CUT
10
82.0839
20
131.7781
0
VERTEX
8
CUT
10
82.2512
20
131.6288
0
VERTEX
8
CUT
10
82.4312
20
131.4951
0
VERTEX
8
CUT
10
84.5171
20
130.0865
0
VERTEX
8
CUT
10
84.7445
20
129.9499
0
VERTEX
8
CUT
10
84.9850
20
129.8382
0
VERTEX
8
CUT
10
87.4303
20
128.8567
0
VERTEX
8
CUT
10
87.6132
20
128.7914
0
VERTEX
8
CUT
10
90.3519
20
127.9322
0
VERTEX
8
CUT
10
90.5976
20
127.8687
0
VERTEX
8
CUT
10
90.8484
20
127.8303
0
VERTEX
8
CUT
10
91.1018
20
127.8176
0
VERTEX
8
CUT
10
91.3552
20
127.8306
0
VERTEX
8
CUT
10
91.6060
20
127.8693
0
VERTEX
8
CUT
10
91.8516
20
127.9332
0
VERTEX
8
CUT
10
92.0894
20
128.0216
0
VERTEX
8
CUT
10
92.3171
20
128.1337
0
VERTEX
8
CUT
10
92.5322
20
128.2683
0
VERTEX
8
CUT
10
92.7325
20
128.4240
0
VERTEX
8
CUT
10
92.9161
20
128.5992
0
VERTEX
8
CUT
10
92.9586
20
128.6442
0
VERTEX
8
CUT
10
93.0414
20
128.7162
0
VERTEX
8
CUT
10
93.1307
20
128.7799
0
VERTEX
8
CUT
10
93.2258
20
128.8347
0
VERTEX
8
CUT
10
93.3257
20
128.8801
0
VERTEX
8
CUT
10
93.4347
20
128.9174
0
VERTEX
8
CUT
10
93.4532
20
128.9227
0
VERTEX
8
CUT
10
93.5116
20
128.9380
0
VERTEX
8
CUT
10
93.6026
20
128.9596
0
VERTEX
8
CUT
10
93.8884
20
129.0456
0
VERTEX
8
CUT
10
94.1620
20
129.1652
0
VERTEX
8
CUT
10
94.6645
20
129.4215
0
VERTEX
8
CUT
10
94.7067
20
129.4404
0
VERTEX
8
CUT
10
94.6751
20
129.4066
0
VERTEX
8
CUT
10
94.1262
20
128.8744
0
VERTEX
8
CUT
10
94.1117
20
128.8610
0
VERTEX
8
CUT
10
94.0798
20
128.8357
0
VERTEX
8
CUT
10
94.0647
20
128.8260
0
VERTEX
8
CUT
10
93.8636
20
128.6823
0
VERTEX
8
CUT
10
93.6777
20
128.5194
0
VERTEX
8
CUT
10
93.5088
20
128.3389
0
VERTEX
8
CUT
10
93.3585
20
128.1427
0
VERTEX
8
CUT
10
93.2283
20
127.9325
0
VERTEX
8
CUT
10
93.1195
20
127.7106
0
VERTEX
8
CUT
10
93.0332
20
127.4790
0
VERTEX
8
CUT
10
92.9702
20
127.2399
0
VERTEX
8
CUT
10
92.9311
20
126.9959
0
VERTEX
8
CUT
10
92.9162
20
126.7491
0
VERTEX
8
CUT
10
92.9259
20
126.5021
0
VERTEX
8
CUT
10
92.9598
20
126.2573
0
VERTEX
8
CUT
10
93.0178
20
126.0170
0
VERTEX
8
CUT
10
93.0992
20
125.7836
0
VERTEX
8
CUT
10
93.2033
20
125.5594
0
VERTEX
8
CUT
10
93.3290
20
125.3466
0
VERTEX
8
CUT
10
93.4751
20
125.1472
0
VERTEX
8
CUT
10
93.6401
20
124.9632
0
VERTEX
8
CUT
10
93.8226
20
124.7964
0
VERTEX
8
CUT
10
94.0206
20
124.6485
0
VERTEX
8
CUT
10
94.2322
20
124.5208
0
VERTEX
8
CUT
10
94.4555
20
124.4147
0
VERTEX
8
CUT
10
98.2976
20
122.8155
0
VERTEX
8
CUT
10
98.4730
20
122.7501
0
VERTEX
8
CUT
10
98.6527
20
122.6980
0
VERTEX
8
CUT
10
99.8573
20
122.3973
0
VERTEX
8
CUT
10
100.0970
20
122.3498
0
VERTEX
8
CUT
10
100.3403
20
122.3259
0
VERTEX
8
CUT
10
100.5847
20
122.3259
0
VERTEX
8
CUT
10
100.8279
20
122.3497
0
VERTEX
8
CUT
10
101.0677
20
122.3972
0
VERTEX
8
CUT
10
101.3016
20
122.4678
0
VERTEX
8
CUT
10
101.5276
20
122.5610
0
VERTEX
8
CUT
10
101.7434
20
122.6758
0
VERTEX
8
CUT
10
101.9469
20
122.8111
0
VERTEX
8
CUT
10
102.1363
20
122.9657
0
VERTEX
8
CUT
10
102.3096
20
123.1379
0
VERTEX
8
CUT
10
102.4653
20
123.3263
0
VERTEX
8
CUT
10
102.6019
20
123.5290
0
VERTEX
8
CUT
10
102.7180
20
123.7441
0
VERTEX
8
CUT
10
102.8126
20
123.9695
0
VERTEX
8
CUT
10
102.8847
20
124.2030
0
VERTEX
8
CUT
10
102.9337
20
124.4425
0
VERTEX
8
CUT
10
102.9590
20
124.6856
0
VERTEX
8
CUT
10
102.9605
20
124.9300
0
VERTEX
8
CUT
10
102.9381
20
125.1734
0
VERTEX
8
CUT
10
102.8920
20
125.4134
0
VERTEX
8
CUT
10
102.8228
20
125.6478
0
VERTEX
8
CUT
10
102.7309
20
125.8743
0
VERTEX
8
CUT
10
102.6174
20
126.0908
0
VERTEX
8
CUT
10
102.4833
20
126.2951
0
VERTEX
8
CUT
10
102.3299
20
126.4854
0
VERTEX
8
CUT
10
102.1586
20
126.6597
0
VERTEX
8
CUT
10
101.9712
20
126.8166
0
VERTEX
8
CUT
10
101.7693
20
126.9543
0
VERTEX
8
CUT
10
100.5570
20
127.6975
0
VERTEX
8
CUT
10
100.5378
20
127.7100
0
VERTEX
8
CUT
10
100.4633
20
127.7685
0
VERTEX
8
CUT
10
100.4465
20
127.7841
0
VERTEX
8
CUT
10
99.3767
20
128.8437
0
VERTEX
8
CUT
10
99.3620
20
128.8590
0
VERTEX
8
CUT
10
99.3344
20
128.8930
0
VERTEX
8
CUT
10
99.3146
20
128.9321
0
VERTEX
8
CUT
10
99.3066
20
128.9518
0
VERTEX
8
CUT
10
99.2859
20
129.0067
0
VERTEX
8
CUT
10
99.2448
20
129.1162
0
VERTEX
8
CUT
10
99.1487
20
129.3382
0
VERTEX
8
CUT
10
99.0317
20
129.5499
0
VERTEX
8
CUT
10
98.8948
20
129.7492
0
VERTEX
8
CUT
10
98.7392
20
129.9345
0
VERTEX
8
CUT
10
98.5665
20
130.1038
0
VERTEX
8
CUT
10
98.3782
20
130.2556
0
VERTEX
8
CUT
10
98.1762
20
130.3886
0
VERTEX
8
CUT
10
97.9622
20
130.5013
0
VERTEX
8
CUT
10
97.7383
20
130.5929
0
VERTEX
8
CUT
10
97.5918
20
130.6369
0
VERTEX
8
CUT
10
97.6389
20
130.7195
0
VERTEX
8
CUT
10
97.7383
20
130.9421
0
VERTEX
8
CUT
10
97.8156
20
131.1732
0
VERTEX
8
CUT
10
97.8700
20
131.4108
0
VERTEX
8
CUT
10
97.9011
20
131.6526
0
VERTEX
8
CUT
10
97.9084
20
131.8962
0
VERTEX
8
CUT
10
97.8920
20
132.1394
0
VERTEX
8
CUT
10
97.8519
20
132.3798
0
VERTEX
8
CUT
10
97.7887
20
132.6152
0
VERTEX
8
CUT
10
97.7028
20
132.8433
0
VERTEX
8
CUT
10
97.5963
20
133.0596
0
VERTEX
8
CUT
10
97.5863
20
133.0829
0
VERTEX
8
CUT
10
97.5176
20
133.2679
0
VERTEX
8
CUT
10
97.4094
20
133.4897
0
VERTEX
8
CUT
10
97.2798
20
133.6997
0
VERTEX
8
CUT
10
97.1302
20
133.8959
0
VERTEX
8
CUT
10
96.9619
20
134.0764
0
VERTEX
8
CUT
10
96.7767
20
134.2394
0
VERTEX
8
CUT
10
96.5763
20
134.3834
0
VERTEX
8
CUT
10
96.3627
20
134.5069
0
VERTEX
8
CUT
10
96.1379
20
134.6088
0
VERTEX
8
CUT
10
95.9042
20
134.6880
0
VERTEX
8
CUT
10
95.6638
20
134.7438
0
VERTEX
8
CUT
10
95.4191
20
134.7756
0
VERTEX
8
CUT
10
95.1725
20
134.7832
0
VERTEX
8
CUT
10
94.9263
20
134.7663
0
VERTEX
8
CUT
10
94.6830
20
134.7253
0
VERTEX
8
CUT
10
94.4449
20
134.6606
0
VERTEX
8
CUT
10
93.2229
20
134.2623
0
VERTEX
8
CUT
10
93.2044
20
134.2568
0
VERTEX
8
CUT
10
93.1638
20
134.2480
0
VERTEX
8
CUT
10
93.1225
20
134.2435
0
VERTEX
8
CUT
10
93.1032
20
134.2429
0
VERTEX
8
CUT
10
91.7670
20
134.2343
0
VERTEX
8
CUT
10
91.7475
20
134.2347
0
VERTEX
8
CUT
10
91.7056
20
134.2388
0
VERTEX
8
CUT
10
91.6644
20
134.2472
0
VERTEX
8
CUT
10
91.6456
20
134.2526
0
VERTEX
8
CUT
10
90.7004
20
134.5513
0
VERTEX
8
CUT
10
90.6835
20
134.5570
0
VERTEX
8
CUT
10
90.6128
20
134.5870
0
VERTEX
8
CUT
10
90.5969
20
134.5951
0
VERTEX
8
CUT
10
88.7757
20
135.5784
0
VERTEX
8
CUT
10
88.7612
20
135.5867
0
VERTEX
8
CUT
10
88.7310
20
135.6066
0
VERTEX
8
CUT
10
88.7053
20
135.6313
0
VERTEX
8
CUT
10
88.6938
20
135.6438
0
VERTEX
8
CUT
10
88.2816
20
136.1149
0
VERTEX
8
CUT
10
88.2781
20
136.1191
0
VERTEX
8
CUT
10
88.2476
20
136.1604
0
VERTEX
8
CUT
10
88.2338
20
136.1831
0
VERTEX
8
CUT
10
88.2227
20
136.2042
0
VERTEX
8
CUT
10
86.8877
20
138.9013
0
VERTEX
8
CUT
10
86.8805
20
138.9166
0
VERTEX
8
CUT
10
86.8674
20
138.9506
0
VERTEX
8
CUT
10
86.8638
20
138.9869
0
VERTEX
8
CUT
10
86.8633
20
139.0034
0
VERTEX
8
CUT
10
86.8337
20
142.9327
0
VERTEX
8
CUT
10
86.8341
20
142.9526
0
VERTEX
8
CUT
10
86.8382
20
142.9951
0
VERTEX
8
CUT
10
86.8469
20
143.0369
0
VERTEX
8
CUT
10
86.8524
20
143.0560
0
VERTEX
8
CUT
10
87.9463
20
146.4740
0
VERTEX
8
CUT
10
87.9480
20
146.4789
0
VERTEX
8
CUT
10
87.9779
20
146.5522
0
VERTEX
8
CUT
10
87.9857
20
146.5684
0
VERTEX
8
CUT
10
88.5341
20
147.6379
0
VERTEX
8
CUT
10
88.5366
20
147.6425
0
VERTEX
8
CUT
10
88.5789
20
147.7111
0
VERTEX
8
CUT
10
88.5895
20
147.7261
0
VERTEX
8
CUT
10
90.2768
20
149.9883
0
VERTEX
8
CUT
10
90.2884
20
150.0031
0
VERTEX
8
CUT
10
90.3432
20
150.0629
0
VERTEX
8
CUT
10
90.3569
20
150.0758
0
VERTEX
8
CUT
10
93.7023
20
153.0709
0
VERTEX
8
CUT
10
93.7169
20
153.0833
0
VERTEX
8
CUT
10
93.7504
20
153.1077
0
VERTEX
8
CUT
10
93.7863
20
153.1284
0
VERTEX
8
CUT
10
93.8036
20
153.1368
0
VERTEX
8
CUT
10
96.8734
20
154.5181
0
VERTEX
8
CUT
10
97.1408
20
154.6584
0
VERTEX
8
CUT
10
98.6390
20
155.5641
0
VERTEX
8
CUT
10
98.6562
20
155.5739
0
VERTEX
8
CUT
10
98.6947
20
155.5919
0
VERTEX
8
CUT
10
98.7361
20
155.6015
0
VERTEX
8
CUT
10
98.7556
20
155.6044
0
VERTEX
8
CUT
10
99.1909
20
155.6573
0
VERTEX
8
CUT
10
99.4753
20
155.7087
0
VERTEX
8
CUT
10
99.7519
20
155.7925
0
VERTEX
8
CUT
10
101.5198
20
156.4424
0
VERTEX
8
CUT
10
101.5370
20
156.4482
0
VERTEX
8
CUT
10
101.5747
20
156.4581
0
VERTEX
8
CUT
10
101.6132
20
156.4643
0
VERTEX
8
CUT
10
101.6312
20
156.4658
0
VERTEX
8
CUT
10
102.2829
20
156.5070
0
VERTEX
8
CUT
10
102.5078
20
156.5314
0
VERTEX
8
CUT
10
102.7296
20
156.5761
0
VERTEX
8
CUT
10
104.6121
20
157.0449
0
VERTEX
8
CUT
10
104.8720
20
157.1249
0
VERTEX
8
CUT
10
106.7575
20
157.8194
0
VERTEX
8
CUT
10
106.7760
20
157.8256
0
VERTEX
8
CUT
10
106.8577
20
157.8464
0
VERTEX
8
CUT
10
106.8769
20
157.8498
0
VERTEX
8
CUT
10
108.7839
20
158.1286
0
VERTEX
8
CUT
10
109.0419
20
158.1804
0
VERTEX
8
CUT
10
109.2930
20
158.2589
0
VERTEX
8
CUT
10
109.5345
20
158.3634
0
VERTEX
8
CUT
10
110.6655
20
158.9254
0
VERTEX
8
CUT
10
110.8486
20
159.0261
0
VERTEX
8
CUT
10
111.0226
20
159.1417
0
VERTEX
8
CUT
10
111.7851
20
159.6957
0
VERTEX
8
CUT
10
111.9469
20
159.8238
0
VERTEX
8
CUT
10
112.0976
20
159.9649
0
VERTEX
8
CUT
10
113.3586
20
161.2464
0
VERTEX
8
CUT
10
113.5042
20
161.4079
0
VERTEX
8
CUT
10
113.6352
20
161.5813
0
VERTEX
8
CUT
10
113.7506
20
161.7656
0
VERTEX
8
CUT
10
114.6891
20
163.4187
0
VERTEX
8
CUT
10
114.8047
20
163.6492
0
VERTEX
8
CUT
10
114.8959
20
163.8905
0
VERTEX
8
CUT
10
114.9618
20
164.1399
0
VERTEX
8
CUT
10
115.0016
20
164.3947
0
VERTEX
8
CUT
10
115.0150
20
164.6523
0
VERTEX
8
CUT
10
115.0154
20
166.8519
0
VERTEX
8
CUT
10
115.0044
20
167.0872
0
VERTEX
8
CUT
10
114.9712
20
167.3204
0
VERTEX
8
CUT
10
114.9163
20
167.5495
0
VERTEX
8
CUT
10
114.8400
20
167.7724
0
VERTEX
8
CUT
10
114.7431
20
167.9871
0
VERTEX
8
CUT
10
114.5688
20
168.3293
0
VERTEX
8
CUT
10
114.4547
20
168.5299
0
VERTEX
8
CUT
10
114.3226
20
168.7191
0
VERTEX
8
CUT
10
111.6989
20
172.1294
0
VERTEX
8
CUT
10
111.5918
20
172.2593
0
VERTEX
8
CUT
10
110.5051
20
173.4905
0
VERTEX
8
CUT
10
110.3284
20
173.6714
0
VERTEX
8
CUT
10
110.1342
20
173.8335
0
VERTEX
8
CUT
10
109.9247
20
173.9752
0
VERTEX
8
CUT
10
109.7019
20
174.0950
0
VERTEX
8
CUT
10
109.4681
20
174.1917
0
VERTEX
8
CUT
10
109.2258
20
174.2643
0
VERTEX
8
CUT
10
108.9774
20
174.3120
0
VERTEX
8
CUT
10
108.7254
20
174.3343
0
VERTEX
8
CUT
10
108.4725
20
174.3311
0
VERTEX
8
CUT
10
108.2211
20
174.3023
0
VERTEX
8
CUT
10
107.9740
20
174.2483
0
VERTEX
8
CUT
10
107.7336
20
174.1696
0
VERTEX
8
CUT
10
107.6980
20
174.1559
0
VERTEX
8
CUT
10
107.6605
20
174.1446
0
VERTEX
8
CUT
10
107.6285
20
174.1672
0
VERTEX
8
CUT
10
107.6143
20
174.1790
0
VERTEX
8
CUT
10
107.3029
20
174.4504
0
VERTEX
8
CUT
10
107.1135
20
174.6000
0
VERTEX
8
CUT
10
106.9105
20
174.7306
0
VERTEX
8
CUT
10
106.6959
20
174.8411
0
VERTEX
8
CUT
10
106.4716
20
174.9303
0
VERTEX
8
CUT
10
106.2398
20
174.9975
0
VERTEX
8
CUT
10
106.0026
20
175.0420
0
VERTEX
8
CUT
10
105.7622
20
175.0635
0
VERTEX
8
CUT
10
105.5208
20
175.0617
0
VERTEX
8
CUT
10
105.2808
20
175.0365
0
VERTEX
8
CUT
10
105.0442
20
174.9884
0
VERTEX
8
CUT
10
104.8135
20
174.9177
0
VERTEX
8
CUT
10
104.5906
20
174.8251
0
VERTEX
8
CUT
10
104.3777
20
174.7113
0
VERTEX
8
CUT
10
104.1767
20
174.5776
0
VERTEX
8
CUT
10
103.9896
20
174.4252
0
VERTEX
8
CUT
10
103.8181
20
174.2554
0
VERTEX
8
CUT
10
103.6637
20
174.0698
0
VERTEX
8
CUT
10
103.3574
20
173.6632
0
VERTEX
8
CUT
10
103.3461
20
173.6490
0
VERTEX
8
CUT
10
103.2932
20
173.5913
0
VERTEX
8
CUT
10
103.2800
20
173.5788
0
VERTEX
8
CUT
10
100.3925
20
170.9822
0
VERTEX
8
CUT
10
100.3884
20
170.9787
0
VERTEX
8
CUT
10
100.3479
20
170.9478
0
VERTEX
8
CUT
10
100.3255
20
170.9337
0
VERTEX
8
CUT
10
100.3047
20
170.9224
0
VERTEX
8
CUT
10
98.5866
20
170.0386
0
VERTEX
8
CUT
10
98.5823
20
170.0364
0
VERTEX
8
CUT
10
98.5143
20
170.0075
0
VERTEX
8
CUT
10
98.4985
20
170.0018
0
VERTEX
8
CUT
10
96.9128
20
169.4728
0
VERTEX
8
CUT
10
96.8375
20
169.4504
0
VERTEX
8
CUT
10
96.7608
20
169.4330
0
VERTEX
8
CUT
10
95.3316
20
169.1581
0
VERTEX
8
CUT
10
95.1081
20
169.1043
0
VERTEX
8
CUT
10
94.8905
20
169.0302
0
VERTEX
8
CUT
10
94.6806
20
168.9365
0
VERTEX
8
CUT
10
94.5710
20
168.8813
0
VERTEX
8
CUT
10
94.3557
20
168.7593
0
VERTEX
8
CUT
10
94.1535
20
168.6167
0
VERTEX
8
CUT
10
93.9665
20
168.4547
0
VERTEX
8
CUT
10
93.7963
20
168.2751
0
VERTEX
8
CUT
10
93.6448
20
168.0795
0
VERTEX
8
CUT
10
93.5133
20
167.8699
0
VERTEX
8
CUT
10
93.4032
20
167.6483
0
VERTEX
8
CUT
10
93.3155
20
167.4169
0
VERTEX
8
CUT
10
93.2512
20
167.1780
0
VERTEX
8
CUT
10
93.2107
20
166.9339
0
VERTEX
8
CUT
10
93.1743
20
166.6174
0
VERTEX
8
CUT
10
93.1720
20
166.6005
0
VERTEX
8
CUT
10
93.1645
20
166.5647
0
VERTEX
8
CUT
10
93.1418
20
166.5357
0
VERTEX
8
CUT
10
93.1307
20
166.5234
0
VERTEX
8
CUT
10
92.2863
20
165.6290
0
VERTEX
8
CUT
10
92.2733
20
165.6158
0
VERTEX
8
CUT
10
92.2129
20
165.5633
0
VERTEX
8
CUT
10
92.1981
20
165.5522
0
VERTEX
8
CUT
10
91.1186
20
164.7861
0
VERTEX
8
CUT
10
91.1036
20
164.7760
0
VERTEX
8
CUT
10
91.0357
20
164.7370
0
VERTEX
8
CUT
10
91.0193
20
164.7292
0
VERTEX
8
CUT
10
88.0199
20
163.3738
0
VERTEX
8
CUT
10
88.0043
20
163.3672
0
VERTEX
8
CUT
10
87.9349
20
163.3431
0
VERTEX
8
CUT
10
87.9184
20
163.3386
0
VERTEX
8
CUT
10
85.7791
20
162.8070
0
VERTEX
8
CUT
10
85.7605
20
162.8028
0
VERTEX
8
CUT
10
85.6788
20
162.7912
0
VERTEX
8
CUT
10
85.6597
20
162.7899
0
VERTEX
8
CUT
10
84.6664
20
162.7499
0
VERTEX
8
CUT
10
84.4055
20
162.7257
0
VERTEX
8
CUT
10
84.1486
20
162.6742
0
VERTEX
8
CUT
10
83.8984
20
162.5962
0
VERTEX
8
CUT
10
83.7068
20
162.5252
0
VERTEX
8
CUT
10
83.6910
20
162.5197
0
VERTEX
8
CUT
10
83.6560
20
162.5102
0
VERTEX
8
CUT
10
83.6204
20
162.5072
0
VERTEX
8
CUT
10
83.6034
20
162.5068
0
VERTEX
8
CUT
10
79.7900
20
162.5181
0
VERTEX
8
CUT
10
79.7687
20
162.5188
0
VERTEX
8
CUT
10
79.7231
20
162.5241
0
VERTEX
8
CUT
10
79.6784
20
162.5346
0
VERTEX
8
CUT
10
79.6581
20
162.5412
0
VERTEX
8
CUT
10
77.9251
20
163.1631
0
VERTEX
8
CUT
10
77.7114
20
163.2291
0
VERTEX
8
CUT
10
77.4927
20
163.2758
0
VERTEX
8
CUT
10
77.2707
20
163.3027
0
VERTEX
8
CUT
10
76.6253
20
163.3519
0
VERTEX
8
CUT
10
76.6252
20
163.3506
0
VERTEX
8
CUT
10
76.4259
20
163.3603
0
VERTEX
8
CUT
10
76.1875
20
163.3491
0
VERTEX
8
CUT
10
75.9512
20
163.3153
0
VERTEX
8
CUT
10
75.7193
20
163.2591
0
VERTEX
8
CUT
10
75.4937
20
163.1810
0
VERTEX
8
CUT
10
75.2766
20
163.0817
0
VERTEX
8
CUT
10
75.0700
20
162.9623
0
VERTEX
8
CUT
10
74.8757
20
162.8236
0
VERTEX
8
CUT
10
74.6955
20
162.6671
0
VERTEX
8
CUT
10
74.5311
20
162.4940
0
VERTEX
8
CUT
10
74.4286
20
162.3753
0
VERTEX
8
CUT
10
74.3480
20
162.2986
0
VERTEX
8
CUT
10
74.2558
20
162.2267
0
VERTEX
8
CUT
10
74.2399
20
162.2155
0
VERTEX
8
CUT
10
74.1890
20
162.1815
0
VERTEX
8
CUT
10
72.9957
20
161.4260
0
VERTEX
8
CUT
10
72.7794
20
161.2724
0
VERTEX
8
CUT
10
72.5806
20
161.0967
0
VERTEX
8
CUT
10
71.6648
20
160.1966
0
VERTEX
8
CUT
10
71.6200
20
160.1547
0
VERTEX
8
CUT
10
71.6055
20
160.1418
0
VERTEX
8
CUT
10
71.5145
20
160.0684
0
VERTEX
8
CUT
10
71.4215
20
160.0074
0
VERTEX
8
CUT
10
71.3229
20
159.9558
0
VERTEX
8
CUT
10
71.2146
20
159.9119
0
VERTEX
8
CUT
10
71.1673
20
159.8954
0
VERTEX
8
CUT
10
71.1678
20
159.8938
0
VERTEX
8
CUT
10
71.0318
20
159.8465
0
VERTEX
8
CUT
10
70.8125
20
159.7456
0
VERTEX
8
CUT
10
70.6040
20
159.6241
0
VERTEX
8
CUT
10
70.4083
20
159.4830
0
VERTEX
8
CUT
10
70.2270
20
159.3237
0
VERTEX
8
CUT
10
70.0619
20
159.1476
0
VERTEX
8
CUT
10
69.9146
20
158.9565
0
VERTEX
8
CUT
10
69.7864
20
158.7520
0
VERTEX
8
CUT
10
69.6785
20
158.5362
0
VERTEX
8
CUT
10
69.5919
20
158.3109
0
VERTEX
8
CUT
10
69.5274
20
158.0784
0
VERTEX
8
CUT
10
69.4857
20
157.8407
0
VERTEX
8
CUT
10
69.4670
20
157.6001
0
VERTEX
8
CUT
10
69.4379
20
156.5965
0
VERTEX
8
CUT
10
69.4370
20
156.5792
0
VERTEX
8
CUT
10
69.4325
20
156.5422
0
VERTEX
8
CUT
10
69.4214
20
156.5071
0
VERTEX
8
CUT
10
69.4150
20
156.4908
0
VERTEX
8
CUT
10
69.3742
20
156.3936
0
VERTEX
8
CUT
10
69.2790
20
156.1251
0
VERTEX
8
CUT
10
69.2150
20
155.8475
0
VERTEX
8
CUT
10
69.1829
20
155.5644
0
VERTEX
8
CUT
10
69.1419
20
154.8278
0
VERTEX
8
CUT
10
69.1403
20
154.8081
0
VERTEX
8
CUT
10
69.1335
20
154.7663
0
VERTEX
8
CUT
10
69.1181
20
154.7268
0
VERTEX
8
CUT
10
69.1095
20
154.7091
0
VERTEX
8
CUT
10
68.8699
20
154.2461
0
VERTEX
8
CUT
10
68.7794
20
154.0511
0
VERTEX
8
CUT
10
68.7060
20
153.8491
0
VERTEX
8
CUT
10
68.6503
20
153.6416
0
VERTEX
8
CUT
10
68.6125
20
153.4300
0
VERTEX
8
CUT
10
68.5675
20
153.0945
0
VERTEX
8
CUT
10
68.5640
20
153.0734
0
VERTEX
8
CUT
10
68.5527
20
153.0287
0
VERTEX
8
CUT
10
68.5364
20
152.9856
0
VERTEX
8
CUT
10
68.5271
20
152.9663
0
VERTEX
8
CUT
10
68.0647
20
152.0703
0
VERTEX
8
CUT
10
67.9612
20
151.8426
0
VERTEX
8
CUT
10
67.8811
20
151.6056
0
VERTEX
8
CUT
10
67.8250
20
151.3618
0
VERTEX
8
CUT
10
67.7935
20
151.1137
0
VERTEX
8
CUT
10
67.7600
20
150.6738
0
VERTEX
8
CUT
10
67.7581
20
150.6551
0
VERTEX
8
CUT
10
67.7510
20
150.6153
0
VERTEX
8
CUT
10
67.7400
20
150.5764
0
VERTEX
8
CUT
10
67.7336
20
150.5588
0
VERTEX
8
CUT
10
67.3961
20
149.7037
0
VERTEX
8
CUT
10
67.3244
20
149.4955
0
VERTEX
8
CUT
10
67.2713
20
149.2818
0
VERTEX
8
CUT
10
67.2371
20
149.0642
0
VERTEX
8
CUT
10
67.1952
20
148.6895
0
VERTEX
8
CUT
10
67.1929
20
148.6724
0
VERTEX
8
CUT
10
67.1854
20
148.6360
0
VERTEX
8
CUT
10
67.1715
20
148.6019
0
VERTEX
8
CUT
10
67.1638
20
148.5862
0
VERTEX
8
CUT
10
66.9638
20
148.2019
0
VERTEX
8
CUT
10
66.8573
20
147.9685
0
VERTEX
8
CUT
10
66.7752
20
147.7255
0
VERTEX
8
CUT
10
66.7185
20
147.4754
0
VERTEX
8
CUT
10
66.6877
20
147.2207
0
VERTEX
8
CUT
10
66.6618
20
146.8454
0
VERTEX
8
CUT
10
66.6595
20
146.8227
0
VERTEX
8
CUT
10
66.6408
20
146.7259
0
VERTEX
8
CUT
10
66.6345
20
146.7040
0
VERTEX
8
CUT
10
66.1296
20
145.1400
0
VERTEX
8
CUT
10
66.0651
20
144.9000
0
VERTEX
8
CUT
10
66.0248
20
144.6549
0
VERTEX
8
CUT
10
66.0090
20
144.4069
0
SEQEND
0
POLYLINE
8
CUT
66
1
70
1
10
0.0
20
0.0
30
0.0
0
VERTEX
8
CUT
10
64.4022
20
42.3218
0
VERTEX
8
CUT
10
64.4018
20
42.3217
0
VERTEX
8
CUT
10
64.4401
20
42.2014
0
VERTEX
8
CUT
10
64.4485
20
42.1614
0
VERTEX
8
CUT
10
64.4510
20
42.1426
0
VERTEX
8
CUT
10
64.7541
20
39.2996
0
VERTEX
8
CUT
10
64.7834
20
39.1008
0
VERTEX
8
CUT
10
64.8285
20
38.9051
0
VERTEX
8
CUT
10
65.5655
20
36.2102
0
VERTEX
8
CUT
10
65.6473
20
35.9626
0
VERTEX
8
CUT
10
65.7545
20
35.7248
0
VERTEX
8
CUT
10
66.5896
20
34.1037
0
VERTEX
8
CUT
10
66.7155
20
33.8869
0
VERTEX
8
CUT
10
66.8624
20
33.6838
0
VERTEX
8
CUT
10
67.0289
20
33.4964
0
VERTEX
8
CUT
10
68.7168
20
31.7786
0
VERTEX
8
CUT
10
68.8946
20
31.6144
0
VERTEX
8
CUT
10
69.0874
20
31.4681
0
VERTEX
8
CUT
10
69.4150
20
31.2438
0
VERTEX
8
CUT
10
69.6366
20
31.1084
0
VERTEX
8
CUT
10
69.8709
20
30.9967
0
VERTEX
8
CUT
10
70.1156
20
30.9099
0
VERTEX
8
CUT
10
71.3743
20
30.5360
0
VERTEX
8
CUT
10
71.6088
20
30.4785
0
VERTEX
8
CUT
10
71.8478
20
30.4439
0
VERTEX
8
CUT
10
72.0890
20
30.4325
0
VERTEX
8
CUT
10
74.6410
20
30.4353
0
VERTEX
8
CUT
10
74.9081
20
30.4499
0
VERTEX
8
CUT
10
75.1721
20
30.4929
0
VERTEX
8
CUT
10
76.0017
20
30.6743
0
VERTEX
8
CUT
10
76.2000
20
30.7262
0
VERTEX
8
CUT
10
76.3934
20
30.7943
0
VERTEX
8
CUT
10
78.7610
20
31.7379
0
VERTEX
8
CUT
10
78.9808
20
31.8380
0
VERTEX
8
CUT
10
79.1898
20
31.9589
0
VERTEX
8
CUT
10
82.7405
20
34.2476
0
VERTEX
8
CUT
10
83.0309
20
34.4663
0
VERTEX
8
CUT
10
87.3185
20
38.2123
0
VERTEX
8
CUT
10
87.4443
20
38.3302
0
VERTEX
8
CUT
10
90.0682
20
40.9628
0
VERTEX
8
CUT
10
90.2001
20
41.1058
0
VERTEX
8
CUT
10
94.9984
20
46.7349
0
VERTEX
8
CUT
10
95.0748
20
46.8292
0
VERTEX
8
CUT
10
100.5353
20
53.9036
0
VERTEX
8
CUT
10
100.6176
20
54.0166
0
VERTEX
8
CUT
10
104.1845
20
59.2149
0
VERTEX
8
CUT
10
104.2437
20
59.3053
0
VERTEX
8
CUT
10
105.4031
20
61.1621
0
VERTEX
8
CUT
10
105.5259
20
61.3830
0
VERTEX
8
CUT
10
105.6259
20
61.6152
0
VERTEX
8
CUT
10
105.7018
20
61.8563
0
VERTEX
8
CUT
10
105.7491
20
62.0378
0
VERTEX
8
CUT
10
105.7539
20
62.0548
0
VERTEX
8
CUT
10
105.7669
20
62.0904
0
VERTEX
8
CUT
10
105.7863
20
62.1230
0
VERTEX
8
CUT
10
105.7963
20
62.1374
0
VERTEX
8
CUT
10
107.4837
20
64.4469
0
VERTEX
8
CUT
10
107.5909
20
64.6061
0
VERTEX
8
CUT
10
111.1232
20
70.3131
0
VERTEX
8
CUT
10
111.1971
20
70.4408
0
VERTEX
8
CUT
10
112.9789
20
73.7401
0
VERTEX
8
CUT
10
113.0680
20
73.9224
0
VERTEX
8
CUT
10
113.1420
20
74.1113
0
VERTEX
8
CUT
10
113.4222
20
74.9220
0
VERTEX
8
CUT
10
113.4302
20
74.9430
0
VERTEX
8
CUT
10
113.4728
20
75.0305
0
VERTEX
8
CUT
10
113.4844
20
75.0498
0
VERTEX
8
CUT
10
114.0664
20
75.9523
0
VERTEX
8
CUT
10
114.2017
20
76.1897
0
VERTEX
8
CUT
10
114.3103
20
76.4405
0
VERTEX
8
CUT
10
114.6087
20
77.2478
0
VERTEX
8
CUT
10
114.6770
20
77.4617
0
VERTEX
8
CUT
10
114.7259
20
77.6808
0
VERTEX
8
CUT
10
114.7548
20
77.9035
0
VERTEX
8
CUT
10
114.7637
20
78.1278
0
VERTEX
8
CUT
10
114.7541
20
79.9320
0
VERTEX
8
CUT
10
114.7420
20
80.1646
0
VERTEX
8
CUT
10
114.7083
20
80.3950
0
VERTEX
8
CUT
10
114.6534
20
80.6214
0
VERTEX
8
CUT
10
114.5776
20
80.8416
0
VERTEX
8
CUT
10
114.3774
20
81.3456
0
VERTEX
8
CUT
10
114.2586
20
81.6015
0
VERTEX
8
CUT
10
114.1118
20
81.8423
0
VERTEX
8
CUT
10
113.9388
20
82.0651
0
VERTEX
8
CUT
10
113.7930
20
82.2324
0
VERTEX
8
CUT
10
113.6524
20
82.3811
0
VERTEX
8
CUT
10
112.5687
20
83.4365
0
VERTEX
8
CUT
10
112.3549
20
83.6223
0
VERTEX
8
CUT
10
112.1215
20
83.7827
0
VERTEX
8
CUT
10
111.8248
20
83.9628
0
VERTEX
8
CUT
10
111.6410
20
84.0640
0
VERTEX
8
CUT
10
109.1209
20
85.3173
0
VERTEX
8
CUT
10
108.8145
20
85.4450
0
VERTEX
8
CUT
10
106.2897
20
86.3059
0
VERTEX
8
CUT
10
106.2140
20
86.3346
0
VERTEX
8
CUT
10
106.1403
20
86.3685
0
VERTEX
8
CUT
10
105.0968
20
86.8915
0
VERTEX
8
CUT
10
105.0419
20
86.9209
0
VERTEX
8
CUT
10
104.9885
20
86.9531
0
VERTEX
8
CUT
10
102.0034
20
88.8629
0
VERTEX
8
CUT
10
101.9448
20
88.9029
0
VERTEX
8
CUT
10
101.8887
20
88.9464
0
VERTEX
8
CUT
10
98.6609
20
91.6009
0
VERTEX
8
CUT
10
98.6121
20
91.6433
0
VERTEX
8
CUT
10
98.5656
20
91.6884
0
VERTEX
8
CUT
10
96.7685
20
93.5271
0
VERTEX
8
CUT
10
96.7174
20
93.5828
0
VERTEX
8
CUT
10
96.6700
20
93.6416
0
VERTEX
8
CUT
10
94.1678
20
96.9530
0
VERTEX
8
CUT
10
94.1428
20
96.9874
0
VERTEX
8
CUT
10
94.1190
20
97.0226
0
VERTEX
8
CUT
10
89.3226
20
104.4096
0
VERTEX
8
CUT
10
89.1918
20
104.5924
0
VERTEX
8
CUT
10
87.4091
20
106.8620
0
VERTEX
8
CUT
10
87.2192
20
107.0771
0
VERTEX
8
CUT
10
83.0353
20
111.3009
0
VERTEX
8
CUT
10
82.8806
20
111.4444
0
VERTEX
8
CUT
10
82.4605
20
111.8024
0
VERTEX
8
CUT
10
82.2650
20
111.9530
0
VERTEX
8
CUT
10
82.0556
20
112.0836
0
VERTEX
8
CUT
10
81.8343
20
112.1929
0
VERTEX
8
CUT
10
81.6033
20
112.2798
0
VERTEX
8
CUT
10
81.3649
20
112.3436
0
VERTEX
8
CUT
10
81.1214
20
112.3835
0
VERTEX
8
CUT
10
80.8751
20
112.3993
0
VERTEX
8
CUT
10
80.6284
20
112.3906
0
VERTEX
8
CUT
10
80.3838
20
112.3577
0
VERTEX
8
CUT
10
80.1437
20
112.3009
0
VERTEX
8
CUT
10
79.9103
20
112.2206
0
VERTEX
8
CUT
10
79.6860
20
112.1177
0
VERTEX
8
CUT
10
79.4729
20
111.9932
0
VERTEX
8
CUT
10
79.2731
20
111.8483
0
VERTEX
8
CUT
10
79.0886
20
111.6844
0
VERTEX
8
CUT
10
78.9211
20
111.5031
0
VERTEX
8
CUT
10
78.7723
20
111.3062
0
VERTEX
8
CUT
10
78.6437
20
111.0955
0
VERTEX
8
CUT
10
78.5365
20
110.8733
0
VERTEX
8
CUT
10
78.4517
20
110.6415
0
VERTEX
8
CUT
10
78.3902
20
110.4025
0
VERTEX
8
CUT
10
78.3525
20
110.1586
0
VERTEX
8
CUT
10
78.3391
20
109.9121
0
VERTEX
8
CUT
10
78.3500
20
109.6656
0
VERTEX
8
CUT
10
78.3852
20
109.4213
0
VERTEX
8
CUT
10
78.4443
20
109.1817
0
VERTEX
8
CUT
10
78.5268
20
108.9490
0
VERTEX
8
CUT
10
78.6318
20
108.7257
0
VERTEX
8
CUT
10
78.7583
20
108.5138
0
VERTEX
8
CUT
10
78.9050
20
108.3154
0
VERTEX
8
CUT
10
79.2885
20
107.8472
0
VERTEX
8
CUT
10
79.2916
20
107.8432
0
VERTEX
8
CUT
10
79.3362
20
107.7794
0
VERTEX
8
CUT
10
79.3455
20
107.7643
0
VERTEX
8
CUT
10
80.4363
20
105.8806
0
VERTEX
8
CUT
10
80.4461
20
105.8627
0
VERTEX
8
CUT
10
80.4817
20
105.7820
0
VERTEX
8
CUT
10
80.4885
20
105.7627
0
VERTEX
8
CUT
10
80.7715
20
104.8715
0
VERTEX
8
CUT
10
80.7771
20
104.8524
0
VERTEX
8
CUT
10
80.7856
20
104.8104
0
VERTEX
8
CUT
10
80.7897
20
104.7678
0
VERTEX
8
CUT
10
80.7900
20
104.7479
0
VERTEX
8
CUT
10
80.7596
20
101.8539
0
VERTEX
8
CUT
10
80.7589
20
101.8348
0
VERTEX
8
CUT
10
80.7544
20
101.7942
0
VERTEX
8
CUT
10
80.7417
20
101.7553
0
VERTEX
8
CUT
10
80.7344
20
101.7377
0
VERTEX
8
CUT
10
79.6646
20
99.3261
0
VERTEX
8
CUT
10
79.6624
20
99.3214
0
VERTEX
8
CUT
10
79.6248
20
99.2518
0
VERTEX
8
CUT
10
79.6153
20
99.2366
0
VERTEX
8
CUT
10
78.5203
20
97.5703
0
VERTEX
8
CUT
10
78.3927
20
97.3530
0
VERTEX
8
CUT
10
78.2876
20
97.1239
0
VERTEX
8
CUT
10
77.9529
20
96.2851
0
VERTEX
8
CUT
10
77.8696
20
96.0401
0
VERTEX
8
CUT
10
77.8120
20
95.7878
0
VERTEX
8
CUT
10
77.7808
20
95.5310
0
VERTEX
8
CUT
10
77.7447
20
95.0092
0
VERTEX
8
CUT
10
77.7431
20
94.9920
0
VERTEX
8
CUT
10
77.7372
20
94.9553
0
VERTEX
8
CUT
10
77.7195
20
94.8870
0
VERTEX
8
CUT
10
77.6805
20
94.7574
0
VERTEX
8
CUT
10
77.6317
20
94.5018
0
VERTEX
8
CUT
10
77.6098
20
94.2425
0
VERTEX
8
CUT
10
77.6150
20
93.9824
0
VERTEX
8
CUT
10
77.6471
20
93.7241
0
VERTEX
8
CUT
10
77.7459
20
93.1689
0
VERTEX
8
CUT
10
77.8015
20
92.9268
0
VERTEX
8
CUT
10
77.8808
20
92.6914
0
VERTEX
8
CUT
10
77.9831
20
92.4651
0
VERTEX
8
CUT
10
78.1990
20
92.0443
0
VERTEX
8
CUT
10
78.3313
20
91.8169
0
VERTEX
8
CUT
10
78.4868
20
91.6046
0
VERTEX
8
CUT
10
78.6637
20
91.4099
0
VERTEX
8
CUT
10
79.1162
20
90.9615
0
VERTEX
8
CUT
10
79.3171
20
90.7828
0
VERTEX
8
CUT
10
79.5360
20
90.6268
0
VERTEX
8
CUT
10
79.7703
20
90.4951
0
VERTEX
8
CUT
10
80.0175
20
90.3894
0
VERTEX
8
CUT
10
80.3702
20
90.2605
0
VERTEX
8
CUT
10
80.6058
20
90.1873
0
VERTEX
8
CUT
10
80.8475
20
90.1377
0
VERTEX
8
CUT
10
81.0930
20
90.1122
0
VERTEX
8
CUT
10
81.3397
20
90.1110
0
VERTEX
8
CUT
10
81.5854
20
90.1342
0
VERTEX
8
CUT
10
81.8276
20
90.1814
0
VERTEX
8
CUT
10
82.0586
20
90.2384
0
VERTEX
8
CUT
10
82.3292
20
90.3218
0
VERTEX
8
CUT
10
82.5887
20
90.4351
0
VERTEX
8
CUT
10
83.1686
20
90.7287
0
VERTEX
8
CUT
10
83.3985
20
90.8609
0
VERTEX
8
CUT
10
83.6131
20
91.0167
0
VERTEX
8
CUT
10
85.5945
20
92.6219
0
VERTEX
8
CUT
10
85.6101
20
92.6339
0
VERTEX
8
CUT
10
85.6810
20
92.6800
0
VERTEX
8
CUT
10
85.6982
20
92.6894
0
VERTEX
8
CUT
10
86.7611
20
93.2326
0
VERTEX
8
CUT
10
86.7763
20
93.2399
0
VERTEX
8
CUT
10
86.8100
20
93.2534
0
VERTEX
8
CUT
10
86.8463
20
93.2575
0
VERTEX
8
CUT
10
86.8627
20
93.2582
0
VERTEX
8
CUT
10
88.8306
20
93.2999
0
VERTEX
8
CUT
10
88.8495
20
93.2998
0
VERTEX
8
CUT
10
88.8899
20
93.2966
0
VERTEX
8
CUT
10
88.9289
20
93.2853
0
VERTEX
8
CUT
10
88.9466
20
93.2787
0
VERTEX
8
CUT
10
89.5931
20
93.0189
0
VERTEX
8
CUT
10
89.6111
20
93.0111
0
VERTEX
8
CUT
10
89.6484
20
92.9914
0
VERTEX
8
CUT
10
89.6807
20
92.9643
0
VERTEX
8
CUT
10
89.6947
20
92.9506
0
VERTEX
8
CUT
10
94.1591
20
88.3374
0
VERTEX
8
CUT
10
94.3642
20
88.1479
0
VERTEX
8
CUT
10
97.1296
20
85.8652
0
VERTEX
8
CUT
10
97.1822
20
85.8191
0
VERTEX
8
CUT
10
97.2321
20
85.7699
0
VERTEX
8
CUT
10
98.1415
20
84.8194
0
VERTEX
8
CUT
10
98.1548
20
84.8047
0
VERTEX
8
CUT
10
98.2071
20
84.7370
0
VERTEX
8
CUT
10
98.2180
20
84.7204
0
VERTEX
8
CUT
10
99.0122
20
83.4321
0
VERTEX
8
CUT
10
99.0209
20
83.4173
0
VERTEX
8
CUT
10
99.0538
20
83.3509
0
VERTEX
8
CUT
10
99.0604
20
83.3350
0
VERTEX
8
CUT
10
99.5940
20
81.9592
0
VERTEX
8
CUT
10
99.5998
20
81.9432
0
VERTEX
8
CUT
10
99.6099
20
81.9080
0
VERTEX
8
CUT
10
99.6134
20
81.8720
0
VERTEX
8
CUT
10
99.6140
20
81.8548
0
VERTEX
8
CUT
10
99.6405
20
78.5162
0
VERTEX
8
CUT
10
99.6403
20
78.4986
0
VERTEX
8
CUT
10
99.6370
20
78.4608
0
VERTEX
8
CUT
10
99.6267
20
78.4243
0
VERTEX
8
CUT
10
99.6207
20
78.4077
0
VERTEX
8
CUT
10
99.5477
20
78.2185
0
VERTEX
8
CUT
10
99.4695
20
77.9815
0
VERTEX
8
CUT
10
99.4154
20
77.7379
0
VERTEX
8
CUT
10
99.3858
20
77.4901
0
VERTEX
8
CUT
10
99.3488
20
76.9547
0
VERTEX
8
CUT
10
99.3484
20
76.9495
0
VERTEX
8
CUT
10
99.3409
20
76.8998
0
VERTEX
8
CUT
10
99.3348
20
76.8746
0
VERTEX
8
CUT
10
99.3280
20
76.8523
0
VERTEX
8
CUT
10
98.5150
20
74.4145
0
VERTEX
8
CUT
10
98.4998
20
74.3715
0
VERTEX
8
CUT
10
98.4829
20
74.3291
0
VERTEX
8
CUT
10
96.2818
20
69.1005
0
VERTEX
8
CUT
10
96.2630
20
69.0581
0
VERTEX
8
CUT
10
96.2425
20
69.0165
0
VERTEX
8
CUT
10
91.5710
20
59.9588
0
VERTEX
8
CUT
10
91.5381
20
59.8993
0
VERTEX
8
CUT
10
91.5019
20
59.8418
0
VERTEX
8
CUT
10
88.7743
20
55.7699
0
VERTEX
8
CUT
10
88.7420
20
55.7241
0
VERTEX
8
CUT
10
88.7076
20
55.6798
0
VERTEX
8
CUT
10
87.5140
20
54.2166
0
VERTEX
8
CUT
10
87.4755
20
54.1718
0
VERTEX
8
CUT
10
87.4348
20
54.1288
0
VERTEX
8
CUT
10
84.5489
20
51.2318
0
VERTEX
8
CUT
10
84.4851
20
51.1723
0
VERTEX
8
CUT
10
84.4171
20
51.1176
0
VERTEX
8
CUT
10
82.3117
20
49.5473
0
VERTEX
8
CUT
10
82.3071
20
49.5441
0
VERTEX
8
CUT
10
82.2351
20
49.4992
0
VERTEX
8
CUT
10
82.2180
20
49.4901
0
VERTEX
8
CUT
10
80.5839
20
48.6708
0
VERTEX
8
CUT
10
80.5680
20
48.6633
0
VERTEX
8
CUT
10
80.4976
20
48.6358
0
VERTEX
8
CUT
10
80.4808
20
48.6306
0
VERTEX
8
CUT
10
78.4735
20
48.0563
0
VERTEX
8
CUT
10
78.4555
20
48.0517
0
VERTEX
8
CUT
10
78.4160
20
48.0445
0
VERTEX
8
CUT
10
78.3761
20
48.0413
0
VERTEX
8
CUT
10
78.3575
20
48.0412
0
VERTEX
8
CUT
10
76.4014
20
48.0778
0
VERTEX
8
CUT
10
76.3825
20
48.0786
0
VERTEX
8
CUT
10
76.3421
20
48.0835
0
VERTEX
8
CUT
10
76.3024
20
48.0924
0
VERTEX
8
CUT
10
76.2844
20
48.0979
0
VERTEX
8
CUT
10
74.6418
20
48.6435
0
VERTEX
8
CUT
10
74.6209
20
48.6511
0
VERTEX
8
CUT
10
74.5336
20
48.6922
0
VERTEX
8
CUT
10
74.5144
20
48.7034
0
VERTEX
8
CUT
10
73.8302
20
49.1308
0
VERTEX
8
CUT
10
73.8124
20
49.1427
0
VERTEX
8
CUT
10
73.7402
20
49.2001
0
VERTEX
8
CUT
10
73.7247
20
49.2148
0
VERTEX
8
CUT
10
72.1747
20
50.7661
0
VERTEX
8
CUT
10
72.1712
20
50.7697
0
VERTEX
8
CUT
10
72.1208
20
50.8285
0
VERTEX
8
CUT
10
72.1102
20
50.8425
0
VERTEX
8
CUT
10
71.4124
20
51.8107
0
VERTEX
8
CUT
10
71.4093
20
51.8151
0
VERTEX
8
CUT
10
71.3825
20
51.8597
0
VERTEX
8
CUT
10
71.3708
20
51.8840
0
VERTEX
8
CUT
10
71.3617
20
51.9063
0
VERTEX
8
CUT
10
70.5292
20
54.1034
0
VERTEX
8
CUT
10
70.5219
20
54.1247
0
VERTEX
8
CUT
10
70.4986
20
54.2192
0
VERTEX
8
CUT
10
70.4951
20
54.2415
0
VERTEX
8
CUT
10
70.1895
20
56.7334
0
VERTEX
8
CUT
10
70.1826
20
56.8089
0
VERTEX
8
CUT
10
70.1806
20
56.8847
0
VERTEX
8
CUT
10
70.1937
20
59.3965
0
VERTEX
8
CUT
10
70.1944
20
59.4162
0
VERTEX
8
CUT
10
70.1991
20
59.4585
0
VERTEX
8
CUT
10
70.2082
20
59.5000
0
VERTEX
8
CUT
10
70.2139
20
59.5189
0
VERTEX
8
CUT
10
70.2787
20
59.7138
0
VERTEX
8
CUT
10
70.3412
20
59.9354
0
VERTEX
8
CUT
10
70.3831
20
60.1619
0
VERTEX
8
CUT
10
70.4039
20
60.3913
0
VERTEX
8
CUT
10
70.4780
20
62.0554
0
VERTEX
8
CUT
10
70.4794
20
62.0754
0
VERTEX
8
CUT
10
70.4924
20
62.1607
0
VERTEX
8
CUT
10
70.4969
20
62.1802
0
VERTEX
8
CUT
10
70.9261
20
63.8120
0
VERTEX
8
CUT
10
70.9752
20
64.0421
0
VERTEX
8
CUT
10
71.0024
20
64.2757
0
VERTEX
8
CUT
10
71.0484
20
64.9414
0
VERTEX
8
CUT
10
71.0502
20
64.9605
0
VERTEX
8
CUT
10
71.0572
20
65.0012
0
VERTEX
8
CUT
10
71.0684
20
65.0410
0
VERTEX
8
CUT
10
71.0750
20
65.0591
0
VERTEX
8
CUT
10
71.4781
20
66.0805
0
VERTEX
8
CUT
10
71.5722
20
66.3693
0
VERTEX
8
CUT
10
72.4346
20
69.6871
0
VERTEX
8
CUT
10
72.4405
20
69.7075
0
VERTEX
8
CUT
10
72.4735
20
69.7932
0
VERTEX
8
CUT
10
72.4828
20
69.8123
0
VERTEX
8
CUT
10
72.8392
20
70.4959
0
VERTEX
8
CUT
10
72.9720
20
70.7977
0
VERTEX
8
CUT
10
75.0781
20
76.5921
0
VERTEX
8
CUT
10
75.1722
20
76.9184
0
VERTEX
8
CUT
10
75.6377
20
79.0738
0
VERTEX
8
CUT
10
75.6801
20
79.3379
0
VERTEX
8
CUT
10
75.6940
20
79.6050
0
VERTEX
8
CUT
10
75.6912
20
81.7037
0
VERTEX
8
CUT
10
75.6731
20
82.0000
0
VERTEX
8
CUT
10
75.6201
20
82.2921
0
VERTEX
8
CUT
10
75.1814
20
84.0929
0
VERTEX
8
CUT
10
75.0746
20
84.4272
0
VERTEX
8
CUT
10
74.6103
20
85.5912
0
VERTEX
8
CUT
10
74.4913
20
85.8469
0
VERTEX
8
CUT
10
72.2047
20
90.1098
0
VERTEX
8
CUT
10
72.1956
20
90.1278
0
VERTEX
8
CUT
10
72.1630
20
90.2084
0
VERTEX
8
CUT
10
72.1569
20
90.2276
0
VERTEX
8
CUT
10
72.1524
20
90.2434
0
VERTEX
8
CUT
10
72.0743
20
90.4737
0
VERTEX
8
CUT
10
71.9742
20
90.6954
0
VERTEX
8
CUT
10
71.8530
20
90.9063
0
VERTEX
8
CUT
10
71.7119
20
91.1045
0
VERTEX
8
CUT
10
71.5522
20
91.2880
0
VERTEX
8
CUT
10
71.3754
20
91.4550
0
VERTEX
8
CUT
10
71.1832
20
91.6042
0
VERTEX
8
CUT
10
70.9774
20
91.7339
0
VERTEX
8
CUT
10
70.7600
20
91.8430
0
VERTEX
8
CUT
10
70.5331
20
91.9305
0
VERTEX
8
CUT
10
70.2987
20
91.9955
0
VERTEX
8
CUT
10
70.0591
20
92.0374
0
VERTEX
8
CUT
10
69.8165
20
92.0559
0
VERTEX
8
CUT
10
69.5733
20
92.0506
0
VERTEX
8
CUT
10
69.3318
20
92.0218
0
VERTEX
8
CUT
10
69.0942
20
91.9696
0
VERTEX
8
CUT
10
68.8628
20
91.8946
0
VERTEX
8
CUT
10
68.6398
20
91.7975
0
VERTEX
8
CUT
10
68.4273
20
91.6791
0
VERTEX
8
CUT
10
68.2273
20
91.5407
0
VERTEX
8
CUT
10
68.0417
20
91.3834
0
VERTEX
8
CUT
10
67.8722
20
91.2089
0
VERTEX
8
CUT
10
67.7206
20
91.0187
0
VERTEX
8
CUT
10
67.5881
20
90.8147
0
VERTEX
8
CUT
10
67.4760
20
90.5988
0
VERTEX
8
CUT
10
67.3855
20
90.3730
0
VERTEX
8
CUT
10
67.3174
20
90.1395
0
VERTEX
8
CUT
10
67.2723
20
89.9005
0
VERTEX
8
CUT
10
67.2506
20
89.6582
0
VERTEX
8
CUT
10
66.9458
20
82.1515
0
VERTEX
8
CUT
10
66.9446
20
82.1330
0
VERTEX
8
CUT
10
66.9391
20
82.0936
0
VERTEX
8
CUT
10
66.9297
20
82.0549
0
VERTEX
8
CUT
10
66.9240
20
82.0373
0
VERTEX
8
CUT
10
66.8400
20
81.7966
0
VERTEX
8
CUT
10
66.7684
20
81.5524
0
VERTEX
8
CUT
10
66.7221
20
81.3022
0
VERTEX
8
CUT
10
66.7014
20
81.0486
0
VERTEX
8
CUT
10
66.6639
20
79.8163
0
VERTEX
8
CUT
10
66.6636
20
79.8108
0
VERTEX
8
CUT
10
66.6579
20
79.7616
0
VERTEX
8
CUT
10
66.6493
20
79.7333
0
VERTEX
8
CUT
10
66.6406
20
79.7100
0
VERTEX
8
CUT
10
66.6126
20
79.6406
0
VERTEX
8
CUT
10
66.5368
20
79.4252
0
VERTEX
8
CUT
10
66.4811
20
79.2037
0
VERTEX
8
CUT
10
66.4457
20
78.9781
0
VERTEX
8
CUT
10
66.4311
20
78.7502
0
VERTEX
8
CUT
10
66.3974
20
76.9118
0
VERTEX
8
CUT
10
66.3965
20
76.8920
0
VERTEX
8
CUT
10
66.3912
20
76.8496
0
VERTEX
8
CUT
10
66.3815
20
76.8080
0
VERTEX
8
CUT
10
66.3755
20
76.7891
0
VERTEX
8
CUT
10
66.2855
20
76.5313
0
VERTEX
8
CUT
10
66.2141
20
76.2873
0
VERTEX
8
CUT
10
66.1679
20
76.0374
0
VERTEX
8
CUT
10
66.1472
20
75.7840
0
VERTEX
8
CUT
10
66.1097
20
74.5513
0
VERTEX
8
CUT
10
66.1094
20
74.5458
0
VERTEX
8
CUT
10
66.1037
20
74.4966
0
VERTEX
8
CUT
10
66.0951
20
74.4684
0
VERTEX
8
CUT
10
66.0864
20
74.4451
0
VERTEX
8
CUT
10
66.0543
20
74.3655
0
VERTEX
8
CUT
10
65.9793
20
74.1525
0
VERTEX
8
CUT
10
65.9239
20
73.9337
0
VERTEX
8
CUT
10
65.8884
20
73.7108
0
VERTEX
8
CUT
10
65.8732
20
73.4856
0
VERTEX
8
CUT
10
65.8364
20
71.8420
0
VERTEX
8
CUT
10
65.8353
20
71.8207
0
VERTEX
8
CUT
10
65.8229
20
71.7296
0
VERTEX
8
CUT
10
65.8182
20
71.7088
0
VERTEX
8
CUT
10
65.4001
20
70.0644
0
VERTEX
8
CUT
10
65.3455
20
69.7833
0
VERTEX
8
CUT
10
65.3235
20
69.4978
0
VERTEX
8
CUT
10
65.2886
20
67.7339
0
VERTEX
8
CUT
10
65.2884
20
67.7288
0
VERTEX
8
CUT
10
65.2836
20
67.6800
0
VERTEX
8
CUT
10
65.2790
20
67.6551
0
VERTEX
8
CUT
10
65.2735
20
67.6330
0
VERTEX
8
CUT
10
65.1297
20
67.1066
0
VERTEX
8
CUT
10
65.0824
20
66.8990
0
VERTEX
8
CUT
10
65.0529
20
66.6882
0
VERTEX
8
CUT
10
65.0415
20
66.4756
0
VERTEX
8
CUT
10
65.0034
20
63.0350
0
VERTEX
8
CUT
10
65.0026
20
63.0147
0
VERTEX
8
CUT
10
64.9974
20
62.9711
0
VERTEX
8
CUT
10
64.9874
20
62.9284
0
VERTEX
8
CUT
10
64.9812
20
62.9090
0
VERTEX
8
CUT
10
64.8967
20
62.6679
0
VERTEX
8
CUT
10
64.8260
20
62.4282
0
VERTEX
8
CUT
10
64.7795
20
62.1827
0
VERTEX
8
CUT
10
64.7578
20
61.9338
0
VERTEX
8
CUT
10
64.7213
20
60.9505
0
VERTEX
8
CUT
10
64.7203
20
60.9329
0
VERTEX
8
CUT
10
64.7153
20
60.8953
0
VERTEX
8
CUT
10
64.7034
20
60.8594
0
VERTEX
8
CUT
10
64.6855
20
60.8159
0
VERTEX
8
CUT
10
64.6873
20
60.8151
0
VERTEX
8
CUT
10
64.6186
20
60.6347
0
VERTEX
8
CUT
10
64.5540
20
60.3965
0
VERTEX
8
CUT
10
64.5131
20
60.1531
0
VERTEX
8
CUT
10
64.4964
20
59.9069
0
VERTEX
8
CUT
10
64.4583
20
57.8200
0
VERTEX
8
CUT
10
64.4572
20
57.7973
0
VERTEX
8
CUT
10
64.4435
20
57.6998
0
VERTEX
8
CUT
10
64.4383
20
57.6776
0
VERTEX
8
CUT
10
64.3244
20
57.2514
0
VERTEX
8
CUT
10
64.2772
20
57.0373
0
VERTEX
8
CUT
10
64.2488
20
56.8199
0
VERTEX
8
CUT
10
64.2397
20
56.6009
0
VERTEX
8
CUT
10
64.2677
20
43.1172
0
VERTEX
8
CUT
10
64.2796
20
42.8786
0
VERTEX
8
CUT
10
64.3142
20
42.6423
0
VERTEX
8
CUT
10
64.3713
20
42.4103
0
SEQEND
0
POLYLINE
8
CUT
66
1
70
1
10
0.0
20
0.0
30
0.0
0
VERTEX
8
CUT
10
26.1932
20
125.7794
0
VERTEX
8
CUT
10
26.2142
20
122.5976
0
VERTEX
8
CUT
10
26.2263
20
122.3680
0
VERTEX
8
CUT
10
26.2594
20
122.1406
0
VERTEX
8
CUT
10
26.3133
20
121.9172
0
VERTEX
8
CUT
10
26.3874
20
121.6996
0
VERTEX
8
CUT
10
26.6581
20
121.0111
0
VERTEX
8
CUT
10
26.7410
20
120.8231
0
VERTEX
8
CUT
10
26.8391
20
120.6426
0
VERTEX
8
CUT
10
26.9517
20
120.4707
0
VERTEX
8
CUT
10
28.0965
20
118.8708
0
VERTEX
8
CUT
10
28.2618
20
118.6640
0
VERTEX
8
CUT
10
28.4480
20
118.4757
0
VERTEX
8
CUT
10
28.6530
20
118.3083
0
VERTEX
8
CUT
10
30.1998
20
117.1761
0
VERTEX
8
CUT
10
30.4385
20
117.0214
0
VERTEX
8
CUT
10
30.6932
20
116.8949
0
VERTEX
8
CUT
10
30.9607
20
116.7981
0
VERTEX
8
CUT
10
33.1611
20
116.1406
0
VERTEX
8
CUT
10
33.4027
20
116.0814
0
VERTEX
8
CUT
10
33.6490
20
116.0464
0
VERTEX
8
CUT
10
33.8976
20
116.0361
0
VERTEX
8
CUT
10
34.1459
20
116.0505
0
VERTEX
8
CUT
10
35.9937
20
116.2506
0
VERTEX
8
CUT
10
36.2450
20
116.2908
0
VERTEX
8
CUT
10
36.4909
20
116.3564
0
VERTEX
8
CUT
10
36.7288
20
116.4466
0
VERTEX
8
CUT
10
36.9564
20
116.5606
0
VERTEX
8
CUT
10
38.9458
20
117.6870
0
VERTEX
8
CUT
10
39.1330
20
117.8042
0
VERTEX
8
CUT
10
39.3092
20
117.9375
0
VERTEX
8
CUT
10
39.4729
20
118.0858
0
VERTEX
8
CUT
10
40.3218
20
118.9263
0
VERTEX
8
CUT
10
40.4723
20
119.0891
0
VERTEX
8
CUT
10
40.6077
20
119.2646
0
VERTEX
8
CUT
10
41.0633
20
119.9122
0
VERTEX
8
CUT
10
41.2077
20
120.1434
0
VERTEX
8
CUT
10
41.3261
20
120.3889
0
VERTEX
8
CUT
10
41.8950
20
121.7539
0
VERTEX
8
CUT
10
41.9789
20
121.9873
0
VERTEX
8
CUT
10
42.0393
20
122.2277
0
VERTEX
8
CUT
10
42.0755
20
122.4730
0
VERTEX
8
CUT
10
42.0873
20
122.7207
0
VERTEX
8
CUT
10
42.0812
20
125.7398
0
VERTEX
8
CUT
10
42.0696
20
125.9754
0
VERTEX
8
CUT
10
42.0358
20
126.2088
0
VERTEX
8
CUT
10
41.9802
20
126.4380
0
VERTEX
8
CUT
10
41.9033
20
126.6610
0
VERTEX
8
CUT
10
41.8056
20
126.8757
0
VERTEX
8
CUT
10
41.0198
20
128.4078
0
VERTEX
8
CUT
10
40.8928
20
128.6273
0
VERTEX
8
CUT
10
40.7441
20
128.8328
0
VERTEX
8
CUT
10
40.5755
20
129.0222
0
VERTEX
8
CUT
10
39.0200
20
130.5997
0
VERTEX
8
CUT
10
38.8768
20
130.7338
0
VERTEX
8
CUT
10
38.7236
20
130.8564
0
VERTEX
8
CUT
10
37.9381
20
131.4356
0
VERTEX
8
CUT
10
37.7604
20
131.5553
0
VERTEX
8
CUT
10
37.5730
20
131.6593
0
VERTEX
8
CUT
10
37.3774
20
131.7469
0
VERTEX
8
CUT
10
36.5916
20
132.0591
0
VERTEX
8
CUT
10
36.3418
20
132.1434
0
VERTEX
8
CUT
10
36.0845
20
132.2009
0
VERTEX
8
CUT
10
35.8225
20
132.2310
0
VERTEX
8
CUT
10
35.3172
20
132.2622
0
VERTEX
8
CUT
10
35.2971
20
132.2640
0
VERTEX
8
CUT
10
35.2560
20
132.2707
0
VERTEX
8
CUT
10
35.2158
20
132.2816
0
VERTEX
8
CUT
10
35.1742
20
132.2964
0
VERTEX
8
CUT
10
34.9261
20
132.3704
0
VERTEX
8
CUT
10
34.6716
20
132.4182
0
VERTEX
8
CUT
10
34.4136
20
132.4395
0
VERTEX
8
CUT
10
34.1548
20
132.4340
0
VERTEX
8
CUT
10
33.8979
20
132.4018
0
VERTEX
8
CUT
10
31.7067
20
132.0107
0
VERTEX
8
CUT
10
31.4628
20
131.9544
0
VERTEX
8
CUT
10
31.2258
20
131.8740
0
VERTEX
8
CUT
10
30.9979
20
131.7704
0
VERTEX
8
CUT
10
30.7816
20
131.6444
0
VERTEX
8
CUT
10
28.8943
20
130.4152
0
VERTEX
8
CUT
10
28.7111
20
130.2837
0
VERTEX
8
CUT
10
28.5405
20
130.1363
0
VERTEX
8
CUT
10
28.3838
20
129.9741
0
VERTEX
8
CUT
10
28.2425
20
129.7984
0
VERTEX
8
CUT
10
26.9753
20
128.0699
0
VERTEX
8
CUT
10
26.8490
20
127.8800
0
VERTEX
8
CUT
10
26.7405
20
127.6793
0
VERTEX
8
CUT
10
26.6507
20
127.4695
0
VERTEX
8
CUT
10
26.3523
20
126.6736
0
VERTEX
8
CUT
10
26.2820
20
126.4565
0
VERTEX
8
CUT
10
26.2318
20
126.2338
0
VERTEX
8
CUT
10
26.2021
20
126.0075
0
SEQEND
0
POLYLINE
8
CUT
66
1
70
1
10
0.0
20
0.0
30
0.0
0
VERTEX
8
CUT
10
32.8144
20
27.4927
0
VERTEX
8
CUT
10
32.9074
20
27.2824
0
VERTEX
8
CUT
10
33.0193
20
27.0815
0
VERTEX
8
CUT
10
33.3811
20
26.4973
0
VERTEX
8
CUT
10
33.5522
20
26.2544
0
VERTEX
8
CUT
10
33.7509
20
26.0336
0
VERTEX
8
CUT
10
34.8189
20
24.9799
0
VERTEX
8
CUT
10
35.0061
20
24.8128
0
VERTEX
8
CUT
10
35.2092
20
24.6654
0
VERTEX
8
CUT
10
35.4259
20
24.5391
0
VERTEX
8
CUT
10
35.6543
20
24.4351
0
VERTEX
8
CUT
10
36.1303
20
24.2466
0
VERTEX
8
CUT
10
36.3541
20
24.1700
0
VERTEX
8
CUT
10
36.5843
20
24.1149
0
VERTEX
8
CUT
10
36.8186
20
24.0818
0
VERTEX
8
CUT
10
37.0550
20
24.0711
0
VERTEX
8
CUT
10
37.4789
20
24.0718
0
VERTEX
8
CUT
10
37.7244
20
24.0843
0
VERTEX
8
CUT
10
37.9676
20
24.1209
0
VERTEX
8
CUT
10
38.2059
20
24.1812
0
VERTEX
8
CUT
10
38.4372
20
24.2646
0
VERTEX
8
CUT
10
38.6592
20
24.3703
0
VERTEX
8
CUT
10
38.8697
20
24.4973
0
VERTEX
8
CUT
10
39.7982
20
25.1217
0
VERTEX
8
CUT
10
39.9966
20
25.2699
0
VERTEX
8
CUT
10
40.1794
20
25.4371
0
VERTEX
8
CUT
10
41.0266
20
26.2925
0
VERTEX
8
CUT
10
41.2031
20
26.4908
0
VERTEX
8
CUT
10
41.3576
20
26.7067
0
VERTEX
8
CUT
10
41.4883
20
26.9377
0
VERTEX
8
CUT
10
41.6213
20
27.2048
0
VERTEX
8
CUT
10
41.7149
20
27.4172
0
VERTEX
8
CUT
10
41.7885
20
27.6373
0
VERTEX
8
CUT
10
41.8413
20
27.8633
0
VERTEX
8
CUT
10
41.8730
20
28.0932
0
VERTEX
8
CUT
10
41.8831
20
28.3251
0
VERTEX
8
CUT
10
41.8817
20
28.8953
0
VERTEX
8
CUT
10
41.8685
20
29.1453
0
VERTEX
8
CUT
10
41.8304
20
29.3927
0
VERTEX
8
CUT
10
41.7678
20
29.6351
0
VERTEX
8
CUT
10
41.6812
20
29.8700
0
VERTEX
8
CUT
10
41.2321
20
30.9226
0
VERTEX
8
CUT
10
41.1316
20
31.1309
0
VERTEX
8
CUT
10
41.0122
20
31.3290
0
VERTEX
8
CUT
10
40.8751
20
31.5153
0
VERTEX
8
CUT
10
40.7213
20
31.6881
0
VERTEX
8
CUT
10
40.4449
20
31.9711
0
VERTEX
8
CUT
10
40.2606
20
32.1419
0
VERTEX
8
CUT
10
40.0600
20
32.2933
0
VERTEX
8
CUT
10
39.6060
20
32.6013
0
VERTEX
8
CUT
10
39.3769
20
32.7395
0
VERTEX
8
CUT
10
39.1342
20
32.8524
0
VERTEX
8
CUT
10
38.4330
20
33.1341
0
VERTEX
8
CUT
10
38.2158
20
33.2099
0
VERTEX
8
CUT
10
37.9927
20
33.2655
0
VERTEX
8
CUT
10
37.7653
20
33.3003
0
VERTEX
8
CUT
10
37.5358
20
33.3141
0
VERTEX
8
CUT
10
37.3999
20
33.3160
0
VERTEX
8
CUT
10
37.1329
20
33.3054
0
VERTEX
8
CUT
10
36.8686
20
33.2664
0
VERTEX
8
CUT
10
36.6100
20
33.1994
0
VERTEX
8
CUT
10
36.3599
20
33.1052
0
VERTEX
8
CUT
10
34.7402
20
32.3939
0
VERTEX
8
CUT
10
34.5133
20
32.2802
0
VERTEX
8
CUT
10
34.2991
20
32.1440
0
VERTEX
8
CUT
10
34.0998
20
31.9869
0
VERTEX
8
CUT
10
33.9174
20
31.8103
0
VERTEX
8
CUT
10
33.7539
20
31.6162
0
VERTEX
8
CUT
10
33.6110
20
31.4064
0
VERTEX
8
CUT
10
33.0856
20
30.5450
0
VERTEX
8
CUT
10
32.9519
20
30.2947
0
VERTEX
8
CUT
10
32.8474
20
30.0308
0
VERTEX
8
CUT
10
32.7708
20
29.8001
0
VERTEX
8
CUT
10
32.7000
20
29.5408
0
VERTEX
8
CUT
10
32.6574
20
29.2754
0
VERTEX
8
CUT
10
32.6436
20
29.0069
0
VERTEX
8
CUT
10
32.6450
20
28.3917
0
VERTEX
8
CUT
10
32.6561
20
28.1621
0
VERTEX
8
CUT
10
32.6882
20
27.9344
0
VERTEX
8
CUT
10
32.7412
20
27.7106
0
SEQEND
0
ENDSEC
0
EOF
