0
SECTION
2
HEADER
9
$ACADVER
1
AC1009
9
$INSUNITS
70
4
0
ENDSEC
0
SECTION
2
TABLES
0
TABLE
2
LAYER
70
1
0
LAYER
2
CUT
70
0
62
7
6
CONTINUOUS
0
ENDTAB
0
ENDSEC
0
SECTION
2
ENTITIES
0
POLYLINE
8
CUT
66
1
70
1
10
0.0
20
0.0
30
0.0
0
VERTEX
8
CUT
10
0.3346
20
1.6377
0
VERTEX
8
CUT
10
0.2118
20
4.9011
0
VERTEX
8
CUT
10
0.0000
20
68.5983
0
VERTEX
8
CUT
10
0.0303
20
260.2999
0
VERTEX
8
CUT
10
0.2421
20
295.9775
0
VERTEX
8
CUT
10
0.3665
20
298.6741
0
VERTEX
8
CUT
10
0.6051
20
299.4224
0
VERTEX
8
CUT
10
1.6622
20
299.6673
0
VERTEX
8
CUT
10
11.8273
20
299.8487
0
VERTEX
8
CUT
10
68.5378
20
300.0000
0
VERTEX
8
CUT
10
256.1845
20
299.9697
0
VERTEX
8
CUT
10
287.1752
20
299.8789
0
VERTEX
8
CUT
10
298.0008
20
299.6674
0
VERTEX
8
CUT
10
299.1441
20
299.4611
0
VERTEX
8
CUT
10
299.3648
20
298.3034
0
VERTEX
8
CUT
10
299.5763
20
287.4475
0
VERTEX
8
CUT
10
299.6671
20
256.4278
0
VERTEX
8
CUT
10
299.6974
20
66.1177
0
VERTEX
8
CUT
10
299.5461
20
10.2560
0
VERTEX
8
CUT
10
299.3346
20
1.3614
0
VERTEX
8
CUT
10
299.0923
20
0.5776
0
VERTEX
8
CUT
10
298.0352
20
0.3327
0
VERTEX
8
CUT
10
287.8701
20
0.1513
0
VERTEX
8
CUT
10
231.1898
20
0.0000
0
VERTEX
8
CUT
10
39.6698
20
0.0303
0
VERTEX
8
CUT
10
10.2523
20
0.1513
0
VERTEX
8
CUT
10
4.0100
20
0.2424
0
VERTEX
8
CUT
10
1.3614
20
0.3628
0
VERTEX
8
CUT
10
0.6469
20
0.5599
0
SEQEND
0
POLYLINE
8
CUT
66
1
70
1
10
0.0
20
0.0
30
0.0
0
VERTEX
8
CUT
10
151.6019
20
8.0000
0
VERTEX
8
CUT
10
151.6019
20
14.9692
0
VERTEX
8
CUT
10
151.6513
20
14.9979
0
VERTEX
8
CUT
10
151.7244
20
15.0430
0
VERTEX
8
CUT
10
151.7964
20
15.0899
0
VERTEX
8
CUT
10
151.8672
20
15.1385
0
VERTEX
8
CUT
10
151.9368
20
15.1888
0
VERTEX
8
CUT
10
152.0052
20
15.2408
0
VERTEX
8
CUT
10
152.0723
20
15.2945
0
VERTEX
8
CUT
10
152.1380
20
15.3498
0
VERTEX
8
CUT
10
152.2023
20
15.4067
0
VERTEX
8
CUT
10
152.2653
20
15.4651
0
VERTEX
8
CUT
10
152.3268
20
15.5251
0
VERTEX
8
CUT
10
152.3868
20
15.5866
0
VERTEX
8
CUT
10
152.4452
20
15.6495
0
VERTEX
8
CUT
10
152.5021
20
15.7139
0
VERTEX
8
CUT
10
152.5574
20
15.7796
0
VERTEX
8
CUT
10
152.6111
20
15.8467
0
VERTEX
8
CUT
10
152.6631
20
15.9151
0
VERTEX
8
CUT
10
152.7134
20
15.9847
0
VERTEX
8
CUT
10
152.7620
20
16.0555
0
VERTEX
8
CUT
10
152.8089
20
16.1275
0
VERTEX
8
CUT
10
152.8539
20
16.2006
0
VERTEX
8
CUT
10
152.8972
20
16.2749
0
VERTEX
8
CUT
10
152.9386
20
16.3501
0
VERTEX
8
CUT
10
152.9782
20
16.4264
0
VERTEX
8
CUT
10
153.0159
20
16.5036
0
VERTEX
8
CUT
10
153.0516
20
16.5817
0
VERTEX
8
CUT
10
153.0855
20
16.6606
0
VERTEX
8
CUT
10
153.1174
20
16.7404
0
VERTEX
8
CUT
10
153.1473
20
16.8209
0
VERTEX
8
CUT
10
153.1752
20
16.9021
0
VERTEX
8
CUT
10
153.2012
20
16.9840
0
VERTEX
8
CUT
10
153.2251
20
17.0665
0
VERTEX
8
CUT
10
153.2470
20
17.1496
0
VERTEX
8
CUT
10
153.2668
20
17.2331
0
VERTEX
8
CUT
10
153.2846
20
17.3172
0
VERTEX
8
CUT
10
153.3004
20
17.4016
0
VERTEX
8
CUT
10
153.3140
20
17.4864
0
VERTEX
8
CUT
10
153.3256
20
17.5716
0
VERTEX
8
CUT
10
153.3350
20
17.6569
0
VERTEX
8
CUT
10
153.3424
20
17.7425
0
VERTEX
8
CUT
10
153.3477
20
17.8283
0
VERTEX
8
CUT
10
153.3508
20
17.9141
0
VERTEX
8
CUT
10
153.3519
20
18.0000
0
VERTEX
8
CUT
10
153.3508
20
18.0859
0
VERTEX
8
CUT
10
153.3477
20
18.1717
0
VERTEX
8
CUT
10
153.3424
20
18.2575
0
VERTEX
8
CUT
10
153.3350
20
18.3431
0
VERTEX
8
CUT
10
153.3256
20
18.4284
0
VERTEX
8
CUT
10
153.3140
20
18.5136
0
VERTEX
8
CUT
10
153.3004
20
18.5984
0
VERTEX
8
CUT
10
153.2846
20
18.6828
0
VERTEX
8
CUT
10
153.2668
20
18.7669
0
VERTEX
8
CUT
10
153.2470
20
18.8504
0
VERTEX
8
CUT
10
153.2251
20
18.9335
0
VERTEX
8
CUT
10
153.2012
20
19.0160
0
VERTEX
8
CUT
10
153.1752
20
19.0979
0
VERTEX
8
CUT
10
153.1473
20
19.1791
0
VERTEX
8
CUT
10
153.1174
20
19.2596
0
VERTEX
8
CUT
10
153.0855
20
19.3394
0
VERTEX
8
CUT
10
153.0516
20
19.4183
0
VERTEX
8
CUT
10
153.0159
20
19.4964
0
VERTEX
8
CUT
10
152.9782
20
19.5736
0
VERTEX
8
CUT
10
152.9386
20
19.6499
0
VERTEX
8
CUT
10
152.8972
20
19.7251
0
VERTEX
8
CUT
10
152.8539
20
19.7994
0
VERTEX
8
CUT
10
152.8089
20
19.8725
0
VERTEX
8
CUT
10
152.7620
20
19.9445
0
VERTEX
8
CUT
10
152.7134
20
20.0153
0
VERTEX
8
CUT
10
152.6631
20
20.0849
0
VERTEX
8
CUT
10
152.6111
20
20.1533
0
VERTEX
8
CUT
10
152.5574
20
20.2204
0
VERTEX
8
CUT
10
152.5021
20
20.2861
0
VERTEX
8
CUT
10
152.4452
20
20.3505
0
VERTEX
8
CUT
10
152.3868
20
20.4134
0
VERTEX
8
CUT
10
152.3268
20
20.4749
0
VERTEX
8
CUT
10
152.2653
20
20.5349
0
VERTEX
8
CUT
10
152.2023
20
20.5933
0
VERTEX
8
CUT
10
152.1380
20
20.6502
0
VERTEX
8
CUT
10
152.0723
20
20.7055
0
VERTEX
8
CUT
10
152.0052
20
20.7592
0
VERTEX
8
CUT
10
151.9368
20
20.8112
0
VERTEX
8
CUT
10
151.8672
20
20.8615
0
VERTEX
8
CUT
10
151.7964
20
20.9101
0
VERTEX
8
CUT
10
151.7244
20
20.9570
0
VERTEX
8
CUT
10
151.6513
20
21.0021
0
VERTEX
8
CUT
10
151.5770
20
21.0453
0
VERTEX
8
CUT
10
151.5018
20
21.0867
0
VERTEX
8
CUT
10
151.4255
20
21.1263
0
VERTEX
8
CUT
10
151.3483
20
21.1640
0
VERTEX
8
CUT
10
151.2702
20
21.1997
0
VERTEX
8
CUT
10
151.1913
20
21.2336
0
VERTEX
8
CUT
10
151.1115
20
21.2655
0
VERTEX
8
CUT
10
151.0310
20
21.2954
0
VERTEX
8
CUT
10
150.9498
20
21.3233
0
VERTEX
8
CUT
10
150.8679
20
21.3493
0
VERTEX
8
CUT
10
150.7854
20
21.3732
0
VERTEX
8
CUT
10
150.7023
20
21.3951
0
VERTEX
8
CUT
10
150.6187
20
21.4150
0
VERTEX
8
CUT
10
150.5347
20
21.4327
0
VERTEX
8
CUT
10
150.4503
20
21.4485
0
VERTEX
8
CUT
10
150.3654
20
21.4621
0
VERTEX
8
CUT
10
150.2803
20
21.4737
0
VERTEX
8
CUT
10
150.1950
20
21.4831
0
VERTEX
8
CUT
10
150.1094
20
21.4905
0
VERTEX
8
CUT
10
150.0236
20
21.4958
0
VERTEX
8
CUT
10
149.9378
20
21.4989
0
VERTEX
8
CUT
10
149.8519
20
21.5000
0
VERTEX
8
CUT
10
149.7660
20
21.4989
0
VERTEX
8
CUT
10
149.6802
20
21.4958
0
VERTEX
8
CUT
10
149.5944
20
21.4905
0
VERTEX
8
CUT
10
149.5088
20
21.4831
0
VERTEX
8
CUT
10
149.4235
20
21.4737
0
VERTEX
8
CUT
10
149.3383
20
21.4621
0
VERTEX
8
CUT
10
149.2535
20
21.4485
0
VERTEX
8
CUT
10
149.1691
20
21.4327
0
VERTEX
8
CUT
10
149.0850
20
21.4150
0
VERTEX
8
CUT
10
149.0015
20
21.3951
0
VERTEX
8
CUT
10
148.9184
20
21.3732
0
VERTEX
8
CUT
10
148.8359
20
21.3493
0
VERTEX
8
CUT
10
148.7540
20
21.3233
0
VERTEX
8
CUT
10
148.6728
20
21.2954
0
VERTEX
8
CUT
10
148.5923
20
21.2655
0
VERTEX
8
CUT
10
148.5125
20
21.2336
0
VERTEX
8
CUT
10
148.4335
20
21.1997
0
VERTEX
8
CUT
10
148.3554
20
21.1640
0
VERTEX
8
CUT
10
148.2783
20
21.1263
0
VERTEX
8
CUT
10
148.2020
20
21.0867
0
VERTEX
8
CUT
10
148.1267
20
21.0453
0
VERTEX
8
CUT
10
148.0525
20
21.0021
0
VERTEX
8
CUT
10
147.9794
20
20.9570
0
VERTEX
8
CUT
10
147.9074
20
20.9101
0
VERTEX
8
CUT
10
147.8366
20
20.8615
0
VERTEX
8
CUT
10
147.7669
20
20.8112
0
VERTEX
8
CUT
10
147.6986
20
20.7592
0
VERTEX
8
CUT
10
147.6315
20
20.7055
0
VERTEX
8
CUT
10
147.5658
20
20.6502
0
VERTEX
8
CUT
10
147.5014
20
20.5933
0
VERTEX
8
CUT
10
147.4385
20
20.5349
0
VERTEX
8
CUT
10
147.3770
20
20.4749
0
VERTEX
8
CUT
10
147.3170
20
20.4134
0
VERTEX
8
CUT
10
147.2586
20
20.3505
0
VERTEX
8
CUT
10
147.2017
20
20.2861
0
VERTEX
8
CUT
10
147.1464
20
20.2204
0
VERTEX
8
CUT
10
147.0927
20
20.1533
0
VERTEX
8
CUT
10
147.0407
20
20.0849
0
VERTEX
8
CUT
10
146.9903
20
20.0153
0
VERTEX
8
CUT
10
146.9417
20
19.9445
0
VERTEX
8
CUT
10
146.8949
20
19.8725
0
VERTEX
8
CUT
10
146.8498
20
19.7994
0
VERTEX
8
CUT
10
146.8066
20
19.7251
0
VERTEX
8
CUT
10
146.7652
20
19.6499
0
VERTEX
8
CUT
10
146.7256
20
19.5736
0
VERTEX
8
CUT
10
146.6879
20
19.4964
0
VERTEX
8
CUT
10
146.6522
20
19.4183
0
VERTEX
8
CUT
10
146.6183
20
19.3394
0
VERTEX
8
CUT
10
146.5864
20
19.2596
0
VERTEX
8
CUT
10
146.5565
20
19.1791
0
VERTEX
8
CUT
10
146.5285
20
19.0979
0
VERTEX
8
CUT
10
146.5026
20
19.0160
0
VERTEX
8
CUT
10
146.4787
20
18.9335
0
VERTEX
8
CUT
10
146.4568
20
18.8504
0
VERTEX
8
CUT
10
146.4369
20
18.7669
0
VERTEX
8
CUT
10
146.4191
20
18.6828
0
VERTEX
8
CUT
10
146.4034
20
18.5984
0
VERTEX
8
CUT
10
146.3898
20
18.5136
0
VERTEX
8
CUT
10
146.3782
20
18.4284
0
VERTEX
8
CUT
10
146.3687
20
18.3431
0
VERTEX
8
CUT
10
146.3614
20
18.2575
0
VERTEX
8
CUT
10
146.3561
20
18.1717
0
VERTEX
8
CUT
10
146.3529
20
18.0859
0
VERTEX
8
CUT
10
146.3519
20
18.0000
0
VERTEX
8
CUT
10
146.3529
20
17.9141
0
VERTEX
8
CUT
10
146.3561
20
17.8283
0
VERTEX
8
CUT
10
146.3614
20
17.7425
0
VERTEX
8
CUT
10
146.3687
20
17.6569
0
VERTEX
8
CUT
10
146.3782
20
17.5716
0
VERTEX
8
CUT
10
146.3898
20
17.4864
0
VERTEX
8
CUT
10
146.4034
20
17.4016
0
VERTEX
8
CUT
10
146.4191
20
17.3172
0
VERTEX
8
CUT
10
146.4369
20
17.2331
0
VERTEX
8
CUT
10
146.4568
20
17.1496
0
VERTEX
8
CUT
10
146.4787
20
17.0665
0
VERTEX
8
CUT
10
146.5026
20
16.9840
0
VERTEX
8
CUT
10
146.5285
20
16.9021
0
VERTEX
8
CUT
10
146.5565
20
16.8209
0
VERTEX
8
CUT
10
146.5864
20
16.7404
0
VERTEX
8
CUT
10
146.6183
20
16.6606
0
VERTEX
8
CUT
10
146.6522
20
16.5817
0
VERTEX
8
CUT
10
146.6879
20
16.5036
0
VERTEX
8
CUT
10
146.7256
20
16.4264
0
VERTEX
8
CUT
10
146.7652
20
16.3501
0
VERTEX
8
CUT
10
146.8066
20
16.2749
0
VERTEX
8
CUT
10
146.8498
20
16.2006
0
VERTEX
8
CUT
10
146.8949
20
16.1275
0
VERTEX
8
CUT
10
146.9417
20
16.0555
0
VERTEX
8
CUT
10
146.9903
20
15.9847
0
VERTEX
8
CUT
10
147.0407
20
15.9151
0
VERTEX
8
CUT
10
147.0927
20
15.8467
0
VERTEX
8
CUT
10
147.1464
20
15.7796
0
VERTEX
8
CUT
10
147.2017
20
15.7139
0
VERTEX
8
CUT
10
147.2586
20
15.6495
0
VERTEX
8
CUT
10
147.3170
20
15.5866
0
VERTEX
8
CUT
10
147.3770
20
15.5251
0
VERTEX
8
CUT
10
147.4385
20
15.4651
0
VERTEX
8
CUT
10
147.5014
20
15.4067
0
VERTEX
8
CUT
10
147.5658
20
15.3498
0
VERTEX
8
CUT
10
147.6315
20
15.2945
0
VERTEX
8
CUT
10
147.6986
20
15.2408
0
VERTEX
8
CUT
10
147.7669
20
15.1888
0
VERTEX
8
CUT
10
147.8366
20
15.1385
0
VERTEX
8
CUT
10
147.9074
20
15.0899
0
VERTEX
8
CUT
10
147.9794
20
15.0430
0
VERTEX
8
CUT
10
148.0525
20
14.9979
0
VERTEX
8
CUT
10
148.1019
20
14.9692
0
VERTEX
8
CUT
10
148.1019
20
8.0000
0
VERTEX
8
CUT
10
148.1040
20
7.9141
0
VERTEX
8
CUT
10
148.1103
20
7.8285
0
VERTEX
8
CUT
10
148.1208
20
7.7432
0
VERTEX
8
CUT
10
148.1355
20
7.6586
0
VERTEX
8
CUT
10
148.1543
20
7.5748
0
VERTEX
8
CUT
10
148.1772
20
7.4920
0
VERTEX
8
CUT
10
148.2042
20
7.4104
0
VERTEX
8
CUT
10
148.2351
20
7.3303
0
VERTEX
8
CUT
10
148.2699
20
7.2518
0
VERTEX
8
CUT
10
148.3085
20
7.1751
0
VERTEX
8
CUT
10
148.3509
20
7.1003
0
VERTEX
8
CUT
10
148.3968
20
7.0278
0
VERTEX
8
CUT
10
148.4463
20
6.9575
0
VERTEX
8
CUT
10
148.4991
20
6.8898
0
VERTEX
8
CUT
10
148.5552
20
6.8248
0
VERTEX
8
CUT
10
148.6145
20
6.7626
0
VERTEX
8
CUT
10
148.6767
20
6.7033
0
VERTEX
8
CUT
10
148.7417
20
6.6472
0
VERTEX
8
CUT
10
148.8094
20
6.5944
0
VERTEX
8
CUT
10
148.8796
20
6.5449
0
VERTEX
8
CUT
10
148.9522
20
6.4990
0
VERTEX
8
CUT
10
149.0269
20
6.4566
0
VERTEX
8
CUT
10
149.1037
20
6.4180
0
VERTEX
8
CUT
10
149.1822
20
6.3832
0
VERTEX
8
CUT
10
149.2623
20
6.3523
0
VERTEX
8
CUT
10
149.3439
20
6.3254
0
VERTEX
8
CUT
10
149.4267
20
6.3024
0
VERTEX
8
CUT
10
149.5105
20
6.2836
0
VERTEX
8
CUT
10
149.5951
20
6.2689
0
VERTEX
8
CUT
10
149.6804
20
6.2584
0
VERTEX
8
CUT
10
149.7660
20
6.2521
0
VERTEX
8
CUT
10
149.8519
20
6.2500
0
VERTEX
8
CUT
10
149.9378
20
6.2521
0
VERTEX
8
CUT
10
150.0234
20
6.2584
0
VERTEX
8
CUT
10
150.1087
20
6.2689
0
VERTEX
8
CUT
10
150.1933
20
6.2836
0
VERTEX
8
CUT
10
150.2771
20
6.3024
0
VERTEX
8
CUT
10
150.3599
20
6.3254
0
VERTEX
8
CUT
10
150.4414
20
6.3523
0
VERTEX
8
CUT
10
150.5216
20
6.3832
0
VERTEX
8
CUT
10
150.6001
20
6.4180
0
VERTEX
8
CUT
10
150.6768
20
6.4566
0
VERTEX
8
CUT
10
150.7516
20
6.4990
0
VERTEX
8
CUT
10
150.8241
20
6.5449
0
VERTEX
8
CUT
10
150.8944
20
6.5944
0
VERTEX
8
CUT
10
150.9621
20
6.6472
0
VERTEX
8
CUT
10
151.0271
20
6.7033
0
VERTEX
8
CUT
10
151.0893
20
6.7626
0
VERTEX
8
CUT
10
151.1486
20
6.8248
0
VERTEX
8
CUT
10
151.2047
20
6.8898
0
VERTEX
8
CUT
10
151.2575
20
6.9575
0
VERTEX
8
CUT
10
151.3070
20
7.0278
0
VERTEX
8
CUT
10
151.3529
20
7.1003
0
VERTEX
8
CUT
10
151.3953
20
7.1751
0
VERTEX
8
CUT
10
151.4339
20
7.2518
0
VERTEX
8
CUT
10
151.4687
20
7.3303
0
VERTEX
8
CUT
10
151.4996
20
7.4104
0
VERTEX
8
CUT
10
151.5265
20
7.4920
0
VERTEX
8
CUT
10
151.5494
20
7.5748
0
VERTEX
8
CUT
10
151.5683
20
7.6586
0
VERTEX
8
CUT
10
151.5829
20
7.7432
0
VERTEX
8
CUT
10
151.5935
20
7.8285
0
VERTEX
8
CUT
10
151.5998
20
7.9141
0
SEQEND
0
ENDSEC
0
EOF
