0
SECTION
2
HEADER
9
$ACADVER
1
AC1009
9
$INSUNITS
70
4
0
ENDSEC
0
SECTION
2
TABLES
0
TABLE
2
LAYER
70
1
0
LAYER
2
CUT
70
0
62
7
6
CONTINUOUS
0
ENDTAB
0
ENDSEC
0
SECTION
2
ENTITIES
0
POLYLINE
8
CUT
66
1
70
1
10
0.0
20
0.0
30
0.0
0
VERTEX
8
CUT
10
106.8786
20
143.6150
0
VERTEX
8
CUT
10
106.6657
20
144.1034
0
VERTEX
8
CUT
10
106.1846
20
148.4233
0
VERTEX
8
CUT
10
106.1270
20
152.9106
0
VERTEX
8
CUT
10
106.3110
20
154.4024
0
VERTEX
8
CUT
10
106.6930
20
155.1016
0
VERTEX
8
CUT
10
106.7907
20
155.1614
0
VERTEX
8
CUT
10
107.3620
20
155.0579
0
VERTEX
8
CUT
10
108.1343
20
154.8422
0
VERTEX
8
CUT
10
115.3625
20
151.6200
0
VERTEX
8
CUT
10
119.3454
20
150.0806
0
VERTEX
8
CUT
10
123.3558
20
148.7834
0
VERTEX
8
CUT
10
127.4519
20
147.7516
0
VERTEX
8
CUT
10
131.6156
20
146.9679
0
VERTEX
8
CUT
10
135.9293
20
146.4254
0
VERTEX
8
CUT
10
140.3669
20
146.0938
0
VERTEX
8
CUT
10
145.0327
20
146.0154
0
VERTEX
8
CUT
10
145.1224
20
145.9740
0
VERTEX
8
CUT
10
147.2753
20
145.9778
0
VERTEX
8
CUT
10
149.4183
20
145.9418
0
VERTEX
8
CUT
10
149.6133
20
145.9239
0
VERTEX
8
CUT
10
149.6716
20
145.9139
0
VERTEX
8
CUT
10
149.7741
20
145.8963
0
VERTEX
8
CUT
10
150.0744
20
145.8446
0
VERTEX
8
CUT
10
151.4333
20
145.6110
0
VERTEX
8
CUT
10
151.7974
20
145.4914
0
VERTEX
8
CUT
10
152.0778
20
145.6814
0
VERTEX
8
CUT
10
152.1034
20
146.0191
0
VERTEX
8
CUT
10
149.6872
20
150.8532
0
VERTEX
8
CUT
10
149.0410
20
152.7155
0
VERTEX
8
CUT
10
151.3335
20
156.7052
0
VERTEX
8
CUT
10
154.7885
20
161.8578
0
VERTEX
8
CUT
10
156.3514
20
163.7592
0
VERTEX
8
CUT
10
156.8017
20
163.8945
0
VERTEX
8
CUT
10
156.9693
20
163.8214
0
VERTEX
8
CUT
10
157.1198
20
163.7557
0
VERTEX
8
CUT
10
157.1250
20
163.7534
0
VERTEX
8
CUT
10
157.3348
20
163.6619
0
VERTEX
8
CUT
10
157.3703
20
163.6333
0
VERTEX
8
CUT
10
157.7955
20
163.2005
0
VERTEX
8
CUT
10
157.8215
20
163.1696
0
VERTEX
8
CUT
10
157.8349
20
163.1536
0
VERTEX
8
CUT
10
157.8681
20
163.1142
0
VERTEX
8
CUT
10
157.8996
20
163.0768
0
VERTEX
8
CUT
10
160.2585
20
159.1830
0
VERTEX
8
CUT
10
163.6501
20
152.9449
0
VERTEX
8
CUT
10
165.5709
20
149.1150
0
VERTEX
8
CUT
10
166.8365
20
146.5450
0
VERTEX
8
CUT
10
166.8632
20
146.5383
0
VERTEX
8
CUT
10
167.1243
20
146.0178
0
VERTEX
8
CUT
10
167.5682
20
146.1441
0
VERTEX
8
CUT
10
167.6547
20
146.9429
0
VERTEX
8
CUT
10
167.7234
20
147.0689
0
VERTEX
8
CUT
10
168.1967
20
147.3594
0
VERTEX
8
CUT
10
176.3879
20
149.2030
0
VERTEX
8
CUT
10
180.7039
20
150.3795
0
VERTEX
8
CUT
10
184.8691
20
151.7673
0
VERTEX
8
CUT
10
188.9098
20
153.3648
0
VERTEX
8
CUT
10
192.8337
20
155.2352
0
VERTEX
8
CUT
10
196.6651
20
157.3462
0
VERTEX
8
CUT
10
204.1183
20
162.3535
0
VERTEX
8
CUT
10
208.4255
20
165.9024
0
VERTEX
8
CUT
10
212.5385
20
169.8353
0
VERTEX
8
CUT
10
216.4644
20
174.2125
0
VERTEX
8
CUT
10
220.1638
20
178.9430
0
VERTEX
8
CUT
10
221.5528
20
181.0079
0
VERTEX
8
CUT
10
221.8219
20
181.3857
0
VERTEX
8
CUT
10
221.9251
20
181.5612
0
VERTEX
8
CUT
10
222.1290
20
181.8643
0
VERTEX
8
CUT
10
222.1397
20
181.8787
0
VERTEX
8
CUT
10
222.1495
20
181.8948
0
VERTEX
8
CUT
10
223.5002
20
183.9025
0
VERTEX
8
CUT
10
225.3663
20
187.0927
0
VERTEX
8
CUT
10
225.3742
20
187.1052
0
VERTEX
8
CUT
10
225.3783
20
187.1132
0
VERTEX
8
CUT
10
226.5195
20
189.0641
0
VERTEX
8
CUT
10
229.1577
20
194.3710
0
VERTEX
8
CUT
10
231.3295
20
199.6815
0
VERTEX
8
CUT
10
231.4673
20
200.2514
0
VERTEX
8
CUT
10
231.5265
20
200.3964
0
VERTEX
8
CUT
10
231.7444
20
201.3978
0
VERTEX
8
CUT
10
231.7879
20
201.5774
0
VERTEX
8
CUT
10
231.7080
20
201.6627
0
VERTEX
8
CUT
10
231.5936
20
201.9837
0
VERTEX
8
CUT
10
231.3584
20
202.0160
0
VERTEX
8
CUT
10
229.9643
20
202.3222
0
VERTEX
8
CUT
10
224.5121
20
202.7161
0
VERTEX
8
CUT
10
220.2291
20
202.6845
0
VERTEX
8
CUT
10
215.8900
20
202.2918
0
VERTEX
8
CUT
10
211.4823
20
201.5722
0
VERTEX
8
CUT
10
207.0227
20
200.5407
0
VERTEX
8
CUT
10
202.4966
20
199.1820
0
VERTEX
8
CUT
10
197.9714
20
197.4919
0
VERTEX
8
CUT
10
189.0665
20
193.6687
0
VERTEX
8
CUT
10
188.0684
20
194.2157
0
VERTEX
8
CUT
10
180.5095
20
200.9583
0
VERTEX
8
CUT
10
179.3454
20
202.0749
0
VERTEX
8
CUT
10
179.2694
20
202.3990
0
VERTEX
8
CUT
10
179.7233
20
203.0296
0
VERTEX
8
CUT
10
180.2930
20
203.4651
0
VERTEX
8
CUT
10
180.4638
20
203.5646
0
VERTEX
8
CUT
10
180.8399
20
203.7839
0
VERTEX
8
CUT
10
180.9785
20
203.8646
0
VERTEX
8
CUT
10
184.6001
20
205.9755
0
VERTEX
8
CUT
10
184.6640
20
206.0122
0
VERTEX
8
CUT
10
189.3562
20
208.3586
0
VERTEX
8
CUT
10
190.0302
20
208.6629
0
VERTEX
8
CUT
10
190.5048
20
208.8772
0
VERTEX
8
CUT
10
191.6481
20
209.3934
0
VERTEX
8
CUT
10
193.0084
20
210.0075
0
VERTEX
8
CUT
10
196.8779
20
211.5033
0
VERTEX
8
CUT
10
198.2314
20
211.9426
0
VERTEX
8
CUT
10
198.5596
20
212.0491
0
VERTEX
8
CUT
10
198.9970
20
212.1911
0
VERTEX
8
CUT
10
201.0620
20
212.8613
0
VERTEX
8
CUT
10
205.7647
20
214.2005
0
VERTEX
8
CUT
10
213.1731
20
215.5726
0
VERTEX
8
CUT
10
219.7239
20
216.1909
0
VERTEX
8
CUT
10
220.6349
20
216.2090
0
VERTEX
8
CUT
10
220.7079
20
216.2104
0
VERTEX
8
CUT
10
222.0860
20
216.2377
0
VERTEX
8
CUT
10
223.0885
20
216.2576
0
VERTEX
8
CUT
10
226.8677
20
216.2411
0
VERTEX
8
CUT
10
228.3941
20
216.1890
0
VERTEX
8
CUT
10
235.1345
20
215.5121
0
VERTEX
8
CUT
10
242.1787
20
214.0871
0
VERTEX
8
CUT
10
244.5336
20
213.3903
0
VERTEX
8
CUT
10
246.5732
20
212.6788
0
VERTEX
8
CUT
10
247.2396
20
212.1456
0
VERTEX
8
CUT
10
247.4663
20
211.3791
0
VERTEX
8
CUT
10
247.4666
20
210.1970
0
VERTEX
8
CUT
10
247.2840
20
208.6469
0
VERTEX
8
CUT
10
245.7990
20
201.1292
0
VERTEX
8
CUT
10
242.4692
20
191.3512
0
VERTEX
8
CUT
10
242.3333
20
190.9992
0
VERTEX
8
CUT
10
239.6769
20
185.4645
0
VERTEX
8
CUT
10
238.3415
20
182.7261
0
VERTEX
8
CUT
10
233.6432
20
174.9251
0
VERTEX
8
CUT
10
228.0345
20
167.3125
0
VERTEX
8
CUT
10
221.7906
20
160.2176
0
VERTEX
8
CUT
10
214.9701
20
153.8232
0
VERTEX
8
CUT
10
207.8357
20
148.2843
0
VERTEX
8
CUT
10
207.7873
20
148.2513
0
VERTEX
8
CUT
10
200.3172
20
143.7117
0
VERTEX
8
CUT
10
193.1437
20
140.4265
0
VERTEX
8
CUT
10
185.0438
20
137.7258
0
VERTEX
8
CUT
10
176.2621
20
135.7206
0
VERTEX
8
CUT
10
173.3618
20
135.3578
0
VERTEX
8
CUT
10
172.4629
20
135.4450
0
VERTEX
8
CUT
10
172.2770
20
135.5119
0
VERTEX
8
CUT
10
171.8924
20
135.7512
0
VERTEX
8
CUT
10
171.5794
20
135.6521
0
VERTEX
8
CUT
10
171.4638
20
135.2744
0
VERTEX
8
CUT
10
172.5310
20
131.9941
0
VERTEX
8
CUT
10
172.5727
20
131.8557
0
VERTEX
8
CUT
10
173.4609
20
128.9068
0
VERTEX
8
CUT
10
173.7698
20
127.8812
0
VERTEX
8
CUT
10
173.9302
20
127.3486
0
VERTEX
8
CUT
10
174.8868
20
123.9154
0
VERTEX
8
CUT
10
175.1120
20
122.8850
0
VERTEX
8
CUT
10
175.1454
20
122.4187
0
VERTEX
8
CUT
10
175.1071
20
121.8569
0
VERTEX
8
CUT
10
173.9558
20
120.7028
0
VERTEX
8
CUT
10
169.6124
20
118.4323
0
VERTEX
8
CUT
10
166.3918
20
117.0948
0
VERTEX
8
CUT
10
164.2232
20
116.5081
0
VERTEX
8
CUT
10
163.5970
20
116.8541
0
VERTEX
8
CUT
10
163.2761
20
117.4018
0
VERTEX
8
CUT
10
163.1260
20
117.8010
0
VERTEX
8
CUT
10
160.6631
20
126.1228
0
VERTEX
8
CUT
10
159.3128
20
129.7607
0
VERTEX
8
CUT
10
159.2173
20
130.0675
0
VERTEX
8
CUT
10
159.1021
20
130.3281
0
VERTEX
8
CUT
10
158.0990
20
133.0307
0
VERTEX
8
CUT
10
157.3943
20
134.5029
0
VERTEX
8
CUT
10
157.2366
20
134.9013
0
VERTEX
8
CUT
10
157.1998
20
134.9092
0
VERTEX
8
CUT
10
157.0649
20
135.1910
0
VERTEX
8
CUT
10
156.6380
20
135.0964
0
VERTEX
8
CUT
10
156.3896
20
134.6091
0
VERTEX
8
CUT
10
156.0713
20
134.3434
0
VERTEX
8
CUT
10
154.2602
20
133.9427
0
VERTEX
8
CUT
10
145.8361
20
133.3591
0
VERTEX
8
CUT
10
138.6290
20
133.2077
0
VERTEX
8
CUT
10
138.3268
20
133.0044
0
VERTEX
8
CUT
10
138.4812
20
132.4798
0
VERTEX
8
CUT
10
140.5740
20
132.1604
0
VERTEX
8
CUT
10
140.6902
20
132.1007
0
VERTEX
8
CUT
10
140.9474
20
131.5567
0
VERTEX
8
CUT
10
137.4079
20
119.6732
0
VERTEX
8
CUT
10
136.6782
20
116.1867
0
VERTEX
8
CUT
10
136.2463
20
114.3408
0
VERTEX
8
CUT
10
136.2763
20
114.2670
0
VERTEX
8
CUT
10
135.7707
20
111.8513
0
VERTEX
8
CUT
10
134.8366
20
104.2714
0
VERTEX
8
CUT
10
134.6865
20
96.8879
0
VERTEX
8
CUT
10
135.2631
20
89.6376
0
VERTEX
8
CUT
10
136.5626
20
82.6083
0
VERTEX
8
CUT
10
138.6018
20
75.7709
0
VERTEX
8
CUT
10
140.0537
20
72.3176
0
VERTEX
8
CUT
10
140.1748
20
71.9844
0
VERTEX
8
CUT
10
140.3087
20
71.7112
0
VERTEX
8
CUT
10
141.0269
20
70.0031
0
VERTEX
8
CUT
10
141.0785
20
69.8750
0
VERTEX
8
CUT
10
141.0901
20
69.8527
0
VERTEX
8
CUT
10
141.4101
20
69.0916
0
VERTEX
8
CUT
10
143.4928
20
65.0746
0
VERTEX
8
CUT
10
145.3890
20
62.0039
0
VERTEX
8
CUT
10
147.1133
20
59.6561
0
VERTEX
8
CUT
10
147.1895
20
59.5432
0
VERTEX
8
CUT
10
147.2264
20
59.5022
0
VERTEX
8
CUT
10
147.8977
20
58.5881
0
VERTEX
8
CUT
10
149.7043
20
56.5382
0
VERTEX
8
CUT
10
150.0387
20
56.5128
0
VERTEX
8
CUT
10
150.2310
20
56.6530
0
VERTEX
8
CUT
10
150.2870
20
56.6670
0
VERTEX
8
CUT
10
150.3459
20
56.7367
0
VERTEX
8
CUT
10
150.4172
20
56.7886
0
VERTEX
8
CUT
10
151.5275
20
57.9837
0
VERTEX
8
CUT
10
152.3403
20
59.0943
0
VERTEX
8
CUT
10
152.5202
20
59.3070
0
VERTEX
8
CUT
10
152.7469
20
59.6499
0
VERTEX
8
CUT
10
154.5793
20
62.1538
0
VERTEX
8
CUT
10
156.9341
20
66.0813
0
VERTEX
8
CUT
10
157.9576
20
68.1730
0
VERTEX
8
CUT
10
158.6125
20
69.3771
0
VERTEX
8
CUT
10
160.6098
20
74.0678
0
VERTEX
8
CUT
10
160.8152
20
74.7095
0
VERTEX
8
CUT
10
160.9131
20
74.9482
0
VERTEX
8
CUT
10
162.5117
20
79.7169
0
VERTEX
8
CUT
10
162.9140
20
81.2684
0
VERTEX
8
CUT
10
163.0191
20
81.5968
0
VERTEX
8
CUT
10
163.1656
20
82.2387
0
VERTEX
8
CUT
10
163.7726
20
84.5801
0
VERTEX
8
CUT
10
164.1526
20
86.5642
0
VERTEX
8
CUT
10
164.1955
20
86.7523
0
VERTEX
8
CUT
10
164.2084
20
86.8554
0
VERTEX
8
CUT
10
164.7089
20
89.4688
0
VERTEX
8
CUT
10
165.3127
20
94.2925
0
VERTEX
8
CUT
10
165.5575
20
100.2769
0
VERTEX
8
CUT
10
165.8017
20
101.6052
0
VERTEX
8
CUT
10
167.4029
20
102.4694
0
VERTEX
8
CUT
10
176.4703
20
106.2076
0
VERTEX
8
CUT
10
177.0422
20
106.3423
0
VERTEX
8
CUT
10
177.6589
20
106.0506
0
VERTEX
8
CUT
10
177.7724
20
105.7426
0
VERTEX
8
CUT
10
178.1001
20
103.5115
0
VERTEX
8
CUT
10
178.1098
20
103.3245
0
VERTEX
8
CUT
10
178.1609
20
96.4898
0
VERTEX
8
CUT
10
178.1403
20
95.1664
0
VERTEX
8
CUT
10
177.5401
20
87.6616
0
VERTEX
8
CUT
10
177.3973
20
86.6541
0
VERTEX
8
CUT
10
175.8969
20
79.2092
0
VERTEX
8
CUT
10
174.8664
20
75.3281
0
VERTEX
8
CUT
10
172.3195
20
67.8364
0
VERTEX
8
CUT
10
170.8027
20
64.2249
0
VERTEX
8
CUT
10
169.1254
20
60.7179
0
VERTEX
8
CUT
10
166.3421
20
55.6959
0
VERTEX
8
CUT
10
162.4630
20
50.2131
0
VERTEX
8
CUT
10
162.3532
20
50.0793
0
VERTEX
8
CUT
10
162.0609
20
49.7232
0
VERTEX
8
CUT
10
158.5035
20
45.9096
0
VERTEX
8
CUT
10
155.9729
20
43.5621
0
VERTEX
8
CUT
10
152.2610
20
40.6122
0
VERTEX
8
CUT
10
149.9697
20
39.3875
0
VERTEX
8
CUT
10
149.2632
20
39.6854
0
VERTEX
8
CUT
10
148.3836
20
40.1148
0
VERTEX
8
CUT
10
146.9936
20
41.0496
0
VERTEX
8
CUT
10
141.7709
20
45.3628
0
VERTEX
8
CUT
10
139.0025
20
48.2138
0
VERTEX
8
CUT
10
138.7655
20
48.4807
0
VERTEX
8
CUT
10
138.2076
20
49.1607
0
VERTEX
8
CUT
10
134.6347
20
53.8313
0
VERTEX
8
CUT
10
134.3316
20
54.3054
0
VERTEX
8
CUT
10
131.2064
20
59.7818
0
VERTEX
8
CUT
10
128.0447
20
66.8348
0
VERTEX
8
CUT
10
125.3765
20
74.3565
0
VERTEX
8
CUT
10
124.0203
20
79.5876
0
VERTEX
8
CUT
10
123.7786
20
80.5748
0
VERTEX
8
CUT
10
123.6985
20
80.9020
0
VERTEX
8
CUT
10
123.5608
20
81.4647
0
VERTEX
8
CUT
10
123.3881
20
82.1698
0
VERTEX
8
CUT
10
122.6170
20
86.4938
0
VERTEX
8
CUT
10
122.0413
20
91.3170
0
VERTEX
8
CUT
10
121.8687
20
94.0796
0
VERTEX
8
CUT
10
121.7332
20
97.1527
0
VERTEX
8
CUT
10
121.7263
20
98.2598
0
VERTEX
8
CUT
10
121.9243
20
104.3134
0
VERTEX
8
CUT
10
121.9790
20
105.9839
0
VERTEX
8
CUT
10
121.9877
20
106.2515
0
VERTEX
8
CUT
10
121.9894
20
106.3024
0
VERTEX
8
CUT
10
122.4352
20
110.7372
0
VERTEX
8
CUT
10
123.1977
20
115.5552
0
VERTEX
8
CUT
10
124.7102
20
122.0283
0
VERTEX
8
CUT
10
125.8626
20
126.0322
0
VERTEX
8
CUT
10
127.9651
20
132.3026
0
VERTEX
8
CUT
10
128.3666
20
132.9772
0
VERTEX
8
CUT
10
128.4584
20
133.0226
0
VERTEX
8
CUT
10
129.1590
20
133.1915
0
VERTEX
8
CUT
10
129.4760
20
133.5373
0
VERTEX
8
CUT
10
129.2304
20
133.9370
0
VERTEX
8
CUT
10
122.3599
20
135.3905
0
VERTEX
8
CUT
10
116.5001
20
137.0901
0
VERTEX
8
CUT
10
110.7748
20
139.1669
0
VERTEX
8
CUT
10
108.7793
20
140.0862
0
VERTEX
8
CUT
10
107.6127
20
140.7998
0
VERTEX
8
CUT
10
107.1030
20
141.9472
0
VERTEX
8
CUT
10
106.9064
20
142.8363
0
SEQEND
0
POLYLINE
8
CUT
66
1
70
1
10
0.0
20
0.0
30
0.0
0
VERTEX
8
CUT
10
134.5671
20
132.9027
0
VERTEX
8
CUT
10
134.7184
20
132.6001
0
VERTEX
8
CUT
10
135.2933
20
132.4791
0
VERTEX
8
CUT
10
137.1392
20
132.6001
0
VERTEX
8
CUT
10
137.2300
20
133.1145
0
VERTEX
8
CUT
10
136.5643
20
133.3264
0
VERTEX
8
CUT
10
134.8697
20
133.2659
0
SEQEND
0
POLYLINE
8
CUT
66
1
70
1
10
0.0
20
0.0
30
0.0
0
VERTEX
8
CUT
10
73.6169
20
187.8188
0
VERTEX
8
CUT
10
76.5839
20
183.1869
0
VERTEX
8
CUT
10
79.3481
20
179.5213
0
VERTEX
8
CUT
10
82.5119
20
175.8971
0
VERTEX
8
CUT
10
83.2120
20
175.0836
0
VERTEX
8
CUT
10
83.5507
20
174.7299
0
VERTEX
8
CUT
10
84.9633
20
173.1203
0
VERTEX
8
CUT
10
87.8135
20
170.3002
0
VERTEX
8
CUT
10
89.0083
20
169.2332
0
VERTEX
8
CUT
10
93.1972
20
165.1651
0
VERTEX
8
CUT
10
93.4657
20
164.3087
0
VERTEX
8
CUT
10
93.5013
20
163.8195
0
VERTEX
8
CUT
10
92.8014
20
160.2161
0
VERTEX
8
CUT
10
91.8656
20
152.0305
0
VERTEX
8
CUT
10
91.5017
20
151.2430
0
VERTEX
8
CUT
10
91.2148
20
151.1623
0
VERTEX
8
CUT
10
90.8869
20
151.1360
0
VERTEX
8
CUT
10
89.7580
20
151.7553
0
VERTEX
8
CUT
10
88.6008
20
152.5463
0
VERTEX
8
CUT
10
88.4254
20
152.6736
0
VERTEX
8
CUT
10
88.0595
20
152.9391
0
VERTEX
8
CUT
10
88.0227
20
152.9658
0
VERTEX
8
CUT
10
83.7396
20
156.3830
0
VERTEX
8
CUT
10
82.9608
20
157.0691
0
VERTEX
8
CUT
10
82.1625
20
157.7723
0
VERTEX
8
CUT
10
81.3078
20
158.5253
0
VERTEX
8
CUT
10
80.0320
20
159.6491
0
VERTEX
8
CUT
10
78.4357
20
161.1185
0
VERTEX
8
CUT
10
77.4278
20
162.1461
0
VERTEX
8
CUT
10
77.0772
20
162.5035
0
VERTEX
8
CUT
10
75.7509
20
163.8559
0
VERTEX
8
CUT
10
73.7397
20
165.9064
0
VERTEX
8
CUT
10
72.2454
20
167.4837
0
VERTEX
8
CUT
10
67.7451
20
172.9506
0
VERTEX
8
CUT
10
63.6648
20
178.6451
0
VERTEX
8
CUT
10
60.5768
20
183.7296
0
VERTEX
8
CUT
10
60.2554
20
184.3180
0
VERTEX
8
CUT
10
60.2191
20
184.3870
0
VERTEX
8
CUT
10
60.1735
20
184.4738
0
VERTEX
8
CUT
10
60.0987
20
184.6160
0
VERTEX
8
CUT
10
59.5021
20
185.7505
0
VERTEX
8
CUT
10
56.4343
20
192.2214
0
VERTEX
8
CUT
10
55.6057
20
194.3030
0
VERTEX
8
CUT
10
54.4409
20
197.5568
0
VERTEX
8
CUT
10
53.2970
20
201.4463
0
VERTEX
8
CUT
10
52.2315
20
206.3493
0
VERTEX
8
CUT
10
51.8071
20
210.1502
0
VERTEX
8
CUT
10
51.8546
20
211.0471
0
VERTEX
8
CUT
10
51.8946
20
211.4321
0
VERTEX
8
CUT
10
52.2346
20
212.1491
0
VERTEX
8
CUT
10
54.4213
20
213.0470
0
VERTEX
8
CUT
10
58.1123
20
213.9643
0
VERTEX
8
CUT
10
58.9395
20
214.1327
0
VERTEX
8
CUT
10
65.4634
20
215.2382
0
VERTEX
8
CUT
10
67.3688
20
215.4531
0
VERTEX
8
CUT
10
70.6823
20
215.7543
0
VERTEX
8
CUT
10
78.7687
20
215.7846
0
VERTEX
8
CUT
10
84.1732
20
215.4810
0
VERTEX
8
CUT
10
88.6228
20
214.9611
0
VERTEX
8
CUT
10
96.8081
20
213.1489
0
VERTEX
8
CUT
10
104.7012
20
210.6192
0
VERTEX
8
CUT
10
111.6442
20
207.6092
0
VERTEX
8
CUT
10
114.4760
20
206.0844
0
VERTEX
8
CUT
10
119.3510
20
203.3357
0
VERTEX
8
CUT
10
126.2670
20
198.5711
0
VERTEX
8
CUT
10
132.9045
20
192.9624
0
VERTEX
8
CUT
10
138.7404
20
187.1812
0
VERTEX
8
CUT
10
140.8824
20
184.7961
0
VERTEX
8
CUT
10
145.9708
20
178.8873
0
VERTEX
8
CUT
10
146.1883
20
178.6157
0
VERTEX
8
CUT
10
146.2226
20
178.5729
0
VERTEX
8
CUT
10
146.2248
20
178.5702
0
VERTEX
8
CUT
10
146.2383
20
178.5533
0
VERTEX
8
CUT
10
147.6086
20
176.7089
0
VERTEX
8
CUT
10
147.6087
20
176.7087
0
VERTEX
8
CUT
10
147.6093
20
176.7076
0
VERTEX
8
CUT
10
147.6186
20
176.6919
0
VERTEX
8
CUT
10
147.9213
20
176.1806
0
VERTEX
8
CUT
10
148.0372
20
175.7290
0
VERTEX
8
CUT
10
148.0342
20
175.7138
0
VERTEX
8
CUT
10
148.0323
20
175.7043
0
VERTEX
8
CUT
10
148.0316
20
175.7009
0
VERTEX
8
CUT
10
148.0286
20
175.6856
0
VERTEX
8
CUT
10
148.0267
20
175.6761
0
VERTEX
8
CUT
10
148.0196
20
175.6404
0
VERTEX
8
CUT
10
141.8185
20
166.7330
0
VERTEX
8
CUT
10
140.9626
20
165.6628
0
VERTEX
8
CUT
10
140.2293
20
165.2316
0
VERTEX
8
CUT
10
139.4488
20
165.8243
0
VERTEX
8
CUT
10
139.4443
20
165.8288
0
VERTEX
8
CUT
10
139.4438
20
165.8293
0
VERTEX
8
CUT
10
139.4407
20
165.8323
0
VERTEX
8
CUT
10
139.4344
20
165.8386
0
VERTEX
8
CUT
10
138.2850
20
167.1206
0
VERTEX
8
CUT
10
137.5319
20
168.0125
0
VERTEX
8
CUT
10
137.0938
20
168.5315
0
VERTEX
8
CUT
10
136.4580
20
169.2845
0
VERTEX
8
CUT
10
135.8314
20
170.0267
0
VERTEX
8
CUT
10
130.4437
20
176.4321
0
VERTEX
8
CUT
10
129.2795
20
177.6418
0
VERTEX
8
CUT
10
127.6338
20
179.3927
0
VERTEX
8
CUT
10
127.1696
20
179.8343
0
VERTEX
8
CUT
10
125.8225
20
181.2342
0
VERTEX
8
CUT
10
121.3615
20
185.4240
0
VERTEX
8
CUT
10
115.3099
20
190.1732
0
VERTEX
8
CUT
10
111.2089
20
192.7958
0
VERTEX
8
CUT
10
109.8963
20
193.5267
0
VERTEX
8
CUT
10
109.8929
20
193.5297
0
VERTEX
8
CUT
10
109.8731
20
193.5396
0
VERTEX
8
CUT
10
106.9816
20
195.1496
0
VERTEX
8
CUT
10
104.9996
20
196.0576
0
VERTEX
8
CUT
10
104.3296
20
196.4149
0
VERTEX
8
CUT
10
103.6457
20
196.6779
0
VERTEX
8
CUT
10
102.6396
20
197.1388
0
VERTEX
8
CUT
10
100.1030
20
198.0980
0
VERTEX
8
CUT
10
99.7351
20
198.2564
0
VERTEX
8
CUT
10
99.4649
20
198.3393
0
VERTEX
8
CUT
10
98.1738
20
198.8275
0
VERTEX
8
CUT
10
93.6484
20
200.1840
0
VERTEX
8
CUT
10
91.5662
20
200.6462
0
VERTEX
8
CUT
10
91.3887
20
200.6960
0
VERTEX
8
CUT
10
91.1444
20
200.7398
0
VERTEX
8
CUT
10
89.0328
20
201.2085
0
VERTEX
8
CUT
10
86.6615
20
201.5445
0
VERTEX
8
CUT
10
86.3600
20
201.5986
0
VERTEX
8
CUT
10
86.2204
20
201.6069
0
VERTEX
8
CUT
10
84.3582
20
201.8708
0
VERTEX
8
CUT
10
79.9667
20
202.0808
0
VERTEX
8
CUT
10
79.6321
20
202.0783
0
VERTEX
8
CUT
10
79.5229
20
202.1996
0
VERTEX
8
CUT
10
77.8283
20
202.3510
0
VERTEX
8
CUT
10
74.8930
20
202.2602
0
VERTEX
8
CUT
10
74.5623
20
202.0397
0
VERTEX
8
CUT
10
74.5614
20
202.0397
0
VERTEX
8
CUT
10
72.0466
20
202.0498
0
VERTEX
8
CUT
10
68.4489
20
201.7237
0
VERTEX
8
CUT
10
68.1910
20
201.6482
0
VERTEX
8
CUT
10
67.7816
20
201.6085
0
VERTEX
8
CUT
10
67.5395
20
201.2857
0
VERTEX
8
CUT
10
67.6897
20
200.4175
0
VERTEX
8
CUT
10
68.7403
20
197.8005
0
VERTEX
8
CUT
10
68.7616
20
197.7427
0
VERTEX
8
CUT
10
68.7788
20
197.7046
0
VERTEX
8
CUT
10
69.9421
20
194.8071
0
VERTEX
8
CUT
10
71.0244
20
192.7489
0
VERTEX
8
CUT
10
71.5342
20
191.6238
0
VERTEX
8
CUT
10
72.3375
20
190.2518
0
SEQEND
0
ENDSEC
0
EOF
