0
SECTION
2
ENTITIES
0
POLYLINE
8
CUT
66
1
70
1
0
VERTEX
8
CUT
10
299.9887
20
151.8407
0
VERTEX
8
CUT
10
299.9746
20
152.7610
0
VERTEX
8
CUT
10
299.9548
20
153.6812
0
VERTEX
8
CUT
10
299.9294
20
154.6012
0
VERTEX
8
CUT
10
299.8984
20
155.5211
0
VERTEX
8
CUT
10
299.8617
20
156.4407
0
VERTEX
8
CUT
10
299.8193
20
157.3602
0
VERTEX
8
CUT
10
299.7713
20
158.2793
0
VERTEX
8
CUT
10
299.7177
20
159.1981
0
VERTEX
8
CUT
10
299.6585
20
160.1166
0
VERTEX
8
CUT
10
299.5936
20
161.0347
0
VERTEX
8
CUT
10
299.5230
20
161.9524
0
VERTEX
8
CUT
10
299.4469
20
162.8696
0
VERTEX
8
CUT
10
299.3651
20
163.7863
0
VERTEX
8
CUT
10
299.2777
20
164.7026
0
VERTEX
8
CUT
10
299.1847
20
165.6182
0
VERTEX
8
CUT
10
299.0860
20
166.5333
0
VERTEX
8
CUT
10
298.9818
20
167.4478
0
VERTEX
8
CUT
10
298.8719
20
168.3616
0
VERTEX
8
CUT
10
298.7565
20
169.2747
0
VERTEX
8
CUT
10
298.6354
20
170.1871
0
VERTEX
8
CUT
10
298.5087
20
171.0987
0
VERTEX
8
CUT
10
298.3765
20
172.0096
0
VERTEX
8
CUT
10
298.2386
20
172.9196
0
VERTEX
8
CUT
10
298.0952
20
173.8287
0
VERTEX
8
CUT
10
297.9462
20
174.7370
0
VERTEX
8
CUT
10
297.7916
20
175.6443
0
VERTEX
8
CUT
10
297.6315
20
176.5506
0
VERTEX
8
CUT
10
297.4658
20
177.4560
0
VERTEX
8
CUT
10
297.2946
20
178.3603
0
VERTEX
8
CUT
10
297.1178
20
179.2635
0
VERTEX
8
CUT
10
296.9355
20
180.1657
0
VERTEX
8
CUT
10
296.7476
20
181.0667
0
VERTEX
8
CUT
10
296.5542
20
181.9665
0
VERTEX
8
CUT
10
296.3553
20
182.8652
0
VERTEX
8
CUT
10
296.1509
20
183.7626
0
VERTEX
8
CUT
10
295.9410
20
184.6587
0
VERTEX
8
CUT
10
295.7256
20
185.5535
0
VERTEX
8
CUT
10
295.5047
20
186.4470
0
VERTEX
8
CUT
10
295.2783
20
187.3391
0
VERTEX
8
CUT
10
295.0465
20
188.2298
0
VERTEX
8
CUT
10
294.8092
20
189.1191
0
VERTEX
8
CUT
10
294.5664
20
190.0069
0
VERTEX
8
CUT
10
294.3182
20
190.8932
0
VERTEX
8
CUT
10
294.0646
20
191.7780
0
VERTEX
8
CUT
10
293.8055
20
192.6611
0
VERTEX
8
CUT
10
293.5411
20
193.5427
0
VERTEX
8
CUT
10
293.2712
20
194.4226
0
VERTEX
8
CUT
10
292.9959
20
195.3009
0
VERTEX
8
CUT
10
292.7153
20
196.1774
0
VERTEX
8
CUT
10
292.4292
20
197.0523
0
VERTEX
8
CUT
10
292.1378
20
197.9253
0
VERTEX
8
CUT
10
291.8411
20
198.7965
0
VERTEX
8
CUT
10
291.5390
20
199.6659
0
VERTEX
8
CUT
10
291.2316
20
200.5335
0
VERTEX
8
CUT
10
290.9189
20
201.3991
0
VERTEX
8
CUT
10
290.6009
20
202.2628
0
VERTEX
8
CUT
10
290.2775
20
203.1245
0
VERTEX
8
CUT
10
289.9489
20
203.9843
0
VERTEX
8
CUT
10
289.6150
20
204.8419
0
VERTEX
8
CUT
10
289.2759
20
205.6976
0
VERTEX
8
CUT
10
288.9315
20
206.5511
0
VERTEX
8
CUT
10
288.5819
20
207.4025
0
VERTEX
8
CUT
10
288.2271
20
208.2518
0
VERTEX
8
CUT
10
287.8671
20
209.0988
0
VERTEX
8
CUT
10
287.5019
20
209.9436
0
VERTEX
8
CUT
10
287.1315
20
210.7862
0
VERTEX
8
CUT
10
286.7559
20
211.6265
0
VERTEX
8
CUT
10
286.3752
20
212.4644
0
VERTEX
8
CUT
10
285.9894
20
213.3000
0
VERTEX
8
CUT
10
285.5984
20
214.1333
0
VERTEX
8
CUT
10
285.2023
20
214.9641
0
VERTEX
8
CUT
10
284.8012
20
215.7924
0
VERTEX
8
CUT
10
284.3949
20
216.6183
0
VERTEX
8
CUT
10
283.9836
20
217.4417
0
VERTEX
8
CUT
10
283.5673
20
218.2625
0
VERTEX
8
CUT
10
283.1459
20
219.0808
0
VERTEX
8
CUT
10
282.7196
20
219.8965
0
VERTEX
8
CUT
10
282.2882
20
220.7095
0
VERTEX
8
CUT
10
281.8518
20
221.5199
0
VERTEX
8
CUT
10
281.4105
20
222.3276
0
VERTEX
8
CUT
10
280.9642
20
223.1325
0
VERTEX
8
CUT
10
280.5130
20
223.9347
0
VERTEX
8
CUT
10
280.0569
20
224.7342
0
VERTEX
8
CUT
10
279.5959
20
225.5308
0
VERTEX
8
CUT
10
279.1300
20
226.3245
0
VERTEX
8
CUT
10
278.6593
20
227.1154
0
VERTEX
8
CUT
10
278.1837
20
227.9034
0
VERTEX
8
CUT
10
277.7033
20
228.6885
0
VERTEX
8
CUT
10
277.2181
20
229.4705
0
VERTEX
8
CUT
10
276.7280
20
230.2496
0
VERTEX
8
CUT
10
276.2332
20
231.0257
0
VERTEX
8
CUT
10
275.7337
20
231.7987
0
VERTEX
8
CUT
10
275.2294
20
232.5687
0
VERTEX
8
CUT
10
274.7204
20
233.3355
0
VERTEX
8
CUT
10
274.2068
20
234.0992
0
VERTEX
8
CUT
10
273.6884
20
234.8598
0
VERTEX
8
CUT
10
273.1654
20
235.6171
0
VERTEX
8
CUT
10
272.6377
20
236.3712
0
VERTEX
8
CUT
10
272.1054
20
237.1221
0
VERTEX
8
CUT
10
271.5686
20
237.8697
0
VERTEX
8
CUT
10
271.0271
20
238.6140
0
VERTEX
8
CUT
10
270.4811
20
239.3549
0
VERTEX
8
CUT
10
269.9306
20
240.0925
0
VERTEX
8
CUT
10
269.3755
20
240.8267
0
VERTEX
8
CUT
10
268.8160
20
241.5574
0
VERTEX
8
CUT
10
268.2520
20
242.2847
0
VERTEX
8
CUT
10
267.6835
20
243.0086
0
VERTEX
8
CUT
10
267.1106
20
243.7289
0
VERTEX
8
CUT
10
266.5333
20
244.4457
0
VERTEX
8
CUT
10
265.9516
20
245.1590
0
VERTEX
8
CUT
10
265.3655
20
245.8687
0
VERTEX
8
CUT
10
264.7751
20
246.5747
0
VERTEX
8
CUT
10
264.1804
20
247.2772
0
VERTEX
8
CUT
10
263.5813
20
247.9759
0
VERTEX
8
CUT
10
262.9780
20
248.6710
0
VERTEX
8
CUT
10
262.3705
20
249.3624
0
VERTEX
8
CUT
10
261.7587
20
250.0500
0
VERTEX
8
CUT
10
261.1427
20
250.7338
0
VERTEX
8
CUT
10
260.5225
20
251.4139
0
VERTEX
8
CUT
10
259.8981
20
252.0901
0
VERTEX
8
CUT
10
259.2697
20
252.7626
0
VERTEX
8
CUT
10
258.6371
20
253.4311
0
VERTEX
8
CUT
10
258.0004
20
254.0957
0
VERTEX
8
CUT
10
257.3596
20
254.7564
0
VERTEX
8
CUT
10
256.7148
20
255.4132
0
VERTEX
8
CUT
10
256.0660
20
256.0660
0
VERTEX
8
CUT
10
255.4132
20
256.7148
0
VERTEX
8
CUT
10
254.7564
20
257.3596
0
VERTEX
8
CUT
10
254.0957
20
258.0004
0
VERTEX
8
CUT
10
253.4311
20
258.6371
0
VERTEX
8
CUT
10
252.7626
20
259.2697
0
VERTEX
8
CUT
10
252.0901
20
259.8981
0
VERTEX
8
CUT
10
251.4139
20
260.5225
0
VERTEX
8
CUT
10
250.7338
20
261.1427
0
VERTEX
8
CUT
10
250.0500
20
261.7587
0
VERTEX
8
CUT
10
249.3624
20
262.3705
0
VERTEX
8
CUT
10
248.6710
20
262.9780
0
VERTEX
8
CUT
10
247.9759
20
263.5813
0
VERTEX
8
CUT
10
247.2772
20
264.1804
0
VERTEX
8
CUT
10
246.5747
20
264.7751
0
VERTEX
8
CUT
10
245.8687
20
265.3655
0
VERTEX
8
CUT
10
245.1590
20
265.9516
0
VERTEX
8
CUT
10
244.4457
20
266.5333
0
VERTEX
8
CUT
10
243.7289
20
267.1106
0
VERTEX
8
CUT
10
243.0086
20
267.6835
0
VERTEX
8
CUT
10
242.2847
20
268.2520
0
VERTEX
8
CUT
10
241.5574
20
268.8160
0
VERTEX
8
CUT
10
240.8267
20
269.3755
0
VERTEX
8
CUT
10
240.0925
20
269.9306
0
VERTEX
8
CUT
10
239.3549
20
270.4811
0
VERTEX
8
CUT
10
238.6140
20
271.0271
0
VERTEX
8
CUT
10
237.8697
20
271.5686
0
VERTEX
8
CUT
10
237.1221
20
272.1054
0
VERTEX
8
CUT
10
236.3712
20
272.6377
0
VERTEX
8
CUT
10
235.6171
20
273.1654
0
VERTEX
8
CUT
10
234.8598
20
273.6884
0
VERTEX
8
CUT
10
234.0992
20
274.2068
0
VERTEX
8
CUT
10
233.3355
20
274.7204
0
VERTEX
8
CUT
10
232.5687
20
275.2294
0
VERTEX
8
CUT
10
231.7987
20
275.7337
0
VERTEX
8
CUT
10
231.0257
20
276.2332
0
VERTEX
8
CUT
10
230.2496
20
276.7280
0
VERTEX
8
CUT
10
229.4705
20
277.2181
0
VERTEX
8
CUT
10
228.6885
20
277.7033
0
VERTEX
8
CUT
10
227.9034
20
278.1837
0
VERTEX
8
CUT
10
227.1154
20
278.6593
0
VERTEX
8
CUT
10
226.3245
20
279.1300
0
VERTEX
8
CUT
10
225.5308
20
279.5959
0
VERTEX
8
CUT
10
224.7342
20
280.0569
0
VERTEX
8
CUT
10
223.9347
20
280.5130
0
VERTEX
8
CUT
10
223.1325
20
280.9642
0
VERTEX
8
CUT
10
222.3276
20
281.4105
0
VERTEX
8
CUT
10
221.5199
20
281.8518
0
VERTEX
8
CUT
10
220.7095
20
282.2882
0
VERTEX
8
CUT
10
219.8965
20
282.7196
0
VERTEX
8
CUT
10
219.0808
20
283.1459
0
VERTEX
8
CUT
10
218.2625
20
283.5673
0
VERTEX
8
CUT
10
217.4417
20
283.9836
0
VERTEX
8
CUT
10
216.6183
20
284.3949
0
VERTEX
8
CUT
10
215.7924
20
284.8012
0
VERTEX
8
CUT
10
214.9641
20
285.2023
0
VERTEX
8
CUT
10
214.1333
20
285.5984
0
VERTEX
8
CUT
10
213.3000
20
285.9894
0
VERTEX
8
CUT
10
212.4644
20
286.3752
0
VERTEX
8
CUT
10
211.6265
20
286.7559
0
VERTEX
8
CUT
10
210.7862
20
287.1315
0
VERTEX
8
CUT
10
209.9436
20
287.5019
0
VERTEX
8
CUT
10
209.0988
20
287.8671
0
VERTEX
8
CUT
10
208.2518
20
288.2271
0
VERTEX
8
CUT
10
207.4025
20
288.5819
0
VERTEX
8
CUT
10
206.5511
20
288.9315
0
VERTEX
8
CUT
10
205.6976
20
289.2759
0
VERTEX
8
CUT
10
204.8419
20
289.6150
0
VERTEX
8
CUT
10
203.9843
20
289.9489
0
VERTEX
8
CUT
10
203.1245
20
290.2775
0
VERTEX
8
CUT
10
202.2628
20
290.6009
0
VERTEX
8
CUT
10
201.3991
20
290.9189
0
VERTEX
8
CUT
10
200.5335
20
291.2316
0
VERTEX
8
CUT
10
199.6659
20
291.5390
0
VERTEX
8
CUT
10
198.7965
20
291.8411
0
VERTEX
8
CUT
10
197.9253
20
292.1378
0
VERTEX
8
CUT
10
197.0523
20
292.4292
0
VERTEX
8
CUT
10
196.1774
20
292.7153
0
VERTEX
8
CUT
10
195.3009
20
292.9959
0
VERTEX
8
CUT
10
194.4226
20
293.2712
0
VERTEX
8
CUT
10
193.5427
20
293.5411
0
VERTEX
8
CUT
10
192.6611
20
293.8055
0
VERTEX
8
CUT
10
191.7780
20
294.0646
0
VERTEX
8
CUT
10
190.8932
20
294.3182
0
VERTEX
8
CUT
10
190.0069
20
294.5664
0
VERTEX
8
CUT
10
189.1191
20
294.8092
0
VERTEX
8
CUT
10
188.2298
20
295.0465
0
VERTEX
8
CUT
10
187.3391
20
295.2783
0
VERTEX
8
CUT
10
186.4470
20
295.5047
0
VERTEX
8
CUT
10
185.5535
20
295.7256
0
VERTEX
8
CUT
10
184.6587
20
295.9410
0
VERTEX
8
CUT
10
183.7626
20
296.1509
0
VERTEX
8
CUT
10
182.8652
20
296.3553
0
VERTEX
8
CUT
10
181.9665
20
296.5542
0
VERTEX
8
CUT
10
181.0667
20
296.7476
0
VERTEX
8
CUT
10
180.1657
20
296.9355
0
VERTEX
8
CUT
10
179.2635
20
297.1178
0
VERTEX
8
CUT
10
178.3603
20
297.2946
0
VERTEX
8
CUT
10
177.4560
20
297.4658
0
VERTEX
8
CUT
10
176.5506
20
297.6315
0
VERTEX
8
CUT
10
175.6443
20
297.7916
0
VERTEX
8
CUT
10
174.7370
20
297.9462
0
VERTEX
8
CUT
10
173.8287
20
298.0952
0
VERTEX
8
CUT
10
172.9196
20
298.2386
0
VERTEX
8
CUT
10
172.0096
20
298.3765
0
VERTEX
8
CUT
10
171.0987
20
298.5087
0
VERTEX
8
CUT
10
170.1871
20
298.6354
0
VERTEX
8
CUT
10
169.2747
20
298.7565
0
VERTEX
8
CUT
10
168.3616
20
298.8719
0
VERTEX
8
CUT
10
167.4478
20
298.9818
0
VERTEX
8
CUT
10
166.5333
20
299.0860
0
VERTEX
8
CUT
10
165.6182
20
299.1847
0
VERTEX
8
CUT
10
164.7026
20
299.2777
0
VERTEX
8
CUT
10
163.7863
20
299.3651
0
VERTEX
8
CUT
10
162.8696
20
299.4469
0
VERTEX
8
CUT
10
161.9524
20
299.5230
0
VERTEX
8
CUT
10
161.0347
20
299.5936
0
VERTEX
8
CUT
10
160.1166
20
299.6585
0
VERTEX
8
CUT
10
159.1981
20
299.7177
0
VERTEX
8
CUT
10
158.2793
20
299.7713
0
VERTEX
8
CUT
10
157.3602
20
299.8193
0
VERTEX
8
CUT
10
156.4407
20
299.8617
0
VERTEX
8
CUT
10
155.5211
20
299.8984
0
VERTEX
8
CUT
10
154.6012
20
299.9294
0
VERTEX
8
CUT
10
153.6812
20
299.9548
0
VERTEX
8
CUT
10
152.7610
20
299.9746
0
VERTEX
8
CUT
10
151.8407
20
299.9887
0
VERTEX
8
CUT
10
150.9204
20
299.9972
0
VERTEX
8
CUT
10
150.0000
20
300.0000
0
VERTEX
8
CUT
10
149.0796
20
299.9972
0
VERTEX
8
CUT
10
148.1593
20
299.9887
0
VERTEX
8
CUT
10
147.2390
20
299.9746
0
VERTEX
8
CUT
10
146.3188
20
299.9548
0
VERTEX
8
CUT
10
145.3988
20
299.9294
0
VERTEX
8
CUT
10
144.4789
20
299.8984
0
VERTEX
8
CUT
10
143.5593
20
299.8617
0
VERTEX
8
CUT
10
142.6398
20
299.8193
0
VERTEX
8
CUT
10
141.7207
20
299.7713
0
VERTEX
8
CUT
10
140.8019
20
299.7177
0
VERTEX
8
CUT
10
139.8834
20
299.6585
0
VERTEX
8
CUT
10
138.9653
20
299.5936
0
VERTEX
8
CUT
10
138.0476
20
299.5230
0
VERTEX
8
CUT
10
137.1304
20
299.4469
0
VERTEX
8
CUT
10
136.2137
20
299.3651
0
VERTEX
8
CUT
10
135.2974
20
299.2777
0
VERTEX
8
CUT
10
134.3818
20
299.1847
0
VERTEX
8
CUT
10
133.4667
20
299.0860
0
VERTEX
8
CUT
10
132.5522
20
298.9818
0
VERTEX
8
CUT
10
131.6384
20
298.8719
0
VERTEX
8
CUT
10
130.7253
20
298.7565
0
VERTEX
8
CUT
10
129.8129
20
298.6354
0
VERTEX
8
CUT
10
128.9013
20
298.5087
0
VERTEX
8
CUT
10
127.9904
20
298.3765
0
VERTEX
8
CUT
10
127.0804
20
298.2386
0
VERTEX
8
CUT
10
126.1713
20
298.0952
0
VERTEX
8
CUT
10
125.2630
20
297.9462
0
VERTEX
8
CUT
10
124.3557
20
297.7916
0
VERTEX
8
CUT
10
123.4494
20
297.6315
0
VERTEX
8
CUT
10
122.5440
20
297.4658
0
VERTEX
8
CUT
10
121.6397
20
297.2946
0
VERTEX
8
CUT
10
120.7365
20
297.1178
0
VERTEX
8
CUT
10
119.8343
20
296.9355
0
VERTEX
8
CUT
10
118.9333
20
296.7476
0
VERTEX
8
CUT
10
118.0335
20
296.5542
0
VERTEX
8
CUT
10
117.1348
20
296.3553
0
VERTEX
8
CUT
10
116.2374
20
296.1509
0
VERTEX
8
CUT
10
115.3413
20
295.9410
0
VERTEX
8
CUT
10
114.4465
20
295.7256
0
VERTEX
8
CUT
10
113.5530
20
295.5047
0
VERTEX
8
CUT
10
112.6609
20
295.2783
0
VERTEX
8
CUT
10
111.7702
20
295.0465
0
VERTEX
8
CUT
10
110.8809
20
294.8092
0
VERTEX
8
CUT
10
109.9931
20
294.5664
0
VERTEX
8
CUT
10
109.1068
20
294.3182
0
VERTEX
8
CUT
10
108.2220
20
294.0646
0
VERTEX
8
CUT
10
107.3389
20
293.8055
0
VERTEX
8
CUT
10
106.4573
20
293.5411
0
VERTEX
8
CUT
10
105.5774
20
293.2712
0
VERTEX
8
CUT
10
104.6991
20
292.9959
0
VERTEX
8
CUT
10
103.8226
20
292.7153
0
VERTEX
8
CUT
10
102.9477
20
292.4292
0
VERTEX
8
CUT
10
102.0747
20
292.1378
0
VERTEX
8
CUT
10
101.2035
20
291.8411
0
VERTEX
8
CUT
10
100.3341
20
291.5390
0
VERTEX
8
CUT
10
99.4665
20
291.2316
0
VERTEX
8
CUT
10
98.6009
20
290.9189
0
VERTEX
8
CUT
10
97.7372
20
290.6009
0
VERTEX
8
CUT
10
96.8755
20
290.2775
0
VERTEX
8
CUT
10
96.0157
20
289.9489
0
VERTEX
8
CUT
10
95.1581
20
289.6150
0
VERTEX
8
CUT
10
94.3024
20
289.2759
0
VERTEX
8
CUT
10
93.4489
20
288.9315
0
VERTEX
8
CUT
10
92.5975
20
288.5819
0
VERTEX
8
CUT
10
91.7482
20
288.2271
0
VERTEX
8
CUT
10
90.9012
20
287.8671
0
VERTEX
8
CUT
10
90.0564
20
287.5019
0
VERTEX
8
CUT
10
89.2138
20
287.1315
0
VERTEX
8
CUT
10
88.3735
20
286.7559
0
VERTEX
8
CUT
10
87.5356
20
286.3752
0
VERTEX
8
CUT
10
86.7000
20
285.9894
0
VERTEX
8
CUT
10
85.8667
20
285.5984
0
VERTEX
8
CUT
10
85.0359
20
285.2023
0
VERTEX
8
CUT
10
84.2076
20
284.8012
0
VERTEX
8
CUT
10
83.3817
20
284.3949
0
VERTEX
8
CUT
10
82.5583
20
283.9836
0
VERTEX
8
CUT
10
81.7375
20
283.5673
0
VERTEX
8
CUT
10
80.9192
20
283.1459
0
VERTEX
8
CUT
10
80.1035
20
282.7196
0
VERTEX
8
CUT
10
79.2905
20
282.2882
0
VERTEX
8
CUT
10
78.4801
20
281.8518
0
VERTEX
8
CUT
10
77.6724
20
281.4105
0
VERTEX
8
CUT
10
76.8675
20
280.9642
0
VERTEX
8
CUT
10
76.0653
20
280.5130
0
VERTEX
8
CUT
10
75.2658
20
280.0569
0
VERTEX
8
CUT
10
74.4692
20
279.5959
0
VERTEX
8
CUT
10
73.6755
20
279.1300
0
VERTEX
8
CUT
10
72.8846
20
278.6593
0
VERTEX
8
CUT
10
72.0966
20
278.1837
0
VERTEX
8
CUT
10
71.3115
20
277.7033
0
VERTEX
8
CUT
10
70.5295
20
277.2181
0
VERTEX
8
CUT
10
69.7504
20
276.7280
0
VERTEX
8
CUT
10
68.9743
20
276.2332
0
VERTEX
8
CUT
10
68.2013
20
275.7337
0
VERTEX
8
CUT
10
67.4313
20
275.2294
0
VERTEX
8
CUT
10
66.6645
20
274.7204
0
VERTEX
8
CUT
10
65.9008
20
274.2068
0
VERTEX
8
CUT
10
65.1402
20
273.6884
0
VERTEX
8
CUT
10
64.3829
20
273.1654
0
VERTEX
8
CUT
10
63.6288
20
272.6377
0
VERTEX
8
CUT
10
62.8779
20
272.1054
0
VERTEX
8
CUT
10
62.1303
20
271.5686
0
VERTEX
8
CUT
10
61.3860
20
271.0271
0
VERTEX
8
CUT
10
60.6451
20
270.4811
0
VERTEX
8
CUT
10
59.9075
20
269.9306
0
VERTEX
8
CUT
10
59.1733
20
269.3755
0
VERTEX
8
CUT
10
58.4426
20
268.8160
0
VERTEX
8
CUT
10
57.7153
20
268.2520
0
VERTEX
8
CUT
10
56.9914
20
267.6835
0
VERTEX
8
CUT
10
56.2711
20
267.1106
0
VERTEX
8
CUT
10
55.5543
20
266.5333
0
VERTEX
8
CUT
10
54.8410
20
265.9516
0
VERTEX
8
CUT
10
54.1313
20
265.3655
0
VERTEX
8
CUT
10
53.4253
20
264.7751
0
VERTEX
8
CUT
10
52.7228
20
264.1804
0
VERTEX
8
CUT
10
52.0241
20
263.5813
0
VERTEX
8
CUT
10
51.3290
20
262.9780
0
VERTEX
8
CUT
10
50.6376
20
262.3705
0
VERTEX
8
CUT
10
49.9500
20
261.7587
0
VERTEX
8
CUT
10
49.2662
20
261.1427
0
VERTEX
8
CUT
10
48.5861
20
260.5225
0
VERTEX
8
CUT
10
47.9099
20
259.8981
0
VERTEX
8
CUT
10
47.2374
20
259.2697
0
VERTEX
8
CUT
10
46.5689
20
258.6371
0
VERTEX
8
CUT
10
45.9043
20
258.0004
0
VERTEX
8
CUT
10
45.2436
20
257.3596
0
VERTEX
8
CUT
10
44.5868
20
256.7148
0
VERTEX
8
CUT
10
43.9340
20
256.0660
0
VERTEX
8
CUT
10
43.2852
20
255.4132
0
VERTEX
8
CUT
10
42.6404
20
254.7564
0
VERTEX
8
CUT
10
41.9996
20
254.0957
0
VERTEX
8
CUT
10
41.3629
20
253.4311
0
VERTEX
8
CUT
10
40.7303
20
252.7626
0
VERTEX
8
CUT
10
40.1019
20
252.0901
0
VERTEX
8
CUT
10
39.4775
20
251.4139
0
VERTEX
8
CUT
10
38.8573
20
250.7338
0
VERTEX
8
CUT
10
38.2413
20
250.0500
0
VERTEX
8
CUT
10
37.6295
20
249.3624
0
VERTEX
8
CUT
10
37.0220
20
248.6710
0
VERTEX
8
CUT
10
36.4187
20
247.9759
0
VERTEX
8
CUT
10
35.8196
20
247.2772
0
VERTEX
8
CUT
10
35.2249
20
246.5747
0
VERTEX
8
CUT
10
34.6345
20
245.8687
0
VERTEX
8
CUT
10
34.0484
20
245.1590
0
VERTEX
8
CUT
10
33.4667
20
244.4457
0
VERTEX
8
CUT
10
32.8894
20
243.7289
0
VERTEX
8
CUT
10
32.3165
20
243.0086
0
VERTEX
8
CUT
10
31.7480
20
242.2847
0
VERTEX
8
CUT
10
31.1840
20
241.5574
0
VERTEX
8
CUT
10
30.6245
20
240.8267
0
VERTEX
8
CUT
10
30.0694
20
240.0925
0
VERTEX
8
CUT
10
29.5189
20
239.3549
0
VERTEX
8
CUT
10
28.9729
20
238.6140
0
VERTEX
8
CUT
10
28.4314
20
237.8697
0
VERTEX
8
CUT
10
27.8946
20
237.1221
0
VERTEX
8
CUT
10
27.3623
20
236.3712
0
VERTEX
8
CUT
10
26.8346
20
235.6171
0
VERTEX
8
CUT
10
26.3116
20
234.8598
0
VERTEX
8
CUT
10
25.7932
20
234.0992
0
VERTEX
8
CUT
10
25.2796
20
233.3355
0
VERTEX
8
CUT
10
24.7706
20
232.5687
0
VERTEX
8
CUT
10
24.2663
20
231.7987
0
VERTEX
8
CUT
10
23.7668
20
231.0257
0
VERTEX
8
CUT
10
23.2720
20
230.2496
0
VERTEX
8
CUT
10
22.7819
20
229.4705
0
VERTEX
8
CUT
10
22.2967
20
228.6885
0
VERTEX
8
CUT
10
21.8163
20
227.9034
0
VERTEX
8
CUT
10
21.3407
20
227.1154
0
VERTEX
8
CUT
10
20.8700
20
226.3245
0
VERTEX
8
CUT
10
20.4041
20
225.5308
0
VERTEX
8
CUT
10
19.9431
20
224.7342
0
VERTEX
8
CUT
10
19.4870
20
223.9347
0
VERTEX
8
CUT
10
19.0358
20
223.1325
0
VERTEX
8
CUT
10
18.5895
20
222.3276
0
VERTEX
8
CUT
10
18.1482
20
221.5199
0
VERTEX
8
CUT
10
17.7118
20
220.7095
0
VERTEX
8
CUT
10
17.2804
20
219.8965
0
VERTEX
8
CUT
10
16.8541
20
219.0808
0
VERTEX
8
CUT
10
16.4327
20
218.2625
0
VERTEX
8
CUT
10
16.0164
20
217.4417
0
VERTEX
8
CUT
10
15.6051
20
216.6183
0
VERTEX
8
CUT
10
15.1988
20
215.7924
0
VERTEX
8
CUT
10
14.7977
20
214.9641
0
VERTEX
8
CUT
10
14.4016
20
214.1333
0
VERTEX
8
CUT
10
14.0106
20
213.3000
0
VERTEX
8
CUT
10
13.6248
20
212.4644
0
VERTEX
8
CUT
10
13.2441
20
211.6265
0
VERTEX
8
CUT
10
12.8685
20
210.7862
0
VERTEX
8
CUT
10
12.4981
20
209.9436
0
VERTEX
8
CUT
10
12.1329
20
209.0988
0
VERTEX
8
CUT
10
11.7729
20
208.2518
0
VERTEX
8
CUT
10
11.4181
20
207.4025
0
VERTEX
8
CUT
10
11.0685
20
206.5511
0
VERTEX
8
CUT
10
10.7241
20
205.6976
0
VERTEX
8
CUT
10
10.3850
20
204.8419
0
VERTEX
8
CUT
10
10.0511
20
203.9843
0
VERTEX
8
CUT
10
9.7225
20
203.1245
0
VERTEX
8
CUT
10
9.3991
20
202.2628
0
VERTEX
8
CUT
10
9.0811
20
201.3991
0
VERTEX
8
CUT
10
8.7684
20
200.5335
0
VERTEX
8
CUT
10
8.4610
20
199.6659
0
VERTEX
8
CUT
10
8.1589
20
198.7965
0
VERTEX
8
CUT
10
7.8622
20
197.9253
0
VERTEX
8
CUT
10
7.5708
20
197.0523
0
VERTEX
8
CUT
10
7.2847
20
196.1774
0
VERTEX
8
CUT
10
7.0041
20
195.3009
0
VERTEX
8
CUT
10
6.7288
20
194.4226
0
VERTEX
8
CUT
10
6.4589
20
193.5427
0
VERTEX
8
CUT
10
6.1945
20
192.6611
0
VERTEX
8
CUT
10
5.9354
20
191.7780
0
VERTEX
8
CUT
10
5.6818
20
190.8932
0
VERTEX
8
CUT
10
5.4336
20
190.0069
0
VERTEX
8
CUT
10
5.1908
20
189.1191
0
VERTEX
8
CUT
10
4.9535
20
188.2298
0
VERTEX
8
CUT
10
4.7217
20
187.3391
0
VERTEX
8
CUT
10
4.4953
20
186.4470
0
VERTEX
8
CUT
10
4.2744
20
185.5535
0
VERTEX
8
CUT
10
4.0590
20
184.6587
0
VERTEX
8
CUT
10
3.8491
20
183.7626
0
VERTEX
8
CUT
10
3.6447
20
182.8652
0
VERTEX
8
CUT
10
3.4458
20
181.9665
0
VERTEX
8
CUT
10
3.2524
20
181.0667
0
VERTEX
8
CUT
10
3.0645
20
180.1657
0
VERTEX
8
CUT
10
2.8822
20
179.2635
0
VERTEX
8
CUT
10
2.7054
20
178.3603
0
VERTEX
8
CUT
10
2.5342
20
177.4560
0
VERTEX
8
CUT
10
2.3685
20
176.5506
0
VERTEX
8
CUT
10
2.2084
20
175.6443
0
VERTEX
8
CUT
10
2.0538
20
174.7370
0
VERTEX
8
CUT
10
1.9048
20
173.8287
0
VERTEX
8
CUT
10
1.7614
20
172.9196
0
VERTEX
8
CUT
10
1.6235
20
172.0096
0
VERTEX
8
CUT
10
1.4913
20
171.0987
0
VERTEX
8
CUT
10
1.3646
20
170.1871
0
VERTEX
8
CUT
10
1.2435
20
169.2747
0
VERTEX
8
CUT
10
1.1281
20
168.3616
0
VERTEX
8
CUT
10
1.0182
20
167.4478
0
VERTEX
8
CUT
10
0.9140
20
166.5333
0
VERTEX
8
CUT
10
0.8153
20
165.6182
0
VERTEX
8
CUT
10
0.7223
20
164.7026
0
VERTEX
8
CUT
10
0.6349
20
163.7863
0
VERTEX
8
CUT
10
0.5531
20
162.8696
0
VERTEX
8
CUT
10
0.4770
20
161.9524
0
VERTEX
8
CUT
10
0.4064
20
161.0347
0
VERTEX
8
CUT
10
0.3415
20
160.1166
0
VERTEX
8
CUT
10
0.2823
20
159.1981
0
VERTEX
8
CUT
10
0.2287
20
158.2793
0
VERTEX
8
CUT
10
0.1807
20
157.3602
0
VERTEX
8
CUT
10
0.1383
20
156.4407
0
VERTEX
8
CUT
10
0.1016
20
155.5211
0
VERTEX
8
CUT
10
0.0706
20
154.6012
0
VERTEX
8
CUT
10
0.0452
20
153.6812
0
VERTEX
8
CUT
10
0.0254
20
152.7610
0
VERTEX
8
CUT
10
0.0113
20
151.8407
0
VERTEX
8
CUT
10
0.0028
20
150.9204
0
VERTEX
8
CUT
10
0.0000
20
150.0000
0
VERTEX
8
CUT
10
0.0028
20
149.0796
0
VERTEX
8
CUT
10
0.0113
20
148.1593
0
VERTEX
8
CUT
10
0.0254
20
147.2390
0
VERTEX
8
CUT
10
0.0452
20
146.3188
0
VERTEX
8
CUT
10
0.0706
20
145.3988
0
VERTEX
8
CUT
10
0.1016
20
144.4789
0
VERTEX
8
CUT
10
0.1383
20
143.5593
0
VERTEX
8
CUT
10
0.1807
20
142.6398
0
VERTEX
8
CUT
10
0.2287
20
141.7207
0
VERTEX
8
CUT
10
0.2823
20
140.8019
0
VERTEX
8
CUT
10
0.3415
20
139.8834
0
VERTEX
8
CUT
10
0.4064
20
138.9653
0
VERTEX
8
CUT
10
0.4770
20
138.0476
0
VERTEX
8
CUT
10
0.5531
20
137.1304
0
VERTEX
8
CUT
10
0.6349
20
136.2137
0
VERTEX
8
CUT
10
0.7223
20
135.2974
0
VERTEX
8
CUT
10
0.8153
20
134.3818
0
VERTEX
8
CUT
10
0.9140
20
133.4667
0
VERTEX
8
CUT
10
1.0182
20
132.5522
0
VERTEX
8
CUT
10
1.1281
20
131.6384
0
VERTEX
8
CUT
10
1.2435
20
130.7253
0
VERTEX
8
CUT
10
1.3646
20
129.8129
0
VERTEX
8
CUT
10
1.4913
20
128.9013
0
VERTEX
8
CUT
10
1.6235
20
127.9904
0
VERTEX
8
CUT
10
1.7614
20
127.0804
0
VERTEX
8
CUT
10
1.9048
20
126.1713
0
VERTEX
8
CUT
10
2.0538
20
125.2630
0
VERTEX
8
CUT
10
2.2084
20
124.3557
0
VERTEX
8
CUT
10
2.3685
20
123.4494
0
VERTEX
8
CUT
10
2.5342
20
122.5440
0
VERTEX
8
CUT
10
2.7054
20
121.6397
0
VERTEX
8
CUT
10
2.8822
20
120.7365
0
VERTEX
8
CUT
10
3.0645
20
119.8343
0
VERTEX
8
CUT
10
3.2524
20
118.9333
0
VERTEX
8
CUT
10
3.4458
20
118.0335
0
VERTEX
8
CUT
10
3.6447
20
117.1348
0
VERTEX
8
CUT
10
3.8491
20
116.2374
0
VERTEX
8
CUT
10
4.0590
20
115.3413
0
VERTEX
8
CUT
10
4.2744
20
114.4465
0
VERTEX
8
CUT
10
4.4953
20
113.5530
0
VERTEX
8
CUT
10
4.7217
20
112.6609
0
VERTEX
8
CUT
10
4.9535
20
111.7702
0
VERTEX
8
CUT
10
5.1908
20
110.8809
0
VERTEX
8
CUT
10
5.4336
20
109.9931
0
VERTEX
8
CUT
10
5.6818
20
109.1068
0
VERTEX
8
CUT
10
5.9354
20
108.2220
0
VERTEX
8
CUT
10
6.1945
20
107.3389
0
VERTEX
8
CUT
10
6.4589
20
106.4573
0
VERTEX
8
CUT
10
6.7288
20
105.5774
0
VERTEX
8
CUT
10
7.0041
20
104.6991
0
VERTEX
8
CUT
10
7.2847
20
103.8226
0
VERTEX
8
CUT
10
7.5708
20
102.9477
0
VERTEX
8
CUT
10
7.8622
20
102.0747
0
VERTEX
8
CUT
10
8.1589
20
101.2035
0
VERTEX
8
CUT
10
8.4610
20
100.3341
0
VERTEX
8
CUT
10
8.7684
20
99.4665
0
VERTEX
8
CUT
10
9.0811
20
98.6009
0
VERTEX
8
CUT
10
9.3991
20
97.7372
0
VERTEX
8
CUT
10
9.7225
20
96.8755
0
VERTEX
8
CUT
10
10.0511
20
96.0157
0
VERTEX
8
CUT
10
10.3850
20
95.1581
0
VERTEX
8
CUT
10
10.7241
20
94.3024
0
VERTEX
8
CUT
10
11.0685
20
93.4489
0
VERTEX
8
CUT
10
11.4181
20
92.5975
0
VERTEX
8
CUT
10
11.7729
20
91.7482
0
VERTEX
8
CUT
10
12.1329
20
90.9012
0
VERTEX
8
CUT
10
12.4981
20
90.0564
0
VERTEX
8
CUT
10
12.8685
20
89.2138
0
VERTEX
8
CUT
10
13.2441
20
88.3735
0
VERTEX
8
CUT
10
13.6248
20
87.5356
0
VERTEX
8
CUT
10
14.0106
20
86.7000
0
VERTEX
8
CUT
10
14.4016
20
85.8667
0
VERTEX
8
CUT
10
14.7977
20
85.0359
0
VERTEX
8
CUT
10
15.1988
20
84.2076
0
VERTEX
8
CUT
10
15.6051
20
83.3817
0
VERTEX
8
CUT
10
16.0164
20
82.5583
0
VERTEX
8
CUT
10
16.4327
20
81.7375
0
VERTEX
8
CUT
10
16.8541
20
80.9192
0
VERTEX
8
CUT
10
17.2804
20
80.1035
0
VERTEX
8
CUT
10
17.7118
20
79.2905
0
VERTEX
8
CUT
10
18.1482
20
78.4801
0
VERTEX
8
CUT
10
18.5895
20
77.6724
0
VERTEX
8
CUT
10
19.0358
20
76.8675
0
VERTEX
8
CUT
10
19.4870
20
76.0653
0
VERTEX
8
CUT
10
19.9431
20
75.2658
0
VERTEX
8
CUT
10
20.4041
20
74.4692
0
VERTEX
8
CUT
10
20.8700
20
73.6755
0
VERTEX
8
CUT
10
21.3407
20
72.8846
0
VERTEX
8
CUT
10
21.8163
20
72.0966
0
VERTEX
8
CUT
10
22.2967
20
71.3115
0
VERTEX
8
CUT
10
22.7819
20
70.5295
0
VERTEX
8
CUT
10
23.2720
20
69.7504
0
VERTEX
8
CUT
10
23.7668
20
68.9743
0
VERTEX
8
CUT
10
24.2663
20
68.2013
0
VERTEX
8
CUT
10
24.7706
20
67.4313
0
VERTEX
8
CUT
10
25.2796
20
66.6645
0
VERTEX
8
CUT
10
25.7932
20
65.9008
0
VERTEX
8
CUT
10
26.3116
20
65.1402
0
VERTEX
8
CUT
10
26.8346
20
64.3829
0
VERTEX
8
CUT
10
27.3623
20
63.6288
0
VERTEX
8
CUT
10
27.8946
20
62.8779
0
VERTEX
8
CUT
10
28.4314
20
62.1303
0
VERTEX
8
CUT
10
28.9729
20
61.3860
0
VERTEX
8
CUT
10
29.5189
20
60.6451
0
VERTEX
8
CUT
10
30.0694
20
59.9075
0
VERTEX
8
CUT
10
30.6245
20
59.1733
0
VERTEX
8
CUT
10
31.1840
20
58.4426
0
VERTEX
8
CUT
10
31.7480
20
57.7153
0
VERTEX
8
CUT
10
32.3165
20
56.9914
0
VERTEX
8
CUT
10
32.8894
20
56.2711
0
VERTEX
8
CUT
10
33.4667
20
55.5543
0
VERTEX
8
CUT
10
34.0484
20
54.8410
0
VERTEX
8
CUT
10
34.6345
20
54.1313
0
VERTEX
8
CUT
10
35.2249
20
53.4253
0
VERTEX
8
CUT
10
35.8196
20
52.7228
0
VERTEX
8
CUT
10
36.4187
20
52.0241
0
VERTEX
8
CUT
10
37.0220
20
51.3290
0
VERTEX
8
CUT
10
37.6295
20
50.6376
0
VERTEX
8
CUT
10
38.2413
20
49.9500
0
VERTEX
8
CUT
10
38.8573
20
49.2662
0
VERTEX
8
CUT
10
39.4775
20
48.5861
0
VERTEX
8
CUT
10
40.1019
20
47.9099
0
VERTEX
8
CUT
10
40.7303
20
47.2374
0
VERTEX
8
CUT
10
41.3629
20
46.5689
0
VERTEX
8
CUT
10
41.9996
20
45.9043
0
VERTEX
8
CUT
10
42.6404
20
45.2436
0
VERTEX
8
CUT
10
43.2852
20
44.5868
0
VERTEX
8
CUT
10
43.9340
20
43.9340
0
VERTEX
8
CUT
10
44.5868
20
43.2852
0
VERTEX
8
CUT
10
45.2436
20
42.6404
0
VERTEX
8
CUT
10
45.9043
20
41.9996
0
VERTEX
8
CUT
10
46.5689
20
41.3629
0
VERTEX
8
CUT
10
47.2374
20
40.7303
0
VERTEX
8
CUT
10
47.9099
20
40.1019
0
VERTEX
8
CUT
10
48.5861
20
39.4775
0
VERTEX
8
CUT
10
49.2662
20
38.8573
0
VERTEX
8
CUT
10
49.9500
20
38.2413
0
VERTEX
8
CUT
10
50.6376
20
37.6295
0
VERTEX
8
CUT
10
51.3290
20
37.0220
0
VERTEX
8
CUT
10
52.0241
20
36.4187
0
VERTEX
8
CUT
10
52.7228
20
35.8196
0
VERTEX
8
CUT
10
53.4253
20
35.2249
0
VERTEX
8
CUT
10
54.1313
20
34.6345
0
VERTEX
8
CUT
10
54.8410
20
34.0484
0
VERTEX
8
CUT
10
55.5543
20
33.4667
0
VERTEX
8
CUT
10
56.2711
20
32.8894
0
VERTEX
8
CUT
10
56.9914
20
32.3165
0
VERTEX
8
CUT
10
57.7153
20
31.7480
0
VERTEX
8
CUT
10
58.4426
20
31.1840
0
VERTEX
8
CUT
10
59.1733
20
30.6245
0
VERTEX
8
CUT
10
59.9075
20
30.0694
0
VERTEX
8
CUT
10
60.6451
20
29.5189
0
VERTEX
8
CUT
10
61.3860
20
28.9729
0
VERTEX
8
CUT
10
62.1303
20
28.4314
0
VERTEX
8
CUT
10
62.8779
20
27.8946
0
VERTEX
8
CUT
10
63.6288
20
27.3623
0
VERTEX
8
CUT
10
64.3829
20
26.8346
0
VERTEX
8
CUT
10
65.1402
20
26.3116
0
VERTEX
8
CUT
10
65.9008
20
25.7932
0
VERTEX
8
CUT
10
66.6645
20
25.2796
0
VERTEX
8
CUT
10
67.4313
20
24.7706
0
VERTEX
8
CUT
10
68.2013
20
24.2663
0
VERTEX
8
CUT
10
68.9743
20
23.7668
0
VERTEX
8
CUT
10
69.7504
20
23.2720
0
VERTEX
8
CUT
10
70.5295
20
22.7819
0
VERTEX
8
CUT
10
71.3115
20
22.2967
0
VERTEX
8
CUT
10
72.0966
20
21.8163
0
VERTEX
8
CUT
10
72.8846
20
21.3407
0
VERTEX
8
CUT
10
73.6755
20
20.8700
0
VERTEX
8
CUT
10
74.4692
20
20.4041
0
VERTEX
8
CUT
10
75.2658
20
19.9431
0
VERTEX
8
CUT
10
76.0653
20
19.4870
0
VERTEX
8
CUT
10
76.8675
20
19.0358
0
VERTEX
8
CUT
10
77.6724
20
18.5895
0
VERTEX
8
CUT
10
78.4801
20
18.1482
0
VERTEX
8
CUT
10
79.2905
20
17.7118
0
VERTEX
8
CUT
10
80.1035
20
17.2804
0
VERTEX
8
CUT
10
80.9192
20
16.8541
0
VERTEX
8
CUT
10
81.7375
20
16.4327
0
VERTEX
8
CUT
10
82.5583
20
16.0164
0
VERTEX
8
CUT
10
83.3817
20
15.6051
0
VERTEX
8
CUT
10
84.2076
20
15.1988
0
VERTEX
8
CUT
10
85.0359
20
14.7977
0
VERTEX
8
CUT
10
85.8667
20
14.4016
0
VERTEX
8
CUT
10
86.7000
20
14.0106
0
VERTEX
8
CUT
10
87.5356
20
13.6248
0
VERTEX
8
CUT
10
88.3735
20
13.2441
0
VERTEX
8
CUT
10
89.2138
20
12.8685
0
VERTEX
8
CUT
10
90.0564
20
12.4981
0
VERTEX
8
CUT
10
90.9012
20
12.1329
0
VERTEX
8
CUT
10
91.7482
20
11.7729
0
VERTEX
8
CUT
10
92.5975
20
11.4181
0
VERTEX
8
CUT
10
93.4489
20
11.0685
0
VERTEX
8
CUT
10
94.3024
20
10.7241
0
VERTEX
8
CUT
10
95.1581
20
10.3850
0
VERTEX
8
CUT
10
96.0157
20
10.0511
0
VERTEX
8
CUT
10
96.8755
20
9.7225
0
VERTEX
8
CUT
10
97.7372
20
9.3991
0
VERTEX
8
CUT
10
98.6009
20
9.0811
0
VERTEX
8
CUT
10
99.4665
20
8.7684
0
VERTEX
8
CUT
10
100.3341
20
8.4610
0
VERTEX
8
CUT
10
101.2035
20
8.1589
0
VERTEX
8
CUT
10
102.0747
20
7.8622
0
VERTEX
8
CUT
10
102.9477
20
7.5708
0
VERTEX
8
CUT
10
103.8226
20
7.2847
0
VERTEX
8
CUT
10
104.6991
20
7.0041
0
VERTEX
8
CUT
10
105.5774
20
6.7288
0
VERTEX
8
CUT
10
106.4573
20
6.4589
0
VERTEX
8
CUT
10
107.3389
20
6.1945
0
VERTEX
8
CUT
10
108.2220
20
5.9354
0
VERTEX
8
CUT
10
109.1068
20
5.6818
0
VERTEX
8
CUT
10
109.9931
20
5.4336
0
VERTEX
8
CUT
10
110.8809
20
5.1908
0
VERTEX
8
CUT
10
111.7702
20
4.9535
0
VERTEX
8
CUT
10
112.6609
20
4.7217
0
VERTEX
8
CUT
10
113.5530
20
4.4953
0
VERTEX
8
CUT
10
114.4465
20
4.2744
0
VERTEX
8
CUT
10
115.3413
20
4.0590
0
VERTEX
8
CUT
10
116.2374
20
3.8491
0
VERTEX
8
CUT
10
117.1348
20
3.6447
0
VERTEX
8
CUT
10
118.0335
20
3.4458
0
VERTEX
8
CUT
10
118.9333
20
3.2524
0
VERTEX
8
CUT
10
119.8343
20
3.0645
0
VERTEX
8
CUT
10
120.7365
20
2.8822
0
VERTEX
8
CUT
10
121.6397
20
2.7054
0
VERTEX
8
CUT
10
122.5440
20
2.5342
0
VERTEX
8
CUT
10
123.4494
20
2.3685
0
VERTEX
8
CUT
10
124.3557
20
2.2084
0
VERTEX
8
CUT
10
125.2630
20
2.0538
0
VERTEX
8
CUT
10
126.1713
20
1.9048
0
VERTEX
8
CUT
10
127.0804
20
1.7614
0
VERTEX
8
CUT
10
127.9904
20
1.6235
0
VERTEX
8
CUT
10
128.9013
20
1.4913
0
VERTEX
8
CUT
10
129.8129
20
1.3646
0
VERTEX
8
CUT
10
130.7253
20
1.2435
0
VERTEX
8
CUT
10
131.6384
20
1.1281
0
VERTEX
8
CUT
10
132.5522
20
1.0182
0
VERTEX
8
CUT
10
133.4667
20
0.9140
0
VERTEX
8
CUT
10
134.3818
20
0.8153
0
VERTEX
8
CUT
10
135.2974
20
0.7223
0
VERTEX
8
CUT
10
136.2137
20
0.6349
0
VERTEX
8
CUT
10
137.1304
20
0.5531
0
VERTEX
8
CUT
10
138.0476
20
0.4770
0
VERTEX
8
CUT
10
138.9653
20
0.4064
0
VERTEX
8
CUT
10
139.8834
20
0.3415
0
VERTEX
8
CUT
10
140.8019
20
0.2823
0
VERTEX
8
CUT
10
141.7207
20
0.2287
0
VERTEX
8
CUT
10
142.6398
20
0.1807
0
VERTEX
8
CUT
10
143.5593
20
0.1383
0
VERTEX
8
CUT
10
144.4789
20
0.1016
0
VERTEX
8
CUT
10
145.3988
20
0.0706
0
VERTEX
8
CUT
10
146.3188
20
0.0452
0
VERTEX
8
CUT
10
147.2390
20
0.0254
0
VERTEX
8
CUT
10
148.1593
20
0.0113
0
VERTEX
8
CUT
10
149.0796
20
0.0028
0
VERTEX
8
CUT
10
150.0000
20
0.0000
0
VERTEX
8
CUT
10
150.9204
20
0.0028
0
VERTEX
8
CUT
10
151.8407
20
0.0113
0
VERTEX
8
CUT
10
152.7610
20
0.0254
0
VERTEX
8
CUT
10
153.6812
20
0.0452
0
VERTEX
8
CUT
10
154.6012
20
0.0706
0
VERTEX
8
CUT
10
155.5211
20
0.1016
0
VERTEX
8
CUT
10
156.4407
20
0.1383
0
VERTEX
8
CUT
10
157.3602
20
0.1807
0
VERTEX
8
CUT
10
158.2793
20
0.2287
0
VERTEX
8
CUT
10
159.1981
20
0.2823
0
VERTEX
8
CUT
10
160.1166
20
0.3415
0
VERTEX
8
CUT
10
161.0347
20
0.4064
0
VERTEX
8
CUT
10
161.9524
20
0.4770
0
VERTEX
8
CUT
10
162.8696
20
0.5531
0
VERTEX
8
CUT
10
163.7863
20
0.6349
0
VERTEX
8
CUT
10
164.7026
20
0.7223
0
VERTEX
8
CUT
10
165.6182
20
0.8153
0
VERTEX
8
CUT
10
166.5333
20
0.9140
0
VERTEX
8
CUT
10
167.4478
20
1.0182
0
VERTEX
8
CUT
10
168.3616
20
1.1281
0
VERTEX
8
CUT
10
169.2747
20
1.2435
0
VERTEX
8
CUT
10
170.1871
20
1.3646
0
VERTEX
8
CUT
10
171.0987
20
1.4913
0
VERTEX
8
CUT
10
172.0096
20
1.6235
0
VERTEX
8
CUT
10
172.9196
20
1.7614
0
VERTEX
8
CUT
10
173.8287
20
1.9048
0
VERTEX
8
CUT
10
174.7370
20
2.0538
0
VERTEX
8
CUT
10
175.6443
20
2.2084
0
VERTEX
8
CUT
10
176.5506
20
2.3685
0
VERTEX
8
CUT
10
177.4560
20
2.5342
0
VERTEX
8
CUT
10
178.3603
20
2.7054
0
VERTEX
8
CUT
10
179.2635
20
2.8822
0
VERTEX
8
CUT
10
180.1657
20
3.0645
0
VERTEX
8
CUT
10
181.0667
20
3.2524
0
VERTEX
8
CUT
10
181.9665
20
3.4458
0
VERTEX
8
CUT
10
182.8652
20
3.6447
0
VERTEX
8
CUT
10
183.7626
20
3.8491
0
VERTEX
8
CUT
10
184.6587
20
4.0590
0
VERTEX
8
CUT
10
185.5535
20
4.2744
0
VERTEX
8
CUT
10
186.4470
20
4.4953
0
VERTEX
8
CUT
10
187.3391
20
4.7217
0
VERTEX
8
CUT
10
188.2298
20
4.9535
0
VERTEX
8
CUT
10
189.1191
20
5.1908
0
VERTEX
8
CUT
10
190.0069
20
5.4336
0
VERTEX
8
CUT
10
190.8932
20
5.6818
0
VERTEX
8
CUT
10
191.7780
20
5.9354
0
VERTEX
8
CUT
10
192.6611
20
6.1945
0
VERTEX
8
CUT
10
193.5427
20
6.4589
0
VERTEX
8
CUT
10
194.4226
20
6.7288
0
VERTEX
8
CUT
10
195.3009
20
7.0041
0
VERTEX
8
CUT
10
196.1774
20
7.2847
0
VERTEX
8
CUT
10
197.0523
20
7.5708
0
VERTEX
8
CUT
10
197.9253
20
7.8622
0
VERTEX
8
CUT
10
198.7965
20
8.1589
0
VERTEX
8
CUT
10
199.6659
20
8.4610
0
VERTEX
8
CUT
10
200.5335
20
8.7684
0
VERTEX
8
CUT
10
201.3991
20
9.0811
0
VERTEX
8
CUT
10
202.2628
20
9.3991
0
VERTEX
8
CUT
10
203.1245
20
9.7225
0
VERTEX
8
CUT
10
203.9843
20
10.0511
0
VERTEX
8
CUT
10
204.8419
20
10.3850
0
VERTEX
8
CUT
10
205.6976
20
10.7241
0
VERTEX
8
CUT
10
206.5511
20
11.0685
0
VERTEX
8
CUT
10
207.4025
20
11.4181
0
VERTEX
8
CUT
10
208.2518
20
11.7729
0
VERTEX
8
CUT
10
209.0988
20
12.1329
0
VERTEX
8
CUT
10
209.9436
20
12.4981
0
VERTEX
8
CUT
10
210.7862
20
12.8685
0
VERTEX
8
CUT
10
211.6265
20
13.2441
0
VERTEX
8
CUT
10
212.4644
20
13.6248
0
VERTEX
8
CUT
10
213.3000
20
14.0106
0
VERTEX
8
CUT
10
214.1333
20
14.4016
0
VERTEX
8
CUT
10
214.9641
20
14.7977
0
VERTEX
8
CUT
10
215.7924
20
15.1988
0
VERTEX
8
CUT
10
216.6183
20
15.6051
0
VERTEX
8
CUT
10
217.4417
20
16.0164
0
VERTEX
8
CUT
10
218.2625
20
16.4327
0
VERTEX
8
CUT
10
219.0808
20
16.8541
0
VERTEX
8
CUT
10
219.8965
20
17.2804
0
VERTEX
8
CUT
10
220.7095
20
17.7118
0
VERTEX
8
CUT
10
221.5199
20
18.1482
0
VERTEX
8
CUT
10
222.3276
20
18.5895
0
VERTEX
8
CUT
10
223.1325
20
19.0358
0
VERTEX
8
CUT
10
223.9347
20
19.4870
0
VERTEX
8
CUT
10
224.7342
20
19.9431
0
VERTEX
8
CUT
10
225.5308
20
20.4041
0
VERTEX
8
CUT
10
226.3245
20
20.8700
0
VERTEX
8
CUT
10
227.1154
20
21.3407
0
VERTEX
8
CUT
10
227.9034
20
21.8163
0
VERTEX
8
CUT
10
228.6885
20
22.2967
0
VERTEX
8
CUT
10
229.4705
20
22.7819
0
VERTEX
8
CUT
10
230.2496
20
23.2720
0
VERTEX
8
CUT
10
231.0257
20
23.7668
0
VERTEX
8
CUT
10
231.7987
20
24.2663
0
VERTEX
8
CUT
10
232.5687
20
24.7706
0
VERTEX
8
CUT
10
233.3355
20
25.2796
0
VERTEX
8
CUT
10
234.0992
20
25.7932
0
VERTEX
8
CUT
10
234.8598
20
26.3116
0
VERTEX
8
CUT
10
235.6171
20
26.8346
0
VERTEX
8
CUT
10
236.3712
20
27.3623
0
VERTEX
8
CUT
10
237.1221
20
27.8946
0
VERTEX
8
CUT
10
237.8697
20
28.4314
0
VERTEX
8
CUT
10
238.6140
20
28.9729
0
VERTEX
8
CUT
10
239.3549
20
29.5189
0
VERTEX
8
CUT
10
240.0925
20
30.0694
0
VERTEX
8
CUT
10
240.8267
20
30.6245
0
VERTEX
8
CUT
10
241.5574
20
31.1840
0
VERTEX
8
CUT
10
242.2847
20
31.7480
0
VERTEX
8
CUT
10
243.0086
20
32.3165
0
VERTEX
8
CUT
10
243.7289
20
32.8894
0
VERTEX
8
CUT
10
244.4457
20
33.4667
0
VERTEX
8
CUT
10
245.1590
20
34.0484
0
VERTEX
8
CUT
10
245.8687
20
34.6345
0
VERTEX
8
CUT
10
246.5747
20
35.2249
0
VERTEX
8
CUT
10
247.2772
20
35.8196
0
VERTEX
8
CUT
10
247.9759
20
36.4187
0
VERTEX
8
CUT
10
248.6710
20
37.0220
0
VERTEX
8
CUT
10
249.3624
20
37.6295
0
VERTEX
8
CUT
10
250.0500
20
38.2413
0
VERTEX
8
CUT
10
250.7338
20
38.8573
0
VERTEX
8
CUT
10
251.4139
20
39.4775
0
VERTEX
8
CUT
10
252.0901
20
40.1019
0
VERTEX
8
CUT
10
252.7626
20
40.7303
0
VERTEX
8
CUT
10
253.4311
20
41.3629
0
VERTEX
8
CUT
10
254.0957
20
41.9996
0
VERTEX
8
CUT
10
254.7564
20
42.6404
0
VERTEX
8
CUT
10
255.4132
20
43.2852
0
VERTEX
8
CUT
10
256.0660
20
43.9340
0
VERTEX
8
CUT
10
256.7148
20
44.5868
0
VERTEX
8
CUT
10
257.3596
20
45.2436
0
VERTEX
8
CUT
10
258.0004
20
45.9043
0
VERTEX
8
CUT
10
258.6371
20
46.5689
0
VERTEX
8
CUT
10
259.2697
20
47.2374
0
VERTEX
8
CUT
10
259.8981
20
47.9099
0
VERTEX
8
CUT
10
260.5225
20
48.5861
0
VERTEX
8
CUT
10
261.1427
20
49.2662
0
VERTEX
8
CUT
10
261.7587
20
49.9500
0
VERTEX
8
CUT
10
262.3705
20
50.6376
0
VERTEX
8
CUT
10
262.9780
20
51.3290
0
VERTEX
8
CUT
10
263.5813
20
52.0241
0
VERTEX
8
CUT
10
264.1804
20
52.7228
0
VERTEX
8
CUT
10
264.7751
20
53.4253
0
VERTEX
8
CUT
10
265.3655
20
54.1313
0
VERTEX
8
CUT
10
265.9516
20
54.8410
0
VERTEX
8
CUT
10
266.5333
20
55.5543
0
VERTEX
8
CUT
10
267.1106
20
56.2711
0
VERTEX
8
CUT
10
267.6835
20
56.9914
0
VERTEX
8
CUT
10
268.2520
20
57.7153
0
VERTEX
8
CUT
10
268.8160
20
58.4426
0
VERTEX
8
CUT
10
269.3755
20
59.1733
0
VERTEX
8
CUT
10
269.9306
20
59.9075
0
VERTEX
8
CUT
10
270.4811
20
60.6451
0
VERTEX
8
CUT
10
271.0271
20
61.3860
0
VERTEX
8
CUT
10
271.5686
20
62.1303
0
VERTEX
8
CUT
10
272.1054
20
62.8779
0
VERTEX
8
CUT
10
272.6377
20
63.6288
0
VERTEX
8
CUT
10
273.1654
20
64.3829
0
VERTEX
8
CUT
10
273.6884
20
65.1402
0
VERTEX
8
CUT
10
274.2068
20
65.9008
0
VERTEX
8
CUT
10
274.7204
20
66.6645
0
VERTEX
8
CUT
10
275.2294
20
67.4313
0
VERTEX
8
CUT
10
275.7337
20
68.2013
0
VERTEX
8
CUT
10
276.2332
20
68.9743
0
VERTEX
8
CUT
10
276.7280
20
69.7504
0
VERTEX
8
CUT
10
277.2181
20
70.5295
0
VERTEX
8
CUT
10
277.7033
20
71.3115
0
VERTEX
8
CUT
10
278.1837
20
72.0966
0
VERTEX
8
CUT
10
278.6593
20
72.8846
0
VERTEX
8
CUT
10
279.1300
20
73.6755
0
VERTEX
8
CUT
10
279.5959
20
74.4692
0
VERTEX
8
CUT
10
280.0569
20
75.2658
0
VERTEX
8
CUT
10
280.5130
20
76.0653
0
VERTEX
8
CUT
10
280.9642
20
76.8675
0
VERTEX
8
CUT
10
281.4105
20
77.6724
0
VERTEX
8
CUT
10
281.8518
20
78.4801
0
VERTEX
8
CUT
10
282.2882
20
79.2905
0
VERTEX
8
CUT
10
282.7196
20
80.1035
0
VERTEX
8
CUT
10
283.1459
20
80.9192
0
VERTEX
8
CUT
10
283.5673
20
81.7375
0
VERTEX
8
CUT
10
283.9836
20
82.5583
0
VERTEX
8
CUT
10
284.3949
20
83.3817
0
VERTEX
8
CUT
10
284.8012
20
84.2076
0
VERTEX
8
CUT
10
285.2023
20
85.0359
0
VERTEX
8
CUT
10
285.5984
20
85.8667
0
VERTEX
8
CUT
10
285.9894
20
86.7000
0
VERTEX
8
CUT
10
286.3752
20
87.5356
0
VERTEX
8
CUT
10
286.7559
20
88.3735
0
VERTEX
8
CUT
10
287.1315
20
89.2138
0
VERTEX
8
CUT
10
287.5019
20
90.0564
0
VERTEX
8
CUT
10
287.8671
20
90.9012
0
VERTEX
8
CUT
10
288.2271
20
91.7482
0
VERTEX
8
CUT
10
288.5819
20
92.5975
0
VERTEX
8
CUT
10
288.9315
20
93.4489
0
VERTEX
8
CUT
10
289.2759
20
94.3024
0
VERTEX
8
CUT
10
289.6150
20
95.1581
0
VERTEX
8
CUT
10
289.9489
20
96.0157
0
VERTEX
8
CUT
10
290.2775
20
96.8755
0
VERTEX
8
CUT
10
290.6009
20
97.7372
0
VERTEX
8
CUT
10
290.9189
20
98.6009
0
VERTEX
8
CUT
10
291.2316
20
99.4665
0
VERTEX
8
CUT
10
291.5390
20
100.3341
0
VERTEX
8
CUT
10
291.8411
20
101.2035
0
VERTEX
8
CUT
10
292.1378
20
102.0747
0
VERTEX
8
CUT
10
292.4292
20
102.9477
0
VERTEX
8
CUT
10
292.7153
20
103.8226
0
VERTEX
8
CUT
10
292.9959
20
104.6991
0
VERTEX
8
CUT
10
293.2712
20
105.5774
0
VERTEX
8
CUT
10
293.5411
20
106.4573
0
VERTEX
8
CUT
10
293.8055
20
107.3389
0
VERTEX
8
CUT
10
294.0646
20
108.2220
0
VERTEX
8
CUT
10
294.3182
20
109.1068
0
VERTEX
8
CUT
10
294.5664
20
109.9931
0
VERTEX
8
CUT
10
294.8092
20
110.8809
0
VERTEX
8
CUT
10
295.0465
20
111.7702
0
VERTEX
8
CUT
10
295.2783
20
112.6609
0
VERTEX
8
CUT
10
295.5047
20
113.5530
0
VERTEX
8
CUT
10
295.7256
20
114.4465
0
VERTEX
8
CUT
10
295.9410
20
115.3413
0
VERTEX
8
CUT
10
296.1509
20
116.2374
0
VERTEX
8
CUT
10
296.3553
20
117.1348
0
VERTEX
8
CUT
10
296.5542
20
118.0335
0
VERTEX
8
CUT
10
296.7476
20
118.9333
0
VERTEX
8
CUT
10
296.9355
20
119.8343
0
VERTEX
8
CUT
10
297.1178
20
120.7365
0
VERTEX
8
CUT
10
297.2946
20
121.6397
0
VERTEX
8
CUT
10
297.4658
20
122.5440
0
VERTEX
8
CUT
10
297.6315
20
123.4494
0
VERTEX
8
CUT
10
297.7916
20
124.3557
0
VERTEX
8
CUT
10
297.9462
20
125.2630
0
VERTEX
8
CUT
10
298.0952
20
126.1713
0
VERTEX
8
CUT
10
298.2386
20
127.0804
0
VERTEX
8
CUT
10
298.3765
20
127.9904
0
VERTEX
8
CUT
10
298.5087
20
128.9013
0
VERTEX
8
CUT
10
298.6354
20
129.8129
0
VERTEX
8
CUT
10
298.7565
20
130.7253
0
VERTEX
8
CUT
10
298.8719
20
131.6384
0
VERTEX
8
CUT
10
298.9818
20
132.5522
0
VERTEX
8
CUT
10
299.0860
20
133.4667
0
VERTEX
8
CUT
10
299.1847
20
134.3818
0
VERTEX
8
CUT
10
299.2777
20
135.2974
0
VERTEX
8
CUT
10
299.3651
20
136.2137
0
VERTEX
8
CUT
10
299.4469
20
137.1304
0
VERTEX
8
CUT
10
299.5230
20
138.0476
0
VERTEX
8
CUT
10
299.5936
20
138.9653
0
VERTEX
8
CUT
10
299.6585
20
139.8834
0
VERTEX
8
CUT
10
299.7177
20
140.8019
0
VERTEX
8
CUT
10
299.7713
20
141.7207
0
VERTEX
8
CUT
10
299.8193
20
142.6398
0
VERTEX
8
CUT
10
299.8617
20
143.5593
0
VERTEX
8
CUT
10
299.8984
20
144.4789
0
VERTEX
8
CUT
10
299.9294
20
145.3988
0
VERTEX
8
CUT
10
299.9548
20
146.3188
0
VERTEX
8
CUT
10
299.9746
20
147.2390
0
VERTEX
8
CUT
10
299.9887
20
148.1593
0
VERTEX
8
CUT
10
299.9972
20
149.0796
0
VERTEX
8
CUT
10
300.0000
20
150.0000
0
VERTEX
8
CUT
10
299.9972
20
150.9204
0
VERTEX
8
CUT
10
299.9887
20
151.8407
0
SEQEND
0
POLYLINE
8
CUT
66
1
70
1
0
VERTEX
8
CUT
10
213.9807
20
148.4294
0
VERTEX
8
CUT
10
213.9566
20
147.6443
0
VERTEX
8
CUT
10
213.9229
20
146.8597
0
VERTEX
8
CUT
10
213.8796
20
146.0755
0
VERTEX
8
CUT
10
213.8266
20
145.2919
0
VERTEX
8
CUT
10
213.7640
20
144.5090
0
VERTEX
8
CUT
10
213.6918
20
143.7269
0
VERTEX
8
CUT
10
213.6100
20
142.9458
0
VERTEX
8
CUT
10
213.5187
20
142.1657
0
VERTEX
8
CUT
10
213.4178
20
141.3868
0
VERTEX
8
CUT
10
213.3073
20
140.6092
0
VERTEX
8
CUT
10
213.1873
20
139.8331
0
VERTEX
8
CUT
10
213.0578
20
139.0584
0
VERTEX
8
CUT
10
212.9188
20
138.2854
0
VERTEX
8
CUT
10
212.7703
20
137.5142
0
VERTEX
8
CUT
10
212.6123
20
136.7449
0
VERTEX
8
CUT
10
212.4449
20
135.9775
0
VERTEX
8
CUT
10
212.2682
20
135.2123
0
VERTEX
8
CUT
10
212.0820
20
134.4493
0
VERTEX
8
CUT
10
211.8865
20
133.6886
0
VERTEX
8
CUT
10
211.6817
20
132.9304
0
VERTEX
8
CUT
10
211.4676
20
132.1747
0
VERTEX
8
CUT
10
211.2442
20
131.4218
0
VERTEX
8
CUT
10
211.0116
20
130.6716
0
VERTEX
8
CUT
10
210.7698
20
129.9244
0
VERTEX
8
CUT
10
210.5189
20
129.1801
0
VERTEX
8
CUT
10
210.2588
20
128.4390
0
VERTEX
8
CUT
10
209.9897
20
127.7012
0
VERTEX
8
CUT
10
209.7115
20
126.9667
0
VERTEX
8
CUT
10
209.4244
20
126.2357
0
VERTEX
8
CUT
10
209.1283
20
125.5083
0
VERTEX
8
CUT
10
208.8233
20
124.7845
0
VERTEX
8
CUT
10
208.5094
20
124.0646
0
VERTEX
8
CUT
10
208.1868
20
123.3485
0
VERTEX
8
CUT
10
207.8553
20
122.6365
0
VERTEX
8
CUT
10
207.5152
20
121.9286
0
VERTEX
8
CUT
10
207.1664
20
121.2249
0
VERTEX
8
CUT
10
206.8089
20
120.5255
0
VERTEX
8
CUT
10
206.4430
20
119.8306
0
VERTEX
8
CUT
10
206.0685
20
119.1402
0
VERTEX
8
CUT
10
205.6856
20
118.4545
0
VERTEX
8
CUT
10
205.2943
20
117.7735
0
VERTEX
8
CUT
10
204.8946
20
117.0974
0
VERTEX
8
CUT
10
204.4867
20
116.4263
0
VERTEX
8
CUT
10
204.0706
20
115.7602
0
VERTEX
8
CUT
10
203.6464
20
115.0992
0
VERTEX
8
CUT
10
203.2141
20
114.4435
0
VERTEX
8
CUT
10
202.7737
20
113.7932
0
VERTEX
8
CUT
10
202.3254
20
113.1483
0
VERTEX
8
CUT
10
201.8693
20
112.5089
0
VERTEX
8
CUT
10
201.4053
20
111.8752
0
VERTEX
8
CUT
10
200.9336
20
111.2473
0
VERTEX
8
CUT
10
200.4542
20
110.6252
0
VERTEX
8
CUT
10
199.9672
20
110.0090
0
VERTEX
8
CUT
10
199.4727
20
109.3988
0
VERTEX
8
CUT
10
198.9707
20
108.7948
0
VERTEX
8
CUT
10
198.4614
20
108.1969
0
VERTEX
8
CUT
10
197.9447
20
107.6054
0
VERTEX
8
CUT
10
197.4209
20
107.0202
0
VERTEX
8
CUT
10
196.8899
20
106.4415
0
VERTEX
8
CUT
10
196.3518
20
105.8694
0
VERTEX
8
CUT
10
195.8068
20
105.3039
0
VERTEX
8
CUT
10
195.2548
20
104.7452
0
VERTEX
8
CUT
10
194.6961
20
104.1932
0
VERTEX
8
CUT
10
194.1306
20
103.6482
0
VERTEX
8
CUT
10
193.5585
20
103.1101
0
VERTEX
8
CUT
10
192.9798
20
102.5791
0
VERTEX
8
CUT
10
192.3946
20
102.0553
0
VERTEX
8
CUT
10
191.8031
20
101.5386
0
VERTEX
8
CUT
10
191.2052
20
101.0293
0
VERTEX
8
CUT
10
190.6012
20
100.5273
0
VERTEX
8
CUT
10
189.9910
20
100.0328
0
VERTEX
8
CUT
10
189.3748
20
99.5458
0
VERTEX
8
CUT
10
188.7527
20
99.0664
0
VERTEX
8
CUT
10
188.1248
20
98.5947
0
VERTEX
8
CUT
10
187.4911
20
98.1307
0
VERTEX
8
CUT
10
186.8517
20
97.6746
0
VERTEX
8
CUT
10
186.2068
20
97.2263
0
VERTEX
8
CUT
10
185.5565
20
96.7859
0
VERTEX
8
CUT
10
184.9008
20
96.3536
0
VERTEX
8
CUT
10
184.2398
20
95.9294
0
VERTEX
8
CUT
10
183.5737
20
95.5133
0
VERTEX
8
CUT
10
182.9026
20
95.1054
0
VERTEX
8
CUT
10
182.2265
20
94.7057
0
VERTEX
8
CUT
10
181.5455
20
94.3144
0
VERTEX
8
CUT
10
180.8598
20
93.9315
0
VERTEX
8
CUT
10
180.1694
20
93.5570
0
VERTEX
8
CUT
10
179.4745
20
93.1911
0
VERTEX
8
CUT
10
178.7751
20
92.8336
0
VERTEX
8
CUT
10
178.0714
20
92.4848
0
VERTEX
8
CUT
10
177.3635
20
92.1447
0
VERTEX
8
CUT
10
176.6515
20
91.8132
0
VERTEX
8
CUT
10
175.9354
20
91.4906
0
VERTEX
8
CUT
10
175.2155
20
91.1767
0
VERTEX
8
CUT
10
174.4917
20
90.8717
0
VERTEX
8
CUT
10
173.7643
20
90.5756
0
VERTEX
8
CUT
10
173.0333
20
90.2885
0
VERTEX
8
CUT
10
172.2988
20
90.0103
0
VERTEX
8
CUT
10
171.5610
20
89.7412
0
VERTEX
8
CUT
10
170.8199
20
89.4811
0
VERTEX
8
CUT
10
170.0756
20
89.2302
0
VERTEX
8
CUT
10
169.3284
20
88.9884
0
VERTEX
8
CUT
10
168.5782
20
88.7558
0
VERTEX
8
CUT
10
167.8253
20
88.5324
0
VERTEX
8
CUT
10
167.0696
20
88.3183
0
VERTEX
8
CUT
10
166.3114
20
88.1135
0
VERTEX
8
CUT
10
165.5507
20
87.9180
0
VERTEX
8
CUT
10
164.7877
20
87.7318
0
VERTEX
8
CUT
10
164.0225
20
87.5551
0
VERTEX
8
CUT
10
163.2551
20
87.3877
0
VERTEX
8
CUT
10
162.4858
20
87.2297
0
VERTEX
8
CUT
10
161.7146
20
87.0812
0
VERTEX
8
CUT
10
160.9416
20
86.9422
0
VERTEX
8
CUT
10
160.1669
20
86.8127
0
VERTEX
8
CUT
10
159.3908
20
86.6927
0
VERTEX
8
CUT
10
158.6132
20
86.5822
0
VERTEX
8
CUT
10
157.8343
20
86.4813
0
VERTEX
8
CUT
10
157.0542
20
86.3900
0
VERTEX
8
CUT
10
156.2731
20
86.3082
0
VERTEX
8
CUT
10
155.4910
20
86.2360
0
VERTEX
8
CUT
10
154.7081
20
86.1734
0
VERTEX
8
CUT
10
153.9245
20
86.1204
0
VERTEX
8
CUT
10
153.1403
20
86.0771
0
VERTEX
8
CUT
10
152.3557
20
86.0434
0
VERTEX
8
CUT
10
151.5706
20
86.0193
0
VERTEX
8
CUT
10
150.7854
20
86.0048
0
VERTEX
8
CUT
10
150.0000
20
86.0000
0
VERTEX
8
CUT
10
149.2146
20
86.0048
0
VERTEX
8
CUT
10
148.4294
20
86.0193
0
VERTEX
8
CUT
10
147.6443
20
86.0434
0
VERTEX
8
CUT
10
146.8597
20
86.0771
0
VERTEX
8
CUT
10
146.0755
20
86.1204
0
VERTEX
8
CUT
10
145.2919
20
86.1734
0
VERTEX
8
CUT
10
144.5090
20
86.2360
0
VERTEX
8
CUT
10
143.7269
20
86.3082
0
VERTEX
8
CUT
10
142.9458
20
86.3900
0
VERTEX
8
CUT
10
142.1657
20
86.4813
0
VERTEX
8
CUT
10
141.3868
20
86.5822
0
VERTEX
8
CUT
10
140.6092
20
86.6927
0
VERTEX
8
CUT
10
139.8331
20
86.8127
0
VERTEX
8
CUT
10
139.0584
20
86.9422
0
VERTEX
8
CUT
10
138.2854
20
87.0812
0
VERTEX
8
CUT
10
137.5142
20
87.2297
0
VERTEX
8
CUT
10
136.7449
20
87.3877
0
VERTEX
8
CUT
10
135.9775
20
87.5551
0
VERTEX
8
CUT
10
135.2123
20
87.7318
0
VERTEX
8
CUT
10
134.4493
20
87.9180
0
VERTEX
8
CUT
10
133.6886
20
88.1135
0
VERTEX
8
CUT
10
132.9304
20
88.3183
0
VERTEX
8
CUT
10
132.1747
20
88.5324
0
VERTEX
8
CUT
10
131.4218
20
88.7558
0
VERTEX
8
CUT
10
130.6716
20
88.9884
0
VERTEX
8
CUT
10
129.9244
20
89.2302
0
VERTEX
8
CUT
10
129.1801
20
89.4811
0
VERTEX
8
CUT
10
128.4390
20
89.7412
0
VERTEX
8
CUT
10
127.7012
20
90.0103
0
VERTEX
8
CUT
10
126.9667
20
90.2885
0
VERTEX
8
CUT
10
126.2357
20
90.5756
0
VERTEX
8
CUT
10
125.5083
20
90.8717
0
VERTEX
8
CUT
10
124.7845
20
91.1767
0
VERTEX
8
CUT
10
124.0646
20
91.4906
0
VERTEX
8
CUT
10
123.3485
20
91.8132
0
VERTEX
8
CUT
10
122.6365
20
92.1447
0
VERTEX
8
CUT
10
121.9286
20
92.4848
0
VERTEX
8
CUT
10
121.2249
20
92.8336
0
VERTEX
8
CUT
10
120.5255
20
93.1911
0
VERTEX
8
CUT
10
119.8306
20
93.5570
0
VERTEX
8
CUT
10
119.1402
20
93.9315
0
VERTEX
8
CUT
10
118.4545
20
94.3144
0
VERTEX
8
CUT
10
117.7735
20
94.7057
0
VERTEX
8
CUT
10
117.0974
20
95.1054
0
VERTEX
8
CUT
10
116.4263
20
95.5133
0
VERTEX
8
CUT
10
115.7602
20
95.9294
0
VERTEX
8
CUT
10
115.0992
20
96.3536
0
VERTEX
8
CUT
10
114.4435
20
96.7859
0
VERTEX
8
CUT
10
113.7932
20
97.2263
0
VERTEX
8
CUT
10
113.1483
20
97.6746
0
VERTEX
8
CUT
10
112.5089
20
98.1307
0
VERTEX
8
CUT
10
111.8752
20
98.5947
0
VERTEX
8
CUT
10
111.2473
20
99.0664
0
VERTEX
8
CUT
10
110.6252
20
99.5458
0
VERTEX
8
CUT
10
110.0090
20
100.0328
0
VERTEX
8
CUT
10
109.3988
20
100.5273
0
VERTEX
8
CUT
10
108.7948
20
101.0293
0
VERTEX
8
CUT
10
108.1969
20
101.5386
0
VERTEX
8
CUT
10
107.6054
20
102.0553
0
VERTEX
8
CUT
10
107.0202
20
102.5791
0
VERTEX
8
CUT
10
106.4415
20
103.1101
0
VERTEX
8
CUT
10
105.8694
20
103.6482
0
VERTEX
8
CUT
10
105.3039
20
104.1932
0
VERTEX
8
CUT
10
104.7452
20
104.7452
0
VERTEX
8
CUT
10
104.1932
20
105.3039
0
VERTEX
8
CUT
10
103.6482
20
105.8694
0
VERTEX
8
CUT
10
103.1101
20
106.4415
0
VERTEX
8
CUT
10
102.5791
20
107.0202
0
VERTEX
8
CUT
10
102.0553
20
107.6054
0
VERTEX
8
CUT
10
101.5386
20
108.1969
0
VERTEX
8
CUT
10
101.0293
20
108.7948
0
VERTEX
8
CUT
10
100.5273
20
109.3988
0
VERTEX
8
CUT
10
100.0328
20
110.0090
0
VERTEX
8
CUT
10
99.5458
20
110.6252
0
VERTEX
8
CUT
10
99.0664
20
111.2473
0
VERTEX
8
CUT
10
98.5947
20
111.8752
0
VERTEX
8
CUT
10
98.1307
20
112.5089
0
VERTEX
8
CUT
10
97.6746
20
113.1483
0
VERTEX
8
CUT
10
97.2263
20
113.7932
0
VERTEX
8
CUT
10
96.7859
20
114.4435
0
VERTEX
8
CUT
10
96.3536
20
115.0992
0
VERTEX
8
CUT
10
95.9294
20
115.7602
0
VERTEX
8
CUT
10
95.5133
20
116.4263
0
VERTEX
8
CUT
10
95.1054
20
117.0974
0
VERTEX
8
CUT
10
94.7057
20
117.7735
0
VERTEX
8
CUT
10
94.3144
20
118.4545
0
VERTEX
8
CUT
10
93.9315
20
119.1402
0
VERTEX
8
CUT
10
93.5570
20
119.8306
0
VERTEX
8
CUT
10
93.1911
20
120.5255
0
VERTEX
8
CUT
10
92.8336
20
121.2249
0
VERTEX
8
CUT
10
92.4848
20
121.9286
0
VERTEX
8
CUT
10
92.1447
20
122.6365
0
VERTEX
8
CUT
10
91.8132
20
123.3485
0
VERTEX
8
CUT
10
91.4906
20
124.0646
0
VERTEX
8
CUT
10
91.1767
20
124.7845
0
VERTEX
8
CUT
10
90.8717
20
125.5083
0
VERTEX
8
CUT
10
90.5756
20
126.2357
0
VERTEX
8
CUT
10
90.2885
20
126.9667
0
VERTEX
8
CUT
10
90.0103
20
127.7012
0
VERTEX
8
CUT
10
89.7412
20
128.4390
0
VERTEX
8
CUT
10
89.4811
20
129.1801
0
VERTEX
8
CUT
10
89.2302
20
129.9244
0
VERTEX
8
CUT
10
88.9884
20
130.6716
0
VERTEX
8
CUT
10
88.7558
20
131.4218
0
VERTEX
8
CUT
10
88.5324
20
132.1747
0
VERTEX
8
CUT
10
88.3183
20
132.9304
0
VERTEX
8
CUT
10
88.1135
20
133.6886
0
VERTEX
8
CUT
10
87.9180
20
134.4493
0
VERTEX
8
CUT
10
87.7318
20
135.2123
0
VERTEX
8
CUT
10
87.5551
20
135.9775
0
VERTEX
8
CUT
10
87.3877
20
136.7449
0
VERTEX
8
CUT
10
87.2297
20
137.5142
0
VERTEX
8
CUT
10
87.0812
20
138.2854
0
VERTEX
8
CUT
10
86.9422
20
139.0584
0
VERTEX
8
CUT
10
86.8127
20
139.8331
0
VERTEX
8
CUT
10
86.6927
20
140.6092
0
VERTEX
8
CUT
10
86.5822
20
141.3868
0
VERTEX
8
CUT
10
86.4813
20
142.1657
0
VERTEX
8
CUT
10
86.3900
20
142.9458
0
VERTEX
8
CUT
10
86.3082
20
143.7269
0
VERTEX
8
CUT
10
86.2360
20
144.5090
0
VERTEX
8
CUT
10
86.1734
20
145.2919
0
VERTEX
8
CUT
10
86.1204
20
146.0755
0
VERTEX
8
CUT
10
86.0771
20
146.8597
0
VERTEX
8
CUT
10
86.0434
20
147.6443
0
VERTEX
8
CUT
10
86.0193
20
148.4294
0
VERTEX
8
CUT
10
86.0048
20
149.2146
0
VERTEX
8
CUT
10
86.0000
20
150.0000
0
VERTEX
8
CUT
10
86.0048
20
150.7854
0
VERTEX
8
CUT
10
86.0193
20
151.5706
0
VERTEX
8
CUT
10
86.0434
20
152.3557
0
VERTEX
8
CUT
10
86.0771
20
153.1403
0
VERTEX
8
CUT
10
86.1204
20
153.9245
0
VERTEX
8
CUT
10
86.1734
20
154.7081
0
VERTEX
8
CUT
10
86.2360
20
155.4910
0
VERTEX
8
CUT
10
86.3082
20
156.2731
0
VERTEX
8
CUT
10
86.3900
20
157.0542
0
VERTEX
8
CUT
10
86.4813
20
157.8343
0
VERTEX
8
CUT
10
86.5822
20
158.6132
0
VERTEX
8
CUT
10
86.6927
20
159.3908
0
VERTEX
8
CUT
10
86.8127
20
160.1669
0
VERTEX
8
CUT
10
86.9422
20
160.9416
0
VERTEX
8
CUT
10
87.0812
20
161.7146
0
VERTEX
8
CUT
10
87.2297
20
162.4858
0
VERTEX
8
CUT
10
87.3877
20
163.2551
0
VERTEX
8
CUT
10
87.5551
20
164.0225
0
VERTEX
8
CUT
10
87.7318
20
164.7877
0
VERTEX
8
CUT
10
87.9180
20
165.5507
0
VERTEX
8
CUT
10
88.1135
20
166.3114
0
VERTEX
8
CUT
10
88.3183
20
167.0696
0
VERTEX
8
CUT
10
88.5324
20
167.8253
0
VERTEX
8
CUT
10
88.7558
20
168.5782
0
VERTEX
8
CUT
10
88.9884
20
169.3284
0
VERTEX
8
CUT
10
89.2302
20
170.0756
0
VERTEX
8
CUT
10
89.4811
20
170.8199
0
VERTEX
8
CUT
10
89.7412
20
171.5610
0
VERTEX
8
CUT
10
90.0103
20
172.2988
0
VERTEX
8
CUT
10
90.2885
20
173.0333
0
VERTEX
8
CUT
10
90.5756
20
173.7643
0
VERTEX
8
CUT
10
90.8717
20
174.4917
0
VERTEX
8
CUT
10
91.1767
20
175.2155
0
VERTEX
8
CUT
10
91.4906
20
175.9354
0
VERTEX
8
CUT
10
91.8132
20
176.6515
0
VERTEX
8
CUT
10
92.1447
20
177.3635
0
VERTEX
8
CUT
10
92.4848
20
178.0714
0
VERTEX
8
CUT
10
92.8336
20
178.7751
0
VERTEX
8
CUT
10
93.1911
20
179.4745
0
VERTEX
8
CUT
10
93.5570
20
180.1694
0
VERTEX
8
CUT
10
93.9315
20
180.8598
0
VERTEX
8
CUT
10
94.3144
20
181.5455
0
VERTEX
8
CUT
10
94.7057
20
182.2265
0
VERTEX
8
CUT
10
95.1054
20
182.9026
0
VERTEX
8
CUT
10
95.5133
20
183.5737
0
VERTEX
8
CUT
10
95.9294
20
184.2398
0
VERTEX
8
CUT
10
96.3536
20
184.9008
0
VERTEX
8
CUT
10
96.7859
20
185.5565
0
VERTEX
8
CUT
10
97.2263
20
186.2068
0
VERTEX
8
CUT
10
97.6746
20
186.8517
0
VERTEX
8
CUT
10
98.1307
20
187.4911
0
VERTEX
8
CUT
10
98.5947
20
188.1248
0
VERTEX
8
CUT
10
99.0664
20
188.7527
0
VERTEX
8
CUT
10
99.5458
20
189.3748
0
VERTEX
8
CUT
10
100.0328
20
189.9910
0
VERTEX
8
CUT
10
100.5273
20
190.6012
0
VERTEX
8
CUT
10
101.0293
20
191.2052
0
VERTEX
8
CUT
10
101.5386
20
191.8031
0
VERTEX
8
CUT
10
102.0553
20
192.3946
0
VERTEX
8
CUT
10
102.5791
20
192.9798
0
VERTEX
8
CUT
10
103.1101
20
193.5585
0
VERTEX
8
CUT
10
103.6482
20
194.1306
0
VERTEX
8
CUT
10
104.1932
20
194.6961
0
VERTEX
8
CUT
10
104.7452
20
195.2548
0
VERTEX
8
CUT
10
105.3039
20
195.8068
0
VERTEX
8
CUT
10
105.8694
20
196.3518
0
VERTEX
8
CUT
10
106.4415
20
196.8899
0
VERTEX
8
CUT
10
107.0202
20
197.4209
0
VERTEX
8
CUT
10
107.6054
20
197.9447
0
VERTEX
8
CUT
10
108.1969
20
198.4614
0
VERTEX
8
CUT
10
108.7948
20
198.9707
0
VERTEX
8
CUT
10
109.3988
20
199.4727
0
VERTEX
8
CUT
10
110.0090
20
199.9672
0
VERTEX
8
CUT
10
110.6252
20
200.4542
0
VERTEX
8
CUT
10
111.2473
20
200.9336
0
VERTEX
8
CUT
10
111.8752
20
201.4053
0
VERTEX
8
CUT
10
112.5089
20
201.8693
0
VERTEX
8
CUT
10
113.1483
20
202.3254
0
VERTEX
8
CUT
10
113.7932
20
202.7737
0
VERTEX
8
CUT
10
114.4435
20
203.2141
0
VERTEX
8
CUT
10
115.0992
20
203.6464
0
VERTEX
8
CUT
10
115.7602
20
204.0706
0
VERTEX
8
CUT
10
116.4263
20
204.4867
0
VERTEX
8
CUT
10
117.0974
20
204.8946
0
VERTEX
8
CUT
10
117.7735
20
205.2943
0
VERTEX
8
CUT
10
118.4545
20
205.6856
0
VERTEX
8
CUT
10
119.1402
20
206.0685
0
VERTEX
8
CUT
10
119.8306
20
206.4430
0
VERTEX
8
CUT
10
120.5255
20
206.8089
0
VERTEX
8
CUT
10
121.2249
20
207.1664
0
VERTEX
8
CUT
10
121.9286
20
207.5152
0
VERTEX
8
CUT
10
122.6365
20
207.8553
0
VERTEX
8
CUT
10
123.3485
20
208.1868
0
VERTEX
8
CUT
10
124.0646
20
208.5094
0
VERTEX
8
CUT
10
124.7845
20
208.8233
0
VERTEX
8
CUT
10
125.5083
20
209.1283
0
VERTEX
8
CUT
10
126.2357
20
209.4244
0
VERTEX
8
CUT
10
126.9667
20
209.7115
0
VERTEX
8
CUT
10
127.7012
20
209.9897
0
VERTEX
8
CUT
10
128.4390
20
210.2588
0
VERTEX
8
CUT
10
129.1801
20
210.5189
0
VERTEX
8
CUT
10
129.9244
20
210.7698
0
VERTEX
8
CUT
10
130.6716
20
211.0116
0
VERTEX
8
CUT
10
131.4218
20
211.2442
0
VERTEX
8
CUT
10
132.1747
20
211.4676
0
VERTEX
8
CUT
10
132.9304
20
211.6817
0
VERTEX
8
CUT
10
133.6886
20
211.8865
0
VERTEX
8
CUT
10
134.4493
20
212.0820
0
VERTEX
8
CUT
10
135.2123
20
212.2682
0
VERTEX
8
CUT
10
135.9775
20
212.4449
0
VERTEX
8
CUT
10
136.7449
20
212.6123
0
VERTEX
8
CUT
10
137.5142
20
212.7703
0
VERTEX
8
CUT
10
138.2854
20
212.9188
0
VERTEX
8
CUT
10
139.0584
20
213.0578
0
VERTEX
8
CUT
10
139.8331
20
213.1873
0
VERTEX
8
CUT
10
140.6092
20
213.3073
0
VERTEX
8
CUT
10
141.3868
20
213.4178
0
VERTEX
8
CUT
10
142.1657
20
213.5187
0
VERTEX
8
CUT
10
142.9458
20
213.6100
0
VERTEX
8
CUT
10
143.7269
20
213.6918
0
VERTEX
8
CUT
10
144.5090
20
213.7640
0
VERTEX
8
CUT
10
145.2919
20
213.8266
0
VERTEX
8
CUT
10
146.0755
20
213.8796
0
VERTEX
8
CUT
10
146.8597
20
213.9229
0
VERTEX
8
CUT
10
147.6443
20
213.9566
0
VERTEX
8
CUT
10
148.4294
20
213.9807
0
VERTEX
8
CUT
10
149.2146
20
213.9952
0
VERTEX
8
CUT
10
150.0000
20
214.0000
0
VERTEX
8
CUT
10
150.7854
20
213.9952
0
VERTEX
8
CUT
10
151.5706
20
213.9807
0
VERTEX
8
CUT
10
152.3557
20
213.9566
0
VERTEX
8
CUT
10
153.1403
20
213.9229
0
VERTEX
8
CUT
10
153.9245
20
213.8796
0
VERTEX
8
CUT
10
154.7081
20
213.8266
0
VERTEX
8
CUT
10
155.4910
20
213.7640
0
VERTEX
8
CUT
10
156.2731
20
213.6918
0
VERTEX
8
CUT
10
157.0542
20
213.6100
0
VERTEX
8
CUT
10
157.8343
20
213.5187
0
VERTEX
8
CUT
10
158.6132
20
213.4178
0
VERTEX
8
CUT
10
159.3908
20
213.3073
0
VERTEX
8
CUT
10
160.1669
20
213.1873
0
VERTEX
8
CUT
10
160.9416
20
213.0578
0
VERTEX
8
CUT
10
161.7146
20
212.9188
0
VERTEX
8
CUT
10
162.4858
20
212.7703
0
VERTEX
8
CUT
10
163.2551
20
212.6123
0
VERTEX
8
CUT
10
164.0225
20
212.4449
0
VERTEX
8
CUT
10
164.7877
20
212.2682
0
VERTEX
8
CUT
10
165.5507
20
212.0820
0
VERTEX
8
CUT
10
166.3114
20
211.8865
0
VERTEX
8
CUT
10
167.0696
20
211.6817
0
VERTEX
8
CUT
10
167.8253
20
211.4676
0
VERTEX
8
CUT
10
168.5782
20
211.2442
0
VERTEX
8
CUT
10
169.3284
20
211.0116
0
VERTEX
8
CUT
10
170.0756
20
210.7698
0
VERTEX
8
CUT
10
170.8199
20
210.5189
0
VERTEX
8
CUT
10
171.5610
20
210.2588
0
VERTEX
8
CUT
10
172.2988
20
209.9897
0
VERTEX
8
CUT
10
173.0333
20
209.7115
0
VERTEX
8
CUT
10
173.7643
20
209.4244
0
VERTEX
8
CUT
10
174.4917
20
209.1283
0
VERTEX
8
CUT
10
175.2155
20
208.8233
0
VERTEX
8
CUT
10
175.9354
20
208.5094
0
VERTEX
8
CUT
10
176.6515
20
208.1868
0
VERTEX
8
CUT
10
177.3635
20
207.8553
0
VERTEX
8
CUT
10
178.0714
20
207.5152
0
VERTEX
8
CUT
10
178.7751
20
207.1664
0
VERTEX
8
CUT
10
179.4745
20
206.8089
0
VERTEX
8
CUT
10
180.1694
20
206.4430
0
VERTEX
8
CUT
10
180.8598
20
206.0685
0
VERTEX
8
CUT
10
181.5455
20
205.6856
0
VERTEX
8
CUT
10
182.2265
20
205.2943
0
VERTEX
8
CUT
10
182.9026
20
204.8946
0
VERTEX
8
CUT
10
183.5737
20
204.4867
0
VERTEX
8
CUT
10
184.2398
20
204.0706
0
VERTEX
8
CUT
10
184.9008
20
203.6464
0
VERTEX
8
CUT
10
185.5565
20
203.2141
0
VERTEX
8
CUT
10
186.2068
20
202.7737
0
VERTEX
8
CUT
10
186.8517
20
202.3254
0
VERTEX
8
CUT
10
187.4911
20
201.8693
0
VERTEX
8
CUT
10
188.1248
20
201.4053
0
VERTEX
8
CUT
10
188.7527
20
200.9336
0
VERTEX
8
CUT
10
189.3748
20
200.4542
0
VERTEX
8
CUT
10
189.9910
20
199.9672
0
VERTEX
8
CUT
10
190.6012
20
199.4727
0
VERTEX
8
CUT
10
191.2052
20
198.9707
0
VERTEX
8
CUT
10
191.8031
20
198.4614
0
VERTEX
8
CUT
10
192.3946
20
197.9447
0
VERTEX
8
CUT
10
192.9798
20
197.4209
0
VERTEX
8
CUT
10
193.5585
20
196.8899
0
VERTEX
8
CUT
10
194.1306
20
196.3518
0
VERTEX
8
CUT
10
194.6961
20
195.8068
0
VERTEX
8
CUT
10
195.2548
20
195.2548
0
VERTEX
8
CUT
10
195.8068
20
194.6961
0
VERTEX
8
CUT
10
196.3518
20
194.1306
0
VERTEX
8
CUT
10
196.8899
20
193.5585
0
VERTEX
8
CUT
10
197.4209
20
192.9798
0
VERTEX
8
CUT
10
197.9447
20
192.3946
0
VERTEX
8
CUT
10
198.4614
20
191.8031
0
VERTEX
8
CUT
10
198.9707
20
191.2052
0
VERTEX
8
CUT
10
199.4727
20
190.6012
0
VERTEX
8
CUT
10
199.9672
20
189.9910
0
VERTEX
8
CUT
10
200.4542
20
189.3748
0
VERTEX
8
CUT
10
200.9336
20
188.7527
0
VERTEX
8
CUT
10
201.4053
20
188.1248
0
VERTEX
8
CUT
10
201.8693
20
187.4911
0
VERTEX
8
CUT
10
202.3254
20
186.8517
0
VERTEX
8
CUT
10
202.7737
20
186.2068
0
VERTEX
8
CUT
10
203.2141
20
185.5565
0
VERTEX
8
CUT
10
203.6464
20
184.9008
0
VERTEX
8
CUT
10
204.0706
20
184.2398
0
VERTEX
8
CUT
10
204.4867
20
183.5737
0
VERTEX
8
CUT
10
204.8946
20
182.9026
0
VERTEX
8
CUT
10
205.2943
20
182.2265
0
VERTEX
8
CUT
10
205.6856
20
181.5455
0
VERTEX
8
CUT
10
206.0685
20
180.8598
0
VERTEX
8
CUT
10
206.4430
20
180.1694
0
VERTEX
8
CUT
10
206.8089
20
179.4745
0
VERTEX
8
CUT
10
207.1664
20
178.7751
0
VERTEX
8
CUT
10
207.5152
20
178.0714
0
VERTEX
8
CUT
10
207.8553
20
177.3635
0
VERTEX
8
CUT
10
208.1868
20
176.6515
0
VERTEX
8
CUT
10
208.5094
20
175.9354
0
VERTEX
8
CUT
10
208.8233
20
175.2155
0
VERTEX
8
CUT
10
209.1283
20
174.4917
0
VERTEX
8
CUT
10
209.4244
20
173.7643
0
VERTEX
8
CUT
10
209.7115
20
173.0333
0
VERTEX
8
CUT
10
209.9897
20
172.2988
0
VERTEX
8
CUT
10
210.2588
20
171.5610
0
VERTEX
8
CUT
10
210.5189
20
170.8199
0
VERTEX
8
CUT
10
210.7698
20
170.0756
0
VERTEX
8
CUT
10
211.0116
20
169.3284
0
VERTEX
8
CUT
10
211.2442
20
168.5782
0
VERTEX
8
CUT
10
211.4676
20
167.8253
0
VERTEX
8
CUT
10
211.6817
20
167.0696
0
VERTEX
8
CUT
10
211.8865
20
166.3114
0
VERTEX
8
CUT
10
212.0820
20
165.5507
0
VERTEX
8
CUT
10
212.2682
20
164.7877
0
VERTEX
8
CUT
10
212.4449
20
164.0225
0
VERTEX
8
CUT
10
212.6123
20
163.2551
0
VERTEX
8
CUT
10
212.7703
20
162.4858
0
VERTEX
8
CUT
10
212.9188
20
161.7146
0
VERTEX
8
CUT
10
213.0578
20
160.9416
0
VERTEX
8
CUT
10
213.1873
20
160.1669
0
VERTEX
8
CUT
10
213.3073
20
159.3908
0
VERTEX
8
CUT
10
213.4178
20
158.6132
0
VERTEX
8
CUT
10
213.5187
20
157.8343
0
VERTEX
8
CUT
10
213.6100
20
157.0542
0
VERTEX
8
CUT
10
213.6918
20
156.2731
0
VERTEX
8
CUT
10
213.7640
20
155.4910
0
VERTEX
8
CUT
10
213.8266
20
154.7081
0
VERTEX
8
CUT
10
213.8796
20
153.9245
0
VERTEX
8
CUT
10
213.9229
20
153.1403
0
VERTEX
8
CUT
10
213.9566
20
152.3557
0
VERTEX
8
CUT
10
213.9807
20
151.5706
0
VERTEX
8
CUT
10
213.9952
20
150.7854
0
VERTEX
8
CUT
10
214.0000
20
150.0000
0
VERTEX
8
CUT
10
213.9952
20
149.2146
0
VERTEX
8
CUT
10
213.9807
20
148.4294
0
SEQEND
0
POLYLINE
8
CUT
66
1
70
1
0
VERTEX
8
CUT
10
133.8259
20
218.1058
0
VERTEX
8
CUT
10
132.9914
20
217.9022
0
VERTEX
8
CUT
10
132.1594
20
217.6884
0
VERTEX
8
CUT
10
131.3301
20
217.4643
0
VERTEX
8
CUT
10
130.7836
20
217.3095
0
VERTEX
8
CUT
10
126.9403
20
230.7714
0
VERTEX
8
CUT
10
127.5961
20
230.9572
0
VERTEX
8
CUT
10
128.5913
20
231.2260
0
VERTEX
8
CUT
10
129.5897
20
231.4826
0
VERTEX
8
CUT
10
130.5911
20
231.7270
0
VERTEX
8
CUT
10
131.5955
20
231.9590
0
VERTEX
8
CUT
10
132.6026
20
232.1787
0
VERTEX
8
CUT
10
133.6124
20
232.3860
0
VERTEX
8
CUT
10
134.6246
20
232.5809
0
VERTEX
8
CUT
10
135.6392
20
232.7633
0
VERTEX
8
CUT
10
136.6559
20
232.9333
0
VERTEX
8
CUT
10
137.6746
20
233.0908
0
VERTEX
8
CUT
10
138.6952
20
233.2358
0
VERTEX
8
CUT
10
139.7175
20
233.3683
0
VERTEX
8
CUT
10
140.3945
20
233.4476
0
VERTEX
8
CUT
10
141.9955
20
219.5396
0
VERTEX
8
CUT
10
141.4313
20
219.4736
0
VERTEX
8
CUT
10
140.5794
20
219.3632
0
VERTEX
8
CUT
10
139.7289
20
219.2424
0
VERTEX
8
CUT
10
138.8799
20
219.1111
0
VERTEX
8
CUT
10
138.0327
20
218.9694
0
VERTEX
8
CUT
10
137.1872
20
218.8174
0
VERTEX
8
CUT
10
136.3437
20
218.6550
0
VERTEX
8
CUT
10
135.5022
20
218.4822
0
VERTEX
8
CUT
10
134.6629
20
218.2991
0
VERTEX
8
CUT
10
133.8259
20
218.1058
0
SEQEND
0
POLYLINE
8
CUT
66
1
70
1
0
VERTEX
8
CUT
10
120.8499
20
213.6418
0
VERTEX
8
CUT
10
120.0711
20
213.2793
0
VERTEX
8
CUT
10
119.2969
20
212.9072
0
VERTEX
8
CUT
10
118.5272
20
212.5257
0
VERTEX
8
CUT
10
118.0214
20
212.2672
0
VERTEX
8
CUT
10
111.6257
20
224.7206
0
VERTEX
8
CUT
10
112.2326
20
225.0308
0
VERTEX
8
CUT
10
113.1562
20
225.4887
0
VERTEX
8
CUT
10
114.0854
20
225.9351
0
VERTEX
8
CUT
10
115.0199
20
226.3701
0
VERTEX
8
CUT
10
115.9597
20
226.7936
0
VERTEX
8
CUT
10
116.9047
20
227.2056
0
VERTEX
8
CUT
10
117.8546
20
227.6059
0
VERTEX
8
CUT
10
118.8094
20
227.9945
0
VERTEX
8
CUT
10
119.7688
20
228.3714
0
VERTEX
8
CUT
10
120.7328
20
228.7365
0
VERTEX
8
CUT
10
121.7013
20
229.0897
0
VERTEX
8
CUT
10
122.6739
20
229.4310
0
VERTEX
8
CUT
10
123.6507
20
229.7604
0
VERTEX
8
CUT
10
124.2993
20
229.9702
0
VERTEX
8
CUT
10
128.5827
20
216.6418
0
VERTEX
8
CUT
10
128.0423
20
216.4670
0
VERTEX
8
CUT
10
127.2283
20
216.1925
0
VERTEX
8
CUT
10
126.4177
20
215.9081
0
VERTEX
8
CUT
10
125.6107
20
215.6137
0
VERTEX
8
CUT
10
124.8073
20
215.3095
0
VERTEX
8
CUT
10
124.0078
20
214.9954
0
VERTEX
8
CUT
10
123.2122
20
214.6716
0
VERTEX
8
CUT
10
122.4206
20
214.3380
0
VERTEX
8
CUT
10
121.6331
20
213.9947
0
VERTEX
8
CUT
10
120.8499
20
213.6418
0
SEQEND
0
POLYLINE
8
CUT
66
1
70
1
0
VERTEX
8
CUT
10
108.9941
20
206.7320
0
VERTEX
8
CUT
10
108.3010
20
206.2245
0
VERTEX
8
CUT
10
107.6142
20
205.7086
0
VERTEX
8
CUT
10
106.9338
20
205.1842
0
VERTEX
8
CUT
10
106.4881
20
204.8320
0
VERTEX
8
CUT
10
97.7857
20
215.7984
0
VERTEX
8
CUT
10
98.3205
20
216.2211
0
VERTEX
8
CUT
10
99.1371
20
216.8503
0
VERTEX
8
CUT
10
99.9613
20
217.4694
0
VERTEX
8
CUT
10
100.7930
20
218.0784
0
VERTEX
8
CUT
10
101.6321
20
218.6771
0
VERTEX
8
CUT
10
102.4785
20
219.2655
0
VERTEX
8
CUT
10
103.3321
20
219.8434
0
VERTEX
8
CUT
10
104.1927
20
220.4109
0
VERTEX
8
CUT
10
105.0602
20
220.9677
0
VERTEX
8
CUT
10
105.9345
20
221.5138
0
VERTEX
8
CUT
10
106.8154
20
222.0492
0
VERTEX
8
CUT
10
107.7028
20
222.5737
0
VERTEX
8
CUT
10
108.5966
20
223.0873
0
VERTEX
8
CUT
10
109.1917
20
223.4197
0
VERTEX
8
CUT
10
115.9931
20
211.1830
0
VERTEX
8
CUT
10
115.4971
20
210.9061
0
VERTEX
8
CUT
10
114.7523
20
210.4781
0
VERTEX
8
CUT
10
114.0128
20
210.0410
0
VERTEX
8
CUT
10
113.2787
20
209.5949
0
VERTEX
8
CUT
10
112.5502
20
209.1397
0
VERTEX
8
CUT
10
111.8273
20
208.6757
0
VERTEX
8
CUT
10
111.1101
20
208.2029
0
VERTEX
8
CUT
10
110.3988
20
207.7213
0
VERTEX
8
CUT
10
109.6934
20
207.2309
0
VERTEX
8
CUT
10
108.9941
20
206.7320
0
SEQEND
0
POLYLINE
8
CUT
66
1
70
1
0
VERTEX
8
CUT
10
98.7142
20
197.6421
0
VERTEX
8
CUT
10
98.1334
20
197.0091
0
VERTEX
8
CUT
10
97.5605
20
196.3691
0
VERTEX
8
CUT
10
96.9954
20
195.7221
0
VERTEX
8
CUT
10
96.6270
20
195.2897
0
VERTEX
8
CUT
10
85.9524
20
204.3476
0
VERTEX
8
CUT
10
86.3945
20
204.8665
0
VERTEX
8
CUT
10
87.0725
20
205.6429
0
VERTEX
8
CUT
10
87.7601
20
206.4110
0
VERTEX
8
CUT
10
88.4570
20
207.1705
0
VERTEX
8
CUT
10
89.1632
20
207.9214
0
VERTEX
8
CUT
10
89.8786
20
208.6636
0
VERTEX
8
CUT
10
90.6030
20
209.3970
0
VERTEX
8
CUT
10
91.3364
20
210.1214
0
VERTEX
8
CUT
10
92.0786
20
210.8368
0
VERTEX
8
CUT
10
92.8295
20
211.5430
0
VERTEX
8
CUT
10
93.5890
20
212.2399
0
VERTEX
8
CUT
10
94.3571
20
212.9275
0
VERTEX
8
CUT
10
95.1335
20
213.6055
0
VERTEX
8
CUT
10
95.6524
20
214.0476
0
VERTEX
8
CUT
10
104.7103
20
203.3730
0
VERTEX
8
CUT
10
104.2779
20
203.0046
0
VERTEX
8
CUT
10
103.6309
20
202.4395
0
VERTEX
8
CUT
10
102.9909
20
201.8666
0
VERTEX
8
CUT
10
102.3579
20
201.2858
0
VERTEX
8
CUT
10
101.7322
20
200.6973
0
VERTEX
8
CUT
10
101.1137
20
200.1012
0
VERTEX
8
CUT
10
100.5025
20
199.4975
0
VERTEX
8
CUT
10
99.8988
20
198.8863
0
VERTEX
8
CUT
10
99.3027
20
198.2678
0
VERTEX
8
CUT
10
98.7142
20
197.6421
0
SEQEND
0
POLYLINE
8
CUT
66
1
70
1
0
VERTEX
8
CUT
10
90.4051
20
186.7213
0
VERTEX
8
CUT
10
89.9590
20
185.9872
0
VERTEX
8
CUT
10
89.5219
20
185.2477
0
VERTEX
8
CUT
10
89.0939
20
184.5029
0
VERTEX
8
CUT
10
88.8170
20
184.0069
0
VERTEX
8
CUT
10
76.5803
20
190.8083
0
VERTEX
8
CUT
10
76.9127
20
191.4034
0
VERTEX
8
CUT
10
77.4263
20
192.2972
0
VERTEX
8
CUT
10
77.9508
20
193.1846
0
VERTEX
8
CUT
10
78.4862
20
194.0655
0
VERTEX
8
CUT
10
79.0323
20
194.9398
0
VERTEX
8
CUT
10
79.5891
20
195.8073
0
VERTEX
8
CUT
10
80.1566
20
196.6679
0
VERTEX
8
CUT
10
80.7345
20
197.5215
0
VERTEX
8
CUT
10
81.3229
20
198.3679
0
VERTEX
8
CUT
10
81.9216
20
199.2070
0
VERTEX
8
CUT
10
82.5306
20
200.0387
0
VERTEX
8
CUT
10
83.1497
20
200.8629
0
VERTEX
8
CUT
10
83.7789
20
201.6795
0
VERTEX
8
CUT
10
84.2016
20
202.2143
0
VERTEX
8
CUT
10
95.1680
20
193.5119
0
VERTEX
8
CUT
10
94.8158
20
193.0662
0
VERTEX
8
CUT
10
94.2914
20
192.3858
0
VERTEX
8
CUT
10
93.7755
20
191.6990
0
VERTEX
8
CUT
10
93.2680
20
191.0059
0
VERTEX
8
CUT
10
92.7691
20
190.3066
0
VERTEX
8
CUT
10
92.2787
20
189.6012
0
VERTEX
8
CUT
10
91.7971
20
188.8899
0
VERTEX
8
CUT
10
91.3243
20
188.1727
0
VERTEX
8
CUT
10
90.8603
20
187.4498
0
VERTEX
8
CUT
10
90.4051
20
186.7213
0
SEQEND
0
POLYLINE
8
CUT
66
1
70
1
0
VERTEX
8
CUT
10
84.3863
20
174.3893
0
VERTEX
8
CUT
10
84.0919
20
173.5823
0
VERTEX
8
CUT
10
83.8075
20
172.7717
0
VERTEX
8
CUT
10
83.5330
20
171.9577
0
VERTEX
8
CUT
10
83.3582
20
171.4173
0
VERTEX
8
CUT
10
70.0298
20
175.7007
0
VERTEX
8
CUT
10
70.2396
20
176.3493
0
VERTEX
8
CUT
10
70.5690
20
177.3261
0
VERTEX
8
CUT
10
70.9103
20
178.2987
0
VERTEX
8
CUT
10
71.2635
20
179.2672
0
VERTEX
8
CUT
10
71.6286
20
180.2312
0
VERTEX
8
CUT
10
72.0055
20
181.1906
0
VERTEX
8
CUT
10
72.3941
20
182.1454
0
VERTEX
8
CUT
10
72.7944
20
183.0953
0
VERTEX
8
CUT
10
73.2064
20
184.0403
0
VERTEX
8
CUT
10
73.6299
20
184.9801
0
VERTEX
8
CUT
10
74.0649
20
185.9146
0
VERTEX
8
CUT
10
74.5113
20
186.8438
0
VERTEX
8
CUT
10
74.9692
20
187.7674
0
VERTEX
8
CUT
10
75.2794
20
188.3743
0
VERTEX
8
CUT
10
87.7328
20
181.9786
0
VERTEX
8
CUT
10
87.4743
20
181.4728
0
VERTEX
8
CUT
10
87.0928
20
180.7031
0
VERTEX
8
CUT
10
86.7207
20
179.9289
0
VERTEX
8
CUT
10
86.3582
20
179.1501
0
VERTEX
8
CUT
10
86.0053
20
178.3669
0
VERTEX
8
CUT
10
85.6620
20
177.5794
0
VERTEX
8
CUT
10
85.3284
20
176.7878
0
VERTEX
8
CUT
10
85.0046
20
175.9922
0
VERTEX
8
CUT
10
84.6905
20
175.1927
0
VERTEX
8
CUT
10
84.3863
20
174.3893
0
SEQEND
0
POLYLINE
8
CUT
66
1
70
1
0
VERTEX
8
CUT
10
80.8889
20
161.1201
0
VERTEX
8
CUT
10
80.7576
20
160.2711
0
VERTEX
8
CUT
10
80.6368
20
159.4206
0
VERTEX
8
CUT
10
80.5264
20
158.5687
0
VERTEX
8
CUT
10
80.4604
20
158.0045
0
VERTEX
8
CUT
10
66.5524
20
159.6055
0
VERTEX
8
CUT
10
66.6317
20
160.2825
0
VERTEX
8
CUT
10
66.7642
20
161.3048
0
VERTEX
8
CUT
10
66.9092
20
162.3254
0
VERTEX
8
CUT
10
67.0667
20
163.3441
0
VERTEX
8
CUT
10
67.2367
20
164.3608
0
VERTEX
8
CUT
10
67.4191
20
165.3754
0
VERTEX
8
CUT
10
67.6140
20
166.3876
0
VERTEX
8
CUT
10
67.8213
20
167.3974
0
VERTEX
8
CUT
10
68.0410
20
168.4045
0
VERTEX
8
CUT
10
68.2730
20
169.4089
0
VERTEX
8
CUT
10
68.5174
20
170.4103
0
VERTEX
8
CUT
10
68.7740
20
171.4087
0
VERTEX
8
CUT
10
69.0428
20
172.4039
0
VERTEX
8
CUT
10
69.2286
20
173.0597
0
VERTEX
8
CUT
10
82.6905
20
169.2164
0
VERTEX
8
CUT
10
82.5357
20
168.6699
0
VERTEX
8
CUT
10
82.3116
20
167.8406
0
VERTEX
8
CUT
10
82.0978
20
167.0086
0
VERTEX
8
CUT
10
81.8942
20
166.1741
0
VERTEX
8
CUT
10
81.7009
20
165.3371
0
VERTEX
8
CUT
10
81.5178
20
164.4978
0
VERTEX
8
CUT
10
81.3450
20
163.6563
0
VERTEX
8
CUT
10
81.1826
20
162.8128
0
VERTEX
8
CUT
10
81.0306
20
161.9673
0
VERTEX
8
CUT
10
80.8889
20
161.1201
0
SEQEND
0
POLYLINE
8
CUT
66
1
70
1
0
VERTEX
8
CUT
10
80.0474
20
147.4235
0
VERTEX
8
CUT
10
80.0843
20
146.5653
0
VERTEX
8
CUT
10
80.1317
20
145.7075
0
VERTEX
8
CUT
10
80.1897
20
144.8505
0
VERTEX
8
CUT
10
80.2349
20
144.2842
0
VERTEX
8
CUT
10
66.2819
20
143.1411
0
VERTEX
8
CUT
10
66.2276
20
143.8206
0
VERTEX
8
CUT
10
66.1581
20
144.8491
0
VERTEX
8
CUT
10
66.1012
20
145.8783
0
VERTEX
8
CUT
10
66.0569
20
146.9082
0
VERTEX
8
CUT
10
66.0253
20
147.9385
0
VERTEX
8
CUT
10
66.0063
20
148.9692
0
VERTEX
8
CUT
10
66.0000
20
150.0000
0
VERTEX
8
CUT
10
66.0063
20
151.0308
0
VERTEX
8
CUT
10
66.0253
20
152.0615
0
VERTEX
8
CUT
10
66.0569
20
153.0918
0
VERTEX
8
CUT
10
66.1012
20
154.1217
0
VERTEX
8
CUT
10
66.1581
20
155.1509
0
VERTEX
8
CUT
10
66.2276
20
156.1794
0
VERTEX
8
CUT
10
66.2819
20
156.8589
0
VERTEX
8
CUT
10
80.2349
20
155.7158
0
VERTEX
8
CUT
10
80.1897
20
155.1495
0
VERTEX
8
CUT
10
80.1317
20
154.2925
0
VERTEX
8
CUT
10
80.0843
20
153.4347
0
VERTEX
8
CUT
10
80.0474
20
152.5765
0
VERTEX
8
CUT
10
80.0211
20
151.7179
0
VERTEX
8
CUT
10
80.0053
20
150.8590
0
VERTEX
8
CUT
10
80.0000
20
150.0000
0
VERTEX
8
CUT
10
80.0053
20
149.1410
0
VERTEX
8
CUT
10
80.0211
20
148.2821
0
VERTEX
8
CUT
10
80.0474
20
147.4235
0
SEQEND
0
POLYLINE
8
CUT
66
1
70
1
0
VERTEX
8
CUT
10
81.8942
20
133.8259
0
VERTEX
8
CUT
10
82.0978
20
132.9914
0
VERTEX
8
CUT
10
82.3116
20
132.1594
0
VERTEX
8
CUT
10
82.5357
20
131.3301
0
VERTEX
8
CUT
10
82.6905
20
130.7836
0
VERTEX
8
CUT
10
69.2286
20
126.9403
0
VERTEX
8
CUT
10
69.0428
20
127.5961
0
VERTEX
8
CUT
10
68.7740
20
128.5913
0
VERTEX
8
CUT
10
68.5174
20
129.5897
0
VERTEX
8
CUT
10
68.2730
20
130.5911
0
VERTEX
8
CUT
10
68.0410
20
131.5955
0
VERTEX
8
CUT
10
67.8213
20
132.6026
0
VERTEX
8
CUT
10
67.6140
20
133.6124
0
VERTEX
8
CUT
10
67.4191
20
134.6246
0
VERTEX
8
CUT
10
67.2367
20
135.6392
0
VERTEX
8
CUT
10
67.0667
20
136.6559
0
VERTEX
8
CUT
10
66.9092
20
137.6746
0
VERTEX
8
CUT
10
66.7642
20
138.6952
0
VERTEX
8
CUT
10
66.6317
20
139.7175
0
VERTEX
8
CUT
10
66.5524
20
140.3945
0
VERTEX
8
CUT
10
80.4604
20
141.9955
0
VERTEX
8
CUT
10
80.5264
20
141.4313
0
VERTEX
8
CUT
10
80.6368
20
140.5794
0
VERTEX
8
CUT
10
80.7576
20
139.7289
0
VERTEX
8
CUT
10
80.8889
20
138.8799
0
VERTEX
8
CUT
10
81.0306
20
138.0327
0
VERTEX
8
CUT
10
81.1826
20
137.1872
0
VERTEX
8
CUT
10
81.3450
20
136.3437
0
VERTEX
8
CUT
10
81.5178
20
135.5022
0
VERTEX
8
CUT
10
81.7009
20
134.6629
0
VERTEX
8
CUT
10
81.8942
20
133.8259
0
SEQEND
0
POLYLINE
8
CUT
66
1
70
1
0
VERTEX
8
CUT
10
86.3582
20
120.8499
0
VERTEX
8
CUT
10
86.7207
20
120.0711
0
VERTEX
8
CUT
10
87.0928
20
119.2969
0
VERTEX
8
CUT
10
87.4743
20
118.5272
0
VERTEX
8
CUT
10
87.7328
20
118.0214
0
VERTEX
8
CUT
10
75.2794
20
111.6257
0
VERTEX
8
CUT
10
74.9692
20
112.2326
0
VERTEX
8
CUT
10
74.5113
20
113.1562
0
VERTEX
8
CUT
10
74.0649
20
114.0854
0
VERTEX
8
CUT
10
73.6299
20
115.0199
0
VERTEX
8
CUT
10
73.2064
20
115.9597
0
VERTEX
8
CUT
10
72.7944
20
116.9047
0
VERTEX
8
CUT
10
72.3941
20
117.8546
0
VERTEX
8
CUT
10
72.0055
20
118.8094
0
VERTEX
8
CUT
10
71.6286
20
119.7688
0
VERTEX
8
CUT
10
71.2635
20
120.7328
0
VERTEX
8
CUT
10
70.9103
20
121.7013
0
VERTEX
8
CUT
10
70.5690
20
122.6739
0
VERTEX
8
CUT
10
70.2396
20
123.6507
0
VERTEX
8
CUT
10
70.0298
20
124.2993
0
VERTEX
8
CUT
10
83.3582
20
128.5827
0
VERTEX
8
CUT
10
83.5330
20
128.0423
0
VERTEX
8
CUT
10
83.8075
20
127.2283
0
VERTEX
8
CUT
10
84.0919
20
126.4177
0
VERTEX
8
CUT
10
84.3863
20
125.6107
0
VERTEX
8
CUT
10
84.6905
20
124.8073
0
VERTEX
8
CUT
10
85.0046
20
124.0078
0
VERTEX
8
CUT
10
85.3284
20
123.2122
0
VERTEX
8
CUT
10
85.6620
20
122.4206
0
VERTEX
8
CUT
10
86.0053
20
121.6331
0
VERTEX
8
CUT
10
86.3582
20
120.8499
0
SEQEND
0
POLYLINE
8
CUT
66
1
70
1
0
VERTEX
8
CUT
10
93.2680
20
108.9941
0
VERTEX
8
CUT
10
93.7755
20
108.3010
0
VERTEX
8
CUT
10
94.2914
20
107.6142
0
VERTEX
8
CUT
10
94.8158
20
106.9338
0
VERTEX
8
CUT
10
95.1680
20
106.4881
0
VERTEX
8
CUT
10
84.2016
20
97.7857
0
VERTEX
8
CUT
10
83.7789
20
98.3205
0
VERTEX
8
CUT
10
83.1497
20
99.1371
0
VERTEX
8
CUT
10
82.5306
20
99.9613
0
VERTEX
8
CUT
10
81.9216
20
100.7930
0
VERTEX
8
CUT
10
81.3229
20
101.6321
0
VERTEX
8
CUT
10
80.7345
20
102.4785
0
VERTEX
8
CUT
10
80.1566
20
103.3321
0
VERTEX
8
CUT
10
79.5891
20
104.1927
0
VERTEX
8
CUT
10
79.0323
20
105.0602
0
VERTEX
8
CUT
10
78.4862
20
105.9345
0
VERTEX
8
CUT
10
77.9508
20
106.8154
0
VERTEX
8
CUT
10
77.4263
20
107.7028
0
VERTEX
8
CUT
10
76.9127
20
108.5966
0
VERTEX
8
CUT
10
76.5803
20
109.1917
0
VERTEX
8
CUT
10
88.8170
20
115.9931
0
VERTEX
8
CUT
10
89.0939
20
115.4971
0
VERTEX
8
CUT
10
89.5219
20
114.7523
0
VERTEX
8
CUT
10
89.9590
20
114.0128
0
VERTEX
8
CUT
10
90.4051
20
113.2787
0
VERTEX
8
CUT
10
90.8603
20
112.5502
0
VERTEX
8
CUT
10
91.3243
20
111.8273
0
VERTEX
8
CUT
10
91.7971
20
111.1101
0
VERTEX
8
CUT
10
92.2787
20
110.3988
0
VERTEX
8
CUT
10
92.7691
20
109.6934
0
VERTEX
8
CUT
10
93.2680
20
108.9941
0
SEQEND
0
POLYLINE
8
CUT
66
1
70
1
0
VERTEX
8
CUT
10
102.3579
20
98.7142
0
VERTEX
8
CUT
10
102.9909
20
98.1334
0
VERTEX
8
CUT
10
103.6309
20
97.5605
0
VERTEX
8
CUT
10
104.2779
20
96.9954
0
VERTEX
8
CUT
10
104.7103
20
96.6270
0
VERTEX
8
CUT
10
95.6524
20
85.9524
0
VERTEX
8
CUT
10
95.1335
20
86.3945
0
VERTEX
8
CUT
10
94.3571
20
87.0725
0
VERTEX
8
CUT
10
93.5890
20
87.7601
0
VERTEX
8
CUT
10
92.8295
20
88.4570
0
VERTEX
8
CUT
10
92.0786
20
89.1632
0
VERTEX
8
CUT
10
91.3364
20
89.8786
0
VERTEX
8
CUT
10
90.6030
20
90.6030
0
VERTEX
8
CUT
10
89.8786
20
91.3364
0
VERTEX
8
CUT
10
89.1632
20
92.0786
0
VERTEX
8
CUT
10
88.4570
20
92.8295
0
VERTEX
8
CUT
10
87.7601
20
93.5890
0
VERTEX
8
CUT
10
87.0725
20
94.3571
0
VERTEX
8
CUT
10
86.3945
20
95.1335
0
VERTEX
8
CUT
10
85.9524
20
95.6524
0
VERTEX
8
CUT
10
96.6270
20
104.7103
0
VERTEX
8
CUT
10
96.9954
20
104.2779
0
VERTEX
8
CUT
10
97.5605
20
103.6309
0
VERTEX
8
CUT
10
98.1334
20
102.9909
0
VERTEX
8
CUT
10
98.7142
20
102.3579
0
VERTEX
8
CUT
10
99.3027
20
101.7322
0
VERTEX
8
CUT
10
99.8988
20
101.1137
0
VERTEX
8
CUT
10
100.5025
20
100.5025
0
VERTEX
8
CUT
10
101.1137
20
99.8988
0
VERTEX
8
CUT
10
101.7322
20
99.3027
0
VERTEX
8
CUT
10
102.3579
20
98.7142
0
SEQEND
0
POLYLINE
8
CUT
66
1
70
1
0
VERTEX
8
CUT
10
113.2787
20
90.4051
0
VERTEX
8
CUT
10
114.0128
20
89.9590
0
VERTEX
8
CUT
10
114.7523
20
89.5219
0
VERTEX
8
CUT
10
115.4971
20
89.0939
0
VERTEX
8
CUT
10
115.9931
20
88.8170
0
VERTEX
8
CUT
10
109.1917
20
76.5803
0
VERTEX
8
CUT
10
108.5966
20
76.9127
0
VERTEX
8
CUT
10
107.7028
20
77.4263
0
VERTEX
8
CUT
10
106.8154
20
77.9508
0
VERTEX
8
CUT
10
105.9345
20
78.4862
0
VERTEX
8
CUT
10
105.0602
20
79.0323
0
VERTEX
8
CUT
10
104.1927
20
79.5891
0
VERTEX
8
CUT
10
103.3321
20
80.1566
0
VERTEX
8
CUT
10
102.4785
20
80.7345
0
VERTEX
8
CUT
10
101.6321
20
81.3229
0
VERTEX
8
CUT
10
100.7930
20
81.9216
0
VERTEX
8
CUT
10
99.9613
20
82.5306
0
VERTEX
8
CUT
10
99.1371
20
83.1497
0
VERTEX
8
CUT
10
98.3205
20
83.7789
0
VERTEX
8
CUT
10
97.7857
20
84.2016
0
VERTEX
8
CUT
10
106.4881
20
95.1680
0
VERTEX
8
CUT
10
106.9338
20
94.8158
0
VERTEX
8
CUT
10
107.6142
20
94.2914
0
VERTEX
8
CUT
10
108.3010
20
93.7755
0
VERTEX
8
CUT
10
108.9941
20
93.2680
0
VERTEX
8
CUT
10
109.6934
20
92.7691
0
VERTEX
8
CUT
10
110.3988
20
92.2787
0
VERTEX
8
CUT
10
111.1101
20
91.7971
0
VERTEX
8
CUT
10
111.8273
20
91.3243
0
VERTEX
8
CUT
10
112.5502
20
90.8603
0
VERTEX
8
CUT
10
113.2787
20
90.4051
0
SEQEND
0
POLYLINE
8
CUT
66
1
70
1
0
VERTEX
8
CUT
10
125.6107
20
84.3863
0
VERTEX
8
CUT
10
126.4177
20
84.0919
0
VERTEX
8
CUT
10
127.2283
20
83.8075
0
VERTEX
8
CUT
10
128.0423
20
83.5330
0
VERTEX
8
CUT
10
128.5827
20
83.3582
0
VERTEX
8
CUT
10
124.2993
20
70.0298
0
VERTEX
8
CUT
10
123.6507
20
70.2396
0
VERTEX
8
CUT
10
122.6739
20
70.5690
0
VERTEX
8
CUT
10
121.7013
20
70.9103
0
VERTEX
8
CUT
10
120.7328
20
71.2635
0
VERTEX
8
CUT
10
119.7688
20
71.6286
0
VERTEX
8
CUT
10
118.8094
20
72.0055
0
VERTEX
8
CUT
10
117.8546
20
72.3941
0
VERTEX
8
CUT
10
116.9047
20
72.7944
0
VERTEX
8
CUT
10
115.9597
20
73.2064
0
VERTEX
8
CUT
10
115.0199
20
73.6299
0
VERTEX
8
CUT
10
114.0854
20
74.0649
0
VERTEX
8
CUT
10
113.1562
20
74.5113
0
VERTEX
8
CUT
10
112.2326
20
74.9692
0
VERTEX
8
CUT
10
111.6257
20
75.2794
0
VERTEX
8
CUT
10
118.0214
20
87.7328
0
VERTEX
8
CUT
10
118.5272
20
87.4743
0
VERTEX
8
CUT
10
119.2969
20
87.0928
0
VERTEX
8
CUT
10
120.0711
20
86.7207
0
VERTEX
8
CUT
10
120.8499
20
86.3582
0
VERTEX
8
CUT
10
121.6331
20
86.0053
0
VERTEX
8
CUT
10
122.4206
20
85.6620
0
VERTEX
8
CUT
10
123.2122
20
85.3284
0
VERTEX
8
CUT
10
124.0078
20
85.0046
0
VERTEX
8
CUT
10
124.8073
20
84.6905
0
VERTEX
8
CUT
10
125.6107
20
84.3863
0
SEQEND
0
POLYLINE
8
CUT
66
1
70
1
0
VERTEX
8
CUT
10
138.8799
20
80.8889
0
VERTEX
8
CUT
10
139.7289
20
80.7576
0
VERTEX
8
CUT
10
140.5794
20
80.6368
0
VERTEX
8
CUT
10
141.4313
20
80.5264
0
VERTEX
8
CUT
10
141.9955
20
80.4604
0
VERTEX
8
CUT
10
140.3945
20
66.5524
0
VERTEX
8
CUT
10
139.7175
20
66.6317
0
VERTEX
8
CUT
10
138.6952
20
66.7642
0
VERTEX
8
CUT
10
137.6746
20
66.9092
0
VERTEX
8
CUT
10
136.6559
20
67.0667
0
VERTEX
8
CUT
10
135.6392
20
67.2367
0
VERTEX
8
CUT
10
134.6246
20
67.4191
0
VERTEX
8
CUT
10
133.6124
20
67.6140
0
VERTEX
8
CUT
10
132.6026
20
67.8213
0
VERTEX
8
CUT
10
131.5955
20
68.0410
0
VERTEX
8
CUT
10
130.5911
20
68.2730
0
VERTEX
8
CUT
10
129.5897
20
68.5174
0
VERTEX
8
CUT
10
128.5913
20
68.7740
0
VERTEX
8
CUT
10
127.5961
20
69.0428
0
VERTEX
8
CUT
10
126.9403
20
69.2286
0
VERTEX
8
CUT
10
130.7836
20
82.6905
0
VERTEX
8
CUT
10
131.3301
20
82.5357
0
VERTEX
8
CUT
10
132.1594
20
82.3116
0
VERTEX
8
CUT
10
132.9914
20
82.0978
0
VERTEX
8
CUT
10
133.8259
20
81.8942
0
VERTEX
8
CUT
10
134.6629
20
81.7009
0
VERTEX
8
CUT
10
135.5022
20
81.5178
0
VERTEX
8
CUT
10
136.3437
20
81.3450
0
VERTEX
8
CUT
10
137.1872
20
81.1826
0
VERTEX
8
CUT
10
138.0327
20
81.0306
0
VERTEX
8
CUT
10
138.8799
20
80.8889
0
SEQEND
0
POLYLINE
8
CUT
66
1
70
1
0
VERTEX
8
CUT
10
152.5765
20
80.0474
0
VERTEX
8
CUT
10
153.4347
20
80.0843
0
VERTEX
8
CUT
10
154.2925
20
80.1317
0
VERTEX
8
CUT
10
155.1495
20
80.1897
0
VERTEX
8
CUT
10
155.7158
20
80.2349
0
VERTEX
8
CUT
10
156.8589
20
66.2819
0
VERTEX
8
CUT
10
156.1794
20
66.2276
0
VERTEX
8
CUT
10
155.1509
20
66.1581
0
VERTEX
8
CUT
10
154.1217
20
66.1012
0
VERTEX
8
CUT
10
153.0918
20
66.0569
0
VERTEX
8
CUT
10
152.0615
20
66.0253
0
VERTEX
8
CUT
10
151.0308
20
66.0063
0
VERTEX
8
CUT
10
150.0000
20
66.0000
0
VERTEX
8
CUT
10
148.9692
20
66.0063
0
VERTEX
8
CUT
10
147.9385
20
66.0253
0
VERTEX
8
CUT
10
146.9082
20
66.0569
0
VERTEX
8
CUT
10
145.8783
20
66.1012
0
VERTEX
8
CUT
10
144.8491
20
66.1581
0
VERTEX
8
CUT
10
143.8206
20
66.2276
0
VERTEX
8
CUT
10
143.1411
20
66.2819
0
VERTEX
8
CUT
10
144.2842
20
80.2349
0
VERTEX
8
CUT
10
144.8505
20
80.1897
0
VERTEX
8
CUT
10
145.7075
20
80.1317
0
VERTEX
8
CUT
10
146.5653
20
80.0843
0
VERTEX
8
CUT
10
147.4235
20
80.0474
0
VERTEX
8
CUT
10
148.2821
20
80.0211
0
VERTEX
8
CUT
10
149.1410
20
80.0053
0
VERTEX
8
CUT
10
150.0000
20
80.0000
0
VERTEX
8
CUT
10
150.8590
20
80.0053
0
VERTEX
8
CUT
10
151.7179
20
80.0211
0
VERTEX
8
CUT
10
152.5765
20
80.0474
0
SEQEND
0
POLYLINE
8
CUT
66
1
70
1
0
VERTEX
8
CUT
10
147.4235
20
219.9526
0
VERTEX
8
CUT
10
146.5653
20
219.9157
0
VERTEX
8
CUT
10
145.7075
20
219.8683
0
VERTEX
8
CUT
10
144.8505
20
219.8103
0
VERTEX
8
CUT
10
144.2842
20
219.7651
0
VERTEX
8
CUT
10
143.1411
20
233.7181
0
VERTEX
8
CUT
10
143.8206
20
233.7724
0
VERTEX
8
CUT
10
144.8491
20
233.8419
0
VERTEX
8
CUT
10
145.8783
20
233.8988
0
VERTEX
8
CUT
10
146.9082
20
233.9431
0
VERTEX
8
CUT
10
147.9385
20
233.9747
0
VERTEX
8
CUT
10
148.9692
20
233.9937
0
VERTEX
8
CUT
10
150.0000
20
234.0000
0
VERTEX
8
CUT
10
151.0308
20
233.9937
0
VERTEX
8
CUT
10
152.0615
20
233.9747
0
VERTEX
8
CUT
10
153.0918
20
233.9431
0
VERTEX
8
CUT
10
154.1217
20
233.8988
0
VERTEX
8
CUT
10
155.1509
20
233.8419
0
VERTEX
8
CUT
10
156.1794
20
233.7724
0
VERTEX
8
CUT
10
156.8589
20
233.7181
0
VERTEX
8
CUT
10
155.7158
20
219.7651
0
VERTEX
8
CUT
10
155.1495
20
219.8103
0
VERTEX
8
CUT
10
154.2925
20
219.8683
0
VERTEX
8
CUT
10
153.4347
20
219.9157
0
VERTEX
8
CUT
10
152.5765
20
219.9526
0
VERTEX
8
CUT
10
151.7179
20
219.9789
0
VERTEX
8
CUT
10
150.8590
20
219.9947
0
VERTEX
8
CUT
10
150.0000
20
220.0000
0
VERTEX
8
CUT
10
149.1410
20
219.9947
0
VERTEX
8
CUT
10
148.2821
20
219.9789
0
VERTEX
8
CUT
10
147.4235
20
219.9526
0
SEQEND
0
POLYLINE
8
CUT
66
1
70
1
0
VERTEX
8
CUT
10
161.1201
20
219.1111
0
VERTEX
8
CUT
10
160.2711
20
219.2424
0
VERTEX
8
CUT
10
159.4206
20
219.3632
0
VERTEX
8
CUT
10
158.5687
20
219.4736
0
VERTEX
8
CUT
10
158.0045
20
219.5396
0
VERTEX
8
CUT
10
159.6055
20
233.4476
0
VERTEX
8
CUT
10
160.2825
20
233.3683
0
VERTEX
8
CUT
10
161.3048
20
233.2358
0
VERTEX
8
CUT
10
162.3254
20
233.0908
0
VERTEX
8
CUT
10
163.3441
20
232.9333
0
VERTEX
8
CUT
10
164.3608
20
232.7633
0
VERTEX
8
CUT
10
165.3754
20
232.5809
0
VERTEX
8
CUT
10
166.3876
20
232.3860
0
VERTEX
8
CUT
10
167.3974
20
232.1787
0
VERTEX
8
CUT
10
168.4045
20
231.9590
0
VERTEX
8
CUT
10
169.4089
20
231.7270
0
VERTEX
8
CUT
10
170.4103
20
231.4826
0
VERTEX
8
CUT
10
171.4087
20
231.2260
0
VERTEX
8
CUT
10
172.4039
20
230.9572
0
VERTEX
8
CUT
10
173.0597
20
230.7714
0
VERTEX
8
CUT
10
169.2164
20
217.3095
0
VERTEX
8
CUT
10
168.6699
20
217.4643
0
VERTEX
8
CUT
10
167.8406
20
217.6884
0
VERTEX
8
CUT
10
167.0086
20
217.9022
0
VERTEX
8
CUT
10
166.1741
20
218.1058
0
VERTEX
8
CUT
10
165.3371
20
218.2991
0
VERTEX
8
CUT
10
164.4978
20
218.4822
0
VERTEX
8
CUT
10
163.6563
20
218.6550
0
VERTEX
8
CUT
10
162.8128
20
218.8174
0
VERTEX
8
CUT
10
161.9673
20
218.9694
0
VERTEX
8
CUT
10
161.1201
20
219.1111
0
SEQEND
0
POLYLINE
8
CUT
66
1
70
1
0
VERTEX
8
CUT
10
174.3893
20
215.6137
0
VERTEX
8
CUT
10
173.5823
20
215.9081
0
VERTEX
8
CUT
10
172.7717
20
216.1925
0
VERTEX
8
CUT
10
171.9577
20
216.4670
0
VERTEX
8
CUT
10
171.4173
20
216.6418
0
VERTEX
8
CUT
10
175.7007
20
229.9702
0
VERTEX
8
CUT
10
176.3493
20
229.7604
0
VERTEX
8
CUT
10
177.3261
20
229.4310
0
VERTEX
8
CUT
10
178.2987
20
229.0897
0
VERTEX
8
CUT
10
179.2672
20
228.7365
0
VERTEX
8
CUT
10
180.2312
20
228.3714
0
VERTEX
8
CUT
10
181.1906
20
227.9945
0
VERTEX
8
CUT
10
182.1454
20
227.6059
0
VERTEX
8
CUT
10
183.0953
20
227.2056
0
VERTEX
8
CUT
10
184.0403
20
226.7936
0
VERTEX
8
CUT
10
184.9801
20
226.3701
0
VERTEX
8
CUT
10
185.9146
20
225.9351
0
VERTEX
8
CUT
10
186.8438
20
225.4887
0
VERTEX
8
CUT
10
187.7674
20
225.0308
0
VERTEX
8
CUT
10
188.3743
20
224.7206
0
VERTEX
8
CUT
10
181.9786
20
212.2672
0
VERTEX
8
CUT
10
181.4728
20
212.5257
0
VERTEX
8
CUT
10
180.7031
20
212.9072
0
VERTEX
8
CUT
10
179.9289
20
213.2793
0
VERTEX
8
CUT
10
179.1501
20
213.6418
0
VERTEX
8
CUT
10
178.3669
20
213.9947
0
VERTEX
8
CUT
10
177.5794
20
214.3380
0
VERTEX
8
CUT
10
176.7878
20
214.6716
0
VERTEX
8
CUT
10
175.9922
20
214.9954
0
VERTEX
8
CUT
10
175.1927
20
215.3095
0
VERTEX
8
CUT
10
174.3893
20
215.6137
0
SEQEND
0
POLYLINE
8
CUT
66
1
70
1
0
VERTEX
8
CUT
10
186.7213
20
209.5949
0
VERTEX
8
CUT
10
185.9872
20
210.0410
0
VERTEX
8
CUT
10
185.2477
20
210.4781
0
VERTEX
8
CUT
10
184.5029
20
210.9061
0
VERTEX
8
CUT
10
184.0069
20
211.1830
0
VERTEX
8
CUT
10
190.8083
20
223.4197
0
VERTEX
8
CUT
10
191.4034
20
223.0873
0
VERTEX
8
CUT
10
192.2972
20
222.5737
0
VERTEX
8
CUT
10
193.1846
20
222.0492
0
VERTEX
8
CUT
10
194.0655
20
221.5138
0
VERTEX
8
CUT
10
194.9398
20
220.9677
0
VERTEX
8
CUT
10
195.8073
20
220.4109
0
VERTEX
8
CUT
10
196.6679
20
219.8434
0
VERTEX
8
CUT
10
197.5215
20
219.2655
0
VERTEX
8
CUT
10
198.3679
20
218.6771
0
VERTEX
8
CUT
10
199.2070
20
218.0784
0
VERTEX
8
CUT
10
200.0387
20
217.4694
0
VERTEX
8
CUT
10
200.8629
20
216.8503
0
VERTEX
8
CUT
10
201.6795
20
216.2211
0
VERTEX
8
CUT
10
202.2143
20
215.7984
0
VERTEX
8
CUT
10
193.5119
20
204.8320
0
VERTEX
8
CUT
10
193.0662
20
205.1842
0
VERTEX
8
CUT
10
192.3858
20
205.7086
0
VERTEX
8
CUT
10
191.6990
20
206.2245
0
VERTEX
8
CUT
10
191.0059
20
206.7320
0
VERTEX
8
CUT
10
190.3066
20
207.2309
0
VERTEX
8
CUT
10
189.6012
20
207.7213
0
VERTEX
8
CUT
10
188.8899
20
208.2029
0
VERTEX
8
CUT
10
188.1727
20
208.6757
0
VERTEX
8
CUT
10
187.4498
20
209.1397
0
VERTEX
8
CUT
10
186.7213
20
209.5949
0
SEQEND
0
POLYLINE
8
CUT
66
1
70
1
0
VERTEX
8
CUT
10
197.6421
20
201.2858
0
VERTEX
8
CUT
10
197.0091
20
201.8666
0
VERTEX
8
CUT
10
196.3691
20
202.4395
0
VERTEX
8
CUT
10
195.7221
20
203.0046
0
VERTEX
8
CUT
10
195.2897
20
203.3730
0
VERTEX
8
CUT
10
204.3476
20
214.0476
0
VERTEX
8
CUT
10
204.8665
20
213.6055
0
VERTEX
8
CUT
10
205.6429
20
212.9275
0
VERTEX
8
CUT
10
206.4110
20
212.2399
0
VERTEX
8
CUT
10
207.1705
20
211.5430
0
VERTEX
8
CUT
10
207.9214
20
210.8368
0
VERTEX
8
CUT
10
208.6636
20
210.1214
0
VERTEX
8
CUT
10
209.3970
20
209.3970
0
VERTEX
8
CUT
10
210.1214
20
208.6636
0
VERTEX
8
CUT
10
210.8368
20
207.9214
0
VERTEX
8
CUT
10
211.5430
20
207.1705
0
VERTEX
8
CUT
10
212.2399
20
206.4110
0
VERTEX
8
CUT
10
212.9275
20
205.6429
0
VERTEX
8
CUT
10
213.6055
20
204.8665
0
VERTEX
8
CUT
10
214.0476
20
204.3476
0
VERTEX
8
CUT
10
203.3730
20
195.2897
0
VERTEX
8
CUT
10
203.0046
20
195.7221
0
VERTEX
8
CUT
10
202.4395
20
196.3691
0
VERTEX
8
CUT
10
201.8666
20
197.0091
0
VERTEX
8
CUT
10
201.2858
20
197.6421
0
VERTEX
8
CUT
10
200.6973
20
198.2678
0
VERTEX
8
CUT
10
200.1012
20
198.8863
0
VERTEX
8
CUT
10
199.4975
20
199.4975
0
VERTEX
8
CUT
10
198.8863
20
200.1012
0
VERTEX
8
CUT
10
198.2678
20
200.6973
0
VERTEX
8
CUT
10
197.6421
20
201.2858
0
SEQEND
0
POLYLINE
8
CUT
66
1
70
1
0
VERTEX
8
CUT
10
206.7320
20
191.0059
0
VERTEX
8
CUT
10
206.2245
20
191.6990
0
VERTEX
8
CUT
10
205.7086
20
192.3858
0
VERTEX
8
CUT
10
205.1842
20
193.0662
0
VERTEX
8
CUT
10
204.8320
20
193.5119
0
VERTEX
8
CUT
10
215.7984
20
202.2143
0
VERTEX
8
CUT
10
216.2211
20
201.6795
0
VERTEX
8
CUT
10
216.8503
20
200.8629
0
VERTEX
8
CUT
10
217.4694
20
200.0387
0
VERTEX
8
CUT
10
218.0784
20
199.2070
0
VERTEX
8
CUT
10
218.6771
20
198.3679
0
VERTEX
8
CUT
10
219.2655
20
197.5215
0
VERTEX
8
CUT
10
219.8434
20
196.6679
0
VERTEX
8
CUT
10
220.4109
20
195.8073
0
VERTEX
8
CUT
10
220.9677
20
194.9398
0
VERTEX
8
CUT
10
221.5138
20
194.0655
0
VERTEX
8
CUT
10
222.0492
20
193.1846
0
VERTEX
8
CUT
10
222.5737
20
192.2972
0
VERTEX
8
CUT
10
223.0873
20
191.4034
0
VERTEX
8
CUT
10
223.4197
20
190.8083
0
VERTEX
8
CUT
10
211.1830
20
184.0069
0
VERTEX
8
CUT
10
210.9061
20
184.5029
0
VERTEX
8
CUT
10
210.4781
20
185.2477
0
VERTEX
8
CUT
10
210.0410
20
185.9872
0
VERTEX
8
CUT
10
209.5949
20
186.7213
0
VERTEX
8
CUT
10
209.1397
20
187.4498
0
VERTEX
8
CUT
10
208.6757
20
188.1727
0
VERTEX
8
CUT
10
208.2029
20
188.8899
0
VERTEX
8
CUT
10
207.7213
20
189.6012
0
VERTEX
8
CUT
10
207.2309
20
190.3066
0
VERTEX
8
CUT
10
206.7320
20
191.0059
0
SEQEND
0
POLYLINE
8
CUT
66
1
70
1
0
VERTEX
8
CUT
10
213.6418
20
179.1501
0
VERTEX
8
CUT
10
213.2793
20
179.9289
0
VERTEX
8
CUT
10
212.9072
20
180.7031
0
VERTEX
8
CUT
10
212.5257
20
181.4728
0
VERTEX
8
CUT
10
212.2672
20
181.9786
0
VERTEX
8
CUT
10
224.7206
20
188.3743
0
VERTEX
8
CUT
10
225.0308
20
187.7674
0
VERTEX
8
CUT
10
225.4887
20
186.8438
0
VERTEX
8
CUT
10
225.9351
20
185.9146
0
VERTEX
8
CUT
10
226.3701
20
184.9801
0
VERTEX
8
CUT
10
226.7936
20
184.0403
0
VERTEX
8
CUT
10
227.2056
20
183.0953
0
VERTEX
8
CUT
10
227.6059
20
182.1454
0
VERTEX
8
CUT
10
227.9945
20
181.1906
0
VERTEX
8
CUT
10
228.3714
20
180.2312
0
VERTEX
8
CUT
10
228.7365
20
179.2672
0
VERTEX
8
CUT
10
229.0897
20
178.2987
0
VERTEX
8
CUT
10
229.4310
20
177.3261
0
VERTEX
8
CUT
10
229.7604
20
176.3493
0
VERTEX
8
CUT
10
229.9702
20
175.7007
0
VERTEX
8
CUT
10
216.6418
20
171.4173
0
VERTEX
8
CUT
10
216.4670
20
171.9577
0
VERTEX
8
CUT
10
216.1925
20
172.7717
0
VERTEX
8
CUT
10
215.9081
20
173.5823
0
VERTEX
8
CUT
10
215.6137
20
174.3893
0
VERTEX
8
CUT
10
215.3095
20
175.1927
0
VERTEX
8
CUT
10
214.9954
20
175.9922
0
VERTEX
8
CUT
10
214.6716
20
176.7878
0
VERTEX
8
CUT
10
214.3380
20
177.5794
0
VERTEX
8
CUT
10
213.9947
20
178.3669
0
VERTEX
8
CUT
10
213.6418
20
179.1501
0
SEQEND
0
POLYLINE
8
CUT
66
1
70
1
0
VERTEX
8
CUT
10
218.1058
20
166.1741
0
VERTEX
8
CUT
10
217.9022
20
167.0086
0
VERTEX
8
CUT
10
217.6884
20
167.8406
0
VERTEX
8
CUT
10
217.4643
20
168.6699
0
VERTEX
8
CUT
10
217.3095
20
169.2164
0
VERTEX
8
CUT
10
230.7714
20
173.0597
0
VERTEX
8
CUT
10
230.9572
20
172.4039
0
VERTEX
8
CUT
10
231.2260
20
171.4087
0
VERTEX
8
CUT
10
231.4826
20
170.4103
0
VERTEX
8
CUT
10
231.7270
20
169.4089
0
VERTEX
8
CUT
10
231.9590
20
168.4045
0
VERTEX
8
CUT
10
232.1787
20
167.3974
0
VERTEX
8
CUT
10
232.3860
20
166.3876
0
VERTEX
8
CUT
10
232.5809
20
165.3754
0
VERTEX
8
CUT
10
232.7633
20
164.3608
0
VERTEX
8
CUT
10
232.9333
20
163.3441
0
VERTEX
8
CUT
10
233.0908
20
162.3254
0
VERTEX
8
CUT
10
233.2358
20
161.3048
0
VERTEX
8
CUT
10
233.3683
20
160.2825
0
VERTEX
8
CUT
10
233.4476
20
159.6055
0
VERTEX
8
CUT
10
219.5396
20
158.0045
0
VERTEX
8
CUT
10
219.4736
20
158.5687
0
VERTEX
8
CUT
10
219.3632
20
159.4206
0
VERTEX
8
CUT
10
219.2424
20
160.2711
0
VERTEX
8
CUT
10
219.1111
20
161.1201
0
VERTEX
8
CUT
10
218.9694
20
161.9673
0
VERTEX
8
CUT
10
218.8174
20
162.8128
0
VERTEX
8
CUT
10
218.6550
20
163.6563
0
VERTEX
8
CUT
10
218.4822
20
164.4978
0
VERTEX
8
CUT
10
218.2991
20
165.3371
0
VERTEX
8
CUT
10
218.1058
20
166.1741
0
SEQEND
0
POLYLINE
8
CUT
66
1
70
1
0
VERTEX
8
CUT
10
219.9526
20
152.5765
0
VERTEX
8
CUT
10
219.9157
20
153.4347
0
VERTEX
8
CUT
10
219.8683
20
154.2925
0
VERTEX
8
CUT
10
219.8103
20
155.1495
0
VERTEX
8
CUT
10
219.7651
20
155.7158
0
VERTEX
8
CUT
10
233.7181
20
156.8589
0
VERTEX
8
CUT
10
233.7724
20
156.1794
0
VERTEX
8
CUT
10
233.8419
20
155.1509
0
VERTEX
8
CUT
10
233.8988
20
154.1217
0
VERTEX
8
CUT
10
233.9431
20
153.0918
0
VERTEX
8
CUT
10
233.9747
20
152.0615
0
VERTEX
8
CUT
10
233.9937
20
151.0308
0
VERTEX
8
CUT
10
234.0000
20
150.0000
0
VERTEX
8
CUT
10
233.9937
20
148.9692
0
VERTEX
8
CUT
10
233.9747
20
147.9385
0
VERTEX
8
CUT
10
233.9431
20
146.9082
0
VERTEX
8
CUT
10
233.8988
20
145.8783
0
VERTEX
8
CUT
10
233.8419
20
144.8491
0
VERTEX
8
CUT
10
233.7724
20
143.8206
0
VERTEX
8
CUT
10
233.7181
20
143.1411
0
VERTEX
8
CUT
10
219.7651
20
144.2842
0
VERTEX
8
CUT
10
219.8103
20
144.8505
0
VERTEX
8
CUT
10
219.8683
20
145.7075
0
VERTEX
8
CUT
10
219.9157
20
146.5653
0
VERTEX
8
CUT
10
219.9526
20
147.4235
0
VERTEX
8
CUT
10
219.9789
20
148.2821
0
VERTEX
8
CUT
10
219.9947
20
149.1410
0
VERTEX
8
CUT
10
220.0000
20
150.0000
0
VERTEX
8
CUT
10
219.9947
20
150.8590
0
VERTEX
8
CUT
10
219.9789
20
151.7179
0
VERTEX
8
CUT
10
219.9526
20
152.5765
0
SEQEND
0
POLYLINE
8
CUT
66
1
70
1
0
VERTEX
8
CUT
10
219.1111
20
138.8799
0
VERTEX
8
CUT
10
219.2424
20
139.7289
0
VERTEX
8
CUT
10
219.3632
20
140.5794
0
VERTEX
8
CUT
10
219.4736
20
141.4313
0
VERTEX
8
CUT
10
219.5396
20
141.9955
0
VERTEX
8
CUT
10
233.4476
20
140.3945
0
VERTEX
8
CUT
10
233.3683
20
139.7175
0
VERTEX
8
CUT
10
233.2358
20
138.6952
0
VERTEX
8
CUT
10
233.0908
20
137.6746
0
VERTEX
8
CUT
10
232.9333
20
136.6559
0
VERTEX
8
CUT
10
232.7633
20
135.6392
0
VERTEX
8
CUT
10
232.5809
20
134.6246
0
VERTEX
8
CUT
10
232.3860
20
133.6124
0
VERTEX
8
CUT
10
232.1787
20
132.6026
0
VERTEX
8
CUT
10
231.9590
20
131.5955
0
VERTEX
8
CUT
10
231.7270
20
130.5911
0
VERTEX
8
CUT
10
231.4826
20
129.5897
0
VERTEX
8
CUT
10
231.2260
20
128.5913
0
VERTEX
8
CUT
10
230.9572
20
127.5961
0
VERTEX
8
CUT
10
230.7714
20
126.9403
0
VERTEX
8
CUT
10
217.3095
20
130.7836
0
VERTEX
8
CUT
10
217.4643
20
131.3301
0
VERTEX
8
CUT
10
217.6884
20
132.1594
0
VERTEX
8
CUT
10
217.9022
20
132.9914
0
VERTEX
8
CUT
10
218.1058
20
133.8259
0
VERTEX
8
CUT
10
218.2991
20
134.6629
0
VERTEX
8
CUT
10
218.4822
20
135.5022
0
VERTEX
8
CUT
10
218.6550
20
136.3437
0
VERTEX
8
CUT
10
218.8174
20
137.1872
0
VERTEX
8
CUT
10
218.9694
20
138.0327
0
VERTEX
8
CUT
10
219.1111
20
138.8799
0
SEQEND
0
POLYLINE
8
CUT
66
1
70
1
0
VERTEX
8
CUT
10
215.6137
20
125.6107
0
VERTEX
8
CUT
10
215.9081
20
126.4177
0
VERTEX
8
CUT
10
216.1925
20
127.2283
0
VERTEX
8
CUT
10
216.4670
20
128.0423
0
VERTEX
8
CUT
10
216.6418
20
128.5827
0
VERTEX
8
CUT
10
229.9702
20
124.2993
0
VERTEX
8
CUT
10
229.7604
20
123.6507
0
VERTEX
8
CUT
10
229.4310
20
122.6739
0
VERTEX
8
CUT
10
229.0897
20
121.7013
0
VERTEX
8
CUT
10
228.7365
20
120.7328
0
VERTEX
8
CUT
10
228.3714
20
119.7688
0
VERTEX
8
CUT
10
227.9945
20
118.8094
0
VERTEX
8
CUT
10
227.6059
20
117.8546
0
VERTEX
8
CUT
10
227.2056
20
116.9047
0
VERTEX
8
CUT
10
226.7936
20
115.9597
0
VERTEX
8
CUT
10
226.3701
20
115.0199
0
VERTEX
8
CUT
10
225.9351
20
114.0854
0
VERTEX
8
CUT
10
225.4887
20
113.1562
0
VERTEX
8
CUT
10
225.0308
20
112.2326
0
VERTEX
8
CUT
10
224.7206
20
111.6257
0
VERTEX
8
CUT
10
212.2672
20
118.0214
0
VERTEX
8
CUT
10
212.5257
20
118.5272
0
VERTEX
8
CUT
10
212.9072
20
119.2969
0
VERTEX
8
CUT
10
213.2793
20
120.0711
0
VERTEX
8
CUT
10
213.6418
20
120.8499
0
VERTEX
8
CUT
10
213.9947
20
121.6331
0
VERTEX
8
CUT
10
214.3380
20
122.4206
0
VERTEX
8
CUT
10
214.6716
20
123.2122
0
VERTEX
8
CUT
10
214.9954
20
124.0078
0
VERTEX
8
CUT
10
215.3095
20
124.8073
0
VERTEX
8
CUT
10
215.6137
20
125.6107
0
SEQEND
0
POLYLINE
8
CUT
66
1
70
1
0
VERTEX
8
CUT
10
209.5949
20
113.2787
0
VERTEX
8
CUT
10
210.0410
20
114.0128
0
VERTEX
8
CUT
10
210.4781
20
114.7523
0
VERTEX
8
CUT
10
210.9061
20
115.4971
0
VERTEX
8
CUT
10
211.1830
20
115.9931
0
VERTEX
8
CUT
10
223.4197
20
109.1917
0
VERTEX
8
CUT
10
223.0873
20
108.5966
0
VERTEX
8
CUT
10
222.5737
20
107.7028
0
VERTEX
8
CUT
10
222.0492
20
106.8154
0
VERTEX
8
CUT
10
221.5138
20
105.9345
0
VERTEX
8
CUT
10
220.9677
20
105.0602
0
VERTEX
8
CUT
10
220.4109
20
104.1927
0
VERTEX
8
CUT
10
219.8434
20
103.3321
0
VERTEX
8
CUT
10
219.2655
20
102.4785
0
VERTEX
8
CUT
10
218.6771
20
101.6321
0
VERTEX
8
CUT
10
218.0784
20
100.7930
0
VERTEX
8
CUT
10
217.4694
20
99.9613
0
VERTEX
8
CUT
10
216.8503
20
99.1371
0
VERTEX
8
CUT
10
216.2211
20
98.3205
0
VERTEX
8
CUT
10
215.7984
20
97.7857
0
VERTEX
8
CUT
10
204.8320
20
106.4881
0
VERTEX
8
CUT
10
205.1842
20
106.9338
0
VERTEX
8
CUT
10
205.7086
20
107.6142
0
VERTEX
8
CUT
10
206.2245
20
108.3010
0
VERTEX
8
CUT
10
206.7320
20
108.9941
0
VERTEX
8
CUT
10
207.2309
20
109.6934
0
VERTEX
8
CUT
10
207.7213
20
110.3988
0
VERTEX
8
CUT
10
208.2029
20
111.1101
0
VERTEX
8
CUT
10
208.6757
20
111.8273
0
VERTEX
8
CUT
10
209.1397
20
112.5502
0
VERTEX
8
CUT
10
209.5949
20
113.2787
0
SEQEND
0
POLYLINE
8
CUT
66
1
70
1
0
VERTEX
8
CUT
10
201.2858
20
102.3579
0
VERTEX
8
CUT
10
201.8666
20
102.9909
0
VERTEX
8
CUT
10
202.4395
20
103.6309
0
VERTEX
8
CUT
10
203.0046
20
104.2779
0
VERTEX
8
CUT
10
203.3730
20
104.7103
0
VERTEX
8
CUT
10
214.0476
20
95.6524
0
VERTEX
8
CUT
10
213.6055
20
95.1335
0
VERTEX
8
CUT
10
212.9275
20
94.3571
0
VERTEX
8
CUT
10
212.2399
20
93.5890
0
VERTEX
8
CUT
10
211.5430
20
92.8295
0
VERTEX
8
CUT
10
210.8368
20
92.0786
0
VERTEX
8
CUT
10
210.1214
20
91.3364
0
VERTEX
8
CUT
10
209.3970
20
90.6030
0
VERTEX
8
CUT
10
208.6636
20
89.8786
0
VERTEX
8
CUT
10
207.9214
20
89.1632
0
VERTEX
8
CUT
10
207.1705
20
88.4570
0
VERTEX
8
CUT
10
206.4110
20
87.7601
0
VERTEX
8
CUT
10
205.6429
20
87.0725
0
VERTEX
8
CUT
10
204.8665
20
86.3945
0
VERTEX
8
CUT
10
204.3476
20
85.9524
0
VERTEX
8
CUT
10
195.2897
20
96.6270
0
VERTEX
8
CUT
10
195.7221
20
96.9954
0
VERTEX
8
CUT
10
196.3691
20
97.5605
0
VERTEX
8
CUT
10
197.0091
20
98.1334
0
VERTEX
8
CUT
10
197.6421
20
98.7142
0
VERTEX
8
CUT
10
198.2678
20
99.3027
0
VERTEX
8
CUT
10
198.8863
20
99.8988
0
VERTEX
8
CUT
10
199.4975
20
100.5025
0
VERTEX
8
CUT
10
200.1012
20
101.1137
0
VERTEX
8
CUT
10
200.6973
20
101.7322
0
VERTEX
8
CUT
10
201.2858
20
102.3579
0
SEQEND
0
POLYLINE
8
CUT
66
1
70
1
0
VERTEX
8
CUT
10
191.0059
20
93.2680
0
VERTEX
8
CUT
10
191.6990
20
93.7755
0
VERTEX
8
CUT
10
192.3858
20
94.2914
0
VERTEX
8
CUT
10
193.0662
20
94.8158
0
VERTEX
8
CUT
10
193.5119
20
95.1680
0
VERTEX
8
CUT
10
202.2143
20
84.2016
0
VERTEX
8
CUT
10
201.6795
20
83.7789
0
VERTEX
8
CUT
10
200.8629
20
83.1497
0
VERTEX
8
CUT
10
200.0387
20
82.5306
0
VERTEX
8
CUT
10
199.2070
20
81.9216
0
VERTEX
8
CUT
10
198.3679
20
81.3229
0
VERTEX
8
CUT
10
197.5215
20
80.7345
0
VERTEX
8
CUT
10
196.6679
20
80.1566
0
VERTEX
8
CUT
10
195.8073
20
79.5891
0
VERTEX
8
CUT
10
194.9398
20
79.0323
0
VERTEX
8
CUT
10
194.0655
20
78.4862
0
VERTEX
8
CUT
10
193.1846
20
77.9508
0
VERTEX
8
CUT
10
192.2972
20
77.4263
0
VERTEX
8
CUT
10
191.4034
20
76.9127
0
VERTEX
8
CUT
10
190.8083
20
76.5803
0
VERTEX
8
CUT
10
184.0069
20
88.8170
0
VERTEX
8
CUT
10
184.5029
20
89.0939
0
VERTEX
8
CUT
10
185.2477
20
89.5219
0
VERTEX
8
CUT
10
185.9872
20
89.9590
0
VERTEX
8
CUT
10
186.7213
20
90.4051
0
VERTEX
8
CUT
10
187.4498
20
90.8603
0
VERTEX
8
CUT
10
188.1727
20
91.3243
0
VERTEX
8
CUT
10
188.8899
20
91.7971
0
VERTEX
8
CUT
10
189.6012
20
92.2787
0
VERTEX
8
CUT
10
190.3066
20
92.7691
0
VERTEX
8
CUT
10
191.0059
20
93.2680
0
SEQEND
0
POLYLINE
8
CUT
66
1
70
1
0
VERTEX
8
CUT
10
179.1501
20
86.3582
0
VERTEX
8
CUT
10
179.9289
20
86.7207
0
VERTEX
8
CUT
10
180.7031
20
87.0928
0
VERTEX
8
CUT
10
181.4728
20
87.4743
0
VERTEX
8
CUT
10
181.9786
20
87.7328
0
VERTEX
8
CUT
10
188.3743
20
75.2794
0
VERTEX
8
CUT
10
187.7674
20
74.9692
0
VERTEX
8
CUT
10
186.8438
20
74.5113
0
VERTEX
8
CUT
10
185.9146
20
74.0649
0
VERTEX
8
CUT
10
184.9801
20
73.6299
0
VERTEX
8
CUT
10
184.0403
20
73.2064
0
VERTEX
8
CUT
10
183.0953
20
72.7944
0
VERTEX
8
CUT
10
182.1454
20
72.3941
0
VERTEX
8
CUT
10
181.1906
20
72.0055
0
VERTEX
8
CUT
10
180.2312
20
71.6286
0
VERTEX
8
CUT
10
179.2672
20
71.2635
0
VERTEX
8
CUT
10
178.2987
20
70.9103
0
VERTEX
8
CUT
10
177.3261
20
70.5690
0
VERTEX
8
CUT
10
176.3493
20
70.2396
0
VERTEX
8
CUT
10
175.7007
20
70.0298
0
VERTEX
8
CUT
10
171.4173
20
83.3582
0
VERTEX
8
CUT
10
171.9577
20
83.5330
0
VERTEX
8
CUT
10
172.7717
20
83.8075
0
VERTEX
8
CUT
10
173.5823
20
84.0919
0
VERTEX
8
CUT
10
174.3893
20
84.3863
0
VERTEX
8
CUT
10
175.1927
20
84.6905
0
VERTEX
8
CUT
10
175.9922
20
85.0046
0
VERTEX
8
CUT
10
176.7878
20
85.3284
0
VERTEX
8
CUT
10
177.5794
20
85.6620
0
VERTEX
8
CUT
10
178.3669
20
86.0053
0
VERTEX
8
CUT
10
179.1501
20
86.3582
0
SEQEND
0
POLYLINE
8
CUT
66
1
70
1
0
VERTEX
8
CUT
10
166.1741
20
81.8942
0
VERTEX
8
CUT
10
167.0086
20
82.0978
0
VERTEX
8
CUT
10
167.8406
20
82.3116
0
VERTEX
8
CUT
10
168.6699
20
82.5357
0
VERTEX
8
CUT
10
169.2164
20
82.6905
0
VERTEX
8
CUT
10
173.0597
20
69.2286
0
VERTEX
8
CUT
10
172.4039
20
69.0428
0
VERTEX
8
CUT
10
171.4087
20
68.7740
0
VERTEX
8
CUT
10
170.4103
20
68.5174
0
VERTEX
8
CUT
10
169.4089
20
68.2730
0
VERTEX
8
CUT
10
168.4045
20
68.0410
0
VERTEX
8
CUT
10
167.3974
20
67.8213
0
VERTEX
8
CUT
10
166.3876
20
67.6140
0
VERTEX
8
CUT
10
165.3754
20
67.4191
0
VERTEX
8
CUT
10
164.3608
20
67.2367
0
VERTEX
8
CUT
10
163.3441
20
67.0667
0
VERTEX
8
CUT
10
162.3254
20
66.9092
0
VERTEX
8
CUT
10
161.3048
20
66.7642
0
VERTEX
8
CUT
10
160.2825
20
66.6317
0
VERTEX
8
CUT
10
159.6055
20
66.5524
0
VERTEX
8
CUT
10
158.0045
20
80.4604
0
VERTEX
8
CUT
10
158.5687
20
80.5264
0
VERTEX
8
CUT
10
159.4206
20
80.6368
0
VERTEX
8
CUT
10
160.2711
20
80.7576
0
VERTEX
8
CUT
10
161.1201
20
80.8889
0
VERTEX
8
CUT
10
161.9673
20
81.0306
0
VERTEX
8
CUT
10
162.8128
20
81.1826
0
VERTEX
8
CUT
10
163.6563
20
81.3450
0
VERTEX
8
CUT
10
164.4978
20
81.5178
0
VERTEX
8
CUT
10
165.3371
20
81.7009
0
VERTEX
8
CUT
10
166.1741
20
81.8942
0
SEQEND
0
ENDSEC
0
EOF
