0
SECTION
2
HEADER
9
$ACADVER
1
AC1009
9
$INSUNITS
70
4
0
ENDSEC
0
SECTION
2
TABLES
0
TABLE
2
LAYER
70
1
0
LAYER
2
CUT
70
0
62
7
6
CONTINUOUS
0
ENDTAB
0
ENDSEC
0
SECTION
2
ENTITIES
0
POLYLINE
8
CUT
66
1
70
1
10
0.0
20
0.0
30
0.0
0
VERTEX
8
CUT
10
0.3351
20
1.6400
0
VERTEX
8
CUT
10
0.2121
20
4.9079
0
VERTEX
8
CUT
10
0.0000
20
68.6944
0
VERTEX
8
CUT
10
0.0303
20
260.6644
0
VERTEX
8
CUT
10
0.2424
20
296.3919
0
VERTEX
8
CUT
10
0.3670
20
299.0922
0
VERTEX
8
CUT
10
0.6059
20
299.8416
0
VERTEX
8
CUT
10
1.6645
20
300.0868
0
VERTEX
8
CUT
10
11.8438
20
300.2685
0
VERTEX
8
CUT
10
68.6338
20
300.4200
0
VERTEX
8
CUT
10
256.5432
20
300.3897
0
VERTEX
8
CUT
10
287.5772
20
300.2988
0
VERTEX
8
CUT
10
298.4180
20
300.0869
0
VERTEX
8
CUT
10
299.5629
20
299.8804
0
VERTEX
8
CUT
10
299.7839
20
298.7210
0
VERTEX
8
CUT
10
299.9957
20
287.8499
0
VERTEX
8
CUT
10
300.0867
20
256.7868
0
VERTEX
8
CUT
10
300.1170
20
66.2102
0
VERTEX
8
CUT
10
299.9655
20
10.2704
0
VERTEX
8
CUT
10
299.7536
20
1.3633
0
VERTEX
8
CUT
10
299.5110
20
0.5784
0
VERTEX
8
CUT
10
298.4525
20
0.3332
0
VERTEX
8
CUT
10
288.2732
20
0.1515
0
VERTEX
8
CUT
10
231.5135
20
0.0000
0
VERTEX
8
CUT
10
39.7253
20
0.0303
0
VERTEX
8
CUT
10
10.2666
20
0.1516
0
VERTEX
8
CUT
10
4.0156
20
0.2428
0
VERTEX
8
CUT
10
1.3633
20
0.3633
0
VERTEX
8
CUT
10
0.6479
20
0.5607
0
SEQEND
0
POLYLINE
8
CUT
66
1
70
1
10
0.0
20
0.0
30
0.0
0
VERTEX
8
CUT
10
151.8117
20
8.0000
0
VERTEX
8
CUT
10
151.8117
20
14.9692
0
VERTEX
8
CUT
10
151.8610
20
14.9979
0
VERTEX
8
CUT
10
151.9342
20
15.0430
0
VERTEX
8
CUT
10
152.0062
20
15.0899
0
VERTEX
8
CUT
10
152.0770
20
15.1385
0
VERTEX
8
CUT
10
152.1466
20
15.1888
0
VERTEX
8
CUT
10
152.2150
20
15.2408
0
VERTEX
8
CUT
10
152.2821
20
15.2945
0
VERTEX
8
CUT
10
152.3478
20
15.3498
0
VERTEX
8
CUT
10
152.4121
20
15.4067
0
VERTEX
8
CUT
10
152.4751
20
15.4651
0
VERTEX
8
CUT
10
152.5366
20
15.5251
0
VERTEX
8
CUT
10
152.5965
20
15.5866
0
VERTEX
8
CUT
10
152.6550
20
15.6495
0
VERTEX
8
CUT
10
152.7119
20
15.7139
0
VERTEX
8
CUT
10
152.7672
20
15.7796
0
VERTEX
8
CUT
10
152.8209
20
15.8467
0
VERTEX
8
CUT
10
152.8729
20
15.9151
0
VERTEX
8
CUT
10
152.9232
20
15.9847
0
VERTEX
8
CUT
10
152.9718
20
16.0555
0
VERTEX
8
CUT
10
153.0187
20
16.1275
0
VERTEX
8
CUT
10
153.0637
20
16.2006
0
VERTEX
8
CUT
10
153.1070
20
16.2749
0
VERTEX
8
CUT
10
153.1484
20
16.3501
0
VERTEX
8
CUT
10
153.1880
20
16.4264
0
VERTEX
8
CUT
10
153.2256
20
16.5036
0
VERTEX
8
CUT
10
153.2614
20
16.5817
0
VERTEX
8
CUT
10
153.2953
20
16.6606
0
VERTEX
8
CUT
10
153.3272
20
16.7404
0
VERTEX
8
CUT
10
153.3571
20
16.8209
0
VERTEX
8
CUT
10
153.3850
20
16.9021
0
VERTEX
8
CUT
10
153.4110
20
16.9840
0
VERTEX
8
CUT
10
153.4349
20
17.0665
0
VERTEX
8
CUT
10
153.4568
20
17.1496
0
VERTEX
8
CUT
10
153.4766
20
17.2331
0
VERTEX
8
CUT
10
153.4944
20
17.3172
0
VERTEX
8
CUT
10
153.5102
20
17.4016
0
VERTEX
8
CUT
10
153.5238
20
17.4864
0
VERTEX
8
CUT
10
153.5354
20
17.5716
0
VERTEX
8
CUT
10
153.5448
20
17.6569
0
VERTEX
8
CUT
10
153.5522
20
17.7425
0
VERTEX
8
CUT
10
153.5575
20
17.8283
0
VERTEX
8
CUT
10
153.5606
20
17.9141
0
VERTEX
8
CUT
10
153.5617
20
18.0000
0
VERTEX
8
CUT
10
153.5606
20
18.0859
0
VERTEX
8
CUT
10
153.5575
20
18.1717
0
VERTEX
8
CUT
10
153.5522
20
18.2575
0
VERTEX
8
CUT
10
153.5448
20
18.3431
0
VERTEX
8
CUT
10
153.5354
20
18.4284
0
VERTEX
8
CUT
10
153.5238
20
18.5136
0
VERTEX
8
CUT
10
153.5102
20
18.5984
0
VERTEX
8
CUT
10
153.4944
20
18.6828
0
VERTEX
8
CUT
10
153.4766
20
18.7669
0
VERTEX
8
CUT
10
153.4568
20
18.8504
0
VERTEX
8
CUT
10
153.4349
20
18.9335
0
VERTEX
8
CUT
10
153.4110
20
19.0160
0
VERTEX
8
CUT
10
153.3850
20
19.0979
0
VERTEX
8
CUT
10
153.3571
20
19.1791
0
VERTEX
8
CUT
10
153.3272
20
19.2596
0
VERTEX
8
CUT
10
153.2953
20
19.3394
0
VERTEX
8
CUT
10
153.2614
20
19.4183
0
VERTEX
8
CUT
10
153.2256
20
19.4964
0
VERTEX
8
CUT
10
153.1880
20
19.5736
0
VERTEX
8
CUT
10
153.1484
20
19.6499
0
VERTEX
8
CUT
10
153.1070
20
19.7251
0
VERTEX
8
CUT
10
153.0637
20
19.7994
0
VERTEX
8
CUT
10
153.0187
20
19.8725
0
VERTEX
8
CUT
10
152.9718
20
19.9445
0
VERTEX
8
CUT
10
152.9232
20
20.0153
0
VERTEX
8
CUT
10
152.8729
20
20.0849
0
VERTEX
8
CUT
10
152.8209
20
20.1533
0
VERTEX
8
CUT
10
152.7672
20
20.2204
0
VERTEX
8
CUT
10
152.7119
20
20.2861
0
VERTEX
8
CUT
10
152.6550
20
20.3505
0
VERTEX
8
CUT
10
152.5965
20
20.4134
0
VERTEX
8
CUT
10
152.5366
20
20.4749
0
VERTEX
8
CUT
10
152.4751
20
20.5349
0
VERTEX
8
CUT
10
152.4121
20
20.5933
0
VERTEX
8
CUT
10
152.3478
20
20.6502
0
VERTEX
8
CUT
10
152.2821
20
20.7055
0
VERTEX
8
CUT
10
152.2150
20
20.7592
0
VERTEX
8
CUT
10
152.1466
20
20.8112
0
VERTEX
8
CUT
10
152.0770
20
20.8615
0
VERTEX
8
CUT
10
152.0062
20
20.9101
0
VERTEX
8
CUT
10
151.9342
20
20.9570
0
VERTEX
8
CUT
10
151.8610
20
21.0021
0
VERTEX
8
CUT
10
151.7868
20
21.0453
0
VERTEX
8
CUT
10
151.7116
20
21.0867
0
VERTEX
8
CUT
10
151.6353
20
21.1263
0
VERTEX
8
CUT
10
151.5581
20
21.1640
0
VERTEX
8
CUT
10
151.4800
20
21.1997
0
VERTEX
8
CUT
10
151.4011
20
21.2336
0
VERTEX
8
CUT
10
151.3213
20
21.2655
0
VERTEX
8
CUT
10
151.2408
20
21.2954
0
VERTEX
8
CUT
10
151.1596
20
21.3233
0
VERTEX
8
CUT
10
151.0777
20
21.3493
0
VERTEX
8
CUT
10
150.9952
20
21.3732
0
VERTEX
8
CUT
10
150.9121
20
21.3951
0
VERTEX
8
CUT
10
150.8285
20
21.4150
0
VERTEX
8
CUT
10
150.7445
20
21.4327
0
VERTEX
8
CUT
10
150.6600
20
21.4485
0
VERTEX
8
CUT
10
150.5752
20
21.4621
0
VERTEX
8
CUT
10
150.4901
20
21.4737
0
VERTEX
8
CUT
10
150.4047
20
21.4831
0
VERTEX
8
CUT
10
150.3192
20
21.4905
0
VERTEX
8
CUT
10
150.2334
20
21.4958
0
VERTEX
8
CUT
10
150.1476
20
21.4989
0
VERTEX
8
CUT
10
150.0617
20
21.5000
0
VERTEX
8
CUT
10
149.9758
20
21.4989
0
VERTEX
8
CUT
10
149.8899
20
21.4958
0
VERTEX
8
CUT
10
149.8042
20
21.4905
0
VERTEX
8
CUT
10
149.7186
20
21.4831
0
VERTEX
8
CUT
10
149.6332
20
21.4737
0
VERTEX
8
CUT
10
149.5481
20
21.4621
0
VERTEX
8
CUT
10
149.4633
20
21.4485
0
VERTEX
8
CUT
10
149.3789
20
21.4327
0
VERTEX
8
CUT
10
149.2948
20
21.4150
0
VERTEX
8
CUT
10
149.2113
20
21.3951
0
VERTEX
8
CUT
10
149.1282
20
21.3732
0
VERTEX
8
CUT
10
149.0457
20
21.3493
0
VERTEX
8
CUT
10
148.9638
20
21.3233
0
VERTEX
8
CUT
10
148.8826
20
21.2954
0
VERTEX
8
CUT
10
148.8021
20
21.2655
0
VERTEX
8
CUT
10
148.7223
20
21.2336
0
VERTEX
8
CUT
10
148.6433
20
21.1997
0
VERTEX
8
CUT
10
148.5652
20
21.1640
0
VERTEX
8
CUT
10
148.4880
20
21.1263
0
VERTEX
8
CUT
10
148.4118
20
21.0867
0
VERTEX
8
CUT
10
148.3365
20
21.0453
0
VERTEX
8
CUT
10
148.2623
20
21.0021
0
VERTEX
8
CUT
10
148.1892
20
20.9570
0
VERTEX
8
CUT
10
148.1172
20
20.9101
0
VERTEX
8
CUT
10
148.0464
20
20.8615
0
VERTEX
8
CUT
10
147.9767
20
20.8112
0
VERTEX
8
CUT
10
147.9084
20
20.7592
0
VERTEX
8
CUT
10
147.8413
20
20.7055
0
VERTEX
8
CUT
10
147.7756
20
20.6502
0
VERTEX
8
CUT
10
147.7112
20
20.5933
0
VERTEX
8
CUT
10
147.6483
20
20.5349
0
VERTEX
8
CUT
10
147.5868
20
20.4749
0
VERTEX
8
CUT
10
147.5268
20
20.4134
0
VERTEX
8
CUT
10
147.4684
20
20.3505
0
VERTEX
8
CUT
10
147.4115
20
20.2861
0
VERTEX
8
CUT
10
147.3561
20
20.2204
0
VERTEX
8
CUT
10
147.3025
20
20.1533
0
VERTEX
8
CUT
10
147.2505
20
20.0849
0
VERTEX
8
CUT
10
147.2001
20
20.0153
0
VERTEX
8
CUT
10
147.1515
20
19.9445
0
VERTEX
8
CUT
10
147.1047
20
19.8725
0
VERTEX
8
CUT
10
147.0596
20
19.7994
0
VERTEX
8
CUT
10
147.0164
20
19.7251
0
VERTEX
8
CUT
10
146.9750
20
19.6499
0
VERTEX
8
CUT
10
146.9354
20
19.5736
0
VERTEX
8
CUT
10
146.8977
20
19.4964
0
VERTEX
8
CUT
10
146.8619
20
19.4183
0
VERTEX
8
CUT
10
146.8281
20
19.3394
0
VERTEX
8
CUT
10
146.7962
20
19.2596
0
VERTEX
8
CUT
10
146.7663
20
19.1791
0
VERTEX
8
CUT
10
146.7383
20
19.0979
0
VERTEX
8
CUT
10
146.7124
20
19.0160
0
VERTEX
8
CUT
10
146.6885
20
18.9335
0
VERTEX
8
CUT
10
146.6666
20
18.8504
0
VERTEX
8
CUT
10
146.6467
20
18.7669
0
VERTEX
8
CUT
10
146.6289
20
18.6828
0
VERTEX
8
CUT
10
146.6132
20
18.5984
0
VERTEX
8
CUT
10
146.5996
20
18.5136
0
VERTEX
8
CUT
10
146.5880
20
18.4284
0
VERTEX
8
CUT
10
146.5785
20
18.3431
0
VERTEX
8
CUT
10
146.5712
20
18.2575
0
VERTEX
8
CUT
10
146.5659
20
18.1717
0
VERTEX
8
CUT
10
146.5627
20
18.0859
0
VERTEX
8
CUT
10
146.5617
20
18.0000
0
VERTEX
8
CUT
10
146.5627
20
17.9141
0
VERTEX
8
CUT
10
146.5659
20
17.8283
0
VERTEX
8
CUT
10
146.5712
20
17.7425
0
VERTEX
8
CUT
10
146.5785
20
17.6569
0
VERTEX
8
CUT
10
146.5880
20
17.5716
0
VERTEX
8
CUT
10
146.5996
20
17.4864
0
VERTEX
8
CUT
10
146.6132
20
17.4016
0
VERTEX
8
CUT
10
146.6289
20
17.3172
0
VERTEX
8
CUT
10
146.6467
20
17.2331
0
VERTEX
8
CUT
10
146.6666
20
17.1496
0
VERTEX
8
CUT
10
146.6885
20
17.0665
0
VERTEX
8
CUT
10
146.7124
20
16.9840
0
VERTEX
8
CUT
10
146.7383
20
16.9021
0
VERTEX
8
CUT
10
146.7663
20
16.8209
0
VERTEX
8
CUT
10
146.7962
20
16.7404
0
VERTEX
8
CUT
10
146.8281
20
16.6606
0
VERTEX
8
CUT
10
146.8619
20
16.5817
0
VERTEX
8
CUT
10
146.8977
20
16.5036
0
VERTEX
8
CUT
10
146.9354
20
16.4264
0
VERTEX
8
CUT
10
146.9750
20
16.3501
0
VERTEX
8
CUT
10
147.0164
20
16.2749
0
VERTEX
8
CUT
10
147.0596
20
16.2006
0
VERTEX
8
CUT
10
147.1047
20
16.1275
0
VERTEX
8
CUT
10
147.1515
20
16.0555
0
VERTEX
8
CUT
10
147.2001
20
15.9847
0
VERTEX
8
CUT
10
147.2505
20
15.9151
0
VERTEX
8
CUT
10
147.3025
20
15.8467
0
VERTEX
8
CUT
10
147.3561
20
15.7796
0
VERTEX
8
CUT
10
147.4115
20
15.7139
0
VERTEX
8
CUT
10
147.4684
20
15.6495
0
VERTEX
8
CUT
10
147.5268
20
15.5866
0
VERTEX
8
CUT
10
147.5868
20
15.5251
0
VERTEX
8
CUT
10
147.6483
20
15.4651
0
VERTEX
8
CUT
10
147.7112
20
15.4067
0
VERTEX
8
CUT
10
147.7756
20
15.3498
0
VERTEX
8
CUT
10
147.8413
20
15.2945
0
VERTEX
8
CUT
10
147.9084
20
15.2408
0
VERTEX
8
CUT
10
147.9767
20
15.1888
0
VERTEX
8
CUT
10
148.0464
20
15.1385
0
VERTEX
8
CUT
10
148.1172
20
15.0899
0
VERTEX
8
CUT
10
148.1892
20
15.0430
0
VERTEX
8
CUT
10
148.2623
20
14.9979
0
VERTEX
8
CUT
10
148.3117
20
14.9692
0
VERTEX
8
CUT
10
148.3117
20
8.0000
0
VERTEX
8
CUT
10
148.3138
20
7.9141
0
VERTEX
8
CUT
10
148.3201
20
7.8285
0
VERTEX
8
CUT
10
148.3306
20
7.7432
0
VERTEX
8
CUT
10
148.3453
20
7.6586
0
VERTEX
8
CUT
10
148.3641
20
7.5748
0
VERTEX
8
CUT
10
148.3870
20
7.4920
0
VERTEX
8
CUT
10
148.4140
20
7.4104
0
VERTEX
8
CUT
10
148.4449
20
7.3303
0
VERTEX
8
CUT
10
148.4797
20
7.2518
0
VERTEX
8
CUT
10
148.5183
20
7.1751
0
VERTEX
8
CUT
10
148.5607
20
7.1003
0
VERTEX
8
CUT
10
148.6066
20
7.0278
0
VERTEX
8
CUT
10
148.6561
20
6.9575
0
VERTEX
8
CUT
10
148.7089
20
6.8898
0
VERTEX
8
CUT
10
148.7650
20
6.8248
0
VERTEX
8
CUT
10
148.8242
20
6.7626
0
VERTEX
8
CUT
10
148.8865
20
6.7033
0
VERTEX
8
CUT
10
148.9515
20
6.6472
0
VERTEX
8
CUT
10
149.0192
20
6.5944
0
VERTEX
8
CUT
10
149.0894
20
6.5449
0
VERTEX
8
CUT
10
149.1620
20
6.4990
0
VERTEX
8
CUT
10
149.2367
20
6.4566
0
VERTEX
8
CUT
10
149.3135
20
6.4180
0
VERTEX
8
CUT
10
149.3920
20
6.3832
0
VERTEX
8
CUT
10
149.4721
20
6.3523
0
VERTEX
8
CUT
10
149.5537
20
6.3254
0
VERTEX
8
CUT
10
149.6365
20
6.3024
0
VERTEX
8
CUT
10
149.7203
20
6.2836
0
VERTEX
8
CUT
10
149.8049
20
6.2689
0
VERTEX
8
CUT
10
149.8902
20
6.2584
0
VERTEX
8
CUT
10
149.9758
20
6.2521
0
VERTEX
8
CUT
10
150.0617
20
6.2500
0
VERTEX
8
CUT
10
150.1476
20
6.2521
0
VERTEX
8
CUT
10
150.2332
20
6.2584
0
VERTEX
8
CUT
10
150.3185
20
6.2689
0
VERTEX
8
CUT
10
150.4031
20
6.2836
0
VERTEX
8
CUT
10
150.4869
20
6.3024
0
VERTEX
8
CUT
10
150.5697
20
6.3254
0
VERTEX
8
CUT
10
150.6512
20
6.3523
0
VERTEX
8
CUT
10
150.7314
20
6.3832
0
VERTEX
8
CUT
10
150.8099
20
6.4180
0
VERTEX
8
CUT
10
150.8866
20
6.4566
0
VERTEX
8
CUT
10
150.9614
20
6.4990
0
VERTEX
8
CUT
10
151.0339
20
6.5449
0
VERTEX
8
CUT
10
151.1042
20
6.5944
0
VERTEX
8
CUT
10
151.1719
20
6.6472
0
VERTEX
8
CUT
10
151.2369
20
6.7033
0
VERTEX
8
CUT
10
151.2991
20
6.7626
0
VERTEX
8
CUT
10
151.3583
20
6.8248
0
VERTEX
8
CUT
10
151.4145
20
6.8898
0
VERTEX
8
CUT
10
151.4673
20
6.9575
0
VERTEX
8
CUT
10
151.5168
20
7.0278
0
VERTEX
8
CUT
10
151.5627
20
7.1003
0
VERTEX
8
CUT
10
151.6050
20
7.1751
0
VERTEX
8
CUT
10
151.6437
20
7.2518
0
VERTEX
8
CUT
10
151.6785
20
7.3303
0
VERTEX
8
CUT
10
151.7094
20
7.4104
0
VERTEX
8
CUT
10
151.7363
20
7.4920
0
VERTEX
8
CUT
10
151.7592
20
7.5748
0
VERTEX
8
CUT
10
151.7781
20
7.6586
0
VERTEX
8
CUT
10
151.7927
20
7.7432
0
VERTEX
8
CUT
10
151.8033
20
7.8285
0
VERTEX
8
CUT
10
151.8096
20
7.9141
0
SEQEND
0
ENDSEC
0
EOF
