<svg xmlns="http://www.w3.org/2000/svg" width="300.0mm" height="300.0mm" viewBox="0 0 300.0 300.0">
  <path d="M -0.050 299.579 L -0.036 299.636 L -0.016 299.692 L 0.009 299.745 L 0.039 299.795 L 0.074 299.843 L 0.114 299.886 L 0.157 299.926 L 0.205 299.961 L 0.255 299.991 L 0.308 300.016 L 0.364 300.036 L 0.421 300.050 L 0.479 300.059 L 0.552 300.062 L 1.437 300.062 L 298.554 300.063 L 299.439 300.063 L 299.513 300.059 L 299.571 300.050 L 299.628 300.036 L 299.683 300.016 L 299.736 299.991 L 299.787 299.961 L 299.834 299.926 L 299.878 299.886 L 299.917 299.843 L 299.952 299.795 L 299.982 299.745 L 300.008 299.692 L 300.027 299.636 L 300.042 299.579 L 300.050 299.521 L 300.054 299.448 L 300.054 298.563 L 300.054 1.437 L 300.054 0.552 L 300.050 0.479 L 300.042 0.421 L 300.027 0.364 L 300.008 0.308 L 299.982 0.255 L 299.952 0.205 L 299.917 0.157 L 299.878 0.114 L 299.834 0.074 L 299.787 0.039 L 299.736 0.009 L 299.683 -0.016 L 299.628 -0.036 L 299.571 -0.050 L 299.513 -0.059 L 299.439 -0.062 L 298.554 -0.062 L 1.437 -0.063 L 0.552 -0.063 L 0.479 -0.059 L 0.421 -0.050 L 0.364 -0.036 L 0.308 -0.016 L 0.255 0.009 L 0.205 0.039 L 0.157 0.074 L 0.114 0.114 L 0.074 0.157 L 0.039 0.205 L 0.009 0.255 L -0.016 0.308 L -0.036 0.364 L -0.050 0.421 L -0.059 0.479 L -0.062 0.552 L -0.062 1.437 L -0.063 298.563 L -0.062 298.563 L -0.062 299.448 L -0.059 299.521 Z M 266.413 65.183 L 266.411 65.155 L 266.409 65.101 L 266.409 65.087 L 266.407 64.997 L 266.407 64.984 L 266.412 64.434 L 266.413 64.419 L 266.416 64.322 L 266.417 64.307 L 266.420 64.249 L 266.423 64.219 L 266.444 64.025 L 266.448 63.996 L 266.457 63.938 L 266.460 63.923 L 266.478 63.827 L 266.481 63.813 L 266.634 63.092 L 266.637 63.077 L 266.660 62.980 L 266.664 62.965 L 266.679 62.907 L 266.688 62.878 L 266.749 62.688 L 266.759 62.659 L 266.781 62.603 L 266.786 62.589 L 266.824 62.496 L 266.830 62.482 L 267.098 61.872 L 267.104 61.859 L 267.145 61.772 L 267.151 61.759 L 267.177 61.708 L 267.191 61.682 L 267.284 61.515 L 267.299 61.490 L 267.330 61.441 L 267.338 61.429 L 267.391 61.349 L 267.399 61.337 L 267.786 60.783 L 267.795 60.771 L 267.854 60.690 L 267.864 60.678 L 267.901 60.631 L 267.920 60.607 L 268.051 60.456 L 268.071 60.433 L 268.113 60.389 L 268.124 60.378 L 268.195 60.308 L 268.206 60.297 L 268.862 59.680 L 268.873 59.670 L 268.944 59.606 L 268.955 59.596 L 268.999 59.558 L 269.022 59.540 L 269.174 59.423 L 269.198 59.405 L 269.246 59.372 L 269.258 59.364 L 269.338 59.311 L 269.350 59.303 L 269.934 58.938 L 269.947 58.931 L 270.028 58.883 L 270.041 58.875 L 270.090 58.848 L 270.116 58.834 L 270.286 58.750 L 270.312 58.737 L 270.364 58.715 L 270.378 58.709 L 270.465 58.673 L 270.479 58.668 L 271.348 58.337 L 271.362 58.332 L 271.452 58.300 L 271.466 58.295 L 271.520 58.277 L 271.548 58.269 L 271.733 58.219 L 271.761 58.212 L 271.817 58.199 L 271.832 58.196 L 271.925 58.178 L 271.940 58.175 L 272.633 58.058 L 272.647 58.056 L 272.737 58.043 L 272.751 58.041 L 272.805 58.034 L 272.833 58.031 L 273.014 58.018 L 273.042 58.016 L 273.097 58.015 L 273.111 58.015 L 273.201 58.014 L 273.215 58.014 L 273.951 58.028 L 273.965 58.028 L 274.060 58.032 L 274.075 58.033 L 274.131 58.037 L 274.160 58.040 L 274.348 58.061 L 274.377 58.066 L 274.433 58.075 L 274.448 58.077 L 274.541 58.095 L 274.555 58.098 L 275.278 58.254 L 275.293 58.258 L 275.385 58.280 L 275.399 58.283 L 275.454 58.298 L 275.482 58.306 L 275.662 58.364 L 275.690 58.374 L 275.743 58.394 L 275.757 58.399 L 275.844 58.434 L 275.858 58.440 L 276.375 58.663 L 276.391 58.670 L 276.489 58.716 L 276.504 58.723 L 276.562 58.752 L 276.591 58.767 L 276.779 58.874 L 276.807 58.892 L 276.862 58.927 L 276.876 58.936 L 276.965 58.997 L 276.978 59.007 L 277.417 59.326 L 277.429 59.335 L 277.504 59.393 L 277.516 59.402 L 277.560 59.437 L 277.582 59.456 L 277.722 59.581 L 277.764 59.621 L 277.891 59.759 L 277.911 59.781 L 277.947 59.824 L 277.957 59.836 L 278.016 59.910 L 278.025 59.921 L 279.057 61.280 L 279.065 61.291 L 279.115 61.359 L 279.122 61.370 L 279.151 61.412 L 279.166 61.434 L 279.255 61.575 L 279.281 61.620 L 279.357 61.768 L 279.369 61.792 L 279.390 61.838 L 279.395 61.850 L 279.429 61.928 L 279.434 61.940 L 279.708 62.609 L 279.713 62.621 L 279.745 62.703 L 279.750 62.716 L 279.767 62.766 L 279.776 62.791 L 279.828 62.959 L 279.835 62.985 L 279.848 63.036 L 279.852 63.049 L 279.872 63.135 L 279.875 63.148 L 280.040 63.927 L 280.043 63.941 L 280.060 64.033 L 280.062 64.047 L 280.071 64.102 L 280.075 64.130 L 280.096 64.315 L 280.099 64.343 L 280.102 64.399 L 280.103 64.413 L 280.107 64.506 L 280.108 64.521 L 280.120 65.238 L 280.121 65.254 L 280.120 65.358 L 280.119 65.374 L 280.117 65.437 L 280.115 65.468 L 280.097 65.675 L 280.093 65.707 L 280.084 65.769 L 280.082 65.784 L 280.065 65.887 L 280.062 65.902 L 279.941 66.515 L 279.937 66.532 L 279.912 66.641 L 279.908 66.658 L 279.891 66.723 L 279.882 66.757 L 279.813 66.970 L 279.802 67.003 L 279.777 67.066 L 279.771 67.082 L 279.727 67.186 L 279.721 67.201 L 279.572 67.529 L 279.566 67.541 L 279.528 67.621 L 279.522 67.633 L 279.498 67.680 L 279.485 67.704 L 279.399 67.856 L 279.370 67.902 L 279.271 68.045 L 279.255 68.067 L 279.223 68.109 L 279.214 68.120 L 279.159 68.189 L 279.150 68.200 L 278.660 68.784 L 278.654 68.792 L 278.606 68.847 L 278.599 68.855 L 278.567 68.891 L 278.551 68.908 L 278.451 69.010 L 278.436 69.026 L 278.408 69.052 L 278.401 69.059 L 278.348 69.108 L 278.339 69.116 L 277.212 70.117 L 277.196 70.130 L 277.091 70.217 L 277.075 70.230 L 276.940 70.334 L 276.923 70.347 L 276.812 70.426 L 276.795 70.438 L 275.983 70.977 L 275.972 70.984 L 275.899 71.031 L 275.887 71.038 L 275.843 71.065 L 275.819 71.078 L 275.669 71.160 L 275.621 71.183 L 275.463 71.251 L 275.439 71.261 L 275.390 71.280 L 275.377 71.284 L 275.295 71.313 L 275.283 71.318 L 274.938 71.431 L 274.923 71.436 L 274.823 71.466 L 274.808 71.471 L 274.748 71.487 L 274.716 71.495 L 274.513 71.538 L 274.481 71.544 L 274.420 71.554 L 274.404 71.557 L 274.301 71.570 L 274.285 71.572 L 273.873 71.616 L 273.860 71.617 L 273.774 71.624 L 273.761 71.625 L 273.709 71.628 L 273.682 71.629 L 273.512 71.632 L 273.459 71.631 L 273.288 71.618 L 273.262 71.616 L 273.210 71.610 L 273.197 71.608 L 273.112 71.596 L 273.098 71.594 L 271.656 71.360 L 271.643 71.358 L 271.558 71.342 L 271.545 71.340 L 271.494 71.329 L 271.468 71.323 L 271.302 71.281 L 271.251 71.265 L 271.090 71.209 L 271.065 71.199 L 271.017 71.180 L 271.004 71.175 L 270.925 71.140 L 270.912 71.135 L 270.266 70.841 L 270.253 70.835 L 270.169 70.794 L 270.156 70.787 L 270.106 70.762 L 270.081 70.748 L 269.919 70.655 L 269.895 70.640 L 269.848 70.609 L 269.836 70.601 L 269.758 70.549 L 269.746 70.541 L 269.087 70.071 L 269.075 70.062 L 269.002 70.007 L 268.991 69.999 L 268.947 69.965 L 268.926 69.947 L 268.787 69.827 L 268.766 69.808 L 268.726 69.770 L 268.716 69.760 L 268.651 69.695 L 268.641 69.685 L 268.071 69.090 L 268.062 69.079 L 267.999 69.011 L 267.989 69.000 L 267.952 68.958 L 267.934 68.936 L 267.819 68.789 L 267.802 68.766 L 267.769 68.721 L 267.761 68.709 L 267.709 68.632 L 267.701 68.620 L 267.283 67.972 L 267.275 67.959 L 267.224 67.875 L 267.217 67.862 L 267.187 67.811 L 267.173 67.785 L 267.084 67.610 L 267.071 67.583 L 267.047 67.529 L 267.041 67.515 L 267.003 67.425 L 266.997 67.411 L 266.716 66.688 L 266.711 66.674 L 266.678 66.585 L 266.673 66.571 L 266.655 66.516 L 266.647 66.488 L 266.595 66.305 L 266.588 66.276 L 266.575 66.220 L 266.572 66.206 L 266.553 66.112 L 266.550 66.098 L 266.455 65.560 L 266.453 65.546 L 266.439 65.457 L 266.437 65.443 L 266.430 65.390 L 266.427 65.362 Z M 181.565 79.280 L 181.574 79.221 L 181.614 79.038 L 181.630 78.980 L 181.687 78.801 L 181.708 78.746 L 181.783 78.573 L 181.810 78.520 L 181.901 78.356 L 181.933 78.306 L 182.040 78.152 L 182.077 78.105 L 182.199 77.962 L 182.240 77.919 L 182.376 77.789 L 182.420 77.750 L 182.568 77.634 L 182.617 77.600 L 182.776 77.499 L 182.827 77.470 L 182.997 77.384 L 183.024 77.372 L 183.077 77.348 L 183.091 77.342 L 183.180 77.305 L 183.194 77.300 L 183.887 77.033 L 183.896 77.030 L 183.911 77.024 L 183.935 77.014 L 183.967 77.000 L 183.996 76.987 L 184.018 76.977 L 184.031 76.971 L 184.035 76.968 L 184.062 76.954 L 184.122 76.922 L 184.158 76.902 L 184.169 76.895 L 184.178 76.890 L 185.948 75.810 L 185.961 75.801 L 185.992 75.782 L 186.006 75.773 L 186.022 75.763 L 186.035 75.754 L 186.065 75.733 L 186.078 75.724 L 186.093 75.713 L 186.105 75.704 L 186.135 75.682 L 186.148 75.673 L 186.163 75.661 L 186.175 75.652 L 186.204 75.629 L 186.216 75.619 L 188.049 74.112 L 188.058 74.105 L 188.079 74.087 L 188.088 74.080 L 188.098 74.070 L 188.107 74.062 L 188.128 74.044 L 188.136 74.036 L 188.146 74.027 L 188.155 74.019 L 188.175 74.001 L 188.184 73.992 L 188.194 73.983 L 188.202 73.974 L 188.222 73.955 L 188.230 73.947 L 189.858 72.295 L 189.865 72.288 L 189.880 72.273 L 189.886 72.266 L 189.894 72.258 L 189.900 72.251 L 189.915 72.235 L 189.921 72.228 L 189.929 72.221 L 189.935 72.214 L 189.949 72.197 L 189.955 72.190 L 189.963 72.182 L 189.969 72.175 L 189.983 72.158 L 189.989 72.151 L 191.986 69.761 L 191.990 69.755 L 192.000 69.743 L 192.005 69.737 L 192.015 69.724 L 192.021 69.718 L 192.033 69.702 L 192.038 69.695 L 192.045 69.687 L 192.050 69.680 L 192.062 69.664 L 192.067 69.658 L 192.070 69.654 L 192.076 69.646 L 192.090 69.627 L 192.096 69.619 L 197.257 62.380 L 197.261 62.375 L 197.288 62.338 L 197.292 62.333 L 197.326 62.287 L 197.330 62.282 L 197.357 62.246 L 197.362 62.241 L 199.710 59.250 L 199.719 59.239 L 199.775 59.171 L 199.784 59.160 L 199.856 59.076 L 199.865 59.066 L 199.924 59.000 L 199.934 58.990 L 201.829 56.982 L 201.843 56.968 L 201.935 56.877 L 201.949 56.863 L 202.068 56.752 L 202.083 56.739 L 202.181 56.654 L 202.196 56.642 L 204.078 55.115 L 204.088 55.106 L 204.155 55.054 L 204.166 55.047 L 204.207 55.016 L 204.228 55.001 L 204.368 54.906 L 204.390 54.892 L 204.433 54.866 L 204.445 54.859 L 204.518 54.816 L 204.529 54.810 L 206.516 53.704 L 206.528 53.697 L 206.604 53.657 L 206.616 53.651 L 206.662 53.628 L 206.686 53.617 L 206.841 53.548 L 206.890 53.528 L 207.050 53.473 L 207.075 53.465 L 207.125 53.451 L 207.137 53.447 L 207.220 53.424 L 207.233 53.421 L 209.005 52.981 L 209.018 52.978 L 209.106 52.958 L 209.119 52.955 L 209.172 52.945 L 209.199 52.940 L 209.373 52.913 L 209.428 52.908 L 209.604 52.897 L 209.631 52.896 L 209.685 52.895 L 209.699 52.895 L 209.788 52.896 L 209.802 52.896 L 210.303 52.912 L 210.319 52.913 L 210.419 52.919 L 210.435 52.920 L 210.495 52.925 L 210.525 52.928 L 210.724 52.955 L 210.755 52.960 L 210.814 52.971 L 210.829 52.974 L 210.928 52.995 L 210.943 52.999 L 211.223 53.067 L 211.237 53.070 L 211.329 53.095 L 211.343 53.099 L 211.397 53.115 L 211.425 53.124 L 211.602 53.186 L 211.656 53.207 L 211.826 53.286 L 211.852 53.299 L 211.903 53.325 L 211.916 53.332 L 211.999 53.378 L 212.012 53.385 L 213.115 54.032 L 213.126 54.039 L 213.200 54.084 L 213.211 54.091 L 213.254 54.119 L 213.276 54.134 L 213.414 54.232 L 213.456 54.265 L 213.584 54.374 L 213.622 54.410 L 213.741 54.531 L 213.759 54.550 L 213.794 54.589 L 213.803 54.599 L 213.859 54.664 L 213.867 54.674 L 214.743 55.740 L 214.752 55.752 L 214.812 55.828 L 214.820 55.840 L 214.855 55.886 L 214.872 55.910 L 214.977 56.068 L 215.008 56.119 L 215.097 56.286 L 215.110 56.312 L 215.135 56.365 L 215.141 56.378 L 215.180 56.466 L 215.186 56.480 L 215.903 58.215 L 215.909 58.231 L 215.946 58.329 L 215.952 58.344 L 215.973 58.404 L 215.983 58.435 L 216.042 58.638 L 216.050 58.669 L 216.064 58.731 L 216.068 58.747 L 216.089 58.850 L 216.092 58.866 L 216.543 61.415 L 216.545 61.426 L 216.556 61.501 L 216.558 61.512 L 216.565 61.561 L 216.568 61.585 L 216.582 61.733 L 216.584 61.756 L 216.587 61.796 L 216.587 61.807 L 216.590 61.881 L 216.591 61.893 L 216.664 65.279 L 216.664 65.293 L 216.664 65.387 L 216.664 65.401 L 216.661 65.518 L 216.660 65.533 L 216.656 65.626 L 216.655 65.640 L 216.429 68.667 L 216.428 68.681 L 216.419 68.775 L 216.417 68.789 L 216.403 68.906 L 216.401 68.920 L 216.387 69.013 L 216.385 69.027 L 215.894 71.878 L 215.892 71.891 L 215.875 71.978 L 215.872 71.991 L 215.848 72.100 L 215.845 72.113 L 215.824 72.199 L 215.821 72.213 L 212.516 84.572 L 212.514 84.578 L 212.511 84.591 L 212.509 84.597 L 212.506 84.610 L 212.504 84.617 L 212.500 84.633 L 212.499 84.640 L 212.497 84.648 L 212.495 84.655 L 212.491 84.671 L 212.490 84.678 L 212.489 84.681 L 212.487 84.689 L 212.483 84.708 L 212.482 84.717 L 211.694 88.633 L 211.692 88.646 L 211.686 88.676 L 211.684 88.690 L 211.681 88.705 L 211.679 88.719 L 211.674 88.749 L 211.672 88.762 L 211.670 88.777 L 211.668 88.791 L 211.664 88.821 L 211.663 88.835 L 211.661 88.851 L 211.660 88.864 L 211.657 88.895 L 211.656 88.908 L 211.432 91.694 L 211.431 91.700 L 211.430 91.716 L 211.430 91.723 L 211.429 91.739 L 211.428 91.748 L 211.427 91.767 L 211.427 91.776 L 211.426 91.785 L 211.426 91.794 L 211.425 91.814 L 211.425 91.822 L 211.425 91.826 L 211.425 91.836 L 211.424 91.860 L 211.424 91.870 L 211.401 96.242 L 211.401 96.247 L 211.401 96.260 L 211.401 96.265 L 211.401 96.278 L 211.401 96.285 L 211.401 96.300 L 211.401 96.307 L 211.401 96.314 L 211.402 96.321 L 211.402 96.336 L 211.402 96.342 L 211.403 96.355 L 211.404 96.372 L 211.404 96.380 L 211.512 98.411 L 211.513 98.425 L 211.516 98.458 L 211.517 98.472 L 211.518 98.489 L 211.519 98.503 L 211.523 98.536 L 211.524 98.550 L 211.526 98.566 L 211.528 98.580 L 211.532 98.612 L 211.534 98.626 L 211.537 98.643 L 211.539 98.657 L 211.544 98.690 L 211.546 98.704 L 211.827 100.256 L 211.829 100.268 L 211.835 100.297 L 211.837 100.310 L 211.840 100.325 L 211.843 100.337 L 211.849 100.365 L 211.852 100.378 L 211.856 100.392 L 211.859 100.404 L 211.866 100.432 L 211.869 100.444 L 211.873 100.459 L 211.876 100.471 L 211.884 100.500 L 211.888 100.512 L 212.680 103.163 L 212.684 103.177 L 212.709 103.268 L 212.713 103.282 L 212.726 103.337 L 212.732 103.365 L 212.768 103.548 L 212.776 103.605 L 212.794 103.787 L 212.797 103.845 L 212.797 104.028 L 212.794 104.086 L 212.777 104.268 L 212.769 104.326 L 212.733 104.506 L 212.720 104.562 L 212.667 104.737 L 212.648 104.792 L 212.579 104.962 L 212.555 105.014 L 212.470 105.176 L 212.441 105.226 L 212.341 105.380 L 212.307 105.427 L 212.192 105.570 L 212.154 105.613 L 212.026 105.744 L 211.984 105.784 L 211.844 105.902 L 211.798 105.937 L 211.647 106.041 L 211.598 106.072 L 211.438 106.161 L 211.386 106.187 L 211.218 106.260 L 211.164 106.281 L 210.990 106.338 L 210.934 106.353 L 210.756 106.393 L 210.698 106.403 L 210.517 106.425 L 210.459 106.430 L 210.276 106.434 L 210.218 106.433 L 210.035 106.420 L 209.978 106.413 L 209.797 106.383 L 209.741 106.371 L 209.564 106.323 L 209.509 106.305 L 209.337 106.240 L 209.284 106.217 L 209.120 106.137 L 209.069 106.109 L 208.913 106.012 L 208.865 105.980 L 208.720 105.869 L 208.675 105.831 L 208.541 105.707 L 208.500 105.666 L 208.379 105.529 L 208.342 105.484 L 208.233 105.334 L 208.216 105.310 L 208.185 105.263 L 208.177 105.251 L 208.127 105.171 L 208.120 105.159 L 203.293 97.004 L 203.286 96.993 L 203.269 96.966 L 203.262 96.955 L 203.254 96.941 L 203.246 96.929 L 203.229 96.903 L 203.222 96.892 L 203.213 96.879 L 203.205 96.868 L 203.187 96.842 L 203.180 96.831 L 203.170 96.818 L 203.162 96.807 L 203.143 96.782 L 203.135 96.771 L 201.409 94.519 L 201.401 94.509 L 201.383 94.486 L 201.375 94.476 L 201.365 94.464 L 201.357 94.454 L 201.338 94.432 L 201.330 94.422 L 201.321 94.411 L 201.313 94.402 L 201.293 94.380 L 201.285 94.370 L 201.274 94.359 L 201.266 94.350 L 201.246 94.328 L 201.237 94.319 L 198.998 91.991 L 198.993 91.986 L 198.982 91.975 L 198.978 91.970 L 198.966 91.959 L 198.960 91.953 L 198.947 91.940 L 198.941 91.934 L 198.934 91.927 L 198.928 91.921 L 198.914 91.908 L 198.908 91.902 L 198.905 91.899 L 198.898 91.893 L 198.881 91.877 L 198.874 91.871 L 196.499 89.739 L 196.489 89.731 L 196.467 89.712 L 196.458 89.704 L 196.447 89.694 L 196.437 89.686 L 196.415 89.668 L 196.405 89.660 L 196.394 89.651 L 196.385 89.643 L 196.362 89.626 L 196.352 89.618 L 196.340 89.609 L 196.330 89.602 L 196.307 89.584 L 196.297 89.577 L 193.829 87.810 L 193.817 87.801 L 193.790 87.782 L 193.778 87.774 L 193.764 87.765 L 193.752 87.757 L 193.724 87.739 L 193.712 87.731 L 193.698 87.723 L 193.686 87.715 L 193.658 87.698 L 193.646 87.691 L 193.631 87.682 L 193.618 87.675 L 193.589 87.659 L 193.577 87.652 L 182.900 81.886 L 182.887 81.878 L 182.803 81.830 L 182.791 81.823 L 182.741 81.793 L 182.716 81.777 L 182.558 81.670 L 182.510 81.634 L 182.366 81.514 L 182.322 81.474 L 182.190 81.340 L 182.151 81.296 L 182.033 81.150 L 181.998 81.102 L 181.895 80.945 L 181.865 80.893 L 181.778 80.727 L 181.753 80.673 L 181.683 80.498 L 181.663 80.442 L 181.611 80.262 L 181.597 80.204 L 181.563 80.019 L 181.555 79.960 L 181.539 79.773 L 181.537 79.714 L 181.540 79.526 L 181.544 79.467 Z M 133.718 116.716 L 133.728 116.657 L 133.769 116.475 L 133.785 116.418 L 133.843 116.240 L 133.865 116.185 L 133.940 116.014 L 133.967 115.962 L 134.059 115.799 L 134.091 115.749 L 134.198 115.596 L 134.235 115.550 L 134.359 115.406 L 134.378 115.384 L 134.418 115.343 L 134.429 115.332 L 134.497 115.264 L 134.507 115.254 L 135.632 114.186 L 135.640 114.179 L 135.694 114.129 L 135.702 114.122 L 135.738 114.090 L 135.755 114.075 L 135.866 113.984 L 135.884 113.971 L 135.915 113.947 L 135.923 113.941 L 135.981 113.898 L 135.991 113.892 L 137.574 112.781 L 137.589 112.771 L 137.686 112.707 L 137.702 112.697 L 137.827 112.620 L 137.842 112.611 L 137.944 112.553 L 137.960 112.544 L 139.791 111.564 L 139.807 111.556 L 139.913 111.503 L 139.930 111.495 L 140.064 111.433 L 140.081 111.426 L 140.190 111.380 L 140.207 111.373 L 142.618 110.438 L 142.638 110.430 L 142.768 110.385 L 142.789 110.378 L 142.954 110.327 L 142.975 110.321 L 143.108 110.285 L 143.129 110.280 L 145.124 109.817 L 145.142 109.813 L 145.258 109.790 L 145.276 109.786 L 145.346 109.774 L 145.382 109.769 L 145.618 109.744 L 145.654 109.741 L 145.725 109.738 L 145.744 109.738 L 145.862 109.736 L 145.881 109.736 L 149.589 109.792 L 149.603 109.793 L 149.700 109.797 L 149.714 109.797 L 149.835 109.805 L 149.850 109.806 L 149.946 109.815 L 149.960 109.816 L 153.765 110.252 L 153.779 110.254 L 153.872 110.266 L 153.886 110.269 L 153.942 110.278 L 153.970 110.283 L 154.153 110.322 L 154.181 110.328 L 154.235 110.343 L 154.249 110.347 L 154.339 110.373 L 154.352 110.377 L 154.926 110.558 L 154.940 110.562 L 155.029 110.593 L 155.043 110.598 L 155.096 110.618 L 155.123 110.628 L 155.295 110.702 L 155.348 110.727 L 155.509 110.815 L 155.559 110.846 L 155.711 110.949 L 155.758 110.984 L 155.899 111.102 L 155.942 111.142 L 156.072 111.273 L 156.111 111.316 L 156.227 111.459 L 156.261 111.506 L 156.363 111.659 L 156.393 111.710 L 156.479 111.872 L 156.504 111.925 L 156.574 112.095 L 156.594 112.150 L 156.647 112.326 L 156.661 112.383 L 156.697 112.564 L 156.706 112.621 L 156.724 112.804 L 156.727 112.863 L 156.727 113.047 L 156.725 113.105 L 156.707 113.288 L 156.699 113.346 L 156.664 113.527 L 156.650 113.583 L 156.597 113.760 L 156.578 113.815 L 156.509 113.986 L 156.484 114.038 L 156.399 114.201 L 156.369 114.252 L 156.268 114.406 L 156.234 114.453 L 156.118 114.596 L 156.080 114.640 L 155.951 114.771 L 155.908 114.811 L 155.765 114.931 L 155.742 114.949 L 155.719 114.967 L 155.682 114.996 L 155.618 115.051 L 155.550 115.114 L 155.508 115.159 L 155.447 115.229 L 155.409 115.277 L 155.356 115.353 L 155.323 115.405 L 155.278 115.486 L 155.251 115.541 L 155.214 115.626 L 155.193 115.684 L 155.165 115.772 L 155.150 115.832 L 155.132 115.923 L 155.122 115.984 L 155.113 116.076 L 155.111 116.137 L 155.111 116.230 L 155.116 116.314 L 155.120 116.360 L 155.465 119.530 L 155.466 119.541 L 155.472 119.617 L 155.473 119.628 L 155.477 119.678 L 155.478 119.702 L 155.483 119.851 L 155.483 119.874 L 155.483 119.914 L 155.483 119.925 L 155.481 120.000 L 155.480 120.013 L 155.368 122.486 L 155.367 122.497 L 155.362 122.575 L 155.361 122.587 L 155.357 122.639 L 155.354 122.663 L 155.335 122.817 L 155.331 122.841 L 155.324 122.882 L 155.322 122.893 L 155.308 122.970 L 155.306 122.982 L 154.939 124.743 L 154.931 124.786 L 154.919 124.866 L 154.909 124.953 L 154.906 125.011 L 154.905 125.099 L 154.907 125.157 L 154.915 125.244 L 154.923 125.302 L 154.939 125.389 L 154.952 125.445 L 154.977 125.529 L 154.995 125.585 L 155.028 125.666 L 155.052 125.719 L 155.092 125.797 L 155.122 125.848 L 155.169 125.921 L 155.203 125.969 L 155.258 126.037 L 155.296 126.081 L 155.357 126.144 L 155.400 126.184 L 155.467 126.241 L 155.513 126.276 L 155.585 126.326 L 155.635 126.357 L 155.711 126.400 L 155.764 126.426 L 155.844 126.461 L 155.898 126.482 L 155.982 126.509 L 156.038 126.524 L 156.124 126.543 L 156.181 126.553 L 156.268 126.563 L 156.327 126.567 L 156.414 126.569 L 156.473 126.567 L 156.560 126.561 L 156.618 126.554 L 156.704 126.538 L 156.761 126.526 L 156.846 126.502 L 156.901 126.484 L 156.983 126.452 L 157.036 126.429 L 157.115 126.389 L 157.165 126.361 L 157.240 126.314 L 157.305 126.268 L 157.341 126.242 L 157.364 126.224 L 157.376 126.214 L 157.404 126.191 L 157.416 126.181 L 157.431 126.169 L 157.443 126.159 L 157.470 126.135 L 157.482 126.125 L 157.495 126.113 L 157.507 126.103 L 157.534 126.078 L 157.545 126.067 L 157.559 126.054 L 157.570 126.043 L 157.596 126.018 L 157.607 126.006 L 159.697 123.858 L 159.708 123.847 L 159.732 123.820 L 159.743 123.809 L 159.756 123.795 L 159.766 123.783 L 159.790 123.756 L 159.800 123.745 L 159.811 123.731 L 159.821 123.719 L 159.844 123.691 L 159.854 123.679 L 159.865 123.665 L 159.875 123.652 L 159.897 123.624 L 159.906 123.611 L 161.687 121.191 L 161.695 121.179 L 161.714 121.152 L 161.723 121.141 L 161.732 121.126 L 161.740 121.115 L 161.759 121.087 L 161.766 121.075 L 161.775 121.062 L 161.783 121.050 L 161.800 121.022 L 161.807 121.010 L 161.816 120.995 L 161.824 120.983 L 161.840 120.954 L 161.847 120.942 L 163.464 118.040 L 163.483 118.005 L 163.516 117.940 L 163.548 117.867 L 163.567 117.818 L 163.593 117.742 L 163.608 117.692 L 163.628 117.614 L 163.638 117.562 L 163.650 117.484 L 163.658 117.411 L 163.662 117.372 L 163.674 117.181 L 163.681 117.124 L 163.710 116.944 L 163.722 116.888 L 163.769 116.712 L 163.786 116.657 L 163.849 116.487 L 163.871 116.434 L 163.950 116.270 L 163.978 116.220 L 164.072 116.065 L 164.104 116.017 L 164.213 115.871 L 164.249 115.827 L 164.371 115.692 L 164.412 115.652 L 164.507 115.565 L 164.537 115.537 L 164.590 115.484 L 164.646 115.423 L 164.681 115.381 L 164.731 115.315 L 164.762 115.270 L 164.806 115.200 L 164.833 115.152 L 164.870 115.079 L 164.900 115.010 L 164.916 114.972 L 165.097 114.513 L 165.141 114.400 L 165.146 114.387 L 165.167 114.337 L 165.178 114.312 L 165.255 114.151 L 165.281 114.102 L 165.371 113.950 L 165.402 113.904 L 165.505 113.761 L 165.540 113.718 L 165.656 113.585 L 165.695 113.545 L 165.823 113.424 L 165.865 113.388 L 165.945 113.325 L 165.980 113.297 L 166.041 113.244 L 166.105 113.183 L 166.146 113.140 L 166.203 113.073 L 166.239 113.027 L 166.290 112.955 L 166.322 112.905 L 166.365 112.828 L 166.391 112.775 L 166.427 112.694 L 166.448 112.639 L 166.476 112.555 L 166.491 112.498 L 166.511 112.412 L 166.521 112.354 L 166.531 112.266 L 166.535 112.207 L 166.537 112.119 L 166.536 112.060 L 166.529 111.972 L 166.522 111.913 L 166.506 111.826 L 166.493 111.769 L 166.469 111.684 L 166.451 111.628 L 166.419 111.545 L 166.395 111.492 L 166.355 111.413 L 166.325 111.362 L 166.278 111.287 L 166.244 111.239 L 166.189 111.169 L 166.150 111.125 L 166.089 111.061 L 166.046 111.021 L 165.979 110.963 L 165.933 110.927 L 165.860 110.877 L 165.791 110.833 L 165.753 110.811 L 158.975 107.010 L 158.962 107.003 L 158.881 106.954 L 158.868 106.947 L 158.820 106.916 L 158.796 106.900 L 158.643 106.794 L 158.596 106.758 L 158.456 106.639 L 158.414 106.599 L 158.286 106.467 L 158.247 106.423 L 158.133 106.279 L 158.099 106.231 L 157.999 106.077 L 157.970 106.026 L 157.885 105.863 L 157.861 105.810 L 157.793 105.639 L 157.774 105.584 L 157.722 105.407 L 157.709 105.350 L 157.675 105.169 L 157.667 105.112 L 157.650 104.928 L 157.648 104.870 L 157.650 104.686 L 157.653 104.628 L 157.672 104.445 L 157.681 104.387 L 157.718 104.207 L 157.733 104.150 L 157.787 103.975 L 157.807 103.920 L 157.878 103.750 L 157.903 103.697 L 157.991 103.535 L 158.021 103.485 L 158.123 103.333 L 158.158 103.286 L 158.275 103.144 L 158.314 103.100 L 158.444 102.970 L 158.487 102.931 L 158.629 102.814 L 158.676 102.779 L 158.829 102.677 L 158.879 102.647 L 159.041 102.559 L 159.094 102.534 L 159.263 102.463 L 159.318 102.443 L 159.494 102.389 L 159.550 102.374 L 159.731 102.337 L 159.788 102.328 L 159.971 102.308 L 160.029 102.305 L 160.214 102.304 L 160.272 102.306 L 160.458 102.322 L 160.487 102.326 L 160.543 102.333 L 160.557 102.335 L 160.651 102.351 L 160.665 102.353 L 161.181 102.450 L 161.200 102.454 L 161.324 102.481 L 161.343 102.486 L 161.497 102.525 L 161.516 102.530 L 161.638 102.566 L 161.657 102.572 L 165.374 103.786 L 165.393 103.792 L 165.514 103.836 L 165.532 103.843 L 165.681 103.903 L 165.700 103.911 L 165.817 103.962 L 165.835 103.971 L 168.900 105.441 L 168.916 105.449 L 169.021 105.504 L 169.037 105.512 L 169.167 105.585 L 169.183 105.594 L 169.285 105.655 L 169.300 105.664 L 172.366 107.624 L 172.378 107.633 L 172.460 107.687 L 172.472 107.696 L 172.572 107.767 L 172.584 107.776 L 172.663 107.835 L 172.675 107.845 L 175.340 109.954 L 175.350 109.962 L 175.413 110.014 L 175.422 110.022 L 175.499 110.088 L 175.509 110.096 L 175.569 110.151 L 175.578 110.159 L 178.867 113.240 L 178.876 113.249 L 178.937 113.309 L 178.946 113.318 L 179.021 113.394 L 179.030 113.404 L 179.088 113.466 L 179.097 113.475 L 189.243 124.793 L 189.247 124.796 L 189.254 124.804 L 189.257 124.808 L 189.265 124.816 L 189.269 124.820 L 189.278 124.830 L 189.282 124.835 L 189.287 124.840 L 189.291 124.844 L 189.300 124.854 L 189.304 124.857 L 189.311 124.865 L 189.322 124.877 L 189.327 124.882 L 192.392 127.963 L 192.396 127.966 L 192.405 127.975 L 192.408 127.978 L 192.417 127.987 L 192.422 127.992 L 192.432 128.002 L 192.437 128.006 L 192.442 128.011 L 192.447 128.016 L 192.458 128.026 L 192.462 128.030 L 192.471 128.038 L 192.483 128.050 L 192.489 128.055 L 195.133 130.426 L 195.137 130.431 L 195.149 130.441 L 195.154 130.445 L 195.165 130.455 L 195.171 130.460 L 195.185 130.472 L 195.191 130.477 L 195.198 130.483 L 195.204 130.488 L 195.218 130.500 L 195.224 130.505 L 195.227 130.507 L 195.235 130.513 L 195.252 130.527 L 195.259 130.532 L 198.994 133.438 L 199.000 133.442 L 199.013 133.453 L 199.019 133.457 L 199.033 133.468 L 199.040 133.473 L 199.057 133.485 L 199.064 133.490 L 199.072 133.496 L 199.080 133.502 L 199.097 133.514 L 199.104 133.519 L 199.108 133.521 L 199.117 133.527 L 199.137 133.541 L 199.146 133.547 L 203.206 136.217 L 203.212 136.221 L 203.226 136.230 L 203.232 136.234 L 203.246 136.243 L 203.254 136.248 L 203.271 136.259 L 203.278 136.263 L 203.287 136.268 L 203.295 136.273 L 203.312 136.283 L 203.320 136.288 L 203.324 136.290 L 203.333 136.296 L 203.354 136.307 L 203.363 136.312 L 203.873 136.594 L 203.886 136.601 L 203.969 136.650 L 203.982 136.657 L 204.031 136.688 L 204.056 136.704 L 204.213 136.813 L 204.261 136.849 L 204.404 136.970 L 204.448 137.011 L 204.579 137.146 L 204.618 137.191 L 204.735 137.339 L 204.769 137.387 L 204.871 137.545 L 204.900 137.597 L 204.986 137.765 L 205.010 137.819 L 205.079 137.994 L 205.098 138.051 L 205.148 138.232 L 205.161 138.290 L 205.194 138.475 L 205.201 138.534 L 205.215 138.722 L 205.217 138.782 L 205.212 138.970 L 205.208 139.029 L 205.184 139.216 L 205.174 139.275 L 205.132 139.458 L 205.116 139.515 L 205.057 139.694 L 205.035 139.749 L 204.958 139.921 L 204.931 139.974 L 204.837 140.137 L 204.805 140.187 L 204.696 140.340 L 204.659 140.387 L 204.535 140.529 L 204.493 140.571 L 204.356 140.700 L 204.310 140.738 L 204.161 140.853 L 204.112 140.886 L 203.952 140.985 L 203.899 141.014 L 203.730 141.097 L 203.676 141.120 L 203.499 141.185 L 203.442 141.203 L 203.260 141.251 L 203.202 141.263 L 203.016 141.292 L 202.957 141.299 L 202.769 141.309 L 202.709 141.310 L 202.519 141.302 L 202.489 141.300 L 202.431 141.294 L 202.416 141.293 L 202.320 141.282 L 202.306 141.280 L 201.201 141.122 L 201.191 141.121 L 201.117 141.109 L 201.106 141.107 L 201.014 141.091 L 201.003 141.088 L 200.931 141.074 L 200.919 141.072 L 196.563 140.109 L 196.546 140.105 L 196.432 140.076 L 196.415 140.072 L 196.273 140.031 L 196.256 140.026 L 196.144 139.991 L 196.127 139.985 L 191.855 138.485 L 191.843 138.480 L 191.762 138.450 L 191.749 138.445 L 191.649 138.404 L 191.636 138.399 L 191.557 138.365 L 191.545 138.360 L 182.277 134.150 L 182.266 134.145 L 182.239 134.133 L 182.228 134.128 L 182.214 134.122 L 182.203 134.118 L 182.177 134.107 L 182.165 134.102 L 182.152 134.097 L 182.140 134.093 L 182.114 134.083 L 182.102 134.079 L 182.088 134.074 L 182.076 134.070 L 182.049 134.060 L 182.038 134.056 L 179.247 133.140 L 179.235 133.136 L 179.207 133.127 L 179.195 133.123 L 179.181 133.119 L 179.168 133.115 L 179.140 133.108 L 179.128 133.104 L 179.114 133.100 L 179.102 133.097 L 179.074 133.090 L 179.062 133.087 L 179.047 133.084 L 179.035 133.081 L 179.006 133.074 L 178.994 133.072 L 176.850 132.624 L 176.834 132.620 L 176.797 132.613 L 176.782 132.611 L 176.762 132.607 L 176.747 132.605 L 176.710 132.599 L 176.694 132.597 L 176.676 132.594 L 176.660 132.592 L 176.623 132.588 L 176.607 132.586 L 176.588 132.584 L 176.572 132.583 L 176.535 132.580 L 176.519 132.579 L 173.437 132.381 L 173.430 132.380 L 173.413 132.379 L 173.410 132.379 L 173.378 132.378 L 173.312 132.377 L 173.290 132.377 L 173.259 132.378 L 173.176 132.382 L 173.141 132.385 L 169.789 132.699 L 169.776 132.701 L 169.745 132.704 L 169.732 132.705 L 169.716 132.707 L 169.702 132.709 L 169.672 132.713 L 169.658 132.715 L 169.643 132.718 L 169.630 132.720 L 169.599 132.725 L 169.586 132.727 L 169.570 132.730 L 169.557 132.733 L 169.527 132.739 L 169.514 132.742 L 165.613 133.582 L 165.608 133.583 L 165.595 133.586 L 165.590 133.587 L 165.577 133.590 L 165.571 133.592 L 165.555 133.596 L 165.549 133.597 L 165.541 133.599 L 165.535 133.601 L 165.519 133.604 L 165.513 133.606 L 165.501 133.609 L 165.484 133.614 L 165.476 133.616 L 155.230 136.477 L 155.210 136.482 L 155.079 136.514 L 155.059 136.519 L 154.893 136.553 L 154.873 136.557 L 154.740 136.579 L 154.719 136.582 L 151.747 136.983 L 151.728 136.985 L 151.606 136.998 L 151.587 136.999 L 151.434 137.010 L 151.415 137.011 L 151.292 137.016 L 151.273 137.017 L 148.049 137.042 L 148.029 137.042 L 147.904 137.039 L 147.885 137.038 L 147.728 137.029 L 147.709 137.028 L 147.584 137.017 L 147.565 137.015 L 143.879 136.568 L 143.861 136.565 L 143.749 136.549 L 143.732 136.546 L 143.592 136.520 L 143.575 136.517 L 143.464 136.494 L 143.447 136.490 L 141.841 136.102 L 141.826 136.098 L 141.735 136.074 L 141.721 136.070 L 141.666 136.053 L 141.638 136.045 L 141.461 135.983 L 141.406 135.961 L 141.239 135.884 L 141.187 135.857 L 141.027 135.763 L 140.978 135.731 L 140.828 135.623 L 140.783 135.586 L 140.644 135.463 L 140.602 135.422 L 140.476 135.287 L 140.439 135.242 L 140.327 135.095 L 140.294 135.047 L 140.196 134.890 L 140.168 134.838 L 140.087 134.672 L 140.064 134.619 L 139.999 134.445 L 139.981 134.390 L 139.933 134.211 L 139.921 134.154 L 139.891 133.971 L 139.884 133.913 L 139.872 133.729 L 139.871 133.670 L 139.877 133.485 L 139.882 133.427 L 139.905 133.243 L 139.916 133.186 L 139.957 133.006 L 139.973 132.949 L 140.032 132.774 L 140.054 132.720 L 140.129 132.551 L 140.156 132.499 L 140.245 132.342 L 140.266 132.304 L 140.302 132.233 L 140.338 132.154 L 140.359 132.100 L 140.387 132.018 L 140.403 131.963 L 140.422 131.878 L 140.433 131.821 L 140.444 131.735 L 140.449 131.678 L 140.453 131.591 L 140.452 131.533 L 140.447 131.447 L 140.441 131.389 L 140.427 131.304 L 140.415 131.247 L 140.394 131.163 L 140.377 131.108 L 140.347 131.026 L 140.325 130.973 L 140.287 130.895 L 140.260 130.844 L 140.215 130.769 L 140.171 130.703 L 140.146 130.668 L 139.798 130.198 L 139.788 130.185 L 139.776 130.167 L 139.729 130.101 L 139.720 130.088 L 139.707 130.068 L 139.686 130.037 L 139.670 130.010 L 139.583 129.863 L 139.565 129.833 L 139.550 129.805 L 139.521 129.751 L 139.514 129.736 L 139.469 129.644 L 139.463 129.630 L 138.794 128.162 L 138.789 128.151 L 138.756 128.074 L 138.751 128.062 L 138.732 128.015 L 138.723 127.991 L 138.667 127.834 L 138.659 127.809 L 138.644 127.761 L 138.640 127.749 L 138.617 127.668 L 138.614 127.656 L 138.210 126.112 L 138.206 126.092 L 138.177 125.964 L 138.172 125.944 L 138.142 125.782 L 138.138 125.762 L 138.118 125.632 L 138.115 125.612 L 137.886 123.725 L 137.885 123.714 L 137.877 123.637 L 137.876 123.625 L 137.868 123.529 L 137.867 123.518 L 137.862 123.441 L 137.862 123.429 L 137.763 121.066 L 137.760 121.021 L 137.752 120.938 L 137.739 120.848 L 137.727 120.789 L 137.706 120.701 L 137.688 120.643 L 137.657 120.558 L 137.634 120.502 L 137.595 120.420 L 137.566 120.367 L 137.519 120.290 L 137.485 120.240 L 137.431 120.167 L 137.392 120.121 L 137.330 120.055 L 137.287 120.012 L 137.219 119.953 L 137.172 119.915 L 137.098 119.862 L 137.047 119.830 L 136.968 119.784 L 136.915 119.757 L 136.832 119.720 L 136.775 119.698 L 136.689 119.670 L 136.631 119.654 L 136.543 119.634 L 136.483 119.624 L 136.393 119.614 L 136.315 119.608 L 136.260 119.606 L 136.250 119.606 L 136.239 119.606 L 136.215 119.606 L 136.208 119.606 L 136.186 119.605 L 136.049 119.603 L 135.990 119.599 L 135.805 119.577 L 135.746 119.568 L 135.564 119.528 L 135.507 119.513 L 135.329 119.456 L 135.273 119.435 L 135.102 119.360 L 135.049 119.334 L 134.886 119.243 L 134.836 119.211 L 134.682 119.105 L 134.635 119.069 L 134.493 118.947 L 134.450 118.907 L 134.321 118.772 L 134.282 118.727 L 134.166 118.581 L 134.132 118.532 L 134.031 118.375 L 134.002 118.324 L 133.917 118.157 L 133.893 118.103 L 133.825 117.929 L 133.806 117.873 L 133.756 117.693 L 133.743 117.635 L 133.710 117.451 L 133.703 117.392 L 133.689 117.206 L 133.687 117.147 L 133.691 116.960 L 133.696 116.901 Z M 119.052 96.089 L 119.062 96.032 L 119.101 95.850 L 119.108 95.821 L 119.122 95.766 L 119.126 95.752 L 119.153 95.662 L 119.157 95.648 L 119.353 95.032 L 119.356 95.023 L 119.376 94.963 L 119.379 94.953 L 119.406 94.878 L 119.409 94.869 L 119.431 94.810 L 119.435 94.801 L 123.352 84.798 L 123.356 84.789 L 123.364 84.768 L 123.367 84.760 L 123.371 84.749 L 123.374 84.740 L 123.382 84.719 L 123.385 84.710 L 123.388 84.700 L 123.391 84.691 L 123.398 84.669 L 123.401 84.660 L 123.405 84.649 L 123.408 84.640 L 123.414 84.619 L 123.417 84.610 L 126.883 72.945 L 126.887 72.933 L 126.914 72.848 L 126.918 72.836 L 126.955 72.731 L 126.959 72.718 L 126.990 72.635 L 126.995 72.623 L 128.293 69.367 L 128.298 69.354 L 128.331 69.276 L 128.336 69.265 L 128.380 69.167 L 128.386 69.156 L 128.422 69.079 L 128.428 69.067 L 129.625 66.688 L 129.632 66.675 L 129.680 66.586 L 129.687 66.572 L 129.750 66.462 L 129.758 66.449 L 129.810 66.362 L 129.818 66.349 L 131.336 63.980 L 131.346 63.964 L 131.416 63.863 L 131.427 63.847 L 131.519 63.722 L 131.530 63.707 L 131.607 63.610 L 131.619 63.595 L 133.274 61.616 L 133.281 61.607 L 133.331 61.550 L 133.339 61.541 L 133.372 61.504 L 133.389 61.486 L 133.494 61.379 L 133.510 61.362 L 133.540 61.335 L 133.548 61.327 L 133.603 61.276 L 133.613 61.268 L 136.099 59.089 L 136.110 59.080 L 136.177 59.024 L 136.187 59.015 L 136.229 58.982 L 136.250 58.966 L 136.392 58.863 L 136.415 58.847 L 136.459 58.818 L 136.470 58.811 L 136.544 58.764 L 136.556 58.757 L 139.130 57.217 L 139.143 57.209 L 139.226 57.162 L 139.239 57.155 L 139.290 57.128 L 139.316 57.115 L 139.489 57.033 L 139.516 57.021 L 139.569 56.999 L 139.583 56.994 L 139.672 56.959 L 139.686 56.954 L 142.803 55.842 L 142.815 55.838 L 142.899 55.810 L 142.912 55.806 L 142.963 55.790 L 142.989 55.783 L 143.160 55.739 L 143.186 55.733 L 143.238 55.722 L 143.251 55.719 L 143.338 55.703 L 143.351 55.700 L 146.845 55.130 L 146.856 55.128 L 146.934 55.117 L 146.945 55.115 L 146.997 55.109 L 147.021 55.107 L 147.176 55.094 L 147.200 55.092 L 147.242 55.091 L 147.253 55.090 L 147.331 55.088 L 147.343 55.088 L 150.723 55.081 L 150.734 55.081 L 150.806 55.082 L 150.817 55.083 L 150.865 55.084 L 150.888 55.085 L 151.031 55.096 L 151.053 55.098 L 151.091 55.102 L 151.101 55.103 L 151.172 55.112 L 151.184 55.114 L 154.732 55.633 L 154.752 55.636 L 154.877 55.659 L 154.896 55.662 L 155.053 55.696 L 155.072 55.700 L 155.195 55.731 L 155.214 55.736 L 159.202 56.866 L 159.216 56.870 L 159.306 56.898 L 159.320 56.902 L 159.374 56.921 L 159.402 56.931 L 159.576 56.999 L 159.629 57.023 L 159.794 57.106 L 159.844 57.135 L 160.000 57.235 L 160.047 57.269 L 160.193 57.382 L 160.237 57.421 L 160.370 57.548 L 160.410 57.591 L 160.531 57.730 L 160.567 57.776 L 160.673 57.927 L 160.704 57.977 L 160.795 58.137 L 160.821 58.189 L 160.897 58.358 L 160.918 58.412 L 160.976 58.588 L 160.992 58.644 L 161.033 58.824 L 161.043 58.881 L 161.066 59.064 L 161.071 59.122 L 161.076 59.307 L 161.075 59.365 L 161.062 59.549 L 161.056 59.607 L 161.025 59.789 L 161.013 59.847 L 160.965 60.025 L 160.947 60.080 L 160.882 60.253 L 160.859 60.307 L 160.777 60.472 L 160.749 60.523 L 160.652 60.680 L 160.619 60.728 L 160.507 60.875 L 160.469 60.920 L 160.343 61.055 L 160.302 61.095 L 160.163 61.218 L 160.118 61.254 L 159.968 61.363 L 159.919 61.394 L 159.758 61.489 L 159.732 61.503 L 159.682 61.529 L 159.669 61.536 L 159.584 61.578 L 159.570 61.584 L 157.179 62.687 L 157.171 62.691 L 157.150 62.701 L 157.141 62.705 L 157.130 62.710 L 157.121 62.715 L 157.100 62.725 L 157.092 62.730 L 157.082 62.735 L 157.073 62.739 L 157.052 62.750 L 157.044 62.755 L 157.033 62.761 L 157.024 62.765 L 157.004 62.777 L 156.996 62.782 L 153.078 65.025 L 153.067 65.031 L 153.042 65.046 L 153.031 65.052 L 153.018 65.060 L 153.007 65.067 L 152.983 65.083 L 152.972 65.089 L 152.960 65.097 L 152.949 65.104 L 152.925 65.120 L 152.915 65.127 L 152.902 65.136 L 152.892 65.143 L 152.868 65.160 L 152.858 65.168 L 149.923 67.315 L 149.913 67.323 L 149.889 67.341 L 149.878 67.349 L 149.866 67.359 L 149.855 67.367 L 149.832 67.386 L 149.822 67.394 L 149.810 67.403 L 149.800 67.412 L 149.777 67.431 L 149.767 67.440 L 149.755 67.450 L 149.746 67.459 L 149.723 67.479 L 149.713 67.488 L 147.093 69.916 L 147.082 69.926 L 147.057 69.950 L 147.047 69.960 L 147.034 69.973 L 147.024 69.984 L 147.000 70.008 L 146.989 70.019 L 146.978 70.031 L 146.968 70.042 L 146.944 70.067 L 146.934 70.078 L 146.923 70.092 L 146.913 70.103 L 146.890 70.129 L 146.881 70.140 L 143.331 74.421 L 143.323 74.431 L 143.305 74.454 L 143.297 74.464 L 143.287 74.476 L 143.280 74.486 L 143.262 74.510 L 143.254 74.520 L 143.246 74.531 L 143.238 74.542 L 143.221 74.566 L 143.214 74.576 L 143.205 74.589 L 143.198 74.599 L 143.181 74.624 L 143.174 74.634 L 137.564 83.200 L 137.559 83.208 L 137.521 83.264 L 137.515 83.272 L 137.467 83.341 L 137.461 83.349 L 137.422 83.403 L 137.415 83.412 L 134.407 87.382 L 134.398 87.394 L 134.334 87.473 L 134.325 87.486 L 134.242 87.583 L 134.232 87.595 L 134.165 87.671 L 134.154 87.682 L 130.858 91.203 L 130.851 91.211 L 130.799 91.264 L 130.790 91.273 L 130.724 91.338 L 130.716 91.346 L 130.663 91.397 L 130.654 91.406 L 123.787 97.702 L 123.780 97.709 L 123.762 97.725 L 123.755 97.732 L 123.746 97.741 L 123.738 97.748 L 123.721 97.765 L 123.714 97.773 L 123.705 97.781 L 123.698 97.788 L 123.681 97.806 L 123.674 97.813 L 123.665 97.822 L 123.658 97.830 L 123.642 97.848 L 123.635 97.855 L 123.414 98.099 L 123.404 98.110 L 123.339 98.178 L 123.329 98.188 L 123.288 98.229 L 123.267 98.249 L 123.129 98.374 L 123.085 98.411 L 122.937 98.521 L 122.889 98.553 L 122.732 98.648 L 122.681 98.676 L 122.515 98.755 L 122.461 98.778 L 122.289 98.840 L 122.233 98.858 L 122.055 98.904 L 121.998 98.915 L 121.817 98.944 L 121.759 98.950 L 121.576 98.961 L 121.518 98.962 L 121.334 98.955 L 121.276 98.950 L 121.094 98.925 L 121.037 98.914 L 120.858 98.872 L 120.802 98.856 L 120.628 98.797 L 120.574 98.775 L 120.407 98.699 L 120.355 98.673 L 120.196 98.581 L 120.147 98.550 L 119.997 98.443 L 119.952 98.407 L 119.813 98.287 L 119.771 98.246 L 119.645 98.113 L 119.607 98.069 L 119.494 97.924 L 119.461 97.876 L 119.363 97.721 L 119.334 97.670 L 119.251 97.506 L 119.228 97.453 L 119.161 97.282 L 119.143 97.227 L 119.093 97.050 L 119.080 96.993 L 119.048 96.812 L 119.041 96.755 L 119.026 96.571 L 119.024 96.513 L 119.028 96.330 L 119.031 96.272 Z M 83.208 34.800 L 83.208 34.771 L 83.211 34.715 L 83.212 34.701 L 83.219 34.607 L 83.220 34.593 L 83.461 32.141 L 83.462 32.128 L 83.471 32.048 L 83.473 32.036 L 83.480 31.988 L 83.484 31.963 L 83.512 31.807 L 83.523 31.758 L 83.565 31.605 L 83.572 31.581 L 83.586 31.535 L 83.590 31.523 L 83.616 31.446 L 83.620 31.435 L 84.392 29.292 L 84.397 29.280 L 84.428 29.199 L 84.433 29.186 L 84.453 29.138 L 84.464 29.114 L 84.536 28.959 L 84.560 28.912 L 84.646 28.764 L 84.659 28.741 L 84.687 28.697 L 84.695 28.686 L 84.743 28.614 L 84.750 28.603 L 85.000 28.249 L 85.010 28.234 L 85.079 28.142 L 85.089 28.128 L 85.132 28.075 L 85.155 28.048 L 85.308 27.877 L 85.332 27.851 L 85.381 27.803 L 85.394 27.791 L 85.477 27.712 L 85.490 27.700 L 85.712 27.505 L 85.722 27.496 L 85.791 27.438 L 85.802 27.429 L 85.844 27.395 L 85.866 27.378 L 86.009 27.274 L 86.055 27.243 L 86.208 27.152 L 86.232 27.139 L 86.279 27.113 L 86.292 27.107 L 86.372 27.066 L 86.384 27.060 L 86.548 26.981 L 86.561 26.975 L 86.646 26.937 L 86.659 26.931 L 86.711 26.910 L 86.738 26.899 L 86.910 26.836 L 86.965 26.819 L 87.142 26.773 L 87.170 26.766 L 87.225 26.755 L 87.239 26.752 L 87.330 26.735 L 87.344 26.732 L 87.511 26.705 L 87.526 26.703 L 87.624 26.690 L 87.639 26.688 L 87.698 26.682 L 87.729 26.679 L 87.924 26.668 L 87.984 26.667 L 88.179 26.676 L 88.210 26.678 L 88.269 26.683 L 88.284 26.685 L 88.382 26.697 L 88.397 26.699 L 89.232 26.820 L 89.245 26.822 L 89.325 26.836 L 89.337 26.838 L 89.386 26.847 L 89.410 26.852 L 89.567 26.888 L 89.615 26.902 L 89.768 26.951 L 89.792 26.959 L 89.838 26.976 L 89.849 26.981 L 89.925 27.011 L 89.937 27.015 L 90.881 27.409 L 90.896 27.416 L 90.990 27.458 L 91.004 27.465 L 91.060 27.492 L 91.088 27.506 L 91.269 27.605 L 91.297 27.621 L 91.350 27.654 L 91.363 27.662 L 91.449 27.719 L 91.462 27.728 L 95.250 30.360 L 95.267 30.372 L 95.374 30.452 L 95.390 30.464 L 95.521 30.569 L 95.536 30.582 L 95.637 30.669 L 95.653 30.683 L 100.149 34.823 L 100.160 34.833 L 100.230 34.901 L 100.241 34.912 L 100.327 34.999 L 100.338 35.010 L 100.404 35.082 L 100.415 35.093 L 105.401 40.707 L 105.410 40.718 L 105.468 40.786 L 105.477 40.796 L 105.547 40.884 L 105.556 40.895 L 105.611 40.966 L 105.619 40.977 L 109.799 46.657 L 109.807 46.669 L 109.860 46.744 L 109.868 46.756 L 109.932 46.851 L 109.939 46.863 L 109.989 46.941 L 109.996 46.953 L 113.264 52.402 L 113.272 52.415 L 113.321 52.502 L 113.328 52.515 L 113.387 52.625 L 113.394 52.639 L 113.438 52.728 L 113.445 52.742 L 114.632 55.275 L 114.638 55.288 L 114.676 55.375 L 114.682 55.388 L 114.727 55.498 L 114.733 55.511 L 114.766 55.600 L 114.771 55.613 L 115.389 57.352 L 115.395 57.368 L 115.428 57.471 L 115.433 57.487 L 115.471 57.618 L 115.476 57.634 L 115.503 57.738 L 115.507 57.755 L 115.860 59.258 L 115.864 59.278 L 115.890 59.408 L 115.894 59.428 L 115.920 59.592 L 115.923 59.613 L 115.940 59.744 L 115.943 59.765 L 116.058 60.987 L 116.059 61.003 L 116.066 61.111 L 116.067 61.128 L 116.070 61.192 L 116.070 61.226 L 116.066 61.441 L 116.065 61.474 L 116.060 61.539 L 116.059 61.555 L 116.048 61.663 L 116.046 61.679 L 115.768 63.857 L 115.766 63.872 L 115.751 63.967 L 115.749 63.982 L 115.738 64.039 L 115.732 64.068 L 115.690 64.252 L 115.674 64.309 L 115.613 64.489 L 115.603 64.517 L 115.582 64.571 L 115.577 64.584 L 115.539 64.673 L 115.533 64.687 L 114.621 66.713 L 114.615 66.725 L 114.579 66.801 L 114.573 66.812 L 114.551 66.857 L 114.538 66.880 L 114.457 67.025 L 114.430 67.069 L 114.337 67.207 L 114.322 67.228 L 114.292 67.268 L 114.284 67.279 L 114.233 67.345 L 114.225 67.355 L 113.846 67.821 L 113.837 67.832 L 113.776 67.904 L 113.766 67.915 L 113.728 67.957 L 113.708 67.978 L 113.578 68.110 L 113.535 68.150 L 113.395 68.267 L 113.348 68.302 L 113.197 68.405 L 113.148 68.436 L 112.987 68.524 L 112.935 68.549 L 112.766 68.622 L 112.712 68.642 L 112.538 68.698 L 112.482 68.712 L 112.302 68.751 L 112.245 68.760 L 112.063 68.782 L 112.005 68.786 L 111.822 68.789 L 111.764 68.787 L 111.581 68.773 L 111.524 68.766 L 111.343 68.734 L 111.287 68.721 L 111.110 68.672 L 111.055 68.654 L 110.884 68.588 L 110.831 68.565 L 110.667 68.482 L 110.617 68.454 L 110.462 68.357 L 110.414 68.323 L 110.269 68.211 L 110.225 68.174 L 110.092 68.048 L 110.051 68.007 L 109.930 67.869 L 109.894 67.823 L 109.787 67.675 L 109.756 67.626 L 109.664 67.468 L 109.637 67.416 L 109.561 67.249 L 109.539 67.196 L 109.479 67.023 L 109.463 66.967 L 109.419 66.786 L 109.413 66.758 L 109.403 66.702 L 109.400 66.688 L 109.385 66.595 L 109.382 66.581 L 109.135 64.821 L 109.133 64.809 L 109.129 64.788 L 109.120 64.738 L 109.102 64.653 L 109.093 64.616 L 109.092 64.612 L 109.082 64.575 L 109.057 64.493 L 109.041 64.445 L 109.033 64.425 L 109.029 64.413 L 107.481 60.382 L 107.475 60.367 L 107.462 60.333 L 107.456 60.318 L 107.448 60.301 L 107.442 60.286 L 107.427 60.253 L 107.420 60.238 L 107.409 60.213 L 107.402 60.199 L 107.386 60.166 L 107.379 60.152 L 107.370 60.135 L 107.363 60.121 L 107.345 60.088 L 107.338 60.074 L 105.001 55.862 L 104.994 55.850 L 104.977 55.821 L 104.970 55.808 L 104.961 55.793 L 104.953 55.781 L 104.936 55.752 L 104.928 55.740 L 104.914 55.718 L 104.906 55.706 L 104.888 55.678 L 104.879 55.666 L 104.869 55.652 L 104.861 55.640 L 104.842 55.613 L 104.833 55.601 L 101.242 50.725 L 101.235 50.715 L 101.216 50.691 L 101.209 50.681 L 101.199 50.668 L 101.191 50.658 L 101.172 50.635 L 101.164 50.625 L 101.149 50.607 L 101.141 50.597 L 101.121 50.575 L 101.113 50.565 L 101.103 50.553 L 101.094 50.543 L 101.074 50.521 L 101.065 50.511 L 99.160 48.465 L 99.153 48.457 L 99.136 48.439 L 99.128 48.431 L 99.119 48.422 L 99.112 48.414 L 99.094 48.397 L 99.086 48.389 L 99.073 48.376 L 99.065 48.368 L 99.047 48.351 L 99.039 48.344 L 99.030 48.335 L 99.022 48.328 L 99.004 48.311 L 98.996 48.304 L 97.354 46.845 L 97.346 46.838 L 97.335 46.828 L 97.306 46.804 L 97.256 46.764 L 97.233 46.747 L 97.231 46.745 L 97.208 46.728 L 97.156 46.692 L 97.124 46.671 L 97.111 46.662 L 97.103 46.657 L 96.034 45.989 L 96.024 45.983 L 96.009 45.974 L 95.972 45.952 L 95.922 45.925 L 95.854 45.892 L 95.784 45.861 L 95.714 45.833 L 95.660 45.815 L 95.619 45.802 L 95.602 45.797 L 95.591 45.794 L 95.027 45.638 L 95.015 45.635 L 94.998 45.630 L 94.945 45.618 L 94.871 45.603 L 94.787 45.591 L 94.730 45.585 L 94.645 45.581 L 94.588 45.580 L 94.503 45.584 L 94.428 45.590 L 94.374 45.597 L 94.357 45.600 L 94.345 45.601 L 94.044 45.651 L 94.033 45.653 L 94.032 45.653 L 93.975 45.665 L 93.892 45.686 L 93.799 45.714 L 93.739 45.736 L 93.650 45.774 L 93.592 45.802 L 93.508 45.849 L 93.437 45.894 L 93.389 45.927 L 93.386 45.929 L 93.377 45.935 L 92.943 46.260 L 92.934 46.267 L 92.917 46.279 L 92.879 46.310 L 92.831 46.352 L 92.769 46.411 L 92.709 46.473 L 92.653 46.537 L 92.613 46.587 L 92.584 46.626 L 92.572 46.643 L 92.565 46.653 L 92.210 47.169 L 92.204 47.178 L 92.194 47.192 L 92.172 47.227 L 92.144 47.273 L 92.110 47.336 L 92.077 47.400 L 92.047 47.466 L 92.027 47.516 L 92.013 47.554 L 92.007 47.570 L 92.003 47.580 L 91.784 48.223 L 91.780 48.234 L 91.774 48.253 L 91.761 48.299 L 91.744 48.360 L 91.726 48.442 L 91.712 48.525 L 91.702 48.609 L 91.697 48.672 L 91.695 48.720 L 91.695 48.740 L 91.694 48.752 L 91.676 51.077 L 91.676 51.089 L 91.676 51.109 L 91.678 51.158 L 91.682 51.240 L 91.685 51.276 L 91.686 51.280 L 91.690 51.316 L 91.702 51.397 L 91.710 51.445 L 91.713 51.464 L 91.716 51.476 L 92.424 54.845 L 92.426 54.854 L 92.431 54.876 L 92.433 54.885 L 92.436 54.897 L 92.438 54.906 L 92.444 54.928 L 92.446 54.937 L 92.450 54.954 L 92.453 54.963 L 92.458 54.985 L 92.461 54.994 L 92.464 55.005 L 92.467 55.015 L 92.473 55.036 L 92.476 55.045 L 94.631 62.193 L 94.633 62.200 L 94.647 62.251 L 94.650 62.258 L 94.667 62.322 L 94.669 62.329 L 94.682 62.380 L 94.684 62.388 L 95.469 65.605 L 95.472 65.619 L 95.491 65.708 L 95.494 65.721 L 95.516 65.834 L 95.519 65.848 L 95.534 65.937 L 95.536 65.951 L 96.009 69.176 L 96.012 69.196 L 96.027 69.325 L 96.029 69.345 L 96.041 69.508 L 96.043 69.528 L 96.049 69.658 L 96.049 69.678 L 96.083 72.531 L 96.084 72.542 L 96.083 72.617 L 96.083 72.629 L 96.082 72.678 L 96.081 72.702 L 96.071 72.850 L 96.069 72.872 L 96.065 72.912 L 96.064 72.923 L 96.055 72.996 L 96.053 73.008 L 95.782 74.928 L 95.780 74.943 L 95.764 75.037 L 95.761 75.051 L 95.751 75.107 L 95.744 75.136 L 95.700 75.319 L 95.684 75.375 L 95.622 75.550 L 95.600 75.604 L 95.523 75.772 L 95.495 75.824 L 95.401 75.984 L 95.369 76.033 L 95.260 76.183 L 95.223 76.228 L 95.100 76.367 L 95.059 76.409 L 94.923 76.534 L 94.878 76.572 L 94.731 76.684 L 94.682 76.717 L 94.524 76.814 L 94.473 76.842 L 94.306 76.923 L 94.252 76.946 L 94.079 77.011 L 94.023 77.029 L 93.844 77.076 L 93.786 77.088 L 93.603 77.117 L 93.545 77.124 L 93.360 77.135 L 93.302 77.136 L 93.116 77.130 L 93.058 77.125 L 92.874 77.100 L 92.817 77.089 L 92.636 77.047 L 92.580 77.031 L 92.405 76.971 L 92.350 76.949 L 92.181 76.873 L 92.129 76.846 L 91.969 76.753 L 91.920 76.721 L 91.769 76.613 L 91.723 76.577 L 91.584 76.455 L 91.542 76.414 L 91.415 76.279 L 91.377 76.234 L 91.264 76.087 L 91.231 76.039 L 91.132 75.882 L 91.104 75.831 L 91.022 75.665 L 90.998 75.611 L 90.932 75.438 L 90.914 75.382 L 90.866 75.203 L 90.853 75.146 L 90.822 74.961 L 90.818 74.932 L 90.811 74.875 L 90.810 74.860 L 90.801 74.765 L 90.800 74.751 L 90.503 70.473 L 90.502 70.460 L 90.499 70.431 L 90.498 70.418 L 90.497 70.403 L 90.495 70.391 L 90.492 70.362 L 90.491 70.349 L 90.488 70.327 L 90.486 70.314 L 90.482 70.285 L 90.480 70.273 L 90.478 70.258 L 90.476 70.245 L 90.471 70.216 L 90.469 70.204 L 89.202 63.282 L 89.201 63.277 L 89.199 63.266 L 89.198 63.262 L 89.196 63.251 L 89.195 63.245 L 89.192 63.231 L 89.191 63.226 L 89.189 63.215 L 89.187 63.210 L 89.185 63.197 L 89.184 63.192 L 89.181 63.181 L 89.178 63.165 L 89.176 63.158 L 84.334 42.763 L 84.332 42.755 L 84.320 42.702 L 84.319 42.693 L 84.305 42.626 L 84.303 42.618 L 84.293 42.565 L 84.291 42.556 L 83.525 38.274 L 83.523 38.262 L 83.511 38.183 L 83.509 38.171 L 83.495 38.071 L 83.494 38.059 L 83.484 37.979 L 83.483 37.967 L 83.219 35.196 L 83.218 35.181 L 83.211 35.088 L 83.211 35.073 L 83.208 35.017 L 83.207 34.988 Z M 88.794 146.443 L 88.807 146.385 L 88.856 146.204 L 88.875 146.147 L 88.942 145.972 L 88.965 145.917 L 89.049 145.749 L 89.079 145.697 L 89.179 145.538 L 89.213 145.490 L 89.328 145.341 L 89.367 145.296 L 89.496 145.160 L 89.540 145.119 L 89.682 144.996 L 89.729 144.960 L 89.883 144.852 L 89.933 144.820 L 90.097 144.728 L 90.150 144.701 L 90.322 144.626 L 90.377 144.605 L 90.556 144.546 L 90.613 144.531 L 90.797 144.491 L 90.855 144.481 L 91.042 144.459 L 91.101 144.455 L 91.289 144.452 L 91.349 144.454 L 91.539 144.469 L 91.568 144.472 L 91.626 144.480 L 91.640 144.482 L 91.736 144.497 L 91.750 144.499 L 94.451 144.993 L 94.461 144.994 L 94.476 144.997 L 94.501 145.001 L 94.535 145.006 L 94.565 145.009 L 94.570 145.010 L 94.623 145.014 L 94.695 145.018 L 94.764 145.018 L 94.813 145.017 L 94.853 145.015 L 94.866 145.014 L 94.876 145.013 L 99.396 144.631 L 99.407 144.630 L 99.485 144.625 L 99.497 144.625 L 99.548 144.622 L 99.573 144.622 L 99.727 144.621 L 99.750 144.621 L 99.792 144.623 L 99.803 144.623 L 99.880 144.627 L 99.892 144.628 L 100.921 144.704 L 100.937 144.706 L 101.042 144.717 L 101.059 144.718 L 101.122 144.727 L 101.154 144.732 L 101.362 144.770 L 101.394 144.777 L 101.456 144.792 L 101.472 144.796 L 101.574 144.824 L 101.590 144.828 L 103.240 145.324 L 103.256 145.329 L 103.361 145.364 L 103.377 145.369 L 103.440 145.392 L 103.471 145.404 L 103.674 145.492 L 103.705 145.506 L 103.765 145.535 L 103.780 145.543 L 103.877 145.595 L 103.892 145.604 L 104.669 146.047 L 104.682 146.054 L 104.763 146.103 L 104.775 146.111 L 104.823 146.141 L 104.847 146.158 L 104.999 146.265 L 105.045 146.301 L 105.184 146.421 L 105.226 146.462 L 105.353 146.595 L 105.391 146.639 L 105.505 146.784 L 105.538 146.831 L 105.637 146.986 L 105.666 147.037 L 105.749 147.201 L 105.773 147.254 L 105.840 147.425 L 105.859 147.480 L 105.909 147.657 L 105.922 147.714 L 105.955 147.895 L 105.962 147.953 L 105.977 148.136 L 105.979 148.194 L 105.977 148.378 L 105.973 148.436 L 105.952 148.619 L 105.943 148.677 L 105.905 148.857 L 105.890 148.913 L 105.834 149.088 L 105.814 149.143 L 105.742 149.312 L 105.717 149.364 L 105.628 149.526 L 105.598 149.576 L 105.495 149.728 L 105.460 149.774 L 105.342 149.916 L 105.303 149.958 L 105.172 150.088 L 105.128 150.127 L 104.986 150.243 L 104.939 150.277 L 104.785 150.379 L 104.735 150.409 L 104.573 150.495 L 104.520 150.520 L 104.350 150.590 L 104.295 150.609 L 104.119 150.663 L 104.063 150.677 L 103.883 150.713 L 103.825 150.722 L 103.639 150.740 L 103.610 150.743 L 103.554 150.746 L 103.539 150.746 L 103.445 150.749 L 103.430 150.749 L 101.700 150.755 L 101.656 150.756 L 101.574 150.760 L 101.485 150.769 L 101.427 150.778 L 101.339 150.796 L 101.282 150.811 L 101.197 150.837 L 101.141 150.858 L 101.059 150.893 L 100.985 150.928 L 100.945 150.948 L 100.875 150.987 L 100.838 151.008 L 100.770 151.050 L 100.698 151.098 L 100.652 151.133 L 100.585 151.188 L 100.542 151.227 L 100.481 151.289 L 100.442 151.332 L 100.388 151.399 L 100.353 151.445 L 100.305 151.517 L 100.275 151.567 L 100.234 151.643 L 100.200 151.715 L 100.182 151.754 L 100.068 152.028 L 100.064 152.037 L 100.058 152.052 L 100.048 152.076 L 100.036 152.109 L 100.026 152.138 L 100.024 152.142 L 100.009 152.195 L 99.989 152.267 L 99.974 152.336 L 99.965 152.385 L 99.958 152.426 L 99.956 152.439 L 99.955 152.449 L 99.668 154.729 L 99.666 154.744 L 99.652 154.838 L 99.649 154.853 L 99.639 154.910 L 99.633 154.939 L 99.591 155.123 L 99.575 155.180 L 99.516 155.357 L 99.495 155.412 L 99.418 155.585 L 99.405 155.611 L 99.379 155.663 L 99.372 155.676 L 99.327 155.760 L 99.320 155.773 L 99.095 156.166 L 99.088 156.178 L 99.039 156.260 L 99.031 156.272 L 99.000 156.320 L 98.984 156.345 L 98.876 156.497 L 98.840 156.543 L 98.719 156.683 L 98.678 156.725 L 98.545 156.852 L 98.500 156.891 L 98.355 157.004 L 98.307 157.038 L 98.151 157.137 L 98.100 157.165 L 97.935 157.249 L 97.882 157.272 L 97.710 157.339 L 97.654 157.358 L 97.476 157.407 L 97.419 157.420 L 97.237 157.453 L 97.180 157.460 L 96.995 157.474 L 96.937 157.476 L 96.752 157.472 L 96.694 157.469 L 96.511 157.447 L 96.453 157.437 L 96.273 157.398 L 96.216 157.383 L 96.040 157.326 L 95.986 157.306 L 95.816 157.232 L 95.764 157.206 L 95.602 157.117 L 95.553 157.086 L 95.401 156.981 L 95.354 156.946 L 95.213 156.826 L 95.170 156.787 L 95.040 156.652 L 95.020 156.631 L 94.982 156.588 L 94.973 156.577 L 94.911 156.504 L 94.902 156.493 L 94.022 155.392 L 94.012 155.380 L 93.948 155.295 L 93.939 155.282 L 93.902 155.231 L 93.884 155.204 L 93.771 155.026 L 93.754 154.998 L 93.723 154.943 L 93.715 154.929 L 93.666 154.836 L 93.659 154.821 L 91.683 150.816 L 91.678 150.806 L 91.671 150.792 L 91.649 150.752 L 91.622 150.705 L 91.580 150.639 L 91.536 150.576 L 91.487 150.512 L 91.451 150.470 L 91.420 150.435 L 91.410 150.424 L 91.402 150.416 L 90.959 149.952 L 90.952 149.945 L 90.942 149.934 L 90.924 149.917 L 90.900 149.893 L 90.878 149.873 L 90.875 149.870 L 90.836 149.836 L 90.780 149.792 L 90.726 149.752 L 90.687 149.724 L 90.654 149.703 L 90.643 149.696 L 90.635 149.691 L 90.016 149.312 L 90.003 149.305 L 89.922 149.252 L 89.910 149.244 L 89.862 149.211 L 89.838 149.194 L 89.686 149.079 L 89.640 149.041 L 89.503 148.914 L 89.461 148.871 L 89.337 148.731 L 89.300 148.685 L 89.190 148.533 L 89.157 148.483 L 89.063 148.321 L 89.035 148.268 L 88.957 148.097 L 88.936 148.042 L 88.875 147.865 L 88.858 147.808 L 88.815 147.622 L 88.809 147.593 L 88.798 147.536 L 88.796 147.522 L 88.781 147.426 L 88.779 147.412 L 88.769 147.338 L 88.767 147.323 L 88.757 147.227 L 88.756 147.212 L 88.751 147.154 L 88.749 147.125 L 88.743 146.934 L 88.744 146.875 L 88.756 146.687 L 88.763 146.628 Z M 88.443 123.931 L 88.442 123.920 L 88.437 123.848 L 88.437 123.837 L 88.281 120.855 L 88.280 120.835 L 88.277 120.711 L 88.277 120.692 L 88.279 120.535 L 88.280 120.516 L 88.285 120.392 L 88.286 120.373 L 88.457 118.127 L 88.459 118.106 L 88.474 117.968 L 88.477 117.946 L 88.502 117.774 L 88.506 117.753 L 88.531 117.616 L 88.535 117.595 L 89.053 115.264 L 89.066 115.214 L 89.083 115.166 L 89.090 115.150 L 89.120 115.066 L 89.136 115.010 L 89.158 114.924 L 89.169 114.866 L 89.181 114.779 L 89.187 114.720 L 89.191 114.632 L 89.191 114.573 L 89.186 114.485 L 89.180 114.426 L 89.167 114.339 L 89.155 114.281 L 89.133 114.195 L 89.116 114.139 L 89.086 114.056 L 89.058 113.991 L 89.041 113.952 L 89.030 113.929 L 89.023 113.914 L 89.021 113.908 L 88.995 113.851 L 88.984 113.825 L 88.916 113.653 L 88.898 113.598 L 88.848 113.422 L 88.835 113.366 L 88.802 113.186 L 88.794 113.129 L 88.779 112.947 L 88.776 112.889 L 88.778 112.706 L 88.782 112.648 L 88.802 112.467 L 88.811 112.409 L 88.848 112.230 L 88.862 112.174 L 88.916 112.000 L 88.936 111.946 L 89.007 111.777 L 89.032 111.725 L 89.118 111.564 L 89.148 111.514 L 89.250 111.362 L 89.284 111.316 L 89.400 111.174 L 89.439 111.131 L 89.568 111.002 L 89.611 110.963 L 89.752 110.846 L 89.798 110.812 L 89.949 110.709 L 89.999 110.679 L 90.159 110.592 L 90.211 110.566 L 90.379 110.495 L 90.434 110.475 L 90.608 110.420 L 90.664 110.405 L 90.843 110.367 L 90.900 110.358 L 91.082 110.337 L 91.139 110.333 L 91.322 110.330 L 91.380 110.332 L 91.562 110.347 L 91.619 110.354 L 91.799 110.386 L 91.856 110.399 L 92.032 110.448 L 92.087 110.467 L 92.257 110.532 L 92.310 110.556 L 92.476 110.639 L 92.501 110.653 L 92.551 110.680 L 92.563 110.688 L 92.644 110.736 L 92.656 110.743 L 92.671 110.753 L 92.685 110.762 L 92.773 110.820 L 92.786 110.830 L 92.838 110.866 L 92.863 110.886 L 93.029 111.016 L 93.054 111.037 L 93.101 111.079 L 93.113 111.090 L 93.190 111.162 L 93.202 111.173 L 93.975 111.935 L 93.985 111.946 L 94.054 112.017 L 94.065 112.028 L 94.105 112.072 L 94.125 112.095 L 94.251 112.248 L 94.270 112.272 L 94.305 112.320 L 94.314 112.332 L 94.372 112.413 L 94.380 112.426 L 95.424 113.987 L 95.431 113.998 L 95.479 114.073 L 95.486 114.085 L 95.514 114.131 L 95.527 114.154 L 95.612 114.311 L 95.625 114.335 L 95.648 114.383 L 95.654 114.395 L 95.691 114.476 L 95.696 114.489 L 96.425 116.180 L 96.430 116.191 L 96.459 116.262 L 96.463 116.272 L 96.481 116.319 L 96.490 116.342 L 96.538 116.486 L 96.546 116.508 L 96.557 116.547 L 96.560 116.558 L 96.581 116.631 L 96.584 116.643 L 97.185 118.991 L 97.190 119.011 L 97.219 119.144 L 97.224 119.164 L 97.254 119.332 L 97.258 119.352 L 97.277 119.487 L 97.280 119.507 L 97.531 121.748 L 97.533 121.767 L 97.543 121.887 L 97.544 121.906 L 97.551 122.057 L 97.552 122.076 L 97.554 122.197 L 97.554 122.215 L 97.523 124.746 L 97.523 124.757 L 97.521 124.832 L 97.520 124.844 L 97.518 124.893 L 97.516 124.917 L 97.503 125.064 L 97.501 125.087 L 97.496 125.126 L 97.494 125.137 L 97.483 125.210 L 97.481 125.222 L 97.112 127.446 L 97.109 127.462 L 97.089 127.566 L 97.086 127.582 L 97.072 127.643 L 97.064 127.675 L 97.007 127.877 L 96.998 127.908 L 96.977 127.968 L 96.972 127.983 L 96.936 128.082 L 96.930 128.097 L 96.391 129.444 L 96.385 129.458 L 96.346 129.548 L 96.340 129.562 L 96.315 129.615 L 96.302 129.642 L 96.213 129.814 L 96.182 129.866 L 96.076 130.027 L 96.059 130.052 L 96.024 130.099 L 96.015 130.111 L 95.955 130.189 L 95.946 130.201 L 95.467 130.790 L 95.458 130.801 L 95.396 130.873 L 95.386 130.885 L 95.348 130.927 L 95.328 130.948 L 95.196 131.082 L 95.152 131.122 L 95.010 131.240 L 94.963 131.275 L 94.809 131.379 L 94.759 131.410 L 94.597 131.498 L 94.544 131.523 L 94.373 131.596 L 94.318 131.616 L 94.141 131.671 L 94.084 131.685 L 93.903 131.723 L 93.845 131.732 L 93.661 131.752 L 93.602 131.755 L 93.417 131.757 L 93.358 131.755 L 93.174 131.738 L 93.116 131.730 L 92.931 131.695 L 92.902 131.689 L 92.890 131.686 L 92.859 131.678 L 92.664 131.620 L 92.605 131.599 L 92.425 131.523 L 92.368 131.497 L 92.195 131.402 L 92.142 131.370 L 91.980 131.258 L 91.930 131.220 L 91.778 131.091 L 91.755 131.070 L 91.711 131.028 L 91.700 131.017 L 91.628 130.946 L 91.617 130.934 L 90.722 129.994 L 90.711 129.982 L 90.643 129.907 L 90.633 129.895 L 90.594 129.849 L 90.574 129.825 L 90.452 129.667 L 90.417 129.616 L 90.312 129.446 L 90.296 129.419 L 90.267 129.366 L 90.260 129.352 L 90.214 129.262 L 90.207 129.248 L 89.148 127.052 L 89.142 127.041 L 89.109 126.967 L 89.104 126.956 L 89.084 126.911 L 89.075 126.888 L 89.018 126.739 L 89.002 126.692 L 88.957 126.539 L 88.951 126.515 L 88.939 126.468 L 88.936 126.456 L 88.919 126.377 L 88.916 126.365 L 88.496 124.298 L 88.494 124.288 L 88.480 124.216 L 88.479 124.205 L 88.471 124.157 L 88.467 124.135 L 88.449 123.991 L 88.447 123.969 Z" fill-rule="evenodd" fill="none" stroke="#000" stroke-width="0.3"/>
</svg>
