0
SECTION
2
HEADER
9
$ACADVER
1
AC1009
9
$INSUNITS
70
4
0
ENDSEC
0
SECTION
2
TABLES
0
TABLE
2
LAYER
70
1
0
LAYER
2
CUT
70
0
62
7
6
CONTINUOUS
0
ENDTAB
0
ENDSEC
0
SECTION
2
ENTITIES
0
POLYLINE
8
CUT
66
1
70
1
10
0.0
20
0.0
30
0.0
0
VERTEX
8
CUT
10
126.4686
20
164.6458
0
VERTEX
8
CUT
10
126.4737
20
164.6535
0
VERTEX
8
CUT
10
126.4879
20
164.6748
0
VERTEX
8
CUT
10
126.5285
20
164.7359
0
VERTEX
8
CUT
10
126.6444
20
164.8391
0
VERTEX
8
CUT
10
127.2221
20
165.1550
0
VERTEX
8
CUT
10
127.2654
20
165.1561
0
VERTEX
8
CUT
10
127.2825
20
165.1565
0
VERTEX
8
CUT
10
127.3974
20
165.1593
0
VERTEX
8
CUT
10
127.4087
20
165.1596
0
VERTEX
8
CUT
10
127.4421
20
165.1530
0
VERTEX
8
CUT
10
128.6296
20
164.8484
0
VERTEX
8
CUT
10
128.8885
20
164.8691
0
VERTEX
8
CUT
10
128.9221
20
164.8625
0
VERTEX
8
CUT
10
129.0160
20
164.8792
0
VERTEX
8
CUT
10
129.3255
20
164.9039
0
VERTEX
8
CUT
10
129.3623
20
164.9409
0
VERTEX
8
CUT
10
129.3852
20
164.9450
0
VERTEX
8
CUT
10
129.3979
20
164.9767
0
VERTEX
8
CUT
10
129.5956
20
165.1758
0
VERTEX
8
CUT
10
129.8274
20
165.9123
0
VERTEX
8
CUT
10
130.0902
20
166.3992
0
VERTEX
8
CUT
10
130.8888
20
166.9415
0
VERTEX
8
CUT
10
131.1218
20
166.9816
0
VERTEX
8
CUT
10
131.1881
20
167.1448
0
VERTEX
8
CUT
10
131.1977
20
167.1513
0
VERTEX
8
CUT
10
131.3171
20
167.3787
0
VERTEX
8
CUT
10
131.4352
20
167.4615
0
VERTEX
8
CUT
10
131.3825
20
167.6231
0
VERTEX
8
CUT
10
131.3867
20
167.6334
0
VERTEX
8
CUT
10
131.2416
20
168.1396
0
VERTEX
8
CUT
10
130.9221
20
169.4738
0
VERTEX
8
CUT
10
127.5345
20
177.0276
0
VERTEX
8
CUT
10
126.5338
20
179.9204
0
VERTEX
8
CUT
10
126.6029
20
180.9205
0
VERTEX
8
CUT
10
127.1312
20
181.9454
0
VERTEX
8
CUT
10
127.0861
20
182.3558
0
VERTEX
8
CUT
10
127.0970
20
182.3845
0
VERTEX
8
CUT
10
127.0406
20
182.7700
0
VERTEX
8
CUT
10
126.7713
20
185.2227
0
VERTEX
8
CUT
10
126.7409
20
189.4701
0
VERTEX
8
CUT
10
126.9588
20
190.5435
0
VERTEX
8
CUT
10
127.5055
20
191.3698
0
VERTEX
8
CUT
10
127.5421
20
191.7655
0
VERTEX
8
CUT
10
125.1357
20
198.0304
0
VERTEX
8
CUT
10
123.9586
20
201.9210
0
VERTEX
8
CUT
10
122.8648
20
207.9948
0
VERTEX
8
CUT
10
122.6415
20
210.2201
0
VERTEX
8
CUT
10
122.2522
20
210.5182
0
VERTEX
8
CUT
10
122.1830
20
210.6188
0
VERTEX
8
CUT
10
117.9697
20
214.1772
0
VERTEX
8
CUT
10
115.4481
20
217.3139
0
VERTEX
8
CUT
10
114.2484
20
219.6834
0
VERTEX
8
CUT
10
113.3583
20
222.0532
0
VERTEX
8
CUT
10
112.7559
20
224.6223
0
VERTEX
8
CUT
10
112.3980
20
227.3361
0
VERTEX
8
CUT
10
112.2457
20
230.2401
0
VERTEX
8
CUT
10
112.6739
20
235.8038
0
VERTEX
8
CUT
10
112.6751
20
235.8123
0
VERTEX
8
CUT
10
112.6835
20
235.8689
0
VERTEX
8
CUT
10
112.6949
20
235.9452
0
VERTEX
8
CUT
10
112.7485
20
236.3062
0
VERTEX
8
CUT
10
112.8043
20
236.6818
0
VERTEX
8
CUT
10
112.8074
20
236.7027
0
VERTEX
8
CUT
10
113.1585
20
238.5138
0
VERTEX
8
CUT
10
113.4598
20
239.7542
0
VERTEX
8
CUT
10
113.9575
20
241.5087
0
VERTEX
8
CUT
10
114.4695
20
242.8806
0
VERTEX
8
CUT
10
114.5012
20
242.9655
0
VERTEX
8
CUT
10
114.5365
20
243.0603
0
VERTEX
8
CUT
10
114.5376
20
243.0631
0
VERTEX
8
CUT
10
115.7786
20
246.1023
0
VERTEX
8
CUT
10
118.4606
20
251.0565
0
VERTEX
8
CUT
10
119.4244
20
252.5293
0
VERTEX
8
CUT
10
119.4728
20
252.6034
0
VERTEX
8
CUT
10
119.5063
20
252.6546
0
VERTEX
8
CUT
10
119.5128
20
252.6644
0
VERTEX
8
CUT
10
120.3476
20
253.8300
0
VERTEX
8
CUT
10
120.3523
20
253.8355
0
VERTEX
8
CUT
10
120.3689
20
253.8549
0
VERTEX
8
CUT
10
120.3917
20
253.8816
0
VERTEX
8
CUT
10
120.4715
20
253.9751
0
VERTEX
8
CUT
10
121.7890
20
255.4948
0
VERTEX
8
CUT
10
122.7393
20
256.4869
0
VERTEX
8
CUT
10
123.1836
20
256.9507
0
VERTEX
8
CUT
10
123.3627
20
257.1377
0
VERTEX
8
CUT
10
123.6175
20
257.4037
0
VERTEX
8
CUT
10
126.0844
20
259.7955
0
VERTEX
8
CUT
10
130.6422
20
263.6557
0
VERTEX
8
CUT
10
130.8702
20
263.8911
0
VERTEX
8
CUT
10
131.1131
20
264.0940
0
VERTEX
8
CUT
10
131.1311
20
264.1166
0
VERTEX
8
CUT
10
131.1580
20
264.1394
0
VERTEX
8
CUT
10
131.1814
20
264.1753
0
VERTEX
8
CUT
10
131.2836
20
264.2623
0
VERTEX
8
CUT
10
131.3871
20
264.4247
0
VERTEX
8
CUT
10
131.5726
20
264.6161
0
VERTEX
8
CUT
10
131.5622
20
264.6578
0
VERTEX
8
CUT
10
131.6564
20
264.7761
0
VERTEX
8
CUT
10
131.6745
20
264.8756
0
VERTEX
8
CUT
10
133.2065
20
267.2794
0
VERTEX
8
CUT
10
134.1205
20
268.6805
0
VERTEX
8
CUT
10
135.8945
20
270.8676
0
VERTEX
8
CUT
10
139.1957
20
273.7998
0
VERTEX
8
CUT
10
141.8967
20
275.5105
0
VERTEX
8
CUT
10
144.8979
20
277.0111
0
VERTEX
8
CUT
10
148.1693
20
278.2416
0
VERTEX
8
CUT
10
151.6207
20
279.2020
0
VERTEX
8
CUT
10
154.7481
20
279.8172
0
VERTEX
8
CUT
10
155.9664
20
279.9983
0
VERTEX
8
CUT
10
157.0339
20
280.1169
0
VERTEX
8
CUT
10
157.1351
20
280.1282
0
VERTEX
8
CUT
10
157.3124
20
280.1479
0
VERTEX
8
CUT
10
157.3390
20
280.1508
0
VERTEX
8
CUT
10
157.3479
20
280.1518
0
VERTEX
8
CUT
10
159.2683
20
280.2520
0
VERTEX
8
CUT
10
167.2573
20
280.2242
0
VERTEX
8
CUT
10
173.2471
20
279.3953
0
VERTEX
8
CUT
10
174.0999
20
279.1894
0
VERTEX
8
CUT
10
179.1417
20
277.6714
0
VERTEX
8
CUT
10
182.9620
20
275.8271
0
VERTEX
8
CUT
10
185.5907
20
274.0103
0
VERTEX
8
CUT
10
188.1093
20
271.6415
0
VERTEX
8
CUT
10
189.4063
20
270.0351
0
VERTEX
8
CUT
10
190.8563
20
267.3161
0
VERTEX
8
CUT
10
191.1912
20
266.4764
0
VERTEX
8
CUT
10
191.6407
20
265.0651
0
VERTEX
8
CUT
10
191.8365
20
263.4778
0
VERTEX
8
CUT
10
191.8640
20
260.1111
0
VERTEX
8
CUT
10
191.2914
20
257.2463
0
VERTEX
8
CUT
10
189.8916
20
254.6436
0
VERTEX
8
CUT
10
188.5420
20
253.0441
0
VERTEX
8
CUT
10
187.0036
20
251.7786
0
VERTEX
8
CUT
10
185.2326
20
250.7709
0
VERTEX
8
CUT
10
183.3399
20
250.0688
0
VERTEX
8
CUT
10
181.4136
20
249.6940
0
VERTEX
8
CUT
10
181.3466
20
249.6929
0
VERTEX
8
CUT
10
180.5416
20
249.6798
0
VERTEX
8
CUT
10
180.0424
20
249.6717
0
VERTEX
8
CUT
10
178.8807
20
249.6529
0
VERTEX
8
CUT
10
177.0901
20
249.8549
0
VERTEX
8
CUT
10
173.3262
20
251.0229
0
VERTEX
8
CUT
10
172.8846
20
250.7368
0
VERTEX
8
CUT
10
176.0950
20
242.9058
0
VERTEX
8
CUT
10
177.4880
20
238.0591
0
VERTEX
8
CUT
10
177.9039
20
235.4071
0
VERTEX
8
CUT
10
178.1201
20
233.5915
0
VERTEX
8
CUT
10
178.1552
20
233.2965
0
VERTEX
8
CUT
10
178.1962
20
232.9522
0
VERTEX
8
CUT
10
178.2980
20
232.0971
0
VERTEX
8
CUT
10
178.3609
20
230.8139
0
VERTEX
8
CUT
10
178.1809
20
225.9536
0
VERTEX
8
CUT
10
177.4579
20
221.7539
0
VERTEX
8
CUT
10
176.0172
20
218.1344
0
VERTEX
8
CUT
10
173.9115
20
215.0928
0
VERTEX
8
CUT
10
170.3879
20
211.4614
0
VERTEX
8
CUT
10
170.1275
20
208.4414
0
VERTEX
8
CUT
10
169.9940
20
207.0059
0
VERTEX
8
CUT
10
169.1740
20
201.7934
0
VERTEX
8
CUT
10
168.3578
20
198.4679
0
VERTEX
8
CUT
10
167.4261
20
195.4311
0
VERTEX
8
CUT
10
166.8214
20
193.6158
0
VERTEX
8
CUT
10
166.6293
20
193.0783
0
VERTEX
8
CUT
10
166.6359
20
193.0588
0
VERTEX
8
CUT
10
166.4560
20
192.5187
0
VERTEX
8
CUT
10
166.5049
20
192.4283
0
VERTEX
8
CUT
10
166.4777
20
192.3396
0
VERTEX
8
CUT
10
166.5075
20
191.6477
0
VERTEX
8
CUT
10
167.0576
20
191.0524
0
VERTEX
8
CUT
10
167.3170
20
190.0365
0
VERTEX
8
CUT
10
167.3274
20
189.9491
0
VERTEX
8
CUT
10
167.3456
20
189.7970
0
VERTEX
8
CUT
10
167.3523
20
189.7402
0
VERTEX
8
CUT
10
167.3830
20
189.4833
0
VERTEX
8
CUT
10
167.4040
20
189.3072
0
VERTEX
8
CUT
10
167.4043
20
189.3041
0
VERTEX
8
CUT
10
167.4284
20
189.1022
0
VERTEX
8
CUT
10
167.5139
20
186.8086
0
VERTEX
8
CUT
10
167.5134
20
186.7005
0
VERTEX
8
CUT
10
167.5104
20
186.3153
0
VERTEX
8
CUT
10
167.1065
20
182.1187
0
VERTEX
8
CUT
10
167.2349
20
181.6138
0
VERTEX
8
CUT
10
167.8202
20
180.7505
0
VERTEX
8
CUT
10
167.7852
20
179.9532
0
VERTEX
8
CUT
10
167.1412
20
178.0367
0
VERTEX
8
CUT
10
166.2872
20
176.0242
0
VERTEX
8
CUT
10
165.1712
20
173.3946
0
VERTEX
8
CUT
10
165.0801
20
173.1799
0
VERTEX
8
CUT
10
164.4065
20
171.5927
0
VERTEX
8
CUT
10
163.5788
20
169.6963
0
VERTEX
8
CUT
10
163.0565
20
168.1328
0
VERTEX
8
CUT
10
162.9852
20
167.3600
0
VERTEX
8
CUT
10
163.1902
20
166.9828
0
VERTEX
8
CUT
10
163.5986
20
166.9136
0
VERTEX
8
CUT
10
163.8226
20
166.8058
0
VERTEX
8
CUT
10
163.9131
20
166.7622
0
VERTEX
8
CUT
10
163.9443
20
166.7472
0
VERTEX
8
CUT
10
163.9534
20
166.7428
0
VERTEX
8
CUT
10
164.1824
20
166.5441
0
VERTEX
8
CUT
10
164.6999
20
165.2468
0
VERTEX
8
CUT
10
165.0364
20
164.9387
0
VERTEX
8
CUT
10
165.3732
20
164.9145
0
VERTEX
8
CUT
10
165.6483
20
164.8622
0
VERTEX
8
CUT
10
165.7696
20
164.8860
0
VERTEX
8
CUT
10
165.8406
20
164.8809
0
VERTEX
8
CUT
10
167.3351
20
165.1557
0
VERTEX
8
CUT
10
167.8250
20
164.9420
0
VERTEX
8
CUT
10
168.0303
20
164.4450
0
VERTEX
8
CUT
10
168.0338
20
164.3869
0
VERTEX
8
CUT
10
168.0344
20
164.3759
0
VERTEX
8
CUT
10
168.0357
20
164.3558
0
VERTEX
8
CUT
10
168.0400
20
164.2831
0
VERTEX
8
CUT
10
167.4352
20
162.1417
0
VERTEX
8
CUT
10
167.1363
20
161.2785
0
VERTEX
8
CUT
10
166.9963
20
160.2872
0
VERTEX
8
CUT
10
167.3509
20
160.0328
0
VERTEX
8
CUT
10
169.3846
20
160.2293
0
VERTEX
8
CUT
10
169.8708
20
159.8454
0
VERTEX
8
CUT
10
169.8886
20
159.8125
0
VERTEX
8
CUT
10
169.8466
20
159.6351
0
VERTEX
8
CUT
10
169.6799
20
158.9431
0
VERTEX
8
CUT
10
169.2786
20
158.3214
0
VERTEX
8
CUT
10
167.6591
20
155.9747
0
VERTEX
8
CUT
10
167.3731
20
155.3688
0
VERTEX
8
CUT
10
167.2304
20
155.1475
0
VERTEX
8
CUT
10
167.1549
20
154.9063
0
VERTEX
8
CUT
10
166.9456
20
154.4629
0
VERTEX
8
CUT
10
164.8774
20
148.0842
0
VERTEX
8
CUT
10
164.9202
20
147.7637
0
VERTEX
8
CUT
10
164.7659
20
147.3889
0
VERTEX
8
CUT
10
165.2761
20
144.7779
0
VERTEX
8
CUT
10
165.3302
20
144.6953
0
VERTEX
8
CUT
10
165.6038
20
142.6473
0
VERTEX
8
CUT
10
165.7169
20
138.6696
0
VERTEX
8
CUT
10
165.7116
20
138.2804
0
VERTEX
8
CUT
10
165.7113
20
138.2613
0
VERTEX
8
CUT
10
165.7113
20
138.2606
0
VERTEX
8
CUT
10
165.7113
20
138.2589
0
VERTEX
8
CUT
10
165.3350
20
134.5541
0
VERTEX
8
CUT
10
165.0037
20
132.9820
0
VERTEX
8
CUT
10
164.5632
20
131.7203
0
VERTEX
8
CUT
10
164.0292
20
130.9019
0
VERTEX
8
CUT
10
163.4385
20
130.4803
0
VERTEX
8
CUT
10
162.7347
20
130.4040
0
VERTEX
8
CUT
10
161.0812
20
131.1788
0
VERTEX
8
CUT
10
158.8737
20
133.1775
0
VERTEX
8
CUT
10
157.2576
20
135.0507
0
VERTEX
8
CUT
10
155.4322
20
137.2149
0
VERTEX
8
CUT
10
155.0979
20
137.5540
0
VERTEX
8
CUT
10
153.3743
20
139.5518
0
VERTEX
8
CUT
10
146.9894
20
139.1362
0
VERTEX
8
CUT
10
144.4553
20
139.1972
0
VERTEX
8
CUT
10
141.0217
20
139.5985
0
VERTEX
8
CUT
10
140.7311
20
139.4541
0
VERTEX
8
CUT
10
139.3482
20
137.7915
0
VERTEX
8
CUT
10
139.0156
20
137.4249
0
VERTEX
8
CUT
10
136.5121
20
134.3850
0
VERTEX
8
CUT
10
133.5899
20
131.4653
0
VERTEX
8
CUT
10
131.7700
20
130.2885
0
VERTEX
8
CUT
10
130.5136
20
130.7776
0
VERTEX
8
CUT
10
129.7910
20
131.8778
0
VERTEX
8
CUT
10
129.3347
20
133.3606
0
VERTEX
8
CUT
10
128.7517
20
137.4534
0
VERTEX
8
CUT
10
128.7089
20
140.6471
0
VERTEX
8
CUT
10
128.9015
20
143.5174
0
VERTEX
8
CUT
10
129.3115
20
146.1448
0
VERTEX
8
CUT
10
129.4780
20
146.9049
0
VERTEX
8
CUT
10
129.4987
20
147.3450
0
VERTEX
8
CUT
10
129.5618
20
147.7491
0
VERTEX
8
CUT
10
129.5279
20
147.9639
0
VERTEX
8
CUT
10
129.5288
20
147.9828
0
VERTEX
8
CUT
10
129.5207
20
148.0091
0
VERTEX
8
CUT
10
129.4717
20
148.3193
0
VERTEX
8
CUT
10
129.4158
20
148.3529
0
VERTEX
8
CUT
10
128.1292
20
152.5682
0
VERTEX
8
CUT
10
128.1239
20
152.6240
0
VERTEX
8
CUT
10
128.0656
20
152.7765
0
VERTEX
8
CUT
10
127.7452
20
153.8263
0
VERTEX
8
CUT
10
126.7480
20
155.8790
0
VERTEX
8
CUT
10
124.5825
20
159.5151
0
VERTEX
8
CUT
10
124.6732
20
159.7831
0
VERTEX
8
CUT
10
125.1354
20
160.0101
0
VERTEX
8
CUT
10
126.5449
20
160.1887
0
VERTEX
8
CUT
10
127.0611
20
160.1757
0
VERTEX
8
CUT
10
127.3848
20
160.4208
0
VERTEX
8
CUT
10
127.3407
20
160.5634
0
VERTEX
8
CUT
10
127.3414
20
160.8760
0
VERTEX
8
CUT
10
126.3273
20
163.9652
0
VERTEX
8
CUT
10
126.3737
20
164.5032
0
SEQEND
0
POLYLINE
8
CUT
66
1
70
1
10
0.0
20
0.0
30
0.0
0
VERTEX
8
CUT
10
153.2800
20
266.4166
0
VERTEX
8
CUT
10
153.5174
20
266.0552
0
VERTEX
8
CUT
10
153.6274
20
266.0312
0
VERTEX
8
CUT
10
153.6315
20
266.0267
0
VERTEX
8
CUT
10
153.6650
20
266.0230
0
VERTEX
8
CUT
10
156.8056
20
265.3380
0
VERTEX
8
CUT
10
157.3273
20
265.1994
0
VERTEX
8
CUT
10
157.5737
20
265.1340
0
VERTEX
8
CUT
10
157.6273
20
265.1197
0
VERTEX
8
CUT
10
157.7909
20
265.0763
0
VERTEX
8
CUT
10
158.9346
20
264.6793
0
VERTEX
8
CUT
10
159.3698
20
264.4797
0
VERTEX
8
CUT
10
162.0655
20
263.1847
0
VERTEX
8
CUT
10
164.9423
20
261.2794
0
VERTEX
8
CUT
10
166.5936
20
259.9652
0
VERTEX
8
CUT
10
167.0861
20
259.5421
0
VERTEX
8
CUT
10
168.2473
20
258.4036
0
VERTEX
8
CUT
10
168.5775
20
258.4336
0
VERTEX
8
CUT
10
169.2077
20
258.8838
0
VERTEX
8
CUT
10
169.2208
20
258.9361
0
VERTEX
8
CUT
10
169.8770
20
259.3167
0
VERTEX
8
CUT
10
170.5446
20
259.3825
0
VERTEX
8
CUT
10
170.5607
20
259.3833
0
VERTEX
8
CUT
10
170.5619
20
259.3834
0
VERTEX
8
CUT
10
170.5699
20
259.3838
0
VERTEX
8
CUT
10
170.6516
20
259.3878
0
VERTEX
8
CUT
10
172.9994
20
258.5196
0
VERTEX
8
CUT
10
173.6795
20
258.1936
0
VERTEX
8
CUT
10
175.5103
20
257.6233
0
VERTEX
8
CUT
10
176.0756
20
257.6547
0
VERTEX
8
CUT
10
176.0928
20
257.6515
0
VERTEX
8
CUT
10
176.7973
20
257.6797
0
VERTEX
8
CUT
10
176.9948
20
257.6578
0
VERTEX
8
CUT
10
177.1697
20
257.6946
0
VERTEX
8
CUT
10
177.4956
20
257.7077
0
VERTEX
8
CUT
10
177.5186
20
257.7149
0
VERTEX
8
CUT
10
177.6043
20
257.7172
0
VERTEX
8
CUT
10
178.1082
20
257.8920
0
VERTEX
8
CUT
10
178.3524
20
257.9433
0
VERTEX
8
CUT
10
178.5328
20
258.0342
0
VERTEX
8
CUT
10
178.6777
20
258.0798
0
VERTEX
8
CUT
10
178.7044
20
258.0987
0
VERTEX
8
CUT
10
178.8287
20
258.1418
0
VERTEX
8
CUT
10
178.8805
20
258.1795
0
VERTEX
8
CUT
10
179.5019
20
258.4036
0
VERTEX
8
CUT
10
180.4322
20
259.3340
0
VERTEX
8
CUT
10
180.4384
20
259.4952
0
VERTEX
8
CUT
10
180.4954
20
259.5551
0
VERTEX
8
CUT
10
180.7598
20
260.2112
0
VERTEX
8
CUT
10
180.7608
20
260.2129
0
VERTEX
8
CUT
10
180.7613
20
260.2150
0
VERTEX
8
CUT
10
180.8868
20
260.5265
0
VERTEX
8
CUT
10
180.8970
20
260.7170
0
VERTEX
8
CUT
10
180.9082
20
260.7412
0
VERTEX
8
CUT
10
180.9065
20
260.8944
0
VERTEX
8
CUT
10
180.9101
20
260.9616
0
VERTEX
8
CUT
10
180.9937
20
261.3807
0
VERTEX
8
CUT
10
180.9486
20
261.6789
0
VERTEX
8
CUT
10
180.9749
20
262.1704
0
VERTEX
8
CUT
10
180.7447
20
263.1905
0
VERTEX
8
CUT
10
180.2161
20
264.1526
0
VERTEX
8
CUT
10
179.7826
20
264.6116
0
VERTEX
8
CUT
10
179.6638
20
264.8083
0
VERTEX
8
CUT
10
178.9201
20
265.5296
0
VERTEX
8
CUT
10
178.9090
20
265.5367
0
VERTEX
8
CUT
10
178.8298
20
265.6206
0
VERTEX
8
CUT
10
176.8761
20
266.9052
0
VERTEX
8
CUT
10
175.5616
20
267.4303
0
VERTEX
8
CUT
10
175.4985
20
267.4608
0
VERTEX
8
CUT
10
175.4405
20
267.4787
0
VERTEX
8
CUT
10
174.3967
20
267.8957
0
VERTEX
8
CUT
10
173.1747
20
268.1772
0
VERTEX
8
CUT
10
173.1283
20
268.1915
0
VERTEX
8
CUT
10
173.0760
20
268.2000
0
VERTEX
8
CUT
10
171.4407
20
268.5768
0
VERTEX
8
CUT
10
168.1209
20
268.9989
0
VERTEX
8
CUT
10
164.6646
20
269.0570
0
VERTEX
8
CUT
10
161.2382
20
268.8207
0
VERTEX
8
CUT
10
157.8277
20
268.2462
0
VERTEX
8
CUT
10
154.7697
20
267.3347
0
VERTEX
8
CUT
10
154.0258
20
267.0002
0
VERTEX
8
CUT
10
153.9016
20
266.9871
0
VERTEX
8
CUT
10
153.6848
20
266.8468
0
VERTEX
8
CUT
10
153.4881
20
266.7584
0
VERTEX
8
CUT
10
153.4491
20
266.6943
0
VERTEX
8
CUT
10
153.3914
20
266.6570
0
VERTEX
8
CUT
10
153.3852
20
266.5894
0
SEQEND
0
ENDSEC
0
EOF
