0
SECTION
2
HEADER
9
$ACADVER
1
AC1009
9
$INSUNITS
70
4
0
ENDSEC
0
SECTION
2
TABLES
0
TABLE
2
LAYER
70
1
0
LAYER
2
CUT
70
0
62
7
6
CONTINUOUS
0
ENDTAB
0
ENDSEC
0
SECTION
2
ENTITIES
0
POLYLINE
8
CUT
66
1
70
1
10
0.0
20
0.0
30
0.0
0
VERTEX
8
CUT
10
0.0900
20
230.0119
0
VERTEX
8
CUT
10
0.1037
20
255.9099
0
VERTEX
8
CUT
10
0.2101
20
285.8644
0
VERTEX
8
CUT
10
0.4406
20
298.3346
0
VERTEX
8
CUT
10
0.5040
20
298.6694
0
VERTEX
8
CUT
10
2.1624
20
298.8596
0
VERTEX
8
CUT
10
15.7227
20
299.0396
0
VERTEX
8
CUT
10
108.3426
20
299.2497
0
VERTEX
8
CUT
10
254.4556
20
299.3030
0
VERTEX
8
CUT
10
286.4347
20
299.1897
0
VERTEX
8
CUT
10
298.3138
20
298.9706
0
VERTEX
8
CUT
10
299.3680
20
298.9178
0
VERTEX
8
CUT
10
299.5499
20
297.5367
0
VERTEX
8
CUT
10
299.7299
20
285.4775
0
VERTEX
8
CUT
10
299.8499
20
253.4827
0
VERTEX
8
CUT
10
299.9400
20
104.4419
0
VERTEX
8
CUT
10
299.9249
20
64.3124
0
VERTEX
8
CUT
10
299.9100
20
47.3289
0
VERTEX
8
CUT
10
299.7899
20
13.5353
0
VERTEX
8
CUT
10
299.5841
20
2.4001
0
VERTEX
8
CUT
10
299.4670
20
0.5816
0
VERTEX
8
CUT
10
298.7137
20
0.4365
0
VERTEX
8
CUT
10
286.4347
20
0.2101
0
VERTEX
8
CUT
10
252.5525
20
0.0900
0
VERTEX
8
CUT
10
229.8807
20
0.0701
0
VERTEX
8
CUT
10
39.4420
20
0.1416
0
VERTEX
8
CUT
10
0.9306
20
0.3896
0
VERTEX
8
CUT
10
0.8677
20
0.3931
0
VERTEX
8
CUT
10
0.6901
20
0.6044
0
VERTEX
8
CUT
10
0.3601
20
59.4529
0
SEQEND
0
POLYLINE
8
CUT
66
1
70
1
10
0.0
20
0.0
30
0.0
0
VERTEX
8
CUT
10
275.8070
20
12.2141
0
VERTEX
8
CUT
10
284.5447
20
12.3345
0
VERTEX
8
CUT
10
287.7670
20
12.6149
0
VERTEX
8
CUT
10
288.0260
20
17.3823
0
VERTEX
8
CUT
10
288.1460
20
43.9983
0
VERTEX
8
CUT
10
288.1159
20
84.6047
0
VERTEX
8
CUT
10
288.0257
20
93.8785
0
VERTEX
8
CUT
10
287.8175
20
96.3472
0
VERTEX
8
CUT
10
287.4642
20
96.4418
0
VERTEX
8
CUT
10
287.2037
20
96.2365
0
VERTEX
8
CUT
10
284.7650
20
90.1290
0
VERTEX
8
CUT
10
280.8045
20
81.3079
0
VERTEX
8
CUT
10
278.6343
20
77.0575
0
VERTEX
8
CUT
10
274.0048
20
68.8817
0
VERTEX
8
CUT
10
268.8131
20
61.0192
0
VERTEX
8
CUT
10
263.4373
20
53.8408
0
VERTEX
8
CUT
10
257.4861
20
46.8964
0
VERTEX
8
CUT
10
251.0689
20
40.2381
0
VERTEX
8
CUT
10
244.3241
20
34.0029
0
VERTEX
8
CUT
10
237.2737
20
28.1580
0
VERTEX
8
CUT
10
230.0809
20
22.9132
0
VERTEX
8
CUT
10
222.7776
20
18.2838
0
VERTEX
8
CUT
10
213.1261
20
13.1372
0
VERTEX
8
CUT
10
212.9862
20
12.6919
0
VERTEX
8
CUT
10
213.3356
20
12.4321
0
VERTEX
8
CUT
10
223.4143
20
12.2141
0
SEQEND
0
POLYLINE
8
CUT
66
1
70
1
10
0.0
20
0.0
30
0.0
0
VERTEX
8
CUT
10
224.9884
20
278.6013
0
VERTEX
8
CUT
10
229.3573
20
275.7687
0
VERTEX
8
CUT
10
237.2931
20
270.0863
0
VERTEX
8
CUT
10
244.8357
20
263.8949
0
VERTEX
8
CUT
10
251.9692
20
257.2409
0
VERTEX
8
CUT
10
258.6725
20
250.0881
0
VERTEX
8
CUT
10
264.9240
20
242.5155
0
VERTEX
8
CUT
10
270.6647
20
234.5821
0
VERTEX
8
CUT
10
275.8949
20
226.2574
0
VERTEX
8
CUT
10
281.4001
20
215.9709
0
VERTEX
8
CUT
10
287.2271
20
202.6356
0
VERTEX
8
CUT
10
287.5216
20
202.4256
0
VERTEX
8
CUT
10
287.8351
20
202.5220
0
VERTEX
8
CUT
10
288.0259
20
205.3724
0
VERTEX
8
CUT
10
288.1160
20
215.0052
0
VERTEX
8
CUT
10
288.1460
20
255.3715
0
VERTEX
8
CUT
10
288.0260
20
282.2576
0
VERTEX
8
CUT
10
287.7642
20
287.0834
0
VERTEX
8
CUT
10
284.4401
20
287.3658
0
VERTEX
8
CUT
10
262.8142
20
287.5457
0
VERTEX
8
CUT
10
221.3734
20
287.4857
0
VERTEX
8
CUT
10
210.8580
20
287.2464
0
VERTEX
8
CUT
10
210.5401
20
286.9624
0
VERTEX
8
CUT
10
210.7031
20
286.5353
0
VERTEX
8
CUT
10
219.3076
20
281.9975
0
SEQEND
0
POLYLINE
8
CUT
66
1
70
1
10
0.0
20
0.0
30
0.0
0
VERTEX
8
CUT
10
269.4710
20
121.5556
0
VERTEX
8
CUT
10
270.1839
20
119.3862
0
VERTEX
8
CUT
10
271.5030
20
117.9506
0
VERTEX
8
CUT
10
272.3212
20
117.5659
0
VERTEX
8
CUT
10
275.6775
20
116.7312
0
VERTEX
8
CUT
10
277.5398
20
115.6129
0
VERTEX
8
CUT
10
278.8862
20
113.8852
0
VERTEX
8
CUT
10
279.9138
20
111.0733
0
VERTEX
8
CUT
10
279.8530
20
110.2348
0
VERTEX
8
CUT
10
279.5650
20
109.8656
0
VERTEX
8
CUT
10
278.8162
20
109.6340
0
VERTEX
8
CUT
10
277.6455
20
109.6714
0
VERTEX
8
CUT
10
276.2294
20
110.0148
0
VERTEX
8
CUT
10
274.8794
20
110.6025
0
VERTEX
8
CUT
10
273.6281
20
111.4297
0
VERTEX
8
CUT
10
272.2148
20
112.7415
0
VERTEX
8
CUT
10
271.8838
20
112.7268
0
VERTEX
8
CUT
10
271.6839
20
112.4626
0
VERTEX
8
CUT
10
272.5309
20
108.5511
0
VERTEX
8
CUT
10
273.5469
20
105.3641
0
VERTEX
8
CUT
10
275.6361
20
102.4385
0
VERTEX
8
CUT
10
277.1712
20
99.4283
0
VERTEX
8
CUT
10
277.5068
20
98.1071
0
VERTEX
8
CUT
10
277.9256
20
97.9083
0
VERTEX
8
CUT
10
278.2863
20
98.2786
0
VERTEX
8
CUT
10
279.0996
20
100.1740
0
VERTEX
8
CUT
10
282.0911
20
109.0596
0
VERTEX
8
CUT
10
284.9084
20
120.0878
0
VERTEX
8
CUT
10
286.3769
20
127.8786
0
VERTEX
8
CUT
10
287.3657
20
135.0372
0
VERTEX
8
CUT
10
287.6156
20
142.2504
0
VERTEX
8
CUT
10
287.1933
20
142.4512
0
VERTEX
8
CUT
10
286.8876
20
142.1401
0
VERTEX
8
CUT
10
285.8933
20
132.6917
0
VERTEX
8
CUT
10
284.5410
20
125.1429
0
VERTEX
8
CUT
10
284.0009
20
124.0397
0
VERTEX
8
CUT
10
282.8234
20
123.1102
0
VERTEX
8
CUT
10
281.5567
20
122.8444
0
VERTEX
8
CUT
10
280.2458
20
123.2103
0
VERTEX
8
CUT
10
279.5860
20
123.6027
0
VERTEX
8
CUT
10
278.6166
20
124.7128
0
VERTEX
8
CUT
10
278.1316
20
126.6666
0
VERTEX
8
CUT
10
277.8400
20
127.1127
0
VERTEX
8
CUT
10
277.3302
20
127.4795
0
VERTEX
8
CUT
10
276.0233
20
127.7673
0
VERTEX
8
CUT
10
274.1636
20
129.3510
0
VERTEX
8
CUT
10
273.7414
20
130.3533
0
VERTEX
8
CUT
10
273.8886
20
133.4414
0
VERTEX
8
CUT
10
273.7989
20
134.1069
0
VERTEX
8
CUT
10
273.5092
20
134.4747
0
VERTEX
8
CUT
10
273.0141
20
134.6543
0
VERTEX
8
CUT
10
270.3836
20
134.1616
0
VERTEX
8
CUT
10
269.9870
20
133.1059
0
VERTEX
8
CUT
10
269.6273
20
130.5946
0
VERTEX
8
CUT
10
269.2379
20
124.6523
0
SEQEND
0
POLYLINE
8
CUT
66
1
70
1
10
0.0
20
0.0
30
0.0
0
VERTEX
8
CUT
10
286.3063
20
170.0365
0
VERTEX
8
CUT
10
285.9291
20
169.6385
0
VERTEX
8
CUT
10
286.6678
20
162.8007
0
VERTEX
8
CUT
10
287.1162
20
162.4884
0
VERTEX
8
CUT
10
287.4395
20
162.8941
0
VERTEX
8
CUT
10
286.7042
20
169.7006
0
SEQEND
0
POLYLINE
8
CUT
66
1
70
1
10
0.0
20
0.0
30
0.0
0
VERTEX
8
CUT
10
282.9249
20
187.2373
0
VERTEX
8
CUT
10
282.6521
20
187.0396
0
VERTEX
8
CUT
10
282.6234
20
186.6599
0
VERTEX
8
CUT
10
283.4913
20
183.0889
0
VERTEX
8
CUT
10
283.9491
20
182.8464
0
VERTEX
8
CUT
10
284.2427
20
183.2733
0
VERTEX
8
CUT
10
283.3591
20
186.9909
0
SEQEND
0
POLYLINE
8
CUT
66
1
70
1
10
0.0
20
0.0
30
0.0
0
VERTEX
8
CUT
10
282.0776
20
190.2584
0
VERTEX
8
CUT
10
281.7204
20
189.9300
0
VERTEX
8
CUT
10
281.6298
20
188.9676
0
VERTEX
8
CUT
10
281.8398
20
188.2047
0
VERTEX
8
CUT
10
282.8310
20
187.7450
0
VERTEX
8
CUT
10
283.0488
20
188.1592
0
VERTEX
8
CUT
10
282.4617
20
190.0506
0
SEQEND
0
POLYLINE
8
CUT
66
1
70
1
10
0.0
20
0.0
30
0.0
0
VERTEX
8
CUT
10
282.4106
20
160.5067
0
VERTEX
8
CUT
10
282.4929
20
160.8929
0
VERTEX
8
CUT
10
281.9016
20
162.0752
0
VERTEX
8
CUT
10
279.4838
20
164.3982
0
VERTEX
8
CUT
10
277.6073
20
165.7067
0
VERTEX
8
CUT
10
277.1747
20
165.6471
0
VERTEX
8
CUT
10
276.7708
20
165.2228
0
VERTEX
8
CUT
10
276.8958
20
164.6676
0
VERTEX
8
CUT
10
280.0251
20
162.5873
0
VERTEX
8
CUT
10
281.8673
20
160.4763
0
SEQEND
0
POLYLINE
8
CUT
66
1
70
1
10
0.0
20
0.0
30
0.0
0
VERTEX
8
CUT
10
282.0832
20
172.2690
0
VERTEX
8
CUT
10
280.6126
20
175.0901
0
VERTEX
8
CUT
10
279.7422
20
176.1405
0
VERTEX
8
CUT
10
278.2416
20
177.3410
0
VERTEX
8
CUT
10
277.6114
20
177.4911
0
VERTEX
8
CUT
10
277.1912
20
177.3110
0
VERTEX
8
CUT
10
276.9811
20
176.9508
0
VERTEX
8
CUT
10
277.2512
20
176.4106
0
VERTEX
8
CUT
10
279.5622
20
174.1597
0
VERTEX
8
CUT
10
281.7230
20
171.0985
0
VERTEX
8
CUT
10
282.0231
20
171.0685
0
VERTEX
8
CUT
10
282.2332
20
171.4286
0
SEQEND
0
POLYLINE
8
CUT
66
1
70
1
10
0.0
20
0.0
30
0.0
0
VERTEX
8
CUT
10
278.5117
20
153.2113
0
VERTEX
8
CUT
10
276.8611
20
155.8223
0
VERTEX
8
CUT
10
276.8010
20
156.4526
0
VERTEX
8
CUT
10
277.1012
20
157.8031
0
VERTEX
8
CUT
10
276.9511
20
158.2533
0
VERTEX
8
CUT
10
276.6210
20
158.3434
0
VERTEX
8
CUT
10
275.9607
20
157.6531
0
VERTEX
8
CUT
10
275.8106
20
156.5726
0
VERTEX
8
CUT
10
277.2812
20
153.2113
0
VERTEX
8
CUT
10
278.0315
20
152.1309
0
VERTEX
8
CUT
10
278.5417
20
151.7707
0
VERTEX
8
CUT
10
278.7218
20
152.2209
0
SEQEND
0
POLYLINE
8
CUT
66
1
70
1
10
0.0
20
0.0
30
0.0
0
VERTEX
8
CUT
10
266.4165
20
103.1735
0
VERTEX
8
CUT
10
266.4763
20
95.8729
0
VERTEX
8
CUT
10
267.3163
20
77.2371
0
VERTEX
8
CUT
10
267.3874
20
76.4521
0
VERTEX
8
CUT
10
267.7444
20
76.2020
0
VERTEX
8
CUT
10
268.0729
20
76.3720
0
VERTEX
8
CUT
10
269.8348
20
79.6035
0
VERTEX
8
CUT
10
274.5860
20
89.3885
0
VERTEX
8
CUT
10
270.4544
20
94.5268
0
VERTEX
8
CUT
10
269.2162
20
97.2133
0
VERTEX
8
CUT
10
268.9416
20
100.0081
0
VERTEX
8
CUT
10
269.1574
20
101.4721
0
VERTEX
8
CUT
10
270.2052
20
105.1165
0
VERTEX
8
CUT
10
269.1834
20
109.3467
0
VERTEX
8
CUT
10
267.8374
20
113.6462
0
VERTEX
8
CUT
10
267.5420
20
113.8536
0
VERTEX
8
CUT
10
267.1793
20
113.7004
0
VERTEX
8
CUT
10
266.9271
20
112.4110
0
SEQEND
0
POLYLINE
8
CUT
66
1
70
1
10
0.0
20
0.0
30
0.0
0
VERTEX
8
CUT
10
224.2930
20
29.5328
0
VERTEX
8
CUT
10
230.0134
20
33.6365
0
VERTEX
8
CUT
10
235.7521
20
38.2096
0
VERTEX
8
CUT
10
241.3579
20
43.1552
0
VERTEX
8
CUT
10
246.7522
20
48.3691
0
VERTEX
8
CUT
10
251.8003
20
53.7778
0
VERTEX
8
CUT
10
256.4457
20
59.2633
0
VERTEX
8
CUT
10
261.6865
20
66.3553
0
VERTEX
8
CUT
10
261.5851
20
81.5383
0
VERTEX
8
CUT
10
260.5366
20
94.0888
0
VERTEX
8
CUT
10
260.2049
20
97.1904
0
VERTEX
8
CUT
10
259.9709
20
97.7574
0
VERTEX
8
CUT
10
259.6105
20
97.7777
0
VERTEX
8
CUT
10
259.3475
20
97.4824
0
VERTEX
8
CUT
10
258.0286
20
94.5510
0
VERTEX
8
CUT
10
256.1725
20
89.5520
0
VERTEX
8
CUT
10
255.2578
20
86.4078
0
VERTEX
8
CUT
10
255.7456
20
84.5979
0
VERTEX
8
CUT
10
258.0761
20
81.3156
0
VERTEX
8
CUT
10
258.9496
20
79.7192
0
VERTEX
8
CUT
10
259.6302
20
77.1406
0
VERTEX
8
CUT
10
259.4706
20
74.6556
0
VERTEX
8
CUT
10
258.5004
20
71.8730
0
VERTEX
8
CUT
10
257.3291
20
69.6200
0
VERTEX
8
CUT
10
256.9461
20
69.2354
0
VERTEX
8
CUT
10
256.5671
20
69.1514
0
VERTEX
8
CUT
10
255.4734
20
69.9204
0
VERTEX
8
CUT
10
254.2027
20
71.8299
0
VERTEX
8
CUT
10
253.1398
20
73.9845
0
VERTEX
8
CUT
10
252.7617
20
75.4921
0
VERTEX
8
CUT
10
253.0928
20
81.1250
0
VERTEX
8
CUT
10
252.9084
20
81.4372
0
VERTEX
8
CUT
10
252.5466
20
81.4621
0
VERTEX
8
CUT
10
251.3796
20
78.3885
0
VERTEX
8
CUT
10
251.0510
20
75.9655
0
VERTEX
8
CUT
10
251.2326
20
73.6355
0
VERTEX
8
CUT
10
252.7307
20
68.5319
0
VERTEX
8
CUT
10
252.6706
20
64.6918
0
VERTEX
8
CUT
10
252.0174
20
62.3585
0
VERTEX
8
CUT
10
250.7184
20
59.7927
0
VERTEX
8
CUT
10
249.7939
20
58.4111
0
VERTEX
8
CUT
10
249.3224
20
58.0568
0
VERTEX
8
CUT
10
248.7780
20
58.0004
0
VERTEX
8
CUT
10
248.3147
20
58.2615
0
VERTEX
8
CUT
10
247.4375
20
59.2899
0
VERTEX
8
CUT
10
245.7836
20
62.0773
0
VERTEX
8
CUT
10
245.1126
20
63.7334
0
VERTEX
8
CUT
10
244.7793
20
65.4081
0
VERTEX
8
CUT
10
244.6885
20
68.1005
0
VERTEX
8
CUT
10
244.9324
20
69.6684
0
VERTEX
8
CUT
10
245.5322
20
71.2122
0
VERTEX
8
CUT
10
247.4709
20
74.6474
0
VERTEX
8
CUT
10
247.7197
20
76.0732
0
VERTEX
8
CUT
10
247.5416
20
76.8504
0
VERTEX
8
CUT
10
247.1356
20
76.8605
0
VERTEX
8
CUT
10
246.4033
20
76.1186
0
VERTEX
8
CUT
10
243.1995
20
72.2846
0
VERTEX
8
CUT
10
241.6451
20
69.8238
0
VERTEX
8
CUT
10
240.5677
20
66.8977
0
VERTEX
8
CUT
10
239.7947
20
63.3314
0
VERTEX
8
CUT
10
239.5571
20
60.4322
0
VERTEX
8
CUT
10
239.6825
20
59.7445
0
VERTEX
8
CUT
10
240.2383
20
58.6166
0
VERTEX
8
CUT
10
242.6279
20
55.8503
0
VERTEX
8
CUT
10
243.6260
20
53.3704
0
VERTEX
8
CUT
10
243.7555
20
50.1508
0
VERTEX
8
CUT
10
243.4253
20
47.8690
0
VERTEX
8
CUT
10
243.0853
20
46.8423
0
VERTEX
8
CUT
10
242.3316
20
46.2496
0
VERTEX
8
CUT
10
241.3367
20
46.7822
0
VERTEX
8
CUT
10
238.6715
20
49.2690
0
VERTEX
8
CUT
10
237.8790
20
50.3962
0
VERTEX
8
CUT
10
237.3752
20
51.5234
0
VERTEX
8
CUT
10
236.8908
20
51.5846
0
VERTEX
8
CUT
10
236.7060
20
51.2729
0
VERTEX
8
CUT
10
236.8546
20
47.0700
0
VERTEX
8
CUT
10
236.6413
20
45.5814
0
VERTEX
8
CUT
10
236.0431
20
43.8566
0
VERTEX
8
CUT
10
234.6922
20
41.6951
0
VERTEX
8
CUT
10
232.7086
20
39.7941
0
VERTEX
8
CUT
10
230.2144
20
38.2676
0
VERTEX
8
CUT
10
227.6747
20
37.3074
0
VERTEX
8
CUT
10
226.8066
20
37.1254
0
VERTEX
8
CUT
10
226.1780
20
37.2222
0
VERTEX
8
CUT
10
225.6617
20
37.6762
0
VERTEX
8
CUT
10
225.4537
20
38.4143
0
VERTEX
8
CUT
10
225.5109
20
40.9145
0
VERTEX
8
CUT
10
225.9997
20
44.3880
0
VERTEX
8
CUT
10
226.8873
20
47.0999
0
VERTEX
8
CUT
10
227.5059
20
48.3287
0
VERTEX
8
CUT
10
229.0654
20
50.3380
0
VERTEX
8
CUT
10
233.1795
20
53.5285
0
VERTEX
8
CUT
10
234.5792
20
55.5565
0
VERTEX
8
CUT
10
235.1000
20
56.8984
0
VERTEX
8
CUT
10
235.7475
20
60.0918
0
VERTEX
8
CUT
10
236.0446
20
64.3716
0
VERTEX
8
CUT
10
235.9465
20
65.4341
0
VERTEX
8
CUT
10
235.4007
20
65.5078
0
VERTEX
8
CUT
10
233.4588
20
63.6832
0
VERTEX
8
CUT
10
230.4227
20
60.1114
0
VERTEX
8
CUT
10
228.6068
20
57.3439
0
VERTEX
8
CUT
10
223.8085
20
48.2876
0
VERTEX
8
CUT
10
220.6601
20
41.8712
0
VERTEX
8
CUT
10
218.9821
20
37.9749
0
VERTEX
8
CUT
10
217.2470
20
31.4793
0
VERTEX
8
CUT
10
214.9249
20
24.7774
0
VERTEX
8
CUT
10
214.9924
20
24.4574
0
VERTEX
8
CUT
10
215.3173
20
24.3010
0
VERTEX
8
CUT
10
216.7022
20
24.9117
0
SEQEND
0
POLYLINE
8
CUT
66
1
70
1
10
0.0
20
0.0
30
0.0
0
VERTEX
8
CUT
10
261.1347
20
174.6699
0
VERTEX
8
CUT
10
260.8646
20
175.4202
0
VERTEX
8
CUT
10
260.4745
20
175.3602
0
VERTEX
8
CUT
10
259.8442
20
174.8500
0
VERTEX
8
CUT
10
259.5741
20
174.0997
0
VERTEX
8
CUT
10
259.6942
20
170.6183
0
VERTEX
8
CUT
10
259.9343
20
168.7275
0
VERTEX
8
CUT
10
260.2944
20
168.3074
0
VERTEX
8
CUT
10
260.5345
20
168.5775
0
VERTEX
8
CUT
10
260.8046
20
170.1081
0
SEQEND
0
POLYLINE
8
CUT
66
1
70
1
10
0.0
20
0.0
30
0.0
0
VERTEX
8
CUT
10
260.5494
20
145.7834
0
VERTEX
8
CUT
10
260.0985
20
145.4562
0
VERTEX
8
CUT
10
259.5539
20
140.6889
0
VERTEX
8
CUT
10
259.9000
20
140.3043
0
VERTEX
8
CUT
10
260.3226
20
140.6028
0
VERTEX
8
CUT
10
260.8717
20
145.3636
0
SEQEND
0
POLYLINE
8
CUT
66
1
70
1
10
0.0
20
0.0
30
0.0
0
VERTEX
8
CUT
10
41.3972
20
128.9601
0
VERTEX
8
CUT
10
42.3622
20
126.7287
0
VERTEX
8
CUT
10
43.4368
20
124.6410
0
VERTEX
8
CUT
10
45.4511
20
121.5008
0
VERTEX
8
CUT
10
47.0448
20
119.5506
0
VERTEX
8
CUT
10
48.4864
20
118.3699
0
VERTEX
8
CUT
10
49.8285
20
117.8561
0
VERTEX
8
CUT
10
51.3599
20
117.9441
0
VERTEX
8
CUT
10
52.2102
20
118.4737
0
VERTEX
8
CUT
10
54.5766
20
120.5599
0
VERTEX
8
CUT
10
56.6413
20
121.6015
0
VERTEX
8
CUT
10
58.2842
20
121.8184
0
VERTEX
8
CUT
10
60.4325
20
121.8175
0
VERTEX
8
CUT
10
61.9531
20
121.6049
0
VERTEX
8
CUT
10
62.4857
20
121.2633
0
VERTEX
8
CUT
10
62.6268
20
120.2638
0
VERTEX
8
CUT
10
61.5948
20
118.0389
0
VERTEX
8
CUT
10
60.6444
20
116.7141
0
VERTEX
8
CUT
10
59.5429
20
115.6685
0
VERTEX
8
CUT
10
58.2025
20
114.8377
0
VERTEX
8
CUT
10
56.3183
20
114.1709
0
VERTEX
8
CUT
10
52.3208
20
114.5544
0
VERTEX
8
CUT
10
52.1024
20
114.0488
0
VERTEX
8
CUT
10
52.8137
20
113.4135
0
VERTEX
8
CUT
10
56.8240
20
111.0029
0
VERTEX
8
CUT
10
58.9029
20
110.3816
0
VERTEX
8
CUT
10
60.7510
20
110.5506
0
VERTEX
8
CUT
10
64.8206
20
112.0009
0
VERTEX
8
CUT
10
67.2591
20
112.0345
0
VERTEX
8
CUT
10
68.5471
20
111.7552
0
VERTEX
8
CUT
10
69.8502
20
111.2576
0
VERTEX
8
CUT
10
72.5736
20
109.7423
0
VERTEX
8
CUT
10
74.3013
20
108.4674
0
VERTEX
8
CUT
10
75.0194
20
107.5055
0
VERTEX
8
CUT
10
74.9864
20
106.9812
0
VERTEX
8
CUT
10
74.6200
20
106.4680
0
VERTEX
8
CUT
10
71.5885
20
104.4538
0
VERTEX
8
CUT
10
68.8726
20
103.5430
0
VERTEX
8
CUT
10
66.0975
20
103.3624
0
VERTEX
8
CUT
10
64.5017
20
103.5428
0
VERTEX
8
CUT
10
63.1212
20
103.9498
0
VERTEX
8
CUT
10
61.8620
20
104.6774
0
VERTEX
8
CUT
10
58.8639
20
106.9454
0
VERTEX
8
CUT
10
54.3137
20
108.9201
0
VERTEX
8
CUT
10
53.9804
20
108.9076
0
VERTEX
8
CUT
10
53.7731
20
108.6039
0
VERTEX
8
CUT
10
53.9110
20
108.2630
0
VERTEX
8
CUT
10
57.5243
20
105.7370
0
VERTEX
8
CUT
10
59.2694
20
104.0457
0
VERTEX
8
CUT
10
60.8499
20
101.2454
0
VERTEX
8
CUT
10
61.5488
20
99.5675
0
VERTEX
8
CUT
10
61.8842
20
97.9681
0
VERTEX
8
CUT
10
61.4511
20
97.4942
0
VERTEX
8
CUT
10
60.0794
20
97.3016
0
VERTEX
8
CUT
10
58.1592
20
97.5489
0
VERTEX
8
CUT
10
56.1554
20
98.1471
0
VERTEX
8
CUT
10
54.1650
20
99.1831
0
VERTEX
8
CUT
10
53.2734
20
99.8560
0
VERTEX
8
CUT
10
51.8766
20
101.4592
0
VERTEX
8
CUT
10
50.9343
20
103.5000
0
VERTEX
8
CUT
10
50.1305
20
108.0027
0
VERTEX
8
CUT
10
49.4989
20
109.7108
0
VERTEX
8
CUT
10
48.3100
20
111.5361
0
VERTEX
8
CUT
10
46.2414
20
114.0562
0
VERTEX
8
CUT
10
42.0550
20
119.0740
0
VERTEX
8
CUT
10
41.6042
20
119.1834
0
VERTEX
8
CUT
10
41.3870
20
118.6219
0
VERTEX
8
CUT
10
42.2720
20
115.0248
0
VERTEX
8
CUT
10
45.1116
20
108.2352
0
VERTEX
8
CUT
10
48.8116
20
101.9056
0
VERTEX
8
CUT
10
51.2349
20
98.9710
0
VERTEX
8
CUT
10
54.7155
20
95.2206
0
VERTEX
8
CUT
10
59.9881
20
90.1886
0
VERTEX
8
CUT
10
63.0008
20
87.9548
0
VERTEX
8
CUT
10
64.4614
20
87.1389
0
VERTEX
8
CUT
10
65.7707
20
86.7031
0
VERTEX
8
CUT
10
66.9754
20
86.6007
0
VERTEX
8
CUT
10
67.9131
20
86.8252
0
VERTEX
8
CUT
10
68.7196
20
87.3354
0
VERTEX
8
CUT
10
69.5129
20
88.2659
0
VERTEX
8
CUT
10
71.5193
20
91.6542
0
VERTEX
8
CUT
10
72.5739
20
92.7326
0
VERTEX
8
CUT
10
73.7121
20
93.4816
0
VERTEX
8
CUT
10
76.9365
20
94.2968
0
VERTEX
8
CUT
10
79.4186
20
94.4765
0
VERTEX
8
CUT
10
80.4087
20
94.2730
0
VERTEX
8
CUT
10
80.7452
20
93.8078
0
VERTEX
8
CUT
10
80.8212
20
93.1556
0
VERTEX
8
CUT
10
80.4772
20
91.4597
0
VERTEX
8
CUT
10
79.1500
20
88.5331
0
VERTEX
8
CUT
10
77.9579
20
86.9355
0
VERTEX
8
CUT
10
76.6591
20
85.8783
0
VERTEX
8
CUT
10
75.1216
20
85.1351
0
VERTEX
8
CUT
10
73.4261
20
84.7292
0
VERTEX
8
CUT
10
70.3018
20
84.3843
0
VERTEX
8
CUT
10
69.7032
20
84.0524
0
VERTEX
8
CUT
10
69.6785
20
83.6238
0
VERTEX
8
CUT
10
72.0152
20
82.3081
0
VERTEX
8
CUT
10
74.4889
20
81.5421
0
VERTEX
8
CUT
10
75.6409
20
81.7671
0
VERTEX
8
CUT
10
78.1149
20
82.9421
0
VERTEX
8
CUT
10
79.5122
20
83.3371
0
VERTEX
8
CUT
10
82.1280
20
83.4323
0
VERTEX
8
CUT
10
84.1998
20
83.1577
0
VERTEX
8
CUT
10
86.4700
20
82.0894
0
VERTEX
8
CUT
10
88.2102
20
80.8405
0
VERTEX
8
CUT
10
90.2500
20
78.8037
0
VERTEX
8
CUT
10
90.7251
20
77.7697
0
VERTEX
8
CUT
10
90.4472
20
77.2763
0
VERTEX
8
CUT
10
89.1945
20
76.4175
0
VERTEX
8
CUT
10
86.2211
20
75.0489
0
VERTEX
8
CUT
10
84.2375
20
74.4611
0
VERTEX
8
CUT
10
82.0162
20
74.2203
0
VERTEX
8
CUT
10
79.9475
20
74.5824
0
VERTEX
8
CUT
10
78.8867
20
74.9979
0
VERTEX
8
CUT
10
76.8709
20
76.2014
0
VERTEX
8
CUT
10
74.5821
20
78.0068
0
VERTEX
8
CUT
10
72.9027
20
78.8481
0
VERTEX
8
CUT
10
72.5258
20
78.8205
0
VERTEX
8
CUT
10
72.3503
20
78.5409
0
VERTEX
8
CUT
10
72.4524
20
78.2270
0
VERTEX
8
CUT
10
74.1942
20
77.0026
0
VERTEX
8
CUT
10
75.9381
20
75.0484
0
VERTEX
8
CUT
10
77.0371
20
72.6658
0
VERTEX
8
CUT
10
77.3108
20
71.3687
0
VERTEX
8
CUT
10
77.4142
20
67.8374
0
VERTEX
8
CUT
10
76.2660
20
67.7370
0
VERTEX
8
CUT
10
74.9478
20
68.0239
0
VERTEX
8
CUT
10
71.9335
20
69.5193
0
VERTEX
8
CUT
10
70.6122
20
70.5074
0
VERTEX
8
CUT
10
69.5886
20
71.6517
0
VERTEX
8
CUT
10
68.3456
20
73.7707
0
VERTEX
8
CUT
10
67.9215
20
75.1100
0
VERTEX
8
CUT
10
67.5730
20
77.4590
0
VERTEX
8
CUT
10
67.2258
20
78.3389
0
VERTEX
8
CUT
10
66.7332
20
79.2294
0
VERTEX
8
CUT
10
65.3845
20
80.8356
0
VERTEX
8
CUT
10
58.1254
20
86.3281
0
VERTEX
8
CUT
10
53.1960
20
90.4102
0
VERTEX
8
CUT
10
52.7642
20
90.4514
0
VERTEX
8
CUT
10
52.5600
20
90.1058
0
VERTEX
8
CUT
10
52.8131
20
89.3176
0
VERTEX
8
CUT
10
55.1119
20
84.7250
0
VERTEX
8
CUT
10
56.9054
20
81.8276
0
VERTEX
8
CUT
10
58.9372
20
79.0506
0
VERTEX
8
CUT
10
61.2514
20
76.3210
0
VERTEX
8
CUT
10
63.9903
20
73.4916
0
VERTEX
8
CUT
10
67.1610
20
70.5905
0
VERTEX
8
CUT
10
70.8460
20
67.4751
0
VERTEX
8
CUT
10
77.6387
20
62.2382
0
VERTEX
8
CUT
10
79.9261
20
60.6436
0
VERTEX
8
CUT
10
83.7458
20
58.4223
0
VERTEX
8
CUT
10
87.0884
20
57.2341
0
VERTEX
8
CUT
10
90.3528
20
56.8732
0
VERTEX
8
CUT
10
93.0135
20
57.1419
0
VERTEX
8
CUT
10
94.4613
20
58.2577
0
VERTEX
8
CUT
10
96.8493
20
62.2941
0
VERTEX
8
CUT
10
98.7474
20
64.0122
0
VERTEX
8
CUT
10
101.1410
20
65.0335
0
VERTEX
8
CUT
10
102.5196
20
65.2758
0
VERTEX
8
CUT
10
106.1720
20
65.3717
0
VERTEX
8
CUT
10
106.3304
20
63.4774
0
VERTEX
8
CUT
10
105.9684
20
61.2747
0
VERTEX
8
CUT
10
105.4611
20
59.9444
0
VERTEX
8
CUT
10
103.9956
20
57.7512
0
VERTEX
8
CUT
10
102.0132
20
56.1919
0
VERTEX
8
CUT
10
100.8438
20
55.6940
0
VERTEX
8
CUT
10
99.5542
20
55.3456
0
VERTEX
8
CUT
10
96.3053
20
55.1034
0
VERTEX
8
CUT
10
94.2139
20
54.3781
0
VERTEX
8
CUT
10
94.2701
20
53.8205
0
VERTEX
8
CUT
10
95.6368
20
53.2561
0
VERTEX
8
CUT
10
100.5872
20
52.0703
0
VERTEX
8
CUT
10
103.6282
20
51.9831
0
VERTEX
8
CUT
10
105.7655
20
52.7275
0
VERTEX
8
CUT
10
109.9719
20
56.9670
0
VERTEX
8
CUT
10
112.1304
20
57.9954
0
VERTEX
8
CUT
10
114.7117
20
58.3416
0
VERTEX
8
CUT
10
117.5715
20
58.1923
0
VERTEX
8
CUT
10
119.4258
20
57.8508
0
VERTEX
8
CUT
10
120.7358
20
57.0808
0
VERTEX
8
CUT
10
120.7820
20
56.8538
0
VERTEX
8
CUT
10
120.1383
20
55.6250
0
VERTEX
8
CUT
10
118.8066
20
53.6572
0
VERTEX
8
CUT
10
117.0496
20
51.8666
0
VERTEX
8
CUT
10
115.8611
20
51.0640
0
VERTEX
8
CUT
10
114.6238
20
50.5434
0
VERTEX
8
CUT
10
112.7583
20
50.2424
0
VERTEX
8
CUT
10
108.5424
20
50.6588
0
VERTEX
8
CUT
10
107.0843
20
50.2007
0
VERTEX
8
CUT
10
106.5308
20
49.8225
0
VERTEX
8
CUT
10
106.5586
20
49.4913
0
VERTEX
8
CUT
10
106.8319
20
49.3021
0
VERTEX
8
CUT
10
110.9550
20
49.1569
0
VERTEX
8
CUT
10
112.6987
20
48.7293
0
VERTEX
8
CUT
10
114.4580
20
47.6029
0
VERTEX
8
CUT
10
116.3760
20
45.7416
0
VERTEX
8
CUT
10
117.8424
20
43.6544
0
VERTEX
8
CUT
10
118.3232
20
42.6297
0
VERTEX
8
CUT
10
118.3407
20
42.0947
0
VERTEX
8
CUT
10
117.9115
20
41.6315
0
VERTEX
8
CUT
10
117.0042
20
41.2513
0
VERTEX
8
CUT
10
113.8416
20
40.6394
0
VERTEX
8
CUT
10
111.1928
20
40.6451
0
VERTEX
8
CUT
10
109.1563
20
41.2441
0
VERTEX
8
CUT
10
108.0922
20
41.7923
0
VERTEX
8
CUT
10
106.3154
20
43.2098
0
VERTEX
8
CUT
10
103.8168
20
46.5153
0
VERTEX
8
CUT
10
102.4637
20
47.5687
0
VERTEX
8
CUT
10
102.1862
20
47.4586
0
VERTEX
8
CUT
10
102.0696
20
47.1461
0
VERTEX
8
CUT
10
103.1793
20
43.7528
0
VERTEX
8
CUT
10
103.3303
20
42.2137
0
VERTEX
8
CUT
10
103.1894
20
41.0248
0
VERTEX
8
CUT
10
102.9069
20
40.6253
0
VERTEX
8
CUT
10
102.1266
20
40.4867
0
VERTEX
8
CUT
10
99.4559
20
41.1084
0
VERTEX
8
CUT
10
97.1164
20
42.2968
0
VERTEX
8
CUT
10
95.5623
20
43.7624
0
VERTEX
8
CUT
10
94.0102
20
46.3883
0
VERTEX
8
CUT
10
93.4804
20
49.1545
0
VERTEX
8
CUT
10
92.2662
20
50.7466
0
VERTEX
8
CUT
10
90.3909
20
51.7204
0
VERTEX
8
CUT
10
87.2984
20
52.7719
0
VERTEX
8
CUT
10
85.9479
20
53.1416
0
VERTEX
8
CUT
10
85.5534
20
52.8390
0
VERTEX
8
CUT
10
86.1047
20
51.7588
0
VERTEX
8
CUT
10
89.0940
20
47.7236
0
VERTEX
8
CUT
10
92.8039
20
43.0863
0
VERTEX
8
CUT
10
95.9708
20
39.5301
0
VERTEX
8
CUT
10
97.8402
20
37.7217
0
VERTEX
8
CUT
10
101.3916
20
34.9393
0
VERTEX
8
CUT
10
104.7533
20
33.1405
0
VERTEX
8
CUT
10
107.7893
20
32.3845
0
VERTEX
8
CUT
10
109.9341
20
32.5258
0
VERTEX
8
CUT
10
111.2645
20
32.9260
0
VERTEX
8
CUT
10
112.8385
20
34.0239
0
VERTEX
8
CUT
10
114.4368
20
36.0420
0
VERTEX
8
CUT
10
115.4627
20
37.0079
0
VERTEX
8
CUT
10
116.8748
20
37.8880
0
VERTEX
8
CUT
10
118.8741
20
38.6823
0
VERTEX
8
CUT
10
120.4432
20
38.8649
0
VERTEX
8
CUT
10
123.2610
20
38.7425
0
VERTEX
8
CUT
10
124.9844
20
38.4614
0
VERTEX
8
CUT
10
126.5335
20
37.7175
0
VERTEX
8
CUT
10
126.7395
20
37.2642
0
VERTEX
8
CUT
10
126.4599
20
36.2491
0
VERTEX
8
CUT
10
124.9870
20
33.9066
0
VERTEX
8
CUT
10
123.0499
20
31.6705
0
VERTEX
8
CUT
10
121.0589
20
30.3133
0
VERTEX
8
CUT
10
119.8690
20
29.9309
0
VERTEX
8
CUT
10
118.4489
20
29.7720
0
VERTEX
8
CUT
10
116.2884
20
29.8320
0
VERTEX
8
CUT
10
113.4967
20
30.1903
0
VERTEX
8
CUT
10
110.9224
20
29.7275
0
VERTEX
8
CUT
10
110.1508
20
29.3338
0
VERTEX
8
CUT
10
110.3017
20
28.8034
0
VERTEX
8
CUT
10
114.4484
20
26.8774
0
VERTEX
8
CUT
10
118.4943
20
25.4775
0
VERTEX
8
CUT
10
121.4038
20
24.9982
0
VERTEX
8
CUT
10
123.7502
20
25.0898
0
VERTEX
8
CUT
10
126.4312
20
25.9230
0
VERTEX
8
CUT
10
127.2696
20
26.7921
0
VERTEX
8
CUT
10
127.5168
20
27.4530
0
VERTEX
8
CUT
10
127.9509
20
31.1848
0
VERTEX
8
CUT
10
128.4516
20
32.7615
0
VERTEX
8
CUT
10
129.2448
20
34.1297
0
VERTEX
8
CUT
10
130.3701
20
35.2846
0
VERTEX
8
CUT
10
132.6620
20
36.8523
0
VERTEX
8
CUT
10
135.0180
20
38.0018
0
VERTEX
8
CUT
10
136.0264
20
38.1698
0
VERTEX
8
CUT
10
136.5671
20
37.5364
0
VERTEX
8
CUT
10
136.8534
20
36.3949
0
VERTEX
8
CUT
10
136.9744
20
34.1000
0
VERTEX
8
CUT
10
136.7936
20
32.3922
0
VERTEX
8
CUT
10
135.8493
20
29.9717
0
VERTEX
8
CUT
10
134.7997
20
28.5910
0
VERTEX
8
CUT
10
133.2782
20
27.2228
0
VERTEX
8
CUT
10
133.3195
20
26.7866
0
VERTEX
8
CUT
10
133.7404
20
26.6649
0
VERTEX
8
CUT
10
136.1749
20
27.8619
0
VERTEX
8
CUT
10
137.1625
20
28.7301
0
VERTEX
8
CUT
10
137.8337
20
29.7421
0
VERTEX
8
CUT
10
138.9749
20
32.8593
0
VERTEX
8
CUT
10
139.7281
20
34.2171
0
VERTEX
8
CUT
10
140.6993
20
35.3827
0
VERTEX
8
CUT
10
141.8717
20
36.3389
0
VERTEX
8
CUT
10
144.9335
20
37.6771
0
VERTEX
8
CUT
10
146.9477
20
38.1084
0
VERTEX
8
CUT
10
150.2783
20
38.5037
0
VERTEX
8
CUT
10
151.3489
20
38.3183
0
VERTEX
8
CUT
10
151.6195
20
37.8949
0
VERTEX
8
CUT
10
151.6202
20
36.8138
0
VERTEX
8
CUT
10
150.9125
20
34.1893
0
VERTEX
8
CUT
10
149.6864
20
31.5645
0
VERTEX
8
CUT
10
147.7495
20
29.2352
0
VERTEX
8
CUT
10
146.0892
20
28.1828
0
VERTEX
8
CUT
10
145.0990
20
27.8073
0
VERTEX
8
CUT
10
139.8396
20
26.4839
0
VERTEX
8
CUT
10
137.3313
20
25.2148
0
VERTEX
8
CUT
10
136.7887
20
24.6634
0
VERTEX
8
CUT
10
137.0972
20
24.2753
0
VERTEX
8
CUT
10
138.7953
20
24.2502
0
VERTEX
8
CUT
10
142.3622
20
25.5862
0
VERTEX
8
CUT
10
144.2039
20
25.8373
0
VERTEX
8
CUT
10
146.8862
20
25.4466
0
VERTEX
8
CUT
10
149.1650
20
24.2074
0
VERTEX
8
CUT
10
151.8096
20
21.9548
0
VERTEX
8
CUT
10
152.3070
20
21.0319
0
VERTEX
8
CUT
10
152.1650
20
20.6866
0
VERTEX
8
CUT
10
151.4195
20
20.0922
0
VERTEX
8
CUT
10
148.6860
20
19.0908
0
VERTEX
8
CUT
10
147.1540
20
18.8503
0
VERTEX
8
CUT
10
145.5268
20
18.8798
0
VERTEX
8
CUT
10
143.1027
20
19.3950
0
VERTEX
8
CUT
10
138.9585
20
20.8362
0
VERTEX
8
CUT
10
132.7294
20
22.1533
0
VERTEX
8
CUT
10
128.9676
20
22.7191
0
VERTEX
8
CUT
10
127.1816
20
22.5797
0
VERTEX
8
CUT
10
126.8292
20
22.3173
0
VERTEX
8
CUT
10
126.9536
20
21.8706
0
VERTEX
8
CUT
10
127.7222
20
21.6384
0
VERTEX
8
CUT
10
131.3396
20
21.2445
0
VERTEX
8
CUT
10
134.2267
20
20.6735
0
VERTEX
8
CUT
10
136.5462
20
19.3551
0
VERTEX
8
CUT
10
138.8836
20
17.0519
0
VERTEX
8
CUT
10
140.7651
20
14.4067
0
VERTEX
8
CUT
10
141.1091
20
13.7393
0
VERTEX
8
CUT
10
141.2645
20
12.8235
0
VERTEX
8
CUT
10
140.9907
20
12.3932
0
VERTEX
8
CUT
10
140.5310
20
12.1526
0
VERTEX
8
CUT
10
136.8980
20
11.4088
0
VERTEX
8
CUT
10
134.9247
20
11.3451
0
VERTEX
8
CUT
10
133.0634
20
11.5587
0
VERTEX
8
CUT
10
131.3747
20
12.0205
0
VERTEX
8
CUT
10
129.8977
20
12.8194
0
VERTEX
8
CUT
10
128.5303
20
13.8807
0
VERTEX
8
CUT
10
127.3539
20
15.1796
0
VERTEX
8
CUT
10
125.4973
20
18.1411
0
VERTEX
8
CUT
10
124.8683
20
18.6825
0
VERTEX
8
CUT
10
123.3130
20
19.5611
0
VERTEX
8
CUT
10
120.0848
20
20.9651
0
VERTEX
8
CUT
10
117.7763
20
21.7190
0
VERTEX
8
CUT
10
117.4574
20
21.6331
0
VERTEX
8
CUT
10
117.3208
20
21.3710
0
VERTEX
8
CUT
10
117.4075
20
21.0885
0
VERTEX
8
CUT
10
119.2938
20
19.2379
0
VERTEX
8
CUT
10
120.0607
20
18.2293
0
VERTEX
8
CUT
10
121.2682
20
16.0903
0
VERTEX
8
CUT
10
121.9383
20
13.6171
0
VERTEX
8
CUT
10
121.8641
20
12.6202
0
VERTEX
8
CUT
10
121.1851
20
11.6606
0
VERTEX
8
CUT
10
121.4213
20
11.2148
0
VERTEX
8
CUT
10
132.5922
20
9.5413
0
VERTEX
8
CUT
10
141.7861
20
8.8226
0
VERTEX
8
CUT
10
149.4622
20
8.6129
0
VERTEX
8
CUT
10
157.4655
20
8.8527
0
VERTEX
8
CUT
10
167.2913
20
9.5117
0
VERTEX
8
CUT
10
173.5376
20
10.2326
0
VERTEX
8
CUT
10
179.4980
20
11.2813
0
VERTEX
8
CUT
10
187.6484
20
13.1695
0
VERTEX
8
CUT
10
195.4260
20
15.5028
0
VERTEX
8
CUT
10
202.7631
20
18.2575
0
VERTEX
8
CUT
10
208.9005
20
21.0633
0
VERTEX
8
CUT
10
211.2041
20
27.1626
0
VERTEX
8
CUT
10
212.7330
20
31.8679
0
VERTEX
8
CUT
10
213.3550
20
34.1656
0
VERTEX
8
CUT
10
213.0730
20
34.6054
0
VERTEX
8
CUT
10
211.6040
20
33.8543
0
VERTEX
8
CUT
10
207.9000
20
31.2963
0
VERTEX
8
CUT
10
207.6785
20
30.5547
0
VERTEX
8
CUT
10
207.4716
20
27.6469
0
VERTEX
8
CUT
10
207.0226
20
26.2114
0
VERTEX
8
CUT
10
206.2747
20
24.9549
0
VERTEX
8
CUT
10
205.1371
20
23.7476
0
VERTEX
8
CUT
10
203.2967
20
22.4971
0
VERTEX
8
CUT
10
201.4000
20
21.7595
0
VERTEX
8
CUT
10
200.5144
20
21.7368
0
VERTEX
8
CUT
10
200.2099
20
22.0729
0
VERTEX
8
CUT
10
199.9437
20
23.2813
0
VERTEX
8
CUT
10
199.9405
20
24.9141
0
VERTEX
8
CUT
10
200.4759
20
27.6049
0
VERTEX
8
CUT
10
200.2314
20
27.9264
0
VERTEX
8
CUT
10
199.8333
20
27.8582
0
VERTEX
8
CUT
10
199.1137
20
26.3778
0
VERTEX
8
CUT
10
198.4928
20
22.3371
0
VERTEX
8
CUT
10
197.2852
20
19.8595
0
VERTEX
8
CUT
10
196.6048
20
18.9067
0
VERTEX
8
CUT
10
194.9909
20
17.3871
0
VERTEX
8
CUT
10
193.9584
20
16.7627
0
VERTEX
8
CUT
10
191.5269
20
15.7421
0
VERTEX
8
CUT
10
188.3627
20
14.9458
0
VERTEX
8
CUT
10
187.5502
20
14.9473
0
VERTEX
8
CUT
10
187.1343
20
15.2099
0
VERTEX
8
CUT
10
186.8685
20
15.5936
0
VERTEX
8
CUT
10
186.8312
20
16.1667
0
VERTEX
8
CUT
10
187.8540
20
19.6865
0
VERTEX
8
CUT
10
189.0574
20
22.3941
0
VERTEX
8
CUT
10
190.5288
20
24.3462
0
VERTEX
8
CUT
10
192.4858
20
25.8839
0
VERTEX
8
CUT
10
196.0144
20
27.8483
0
VERTEX
8
CUT
10
196.4625
20
28.3320
0
VERTEX
8
CUT
10
196.2160
20
28.7883
0
VERTEX
8
CUT
10
192.8999
20
28.4557
0
VERTEX
8
CUT
10
188.9674
20
27.5629
0
VERTEX
8
CUT
10
186.5297
20
26.7199
0
VERTEX
8
CUT
10
183.8102
20
25.2969
0
VERTEX
8
CUT
10
183.0335
20
24.6053
0
VERTEX
8
CUT
10
182.5513
20
23.8202
0
VERTEX
8
CUT
10
181.7393
20
19.5241
0
VERTEX
8
CUT
10
180.5569
20
17.1143
0
VERTEX
8
CUT
10
179.6695
20
16.0175
0
VERTEX
8
CUT
10
177.4191
20
14.0454
0
VERTEX
8
CUT
10
176.1613
20
13.2211
0
VERTEX
8
CUT
10
173.5854
20
12.1128
0
VERTEX
8
CUT
10
172.2746
20
11.8245
0
VERTEX
8
CUT
10
171.0084
20
11.7973
0
VERTEX
8
CUT
10
170.5237
20
11.9826
0
VERTEX
8
CUT
10
170.0830
20
12.6837
0
VERTEX
8
CUT
10
170.3208
20
14.8563
0
VERTEX
8
CUT
10
170.9315
20
17.2685
0
VERTEX
8
CUT
10
171.5958
20
18.8701
0
VERTEX
8
CUT
10
172.8019
20
20.7524
0
VERTEX
8
CUT
10
172.5616
20
21.1894
0
VERTEX
8
CUT
10
171.4120
20
21.3078
0
VERTEX
8
CUT
10
168.5947
20
21.0652
0
VERTEX
8
CUT
10
166.7874
20
20.2913
0
VERTEX
8
CUT
10
162.8522
20
15.4066
0
VERTEX
8
CUT
10
161.9296
20
14.6138
0
VERTEX
8
CUT
10
159.8794
20
13.4556
0
VERTEX
8
CUT
10
156.3885
20
12.4025
0
VERTEX
8
CUT
10
153.8051
20
12.0660
0
VERTEX
8
CUT
10
152.0509
20
12.2615
0
VERTEX
8
CUT
10
151.6840
20
12.4928
0
VERTEX
8
CUT
10
151.5955
20
12.9205
0
VERTEX
8
CUT
10
152.0395
20
14.4816
0
VERTEX
8
CUT
10
153.5688
20
17.2397
0
VERTEX
8
CUT
10
154.7830
20
18.8218
0
VERTEX
8
CUT
10
156.0997
20
20.0146
0
VERTEX
8
CUT
10
158.0974
20
21.0350
0
VERTEX
8
CUT
10
163.3585
20
21.8204
0
VERTEX
8
CUT
10
164.3868
20
22.4514
0
VERTEX
8
CUT
10
164.9675
20
23.1018
0
VERTEX
8
CUT
10
164.6181
20
23.5276
0
VERTEX
8
CUT
10
161.0814
20
23.3794
0
VERTEX
8
CUT
10
159.4181
20
23.5396
0
VERTEX
8
CUT
10
156.4426
20
24.8153
0
VERTEX
8
CUT
10
153.9986
20
26.5570
0
VERTEX
8
CUT
10
152.7042
20
28.0681
0
VERTEX
8
CUT
10
152.7483
20
28.7323
0
VERTEX
8
CUT
10
153.9616
20
29.6140
0
VERTEX
8
CUT
10
156.0686
20
30.4745
0
VERTEX
8
CUT
10
157.4682
20
30.7288
0
VERTEX
8
CUT
10
159.5512
20
30.7285
0
VERTEX
8
CUT
10
161.2950
20
30.3978
0
VERTEX
8
CUT
10
163.7605
20
29.1430
0
VERTEX
8
CUT
10
166.5324
20
26.8652
0
VERTEX
8
CUT
10
168.5842
20
25.6223
0
VERTEX
8
CUT
10
170.6901
20
24.9428
0
VERTEX
8
CUT
10
171.7945
20
24.8203
0
VERTEX
8
CUT
10
173.8678
20
25.0249
0
VERTEX
8
CUT
10
176.5625
20
26.0306
0
VERTEX
8
CUT
10
182.0707
20
28.6344
0
VERTEX
8
CUT
10
184.4527
20
30.0594
0
VERTEX
8
CUT
10
184.3994
20
30.5171
0
VERTEX
8
CUT
10
183.7219
20
30.8238
0
VERTEX
8
CUT
10
180.8750
20
31.2112
0
VERTEX
8
CUT
10
179.9139
20
31.0551
0
VERTEX
8
CUT
10
176.4509
20
29.2870
0
VERTEX
8
CUT
10
174.3469
20
28.6052
0
VERTEX
8
CUT
10
172.3369
20
28.5429
0
VERTEX
8
CUT
10
169.5293
20
29.2861
0
VERTEX
8
CUT
10
168.6127
20
29.8005
0
VERTEX
8
CUT
10
168.2490
20
30.4801
0
VERTEX
8
CUT
10
168.6060
20
31.2377
0
VERTEX
8
CUT
10
169.8472
20
32.4711
0
VERTEX
8
CUT
10
171.7682
20
33.6717
0
VERTEX
8
CUT
10
172.8892
20
34.1195
0
VERTEX
8
CUT
10
175.0010
20
34.4814
0
VERTEX
8
CUT
10
177.0350
20
34.2851
0
VERTEX
8
CUT
10
177.3204
20
34.5160
0
VERTEX
8
CUT
10
177.2870
20
34.8815
0
VERTEX
8
CUT
10
175.3684
20
35.6994
0
VERTEX
8
CUT
10
172.5759
20
36.3135
0
VERTEX
8
CUT
10
168.0999
20
35.3565
0
VERTEX
8
CUT
10
165.5004
20
35.6383
0
VERTEX
8
CUT
10
163.8440
20
36.2865
0
VERTEX
8
CUT
10
161.9970
20
37.4685
0
VERTEX
8
CUT
10
160.1450
20
38.9579
0
VERTEX
8
CUT
10
158.3848
20
40.9311
0
VERTEX
8
CUT
10
158.2543
20
41.3940
0
VERTEX
8
CUT
10
158.4149
20
41.6644
0
VERTEX
8
CUT
10
159.9374
20
42.5789
0
VERTEX
8
CUT
10
163.1782
20
43.5093
0
VERTEX
8
CUT
10
165.8195
20
43.5138
0
VERTEX
8
CUT
10
168.2445
20
42.7008
0
VERTEX
8
CUT
10
169.3824
20
41.9889
0
VERTEX
8
CUT
10
172.6749
20
39.2719
0
VERTEX
8
CUT
10
173.4546
20
38.9758
0
VERTEX
8
CUT
10
174.2037
20
38.9842
0
VERTEX
8
CUT
10
174.2902
20
39.5077
0
VERTEX
8
CUT
10
172.3759
20
41.4645
0
VERTEX
8
CUT
10
171.5114
20
42.6724
0
VERTEX
8
CUT
10
170.7460
20
45.0225
0
VERTEX
8
CUT
10
170.5294
20
47.2487
0
VERTEX
8
CUT
10
170.6791
20
49.1763
0
VERTEX
8
CUT
10
171.1490
20
50.4801
0
VERTEX
8
CUT
10
171.6130
20
50.7908
0
VERTEX
8
CUT
10
172.4832
20
50.6676
0
VERTEX
8
CUT
10
174.1425
20
49.7120
0
VERTEX
8
CUT
10
176.1586
20
48.0267
0
VERTEX
8
CUT
10
177.4691
20
46.5521
0
VERTEX
8
CUT
10
178.5102
20
44.2283
0
VERTEX
8
CUT
10
178.6876
20
39.3349
0
VERTEX
8
CUT
10
179.1103
20
38.3483
0
VERTEX
8
CUT
10
179.9388
20
37.3752
0
VERTEX
8
CUT
10
181.6527
20
35.9335
0
VERTEX
8
CUT
10
184.1468
20
34.4220
0
VERTEX
8
CUT
10
186.7882
20
33.3070
0
VERTEX
8
CUT
10
189.2905
20
32.6563
0
VERTEX
8
CUT
10
190.4552
20
32.5644
0
VERTEX
8
CUT
10
194.6875
20
32.9504
0
VERTEX
8
CUT
10
203.2087
20
34.3542
0
VERTEX
8
CUT
10
206.4392
20
35.5212
0
VERTEX
8
CUT
10
208.4033
20
36.5051
0
VERTEX
8
CUT
10
209.3736
20
37.2439
0
VERTEX
8
CUT
10
209.3468
20
37.5758
0
VERTEX
8
CUT
10
209.1106
20
37.7576
0
VERTEX
8
CUT
10
203.9220
20
38.6255
0
VERTEX
8
CUT
10
202.9377
20
38.5207
0
VERTEX
8
CUT
10
199.7871
20
37.4328
0
VERTEX
8
CUT
10
198.6188
20
37.3367
0
VERTEX
8
CUT
10
197.3985
20
37.4011
0
VERTEX
8
CUT
10
195.0375
20
38.0507
0
VERTEX
8
CUT
10
191.7851
20
39.8881
0
VERTEX
8
CUT
10
190.8429
20
40.7930
0
VERTEX
8
CUT
10
190.6417
20
41.2530
0
VERTEX
8
CUT
10
190.7212
20
41.7535
0
VERTEX
8
CUT
10
191.0817
20
42.1852
0
VERTEX
8
CUT
10
192.2524
20
43.0259
0
VERTEX
8
CUT
10
193.6073
20
43.6883
0
VERTEX
8
CUT
10
196.1845
20
44.3874
0
VERTEX
8
CUT
10
198.6852
20
44.3538
0
VERTEX
8
CUT
10
201.0924
20
43.5345
0
VERTEX
8
CUT
10
203.6098
20
42.0388
0
VERTEX
8
CUT
10
205.1132
20
41.4451
0
VERTEX
8
CUT
10
208.8563
20
40.7551
0
VERTEX
8
CUT
10
210.5760
20
40.7281
0
VERTEX
8
CUT
10
212.0897
20
41.0199
0
VERTEX
8
CUT
10
213.4957
20
41.6676
0
VERTEX
8
CUT
10
214.8213
20
42.7656
0
VERTEX
8
CUT
10
216.1086
20
44.3497
0
VERTEX
8
CUT
10
217.4878
20
46.5213
0
VERTEX
8
CUT
10
218.9867
20
49.3367
0
VERTEX
8
CUT
10
221.8987
20
55.6410
0
VERTEX
8
CUT
10
222.3185
20
56.7898
0
VERTEX
8
CUT
10
222.1868
20
57.1754
0
VERTEX
8
CUT
10
221.7833
20
57.2325
0
VERTEX
8
CUT
10
219.6292
20
56.1297
0
VERTEX
8
CUT
10
217.0577
20
54.2157
0
VERTEX
8
CUT
10
216.2462
20
53.1470
0
VERTEX
8
CUT
10
215.2363
20
50.2062
0
VERTEX
8
CUT
10
214.6012
20
49.0299
0
VERTEX
8
CUT
10
213.8194
20
48.0070
0
VERTEX
8
CUT
10
211.9856
20
46.4443
0
VERTEX
8
CUT
10
210.4200
20
45.5988
0
VERTEX
8
CUT
10
208.6949
20
45.0845
0
VERTEX
8
CUT
10
206.7478
20
44.8094
0
VERTEX
8
CUT
10
204.8480
20
44.8124
0
VERTEX
8
CUT
10
204.1830
20
44.9503
0
VERTEX
8
CUT
10
203.8501
20
45.2282
0
VERTEX
8
CUT
10
203.6926
20
45.7096
0
VERTEX
8
CUT
10
204.0343
20
46.9791
0
VERTEX
8
CUT
10
205.0871
20
49.0792
0
VERTEX
8
CUT
10
206.5941
20
50.9460
0
VERTEX
8
CUT
10
208.4281
20
52.3291
0
VERTEX
8
CUT
10
210.4177
20
53.2250
0
VERTEX
8
CUT
10
210.4957
20
53.7657
0
VERTEX
8
CUT
10
210.1684
20
53.9242
0
VERTEX
8
CUT
10
209.3185
20
53.7334
0
VERTEX
8
CUT
10
205.6953
20
52.4383
0
VERTEX
8
CUT
10
203.8553
20
52.1319
0
VERTEX
8
CUT
10
202.0723
20
52.1935
0
VERTEX
8
CUT
10
200.3196
20
52.6240
0
VERTEX
8
CUT
10
198.6394
20
53.4366
0
VERTEX
8
CUT
10
197.1039
20
54.5516
0
VERTEX
8
CUT
10
195.6317
20
55.9926
0
VERTEX
8
CUT
10
193.6911
20
58.6973
0
VERTEX
8
CUT
10
193.3415
20
59.3830
0
VERTEX
8
CUT
10
193.2738
20
60.0953
0
VERTEX
8
CUT
10
193.8479
20
60.4836
0
VERTEX
8
CUT
10
194.7184
20
60.7052
0
VERTEX
8
CUT
10
197.2667
20
61.0714
0
VERTEX
8
CUT
10
202.1069
20
61.2540
0
VERTEX
8
CUT
10
204.0799
20
60.7056
0
VERTEX
8
CUT
10
205.4483
20
60.0996
0
VERTEX
8
CUT
10
206.4639
20
59.4663
0
VERTEX
8
CUT
10
208.1135
20
57.9982
0
VERTEX
8
CUT
10
209.6996
20
57.2547
0
VERTEX
8
CUT
10
212.6126
20
57.3218
0
VERTEX
8
CUT
10
216.0515
20
58.3207
0
VERTEX
8
CUT
10
217.2913
20
59.0640
0
VERTEX
8
CUT
10
217.2849
20
59.6211
0
VERTEX
8
CUT
10
216.2269
20
59.9919
0
VERTEX
8
CUT
10
213.6719
20
60.2095
0
VERTEX
8
CUT
10
212.2787
20
60.6736
0
VERTEX
8
CUT
10
211.0117
20
61.4151
0
VERTEX
8
CUT
10
209.9222
20
62.3816
0
VERTEX
8
CUT
10
208.9749
20
63.6368
0
VERTEX
8
CUT
10
208.2603
20
65.1337
0
VERTEX
8
CUT
10
207.5073
20
68.5365
0
VERTEX
8
CUT
10
207.4445
20
70.3952
0
VERTEX
8
CUT
10
207.8183
20
71.4081
0
VERTEX
8
CUT
10
208.3765
20
71.5757
0
VERTEX
8
CUT
10
209.7435
20
71.2925
0
VERTEX
8
CUT
10
212.3615
20
70.2989
0
VERTEX
8
CUT
10
214.8394
20
69.0997
0
VERTEX
8
CUT
10
215.7339
20
68.4459
0
VERTEX
8
CUT
10
217.0442
20
66.9176
0
VERTEX
8
CUT
10
218.4054
20
63.9026
0
VERTEX
8
CUT
10
219.2405
20
62.7562
0
VERTEX
8
CUT
10
220.3047
20
62.2905
0
VERTEX
8
CUT
10
221.0984
20
62.3427
0
VERTEX
8
CUT
10
223.3503
20
63.2785
0
VERTEX
8
CUT
10
226.9946
20
66.1854
0
VERTEX
8
CUT
10
236.2038
20
74.4950
0
VERTEX
8
CUT
10
242.0004
20
80.5900
0
VERTEX
8
CUT
10
243.5666
20
82.5481
0
VERTEX
8
CUT
10
246.2848
20
86.5524
0
VERTEX
8
CUT
10
248.1040
20
89.8358
0
VERTEX
8
CUT
10
248.2849
20
90.3518
0
VERTEX
8
CUT
10
248.0822
20
90.6939
0
VERTEX
8
CUT
10
247.6848
20
90.6797
0
VERTEX
8
CUT
10
243.9648
20
88.0907
0
VERTEX
8
CUT
10
240.4511
20
85.0532
0
VERTEX
8
CUT
10
239.6452
20
83.8511
0
VERTEX
8
CUT
10
238.7688
20
80.7991
0
VERTEX
8
CUT
10
238.2599
20
79.6548
0
VERTEX
8
CUT
10
237.0282
20
77.8521
0
VERTEX
8
CUT
10
236.2286
20
77.0778
0
VERTEX
8
CUT
10
235.3224
20
76.3996
0
VERTEX
8
CUT
10
233.5514
20
75.5183
0
VERTEX
8
CUT
10
231.8422
20
75.0322
0
VERTEX
8
CUT
10
230.1507
20
74.8209
0
VERTEX
8
CUT
10
229.3996
20
74.7942
0
VERTEX
8
CUT
10
228.4397
20
75.0427
0
VERTEX
8
CUT
10
228.1144
20
75.3861
0
VERTEX
8
CUT
10
228.0318
20
75.7897
0
VERTEX
8
CUT
10
228.7728
20
78.6627
0
VERTEX
8
CUT
10
230.0640
20
81.3052
0
VERTEX
8
CUT
10
230.8744
20
82.4298
0
VERTEX
8
CUT
10
231.8457
20
83.3674
0
VERTEX
8
CUT
10
233.9840
20
84.7228
0
VERTEX
8
CUT
10
236.9086
20
85.9024
0
VERTEX
8
CUT
10
237.4227
20
86.3524
0
VERTEX
8
CUT
10
237.3123
20
86.8255
0
VERTEX
8
CUT
10
235.3404
20
86.8254
0
VERTEX
8
CUT
10
230.1418
20
86.0553
0
VERTEX
8
CUT
10
225.3919
20
83.7128
0
VERTEX
8
CUT
10
224.0064
20
83.3210
0
VERTEX
8
CUT
10
222.5137
20
83.2549
0
VERTEX
8
CUT
10
219.9103
20
83.8086
0
VERTEX
8
CUT
10
216.7750
20
85.2554
0
VERTEX
8
CUT
10
214.2683
20
87.0865
0
VERTEX
8
CUT
10
213.3881
20
88.0633
0
VERTEX
8
CUT
10
213.2149
20
88.5950
0
VERTEX
8
CUT
10
213.7357
20
89.3293
0
VERTEX
8
CUT
10
216.3268
20
90.7956
0
VERTEX
8
CUT
10
218.5733
20
91.6161
0
VERTEX
8
CUT
10
220.3442
20
91.8963
0
VERTEX
8
CUT
10
223.4243
20
91.8911
0
VERTEX
8
CUT
10
229.1068
20
89.1499
0
VERTEX
8
CUT
10
229.8557
20
89.1385
0
VERTEX
8
CUT
10
230.7830
20
89.4333
0
VERTEX
8
CUT
10
230.7109
20
89.9823
0
VERTEX
8
CUT
10
228.5996
20
90.9277
0
VERTEX
8
CUT
10
227.1263
20
92.0250
0
VERTEX
8
CUT
10
225.9247
20
93.3467
0
VERTEX
8
CUT
10
224.9521
20
94.9183
0
VERTEX
8
CUT
10
224.2825
20
96.8768
0
VERTEX
8
CUT
10
223.8913
20
100.2046
0
VERTEX
8
CUT
10
224.1226
20
101.9856
0
VERTEX
8
CUT
10
224.3947
20
102.5720
0
VERTEX
8
CUT
10
224.9820
20
103.0247
0
VERTEX
8
CUT
10
225.6969
20
102.8574
0
VERTEX
8
CUT
10
229.1140
20
101.1488
0
VERTEX
8
CUT
10
231.4623
20
99.4463
0
VERTEX
8
CUT
10
232.3214
20
98.5499
0
VERTEX
8
CUT
10
233.4779
20
96.5663
0
VERTEX
8
CUT
10
234.4332
20
92.4807
0
VERTEX
8
CUT
10
234.7757
20
91.8246
0
VERTEX
8
CUT
10
235.7140
20
91.0706
0
VERTEX
8
CUT
10
237.3815
20
90.5327
0
VERTEX
8
CUT
10
239.4394
20
90.7122
0
VERTEX
8
CUT
10
241.5929
20
91.5466
0
VERTEX
8
CUT
10
243.9390
20
92.9817
0
VERTEX
8
CUT
10
246.3292
20
95.0061
0
VERTEX
8
CUT
10
248.5914
20
97.4152
0
VERTEX
8
CUT
10
250.7048
20
100.3119
0
VERTEX
8
CUT
10
252.5358
20
103.4423
0
VERTEX
8
CUT
10
253.4730
20
105.4650
0
VERTEX
8
CUT
10
255.9179
20
112.4722
0
VERTEX
8
CUT
10
256.8040
20
116.7805
0
VERTEX
8
CUT
10
256.4016
20
117.0107
0
VERTEX
8
CUT
10
255.9206
20
116.6384
0
VERTEX
8
CUT
10
249.6334
20
109.2522
0
VERTEX
8
CUT
10
249.2806
20
108.4023
0
VERTEX
8
CUT
10
249.0933
20
106.8247
0
VERTEX
8
CUT
10
248.6579
20
105.6111
0
VERTEX
8
CUT
10
247.9453
20
104.4643
0
VERTEX
8
CUT
10
247.0176
20
103.4746
0
VERTEX
8
CUT
10
244.6131
20
101.9790
0
VERTEX
8
CUT
10
243.1370
20
101.5126
0
VERTEX
8
CUT
10
240.6928
20
101.2021
0
VERTEX
8
CUT
10
239.4936
20
101.3309
0
VERTEX
8
CUT
10
239.0880
20
101.7029
0
VERTEX
8
CUT
10
239.0241
20
102.7886
0
VERTEX
8
CUT
10
239.8965
20
105.5864
0
VERTEX
8
CUT
10
240.9029
20
107.4060
0
VERTEX
8
CUT
10
242.1404
20
108.7033
0
VERTEX
8
CUT
10
242.9409
20
109.2313
0
VERTEX
8
CUT
10
245.9819
20
110.3981
0
VERTEX
8
CUT
10
246.7752
20
110.8801
0
VERTEX
8
CUT
10
248.8709
20
113.3894
0
VERTEX
8
CUT
10
250.5074
20
115.9180
0
VERTEX
8
CUT
10
250.3688
20
116.1785
0
VERTEX
8
CUT
10
250.0497
20
116.2621
0
VERTEX
8
CUT
10
247.3865
20
115.3743
0
VERTEX
8
CUT
10
245.6327
20
115.1867
0
VERTEX
8
CUT
10
243.9405
20
115.3442
0
VERTEX
8
CUT
10
242.4754
20
115.8487
0
VERTEX
8
CUT
10
240.5429
20
117.2639
0
VERTEX
8
CUT
10
238.8252
20
119.2526
0
VERTEX
8
CUT
10
237.5697
20
121.4802
0
VERTEX
8
CUT
10
237.3460
20
122.6630
0
VERTEX
8
CUT
10
237.6291
20
123.1156
0
VERTEX
8
CUT
10
238.7591
20
123.5286
0
VERTEX
8
CUT
10
242.2176
20
123.7689
0
VERTEX
8
CUT
10
244.3683
20
123.6489
0
VERTEX
8
CUT
10
245.3218
20
123.3874
0
VERTEX
8
CUT
10
246.9153
20
122.5756
0
VERTEX
8
CUT
10
251.0177
20
119.3259
0
VERTEX
8
CUT
10
252.0303
20
119.4468
0
VERTEX
8
CUT
10
253.9577
20
120.4365
0
VERTEX
8
CUT
10
254.6906
20
121.1433
0
VERTEX
8
CUT
10
255.9907
20
123.2260
0
VERTEX
8
CUT
10
257.7206
20
127.3962
0
VERTEX
8
CUT
10
259.0371
20
132.5684
0
VERTEX
8
CUT
10
260.1731
20
139.5235
0
VERTEX
8
CUT
10
259.7635
20
139.8880
0
VERTEX
8
CUT
10
259.1486
20
139.5039
0
VERTEX
8
CUT
10
257.6391
20
139.3573
0
VERTEX
8
CUT
10
256.8983
20
137.9699
0
VERTEX
8
CUT
10
256.0675
20
137.1668
0
VERTEX
8
CUT
10
255.0809
20
136.7090
0
VERTEX
8
CUT
10
253.4363
20
136.7522
0
VERTEX
8
CUT
10
251.7987
20
134.5449
0
VERTEX
8
CUT
10
250.3683
20
133.9746
0
VERTEX
8
CUT
10
249.2187
20
134.2530
0
VERTEX
8
CUT
10
248.5757
20
134.8031
0
VERTEX
8
CUT
10
247.1043
20
136.6603
0
VERTEX
8
CUT
10
245.6302
20
137.1551
0
VERTEX
8
CUT
10
244.5746
20
138.5561
0
VERTEX
8
CUT
10
244.1455
20
138.6430
0
VERTEX
8
CUT
10
243.4205
20
137.0358
0
VERTEX
8
CUT
10
242.2086
20
135.4742
0
VERTEX
8
CUT
10
241.8034
20
133.4997
0
VERTEX
8
CUT
10
240.6870
20
132.3171
0
VERTEX
8
CUT
10
240.0161
20
131.9159
0
VERTEX
8
CUT
10
239.4071
20
131.8136
0
VERTEX
8
CUT
10
237.8024
20
132.2857
0
VERTEX
8
CUT
10
237.3657
20
132.2167
0
VERTEX
8
CUT
10
236.6442
20
131.5410
0
VERTEX
8
CUT
10
235.9325
20
130.3610
0
VERTEX
8
CUT
10
235.5026
20
128.7318
0
VERTEX
8
CUT
10
234.4647
20
127.7165
0
VERTEX
8
CUT
10
233.4958
20
127.3504
0
VERTEX
8
CUT
10
232.0020
20
127.1105
0
VERTEX
8
CUT
10
230.6619
20
126.2324
0
VERTEX
8
CUT
10
229.7012
20
125.8468
0
VERTEX
8
CUT
10
228.2464
20
126.0091
0
VERTEX
8
CUT
10
227.1404
20
126.8849
0
VERTEX
8
CUT
10
226.4860
20
127.8667
0
VERTEX
8
CUT
10
225.2897
20
128.4473
0
VERTEX
8
CUT
10
224.5709
20
129.0356
0
VERTEX
8
CUT
10
223.9735
20
130.0653
0
VERTEX
8
CUT
10
223.8426
20
131.0585
0
VERTEX
8
CUT
10
223.5830
20
131.4551
0
VERTEX
8
CUT
10
221.1031
20
132.1312
0
VERTEX
8
CUT
10
220.3485
20
132.7168
0
VERTEX
8
CUT
10
219.7315
20
133.5102
0
VERTEX
8
CUT
10
219.4494
20
134.7457
0
VERTEX
8
CUT
10
219.9401
20
136.7684
0
VERTEX
8
CUT
10
218.1638
20
138.6590
0
VERTEX
8
CUT
10
217.7383
20
139.8270
0
VERTEX
8
CUT
10
218.0631
20
141.0054
0
VERTEX
8
CUT
10
219.7946
20
143.3384
0
VERTEX
8
CUT
10
219.9468
20
144.0335
0
VERTEX
8
CUT
10
219.6615
20
144.5552
0
VERTEX
8
CUT
10
218.7465
20
144.9701
0
VERTEX
8
CUT
10
217.8143
20
145.0882
0
VERTEX
8
CUT
10
215.5444
20
143.4338
0
VERTEX
8
CUT
10
214.3953
20
143.2221
0
VERTEX
8
CUT
10
213.2807
20
143.8375
0
VERTEX
8
CUT
10
211.9155
20
145.2790
0
VERTEX
8
CUT
10
209.9245
20
145.7643
0
VERTEX
8
CUT
10
208.6172
20
146.9163
0
VERTEX
8
CUT
10
208.3779
20
147.8858
0
VERTEX
8
CUT
10
208.4326
20
149.1047
0
VERTEX
8
CUT
10
207.2747
20
150.9536
0
VERTEX
8
CUT
10
207.0718
20
153.0872
0
VERTEX
8
CUT
10
206.0220
20
154.4137
0
VERTEX
8
CUT
10
205.6438
20
155.5101
0
VERTEX
8
CUT
10
205.6896
20
156.1152
0
VERTEX
8
CUT
10
206.2350
20
157.1005
0
VERTEX
8
CUT
10
208.1063
20
158.3480
0
VERTEX
8
CUT
10
208.0738
20
160.8218
0
VERTEX
8
CUT
10
207.9014
20
161.4066
0
VERTEX
8
CUT
10
205.9225
20
162.1902
0
VERTEX
8
CUT
10
204.1665
20
160.3582
0
VERTEX
8
CUT
10
203.1249
20
159.7940
0
VERTEX
8
CUT
10
201.5622
20
159.9002
0
VERTEX
8
CUT
10
199.5119
20
159.5774
0
VERTEX
8
CUT
10
198.1229
20
160.1133
0
VERTEX
8
CUT
10
197.6679
20
160.4731
0
VERTEX
8
CUT
10
196.0319
20
162.7047
0
VERTEX
8
CUT
10
194.8986
20
163.7443
0
VERTEX
8
CUT
10
192.8576
20
165.0436
0
VERTEX
8
CUT
10
192.3041
20
165.7934
0
VERTEX
8
CUT
10
191.8072
20
167.5475
0
VERTEX
8
CUT
10
192.4752
20
169.6930
0
VERTEX
8
CUT
10
190.9836
20
171.5558
0
VERTEX
8
CUT
10
190.6159
20
172.5667
0
VERTEX
8
CUT
10
190.5711
20
173.4332
0
VERTEX
8
CUT
10
190.3268
20
173.7029
0
VERTEX
8
CUT
10
189.9367
20
173.6295
0
VERTEX
8
CUT
10
188.6785
20
172.1153
0
VERTEX
8
CUT
10
186.7562
20
170.8492
0
VERTEX
8
CUT
10
186.0551
20
169.8539
0
VERTEX
8
CUT
10
185.2831
20
169.1701
0
VERTEX
8
CUT
10
183.7773
20
168.5309
0
VERTEX
8
CUT
10
182.7822
20
168.5487
0
VERTEX
8
CUT
10
181.5926
20
169.1933
0
VERTEX
8
CUT
10
180.0976
20
170.4848
0
VERTEX
8
CUT
10
179.3687
20
170.7611
0
VERTEX
8
CUT
10
178.5782
20
170.6851
0
VERTEX
8
CUT
10
176.8077
20
169.8018
0
VERTEX
8
CUT
10
175.9697
20
169.6318
0
VERTEX
8
CUT
10
175.1079
20
169.7226
0
VERTEX
8
CUT
10
174.2237
20
170.0668
0
VERTEX
8
CUT
10
173.0956
20
170.9066
0
VERTEX
8
CUT
10
172.6020
20
171.6463
0
VERTEX
8
CUT
10
172.2146
20
173.6207
0
VERTEX
8
CUT
10
171.9656
20
174.0765
0
VERTEX
8
CUT
10
171.6253
20
174.3255
0
VERTEX
8
CUT
10
170.4186
20
174.5365
0
VERTEX
8
CUT
10
169.8591
20
174.9543
0
VERTEX
8
CUT
10
168.7432
20
177.0270
0
VERTEX
8
CUT
10
167.9611
20
177.2502
0
VERTEX
8
CUT
10
167.2543
20
177.1287
0
VERTEX
8
CUT
10
166.7783
20
176.4821
0
VERTEX
8
CUT
10
163.7048
20
169.5301
0
VERTEX
8
CUT
10
163.2433
20
167.8544
0
VERTEX
8
CUT
10
163.4488
20
167.4600
0
VERTEX
8
CUT
10
164.6420
20
166.5293
0
VERTEX
8
CUT
10
165.2082
20
165.0906
0
VERTEX
8
CUT
10
167.3374
20
165.4258
0
VERTEX
8
CUT
10
168.0877
20
165.0686
0
VERTEX
8
CUT
10
168.3628
20
164.5354
0
VERTEX
8
CUT
10
168.3322
20
164.0325
0
VERTEX
8
CUT
10
167.4088
20
161.4671
0
VERTEX
8
CUT
10
167.3579
20
160.7289
0
VERTEX
8
CUT
10
167.6312
20
160.4918
0
VERTEX
8
CUT
10
169.5564
20
160.2786
0
VERTEX
8
CUT
10
170.1937
20
159.7960
0
VERTEX
8
CUT
10
170.2537
20
159.4755
0
VERTEX
8
CUT
10
169.9555
20
158.7428
0
VERTEX
8
CUT
10
168.2530
20
156.5919
0
VERTEX
8
CUT
10
167.4966
20
155.2916
0
VERTEX
8
CUT
10
167.0721
20
154.2688
0
VERTEX
8
CUT
10
167.0606
20
153.6906
0
VERTEX
8
CUT
10
167.4077
20
153.2954
0
VERTEX
8
CUT
10
170.8091
20
151.8347
0
VERTEX
8
CUT
10
175.9716
20
149.0133
0
VERTEX
8
CUT
10
180.8730
20
145.5038
0
VERTEX
8
CUT
10
183.1654
20
143.5419
0
VERTEX
8
CUT
10
187.2135
20
139.3140
0
VERTEX
8
CUT
10
191.6390
20
133.1879
0
VERTEX
8
CUT
10
195.0708
20
126.6159
0
VERTEX
8
CUT
10
197.4628
20
119.7392
0
VERTEX
8
CUT
10
198.9125
20
112.5699
0
VERTEX
8
CUT
10
199.3383
20
105.2781
0
VERTEX
8
CUT
10
198.7096
20
97.9546
0
VERTEX
8
CUT
10
197.0415
20
90.7029
0
VERTEX
8
CUT
10
194.3170
20
83.7570
0
VERTEX
8
CUT
10
192.4163
20
80.1613
0
VERTEX
8
CUT
10
190.2167
20
76.7537
0
VERTEX
8
CUT
10
187.7458
20
73.5571
0
VERTEX
8
CUT
10
185.0046
20
70.5430
0
VERTEX
8
CUT
10
182.0212
20
67.7686
0
VERTEX
8
CUT
10
178.8007
20
65.2167
0
VERTEX
8
CUT
10
175.3934
20
62.9570
0
VERTEX
8
CUT
10
171.8051
20
60.9988
0
VERTEX
8
CUT
10
167.6738
20
59.1914
0
VERTEX
8
CUT
10
163.3636
20
57.7766
0
VERTEX
8
CUT
10
158.9389
20
56.7601
0
VERTEX
8
CUT
10
154.3580
20
56.1256
0
VERTEX
8
CUT
10
149.7511
20
55.8534
0
VERTEX
8
CUT
10
145.0736
20
56.0052
0
VERTEX
8
CUT
10
140.4345
20
56.5791
0
VERTEX
8
CUT
10
135.8681
20
57.5512
0
VERTEX
8
CUT
10
126.4681
20
61.0366
0
VERTEX
8
CUT
10
118.2090
20
66.2210
0
VERTEX
8
CUT
10
111.2463
20
72.8220
0
VERTEX
8
CUT
10
105.7306
20
80.6283
0
VERTEX
8
CUT
10
101.7826
20
89.3981
0
VERTEX
8
CUT
10
99.5280
20
98.8315
0
VERTEX
8
CUT
10
99.1307
20
108.8352
0
VERTEX
8
CUT
10
100.6909
20
119.0160
0
VERTEX
8
CUT
10
101.7477
20
122.5621
0
VERTEX
8
CUT
10
103.0725
20
126.0280
0
VERTEX
8
CUT
10
104.6814
20
129.3988
0
VERTEX
8
CUT
10
106.4928
20
132.6564
0
VERTEX
8
CUT
10
108.5558
20
135.7358
0
VERTEX
8
CUT
10
110.8339
20
138.7117
0
VERTEX
8
CUT
10
113.3344
20
141.4820
0
VERTEX
8
CUT
10
115.9953
20
144.0532
0
VERTEX
8
CUT
10
118.2766
20
145.9098
0
VERTEX
8
CUT
10
123.8616
20
149.7533
0
VERTEX
8
CUT
10
127.3866
20
151.7546
0
VERTEX
8
CUT
10
127.8246
20
152.2344
0
VERTEX
8
CUT
10
127.8243
20
152.9551
0
VERTEX
8
CUT
10
127.3823
20
154.1911
0
VERTEX
8
CUT
10
126.1785
20
156.4510
0
VERTEX
8
CUT
10
124.8110
20
158.3721
0
VERTEX
8
CUT
10
124.3752
20
159.6174
0
VERTEX
8
CUT
10
124.8613
20
160.1581
0
VERTEX
8
CUT
10
126.8114
20
160.5153
0
VERTEX
8
CUT
10
127.0763
20
160.7564
0
VERTEX
8
CUT
10
125.9980
20
164.2299
0
VERTEX
8
CUT
10
126.0314
20
164.7400
0
VERTEX
8
CUT
10
126.2700
20
165.0986
0
VERTEX
8
CUT
10
126.6107
20
165.3840
0
VERTEX
8
CUT
10
127.1477
20
165.4849
0
VERTEX
8
CUT
10
128.6470
20
165.1310
0
VERTEX
8
CUT
10
129.1221
20
165.1800
0
VERTEX
8
CUT
10
129.7786
20
166.7451
0
VERTEX
8
CUT
10
130.3260
20
167.1082
0
VERTEX
8
CUT
10
131.0295
20
167.2696
0
VERTEX
8
CUT
10
131.2050
20
167.7268
0
VERTEX
8
CUT
10
130.5404
20
169.9023
0
VERTEX
8
CUT
10
129.3686
20
172.6070
0
VERTEX
8
CUT
10
127.4614
20
176.5118
0
VERTEX
8
CUT
10
126.5294
20
177.8364
0
VERTEX
8
CUT
10
126.1987
20
177.9004
0
VERTEX
8
CUT
10
125.6292
20
177.5304
0
VERTEX
8
CUT
10
123.5556
20
177.1120
0
VERTEX
8
CUT
10
123.2837
20
176.6777
0
VERTEX
8
CUT
10
122.9762
20
175.1378
0
VERTEX
8
CUT
10
122.1527
20
174.0471
0
VERTEX
8
CUT
10
121.2303
20
173.5644
0
VERTEX
8
CUT
10
119.5249
20
173.5771
0
VERTEX
8
CUT
10
117.6958
20
171.4742
0
VERTEX
8
CUT
10
116.4568
20
171.2189
0
VERTEX
8
CUT
10
114.8688
20
171.7288
0
VERTEX
8
CUT
10
114.3789
20
171.5909
0
VERTEX
8
CUT
10
114.0468
20
170.3321
0
VERTEX
8
CUT
10
112.8847
20
168.5531
0
VERTEX
8
CUT
10
114.3524
20
166.3023
0
VERTEX
8
CUT
10
114.4805
20
164.8680
0
VERTEX
8
CUT
10
113.8167
20
163.6417
0
VERTEX
8
CUT
10
111.7999
20
162.2420
0
VERTEX
8
CUT
10
111.6740
20
160.8179
0
VERTEX
8
CUT
10
111.3622
20
159.8939
0
VERTEX
8
CUT
10
110.1834
20
158.5196
0
VERTEX
8
CUT
10
107.5328
20
158.1218
0
VERTEX
8
CUT
10
106.1222
20
156.8507
0
VERTEX
8
CUT
10
105.4139
20
156.4875
0
VERTEX
8
CUT
10
101.4350
20
156.8160
0
VERTEX
8
CUT
10
100.6155
20
156.9774
0
VERTEX
8
CUT
10
99.9864
20
157.4012
0
VERTEX
8
CUT
10
98.5703
20
159.4804
0
VERTEX
8
CUT
10
96.8638
20
158.8892
0
VERTEX
8
CUT
10
95.8946
20
158.8259
0
VERTEX
8
CUT
10
94.5933
20
159.3863
0
VERTEX
8
CUT
10
93.4414
20
160.3243
0
VERTEX
8
CUT
10
93.0118
20
160.2424
0
VERTEX
8
CUT
10
92.4737
20
158.8781
0
VERTEX
8
CUT
10
91.1590
20
157.1145
0
VERTEX
8
CUT
10
91.3049
20
156.8112
0
VERTEX
8
CUT
10
92.6667
20
156.0906
0
VERTEX
8
CUT
10
93.2801
20
155.5450
0
VERTEX
8
CUT
10
93.9941
20
154.2636
0
VERTEX
8
CUT
10
93.8808
20
152.8392
0
VERTEX
8
CUT
10
93.5413
20
152.1653
0
VERTEX
8
CUT
10
92.2043
20
150.5556
0
VERTEX
8
CUT
10
92.7625
20
148.5127
0
VERTEX
8
CUT
10
92.5757
20
147.5021
0
VERTEX
8
CUT
10
91.6341
20
146.1526
0
VERTEX
8
CUT
10
89.2277
20
145.3152
0
VERTEX
8
CUT
10
88.2306
20
143.0421
0
VERTEX
8
CUT
10
86.2821
20
141.5306
0
VERTEX
8
CUT
10
86.2525
20
139.6852
0
VERTEX
8
CUT
10
85.9007
20
138.7388
0
VERTEX
8
CUT
10
84.2144
20
136.9789
0
VERTEX
8
CUT
10
83.0741
20
136.1860
0
VERTEX
8
CUT
10
82.0152
20
135.9857
0
VERTEX
8
CUT
10
81.4157
20
136.1161
0
VERTEX
8
CUT
10
79.3360
20
137.2700
0
VERTEX
8
CUT
10
78.1880
20
136.9188
0
VERTEX
8
CUT
10
77.4064
20
136.9527
0
VERTEX
8
CUT
10
76.6670
20
137.2928
0
VERTEX
8
CUT
10
75.1802
20
138.5429
0
VERTEX
8
CUT
10
73.2736
20
138.5962
0
VERTEX
8
CUT
10
72.2532
20
138.9849
0
VERTEX
8
CUT
10
71.1951
20
140.0675
0
VERTEX
8
CUT
10
70.4365
20
141.9618
0
VERTEX
8
CUT
10
68.6396
20
142.7133
0
VERTEX
8
CUT
10
67.3276
20
144.4267
0
VERTEX
8
CUT
10
65.3770
20
144.9207
0
VERTEX
8
CUT
10
62.8533
20
148.3356
0
VERTEX
8
CUT
10
62.2991
20
148.3555
0
VERTEX
8
CUT
10
62.2039
20
147.9299
0
VERTEX
8
CUT
10
63.6037
20
144.5102
0
VERTEX
8
CUT
10
64.9941
20
141.7557
0
VERTEX
8
CUT
10
65.6945
20
140.7501
0
VERTEX
8
CUT
10
67.0790
20
139.3684
0
VERTEX
8
CUT
10
70.2244
20
137.8262
0
VERTEX
8
CUT
10
71.6055
20
136.9088
0
VERTEX
8
CUT
10
72.8075
20
135.7722
0
VERTEX
8
CUT
10
73.7835
20
134.5246
0
VERTEX
8
CUT
10
76.2219
20
129.4698
0
VERTEX
8
CUT
10
76.6779
20
127.9076
0
VERTEX
8
CUT
10
76.4288
20
127.2962
0
VERTEX
8
CUT
10
75.3892
20
127.1639
0
VERTEX
8
CUT
10
73.3497
20
127.7400
0
VERTEX
8
CUT
10
69.3815
20
129.4842
0
VERTEX
8
CUT
10
68.1378
20
130.5153
0
VERTEX
8
CUT
10
66.9493
20
131.9136
0
VERTEX
8
CUT
10
65.9984
20
133.5318
0
VERTEX
8
CUT
10
65.3348
20
135.2159
0
VERTEX
8
CUT
10
64.9844
20
135.4054
0
VERTEX
8
CUT
10
64.6161
20
135.0794
0
VERTEX
8
CUT
10
64.5852
20
132.6431
0
VERTEX
8
CUT
10
64.2802
20
131.2269
0
VERTEX
8
CUT
10
62.8893
20
127.8015
0
VERTEX
8
CUT
10
62.2265
20
126.9071
0
VERTEX
8
CUT
10
61.8703
20
126.7549
0
VERTEX
8
CUT
10
61.3961
20
126.8561
0
VERTEX
8
CUT
10
61.0232
20
127.2153
0
VERTEX
8
CUT
10
59.8214
20
129.4764
0
VERTEX
8
CUT
10
59.2138
20
132.5899
0
VERTEX
8
CUT
10
59.2875
20
134.9190
0
VERTEX
8
CUT
10
61.1690
20
139.0088
0
VERTEX
8
CUT
10
61.5235
20
140.5029
0
VERTEX
8
CUT
10
61.2546
20
142.5769
0
VERTEX
8
CUT
10
60.6112
20
143.9706
0
VERTEX
8
CUT
10
60.2106
20
144.3426
0
VERTEX
8
CUT
10
58.9828
20
144.2396
0
VERTEX
8
CUT
10
58.2282
20
144.5983
0
VERTEX
8
CUT
10
57.8985
20
144.5121
0
VERTEX
8
CUT
10
56.6366
20
142.1564
0
VERTEX
8
CUT
10
55.5488
20
140.7265
0
VERTEX
8
CUT
10
53.5312
20
138.7993
0
VERTEX
8
CUT
10
51.5744
20
137.5727
0
VERTEX
8
CUT
10
51.0103
20
137.4671
0
VERTEX
8
CUT
10
50.3810
20
137.9053
0
VERTEX
8
CUT
10
50.0574
20
141.3459
0
VERTEX
8
CUT
10
49.8968
20
141.6690
0
VERTEX
8
CUT
10
49.5761
20
141.7458
0
VERTEX
8
CUT
10
49.1827
20
141.3278
0
VERTEX
8
CUT
10
48.8030
20
139.8757
0
VERTEX
8
CUT
10
48.0366
20
138.9254
0
VERTEX
8
CUT
10
47.3374
20
138.5998
0
VERTEX
8
CUT
10
45.0395
20
138.4147
0
VERTEX
8
CUT
10
44.4650
20
136.3936
0
VERTEX
8
CUT
10
43.7349
20
135.4583
0
VERTEX
8
CUT
10
42.2460
20
134.8456
0
VERTEX
8
CUT
10
39.9477
20
135.0670
0
VERTEX
8
CUT
10
39.7915
20
134.7804
0
VERTEX
8
CUT
10
40.0556
20
132.9920
0
SEQEND
0
POLYLINE
8
CUT
66
1
70
1
10
0.0
20
0.0
30
0.0
0
VERTEX
8
CUT
10
254.4895
20
164.9550
0
VERTEX
8
CUT
10
254.7843
20
164.7247
0
VERTEX
8
CUT
10
255.1125
20
164.7721
0
VERTEX
8
CUT
10
255.2597
20
165.2419
0
VERTEX
8
CUT
10
254.1529
20
167.0716
0
VERTEX
8
CUT
10
252.3068
20
169.2422
0
VERTEX
8
CUT
10
251.8876
20
169.3339
0
VERTEX
8
CUT
10
251.6385
20
168.9846
0
VERTEX
8
CUT
10
252.2950
20
167.6314
0
SEQEND
0
POLYLINE
8
CUT
66
1
70
1
10
0.0
20
0.0
30
0.0
0
VERTEX
8
CUT
10
253.5335
20
153.0122
0
VERTEX
8
CUT
10
253.2145
20
153.8747
0
VERTEX
8
CUT
10
251.9854
20
154.8313
0
VERTEX
8
CUT
10
251.3108
20
154.7383
0
VERTEX
8
CUT
10
250.6757
20
154.1382
0
VERTEX
8
CUT
10
250.7286
20
153.6551
0
VERTEX
8
CUT
10
251.4827
20
153.2884
0
VERTEX
8
CUT
10
253.1020
20
152.7732
0
SEQEND
0
POLYLINE
8
CUT
66
1
70
1
10
0.0
20
0.0
30
0.0
0
VERTEX
8
CUT
10
250.8990
20
158.8287
0
VERTEX
8
CUT
10
250.5887
20
159.3738
0
VERTEX
8
CUT
10
249.7402
20
159.8747
0
VERTEX
8
CUT
10
247.8318
20
160.0612
0
VERTEX
8
CUT
10
247.4671
20
159.5627
0
VERTEX
8
CUT
10
247.2850
20
158.1658
0
VERTEX
8
CUT
10
247.6756
20
157.8575
0
VERTEX
8
CUT
10
249.3503
20
158.5224
0
VERTEX
8
CUT
10
250.6010
20
158.3758
0
SEQEND
0
POLYLINE
8
CUT
66
1
70
1
10
0.0
20
0.0
30
0.0
0
VERTEX
8
CUT
10
247.1711
20
174.6217
0
VERTEX
8
CUT
10
248.0891
20
176.7497
0
VERTEX
8
CUT
10
248.4221
20
179.1631
0
VERTEX
8
CUT
10
248.2791
20
179.5072
0
VERTEX
8
CUT
10
247.9498
20
179.5839
0
VERTEX
8
CUT
10
247.7033
20
179.4082
0
VERTEX
8
CUT
10
247.0523
20
177.2878
0
VERTEX
8
CUT
10
246.4521
20
176.2625
0
VERTEX
8
CUT
10
243.1445
20
172.8315
0
VERTEX
8
CUT
10
242.4152
20
171.4825
0
VERTEX
8
CUT
10
242.6245
20
171.1370
0
VERTEX
8
CUT
10
243.0276
20
171.1629
0
VERTEX
8
CUT
10
246.2283
20
173.6520
0
SEQEND
0
POLYLINE
8
CUT
66
1
70
1
10
0.0
20
0.0
30
0.0
0
VERTEX
8
CUT
10
247.1659
20
169.3537
0
VERTEX
8
CUT
10
246.9425
20
169.5931
0
VERTEX
8
CUT
10
246.3435
20
169.3661
0
VERTEX
8
CUT
10
245.8189
20
168.5085
0
VERTEX
8
CUT
10
245.3505
20
165.1613
0
VERTEX
8
CUT
10
245.6674
20
164.7484
0
VERTEX
8
CUT
10
246.0992
20
164.9836
0
VERTEX
8
CUT
10
247.1559
20
169.0236
0
SEQEND
0
POLYLINE
8
CUT
66
1
70
1
10
0.0
20
0.0
30
0.0
0
VERTEX
8
CUT
10
241.2879
20
159.6764
0
VERTEX
8
CUT
10
243.1486
20
157.9913
0
VERTEX
8
CUT
10
243.5837
20
157.9517
0
VERTEX
8
CUT
10
244.5484
20
159.8783
0
VERTEX
8
CUT
10
245.4697
20
163.2644
0
VERTEX
8
CUT
10
245.1722
20
163.4705
0
VERTEX
8
CUT
10
244.8335
20
163.3427
0
VERTEX
8
CUT
10
243.7946
20
161.3687
0
VERTEX
8
CUT
10
243.1445
20
160.6391
0
VERTEX
8
CUT
10
242.4568
20
160.5090
0
VERTEX
8
CUT
10
240.3215
20
161.1743
0
VERTEX
8
CUT
10
239.5218
20
160.7399
0
VERTEX
8
CUT
10
239.1026
20
160.1259
0
VERTEX
8
CUT
10
239.1274
20
159.8236
0
VERTEX
8
CUT
10
239.3992
20
159.6215
0
VERTEX
8
CUT
10
240.7277
20
159.7830
0
SEQEND
0
POLYLINE
8
CUT
66
1
70
1
10
0.0
20
0.0
30
0.0
0
VERTEX
8
CUT
10
238.8101
20
156.3020
0
VERTEX
8
CUT
10
239.1075
20
156.7688
0
VERTEX
8
CUT
10
238.5692
20
158.0133
0
VERTEX
8
CUT
10
237.7317
20
158.1303
0
VERTEX
8
CUT
10
236.2045
20
157.4809
0
VERTEX
8
CUT
10
235.5878
20
156.8112
0
VERTEX
8
CUT
10
235.2339
20
155.9739
0
VERTEX
8
CUT
10
235.3524
20
155.6668
0
VERTEX
8
CUT
10
235.7012
20
155.5660
0
VERTEX
8
CUT
10
236.6817
20
156.3558
0
SEQEND
0
POLYLINE
8
CUT
66
1
70
1
10
0.0
20
0.0
30
0.0
0
VERTEX
8
CUT
10
237.0915
20
170.3678
0
VERTEX
8
CUT
10
236.5937
20
171.2132
0
VERTEX
8
CUT
10
235.6813
20
171.6725
0
VERTEX
8
CUT
10
234.7161
20
171.4453
0
VERTEX
8
CUT
10
234.0811
20
170.8489
0
VERTEX
8
CUT
10
234.1221
20
170.3888
0
VERTEX
8
CUT
10
234.6917
20
170.1960
0
VERTEX
8
CUT
10
236.7469
20
170.0496
0
SEQEND
0
POLYLINE
8
CUT
66
1
70
1
10
0.0
20
0.0
30
0.0
0
VERTEX
8
CUT
10
235.1583
20
174.9487
0
VERTEX
8
CUT
10
235.3840
20
175.4138
0
VERTEX
8
CUT
10
234.9284
20
175.9466
0
VERTEX
8
CUT
10
234.3107
20
176.1386
0
VERTEX
8
CUT
10
231.9594
20
175.9661
0
VERTEX
8
CUT
10
231.3296
20
175.4366
0
VERTEX
8
CUT
10
230.7848
20
174.2972
0
VERTEX
8
CUT
10
230.8886
20
173.9177
0
VERTEX
8
CUT
10
231.2702
20
173.8223
0
VERTEX
8
CUT
10
233.7479
20
174.8657
0
SEQEND
0
POLYLINE
8
CUT
66
1
70
1
10
0.0
20
0.0
30
0.0
0
VERTEX
8
CUT
10
230.2034
20
179.4316
0
VERTEX
8
CUT
10
229.2620
20
180.0611
0
VERTEX
8
CUT
10
228.1956
20
180.1236
0
VERTEX
8
CUT
10
227.2754
20
177.2222
0
VERTEX
8
CUT
10
227.4827
20
176.8452
0
VERTEX
8
CUT
10
227.9108
20
176.8893
0
VERTEX
8
CUT
10
230.2005
20
178.9344
0
SEQEND
0
POLYLINE
8
CUT
66
1
70
1
10
0.0
20
0.0
30
0.0
0
VERTEX
8
CUT
10
216.3269
20
179.3139
0
VERTEX
8
CUT
10
217.5870
20
178.2975
0
VERTEX
8
CUT
10
218.7286
20
177.0390
0
VERTEX
8
CUT
10
219.0097
20
176.9517
0
VERTEX
8
CUT
10
219.3319
20
177.1814
0
VERTEX
8
CUT
10
219.7047
20
178.7126
0
VERTEX
8
CUT
10
220.2401
20
179.7764
0
VERTEX
8
CUT
10
220.7922
20
180.1805
0
VERTEX
8
CUT
10
221.3334
20
180.1840
0
VERTEX
8
CUT
10
222.0104
20
179.5578
0
VERTEX
8
CUT
10
222.7234
20
177.6452
0
VERTEX
8
CUT
10
223.2259
20
177.5097
0
VERTEX
8
CUT
10
225.2612
20
181.6118
0
VERTEX
8
CUT
10
226.5191
20
186.5608
0
VERTEX
8
CUT
10
226.1772
20
186.7621
0
VERTEX
8
CUT
10
225.8362
20
186.5591
0
VERTEX
8
CUT
10
225.2222
20
185.2071
0
VERTEX
8
CUT
10
224.4320
20
182.4285
0
VERTEX
8
CUT
10
223.5555
20
181.3212
0
VERTEX
8
CUT
10
222.7839
20
181.0943
0
VERTEX
8
CUT
10
220.4315
20
181.5228
0
VERTEX
8
CUT
10
218.5163
20
180.2317
0
VERTEX
8
CUT
10
218.0286
20
180.1659
0
VERTEX
8
CUT
10
215.4216
20
180.6376
0
VERTEX
8
CUT
10
214.6882
20
180.3204
0
VERTEX
8
CUT
10
214.2427
20
179.7780
0
VERTEX
8
CUT
10
214.2374
20
179.4175
0
VERTEX
8
CUT
10
214.4934
20
179.2143
0
VERTEX
8
CUT
10
215.5416
20
179.5610
0
SEQEND
0
POLYLINE
8
CUT
66
1
70
1
10
0.0
20
0.0
30
0.0
0
VERTEX
8
CUT
10
219.4142
20
194.0282
0
VERTEX
8
CUT
10
218.7200
20
194.1651
0
VERTEX
8
CUT
10
217.9803
20
193.7586
0
VERTEX
8
CUT
10
217.2861
20
193.0644
0
VERTEX
8
CUT
10
216.8562
20
192.1959
0
VERTEX
8
CUT
10
217.1507
20
191.7925
0
VERTEX
8
CUT
10
217.6947
20
191.9929
0
VERTEX
8
CUT
10
219.3178
20
193.4404
0
SEQEND
0
POLYLINE
8
CUT
66
1
70
1
10
0.0
20
0.0
30
0.0
0
VERTEX
8
CUT
10
201.2906
20
192.0769
0
VERTEX
8
CUT
10
201.2606
20
192.4671
0
VERTEX
8
CUT
10
200.7504
20
193.0073
0
VERTEX
8
CUT
10
200.0902
20
192.9173
0
VERTEX
8
CUT
10
198.5595
20
191.7168
0
VERTEX
8
CUT
10
198.0493
20
190.9365
0
VERTEX
8
CUT
10
198.4695
20
190.8164
0
VERTEX
8
CUT
10
199.7300
20
191.5967
0
VERTEX
8
CUT
10
201.0205
20
191.8068
0
SEQEND
0
POLYLINE
8
CUT
66
1
70
1
10
0.0
20
0.0
30
0.0
0
VERTEX
8
CUT
10
180.4623
20
260.1143
0
VERTEX
8
CUT
10
180.1621
20
260.2044
0
VERTEX
8
CUT
10
177.7912
20
259.0939
0
VERTEX
8
CUT
10
175.9905
20
258.8838
0
VERTEX
8
CUT
10
174.1297
20
259.0939
0
VERTEX
8
CUT
10
171.0985
20
260.3244
0
VERTEX
8
CUT
10
170.4983
20
260.3544
0
VERTEX
8
CUT
10
170.5583
20
259.8742
0
VERTEX
8
CUT
10
171.4886
20
259.2440
0
VERTEX
8
CUT
10
173.6795
20
258.1936
0
VERTEX
8
CUT
10
175.5103
20
257.6233
0
VERTEX
8
CUT
10
177.6711
20
257.7434
0
VERTEX
8
CUT
10
179.5019
20
258.4036
0
VERTEX
8
CUT
10
180.4322
20
259.3340
0
SEQEND
0
POLYLINE
8
CUT
66
1
70
1
10
0.0
20
0.0
30
0.0
0
VERTEX
8
CUT
10
169.2978
20
259.2440
0
VERTEX
8
CUT
10
169.0577
20
259.5741
0
VERTEX
8
CUT
10
168.3974
20
259.9042
0
VERTEX
8
CUT
10
167.0168
20
260.3544
0
VERTEX
8
CUT
10
166.6267
20
260.2944
0
VERTEX
8
CUT
10
166.7167
20
259.9042
0
VERTEX
8
CUT
10
168.2473
20
258.4036
0
VERTEX
8
CUT
10
168.5775
20
258.4336
0
VERTEX
8
CUT
10
169.2077
20
258.8838
0
SEQEND
0
POLYLINE
8
CUT
66
1
70
1
10
0.0
20
0.0
30
0.0
0
VERTEX
8
CUT
10
159.6339
20
265.3964
0
VERTEX
8
CUT
10
158.0732
20
265.8466
0
VERTEX
8
CUT
10
157.5630
20
265.6666
0
VERTEX
8
CUT
10
157.5330
20
265.3964
0
VERTEX
8
CUT
10
157.8031
20
265.1564
0
VERTEX
8
CUT
10
162.1549
20
263.3856
0
VERTEX
8
CUT
10
162.5751
20
263.4757
0
VERTEX
8
CUT
10
162.0048
20
264.1660
0
SEQEND
0
POLYLINE
8
CUT
66
1
70
1
10
0.0
20
0.0
30
0.0
0
VERTEX
8
CUT
10
154.4718
20
267.0471
0
VERTEX
8
CUT
10
153.9016
20
266.9871
0
VERTEX
8
CUT
10
153.3914
20
266.6570
0
VERTEX
8
CUT
10
153.3614
20
266.3268
0
VERTEX
8
CUT
10
153.6315
20
266.0267
0
VERTEX
8
CUT
10
155.2521
20
265.8466
0
VERTEX
8
CUT
10
156.0024
20
266.0867
0
VERTEX
8
CUT
10
155.5222
20
266.7470
0
SEQEND
0
POLYLINE
8
CUT
66
1
70
1
10
0.0
20
0.0
30
0.0
0
VERTEX
8
CUT
10
124.7598
20
258.6737
0
VERTEX
8
CUT
10
130.6422
20
263.6557
0
VERTEX
8
CUT
10
131.5726
20
264.6161
0
VERTEX
8
CUT
10
131.4825
20
264.9763
0
VERTEX
8
CUT
10
130.7623
20
265.1864
0
VERTEX
8
CUT
10
130.1620
20
264.9463
0
VERTEX
8
CUT
10
128.6914
20
263.5357
0
VERTEX
8
CUT
10
126.8307
20
262.1551
0
VERTEX
8
CUT
10
125.9303
20
261.1647
0
VERTEX
8
CUT
10
124.5798
20
260.2044
0
VERTEX
8
CUT
10
122.5990
20
258.1035
0
VERTEX
8
CUT
10
120.3481
20
255.2824
0
VERTEX
8
CUT
10
118.7274
20
252.9714
0
VERTEX
8
CUT
10
118.5173
20
252.1611
0
VERTEX
8
CUT
10
118.6974
20
252.1011
0
VERTEX
8
CUT
10
119.1476
20
252.4312
0
VERTEX
8
CUT
10
122.0888
20
255.9126
0
SEQEND
0
POLYLINE
8
CUT
66
1
70
1
10
0.0
20
0.0
30
0.0
0
VERTEX
8
CUT
10
101.1947
20
24.7773
0
VERTEX
8
CUT
10
101.5258
20
23.3319
0
VERTEX
8
CUT
10
101.4083
20
20.9808
0
VERTEX
8
CUT
10
100.4705
20
17.8627
0
VERTEX
8
CUT
10
100.5470
20
17.4655
0
VERTEX
8
CUT
10
102.0600
20
16.7305
0
VERTEX
8
CUT
10
107.1153
20
14.9058
0
VERTEX
8
CUT
10
111.4649
20
13.5640
0
VERTEX
8
CUT
10
112.1830
20
13.5493
0
VERTEX
8
CUT
10
112.2975
20
14.0624
0
VERTEX
8
CUT
10
110.7227
20
16.0254
0
VERTEX
8
CUT
10
109.5976
20
18.1500
0
VERTEX
8
CUT
10
108.5547
20
22.1082
0
VERTEX
8
CUT
10
107.6635
20
24.1045
0
VERTEX
8
CUT
10
106.0533
20
25.9126
0
VERTEX
8
CUT
10
104.7822
20
26.9727
0
VERTEX
8
CUT
10
101.1673
20
29.5415
0
VERTEX
8
CUT
10
98.6081
20
31.0979
0
VERTEX
8
CUT
10
98.1312
20
30.9496
0
VERTEX
8
CUT
10
98.1501
20
30.4318
0
VERTEX
8
CUT
10
100.5465
20
26.4163
0
SEQEND
0
POLYLINE
8
CUT
66
1
70
1
10
0.0
20
0.0
30
0.0
0
VERTEX
8
CUT
10
39.6146
20
86.3920
0
VERTEX
8
CUT
10
40.1240
20
82.3262
0
VERTEX
8
CUT
10
40.6256
20
80.8016
0
VERTEX
8
CUT
10
41.2896
20
79.7776
0
VERTEX
8
CUT
10
44.8990
20
76.8819
0
VERTEX
8
CUT
10
46.0472
20
75.5716
0
VERTEX
8
CUT
10
46.7536
20
74.1132
0
VERTEX
8
CUT
10
47.1179
20
71.3808
0
VERTEX
8
CUT
10
47.0251
20
69.5309
0
VERTEX
8
CUT
10
46.5719
20
67.3557
0
VERTEX
8
CUT
10
46.0616
20
66.3844
0
VERTEX
8
CUT
10
45.7245
20
66.1524
0
VERTEX
8
CUT
10
45.3103
20
66.1804
0
VERTEX
8
CUT
10
44.1742
20
66.9330
0
VERTEX
8
CUT
10
42.3435
20
68.8240
0
VERTEX
8
CUT
10
41.3985
20
70.2179
0
VERTEX
8
CUT
10
40.6950
20
72.6409
0
VERTEX
8
CUT
10
40.4045
20
72.8139
0
VERTEX
8
CUT
10
40.0628
20
72.6651
0
VERTEX
8
CUT
10
39.8256
20
69.7775
0
VERTEX
8
CUT
10
39.7666
20
65.3585
0
VERTEX
8
CUT
10
39.9675
20
64.0498
0
VERTEX
8
CUT
10
40.7568
20
62.5624
0
VERTEX
8
CUT
10
43.9154
20
58.4213
0
VERTEX
8
CUT
10
48.9768
20
52.4310
0
VERTEX
8
CUT
10
54.5205
20
46.6763
0
VERTEX
8
CUT
10
60.4837
20
41.1617
0
VERTEX
8
CUT
10
66.7772
20
35.9763
0
VERTEX
8
CUT
10
73.2483
20
31.2121
0
VERTEX
8
CUT
10
79.9203
20
26.9143
0
VERTEX
8
CUT
10
86.6030
20
23.1696
0
VERTEX
8
CUT
10
93.2206
20
20.0559
0
VERTEX
8
CUT
10
94.2987
20
19.6164
0
VERTEX
8
CUT
10
94.6256
20
19.6744
0
VERTEX
8
CUT
10
94.7706
20
20.1138
0
VERTEX
8
CUT
10
93.9394
20
21.8515
0
VERTEX
8
CUT
10
93.6977
20
24.1930
0
VERTEX
8
CUT
10
93.7882
20
25.8850
0
VERTEX
8
CUT
10
94.4484
20
28.8139
0
VERTEX
8
CUT
10
94.5299
20
30.1064
0
VERTEX
8
CUT
10
94.3320
20
31.3387
0
VERTEX
8
CUT
10
93.8164
20
32.7477
0
VERTEX
8
CUT
10
92.8479
20
34.5087
0
VERTEX
8
CUT
10
87.1106
20
42.2762
0
VERTEX
8
CUT
10
78.9200
20
52.2364
0
VERTEX
8
CUT
10
75.9086
20
55.3670
0
VERTEX
8
CUT
10
72.8840
20
58.1525
0
VERTEX
8
CUT
10
67.0323
20
62.9543
0
VERTEX
8
CUT
10
66.6761
20
62.8677
0
VERTEX
8
CUT
10
66.5462
20
62.5618
0
VERTEX
8
CUT
10
67.0511
20
61.2959
0
VERTEX
8
CUT
10
68.9610
20
57.7417
0
VERTEX
8
CUT
10
70.1697
20
55.9988
0
VERTEX
8
CUT
10
71.7626
20
54.6898
0
VERTEX
8
CUT
10
74.2639
20
53.5131
0
VERTEX
8
CUT
10
76.0649
20
52.4109
0
VERTEX
8
CUT
10
77.3349
20
50.9863
0
VERTEX
8
CUT
10
78.1892
20
49.2229
0
VERTEX
8
CUT
10
78.4802
20
48.1290
0
VERTEX
8
CUT
10
78.5711
20
46.6686
0
VERTEX
8
CUT
10
78.3158
20
46.1193
0
VERTEX
8
CUT
10
77.8624
20
45.7952
0
VERTEX
8
CUT
10
76.4499
20
45.8349
0
VERTEX
8
CUT
10
73.7271
20
46.9214
0
VERTEX
8
CUT
10
73.3014
20
46.6816
0
VERTEX
8
CUT
10
73.5256
20
45.6701
0
VERTEX
8
CUT
10
75.1910
20
42.3355
0
VERTEX
8
CUT
10
75.8773
20
41.5257
0
VERTEX
8
CUT
10
76.9591
20
40.7319
0
VERTEX
8
CUT
10
82.4657
20
38.0679
0
VERTEX
8
CUT
10
83.7696
20
37.1147
0
VERTEX
8
CUT
10
85.6594
20
35.0147
0
VERTEX
8
CUT
10
86.9152
20
33.2396
0
VERTEX
8
CUT
10
88.2403
20
30.8312
0
VERTEX
8
CUT
10
88.3635
20
29.7704
0
VERTEX
8
CUT
10
87.9892
20
29.3888
0
VERTEX
8
CUT
10
86.6967
20
29.1717
0
VERTEX
8
CUT
10
83.2636
20
29.2326
0
VERTEX
8
CUT
10
80.6468
20
29.5332
0
VERTEX
8
CUT
10
78.2389
20
30.5434
0
VERTEX
8
CUT
10
76.4006
20
31.9765
0
VERTEX
8
CUT
10
74.9516
20
33.7878
0
VERTEX
8
CUT
10
73.7916
20
36.0704
0
VERTEX
8
CUT
10
72.5569
20
39.5009
0
VERTEX
8
CUT
10
70.5681
20
44.1141
0
VERTEX
8
CUT
10
68.4821
20
50.9261
0
VERTEX
8
CUT
10
67.9568
20
50.7772
0
VERTEX
8
CUT
10
67.7349
20
49.1020
0
VERTEX
8
CUT
10
67.4131
20
48.1927
0
VERTEX
8
CUT
10
67.0069
20
47.3262
0
VERTEX
8
CUT
10
65.7464
20
45.6118
0
VERTEX
8
CUT
10
63.1167
20
43.0882
0
VERTEX
8
CUT
10
62.4869
20
42.7471
0
VERTEX
8
CUT
10
61.9240
20
42.7387
0
VERTEX
8
CUT
10
61.4114
20
43.1893
0
VERTEX
8
CUT
10
60.8118
20
45.0228
0
VERTEX
8
CUT
10
60.2981
20
47.8280
0
VERTEX
8
CUT
10
60.2046
20
49.0857
0
VERTEX
8
CUT
10
60.3853
20
51.0726
0
VERTEX
8
CUT
10
61.2385
20
52.9196
0
VERTEX
8
CUT
10
63.6729
20
56.0653
0
VERTEX
8
CUT
10
63.9509
20
57.3878
0
VERTEX
8
CUT
10
63.8153
20
58.2965
0
VERTEX
8
CUT
10
62.1742
20
62.6969
0
VERTEX
8
CUT
10
59.7352
20
67.9952
0
VERTEX
8
CUT
10
57.6976
20
70.7289
0
VERTEX
8
CUT
10
55.2088
20
73.4950
0
VERTEX
8
CUT
10
54.8851
20
73.4318
0
VERTEX
8
CUT
10
54.7260
20
73.1430
0
VERTEX
8
CUT
10
54.8035
20
69.5370
0
VERTEX
8
CUT
10
55.2912
20
67.3518
0
VERTEX
8
CUT
10
56.9009
20
63.3210
0
VERTEX
8
CUT
10
57.1122
20
60.9663
0
VERTEX
8
CUT
10
56.8697
20
59.4504
0
VERTEX
8
CUT
10
56.3023
20
58.0251
0
VERTEX
8
CUT
10
54.8955
20
55.6309
0
VERTEX
8
CUT
10
52.3435
20
52.5271
0
VERTEX
8
CUT
10
51.8260
20
52.1197
0
VERTEX
8
CUT
10
51.3305
20
52.0167
0
VERTEX
8
CUT
10
50.6278
20
52.4100
0
VERTEX
8
CUT
10
50.2412
20
52.8909
0
VERTEX
8
CUT
10
49.0899
20
54.8921
0
VERTEX
8
CUT
10
48.0045
20
57.4842
0
VERTEX
8
CUT
10
47.6000
20
58.8912
0
VERTEX
8
CUT
10
47.3295
20
61.4419
0
VERTEX
8
CUT
10
47.7825
20
63.9042
0
VERTEX
8
CUT
10
48.2692
20
65.1604
0
VERTEX
8
CUT
10
50.4864
20
68.6971
0
VERTEX
8
CUT
10
50.9424
20
69.7466
0
VERTEX
8
CUT
10
51.0505
20
70.7782
0
VERTEX
8
CUT
10
50.8733
20
72.8012
0
VERTEX
8
CUT
10
50.0966
20
76.9281
0
VERTEX
8
CUT
10
49.1356
20
80.4364
0
VERTEX
8
CUT
10
46.5954
20
86.4124
0
VERTEX
8
CUT
10
42.4314
20
95.1297
0
VERTEX
8
CUT
10
40.1765
20
99.0579
0
VERTEX
8
CUT
10
39.8107
20
99.2050
0
VERTEX
8
CUT
10
39.4924
20
98.9216
0
VERTEX
8
CUT
10
39.3752
20
95.8931
0
SEQEND
0
POLYLINE
8
CUT
66
1
70
1
10
0.0
20
0.0
30
0.0
0
VERTEX
8
CUT
10
93.2007
20
178.4773
0
VERTEX
8
CUT
10
93.6029
20
178.7586
0
VERTEX
8
CUT
10
93.5602
20
179.0914
0
VERTEX
8
CUT
10
93.0920
20
179.5983
0
VERTEX
8
CUT
10
91.8628
20
180.3095
0
VERTEX
8
CUT
10
91.3920
20
180.3146
0
VERTEX
8
CUT
10
90.6783
20
179.6403
0
VERTEX
8
CUT
10
90.6378
20
179.3105
0
VERTEX
8
CUT
10
90.9028
20
179.0574
0
VERTEX
8
CUT
10
91.9914
20
178.9512
0
SEQEND
0
POLYLINE
8
CUT
66
1
70
1
10
0.0
20
0.0
30
0.0
0
VERTEX
8
CUT
10
19.0467
20
217.3444
0
VERTEX
8
CUT
10
23.1944
20
225.0397
0
VERTEX
8
CUT
10
25.4839
20
228.8356
0
VERTEX
8
CUT
10
30.5559
20
236.5788
0
VERTEX
8
CUT
10
36.1422
20
244.0879
0
VERTEX
8
CUT
10
42.3201
20
251.3508
0
VERTEX
8
CUT
10
48.9618
20
258.2318
0
VERTEX
8
CUT
10
56.0057
20
264.7062
0
VERTEX
8
CUT
10
63.4590
20
270.7181
0
VERTEX
8
CUT
10
71.2021
20
276.2317
0
VERTEX
8
CUT
10
79.1395
20
281.1913
0
VERTEX
8
CUT
10
89.2832
20
286.5391
0
VERTEX
8
CUT
10
89.4746
20
286.8544
0
VERTEX
8
CUT
10
89.3469
20
287.1637
0
VERTEX
8
CUT
10
78.5713
20
287.4857
0
VERTEX
8
CUT
10
51.4995
20
287.5758
0
VERTEX
8
CUT
10
24.3096
20
287.4857
0
VERTEX
8
CUT
10
15.2452
20
287.3654
0
VERTEX
8
CUT
10
11.9885
20
287.0854
0
VERTEX
8
CUT
10
11.7338
20
283.5109
0
VERTEX
8
CUT
10
11.6139
20
273.6196
0
VERTEX
8
CUT
10
11.5239
20
243.8485
0
VERTEX
8
CUT
10
11.6139
20
214.2000
0
VERTEX
8
CUT
10
11.8455
20
202.7844
0
VERTEX
8
CUT
10
12.1730
20
202.4562
0
VERTEX
8
CUT
10
12.5824
20
202.6739
0
VERTEX
8
CUT
10
15.3555
20
209.3317
0
SEQEND
0
POLYLINE
8
CUT
66
1
70
1
10
0.0
20
0.0
30
0.0
0
VERTEX
8
CUT
10
11.8240
20
39.3149
0
VERTEX
8
CUT
10
12.0339
20
16.0992
0
VERTEX
8
CUT
10
12.2880
20
12.6136
0
VERTEX
8
CUT
10
15.4253
20
12.3345
0
VERTEX
8
CUT
10
24.0996
20
12.2142
0
VERTEX
8
CUT
10
50.1490
20
12.1241
0
VERTEX
8
CUT
10
76.0803
20
12.2142
0
VERTEX
8
CUT
10
86.3991
20
12.5354
0
VERTEX
8
CUT
10
86.5264
20
12.8446
0
VERTEX
8
CUT
10
86.3349
20
13.1596
0
VERTEX
8
CUT
10
78.3548
20
17.5505
0
VERTEX
8
CUT
10
72.4470
20
21.1975
0
VERTEX
8
CUT
10
66.5859
20
25.1956
0
VERTEX
8
CUT
10
60.8911
20
29.5118
0
VERTEX
8
CUT
10
55.3311
20
34.1395
0
VERTEX
8
CUT
10
49.9989
20
38.9897
0
VERTEX
8
CUT
10
44.9635
20
43.9951
0
VERTEX
8
CUT
10
40.2735
20
49.1654
0
VERTEX
8
CUT
10
36.0358
20
54.2740
0
VERTEX
8
CUT
10
32.0670
20
59.5650
0
VERTEX
8
CUT
10
28.3012
20
64.9879
0
VERTEX
8
CUT
10
24.7855
20
70.5778
0
VERTEX
8
CUT
10
21.5095
20
76.3192
0
VERTEX
8
CUT
10
18.4822
20
82.2538
0
VERTEX
8
CUT
10
15.6811
20
88.3678
0
VERTEX
8
CUT
10
12.8678
20
95.1591
0
VERTEX
8
CUT
10
12.4396
20
95.3287
0
VERTEX
8
CUT
10
12.1491
20
94.9713
0
VERTEX
8
CUT
10
11.9440
20
83.7302
0
SEQEND
0
POLYLINE
8
CUT
66
1
70
1
10
0.0
20
0.0
30
0.0
0
VERTEX
8
CUT
10
75.5744
20
180.3232
0
VERTEX
8
CUT
10
75.8194
20
180.7629
0
VERTEX
8
CUT
10
75.1928
20
181.9800
0
VERTEX
8
CUT
10
74.7124
20
182.1360
0
VERTEX
8
CUT
10
73.0746
20
181.3649
0
VERTEX
8
CUT
10
71.8645
20
180.1351
0
VERTEX
8
CUT
10
71.9218
20
179.7790
0
VERTEX
8
CUT
10
72.2842
20
179.6256
0
VERTEX
8
CUT
10
73.9772
20
180.3627
0
SEQEND
0
POLYLINE
8
CUT
66
1
70
1
10
0.0
20
0.0
30
0.0
0
VERTEX
8
CUT
10
61.5895
20
154.2817
0
VERTEX
8
CUT
10
62.8619
20
153.7083
0
VERTEX
8
CUT
10
66.5451
20
153.0274
0
VERTEX
8
CUT
10
68.2485
20
152.4518
0
VERTEX
8
CUT
10
69.7382
20
151.5966
0
VERTEX
8
CUT
10
71.7013
20
149.7127
0
VERTEX
8
CUT
10
72.2330
20
149.8467
0
VERTEX
8
CUT
10
72.2353
20
150.2452
0
VERTEX
8
CUT
10
71.2618
20
151.4915
0
VERTEX
8
CUT
10
68.7769
20
153.6233
0
VERTEX
8
CUT
10
66.8521
20
154.3256
0
VERTEX
8
CUT
10
63.3295
20
155.2406
0
VERTEX
8
CUT
10
61.6479
20
155.9913
0
VERTEX
8
CUT
10
60.3846
20
156.8259
0
VERTEX
8
CUT
10
59.9268
20
156.7829
0
VERTEX
8
CUT
10
59.8291
20
156.3336
0
VERTEX
8
CUT
10
60.5963
20
155.1242
0
SEQEND
0
POLYLINE
8
CUT
66
1
70
1
10
0.0
20
0.0
30
0.0
0
VERTEX
8
CUT
10
57.0225
20
170.6089
0
VERTEX
8
CUT
10
58.2128
20
169.3965
0
VERTEX
8
CUT
10
59.2804
20
168.7500
0
VERTEX
8
CUT
10
60.7061
20
168.2114
0
VERTEX
8
CUT
10
63.9920
20
167.3658
0
VERTEX
8
CUT
10
66.5550
20
166.4011
0
VERTEX
8
CUT
10
68.6645
20
165.0302
0
VERTEX
8
CUT
10
70.5511
20
163.0126
0
VERTEX
8
CUT
10
70.8359
20
162.9301
0
VERTEX
8
CUT
10
71.1187
20
163.1027
0
VERTEX
8
CUT
10
71.1372
20
163.5007
0
VERTEX
8
CUT
10
70.2131
20
164.7255
0
VERTEX
8
CUT
10
68.1479
20
166.7907
0
VERTEX
8
CUT
10
66.8905
20
167.7581
0
VERTEX
8
CUT
10
65.4199
20
168.5091
0
VERTEX
8
CUT
10
59.1322
20
170.6649
0
VERTEX
8
CUT
10
56.7472
20
172.8453
0
VERTEX
8
CUT
10
56.4201
20
172.9250
0
VERTEX
8
CUT
10
56.1531
20
172.7198
0
VERTEX
8
CUT
10
56.2941
20
171.9421
0
SEQEND
0
POLYLINE
8
CUT
66
1
70
1
10
0.0
20
0.0
30
0.0
0
VERTEX
8
CUT
10
65.9062
20
220.7085
0
VERTEX
8
CUT
10
64.0454
20
219.5680
0
VERTEX
8
CUT
10
63.3551
20
218.9077
0
VERTEX
8
CUT
10
63.2951
20
218.5776
0
VERTEX
8
CUT
10
63.7753
20
218.5176
0
VERTEX
8
CUT
10
65.3359
20
219.4780
0
VERTEX
8
CUT
10
65.9062
20
220.1983
0
SEQEND
0
POLYLINE
8
CUT
66
1
70
1
10
0.0
20
0.0
30
0.0
0
VERTEX
8
CUT
10
58.4837
20
146.1375
0
VERTEX
8
CUT
10
59.2628
20
145.9091
0
VERTEX
8
CUT
10
59.5878
20
146.1844
0
VERTEX
8
CUT
10
59.5521
20
146.7737
0
VERTEX
8
CUT
10
58.8313
20
149.0066
0
VERTEX
8
CUT
10
58.4202
20
149.2290
0
VERTEX
8
CUT
10
58.0987
20
148.9345
0
VERTEX
8
CUT
10
58.1855
20
146.7661
0
SEQEND
0
POLYLINE
8
CUT
66
1
70
1
10
0.0
20
0.0
30
0.0
0
VERTEX
8
CUT
10
57.5328
20
165.3062
0
VERTEX
8
CUT
10
57.3227
20
165.1561
0
VERTEX
8
CUT
10
57.2927
20
164.6459
0
VERTEX
8
CUT
10
57.7129
20
162.3050
0
VERTEX
8
CUT
10
58.3131
20
160.0240
0
VERTEX
8
CUT
10
58.5232
20
159.6639
0
VERTEX
8
CUT
10
58.8233
20
159.6339
0
VERTEX
8
CUT
10
59.0634
20
160.6543
0
VERTEX
8
CUT
10
58.8833
20
162.1549
0
VERTEX
8
CUT
10
58.2231
20
164.2557
0
SEQEND
0
POLYLINE
8
CUT
66
1
70
1
10
0.0
20
0.0
30
0.0
0
VERTEX
8
CUT
10
55.4755
20
152.7116
0
VERTEX
8
CUT
10
55.8958
20
153.4663
0
VERTEX
8
CUT
10
55.7643
20
153.8836
0
VERTEX
8
CUT
10
55.3623
20
153.9329
0
VERTEX
8
CUT
10
54.8644
20
153.5166
0
VERTEX
8
CUT
10
52.6192
20
151.0925
0
VERTEX
8
CUT
10
50.8510
20
148.4406
0
VERTEX
8
CUT
10
50.1078
20
146.5478
0
VERTEX
8
CUT
10
50.3443
20
146.1439
0
VERTEX
8
CUT
10
50.7980
20
146.2589
0
VERTEX
8
CUT
10
51.9725
20
148.6678
0
SEQEND
0
POLYLINE
8
CUT
66
1
70
1
10
0.0
20
0.0
30
0.0
0
VERTEX
8
CUT
10
46.8334
20
162.7345
0
VERTEX
8
CUT
10
51.2466
20
167.8996
0
VERTEX
8
CUT
10
52.1952
20
169.9164
0
VERTEX
8
CUT
10
52.3059
20
170.4259
0
VERTEX
8
CUT
10
52.1413
20
170.7093
0
VERTEX
8
CUT
10
51.6288
20
170.6508
0
VERTEX
8
CUT
10
47.3011
20
165.4695
0
VERTEX
8
CUT
10
45.4459
20
162.3883
0
VERTEX
8
CUT
10
44.6321
20
160.0028
0
VERTEX
8
CUT
10
44.8607
20
159.5969
0
VERTEX
8
CUT
10
45.3148
20
159.7005
0
VERTEX
8
CUT
10
45.8885
20
161.1530
0
SEQEND
0
POLYLINE
8
CUT
66
1
70
1
10
0.0
20
0.0
30
0.0
0
VERTEX
8
CUT
10
37.6348
20
162.5150
0
VERTEX
8
CUT
10
37.2146
20
162.3650
0
VERTEX
8
CUT
10
36.9445
20
161.0144
0
VERTEX
8
CUT
10
36.9145
20
155.5522
0
VERTEX
8
CUT
10
37.1246
20
151.8307
0
VERTEX
8
CUT
10
38.5651
20
139.2557
0
VERTEX
8
CUT
10
39.0153
20
136.9147
0
VERTEX
8
CUT
10
39.2254
20
136.3745
0
VERTEX
8
CUT
10
39.5255
20
136.1944
0
VERTEX
8
CUT
10
39.8557
20
136.4946
0
VERTEX
8
CUT
10
39.1954
20
141.1164
0
VERTEX
8
CUT
10
38.0249
20
153.1513
0
SEQEND
0
POLYLINE
8
CUT
66
1
70
1
10
0.0
20
0.0
30
0.0
0
VERTEX
8
CUT
10
29.9802
20
84.7035
0
VERTEX
8
CUT
10
28.6822
20
82.0228
0
VERTEX
8
CUT
10
30.7106
20
77.7332
0
VERTEX
8
CUT
10
33.7135
20
72.5878
0
VERTEX
8
CUT
10
34.1068
20
72.3576
0
VERTEX
8
CUT
10
34.4705
20
72.7246
0
VERTEX
8
CUT
10
34.4541
20
77.1190
0
VERTEX
8
CUT
10
33.9152
20
85.8366
0
VERTEX
8
CUT
10
33.5101
20
88.8791
0
VERTEX
8
CUT
10
33.3341
20
89.1162
0
VERTEX
8
CUT
10
33.0059
20
89.1510
0
VERTEX
8
CUT
10
32.3967
20
88.4641
0
SEQEND
0
POLYLINE
8
CUT
66
1
70
1
10
0.0
20
0.0
30
0.0
0
VERTEX
8
CUT
10
16.2298
20
112.9555
0
VERTEX
8
CUT
10
18.2678
20
106.2128
0
VERTEX
8
CUT
10
20.5455
20
99.6198
0
VERTEX
8
CUT
10
23.3301
20
92.6135
0
VERTEX
8
CUT
10
25.0072
20
89.0504
0
VERTEX
8
CUT
10
25.4912
20
88.3285
0
VERTEX
8
CUT
10
25.8873
20
88.2539
0
VERTEX
8
CUT
10
26.9752
20
89.7742
0
VERTEX
8
CUT
10
28.8048
20
93.3445
0
VERTEX
8
CUT
10
30.3765
20
97.3769
0
VERTEX
8
CUT
10
30.9203
20
99.3996
0
VERTEX
8
CUT
10
31.6318
20
103.6086
0
VERTEX
8
CUT
10
31.7824
20
105.9137
0
VERTEX
8
CUT
10
31.8422
20
109.6686
0
VERTEX
8
CUT
10
31.5576
20
112.9751
0
VERTEX
8
CUT
10
31.2579
20
113.2306
0
VERTEX
8
CUT
10
30.8662
20
113.0640
0
VERTEX
8
CUT
10
29.1971
20
109.2568
0
VERTEX
8
CUT
10
28.8714
20
107.5882
0
VERTEX
8
CUT
10
28.7149
20
104.2108
0
VERTEX
8
CUT
10
27.8767
20
101.8964
0
VERTEX
8
CUT
10
26.7033
20
100.2108
0
VERTEX
8
CUT
10
25.7217
20
99.2545
0
VERTEX
8
CUT
10
24.5237
20
98.3716
0
VERTEX
8
CUT
10
23.0725
20
97.6604
0
VERTEX
8
CUT
10
22.3523
20
97.7733
0
VERTEX
8
CUT
10
21.7442
20
98.3770
0
VERTEX
8
CUT
10
21.6998
20
100.9515
0
VERTEX
8
CUT
10
22.1815
20
103.9665
0
VERTEX
8
CUT
10
22.9704
20
105.7373
0
VERTEX
8
CUT
10
26.4682
20
110.1005
0
VERTEX
8
CUT
10
26.8961
20
111.0573
0
VERTEX
8
CUT
10
26.4065
20
111.2969
0
VERTEX
8
CUT
10
23.7333
20
109.8211
0
VERTEX
8
CUT
10
22.3958
20
109.4277
0
VERTEX
8
CUT
10
21.0613
20
109.3348
0
VERTEX
8
CUT
10
18.7943
20
109.7709
0
VERTEX
8
CUT
10
18.4236
20
110.1621
0
VERTEX
8
CUT
10
18.3386
20
110.7330
0
VERTEX
8
CUT
10
18.4793
20
111.4684
0
VERTEX
8
CUT
10
19.2672
20
112.8927
0
VERTEX
8
CUT
10
21.3942
20
114.9236
0
VERTEX
8
CUT
10
22.2004
20
115.3844
0
VERTEX
8
CUT
10
23.6988
20
115.8458
0
VERTEX
8
CUT
10
26.8965
20
115.5775
0
VERTEX
8
CUT
10
27.7097
20
115.7025
0
VERTEX
8
CUT
10
28.6854
20
116.4341
0
VERTEX
8
CUT
10
29.2066
20
117.3441
0
VERTEX
8
CUT
10
29.8915
20
120.9550
0
VERTEX
8
CUT
10
29.9229
20
124.0077
0
VERTEX
8
CUT
10
28.8158
20
131.4399
0
VERTEX
8
CUT
10
28.2587
20
133.7542
0
VERTEX
8
CUT
10
27.7568
20
133.9424
0
VERTEX
8
CUT
10
26.6159
20
133.9449
0
VERTEX
8
CUT
10
25.0240
20
133.5634
0
VERTEX
8
CUT
10
25.3595
20
131.2189
0
VERTEX
8
CUT
10
24.9518
20
129.8375
0
VERTEX
8
CUT
10
23.5931
20
128.3726
0
VERTEX
8
CUT
10
22.1559
20
127.7927
0
VERTEX
8
CUT
10
21.2441
20
127.0441
0
VERTEX
8
CUT
10
20.7484
20
126.1649
0
VERTEX
8
CUT
10
20.3573
20
124.1006
0
VERTEX
8
CUT
10
19.1797
20
122.7292
0
VERTEX
8
CUT
10
18.1543
20
122.2707
0
VERTEX
8
CUT
10
17.1007
20
122.2129
0
VERTEX
8
CUT
10
15.9659
20
122.6367
0
VERTEX
8
CUT
10
14.4162
20
123.6661
0
VERTEX
8
CUT
10
14.0145
20
123.6525
0
VERTEX
8
CUT
10
13.8387
20
123.2910
0
VERTEX
8
CUT
10
14.6687
20
119.1402
0
SEQEND
0
POLYLINE
8
CUT
66
1
70
1
10
0.0
20
0.0
30
0.0
0
VERTEX
8
CUT
10
23.2890
20
158.2233
0
VERTEX
8
CUT
10
23.2590
20
158.8236
0
VERTEX
8
CUT
10
22.9289
20
159.2137
0
VERTEX
8
CUT
10
22.5687
20
159.2137
0
VERTEX
8
CUT
10
22.2986
20
158.7935
0
VERTEX
8
CUT
10
21.9685
20
155.9424
0
VERTEX
8
CUT
10
19.5675
20
151.2305
0
VERTEX
8
CUT
10
18.6371
20
148.8896
0
VERTEX
8
CUT
10
18.5771
20
148.3193
0
VERTEX
8
CUT
10
18.8172
20
148.1993
0
VERTEX
8
CUT
10
19.3274
20
148.4394
0
VERTEX
8
CUT
10
22.3586
20
154.4118
0
SEQEND
0
POLYLINE
8
CUT
66
1
70
1
10
0.0
20
0.0
30
0.0
0
VERTEX
8
CUT
10
21.2782
20
166.9268
0
VERTEX
8
CUT
10
21.5783
20
167.6171
0
VERTEX
8
CUT
10
21.0681
20
168.2774
0
VERTEX
8
CUT
10
20.6179
20
168.1573
0
VERTEX
8
CUT
10
19.4174
20
167.0769
0
VERTEX
8
CUT
10
17.1065
20
164.6759
0
VERTEX
8
CUT
10
16.1461
20
163.4154
0
VERTEX
8
CUT
10
15.5759
20
161.9748
0
VERTEX
8
CUT
10
15.6359
20
161.1645
0
VERTEX
8
CUT
10
16.1461
20
160.8344
0
VERTEX
8
CUT
10
16.3862
20
161.0144
0
VERTEX
8
CUT
10
17.3766
20
162.7251
0
SEQEND
0
POLYLINE
8
CUT
66
1
70
1
10
0.0
20
0.0
30
0.0
0
VERTEX
8
CUT
10
20.3478
20
178.8416
0
VERTEX
8
CUT
10
20.6179
20
179.5919
0
VERTEX
8
CUT
10
20.5579
20
180.0421
0
VERTEX
8
CUT
10
20.1077
20
180.1021
0
VERTEX
8
CUT
10
19.6875
20
179.8620
0
VERTEX
8
CUT
10
18.6071
20
178.6315
0
VERTEX
8
CUT
10
17.1365
20
176.1105
0
VERTEX
8
CUT
10
16.8364
20
175.3602
0
VERTEX
8
CUT
10
16.7764
20
174.4899
0
VERTEX
8
CUT
10
17.0465
20
174.2798
0
VERTEX
8
CUT
10
17.7368
20
174.8200
0
VERTEX
8
CUT
10
18.8772
20
176.8308
0
SEQEND
0
POLYLINE
8
CUT
66
1
70
1
10
0.0
20
0.0
30
0.0
0
VERTEX
8
CUT
10
11.4942
20
158.1033
0
VERTEX
8
CUT
10
11.1341
20
157.8031
0
VERTEX
8
CUT
10
11.0441
20
156.3926
0
VERTEX
8
CUT
10
11.1941
20
155.5522
0
VERTEX
8
CUT
10
11.6143
20
155.4322
0
VERTEX
8
CUT
10
11.8544
20
155.7023
0
VERTEX
8
CUT
10
11.9444
20
157.1129
0
VERTEX
8
CUT
10
11.7944
20
157.9532
0
SEQEND
0
ENDSEC
0
EOF
