0
SECTION
2
HEADER
9
$ACADVER
1
AC1009
9
$INSUNITS
70
4
0
ENDSEC
0
SECTION
2
TABLES
0
TABLE
2
LAYER
70
1
0
LAYER
2
CUT
70
0
62
7
6
CONTINUOUS
0
ENDTAB
0
ENDSEC
0
SECTION
2
ENTITIES
0
POLYLINE
8
CUT
66
1
70
1
10
0.0
20
0.0
30
0.0
0
VERTEX
8
CUT
10
185.1091
20
76.2653
0
VERTEX
8
CUT
10
187.0536
20
74.8126
0
VERTEX
8
CUT
10
188.5490
20
74.2997
0
VERTEX
8
CUT
10
190.3821
20
74.1130
0
VERTEX
8
CUT
10
191.4863
20
73.7971
0
VERTEX
8
CUT
10
193.5318
20
72.5078
0
VERTEX
8
CUT
10
195.4045
20
70.2597
0
VERTEX
8
CUT
10
198.0526
20
65.4926
0
VERTEX
8
CUT
10
198.1202
20
65.2139
0
VERTEX
8
CUT
10
198.6693
20
64.0853
0
VERTEX
8
CUT
10
199.6454
20
62.7431
0
VERTEX
8
CUT
10
200.9266
20
61.4924
0
VERTEX
8
CUT
10
202.9703
20
60.1197
0
VERTEX
8
CUT
10
204.2515
20
59.6927
0
VERTEX
8
CUT
10
205.6547
20
59.5402
0
VERTEX
8
CUT
10
207.6985
20
59.7537
0
VERTEX
8
CUT
10
209.1627
20
60.3333
0
VERTEX
8
CUT
10
210.6574
20
61.6754
0
VERTEX
8
CUT
10
212.2131
20
64.0243
0
VERTEX
8
CUT
10
212.0004
20
63.9347
0
VERTEX
8
CUT
10
212.5682
20
64.8686
0
VERTEX
8
CUT
10
214.0638
20
68.3467
0
VERTEX
8
CUT
10
215.7891
20
73.1272
0
VERTEX
8
CUT
10
216.0663
20
74.2726
0
VERTEX
8
CUT
10
216.1824
20
76.0322
0
VERTEX
8
CUT
10
215.8609
20
77.7888
0
VERTEX
8
CUT
10
215.2425
20
79.4573
0
VERTEX
8
CUT
10
214.4565
20
80.9271
0
VERTEX
8
CUT
10
212.3514
20
83.3233
0
VERTEX
8
CUT
10
209.6903
20
84.9241
0
VERTEX
8
CUT
10
208.1996
20
85.4065
0
VERTEX
8
CUT
10
206.5257
20
85.6554
0
VERTEX
8
CUT
10
204.6196
20
85.5907
0
VERTEX
8
CUT
10
201.9487
20
84.7528
0
VERTEX
8
CUT
10
196.5315
20
81.1910
0
VERTEX
8
CUT
10
194.6283
20
80.3622
0
VERTEX
8
CUT
10
193.6799
20
80.2262
0
VERTEX
8
CUT
10
192.8595
20
80.2699
0
VERTEX
8
CUT
10
191.3325
20
80.9482
0
VERTEX
8
CUT
10
189.9019
20
82.2594
0
VERTEX
8
CUT
10
189.0654
20
83.8883
0
VERTEX
8
CUT
10
188.8818
20
85.6939
0
VERTEX
8
CUT
10
188.9760
20
86.7845
0
VERTEX
8
CUT
10
189.8926
20
89.3147
0
VERTEX
8
CUT
10
191.1347
20
91.0814
0
VERTEX
8
CUT
10
192.2939
20
92.2710
0
VERTEX
8
CUT
10
197.5711
20
96.6026
0
VERTEX
8
CUT
10
198.3947
20
97.7313
0
VERTEX
8
CUT
10
198.6345
20
98.4773
0
VERTEX
8
CUT
10
198.6805
20
98.5610
0
VERTEX
8
CUT
10
199.0742
20
101.5559
0
VERTEX
8
CUT
10
199.6500
20
103.0265
0
VERTEX
8
CUT
10
200.4301
20
104.0656
0
VERTEX
8
CUT
10
201.0221
20
104.6286
0
VERTEX
8
CUT
10
201.7586
20
105.2279
0
VERTEX
8
CUT
10
203.1931
20
105.9457
0
VERTEX
8
CUT
10
205.0751
20
106.3639
0
VERTEX
8
CUT
10
208.7518
20
106.5261
0
VERTEX
8
CUT
10
210.5234
20
106.3902
0
VERTEX
8
CUT
10
211.3696
20
106.0072
0
VERTEX
8
CUT
10
212.3573
20
104.7877
0
VERTEX
8
CUT
10
212.3780
20
104.7204
0
VERTEX
8
CUT
10
212.7185
20
104.3737
0
VERTEX
8
CUT
10
212.7621
20
104.2591
0
VERTEX
8
CUT
10
212.9510
20
104.1370
0
VERTEX
8
CUT
10
212.9538
20
104.1341
0
VERTEX
8
CUT
10
212.9579
20
104.1325
0
VERTEX
8
CUT
10
213.7993
20
103.5880
0
VERTEX
8
CUT
10
214.7754
20
103.4660
0
VERTEX
8
CUT
10
214.9587
20
103.5009
0
VERTEX
8
CUT
10
214.9871
20
103.4953
0
VERTEX
8
CUT
10
215.1190
20
103.5315
0
VERTEX
8
CUT
10
216.0566
20
103.7101
0
VERTEX
8
CUT
10
216.6422
20
103.9491
0
VERTEX
8
CUT
10
216.9172
20
104.0245
0
VERTEX
8
CUT
10
220.9235
20
105.6788
0
VERTEX
8
CUT
10
223.0338
20
106.4486
0
VERTEX
8
CUT
10
226.7265
20
107.2111
0
VERTEX
8
CUT
10
232.3645
20
107.4580
0
VERTEX
8
CUT
10
235.9177
20
107.3059
0
VERTEX
8
CUT
10
239.8745
20
106.4445
0
VERTEX
8
CUT
10
241.8970
20
105.4226
0
VERTEX
8
CUT
10
243.8339
20
103.8657
0
VERTEX
8
CUT
10
246.8991
20
100.9531
0
VERTEX
8
CUT
10
248.4060
20
98.9882
0
VERTEX
8
CUT
10
247.8609
20
97.6712
0
VERTEX
8
CUT
10
246.0711
20
94.9329
0
VERTEX
8
CUT
10
245.9591
20
94.7737
0
VERTEX
8
CUT
10
245.9370
20
94.7277
0
VERTEX
8
CUT
10
245.7962
20
94.5123
0
VERTEX
8
CUT
10
245.5463
20
93.9155
0
VERTEX
8
CUT
10
245.3025
20
93.4086
0
VERTEX
8
CUT
10
245.2372
20
93.1773
0
VERTEX
8
CUT
10
244.9748
20
92.5505
0
VERTEX
8
CUT
10
244.7847
20
91.5507
0
VERTEX
8
CUT
10
244.7339
20
90.6818
0
VERTEX
8
CUT
10
244.7954
20
90.4296
0
VERTEX
8
CUT
10
244.7876
20
90.3171
0
VERTEX
8
CUT
10
244.8753
20
90.1018
0
VERTEX
8
CUT
10
245.0760
20
89.2790
0
VERTEX
8
CUT
10
245.3310
20
88.9830
0
VERTEX
8
CUT
10
245.3726
20
88.8811
0
VERTEX
8
CUT
10
246.5172
20
87.6037
0
VERTEX
8
CUT
10
246.5211
20
87.6019
0
VERTEX
8
CUT
10
247.2651
20
86.7385
0
VERTEX
8
CUT
10
247.5603
20
86.5804
0
VERTEX
8
CUT
10
247.8517
20
86.6724
0
VERTEX
8
CUT
10
248.9180
20
88.1535
0
VERTEX
8
CUT
10
249.8683
20
89.0028
0
VERTEX
8
CUT
10
251.2339
20
89.3697
0
VERTEX
8
CUT
10
253.0902
20
89.3365
0
VERTEX
8
CUT
10
256.1025
20
88.9045
0
VERTEX
8
CUT
10
257.8076
20
88.4367
0
VERTEX
8
CUT
10
258.7184
20
87.8496
0
VERTEX
8
CUT
10
258.7172
20
87.6606
0
VERTEX
8
CUT
10
258.5505
20
87.3701
0
VERTEX
8
CUT
10
258.1781
20
86.9822
0
VERTEX
8
CUT
10
257.4731
20
86.4873
0
VERTEX
8
CUT
10
256.6019
20
85.9841
0
VERTEX
8
CUT
10
255.3766
20
85.5659
0
VERTEX
8
CUT
10
253.2455
20
85.2507
0
VERTEX
8
CUT
10
253.0825
20
84.9919
0
VERTEX
8
CUT
10
253.0807
20
84.1455
0
VERTEX
8
CUT
10
252.8083
20
83.7941
0
VERTEX
8
CUT
10
250.6546
20
82.5072
0
VERTEX
8
CUT
10
244.7169
20
79.6366
0
VERTEX
8
CUT
10
240.9700
20
77.9210
0
VERTEX
8
CUT
10
232.8228
20
74.3238
0
VERTEX
8
CUT
10
226.6160
20
71.2176
0
VERTEX
8
CUT
10
224.4246
20
69.5005
0
VERTEX
8
CUT
10
223.0768
20
67.7107
0
VERTEX
8
CUT
10
222.9525
20
67.4155
0
VERTEX
8
CUT
10
222.8466
20
67.2756
0
VERTEX
8
CUT
10
222.2299
20
65.7688
0
VERTEX
8
CUT
10
222.1909
20
65.6055
0
VERTEX
8
CUT
10
222.0616
20
65.2982
0
VERTEX
8
CUT
10
221.2876
20
61.8683
0
VERTEX
8
CUT
10
221.2034
20
61.6699
0
VERTEX
8
CUT
10
221.1993
20
61.6604
0
VERTEX
8
CUT
10
221.1946
20
61.6494
0
VERTEX
8
CUT
10
221.1931
20
61.6459
0
VERTEX
8
CUT
10
219.6561
20
59.7317
0
VERTEX
8
CUT
10
211.3941
20
54.1984
0
VERTEX
8
CUT
10
206.4204
20
51.6533
0
VERTEX
8
CUT
10
201.6345
20
50.1218
0
VERTEX
8
CUT
10
201.4770
20
50.0807
0
VERTEX
8
CUT
10
201.1482
20
49.9947
0
VERTEX
8
CUT
10
200.6480
20
49.8640
0
VERTEX
8
CUT
10
200.5694
20
49.8435
0
VERTEX
8
CUT
10
198.2370
20
49.3817
0
VERTEX
8
CUT
10
198.1848
20
49.3739
0
VERTEX
8
CUT
10
198.1741
20
49.3724
0
VERTEX
8
CUT
10
198.1431
20
49.3678
0
VERTEX
8
CUT
10
197.9662
20
49.3416
0
VERTEX
8
CUT
10
192.0635
20
48.7290
0
VERTEX
8
CUT
10
190.8080
20
48.6856
0
VERTEX
8
CUT
10
188.8087
20
48.6851
0
VERTEX
8
CUT
10
187.9318
20
48.6944
0
VERTEX
8
CUT
10
187.8178
20
48.7018
0
VERTEX
8
CUT
10
183.4788
20
49.0832
0
VERTEX
8
CUT
10
180.9629
20
49.5030
0
VERTEX
8
CUT
10
178.4892
20
49.9733
0
VERTEX
8
CUT
10
175.8206
20
50.6862
0
VERTEX
8
CUT
10
174.0569
20
51.2866
0
VERTEX
8
CUT
10
171.2433
20
52.3979
0
VERTEX
8
CUT
10
167.8864
20
54.1068
0
VERTEX
8
CUT
10
165.1803
20
55.9499
0
VERTEX
8
CUT
10
162.9261
20
57.9417
0
VERTEX
8
CUT
10
162.8028
20
58.0589
0
VERTEX
8
CUT
10
162.7571
20
58.1023
0
VERTEX
8
CUT
10
162.7428
20
58.1159
0
VERTEX
8
CUT
10
162.7338
20
58.1245
0
VERTEX
8
CUT
10
162.4542
20
58.4507
0
VERTEX
8
CUT
10
159.6696
20
62.0662
0
VERTEX
8
CUT
10
146.7778
20
81.5709
0
VERTEX
8
CUT
10
146.0753
20
82.7521
0
VERTEX
8
CUT
10
144.5070
20
85.8885
0
VERTEX
8
CUT
10
144.1640
20
86.6786
0
VERTEX
8
CUT
10
143.6286
20
88.1347
0
VERTEX
8
CUT
10
143.3881
20
88.9938
0
VERTEX
8
CUT
10
143.0491
20
90.6236
0
VERTEX
8
CUT
10
142.8540
20
92.3793
0
VERTEX
8
CUT
10
142.8547
20
94.8257
0
VERTEX
8
CUT
10
142.8814
20
95.2732
0
VERTEX
8
CUT
10
142.9771
20
95.7833
0
VERTEX
8
CUT
10
143.0127
20
95.9409
0
VERTEX
8
CUT
10
143.0788
20
96.2332
0
VERTEX
8
CUT
10
143.1307
20
96.4628
0
VERTEX
8
CUT
10
143.4423
20
97.8412
0
VERTEX
8
CUT
10
143.8981
20
99.2305
0
VERTEX
8
CUT
10
144.9236
20
101.4377
0
VERTEX
8
CUT
10
149.9336
20
109.1361
0
VERTEX
8
CUT
10
155.8269
20
117.0408
0
VERTEX
8
CUT
10
156.1449
20
117.4463
0
VERTEX
8
CUT
10
156.1469
20
117.4488
0
VERTEX
8
CUT
10
156.5221
20
117.9273
0
VERTEX
8
CUT
10
156.5571
20
117.9719
0
VERTEX
8
CUT
10
160.0308
20
121.7076
0
VERTEX
8
CUT
10
160.0442
20
121.7214
0
VERTEX
8
CUT
10
163.7799
20
124.8488
0
VERTEX
8
CUT
10
167.5829
20
127.2021
0
VERTEX
8
CUT
10
171.2807
20
128.6807
0
VERTEX
8
CUT
10
174.8587
20
129.2981
0
VERTEX
8
CUT
10
178.2091
20
128.9901
0
VERTEX
8
CUT
10
181.3327
20
127.7717
0
VERTEX
8
CUT
10
183.7088
20
125.9311
0
VERTEX
8
CUT
10
185.3470
20
124.1837
0
VERTEX
8
CUT
10
187.0620
20
121.4424
0
VERTEX
8
CUT
10
188.2907
20
118.0547
0
VERTEX
8
CUT
10
188.9931
20
114.0845
0
VERTEX
8
CUT
10
189.1786
20
109.5763
0
VERTEX
8
CUT
10
189.0548
20
107.3115
0
VERTEX
8
CUT
10
188.8076
20
105.0975
0
VERTEX
8
CUT
10
187.7699
20
100.5198
0
VERTEX
8
CUT
10
185.9586
20
95.3603
0
VERTEX
8
CUT
10
180.9356
20
83.4285
0
VERTEX
8
CUT
10
180.7414
20
82.7073
0
VERTEX
8
CUT
10
180.6718
20
82.6012
0
VERTEX
8
CUT
10
179.7567
20
79.7339
0
VERTEX
8
CUT
10
179.3602
20
77.4766
0
VERTEX
8
CUT
10
179.2687
20
75.6768
0
VERTEX
8
CUT
10
179.3602
20
71.7418
0
VERTEX
8
CUT
10
179.7567
20
68.4168
0
VERTEX
8
CUT
10
179.9073
20
67.9049
0
VERTEX
8
CUT
10
180.3008
20
64.6272
0
VERTEX
8
CUT
10
180.1443
20
61.1835
0
VERTEX
8
CUT
10
180.3740
20
60.8115
0
VERTEX
8
CUT
10
180.8310
20
60.9156
0
VERTEX
8
CUT
10
181.7384
20
63.1084
0
VERTEX
8
CUT
10
181.4077
20
70.0326
0
VERTEX
8
CUT
10
181.4707
20
74.3020
0
VERTEX
8
CUT
10
182.0419
20
76.9340
0
VERTEX
8
CUT
10
182.7877
20
78.2072
0
VERTEX
8
CUT
10
183.3176
20
78.4455
0
VERTEX
8
CUT
10
183.9034
20
77.9890
0
SEQEND
0
POLYLINE
8
CUT
66
1
70
1
10
0.0
20
0.0
30
0.0
0
VERTEX
8
CUT
10
183.2037
20
100.7817
0
VERTEX
8
CUT
10
184.2713
20
105.4793
0
VERTEX
8
CUT
10
184.4239
20
106.6080
0
VERTEX
8
CUT
10
184.2600
20
107.0379
0
VERTEX
8
CUT
10
184.4268
20
108.6481
0
VERTEX
8
CUT
10
184.4578
20
111.4564
0
VERTEX
8
CUT
10
184.1889
20
114.0508
0
VERTEX
8
CUT
10
183.6200
20
116.4306
0
VERTEX
8
CUT
10
182.7557
20
118.5899
0
VERTEX
8
CUT
10
181.6896
20
120.3931
0
VERTEX
8
CUT
10
180.3437
20
121.9123
0
VERTEX
8
CUT
10
178.8151
20
123.0371
0
VERTEX
8
CUT
10
177.1634
20
123.7302
0
VERTEX
8
CUT
10
175.5921
20
124.0265
0
VERTEX
8
CUT
10
173.9232
20
123.9682
0
VERTEX
8
CUT
10
172.1573
20
123.6385
0
VERTEX
8
CUT
10
170.3048
20
122.9389
0
VERTEX
8
CUT
10
168.3762
20
121.9422
0
VERTEX
8
CUT
10
164.3787
20
119.0563
0
VERTEX
8
CUT
10
160.5197
20
115.2305
0
VERTEX
8
CUT
10
154.3995
20
107.4065
0
VERTEX
8
CUT
10
150.7078
20
101.8837
0
VERTEX
8
CUT
10
148.4021
20
97.5688
0
VERTEX
8
CUT
10
147.7781
20
95.4498
0
VERTEX
8
CUT
10
147.4807
20
93.1318
0
VERTEX
8
CUT
10
147.7257
20
89.5738
0
VERTEX
8
CUT
10
148.3442
20
87.5137
0
VERTEX
8
CUT
10
149.4756
20
85.0660
0
VERTEX
8
CUT
10
153.2740
20
78.8694
0
VERTEX
8
CUT
10
163.4692
20
64.3206
0
VERTEX
8
CUT
10
164.8717
20
62.8477
0
VERTEX
8
CUT
10
164.8715
20
62.8432
0
VERTEX
8
CUT
10
164.9075
20
62.8101
0
VERTEX
8
CUT
10
165.9615
20
61.7033
0
VERTEX
8
CUT
10
167.1435
20
60.8524
0
VERTEX
8
CUT
10
168.2629
20
60.3338
0
VERTEX
8
CUT
10
168.5371
20
60.2869
0
VERTEX
8
CUT
10
168.5617
20
60.2418
0
VERTEX
8
CUT
10
169.4463
20
59.8757
0
VERTEX
8
CUT
10
170.7580
20
59.7537
0
VERTEX
8
CUT
10
172.1307
20
59.9367
0
VERTEX
8
CUT
10
173.1678
20
60.3333
0
VERTEX
8
CUT
10
173.8999
20
60.8518
0
VERTEX
8
CUT
10
174.4490
20
61.4009
0
VERTEX
8
CUT
10
174.5311
20
61.6744
0
VERTEX
8
CUT
10
174.7737
20
61.9701
0
VERTEX
8
CUT
10
174.8132
20
62.0809
0
VERTEX
8
CUT
10
175.0640
20
62.3994
0
VERTEX
8
CUT
10
175.5242
20
63.4335
0
VERTEX
8
CUT
10
175.6421
20
64.7906
0
VERTEX
8
CUT
10
175.1851
20
74.4360
0
VERTEX
8
CUT
10
175.4379
20
78.8475
0
VERTEX
8
CUT
10
175.5472
20
79.5508
0
VERTEX
8
CUT
10
176.3098
20
82.6012
0
VERTEX
8
CUT
10
178.2315
20
87.9395
0
VERTEX
8
CUT
10
181.6785
20
96.2671
0
SEQEND
0
POLYLINE
8
CUT
66
1
70
1
10
0.0
20
0.0
30
0.0
0
VERTEX
8
CUT
10
202.5684
20
159.2545
0
VERTEX
8
CUT
10
202.6057
20
159.4485
0
VERTEX
8
CUT
10
202.7908
20
161.7238
0
VERTEX
8
CUT
10
202.5153
20
166.3515
0
VERTEX
8
CUT
10
201.4323
20
170.9840
0
VERTEX
8
CUT
10
199.3491
20
176.5423
0
VERTEX
8
CUT
10
199.3326
20
177.0362
0
VERTEX
8
CUT
10
199.6632
20
177.2508
0
VERTEX
8
CUT
10
201.3929
20
175.7424
0
VERTEX
8
CUT
10
204.0484
20
172.5373
0
VERTEX
8
CUT
10
207.0641
20
167.7065
0
VERTEX
8
CUT
10
208.3530
20
164.9734
0
VERTEX
8
CUT
10
208.7550
20
163.8759
0
VERTEX
8
CUT
10
209.1565
20
162.5924
0
VERTEX
8
CUT
10
209.4223
20
161.7427
0
VERTEX
8
CUT
10
209.6550
20
160.9988
0
VERTEX
8
CUT
10
209.7160
20
160.8039
0
VERTEX
8
CUT
10
210.0422
20
159.4956
0
VERTEX
8
CUT
10
210.4080
20
156.5689
0
VERTEX
8
CUT
10
210.4707
20
150.1369
0
VERTEX
8
CUT
10
209.7278
20
145.6477
0
VERTEX
8
CUT
10
208.1640
20
140.8381
0
VERTEX
8
CUT
10
203.0170
20
129.1752
0
VERTEX
8
CUT
10
202.4957
20
127.7006
0
VERTEX
8
CUT
10
201.9263
20
125.0852
0
VERTEX
8
CUT
10
201.8703
20
123.6094
0
VERTEX
8
CUT
10
201.8508
20
123.5879
0
VERTEX
8
CUT
10
201.8576
20
123.2754
0
VERTEX
8
CUT
10
201.7762
20
121.1294
0
VERTEX
8
CUT
10
201.9259
20
120.1544
0
VERTEX
8
CUT
10
201.9261
20
120.1443
0
VERTEX
8
CUT
10
201.9316
20
120.1172
0
VERTEX
8
CUT
10
202.1640
20
118.6031
0
VERTEX
8
CUT
10
202.5057
20
117.4571
0
VERTEX
8
CUT
10
203.4741
20
115.4320
0
VERTEX
8
CUT
10
205.7970
20
112.3044
0
VERTEX
8
CUT
10
205.8926
20
111.9184
0
VERTEX
8
CUT
10
205.6573
20
111.5301
0
VERTEX
8
CUT
10
204.8756
20
111.4318
0
VERTEX
8
CUT
10
202.0627
20
112.5775
0
VERTEX
8
CUT
10
199.6948
20
113.9292
0
VERTEX
8
CUT
10
198.2763
20
114.9400
0
VERTEX
8
CUT
10
195.8689
20
117.3169
0
VERTEX
8
CUT
10
193.8598
20
120.2462
0
VERTEX
8
CUT
10
193.0117
20
121.8799
0
VERTEX
8
CUT
10
191.8228
20
124.9895
0
VERTEX
8
CUT
10
191.4753
20
126.9921
0
VERTEX
8
CUT
10
191.4753
20
132.9897
0
VERTEX
8
CUT
10
191.9584
20
135.2513
0
VERTEX
8
CUT
10
193.4531
20
139.5524
0
VERTEX
8
CUT
10
199.0353
20
149.4052
0
VERTEX
8
CUT
10
201.4146
20
154.3163
0
VERTEX
8
CUT
10
202.5738
20
158.2819
0
VERTEX
8
CUT
10
202.6653
20
159.0445
0
SEQEND
0
POLYLINE
8
CUT
66
1
70
1
10
0.0
20
0.0
30
0.0
0
VERTEX
8
CUT
10
86.0892
20
232.4070
0
VERTEX
8
CUT
10
90.6351
20
229.7529
0
VERTEX
8
CUT
10
92.8800
20
228.0742
0
VERTEX
8
CUT
10
94.6532
20
226.5040
0
VERTEX
8
CUT
10
94.7681
20
226.4022
0
VERTEX
8
CUT
10
95.0670
20
226.1375
0
VERTEX
8
CUT
10
96.1208
20
225.2043
0
VERTEX
8
CUT
10
96.3358
20
225.0039
0
VERTEX
8
CUT
10
96.3464
20
224.9922
0
VERTEX
8
CUT
10
96.3708
20
224.9654
0
VERTEX
8
CUT
10
96.3878
20
224.9468
0
VERTEX
8
CUT
10
96.4503
20
224.8783
0
VERTEX
8
CUT
10
98.6156
20
222.3326
0
VERTEX
8
CUT
10
100.5181
20
219.4624
0
VERTEX
8
CUT
10
101.9602
20
216.5088
0
VERTEX
8
CUT
10
102.8994
20
213.5094
0
VERTEX
8
CUT
10
103.4003
20
210.3994
0
VERTEX
8
CUT
10
103.3969
20
207.2876
0
VERTEX
8
CUT
10
102.9993
20
204.6021
0
VERTEX
8
CUT
10
102.2176
20
202.0481
0
VERTEX
8
CUT
10
101.1640
20
199.8844
0
VERTEX
8
CUT
10
100.9469
20
199.5732
0
VERTEX
8
CUT
10
100.3388
20
198.7016
0
VERTEX
8
CUT
10
99.9657
20
198.1670
0
VERTEX
8
CUT
10
99.5537
20
197.5765
0
VERTEX
8
CUT
10
98.6800
20
196.6874
0
VERTEX
8
CUT
10
98.0704
20
196.1205
0
VERTEX
8
CUT
10
97.9439
20
196.0028
0
VERTEX
8
CUT
10
97.7179
20
195.7927
0
VERTEX
8
CUT
10
97.4080
20
195.5045
0
VERTEX
8
CUT
10
95.7710
20
194.2535
0
VERTEX
8
CUT
10
93.3585
20
192.9393
0
VERTEX
8
CUT
10
88.9250
20
191.3559
0
VERTEX
8
CUT
10
86.8466
20
190.9889
0
VERTEX
8
CUT
10
85.1742
20
190.9253
0
VERTEX
8
CUT
10
80.2446
20
191.1115
0
VERTEX
8
CUT
10
78.4247
20
191.3907
0
VERTEX
8
CUT
10
74.9247
20
192.3444
0
VERTEX
8
CUT
10
71.3249
20
193.8392
0
VERTEX
8
CUT
10
68.8916
20
195.0928
0
VERTEX
8
CUT
10
68.4517
20
194.9270
0
VERTEX
8
CUT
10
68.4918
20
194.4586
0
VERTEX
8
CUT
10
69.1886
20
193.9465
0
VERTEX
8
CUT
10
69.1952
20
193.9125
0
VERTEX
8
CUT
10
71.5931
20
192.1573
0
VERTEX
8
CUT
10
71.7564
20
192.0597
0
VERTEX
8
CUT
10
73.1145
20
191.0618
0
VERTEX
8
CUT
10
77.3973
20
188.6785
0
VERTEX
8
CUT
10
80.9928
20
187.4225
0
VERTEX
8
CUT
10
82.3143
20
186.8866
0
VERTEX
8
CUT
10
83.2961
20
186.6180
0
VERTEX
8
CUT
10
83.8406
20
186.4278
0
VERTEX
8
CUT
10
85.1067
20
186.1225
0
VERTEX
8
CUT
10
85.5612
20
185.9981
0
VERTEX
8
CUT
10
85.7458
20
185.9684
0
VERTEX
8
CUT
10
88.8906
20
185.2101
0
VERTEX
8
CUT
10
93.8730
20
184.6332
0
VERTEX
8
CUT
10
96.1379
20
184.5948
0
VERTEX
8
CUT
10
96.8481
20
184.5425
0
VERTEX
8
CUT
10
100.6161
20
184.5191
0
VERTEX
8
CUT
10
117.2933
20
184.2369
0
VERTEX
8
CUT
10
120.2701
20
183.8693
0
VERTEX
8
CUT
10
122.7149
20
183.2283
0
VERTEX
8
CUT
10
122.7650
20
183.2140
0
VERTEX
8
CUT
10
125.6941
20
182.0692
0
VERTEX
8
CUT
10
128.4635
20
180.3431
0
VERTEX
8
CUT
10
130.6967
20
178.4742
0
VERTEX
8
CUT
10
135.6164
20
173.7744
0
VERTEX
8
CUT
10
139.0738
20
170.3735
0
VERTEX
8
CUT
10
141.1793
20
168.7285
0
VERTEX
8
CUT
10
143.2246
20
167.6613
0
VERTEX
8
CUT
10
144.8662
20
167.0539
0
VERTEX
8
CUT
10
146.3104
20
166.8497
0
VERTEX
8
CUT
10
148.7711
20
166.9722
0
VERTEX
8
CUT
10
149.8221
20
167.3599
0
VERTEX
8
CUT
10
151.2446
20
168.3585
0
VERTEX
8
CUT
10
152.0077
20
169.2998
0
VERTEX
8
CUT
10
152.5434
20
170.4525
0
VERTEX
8
CUT
10
152.8855
20
171.9442
0
VERTEX
8
CUT
10
152.7938
20
175.7826
0
VERTEX
8
CUT
10
152.4289
20
178.1765
0
VERTEX
8
CUT
10
150.8477
20
185.2617
0
VERTEX
8
CUT
10
150.6920
20
187.1081
0
VERTEX
8
CUT
10
150.7543
20
188.3417
0
VERTEX
8
CUT
10
150.8389
20
188.4504
0
VERTEX
8
CUT
10
151.0016
20
189.7984
0
VERTEX
8
CUT
10
151.2393
20
190.7938
0
VERTEX
8
CUT
10
151.9065
20
192.8430
0
VERTEX
8
CUT
10
155.8720
20
202.1772
0
VERTEX
8
CUT
10
157.1837
20
206.7833
0
VERTEX
8
CUT
10
157.2447
20
207.6985
0
VERTEX
8
CUT
10
157.1963
20
207.7630
0
VERTEX
8
CUT
10
157.2505
20
208.1035
0
VERTEX
8
CUT
10
157.3705
20
212.8515
0
VERTEX
8
CUT
10
157.0375
20
218.0627
0
VERTEX
8
CUT
10
156.2725
20
223.7050
0
VERTEX
8
CUT
10
156.2726
20
226.4999
0
VERTEX
8
CUT
10
156.5539
20
227.8546
0
VERTEX
8
CUT
10
156.9971
20
228.9024
0
VERTEX
8
CUT
10
158.1598
20
230.8816
0
VERTEX
8
CUT
10
158.5024
20
231.6271
0
VERTEX
8
CUT
10
159.6730
20
233.7453
0
VERTEX
8
CUT
10
159.6702
20
234.1688
0
VERTEX
8
CUT
10
159.7155
20
234.2675
0
VERTEX
8
CUT
10
159.6683
20
234.4685
0
VERTEX
8
CUT
10
159.6277
20
240.6675
0
VERTEX
8
CUT
10
160.1001
20
243.0066
0
VERTEX
8
CUT
10
161.2746
20
245.0220
0
VERTEX
8
CUT
10
163.4667
20
247.5883
0
VERTEX
8
CUT
10
165.9996
20
250.2130
0
VERTEX
8
CUT
10
167.9313
20
251.5839
0
VERTEX
8
CUT
10
168.3927
20
251.7153
0
VERTEX
8
CUT
10
168.6839
20
251.7225
0
VERTEX
8
CUT
10
168.7901
20
251.7013
0
VERTEX
8
CUT
10
168.8980
20
251.6797
0
VERTEX
8
CUT
10
169.2057
20
251.6182
0
VERTEX
8
CUT
10
169.8227
20
251.4949
0
VERTEX
8
CUT
10
170.1502
20
251.3086
0
VERTEX
8
CUT
10
171.2273
20
249.9793
0
VERTEX
8
CUT
10
171.3261
20
249.7878
0
VERTEX
8
CUT
10
171.4866
20
248.8417
0
VERTEX
8
CUT
10
171.4368
20
247.2820
0
VERTEX
8
CUT
10
171.1624
20
246.0761
0
VERTEX
8
CUT
10
170.4859
20
244.5918
0
VERTEX
8
CUT
10
170.8407
20
244.1777
0
VERTEX
8
CUT
10
171.2865
20
244.4268
0
VERTEX
8
CUT
10
172.1406
20
245.6134
0
VERTEX
8
CUT
10
173.8588
20
249.9978
0
VERTEX
8
CUT
10
175.0110
20
251.2700
0
VERTEX
8
CUT
10
176.4002
20
251.5865
0
VERTEX
8
CUT
10
176.7097
20
251.5320
0
VERTEX
8
CUT
10
176.8246
20
251.5117
0
VERTEX
8
CUT
10
176.9446
20
251.4906
0
VERTEX
8
CUT
10
177.0673
20
251.4690
0
VERTEX
8
CUT
10
177.3059
20
251.3998
0
VERTEX
8
CUT
10
177.6370
20
251.2400
0
VERTEX
8
CUT
10
177.7161
20
251.1857
0
VERTEX
8
CUT
10
178.3658
20
250.6247
0
VERTEX
8
CUT
10
178.8701
20
249.6565
0
VERTEX
8
CUT
10
179.1725
20
248.4348
0
VERTEX
8
CUT
10
179.1413
20
247.0871
0
VERTEX
8
CUT
10
178.8576
20
245.6426
0
VERTEX
8
CUT
10
178.1571
20
244.0868
0
VERTEX
8
CUT
10
178.4517
20
243.6255
0
VERTEX
8
CUT
10
178.8300
20
243.7477
0
VERTEX
8
CUT
10
179.5810
20
244.8774
0
VERTEX
8
CUT
10
180.0816
20
246.0650
0
VERTEX
8
CUT
10
180.1386
20
246.1758
0
VERTEX
8
CUT
10
180.1804
20
246.2995
0
VERTEX
8
CUT
10
181.5529
20
249.5552
0
VERTEX
8
CUT
10
181.8466
20
249.8366
0
VERTEX
8
CUT
10
182.2009
20
249.8338
0
VERTEX
8
CUT
10
183.0207
20
248.7367
0
VERTEX
8
CUT
10
183.1335
20
248.3974
0
VERTEX
8
CUT
10
183.5051
20
246.8367
0
VERTEX
8
CUT
10
183.4405
20
245.0000
0
VERTEX
8
CUT
10
182.7918
20
243.1572
0
VERTEX
8
CUT
10
182.6057
20
242.7316
0
VERTEX
8
CUT
10
182.5597
20
242.6266
0
VERTEX
8
CUT
10
181.9466
20
241.7119
0
VERTEX
8
CUT
10
180.0836
20
239.9103
0
VERTEX
8
CUT
10
175.6079
20
237.3394
0
VERTEX
8
CUT
10
175.0112
20
236.8828
0
VERTEX
8
CUT
10
174.6452
20
236.6354
0
VERTEX
8
CUT
10
174.5048
20
236.4954
0
VERTEX
8
CUT
10
174.3657
20
236.3889
0
VERTEX
8
CUT
10
174.1773
20
236.1687
0
VERTEX
8
CUT
10
173.6694
20
235.6622
0
VERTEX
8
CUT
10
173.4658
20
235.3370
0
VERTEX
8
CUT
10
173.4550
20
235.3243
0
VERTEX
8
CUT
10
173.4460
20
235.3053
0
VERTEX
8
CUT
10
172.8859
20
234.4109
0
VERTEX
8
CUT
10
172.4457
20
233.1902
0
VERTEX
8
CUT
10
172.3300
20
232.9457
0
VERTEX
8
CUT
10
172.2309
20
232.1310
0
VERTEX
8
CUT
10
172.0994
20
231.3981
0
VERTEX
8
CUT
10
171.9749
20
229.3060
0
VERTEX
8
CUT
10
171.9998
20
228.2024
0
VERTEX
8
CUT
10
171.7799
20
219.6098
0
VERTEX
8
CUT
10
171.6964
20
218.4721
0
VERTEX
8
CUT
10
170.9373
20
213.9982
0
VERTEX
8
CUT
10
170.7228
20
211.6715
0
VERTEX
8
CUT
10
170.6316
20
204.6110
0
VERTEX
8
CUT
10
170.6760
20
204.1085
0
VERTEX
8
CUT
10
170.6055
20
204.0380
0
VERTEX
8
CUT
10
170.5445
20
203.3974
0
VERTEX
8
CUT
10
171.2156
20
199.8894
0
VERTEX
8
CUT
10
172.1917
20
197.0525
0
VERTEX
8
CUT
10
172.2497
20
196.9353
0
VERTEX
8
CUT
10
172.3728
20
196.5845
0
VERTEX
8
CUT
10
172.8898
20
195.6401
0
VERTEX
8
CUT
10
173.5034
20
194.3987
0
VERTEX
8
CUT
10
175.2421
20
192.1719
0
VERTEX
8
CUT
10
184.0578
20
182.6241
0
VERTEX
8
CUT
10
186.1626
20
178.8721
0
VERTEX
8
CUT
10
187.4810
20
175.9001
0
VERTEX
8
CUT
10
188.0057
20
174.4331
0
VERTEX
8
CUT
10
188.8432
20
169.4494
0
VERTEX
8
CUT
10
188.9644
20
166.9253
0
VERTEX
8
CUT
10
188.8401
20
164.4071
0
VERTEX
8
CUT
10
187.9445
20
159.5480
0
VERTEX
8
CUT
10
187.1717
20
157.2683
0
VERTEX
8
CUT
10
186.1117
20
154.9968
0
VERTEX
8
CUT
10
182.9554
20
149.7835
0
VERTEX
8
CUT
10
178.6429
20
144.0929
0
VERTEX
8
CUT
10
176.0951
20
141.1458
0
VERTEX
8
CUT
10
170.3819
20
135.1888
0
VERTEX
8
CUT
10
165.1013
20
130.3966
0
VERTEX
8
CUT
10
162.0230
20
128.0879
0
VERTEX
8
CUT
10
157.8386
20
125.7212
0
VERTEX
8
CUT
10
156.5010
20
125.1953
0
VERTEX
8
CUT
10
155.5441
20
125.1961
0
VERTEX
8
CUT
10
154.7518
20
125.9540
0
VERTEX
8
CUT
10
153.7234
20
127.7783
0
VERTEX
8
CUT
10
153.2917
20
128.6879
0
VERTEX
8
CUT
10
152.9302
20
129.1856
0
VERTEX
8
CUT
10
152.2652
20
130.3652
0
VERTEX
8
CUT
10
150.0232
20
133.2382
0
VERTEX
8
CUT
10
147.2964
20
135.9350
0
VERTEX
8
CUT
10
143.9579
20
138.6306
0
VERTEX
8
CUT
10
140.1324
20
141.1492
0
VERTEX
8
CUT
10
138.2861
20
142.1764
0
VERTEX
8
CUT
10
138.0512
20
142.3255
0
VERTEX
8
CUT
10
137.4741
20
142.6281
0
VERTEX
8
CUT
10
135.8373
20
143.5387
0
VERTEX
8
CUT
10
134.7876
20
144.0370
0
VERTEX
8
CUT
10
133.6897
20
144.6129
0
VERTEX
8
CUT
10
132.6810
20
145.0371
0
VERTEX
8
CUT
10
131.0080
20
145.8313
0
VERTEX
8
CUT
10
125.7100
20
147.9923
0
VERTEX
8
CUT
10
105.8041
20
154.3633
0
VERTEX
8
CUT
10
95.0506
20
158.4774
0
VERTEX
8
CUT
10
94.7247
20
158.6173
0
VERTEX
8
CUT
10
94.0699
20
158.8984
0
VERTEX
8
CUT
10
93.8848
20
158.9779
0
VERTEX
8
CUT
10
93.4369
20
159.1702
0
VERTEX
8
CUT
10
87.6836
20
161.9123
0
VERTEX
8
CUT
10
77.7347
20
167.7413
0
VERTEX
8
CUT
10
71.6078
20
172.0303
0
VERTEX
8
CUT
10
68.7645
20
174.2932
0
VERTEX
8
CUT
10
63.7239
20
178.8212
0
VERTEX
8
CUT
10
63.4826
20
179.0640
0
VERTEX
8
CUT
10
63.3102
20
179.2374
0
VERTEX
8
CUT
10
63.1568
20
179.3919
0
VERTEX
8
CUT
10
62.4352
20
180.1179
0
VERTEX
8
CUT
10
58.3873
20
184.3594
0
VERTEX
8
CUT
10
57.5853
20
185.2588
0
VERTEX
8
CUT
10
57.1666
20
185.7504
0
VERTEX
8
CUT
10
52.2966
20
192.1968
0
VERTEX
8
CUT
10
50.1218
20
195.7786
0
VERTEX
8
CUT
10
48.2410
20
199.4475
0
VERTEX
8
CUT
10
46.9552
20
202.4642
0
VERTEX
8
CUT
10
46.3150
20
204.2996
0
VERTEX
8
CUT
10
46.2108
20
204.5983
0
VERTEX
8
CUT
10
46.0373
20
205.0955
0
VERTEX
8
CUT
10
45.3620
20
207.0315
0
VERTEX
8
CUT
10
44.1489
20
212.3385
0
VERTEX
8
CUT
10
44.0763
20
212.7560
0
VERTEX
8
CUT
10
43.7429
20
219.6914
0
VERTEX
8
CUT
10
44.0828
20
226.6851
0
VERTEX
8
CUT
10
44.3454
20
228.1869
0
VERTEX
8
CUT
10
44.4167
20
228.4730
0
VERTEX
8
CUT
10
45.5025
20
232.1274
0
VERTEX
8
CUT
10
45.7810
20
232.8591
0
VERTEX
8
CUT
10
47.0321
20
235.5804
0
VERTEX
8
CUT
10
48.1015
20
237.4455
0
VERTEX
8
CUT
10
48.1732
20
237.5705
0
VERTEX
8
CUT
10
48.2816
20
237.7596
0
VERTEX
8
CUT
10
48.3324
20
237.8483
0
VERTEX
8
CUT
10
49.3297
20
239.4072
0
VERTEX
8
CUT
10
50.4882
20
240.8691
0
VERTEX
8
CUT
10
50.8189
20
241.2864
0
VERTEX
8
CUT
10
51.9153
20
242.5539
0
VERTEX
8
CUT
10
53.3491
20
243.9451
0
VERTEX
8
CUT
10
53.5345
20
244.1251
0
VERTEX
8
CUT
10
53.7144
20
244.2996
0
VERTEX
8
CUT
10
53.8158
20
244.3980
0
VERTEX
8
CUT
10
55.0865
20
245.5235
0
VERTEX
8
CUT
10
55.2179
20
245.6220
0
VERTEX
8
CUT
10
55.2367
20
245.6361
0
VERTEX
8
CUT
10
55.2413
20
245.6395
0
VERTEX
8
CUT
10
55.2550
20
245.6498
0
VERTEX
8
CUT
10
55.3036
20
245.6863
0
VERTEX
8
CUT
10
55.7275
20
246.0043
0
VERTEX
8
CUT
10
56.9558
20
246.9254
0
VERTEX
8
CUT
10
59.2496
20
248.4650
0
VERTEX
8
CUT
10
59.3618
20
248.5277
0
VERTEX
8
CUT
10
59.6230
20
248.6736
0
VERTEX
8
CUT
10
59.6831
20
248.7071
0
VERTEX
8
CUT
10
59.7632
20
248.7519
0
VERTEX
8
CUT
10
63.4143
20
250.5742
0
VERTEX
8
CUT
10
63.5342
20
250.6246
0
VERTEX
8
CUT
10
69.4717
20
252.5922
0
VERTEX
8
CUT
10
72.7183
20
253.2656
0
VERTEX
8
CUT
10
74.4235
20
253.4947
0
VERTEX
8
CUT
10
74.6351
20
253.5229
0
VERTEX
8
CUT
10
74.8700
20
253.5542
0
VERTEX
8
CUT
10
75.0897
20
253.5834
0
VERTEX
8
CUT
10
76.3915
20
253.7569
0
VERTEX
8
CUT
10
92.6494
20
254.6702
0
VERTEX
8
CUT
10
99.0964
20
255.2781
0
VERTEX
8
CUT
10
104.1398
20
256.2189
0
VERTEX
8
CUT
10
110.8155
20
258.1388
0
VERTEX
8
CUT
10
112.4581
20
258.3435
0
VERTEX
8
CUT
10
112.5778
20
257.8339
0
VERTEX
8
CUT
10
112.1948
20
257.2818
0
VERTEX
8
CUT
10
109.7530
20
255.2690
0
VERTEX
8
CUT
10
106.3136
20
253.2103
0
VERTEX
8
CUT
10
103.0039
20
251.7883
0
VERTEX
8
CUT
10
99.1453
20
250.6561
0
VERTEX
8
CUT
10
94.1756
20
249.6195
0
VERTEX
8
CUT
10
80.4446
20
247.5138
0
VERTEX
8
CUT
10
78.8737
20
247.2080
0
VERTEX
8
CUT
10
78.0730
20
247.0884
0
VERTEX
8
CUT
10
77.3413
20
246.9098
0
VERTEX
8
CUT
10
75.7706
20
246.6041
0
VERTEX
8
CUT
10
71.5487
20
245.3792
0
VERTEX
8
CUT
10
67.7272
20
243.8747
0
VERTEX
8
CUT
10
64.1728
20
242.0662
0
VERTEX
8
CUT
10
61.0209
20
240.0027
0
VERTEX
8
CUT
10
58.1716
20
237.6645
0
VERTEX
8
CUT
10
55.7524
20
235.0960
0
VERTEX
8
CUT
10
53.6629
20
232.2544
0
VERTEX
8
CUT
10
51.9437
20
229.0978
0
VERTEX
8
CUT
10
50.6865
20
225.9552
0
VERTEX
8
CUT
10
50.1341
20
223.8048
0
VERTEX
8
CUT
10
49.6515
20
220.0963
0
VERTEX
8
CUT
10
49.9280
20
219.7639
0
VERTEX
8
CUT
10
50.3636
20
219.9223
0
VERTEX
8
CUT
10
51.2919
20
222.9653
0
VERTEX
8
CUT
10
52.6043
20
225.6840
0
VERTEX
8
CUT
10
54.2630
20
228.2092
0
VERTEX
8
CUT
10
56.2627
20
230.4614
0
VERTEX
8
CUT
10
58.5713
20
232.4061
0
VERTEX
8
CUT
10
61.1250
20
234.0107
0
VERTEX
8
CUT
10
63.9814
20
235.2664
0
VERTEX
8
CUT
10
66.9611
20
236.0931
0
VERTEX
8
CUT
10
69.7350
20
236.4282
0
VERTEX
8
CUT
10
72.8256
20
236.4289
0
VERTEX
8
CUT
10
75.9042
20
236.1851
0
VERTEX
8
CUT
10
78.6512
20
235.6009
0
VERTEX
8
CUT
10
81.2957
20
234.6798
0
SEQEND
0
ENDSEC
0
EOF
