0
SECTION
2
HEADER
9
$ACADVER
1
AC1009
9
$INSUNITS
70
4
0
ENDSEC
0
SECTION
2
TABLES
0
TABLE
2
LAYER
70
1
0
LAYER
2
CUT
70
0
62
7
6
CONTINUOUS
0
ENDTAB
0
ENDSEC
0
SECTION
2
ENTITIES
0
POLYLINE
8
CUT
66
1
70
1
10
0.0
20
0.0
30
0.0
0
VERTEX
8
CUT
10
56.7387
20
93.3804
0
VERTEX
8
CUT
10
57.0985
20
93.4151
0
VERTEX
8
CUT
10
57.5763
20
93.3806
0
VERTEX
8
CUT
10
57.6666
20
93.3741
0
VERTEX
8
CUT
10
58.2125
20
93.3346
0
VERTEX
8
CUT
10
58.9384
20
93.2822
0
VERTEX
8
CUT
10
60.0176
20
92.9072
0
VERTEX
8
CUT
10
60.1317
20
92.8627
0
VERTEX
8
CUT
10
61.2221
20
92.2241
0
VERTEX
8
CUT
10
62.2037
20
91.2742
0
VERTEX
8
CUT
10
63.3436
20
89.2019
0
VERTEX
8
CUT
10
63.3796
20
89.1109
0
VERTEX
8
CUT
10
63.6540
20
87.0078
0
VERTEX
8
CUT
10
63.6800
20
82.9410
0
VERTEX
8
CUT
10
63.6229
20
82.2276
0
VERTEX
8
CUT
10
63.6850
20
82.1650
0
VERTEX
8
CUT
10
63.6873
20
81.8060
0
VERTEX
8
CUT
10
74.5981
20
71.1646
0
VERTEX
8
CUT
10
80.0802
20
66.1088
0
VERTEX
8
CUT
10
80.7558
20
65.5829
0
VERTEX
8
CUT
10
80.8244
20
65.5194
0
VERTEX
8
CUT
10
80.9909
20
65.3999
0
VERTEX
8
CUT
10
82.3812
20
64.3177
0
VERTEX
8
CUT
10
83.3040
20
64.4009
0
VERTEX
8
CUT
10
86.1157
20
65.3005
0
VERTEX
8
CUT
10
88.3930
20
65.4240
0
VERTEX
8
CUT
10
90.5073
20
64.8199
0
VERTEX
8
CUT
10
92.2873
20
63.4560
0
VERTEX
8
CUT
10
92.4402
20
63.2905
0
VERTEX
8
CUT
10
92.4416
20
63.2890
0
VERTEX
8
CUT
10
93.5517
20
61.5655
0
VERTEX
8
CUT
10
93.9142
20
60.4081
0
VERTEX
8
CUT
10
93.9863
20
58.5468
0
VERTEX
8
CUT
10
93.9746
20
58.2399
0
VERTEX
8
CUT
10
93.7452
20
57.1916
0
VERTEX
8
CUT
10
93.5355
20
56.4703
0
VERTEX
8
CUT
10
93.4140
20
56.2074
0
VERTEX
8
CUT
10
93.3409
20
56.0491
0
VERTEX
8
CUT
10
93.3324
20
56.0307
0
VERTEX
8
CUT
10
93.2442
20
55.8399
0
VERTEX
8
CUT
10
92.1872
20
54.5236
0
VERTEX
8
CUT
10
90.4707
20
53.2984
0
VERTEX
8
CUT
10
88.7082
20
52.6273
0
VERTEX
8
CUT
10
88.3807
20
52.5756
0
VERTEX
8
CUT
10
88.3107
20
52.5645
0
VERTEX
8
CUT
10
88.0543
20
52.5240
0
VERTEX
8
CUT
10
87.9349
20
52.5051
0
VERTEX
8
CUT
10
87.2816
20
52.4370
0
VERTEX
8
CUT
10
87.1840
20
52.3864
0
VERTEX
8
CUT
10
87.1786
20
52.3856
0
VERTEX
8
CUT
10
87.1690
20
52.3787
0
VERTEX
8
CUT
10
86.8875
20
52.2328
0
VERTEX
8
CUT
10
86.8399
20
52.1409
0
VERTEX
8
CUT
10
86.7617
20
52.0844
0
VERTEX
8
CUT
10
86.5262
20
51.5175
0
VERTEX
8
CUT
10
86.4579
20
50.7042
0
VERTEX
8
CUT
10
86.1863
20
48.9189
0
VERTEX
8
CUT
10
85.5448
20
46.9646
0
VERTEX
8
CUT
10
84.4843
20
45.3006
0
VERTEX
8
CUT
10
83.7751
20
44.5870
0
VERTEX
8
CUT
10
82.3894
20
43.7562
0
VERTEX
8
CUT
10
81.9572
20
43.6202
0
VERTEX
8
CUT
10
80.0460
20
43.3584
0
VERTEX
8
CUT
10
79.8564
20
43.3888
0
VERTEX
8
CUT
10
79.7224
20
43.4103
0
VERTEX
8
CUT
10
79.4930
20
43.4471
0
VERTEX
8
CUT
10
79.0405
20
43.5198
0
VERTEX
8
CUT
10
77.7602
20
43.7601
0
VERTEX
8
CUT
10
76.1187
20
44.9838
0
VERTEX
8
CUT
10
74.6823
20
46.8200
0
VERTEX
8
CUT
10
74.1220
20
48.2760
0
VERTEX
8
CUT
10
73.9974
20
48.9845
0
VERTEX
8
CUT
10
73.9508
20
50.7268
0
VERTEX
8
CUT
10
74.3347
20
54.2630
0
VERTEX
8
CUT
10
74.3082
20
54.3300
0
VERTEX
8
CUT
10
74.4109
20
55.2462
0
VERTEX
8
CUT
10
61.0749
20
67.9584
0
VERTEX
8
CUT
10
55.9996
20
72.5530
0
VERTEX
8
CUT
10
55.2371
20
72.7910
0
VERTEX
8
CUT
10
51.7487
20
71.6242
0
VERTEX
8
CUT
10
50.1381
20
71.5251
0
VERTEX
8
CUT
10
49.0610
20
71.6144
0
VERTEX
8
CUT
10
48.8724
20
71.6450
0
VERTEX
8
CUT
10
48.7007
20
71.7108
0
VERTEX
8
CUT
10
48.6590
20
71.7267
0
VERTEX
8
CUT
10
48.6055
20
71.7472
0
VERTEX
8
CUT
10
48.5361
20
71.7738
0
VERTEX
8
CUT
10
47.1201
20
72.3916
0
VERTEX
8
CUT
10
47.0545
20
72.4340
0
VERTEX
8
CUT
10
47.0088
20
72.4635
0
VERTEX
8
CUT
10
46.9757
20
72.4849
0
VERTEX
8
CUT
10
46.8552
20
72.5628
0
VERTEX
8
CUT
10
46.2182
20
73.0545
0
VERTEX
8
CUT
10
44.9879
20
74.4974
0
VERTEX
8
CUT
10
44.3223
20
75.8676
0
VERTEX
8
CUT
10
44.0967
20
76.7389
0
VERTEX
8
CUT
10
44.0766
20
76.8755
0
VERTEX
8
CUT
10
44.0203
20
77.6306
0
VERTEX
8
CUT
10
44.0092
20
77.7785
0
VERTEX
8
CUT
10
43.9973
20
77.9382
0
VERTEX
8
CUT
10
43.9735
20
78.2574
0
VERTEX
8
CUT
10
44.1467
20
79.6028
0
VERTEX
8
CUT
10
44.7822
20
81.2183
0
VERTEX
8
CUT
10
45.8581
20
82.6058
0
VERTEX
8
CUT
10
47.3240
20
83.6663
0
VERTEX
8
CUT
10
50.0292
20
84.5686
0
VERTEX
8
CUT
10
50.5426
20
84.6480
0
VERTEX
8
CUT
10
50.6944
20
84.7233
0
VERTEX
8
CUT
10
50.9420
20
84.7695
0
VERTEX
8
CUT
10
51.0638
20
84.9066
0
VERTEX
8
CUT
10
51.1074
20
84.9282
0
VERTEX
8
CUT
10
51.2449
20
84.9740
0
VERTEX
8
CUT
10
51.4652
20
85.5545
0
VERTEX
8
CUT
10
51.4757
20
85.6755
0
VERTEX
8
CUT
10
51.4904
20
85.7157
0
VERTEX
8
CUT
10
51.5143
20
86.1208
0
VERTEX
8
CUT
10
51.6928
20
88.1812
0
VERTEX
8
CUT
10
51.7419
20
88.3682
0
VERTEX
8
CUT
10
51.7463
20
88.3851
0
VERTEX
8
CUT
10
51.7572
20
88.4265
0
VERTEX
8
CUT
10
51.8819
20
88.9018
0
VERTEX
8
CUT
10
52.1409
20
89.7411
0
VERTEX
8
CUT
10
52.6459
20
90.6658
0
VERTEX
8
CUT
10
52.6682
20
90.7043
0
VERTEX
8
CUT
10
52.6937
20
90.7482
0
VERTEX
8
CUT
10
52.7029
20
90.7642
0
VERTEX
8
CUT
10
52.8580
20
91.0316
0
VERTEX
8
CUT
10
53.8388
20
92.0826
0
VERTEX
8
CUT
10
54.9904
20
92.8533
0
VERTEX
8
CUT
10
55.8650
20
93.1837
0
SEQEND
0
POLYLINE
8
CUT
66
1
70
1
10
0.0
20
0.0
30
0.0
0
VERTEX
8
CUT
10
299.4814
20
286.1547
0
VERTEX
8
CUT
10
299.6034
20
252.3576
0
VERTEX
8
CUT
10
299.6950
20
149.9851
0
VERTEX
8
CUT
10
299.6034
20
47.6133
0
VERTEX
8
CUT
10
299.4814
20
13.8148
0
VERTEX
8
CUT
10
299.2502
20
0.7478
0
VERTEX
8
CUT
10
286.1547
20
0.4881
0
VERTEX
8
CUT
10
252.3576
20
0.3661
0
VERTEX
8
CUT
10
13.8106
20
0.4881
0
VERTEX
8
CUT
10
0.8872
20
0.6710
0
VERTEX
8
CUT
10
0.7022
20
0.8321
0
VERTEX
8
CUT
10
0.3660
20
59.9665
0
VERTEX
8
CUT
10
0.3356
20
81.6600
0
VERTEX
8
CUT
10
0.2745
20
149.9844
0
VERTEX
8
CUT
10
0.3660
20
252.3562
0
VERTEX
8
CUT
10
0.4881
20
286.1547
0
VERTEX
8
CUT
10
0.7193
20
299.2217
0
VERTEX
8
CUT
10
13.8148
20
299.4814
0
VERTEX
8
CUT
10
47.6119
20
299.6034
0
VERTEX
8
CUT
10
149.9844
20
299.6950
0
VERTEX
8
CUT
10
252.3562
20
299.6034
0
VERTEX
8
CUT
10
286.1547
20
299.4814
0
VERTEX
8
CUT
10
299.2217
20
299.2502
0
SEQEND
0
POLYLINE
8
CUT
66
1
70
1
10
0.0
20
0.0
30
0.0
0
VERTEX
8
CUT
10
280.4625
20
214.2432
0
VERTEX
8
CUT
10
283.9052
20
206.2610
0
VERTEX
8
CUT
10
288.4995
20
193.5988
0
VERTEX
8
CUT
10
288.7885
20
193.3689
0
VERTEX
8
CUT
10
289.1117
20
193.4571
0
VERTEX
8
CUT
10
289.3615
20
196.6550
0
VERTEX
8
CUT
10
289.4532
20
207.0605
0
VERTEX
8
CUT
10
289.4837
20
253.6062
0
VERTEX
8
CUT
10
289.3617
20
283.8926
0
VERTEX
8
CUT
10
289.2442
20
286.2331
0
VERTEX
8
CUT
10
289.1198
20
289.2576
0
VERTEX
8
CUT
10
289.0922
20
289.2599
0
VERTEX
8
CUT
10
289.0868
20
289.3665
0
VERTEX
8
CUT
10
286.9948
20
289.6060
0
VERTEX
8
CUT
10
273.5232
20
289.7582
0
VERTEX
8
CUT
10
266.4109
20
289.7623
0
VERTEX
8
CUT
10
260.6518
20
289.8192
0
VERTEX
8
CUT
10
227.7396
20
289.8192
0
VERTEX
8
CUT
10
225.2498
20
289.7859
0
VERTEX
8
CUT
10
220.2963
20
289.7887
0
VERTEX
8
CUT
10
201.3061
20
289.5626
0
VERTEX
8
CUT
10
201.0791
20
289.6324
0
VERTEX
8
CUT
10
200.3775
20
289.5104
0
VERTEX
8
CUT
10
200.4080
20
289.2054
0
VERTEX
8
CUT
10
200.4700
20
289.1678
0
VERTEX
8
CUT
10
200.6668
20
288.8361
0
VERTEX
8
CUT
10
210.7031
20
284.4985
0
VERTEX
8
CUT
10
219.4425
20
280.0846
0
VERTEX
8
CUT
10
225.0488
20
276.7815
0
VERTEX
8
CUT
10
233.0562
20
271.5033
0
VERTEX
8
CUT
10
233.4780
20
271.1998
0
VERTEX
8
CUT
10
242.3287
20
264.2040
0
VERTEX
8
CUT
10
246.7284
20
260.2631
0
VERTEX
8
CUT
10
251.1395
20
256.0049
0
VERTEX
8
CUT
10
257.1116
20
249.6672
0
VERTEX
8
CUT
10
262.6401
20
243.1316
0
VERTEX
8
CUT
10
267.7254
20
236.3310
0
VERTEX
8
CUT
10
271.7049
20
230.3213
0
VERTEX
8
CUT
10
273.1468
20
227.9673
0
VERTEX
8
CUT
10
276.6035
20
221.9307
0
SEQEND
0
POLYLINE
8
CUT
66
1
70
1
10
0.0
20
0.0
30
0.0
0
VERTEX
8
CUT
10
289.3312
20
31.3540
0
VERTEX
8
CUT
10
289.3226
20
39.4767
0
VERTEX
8
CUT
10
289.3312
20
41.2390
0
VERTEX
8
CUT
10
289.2702
20
89.9529
0
VERTEX
8
CUT
10
289.0879
20
105.4969
0
VERTEX
8
CUT
10
288.8195
20
106.7469
0
VERTEX
8
CUT
10
288.2891
20
106.7695
0
VERTEX
8
CUT
10
287.8772
20
106.0145
0
VERTEX
8
CUT
10
284.7613
20
98.0752
0
VERTEX
8
CUT
10
280.8264
20
88.9853
0
VERTEX
8
CUT
10
276.5814
20
80.5859
0
VERTEX
8
CUT
10
274.2234
20
76.4819
0
VERTEX
8
CUT
10
268.9761
20
68.1228
0
VERTEX
8
CUT
10
262.8109
20
59.5152
0
VERTEX
8
CUT
10
256.0113
20
51.3373
0
VERTEX
8
CUT
10
248.6995
20
43.6904
0
VERTEX
8
CUT
10
240.8808
20
36.5423
0
VERTEX
8
CUT
10
232.6421
20
29.9881
0
VERTEX
8
CUT
10
224.0513
20
24.0782
0
VERTEX
8
CUT
10
215.1314
20
18.8533
0
VERTEX
8
CUT
10
205.9498
20
14.3229
0
VERTEX
8
CUT
10
200.7687
20
12.2047
0
VERTEX
8
CUT
10
200.2554
20
11.8706
0
VERTEX
8
CUT
10
199.8383
20
11.2945
0
VERTEX
8
CUT
10
200.0799
20
10.8877
0
VERTEX
8
CUT
10
201.0692
20
10.7902
0
VERTEX
8
CUT
10
212.6723
20
10.6078
0
VERTEX
8
CUT
10
254.0278
20
10.6683
0
VERTEX
8
CUT
10
284.2637
20
10.6421
0
VERTEX
8
CUT
10
288.2902
20
10.7641
0
VERTEX
8
CUT
10
288.4094
20
10.9056
0
VERTEX
8
CUT
10
288.4213
20
10.9064
0
VERTEX
8
CUT
10
288.7219
20
11.0959
0
VERTEX
8
CUT
10
289.1169
20
11.8270
0
VERTEX
8
CUT
10
289.1717
20
14.3131
0
VERTEX
8
CUT
10
289.1785
20
14.3952
0
VERTEX
8
CUT
10
289.1819
20
14.7776
0
VERTEX
8
CUT
10
289.2091
20
16.0106
0
VERTEX
8
CUT
10
289.2278
20
19.8722
0
SEQEND
0
POLYLINE
8
CUT
66
1
70
1
10
0.0
20
0.0
30
0.0
0
VERTEX
8
CUT
10
190.6841
20
17.6353
0
VERTEX
8
CUT
10
193.0039
20
18.3401
0
VERTEX
8
CUT
10
193.8998
20
18.6900
0
VERTEX
8
CUT
10
195.4968
20
19.2138
0
VERTEX
8
CUT
10
199.2476
20
20.7787
0
VERTEX
8
CUT
10
202.0763
20
21.8835
0
VERTEX
8
CUT
10
203.2562
20
22.4511
0
VERTEX
8
CUT
10
204.7091
20
23.0573
0
VERTEX
8
CUT
10
208.0951
20
24.7792
0
VERTEX
8
CUT
10
210.8772
20
26.1177
0
VERTEX
8
CUT
10
211.9414
20
26.7352
0
VERTEX
8
CUT
10
213.6468
20
27.6024
0
VERTEX
8
CUT
10
217.6779
20
30.0635
0
VERTEX
8
CUT
10
219.4338
20
31.0823
0
VERTEX
8
CUT
10
220.2002
20
31.6034
0
VERTEX
8
CUT
10
222.3404
20
32.9101
0
VERTEX
8
CUT
10
226.6129
20
35.9641
0
VERTEX
8
CUT
10
227.7878
20
36.7630
0
VERTEX
8
CUT
10
228.3688
20
37.2192
0
VERTEX
8
CUT
10
230.7900
20
38.9499
0
VERTEX
8
CUT
10
234.6779
20
42.1729
0
VERTEX
8
CUT
10
236.0333
20
43.2372
0
VERTEX
8
CUT
10
236.9143
20
44.0269
0
VERTEX
8
CUT
10
238.9956
20
45.7523
0
VERTEX
8
CUT
10
242.2901
20
48.8027
0
VERTEX
8
CUT
10
249.5196
20
56.2457
0
VERTEX
8
CUT
10
254.5222
20
62.1330
0
VERTEX
8
CUT
10
259.3628
20
68.6193
0
VERTEX
8
CUT
10
259.8953
20
69.3215
0
VERTEX
8
CUT
10
259.9633
20
69.4240
0
VERTEX
8
CUT
10
260.6230
20
70.3081
0
VERTEX
8
CUT
10
265.6562
20
77.9646
0
VERTEX
8
CUT
10
269.0422
20
83.9129
0
VERTEX
8
CUT
10
269.0922
20
84.0783
0
VERTEX
8
CUT
10
269.5036
20
84.7861
0
VERTEX
8
CUT
10
273.5746
20
92.8977
0
VERTEX
8
CUT
10
277.1368
20
101.2382
0
VERTEX
8
CUT
10
278.4294
20
105.1056
0
VERTEX
8
CUT
10
279.7598
20
108.8599
0
VERTEX
8
CUT
10
280.3849
20
110.9564
0
VERTEX
8
CUT
10
281.4321
20
114.0896
0
VERTEX
8
CUT
10
282.1887
20
117.3963
0
VERTEX
8
CUT
10
283.2370
20
121.6702
0
VERTEX
8
CUT
10
283.6355
20
123.7203
0
VERTEX
8
CUT
10
284.4492
20
127.2773
0
VERTEX
8
CUT
10
284.9793
20
131.4372
0
VERTEX
8
CUT
10
285.4900
20
134.9502
0
VERTEX
8
CUT
10
285.6907
20
137.0206
0
VERTEX
8
CUT
10
286.1569
20
140.6799
0
VERTEX
8
CUT
10
286.6150
20
154.1792
0
VERTEX
8
CUT
10
285.8212
20
167.6124
0
VERTEX
8
CUT
10
284.3610
20
176.8312
0
VERTEX
8
CUT
10
284.2687
20
177.4713
0
VERTEX
8
CUT
10
284.2346
20
177.6292
0
VERTEX
8
CUT
10
283.7179
20
180.8912
0
VERTEX
8
CUT
10
280.3655
20
193.8663
0
VERTEX
8
CUT
10
278.2796
20
199.5325
0
VERTEX
8
CUT
10
277.9009
20
200.6505
0
VERTEX
8
CUT
10
277.5398
20
201.5420
0
VERTEX
8
CUT
10
275.7358
20
206.4425
0
VERTEX
8
CUT
10
273.0353
20
212.3289
0
VERTEX
8
CUT
10
270.1339
20
218.0703
0
VERTEX
8
CUT
10
267.0063
20
223.5967
0
VERTEX
8
CUT
10
263.6156
20
228.9425
0
VERTEX
8
CUT
10
259.9610
20
234.1191
0
VERTEX
8
CUT
10
256.0617
20
239.1448
0
VERTEX
8
CUT
10
251.8894
20
244.0170
0
VERTEX
8
CUT
10
243.9708
20
252.2396
0
VERTEX
8
CUT
10
240.5272
20
255.4696
0
VERTEX
8
CUT
10
233.5354
20
261.3670
0
VERTEX
8
CUT
10
225.9803
20
266.8209
0
VERTEX
8
CUT
10
221.8577
20
269.5083
0
VERTEX
8
CUT
10
214.9274
20
273.6424
0
VERTEX
8
CUT
10
208.8342
20
276.6895
0
VERTEX
8
CUT
10
202.0712
20
279.6753
0
VERTEX
8
CUT
10
195.3399
20
282.2950
0
VERTEX
8
CUT
10
186.7544
20
285.0354
0
VERTEX
8
CUT
10
181.3346
20
286.4364
0
VERTEX
8
CUT
10
175.9444
20
287.5636
0
VERTEX
8
CUT
10
170.5065
20
288.4495
0
VERTEX
8
CUT
10
159.2084
20
289.5147
0
VERTEX
8
CUT
10
153.2376
20
289.7277
0
VERTEX
8
CUT
10
151.1434
20
289.6984
0
VERTEX
8
CUT
10
149.2698
20
289.7575
0
VERTEX
8
CUT
10
146.3462
20
289.6314
0
VERTEX
8
CUT
10
142.3447
20
289.5756
0
VERTEX
8
CUT
10
133.7558
20
288.9364
0
VERTEX
8
CUT
10
129.6316
20
288.4172
0
VERTEX
8
CUT
10
125.5497
20
287.7772
0
VERTEX
8
CUT
10
117.3590
20
286.0412
0
VERTEX
8
CUT
10
107.8107
20
283.3653
0
VERTEX
8
CUT
10
102.5383
20
281.5068
0
VERTEX
8
CUT
10
97.2847
20
279.4600
0
VERTEX
8
CUT
10
92.1408
20
277.1465
0
VERTEX
8
CUT
10
87.0523
20
274.6475
0
VERTEX
8
CUT
10
82.0589
20
271.9069
0
VERTEX
8
CUT
10
77.1536
20
268.9816
0
VERTEX
8
CUT
10
68.9341
20
263.3492
0
VERTEX
8
CUT
10
62.1504
20
258.0562
0
VERTEX
8
CUT
10
58.8509
20
255.2149
0
VERTEX
8
CUT
10
52.5756
20
249.2741
0
VERTEX
8
CUT
10
46.7440
20
243.0478
0
VERTEX
8
CUT
10
38.9781
20
233.3341
0
VERTEX
8
CUT
10
32.1544
20
223.0100
0
VERTEX
8
CUT
10
26.2900
20
212.1061
0
VERTEX
8
CUT
10
21.4181
20
200.7443
0
VERTEX
8
CUT
10
17.6125
20
189.0180
0
VERTEX
8
CUT
10
14.8729
20
176.9568
0
VERTEX
8
CUT
10
14.4818
20
174.0743
0
VERTEX
8
CUT
10
14.3915
20
173.6402
0
VERTEX
8
CUT
10
14.2296
20
172.2152
0
VERTEX
8
CUT
10
13.1992
20
164.6209
0
VERTEX
8
CUT
10
13.0846
20
162.1410
0
VERTEX
8
CUT
10
12.9585
20
161.0315
0
VERTEX
8
CUT
10
12.9051
20
158.2599
0
VERTEX
8
CUT
10
12.6218
20
152.1299
0
VERTEX
8
CUT
10
12.7434
20
145.7146
0
VERTEX
8
CUT
10
13.1080
20
139.5174
0
VERTEX
8
CUT
10
13.7473
20
133.4250
0
VERTEX
8
CUT
10
14.6300
20
127.4565
0
VERTEX
8
CUT
10
15.7907
20
121.5611
0
VERTEX
8
CUT
10
17.1921
20
115.8049
0
VERTEX
8
CUT
10
18.8674
20
110.0798
0
VERTEX
8
CUT
10
20.7871
20
104.4136
0
VERTEX
8
CUT
10
23.8647
20
96.7062
0
VERTEX
8
CUT
10
27.3370
20
89.3060
0
VERTEX
8
CUT
10
31.1465
20
82.1153
0
VERTEX
8
CUT
10
35.3798
20
75.2029
0
VERTEX
8
CUT
10
38.5747
20
70.5787
0
VERTEX
8
CUT
10
38.9804
20
69.9726
0
VERTEX
8
CUT
10
39.1274
20
69.7787
0
VERTEX
8
CUT
10
39.9974
20
68.5196
0
VERTEX
8
CUT
10
41.7957
20
66.2090
0
VERTEX
8
CUT
10
42.8122
20
64.8479
0
VERTEX
8
CUT
10
43.2682
20
64.3171
0
VERTEX
8
CUT
10
43.3459
20
64.2173
0
VERTEX
8
CUT
10
46.4539
20
60.1197
0
VERTEX
8
CUT
10
52.3412
20
53.6529
0
VERTEX
8
CUT
10
55.6966
20
50.2974
0
VERTEX
8
CUT
10
62.8651
20
43.7085
0
VERTEX
8
CUT
10
67.6330
20
39.8296
0
VERTEX
8
CUT
10
68.0805
20
39.4574
0
VERTEX
8
CUT
10
68.1924
20
39.3744
0
VERTEX
8
CUT
10
70.0641
20
37.8518
0
VERTEX
8
CUT
10
73.2767
20
35.6055
0
VERTEX
8
CUT
10
74.2199
20
34.9063
0
VERTEX
8
CUT
10
75.1590
20
34.2894
0
VERTEX
8
CUT
10
77.5681
20
32.6051
0
VERTEX
8
CUT
10
79.5491
20
31.4056
0
VERTEX
8
CUT
10
80.5245
20
30.7649
0
VERTEX
8
CUT
10
82.6637
20
29.5198
0
VERTEX
8
CUT
10
85.3771
20
27.8769
0
VERTEX
8
CUT
10
86.2766
20
27.4171
0
VERTEX
8
CUT
10
87.0131
20
26.9884
0
VERTEX
8
CUT
10
91.5941
20
24.6983
0
VERTEX
8
CUT
10
93.4912
20
23.7284
0
VERTEX
8
CUT
10
101.7883
20
20.1289
0
VERTEX
8
CUT
10
110.2989
20
17.1395
0
VERTEX
8
CUT
10
118.9621
20
14.7297
0
VERTEX
8
CUT
10
124.5142
20
13.6115
0
VERTEX
8
CUT
10
124.8661
20
13.5311
0
VERTEX
8
CUT
10
125.0983
20
13.4939
0
VERTEX
8
CUT
10
127.7473
20
12.9604
0
VERTEX
8
CUT
10
130.4068
20
12.6431
0
VERTEX
8
CUT
10
133.5927
20
12.1324
0
VERTEX
8
CUT
10
138.1437
20
11.6436
0
VERTEX
8
CUT
10
139.5578
20
11.5511
0
VERTEX
8
CUT
10
140.5285
20
11.4352
0
VERTEX
8
CUT
10
141.3511
20
11.4337
0
VERTEX
8
CUT
10
144.6435
20
11.2181
0
VERTEX
8
CUT
10
151.6576
20
11.2918
0
VERTEX
8
CUT
10
152.4086
20
11.2792
0
VERTEX
8
CUT
10
152.9261
20
11.3051
0
VERTEX
8
CUT
10
153.3370
20
11.3094
0
VERTEX
8
CUT
10
155.2406
20
11.4072
0
VERTEX
8
CUT
10
156.5431
20
11.4047
0
VERTEX
8
CUT
10
161.7898
20
11.6488
0
VERTEX
8
CUT
10
163.8300
20
11.8485
0
VERTEX
8
CUT
10
163.9796
20
11.8562
0
VERTEX
8
CUT
10
164.1160
20
11.8765
0
VERTEX
8
CUT
10
166.1519
20
12.0758
0
VERTEX
8
CUT
10
173.4738
20
13.2703
0
VERTEX
8
CUT
10
174.0278
20
13.3528
0
VERTEX
8
CUT
10
174.1585
20
13.3820
0
VERTEX
8
CUT
10
176.2488
20
13.7230
0
VERTEX
8
CUT
10
182.3857
20
15.2189
0
VERTEX
8
CUT
10
183.6850
20
15.5090
0
VERTEX
8
CUT
10
184.1281
20
15.6436
0
VERTEX
8
CUT
10
186.0101
20
16.1024
0
SEQEND
0
POLYLINE
8
CUT
66
1
70
1
10
0.0
20
0.0
30
0.0
0
VERTEX
8
CUT
10
78.2819
20
10.6148
0
VERTEX
8
CUT
10
86.9936
20
10.6383
0
VERTEX
8
CUT
10
96.2963
20
10.7605
0
VERTEX
8
CUT
10
96.5313
20
10.7809
0
VERTEX
8
CUT
10
98.0363
20
10.7946
0
VERTEX
8
CUT
10
99.9276
20
11.0082
0
VERTEX
8
CUT
10
100.0801
20
11.4962
0
VERTEX
8
CUT
10
99.4700
20
11.9538
0
VERTEX
8
CUT
10
99.2372
20
11.9779
0
VERTEX
8
CUT
10
99.1412
20
12.0357
0
VERTEX
8
CUT
10
86.8496
20
17.7095
0
VERTEX
8
CUT
10
79.0877
20
22.0477
0
VERTEX
8
CUT
10
71.4602
20
26.9489
0
VERTEX
8
CUT
10
64.0996
20
32.3557
0
VERTEX
8
CUT
10
56.9831
20
38.2514
0
VERTEX
8
CUT
10
50.1719
20
44.6054
0
VERTEX
8
CUT
10
43.7433
20
51.3692
0
VERTEX
8
CUT
10
37.6952
20
58.4854
0
VERTEX
8
CUT
10
33.8139
20
63.5577
0
VERTEX
8
CUT
10
26.6571
20
74.2926
0
VERTEX
8
CUT
10
23.3882
20
79.8536
0
VERTEX
8
CUT
10
17.6240
20
91.2294
0
VERTEX
8
CUT
10
15.1419
20
97.0211
0
VERTEX
8
CUT
10
12.5174
20
104.0386
0
VERTEX
8
CUT
10
12.0486
20
105.0199
0
VERTEX
8
CUT
10
11.8322
20
105.6118
0
VERTEX
8
CUT
10
11.7209
20
105.7060
0
VERTEX
8
CUT
10
11.5479
20
106.0680
0
VERTEX
8
CUT
10
11.1229
20
106.1267
0
VERTEX
8
CUT
10
10.9020
20
105.7970
0
VERTEX
8
CUT
10
10.6993
20
91.6887
0
VERTEX
8
CUT
10
10.5468
20
18.4254
0
VERTEX
8
CUT
10
10.6983
20
12.3180
0
VERTEX
8
CUT
10
10.8210
20
11.6292
0
VERTEX
8
CUT
10
10.6726
20
11.6183
0
VERTEX
8
CUT
10
10.8862
20
11.0387
0
VERTEX
8
CUT
10
10.9285
20
11.0256
0
VERTEX
8
CUT
10
10.9445
20
10.9357
0
VERTEX
8
CUT
10
12.2501
20
10.6986
0
VERTEX
8
CUT
10
18.0243
20
10.5468
0
VERTEX
8
CUT
10
41.8480
20
10.5163
0
VERTEX
8
CUT
10
77.3977
20
10.6124
0
VERTEX
8
CUT
10
77.9341
20
10.6116
0
SEQEND
0
POLYLINE
8
CUT
66
1
70
1
10
0.0
20
0.0
30
0.0
0
VERTEX
8
CUT
10
62.4749
20
268.3431
0
VERTEX
8
CUT
10
65.3568
20
270.4917
0
VERTEX
8
CUT
10
68.0508
20
272.3976
0
VERTEX
8
CUT
10
72.6569
20
275.4480
0
VERTEX
8
CUT
10
82.1132
20
280.9998
0
VERTEX
8
CUT
10
90.3518
20
285.0528
0
VERTEX
8
CUT
10
99.1456
20
288.8302
0
VERTEX
8
CUT
10
99.3156
20
289.0888
0
VERTEX
8
CUT
10
99.4090
20
289.1444
0
VERTEX
8
CUT
10
99.5920
20
289.5409
0
VERTEX
8
CUT
10
98.6159
20
289.6934
0
VERTEX
8
CUT
10
97.9941
20
289.5499
0
VERTEX
8
CUT
10
96.6038
20
289.6665
0
VERTEX
8
CUT
10
87.1740
20
289.7582
0
VERTEX
8
CUT
10
43.6790
20
289.7887
0
VERTEX
8
CUT
10
28.1590
20
289.7211
0
VERTEX
8
CUT
10
23.6995
20
289.7277
0
VERTEX
8
CUT
10
20.6957
20
289.6886
0
VERTEX
8
CUT
10
15.6807
20
289.6668
0
VERTEX
8
CUT
10
13.4029
20
289.5936
0
VERTEX
8
CUT
10
12.0438
20
289.5759
0
VERTEX
8
CUT
10
11.8789
20
289.5447
0
VERTEX
8
CUT
10
10.9869
20
289.5160
0
VERTEX
8
CUT
10
10.6274
20
289.3731
0
VERTEX
8
CUT
10
10.6180
20
289.2138
0
VERTEX
8
CUT
10
10.3956
20
287.9561
0
VERTEX
8
CUT
10
10.3333
20
285.6644
0
VERTEX
8
CUT
10
10.1808
20
268.4614
0
VERTEX
8
CUT
10
10.1954
20
254.0624
0
VERTEX
8
CUT
10
10.1503
20
241.9857
0
VERTEX
8
CUT
10
10.2113
20
209.2233
0
VERTEX
8
CUT
10
10.4475
20
196.4092
0
VERTEX
8
CUT
10
10.2761
20
195.5273
0
VERTEX
8
CUT
10
10.3066
20
194.3987
0
VERTEX
8
CUT
10
10.5506
20
193.6361
0
VERTEX
8
CUT
10
10.9472
20
193.6971
0
VERTEX
8
CUT
10
11.1912
20
194.0326
0
VERTEX
8
CUT
10
11.4656
20
194.9217
0
VERTEX
8
CUT
10
15.4457
20
205.9954
0
VERTEX
8
CUT
10
19.1516
20
214.5404
0
VERTEX
8
CUT
10
23.3557
20
222.7963
0
VERTEX
8
CUT
10
28.0593
20
230.7695
0
VERTEX
8
CUT
10
32.8158
20
237.8055
0
VERTEX
8
CUT
10
33.5475
20
238.8279
0
VERTEX
8
CUT
10
38.4065
20
245.0789
0
VERTEX
8
CUT
10
40.3106
20
247.3129
0
VERTEX
8
CUT
10
44.9194
20
252.5510
0
VERTEX
8
CUT
10
48.9950
20
256.5890
0
VERTEX
8
CUT
10
50.0368
20
257.5601
0
VERTEX
8
CUT
10
51.0506
20
258.5051
0
VERTEX
8
CUT
10
51.9350
20
259.3295
0
VERTEX
8
CUT
10
55.0702
20
262.2519
0
VERTEX
8
CUT
10
56.2985
20
263.3498
0
VERTEX
8
CUT
10
56.4760
20
263.4959
0
SEQEND
0
POLYLINE
8
CUT
66
1
70
1
10
0.0
20
0.0
30
0.0
0
VERTEX
8
CUT
10
114.1332
20
247.3552
0
VERTEX
8
CUT
10
114.3716
20
247.1914
0
VERTEX
8
CUT
10
114.4306
20
247.1508
0
VERTEX
8
CUT
10
114.4407
20
247.1439
0
VERTEX
8
CUT
10
115.4667
20
246.4387
0
VERTEX
8
CUT
10
115.5232
20
246.3844
0
VERTEX
8
CUT
10
115.6594
20
246.2256
0
VERTEX
8
CUT
10
115.6823
20
246.1989
0
VERTEX
8
CUT
10
115.7122
20
246.1640
0
VERTEX
8
CUT
10
115.8009
20
246.0606
0
VERTEX
8
CUT
10
116.7235
20
244.6418
0
VERTEX
8
CUT
10
117.0632
20
244.5887
0
VERTEX
8
CUT
10
117.1043
20
244.5407
0
VERTEX
8
CUT
10
118.8341
20
244.3116
0
VERTEX
8
CUT
10
121.1043
20
243.9564
0
VERTEX
8
CUT
10
124.2724
20
242.9491
0
VERTEX
8
CUT
10
124.5012
20
242.8347
0
VERTEX
8
CUT
10
125.3075
20
242.1277
0
VERTEX
8
CUT
10
125.7650
20
241.3866
0
VERTEX
8
CUT
10
125.7970
20
241.3162
0
VERTEX
8
CUT
10
125.8147
20
241.2771
0
VERTEX
8
CUT
10
125.8235
20
241.2577
0
VERTEX
8
CUT
10
125.8771
20
241.1398
0
VERTEX
8
CUT
10
126.1550
20
240.2444
0
VERTEX
8
CUT
10
126.2183
20
238.6434
0
VERTEX
8
CUT
10
125.9393
20
237.0905
0
VERTEX
8
CUT
10
125.4892
20
236.1158
0
VERTEX
8
CUT
10
124.6012
20
234.9428
0
VERTEX
8
CUT
10
122.1989
20
232.8487
0
VERTEX
8
CUT
10
120.1758
20
231.8184
0
VERTEX
8
CUT
10
116.1660
20
230.8588
0
VERTEX
8
CUT
10
111.4674
20
230.5207
0
VERTEX
8
CUT
10
111.1499
20
230.0568
0
VERTEX
8
CUT
10
111.9261
20
229.0644
0
VERTEX
8
CUT
10
112.9224
20
228.2607
0
VERTEX
8
CUT
10
113.3029
20
227.9307
0
VERTEX
8
CUT
10
113.4597
20
227.8272
0
VERTEX
8
CUT
10
114.4055
20
227.0642
0
VERTEX
8
CUT
10
116.2618
20
225.9844
0
VERTEX
8
CUT
10
118.1934
20
225.1682
0
VERTEX
8
CUT
10
119.5472
20
224.8144
0
VERTEX
8
CUT
10
119.8665
20
224.7035
0
VERTEX
8
CUT
10
120.4141
20
224.5878
0
VERTEX
8
CUT
10
122.1578
20
224.1321
0
VERTEX
8
CUT
10
124.0100
20
224.0469
0
VERTEX
8
CUT
10
124.0285
20
224.0448
0
VERTEX
8
CUT
10
124.0410
20
224.0449
0
VERTEX
8
CUT
10
124.2393
20
223.8961
0
VERTEX
8
CUT
10
126.5479
20
223.9301
0
VERTEX
8
CUT
10
126.6857
20
223.9237
0
VERTEX
8
CUT
10
126.7896
20
223.9336
0
VERTEX
8
CUT
10
128.3879
20
223.9571
0
VERTEX
8
CUT
10
128.4555
20
224.0924
0
VERTEX
8
CUT
10
132.4066
20
224.4688
0
VERTEX
8
CUT
10
140.4123
20
225.7822
0
VERTEX
8
CUT
10
148.1730
20
226.6506
0
VERTEX
8
CUT
10
149.0350
20
226.7196
0
VERTEX
8
CUT
10
151.4674
20
226.5911
0
VERTEX
8
CUT
10
151.9865
20
226.2428
0
VERTEX
8
CUT
10
152.4304
20
225.3102
0
VERTEX
8
CUT
10
152.8813
20
225.2315
0
VERTEX
8
CUT
10
153.0990
20
225.5608
0
VERTEX
8
CUT
10
153.3405
20
229.8501
0
VERTEX
8
CUT
10
153.3771
20
229.9633
0
VERTEX
8
CUT
10
153.3887
20
229.9990
0
VERTEX
8
CUT
10
153.4019
20
230.0396
0
VERTEX
8
CUT
10
153.4897
20
230.3108
0
VERTEX
8
CUT
10
153.5215
20
230.4091
0
VERTEX
8
CUT
10
153.5421
20
230.4726
0
VERTEX
8
CUT
10
154.2520
20
232.0454
0
VERTEX
8
CUT
10
155.8225
20
234.6884
0
VERTEX
8
CUT
10
155.9926
20
234.9676
0
VERTEX
8
CUT
10
155.9929
20
234.9751
0
VERTEX
8
CUT
10
156.0229
20
235.0256
0
VERTEX
8
CUT
10
156.3640
20
242.2689
0
VERTEX
8
CUT
10
156.7130
20
244.1340
0
VERTEX
8
CUT
10
157.1703
20
245.0958
0
VERTEX
8
CUT
10
157.2665
20
245.2748
0
VERTEX
8
CUT
10
157.3787
20
245.4836
0
VERTEX
8
CUT
10
157.7389
20
246.1537
0
VERTEX
8
CUT
10
158.1835
20
246.9808
0
VERTEX
8
CUT
10
159.2479
20
248.2465
0
VERTEX
8
CUT
10
159.7779
20
248.7979
0
VERTEX
8
CUT
10
160.8169
20
249.5954
0
VERTEX
8
CUT
10
161.1501
20
249.8075
0
VERTEX
8
CUT
10
162.2037
20
250.3737
0
VERTEX
8
CUT
10
162.7229
20
250.6065
0
VERTEX
8
CUT
10
162.8644
20
250.6699
0
VERTEX
8
CUT
10
162.9504
20
250.7084
0
VERTEX
8
CUT
10
163.0074
20
250.7340
0
VERTEX
8
CUT
10
163.8220
20
251.0395
0
VERTEX
8
CUT
10
165.0662
20
251.3871
0
VERTEX
8
CUT
10
165.8661
20
251.5657
0
VERTEX
8
CUT
10
165.9125
20
251.5712
0
VERTEX
8
CUT
10
165.9140
20
251.5713
0
VERTEX
8
CUT
10
166.1906
20
251.6037
0
VERTEX
8
CUT
10
166.4595
20
251.6351
0
VERTEX
8
CUT
10
169.8878
20
251.7780
0
VERTEX
8
CUT
10
170.7148
20
251.5900
0
VERTEX
8
CUT
10
172.3184
20
251.8793
0
VERTEX
8
CUT
10
173.4035
20
251.9245
0
VERTEX
8
CUT
10
174.9899
20
251.9244
0
VERTEX
8
CUT
10
175.3638
20
251.8926
0
VERTEX
8
CUT
10
180.7108
20
250.8240
0
VERTEX
8
CUT
10
181.5003
20
250.4494
0
VERTEX
8
CUT
10
182.4998
20
249.6342
0
VERTEX
8
CUT
10
183.3991
20
248.0998
0
VERTEX
8
CUT
10
183.7270
20
246.3140
0
VERTEX
8
CUT
10
183.3302
20
244.0735
0
VERTEX
8
CUT
10
183.0700
20
243.4095
0
VERTEX
8
CUT
10
183.0501
20
243.3639
0
VERTEX
8
CUT
10
182.5356
20
242.4405
0
VERTEX
8
CUT
10
181.3865
20
240.9442
0
VERTEX
8
CUT
10
180.8883
20
240.4436
0
VERTEX
8
CUT
10
178.9658
20
238.9484
0
VERTEX
8
CUT
10
176.0623
20
237.4188
0
VERTEX
8
CUT
10
175.8372
20
237.2570
0
VERTEX
8
CUT
10
175.8276
20
237.2520
0
VERTEX
8
CUT
10
175.8157
20
237.2415
0
VERTEX
8
CUT
10
174.7823
20
236.4984
0
VERTEX
8
CUT
10
173.7477
20
235.4334
0
VERTEX
8
CUT
10
173.2326
20
234.6155
0
VERTEX
8
CUT
10
173.2194
20
234.6003
0
VERTEX
8
CUT
10
173.2123
20
234.5834
0
VERTEX
8
CUT
10
172.7605
20
233.8660
0
VERTEX
8
CUT
10
172.4861
20
233.0352
0
VERTEX
8
CUT
10
172.4363
20
232.1503
0
VERTEX
8
CUT
10
172.1879
20
230.9276
0
VERTEX
8
CUT
10
172.2346
20
229.2742
0
VERTEX
8
CUT
10
172.2191
20
227.6187
0
VERTEX
8
CUT
10
172.2968
20
227.0672
0
VERTEX
8
CUT
10
172.3104
20
226.5843
0
VERTEX
8
CUT
10
172.4609
20
225.5970
0
VERTEX
8
CUT
10
172.5197
20
223.9154
0
VERTEX
8
CUT
10
172.9482
20
223.3137
0
VERTEX
8
CUT
10
173.8790
20
223.2779
0
VERTEX
8
CUT
10
175.0500
20
222.9300
0
VERTEX
8
CUT
10
180.6079
20
220.4868
0
VERTEX
8
CUT
10
188.6049
20
215.9192
0
VERTEX
8
CUT
10
188.9132
20
216.0429
0
VERTEX
8
CUT
10
189.0139
20
216.3595
0
VERTEX
8
CUT
10
188.5119
20
216.9506
0
VERTEX
8
CUT
10
183.8470
20
219.9105
0
VERTEX
8
CUT
10
180.0695
20
223.3088
0
VERTEX
8
CUT
10
179.7605
20
226.6506
0
VERTEX
8
CUT
10
179.9807
20
229.1954
0
VERTEX
8
CUT
10
180.4763
20
230.7135
0
VERTEX
8
CUT
10
181.9428
20
233.5897
0
VERTEX
8
CUT
10
183.0393
20
238.5862
0
VERTEX
8
CUT
10
183.6409
20
240.3910
0
VERTEX
8
CUT
10
184.4578
20
242.0319
0
VERTEX
8
CUT
10
185.4623
20
243.4363
0
VERTEX
8
CUT
10
185.5053
20
243.4832
0
VERTEX
8
CUT
10
186.4785
20
244.4062
0
VERTEX
8
CUT
10
187.4962
20
245.0716
0
VERTEX
8
CUT
10
187.5723
20
245.1214
0
VERTEX
8
CUT
10
188.3919
20
245.6573
0
VERTEX
8
CUT
10
188.4842
20
245.7176
0
VERTEX
8
CUT
10
189.9259
20
246.3988
0
VERTEX
8
CUT
10
193.0486
20
247.1940
0
VERTEX
8
CUT
10
198.2778
20
247.3784
0
VERTEX
8
CUT
10
198.2996
20
247.3787
0
VERTEX
8
CUT
10
198.3133
20
247.3789
0
VERTEX
8
CUT
10
198.3349
20
247.3791
0
VERTEX
8
CUT
10
198.3507
20
247.3793
0
VERTEX
8
CUT
10
203.1145
20
247.0134
0
VERTEX
8
CUT
10
205.0385
20
246.3489
0
VERTEX
8
CUT
10
206.1017
20
245.9701
0
VERTEX
8
CUT
10
207.4743
20
245.0876
0
VERTEX
8
CUT
10
207.6854
20
244.8652
0
VERTEX
8
CUT
10
207.6982
20
244.8517
0
VERTEX
8
CUT
10
207.7071
20
244.8424
0
VERTEX
8
CUT
10
207.7707
20
244.7753
0
VERTEX
8
CUT
10
208.1081
20
244.4041
0
VERTEX
8
CUT
10
208.5552
20
243.1875
0
VERTEX
8
CUT
10
208.6441
20
242.8144
0
VERTEX
8
CUT
10
208.6768
20
241.7492
0
VERTEX
8
CUT
10
208.6579
20
241.4073
0
VERTEX
8
CUT
10
208.6579
20
241.4070
0
VERTEX
8
CUT
10
208.6569
20
241.3939
0
VERTEX
8
CUT
10
208.6117
20
240.7575
0
VERTEX
8
CUT
10
208.2173
20
239.3665
0
VERTEX
8
CUT
10
208.1132
20
239.0763
0
VERTEX
8
CUT
10
208.1120
20
239.0730
0
VERTEX
8
CUT
10
208.1120
20
239.0729
0
VERTEX
8
CUT
10
206.9227
20
237.3907
0
VERTEX
8
CUT
10
206.2496
20
236.7580
0
VERTEX
8
CUT
10
206.2292
20
236.7388
0
VERTEX
8
CUT
10
206.2076
20
236.7185
0
VERTEX
8
CUT
10
205.9494
20
236.4758
0
VERTEX
8
CUT
10
205.0503
20
235.6872
0
VERTEX
8
CUT
10
202.6346
20
234.4447
0
VERTEX
8
CUT
10
198.9845
20
233.1378
0
VERTEX
8
CUT
10
197.3637
20
231.9608
0
VERTEX
8
CUT
10
196.8043
20
231.0124
0
VERTEX
8
CUT
10
196.3497
20
230.2827
0
VERTEX
8
CUT
10
196.3254
20
230.2006
0
VERTEX
8
CUT
10
196.2117
20
230.0079
0
VERTEX
8
CUT
10
195.9544
20
229.1761
0
VERTEX
8
CUT
10
195.7380
20
228.7479
0
VERTEX
8
CUT
10
195.5524
20
227.6661
0
VERTEX
8
CUT
10
195.5475
20
227.2106
0
VERTEX
8
CUT
10
195.4320
20
226.3568
0
VERTEX
8
CUT
10
195.4320
20
224.1041
0
VERTEX
8
CUT
10
195.6556
20
222.3088
0
VERTEX
8
CUT
10
195.6777
20
221.8547
0
VERTEX
8
CUT
10
196.0741
20
218.9487
0
VERTEX
8
CUT
10
196.0969
20
218.7652
0
VERTEX
8
CUT
10
196.1021
20
218.7435
0
VERTEX
8
CUT
10
196.1038
20
218.7310
0
VERTEX
8
CUT
10
196.8021
20
215.6697
0
VERTEX
8
CUT
10
197.7335
20
212.6651
0
VERTEX
8
CUT
10
198.3302
20
211.1866
0
VERTEX
8
CUT
10
198.8630
20
209.5794
0
VERTEX
8
CUT
10
200.0698
20
206.7718
0
VERTEX
8
CUT
10
201.4683
20
204.5191
0
VERTEX
8
CUT
10
205.1088
20
199.5980
0
VERTEX
8
CUT
10
205.8247
20
198.5772
0
VERTEX
8
CUT
10
206.5384
20
197.5596
0
VERTEX
8
CUT
10
207.1112
20
196.7428
0
VERTEX
8
CUT
10
207.8995
20
195.6189
0
VERTEX
8
CUT
10
212.2394
20
188.7310
0
VERTEX
8
CUT
10
213.0411
20
187.3795
0
VERTEX
8
CUT
10
213.9474
20
185.7617
0
VERTEX
8
CUT
10
215.3106
20
182.8826
0
VERTEX
8
CUT
10
215.3257
20
182.8507
0
VERTEX
8
CUT
10
216.0835
20
181.2502
0
VERTEX
8
CUT
10
216.6804
20
179.9895
0
VERTEX
8
CUT
10
217.2475
20
178.4406
0
VERTEX
8
CUT
10
217.8163
20
176.8164
0
VERTEX
8
CUT
10
218.6300
20
173.4130
0
VERTEX
8
CUT
10
218.8887
20
171.0834
0
VERTEX
8
CUT
10
218.9811
20
167.0613
0
VERTEX
8
CUT
10
218.8888
20
163.1130
0
VERTEX
8
CUT
10
218.5204
20
159.9386
0
VERTEX
8
CUT
10
217.7760
20
156.6555
0
VERTEX
8
CUT
10
217.4502
20
155.2739
0
VERTEX
8
CUT
10
217.3208
20
154.7991
0
VERTEX
8
CUT
10
214.2481
20
143.6849
0
VERTEX
8
CUT
10
213.8873
20
142.2017
0
VERTEX
8
CUT
10
212.8434
20
138.3716
0
VERTEX
8
CUT
10
211.7799
20
133.1453
0
VERTEX
8
CUT
10
211.0789
20
128.2071
0
VERTEX
8
CUT
10
210.9612
20
126.3928
0
VERTEX
8
CUT
10
210.8383
20
125.2805
0
VERTEX
8
CUT
10
210.8166
20
124.1624
0
VERTEX
8
CUT
10
210.6539
20
121.6545
0
VERTEX
8
CUT
10
210.8044
20
118.2909
0
VERTEX
8
CUT
10
211.2625
20
115.5199
0
VERTEX
8
CUT
10
211.7306
20
114.3245
0
VERTEX
8
CUT
10
211.7408
20
114.2763
0
VERTEX
8
CUT
10
211.7951
20
114.1600
0
VERTEX
8
CUT
10
212.8407
20
111.4900
0
VERTEX
8
CUT
10
212.4931
20
110.4855
0
VERTEX
8
CUT
10
212.9083
20
110.2031
0
VERTEX
8
CUT
10
215.5272
20
110.2034
0
VERTEX
8
CUT
10
215.9304
20
110.1125
0
VERTEX
8
CUT
10
218.6439
20
110.1741
0
VERTEX
8
CUT
10
221.5368
20
110.5847
0
VERTEX
8
CUT
10
227.6077
20
111.3931
0
VERTEX
8
CUT
10
232.4037
20
111.5496
0
VERTEX
8
CUT
10
234.2368
20
111.5763
0
VERTEX
8
CUT
10
236.1822
20
111.3658
0
VERTEX
8
CUT
10
239.0906
20
111.0246
0
VERTEX
8
CUT
10
243.1014
20
109.5172
0
VERTEX
8
CUT
10
245.3485
20
108.1546
0
VERTEX
8
CUT
10
246.0656
20
107.5459
0
VERTEX
8
CUT
10
247.0188
20
106.6490
0
VERTEX
8
CUT
10
247.3455
20
105.6825
0
VERTEX
8
CUT
10
246.4916
20
105.1245
0
VERTEX
8
CUT
10
246.5505
20
104.5812
0
VERTEX
8
CUT
10
248.2296
20
103.7492
0
VERTEX
8
CUT
10
249.2790
20
104.6739
0
VERTEX
8
CUT
10
250.0064
20
104.4147
0
VERTEX
8
CUT
10
250.4873
20
104.0761
0
VERTEX
8
CUT
10
252.0893
20
102.4721
0
VERTEX
8
CUT
10
252.3137
20
102.1813
0
VERTEX
8
CUT
10
252.1659
20
101.6373
0
VERTEX
8
CUT
10
251.2491
20
101.0859
0
VERTEX
8
CUT
10
251.3431
20
100.4547
0
VERTEX
8
CUT
10
254.7455
20
99.6836
0
VERTEX
8
CUT
10
255.3280
20
99.2295
0
VERTEX
8
CUT
10
255.5750
20
98.9823
0
VERTEX
8
CUT
10
255.6965
20
98.8606
0
VERTEX
8
CUT
10
255.8193
20
98.7377
0
VERTEX
8
CUT
10
255.9795
20
98.5773
0
VERTEX
8
CUT
10
256.8151
20
97.5824
0
VERTEX
8
CUT
10
257.7379
20
95.7888
0
VERTEX
8
CUT
10
257.7833
20
95.6869
0
VERTEX
8
CUT
10
259.6336
20
91.0224
0
VERTEX
8
CUT
10
259.7341
20
89.0090
0
VERTEX
8
CUT
10
259.7308
20
88.9950
0
VERTEX
8
CUT
10
259.7305
20
88.9935
0
VERTEX
8
CUT
10
259.7281
20
88.9836
0
VERTEX
8
CUT
10
259.7266
20
88.9769
0
VERTEX
8
CUT
10
259.5203
20
88.4630
0
VERTEX
8
CUT
10
259.4452
20
88.3357
0
VERTEX
8
CUT
10
258.9502
20
87.5171
0
VERTEX
8
CUT
10
258.3434
20
86.9518
0
VERTEX
8
CUT
10
256.6396
20
85.8051
0
VERTEX
8
CUT
10
251.2908
20
82.7491
0
VERTEX
8
CUT
10
243.9933
20
79.1157
0
VERTEX
8
CUT
10
233.0622
20
74.1716
0
VERTEX
8
CUT
10
231.4217
20
73.4400
0
VERTEX
8
CUT
10
231.2661
20
73.3592
0
VERTEX
8
CUT
10
228.9792
20
72.3249
0
VERTEX
8
CUT
10
226.6779
20
71.0044
0
VERTEX
8
CUT
10
225.7502
20
70.3338
0
VERTEX
8
CUT
10
225.5980
20
70.2445
0
VERTEX
8
CUT
10
225.4370
20
70.1074
0
VERTEX
8
CUT
10
224.9557
20
69.7594
0
VERTEX
8
CUT
10
223.7265
20
68.5270
0
VERTEX
8
CUT
10
222.8846
20
67.2248
0
VERTEX
8
CUT
10
222.2685
20
65.6712
0
VERTEX
8
CUT
10
221.4623
20
62.1338
0
VERTEX
8
CUT
10
220.8621
20
60.8491
0
VERTEX
8
CUT
10
220.1268
20
59.9582
0
VERTEX
8
CUT
10
220.0393
20
59.8634
0
VERTEX
8
CUT
10
219.9552
20
59.7724
0
VERTEX
8
CUT
10
211.4235
20
54.0759
0
VERTEX
8
CUT
10
208.6602
20
52.5576
0
VERTEX
8
CUT
10
205.8103
20
51.2692
0
VERTEX
8
CUT
10
202.8621
20
50.2539
0
VERTEX
8
CUT
10
199.8233
20
49.4485
0
VERTEX
8
CUT
10
193.4495
20
48.6234
0
VERTEX
8
CUT
10
185.2300
20
48.6845
0
VERTEX
8
CUT
10
182.0336
20
49.1448
0
VERTEX
8
CUT
10
181.4919
20
49.2455
0
VERTEX
8
CUT
10
181.1943
20
49.3008
0
VERTEX
8
CUT
10
180.8838
20
49.3585
0
VERTEX
8
CUT
10
180.4378
20
49.4414
0
VERTEX
8
CUT
10
176.5662
20
50.3411
0
VERTEX
8
CUT
10
175.5892
20
50.6270
0
VERTEX
8
CUT
10
175.4268
20
50.6746
0
VERTEX
8
CUT
10
175.3988
20
50.6828
0
VERTEX
8
CUT
10
175.3910
20
50.6851
0
VERTEX
8
CUT
10
171.2275
20
52.2081
0
VERTEX
8
CUT
10
167.3372
20
54.1868
0
VERTEX
8
CUT
10
164.6774
20
56.1817
0
VERTEX
8
CUT
10
164.1639
20
56.6090
0
VERTEX
8
CUT
10
164.0439
20
56.7088
0
VERTEX
8
CUT
10
163.9413
20
56.7942
0
VERTEX
8
CUT
10
163.8780
20
56.8468
0
VERTEX
8
CUT
10
162.6939
20
58.0055
0
VERTEX
8
CUT
10
159.9173
20
61.4535
0
VERTEX
8
CUT
10
147.1510
20
80.5716
0
VERTEX
8
CUT
10
147.1259
20
80.6156
0
VERTEX
8
CUT
10
147.0463
20
80.7636
0
VERTEX
8
CUT
10
146.8764
20
81.0796
0
VERTEX
8
CUT
10
146.6449
20
81.5100
0
VERTEX
8
CUT
10
144.8558
20
84.8363
0
VERTEX
8
CUT
10
144.0902
20
86.5089
0
VERTEX
8
CUT
10
143.5597
20
87.8895
0
VERTEX
8
CUT
10
143.5557
20
87.9016
0
VERTEX
8
CUT
10
143.4965
20
88.0790
0
VERTEX
8
CUT
10
143.4632
20
88.1790
0
VERTEX
8
CUT
10
143.4226
20
88.3007
0
VERTEX
8
CUT
10
142.9086
20
90.2534
0
VERTEX
8
CUT
10
142.6650
20
91.6149
0
VERTEX
8
CUT
10
142.5471
20
93.3451
0
VERTEX
8
CUT
10
142.5461
20
94.1500
0
VERTEX
8
CUT
10
142.5805
20
94.5288
0
VERTEX
8
CUT
10
142.5982
20
94.6384
0
VERTEX
8
CUT
10
142.6593
20
95.0185
0
VERTEX
8
CUT
10
142.6953
20
95.2423
0
VERTEX
8
CUT
10
142.7287
20
95.4503
0
VERTEX
8
CUT
10
142.7837
20
95.7926
0
VERTEX
8
CUT
10
143.3144
20
97.9531
0
VERTEX
8
CUT
10
143.3456
20
98.0494
0
VERTEX
8
CUT
10
143.3580
20
98.0880
0
VERTEX
8
CUT
10
143.3692
20
98.1223
0
VERTEX
8
CUT
10
143.4085
20
98.2439
0
VERTEX
8
CUT
10
144.5365
20
100.9007
0
VERTEX
8
CUT
10
144.8768
20
101.6037
0
VERTEX
8
CUT
10
146.0650
20
103.6104
0
VERTEX
8
CUT
10
147.2742
20
105.5586
0
VERTEX
8
CUT
10
147.9702
20
106.5672
0
VERTEX
8
CUT
10
154.9438
20
116.2547
0
VERTEX
8
CUT
10
156.2953
20
118.5175
0
VERTEX
8
CUT
10
155.3001
20
122.4415
0
VERTEX
8
CUT
10
154.6691
20
125.3523
0
VERTEX
8
CUT
10
154.4145
20
125.9336
0
VERTEX
8
CUT
10
154.4056
20
125.9686
0
VERTEX
8
CUT
10
154.3658
20
126.0448
0
VERTEX
8
CUT
10
153.2779
20
128.5285
0
VERTEX
8
CUT
10
151.7496
20
130.8378
0
VERTEX
8
CUT
10
149.7859
20
133.2010
0
VERTEX
8
CUT
10
149.5107
20
133.4724
0
VERTEX
8
CUT
10
149.2703
20
133.7725
0
VERTEX
8
CUT
10
148.3664
20
134.6008
0
VERTEX
8
CUT
10
147.4517
20
135.5029
0
VERTEX
8
CUT
10
146.7052
20
136.1232
0
VERTEX
8
CUT
10
145.2564
20
137.4509
0
VERTEX
8
CUT
10
140.3693
20
140.8479
0
VERTEX
8
CUT
10
138.5294
20
141.8598
0
VERTEX
8
CUT
10
138.4218
20
141.9259
0
VERTEX
8
CUT
10
138.0794
20
142.1073
0
VERTEX
8
CUT
10
134.6236
20
144.0077
0
VERTEX
8
CUT
10
132.2492
20
145.0406
0
VERTEX
8
CUT
10
130.9043
20
145.6711
0
VERTEX
8
CUT
10
129.5520
20
146.2140
0
VERTEX
8
CUT
10
128.0539
20
146.8657
0
VERTEX
8
CUT
10
127.0292
20
147.2268
0
VERTEX
8
CUT
10
126.7218
20
147.3502
0
VERTEX
8
CUT
10
126.1918
20
147.5219
0
VERTEX
8
CUT
10
120.6279
20
149.4828
0
VERTEX
8
CUT
10
105.3478
20
154.3933
0
VERTEX
8
CUT
10
95.6736
20
157.9944
0
VERTEX
8
CUT
10
90.4553
20
160.3497
0
VERTEX
8
CUT
10
89.2632
20
160.9608
0
VERTEX
8
CUT
10
84.4860
20
163.4456
0
VERTEX
8
CUT
10
82.9495
20
164.3607
0
VERTEX
8
CUT
10
78.5100
20
167.0568
0
VERTEX
8
CUT
10
78.0928
20
167.3379
0
VERTEX
8
CUT
10
72.8782
20
170.9481
0
VERTEX
8
CUT
10
67.6307
20
175.0963
0
VERTEX
8
CUT
10
67.6302
20
175.0966
0
VERTEX
8
CUT
10
67.6294
20
175.0973
0
VERTEX
8
CUT
10
67.6272
20
175.0993
0
VERTEX
8
CUT
10
67.5876
20
175.1343
0
VERTEX
8
CUT
10
63.6744
20
178.6997
0
VERTEX
8
CUT
10
62.7912
20
179.5477
0
VERTEX
8
CUT
10
62.2053
20
180.1103
0
VERTEX
8
CUT
10
59.3473
20
183.0668
0
VERTEX
8
CUT
10
58.8244
20
183.6164
0
VERTEX
8
CUT
10
58.2000
20
184.3375
0
VERTEX
8
CUT
10
57.6054
20
185.0432
0
VERTEX
8
CUT
10
57.3508
20
185.3453
0
VERTEX
8
CUT
10
57.1998
20
185.5245
0
VERTEX
8
CUT
10
56.8044
20
185.9938
0
VERTEX
8
CUT
10
54.5326
20
188.7691
0
VERTEX
8
CUT
10
52.8411
20
191.2113
0
VERTEX
8
CUT
10
49.9072
20
195.8114
0
VERTEX
8
CUT
10
47.7904
20
200.1335
0
VERTEX
8
CUT
10
46.9376
20
202.1245
0
VERTEX
8
CUT
10
46.3634
20
203.7222
0
VERTEX
8
CUT
10
45.1573
20
207.2948
0
VERTEX
8
CUT
10
43.8701
20
212.7149
0
VERTEX
8
CUT
10
43.5293
20
217.5844
0
VERTEX
8
CUT
10
43.5588
20
220.8887
0
VERTEX
8
CUT
10
43.6362
20
224.8689
0
VERTEX
8
CUT
10
43.7737
20
226.2287
0
VERTEX
8
CUT
10
45.1634
20
231.5451
0
VERTEX
8
CUT
10
46.6273
20
234.8743
0
VERTEX
8
CUT
10
48.9552
20
238.9346
0
VERTEX
8
CUT
10
51.5176
20
242.1681
0
VERTEX
8
CUT
10
54.5985
20
245.1575
0
VERTEX
8
CUT
10
59.1921
20
248.6027
0
VERTEX
8
CUT
10
60.6171
20
249.4194
0
VERTEX
8
CUT
10
62.9635
20
250.5820
0
VERTEX
8
CUT
10
63.2310
20
250.7062
0
VERTEX
8
CUT
10
64.9423
20
251.3472
0
VERTEX
8
CUT
10
69.6956
20
252.8310
0
VERTEX
8
CUT
10
76.5195
20
253.9081
0
VERTEX
8
CUT
10
92.4417
20
254.9451
0
VERTEX
8
CUT
10
99.7375
20
255.6137
0
VERTEX
8
CUT
10
104.7690
20
256.5594
0
VERTEX
8
CUT
10
112.5504
20
258.9003
0
VERTEX
8
CUT
10
113.2081
20
259.0018
0
VERTEX
8
CUT
10
113.4888
20
258.8226
0
VERTEX
8
CUT
10
113.4525
20
258.4176
0
VERTEX
8
CUT
10
112.4780
20
257.3513
0
VERTEX
8
CUT
10
111.6884
20
256.6492
0
VERTEX
8
CUT
10
110.1079
20
255.3223
0
VERTEX
8
CUT
10
106.3150
20
252.9976
0
VERTEX
8
CUT
10
102.9165
20
251.5455
0
VERTEX
8
CUT
10
97.9564
20
250.2407
0
VERTEX
8
CUT
10
94.6792
20
249.5753
0
VERTEX
8
CUT
10
81.6567
20
247.5430
0
VERTEX
8
CUT
10
78.9930
20
247.0312
0
VERTEX
8
CUT
10
77.5875
20
246.8141
0
VERTEX
8
CUT
10
76.1660
20
246.4880
0
VERTEX
8
CUT
10
75.8870
20
246.4344
0
VERTEX
8
CUT
10
75.7233
20
245.9956
0
VERTEX
8
CUT
10
76.0609
20
245.7184
0
VERTEX
8
CUT
10
82.7954
20
245.2449
0
VERTEX
8
CUT
10
88.9806
20
245.2138
0
VERTEX
8
CUT
10
90.5589
20
245.4784
0
VERTEX
8
CUT
10
90.7273
20
245.4885
0
VERTEX
8
CUT
10
91.5203
20
245.6396
0
VERTEX
8
CUT
10
93.6911
20
246.0036
0
VERTEX
8
CUT
10
94.0107
20
246.1145
0
VERTEX
8
CUT
10
94.5363
20
246.2147
0
VERTEX
8
CUT
10
99.2172
20
247.9209
0
VERTEX
8
CUT
10
100.8234
20
248.4781
0
VERTEX
8
CUT
10
102.6441
20
248.6922
0
VERTEX
8
CUT
10
109.8168
20
248.6922
0
VERTEX
8
CUT
10
111.1561
20
248.4377
0
SEQEND
0
POLYLINE
8
CUT
66
1
70
1
10
0.0
20
0.0
30
0.0
0
VERTEX
8
CUT
10
254.9203
20
93.8603
0
VERTEX
8
CUT
10
254.7316
20
94.1431
0
VERTEX
8
CUT
10
253.6319
20
95.1332
0
VERTEX
8
CUT
10
252.4104
20
95.6611
0
VERTEX
8
CUT
10
251.4016
20
95.5263
0
VERTEX
8
CUT
10
251.2461
20
95.2318
0
VERTEX
8
CUT
10
251.3574
20
94.8881
0
VERTEX
8
CUT
10
252.2133
20
93.8299
0
VERTEX
8
CUT
10
252.6005
20
92.9726
0
VERTEX
8
CUT
10
253.0580
20
92.6676
0
VERTEX
8
CUT
10
253.5900
20
92.5308
0
VERTEX
8
CUT
10
253.6610
20
92.4677
0
VERTEX
8
CUT
10
254.3978
20
92.3157
0
VERTEX
8
CUT
10
254.8071
20
92.6608
0
VERTEX
8
CUT
10
254.9798
20
92.7286
0
VERTEX
8
CUT
10
255.0213
20
92.8413
0
VERTEX
8
CUT
10
255.1953
20
92.9880
0
VERTEX
8
CUT
10
255.2352
20
93.3883
0
VERTEX
8
CUT
10
255.1590
20
93.5025
0
VERTEX
8
CUT
10
255.1018
20
93.8267
0
SEQEND
0
POLYLINE
8
CUT
66
1
70
1
10
0.0
20
0.0
30
0.0
0
VERTEX
8
CUT
10
221.7608
20
106.8825
0
VERTEX
8
CUT
10
220.0831
20
106.5164
0
VERTEX
8
CUT
10
217.4598
20
105.1133
0
VERTEX
8
CUT
10
216.1176
20
104.6862
0
VERTEX
8
CUT
10
214.7754
20
104.6557
0
VERTEX
8
CUT
10
212.8842
20
105.0827
0
VERTEX
8
CUT
10
212.5181
20
104.8997
0
VERTEX
8
CUT
10
212.7621
20
104.2591
0
VERTEX
8
CUT
10
213.7993
20
103.5880
0
VERTEX
8
CUT
10
214.7754
20
103.4660
0
VERTEX
8
CUT
10
216.0566
20
103.7101
0
VERTEX
8
CUT
10
222.0354
20
106.1504
0
VERTEX
8
CUT
10
222.5845
20
106.6995
0
SEQEND
0
POLYLINE
8
CUT
66
1
70
1
10
0.0
20
0.0
30
0.0
0
VERTEX
8
CUT
10
210.6295
20
69.0003
0
VERTEX
8
CUT
10
210.7523
20
71.5473
0
VERTEX
8
CUT
10
210.4911
20
74.1269
0
VERTEX
8
CUT
10
209.5998
20
75.8229
0
VERTEX
8
CUT
10
208.2416
20
76.9813
0
VERTEX
8
CUT
10
206.6985
20
77.0825
0
VERTEX
8
CUT
10
204.4830
20
76.4698
0
VERTEX
8
CUT
10
201.3856
20
74.4514
0
VERTEX
8
CUT
10
199.8139
20
73.7921
0
VERTEX
8
CUT
10
199.6426
20
73.2635
0
VERTEX
8
CUT
10
200.9528
20
71.7684
0
VERTEX
8
CUT
10
203.3654
20
69.3254
0
VERTEX
8
CUT
10
204.0106
20
68.7734
0
VERTEX
8
CUT
10
204.4154
20
68.3661
0
VERTEX
8
CUT
10
205.8208
20
67.2246
0
VERTEX
8
CUT
10
206.0606
20
67.0194
0
VERTEX
8
CUT
10
207.1132
20
66.7000
0
VERTEX
8
CUT
10
207.5851
20
66.7007
0
VERTEX
8
CUT
10
207.7780
20
66.6453
0
VERTEX
8
CUT
10
208.7353
20
66.6798
0
VERTEX
8
CUT
10
209.4588
20
67.0163
0
VERTEX
8
CUT
10
209.4575
20
67.0942
0
VERTEX
8
CUT
10
209.7920
20
67.2469
0
VERTEX
8
CUT
10
210.3767
20
67.9332
0
SEQEND
0
POLYLINE
8
CUT
66
1
70
1
10
0.0
20
0.0
30
0.0
0
VERTEX
8
CUT
10
172.3137
20
217.7648
0
VERTEX
8
CUT
10
172.6798
20
217.5513
0
VERTEX
8
CUT
10
172.8933
20
217.8258
0
VERTEX
8
CUT
10
172.9848
20
219.2900
0
VERTEX
8
CUT
10
172.8018
20
221.4863
0
VERTEX
8
CUT
10
172.5883
20
222.1574
0
VERTEX
8
CUT
10
172.3747
20
222.2794
0
VERTEX
8
CUT
10
172.0392
20
221.6388
0
VERTEX
8
CUT
10
172.0087
20
218.7104
0
SEQEND
0
POLYLINE
8
CUT
66
1
70
1
10
0.0
20
0.0
30
0.0
0
VERTEX
8
CUT
10
166.8230
20
127.5948
0
VERTEX
8
CUT
10
165.6333
20
126.6491
0
VERTEX
8
CUT
10
166.1824
20
126.6491
0
VERTEX
8
CUT
10
167.8296
20
127.4422
0
VERTEX
8
CUT
10
168.1652
20
127.8693
0
VERTEX
8
CUT
10
167.5551
20
127.8998
0
SEQEND
0
POLYLINE
8
CUT
66
1
70
1
10
0.0
20
0.0
30
0.0
0
VERTEX
8
CUT
10
151.8782
20
210.9420
0
VERTEX
8
CUT
10
151.6423
20
211.2601
0
VERTEX
8
CUT
10
151.2213
20
211.1825
0
VERTEX
8
CUT
10
150.4753
20
209.6050
0
VERTEX
8
CUT
10
150.4659
20
208.8189
0
VERTEX
8
CUT
10
150.8293
20
208.2188
0
VERTEX
8
CUT
10
151.1229
20
208.2168
0
VERTEX
8
CUT
10
151.3480
20
208.4554
0
SEQEND
0
POLYLINE
8
CUT
66
1
70
1
10
0.0
20
0.0
30
0.0
0
VERTEX
8
CUT
10
95.8652
20
233.3882
0
VERTEX
8
CUT
10
95.4077
20
233.4541
0
VERTEX
8
CUT
10
95.0340
20
232.9546
0
VERTEX
8
CUT
10
95.1536
20
232.4513
0
VERTEX
8
CUT
10
95.5211
20
231.8432
0
VERTEX
8
CUT
10
96.0535
20
230.6680
0
VERTEX
8
CUT
10
96.5645
20
230.1162
0
VERTEX
8
CUT
10
97.0824
20
229.2591
0
VERTEX
8
CUT
10
99.8797
20
225.2236
0
VERTEX
8
CUT
10
105.6754
20
220.7240
0
VERTEX
8
CUT
10
107.9682
20
219.3934
0
VERTEX
8
CUT
10
108.4208
20
219.4694
0
VERTEX
8
CUT
10
108.5300
20
219.7797
0
VERTEX
8
CUT
10
108.3927
20
220.0402
0
VERTEX
8
CUT
10
105.7091
20
221.6711
0
VERTEX
8
CUT
10
104.1687
20
222.8400
0
VERTEX
8
CUT
10
101.5523
20
225.3605
0
VERTEX
8
CUT
10
98.3266
20
229.6874
0
SEQEND
0
POLYLINE
8
CUT
66
1
70
1
10
0.0
20
0.0
30
0.0
0
VERTEX
8
CUT
10
221.6904
20
235.7366
0
VERTEX
8
CUT
10
221.4919
20
235.6953
0
VERTEX
8
CUT
10
221.2812
20
235.7258
0
VERTEX
8
CUT
10
218.7484
20
234.9424
0
VERTEX
8
CUT
10
217.0845
20
234.9155
0
VERTEX
8
CUT
10
215.3885
20
235.2667
0
VERTEX
8
CUT
10
213.9254
20
235.9554
0
VERTEX
8
CUT
10
212.9503
20
236.7727
0
VERTEX
8
CUT
10
212.2141
20
237.7944
0
VERTEX
8
CUT
10
211.7191
20
238.9346
0
VERTEX
8
CUT
10
211.4256
20
240.2232
0
VERTEX
8
CUT
10
211.4253
20
241.5176
0
VERTEX
8
CUT
10
212.1692
20
244.0354
0
VERTEX
8
CUT
10
212.8421
20
244.9713
0
VERTEX
8
CUT
10
213.4292
20
245.5002
0
VERTEX
8
CUT
10
214.0076
20
245.9538
0
VERTEX
8
CUT
10
215.4880
20
246.6324
0
VERTEX
8
CUT
10
217.5589
20
247.2627
0
VERTEX
8
CUT
10
217.5608
20
247.2642
0
VERTEX
8
CUT
10
217.5642
20
247.2651
0
VERTEX
8
CUT
10
217.5726
20
247.2704
0
VERTEX
8
CUT
10
217.6986
20
247.2997
0
VERTEX
8
CUT
10
218.1218
20
247.5898
0
VERTEX
8
CUT
10
218.1578
20
247.8328
0
VERTEX
8
CUT
10
218.3273
20
248.2199
0
VERTEX
8
CUT
10
218.4878
20
249.1403
0
VERTEX
8
CUT
10
219.5153
20
252.3863
0
VERTEX
8
CUT
10
220.9239
20
254.1329
0
VERTEX
8
CUT
10
221.7971
20
254.7554
0
VERTEX
8
CUT
10
222.8018
20
255.1506
0
VERTEX
8
CUT
10
222.9883
20
255.1843
0
VERTEX
8
CUT
10
225.0813
20
255.3422
0
VERTEX
8
CUT
10
226.5279
20
255.0031
0
VERTEX
8
CUT
10
227.7316
20
254.4370
0
VERTEX
8
CUT
10
227.7782
20
254.4014
0
VERTEX
8
CUT
10
227.7814
20
254.3990
0
VERTEX
8
CUT
10
227.8917
20
254.3148
0
VERTEX
8
CUT
10
228.1085
20
254.1493
0
VERTEX
8
CUT
10
228.8329
20
253.5361
0
VERTEX
8
CUT
10
229.6779
20
252.4069
0
VERTEX
8
CUT
10
229.7053
20
252.3697
0
VERTEX
8
CUT
10
230.2127
20
251.2104
0
VERTEX
8
CUT
10
230.2959
20
250.9268
0
VERTEX
8
CUT
10
230.5707
20
249.6370
0
VERTEX
8
CUT
10
230.6332
20
248.0462
0
VERTEX
8
CUT
10
230.2099
20
245.2079
0
VERTEX
8
CUT
10
230.2067
20
245.1896
0
VERTEX
8
CUT
10
230.2070
20
245.1883
0
VERTEX
8
CUT
10
230.1762
20
244.9814
0
VERTEX
8
CUT
10
230.4034
20
244.0548
0
VERTEX
8
CUT
10
234.7810
20
239.2974
0
VERTEX
8
CUT
10
238.6659
20
235.4737
0
VERTEX
8
CUT
10
239.3900
20
234.7496
0
VERTEX
8
CUT
10
239.5586
20
234.5950
0
VERTEX
8
CUT
10
242.3799
20
231.8182
0
VERTEX
8
CUT
10
243.3812
20
231.0759
0
VERTEX
8
CUT
10
243.7780
20
230.9561
0
VERTEX
8
CUT
10
244.0040
20
230.8168
0
VERTEX
8
CUT
10
244.1404
20
230.8466
0
VERTEX
8
CUT
10
244.6147
20
230.7034
0
VERTEX
8
CUT
10
246.9254
20
231.4246
0
VERTEX
8
CUT
10
248.5173
20
231.6390
0
VERTEX
8
CUT
10
250.2696
20
231.4874
0
VERTEX
8
CUT
10
251.8110
20
230.9996
0
VERTEX
8
CUT
10
251.8603
20
230.9760
0
VERTEX
8
CUT
10
253.3385
20
229.9499
0
VERTEX
8
CUT
10
254.0412
20
229.0657
0
VERTEX
8
CUT
10
254.9982
20
226.9427
0
VERTEX
8
CUT
10
255.2202
20
225.8155
0
VERTEX
8
CUT
10
255.1113
20
223.9071
0
VERTEX
8
CUT
10
255.1036
20
223.8806
0
VERTEX
8
CUT
10
255.0943
20
223.8487
0
VERTEX
8
CUT
10
255.0714
20
223.7697
0
VERTEX
8
CUT
10
254.9569
20
223.3749
0
VERTEX
8
CUT
10
254.2191
20
221.8625
0
VERTEX
8
CUT
10
252.9847
20
220.5444
0
VERTEX
8
CUT
10
251.4878
20
219.6281
0
VERTEX
8
CUT
10
249.7943
20
219.0892
0
VERTEX
8
CUT
10
248.0540
20
218.9392
0
VERTEX
8
CUT
10
247.5822
20
218.6965
0
VERTEX
8
CUT
10
247.2866
20
218.1143
0
VERTEX
8
CUT
10
246.8894
20
215.2567
0
VERTEX
8
CUT
10
246.0794
20
213.4955
0
VERTEX
8
CUT
10
245.2080
20
212.4895
0
VERTEX
8
CUT
10
243.8828
20
211.4214
0
VERTEX
8
CUT
10
243.0766
20
211.0954
0
VERTEX
8
CUT
10
242.8624
20
211.0477
0
VERTEX
8
CUT
10
242.6118
20
210.9920
0
VERTEX
8
CUT
10
242.4821
20
210.9631
0
VERTEX
8
CUT
10
242.3956
20
210.9439
0
VERTEX
8
CUT
10
241.5085
20
210.8685
0
VERTEX
8
CUT
10
240.7131
20
210.9057
0
VERTEX
8
CUT
10
240.4443
20
210.9183
0
VERTEX
8
CUT
10
240.4398
20
210.9185
0
VERTEX
8
CUT
10
240.3049
20
210.9249
0
VERTEX
8
CUT
10
238.9943
20
211.1707
0
VERTEX
8
CUT
10
237.4959
20
211.9860
0
VERTEX
8
CUT
10
236.1536
20
213.5231
0
VERTEX
8
CUT
10
236.0850
20
213.6410
0
VERTEX
8
CUT
10
236.0041
20
213.7799
0
VERTEX
8
CUT
10
235.8424
20
214.0578
0
VERTEX
8
CUT
10
235.7701
20
214.1818
0
VERTEX
8
CUT
10
235.4874
20
214.8038
0
VERTEX
8
CUT
10
235.4755
20
214.8358
0
VERTEX
8
CUT
10
235.4726
20
214.8436
0
VERTEX
8
CUT
10
235.4658
20
214.8622
0
VERTEX
8
CUT
10
235.4618
20
214.8729
0
VERTEX
8
CUT
10
235.0039
20
217.2385
0
VERTEX
8
CUT
10
235.0699
20
218.5146
0
VERTEX
8
CUT
10
235.7876
20
221.7294
0
VERTEX
8
CUT
10
235.5108
20
222.0769
0
VERTEX
8
CUT
10
235.4913
20
222.2252
0
VERTEX
8
CUT
10
234.4803
20
223.3698
0
VERTEX
8
CUT
10
234.0553
20
223.9031
0
VERTEX
8
CUT
10
233.5087
20
224.4698
0
VERTEX
8
CUT
10
233.1971
20
224.8226
0
VERTEX
8
CUT
10
232.2818
20
225.7420
0
VERTEX
8
CUT
10
229.0867
20
229.0549
0
VERTEX
8
CUT
10
224.8751
20
233.2356
0
VERTEX
8
CUT
10
223.8517
20
234.1155
0
VERTEX
8
CUT
10
223.1903
20
234.7694
0
VERTEX
8
CUT
10
222.8823
20
234.9681
0
VERTEX
8
CUT
10
222.6809
20
235.1578
0
VERTEX
8
CUT
10
221.7235
20
235.7355
0
VERTEX
8
CUT
10
221.7060
20
235.7266
0
SEQEND
0
ENDSEC
0
EOF
