0
SECTION
2
HEADER
9
$ACADVER
1
AC1009
9
$INSUNITS
70
4
0
ENDSEC
0
SECTION
2
TABLES
0
TABLE
2
LAYER
70
1
0
LAYER
2
CUT
70
0
62
7
6
CONTINUOUS
0
ENDTAB
0
ENDSEC
0
SECTION
2
ENTITIES
0
POLYLINE
8
CUT
66
1
70
1
10
0.0
20
0.0
30
0.0
0
VERTEX
8
CUT
10
55.1210
20
72.5566
0
VERTEX
8
CUT
10
54.7173
20
72.4252
0
VERTEX
8
CUT
10
54.6904
20
72.4248
0
VERTEX
8
CUT
10
51.1448
20
71.4561
0
VERTEX
8
CUT
10
51.1423
20
71.4559
0
VERTEX
8
CUT
10
51.1373
20
71.4555
0
VERTEX
8
CUT
10
51.1287
20
71.4550
0
VERTEX
8
CUT
10
51.0480
20
71.4496
0
VERTEX
8
CUT
10
48.9222
20
71.6259
0
VERTEX
8
CUT
10
47.4059
20
72.2070
0
VERTEX
8
CUT
10
45.9402
20
73.1539
0
VERTEX
8
CUT
10
44.8882
20
74.3543
0
VERTEX
8
CUT
10
44.5333
20
75.0531
0
VERTEX
8
CUT
10
44.0827
20
76.7929
0
VERTEX
8
CUT
10
43.9564
20
78.4876
0
VERTEX
8
CUT
10
44.0410
20
79.6967
0
VERTEX
8
CUT
10
44.2341
20
80.3429
0
VERTEX
8
CUT
10
44.3142
20
80.5354
0
VERTEX
8
CUT
10
44.6028
20
81.1394
0
VERTEX
8
CUT
10
45.8425
20
82.6525
0
VERTEX
8
CUT
10
47.1855
20
83.6564
0
VERTEX
8
CUT
10
48.6595
20
84.3435
0
VERTEX
8
CUT
10
49.0731
20
84.4207
0
VERTEX
8
CUT
10
50.5426
20
84.6480
0
VERTEX
8
CUT
10
50.6944
20
84.7233
0
VERTEX
8
CUT
10
50.9420
20
84.7695
0
VERTEX
8
CUT
10
51.0638
20
84.9066
0
VERTEX
8
CUT
10
51.2245
20
84.9863
0
VERTEX
8
CUT
10
51.4904
20
85.7157
0
VERTEX
8
CUT
10
51.6195
20
87.9018
0
VERTEX
8
CUT
10
52.0959
20
89.7176
0
VERTEX
8
CUT
10
52.9863
20
91.2527
0
VERTEX
8
CUT
10
53.5808
20
91.9148
0
VERTEX
8
CUT
10
55.0871
20
93.0086
0
VERTEX
8
CUT
10
56.9428
20
93.4264
0
VERTEX
8
CUT
10
59.0821
20
93.2718
0
VERTEX
8
CUT
10
60.7671
20
92.6150
0
VERTEX
8
CUT
10
60.8801
20
92.5375
0
VERTEX
8
CUT
10
60.9219
20
92.5088
0
VERTEX
8
CUT
10
60.9475
20
92.4913
0
VERTEX
8
CUT
10
61.0618
20
92.4128
0
VERTEX
8
CUT
10
61.9558
20
91.6935
0
VERTEX
8
CUT
10
62.0140
20
91.6329
0
VERTEX
8
CUT
10
62.0146
20
91.6323
0
VERTEX
8
CUT
10
62.0185
20
91.6282
0
VERTEX
8
CUT
10
62.0609
20
91.5841
0
VERTEX
8
CUT
10
62.9603
20
90.1702
0
VERTEX
8
CUT
10
63.7272
20
88.2326
0
VERTEX
8
CUT
10
63.7402
20
88.1298
0
VERTEX
8
CUT
10
63.7142
20
83.3682
0
VERTEX
8
CUT
10
63.6229
20
82.2276
0
VERTEX
8
CUT
10
64.2157
20
81.6293
0
VERTEX
8
CUT
10
64.2844
20
81.4787
0
VERTEX
8
CUT
10
68.1312
20
77.6771
0
VERTEX
8
CUT
10
69.7240
20
76.0695
0
VERTEX
8
CUT
10
70.4444
20
75.3912
0
VERTEX
8
CUT
10
74.6301
20
71.2547
0
VERTEX
8
CUT
10
80.8244
20
65.5194
0
VERTEX
8
CUT
10
81.8193
20
64.8054
0
VERTEX
8
CUT
10
82.1705
20
64.7255
0
VERTEX
8
CUT
10
82.5763
20
64.4661
0
VERTEX
8
CUT
10
82.8953
20
64.5606
0
VERTEX
8
CUT
10
82.9730
20
64.5429
0
VERTEX
8
CUT
10
86.3377
20
65.4787
0
VERTEX
8
CUT
10
87.5074
20
65.5465
0
VERTEX
8
CUT
10
88.0834
20
65.5799
0
VERTEX
8
CUT
10
88.1996
20
65.5867
0
VERTEX
8
CUT
10
88.2239
20
65.5881
0
VERTEX
8
CUT
10
89.1436
20
65.4119
0
VERTEX
8
CUT
10
89.7157
20
65.2369
0
VERTEX
8
CUT
10
90.7193
20
64.7603
0
VERTEX
8
CUT
10
92.0043
20
63.7621
0
VERTEX
8
CUT
10
93.0940
20
62.5833
0
VERTEX
8
CUT
10
93.6666
20
61.5853
0
VERTEX
8
CUT
10
93.8589
20
60.7571
0
VERTEX
8
CUT
10
93.8592
20
60.7558
0
VERTEX
8
CUT
10
93.8682
20
60.7170
0
VERTEX
8
CUT
10
93.9513
20
60.3592
0
VERTEX
8
CUT
10
93.9761
20
60.2188
0
VERTEX
8
CUT
10
94.0054
20
59.0524
0
VERTEX
8
CUT
10
93.9746
20
58.2399
0
VERTEX
8
CUT
10
93.6340
20
56.6834
0
VERTEX
8
CUT
10
93.0074
20
55.3275
0
VERTEX
8
CUT
10
93.0074
20
55.3274
0
VERTEX
8
CUT
10
93.0073
20
55.3274
0
VERTEX
8
CUT
10
92.0299
20
54.2468
0
VERTEX
8
CUT
10
90.7066
20
53.3380
0
VERTEX
8
CUT
10
89.2625
20
52.7149
0
VERTEX
8
CUT
10
87.1786
20
52.3856
0
VERTEX
8
CUT
10
86.7617
20
52.0844
0
VERTEX
8
CUT
10
86.5262
20
51.5175
0
VERTEX
8
CUT
10
86.3159
20
49.0133
0
VERTEX
8
CUT
10
85.9720
20
47.6071
0
VERTEX
8
CUT
10
85.5647
20
46.6730
0
VERTEX
8
CUT
10
85.4797
20
46.5241
0
VERTEX
8
CUT
10
85.4621
20
46.4933
0
VERTEX
8
CUT
10
85.4415
20
46.4570
0
VERTEX
8
CUT
10
85.1910
20
46.0183
0
VERTEX
8
CUT
10
84.8554
20
45.5230
0
VERTEX
8
CUT
10
84.3687
20
45.0477
0
VERTEX
8
CUT
10
84.2209
20
44.9034
0
VERTEX
8
CUT
10
83.9879
20
44.6758
0
VERTEX
8
CUT
10
83.7973
20
44.4896
0
VERTEX
8
CUT
10
83.7924
20
44.4853
0
VERTEX
8
CUT
10
82.7479
20
43.8691
0
VERTEX
8
CUT
10
81.5133
20
43.4805
0
VERTEX
8
CUT
10
80.1214
20
43.3463
0
VERTEX
8
CUT
10
77.6387
20
43.7447
0
VERTEX
8
CUT
10
76.0109
20
44.8166
0
VERTEX
8
CUT
10
75.2794
20
45.6207
0
VERTEX
8
CUT
10
74.2576
20
47.6081
0
VERTEX
8
CUT
10
74.2407
20
47.6466
0
VERTEX
8
CUT
10
74.2393
20
47.6497
0
VERTEX
8
CUT
10
74.2372
20
47.6546
0
VERTEX
8
CUT
10
74.2272
20
47.6774
0
VERTEX
8
CUT
10
73.8516
20
49.8137
0
VERTEX
8
CUT
10
74.3347
20
54.2630
0
VERTEX
8
CUT
10
74.1071
20
54.8382
0
VERTEX
8
CUT
10
74.0401
20
55.1440
0
VERTEX
8
CUT
10
72.6102
20
56.5495
0
VERTEX
8
CUT
10
69.3389
20
59.9687
0
VERTEX
8
CUT
10
62.0237
20
66.9792
0
VERTEX
8
CUT
10
57.8396
20
70.7965
0
VERTEX
8
CUT
10
55.7661
20
72.4413
0
VERTEX
8
CUT
10
55.4058
20
72.4358
0
SEQEND
0
POLYLINE
8
CUT
66
1
70
1
10
0.0
20
0.0
30
0.0
0
VERTEX
8
CUT
10
1.7546
20
299.5342
0
VERTEX
8
CUT
10
3.7320
20
299.6538
0
VERTEX
8
CUT
10
11.1299
20
299.8170
0
VERTEX
8
CUT
10
42.3861
20
299.9015
0
VERTEX
8
CUT
10
247.7192
20
299.9390
0
VERTEX
8
CUT
10
291.8900
20
299.7865
0
VERTEX
8
CUT
10
296.2908
20
299.6503
0
VERTEX
8
CUT
10
299.2181
20
299.4518
0
VERTEX
8
CUT
10
299.4814
20
286.4292
0
VERTEX
8
CUT
10
299.6034
20
252.5407
0
VERTEX
8
CUT
10
299.6950
20
149.9851
0
VERTEX
8
CUT
10
299.6034
20
47.4302
0
VERTEX
8
CUT
10
299.4814
20
13.5403
0
VERTEX
8
CUT
10
299.2505
20
0.4589
0
VERTEX
8
CUT
10
297.1182
20
0.4130
0
VERTEX
8
CUT
10
294.9997
20
0.3674
0
VERTEX
8
CUT
10
292.9715
20
0.3238
0
VERTEX
8
CUT
10
289.9143
20
0.2580
0
VERTEX
8
CUT
10
286.1242
20
0.1830
0
VERTEX
8
CUT
10
252.3271
20
0.0610
0
VERTEX
8
CUT
10
72.0772
20
0.0610
0
VERTEX
8
CUT
10
67.8326
20
0.0721
0
VERTEX
8
CUT
10
61.7843
20
0.0880
0
VERTEX
8
CUT
10
47.4327
20
0.1255
0
VERTEX
8
CUT
10
13.8200
20
0.2135
0
VERTEX
8
CUT
10
13.8128
20
0.2135
0
VERTEX
8
CUT
10
13.6199
20
0.2158
0
VERTEX
8
CUT
10
13.6074
20
0.2160
0
VERTEX
8
CUT
10
13.5534
20
0.2166
0
VERTEX
8
CUT
10
13.4384
20
0.2180
0
VERTEX
8
CUT
10
3.1194
20
0.3399
0
VERTEX
8
CUT
10
1.4718
20
0.4476
0
VERTEX
8
CUT
10
1.0209
20
0.4771
0
VERTEX
8
CUT
10
0.8579
20
0.4878
0
VERTEX
8
CUT
10
0.7681
20
0.4936
0
VERTEX
8
CUT
10
0.7038
20
0.5483
0
VERTEX
8
CUT
10
0.3660
20
59.9665
0
VERTEX
8
CUT
10
0.0915
20
255.6501
0
VERTEX
8
CUT
10
0.2368
20
292.4686
0
VERTEX
8
CUT
10
0.3350
20
297.7414
0
VERTEX
8
CUT
10
0.3813
20
298.3266
0
VERTEX
8
CUT
10
0.4992
20
299.1550
0
VERTEX
8
CUT
10
0.6690
20
299.4081
0
VERTEX
8
CUT
10
0.9950
20
299.4882
0
VERTEX
8
CUT
10
1.1712
20
299.4989
0
VERTEX
8
CUT
10
1.3850
20
299.5118
0
SEQEND
0
POLYLINE
8
CUT
66
1
70
1
10
0.0
20
0.0
30
0.0
0
VERTEX
8
CUT
10
288.6413
20
193.8863
0
VERTEX
8
CUT
10
288.9963
20
193.9751
0
VERTEX
8
CUT
10
289.1484
20
194.6877
0
VERTEX
8
CUT
10
289.3312
20
208.7663
0
VERTEX
8
CUT
10
289.4227
20
240.8867
0
VERTEX
8
CUT
10
289.3617
20
283.3743
0
VERTEX
8
CUT
10
289.1198
20
289.2576
0
VERTEX
8
CUT
10
285.3168
20
289.5754
0
VERTEX
8
CUT
10
260.6518
20
289.8192
0
VERTEX
8
CUT
10
227.7396
20
289.8192
0
VERTEX
8
CUT
10
201.6091
20
289.4693
0
VERTEX
8
CUT
10
201.0791
20
289.6324
0
VERTEX
8
CUT
10
200.3775
20
289.5104
0
VERTEX
8
CUT
10
200.4080
20
289.2054
0
VERTEX
8
CUT
10
201.4146
20
288.5953
0
VERTEX
8
CUT
10
210.3828
20
284.6603
0
VERTEX
8
CUT
10
219.4425
20
280.0846
0
VERTEX
8
CUT
10
225.0858
20
276.7597
0
VERTEX
8
CUT
10
232.6903
20
271.7665
0
VERTEX
8
CUT
10
234.0233
20
270.8075
0
VERTEX
8
CUT
10
237.2490
20
268.3730
0
VERTEX
8
CUT
10
237.5351
20
268.1571
0
VERTEX
8
CUT
10
238.1169
20
267.7180
0
VERTEX
8
CUT
10
238.2286
20
267.6337
0
VERTEX
8
CUT
10
241.8659
20
264.7065
0
VERTEX
8
CUT
10
242.1702
20
264.4520
0
VERTEX
8
CUT
10
242.4130
20
264.2489
0
VERTEX
8
CUT
10
242.5393
20
264.1433
0
VERTEX
8
CUT
10
243.4457
20
263.3852
0
VERTEX
8
CUT
10
246.1218
20
260.9763
0
VERTEX
8
CUT
10
251.2888
20
256.0474
0
VERTEX
8
CUT
10
255.6033
20
251.5807
0
VERTEX
8
CUT
10
260.2427
20
246.2887
0
VERTEX
8
CUT
10
265.3431
20
239.7520
0
VERTEX
8
CUT
10
270.1364
20
232.8820
0
VERTEX
8
CUT
10
275.2005
20
224.6147
0
VERTEX
8
CUT
10
277.5283
20
220.4180
0
VERTEX
8
CUT
10
281.6764
20
211.8779
0
VERTEX
8
CUT
10
285.3426
20
202.8970
0
VERTEX
8
CUT
10
288.3694
20
194.1312
0
SEQEND
0
POLYLINE
8
CUT
66
1
70
1
10
0.0
20
0.0
30
0.0
0
VERTEX
8
CUT
10
288.3357
20
106.4385
0
VERTEX
8
CUT
10
288.0474
20
106.0795
0
VERTEX
8
CUT
10
284.1552
20
96.2549
0
VERTEX
8
CUT
10
281.0717
20
89.2321
0
VERTEX
8
CUT
10
277.7120
20
82.4813
0
VERTEX
8
CUT
10
274.0677
20
75.9278
0
VERTEX
8
CUT
10
270.1271
20
69.6054
0
VERTEX
8
CUT
10
265.8815
20
63.4668
0
VERTEX
8
CUT
10
261.3298
20
57.4801
0
VERTEX
8
CUT
10
254.8876
20
49.9392
0
VERTEX
8
CUT
10
248.6912
20
43.6207
0
VERTEX
8
CUT
10
242.2429
20
37.5394
0
VERTEX
8
CUT
10
235.3138
20
31.8923
0
VERTEX
8
CUT
10
229.6924
20
27.7982
0
VERTEX
8
CUT
10
221.2663
20
22.2111
0
VERTEX
8
CUT
10
216.9553
20
19.7036
0
VERTEX
8
CUT
10
210.5650
20
16.4318
0
VERTEX
8
CUT
10
201.5722
20
12.3164
0
VERTEX
8
CUT
10
200.4728
20
11.6642
0
VERTEX
8
CUT
10
200.4626
20
11.5729
0
VERTEX
8
CUT
10
200.1945
20
11.4962
0
VERTEX
8
CUT
10
200.0114
20
11.2522
0
VERTEX
8
CUT
10
200.1335
20
10.9167
0
VERTEX
8
CUT
10
213.8908
20
10.7031
0
VERTEX
8
CUT
10
284.2637
20
10.6421
0
VERTEX
8
CUT
10
288.2902
20
10.7641
0
VERTEX
8
CUT
10
288.7783
20
11.3437
0
VERTEX
8
CUT
10
288.7117
20
11.3500
0
VERTEX
8
CUT
10
288.9546
20
11.6908
0
VERTEX
8
CUT
10
289.1785
20
14.3952
0
VERTEX
8
CUT
10
289.3312
20
31.3540
0
VERTEX
8
CUT
10
289.2702
20
89.4948
0
VERTEX
8
CUT
10
289.0879
20
104.5888
0
VERTEX
8
CUT
10
288.7635
20
106.3525
0
SEQEND
0
POLYLINE
8
CUT
66
1
70
1
10
0.0
20
0.0
30
0.0
0
VERTEX
8
CUT
10
254.5222
20
62.1330
0
VERTEX
8
CUT
10
260.6230
20
70.3081
0
VERTEX
8
CUT
10
265.6562
20
77.9646
0
VERTEX
8
CUT
10
269.0422
20
83.9129
0
VERTEX
8
CUT
10
269.3917
20
85.0691
0
VERTEX
8
CUT
10
272.1211
20
90.1437
0
VERTEX
8
CUT
10
275.0074
20
96.3417
0
VERTEX
8
CUT
10
277.5426
20
102.6029
0
VERTEX
8
CUT
10
279.7598
20
108.8599
0
VERTEX
8
CUT
10
281.6487
20
115.1949
0
VERTEX
8
CUT
10
283.2370
20
121.6702
0
VERTEX
8
CUT
10
284.5158
20
128.2491
0
VERTEX
8
CUT
10
285.4900
20
134.9502
0
VERTEX
8
CUT
10
286.1584
20
141.8471
0
VERTEX
8
CUT
10
286.4028
20
151.9323
0
VERTEX
8
CUT
10
286.2501
20
159.7129
0
VERTEX
8
CUT
10
285.8243
20
166.6778
0
VERTEX
8
CUT
10
284.2687
20
177.4713
0
VERTEX
8
CUT
10
282.5673
20
185.3403
0
VERTEX
8
CUT
10
280.4666
20
193.0753
0
VERTEX
8
CUT
10
277.9009
20
200.6505
0
VERTEX
8
CUT
10
274.9156
20
208.0208
0
VERTEX
8
CUT
10
271.5340
20
215.1784
0
VERTEX
8
CUT
10
267.7566
20
222.0919
0
VERTEX
8
CUT
10
263.5534
20
228.7608
0
VERTEX
8
CUT
10
257.4281
20
237.2612
0
VERTEX
8
CUT
10
250.7463
20
245.1882
0
VERTEX
8
CUT
10
243.5283
20
252.5600
0
VERTEX
8
CUT
10
235.8232
20
259.3529
0
VERTEX
8
CUT
10
227.6618
20
265.5361
0
VERTEX
8
CUT
10
219.0436
20
271.0800
0
VERTEX
8
CUT
10
209.9972
20
275.9548
0
VERTEX
8
CUT
10
200.5883
20
280.1884
0
VERTEX
8
CUT
10
190.8130
20
283.6613
0
VERTEX
8
CUT
10
180.7026
20
286.3495
0
VERTEX
8
CUT
10
170.4060
20
288.2630
0
VERTEX
8
CUT
10
159.8685
20
289.4235
0
VERTEX
8
CUT
10
149.2698
20
289.7575
0
VERTEX
8
CUT
10
138.6999
20
289.3019
0
VERTEX
8
CUT
10
128.1306
20
288.0238
0
VERTEX
8
CUT
10
117.6847
20
285.9467
0
VERTEX
8
CUT
10
107.4208
20
283.0520
0
VERTEX
8
CUT
10
97.4323
20
279.3355
0
VERTEX
8
CUT
10
87.7744
20
274.8710
0
VERTEX
8
CUT
10
78.4280
20
269.6176
0
VERTEX
8
CUT
10
69.5348
20
263.6772
0
VERTEX
8
CUT
10
61.0989
20
257.0366
0
VERTEX
8
CUT
10
53.1714
20
249.7470
0
VERTEX
8
CUT
10
45.8016
20
241.8308
0
VERTEX
8
CUT
10
38.0343
20
231.8727
0
VERTEX
8
CUT
10
31.2107
20
221.2139
0
VERTEX
8
CUT
10
25.4221
20
209.9756
0
VERTEX
8
CUT
10
20.6689
20
198.2188
0
VERTEX
8
CUT
10
16.9820
20
186.0970
0
VERTEX
8
CUT
10
14.3915
20
173.6402
0
VERTEX
8
CUT
10
12.9585
20
161.0315
0
VERTEX
8
CUT
10
12.7135
20
148.2964
0
VERTEX
8
CUT
10
13.1386
20
140.4621
0
VERTEX
8
CUT
10
13.9023
20
132.8575
0
VERTEX
8
CUT
10
15.0560
20
125.5101
0
VERTEX
8
CUT
10
16.6394
20
118.3206
0
VERTEX
8
CUT
10
18.5946
20
111.2034
0
VERTEX
8
CUT
10
21.0002
20
104.2012
0
VERTEX
8
CUT
10
23.8035
20
97.1947
0
VERTEX
8
CUT
10
27.0857
20
90.1439
0
VERTEX
8
CUT
10
29.9563
20
84.5859
0
VERTEX
8
CUT
10
30.6325
20
83.3870
0
VERTEX
8
CUT
10
30.9578
20
82.6317
0
VERTEX
8
CUT
10
31.4434
20
81.9494
0
VERTEX
8
CUT
10
32.9120
20
79.3456
0
VERTEX
8
CUT
10
36.0097
20
74.3649
0
VERTEX
8
CUT
10
37.5019
20
72.1817
0
VERTEX
8
CUT
10
38.9804
20
69.9726
0
VERTEX
8
CUT
10
39.2966
20
69.5558
0
VERTEX
8
CUT
10
39.2990
20
69.5522
0
VERTEX
8
CUT
10
42.8122
20
64.8479
0
VERTEX
8
CUT
10
43.2850
20
64.2975
0
VERTEX
8
CUT
10
46.4539
20
60.1197
0
VERTEX
8
CUT
10
52.3412
20
53.6529
0
VERTEX
8
CUT
10
55.6966
20
50.2974
0
VERTEX
8
CUT
10
62.8651
20
43.7085
0
VERTEX
8
CUT
10
70.0641
20
37.8518
0
VERTEX
8
CUT
10
77.5681
20
32.6051
0
VERTEX
8
CUT
10
85.3771
20
27.8769
0
VERTEX
8
CUT
10
93.4912
20
23.7284
0
VERTEX
8
CUT
10
101.7883
20
20.1289
0
VERTEX
8
CUT
10
110.2989
20
17.1395
0
VERTEX
8
CUT
10
118.9621
20
14.7297
0
VERTEX
8
CUT
10
127.7473
20
12.9604
0
VERTEX
8
CUT
10
140.5285
20
11.4352
0
VERTEX
8
CUT
10
143.4067
20
11.4297
0
VERTEX
8
CUT
10
152.4086
20
11.2792
0
VERTEX
8
CUT
10
154.9782
20
11.4077
0
VERTEX
8
CUT
10
156.5431
20
11.4047
0
VERTEX
8
CUT
10
161.7898
20
11.6488
0
VERTEX
8
CUT
10
166.1519
20
12.0758
0
VERTEX
8
CUT
10
176.2488
20
13.7230
0
VERTEX
8
CUT
10
186.0101
20
16.1024
0
VERTEX
8
CUT
10
195.4968
20
19.2138
0
VERTEX
8
CUT
10
204.7091
20
23.0573
0
VERTEX
8
CUT
10
213.6468
20
27.6024
0
VERTEX
8
CUT
10
222.3404
20
32.9101
0
VERTEX
8
CUT
10
230.7900
20
38.9499
0
VERTEX
8
CUT
10
238.9956
20
45.7523
0
VERTEX
8
CUT
10
242.2901
20
48.8027
0
VERTEX
8
CUT
10
249.5196
20
56.2457
0
SEQEND
0
POLYLINE
8
CUT
66
1
70
1
10
0.0
20
0.0
30
0.0
0
VERTEX
8
CUT
10
10.9709
20
105.4650
0
VERTEX
8
CUT
10
10.7603
20
90.4996
0
VERTEX
8
CUT
10
10.6383
20
41.1155
0
VERTEX
8
CUT
10
10.8622
20
11.6322
0
VERTEX
8
CUT
10
10.6726
20
11.6183
0
VERTEX
8
CUT
10
10.8862
20
11.0387
0
VERTEX
8
CUT
10
11.2827
20
10.9167
0
VERTEX
8
CUT
10
14.7297
20
10.7031
0
VERTEX
8
CUT
10
77.9341
20
10.6116
0
VERTEX
8
CUT
10
98.0363
20
10.7946
0
VERTEX
8
CUT
10
99.9276
20
11.0082
0
VERTEX
8
CUT
10
100.0801
20
11.4962
0
VERTEX
8
CUT
10
99.4700
20
11.9538
0
VERTEX
8
CUT
10
98.9103
20
12.0117
0
VERTEX
8
CUT
10
98.8503
20
12.0441
0
VERTEX
8
CUT
10
84.9270
20
18.5944
0
VERTEX
8
CUT
10
75.0625
20
24.4148
0
VERTEX
8
CUT
10
65.5321
20
31.0755
0
VERTEX
8
CUT
10
56.4924
20
38.5284
0
VERTEX
8
CUT
10
47.9405
20
46.6849
0
VERTEX
8
CUT
10
40.0303
20
55.4520
0
VERTEX
8
CUT
10
32.8099
20
64.7745
0
VERTEX
8
CUT
10
26.3509
20
74.5996
0
VERTEX
8
CUT
10
21.9902
20
82.2842
0
VERTEX
8
CUT
10
18.1689
20
89.8656
0
VERTEX
8
CUT
10
14.9346
20
97.1274
0
VERTEX
8
CUT
10
11.8322
20
105.6118
0
VERTEX
8
CUT
10
11.4033
20
105.9745
0
VERTEX
8
CUT
10
11.1012
20
105.8232
0
SEQEND
0
POLYLINE
8
CUT
66
1
70
1
10
0.0
20
0.0
30
0.0
0
VERTEX
8
CUT
10
98.2803
20
288.4733
0
VERTEX
8
CUT
10
99.4090
20
289.1444
0
VERTEX
8
CUT
10
99.5920
20
289.5409
0
VERTEX
8
CUT
10
98.6159
20
289.6934
0
VERTEX
8
CUT
10
97.8228
20
289.5104
0
VERTEX
8
CUT
10
97.5133
20
289.3673
0
VERTEX
8
CUT
10
85.4354
20
289.6362
0
VERTEX
8
CUT
10
23.6995
20
289.7277
0
VERTEX
8
CUT
10
12.0438
20
289.5759
0
VERTEX
8
CUT
10
10.6349
20
289.3090
0
VERTEX
8
CUT
10
10.3956
20
287.9561
0
VERTEX
8
CUT
10
10.3333
20
285.6644
0
VERTEX
8
CUT
10
10.1808
20
268.4614
0
VERTEX
8
CUT
10
10.2418
20
208.4941
0
VERTEX
8
CUT
10
10.5413
20
196.6676
0
VERTEX
8
CUT
10
10.4896
20
196.6255
0
VERTEX
8
CUT
10
10.2761
20
195.5273
0
VERTEX
8
CUT
10
10.3066
20
194.3987
0
VERTEX
8
CUT
10
10.5506
20
193.6361
0
VERTEX
8
CUT
10
10.9472
20
193.6971
0
VERTEX
8
CUT
10
11.1912
20
194.0326
0
VERTEX
8
CUT
10
11.9538
20
196.5035
0
VERTEX
8
CUT
10
11.9372
20
196.5810
0
VERTEX
8
CUT
10
14.9016
20
204.9409
0
VERTEX
8
CUT
10
18.9014
20
214.1313
0
VERTEX
8
CUT
10
23.0523
20
222.3420
0
VERTEX
8
CUT
10
26.0450
20
227.6561
0
VERTEX
8
CUT
10
29.1707
20
232.7122
0
VERTEX
8
CUT
10
36.0033
20
242.2595
0
VERTEX
8
CUT
10
43.7749
20
251.3773
0
VERTEX
8
CUT
10
46.9500
20
254.6415
0
VERTEX
8
CUT
10
47.3995
20
255.1018
0
VERTEX
8
CUT
10
55.9407
20
263.0634
0
VERTEX
8
CUT
10
63.5667
20
269.2252
0
VERTEX
8
CUT
10
68.0508
20
272.3976
0
VERTEX
8
CUT
10
72.6569
20
275.4480
0
VERTEX
8
CUT
10
82.1132
20
280.9998
0
VERTEX
8
CUT
10
91.5999
20
285.6669
0
SEQEND
0
POLYLINE
8
CUT
66
1
70
1
10
0.0
20
0.0
30
0.0
0
VERTEX
8
CUT
10
72.0535
20
155.0617
0
VERTEX
8
CUT
10
72.6908
20
157.0118
0
VERTEX
8
CUT
10
72.8373
20
159.0488
0
VERTEX
8
CUT
10
72.4470
20
161.0042
0
VERTEX
8
CUT
10
71.5457
20
162.7772
0
VERTEX
8
CUT
10
70.0640
20
164.3270
0
VERTEX
8
CUT
10
69.2712
20
164.8174
0
VERTEX
8
CUT
10
67.6747
20
165.3948
0
VERTEX
8
CUT
10
66.0655
20
165.4533
0
VERTEX
8
CUT
10
64.6329
20
164.9974
0
VERTEX
8
CUT
10
63.6415
20
164.1869
0
VERTEX
8
CUT
10
63.2585
20
163.6502
0
VERTEX
8
CUT
10
63.2463
20
163.2183
0
VERTEX
8
CUT
10
64.8820
20
160.9461
0
VERTEX
8
CUT
10
64.9348
20
160.5995
0
VERTEX
8
CUT
10
64.9958
20
159.4825
0
VERTEX
8
CUT
10
64.2861
20
157.9116
0
VERTEX
8
CUT
10
63.5412
20
157.2303
0
VERTEX
8
CUT
10
63.5404
20
157.2296
0
VERTEX
8
CUT
10
63.5350
20
157.2254
0
VERTEX
8
CUT
10
63.4982
20
157.1963
0
VERTEX
8
CUT
10
63.4849
20
157.1857
0
VERTEX
8
CUT
10
62.5308
20
156.7208
0
VERTEX
8
CUT
10
60.6608
20
156.5808
0
VERTEX
8
CUT
10
58.8778
20
157.0824
0
VERTEX
8
CUT
10
57.5575
20
158.2596
0
VERTEX
8
CUT
10
56.8571
20
159.5489
0
VERTEX
8
CUT
10
56.3468
20
161.0416
0
VERTEX
8
CUT
10
56.1777
20
162.4103
0
VERTEX
8
CUT
10
56.1889
20
162.7972
0
VERTEX
8
CUT
10
56.1895
20
162.8200
0
VERTEX
8
CUT
10
56.1897
20
162.8252
0
VERTEX
8
CUT
10
56.1898
20
162.8280
0
VERTEX
8
CUT
10
56.3218
20
164.1157
0
VERTEX
8
CUT
10
56.7495
20
165.5466
0
VERTEX
8
CUT
10
56.7923
20
165.6340
0
VERTEX
8
CUT
10
57.4720
20
166.9350
0
VERTEX
8
CUT
10
58.4394
20
168.2142
0
VERTEX
8
CUT
10
59.7080
20
169.3831
0
VERTEX
8
CUT
10
62.3416
20
170.9139
0
VERTEX
8
CUT
10
63.9957
20
171.3341
0
VERTEX
8
CUT
10
69.4671
20
171.3295
0
VERTEX
8
CUT
10
71.0474
20
170.9259
0
VERTEX
8
CUT
10
72.0485
20
170.4343
0
VERTEX
8
CUT
10
72.0645
20
170.5062
0
VERTEX
8
CUT
10
72.0852
20
170.5816
0
VERTEX
8
CUT
10
72.1219
20
170.6936
0
VERTEX
8
CUT
10
72.1694
20
170.8014
0
VERTEX
8
CUT
10
72.2272
20
170.9040
0
VERTEX
8
CUT
10
72.2949
20
171.0005
0
VERTEX
8
CUT
10
72.3717
20
171.0899
0
VERTEX
8
CUT
10
72.4550
20
171.1695
0
VERTEX
8
CUT
10
70.0173
20
173.1085
0
VERTEX
8
CUT
10
68.8830
20
174.0455
0
VERTEX
8
CUT
10
68.2711
20
174.5509
0
VERTEX
8
CUT
10
68.1455
20
174.6546
0
VERTEX
8
CUT
10
67.9129
20
174.8468
0
VERTEX
8
CUT
10
65.0639
20
177.3656
0
VERTEX
8
CUT
10
64.6152
20
177.7964
0
VERTEX
8
CUT
10
64.0625
20
178.3270
0
VERTEX
8
CUT
10
62.7912
20
179.5477
0
VERTEX
8
CUT
10
62.0284
20
180.2802
0
VERTEX
8
CUT
10
61.3099
20
181.0039
0
VERTEX
8
CUT
10
61.2032
20
181.1160
0
VERTEX
8
CUT
10
60.1718
20
182.2001
0
VERTEX
8
CUT
10
60.1466
20
182.2266
0
VERTEX
8
CUT
10
58.8244
20
183.6164
0
VERTEX
8
CUT
10
58.2000
20
184.3375
0
VERTEX
8
CUT
10
57.6054
20
185.0432
0
VERTEX
8
CUT
10
57.3508
20
185.3453
0
VERTEX
8
CUT
10
57.1998
20
185.5245
0
VERTEX
8
CUT
10
55.0357
20
188.0927
0
VERTEX
8
CUT
10
53.7199
20
189.8334
0
VERTEX
8
CUT
10
49.6928
20
196.1477
0
VERTEX
8
CUT
10
47.4168
20
200.7913
0
VERTEX
8
CUT
10
45.0348
20
207.4183
0
VERTEX
8
CUT
10
44.0388
20
211.6616
0
VERTEX
8
CUT
10
43.8728
20
212.6281
0
VERTEX
8
CUT
10
43.8413
20
212.8119
0
VERTEX
8
CUT
10
43.8411
20
212.8125
0
VERTEX
8
CUT
10
43.8389
20
212.8254
0
VERTEX
8
CUT
10
43.4990
20
217.8165
0
VERTEX
8
CUT
10
43.6512
20
225.6396
0
VERTEX
8
CUT
10
44.3576
20
229.1872
0
VERTEX
8
CUT
10
45.4883
20
232.6743
0
VERTEX
8
CUT
10
46.1834
20
234.1893
0
VERTEX
8
CUT
10
46.3319
20
234.3590
0
VERTEX
8
CUT
10
48.9552
20
238.9346
0
VERTEX
8
CUT
10
51.5176
20
242.1681
0
VERTEX
8
CUT
10
54.5985
20
245.1575
0
VERTEX
8
CUT
10
59.4100
20
248.7661
0
VERTEX
8
CUT
10
59.7922
20
249.0106
0
VERTEX
8
CUT
10
63.1620
20
250.6804
0
VERTEX
8
CUT
10
67.4270
20
252.2780
0
VERTEX
8
CUT
10
69.6596
20
252.8677
0
VERTEX
8
CUT
10
74.5421
20
253.7527
0
VERTEX
8
CUT
10
77.3902
20
254.0593
0
VERTEX
8
CUT
10
88.5383
20
254.7013
0
VERTEX
8
CUT
10
91.3940
20
255.1406
0
VERTEX
8
CUT
10
91.5974
20
255.4762
0
VERTEX
8
CUT
10
91.2696
20
256.4862
0
VERTEX
8
CUT
10
91.4582
20
257.1174
0
VERTEX
8
CUT
10
91.9036
20
257.4672
0
VERTEX
8
CUT
10
94.2020
20
257.9015
0
VERTEX
8
CUT
10
94.5111
20
258.3428
0
VERTEX
8
CUT
10
92.0763
20
260.3393
0
VERTEX
8
CUT
10
90.6161
20
262.0432
0
VERTEX
8
CUT
10
90.0193
20
263.2473
0
VERTEX
8
CUT
10
89.8955
20
264.1217
0
VERTEX
8
CUT
10
90.0475
20
264.4566
0
VERTEX
8
CUT
10
90.4583
20
264.6456
0
VERTEX
8
CUT
10
93.0407
20
264.9228
0
VERTEX
8
CUT
10
96.0122
20
266.1702
0
VERTEX
8
CUT
10
98.4346
20
264.3960
0
VERTEX
8
CUT
10
100.3951
20
263.9140
0
VERTEX
8
CUT
10
100.6072
20
263.9140
0
VERTEX
8
CUT
10
100.7694
20
263.8558
0
VERTEX
8
CUT
10
101.9787
20
263.7035
0
VERTEX
8
CUT
10
103.8974
20
263.9068
0
VERTEX
8
CUT
10
103.9240
20
263.9143
0
VERTEX
8
CUT
10
104.4279
20
263.9144
0
VERTEX
8
CUT
10
105.4080
20
264.1266
0
VERTEX
8
CUT
10
107.2274
20
264.9202
0
VERTEX
8
CUT
10
109.2713
20
266.2007
0
VERTEX
8
CUT
10
111.3177
20
267.9788
0
VERTEX
8
CUT
10
113.4980
20
270.4029
0
VERTEX
8
CUT
10
118.5343
20
276.9639
0
VERTEX
8
CUT
10
122.4158
20
280.8153
0
VERTEX
8
CUT
10
123.7697
20
281.7924
0
VERTEX
8
CUT
10
126.4828
20
283.3168
0
VERTEX
8
CUT
10
129.3978
20
284.2214
0
VERTEX
8
CUT
10
135.9078
20
285.2661
0
VERTEX
8
CUT
10
143.0501
20
285.6934
0
VERTEX
8
CUT
10
146.9272
20
285.4122
0
VERTEX
8
CUT
10
150.3823
20
284.3300
0
VERTEX
8
CUT
10
154.4312
20
282.2735
0
VERTEX
8
CUT
10
157.8748
20
279.8731
0
VERTEX
8
CUT
10
160.1724
20
277.7585
0
VERTEX
8
CUT
10
167.2985
20
270.2956
0
VERTEX
8
CUT
10
167.9756
20
269.5593
0
VERTEX
8
CUT
10
168.3613
20
269.1827
0
VERTEX
8
CUT
10
169.2035
20
268.3006
0
VERTEX
8
CUT
10
172.3657
20
265.3539
0
VERTEX
8
CUT
10
174.9191
20
263.7657
0
VERTEX
8
CUT
10
177.5890
20
262.7860
0
VERTEX
8
CUT
10
178.9209
20
262.5381
0
VERTEX
8
CUT
10
179.5665
20
262.5302
0
VERTEX
8
CUT
10
179.7179
20
262.5113
0
VERTEX
8
CUT
10
179.8782
20
262.5264
0
VERTEX
8
CUT
10
181.3782
20
262.5080
0
VERTEX
8
CUT
10
182.5351
20
262.7406
0
VERTEX
8
CUT
10
184.6994
20
263.7517
0
VERTEX
8
CUT
10
186.0187
20
264.9296
0
VERTEX
8
CUT
10
186.9653
20
266.3713
0
VERTEX
8
CUT
10
187.4465
20
267.9505
0
VERTEX
8
CUT
10
187.4571
20
268.1535
0
VERTEX
8
CUT
10
187.4847
20
268.2265
0
VERTEX
8
CUT
10
187.5950
20
269.2383
0
VERTEX
8
CUT
10
187.5315
20
269.5839
0
VERTEX
8
CUT
10
187.5319
20
269.5908
0
VERTEX
8
CUT
10
187.5243
20
269.6233
0
VERTEX
8
CUT
10
187.3746
20
270.4389
0
VERTEX
8
CUT
10
187.3053
20
270.5595
0
VERTEX
8
CUT
10
187.1748
20
271.1175
0
VERTEX
8
CUT
10
186.4351
20
272.4642
0
VERTEX
8
CUT
10
185.2904
20
273.5416
0
VERTEX
8
CUT
10
183.7757
20
274.2690
0
VERTEX
8
CUT
10
182.9417
20
274.4416
0
VERTEX
8
CUT
10
181.3481
20
274.2393
0
VERTEX
8
CUT
10
180.0294
20
273.4902
0
VERTEX
8
CUT
10
179.7650
20
273.1177
0
VERTEX
8
CUT
10
179.4442
20
272.8144
0
VERTEX
8
CUT
10
179.4071
20
272.6135
0
VERTEX
8
CUT
10
179.1290
20
272.2218
0
VERTEX
8
CUT
10
178.4887
20
270.2870
0
VERTEX
8
CUT
10
178.1312
20
270.0848
0
VERTEX
8
CUT
10
177.5365
20
270.2091
0
VERTEX
8
CUT
10
176.9415
20
270.7080
0
VERTEX
8
CUT
10
176.4941
20
271.2045
0
VERTEX
8
CUT
10
176.2214
20
271.7742
0
VERTEX
8
CUT
10
176.0732
20
272.1609
0
VERTEX
8
CUT
10
176.0417
20
274.1705
0
VERTEX
8
CUT
10
176.4966
20
276.1983
0
VERTEX
8
CUT
10
176.6848
20
276.5030
0
VERTEX
8
CUT
10
177.3746
20
277.4818
0
VERTEX
8
CUT
10
177.9043
20
278.0310
0
VERTEX
8
CUT
10
177.9957
20
278.1131
0
VERTEX
8
CUT
10
178.0006
20
278.1175
0
VERTEX
8
CUT
10
178.0485
20
278.1605
0
VERTEX
8
CUT
10
178.2081
20
278.3039
0
VERTEX
8
CUT
10
179.6015
20
279.2038
0
VERTEX
8
CUT
10
181.2291
20
279.8198
0
VERTEX
8
CUT
10
183.0675
20
280.1109
0
VERTEX
8
CUT
10
184.8758
20
280.0485
0
VERTEX
8
CUT
10
186.7082
20
279.6651
0
VERTEX
8
CUT
10
188.4238
20
278.9593
0
VERTEX
8
CUT
10
190.0715
20
277.9332
0
VERTEX
8
CUT
10
190.4659
20
277.5732
0
VERTEX
8
CUT
10
191.2776
20
276.6997
0
VERTEX
8
CUT
10
191.7705
20
276.1692
0
VERTEX
8
CUT
10
192.1298
20
275.7826
0
VERTEX
8
CUT
10
192.5217
20
275.3608
0
VERTEX
8
CUT
10
192.6316
20
275.2243
0
VERTEX
8
CUT
10
193.5493
20
273.6801
0
VERTEX
8
CUT
10
194.2072
20
272.0466
0
VERTEX
8
CUT
10
194.6653
20
270.3933
0
VERTEX
8
CUT
10
194.8420
20
268.7546
0
VERTEX
8
CUT
10
194.8410
20
268.6918
0
VERTEX
8
CUT
10
194.8388
20
268.5566
0
VERTEX
8
CUT
10
194.8387
20
268.5524
0
VERTEX
8
CUT
10
194.8376
20
268.4799
0
VERTEX
8
CUT
10
194.5728
20
265.2148
0
VERTEX
8
CUT
10
194.0449
20
263.4453
0
VERTEX
8
CUT
10
193.1213
20
261.7166
0
VERTEX
8
CUT
10
190.8308
20
259.0768
0
VERTEX
8
CUT
10
189.0691
20
257.6828
0
VERTEX
8
CUT
10
187.0571
20
256.4943
0
VERTEX
8
CUT
10
186.9731
20
255.9574
0
VERTEX
8
CUT
10
187.9549
20
255.5879
0
VERTEX
8
CUT
10
189.4970
20
255.3394
0
VERTEX
8
CUT
10
193.0923
20
255.2431
0
VERTEX
8
CUT
10
194.1659
20
255.1899
0
VERTEX
8
CUT
10
194.3657
20
255.2090
0
VERTEX
8
CUT
10
195.1055
20
255.1891
0
VERTEX
8
CUT
10
198.1277
20
255.6039
0
VERTEX
8
CUT
10
199.8585
20
256.2207
0
VERTEX
8
CUT
10
202.8289
20
257.9140
0
VERTEX
8
CUT
10
204.1568
20
258.9968
0
VERTEX
8
CUT
10
206.1903
20
261.4896
0
VERTEX
8
CUT
10
206.9250
20
262.8734
0
VERTEX
8
CUT
10
208.1467
20
266.2159
0
VERTEX
8
CUT
10
208.7433
20
266.4742
0
VERTEX
8
CUT
10
209.7068
20
266.4381
0
VERTEX
8
CUT
10
211.4194
20
265.9675
0
VERTEX
8
CUT
10
213.9236
20
264.8514
0
VERTEX
8
CUT
10
214.2516
20
263.5464
0
VERTEX
8
CUT
10
214.0973
20
261.1679
0
VERTEX
8
CUT
10
213.6089
20
259.2710
0
VERTEX
8
CUT
10
212.8703
20
257.4156
0
VERTEX
8
CUT
10
211.8238
20
255.5755
0
VERTEX
8
CUT
10
210.5849
20
253.9395
0
VERTEX
8
CUT
10
209.1308
20
252.4590
0
VERTEX
8
CUT
10
207.5334
20
251.1931
0
VERTEX
8
CUT
10
204.4945
20
249.5438
0
VERTEX
8
CUT
10
202.3619
20
249.0680
0
VERTEX
8
CUT
10
195.1177
20
249.4305
0
VERTEX
8
CUT
10
191.9739
20
248.6695
0
VERTEX
8
CUT
10
189.1954
20
248.4862
0
VERTEX
8
CUT
10
187.7403
20
248.6806
0
VERTEX
8
CUT
10
185.1455
20
249.5965
0
VERTEX
8
CUT
10
180.3654
20
252.8553
0
VERTEX
8
CUT
10
177.6832
20
254.0760
0
VERTEX
8
CUT
10
174.5397
20
255.1276
0
VERTEX
8
CUT
10
171.8668
20
256.9910
0
VERTEX
8
CUT
10
170.2692
20
258.3749
0
VERTEX
8
CUT
10
166.7637
20
262.0024
0
VERTEX
8
CUT
10
156.9216
20
273.4305
0
VERTEX
8
CUT
10
154.1722
20
275.8498
0
VERTEX
8
CUT
10
151.0889
20
277.9672
0
VERTEX
8
CUT
10
147.8920
20
279.5833
0
VERTEX
8
CUT
10
144.5988
20
280.6108
0
VERTEX
8
CUT
10
141.2758
20
281.1241
0
VERTEX
8
CUT
10
137.9893
20
281.0956
0
VERTEX
8
CUT
10
134.6657
20
280.4903
0
VERTEX
8
CUT
10
131.4642
20
279.3426
0
VERTEX
8
CUT
10
128.3593
20
277.6366
0
VERTEX
8
CUT
10
125.7976
20
275.6704
0
VERTEX
8
CUT
10
122.2669
20
271.6540
0
VERTEX
8
CUT
10
119.9412
20
268.0899
0
VERTEX
8
CUT
10
117.2444
20
263.3115
0
VERTEX
8
CUT
10
115.0623
20
260.1792
0
VERTEX
8
CUT
10
112.4780
20
257.3513
0
VERTEX
8
CUT
10
110.5049
20
255.5969
0
VERTEX
8
CUT
10
108.4086
20
254.0896
0
VERTEX
8
CUT
10
106.0621
20
252.7828
0
VERTEX
8
CUT
10
105.6311
20
252.6045
0
VERTEX
8
CUT
10
103.3070
20
251.6657
0
VERTEX
8
CUT
10
100.3425
20
250.7457
0
VERTEX
8
CUT
10
100.2455
20
250.7191
0
VERTEX
8
CUT
10
100.1470
20
250.6921
0
VERTEX
8
CUT
10
100.1100
20
250.6820
0
VERTEX
8
CUT
10
100.0544
20
250.6667
0
VERTEX
8
CUT
10
93.2008
20
249.2751
0
VERTEX
8
CUT
10
88.6323
20
248.5202
0
VERTEX
8
CUT
10
77.5875
20
246.8141
0
VERTEX
8
CUT
10
76.1165
20
246.4767
0
VERTEX
8
CUT
10
75.9027
20
246.0022
0
VERTEX
8
CUT
10
76.2380
20
245.7325
0
VERTEX
8
CUT
10
77.0353
20
245.6846
0
VERTEX
8
CUT
10
77.1043
20
245.6713
0
VERTEX
8
CUT
10
77.4588
20
245.6591
0
VERTEX
8
CUT
10
82.8187
20
245.3367
0
VERTEX
8
CUT
10
87.6560
20
245.3061
0
VERTEX
8
CUT
10
90.7273
20
245.4885
0
VERTEX
8
CUT
10
94.5363
20
246.2147
0
VERTEX
8
CUT
10
101.0232
20
248.5791
0
VERTEX
8
CUT
10
101.1622
20
248.6040
0
VERTEX
8
CUT
10
103.9544
20
248.9057
0
VERTEX
8
CUT
10
110.0637
20
248.6885
0
VERTEX
8
CUT
10
111.0380
20
248.4833
0
VERTEX
8
CUT
10
111.2091
20
248.4357
0
VERTEX
8
CUT
10
111.2163
20
248.4338
0
VERTEX
8
CUT
10
111.5097
20
248.3522
0
VERTEX
8
CUT
10
112.4455
20
248.0923
0
VERTEX
8
CUT
10
114.0046
20
247.4437
0
VERTEX
8
CUT
10
115.4910
20
246.4220
0
VERTEX
8
CUT
10
117.1043
20
244.5407
0
VERTEX
8
CUT
10
120.8106
20
244.0498
0
VERTEX
8
CUT
10
124.5254
20
242.8687
0
VERTEX
8
CUT
10
125.1445
20
242.3831
0
VERTEX
8
CUT
10
125.6347
20
241.6734
0
VERTEX
8
CUT
10
126.6276
20
239.4882
0
VERTEX
8
CUT
10
129.7828
20
239.2348
0
VERTEX
8
CUT
10
131.4028
20
238.8014
0
VERTEX
8
CUT
10
133.3483
20
237.7713
0
VERTEX
8
CUT
10
134.1527
20
236.8410
0
VERTEX
8
CUT
10
134.6374
20
235.1746
0
VERTEX
8
CUT
10
134.5724
20
234.0149
0
VERTEX
8
CUT
10
134.1853
20
232.8880
0
VERTEX
8
CUT
10
132.5298
20
230.9808
0
VERTEX
8
CUT
10
131.8401
20
230.5039
0
VERTEX
8
CUT
10
131.7362
20
230.4434
0
VERTEX
8
CUT
10
131.7123
20
230.4295
0
VERTEX
8
CUT
10
131.5126
20
230.3133
0
VERTEX
8
CUT
10
131.0227
20
230.0281
0
VERTEX
8
CUT
10
129.0226
20
229.1122
0
VERTEX
8
CUT
10
128.9440
20
228.7813
0
VERTEX
8
CUT
10
129.3589
20
227.5077
0
VERTEX
8
CUT
10
129.1820
20
227.1399
0
VERTEX
8
CUT
10
128.7920
20
226.9014
0
VERTEX
8
CUT
10
125.1099
20
226.6457
0
VERTEX
8
CUT
10
120.5314
20
227.0472
0
VERTEX
8
CUT
10
116.8241
20
228.0886
0
VERTEX
8
CUT
10
113.2940
20
230.0478
0
VERTEX
8
CUT
10
112.1432
20
230.3058
0
VERTEX
8
CUT
10
111.6566
20
230.2793
0
VERTEX
8
CUT
10
111.4159
20
230.0488
0
VERTEX
8
CUT
10
111.4416
20
229.7165
0
VERTEX
8
CUT
10
111.9334
20
229.1184
0
VERTEX
8
CUT
10
113.3029
20
227.9307
0
VERTEX
8
CUT
10
115.0846
20
226.7550
0
VERTEX
8
CUT
10
117.9601
20
225.3659
0
VERTEX
8
CUT
10
119.8665
20
224.7035
0
VERTEX
8
CUT
10
121.8515
20
224.2843
0
VERTEX
8
CUT
10
124.0285
20
224.0448
0
VERTEX
8
CUT
10
124.0410
20
224.0449
0
VERTEX
8
CUT
10
124.2393
20
223.8961
0
VERTEX
8
CUT
10
128.3879
20
223.9571
0
VERTEX
8
CUT
10
128.5349
20
224.2512
0
VERTEX
8
CUT
10
132.5608
20
224.6520
0
VERTEX
8
CUT
10
143.0390
20
226.2401
0
VERTEX
8
CUT
10
152.5626
20
227.0017
0
VERTEX
8
CUT
10
152.7773
20
227.2499
0
VERTEX
8
CUT
10
153.2044
20
229.4299
0
VERTEX
8
CUT
10
153.4019
20
230.0396
0
VERTEX
8
CUT
10
153.4897
20
230.3108
0
VERTEX
8
CUT
10
153.5215
20
230.4091
0
VERTEX
8
CUT
10
153.8683
20
231.4799
0
VERTEX
8
CUT
10
155.9926
20
234.9676
0
VERTEX
8
CUT
10
156.0057
20
235.2618
0
VERTEX
8
CUT
10
156.0146
20
235.2773
0
VERTEX
8
CUT
10
156.0218
20
235.6194
0
VERTEX
8
CUT
10
156.3035
20
241.9102
0
VERTEX
8
CUT
10
156.6238
20
244.0792
0
VERTEX
8
CUT
10
158.3769
20
247.3406
0
VERTEX
8
CUT
10
160.0814
20
249.1135
0
VERTEX
8
CUT
10
160.0994
20
249.1265
0
VERTEX
8
CUT
10
160.1045
20
249.1302
0
VERTEX
8
CUT
10
160.1273
20
249.1465
0
VERTEX
8
CUT
10
160.2444
20
249.2309
0
VERTEX
8
CUT
10
161.6483
20
250.1247
0
VERTEX
8
CUT
10
163.4688
20
250.9409
0
VERTEX
8
CUT
10
165.5530
20
251.5230
0
VERTEX
8
CUT
10
165.6953
20
251.5458
0
VERTEX
8
CUT
10
165.6972
20
251.5460
0
VERTEX
8
CUT
10
165.7219
20
251.5489
0
VERTEX
8
CUT
10
166.1906
20
251.6037
0
VERTEX
8
CUT
10
168.5372
20
251.8778
0
VERTEX
8
CUT
10
169.3817
20
251.8930
0
VERTEX
8
CUT
10
170.7148
20
251.5900
0
VERTEX
8
CUT
10
172.5692
20
251.9245
0
VERTEX
8
CUT
10
174.9899
20
251.9244
0
VERTEX
8
CUT
10
176.0759
20
251.8320
0
VERTEX
8
CUT
10
178.4569
20
251.2832
0
VERTEX
8
CUT
10
178.9886
20
251.2203
0
VERTEX
8
CUT
10
179.0485
20
251.2065
0
VERTEX
8
CUT
10
179.0618
20
251.2117
0
VERTEX
8
CUT
10
180.2865
20
251.0669
0
VERTEX
8
CUT
10
181.8092
20
250.3142
0
VERTEX
8
CUT
10
182.4556
20
249.7096
0
VERTEX
8
CUT
10
183.3991
20
248.0998
0
VERTEX
8
CUT
10
183.7380
20
246.2543
0
VERTEX
8
CUT
10
183.5935
20
244.7966
0
VERTEX
8
CUT
10
183.5285
20
244.5793
0
VERTEX
8
CUT
10
183.0568
20
243.3760
0
VERTEX
8
CUT
10
182.2212
20
241.8761
0
VERTEX
8
CUT
10
182.1438
20
241.7804
0
VERTEX
8
CUT
10
182.0518
20
241.6666
0
VERTEX
8
CUT
10
181.8359
20
241.3994
0
VERTEX
8
CUT
10
181.8197
20
241.3794
0
VERTEX
8
CUT
10
180.3356
20
239.8883
0
VERTEX
8
CUT
10
180.3024
20
239.8636
0
VERTEX
8
CUT
10
179.7407
20
239.4456
0
VERTEX
8
CUT
10
179.6900
20
239.4079
0
VERTEX
8
CUT
10
179.5051
20
239.2703
0
VERTEX
8
CUT
10
179.4408
20
239.2263
0
VERTEX
8
CUT
10
178.6593
20
238.7551
0
VERTEX
8
CUT
10
178.5526
20
238.6908
0
VERTEX
8
CUT
10
178.4748
20
238.6438
0
VERTEX
8
CUT
10
178.4508
20
238.6294
0
VERTEX
8
CUT
10
175.8276
20
237.2520
0
VERTEX
8
CUT
10
175.0759
20
236.5944
0
VERTEX
8
CUT
10
174.8116
20
236.4350
0
VERTEX
8
CUT
10
174.5526
20
236.1366
0
VERTEX
8
CUT
10
173.9502
20
235.6096
0
VERTEX
8
CUT
10
173.6355
20
235.0799
0
VERTEX
8
CUT
10
173.2194
20
234.6003
0
VERTEX
8
CUT
10
172.9128
20
233.8632
0
VERTEX
8
CUT
10
172.7174
20
233.5342
0
VERTEX
8
CUT
10
172.6614
20
233.2586
0
VERTEX
8
CUT
10
172.6002
20
233.1113
0
VERTEX
8
CUT
10
172.5161
20
232.5431
0
VERTEX
8
CUT
10
172.1879
20
230.9276
0
VERTEX
8
CUT
10
172.2346
20
229.2742
0
VERTEX
8
CUT
10
172.2191
20
227.6187
0
VERTEX
8
CUT
10
172.2968
20
227.0672
0
VERTEX
8
CUT
10
172.3104
20
226.5843
0
VERTEX
8
CUT
10
172.6799
20
224.1589
0
VERTEX
8
CUT
10
173.0104
20
223.9507
0
VERTEX
8
CUT
10
173.0231
20
223.9359
0
VERTEX
8
CUT
10
173.0529
20
223.9240
0
VERTEX
8
CUT
10
173.6087
20
223.5738
0
VERTEX
8
CUT
10
179.5882
20
221.1467
0
VERTEX
8
CUT
10
179.9724
20
221.5434
0
VERTEX
8
CUT
10
179.6690
20
222.0757
0
VERTEX
8
CUT
10
179.6776
20
229.2619
0
VERTEX
8
CUT
10
182.0351
20
234.1704
0
VERTEX
8
CUT
10
182.9684
20
238.7359
0
VERTEX
8
CUT
10
183.7961
20
241.1626
0
VERTEX
8
CUT
10
184.6370
20
242.5365
0
VERTEX
8
CUT
10
185.7366
20
243.7353
0
VERTEX
8
CUT
10
186.2458
20
244.2541
0
VERTEX
8
CUT
10
187.5723
20
245.1214
0
VERTEX
8
CUT
10
188.3919
20
245.6573
0
VERTEX
8
CUT
10
188.5999
20
245.7933
0
VERTEX
8
CUT
10
188.8691
20
245.9693
0
VERTEX
8
CUT
10
189.6350
20
246.3328
0
VERTEX
8
CUT
10
192.1639
20
247.1557
0
VERTEX
8
CUT
10
193.3317
20
247.3197
0
VERTEX
8
CUT
10
198.4340
20
247.3803
0
VERTEX
8
CUT
10
203.1722
20
247.0138
0
VERTEX
8
CUT
10
206.1497
20
245.9530
0
VERTEX
8
CUT
10
207.2632
20
245.3100
0
VERTEX
8
CUT
10
208.0987
20
244.4298
0
VERTEX
8
CUT
10
208.5552
20
243.1875
0
VERTEX
8
CUT
10
208.7184
20
242.5028
0
VERTEX
8
CUT
10
208.6579
20
241.4073
0
VERTEX
8
CUT
10
208.6579
20
241.4070
0
VERTEX
8
CUT
10
208.6569
20
241.3939
0
VERTEX
8
CUT
10
208.5858
20
240.3937
0
VERTEX
8
CUT
10
208.0853
20
238.9988
0
VERTEX
8
CUT
10
207.2059
20
237.6570
0
VERTEX
8
CUT
10
205.0326
20
235.6140
0
VERTEX
8
CUT
10
203.5870
20
234.7704
0
VERTEX
8
CUT
10
198.8242
20
232.9958
0
VERTEX
8
CUT
10
197.2092
20
231.6590
0
VERTEX
8
CUT
10
197.2075
20
231.6557
0
VERTEX
8
CUT
10
197.2027
20
231.6520
0
VERTEX
8
CUT
10
196.3497
20
230.2827
0
VERTEX
8
CUT
10
196.1166
20
229.4970
0
VERTEX
8
CUT
10
195.7380
20
228.7479
0
VERTEX
8
CUT
10
195.5524
20
227.6661
0
VERTEX
8
CUT
10
195.5240
20
225.0205
0
VERTEX
8
CUT
10
195.5382
20
224.7275
0
VERTEX
8
CUT
10
195.5249
20
224.4647
0
VERTEX
8
CUT
10
195.6052
20
223.3475
0
VERTEX
8
CUT
10
195.6777
20
221.8547
0
VERTEX
8
CUT
10
196.1038
20
218.7310
0
VERTEX
8
CUT
10
196.8021
20
215.6697
0
VERTEX
8
CUT
10
197.7335
20
212.6651
0
VERTEX
8
CUT
10
198.9458
20
209.6611
0
VERTEX
8
CUT
10
199.5425
20
208.5738
0
VERTEX
8
CUT
10
200.2840
20
207.0425
0
VERTEX
8
CUT
10
201.8130
20
204.4362
0
VERTEX
8
CUT
10
202.1636
20
203.7974
0
VERTEX
8
CUT
10
209.3859
20
193.4995
0
VERTEX
8
CUT
10
209.6692
20
193.0371
0
VERTEX
8
CUT
10
209.6780
20
193.0229
0
VERTEX
8
CUT
10
209.7430
20
192.9167
0
VERTEX
8
CUT
10
210.1642
20
192.2294
0
VERTEX
8
CUT
10
213.7365
20
186.2072
0
VERTEX
8
CUT
10
216.7756
20
179.7884
0
VERTEX
8
CUT
10
217.8163
20
176.8164
0
VERTEX
8
CUT
10
218.8248
20
172.5981
0
VERTEX
8
CUT
10
219.1329
20
169.3127
0
VERTEX
8
CUT
10
219.1947
20
165.7604
0
VERTEX
8
CUT
10
218.7023
20
160.7408
0
VERTEX
8
CUT
10
217.5141
20
155.5004
0
VERTEX
8
CUT
10
217.5001
20
155.4478
0
VERTEX
8
CUT
10
214.2481
20
143.6849
0
VERTEX
8
CUT
10
212.6036
20
136.9253
0
VERTEX
8
CUT
10
211.9625
20
133.5154
0
VERTEX
8
CUT
10
211.9027
20
133.2401
0
VERTEX
8
CUT
10
211.8655
20
132.9995
0
VERTEX
8
CUT
10
211.4429
20
130.7520
0
VERTEX
8
CUT
10
210.8383
20
125.2805
0
VERTEX
8
CUT
10
210.7457
20
120.5207
0
VERTEX
8
CUT
10
211.1706
20
116.5030
0
VERTEX
8
CUT
10
211.5039
20
115.4042
0
VERTEX
8
CUT
10
211.7408
20
114.2763
0
VERTEX
8
CUT
10
212.0411
20
113.6331
0
VERTEX
8
CUT
10
212.0824
20
113.4968
0
VERTEX
8
CUT
10
212.1556
20
113.3879
0
VERTEX
8
CUT
10
212.2948
20
113.0897
0
VERTEX
8
CUT
10
212.5539
20
112.7949
0
VERTEX
8
CUT
10
213.5263
20
111.3469
0
VERTEX
8
CUT
10
215.3840
20
110.2357
0
VERTEX
8
CUT
10
215.9304
20
110.1125
0
VERTEX
8
CUT
10
218.6439
20
110.1741
0
VERTEX
8
CUT
10
227.5363
20
111.4364
0
VERTEX
8
CUT
10
228.0606
20
111.4862
0
VERTEX
8
CUT
10
234.2368
20
111.5763
0
VERTEX
8
CUT
10
239.1213
20
111.0477
0
VERTEX
8
CUT
10
239.6841
20
110.8676
0
VERTEX
8
CUT
10
239.6844
20
110.8675
0
VERTEX
8
CUT
10
239.6873
20
110.8663
0
VERTEX
8
CUT
10
239.7710
20
110.8340
0
VERTEX
8
CUT
10
242.8218
20
109.6532
0
VERTEX
8
CUT
10
243.3760
20
109.3934
0
VERTEX
8
CUT
10
243.5723
20
109.2817
0
VERTEX
8
CUT
10
245.2894
20
108.2048
0
VERTEX
8
CUT
10
248.5308
20
105.4535
0
VERTEX
8
CUT
10
250.4873
20
104.0761
0
VERTEX
8
CUT
10
253.4428
20
101.1170
0
VERTEX
8
CUT
10
253.6815
20
100.8513
0
VERTEX
8
CUT
10
254.3539
20
100.2049
0
VERTEX
8
CUT
10
256.2839
20
98.2725
0
VERTEX
8
CUT
10
256.7838
20
97.6433
0
VERTEX
8
CUT
10
257.7379
20
95.7888
0
VERTEX
8
CUT
10
259.4396
20
91.9715
0
VERTEX
8
CUT
10
259.5440
20
91.7172
0
VERTEX
8
CUT
10
259.7477
20
90.9606
0
VERTEX
8
CUT
10
259.8566
20
89.5371
0
VERTEX
8
CUT
10
259.6637
20
88.7062
0
VERTEX
8
CUT
10
259.4452
20
88.3357
0
VERTEX
8
CUT
10
258.8704
20
87.3852
0
VERTEX
8
CUT
10
258.5802
20
87.0974
0
VERTEX
8
CUT
10
258.4582
20
86.9764
0
VERTEX
8
CUT
10
258.3712
20
86.8901
0
VERTEX
8
CUT
10
258.3161
20
86.8355
0
VERTEX
8
CUT
10
258.0462
20
86.5998
0
VERTEX
8
CUT
10
252.7354
20
83.4195
0
VERTEX
8
CUT
10
249.6863
20
81.8814
0
VERTEX
8
CUT
10
242.9902
20
78.5988
0
VERTEX
8
CUT
10
231.4217
20
73.4400
0
VERTEX
8
CUT
10
229.6066
20
72.4972
0
VERTEX
8
CUT
10
228.8810
20
72.1691
0
VERTEX
8
CUT
10
228.1493
20
71.7402
0
VERTEX
8
CUT
10
226.5551
20
70.9121
0
VERTEX
8
CUT
10
225.8234
20
70.3767
0
VERTEX
8
CUT
10
225.5980
20
70.2445
0
VERTEX
8
CUT
10
225.3259
20
70.0127
0
VERTEX
8
CUT
10
225.0098
20
69.7814
0
VERTEX
8
CUT
10
224.7495
20
69.5214
0
VERTEX
8
CUT
10
224.5731
20
69.3711
0
VERTEX
8
CUT
10
224.5078
20
69.2801
0
VERTEX
8
CUT
10
223.8729
20
68.6460
0
VERTEX
8
CUT
10
223.0172
20
67.3724
0
VERTEX
8
CUT
10
222.4426
20
65.9190
0
VERTEX
8
CUT
10
221.4324
20
61.9827
0
VERTEX
8
CUT
10
221.0790
20
61.1284
0
VERTEX
8
CUT
10
220.4078
20
60.2626
0
VERTEX
8
CUT
10
220.0393
20
59.8634
0
VERTEX
8
CUT
10
219.8845
20
59.6957
0
VERTEX
8
CUT
10
219.8669
20
59.6767
0
VERTEX
8
CUT
10
219.8258
20
59.6321
0
VERTEX
8
CUT
10
212.2908
20
54.5103
0
VERTEX
8
CUT
10
209.8778
20
53.0748
0
VERTEX
8
CUT
10
207.9582
20
52.1157
0
VERTEX
8
CUT
10
207.0559
20
51.6857
0
VERTEX
8
CUT
10
203.4846
20
50.3498
0
VERTEX
8
CUT
10
202.0203
20
49.8613
0
VERTEX
8
CUT
10
201.5763
20
49.6360
0
VERTEX
8
CUT
10
200.8494
20
49.3641
0
VERTEX
8
CUT
10
201.1083
20
48.4865
0
VERTEX
8
CUT
10
202.6151
20
46.6169
0
VERTEX
8
CUT
10
204.6812
20
44.5804
0
VERTEX
8
CUT
10
206.8498
20
42.9941
0
VERTEX
8
CUT
10
208.4212
20
42.2857
0
VERTEX
8
CUT
10
211.2211
20
41.5653
0
VERTEX
8
CUT
10
212.9630
20
41.4190
0
VERTEX
8
CUT
10
214.9983
20
41.7402
0
VERTEX
8
CUT
10
216.1388
20
42.2459
0
VERTEX
8
CUT
10
216.5963
20
42.4321
0
VERTEX
8
CUT
10
216.6659
20
42.4796
0
VERTEX
8
CUT
10
217.2200
20
42.7253
0
VERTEX
8
CUT
10
218.7465
20
44.1937
0
VERTEX
8
CUT
10
219.0669
20
44.9650
0
VERTEX
8
CUT
10
219.1616
20
45.1223
0
VERTEX
8
CUT
10
219.2381
20
45.3774
0
VERTEX
8
CUT
10
219.5378
20
46.0990
0
VERTEX
8
CUT
10
219.6032
20
47.8304
0
VERTEX
8
CUT
10
219.3231
20
48.5692
0
VERTEX
8
CUT
10
218.6640
20
49.3440
0
VERTEX
8
CUT
10
217.8485
20
49.8931
0
VERTEX
8
CUT
10
217.8347
20
49.9039
0
VERTEX
8
CUT
10
217.8307
20
49.9051
0
VERTEX
8
CUT
10
217.3961
20
50.1977
0
VERTEX
8
CUT
10
216.6794
20
50.2535
0
VERTEX
8
CUT
10
216.6265
20
50.2695
0
VERTEX
8
CUT
10
216.6047
20
50.2593
0
VERTEX
8
CUT
10
216.2867
20
50.2840
0
VERTEX
8
CUT
10
214.7123
20
49.5170
0
VERTEX
8
CUT
10
213.9891
20
49.6288
0
VERTEX
8
CUT
10
213.6288
20
50.1788
0
VERTEX
8
CUT
10
213.5289
20
51.0630
0
VERTEX
8
CUT
10
213.9641
20
52.9515
0
VERTEX
8
CUT
10
214.6996
20
53.9326
0
VERTEX
8
CUT
10
215.7749
20
54.7944
0
VERTEX
8
CUT
10
218.0499
20
55.7474
0
VERTEX
8
CUT
10
220.2516
20
55.8146
0
VERTEX
8
CUT
10
222.6939
20
54.9456
0
VERTEX
8
CUT
10
224.7710
20
53.5314
0
VERTEX
8
CUT
10
226.0678
20
51.8690
0
VERTEX
8
CUT
10
226.2336
20
51.6299
0
VERTEX
8
CUT
10
227.0947
20
49.4033
0
VERTEX
8
CUT
10
227.3693
20
46.7142
0
VERTEX
8
CUT
10
227.0321
20
43.8898
0
VERTEX
8
CUT
10
226.3781
20
42.2863
0
VERTEX
8
CUT
10
225.2661
20
40.7248
0
VERTEX
8
CUT
10
223.0067
20
38.5870
0
VERTEX
8
CUT
10
219.5233
20
36.4533
0
VERTEX
8
CUT
10
217.6331
20
35.7670
0
VERTEX
8
CUT
10
215.6587
20
35.3015
0
VERTEX
8
CUT
10
213.6209
20
35.0822
0
VERTEX
8
CUT
10
211.4843
20
35.1405
0
VERTEX
8
CUT
10
209.2577
20
35.4230
0
VERTEX
8
CUT
10
206.4175
20
36.2596
0
VERTEX
8
CUT
10
204.4466
20
37.1544
0
VERTEX
8
CUT
10
200.6414
20
39.5975
0
VERTEX
8
CUT
10
200.3089
20
39.6135
0
VERTEX
8
CUT
10
200.0686
20
39.2538
0
VERTEX
8
CUT
10
200.0384
20
33.9737
0
VERTEX
8
CUT
10
199.2708
20
30.6681
0
VERTEX
8
CUT
10
197.7962
20
27.5932
0
VERTEX
8
CUT
10
194.9144
20
24.0740
0
VERTEX
8
CUT
10
194.0478
20
23.5800
0
VERTEX
8
CUT
10
191.8392
20
23.6419
0
VERTEX
8
CUT
10
190.2880
20
23.3677
0
VERTEX
8
CUT
10
185.3405
20
21.3623
0
VERTEX
8
CUT
10
183.7478
20
20.8967
0
VERTEX
8
CUT
10
180.4481
20
20.5605
0
VERTEX
8
CUT
10
179.4437
20
20.6249
0
VERTEX
8
CUT
10
178.5543
20
20.9227
0
VERTEX
8
CUT
10
177.4543
20
21.5250
0
VERTEX
8
CUT
10
175.1615
20
23.2692
0
VERTEX
8
CUT
10
173.4976
20
25.4989
0
VERTEX
8
CUT
10
172.5995
20
27.9756
0
VERTEX
8
CUT
10
172.3800
20
30.5349
0
VERTEX
8
CUT
10
172.8636
20
33.0753
0
VERTEX
8
CUT
10
173.9776
20
35.2335
0
VERTEX
8
CUT
10
175.8310
20
36.9301
0
VERTEX
8
CUT
10
178.3250
20
37.9683
0
VERTEX
8
CUT
10
180.4796
20
37.9388
0
VERTEX
8
CUT
10
181.8906
20
37.3518
0
VERTEX
8
CUT
10
182.4960
20
36.5656
0
VERTEX
8
CUT
10
182.3246
20
36.1270
0
VERTEX
8
CUT
10
180.7743
20
34.8869
0
VERTEX
8
CUT
10
180.4806
20
34.2898
0
VERTEX
8
CUT
10
180.5063
20
33.4791
0
VERTEX
8
CUT
10
180.4898
20
33.2519
0
VERTEX
8
CUT
10
180.5173
20
33.1291
0
VERTEX
8
CUT
10
180.5356
20
32.5532
0
VERTEX
8
CUT
10
181.2213
20
31.2236
0
VERTEX
8
CUT
10
182.4160
20
30.2920
0
VERTEX
8
CUT
10
184.1466
20
29.7349
0
VERTEX
8
CUT
10
185.9321
20
29.8228
0
VERTEX
8
CUT
10
187.7321
20
30.5489
0
VERTEX
8
CUT
10
189.4096
20
31.8513
0
VERTEX
8
CUT
10
190.2318
20
32.7913
0
VERTEX
8
CUT
10
190.8978
20
33.8890
0
VERTEX
8
CUT
10
191.6937
20
36.3321
0
VERTEX
8
CUT
10
191.8401
20
39.0293
0
VERTEX
8
CUT
10
191.6259
20
40.5450
0
VERTEX
8
CUT
10
190.9772
20
42.8490
0
VERTEX
8
CUT
10
190.0691
20
44.7001
0
VERTEX
8
CUT
10
188.4806
20
47.1622
0
VERTEX
8
CUT
10
187.4491
20
48.1385
0
VERTEX
8
CUT
10
187.0622
20
48.2104
0
VERTEX
8
CUT
10
186.9931
20
48.2727
0
VERTEX
8
CUT
10
184.3937
20
48.7063
0
VERTEX
8
CUT
10
178.2539
20
49.8472
0
VERTEX
8
CUT
10
172.9874
20
51.3885
0
VERTEX
8
CUT
10
171.9178
20
51.8760
0
VERTEX
8
CUT
10
171.4304
20
52.1054
0
VERTEX
8
CUT
10
170.6487
20
52.4733
0
VERTEX
8
CUT
10
169.6143
20
52.9601
0
VERTEX
8
CUT
10
168.1546
20
53.6471
0
VERTEX
8
CUT
10
166.5078
20
54.6588
0
VERTEX
8
CUT
10
162.9949
20
57.5815
0
VERTEX
8
CUT
10
161.6545
20
59.0745
0
VERTEX
8
CUT
10
160.4177
20
60.6942
0
VERTEX
8
CUT
10
159.7017
20
61.6697
0
VERTEX
8
CUT
10
147.1875
20
80.5012
0
VERTEX
8
CUT
10
144.4326
20
85.6230
0
VERTEX
8
CUT
10
143.7347
20
87.3651
0
VERTEX
8
CUT
10
143.0677
20
89.3644
0
VERTEX
8
CUT
10
142.5484
20
92.2663
0
VERTEX
8
CUT
10
142.5459
20
94.3135
0
VERTEX
8
CUT
10
142.5982
20
94.6384
0
VERTEX
8
CUT
10
142.6593
20
95.0185
0
VERTEX
8
CUT
10
142.7287
20
95.4503
0
VERTEX
8
CUT
10
142.9501
20
96.8274
0
VERTEX
8
CUT
10
143.7278
20
99.2305
0
VERTEX
8
CUT
10
145.0806
20
102.0245
0
VERTEX
8
CUT
10
147.2742
20
105.5586
0
VERTEX
8
CUT
10
148.3210
20
107.0756
0
VERTEX
8
CUT
10
151.5643
20
111.6371
0
VERTEX
8
CUT
10
151.5869
20
111.6688
0
VERTEX
8
CUT
10
151.7395
20
111.8834
0
VERTEX
8
CUT
10
153.6957
20
114.6347
0
VERTEX
8
CUT
10
155.0045
20
116.3760
0
VERTEX
8
CUT
10
155.7680
20
117.7473
0
VERTEX
8
CUT
10
155.7651
20
118.2767
0
VERTEX
8
CUT
10
155.8032
20
118.4228
0
VERTEX
8
CUT
10
155.7618
20
118.8883
0
VERTEX
8
CUT
10
155.7539
20
120.3483
0
VERTEX
8
CUT
10
155.5474
20
121.3010
0
VERTEX
8
CUT
10
155.5457
20
121.3205
0
VERTEX
8
CUT
10
155.3999
20
121.9813
0
VERTEX
8
CUT
10
154.6691
20
125.3523
0
VERTEX
8
CUT
10
153.2779
20
128.5285
0
VERTEX
8
CUT
10
151.7496
20
130.8378
0
VERTEX
8
CUT
10
149.7859
20
133.2010
0
VERTEX
8
CUT
10
147.4517
20
135.5029
0
VERTEX
8
CUT
10
144.7505
20
137.7474
0
VERTEX
8
CUT
10
141.7134
20
139.9027
0
VERTEX
8
CUT
10
138.4218
20
141.9259
0
VERTEX
8
CUT
10
134.7841
20
143.8524
0
VERTEX
8
CUT
10
130.9043
20
145.6711
0
VERTEX
8
CUT
10
126.7218
20
147.3502
0
VERTEX
8
CUT
10
105.0760
20
154.3627
0
VERTEX
8
CUT
10
104.6982
20
154.5004
0
VERTEX
8
CUT
10
104.6864
20
154.5047
0
VERTEX
8
CUT
10
104.6143
20
154.5310
0
VERTEX
8
CUT
10
104.5450
20
154.5563
0
VERTEX
8
CUT
10
97.1839
20
157.2992
0
VERTEX
8
CUT
10
90.9391
20
160.1017
0
VERTEX
8
CUT
10
84.9209
20
163.1866
0
VERTEX
8
CUT
10
79.1736
20
166.6095
0
VERTEX
8
CUT
10
75.7546
20
168.9139
0
VERTEX
8
CUT
10
75.7518
20
168.9054
0
VERTEX
8
CUT
10
75.7053
20
168.7980
0
VERTEX
8
CUT
10
75.6486
20
168.6956
0
VERTEX
8
CUT
10
75.5822
20
168.5992
0
VERTEX
8
CUT
10
75.5067
20
168.5098
0
VERTEX
8
CUT
10
75.4092
20
168.4052
0
VERTEX
8
CUT
10
75.3246
20
168.3230
0
VERTEX
8
CUT
10
75.2324
20
168.2494
0
VERTEX
8
CUT
10
75.2115
20
168.2358
0
VERTEX
8
CUT
10
75.6426
20
167.8550
0
VERTEX
8
CUT
10
76.6453
20
166.6699
0
VERTEX
8
CUT
10
77.2561
20
165.8256
0
VERTEX
8
CUT
10
78.1325
20
164.3606
0
VERTEX
8
CUT
10
78.9942
20
162.3197
0
VERTEX
8
CUT
10
79.6070
20
160.0437
0
VERTEX
8
CUT
10
80.0002
20
157.5939
0
VERTEX
8
CUT
10
80.0961
20
153.3097
0
VERTEX
8
CUT
10
79.7893
20
150.4148
0
VERTEX
8
CUT
10
79.1084
20
147.5671
0
VERTEX
8
CUT
10
77.9771
20
144.4792
0
VERTEX
8
CUT
10
75.0764
20
137.7299
0
VERTEX
8
CUT
10
73.9331
20
134.2419
0
VERTEX
8
CUT
10
73.6584
20
132.8162
0
VERTEX
8
CUT
10
73.7496
20
130.5009
0
VERTEX
8
CUT
10
74.0580
20
129.3756
0
VERTEX
8
CUT
10
75.1745
20
127.3977
0
VERTEX
8
CUT
10
75.9591
20
126.6357
0
VERTEX
8
CUT
10
76.8328
20
126.1116
0
VERTEX
8
CUT
10
77.2570
20
125.9768
0
VERTEX
8
CUT
10
77.3427
20
125.9375
0
VERTEX
8
CUT
10
77.4027
20
125.9305
0
VERTEX
8
CUT
10
77.7450
20
125.8217
0
VERTEX
8
CUT
10
78.6346
20
125.8037
0
VERTEX
8
CUT
10
79.4637
20
126.0130
0
VERTEX
8
CUT
10
81.0571
20
127.2084
0
VERTEX
8
CUT
10
81.5829
20
127.1394
0
VERTEX
8
CUT
10
81.8437
20
126.9993
0
VERTEX
8
CUT
10
81.9658
20
126.7511
0
VERTEX
8
CUT
10
82.5292
20
125.5725
0
VERTEX
8
CUT
10
82.6246
20
123.2598
0
VERTEX
8
CUT
10
81.8059
20
121.0528
0
VERTEX
8
CUT
10
81.1099
20
120.0734
0
VERTEX
8
CUT
10
80.2232
20
119.2811
0
VERTEX
8
CUT
10
79.1520
20
118.6507
0
VERTEX
8
CUT
10
77.7231
20
118.2127
0
VERTEX
8
CUT
10
75.1581
20
118.1117
0
VERTEX
8
CUT
10
72.8371
20
118.6401
0
VERTEX
8
CUT
10
71.4753
20
119.4807
0
VERTEX
8
CUT
10
70.8225
20
120.0705
0
VERTEX
8
CUT
10
70.7445
20
120.1473
0
VERTEX
8
CUT
10
70.7113
20
120.1799
0
VERTEX
8
CUT
10
70.5359
20
120.3523
0
VERTEX
8
CUT
10
70.0488
20
120.8311
0
VERTEX
8
CUT
10
69.2026
20
121.8763
0
VERTEX
8
CUT
10
68.0479
20
124.0921
0
VERTEX
8
CUT
10
67.5359
20
124.1822
0
VERTEX
8
CUT
10
66.7921
20
122.3633
0
VERTEX
8
CUT
10
65.9678
20
118.7317
0
VERTEX
8
CUT
10
65.5443
20
115.5193
0
VERTEX
8
CUT
10
65.3933
20
111.9701
0
VERTEX
8
CUT
10
65.5443
20
108.4650
0
VERTEX
8
CUT
10
65.9650
20
105.3605
0
VERTEX
8
CUT
10
66.8409
20
102.1207
0
VERTEX
8
CUT
10
68.0494
20
99.0925
0
VERTEX
8
CUT
10
69.5589
20
96.3095
0
VERTEX
8
CUT
10
71.3701
20
93.7985
0
VERTEX
8
CUT
10
73.4521
20
91.5909
0
VERTEX
8
CUT
10
75.7660
20
89.7304
0
VERTEX
8
CUT
10
78.3273
20
88.2397
0
VERTEX
8
CUT
10
79.7126
20
87.6802
0
VERTEX
8
CUT
10
79.8719
20
87.6014
0
VERTEX
8
CUT
10
80.0071
20
87.5612
0
VERTEX
8
CUT
10
81.0098
20
87.1562
0
VERTEX
8
CUT
10
83.0247
20
86.6228
0
VERTEX
8
CUT
10
85.5860
20
86.5362
0
VERTEX
8
CUT
10
85.6359
20
86.5325
0
VERTEX
8
CUT
10
85.6511
20
86.5340
0
VERTEX
8
CUT
10
86.6107
20
86.5015
0
VERTEX
8
CUT
10
90.0342
20
86.9269
0
VERTEX
8
CUT
10
93.0822
20
88.3190
0
VERTEX
8
CUT
10
93.8580
20
88.9523
0
VERTEX
8
CUT
10
94.1343
20
89.1296
0
VERTEX
8
CUT
10
95.1132
20
89.9769
0
VERTEX
8
CUT
10
95.5812
20
90.3589
0
VERTEX
8
CUT
10
96.6328
20
91.5654
0
VERTEX
8
CUT
10
97.2419
20
92.5880
0
VERTEX
8
CUT
10
97.6044
20
93.1620
0
VERTEX
8
CUT
10
97.6518
20
93.2762
0
VERTEX
8
CUT
10
98.1969
20
94.1914
0
VERTEX
8
CUT
10
98.9888
20
97.1087
0
VERTEX
8
CUT
10
98.9876
20
99.5572
0
VERTEX
8
CUT
10
98.6895
20
101.3268
0
VERTEX
8
CUT
10
98.1955
20
102.9549
0
VERTEX
8
CUT
10
97.5305
20
104.2260
0
VERTEX
8
CUT
10
96.5514
20
105.5706
0
VERTEX
8
CUT
10
94.7725
20
107.2904
0
VERTEX
8
CUT
10
93.5914
20
108.0764
0
VERTEX
8
CUT
10
92.0511
20
108.6336
0
VERTEX
8
CUT
10
90.7418
20
108.7376
0
VERTEX
8
CUT
10
90.7037
20
108.7470
0
VERTEX
8
CUT
10
90.6272
20
108.7467
0
VERTEX
8
CUT
10
89.4620
20
108.8394
0
VERTEX
8
CUT
10
88.9990
20
108.7405
0
VERTEX
8
CUT
10
88.7759
20
108.7396
0
VERTEX
8
CUT
10
88.2646
20
108.5837
0
VERTEX
8
CUT
10
87.0508
20
108.3245
0
VERTEX
8
CUT
10
85.0708
20
107.1642
0
VERTEX
8
CUT
10
84.2250
20
106.1193
0
VERTEX
8
CUT
10
83.7221
20
105.0615
0
VERTEX
8
CUT
10
83.4231
20
103.9015
0
VERTEX
8
CUT
10
83.4524
20
102.7683
0
VERTEX
8
CUT
10
83.7709
20
101.7270
0
VERTEX
8
CUT
10
84.4060
20
100.8019
0
VERTEX
8
CUT
10
85.1521
20
100.1712
0
VERTEX
8
CUT
10
85.9267
20
99.9281
0
VERTEX
8
CUT
10
86.1268
20
99.9558
0
VERTEX
8
CUT
10
86.2228
20
99.9189
0
VERTEX
8
CUT
10
86.3474
20
99.9863
0
VERTEX
8
CUT
10
86.6894
20
100.0336
0
VERTEX
8
CUT
10
87.8941
20
100.6412
0
VERTEX
8
CUT
10
88.2853
20
100.6514
0
VERTEX
8
CUT
10
89.0123
20
99.6545
0
VERTEX
8
CUT
10
89.0805
20
99.0297
0
VERTEX
8
CUT
10
89.0574
20
98.8690
0
VERTEX
8
CUT
10
88.6831
20
97.7741
0
VERTEX
8
CUT
10
88.2603
20
97.1154
0
VERTEX
8
CUT
10
87.1019
20
96.1635
0
VERTEX
8
CUT
10
85.2484
20
95.6066
0
VERTEX
8
CUT
10
83.9785
20
95.6301
0
VERTEX
8
CUT
10
82.7165
20
95.9166
0
VERTEX
8
CUT
10
81.4906
20
96.4819
0
VERTEX
8
CUT
10
79.3182
20
98.2510
0
VERTEX
8
CUT
10
78.4153
20
99.4409
0
VERTEX
8
CUT
10
77.3917
20
101.6611
0
VERTEX
8
CUT
10
76.9932
20
104.8915
0
VERTEX
8
CUT
10
77.3723
20
107.8656
0
VERTEX
8
CUT
10
77.3760
20
107.8777
0
VERTEX
8
CUT
10
77.3904
20
107.9247
0
VERTEX
8
CUT
10
77.4038
20
107.9686
0
VERTEX
8
CUT
10
77.5450
20
108.4296
0
VERTEX
8
CUT
10
78.3842
20
110.2651
0
VERTEX
8
CUT
10
79.1884
20
111.4756
0
VERTEX
8
CUT
10
81.0760
20
113.5546
0
VERTEX
8
CUT
10
83.3679
20
115.1702
0
VERTEX
8
CUT
10
86.1524
20
116.3600
0
VERTEX
8
CUT
10
88.9812
20
116.8825
0
VERTEX
8
CUT
10
93.3689
20
116.9175
0
VERTEX
8
CUT
10
93.7265
20
117.2665
0
VERTEX
8
CUT
10
89.4417
20
122.3549
0
VERTEX
8
CUT
10
87.4997
20
125.0554
0
VERTEX
8
CUT
10
85.8116
20
127.9067
0
VERTEX
8
CUT
10
84.4278
20
130.8848
0
VERTEX
8
CUT
10
83.2918
20
134.0122
0
VERTEX
8
CUT
10
82.4237
20
137.3285
0
VERTEX
8
CUT
10
81.8425
20
140.7015
0
VERTEX
8
CUT
10
81.5373
20
144.2173
0
VERTEX
8
CUT
10
81.6903
20
150.7600
0
VERTEX
8
CUT
10
82.1537
20
153.7877
0
VERTEX
8
CUT
10
83.1601
20
157.7219
0
VERTEX
8
CUT
10
83.7041
20
159.1856
0
VERTEX
8
CUT
10
84.5206
20
160.1466
0
VERTEX
8
CUT
10
88.2672
20
159.2173
0
VERTEX
8
CUT
10
88.5913
20
159.0221
0
VERTEX
8
CUT
10
88.7226
20
158.6688
0
VERTEX
8
CUT
10
87.0211
20
151.6757
0
VERTEX
8
CUT
10
86.6555
20
146.9570
0
VERTEX
8
CUT
10
87.1432
20
142.2281
0
VERTEX
8
CUT
10
87.6887
20
139.9298
0
VERTEX
8
CUT
10
88.9834
20
136.2866
0
VERTEX
8
CUT
10
90.2934
20
133.6689
0
VERTEX
8
CUT
10
91.8118
20
131.5518
0
VERTEX
8
CUT
10
91.9269
20
131.3464
0
VERTEX
8
CUT
10
92.1268
20
131.1126
0
VERTEX
8
CUT
10
92.8953
20
130.0411
0
VERTEX
8
CUT
10
94.0742
20
128.8353
0
VERTEX
8
CUT
10
95.4986
20
127.1695
0
VERTEX
8
CUT
10
96.3256
20
126.5325
0
VERTEX
8
CUT
10
96.8542
20
125.9919
0
VERTEX
8
CUT
10
100.0551
20
123.5542
0
VERTEX
8
CUT
10
101.6255
20
122.6810
0
VERTEX
8
CUT
10
104.7110
20
121.5831
0
VERTEX
8
CUT
10
106.3782
20
121.3051
0
VERTEX
8
CUT
10
108.1185
20
121.3073
0
VERTEX
8
CUT
10
108.2217
20
121.2900
0
VERTEX
8
CUT
10
108.3301
20
121.3076
0
VERTEX
8
CUT
10
109.6243
20
121.3092
0
VERTEX
8
CUT
10
112.4610
20
121.9290
0
VERTEX
8
CUT
10
115.0073
20
123.1801
0
VERTEX
8
CUT
10
117.0711
20
124.9643
0
VERTEX
8
CUT
10
117.9123
20
126.1166
0
VERTEX
8
CUT
10
118.4671
20
127.2381
0
VERTEX
8
CUT
10
118.4875
20
127.2700
0
VERTEX
8
CUT
10
118.5034
20
127.3116
0
VERTEX
8
CUT
10
118.9876
20
128.2903
0
VERTEX
8
CUT
10
119.5123
20
130.5174
0
VERTEX
8
CUT
10
119.5046
20
132.8307
0
VERTEX
8
CUT
10
119.3474
20
133.4935
0
VERTEX
8
CUT
10
119.3387
20
133.6550
0
VERTEX
8
CUT
10
119.1243
20
134.4343
0
VERTEX
8
CUT
10
119.0050
20
134.9371
0
VERTEX
8
CUT
10
118.0704
20
136.9196
0
VERTEX
8
CUT
10
116.7528
20
138.5298
0
VERTEX
8
CUT
10
115.0659
20
139.7482
0
VERTEX
8
CUT
10
112.9982
20
140.4721
0
VERTEX
8
CUT
10
111.2232
20
140.4487
0
VERTEX
8
CUT
10
109.4158
20
139.7457
0
VERTEX
8
CUT
10
108.1538
20
138.7231
0
VERTEX
8
CUT
10
107.5226
20
137.5616
0
VERTEX
8
CUT
10
107.6860
20
135.7399
0
VERTEX
8
CUT
10
108.4970
20
134.7550
0
VERTEX
8
CUT
10
110.2737
20
133.3858
0
VERTEX
8
CUT
10
110.1377
20
133.1157
0
VERTEX
8
CUT
10
110.1185
20
133.0776
0
VERTEX
8
CUT
10
110.0826
20
133.0061
0
VERTEX
8
CUT
10
110.0520
20
132.9452
0
VERTEX
8
CUT
10
108.8992
20
131.7246
0
VERTEX
8
CUT
10
107.9774
20
131.0839
0
VERTEX
8
CUT
10
106.6682
20
130.8646
0
VERTEX
8
CUT
10
105.4537
20
130.9925
0
VERTEX
8
CUT
10
104.3164
20
131.4226
0
VERTEX
8
CUT
10
102.5403
20
132.8936
0
VERTEX
8
CUT
10
101.3684
20
135.1521
0
VERTEX
8
CUT
10
100.9695
20
137.9741
0
VERTEX
8
CUT
10
101.2746
20
140.5237
0
VERTEX
8
CUT
10
101.8888
20
142.0186
0
VERTEX
8
CUT
10
103.4545
20
144.1369
0
VERTEX
8
CUT
10
105.0074
20
145.5310
0
VERTEX
8
CUT
10
105.1741
20
145.6301
0
VERTEX
8
CUT
10
105.1797
20
145.6334
0
VERTEX
8
CUT
10
105.1805
20
145.6339
0
VERTEX
8
CUT
10
105.2891
20
145.6984
0
VERTEX
8
CUT
10
106.7947
20
146.5264
0
VERTEX
8
CUT
10
109.9837
20
147.2928
0
VERTEX
8
CUT
10
112.4760
20
147.4184
0
VERTEX
8
CUT
10
115.6073
20
147.1045
0
VERTEX
8
CUT
10
118.3989
20
146.1533
0
VERTEX
8
CUT
10
120.1391
20
145.1693
0
VERTEX
8
CUT
10
122.5700
20
143.0120
0
VERTEX
8
CUT
10
124.1118
20
141.2201
0
VERTEX
8
CUT
10
125.5896
20
138.7237
0
VERTEX
8
CUT
10
126.6395
20
135.7277
0
VERTEX
8
CUT
10
127.1269
20
133.7173
0
VERTEX
8
CUT
10
127.3240
20
131.9323
0
VERTEX
8
CUT
10
127.5258
20
131.6636
0
VERTEX
8
CUT
10
127.9289
20
131.6897
0
VERTEX
8
CUT
10
129.3333
20
133.1344
0
VERTEX
8
CUT
10
131.3037
20
134.4576
0
VERTEX
8
CUT
10
132.9299
20
134.9633
0
VERTEX
8
CUT
10
134.9425
20
135.1865
0
VERTEX
8
CUT
10
136.9034
20
135.2170
0
VERTEX
8
CUT
10
137.9267
20
135.0172
0
VERTEX
8
CUT
10
139.6931
20
134.2865
0
VERTEX
8
CUT
10
142.6772
20
132.3827
0
VERTEX
8
CUT
10
144.9902
20
129.6947
0
VERTEX
8
CUT
10
146.5160
20
126.6383
0
VERTEX
8
CUT
10
146.5242
20
126.6143
0
VERTEX
8
CUT
10
147.2180
20
123.6270
0
VERTEX
8
CUT
10
147.2453
20
123.3668
0
VERTEX
8
CUT
10
147.2656
20
123.1743
0
VERTEX
8
CUT
10
147.3224
20
122.6350
0
VERTEX
8
CUT
10
147.3302
20
122.5605
0
VERTEX
8
CUT
10
147.3521
20
120.0156
0
VERTEX
8
CUT
10
147.2511
20
119.1133
0
VERTEX
8
CUT
10
146.5528
20
115.9970
0
VERTEX
8
CUT
10
144.9769
20
112.5989
0
VERTEX
8
CUT
10
142.5528
20
109.5571
0
VERTEX
8
CUT
10
139.6804
20
107.2762
0
VERTEX
8
CUT
10
136.5240
20
105.7031
0
VERTEX
8
CUT
10
133.0737
20
104.8481
0
VERTEX
8
CUT
10
127.5001
20
104.7056
0
VERTEX
8
CUT
10
127.1408
20
104.3315
0
VERTEX
8
CUT
10
127.2433
20
104.2001
0
VERTEX
8
CUT
10
127.4938
20
103.6840
0
VERTEX
8
CUT
10
128.6287
20
102.4250
0
VERTEX
8
CUT
10
130.8077
20
99.6332
0
VERTEX
8
CUT
10
132.4165
20
97.1588
0
VERTEX
8
CUT
10
133.7392
20
94.6027
0
VERTEX
8
CUT
10
135.3279
20
90.2338
0
VERTEX
8
CUT
10
136.3756
20
85.6073
0
VERTEX
8
CUT
10
136.6812
20
82.1771
0
VERTEX
8
CUT
10
136.9540
20
72.8688
0
VERTEX
8
CUT
10
137.3127
20
70.5878
0
VERTEX
8
CUT
10
137.9039
20
68.8619
0
VERTEX
8
CUT
10
138.9210
20
67.3097
0
VERTEX
8
CUT
10
139.6781
20
66.6298
0
VERTEX
8
CUT
10
141.4760
20
65.7794
0
VERTEX
8
CUT
10
141.9983
20
65.7771
0
VERTEX
8
CUT
10
142.1281
20
65.7362
0
VERTEX
8
CUT
10
142.4647
20
65.7750
0
VERTEX
8
CUT
10
143.2418
20
65.7716
0
VERTEX
8
CUT
10
144.0143
20
66.0538
0
VERTEX
8
CUT
10
145.8852
20
67.3931
0
VERTEX
8
CUT
10
146.1456
20
67.4064
0
VERTEX
8
CUT
10
146.1828
20
67.4083
0
VERTEX
8
CUT
10
146.3090
20
67.4148
0
VERTEX
8
CUT
10
146.3163
20
67.4151
0
VERTEX
8
CUT
10
146.5076
20
67.3981
0
VERTEX
8
CUT
10
146.6295
20
67.2288
0
VERTEX
8
CUT
10
146.6855
20
67.1508
0
VERTEX
8
CUT
10
146.7232
20
67.0986
0
VERTEX
8
CUT
10
146.7693
20
67.0344
0
VERTEX
8
CUT
10
147.1978
20
66.2454
0
VERTEX
8
CUT
10
147.5381
20
64.6377
0
VERTEX
8
CUT
10
147.4131
20
63.0026
0
VERTEX
8
CUT
10
147.0545
20
61.9356
0
VERTEX
8
CUT
10
145.9480
20
60.2366
0
VERTEX
8
CUT
10
145.8639
20
60.1337
0
VERTEX
8
CUT
10
144.1192
20
58.7677
0
VERTEX
8
CUT
10
141.8810
20
57.9575
0
VERTEX
8
CUT
10
140.3187
20
57.7752
0
VERTEX
8
CUT
10
138.8121
20
57.8967
0
VERTEX
8
CUT
10
137.2842
20
58.3064
0
VERTEX
8
CUT
10
135.9031
20
58.9496
0
VERTEX
8
CUT
10
134.6273
20
59.8689
0
VERTEX
8
CUT
10
133.5032
20
60.9937
0
VERTEX
8
CUT
10
132.6407
20
62.2848
0
VERTEX
8
CUT
10
131.5752
20
64.5250
0
VERTEX
8
CUT
10
131.1198
20
64.5261
0
VERTEX
8
CUT
10
130.6555
20
63.8461
0
VERTEX
8
CUT
10
128.4662
20
58.7751
0
VERTEX
8
CUT
10
127.2213
20
54.9515
0
VERTEX
8
CUT
10
126.8220
20
53.2921
0
VERTEX
8
CUT
10
126.4009
20
49.9969
0
VERTEX
8
CUT
10
126.4608
20
46.6407
0
VERTEX
8
CUT
10
126.7055
20
44.7688
0
VERTEX
8
CUT
10
129.0245
20
34.3549
0
VERTEX
8
CUT
10
129.1157
20
32.9551
0
VERTEX
8
CUT
10
128.8950
20
29.0093
0
VERTEX
8
CUT
10
127.9738
20
26.2157
0
VERTEX
8
CUT
10
126.4686
20
23.5688
0
VERTEX
8
CUT
10
124.7379
20
21.5523
0
VERTEX
8
CUT
10
124.7336
20
21.5479
0
VERTEX
8
CUT
10
124.7329
20
21.5472
0
VERTEX
8
CUT
10
124.7322
20
21.5464
0
VERTEX
8
CUT
10
124.7310
20
21.5451
0
VERTEX
8
CUT
10
123.8073
20
20.8093
0
VERTEX
8
CUT
10
122.8325
20
20.2625
0
VERTEX
8
CUT
10
120.9320
20
19.8277
0
VERTEX
8
CUT
10
119.8368
20
19.9235
0
VERTEX
8
CUT
10
117.4550
20
20.5424
0
VERTEX
8
CUT
10
112.1252
20
23.0838
0
VERTEX
8
CUT
10
110.7904
20
24.1304
0
VERTEX
8
CUT
10
110.1246
20
25.1192
0
VERTEX
8
CUT
10
110.2592
20
25.3860
0
VERTEX
8
CUT
10
110.7011
20
25.5474
0
VERTEX
8
CUT
10
114.6816
20
26.1259
0
VERTEX
8
CUT
10
116.4459
20
26.6409
0
VERTEX
8
CUT
10
118.0003
20
27.3883
0
VERTEX
8
CUT
10
119.3117
20
28.3192
0
VERTEX
8
CUT
10
120.4432
20
29.5035
0
VERTEX
8
CUT
10
121.3053
20
30.8124
0
VERTEX
8
CUT
10
121.8889
20
32.2658
0
VERTEX
8
CUT
10
122.2312
20
33.9737
0
VERTEX
8
CUT
10
122.1030
20
36.2513
0
VERTEX
8
CUT
10
121.7720
20
37.3466
0
VERTEX
8
CUT
10
120.7194
20
39.1811
0
VERTEX
8
CUT
10
120.0042
20
39.7998
0
VERTEX
8
CUT
10
119.9831
20
39.8268
0
VERTEX
8
CUT
10
119.9368
20
39.8581
0
VERTEX
8
CUT
10
119.1918
20
40.5026
0
VERTEX
8
CUT
10
117.9066
20
41.0085
0
VERTEX
8
CUT
10
116.9044
20
41.0608
0
VERTEX
8
CUT
10
115.8945
20
40.6215
0
VERTEX
8
CUT
10
115.6006
20
40.5640
0
VERTEX
8
CUT
10
115.2537
20
40.2542
0
VERTEX
8
CUT
10
115.1970
20
40.0121
0
VERTEX
8
CUT
10
114.9079
20
39.6504
0
VERTEX
8
CUT
10
115.8746
20
37.9487
0
VERTEX
8
CUT
10
115.9987
20
37.1133
0
VERTEX
8
CUT
10
115.7456
20
36.2926
0
VERTEX
8
CUT
10
114.5211
20
34.9547
0
VERTEX
8
CUT
10
113.7424
20
34.5695
0
VERTEX
8
CUT
10
113.0355
20
34.4696
0
VERTEX
8
CUT
10
111.7074
20
34.5690
0
VERTEX
8
CUT
10
110.3458
20
35.2740
0
VERTEX
8
CUT
10
110.0241
20
35.6175
0
VERTEX
8
CUT
10
109.9729
20
35.6722
0
VERTEX
8
CUT
10
109.9482
20
35.6986
0
VERTEX
8
CUT
10
109.7211
20
35.9411
0
VERTEX
8
CUT
10
109.0685
20
36.8566
0
VERTEX
8
CUT
10
108.6555
20
38.9003
0
VERTEX
8
CUT
10
108.7782
20
40.8615
0
VERTEX
8
CUT
10
109.3079
20
42.3761
0
VERTEX
8
CUT
10
110.2365
20
43.7284
0
VERTEX
8
CUT
10
111.5728
20
44.8701
0
VERTEX
8
CUT
10
112.9030
20
45.6717
0
VERTEX
8
CUT
10
114.2813
20
46.1756
0
VERTEX
8
CUT
10
117.2787
20
46.2671
0
VERTEX
8
CUT
10
120.1063
20
46.1126
0
VERTEX
8
CUT
10
120.4279
20
46.3038
0
VERTEX
8
CUT
10
120.8906
20
53.2916
0
VERTEX
8
CUT
10
121.2960
20
55.3698
0
VERTEX
8
CUT
10
122.6902
20
59.4666
0
VERTEX
8
CUT
10
122.4246
20
59.9248
0
VERTEX
8
CUT
10
109.7821
20
53.3121
0
VERTEX
8
CUT
10
105.5519
20
50.7143
0
VERTEX
8
CUT
10
103.4665
20
48.9935
0
VERTEX
8
CUT
10
102.9706
20
48.4819
0
VERTEX
8
CUT
10
102.8644
20
48.3905
0
VERTEX
8
CUT
10
102.7714
20
48.2764
0
VERTEX
8
CUT
10
101.6259
20
47.0946
0
VERTEX
8
CUT
10
100.2766
20
45.2844
0
VERTEX
8
CUT
10
99.3684
20
43.5265
0
VERTEX
8
CUT
10
98.7889
20
41.5456
0
VERTEX
8
CUT
10
98.5226
20
38.6486
0
VERTEX
8
CUT
10
98.6983
20
36.8776
0
VERTEX
8
CUT
10
99.1135
20
35.1712
0
VERTEX
8
CUT
10
99.7996
20
33.5183
0
VERTEX
8
CUT
10
100.7408
20
31.9342
0
VERTEX
8
CUT
10
101.9587
20
30.4755
0
VERTEX
8
CUT
10
103.3754
20
29.1534
0
VERTEX
8
CUT
10
106.9523
20
26.5158
0
VERTEX
8
CUT
10
107.1780
20
26.1846
0
VERTEX
8
CUT
10
107.1064
20
25.9460
0
VERTEX
8
CUT
10
105.9749
20
25.5960
0
VERTEX
8
CUT
10
103.7748
20
25.6554
0
VERTEX
8
CUT
10
101.6246
20
26.7534
0
VERTEX
8
CUT
10
99.5894
20
27.0669
0
VERTEX
8
CUT
10
97.0333
20
27.8694
0
VERTEX
8
CUT
10
93.1709
20
29.5827
0
VERTEX
8
CUT
10
91.6212
20
30.0729
0
VERTEX
8
CUT
10
90.5814
20
31.2765
0
VERTEX
8
CUT
10
89.8085
20
33.2935
0
VERTEX
8
CUT
10
89.2856
20
35.9200
0
VERTEX
8
CUT
10
89.1345
20
39.3434
0
VERTEX
8
CUT
10
89.6023
20
42.9247
0
VERTEX
8
CUT
10
90.0994
20
44.5934
0
VERTEX
8
CUT
10
91.5940
20
47.6742
0
VERTEX
8
CUT
10
93.8679
20
50.6351
0
VERTEX
8
CUT
10
95.6157
20
52.3511
0
VERTEX
8
CUT
10
97.4666
20
53.7997
0
VERTEX
8
CUT
10
99.5278
20
55.0602
0
VERTEX
8
CUT
10
103.8581
20
57.1953
0
VERTEX
8
CUT
10
104.2327
20
57.6953
0
VERTEX
8
CUT
10
104.0046
20
57.9992
0
VERTEX
8
CUT
10
99.9503
20
59.6609
0
VERTEX
8
CUT
10
97.3562
20
61.3901
0
VERTEX
8
CUT
10
95.1326
20
63.5213
0
VERTEX
8
CUT
10
93.3716
20
65.9927
0
VERTEX
8
CUT
10
92.0743
20
68.7421
0
VERTEX
8
CUT
10
91.3019
20
71.7080
0
VERTEX
8
CUT
10
91.0857
20
74.7980
0
VERTEX
8
CUT
10
91.7218
20
79.3553
0
VERTEX
8
CUT
10
91.6084
20
79.9609
0
VERTEX
8
CUT
10
91.1433
20
80.0952
0
VERTEX
8
CUT
10
88.0602
20
79.6176
0
VERTEX
8
CUT
10
85.4168
20
79.5243
0
VERTEX
8
CUT
10
80.5643
20
79.8913
0
VERTEX
8
CUT
10
75.7997
20
81.4359
0
VERTEX
8
CUT
10
74.2266
20
82.1468
0
VERTEX
8
CUT
10
71.2484
20
83.8986
0
VERTEX
8
CUT
10
69.5066
20
85.2193
0
VERTEX
8
CUT
10
69.0007
20
85.6290
0
VERTEX
8
CUT
10
68.4020
20
86.1139
0
VERTEX
8
CUT
10
68.3356
20
86.1677
0
VERTEX
8
CUT
10
68.1189
20
86.3433
0
VERTEX
8
CUT
10
67.0757
20
87.3440
0
VERTEX
8
CUT
10
66.6378
20
87.8459
0
VERTEX
8
CUT
10
63.9960
20
91.1885
0
VERTEX
8
CUT
10
62.7053
20
93.2501
0
VERTEX
8
CUT
10
60.6972
20
97.5402
0
VERTEX
8
CUT
10
60.6972
20
97.5403
0
VERTEX
8
CUT
10
60.6970
20
97.5408
0
VERTEX
8
CUT
10
60.6957
20
97.5441
0
VERTEX
8
CUT
10
60.6866
20
97.5677
0
VERTEX
8
CUT
10
59.9437
20
99.7985
0
VERTEX
8
CUT
10
59.1809
20
103.0424
0
VERTEX
8
CUT
10
58.8945
20
103.3173
0
VERTEX
8
CUT
10
58.5158
20
103.1983
0
VERTEX
8
CUT
10
57.8454
20
101.9648
0
VERTEX
8
CUT
10
56.5633
20
100.2557
0
VERTEX
8
CUT
10
53.0622
20
96.3867
0
VERTEX
8
CUT
10
50.9621
20
94.5668
0
VERTEX
8
CUT
10
47.4997
20
92.4527
0
VERTEX
8
CUT
10
43.7407
20
91.0642
0
VERTEX
8
CUT
10
40.4869
20
90.5976
0
VERTEX
8
CUT
10
38.0076
20
90.9082
0
VERTEX
8
CUT
10
37.5520
20
91.2149
0
VERTEX
8
CUT
10
37.1308
20
92.4597
0
VERTEX
8
CUT
10
37.1282
20
93.8109
0
VERTEX
8
CUT
10
37.8158
20
96.6161
0
VERTEX
8
CUT
10
43.5380
20
97.4405
0
VERTEX
8
CUT
10
46.8269
20
98.8097
0
VERTEX
8
CUT
10
48.6194
20
99.8865
0
VERTEX
8
CUT
10
50.4138
20
101.3789
0
VERTEX
8
CUT
10
52.1024
20
103.1610
0
VERTEX
8
CUT
10
53.7034
20
105.2473
0
VERTEX
8
CUT
10
55.2188
20
107.5842
0
VERTEX
8
CUT
10
57.7221
20
112.8327
0
VERTEX
8
CUT
10
61.3266
20
123.8860
0
VERTEX
8
CUT
10
63.7440
20
130.1571
0
VERTEX
8
CUT
10
66.4298
20
135.5897
0
VERTEX
8
CUT
10
70.7244
20
142.7078
0
VERTEX
8
CUT
10
70.7258
20
143.1062
0
VERTEX
8
CUT
10
70.3011
20
143.2873
0
VERTEX
8
CUT
10
66.7261
20
141.8895
0
VERTEX
8
CUT
10
65.2950
20
141.5450
0
VERTEX
8
CUT
10
61.6565
20
141.2646
0
VERTEX
8
CUT
10
56.3410
20
141.8455
0
VERTEX
8
CUT
10
52.7140
20
143.1286
0
VERTEX
8
CUT
10
50.3166
20
144.4843
0
VERTEX
8
CUT
10
48.0124
20
146.1770
0
VERTEX
8
CUT
10
45.7715
20
148.2367
0
VERTEX
8
CUT
10
43.6790
20
150.6021
0
VERTEX
8
CUT
10
41.6355
20
153.3574
0
VERTEX
8
CUT
10
39.7377
20
156.3897
0
VERTEX
8
CUT
10
37.6640
20
160.2918
0
VERTEX
8
CUT
10
37.3841
20
160.4653
0
VERTEX
8
CUT
10
36.9523
20
160.1316
0
VERTEX
8
CUT
10
37.1652
20
158.1462
0
VERTEX
8
CUT
10
36.9791
20
154.9998
0
VERTEX
8
CUT
10
36.3022
20
152.0901
0
VERTEX
8
CUT
10
35.3443
20
150.0244
0
VERTEX
8
CUT
10
34.3055
20
148.4355
0
VERTEX
8
CUT
10
33.0973
20
147.1299
0
VERTEX
8
CUT
10
31.6650
20
146.0660
0
VERTEX
8
CUT
10
29.8642
20
145.1612
0
VERTEX
8
CUT
10
28.8964
20
144.8943
0
VERTEX
8
CUT
10
27.2012
20
144.7418
0
VERTEX
8
CUT
10
23.9291
20
144.8943
0
VERTEX
8
CUT
10
22.4897
20
145.3980
0
VERTEX
8
CUT
10
20.8287
20
146.3189
0
VERTEX
8
CUT
10
19.7230
20
147.2592
0
VERTEX
8
CUT
10
19.3501
20
147.9684
0
VERTEX
8
CUT
10
19.5316
20
149.2525
0
VERTEX
8
CUT
10
20.8839
20
152.2538
0
VERTEX
8
CUT
10
25.4056
20
152.3259
0
VERTEX
8
CUT
10
26.8890
20
152.8537
0
VERTEX
8
CUT
10
27.9673
20
153.6343
0
VERTEX
8
CUT
10
28.9194
20
154.6445
0
VERTEX
8
CUT
10
29.7456
20
155.9022
0
VERTEX
8
CUT
10
30.2294
20
157.1547
0
VERTEX
8
CUT
10
30.4425
20
159.9033
0
VERTEX
8
CUT
10
30.0214
20
163.4794
0
VERTEX
8
CUT
10
26.3636
20
176.8008
0
VERTEX
8
CUT
10
25.5042
20
181.7354
0
VERTEX
8
CUT
10
25.1966
20
186.6702
0
VERTEX
8
CUT
10
25.2289
20
196.5276
0
VERTEX
8
CUT
10
27.9842
20
204.1689
0
VERTEX
8
CUT
10
29.4818
20
207.7762
0
VERTEX
8
CUT
10
32.5977
20
214.4364
0
VERTEX
8
CUT
10
34.1260
20
217.2799
0
VERTEX
8
CUT
10
36.8853
20
221.4570
0
VERTEX
8
CUT
10
38.3352
20
222.7704
0
VERTEX
8
CUT
10
39.6160
20
223.0054
0
VERTEX
8
CUT
10
40.6633
20
222.5389
0
VERTEX
8
CUT
10
40.8631
20
222.1690
0
VERTEX
8
CUT
10
40.8038
20
221.7228
0
VERTEX
8
CUT
10
37.6198
20
215.6418
0
VERTEX
8
CUT
10
36.1597
20
212.1162
0
VERTEX
8
CUT
10
34.9765
20
208.3868
0
VERTEX
8
CUT
10
34.1222
20
204.4184
0
VERTEX
8
CUT
10
33.6997
20
199.6144
0
VERTEX
8
CUT
10
33.6997
20
196.0461
0
VERTEX
8
CUT
10
34.1169
20
191.9125
0
VERTEX
8
CUT
10
34.7747
20
189.8059
0
VERTEX
8
CUT
10
35.7037
20
187.8783
0
VERTEX
8
CUT
10
36.8075
20
186.2306
0
VERTEX
8
CUT
10
38.1410
20
184.8363
0
VERTEX
8
CUT
10
39.5134
20
183.8461
0
VERTEX
8
CUT
10
40.9948
20
183.1950
0
VERTEX
8
CUT
10
42.4761
20
182.9326
0
VERTEX
8
CUT
10
43.9888
20
183.0999
0
VERTEX
8
CUT
10
45.1692
20
183.5593
0
VERTEX
8
CUT
10
46.1843
20
184.2704
0
VERTEX
8
CUT
10
47.1044
20
185.5573
0
VERTEX
8
CUT
10
47.4062
20
186.6564
0
VERTEX
8
CUT
10
47.4098
20
187.5900
0
VERTEX
8
CUT
10
47.0758
20
188.4478
0
VERTEX
8
CUT
10
46.9770
20
188.5482
0
VERTEX
8
CUT
10
46.9484
20
188.6602
0
VERTEX
8
CUT
10
46.4234
20
189.2151
0
VERTEX
8
CUT
10
46.1994
20
189.3387
0
VERTEX
8
CUT
10
45.0641
20
190.4928
0
VERTEX
8
CUT
10
44.8440
20
190.8585
0
VERTEX
8
CUT
10
44.9653
20
191.1855
0
VERTEX
8
CUT
10
45.5807
20
191.6643
0
VERTEX
8
CUT
10
45.5811
20
191.6644
0
VERTEX
8
CUT
10
45.5819
20
191.6647
0
VERTEX
8
CUT
10
45.5828
20
191.6651
0
VERTEX
8
CUT
10
45.5843
20
191.6656
0
VERTEX
8
CUT
10
46.9410
20
192.1658
0
VERTEX
8
CUT
10
47.5035
20
192.2364
0
VERTEX
8
CUT
10
48.4866
20
192.1801
0
VERTEX
8
CUT
10
49.2824
20
192.0292
0
VERTEX
8
CUT
10
51.4679
20
190.9308
0
VERTEX
8
CUT
10
53.0938
20
189.3991
0
VERTEX
8
CUT
10
53.8467
20
187.9496
0
VERTEX
8
CUT
10
54.3155
20
186.3878
0
VERTEX
8
CUT
10
54.5027
20
184.7675
0
VERTEX
8
CUT
10
54.4424
20
183.1442
0
VERTEX
8
CUT
10
54.0661
20
181.5239
0
VERTEX
8
CUT
10
53.4542
20
179.9918
0
VERTEX
8
CUT
10
52.5686
20
178.5622
0
VERTEX
8
CUT
10
50.5903
20
176.5883
0
VERTEX
8
CUT
10
48.9721
20
175.5810
0
VERTEX
8
CUT
10
48.0879
20
175.2513
0
VERTEX
8
CUT
10
45.1007
20
174.8196
0
VERTEX
8
CUT
10
41.7948
20
175.1001
0
VERTEX
8
CUT
10
38.9799
20
175.9688
0
VERTEX
8
CUT
10
36.2676
20
177.5732
0
VERTEX
8
CUT
10
35.8807
20
177.4943
0
VERTEX
8
CUT
10
35.7718
20
177.0816
0
VERTEX
8
CUT
10
38.0059
20
172.1698
0
VERTEX
8
CUT
10
41.7479
20
165.1714
0
VERTEX
8
CUT
10
43.6032
20
162.2501
0
VERTEX
8
CUT
10
47.2643
20
157.3706
0
VERTEX
8
CUT
10
51.0249
20
153.7300
0
VERTEX
8
CUT
10
53.0283
20
152.2707
0
VERTEX
8
CUT
10
55.3424
20
150.9309
0
VERTEX
8
CUT
10
58.5667
20
149.7960
0
VERTEX
8
CUT
10
60.9632
20
149.4925
0
VERTEX
8
CUT
10
64.5586
20
149.5215
0
VERTEX
8
CUT
10
65.6121
20
149.7074
0
VERTEX
8
CUT
10
67.1867
20
150.3091
0
VERTEX
8
CUT
10
69.2312
20
151.5566
0
VERTEX
8
CUT
10
70.9000
20
153.2062
0
SEQEND
0
POLYLINE
8
CUT
66
1
70
1
10
0.0
20
0.0
30
0.0
0
VERTEX
8
CUT
10
254.9798
20
92.7286
0
VERTEX
8
CUT
10
255.1933
20
93.3082
0
VERTEX
8
CUT
10
255.1018
20
93.8267
0
VERTEX
8
CUT
10
252.2954
20
94.3453
0
VERTEX
8
CUT
10
252.1734
20
93.9183
0
VERTEX
8
CUT
10
252.6005
20
92.9726
0
VERTEX
8
CUT
10
253.0580
20
92.6676
0
VERTEX
8
CUT
10
254.1257
20
92.3931
0
SEQEND
0
POLYLINE
8
CUT
66
1
70
1
10
0.0
20
0.0
30
0.0
0
VERTEX
8
CUT
10
202.1788
20
71.0820
0
VERTEX
8
CUT
10
202.1831
20
70.6123
0
VERTEX
8
CUT
10
204.4154
20
68.3661
0
VERTEX
8
CUT
10
205.8530
20
67.1985
0
VERTEX
8
CUT
10
207.7780
20
66.6453
0
VERTEX
8
CUT
10
208.7353
20
66.6798
0
VERTEX
8
CUT
10
209.4588
20
67.0163
0
VERTEX
8
CUT
10
209.4419
20
68.0599
0
VERTEX
8
CUT
10
209.2553
20
68.3397
0
VERTEX
8
CUT
10
208.9204
20
68.3699
0
VERTEX
8
CUT
10
207.9354
20
67.9040
0
VERTEX
8
CUT
10
206.5156
20
68.1341
0
VERTEX
8
CUT
10
205.8657
20
68.6119
0
VERTEX
8
CUT
10
204.9962
20
69.7831
0
VERTEX
8
CUT
10
204.0869
20
70.1566
0
VERTEX
8
CUT
10
202.6297
20
71.2142
0
SEQEND
0
POLYLINE
8
CUT
66
1
70
1
10
0.0
20
0.0
30
0.0
0
VERTEX
8
CUT
10
136.9767
20
114.8547
0
VERTEX
8
CUT
10
138.5977
20
116.8882
0
VERTEX
8
CUT
10
139.1641
20
117.9255
0
VERTEX
8
CUT
10
139.7072
20
119.7712
0
VERTEX
8
CUT
10
139.8901
20
121.8378
0
VERTEX
8
CUT
10
139.4443
20
124.7488
0
VERTEX
8
CUT
10
138.7260
20
126.1189
0
VERTEX
8
CUT
10
137.3075
20
127.4937
0
VERTEX
8
CUT
10
135.6183
20
128.0860
0
VERTEX
8
CUT
10
133.7211
20
127.9787
0
VERTEX
8
CUT
10
132.8802
20
127.4265
0
VERTEX
8
CUT
10
132.1400
20
126.3178
0
VERTEX
8
CUT
10
131.9847
20
125.2316
0
VERTEX
8
CUT
10
132.3741
20
123.9238
0
VERTEX
8
CUT
10
132.2657
20
123.3517
0
VERTEX
8
CUT
10
131.5602
20
122.7699
0
VERTEX
8
CUT
10
130.8895
20
122.7206
0
VERTEX
8
CUT
10
129.5876
20
123.1917
0
VERTEX
8
CUT
10
128.9066
20
123.6982
0
VERTEX
8
CUT
10
127.8590
20
124.8995
0
VERTEX
8
CUT
10
127.2813
20
126.1025
0
VERTEX
8
CUT
10
126.8577
20
126.2185
0
VERTEX
8
CUT
10
126.4206
20
125.6859
0
VERTEX
8
CUT
10
124.9193
20
122.7202
0
VERTEX
8
CUT
10
123.8698
20
121.2019
0
VERTEX
8
CUT
10
121.2791
20
118.6026
0
VERTEX
8
CUT
10
118.0778
20
116.6563
0
VERTEX
8
CUT
10
116.3508
20
116.0111
0
VERTEX
8
CUT
10
113.5268
20
115.2898
0
VERTEX
8
CUT
10
113.3477
20
115.0076
0
VERTEX
8
CUT
10
113.4532
20
114.6905
0
VERTEX
8
CUT
10
114.7780
20
114.0590
0
VERTEX
8
CUT
10
119.2507
20
112.2641
0
VERTEX
8
CUT
10
122.8907
20
111.2100
0
VERTEX
8
CUT
10
124.0021
20
111.0769
0
VERTEX
8
CUT
10
124.0765
20
111.0581
0
VERTEX
8
CUT
10
124.1780
20
111.0559
0
VERTEX
8
CUT
10
125.4275
20
110.9063
0
VERTEX
8
CUT
10
128.0894
20
110.8758
0
VERTEX
8
CUT
10
130.4095
20
111.1189
0
VERTEX
8
CUT
10
132.5198
20
111.7340
0
VERTEX
8
CUT
10
134.8711
20
113.0841
0
VERTEX
8
CUT
10
135.5370
20
113.6441
0
VERTEX
8
CUT
10
135.9065
20
113.9071
0
VERTEX
8
CUT
10
136.1655
20
114.1725
0
SEQEND
0
POLYLINE
8
CUT
66
1
70
1
10
0.0
20
0.0
30
0.0
0
VERTEX
8
CUT
10
111.2557
20
89.5867
0
VERTEX
8
CUT
10
113.4795
20
88.2613
0
VERTEX
8
CUT
10
113.5725
20
88.1904
0
VERTEX
8
CUT
10
115.3371
20
86.2179
0
VERTEX
8
CUT
10
116.0270
20
85.0034
0
VERTEX
8
CUT
10
116.5448
20
83.7088
0
VERTEX
8
CUT
10
116.9132
20
81.2650
0
VERTEX
8
CUT
10
116.5441
20
79.0498
0
VERTEX
8
CUT
10
116.1341
20
78.1755
0
VERTEX
8
CUT
10
116.0554
20
78.0211
0
VERTEX
8
CUT
10
115.5445
20
77.3598
0
VERTEX
8
CUT
10
115.2042
20
77.0410
0
VERTEX
8
CUT
10
114.6535
20
76.5998
0
VERTEX
8
CUT
10
112.9595
20
75.9569
0
VERTEX
8
CUT
10
112.3236
20
76.3145
0
VERTEX
8
CUT
10
112.1796
20
76.7350
0
VERTEX
8
CUT
10
112.1811
20
76.7844
0
VERTEX
8
CUT
10
112.1811
20
76.7854
0
VERTEX
8
CUT
10
112.1814
20
76.7946
0
VERTEX
8
CUT
10
112.1846
20
76.9039
0
VERTEX
8
CUT
10
112.4339
20
78.7258
0
VERTEX
8
CUT
10
112.2649
20
79.4868
0
VERTEX
8
CUT
10
112.1653
20
79.6515
0
VERTEX
8
CUT
10
112.0796
20
80.0861
0
VERTEX
8
CUT
10
111.5367
20
80.6917
0
VERTEX
8
CUT
10
110.9091
20
81.7302
0
VERTEX
8
CUT
10
109.5989
20
82.6152
0
VERTEX
8
CUT
10
107.9702
20
83.0279
0
VERTEX
8
CUT
10
106.2037
20
82.9348
0
VERTEX
8
CUT
10
104.4610
20
82.3396
0
VERTEX
8
CUT
10
102.8628
20
81.2689
0
VERTEX
8
CUT
10
101.5715
20
79.8076
0
VERTEX
8
CUT
10
100.5852
20
77.8303
0
VERTEX
8
CUT
10
100.1988
20
75.2013
0
VERTEX
8
CUT
10
100.5518
20
72.4601
0
VERTEX
8
CUT
10
101.2517
20
70.7572
0
VERTEX
8
CUT
10
102.7484
20
68.7301
0
VERTEX
8
CUT
10
104.7282
20
67.0759
0
VERTEX
8
CUT
10
107.0927
20
65.8149
0
VERTEX
8
CUT
10
109.6871
20
65.1171
0
VERTEX
8
CUT
10
111.3308
20
64.9668
0
VERTEX
8
CUT
10
115.8588
20
65.4271
0
VERTEX
8
CUT
10
118.7491
20
66.6547
0
VERTEX
8
CUT
10
120.7426
20
67.9258
0
VERTEX
8
CUT
10
122.4571
20
69.4035
0
VERTEX
8
CUT
10
123.9329
20
71.0869
0
VERTEX
8
CUT
10
125.1691
20
72.9500
0
VERTEX
8
CUT
10
126.1376
20
74.9986
0
VERTEX
8
CUT
10
126.8463
20
77.2165
0
VERTEX
8
CUT
10
127.2660
20
79.5071
0
VERTEX
8
CUT
10
127.4438
20
81.8784
0
VERTEX
8
CUT
10
127.3218
20
84.3998
0
VERTEX
8
CUT
10
126.4117
20
89.1176
0
VERTEX
8
CUT
10
124.9404
20
93.0511
0
VERTEX
8
CUT
10
123.9266
20
94.9862
0
VERTEX
8
CUT
10
121.3817
20
98.6789
0
VERTEX
8
CUT
10
120.8493
20
99.2633
0
VERTEX
8
CUT
10
120.8279
20
99.2930
0
VERTEX
8
CUT
10
118.0976
20
102.2932
0
VERTEX
8
CUT
10
118.0530
20
102.3331
0
VERTEX
8
CUT
10
117.9860
20
102.4067
0
VERTEX
8
CUT
10
115.1100
20
105.0405
0
VERTEX
8
CUT
10
112.1500
20
107.3586
0
VERTEX
8
CUT
10
107.1546
20
110.3858
0
VERTEX
8
CUT
10
102.2895
20
112.7490
0
VERTEX
8
CUT
10
101.9449
20
112.6109
0
VERTEX
8
CUT
10
101.8860
20
112.2103
0
VERTEX
8
CUT
10
103.5584
20
109.9729
0
VERTEX
8
CUT
10
105.2997
20
106.6128
0
VERTEX
8
CUT
10
106.1410
20
104.2466
0
VERTEX
8
CUT
10
106.6647
20
101.7119
0
VERTEX
8
CUT
10
106.8177
20
98.7114
0
VERTEX
8
CUT
10
106.5730
20
95.8215
0
VERTEX
8
CUT
10
106.3275
20
94.7167
0
VERTEX
8
CUT
10
106.2498
20
94.4642
0
VERTEX
8
CUT
10
106.1596
20
94.1709
0
VERTEX
8
CUT
10
106.0632
20
93.8576
0
VERTEX
8
CUT
10
106.0032
20
93.6625
0
VERTEX
8
CUT
10
105.0058
20
90.7713
0
VERTEX
8
CUT
10
105.6249
20
90.4631
0
VERTEX
8
CUT
10
108.4683
20
90.3154
0
VERTEX
8
CUT
10
109.9172
20
90.0266
0
SEQEND
0
POLYLINE
8
CUT
66
1
70
1
10
0.0
20
0.0
30
0.0
0
VERTEX
8
CUT
10
95.1689
20
232.6203
0
VERTEX
8
CUT
10
96.0535
20
230.6680
0
VERTEX
8
CUT
10
96.8161
20
229.8444
0
VERTEX
8
CUT
10
96.6636
20
230.5765
0
VERTEX
8
CUT
10
95.5960
20
232.5593
0
SEQEND
0
POLYLINE
8
CUT
66
1
70
1
10
0.0
20
0.0
30
0.0
0
VERTEX
8
CUT
10
208.2947
20
212.4266
0
VERTEX
8
CUT
10
208.0032
20
212.5650
0
VERTEX
8
CUT
10
207.8992
20
212.6208
0
VERTEX
8
CUT
10
207.8012
20
212.6866
0
VERTEX
8
CUT
10
207.7101
20
212.7617
0
VERTEX
8
CUT
10
207.6268
20
212.8453
0
VERTEX
8
CUT
10
207.5522
20
212.9367
0
VERTEX
8
CUT
10
207.4869
20
213.0351
0
VERTEX
8
CUT
10
207.4316
20
213.1393
0
VERTEX
8
CUT
10
207.3867
20
213.2485
0
VERTEX
8
CUT
10
207.3529
20
213.3616
0
VERTEX
8
CUT
10
207.3303
20
213.4774
0
VERTEX
8
CUT
10
207.3191
20
213.5949
0
VERTEX
8
CUT
10
207.3196
20
213.7129
0
VERTEX
8
CUT
10
207.3317
20
213.8303
0
VERTEX
8
CUT
10
207.3544
20
213.9417
0
VERTEX
8
CUT
10
205.3452
20
214.3321
0
VERTEX
8
CUT
10
201.9505
20
215.5704
0
VERTEX
8
CUT
10
201.5944
20
215.9002
0
VERTEX
8
CUT
10
201.4192
20
216.5567
0
VERTEX
8
CUT
10
201.3591
20
217.8841
0
VERTEX
8
CUT
10
201.5621
20
219.2471
0
VERTEX
8
CUT
10
201.5892
20
219.3506
0
VERTEX
8
CUT
10
202.5254
20
221.3331
0
VERTEX
8
CUT
10
204.0765
20
222.7906
0
VERTEX
8
CUT
10
206.0730
20
223.6135
0
VERTEX
8
CUT
10
208.3559
20
223.6032
0
VERTEX
8
CUT
10
209.2343
20
223.1428
0
VERTEX
8
CUT
10
210.6893
20
221.6596
0
VERTEX
8
CUT
10
210.9165
20
221.3703
0
VERTEX
8
CUT
10
210.9290
20
221.1963
0
VERTEX
8
CUT
10
208.8974
20
219.5504
0
VERTEX
8
CUT
10
208.2636
20
218.6081
0
VERTEX
8
CUT
10
208.1565
20
218.0151
0
VERTEX
8
CUT
10
208.3237
20
216.8912
0
VERTEX
8
CUT
10
208.7738
20
216.0549
0
VERTEX
8
CUT
10
208.7993
20
216.0793
0
VERTEX
8
CUT
10
208.8938
20
216.1530
0
VERTEX
8
CUT
10
208.9597
20
216.1946
0
VERTEX
8
CUT
10
209.2644
20
215.7378
0
VERTEX
8
CUT
10
210.0634
20
215.0038
0
VERTEX
8
CUT
10
210.9736
20
214.5498
0
VERTEX
8
CUT
10
211.6970
20
214.3843
0
VERTEX
8
CUT
10
211.6941
20
214.3675
0
VERTEX
8
CUT
10
211.6771
20
214.3054
0
VERTEX
8
CUT
10
211.7567
20
214.2843
0
VERTEX
8
CUT
10
212.9727
20
214.2258
0
VERTEX
8
CUT
10
214.2047
20
214.4779
0
VERTEX
8
CUT
10
215.5191
20
215.0969
0
VERTEX
8
CUT
10
217.3099
20
216.5718
0
VERTEX
8
CUT
10
218.6692
20
219.0051
0
VERTEX
8
CUT
10
219.0230
20
220.3421
0
VERTEX
8
CUT
10
219.0749
20
221.1571
0
VERTEX
8
CUT
10
219.0848
20
221.1939
0
VERTEX
8
CUT
10
219.2309
20
223.3447
0
VERTEX
8
CUT
10
219.0240
20
225.6343
0
VERTEX
8
CUT
10
218.9788
20
225.8258
0
VERTEX
8
CUT
10
218.8407
20
228.9090
0
VERTEX
8
CUT
10
219.2986
20
230.0224
0
VERTEX
8
CUT
10
220.1049
20
231.2590
0
VERTEX
8
CUT
10
221.1606
20
232.0962
0
VERTEX
8
CUT
10
221.7266
20
232.1567
0
VERTEX
8
CUT
10
222.2053
20
231.8917
0
VERTEX
8
CUT
10
222.5290
20
231.3690
0
VERTEX
8
CUT
10
222.8879
20
229.1845
0
VERTEX
8
CUT
10
223.9815
20
226.9806
0
VERTEX
8
CUT
10
224.3801
20
225.0079
0
VERTEX
8
CUT
10
224.5634
20
222.4338
0
VERTEX
8
CUT
10
224.3154
20
216.1680
0
VERTEX
8
CUT
10
221.6342
20
204.2566
0
VERTEX
8
CUT
10
220.9959
20
198.6187
0
VERTEX
8
CUT
10
221.2702
20
193.5269
0
VERTEX
8
CUT
10
221.7257
20
191.0745
0
VERTEX
8
CUT
10
223.1523
20
186.4384
0
VERTEX
8
CUT
10
225.1554
20
182.2249
0
VERTEX
8
CUT
10
227.8547
20
178.1028
0
VERTEX
8
CUT
10
231.3468
20
173.9140
0
VERTEX
8
CUT
10
236.4252
20
168.8972
0
VERTEX
8
CUT
10
240.6354
20
165.5349
0
VERTEX
8
CUT
10
244.4594
20
163.2439
0
VERTEX
8
CUT
10
248.0805
20
161.8730
0
VERTEX
8
CUT
10
251.6384
20
161.2701
0
VERTEX
8
CUT
10
252.7397
20
161.3091
0
VERTEX
8
CUT
10
253.0381
20
161.2675
0
VERTEX
8
CUT
10
253.5722
20
161.3386
0
VERTEX
8
CUT
10
255.0415
20
161.3907
0
VERTEX
8
CUT
10
258.2926
20
162.2035
0
VERTEX
8
CUT
10
261.3025
20
163.6784
0
VERTEX
8
CUT
10
264.0443
20
165.8473
0
VERTEX
8
CUT
10
265.0871
20
167.0745
0
VERTEX
8
CUT
10
265.0894
20
167.0768
0
VERTEX
8
CUT
10
265.0933
20
167.0819
0
VERTEX
8
CUT
10
266.4294
20
168.6543
0
VERTEX
8
CUT
10
266.8585
20
169.3784
0
VERTEX
8
CUT
10
266.8824
20
169.4096
0
VERTEX
8
CUT
10
266.9532
20
169.5382
0
VERTEX
8
CUT
10
268.4682
20
172.0949
0
VERTEX
8
CUT
10
270.1476
20
176.3543
0
VERTEX
8
CUT
10
270.7230
20
179.0993
0
VERTEX
8
CUT
10
270.9672
20
182.4365
0
VERTEX
8
CUT
10
270.9671
20
187.2048
0
VERTEX
8
CUT
10
270.7577
20
189.9633
0
VERTEX
8
CUT
10
270.2084
20
192.6502
0
VERTEX
8
CUT
10
268.6045
20
197.7944
0
VERTEX
8
CUT
10
266.5318
20
202.5180
0
VERTEX
8
CUT
10
263.9820
20
206.7650
0
VERTEX
8
CUT
10
259.5151
20
212.3150
0
VERTEX
8
CUT
10
259.3474
20
213.0047
0
VERTEX
8
CUT
10
259.7181
20
214.7969
0
VERTEX
8
CUT
10
260.4663
20
216.2736
0
VERTEX
8
CUT
10
261.0263
20
216.8483
0
VERTEX
8
CUT
10
261.4608
20
216.9840
0
VERTEX
8
CUT
10
262.4876
20
216.2883
0
VERTEX
8
CUT
10
267.1330
20
211.1527
0
VERTEX
8
CUT
10
269.5018
20
207.8582
0
VERTEX
8
CUT
10
272.2165
20
202.7948
0
VERTEX
8
CUT
10
274.6663
20
196.7348
0
VERTEX
8
CUT
10
275.7729
20
193.4151
0
VERTEX
8
CUT
10
277.5719
20
186.4936
0
VERTEX
8
CUT
10
278.0638
20
183.0315
0
VERTEX
8
CUT
10
278.1283
20
179.4678
0
VERTEX
8
CUT
10
277.7321
20
175.8714
0
VERTEX
8
CUT
10
276.9053
20
172.3674
0
VERTEX
8
CUT
10
275.7108
20
169.0217
0
VERTEX
8
CUT
10
274.1145
20
165.9136
0
VERTEX
8
CUT
10
272.1954
20
163.0625
0
VERTEX
8
CUT
10
269.9316
20
160.6463
0
VERTEX
8
CUT
10
266.7015
20
158.1276
0
VERTEX
8
CUT
10
265.0341
20
157.1419
0
VERTEX
8
CUT
10
261.5218
20
155.6974
0
VERTEX
8
CUT
10
257.7030
20
154.9032
0
VERTEX
8
CUT
10
252.7091
20
154.4771
0
VERTEX
8
CUT
10
252.3714
20
154.1069
0
VERTEX
8
CUT
10
257.4474
20
144.5719
0
VERTEX
8
CUT
10
258.9617
20
142.1794
0
VERTEX
8
CUT
10
260.6759
20
140.2573
0
VERTEX
8
CUT
10
262.5670
20
138.8161
0
VERTEX
8
CUT
10
263.3292
20
138.4182
0
VERTEX
8
CUT
10
263.6226
20
138.2314
0
VERTEX
8
CUT
10
263.8684
20
138.1368
0
VERTEX
8
CUT
10
264.5748
20
137.7682
0
VERTEX
8
CUT
10
266.6652
20
137.2009
0
VERTEX
8
CUT
10
268.7366
20
137.1182
0
VERTEX
8
CUT
10
270.6541
20
137.4986
0
VERTEX
8
CUT
10
272.4790
20
138.3410
0
VERTEX
8
CUT
10
273.2506
20
139.0103
0
VERTEX
8
CUT
10
273.6371
20
139.2920
0
VERTEX
8
CUT
10
273.7481
20
139.4418
0
VERTEX
8
CUT
10
274.0466
20
139.7008
0
VERTEX
8
CUT
10
274.9125
20
140.8399
0
VERTEX
8
CUT
10
275.6002
20
142.5870
0
VERTEX
8
CUT
10
275.7255
20
143.9907
0
VERTEX
8
CUT
10
275.5634
20
144.9789
0
VERTEX
8
CUT
10
275.5031
20
145.5888
0
VERTEX
8
CUT
10
275.4238
20
145.8303
0
VERTEX
8
CUT
10
275.3131
20
146.5051
0
VERTEX
8
CUT
10
274.5226
20
147.9512
0
VERTEX
8
CUT
10
273.4705
20
149.0388
0
VERTEX
8
CUT
10
272.1814
20
149.7568
0
VERTEX
8
CUT
10
270.8689
20
150.0095
0
VERTEX
8
CUT
10
269.6036
20
149.7919
0
VERTEX
8
CUT
10
268.5588
20
149.1238
0
VERTEX
8
CUT
10
268.3133
20
148.7328
0
VERTEX
8
CUT
10
267.8576
20
148.1449
0
VERTEX
8
CUT
10
267.6761
20
147.7176
0
VERTEX
8
CUT
10
267.4616
20
147.3759
0
VERTEX
8
CUT
10
266.8430
20
146.8242
0
VERTEX
8
CUT
10
266.1412
20
146.7963
0
VERTEX
8
CUT
10
265.4199
20
147.3681
0
VERTEX
8
CUT
10
264.6287
20
148.9003
0
VERTEX
8
CUT
10
264.4711
20
150.0732
0
VERTEX
8
CUT
10
264.5973
20
151.2781
0
VERTEX
8
CUT
10
264.9755
20
152.4764
0
VERTEX
8
CUT
10
265.5749
20
153.5802
0
VERTEX
8
CUT
10
267.4008
20
155.4428
0
VERTEX
8
CUT
10
269.2701
20
156.3114
0
VERTEX
8
CUT
10
270.9137
20
156.5698
0
VERTEX
8
CUT
10
273.6364
20
156.4728
0
VERTEX
8
CUT
10
275.9453
20
155.7954
0
VERTEX
8
CUT
10
277.4916
20
154.7921
0
VERTEX
8
CUT
10
278.9695
20
153.4381
0
VERTEX
8
CUT
10
280.2063
20
151.8267
0
VERTEX
8
CUT
10
281.7500
20
149.0355
0
VERTEX
8
CUT
10
281.4841
20
142.2362
0
VERTEX
8
CUT
10
281.1473
20
138.6761
0
VERTEX
8
CUT
10
280.6230
20
136.3564
0
VERTEX
8
CUT
10
280.0647
20
135.2305
0
VERTEX
8
CUT
10
279.2871
20
134.0960
0
VERTEX
8
CUT
10
277.3189
20
132.2610
0
VERTEX
8
CUT
10
274.8772
20
130.8879
0
VERTEX
8
CUT
10
271.8359
20
129.8810
0
VERTEX
8
CUT
10
271.5831
20
129.6135
0
VERTEX
8
CUT
10
271.6421
20
129.2850
0
VERTEX
8
CUT
10
274.1009
20
126.3636
0
VERTEX
8
CUT
10
275.9465
20
123.1613
0
VERTEX
8
CUT
10
277.0806
20
120.0363
0
VERTEX
8
CUT
10
277.2137
20
117.5935
0
VERTEX
8
CUT
10
275.8934
20
112.3144
0
VERTEX
8
CUT
10
273.4779
20
105.4336
0
VERTEX
8
CUT
10
272.6970
20
104.2076
0
VERTEX
8
CUT
10
271.6318
20
103.1356
0
VERTEX
8
CUT
10
270.4714
20
102.1946
0
VERTEX
8
CUT
10
269.1692
20
101.4668
0
VERTEX
8
CUT
10
266.3926
20
100.5514
0
VERTEX
8
CUT
10
264.8510
20
100.3584
0
VERTEX
8
CUT
10
261.9109
20
100.5732
0
VERTEX
8
CUT
10
260.4364
20
101.0214
0
VERTEX
8
CUT
10
258.2313
20
102.2158
0
VERTEX
8
CUT
10
256.9510
20
103.3962
0
VERTEX
8
CUT
10
255.8594
20
104.8062
0
VERTEX
8
CUT
10
254.6557
20
107.2833
0
VERTEX
8
CUT
10
254.2572
20
108.8459
0
VERTEX
8
CUT
10
254.2207
20
110.3873
0
VERTEX
8
CUT
10
254.5358
20
112.0084
0
VERTEX
8
CUT
10
255.0564
20
113.3277
0
VERTEX
8
CUT
10
255.7581
20
114.5120
0
VERTEX
8
CUT
10
256.5452
20
115.3563
0
VERTEX
8
CUT
10
256.7769
20
115.5634
0
VERTEX
8
CUT
10
257.6182
20
116.2133
0
VERTEX
8
CUT
10
258.6679
20
116.6789
0
VERTEX
8
CUT
10
259.7308
20
116.8973
0
VERTEX
8
CUT
10
259.8799
20
116.9088
0
VERTEX
8
CUT
10
260.9154
20
116.8515
0
VERTEX
8
CUT
10
260.9195
20
116.8508
0
VERTEX
8
CUT
10
260.9204
20
116.8507
0
VERTEX
8
CUT
10
260.9230
20
116.8502
0
VERTEX
8
CUT
10
260.9367
20
116.8480
0
VERTEX
8
CUT
10
262.0393
20
116.4599
0
VERTEX
8
CUT
10
262.9652
20
115.8411
0
VERTEX
8
CUT
10
262.9168
20
115.3165
0
VERTEX
8
CUT
10
261.3379
20
113.5856
0
VERTEX
8
CUT
10
261.1737
20
113.4452
0
VERTEX
8
CUT
10
261.1438
20
113.3728
0
VERTEX
8
CUT
10
260.9750
20
113.1878
0
VERTEX
8
CUT
10
260.8229
20
112.5968
0
VERTEX
8
CUT
10
260.7511
20
112.4233
0
VERTEX
8
CUT
10
260.7534
20
112.3270
0
VERTEX
8
CUT
10
260.6206
20
111.8111
0
VERTEX
8
CUT
10
260.7758
20
111.3731
0
VERTEX
8
CUT
10
260.7771
20
111.3203
0
VERTEX
8
CUT
10
260.9000
20
111.0228
0
VERTEX
8
CUT
10
261.1794
20
110.2348
0
VERTEX
8
CUT
10
261.8450
20
109.3822
0
VERTEX
8
CUT
10
262.6437
20
108.7216
0
VERTEX
8
CUT
10
263.5972
20
108.2944
0
VERTEX
8
CUT
10
264.5306
20
108.1027
0
VERTEX
8
CUT
10
265.5013
20
108.1601
0
VERTEX
8
CUT
10
266.5272
20
108.4243
0
VERTEX
8
CUT
10
267.5577
20
108.9471
0
VERTEX
8
CUT
10
268.0929
20
109.4768
0
VERTEX
8
CUT
10
268.3496
20
109.6642
0
VERTEX
8
CUT
10
268.8028
20
110.1794
0
VERTEX
8
CUT
10
269.4569
20
110.8267
0
VERTEX
8
CUT
10
270.1490
20
112.0359
0
VERTEX
8
CUT
10
270.6089
20
113.5370
0
VERTEX
8
CUT
10
270.6565
20
114.4060
0
VERTEX
8
CUT
10
270.7233
20
114.7464
0
VERTEX
8
CUT
10
270.7814
20
116.3897
0
VERTEX
8
CUT
10
270.7691
20
116.4615
0
VERTEX
8
CUT
10
270.8099
20
117.2073
0
VERTEX
8
CUT
10
269.9843
20
120.7156
0
VERTEX
8
CUT
10
269.1213
20
122.4774
0
VERTEX
8
CUT
10
268.0036
20
124.1937
0
VERTEX
8
CUT
10
266.5567
20
125.9093
0
VERTEX
8
CUT
10
264.8018
20
127.6322
0
VERTEX
8
CUT
10
258.4730
20
133.0845
0
VERTEX
8
CUT
10
258.0381
20
133.0483
0
VERTEX
8
CUT
10
257.7276
20
132.4907
0
VERTEX
8
CUT
10
257.1961
20
129.4029
0
VERTEX
8
CUT
10
256.3526
20
126.7902
0
VERTEX
8
CUT
10
255.3332
20
124.6961
0
VERTEX
8
CUT
10
254.0644
20
122.7218
0
VERTEX
8
CUT
10
252.5794
20
120.9640
0
VERTEX
8
CUT
10
250.9199
20
119.4553
0
VERTEX
8
CUT
10
249.1034
20
118.1587
0
VERTEX
8
CUT
10
247.1269
20
117.1350
0
VERTEX
8
CUT
10
245.0083
20
116.4060
0
VERTEX
8
CUT
10
242.9330
20
116.0373
0
VERTEX
8
CUT
10
238.2608
20
116.0374
0
VERTEX
8
CUT
10
236.1872
20
116.4057
0
VERTEX
8
CUT
10
233.2340
20
117.4604
0
VERTEX
8
CUT
10
230.6085
20
118.9740
0
VERTEX
8
CUT
10
228.3531
20
120.8894
0
VERTEX
8
CUT
10
226.4688
20
123.1754
0
VERTEX
8
CUT
10
225.0469
20
125.7103
0
VERTEX
8
CUT
10
224.1196
20
128.4917
0
VERTEX
8
CUT
10
223.6871
20
131.3977
0
VERTEX
8
CUT
10
223.8413
20
134.3955
0
VERTEX
8
CUT
10
224.1863
20
135.9006
0
VERTEX
8
CUT
10
225.2545
20
138.8006
0
VERTEX
8
CUT
10
226.0458
20
140.1958
0
VERTEX
8
CUT
10
227.8125
20
142.5722
0
VERTEX
8
CUT
10
230.0966
20
144.4766
0
VERTEX
8
CUT
10
230.2256
20
144.8240
0
VERTEX
8
CUT
10
229.9329
20
145.1478
0
VERTEX
8
CUT
10
226.5896
20
145.5052
0
VERTEX
8
CUT
10
224.8113
20
146.0623
0
VERTEX
8
CUT
10
223.2581
20
146.8843
0
VERTEX
8
CUT
10
221.9081
20
148.0780
0
VERTEX
8
CUT
10
220.6353
20
149.8471
0
VERTEX
8
CUT
10
219.8803
20
151.8255
0
VERTEX
8
CUT
10
219.6300
20
153.8270
0
VERTEX
8
CUT
10
219.8474
20
155.7611
0
VERTEX
8
CUT
10
220.5371
20
157.5225
0
VERTEX
8
CUT
10
221.6595
20
158.9628
0
VERTEX
8
CUT
10
223.1667
20
159.9165
0
VERTEX
8
CUT
10
224.9723
20
160.2593
0
VERTEX
8
CUT
10
225.9144
20
160.2000
0
VERTEX
8
CUT
10
226.3386
20
160.0100
0
VERTEX
8
CUT
10
226.6065
20
159.5433
0
VERTEX
8
CUT
10
225.6327
20
157.5934
0
VERTEX
8
CUT
10
226.1935
20
155.8482
0
VERTEX
8
CUT
10
227.3725
20
154.7593
0
VERTEX
8
CUT
10
228.2288
20
154.5632
0
VERTEX
8
CUT
10
228.3937
20
154.5031
0
VERTEX
8
CUT
10
228.4645
20
154.5093
0
VERTEX
8
CUT
10
228.7643
20
154.4406
0
VERTEX
8
CUT
10
229.6289
20
154.5420
0
VERTEX
8
CUT
10
231.1104
20
155.3345
0
VERTEX
8
CUT
10
231.7660
20
156.1783
0
VERTEX
8
CUT
10
231.8105
20
156.2154
0
VERTEX
8
CUT
10
231.8359
20
156.2683
0
VERTEX
8
CUT
10
232.3882
20
156.9791
0
VERTEX
8
CUT
10
232.6440
20
157.9500
0
VERTEX
8
CUT
10
232.6688
20
158.0018
0
VERTEX
8
CUT
10
232.6800
20
158.0869
0
VERTEX
8
CUT
10
232.9583
20
159.1430
0
VERTEX
8
CUT
10
232.9878
20
160.9688
0
VERTEX
8
CUT
10
232.6207
20
163.1035
0
VERTEX
8
CUT
10
231.7432
20
165.1783
0
VERTEX
8
CUT
10
231.0153
20
166.3656
0
VERTEX
8
CUT
10
228.9828
20
169.1882
0
VERTEX
8
CUT
10
223.4881
20
176.0874
0
VERTEX
8
CUT
10
220.6394
20
180.7096
0
VERTEX
8
CUT
10
219.0418
20
184.2372
0
VERTEX
8
CUT
10
217.8134
20
187.8552
0
VERTEX
8
CUT
10
216.9526
20
191.5965
0
VERTEX
8
CUT
10
216.4902
20
195.3697
0
VERTEX
8
CUT
10
216.4679
20
196.7248
0
VERTEX
8
CUT
10
216.5418
20
200.5553
0
VERTEX
8
CUT
10
216.7674
20
203.1408
0
VERTEX
8
CUT
10
217.8293
20
209.0527
0
VERTEX
8
CUT
10
217.4023
20
209.3190
0
VERTEX
8
CUT
10
215.6872
20
208.5884
0
VERTEX
8
CUT
10
214.6759
20
208.6898
0
VERTEX
8
CUT
10
211.3286
20
211.8278
0
VERTEX
8
CUT
10
210.6937
20
212.2560
0
VERTEX
8
CUT
10
210.6779
20
212.2312
0
VERTEX
8
CUT
10
210.6063
20
212.1401
0
VERTEX
8
CUT
10
210.5262
20
212.0563
0
VERTEX
8
CUT
10
210.4383
20
211.9806
0
VERTEX
8
CUT
10
210.3436
20
211.9138
0
VERTEX
8
CUT
10
210.2429
20
211.8564
0
VERTEX
8
CUT
10
210.1371
20
211.8089
0
VERTEX
8
CUT
10
210.0273
20
211.7719
0
VERTEX
8
CUT
10
209.9143
20
211.7457
0
VERTEX
8
CUT
10
209.7994
20
211.7305
0
VERTEX
8
CUT
10
209.6836
20
211.7265
0
VERTEX
8
CUT
10
209.5678
20
211.7337
0
VERTEX
8
CUT
10
209.4534
20
211.7519
0
VERTEX
8
CUT
10
209.3412
20
211.7812
0
VERTEX
8
CUT
10
209.2324
20
211.8211
0
VERTEX
8
CUT
10
209.1279
20
211.8714
0
VERTEX
8
CUT
10
209.0288
20
211.9315
0
SEQEND
0
POLYLINE
8
CUT
66
1
70
1
10
0.0
20
0.0
30
0.0
0
VERTEX
8
CUT
10
241.9576
20
138.0308
0
VERTEX
8
CUT
10
241.1104
20
138.8533
0
VERTEX
8
CUT
10
240.1973
20
139.4155
0
VERTEX
8
CUT
10
238.6895
20
139.6568
0
VERTEX
8
CUT
10
238.5466
20
139.7016
0
VERTEX
8
CUT
10
238.4837
20
139.6897
0
VERTEX
8
CUT
10
238.2308
20
139.7302
0
VERTEX
8
CUT
10
236.3336
20
139.2472
0
VERTEX
8
CUT
10
235.3598
20
138.7342
0
VERTEX
8
CUT
10
233.7443
20
137.2274
0
VERTEX
8
CUT
10
232.8313
20
135.5739
0
VERTEX
8
CUT
10
232.5872
20
134.7085
0
VERTEX
8
CUT
10
232.4051
20
131.8937
0
VERTEX
8
CUT
10
233.0531
20
129.4617
0
VERTEX
8
CUT
10
234.0991
20
127.8472
0
VERTEX
8
CUT
10
235.3242
20
126.5326
0
VERTEX
8
CUT
10
236.7275
20
125.4875
0
VERTEX
8
CUT
10
238.2780
20
124.7128
0
VERTEX
8
CUT
10
239.9472
20
124.2653
0
VERTEX
8
CUT
10
241.7730
20
124.1167
0
VERTEX
8
CUT
10
243.6602
20
124.2718
0
VERTEX
8
CUT
10
246.3455
20
125.1147
0
VERTEX
8
CUT
10
247.8319
20
126.1573
0
VERTEX
8
CUT
10
247.8703
20
126.1803
0
VERTEX
8
CUT
10
247.8949
20
126.2015
0
VERTEX
8
CUT
10
248.1756
20
126.3984
0
VERTEX
8
CUT
10
248.6056
20
126.8120
0
VERTEX
8
CUT
10
249.1300
20
127.2625
0
VERTEX
8
CUT
10
250.2594
20
128.6294
0
VERTEX
8
CUT
10
250.4844
20
129.1043
0
VERTEX
8
CUT
10
251.2116
20
130.0510
0
VERTEX
8
CUT
10
252.2954
20
133.3744
0
VERTEX
8
CUT
10
252.6309
20
135.9962
0
VERTEX
8
CUT
10
252.5704
20
138.7963
0
VERTEX
8
CUT
10
252.1456
20
141.6042
0
VERTEX
8
CUT
10
251.4298
20
144.3778
0
VERTEX
8
CUT
10
250.3738
20
147.1307
0
VERTEX
8
CUT
10
248.9835
20
149.7660
0
VERTEX
8
CUT
10
247.2952
20
152.2528
0
VERTEX
8
CUT
10
245.6131
20
154.0858
0
VERTEX
8
CUT
10
245.3815
20
154.3740
0
VERTEX
8
CUT
10
245.1648
20
154.5743
0
VERTEX
8
CUT
10
243.9502
20
155.8978
0
VERTEX
8
CUT
10
241.5103
20
158.0632
0
VERTEX
8
CUT
10
239.4190
20
159.4040
0
VERTEX
8
CUT
10
239.0796
20
158.9417
0
VERTEX
8
CUT
10
238.8361
20
154.5835
0
VERTEX
8
CUT
10
238.3419
20
152.2405
0
VERTEX
8
CUT
10
236.9658
20
149.6146
0
VERTEX
8
CUT
10
236.7441
20
149.3464
0
VERTEX
8
CUT
10
234.5002
20
146.9505
0
VERTEX
8
CUT
10
234.5165
20
146.6179
0
VERTEX
8
CUT
10
234.7841
20
146.4195
0
VERTEX
8
CUT
10
236.8433
20
146.4561
0
VERTEX
8
CUT
10
238.4332
20
146.3397
0
VERTEX
8
CUT
10
240.3722
20
146.0130
0
VERTEX
8
CUT
10
242.7328
20
144.8964
0
VERTEX
8
CUT
10
243.6439
20
144.1558
0
VERTEX
8
CUT
10
243.7236
20
144.0807
0
VERTEX
8
CUT
10
245.1723
20
142.0940
0
VERTEX
8
CUT
10
245.7311
20
140.6212
0
VERTEX
8
CUT
10
245.9736
20
138.3823
0
VERTEX
8
CUT
10
245.4786
20
136.4378
0
VERTEX
8
CUT
10
244.9854
20
135.7878
0
VERTEX
8
CUT
10
244.9005
20
135.7081
0
VERTEX
8
CUT
10
244.8066
20
135.6200
0
VERTEX
8
CUT
10
244.7578
20
135.5743
0
VERTEX
8
CUT
10
244.5012
20
135.3337
0
VERTEX
8
CUT
10
243.8304
20
135.0427
0
VERTEX
8
CUT
10
243.0865
20
135.4187
0
VERTEX
8
CUT
10
242.7489
20
136.7888
0
VERTEX
8
CUT
10
242.0917
20
137.8204
0
VERTEX
8
CUT
10
242.0582
20
137.9313
0
VERTEX
8
CUT
10
241.9883
20
137.9826
0
SEQEND
0
POLYLINE
8
CUT
66
1
70
1
10
0.0
20
0.0
30
0.0
0
VERTEX
8
CUT
10
225.1636
20
232.8184
0
VERTEX
8
CUT
10
223.1903
20
234.7694
0
VERTEX
8
CUT
10
222.8823
20
234.9681
0
VERTEX
8
CUT
10
222.6809
20
235.1578
0
VERTEX
8
CUT
10
221.7235
20
235.7355
0
VERTEX
8
CUT
10
221.7060
20
235.7266
0
VERTEX
8
CUT
10
221.6904
20
235.7366
0
VERTEX
8
CUT
10
221.4027
20
235.6768
0
VERTEX
8
CUT
10
221.1991
20
235.4672
0
VERTEX
8
CUT
10
220.8506
20
235.2890
0
VERTEX
8
CUT
10
218.0975
20
232.4168
0
VERTEX
8
CUT
10
217.5530
20
232.0851
0
VERTEX
8
CUT
10
217.2513
20
232.1249
0
VERTEX
8
CUT
10
216.5096
20
232.9238
0
VERTEX
8
CUT
10
216.0206
20
234.5500
0
VERTEX
8
CUT
10
213.4919
20
236.2001
0
VERTEX
8
CUT
10
212.5103
20
237.1833
0
VERTEX
8
CUT
10
211.8091
20
238.3904
0
VERTEX
8
CUT
10
211.3681
20
239.6838
0
VERTEX
8
CUT
10
211.2413
20
241.0111
0
VERTEX
8
CUT
10
211.3984
20
242.3480
0
VERTEX
8
CUT
10
211.4346
20
242.4453
0
VERTEX
8
CUT
10
211.4537
20
242.4969
0
VERTEX
8
CUT
10
211.4652
20
242.5277
0
VERTEX
8
CUT
10
211.5646
20
242.7954
0
VERTEX
8
CUT
10
211.9062
20
243.6689
0
VERTEX
8
CUT
10
212.6902
20
244.8160
0
VERTEX
8
CUT
10
212.7383
20
244.8777
0
VERTEX
8
CUT
10
213.8544
20
245.8833
0
VERTEX
8
CUT
10
214.0008
20
245.9611
0
VERTEX
8
CUT
10
214.1925
20
246.0629
0
VERTEX
8
CUT
10
214.7295
20
246.3481
0
VERTEX
8
CUT
10
215.4099
20
246.7095
0
VERTEX
8
CUT
10
217.5642
20
247.2651
0
VERTEX
8
CUT
10
217.5726
20
247.2704
0
VERTEX
8
CUT
10
217.6986
20
247.2997
0
VERTEX
8
CUT
10
218.1218
20
247.5898
0
VERTEX
8
CUT
10
218.1578
20
247.8328
0
VERTEX
8
CUT
10
218.3273
20
248.2199
0
VERTEX
8
CUT
10
218.7582
20
250.6922
0
VERTEX
8
CUT
10
219.4933
20
252.5299
0
VERTEX
8
CUT
10
220.1524
20
253.5451
0
VERTEX
8
CUT
10
220.1579
20
253.5506
0
VERTEX
8
CUT
10
221.6339
20
254.6912
0
VERTEX
8
CUT
10
222.8018
20
255.1506
0
VERTEX
8
CUT
10
224.0019
20
255.3675
0
VERTEX
8
CUT
10
225.2957
20
255.3398
0
VERTEX
8
CUT
10
226.5294
20
255.0417
0
VERTEX
8
CUT
10
227.6661
20
254.4870
0
VERTEX
8
CUT
10
228.7276
20
253.6767
0
VERTEX
8
CUT
10
229.9800
20
252.0033
0
VERTEX
8
CUT
10
230.6587
20
249.6905
0
VERTEX
8
CUT
10
230.6928
20
247.9041
0
VERTEX
8
CUT
10
230.2067
20
245.1896
0
VERTEX
8
CUT
10
230.3401
20
244.6873
0
VERTEX
8
CUT
10
230.3925
20
244.3778
0
VERTEX
8
CUT
10
230.4385
20
244.3168
0
VERTEX
8
CUT
10
230.4857
20
244.1391
0
VERTEX
8
CUT
10
231.0235
20
243.5406
0
VERTEX
8
CUT
10
231.1136
20
243.4210
0
VERTEX
8
CUT
10
231.3684
20
243.1568
0
VERTEX
8
CUT
10
234.7865
20
239.3528
0
VERTEX
8
CUT
10
239.3900
20
234.7496
0
VERTEX
8
CUT
10
243.0142
20
231.4268
0
VERTEX
8
CUT
10
244.0040
20
230.8168
0
VERTEX
8
CUT
10
244.5125
20
230.9280
0
VERTEX
8
CUT
10
244.7219
20
230.9126
0
VERTEX
8
CUT
10
245.4433
20
231.1317
0
VERTEX
8
CUT
10
247.9079
20
231.6711
0
VERTEX
8
CUT
10
250.0188
20
231.6097
0
VERTEX
8
CUT
10
251.0512
20
231.3629
0
VERTEX
8
CUT
10
252.8558
20
230.4999
0
VERTEX
8
CUT
10
252.9129
20
230.4596
0
VERTEX
8
CUT
10
253.1082
20
230.2844
0
VERTEX
8
CUT
10
253.2942
20
230.0446
0
VERTEX
8
CUT
10
253.3596
20
229.9602
0
VERTEX
8
CUT
10
253.4231
20
229.8783
0
VERTEX
8
CUT
10
254.0465
20
229.0744
0
VERTEX
8
CUT
10
254.8320
20
227.7418
0
VERTEX
8
CUT
10
255.3648
20
225.9668
0
VERTEX
8
CUT
10
255.4009
20
224.9055
0
VERTEX
8
CUT
10
254.6895
20
222.4531
0
VERTEX
8
CUT
10
253.7762
20
220.9955
0
VERTEX
8
CUT
10
252.8282
20
220.1763
0
VERTEX
8
CUT
10
251.6887
20
219.5478
0
VERTEX
8
CUT
10
249.9362
20
219.0558
0
VERTEX
8
CUT
10
248.3002
20
218.9109
0
VERTEX
8
CUT
10
247.6971
20
218.6185
0
VERTEX
8
CUT
10
247.3062
20
217.9459
0
VERTEX
8
CUT
10
246.9729
20
215.1493
0
VERTEX
8
CUT
10
246.9439
20
215.0769
0
VERTEX
8
CUT
10
246.9245
20
215.0284
0
VERTEX
8
CUT
10
246.8744
20
214.9032
0
VERTEX
8
CUT
10
246.5382
20
214.0625
0
VERTEX
8
CUT
10
245.5427
20
212.7593
0
VERTEX
8
CUT
10
243.6313
20
211.2187
0
VERTEX
8
CUT
10
241.9613
20
210.8473
0
VERTEX
8
CUT
10
239.1700
20
210.9780
0
VERTEX
8
CUT
10
238.3802
20
211.3390
0
VERTEX
8
CUT
10
237.7658
20
211.6934
0
VERTEX
8
CUT
10
236.5035
20
212.9222
0
VERTEX
8
CUT
10
235.6256
20
214.4301
0
VERTEX
8
CUT
10
235.1291
20
215.7723
0
VERTEX
8
CUT
10
234.9375
20
216.9726
0
VERTEX
8
CUT
10
234.9365
20
217.0213
0
VERTEX
8
CUT
10
234.9351
20
217.0850
0
VERTEX
8
CUT
10
234.9336
20
217.1582
0
VERTEX
8
CUT
10
234.9302
20
217.3187
0
VERTEX
8
CUT
10
235.1049
20
219.0938
0
VERTEX
8
CUT
10
235.2793
20
219.9192
0
VERTEX
8
CUT
10
235.6176
20
221.2608
0
VERTEX
8
CUT
10
235.5967
20
221.4209
0
VERTEX
8
CUT
10
235.6401
20
221.6263
0
VERTEX
8
CUT
10
235.5266
20
221.9559
0
VERTEX
8
CUT
10
235.4913
20
222.2252
0
VERTEX
8
CUT
10
233.1971
20
224.8226
0
VERTEX
8
CUT
10
231.4465
20
226.5810
0
VERTEX
8
CUT
10
231.1865
20
226.8636
0
VERTEX
8
CUT
10
229.8177
20
228.2169
0
VERTEX
8
CUT
10
226.3406
20
231.7094
0
SEQEND
0
ENDSEC
0
EOF
