0
SECTION
2
HEADER
9
$ACADVER
1
AC1009
9
$INSUNITS
70
4
0
ENDSEC
0
SECTION
2
TABLES
0
TABLE
2
LAYER
70
1
0
LAYER
2
CUT
70
0
62
7
6
CONTINUOUS
0
ENDTAB
0
ENDSEC
0
SECTION
2
ENTITIES
0
POLYLINE
8
CUT
66
1
70
1
10
0.0
20
0.0
30
0.0
0
VERTEX
8
CUT
10
0.5794
20
0.7040
0
VERTEX
8
CUT
10
0.3660
20
13.6927
0
VERTEX
8
CUT
10
0.0000
20
150.0147
0
VERTEX
8
CUT
10
0.0305
20
252.4479
0
VERTEX
8
CUT
10
0.1220
20
286.3069
0
VERTEX
8
CUT
10
0.3668
20
299.4502
0
VERTEX
8
CUT
10
5.4173
20
299.7558
0
VERTEX
8
CUT
10
13.1095
20
299.8475
0
VERTEX
8
CUT
10
70.9177
20
299.9695
0
VERTEX
8
CUT
10
247.9327
20
299.9390
0
VERTEX
8
CUT
10
292.1646
20
299.7865
0
VERTEX
8
CUT
10
299.5370
20
299.5462
0
VERTEX
8
CUT
10
299.7865
20
286.4292
0
VERTEX
8
CUT
10
299.9085
20
252.5407
0
VERTEX
8
CUT
10
300.0000
20
149.9851
0
VERTEX
8
CUT
10
299.9085
20
47.4302
0
VERTEX
8
CUT
10
299.7865
20
13.5403
0
VERTEX
8
CUT
10
299.5370
20
0.4233
0
VERTEX
8
CUT
10
292.1646
20
0.1830
0
VERTEX
8
CUT
10
247.9956
20
0.0305
0
VERTEX
8
CUT
10
69.2102
20
0.0000
0
VERTEX
8
CUT
10
12.1975
20
0.1525
0
VERTEX
8
CUT
10
5.0495
20
0.2138
0
VERTEX
8
CUT
10
0.7346
20
0.4958
0
SEQEND
0
POLYLINE
8
CUT
66
1
70
1
10
0.0
20
0.0
30
0.0
0
VERTEX
8
CUT
10
151.7641
20
8.0000
0
VERTEX
8
CUT
10
151.7641
20
14.9692
0
VERTEX
8
CUT
10
151.8135
20
14.9979
0
VERTEX
8
CUT
10
151.8866
20
15.0430
0
VERTEX
8
CUT
10
151.9586
20
15.0899
0
VERTEX
8
CUT
10
152.0295
20
15.1385
0
VERTEX
8
CUT
10
152.0991
20
15.1888
0
VERTEX
8
CUT
10
152.1674
20
15.2408
0
VERTEX
8
CUT
10
152.2345
20
15.2945
0
VERTEX
8
CUT
10
152.3002
20
15.3498
0
VERTEX
8
CUT
10
152.3646
20
15.4067
0
VERTEX
8
CUT
10
152.4275
20
15.4651
0
VERTEX
8
CUT
10
152.4890
20
15.5251
0
VERTEX
8
CUT
10
152.5490
20
15.5866
0
VERTEX
8
CUT
10
152.6075
20
15.6495
0
VERTEX
8
CUT
10
152.6644
20
15.7139
0
VERTEX
8
CUT
10
152.7197
20
15.7796
0
VERTEX
8
CUT
10
152.7733
20
15.8467
0
VERTEX
8
CUT
10
152.8254
20
15.9151
0
VERTEX
8
CUT
10
152.8757
20
15.9847
0
VERTEX
8
CUT
10
152.9243
20
16.0555
0
VERTEX
8
CUT
10
152.9711
20
16.1275
0
VERTEX
8
CUT
10
153.0162
20
16.2006
0
VERTEX
8
CUT
10
153.0594
20
16.2749
0
VERTEX
8
CUT
10
153.1009
20
16.3501
0
VERTEX
8
CUT
10
153.1404
20
16.4264
0
VERTEX
8
CUT
10
153.1781
20
16.5036
0
VERTEX
8
CUT
10
153.2139
20
16.5817
0
VERTEX
8
CUT
10
153.2477
20
16.6606
0
VERTEX
8
CUT
10
153.2796
20
16.7404
0
VERTEX
8
CUT
10
153.3095
20
16.8209
0
VERTEX
8
CUT
10
153.3375
20
16.9021
0
VERTEX
8
CUT
10
153.3634
20
16.9840
0
VERTEX
8
CUT
10
153.3874
20
17.0665
0
VERTEX
8
CUT
10
153.4092
20
17.1496
0
VERTEX
8
CUT
10
153.4291
20
17.2331
0
VERTEX
8
CUT
10
153.4469
20
17.3172
0
VERTEX
8
CUT
10
153.4626
20
17.4016
0
VERTEX
8
CUT
10
153.4763
20
17.4864
0
VERTEX
8
CUT
10
153.4878
20
17.5716
0
VERTEX
8
CUT
10
153.4973
20
17.6569
0
VERTEX
8
CUT
10
153.5047
20
17.7425
0
VERTEX
8
CUT
10
153.5099
20
17.8283
0
VERTEX
8
CUT
10
153.5131
20
17.9141
0
VERTEX
8
CUT
10
153.5141
20
18.0000
0
VERTEX
8
CUT
10
153.5131
20
18.0859
0
VERTEX
8
CUT
10
153.5099
20
18.1717
0
VERTEX
8
CUT
10
153.5047
20
18.2575
0
VERTEX
8
CUT
10
153.4973
20
18.3431
0
VERTEX
8
CUT
10
153.4878
20
18.4284
0
VERTEX
8
CUT
10
153.4763
20
18.5136
0
VERTEX
8
CUT
10
153.4626
20
18.5984
0
VERTEX
8
CUT
10
153.4469
20
18.6828
0
VERTEX
8
CUT
10
153.4291
20
18.7669
0
VERTEX
8
CUT
10
153.4092
20
18.8504
0
VERTEX
8
CUT
10
153.3874
20
18.9335
0
VERTEX
8
CUT
10
153.3634
20
19.0160
0
VERTEX
8
CUT
10
153.3375
20
19.0979
0
VERTEX
8
CUT
10
153.3095
20
19.1791
0
VERTEX
8
CUT
10
153.2796
20
19.2596
0
VERTEX
8
CUT
10
153.2477
20
19.3394
0
VERTEX
8
CUT
10
153.2139
20
19.4183
0
VERTEX
8
CUT
10
153.1781
20
19.4964
0
VERTEX
8
CUT
10
153.1404
20
19.5736
0
VERTEX
8
CUT
10
153.1009
20
19.6499
0
VERTEX
8
CUT
10
153.0594
20
19.7251
0
VERTEX
8
CUT
10
153.0162
20
19.7994
0
VERTEX
8
CUT
10
152.9711
20
19.8725
0
VERTEX
8
CUT
10
152.9243
20
19.9445
0
VERTEX
8
CUT
10
152.8757
20
20.0153
0
VERTEX
8
CUT
10
152.8254
20
20.0849
0
VERTEX
8
CUT
10
152.7733
20
20.1533
0
VERTEX
8
CUT
10
152.7197
20
20.2204
0
VERTEX
8
CUT
10
152.6644
20
20.2861
0
VERTEX
8
CUT
10
152.6075
20
20.3505
0
VERTEX
8
CUT
10
152.5490
20
20.4134
0
VERTEX
8
CUT
10
152.4890
20
20.4749
0
VERTEX
8
CUT
10
152.4275
20
20.5349
0
VERTEX
8
CUT
10
152.3646
20
20.5933
0
VERTEX
8
CUT
10
152.3002
20
20.6502
0
VERTEX
8
CUT
10
152.2345
20
20.7055
0
VERTEX
8
CUT
10
152.1674
20
20.7592
0
VERTEX
8
CUT
10
152.0991
20
20.8112
0
VERTEX
8
CUT
10
152.0295
20
20.8615
0
VERTEX
8
CUT
10
151.9586
20
20.9101
0
VERTEX
8
CUT
10
151.8866
20
20.9570
0
VERTEX
8
CUT
10
151.8135
20
21.0021
0
VERTEX
8
CUT
10
151.7393
20
21.0453
0
VERTEX
8
CUT
10
151.6640
20
21.0867
0
VERTEX
8
CUT
10
151.5878
20
21.1263
0
VERTEX
8
CUT
10
151.5106
20
21.1640
0
VERTEX
8
CUT
10
151.4325
20
21.1997
0
VERTEX
8
CUT
10
151.3535
20
21.2336
0
VERTEX
8
CUT
10
151.2738
20
21.2655
0
VERTEX
8
CUT
10
151.1933
20
21.2954
0
VERTEX
8
CUT
10
151.1120
20
21.3233
0
VERTEX
8
CUT
10
151.0301
20
21.3493
0
VERTEX
8
CUT
10
150.9476
20
21.3732
0
VERTEX
8
CUT
10
150.8646
20
21.3951
0
VERTEX
8
CUT
10
150.7810
20
21.4150
0
VERTEX
8
CUT
10
150.6970
20
21.4327
0
VERTEX
8
CUT
10
150.6125
20
21.4485
0
VERTEX
8
CUT
10
150.5277
20
21.4621
0
VERTEX
8
CUT
10
150.4426
20
21.4737
0
VERTEX
8
CUT
10
150.3572
20
21.4831
0
VERTEX
8
CUT
10
150.2716
20
21.4905
0
VERTEX
8
CUT
10
150.1859
20
21.4958
0
VERTEX
8
CUT
10
150.1000
20
21.4989
0
VERTEX
8
CUT
10
150.0141
20
21.5000
0
VERTEX
8
CUT
10
149.9282
20
21.4989
0
VERTEX
8
CUT
10
149.8424
20
21.4958
0
VERTEX
8
CUT
10
149.7567
20
21.4905
0
VERTEX
8
CUT
10
149.6711
20
21.4831
0
VERTEX
8
CUT
10
149.5857
20
21.4737
0
VERTEX
8
CUT
10
149.5006
20
21.4621
0
VERTEX
8
CUT
10
149.4158
20
21.4485
0
VERTEX
8
CUT
10
149.3313
20
21.4327
0
VERTEX
8
CUT
10
149.2473
20
21.4150
0
VERTEX
8
CUT
10
149.1637
20
21.3951
0
VERTEX
8
CUT
10
149.0806
20
21.3732
0
VERTEX
8
CUT
10
148.9981
20
21.3493
0
VERTEX
8
CUT
10
148.9162
20
21.3233
0
VERTEX
8
CUT
10
148.8350
20
21.2954
0
VERTEX
8
CUT
10
148.7545
20
21.2655
0
VERTEX
8
CUT
10
148.6747
20
21.2336
0
VERTEX
8
CUT
10
148.5958
20
21.1997
0
VERTEX
8
CUT
10
148.5177
20
21.1640
0
VERTEX
8
CUT
10
148.4405
20
21.1263
0
VERTEX
8
CUT
10
148.3642
20
21.0867
0
VERTEX
8
CUT
10
148.2890
20
21.0453
0
VERTEX
8
CUT
10
148.2148
20
21.0021
0
VERTEX
8
CUT
10
148.1416
20
20.9570
0
VERTEX
8
CUT
10
148.0696
20
20.9101
0
VERTEX
8
CUT
10
147.9988
20
20.8615
0
VERTEX
8
CUT
10
147.9292
20
20.8112
0
VERTEX
8
CUT
10
147.8608
20
20.7592
0
VERTEX
8
CUT
10
147.7938
20
20.7055
0
VERTEX
8
CUT
10
147.7280
20
20.6502
0
VERTEX
8
CUT
10
147.6637
20
20.5933
0
VERTEX
8
CUT
10
147.6007
20
20.5349
0
VERTEX
8
CUT
10
147.5393
20
20.4749
0
VERTEX
8
CUT
10
147.4793
20
20.4134
0
VERTEX
8
CUT
10
147.4208
20
20.3505
0
VERTEX
8
CUT
10
147.3639
20
20.2861
0
VERTEX
8
CUT
10
147.3086
20
20.2204
0
VERTEX
8
CUT
10
147.2549
20
20.1533
0
VERTEX
8
CUT
10
147.2029
20
20.0849
0
VERTEX
8
CUT
10
147.1526
20
20.0153
0
VERTEX
8
CUT
10
147.1040
20
19.9445
0
VERTEX
8
CUT
10
147.0571
20
19.8725
0
VERTEX
8
CUT
10
147.0121
20
19.7994
0
VERTEX
8
CUT
10
146.9688
20
19.7251
0
VERTEX
8
CUT
10
146.9274
20
19.6499
0
VERTEX
8
CUT
10
146.8879
20
19.5736
0
VERTEX
8
CUT
10
146.8502
20
19.4964
0
VERTEX
8
CUT
10
146.8144
20
19.4183
0
VERTEX
8
CUT
10
146.7806
20
19.3394
0
VERTEX
8
CUT
10
146.7487
20
19.2596
0
VERTEX
8
CUT
10
146.7187
20
19.1791
0
VERTEX
8
CUT
10
146.6908
20
19.0979
0
VERTEX
8
CUT
10
146.6648
20
19.0160
0
VERTEX
8
CUT
10
146.6409
20
18.9335
0
VERTEX
8
CUT
10
146.6190
20
18.8504
0
VERTEX
8
CUT
10
146.5992
20
18.7669
0
VERTEX
8
CUT
10
146.5814
20
18.6828
0
VERTEX
8
CUT
10
146.5657
20
18.5984
0
VERTEX
8
CUT
10
146.5520
20
18.5136
0
VERTEX
8
CUT
10
146.5405
20
18.4284
0
VERTEX
8
CUT
10
146.5310
20
18.3431
0
VERTEX
8
CUT
10
146.5236
20
18.2575
0
VERTEX
8
CUT
10
146.5184
20
18.1717
0
VERTEX
8
CUT
10
146.5152
20
18.0859
0
VERTEX
8
CUT
10
146.5141
20
18.0000
0
VERTEX
8
CUT
10
146.5152
20
17.9141
0
VERTEX
8
CUT
10
146.5184
20
17.8283
0
VERTEX
8
CUT
10
146.5236
20
17.7425
0
VERTEX
8
CUT
10
146.5310
20
17.6569
0
VERTEX
8
CUT
10
146.5405
20
17.5716
0
VERTEX
8
CUT
10
146.5520
20
17.4864
0
VERTEX
8
CUT
10
146.5657
20
17.4016
0
VERTEX
8
CUT
10
146.5814
20
17.3172
0
VERTEX
8
CUT
10
146.5992
20
17.2331
0
VERTEX
8
CUT
10
146.6190
20
17.1496
0
VERTEX
8
CUT
10
146.6409
20
17.0665
0
VERTEX
8
CUT
10
146.6648
20
16.9840
0
VERTEX
8
CUT
10
146.6908
20
16.9021
0
VERTEX
8
CUT
10
146.7187
20
16.8209
0
VERTEX
8
CUT
10
146.7487
20
16.7404
0
VERTEX
8
CUT
10
146.7806
20
16.6606
0
VERTEX
8
CUT
10
146.8144
20
16.5817
0
VERTEX
8
CUT
10
146.8502
20
16.5036
0
VERTEX
8
CUT
10
146.8879
20
16.4264
0
VERTEX
8
CUT
10
146.9274
20
16.3501
0
VERTEX
8
CUT
10
146.9688
20
16.2749
0
VERTEX
8
CUT
10
147.0121
20
16.2006
0
VERTEX
8
CUT
10
147.0571
20
16.1275
0
VERTEX
8
CUT
10
147.1040
20
16.0555
0
VERTEX
8
CUT
10
147.1526
20
15.9847
0
VERTEX
8
CUT
10
147.2029
20
15.9151
0
VERTEX
8
CUT
10
147.2549
20
15.8467
0
VERTEX
8
CUT
10
147.3086
20
15.7796
0
VERTEX
8
CUT
10
147.3639
20
15.7139
0
VERTEX
8
CUT
10
147.4208
20
15.6495
0
VERTEX
8
CUT
10
147.4793
20
15.5866
0
VERTEX
8
CUT
10
147.5393
20
15.5251
0
VERTEX
8
CUT
10
147.6007
20
15.4651
0
VERTEX
8
CUT
10
147.6637
20
15.4067
0
VERTEX
8
CUT
10
147.7280
20
15.3498
0
VERTEX
8
CUT
10
147.7938
20
15.2945
0
VERTEX
8
CUT
10
147.8608
20
15.2408
0
VERTEX
8
CUT
10
147.9292
20
15.1888
0
VERTEX
8
CUT
10
147.9988
20
15.1385
0
VERTEX
8
CUT
10
148.0696
20
15.0899
0
VERTEX
8
CUT
10
148.1416
20
15.0430
0
VERTEX
8
CUT
10
148.2148
20
14.9979
0
VERTEX
8
CUT
10
148.2641
20
14.9692
0
VERTEX
8
CUT
10
148.2641
20
8.0000
0
VERTEX
8
CUT
10
148.2662
20
7.9141
0
VERTEX
8
CUT
10
148.2726
20
7.8285
0
VERTEX
8
CUT
10
148.2831
20
7.7432
0
VERTEX
8
CUT
10
148.2978
20
7.6586
0
VERTEX
8
CUT
10
148.3166
20
7.5748
0
VERTEX
8
CUT
10
148.3395
20
7.4920
0
VERTEX
8
CUT
10
148.3664
20
7.4104
0
VERTEX
8
CUT
10
148.3973
20
7.3303
0
VERTEX
8
CUT
10
148.4322
20
7.2518
0
VERTEX
8
CUT
10
148.4708
20
7.1751
0
VERTEX
8
CUT
10
148.5131
20
7.1003
0
VERTEX
8
CUT
10
148.5591
20
7.0278
0
VERTEX
8
CUT
10
148.6085
20
6.9575
0
VERTEX
8
CUT
10
148.6614
20
6.8898
0
VERTEX
8
CUT
10
148.7175
20
6.8248
0
VERTEX
8
CUT
10
148.7767
20
6.7626
0
VERTEX
8
CUT
10
148.8389
20
6.7033
0
VERTEX
8
CUT
10
148.9039
20
6.6472
0
VERTEX
8
CUT
10
148.9717
20
6.5944
0
VERTEX
8
CUT
10
149.0419
20
6.5449
0
VERTEX
8
CUT
10
149.1145
20
6.4990
0
VERTEX
8
CUT
10
149.1892
20
6.4566
0
VERTEX
8
CUT
10
149.2659
20
6.4180
0
VERTEX
8
CUT
10
149.3444
20
6.3832
0
VERTEX
8
CUT
10
149.4246
20
6.3523
0
VERTEX
8
CUT
10
149.5061
20
6.3254
0
VERTEX
8
CUT
10
149.5889
20
6.3024
0
VERTEX
8
CUT
10
149.6727
20
6.2836
0
VERTEX
8
CUT
10
149.7574
20
6.2689
0
VERTEX
8
CUT
10
149.8426
20
6.2584
0
VERTEX
8
CUT
10
149.9283
20
6.2521
0
VERTEX
8
CUT
10
150.0141
20
6.2500
0
VERTEX
8
CUT
10
150.1000
20
6.2521
0
VERTEX
8
CUT
10
150.1857
20
6.2584
0
VERTEX
8
CUT
10
150.2709
20
6.2689
0
VERTEX
8
CUT
10
150.3555
20
6.2836
0
VERTEX
8
CUT
10
150.4394
20
6.3024
0
VERTEX
8
CUT
10
150.5221
20
6.3254
0
VERTEX
8
CUT
10
150.6037
20
6.3523
0
VERTEX
8
CUT
10
150.6838
20
6.3832
0
VERTEX
8
CUT
10
150.7624
20
6.4180
0
VERTEX
8
CUT
10
150.8391
20
6.4566
0
VERTEX
8
CUT
10
150.9138
20
6.4990
0
VERTEX
8
CUT
10
150.9864
20
6.5449
0
VERTEX
8
CUT
10
151.0566
20
6.5944
0
VERTEX
8
CUT
10
151.1243
20
6.6472
0
VERTEX
8
CUT
10
151.1894
20
6.7033
0
VERTEX
8
CUT
10
151.2516
20
6.7626
0
VERTEX
8
CUT
10
151.3108
20
6.8248
0
VERTEX
8
CUT
10
151.3669
20
6.8898
0
VERTEX
8
CUT
10
151.4197
20
6.9575
0
VERTEX
8
CUT
10
151.4692
20
7.0278
0
VERTEX
8
CUT
10
151.5152
20
7.1003
0
VERTEX
8
CUT
10
151.5575
20
7.1751
0
VERTEX
8
CUT
10
151.5961
20
7.2518
0
VERTEX
8
CUT
10
151.6309
20
7.3303
0
VERTEX
8
CUT
10
151.6618
20
7.4104
0
VERTEX
8
CUT
10
151.6888
20
7.4920
0
VERTEX
8
CUT
10
151.7117
20
7.5748
0
VERTEX
8
CUT
10
151.7305
20
7.6586
0
VERTEX
8
CUT
10
151.7452
20
7.7432
0
VERTEX
8
CUT
10
151.7557
20
7.8285
0
VERTEX
8
CUT
10
151.7620
20
7.9141
0
SEQEND
0
ENDSEC
0
EOF
