0
SECTION
2
HEADER
9
$ACADVER
1
AC1009
9
$INSUNITS
70
4
0
ENDSEC
0
SECTION
2
TABLES
0
TABLE
2
LAYER
70
1
0
LAYER
2
CUT
70
0
62
7
6
CONTINUOUS
0
ENDTAB
0
ENDSEC
0
SECTION
2
ENTITIES
0
POLYLINE
8
CUT
66
1
70
1
10
0.0
20
0.0
30
0.0
0
VERTEX
8
CUT
10
244.9471
20
108.0136
0
VERTEX
8
CUT
10
244.9042
20
107.9050
0
VERTEX
8
CUT
10
244.8509
20
107.8011
0
VERTEX
8
CUT
10
244.7878
20
107.7028
0
VERTEX
8
CUT
10
244.5521
20
107.3723
0
VERTEX
8
CUT
10
244.4788
20
107.2795
0
VERTEX
8
CUT
10
244.3967
20
107.1944
0
VERTEX
8
CUT
10
244.3066
20
107.1178
0
VERTEX
8
CUT
10
244.2095
20
107.0505
0
VERTEX
8
CUT
10
244.1061
20
106.9930
0
VERTEX
8
CUT
10
243.9977
20
106.9460
0
VERTEX
8
CUT
10
243.8851
20
106.9098
0
VERTEX
8
CUT
10
243.7695
20
106.8849
0
VERTEX
8
CUT
10
243.6520
20
106.8716
0
VERTEX
8
CUT
10
243.5338
20
106.8698
0
VERTEX
8
CUT
10
241.4850
20
106.9403
0
VERTEX
8
CUT
10
241.3650
20
106.9505
0
VERTEX
8
CUT
10
241.2465
20
106.9727
0
VERTEX
8
CUT
10
238.7553
20
107.5700
0
VERTEX
8
CUT
10
238.6155
20
107.7683
0
VERTEX
8
CUT
10
235.3986
20
108.2903
0
VERTEX
8
CUT
10
234.6141
20
108.2976
0
VERTEX
8
CUT
10
234.4237
20
108.0965
0
VERTEX
8
CUT
10
229.4071
20
108.0959
0
VERTEX
8
CUT
10
223.8310
20
107.6244
0
VERTEX
8
CUT
10
223.2933
20
107.4972
0
VERTEX
8
CUT
10
223.1755
20
107.4754
0
VERTEX
8
CUT
10
223.0561
20
107.4655
0
VERTEX
8
CUT
10
222.9363
20
107.4676
0
VERTEX
8
CUT
10
222.8173
20
107.4816
0
VERTEX
8
CUT
10
222.7003
20
107.5074
0
VERTEX
8
CUT
10
222.5864
20
107.5447
0
VERTEX
8
CUT
10
222.4769
20
107.5933
0
VERTEX
8
CUT
10
222.3727
20
107.6525
0
VERTEX
8
CUT
10
222.2749
20
107.7217
0
VERTEX
8
CUT
10
222.1846
20
107.8004
0
VERTEX
8
CUT
10
222.1025
20
107.8878
0
VERTEX
8
CUT
10
222.0296
20
107.9828
0
VERTEX
8
CUT
10
221.9665
20
108.0847
0
VERTEX
8
CUT
10
221.9138
20
108.1923
0
VERTEX
8
CUT
10
221.8722
20
108.3047
0
VERTEX
8
CUT
10
221.8503
20
108.3887
0
VERTEX
8
CUT
10
220.9204
20
108.1686
0
VERTEX
8
CUT
10
217.6299
20
106.5872
0
VERTEX
8
CUT
10
212.8875
20
106.2761
0
VERTEX
8
CUT
10
212.3068
20
105.9905
0
VERTEX
8
CUT
10
212.1553
20
105.4430
0
VERTEX
8
CUT
10
212.3780
20
104.7204
0
VERTEX
8
CUT
10
212.7185
20
104.3737
0
VERTEX
8
CUT
10
212.7621
20
104.2591
0
VERTEX
8
CUT
10
212.9510
20
104.1370
0
VERTEX
8
CUT
10
212.9538
20
104.1341
0
VERTEX
8
CUT
10
212.9579
20
104.1325
0
VERTEX
8
CUT
10
213.7993
20
103.5880
0
VERTEX
8
CUT
10
214.7754
20
103.4660
0
VERTEX
8
CUT
10
216.0566
20
103.7101
0
VERTEX
8
CUT
10
220.5143
20
105.5295
0
VERTEX
8
CUT
10
223.6969
20
106.6905
0
VERTEX
8
CUT
10
226.8320
20
107.3961
0
VERTEX
8
CUT
10
231.5331
20
107.7936
0
VERTEX
8
CUT
10
234.8314
20
107.5134
0
VERTEX
8
CUT
10
235.5752
20
107.4103
0
VERTEX
8
CUT
10
239.2168
20
106.7532
0
VERTEX
8
CUT
10
245.2348
20
104.9168
0
VERTEX
8
CUT
10
245.6734
20
104.7350
0
VERTEX
8
CUT
10
247.0758
20
104.0357
0
VERTEX
8
CUT
10
249.0122
20
102.7537
0
VERTEX
8
CUT
10
249.4074
20
102.3856
0
VERTEX
8
CUT
10
249.5125
20
102.2878
0
VERTEX
8
CUT
10
249.7410
20
102.0751
0
VERTEX
8
CUT
10
249.9690
20
101.8628
0
VERTEX
8
CUT
10
250.1862
20
101.4000
0
VERTEX
8
CUT
10
249.8221
20
100.7013
0
VERTEX
8
CUT
10
248.2642
20
100.1656
0
VERTEX
8
CUT
10
248.5701
20
98.8785
0
VERTEX
8
CUT
10
248.3741
20
98.2069
0
VERTEX
8
CUT
10
245.9591
20
94.7737
0
VERTEX
8
CUT
10
245.3025
20
93.4086
0
VERTEX
8
CUT
10
244.9030
20
91.9931
0
VERTEX
8
CUT
10
244.8691
20
91.5003
0
VERTEX
8
CUT
10
244.8498
20
91.4450
0
VERTEX
8
CUT
10
244.8495
20
91.2158
0
VERTEX
8
CUT
10
244.7876
20
90.3171
0
VERTEX
8
CUT
10
245.3726
20
88.8811
0
VERTEX
8
CUT
10
246.5172
20
87.6037
0
VERTEX
8
CUT
10
247.4883
20
87.1770
0
VERTEX
8
CUT
10
250.5523
20
89.5409
0
VERTEX
8
CUT
10
251.1127
20
89.7649
0
VERTEX
8
CUT
10
251.8479
20
89.7621
0
VERTEX
8
CUT
10
258.0722
20
88.7152
0
VERTEX
8
CUT
10
258.7206
20
88.1761
0
VERTEX
8
CUT
10
258.7172
20
87.6606
0
VERTEX
8
CUT
10
258.4292
20
87.1585
0
VERTEX
8
CUT
10
255.8968
20
85.3806
0
VERTEX
8
CUT
10
254.4978
20
84.5814
0
VERTEX
8
CUT
10
248.9741
20
81.5956
0
VERTEX
8
CUT
10
248.7271
20
81.4726
0
VERTEX
8
CUT
10
231.1304
20
73.4160
0
VERTEX
8
CUT
10
230.8184
20
73.2518
0
VERTEX
8
CUT
10
229.8229
20
72.8079
0
VERTEX
8
CUT
10
228.9833
20
72.3267
0
VERTEX
8
CUT
10
228.9792
20
72.3249
0
VERTEX
8
CUT
10
228.2490
20
71.9059
0
VERTEX
8
CUT
10
228.1040
20
71.8228
0
VERTEX
8
CUT
10
226.4363
20
70.9449
0
VERTEX
8
CUT
10
226.1449
20
70.7000
0
VERTEX
8
CUT
10
226.1379
20
70.6960
0
VERTEX
8
CUT
10
226.0679
20
70.6353
0
VERTEX
8
CUT
10
225.6138
20
70.2538
0
VERTEX
8
CUT
10
225.5980
20
70.2445
0
VERTEX
8
CUT
10
225.4370
20
70.1074
0
VERTEX
8
CUT
10
224.9557
20
69.7594
0
VERTEX
8
CUT
10
224.5955
20
69.3983
0
VERTEX
8
CUT
10
224.2081
20
69.0728
0
VERTEX
8
CUT
10
224.0099
20
68.8112
0
VERTEX
8
CUT
10
223.7265
20
68.5270
0
VERTEX
8
CUT
10
223.3299
20
67.9136
0
VERTEX
8
CUT
10
222.8466
20
67.2756
0
VERTEX
8
CUT
10
222.2299
20
65.7688
0
VERTEX
8
CUT
10
221.3136
20
61.9294
0
VERTEX
8
CUT
10
220.9326
20
61.0327
0
VERTEX
8
CUT
10
220.0302
20
59.9440
0
VERTEX
8
CUT
10
210.5654
20
53.6044
0
VERTEX
8
CUT
10
209.9804
20
53.2829
0
VERTEX
8
CUT
10
207.8678
20
52.2445
0
VERTEX
8
CUT
10
206.7867
20
51.7910
0
VERTEX
8
CUT
10
206.7841
20
51.7899
0
VERTEX
8
CUT
10
206.7201
20
51.7631
0
VERTEX
8
CUT
10
205.5894
20
51.2889
0
VERTEX
8
CUT
10
204.3549
20
50.8328
0
VERTEX
8
CUT
10
199.5422
20
49.5750
0
VERTEX
8
CUT
10
195.9375
20
49.0411
0
VERTEX
8
CUT
10
192.7187
20
48.7516
0
VERTEX
8
CUT
10
190.3240
20
48.6689
0
VERTEX
8
CUT
10
189.5852
20
48.6768
0
VERTEX
8
CUT
10
189.5374
20
48.6773
0
VERTEX
8
CUT
10
189.2500
20
48.6803
0
VERTEX
8
CUT
10
187.9318
20
48.6944
0
VERTEX
8
CUT
10
184.2189
20
48.9358
0
VERTEX
8
CUT
10
183.8305
20
48.9866
0
VERTEX
8
CUT
10
183.6647
20
49.0083
0
VERTEX
8
CUT
10
183.6612
20
49.0088
0
VERTEX
8
CUT
10
183.3435
20
49.0504
0
VERTEX
8
CUT
10
177.1885
20
50.2205
0
VERTEX
8
CUT
10
171.4532
20
52.1729
0
VERTEX
8
CUT
10
169.1579
20
53.2931
0
VERTEX
8
CUT
10
168.8134
20
53.4726
0
VERTEX
8
CUT
10
166.5989
20
54.8421
0
VERTEX
8
CUT
10
164.5076
20
56.4388
0
VERTEX
8
CUT
10
162.6281
20
58.2249
0
VERTEX
8
CUT
10
159.4510
20
62.3500
0
VERTEX
8
CUT
10
155.7963
20
67.8172
0
VERTEX
8
CUT
10
154.5064
20
69.7974
0
VERTEX
8
CUT
10
152.8871
20
72.1691
0
VERTEX
8
CUT
10
148.1945
20
79.1890
0
VERTEX
8
CUT
10
145.3104
20
84.0380
0
VERTEX
8
CUT
10
143.6140
20
87.9454
0
VERTEX
8
CUT
10
143.6027
20
87.9775
0
VERTEX
8
CUT
10
143.5987
20
87.9889
0
VERTEX
8
CUT
10
143.5964
20
87.9953
0
VERTEX
8
CUT
10
143.5947
20
88.0000
0
VERTEX
8
CUT
10
142.8538
20
91.5622
0
VERTEX
8
CUT
10
142.8548
20
95.2423
0
VERTEX
8
CUT
10
143.6104
20
98.5852
0
VERTEX
8
CUT
10
143.6521
20
98.7028
0
VERTEX
8
CUT
10
143.6677
20
98.7470
0
VERTEX
8
CUT
10
143.6819
20
98.7871
0
VERTEX
8
CUT
10
143.7736
20
99.0465
0
VERTEX
8
CUT
10
144.4517
20
100.6302
0
VERTEX
8
CUT
10
144.5656
20
100.8529
0
VERTEX
8
CUT
10
147.2513
20
105.3871
0
VERTEX
8
CUT
10
151.1836
20
111.0310
0
VERTEX
8
CUT
10
151.9646
20
112.1161
0
VERTEX
8
CUT
10
156.6545
20
118.0960
0
VERTEX
8
CUT
10
156.9893
20
118.5134
0
VERTEX
8
CUT
10
157.9807
20
119.5927
0
VERTEX
8
CUT
10
160.0847
20
121.7632
0
VERTEX
8
CUT
10
162.3710
20
123.7790
0
VERTEX
8
CUT
10
162.5638
20
123.9326
0
VERTEX
8
CUT
10
162.6713
20
124.0183
0
VERTEX
8
CUT
10
162.7959
20
124.1176
0
VERTEX
8
CUT
10
163.1315
20
124.3850
0
VERTEX
8
CUT
10
165.3251
20
125.9825
0
VERTEX
8
CUT
10
166.1601
20
126.4596
0
VERTEX
8
CUT
10
167.6571
20
127.2796
0
VERTEX
8
CUT
10
167.8098
20
127.3633
0
VERTEX
8
CUT
10
168.0944
20
127.5192
0
VERTEX
8
CUT
10
168.2044
20
127.5794
0
VERTEX
8
CUT
10
169.7471
20
128.2390
0
VERTEX
8
CUT
10
171.9069
20
128.8934
0
VERTEX
8
CUT
10
172.9199
20
129.1435
0
VERTEX
8
CUT
10
175.3370
20
129.3586
0
VERTEX
8
CUT
10
177.7808
20
129.1429
0
VERTEX
8
CUT
10
180.9651
20
128.0941
0
VERTEX
8
CUT
10
181.0480
20
128.0600
0
VERTEX
8
CUT
10
181.0559
20
128.0568
0
VERTEX
8
CUT
10
181.0651
20
128.0530
0
VERTEX
8
CUT
10
181.0780
20
128.0477
0
VERTEX
8
CUT
10
181.7932
20
127.5429
0
VERTEX
8
CUT
10
183.4532
20
126.2037
0
VERTEX
8
CUT
10
185.6791
20
123.8294
0
VERTEX
8
CUT
10
187.0298
20
121.6605
0
VERTEX
8
CUT
10
188.4110
20
117.8797
0
VERTEX
8
CUT
10
189.2327
20
113.0487
0
VERTEX
8
CUT
10
189.4463
20
112.7993
0
VERTEX
8
CUT
10
189.8078
20
112.8196
0
VERTEX
8
CUT
10
189.9964
20
113.1287
0
VERTEX
8
CUT
10
189.9471
20
114.6623
0
VERTEX
8
CUT
10
189.6121
20
117.3585
0
VERTEX
8
CUT
10
189.0335
20
119.9331
0
VERTEX
8
CUT
10
187.1819
20
124.4140
0
VERTEX
8
CUT
10
185.8567
20
126.3877
0
VERTEX
8
CUT
10
184.3488
20
128.0715
0
VERTEX
8
CUT
10
182.6449
20
129.5404
0
VERTEX
8
CUT
10
180.6983
20
130.7444
0
VERTEX
8
CUT
10
178.7406
20
131.5333
0
VERTEX
8
CUT
10
176.6714
20
132.0532
0
VERTEX
8
CUT
10
174.6015
20
132.2329
0
VERTEX
8
CUT
10
172.5332
20
132.0531
0
VERTEX
8
CUT
10
170.4949
20
131.5134
0
VERTEX
8
CUT
10
166.7989
20
129.8362
0
VERTEX
8
CUT
10
165.3933
20
130.2069
0
VERTEX
8
CUT
10
163.8595
20
129.2180
0
VERTEX
8
CUT
10
161.9404
20
127.7014
0
VERTEX
8
CUT
10
161.8680
20
126.7101
0
VERTEX
8
CUT
10
161.3854
20
125.9187
0
VERTEX
8
CUT
10
160.5427
20
125.3823
0
VERTEX
8
CUT
10
159.3176
20
125.2162
0
VERTEX
8
CUT
10
159.0123
20
124.3162
0
VERTEX
8
CUT
10
158.0810
20
122.7373
0
VERTEX
8
CUT
10
156.9291
20
121.1876
0
VERTEX
8
CUT
10
156.4157
20
121.1560
0
VERTEX
8
CUT
10
155.6828
20
122.3789
0
VERTEX
8
CUT
10
154.9692
20
125.1539
0
VERTEX
8
CUT
10
153.2917
20
128.6879
0
VERTEX
8
CUT
10
152.3705
20
129.9560
0
VERTEX
8
CUT
10
152.0542
20
130.4842
0
VERTEX
8
CUT
10
150.9859
20
131.8623
0
VERTEX
8
CUT
10
150.2093
20
132.9315
0
VERTEX
8
CUT
10
148.3018
20
134.9278
0
VERTEX
8
CUT
10
147.7688
20
135.3697
0
VERTEX
8
CUT
10
147.6895
20
135.4500
0
VERTEX
8
CUT
10
144.8410
20
137.8396
0
VERTEX
8
CUT
10
144.4787
20
138.0968
0
VERTEX
8
CUT
10
143.7101
20
138.7339
0
VERTEX
8
CUT
10
142.4936
20
139.5060
0
VERTEX
8
CUT
10
141.5906
20
140.1470
0
VERTEX
8
CUT
10
140.3930
20
140.8392
0
VERTEX
8
CUT
10
138.0512
20
142.3255
0
VERTEX
8
CUT
10
133.6897
20
144.6129
0
VERTEX
8
CUT
10
128.7042
20
146.7098
0
VERTEX
8
CUT
10
127.8978
20
146.9786
0
VERTEX
8
CUT
10
122.7343
20
148.8418
0
VERTEX
8
CUT
10
118.1452
20
150.2806
0
VERTEX
8
CUT
10
114.5517
20
151.4355
0
VERTEX
8
CUT
10
113.8542
20
151.6596
0
VERTEX
8
CUT
10
103.7382
20
155.0315
0
VERTEX
8
CUT
10
98.0268
20
157.1997
0
VERTEX
8
CUT
10
92.6193
20
159.5212
0
VERTEX
8
CUT
10
87.4866
20
161.9954
0
VERTEX
8
CUT
10
82.6413
20
164.6326
0
VERTEX
8
CUT
10
79.4256
20
166.5790
0
VERTEX
8
CUT
10
77.4614
20
167.8144
0
VERTEX
8
CUT
10
75.5061
20
169.1624
0
VERTEX
8
CUT
10
75.5041
20
169.1639
0
VERTEX
8
CUT
10
75.4882
20
169.1752
0
VERTEX
8
CUT
10
75.1597
20
169.4108
0
VERTEX
8
CUT
10
72.4217
20
171.3737
0
VERTEX
8
CUT
10
71.9245
20
171.7528
0
VERTEX
8
CUT
10
68.2716
20
174.6695
0
VERTEX
8
CUT
10
64.6771
20
177.8621
0
VERTEX
8
CUT
10
59.8492
20
182.7200
0
VERTEX
8
CUT
10
57.5853
20
185.2588
0
VERTEX
8
CUT
10
55.4676
20
187.7453
0
VERTEX
8
CUT
10
52.5367
20
191.6886
0
VERTEX
8
CUT
10
52.4467
20
191.8296
0
VERTEX
8
CUT
10
51.6756
20
193.0387
0
VERTEX
8
CUT
10
50.8730
20
194.2971
0
VERTEX
8
CUT
10
50.7197
20
194.5492
0
VERTEX
8
CUT
10
48.2124
20
199.5041
0
VERTEX
8
CUT
10
47.0791
20
202.1090
0
VERTEX
8
CUT
10
45.2495
20
207.3538
0
VERTEX
8
CUT
10
44.8231
20
208.9627
0
VERTEX
8
CUT
10
44.4659
20
210.5156
0
VERTEX
8
CUT
10
43.9108
20
213.7074
0
VERTEX
8
CUT
10
43.9006
20
213.7904
0
VERTEX
8
CUT
10
43.9003
20
213.7931
0
VERTEX
8
CUT
10
43.8925
20
213.8565
0
VERTEX
8
CUT
10
43.8510
20
214.1940
0
VERTEX
8
CUT
10
43.6208
20
217.8257
0
VERTEX
8
CUT
10
43.7134
20
223.8874
0
VERTEX
8
CUT
10
44.0644
20
226.9888
0
VERTEX
8
CUT
10
44.0656
20
226.9951
0
VERTEX
8
CUT
10
44.0682
20
227.0088
0
VERTEX
8
CUT
10
44.0713
20
227.0250
0
VERTEX
8
CUT
10
44.1248
20
227.3026
0
VERTEX
8
CUT
10
44.9970
20
230.7992
0
VERTEX
8
CUT
10
46.0368
20
233.5312
0
VERTEX
8
CUT
10
46.6091
20
234.8328
0
VERTEX
8
CUT
10
46.6755
20
234.9583
0
VERTEX
8
CUT
10
48.7626
20
238.5986
0
VERTEX
8
CUT
10
49.2319
20
239.2838
0
VERTEX
8
CUT
10
50.4882
20
240.8691
0
VERTEX
8
CUT
10
50.9703
20
241.4775
0
VERTEX
8
CUT
10
51.0645
20
241.5963
0
VERTEX
8
CUT
10
51.3876
20
242.0041
0
VERTEX
8
CUT
10
51.6348
20
242.2818
0
VERTEX
8
CUT
10
54.4412
20
245.0049
0
VERTEX
8
CUT
10
54.7606
20
245.2790
0
VERTEX
8
CUT
10
55.0139
20
245.4690
0
VERTEX
8
CUT
10
55.3036
20
245.6863
0
VERTEX
8
CUT
10
55.7275
20
246.0043
0
VERTEX
8
CUT
10
57.8925
20
247.6280
0
VERTEX
8
CUT
10
58.4701
20
248.0296
0
VERTEX
8
CUT
10
61.8405
20
249.9122
0
VERTEX
8
CUT
10
65.5775
20
251.4842
0
VERTEX
8
CUT
10
66.9456
20
251.9610
0
VERTEX
8
CUT
10
70.4207
20
252.8728
0
VERTEX
8
CUT
10
71.8214
20
253.1356
0
VERTEX
8
CUT
10
71.9952
20
253.1682
0
VERTEX
8
CUT
10
72.0083
20
253.1706
0
VERTEX
8
CUT
10
72.0516
20
253.1787
0
VERTEX
8
CUT
10
77.0686
20
253.8471
0
VERTEX
8
CUT
10
93.6853
20
254.8532
0
VERTEX
8
CUT
10
99.7078
20
255.4611
0
VERTEX
8
CUT
10
104.4734
20
256.3709
0
VERTEX
8
CUT
10
110.6469
20
258.2038
0
VERTEX
8
CUT
10
113.0234
20
258.6931
0
VERTEX
8
CUT
10
113.1910
20
258.5137
0
VERTEX
8
CUT
10
113.1192
20
258.0529
0
VERTEX
8
CUT
10
112.4780
20
257.3513
0
VERTEX
8
CUT
10
112.3564
20
257.2432
0
VERTEX
8
CUT
10
109.6145
20
255.1622
0
VERTEX
8
CUT
10
108.8331
20
254.6227
0
VERTEX
8
CUT
10
105.2876
20
252.6222
0
VERTEX
8
CUT
10
105.0378
20
252.4973
0
VERTEX
8
CUT
10
104.9645
20
252.4606
0
VERTEX
8
CUT
10
104.9313
20
252.4440
0
VERTEX
8
CUT
10
104.9005
20
252.4286
0
VERTEX
8
CUT
10
101.7091
20
251.2447
0
VERTEX
8
CUT
10
98.4202
20
250.3950
0
VERTEX
8
CUT
10
97.9555
20
250.2949
0
VERTEX
8
CUT
10
97.6193
20
250.2225
0
VERTEX
8
CUT
10
97.2432
20
250.1415
0
VERTEX
8
CUT
10
96.8851
20
250.0643
0
VERTEX
8
CUT
10
93.1653
20
249.3442
0
VERTEX
8
CUT
10
81.3593
20
247.5796
0
VERTEX
8
CUT
10
81.1050
20
247.5425
0
VERTEX
8
CUT
10
81.0864
20
247.5388
0
VERTEX
8
CUT
10
78.0730
20
247.0884
0
VERTEX
8
CUT
10
74.7798
20
246.2846
0
VERTEX
8
CUT
10
74.5307
20
245.8004
0
VERTEX
8
CUT
10
74.7862
20
245.5435
0
VERTEX
8
CUT
10
77.0048
20
244.9865
0
VERTEX
8
CUT
10
79.6905
20
243.9586
0
VERTEX
8
CUT
10
84.4575
20
243.2608
0
VERTEX
8
CUT
10
87.6436
20
243.1120
0
VERTEX
8
CUT
10
90.2173
20
243.4962
0
VERTEX
8
CUT
10
94.2459
20
244.6922
0
VERTEX
8
CUT
10
97.2613
20
246.8344
0
VERTEX
8
CUT
10
99.6338
20
248.0153
0
VERTEX
8
CUT
10
100.9846
20
248.3223
0
VERTEX
8
CUT
10
102.5607
20
248.2675
0
VERTEX
8
CUT
10
104.3118
20
248.5769
0
VERTEX
8
CUT
10
104.3137
20
248.5769
0
VERTEX
8
CUT
10
104.3222
20
248.5770
0
VERTEX
8
CUT
10
104.3942
20
248.5778
0
VERTEX
8
CUT
10
105.1270
20
248.5857
0
VERTEX
8
CUT
10
105.7355
20
248.4505
0
VERTEX
8
CUT
10
106.4460
20
247.7756
0
VERTEX
8
CUT
10
107.1159
20
245.8521
0
VERTEX
8
CUT
10
107.0682
20
244.7372
0
VERTEX
8
CUT
10
107.4861
20
244.4688
0
VERTEX
8
CUT
10
107.8033
20
244.7168
0
VERTEX
8
CUT
10
108.2005
20
246.2765
0
VERTEX
8
CUT
10
108.2213
20
247.1183
0
VERTEX
8
CUT
10
107.7656
20
247.5602
0
VERTEX
8
CUT
10
107.8128
20
247.8767
0
VERTEX
8
CUT
10
108.5309
20
248.5000
0
VERTEX
8
CUT
10
109.8234
20
248.5541
0
VERTEX
8
CUT
10
110.4954
20
248.4732
0
VERTEX
8
CUT
10
112.0366
20
247.9398
0
VERTEX
8
CUT
10
112.8954
20
247.0823
0
VERTEX
8
CUT
10
113.2823
20
245.7954
0
VERTEX
8
CUT
10
113.1023
20
243.4543
0
VERTEX
8
CUT
10
113.2803
20
243.1303
0
VERTEX
8
CUT
10
113.7992
20
243.2181
0
VERTEX
8
CUT
10
114.6788
20
244.9515
0
VERTEX
8
CUT
10
115.4351
20
245.8694
0
VERTEX
8
CUT
10
115.8635
20
245.7738
0
VERTEX
8
CUT
10
116.3915
20
244.5904
0
VERTEX
8
CUT
10
116.5784
20
242.9212
0
VERTEX
8
CUT
10
116.2509
20
241.5229
0
VERTEX
8
CUT
10
115.4902
20
240.1081
0
VERTEX
8
CUT
10
112.9849
20
237.0011
0
VERTEX
8
CUT
10
112.8437
20
236.5859
0
VERTEX
8
CUT
10
113.0406
20
236.2716
0
VERTEX
8
CUT
10
113.5360
20
236.2717
0
VERTEX
8
CUT
10
114.3176
20
236.6041
0
VERTEX
8
CUT
10
115.6266
20
237.5764
0
VERTEX
8
CUT
10
118.2658
20
240.8228
0
VERTEX
8
CUT
10
120.1598
20
242.7168
0
VERTEX
8
CUT
10
120.9788
20
243.2233
0
VERTEX
8
CUT
10
121.6754
20
243.0713
0
VERTEX
8
CUT
10
122.4514
20
242.0914
0
VERTEX
8
CUT
10
122.6791
20
240.5427
0
VERTEX
8
CUT
10
122.3728
20
238.7980
0
VERTEX
8
CUT
10
122.5577
20
238.4385
0
VERTEX
8
CUT
10
123.0754
20
238.5401
0
VERTEX
8
CUT
10
124.8128
20
241.5295
0
VERTEX
8
CUT
10
125.2390
20
241.6744
0
VERTEX
8
CUT
10
125.6389
20
241.4610
0
VERTEX
8
CUT
10
125.9116
20
240.6899
0
VERTEX
8
CUT
10
125.9220
20
240.5988
0
VERTEX
8
CUT
10
125.9428
20
240.4168
0
VERTEX
8
CUT
10
125.9769
20
240.1174
0
VERTEX
8
CUT
10
126.0318
20
239.6363
0
VERTEX
8
CUT
10
126.0346
20
238.6838
0
VERTEX
8
CUT
10
125.8693
20
237.5938
0
VERTEX
8
CUT
10
125.8191
20
237.3449
0
VERTEX
8
CUT
10
124.7554
20
235.2795
0
VERTEX
8
CUT
10
124.0328
20
234.4473
0
VERTEX
8
CUT
10
124.0270
20
234.4422
0
VERTEX
8
CUT
10
123.9998
20
234.4186
0
VERTEX
8
CUT
10
123.9057
20
234.3365
0
VERTEX
8
CUT
10
123.7732
20
234.2210
0
VERTEX
8
CUT
10
122.2868
20
233.0598
0
VERTEX
8
CUT
10
122.0570
20
232.8971
0
VERTEX
8
CUT
10
120.1876
20
232.0171
0
VERTEX
8
CUT
10
119.1497
20
231.6762
0
VERTEX
8
CUT
10
118.4902
20
231.4872
0
VERTEX
8
CUT
10
115.6658
20
231.1312
0
VERTEX
8
CUT
10
113.9929
20
231.1596
0
VERTEX
8
CUT
10
111.8307
20
231.9205
0
VERTEX
8
CUT
10
109.6508
20
232.2275
0
VERTEX
8
CUT
10
108.3752
20
231.3940
0
VERTEX
8
CUT
10
107.5849
20
231.2518
0
VERTEX
8
CUT
10
106.7794
20
231.3870
0
VERTEX
8
CUT
10
106.1046
20
231.8532
0
VERTEX
8
CUT
10
105.7586
20
232.6061
0
VERTEX
8
CUT
10
106.0024
20
233.1343
0
VERTEX
8
CUT
10
110.1498
20
234.7337
0
VERTEX
8
CUT
10
110.3903
20
235.1679
0
VERTEX
8
CUT
10
110.0454
20
235.4895
0
VERTEX
8
CUT
10
104.0674
20
234.6454
0
VERTEX
8
CUT
10
103.8581
20
234.4307
0
VERTEX
8
CUT
10
103.8806
20
234.0964
0
VERTEX
8
CUT
10
104.8194
20
233.6052
0
VERTEX
8
CUT
10
104.9236
20
233.2298
0
VERTEX
8
CUT
10
104.5454
20
232.7433
0
VERTEX
8
CUT
10
103.6963
20
232.5027
0
VERTEX
8
CUT
10
102.9205
20
232.4800
0
VERTEX
8
CUT
10
102.5405
20
232.8149
0
VERTEX
8
CUT
10
102.6637
20
233.4979
0
VERTEX
8
CUT
10
103.2391
20
234.0745
0
VERTEX
8
CUT
10
103.1896
20
234.3680
0
VERTEX
8
CUT
10
102.9097
20
234.5476
0
VERTEX
8
CUT
10
98.4385
20
234.2702
0
VERTEX
8
CUT
10
97.7672
20
234.1439
0
VERTEX
8
CUT
10
97.7368
20
234.1493
0
VERTEX
8
CUT
10
96.5380
20
234.0012
0
VERTEX
8
CUT
10
96.1810
20
233.8452
0
VERTEX
8
CUT
10
95.7486
20
233.7638
0
VERTEX
8
CUT
10
95.1762
20
233.3006
0
VERTEX
8
CUT
10
95.0996
20
233.0423
0
VERTEX
8
CUT
10
95.0340
20
232.9546
0
VERTEX
8
CUT
10
95.1297
20
232.5518
0
VERTEX
8
CUT
10
95.1293
20
232.4351
0
VERTEX
8
CUT
10
95.1651
20
232.3737
0
VERTEX
8
CUT
10
95.1951
20
232.2138
0
VERTEX
8
CUT
10
95.9156
20
230.9724
0
VERTEX
8
CUT
10
96.0535
20
230.6680
0
VERTEX
8
CUT
10
96.1573
20
230.5559
0
VERTEX
8
CUT
10
98.7161
20
226.1470
0
VERTEX
8
CUT
10
99.4586
20
224.4381
0
VERTEX
8
CUT
10
99.2589
20
223.9945
0
VERTEX
8
CUT
10
97.6951
20
225.0719
0
VERTEX
8
CUT
10
91.4659
20
230.3534
0
VERTEX
8
CUT
10
86.5819
20
233.1962
0
VERTEX
8
CUT
10
86.0995
20
233.0115
0
VERTEX
8
CUT
10
86.1949
20
232.5330
0
VERTEX
8
CUT
10
90.0312
20
230.2067
0
VERTEX
8
CUT
10
92.2876
20
228.5988
0
VERTEX
8
CUT
10
96.2880
20
225.0563
0
VERTEX
8
CUT
10
99.1389
20
221.9307
0
VERTEX
8
CUT
10
100.5136
20
219.6851
0
VERTEX
8
CUT
10
102.0662
20
216.3669
0
VERTEX
8
CUT
10
102.8388
20
213.9957
0
VERTEX
8
CUT
10
103.1361
20
212.6082
0
VERTEX
8
CUT
10
103.3840
20
211.1443
0
VERTEX
8
CUT
10
103.5533
20
209.3282
0
VERTEX
8
CUT
10
103.4930
20
207.1252
0
VERTEX
8
CUT
10
103.1568
20
204.9040
0
VERTEX
8
CUT
10
102.4967
20
202.6671
0
VERTEX
8
CUT
10
101.5977
20
200.5059
0
VERTEX
8
CUT
10
99.4015
20
197.3584
0
VERTEX
8
CUT
10
96.3467
20
194.5174
0
VERTEX
8
CUT
10
93.5524
20
192.7949
0
VERTEX
8
CUT
10
93.4082
20
192.4985
0
VERTEX
8
CUT
10
93.5428
20
192.1976
0
VERTEX
8
CUT
10
93.8599
20
192.1078
0
VERTEX
8
CUT
10
97.0004
20
192.7092
0
VERTEX
8
CUT
10
100.5827
20
193.8313
0
VERTEX
8
CUT
10
113.9658
20
199.5931
0
VERTEX
8
CUT
10
118.4563
20
201.1612
0
VERTEX
8
CUT
10
123.8396
20
202.2041
0
VERTEX
8
CUT
10
126.4127
20
202.3555
0
VERTEX
8
CUT
10
128.8935
20
202.2292
0
VERTEX
8
CUT
10
131.1789
20
201.8240
0
VERTEX
8
CUT
10
133.2592
20
201.1607
0
VERTEX
8
CUT
10
135.2359
20
200.2379
0
VERTEX
8
CUT
10
137.1092
20
198.9998
0
VERTEX
8
CUT
10
138.7722
20
197.5175
0
VERTEX
8
CUT
10
140.5583
20
195.3263
0
VERTEX
8
CUT
10
142.1530
20
192.5641
0
VERTEX
8
CUT
10
144.1400
20
187.6736
0
VERTEX
8
CUT
10
145.2874
20
183.6657
0
VERTEX
8
CUT
10
145.7247
20
183.4400
0
VERTEX
8
CUT
10
146.0269
20
183.7471
0
VERTEX
8
CUT
10
147.3398
20
191.5772
0
VERTEX
8
CUT
10
151.5486
20
208.5649
0
VERTEX
8
CUT
10
152.5831
20
213.8576
0
VERTEX
8
CUT
10
153.1006
20
218.4866
0
VERTEX
8
CUT
10
153.2610
20
228.4379
0
VERTEX
8
CUT
10
153.3405
20
229.8501
0
VERTEX
8
CUT
10
153.3771
20
229.9633
0
VERTEX
8
CUT
10
153.3887
20
229.9990
0
VERTEX
8
CUT
10
153.3958
20
230.0208
0
VERTEX
8
CUT
10
153.4009
20
230.0365
0
VERTEX
8
CUT
10
153.4019
20
230.0396
0
VERTEX
8
CUT
10
153.4897
20
230.3108
0
VERTEX
8
CUT
10
153.5215
20
230.4091
0
VERTEX
8
CUT
10
153.5421
20
230.4726
0
VERTEX
8
CUT
10
153.7752
20
230.9890
0
VERTEX
8
CUT
10
155.5786
20
234.2779
0
VERTEX
8
CUT
10
155.8225
20
234.6884
0
VERTEX
8
CUT
10
155.9926
20
234.9676
0
VERTEX
8
CUT
10
155.9929
20
234.9751
0
VERTEX
8
CUT
10
156.0229
20
235.0256
0
VERTEX
8
CUT
10
156.0233
20
235.0338
0
VERTEX
8
CUT
10
156.1665
20
235.2759
0
VERTEX
8
CUT
10
156.1788
20
235.8416
0
VERTEX
8
CUT
10
156.3688
20
241.7564
0
VERTEX
8
CUT
10
156.9475
20
244.3766
0
VERTEX
8
CUT
10
157.8496
20
246.3022
0
VERTEX
8
CUT
10
157.8900
20
246.3557
0
VERTEX
8
CUT
10
158.4963
20
247.1578
0
VERTEX
8
CUT
10
158.7993
20
247.5587
0
VERTEX
8
CUT
10
159.0550
20
247.8970
0
VERTEX
8
CUT
10
159.4592
20
248.2921
0
VERTEX
8
CUT
10
159.4924
20
248.3198
0
VERTEX
8
CUT
10
159.6133
20
248.4205
0
VERTEX
8
CUT
10
159.8627
20
248.6283
0
VERTEX
8
CUT
10
160.4787
20
249.1417
0
VERTEX
8
CUT
10
162.5496
20
250.4390
0
VERTEX
8
CUT
10
163.9531
20
250.7272
0
VERTEX
8
CUT
10
164.4644
20
250.3080
0
VERTEX
8
CUT
10
164.6169
20
249.7335
0
VERTEX
8
CUT
10
164.9725
20
249.6301
0
VERTEX
8
CUT
10
167.3865
20
251.4387
0
VERTEX
8
CUT
10
168.0726
20
251.6993
0
VERTEX
8
CUT
10
168.1548
20
251.7057
0
VERTEX
8
CUT
10
168.3739
20
251.7149
0
VERTEX
8
CUT
10
168.6839
20
251.7225
0
VERTEX
8
CUT
10
168.7901
20
251.7013
0
VERTEX
8
CUT
10
168.8980
20
251.6797
0
VERTEX
8
CUT
10
169.2057
20
251.6182
0
VERTEX
8
CUT
10
170.0149
20
251.4565
0
VERTEX
8
CUT
10
170.6012
20
251.1926
0
VERTEX
8
CUT
10
171.3261
20
249.7878
0
VERTEX
8
CUT
10
171.4866
20
248.8417
0
VERTEX
8
CUT
10
171.4251
20
246.9145
0
VERTEX
8
CUT
10
170.8614
20
245.0952
0
VERTEX
8
CUT
10
171.0265
20
244.7695
0
VERTEX
8
CUT
10
171.3525
20
244.7120
0
VERTEX
8
CUT
10
171.9621
20
245.5372
0
VERTEX
8
CUT
10
172.4465
20
246.6506
0
VERTEX
8
CUT
10
173.0737
20
248.9314
0
VERTEX
8
CUT
10
173.1018
20
249.9090
0
VERTEX
8
CUT
10
172.6590
20
251.1496
0
VERTEX
8
CUT
10
172.7322
20
251.4646
0
VERTEX
8
CUT
10
173.4246
20
251.8583
0
VERTEX
8
CUT
10
174.6540
20
251.8940
0
VERTEX
8
CUT
10
177.2174
20
251.4426
0
VERTEX
8
CUT
10
177.2226
20
251.4400
0
VERTEX
8
CUT
10
177.2473
20
251.4281
0
VERTEX
8
CUT
10
177.2638
20
251.4201
0
VERTEX
8
CUT
10
177.6370
20
251.2400
0
VERTEX
8
CUT
10
178.3909
20
250.7224
0
VERTEX
8
CUT
10
178.8848
20
250.0456
0
VERTEX
8
CUT
10
179.3564
20
248.2301
0
VERTEX
8
CUT
10
179.3527
20
247.2529
0
VERTEX
8
CUT
10
178.9556
20
245.4454
0
VERTEX
8
CUT
10
179.0864
20
245.1799
0
VERTEX
8
CUT
10
179.4037
20
245.0870
0
VERTEX
8
CUT
10
179.6571
20
245.2399
0
VERTEX
8
CUT
10
180.1386
20
246.1758
0
VERTEX
8
CUT
10
180.6828
20
247.7847
0
VERTEX
8
CUT
10
180.7314
20
248.5579
0
VERTEX
8
CUT
10
180.3419
20
249.8628
0
VERTEX
8
CUT
10
180.4254
20
250.3181
0
VERTEX
8
CUT
10
181.0023
20
250.4846
0
VERTEX
8
CUT
10
182.0472
20
250.0033
0
VERTEX
8
CUT
10
182.0848
20
249.9727
0
VERTEX
8
CUT
10
182.1107
20
249.9516
0
VERTEX
8
CUT
10
182.1154
20
249.9477
0
VERTEX
8
CUT
10
182.1163
20
249.9470
0
VERTEX
8
CUT
10
183.0207
20
248.7367
0
VERTEX
8
CUT
10
183.5947
20
247.0113
0
VERTEX
8
CUT
10
183.6171
20
245.6935
0
VERTEX
8
CUT
10
183.5852
20
245.5134
0
VERTEX
8
CUT
10
183.5140
20
245.1110
0
VERTEX
8
CUT
10
183.4966
20
245.0128
0
VERTEX
8
CUT
10
183.4930
20
244.9928
0
VERTEX
8
CUT
10
183.4923
20
244.9889
0
VERTEX
8
CUT
10
183.3874
20
244.5188
0
VERTEX
8
CUT
10
182.8868
20
243.3745
0
VERTEX
8
CUT
10
182.6057
20
242.7316
0
VERTEX
8
CUT
10
182.5568
20
242.6200
0
VERTEX
8
CUT
10
182.4955
20
242.4797
0
VERTEX
8
CUT
10
181.8724
20
241.5768
0
VERTEX
8
CUT
10
181.8528
20
241.5514
0
VERTEX
8
CUT
10
181.8259
20
241.5163
0
VERTEX
8
CUT
10
181.8112
20
241.4972
0
VERTEX
8
CUT
10
181.7767
20
241.4523
0
VERTEX
8
CUT
10
180.6071
20
240.2560
0
VERTEX
8
CUT
10
179.6908
20
239.5820
0
VERTEX
8
CUT
10
178.0509
20
238.6127
0
VERTEX
8
CUT
10
175.9086
20
237.4896
0
VERTEX
8
CUT
10
174.6452
20
236.6354
0
VERTEX
8
CUT
10
173.6694
20
235.6622
0
VERTEX
8
CUT
10
172.8859
20
234.4109
0
VERTEX
8
CUT
10
172.3964
20
233.0535
0
VERTEX
8
CUT
10
172.0994
20
231.3981
0
VERTEX
8
CUT
10
171.9749
20
229.3060
0
VERTEX
8
CUT
10
172.0910
20
224.1476
0
VERTEX
8
CUT
10
172.0887
20
223.8144
0
VERTEX
8
CUT
10
171.5466
20
216.4325
0
VERTEX
8
CUT
10
171.5184
20
213.0967
0
VERTEX
8
CUT
10
171.7414
20
211.8917
0
VERTEX
8
CUT
10
172.4255
20
210.5248
0
VERTEX
8
CUT
10
172.6390
20
208.6738
0
VERTEX
8
CUT
10
173.1585
20
206.6189
0
VERTEX
8
CUT
10
174.5852
20
202.5569
0
VERTEX
8
CUT
10
176.3065
20
199.5409
0
VERTEX
8
CUT
10
179.0608
20
196.2168
0
VERTEX
8
CUT
10
181.9413
20
194.0589
0
VERTEX
8
CUT
10
188.2193
20
189.8922
0
VERTEX
8
CUT
10
191.1877
20
187.4739
0
VERTEX
8
CUT
10
194.9346
20
183.7844
0
VERTEX
8
CUT
10
203.0397
20
173.9430
0
VERTEX
8
CUT
10
205.2553
20
170.9264
0
VERTEX
8
CUT
10
206.9324
20
168.1516
0
VERTEX
8
CUT
10
208.2520
20
165.4834
0
VERTEX
8
CUT
10
210.1160
20
159.5252
0
VERTEX
8
CUT
10
210.5819
20
159.2729
0
VERTEX
8
CUT
10
210.8649
20
159.5643
0
VERTEX
8
CUT
10
210.9052
20
161.0035
0
VERTEX
8
CUT
10
210.6620
20
173.2083
0
VERTEX
8
CUT
10
210.2692
20
176.4172
0
VERTEX
8
CUT
10
209.1410
20
181.6630
0
VERTEX
8
CUT
10
207.4380
20
187.8058
0
VERTEX
8
CUT
10
205.0671
20
193.3969
0
VERTEX
8
CUT
10
202.9951
20
197.4779
0
VERTEX
8
CUT
10
199.7451
20
202.6408
0
VERTEX
8
CUT
10
198.9122
20
204.3944
0
VERTEX
8
CUT
10
197.2517
20
206.6816
0
VERTEX
8
CUT
10
197.0569
20
207.3099
0
VERTEX
8
CUT
10
197.3347
20
207.7821
0
VERTEX
8
CUT
10
197.6995
20
207.8356
0
VERTEX
8
CUT
10
198.3362
20
207.4699
0
VERTEX
8
CUT
10
201.9699
20
203.5040
0
VERTEX
8
CUT
10
206.8912
20
196.9635
0
VERTEX
8
CUT
10
211.2599
20
190.2291
0
VERTEX
8
CUT
10
214.0934
20
185.2184
0
VERTEX
8
CUT
10
215.5391
20
182.3282
0
VERTEX
8
CUT
10
216.9802
20
178.7748
0
VERTEX
8
CUT
10
218.0531
20
175.4070
0
VERTEX
8
CUT
10
218.7307
20
172.1224
0
VERTEX
8
CUT
10
218.9085
20
170.2215
0
VERTEX
8
CUT
10
218.9759
20
167.2902
0
VERTEX
8
CUT
10
218.7641
20
162.4833
0
VERTEX
8
CUT
10
217.3289
20
155.4603
0
VERTEX
8
CUT
10
213.3631
20
141.0606
0
VERTEX
8
CUT
10
211.8078
20
134.2286
0
VERTEX
8
CUT
10
210.9875
20
128.5419
0
VERTEX
8
CUT
10
210.9402
20
127.5222
0
VERTEX
8
CUT
10
210.8673
20
126.9435
0
VERTEX
8
CUT
10
210.6536
20
123.4612
0
VERTEX
8
CUT
10
210.6852
20
122.1372
0
VERTEX
8
CUT
10
210.6539
20
121.6545
0
VERTEX
8
CUT
10
210.6606
20
121.5056
0
VERTEX
8
CUT
10
210.4287
20
116.5164
0
VERTEX
8
CUT
10
209.0953
20
116.2828
0
VERTEX
8
CUT
10
207.8384
20
116.3859
0
VERTEX
8
CUT
10
206.5484
20
116.8326
0
VERTEX
8
CUT
10
204.7117
20
118.0221
0
VERTEX
8
CUT
10
203.8776
20
118.8275
0
VERTEX
8
CUT
10
203.2684
20
119.7898
0
VERTEX
8
CUT
10
202.6160
20
123.6676
0
VERTEX
8
CUT
10
202.1806
20
123.9518
0
VERTEX
8
CUT
10
201.8508
20
123.5879
0
VERTEX
8
CUT
10
201.9261
20
120.1443
0
VERTEX
8
CUT
10
202.3195
20
118.1989
0
VERTEX
8
CUT
10
202.9966
20
116.4872
0
VERTEX
8
CUT
10
203.9068
20
114.9041
0
VERTEX
8
CUT
10
205.0508
20
113.5233
0
VERTEX
8
CUT
10
206.4558
20
112.3199
0
VERTEX
8
CUT
10
207.8504
20
111.5067
0
VERTEX
8
CUT
10
208.3022
20
111.2081
0
VERTEX
8
CUT
10
208.4667
20
111.1473
0
VERTEX
8
CUT
10
208.9098
20
110.8889
0
VERTEX
8
CUT
10
210.6914
20
110.2273
0
VERTEX
8
CUT
10
213.1437
20
110.0203
0
VERTEX
8
CUT
10
217.6698
20
109.9903
0
VERTEX
8
CUT
10
220.8630
20
110.3909
0
VERTEX
8
CUT
10
220.9327
20
110.3973
0
VERTEX
8
CUT
10
221.0201
20
110.4053
0
VERTEX
8
CUT
10
221.0923
20
110.4119
0
VERTEX
8
CUT
10
221.4607
20
110.4457
0
VERTEX
8
CUT
10
221.7854
20
110.4754
0
VERTEX
8
CUT
10
228.1557
20
111.3930
0
VERTEX
8
CUT
10
234.2495
20
111.5750
0
VERTEX
8
CUT
10
236.1822
20
111.3658
0
VERTEX
8
CUT
10
237.3911
20
111.2240
0
VERTEX
8
CUT
10
239.2165
20
110.8939
0
VERTEX
8
CUT
10
243.8093
20
109.0873
0
VERTEX
8
CUT
10
245.0016
20
108.2564
0
VERTEX
8
CUT
10
245.0003
20
108.2407
0
VERTEX
8
CUT
10
244.9792
20
108.1259
0
SEQEND
0
POLYLINE
8
CUT
66
1
70
1
10
0.0
20
0.0
30
0.0
0
VERTEX
8
CUT
10
205.5787
20
67.2695
0
VERTEX
8
CUT
10
205.7872
20
67.2044
0
VERTEX
8
CUT
10
206.0417
20
67.0089
0
VERTEX
8
CUT
10
206.2075
20
66.9749
0
VERTEX
8
CUT
10
207.1132
20
66.7000
0
VERTEX
8
CUT
10
207.4007
20
66.7004
0
VERTEX
8
CUT
10
207.5881
20
66.6419
0
VERTEX
8
CUT
10
207.7749
20
66.6462
0
VERTEX
8
CUT
10
207.7780
20
66.6453
0
VERTEX
8
CUT
10
207.8075
20
66.6464
0
VERTEX
8
CUT
10
207.8199
20
66.6438
0
VERTEX
8
CUT
10
207.8734
20
66.6484
0
VERTEX
8
CUT
10
209.1481
20
66.6778
0
VERTEX
8
CUT
10
209.2883
20
66.7709
0
VERTEX
8
CUT
10
209.4933
20
66.7887
0
VERTEX
8
CUT
10
210.4315
20
67.4701
0
VERTEX
8
CUT
10
213.3069
20
74.1140
0
VERTEX
8
CUT
10
213.1394
20
74.5023
0
VERTEX
8
CUT
10
212.6939
20
74.8394
0
VERTEX
8
CUT
10
209.7286
20
76.4858
0
VERTEX
8
CUT
10
208.9192
20
76.7671
0
VERTEX
8
CUT
10
208.4335
20
76.9971
0
VERTEX
8
CUT
10
208.1556
20
77.0324
0
VERTEX
8
CUT
10
207.9361
20
77.1087
0
VERTEX
8
CUT
10
206.9969
20
77.2030
0
VERTEX
8
CUT
10
205.1212
20
76.8407
0
VERTEX
8
CUT
10
204.9727
20
76.7664
0
VERTEX
8
CUT
10
204.8372
20
76.7400
0
VERTEX
8
CUT
10
204.4887
20
76.5243
0
VERTEX
8
CUT
10
203.1967
20
75.8780
0
VERTEX
8
CUT
10
201.5389
20
74.6993
0
VERTEX
8
CUT
10
201.3833
20
74.6031
0
VERTEX
8
CUT
10
200.4567
20
74.3265
0
VERTEX
8
CUT
10
199.4549
20
74.1230
0
VERTEX
8
CUT
10
199.1310
20
73.8775
0
VERTEX
8
CUT
10
199.2020
20
73.4773
0
VERTEX
8
CUT
10
202.8150
20
69.8057
0
VERTEX
8
CUT
10
203.9166
20
68.6226
0
SEQEND
0
POLYLINE
8
CUT
66
1
70
1
10
0.0
20
0.0
30
0.0
0
VERTEX
8
CUT
10
211.6335
20
63.7802
0
VERTEX
8
CUT
10
209.8948
20
62.2245
0
VERTEX
8
CUT
10
208.9796
20
61.6449
0
VERTEX
8
CUT
10
206.9664
20
60.9739
0
VERTEX
8
CUT
10
204.8921
20
60.9433
0
VERTEX
8
CUT
10
202.8788
20
61.5229
0
VERTEX
8
CUT
10
201.8112
20
62.2245
0
VERTEX
8
CUT
10
200.0114
20
63.8717
0
VERTEX
8
CUT
10
198.1507
20
66.1595
0
VERTEX
8
CUT
10
197.8761
20
66.2206
0
VERTEX
8
CUT
10
198.1202
20
65.2139
0
VERTEX
8
CUT
10
198.6693
20
64.0853
0
VERTEX
8
CUT
10
199.6454
20
62.7431
0
VERTEX
8
CUT
10
200.9266
20
61.4924
0
VERTEX
8
CUT
10
202.9703
20
60.1197
0
VERTEX
8
CUT
10
204.2515
20
59.6927
0
VERTEX
8
CUT
10
205.6547
20
59.5402
0
VERTEX
8
CUT
10
207.6985
20
59.7537
0
VERTEX
8
CUT
10
209.1627
20
60.3333
0
VERTEX
8
CUT
10
210.6574
20
61.6754
0
VERTEX
8
CUT
10
212.2131
20
64.0243
0
SEQEND
0
POLYLINE
8
CUT
66
1
70
1
10
0.0
20
0.0
30
0.0
0
VERTEX
8
CUT
10
205.0751
20
106.3639
0
VERTEX
8
CUT
10
209.2237
20
106.5469
0
VERTEX
8
CUT
10
210.3828
20
106.8520
0
VERTEX
8
CUT
10
209.6812
20
107.3095
0
VERTEX
8
CUT
10
208.0035
20
107.5536
0
VERTEX
8
CUT
10
205.8682
20
107.5536
0
VERTEX
8
CUT
10
203.8855
20
107.3095
0
VERTEX
8
CUT
10
202.2382
20
106.6385
0
VERTEX
8
CUT
10
201.2621
20
105.9674
0
VERTEX
8
CUT
10
200.4080
20
105.1438
0
VERTEX
8
CUT
10
199.4014
20
103.3135
0
VERTEX
8
CUT
10
199.7674
20
103.4355
0
VERTEX
8
CUT
10
201.6282
20
105.2048
0
VERTEX
8
CUT
10
203.1534
20
105.9369
0
SEQEND
0
POLYLINE
8
CUT
66
1
70
1
10
0.0
20
0.0
30
0.0
0
VERTEX
8
CUT
10
202.5738
20
158.2819
0
VERTEX
8
CUT
10
202.6653
20
159.0445
0
VERTEX
8
CUT
10
202.4823
20
159.4410
0
VERTEX
8
CUT
10
202.1467
20
159.2885
0
VERTEX
8
CUT
10
201.7807
20
158.5259
0
VERTEX
8
CUT
10
200.7435
20
155.2314
0
VERTEX
8
CUT
10
199.0353
20
151.5405
0
VERTEX
8
CUT
10
193.7886
20
142.5418
0
VERTEX
8
CUT
10
192.3549
20
139.4608
0
VERTEX
8
CUT
10
191.3788
20
136.6240
0
VERTEX
8
CUT
10
190.6162
20
132.9635
0
VERTEX
8
CUT
10
190.6772
20
132.0789
0
VERTEX
8
CUT
10
191.2873
20
132.1094
0
VERTEX
8
CUT
10
191.9584
20
135.2513
0
VERTEX
8
CUT
10
193.4531
20
139.5524
0
VERTEX
8
CUT
10
199.0353
20
149.4052
0
VERTEX
8
CUT
10
201.4146
20
154.3163
0
SEQEND
0
POLYLINE
8
CUT
66
1
70
1
10
0.0
20
0.0
30
0.0
0
VERTEX
8
CUT
10
198.3947
20
97.7313
0
VERTEX
8
CUT
10
198.6693
20
98.5854
0
VERTEX
8
CUT
10
198.6082
20
98.9514
0
VERTEX
8
CUT
10
198.2727
20
98.8294
0
VERTEX
8
CUT
10
196.2899
20
96.8466
0
VERTEX
8
CUT
10
192.1414
20
93.5217
0
VERTEX
8
CUT
10
190.7077
20
92.0880
0
VERTEX
8
CUT
10
189.3655
20
90.0747
0
VERTEX
8
CUT
10
189.0910
20
89.0681
0
VERTEX
8
CUT
10
189.1825
20
88.7021
0
VERTEX
8
CUT
10
189.7621
20
89.1291
0
VERTEX
8
CUT
10
191.1347
20
91.0814
0
VERTEX
8
CUT
10
192.2939
20
92.2710
0
VERTEX
8
CUT
10
197.5711
20
96.6026
0
SEQEND
0
POLYLINE
8
CUT
66
1
70
1
10
0.0
20
0.0
30
0.0
0
VERTEX
8
CUT
10
183.5392
20
185.0644
0
VERTEX
8
CUT
10
175.6387
20
193.7276
0
VERTEX
8
CUT
10
173.5644
20
196.5645
0
VERTEX
8
CUT
10
172.3137
20
199.1573
0
VERTEX
8
CUT
10
171.2461
20
203.7329
0
VERTEX
8
CUT
10
170.8495
20
204.2820
0
VERTEX
8
CUT
10
170.6055
20
204.0380
0
VERTEX
8
CUT
10
170.5445
20
203.3974
0
VERTEX
8
CUT
10
171.2156
20
199.8894
0
VERTEX
8
CUT
10
172.1917
20
197.0525
0
VERTEX
8
CUT
10
173.5034
20
194.3987
0
VERTEX
8
CUT
10
175.2421
20
192.1719
0
VERTEX
8
CUT
10
184.0578
20
182.6241
0
VERTEX
8
CUT
10
186.1626
20
178.8721
0
VERTEX
8
CUT
10
187.9623
20
174.8151
0
VERTEX
8
CUT
10
188.3284
20
174.7846
0
VERTEX
8
CUT
10
188.4199
20
175.2421
0
VERTEX
8
CUT
10
188.0538
20
176.7673
0
VERTEX
8
CUT
10
185.8575
20
181.5565
0
SEQEND
0
POLYLINE
8
CUT
66
1
70
1
10
0.0
20
0.0
30
0.0
0
VERTEX
8
CUT
10
183.2037
20
100.7817
0
VERTEX
8
CUT
10
184.2713
20
105.4793
0
VERTEX
8
CUT
10
184.4239
20
106.6080
0
VERTEX
8
CUT
10
184.1798
20
107.2485
0
VERTEX
8
CUT
10
183.7528
20
107.1875
0
VERTEX
8
CUT
10
183.5697
20
106.8825
0
VERTEX
8
CUT
10
183.0817
20
104.0151
0
VERTEX
8
CUT
10
181.8310
20
99.9886
0
VERTEX
8
CUT
10
180.0618
20
95.2604
0
VERTEX
8
CUT
10
176.9809
20
88.1835
0
VERTEX
8
CUT
10
175.6692
20
84.3095
0
VERTEX
8
CUT
10
174.6625
20
80.0389
0
VERTEX
8
CUT
10
174.1440
20
76.5919
0
VERTEX
8
CUT
10
174.1745
20
74.7007
0
VERTEX
8
CUT
10
174.5100
20
74.3346
0
VERTEX
8
CUT
10
174.7846
20
74.6397
0
VERTEX
8
CUT
10
175.5472
20
79.5508
0
VERTEX
8
CUT
10
176.3098
20
82.6012
0
VERTEX
8
CUT
10
178.2315
20
87.9395
0
VERTEX
8
CUT
10
181.6785
20
96.2671
0
SEQEND
0
POLYLINE
8
CUT
66
1
70
1
10
0.0
20
0.0
30
0.0
0
VERTEX
8
CUT
10
181.3429
20
83.0588
0
VERTEX
8
CUT
10
181.2514
20
83.4859
0
VERTEX
8
CUT
10
180.6718
20
82.6012
0
VERTEX
8
CUT
10
179.7567
20
79.7339
0
VERTEX
8
CUT
10
179.3602
20
77.4766
0
VERTEX
8
CUT
10
179.2687
20
75.6768
0
VERTEX
8
CUT
10
179.3602
20
71.7418
0
VERTEX
8
CUT
10
179.7567
20
68.4168
0
VERTEX
8
CUT
10
180.0618
20
67.3797
0
VERTEX
8
CUT
10
180.3668
20
67.0137
0
VERTEX
8
CUT
10
180.6413
20
67.1967
0
VERTEX
8
CUT
10
180.7939
20
68.6304
0
VERTEX
8
CUT
10
180.4278
20
70.7047
0
VERTEX
8
CUT
10
180.3668
20
75.7683
0
VERTEX
8
CUT
10
180.5803
20
79.2153
0
SEQEND
0
POLYLINE
8
CUT
66
1
70
1
10
0.0
20
0.0
30
0.0
0
VERTEX
8
CUT
10
168.4697
20
60.4105
0
VERTEX
8
CUT
10
168.5617
20
60.2418
0
VERTEX
8
CUT
10
169.4463
20
59.8757
0
VERTEX
8
CUT
10
170.7580
20
59.7537
0
VERTEX
8
CUT
10
172.1307
20
59.9367
0
VERTEX
8
CUT
10
173.1678
20
60.3333
0
VERTEX
8
CUT
10
173.8999
20
60.8518
0
VERTEX
8
CUT
10
174.4490
20
61.4009
0
VERTEX
8
CUT
10
174.5311
20
61.6744
0
VERTEX
8
CUT
10
174.7737
20
61.9701
0
VERTEX
8
CUT
10
175.4623
20
63.9015
0
VERTEX
8
CUT
10
175.2369
20
64.2390
0
VERTEX
8
CUT
10
174.8655
20
64.2152
0
VERTEX
8
CUT
10
173.6450
20
62.4428
0
VERTEX
8
CUT
10
172.9868
20
61.9938
0
VERTEX
8
CUT
10
171.2743
20
61.5266
0
VERTEX
8
CUT
10
169.2872
20
61.5267
0
VERTEX
8
CUT
10
168.0688
20
61.7817
0
VERTEX
8
CUT
10
166.9143
20
62.3283
0
VERTEX
8
CUT
10
165.3890
20
63.4119
0
VERTEX
8
CUT
10
164.9013
20
63.3614
0
VERTEX
8
CUT
10
164.8715
20
62.8432
0
VERTEX
8
CUT
10
166.1756
20
61.6470
0
VERTEX
8
CUT
10
167.8026
20
60.6295
0
SEQEND
0
POLYLINE
8
CUT
66
1
70
1
10
0.0
20
0.0
30
0.0
0
VERTEX
8
CUT
10
159.2275
20
234.7251
0
VERTEX
8
CUT
10
158.8004
20
234.2675
0
VERTEX
8
CUT
10
157.6413
20
232.0712
0
VERTEX
8
CUT
10
156.3601
20
230.3325
0
VERTEX
8
CUT
10
155.8720
20
229.1123
0
VERTEX
8
CUT
10
155.7805
20
228.3497
0
VERTEX
8
CUT
10
155.9330
20
227.7701
0
VERTEX
8
CUT
10
156.7261
20
228.4412
0
VERTEX
8
CUT
10
158.1598
20
230.8816
0
VERTEX
8
CUT
10
159.7155
20
234.2675
0
VERTEX
8
CUT
10
159.5935
20
234.7861
0
SEQEND
0
POLYLINE
8
CUT
66
1
70
1
10
0.0
20
0.0
30
0.0
0
VERTEX
8
CUT
10
157.1837
20
206.7833
0
VERTEX
8
CUT
10
157.2447
20
207.6985
0
VERTEX
8
CUT
10
157.0617
20
207.9425
0
VERTEX
8
CUT
10
156.8177
20
207.9120
0
VERTEX
8
CUT
10
156.5126
20
207.4544
0
VERTEX
8
CUT
10
155.2620
20
203.1839
0
VERTEX
8
CUT
10
151.0219
20
193.6056
0
VERTEX
8
CUT
10
150.4423
20
191.5008
0
VERTEX
8
CUT
10
150.0153
20
188.6944
0
VERTEX
8
CUT
10
150.1678
20
188.1759
0
VERTEX
8
CUT
10
150.6253
20
188.1759
0
VERTEX
8
CUT
10
150.8389
20
188.4504
0
VERTEX
8
CUT
10
151.0524
20
190.2196
0
VERTEX
8
CUT
10
151.9065
20
192.8430
0
VERTEX
8
CUT
10
155.8720
20
202.1772
0
SEQEND
0
POLYLINE
8
CUT
66
1
70
1
10
0.0
20
0.0
30
0.0
0
VERTEX
8
CUT
10
82.3143
20
186.8866
0
VERTEX
8
CUT
10
85.5612
20
185.9981
0
VERTEX
8
CUT
10
92.7085
20
184.8475
0
VERTEX
8
CUT
10
96.8481
20
184.5425
0
VERTEX
8
CUT
10
116.8250
20
184.4182
0
VERTEX
8
CUT
10
120.0504
20
183.9867
0
VERTEX
8
CUT
10
124.2396
20
182.7943
0
VERTEX
8
CUT
10
126.7981
20
181.5946
0
VERTEX
8
CUT
10
129.3848
20
179.7274
0
VERTEX
8
CUT
10
138.2673
20
171.2419
0
VERTEX
8
CUT
10
140.6618
20
169.2430
0
VERTEX
8
CUT
10
143.9380
20
167.4862
0
VERTEX
8
CUT
10
144.5338
20
167.3257
0
VERTEX
8
CUT
10
144.8711
20
167.5904
0
VERTEX
8
CUT
10
144.7314
20
168.0284
0
VERTEX
8
CUT
10
141.9810
20
169.4674
0
VERTEX
8
CUT
10
138.8887
20
171.8571
0
VERTEX
8
CUT
10
130.1625
20
180.5567
0
VERTEX
8
CUT
10
126.9870
20
182.6939
0
VERTEX
8
CUT
10
123.3031
20
184.4133
0
VERTEX
8
CUT
10
121.5543
20
184.9545
0
VERTEX
8
CUT
10
119.2692
20
185.3751
0
VERTEX
8
CUT
10
113.7833
20
185.9822
0
VERTEX
8
CUT
10
108.2225
20
185.7698
0
VERTEX
8
CUT
10
95.8397
20
185.8003
0
VERTEX
8
CUT
10
90.5813
20
186.1666
0
VERTEX
8
CUT
10
88.3507
20
186.5071
0
VERTEX
8
CUT
10
86.2301
20
186.9383
0
VERTEX
8
CUT
10
81.8421
20
188.2182
0
VERTEX
8
CUT
10
76.7913
20
190.1762
0
VERTEX
8
CUT
10
74.8575
20
191.2050
0
VERTEX
8
CUT
10
69.5919
20
194.5771
0
VERTEX
8
CUT
10
69.0968
20
194.4219
0
VERTEX
8
CUT
10
69.1952
20
193.9125
0
VERTEX
8
CUT
10
71.5931
20
192.1573
0
VERTEX
8
CUT
10
76.3976
20
189.2860
0
SEQEND
0
POLYLINE
8
CUT
66
1
70
1
10
0.0
20
0.0
30
0.0
0
VERTEX
8
CUT
10
80.9616
20
235.3339
0
VERTEX
8
CUT
10
80.9106
20
235.6651
0
VERTEX
8
CUT
10
80.5654
20
235.8739
0
VERTEX
8
CUT
10
77.6177
20
236.7767
0
VERTEX
8
CUT
10
75.6039
20
237.0856
0
VERTEX
8
CUT
10
75.2311
20
236.7601
0
VERTEX
8
CUT
10
75.4787
20
236.3315
0
VERTEX
8
CUT
10
78.1872
20
235.7853
0
VERTEX
8
CUT
10
80.5099
20
235.0646
0
SEQEND
0
POLYLINE
8
CUT
66
1
70
1
10
0.0
20
0.0
30
0.0
0
VERTEX
8
CUT
10
54.2636
20
228.3018
0
VERTEX
8
CUT
10
56.2035
20
230.4635
0
VERTEX
8
CUT
10
58.3872
20
232.3440
0
VERTEX
8
CUT
10
60.7875
20
233.9176
0
VERTEX
8
CUT
10
63.4289
20
235.1945
0
VERTEX
8
CUT
10
68.3244
20
236.5344
0
VERTEX
8
CUT
10
68.3942
20
236.8940
0
VERTEX
8
CUT
10
68.1346
20
237.1525
0
VERTEX
8
CUT
10
65.4533
20
237.2865
0
VERTEX
8
CUT
10
65.3408
20
240.3246
0
VERTEX
8
CUT
10
65.8525
20
242.1790
0
VERTEX
8
CUT
10
65.6948
20
242.5434
0
VERTEX
8
CUT
10
65.3343
20
242.5947
0
VERTEX
8
CUT
10
64.2715
20
242.0410
0
VERTEX
8
CUT
10
59.6833
20
238.9023
0
VERTEX
8
CUT
10
57.6330
20
237.0655
0
VERTEX
8
CUT
10
55.0067
20
234.0145
0
VERTEX
8
CUT
10
52.9152
20
230.8294
0
VERTEX
8
CUT
10
51.3515
20
227.4914
0
VERTEX
8
CUT
10
50.2919
20
223.9852
0
VERTEX
8
CUT
10
49.8223
20
221.0265
0
VERTEX
8
CUT
10
50.0904
20
220.6493
0
VERTEX
8
CUT
10
50.5503
20
220.8267
0
VERTEX
8
CUT
10
51.3965
20
223.3299
0
VERTEX
8
CUT
10
52.6662
20
225.8995
0
SEQEND
0
ENDSEC
0
EOF
