0
SECTION
2
HEADER
9
$ACADVER
1
AC1009
9
$INSUNITS
70
4
0
ENDSEC
0
SECTION
2
TABLES
0
TABLE
2
LAYER
70
1
0
LAYER
2
CUT
70
0
62
7
6
CONTINUOUS
0
ENDTAB
0
ENDSEC
0
SECTION
2
ENTITIES
0
POLYLINE
8
CUT
66
1
70
1
10
0.0
20
0.0
30
0.0
0
VERTEX
8
CUT
10
0.0029
20
0.0029
0
VERTEX
8
CUT
10
0.0000
20
0.0614
0
VERTEX
8
CUT
10
0.0000
20
299.9386
0
VERTEX
8
CUT
10
0.0029
20
299.9971
0
VERTEX
8
CUT
10
0.0614
20
300.0000
0
VERTEX
8
CUT
10
299.8976
20
300.0000
0
VERTEX
8
CUT
10
299.9561
20
299.9971
0
VERTEX
8
CUT
10
299.9589
20
299.9386
0
VERTEX
8
CUT
10
299.9589
20
0.0614
0
VERTEX
8
CUT
10
299.9561
20
0.0029
0
VERTEX
8
CUT
10
299.8976
20
-0.0000
0
VERTEX
8
CUT
10
0.0614
20
-0.0000
0
SEQEND
0
POLYLINE
8
CUT
66
1
70
1
10
0.0
20
0.0
30
0.0
0
VERTEX
8
CUT
10
53.0607
20
145.8065
0
VERTEX
8
CUT
10
53.0861
20
145.2011
0
VERTEX
8
CUT
10
53.1063
20
144.9715
0
VERTEX
8
CUT
10
53.1477
20
144.7447
0
VERTEX
8
CUT
10
53.2097
20
144.5227
0
VERTEX
8
CUT
10
53.2919
20
144.3073
0
VERTEX
8
CUT
10
53.3131
20
144.2588
0
VERTEX
8
CUT
10
53.3196
20
144.2428
0
VERTEX
8
CUT
10
53.3313
20
144.2073
0
VERTEX
8
CUT
10
53.3362
20
144.1708
0
VERTEX
8
CUT
10
53.3373
20
144.1534
0
VERTEX
8
CUT
10
53.3687
20
143.4063
0
VERTEX
8
CUT
10
53.3687
20
143.4048
0
VERTEX
8
CUT
10
53.3876
20
143.1855
0
VERTEX
8
CUT
10
53.4258
20
142.9686
0
VERTEX
8
CUT
10
53.4828
20
142.7560
0
VERTEX
8
CUT
10
53.5535
20
142.5323
0
VERTEX
8
CUT
10
53.6407
20
142.2979
0
VERTEX
8
CUT
10
53.7509
20
142.0735
0
VERTEX
8
CUT
10
53.8830
20
141.8611
0
VERTEX
8
CUT
10
54.0356
20
141.6630
0
VERTEX
8
CUT
10
54.2073
20
141.4811
0
VERTEX
8
CUT
10
54.3962
20
141.3173
0
VERTEX
8
CUT
10
54.6006
20
141.1732
0
VERTEX
8
CUT
10
54.8184
20
141.0503
0
VERTEX
8
CUT
10
55.0473
20
140.9497
0
VERTEX
8
CUT
10
55.2852
20
140.8724
0
VERTEX
8
CUT
10
55.5296
20
140.8194
0
VERTEX
8
CUT
10
55.7780
20
140.7910
0
VERTEX
8
CUT
10
56.0281
20
140.7876
0
VERTEX
8
CUT
10
56.0288
20
140.7876
0
VERTEX
8
CUT
10
56.0655
20
140.7889
0
VERTEX
8
CUT
10
56.1748
20
140.7824
0
VERTEX
8
CUT
10
56.2828
20
140.7653
0
VERTEX
8
CUT
10
56.3888
20
140.7379
0
VERTEX
8
CUT
10
56.4916
20
140.7004
0
VERTEX
8
CUT
10
56.5903
20
140.6532
0
VERTEX
8
CUT
10
56.6840
20
140.5966
0
VERTEX
8
CUT
10
56.7719
20
140.5314
0
VERTEX
8
CUT
10
56.8264
20
140.4820
0
VERTEX
8
CUT
10
56.8404
20
140.4666
0
VERTEX
8
CUT
10
56.8429
20
140.4057
0
VERTEX
8
CUT
10
56.8423
20
140.3341
0
VERTEX
8
CUT
10
56.8419
20
140.3284
0
VERTEX
8
CUT
10
56.8203
20
137.8630
0
VERTEX
8
CUT
10
56.8424
20
137.5090
0
VERTEX
8
CUT
10
56.8424
20
137.5089
0
VERTEX
8
CUT
10
57.1009
20
135.5807
0
VERTEX
8
CUT
10
57.1384
20
135.3697
0
VERTEX
8
CUT
10
57.1939
20
135.1627
0
VERTEX
8
CUT
10
57.6677
20
133.6564
0
VERTEX
8
CUT
10
57.6731
20
133.6377
0
VERTEX
8
CUT
10
57.6813
20
133.5985
0
VERTEX
8
CUT
10
57.6777
20
133.5586
0
VERTEX
8
CUT
10
57.6745
20
133.5394
0
VERTEX
8
CUT
10
57.5876
20
133.0842
0
VERTEX
8
CUT
10
57.5834
20
133.0648
0
VERTEX
8
CUT
10
57.5718
20
133.0260
0
VERTEX
8
CUT
10
57.5376
20
133.0043
0
VERTEX
8
CUT
10
57.5201
20
132.9949
0
VERTEX
8
CUT
10
56.7613
20
132.6143
0
VERTEX
8
CUT
10
56.7444
20
132.6063
0
VERTEX
8
CUT
10
56.7087
20
132.5924
0
VERTEX
8
CUT
10
56.6721
20
132.6038
0
VERTEX
8
CUT
10
56.6547
20
132.6107
0
VERTEX
8
CUT
10
56.1764
20
132.8117
0
VERTEX
8
CUT
10
56.1763
20
132.8118
0
VERTEX
8
CUT
10
56.1685
20
132.8151
0
VERTEX
8
CUT
10
55.9359
20
132.8995
0
VERTEX
8
CUT
10
55.6961
20
132.9606
0
VERTEX
8
CUT
10
55.4514
20
132.9977
0
VERTEX
8
CUT
10
55.2043
20
133.0104
0
VERTEX
8
CUT
10
54.9571
20
132.9986
0
VERTEX
8
CUT
10
54.7124
20
132.9624
0
VERTEX
8
CUT
10
54.4723
20
132.9022
0
VERTEX
8
CUT
10
54.2394
20
132.8186
0
VERTEX
8
CUT
10
54.0160
20
132.7124
0
VERTEX
8
CUT
10
53.8041
20
132.5846
0
VERTEX
8
CUT
10
53.6059
20
132.4364
0
VERTEX
8
CUT
10
53.4233
20
132.2694
0
VERTEX
8
CUT
10
53.2581
20
132.0852
0
VERTEX
8
CUT
10
53.1119
20
131.8855
0
VERTEX
8
CUT
10
52.9862
20
131.6724
0
VERTEX
8
CUT
10
52.8821
20
131.4479
0
VERTEX
8
CUT
10
52.8008
20
131.2142
0
VERTEX
8
CUT
10
52.7430
20
130.9736
0
VERTEX
8
CUT
10
52.7092
20
130.7284
0
VERTEX
8
CUT
10
52.6999
20
130.4811
0
VERTEX
8
CUT
10
52.7150
20
130.2342
0
VERTEX
8
CUT
10
52.7545
20
129.9899
0
VERTEX
8
CUT
10
52.8179
20
129.7507
0
VERTEX
8
CUT
10
52.9047
20
129.5190
0
VERTEX
8
CUT
10
53.0140
20
129.2969
0
VERTEX
8
CUT
10
53.1446
20
129.0868
0
VERTEX
8
CUT
10
53.2954
20
128.8906
0
VERTEX
8
CUT
10
53.4649
20
128.7103
0
VERTEX
8
CUT
10
53.4872
20
128.6888
0
VERTEX
8
CUT
10
53.4994
20
128.6280
0
VERTEX
8
CUT
10
53.6216
20
127.8067
0
VERTEX
8
CUT
10
53.6721
20
127.5561
0
VERTEX
8
CUT
10
53.6791
20
127.5336
0
VERTEX
8
CUT
10
53.6810
20
127.5242
0
VERTEX
8
CUT
10
53.7594
20
127.2715
0
VERTEX
8
CUT
10
53.7956
20
127.1735
0
VERTEX
8
CUT
10
54.4075
20
125.5180
0
VERTEX
8
CUT
10
54.4092
20
125.5131
0
VERTEX
8
CUT
10
54.4226
20
125.4657
0
VERTEX
8
CUT
10
54.4273
20
125.4407
0
VERTEX
8
CUT
10
54.4303
20
125.4180
0
VERTEX
8
CUT
10
54.4581
20
125.1558
0
VERTEX
8
CUT
10
54.4587
20
125.1503
0
VERTEX
8
CUT
10
54.4587
20
125.1501
0
VERTEX
8
CUT
10
54.4638
20
125.1020
0
VERTEX
8
CUT
10
54.5016
20
124.8594
0
VERTEX
8
CUT
10
54.5631
20
124.6217
0
VERTEX
8
CUT
10
54.6475
20
124.3912
0
VERTEX
8
CUT
10
55.2759
20
122.9065
0
VERTEX
8
CUT
10
55.3714
20
122.7059
0
VERTEX
8
CUT
10
56.0466
20
121.4377
0
VERTEX
8
CUT
10
56.6584
20
120.1317
0
VERTEX
8
CUT
10
56.7581
20
119.9409
0
VERTEX
8
CUT
10
56.8458
20
119.7892
0
VERTEX
8
CUT
10
56.9137
20
119.6458
0
VERTEX
8
CUT
10
57.0779
20
119.3523
0
VERTEX
8
CUT
10
57.2611
20
119.0708
0
VERTEX
8
CUT
10
57.7954
20
118.1469
0
VERTEX
8
CUT
10
57.8814
20
118.0086
0
VERTEX
8
CUT
10
60.5600
20
114.0028
0
VERTEX
8
CUT
10
60.5688
20
113.9906
0
VERTEX
8
CUT
10
60.5723
20
113.9854
0
VERTEX
8
CUT
10
60.6806
20
113.8357
0
VERTEX
8
CUT
10
64.0155
20
109.5688
0
VERTEX
8
CUT
10
64.0449
20
109.5239
0
VERTEX
8
CUT
10
64.0544
20
109.5072
0
VERTEX
8
CUT
10
64.2827
20
109.0769
0
VERTEX
8
CUT
10
64.9090
20
107.8403
0
VERTEX
8
CUT
10
64.9167
20
107.8240
0
VERTEX
8
CUT
10
64.9451
20
107.7515
0
VERTEX
8
CUT
10
64.9505
20
107.7342
0
VERTEX
8
CUT
10
65.5026
20
105.7917
0
VERTEX
8
CUT
10
65.5039
20
105.7865
0
VERTEX
8
CUT
10
65.5199
20
105.7058
0
VERTEX
8
CUT
10
65.5224
20
105.6873
0
VERTEX
8
CUT
10
65.8110
20
102.9835
0
VERTEX
8
CUT
10
65.8122
20
102.9728
0
VERTEX
8
CUT
10
65.8457
20
102.7524
0
VERTEX
8
CUT
10
65.8987
20
102.5359
0
VERTEX
8
CUT
10
65.9708
20
102.3249
0
VERTEX
8
CUT
10
66.0567
20
102.1060
0
VERTEX
8
CUT
10
66.0625
20
102.0904
0
VERTEX
8
CUT
10
66.0711
20
102.0609
0
VERTEX
8
CUT
10
66.0725
20
102.0525
0
VERTEX
8
CUT
10
66.0726
20
102.0521
0
VERTEX
8
CUT
10
66.0726
20
102.0520
0
VERTEX
8
CUT
10
66.0737
20
102.0457
0
VERTEX
8
CUT
10
66.0764
20
102.0205
0
VERTEX
8
CUT
10
66.0771
20
102.0037
0
VERTEX
8
CUT
10
66.1165
20
99.8774
0
VERTEX
8
CUT
10
66.1271
20
99.6889
0
VERTEX
8
CUT
10
66.1520
20
99.5017
0
VERTEX
8
CUT
10
66.2729
20
98.7954
0
VERTEX
8
CUT
10
66.3712
20
97.1773
0
VERTEX
8
CUT
10
66.3711
20
96.1971
0
VERTEX
8
CUT
10
66.2893
20
94.9684
0
VERTEX
8
CUT
10
66.2753
20
94.7578
0
VERTEX
8
CUT
10
66.2592
20
94.5158
0
VERTEX
8
CUT
10
66.1952
20
93.5552
0
VERTEX
8
CUT
10
65.9672
20
91.5491
0
VERTEX
8
CUT
10
65.8991
20
91.3416
0
VERTEX
8
CUT
10
65.8483
20
91.1210
0
VERTEX
8
CUT
10
65.8177
20
90.8968
0
VERTEX
8
CUT
10
65.5234
20
87.6565
0
VERTEX
8
CUT
10
65.5191
20
87.6280
0
VERTEX
8
CUT
10
65.5167
20
87.6136
0
VERTEX
8
CUT
10
65.5162
20
87.6111
0
VERTEX
8
CUT
10
65.5161
20
87.6103
0
VERTEX
8
CUT
10
65.5132
20
87.5934
0
VERTEX
8
CUT
10
65.4960
20
87.5180
0
VERTEX
8
CUT
10
65.0787
20
85.9485
0
VERTEX
8
CUT
10
65.0269
20
85.7058
0
VERTEX
8
CUT
10
64.9994
20
85.4592
0
VERTEX
8
CUT
10
64.9620
20
84.8500
0
VERTEX
8
CUT
10
64.9602
20
84.8293
0
VERTEX
8
CUT
10
64.9449
20
84.7412
0
VERTEX
8
CUT
10
64.9397
20
84.7211
0
VERTEX
8
CUT
10
64.2623
20
82.3815
0
VERTEX
8
CUT
10
64.2007
20
82.1149
0
VERTEX
8
CUT
10
64.1686
20
81.8432
0
VERTEX
8
CUT
10
64.1313
20
81.2516
0
VERTEX
8
CUT
10
64.1293
20
81.2301
0
VERTEX
8
CUT
10
64.1130
20
81.1387
0
VERTEX
8
CUT
10
64.1074
20
81.1180
0
VERTEX
8
CUT
10
62.3210
20
75.1725
0
VERTEX
8
CUT
10
62.2627
20
74.9377
0
VERTEX
8
CUT
10
62.2274
20
74.6984
0
VERTEX
8
CUT
10
62.1880
20
74.2986
0
VERTEX
8
CUT
10
62.1850
20
74.2761
0
VERTEX
8
CUT
10
62.1638
20
74.1806
0
VERTEX
8
CUT
10
62.1569
20
74.1590
0
VERTEX
8
CUT
10
60.9618
20
70.7784
0
VERTEX
8
CUT
10
60.8822
20
70.5045
0
VERTEX
8
CUT
10
60.8343
20
70.2232
0
VERTEX
8
CUT
10
60.7882
20
69.8114
0
VERTEX
8
CUT
10
60.7855
20
69.7917
0
VERTEX
8
CUT
10
60.7671
20
69.7082
0
VERTEX
8
CUT
10
60.7613
20
69.6892
0
VERTEX
8
CUT
10
59.9639
20
67.3009
0
VERTEX
8
CUT
10
59.9622
20
67.2962
0
VERTEX
8
CUT
10
59.9326
20
67.2258
0
VERTEX
8
CUT
10
59.9250
20
67.2102
0
VERTEX
8
CUT
10
59.5807
20
66.5499
0
VERTEX
8
CUT
10
59.4930
20
66.3632
0
VERTEX
8
CUT
10
59.4209
20
66.1699
0
VERTEX
8
CUT
10
55.1521
20
53.0920
0
VERTEX
8
CUT
10
55.0950
20
52.8884
0
VERTEX
8
CUT
10
55.0554
20
52.6806
0
VERTEX
8
CUT
10
55.0334
20
52.4702
0
VERTEX
8
CUT
10
54.9998
20
51.9251
0
VERTEX
8
CUT
10
54.9993
20
51.9197
0
VERTEX
8
CUT
10
54.9876
20
51.8382
0
VERTEX
8
CUT
10
54.9838
20
51.8199
0
VERTEX
8
CUT
10
54.2866
20
48.8747
0
VERTEX
8
CUT
10
54.2358
20
48.5848
0
VERTEX
8
CUT
10
54.2311
20
48.5004
0
VERTEX
8
CUT
10
54.2215
20
48.4443
0
VERTEX
8
CUT
10
54.2057
20
48.1581
0
VERTEX
8
CUT
10
54.2092
20
46.7671
0
VERTEX
8
CUT
10
54.2263
20
46.4819
0
VERTEX
8
CUT
10
54.2413
20
46.3962
0
VERTEX
8
CUT
10
54.2430
20
46.3698
0
VERTEX
8
CUT
10
54.2964
20
46.0783
0
VERTEX
8
CUT
10
54.4205
20
45.5716
0
VERTEX
8
CUT
10
54.4852
20
45.3519
0
VERTEX
8
CUT
10
54.4871
20
45.3471
0
VERTEX
8
CUT
10
54.5680
20
45.1365
0
VERTEX
8
CUT
10
54.6675
20
44.9340
0
VERTEX
8
CUT
10
54.7849
20
44.7414
0
VERTEX
8
CUT
10
54.9191
20
44.5601
0
VERTEX
8
CUT
10
54.9622
20
44.5118
0
VERTEX
8
CUT
10
54.9645
20
44.5087
0
VERTEX
8
CUT
10
54.9736
20
44.4989
0
VERTEX
8
CUT
10
55.0692
20
44.3916
0
VERTEX
8
CUT
10
55.4483
20
44.0028
0
VERTEX
8
CUT
10
55.6276
20
43.8361
0
VERTEX
8
CUT
10
55.6980
20
43.7825
0
VERTEX
8
CUT
10
55.8016
20
43.6907
0
VERTEX
8
CUT
10
56.0080
20
43.5424
0
VERTEX
8
CUT
10
56.2284
20
43.4158
0
VERTEX
8
CUT
10
56.7416
20
43.1548
0
VERTEX
8
CUT
10
56.9295
20
43.0689
0
VERTEX
8
CUT
10
57.1238
20
42.9987
0
VERTEX
8
CUT
10
57.2145
20
42.9742
0
VERTEX
8
CUT
10
57.3527
20
42.9349
0
VERTEX
8
CUT
10
57.9368
20
42.7969
0
VERTEX
8
CUT
10
58.2041
20
42.7490
0
VERTEX
8
CUT
10
58.2851
20
42.7434
0
VERTEX
8
CUT
10
58.2880
20
42.7429
0
VERTEX
8
CUT
10
58.3058
20
42.7420
0
VERTEX
8
CUT
10
58.4750
20
42.7303
0
VERTEX
8
CUT
10
58.5455
20
42.7293
0
VERTEX
8
CUT
10
58.5701
20
42.7280
0
VERTEX
8
CUT
10
58.6222
20
42.7282
0
VERTEX
8
CUT
10
59.8176
20
42.7108
0
VERTEX
8
CUT
10
59.9218
20
42.7114
0
VERTEX
8
CUT
10
60.6321
20
42.7307
0
VERTEX
8
CUT
10
60.8925
20
42.7514
0
VERTEX
8
CUT
10
61.1494
20
42.7992
0
VERTEX
8
CUT
10
61.7062
20
42.9332
0
VERTEX
8
CUT
10
61.7067
20
42.9333
0
VERTEX
8
CUT
10
61.8048
20
42.9563
0
VERTEX
8
CUT
10
61.8211
20
42.9609
0
VERTEX
8
CUT
10
61.8492
20
42.9677
0
VERTEX
8
CUT
10
61.8544
20
42.9692
0
VERTEX
8
CUT
10
61.8699
20
42.9729
0
VERTEX
8
CUT
10
62.0686
20
43.0292
0
VERTEX
8
CUT
10
62.2619
20
43.1018
0
VERTEX
8
CUT
10
63.8017
20
43.7534
0
VERTEX
8
CUT
10
63.9958
20
43.8456
0
VERTEX
8
CUT
10
64.1812
20
43.9541
0
VERTEX
8
CUT
10
64.2075
20
43.9710
0
VERTEX
8
CUT
10
64.3430
20
44.0312
0
VERTEX
8
CUT
10
64.5362
20
44.1273
0
VERTEX
8
CUT
10
64.7204
20
44.2397
0
VERTEX
8
CUT
10
66.9622
20
45.7442
0
VERTEX
8
CUT
10
67.1289
20
45.8663
0
VERTEX
8
CUT
10
67.1604
20
45.8915
0
VERTEX
8
CUT
10
68.3033
20
46.7914
0
VERTEX
8
CUT
10
68.4673
20
46.9364
0
VERTEX
8
CUT
10
68.6021
20
47.0536
0
VERTEX
8
CUT
10
68.7477
20
47.2032
0
VERTEX
8
CUT
10
68.8803
20
47.3644
0
VERTEX
8
CUT
10
69.3940
20
48.0452
0
VERTEX
8
CUT
10
69.4044
20
48.0584
0
VERTEX
8
CUT
10
69.4304
20
48.0842
0
VERTEX
8
CUT
10
69.4655
20
48.1122
0
VERTEX
8
CUT
10
69.4828
20
48.1237
0
VERTEX
8
CUT
10
70.5615
20
48.8017
0
VERTEX
8
CUT
10
70.5764
20
48.8110
0
VERTEX
8
CUT
10
70.8370
20
48.9992
0
VERTEX
8
CUT
10
71.8667
20
49.8486
0
VERTEX
8
CUT
10
72.0131
20
49.9542
0
VERTEX
8
CUT
10
72.1813
20
50.0868
0
VERTEX
8
CUT
10
72.7774
20
50.5999
0
VERTEX
8
CUT
10
79.1587
20
55.8639
0
VERTEX
8
CUT
10
83.9591
20
59.5135
0
VERTEX
8
CUT
10
91.9679
20
64.8226
0
VERTEX
8
CUT
10
92.3130
20
64.7799
0
VERTEX
8
CUT
10
92.5529
20
64.6801
0
VERTEX
8
CUT
10
93.1438
20
64.0586
0
VERTEX
8
CUT
10
93.1564
20
64.0446
0
VERTEX
8
CUT
10
93.1811
20
64.0128
0
VERTEX
8
CUT
10
93.1828
20
64.0062
0
VERTEX
8
CUT
10
93.1899
20
63.9748
0
VERTEX
8
CUT
10
93.1926
20
63.9566
0
VERTEX
8
CUT
10
93.5162
20
61.3748
0
VERTEX
8
CUT
10
93.5226
20
60.9434
0
VERTEX
8
CUT
10
93.3817
20
59.5923
0
VERTEX
8
CUT
10
92.9888
20
57.1950
0
VERTEX
8
CUT
10
92.1206
20
54.3687
0
VERTEX
8
CUT
10
92.0871
20
54.2690
0
VERTEX
8
CUT
10
92.0613
20
54.2002
0
VERTEX
8
CUT
10
92.0561
20
54.1891
0
VERTEX
8
CUT
10
91.1242
20
52.3233
0
VERTEX
8
CUT
10
90.4195
20
50.9187
0
VERTEX
8
CUT
10
90.3910
20
50.8662
0
VERTEX
8
CUT
10
90.3612
20
50.8189
0
VERTEX
8
CUT
10
88.6233
20
48.2548
0
VERTEX
8
CUT
10
88.6205
20
48.2508
0
VERTEX
8
CUT
10
88.5997
20
48.2244
0
VERTEX
8
CUT
10
88.5870
20
48.2094
0
VERTEX
8
CUT
10
88.5767
20
48.1973
0
VERTEX
8
CUT
10
88.5625
20
48.1805
0
VERTEX
8
CUT
10
88.5485
20
48.1640
0
VERTEX
8
CUT
10
84.6051
20
43.9250
0
VERTEX
8
CUT
10
84.4313
20
43.7494
0
VERTEX
8
CUT
10
84.4170
20
43.7367
0
VERTEX
8
CUT
10
81.5731
20
41.3644
0
VERTEX
8
CUT
10
81.5303
20
41.3356
0
VERTEX
8
CUT
10
81.3327
20
41.2023
0
VERTEX
8
CUT
10
78.9855
20
39.6200
0
VERTEX
8
CUT
10
77.0403
20
38.3088
0
VERTEX
8
CUT
10
76.9530
20
38.2525
0
VERTEX
8
CUT
10
76.9329
20
38.2403
0
VERTEX
8
CUT
10
76.8728
20
38.2077
0
VERTEX
8
CUT
10
71.9981
20
35.7665
0
VERTEX
8
CUT
10
71.9531
20
35.7451
0
VERTEX
8
CUT
10
71.9072
20
35.7257
0
VERTEX
8
CUT
10
69.1853
20
34.6363
0
VERTEX
8
CUT
10
69.1347
20
34.6174
0
VERTEX
8
CUT
10
69.0834
20
34.6008
0
VERTEX
8
CUT
10
67.2066
20
34.0404
0
VERTEX
8
CUT
10
66.9821
20
33.9616
0
VERTEX
8
CUT
10
66.7661
20
33.8617
0
VERTEX
8
CUT
10
66.1362
20
33.5333
0
VERTEX
8
CUT
10
66.1209
20
33.5258
0
VERTEX
8
CUT
10
66.0527
20
33.4977
0
VERTEX
8
CUT
10
66.0364
20
33.4923
0
VERTEX
8
CUT
10
63.2423
20
32.6310
0
VERTEX
8
CUT
10
63.2329
20
32.6281
0
VERTEX
8
CUT
10
62.9723
20
32.5316
0
VERTEX
8
CUT
10
58.8202
20
30.7260
0
VERTEX
8
CUT
10
58.5231
20
30.5724
0
VERTEX
8
CUT
10
58.4078
20
30.5027
0
VERTEX
8
CUT
10
58.2419
20
30.4290
0
VERTEX
8
CUT
10
58.0157
20
30.3145
0
VERTEX
8
CUT
10
56.2618
20
29.3114
0
VERTEX
8
CUT
10
56.0542
20
29.1787
0
VERTEX
8
CUT
10
55.1120
20
28.5088
0
VERTEX
8
CUT
10
54.6660
20
28.2390
0
VERTEX
8
CUT
10
54.5014
20
28.1303
0
VERTEX
8
CUT
10
54.3459
20
28.0091
0
VERTEX
8
CUT
10
54.0121
20
27.7268
0
VERTEX
8
CUT
10
53.6048
20
27.4372
0
VERTEX
8
CUT
10
53.4462
20
27.3146
0
VERTEX
8
CUT
10
53.2980
20
27.1797
0
VERTEX
8
CUT
10
52.8951
20
26.7823
0
VERTEX
8
CUT
10
52.5572
20
26.4967
0
VERTEX
8
CUT
10
52.3845
20
26.3360
0
VERTEX
8
CUT
10
50.7841
20
24.7005
0
VERTEX
8
CUT
10
49.8285
20
23.7581
0
VERTEX
8
CUT
10
49.6813
20
23.5998
0
VERTEX
8
CUT
10
49.5799
20
23.4698
0
VERTEX
8
CUT
10
49.3996
20
23.2855
0
VERTEX
8
CUT
10
49.2507
20
23.1191
0
VERTEX
8
CUT
10
49.1173
20
22.9401
0
VERTEX
8
CUT
10
47.6783
20
20.8178
0
VERTEX
8
CUT
10
47.5150
20
20.5400
0
VERTEX
8
CUT
10
46.8233
20
19.1677
0
VERTEX
8
CUT
10
46.7152
20
18.9209
0
VERTEX
8
CUT
10
46.0416
20
17.1259
0
VERTEX
8
CUT
10
45.9685
20
16.8986
0
VERTEX
8
CUT
10
45.9174
20
16.6653
0
VERTEX
8
CUT
10
45.8888
20
16.4281
0
VERTEX
8
CUT
10
45.8829
20
16.1894
0
VERTEX
8
CUT
10
45.8999
20
15.9511
0
VERTEX
8
CUT
10
45.9395
20
15.7156
0
VERTEX
8
CUT
10
46.0014
20
15.4849
0
VERTEX
8
CUT
10
46.0851
20
15.2612
0
VERTEX
8
CUT
10
46.1897
20
15.0465
0
VERTEX
8
CUT
10
46.3143
20
14.8428
0
VERTEX
8
CUT
10
46.4578
20
14.6518
0
VERTEX
8
CUT
10
46.6188
20
14.4755
0
VERTEX
8
CUT
10
46.7960
20
14.3153
0
VERTEX
8
CUT
10
46.9876
20
14.1727
0
VERTEX
8
CUT
10
47.1920
20
14.0491
0
VERTEX
8
CUT
10
47.4072
20
13.9456
0
VERTEX
8
CUT
10
47.6313
20
13.8630
0
VERTEX
8
CUT
10
47.6502
20
13.8571
0
VERTEX
8
CUT
10
47.9696
20
13.7565
0
VERTEX
8
CUT
10
48.1403
20
13.7093
0
VERTEX
8
CUT
10
53.9754
20
12.3168
0
VERTEX
8
CUT
10
54.1166
20
12.2874
0
VERTEX
8
CUT
10
60.5925
20
11.1318
0
VERTEX
8
CUT
10
60.7071
20
11.1141
0
VERTEX
8
CUT
10
67.7483
20
10.1923
0
VERTEX
8
CUT
10
67.7821
20
10.1878
0
VERTEX
8
CUT
10
67.8731
20
10.1776
0
VERTEX
8
CUT
10
75.5807
20
9.4543
0
VERTEX
8
CUT
10
75.6519
20
9.4487
0
VERTEX
8
CUT
10
84.0371
20
8.9028
0
VERTEX
8
CUT
10
84.1127
20
8.8990
0
VERTEX
8
CUT
10
102.9850
20
8.2435
0
VERTEX
8
CUT
10
103.0440
20
8.2421
0
VERTEX
8
CUT
10
124.8490
20
8.0002
0
VERTEX
8
CUT
10
124.8768
20
8.0001
0
VERTEX
8
CUT
10
174.7791
20
8.0000
0
VERTEX
8
CUT
10
174.8069
20
8.0002
0
VERTEX
8
CUT
10
196.6218
20
8.2421
0
VERTEX
8
CUT
10
196.6808
20
8.2435
0
VERTEX
8
CUT
10
215.5531
20
8.8990
0
VERTEX
8
CUT
10
215.6287
20
8.9028
0
VERTEX
8
CUT
10
224.0030
20
9.4478
0
VERTEX
8
CUT
10
224.0741
20
9.4535
0
VERTEX
8
CUT
10
231.7927
20
10.1776
0
VERTEX
8
CUT
10
231.8837
20
10.1878
0
VERTEX
8
CUT
10
238.9588
20
11.1141
0
VERTEX
8
CUT
10
239.0732
20
11.1318
0
VERTEX
8
CUT
10
245.5276
20
12.2829
0
VERTEX
8
CUT
10
245.6687
20
12.3123
0
VERTEX
8
CUT
10
251.5257
20
13.7094
0
VERTEX
8
CUT
10
251.6960
20
13.7564
0
VERTEX
8
CUT
10
253.6628
20
14.3753
0
VERTEX
8
CUT
10
256.9804
20
15.4192
0
VERTEX
8
CUT
10
257.1799
20
15.4914
0
VERTEX
8
CUT
10
261.9200
20
17.4383
0
VERTEX
8
CUT
10
262.1445
20
17.5438
0
VERTEX
8
CUT
10
266.3730
20
19.7940
0
VERTEX
8
CUT
10
266.6127
20
19.9393
0
VERTEX
8
CUT
10
270.3675
20
22.5147
0
VERTEX
8
CUT
10
270.6078
20
22.7020
0
VERTEX
8
CUT
10
273.9652
20
25.6651
0
VERTEX
8
CUT
10
274.1863
20
25.8864
0
VERTEX
8
CUT
10
275.2333
20
27.0741
0
VERTEX
8
CUT
10
275.3880
20
27.2683
0
VERTEX
8
CUT
10
275.5227
20
27.4769
0
VERTEX
8
CUT
10
275.6360
20
27.6978
0
VERTEX
8
CUT
10
275.7269
20
27.9289
0
VERTEX
8
CUT
10
275.7944
20
28.1678
0
VERTEX
8
CUT
10
275.8379
20
28.4123
0
VERTEX
8
CUT
10
275.8569
20
28.6599
0
VERTEX
8
CUT
10
275.8513
20
28.9081
0
VERTEX
8
CUT
10
275.8210
20
29.1545
0
VERTEX
8
CUT
10
275.7665
20
29.3968
0
VERTEX
8
CUT
10
275.6882
20
29.6324
0
VERTEX
8
CUT
10
275.5869
20
29.8591
0
VERTEX
8
CUT
10
275.4636
20
30.0746
0
VERTEX
8
CUT
10
273.7244
20
32.7928
0
VERTEX
8
CUT
10
273.6007
20
32.9688
0
VERTEX
8
CUT
10
270.0961
20
37.5286
0
VERTEX
8
CUT
10
269.9785
20
37.6705
0
VERTEX
8
CUT
10
267.6414
20
40.2870
0
VERTEX
8
CUT
10
267.5446
20
40.3895
0
VERTEX
8
CUT
10
261.8384
20
46.0954
0
VERTEX
8
CUT
10
261.7233
20
46.2035
0
VERTEX
8
CUT
10
257.2462
20
50.1478
0
VERTEX
8
CUT
10
257.1569
20
50.2229
0
VERTEX
8
CUT
10
251.6186
20
54.6607
0
VERTEX
8
CUT
10
251.5652
20
54.7023
0
VERTEX
8
CUT
10
241.7488
20
62.1407
0
VERTEX
8
CUT
10
241.7355
20
62.1510
0
VERTEX
8
CUT
10
241.7073
20
62.1737
0
VERTEX
8
CUT
10
233.8115
20
68.6844
0
VERTEX
8
CUT
10
233.7789
20
68.7122
0
VERTEX
8
CUT
10
233.7473
20
68.7413
0
VERTEX
8
CUT
10
227.1696
20
75.0116
0
VERTEX
8
CUT
10
227.1345
20
75.0465
0
VERTEX
8
CUT
10
227.1009
20
75.0828
0
VERTEX
8
CUT
10
222.4790
20
80.2858
0
VERTEX
8
CUT
10
222.4549
20
80.3138
0
VERTEX
8
CUT
10
222.4317
20
80.3425
0
VERTEX
8
CUT
10
220.4158
20
82.9166
0
VERTEX
8
CUT
10
220.3891
20
82.9521
0
VERTEX
8
CUT
10
220.3637
20
82.9886
0
VERTEX
8
CUT
10
218.1842
20
86.2450
0
VERTEX
8
CUT
10
218.1514
20
86.2969
0
VERTEX
8
CUT
10
218.1213
20
86.3503
0
VERTEX
8
CUT
10
215.6414
20
91.0341
0
VERTEX
8
CUT
10
215.6391
20
91.0388
0
VERTEX
8
CUT
10
215.6074
20
91.1118
0
VERTEX
8
CUT
10
215.6013
20
91.1289
0
VERTEX
8
CUT
10
214.5103
20
94.4005
0
VERTEX
8
CUT
10
214.4958
20
94.4471
0
VERTEX
8
CUT
10
214.4832
20
94.4942
0
VERTEX
8
CUT
10
214.2135
20
95.5962
0
VERTEX
8
CUT
10
214.2095
20
95.6145
0
VERTEX
8
CUT
10
214.1982
20
95.6941
0
VERTEX
8
CUT
10
214.1970
20
95.7128
0
VERTEX
8
CUT
10
214.1714
20
96.3237
0
VERTEX
8
CUT
10
214.1512
20
96.5528
0
VERTEX
8
CUT
10
214.1101
20
96.7791
0
VERTEX
8
CUT
10
214.0483
20
97.0006
0
VERTEX
8
CUT
10
213.9664
20
97.2155
0
VERTEX
8
CUT
10
213.9594
20
97.2317
0
VERTEX
8
CUT
10
213.9523
20
97.2491
0
VERTEX
8
CUT
10
213.9400
20
97.2876
0
VERTEX
8
CUT
10
213.9357
20
97.3278
0
VERTEX
8
CUT
10
213.9350
20
97.3466
0
VERTEX
8
CUT
10
213.9124
20
100.1532
0
VERTEX
8
CUT
10
213.9143
20
100.1808
0
VERTEX
8
CUT
10
213.9166
20
100.1985
0
VERTEX
8
CUT
10
214.2260
20
102.2013
0
VERTEX
8
CUT
10
214.2277
20
102.2105
0
VERTEX
8
CUT
10
214.2390
20
102.2568
0
VERTEX
8
CUT
10
214.2482
20
102.2837
0
VERTEX
8
CUT
10
214.2576
20
102.3063
0
VERTEX
8
CUT
10
215.3148
20
104.6800
0
VERTEX
8
CUT
10
215.3247
20
104.7004
0
VERTEX
8
CUT
10
215.3751
20
104.7845
0
VERTEX
8
CUT
10
215.3885
20
104.8029
0
VERTEX
8
CUT
10
216.5841
20
106.3403
0
VERTEX
8
CUT
10
216.5875
20
106.3445
0
VERTEX
8
CUT
10
216.6224
20
106.3824
0
VERTEX
8
CUT
10
216.6421
20
106.4003
0
VERTEX
8
CUT
10
216.6608
20
106.4153
0
VERTEX
8
CUT
10
217.9414
20
107.3887
0
VERTEX
8
CUT
10
217.9719
20
107.4079
0
VERTEX
8
CUT
10
217.9872
20
107.4161
0
VERTEX
8
CUT
10
219.6682
20
108.2676
0
VERTEX
8
CUT
10
219.6872
20
108.2766
0
VERTEX
8
CUT
10
219.7725
20
108.3084
0
VERTEX
8
CUT
10
219.7928
20
108.3141
0
VERTEX
8
CUT
10
221.9932
20
108.8630
0
VERTEX
8
CUT
10
222.0145
20
108.8677
0
VERTEX
8
CUT
10
222.1076
20
108.8797
0
VERTEX
8
CUT
10
222.1293
20
108.8806
0
VERTEX
8
CUT
10
223.3802
20
108.8968
0
VERTEX
8
CUT
10
223.3974
20
108.8966
0
VERTEX
8
CUT
10
223.4343
20
108.8937
0
VERTEX
8
CUT
10
223.4696
20
108.8843
0
VERTEX
8
CUT
10
223.4860
20
108.8786
0
VERTEX
8
CUT
10
223.7315
20
108.7882
0
VERTEX
8
CUT
10
223.9699
20
108.7136
0
VERTEX
8
CUT
10
224.2147
20
108.6632
0
VERTEX
8
CUT
10
224.4632
20
108.6374
0
VERTEX
8
CUT
10
225.5771
20
108.5781
0
VERTEX
8
CUT
10
225.5956
20
108.5767
0
VERTEX
8
CUT
10
225.6350
20
108.5706
0
VERTEX
8
CUT
10
225.6708
20
108.5533
0
VERTEX
8
CUT
10
225.6869
20
108.5439
0
VERTEX
8
CUT
10
227.0821
20
107.6874
0
VERTEX
8
CUT
10
227.1478
20
107.6440
0
VERTEX
8
CUT
10
227.1680
20
107.6286
0
VERTEX
8
CUT
10
227.1803
20
107.6185
0
VERTEX
8
CUT
10
230.0166
20
105.1731
0
VERTEX
8
CUT
10
230.1608
20
105.0577
0
VERTEX
8
CUT
10
232.0839
20
103.6329
0
VERTEX
8
CUT
10
233.5611
20
102.4316
0
VERTEX
8
CUT
10
233.7904
20
102.2657
0
VERTEX
8
CUT
10
234.8135
20
101.6106
0
VERTEX
8
CUT
10
235.2085
20
101.3180
0
VERTEX
8
CUT
10
235.3727
20
101.2062
0
VERTEX
8
CUT
10
235.5452
20
101.1077
0
VERTEX
8
CUT
10
235.8285
20
100.9607
0
VERTEX
8
CUT
10
236.6427
20
100.4394
0
VERTEX
8
CUT
10
236.8711
20
100.3096
0
VERTEX
8
CUT
10
242.9711
20
97.2540
0
VERTEX
8
CUT
10
243.3099
20
97.0782
0
VERTEX
8
CUT
10
243.4483
20
97.0150
0
VERTEX
8
CUT
10
243.8351
20
96.8212
0
VERTEX
8
CUT
10
244.0293
20
96.7341
0
VERTEX
8
CUT
10
246.9258
20
95.5798
0
VERTEX
8
CUT
10
249.7061
20
94.1876
0
VERTEX
8
CUT
10
249.7635
20
94.1569
0
VERTEX
8
CUT
10
249.8192
20
94.1231
0
VERTEX
8
CUT
10
252.5150
20
92.3816
0
VERTEX
8
CUT
10
254.3626
20
91.0103
0
VERTEX
8
CUT
10
254.9654
20
90.5628
0
VERTEX
8
CUT
10
256.9574
20
88.9063
0
VERTEX
8
CUT
10
258.1656
20
87.6932
0
VERTEX
8
CUT
10
258.7333
20
87.0727
0
VERTEX
8
CUT
10
259.4606
20
86.2777
0
VERTEX
8
CUT
10
259.7046
20
86.0110
0
VERTEX
8
CUT
10
260.9368
20
84.6641
0
VERTEX
8
CUT
10
260.9670
20
84.6270
0
VERTEX
8
CUT
10
260.9851
20
84.6035
0
VERTEX
8
CUT
10
260.9980
20
84.5854
0
VERTEX
8
CUT
10
263.1957
20
81.3108
0
VERTEX
8
CUT
10
263.2250
20
81.2641
0
VERTEX
8
CUT
10
263.2516
20
81.2171
0
VERTEX
8
CUT
10
263.2592
20
81.2015
0
VERTEX
8
CUT
10
264.6380
20
78.2170
0
VERTEX
8
CUT
10
266.0291
20
74.2812
0
VERTEX
8
CUT
10
266.0462
20
74.2290
0
VERTEX
8
CUT
10
266.0467
20
74.2274
0
VERTEX
8
CUT
10
266.0609
20
74.1718
0
VERTEX
8
CUT
10
266.6250
20
71.7152
0
VERTEX
8
CUT
10
266.6408
20
71.4651
0
VERTEX
8
CUT
10
266.6731
20
71.1925
0
VERTEX
8
CUT
10
266.7351
20
70.9250
0
VERTEX
8
CUT
10
266.8260
20
70.6660
0
VERTEX
8
CUT
10
266.8791
20
70.5380
0
VERTEX
8
CUT
10
266.8852
20
70.5221
0
VERTEX
8
CUT
10
266.8916
20
70.5015
0
VERTEX
8
CUT
10
266.8926
20
70.4935
0
VERTEX
8
CUT
10
266.9036
20
70.3559
0
VERTEX
8
CUT
10
266.9344
20
69.2631
0
VERTEX
8
CUT
10
266.9570
20
68.9909
0
VERTEX
8
CUT
10
267.0092
20
68.7227
0
VERTEX
8
CUT
10
267.0430
20
68.6140
0
VERTEX
8
CUT
10
267.1903
20
66.7747
0
VERTEX
8
CUT
10
267.2262
20
66.5078
0
VERTEX
8
CUT
10
267.2906
20
66.2463
0
VERTEX
8
CUT
10
267.3828
20
65.9932
0
VERTEX
8
CUT
10
267.4118
20
65.9253
0
VERTEX
8
CUT
10
267.4238
20
65.8971
0
VERTEX
8
CUT
10
267.4302
20
65.8811
0
VERTEX
8
CUT
10
267.4416
20
65.8458
0
VERTEX
8
CUT
10
267.4463
20
65.8094
0
VERTEX
8
CUT
10
267.4473
20
65.7920
0
VERTEX
8
CUT
10
267.4878
20
64.6723
0
VERTEX
8
CUT
10
267.5076
20
64.4363
0
VERTEX
8
CUT
10
267.5496
20
64.2032
0
VERTEX
8
CUT
10
267.9935
20
62.2700
0
VERTEX
8
CUT
10
267.9969
20
62.2536
0
VERTEX
8
CUT
10
268.0067
20
62.1817
0
VERTEX
8
CUT
10
268.0079
20
62.1649
0
VERTEX
8
CUT
10
268.0443
20
61.3934
0
VERTEX
8
CUT
10
268.0655
20
61.1653
0
VERTEX
8
CUT
10
268.1076
20
60.9401
0
VERTEX
8
CUT
10
268.1701
20
60.7196
0
VERTEX
8
CUT
10
268.5794
20
59.4932
0
VERTEX
8
CUT
10
268.7128
20
59.1707
0
VERTEX
8
CUT
10
270.2216
20
56.1394
0
VERTEX
8
CUT
10
270.3633
20
55.8914
0
VERTEX
8
CUT
10
272.0861
20
53.2398
0
VERTEX
8
CUT
10
272.2312
20
53.0390
0
VERTEX
8
CUT
10
272.3956
20
52.8535
0
VERTEX
8
CUT
10
274.8544
20
50.3406
0
VERTEX
8
CUT
10
274.8556
20
50.3394
0
VERTEX
8
CUT
10
275.0550
20
50.1565
0
VERTEX
8
CUT
10
276.4150
20
49.0386
0
VERTEX
8
CUT
10
276.6119
20
48.8924
0
VERTEX
8
CUT
10
276.6198
20
48.8876
0
VERTEX
8
CUT
10
276.6521
20
48.8637
0
VERTEX
8
CUT
10
276.8667
20
48.7360
0
VERTEX
8
CUT
10
277.8370
20
48.2225
0
VERTEX
8
CUT
10
281.2380
20
46.4009
0
VERTEX
8
CUT
10
281.5088
20
46.2760
0
VERTEX
8
CUT
10
281.5323
20
46.2668
0
VERTEX
8
CUT
10
281.6278
20
46.2163
0
VERTEX
8
CUT
10
281.8843
20
46.0985
0
VERTEX
8
CUT
10
282.1526
20
46.0105
0
VERTEX
8
CUT
10
282.2661
20
45.9802
0
VERTEX
8
CUT
10
282.5542
20
45.8676
0
VERTEX
8
CUT
10
282.7825
20
45.7909
0
VERTEX
8
CUT
10
283.0172
20
45.7365
0
VERTEX
8
CUT
10
283.2559
20
45.7049
0
VERTEX
8
CUT
10
283.4966
20
45.6964
0
VERTEX
8
CUT
10
283.7370
20
45.7112
0
VERTEX
8
CUT
10
283.9749
20
45.7490
0
VERTEX
8
CUT
10
284.2080
20
45.8095
0
VERTEX
8
CUT
10
284.4342
20
45.8922
0
VERTEX
8
CUT
10
284.6514
20
45.9963
0
VERTEX
8
CUT
10
284.8576
20
46.1207
0
VERTEX
8
CUT
10
285.0508
20
46.2645
0
VERTEX
8
CUT
10
285.2294
20
46.4261
0
VERTEX
8
CUT
10
285.3915
20
46.6042
0
VERTEX
8
CUT
10
285.5357
20
46.7971
0
VERTEX
8
CUT
10
285.6608
20
47.0030
0
VERTEX
8
CUT
10
285.7654
20
47.2199
0
VERTEX
8
CUT
10
285.8487
20
47.4459
0
VERTEX
8
CUT
10
285.8637
20
47.4936
0
VERTEX
8
CUT
10
286.0613
20
48.1218
0
VERTEX
8
CUT
10
286.1084
20
48.2921
0
VERTEX
8
CUT
10
287.5055
20
54.1491
0
VERTEX
8
CUT
10
287.5348
20
54.2901
0
VERTEX
8
CUT
10
288.6832
20
60.7270
0
VERTEX
8
CUT
10
288.7009
20
60.8414
0
VERTEX
8
CUT
10
289.6299
20
67.9340
0
VERTEX
8
CUT
10
289.6402
20
68.0251
0
VERTEX
8
CUT
10
290.3643
20
75.7436
0
VERTEX
8
CUT
10
290.3699
20
75.8148
0
VERTEX
8
CUT
10
290.4018
20
76.3042
0
VERTEX
8
CUT
10
290.4024
20
76.3136
0
VERTEX
8
CUT
10
290.9150
20
84.1891
0
VERTEX
8
CUT
10
290.9187
20
84.2647
0
VERTEX
8
CUT
10
291.5742
20
103.1376
0
VERTEX
8
CUT
10
291.5756
20
103.2043
0
VERTEX
8
CUT
10
291.8479
20
137.0825
0
VERTEX
8
CUT
10
291.8480
20
137.1074
0
VERTEX
8
CUT
10
291.7732
20
175.8837
0
VERTEX
8
CUT
10
291.7732
20
175.8843
0
VERTEX
8
CUT
10
291.7332
20
196.6459
0
VERTEX
8
CUT
10
291.7140
20
206.5986
0
VERTEX
8
CUT
10
291.7137
20
206.6282
0
VERTEX
8
CUT
10
291.4728
20
224.1588
0
VERTEX
8
CUT
10
291.4721
20
224.1958
0
VERTEX
8
CUT
10
291.4135
20
226.2488
0
VERTEX
8
CUT
10
291.4134
20
226.2497
0
VERTEX
8
CUT
10
291.0460
20
239.1159
0
VERTEX
8
CUT
10
291.0423
20
239.1976
0
VERTEX
8
CUT
10
289.9420
20
257.1321
0
VERTEX
8
CUT
10
289.9289
20
257.2766
0
VERTEX
8
CUT
10
289.3652
20
261.9777
0
VERTEX
8
CUT
10
288.8205
20
266.5203
0
VERTEX
8
CUT
10
288.8006
20
266.6551
0
VERTEX
8
CUT
10
288.1294
20
270.4776
0
VERTEX
8
CUT
10
288.0890
20
270.6652
0
VERTEX
8
CUT
10
286.4299
20
277.1459
0
VERTEX
8
CUT
10
286.3506
20
277.3988
0
VERTEX
8
CUT
10
285.4242
20
279.8850
0
VERTEX
8
CUT
10
285.3357
20
280.0932
0
VERTEX
8
CUT
10
284.3012
20
282.2501
0
VERTEX
8
CUT
10
284.1690
20
282.4907
0
VERTEX
8
CUT
10
283.0257
20
284.3263
0
VERTEX
8
CUT
10
282.8412
20
284.5843
0
VERTEX
8
CUT
10
281.6338
20
286.0652
0
VERTEX
8
CUT
10
281.3981
20
286.3166
0
VERTEX
8
CUT
10
280.0953
20
287.5274
0
VERTEX
8
CUT
10
279.8198
20
287.7493
0
VERTEX
8
CUT
10
278.3991
20
288.7363
0
VERTEX
8
CUT
10
278.1087
20
288.9102
0
VERTEX
8
CUT
10
276.5374
20
289.7117
0
VERTEX
8
CUT
10
276.2622
20
289.8319
0
VERTEX
8
CUT
10
274.5979
20
290.4423
0
VERTEX
8
CUT
10
274.2518
20
290.5416
0
VERTEX
8
CUT
10
270.4297
20
291.3456
0
VERTEX
8
CUT
10
270.0270
20
291.4303
0
VERTEX
8
CUT
10
269.7152
20
291.4757
0
VERTEX
8
CUT
10
264.7385
20
291.8806
0
VERTEX
8
CUT
10
264.5829
20
291.8884
0
VERTEX
8
CUT
10
258.6996
20
291.9993
0
VERTEX
8
CUT
10
258.6503
20
291.9998
0
VERTEX
8
CUT
10
224.5496
20
291.9698
0
VERTEX
8
CUT
10
224.5088
20
291.9694
0
VERTEX
8
CUT
10
222.2076
20
291.9298
0
VERTEX
8
CUT
10
221.9682
20
291.9142
0
VERTEX
8
CUT
10
221.7313
20
291.8756
0
VERTEX
8
CUT
10
221.4992
20
291.8146
0
VERTEX
8
CUT
10
221.2740
20
291.7315
0
VERTEX
8
CUT
10
221.0579
20
291.6273
0
VERTEX
8
CUT
10
220.8527
20
291.5028
0
VERTEX
8
CUT
10
220.6604
20
291.3592
0
VERTEX
8
CUT
10
220.4828
20
291.1978
0
VERTEX
8
CUT
10
220.3214
20
291.0202
0
VERTEX
8
CUT
10
220.1779
20
290.8279
0
VERTEX
8
CUT
10
220.0534
20
290.6227
0
VERTEX
8
CUT
10
219.9492
20
290.4065
0
VERTEX
8
CUT
10
219.8662
20
290.1813
0
VERTEX
8
CUT
10
219.8051
20
289.9492
0
VERTEX
8
CUT
10
219.7666
20
289.7123
0
VERTEX
8
CUT
10
219.7510
20
289.4729
0
VERTEX
8
CUT
10
219.7584
20
289.2330
0
VERTEX
8
CUT
10
219.7888
20
288.9949
0
VERTEX
8
CUT
10
219.8419
20
288.7609
0
VERTEX
8
CUT
10
219.9172
20
288.5330
0
VERTEX
8
CUT
10
220.2806
20
287.5878
0
VERTEX
8
CUT
10
220.3863
20
287.3505
0
VERTEX
8
CUT
10
221.5837
20
284.9991
0
VERTEX
8
CUT
10
221.6022
20
284.9612
0
VERTEX
8
CUT
10
221.6193
20
284.9226
0
VERTEX
8
CUT
10
224.6507
20
277.7562
0
VERTEX
8
CUT
10
224.6681
20
277.7126
0
VERTEX
8
CUT
10
224.6838
20
277.6684
0
VERTEX
8
CUT
10
225.7696
20
274.4085
0
VERTEX
8
CUT
10
225.7834
20
274.3643
0
VERTEX
8
CUT
10
225.7955
20
274.3195
0
VERTEX
8
CUT
10
226.6021
20
271.0767
0
VERTEX
8
CUT
10
226.6062
20
271.0582
0
VERTEX
8
CUT
10
226.6178
20
270.9771
0
VERTEX
8
CUT
10
226.6191
20
270.9581
0
VERTEX
8
CUT
10
226.6548
20
270.1060
0
VERTEX
8
CUT
10
226.6740
20
269.8842
0
VERTEX
8
CUT
10
226.7129
20
269.6650
0
VERTEX
8
CUT
10
227.1568
20
267.6804
0
VERTEX
8
CUT
10
227.1606
20
267.6613
0
VERTEX
8
CUT
10
227.1704
20
267.5780
0
VERTEX
8
CUT
10
227.1711
20
267.5586
0
VERTEX
8
CUT
10
227.2037
20
265.1250
0
VERTEX
8
CUT
10
227.2229
20
264.8474
0
VERTEX
8
CUT
10
227.2728
20
264.5737
0
VERTEX
8
CUT
10
227.4228
20
263.9504
0
VERTEX
8
CUT
10
227.4270
20
263.9308
0
VERTEX
8
CUT
10
227.4381
20
263.8452
0
VERTEX
8
CUT
10
227.4391
20
263.8253
0
VERTEX
8
CUT
10
227.4806
20
262.0507
0
VERTEX
8
CUT
10
227.4806
20
262.0328
0
VERTEX
8
CUT
10
227.4751
20
261.9556
0
VERTEX
8
CUT
10
227.4725
20
261.9379
0
VERTEX
8
CUT
10
227.2429
20
260.5763
0
VERTEX
8
CUT
10
227.2187
20
260.3906
0
VERTEX
8
CUT
10
227.2084
20
260.2037
0
VERTEX
8
CUT
10
227.1622
20
257.5243
0
VERTEX
8
CUT
10
227.1615
20
257.5066
0
VERTEX
8
CUT
10
227.1530
20
257.4307
0
VERTEX
8
CUT
10
227.1498
20
257.4132
0
VERTEX
8
CUT
10
226.0721
20
252.2435
0
VERTEX
8
CUT
10
226.0559
20
252.1756
0
VERTEX
8
CUT
10
226.0357
20
252.1089
0
VERTEX
8
CUT
10
224.9537
20
248.8716
0
VERTEX
8
CUT
10
224.9240
20
248.7923
0
VERTEX
8
CUT
10
224.8888
20
248.7154
0
VERTEX
8
CUT
10
222.4787
20
243.9078
0
VERTEX
8
CUT
10
222.4371
20
243.8319
0
VERTEX
8
CUT
10
222.3901
20
243.7592
0
VERTEX
8
CUT
10
219.8968
20
240.1925
0
VERTEX
8
CUT
10
219.8492
20
240.1290
0
VERTEX
8
CUT
10
219.7974
20
240.0688
0
VERTEX
8
CUT
10
216.4545
20
236.4322
0
VERTEX
8
CUT
10
216.4083
20
236.3847
0
VERTEX
8
CUT
10
216.3596
20
236.3398
0
VERTEX
8
CUT
10
214.7562
20
234.9439
0
VERTEX
8
CUT
10
214.7503
20
234.9388
0
VERTEX
8
CUT
10
214.7491
20
234.9378
0
VERTEX
8
CUT
10
214.7478
20
234.9367
0
VERTEX
8
CUT
10
214.7383
20
234.9284
0
VERTEX
8
CUT
10
214.7271
20
234.9186
0
VERTEX
8
CUT
10
213.9284
20
234.2233
0
VERTEX
8
CUT
10
213.8860
20
234.1881
0
VERTEX
8
CUT
10
213.8420
20
234.1549
0
VERTEX
8
CUT
10
210.0373
20
231.4170
0
VERTEX
8
CUT
10
210.0327
20
231.4138
0
VERTEX
8
CUT
10
209.9601
20
231.3703
0
VERTEX
8
CUT
10
209.9430
20
231.3615
0
VERTEX
8
CUT
10
201.8282
20
227.4592
0
VERTEX
8
CUT
10
201.6092
20
227.3401
0
VERTEX
8
CUT
10
198.2118
20
225.2666
0
VERTEX
8
CUT
10
198.1960
20
225.2575
0
VERTEX
8
CUT
10
198.1610
20
225.2407
0
VERTEX
8
CUT
10
198.1261
20
225.2576
0
VERTEX
8
CUT
10
198.1102
20
225.2667
0
VERTEX
8
CUT
10
197.8835
20
225.4058
0
VERTEX
8
CUT
10
197.8689
20
225.4153
0
VERTEX
8
CUT
10
197.8394
20
225.4374
0
VERTEX
8
CUT
10
197.8366
20
225.4742
0
VERTEX
8
CUT
10
197.8365
20
225.4916
0
VERTEX
8
CUT
10
197.8409
20
225.7299
0
VERTEX
8
CUT
10
197.8417
20
225.7472
0
VERTEX
8
CUT
10
197.8458
20
225.7841
0
VERTEX
8
CUT
10
197.8661
20
225.8152
0
VERTEX
8
CUT
10
197.8765
20
225.8290
0
VERTEX
8
CUT
10
201.3554
20
230.2144
0
VERTEX
8
CUT
10
201.4735
20
230.3762
0
VERTEX
8
CUT
10
203.0667
20
232.7531
0
VERTEX
8
CUT
10
203.1700
20
232.9213
0
VERTEX
8
CUT
10
204.4665
20
235.2308
0
VERTEX
8
CUT
10
204.5745
20
235.4471
0
VERTEX
8
CUT
10
205.5826
20
237.7365
0
VERTEX
8
CUT
10
205.6933
20
238.0395
0
VERTEX
8
CUT
10
206.9604
20
242.3535
0
VERTEX
8
CUT
10
207.0105
20
242.5547
0
VERTEX
8
CUT
10
207.0438
20
242.7595
0
VERTEX
8
CUT
10
207.0600
20
242.9663
0
VERTEX
8
CUT
10
207.1100
20
244.3266
0
VERTEX
8
CUT
10
207.1112
20
244.3464
0
VERTEX
8
CUT
10
207.1173
20
244.3887
0
VERTEX
8
CUT
10
207.1278
20
244.4302
0
VERTEX
8
CUT
10
207.1342
20
244.4490
0
VERTEX
8
CUT
10
207.1839
20
244.5834
0
VERTEX
8
CUT
10
207.2509
20
244.7919
0
VERTEX
8
CUT
10
207.2993
20
245.0054
0
VERTEX
8
CUT
10
207.3288
20
245.2224
0
VERTEX
8
CUT
10
207.3393
20
245.4412
0
VERTEX
8
CUT
10
207.3504
20
248.3002
0
VERTEX
8
CUT
10
207.3390
20
248.5491
0
VERTEX
8
CUT
10
207.3028
20
248.7956
0
VERTEX
8
CUT
10
207.2423
20
249.0373
0
VERTEX
8
CUT
10
207.1267
20
249.4175
0
VERTEX
8
CUT
10
207.1252
20
249.4227
0
VERTEX
8
CUT
10
207.1144
20
249.4729
0
VERTEX
8
CUT
10
207.1111
20
249.4993
0
VERTEX
8
CUT
10
207.1097
20
249.5230
0
VERTEX
8
CUT
10
207.0716
20
250.5763
0
VERTEX
8
CUT
10
207.0426
20
250.8759
0
VERTEX
8
CUT
10
206.9779
20
251.1698
0
VERTEX
8
CUT
10
205.9798
20
254.6797
0
VERTEX
8
CUT
10
205.9172
20
254.8703
0
VERTEX
8
CUT
10
205.8396
20
255.0552
0
VERTEX
8
CUT
10
204.0435
20
258.8946
0
VERTEX
8
CUT
10
203.9382
20
259.0955
0
VERTEX
8
CUT
10
203.8151
20
259.2859
0
VERTEX
8
CUT
10
200.5795
20
263.8274
0
VERTEX
8
CUT
10
200.4163
20
264.0327
0
VERTEX
8
CUT
10
193.3735
20
271.9984
0
VERTEX
8
CUT
10
193.3295
20
272.0511
0
VERTEX
8
CUT
10
193.2886
20
272.1063
0
VERTEX
8
CUT
10
190.8238
20
275.6422
0
VERTEX
8
CUT
10
190.7943
20
275.6866
0
VERTEX
8
CUT
10
190.7669
20
275.7322
0
VERTEX
8
CUT
10
189.6936
20
277.6089
0
VERTEX
8
CUT
10
189.6672
20
277.6577
0
VERTEX
8
CUT
10
189.6431
20
277.7077
0
VERTEX
8
CUT
10
188.3189
20
280.6226
0
VERTEX
8
CUT
10
188.2896
20
280.6930
0
VERTEX
8
CUT
10
188.2649
20
280.7653
0
VERTEX
8
CUT
10
187.1932
20
284.2512
0
VERTEX
8
CUT
10
187.1918
20
284.2564
0
VERTEX
8
CUT
10
187.1741
20
284.3358
0
VERTEX
8
CUT
10
187.1713
20
284.3540
0
VERTEX
8
CUT
10
186.8820
20
286.5734
0
VERTEX
8
CUT
10
186.8448
20
286.7864
0
VERTEX
8
CUT
10
186.7894
20
286.9953
0
VERTEX
8
CUT
10
186.7161
20
287.1988
0
VERTEX
8
CUT
10
186.6454
20
287.3710
0
VERTEX
8
CUT
10
186.6434
20
287.3762
0
VERTEX
8
CUT
10
186.6287
20
287.4228
0
VERTEX
8
CUT
10
186.6250
20
287.4517
0
VERTEX
8
CUT
10
186.6234
20
287.4762
0
VERTEX
8
CUT
10
186.5738
20
288.7124
0
VERTEX
8
CUT
10
186.5521
20
288.9553
0
VERTEX
8
CUT
10
186.5069
20
289.1949
0
VERTEX
8
CUT
10
186.4386
20
289.4289
0
VERTEX
8
CUT
10
186.3478
20
289.6552
0
VERTEX
8
CUT
10
186.2354
20
289.8715
0
VERTEX
8
CUT
10
186.1025
20
290.0759
0
VERTEX
8
CUT
10
185.9503
20
290.2664
0
VERTEX
8
CUT
10
185.7803
20
290.4411
0
VERTEX
8
CUT
10
185.5940
20
290.5984
0
VERTEX
8
CUT
10
185.3933
20
290.7369
0
VERTEX
8
CUT
10
185.1801
20
290.8551
0
VERTEX
8
CUT
10
184.9564
20
290.9520
0
VERTEX
8
CUT
10
184.7243
20
291.0266
0
VERTEX
8
CUT
10
184.4860
20
291.0783
0
VERTEX
8
CUT
10
182.9235
20
291.3382
0
VERTEX
8
CUT
10
182.6486
20
291.3685
0
VERTEX
8
CUT
10
177.2671
20
291.6604
0
VERTEX
8
CUT
10
177.1620
20
291.6638
0
VERTEX
8
CUT
10
163.0714
20
291.8349
0
VERTEX
8
CUT
10
161.0635
20
291.8592
0
VERTEX
8
CUT
10
153.3005
20
291.9535
0
VERTEX
8
CUT
10
153.2707
20
291.9536
0
VERTEX
8
CUT
10
137.4008
20
291.9573
0
VERTEX
8
CUT
10
137.3996
20
291.9572
0
VERTEX
8
CUT
10
81.5359
20
291.9697
0
VERTEX
8
CUT
10
81.4718
20
291.9689
0
VERTEX
8
CUT
10
77.1376
20
291.8587
0
VERTEX
8
CUT
10
77.1305
20
291.8585
0
VERTEX
8
CUT
10
61.6563
20
291.4652
0
VERTEX
8
CUT
10
61.5070
20
291.4569
0
VERTEX
8
CUT
10
50.5870
20
290.5237
0
VERTEX
8
CUT
10
50.4309
20
290.5054
0
VERTEX
8
CUT
10
45.6866
20
289.7976
0
VERTEX
8
CUT
10
45.5457
20
289.7724
0
VERTEX
8
CUT
10
41.1561
20
288.8580
0
VERTEX
8
CUT
10
40.9837
20
288.8156
0
VERTEX
8
CUT
10
37.0524
20
287.7004
0
VERTEX
8
CUT
10
36.8475
20
287.6326
0
VERTEX
8
CUT
10
33.2410
20
286.2635
0
VERTEX
8
CUT
10
33.0091
20
286.1618
0
VERTEX
8
CUT
10
32.2921
20
285.8028
0
VERTEX
8
CUT
10
32.0767
20
285.6813
0
VERTEX
8
CUT
10
31.8744
20
285.5392
0
VERTEX
8
CUT
10
31.6871
20
285.3777
0
VERTEX
8
CUT
10
31.5167
20
285.1985
0
VERTEX
8
CUT
10
31.3648
20
285.0034
0
VERTEX
8
CUT
10
31.2330
20
284.7942
0
VERTEX
8
CUT
10
31.1224
20
284.5731
0
VERTEX
8
CUT
10
31.0342
20
284.3420
0
VERTEX
8
CUT
10
30.9693
20
284.1034
0
VERTEX
8
CUT
10
30.9283
20
283.8596
0
VERTEX
8
CUT
10
30.9116
20
283.6129
0
VERTEX
8
CUT
10
30.9193
20
283.3658
0
VERTEX
8
CUT
10
30.9514
20
283.1206
0
VERTEX
8
CUT
10
31.0076
20
282.8798
0
VERTEX
8
CUT
10
31.0872
20
282.6457
0
VERTEX
8
CUT
10
31.1896
20
282.4206
0
VERTEX
8
CUT
10
31.3138
20
282.2068
0
VERTEX
8
CUT
10
33.6941
20
278.5372
0
VERTEX
8
CUT
10
33.8246
20
278.3546
0
VERTEX
8
CUT
10
35.7717
20
275.8729
0
VERTEX
8
CUT
10
35.8768
20
275.7476
0
VERTEX
8
CUT
10
38.3799
20
272.9544
0
VERTEX
8
CUT
10
38.4864
20
272.8427
0
VERTEX
8
CUT
10
41.9923
20
269.3859
0
VERTEX
8
CUT
10
42.1476
20
269.2451
0
VERTEX
8
CUT
10
45.2031
20
266.7002
0
VERTEX
8
CUT
10
45.4125
20
266.5436
0
VERTEX
8
CUT
10
51.9245
20
262.1847
0
VERTEX
8
CUT
10
52.1435
20
262.0538
0
VERTEX
8
CUT
10
56.3800
20
259.8064
0
VERTEX
8
CUT
10
56.5849
20
259.7093
0
VERTEX
8
CUT
10
56.7977
20
259.6312
0
VERTEX
8
CUT
10
57.0167
20
259.5727
0
VERTEX
8
CUT
10
57.2086
20
259.5307
0
VERTEX
8
CUT
10
57.2287
20
259.5257
0
VERTEX
8
CUT
10
57.3135
20
259.4971
0
VERTEX
8
CUT
10
57.3325
20
259.4888
0
VERTEX
8
CUT
10
60.4186
20
258.0501
0
VERTEX
8
CUT
10
60.7091
20
257.9361
0
VERTEX
8
CUT
10
68.0782
20
255.5649
0
VERTEX
8
CUT
10
68.3714
20
255.4898
0
VERTEX
8
CUT
10
68.6715
20
255.4507
0
VERTEX
8
CUT
10
69.2748
20
255.4090
0
VERTEX
8
CUT
10
69.2936
20
255.4072
0
VERTEX
8
CUT
10
69.3740
20
255.3935
0
VERTEX
8
CUT
10
69.3923
20
255.3889
0
VERTEX
8
CUT
10
72.8507
20
254.4320
0
VERTEX
8
CUT
10
72.8559
20
254.4306
0
VERTEX
8
CUT
10
73.1263
20
254.3716
0
VERTEX
8
CUT
10
73.4016
20
254.3429
0
VERTEX
8
CUT
10
74.5835
20
254.2857
0
VERTEX
8
CUT
10
74.6026
20
254.2843
0
VERTEX
8
CUT
10
74.6256
20
254.2808
0
VERTEX
8
CUT
10
74.6522
20
254.2707
0
VERTEX
8
CUT
10
74.6700
20
254.2623
0
VERTEX
8
CUT
10
74.7048
20
254.2448
0
VERTEX
8
CUT
10
75.5113
20
253.7347
0
VERTEX
8
CUT
10
75.7237
20
253.4282
0
VERTEX
8
CUT
10
75.7706
20
253.3043
0
VERTEX
8
CUT
10
75.7762
20
253.2883
0
VERTEX
8
CUT
10
75.7687
20
253.2728
0
VERTEX
8
CUT
10
75.6416
20
253.0239
0
VERTEX
8
CUT
10
75.5232
20
252.8427
0
VERTEX
8
CUT
10
75.5154
20
252.8315
0
VERTEX
8
CUT
10
75.5070
20
252.8256
0
VERTEX
8
CUT
10
73.7934
20
251.6780
0
VERTEX
8
CUT
10
72.7249
20
250.9767
0
VERTEX
8
CUT
10
72.5172
20
250.8244
0
VERTEX
8
CUT
10
72.4761
20
250.7873
0
VERTEX
8
CUT
10
72.4032
20
250.7332
0
VERTEX
8
CUT
10
72.2254
20
250.5728
0
VERTEX
8
CUT
10
71.8993
20
250.2491
0
VERTEX
8
CUT
10
71.3940
20
249.7651
0
VERTEX
8
CUT
10
71.2536
20
249.6192
0
VERTEX
8
CUT
10
71.2221
20
249.5808
0
VERTEX
8
CUT
10
71.0974
20
249.4486
0
VERTEX
8
CUT
10
71.0871
20
249.4356
0
VERTEX
8
CUT
10
71.0307
20
249.3747
0
VERTEX
8
CUT
10
70.9030
20
249.2119
0
VERTEX
8
CUT
10
70.4342
20
248.5601
0
VERTEX
8
CUT
10
70.3259
20
248.3964
0
VERTEX
8
CUT
10
70.3123
20
248.3717
0
VERTEX
8
CUT
10
70.2890
20
248.3367
0
VERTEX
8
CUT
10
70.1902
20
248.1582
0
VERTEX
8
CUT
10
70.1807
20
248.1392
0
VERTEX
8
CUT
10
69.0396
20
245.8635
0
VERTEX
8
CUT
10
68.9359
20
245.6268
0
VERTEX
8
CUT
10
68.8571
20
245.3807
0
VERTEX
8
CUT
10
68.8551
20
245.3729
0
VERTEX
8
CUT
10
68.8465
20
245.3472
0
VERTEX
8
CUT
10
68.5588
20
244.2824
0
VERTEX
8
CUT
10
68.5071
20
244.0465
0
VERTEX
8
CUT
10
68.5011
20
243.9961
0
VERTEX
8
CUT
10
68.4845
20
243.9170
0
VERTEX
8
CUT
10
68.4579
20
243.6621
0
VERTEX
8
CUT
10
68.4575
20
243.4059
0
VERTEX
8
CUT
10
68.6088
20
240.3640
0
VERTEX
8
CUT
10
68.6304
20
240.1373
0
VERTEX
8
CUT
10
68.6726
20
239.9136
0
VERTEX
8
CUT
10
68.6950
20
239.8349
0
VERTEX
8
CUT
10
68.6964
20
239.8268
0
VERTEX
8
CUT
10
68.7637
20
239.5864
0
VERTEX
8
CUT
10
69.1358
20
238.4738
0
VERTEX
8
CUT
10
69.2922
20
237.9995
0
VERTEX
8
CUT
10
69.3086
20
237.9572
0
VERTEX
8
CUT
10
69.3259
20
237.9056
0
VERTEX
8
CUT
10
69.4073
20
237.6944
0
VERTEX
8
CUT
10
69.5076
20
237.4913
0
VERTEX
8
CUT
10
69.6258
20
237.2982
0
VERTEX
8
CUT
10
69.7609
20
237.1166
0
VERTEX
8
CUT
10
70.6389
20
236.0422
0
VERTEX
8
CUT
10
70.8178
20
235.8457
0
VERTEX
8
CUT
10
70.8438
20
235.8199
0
VERTEX
8
CUT
10
70.9046
20
235.7473
0
VERTEX
8
CUT
10
71.0737
20
235.5641
0
VERTEX
8
CUT
10
72.0774
20
234.5810
0
VERTEX
8
CUT
10
72.3072
20
234.3248
0
VERTEX
8
CUT
10
72.5074
20
234.1256
0
VERTEX
8
CUT
10
72.8885
20
233.7870
0
VERTEX
8
CUT
10
73.0552
20
233.6513
0
VERTEX
8
CUT
10
73.2329
20
233.5303
0
VERTEX
8
CUT
10
73.4204
20
233.4251
0
VERTEX
8
CUT
10
75.5448
20
232.3502
0
VERTEX
8
CUT
10
75.8004
20
232.2383
0
VERTEX
8
CUT
10
76.0669
20
232.1555
0
VERTEX
8
CUT
10
76.0693
20
232.1550
0
VERTEX
8
CUT
10
76.0719
20
232.1541
0
VERTEX
8
CUT
10
76.3687
20
232.0797
0
VERTEX
8
CUT
10
76.3849
20
232.0722
0
VERTEX
8
CUT
10
76.6120
20
231.9806
0
VERTEX
8
CUT
10
76.8469
20
231.9115
0
VERTEX
8
CUT
10
77.0875
20
231.8658
0
VERTEX
8
CUT
10
77.3909
20
231.8235
0
VERTEX
8
CUT
10
77.8356
20
231.7120
0
VERTEX
8
CUT
10
78.1026
20
231.6603
0
VERTEX
8
CUT
10
78.1069
20
231.6599
0
VERTEX
8
CUT
10
78.1185
20
231.6577
0
VERTEX
8
CUT
10
78.3896
20
231.6355
0
VERTEX
8
CUT
10
78.8219
20
231.6236
0
VERTEX
8
CUT
10
80.2836
20
231.4195
0
VERTEX
8
CUT
10
80.3603
20
231.4018
0
VERTEX
8
CUT
10
80.6151
20
231.3702
0
VERTEX
8
CUT
10
80.8718
20
231.3649
0
VERTEX
8
CUT
10
81.1277
20
231.3859
0
VERTEX
8
CUT
10
81.3800
20
231.4330
0
VERTEX
8
CUT
10
81.5896
20
231.4835
0
VERTEX
8
CUT
10
81.6300
20
231.4926
0
VERTEX
8
CUT
10
81.6448
20
231.4967
0
VERTEX
8
CUT
10
82.0172
20
231.5863
0
VERTEX
8
CUT
10
82.0372
20
231.5906
0
VERTEX
8
CUT
10
82.0827
20
231.5964
0
VERTEX
8
CUT
10
84.3771
20
231.6426
0
VERTEX
8
CUT
10
84.6100
20
231.6582
0
VERTEX
8
CUT
10
84.8405
20
231.6954
0
VERTEX
8
CUT
10
85.0665
20
231.7540
0
VERTEX
8
CUT
10
85.0689
20
231.7548
0
VERTEX
8
CUT
10
86.2465
20
232.1195
0
VERTEX
8
CUT
10
86.2517
20
232.1210
0
VERTEX
8
CUT
10
86.3017
20
232.1321
0
VERTEX
8
CUT
10
86.3280
20
232.1355
0
VERTEX
8
CUT
10
86.3518
20
232.1371
0
VERTEX
8
CUT
10
87.3368
20
232.1783
0
VERTEX
8
CUT
10
87.3833
20
232.1829
0
VERTEX
8
CUT
10
87.5427
20
232.1966
0
VERTEX
8
CUT
10
87.5698
20
232.2014
0
VERTEX
8
CUT
10
87.6199
20
232.2064
0
VERTEX
8
CUT
10
87.7154
20
232.2270
0
VERTEX
8
CUT
10
87.7594
20
232.2347
0
VERTEX
8
CUT
10
87.7933
20
232.2438
0
VERTEX
8
CUT
10
87.8980
20
232.2664
0
VERTEX
8
CUT
10
88.1675
20
232.3576
0
VERTEX
8
CUT
10
88.3305
20
232.4234
0
VERTEX
8
CUT
10
88.3471
20
232.4296
0
VERTEX
8
CUT
10
88.3647
20
232.4348
0
VERTEX
8
CUT
10
88.3930
20
232.4298
0
VERTEX
8
CUT
10
88.4102
20
232.4254
0
VERTEX
8
CUT
10
88.9162
20
232.2844
0
VERTEX
8
CUT
10
89.1235
20
232.2360
0
VERTEX
8
CUT
10
89.3342
20
232.2055
0
VERTEX
8
CUT
10
89.5222
20
232.1944
0
VERTEX
8
CUT
10
89.5603
20
232.1920
0
VERTEX
8
CUT
10
90.5072
20
232.1745
0
VERTEX
8
CUT
10
90.6048
20
232.1746
0
VERTEX
8
CUT
10
90.6350
20
232.1753
0
VERTEX
8
CUT
10
90.6800
20
232.1745
0
VERTEX
8
CUT
10
90.6803
20
232.1745
0
VERTEX
8
CUT
10
90.6804
20
232.1745
0
VERTEX
8
CUT
10
90.7835
20
232.1750
0
VERTEX
8
CUT
10
91.4581
20
232.1918
0
VERTEX
8
CUT
10
91.4581
20
232.1919
0
VERTEX
8
CUT
10
91.4647
20
232.1920
0
VERTEX
8
CUT
10
91.4717
20
232.1925
0
VERTEX
8
CUT
10
91.4722
20
232.1925
0
VERTEX
8
CUT
10
91.6921
20
232.2068
0
VERTEX
8
CUT
10
91.9099
20
232.2403
0
VERTEX
8
CUT
10
92.1240
20
232.2930
0
VERTEX
8
CUT
10
92.3325
20
232.3642
0
VERTEX
8
CUT
10
92.4829
20
232.4231
0
VERTEX
8
CUT
10
92.5009
20
232.4296
0
VERTEX
8
CUT
10
92.5168
20
232.4340
0
VERTEX
8
CUT
10
92.5441
20
232.4250
0
VERTEX
8
CUT
10
92.5615
20
232.4176
0
VERTEX
8
CUT
10
92.7555
20
232.3302
0
VERTEX
8
CUT
10
92.7593
20
232.3285
0
VERTEX
8
CUT
10
92.9575
20
232.2492
0
VERTEX
8
CUT
10
93.1618
20
232.1870
0
VERTEX
8
CUT
10
93.3706
20
232.1426
0
VERTEX
8
CUT
10
95.1272
20
231.8462
0
VERTEX
8
CUT
10
95.1320
20
231.8453
0
VERTEX
8
CUT
10
95.1833
20
231.8327
0
VERTEX
8
CUT
10
98.1351
20
230.7656
0
VERTEX
8
CUT
10
98.3813
20
230.6395
0
VERTEX
8
CUT
10
98.9616
20
230.2276
0
VERTEX
8
CUT
10
99.1225
20
230.1134
0
VERTEX
8
CUT
10
99.2338
20
230.0344
0
VERTEX
8
CUT
10
99.4322
20
229.8936
0
VERTEX
8
CUT
10
99.8060
20
229.6283
0
VERTEX
8
CUT
10
100.4135
20
229.1495
0
VERTEX
8
CUT
10
101.7145
20
228.1047
0
VERTEX
8
CUT
10
101.8550
20
227.9642
0
VERTEX
8
CUT
10
101.8722
20
227.9470
0
VERTEX
8
CUT
10
101.8941
20
227.9251
0
VERTEX
8
CUT
10
101.9295
20
227.8897
0
VERTEX
8
CUT
10
101.9575
20
227.8618
0
VERTEX
8
CUT
10
103.7250
20
225.3552
0
VERTEX
8
CUT
10
103.8340
20
225.2005
0
VERTEX
8
CUT
10
103.8349
20
225.1983
0
VERTEX
8
CUT
10
103.8474
20
225.1672
0
VERTEX
8
CUT
10
103.9221
20
224.9807
0
VERTEX
8
CUT
10
104.2193
20
224.2392
0
VERTEX
8
CUT
10
104.6740
20
222.8343
0
VERTEX
8
CUT
10
105.0727
20
221.6023
0
VERTEX
8
CUT
10
105.1216
20
221.3750
0
VERTEX
8
CUT
10
105.1250
20
221.3572
0
VERTEX
8
CUT
10
105.1281
20
221.3300
0
VERTEX
8
CUT
10
105.1427
20
219.8540
0
VERTEX
8
CUT
10
104.9646
20
219.1337
0
VERTEX
8
CUT
10
104.9137
20
218.8661
0
VERTEX
8
CUT
10
104.8922
20
218.5945
0
VERTEX
8
CUT
10
104.8907
20
218.5315
0
VERTEX
8
CUT
10
104.8891
20
218.5109
0
VERTEX
8
CUT
10
104.8481
20
217.0061
0
VERTEX
8
CUT
10
104.8470
20
216.9859
0
VERTEX
8
CUT
10
104.8460
20
216.9787
0
VERTEX
8
CUT
10
104.8373
20
216.9431
0
VERTEX
8
CUT
10
104.8309
20
216.9239
0
VERTEX
8
CUT
10
104.0429
20
214.7607
0
VERTEX
8
CUT
10
103.9490
20
214.5896
0
VERTEX
8
CUT
10
103.9329
20
214.5602
0
VERTEX
8
CUT
10
103.9307
20
214.5562
0
VERTEX
8
CUT
10
103.8766
20
214.4870
0
VERTEX
8
CUT
10
103.8628
20
214.4693
0
VERTEX
8
CUT
10
103.2897
20
213.7756
0
VERTEX
8
CUT
10
102.4513
20
212.7963
0
VERTEX
8
CUT
10
99.3746
20
210.8148
0
VERTEX
8
CUT
10
99.3595
20
210.8056
0
VERTEX
8
CUT
10
99.3258
20
210.7881
0
VERTEX
8
CUT
10
99.2906
20
210.7739
0
VERTEX
8
CUT
10
99.2738
20
210.7684
0
VERTEX
8
CUT
10
96.5263
20
209.9471
0
VERTEX
8
CUT
10
96.5213
20
209.9457
0
VERTEX
8
CUT
10
96.4728
20
209.9353
0
VERTEX
8
CUT
10
96.4473
20
209.9322
0
VERTEX
8
CUT
10
96.4243
20
209.9307
0
VERTEX
8
CUT
10
95.3947
20
209.8892
0
VERTEX
8
CUT
10
95.1536
20
209.8678
0
VERTEX
8
CUT
10
94.9157
20
209.8231
0
VERTEX
8
CUT
10
94.6832
20
209.7557
0
VERTEX
8
CUT
10
94.4589
20
209.6786
0
VERTEX
8
CUT
10
94.4397
20
209.6726
0
VERTEX
8
CUT
10
94.3976
20
209.6630
0
VERTEX
8
CUT
10
94.3547
20
209.6580
0
VERTEX
8
CUT
10
94.3346
20
209.6572
0
VERTEX
8
CUT
10
85.5693
20
209.5714
0
VERTEX
8
CUT
10
85.2841
20
209.5523
0
VERTEX
8
CUT
10
85.0028
20
209.5007
0
VERTEX
8
CUT
10
82.1117
20
208.7973
0
VERTEX
8
CUT
10
81.9262
20
208.7446
0
VERTEX
8
CUT
10
81.7454
20
208.6776
0
VERTEX
8
CUT
10
78.7518
20
207.4367
0
VERTEX
8
CUT
10
78.5763
20
207.3559
0
VERTEX
8
CUT
10
78.4075
20
207.2617
0
VERTEX
8
CUT
10
76.0044
20
205.7963
0
VERTEX
8
CUT
10
75.7190
20
205.5936
0
VERTEX
8
CUT
10
74.1721
20
204.3226
0
VERTEX
8
CUT
10
73.9695
20
204.1367
0
VERTEX
8
CUT
10
72.4030
20
202.5309
0
VERTEX
8
CUT
10
72.2633
20
202.3751
0
VERTEX
8
CUT
10
72.1371
20
202.2082
0
VERTEX
8
CUT
10
69.9838
20
199.0980
0
VERTEX
8
CUT
10
69.9806
20
199.0937
0
VERTEX
8
CUT
10
69.9481
20
199.0541
0
VERTEX
8
CUT
10
69.9295
20
199.0352
0
VERTEX
8
CUT
10
69.9118
20
199.0193
0
VERTEX
8
CUT
10
69.5101
20
198.6763
0
VERTEX
8
CUT
10
69.4961
20
198.6649
0
VERTEX
8
CUT
10
69.4644
20
198.6427
0
VERTEX
8
CUT
10
69.4277
20
198.6305
0
VERTEX
8
CUT
10
69.4102
20
198.6261
0
VERTEX
8
CUT
10
69.0346
20
198.5405
0
VERTEX
8
CUT
10
68.9920
20
198.5318
0
VERTEX
8
CUT
10
68.7900
20
198.4964
0
VERTEX
8
CUT
10
68.5556
20
198.4311
0
VERTEX
8
CUT
10
68.3285
20
198.3434
0
VERTEX
8
CUT
10
68.1111
20
198.2340
0
VERTEX
8
CUT
10
67.9054
20
198.1040
0
VERTEX
8
CUT
10
67.7132
20
197.9546
0
VERTEX
8
CUT
10
67.5365
20
197.7873
0
VERTEX
8
CUT
10
67.3769
20
197.6035
0
VERTEX
8
CUT
10
67.2360
20
197.4051
0
VERTEX
8
CUT
10
67.1150
20
197.1939
0
VERTEX
8
CUT
10
67.0151
20
196.9720
0
VERTEX
8
CUT
10
66.9372
20
196.7414
0
VERTEX
8
CUT
10
66.8822
20
196.5043
0
VERTEX
8
CUT
10
66.8504
20
196.2630
0
VERTEX
8
CUT
10
66.8428
20
196.0344
0
VERTEX
8
CUT
10
66.8350
20
196.0191
0
VERTEX
8
CUT
10
66.4807
20
195.3640
0
VERTEX
8
CUT
10
66.4722
20
195.3491
0
VERTEX
8
CUT
10
66.4518
20
195.3185
0
VERTEX
8
CUT
10
66.4186
20
195.3034
0
VERTEX
8
CUT
10
66.4023
20
195.2973
0
VERTEX
8
CUT
10
64.8048
20
194.7420
0
VERTEX
8
CUT
10
64.6039
20
194.6623
0
VERTEX
8
CUT
10
64.4107
20
194.5655
0
VERTEX
8
CUT
10
64.2265
20
194.4524
0
VERTEX
8
CUT
10
62.2104
20
193.0909
0
VERTEX
8
CUT
10
62.0206
20
192.9491
0
VERTEX
8
CUT
10
61.8451
20
192.7901
0
VERTEX
8
CUT
10
59.4278
20
190.3816
0
VERTEX
8
CUT
10
59.2674
20
190.2058
0
VERTEX
8
CUT
10
59.1244
20
190.0154
0
VERTEX
8
CUT
10
57.0778
20
187.0026
0
VERTEX
8
CUT
10
56.9049
20
186.7063
0
VERTEX
8
CUT
10
55.9779
20
184.8324
0
VERTEX
8
CUT
10
55.8925
20
184.6397
0
VERTEX
8
CUT
10
55.8236
20
184.4405
0
VERTEX
8
CUT
10
55.0780
20
181.9480
0
VERTEX
8
CUT
10
55.0178
20
181.7023
0
VERTEX
8
CUT
10
54.8346
20
180.7467
0
VERTEX
8
CUT
10
54.8052
20
180.5526
0
VERTEX
8
CUT
10
54.7911
20
180.3568
0
VERTEX
8
CUT
10
54.7269
20
178.3746
0
VERTEX
8
CUT
10
54.7331
20
178.1004
0
VERTEX
8
CUT
10
54.7723
20
177.5952
0
VERTEX
8
CUT
10
54.7739
20
177.5331
0
VERTEX
8
CUT
10
54.7265
20
177.4859
0
VERTEX
8
CUT
10
54.5923
20
177.3554
0
VERTEX
8
CUT
10
54.4644
20
177.2101
0
VERTEX
8
CUT
10
53.2366
20
175.7017
0
VERTEX
8
CUT
10
53.0816
20
175.4893
0
VERTEX
8
CUT
10
52.9497
20
175.2618
0
VERTEX
8
CUT
10
52.3204
20
174.0314
0
VERTEX
8
CUT
10
52.2302
20
173.8343
0
VERTEX
8
CUT
10
52.1574
20
173.6302
0
VERTEX
8
CUT
10
52.1026
20
173.4206
0
VERTEX
8
CUT
10
52.0660
20
173.2514
0
VERTEX
8
CUT
10
52.0258
20
173.0069
0
VERTEX
8
CUT
10
52.0100
20
172.7596
0
VERTEX
8
CUT
10
52.0187
20
172.5120
0
VERTEX
8
CUT
10
52.0519
20
172.2664
0
VERTEX
8
CUT
10
52.1093
20
172.0254
0
VERTEX
8
CUT
10
52.1902
20
171.7912
0
VERTEX
8
CUT
10
52.2939
20
171.5662
0
VERTEX
8
CUT
10
52.4194
20
171.3525
0
VERTEX
8
CUT
10
52.5654
20
171.1523
0
VERTEX
8
CUT
10
52.7306
20
170.9675
0
VERTEX
8
CUT
10
52.9132
20
170.8000
0
VERTEX
8
CUT
10
53.1114
20
170.6514
0
VERTEX
8
CUT
10
53.3235
20
170.5232
0
VERTEX
8
CUT
10
53.5471
20
170.4166
0
VERTEX
8
CUT
10
53.7803
20
170.3326
0
VERTEX
8
CUT
10
54.0206
20
170.2722
0
VERTEX
8
CUT
10
54.2657
20
170.2358
0
VERTEX
8
CUT
10
54.5132
20
170.2238
0
VERTEX
8
CUT
10
54.7606
20
170.2365
0
VERTEX
8
CUT
10
55.0056
20
170.2735
0
VERTEX
8
CUT
10
55.2458
20
170.3346
0
VERTEX
8
CUT
10
56.0741
20
170.5898
0
VERTEX
8
CUT
10
56.1332
20
170.6049
0
VERTEX
8
CUT
10
56.2398
20
170.6212
0
VERTEX
8
CUT
10
56.4772
20
170.6694
0
VERTEX
8
CUT
10
56.7087
20
170.7403
0
VERTEX
8
CUT
10
56.9323
20
170.8333
0
VERTEX
8
CUT
10
57.0408
20
170.8848
0
VERTEX
8
CUT
10
57.0898
20
170.9024
0
VERTEX
8
CUT
10
57.1419
20
170.9187
0
VERTEX
8
CUT
10
57.1561
20
170.9227
0
VERTEX
8
CUT
10
57.1943
20
170.9306
0
VERTEX
8
CUT
10
57.2332
20
170.9348
0
VERTEX
8
CUT
10
57.2521
20
170.9355
0
VERTEX
8
CUT
10
58.0914
20
170.9463
0
VERTEX
8
CUT
10
59.7594
20
170.9676
0
VERTEX
8
CUT
10
59.7762
20
170.9677
0
VERTEX
8
CUT
10
59.8133
20
170.9672
0
VERTEX
8
CUT
10
61.3078
20
170.9256
0
VERTEX
8
CUT
10
61.3255
20
170.9247
0
VERTEX
8
CUT
10
61.3623
20
170.9203
0
VERTEX
8
CUT
10
61.3986
20
170.9126
0
VERTEX
8
CUT
10
61.4153
20
170.9079
0
VERTEX
8
CUT
10
62.7080
20
170.5114
0
VERTEX
8
CUT
10
62.9179
20
170.4568
0
VERTEX
8
CUT
10
63.1316
20
170.4207
0
VERTEX
8
CUT
10
63.3477
20
170.4032
0
VERTEX
8
CUT
10
64.4435
20
170.3621
0
VERTEX
8
CUT
10
64.4651
20
170.3607
0
VERTEX
8
CUT
10
64.5092
20
170.3542
0
VERTEX
8
CUT
10
64.5524
20
170.3429
0
VERTEX
8
CUT
10
64.5728
20
170.3357
0
VERTEX
8
CUT
10
64.7269
20
170.2768
0
VERTEX
8
CUT
10
64.9378
20
170.2068
0
VERTEX
8
CUT
10
65.1540
20
170.1558
0
VERTEX
8
CUT
10
65.3740
20
170.1241
0
VERTEX
8
CUT
10
65.5959
20
170.1121
0
VERTEX
8
CUT
10
66.8158
20
170.1005
0
VERTEX
8
CUT
10
66.7751
20
170.0682
0
VERTEX
8
CUT
10
66.6856
20
169.9812
0
VERTEX
8
CUT
10
66.6053
20
169.8858
0
VERTEX
8
CUT
10
66.5348
20
169.7829
0
VERTEX
8
CUT
10
66.4750
20
169.6734
0
VERTEX
8
CUT
10
66.4264
20
169.5585
0
VERTEX
8
CUT
10
66.3894
20
169.4394
0
VERTEX
8
CUT
10
66.3646
20
169.3171
0
VERTEX
8
CUT
10
66.3520
20
169.1930
0
VERTEX
8
CUT
10
66.3519
20
169.0683
0
VERTEX
8
CUT
10
66.3642
20
168.9441
0
VERTEX
8
CUT
10
66.3888
20
168.8218
0
VERTEX
8
CUT
10
66.4255
20
168.7026
0
VERTEX
8
CUT
10
66.4739
20
168.5876
0
VERTEX
8
CUT
10
66.5335
20
168.4780
0
VERTEX
8
CUT
10
66.6037
20
168.3750
0
VERTEX
8
CUT
10
66.6199
20
168.3557
0
VERTEX
8
CUT
10
65.9753
20
168.5534
0
VERTEX
8
CUT
10
65.8361
20
168.5894
0
VERTEX
8
CUT
10
65.7209
20
168.6083
0
VERTEX
8
CUT
10
65.5775
20
168.6187
0
VERTEX
8
CUT
10
64.5236
20
168.6481
0
VERTEX
8
CUT
10
64.4467
20
168.6487
0
VERTEX
8
CUT
10
62.4343
20
168.6232
0
VERTEX
8
CUT
10
62.2820
20
168.6140
0
VERTEX
8
CUT
10
62.1597
20
168.5948
0
VERTEX
8
CUT
10
62.0120
20
168.5569
0
VERTEX
8
CUT
10
60.0699
20
167.9586
0
VERTEX
8
CUT
10
60.0411
20
167.9501
0
VERTEX
8
CUT
10
59.9807
20
167.9332
0
VERTEX
8
CUT
10
59.9517
20
167.9254
0
VERTEX
8
CUT
10
59.9324
20
167.9205
0
VERTEX
8
CUT
10
59.8738
20
167.9072
0
VERTEX
8
CUT
10
59.7674
20
167.8858
0
VERTEX
8
CUT
10
59.6490
20
167.8681
0
VERTEX
8
CUT
10
59.5294
20
167.8622
0
VERTEX
8
CUT
10
59.4099
20
167.8683
0
VERTEX
8
CUT
10
59.2915
20
167.8863
0
VERTEX
8
CUT
10
59.1755
20
167.9160
0
VERTEX
8
CUT
10
59.0631
20
167.9571
0
VERTEX
8
CUT
10
58.9553
20
168.0092
0
VERTEX
8
CUT
10
58.8533
20
168.0717
0
VERTEX
8
CUT
10
58.7579
20
168.1442
0
VERTEX
8
CUT
10
58.6703
20
168.2257
0
VERTEX
8
CUT
10
58.5912
20
168.3156
0
VERTEX
8
CUT
10
58.5215
20
168.4129
0
VERTEX
8
CUT
10
58.4619
20
168.5167
0
VERTEX
8
CUT
10
58.4379
20
168.5701
0
VERTEX
8
CUT
10
58.3556
20
168.5071
0
VERTEX
8
CUT
10
58.1716
20
168.3342
0
VERTEX
8
CUT
10
58.0059
20
168.1435
0
VERTEX
8
CUT
10
57.8604
20
167.9372
0
VERTEX
8
CUT
10
57.7364
20
167.7172
0
VERTEX
8
CUT
10
57.6352
20
167.4858
0
VERTEX
8
CUT
10
57.5579
20
167.2454
0
VERTEX
8
CUT
10
57.5052
20
166.9984
0
VERTEX
8
CUT
10
57.4778
20
166.7474
0
VERTEX
8
CUT
10
57.4758
20
166.4948
0
VERTEX
8
CUT
10
57.5193
20
165.4720
0
VERTEX
8
CUT
10
57.5194
20
165.4669
0
VERTEX
8
CUT
10
57.5177
20
165.4181
0
VERTEX
8
CUT
10
57.5146
20
165.3930
0
VERTEX
8
CUT
10
57.5106
20
165.3706
0
VERTEX
8
CUT
10
57.1591
20
163.6698
0
VERTEX
8
CUT
10
57.1546
20
163.6505
0
VERTEX
8
CUT
10
57.1416
20
163.6100
0
VERTEX
8
CUT
10
57.1165
20
163.5756
0
VERTEX
8
CUT
10
57.1036
20
163.5605
0
VERTEX
8
CUT
10
55.7519
20
162.0686
0
VERTEX
8
CUT
10
55.7506
20
162.0670
0
VERTEX
8
CUT
10
55.7186
20
162.0331
0
VERTEX
8
CUT
10
55.5828
20
161.8617
0
VERTEX
8
CUT
10
54.4275
20
160.2654
0
VERTEX
8
CUT
10
54.3060
20
160.0808
0
VERTEX
8
CUT
10
54.2013
20
159.8863
0
VERTEX
8
CUT
10
54.1899
20
159.8597
0
VERTEX
8
CUT
10
54.1811
20
159.8439
0
VERTEX
8
CUT
10
54.1254
20
159.7146
0
VERTEX
8
CUT
10
54.0388
20
159.5739
0
VERTEX
8
CUT
10
53.9373
20
159.3691
0
VERTEX
8
CUT
10
53.9244
20
159.3357
0
VERTEX
8
CUT
10
53.9185
20
159.3237
0
VERTEX
8
CUT
10
53.8376
20
159.1126
0
VERTEX
8
CUT
10
53.4909
20
158.0697
0
VERTEX
8
CUT
10
53.4332
20
157.8680
0
VERTEX
8
CUT
10
53.3925
20
157.6622
0
VERTEX
8
CUT
10
53.3693
20
157.4537
0
VERTEX
8
CUT
10
53.3691
20
157.4512
0
VERTEX
8
CUT
10
53.3660
20
157.4059
0
VERTEX
8
CUT
10
53.3658
20
157.4033
0
VERTEX
8
CUT
10
53.3657
20
157.4025
0
VERTEX
8
CUT
10
53.3598
20
157.3174
0
VERTEX
8
CUT
10
53.3443
20
157.0923
0
VERTEX
8
CUT
10
53.3392
20
157.0185
0
VERTEX
8
CUT
10
53.3284
20
156.8625
0
VERTEX
8
CUT
10
53.3266
20
156.8437
0
VERTEX
8
CUT
10
53.3129
20
156.7634
0
VERTEX
8
CUT
10
53.3083
20
156.7451
0
VERTEX
8
CUT
10
52.7710
20
154.8016
0
VERTEX
8
CUT
10
52.7179
20
154.5658
0
VERTEX
8
CUT
10
52.6879
20
154.3259
0
VERTEX
8
CUT
10
52.6811
20
154.0842
0
VERTEX
8
CUT
10
52.6977
20
153.8430
0
VERTEX
8
CUT
10
52.7376
20
153.6046
0
VERTEX
8
CUT
10
52.7995
20
153.3198
0
VERTEX
8
CUT
10
52.8019
20
153.3071
0
VERTEX
8
CUT
10
52.8018
20
153.3058
0
VERTEX
8
CUT
10
52.5914
20
152.2927
0
VERTEX
8
CUT
10
52.5517
20
152.0352
0
VERTEX
8
CUT
10
52.5391
20
151.7749
0
VERTEX
8
CUT
10
52.5394
20
151.7200
0
VERTEX
8
CUT
10
52.5365
20
151.6545
0
VERTEX
8
CUT
10
52.5489
20
149.1053
0
VERTEX
8
CUT
10
52.5615
20
148.8659
0
VERTEX
8
CUT
10
52.5970
20
148.6289
0
VERTEX
8
CUT
10
52.6551
20
148.3963
0
VERTEX
8
CUT
10
52.6555
20
148.3950
0
VERTEX
8
CUT
10
52.6555
20
148.3949
0
VERTEX
8
CUT
10
52.7875
20
147.9568
0
VERTEX
8
CUT
10
52.7923
20
147.9393
0
VERTEX
8
CUT
10
52.7999
20
147.9010
0
VERTEX
8
CUT
10
52.7961
20
147.8622
0
VERTEX
8
CUT
10
52.7879
20
147.8143
0
VERTEX
8
CUT
10
52.7891
20
147.8141
0
VERTEX
8
CUT
10
52.7621
20
147.6340
0
VERTEX
8
CUT
10
52.7489
20
147.4096
0
VERTEX
8
CUT
10
52.7558
20
147.1850
0
VERTEX
8
CUT
10
52.7829
20
146.9618
0
VERTEX
8
CUT
10
52.8300
20
146.7420
0
VERTEX
8
CUT
10
53.0419
20
145.9321
0
VERTEX
8
CUT
10
53.0465
20
145.9125
0
VERTEX
8
CUT
10
53.0593
20
145.8266
0
SEQEND
0
POLYLINE
8
CUT
66
1
70
1
10
0.0
20
0.0
30
0.0
0
VERTEX
8
CUT
10
252.9698
20
70.5298
0
VERTEX
8
CUT
10
253.1988
20
70.4506
0
VERTEX
8
CUT
10
253.4343
20
70.3940
0
VERTEX
8
CUT
10
253.6743
20
70.3604
0
VERTEX
8
CUT
10
253.9163
20
70.3503
0
VERTEX
8
CUT
10
254.1582
20
70.3636
0
VERTEX
8
CUT
10
254.3977
20
70.4002
0
VERTEX
8
CUT
10
254.6325
20
70.4599
0
VERTEX
8
CUT
10
254.8605
20
70.5420
0
VERTEX
8
CUT
10
255.4969
20
70.8067
0
VERTEX
8
CUT
10
255.7142
20
70.9097
0
VERTEX
8
CUT
10
255.9207
20
71.0331
0
VERTEX
8
CUT
10
256.1143
20
71.1757
0
VERTEX
8
CUT
10
256.2934
20
71.3363
0
VERTEX
8
CUT
10
256.3372
20
71.3795
0
VERTEX
8
CUT
10
256.5053
20
71.5630
0
VERTEX
8
CUT
10
256.6543
20
71.7622
0
VERTEX
8
CUT
10
256.7828
20
71.9753
0
VERTEX
8
CUT
10
256.8895
20
72.2001
0
VERTEX
8
CUT
10
256.9733
20
72.4344
0
VERTEX
8
CUT
10
257.0334
20
72.6759
0
VERTEX
8
CUT
10
257.0692
20
72.9222
0
VERTEX
8
CUT
10
257.0804
20
73.1707
0
VERTEX
8
CUT
10
257.0772
20
73.8096
0
VERTEX
8
CUT
10
257.0656
20
74.0375
0
VERTEX
8
CUT
10
257.0333
20
74.2634
0
VERTEX
8
CUT
10
256.9806
20
74.4854
0
VERTEX
8
CUT
10
256.9078
20
74.7017
0
VERTEX
8
CUT
10
256.8156
20
74.9104
0
VERTEX
8
CUT
10
256.7056
20
75.1315
0
VERTEX
8
CUT
10
256.5915
20
75.3362
0
VERTEX
8
CUT
10
256.4587
20
75.5294
0
VERTEX
8
CUT
10
256.3084
20
75.7093
0
VERTEX
8
CUT
10
256.1419
20
75.8743
0
VERTEX
8
CUT
10
255.9607
20
76.0230
0
VERTEX
8
CUT
10
255.7664
20
76.1540
0
VERTEX
8
CUT
10
255.5606
20
76.2663
0
VERTEX
8
CUT
10
255.3245
20
76.3812
0
VERTEX
8
CUT
10
255.1159
20
76.4711
0
VERTEX
8
CUT
10
254.9001
20
76.5418
0
VERTEX
8
CUT
10
254.6787
20
76.5926
0
VERTEX
8
CUT
10
254.4536
20
76.6230
0
VERTEX
8
CUT
10
254.2267
20
76.6329
0
VERTEX
8
CUT
10
253.8704
20
76.6323
0
VERTEX
8
CUT
10
253.8678
20
76.6323
0
VERTEX
8
CUT
10
253.6200
20
76.6196
0
VERTEX
8
CUT
10
253.3747
20
76.5823
0
VERTEX
8
CUT
10
253.1343
20
76.5210
0
VERTEX
8
CUT
10
252.9012
20
76.4360
0
VERTEX
8
CUT
10
252.6776
20
76.3285
0
VERTEX
8
CUT
10
252.4658
20
76.1992
0
VERTEX
8
CUT
10
252.2678
20
76.0496
0
VERTEX
8
CUT
10
252.0857
20
75.8812
0
VERTEX
8
CUT
10
251.5231
20
75.3065
0
VERTEX
8
CUT
10
251.3629
20
75.1262
0
VERTEX
8
CUT
10
251.2208
20
74.9313
0
VERTEX
8
CUT
10
251.2120
20
74.9163
0
VERTEX
8
CUT
10
251.1997
20
74.8993
0
VERTEX
8
CUT
10
251.0776
20
74.6902
0
VERTEX
8
CUT
10
250.9762
20
74.4703
0
VERTEX
8
CUT
10
250.8969
20
74.2735
0
VERTEX
8
CUT
10
250.8967
20
74.2731
0
VERTEX
8
CUT
10
250.8182
20
74.0481
0
VERTEX
8
CUT
10
250.7615
20
73.8166
0
VERTEX
8
CUT
10
250.7271
20
73.5808
0
VERTEX
8
CUT
10
250.7152
20
73.3428
0
VERTEX
8
CUT
10
250.7261
20
73.1048
0
VERTEX
8
CUT
10
250.7596
20
72.8689
0
VERTEX
8
CUT
10
250.8155
20
72.6372
0
VERTEX
8
CUT
10
250.8931
20
72.4119
0
VERTEX
8
CUT
10
250.9918
20
72.1950
0
VERTEX
8
CUT
10
251.0121
20
72.1556
0
VERTEX
8
CUT
10
251.1391
20
71.9366
0
VERTEX
8
CUT
10
251.2876
20
71.7315
0
VERTEX
8
CUT
10
251.4561
20
71.5425
0
VERTEX
8
CUT
10
251.4568
20
71.5418
0
VERTEX
8
CUT
10
251.4570
20
71.5416
0
VERTEX
8
CUT
10
251.4582
20
71.5404
0
VERTEX
8
CUT
10
251.6658
20
71.3301
0
VERTEX
8
CUT
10
251.8588
20
71.1539
0
VERTEX
8
CUT
10
252.0691
20
70.9989
0
VERTEX
8
CUT
10
252.2945
20
70.8667
0
VERTEX
8
CUT
10
252.7496
20
70.6308
0
SEQEND
0
POLYLINE
8
CUT
66
1
70
1
10
0.0
20
0.0
30
0.0
0
VERTEX
8
CUT
10
227.1060
20
89.3666
0
VERTEX
8
CUT
10
227.3206
20
89.5028
0
VERTEX
8
CUT
10
227.5202
20
89.6600
0
VERTEX
8
CUT
10
227.7166
20
89.8317
0
VERTEX
8
CUT
10
227.9083
20
90.0183
0
VERTEX
8
CUT
10
228.0791
20
90.2242
0
VERTEX
8
CUT
10
228.3033
20
90.5264
0
VERTEX
8
CUT
10
228.4482
20
90.7447
0
VERTEX
8
CUT
10
228.5695
20
90.9770
0
VERTEX
8
CUT
10
228.6658
20
91.2208
0
VERTEX
8
CUT
10
228.7361
20
91.4732
0
VERTEX
8
CUT
10
228.7795
20
91.7317
0
VERTEX
8
CUT
10
228.7957
20
91.9933
0
VERTEX
8
CUT
10
228.8040
20
92.8889
0
VERTEX
8
CUT
10
228.7948
20
93.1272
0
VERTEX
8
CUT
10
228.7629
20
93.3636
0
VERTEX
8
CUT
10
228.7087
20
93.5959
0
VERTEX
8
CUT
10
228.6326
20
93.8219
0
VERTEX
8
CUT
10
228.5352
20
94.0397
0
VERTEX
8
CUT
10
228.4176
20
94.2472
0
VERTEX
8
CUT
10
228.2807
20
94.4425
0
VERTEX
8
CUT
10
228.1259
20
94.6239
0
VERTEX
8
CUT
10
227.9544
20
94.7898
0
VERTEX
8
CUT
10
227.7680
20
94.9385
0
VERTEX
8
CUT
10
227.5885
20
95.0681
0
VERTEX
8
CUT
10
227.4098
20
95.1859
0
VERTEX
8
CUT
10
227.2217
20
95.2880
0
VERTEX
8
CUT
10
226.5761
20
95.6032
0
VERTEX
8
CUT
10
226.3457
20
95.7018
0
VERTEX
8
CUT
10
226.1065
20
95.7768
0
VERTEX
8
CUT
10
225.8611
20
95.8274
0
VERTEX
8
CUT
10
225.6118
20
95.8533
0
VERTEX
8
CUT
10
225.3612
20
95.8540
0
VERTEX
8
CUT
10
225.1118
20
95.8297
0
VERTEX
8
CUT
10
224.8661
20
95.7805
0
VERTEX
8
CUT
10
224.6265
20
95.7069
0
VERTEX
8
CUT
10
224.3955
20
95.6098
0
VERTEX
8
CUT
10
224.1754
20
95.4900
0
VERTEX
8
CUT
10
224.1050
20
95.4469
0
VERTEX
8
CUT
10
223.9313
20
95.3306
0
VERTEX
8
CUT
10
223.7680
20
95.2001
0
VERTEX
8
CUT
10
223.6161
20
95.0564
0
VERTEX
8
CUT
10
222.7898
20
94.2064
0
VERTEX
8
CUT
10
222.7847
20
94.2012
0
VERTEX
8
CUT
10
222.7808
20
94.1971
0
VERTEX
8
CUT
10
222.6196
20
94.0143
0
VERTEX
8
CUT
10
222.4770
20
93.8167
0
VERTEX
8
CUT
10
222.3543
20
93.6061
0
VERTEX
8
CUT
10
222.2527
20
93.3846
0
VERTEX
8
CUT
10
222.1732
20
93.1542
0
VERTEX
8
CUT
10
222.1165
20
92.9172
0
VERTEX
8
CUT
10
222.0831
20
92.6758
0
VERTEX
8
CUT
10
222.0734
20
92.4323
0
VERTEX
8
CUT
10
222.0770
20
92.0199
0
VERTEX
8
CUT
10
222.0921
20
91.7672
0
VERTEX
8
CUT
10
222.1327
20
91.5173
0
VERTEX
8
CUT
10
222.1983
20
91.2727
0
VERTEX
8
CUT
10
222.2883
20
91.0361
0
VERTEX
8
CUT
10
222.4018
20
90.8098
0
VERTEX
8
CUT
10
222.5376
20
90.5961
0
VERTEX
8
CUT
10
222.6870
20
90.3854
0
VERTEX
8
CUT
10
222.8348
20
90.1967
0
VERTEX
8
CUT
10
222.8972
20
90.1311
0
VERTEX
8
CUT
10
222.9270
20
90.0950
0
VERTEX
8
CUT
10
223.0856
20
89.9346
0
VERTEX
8
CUT
10
223.2581
20
89.7891
0
VERTEX
8
CUT
10
223.5608
20
89.5561
0
VERTEX
8
CUT
10
223.7548
20
89.4210
0
VERTEX
8
CUT
10
223.9606
20
89.3048
0
VERTEX
8
CUT
10
224.1765
20
89.2086
0
VERTEX
8
CUT
10
224.4005
20
89.1332
0
VERTEX
8
CUT
10
224.6307
20
89.0792
0
VERTEX
8
CUT
10
224.8649
20
89.0473
0
VERTEX
8
CUT
10
225.1011
20
89.0376
0
VERTEX
8
CUT
10
225.1014
20
89.0376
0
VERTEX
8
CUT
10
225.1158
20
89.0377
0
VERTEX
8
CUT
10
225.8909
20
89.0426
0
VERTEX
8
CUT
10
226.1447
20
89.0571
0
VERTEX
8
CUT
10
226.3956
20
89.0973
0
VERTEX
8
CUT
10
226.6411
20
89.1628
0
VERTEX
8
CUT
10
226.8788
20
89.2529
0
SEQEND
0
POLYLINE
8
CUT
66
1
70
1
10
0.0
20
0.0
30
0.0
0
VERTEX
8
CUT
10
10.5129
20
231.6232
0
VERTEX
8
CUT
10
10.2965
20
231.5077
0
VERTEX
8
CUT
10
10.0923
20
231.3715
0
VERTEX
8
CUT
10
9.9025
20
231.2160
0
VERTEX
8
CUT
10
9.7289
20
231.0426
0
VERTEX
8
CUT
10
9.5731
20
230.8530
0
VERTEX
8
CUT
10
9.4367
20
230.6490
0
VERTEX
8
CUT
10
9.3209
20
230.4327
0
VERTEX
8
CUT
10
9.2268
20
230.2060
0
VERTEX
8
CUT
10
9.1555
20
229.9712
0
VERTEX
8
CUT
10
9.1075
20
229.7306
0
VERTEX
8
CUT
10
9.0833
20
229.4864
0
VERTEX
8
CUT
10
9.0833
20
229.4856
0
VERTEX
8
CUT
10
8.4036
20
215.7858
0
VERTEX
8
CUT
10
8.4009
20
215.7055
0
VERTEX
8
CUT
10
8.1261
20
199.9594
0
VERTEX
8
CUT
10
8.1258
20
199.9434
0
VERTEX
8
CUT
10
8.1344
20
199.6890
0
VERTEX
8
CUT
10
8.1687
20
199.4368
0
VERTEX
8
CUT
10
8.2285
20
199.1893
0
VERTEX
8
CUT
10
8.3132
20
198.9493
0
VERTEX
8
CUT
10
8.4219
20
198.7190
0
VERTEX
8
CUT
10
8.5534
20
198.5011
0
VERTEX
8
CUT
10
8.7064
20
198.2976
0
VERTEX
8
CUT
10
8.8793
20
198.1107
0
VERTEX
8
CUT
10
9.0703
20
197.9424
0
VERTEX
8
CUT
10
9.2774
20
197.7944
0
VERTEX
8
CUT
10
9.4985
20
197.6683
0
VERTEX
8
CUT
10
12.8309
20
195.9854
0
VERTEX
8
CUT
10
13.1042
20
195.8672
0
VERTEX
8
CUT
10
13.1085
20
195.8656
0
VERTEX
8
CUT
10
15.7287
20
194.9137
0
VERTEX
8
CUT
10
15.9275
20
194.8507
0
VERTEX
8
CUT
10
16.1307
20
194.8045
0
VERTEX
8
CUT
10
16.3371
20
194.7754
0
VERTEX
8
CUT
10
16.6735
20
194.7423
0
VERTEX
8
CUT
10
16.6935
20
194.7398
0
VERTEX
8
CUT
10
16.7790
20
194.7219
0
VERTEX
8
CUT
10
16.7984
20
194.7162
0
VERTEX
8
CUT
10
18.7423
20
194.0861
0
VERTEX
8
CUT
10
18.9641
20
194.0254
0
VERTEX
8
CUT
10
19.1905
20
193.9852
0
VERTEX
8
CUT
10
19.4196
20
193.9661
0
VERTEX
8
CUT
10
20.4288
20
193.9283
0
VERTEX
8
CUT
10
20.4457
20
193.9273
0
VERTEX
8
CUT
10
20.4820
20
193.9226
0
VERTEX
8
CUT
10
20.5165
20
193.9116
0
VERTEX
8
CUT
10
20.5325
20
193.9053
0
VERTEX
8
CUT
10
20.5943
20
193.8791
0
VERTEX
8
CUT
10
20.8069
20
193.8006
0
VERTEX
8
CUT
10
21.0257
20
193.7415
0
VERTEX
8
CUT
10
21.2490
20
193.7026
0
VERTEX
8
CUT
10
21.4749
20
193.6840
0
VERTEX
8
CUT
10
22.3658
20
193.6513
0
VERTEX
8
CUT
10
22.3834
20
193.6503
0
VERTEX
8
CUT
10
22.4210
20
193.6453
0
VERTEX
8
CUT
10
22.4580
20
193.6369
0
VERTEX
8
CUT
10
22.4748
20
193.6318
0
VERTEX
8
CUT
10
22.7400
20
193.5445
0
VERTEX
8
CUT
10
22.7419
20
193.5439
0
VERTEX
8
CUT
10
22.9942
20
193.4752
0
VERTEX
8
CUT
10
23.2523
20
193.4332
0
VERTEX
8
CUT
10
23.5135
20
193.4185
0
VERTEX
8
CUT
10
27.5288
20
193.4022
0
VERTEX
8
CUT
10
27.6744
20
193.4086
0
VERTEX
8
CUT
10
27.9158
20
193.4080
0
VERTEX
8
CUT
10
28.2472
20
193.4292
0
VERTEX
8
CUT
10
30.1529
20
193.6792
0
VERTEX
8
CUT
10
30.4747
20
193.6883
0
VERTEX
8
CUT
10
30.7004
20
193.7049
0
VERTEX
8
CUT
10
30.9238
20
193.7419
0
VERTEX
8
CUT
10
31.3958
20
193.8422
0
VERTEX
8
CUT
10
32.2335
20
193.9521
0
VERTEX
8
CUT
10
32.5124
20
194.0049
0
VERTEX
8
CUT
10
34.5544
20
194.5133
0
VERTEX
8
CUT
10
34.7411
20
194.5676
0
VERTEX
8
CUT
10
37.8621
20
195.6081
0
VERTEX
8
CUT
10
38.0571
20
195.6823
0
VERTEX
8
CUT
10
38.0574
20
195.6824
0
VERTEX
8
CUT
10
38.2539
20
195.7667
0
VERTEX
8
CUT
10
45.4356
20
198.8479
0
VERTEX
8
CUT
10
45.4993
20
198.8730
0
VERTEX
8
CUT
10
45.5643
20
198.8945
0
VERTEX
8
CUT
10
50.4728
20
200.3612
0
VERTEX
8
CUT
10
52.0101
20
200.7087
0
VERTEX
8
CUT
10
52.7242
20
200.8261
0
VERTEX
8
CUT
10
58.1311
20
200.8223
0
VERTEX
8
CUT
10
58.4774
20
200.7614
0
VERTEX
8
CUT
10
61.0256
20
200.0778
0
VERTEX
8
CUT
10
61.2620
20
200.0265
0
VERTEX
8
CUT
10
61.5022
20
199.9982
0
VERTEX
8
CUT
10
61.7440
20
199.9934
0
VERTEX
8
CUT
10
61.9851
20
200.0119
0
VERTEX
8
CUT
10
62.2233
20
200.0536
0
VERTEX
8
CUT
10
62.4564
20
200.1181
0
VERTEX
8
CUT
10
62.6822
20
200.2049
0
VERTEX
8
CUT
10
62.8985
20
200.3131
0
VERTEX
8
CUT
10
63.1033
20
200.4416
0
VERTEX
8
CUT
10
63.2948
20
200.5894
0
VERTEX
8
CUT
10
63.4711
20
200.7550
0
VERTEX
8
CUT
10
63.6305
20
200.9368
0
VERTEX
8
CUT
10
63.7717
20
201.1332
0
VERTEX
8
CUT
10
63.8932
20
201.3423
0
VERTEX
8
CUT
10
63.9939
20
201.5622
0
VERTEX
8
CUT
10
64.0730
20
201.7907
0
VERTEX
8
CUT
10
64.1295
20
202.0259
0
VERTEX
8
CUT
10
64.1631
20
202.2654
0
VERTEX
8
CUT
10
64.1734
20
202.5070
0
VERTEX
8
CUT
10
64.1603
20
202.7485
0
VERTEX
8
CUT
10
64.1239
20
202.9876
0
VERTEX
8
CUT
10
64.0646
20
203.2221
0
VERTEX
8
CUT
10
63.9829
20
203.4497
0
VERTEX
8
CUT
10
63.8796
20
203.6684
0
VERTEX
8
CUT
10
63.7556
20
203.8760
0
VERTEX
8
CUT
10
63.6122
20
204.0708
0
VERTEX
8
CUT
10
63.4506
20
204.2507
0
VERTEX
8
CUT
10
63.2724
20
204.4142
0
VERTEX
8
CUT
10
63.0792
20
204.5597
0
VERTEX
8
CUT
10
62.9989
20
204.6143
0
VERTEX
8
CUT
10
62.8031
20
204.7474
0
VERTEX
8
CUT
10
62.5975
20
204.8732
0
VERTEX
8
CUT
10
62.3807
20
204.9786
0
VERTEX
8
CUT
10
60.8057
20
205.6523
0
VERTEX
8
CUT
10
60.5382
20
205.7492
0
VERTEX
8
CUT
10
58.1777
20
206.4546
0
VERTEX
8
CUT
10
57.9788
20
206.5052
0
VERTEX
8
CUT
10
57.7764
20
206.5394
0
VERTEX
8
CUT
10
57.5719
20
206.5568
0
VERTEX
8
CUT
10
56.7944
20
206.5911
0
VERTEX
8
CUT
10
56.7753
20
206.5924
0
VERTEX
8
CUT
10
56.7345
20
206.5984
0
VERTEX
8
CUT
10
56.6945
20
206.6085
0
VERTEX
8
CUT
10
56.6764
20
206.6146
0
VERTEX
8
CUT
10
56.5543
20
206.6592
0
VERTEX
8
CUT
10
56.2809
20
206.7417
0
VERTEX
8
CUT
10
55.9998
20
206.7924
0
VERTEX
8
CUT
10
55.7148
20
206.8108
0
VERTEX
8
CUT
10
48.1276
20
206.8654
0
VERTEX
8
CUT
10
48.1077
20
206.8660
0
VERTEX
8
CUT
10
48.0225
20
206.8757
0
VERTEX
8
CUT
10
48.0030
20
206.8795
0
VERTEX
8
CUT
10
47.2241
20
207.0524
0
VERTEX
8
CUT
10
46.9890
20
207.0929
0
VERTEX
8
CUT
10
46.7511
20
207.1109
0
VERTEX
8
CUT
10
44.8041
20
207.1645
0
VERTEX
8
CUT
10
44.7855
20
207.1655
0
VERTEX
8
CUT
10
44.7059
20
207.1756
0
VERTEX
8
CUT
10
44.6877
20
207.1793
0
VERTEX
8
CUT
10
41.1690
20
207.9856
0
VERTEX
8
CUT
10
41.1130
20
207.9999
0
VERTEX
8
CUT
10
41.0579
20
208.0168
0
VERTEX
8
CUT
10
39.4847
20
208.5418
0
VERTEX
8
CUT
10
39.4059
20
208.5712
0
VERTEX
8
CUT
10
39.3294
20
208.6061
0
VERTEX
8
CUT
10
35.5670
20
210.4855
0
VERTEX
8
CUT
10
35.4989
20
210.5223
0
VERTEX
8
CUT
10
35.4334
20
210.5635
0
VERTEX
8
CUT
10
32.9737
20
212.2217
0
VERTEX
8
CUT
10
32.9081
20
212.2693
0
VERTEX
8
CUT
10
32.8458
20
212.3213
0
VERTEX
8
CUT
10
29.7424
20
215.0953
0
VERTEX
8
CUT
10
29.6875
20
215.1476
0
VERTEX
8
CUT
10
29.6361
20
215.2032
0
VERTEX
8
CUT
10
25.8071
20
219.6200
0
VERTEX
8
CUT
10
25.7891
20
219.6413
0
VERTEX
8
CUT
10
25.7716
20
219.6630
0
VERTEX
8
CUT
10
23.2355
20
222.8806
0
VERTEX
8
CUT
10
23.0380
20
223.1026
0
VERTEX
8
CUT
10
18.1823
20
227.9482
0
VERTEX
8
CUT
10
18.0374
20
228.0818
0
VERTEX
8
CUT
10
17.8824
20
228.2036
0
VERTEX
8
CUT
10
14.3164
20
230.7853
0
VERTEX
8
CUT
10
14.3159
20
230.7856
0
VERTEX
8
CUT
10
14.1237
20
230.9117
0
VERTEX
8
CUT
10
13.9208
20
231.0196
0
VERTEX
8
CUT
10
12.6511
20
231.6215
0
VERTEX
8
CUT
10
12.4245
20
231.7156
0
VERTEX
8
CUT
10
12.1897
20
231.7871
0
VERTEX
8
CUT
10
11.9491
20
231.8351
0
VERTEX
8
CUT
10
11.7049
20
231.8594
0
VERTEX
8
CUT
10
11.4595
20
231.8596
0
VERTEX
8
CUT
10
11.2153
20
231.8357
0
VERTEX
8
CUT
10
10.9746
20
231.7880
0
VERTEX
8
CUT
10
10.7397
20
231.7170
0
SEQEND
0
POLYLINE
8
CUT
66
1
70
1
10
0.0
20
0.0
30
0.0
0
VERTEX
8
CUT
10
43.6814
20
227.8822
0
VERTEX
8
CUT
10
43.8332
20
227.6754
0
VERTEX
8
CUT
10
44.0055
20
227.4853
0
VERTEX
8
CUT
10
44.0085
20
227.4822
0
VERTEX
8
CUT
10
44.7348
20
226.7589
0
VERTEX
8
CUT
10
44.9191
20
226.5927
0
VERTEX
8
CUT
10
45.1191
20
226.4456
0
VERTEX
8
CUT
10
45.3326
20
226.3190
0
VERTEX
8
CUT
10
45.5576
20
226.2143
0
VERTEX
8
CUT
10
46.0482
20
226.0149
0
VERTEX
8
CUT
10
46.2772
20
225.9345
0
VERTEX
8
CUT
10
46.5129
20
225.8767
0
VERTEX
8
CUT
10
46.7531
20
225.8421
0
VERTEX
8
CUT
10
46.9955
20
225.8309
0
VERTEX
8
CUT
10
47.1349
20
225.8312
0
VERTEX
8
CUT
10
47.3856
20
225.8444
0
VERTEX
8
CUT
10
47.6337
20
225.8827
0
VERTEX
8
CUT
10
47.8767
20
225.9457
0
VERTEX
8
CUT
10
48.1122
20
226.0327
0
VERTEX
8
CUT
10
49.1358
20
226.4706
0
VERTEX
8
CUT
10
49.3451
20
226.5719
0
VERTEX
8
CUT
10
49.5441
20
226.6922
0
VERTEX
8
CUT
10
49.7310
20
226.8305
0
VERTEX
8
CUT
10
49.9043
20
226.9855
0
VERTEX
8
CUT
10
50.1205
20
227.1978
0
VERTEX
8
CUT
10
50.3078
20
227.4036
0
VERTEX
8
CUT
10
50.4712
20
227.6289
0
VERTEX
8
CUT
10
50.6085
20
227.8710
0
VERTEX
8
CUT
10
50.7346
20
228.1253
0
VERTEX
8
CUT
10
50.8277
20
228.3374
0
VERTEX
8
CUT
10
50.9008
20
228.5571
0
VERTEX
8
CUT
10
50.9533
20
228.7827
0
VERTEX
8
CUT
10
50.9847
20
229.0121
0
VERTEX
8
CUT
10
50.9947
20
229.2435
0
VERTEX
8
CUT
10
50.9919
20
230.1400
0
VERTEX
8
CUT
10
50.9802
20
230.3749
0
VERTEX
8
CUT
10
50.9463
20
230.6076
0
VERTEX
8
CUT
10
50.8908
20
230.8362
0
VERTEX
8
CUT
10
50.8141
20
231.0585
0
VERTEX
8
CUT
10
50.6335
20
231.5113
0
VERTEX
8
CUT
10
50.5277
20
231.7417
0
VERTEX
8
CUT
10
50.3991
20
231.9603
0
VERTEX
8
CUT
10
50.2491
20
232.1647
0
VERTEX
8
CUT
10
50.0791
20
232.3528
0
VERTEX
8
CUT
10
49.5905
20
232.8414
0
VERTEX
8
CUT
10
49.3871
20
233.0237
0
VERTEX
8
CUT
10
49.1651
20
233.1827
0
VERTEX
8
CUT
10
48.9270
20
233.3166
0
VERTEX
8
CUT
10
48.6992
20
233.4287
0
VERTEX
8
CUT
10
48.4883
20
233.5208
0
VERTEX
8
CUT
10
48.2698
20
233.5930
0
VERTEX
8
CUT
10
48.0455
20
233.6449
0
VERTEX
8
CUT
10
47.8175
20
233.6759
0
VERTEX
8
CUT
10
47.5875
20
233.6858
0
VERTEX
8
CUT
10
46.8104
20
233.6835
0
VERTEX
8
CUT
10
46.5759
20
233.6718
0
VERTEX
8
CUT
10
46.3436
20
233.6381
0
VERTEX
8
CUT
10
46.1154
20
233.5828
0
VERTEX
8
CUT
10
45.8935
20
233.5064
0
VERTEX
8
CUT
10
45.6797
20
233.4094
0
VERTEX
8
CUT
10
45.4256
20
233.2795
0
VERTEX
8
CUT
10
45.1961
20
233.1464
0
VERTEX
8
CUT
10
44.9821
20
232.9897
0
VERTEX
8
CUT
10
44.7859
20
232.8112
0
VERTEX
8
CUT
10
43.9763
20
231.9923
0
VERTEX
8
CUT
10
43.7985
20
231.7920
0
VERTEX
8
CUT
10
43.6431
20
231.5738
0
VERTEX
8
CUT
10
43.5119
20
231.3402
0
VERTEX
8
CUT
10
43.4032
20
231.1196
0
VERTEX
8
CUT
10
43.3994
20
231.1119
0
VERTEX
8
CUT
10
43.3064
20
230.8990
0
VERTEX
8
CUT
10
43.2336
20
230.6784
0
VERTEX
8
CUT
10
43.1817
20
230.4519
0
VERTEX
8
CUT
10
43.1509
20
230.2216
0
VERTEX
8
CUT
10
43.1417
20
229.9895
0
VERTEX
8
CUT
10
43.1451
20
229.4842
0
VERTEX
8
CUT
10
43.1577
20
229.2500
0
VERTEX
8
CUT
10
43.1922
20
229.0180
0
VERTEX
8
CUT
10
43.2483
20
228.7903
0
VERTEX
8
CUT
10
43.3255
20
228.5688
0
VERTEX
8
CUT
10
43.3304
20
228.5579
0
VERTEX
8
CUT
10
43.3367
20
228.5403
0
VERTEX
8
CUT
10
43.4344
20
228.3288
0
VERTEX
8
CUT
10
43.5515
20
228.1034
0
SEQEND
0
POLYLINE
8
CUT
66
1
70
1
10
0.0
20
0.0
30
0.0
0
VERTEX
8
CUT
10
34.4649
20
88.5500
0
VERTEX
8
CUT
10
34.7370
20
87.8451
0
VERTEX
8
CUT
10
34.8315
20
87.6307
0
VERTEX
8
CUT
10
34.9456
20
87.4262
0
VERTEX
8
CUT
10
35.5186
20
86.5039
0
VERTEX
8
CUT
10
35.6862
20
86.2661
0
VERTEX
8
CUT
10
35.8804
20
86.0494
0
VERTEX
8
CUT
10
37.3365
20
84.6030
0
VERTEX
8
CUT
10
37.5074
20
84.4482
0
VERTEX
8
CUT
10
37.6918
20
84.3099
0
VERTEX
8
CUT
10
37.8881
20
84.1891
0
VERTEX
8
CUT
10
38.0947
20
84.0869
0
VERTEX
8
CUT
10
39.6699
20
83.3965
0
VERTEX
8
CUT
10
39.9125
20
83.3048
0
VERTEX
8
CUT
10
40.1632
20
83.2388
0
VERTEX
8
CUT
10
40.4194
20
83.1991
0
VERTEX
8
CUT
10
40.6784
20
83.1862
0
VERTEX
8
CUT
10
43.5227
20
83.1917
0
VERTEX
8
CUT
10
43.7840
20
83.2059
0
VERTEX
8
CUT
10
44.0425
20
83.2474
0
VERTEX
8
CUT
10
44.2951
20
83.3156
0
VERTEX
8
CUT
10
44.5393
20
83.4099
0
VERTEX
8
CUT
10
46.1440
20
84.1283
0
VERTEX
8
CUT
10
46.3418
20
84.2276
0
VERTEX
8
CUT
10
46.5300
20
84.3439
0
VERTEX
8
CUT
10
46.7072
20
84.4765
0
VERTEX
8
CUT
10
46.8720
20
84.6242
0
VERTEX
8
CUT
10
48.1135
20
85.8404
0
VERTEX
8
CUT
10
48.2538
20
85.9896
0
VERTEX
8
CUT
10
48.3814
20
86.1497
0
VERTEX
8
CUT
10
48.8352
20
86.7698
0
VERTEX
8
CUT
10
48.9631
20
86.9626
0
VERTEX
8
CUT
10
49.0725
20
87.1663
0
VERTEX
8
CUT
10
49.1627
20
87.3793
0
VERTEX
8
CUT
10
49.7306
20
88.9150
0
VERTEX
8
CUT
10
49.7985
20
89.1274
0
VERTEX
8
CUT
10
49.8473
20
89.3450
0
VERTEX
8
CUT
10
49.8764
20
89.5661
0
VERTEX
8
CUT
10
49.8858
20
89.7889
0
VERTEX
8
CUT
10
49.8802
20
91.8233
0
VERTEX
8
CUT
10
49.8620
20
92.1176
0
VERTEX
8
CUT
10
49.8093
20
92.4078
0
VERTEX
8
CUT
10
49.6726
20
92.9693
0
VERTEX
8
CUT
10
49.5899
20
93.2409
0
VERTEX
8
CUT
10
49.4769
20
93.5014
0
VERTEX
8
CUT
10
48.8574
20
94.7332
0
VERTEX
8
CUT
10
48.7576
20
94.9128
0
VERTEX
8
CUT
10
48.6433
20
95.0837
0
VERTEX
8
CUT
10
48.1024
20
95.8248
0
VERTEX
8
CUT
10
47.9683
20
95.9929
0
VERTEX
8
CUT
10
47.8202
20
96.1488
0
VERTEX
8
CUT
10
46.7863
20
97.1479
0
VERTEX
8
CUT
10
46.5981
20
97.3123
0
VERTEX
8
CUT
10
46.3945
20
97.4572
0
VERTEX
8
CUT
10
46.1774
20
97.5810
0
VERTEX
8
CUT
10
44.7996
20
98.2778
0
VERTEX
8
CUT
10
44.5768
20
98.3771
0
VERTEX
8
CUT
10
44.3454
20
98.4543
0
VERTEX
8
CUT
10
44.1076
20
98.5085
0
VERTEX
8
CUT
10
43.8656
20
98.5393
0
VERTEX
8
CUT
10
43.4141
20
98.5745
0
VERTEX
8
CUT
10
43.3972
20
98.5762
0
VERTEX
8
CUT
10
43.3611
20
98.5823
0
VERTEX
8
CUT
10
43.2551
20
98.6210
0
VERTEX
8
CUT
10
43.2549
20
98.6206
0
VERTEX
8
CUT
10
43.1160
20
98.6739
0
VERTEX
8
CUT
10
42.8673
20
98.7408
0
VERTEX
8
CUT
10
42.6131
20
98.7818
0
VERTEX
8
CUT
10
42.3561
20
98.7964
0
VERTEX
8
CUT
10
41.8170
20
98.7993
0
VERTEX
8
CUT
10
41.5735
20
98.7887
0
VERTEX
8
CUT
10
41.3322
20
98.7545
0
VERTEX
8
CUT
10
41.0955
20
98.6969
0
VERTEX
8
CUT
10
40.8654
20
98.6166
0
VERTEX
8
CUT
10
40.8039
20
98.5917
0
VERTEX
8
CUT
10
40.7845
20
98.5845
0
VERTEX
8
CUT
10
40.7416
20
98.5724
0
VERTEX
8
CUT
10
40.6976
20
98.5651
0
VERTEX
8
CUT
10
40.6769
20
98.5634
0
VERTEX
8
CUT
10
40.4004
20
98.5487
0
VERTEX
8
CUT
10
40.1407
20
98.5212
0
VERTEX
8
CUT
10
39.8852
20
98.4668
0
VERTEX
8
CUT
10
39.6368
20
98.3860
0
VERTEX
8
CUT
10
39.3982
20
98.2797
0
VERTEX
8
CUT
10
37.9131
20
97.5229
0
VERTEX
8
CUT
10
37.6920
20
97.3957
0
VERTEX
8
CUT
10
37.4851
20
97.2466
0
VERTEX
8
CUT
10
37.2944
20
97.0772
0
VERTEX
8
CUT
10
36.0485
20
95.8508
0
VERTEX
8
CUT
10
35.9082
20
95.7009
0
VERTEX
8
CUT
10
35.7807
20
95.5399
0
VERTEX
8
CUT
10
35.2756
20
94.8458
0
VERTEX
8
CUT
10
35.1185
20
94.6010
0
VERTEX
8
CUT
10
34.9908
20
94.3396
0
VERTEX
8
CUT
10
34.4781
20
93.1139
0
VERTEX
8
CUT
10
34.3932
20
92.8783
0
VERTEX
8
CUT
10
34.3322
20
92.6354
0
VERTEX
8
CUT
10
34.2959
20
92.3877
0
VERTEX
8
CUT
10
34.2845
20
92.1375
0
VERTEX
8
CUT
10
34.2971
20
89.4386
0
VERTEX
8
CUT
10
34.3085
20
89.2117
0
VERTEX
8
CUT
10
34.3405
20
88.9867
0
VERTEX
8
CUT
10
34.3927
20
88.7655
0
SEQEND
0
POLYLINE
8
CUT
66
1
70
1
10
0.0
20
0.0
30
0.0
0
VERTEX
8
CUT
10
38.7822
20
169.1641
0
VERTEX
8
CUT
10
39.0161
20
169.2500
0
VERTEX
8
CUT
10
39.2402
20
169.3587
0
VERTEX
8
CUT
10
39.4524
20
169.4893
0
VERTEX
8
CUT
10
39.6505
20
169.6402
0
VERTEX
8
CUT
10
39.8327
20
169.8102
0
VERTEX
8
CUT
10
40.1272
20
170.1139
0
VERTEX
8
CUT
10
40.2882
20
170.2969
0
VERTEX
8
CUT
10
40.4305
20
170.4947
0
VERTEX
8
CUT
10
40.5530
20
170.7054
0
VERTEX
8
CUT
10
40.6543
20
170.9271
0
VERTEX
8
CUT
10
40.8495
20
171.4158
0
VERTEX
8
CUT
10
40.9262
20
171.6376
0
VERTEX
8
CUT
10
40.9818
20
171.8656
0
VERTEX
8
CUT
10
41.0158
20
172.0978
0
VERTEX
8
CUT
10
41.0278
20
172.3322
0
VERTEX
8
CUT
10
41.0280
20
172.3685
0
VERTEX
8
CUT
10
41.0182
20
172.6014
0
VERTEX
8
CUT
10
40.9866
20
172.8324
0
VERTEX
8
CUT
10
40.9337
20
173.0595
0
VERTEX
8
CUT
10
40.8599
20
173.2807
0
VERTEX
8
CUT
10
40.7658
20
173.4940
0
VERTEX
8
CUT
10
40.6293
20
173.7681
0
VERTEX
8
CUT
10
40.4979
20
174.0001
0
VERTEX
8
CUT
10
40.3424
20
174.2169
0
VERTEX
8
CUT
10
40.1647
20
174.4158
0
VERTEX
8
CUT
10
39.6636
20
174.9201
0
VERTEX
8
CUT
10
39.4704
20
175.0952
0
VERTEX
8
CUT
10
39.2599
20
175.2492
0
VERTEX
8
CUT
10
39.0346
20
175.3805
0
VERTEX
8
CUT
10
38.8627
20
175.4690
0
VERTEX
8
CUT
10
38.6467
20
175.5675
0
VERTEX
8
CUT
10
38.4224
20
175.6451
0
VERTEX
8
CUT
10
38.1917
20
175.7011
0
VERTEX
8
CUT
10
37.9567
20
175.7349
0
VERTEX
8
CUT
10
37.7196
20
175.7462
0
VERTEX
8
CUT
10
37.4825
20
175.7351
0
VERTEX
8
CUT
10
37.2475
20
175.7015
0
VERTEX
8
CUT
10
37.0168
20
175.6458
0
VERTEX
8
CUT
10
36.7923
20
175.5684
0
VERTEX
8
CUT
10
36.4466
20
175.4305
0
VERTEX
8
CUT
10
36.2187
20
175.3261
0
VERTEX
8
CUT
10
36.0024
20
175.1993
0
VERTEX
8
CUT
10
35.7999
20
175.0516
0
VERTEX
8
CUT
10
35.6132
20
174.8843
0
VERTEX
8
CUT
10
35.1404
20
174.4159
0
VERTEX
8
CUT
10
34.9599
20
174.2167
0
VERTEX
8
CUT
10
34.8018
20
173.9993
0
VERTEX
8
CUT
10
34.6680
20
173.7661
0
VERTEX
8
CUT
10
34.5510
20
173.5342
0
VERTEX
8
CUT
10
34.4542
20
173.3175
0
VERTEX
8
CUT
10
34.3785
20
173.0926
0
VERTEX
8
CUT
10
34.3244
20
172.8616
0
VERTEX
8
CUT
10
34.2925
20
172.6265
0
VERTEX
8
CUT
10
34.2830
20
172.3894
0
VERTEX
8
CUT
10
34.2850
20
172.1251
0
VERTEX
8
CUT
10
34.2974
20
171.8936
0
VERTEX
8
CUT
10
34.3313
20
171.6643
0
VERTEX
8
CUT
10
34.3862
20
171.4392
0
VERTEX
8
CUT
10
34.4618
20
171.2200
0
VERTEX
8
CUT
10
34.5573
20
171.0089
0
VERTEX
8
CUT
10
34.6714
20
170.7849
0
VERTEX
8
CUT
10
34.8051
20
170.5539
0
VERTEX
8
CUT
10
34.9626
20
170.3385
0
VERTEX
8
CUT
10
35.1422
20
170.1411
0
VERTEX
8
CUT
10
35.3961
20
169.8903
0
VERTEX
8
CUT
10
35.5977
20
169.7116
0
VERTEX
8
CUT
10
35.8173
20
169.5557
0
VERTEX
8
CUT
10
36.0524
20
169.4242
0
VERTEX
8
CUT
10
36.2975
20
169.3040
0
VERTEX
8
CUT
10
36.5079
20
169.2126
0
VERTEX
8
CUT
10
36.7258
20
169.1408
0
VERTEX
8
CUT
10
36.9494
20
169.0894
0
VERTEX
8
CUT
10
37.1768
20
169.0586
0
VERTEX
8
CUT
10
37.4060
20
169.0488
0
VERTEX
8
CUT
10
38.0460
20
169.0508
0
VERTEX
8
CUT
10
38.2948
20
169.0640
0
VERTEX
8
CUT
10
38.5410
20
169.1019
0
SEQEND
0
POLYLINE
8
CUT
66
1
70
1
10
0.0
20
0.0
30
0.0
0
VERTEX
8
CUT
10
34.8377
20
35.2283
0
VERTEX
8
CUT
10
34.6908
20
35.0187
0
VERTEX
8
CUT
10
34.5662
20
34.7952
0
VERTEX
8
CUT
10
34.5130
20
34.6871
0
VERTEX
8
CUT
10
34.4182
20
34.4689
0
VERTEX
8
CUT
10
34.3445
20
34.2427
0
VERTEX
8
CUT
10
34.2927
20
34.0105
0
VERTEX
8
CUT
10
34.2632
20
33.7744
0
VERTEX
8
CUT
10
34.2563
20
33.5366
0
VERTEX
8
CUT
10
34.2720
20
33.2993
0
VERTEX
8
CUT
10
34.3102
20
33.0645
0
VERTEX
8
CUT
10
34.3706
20
32.8343
0
VERTEX
8
CUT
10
34.4525
20
32.6110
0
VERTEX
8
CUT
10
34.5553
20
32.3965
0
VERTEX
8
CUT
10
34.6781
20
32.1927
0
VERTEX
8
CUT
10
34.6785
20
32.1920
0
VERTEX
8
CUT
10
34.7208
20
32.1289
0
VERTEX
8
CUT
10
34.8600
20
31.9405
0
VERTEX
8
CUT
10
35.0162
20
31.7661
0
VERTEX
8
CUT
10
35.1933
20
31.5860
0
VERTEX
8
CUT
10
35.3795
20
31.4149
0
VERTEX
8
CUT
10
35.5821
20
31.2635
0
VERTEX
8
CUT
10
35.7989
20
31.1333
0
VERTEX
8
CUT
10
36.0277
20
31.0257
0
VERTEX
8
CUT
10
36.2662
20
30.9417
0
VERTEX
8
CUT
10
36.5120
20
30.8823
0
VERTEX
8
CUT
10
36.7625
20
30.8481
0
VERTEX
8
CUT
10
37.0153
20
30.8393
0
VERTEX
8
CUT
10
37.4488
20
30.8461
0
VERTEX
8
CUT
10
37.6925
20
30.8619
0
VERTEX
8
CUT
10
37.9335
20
30.9014
0
VERTEX
8
CUT
10
38.1695
20
30.9642
0
VERTEX
8
CUT
10
38.3983
20
31.0497
0
VERTEX
8
CUT
10
38.6176
20
31.1572
0
VERTEX
8
CUT
10
38.8253
20
31.2855
0
VERTEX
8
CUT
10
39.0196
20
31.4335
0
VERTEX
8
CUT
10
39.1985
20
31.5997
0
VERTEX
8
CUT
10
39.3603
20
31.7826
0
VERTEX
8
CUT
10
39.5035
20
31.9804
0
VERTEX
8
CUT
10
39.6267
20
32.1913
0
VERTEX
8
CUT
10
39.7288
20
32.4131
0
VERTEX
8
CUT
10
39.8087
20
32.6439
0
VERTEX
8
CUT
10
39.8658
20
32.8813
0
VERTEX
8
CUT
10
39.8994
20
33.1232
0
VERTEX
8
CUT
10
39.9092
20
33.3672
0
VERTEX
8
CUT
10
39.9063
20
33.7045
0
VERTEX
8
CUT
10
39.8925
20
33.9461
0
VERTEX
8
CUT
10
39.8555
20
34.1852
0
VERTEX
8
CUT
10
39.7955
20
34.4196
0
VERTEX
8
CUT
10
39.7131
20
34.6471
0
VERTEX
8
CUT
10
39.6091
20
34.8656
0
VERTEX
8
CUT
10
39.4845
20
35.0729
0
VERTEX
8
CUT
10
39.3404
20
35.2673
0
VERTEX
8
CUT
10
39.1782
20
35.4469
0
VERTEX
8
CUT
10
38.9994
20
35.6099
0
VERTEX
8
CUT
10
38.8057
20
35.7548
0
VERTEX
8
CUT
10
38.5989
20
35.8804
0
VERTEX
8
CUT
10
38.3809
20
35.9854
0
VERTEX
8
CUT
10
38.1538
20
36.0688
0
VERTEX
8
CUT
10
37.9197
20
36.1299
0
VERTEX
8
CUT
10
37.6808
20
36.1680
0
VERTEX
8
CUT
10
37.4393
20
36.1829
0
VERTEX
8
CUT
10
36.8426
20
36.1908
0
VERTEX
8
CUT
10
36.8420
20
36.1908
0
VERTEX
8
CUT
10
36.5863
20
36.1810
0
VERTEX
8
CUT
10
36.3329
20
36.1452
0
VERTEX
8
CUT
10
36.0845
20
36.0837
0
VERTEX
8
CUT
10
35.8437
20
35.9971
0
VERTEX
8
CUT
10
35.6130
20
35.8863
0
VERTEX
8
CUT
10
35.3949
20
35.7525
0
VERTEX
8
CUT
10
35.1915
20
35.5971
0
VERTEX
8
CUT
10
35.0051
20
35.4218
0
SEQEND
0
POLYLINE
8
CUT
66
1
70
1
10
0.0
20
0.0
30
0.0
0
VERTEX
8
CUT
10
26.4097
20
256.3262
0
VERTEX
8
CUT
10
26.9351
20
255.4641
0
VERTEX
8
CUT
10
27.1075
20
255.2162
0
VERTEX
8
CUT
10
27.3086
20
254.9909
0
VERTEX
8
CUT
10
28.1645
20
254.1413
0
VERTEX
8
CUT
10
28.3397
20
253.9831
0
VERTEX
8
CUT
10
28.5290
20
253.8422
0
VERTEX
8
CUT
10
28.7307
20
253.7197
0
VERTEX
8
CUT
10
28.9431
20
253.6168
0
VERTEX
8
CUT
10
29.9611
20
253.1817
0
VERTEX
8
CUT
10
30.1961
20
253.0949
0
VERTEX
8
CUT
10
30.4385
20
253.0321
0
VERTEX
8
CUT
10
30.6860
20
252.9938
0
VERTEX
8
CUT
10
30.9361
20
252.9805
0
VERTEX
8
CUT
10
32.1334
20
252.9768
0
VERTEX
8
CUT
10
32.3876
20
252.9890
0
VERTEX
8
CUT
10
32.6391
20
253.0269
0
VERTEX
8
CUT
10
32.8856
20
253.0902
0
VERTEX
8
CUT
10
33.1243
20
253.1783
0
VERTEX
8
CUT
10
34.1916
20
253.6348
0
VERTEX
8
CUT
10
34.4058
20
253.7388
0
VERTEX
8
CUT
10
34.6092
20
253.8627
0
VERTEX
8
CUT
10
34.7999
20
254.0054
0
VERTEX
8
CUT
10
34.9762
20
254.1656
0
VERTEX
8
CUT
10
35.9191
20
255.1086
0
VERTEX
8
CUT
10
36.0957
20
255.3049
0
VERTEX
8
CUT
10
36.2507
20
255.5188
0
VERTEX
8
CUT
10
36.3822
20
255.7478
0
VERTEX
8
CUT
10
36.4888
20
255.9894
0
VERTEX
8
CUT
10
36.9844
20
257.2956
0
VERTEX
8
CUT
10
37.0541
20
257.5076
0
VERTEX
8
CUT
10
37.1047
20
257.7249
0
VERTEX
8
CUT
10
37.1358
20
257.9459
0
VERTEX
8
CUT
10
37.1469
20
258.1688
0
VERTEX
8
CUT
10
37.1495
20
258.6443
0
VERTEX
8
CUT
10
37.1406
20
258.8704
0
VERTEX
8
CUT
10
37.1112
20
259.0946
0
VERTEX
8
CUT
10
37.0616
20
259.3153
0
VERTEX
8
CUT
10
36.9924
20
259.5306
0
VERTEX
8
CUT
10
36.5085
20
260.8299
0
VERTEX
8
CUT
10
36.4025
20
261.0738
0
VERTEX
8
CUT
10
36.2712
20
261.3051
0
VERTEX
8
CUT
10
36.1161
20
261.5212
0
VERTEX
8
CUT
10
35.9389
20
261.7196
0
VERTEX
8
CUT
10
34.9212
20
262.7436
0
VERTEX
8
CUT
10
34.7223
20
262.9234
0
VERTEX
8
CUT
10
34.5052
20
263.0808
0
VERTEX
8
CUT
10
34.2726
20
263.2141
0
VERTEX
8
CUT
10
33.4953
20
263.6056
0
VERTEX
8
CUT
10
33.2836
20
263.7002
0
VERTEX
8
CUT
10
33.0642
20
263.7747
0
VERTEX
8
CUT
10
32.8388
20
263.8286
0
VERTEX
8
CUT
10
32.6094
20
263.8614
0
VERTEX
8
CUT
10
32.3779
20
263.8729
0
VERTEX
8
CUT
10
30.9075
20
263.8771
0
VERTEX
8
CUT
10
30.6844
20
263.8678
0
VERTEX
8
CUT
10
30.4630
20
263.8386
0
VERTEX
8
CUT
10
30.2451
20
263.7898
0
VERTEX
8
CUT
10
30.0324
20
263.7217
0
VERTEX
8
CUT
10
28.7186
20
263.2354
0
VERTEX
8
CUT
10
28.4722
20
263.1288
0
VERTEX
8
CUT
10
28.2386
20
262.9964
0
VERTEX
8
CUT
10
28.0205
20
262.8397
0
VERTEX
8
CUT
10
27.8205
20
262.6605
0
VERTEX
8
CUT
10
27.5684
20
262.4089
0
VERTEX
8
CUT
10
27.3717
20
262.1879
0
VERTEX
8
CUT
10
27.2025
20
261.9453
0
VERTEX
8
CUT
10
26.6296
20
261.0101
0
VERTEX
8
CUT
10
26.5209
20
260.8133
0
VERTEX
8
CUT
10
26.4303
20
260.6076
0
VERTEX
8
CUT
10
26.1486
20
259.8808
0
VERTEX
8
CUT
10
26.1454
20
259.8723
0
VERTEX
8
CUT
10
26.1428
20
259.8657
0
VERTEX
8
CUT
10
26.0696
20
259.6474
0
VERTEX
8
CUT
10
26.0167
20
259.4232
0
VERTEX
8
CUT
10
25.9847
20
259.1952
0
VERTEX
8
CUT
10
25.9739
20
258.9651
0
VERTEX
8
CUT
10
25.9726
20
257.8419
0
VERTEX
8
CUT
10
25.9869
20
257.5718
0
VERTEX
8
CUT
10
26.0303
20
257.3049
0
VERTEX
8
CUT
10
26.1023
20
257.0443
0
VERTEX
8
CUT
10
26.1098
20
257.0218
0
VERTEX
8
CUT
10
26.1118
20
257.0148
0
VERTEX
8
CUT
10
26.1724
20
256.8344
0
VERTEX
8
CUT
10
26.2758
20
256.5757
0
VERTEX
8
CUT
10
26.4073
20
256.3300
0
VERTEX
8
CUT
10
26.4079
20
256.3291
0
SEQEND
0
POLYLINE
8
CUT
66
1
70
1
10
0.0
20
0.0
30
0.0
0
VERTEX
8
CUT
10
25.6009
20
122.8404
0
VERTEX
8
CUT
10
25.6401
20
122.5973
0
VERTEX
8
CUT
10
25.7030
20
122.3592
0
VERTEX
8
CUT
10
25.7890
20
122.1285
0
VERTEX
8
CUT
10
25.8973
20
121.9073
0
VERTEX
8
CUT
10
26.0268
20
121.6979
0
VERTEX
8
CUT
10
26.1763
20
121.5023
0
VERTEX
8
CUT
10
26.3443
20
121.3223
0
VERTEX
8
CUT
10
26.6719
20
121.0043
0
VERTEX
8
CUT
10
26.6749
20
121.0016
0
VERTEX
8
CUT
10
26.6807
20
120.9960
0
VERTEX
8
CUT
10
26.8606
20
120.8373
0
VERTEX
8
CUT
10
27.0549
20
120.6965
0
VERTEX
8
CUT
10
27.2618
20
120.5751
0
VERTEX
8
CUT
10
27.4794
20
120.4740
0
VERTEX
8
CUT
10
27.7057
20
120.3943
0
VERTEX
8
CUT
10
27.9386
20
120.3366
0
VERTEX
8
CUT
10
28.1759
20
120.3015
0
VERTEX
8
CUT
10
28.4155
20
120.2893
0
VERTEX
8
CUT
10
28.4489
20
120.2892
0
VERTEX
8
CUT
10
28.6741
20
120.2987
0
VERTEX
8
CUT
10
28.8976
20
120.3285
0
VERTEX
8
CUT
10
29.1174
20
120.3783
0
VERTEX
8
CUT
10
29.3319
20
120.4477
0
VERTEX
8
CUT
10
29.5393
20
120.5361
0
VERTEX
8
CUT
10
29.8028
20
120.6628
0
VERTEX
8
CUT
10
30.0085
20
120.7738
0
VERTEX
8
CUT
10
30.2029
20
120.9036
0
VERTEX
8
CUT
10
30.3844
20
121.0510
0
VERTEX
8
CUT
10
30.5513
20
121.2146
0
VERTEX
8
CUT
10
30.7022
20
121.3932
0
VERTEX
8
CUT
10
30.8358
20
121.5851
0
VERTEX
8
CUT
10
30.9509
20
121.7886
0
VERTEX
8
CUT
10
31.0544
20
121.9935
0
VERTEX
8
CUT
10
31.1576
20
122.2265
0
VERTEX
8
CUT
10
31.2365
20
122.4688
0
VERTEX
8
CUT
10
31.2903
20
122.7179
0
VERTEX
8
CUT
10
31.3185
20
122.9711
0
VERTEX
8
CUT
10
31.3208
20
123.2260
0
VERTEX
8
CUT
10
31.2971
20
123.4797
0
VERTEX
8
CUT
10
31.2477
20
123.7297
0
VERTEX
8
CUT
10
31.2455
20
123.7385
0
VERTEX
8
CUT
10
31.2388
20
123.7725
0
VERTEX
8
CUT
10
31.1688
20
124.0566
0
VERTEX
8
CUT
10
31.1027
20
124.2796
0
VERTEX
8
CUT
10
31.0161
20
124.4955
0
VERTEX
8
CUT
10
31.0034
20
124.5202
0
VERTEX
8
CUT
10
30.9996
20
124.5295
0
VERTEX
8
CUT
10
30.9647
20
124.5955
0
VERTEX
8
CUT
10
30.9098
20
124.7024
0
VERTEX
8
CUT
10
30.9009
20
124.7165
0
VERTEX
8
CUT
10
30.8877
20
124.7414
0
VERTEX
8
CUT
10
30.7987
20
124.8767
0
VERTEX
8
CUT
10
30.7848
20
124.8985
0
VERTEX
8
CUT
10
30.7783
20
124.9078
0
VERTEX
8
CUT
10
30.7560
20
124.9417
0
VERTEX
8
CUT
10
30.6909
20
125.0310
0
VERTEX
8
CUT
10
30.6208
20
125.1169
0
VERTEX
8
CUT
10
30.5414
20
125.2172
0
VERTEX
8
CUT
10
30.5270
20
125.2317
0
VERTEX
8
CUT
10
30.5170
20
125.2440
0
VERTEX
8
CUT
10
30.4427
20
125.3170
0
VERTEX
8
CUT
10
30.3467
20
125.4139
0
VERTEX
8
CUT
10
30.3307
20
125.4269
0
VERTEX
8
CUT
10
30.3208
20
125.4366
0
VERTEX
8
CUT
10
30.2446
20
125.4965
0
VERTEX
8
CUT
10
30.1315
20
125.5879
0
VERTEX
8
CUT
10
30.0445
20
125.6506
0
VERTEX
8
CUT
10
29.8318
20
125.7881
0
VERTEX
8
CUT
10
29.6063
20
125.9034
0
VERTEX
8
CUT
10
29.3702
20
125.9952
0
VERTEX
8
CUT
10
29.1261
20
126.0627
0
VERTEX
8
CUT
10
28.8764
20
126.1051
0
VERTEX
8
CUT
10
28.6237
20
126.1221
0
VERTEX
8
CUT
10
28.3706
20
126.1134
0
VERTEX
8
CUT
10
28.1196
20
126.0792
0
VERTEX
8
CUT
10
27.8734
20
126.0197
0
VERTEX
8
CUT
10
27.6345
20
125.9356
0
VERTEX
8
CUT
10
27.4053
20
125.8278
0
VERTEX
8
CUT
10
27.1882
20
125.6973
0
VERTEX
8
CUT
10
26.9854
20
125.5455
0
VERTEX
8
CUT
10
26.7990
20
125.3740
0
VERTEX
8
CUT
10
26.3018
20
124.8677
0
VERTEX
8
CUT
10
26.1382
20
124.6837
0
VERTEX
8
CUT
10
25.9934
20
124.4845
0
VERTEX
8
CUT
10
25.8689
20
124.2721
0
VERTEX
8
CUT
10
25.7660
20
124.0484
0
VERTEX
8
CUT
10
25.6855
20
123.8157
0
VERTEX
8
CUT
10
25.6283
20
123.5762
0
VERTEX
8
CUT
10
25.5950
20
123.3322
0
VERTEX
8
CUT
10
25.5858
20
123.0862
0
SEQEND
0
ENDSEC
0
EOF
