0
SECTION
2
ENTITIES
0
POLYLINE
8
CUT
66
1
70
1
0
VERTEX
8
CUT
10
144.4920
20
1.9580
0
VERTEX
8
CUT
10
132.4209
20
2.9269
0
VERTEX
8
CUT
10
127.7252
20
3.5435
0
VERTEX
8
CUT
10
118.8333
20
5.1875
0
VERTEX
8
CUT
10
114.4899
20
6.2443
0
VERTEX
8
CUT
10
105.7019
20
8.8807
0
VERTEX
8
CUT
10
99.1327
20
11.2266
0
VERTEX
8
CUT
10
92.7192
20
13.8450
0
VERTEX
8
CUT
10
86.4584
20
16.7706
0
VERTEX
8
CUT
10
80.3549
20
19.9978
0
VERTEX
8
CUT
10
74.3540
20
23.5279
0
VERTEX
8
CUT
10
68.5160
20
27.3421
0
VERTEX
8
CUT
10
62.8249
20
31.4496
0
VERTEX
8
CUT
10
57.2818
20
35.8493
0
VERTEX
8
CUT
10
51.2743
20
41.2415
0
VERTEX
8
CUT
10
44.9608
20
47.5551
0
VERTEX
8
CUT
10
36.2481
20
57.4715
0
VERTEX
8
CUT
10
33.7805
20
60.6449
0
VERTEX
8
CUT
10
27.2093
20
70.0047
0
VERTEX
8
CUT
10
21.4156
20
79.6023
0
VERTEX
8
CUT
10
16.3983
20
89.4292
0
VERTEX
8
CUT
10
12.1722
20
99.5220
0
VERTEX
8
CUT
10
8.6716
20
109.8482
0
VERTEX
8
CUT
10
6.0028
20
120.3518
0
VERTEX
8
CUT
10
4.1303
20
131.0311
0
VERTEX
8
CUT
10
3.0126
20
141.9408
0
VERTEX
8
CUT
10
2.7783
20
147.6911
0
VERTEX
8
CUT
10
2.8080
20
153.5596
0
VERTEX
8
CUT
10
3.1018
20
159.5159
0
VERTEX
8
CUT
10
3.6595
20
165.5000
0
VERTEX
8
CUT
10
4.4520
20
171.4850
0
VERTEX
8
CUT
10
5.4760
20
177.3953
0
VERTEX
8
CUT
10
6.7371
20
183.2623
0
VERTEX
8
CUT
10
8.2688
20
189.0351
0
VERTEX
8
CUT
10
11.7513
20
199.7167
0
VERTEX
8
CUT
10
15.9160
20
209.9552
0
VERTEX
8
CUT
10
20.8000
20
219.7819
0
VERTEX
8
CUT
10
26.3295
20
229.0563
0
VERTEX
8
CUT
10
32.5485
20
237.8881
0
VERTEX
8
CUT
10
39.4921
20
246.2736
0
VERTEX
8
CUT
10
47.0922
20
254.1947
0
VERTEX
8
CUT
10
55.3944
20
261.6156
0
VERTEX
8
CUT
10
64.9926
20
269.0483
0
VERTEX
8
CUT
10
74.9660
20
275.6497
0
VERTEX
8
CUT
10
85.2616
20
281.4293
0
VERTEX
8
CUT
10
95.9105
20
286.3421
0
VERTEX
8
CUT
10
106.7379
20
290.3606
0
VERTEX
8
CUT
10
117.7679
20
293.4618
0
VERTEX
8
CUT
10
128.9743
20
295.6926
0
VERTEX
8
CUT
10
140.3357
20
296.9582
0
VERTEX
8
CUT
10
154.2158
20
297.2789
0
VERTEX
8
CUT
10
168.0053
20
296.1914
0
VERTEX
8
CUT
10
181.6473
20
293.7545
0
VERTEX
8
CUT
10
195.0260
20
290.0264
0
VERTEX
8
CUT
10
208.0804
20
284.9788
0
VERTEX
8
CUT
10
220.7236
20
278.6699
0
VERTEX
8
CUT
10
232.8977
20
271.1287
0
VERTEX
8
CUT
10
244.4782
20
262.3616
0
VERTEX
8
CUT
10
248.7611
20
258.5476
0
VERTEX
8
CUT
10
256.5305
20
250.8952
0
VERTEX
8
CUT
10
262.7121
20
244.1864
0
VERTEX
8
CUT
10
270.1624
20
234.4205
0
VERTEX
8
CUT
10
276.7639
20
224.2124
0
VERTEX
8
CUT
10
282.4567
20
213.6219
0
VERTEX
8
CUT
10
287.2692
20
202.6501
0
VERTEX
8
CUT
10
291.1818
20
191.3243
0
VERTEX
8
CUT
10
294.1732
20
179.7344
0
VERTEX
8
CUT
10
296.1962
20
167.8821
0
VERTEX
8
CUT
10
297.2788
20
155.8269
0
VERTEX
8
CUT
10
297.3969
20
147.4046
0
VERTEX
8
CUT
10
296.9561
20
138.8963
0
VERTEX
8
CUT
10
295.9906
20
130.3536
0
VERTEX
8
CUT
10
294.4606
20
121.7029
0
VERTEX
8
CUT
10
292.4062
20
113.1657
0
VERTEX
8
CUT
10
289.8242
20
104.6883
0
VERTEX
8
CUT
10
286.7717
20
96.3550
0
VERTEX
8
CUT
10
283.2019
20
88.2498
0
VERTEX
8
CUT
10
277.9711
20
78.2872
0
VERTEX
8
CUT
10
271.8193
20
68.3564
0
VERTEX
8
CUT
10
268.4760
20
63.4877
0
VERTEX
8
CUT
10
261.3977
20
54.2946
0
VERTEX
8
CUT
10
257.7550
20
50.0361
0
VERTEX
8
CUT
10
250.6825
20
42.6715
0
VERTEX
8
CUT
10
243.1122
20
35.8362
0
VERTEX
8
CUT
10
235.0441
20
29.5295
0
VERTEX
8
CUT
10
226.5642
20
23.7797
0
VERTEX
8
CUT
10
217.7036
20
18.6464
0
VERTEX
8
CUT
10
208.5166
20
14.1407
0
VERTEX
8
CUT
10
199.0403
20
10.2962
0
VERTEX
8
CUT
10
189.3282
20
7.1263
0
VERTEX
8
CUT
10
183.4519
20
5.5977
0
VERTEX
8
CUT
10
177.7565
20
4.3645
0
VERTEX
8
CUT
10
171.8612
20
3.3671
0
VERTEX
8
CUT
10
165.4086
20
2.5750
0
VERTEX
8
CUT
10
160.7062
20
2.2806
0
VERTEX
8
CUT
10
144.4920
20
1.9580
0
SEQEND
0
POLYLINE
8
CUT
66
1
70
1
0
VERTEX
8
CUT
10
262.8009
20
155.7471
0
VERTEX
8
CUT
10
262.5125
20
155.4702
0
VERTEX
8
CUT
10
262.6193
20
155.0850
0
VERTEX
8
CUT
10
265.1442
20
153.3229
0
VERTEX
8
CUT
10
267.9875
20
151.8569
0
VERTEX
8
CUT
10
270.5325
20
150.9332
0
VERTEX
8
CUT
10
273.4097
20
150.5055
0
VERTEX
8
CUT
10
275.1416
20
150.6168
0
VERTEX
8
CUT
10
276.7159
20
150.9984
0
VERTEX
8
CUT
10
278.2301
20
151.8250
0
VERTEX
8
CUT
10
279.5494
20
153.1641
0
VERTEX
8
CUT
10
280.1557
20
154.5895
0
VERTEX
8
CUT
10
280.0029
20
156.0240
0
VERTEX
8
CUT
10
279.0484
20
157.6271
0
VERTEX
8
CUT
10
279.0630
20
158.1044
0
VERTEX
8
CUT
10
279.4196
20
158.5336
0
VERTEX
8
CUT
10
280.4256
20
158.9114
0
VERTEX
8
CUT
10
282.1451
20
158.8523
0
VERTEX
8
CUT
10
283.9887
20
158.2247
0
VERTEX
8
CUT
10
285.6200
20
157.1427
0
VERTEX
8
CUT
10
285.9565
20
157.1684
0
VERTEX
8
CUT
10
286.1392
20
157.4091
0
VERTEX
8
CUT
10
285.9727
20
157.8742
0
VERTEX
8
CUT
10
284.1222
20
159.9426
0
VERTEX
8
CUT
10
282.8878
20
168.6269
0
VERTEX
8
CUT
10
282.6032
20
168.7984
0
VERTEX
8
CUT
10
282.2639
20
168.6601
0
VERTEX
8
CUT
10
278.6654
20
163.7624
0
VERTEX
8
CUT
10
276.5144
20
161.4033
0
VERTEX
8
CUT
10
273.1715
20
158.7371
0
VERTEX
8
CUT
10
271.0204
20
157.5707
0
VERTEX
8
CUT
10
268.4305
20
156.5406
0
VERTEX
8
CUT
10
262.8009
20
155.7471
0
SEQEND
0
POLYLINE
8
CUT
66
1
70
1
0
VERTEX
8
CUT
10
272.2557
20
143.3529
0
VERTEX
8
CUT
10
271.8426
20
143.1997
0
VERTEX
8
CUT
10
271.8591
20
142.7277
0
VERTEX
8
CUT
10
276.0375
20
138.7226
0
VERTEX
8
CUT
10
278.1253
20
135.9185
0
VERTEX
8
CUT
10
279.4908
20
133.2064
0
VERTEX
8
CUT
10
280.1868
20
130.1422
0
VERTEX
8
CUT
10
280.7507
20
129.8349
0
VERTEX
8
CUT
10
282.5840
20
130.5135
0
VERTEX
8
CUT
10
283.0986
20
131.7288
0
VERTEX
8
CUT
10
283.6492
20
135.7901
0
VERTEX
8
CUT
10
284.1169
20
140.8205
0
VERTEX
8
CUT
10
284.1423
20
144.4473
0
VERTEX
8
CUT
10
283.7200
20
144.5668
0
VERTEX
8
CUT
10
280.6858
20
143.2141
0
VERTEX
8
CUT
10
279.0166
20
142.9064
0
VERTEX
8
CUT
10
274.8579
20
142.8173
0
VERTEX
8
CUT
10
272.2557
20
143.3529
0
SEQEND
0
POLYLINE
8
CUT
66
1
70
1
0
VERTEX
8
CUT
10
269.5776
20
177.3619
0
VERTEX
8
CUT
10
269.6621
20
176.8382
0
VERTEX
8
CUT
10
273.6127
20
174.4445
0
VERTEX
8
CUT
10
277.3533
20
172.7706
0
VERTEX
8
CUT
10
279.7317
20
172.4190
0
VERTEX
8
CUT
10
282.0237
20
172.6480
0
VERTEX
8
CUT
10
282.8176
20
173.0256
0
VERTEX
8
CUT
10
282.8921
20
173.5476
0
VERTEX
8
CUT
10
281.7234
20
176.3631
0
VERTEX
8
CUT
10
280.3408
20
181.9488
0
VERTEX
8
CUT
10
278.1923
20
189.3322
0
VERTEX
8
CUT
10
277.8960
20
189.3935
0
VERTEX
8
CUT
10
277.6254
20
189.1910
0
VERTEX
8
CUT
10
277.0031
20
186.8433
0
VERTEX
8
CUT
10
276.3794
20
185.3194
0
VERTEX
8
CUT
10
274.6708
20
182.3234
0
VERTEX
8
CUT
10
272.5625
20
179.7768
0
VERTEX
8
CUT
10
269.5776
20
177.3619
0
SEQEND
0
POLYLINE
8
CUT
66
1
70
1
0
VERTEX
8
CUT
10
218.1061
20
94.3461
0
VERTEX
8
CUT
10
218.2771
20
93.8245
0
VERTEX
8
CUT
10
219.0501
20
93.8648
0
VERTEX
8
CUT
10
219.6323
20
93.5836
0
VERTEX
8
CUT
10
221.9478
20
90.5655
0
VERTEX
8
CUT
10
224.4522
20
88.1189
0
VERTEX
8
CUT
10
225.8790
20
86.9817
0
VERTEX
8
CUT
10
228.9059
20
85.0010
0
VERTEX
8
CUT
10
232.0253
20
83.4259
0
VERTEX
8
CUT
10
235.8129
20
82.0648
0
VERTEX
8
CUT
10
238.3074
20
81.6564
0
VERTEX
8
CUT
10
243.1384
20
81.5384
0
VERTEX
8
CUT
10
245.5821
20
81.8205
0
VERTEX
8
CUT
10
248.6619
20
82.9366
0
VERTEX
8
CUT
10
250.3190
20
83.8635
0
VERTEX
8
CUT
10
251.8328
20
85.0204
0
VERTEX
8
CUT
10
253.0507
20
86.2403
0
VERTEX
8
CUT
10
254.0274
20
87.6186
0
VERTEX
8
CUT
10
254.7732
20
89.1111
0
VERTEX
8
CUT
10
255.2302
20
90.6550
0
VERTEX
8
CUT
10
255.3738
20
92.2860
0
VERTEX
8
CUT
10
255.2266
20
93.7357
0
VERTEX
8
CUT
10
254.8512
20
95.1070
0
VERTEX
8
CUT
10
254.0306
20
96.6167
0
VERTEX
8
CUT
10
253.5379
20
96.9848
0
VERTEX
8
CUT
10
252.7761
20
96.9986
0
VERTEX
8
CUT
10
249.8540
20
95.6794
0
VERTEX
8
CUT
10
249.4834
20
95.8349
0
VERTEX
8
CUT
10
249.0810
20
96.4486
0
VERTEX
8
CUT
10
248.6709
20
98.1614
0
VERTEX
8
CUT
10
248.7253
20
99.1430
0
VERTEX
8
CUT
10
249.4291
20
101.0636
0
VERTEX
8
CUT
10
250.8672
20
102.6831
0
VERTEX
8
CUT
10
251.7531
20
103.3607
0
VERTEX
8
CUT
10
253.2487
20
104.0803
0
VERTEX
8
CUT
10
254.9845
20
104.4776
0
VERTEX
8
CUT
10
257.7034
20
104.3604
0
VERTEX
8
CUT
10
259.6367
20
103.9277
0
VERTEX
8
CUT
10
262.0566
20
102.5697
0
VERTEX
8
CUT
10
263.8041
20
101.0036
0
VERTEX
8
CUT
10
265.7956
20
98.6023
0
VERTEX
8
CUT
10
267.1970
20
95.9589
0
VERTEX
8
CUT
10
267.6770
20
94.4986
0
VERTEX
8
CUT
10
268.2150
20
91.3538
0
VERTEX
8
CUT
10
268.3068
20
88.5256
0
VERTEX
8
CUT
10
268.4954
20
88.2498
0
VERTEX
8
CUT
10
268.8284
20
88.2213
0
VERTEX
8
CUT
10
272.0942
20
94.6284
0
VERTEX
8
CUT
10
274.9925
20
101.3041
0
VERTEX
8
CUT
10
279.1438
20
113.3492
0
VERTEX
8
CUT
10
280.4876
20
118.1973
0
VERTEX
8
CUT
10
280.8248
20
120.2978
0
VERTEX
8
CUT
10
280.2042
20
120.5791
0
VERTEX
8
CUT
10
277.2262
20
120.5809
0
VERTEX
8
CUT
10
275.9439
20
121.0559
0
VERTEX
8
CUT
10
273.3293
20
121.2878
0
VERTEX
8
CUT
10
272.2280
20
121.8225
0
VERTEX
8
CUT
10
271.8370
20
121.6416
0
VERTEX
8
CUT
10
271.7995
20
121.3123
0
VERTEX
8
CUT
10
273.0754
20
118.1448
0
VERTEX
8
CUT
10
273.4607
20
116.4493
0
VERTEX
8
CUT
10
273.6377
20
113.5293
0
VERTEX
8
CUT
10
273.4324
20
110.6408
0
VERTEX
8
CUT
10
272.8017
20
107.8493
0
VERTEX
8
CUT
10
271.7628
20
105.3324
0
VERTEX
8
CUT
10
270.3586
20
103.0399
0
VERTEX
8
CUT
10
269.7082
20
102.3368
0
VERTEX
8
CUT
10
269.0815
20
102.0954
0
VERTEX
8
CUT
10
268.4806
20
102.4179
0
VERTEX
8
CUT
10
267.4421
20
104.2504
0
VERTEX
8
CUT
10
265.8543
20
105.9490
0
VERTEX
8
CUT
10
260.0923
20
110.2200
0
VERTEX
8
CUT
10
258.0821
20
112.1712
0
VERTEX
8
CUT
10
255.8031
20
115.6397
0
VERTEX
8
CUT
10
253.7485
20
121.2475
0
VERTEX
8
CUT
10
252.9297
20
121.7965
0
VERTEX
8
CUT
10
250.7882
20
122.6772
0
VERTEX
8
CUT
10
249.0551
20
123.3476
0
VERTEX
8
CUT
10
248.6714
20
123.2455
0
VERTEX
8
CUT
10
248.5890
20
122.2931
0
VERTEX
8
CUT
10
249.1748
20
117.2090
0
VERTEX
8
CUT
10
249.0269
20
111.6841
0
VERTEX
8
CUT
10
248.6423
20
109.0257
0
VERTEX
8
CUT
10
247.0659
20
102.6349
0
VERTEX
8
CUT
10
246.8014
20
100.0320
0
VERTEX
8
CUT
10
246.8612
20
93.9675
0
VERTEX
8
CUT
10
248.1463
20
90.2432
0
VERTEX
8
CUT
10
248.0884
20
89.7725
0
VERTEX
8
CUT
10
247.5263
20
89.2518
0
VERTEX
8
CUT
10
246.1529
20
89.3586
0
VERTEX
8
CUT
10
234.0666
20
92.6365
0
VERTEX
8
CUT
10
229.6929
20
94.2892
0
VERTEX
8
CUT
10
227.1798
20
95.7361
0
VERTEX
8
CUT
10
224.9596
20
97.5093
0
VERTEX
8
CUT
10
221.2173
20
101.5548
0
VERTEX
8
CUT
10
220.7882
20
101.3195
0
VERTEX
8
CUT
10
219.8645
20
98.3342
0
VERTEX
8
CUT
10
218.1061
20
94.3461
0
SEQEND
0
POLYLINE
8
CUT
66
1
70
1
0
VERTEX
8
CUT
10
257.9399
20
215.4390
0
VERTEX
8
CUT
10
257.9061
20
215.1100
0
VERTEX
8
CUT
10
258.1371
20
214.8733
0
VERTEX
8
CUT
10
262.1640
20
213.9465
0
VERTEX
8
CUT
10
266.1558
20
212.2292
0
VERTEX
8
CUT
10
269.8583
20
209.7317
0
VERTEX
8
CUT
10
272.8802
20
206.5584
0
VERTEX
8
CUT
10
273.2068
20
206.4774
0
VERTEX
8
CUT
10
273.4750
20
206.6807
0
VERTEX
8
CUT
10
273.4676
20
207.0516
0
VERTEX
8
CUT
10
272.5133
20
208.3006
0
VERTEX
8
CUT
10
268.5641
20
212.9618
0
VERTEX
8
CUT
10
261.8342
20
223.7615
0
VERTEX
8
CUT
10
261.5054
20
223.7604
0
VERTEX
8
CUT
10
261.3058
20
223.5442
0
VERTEX
8
CUT
10
260.8837
20
220.8344
0
VERTEX
8
CUT
10
259.9985
20
218.4150
0
VERTEX
8
CUT
10
257.9399
20
215.4390
0
SEQEND
0
POLYLINE
8
CUT
66
1
70
1
0
VERTEX
8
CUT
10
234.6070
20
198.2153
0
VERTEX
8
CUT
10
234.3426
20
197.8029
0
VERTEX
8
CUT
10
234.6901
20
197.4574
0
VERTEX
8
CUT
10
240.0467
20
197.6410
0
VERTEX
8
CUT
10
246.4496
20
196.9658
0
VERTEX
8
CUT
10
250.0585
20
196.7928
0
VERTEX
8
CUT
10
253.2537
20
197.0870
0
VERTEX
8
CUT
10
255.8329
20
197.8235
0
VERTEX
8
CUT
10
258.0877
20
198.9459
0
VERTEX
8
CUT
10
258.6891
20
198.7798
0
VERTEX
8
CUT
10
259.0034
20
198.4171
0
VERTEX
8
CUT
10
259.1065
20
197.6442
0
VERTEX
8
CUT
10
258.5772
20
194.0898
0
VERTEX
8
CUT
10
258.0516
20
186.6712
0
VERTEX
8
CUT
10
257.8760
20
180.0230
0
VERTEX
8
CUT
10
257.9334
20
179.4876
0
VERTEX
8
CUT
10
258.1809
20
179.2579
0
VERTEX
8
CUT
10
258.9373
20
179.3866
0
VERTEX
8
CUT
10
260.3187
20
180.0111
0
VERTEX
8
CUT
10
264.9336
20
182.9030
0
VERTEX
8
CUT
10
265.9118
20
183.7692
0
VERTEX
8
CUT
10
267.5301
20
185.7000
0
VERTEX
8
CUT
10
269.0796
20
188.7943
0
VERTEX
8
CUT
10
268.9007
20
189.2246
0
VERTEX
8
CUT
10
268.4667
20
189.2008
0
VERTEX
8
CUT
10
266.6947
20
186.3001
0
VERTEX
8
CUT
10
265.1853
20
185.2247
0
VERTEX
8
CUT
10
264.2585
20
185.0407
0
VERTEX
8
CUT
10
264.2295
20
185.6434
0
VERTEX
8
CUT
10
265.3622
20
188.9554
0
VERTEX
8
CUT
10
265.6545
20
190.7969
0
VERTEX
8
CUT
10
265.6579
20
192.6396
0
VERTEX
8
CUT
10
265.3770
20
194.4173
0
VERTEX
8
CUT
10
264.7753
20
196.1832
0
VERTEX
8
CUT
10
263.9003
20
197.9385
0
VERTEX
8
CUT
10
262.7276
20
199.6043
0
VERTEX
8
CUT
10
261.2821
20
201.1348
0
VERTEX
8
CUT
10
258.0447
20
203.5969
0
VERTEX
8
CUT
10
255.2483
20
204.9689
0
VERTEX
8
CUT
10
245.8521
20
208.1892
0
VERTEX
8
CUT
10
241.5825
20
210.1313
0
VERTEX
8
CUT
10
237.4372
20
212.4237
0
VERTEX
8
CUT
10
233.2437
20
215.1964
0
VERTEX
8
CUT
10
232.9601
20
215.0242
0
VERTEX
8
CUT
10
232.9118
20
214.6960
0
VERTEX
8
CUT
10
234.4535
20
211.3067
0
VERTEX
8
CUT
10
236.0378
20
207.1111
0
VERTEX
8
CUT
10
237.0683
20
203.1985
0
VERTEX
8
CUT
10
237.3972
20
200.9298
0
VERTEX
8
CUT
10
237.4520
20
199.5562
0
VERTEX
8
CUT
10
237.1923
20
198.7516
0
VERTEX
8
CUT
10
236.4852
20
198.4605
0
VERTEX
8
CUT
10
234.6070
20
198.2153
0
SEQEND
0
POLYLINE
8
CUT
66
1
70
1
0
VERTEX
8
CUT
10
197.1611
20
24.1553
0
VERTEX
8
CUT
10
197.1949
20
23.7509
0
VERTEX
8
CUT
10
197.5697
20
23.5955
0
VERTEX
8
CUT
10
200.6845
20
24.8299
0
VERTEX
8
CUT
10
205.5524
20
27.0002
0
VERTEX
8
CUT
10
215.0758
20
31.9080
0
VERTEX
8
CUT
10
224.2026
20
37.5530
0
VERTEX
8
CUT
10
232.7151
20
43.7831
0
VERTEX
8
CUT
10
239.4218
20
49.5231
0
VERTEX
8
CUT
10
245.0880
20
55.1309
0
VERTEX
8
CUT
10
247.9277
20
58.2046
0
VERTEX
8
CUT
10
255.8268
20
67.5952
0
VERTEX
8
CUT
10
258.8362
20
71.7244
0
VERTEX
8
CUT
10
258.8217
20
72.1829
0
VERTEX
8
CUT
10
258.3463
20
72.2959
0
VERTEX
8
CUT
10
254.7764
20
70.3906
0
VERTEX
8
CUT
10
252.5947
20
69.5343
0
VERTEX
8
CUT
10
248.0795
20
68.4096
0
VERTEX
8
CUT
10
243.7042
20
68.1398
0
VERTEX
8
CUT
10
240.0350
20
68.3945
0
VERTEX
8
CUT
10
239.9480
20
67.9022
0
VERTEX
8
CUT
10
242.0717
20
65.0256
0
VERTEX
8
CUT
10
242.8176
20
62.6744
0
VERTEX
8
CUT
10
242.9341
20
60.7747
0
VERTEX
8
CUT
10
242.7829
20
58.5489
0
VERTEX
8
CUT
10
242.3494
20
57.2864
0
VERTEX
8
CUT
10
241.2887
20
55.5483
0
VERTEX
8
CUT
10
240.2658
20
54.4609
0
VERTEX
8
CUT
10
239.1358
20
53.6063
0
VERTEX
8
CUT
10
237.4517
20
53.0014
0
VERTEX
8
CUT
10
236.6507
20
52.9971
0
VERTEX
8
CUT
10
236.1671
20
53.2820
0
VERTEX
8
CUT
10
236.0411
20
53.6259
0
VERTEX
8
CUT
10
236.4756
20
55.0502
0
VERTEX
8
CUT
10
236.4891
20
56.1602
0
VERTEX
8
CUT
10
236.2362
20
56.4285
0
VERTEX
8
CUT
10
235.9041
20
56.3882
0
VERTEX
8
CUT
10
234.6982
20
54.7526
0
VERTEX
8
CUT
10
232.4929
20
52.5480
0
VERTEX
8
CUT
10
229.9998
20
50.4067
0
VERTEX
8
CUT
10
227.1859
20
48.4400
0
VERTEX
8
CUT
10
223.2922
20
43.4645
0
VERTEX
8
CUT
10
220.5901
20
40.9398
0
VERTEX
8
CUT
10
217.5171
20
38.8419
0
VERTEX
8
CUT
10
214.2077
20
37.2463
0
VERTEX
8
CUT
10
210.7142
20
36.1592
0
VERTEX
8
CUT
10
207.0788
20
35.6234
0
VERTEX
8
CUT
10
203.3597
20
35.6506
0
VERTEX
8
CUT
10
198.6775
20
36.4981
0
VERTEX
8
CUT
10
198.0763
20
36.4501
0
VERTEX
8
CUT
10
197.9407
20
36.0427
0
VERTEX
8
CUT
10
198.8423
20
33.2980
0
VERTEX
8
CUT
10
198.9586
20
29.1253
0
VERTEX
8
CUT
10
198.6791
20
27.4552
0
VERTEX
8
CUT
10
197.1611
20
24.1553
0
SEQEND
0
POLYLINE
8
CUT
66
1
70
1
0
VERTEX
8
CUT
10
217.0348
20
92.2281
0
VERTEX
8
CUT
10
217.8178
20
90.5614
0
VERTEX
8
CUT
10
219.8903
20
87.8172
0
VERTEX
8
CUT
10
223.4339
20
84.0992
0
VERTEX
8
CUT
10
225.3490
20
82.4501
0
VERTEX
8
CUT
10
229.3378
20
79.7619
0
VERTEX
8
CUT
10
231.4591
20
78.6712
0
VERTEX
8
CUT
10
233.6179
20
77.7398
0
VERTEX
8
CUT
10
238.0576
20
76.5002
0
VERTEX
8
CUT
10
240.6975
20
76.2057
0
VERTEX
8
CUT
10
243.5989
20
76.2357
0
VERTEX
8
CUT
10
246.4549
20
76.5286
0
VERTEX
8
CUT
10
249.3663
20
77.2792
0
VERTEX
8
CUT
10
251.9380
20
78.4063
0
VERTEX
8
CUT
10
253.4194
20
79.3070
0
VERTEX
8
CUT
10
256.2393
20
81.8391
0
VERTEX
8
CUT
10
257.8115
20
83.9138
0
VERTEX
8
CUT
10
257.6418
20
84.3183
0
VERTEX
8
CUT
10
257.2031
20
84.3091
0
VERTEX
8
CUT
10
254.9895
20
82.0176
0
VERTEX
8
CUT
10
252.7403
20
80.3151
0
VERTEX
8
CUT
10
249.9438
20
79.0210
0
VERTEX
8
CUT
10
247.4513
20
78.1705
0
VERTEX
8
CUT
10
244.8701
20
77.7197
0
VERTEX
8
CUT
10
242.0856
20
77.6318
0
VERTEX
8
CUT
10
236.4264
20
78.3074
0
VERTEX
8
CUT
10
234.4742
20
78.8180
0
VERTEX
8
CUT
10
230.8131
20
80.2531
0
VERTEX
8
CUT
10
227.2464
20
82.3910
0
VERTEX
8
CUT
10
224.1157
20
84.8157
0
VERTEX
8
CUT
10
220.4538
20
88.6533
0
VERTEX
8
CUT
10
218.7248
20
91.0666
0
VERTEX
8
CUT
10
217.9478
20
93.0378
0
VERTEX
8
CUT
10
217.3955
20
93.0479
0
VERTEX
8
CUT
10
217.0348
20
92.2281
0
SEQEND
0
POLYLINE
8
CUT
66
1
70
1
0
VERTEX
8
CUT
10
242.6476
20
246.7956
0
VERTEX
8
CUT
10
242.2249
20
246.9160
0
VERTEX
8
CUT
10
241.9585
20
246.5664
0
VERTEX
8
CUT
10
242.2315
20
245.6944
0
VERTEX
8
CUT
10
242.5239
20
242.9602
0
VERTEX
8
CUT
10
241.9991
20
240.3649
0
VERTEX
8
CUT
10
240.8209
20
238.0920
0
VERTEX
8
CUT
10
239.0719
20
236.2294
0
VERTEX
8
CUT
10
236.8087
20
234.8012
0
VERTEX
8
CUT
10
234.1555
20
233.9067
0
VERTEX
8
CUT
10
231.2133
20
233.6105
0
VERTEX
8
CUT
10
228.0632
20
233.9892
0
VERTEX
8
CUT
10
224.5825
20
235.1839
0
VERTEX
8
CUT
10
220.3632
20
237.5955
0
VERTEX
8
CUT
10
220.0012
20
237.5572
0
VERTEX
8
CUT
10
219.8300
20
237.1989
0
VERTEX
8
CUT
10
222.3156
20
234.1039
0
VERTEX
8
CUT
10
227.6040
20
228.1429
0
VERTEX
8
CUT
10
231.3367
20
224.7003
0
VERTEX
8
CUT
10
233.2200
20
223.2291
0
VERTEX
8
CUT
10
236.9461
20
220.8731
0
VERTEX
8
CUT
10
240.5126
20
219.3190
0
VERTEX
8
CUT
10
243.8240
20
218.7956
0
VERTEX
8
CUT
10
246.1922
20
218.9082
0
VERTEX
8
CUT
10
248.3377
20
219.3801
0
VERTEX
8
CUT
10
250.3992
20
220.5497
0
VERTEX
8
CUT
10
251.6882
20
222.1590
0
VERTEX
8
CUT
10
252.1619
20
223.4590
0
VERTEX
8
CUT
10
252.1338
20
224.1953
0
VERTEX
8
CUT
10
251.5807
20
224.2239
0
VERTEX
8
CUT
10
250.8103
20
222.9152
0
VERTEX
8
CUT
10
249.4185
20
221.7011
0
VERTEX
8
CUT
10
246.8764
20
220.5778
0
VERTEX
8
CUT
10
243.9701
20
220.3371
0
VERTEX
8
CUT
10
240.6904
20
220.7885
0
VERTEX
8
CUT
10
237.6359
20
221.8607
0
VERTEX
8
CUT
10
233.3236
20
224.5306
0
VERTEX
8
CUT
10
230.5360
20
226.7548
0
VERTEX
8
CUT
10
226.9022
20
230.3007
0
VERTEX
8
CUT
10
227.0888
20
230.6527
0
VERTEX
8
CUT
10
227.7626
20
230.5480
0
VERTEX
8
CUT
10
233.0299
20
227.5333
0
VERTEX
8
CUT
10
236.7362
20
226.0842
0
VERTEX
8
CUT
10
239.5931
20
225.5915
0
VERTEX
8
CUT
10
242.4107
20
225.6460
0
VERTEX
8
CUT
10
244.4833
20
226.1689
0
VERTEX
8
CUT
10
245.1325
20
226.6466
0
VERTEX
8
CUT
10
245.2143
20
227.3448
0
VERTEX
8
CUT
10
244.6654
20
228.5935
0
VERTEX
8
CUT
10
244.4493
20
229.6702
0
VERTEX
8
CUT
10
244.6645
20
231.4545
0
VERTEX
8
CUT
10
245.1233
20
232.5791
0
VERTEX
8
CUT
10
245.8181
20
233.5454
0
VERTEX
8
CUT
10
247.6699
20
235.0018
0
VERTEX
8
CUT
10
249.9938
20
235.6671
0
VERTEX
8
CUT
10
252.5305
20
235.5509
0
VERTEX
8
CUT
10
254.6701
20
234.7887
0
VERTEX
8
CUT
10
257.0071
20
233.2010
0
VERTEX
8
CUT
10
257.4549
20
233.3107
0
VERTEX
8
CUT
10
257.4633
20
233.8017
0
VERTEX
8
CUT
10
255.5503
20
235.5795
0
VERTEX
8
CUT
10
254.4683
20
236.2189
0
VERTEX
8
CUT
10
252.5853
20
236.8277
0
VERTEX
8
CUT
10
250.6129
20
238.4657
0
VERTEX
8
CUT
10
246.9940
20
242.0549
0
VERTEX
8
CUT
10
242.6476
20
246.7956
0
SEQEND
0
POLYLINE
8
CUT
66
1
70
1
0
VERTEX
8
CUT
10
246.6447
20
165.9181
0
VERTEX
8
CUT
10
246.4862
20
165.5397
0
VERTEX
8
CUT
10
246.7744
20
165.1721
0
VERTEX
8
CUT
10
249.5173
20
163.9245
0
VERTEX
8
CUT
10
251.9641
20
163.7576
0
VERTEX
8
CUT
10
252.3362
20
164.0420
0
VERTEX
8
CUT
10
252.1987
20
164.4566
0
VERTEX
8
CUT
10
250.7157
20
165.1526
0
VERTEX
8
CUT
10
248.7552
20
166.7277
0
VERTEX
8
CUT
10
246.6447
20
165.9181
0
SEQEND
0
POLYLINE
8
CUT
66
1
70
1
0
VERTEX
8
CUT
10
230.5930
20
162.5187
0
VERTEX
8
CUT
10
230.1603
20
162.5733
0
VERTEX
8
CUT
10
229.9527
20
162.1543
0
VERTEX
8
CUT
10
231.4485
20
157.4987
0
VERTEX
8
CUT
10
232.0905
20
150.6930
0
VERTEX
8
CUT
10
232.2835
20
149.7172
0
VERTEX
8
CUT
10
232.6062
20
149.1577
0
VERTEX
8
CUT
10
234.8747
20
146.8101
0
VERTEX
8
CUT
10
236.9391
20
145.1538
0
VERTEX
8
CUT
10
238.8552
20
143.9083
0
VERTEX
8
CUT
10
241.4672
20
142.7894
0
VERTEX
8
CUT
10
244.0730
20
142.0351
0
VERTEX
8
CUT
10
246.1077
20
141.7757
0
VERTEX
8
CUT
10
246.8052
20
141.9234
0
VERTEX
8
CUT
10
246.9416
20
142.2215
0
VERTEX
8
CUT
10
246.8162
20
142.6568
0
VERTEX
8
CUT
10
246.2067
20
143.4539
0
VERTEX
8
CUT
10
243.6035
20
143.5230
0
VERTEX
8
CUT
10
240.2451
20
144.5745
0
VERTEX
8
CUT
10
236.8749
20
146.5299
0
VERTEX
8
CUT
10
234.1551
20
148.9287
0
VERTEX
8
CUT
10
233.2993
20
150.1897
0
VERTEX
8
CUT
10
233.0265
20
151.2476
0
VERTEX
8
CUT
10
232.0531
20
160.7274
0
VERTEX
8
CUT
10
231.6874
20
161.5567
0
VERTEX
8
CUT
10
230.5930
20
162.5187
0
SEQEND
0
POLYLINE
8
CUT
66
1
70
1
0
VERTEX
8
CUT
10
216.6604
20
266.2067
0
VERTEX
8
CUT
10
216.2745
20
266.3051
0
VERTEX
8
CUT
10
216.0132
20
266.0501
0
VERTEX
8
CUT
10
216.0987
20
263.5249
0
VERTEX
8
CUT
10
215.8333
20
261.5050
0
VERTEX
8
CUT
10
215.5798
20
260.5629
0
VERTEX
8
CUT
10
214.6726
20
258.8196
0
VERTEX
8
CUT
10
212.2575
20
256.1449
0
VERTEX
8
CUT
10
210.2390
20
254.7234
0
VERTEX
8
CUT
10
207.5540
20
253.4566
0
VERTEX
8
CUT
10
207.4650
20
252.9078
0
VERTEX
8
CUT
10
212.3789
20
251.2449
0
VERTEX
8
CUT
10
215.1743
20
249.9665
0
VERTEX
8
CUT
10
217.9705
20
248.3470
0
VERTEX
8
CUT
10
224.8606
20
243.6456
0
VERTEX
8
CUT
10
226.8253
20
242.6491
0
VERTEX
8
CUT
10
228.4460
20
242.1175
0
VERTEX
8
CUT
10
229.9479
20
241.9385
0
VERTEX
8
CUT
10
231.4681
20
242.0535
0
VERTEX
8
CUT
10
232.6262
20
242.5929
0
VERTEX
8
CUT
10
233.7080
20
243.8021
0
VERTEX
8
CUT
10
233.8146
20
244.8352
0
VERTEX
8
CUT
10
233.3395
20
245.7441
0
VERTEX
8
CUT
10
231.4905
20
246.9847
0
VERTEX
8
CUT
10
231.1171
20
247.6580
0
VERTEX
8
CUT
10
231.1574
20
248.4995
0
VERTEX
8
CUT
10
231.5794
20
249.2479
0
VERTEX
8
CUT
10
233.2059
20
250.4596
0
VERTEX
8
CUT
10
234.3889
20
250.8444
0
VERTEX
8
CUT
10
236.7271
20
250.8995
0
VERTEX
8
CUT
10
237.8114
20
250.5870
0
VERTEX
8
CUT
10
239.4546
20
249.7363
0
VERTEX
8
CUT
10
239.8370
20
249.9332
0
VERTEX
8
CUT
10
239.8273
20
250.3311
0
VERTEX
8
CUT
10
238.5211
20
251.4071
0
VERTEX
8
CUT
10
234.0244
20
254.1220
0
VERTEX
8
CUT
10
225.8440
20
260.0151
0
VERTEX
8
CUT
10
218.4008
20
264.8797
0
VERTEX
8
CUT
10
216.6604
20
266.2067
0
SEQEND
0
POLYLINE
8
CUT
66
1
70
1
0
VERTEX
8
CUT
10
219.8887
20
175.8945
0
VERTEX
8
CUT
10
218.5416
20
176.4616
0
VERTEX
8
CUT
10
218.1368
20
176.0486
0
VERTEX
8
CUT
10
218.0346
20
175.6874
0
VERTEX
8
CUT
10
218.2353
20
175.2844
0
VERTEX
8
CUT
10
224.9293
20
170.0180
0
VERTEX
8
CUT
10
226.2623
20
169.3247
0
VERTEX
8
CUT
10
228.9545
20
168.7791
0
VERTEX
8
CUT
10
229.3215
20
169.0193
0
VERTEX
8
CUT
10
229.1910
20
169.6785
0
VERTEX
8
CUT
10
229.5660
20
170.1108
0
VERTEX
8
CUT
10
232.9721
20
171.3293
0
VERTEX
8
CUT
10
235.3587
20
172.6330
0
VERTEX
8
CUT
10
237.1817
20
174.4666
0
VERTEX
8
CUT
10
238.4789
20
176.7957
0
VERTEX
8
CUT
10
238.2350
20
177.1488
0
VERTEX
8
CUT
10
237.8425
20
177.0894
0
VERTEX
8
CUT
10
235.6723
20
174.5550
0
VERTEX
8
CUT
10
233.8514
20
173.2489
0
VERTEX
8
CUT
10
231.3367
20
172.5864
0
VERTEX
8
CUT
10
228.1562
20
172.2616
0
VERTEX
8
CUT
10
226.6794
20
172.3785
0
VERTEX
8
CUT
10
225.9083
20
172.7065
0
VERTEX
8
CUT
10
221.2907
20
176.5064
0
VERTEX
8
CUT
10
220.9667
20
176.5193
0
VERTEX
8
CUT
10
219.8887
20
175.8945
0
SEQEND
0
POLYLINE
8
CUT
66
1
70
1
0
VERTEX
8
CUT
10
226.8943
20
117.4571
0
VERTEX
8
CUT
10
226.3702
20
117.3104
0
VERTEX
8
CUT
10
226.4965
20
116.7480
0
VERTEX
8
CUT
10
227.5504
20
115.7276
0
VERTEX
8
CUT
10
229.7188
20
114.2156
0
VERTEX
8
CUT
10
232.3641
20
113.1294
0
VERTEX
8
CUT
10
232.7951
20
113.1551
0
VERTEX
8
CUT
10
233.1383
20
113.4626
0
VERTEX
8
CUT
10
233.4651
20
114.4508
0
VERTEX
8
CUT
10
233.3035
20
114.8218
0
VERTEX
8
CUT
10
232.9350
20
114.8657
0
VERTEX
8
CUT
10
232.0566
20
114.3428
0
VERTEX
8
CUT
10
231.1780
20
114.5842
0
VERTEX
8
CUT
10
228.6722
20
116.0400
0
VERTEX
8
CUT
10
226.8943
20
117.4571
0
SEQEND
0
POLYLINE
8
CUT
66
1
70
1
0
VERTEX
8
CUT
10
228.8225
20
64.5797
0
VERTEX
8
CUT
10
228.3701
20
64.6713
0
VERTEX
8
CUT
10
228.1472
20
64.2670
0
VERTEX
8
CUT
10
228.8124
20
60.9309
0
VERTEX
8
CUT
10
229.0807
20
58.1257
0
VERTEX
8
CUT
10
229.5191
20
57.8267
0
VERTEX
8
CUT
10
231.1728
20
59.4931
0
VERTEX
8
CUT
10
232.0111
20
61.0021
0
VERTEX
8
CUT
10
231.6220
20
61.6650
0
VERTEX
8
CUT
10
228.8225
20
64.5797
0
SEQEND
0
POLYLINE
8
CUT
66
1
70
1
0
VERTEX
8
CUT
10
221.9580
20
191.2972
0
VERTEX
8
CUT
10
222.1622
20
190.9544
0
VERTEX
8
CUT
10
222.5280
20
190.9512
0
VERTEX
8
CUT
10
225.2619
20
193.2982
0
VERTEX
8
CUT
10
227.3393
20
194.7612
0
VERTEX
8
CUT
10
229.6136
20
196.0034
0
VERTEX
8
CUT
10
231.5788
20
196.7724
0
VERTEX
8
CUT
10
231.7902
20
197.0308
0
VERTEX
8
CUT
10
231.6727
20
197.4146
0
VERTEX
8
CUT
10
230.7669
20
197.7006
0
VERTEX
8
CUT
10
230.5714
20
198.1312
0
VERTEX
8
CUT
10
230.0056
20
202.6828
0
VERTEX
8
CUT
10
229.1917
20
206.8393
0
VERTEX
8
CUT
10
228.1072
20
210.7056
0
VERTEX
8
CUT
10
227.5526
20
212.1596
0
VERTEX
8
CUT
10
227.2739
20
212.4025
0
VERTEX
8
CUT
10
226.9812
20
212.3552
0
VERTEX
8
CUT
10
226.7990
20
212.0786
0
VERTEX
8
CUT
10
226.7901
20
209.9708
0
VERTEX
8
CUT
10
226.3805
20
206.4019
0
VERTEX
8
CUT
10
225.2934
20
200.9915
0
VERTEX
8
CUT
10
223.9934
20
197.4404
0
VERTEX
8
CUT
10
222.3015
20
194.0551
0
VERTEX
8
CUT
10
221.9915
20
192.5435
0
VERTEX
8
CUT
10
221.9580
20
191.2972
0
SEQEND
0
POLYLINE
8
CUT
66
1
70
1
0
VERTEX
8
CUT
10
216.3791
20
147.7056
0
VERTEX
8
CUT
10
216.0183
20
147.5519
0
VERTEX
8
CUT
10
215.9267
20
147.1205
0
VERTEX
8
CUT
10
216.2681
20
145.2762
0
VERTEX
8
CUT
10
217.2850
20
141.6129
0
VERTEX
8
CUT
10
218.3551
20
139.0914
0
VERTEX
8
CUT
10
218.8399
20
138.2675
0
VERTEX
8
CUT
10
219.3584
20
137.8344
0
VERTEX
8
CUT
10
220.8918
20
137.3315
0
VERTEX
8
CUT
10
221.7944
20
136.7813
0
VERTEX
8
CUT
10
222.0871
20
136.7996
0
VERTEX
8
CUT
10
222.3079
20
137.1644
0
VERTEX
8
CUT
10
221.9521
20
140.6572
0
VERTEX
8
CUT
10
221.4863
20
140.8317
0
VERTEX
8
CUT
10
220.8809
20
140.2831
0
VERTEX
8
CUT
10
220.4586
20
140.1518
0
VERTEX
8
CUT
10
219.7534
20
140.4058
0
VERTEX
8
CUT
10
219.3464
20
140.7724
0
VERTEX
8
CUT
10
218.3299
20
142.5108
0
VERTEX
8
CUT
10
217.3028
20
145.1514
0
VERTEX
8
CUT
10
217.2661
20
145.9430
0
VERTEX
8
CUT
10
217.6125
20
146.9126
0
VERTEX
8
CUT
10
217.0042
20
147.4472
0
VERTEX
8
CUT
10
216.3791
20
147.7056
0
SEQEND
0
POLYLINE
8
CUT
66
1
70
1
0
VERTEX
8
CUT
10
45.6895
20
211.0019
0
VERTEX
8
CUT
10
45.8163
20
210.6532
0
VERTEX
8
CUT
10
46.1776
20
210.5684
0
VERTEX
8
CUT
10
50.8651
20
212.7229
0
VERTEX
8
CUT
10
55.2636
20
213.8664
0
VERTEX
8
CUT
10
58.3339
20
214.3386
0
VERTEX
8
CUT
10
58.3884
20
215.0233
0
VERTEX
8
CUT
10
56.7766
20
220.0943
0
VERTEX
8
CUT
10
56.9139
20
220.8213
0
VERTEX
8
CUT
10
57.4694
20
221.1670
0
VERTEX
8
CUT
10
58.9388
20
220.9163
0
VERTEX
8
CUT
10
60.7327
20
219.9065
0
VERTEX
8
CUT
10
63.6266
20
216.9795
0
VERTEX
8
CUT
10
66.0584
20
213.4899
0
VERTEX
8
CUT
10
66.6163
20
213.4712
0
VERTEX
8
CUT
10
66.6808
20
214.0796
0
VERTEX
8
CUT
10
64.5415
20
223.6339
0
VERTEX
8
CUT
10
64.1582
20
226.0486
0
VERTEX
8
CUT
10
64.1660
20
227.3209
0
VERTEX
8
CUT
10
64.7471
20
227.8675
0
VERTEX
8
CUT
10
65.2830
20
227.8649
0
VERTEX
8
CUT
10
66.3978
20
227.4227
0
VERTEX
8
CUT
10
67.6505
20
226.4943
0
VERTEX
8
CUT
10
68.8734
20
225.2083
0
VERTEX
8
CUT
10
70.9430
20
221.8938
0
VERTEX
8
CUT
10
72.7797
20
217.3640
0
VERTEX
8
CUT
10
73.1961
20
217.1645
0
VERTEX
8
CUT
10
73.5136
20
217.5401
0
VERTEX
8
CUT
10
73.1203
20
227.5684
0
VERTEX
8
CUT
10
73.2376
20
229.9374
0
VERTEX
8
CUT
10
73.5311
20
230.3866
0
VERTEX
8
CUT
10
74.1555
20
230.6866
0
VERTEX
8
CUT
10
74.5778
20
230.6446
0
VERTEX
8
CUT
10
75.4074
20
230.1631
0
VERTEX
8
CUT
10
77.3078
20
228.1708
0
VERTEX
8
CUT
10
78.7169
20
225.5586
0
VERTEX
8
CUT
10
79.7487
20
222.1611
0
VERTEX
8
CUT
10
80.4227
20
217.8524
0
VERTEX
8
CUT
10
80.6894
20
214.6260
0
VERTEX
8
CUT
10
81.0157
20
214.2957
0
VERTEX
8
CUT
10
81.4417
20
214.5467
0
VERTEX
8
CUT
10
82.5100
20
218.0757
0
VERTEX
8
CUT
10
84.0133
20
221.3771
0
VERTEX
8
CUT
10
85.5752
20
223.3919
0
VERTEX
8
CUT
10
86.0101
20
223.6761
0
VERTEX
8
CUT
10
86.5889
20
223.6680
0
VERTEX
8
CUT
10
87.5360
20
222.3370
0
VERTEX
8
CUT
10
88.1417
20
220.7491
0
VERTEX
8
CUT
10
88.5969
20
217.7632
0
VERTEX
8
CUT
10
88.4498
20
213.8644
0
VERTEX
8
CUT
10
87.5225
20
208.1881
0
VERTEX
8
CUT
10
87.6061
20
207.9030
0
VERTEX
8
CUT
10
87.8661
20
207.7594
0
VERTEX
8
CUT
10
88.1806
20
207.8657
0
VERTEX
8
CUT
10
90.1964
20
210.7861
0
VERTEX
8
CUT
10
91.7424
20
212.5074
0
VERTEX
8
CUT
10
93.2016
20
213.6655
0
VERTEX
8
CUT
10
93.7875
20
213.9533
0
VERTEX
8
CUT
10
94.7606
20
213.9629
0
VERTEX
8
CUT
10
95.3884
20
213.4866
0
VERTEX
8
CUT
10
95.7367
20
212.4978
0
VERTEX
8
CUT
10
95.9519
20
209.8706
0
VERTEX
8
CUT
10
95.5693
20
206.8344
0
VERTEX
8
CUT
10
94.2696
20
203.1312
0
VERTEX
8
CUT
10
92.6465
20
199.4753
0
VERTEX
8
CUT
10
92.6799
20
199.1080
0
VERTEX
8
CUT
10
93.2219
20
198.9983
0
VERTEX
8
CUT
10
94.9826
20
200.6251
0
VERTEX
8
CUT
10
97.4093
20
202.1446
0
VERTEX
8
CUT
10
98.8445
20
202.5636
0
VERTEX
8
CUT
10
100.3820
20
202.5006
0
VERTEX
8
CUT
10
100.5505
20
202.3129
0
VERTEX
8
CUT
10
100.4346
20
198.3570
0
VERTEX
8
CUT
10
99.4197
20
195.6161
0
VERTEX
8
CUT
10
97.3782
20
192.2709
0
VERTEX
8
CUT
10
92.7650
20
185.6616
0
VERTEX
8
CUT
10
91.8677
20
184.6695
0
VERTEX
8
CUT
10
91.8883
20
184.2130
0
VERTEX
8
CUT
10
93.6234
20
183.4858
0
VERTEX
8
CUT
10
95.4567
20
183.1581
0
VERTEX
8
CUT
10
95.9175
20
183.7182
0
VERTEX
8
CUT
10
96.1276
20
185.9816
0
VERTEX
8
CUT
10
96.5018
20
186.7056
0
VERTEX
8
CUT
10
97.0758
20
186.7671
0
VERTEX
8
CUT
10
97.8085
20
186.3234
0
VERTEX
8
CUT
10
99.5108
20
186.0106
0
VERTEX
8
CUT
10
100.3422
20
185.2699
0
VERTEX
8
CUT
10
100.8314
20
184.1172
0
VERTEX
8
CUT
10
101.1125
20
180.9115
0
VERTEX
8
CUT
10
105.7798
20
178.5700
0
VERTEX
8
CUT
10
109.9461
20
176.0760
0
VERTEX
8
CUT
10
113.6006
20
173.2185
0
VERTEX
8
CUT
10
116.5695
20
170.3681
0
VERTEX
8
CUT
10
119.5780
20
166.6548
0
VERTEX
8
CUT
10
122.0843
20
162.4717
0
VERTEX
8
CUT
10
124.2366
20
157.4350
0
VERTEX
8
CUT
10
126.4692
20
151.1219
0
VERTEX
8
CUT
10
127.6536
20
148.4064
0
VERTEX
8
CUT
10
128.9317
20
146.0797
0
VERTEX
8
CUT
10
130.3674
20
144.0274
0
VERTEX
8
CUT
10
132.0139
20
142.1212
0
VERTEX
8
CUT
10
136.4577
20
137.9409
0
VERTEX
8
CUT
10
140.1634
20
135.2293
0
VERTEX
8
CUT
10
141.1676
20
134.7008
0
VERTEX
8
CUT
10
142.2214
20
134.4219
0
VERTEX
8
CUT
10
147.2042
20
133.9498
0
VERTEX
8
CUT
10
155.4369
20
133.8915
0
VERTEX
8
CUT
10
161.3293
20
134.3575
0
VERTEX
8
CUT
10
163.9133
20
134.9201
0
VERTEX
8
CUT
10
164.1236
20
135.1478
0
VERTEX
8
CUT
10
165.0191
20
138.2942
0
VERTEX
8
CUT
10
164.7683
20
138.5180
0
VERTEX
8
CUT
10
164.4366
20
138.4636
0
VERTEX
8
CUT
10
163.9052
20
137.3599
0
VERTEX
8
CUT
10
163.1837
20
136.5776
0
VERTEX
8
CUT
10
161.0801
20
135.7010
0
VERTEX
8
CUT
10
156.0732
20
134.9952
0
VERTEX
8
CUT
10
151.9463
20
134.8488
0
VERTEX
8
CUT
10
150.1090
20
135.0065
0
VERTEX
8
CUT
10
149.6158
20
135.4317
0
VERTEX
8
CUT
10
150.5505
20
138.0426
0
VERTEX
8
CUT
10
150.4228
20
138.4578
0
VERTEX
8
CUT
10
146.1258
20
140.1153
0
VERTEX
8
CUT
10
140.0606
20
143.1918
0
VERTEX
8
CUT
10
138.1523
20
144.5004
0
VERTEX
8
CUT
10
137.1907
20
145.5900
0
VERTEX
8
CUT
10
136.9626
20
146.4382
0
VERTEX
8
CUT
10
137.6221
20
147.0617
0
VERTEX
8
CUT
10
140.3610
20
147.6257
0
VERTEX
8
CUT
10
141.7067
20
148.1407
0
VERTEX
8
CUT
10
143.0269
20
148.8869
0
VERTEX
8
CUT
10
144.3690
20
149.9389
0
VERTEX
8
CUT
10
147.0280
20
152.8622
0
VERTEX
8
CUT
10
154.0075
20
162.9764
0
VERTEX
8
CUT
10
156.6112
20
165.7850
0
VERTEX
8
CUT
10
158.0029
20
166.9716
0
VERTEX
8
CUT
10
161.8781
20
169.5734
0
VERTEX
8
CUT
10
161.9180
20
170.1261
0
VERTEX
8
CUT
10
156.3170
20
172.3302
0
VERTEX
8
CUT
10
155.2140
20
171.8552
0
VERTEX
8
CUT
10
153.9825
20
171.0322
0
VERTEX
8
CUT
10
152.3495
20
169.2845
0
VERTEX
8
CUT
10
149.7286
20
164.8738
0
VERTEX
8
CUT
10
147.4639
20
161.9928
0
VERTEX
8
CUT
10
144.8351
20
160.0004
0
VERTEX
8
CUT
10
143.4253
20
159.3259
0
VERTEX
8
CUT
10
141.9024
20
158.8723
0
VERTEX
8
CUT
10
140.3198
20
158.6378
0
VERTEX
8
CUT
10
137.2646
20
158.8729
0
VERTEX
8
CUT
10
134.5120
20
159.9412
0
VERTEX
8
CUT
10
133.3144
20
160.7364
0
VERTEX
8
CUT
10
132.3486
20
161.7020
0
VERTEX
8
CUT
10
131.6214
20
162.7639
0
VERTEX
8
CUT
10
131.0730
20
164.2892
0
VERTEX
8
CUT
10
131.1660
20
164.8562
0
VERTEX
8
CUT
10
131.6362
20
165.1347
0
VERTEX
8
CUT
10
134.9446
20
165.3733
0
VERTEX
8
CUT
10
136.5135
20
166.1364
0
VERTEX
8
CUT
10
137.9744
20
167.6858
0
VERTEX
8
CUT
10
141.2181
20
172.4788
0
VERTEX
8
CUT
10
143.2599
20
174.4948
0
VERTEX
8
CUT
10
145.6479
20
176.0071
0
VERTEX
8
CUT
10
149.0136
20
177.1504
0
VERTEX
8
CUT
10
149.5993
20
177.5835
0
VERTEX
8
CUT
10
149.1921
20
178.5648
0
VERTEX
8
CUT
10
146.5950
20
182.8252
0
VERTEX
8
CUT
10
145.5816
20
185.2669
0
VERTEX
8
CUT
10
143.2679
20
193.0284
0
VERTEX
8
CUT
10
141.3032
20
198.4539
0
VERTEX
8
CUT
10
141.0599
20
199.7133
0
VERTEX
8
CUT
10
141.2240
20
200.5228
0
VERTEX
8
CUT
10
141.5291
20
200.7663
0
VERTEX
8
CUT
10
141.9662
20
200.7746
0
VERTEX
8
CUT
10
146.3389
20
199.4802
0
VERTEX
8
CUT
10
150.0418
20
199.1663
0
VERTEX
8
CUT
10
152.7635
20
199.4243
0
VERTEX
8
CUT
10
160.5328
20
200.9770
0
VERTEX
8
CUT
10
163.4185
20
201.3312
0
VERTEX
8
CUT
10
166.0340
20
201.4208
0
VERTEX
8
CUT
10
170.2546
20
201.2122
0
VERTEX
8
CUT
10
173.8710
20
200.4768
0
VERTEX
8
CUT
10
178.0896
20
198.8556
0
VERTEX
8
CUT
10
181.7776
20
196.7625
0
VERTEX
8
CUT
10
184.4255
20
194.7777
0
VERTEX
8
CUT
10
184.7595
20
195.1480
0
VERTEX
8
CUT
10
184.3900
20
198.9991
0
VERTEX
8
CUT
10
184.5705
20
201.8727
0
VERTEX
8
CUT
10
185.2252
20
204.7177
0
VERTEX
8
CUT
10
187.0033
20
208.7402
0
VERTEX
8
CUT
10
189.4624
20
211.7614
0
VERTEX
8
CUT
10
196.8420
20
218.5845
0
VERTEX
8
CUT
10
201.9514
20
223.8606
0
VERTEX
8
CUT
10
202.6273
20
224.1518
0
VERTEX
8
CUT
10
203.0877
20
224.0761
0
VERTEX
8
CUT
10
203.5041
20
223.7062
0
VERTEX
8
CUT
10
205.1090
20
220.0472
0
VERTEX
8
CUT
10
206.4553
20
217.9978
0
VERTEX
8
CUT
10
208.5182
20
215.6460
0
VERTEX
8
CUT
10
215.1888
20
209.0339
0
VERTEX
8
CUT
10
218.7744
20
205.0164
0
VERTEX
8
CUT
10
219.2355
20
205.3582
0
VERTEX
8
CUT
10
219.6079
20
206.9980
0
VERTEX
8
CUT
10
219.8680
20
211.1735
0
VERTEX
8
CUT
10
219.8974
20
215.8129
0
VERTEX
8
CUT
10
219.5763
20
219.2298
0
VERTEX
8
CUT
10
218.0093
20
224.5364
0
VERTEX
8
CUT
10
215.7065
20
229.8449
0
VERTEX
8
CUT
10
214.1701
20
232.5276
0
VERTEX
8
CUT
10
213.8943
20
232.7106
0
VERTEX
8
CUT
10
213.5773
20
232.6158
0
VERTEX
8
CUT
10
213.4503
20
232.2737
0
VERTEX
8
CUT
10
214.9796
20
226.7193
0
VERTEX
8
CUT
10
215.4814
20
222.8325
0
VERTEX
8
CUT
10
215.5417
20
220.9716
0
VERTEX
8
CUT
10
215.1005
20
216.5617
0
VERTEX
8
CUT
10
214.5692
20
214.4020
0
VERTEX
8
CUT
10
214.1278
20
213.4557
0
VERTEX
8
CUT
10
213.6784
20
213.0856
0
VERTEX
8
CUT
10
213.3813
20
213.1488
0
VERTEX
8
CUT
10
211.0665
20
215.6951
0
VERTEX
8
CUT
10
208.9461
20
217.3262
0
VERTEX
8
CUT
10
209.3798
20
223.0789
0
VERTEX
8
CUT
10
209.3208
20
225.6980
0
VERTEX
8
CUT
10
209.0052
20
228.1092
0
VERTEX
8
CUT
10
207.9046
20
231.8250
0
VERTEX
8
CUT
10
205.5090
20
237.1497
0
VERTEX
8
CUT
10
205.2090
20
237.1783
0
VERTEX
8
CUT
10
204.9623
20
236.9493
0
VERTEX
8
CUT
10
204.4645
20
233.9845
0
VERTEX
8
CUT
10
203.3458
20
231.6185
0
VERTEX
8
CUT
10
201.5921
20
229.8008
0
VERTEX
8
CUT
10
200.0047
20
228.8065
0
VERTEX
8
CUT
10
197.8770
20
228.1913
0
VERTEX
8
CUT
10
195.1500
20
228.2486
0
VERTEX
8
CUT
10
193.5701
20
228.7769
0
VERTEX
8
CUT
10
191.9566
20
229.9154
0
VERTEX
8
CUT
10
191.0193
20
231.0036
0
VERTEX
8
CUT
10
190.3410
20
232.2518
0
VERTEX
8
CUT
10
190.0174
20
233.4662
0
VERTEX
8
CUT
10
189.9856
20
234.6840
0
VERTEX
8
CUT
10
190.2686
20
235.9272
0
VERTEX
8
CUT
10
190.9192
20
237.0044
0
VERTEX
8
CUT
10
192.3056
20
238.0364
0
VERTEX
8
CUT
10
193.1748
20
238.3241
0
VERTEX
8
CUT
10
194.1299
20
238.3241
0
VERTEX
8
CUT
10
196.2320
20
237.4099
0
VERTEX
8
CUT
10
196.6711
20
237.4689
0
VERTEX
8
CUT
10
196.9571
20
239.0178
0
VERTEX
8
CUT
10
196.7636
20
240.8045
0
VERTEX
8
CUT
10
196.3134
20
240.9175
0
VERTEX
8
CUT
10
195.2599
20
240.1732
0
VERTEX
8
CUT
10
194.5683
20
240.5155
0
VERTEX
8
CUT
10
194.0775
20
241.3453
0
VERTEX
8
CUT
10
193.7109
20
242.8118
0
VERTEX
8
CUT
10
192.2159
20
245.2762
0
VERTEX
8
CUT
10
189.9189
20
248.0361
0
VERTEX
8
CUT
10
186.9837
20
250.7376
0
VERTEX
8
CUT
10
183.7093
20
252.9397
0
VERTEX
8
CUT
10
175.0620
20
257.8057
0
VERTEX
8
CUT
10
169.9810
20
261.7044
0
VERTEX
8
CUT
10
164.8805
20
266.7170
0
VERTEX
8
CUT
10
157.5397
20
275.4070
0
VERTEX
8
CUT
10
156.9217
20
275.8790
0
VERTEX
8
CUT
10
156.6259
20
275.7172
0
VERTEX
8
CUT
10
156.5789
20
275.3485
0
VERTEX
8
CUT
10
161.3560
20
264.0168
0
VERTEX
8
CUT
10
162.7736
20
261.0362
0
VERTEX
8
CUT
10
163.7920
20
259.3743
0
VERTEX
8
CUT
10
165.9574
20
256.5662
0
VERTEX
8
CUT
10
167.0892
20
255.4368
0
VERTEX
8
CUT
10
169.4230
20
253.6714
0
VERTEX
8
CUT
10
171.9301
20
252.5702
0
VERTEX
8
CUT
10
173.2121
20
252.3080
0
VERTEX
8
CUT
10
174.8589
20
252.3886
0
VERTEX
8
CUT
10
177.8785
20
253.7733
0
VERTEX
8
CUT
10
178.7690
20
252.8001
0
VERTEX
8
CUT
10
179.0944
20
251.9560
0
VERTEX
8
CUT
10
179.2131
20
249.8246
0
VERTEX
8
CUT
10
178.9155
20
248.1831
0
VERTEX
8
CUT
10
177.7713
20
246.2098
0
VERTEX
8
CUT
10
176.2855
20
244.6053
0
VERTEX
8
CUT
10
174.6244
20
243.6543
0
VERTEX
8
CUT
10
172.8692
20
243.1596
0
VERTEX
8
CUT
10
170.2484
20
243.0417
0
VERTEX
8
CUT
10
168.2663
20
243.3260
0
VERTEX
8
CUT
10
167.7284
20
243.0138
0
VERTEX
8
CUT
10
167.1884
20
242.1778
0
VERTEX
8
CUT
10
166.5699
20
240.7052
0
VERTEX
8
CUT
10
165.7615
20
237.8737
0
VERTEX
8
CUT
10
165.2990
20
234.1045
0
VERTEX
8
CUT
10
165.5925
20
231.3202
0
VERTEX
8
CUT
10
166.3857
20
228.8270
0
VERTEX
8
CUT
10
166.9601
20
227.7011
0
VERTEX
8
CUT
10
167.6588
20
226.6221
0
VERTEX
8
CUT
10
168.5905
20
225.6896
0
VERTEX
8
CUT
10
170.8842
20
224.2684
0
VERTEX
8
CUT
10
172.2928
20
224.0671
0
VERTEX
8
CUT
10
174.3347
20
224.8363
0
VERTEX
8
CUT
10
174.5219
20
225.1036
0
VERTEX
8
CUT
10
174.4626
20
225.3896
0
VERTEX
8
CUT
10
172.7369
20
226.8728
0
VERTEX
8
CUT
10
171.9264
20
228.0214
0
VERTEX
8
CUT
10
171.3853
20
229.2670
0
VERTEX
8
CUT
10
171.2389
20
231.0429
0
VERTEX
8
CUT
10
172.0737
20
233.1423
0
VERTEX
8
CUT
10
173.5396
20
235.0657
0
VERTEX
8
CUT
10
174.7224
20
235.9239
0
VERTEX
8
CUT
10
175.5166
20
236.2646
0
VERTEX
8
CUT
10
178.0475
20
236.8116
0
VERTEX
8
CUT
10
180.6070
20
236.5031
0
VERTEX
8
CUT
10
181.8676
20
236.0487
0
VERTEX
8
CUT
10
184.1942
20
234.6385
0
VERTEX
8
CUT
10
186.0405
20
232.7335
0
VERTEX
8
CUT
10
187.4751
20
230.3234
0
VERTEX
8
CUT
10
188.2576
20
227.9034
0
VERTEX
8
CUT
10
188.5579
20
225.5256
0
VERTEX
8
CUT
10
188.5597
20
223.0393
0
VERTEX
8
CUT
10
188.2657
20
220.6710
0
VERTEX
8
CUT
10
187.2592
20
217.6953
0
VERTEX
8
CUT
10
186.1938
20
215.8383
0
VERTEX
8
CUT
10
184.9171
20
214.1805
0
VERTEX
8
CUT
10
183.4693
20
212.7038
0
VERTEX
8
CUT
10
181.7700
20
211.3678
0
VERTEX
8
CUT
10
179.9238
20
210.2411
0
VERTEX
8
CUT
10
177.9960
20
209.4141
0
VERTEX
8
CUT
10
175.9984
20
208.8350
0
VERTEX
8
CUT
10
173.8080
20
208.5008
0
VERTEX
8
CUT
10
169.7384
20
208.6803
0
VERTEX
8
CUT
10
167.8013
20
209.1783
0
VERTEX
8
CUT
10
165.9304
20
209.9173
0
VERTEX
8
CUT
10
164.0591
20
210.9531
0
VERTEX
8
CUT
10
162.2430
20
212.2839
0
VERTEX
8
CUT
10
159.4696
20
214.9728
0
VERTEX
8
CUT
10
157.7000
20
217.3639
0
VERTEX
8
CUT
10
156.2896
20
219.8907
0
VERTEX
8
CUT
10
155.2721
20
222.6165
0
VERTEX
8
CUT
10
154.1356
20
227.7384
0
VERTEX
8
CUT
10
153.8568
20
227.9905
0
VERTEX
8
CUT
10
153.5048
20
227.9011
0
VERTEX
8
CUT
10
151.6768
20
225.3801
0
VERTEX
8
CUT
10
151.7620
20
218.6974
0
VERTEX
8
CUT
10
152.3699
20
213.9916
0
VERTEX
8
CUT
10
153.6712
20
209.9876
0
VERTEX
8
CUT
10
154.5646
20
208.2246
0
VERTEX
8
CUT
10
155.6878
20
206.5670
0
VERTEX
8
CUT
10
158.0028
20
203.8383
0
VERTEX
8
CUT
10
158.4486
20
203.0651
0
VERTEX
8
CUT
10
158.4620
20
202.6729
0
VERTEX
8
CUT
10
157.9007
20
202.2669
0
VERTEX
8
CUT
10
151.7984
20
201.2096
0
VERTEX
8
CUT
10
150.7503
20
201.3067
0
VERTEX
8
CUT
10
149.9561
20
201.8674
0
VERTEX
8
CUT
10
149.1590
20
202.7543
0
VERTEX
8
CUT
10
148.1803
20
204.3532
0
VERTEX
8
CUT
10
146.7919
20
207.3040
0
VERTEX
8
CUT
10
145.9246
20
210.2062
0
VERTEX
8
CUT
10
145.3435
20
215.1975
0
VERTEX
8
CUT
10
145.0390
20
215.4980
0
VERTEX
8
CUT
10
144.6651
20
215.3683
0
VERTEX
8
CUT
10
142.4073
20
211.4601
0
VERTEX
8
CUT
10
135.6727
20
202.3831
0
VERTEX
8
CUT
10
133.8958
20
199.7040
0
VERTEX
8
CUT
10
132.6391
20
197.3064
0
VERTEX
8
CUT
10
131.7180
20
194.4177
0
VERTEX
8
CUT
10
131.4896
20
191.2170
0
VERTEX
8
CUT
10
131.8988
20
188.8101
0
VERTEX
8
CUT
10
131.3854
20
187.2743
0
VERTEX
8
CUT
10
131.4704
20
186.9196
0
VERTEX
8
CUT
10
131.9548
20
186.8377
0
VERTEX
8
CUT
10
133.1891
20
187.9200
0
VERTEX
8
CUT
10
134.1099
20
188.3804
0
VERTEX
8
CUT
10
135.0220
20
188.5590
0
VERTEX
8
CUT
10
136.0920
20
188.4611
0
VERTEX
8
CUT
10
137.8711
20
187.7495
0
VERTEX
8
CUT
10
138.6620
20
187.1226
0
VERTEX
8
CUT
10
139.3180
20
186.3360
0
VERTEX
8
CUT
10
140.2103
20
184.4559
0
VERTEX
8
CUT
10
140.5410
20
182.1751
0
VERTEX
8
CUT
10
140.0372
20
179.6240
0
VERTEX
8
CUT
10
138.7278
20
177.1713
0
VERTEX
8
CUT
10
137.4969
20
175.8863
0
VERTEX
8
CUT
10
134.7338
20
174.3009
0
VERTEX
8
CUT
10
131.6902
20
173.6394
0
VERTEX
8
CUT
10
128.6786
20
173.9175
0
VERTEX
8
CUT
10
125.8219
20
174.9801
0
VERTEX
8
CUT
10
123.1946
20
176.7726
0
VERTEX
8
CUT
10
121.0003
20
179.2648
0
VERTEX
8
CUT
10
119.3252
20
182.3599
0
VERTEX
8
CUT
10
118.3941
20
185.8809
0
VERTEX
8
CUT
10
118.2373
20
187.2595
0
VERTEX
8
CUT
10
118.2964
20
189.7123
0
VERTEX
8
CUT
10
118.8199
20
193.2728
0
VERTEX
8
CUT
10
118.5597
20
193.6513
0
VERTEX
8
CUT
10
118.2003
20
193.5987
0
VERTEX
8
CUT
10
116.4058
20
191.9905
0
VERTEX
8
CUT
10
113.7195
20
190.0697
0
VERTEX
8
CUT
10
112.3544
20
188.6570
0
VERTEX
8
CUT
10
111.8645
20
186.7889
0
VERTEX
8
CUT
10
111.9167
20
184.5740
0
VERTEX
8
CUT
10
111.5784
20
183.9682
0
VERTEX
8
CUT
10
110.7574
20
183.8370
0
VERTEX
8
CUT
10
109.7889
20
184.1392
0
VERTEX
8
CUT
10
108.8606
20
184.7519
0
VERTEX
8
CUT
10
107.6800
20
185.9022
0
VERTEX
8
CUT
10
106.7632
20
187.3170
0
VERTEX
8
CUT
10
106.1751
20
188.8500
0
VERTEX
8
CUT
10
105.8740
20
190.5555
0
VERTEX
8
CUT
10
105.8748
20
192.2910
0
VERTEX
8
CUT
10
106.1439
20
194.0826
0
VERTEX
8
CUT
10
106.7409
20
195.8445
0
VERTEX
8
CUT
10
107.6348
20
197.5430
0
VERTEX
8
CUT
10
109.4416
20
199.7366
0
VERTEX
8
CUT
10
111.7908
20
201.5276
0
VERTEX
8
CUT
10
114.8010
20
203.0489
0
VERTEX
8
CUT
10
119.2357
20
204.5269
0
VERTEX
8
CUT
10
119.4577
20
204.9934
0
VERTEX
8
CUT
10
119.1345
20
205.2723
0
VERTEX
8
CUT
10
116.3000
20
205.3369
0
VERTEX
8
CUT
10
113.7894
20
205.7197
0
VERTEX
8
CUT
10
110.3011
20
206.6931
0
VERTEX
8
CUT
10
107.3037
20
208.1043
0
VERTEX
8
CUT
10
104.6953
20
209.8346
0
VERTEX
8
CUT
10
102.3868
20
211.9359
0
VERTEX
8
CUT
10
100.4517
20
214.3094
0
VERTEX
8
CUT
10
98.8762
20
216.9466
0
VERTEX
8
CUT
10
97.7102
20
219.8392
0
VERTEX
8
CUT
10
96.9971
20
222.9118
0
VERTEX
8
CUT
10
96.7640
20
226.0289
0
VERTEX
8
CUT
10
96.8211
20
228.0438
0
VERTEX
8
CUT
10
97.4387
20
231.7416
0
VERTEX
8
CUT
10
98.7096
20
235.0063
0
VERTEX
8
CUT
10
100.7225
20
238.0643
0
VERTEX
8
CUT
10
103.3775
20
240.8109
0
VERTEX
8
CUT
10
106.1698
20
242.8391
0
VERTEX
8
CUT
10
109.2351
20
244.1903
0
VERTEX
8
CUT
10
112.5344
20
244.8685
0
VERTEX
8
CUT
10
116.7825
20
244.7185
0
VERTEX
8
CUT
10
119.1316
20
244.1237
0
VERTEX
8
CUT
10
121.2451
20
243.1711
0
VERTEX
8
CUT
10
123.1206
20
241.8912
0
VERTEX
8
CUT
10
124.7493
20
240.3153
0
VERTEX
8
CUT
10
125.9552
20
238.5480
0
VERTEX
8
CUT
10
126.8289
20
236.4871
0
VERTEX
8
CUT
10
127.2705
20
234.2774
0
VERTEX
8
CUT
10
127.2693
20
232.5687
0
VERTEX
8
CUT
10
126.9694
20
230.9493
0
VERTEX
8
CUT
10
126.3985
20
229.4476
0
VERTEX
8
CUT
10
125.5846
20
228.1519
0
VERTEX
8
CUT
10
124.5583
20
227.0952
0
VERTEX
8
CUT
10
123.3475
20
226.2786
0
VERTEX
8
CUT
10
121.9534
20
225.7633
0
VERTEX
8
CUT
10
120.4760
20
225.5839
0
VERTEX
8
CUT
10
118.1709
20
225.8992
0
VERTEX
8
CUT
10
116.8355
20
226.7300
0
VERTEX
8
CUT
10
115.5761
20
227.9904
0
VERTEX
8
CUT
10
114.8754
20
229.3391
0
VERTEX
8
CUT
10
114.6349
20
230.8338
0
VERTEX
8
CUT
10
114.9105
20
232.4257
0
VERTEX
8
CUT
10
115.6425
20
233.7971
0
VERTEX
8
CUT
10
116.6969
20
234.7877
0
VERTEX
8
CUT
10
117.8195
20
235.2021
0
VERTEX
8
CUT
10
117.9590
20
235.6196
0
VERTEX
8
CUT
10
117.3758
20
236.0659
0
VERTEX
8
CUT
10
116.5016
20
236.3343
0
VERTEX
8
CUT
10
115.6796
20
236.4148
0
VERTEX
8
CUT
10
114.8701
20
236.2151
0
VERTEX
8
CUT
10
113.7354
20
235.4577
0
VERTEX
8
CUT
10
112.5003
20
234.2211
0
VERTEX
8
CUT
10
111.4384
20
232.7503
0
VERTEX
8
CUT
10
110.5090
20
230.7486
0
VERTEX
8
CUT
10
110.3675
20
229.4605
0
VERTEX
8
CUT
10
110.5097
20
226.9154
0
VERTEX
8
CUT
10
110.7892
20
225.5559
0
VERTEX
8
CUT
10
111.3528
20
224.2777
0
VERTEX
8
CUT
10
112.2861
20
222.8742
0
VERTEX
8
CUT
10
113.3530
20
221.6934
0
VERTEX
8
CUT
10
114.6461
20
220.6802
0
VERTEX
8
CUT
10
116.1056
20
219.8477
0
VERTEX
8
CUT
10
119.2677
20
218.9377
0
VERTEX
8
CUT
10
120.9028
20
218.8543
0
VERTEX
8
CUT
10
122.5358
20
219.0221
0
VERTEX
8
CUT
10
124.4670
20
219.5556
0
VERTEX
8
CUT
10
126.1984
20
220.3232
0
VERTEX
8
CUT
10
127.7848
20
221.3416
0
VERTEX
8
CUT
10
129.2633
20
222.6682
0
VERTEX
8
CUT
10
130.5969
20
224.2395
0
VERTEX
8
CUT
10
131.6912
20
225.9729
0
VERTEX
8
CUT
10
132.6146
20
227.9435
0
VERTEX
8
CUT
10
133.5586
20
231.4326
0
VERTEX
8
CUT
10
133.7359
20
232.9723
0
VERTEX
8
CUT
10
133.7043
20
236.1332
0
VERTEX
8
CUT
10
132.7847
20
240.7039
0
VERTEX
8
CUT
10
131.6348
20
243.2038
0
VERTEX
8
CUT
10
128.9500
20
243.0130
0
VERTEX
8
CUT
10
127.0333
20
243.1961
0
VERTEX
8
CUT
10
125.3718
20
243.7597
0
VERTEX
8
CUT
10
123.7769
20
244.8028
0
VERTEX
8
CUT
10
122.3133
20
246.3024
0
VERTEX
8
CUT
10
121.2717
20
248.0044
0
VERTEX
8
CUT
10
120.7878
20
249.8196
0
VERTEX
8
CUT
10
120.8562
20
251.6414
0
VERTEX
8
CUT
10
121.3209
20
252.9807
0
VERTEX
8
CUT
10
121.7011
20
253.5110
0
VERTEX
8
CUT
10
122.0427
20
253.6535
0
VERTEX
8
CUT
10
122.7701
20
253.5551
0
VERTEX
8
CUT
10
124.9638
20
252.5458
0
VERTEX
8
CUT
10
126.2915
20
252.3465
0
VERTEX
8
CUT
10
127.7542
20
252.4557
0
VERTEX
8
CUT
10
129.2094
20
252.8832
0
VERTEX
8
CUT
10
130.7267
20
253.6453
0
VERTEX
8
CUT
10
133.6622
20
256.0418
0
VERTEX
8
CUT
10
135.0517
20
257.6378
0
VERTEX
8
CUT
10
136.4558
20
259.7011
0
VERTEX
8
CUT
10
138.5843
20
263.7512
0
VERTEX
8
CUT
10
143.1445
20
274.9111
0
VERTEX
8
CUT
10
142.9390
20
275.4192
0
VERTEX
8
CUT
10
142.4893
20
275.3160
0
VERTEX
8
CUT
10
135.4219
20
267.0201
0
VERTEX
8
CUT
10
131.0445
20
262.5249
0
VERTEX
8
CUT
10
127.4409
20
259.4835
0
VERTEX
8
CUT
10
122.4307
20
256.1726
0
VERTEX
8
CUT
10
119.7493
20
254.8317
0
VERTEX
8
CUT
10
114.1228
20
252.8097
0
VERTEX
8
CUT
10
111.0085
20
252.0678
0
VERTEX
8
CUT
10
100.8434
20
250.2327
0
VERTEX
8
CUT
10
99.9728
20
249.7044
0
VERTEX
8
CUT
10
95.9691
20
248.0955
0
VERTEX
8
CUT
10
92.9039
20
246.2060
0
VERTEX
8
CUT
10
91.9350
20
245.2650
0
VERTEX
8
CUT
10
90.5579
20
242.8189
0
VERTEX
8
CUT
10
90.0840
20
240.3515
0
VERTEX
8
CUT
10
89.8808
20
239.8538
0
VERTEX
8
CUT
10
89.5215
20
239.5712
0
VERTEX
8
CUT
10
88.5443
20
239.8206
0
VERTEX
8
CUT
10
87.1021
20
241.4969
0
VERTEX
8
CUT
10
86.6044
20
241.5023
0
VERTEX
8
CUT
10
86.4627
20
241.0443
0
VERTEX
8
CUT
10
86.8229
20
239.5097
0
VERTEX
8
CUT
10
87.3303
20
238.6579
0
VERTEX
8
CUT
10
88.7348
20
237.4749
0
VERTEX
8
CUT
10
89.6224
20
237.1599
0
VERTEX
8
CUT
10
90.5641
20
237.0816
0
VERTEX
8
CUT
10
93.1076
20
237.8950
0
VERTEX
8
CUT
10
93.7207
20
237.5965
0
VERTEX
8
CUT
10
93.9768
20
237.2303
0
VERTEX
8
CUT
10
94.2511
20
235.7815
0
VERTEX
8
CUT
10
94.1301
20
234.6223
0
VERTEX
8
CUT
10
93.7343
20
233.4945
0
VERTEX
8
CUT
10
93.1026
20
232.4636
0
VERTEX
8
CUT
10
91.3087
20
230.8986
0
VERTEX
8
CUT
10
88.9543
20
230.0381
0
VERTEX
8
CUT
10
86.2765
20
230.0077
0
VERTEX
8
CUT
10
83.8427
20
230.7885
0
VERTEX
8
CUT
10
81.7123
20
232.2589
0
VERTEX
8
CUT
10
79.9657
20
234.3863
0
VERTEX
8
CUT
10
78.8083
20
236.7325
0
VERTEX
8
CUT
10
78.4819
20
238.8135
0
VERTEX
8
CUT
10
78.6211
20
243.2752
0
VERTEX
8
CUT
10
78.3363
20
243.6423
0
VERTEX
8
CUT
10
71.2487
20
239.8825
0
VERTEX
8
CUT
10
67.6268
20
237.6343
0
VERTEX
8
CUT
10
64.1798
20
235.1814
0
VERTEX
8
CUT
10
60.9676
20
232.5834
0
VERTEX
8
CUT
10
57.9314
20
229.7819
0
VERTEX
8
CUT
10
55.1265
20
226.8031
0
VERTEX
8
CUT
10
52.5288
20
223.6811
0
VERTEX
8
CUT
10
50.1486
20
220.3612
0
VERTEX
8
CUT
10
48.2353
20
217.0846
0
VERTEX
8
CUT
10
46.6054
20
213.7098
0
VERTEX
8
CUT
10
45.6895
20
211.0019
0
SEQEND
0
POLYLINE
8
CUT
66
1
70
1
0
VERTEX
8
CUT
10
192.9053
20
51.6987
0
VERTEX
8
CUT
10
192.4609
20
51.8192
0
VERTEX
8
CUT
10
192.2110
20
51.4701
0
VERTEX
8
CUT
10
192.8426
20
50.3023
0
VERTEX
8
CUT
10
194.2151
20
48.6331
0
VERTEX
8
CUT
10
195.8578
20
47.1724
0
VERTEX
8
CUT
10
197.7026
20
46.0244
0
VERTEX
8
CUT
10
199.7549
20
45.1324
0
VERTEX
8
CUT
10
201.9245
20
44.5286
0
VERTEX
8
CUT
10
204.1832
20
44.2152
0
VERTEX
8
CUT
10
206.4701
20
44.2427
0
VERTEX
8
CUT
10
208.7855
20
44.5863
0
VERTEX
8
CUT
10
211.7122
20
45.6235
0
VERTEX
8
CUT
10
214.4305
20
47.2315
0
VERTEX
8
CUT
10
215.6447
20
48.2165
0
VERTEX
8
CUT
10
217.1795
20
49.9035
0
VERTEX
8
CUT
10
217.0074
20
50.2712
0
VERTEX
8
CUT
10
216.6018
20
50.2867
0
VERTEX
8
CUT
10
214.4044
20
48.3879
0
VERTEX
8
CUT
10
212.8272
20
47.4395
0
VERTEX
8
CUT
10
211.0703
20
46.6694
0
VERTEX
8
CUT
10
207.2354
20
45.7913
0
VERTEX
8
CUT
10
203.0014
20
45.7290
0
VERTEX
8
CUT
10
200.7284
20
46.1210
0
VERTEX
8
CUT
10
198.4252
20
47.0242
0
VERTEX
8
CUT
10
195.2028
20
49.2215
0
VERTEX
8
CUT
10
192.9053
20
51.6987
0
SEQEND
0
POLYLINE
8
CUT
66
1
70
1
0
VERTEX
8
CUT
10
124.9551
20
117.6578
0
VERTEX
8
CUT
10
124.7505
20
117.2169
0
VERTEX
8
CUT
10
125.1639
20
116.7167
0
VERTEX
8
CUT
10
127.8634
20
114.5115
0
VERTEX
8
CUT
10
130.2228
20
112.9103
0
VERTEX
8
CUT
10
134.5608
20
110.7871
0
VERTEX
8
CUT
10
136.1634
20
110.2059
0
VERTEX
8
CUT
10
139.0757
20
109.5487
0
VERTEX
8
CUT
10
140.4744
20
109.4603
0
VERTEX
8
CUT
10
142.8205
20
109.7665
0
VERTEX
8
CUT
10
145.0913
20
110.7905
0
VERTEX
8
CUT
10
145.7958
20
111.3760
0
VERTEX
8
CUT
10
146.1329
20
111.9355
0
VERTEX
8
CUT
10
146.1609
20
113.5921
0
VERTEX
8
CUT
10
146.5922
20
114.4858
0
VERTEX
8
CUT
10
147.3920
20
115.2102
0
VERTEX
8
CUT
10
149.5489
20
116.0746
0
VERTEX
8
CUT
10
150.8228
20
116.1958
0
VERTEX
8
CUT
10
152.0647
20
116.0497
0
VERTEX
8
CUT
10
153.2825
20
115.6194
0
VERTEX
8
CUT
10
154.5719
20
114.7536
0
VERTEX
8
CUT
10
155.7809
20
113.4904
0
VERTEX
8
CUT
10
156.7672
20
112.0592
0
VERTEX
8
CUT
10
157.4000
20
110.5912
0
VERTEX
8
CUT
10
157.7976
20
107.6540
0
VERTEX
8
CUT
10
157.6509
20
105.6864
0
VERTEX
8
CUT
10
157.1777
20
103.7810
0
VERTEX
8
CUT
10
155.6260
20
100.9830
0
VERTEX
8
CUT
10
154.1315
20
99.3767
0
VERTEX
8
CUT
10
152.4242
20
98.1124
0
VERTEX
8
CUT
10
150.4312
20
97.1202
0
VERTEX
8
CUT
10
148.3130
20
96.5035
0
VERTEX
8
CUT
10
145.9945
20
96.2358
0
VERTEX
8
CUT
10
143.5888
20
96.3250
0
VERTEX
8
CUT
10
140.7251
20
96.8970
0
VERTEX
8
CUT
10
140.4222
20
96.7638
0
VERTEX
8
CUT
10
140.3306
20
96.4458
0
VERTEX
8
CUT
10
146.0013
20
90.1343
0
VERTEX
8
CUT
10
155.5238
20
78.6496
0
VERTEX
8
CUT
10
159.2633
20
74.8533
0
VERTEX
8
CUT
10
162.6427
20
72.1175
0
VERTEX
8
CUT
10
165.7316
20
70.3429
0
VERTEX
8
CUT
10
167.6288
20
69.6901
0
VERTEX
8
CUT
10
169.4527
20
69.3195
0
VERTEX
8
CUT
10
171.1724
20
69.2643
0
VERTEX
8
CUT
10
172.8040
20
69.4601
0
VERTEX
8
CUT
10
174.3516
20
69.9233
0
VERTEX
8
CUT
10
175.7516
20
70.6889
0
VERTEX
8
CUT
10
176.8840
20
71.6645
0
VERTEX
8
CUT
10
177.7698
20
72.8569
0
VERTEX
8
CUT
10
178.2735
20
74.0379
0
VERTEX
8
CUT
10
178.0797
20
74.3120
0
VERTEX
8
CUT
10
177.7097
20
74.3180
0
VERTEX
8
CUT
10
176.7841
20
73.3653
0
VERTEX
8
CUT
10
175.1373
20
72.1893
0
VERTEX
8
CUT
10
174.1172
20
71.6357
0
VERTEX
8
CUT
10
171.8985
20
70.8645
0
VERTEX
8
CUT
10
170.6227
20
70.8078
0
VERTEX
8
CUT
10
167.8634
20
71.2483
0
VERTEX
8
CUT
10
164.1886
20
72.4616
0
VERTEX
8
CUT
10
162.4307
20
73.4723
0
VERTEX
8
CUT
10
161.0643
20
74.5398
0
VERTEX
8
CUT
10
157.2275
20
78.1398
0
VERTEX
8
CUT
10
155.0590
20
80.5129
0
VERTEX
8
CUT
10
151.5579
20
85.0738
0
VERTEX
8
CUT
10
151.3420
20
85.7788
0
VERTEX
8
CUT
10
151.8795
20
85.6349
0
VERTEX
8
CUT
10
158.2741
20
79.6778
0
VERTEX
8
CUT
10
161.0255
20
77.6006
0
VERTEX
8
CUT
10
162.7051
20
76.6465
0
VERTEX
8
CUT
10
165.7412
20
75.4141
0
VERTEX
8
CUT
10
168.3965
20
74.9511
0
VERTEX
8
CUT
10
169.5949
20
75.0302
0
VERTEX
8
CUT
10
171.6584
20
75.7117
0
VERTEX
8
CUT
10
172.9937
20
76.9430
0
VERTEX
8
CUT
10
172.8705
20
77.2845
0
VERTEX
8
CUT
10
170.5497
20
78.9700
0
VERTEX
8
CUT
10
169.9352
20
79.8957
0
VERTEX
8
CUT
10
169.5721
20
80.9546
0
VERTEX
8
CUT
10
169.4781
20
82.0951
0
VERTEX
8
CUT
10
169.6307
20
83.2533
0
VERTEX
8
CUT
10
170.6916
20
85.4963
0
VERTEX
8
CUT
10
172.1227
20
86.9024
0
VERTEX
8
CUT
10
173.9203
20
87.8325
0
VERTEX
8
CUT
10
176.8207
20
88.2174
0
VERTEX
8
CUT
10
178.6735
20
87.9973
0
VERTEX
8
CUT
10
180.3503
20
87.4077
0
VERTEX
8
CUT
10
181.9619
20
86.4897
0
VERTEX
8
CUT
10
183.3430
20
85.2836
0
VERTEX
8
CUT
10
184.5793
20
83.8132
0
VERTEX
8
CUT
10
185.6086
20
82.0641
0
VERTEX
8
CUT
10
186.3593
20
80.1340
0
VERTEX
8
CUT
10
186.9469
20
76.7821
0
VERTEX
8
CUT
10
186.8897
20
74.8163
0
VERTEX
8
CUT
10
186.3882
20
71.8306
0
VERTEX
8
CUT
10
186.5718
20
71.4706
0
VERTEX
8
CUT
10
187.0081
20
71.4879
0
VERTEX
8
CUT
10
190.2745
20
74.0551
0
VERTEX
8
CUT
10
193.1195
20
75.4228
0
VERTEX
8
CUT
10
196.2195
20
76.1767
0
VERTEX
8
CUT
10
199.2507
20
76.2917
0
VERTEX
8
CUT
10
202.2571
20
75.6926
0
VERTEX
8
CUT
10
204.8279
20
74.4517
0
VERTEX
8
CUT
10
207.3220
20
72.2899
0
VERTEX
8
CUT
10
208.0695
20
71.4192
0
VERTEX
8
CUT
10
209.1425
20
69.6529
0
VERTEX
8
CUT
10
209.5317
20
68.7156
0
VERTEX
8
CUT
10
209.9172
20
66.7411
0
VERTEX
8
CUT
10
209.8878
20
64.0654
0
VERTEX
8
CUT
10
209.5894
20
62.7351
0
VERTEX
8
CUT
10
209.0135
20
61.5418
0
VERTEX
8
CUT
10
208.1321
20
60.3552
0
VERTEX
8
CUT
10
206.4685
20
58.9857
0
VERTEX
8
CUT
10
205.4525
20
58.5074
0
VERTEX
8
CUT
10
203.4143
20
58.0912
0
VERTEX
8
CUT
10
201.4088
20
58.3656
0
VERTEX
8
CUT
10
199.4136
20
59.5107
0
VERTEX
8
CUT
10
198.3677
20
60.8535
0
VERTEX
8
CUT
10
197.8953
20
62.6366
0
VERTEX
8
CUT
10
198.0510
20
64.5129
0
VERTEX
8
CUT
10
198.9881
20
65.9837
0
VERTEX
8
CUT
10
200.6048
20
67.0657
0
VERTEX
8
CUT
10
200.6770
20
67.4261
0
VERTEX
8
CUT
10
200.4536
20
67.6735
0
VERTEX
8
CUT
10
198.7837
20
68.0485
0
VERTEX
8
CUT
10
196.8649
20
67.6443
0
VERTEX
8
CUT
10
195.8322
20
67.2095
0
VERTEX
8
CUT
10
193.9183
20
65.9423
0
VERTEX
8
CUT
10
192.3490
20
64.3528
0
VERTEX
8
CUT
10
191.5586
20
62.9149
0
VERTEX
8
CUT
10
191.2289
20
61.0662
0
VERTEX
8
CUT
10
191.2622
20
59.9380
0
VERTEX
8
CUT
10
191.6762
20
59.4399
0
VERTEX
8
CUT
10
192.1136
20
57.5764
0
VERTEX
8
CUT
10
192.9482
20
55.8705
0
VERTEX
8
CUT
10
194.0933
20
54.1380
0
VERTEX
8
CUT
10
195.2208
20
52.8437
0
VERTEX
8
CUT
10
197.3857
20
51.2033
0
VERTEX
8
CUT
10
199.5297
20
50.1591
0
VERTEX
8
CUT
10
200.6492
20
49.8403
0
VERTEX
8
CUT
10
203.2603
20
49.5172
0
VERTEX
8
CUT
10
206.7209
20
49.6878
0
VERTEX
8
CUT
10
208.8197
20
50.3439
0
VERTEX
8
CUT
10
211.2249
20
51.6382
0
VERTEX
8
CUT
10
212.6929
20
52.7667
0
VERTEX
8
CUT
10
213.9382
20
54.0701
0
VERTEX
8
CUT
10
214.9597
20
55.5154
0
VERTEX
8
CUT
10
215.8206
20
57.2095
0
VERTEX
8
CUT
10
216.7587
20
60.8785
0
VERTEX
8
CUT
10
216.8512
20
64.2739
0
VERTEX
8
CUT
10
216.4774
20
66.7941
0
VERTEX
8
CUT
10
214.9955
20
71.0137
0
VERTEX
8
CUT
10
211.4779
20
78.2842
0
VERTEX
8
CUT
10
209.8084
20
82.3209
0
VERTEX
8
CUT
10
209.3481
20
82.9374
0
VERTEX
8
CUT
10
208.8845
20
82.8951
0
VERTEX
8
CUT
10
207.3704
20
80.7266
0
VERTEX
8
CUT
10
205.3886
20
77.1837
0
VERTEX
8
CUT
10
204.5545
20
76.5577
0
VERTEX
8
CUT
10
204.0204
20
76.7273
0
VERTEX
8
CUT
10
203.6074
20
77.1209
0
VERTEX
8
CUT
10
201.6540
20
80.5618
0
VERTEX
8
CUT
10
200.2488
20
82.5534
0
VERTEX
8
CUT
10
194.1611
20
89.4306
0
VERTEX
8
CUT
10
191.3652
20
93.0229
0
VERTEX
8
CUT
10
190.2138
20
94.7666
0
VERTEX
8
CUT
10
188.4867
20
98.0743
0
VERTEX
8
CUT
10
187.1841
20
101.7885
0
VERTEX
8
CUT
10
186.7181
20
101.7238
0
VERTEX
8
CUT
10
184.2595
20
98.9728
0
VERTEX
8
CUT
10
182.0167
20
96.9415
0
VERTEX
8
CUT
10
179.3303
20
95.2018
0
VERTEX
8
CUT
10
176.5468
20
93.8831
0
VERTEX
8
CUT
10
173.1810
20
92.8986
0
VERTEX
8
CUT
10
166.4069
20
91.6369
0
VERTEX
8
CUT
10
159.7881
20
89.9682
0
VERTEX
8
CUT
10
158.1665
20
89.8485
0
VERTEX
8
CUT
10
157.4807
20
90.1941
0
VERTEX
8
CUT
10
157.3016
20
90.9483
0
VERTEX
8
CUT
10
159.4040
20
95.9106
0
VERTEX
8
CUT
10
160.0173
20
98.7098
0
VERTEX
8
CUT
10
160.2783
20
102.7558
0
VERTEX
8
CUT
10
160.3081
20
117.3485
0
VERTEX
8
CUT
10
160.5726
20
120.1127
0
VERTEX
8
CUT
10
161.2746
20
123.2835
0
VERTEX
8
CUT
10
161.1035
20
123.6462
0
VERTEX
8
CUT
10
156.0523
20
123.9796
0
VERTEX
8
CUT
10
154.0514
20
124.4832
0
VERTEX
8
CUT
10
152.2072
20
125.4651
0
VERTEX
8
CUT
10
148.7270
20
128.4229
0
VERTEX
8
CUT
10
143.2121
20
127.8249
0
VERTEX
8
CUT
10
141.6646
20
127.2983
0
VERTEX
8
CUT
10
140.8814
20
126.7923
0
VERTEX
8
CUT
10
134.7587
20
121.5128
0
VERTEX
8
CUT
10
132.1873
20
119.8253
0
VERTEX
8
CUT
10
129.6236
20
118.7396
0
VERTEX
8
CUT
10
124.9551
20
117.6578
0
SEQEND
0
POLYLINE
8
CUT
66
1
70
1
0
VERTEX
8
CUT
10
212.1891
20
138.8961
0
VERTEX
8
CUT
10
211.7372
20
139.1661
0
VERTEX
8
CUT
10
211.4256
20
138.7786
0
VERTEX
8
CUT
10
211.7611
20
136.4063
0
VERTEX
8
CUT
10
212.4644
20
133.6170
0
VERTEX
8
CUT
10
213.4250
20
132.2821
0
VERTEX
8
CUT
10
215.0230
20
131.0342
0
VERTEX
8
CUT
10
215.9390
20
129.9226
0
VERTEX
8
CUT
10
216.3403
20
129.8730
0
VERTEX
8
CUT
10
216.5657
20
130.1675
0
VERTEX
8
CUT
10
216.5609
20
131.0285
0
VERTEX
8
CUT
10
215.8306
20
133.6953
0
VERTEX
8
CUT
10
215.8019
20
134.7853
0
VERTEX
8
CUT
10
215.3497
20
134.9994
0
VERTEX
8
CUT
10
214.5347
20
134.3968
0
VERTEX
8
CUT
10
214.0375
20
134.4090
0
VERTEX
8
CUT
10
213.1633
20
135.0256
0
VERTEX
8
CUT
10
212.8714
20
135.6876
0
VERTEX
8
CUT
10
212.6629
20
137.3892
0
VERTEX
8
CUT
10
212.1891
20
138.8961
0
SEQEND
0
POLYLINE
8
CUT
66
1
70
1
0
VERTEX
8
CUT
10
198.2792
20
181.0706
0
VERTEX
8
CUT
10
197.8239
20
180.9907
0
VERTEX
8
CUT
10
197.7847
20
180.5000
0
VERTEX
8
CUT
10
198.2036
20
180.1607
0
VERTEX
8
CUT
10
199.1086
20
179.8575
0
VERTEX
8
CUT
10
205.6740
20
179.3567
0
VERTEX
8
CUT
10
208.4168
20
178.8544
0
VERTEX
8
CUT
10
213.5918
20
177.5474
0
VERTEX
8
CUT
10
214.0743
20
177.6623
0
VERTEX
8
CUT
10
214.4075
20
178.3186
0
VERTEX
8
CUT
10
214.1747
20
178.7333
0
VERTEX
8
CUT
10
213.2407
20
178.7689
0
VERTEX
8
CUT
10
212.7393
20
179.0628
0
VERTEX
8
CUT
10
212.7214
20
181.8960
0
VERTEX
8
CUT
10
212.4557
20
182.3526
0
VERTEX
8
CUT
10
212.0961
20
182.3109
0
VERTEX
8
CUT
10
211.0086
20
181.4024
0
VERTEX
8
CUT
10
201.9180
20
182.8676
0
VERTEX
8
CUT
10
200.2126
20
183.7236
0
VERTEX
8
CUT
10
199.3021
20
184.8329
0
VERTEX
8
CUT
10
198.9846
20
184.7270
0
VERTEX
8
CUT
10
198.8710
20
184.3760
0
VERTEX
8
CUT
10
199.9182
20
181.6989
0
VERTEX
8
CUT
10
199.9192
20
181.1470
0
VERTEX
8
CUT
10
199.3846
20
180.8460
0
VERTEX
8
CUT
10
198.2792
20
181.0706
0
SEQEND
0
POLYLINE
8
CUT
66
1
70
1
0
VERTEX
8
CUT
10
184.8030
20
261.0377
0
VERTEX
8
CUT
10
181.5798
20
260.8439
0
VERTEX
8
CUT
10
181.4786
20
260.5663
0
VERTEX
8
CUT
10
181.9477
20
260.1075
0
VERTEX
8
CUT
10
185.6962
20
258.7727
0
VERTEX
8
CUT
10
190.1884
20
257.7252
0
VERTEX
8
CUT
10
194.4900
20
257.4086
0
VERTEX
8
CUT
10
196.5782
20
257.5261
0
VERTEX
8
CUT
10
200.4284
20
258.2441
0
VERTEX
8
CUT
10
202.2054
20
258.8665
0
VERTEX
8
CUT
10
205.1239
20
260.5084
0
VERTEX
8
CUT
10
206.0646
20
261.5019
0
VERTEX
8
CUT
10
206.8296
20
262.7847
0
VERTEX
8
CUT
10
207.3097
20
264.1212
0
VERTEX
8
CUT
10
207.3821
20
265.2893
0
VERTEX
8
CUT
10
206.8482
20
265.4049
0
VERTEX
8
CUT
10
205.4094
20
263.7975
0
VERTEX
8
CUT
10
204.6864
20
263.6336
0
VERTEX
8
CUT
10
204.3779
20
264.1444
0
VERTEX
8
CUT
10
204.1908
20
265.8281
0
VERTEX
8
CUT
10
203.7864
20
267.2498
0
VERTEX
8
CUT
10
203.8839
20
268.0176
0
VERTEX
8
CUT
10
204.4529
20
269.0148
0
VERTEX
8
CUT
10
205.8982
20
270.5315
0
VERTEX
8
CUT
10
206.8413
20
271.0530
0
VERTEX
8
CUT
10
208.8205
20
271.4982
0
VERTEX
8
CUT
10
210.9956
20
271.1876
0
VERTEX
8
CUT
10
212.6389
20
270.4829
0
VERTEX
8
CUT
10
213.7919
20
269.7147
0
VERTEX
8
CUT
10
214.1696
20
269.8319
0
VERTEX
8
CUT
10
214.2506
20
270.2191
0
VERTEX
8
CUT
10
212.7839
20
271.6606
0
VERTEX
8
CUT
10
211.0287
20
272.4245
0
VERTEX
8
CUT
10
209.3748
20
272.6917
0
VERTEX
8
CUT
10
207.9900
20
272.6920
0
VERTEX
8
CUT
10
206.3275
20
272.0812
0
VERTEX
8
CUT
10
205.3114
20
272.0835
0
VERTEX
8
CUT
10
202.8556
20
272.9129
0
VERTEX
8
CUT
10
196.1056
20
275.8551
0
VERTEX
8
CUT
10
195.8368
20
275.5149
0
VERTEX
8
CUT
10
195.7665
20
271.6020
0
VERTEX
8
CUT
10
195.3743
20
269.4919
0
VERTEX
8
CUT
10
194.6492
20
267.6301
0
VERTEX
8
CUT
10
192.7623
20
265.0343
0
VERTEX
8
CUT
10
190.5493
20
263.1889
0
VERTEX
8
CUT
10
187.7963
20
261.8419
0
VERTEX
8
CUT
10
184.8030
20
261.0377
0
SEQEND
0
POLYLINE
8
CUT
66
1
70
1
0
VERTEX
8
CUT
10
211.2158
20
142.4102
0
VERTEX
8
CUT
10
211.4227
20
142.0719
0
VERTEX
8
CUT
10
211.8188
20
142.0896
0
VERTEX
8
CUT
10
212.2989
20
142.9551
0
VERTEX
8
CUT
10
213.3169
20
143.9153
0
VERTEX
8
CUT
10
212.7298
20
148.1073
0
VERTEX
8
CUT
10
212.3657
20
149.2086
0
VERTEX
8
CUT
10
212.0581
20
149.4437
0
VERTEX
8
CUT
10
211.6458
20
149.2162
0
VERTEX
8
CUT
10
211.3791
20
147.9657
0
VERTEX
8
CUT
10
211.2158
20
142.4102
0
SEQEND
0
POLYLINE
8
CUT
66
1
70
1
0
VERTEX
8
CUT
10
205.7029
20
140.1671
0
VERTEX
8
CUT
10
205.8417
20
139.7947
0
VERTEX
8
CUT
10
206.2349
20
139.7373
0
VERTEX
8
CUT
10
206.9486
20
140.4147
0
VERTEX
8
CUT
10
207.4661
20
140.6177
0
VERTEX
8
CUT
10
207.7779
20
141.0622
0
VERTEX
8
CUT
10
208.2082
20
146.1760
0
VERTEX
8
CUT
10
208.2354
20
148.0943
0
VERTEX
8
CUT
10
207.9567
20
148.4301
0
VERTEX
8
CUT
10
207.5186
20
148.2658
0
VERTEX
8
CUT
10
207.1869
20
147.1389
0
VERTEX
8
CUT
10
205.7029
20
140.1671
0
SEQEND
0
POLYLINE
8
CUT
66
1
70
1
0
VERTEX
8
CUT
10
205.6593
20
133.8631
0
VERTEX
8
CUT
10
205.3340
20
134.2284
0
VERTEX
8
CUT
10
204.9077
20
133.9885
0
VERTEX
8
CUT
10
204.6528
20
131.0348
0
VERTEX
8
CUT
10
205.8795
20
129.5608
0
VERTEX
8
CUT
10
207.0906
20
127.2176
0
VERTEX
8
CUT
10
207.5250
20
127.0742
0
VERTEX
8
CUT
10
207.8946
20
127.4895
0
VERTEX
8
CUT
10
208.0278
20
128.2025
0
VERTEX
8
CUT
10
207.3617
20
128.6703
0
VERTEX
8
CUT
10
207.0782
20
129.1292
0
VERTEX
8
CUT
10
206.8027
20
130.7735
0
VERTEX
8
CUT
10
205.7654
20
133.1852
0
VERTEX
8
CUT
10
205.6593
20
133.8631
0
SEQEND
0
POLYLINE
8
CUT
66
1
70
1
0
VERTEX
8
CUT
10
201.3653
20
110.3313
0
VERTEX
8
CUT
10
200.8377
20
110.3816
0
VERTEX
8
CUT
10
200.7471
20
109.8595
0
VERTEX
8
CUT
10
204.1231
20
106.1399
0
VERTEX
8
CUT
10
204.4466
20
106.2209
0
VERTEX
8
CUT
10
204.9087
20
106.7366
0
VERTEX
8
CUT
10
206.9002
20
109.3606
0
VERTEX
8
CUT
10
206.7574
20
109.7351
0
VERTEX
8
CUT
10
206.3598
20
109.7860
0
VERTEX
8
CUT
10
204.9548
20
108.4834
0
VERTEX
8
CUT
10
204.0373
20
108.0765
0
VERTEX
8
CUT
10
202.7896
20
108.8999
0
VERTEX
8
CUT
10
201.3653
20
110.3313
0
SEQEND
0
POLYLINE
8
CUT
66
1
70
1
0
VERTEX
8
CUT
10
204.7417
20
239.7000
0
VERTEX
8
CUT
10
205.0911
20
239.3941
0
VERTEX
8
CUT
10
205.4978
20
239.6755
0
VERTEX
8
CUT
10
205.5044
20
242.5130
0
VERTEX
8
CUT
10
204.1749
20
243.8439
0
VERTEX
8
CUT
10
203.8252
20
243.9389
0
VERTEX
8
CUT
10
203.5267
20
243.4834
0
VERTEX
8
CUT
10
204.7417
20
239.7000
0
SEQEND
0
POLYLINE
8
CUT
66
1
70
1
0
VERTEX
8
CUT
10
200.6699
20
141.6118
0
VERTEX
8
CUT
10
201.6077
20
141.0211
0
VERTEX
8
CUT
10
201.8848
20
140.1689
0
VERTEX
8
CUT
10
202.4324
20
140.2193
0
VERTEX
8
CUT
10
203.8891
20
146.8751
0
VERTEX
8
CUT
10
203.6699
20
147.2795
0
VERTEX
8
CUT
10
203.2180
20
147.1938
0
VERTEX
8
CUT
10
201.9155
20
145.2842
0
VERTEX
8
CUT
10
200.9930
20
143.2611
0
VERTEX
8
CUT
10
200.6699
20
141.6118
0
SEQEND
0
POLYLINE
8
CUT
66
1
70
1
0
VERTEX
8
CUT
10
190.8463
20
142.7640
0
VERTEX
8
CUT
10
190.8228
20
142.3312
0
VERTEX
8
CUT
10
191.2138
20
142.1440
0
VERTEX
8
CUT
10
193.4870
20
143.1502
0
VERTEX
8
CUT
10
196.6808
20
145.0564
0
VERTEX
8
CUT
10
199.1143
20
147.1176
0
VERTEX
8
CUT
10
201.0211
20
149.4232
0
VERTEX
8
CUT
10
201.7767
20
150.7251
0
VERTEX
8
CUT
10
202.9899
20
153.6866
0
VERTEX
8
CUT
10
202.9373
20
154.3612
0
VERTEX
8
CUT
10
202.5831
20
154.4707
0
VERTEX
8
CUT
10
201.2480
20
154.1855
0
VERTEX
8
CUT
10
199.8852
20
153.3546
0
VERTEX
8
CUT
10
198.9714
20
152.1394
0
VERTEX
8
CUT
10
199.9511
20
150.8338
0
VERTEX
8
CUT
10
199.9160
20
150.1408
0
VERTEX
8
CUT
10
199.5150
20
149.4131
0
VERTEX
8
CUT
10
198.6299
20
148.5939
0
VERTEX
8
CUT
10
198.0961
20
148.4757
0
VERTEX
8
CUT
10
197.4587
20
149.0398
0
VERTEX
8
CUT
10
197.1327
20
150.0709
0
VERTEX
8
CUT
10
196.8108
20
150.1780
0
VERTEX
8
CUT
10
196.4401
20
149.9673
0
VERTEX
8
CUT
10
195.4848
20
148.8552
0
VERTEX
8
CUT
10
195.2080
20
146.9502
0
VERTEX
8
CUT
10
194.7812
20
146.1172
0
VERTEX
8
CUT
10
193.5817
20
144.9841
0
VERTEX
8
CUT
10
191.9730
20
144.2132
0
VERTEX
8
CUT
10
190.8463
20
142.7640
0
SEQEND
0
POLYLINE
8
CUT
66
1
70
1
0
VERTEX
8
CUT
10
199.1170
20
129.8810
0
VERTEX
8
CUT
10
199.2305
20
129.4583
0
VERTEX
8
CUT
10
199.6652
20
129.4073
0
VERTEX
8
CUT
10
201.4424
20
131.0757
0
VERTEX
8
CUT
10
201.6156
20
132.2508
0
VERTEX
8
CUT
10
201.5369
20
133.3716
0
VERTEX
8
CUT
10
201.3440
20
133.6417
0
VERTEX
8
CUT
10
200.8146
20
133.4950
0
VERTEX
8
CUT
10
199.1170
20
129.8810
0
SEQEND
0
POLYLINE
8
CUT
66
1
70
1
0
VERTEX
8
CUT
10
191.8244
20
136.6999
0
VERTEX
8
CUT
10
191.9547
20
136.2891
0
VERTEX
8
CUT
10
192.3495
20
136.2328
0
VERTEX
8
CUT
10
195.2756
20
138.1540
0
VERTEX
8
CUT
10
196.4681
20
139.9864
0
VERTEX
8
CUT
10
196.7478
20
140.7900
0
VERTEX
8
CUT
10
196.6586
20
141.1150
0
VERTEX
8
CUT
10
196.2728
20
141.2386
0
VERTEX
8
CUT
10
195.4680
20
140.8733
0
VERTEX
8
CUT
10
191.8777
20
138.8093
0
VERTEX
8
CUT
10
191.7180
20
138.4322
0
VERTEX
8
CUT
10
192.0166
20
137.4104
0
VERTEX
8
CUT
10
191.8244
20
136.6999
0
SEQEND
0
POLYLINE
8
CUT
66
1
70
1
0
VERTEX
8
CUT
10
186.9494
20
148.7432
0
VERTEX
8
CUT
10
187.0817
20
148.2969
0
VERTEX
8
CUT
10
187.5473
20
148.2953
0
VERTEX
8
CUT
10
189.4079
20
150.4177
0
VERTEX
8
CUT
10
190.4476
20
151.2812
0
VERTEX
8
CUT
10
192.8395
20
151.2660
0
VERTEX
8
CUT
10
193.6534
20
151.4977
0
VERTEX
8
CUT
10
195.7974
20
153.5276
0
VERTEX
8
CUT
10
196.0787
20
154.0217
0
VERTEX
8
CUT
10
196.0432
20
154.3500
0
VERTEX
8
CUT
10
192.5174
20
155.7574
0
VERTEX
8
CUT
10
192.1723
20
155.7315
0
VERTEX
8
CUT
10
189.5029
20
152.9939
0
VERTEX
8
CUT
10
188.0367
20
150.8373
0
VERTEX
8
CUT
10
186.9494
20
148.7432
0
SEQEND
0
POLYLINE
8
CUT
66
1
70
1
0
VERTEX
8
CUT
10
178.3289
20
174.6783
0
VERTEX
8
CUT
10
177.7236
20
173.8175
0
VERTEX
8
CUT
10
178.0814
20
173.5147
0
VERTEX
8
CUT
10
186.0680
20
174.0664
0
VERTEX
8
CUT
10
189.0092
20
176.5604
0
VERTEX
8
CUT
10
193.2154
20
178.8185
0
VERTEX
8
CUT
10
193.5635
20
179.0948
0
VERTEX
8
CUT
10
193.5949
20
179.4358
0
VERTEX
8
CUT
10
192.8010
20
180.1286
0
VERTEX
8
CUT
10
191.4410
20
179.7941
0
VERTEX
8
CUT
10
189.6982
20
180.4868
0
VERTEX
8
CUT
10
186.2343
20
177.2072
0
VERTEX
8
CUT
10
185.0814
20
176.5422
0
VERTEX
8
CUT
10
183.6899
20
176.3346
0
VERTEX
8
CUT
10
182.1507
20
176.3633
0
VERTEX
8
CUT
10
177.4890
20
176.8905
0
VERTEX
8
CUT
10
174.6207
20
177.9878
0
VERTEX
8
CUT
10
171.8865
20
179.7657
0
VERTEX
8
CUT
10
169.8365
20
181.8452
0
VERTEX
8
CUT
10
168.6111
20
184.1382
0
VERTEX
8
CUT
10
168.2359
20
184.2917
0
VERTEX
8
CUT
10
167.8203
20
184.0761
0
VERTEX
8
CUT
10
167.7399
20
183.6171
0
VERTEX
8
CUT
10
168.2652
20
182.5548
0
VERTEX
8
CUT
10
169.7792
20
180.3259
0
VERTEX
8
CUT
10
170.7279
20
179.2872
0
VERTEX
8
CUT
10
171.7419
20
178.3631
0
VERTEX
8
CUT
10
173.9616
20
176.8549
0
VERTEX
8
CUT
10
178.1073
20
175.0673
0
VERTEX
8
CUT
10
178.3289
20
174.6783
0
SEQEND
0
POLYLINE
8
CUT
66
1
70
1
0
VERTEX
8
CUT
10
184.5440
20
46.9860
0
VERTEX
8
CUT
10
184.1458
20
47.1718
0
VERTEX
8
CUT
10
183.8274
20
46.8689
0
VERTEX
8
CUT
10
184.1052
20
44.6147
0
VERTEX
8
CUT
10
184.0127
20
43.4551
0
VERTEX
8
CUT
10
183.4445
20
41.3427
0
VERTEX
8
CUT
10
182.7273
20
40.1431
0
VERTEX
8
CUT
10
181.0065
20
38.2388
0
VERTEX
8
CUT
10
179.6623
20
37.2184
0
VERTEX
8
CUT
10
177.0968
20
36.0968
0
VERTEX
8
CUT
10
175.0671
20
35.7384
0
VERTEX
8
CUT
10
172.9226
20
35.7383
0
VERTEX
8
CUT
10
170.6961
20
36.1024
0
VERTEX
8
CUT
10
168.5537
20
36.7682
0
VERTEX
8
CUT
10
166.3867
20
37.7735
0
VERTEX
8
CUT
10
164.2850
20
39.0726
0
VERTEX
8
CUT
10
161.1331
20
41.7338
0
VERTEX
8
CUT
10
160.7043
20
41.7190
0
VERTEX
8
CUT
10
160.5486
20
41.3192
0
VERTEX
8
CUT
10
162.4243
20
37.5243
0
VERTEX
8
CUT
10
163.5795
20
35.7118
0
VERTEX
8
CUT
10
164.0094
20
35.7517
0
VERTEX
8
CUT
10
164.2520
20
36.5781
0
VERTEX
8
CUT
10
164.6481
20
36.6063
0
VERTEX
8
CUT
10
167.4927
20
34.1577
0
VERTEX
8
CUT
10
169.2373
20
32.9354
0
VERTEX
8
CUT
10
171.9093
20
31.3948
0
VERTEX
8
CUT
10
174.0273
20
30.4550
0
VERTEX
8
CUT
10
176.0184
20
29.8802
0
VERTEX
8
CUT
10
178.0075
20
29.5935
0
VERTEX
8
CUT
10
180.0216
20
29.5645
0
VERTEX
8
CUT
10
182.0056
20
29.8263
0
VERTEX
8
CUT
10
183.8192
20
30.3879
0
VERTEX
8
CUT
10
185.3635
20
31.2038
0
VERTEX
8
CUT
10
186.7943
20
32.3220
0
VERTEX
8
CUT
10
187.9133
20
33.6389
0
VERTEX
8
CUT
10
188.8321
20
35.1896
0
VERTEX
8
CUT
10
189.4924
20
36.9412
0
VERTEX
8
CUT
10
189.8379
20
38.8612
0
VERTEX
8
CUT
10
189.9093
20
40.3323
0
VERTEX
8
CUT
10
186.3443
20
44.4240
0
VERTEX
8
CUT
10
184.5440
20
46.9860
0
SEQEND
0
POLYLINE
8
CUT
66
1
70
1
0
VERTEX
8
CUT
10
164.7368
20
35.2596
0
VERTEX
8
CUT
10
164.3790
20
35.3175
0
VERTEX
8
CUT
10
164.1403
20
35.0917
0
VERTEX
8
CUT
10
164.3867
20
34.4195
0
VERTEX
8
CUT
10
166.4553
20
31.8003
0
VERTEX
8
CUT
10
168.7213
20
29.6247
0
VERTEX
8
CUT
10
171.6291
20
27.6100
0
VERTEX
8
CUT
10
173.3622
20
26.6556
0
VERTEX
8
CUT
10
176.9090
20
25.3655
0
VERTEX
8
CUT
10
180.2943
20
24.8799
0
VERTEX
8
CUT
10
181.9043
20
24.9694
0
VERTEX
8
CUT
10
184.6617
20
25.6235
0
VERTEX
8
CUT
10
187.6578
20
27.1388
0
VERTEX
8
CUT
10
189.0761
20
28.5014
0
VERTEX
8
CUT
10
189.8371
20
29.6587
0
VERTEX
8
CUT
10
189.6910
20
30.0608
0
VERTEX
8
CUT
10
189.2976
20
30.1041
0
VERTEX
8
CUT
10
186.6232
20
27.9349
0
VERTEX
8
CUT
10
184.4001
20
26.9111
0
VERTEX
8
CUT
10
182.8506
20
26.4901
0
VERTEX
8
CUT
10
179.5176
20
26.2453
0
VERTEX
8
CUT
10
177.7751
20
26.4284
0
VERTEX
8
CUT
10
174.4063
20
27.3659
0
VERTEX
8
CUT
10
171.7600
20
28.6884
0
VERTEX
8
CUT
10
167.6039
20
31.9037
0
VERTEX
8
CUT
10
166.1436
20
33.3928
0
VERTEX
8
CUT
10
164.7368
20
35.2596
0
SEQEND
0
POLYLINE
8
CUT
66
1
70
1
0
VERTEX
8
CUT
10
153.8456
20
289.1643
0
VERTEX
8
CUT
10
153.5488
20
288.8949
0
VERTEX
8
CUT
10
153.6463
20
288.5061
0
VERTEX
8
CUT
10
157.2655
20
285.0628
0
VERTEX
8
CUT
10
165.9050
20
275.9252
0
VERTEX
8
CUT
10
169.6840
20
272.4696
0
VERTEX
8
CUT
10
172.9697
20
270.2046
0
VERTEX
8
CUT
10
174.5962
20
269.3639
0
VERTEX
8
CUT
10
177.2259
20
268.3837
0
VERTEX
8
CUT
10
179.3326
20
268.0425
0
VERTEX
8
CUT
10
181.5255
20
268.0143
0
VERTEX
8
CUT
10
183.4297
20
268.3002
0
VERTEX
8
CUT
10
185.0664
20
269.0323
0
VERTEX
8
CUT
10
186.4522
20
270.0717
0
VERTEX
8
CUT
10
187.3528
20
271.3238
0
VERTEX
8
CUT
10
187.8129
20
272.8433
0
VERTEX
8
CUT
10
187.8484
20
274.3223
0
VERTEX
8
CUT
10
187.6239
20
275.3699
0
VERTEX
8
CUT
10
186.8309
20
276.5210
0
VERTEX
8
CUT
10
185.4121
20
277.3392
0
VERTEX
8
CUT
10
184.2166
20
277.4901
0
VERTEX
8
CUT
10
183.4658
20
277.1347
0
VERTEX
8
CUT
10
181.5652
20
275.4305
0
VERTEX
8
CUT
10
181.0578
20
275.1827
0
VERTEX
8
CUT
10
180.3038
20
275.8662
0
VERTEX
8
CUT
10
179.7017
20
277.5556
0
VERTEX
8
CUT
10
179.7643
20
279.0015
0
VERTEX
8
CUT
10
180.0386
20
280.0064
0
VERTEX
8
CUT
10
181.1009
20
281.7385
0
VERTEX
8
CUT
10
182.7092
20
283.0730
0
VERTEX
8
CUT
10
185.4842
20
284.0332
0
VERTEX
8
CUT
10
185.6402
20
284.3694
0
VERTEX
8
CUT
10
185.4447
20
284.6842
0
VERTEX
8
CUT
10
183.5982
20
285.1103
0
VERTEX
8
CUT
10
182.9985
20
285.0700
0
VERTEX
8
CUT
10
182.2038
20
284.3580
0
VERTEX
8
CUT
10
179.3659
20
280.9535
0
VERTEX
8
CUT
10
170.9388
20
282.4788
0
VERTEX
8
CUT
10
160.5706
20
283.8630
0
VERTEX
8
CUT
10
158.3031
20
285.6295
0
VERTEX
8
CUT
10
154.9641
20
288.8265
0
VERTEX
8
CUT
10
154.3910
20
289.1548
0
VERTEX
8
CUT
10
153.8456
20
289.1643
0
SEQEND
0
POLYLINE
8
CUT
66
1
70
1
0
VERTEX
8
CUT
10
168.7246
20
154.9452
0
VERTEX
8
CUT
10
168.3070
20
154.0075
0
VERTEX
8
CUT
10
168.5719
20
153.7581
0
VERTEX
8
CUT
10
170.0397
20
153.5498
0
VERTEX
8
CUT
10
174.9849
20
153.7554
0
VERTEX
8
CUT
10
177.8011
20
154.1368
0
VERTEX
8
CUT
10
180.0482
20
155.2372
0
VERTEX
8
CUT
10
186.3741
20
159.1023
0
VERTEX
8
CUT
10
187.0982
20
159.6362
0
VERTEX
8
CUT
10
187.1837
20
160.0355
0
VERTEX
8
CUT
10
186.5917
20
160.9161
0
VERTEX
8
CUT
10
186.1717
20
161.0118
0
VERTEX
8
CUT
10
183.8234
20
159.3683
0
VERTEX
8
CUT
10
182.3910
20
158.7659
0
VERTEX
8
CUT
10
178.6447
20
156.4419
0
VERTEX
8
CUT
10
175.4127
20
155.0756
0
VERTEX
8
CUT
10
171.6323
20
154.5075
0
VERTEX
8
CUT
10
170.6739
20
154.6066
0
VERTEX
8
CUT
10
169.3805
20
155.3255
0
VERTEX
8
CUT
10
168.7246
20
154.9452
0
SEQEND
0
POLYLINE
8
CUT
66
1
70
1
0
VERTEX
8
CUT
10
177.0423
20
138.0916
0
VERTEX
8
CUT
10
176.8572
20
137.6057
0
VERTEX
8
CUT
10
177.2824
20
137.3600
0
VERTEX
8
CUT
10
182.5121
20
138.9541
0
VERTEX
8
CUT
10
183.0590
20
139.4070
0
VERTEX
8
CUT
10
183.3386
20
141.4820
0
VERTEX
8
CUT
10
183.1150
20
141.6722
0
VERTEX
8
CUT
10
182.7891
20
141.6346
0
VERTEX
8
CUT
10
180.6900
20
139.9898
0
VERTEX
8
CUT
10
178.3109
20
139.5164
0
VERTEX
8
CUT
10
177.8798
20
139.1620
0
VERTEX
8
CUT
10
177.6015
20
138.5161
0
VERTEX
8
CUT
10
177.0423
20
138.0916
0
SEQEND
0
POLYLINE
8
CUT
66
1
70
1
0
VERTEX
8
CUT
10
153.3381
20
71.8174
0
VERTEX
8
CUT
10
152.8510
20
71.9122
0
VERTEX
8
CUT
10
152.6652
20
71.4521
0
VERTEX
8
CUT
10
153.9705
20
67.7641
0
VERTEX
8
CUT
10
154.7691
20
66.1331
0
VERTEX
8
CUT
10
156.7858
20
60.8810
0
VERTEX
8
CUT
10
157.3029
20
60.7679
0
VERTEX
8
CUT
10
157.5745
20
61.6003
0
VERTEX
8
CUT
10
158.0772
20
61.6235
0
VERTEX
8
CUT
10
162.8563
20
56.1714
0
VERTEX
8
CUT
10
165.8655
20
53.6225
0
VERTEX
8
CUT
10
168.8438
20
52.0146
0
VERTEX
8
CUT
10
170.3366
20
51.4503
0
VERTEX
8
CUT
10
171.2926
20
51.3079
0
VERTEX
8
CUT
10
172.0448
20
51.5536
0
VERTEX
8
CUT
10
173.5791
20
52.5705
0
VERTEX
8
CUT
10
174.8487
20
53.0249
0
VERTEX
8
CUT
10
176.1910
20
53.1491
0
VERTEX
8
CUT
10
177.5801
20
53.0276
0
VERTEX
8
CUT
10
180.1749
20
51.9589
0
VERTEX
8
CUT
10
181.3743
20
51.0119
0
VERTEX
8
CUT
10
182.3054
20
49.9842
0
VERTEX
8
CUT
10
182.8524
20
50.0632
0
VERTEX
8
CUT
10
182.9178
20
50.3910
0
VERTEX
8
CUT
10
181.9895
20
53.4353
0
VERTEX
8
CUT
10
181.5477
20
56.6634
0
VERTEX
8
CUT
10
181.6062
20
59.9145
0
VERTEX
8
CUT
10
182.3955
20
64.0952
0
VERTEX
8
CUT
10
182.2566
20
64.4686
0
VERTEX
8
CUT
10
181.8280
20
64.5090
0
VERTEX
8
CUT
10
180.1033
20
63.2154
0
VERTEX
8
CUT
10
177.9051
20
61.9843
0
VERTEX
8
CUT
10
175.5177
20
61.1688
0
VERTEX
8
CUT
10
171.5393
20
60.7285
0
VERTEX
8
CUT
10
169.2195
20
60.8735
0
VERTEX
8
CUT
10
166.9321
20
61.3447
0
VERTEX
8
CUT
10
164.6807
20
62.1115
0
VERTEX
8
CUT
10
162.4861
20
63.2048
0
VERTEX
8
CUT
10
160.3173
20
64.6787
0
VERTEX
8
CUT
10
158.1949
20
66.4496
0
VERTEX
8
CUT
10
156.0970
20
68.5474
0
VERTEX
8
CUT
10
153.3381
20
71.8174
0
SEQEND
0
POLYLINE
8
CUT
66
1
70
1
0
VERTEX
8
CUT
10
176.9540
20
115.5736
0
VERTEX
8
CUT
10
175.5348
20
116.2436
0
VERTEX
8
CUT
10
175.2594
20
115.9478
0
VERTEX
8
CUT
10
175.5497
20
114.5282
0
VERTEX
8
CUT
10
176.0540
20
113.9701
0
VERTEX
8
CUT
10
176.9480
20
114.0792
0
VERTEX
8
CUT
10
180.5315
20
115.9295
0
VERTEX
8
CUT
10
182.0055
20
117.1179
0
VERTEX
8
CUT
10
182.6178
20
117.8160
0
VERTEX
8
CUT
10
182.6675
20
118.1421
0
VERTEX
8
CUT
10
182.4494
20
118.3897
0
VERTEX
8
CUT
10
182.1196
20
118.3815
0
VERTEX
8
CUT
10
178.3464
20
115.8103
0
VERTEX
8
CUT
10
176.9540
20
115.5736
0
SEQEND
0
POLYLINE
8
CUT
66
1
70
1
0
VERTEX
8
CUT
10
162.8891
20
225.3247
0
VERTEX
8
CUT
10
162.5323
20
225.5010
0
VERTEX
8
CUT
10
162.1927
20
225.2371
0
VERTEX
8
CUT
10
162.5075
20
224.3325
0
VERTEX
8
CUT
10
163.6912
20
222.4798
0
VERTEX
8
CUT
10
165.0845
20
220.8211
0
VERTEX
8
CUT
10
166.5925
20
219.4855
0
VERTEX
8
CUT
10
168.2625
20
218.4204
0
VERTEX
8
CUT
10
171.0422
20
217.5665
0
VERTEX
8
CUT
10
174.1268
20
217.6246
0
VERTEX
8
CUT
10
175.0989
20
217.8566
0
VERTEX
8
CUT
10
176.7723
20
218.6102
0
VERTEX
8
CUT
10
178.7365
20
220.2879
0
VERTEX
8
CUT
10
179.5941
20
221.6998
0
VERTEX
8
CUT
10
179.9733
20
222.7674
0
VERTEX
8
CUT
10
179.8082
20
223.1388
0
VERTEX
8
CUT
10
179.3691
20
223.1415
0
VERTEX
8
CUT
10
178.2590
20
221.5272
0
VERTEX
8
CUT
10
176.6770
20
220.3800
0
VERTEX
8
CUT
10
173.9905
20
219.4298
0
VERTEX
8
CUT
10
172.1333
20
219.2867
0
VERTEX
8
CUT
10
168.9304
20
219.9730
0
VERTEX
8
CUT
10
166.5377
20
221.1837
0
VERTEX
8
CUT
10
165.0695
20
222.5260
0
VERTEX
8
CUT
10
162.8891
20
225.3247
0
SEQEND
0
POLYLINE
8
CUT
66
1
70
1
0
VERTEX
8
CUT
10
156.6578
20
15.4656
0
VERTEX
8
CUT
10
156.7484
20
15.0475
0
VERTEX
8
CUT
10
157.2077
20
14.9170
0
VERTEX
8
CUT
10
164.1027
20
15.3851
0
VERTEX
8
CUT
10
172.6842
20
16.5578
0
VERTEX
8
CUT
10
174.6975
20
17.0110
0
VERTEX
8
CUT
10
174.9489
20
17.4307
0
VERTEX
8
CUT
10
174.7372
20
17.7257
0
VERTEX
8
CUT
10
170.8388
20
19.3904
0
VERTEX
8
CUT
10
167.7932
20
21.2856
0
VERTEX
8
CUT
10
164.9303
20
23.6793
0
VERTEX
8
CUT
10
160.8526
20
28.3467
0
VERTEX
8
CUT
10
160.5073
20
28.4702
0
VERTEX
8
CUT
10
160.1785
20
28.1436
0
VERTEX
8
CUT
10
159.2525
20
22.2005
0
VERTEX
8
CUT
10
158.1379
20
18.9447
0
VERTEX
8
CUT
10
156.6578
20
15.4656
0
SEQEND
0
POLYLINE
8
CUT
66
1
70
1
0
VERTEX
8
CUT
10
160.9663
20
55.1209
0
VERTEX
8
CUT
10
160.4425
20
55.1982
0
VERTEX
8
CUT
10
160.3066
20
54.7167
0
VERTEX
8
CUT
10
162.5447
20
51.7669
0
VERTEX
8
CUT
10
163.7587
20
50.4380
0
VERTEX
8
CUT
10
166.9757
20
47.9518
0
VERTEX
8
CUT
10
168.5990
20
47.0870
0
VERTEX
8
CUT
10
170.0942
20
46.5524
0
VERTEX
8
CUT
10
171.4701
20
46.2997
0
VERTEX
8
CUT
10
172.6310
20
46.3796
0
VERTEX
8
CUT
10
173.4254
20
46.7163
0
VERTEX
8
CUT
10
174.0961
20
47.4802
0
VERTEX
8
CUT
10
174.2748
20
48.3719
0
VERTEX
8
CUT
10
173.8991
20
48.9512
0
VERTEX
8
CUT
10
173.4333
20
48.8687
0
VERTEX
8
CUT
10
172.5304
20
48.1968
0
VERTEX
8
CUT
10
171.1783
20
47.9253
0
VERTEX
8
CUT
10
169.4536
20
48.2657
0
VERTEX
8
CUT
10
167.4089
20
49.2160
0
VERTEX
8
CUT
10
166.2464
20
49.9036
0
VERTEX
8
CUT
10
164.4436
20
51.3532
0
VERTEX
8
CUT
10
162.4813
20
53.2860
0
VERTEX
8
CUT
10
160.9663
20
55.1209
0
SEQEND
0
POLYLINE
8
CUT
66
1
70
1
0
VERTEX
8
CUT
10
149.1271
20
245.4392
0
VERTEX
8
CUT
10
148.6346
20
245.4876
0
VERTEX
8
CUT
10
148.4911
20
245.0141
0
VERTEX
8
CUT
10
149.7983
20
242.9093
0
VERTEX
8
CUT
10
150.2534
20
242.7855
0
VERTEX
8
CUT
10
151.1436
20
244.0743
0
VERTEX
8
CUT
10
151.7903
20
245.3636
0
VERTEX
8
CUT
10
151.7779
20
245.6621
0
VERTEX
8
CUT
10
151.2949
20
245.8658
0
VERTEX
8
CUT
10
150.3527
20
245.1290
0
VERTEX
8
CUT
10
149.8637
20
245.0349
0
VERTEX
8
CUT
10
149.1271
20
245.4392
0
SEQEND
0
POLYLINE
8
CUT
66
1
70
1
0
VERTEX
8
CUT
10
119.2715
20
119.0607
0
VERTEX
8
CUT
10
118.8763
20
118.9787
0
VERTEX
8
CUT
10
118.7654
20
118.5905
0
VERTEX
8
CUT
10
119.7284
20
117.3154
0
VERTEX
8
CUT
10
124.3249
20
112.7487
0
VERTEX
8
CUT
10
127.7679
20
109.8302
0
VERTEX
8
CUT
10
131.8941
20
107.1098
0
VERTEX
8
CUT
10
136.8652
20
104.8260
0
VERTEX
8
CUT
10
139.2121
20
104.1572
0
VERTEX
8
CUT
10
141.4065
20
103.8079
0
VERTEX
8
CUT
10
143.4521
20
103.7760
0
VERTEX
8
CUT
10
145.2767
20
104.0554
0
VERTEX
8
CUT
10
146.9799
20
104.6935
0
VERTEX
8
CUT
10
148.0196
20
105.3375
0
VERTEX
8
CUT
10
148.9624
20
106.3015
0
VERTEX
8
CUT
10
149.4021
20
107.1501
0
VERTEX
8
CUT
10
149.6495
20
108.1496
0
VERTEX
8
CUT
10
149.1987
20
108.4565
0
VERTEX
8
CUT
10
148.1107
20
107.3270
0
VERTEX
8
CUT
10
146.3739
20
106.3359
0
VERTEX
8
CUT
10
144.0001
20
105.4373
0
VERTEX
8
CUT
10
142.2417
20
105.2880
0
VERTEX
8
CUT
10
138.5817
20
105.9389
0
VERTEX
8
CUT
10
133.9631
20
107.4387
0
VERTEX
8
CUT
10
129.4705
20
110.0356
0
VERTEX
8
CUT
10
125.9207
20
112.8156
0
VERTEX
8
CUT
10
123.2480
20
115.4081
0
VERTEX
8
CUT
10
122.5345
20
116.4254
0
VERTEX
8
CUT
10
122.1708
20
117.8292
0
VERTEX
8
CUT
10
119.2715
20
119.0607
0
SEQEND
0
POLYLINE
8
CUT
66
1
70
1
0
VERTEX
8
CUT
10
115.0449
20
284.6730
0
VERTEX
8
CUT
10
114.7489
20
284.3536
0
VERTEX
8
CUT
10
114.9013
20
283.9806
0
VERTEX
8
CUT
10
117.4276
20
282.9618
0
VERTEX
8
CUT
10
118.6183
20
282.0491
0
VERTEX
8
CUT
10
119.5959
20
280.9233
0
VERTEX
8
CUT
10
119.9922
20
280.8789
0
VERTEX
8
CUT
10
119.8664
20
280.5362
0
VERTEX
8
CUT
10
120.2968
20
278.8942
0
VERTEX
8
CUT
10
120.2055
20
277.1657
0
VERTEX
8
CUT
10
119.6441
20
275.7966
0
VERTEX
8
CUT
10
118.9515
20
275.2398
0
VERTEX
8
CUT
10
118.4626
20
275.4322
0
VERTEX
8
CUT
10
117.4684
20
276.6291
0
VERTEX
8
CUT
10
116.7207
20
277.1496
0
VERTEX
8
CUT
10
115.6518
20
277.4570
0
VERTEX
8
CUT
10
114.7230
20
277.3758
0
VERTEX
8
CUT
10
113.8047
20
276.9551
0
VERTEX
8
CUT
10
113.0648
20
276.2652
0
VERTEX
8
CUT
10
112.5167
20
275.4066
0
VERTEX
8
CUT
10
112.1678
20
274.2945
0
VERTEX
8
CUT
10
112.1265
20
273.0570
0
VERTEX
8
CUT
10
112.4245
20
271.7858
0
VERTEX
8
CUT
10
113.1863
20
270.4896
0
VERTEX
8
CUT
10
115.0778
20
268.9622
0
VERTEX
8
CUT
10
116.7784
20
268.2014
0
VERTEX
8
CUT
10
118.8593
20
267.7330
0
VERTEX
8
CUT
10
119.5167
20
267.7748
0
VERTEX
8
CUT
10
122.1371
20
268.2176
0
VERTEX
8
CUT
10
124.5305
20
269.0276
0
VERTEX
8
CUT
10
128.2825
20
270.9901
0
VERTEX
8
CUT
10
130.6920
20
272.7009
0
VERTEX
8
CUT
10
136.0179
20
277.8481
0
VERTEX
8
CUT
10
142.4070
20
284.6473
0
VERTEX
8
CUT
10
146.4835
20
288.5774
0
VERTEX
8
CUT
10
146.5958
20
288.8914
0
VERTEX
8
CUT
10
146.1523
20
289.2407
0
VERTEX
8
CUT
10
145.0651
20
288.7634
0
VERTEX
8
CUT
10
139.9558
20
283.8041
0
VERTEX
8
CUT
10
131.8694
20
282.7712
0
VERTEX
8
CUT
10
120.6925
20
280.8069
0
VERTEX
8
CUT
10
120.0933
20
280.9450
0
VERTEX
8
CUT
10
120.1969
20
281.3706
0
VERTEX
8
CUT
10
119.4312
20
282.4888
0
VERTEX
8
CUT
10
117.9443
20
284.0927
0
VERTEX
8
CUT
10
116.9952
20
284.8232
0
VERTEX
8
CUT
10
116.4548
20
285.0132
0
VERTEX
8
CUT
10
115.0449
20
284.6730
0
SEQEND
0
POLYLINE
8
CUT
66
1
70
1
0
VERTEX
8
CUT
10
125.5818
20
17.7136
0
VERTEX
8
CUT
10
125.3333
20
17.3618
0
VERTEX
8
CUT
10
125.5604
20
16.9957
0
VERTEX
8
CUT
10
128.5046
20
16.4664
0
VERTEX
8
CUT
10
137.2815
20
15.3257
0
VERTEX
8
CUT
10
141.8591
20
14.9173
0
VERTEX
8
CUT
10
143.3844
20
14.9879
0
VERTEX
8
CUT
10
143.4818
20
15.5506
0
VERTEX
8
CUT
10
141.6067
20
19.5103
0
VERTEX
8
CUT
10
140.8004
20
22.0171
0
VERTEX
8
CUT
10
140.2981
20
24.5377
0
VERTEX
8
CUT
10
139.9981
20
28.8024
0
VERTEX
8
CUT
10
139.7047
20
28.9627
0
VERTEX
8
CUT
10
139.3950
20
28.8369
0
VERTEX
8
CUT
10
137.4600
20
26.1626
0
VERTEX
8
CUT
10
136.1854
20
24.7369
0
VERTEX
8
CUT
10
133.1848
20
21.9749
0
VERTEX
8
CUT
10
129.8506
20
19.7051
0
VERTEX
8
CUT
10
125.5818
20
17.7136
0
SEQEND
0
POLYLINE
8
CUT
66
1
70
1
0
VERTEX
8
CUT
10
98.7699
20
67.7075
0
VERTEX
8
CUT
10
98.5328
20
67.4688
0
VERTEX
8
CUT
10
98.5918
20
67.1026
0
VERTEX
8
CUT
10
99.8537
20
66.4076
0
VERTEX
8
CUT
10
100.7476
20
65.6626
0
VERTEX
8
CUT
10
101.1258
20
65.1095
0
VERTEX
8
CUT
10
101.4860
20
63.9906
0
VERTEX
8
CUT
10
101.5188
20
62.6384
0
VERTEX
8
CUT
10
101.2783
20
61.4737
0
VERTEX
8
CUT
10
100.8054
20
60.4340
0
VERTEX
8
CUT
10
100.1018
20
59.5805
0
VERTEX
8
CUT
10
98.4891
20
58.4296
0
VERTEX
8
CUT
10
97.6987
20
58.1798
0
VERTEX
8
CUT
10
96.0012
20
58.0345
0
VERTEX
8
CUT
10
93.3516
20
58.6167
0
VERTEX
8
CUT
10
90.9863
20
60.2120
0
VERTEX
8
CUT
10
89.8418
20
61.7812
0
VERTEX
8
CUT
10
89.1242
20
63.5777
0
VERTEX
8
CUT
10
88.8240
20
65.5288
0
VERTEX
8
CUT
10
88.9695
20
67.5340
0
VERTEX
8
CUT
10
89.5719
20
69.5428
0
VERTEX
8
CUT
10
90.5708
20
71.4261
0
VERTEX
8
CUT
10
92.1025
20
73.1485
0
VERTEX
8
CUT
10
93.2090
20
74.0710
0
VERTEX
8
CUT
10
95.7384
20
75.4644
0
VERTEX
8
CUT
10
97.1450
20
75.9695
0
VERTEX
8
CUT
10
100.1027
20
76.4672
0
VERTEX
8
CUT
10
103.2691
20
76.3746
0
VERTEX
8
CUT
10
105.7625
20
75.8456
0
VERTEX
8
CUT
10
108.1894
20
74.9134
0
VERTEX
8
CUT
10
110.4112
20
73.6060
0
VERTEX
8
CUT
10
112.4295
20
71.9680
0
VERTEX
8
CUT
10
114.1690
20
70.0836
0
VERTEX
8
CUT
10
115.7406
20
67.8459
0
VERTEX
8
CUT
10
116.9802
20
65.3878
0
VERTEX
8
CUT
10
118.1234
20
61.6928
0
VERTEX
8
CUT
10
118.3933
20
58.2829
0
VERTEX
8
CUT
10
118.2165
20
54.1458
0
VERTEX
8
CUT
10
117.2259
20
50.6709
0
VERTEX
8
CUT
10
117.3050
20
50.3177
0
VERTEX
8
CUT
10
117.8162
20
50.2436
0
VERTEX
8
CUT
10
119.0780
20
51.4624
0
VERTEX
8
CUT
10
120.4604
20
52.3638
0
VERTEX
8
CUT
10
121.9075
20
52.9363
0
VERTEX
8
CUT
10
123.4177
20
53.1779
0
VERTEX
8
CUT
10
124.8642
20
53.0883
0
VERTEX
8
CUT
10
126.2667
20
52.6441
0
VERTEX
8
CUT
10
128.2805
20
51.3778
0
VERTEX
8
CUT
10
129.1774
20
51.3011
0
VERTEX
8
CUT
10
130.4602
20
51.6664
0
VERTEX
8
CUT
10
132.3050
20
52.5158
0
VERTEX
8
CUT
10
133.3531
20
53.1012
0
VERTEX
8
CUT
10
135.3951
20
54.7156
0
VERTEX
8
CUT
10
137.2767
20
56.7457
0
VERTEX
8
CUT
10
138.8839
20
59.0993
0
VERTEX
8
CUT
10
140.6906
20
62.4103
0
VERTEX
8
CUT
10
141.7688
20
63.4143
0
VERTEX
8
CUT
10
142.2967
20
65.0396
0
VERTEX
8
CUT
10
142.6408
20
67.8248
0
VERTEX
8
CUT
10
142.5569
20
72.4311
0
VERTEX
8
CUT
10
142.3423
20
73.0963
0
VERTEX
8
CUT
10
141.7927
20
73.0461
0
VERTEX
8
CUT
10
141.0620
20
70.0815
0
VERTEX
8
CUT
10
140.3835
20
68.2791
0
VERTEX
8
CUT
10
139.5360
20
66.7038
0
VERTEX
8
CUT
10
138.2502
20
64.9452
0
VERTEX
8
CUT
10
136.6774
20
63.4051
0
VERTEX
8
CUT
10
134.9759
20
62.1729
0
VERTEX
8
CUT
10
133.5396
20
61.4519
0
VERTEX
8
CUT
10
132.0713
20
60.9994
0
VERTEX
8
CUT
10
126.5052
20
60.9323
0
VERTEX
8
CUT
10
124.7974
20
61.3653
0
VERTEX
8
CUT
10
121.7829
20
62.9749
0
VERTEX
8
CUT
10
120.2336
20
64.1618
0
VERTEX
8
CUT
10
118.8652
20
65.5253
0
VERTEX
8
CUT
10
117.7007
20
67.0712
0
VERTEX
8
CUT
10
116.6949
20
68.8398
0
VERTEX
8
CUT
10
115.4064
20
72.6468
0
VERTEX
8
CUT
10
115.0159
20
75.6488
0
VERTEX
8
CUT
10
115.1319
20
77.5882
0
VERTEX
8
CUT
10
115.7823
20
80.5871
0
VERTEX
8
CUT
10
116.4556
20
82.3232
0
VERTEX
8
CUT
10
117.4456
20
83.9928
0
VERTEX
8
CUT
10
118.6816
20
85.4040
0
VERTEX
8
CUT
10
120.0935
20
86.5818
0
VERTEX
8
CUT
10
121.6698
20
87.4949
0
VERTEX
8
CUT
10
123.3463
20
88.0936
0
VERTEX
8
CUT
10
125.0281
20
88.3635
0
VERTEX
8
CUT
10
126.6508
20
88.2767
0
VERTEX
8
CUT
10
128.2482
20
87.8230
0
VERTEX
8
CUT
10
129.3995
20
87.2636
0
VERTEX
8
CUT
10
130.9056
20
85.9542
0
VERTEX
8
CUT
10
131.8224
20
84.1100
0
VERTEX
8
CUT
10
132.0168
20
83.1143
0
VERTEX
8
CUT
10
131.8934
20
81.2499
0
VERTEX
8
CUT
10
131.1874
20
79.6261
0
VERTEX
8
CUT
10
129.9435
20
78.4960
0
VERTEX
8
CUT
10
128.6681
20
78.0443
0
VERTEX
8
CUT
10
127.5346
20
78.2534
0
VERTEX
8
CUT
10
126.1615
20
79.0576
0
VERTEX
8
CUT
10
125.6975
20
78.7442
0
VERTEX
8
CUT
10
126.1113
20
77.3974
0
VERTEX
8
CUT
10
127.1507
20
75.7953
0
VERTEX
8
CUT
10
127.5912
20
75.3319
0
VERTEX
8
CUT
10
129.2726
20
74.3043
0
VERTEX
8
CUT
10
131.0742
20
74.1262
0
VERTEX
8
CUT
10
132.6625
20
74.6478
0
VERTEX
8
CUT
10
134.1561
20
75.7810
0
VERTEX
8
CUT
10
135.3769
20
77.4341
0
VERTEX
8
CUT
10
136.1820
20
79.4291
0
VERTEX
8
CUT
10
136.4822
20
81.7810
0
VERTEX
8
CUT
10
136.1983
20
84.3336
0
VERTEX
8
CUT
10
135.8497
20
85.5542
0
VERTEX
8
CUT
10
134.8629
20
88.0176
0
VERTEX
8
CUT
10
133.6137
20
90.3687
0
VERTEX
8
CUT
10
132.2683
20
92.3163
0
VERTEX
8
CUT
10
129.1215
20
96.0813
0
VERTEX
8
CUT
10
126.0920
20
99.1495
0
VERTEX
8
CUT
10
125.7217
20
99.1539
0
VERTEX
8
CUT
10
125.5146
20
98.8470
0
VERTEX
8
CUT
10
125.3664
20
91.5509
0
VERTEX
8
CUT
10
125.0678
20
90.4128
0
VERTEX
8
CUT
10
124.5525
20
89.9026
0
VERTEX
8
CUT
10
124.1168
20
89.7941
0
VERTEX
8
CUT
10
122.0885
20
90.4919
0
VERTEX
8
CUT
10
121.0077
20
90.5072
0
VERTEX
8
CUT
10
120.5871
20
90.7924
0
VERTEX
8
CUT
10
120.2010
20
93.6431
0
VERTEX
8
CUT
10
120.2295
20
97.9155
0
VERTEX
8
CUT
10
120.9371
20
102.6396
0
VERTEX
8
CUT
10
121.3034
20
103.5955
0
VERTEX
8
CUT
10
120.8304
20
104.3106
0
VERTEX
8
CUT
10
120.1514
20
104.7529
0
VERTEX
8
CUT
10
119.7961
20
104.3338
0
VERTEX
8
CUT
10
119.6536
20
101.0456
0
VERTEX
8
CUT
10
119.3514
20
99.1378
0
VERTEX
8
CUT
10
118.1968
20
95.5040
0
VERTEX
8
CUT
10
116.4145
20
92.0371
0
VERTEX
8
CUT
10
114.0123
20
88.9905
0
VERTEX
8
CUT
10
112.6224
20
87.6281
0
VERTEX
8
CUT
10
109.7221
20
85.3877
0
VERTEX
8
CUT
10
106.4110
20
83.7469
0
VERTEX
8
CUT
10
102.1589
20
82.4450
0
VERTEX
8
CUT
10
95.7529
20
80.8953
0
VERTEX
8
CUT
10
93.3349
20
79.8608
0
VERTEX
8
CUT
10
90.8129
20
78.3541
0
VERTEX
8
CUT
10
88.6058
20
76.6443
0
VERTEX
8
CUT
10
86.7153
20
74.7582
0
VERTEX
8
CUT
10
85.0911
20
72.7177
0
VERTEX
8
CUT
10
83.8751
20
70.6252
0
VERTEX
8
CUT
10
82.9756
20
68.4015
0
VERTEX
8
CUT
10
82.4224
20
66.0631
0
VERTEX
8
CUT
10
82.2425
20
63.5784
0
VERTEX
8
CUT
10
82.5271
20
60.8796
0
VERTEX
8
CUT
10
83.3475
20
58.1874
0
VERTEX
8
CUT
10
84.6759
20
55.7389
0
VERTEX
8
CUT
10
86.4242
20
53.5918
0
VERTEX
8
CUT
10
88.9717
20
51.5384
0
VERTEX
8
CUT
10
91.7989
20
50.1823
0
VERTEX
8
CUT
10
94.7104
20
49.5195
0
VERTEX
8
CUT
10
97.6502
20
49.5481
0
VERTEX
8
CUT
10
100.4305
20
50.1982
0
VERTEX
8
CUT
10
103.0503
20
51.4978
0
VERTEX
8
CUT
10
105.2433
20
53.3987
0
VERTEX
8
CUT
10
107.0111
20
55.9719
0
VERTEX
8
CUT
10
108.0742
20
59.0137
0
VERTEX
8
CUT
10
108.4786
20
61.3371
0
VERTEX
8
CUT
10
108.2863
20
62.9956
0
VERTEX
8
CUT
10
107.7509
20
64.1442
0
VERTEX
8
CUT
10
106.0083
20
66.0759
0
VERTEX
8
CUT
10
103.5743
20
67.5077
0
VERTEX
8
CUT
10
102.2334
20
67.9070
0
VERTEX
8
CUT
10
100.9221
20
68.0498
0
VERTEX
8
CUT
10
98.7699
20
67.7075
0
SEQEND
0
POLYLINE
8
CUT
66
1
70
1
0
VERTEX
8
CUT
10
108.1312
20
219.9981
0
VERTEX
8
CUT
10
107.7100
20
220.1241
0
VERTEX
8
CUT
10
107.4385
20
219.7389
0
VERTEX
8
CUT
10
108.2337
20
218.4313
0
VERTEX
8
CUT
10
109.9832
20
216.7073
0
VERTEX
8
CUT
10
111.5915
20
215.5948
0
VERTEX
8
CUT
10
113.2279
20
214.6633
0
VERTEX
8
CUT
10
115.1453
20
213.9590
0
VERTEX
8
CUT
10
119.0527
20
213.3741
0
VERTEX
8
CUT
10
123.0842
20
213.6618
0
VERTEX
8
CUT
10
126.3299
20
214.6157
0
VERTEX
8
CUT
10
130.3079
20
216.7046
0
VERTEX
8
CUT
10
133.4362
20
219.1936
0
VERTEX
8
CUT
10
135.8452
20
221.9180
0
VERTEX
8
CUT
10
137.8091
20
225.0529
0
VERTEX
8
CUT
10
139.3770
20
228.5715
0
VERTEX
8
CUT
10
140.5963
20
232.9105
0
VERTEX
8
CUT
10
140.6468
20
235.6531
0
VERTEX
8
CUT
10
138.7520
20
241.5283
0
VERTEX
8
CUT
10
138.1160
20
247.1813
0
VERTEX
8
CUT
10
137.8111
20
247.3118
0
VERTEX
8
CUT
10
137.4769
20
247.1529
0
VERTEX
8
CUT
10
136.1914
20
245.7178
0
VERTEX
8
CUT
10
138.1295
20
240.0357
0
VERTEX
8
CUT
10
138.7523
20
236.1375
0
VERTEX
8
CUT
10
138.7258
20
232.2356
0
VERTEX
8
CUT
10
138.0480
20
228.2998
0
VERTEX
8
CUT
10
137.4481
20
226.1750
0
VERTEX
8
CUT
10
136.8527
20
225.0133
0
VERTEX
8
CUT
10
132.5138
20
220.4002
0
VERTEX
8
CUT
10
128.9711
20
217.6815
0
VERTEX
8
CUT
10
126.8623
20
216.6265
0
VERTEX
8
CUT
10
123.9032
20
215.6524
0
VERTEX
8
CUT
10
119.3125
20
215.0051
0
VERTEX
8
CUT
10
116.4013
20
215.1874
0
VERTEX
8
CUT
10
113.5688
20
216.0277
0
VERTEX
8
CUT
10
110.7842
20
217.6309
0
VERTEX
8
CUT
10
108.1312
20
219.9981
0
SEQEND
0
POLYLINE
8
CUT
66
1
70
1
0
VERTEX
8
CUT
10
126.4470
20
48.8109
0
VERTEX
8
CUT
10
125.9245
20
48.6089
0
VERTEX
8
CUT
10
125.9762
20
47.6370
0
VERTEX
8
CUT
10
126.5913
20
46.7330
0
VERTEX
8
CUT
10
127.2168
20
46.4029
0
VERTEX
8
CUT
10
128.0495
20
46.2954
0
VERTEX
8
CUT
10
129.2413
20
46.4357
0
VERTEX
8
CUT
10
131.8837
20
47.2227
0
VERTEX
8
CUT
10
134.0123
20
48.5218
0
VERTEX
8
CUT
10
136.7720
20
50.9942
0
VERTEX
8
CUT
10
138.3436
20
53.0017
0
VERTEX
8
CUT
10
139.5196
20
54.9389
0
VERTEX
8
CUT
10
139.5278
20
55.3022
0
VERTEX
8
CUT
10
139.2699
20
55.5075
0
VERTEX
8
CUT
10
138.9177
20
55.4180
0
VERTEX
8
CUT
10
136.0450
20
51.9596
0
VERTEX
8
CUT
10
134.3326
20
50.4552
0
VERTEX
8
CUT
10
132.5619
20
49.2300
0
VERTEX
8
CUT
10
130.7179
20
48.4003
0
VERTEX
8
CUT
10
128.7351
20
47.8979
0
VERTEX
8
CUT
10
127.8862
20
48.0484
0
VERTEX
8
CUT
10
126.4470
20
48.8109
0
SEQEND
0
POLYLINE
8
CUT
66
1
70
1
0
VERTEX
8
CUT
10
116.0249
20
46.5078
0
VERTEX
8
CUT
10
115.7682
20
46.8975
0
VERTEX
8
CUT
10
115.3460
20
46.7919
0
VERTEX
8
CUT
10
113.8337
20
44.5731
0
VERTEX
8
CUT
10
111.3009
20
41.6540
0
VERTEX
8
CUT
10
110.4112
20
40.2869
0
VERTEX
8
CUT
10
110.2210
20
38.9818
0
VERTEX
8
CUT
10
111.1504
20
35.5672
0
VERTEX
8
CUT
10
112.4361
20
33.4928
0
VERTEX
8
CUT
10
113.7736
20
32.0696
0
VERTEX
8
CUT
10
115.2386
20
30.9180
0
VERTEX
8
CUT
10
115.9906
20
30.4700
0
VERTEX
8
CUT
10
117.7470
20
29.8796
0
VERTEX
8
CUT
10
120.9500
20
29.5371
0
VERTEX
8
CUT
10
123.2082
20
29.7128
0
VERTEX
8
CUT
10
125.3686
20
30.2246
0
VERTEX
8
CUT
10
127.7734
20
31.1918
0
VERTEX
8
CUT
10
130.1801
20
32.4978
0
VERTEX
8
CUT
10
132.3354
20
33.9628
0
VERTEX
8
CUT
10
135.3666
20
36.5118
0
VERTEX
8
CUT
10
135.8271
20
36.2259
0
VERTEX
8
CUT
10
135.8666
20
35.5603
0
VERTEX
8
CUT
10
136.3538
20
35.4761
0
VERTEX
8
CUT
10
137.9729
20
38.0566
0
VERTEX
8
CUT
10
139.3624
20
41.1840
0
VERTEX
8
CUT
10
139.2235
20
41.5595
0
VERTEX
8
CUT
10
138.7925
20
41.5980
0
VERTEX
8
CUT
10
134.8734
20
38.4916
0
VERTEX
8
CUT
10
130.5716
20
36.3300
0
VERTEX
8
CUT
10
127.9117
20
35.9130
0
VERTEX
8
CUT
10
123.4526
20
35.9809
0
VERTEX
8
CUT
10
121.1812
20
36.7778
0
VERTEX
8
CUT
10
119.6551
20
37.7021
0
VERTEX
8
CUT
10
118.3329
20
38.8994
0
VERTEX
8
CUT
10
117.2255
20
40.3023
0
VERTEX
8
CUT
10
116.5528
20
41.4948
0
VERTEX
8
CUT
10
116.1279
20
42.7891
0
VERTEX
8
CUT
10
116.0249
20
46.5078
0
SEQEND
0
POLYLINE
8
CUT
66
1
70
1
0
VERTEX
8
CUT
10
124.0612
20
75.4747
0
VERTEX
8
CUT
10
123.6599
20
75.7037
0
VERTEX
8
CUT
10
123.3305
20
75.4260
0
VERTEX
8
CUT
10
123.6212
20
73.9141
0
VERTEX
8
CUT
10
124.5986
20
71.9875
0
VERTEX
8
CUT
10
125.5358
20
70.9085
0
VERTEX
8
CUT
10
126.6423
20
70.0854
0
VERTEX
8
CUT
10
127.8630
20
69.5176
0
VERTEX
8
CUT
10
129.1678
20
69.2059
0
VERTEX
8
CUT
10
130.5993
20
69.1836
0
VERTEX
8
CUT
10
131.9824
20
69.4616
0
VERTEX
8
CUT
10
133.4121
20
70.0053
0
VERTEX
8
CUT
10
134.3129
20
70.5600
0
VERTEX
8
CUT
10
135.9119
20
72.0239
0
VERTEX
8
CUT
10
136.5963
20
72.9141
0
VERTEX
8
CUT
10
137.6660
20
74.9413
0
VERTEX
8
CUT
10
138.4811
20
78.2089
0
VERTEX
8
CUT
10
138.1732
20
78.5062
0
VERTEX
8
CUT
10
137.7780
20
78.3420
0
VERTEX
8
CUT
10
136.9623
20
76.5869
0
VERTEX
8
CUT
10
136.6519
20
75.1971
0
VERTEX
8
CUT
10
135.7515
20
73.9024
0
VERTEX
8
CUT
10
133.3030
20
72.0439
0
VERTEX
8
CUT
10
131.1197
20
71.1039
0
VERTEX
8
CUT
10
129.0894
20
71.1345
0
VERTEX
8
CUT
10
126.4136
20
72.2904
0
VERTEX
8
CUT
10
125.1147
20
73.5146
0
VERTEX
8
CUT
10
124.0612
20
75.4747
0
SEQEND
0
POLYLINE
8
CUT
66
1
70
1
0
VERTEX
8
CUT
10
134.8499
20
33.3435
0
VERTEX
8
CUT
10
134.8242
20
33.8395
0
VERTEX
8
CUT
10
134.3006
20
33.8863
0
VERTEX
8
CUT
10
130.6322
20
30.3742
0
VERTEX
8
CUT
10
128.6571
20
28.9670
0
VERTEX
8
CUT
10
125.4614
20
27.3999
0
VERTEX
8
CUT
10
122.8583
20
26.5723
0
VERTEX
8
CUT
10
119.9675
20
26.3623
0
VERTEX
8
CUT
10
116.3186
20
26.5680
0
VERTEX
8
CUT
10
115.2838
20
26.8206
0
VERTEX
8
CUT
10
113.6146
20
27.5820
0
VERTEX
8
CUT
10
111.5859
20
29.1623
0
VERTEX
8
CUT
10
111.1933
20
29.0858
0
VERTEX
8
CUT
10
111.0745
20
28.7038
0
VERTEX
8
CUT
10
113.2352
20
26.6006
0
VERTEX
8
CUT
10
115.0973
20
25.6674
0
VERTEX
8
CUT
10
116.2838
20
25.3163
0
VERTEX
8
CUT
10
118.9421
20
24.9366
0
VERTEX
8
CUT
10
120.3315
20
24.9387
0
VERTEX
8
CUT
10
123.0692
20
25.3094
0
VERTEX
8
CUT
10
126.3457
20
26.4502
0
VERTEX
8
CUT
10
129.9376
20
28.5768
0
VERTEX
8
CUT
10
133.2824
20
31.5390
0
VERTEX
8
CUT
10
134.8499
20
33.3435
0
SEQEND
0
POLYLINE
8
CUT
66
1
70
1
0
VERTEX
8
CUT
10
127.7017
20
185.6712
0
VERTEX
8
CUT
10
127.2064
20
185.6863
0
VERTEX
8
CUT
10
127.0960
20
185.2033
0
VERTEX
8
CUT
10
128.1359
20
183.7944
0
VERTEX
8
CUT
10
128.9788
20
183.0861
0
VERTEX
8
CUT
10
130.3820
20
182.5225
0
VERTEX
8
CUT
10
131.3294
20
182.4395
0
VERTEX
8
CUT
10
131.8854
20
182.6374
0
VERTEX
8
CUT
10
131.8322
20
183.2842
0
VERTEX
8
CUT
10
130.9616
20
184.6221
0
VERTEX
8
CUT
10
130.0209
20
184.4488
0
VERTEX
8
CUT
10
129.3325
20
184.5784
0
VERTEX
8
CUT
10
127.7017
20
185.6712
0
SEQEND
0
POLYLINE
8
CUT
66
1
70
1
0
VERTEX
8
CUT
10
127.9220
20
126.6249
0
VERTEX
8
CUT
10
128.2579
20
126.6546
0
VERTEX
8
CUT
10
128.4450
20
126.9351
0
VERTEX
8
CUT
10
127.8772
20
128.0379
0
VERTEX
8
CUT
10
127.9594
20
128.5940
0
VERTEX
8
CUT
10
128.3410
20
128.9576
0
VERTEX
8
CUT
10
128.9821
20
129.0566
0
VERTEX
8
CUT
10
129.5357
20
128.8643
0
VERTEX
8
CUT
10
129.8116
20
128.4337
0
VERTEX
8
CUT
10
129.8634
20
127.7010
0
VERTEX
8
CUT
10
130.1855
20
127.4617
0
VERTEX
8
CUT
10
130.7936
20
127.8703
0
VERTEX
8
CUT
10
131.2800
20
128.7349
0
VERTEX
8
CUT
10
131.3060
20
129.5623
0
VERTEX
8
CUT
10
130.9158
20
130.3748
0
VERTEX
8
CUT
10
130.5083
20
130.8626
0
VERTEX
8
CUT
10
129.4221
20
131.5169
0
VERTEX
8
CUT
10
128.2510
20
131.6536
0
VERTEX
8
CUT
10
127.1413
20
131.2293
0
VERTEX
8
CUT
10
126.3293
20
130.2996
0
VERTEX
8
CUT
10
125.9885
20
129.4755
0
VERTEX
8
CUT
10
125.9518
20
128.8003
0
VERTEX
8
CUT
10
126.2155
20
128.1403
0
VERTEX
8
CUT
10
126.8417
20
127.4027
0
VERTEX
8
CUT
10
127.9220
20
126.6249
0
SEQEND
0
POLYLINE
8
CUT
66
1
70
1
0
VERTEX
8
CUT
10
85.2556
20
269.6369
0
VERTEX
8
CUT
10
85.2428
20
269.1991
0
VERTEX
8
CUT
10
85.6827
20
269.0347
0
VERTEX
8
CUT
10
87.6110
20
270.5774
0
VERTEX
8
CUT
10
88.7865
20
271.0849
0
VERTEX
8
CUT
10
91.2354
20
271.4686
0
VERTEX
8
CUT
10
92.5107
20
271.3166
0
VERTEX
8
CUT
10
93.6937
20
270.8753
0
VERTEX
8
CUT
10
94.9263
20
270.0836
0
VERTEX
8
CUT
10
95.7271
20
268.9754
0
VERTEX
8
CUT
10
96.0950
20
267.5205
0
VERTEX
8
CUT
10
96.1280
20
265.6631
0
VERTEX
8
CUT
10
95.8575
20
263.2978
0
VERTEX
8
CUT
10
95.6667
20
262.9213
0
VERTEX
8
CUT
10
95.2379
20
262.8394
0
VERTEX
8
CUT
10
93.2360
20
264.3882
0
VERTEX
8
CUT
10
92.8877
20
264.0334
0
VERTEX
8
CUT
10
93.1556
20
263.0187
0
VERTEX
8
CUT
10
94.2628
20
261.2938
0
VERTEX
8
CUT
10
95.5741
20
260.1238
0
VERTEX
8
CUT
10
97.2371
20
259.1632
0
VERTEX
8
CUT
10
99.1459
20
258.3953
0
VERTEX
8
CUT
10
103.8081
20
257.5533
0
VERTEX
8
CUT
10
109.1255
20
257.7275
0
VERTEX
8
CUT
10
114.1345
20
258.7157
0
VERTEX
8
CUT
10
117.4733
20
259.7995
0
VERTEX
8
CUT
10
118.6291
20
260.4131
0
VERTEX
8
CUT
10
118.5879
20
260.7416
0
VERTEX
8
CUT
10
118.3464
20
260.9133
0
VERTEX
8
CUT
10
115.6457
20
260.9769
0
VERTEX
8
CUT
10
112.7360
20
261.6637
0
VERTEX
8
CUT
10
109.9732
20
262.9458
0
VERTEX
8
CUT
10
107.6512
20
264.7088
0
VERTEX
8
CUT
10
106.1940
20
266.4100
0
VERTEX
8
CUT
10
104.7778
20
269.2426
0
VERTEX
8
CUT
10
104.2952
20
271.4864
0
VERTEX
8
CUT
10
103.9958
20
275.1462
0
VERTEX
8
CUT
10
103.7177
20
275.4515
0
VERTEX
8
CUT
10
96.4963
20
272.4720
0
VERTEX
8
CUT
10
94.6830
20
271.9062
0
VERTEX
8
CUT
10
92.1021
20
272.4873
0
VERTEX
8
CUT
10
90.0246
20
272.5434
0
VERTEX
8
CUT
10
88.7098
20
272.3805
0
VERTEX
8
CUT
10
86.9225
20
271.2591
0
VERTEX
8
CUT
10
85.2556
20
269.6369
0
SEQEND
0
POLYLINE
8
CUT
66
1
70
1
0
VERTEX
8
CUT
10
100.4644
20
98.3699
0
VERTEX
8
CUT
10
99.1512
20
99.7730
0
VERTEX
8
CUT
10
98.7933
20
99.5266
0
VERTEX
8
CUT
10
98.7444
20
98.9321
0
VERTEX
8
CUT
10
98.9792
20
98.0610
0
VERTEX
8
CUT
10
99.5567
20
97.0566
0
VERTEX
8
CUT
10
100.8552
20
95.9220
0
VERTEX
8
CUT
10
101.9318
20
95.4182
0
VERTEX
8
CUT
10
103.0293
20
95.1925
0
VERTEX
8
CUT
10
104.1572
20
95.1926
0
VERTEX
8
CUT
10
105.3479
20
95.4471
0
VERTEX
8
CUT
10
107.7008
20
96.6631
0
VERTEX
8
CUT
10
109.5393
20
98.2947
0
VERTEX
8
CUT
10
111.0959
20
100.4055
0
VERTEX
8
CUT
10
111.8385
20
102.0379
0
VERTEX
8
CUT
10
112.3378
20
103.7801
0
VERTEX
8
CUT
10
112.0448
20
104.0479
0
VERTEX
8
CUT
10
111.6689
20
103.9202
0
VERTEX
8
CUT
10
110.2094
20
101.2149
0
VERTEX
8
CUT
10
108.6439
20
99.3239
0
VERTEX
8
CUT
10
106.5070
20
98.0848
0
VERTEX
8
CUT
10
103.6858
20
97.4977
0
VERTEX
8
CUT
10
101.7827
20
97.4667
0
VERTEX
8
CUT
10
100.4644
20
98.3699
0
SEQEND
0
POLYLINE
8
CUT
66
1
70
1
0
VERTEX
8
CUT
10
76.9543
20
85.3098
0
VERTEX
8
CUT
10
76.9596
20
84.8160
0
VERTEX
8
CUT
10
77.4446
20
84.7232
0
VERTEX
8
CUT
10
81.9465
20
87.8327
0
VERTEX
8
CUT
10
86.8137
20
90.0474
0
VERTEX
8
CUT
10
88.4917
20
90.5864
0
VERTEX
8
CUT
10
93.8356
20
91.7771
0
VERTEX
8
CUT
10
93.9520
20
92.1519
0
VERTEX
8
CUT
10
93.4037
20
93.4814
0
VERTEX
8
CUT
10
93.1319
20
95.0671
0
VERTEX
8
CUT
10
93.3068
20
97.6131
0
VERTEX
8
CUT
10
93.8467
20
99.0988
0
VERTEX
8
CUT
10
94.3622
20
99.8664
0
VERTEX
8
CUT
10
95.7974
20
101.1173
0
VERTEX
8
CUT
10
96.5664
20
101.5409
0
VERTEX
8
CUT
10
98.0161
20
101.8688
0
VERTEX
8
CUT
10
98.6684
20
101.7346
0
VERTEX
8
CUT
10
99.1635
20
101.3765
0
VERTEX
8
CUT
10
99.7119
20
100.4505
0
VERTEX
8
CUT
10
101.9593
20
100.2611
0
VERTEX
8
CUT
10
103.3773
20
100.4532
0
VERTEX
8
CUT
10
105.0861
20
101.1330
0
VERTEX
8
CUT
10
106.3629
20
101.9167
0
VERTEX
8
CUT
10
107.4483
20
102.9719
0
VERTEX
8
CUT
10
108.3929
20
104.2322
0
VERTEX
8
CUT
10
109.7411
20
107.4959
0
VERTEX
8
CUT
10
110.1855
20
109.5359
0
VERTEX
8
CUT
10
110.4453
20
111.7700
0
VERTEX
8
CUT
10
110.4728
20
116.9500
0
VERTEX
8
CUT
10
110.1707
20
118.3550
0
VERTEX
8
CUT
10
108.2333
20
122.9089
0
VERTEX
8
CUT
10
106.9382
20
126.9099
0
VERTEX
8
CUT
10
105.9938
20
131.5962
0
VERTEX
8
CUT
10
106.2165
20
132.9276
0
VERTEX
8
CUT
10
105.8638
20
133.5115
0
VERTEX
8
CUT
10
105.3334
20
133.4151
0
VERTEX
8
CUT
10
104.6513
20
132.5449
0
VERTEX
8
CUT
10
102.9301
20
129.4218
0
VERTEX
8
CUT
10
101.8296
20
126.4653
0
VERTEX
8
CUT
10
97.7889
20
113.5229
0
VERTEX
8
CUT
10
96.5537
20
110.6377
0
VERTEX
8
CUT
10
95.0938
20
107.8968
0
VERTEX
8
CUT
10
93.2688
20
105.0729
0
VERTEX
8
CUT
10
90.9219
20
101.9638
0
VERTEX
8
CUT
10
76.9543
20
85.3098
0
SEQEND
0
POLYLINE
8
CUT
66
1
70
1
0
VERTEX
8
CUT
10
83.4614
20
50.0334
0
VERTEX
8
CUT
10
82.9650
20
50.0698
0
VERTEX
8
CUT
10
82.8549
20
49.5546
0
VERTEX
8
CUT
10
84.7546
20
47.7544
0
VERTEX
8
CUT
10
87.6503
20
45.9857
0
VERTEX
8
CUT
10
89.7751
20
45.0527
0
VERTEX
8
CUT
10
92.5573
20
44.3287
0
VERTEX
8
CUT
10
94.7608
20
44.2432
0
VERTEX
8
CUT
10
97.1128
20
44.4165
0
VERTEX
8
CUT
10
100.2657
20
45.1204
0
VERTEX
8
CUT
10
102.8514
20
46.3424
0
VERTEX
8
CUT
10
104.0144
20
47.1244
0
VERTEX
8
CUT
10
105.1401
20
48.0152
0
VERTEX
8
CUT
10
106.9579
20
50.0037
0
VERTEX
8
CUT
10
107.7592
20
51.1915
0
VERTEX
8
CUT
10
108.4686
20
52.7114
0
VERTEX
8
CUT
10
108.2234
20
53.0215
0
VERTEX
8
CUT
10
107.8332
20
52.9580
0
VERTEX
8
CUT
10
106.5299
20
50.9299
0
VERTEX
8
CUT
10
105.4793
20
49.7823
0
VERTEX
8
CUT
10
103.3773
20
48.0032
0
VERTEX
8
CUT
10
102.0415
20
47.1401
0
VERTEX
8
CUT
10
98.5232
20
46.0281
0
VERTEX
8
CUT
10
95.4253
20
45.5251
0
VERTEX
8
CUT
10
92.6118
20
45.6170
0
VERTEX
8
CUT
10
88.8609
20
46.6134
0
VERTEX
8
CUT
10
85.2974
20
48.5667
0
VERTEX
8
CUT
10
83.4614
20
50.0334
0
SEQEND
0
POLYLINE
8
CUT
66
1
70
1
0
VERTEX
8
CUT
10
60.3512
20
61.1243
0
VERTEX
8
CUT
10
60.0322
20
61.2906
0
VERTEX
8
CUT
10
59.7128
20
61.1251
0
VERTEX
8
CUT
10
56.9534
20
56.9262
0
VERTEX
8
CUT
10
55.6826
20
54.5615
0
VERTEX
8
CUT
10
58.2419
20
51.9477
0
VERTEX
8
CUT
10
63.7148
20
46.9724
0
VERTEX
8
CUT
10
66.9321
20
44.2527
0
VERTEX
8
CUT
10
72.4309
20
40.0996
0
VERTEX
8
CUT
10
78.2450
20
36.1554
0
VERTEX
8
CUT
10
84.2389
20
32.5003
0
VERTEX
8
CUT
10
90.4515
20
29.1594
0
VERTEX
8
CUT
10
97.0843
20
25.9453
0
VERTEX
8
CUT
10
101.9870
20
23.9018
0
VERTEX
8
CUT
10
102.4244
20
23.7731
0
VERTEX
8
CUT
10
102.7282
20
23.9049
0
VERTEX
8
CUT
10
102.8023
20
24.2962
0
VERTEX
8
CUT
10
101.4234
20
27.7392
0
VERTEX
8
CUT
10
101.0135
20
30.1688
0
VERTEX
8
CUT
10
101.1576
20
32.6526
0
VERTEX
8
CUT
10
102.0510
20
35.8081
0
VERTEX
8
CUT
10
101.9792
20
36.4478
0
VERTEX
8
CUT
10
101.6538
20
36.5370
0
VERTEX
8
CUT
10
97.7690
20
35.8251
0
VERTEX
8
CUT
10
91.4909
20
35.8276
0
VERTEX
8
CUT
10
88.8866
20
36.2371
0
VERTEX
8
CUT
10
86.7219
20
36.9164
0
VERTEX
8
CUT
10
82.5588
20
38.8489
0
VERTEX
8
CUT
10
80.6087
20
40.0622
0
VERTEX
8
CUT
10
77.1224
20
42.9040
0
VERTEX
8
CUT
10
75.6453
20
44.5319
0
VERTEX
8
CUT
10
72.7532
20
48.3546
0
VERTEX
8
CUT
10
68.5652
20
51.6661
0
VERTEX
8
CUT
10
64.6531
20
55.5480
0
VERTEX
8
CUT
10
62.4453
20
58.1672
0
VERTEX
8
CUT
10
60.3512
20
61.1243
0
SEQEND
0
POLYLINE
8
CUT
66
1
70
1
0
VERTEX
8
CUT
10
74.5208
20
77.3828
0
VERTEX
8
CUT
10
74.5553
20
76.8839
0
VERTEX
8
CUT
10
75.0523
20
76.8291
0
VERTEX
8
CUT
10
76.8539
20
78.9963
0
VERTEX
8
CUT
10
78.8636
20
80.9436
0
VERTEX
8
CUT
10
81.1341
20
82.7107
0
VERTEX
8
CUT
10
83.5795
20
84.2828
0
VERTEX
8
CUT
10
86.2339
20
85.6416
0
VERTEX
8
CUT
10
89.0072
20
86.7354
0
VERTEX
8
CUT
10
91.8631
20
87.5907
0
VERTEX
8
CUT
10
97.2239
20
88.4884
0
VERTEX
8
CUT
10
97.4767
20
88.7041
0
VERTEX
8
CUT
10
97.4714
20
89.0364
0
VERTEX
8
CUT
10
95.7297
20
90.0257
0
VERTEX
8
CUT
10
94.2419
20
90.1165
0
VERTEX
8
CUT
10
88.2075
20
88.4287
0
VERTEX
8
CUT
10
85.9251
20
87.4199
0
VERTEX
8
CUT
10
83.1088
20
85.6606
0
VERTEX
8
CUT
10
78.8422
20
82.2357
0
VERTEX
8
CUT
10
76.6157
20
79.9804
0
VERTEX
8
CUT
10
74.5208
20
77.3828
0
SEQEND
0
POLYLINE
8
CUT
66
1
70
1
0
VERTEX
8
CUT
10
44.0771
20
233.8170
0
VERTEX
8
CUT
10
44.0880
20
233.2964
0
VERTEX
8
CUT
10
44.6067
20
233.2506
0
VERTEX
8
CUT
10
48.9420
20
237.7040
0
VERTEX
8
CUT
10
55.3191
20
242.8153
0
VERTEX
8
CUT
10
60.2114
20
245.9499
0
VERTEX
8
CUT
10
65.4104
20
248.6821
0
VERTEX
8
CUT
10
70.6665
20
251.0610
0
VERTEX
8
CUT
10
73.9450
20
252.3012
0
VERTEX
8
CUT
10
81.8678
20
254.5896
0
VERTEX
8
CUT
10
88.0565
20
255.8284
0
VERTEX
8
CUT
10
88.1271
20
256.3517
0
VERTEX
8
CUT
10
85.8913
20
258.6360
0
VERTEX
8
CUT
10
84.8486
20
260.2380
0
VERTEX
8
CUT
10
84.0549
20
262.9134
0
VERTEX
8
CUT
10
83.7243
20
265.5489
0
VERTEX
8
CUT
10
83.2145
20
265.6386
0
VERTEX
8
CUT
10
76.1162
20
260.9508
0
VERTEX
8
CUT
10
70.9048
20
257.2618
0
VERTEX
8
CUT
10
65.2320
20
252.8463
0
VERTEX
8
CUT
10
51.0948
20
241.0804
0
VERTEX
8
CUT
10
46.0976
20
236.1135
0
VERTEX
8
CUT
10
44.0771
20
233.8170
0
SEQEND
0
POLYLINE
8
CUT
66
1
70
1
0
VERTEX
8
CUT
10
16.2214
20
152.0785
0
VERTEX
8
CUT
10
15.7876
20
152.2514
0
VERTEX
8
CUT
10
15.4990
20
151.8843
0
VERTEX
8
CUT
10
15.5320
20
146.8505
0
VERTEX
8
CUT
10
15.9134
20
140.0761
0
VERTEX
8
CUT
10
16.5870
20
133.4637
0
VERTEX
8
CUT
10
17.6076
20
126.9898
0
VERTEX
8
CUT
10
18.9229
20
120.5865
0
VERTEX
8
CUT
10
20.6243
20
114.1907
0
VERTEX
8
CUT
10
22.6435
20
107.8130
0
VERTEX
8
CUT
10
25.0421
20
101.4081
0
VERTEX
8
CUT
10
29.3488
20
91.3286
0
VERTEX
8
CUT
10
29.7099
20
90.1413
0
VERTEX
8
CUT
10
29.6536
20
88.9714
0
VERTEX
8
CUT
10
30.0901
20
88.7378
0
VERTEX
8
CUT
10
33.1081
20
93.3708
0
VERTEX
8
CUT
10
36.9367
20
97.8501
0
VERTEX
8
CUT
10
36.8666
20
98.1727
0
VERTEX
8
CUT
10
36.5363
20
98.3258
0
VERTEX
8
CUT
10
33.6775
20
97.4410
0
VERTEX
8
CUT
10
33.1614
20
97.5161
0
VERTEX
8
CUT
10
32.8224
20
97.8029
0
VERTEX
8
CUT
10
32.6325
20
98.7215
0
VERTEX
8
CUT
10
32.8479
20
100.4097
0
VERTEX
8
CUT
10
33.1535
20
101.4649
0
VERTEX
8
CUT
10
34.1722
20
103.6188
0
VERTEX
8
CUT
10
35.7914
20
105.9319
0
VERTEX
8
CUT
10
37.9010
20
108.2759
0
VERTEX
8
CUT
10
40.9877
20
111.1284
0
VERTEX
8
CUT
10
42.9968
20
112.7175
0
VERTEX
8
CUT
10
42.9680
20
113.0550
0
VERTEX
8
CUT
10
42.6861
20
113.2427
0
VERTEX
8
CUT
10
40.0532
20
113.0885
0
VERTEX
8
CUT
10
39.5286
20
113.3397
0
VERTEX
8
CUT
10
39.2450
20
113.7856
0
VERTEX
8
CUT
10
39.4795
20
115.2595
0
VERTEX
8
CUT
10
40.5624
20
117.4543
0
VERTEX
8
CUT
10
42.4547
20
119.8904
0
VERTEX
8
CUT
10
44.9183
20
122.1486
0
VERTEX
8
CUT
10
50.2389
20
125.5191
0
VERTEX
8
CUT
10
50.2178
20
125.8548
0
VERTEX
8
CUT
10
49.9810
20
126.0408
0
VERTEX
8
CUT
10
47.7701
20
126.1516
0
VERTEX
8
CUT
10
46.8116
20
126.4762
0
VERTEX
8
CUT
10
46.5200
20
127.2282
0
VERTEX
8
CUT
10
47.1381
20
128.9327
0
VERTEX
8
CUT
10
48.4916
20
130.8491
0
VERTEX
8
CUT
10
51.0565
20
133.0593
0
VERTEX
8
CUT
10
53.5901
20
134.4611
0
VERTEX
8
CUT
10
57.6022
20
136.1223
0
VERTEX
8
CUT
10
57.4045
20
136.6427
0
VERTEX
8
CUT
10
55.2515
20
136.9894
0
VERTEX
8
CUT
10
54.2232
20
137.4629
0
VERTEX
8
CUT
10
53.8434
20
138.2310
0
VERTEX
8
CUT
10
54.4199
20
139.6480
0
VERTEX
8
CUT
10
55.8260
20
141.1701
0
VERTEX
8
CUT
10
58.1919
20
142.8555
0
VERTEX
8
CUT
10
59.9473
20
143.5530
0
VERTEX
8
CUT
10
64.2314
20
144.6259
0
VERTEX
8
CUT
10
64.3475
20
144.9032
0
VERTEX
8
CUT
10
64.2032
20
145.2064
0
VERTEX
8
CUT
10
62.7861
20
145.7807
0
VERTEX
8
CUT
10
61.3139
20
146.8947
0
VERTEX
8
CUT
10
61.0212
20
147.5581
0
VERTEX
8
CUT
10
61.2483
20
148.1327
0
VERTEX
8
CUT
10
62.8762
20
149.8042
0
VERTEX
8
CUT
10
64.4541
20
150.7004
0
VERTEX
8
CUT
10
67.3649
20
151.5231
0
VERTEX
8
CUT
10
70.7603
20
151.9015
0
VERTEX
8
CUT
10
70.7813
20
152.4457
0
VERTEX
8
CUT
10
69.1116
20
153.5403
0
VERTEX
8
CUT
10
68.1244
20
154.5597
0
VERTEX
8
CUT
10
67.8479
20
155.0434
0
VERTEX
8
CUT
10
67.9336
20
155.6727
0
VERTEX
8
CUT
10
68.9619
20
156.8814
0
VERTEX
8
CUT
10
70.7931
20
157.9394
0
VERTEX
8
CUT
10
72.1843
20
158.2081
0
VERTEX
8
CUT
10
76.7617
20
158.4210
0
VERTEX
8
CUT
10
76.8178
20
158.9192
0
VERTEX
8
CUT
10
75.3190
20
160.4287
0
VERTEX
8
CUT
10
74.9773
20
161.1221
0
VERTEX
8
CUT
10
74.9841
20
161.8342
0
VERTEX
8
CUT
10
75.5743
20
162.6751
0
VERTEX
8
CUT
10
77.0580
20
163.4069
0
VERTEX
8
CUT
10
78.0687
20
163.5988
0
VERTEX
8
CUT
10
80.2781
20
163.6253
0
VERTEX
8
CUT
10
83.1064
20
163.0479
0
VERTEX
8
CUT
10
83.4019
20
163.1951
0
VERTEX
8
CUT
10
83.4786
20
163.5162
0
VERTEX
8
CUT
10
83.0344
20
163.9692
0
VERTEX
8
CUT
10
81.9922
20
164.4231
0
VERTEX
8
CUT
10
80.3393
20
166.1344
0
VERTEX
8
CUT
10
77.3170
20
170.3012
0
VERTEX
8
CUT
10
74.8433
20
174.5666
0
VERTEX
8
CUT
10
74.3777
20
174.7028
0
VERTEX
8
CUT
10
70.2474
20
171.8742
0
VERTEX
8
CUT
10
68.1228
20
169.8075
0
VERTEX
8
CUT
10
65.4210
20
165.8818
0
VERTEX
8
CUT
10
61.9992
20
159.1543
0
VERTEX
8
CUT
10
58.8605
20
153.7862
0
VERTEX
8
CUT
10
56.7741
20
151.1646
0
VERTEX
8
CUT
10
53.1314
20
147.9334
0
VERTEX
8
CUT
10
51.7111
20
146.9975
0
VERTEX
8
CUT
10
48.6407
20
145.4770
0
VERTEX
8
CUT
10
45.4240
20
144.3827
0
VERTEX
8
CUT
10
43.8496
20
144.0539
0
VERTEX
8
CUT
10
40.9322
20
143.8720
0
VERTEX
8
CUT
10
35.4535
20
144.1646
0
VERTEX
8
CUT
10
34.1599
20
144.0793
0
VERTEX
8
CUT
10
34.0930
20
143.5393
0
VERTEX
8
CUT
10
36.5870
20
140.8644
0
VERTEX
8
CUT
10
38.4320
20
138.2581
0
VERTEX
8
CUT
10
39.6559
20
135.4348
0
VERTEX
8
CUT
10
40.0534
20
133.9031
0
VERTEX
8
CUT
10
40.3460
20
130.8009
0
VERTEX
8
CUT
10
40.0244
20
127.8107
0
VERTEX
8
CUT
10
39.0660
20
125.0661
0
VERTEX
8
CUT
10
37.6126
20
122.7159
0
VERTEX
8
CUT
10
35.7566
20
120.8332
0
VERTEX
8
CUT
10
33.5765
20
119.4463
0
VERTEX
8
CUT
10
31.0554
20
118.6206
0
VERTEX
8
CUT
10
28.4791
20
118.4738
0
VERTEX
8
CUT
10
25.8314
20
119.0691
0
VERTEX
8
CUT
10
24.7369
20
119.5702
0
VERTEX
8
CUT
10
23.7066
20
120.1955
0
VERTEX
8
CUT
10
22.0345
20
121.6919
0
VERTEX
8
CUT
10
20.7878
20
123.5708
0
VERTEX
8
CUT
10
20.1535
20
125.6853
0
VERTEX
8
CUT
10
20.0939
20
127.0169
0
VERTEX
8
CUT
10
20.3292
20
128.2631
0
VERTEX
8
CUT
10
20.7899
20
129.4700
0
VERTEX
8
CUT
10
21.4387
20
130.4758
0
VERTEX
8
CUT
10
22.3125
20
131.3272
0
VERTEX
8
CUT
10
23.2832
20
131.9346
0
VERTEX
8
CUT
10
24.3621
20
132.2755
0
VERTEX
8
CUT
10
26.0002
20
132.1656
0
VERTEX
8
CUT
10
26.4223
20
131.5419
0
VERTEX
8
CUT
10
26.6626
20
129.5946
0
VERTEX
8
CUT
10
27.0454
20
128.5331
0
VERTEX
8
CUT
10
27.9234
20
127.8044
0
VERTEX
8
CUT
10
28.9967
20
127.6538
0
VERTEX
8
CUT
10
30.2880
20
127.9271
0
VERTEX
8
CUT
10
31.2060
20
128.6829
0
VERTEX
8
CUT
10
31.8159
20
129.9853
0
VERTEX
8
CUT
10
32.0073
20
131.8072
0
VERTEX
8
CUT
10
31.7617
20
132.1178
0
VERTEX
8
CUT
10
31.4011
20
132.0762
0
VERTEX
8
CUT
10
30.5202
20
130.6265
0
VERTEX
8
CUT
10
29.4818
20
129.9502
0
VERTEX
8
CUT
10
28.8387
20
129.9034
0
VERTEX
8
CUT
10
28.4358
20
130.2324
0
VERTEX
8
CUT
10
28.3547
20
131.1457
0
VERTEX
8
CUT
10
29.0248
20
133.1300
0
VERTEX
8
CUT
10
29.0314
20
134.6562
0
VERTEX
8
CUT
10
28.5943
20
136.5314
0
VERTEX
8
CUT
10
27.6001
20
139.0373
0
VERTEX
8
CUT
10
26.1830
20
140.8052
0
VERTEX
8
CUT
10
23.0236
20
143.6715
0
VERTEX
8
CUT
10
19.9632
20
146.8509
0
VERTEX
8
CUT
10
18.1913
20
149.0385
0
VERTEX
8
CUT
10
16.2214
20
152.0785
0
SEQEND
0
POLYLINE
8
CUT
66
1
70
1
0
VERTEX
8
CUT
10
68.9523
20
60.3579
0
VERTEX
8
CUT
10
69.3610
20
60.2368
0
VERTEX
8
CUT
10
69.6365
20
60.5621
0
VERTEX
8
CUT
10
70.0736
20
65.2874
0
VERTEX
8
CUT
10
70.5719
20
68.1909
0
VERTEX
8
CUT
10
70.5418
20
73.1881
0
VERTEX
8
CUT
10
70.9061
20
74.9843
0
VERTEX
8
CUT
10
72.0328
20
77.9663
0
VERTEX
8
CUT
10
71.7170
20
78.4263
0
VERTEX
8
CUT
10
71.3639
20
78.3069
0
VERTEX
8
CUT
10
69.3370
20
75.6050
0
VERTEX
8
CUT
10
65.9422
20
70.7758
0
VERTEX
8
CUT
10
64.5302
20
68.3258
0
VERTEX
8
CUT
10
66.3449
20
64.1876
0
VERTEX
8
CUT
10
68.9523
20
60.3579
0
SEQEND
0
POLYLINE
8
CUT
66
1
70
1
0
VERTEX
8
CUT
10
35.2006
20
190.5290
0
VERTEX
8
CUT
10
34.7435
20
190.6311
0
VERTEX
8
CUT
10
33.9729
20
189.9747
0
VERTEX
8
CUT
10
31.9375
20
187.8804
0
VERTEX
8
CUT
10
28.7871
20
184.1460
0
VERTEX
8
CUT
10
26.2100
20
179.9181
0
VERTEX
8
CUT
10
24.9011
20
176.6944
0
VERTEX
8
CUT
10
24.0824
20
173.4426
0
VERTEX
8
CUT
10
23.8246
20
170.2342
0
VERTEX
8
CUT
10
23.9096
20
168.4352
0
VERTEX
8
CUT
10
24.5705
20
165.1693
0
VERTEX
8
CUT
10
25.8310
20
162.3787
0
VERTEX
8
CUT
10
26.7252
20
161.1294
0
VERTEX
8
CUT
10
28.8862
20
159.1720
0
VERTEX
8
CUT
10
30.9011
20
158.1070
0
VERTEX
8
CUT
10
32.9987
20
157.4752
0
VERTEX
8
CUT
10
35.0915
20
157.3035
0
VERTEX
8
CUT
10
37.1276
20
157.5897
0
VERTEX
8
CUT
10
39.0183
20
158.2493
0
VERTEX
8
CUT
10
40.7680
20
159.3678
0
VERTEX
8
CUT
10
42.1344
20
160.7937
0
VERTEX
8
CUT
10
43.2065
20
162.5942
0
VERTEX
8
CUT
10
43.9395
20
165.3725
0
VERTEX
8
CUT
10
43.9671
20
166.8606
0
VERTEX
8
CUT
10
43.5214
20
169.4905
0
VERTEX
8
CUT
10
42.4011
20
171.4210
0
VERTEX
8
CUT
10
41.1837
20
172.0943
0
VERTEX
8
CUT
10
39.5011
20
172.3467
0
VERTEX
8
CUT
10
38.6231
20
172.2392
0
VERTEX
8
CUT
10
38.5104
20
171.8220
0
VERTEX
8
CUT
10
39.3084
20
170.4934
0
VERTEX
8
CUT
10
39.6722
20
169.4713
0
VERTEX
8
CUT
10
39.6971
20
168.4683
0
VERTEX
8
CUT
10
39.4083
20
167.4395
0
VERTEX
8
CUT
10
38.8061
20
166.4507
0
VERTEX
8
CUT
10
37.9213
20
165.6056
0
VERTEX
8
CUT
10
36.3429
20
164.8908
0
VERTEX
8
CUT
10
35.0491
20
164.7321
0
VERTEX
8
CUT
10
33.8573
20
164.8233
0
VERTEX
8
CUT
10
32.8252
20
165.1846
0
VERTEX
8
CUT
10
31.8181
20
165.8438
0
VERTEX
8
CUT
10
30.8034
20
166.8315
0
VERTEX
8
CUT
10
29.7694
20
168.3673
0
VERTEX
8
CUT
10
29.2070
20
170.0063
0
VERTEX
8
CUT
10
29.0919
20
171.7855
0
VERTEX
8
CUT
10
29.3887
20
173.4957
0
VERTEX
8
CUT
10
30.0950
20
175.2076
0
VERTEX
8
CUT
10
31.1983
20
176.8296
0
VERTEX
8
CUT
10
32.6808
20
178.2880
0
VERTEX
8
CUT
10
34.5048
20
179.4959
0
VERTEX
8
CUT
10
36.1268
20
180.2513
0
VERTEX
8
CUT
10
37.1927
20
180.4694
0
VERTEX
8
CUT
10
43.3097
20
180.5283
0
VERTEX
8
CUT
10
45.8743
20
179.2692
0
VERTEX
8
CUT
10
48.7811
20
177.3365
0
VERTEX
8
CUT
10
51.1896
20
174.8398
0
VERTEX
8
CUT
10
53.0611
20
171.7879
0
VERTEX
8
CUT
10
53.7586
20
170.0902
0
VERTEX
8
CUT
10
54.4676
20
167.2685
0
VERTEX
8
CUT
10
54.6431
20
164.6931
0
VERTEX
8
CUT
10
54.5558
20
161.8627
0
VERTEX
8
CUT
10
53.9055
20
157.9779
0
VERTEX
8
CUT
10
54.0796
20
157.6543
0
VERTEX
8
CUT
10
54.4798
20
157.6354
0
VERTEX
8
CUT
10
56.0635
20
160.4391
0
VERTEX
8
CUT
10
60.2187
20
170.1840
0
VERTEX
8
CUT
10
62.0319
20
173.2448
0
VERTEX
8
CUT
10
64.0576
20
175.7695
0
VERTEX
8
CUT
10
66.0222
20
177.6746
0
VERTEX
8
CUT
10
68.4790
20
179.5375
0
VERTEX
8
CUT
10
69.9310
20
180.3778
0
VERTEX
8
CUT
10
71.1923
20
180.7227
0
VERTEX
8
CUT
10
71.4114
20
181.0236
0
VERTEX
8
CUT
10
70.5881
20
183.7247
0
VERTEX
8
CUT
10
65.7228
20
196.9439
0
VERTEX
8
CUT
10
61.6521
20
207.0712
0
VERTEX
8
CUT
10
61.2892
20
207.2930
0
VERTEX
8
CUT
10
60.5202
20
207.3562
0
VERTEX
8
CUT
10
58.0919
20
207.1254
0
VERTEX
8
CUT
10
55.1942
20
206.5459
0
VERTEX
8
CUT
10
52.5893
20
205.7366
0
VERTEX
8
CUT
10
47.9365
20
203.2672
0
VERTEX
8
CUT
10
45.8800
20
201.6239
0
VERTEX
8
CUT
10
45.1926
20
201.4141
0
VERTEX
8
CUT
10
44.9479
20
200.8663
0
VERTEX
8
CUT
10
44.8889
20
200.1431
0
VERTEX
8
CUT
10
45.1767
20
198.8539
0
VERTEX
8
CUT
10
46.2840
20
196.3257
0
VERTEX
8
CUT
10
47.3412
20
194.9214
0
VERTEX
8
CUT
10
48.5140
20
193.9198
0
VERTEX
8
CUT
10
49.2724
20
193.5398
0
VERTEX
8
CUT
10
49.7813
20
193.7240
0
VERTEX
8
CUT
10
50.0172
20
195.3335
0
VERTEX
8
CUT
10
50.8665
20
196.7074
0
VERTEX
8
CUT
10
51.5857
20
197.3267
0
VERTEX
8
CUT
10
53.2065
20
198.0504
0
VERTEX
8
CUT
10
55.0161
20
198.1670
0
VERTEX
8
CUT
10
56.6521
20
197.6548
0
VERTEX
8
CUT
10
58.0622
20
196.7652
0
VERTEX
8
CUT
10
59.1639
20
195.5310
0
VERTEX
8
CUT
10
59.9584
20
194.0858
0
VERTEX
8
CUT
10
60.4695
20
192.4307
0
VERTEX
8
CUT
10
60.5903
20
190.6281
0
VERTEX
8
CUT
10
60.3500
20
188.7982
0
VERTEX
8
CUT
10
59.6804
20
186.9489
0
VERTEX
8
CUT
10
58.6929
20
185.3103
0
VERTEX
8
CUT
10
57.3710
20
183.8416
0
VERTEX
8
CUT
10
55.7633
20
182.5979
0
VERTEX
8
CUT
10
54.0156
20
181.6711
0
VERTEX
8
CUT
10
50.8536
20
181.0511
0
VERTEX
8
CUT
10
47.2192
20
181.0790
0
VERTEX
8
CUT
10
45.1130
20
181.5394
0
VERTEX
8
CUT
10
42.5912
20
182.7010
0
VERTEX
8
CUT
10
40.2520
20
184.3629
0
VERTEX
8
CUT
10
38.1513
20
186.4376
0
VERTEX
8
CUT
10
35.2006
20
190.5290
0
SEQEND
0
POLYLINE
8
CUT
66
1
70
1
0
VERTEX
8
CUT
10
51.1905
20
59.1327
0
VERTEX
8
CUT
10
51.5316
20
59.0165
0
VERTEX
8
CUT
10
51.8373
20
59.2638
0
VERTEX
8
CUT
10
52.8836
20
63.9530
0
VERTEX
8
CUT
10
55.2009
20
69.4513
0
VERTEX
8
CUT
10
55.0203
20
69.7772
0
VERTEX
8
CUT
10
54.6846
20
69.8172
0
VERTEX
8
CUT
10
52.5939
20
68.3380
0
VERTEX
8
CUT
10
51.9947
20
68.1119
0
VERTEX
8
CUT
10
51.4002
20
68.2161
0
VERTEX
8
CUT
10
50.9008
20
69.1155
0
VERTEX
8
CUT
10
50.7957
20
69.9927
0
VERTEX
8
CUT
10
50.8543
20
72.4550
0
VERTEX
8
CUT
10
51.0902
20
73.9121
0
VERTEX
8
CUT
10
51.4839
20
75.4573
0
VERTEX
8
CUT
10
52.6970
20
78.6174
0
VERTEX
8
CUT
10
56.2448
20
84.6403
0
VERTEX
8
CUT
10
56.1522
20
84.9200
0
VERTEX
8
CUT
10
55.8527
20
85.0566
0
VERTEX
8
CUT
10
53.6344
20
84.2588
0
VERTEX
8
CUT
10
52.8785
20
84.4666
0
VERTEX
8
CUT
10
52.5536
20
85.3385
0
VERTEX
8
CUT
10
52.6451
20
87.0778
0
VERTEX
8
CUT
10
53.4830
20
89.7405
0
VERTEX
8
CUT
10
54.9496
20
92.6444
0
VERTEX
8
CUT
10
56.9848
20
95.5386
0
VERTEX
8
CUT
10
58.9551
20
97.9380
0
VERTEX
8
CUT
10
58.6786
20
98.3460
0
VERTEX
8
CUT
10
57.1870
20
98.3179
0
VERTEX
8
CUT
10
56.3996
20
98.6704
0
VERTEX
8
CUT
10
56.1877
20
99.4526
0
VERTEX
8
CUT
10
56.7000
20
101.2919
0
VERTEX
8
CUT
10
56.3425
20
101.6743
0
VERTEX
8
CUT
10
55.5231
20
101.2926
0
VERTEX
8
CUT
10
52.7384
20
99.2617
0
VERTEX
8
CUT
10
44.8675
20
92.9707
0
VERTEX
8
CUT
10
37.2546
20
86.4994
0
VERTEX
8
CUT
10
34.8015
20
84.2195
0
VERTEX
8
CUT
10
33.9942
20
83.1383
0
VERTEX
8
CUT
10
35.8948
20
79.6465
0
VERTEX
8
CUT
10
42.0026
20
70.5871
0
VERTEX
8
CUT
10
47.6803
20
63.2408
0
VERTEX
8
CUT
10
51.1905
20
59.1327
0
SEQEND
0
POLYLINE
8
CUT
66
1
70
1
0
VERTEX
8
CUT
10
42.9506
20
195.1162
0
VERTEX
8
CUT
10
42.4651
20
195.2181
0
VERTEX
8
CUT
10
42.2723
20
194.7611
0
VERTEX
8
CUT
10
43.7693
20
192.5470
0
VERTEX
8
CUT
10
45.3194
20
191.0832
0
VERTEX
8
CUT
10
46.9448
20
190.0738
0
VERTEX
8
CUT
10
48.1888
20
189.6229
0
VERTEX
8
CUT
10
49.2731
20
189.5595
0
VERTEX
8
CUT
10
51.2106
20
189.9392
0
VERTEX
8
CUT
10
51.9422
20
190.4650
0
VERTEX
8
CUT
10
51.9757
20
190.7658
0
VERTEX
8
CUT
10
51.7574
20
191.0511
0
VERTEX
8
CUT
10
50.2533
20
192.0119
0
VERTEX
8
CUT
10
48.4969
20
191.4215
0
VERTEX
8
CUT
10
46.9168
20
191.8881
0
VERTEX
8
CUT
10
44.6796
20
193.2714
0
VERTEX
8
CUT
10
42.9506
20
195.1162
0
SEQEND
0
POLYLINE
8
CUT
66
1
70
1
0
VERTEX
8
CUT
10
25.8238
20
156.0192
0
VERTEX
8
CUT
10
23.0803
20
158.3601
0
VERTEX
8
CUT
10
22.7663
20
158.1691
0
VERTEX
8
CUT
10
22.7243
20
157.8738
0
VERTEX
8
CUT
10
22.9662
20
157.5039
0
VERTEX
8
CUT
10
24.8166
20
155.5988
0
VERTEX
8
CUT
10
26.9024
20
154.0380
0
VERTEX
8
CUT
10
29.0642
20
152.9857
0
VERTEX
8
CUT
10
31.0866
20
152.3482
0
VERTEX
8
CUT
10
33.7947
20
152.0278
0
VERTEX
8
CUT
10
36.6758
20
152.4061
0
VERTEX
8
CUT
10
39.8884
20
153.5412
0
VERTEX
8
CUT
10
42.6196
20
155.4465
0
VERTEX
8
CUT
10
43.7714
20
156.6317
0
VERTEX
8
CUT
10
44.7034
20
157.8766
0
VERTEX
8
CUT
10
45.0817
20
158.7000
0
VERTEX
8
CUT
10
44.8716
20
159.0418
0
VERTEX
8
CUT
10
44.4711
20
159.0173
0
VERTEX
8
CUT
10
41.7480
20
156.2361
0
VERTEX
8
CUT
10
39.6638
20
154.7738
0
VERTEX
8
CUT
10
37.9548
20
154.1600
0
VERTEX
8
CUT
10
34.6444
20
153.5107
0
VERTEX
8
CUT
10
31.4512
20
153.7495
0
VERTEX
8
CUT
10
28.2332
20
154.6181
0
VERTEX
8
CUT
10
25.8238
20
156.0192
0
SEQEND
0
POLYLINE
8
CUT
66
1
70
1
0
VERTEX
8
CUT
10
19.1007
20
191.3914
0
VERTEX
8
CUT
10
19.1563
20
190.8756
0
VERTEX
8
CUT
10
19.6751
20
190.8714
0
VERTEX
8
CUT
10
21.7545
20
193.4081
0
VERTEX
8
CUT
10
23.6480
20
195.3607
0
VERTEX
8
CUT
10
27.4087
20
198.7389
0
VERTEX
8
CUT
10
32.1361
20
202.4574
0
VERTEX
8
CUT
10
32.5726
20
204.0355
0
VERTEX
8
CUT
10
33.1633
20
210.2176
0
VERTEX
8
CUT
10
34.0435
20
214.2372
0
VERTEX
8
CUT
10
35.0825
20
217.6691
0
VERTEX
8
CUT
10
34.8850
20
218.0961
0
VERTEX
8
CUT
10
34.3724
20
217.9613
0
VERTEX
8
CUT
10
31.3560
20
212.5943
0
VERTEX
8
CUT
10
28.3134
20
206.5088
0
VERTEX
8
CUT
10
24.4340
20
198.0789
0
VERTEX
8
CUT
10
23.3448
20
196.4892
0
VERTEX
8
CUT
10
21.1615
20
194.0969
0
VERTEX
8
CUT
10
19.1007
20
191.3914
0
SEQEND
0
POLYLINE
8
CUT
66
1
70
1
0
VERTEX
8
CUT
10
15.7379
20
186.4494
0
VERTEX
8
CUT
10
15.9490
20
185.9973
0
VERTEX
8
CUT
10
16.4319
20
186.1228
0
VERTEX
8
CUT
10
18.9365
20
189.8889
0
VERTEX
8
CUT
10
18.8421
20
190.3998
0
VERTEX
8
CUT
10
18.4138
20
190.4324
0
VERTEX
8
CUT
10
16.9204
20
189.2678
0
VERTEX
8
CUT
10
16.2695
20
188.1286
0
VERTEX
8
CUT
10
15.7379
20
186.4494
0
SEQEND
0
ENDSEC
0
EOF
