0
SECTION
2
ENTITIES
0
POLYLINE
8
CUT
66
1
70
1
0
VERTEX
8
CUT
10
3.9852
20
155.1897
0
VERTEX
8
CUT
10
3.6572
20
155.5169
0
VERTEX
8
CUT
10
3.9035
20
157.9802
0
VERTEX
8
CUT
10
4.1640
20
158.7624
0
VERTEX
8
CUT
10
4.7044
20
159.1379
0
VERTEX
8
CUT
10
5.3085
20
162.4006
0
VERTEX
8
CUT
10
6.3653
20
165.4809
0
VERTEX
8
CUT
10
6.7698
20
165.9966
0
VERTEX
8
CUT
10
7.3264
20
166.2259
0
VERTEX
8
CUT
10
7.9482
20
165.8448
0
VERTEX
8
CUT
10
8.2897
20
165.2722
0
VERTEX
8
CUT
10
9.2634
20
165.1409
0
VERTEX
8
CUT
10
9.8015
20
164.7814
0
VERTEX
8
CUT
10
9.8433
20
164.2230
0
VERTEX
8
CUT
10
9.4316
20
163.6789
0
VERTEX
8
CUT
10
9.3974
20
162.8903
0
VERTEX
8
CUT
10
10.3040
20
162.2867
0
VERTEX
8
CUT
10
10.5773
20
161.7856
0
VERTEX
8
CUT
10
10.4053
20
151.8155
0
VERTEX
8
CUT
10
10.6983
20
140.7207
0
VERTEX
8
CUT
10
11.8673
20
130.6995
0
VERTEX
8
CUT
10
13.2144
20
123.1732
0
VERTEX
8
CUT
10
14.9672
20
115.8408
0
VERTEX
8
CUT
10
17.1871
20
108.3327
0
VERTEX
8
CUT
10
22.3337
20
94.8495
0
VERTEX
8
CUT
10
28.7976
20
82.0050
0
VERTEX
8
CUT
10
36.4312
20
69.8932
0
VERTEX
8
CUT
10
45.2356
20
58.5994
0
VERTEX
8
CUT
10
55.0638
20
48.2419
0
VERTEX
8
CUT
10
65.8271
20
38.9094
0
VERTEX
8
CUT
10
77.4686
20
30.7461
0
VERTEX
8
CUT
10
89.8771
20
23.8079
0
VERTEX
8
CUT
10
96.3614
20
20.8143
0
VERTEX
8
CUT
10
102.8079
20
18.1891
0
VERTEX
8
CUT
10
109.3608
20
15.9359
0
VERTEX
8
CUT
10
115.9412
20
14.0344
0
VERTEX
8
CUT
10
122.6394
20
12.4835
0
VERTEX
8
CUT
10
129.4456
20
11.2807
0
VERTEX
8
CUT
10
136.3591
20
10.4348
0
VERTEX
8
CUT
10
144.4191
20
9.8483
0
VERTEX
8
CUT
10
147.3015
20
9.7464
0
VERTEX
8
CUT
10
147.6701
20
10.1650
0
VERTEX
8
CUT
10
143.7923
20
15.6125
0
VERTEX
8
CUT
10
141.7548
20
19.7119
0
VERTEX
8
CUT
10
140.5399
20
23.8787
0
VERTEX
8
CUT
10
140.2097
20
26.0469
0
VERTEX
8
CUT
10
140.0923
20
28.9401
0
VERTEX
8
CUT
10
139.8633
20
29.2607
0
VERTEX
8
CUT
10
139.4159
20
29.1677
0
VERTEX
8
CUT
10
136.7740
20
25.6777
0
VERTEX
8
CUT
10
134.4297
20
23.3041
0
VERTEX
8
CUT
10
130.6703
20
20.3963
0
VERTEX
8
CUT
10
127.9070
20
18.9387
0
VERTEX
8
CUT
10
124.0573
20
17.4688
0
VERTEX
8
CUT
10
121.4109
20
17.0485
0
VERTEX
8
CUT
10
117.0146
20
16.9287
0
VERTEX
8
CUT
10
113.7571
20
17.1426
0
VERTEX
8
CUT
10
111.9177
20
17.6389
0
VERTEX
8
CUT
10
109.1438
20
18.8173
0
VERTEX
8
CUT
10
106.6891
20
20.3706
0
VERTEX
8
CUT
10
104.6201
20
22.2660
0
VERTEX
8
CUT
10
103.0626
20
24.3842
0
VERTEX
8
CUT
10
101.9442
20
26.7062
0
VERTEX
8
CUT
10
101.3353
20
29.2395
0
VERTEX
8
CUT
10
101.2510
20
31.8377
0
VERTEX
8
CUT
10
102.1204
20
35.5208
0
VERTEX
8
CUT
10
102.7175
20
36.4512
0
VERTEX
8
CUT
10
104.1259
20
37.2829
0
VERTEX
8
CUT
10
104.2019
20
37.6030
0
VERTEX
8
CUT
10
104.0383
20
37.8478
0
VERTEX
8
CUT
10
103.4055
20
37.8196
0
VERTEX
8
CUT
10
100.3847
20
36.5410
0
VERTEX
8
CUT
10
98.2692
20
36.0921
0
VERTEX
8
CUT
10
94.5835
20
35.8254
0
VERTEX
8
CUT
10
91.7700
20
36.0059
0
VERTEX
8
CUT
10
89.0476
20
36.4826
0
VERTEX
8
CUT
10
86.4021
20
37.2966
0
VERTEX
8
CUT
10
83.8375
20
38.3559
0
VERTEX
8
CUT
10
81.4072
20
39.7450
0
VERTEX
8
CUT
10
79.1377
20
41.3345
0
VERTEX
8
CUT
10
77.0596
20
43.2315
0
VERTEX
8
CUT
10
74.3068
20
46.6580
0
VERTEX
8
CUT
10
72.4911
20
49.8128
0
VERTEX
8
CUT
10
71.1362
20
52.9686
0
VERTEX
8
CUT
10
70.4610
20
55.4334
0
VERTEX
8
CUT
10
70.5103
20
56.9044
0
VERTEX
8
CUT
10
70.0146
20
59.6557
0
VERTEX
8
CUT
10
70.1639
20
61.0321
0
VERTEX
8
CUT
10
70.6281
20
61.8129
0
VERTEX
8
CUT
10
70.3369
20
64.8845
0
VERTEX
8
CUT
10
70.7129
20
66.7325
0
VERTEX
8
CUT
10
71.3486
20
67.3432
0
VERTEX
8
CUT
10
73.1348
20
67.5896
0
VERTEX
8
CUT
10
73.9660
20
67.9438
0
VERTEX
8
CUT
10
74.5252
20
68.7514
0
VERTEX
8
CUT
10
74.8738
20
69.9425
0
VERTEX
8
CUT
10
75.1518
20
70.1645
0
VERTEX
8
CUT
10
77.2472
20
70.4331
0
VERTEX
8
CUT
10
78.4201
20
69.9136
0
VERTEX
8
CUT
10
79.2525
20
69.1392
0
VERTEX
8
CUT
10
77.8132
20
63.8751
0
VERTEX
8
CUT
10
77.6438
20
61.2159
0
VERTEX
8
CUT
10
78.0140
20
58.6283
0
VERTEX
8
CUT
10
78.9361
20
55.6235
0
VERTEX
8
CUT
10
80.6403
20
52.1777
0
VERTEX
8
CUT
10
82.8914
20
49.2504
0
VERTEX
8
CUT
10
85.6093
20
46.9331
0
VERTEX
8
CUT
10
88.6094
20
45.2737
0
VERTEX
8
CUT
10
91.9026
20
44.2821
0
VERTEX
8
CUT
10
95.3536
20
44.0125
0
VERTEX
8
CUT
10
98.8228
20
44.5327
0
VERTEX
8
CUT
10
102.2707
20
45.8507
0
VERTEX
8
CUT
10
103.6425
20
46.6546
0
VERTEX
8
CUT
10
105.9989
20
48.6131
0
VERTEX
8
CUT
10
107.0106
20
49.8301
0
VERTEX
8
CUT
10
108.5759
20
52.4762
0
VERTEX
8
CUT
10
109.5732
20
55.5555
0
VERTEX
8
CUT
10
109.8279
20
58.2689
0
VERTEX
8
CUT
10
109.6018
20
60.0563
0
VERTEX
8
CUT
10
107.9076
20
64.7929
0
VERTEX
8
CUT
10
107.4964
20
66.7795
0
VERTEX
8
CUT
10
107.0339
20
67.3106
0
VERTEX
8
CUT
10
105.0377
20
67.4131
0
VERTEX
8
CUT
10
103.5973
20
68.3179
0
VERTEX
8
CUT
10
103.3857
20
69.2262
0
VERTEX
8
CUT
10
103.4708
20
71.4819
0
VERTEX
8
CUT
10
103.2570
20
71.6932
0
VERTEX
8
CUT
10
102.3474
20
71.8883
0
VERTEX
8
CUT
10
101.6384
20
72.6472
0
VERTEX
8
CUT
10
101.0121
20
75.3613
0
VERTEX
8
CUT
10
101.2346
20
75.7390
0
VERTEX
8
CUT
10
101.8606
20
75.8521
0
VERTEX
8
CUT
10
105.0890
20
75.6697
0
VERTEX
8
CUT
10
105.3761
20
75.4716
0
VERTEX
8
CUT
10
105.4486
20
74.1672
0
VERTEX
8
CUT
10
105.6383
20
73.8900
0
VERTEX
8
CUT
10
105.9364
20
73.8511
0
VERTEX
8
CUT
10
107.4563
20
74.4458
0
VERTEX
8
CUT
10
108.8007
20
74.1785
0
VERTEX
8
CUT
10
110.3829
20
73.2751
0
VERTEX
8
CUT
10
111.8735
20
72.0260
0
VERTEX
8
CUT
10
114.5259
20
69.2196
0
VERTEX
8
CUT
10
116.5279
20
65.3337
0
VERTEX
8
CUT
10
117.7746
20
61.8564
0
VERTEX
8
CUT
10
118.1562
20
59.8311
0
VERTEX
8
CUT
10
118.2761
20
57.7566
0
VERTEX
8
CUT
10
117.8051
20
53.4045
0
VERTEX
8
CUT
10
116.3843
20
49.1730
0
VERTEX
8
CUT
10
116.4586
20
48.8120
0
VERTEX
8
CUT
10
117.0091
20
48.7633
0
VERTEX
8
CUT
10
118.6881
20
50.8396
0
VERTEX
8
CUT
10
121.0310
20
52.3412
0
VERTEX
8
CUT
10
122.3533
20
52.7678
0
VERTEX
8
CUT
10
124.9272
20
52.8822
0
VERTEX
8
CUT
10
126.6781
20
52.2949
0
VERTEX
8
CUT
10
127.2695
20
51.8843
0
VERTEX
8
CUT
10
127.4126
20
51.5734
0
VERTEX
8
CUT
10
127.2213
20
50.9448
0
VERTEX
8
CUT
10
126.1332
20
49.6309
0
VERTEX
8
CUT
10
125.6543
20
48.7197
0
VERTEX
8
CUT
10
125.6053
20
47.8371
0
VERTEX
8
CUT
10
126.0114
20
47.0297
0
VERTEX
8
CUT
10
126.7710
20
46.4243
0
VERTEX
8
CUT
10
127.5834
20
46.2354
0
VERTEX
8
CUT
10
129.8468
20
46.3767
0
VERTEX
8
CUT
10
131.5855
20
46.8848
0
VERTEX
8
CUT
10
134.2636
20
48.5715
0
VERTEX
8
CUT
10
138.0418
20
52.2982
0
VERTEX
8
CUT
10
139.2185
20
54.0522
0
VERTEX
8
CUT
10
140.5532
20
56.7531
0
VERTEX
8
CUT
10
141.4751
20
59.2016
0
VERTEX
8
CUT
10
142.1504
20
61.7567
0
VERTEX
8
CUT
10
142.5854
20
64.4875
0
VERTEX
8
CUT
10
142.8460
20
68.5127
0
VERTEX
8
CUT
10
142.7575
20
71.1327
0
VERTEX
8
CUT
10
142.0272
20
76.3187
0
VERTEX
8
CUT
10
141.4141
20
78.7944
0
VERTEX
8
CUT
10
139.7407
20
83.2674
0
VERTEX
8
CUT
10
136.2265
20
89.3718
0
VERTEX
8
CUT
10
137.0831
20
91.2883
0
VERTEX
8
CUT
10
137.6302
20
93.6305
0
VERTEX
8
CUT
10
138.4605
20
94.1570
0
VERTEX
8
CUT
10
140.0056
20
94.1472
0
VERTEX
8
CUT
10
140.6272
20
93.7216
0
VERTEX
8
CUT
10
141.3835
20
92.7565
0
VERTEX
8
CUT
10
144.2271
20
88.5057
0
VERTEX
8
CUT
10
147.0754
20
83.6908
0
VERTEX
8
CUT
10
148.3406
20
81.1615
0
VERTEX
8
CUT
10
150.8410
20
75.4550
0
VERTEX
8
CUT
10
155.4609
20
63.3783
0
VERTEX
8
CUT
10
157.5178
20
59.0888
0
VERTEX
8
CUT
10
159.6800
20
55.3821
0
VERTEX
8
CUT
10
161.9259
20
52.3011
0
VERTEX
8
CUT
10
164.2423
20
49.8069
0
VERTEX
8
CUT
10
166.6364
20
47.9348
0
VERTEX
8
CUT
10
169.0382
20
46.7617
0
VERTEX
8
CUT
10
171.4426
20
46.2647
0
VERTEX
8
CUT
10
173.1134
20
46.2690
0
VERTEX
8
CUT
10
173.5570
20
46.4569
0
VERTEX
8
CUT
10
174.1068
20
47.0466
0
VERTEX
8
CUT
10
174.3979
20
48.2334
0
VERTEX
8
CUT
10
174.1371
20
49.1905
0
VERTEX
8
CUT
10
172.7208
20
51.2385
0
VERTEX
8
CUT
10
172.7428
20
51.8125
0
VERTEX
8
CUT
10
173.8540
20
52.5571
0
VERTEX
8
CUT
10
176.1390
20
52.9440
0
VERTEX
8
CUT
10
177.7913
20
52.7625
0
VERTEX
8
CUT
10
179.3287
20
52.2041
0
VERTEX
8
CUT
10
180.6543
20
51.3776
0
VERTEX
8
CUT
10
181.8048
20
50.3176
0
VERTEX
8
CUT
10
182.7606
20
48.9702
0
VERTEX
8
CUT
10
183.4219
20
47.4672
0
VERTEX
8
CUT
10
183.7822
20
45.8171
0
VERTEX
8
CUT
10
183.8415
20
44.0754
0
VERTEX
8
CUT
10
183.4510
20
42.0643
0
VERTEX
8
CUT
10
182.6403
20
40.3215
0
VERTEX
8
CUT
10
181.4991
20
38.8203
0
VERTEX
8
CUT
10
180.0275
20
37.5889
0
VERTEX
8
CUT
10
178.2318
20
36.6802
0
VERTEX
8
CUT
10
176.2595
20
36.1221
0
VERTEX
8
CUT
10
174.0855
20
35.9134
0
VERTEX
8
CUT
10
171.6815
20
36.0669
0
VERTEX
8
CUT
10
169.1984
20
36.6806
0
VERTEX
8
CUT
10
165.4883
20
38.4751
0
VERTEX
8
CUT
10
163.1139
20
40.2634
0
VERTEX
8
CUT
10
160.5574
20
42.5467
0
VERTEX
8
CUT
10
160.1879
20
42.5553
0
VERTEX
8
CUT
10
159.9772
20
42.2516
0
VERTEX
8
CUT
10
161.1797
20
39.4292
0
VERTEX
8
CUT
10
162.9533
20
36.2610
0
VERTEX
8
CUT
10
165.2461
20
32.9805
0
VERTEX
8
CUT
10
167.6175
20
30.3761
0
VERTEX
8
CUT
10
169.2419
20
29.0081
0
VERTEX
8
CUT
10
171.6772
20
27.3830
0
VERTEX
8
CUT
10
174.1700
20
26.1332
0
VERTEX
8
CUT
10
176.5998
20
25.2908
0
VERTEX
8
CUT
10
179.0875
20
24.8181
0
VERTEX
8
CUT
10
181.3938
20
24.7625
0
VERTEX
8
CUT
10
183.6111
20
25.0799
0
VERTEX
8
CUT
10
185.7113
20
25.8276
0
VERTEX
8
CUT
10
187.6399
20
26.9503
0
VERTEX
8
CUT
10
189.6928
20
28.9850
0
VERTEX
8
CUT
10
190.9183
20
31.3805
0
VERTEX
8
CUT
10
191.2498
20
32.8127
0
VERTEX
8
CUT
10
191.3347
20
35.7804
0
VERTEX
8
CUT
10
190.8349
20
39.0437
0
VERTEX
8
CUT
10
191.4341
20
39.4999
0
VERTEX
8
CUT
10
191.4717
20
39.9008
0
VERTEX
8
CUT
10
188.7019
20
42.2120
0
VERTEX
8
CUT
10
185.6240
20
45.9119
0
VERTEX
8
CUT
10
184.2355
20
48.1010
0
VERTEX
8
CUT
10
182.5782
20
52.3949
0
VERTEX
8
CUT
10
182.1083
20
54.6849
0
VERTEX
8
CUT
10
182.0759
20
56.5317
0
VERTEX
8
CUT
10
182.3146
20
59.3136
0
VERTEX
8
CUT
10
182.9158
20
60.7786
0
VERTEX
8
CUT
10
183.2993
20
61.0177
0
VERTEX
8
CUT
10
184.8765
20
61.2577
0
VERTEX
8
CUT
10
186.5830
20
61.8491
0
VERTEX
8
CUT
10
187.4315
20
61.1306
0
VERTEX
8
CUT
10
189.3002
20
60.2812
0
VERTEX
8
CUT
10
189.7272
20
59.1609
0
VERTEX
8
CUT
10
190.5498
20
54.4814
0
VERTEX
8
CUT
10
191.4578
20
52.4376
0
VERTEX
8
CUT
10
192.5222
20
50.6227
0
VERTEX
8
CUT
10
193.8549
20
48.9626
0
VERTEX
8
CUT
10
195.3546
20
47.5195
0
VERTEX
8
CUT
10
197.0249
20
46.2490
0
VERTEX
8
CUT
10
198.9193
20
45.2109
0
VERTEX
8
CUT
10
200.7809
20
44.4493
0
VERTEX
8
CUT
10
202.7687
20
43.9553
0
VERTEX
8
CUT
10
204.8144
20
43.7756
0
VERTEX
8
CUT
10
206.5305
20
43.8927
0
VERTEX
8
CUT
10
208.5098
20
44.2947
0
VERTEX
8
CUT
10
212.3287
20
45.5500
0
VERTEX
8
CUT
10
215.4545
20
47.5303
0
VERTEX
8
CUT
10
217.3063
20
49.1489
0
VERTEX
8
CUT
10
220.4630
20
53.7602
0
VERTEX
8
CUT
10
220.7557
20
53.8133
0
VERTEX
8
CUT
10
220.9367
20
53.6242
0
VERTEX
8
CUT
10
220.7289
20
52.5971
0
VERTEX
8
CUT
10
220.9095
20
52.2178
0
VERTEX
8
CUT
10
221.2366
20
52.1265
0
VERTEX
8
CUT
10
224.3878
20
54.0244
0
VERTEX
8
CUT
10
225.7978
20
54.4988
0
VERTEX
8
CUT
10
225.9529
20
55.0345
0
VERTEX
8
CUT
10
225.3863
20
55.9791
0
VERTEX
8
CUT
10
225.2951
20
56.7411
0
VERTEX
8
CUT
10
225.6471
20
57.1869
0
VERTEX
8
CUT
10
226.4491
20
57.4649
0
VERTEX
8
CUT
10
226.8747
20
58.4197
0
VERTEX
8
CUT
10
225.7376
20
59.4187
0
VERTEX
8
CUT
10
224.9677
20
59.7359
0
VERTEX
8
CUT
10
224.6809
20
60.1469
0
VERTEX
8
CUT
10
224.6582
20
60.5447
0
VERTEX
8
CUT
10
224.9566
20
60.8283
0
VERTEX
8
CUT
10
225.2790
20
60.8492
0
VERTEX
8
CUT
10
226.1734
20
60.2825
0
VERTEX
8
CUT
10
227.6670
20
60.9340
0
VERTEX
8
CUT
10
228.1459
20
60.8688
0
VERTEX
8
CUT
10
228.3718
20
60.3536
0
VERTEX
8
CUT
10
228.4327
20
59.3383
0
VERTEX
8
CUT
10
228.2158
20
58.5388
0
VERTEX
8
CUT
10
228.3156
20
57.0990
0
VERTEX
8
CUT
10
228.0210
20
54.7888
0
VERTEX
8
CUT
10
227.2551
20
51.3379
0
VERTEX
8
CUT
10
226.1621
20
48.1471
0
VERTEX
8
CUT
10
224.8285
20
45.8877
0
VERTEX
8
CUT
10
223.8059
20
44.5929
0
VERTEX
8
CUT
10
221.4708
20
42.0833
0
VERTEX
8
CUT
10
219.1868
20
40.2383
0
VERTEX
8
CUT
10
216.3560
20
38.4669
0
VERTEX
8
CUT
10
213.6473
20
37.4203
0
VERTEX
8
CUT
10
210.5262
20
36.5594
0
VERTEX
8
CUT
10
207.4138
20
36.2070
0
VERTEX
8
CUT
10
203.7397
20
36.2069
0
VERTEX
8
CUT
10
200.3583
20
36.5894
0
VERTEX
8
CUT
10
198.0788
20
37.2200
0
VERTEX
8
CUT
10
196.5144
20
38.5882
0
VERTEX
8
CUT
10
194.7266
20
38.4045
0
VERTEX
8
CUT
10
194.6331
20
38.0868
0
VERTEX
8
CUT
10
194.7861
20
37.8329
0
VERTEX
8
CUT
10
197.0680
20
36.7236
0
VERTEX
8
CUT
10
198.3346
20
34.4888
0
VERTEX
8
CUT
10
198.6378
20
33.0507
0
VERTEX
8
CUT
10
198.6330
20
28.3133
0
VERTEX
8
CUT
10
198.2356
20
26.7436
0
VERTEX
8
CUT
10
196.9193
20
24.2109
0
VERTEX
8
CUT
10
194.9561
20
21.7795
0
VERTEX
8
CUT
10
192.4978
20
19.7603
0
VERTEX
8
CUT
10
189.4702
20
18.1109
0
VERTEX
8
CUT
10
186.2785
20
17.1044
0
VERTEX
8
CUT
10
179.4975
20
16.9580
0
VERTEX
8
CUT
10
176.4739
20
17.3797
0
VERTEX
8
CUT
10
171.9370
20
19.0603
0
VERTEX
8
CUT
10
168.2963
20
21.1350
0
VERTEX
8
CUT
10
166.0713
20
22.9208
0
VERTEX
8
CUT
10
164.3845
20
24.5763
0
VERTEX
8
CUT
10
161.7950
20
27.4887
0
VERTEX
8
CUT
10
160.5957
20
29.1568
0
VERTEX
8
CUT
10
160.2034
20
29.2622
0
VERTEX
8
CUT
10
159.9248
20
28.9232
0
VERTEX
8
CUT
10
159.7610
20
25.9250
0
VERTEX
8
CUT
10
159.4292
20
23.7263
0
VERTEX
8
CUT
10
158.1279
20
19.4186
0
VERTEX
8
CUT
10
156.0595
20
15.2584
0
VERTEX
8
CUT
10
152.3345
20
10.0353
0
VERTEX
8
CUT
10
152.6638
20
9.7137
0
VERTEX
8
CUT
10
155.2078
20
9.7608
0
VERTEX
8
CUT
10
161.8558
20
10.2005
0
VERTEX
8
CUT
10
171.6315
20
11.3094
0
VERTEX
8
CUT
10
181.4308
20
13.2456
0
VERTEX
8
CUT
10
191.1407
20
15.9667
0
VERTEX
8
CUT
10
200.7356
20
19.4197
0
VERTEX
8
CUT
10
210.0954
20
23.6034
0
VERTEX
8
CUT
10
219.1682
20
28.4460
0
VERTEX
8
CUT
10
227.9391
20
34.0194
0
VERTEX
8
CUT
10
238.1603
20
41.7579
0
VERTEX
8
CUT
10
242.5539
20
45.7119
0
VERTEX
8
CUT
10
249.4243
20
52.4361
0
VERTEX
8
CUT
10
256.2468
20
60.1368
0
VERTEX
8
CUT
10
259.1738
20
63.7961
0
VERTEX
8
CUT
10
264.7547
20
71.5684
0
VERTEX
8
CUT
10
267.3943
20
75.5866
0
VERTEX
8
CUT
10
272.1854
20
83.6789
0
VERTEX
8
CUT
10
277.3119
20
93.9908
0
VERTEX
8
CUT
10
279.9959
20
100.2631
0
VERTEX
8
CUT
10
282.3080
20
106.5831
0
VERTEX
8
CUT
10
284.3265
20
112.9593
0
VERTEX
8
CUT
10
286.0236
20
119.4236
0
VERTEX
8
CUT
10
287.4023
20
125.9950
0
VERTEX
8
CUT
10
288.4549
20
132.7217
0
VERTEX
8
CUT
10
289.2445
20
139.6285
0
VERTEX
8
CUT
10
289.5069
20
145.5272
0
VERTEX
8
CUT
10
289.4776
20
157.3735
0
VERTEX
8
CUT
10
289.2391
20
163.0682
0
VERTEX
8
CUT
10
288.8348
20
164.8554
0
VERTEX
8
CUT
10
288.1635
20
170.7728
0
VERTEX
8
CUT
10
287.3991
20
175.3720
0
VERTEX
8
CUT
10
286.0205
20
182.2747
0
VERTEX
8
CUT
10
286.3083
20
182.8641
0
VERTEX
8
CUT
10
287.1976
20
183.6596
0
VERTEX
8
CUT
10
286.4105
20
185.3281
0
VERTEX
8
CUT
10
286.6777
20
186.2496
0
VERTEX
8
CUT
10
286.9955
20
186.6085
0
VERTEX
8
CUT
10
287.8710
20
186.8546
0
VERTEX
8
CUT
10
289.2375
20
188.3059
0
VERTEX
8
CUT
10
289.6636
20
189.3258
0
VERTEX
8
CUT
10
290.6338
20
189.7886
0
VERTEX
8
CUT
10
291.0063
20
189.6054
0
VERTEX
8
CUT
10
291.3231
20
188.8237
0
VERTEX
8
CUT
10
293.2588
20
182.0786
0
VERTEX
8
CUT
10
295.8728
20
168.5978
0
VERTEX
8
CUT
10
296.8408
20
158.0921
0
VERTEX
8
CUT
10
297.0459
20
152.0217
0
VERTEX
8
CUT
10
297.0163
20
144.0406
0
VERTEX
8
CUT
10
296.5178
20
136.9739
0
VERTEX
8
CUT
10
295.4339
20
128.1257
0
VERTEX
8
CUT
10
293.7272
20
119.2971
0
VERTEX
8
CUT
10
291.4674
20
110.5543
0
VERTEX
8
CUT
10
288.6587
20
101.9234
0
VERTEX
8
CUT
10
285.2465
20
93.3631
0
VERTEX
8
CUT
10
281.3146
20
84.9435
0
VERTEX
8
CUT
10
276.8378
20
76.6921
0
VERTEX
8
CUT
10
271.7803
20
68.5763
0
VERTEX
8
CUT
10
266.7763
20
61.4362
0
VERTEX
8
CUT
10
261.5118
20
54.6719
0
VERTEX
8
CUT
10
255.9820
20
48.3522
0
VERTEX
8
CUT
10
250.1273
20
42.3799
0
VERTEX
8
CUT
10
244.0126
20
36.8211
0
VERTEX
8
CUT
10
237.5876
20
31.6274
0
VERTEX
8
CUT
10
230.7616
20
26.7432
0
VERTEX
8
CUT
10
223.6219
20
22.2370
0
VERTEX
8
CUT
10
216.9344
20
18.4527
0
VERTEX
8
CUT
10
210.1558
20
15.1068
0
VERTEX
8
CUT
10
203.2408
20
12.1056
0
VERTEX
8
CUT
10
196.2004
20
9.5246
0
VERTEX
8
CUT
10
189.0402
20
7.2951
0
VERTEX
8
CUT
10
181.7048
20
5.4471
0
VERTEX
8
CUT
10
174.1669
20
3.9811
0
VERTEX
8
CUT
10
166.4441
20
2.8402
0
VERTEX
8
CUT
10
161.3231
20
2.5151
0
VERTEX
8
CUT
10
142.5456
20
2.2220
0
VERTEX
8
CUT
10
133.0788
20
3.0426
0
VERTEX
8
CUT
10
125.9236
20
4.0393
0
VERTEX
8
CUT
10
119.0265
20
5.3888
0
VERTEX
8
CUT
10
112.2800
20
7.0310
0
VERTEX
8
CUT
10
105.6278
20
9.0617
0
VERTEX
8
CUT
10
99.0852
20
11.4094
0
VERTEX
8
CUT
10
92.5714
20
14.1093
0
VERTEX
8
CUT
10
86.0482
20
17.2100
0
VERTEX
8
CUT
10
75.3737
20
23.1329
0
VERTEX
8
CUT
10
65.2539
20
29.8697
0
VERTEX
8
CUT
10
55.7786
20
37.3812
0
VERTEX
8
CUT
10
46.9427
20
45.6320
0
VERTEX
8
CUT
10
38.7557
20
54.6679
0
VERTEX
8
CUT
10
31.1968
20
64.4328
0
VERTEX
8
CUT
10
24.3629
20
74.9058
0
VERTEX
8
CUT
10
18.2754
20
86.0272
0
VERTEX
8
CUT
10
16.1595
20
90.4633
0
VERTEX
8
CUT
10
14.1294
20
95.1122
0
VERTEX
8
CUT
10
10.4974
20
104.6901
0
VERTEX
8
CUT
10
7.5925
20
114.1072
0
VERTEX
8
CUT
10
5.6814
20
122.6325
0
VERTEX
8
CUT
10
4.1264
20
132.3481
0
VERTEX
8
CUT
10
3.3649
20
144.3081
0
VERTEX
8
CUT
10
3.4438
20
144.7585
0
VERTEX
8
CUT
10
4.3334
20
146.2723
0
VERTEX
8
CUT
10
5.2664
20
147.3163
0
VERTEX
8
CUT
10
5.1817
20
147.6780
0
VERTEX
8
CUT
10
4.6424
20
147.8459
0
VERTEX
8
CUT
10
4.4789
20
148.2246
0
VERTEX
8
CUT
10
4.6299
20
149.0839
0
VERTEX
8
CUT
10
5.1719
20
150.1655
0
VERTEX
8
CUT
10
5.6466
20
150.6267
0
VERTEX
8
CUT
10
6.1718
20
150.7653
0
VERTEX
8
CUT
10
6.6516
20
150.5293
0
VERTEX
8
CUT
10
7.0283
20
149.9864
0
VERTEX
8
CUT
10
7.4856
20
149.9260
0
VERTEX
8
CUT
10
8.0816
20
150.2707
0
VERTEX
8
CUT
10
8.3883
20
150.9975
0
VERTEX
8
CUT
10
7.0118
20
152.6707
0
VERTEX
8
CUT
10
5.7631
20
152.7583
0
VERTEX
8
CUT
10
5.2639
20
154.6355
0
VERTEX
8
CUT
10
4.4150
20
155.2626
0
VERTEX
8
CUT
10
3.9852
20
155.1897
0
SEQEND
0
POLYLINE
8
CUT
66
1
70
1
0
VERTEX
8
CUT
10
149.9265
20
62.3329
0
VERTEX
8
CUT
10
149.5215
20
62.4830
0
VERTEX
8
CUT
10
149.2346
20
62.2048
0
VERTEX
8
CUT
10
148.5345
20
57.9888
0
VERTEX
8
CUT
10
146.4292
20
48.3984
0
VERTEX
8
CUT
10
146.0213
20
45.0292
0
VERTEX
8
CUT
10
145.9913
20
42.4859
0
VERTEX
8
CUT
10
146.2514
20
38.1007
0
VERTEX
8
CUT
10
146.8067
20
35.5854
0
VERTEX
8
CUT
10
148.7475
20
30.9824
0
VERTEX
8
CUT
10
149.6707
20
29.4249
0
VERTEX
8
CUT
10
150.1050
20
29.1554
0
VERTEX
8
CUT
10
150.6308
20
29.6549
0
VERTEX
8
CUT
10
151.3994
20
31.1023
0
VERTEX
8
CUT
10
153.0258
20
35.2045
0
VERTEX
8
CUT
10
153.9191
20
39.5268
0
VERTEX
8
CUT
10
154.0673
20
44.1544
0
VERTEX
8
CUT
10
153.8612
20
46.6006
0
VERTEX
8
CUT
10
153.0753
20
50.8469
0
VERTEX
8
CUT
10
149.9265
20
62.3329
0
SEQEND
0
POLYLINE
8
CUT
66
1
70
1
0
VERTEX
8
CUT
10
116.7301
20
48.1736
0
VERTEX
8
CUT
10
116.5186
20
48.5540
0
VERTEX
8
CUT
10
116.0587
20
48.4751
0
VERTEX
8
CUT
10
114.8108
20
46.1978
0
VERTEX
8
CUT
10
113.5927
20
44.5362
0
VERTEX
8
CUT
10
110.9944
20
41.7336
0
VERTEX
8
CUT
10
108.1405
20
39.3719
0
VERTEX
8
CUT
10
108.2610
20
39.0583
0
VERTEX
8
CUT
10
108.7814
20
38.8735
0
VERTEX
8
CUT
10
108.9833
20
38.5174
0
VERTEX
8
CUT
10
108.8151
20
33.5954
0
VERTEX
8
CUT
10
109.0491
20
31.7828
0
VERTEX
8
CUT
10
109.6033
20
30.3165
0
VERTEX
8
CUT
10
110.6027
20
28.8266
0
VERTEX
8
CUT
10
112.0725
20
27.2717
0
VERTEX
8
CUT
10
113.6745
20
26.1617
0
VERTEX
8
CUT
10
115.5102
20
25.3914
0
VERTEX
8
CUT
10
118.8183
20
24.8775
0
VERTEX
8
CUT
10
122.7949
20
25.0844
0
VERTEX
8
CUT
10
126.4008
20
26.2876
0
VERTEX
8
CUT
10
130.2000
20
28.5175
0
VERTEX
8
CUT
10
132.0014
20
29.9937
0
VERTEX
8
CUT
10
135.1947
20
33.4818
0
VERTEX
8
CUT
10
137.9428
20
37.7636
0
VERTEX
8
CUT
10
139.9504
20
42.0390
0
VERTEX
8
CUT
10
139.8188
20
42.4568
0
VERTEX
8
CUT
10
139.3820
20
42.4889
0
VERTEX
8
CUT
10
136.2890
20
39.7221
0
VERTEX
8
CUT
10
134.3107
20
38.3315
0
VERTEX
8
CUT
10
132.2658
20
37.2607
0
VERTEX
8
CUT
10
130.2229
20
36.4877
0
VERTEX
8
CUT
10
128.1191
20
36.0008
0
VERTEX
8
CUT
10
126.0615
20
35.8858
0
VERTEX
8
CUT
10
124.0104
20
36.0687
0
VERTEX
8
CUT
10
121.3687
20
36.8610
0
VERTEX
8
CUT
10
119.8898
20
37.7897
0
VERTEX
8
CUT
10
118.4620
20
39.0349
0
VERTEX
8
CUT
10
116.9273
20
41.0124
0
VERTEX
8
CUT
10
116.3984
20
42.7199
0
VERTEX
8
CUT
10
116.2160
20
44.8130
0
VERTEX
8
CUT
10
116.3621
20
46.8856
0
VERTEX
8
CUT
10
116.7301
20
48.1736
0
SEQEND
0
POLYLINE
8
CUT
66
1
70
1
0
VERTEX
8
CUT
10
150.6275
20
140.0343
0
VERTEX
8
CUT
10
150.1431
20
139.4957
0
VERTEX
8
CUT
10
149.0045
20
139.3682
0
VERTEX
8
CUT
10
144.3107
20
141.1694
0
VERTEX
8
CUT
10
139.1122
20
143.9508
0
VERTEX
8
CUT
10
137.6294
20
145.3451
0
VERTEX
8
CUT
10
137.2656
20
146.2088
0
VERTEX
8
CUT
10
137.9847
20
146.7907
0
VERTEX
8
CUT
10
142.2790
20
148.2954
0
VERTEX
8
CUT
10
144.5748
20
149.7978
0
VERTEX
8
CUT
10
145.6715
20
150.8043
0
VERTEX
8
CUT
10
147.7697
20
153.4212
0
VERTEX
8
CUT
10
152.6936
20
160.9230
0
VERTEX
8
CUT
10
154.4783
20
163.2130
0
VERTEX
8
CUT
10
157.9389
20
166.7269
0
VERTEX
8
CUT
10
159.7176
20
168.0577
0
VERTEX
8
CUT
10
162.7701
20
169.7093
0
VERTEX
8
CUT
10
162.9282
20
170.0719
0
VERTEX
8
CUT
10
162.6526
20
170.3987
0
VERTEX
8
CUT
10
159.4729
20
171.1528
0
VERTEX
8
CUT
10
157.6598
20
171.9226
0
VERTEX
8
CUT
10
154.1640
20
174.0516
0
VERTEX
8
CUT
10
150.9723
20
176.8852
0
VERTEX
8
CUT
10
148.2241
20
180.3380
0
VERTEX
8
CUT
10
146.6197
20
183.1855
0
VERTEX
8
CUT
10
145.2914
20
186.6357
0
VERTEX
8
CUT
10
143.6459
20
192.3339
0
VERTEX
8
CUT
10
141.6265
20
198.1279
0
VERTEX
8
CUT
10
141.3540
20
199.7493
0
VERTEX
8
CUT
10
141.4730
20
200.3558
0
VERTEX
8
CUT
10
141.8296
20
200.6702
0
VERTEX
8
CUT
10
142.3336
20
200.6845
0
VERTEX
8
CUT
10
145.8211
20
199.3966
0
VERTEX
8
CUT
10
149.0304
20
198.9314
0
VERTEX
8
CUT
10
153.0331
20
199.3077
0
VERTEX
8
CUT
10
158.8650
20
200.4501
0
VERTEX
8
CUT
10
163.0079
20
201.0088
0
VERTEX
8
CUT
10
167.0051
20
201.1863
0
VERTEX
8
CUT
10
170.4901
20
200.9776
0
VERTEX
8
CUT
10
175.2223
20
199.8313
0
VERTEX
8
CUT
10
178.2678
20
198.5616
0
VERTEX
8
CUT
10
181.1014
20
196.9689
0
VERTEX
8
CUT
10
184.4452
20
194.4181
0
VERTEX
8
CUT
10
184.8051
20
194.3780
0
VERTEX
8
CUT
10
185.0530
20
194.7256
0
VERTEX
8
CUT
10
184.6830
20
200.1111
0
VERTEX
8
CUT
10
184.8292
20
202.5420
0
VERTEX
8
CUT
10
185.5518
20
205.2552
0
VERTEX
8
CUT
10
186.9188
20
208.2180
0
VERTEX
8
CUT
10
188.8809
20
210.9999
0
VERTEX
8
CUT
10
190.1402
20
212.3804
0
VERTEX
8
CUT
10
197.4580
20
219.0539
0
VERTEX
8
CUT
10
201.4577
20
223.4628
0
VERTEX
8
CUT
10
202.2387
20
224.0628
0
VERTEX
8
CUT
10
202.6649
20
224.1248
0
VERTEX
8
CUT
10
203.3802
20
223.5303
0
VERTEX
8
CUT
10
204.8481
20
220.1880
0
VERTEX
8
CUT
10
206.1618
20
218.1447
0
VERTEX
8
CUT
10
208.3726
20
215.5863
0
VERTEX
8
CUT
10
216.1957
20
207.6451
0
VERTEX
8
CUT
10
217.6575
20
205.9204
0
VERTEX
8
CUT
10
218.6574
20
204.4049
0
VERTEX
8
CUT
10
220.2977
20
200.9192
0
VERTEX
8
CUT
10
221.1337
20
198.2637
0
VERTEX
8
CUT
10
221.6356
20
195.5675
0
VERTEX
8
CUT
10
221.8606
20
190.6760
0
VERTEX
8
CUT
10
222.0757
20
190.3866
0
VERTEX
8
CUT
10
222.4977
20
190.4399
0
VERTEX
8
CUT
10
225.9429
20
193.6029
0
VERTEX
8
CUT
10
227.6628
20
194.8379
0
VERTEX
8
CUT
10
230.5304
20
196.1957
0
VERTEX
8
CUT
10
234.3207
20
197.2831
0
VERTEX
8
CUT
10
237.1954
20
197.5830
0
VERTEX
8
CUT
10
240.4130
20
197.5245
0
VERTEX
8
CUT
10
248.3562
20
196.6167
0
VERTEX
8
CUT
10
251.4229
20
196.5571
0
VERTEX
8
CUT
10
253.9386
20
196.9667
0
VERTEX
8
CUT
10
257.7088
20
198.3689
0
VERTEX
8
CUT
10
258.1998
20
198.4290
0
VERTEX
8
CUT
10
258.6170
20
198.2408
0
VERTEX
8
CUT
10
258.8413
20
197.3757
0
VERTEX
8
CUT
10
258.2863
20
192.6492
0
VERTEX
8
CUT
10
257.6707
20
180.9546
0
VERTEX
8
CUT
10
256.8004
20
176.9783
0
VERTEX
8
CUT
10
254.7790
20
172.8766
0
VERTEX
8
CUT
10
252.1450
20
169.7592
0
VERTEX
8
CUT
10
249.0652
20
167.3832
0
VERTEX
8
CUT
10
247.4926
20
166.5642
0
VERTEX
8
CUT
10
245.6051
20
166.0691
0
VERTEX
8
CUT
10
245.3878
20
165.5987
0
VERTEX
8
CUT
10
250.8183
20
162.7555
0
VERTEX
8
CUT
10
253.0337
20
161.1924
0
VERTEX
8
CUT
10
255.1261
20
159.3993
0
VERTEX
8
CUT
10
258.8455
20
155.3285
0
VERTEX
8
CUT
10
260.4598
20
152.9976
0
VERTEX
8
CUT
10
262.1616
20
149.9158
0
VERTEX
8
CUT
10
263.7800
20
146.1495
0
VERTEX
8
CUT
10
267.1526
20
137.1784
0
VERTEX
8
CUT
10
268.9013
20
134.0543
0
VERTEX
8
CUT
10
270.8692
20
131.7050
0
VERTEX
8
CUT
10
271.9371
20
130.7263
0
VERTEX
8
CUT
10
274.1418
20
129.2555
0
VERTEX
8
CUT
10
276.6015
20
128.1548
0
VERTEX
8
CUT
10
277.0033
20
127.6067
0
VERTEX
8
CUT
10
276.9282
20
127.1478
0
VERTEX
8
CUT
10
276.5359
20
126.6242
0
VERTEX
8
CUT
10
273.8444
20
125.0736
0
VERTEX
8
CUT
10
266.3999
20
122.6411
0
VERTEX
8
CUT
10
262.0809
20
121.7245
0
VERTEX
8
CUT
10
258.4105
20
121.3725
0
VERTEX
8
CUT
10
255.1275
20
121.6364
0
VERTEX
8
CUT
10
252.5827
20
122.2055
0
VERTEX
8
CUT
10
248.6697
20
123.7711
0
VERTEX
8
CUT
10
248.2589
20
123.6276
0
VERTEX
8
CUT
10
248.2919
20
122.1550
0
VERTEX
8
CUT
10
249.0282
20
117.6072
0
VERTEX
8
CUT
10
249.0856
20
114.0281
0
VERTEX
8
CUT
10
248.5841
20
109.9649
0
VERTEX
8
CUT
10
246.5666
20
100.6392
0
VERTEX
8
CUT
10
246.3047
20
97.8655
0
VERTEX
8
CUT
10
246.6836
20
94.1882
0
VERTEX
8
CUT
10
247.8550
20
90.3136
0
VERTEX
8
CUT
10
247.7426
20
89.8410
0
VERTEX
8
CUT
10
247.3813
20
89.4761
0
VERTEX
8
CUT
10
245.8137
20
89.7071
0
VERTEX
8
CUT
10
233.8276
20
92.9013
0
VERTEX
8
CUT
10
229.6381
20
94.4926
0
VERTEX
8
CUT
10
227.2119
20
95.9395
0
VERTEX
8
CUT
10
225.0182
20
97.7144
0
VERTEX
8
CUT
10
223.2215
20
99.5700
0
VERTEX
8
CUT
10
221.3882
20
101.9443
0
VERTEX
8
CUT
10
220.9933
20
102.0506
0
VERTEX
8
CUT
10
220.7421
20
101.8209
0
VERTEX
8
CUT
10
218.9562
20
96.5467
0
VERTEX
8
CUT
10
217.0796
20
92.9173
0
VERTEX
8
CUT
10
215.4130
20
90.7246
0
VERTEX
8
CUT
10
208.9989
20
83.3441
0
VERTEX
8
CUT
10
206.8160
20
80.1442
0
VERTEX
8
CUT
10
205.3636
20
77.3945
0
VERTEX
8
CUT
10
204.8468
20
76.9369
0
VERTEX
8
CUT
10
204.4961
20
76.8707
0
VERTEX
8
CUT
10
203.8765
20
77.2583
0
VERTEX
8
CUT
10
201.5410
20
80.9964
0
VERTEX
8
CUT
10
199.9114
20
83.1215
0
VERTEX
8
CUT
10
194.9846
20
88.6650
0
VERTEX
8
CUT
10
191.8048
20
92.5832
0
VERTEX
8
CUT
10
189.6219
20
96.1268
0
VERTEX
8
CUT
10
188.1276
20
99.6134
0
VERTEX
8
CUT
10
187.4547
20
101.9836
0
VERTEX
8
CUT
10
187.1417
20
102.3572
0
VERTEX
8
CUT
10
186.7544
20
102.2582
0
VERTEX
8
CUT
10
185.0373
20
100.0135
0
VERTEX
8
CUT
10
182.7592
20
97.7980
0
VERTEX
8
CUT
10
180.0398
20
95.8495
0
VERTEX
8
CUT
10
177.0519
20
94.3134
0
VERTEX
8
CUT
10
174.3549
20
93.3970
0
VERTEX
8
CUT
10
166.9143
20
91.9616
0
VERTEX
8
CUT
10
159.8458
20
90.2089
0
VERTEX
8
CUT
10
158.3391
20
90.0544
0
VERTEX
8
CUT
10
157.7891
20
90.2641
0
VERTEX
8
CUT
10
157.5537
20
90.6834
0
VERTEX
8
CUT
10
157.7364
20
91.6950
0
VERTEX
8
CUT
10
159.0989
20
94.5192
0
VERTEX
8
CUT
10
160.4516
20
98.3493
0
VERTEX
8
CUT
10
160.4834
20
114.7019
0
VERTEX
8
CUT
10
160.6594
20
119.3373
0
VERTEX
8
CUT
10
162.1866
20
127.1898
0
VERTEX
8
CUT
10
162.8756
20
128.8356
0
VERTEX
8
CUT
10
163.8726
20
129.7053
0
VERTEX
8
CUT
10
165.6920
20
130.1963
0
VERTEX
8
CUT
10
170.2155
20
130.9602
0
VERTEX
8
CUT
10
170.7719
20
130.5291
0
VERTEX
8
CUT
10
170.4769
20
128.8835
0
VERTEX
8
CUT
10
168.5480
20
122.6318
0
VERTEX
8
CUT
10
167.9332
20
118.6810
0
VERTEX
8
CUT
10
167.8465
20
114.5395
0
VERTEX
8
CUT
10
168.5791
20
106.4697
0
VERTEX
8
CUT
10
168.5551
20
101.6327
0
VERTEX
8
CUT
10
168.9471
20
101.4620
0
VERTEX
8
CUT
10
173.8798
20
102.8002
0
VERTEX
8
CUT
10
177.6808
20
104.0768
0
VERTEX
8
CUT
10
179.4070
20
104.9658
0
VERTEX
8
CUT
10
181.8614
20
106.8346
0
VERTEX
8
CUT
10
183.9341
20
108.9650
0
VERTEX
8
CUT
10
186.0409
20
111.8713
0
VERTEX
8
CUT
10
186.6138
20
113.6913
0
VERTEX
8
CUT
10
186.3864
20
114.2861
0
VERTEX
8
CUT
10
184.1615
20
117.2756
0
VERTEX
8
CUT
10
183.1842
20
119.0508
0
VERTEX
8
CUT
10
181.9161
20
121.9977
0
VERTEX
8
CUT
10
181.2363
20
124.2098
0
VERTEX
8
CUT
10
181.0206
20
126.5255
0
VERTEX
8
CUT
10
181.0208
20
130.7927
0
VERTEX
8
CUT
10
181.1666
20
133.2172
0
VERTEX
8
CUT
10
181.5671
20
134.6768
0
VERTEX
8
CUT
10
181.9788
20
135.1550
0
VERTEX
8
CUT
10
182.9348
20
135.5302
0
VERTEX
8
CUT
10
185.8361
20
135.3910
0
VERTEX
8
CUT
10
185.9152
20
135.8861
0
VERTEX
8
CUT
10
184.8113
20
136.8980
0
VERTEX
8
CUT
10
184.4306
20
137.7713
0
VERTEX
8
CUT
10
184.3939
20
138.6719
0
VERTEX
8
CUT
10
184.7896
20
139.4701
0
VERTEX
8
CUT
10
185.9199
20
140.1243
0
VERTEX
8
CUT
10
192.2907
20
142.3173
0
VERTEX
8
CUT
10
194.8208
20
143.6692
0
VERTEX
8
CUT
10
196.9094
20
145.0517
0
VERTEX
8
CUT
10
198.7919
20
146.5889
0
VERTEX
8
CUT
10
200.3064
20
148.2464
0
VERTEX
8
CUT
10
201.6077
20
150.1235
0
VERTEX
8
CUT
10
203.0830
20
152.8349
0
VERTEX
8
CUT
10
203.8078
20
153.5084
0
VERTEX
8
CUT
10
204.6560
20
153.5781
0
VERTEX
8
CUT
10
205.2412
20
153.3540
0
VERTEX
8
CUT
10
205.4053
20
152.9192
0
VERTEX
8
CUT
10
205.3113
20
151.8261
0
VERTEX
8
CUT
10
203.8285
20
148.4961
0
VERTEX
8
CUT
10
202.0894
20
146.0109
0
VERTEX
8
CUT
10
198.5403
20
143.0551
0
VERTEX
8
CUT
10
191.9482
20
139.1199
0
VERTEX
8
CUT
10
189.2403
20
136.5432
0
VERTEX
8
CUT
10
187.8186
20
135.8327
0
VERTEX
8
CUT
10
186.9019
20
135.6853
0
VERTEX
8
CUT
10
186.6896
20
135.3390
0
VERTEX
8
CUT
10
186.8668
20
135.0113
0
VERTEX
8
CUT
10
187.7442
20
134.6872
0
VERTEX
8
CUT
10
188.0278
20
134.3960
0
VERTEX
8
CUT
10
188.0622
20
129.4656
0
VERTEX
8
CUT
10
188.2098
20
127.8325
0
VERTEX
8
CUT
10
188.8789
20
124.8198
0
VERTEX
8
CUT
10
189.9249
20
122.1557
0
VERTEX
8
CUT
10
191.9852
20
118.9185
0
VERTEX
8
CUT
10
192.4250
20
110.2132
0
VERTEX
8
CUT
10
192.7704
20
108.2808
0
VERTEX
8
CUT
10
193.4450
20
106.0838
0
VERTEX
8
CUT
10
194.6958
20
103.2087
0
VERTEX
8
CUT
10
196.4078
20
100.4258
0
VERTEX
8
CUT
10
204.1555
20
90.9390
0
VERTEX
8
CUT
10
204.6095
20
91.0548
0
VERTEX
8
CUT
10
206.9283
20
94.3988
0
VERTEX
8
CUT
10
211.8091
20
100.4473
0
VERTEX
8
CUT
10
213.8993
20
104.4175
0
VERTEX
8
CUT
10
214.8678
20
107.4365
0
VERTEX
8
CUT
10
215.3855
20
110.2252
0
VERTEX
8
CUT
10
215.6195
20
119.4605
0
VERTEX
8
CUT
10
219.8822
20
122.3007
0
VERTEX
8
CUT
10
222.0320
20
124.4769
0
VERTEX
8
CUT
10
223.8209
20
127.0211
0
VERTEX
8
CUT
10
225.1542
20
129.8033
0
VERTEX
8
CUT
10
226.0529
20
132.7605
0
VERTEX
8
CUT
10
226.4875
20
135.8615
0
VERTEX
8
CUT
10
226.4006
20
139.0199
0
VERTEX
8
CUT
10
225.2606
20
144.6158
0
VERTEX
8
CUT
10
225.2940
20
145.3607
0
VERTEX
8
CUT
10
225.5657
20
145.8151
0
VERTEX
8
CUT
10
229.6120
20
147.4256
0
VERTEX
8
CUT
10
230.3045
20
147.1305
0
VERTEX
8
CUT
10
230.8398
20
146.2900
0
VERTEX
8
CUT
10
232.1788
20
142.4527
0
VERTEX
8
CUT
10
233.0288
20
137.9102
0
VERTEX
8
CUT
10
233.0617
20
133.2760
0
VERTEX
8
CUT
10
232.7679
20
130.9381
0
VERTEX
8
CUT
10
231.6079
20
126.2716
0
VERTEX
8
CUT
10
231.0411
20
124.8454
0
VERTEX
8
CUT
10
229.3715
20
121.9165
0
VERTEX
8
CUT
10
227.1608
20
119.0249
0
VERTEX
8
CUT
10
225.9153
20
117.7473
0
VERTEX
8
CUT
10
224.6510
20
116.5753
0
VERTEX
8
CUT
10
221.4966
20
114.2368
0
VERTEX
8
CUT
10
221.3691
20
113.3694
0
VERTEX
8
CUT
10
222.0009
20
111.6650
0
VERTEX
8
CUT
10
225.3964
20
107.4201
0
VERTEX
8
CUT
10
228.2962
20
104.9215
0
VERTEX
8
CUT
10
230.5087
20
103.6964
0
VERTEX
8
CUT
10
237.2203
20
101.2748
0
VERTEX
8
CUT
10
237.9637
20
101.0493
0
VERTEX
8
CUT
10
238.3082
20
101.1924
0
VERTEX
8
CUT
10
239.1482
20
106.7040
0
VERTEX
8
CUT
10
240.8157
20
113.3743
0
VERTEX
8
CUT
10
241.1078
20
115.6407
0
VERTEX
8
CUT
10
240.9637
20
121.4899
0
VERTEX
8
CUT
10
240.2979
20
125.3227
0
VERTEX
8
CUT
10
239.7373
20
127.1819
0
VERTEX
8
CUT
10
238.2073
20
130.7612
0
VERTEX
8
CUT
10
234.6963
20
136.7442
0
VERTEX
8
CUT
10
234.1080
20
140.7157
0
VERTEX
8
CUT
10
234.1157
20
142.8004
0
VERTEX
8
CUT
10
234.6953
20
142.6526
0
VERTEX
8
CUT
10
237.5946
20
139.9288
0
VERTEX
8
CUT
10
243.7991
20
132.9651
0
VERTEX
8
CUT
10
244.8715
20
132.0877
0
VERTEX
8
CUT
10
250.4022
20
130.3166
0
VERTEX
8
CUT
10
253.6806
20
129.8207
0
VERTEX
8
CUT
10
255.6043
20
129.8486
0
VERTEX
8
CUT
10
258.3279
20
130.1966
0
VERTEX
8
CUT
10
260.4283
20
130.6263
0
VERTEX
8
CUT
10
260.7761
20
130.8948
0
VERTEX
8
CUT
10
260.6555
20
131.3909
0
VERTEX
8
CUT
10
258.7711
20
133.8438
0
VERTEX
8
CUT
10
257.1554
20
136.9578
0
VERTEX
8
CUT
10
254.9444
20
143.5836
0
VERTEX
8
CUT
10
253.3382
20
147.6977
0
VERTEX
8
CUT
10
251.5499
20
151.0441
0
VERTEX
8
CUT
10
249.2931
20
154.0934
0
VERTEX
8
CUT
10
246.5187
20
156.9835
0
VERTEX
8
CUT
10
244.9828
20
158.2888
0
VERTEX
8
CUT
10
241.6090
20
160.5313
0
VERTEX
8
CUT
10
237.7729
20
162.3478
0
VERTEX
8
CUT
10
232.0972
20
164.1320
0
VERTEX
8
CUT
10
230.4099
20
164.8725
0
VERTEX
8
CUT
10
229.2557
20
166.1338
0
VERTEX
8
CUT
10
228.4278
20
167.6810
0
VERTEX
8
CUT
10
228.4438
20
168.1665
0
VERTEX
8
CUT
10
228.7042
20
168.3150
0
VERTEX
8
CUT
10
235.9738
20
168.5763
0
VERTEX
8
CUT
10
239.0079
20
169.2377
0
VERTEX
8
CUT
10
241.6367
20
170.4466
0
VERTEX
8
CUT
10
244.1212
20
172.2594
0
VERTEX
8
CUT
10
246.0826
20
174.4017
0
VERTEX
8
CUT
10
247.5309
20
176.9293
0
VERTEX
8
CUT
10
248.0860
20
178.4107
0
VERTEX
8
CUT
10
248.8757
20
181.8012
0
VERTEX
8
CUT
10
249.4230
20
187.8349
0
VERTEX
8
CUT
10
249.1298
20
187.9995
0
VERTEX
8
CUT
10
246.4283
20
187.9058
0
VERTEX
8
CUT
10
243.4188
20
188.0811
0
VERTEX
8
CUT
10
236.2357
20
188.9892
0
VERTEX
8
CUT
10
232.9198
20
188.6448
0
VERTEX
8
CUT
10
230.7975
20
188.0672
0
VERTEX
8
CUT
10
228.7281
20
187.2675
0
VERTEX
8
CUT
10
226.8210
20
186.2240
0
VERTEX
8
CUT
10
225.0298
20
184.9446
0
VERTEX
8
CUT
10
223.2875
20
183.4088
0
VERTEX
8
CUT
10
221.7177
20
181.6963
0
VERTEX
8
CUT
10
218.7451
20
177.7562
0
VERTEX
8
CUT
10
218.1053
20
177.3304
0
VERTEX
8
CUT
10
217.1040
20
177.6195
0
VERTEX
8
CUT
10
215.7409
20
178.3037
0
VERTEX
8
CUT
10
215.1848
20
178.9936
0
VERTEX
8
CUT
10
216.3493
20
183.7597
0
VERTEX
8
CUT
10
216.5561
20
187.3944
0
VERTEX
8
CUT
10
216.4100
20
189.2779
0
VERTEX
8
CUT
10
215.6915
20
192.9291
0
VERTEX
8
CUT
10
214.3304
20
196.2981
0
VERTEX
8
CUT
10
213.3551
20
197.8802
0
VERTEX
8
CUT
10
211.7840
20
199.7737
0
VERTEX
8
CUT
10
205.0107
20
206.4602
0
VERTEX
8
CUT
10
202.0548
20
209.9937
0
VERTEX
8
CUT
10
201.6686
20
209.8064
0
VERTEX
8
CUT
10
200.3980
20
208.1285
0
VERTEX
8
CUT
10
195.6501
20
202.9995
0
VERTEX
8
CUT
10
194.0653
20
201.0410
0
VERTEX
8
CUT
10
193.0488
20
199.1791
0
VERTEX
8
CUT
10
192.3694
20
197.3676
0
VERTEX
8
CUT
10
191.9343
20
195.4412
0
VERTEX
8
CUT
10
191.8137
20
193.3943
0
VERTEX
8
CUT
10
191.9615
20
191.3416
0
VERTEX
8
CUT
10
192.3571
20
189.3637
0
VERTEX
8
CUT
10
193.0201
20
187.3368
0
VERTEX
8
CUT
10
193.9424
20
185.3699
0
VERTEX
8
CUT
10
195.8456
20
182.3473
0
VERTEX
8
CUT
10
196.0569
20
181.5521
0
VERTEX
8
CUT
10
195.6617
20
180.9766
0
VERTEX
8
CUT
10
193.5607
20
180.6712
0
VERTEX
8
CUT
10
193.0258
20
180.8113
0
VERTEX
8
CUT
10
186.4738
20
186.5039
0
VERTEX
8
CUT
10
183.2771
20
188.8307
0
VERTEX
8
CUT
10
180.0801
20
190.5782
0
VERTEX
8
CUT
10
176.8044
20
191.8458
0
VERTEX
8
CUT
10
173.5255
20
192.5636
0
VERTEX
8
CUT
10
170.1307
20
192.7656
0
VERTEX
8
CUT
10
166.6763
20
192.4720
0
VERTEX
8
CUT
10
159.9408
20
190.9556
0
VERTEX
8
CUT
10
154.6569
20
190.5795
0
VERTEX
8
CUT
10
154.3678
20
190.4151
0
VERTEX
8
CUT
10
154.3226
20
190.0512
0
VERTEX
8
CUT
10
155.3263
20
188.0354
0
VERTEX
8
CUT
10
156.7454
20
184.4150
0
VERTEX
8
CUT
10
157.9868
20
182.0821
0
VERTEX
8
CUT
10
159.4072
20
180.0936
0
VERTEX
8
CUT
10
161.0532
20
178.2988
0
VERTEX
8
CUT
10
162.9346
20
176.7596
0
VERTEX
8
CUT
10
164.9902
20
175.4818
0
VERTEX
8
CUT
10
167.3248
20
174.4178
0
VERTEX
8
CUT
10
171.6292
20
173.2635
0
VERTEX
8
CUT
10
174.5841
20
173.0912
0
VERTEX
8
CUT
10
182.8059
20
173.5879
0
VERTEX
8
CUT
10
184.1436
20
173.3876
0
VERTEX
8
CUT
10
184.3679
20
172.5916
0
VERTEX
8
CUT
10
183.6833
20
170.3757
0
VERTEX
8
CUT
10
183.0761
20
169.7608
0
VERTEX
8
CUT
10
178.5859
20
169.0374
0
VERTEX
8
CUT
10
173.2616
20
167.4743
0
VERTEX
8
CUT
10
168.2630
20
165.0073
0
VERTEX
8
CUT
10
165.7951
20
163.1814
0
VERTEX
8
CUT
10
163.8309
20
161.2180
0
VERTEX
8
CUT
10
161.9854
20
158.7953
0
VERTEX
8
CUT
10
157.7000
20
151.4889
0
VERTEX
8
CUT
10
154.8414
20
147.7348
0
VERTEX
8
CUT
10
154.8777
20
147.2724
0
VERTEX
8
CUT
10
155.4896
20
146.9341
0
VERTEX
8
CUT
10
159.6417
20
145.6376
0
VERTEX
8
CUT
10
167.8942
20
145.0872
0
VERTEX
8
CUT
10
167.9595
20
144.6829
0
VERTEX
8
CUT
10
167.5056
20
143.7018
0
VERTEX
8
CUT
10
164.8584
20
139.3375
0
VERTEX
8
CUT
10
163.1578
20
138.7836
0
VERTEX
8
CUT
10
160.9397
20
138.4524
0
VERTEX
8
CUT
10
155.6464
20
138.4523
0
VERTEX
8
CUT
10
153.3261
20
138.7711
0
VERTEX
8
CUT
10
152.8060
20
139.1625
0
VERTEX
8
CUT
10
152.6600
20
139.7281
0
VERTEX
8
CUT
10
152.3148
20
139.9809
0
VERTEX
8
CUT
10
150.6275
20
140.0343
0
SEQEND
0
POLYLINE
8
CUT
66
1
70
1
0
VERTEX
8
CUT
10
228.0481
20
147.9821
0
VERTEX
8
CUT
10
225.6271
20
147.3916
0
VERTEX
8
CUT
10
222.2084
20
147.1534
0
VERTEX
8
CUT
10
218.7426
20
147.3634
0
VERTEX
8
CUT
10
215.7942
20
148.1129
0
VERTEX
8
CUT
10
212.9254
20
149.5181
0
VERTEX
8
CUT
10
210.3471
20
151.3812
0
VERTEX
8
CUT
10
209.1886
20
152.5088
0
VERTEX
8
CUT
10
206.8590
20
155.7139
0
VERTEX
8
CUT
10
206.2905
20
156.1762
0
VERTEX
8
CUT
10
205.6569
20
156.0708
0
VERTEX
8
CUT
10
204.4102
20
155.3371
0
VERTEX
8
CUT
10
202.3204
20
154.7190
0
VERTEX
8
CUT
10
201.0405
20
154.5067
0
VERTEX
8
CUT
10
198.4860
20
154.4482
0
VERTEX
8
CUT
10
195.8923
20
154.7838
0
VERTEX
8
CUT
10
193.4841
20
155.5486
0
VERTEX
8
CUT
10
191.2566
20
156.7066
0
VERTEX
8
CUT
10
189.2665
20
158.1623
0
VERTEX
8
CUT
10
187.6004
20
159.8881
0
VERTEX
8
CUT
10
186.2912
20
161.8516
0
VERTEX
8
CUT
10
185.3387
20
163.9657
0
VERTEX
8
CUT
10
184.8021
20
166.2315
0
VERTEX
8
CUT
10
184.7140
20
168.5773
0
VERTEX
8
CUT
10
184.9583
20
170.4325
0
VERTEX
8
CUT
10
185.8335
20
172.7963
0
VERTEX
8
CUT
10
186.7913
20
174.2271
0
VERTEX
8
CUT
10
187.9631
20
175.4867
0
VERTEX
8
CUT
10
189.1803
20
176.5189
0
VERTEX
8
CUT
10
190.6077
20
177.3793
0
VERTEX
8
CUT
10
194.5825
20
178.8520
0
VERTEX
8
CUT
10
199.6347
20
179.4764
0
VERTEX
8
CUT
10
204.7083
20
179.3017
0
VERTEX
8
CUT
10
210.5059
20
178.1268
0
VERTEX
8
CUT
10
215.2623
20
176.3869
0
VERTEX
8
CUT
10
218.7684
20
174.5617
0
VERTEX
8
CUT
10
222.0997
20
172.1526
0
VERTEX
8
CUT
10
223.6037
20
170.7946
0
VERTEX
8
CUT
10
226.2688
20
167.8367
0
VERTEX
8
CUT
10
228.4711
20
164.5335
0
VERTEX
8
CUT
10
230.3876
20
160.3699
0
VERTEX
8
CUT
10
231.0656
20
157.9500
0
VERTEX
8
CUT
10
231.5061
20
155.4247
0
VERTEX
8
CUT
10
231.7983
20
149.2321
0
VERTEX
8
CUT
10
231.6380
20
149.0632
0
VERTEX
8
CUT
10
229.1726
20
148.6781
0
VERTEX
8
CUT
10
228.0481
20
147.9821
0
SEQEND
0
POLYLINE
8
CUT
66
1
70
1
0
VERTEX
8
CUT
10
202.2373
20
163.1606
0
VERTEX
8
CUT
10
202.5994
20
163.2604
0
VERTEX
8
CUT
10
203.9497
20
164.5773
0
VERTEX
8
CUT
10
205.6143
20
165.5900
0
VERTEX
8
CUT
10
207.2734
20
166.4318
0
VERTEX
8
CUT
10
208.3030
20
166.6361
0
VERTEX
8
CUT
10
208.8684
20
165.9167
0
VERTEX
8
CUT
10
211.8463
20
160.4876
0
VERTEX
8
CUT
10
214.3012
20
160.2229
0
VERTEX
8
CUT
10
216.1876
20
159.6802
0
VERTEX
8
CUT
10
218.0472
20
158.7437
0
VERTEX
8
CUT
10
219.6449
20
157.4945
0
VERTEX
8
CUT
10
220.9817
20
156.0909
0
VERTEX
8
CUT
10
221.2835
20
156.0547
0
VERTEX
8
CUT
10
221.5362
20
156.2813
0
VERTEX
8
CUT
10
221.1572
20
161.3253
0
VERTEX
8
CUT
10
220.6984
20
164.5170
0
VERTEX
8
CUT
10
220.1105
20
166.2537
0
VERTEX
8
CUT
10
218.5014
20
169.3576
0
VERTEX
8
CUT
10
216.7332
20
171.7092
0
VERTEX
8
CUT
10
214.5976
20
173.8740
0
VERTEX
8
CUT
10
212.3048
20
175.6415
0
VERTEX
8
CUT
10
209.1886
20
177.3386
0
VERTEX
8
CUT
10
203.4089
20
176.4578
0
VERTEX
8
CUT
10
200.4278
20
175.5058
0
VERTEX
8
CUT
10
198.7902
20
174.6173
0
VERTEX
8
CUT
10
197.1744
20
173.4078
0
VERTEX
8
CUT
10
196.4576
20
172.7187
0
VERTEX
8
CUT
10
195.4395
20
171.2678
0
VERTEX
8
CUT
10
194.6849
20
168.8631
0
VERTEX
8
CUT
10
194.6882
20
166.2517
0
VERTEX
8
CUT
10
200.0503
20
164.4364
0
VERTEX
8
CUT
10
202.2373
20
163.1606
0
SEQEND
0
POLYLINE
8
CUT
66
1
70
1
0
VERTEX
8
CUT
10
30.5096
20
81.5424
0
VERTEX
8
CUT
10
29.8089
20
81.9275
0
VERTEX
8
CUT
10
29.5734
20
82.3286
0
VERTEX
8
CUT
10
29.4110
20
84.3454
0
VERTEX
8
CUT
10
30.1181
20
87.7654
0
VERTEX
8
CUT
10
31.4461
20
90.6948
0
VERTEX
8
CUT
10
33.4261
20
93.6357
0
VERTEX
8
CUT
10
36.0174
20
96.5474
0
VERTEX
8
CUT
10
39.3753
20
99.5553
0
VERTEX
8
CUT
10
43.5698
20
102.7169
0
VERTEX
8
CUT
10
48.5710
20
106.0510
0
VERTEX
8
CUT
10
54.4990
20
109.6025
0
VERTEX
8
CUT
10
71.1819
20
118.6626
0
VERTEX
8
CUT
10
72.6710
20
119.2966
0
VERTEX
8
CUT
10
73.8308
20
119.2986
0
VERTEX
8
CUT
10
76.2069
20
121.1444
0
VERTEX
8
CUT
10
76.2571
20
121.5063
0
VERTEX
8
CUT
10
75.9856
20
121.7509
0
VERTEX
8
CUT
10
74.9295
20
121.4318
0
VERTEX
8
CUT
10
74.2531
20
121.6042
0
VERTEX
8
CUT
10
73.7065
20
122.5171
0
VERTEX
8
CUT
10
74.0131
20
124.1177
0
VERTEX
8
CUT
10
75.0432
20
126.0522
0
VERTEX
8
CUT
10
76.4757
20
127.8064
0
VERTEX
8
CUT
10
78.2631
20
129.3943
0
VERTEX
8
CUT
10
78.0872
20
129.8481
0
VERTEX
8
CUT
10
76.7548
20
130.1408
0
VERTEX
8
CUT
10
76.1584
20
130.6449
0
VERTEX
8
CUT
10
76.0509
20
131.1266
0
VERTEX
8
CUT
10
76.2316
20
132.0339
0
VERTEX
8
CUT
10
76.8915
20
133.3649
0
VERTEX
8
CUT
10
77.4152
20
133.9903
0
VERTEX
8
CUT
10
80.4286
20
136.2700
0
VERTEX
8
CUT
10
80.3836
20
136.6359
0
VERTEX
8
CUT
10
79.3553
20
137.3803
0
VERTEX
8
CUT
10
79.0426
20
138.0941
0
VERTEX
8
CUT
10
79.1384
20
138.9368
0
VERTEX
8
CUT
10
79.5462
20
139.7800
0
VERTEX
8
CUT
10
81.1478
20
141.3524
0
VERTEX
8
CUT
10
84.0498
20
142.8547
0
VERTEX
8
CUT
10
83.9921
20
143.3086
0
VERTEX
8
CUT
10
82.6571
20
144.4500
0
VERTEX
8
CUT
10
82.4144
20
145.2187
0
VERTEX
8
CUT
10
83.8189
20
146.8936
0
VERTEX
8
CUT
10
84.9970
20
147.6745
0
VERTEX
8
CUT
10
86.8208
20
148.5323
0
VERTEX
8
CUT
10
86.8296
20
148.9332
0
VERTEX
8
CUT
10
86.1484
20
149.4255
0
VERTEX
8
CUT
10
85.6353
20
150.4235
0
VERTEX
8
CUT
10
85.7355
20
150.9915
0
VERTEX
8
CUT
10
86.0745
20
151.4686
0
VERTEX
8
CUT
10
87.2570
20
152.2165
0
VERTEX
8
CUT
10
89.4165
20
152.7345
0
VERTEX
8
CUT
10
89.8321
20
154.9888
0
VERTEX
8
CUT
10
90.5676
20
155.4690
0
VERTEX
8
CUT
10
91.6372
20
155.8326
0
VERTEX
8
CUT
10
93.6205
20
156.0688
0
VERTEX
8
CUT
10
95.9836
20
155.7440
0
VERTEX
8
CUT
10
98.4176
20
154.9910
0
VERTEX
8
CUT
10
99.3698
20
154.4552
0
VERTEX
8
CUT
10
99.5790
20
154.1496
0
VERTEX
8
CUT
10
99.4899
20
153.5739
0
VERTEX
8
CUT
10
98.8729
20
153.0094
0
VERTEX
8
CUT
10
95.1978
20
150.7700
0
VERTEX
8
CUT
10
95.0064
20
149.6213
0
VERTEX
8
CUT
10
94.3898
20
148.5782
0
VERTEX
8
CUT
10
94.3903
20
147.6555
0
VERTEX
8
CUT
10
93.9733
20
146.8519
0
VERTEX
8
CUT
10
92.2467
20
145.0657
0
VERTEX
8
CUT
10
90.2937
20
143.8783
0
VERTEX
8
CUT
10
90.3111
20
143.4717
0
VERTEX
8
CUT
10
90.9114
20
142.9033
0
VERTEX
8
CUT
10
90.4629
20
141.3248
0
VERTEX
8
CUT
10
89.0924
20
139.8303
0
VERTEX
8
CUT
10
87.1762
20
138.6003
0
VERTEX
8
CUT
10
87.3437
20
138.1969
0
VERTEX
8
CUT
10
88.1276
20
138.0601
0
VERTEX
8
CUT
10
89.1520
20
137.3037
0
VERTEX
8
CUT
10
90.4284
20
138.8219
0
VERTEX
8
CUT
10
90.9803
20
141.0230
0
VERTEX
8
CUT
10
93.1889
20
143.3494
0
VERTEX
8
CUT
10
95.3336
20
144.8582
0
VERTEX
8
CUT
10
95.4425
20
145.3795
0
VERTEX
8
CUT
10
95.0941
20
146.8319
0
VERTEX
8
CUT
10
95.5351
20
148.0395
0
VERTEX
8
CUT
10
97.2694
20
149.4512
0
VERTEX
8
CUT
10
98.5911
20
150.9700
0
VERTEX
8
CUT
10
100.3878
20
152.0302
0
VERTEX
8
CUT
10
102.2637
20
152.5804
0
VERTEX
8
CUT
10
102.5011
20
152.8652
0
VERTEX
8
CUT
10
102.0655
20
153.7459
0
VERTEX
8
CUT
10
100.9654
20
154.9382
0
VERTEX
8
CUT
10
98.8853
20
156.6153
0
VERTEX
8
CUT
10
97.3446
20
157.3391
0
VERTEX
8
CUT
10
93.7143
20
158.1425
0
VERTEX
8
CUT
10
92.5679
20
158.5609
0
VERTEX
8
CUT
10
86.3875
20
162.7214
0
VERTEX
8
CUT
10
84.2859
20
163.6672
0
VERTEX
8
CUT
10
83.5603
20
164.2286
0
VERTEX
8
CUT
10
83.0833
20
165.2599
0
VERTEX
8
CUT
10
83.6929
20
166.1676
0
VERTEX
8
CUT
10
84.4226
20
166.5534
0
VERTEX
8
CUT
10
86.0213
20
166.5577
0
VERTEX
8
CUT
10
87.0767
20
166.4306
0
VERTEX
8
CUT
10
89.1898
20
165.7719
0
VERTEX
8
CUT
10
91.3521
20
164.6615
0
VERTEX
8
CUT
10
93.4662
20
163.1336
0
VERTEX
8
CUT
10
93.8301
20
163.1804
0
VERTEX
8
CUT
10
93.9932
20
163.4704
0
VERTEX
8
CUT
10
93.4248
20
164.2067
0
VERTEX
8
CUT
10
90.3144
20
166.5690
0
VERTEX
8
CUT
10
88.3299
20
167.5678
0
VERTEX
8
CUT
10
87.2128
20
167.8585
0
VERTEX
8
CUT
10
86.3575
20
168.4920
0
VERTEX
8
CUT
10
84.8189
20
170.2105
0
VERTEX
8
CUT
10
81.2495
20
175.2189
0
VERTEX
8
CUT
10
80.7094
20
175.1086
0
VERTEX
8
CUT
10
80.7729
20
174.4274
0
VERTEX
8
CUT
10
83.3821
20
170.1562
0
VERTEX
8
CUT
10
83.3239
20
169.5485
0
VERTEX
8
CUT
10
82.5953
20
168.6069
0
VERTEX
8
CUT
10
81.8623
20
168.1702
0
VERTEX
8
CUT
10
81.2208
20
168.2040
0
VERTEX
8
CUT
10
80.0999
20
169.5078
0
VERTEX
8
CUT
10
77.8173
20
170.4610
0
VERTEX
8
CUT
10
77.0710
20
171.0813
0
VERTEX
8
CUT
10
76.0140
20
173.1371
0
VERTEX
8
CUT
10
75.6197
20
174.3124
0
VERTEX
8
CUT
10
75.5828
20
174.9252
0
VERTEX
8
CUT
10
75.8704
20
176.1275
0
VERTEX
8
CUT
10
75.7812
20
176.5826
0
VERTEX
8
CUT
10
75.3996
20
176.9245
0
VERTEX
8
CUT
10
74.2898
20
177.1350
0
VERTEX
8
CUT
10
73.8108
20
177.4076
0
VERTEX
8
CUT
10
73.3653
20
178.0596
0
VERTEX
8
CUT
10
73.4430
20
178.6143
0
VERTEX
8
CUT
10
74.4973
20
178.9185
0
VERTEX
8
CUT
10
75.8259
20
178.8518
0
VERTEX
8
CUT
10
76.4360
20
178.5087
0
VERTEX
8
CUT
10
77.6554
20
177.2242
0
VERTEX
8
CUT
10
80.1474
20
175.6396
0
VERTEX
8
CUT
10
80.5768
20
175.6779
0
VERTEX
8
CUT
10
80.6964
20
176.1245
0
VERTEX
8
CUT
10
76.0013
20
184.2407
0
VERTEX
8
CUT
10
74.2277
20
186.6859
0
VERTEX
8
CUT
10
71.0717
20
190.0167
0
VERTEX
8
CUT
10
70.0535
20
190.8580
0
VERTEX
8
CUT
10
67.5759
20
192.3876
0
VERTEX
8
CUT
10
57.1964
20
219.1828
0
VERTEX
8
CUT
10
56.9227
20
220.1740
0
VERTEX
8
CUT
10
57.0720
20
220.6633
0
VERTEX
8
CUT
10
57.4911
20
220.9467
0
VERTEX
8
CUT
10
58.7824
20
220.7901
0
VERTEX
8
CUT
10
61.1987
20
219.3230
0
VERTEX
8
CUT
10
63.2785
20
217.2678
0
VERTEX
8
CUT
10
65.4771
20
214.0723
0
VERTEX
8
CUT
10
66.5804
20
212.0149
0
VERTEX
8
CUT
10
68.7191
20
207.0051
0
VERTEX
8
CUT
10
72.6261
20
195.8311
0
VERTEX
8
CUT
10
72.9942
20
195.6883
0
VERTEX
8
CUT
10
73.2983
20
195.9401
0
VERTEX
8
CUT
10
73.5304
20
198.3827
0
VERTEX
8
CUT
10
73.8845
20
199.6235
0
VERTEX
8
CUT
10
74.4682
20
200.3559
0
VERTEX
8
CUT
10
75.3332
20
200.5998
0
VERTEX
8
CUT
10
76.6241
20
200.0274
0
VERTEX
8
CUT
10
77.9631
20
198.5365
0
VERTEX
8
CUT
10
79.2055
20
196.4625
0
VERTEX
8
CUT
10
80.6376
20
193.0604
0
VERTEX
8
CUT
10
81.1527
20
193.1633
0
VERTEX
8
CUT
10
81.6731
20
194.5760
0
VERTEX
8
CUT
10
82.4452
20
195.4984
0
VERTEX
8
CUT
10
83.3298
20
195.8245
0
VERTEX
8
CUT
10
84.2426
20
195.4854
0
VERTEX
8
CUT
10
85.0779
20
194.6455
0
VERTEX
8
CUT
10
85.7496
20
193.3270
0
VERTEX
8
CUT
10
86.2790
20
191.6465
0
VERTEX
8
CUT
10
86.7490
20
188.0151
0
VERTEX
8
CUT
10
87.1083
20
187.8362
0
VERTEX
8
CUT
10
88.0158
20
188.2900
0
VERTEX
8
CUT
10
88.7800
20
188.1666
0
VERTEX
8
CUT
10
89.4980
20
187.7709
0
VERTEX
8
CUT
10
90.3339
20
186.5980
0
VERTEX
8
CUT
10
91.1446
20
183.3752
0
VERTEX
8
CUT
10
91.3221
20
181.2560
0
VERTEX
8
CUT
10
91.1841
20
180.5227
0
VERTEX
8
CUT
10
90.5478
20
180.2059
0
VERTEX
8
CUT
10
89.4987
20
180.2586
0
VERTEX
8
CUT
10
88.5958
20
180.3844
0
VERTEX
8
CUT
10
87.9043
20
180.7462
0
VERTEX
8
CUT
10
84.8172
20
185.7401
0
VERTEX
8
CUT
10
82.9813
20
187.9796
0
VERTEX
8
CUT
10
81.9997
20
188.7898
0
VERTEX
8
CUT
10
80.9077
20
188.9583
0
VERTEX
8
CUT
10
79.3923
20
188.5215
0
VERTEX
8
CUT
10
78.8322
20
187.8382
0
VERTEX
8
CUT
10
78.8263
20
186.9528
0
VERTEX
8
CUT
10
79.2484
20
186.8420
0
VERTEX
8
CUT
10
80.0990
20
187.5149
0
VERTEX
8
CUT
10
80.5663
20
187.5261
0
VERTEX
8
CUT
10
81.5093
20
187.1143
0
VERTEX
8
CUT
10
83.1299
20
185.9655
0
VERTEX
8
CUT
10
84.5324
20
184.3582
0
VERTEX
8
CUT
10
85.1777
20
183.3176
0
VERTEX
8
CUT
10
87.4753
20
178.0209
0
VERTEX
8
CUT
10
87.8158
20
177.9934
0
VERTEX
8
CUT
10
88.8450
20
178.7192
0
VERTEX
8
CUT
10
89.4831
20
178.9209
0
VERTEX
8
CUT
10
90.3951
20
178.8202
0
VERTEX
8
CUT
10
91.8979
20
178.2018
0
VERTEX
8
CUT
10
94.1585
20
176.2852
0
VERTEX
8
CUT
10
96.2965
20
173.2453
0
VERTEX
8
CUT
10
96.6686
20
173.2252
0
VERTEX
8
CUT
10
98.1650
20
174.1748
0
VERTEX
8
CUT
10
98.9690
20
174.1654
0
VERTEX
8
CUT
10
100.4575
20
173.5997
0
VERTEX
8
CUT
10
101.7210
20
172.8245
0
VERTEX
8
CUT
10
103.3659
20
171.1207
0
VERTEX
8
CUT
10
105.5057
20
167.6569
0
VERTEX
8
CUT
10
105.8686
20
167.5967
0
VERTEX
8
CUT
10
106.4751
20
168.0218
0
VERTEX
8
CUT
10
107.5412
20
167.9865
0
VERTEX
8
CUT
10
108.9556
20
167.3420
0
VERTEX
8
CUT
10
110.3974
20
166.2570
0
VERTEX
8
CUT
10
111.2817
20
165.3136
0
VERTEX
8
CUT
10
112.3501
20
163.7140
0
VERTEX
8
CUT
10
114.6256
20
159.5192
0
VERTEX
8
CUT
10
118.6007
20
149.9620
0
VERTEX
8
CUT
10
120.1314
20
147.1347
0
VERTEX
8
CUT
10
123.1066
20
143.0620
0
VERTEX
8
CUT
10
124.8770
20
141.2022
0
VERTEX
8
CUT
10
129.1524
20
137.8330
0
VERTEX
8
CUT
10
138.0666
20
132.6661
0
VERTEX
8
CUT
10
138.9008
20
132.9376
0
VERTEX
8
CUT
10
140.7096
20
133.9875
0
VERTEX
8
CUT
10
141.7719
20
134.2419
0
VERTEX
8
CUT
10
144.9841
20
133.8907
0
VERTEX
8
CUT
10
149.5383
20
133.7159
0
VERTEX
8
CUT
10
157.5684
20
133.8618
0
VERTEX
8
CUT
10
161.8514
20
134.2142
0
VERTEX
8
CUT
10
171.4668
20
135.8514
0
VERTEX
8
CUT
10
182.4613
20
138.5419
0
VERTEX
8
CUT
10
183.0935
20
138.5645
0
VERTEX
8
CUT
10
183.5141
20
138.1587
0
VERTEX
8
CUT
10
183.3481
20
137.2308
0
VERTEX
8
CUT
10
181.7851
20
136.4782
0
VERTEX
8
CUT
10
174.9926
20
133.9494
0
VERTEX
8
CUT
10
168.8217
20
132.1576
0
VERTEX
8
CUT
10
160.9099
20
130.5166
0
VERTEX
8
CUT
10
152.4388
20
129.0803
0
VERTEX
8
CUT
10
145.2233
20
128.2293
0
VERTEX
8
CUT
10
141.5911
20
128.0096
0
VERTEX
8
CUT
10
140.2070
20
126.4925
0
VERTEX
8
CUT
10
136.8931
20
123.4722
0
VERTEX
8
CUT
10
134.5930
20
121.5564
0
VERTEX
8
CUT
10
132.3608
20
120.1168
0
VERTEX
8
CUT
10
130.8409
20
119.4176
0
VERTEX
8
CUT
10
127.7709
20
118.4818
0
VERTEX
8
CUT
10
124.5468
20
118.1797
0
VERTEX
8
CUT
10
121.5969
20
118.5430
0
VERTEX
8
CUT
10
118.2743
20
119.7943
0
VERTEX
8
CUT
10
115.3698
20
121.7549
0
VERTEX
8
CUT
10
112.6679
20
124.5449
0
VERTEX
8
CUT
10
107.9034
20
131.4230
0
VERTEX
8
CUT
10
104.5685
20
135.1966
0
VERTEX
8
CUT
10
104.3307
20
135.9103
0
VERTEX
8
CUT
10
104.8203
20
136.2555
0
VERTEX
8
CUT
10
106.2787
20
136.3214
0
VERTEX
8
CUT
10
108.5143
20
136.8511
0
VERTEX
8
CUT
10
111.5481
20
136.6996
0
VERTEX
8
CUT
10
112.7696
20
136.4012
0
VERTEX
8
CUT
10
113.3181
20
136.0552
0
VERTEX
8
CUT
10
115.3998
20
133.6517
0
VERTEX
8
CUT
10
115.8651
20
133.6972
0
VERTEX
8
CUT
10
115.9676
20
134.1211
0
VERTEX
8
CUT
10
113.8749
20
137.1109
0
VERTEX
8
CUT
10
112.6926
20
138.4621
0
VERTEX
8
CUT
10
111.4700
20
139.5128
0
VERTEX
8
CUT
10
110.2492
20
140.1936
0
VERTEX
8
CUT
10
109.0077
20
140.5599
0
VERTEX
8
CUT
10
107.7109
20
140.6166
0
VERTEX
8
CUT
10
106.3429
20
140.3500
0
VERTEX
8
CUT
10
104.3650
20
139.4715
0
VERTEX
8
CUT
10
102.3031
20
137.9234
0
VERTEX
8
CUT
10
90.7239
20
126.9022
0
VERTEX
8
CUT
10
85.3326
20
122.2434
0
VERTEX
8
CUT
10
82.4555
20
120.0118
0
VERTEX
8
CUT
10
55.3731
20
101.3113
0
VERTEX
8
CUT
10
44.6109
20
93.0350
0
VERTEX
8
CUT
10
33.8177
20
83.6798
0
VERTEX
8
CUT
10
31.4895
20
81.8836
0
VERTEX
8
CUT
10
30.5096
20
81.5424
0
SEQEND
0
POLYLINE
8
CUT
66
1
70
1
0
VERTEX
8
CUT
10
134.1911
20
128.8546
0
VERTEX
8
CUT
10
134.6576
20
128.7168
0
VERTEX
8
CUT
10
136.3116
20
129.6440
0
VERTEX
8
CUT
10
138.8011
20
129.4832
0
VERTEX
8
CUT
10
139.1068
20
129.9365
0
VERTEX
8
CUT
10
138.7430
20
130.3277
0
VERTEX
8
CUT
10
137.9594
20
130.6668
0
VERTEX
8
CUT
10
135.4351
20
130.4609
0
VERTEX
8
CUT
10
134.2364
20
129.8648
0
VERTEX
8
CUT
10
134.1911
20
128.8546
0
SEQEND
0
POLYLINE
8
CUT
66
1
70
1
0
VERTEX
8
CUT
10
125.9883
20
128.1630
0
VERTEX
8
CUT
10
127.3031
20
126.6321
0
VERTEX
8
CUT
10
128.2479
20
126.2792
0
VERTEX
8
CUT
10
129.3138
20
126.4359
0
VERTEX
8
CUT
10
130.2926
20
127.0173
0
VERTEX
8
CUT
10
131.0372
20
127.8546
0
VERTEX
8
CUT
10
131.5445
20
128.9959
0
VERTEX
8
CUT
10
131.4595
20
129.7454
0
VERTEX
8
CUT
10
130.8885
20
130.7257
0
VERTEX
8
CUT
10
129.8049
20
131.5882
0
VERTEX
8
CUT
10
128.6735
20
131.9082
0
VERTEX
8
CUT
10
127.3320
20
131.5816
0
VERTEX
8
CUT
10
126.7387
20
131.1531
0
VERTEX
8
CUT
10
125.9680
20
130.0249
0
VERTEX
8
CUT
10
125.7764
20
128.8529
0
VERTEX
8
CUT
10
125.9883
20
128.1630
0
SEQEND
0
POLYLINE
8
CUT
66
1
70
1
0
VERTEX
8
CUT
10
119.2917
20
130.9224
0
VERTEX
8
CUT
10
118.8952
20
130.7634
0
VERTEX
8
CUT
10
118.8822
20
130.3364
0
VERTEX
8
CUT
10
120.6220
20
128.9329
0
VERTEX
8
CUT
10
121.5582
20
126.6334
0
VERTEX
8
CUT
10
122.1023
20
126.5106
0
VERTEX
8
CUT
10
122.2783
20
126.7991
0
VERTEX
8
CUT
10
122.2920
20
129.6513
0
VERTEX
8
CUT
10
119.2917
20
130.9224
0
SEQEND
0
POLYLINE
8
CUT
66
1
70
1
0
VERTEX
8
CUT
10
89.0669
20
135.8998
0
VERTEX
8
CUT
10
88.6349
20
136.5615
0
VERTEX
8
CUT
10
88.3109
20
136.4829
0
VERTEX
8
CUT
10
86.6365
20
134.3864
0
VERTEX
8
CUT
10
84.6551
20
132.8876
0
VERTEX
8
CUT
10
84.6966
20
132.4215
0
VERTEX
8
CUT
10
85.5659
20
131.8839
0
VERTEX
8
CUT
10
85.5191
20
130.9470
0
VERTEX
8
CUT
10
84.5328
20
129.2361
0
VERTEX
8
CUT
10
82.4873
20
126.8860
0
VERTEX
8
CUT
10
82.6021
20
126.3489
0
VERTEX
8
CUT
10
82.9307
20
126.3027
0
VERTEX
8
CUT
10
83.2772
20
126.5513
0
VERTEX
8
CUT
10
86.2507
20
129.5228
0
VERTEX
8
CUT
10
86.6177
20
130.1372
0
VERTEX
8
CUT
10
86.6007
20
131.6109
0
VERTEX
8
CUT
10
86.9558
20
132.3357
0
VERTEX
8
CUT
10
88.1070
20
133.6373
0
VERTEX
8
CUT
10
89.8060
20
135.0132
0
VERTEX
8
CUT
10
89.7954
20
135.4439
0
VERTEX
8
CUT
10
89.0669
20
135.8998
0
SEQEND
0
POLYLINE
8
CUT
66
1
70
1
0
VERTEX
8
CUT
10
138.2996
20
247.3823
0
VERTEX
8
CUT
10
138.0542
20
247.6145
0
VERTEX
8
CUT
10
137.7529
20
247.5878
0
VERTEX
8
CUT
10
135.2044
20
245.3331
0
VERTEX
8
CUT
10
133.5063
20
244.2625
0
VERTEX
8
CUT
10
132.0545
20
243.6698
0
VERTEX
8
CUT
10
129.8393
20
243.3935
0
VERTEX
8
CUT
10
127.0343
20
243.4517
0
VERTEX
8
CUT
10
126.1060
20
243.6622
0
VERTEX
8
CUT
10
123.8407
20
244.8854
0
VERTEX
8
CUT
10
123.1168
20
245.4937
0
VERTEX
8
CUT
10
122.0067
20
246.8836
0
VERTEX
8
CUT
10
121.5838
20
247.6811
0
VERTEX
8
CUT
10
121.1448
20
249.3775
0
VERTEX
8
CUT
10
121.2114
20
252.0034
0
VERTEX
8
CUT
10
121.4951
20
252.7715
0
VERTEX
8
CUT
10
122.3249
20
253.6852
0
VERTEX
8
CUT
10
124.8692
20
252.2432
0
VERTEX
8
CUT
10
126.7046
20
252.2225
0
VERTEX
8
CUT
10
128.8327
20
252.5712
0
VERTEX
8
CUT
10
131.4006
20
253.9178
0
VERTEX
8
CUT
10
133.3176
20
255.4915
0
VERTEX
8
CUT
10
134.4717
20
256.7053
0
VERTEX
8
CUT
10
136.6297
20
259.7562
0
VERTEX
8
CUT
10
138.7900
20
263.8406
0
VERTEX
8
CUT
10
143.0702
20
274.2170
0
VERTEX
8
CUT
10
144.8958
20
278.1317
0
VERTEX
8
CUT
10
148.3269
20
283.8502
0
VERTEX
8
CUT
10
149.6303
20
285.5115
0
VERTEX
8
CUT
10
150.0946
20
285.7650
0
VERTEX
8
CUT
10
150.5599
20
285.4685
0
VERTEX
8
CUT
10
151.6710
20
283.9708
0
VERTEX
8
CUT
10
154.5533
20
279.1755
0
VERTEX
8
CUT
10
156.3165
20
275.4430
0
VERTEX
8
CUT
10
161.9317
20
262.2806
0
VERTEX
8
CUT
10
162.8747
20
260.5136
0
VERTEX
8
CUT
10
164.7650
20
257.7262
0
VERTEX
8
CUT
10
166.9173
20
255.4305
0
VERTEX
8
CUT
10
168.1882
20
254.3599
0
VERTEX
8
CUT
10
170.6883
20
252.8313
0
VERTEX
8
CUT
10
171.9756
20
252.3557
0
VERTEX
8
CUT
10
174.2383
20
252.1370
0
VERTEX
8
CUT
10
175.3080
20
252.3613
0
VERTEX
8
CUT
10
177.2834
20
253.1820
0
VERTEX
8
CUT
10
178.0104
20
253.1863
0
VERTEX
8
CUT
10
178.4020
20
252.9383
0
VERTEX
8
CUT
10
178.8077
20
252.2299
0
VERTEX
8
CUT
10
179.0938
20
250.7587
0
VERTEX
8
CUT
10
179.0321
20
249.7052
0
VERTEX
8
CUT
10
178.5024
20
247.7630
0
VERTEX
8
CUT
10
177.3914
20
245.9122
0
VERTEX
8
CUT
10
175.8989
20
244.5261
0
VERTEX
8
CUT
10
174.4794
20
243.7889
0
VERTEX
8
CUT
10
172.8560
20
243.3674
0
VERTEX
8
CUT
10
171.1489
20
243.2474
0
VERTEX
8
CUT
10
169.4396
20
243.4231
0
VERTEX
8
CUT
10
167.6816
20
243.9047
0
VERTEX
8
CUT
10
166.0376
20
244.6669
0
VERTEX
8
CUT
10
164.4820
20
245.6790
0
VERTEX
8
CUT
10
162.2989
20
247.8214
0
VERTEX
8
CUT
10
161.7983
20
247.8159
0
VERTEX
8
CUT
10
161.2479
20
242.2307
0
VERTEX
8
CUT
10
160.8008
20
240.3030
0
VERTEX
8
CUT
10
159.3216
20
236.5240
0
VERTEX
8
CUT
10
157.1050
20
232.8344
0
VERTEX
8
CUT
10
151.5336
20
225.5631
0
VERTEX
8
CUT
10
150.7126
20
224.5976
0
VERTEX
8
CUT
10
150.1268
20
224.2047
0
VERTEX
8
CUT
10
149.1718
20
224.9454
0
VERTEX
8
CUT
10
143.7757
20
231.7777
0
VERTEX
8
CUT
10
141.1951
20
235.6950
0
VERTEX
8
CUT
10
140.2495
20
237.5906
0
VERTEX
8
CUT
10
138.9908
20
241.3373
0
VERTEX
8
CUT
10
138.6279
20
243.3605
0
VERTEX
8
CUT
10
138.2996
20
247.3823
0
SEQEND
0
POLYLINE
8
CUT
66
1
70
1
0
VERTEX
8
CUT
10
149.8688
20
242.4977
0
VERTEX
8
CUT
10
150.3618
20
242.5462
0
VERTEX
8
CUT
10
151.2613
20
243.9580
0
VERTEX
8
CUT
10
153.5245
20
249.2172
0
VERTEX
8
CUT
10
154.3357
20
252.3575
0
VERTEX
8
CUT
10
154.6238
20
257.3918
0
VERTEX
8
CUT
10
154.2166
20
263.0207
0
VERTEX
8
CUT
10
153.5154
20
266.6154
0
VERTEX
8
CUT
10
151.7329
20
272.5737
0
VERTEX
8
CUT
10
150.5344
20
275.5794
0
VERTEX
8
CUT
10
150.2647
20
276.0489
0
VERTEX
8
CUT
10
149.9871
20
276.1629
0
VERTEX
8
CUT
10
149.4949
20
275.6679
0
VERTEX
8
CUT
10
148.5581
20
273.3011
0
VERTEX
8
CUT
10
146.6615
20
267.1463
0
VERTEX
8
CUT
10
145.5239
20
260.9713
0
VERTEX
8
CUT
10
145.3472
20
258.0561
0
VERTEX
8
CUT
10
145.6933
20
252.7131
0
VERTEX
8
CUT
10
146.2828
20
250.1165
0
VERTEX
8
CUT
10
147.0983
20
247.6759
0
VERTEX
8
CUT
10
148.1649
20
245.2832
0
VERTEX
8
CUT
10
149.8688
20
242.4977
0
SEQEND
0
POLYLINE
8
CUT
66
1
70
1
0
VERTEX
8
CUT
10
53.8966
20
53.6084
0
VERTEX
8
CUT
10
53.3104
20
53.7786
0
VERTEX
8
CUT
10
52.8154
20
54.2898
0
VERTEX
8
CUT
10
52.4682
20
55.3416
0
VERTEX
8
CUT
10
52.4074
20
59.6876
0
VERTEX
8
CUT
10
52.6512
20
62.6711
0
VERTEX
8
CUT
10
54.6037
20
67.7231
0
VERTEX
8
CUT
10
56.3393
20
70.9864
0
VERTEX
8
CUT
10
58.4420
20
74.3449
0
VERTEX
8
CUT
10
60.9817
20
77.9183
0
VERTEX
8
CUT
10
63.9749
20
81.6739
0
VERTEX
8
CUT
10
71.3948
20
89.9145
0
VERTEX
8
CUT
10
80.3014
20
98.7283
0
VERTEX
8
CUT
10
81.1900
20
99.2905
0
VERTEX
8
CUT
10
81.5131
20
99.2677
0
VERTEX
8
CUT
10
82.0427
20
98.8321
0
VERTEX
8
CUT
10
82.4226
20
98.9540
0
VERTEX
8
CUT
10
83.9738
20
101.7292
0
VERTEX
8
CUT
10
89.3956
20
108.8818
0
VERTEX
8
CUT
10
91.5077
20
112.5870
0
VERTEX
8
CUT
10
92.8752
20
115.6973
0
VERTEX
8
CUT
10
93.7230
20
120.5233
0
VERTEX
8
CUT
10
95.2360
20
125.5554
0
VERTEX
8
CUT
10
95.5968
20
127.3745
0
VERTEX
8
CUT
10
96.7538
20
130.2271
0
VERTEX
8
CUT
10
97.7344
20
132.0099
0
VERTEX
8
CUT
10
99.7812
20
132.4261
0
VERTEX
8
CUT
10
103.0360
20
133.4437
0
VERTEX
8
CUT
10
104.0025
20
133.3289
0
VERTEX
8
CUT
10
104.1544
20
132.8136
0
VERTEX
8
CUT
10
104.0593
20
132.2486
0
VERTEX
8
CUT
10
101.6512
20
126.5745
0
VERTEX
8
CUT
10
97.6426
20
113.4646
0
VERTEX
8
CUT
10
96.3903
20
110.5739
0
VERTEX
8
CUT
10
94.8280
20
107.7473
0
VERTEX
8
CUT
10
92.7993
20
104.7204
0
VERTEX
8
CUT
10
90.1603
20
101.2901
0
VERTEX
8
CUT
10
72.7020
20
80.2871
0
VERTEX
8
CUT
10
67.0541
20
72.5904
0
VERTEX
8
CUT
10
55.4268
20
55.1054
0
VERTEX
8
CUT
10
54.4608
20
53.8714
0
VERTEX
8
CUT
10
53.8966
20
53.6084
0
SEQEND
0
POLYLINE
8
CUT
66
1
70
1
0
VERTEX
8
CUT
10
53.4733
20
181.8435
0
VERTEX
8
CUT
10
49.9278
20
181.2256
0
VERTEX
8
CUT
10
46.5731
20
181.3424
0
VERTEX
8
CUT
10
44.2273
20
182.1161
0
VERTEX
8
CUT
10
41.7977
20
183.4462
0
VERTEX
8
CUT
10
39.5123
20
185.2200
0
VERTEX
8
CUT
10
37.7265
20
187.1813
0
VERTEX
8
CUT
10
35.8944
20
190.0713
0
VERTEX
8
CUT
10
34.4720
20
193.2322
0
VERTEX
8
CUT
10
33.4529
20
196.6773
0
VERTEX
8
CUT
10
32.8659
20
200.2774
0
VERTEX
8
CUT
10
32.7211
20
204.0794
0
VERTEX
8
CUT
10
33.0125
20
207.9849
0
VERTEX
8
CUT
10
33.7249
20
212.1420
0
VERTEX
8
CUT
10
34.8332
20
216.3419
0
VERTEX
8
CUT
10
36.7641
20
221.3307
0
VERTEX
8
CUT
10
39.3269
20
226.0969
0
VERTEX
8
CUT
10
42.5045
20
230.6240
0
VERTEX
8
CUT
10
46.2120
20
234.8862
0
VERTEX
8
CUT
10
50.5347
20
238.9424
0
VERTEX
8
CUT
10
55.3824
20
242.6425
0
VERTEX
8
CUT
10
60.7310
20
246.0496
0
VERTEX
8
CUT
10
66.5180
20
249.0600
0
VERTEX
8
CUT
10
69.6001
20
250.3941
0
VERTEX
8
CUT
10
76.7454
20
252.9125
0
VERTEX
8
CUT
10
83.5863
20
254.7629
0
VERTEX
8
CUT
10
88.1539
20
255.4718
0
VERTEX
8
CUT
10
89.0600
20
255.1913
0
VERTEX
8
CUT
10
89.1375
20
254.8285
0
VERTEX
8
CUT
10
88.7338
20
254.3746
0
VERTEX
8
CUT
10
82.9098
20
250.6650
0
VERTEX
8
CUT
10
80.7174
20
249.0268
0
VERTEX
8
CUT
10
77.6871
20
246.3829
0
VERTEX
8
CUT
10
74.7788
20
244.7085
0
VERTEX
8
CUT
10
68.9095
20
241.7441
0
VERTEX
8
CUT
10
62.6954
20
238.2141
0
VERTEX
8
CUT
10
59.2809
20
235.9093
0
VERTEX
8
CUT
10
56.0741
20
233.4028
0
VERTEX
8
CUT
10
52.4260
20
230.0769
0
VERTEX
8
CUT
10
49.2162
20
226.6066
0
VERTEX
8
CUT
10
46.4745
20
223.0218
0
VERTEX
8
CUT
10
44.1798
20
219.2855
0
VERTEX
8
CUT
10
42.3926
20
215.5670
0
VERTEX
8
CUT
10
41.1094
20
211.7845
0
VERTEX
8
CUT
10
40.3212
20
207.9463
0
VERTEX
8
CUT
10
40.0556
20
204.1316
0
VERTEX
8
CUT
10
40.4952
20
199.3257
0
VERTEX
8
CUT
10
41.7543
20
195.3755
0
VERTEX
8
CUT
10
42.6725
20
193.6757
0
VERTEX
8
CUT
10
43.7810
20
192.2116
0
VERTEX
8
CUT
10
44.9827
20
191.0640
0
VERTEX
8
CUT
10
46.4427
20
190.1510
0
VERTEX
8
CUT
10
47.6054
20
189.6978
0
VERTEX
8
CUT
10
48.7968
20
189.4984
0
VERTEX
8
CUT
10
50.9395
20
189.6962
0
VERTEX
8
CUT
10
52.3523
20
190.5944
0
VERTEX
8
CUT
10
52.6613
20
191.2566
0
VERTEX
8
CUT
10
52.6414
20
191.9794
0
VERTEX
8
CUT
10
51.9532
20
193.0125
0
VERTEX
8
CUT
10
51.4876
20
193.2553
0
VERTEX
8
CUT
10
50.7565
20
193.2806
0
VERTEX
8
CUT
10
50.3158
20
193.6658
0
VERTEX
8
CUT
10
50.0358
20
194.5609
0
VERTEX
8
CUT
10
50.2514
20
195.3935
0
VERTEX
8
CUT
10
50.9033
20
196.2476
0
VERTEX
8
CUT
10
52.5564
20
197.4288
0
VERTEX
8
CUT
10
54.4115
20
197.9341
0
VERTEX
8
CUT
10
54.9642
20
197.8554
0
VERTEX
8
CUT
10
55.7538
20
197.3998
0
VERTEX
8
CUT
10
56.4923
20
196.3632
0
VERTEX
8
CUT
10
58.1521
20
196.1978
0
VERTEX
8
CUT
10
58.7989
20
195.8233
0
VERTEX
8
CUT
10
59.4901
20
194.3501
0
VERTEX
8
CUT
10
59.9936
20
192.6081
0
VERTEX
8
CUT
10
60.2394
20
190.8706
0
VERTEX
8
CUT
10
60.2103
20
189.3413
0
VERTEX
8
CUT
10
59.8395
20
187.7931
0
VERTEX
8
CUT
10
59.2070
20
186.4445
0
VERTEX
8
CUT
10
57.7956
20
184.5327
0
VERTEX
8
CUT
10
56.6286
20
183.3980
0
VERTEX
8
CUT
10
55.5572
20
182.6566
0
VERTEX
8
CUT
10
53.4733
20
181.8435
0
SEQEND
0
ENDSEC
0
EOF
