0
SECTION
2
HEADER
9
$ACADVER
1
AC1009
9
$INSUNITS
70
4
0
ENDSEC
0
SECTION
2
TABLES
0
TABLE
2
LAYER
70
1
0
LAYER
2
CUT
70
0
62
7
6
CONTINUOUS
0
ENDTAB
0
ENDSEC
0
SECTION
2
ENTITIES
0
POLYLINE
8
CUT
66
1
70
1
10
0.0
20
0.0
30
0.0
0
VERTEX
8
CUT
10
0.0000
20
299.9386
0
VERTEX
8
CUT
10
0.0029
20
299.9971
0
VERTEX
8
CUT
10
0.0614
20
300.0000
0
VERTEX
8
CUT
10
299.9341
20
300.0000
0
VERTEX
8
CUT
10
299.9926
20
299.9971
0
VERTEX
8
CUT
10
299.9954
20
299.9386
0
VERTEX
8
CUT
10
299.9954
20
0.0614
0
VERTEX
8
CUT
10
299.9926
20
0.0029
0
VERTEX
8
CUT
10
299.9341
20
-0.0000
0
VERTEX
8
CUT
10
0.0614
20
-0.0000
0
VERTEX
8
CUT
10
0.0029
20
0.0029
0
VERTEX
8
CUT
10
0.0000
20
0.0614
0
SEQEND
0
POLYLINE
8
CUT
66
1
70
1
10
0.0
20
0.0
30
0.0
0
VERTEX
8
CUT
10
161.6224
20
71.7552
0
VERTEX
8
CUT
10
161.4998
20
71.5389
0
VERTEX
8
CUT
10
161.3993
20
71.3116
0
VERTEX
8
CUT
10
161.3219
20
71.0753
0
VERTEX
8
CUT
10
161.2683
20
70.8326
0
VERTEX
8
CUT
10
161.2392
20
70.5857
0
VERTEX
8
CUT
10
161.2346
20
70.3372
0
VERTEX
8
CUT
10
161.2548
20
70.0894
0
VERTEX
8
CUT
10
161.2995
20
69.8448
0
VERTEX
8
CUT
10
161.3682
20
69.6059
0
VERTEX
8
CUT
10
161.4603
20
69.3751
0
VERTEX
8
CUT
10
161.5749
20
69.1545
0
VERTEX
8
CUT
10
161.7109
20
68.9463
0
VERTEX
8
CUT
10
161.8668
20
68.7527
0
VERTEX
8
CUT
10
162.0412
20
68.5756
0
VERTEX
8
CUT
10
162.2324
20
68.4166
0
VERTEX
8
CUT
10
162.4383
20
68.2775
0
VERTEX
8
CUT
10
163.9348
20
67.3712
0
VERTEX
8
CUT
10
164.1683
20
67.2462
0
VERTEX
8
CUT
10
164.4137
20
67.1466
0
VERTEX
8
CUT
10
164.6682
20
67.0735
0
VERTEX
8
CUT
10
165.9456
20
66.7790
0
VERTEX
8
CUT
10
165.9505
20
66.7778
0
VERTEX
8
CUT
10
166.0220
20
66.7558
0
VERTEX
8
CUT
10
166.0386
20
66.7496
0
VERTEX
8
CUT
10
169.8829
20
65.2201
0
VERTEX
8
CUT
10
170.0787
20
65.1515
0
VERTEX
8
CUT
10
170.2795
20
65.0993
0
VERTEX
8
CUT
10
170.4840
20
65.0640
0
VERTEX
8
CUT
10
172.8660
20
64.7535
0
VERTEX
8
CUT
10
172.8868
20
64.7502
0
VERTEX
8
CUT
10
172.9291
20
64.7401
0
VERTEX
8
CUT
10
172.9701
20
64.7255
0
VERTEX
8
CUT
10
172.9894
20
64.7168
0
VERTEX
8
CUT
10
173.5209
20
64.4608
0
VERTEX
8
CUT
10
173.7659
20
64.3585
0
VERTEX
8
CUT
10
174.0204
20
64.2827
0
VERTEX
8
CUT
10
174.2815
20
64.2343
0
VERTEX
8
CUT
10
174.5463
20
64.2139
0
VERTEX
8
CUT
10
176.2583
20
64.1732
0
VERTEX
8
CUT
10
176.2798
20
64.1722
0
VERTEX
8
CUT
10
176.3239
20
64.1663
0
VERTEX
8
CUT
10
176.3671
20
64.1556
0
VERTEX
8
CUT
10
176.3876
20
64.1488
0
VERTEX
8
CUT
10
176.6032
20
64.0700
0
VERTEX
8
CUT
10
176.8671
20
63.9898
0
VERTEX
8
CUT
10
177.1383
20
63.9391
0
VERTEX
8
CUT
10
177.4135
20
63.9187
0
VERTEX
8
CUT
10
179.1398
20
63.8858
0
VERTEX
8
CUT
10
179.1574
20
63.8850
0
VERTEX
8
CUT
10
179.1938
20
63.8811
0
VERTEX
8
CUT
10
179.2298
20
63.8739
0
VERTEX
8
CUT
10
179.2463
20
63.8694
0
VERTEX
8
CUT
10
179.6948
20
63.7375
0
VERTEX
8
CUT
10
179.9183
20
63.6828
0
VERTEX
8
CUT
10
180.1459
20
63.6489
0
VERTEX
8
CUT
10
180.3757
20
63.6361
0
VERTEX
8
CUT
10
182.6794
20
63.6135
0
VERTEX
8
CUT
10
182.7213
20
63.6134
0
VERTEX
8
CUT
10
185.7108
20
63.6342
0
VERTEX
8
CUT
10
185.9240
20
63.6448
0
VERTEX
8
CUT
10
186.1355
20
63.6735
0
VERTEX
8
CUT
10
186.3438
20
63.7202
0
VERTEX
8
CUT
10
186.9119
20
63.8733
0
VERTEX
8
CUT
10
186.9171
20
63.8746
0
VERTEX
8
CUT
10
186.9666
20
63.8838
0
VERTEX
8
CUT
10
186.9918
20
63.8863
0
VERTEX
8
CUT
10
187.0159
20
63.8873
0
VERTEX
8
CUT
10
188.9584
20
63.9184
0
VERTEX
8
CUT
10
189.2361
20
63.9384
0
VERTEX
8
CUT
10
189.5098
20
63.9891
0
VERTEX
8
CUT
10
189.7762
20
64.0699
0
VERTEX
8
CUT
10
190.0027
20
64.1527
0
VERTEX
8
CUT
10
190.0185
20
64.1581
0
VERTEX
8
CUT
10
190.0520
20
64.1672
0
VERTEX
8
CUT
10
190.0863
20
64.1735
0
VERTEX
8
CUT
10
190.1025
20
64.1754
0
VERTEX
8
CUT
10
193.3466
20
64.4918
0
VERTEX
8
CUT
10
193.5740
20
64.5246
0
VERTEX
8
CUT
10
193.7974
20
64.5781
0
VERTEX
8
CUT
10
196.3339
20
65.3105
0
VERTEX
8
CUT
10
196.3543
20
65.3158
0
VERTEX
8
CUT
10
196.4398
20
65.3309
0
VERTEX
8
CUT
10
196.4607
20
65.3329
0
VERTEX
8
CUT
10
197.0398
20
65.3733
0
VERTEX
8
CUT
10
197.2914
20
65.4038
0
VERTEX
8
CUT
10
197.5387
20
65.4595
0
VERTEX
8
CUT
10
197.7790
20
65.5400
0
VERTEX
8
CUT
10
198.6537
20
65.8833
0
VERTEX
8
CUT
10
198.6728
20
65.8902
0
VERTEX
8
CUT
10
198.7133
20
65.9015
0
VERTEX
8
CUT
10
198.7547
20
65.9085
0
VERTEX
8
CUT
10
198.7749
20
65.9104
0
VERTEX
8
CUT
10
199.6787
20
65.9702
0
VERTEX
8
CUT
10
199.9469
20
66.0025
0
VERTEX
8
CUT
10
200.2101
20
66.0637
0
VERTEX
8
CUT
10
200.4651
20
66.1528
0
VERTEX
8
CUT
10
204.7390
20
67.9117
0
VERTEX
8
CUT
10
204.8055
20
67.9369
0
VERTEX
8
CUT
10
204.8733
20
67.9581
0
VERTEX
8
CUT
10
206.0549
20
68.2906
0
VERTEX
8
CUT
10
206.2520
20
68.3550
0
VERTEX
8
CUT
10
206.4430
20
68.4355
0
VERTEX
8
CUT
10
211.0773
20
70.6184
0
VERTEX
8
CUT
10
211.2526
20
70.7096
0
VERTEX
8
CUT
10
217.2437
20
74.1340
0
VERTEX
8
CUT
10
217.4397
20
74.2584
0
VERTEX
8
CUT
10
223.1866
20
78.2938
0
VERTEX
8
CUT
10
223.3600
20
78.4272
0
VERTEX
8
CUT
10
228.5619
20
82.8062
0
VERTEX
8
CUT
10
228.7144
20
82.9458
0
VERTEX
8
CUT
10
231.8508
20
86.0639
0
VERTEX
8
CUT
10
232.0158
20
86.2448
0
VERTEX
8
CUT
10
232.1623
20
86.4410
0
VERTEX
8
CUT
10
232.2889
20
86.6506
0
VERTEX
8
CUT
10
232.3943
20
86.8716
0
VERTEX
8
CUT
10
232.4777
20
87.1018
0
VERTEX
8
CUT
10
232.5382
20
87.3391
0
VERTEX
8
CUT
10
232.5751
20
87.5811
0
VERTEX
8
CUT
10
232.5882
20
87.8257
0
VERTEX
8
CUT
10
232.5773
20
88.0703
0
VERTEX
8
CUT
10
232.5425
20
88.3126
0
VERTEX
8
CUT
10
232.4842
20
88.5505
0
VERTEX
8
CUT
10
232.4029
20
88.7814
0
VERTEX
8
CUT
10
232.2994
20
89.0033
0
VERTEX
8
CUT
10
232.1746
20
89.2140
0
VERTEX
8
CUT
10
232.0299
20
89.4115
0
VERTEX
8
CUT
10
231.8665
20
89.5939
0
VERTEX
8
CUT
10
231.6861
20
89.7595
0
VERTEX
8
CUT
10
231.4904
20
89.9066
0
VERTEX
8
CUT
10
231.2812
20
90.0338
0
VERTEX
8
CUT
10
231.0605
20
90.1400
0
VERTEX
8
CUT
10
230.8305
20
90.2240
0
VERTEX
8
CUT
10
230.5934
20
90.2852
0
VERTEX
8
CUT
10
230.3515
20
90.3229
0
VERTEX
8
CUT
10
230.1070
20
90.3367
0
VERTEX
8
CUT
10
229.8624
20
90.3266
0
VERTEX
8
CUT
10
229.6199
20
90.2926
0
VERTEX
8
CUT
10
229.3819
20
90.2350
0
VERTEX
8
CUT
10
229.1507
20
90.1544
0
VERTEX
8
CUT
10
228.9285
20
90.0515
0
VERTEX
8
CUT
10
228.0826
20
89.6086
0
VERTEX
8
CUT
10
228.0246
20
89.5802
0
VERTEX
8
CUT
10
227.9651
20
89.5548
0
VERTEX
8
CUT
10
225.1335
20
88.4347
0
VERTEX
8
CUT
10
225.0886
20
88.4179
0
VERTEX
8
CUT
10
225.0430
20
88.4029
0
VERTEX
8
CUT
10
221.2786
20
87.2452
0
VERTEX
8
CUT
10
221.2561
20
87.2390
0
VERTEX
8
CUT
10
221.1613
20
87.2217
0
VERTEX
8
CUT
10
221.1381
20
87.2195
0
VERTEX
8
CUT
10
220.4537
20
87.1759
0
VERTEX
8
CUT
10
220.2195
20
87.1499
0
VERTEX
8
CUT
10
219.9887
20
87.1019
0
VERTEX
8
CUT
10
217.0524
20
86.3451
0
VERTEX
8
CUT
10
217.0309
20
86.3402
0
VERTEX
8
CUT
10
216.9405
20
86.3274
0
VERTEX
8
CUT
10
216.9185
20
86.3261
0
VERTEX
8
CUT
10
215.9290
20
86.2963
0
VERTEX
8
CUT
10
215.6955
20
86.2783
0
VERTEX
8
CUT
10
215.4647
20
86.2385
0
VERTEX
8
CUT
10
215.2386
20
86.1773
0
VERTEX
8
CUT
10
214.8462
20
86.0511
0
VERTEX
8
CUT
10
214.8273
20
86.0455
0
VERTEX
8
CUT
10
214.7876
20
86.0370
0
VERTEX
8
CUT
10
214.7473
20
86.0324
0
VERTEX
8
CUT
10
214.7277
20
86.0316
0
VERTEX
8
CUT
10
211.8362
20
85.9914
0
VERTEX
8
CUT
10
211.6172
20
85.9787
0
VERTEX
8
CUT
10
211.4001
20
85.9469
0
VERTEX
8
CUT
10
211.1866
20
85.8962
0
VERTEX
8
CUT
10
210.6522
20
85.7441
0
VERTEX
8
CUT
10
210.6338
20
85.7393
0
VERTEX
8
CUT
10
210.5952
20
85.7322
0
VERTEX
8
CUT
10
210.5560
20
85.7289
0
VERTEX
8
CUT
10
210.5370
20
85.7286
0
VERTEX
8
CUT
10
209.1729
20
85.7428
0
VERTEX
8
CUT
10
209.1533
20
85.7435
0
VERTEX
8
CUT
10
209.1129
20
85.7480
0
VERTEX
8
CUT
10
209.0731
20
85.7564
0
VERTEX
8
CUT
10
209.0543
20
85.7619
0
VERTEX
8
CUT
10
208.6704
20
85.8840
0
VERTEX
8
CUT
10
208.4338
20
85.9467
0
VERTEX
8
CUT
10
208.1921
20
85.9860
0
VERTEX
8
CUT
10
207.9478
20
86.0014
0
VERTEX
8
CUT
10
205.0888
20
86.0419
0
VERTEX
8
CUT
10
205.0685
20
86.0427
0
VERTEX
8
CUT
10
204.9846
20
86.0525
0
VERTEX
8
CUT
10
204.9645
20
86.0565
0
VERTEX
8
CUT
10
202.8422
20
86.5301
0
VERTEX
8
CUT
10
202.6276
20
86.5683
0
VERTEX
8
CUT
10
202.4104
20
86.5876
0
VERTEX
8
CUT
10
201.4639
20
86.6303
0
VERTEX
8
CUT
10
201.4441
20
86.6317
0
VERTEX
8
CUT
10
201.3627
20
86.6435
0
VERTEX
8
CUT
10
201.3433
20
86.6479
0
VERTEX
8
CUT
10
198.9991
20
87.2339
0
VERTEX
8
CUT
10
198.9536
20
87.2462
0
VERTEX
8
CUT
10
198.9085
20
87.2603
0
VERTEX
8
CUT
10
193.7324
20
88.9871
0
VERTEX
8
CUT
10
193.7275
20
88.9889
0
VERTEX
8
CUT
10
193.6573
20
89.0182
0
VERTEX
8
CUT
10
193.6411
20
89.0260
0
VERTEX
8
CUT
10
192.5036
20
89.6136
0
VERTEX
8
CUT
10
192.3062
20
89.7050
0
VERTEX
8
CUT
10
192.1015
20
89.7788
0
VERTEX
8
CUT
10
191.8912
20
89.8345
0
VERTEX
8
CUT
10
191.6378
20
89.8900
0
VERTEX
8
CUT
10
191.6326
20
89.8913
0
VERTEX
8
CUT
10
191.5841
20
89.9060
0
VERTEX
8
CUT
10
191.5605
20
89.9155
0
VERTEX
8
CUT
10
191.5386
20
89.9258
0
VERTEX
8
CUT
10
188.1527
20
91.6212
0
VERTEX
8
CUT
10
188.0986
20
91.6500
0
VERTEX
8
CUT
10
188.0460
20
91.6815
0
VERTEX
8
CUT
10
182.5236
20
95.1779
0
VERTEX
8
CUT
10
182.4705
20
95.2135
0
VERTEX
8
CUT
10
182.4194
20
95.2518
0
VERTEX
8
CUT
10
178.2880
20
98.5171
0
VERTEX
8
CUT
10
178.2563
20
98.5431
0
VERTEX
8
CUT
10
178.2254
20
98.5701
0
VERTEX
8
CUT
10
174.5559
20
101.8930
0
VERTEX
8
CUT
10
174.5137
20
101.9331
0
VERTEX
8
CUT
10
174.4735
20
101.9751
0
VERTEX
8
CUT
10
173.1099
20
103.4691
0
VERTEX
8
CUT
10
172.9351
20
103.6426
0
VERTEX
8
CUT
10
172.7442
20
103.7980
0
VERTEX
8
CUT
10
172.5389
20
103.9339
0
VERTEX
8
CUT
10
172.3212
20
104.0490
0
VERTEX
8
CUT
10
172.0933
20
104.1420
0
VERTEX
8
CUT
10
171.8573
20
104.2122
0
VERTEX
8
CUT
10
171.6156
20
104.2589
0
VERTEX
8
CUT
10
171.3704
20
104.2815
0
VERTEX
8
CUT
10
171.1242
20
104.2800
0
VERTEX
8
CUT
10
170.8794
20
104.2542
0
VERTEX
8
CUT
10
170.6382
20
104.2044
0
VERTEX
8
CUT
10
170.4032
20
104.1312
0
VERTEX
8
CUT
10
170.1765
20
104.0352
0
VERTEX
8
CUT
10
169.9603
20
103.9174
0
VERTEX
8
CUT
10
169.7567
20
103.7789
0
VERTEX
8
CUT
10
169.5678
20
103.6210
0
VERTEX
8
CUT
10
169.3953
20
103.4453
0
VERTEX
8
CUT
10
169.2410
20
103.2535
0
VERTEX
8
CUT
10
169.1062
20
103.0475
0
VERTEX
8
CUT
10
168.9924
20
102.8292
0
VERTEX
8
CUT
10
168.9006
20
102.6007
0
VERTEX
8
CUT
10
168.8317
20
102.3644
0
VERTEX
8
CUT
10
168.7864
20
102.1224
0
VERTEX
8
CUT
10
168.7651
20
101.8771
0
VERTEX
8
CUT
10
168.7680
20
101.6309
0
VERTEX
8
CUT
10
168.7952
20
101.3862
0
VERTEX
8
CUT
10
168.8805
20
100.8564
0
VERTEX
8
CUT
10
168.8813
20
100.8511
0
VERTEX
8
CUT
10
168.8879
20
100.7721
0
VERTEX
8
CUT
10
168.8883
20
100.7534
0
VERTEX
8
CUT
10
168.8727
20
90.8613
0
VERTEX
8
CUT
10
168.8726
20
90.8559
0
VERTEX
8
CUT
10
168.8686
20
90.8058
0
VERTEX
8
CUT
10
168.8644
20
90.7809
0
VERTEX
8
CUT
10
168.8591
20
90.7574
0
VERTEX
8
CUT
10
168.1425
20
87.9344
0
VERTEX
8
CUT
10
168.0940
20
87.6953
0
VERTEX
8
CUT
10
168.0692
20
87.4525
0
VERTEX
8
CUT
10
168.0166
20
86.4686
0
VERTEX
8
CUT
10
168.0147
20
86.4456
0
VERTEX
8
CUT
10
167.9986
20
86.3515
0
VERTEX
8
CUT
10
167.9928
20
86.3291
0
VERTEX
8
CUT
10
166.5522
20
81.4293
0
VERTEX
8
CUT
10
166.5254
20
81.3486
0
VERTEX
8
CUT
10
166.4930
20
81.2698
0
VERTEX
8
CUT
10
163.6231
20
74.9311
0
VERTEX
8
CUT
10
163.5851
20
74.8543
0
VERTEX
8
CUT
10
163.5417
20
74.7803
0
SEQEND
0
POLYLINE
8
CUT
66
1
70
1
10
0.0
20
0.0
30
0.0
0
VERTEX
8
CUT
10
128.1357
20
224.0076
0
VERTEX
8
CUT
10
128.0708
20
223.7945
0
VERTEX
8
CUT
10
128.0252
20
223.5765
0
VERTEX
8
CUT
10
127.9991
20
223.3553
0
VERTEX
8
CUT
10
127.9928
20
223.1327
0
VERTEX
8
CUT
10
128.0051
20
222.3840
0
VERTEX
8
CUT
10
128.0189
20
222.1590
0
VERTEX
8
CUT
10
128.0529
20
221.9362
0
VERTEX
8
CUT
10
128.1069
20
221.7174
0
VERTEX
8
CUT
10
128.1804
20
221.5043
0
VERTEX
8
CUT
10
128.2222
20
221.3986
0
VERTEX
8
CUT
10
128.2283
20
221.3821
0
VERTEX
8
CUT
10
128.2387
20
221.3473
0
VERTEX
8
CUT
10
128.2427
20
221.3116
0
VERTEX
8
CUT
10
128.2434
20
221.2939
0
VERTEX
8
CUT
10
128.2875
20
219.3386
0
VERTEX
8
CUT
10
128.3086
20
219.0655
0
VERTEX
8
CUT
10
128.3595
20
218.7964
0
VERTEX
8
CUT
10
128.8620
20
216.7584
0
VERTEX
8
CUT
10
128.9192
20
216.5615
0
VERTEX
8
CUT
10
129.4177
20
215.0762
0
VERTEX
8
CUT
10
129.4971
20
214.8703
0
VERTEX
8
CUT
10
129.5943
20
214.6722
0
VERTEX
8
CUT
10
131.4444
20
211.2889
0
VERTEX
8
CUT
10
131.5852
20
211.0612
0
VERTEX
8
CUT
10
131.7496
20
210.8499
0
VERTEX
8
CUT
10
133.7133
20
208.5868
0
VERTEX
8
CUT
10
133.8418
20
208.4495
0
VERTEX
8
CUT
10
133.9802
20
208.3223
0
VERTEX
8
CUT
10
136.0409
20
206.5665
0
VERTEX
8
CUT
10
136.1980
20
206.4432
0
VERTEX
8
CUT
10
136.3644
20
206.3328
0
VERTEX
8
CUT
10
138.9541
20
204.7598
0
VERTEX
8
CUT
10
139.1395
20
204.6577
0
VERTEX
8
CUT
10
139.3329
20
204.5716
0
VERTEX
8
CUT
10
141.8905
20
203.5606
0
VERTEX
8
CUT
10
142.0791
20
203.4946
0
VERTEX
8
CUT
10
142.2724
20
203.4439
0
VERTEX
8
CUT
10
144.5112
20
202.9514
0
VERTEX
8
CUT
10
144.7425
20
202.9118
0
VERTEX
8
CUT
10
144.9765
20
202.8940
0
VERTEX
8
CUT
10
146.4133
20
202.8528
0
VERTEX
8
CUT
10
146.4318
20
202.8518
0
VERTEX
8
CUT
10
146.4697
20
202.8472
0
VERTEX
8
CUT
10
146.5070
20
202.8390
0
VERTEX
8
CUT
10
146.5247
20
202.8338
0
VERTEX
8
CUT
10
146.8944
20
202.7162
0
VERTEX
8
CUT
10
147.1429
20
202.6510
0
VERTEX
8
CUT
10
147.3968
20
202.6116
0
VERTEX
8
CUT
10
147.6533
20
202.5985
0
VERTEX
8
CUT
10
150.0098
20
202.5994
0
VERTEX
8
CUT
10
150.2737
20
202.6135
0
VERTEX
8
CUT
10
150.5348
20
202.6553
0
VERTEX
8
CUT
10
150.7899
20
202.7245
0
VERTEX
8
CUT
10
151.1208
20
202.8333
0
VERTEX
8
CUT
10
151.1389
20
202.8388
0
VERTEX
8
CUT
10
151.1770
20
202.8474
0
VERTEX
8
CUT
10
151.2157
20
202.8524
0
VERTEX
8
CUT
10
151.2346
20
202.8534
0
VERTEX
8
CUT
10
152.3447
20
202.8889
0
VERTEX
8
CUT
10
152.6087
20
202.9114
0
VERTEX
8
CUT
10
152.8690
20
202.9617
0
VERTEX
8
CUT
10
157.1939
20
204.0387
0
VERTEX
8
CUT
10
157.5185
20
204.1435
0
VERTEX
8
CUT
10
165.8044
20
207.4586
0
VERTEX
8
CUT
10
165.8205
20
207.4646
0
VERTEX
8
CUT
10
165.8546
20
207.4750
0
VERTEX
8
CUT
10
165.8895
20
207.4823
0
VERTEX
8
CUT
10
165.9061
20
207.4847
0
VERTEX
8
CUT
10
166.3954
20
207.5441
0
VERTEX
8
CUT
10
166.6798
20
207.5955
0
VERTEX
8
CUT
10
166.9564
20
207.6794
0
VERTEX
8
CUT
10
168.8457
20
208.3739
0
VERTEX
8
CUT
10
168.8619
20
208.3794
0
VERTEX
8
CUT
10
168.9302
20
208.3981
0
VERTEX
8
CUT
10
168.9470
20
208.4015
0
VERTEX
8
CUT
10
173.6905
20
209.2659
0
VERTEX
8
CUT
10
173.7079
20
209.2686
0
VERTEX
8
CUT
10
173.7804
20
209.2753
0
VERTEX
8
CUT
10
173.7981
20
209.2757
0
VERTEX
8
CUT
10
179.1282
20
209.2927
0
VERTEX
8
CUT
10
179.1505
20
209.2921
0
VERTEX
8
CUT
10
179.2423
20
209.2821
0
VERTEX
8
CUT
10
179.2642
20
209.2778
0
VERTEX
8
CUT
10
181.4142
20
208.7933
0
VERTEX
8
CUT
10
181.6261
20
208.7551
0
VERTEX
8
CUT
10
181.8406
20
208.7352
0
VERTEX
8
CUT
10
182.8323
20
208.6863
0
VERTEX
8
CUT
10
182.8378
20
208.6859
0
VERTEX
8
CUT
10
182.8883
20
208.6794
0
VERTEX
8
CUT
10
182.9133
20
208.6739
0
VERTEX
8
CUT
10
182.9367
20
208.6673
0
VERTEX
8
CUT
10
186.7585
20
207.4878
0
VERTEX
8
CUT
10
186.7764
20
207.4818
0
VERTEX
8
CUT
10
186.8488
20
207.4517
0
VERTEX
8
CUT
10
186.8657
20
207.4431
0
VERTEX
8
CUT
10
191.7893
20
204.8179
0
VERTEX
8
CUT
10
191.8046
20
204.8093
0
VERTEX
8
CUT
10
191.8655
20
204.7696
0
VERTEX
8
CUT
10
191.8795
20
204.7590
0
VERTEX
8
CUT
10
193.2879
20
203.6515
0
VERTEX
8
CUT
10
193.3476
20
203.6014
0
VERTEX
8
CUT
10
193.4039
20
203.5476
0
VERTEX
8
CUT
10
195.2926
20
201.6270
0
VERTEX
8
CUT
10
195.3460
20
201.5691
0
VERTEX
8
CUT
10
195.3956
20
201.5079
0
VERTEX
8
CUT
10
197.2131
20
199.1083
0
VERTEX
8
CUT
10
197.2238
20
199.0934
0
VERTEX
8
CUT
10
197.2639
20
199.0289
0
VERTEX
8
CUT
10
197.2724
20
199.0127
0
VERTEX
8
CUT
10
198.9429
20
195.6732
0
VERTEX
8
CUT
10
198.9788
20
195.5945
0
VERTEX
8
CUT
10
199.0091
20
195.5136
0
VERTEX
8
CUT
10
199.5946
20
193.7613
0
VERTEX
8
CUT
10
199.5962
20
193.7561
0
VERTEX
8
CUT
10
199.6158
20
193.6775
0
VERTEX
8
CUT
10
199.6193
20
193.6587
0
VERTEX
8
CUT
10
200.2154
20
189.9114
0
VERTEX
8
CUT
10
200.2161
20
189.9061
0
VERTEX
8
CUT
10
200.2225
20
189.8281
0
VERTEX
8
CUT
10
200.2230
20
189.8097
0
VERTEX
8
CUT
10
200.2156
20
184.5720
0
VERTEX
8
CUT
10
200.2151
20
184.5542
0
VERTEX
8
CUT
10
200.2117
20
184.5172
0
VERTEX
8
CUT
10
200.2050
20
184.4806
0
VERTEX
8
CUT
10
200.2007
20
184.4637
0
VERTEX
8
CUT
10
200.0408
20
183.8906
0
VERTEX
8
CUT
10
199.9803
20
183.6136
0
VERTEX
8
CUT
10
199.9515
20
183.3315
0
VERTEX
8
CUT
10
199.9118
20
182.4515
0
VERTEX
8
CUT
10
199.9104
20
182.4318
0
VERTEX
8
CUT
10
199.8987
20
182.3509
0
VERTEX
8
CUT
10
199.8944
20
182.3316
0
VERTEX
8
CUT
10
199.3277
20
180.0523
0
VERTEX
8
CUT
10
199.3106
20
179.9905
0
VERTEX
8
CUT
10
199.2903
20
179.9296
0
VERTEX
8
CUT
10
198.1559
20
176.8081
0
VERTEX
8
CUT
10
198.1220
20
176.7246
0
VERTEX
8
CUT
10
198.0821
20
176.6439
0
VERTEX
8
CUT
10
196.0285
20
172.8471
0
VERTEX
8
CUT
10
195.9857
20
172.7741
0
VERTEX
8
CUT
10
195.9379
20
172.7042
0
VERTEX
8
CUT
10
192.8178
20
168.4628
0
VERTEX
8
CUT
10
192.8145
20
168.4586
0
VERTEX
8
CUT
10
192.7623
20
168.3979
0
VERTEX
8
CUT
10
192.7491
20
168.3844
0
VERTEX
8
CUT
10
185.3007
20
161.1076
0
VERTEX
8
CUT
10
185.0597
20
160.8351
0
VERTEX
8
CUT
10
184.3095
20
159.8512
0
VERTEX
8
CUT
10
184.1776
20
159.6604
0
VERTEX
8
CUT
10
184.0640
20
159.4583
0
VERTEX
8
CUT
10
183.2913
20
157.9214
0
VERTEX
8
CUT
10
183.1815
20
157.6693
0
VERTEX
8
CUT
10
183.1001
20
157.4067
0
VERTEX
8
CUT
10
183.0480
20
157.1368
0
VERTEX
8
CUT
10
183.0258
20
156.8627
0
VERTEX
8
CUT
10
182.9968
20
155.7327
0
VERTEX
8
CUT
10
183.0002
20
155.5226
0
VERTEX
8
CUT
10
183.0213
20
155.3135
0
VERTEX
8
CUT
10
183.0598
20
155.1069
0
VERTEX
8
CUT
10
183.2113
20
154.4500
0
VERTEX
8
CUT
10
183.2864
20
154.1896
0
VERTEX
8
CUT
10
183.3892
20
153.9389
0
VERTEX
8
CUT
10
183.5186
20
153.7008
0
VERTEX
8
CUT
10
183.6215
20
153.5336
0
VERTEX
8
CUT
10
183.7368
20
153.3625
0
VERTEX
8
CUT
10
183.8658
20
153.2016
0
VERTEX
8
CUT
10
184.0077
20
153.0518
0
VERTEX
8
CUT
10
185.0437
20
152.0446
0
VERTEX
8
CUT
10
185.2267
20
151.8834
0
VERTEX
8
CUT
10
185.4245
20
151.7407
0
VERTEX
8
CUT
10
185.6352
20
151.6180
0
VERTEX
8
CUT
10
185.8570
20
151.5163
0
VERTEX
8
CUT
10
187.9180
20
150.6910
0
VERTEX
8
CUT
10
188.1839
20
150.6015
0
VERTEX
8
CUT
10
188.4581
20
150.5423
0
VERTEX
8
CUT
10
188.7373
20
150.5143
0
VERTEX
8
CUT
10
189.4672
20
150.4821
0
VERTEX
8
CUT
10
189.4859
20
150.4809
0
VERTEX
8
CUT
10
189.5240
20
150.4755
0
VERTEX
8
CUT
10
189.5615
20
150.4667
0
VERTEX
8
CUT
10
189.5794
20
150.4611
0
VERTEX
8
CUT
10
189.8740
20
150.3615
0
VERTEX
8
CUT
10
190.1350
20
150.2887
0
VERTEX
8
CUT
10
190.4023
20
150.2446
0
VERTEX
8
CUT
10
190.6728
20
150.2297
0
VERTEX
8
CUT
10
192.9629
20
150.2277
0
VERTEX
8
CUT
10
193.2237
20
150.2411
0
VERTEX
8
CUT
10
193.4817
20
150.2817
0
VERTEX
8
CUT
10
193.7341
20
150.3489
0
VERTEX
8
CUT
10
194.0796
20
150.4606
0
VERTEX
8
CUT
10
194.0967
20
150.4657
0
VERTEX
8
CUT
10
194.1329
20
150.4739
0
VERTEX
8
CUT
10
194.1699
20
150.4788
0
VERTEX
8
CUT
10
194.1872
20
150.4799
0
VERTEX
8
CUT
10
194.8652
20
150.5083
0
VERTEX
8
CUT
10
195.0948
20
150.5286
0
VERTEX
8
CUT
10
195.3216
20
150.5699
0
VERTEX
8
CUT
10
195.5436
20
150.6320
0
VERTEX
8
CUT
10
195.7590
20
150.7142
0
VERTEX
8
CUT
10
195.8365
20
150.7480
0
VERTEX
8
CUT
10
195.8532
20
150.7548
0
VERTEX
8
CUT
10
195.8886
20
150.7665
0
VERTEX
8
CUT
10
195.9250
20
150.7716
0
VERTEX
8
CUT
10
195.9432
20
150.7728
0
VERTEX
8
CUT
10
196.7569
20
150.8112
0
VERTEX
8
CUT
10
196.9987
20
150.8344
0
VERTEX
8
CUT
10
197.2372
20
150.8809
0
VERTEX
8
CUT
10
197.4699
20
150.9504
0
VERTEX
8
CUT
10
201.9337
20
152.5229
0
VERTEX
8
CUT
10
202.1070
20
152.5913
0
VERTEX
8
CUT
10
202.2747
20
152.6724
0
VERTEX
8
CUT
10
206.8767
20
155.1140
0
VERTEX
8
CUT
10
207.0520
20
155.2164
0
VERTEX
8
CUT
10
207.2185
20
155.3326
0
VERTEX
8
CUT
10
209.2976
20
156.9140
0
VERTEX
8
CUT
10
209.5446
20
157.1288
0
VERTEX
8
CUT
10
213.9081
20
161.4565
0
VERTEX
8
CUT
10
214.1383
20
161.7192
0
VERTEX
8
CUT
10
215.7658
20
163.8615
0
VERTEX
8
CUT
10
215.9396
20
164.1228
0
VERTEX
8
CUT
10
217.0007
20
165.9587
0
VERTEX
8
CUT
10
217.1041
20
166.1578
0
VERTEX
8
CUT
10
219.0106
20
170.2680
0
VERTEX
8
CUT
10
219.0859
20
170.4487
0
VERTEX
8
CUT
10
219.1469
20
170.6346
0
VERTEX
8
CUT
10
220.2262
20
174.4209
0
VERTEX
8
CUT
10
220.2961
20
174.7471
0
VERTEX
8
CUT
10
220.8416
20
178.5048
0
VERTEX
8
CUT
10
220.8675
20
178.8665
0
VERTEX
8
CUT
10
220.8616
20
184.7107
0
VERTEX
8
CUT
10
220.8525
20
184.9208
0
VERTEX
8
CUT
10
220.8258
20
185.1293
0
VERTEX
8
CUT
10
220.7817
20
185.3349
0
VERTEX
8
CUT
10
220.6298
20
185.9217
0
VERTEX
8
CUT
10
220.6248
20
185.9431
0
VERTEX
8
CUT
10
220.6119
20
186.0333
0
VERTEX
8
CUT
10
220.6106
20
186.0553
0
VERTEX
8
CUT
10
220.5640
20
187.5255
0
VERTEX
8
CUT
10
220.5459
20
187.7571
0
VERTEX
8
CUT
10
220.5063
20
187.9860
0
VERTEX
8
CUT
10
219.4280
20
192.8629
0
VERTEX
8
CUT
10
219.3393
20
193.1695
0
VERTEX
8
CUT
10
216.8027
20
200.2197
0
VERTEX
8
CUT
10
216.6865
20
200.4913
0
VERTEX
8
CUT
10
213.2866
20
207.2917
0
VERTEX
8
CUT
10
213.2053
20
207.4415
0
VERTEX
8
CUT
10
210.3480
20
212.2982
0
VERTEX
8
CUT
10
210.2515
20
212.4495
0
VERTEX
8
CUT
10
207.1056
20
217.0124
0
VERTEX
8
CUT
10
207.0227
20
217.1257
0
VERTEX
8
CUT
10
202.1183
20
223.4480
0
VERTEX
8
CUT
10
202.0074
20
223.5811
0
VERTEX
8
CUT
10
199.2941
20
226.6185
0
VERTEX
8
CUT
10
199.1848
20
226.7333
0
VERTEX
8
CUT
10
195.5530
20
230.3138
0
VERTEX
8
CUT
10
195.4050
20
230.4485
0
VERTEX
8
CUT
10
190.2726
20
234.7560
0
VERTEX
8
CUT
10
190.0957
20
234.8915
0
VERTEX
8
CUT
10
186.4245
20
237.4523
0
VERTEX
8
CUT
10
186.2389
20
237.5700
0
VERTEX
8
CUT
10
180.3163
20
240.9698
0
VERTEX
8
CUT
10
180.0949
20
241.0827
0
VERTEX
8
CUT
10
174.4549
20
243.6127
0
VERTEX
8
CUT
10
174.2734
20
243.6857
0
VERTEX
8
CUT
10
170.3890
20
245.0746
0
VERTEX
8
CUT
10
170.2043
20
245.1327
0
VERTEX
8
CUT
10
170.0157
20
245.1763
0
VERTEX
8
CUT
10
168.3452
20
245.4949
0
VERTEX
8
CUT
10
168.2833
20
245.5084
0
VERTEX
8
CUT
10
168.2221
20
245.5250
0
VERTEX
8
CUT
10
164.9351
20
246.5130
0
VERTEX
8
CUT
10
164.7350
20
246.5643
0
VERTEX
8
CUT
10
164.5313
20
246.5988
0
VERTEX
8
CUT
10
164.3255
20
246.6164
0
VERTEX
8
CUT
10
163.4790
20
246.6537
0
VERTEX
8
CUT
10
163.4614
20
246.6549
0
VERTEX
8
CUT
10
163.3889
20
246.6646
0
VERTEX
8
CUT
10
163.3715
20
246.6681
0
VERTEX
8
CUT
10
161.2445
20
247.1477
0
VERTEX
8
CUT
10
161.0318
20
247.1861
0
VERTEX
8
CUT
10
160.8165
20
247.2059
0
VERTEX
8
CUT
10
154.3691
20
247.5204
0
VERTEX
8
CUT
10
154.0712
20
247.5172
0
VERTEX
8
CUT
10
149.6068
20
247.2021
0
VERTEX
8
CUT
10
149.2637
20
247.1538
0
VERTEX
8
CUT
10
145.4710
20
246.3487
0
VERTEX
8
CUT
10
145.1487
20
246.2574
0
VERTEX
8
CUT
10
141.3973
20
244.9165
0
VERTEX
8
CUT
10
141.1425
20
244.8092
0
VERTEX
8
CUT
10
140.9010
20
244.6744
0
VERTEX
8
CUT
10
138.9316
20
243.4269
0
VERTEX
8
CUT
10
138.7302
20
243.2850
0
VERTEX
8
CUT
10
136.1382
20
241.2600
0
VERTEX
8
CUT
10
135.9644
20
241.1110
0
VERTEX
8
CUT
10
135.8051
20
240.9467
0
VERTEX
8
CUT
10
133.4109
20
238.2413
0
VERTEX
8
CUT
10
133.2859
20
238.0883
0
VERTEX
8
CUT
10
133.1734
20
237.9259
0
VERTEX
8
CUT
10
131.8669
20
235.8712
0
VERTEX
8
CUT
10
131.7384
20
235.6437
0
VERTEX
8
CUT
10
130.1306
20
232.4128
0
VERTEX
8
CUT
10
130.0281
20
232.1773
0
VERTEX
8
CUT
10
129.2514
20
230.1075
0
VERTEX
8
CUT
10
129.1812
20
229.8911
0
VERTEX
8
CUT
10
129.1310
20
229.6692
0
VERTEX
8
CUT
10
128.5287
20
226.3007
0
VERTEX
8
CUT
10
128.5254
20
226.2839
0
VERTEX
8
CUT
10
128.5161
20
226.2494
0
VERTEX
8
CUT
10
128.5038
20
226.2158
0
VERTEX
8
CUT
10
128.4861
20
226.1759
0
VERTEX
8
CUT
10
128.4879
20
226.1751
0
VERTEX
8
CUT
10
128.4113
20
225.9869
0
VERTEX
8
CUT
10
128.3402
20
225.7447
0
VERTEX
8
CUT
10
128.2938
20
225.4966
0
VERTEX
8
CUT
10
128.2728
20
225.2451
0
VERTEX
8
CUT
10
128.2438
20
224.3697
0
VERTEX
8
CUT
10
128.2426
20
224.3495
0
VERTEX
8
CUT
10
128.2369
20
224.3080
0
VERTEX
8
CUT
10
128.2271
20
224.2672
0
VERTEX
8
CUT
10
128.2208
20
224.2479
0
SEQEND
0
POLYLINE
8
CUT
66
1
70
1
10
0.0
20
0.0
30
0.0
0
VERTEX
8
CUT
10
125.9627
20
37.8499
0
VERTEX
8
CUT
10
125.7213
20
37.7852
0
VERTEX
8
CUT
10
125.4876
20
37.6968
0
VERTEX
8
CUT
10
125.2639
20
37.5855
0
VERTEX
8
CUT
10
125.0524
20
37.4524
0
VERTEX
8
CUT
10
124.8552
20
37.2989
0
VERTEX
8
CUT
10
124.6744
20
37.1265
0
VERTEX
8
CUT
10
124.5117
20
36.9369
0
VERTEX
8
CUT
10
124.3687
20
36.7319
0
VERTEX
8
CUT
10
124.2469
20
36.5138
0
VERTEX
8
CUT
10
124.1474
20
36.2845
0
VERTEX
8
CUT
10
124.0714
20
36.0465
0
VERTEX
8
CUT
10
124.0195
20
35.8021
0
VERTEX
8
CUT
10
123.9922
20
35.5537
0
VERTEX
8
CUT
10
123.9899
20
35.3038
0
VERTEX
8
CUT
10
124.0126
20
35.0550
0
VERTEX
8
CUT
10
124.0599
20
34.8096
0
VERTEX
8
CUT
10
124.1316
20
34.5702
0
VERTEX
8
CUT
10
124.4062
20
33.7955
0
VERTEX
8
CUT
10
124.4837
20
33.6028
0
VERTEX
8
CUT
10
124.5770
20
33.4171
0
VERTEX
8
CUT
10
124.6853
20
33.2398
0
VERTEX
8
CUT
10
128.5976
20
27.3979
0
VERTEX
8
CUT
10
128.7031
20
27.2520
0
VERTEX
8
CUT
10
130.6624
20
24.7387
0
VERTEX
8
CUT
10
130.8064
20
24.5700
0
VERTEX
8
CUT
10
130.9647
20
24.4147
0
VERTEX
8
CUT
10
131.1363
20
24.2741
0
VERTEX
8
CUT
10
133.0483
20
22.8433
0
VERTEX
8
CUT
10
133.0629
20
22.8318
0
VERTEX
8
CUT
10
133.1197
20
22.7805
0
VERTEX
8
CUT
10
133.1325
20
22.7671
0
VERTEX
8
CUT
10
133.6720
20
22.1790
0
VERTEX
8
CUT
10
133.6836
20
22.1658
0
VERTEX
8
CUT
10
133.7059
20
22.1367
0
VERTEX
8
CUT
10
133.7255
20
22.1056
0
VERTEX
8
CUT
10
133.7337
20
22.0905
0
VERTEX
8
CUT
10
133.9771
20
21.6175
0
VERTEX
8
CUT
10
134.0882
20
21.4234
0
VERTEX
8
CUT
10
134.2162
20
21.2400
0
VERTEX
8
CUT
10
134.3601
20
21.0688
0
VERTEX
8
CUT
10
134.5188
20
20.9112
0
VERTEX
8
CUT
10
134.6909
20
20.7683
0
VERTEX
8
CUT
10
135.4494
20
20.1939
0
VERTEX
8
CUT
10
135.6125
20
20.0803
0
VERTEX
8
CUT
10
135.7841
20
19.9801
0
VERTEX
8
CUT
10
140.1116
20
17.6770
0
VERTEX
8
CUT
10
140.3444
20
17.5681
0
VERTEX
8
CUT
10
140.5870
20
17.4836
0
VERTEX
8
CUT
10
140.8371
20
17.4245
0
VERTEX
8
CUT
10
141.0919
20
17.3914
0
VERTEX
8
CUT
10
141.5699
20
17.3542
0
VERTEX
8
CUT
10
141.5881
20
17.3523
0
VERTEX
8
CUT
10
141.6255
20
17.3459
0
VERTEX
8
CUT
10
141.6624
20
17.3360
0
VERTEX
8
CUT
10
141.6792
20
17.3302
0
VERTEX
8
CUT
10
142.6290
20
16.9780
0
VERTEX
8
CUT
10
142.8434
20
16.9094
0
VERTEX
8
CUT
10
143.0631
20
16.8602
0
VERTEX
8
CUT
10
143.2864
20
16.8311
0
VERTEX
8
CUT
10
143.5114
20
16.8221
0
VERTEX
8
CUT
10
144.0269
20
16.8249
0
VERTEX
8
CUT
10
144.2859
20
16.8397
0
VERTEX
8
CUT
10
144.5419
20
16.8813
0
VERTEX
8
CUT
10
144.7923
20
16.9492
0
VERTEX
8
CUT
10
145.9634
20
17.3331
0
VERTEX
8
CUT
10
146.2236
20
17.4348
0
VERTEX
8
CUT
10
146.4708
20
17.5649
0
VERTEX
8
CUT
10
148.0934
20
18.5383
0
VERTEX
8
CUT
10
148.2953
20
18.6732
0
VERTEX
8
CUT
10
148.4833
20
18.8271
0
VERTEX
8
CUT
10
148.6553
20
18.9985
0
VERTEX
8
CUT
10
148.8100
20
19.1858
0
VERTEX
8
CUT
10
150.1955
20
21.0401
0
VERTEX
8
CUT
10
150.3185
20
21.2207
0
VERTEX
8
CUT
10
150.4253
20
21.4113
0
VERTEX
8
CUT
10
151.0877
20
22.7257
0
VERTEX
8
CUT
10
151.1869
20
22.9489
0
VERTEX
8
CUT
10
151.2638
20
23.1808
0
VERTEX
8
CUT
10
152.6026
20
27.9926
0
VERTEX
8
CUT
10
152.6643
20
28.2783
0
VERTEX
8
CUT
10
152.6923
20
28.5692
0
VERTEX
8
CUT
10
152.7350
20
29.7096
0
VERTEX
8
CUT
10
152.7361
20
29.7275
0
VERTEX
8
CUT
10
152.7408
20
29.7643
0
VERTEX
8
CUT
10
152.7520
20
29.7992
0
VERTEX
8
CUT
10
152.7587
20
29.8161
0
VERTEX
8
CUT
10
152.7969
20
29.9066
0
VERTEX
8
CUT
10
152.8755
20
30.1192
0
VERTEX
8
CUT
10
152.9345
20
30.3380
0
VERTEX
8
CUT
10
152.9734
20
30.5613
0
VERTEX
8
CUT
10
152.9920
20
30.7872
0
VERTEX
8
CUT
10
153.0272
20
31.7472
0
VERTEX
8
CUT
10
153.0286
20
31.7684
0
VERTEX
8
CUT
10
153.0349
20
31.8119
0
VERTEX
8
CUT
10
153.0458
20
31.8545
0
VERTEX
8
CUT
10
153.0528
20
31.8746
0
VERTEX
8
CUT
10
153.1407
20
32.1089
0
VERTEX
8
CUT
10
153.2172
20
32.3489
0
VERTEX
8
CUT
10
153.2692
20
32.5953
0
VERTEX
8
CUT
10
153.2961
20
32.8457
0
VERTEX
8
CUT
10
153.6153
20
38.4665
0
VERTEX
8
CUT
10
153.6168
20
38.4850
0
VERTEX
8
CUT
10
153.6225
20
38.5230
0
VERTEX
8
CUT
10
153.6318
20
38.5602
0
VERTEX
8
CUT
10
153.6376
20
38.5779
0
VERTEX
8
CUT
10
153.7213
20
38.8164
0
VERTEX
8
CUT
10
153.7971
20
39.0767
0
VERTEX
8
CUT
10
153.8443
20
39.3437
0
VERTEX
8
CUT
10
153.8623
20
39.6142
0
VERTEX
8
CUT
10
153.8992
20
42.6437
0
VERTEX
8
CUT
10
153.8998
20
42.6603
0
VERTEX
8
CUT
10
153.9031
20
42.6945
0
VERTEX
8
CUT
10
153.9086
20
42.7253
0
VERTEX
8
CUT
10
153.9144
20
42.7490
0
VERTEX
8
CUT
10
154.0776
20
43.3555
0
VERTEX
8
CUT
10
154.1229
20
43.5563
0
VERTEX
8
CUT
10
154.1515
20
43.7602
0
VERTEX
8
CUT
10
154.1632
20
43.9657
0
VERTEX
8
CUT
10
154.2004
20
46.3247
0
VERTEX
8
CUT
10
154.2013
20
46.3460
0
VERTEX
8
CUT
10
154.2068
20
46.3899
0
VERTEX
8
CUT
10
154.2169
20
46.4329
0
VERTEX
8
CUT
10
154.2235
20
46.4532
0
VERTEX
8
CUT
10
154.3332
20
46.7632
0
VERTEX
8
CUT
10
154.3984
20
46.9780
0
VERTEX
8
CUT
10
154.4442
20
47.1977
0
VERTEX
8
CUT
10
154.4700
20
47.4207
0
VERTEX
8
CUT
10
154.7946
20
52.0169
0
VERTEX
8
CUT
10
154.7963
20
52.0351
0
VERTEX
8
CUT
10
154.8025
20
52.0726
0
VERTEX
8
CUT
10
154.8122
20
52.1095
0
VERTEX
8
CUT
10
154.8178
20
52.1263
0
VERTEX
8
CUT
10
155.1808
20
53.1274
0
VERTEX
8
CUT
10
155.2593
20
53.3872
0
VERTEX
8
CUT
10
155.3091
20
53.6539
0
VERTEX
8
CUT
10
155.3298
20
53.9245
0
VERTEX
8
CUT
10
155.3841
20
56.3940
0
VERTEX
8
CUT
10
155.3850
20
56.4121
0
VERTEX
8
CUT
10
155.3892
20
56.4495
0
VERTEX
8
CUT
10
155.3969
20
56.4865
0
VERTEX
8
CUT
10
155.4017
20
56.5035
0
VERTEX
8
CUT
10
155.8160
20
57.8582
0
VERTEX
8
CUT
10
155.8683
20
58.0585
0
VERTEX
8
CUT
10
155.9038
20
58.2623
0
VERTEX
8
CUT
10
155.9224
20
58.4684
0
VERTEX
8
CUT
10
155.9823
20
59.7051
0
VERTEX
8
CUT
10
155.9836
20
59.7239
0
VERTEX
8
CUT
10
155.9892
20
59.7622
0
VERTEX
8
CUT
10
156.0018
20
59.7988
0
VERTEX
8
CUT
10
156.0092
20
59.8161
0
VERTEX
8
CUT
10
157.3069
20
62.6614
0
VERTEX
8
CUT
10
157.4043
20
62.9090
0
VERTEX
8
CUT
10
157.4613
20
63.0803
0
VERTEX
8
CUT
10
157.5277
20
63.3180
0
VERTEX
8
CUT
10
157.5702
20
63.5611
0
VERTEX
8
CUT
10
157.5886
20
63.8072
0
VERTEX
8
CUT
10
157.5826
20
64.0540
0
VERTEX
8
CUT
10
157.5523
20
64.2989
0
VERTEX
8
CUT
10
157.4981
20
64.5397
0
VERTEX
8
CUT
10
157.4203
20
64.7739
0
VERTEX
8
CUT
10
157.3198
20
64.9994
0
VERTEX
8
CUT
10
157.1976
20
65.2138
0
VERTEX
8
CUT
10
157.0548
20
65.4151
0
VERTEX
8
CUT
10
156.8929
20
65.6014
0
VERTEX
8
CUT
10
156.7134
20
65.7708
0
VERTEX
8
CUT
10
156.5181
20
65.9217
0
VERTEX
8
CUT
10
156.3088
20
66.0525
0
VERTEX
8
CUT
10
156.0877
20
66.1621
0
VERTEX
8
CUT
10
155.8568
20
66.2494
0
VERTEX
8
CUT
10
155.6185
20
66.3135
0
VERTEX
8
CUT
10
155.3749
20
66.3537
0
VERTEX
8
CUT
10
155.1287
20
66.3698
0
VERTEX
8
CUT
10
154.8820
20
66.3615
0
VERTEX
8
CUT
10
154.6373
20
66.3289
0
VERTEX
8
CUT
10
154.3971
20
66.2723
0
VERTEX
8
CUT
10
154.1636
20
66.1924
0
VERTEX
8
CUT
10
153.4123
20
65.8928
0
VERTEX
8
CUT
10
153.3962
20
65.8868
0
VERTEX
8
CUT
10
153.3621
20
65.8766
0
VERTEX
8
CUT
10
153.3271
20
65.8692
0
VERTEX
8
CUT
10
153.3105
20
65.8669
0
VERTEX
8
CUT
10
153.0724
20
65.8383
0
VERTEX
8
CUT
10
152.8152
20
65.7937
0
VERTEX
8
CUT
10
152.5640
20
65.7225
0
VERTEX
8
CUT
10
152.3216
20
65.6255
0
VERTEX
8
CUT
10
152.0907
20
65.5037
0
VERTEX
8
CUT
10
150.8815
20
64.7831
0
VERTEX
8
CUT
10
150.6791
20
64.6488
0
VERTEX
8
CUT
10
150.4907
20
64.4954
0
VERTEX
8
CUT
10
150.3181
20
64.3245
0
VERTEX
8
CUT
10
150.1629
20
64.1377
0
VERTEX
8
CUT
10
150.0266
20
63.9367
0
VERTEX
8
CUT
10
149.6075
20
63.2492
0
VERTEX
8
CUT
10
149.4940
20
63.0415
0
VERTEX
8
CUT
10
149.4007
20
62.8241
0
VERTEX
8
CUT
10
149.3284
20
62.5988
0
VERTEX
8
CUT
10
149.2777
20
62.3676
0
VERTEX
8
CUT
10
148.6776
20
58.8438
0
VERTEX
8
CUT
10
148.6733
20
58.8219
0
VERTEX
8
CUT
10
148.6476
20
58.7330
0
VERTEX
8
CUT
10
148.6396
20
58.7122
0
VERTEX
8
CUT
10
148.0524
20
57.2984
0
VERTEX
8
CUT
10
148.0443
20
57.2802
0
VERTEX
8
CUT
10
148.0248
20
57.2440
0
VERTEX
8
CUT
10
147.9984
20
57.2124
0
VERTEX
8
CUT
10
147.9844
20
57.1981
0
VERTEX
8
CUT
10
147.1343
20
56.3684
0
VERTEX
8
CUT
10
147.1203
20
56.3555
0
VERTEX
8
CUT
10
147.0898
20
56.3310
0
VERTEX
8
CUT
10
147.0524
20
56.3198
0
VERTEX
8
CUT
10
147.0338
20
56.3157
0
VERTEX
8
CUT
10
146.3886
20
56.1895
0
VERTEX
8
CUT
10
146.3659
20
56.1858
0
VERTEX
8
CUT
10
146.2710
20
56.1784
0
VERTEX
8
CUT
10
146.2480
20
56.1787
0
VERTEX
8
CUT
10
144.5630
20
56.2438
0
VERTEX
8
CUT
10
144.5454
20
56.2449
0
VERTEX
8
CUT
10
144.5095
20
56.2495
0
VERTEX
8
CUT
10
144.4758
20
56.2635
0
VERTEX
8
CUT
10
144.4605
20
56.2711
0
VERTEX
8
CUT
10
144.3276
20
56.3409
0
VERTEX
8
CUT
10
144.1086
20
56.4427
0
VERTEX
8
CUT
10
143.8807
20
56.5229
0
VERTEX
8
CUT
10
143.6461
20
56.5807
0
VERTEX
8
CUT
10
143.4071
20
56.6157
0
VERTEX
8
CUT
10
143.1658
20
56.6274
0
VERTEX
8
CUT
10
142.9245
20
56.6157
0
VERTEX
8
CUT
10
142.6855
20
56.5808
0
VERTEX
8
CUT
10
142.4509
20
56.5230
0
VERTEX
8
CUT
10
142.2230
20
56.4429
0
VERTEX
8
CUT
10
142.0039
20
56.3411
0
VERTEX
8
CUT
10
141.7957
20
56.2186
0
VERTEX
8
CUT
10
141.6002
20
56.0767
0
VERTEX
8
CUT
10
141.4194
20
55.9165
0
VERTEX
8
CUT
10
141.2549
20
55.7396
0
VERTEX
8
CUT
10
141.1082
20
55.5476
0
VERTEX
8
CUT
10
140.9807
20
55.3424
0
VERTEX
8
CUT
10
140.8736
20
55.1259
0
VERTEX
8
CUT
10
140.7880
20
54.9000
0
VERTEX
8
CUT
10
140.7245
20
54.6669
0
VERTEX
8
CUT
10
140.6277
20
54.2292
0
VERTEX
8
CUT
10
140.5827
20
53.9527
0
VERTEX
8
CUT
10
140.5689
20
53.6729
0
VERTEX
8
CUT
10
140.5718
20
53.2457
0
VERTEX
8
CUT
10
140.5839
20
53.0152
0
VERTEX
8
CUT
10
140.6173
20
52.7869
0
VERTEX
8
CUT
10
140.6716
20
52.5627
0
VERTEX
8
CUT
10
142.8371
20
45.1355
0
VERTEX
8
CUT
10
142.8417
20
45.1185
0
VERTEX
8
CUT
10
142.8558
20
45.0471
0
VERTEX
8
CUT
10
142.8580
20
45.0296
0
VERTEX
8
CUT
10
143.1740
20
42.0803
0
VERTEX
8
CUT
10
143.1797
20
42.0058
0
VERTEX
8
CUT
10
143.1808
20
41.9311
0
VERTEX
8
CUT
10
143.1174
20
37.8206
0
VERTEX
8
CUT
10
143.1167
20
37.8015
0
VERTEX
8
CUT
10
143.1123
20
37.7622
0
VERTEX
8
CUT
10
143.1004
20
37.7246
0
VERTEX
8
CUT
10
143.0933
20
37.7067
0
VERTEX
8
CUT
10
142.2555
20
35.7401
0
VERTEX
8
CUT
10
142.2483
20
35.7241
0
VERTEX
8
CUT
10
142.2312
20
35.6921
0
VERTEX
8
CUT
10
142.2090
20
35.6640
0
VERTEX
8
CUT
10
142.1971
20
35.6508
0
VERTEX
8
CUT
10
141.1884
20
34.5827
0
VERTEX
8
CUT
10
141.1758
20
34.5700
0
VERTEX
8
CUT
10
141.1481
20
34.5455
0
VERTEX
8
CUT
10
141.1168
20
34.5266
0
VERTEX
8
CUT
10
141.1007
20
34.5183
0
VERTEX
8
CUT
10
139.9862
20
33.9760
0
VERTEX
8
CUT
10
139.9696
20
33.9684
0
VERTEX
8
CUT
10
139.9343
20
33.9551
0
VERTEX
8
CUT
10
139.8966
20
33.9520
0
VERTEX
8
CUT
10
139.8789
20
33.9517
0
VERTEX
8
CUT
10
138.3173
20
33.9661
0
VERTEX
8
CUT
10
138.2974
20
33.9668
0
VERTEX
8
CUT
10
138.2567
20
33.9713
0
VERTEX
8
CUT
10
138.2165
20
33.9798
0
VERTEX
8
CUT
10
138.1975
20
33.9854
0
VERTEX
8
CUT
10
137.2362
20
34.2931
0
VERTEX
8
CUT
10
137.2154
20
34.3004
0
VERTEX
8
CUT
10
137.1321
20
34.3377
0
VERTEX
8
CUT
10
137.1128
20
34.3483
0
VERTEX
8
CUT
10
135.1558
20
35.5001
0
VERTEX
8
CUT
10
135.1379
20
35.5113
0
VERTEX
8
CUT
10
135.0679
20
35.5631
0
VERTEX
8
CUT
10
135.0521
20
35.5769
0
VERTEX
8
CUT
10
132.4018
20
38.0154
0
VERTEX
8
CUT
10
132.2157
20
38.1707
0
VERTEX
8
CUT
10
132.0154
20
38.3072
0
VERTEX
8
CUT
10
131.8029
20
38.4237
0
VERTEX
8
CUT
10
131.5801
20
38.5190
0
VERTEX
8
CUT
10
131.3491
20
38.5923
0
VERTEX
8
CUT
10
131.1121
20
38.6429
0
VERTEX
8
CUT
10
130.8713
20
38.6704
0
VERTEX
8
CUT
10
130.6289
20
38.6744
0
VERTEX
8
CUT
10
130.3874
20
38.6548
0
VERTEX
8
CUT
10
130.0662
20
38.6132
0
VERTEX
8
CUT
10
130.0466
20
38.6111
0
VERTEX
8
CUT
10
129.9653
20
38.6087
0
VERTEX
8
CUT
10
129.9457
20
38.6095
0
VERTEX
8
CUT
10
128.9280
20
38.6795
0
VERTEX
8
CUT
10
128.6833
20
38.6843
0
VERTEX
8
CUT
10
128.4393
20
38.6652
0
VERTEX
8
CUT
10
128.1984
20
38.6223
0
VERTEX
8
CUT
10
127.9628
20
38.5561
0
VERTEX
8
CUT
10
127.7348
20
38.4671
0
VERTEX
8
CUT
10
127.5166
20
38.3563
0
VERTEX
8
CUT
10
127.0868
20
38.1108
0
VERTEX
8
CUT
10
127.0689
20
38.1012
0
VERTEX
8
CUT
10
127.0305
20
38.0842
0
VERTEX
8
CUT
10
126.9907
20
38.0712
0
VERTEX
8
CUT
10
126.9709
20
38.0665
0
SEQEND
0
POLYLINE
8
CUT
66
1
70
1
10
0.0
20
0.0
30
0.0
0
VERTEX
8
CUT
10
146.0526
20
92.4971
0
VERTEX
8
CUT
10
145.8548
20
92.3517
0
VERTEX
8
CUT
10
145.6722
20
92.1876
0
VERTEX
8
CUT
10
145.5066
20
92.0064
0
VERTEX
8
CUT
10
145.3596
20
91.8099
0
VERTEX
8
CUT
10
145.2325
20
91.5998
0
VERTEX
8
CUT
10
145.1267
20
91.3783
0
VERTEX
8
CUT
10
145.0431
20
91.1475
0
VERTEX
8
CUT
10
144.9825
20
90.9096
0
VERTEX
8
CUT
10
144.9456
20
90.6670
0
VERTEX
8
CUT
10
144.9326
20
90.4218
0
VERTEX
8
CUT
10
144.9438
20
90.1766
0
VERTEX
8
CUT
10
144.9789
20
89.9336
0
VERTEX
8
CUT
10
145.0377
20
89.6953
0
VERTEX
8
CUT
10
145.1196
20
89.4639
0
VERTEX
8
CUT
10
145.2238
20
89.2416
0
VERTEX
8
CUT
10
145.3493
20
89.0306
0
VERTEX
8
CUT
10
145.4948
20
88.8330
0
VERTEX
8
CUT
10
145.6591
20
88.6506
0
VERTEX
8
CUT
10
145.8405
20
88.4851
0
VERTEX
8
CUT
10
146.0372
20
88.3383
0
VERTEX
8
CUT
10
146.2473
20
88.2114
0
VERTEX
8
CUT
10
146.4689
20
88.1058
0
VERTEX
8
CUT
10
146.6998
20
88.0224
0
VERTEX
8
CUT
10
146.9377
20
87.9620
0
VERTEX
8
CUT
10
147.1804
20
87.9253
0
VERTEX
8
CUT
10
147.4256
20
87.9126
0
VERTEX
8
CUT
10
149.1395
20
87.9077
0
VERTEX
8
CUT
10
149.3864
20
87.9192
0
VERTEX
8
CUT
10
149.6309
20
87.9551
0
VERTEX
8
CUT
10
149.8707
20
88.0149
0
VERTEX
8
CUT
10
150.1034
20
88.0981
0
VERTEX
8
CUT
10
150.3268
20
88.2038
0
VERTEX
8
CUT
10
150.5386
20
88.3311
0
VERTEX
8
CUT
10
150.7369
20
88.4787
0
VERTEX
8
CUT
10
150.9196
20
88.6452
0
VERTEX
8
CUT
10
151.0849
20
88.8289
0
VERTEX
8
CUT
10
151.2313
20
89.0280
0
VERTEX
8
CUT
10
151.3574
20
89.2406
0
VERTEX
8
CUT
10
151.4618
20
89.4646
0
VERTEX
8
CUT
10
151.5436
20
89.6978
0
VERTEX
8
CUT
10
151.6020
20
89.9379
0
VERTEX
8
CUT
10
151.6364
20
90.1827
0
VERTEX
8
CUT
10
151.6464
20
90.4296
0
VERTEX
8
CUT
10
151.6321
20
90.6763
0
VERTEX
8
CUT
10
151.5934
20
90.9204
0
VERTEX
8
CUT
10
151.5308
20
91.1595
0
VERTEX
8
CUT
10
151.4449
20
91.3913
0
VERTEX
8
CUT
10
150.9743
20
92.4910
0
VERTEX
8
CUT
10
150.8649
20
92.7151
0
VERTEX
8
CUT
10
150.7337
20
92.9271
0
VERTEX
8
CUT
10
150.5821
20
93.1250
0
VERTEX
8
CUT
10
150.4115
20
93.3069
0
VERTEX
8
CUT
10
150.2236
20
93.4708
0
VERTEX
8
CUT
10
150.0203
20
93.6152
0
VERTEX
8
CUT
10
149.8036
20
93.7386
0
VERTEX
8
CUT
10
149.5758
20
93.8399
0
VERTEX
8
CUT
10
149.3389
20
93.9179
0
VERTEX
8
CUT
10
149.0955
20
93.9720
0
VERTEX
8
CUT
10
148.8479
20
94.0015
0
VERTEX
8
CUT
10
148.5986
20
94.0062
0
VERTEX
8
CUT
10
148.3501
20
93.9861
0
VERTEX
8
CUT
10
148.1048
20
93.9413
0
VERTEX
8
CUT
10
147.8652
20
93.8723
0
VERTEX
8
CUT
10
147.6337
20
93.7798
0
VERTEX
8
CUT
10
147.4125
20
93.6647
0
VERTEX
8
CUT
10
147.2039
20
93.5281
0
VERTEX
8
CUT
10
147.0099
20
93.3714
0
VERTEX
8
CUT
10
146.8325
20
93.1962
0
VERTEX
8
CUT
10
146.4577
20
92.7871
0
VERTEX
8
CUT
10
146.4408
20
92.7697
0
VERTEX
8
CUT
10
146.3645
20
92.7045
0
VERTEX
8
CUT
10
146.3448
20
92.6906
0
SEQEND
0
POLYLINE
8
CUT
66
1
70
1
10
0.0
20
0.0
30
0.0
0
VERTEX
8
CUT
10
131.7465
20
102.5150
0
VERTEX
8
CUT
10
131.5126
20
102.4637
0
VERTEX
8
CUT
10
131.2847
20
102.3904
0
VERTEX
8
CUT
10
131.0648
20
102.2956
0
VERTEX
8
CUT
10
130.8550
20
102.1802
0
VERTEX
8
CUT
10
130.6572
20
102.0452
0
VERTEX
8
CUT
10
130.4733
20
101.8920
0
VERTEX
8
CUT
10
130.3048
20
101.7218
0
VERTEX
8
CUT
10
130.1534
20
101.5363
0
VERTEX
8
CUT
10
130.0204
20
101.3372
0
VERTEX
8
CUT
10
129.9071
20
101.1263
0
VERTEX
8
CUT
10
129.8145
20
100.9054
0
VERTEX
8
CUT
10
129.7434
20
100.6768
0
VERTEX
8
CUT
10
129.6946
20
100.4424
0
VERTEX
8
CUT
10
129.6684
20
100.2044
0
VERTEX
8
CUT
10
129.6650
20
99.9650
0
VERTEX
8
CUT
10
129.6846
20
99.7263
0
VERTEX
8
CUT
10
129.7270
20
99.4907
0
VERTEX
8
CUT
10
129.7916
20
99.2601
0
VERTEX
8
CUT
10
129.9959
20
98.6467
0
VERTEX
8
CUT
10
130.1341
20
98.3140
0
VERTEX
8
CUT
10
130.5499
20
97.4865
0
VERTEX
8
CUT
10
130.6606
20
97.2890
0
VERTEX
8
CUT
10
130.7887
20
97.1024
0
VERTEX
8
CUT
10
133.3626
20
93.6940
0
VERTEX
8
CUT
10
133.5032
20
93.5240
0
VERTEX
8
CUT
10
133.6583
20
93.3670
0
VERTEX
8
CUT
10
134.3361
20
92.7388
0
VERTEX
8
CUT
10
134.5924
20
92.5310
0
VERTEX
8
CUT
10
136.8273
20
90.9512
0
VERTEX
8
CUT
10
137.0330
20
90.8203
0
VERTEX
8
CUT
10
137.2506
20
90.7101
0
VERTEX
8
CUT
10
137.4778
20
90.6216
0
VERTEX
8
CUT
10
137.7125
20
90.5557
0
VERTEX
8
CUT
10
137.9526
20
90.5129
0
VERTEX
8
CUT
10
138.1957
20
90.4938
0
VERTEX
8
CUT
10
138.4395
20
90.4984
0
VERTEX
8
CUT
10
138.6817
20
90.5267
0
VERTEX
8
CUT
10
138.9199
20
90.5785
0
VERTEX
8
CUT
10
139.1520
20
90.6533
0
VERTEX
8
CUT
10
139.3757
20
90.7503
0
VERTEX
8
CUT
10
139.5889
20
90.8687
0
VERTEX
8
CUT
10
139.7896
20
91.0072
0
VERTEX
8
CUT
10
139.9758
20
91.1647
0
VERTEX
8
CUT
10
140.1457
20
91.3395
0
VERTEX
8
CUT
10
140.2979
20
91.5301
0
VERTEX
8
CUT
10
140.4307
20
91.7346
0
VERTEX
8
CUT
10
140.5430
20
91.9510
0
VERTEX
8
CUT
10
140.6337
20
92.1774
0
VERTEX
8
CUT
10
140.7019
20
92.4115
0
VERTEX
8
CUT
10
140.7469
20
92.6511
0
VERTEX
8
CUT
10
140.7604
20
92.8033
0
VERTEX
8
CUT
10
140.7693
20
92.8840
0
VERTEX
8
CUT
10
140.8513
20
93.4918
0
VERTEX
8
CUT
10
140.8545
20
93.5116
0
VERTEX
8
CUT
10
140.8641
20
93.5517
0
VERTEX
8
CUT
10
140.8888
20
93.5846
0
VERTEX
8
CUT
10
140.9020
20
93.5996
0
VERTEX
8
CUT
10
142.1581
20
94.9589
0
VERTEX
8
CUT
10
142.3259
20
95.1607
0
VERTEX
8
CUT
10
142.4715
20
95.3790
0
VERTEX
8
CUT
10
142.6973
20
95.7593
0
VERTEX
8
CUT
10
142.7877
20
95.9255
0
VERTEX
8
CUT
10
143.6741
20
97.7134
0
VERTEX
8
CUT
10
143.7713
20
97.9362
0
VERTEX
8
CUT
10
143.8465
20
98.1674
0
VERTEX
8
CUT
10
143.8988
20
98.4049
0
VERTEX
8
CUT
10
143.9279
20
98.6462
0
VERTEX
8
CUT
10
143.9592
20
99.0857
0
VERTEX
8
CUT
10
143.9613
20
99.1077
0
VERTEX
8
CUT
10
143.9697
20
99.1526
0
VERTEX
8
CUT
10
143.9829
20
99.1964
0
VERTEX
8
CUT
10
143.9911
20
99.2169
0
VERTEX
8
CUT
10
143.9929
20
99.2211
0
VERTEX
8
CUT
10
144.0819
20
99.4610
0
VERTEX
8
CUT
10
144.1460
20
99.7086
0
VERTEX
8
CUT
10
144.1844
20
99.9616
0
VERTEX
8
CUT
10
144.1967
20
100.2171
0
VERTEX
8
CUT
10
144.1912
20
102.1376
0
VERTEX
8
CUT
10
144.1783
20
102.3837
0
VERTEX
8
CUT
10
144.1413
20
102.6272
0
VERTEX
8
CUT
10
144.0805
20
102.8660
0
VERTEX
8
CUT
10
143.9965
20
103.0976
0
VERTEX
8
CUT
10
143.4190
20
104.4740
0
VERTEX
8
CUT
10
143.2973
20
104.7240
0
VERTEX
8
CUT
10
143.1487
20
104.9589
0
VERTEX
8
CUT
10
142.6939
20
105.5962
0
VERTEX
8
CUT
10
142.5425
20
105.7877
0
VERTEX
8
CUT
10
142.3732
20
105.9636
0
VERTEX
8
CUT
10
141.8128
20
106.4916
0
VERTEX
8
CUT
10
141.6335
20
106.6451
0
VERTEX
8
CUT
10
141.4407
20
106.7811
0
VERTEX
8
CUT
10
141.2358
20
106.8982
0
VERTEX
8
CUT
10
140.9400
20
107.0494
0
VERTEX
8
CUT
10
140.7267
20
107.1460
0
VERTEX
8
CUT
10
140.5053
20
107.2223
0
VERTEX
8
CUT
10
140.2778
20
107.2775
0
VERTEX
8
CUT
10
140.0460
20
107.3112
0
VERTEX
8
CUT
10
139.8122
20
107.3230
0
VERTEX
8
CUT
10
138.1471
20
107.3293
0
VERTEX
8
CUT
10
137.9147
20
107.3194
0
VERTEX
8
CUT
10
137.6842
20
107.2879
0
VERTEX
8
CUT
10
137.4577
20
107.2351
0
VERTEX
8
CUT
10
137.2371
20
107.1615
0
VERTEX
8
CUT
10
136.4282
20
106.8492
0
VERTEX
8
CUT
10
136.2147
20
106.7551
0
VERTEX
8
CUT
10
136.0110
20
106.6416
0
VERTEX
8
CUT
10
135.0314
20
106.0340
0
VERTEX
8
CUT
10
134.7995
20
105.8713
0
VERTEX
8
CUT
10
134.5874
20
105.6833
0
VERTEX
8
CUT
10
134.3980
20
105.4726
0
VERTEX
8
CUT
10
132.5051
20
103.1097
0
VERTEX
8
CUT
10
132.5018
20
103.1058
0
VERTEX
8
CUT
10
132.4506
20
103.0505
0
VERTEX
8
CUT
10
132.4377
20
103.0382
0
VERTEX
8
CUT
10
131.9376
20
102.5796
0
VERTEX
8
CUT
10
131.9234
20
102.5672
0
VERTEX
8
CUT
10
131.8925
20
102.5439
0
VERTEX
8
CUT
10
131.8551
20
102.5338
0
VERTEX
8
CUT
10
131.8366
20
102.5302
0
SEQEND
0
POLYLINE
8
CUT
66
1
70
1
10
0.0
20
0.0
30
0.0
0
VERTEX
8
CUT
10
129.1414
20
112.5852
0
VERTEX
8
CUT
10
129.1296
20
112.3442
0
VERTEX
8
CUT
10
129.1412
20
112.1031
0
VERTEX
8
CUT
10
129.1759
20
111.8643
0
VERTEX
8
CUT
10
129.2334
20
111.6299
0
VERTEX
8
CUT
10
129.3133
20
111.4022
0
VERTEX
8
CUT
10
129.4148
20
111.1832
0
VERTEX
8
CUT
10
129.5370
20
110.9750
0
VERTEX
8
CUT
10
129.6786
20
110.7796
0
VERTEX
8
CUT
10
129.8384
20
110.5988
0
VERTEX
8
CUT
10
130.0149
20
110.4342
0
VERTEX
8
CUT
10
130.2065
20
110.2874
0
VERTEX
8
CUT
10
130.4113
20
110.1597
0
VERTEX
8
CUT
10
130.6274
20
110.0524
0
VERTEX
8
CUT
10
130.8530
20
109.9665
0
VERTEX
8
CUT
10
131.0857
20
109.9026
0
VERTEX
8
CUT
10
131.3235
20
109.8616
0
VERTEX
8
CUT
10
131.5642
20
109.8436
0
VERTEX
8
CUT
10
131.8055
20
109.8489
0
VERTEX
8
CUT
10
132.0451
20
109.8775
0
VERTEX
8
CUT
10
132.2809
20
109.9291
0
VERTEX
8
CUT
10
132.5106
20
110.0031
0
VERTEX
8
CUT
10
132.7321
20
110.0989
0
VERTEX
8
CUT
10
132.8938
20
110.1884
0
VERTEX
8
CUT
10
132.8947
20
110.1869
0
VERTEX
8
CUT
10
132.9866
20
110.2401
0
VERTEX
8
CUT
10
133.2067
20
110.3594
0
VERTEX
8
CUT
10
133.4178
20
110.4876
0
VERTEX
8
CUT
10
133.6152
20
110.6361
0
VERTEX
8
CUT
10
133.7970
20
110.8033
0
VERTEX
8
CUT
10
133.9614
20
110.9876
0
VERTEX
8
CUT
10
134.1068
20
111.1873
0
VERTEX
8
CUT
10
134.2318
20
111.4003
0
VERTEX
8
CUT
10
134.3351
20
111.6247
0
VERTEX
8
CUT
10
134.4159
20
111.8581
0
VERTEX
8
CUT
10
134.4732
20
112.0984
0
VERTEX
8
CUT
10
134.5065
20
112.3431
0
VERTEX
8
CUT
10
134.5154
20
112.5899
0
VERTEX
8
CUT
10
134.5000
20
112.8365
0
VERTEX
8
CUT
10
134.4604
20
113.0803
0
VERTEX
8
CUT
10
134.3968
20
113.3190
0
VERTEX
8
CUT
10
134.3101
20
113.5502
0
VERTEX
8
CUT
10
134.2009
20
113.7718
0
VERTEX
8
CUT
10
134.0704
20
113.9815
0
VERTEX
8
CUT
10
133.9198
20
114.1773
0
VERTEX
8
CUT
10
133.7507
20
114.3573
0
VERTEX
8
CUT
10
133.4767
20
114.6214
0
VERTEX
8
CUT
10
133.2890
20
114.7852
0
VERTEX
8
CUT
10
133.0858
20
114.9294
0
VERTEX
8
CUT
10
132.8693
20
115.0527
0
VERTEX
8
CUT
10
132.6417
20
115.1539
0
VERTEX
8
CUT
10
132.4050
20
115.2319
0
VERTEX
8
CUT
10
132.1618
20
115.2859
0
VERTEX
8
CUT
10
131.9145
20
115.3155
0
VERTEX
8
CUT
10
131.6654
20
115.3203
0
VERTEX
8
CUT
10
131.4170
20
115.3003
0
VERTEX
8
CUT
10
131.1719
20
115.2557
0
VERTEX
8
CUT
10
130.9325
20
115.1869
0
VERTEX
8
CUT
10
130.7010
20
115.0946
0
VERTEX
8
CUT
10
130.4800
20
114.9798
0
VERTEX
8
CUT
10
130.2714
20
114.8435
0
VERTEX
8
CUT
10
130.0775
20
114.6871
0
VERTEX
8
CUT
10
129.9000
20
114.5122
0
VERTEX
8
CUT
10
129.7409
20
114.3205
0
VERTEX
8
CUT
10
129.6016
20
114.1139
0
VERTEX
8
CUT
10
129.4836
20
113.8945
0
VERTEX
8
CUT
10
129.3881
20
113.6644
0
VERTEX
8
CUT
10
129.3158
20
113.4260
0
VERTEX
8
CUT
10
129.2085
20
112.9951
0
VERTEX
8
CUT
10
129.1461
20
112.6331
0
SEQEND
0
POLYLINE
8
CUT
66
1
70
1
10
0.0
20
0.0
30
0.0
0
VERTEX
8
CUT
10
118.4018
20
140.4061
0
VERTEX
8
CUT
10
118.1866
20
140.2846
0
VERTEX
8
CUT
10
117.9845
20
140.1426
0
VERTEX
8
CUT
10
117.7974
20
139.9813
0
VERTEX
8
CUT
10
117.6271
20
139.8023
0
VERTEX
8
CUT
10
117.4753
20
139.6074
0
VERTEX
8
CUT
10
117.3435
20
139.3984
0
VERTEX
8
CUT
10
117.2330
20
139.1775
0
VERTEX
8
CUT
10
117.1448
20
138.9467
0
VERTEX
8
CUT
10
117.0798
20
138.7083
0
VERTEX
8
CUT
10
117.0387
20
138.4647
0
VERTEX
8
CUT
10
117.0218
20
138.2183
0
VERTEX
8
CUT
10
117.0293
20
137.9713
0
VERTEX
8
CUT
10
117.0612
20
137.7263
0
VERTEX
8
CUT
10
117.1170
20
137.4857
0
VERTEX
8
CUT
10
117.1964
20
137.2517
0
VERTEX
8
CUT
10
117.2984
20
137.0267
0
VERTEX
8
CUT
10
117.4222
20
136.8129
0
VERTEX
8
CUT
10
117.5665
20
136.6124
0
VERTEX
8
CUT
10
117.7298
20
136.4270
0
VERTEX
8
CUT
10
117.9107
20
136.2587
0
VERTEX
8
CUT
10
118.1073
20
136.1091
0
VERTEX
8
CUT
10
118.3176
20
135.9796
0
VERTEX
8
CUT
10
118.5398
20
135.8715
0
VERTEX
8
CUT
10
118.7715
20
135.7858
0
VERTEX
8
CUT
10
119.0065
20
135.7119
0
VERTEX
8
CUT
10
119.2312
20
135.6526
0
VERTEX
8
CUT
10
119.4604
20
135.6144
0
VERTEX
8
CUT
10
119.6921
20
135.5977
0
VERTEX
8
CUT
10
121.6282
20
135.5479
0
VERTEX
8
CUT
10
121.6498
20
135.5468
0
VERTEX
8
CUT
10
121.7384
20
135.5348
0
VERTEX
8
CUT
10
121.7595
20
135.5302
0
VERTEX
8
CUT
10
124.1013
20
134.9491
0
VERTEX
8
CUT
10
124.1183
20
134.9444
0
VERTEX
8
CUT
10
124.1531
20
134.9324
0
VERTEX
8
CUT
10
124.1868
20
134.9173
0
VERTEX
8
CUT
10
124.2020
20
134.9092
0
VERTEX
8
CUT
10
128.7706
20
132.3447
0
VERTEX
8
CUT
10
128.9894
20
132.2356
0
VERTEX
8
CUT
10
129.2178
20
132.1484
0
VERTEX
8
CUT
10
129.4535
20
132.0839
0
VERTEX
8
CUT
10
129.6945
20
132.0427
0
VERTEX
8
CUT
10
129.9383
20
132.0253
0
VERTEX
8
CUT
10
130.1827
20
132.0318
0
VERTEX
8
CUT
10
130.4252
20
132.0621
0
VERTEX
8
CUT
10
130.6637
20
132.1160
0
VERTEX
8
CUT
10
130.8957
20
132.1928
0
VERTEX
8
CUT
10
131.1191
20
132.2920
0
VERTEX
8
CUT
10
131.3318
20
132.4125
0
VERTEX
8
CUT
10
131.5317
20
132.5532
0
VERTEX
8
CUT
10
131.7169
20
132.7128
0
VERTEX
8
CUT
10
131.8856
20
132.8897
0
VERTEX
8
CUT
10
132.0362
20
133.0822
0
VERTEX
8
CUT
10
132.1673
20
133.2885
0
VERTEX
8
CUT
10
132.2777
20
133.5066
0
VERTEX
8
CUT
10
132.3662
20
133.7345
0
VERTEX
8
CUT
10
132.4320
20
133.9699
0
VERTEX
8
CUT
10
132.4745
20
134.2106
0
VERTEX
8
CUT
10
132.4934
20
134.4543
0
VERTEX
8
CUT
10
132.4883
20
134.6987
0
VERTEX
8
CUT
10
132.4594
20
134.9414
0
VERTEX
8
CUT
10
132.4069
20
135.1801
0
VERTEX
8
CUT
10
132.3314
20
135.4126
0
VERTEX
8
CUT
10
132.2335
20
135.6366
0
VERTEX
8
CUT
10
132.1406
20
135.8236
0
VERTEX
8
CUT
10
132.0189
20
136.0409
0
VERTEX
8
CUT
10
131.8761
20
136.2450
0
VERTEX
8
CUT
10
131.7137
20
136.4339
0
VERTEX
8
CUT
10
131.5334
20
136.6056
0
VERTEX
8
CUT
10
130.3715
20
137.6067
0
VERTEX
8
CUT
10
130.3572
20
137.6197
0
VERTEX
8
CUT
10
130.3298
20
137.6484
0
VERTEX
8
CUT
10
130.3052
20
137.6797
0
VERTEX
8
CUT
10
130.2944
20
137.6957
0
VERTEX
8
CUT
10
129.7084
20
138.6135
0
VERTEX
8
CUT
10
129.6977
20
138.6313
0
VERTEX
8
CUT
10
129.6787
20
138.6694
0
VERTEX
8
CUT
10
129.6724
20
138.7116
0
VERTEX
8
CUT
10
129.6710
20
138.7323
0
VERTEX
8
CUT
10
129.5878
20
140.7109
0
VERTEX
8
CUT
10
129.5627
20
140.9744
0
VERTEX
8
CUT
10
129.5099
20
141.2338
0
VERTEX
8
CUT
10
129.4300
20
141.4861
0
VERTEX
8
CUT
10
129.3238
20
141.7286
0
VERTEX
8
CUT
10
128.8107
20
142.7493
0
VERTEX
8
CUT
10
128.6937
20
142.9569
0
VERTEX
8
CUT
10
128.5574
20
143.1525
0
VERTEX
8
CUT
10
128.4031
20
143.3341
0
VERTEX
8
CUT
10
128.2322
20
143.5003
0
VERTEX
8
CUT
10
128.0462
20
143.6494
0
VERTEX
8
CUT
10
127.8469
20
143.7801
0
VERTEX
8
CUT
10
127.6361
20
143.8912
0
VERTEX
8
CUT
10
127.4156
20
143.9818
0
VERTEX
8
CUT
10
127.1875
20
144.0509
0
VERTEX
8
CUT
10
126.9539
20
144.0981
0
VERTEX
8
CUT
10
126.7168
20
144.1227
0
VERTEX
8
CUT
10
126.4785
20
144.1247
0
VERTEX
8
CUT
10
126.2411
20
144.1040
0
VERTEX
8
CUT
10
126.0067
20
144.0607
0
VERTEX
8
CUT
10
125.7775
20
143.9953
0
VERTEX
8
CUT
10
125.5555
20
143.9084
0
VERTEX
8
CUT
10
124.6734
20
143.5136
0
VERTEX
8
CUT
10
124.4507
20
143.4002
0
VERTEX
8
CUT
10
124.2404
20
143.2651
0
VERTEX
8
CUT
10
124.0447
20
143.1097
0
VERTEX
8
CUT
10
123.8654
20
142.9356
0
VERTEX
8
CUT
10
122.1890
20
141.1356
0
VERTEX
8
CUT
10
122.1739
20
141.1203
0
VERTEX
8
CUT
10
122.1403
20
141.0913
0
VERTEX
8
CUT
10
122.1013
20
141.0703
0
VERTEX
8
CUT
10
122.0815
20
141.0616
0
VERTEX
8
CUT
10
121.3578
20
140.7687
0
VERTEX
8
CUT
10
121.3412
20
140.7624
0
VERTEX
8
CUT
10
121.3060
20
140.7517
0
VERTEX
8
CUT
10
121.2699
20
140.7475
0
VERTEX
8
CUT
10
121.2520
20
140.7467
0
VERTEX
8
CUT
10
119.5199
20
140.7017
0
VERTEX
8
CUT
10
119.2470
20
140.6796
0
VERTEX
8
CUT
10
118.9781
20
140.6278
0
VERTEX
8
CUT
10
118.7165
20
140.5469
0
VERTEX
8
CUT
10
118.4653
20
140.4379
0
SEQEND
0
POLYLINE
8
CUT
66
1
70
1
10
0.0
20
0.0
30
0.0
0
VERTEX
8
CUT
10
77.8590
20
212.7543
0
VERTEX
8
CUT
10
77.7836
20
212.5309
0
VERTEX
8
CUT
10
77.7295
20
212.3013
0
VERTEX
8
CUT
10
77.6972
20
212.0677
0
VERTEX
8
CUT
10
77.6872
20
211.8321
0
VERTEX
8
CUT
10
77.6977
20
209.4701
0
VERTEX
8
CUT
10
77.7147
20
209.1899
0
VERTEX
8
CUT
10
77.7630
20
208.9134
0
VERTEX
8
CUT
10
77.8420
20
208.6440
0
VERTEX
8
CUT
10
77.9002
20
208.4802
0
VERTEX
8
CUT
10
77.9069
20
208.4599
0
VERTEX
8
CUT
10
77.9171
20
208.4169
0
VERTEX
8
CUT
10
77.9226
20
208.3731
0
VERTEX
8
CUT
10
77.9236
20
208.3517
0
VERTEX
8
CUT
10
77.9678
20
205.8114
0
VERTEX
8
CUT
10
77.9842
20
205.5652
0
VERTEX
8
CUT
10
78.0249
20
205.3218
0
VERTEX
8
CUT
10
78.0894
20
205.0835
0
VERTEX
8
CUT
10
78.1770
20
204.8528
0
VERTEX
8
CUT
10
78.1806
20
204.8446
0
VERTEX
8
CUT
10
78.1875
20
204.8277
0
VERTEX
8
CUT
10
78.1994
20
204.7920
0
VERTEX
8
CUT
10
78.2045
20
204.7551
0
VERTEX
8
CUT
10
78.2057
20
204.7367
0
VERTEX
8
CUT
10
78.2471
20
203.8129
0
VERTEX
8
CUT
10
78.2700
20
203.5692
0
VERTEX
8
CUT
10
78.3166
20
203.3289
0
VERTEX
8
CUT
10
78.5149
20
202.5208
0
VERTEX
8
CUT
10
78.6137
20
202.2082
0
VERTEX
8
CUT
10
79.0704
20
201.0372
0
VERTEX
8
CUT
10
79.2230
20
200.7157
0
VERTEX
8
CUT
10
80.1136
20
199.1397
0
VERTEX
8
CUT
10
80.2402
20
198.9385
0
VERTEX
8
CUT
10
80.3853
20
198.7503
0
VERTEX
8
CUT
10
80.5477
20
198.5768
0
VERTEX
8
CUT
10
81.5170
20
197.6347
0
VERTEX
8
CUT
10
81.7111
20
197.4646
0
VERTEX
8
CUT
10
81.9217
20
197.3155
0
VERTEX
8
CUT
10
82.1465
20
197.1888
0
VERTEX
8
CUT
10
83.0700
20
196.7297
0
VERTEX
8
CUT
10
83.2811
20
196.6367
0
VERTEX
8
CUT
10
83.4998
20
196.5635
0
VERTEX
8
CUT
10
83.7244
20
196.5108
0
VERTEX
8
CUT
10
83.9529
20
196.4790
0
VERTEX
8
CUT
10
84.1833
20
196.4684
0
VERTEX
8
CUT
10
85.6995
20
196.4686
0
VERTEX
8
CUT
10
85.9531
20
196.4816
0
VERTEX
8
CUT
10
86.2041
20
196.5202
0
VERTEX
8
CUT
10
86.4499
20
196.5841
0
VERTEX
8
CUT
10
86.6880
20
196.6725
0
VERTEX
8
CUT
10
87.8693
20
197.1813
0
VERTEX
8
CUT
10
88.0809
20
197.2846
0
VERTEX
8
CUT
10
88.2819
20
197.4073
0
VERTEX
8
CUT
10
88.4705
20
197.5483
0
VERTEX
8
CUT
10
88.6449
20
197.7065
0
VERTEX
8
CUT
10
90.1139
20
199.1703
0
VERTEX
8
CUT
10
90.2946
20
199.3709
0
VERTEX
8
CUT
10
90.4526
20
199.5899
0
VERTEX
8
CUT
10
91.7652
20
201.6328
0
VERTEX
8
CUT
10
91.9009
20
201.8720
0
VERTEX
8
CUT
10
93.0923
20
204.2709
0
VERTEX
8
CUT
10
93.2039
20
204.5317
0
VERTEX
8
CUT
10
93.2852
20
204.8036
0
VERTEX
8
CUT
10
93.3352
20
205.0829
0
VERTEX
8
CUT
10
93.3781
20
205.4378
0
VERTEX
8
CUT
10
93.3806
20
205.4552
0
VERTEX
8
CUT
10
93.3882
20
205.4909
0
VERTEX
8
CUT
10
93.4018
20
205.5243
0
VERTEX
8
CUT
10
93.4096
20
205.5404
0
VERTEX
8
CUT
10
94.0172
20
206.7174
0
VERTEX
8
CUT
10
94.1049
20
206.9063
0
VERTEX
8
CUT
10
94.1766
20
207.1018
0
VERTEX
8
CUT
10
94.2318
20
207.3025
0
VERTEX
8
CUT
10
94.5440
20
208.6564
0
VERTEX
8
CUT
10
94.5483
20
208.6737
0
VERTEX
8
CUT
10
94.5713
20
208.7437
0
VERTEX
8
CUT
10
94.5779
20
208.7603
0
VERTEX
8
CUT
10
96.1516
20
212.4242
0
VERTEX
8
CUT
10
96.2609
20
212.7332
0
VERTEX
8
CUT
10
96.6083
20
213.9670
0
VERTEX
8
CUT
10
96.6143
20
213.9864
0
VERTEX
8
CUT
10
96.6452
20
214.0645
0
VERTEX
8
CUT
10
96.6541
20
214.0827
0
VERTEX
8
CUT
10
100.6823
20
221.8458
0
VERTEX
8
CUT
10
100.7152
20
221.9051
0
VERTEX
8
CUT
10
100.7513
20
221.9625
0
VERTEX
8
CUT
10
104.2434
20
227.1835
0
VERTEX
8
CUT
10
104.2740
20
227.2272
0
VERTEX
8
CUT
10
104.3064
20
227.2694
0
VERTEX
8
CUT
10
106.7415
20
230.3019
0
VERTEX
8
CUT
10
106.7592
20
230.3234
0
VERTEX
8
CUT
10
106.7774
20
230.3445
0
VERTEX
8
CUT
10
109.0232
20
232.8945
0
VERTEX
8
CUT
10
109.0505
20
232.9245
0
VERTEX
8
CUT
10
109.0787
20
232.9536
0
VERTEX
8
CUT
10
112.7275
20
236.5815
0
VERTEX
8
CUT
10
112.7533
20
236.6065
0
VERTEX
8
CUT
10
112.7799
20
236.6307
0
VERTEX
8
CUT
10
115.3853
20
238.9337
0
VERTEX
8
CUT
10
115.4108
20
238.9556
0
VERTEX
8
CUT
10
115.4369
20
238.9768
0
VERTEX
8
CUT
10
119.6933
20
242.3420
0
VERTEX
8
CUT
10
119.8767
20
242.5021
0
VERTEX
8
CUT
10
120.0437
20
242.6793
0
VERTEX
8
CUT
10
120.1926
20
242.8719
0
VERTEX
8
CUT
10
120.3221
20
243.0781
0
VERTEX
8
CUT
10
120.4151
20
243.2641
0
VERTEX
8
CUT
10
120.4310
20
243.2656
0
VERTEX
8
CUT
10
120.6715
20
243.3126
0
VERTEX
8
CUT
10
120.9062
20
243.3829
0
VERTEX
8
CUT
10
121.1329
20
243.4758
0
VERTEX
8
CUT
10
121.3494
20
243.5904
0
VERTEX
8
CUT
10
123.1937
20
244.6861
0
VERTEX
8
CUT
10
123.3982
20
244.8216
0
VERTEX
8
CUT
10
123.5884
20
244.9765
0
VERTEX
8
CUT
10
123.7626
20
245.1493
0
VERTEX
8
CUT
10
123.9189
20
245.3382
0
VERTEX
8
CUT
10
124.0560
20
245.5417
0
VERTEX
8
CUT
10
124.1725
20
245.7575
0
VERTEX
8
CUT
10
124.2673
20
245.9838
0
VERTEX
8
CUT
10
124.3394
20
246.2182
0
VERTEX
8
CUT
10
124.3883
20
246.4586
0
VERTEX
8
CUT
10
124.4133
20
246.7026
0
VERTEX
8
CUT
10
124.4143
20
246.9479
0
VERTEX
8
CUT
10
124.3913
20
247.1921
0
VERTEX
8
CUT
10
124.3444
20
247.4329
0
VERTEX
8
CUT
10
124.2742
20
247.6679
0
VERTEX
8
CUT
10
124.1812
20
247.8949
0
VERTEX
8
CUT
10
124.0665
20
248.1117
0
VERTEX
8
CUT
10
123.9311
20
248.3162
0
VERTEX
8
CUT
10
123.7763
20
248.5065
0
VERTEX
8
CUT
10
123.6036
20
248.6807
0
VERTEX
8
CUT
10
123.4146
20
248.8371
0
VERTEX
8
CUT
10
123.2113
20
248.9743
0
VERTEX
8
CUT
10
122.9954
20
249.0908
0
VERTEX
8
CUT
10
122.7692
20
249.1857
0
VERTEX
8
CUT
10
122.6129
20
249.2338
0
VERTEX
8
CUT
10
122.5365
20
249.2611
0
VERTEX
8
CUT
10
122.5197
20
249.2685
0
VERTEX
8
CUT
10
122.1640
20
249.4348
0
VERTEX
8
CUT
10
121.9419
20
249.5259
0
VERTEX
8
CUT
10
121.7120
20
249.5953
0
VERTEX
8
CUT
10
121.4766
20
249.6423
0
VERTEX
8
CUT
10
121.2377
20
249.6666
0
VERTEX
8
CUT
10
120.9977
20
249.6678
0
VERTEX
8
CUT
10
120.7586
20
249.6459
0
VERTEX
8
CUT
10
120.5227
20
249.6012
0
VERTEX
8
CUT
10
120.2922
20
249.5341
0
VERTEX
8
CUT
10
120.0691
20
249.4453
0
VERTEX
8
CUT
10
119.8557
20
249.3354
0
VERTEX
8
CUT
10
119.6537
20
249.2055
0
VERTEX
8
CUT
10
119.4652
20
249.0569
0
VERTEX
8
CUT
10
119.2918
20
248.8909
0
VERTEX
8
CUT
10
119.1351
20
248.7090
0
VERTEX
8
CUT
10
118.9965
20
248.5129
0
VERTEX
8
CUT
10
118.8774
20
248.3045
0
VERTEX
8
CUT
10
118.8596
20
248.2695
0
VERTEX
8
CUT
10
118.6219
20
247.8301
0
VERTEX
8
CUT
10
118.6107
20
247.8108
0
VERTEX
8
CUT
10
118.5844
20
247.7730
0
VERTEX
8
CUT
10
118.5539
20
247.7384
0
VERTEX
8
CUT
10
118.5379
20
247.7230
0
VERTEX
8
CUT
10
118.3931
20
247.5917
0
VERTEX
8
CUT
10
118.2199
20
247.4184
0
VERTEX
8
CUT
10
118.0645
20
247.2290
0
VERTEX
8
CUT
10
117.9283
20
247.0253
0
VERTEX
8
CUT
10
117.8128
20
246.8093
0
VERTEX
8
CUT
10
117.7996
20
246.7775
0
VERTEX
8
CUT
10
117.7493
20
246.7719
0
VERTEX
8
CUT
10
117.5110
20
246.7220
0
VERTEX
8
CUT
10
117.3931
20
246.6912
0
VERTEX
8
CUT
10
117.3552
20
246.6889
0
VERTEX
8
CUT
10
117.3363
20
246.6891
0
VERTEX
8
CUT
10
116.5132
20
246.7191
0
VERTEX
8
CUT
10
116.4933
20
246.7204
0
VERTEX
8
CUT
10
116.4523
20
246.7261
0
VERTEX
8
CUT
10
116.3529
20
246.7614
0
VERTEX
8
CUT
10
116.1196
20
246.8317
0
VERTEX
8
CUT
10
115.8806
20
246.8790
0
VERTEX
8
CUT
10
115.6381
20
246.9028
0
VERTEX
8
CUT
10
115.3944
20
246.9029
0
VERTEX
8
CUT
10
115.1519
20
246.8792
0
VERTEX
8
CUT
10
114.9129
20
246.8321
0
VERTEX
8
CUT
10
114.6795
20
246.7619
0
VERTEX
8
CUT
10
114.4542
20
246.6693
0
VERTEX
8
CUT
10
114.2389
20
246.5553
0
VERTEX
8
CUT
10
114.0357
20
246.4208
0
VERTEX
8
CUT
10
113.8466
20
246.2672
0
VERTEX
8
CUT
10
113.4376
20
245.9004
0
VERTEX
8
CUT
10
113.4214
20
245.8867
0
VERTEX
8
CUT
10
113.3859
20
245.8612
0
VERTEX
8
CUT
10
113.3479
20
245.8396
0
VERTEX
8
CUT
10
113.3287
20
245.8306
0
VERTEX
8
CUT
10
110.6663
20
244.6730
0
VERTEX
8
CUT
10
110.6493
20
244.6660
0
VERTEX
8
CUT
10
110.6132
20
244.6542
0
VERTEX
8
CUT
10
110.5761
20
244.6492
0
VERTEX
8
CUT
10
110.5575
20
244.6481
0
VERTEX
8
CUT
10
108.9499
20
244.5848
0
VERTEX
8
CUT
10
108.9277
20
244.5845
0
VERTEX
8
CUT
10
108.8362
20
244.5912
0
VERTEX
8
CUT
10
108.8144
20
244.5946
0
VERTEX
8
CUT
10
107.6370
20
244.8135
0
VERTEX
8
CUT
10
107.3592
20
244.8492
0
VERTEX
8
CUT
10
107.0792
20
244.8536
0
VERTEX
8
CUT
10
106.8004
20
244.8267
0
VERTEX
8
CUT
10
105.2999
20
244.5962
0
VERTEX
8
CUT
10
105.2784
20
244.5935
0
VERTEX
8
CUT
10
105.2337
20
244.5916
0
VERTEX
8
CUT
10
105.1890
20
244.5946
0
VERTEX
8
CUT
10
105.1675
20
244.5978
0
VERTEX
8
CUT
10
104.0628
20
244.7944
0
VERTEX
8
CUT
10
103.8097
20
244.8262
0
VERTEX
8
CUT
10
103.5547
20
244.8320
0
VERTEX
8
CUT
10
103.3004
20
244.8119
0
VERTEX
8
CUT
10
103.0495
20
244.7659
0
VERTEX
8
CUT
10
100.1966
20
244.0912
0
VERTEX
8
CUT
10
100.1778
20
244.0872
0
VERTEX
8
CUT
10
100.1388
20
244.0819
0
VERTEX
8
CUT
10
100.1006
20
244.0919
0
VERTEX
8
CUT
10
100.0536
20
244.1079
0
VERTEX
8
CUT
10
100.0530
20
244.1059
0
VERTEX
8
CUT
10
99.8568
20
244.1668
0
VERTEX
8
CUT
10
99.6031
20
244.2175
0
VERTEX
8
CUT
10
99.3454
20
244.2416
0
VERTEX
8
CUT
10
99.0866
20
244.2391
0
VERTEX
8
CUT
10
98.8295
20
244.2098
0
VERTEX
8
CUT
10
98.5768
20
244.1540
0
VERTEX
8
CUT
10
98.3312
20
244.0724
0
VERTEX
8
CUT
10
98.0954
20
243.9659
0
VERTEX
8
CUT
10
97.8718
20
243.8356
0
VERTEX
8
CUT
10
97.8488
20
243.8205
0
VERTEX
8
CUT
10
97.6169
20
243.6489
0
VERTEX
8
CUT
10
97.4063
20
243.4516
0
VERTEX
8
CUT
10
92.6399
20
238.4398
0
VERTEX
8
CUT
10
92.5276
20
238.3135
0
VERTEX
8
CUT
10
89.8023
20
235.0296
0
VERTEX
8
CUT
10
89.6798
20
234.8693
0
VERTEX
8
CUT
10
85.6488
20
229.1264
0
VERTEX
8
CUT
10
85.5513
20
228.9763
0
VERTEX
8
CUT
10
82.1377
20
223.2870
0
VERTEX
8
CUT
10
82.0083
20
223.0414
0
VERTEX
8
CUT
10
79.0400
20
216.5577
0
VERTEX
8
CUT
10
78.9570
20
216.3532
0
VERTEX
8
CUT
10
78.8924
20
216.1421
0
VERTEX
8
CUT
10
78.8467
20
215.9261
0
VERTEX
8
CUT
10
78.8203
20
215.7070
0
VERTEX
8
CUT
10
78.7779
20
215.1511
0
VERTEX
8
CUT
10
78.7760
20
215.1316
0
VERTEX
8
CUT
10
78.7689
20
215.0917
0
VERTEX
8
CUT
10
78.7579
20
215.0527
0
VERTEX
8
CUT
10
78.7512
20
215.0342
0
SEQEND
0
POLYLINE
8
CUT
66
1
70
1
10
0.0
20
0.0
30
0.0
0
VERTEX
8
CUT
10
104.2240
20
120.5600
0
VERTEX
8
CUT
10
104.2376
20
120.5243
0
VERTEX
8
CUT
10
104.2407
20
120.4863
0
VERTEX
8
CUT
10
104.2409
20
120.4677
0
VERTEX
8
CUT
10
104.2265
20
119.2392
0
VERTEX
8
CUT
10
104.2355
20
118.9954
0
VERTEX
8
CUT
10
104.2683
20
118.7538
0
VERTEX
8
CUT
10
104.3244
20
118.5164
0
VERTEX
8
CUT
10
104.4034
20
118.2857
0
VERTEX
8
CUT
10
104.5045
20
118.0637
0
VERTEX
8
CUT
10
104.6268
20
117.8527
0
VERTEX
8
CUT
10
104.7690
20
117.6546
0
VERTEX
8
CUT
10
104.9299
20
117.4712
0
VERTEX
8
CUT
10
105.1079
20
117.3045
0
VERTEX
8
CUT
10
105.3012
20
117.1558
0
VERTEX
8
CUT
10
105.5082
20
117.0267
0
VERTEX
8
CUT
10
105.7267
20
116.9184
0
VERTEX
8
CUT
10
105.9547
20
116.8319
0
VERTEX
8
CUT
10
106.1901
20
116.7680
0
VERTEX
8
CUT
10
106.4306
20
116.7274
0
VERTEX
8
CUT
10
106.6739
20
116.7104
0
VERTEX
8
CUT
10
106.9177
20
116.7172
0
VERTEX
8
CUT
10
107.1597
20
116.7477
0
VERTEX
8
CUT
10
107.3975
20
116.8016
0
VERTEX
8
CUT
10
107.6290
20
116.8785
0
VERTEX
8
CUT
10
107.8519
20
116.9776
0
VERTEX
8
CUT
10
108.0640
20
117.0979
0
VERTEX
8
CUT
10
108.2635
20
117.2382
0
VERTEX
8
CUT
10
108.4483
20
117.3974
0
VERTEX
8
CUT
10
108.6167
20
117.5738
0
VERTEX
8
CUT
10
108.7671
20
117.7658
0
VERTEX
8
CUT
10
108.8981
20
117.9715
0
VERTEX
8
CUT
10
109.0084
20
118.1890
0
VERTEX
8
CUT
10
109.0377
20
118.2546
0
VERTEX
8
CUT
10
109.1289
20
118.4893
0
VERTEX
8
CUT
10
109.8504
20
120.6676
0
VERTEX
8
CUT
10
109.9146
20
120.8981
0
VERTEX
8
CUT
10
109.9566
20
121.1337
0
VERTEX
8
CUT
10
109.9758
20
121.3722
0
VERTEX
8
CUT
10
110.0188
20
122.6894
0
VERTEX
8
CUT
10
110.0149
20
122.9319
0
VERTEX
8
CUT
10
109.9876
20
123.1729
0
VERTEX
8
CUT
10
109.9370
20
123.4101
0
VERTEX
8
CUT
10
109.8637
20
123.6413
0
VERTEX
8
CUT
10
109.7684
20
123.8643
0
VERTEX
8
CUT
10
109.6518
20
124.0770
0
VERTEX
8
CUT
10
109.5153
20
124.2774
0
VERTEX
8
CUT
10
109.3599
20
124.4636
0
VERTEX
8
CUT
10
109.1872
20
124.6339
0
VERTEX
8
CUT
10
108.9988
20
124.7867
0
VERTEX
8
CUT
10
108.7966
20
124.9205
0
VERTEX
8
CUT
10
108.5823
20
125.0341
0
VERTEX
8
CUT
10
108.3580
20
125.1263
0
VERTEX
8
CUT
10
108.1258
20
125.1964
0
VERTEX
8
CUT
10
107.8879
20
125.2437
0
VERTEX
8
CUT
10
107.6466
20
125.2677
0
VERTEX
8
CUT
10
107.4041
20
125.2682
0
VERTEX
8
CUT
10
107.1626
20
125.2452
0
VERTEX
8
CUT
10
106.9245
20
125.1989
0
VERTEX
8
CUT
10
106.6921
20
125.1298
0
VERTEX
8
CUT
10
106.2886
20
124.9882
0
VERTEX
8
CUT
10
106.2678
20
124.9815
0
VERTEX
8
CUT
10
106.2237
20
124.9713
0
VERTEX
8
CUT
10
106.1789
20
124.9661
0
VERTEX
8
CUT
10
106.1570
20
124.9653
0
VERTEX
8
CUT
10
106.0581
20
124.9647
0
VERTEX
8
CUT
10
105.8177
20
124.9517
0
VERTEX
8
CUT
10
105.5797
20
124.9157
0
VERTEX
8
CUT
10
105.3463
20
124.8569
0
VERTEX
8
CUT
10
105.1196
20
124.7759
0
VERTEX
8
CUT
10
104.9018
20
124.6735
0
VERTEX
8
CUT
10
104.6948
20
124.5507
0
VERTEX
8
CUT
10
104.5005
20
124.4085
0
VERTEX
8
CUT
10
104.3209
20
124.2482
0
VERTEX
8
CUT
10
104.1575
20
124.0715
0
VERTEX
8
CUT
10
104.0119
20
123.8798
0
VERTEX
8
CUT
10
103.8853
20
123.6750
0
VERTEX
8
CUT
10
103.7791
20
123.4591
0
VERTEX
8
CUT
10
103.6941
20
123.2338
0
VERTEX
8
CUT
10
103.6311
20
123.0015
0
VERTEX
8
CUT
10
103.5908
20
122.7642
0
VERTEX
8
CUT
10
103.5736
20
122.5241
0
VERTEX
8
CUT
10
103.5794
20
122.2835
0
VERTEX
8
CUT
10
103.6084
20
122.0445
0
VERTEX
8
CUT
10
103.6603
20
121.8094
0
VERTEX
8
CUT
10
103.7345
20
121.5804
0
VERTEX
8
CUT
10
103.8304
20
121.3596
0
VERTEX
8
CUT
10
104.2162
20
120.5769
0
SEQEND
0
POLYLINE
8
CUT
66
1
70
1
10
0.0
20
0.0
30
0.0
0
VERTEX
8
CUT
10
86.9721
20
112.6014
0
VERTEX
8
CUT
10
86.7834
20
112.4403
0
VERTEX
8
CUT
10
86.6116
20
112.2612
0
VERTEX
8
CUT
10
86.4584
20
112.0660
0
VERTEX
8
CUT
10
86.3253
20
111.8566
0
VERTEX
8
CUT
10
86.2136
20
111.6350
0
VERTEX
8
CUT
10
86.1245
20
111.4034
0
VERTEX
8
CUT
10
86.0587
20
111.1641
0
VERTEX
8
CUT
10
86.0170
20
110.9195
0
VERTEX
8
CUT
10
85.9998
20
110.6719
0
VERTEX
8
CUT
10
86.0071
20
110.4239
0
VERTEX
8
CUT
10
86.0391
20
110.1778
0
VERTEX
8
CUT
10
86.0952
20
109.9361
0
VERTEX
8
CUT
10
86.1751
20
109.7011
0
VERTEX
8
CUT
10
86.2778
20
109.4753
0
VERTEX
8
CUT
10
86.4025
20
109.2607
0
VERTEX
8
CUT
10
86.5478
20
109.0595
0
VERTEX
8
CUT
10
86.7123
20
108.8737
0
VERTEX
8
CUT
10
86.8944
20
108.7052
0
VERTEX
8
CUT
10
87.0924
20
108.5555
0
VERTEX
8
CUT
10
87.3042
20
108.4262
0
VERTEX
8
CUT
10
87.5277
20
108.3186
0
VERTEX
8
CUT
10
87.7609
20
108.2336
0
VERTEX
8
CUT
10
88.0013
20
108.1722
0
VERTEX
8
CUT
10
88.2466
20
108.1349
0
VERTEX
8
CUT
10
88.4945
20
108.1221
0
VERTEX
8
CUT
10
88.7423
20
108.1339
0
VERTEX
8
CUT
10
88.9878
20
108.1703
0
VERTEX
8
CUT
10
89.2285
20
108.2308
0
VERTEX
8
CUT
10
89.5871
20
108.3402
0
VERTEX
8
CUT
10
89.6053
20
108.3452
0
VERTEX
8
CUT
10
89.6435
20
108.3530
0
VERTEX
8
CUT
10
89.6822
20
108.3571
0
VERTEX
8
CUT
10
89.7010
20
108.3578
0
VERTEX
8
CUT
10
93.1747
20
108.3957
0
VERTEX
8
CUT
10
93.3866
20
108.4071
0
VERTEX
8
CUT
10
93.5968
20
108.4363
0
VERTEX
8
CUT
10
94.6274
20
108.6246
0
VERTEX
8
CUT
10
94.8655
20
108.6803
0
VERTEX
8
CUT
10
95.0971
20
108.7590
0
VERTEX
8
CUT
10
95.3199
20
108.8599
0
VERTEX
8
CUT
10
95.9051
20
109.1604
0
VERTEX
8
CUT
10
95.9212
20
109.1682
0
VERTEX
8
CUT
10
95.9554
20
109.1820
0
VERTEX
8
CUT
10
95.9912
20
109.1894
0
VERTEX
8
CUT
10
96.0091
20
109.1918
0
VERTEX
8
CUT
10
96.4291
20
109.2399
0
VERTEX
8
CUT
10
96.6477
20
109.2747
0
VERTEX
8
CUT
10
96.8623
20
109.3287
0
VERTEX
8
CUT
10
97.0713
20
109.4015
0
VERTEX
8
CUT
10
98.1316
20
109.8244
0
VERTEX
8
CUT
10
98.4588
20
109.9834
0
VERTEX
8
CUT
10
99.8572
20
110.7935
0
VERTEX
8
CUT
10
100.0631
20
110.9268
0
VERTEX
8
CUT
10
100.2550
20
111.0795
0
VERTEX
8
CUT
10
100.4310
20
111.2504
0
VERTEX
8
CUT
10
100.5895
20
111.4377
0
VERTEX
8
CUT
10
100.7288
20
111.6396
0
VERTEX
8
CUT
10
100.8476
20
111.8541
0
VERTEX
8
CUT
10
100.9449
20
112.0793
0
VERTEX
8
CUT
10
101.0196
20
112.3130
0
VERTEX
8
CUT
10
101.0710
20
112.5528
0
VERTEX
8
CUT
10
101.0987
20
112.7965
0
VERTEX
8
CUT
10
101.1024
20
113.0418
0
VERTEX
8
CUT
10
101.0821
20
113.2862
0
VERTEX
8
CUT
10
101.0378
20
113.5275
0
VERTEX
8
CUT
10
100.9702
20
113.7633
0
VERTEX
8
CUT
10
100.8798
20
113.9913
0
VERTEX
8
CUT
10
100.7674
20
114.2094
0
VERTEX
8
CUT
10
100.6342
20
114.4154
0
VERTEX
8
CUT
10
100.4815
20
114.6073
0
VERTEX
8
CUT
10
100.3107
20
114.7834
0
VERTEX
8
CUT
10
100.1235
20
114.9418
0
VERTEX
8
CUT
10
100.0226
20
115.0190
0
VERTEX
8
CUT
10
100.0087
20
115.0302
0
VERTEX
8
CUT
10
99.9817
20
115.0550
0
VERTEX
8
CUT
10
99.9654
20
115.0875
0
VERTEX
8
CUT
10
99.9584
20
115.1042
0
VERTEX
8
CUT
10
99.7970
20
115.5138
0
VERTEX
8
CUT
10
99.7905
20
115.5316
0
VERTEX
8
CUT
10
99.7797
20
115.5690
0
VERTEX
8
CUT
10
99.7800
20
115.6079
0
VERTEX
8
CUT
10
99.7815
20
115.6267
0
VERTEX
8
CUT
10
99.9675
20
117.4208
0
VERTEX
8
CUT
10
99.9807
20
117.6631
0
VERTEX
8
CUT
10
99.9705
20
117.9056
0
VERTEX
8
CUT
10
99.9367
20
118.1459
0
VERTEX
8
CUT
10
99.8798
20
118.3818
0
VERTEX
8
CUT
10
99.8242
20
118.5422
0
VERTEX
8
CUT
10
99.7967
20
118.6271
0
VERTEX
8
CUT
10
99.7918
20
118.6635
0
VERTEX
8
CUT
10
99.7906
20
118.6816
0
VERTEX
8
CUT
10
99.7512
20
119.6232
0
VERTEX
8
CUT
10
99.7247
20
119.8962
0
VERTEX
8
CUT
10
99.6684
20
120.1648
0
VERTEX
8
CUT
10
99.5831
20
120.4255
0
VERTEX
8
CUT
10
99.4696
20
120.6753
0
VERTEX
8
CUT
10
99.2602
20
121.0765
0
VERTEX
8
CUT
10
99.1318
20
121.2948
0
VERTEX
8
CUT
10
98.9820
20
121.4990
0
VERTEX
8
CUT
10
98.8123
20
121.6869
0
VERTEX
8
CUT
10
97.3999
20
123.1002
0
VERTEX
8
CUT
10
97.2164
20
123.2664
0
VERTEX
8
CUT
10
97.0174
20
123.4137
0
VERTEX
8
CUT
10
96.8048
20
123.5406
0
VERTEX
8
CUT
10
96.5242
20
123.6897
0
VERTEX
8
CUT
10
96.3031
20
123.7936
0
VERTEX
8
CUT
10
96.0730
20
123.8755
0
VERTEX
8
CUT
10
95.8360
20
123.9346
0
VERTEX
8
CUT
10
95.5943
20
123.9702
0
VERTEX
8
CUT
10
95.3504
20
123.9820
0
VERTEX
8
CUT
10
93.5220
20
123.9816
0
VERTEX
8
CUT
10
93.2583
20
123.9676
0
VERTEX
8
CUT
10
92.9976
20
123.9258
0
VERTEX
8
CUT
10
92.7427
20
123.8568
0
VERTEX
8
CUT
10
92.4965
20
123.7613
0
VERTEX
8
CUT
10
92.2617
20
123.6403
0
VERTEX
8
CUT
10
91.1437
20
122.9873
0
VERTEX
8
CUT
10
90.9606
20
122.8694
0
VERTEX
8
CUT
10
90.7885
20
122.7359
0
VERTEX
8
CUT
10
90.6286
20
122.5880
0
VERTEX
8
CUT
10
89.0659
20
121.0106
0
VERTEX
8
CUT
10
88.8905
20
120.8139
0
VERTEX
8
CUT
10
88.7369
20
120.5998
0
VERTEX
8
CUT
10
88.6066
20
120.3707
0
VERTEX
8
CUT
10
87.5179
20
118.1971
0
VERTEX
8
CUT
10
87.4101
20
117.9493
0
VERTEX
8
CUT
10
87.3297
20
117.6912
0
VERTEX
8
CUT
10
87.2776
20
117.4261
0
VERTEX
8
CUT
10
87.0603
20
115.8826
0
VERTEX
8
CUT
10
87.0394
20
115.6657
0
VERTEX
8
CUT
10
87.0374
20
115.4479
0
VERTEX
8
CUT
10
87.0543
20
115.2307
0
VERTEX
8
CUT
10
87.2877
20
113.3213
0
VERTEX
8
CUT
10
87.2897
20
113.3002
0
VERTEX
8
CUT
10
87.2903
20
113.2568
0
VERTEX
8
CUT
10
87.2772
20
113.2155
0
VERTEX
8
CUT
10
87.2692
20
113.1959
0
VERTEX
8
CUT
10
87.0463
20
112.6897
0
VERTEX
8
CUT
10
87.0380
20
112.6720
0
VERTEX
8
CUT
10
87.0181
20
112.6369
0
SEQEND
0
POLYLINE
8
CUT
66
1
70
1
10
0.0
20
0.0
30
0.0
0
VERTEX
8
CUT
10
38.0569
20
58.2276
0
VERTEX
8
CUT
10
37.9829
20
58.0038
0
VERTEX
8
CUT
10
37.9303
20
57.7740
0
VERTEX
8
CUT
10
37.8996
20
57.5402
0
VERTEX
8
CUT
10
37.8911
20
57.3046
0
VERTEX
8
CUT
10
37.9073
20
55.8117
0
VERTEX
8
CUT
10
37.9221
20
55.5663
0
VERTEX
8
CUT
10
37.9608
20
55.3235
0
VERTEX
8
CUT
10
38.0233
20
55.0857
0
VERTEX
8
CUT
10
38.3881
20
53.9312
0
VERTEX
8
CUT
10
38.3940
20
53.9105
0
VERTEX
8
CUT
10
38.4114
20
53.8234
0
VERTEX
8
CUT
10
38.4139
20
53.8021
0
VERTEX
8
CUT
10
38.4537
20
53.3614
0
VERTEX
8
CUT
10
38.4851
20
53.1321
0
VERTEX
8
CUT
10
38.5376
20
52.9067
0
VERTEX
8
CUT
10
38.6107
20
52.6871
0
VERTEX
8
CUT
10
38.7038
20
52.4753
0
VERTEX
8
CUT
10
38.8161
20
52.2729
0
VERTEX
8
CUT
10
39.2803
20
51.5208
0
VERTEX
8
CUT
10
39.4870
20
51.2336
0
VERTEX
8
CUT
10
40.3570
20
50.1894
0
VERTEX
8
CUT
10
40.5349
20
49.9972
0
VERTEX
8
CUT
10
40.7320
20
49.8247
0
VERTEX
8
CUT
10
40.9461
20
49.6737
0
VERTEX
8
CUT
10
41.6955
20
49.2021
0
VERTEX
8
CUT
10
41.8730
20
49.1003
0
VERTEX
8
CUT
10
42.0582
20
49.0133
0
VERTEX
8
CUT
10
42.2499
20
48.9418
0
VERTEX
8
CUT
10
43.4156
20
48.5605
0
VERTEX
8
CUT
10
43.6694
20
48.4920
0
VERTEX
8
CUT
10
43.9290
20
48.4506
0
VERTEX
8
CUT
10
44.1915
20
48.4366
0
VERTEX
8
CUT
10
47.0819
20
48.4350
0
VERTEX
8
CUT
10
47.3324
20
48.4474
0
VERTEX
8
CUT
10
47.5804
20
48.4849
0
VERTEX
8
CUT
10
47.8234
20
48.5470
0
VERTEX
8
CUT
10
48.0589
20
48.6332
0
VERTEX
8
CUT
10
48.0734
20
48.6393
0
VERTEX
8
CUT
10
48.0943
20
48.6475
0
VERTEX
8
CUT
10
48.1388
20
48.6607
0
VERTEX
8
CUT
10
48.1846
20
48.6687
0
VERTEX
8
CUT
10
48.2070
20
48.6707
0
VERTEX
8
CUT
10
48.7645
20
48.7042
0
VERTEX
8
CUT
10
48.9811
20
48.7267
0
VERTEX
8
CUT
10
49.1948
20
48.7679
0
VERTEX
8
CUT
10
49.4042
20
48.8276
0
VERTEX
8
CUT
10
51.6194
20
49.5650
0
VERTEX
8
CUT
10
51.8407
20
49.6506
0
VERTEX
8
CUT
10
56.8989
20
51.8868
0
VERTEX
8
CUT
10
57.0965
20
51.9848
0
VERTEX
8
CUT
10
62.7824
20
55.1245
0
VERTEX
8
CUT
10
62.8900
20
55.1874
0
VERTEX
8
CUT
10
70.1578
20
59.6873
0
VERTEX
8
CUT
10
70.3941
20
59.8532
0
VERTEX
8
CUT
10
70.6096
20
60.0452
0
VERTEX
8
CUT
10
77.9488
20
67.3854
0
VERTEX
8
CUT
10
78.1682
20
67.6362
0
VERTEX
8
CUT
10
80.5861
20
70.8039
0
VERTEX
8
CUT
10
80.7532
20
71.0524
0
VERTEX
8
CUT
10
82.6527
20
74.2786
0
VERTEX
8
CUT
10
82.7436
20
74.4475
0
VERTEX
8
CUT
10
82.8213
20
74.6229
0
VERTEX
8
CUT
10
84.4384
20
78.6876
0
VERTEX
8
CUT
10
84.5091
20
78.8903
0
VERTEX
8
CUT
10
84.5622
20
79.0984
0
VERTEX
8
CUT
10
85.0727
20
81.5317
0
VERTEX
8
CUT
10
85.1109
20
81.7714
0
VERTEX
8
CUT
10
85.1257
20
82.0138
0
VERTEX
8
CUT
10
85.1170
20
82.2564
0
VERTEX
8
CUT
10
85.0847
20
82.4970
0
VERTEX
8
CUT
10
85.0293
20
82.7334
0
VERTEX
8
CUT
10
84.9512
20
82.9633
0
VERTEX
8
CUT
10
84.8511
20
83.1845
0
VERTEX
8
CUT
10
84.7301
20
83.3950
0
VERTEX
8
CUT
10
84.5892
20
83.5927
0
VERTEX
8
CUT
10
84.4298
20
83.7759
0
VERTEX
8
CUT
10
84.2534
20
83.9427
0
VERTEX
8
CUT
10
84.0616
20
84.0916
0
VERTEX
8
CUT
10
83.8564
20
84.2212
0
VERTEX
8
CUT
10
83.6394
20
84.3303
0
VERTEX
8
CUT
10
83.4130
20
84.4179
0
VERTEX
8
CUT
10
83.1791
20
84.4830
0
VERTEX
8
CUT
10
82.9400
20
84.5252
0
VERTEX
8
CUT
10
82.6979
20
84.5439
0
VERTEX
8
CUT
10
82.4552
20
84.5391
0
VERTEX
8
CUT
10
82.2141
20
84.5108
0
VERTEX
8
CUT
10
81.9768
20
84.4592
0
VERTEX
8
CUT
10
81.7457
20
84.3849
0
VERTEX
8
CUT
10
81.5229
20
84.2885
0
VERTEX
8
CUT
10
81.3104
20
84.1709
0
VERTEX
8
CUT
10
81.1104
20
84.0333
0
VERTEX
8
CUT
10
80.9247
20
83.8769
0
VERTEX
8
CUT
10
80.7550
20
83.7032
0
VERTEX
8
CUT
10
80.6030
20
83.5139
0
VERTEX
8
CUT
10
78.8733
20
81.1318
0
VERTEX
8
CUT
10
78.8408
20
81.0891
0
VERTEX
8
CUT
10
78.8065
20
81.0479
0
VERTEX
8
CUT
10
76.6439
20
78.5608
0
VERTEX
8
CUT
10
76.5862
20
78.4988
0
VERTEX
8
CUT
10
76.5242
20
78.4410
0
VERTEX
8
CUT
10
73.6170
20
75.9089
0
VERTEX
8
CUT
10
73.5579
20
75.8606
0
VERTEX
8
CUT
10
73.4960
20
75.8161
0
VERTEX
8
CUT
10
70.9606
20
74.1117
0
VERTEX
8
CUT
10
70.9458
20
74.1022
0
VERTEX
8
CUT
10
70.8823
20
74.0672
0
VERTEX
8
CUT
10
70.8664
20
74.0598
0
VERTEX
8
CUT
10
68.2795
20
72.9179
0
VERTEX
8
CUT
10
68.2623
20
72.9108
0
VERTEX
8
CUT
10
68.1891
20
72.8864
0
VERTEX
8
CUT
10
68.1710
20
72.8817
0
VERTEX
8
CUT
10
66.9205
20
72.5913
0
VERTEX
8
CUT
10
66.8986
20
72.5869
0
VERTEX
8
CUT
10
66.8067
20
72.5762
0
VERTEX
8
CUT
10
66.7843
20
72.5755
0
VERTEX
8
CUT
10
65.0604
20
72.5703
0
VERTEX
8
CUT
10
65.0380
20
72.5709
0
VERTEX
8
CUT
10
64.9920
20
72.5760
0
VERTEX
8
CUT
10
64.9470
20
72.5862
0
VERTEX
8
CUT
10
64.9256
20
72.5930
0
VERTEX
8
CUT
10
63.3100
20
73.1579
0
VERTEX
8
CUT
10
63.2904
20
73.1654
0
VERTEX
8
CUT
10
63.2513
20
73.1839
0
VERTEX
8
CUT
10
63.2170
20
73.2102
0
VERTEX
8
CUT
10
63.2015
20
73.2243
0
VERTEX
8
CUT
10
61.9465
20
74.4200
0
VERTEX
8
CUT
10
61.9314
20
74.4352
0
VERTEX
8
CUT
10
61.9029
20
74.4689
0
VERTEX
8
CUT
10
61.8782
20
74.5054
0
VERTEX
8
CUT
10
61.8678
20
74.5241
0
VERTEX
8
CUT
10
61.2327
20
75.7265
0
VERTEX
8
CUT
10
61.2253
20
75.7414
0
VERTEX
8
CUT
10
61.2118
20
75.7731
0
VERTEX
8
CUT
10
61.2020
20
75.8029
0
VERTEX
8
CUT
10
61.1957
20
75.8265
0
VERTEX
8
CUT
10
60.8634
20
77.2172
0
VERTEX
8
CUT
10
60.8595
20
77.2353
0
VERTEX
8
CUT
10
60.8542
20
77.2730
0
VERTEX
8
CUT
10
60.8631
20
77.3100
0
VERTEX
8
CUT
10
60.8687
20
77.3277
0
VERTEX
8
CUT
10
61.0040
20
77.7228
0
VERTEX
8
CUT
10
61.0701
20
77.9507
0
VERTEX
8
CUT
10
61.1143
20
78.1838
0
VERTEX
8
CUT
10
61.1363
20
78.4201
0
VERTEX
8
CUT
10
61.1730
20
79.2337
0
VERTEX
8
CUT
10
61.1742
20
79.2513
0
VERTEX
8
CUT
10
61.1790
20
79.2874
0
VERTEX
8
CUT
10
61.1901
20
79.3216
0
VERTEX
8
CUT
10
61.1966
20
79.3382
0
VERTEX
8
CUT
10
62.0913
20
81.4516
0
VERTEX
8
CUT
10
62.1001
20
81.4708
0
VERTEX
8
CUT
10
62.1426
20
81.5474
0
VERTEX
8
CUT
10
62.1543
20
81.5650
0
VERTEX
8
CUT
10
64.2829
20
84.5880
0
VERTEX
8
CUT
10
64.4130
20
84.7933
0
VERTEX
8
CUT
10
64.5225
20
85.0102
0
VERTEX
8
CUT
10
64.6105
20
85.2367
0
VERTEX
8
CUT
10
64.6760
20
85.4707
0
VERTEX
8
CUT
10
64.7185
20
85.7100
0
VERTEX
8
CUT
10
64.7376
20
85.9522
0
VERTEX
8
CUT
10
64.7331
20
86.1952
0
VERTEX
8
CUT
10
64.7050
20
86.4365
0
VERTEX
8
CUT
10
64.6537
20
86.6741
0
VERTEX
8
CUT
10
64.5795
20
86.9055
0
VERTEX
8
CUT
10
64.4832
20
87.1286
0
VERTEX
8
CUT
10
64.3657
20
87.3412
0
VERTEX
8
CUT
10
64.2280
20
87.5415
0
VERTEX
8
CUT
10
64.0716
20
87.7275
0
VERTEX
8
CUT
10
63.8979
20
87.8974
0
VERTEX
8
CUT
10
63.7085
20
88.0497
0
VERTEX
8
CUT
10
63.5052
20
88.1828
0
VERTEX
8
CUT
10
63.2900
20
88.2956
0
VERTEX
8
CUT
10
63.1353
20
88.3673
0
VERTEX
8
CUT
10
63.1273
20
88.3718
0
VERTEX
8
CUT
10
62.5595
20
88.7108
0
VERTEX
8
CUT
10
62.5435
20
88.7209
0
VERTEX
8
CUT
10
62.5121
20
88.7439
0
VERTEX
8
CUT
10
62.4830
20
88.7699
0
VERTEX
8
CUT
10
62.4699
20
88.7834
0
VERTEX
8
CUT
10
61.5367
20
89.7908
0
VERTEX
8
CUT
10
61.5248
20
89.8042
0
VERTEX
8
CUT
10
61.5022
20
89.8336
0
VERTEX
8
CUT
10
61.4854
20
89.8661
0
VERTEX
8
CUT
10
61.4782
20
89.8828
0
VERTEX
8
CUT
10
61.1949
20
90.5815
0
VERTEX
8
CUT
10
61.1885
20
90.5985
0
VERTEX
8
CUT
10
61.1776
20
90.6346
0
VERTEX
8
CUT
10
61.1735
20
90.6715
0
VERTEX
8
CUT
10
61.1728
20
90.6899
0
VERTEX
8
CUT
10
61.1527
20
91.8196
0
VERTEX
8
CUT
10
61.1529
20
91.8428
0
VERTEX
8
CUT
10
61.1624
20
91.9381
0
VERTEX
8
CUT
10
61.1667
20
91.9608
0
VERTEX
8
CUT
10
61.4683
20
93.3393
0
VERTEX
8
CUT
10
61.4723
20
93.3560
0
VERTEX
8
CUT
10
61.4830
20
93.3902
0
VERTEX
8
CUT
10
61.4966
20
93.4234
0
VERTEX
8
CUT
10
61.5040
20
93.4385
0
VERTEX
8
CUT
10
61.8443
20
94.0979
0
VERTEX
8
CUT
10
61.9631
20
94.3656
0
VERTEX
8
CUT
10
62.0498
20
94.6454
0
VERTEX
8
CUT
10
62.2092
20
95.2916
0
VERTEX
8
CUT
10
62.2505
20
95.4946
0
VERTEX
8
CUT
10
62.2748
20
95.7004
0
VERTEX
8
CUT
10
62.2820
20
95.9074
0
VERTEX
8
CUT
10
62.2760
20
96.7920
0
VERTEX
8
CUT
10
62.2636
20
97.0244
0
VERTEX
8
CUT
10
62.2296
20
97.2546
0
VERTEX
8
CUT
10
62.1744
20
97.4806
0
VERTEX
8
CUT
10
62.0984
20
97.7005
0
VERTEX
8
CUT
10
62.0023
20
97.9124
0
VERTEX
8
CUT
10
61.5365
20
98.8243
0
VERTEX
8
CUT
10
61.4244
20
99.0210
0
VERTEX
8
CUT
10
61.2951
20
99.2069
0
VERTEX
8
CUT
10
61.1494
20
99.3802
0
VERTEX
8
CUT
10
60.5768
20
100.0022
0
VERTEX
8
CUT
10
60.4023
20
100.1740
0
VERTEX
8
CUT
10
60.2119
20
100.3279
0
VERTEX
8
CUT
10
60.0073
20
100.4624
0
VERTEX
8
CUT
10
59.7905
20
100.5763
0
VERTEX
8
CUT
10
59.5636
20
100.6684
0
VERTEX
8
CUT
10
59.3288
20
100.7379
0
VERTEX
8
CUT
10
59.0884
20
100.7841
0
VERTEX
8
CUT
10
58.8445
20
100.8066
0
VERTEX
8
CUT
10
58.5997
20
100.8050
0
VERTEX
8
CUT
10
58.3562
20
100.7796
0
VERTEX
8
CUT
10
58.1163
20
100.7304
0
VERTEX
8
CUT
10
57.8824
20
100.6580
0
VERTEX
8
CUT
10
57.6567
20
100.5631
0
VERTEX
8
CUT
10
57.4413
20
100.4465
0
VERTEX
8
CUT
10
57.2384
20
100.3095
0
VERTEX
8
CUT
10
57.0499
20
100.1532
0
VERTEX
8
CUT
10
56.8776
20
99.9793
0
VERTEX
8
CUT
10
56.7231
20
99.7893
0
VERTEX
8
CUT
10
56.5879
20
99.5851
0
VERTEX
8
CUT
10
56.4734
20
99.3687
0
VERTEX
8
CUT
10
56.3805
20
99.1421
0
VERTEX
8
CUT
10
56.3103
20
98.9075
0
VERTEX
8
CUT
10
56.2605
20
98.7054
0
VERTEX
8
CUT
10
56.2476
20
98.6576
0
VERTEX
8
CUT
10
56.2329
20
98.6103
0
VERTEX
8
CUT
10
54.7757
20
94.2526
0
VERTEX
8
CUT
10
54.7449
20
94.1704
0
VERTEX
8
CUT
10
54.7082
20
94.0905
0
VERTEX
8
CUT
10
53.8791
20
92.4435
0
VERTEX
8
CUT
10
53.8552
20
92.3985
0
VERTEX
8
CUT
10
53.8296
20
92.3545
0
VERTEX
8
CUT
10
45.8441
20
79.3177
0
VERTEX
8
CUT
10
45.7404
20
79.1309
0
VERTEX
8
CUT
10
42.6702
20
72.9973
0
VERTEX
8
CUT
10
42.5431
20
72.6955
0
VERTEX
8
CUT
10
41.9038
20
70.8474
0
VERTEX
8
CUT
10
41.8721
20
70.7653
0
VERTEX
8
CUT
10
41.8345
20
70.6857
0
VERTEX
8
CUT
10
41.2327
20
69.5210
0
VERTEX
8
CUT
10
41.1261
20
69.2856
0
VERTEX
8
CUT
10
41.0444
20
69.0404
0
VERTEX
8
CUT
10
40.7428
20
67.9510
0
VERTEX
8
CUT
10
40.7368
20
67.9312
0
VERTEX
8
CUT
10
40.7056
20
67.8517
0
VERTEX
8
CUT
10
40.6965
20
67.8331
0
VERTEX
8
CUT
10
40.4449
20
67.3473
0
VERTEX
8
CUT
10
40.3490
20
67.1394
0
VERTEX
8
CUT
10
40.2726
20
66.9236
0
VERTEX
8
CUT
10
40.2162
20
66.7017
0
VERTEX
8
CUT
10
40.1803
20
66.4755
0
VERTEX
8
CUT
10
40.1483
20
66.1895
0
VERTEX
8
CUT
10
40.1459
20
66.1716
0
VERTEX
8
CUT
10
40.1384
20
66.1350
0
VERTEX
8
CUT
10
40.1245
20
66.1008
0
VERTEX
8
CUT
10
40.1165
20
66.0843
0
VERTEX
8
CUT
10
39.5790
20
65.0431
0
VERTEX
8
CUT
10
39.4830
20
64.8340
0
VERTEX
8
CUT
10
39.4066
20
64.6170
0
VERTEX
8
CUT
10
39.3505
20
64.3939
0
VERTEX
8
CUT
10
39.3151
20
64.1665
0
VERTEX
8
CUT
10
39.2857
20
63.8959
0
VERTEX
8
CUT
10
39.2835
20
63.8786
0
VERTEX
8
CUT
10
39.2764
20
63.8430
0
VERTEX
8
CUT
10
39.2661
20
63.8081
0
VERTEX
8
CUT
10
39.2603
20
63.7921
0
VERTEX
8
CUT
10
38.9178
20
62.9167
0
VERTEX
8
CUT
10
38.8333
20
62.6608
0
VERTEX
8
CUT
10
38.7768
20
62.3973
0
VERTEX
8
CUT
10
38.7490
20
62.1292
0
VERTEX
8
CUT
10
38.7097
20
61.3337
0
VERTEX
8
CUT
10
38.7081
20
61.3129
0
VERTEX
8
CUT
10
38.7015
20
61.2704
0
VERTEX
8
CUT
10
38.6904
20
61.2288
0
VERTEX
8
CUT
10
38.6835
20
61.2091
0
VERTEX
8
CUT
10
38.3352
20
60.2979
0
VERTEX
8
CUT
10
38.2518
20
60.0379
0
VERTEX
8
CUT
10
38.1972
20
59.7704
0
VERTEX
8
CUT
10
38.1722
20
59.4985
0
VERTEX
8
CUT
10
38.1346
20
58.4907
0
VERTEX
8
CUT
10
38.1332
20
58.4690
0
VERTEX
8
CUT
10
38.1266
20
58.4246
0
VERTEX
8
CUT
10
38.1152
20
58.3812
0
VERTEX
8
CUT
10
38.1080
20
58.3607
0
SEQEND
0
POLYLINE
8
CUT
66
1
70
1
10
0.0
20
0.0
30
0.0
0
VERTEX
8
CUT
10
77.5332
20
118.0886
0
VERTEX
8
CUT
10
77.3189
20
117.9737
0
VERTEX
8
CUT
10
77.1168
20
117.8385
0
VERTEX
8
CUT
10
76.9287
20
117.6843
0
VERTEX
8
CUT
10
76.7566
20
117.5125
0
VERTEX
8
CUT
10
76.6019
20
117.3249
0
VERTEX
8
CUT
10
76.4662
20
117.1231
0
VERTEX
8
CUT
10
76.3508
20
116.9091
0
VERTEX
8
CUT
10
76.2567
20
116.6848
0
VERTEX
8
CUT
10
76.1848
20
116.4525
0
VERTEX
8
CUT
10
76.1358
20
116.2143
0
VERTEX
8
CUT
10
76.1102
20
115.9725
0
VERTEX
8
CUT
10
76.1082
20
115.7293
0
VERTEX
8
CUT
10
76.1298
20
115.4871
0
VERTEX
8
CUT
10
76.1749
20
115.2482
0
VERTEX
8
CUT
10
76.2430
20
115.0147
0
VERTEX
8
CUT
10
76.3334
20
114.7890
0
VERTEX
8
CUT
10
76.4454
20
114.5731
0
VERTEX
8
CUT
10
76.5778
20
114.3691
0
VERTEX
8
CUT
10
76.7294
20
114.1790
0
VERTEX
8
CUT
10
76.8987
20
114.0045
0
VERTEX
8
CUT
10
77.0842
20
113.8472
0
VERTEX
8
CUT
10
77.5811
20
113.4659
0
VERTEX
8
CUT
10
77.7172
20
113.3685
0
VERTEX
8
CUT
10
78.2368
20
113.0224
0
VERTEX
8
CUT
10
78.4483
20
112.8961
0
VERTEX
8
CUT
10
78.6712
20
112.7913
0
VERTEX
8
CUT
10
78.9033
20
112.7089
0
VERTEX
8
CUT
10
79.1424
20
112.6497
0
VERTEX
8
CUT
10
79.3862
20
112.6144
0
VERTEX
8
CUT
10
79.6323
20
112.6032
0
VERTEX
8
CUT
10
79.8782
20
112.6163
0
VERTEX
8
CUT
10
80.1217
20
112.6535
0
VERTEX
8
CUT
10
80.3604
20
112.7145
0
VERTEX
8
CUT
10
80.5918
20
112.7987
0
VERTEX
8
CUT
10
80.8139
20
112.9052
0
VERTEX
8
CUT
10
81.0244
20
113.0331
0
VERTEX
8
CUT
10
81.2213
20
113.1811
0
VERTEX
8
CUT
10
81.4027
20
113.3478
0
VERTEX
8
CUT
10
81.5668
20
113.5315
0
VERTEX
8
CUT
10
81.7121
20
113.7304
0
VERTEX
8
CUT
10
81.8370
20
113.9427
0
VERTEX
8
CUT
10
81.9404
20
114.1663
0
VERTEX
8
CUT
10
82.0214
20
114.3989
0
VERTEX
8
CUT
10
82.0791
20
114.6384
0
VERTEX
8
CUT
10
82.1129
20
114.8824
0
VERTEX
8
CUT
10
82.1225
20
115.1285
0
VERTEX
8
CUT
10
82.1079
20
115.3744
0
VERTEX
8
CUT
10
82.0691
20
115.6176
0
VERTEX
8
CUT
10
82.0066
20
115.8559
0
VERTEX
8
CUT
10
81.9473
20
116.0158
0
VERTEX
8
CUT
10
81.9371
20
116.0491
0
VERTEX
8
CUT
10
81.9333
20
116.0919
0
VERTEX
8
CUT
10
81.9332
20
116.1128
0
VERTEX
8
CUT
10
81.9344
20
116.1776
0
VERTEX
8
CUT
10
81.9272
20
116.4194
0
VERTEX
8
CUT
10
81.8967
20
116.6594
0
VERTEX
8
CUT
10
81.8431
20
116.8953
0
VERTEX
8
CUT
10
81.7669
20
117.1250
0
VERTEX
8
CUT
10
81.6690
20
117.3462
0
VERTEX
8
CUT
10
81.5500
20
117.5569
0
VERTEX
8
CUT
10
81.4113
20
117.7551
0
VERTEX
8
CUT
10
81.2541
20
117.9390
0
VERTEX
8
CUT
10
81.0798
20
118.1068
0
VERTEX
8
CUT
10
80.8902
20
118.2570
0
VERTEX
8
CUT
10
80.6869
20
118.3882
0
VERTEX
8
CUT
10
80.4718
20
118.4991
0
VERTEX
8
CUT
10
80.2471
20
118.5886
0
VERTEX
8
CUT
10
80.0148
20
118.6561
0
VERTEX
8
CUT
10
79.7770
20
118.7008
0
VERTEX
8
CUT
10
79.5360
20
118.7222
0
VERTEX
8
CUT
10
79.2941
20
118.7203
0
VERTEX
8
CUT
10
79.0535
20
118.6950
0
VERTEX
8
CUT
10
78.8164
20
118.6466
0
VERTEX
8
CUT
10
78.5852
20
118.5755
0
VERTEX
8
CUT
10
78.3619
20
118.4823
0
SEQEND
0
POLYLINE
8
CUT
66
1
70
1
10
0.0
20
0.0
30
0.0
0
VERTEX
8
CUT
10
30.4947
20
25.5794
0
VERTEX
8
CUT
10
30.4066
20
25.3409
0
VERTEX
8
CUT
10
30.3432
20
25.0948
0
VERTEX
8
CUT
10
30.3052
20
24.8434
0
VERTEX
8
CUT
10
30.2928
20
24.5895
0
VERTEX
8
CUT
10
30.2950
20
23.6391
0
VERTEX
8
CUT
10
30.3069
20
23.4008
0
VERTEX
8
CUT
10
30.3415
20
23.1648
0
VERTEX
8
CUT
10
30.3984
20
22.9331
0
VERTEX
8
CUT
10
30.4854
20
22.6400
0
VERTEX
8
CUT
10
30.5691
20
22.4028
0
VERTEX
8
CUT
10
30.6762
20
22.1751
0
VERTEX
8
CUT
10
30.8056
20
21.9594
0
VERTEX
8
CUT
10
30.9561
20
21.7577
0
VERTEX
8
CUT
10
31.1261
20
21.5722
0
VERTEX
8
CUT
10
32.5922
20
20.1255
0
VERTEX
8
CUT
10
32.7736
20
19.9632
0
VERTEX
8
CUT
10
32.9699
20
19.8193
0
VERTEX
8
CUT
10
33.1793
20
19.6951
0
VERTEX
8
CUT
10
33.3998
20
19.5919
0
VERTEX
8
CUT
10
33.9793
20
19.3543
0
VERTEX
8
CUT
10
34.2030
20
19.2748
0
VERTEX
8
CUT
10
34.4332
20
19.2168
0
VERTEX
8
CUT
10
34.6679
20
19.1810
0
VERTEX
8
CUT
10
34.9049
20
19.1675
0
VERTEX
8
CUT
10
35.0470
20
19.1662
0
VERTEX
8
CUT
10
35.2978
20
19.1766
0
VERTEX
8
CUT
10
35.5463
20
19.2120
0
VERTEX
8
CUT
10
35.7900
20
19.2721
0
VERTEX
8
CUT
10
36.0264
20
19.3564
0
VERTEX
8
CUT
10
37.4564
20
19.9486
0
VERTEX
8
CUT
10
37.7214
20
20.0771
0
VERTEX
8
CUT
10
37.9694
20
20.2358
0
VERTEX
8
CUT
10
38.3845
20
20.5374
0
VERTEX
8
CUT
10
38.5750
20
20.6906
0
VERTEX
8
CUT
10
38.7496
20
20.8617
0
VERTEX
8
CUT
10
38.9067
20
21.0489
0
VERTEX
8
CUT
10
39.0447
20
21.2507
0
VERTEX
8
CUT
10
39.4833
20
21.9640
0
VERTEX
8
CUT
10
39.6016
20
22.1797
0
VERTEX
8
CUT
10
39.6982
20
22.4059
0
VERTEX
8
CUT
10
39.7721
20
22.6406
0
VERTEX
8
CUT
10
39.8226
20
22.8814
0
VERTEX
8
CUT
10
39.9862
20
23.9118
0
VERTEX
8
CUT
10
40.0128
20
24.1578
0
VERTEX
8
CUT
10
40.0150
20
24.4051
0
VERTEX
8
CUT
10
39.9928
20
24.6515
0
VERTEX
8
CUT
10
39.9463
20
24.8945
0
VERTEX
8
CUT
10
39.8170
20
25.4262
0
VERTEX
8
CUT
10
39.7317
20
25.7048
0
VERTEX
8
CUT
10
39.6147
20
25.9716
0
VERTEX
8
CUT
10
39.3495
20
26.4913
0
VERTEX
8
CUT
10
39.2205
20
26.7149
0
VERTEX
8
CUT
10
39.0691
20
26.9239
0
VERTEX
8
CUT
10
38.8969
20
27.1163
0
VERTEX
8
CUT
10
37.9880
20
28.0320
0
VERTEX
8
CUT
10
37.7828
20
28.2171
0
VERTEX
8
CUT
10
37.5585
20
28.3783
0
VERTEX
8
CUT
10
37.3178
20
28.5138
0
VERTEX
8
CUT
10
36.9878
20
28.6763
0
VERTEX
8
CUT
10
36.7787
20
28.7676
0
VERTEX
8
CUT
10
36.5622
20
28.8394
0
VERTEX
8
CUT
10
36.3401
20
28.8913
0
VERTEX
8
CUT
10
36.1141
20
28.9227
0
VERTEX
8
CUT
10
35.8863
20
28.9333
0
VERTEX
8
CUT
10
34.1703
20
28.9351
0
VERTEX
8
CUT
10
33.9443
20
28.9251
0
VERTEX
8
CUT
10
33.7202
20
28.8947
0
VERTEX
8
CUT
10
33.4997
20
28.8442
0
VERTEX
8
CUT
10
33.2847
20
28.7740
0
VERTEX
8
CUT
10
33.0769
20
28.6846
0
VERTEX
8
CUT
10
32.7229
20
28.5130
0
VERTEX
8
CUT
10
32.4765
20
28.3758
0
VERTEX
8
CUT
10
32.2471
20
28.2118
0
VERTEX
8
CUT
10
32.0377
20
28.0230
0
VERTEX
8
CUT
10
31.4981
20
27.4783
0
VERTEX
8
CUT
10
31.3407
20
27.3038
0
VERTEX
8
CUT
10
31.2004
20
27.1153
0
VERTEX
8
CUT
10
31.0784
20
26.9144
0
VERTEX
8
CUT
10
30.9759
20
26.7030
0
SEQEND
0
POLYLINE
8
CUT
66
1
70
1
10
0.0
20
0.0
30
0.0
0
VERTEX
8
CUT
10
20.3547
20
174.8045
0
VERTEX
8
CUT
10
20.3663
20
174.5748
0
VERTEX
8
CUT
10
20.3990
20
174.3472
0
VERTEX
8
CUT
10
20.4525
20
174.1235
0
VERTEX
8
CUT
10
20.5263
20
173.9057
0
VERTEX
8
CUT
10
20.6198
20
173.6956
0
VERTEX
8
CUT
10
21.1160
20
172.7059
0
VERTEX
8
CUT
10
21.2445
20
172.4798
0
VERTEX
8
CUT
10
21.3958
20
172.2682
0
VERTEX
8
CUT
10
21.9998
20
171.5104
0
VERTEX
8
CUT
10
22.1586
20
171.3297
0
VERTEX
8
CUT
10
22.3341
20
171.1651
0
VERTEX
8
CUT
10
22.5245
20
171.0181
0
VERTEX
8
CUT
10
22.7283
20
170.8901
0
VERTEX
8
CUT
10
22.9433
20
170.7823
0
VERTEX
8
CUT
10
24.5682
20
170.0634
0
VERTEX
8
CUT
10
24.8115
20
169.9706
0
VERTEX
8
CUT
10
25.0630
20
169.9036
0
VERTEX
8
CUT
10
25.3202
20
169.8631
0
VERTEX
8
CUT
10
25.5801
20
169.8496
0
VERTEX
8
CUT
10
26.9589
20
169.8498
0
VERTEX
8
CUT
10
27.1951
20
169.8611
0
VERTEX
8
CUT
10
27.4293
20
169.8946
0
VERTEX
8
CUT
10
27.6592
20
169.9500
0
VERTEX
8
CUT
10
27.8828
20
170.0270
0
VERTEX
8
CUT
10
28.5573
20
170.2954
0
VERTEX
8
CUT
10
28.8003
20
170.4074
0
VERTEX
8
CUT
10
29.0298
20
170.5448
0
VERTEX
8
CUT
10
29.2434
20
170.7060
0
VERTEX
8
CUT
10
30.2410
20
171.5461
0
VERTEX
8
CUT
10
30.4075
20
171.6997
0
VERTEX
8
CUT
10
30.5594
20
171.8678
0
VERTEX
8
CUT
10
30.6955
20
172.0489
0
VERTEX
8
CUT
10
30.8146
20
172.2417
0
VERTEX
8
CUT
10
30.9158
20
172.4444
0
VERTEX
8
CUT
10
31.6323
20
174.0592
0
VERTEX
8
CUT
10
31.7253
20
174.3022
0
VERTEX
8
CUT
10
31.7926
20
174.5535
0
VERTEX
8
CUT
10
31.8333
20
174.8105
0
VERTEX
8
CUT
10
31.8472
20
175.0703
0
VERTEX
8
CUT
10
31.8484
20
176.1334
0
VERTEX
8
CUT
10
31.8355
20
176.3892
0
VERTEX
8
CUT
10
31.7966
20
176.6423
0
VERTEX
8
CUT
10
31.7320
20
176.8901
0
VERTEX
8
CUT
10
31.6424
20
177.1299
0
VERTEX
8
CUT
10
31.1487
20
178.2698
0
VERTEX
8
CUT
10
31.0451
20
178.4811
0
VERTEX
8
CUT
10
30.9221
20
178.6817
0
VERTEX
8
CUT
10
30.7808
20
178.8698
0
VERTEX
8
CUT
10
30.6224
20
179.0439
0
VERTEX
8
CUT
10
29.5390
20
180.1272
0
VERTEX
8
CUT
10
29.3651
20
180.2855
0
VERTEX
8
CUT
10
29.1771
20
180.4267
0
VERTEX
8
CUT
10
28.9767
20
180.5497
0
VERTEX
8
CUT
10
28.7656
20
180.6532
0
VERTEX
8
CUT
10
27.6221
20
181.1489
0
VERTEX
8
CUT
10
27.3839
20
181.2380
0
VERTEX
8
CUT
10
27.1379
20
181.3025
0
VERTEX
8
CUT
10
26.8866
20
181.3417
0
VERTEX
8
CUT
10
26.6326
20
181.3551
0
VERTEX
8
CUT
10
25.7563
20
181.3568
0
VERTEX
8
CUT
10
25.4879
20
181.3429
0
VERTEX
8
CUT
10
25.2226
20
181.3002
0
VERTEX
8
CUT
10
24.9634
20
181.2293
0
VERTEX
8
CUT
10
23.8379
20
180.8555
0
VERTEX
8
CUT
10
23.6339
20
180.7776
0
VERTEX
8
CUT
10
23.4374
20
180.6823
0
VERTEX
8
CUT
10
23.2500
20
180.5702
0
VERTEX
8
CUT
10
22.3045
20
179.9469
0
VERTEX
8
CUT
10
22.1221
20
179.8145
0
VERTEX
8
CUT
10
21.9524
20
179.6662
0
VERTEX
8
CUT
10
21.7967
20
179.5032
0
VERTEX
8
CUT
10
21.6564
20
179.3269
0
VERTEX
8
CUT
10
21.5324
20
179.1386
0
VERTEX
8
CUT
10
21.0743
20
178.3691
0
VERTEX
8
CUT
10
20.9490
20
178.1303
0
VERTEX
8
CUT
10
20.8502
20
177.8795
0
VERTEX
8
CUT
10
20.4772
20
176.7585
0
VERTEX
8
CUT
10
20.4056
20
176.4967
0
VERTEX
8
CUT
10
20.3628
20
176.2287
0
VERTEX
8
CUT
10
20.3494
20
175.9576
0
SEQEND
0
ENDSEC
0
EOF
