0
SECTION
2
HEADER
9
$ACADVER
1
AC1009
9
$INSUNITS
70
4
0
ENDSEC
0
SECTION
2
TABLES
0
TABLE
2
LAYER
70
1
0
LAYER
2
CUT
70
0
62
7
6
CONTINUOUS
0
ENDTAB
0
ENDSEC
0
SECTION
2
ENTITIES
0
POLYLINE
8
CUT
66
1
70
1
10
0.0
20
0.0
30
0.0
0
VERTEX
8
CUT
10
250.5765
20
63.1466
0
VERTEX
8
CUT
10
250.5112
20
63.4000
0
VERTEX
8
CUT
10
250.2813
20
65.0784
0
VERTEX
8
CUT
10
250.2905
20
65.5342
0
VERTEX
8
CUT
10
250.2926
20
65.6339
0
VERTEX
8
CUT
10
250.2938
20
65.6949
0
VERTEX
8
CUT
10
250.2976
20
65.8823
0
VERTEX
8
CUT
10
250.4547
20
67.5226
0
VERTEX
8
CUT
10
251.1297
20
69.5829
0
VERTEX
8
CUT
10
252.3094
20
71.5300
0
VERTEX
8
CUT
10
253.9241
20
73.1449
0
VERTEX
8
CUT
10
255.9240
20
74.3826
0
VERTEX
8
CUT
10
257.3999
20
74.9994
0
VERTEX
8
CUT
10
258.8188
20
75.2391
0
VERTEX
8
CUT
10
261.0725
20
75.2376
0
VERTEX
8
CUT
10
262.8962
20
74.9730
0
VERTEX
8
CUT
10
264.4828
20
74.4080
0
VERTEX
8
CUT
10
265.9934
20
73.4529
0
VERTEX
8
CUT
10
267.6863
20
71.7893
0
VERTEX
8
CUT
10
268.5558
20
70.5480
0
VERTEX
8
CUT
10
269.2085
20
69.2639
0
VERTEX
8
CUT
10
269.9036
20
66.5599
0
VERTEX
8
CUT
10
269.9138
20
66.4206
0
VERTEX
8
CUT
10
269.8014
20
63.6035
0
VERTEX
8
CUT
10
269.4176
20
62.1420
0
VERTEX
8
CUT
10
269.0980
20
61.3692
0
VERTEX
8
CUT
10
268.9124
20
61.0382
0
VERTEX
8
CUT
10
268.0120
20
59.7155
0
VERTEX
8
CUT
10
267.6286
20
59.2570
0
VERTEX
8
CUT
10
267.6030
20
59.2263
0
VERTEX
8
CUT
10
267.5756
20
59.1936
0
VERTEX
8
CUT
10
267.5728
20
59.1902
0
VERTEX
8
CUT
10
266.7815
20
58.3869
0
VERTEX
8
CUT
10
266.2252
20
57.9367
0
VERTEX
8
CUT
10
266.2130
20
57.9269
0
VERTEX
8
CUT
10
266.1969
20
57.9139
0
VERTEX
8
CUT
10
265.4243
20
57.2887
0
VERTEX
8
CUT
10
264.7228
20
56.8121
0
VERTEX
8
CUT
10
263.6095
20
56.3824
0
VERTEX
8
CUT
10
262.3079
20
55.9544
0
VERTEX
8
CUT
10
260.3305
20
55.7119
0
VERTEX
8
CUT
10
258.8582
20
55.8055
0
VERTEX
8
CUT
10
257.6264
20
56.0598
0
VERTEX
8
CUT
10
256.8892
20
56.2586
0
VERTEX
8
CUT
10
255.3625
20
56.9816
0
VERTEX
8
CUT
10
253.3153
20
58.5286
0
VERTEX
8
CUT
10
251.3373
20
61.0948
0
VERTEX
8
CUT
10
250.6338
20
62.9238
0
VERTEX
8
CUT
10
250.6288
20
62.9431
0
VERTEX
8
CUT
10
250.6206
20
62.9750
0
SEQEND
0
POLYLINE
8
CUT
66
1
70
1
10
0.0
20
0.0
30
0.0
0
VERTEX
8
CUT
10
80.1209
20
114.2695
0
VERTEX
8
CUT
10
80.6476
20
115.4400
0
VERTEX
8
CUT
10
80.9109
20
116.6690
0
VERTEX
8
CUT
10
80.8913
20
116.8654
0
VERTEX
8
CUT
10
80.9310
20
117.0195
0
VERTEX
8
CUT
10
80.9627
20
118.0234
0
VERTEX
8
CUT
10
80.4703
20
119.3608
0
VERTEX
8
CUT
10
79.1810
20
120.6809
0
VERTEX
8
CUT
10
78.0486
20
121.3915
0
VERTEX
8
CUT
10
75.6434
20
122.4643
0
VERTEX
8
CUT
10
74.2002
20
123.5233
0
VERTEX
8
CUT
10
73.2244
20
125.1678
0
VERTEX
8
CUT
10
72.8012
20
127.1032
0
VERTEX
8
CUT
10
73.0163
20
128.9653
0
VERTEX
8
CUT
10
73.6682
20
130.0890
0
VERTEX
8
CUT
10
77.0776
20
132.6460
0
VERTEX
8
CUT
10
78.2774
20
133.7580
0
VERTEX
8
CUT
10
78.4783
20
134.1184
0
VERTEX
8
CUT
10
78.6795
20
134.3623
0
VERTEX
8
CUT
10
78.7599
20
134.6237
0
VERTEX
8
CUT
10
79.2723
20
135.5430
0
VERTEX
8
CUT
10
79.3015
20
136.0112
0
VERTEX
8
CUT
10
79.2096
20
136.1542
0
VERTEX
8
CUT
10
79.1827
20
137.6784
0
VERTEX
8
CUT
10
78.9703
20
138.6429
0
VERTEX
8
CUT
10
78.6228
20
139.4565
0
VERTEX
8
CUT
10
77.2961
20
141.0532
0
VERTEX
8
CUT
10
70.7830
20
145.8467
0
VERTEX
8
CUT
10
68.9982
20
147.6639
0
VERTEX
8
CUT
10
68.3684
20
148.5713
0
VERTEX
8
CUT
10
67.5782
20
150.4446
0
VERTEX
8
CUT
10
67.2731
20
152.2135
0
VERTEX
8
CUT
10
67.3289
20
153.4945
0
VERTEX
8
CUT
10
67.7198
20
154.7471
0
VERTEX
8
CUT
10
68.9120
20
156.4107
0
VERTEX
8
CUT
10
69.0054
20
156.5176
0
VERTEX
8
CUT
10
70.1133
20
157.2846
0
VERTEX
8
CUT
10
71.6642
20
157.8113
0
VERTEX
8
CUT
10
75.4682
20
158.4551
0
VERTEX
8
CUT
10
76.6680
20
158.8647
0
VERTEX
8
CUT
10
77.3410
20
159.4500
0
VERTEX
8
CUT
10
77.6368
20
159.8682
0
VERTEX
8
CUT
10
77.6522
20
159.8794
0
VERTEX
8
CUT
10
77.6690
20
159.9138
0
VERTEX
8
CUT
10
78.1896
20
160.6497
0
VERTEX
8
CUT
10
78.5700
20
161.7324
0
VERTEX
8
CUT
10
78.4529
20
162.1421
0
VERTEX
8
CUT
10
78.2552
20
162.1668
0
VERTEX
8
CUT
10
78.2412
20
162.8347
0
VERTEX
8
CUT
10
77.3549
20
164.4339
0
VERTEX
8
CUT
10
75.6105
20
165.9287
0
VERTEX
8
CUT
10
73.6838
20
166.9713
0
VERTEX
8
CUT
10
71.9212
20
168.2050
0
VERTEX
8
CUT
10
70.3061
20
170.1257
0
VERTEX
8
CUT
10
69.8801
20
171.6310
0
VERTEX
8
CUT
10
69.9110
20
172.5277
0
VERTEX
8
CUT
10
70.3650
20
174.0280
0
VERTEX
8
CUT
10
71.0451
20
174.9048
0
VERTEX
8
CUT
10
72.6298
20
175.8952
0
VERTEX
8
CUT
10
73.6832
20
176.1293
0
VERTEX
8
CUT
10
74.8830
20
176.1293
0
VERTEX
8
CUT
10
76.6680
20
175.6318
0
VERTEX
8
CUT
10
82.0229
20
173.2324
0
VERTEX
8
CUT
10
84.3053
20
172.6764
0
VERTEX
8
CUT
10
85.3880
20
172.6471
0
VERTEX
8
CUT
10
87.4364
20
173.0275
0
VERTEX
8
CUT
10
89.3384
20
173.9639
0
VERTEX
8
CUT
10
90.0699
20
174.6077
0
VERTEX
8
CUT
10
90.5381
20
175.4563
0
VERTEX
8
CUT
10
90.5103
20
175.4840
0
VERTEX
8
CUT
10
90.7969
20
175.8604
0
VERTEX
8
CUT
10
91.0894
20
176.7182
0
VERTEX
8
CUT
10
91.0938
20
177.5121
0
VERTEX
8
CUT
10
90.7448
20
178.5179
0
VERTEX
8
CUT
10
89.9580
20
179.5178
0
VERTEX
8
CUT
10
85.2775
20
182.2420
0
VERTEX
8
CUT
10
83.6589
20
183.9207
0
VERTEX
8
CUT
10
83.2597
20
184.7786
0
VERTEX
8
CUT
10
83.1051
20
185.6832
0
VERTEX
8
CUT
10
83.2185
20
186.6246
0
VERTEX
8
CUT
10
83.9254
20
188.0469
0
VERTEX
8
CUT
10
84.6857
20
189.0923
0
VERTEX
8
CUT
10
84.7443
20
189.6190
0
VERTEX
8
CUT
10
84.4809
20
189.8239
0
VERTEX
8
CUT
10
84.1005
20
189.8824
0
VERTEX
8
CUT
10
84.0922
20
189.8783
0
VERTEX
8
CUT
10
75.2901
20
192.5201
0
VERTEX
8
CUT
10
69.9959
20
194.5202
0
VERTEX
8
CUT
10
63.1241
20
197.8109
0
VERTEX
8
CUT
10
60.0856
20
199.7311
0
VERTEX
8
CUT
10
59.3327
20
200.3384
0
VERTEX
8
CUT
10
58.9952
20
200.9344
0
VERTEX
8
CUT
10
59.3441
20
201.2997
0
VERTEX
8
CUT
10
61.0110
20
201.1161
0
VERTEX
8
CUT
10
76.8927
20
196.5534
0
VERTEX
8
CUT
10
82.0655
20
195.3209
0
VERTEX
8
CUT
10
82.8365
20
195.1186
0
VERTEX
8
CUT
10
83.6022
20
194.9548
0
VERTEX
8
CUT
10
87.4443
20
194.0394
0
VERTEX
8
CUT
10
89.7255
20
193.6450
0
VERTEX
8
CUT
10
92.5132
20
193.0487
0
VERTEX
8
CUT
10
93.2244
20
193.0400
0
VERTEX
8
CUT
10
97.0272
20
192.3825
0
VERTEX
8
CUT
10
97.3471
20
192.4786
0
VERTEX
8
CUT
10
97.4750
20
192.7871
0
VERTEX
8
CUT
10
97.3169
20
193.0813
0
VERTEX
8
CUT
10
96.1696
20
193.7178
0
VERTEX
8
CUT
10
96.0257
20
195.5805
0
VERTEX
8
CUT
10
95.0894
20
197.2653
0
VERTEX
8
CUT
10
91.2381
20
201.3214
0
VERTEX
8
CUT
10
88.5848
20
203.3689
0
VERTEX
8
CUT
10
81.1458
20
207.8210
0
VERTEX
8
CUT
10
73.2603
20
213.2739
0
VERTEX
8
CUT
10
66.9811
20
218.5270
0
VERTEX
8
CUT
10
64.8513
20
220.7190
0
VERTEX
8
CUT
10
64.5905
20
221.4971
0
VERTEX
8
CUT
10
64.8455
20
221.7154
0
VERTEX
8
CUT
10
65.3553
20
221.6911
0
VERTEX
8
CUT
10
65.6704
20
221.5547
0
VERTEX
8
CUT
10
65.7825
20
221.4560
0
VERTEX
8
CUT
10
81.3791
20
212.5019
0
VERTEX
8
CUT
10
88.3435
20
208.7856
0
VERTEX
8
CUT
10
89.5731
20
208.2709
0
VERTEX
8
CUT
10
89.8840
20
208.1042
0
VERTEX
8
CUT
10
90.6437
20
207.7775
0
VERTEX
8
CUT
10
90.9746
20
207.8320
0
VERTEX
8
CUT
10
91.1384
20
208.2005
0
VERTEX
8
CUT
10
90.6994
20
209.0173
0
VERTEX
8
CUT
10
90.7048
20
209.2112
0
VERTEX
8
CUT
10
91.1819
20
209.9268
0
VERTEX
8
CUT
10
94.7518
20
214.0820
0
VERTEX
8
CUT
10
94.8498
20
214.6108
0
VERTEX
8
CUT
10
95.0682
20
215.0677
0
VERTEX
8
CUT
10
95.2698
20
216.1872
0
VERTEX
8
CUT
10
95.1861
20
217.3537
0
VERTEX
8
CUT
10
94.8077
20
218.7774
0
VERTEX
8
CUT
10
92.0184
20
225.0489
0
VERTEX
8
CUT
10
91.3906
20
227.1010
0
VERTEX
8
CUT
10
91.2647
20
228.0241
0
VERTEX
8
CUT
10
91.3823
20
229.5237
0
VERTEX
8
CUT
10
92.0855
20
231.0547
0
VERTEX
8
CUT
10
92.6535
20
231.6728
0
VERTEX
8
CUT
10
94.0677
20
232.4513
0
VERTEX
8
CUT
10
94.9017
20
232.6685
0
VERTEX
8
CUT
10
96.5369
20
232.5494
0
VERTEX
8
CUT
10
98.0702
20
231.7485
0
VERTEX
8
CUT
10
101.0057
20
228.4334
0
VERTEX
8
CUT
10
102.4553
20
227.2941
0
VERTEX
8
CUT
10
103.8315
20
227.0002
0
VERTEX
8
CUT
10
104.4046
20
227.1559
0
VERTEX
8
CUT
10
104.5075
20
227.1490
0
VERTEX
8
CUT
10
105.1579
20
227.3379
0
VERTEX
8
CUT
10
105.2187
20
227.3833
0
VERTEX
8
CUT
10
106.0487
20
227.8498
0
VERTEX
8
CUT
10
106.7336
20
228.5356
0
VERTEX
8
CUT
10
107.2002
20
229.3853
0
VERTEX
8
CUT
10
107.7351
20
231.5386
0
VERTEX
8
CUT
10
107.5691
20
234.3310
0
VERTEX
8
CUT
10
106.9804
20
236.8474
0
VERTEX
8
CUT
10
106.6565
20
239.4057
0
VERTEX
8
CUT
10
106.8657
20
241.7456
0
VERTEX
8
CUT
10
107.1882
20
242.5730
0
VERTEX
8
CUT
10
108.1831
20
244.0755
0
VERTEX
8
CUT
10
109.7047
20
245.1875
0
VERTEX
8
CUT
10
110.6703
20
245.3630
0
VERTEX
8
CUT
10
112.1920
20
245.3045
0
VERTEX
8
CUT
10
113.5965
20
244.7485
0
VERTEX
8
CUT
10
116.3700
20
242.6054
0
VERTEX
8
CUT
10
116.5588
20
242.4402
0
VERTEX
8
CUT
10
116.6510
20
242.3882
0
VERTEX
8
CUT
10
117.4591
20
241.7638
0
VERTEX
8
CUT
10
119.0100
20
241.0908
0
VERTEX
8
CUT
10
120.2390
20
241.0030
0
VERTEX
8
CUT
10
121.4680
20
241.1786
0
VERTEX
8
CUT
10
122.2802
20
241.5982
0
VERTEX
8
CUT
10
122.3690
20
241.6240
0
VERTEX
8
CUT
10
122.4238
20
241.6724
0
VERTEX
8
CUT
10
123.2237
20
242.0857
0
VERTEX
8
CUT
10
123.9776
20
243.0452
0
VERTEX
8
CUT
10
124.2597
20
243.2944
0
VERTEX
8
CUT
10
124.3986
20
243.5811
0
VERTEX
8
CUT
10
124.8331
20
244.1340
0
VERTEX
8
CUT
10
125.3306
20
245.3923
0
VERTEX
8
CUT
10
125.3013
20
245.8020
0
VERTEX
8
CUT
10
125.1235
20
245.9007
0
VERTEX
8
CUT
10
125.2688
20
246.7967
0
VERTEX
8
CUT
10
125.6209
20
253.2685
0
VERTEX
8
CUT
10
126.0523
20
255.3347
0
VERTEX
8
CUT
10
127.1155
20
257.0093
0
VERTEX
8
CUT
10
127.9284
20
257.7381
0
VERTEX
8
CUT
10
128.0040
20
257.7913
0
VERTEX
8
CUT
10
128.9005
20
258.2676
0
VERTEX
8
CUT
10
129.9247
20
258.4724
0
VERTEX
8
CUT
10
130.9489
20
258.4139
0
VERTEX
8
CUT
10
131.9438
20
258.0627
0
VERTEX
8
CUT
10
132.3983
20
257.7294
0
VERTEX
8
CUT
10
133.2446
20
256.8832
0
VERTEX
8
CUT
10
133.4978
20
256.5625
0
VERTEX
8
CUT
10
134.2466
20
254.9194
0
VERTEX
8
CUT
10
134.4702
20
252.9478
0
VERTEX
8
CUT
10
134.5350
20
252.7564
0
VERTEX
8
CUT
10
134.4603
20
252.5322
0
VERTEX
8
CUT
10
134.6651
20
251.6836
0
VERTEX
8
CUT
10
135.5137
20
250.2205
0
VERTEX
8
CUT
10
136.5964
20
249.1671
0
VERTEX
8
CUT
10
137.6206
20
248.7574
0
VERTEX
8
CUT
10
138.0362
20
248.7302
0
VERTEX
8
CUT
10
138.2440
20
248.6447
0
VERTEX
8
CUT
10
139.4850
20
248.6150
0
VERTEX
8
CUT
10
139.7415
20
248.7160
0
VERTEX
8
CUT
10
140.5760
20
248.9037
0
VERTEX
8
CUT
10
141.9221
20
249.6353
0
VERTEX
8
CUT
10
143.3267
20
250.9813
0
VERTEX
8
CUT
10
144.5264
20
252.8834
0
VERTEX
8
CUT
10
145.0224
20
254.1158
0
VERTEX
8
CUT
10
145.1006
20
254.2701
0
VERTEX
8
CUT
10
145.1902
20
254.5328
0
VERTEX
8
CUT
10
145.4920
20
255.2828
0
VERTEX
8
CUT
10
145.6587
20
255.9062
0
VERTEX
8
CUT
10
145.7896
20
256.2900
0
VERTEX
8
CUT
10
145.8149
20
256.4907
0
VERTEX
8
CUT
10
146.2821
20
258.2383
0
VERTEX
8
CUT
10
146.3406
20
259.3502
0
VERTEX
8
CUT
10
146.1717
20
259.3165
0
VERTEX
8
CUT
10
146.3354
20
260.6134
0
VERTEX
8
CUT
10
146.8333
20
271.6783
0
VERTEX
8
CUT
10
147.4900
20
274.6595
0
VERTEX
8
CUT
10
147.5111
20
274.6542
0
VERTEX
8
CUT
10
148.4475
20
276.0588
0
VERTEX
8
CUT
10
149.7058
20
277.2586
0
VERTEX
8
CUT
10
150.8177
20
277.8145
0
VERTEX
8
CUT
10
151.9882
20
277.9901
0
VERTEX
8
CUT
10
153.1294
20
277.8438
0
VERTEX
8
CUT
10
154.2121
20
277.3756
0
VERTEX
8
CUT
10
154.6007
20
277.0478
0
VERTEX
8
CUT
10
155.3539
20
276.2964
0
VERTEX
8
CUT
10
155.5697
20
275.9927
0
VERTEX
8
CUT
10
155.5853
20
275.9708
0
VERTEX
8
CUT
10
155.5857
20
275.9702
0
VERTEX
8
CUT
10
156.1506
20
274.9505
0
VERTEX
8
CUT
10
156.5873
20
273.8734
0
VERTEX
8
CUT
10
156.8214
20
272.5519
0
VERTEX
8
CUT
10
156.9682
20
268.2181
0
VERTEX
8
CUT
10
157.2310
20
266.0195
0
VERTEX
8
CUT
10
157.1090
20
265.9342
0
VERTEX
8
CUT
10
157.2553
20
264.4711
0
VERTEX
8
CUT
10
158.1039
20
262.2764
0
VERTEX
8
CUT
10
158.6869
20
261.2633
0
VERTEX
8
CUT
10
158.7976
20
261.0165
0
VERTEX
8
CUT
10
158.8975
20
260.8971
0
VERTEX
8
CUT
10
159.3329
20
260.1403
0
VERTEX
8
CUT
10
160.6205
20
258.7650
0
VERTEX
8
CUT
10
161.9080
20
257.8286
0
VERTEX
8
CUT
10
162.4467
20
257.5593
0
VERTEX
8
CUT
10
162.6819
20
257.4148
0
VERTEX
8
CUT
10
162.8437
20
257.3608
0
VERTEX
8
CUT
10
163.4296
20
257.0678
0
VERTEX
8
CUT
10
170.3647
20
254.7269
0
VERTEX
8
CUT
10
171.6815
20
253.9368
0
VERTEX
8
CUT
10
173.4079
20
252.2981
0
VERTEX
8
CUT
10
175.1158
20
249.5940
0
VERTEX
8
CUT
10
175.3201
20
249.0953
0
VERTEX
8
CUT
10
176.7438
20
245.2460
0
VERTEX
8
CUT
10
177.8265
20
242.9050
0
VERTEX
8
CUT
10
178.4992
20
242.2577
0
VERTEX
8
CUT
10
178.5746
20
242.1401
0
VERTEX
8
CUT
10
179.2108
20
241.5552
0
VERTEX
8
CUT
10
179.2555
20
241.5300
0
VERTEX
8
CUT
10
179.3774
20
241.4127
0
VERTEX
8
CUT
10
180.1089
20
241.0030
0
VERTEX
8
CUT
10
181.5720
20
240.6811
0
VERTEX
8
CUT
10
182.9473
20
241.0030
0
VERTEX
8
CUT
10
183.5618
20
241.4127
0
VERTEX
8
CUT
10
184.4982
20
242.5246
0
VERTEX
8
CUT
10
185.0249
20
243.6658
0
VERTEX
8
CUT
10
185.0116
20
243.7722
0
VERTEX
8
CUT
10
186.2149
20
246.2041
0
VERTEX
8
CUT
10
186.4588
20
246.5628
0
VERTEX
8
CUT
10
187.4829
20
247.5577
0
VERTEX
8
CUT
10
188.3315
20
248.1137
0
VERTEX
8
CUT
10
189.2972
20
248.2892
0
VERTEX
8
CUT
10
190.8773
20
248.1429
0
VERTEX
8
CUT
10
191.9307
20
247.7333
0
VERTEX
8
CUT
10
192.8671
20
247.0602
0
VERTEX
8
CUT
10
193.5475
20
246.2490
0
VERTEX
8
CUT
10
194.3896
20
244.7623
0
VERTEX
8
CUT
10
194.8029
20
241.9563
0
VERTEX
8
CUT
10
194.5041
20
239.6631
0
VERTEX
8
CUT
10
192.9032
20
233.7864
0
VERTEX
8
CUT
10
192.7282
20
232.4920
0
VERTEX
8
CUT
10
192.7014
20
231.2974
0
VERTEX
8
CUT
10
193.0667
20
229.7841
0
VERTEX
8
CUT
10
193.0720
20
229.6201
0
VERTEX
8
CUT
10
193.5694
20
228.4496
0
VERTEX
8
CUT
10
194.5643
20
227.4255
0
VERTEX
8
CUT
10
195.4714
20
226.9573
0
VERTEX
8
CUT
10
196.8760
20
226.6354
0
VERTEX
8
CUT
10
200.7093
20
227.7181
0
VERTEX
8
CUT
10
202.8162
20
227.9229
0
VERTEX
8
CUT
10
204.6012
20
227.0743
0
VERTEX
8
CUT
10
205.3034
20
226.4306
0
VERTEX
8
CUT
10
205.7389
20
225.7180
0
VERTEX
8
CUT
10
206.1203
20
224.8170
0
VERTEX
8
CUT
10
206.2742
20
222.9177
0
VERTEX
8
CUT
10
205.8006
20
220.8230
0
VERTEX
8
CUT
10
204.8353
20
217.9860
0
VERTEX
8
CUT
10
204.6661
20
216.5990
0
VERTEX
8
CUT
10
204.8557
20
214.8252
0
VERTEX
8
CUT
10
204.8353
20
214.7843
0
VERTEX
8
CUT
10
204.9816
20
214.1113
0
VERTEX
8
CUT
10
205.5961
20
213.2042
0
VERTEX
8
CUT
10
208.3467
20
210.4243
0
VERTEX
8
CUT
10
209.1827
20
208.9786
0
VERTEX
8
CUT
10
209.0760
20
208.3259
0
VERTEX
8
CUT
10
209.2310
20
208.0335
0
VERTEX
8
CUT
10
209.6942
20
208.0941
0
VERTEX
8
CUT
10
209.7513
20
207.9955
0
VERTEX
8
CUT
10
210.2780
20
208.0833
0
VERTEX
8
CUT
10
217.7105
20
212.0922
0
VERTEX
8
CUT
10
234.3313
20
221.5731
0
VERTEX
8
CUT
10
234.5870
20
221.7606
0
VERTEX
8
CUT
10
234.8916
20
221.8408
0
VERTEX
8
CUT
10
235.2650
20
221.6299
0
VERTEX
8
CUT
10
235.3235
20
221.3434
0
VERTEX
8
CUT
10
235.0171
20
220.7189
0
VERTEX
8
CUT
10
233.5746
20
219.1445
0
VERTEX
8
CUT
10
231.6252
20
217.3136
0
VERTEX
8
CUT
10
227.0789
20
213.5892
0
VERTEX
8
CUT
10
221.8617
20
209.8672
0
VERTEX
8
CUT
10
216.1856
20
206.2392
0
VERTEX
8
CUT
10
211.2871
20
203.4225
0
VERTEX
8
CUT
10
208.3608
20
201.2473
0
VERTEX
8
CUT
10
205.7405
20
198.7427
0
VERTEX
8
CUT
10
203.9020
20
196.6456
0
VERTEX
8
CUT
10
203.5185
20
195.7080
0
VERTEX
8
CUT
10
203.5843
20
194.7103
0
VERTEX
8
CUT
10
203.5770
20
194.4765
0
VERTEX
8
CUT
10
203.6023
20
194.4375
0
VERTEX
8
CUT
10
203.6369
20
193.9135
0
VERTEX
8
CUT
10
203.1066
20
192.9059
0
VERTEX
8
CUT
10
203.2309
20
192.5987
0
VERTEX
8
CUT
10
203.5467
20
192.4984
0
VERTEX
8
CUT
10
205.3185
20
192.8076
0
VERTEX
8
CUT
10
205.4205
20
192.7501
0
VERTEX
8
CUT
10
206.5617
20
192.7793
0
VERTEX
8
CUT
10
215.9255
20
194.6521
0
VERTEX
8
CUT
10
225.5234
20
197.0808
0
VERTEX
8
CUT
10
237.9598
20
200.7386
0
VERTEX
8
CUT
10
238.8090
20
201.0503
0
VERTEX
8
CUT
10
240.5249
20
201.2689
0
VERTEX
8
CUT
10
240.8860
20
201.0930
0
VERTEX
8
CUT
10
241.0042
20
200.7750
0
VERTEX
8
CUT
10
240.5303
20
200.0638
0
VERTEX
8
CUT
10
237.8063
20
198.3360
0
VERTEX
8
CUT
10
230.8998
20
194.9264
0
VERTEX
8
CUT
10
225.2952
20
192.6967
0
VERTEX
8
CUT
10
215.2897
20
189.6750
0
VERTEX
8
CUT
10
215.1472
20
189.2029
0
VERTEX
8
CUT
10
216.2493
20
187.7695
0
VERTEX
8
CUT
10
216.6829
20
186.6621
0
VERTEX
8
CUT
10
216.7770
20
185.5556
0
VERTEX
8
CUT
10
216.5109
20
184.4418
0
VERTEX
8
CUT
10
215.9163
20
183.4352
0
VERTEX
8
CUT
10
214.9848
20
182.4775
0
VERTEX
8
CUT
10
213.8066
20
181.6542
0
VERTEX
8
CUT
10
211.3220
20
180.4963
0
VERTEX
8
CUT
10
209.8794
20
179.4723
0
VERTEX
8
CUT
10
209.0065
20
178.3773
0
VERTEX
8
CUT
10
208.7367
20
177.1985
0
VERTEX
8
CUT
10
208.9746
20
176.1816
0
VERTEX
8
CUT
10
208.9612
20
176.1586
0
VERTEX
8
CUT
10
209.0782
20
175.6026
0
VERTEX
8
CUT
10
209.5757
20
174.8418
0
VERTEX
8
CUT
10
210.7169
20
173.7591
0
VERTEX
8
CUT
10
213.2920
20
172.7642
0
VERTEX
8
CUT
10
214.9891
20
172.5593
0
VERTEX
8
CUT
10
216.8034
20
172.8812
0
VERTEX
8
CUT
10
218.4128
20
173.4079
0
VERTEX
8
CUT
10
222.3924
20
175.1929
0
VERTEX
8
CUT
10
224.5039
20
175.9228
0
VERTEX
8
CUT
10
225.8211
20
176.1434
0
VERTEX
8
CUT
10
227.3377
20
175.8952
0
VERTEX
8
CUT
10
229.2059
20
174.5979
0
VERTEX
8
CUT
10
229.4486
20
174.2761
0
VERTEX
8
CUT
10
229.9462
20
173.1939
0
VERTEX
8
CUT
10
230.0928
20
172.1441
0
VERTEX
8
CUT
10
229.9701
20
171.0489
0
VERTEX
8
CUT
10
229.5740
20
169.9511
0
VERTEX
8
CUT
10
228.9089
20
168.8919
0
VERTEX
8
CUT
10
226.8038
20
166.9301
0
VERTEX
8
CUT
10
224.0338
20
165.1489
0
VERTEX
8
CUT
10
222.9554
20
164.2190
0
VERTEX
8
CUT
10
222.1728
20
163.2160
0
VERTEX
8
CUT
10
221.7757
20
162.2997
0
VERTEX
8
CUT
10
221.6479
20
161.3252
0
VERTEX
8
CUT
10
221.6685
20
161.2285
0
VERTEX
8
CUT
10
221.6609
20
161.2057
0
VERTEX
8
CUT
10
221.7779
20
160.2401
0
VERTEX
8
CUT
10
222.0998
20
159.5670
0
VERTEX
8
CUT
10
223.2410
20
158.3966
0
VERTEX
8
CUT
10
224.9089
20
157.5772
0
VERTEX
8
CUT
10
227.9814
20
157.1968
0
VERTEX
8
CUT
10
229.5616
20
156.7871
0
VERTEX
8
CUT
10
230.6735
20
156.1434
0
VERTEX
8
CUT
10
231.6977
20
155.2655
0
VERTEX
8
CUT
10
232.4585
20
154.4169
0
VERTEX
8
CUT
10
232.8389
20
153.6561
0
VERTEX
8
CUT
10
232.8455
20
153.6552
0
VERTEX
8
CUT
10
233.2726
20
152.5217
0
VERTEX
8
CUT
10
233.2495
20
150.0474
0
VERTEX
8
CUT
10
232.3746
20
147.7543
0
VERTEX
8
CUT
10
230.5714
20
145.5914
0
VERTEX
8
CUT
10
227.8147
20
143.5099
0
VERTEX
8
CUT
10
222.2315
20
140.0323
0
VERTEX
8
CUT
10
221.3938
20
139.2470
0
VERTEX
8
CUT
10
220.1163
20
137.3034
0
VERTEX
8
CUT
10
219.7176
20
135.6510
0
VERTEX
8
CUT
10
219.6125
20
135.4259
0
VERTEX
8
CUT
10
219.7003
20
134.6944
0
VERTEX
8
CUT
10
220.0515
20
133.7873
0
VERTEX
8
CUT
10
220.7830
20
132.7046
0
VERTEX
8
CUT
10
221.6316
20
132.0315
0
VERTEX
8
CUT
10
224.9382
20
130.5099
0
VERTEX
8
CUT
10
226.8110
20
128.6957
0
VERTEX
8
CUT
10
226.8265
20
128.6875
0
VERTEX
8
CUT
10
226.9301
20
128.4971
0
VERTEX
8
CUT
10
227.1087
20
126.2377
0
VERTEX
8
CUT
10
226.7055
20
124.7980
0
VERTEX
8
CUT
10
225.8282
20
123.6712
0
VERTEX
8
CUT
10
220.3822
20
120.3343
0
VERTEX
8
CUT
10
219.2742
20
119.1894
0
VERTEX
8
CUT
10
218.9465
20
118.0453
0
VERTEX
8
CUT
10
219.3680
20
114.8339
0
VERTEX
8
CUT
10
219.3199
20
114.7377
0
VERTEX
8
CUT
10
219.4955
20
114.1525
0
VERTEX
8
CUT
10
221.9535
20
107.9782
0
VERTEX
8
CUT
10
222.0046
20
107.8709
0
VERTEX
8
CUT
10
222.5408
20
105.9940
0
VERTEX
8
CUT
10
223.0990
20
102.7283
0
VERTEX
8
CUT
10
223.4931
20
98.2910
0
VERTEX
8
CUT
10
223.4166
20
97.0928
0
VERTEX
8
CUT
10
223.5629
20
96.2735
0
VERTEX
8
CUT
10
223.6740
20
96.2539
0
VERTEX
8
CUT
10
224.0051
20
92.5255
0
VERTEX
8
CUT
10
224.6778
20
87.7007
0
VERTEX
8
CUT
10
226.2629
20
80.8006
0
VERTEX
8
CUT
10
226.2550
20
80.5305
0
VERTEX
8
CUT
10
226.7232
20
78.0140
0
VERTEX
8
CUT
10
227.9829
20
73.3137
0
VERTEX
8
CUT
10
230.2379
20
63.4975
0
VERTEX
8
CUT
10
230.6491
20
60.1726
0
VERTEX
8
CUT
10
230.7370
20
55.1315
0
VERTEX
8
CUT
10
230.4730
20
52.1578
0
VERTEX
8
CUT
10
229.8520
20
49.8670
0
VERTEX
8
CUT
10
228.8033
20
48.0185
0
VERTEX
8
CUT
10
226.9375
20
46.2541
0
VERTEX
8
CUT
10
225.0657
20
45.4517
0
VERTEX
8
CUT
10
222.6235
20
45.3849
0
VERTEX
8
CUT
10
219.5990
20
46.1270
0
VERTEX
8
CUT
10
216.0315
20
47.9125
0
VERTEX
8
CUT
10
212.1264
20
50.5574
0
VERTEX
8
CUT
10
207.9834
20
54.0002
0
VERTEX
8
CUT
10
203.5949
20
58.1530
0
VERTEX
8
CUT
10
199.1991
20
62.8720
0
VERTEX
8
CUT
10
194.8311
20
68.0912
0
VERTEX
8
CUT
10
188.5639
20
76.7900
0
VERTEX
8
CUT
10
179.1989
20
92.0951
0
VERTEX
8
CUT
10
178.0960
20
93.5420
0
VERTEX
8
CUT
10
176.7336
20
94.6522
0
VERTEX
8
CUT
10
175.7341
20
95.0050
0
VERTEX
8
CUT
10
174.8930
20
94.8857
0
VERTEX
8
CUT
10
174.1614
20
94.2189
0
VERTEX
8
CUT
10
173.9141
20
93.3916
0
VERTEX
8
CUT
10
174.2747
20
91.5286
0
VERTEX
8
CUT
10
176.0454
20
87.1383
0
VERTEX
8
CUT
10
176.2200
20
85.7676
0
VERTEX
8
CUT
10
175.7506
20
84.0172
0
VERTEX
8
CUT
10
174.8536
20
82.8819
0
VERTEX
8
CUT
10
173.5857
20
82.2836
0
VERTEX
8
CUT
10
171.8758
20
82.1978
0
VERTEX
8
CUT
10
170.3607
20
82.9587
0
VERTEX
8
CUT
10
168.8925
20
84.5858
0
VERTEX
8
CUT
10
168.4390
20
85.3510
0
VERTEX
8
CUT
10
167.8263
20
87.1598
0
VERTEX
8
CUT
10
166.8820
20
95.0560
0
VERTEX
8
CUT
10
166.1821
20
97.6752
0
VERTEX
8
CUT
10
165.1765
20
99.3470
0
VERTEX
8
CUT
10
162.3700
20
101.3121
0
VERTEX
8
CUT
10
161.4716
20
102.5043
0
VERTEX
8
CUT
10
160.9385
20
104.2385
0
VERTEX
8
CUT
10
160.3873
20
108.6561
0
VERTEX
8
CUT
10
160.0035
20
109.9633
0
VERTEX
8
CUT
10
159.0917
20
111.0447
0
VERTEX
8
CUT
10
157.8539
20
111.3677
0
VERTEX
8
CUT
10
157.1351
20
111.1359
0
VERTEX
8
CUT
10
156.5305
20
110.5610
0
VERTEX
8
CUT
10
155.6379
20
108.7442
0
VERTEX
8
CUT
10
155.4764
20
107.4310
0
VERTEX
8
CUT
10
155.8264
20
101.2494
0
VERTEX
8
CUT
10
155.7683
20
97.8237
0
VERTEX
8
CUT
10
155.1029
20
95.7424
0
VERTEX
8
CUT
10
153.8274
20
94.1941
0
VERTEX
8
CUT
10
152.1783
20
93.2096
0
VERTEX
8
CUT
10
150.6635
20
93.0205
0
VERTEX
8
CUT
10
149.1311
20
93.5467
0
VERTEX
8
CUT
10
147.4342
20
94.7085
0
VERTEX
8
CUT
10
146.6983
20
95.7648
0
VERTEX
8
CUT
10
146.2218
20
97.1143
0
VERTEX
8
CUT
10
145.4570
20
103.6910
0
VERTEX
8
CUT
10
144.8379
20
105.8845
0
VERTEX
8
CUT
10
144.1258
20
106.7344
0
VERTEX
8
CUT
10
142.8952
20
107.4205
0
VERTEX
8
CUT
10
141.7874
20
107.4545
0
VERTEX
8
CUT
10
140.6036
20
106.9707
0
VERTEX
8
CUT
10
139.9068
20
106.1716
0
VERTEX
8
CUT
10
137.5921
20
102.5096
0
VERTEX
8
CUT
10
135.7832
20
100.2640
0
VERTEX
8
CUT
10
134.8974
20
98.6117
0
VERTEX
8
CUT
10
134.6395
20
97.1396
0
VERTEX
8
CUT
10
134.6398
20
94.5229
0
VERTEX
8
CUT
10
135.5185
20
89.7008
0
VERTEX
8
CUT
10
135.5772
20
86.9035
0
VERTEX
8
CUT
10
134.9674
20
84.6760
0
VERTEX
8
CUT
10
134.3285
20
83.7035
0
VERTEX
8
CUT
10
133.5871
20
82.9891
0
VERTEX
8
CUT
10
132.7046
20
82.4766
0
VERTEX
8
CUT
10
131.8022
20
82.2323
0
VERTEX
8
CUT
10
130.7892
20
82.2568
0
VERTEX
8
CUT
10
129.0070
20
83.0372
0
VERTEX
8
CUT
10
128.1805
20
83.8827
0
VERTEX
8
CUT
10
127.4149
20
85.5525
0
VERTEX
8
CUT
10
127.3447
20
86.9607
0
VERTEX
8
CUT
10
128.5227
20
91.4208
0
VERTEX
8
CUT
10
128.6862
20
92.7082
0
VERTEX
8
CUT
10
128.4669
20
93.5844
0
VERTEX
8
CUT
10
127.4798
20
94.6178
0
VERTEX
8
CUT
10
126.5128
20
94.9797
0
VERTEX
8
CUT
10
125.3001
20
94.7355
0
VERTEX
8
CUT
10
124.0876
20
94.1180
0
VERTEX
8
CUT
10
122.5746
20
92.8389
0
VERTEX
8
CUT
10
120.7252
20
90.5830
0
VERTEX
8
CUT
10
110.7870
20
75.7918
0
VERTEX
8
CUT
10
105.8281
20
68.9553
0
VERTEX
8
CUT
10
101.1950
20
63.3553
0
VERTEX
8
CUT
10
94.1399
20
56.0661
0
VERTEX
8
CUT
10
88.5647
20
51.1945
0
VERTEX
8
CUT
10
83.5779
20
47.7441
0
VERTEX
8
CUT
10
80.5097
20
46.1661
0
VERTEX
8
CUT
10
78.8746
20
45.5987
0
VERTEX
8
CUT
10
76.4485
20
45.3532
0
VERTEX
8
CUT
10
74.6862
20
45.4763
0
VERTEX
8
CUT
10
72.9375
20
46.2764
0
VERTEX
8
CUT
10
71.3963
20
47.6404
0
VERTEX
8
CUT
10
70.1943
20
49.5259
0
VERTEX
8
CUT
10
69.4789
20
51.3965
0
VERTEX
8
CUT
10
69.2021
20
53.4733
0
VERTEX
8
CUT
10
69.1428
20
57.6413
0
VERTEX
8
CUT
10
69.4357
20
64.2445
0
VERTEX
8
CUT
10
70.6678
20
71.2343
0
VERTEX
8
CUT
10
74.2391
20
85.4328
0
VERTEX
8
CUT
10
75.3773
20
90.7436
0
VERTEX
8
CUT
10
76.0491
20
95.5593
0
VERTEX
8
CUT
10
76.7534
20
103.2710
0
VERTEX
8
CUT
10
77.2256
20
106.1871
0
VERTEX
8
CUT
10
78.3516
20
110.1277
0
VERTEX
8
CUT
10
78.5407
20
110.6411
0
VERTEX
8
CUT
10
78.5420
20
110.6501
0
VERTEX
8
CUT
10
79.8880
20
113.9978
0
SEQEND
0
POLYLINE
8
CUT
66
1
70
1
10
0.0
20
0.0
30
0.0
0
VERTEX
8
CUT
10
195.3836
20
202.7284
0
VERTEX
8
CUT
10
195.0325
20
202.3480
0
VERTEX
8
CUT
10
195.1203
20
201.5872
0
VERTEX
8
CUT
10
195.5300
20
201.2068
0
VERTEX
8
CUT
10
197.3442
20
201.8798
0
VERTEX
8
CUT
10
205.2449
20
205.5961
0
VERTEX
8
CUT
10
206.6202
20
206.5617
0
VERTEX
8
CUT
10
206.0057
20
206.7373
0
VERTEX
8
CUT
10
205.1864
20
206.5032
0
VERTEX
8
CUT
10
200.0948
20
204.1037
0
VERTEX
8
CUT
10
196.7297
20
202.9332
0
SEQEND
0
POLYLINE
8
CUT
66
1
70
1
10
0.0
20
0.0
30
0.0
0
VERTEX
8
CUT
10
193.8498
20
141.8565
0
VERTEX
8
CUT
10
196.2787
20
142.9875
0
VERTEX
8
CUT
10
196.3636
20
142.9639
0
VERTEX
8
CUT
10
200.2464
20
144.8154
0
VERTEX
8
CUT
10
200.2546
20
144.8390
0
VERTEX
8
CUT
10
204.4776
20
146.8055
0
VERTEX
8
CUT
10
204.4188
20
147.2377
0
VERTEX
8
CUT
10
204.0024
20
147.3619
0
VERTEX
8
CUT
10
198.4312
20
146.2775
0
VERTEX
8
CUT
10
197.4232
20
146.4266
0
VERTEX
8
CUT
10
196.4683
20
146.8674
0
VERTEX
8
CUT
10
195.7205
20
147.4344
0
VERTEX
8
CUT
10
195.1090
20
148.2937
0
VERTEX
8
CUT
10
192.9484
20
153.4305
0
VERTEX
8
CUT
10
191.9654
20
155.2562
0
VERTEX
8
CUT
10
190.8729
20
156.8698
0
VERTEX
8
CUT
10
189.5697
20
158.3214
0
VERTEX
8
CUT
10
186.6705
20
160.4814
0
VERTEX
8
CUT
10
184.9241
20
161.3108
0
VERTEX
8
CUT
10
182.2590
20
162.0777
0
VERTEX
8
CUT
10
178.5725
20
162.3417
0
VERTEX
8
CUT
10
178.1791
20
162.0264
0
VERTEX
8
CUT
10
178.4433
20
161.5807
0
VERTEX
8
CUT
10
180.2704
20
161.4402
0
VERTEX
8
CUT
10
183.2770
20
160.8273
0
VERTEX
8
CUT
10
185.7829
20
159.7590
0
VERTEX
8
CUT
10
187.2071
20
158.7625
0
VERTEX
8
CUT
10
188.5279
20
157.4702
0
VERTEX
8
CUT
10
190.7555
20
154.4512
0
VERTEX
8
CUT
10
192.3262
20
150.9939
0
VERTEX
8
CUT
10
192.7519
20
149.2423
0
VERTEX
8
CUT
10
192.8993
20
147.6018
0
VERTEX
8
CUT
10
192.6196
20
145.9634
0
VERTEX
8
CUT
10
191.9112
20
145.1597
0
VERTEX
8
CUT
10
189.1986
20
143.9508
0
VERTEX
8
CUT
10
186.6991
20
143.3831
0
VERTEX
8
CUT
10
185.6682
20
143.6750
0
VERTEX
8
CUT
10
185.4588
20
144.6099
0
VERTEX
8
CUT
10
185.2230
20
150.0272
0
VERTEX
8
CUT
10
184.6485
20
152.6849
0
VERTEX
8
CUT
10
183.6305
20
154.8579
0
VERTEX
8
CUT
10
182.4145
20
156.5229
0
VERTEX
8
CUT
10
181.0592
20
157.5680
0
VERTEX
8
CUT
10
179.7810
20
157.9464
0
VERTEX
8
CUT
10
178.7537
20
157.7741
0
VERTEX
8
CUT
10
177.7989
20
157.2825
0
VERTEX
8
CUT
10
175.9314
20
155.4074
0
VERTEX
8
CUT
10
174.4451
20
152.6209
0
VERTEX
8
CUT
10
173.0989
20
147.2720
0
VERTEX
8
CUT
10
172.7331
20
146.7512
0
VERTEX
8
CUT
10
172.3018
20
146.7625
0
VERTEX
8
CUT
10
171.4593
20
147.4381
0
VERTEX
8
CUT
10
170.0802
20
149.2573
0
VERTEX
8
CUT
10
168.8855
20
151.6977
0
VERTEX
8
CUT
10
168.1695
20
154.7831
0
VERTEX
8
CUT
10
168.1061
20
157.6361
0
VERTEX
8
CUT
10
168.5151
20
158.9105
0
VERTEX
8
CUT
10
169.3266
20
159.8476
0
VERTEX
8
CUT
10
170.6283
20
160.5882
0
VERTEX
8
CUT
10
173.3764
20
161.3098
0
VERTEX
8
CUT
10
173.5862
20
161.8198
0
VERTEX
8
CUT
10
173.2247
20
162.0590
0
VERTEX
8
CUT
10
170.1481
20
161.9067
0
VERTEX
8
CUT
10
168.0606
20
162.3584
0
VERTEX
8
CUT
10
166.4967
20
163.4029
0
VERTEX
8
CUT
10
165.3221
20
165.5117
0
VERTEX
8
CUT
10
164.7701
20
165.4816
0
VERTEX
8
CUT
10
164.6032
20
164.7407
0
VERTEX
8
CUT
10
164.6927
20
158.6123
0
VERTEX
8
CUT
10
165.1594
20
155.0924
0
VERTEX
8
CUT
10
166.5556
20
150.3563
0
VERTEX
8
CUT
10
167.9204
20
147.4580
0
VERTEX
8
CUT
10
169.4787
20
145.3565
0
VERTEX
8
CUT
10
172.2039
20
142.6627
0
VERTEX
8
CUT
10
174.7962
20
141.0967
0
VERTEX
8
CUT
10
175.9640
20
140.6743
0
VERTEX
8
CUT
10
176.1315
20
140.5916
0
VERTEX
8
CUT
10
176.6003
20
140.4442
0
VERTEX
8
CUT
10
177.2246
20
140.2185
0
VERTEX
8
CUT
10
181.1376
20
139.4672
0
VERTEX
8
CUT
10
183.6221
20
139.4384
0
VERTEX
8
CUT
10
187.8108
20
139.9899
0
VERTEX
8
CUT
10
190.6587
20
140.7151
0
SEQEND
0
POLYLINE
8
CUT
66
1
70
1
10
0.0
20
0.0
30
0.0
0
VERTEX
8
CUT
10
192.3989
20
213.5261
0
VERTEX
8
CUT
10
192.1648
20
213.0579
0
VERTEX
8
CUT
10
192.4867
20
212.6189
0
VERTEX
8
CUT
10
193.3646
20
212.9116
0
VERTEX
8
CUT
10
194.5643
20
213.7894
0
VERTEX
8
CUT
10
199.3633
20
217.8276
0
VERTEX
8
CUT
10
200.0070
20
218.6469
0
VERTEX
8
CUT
10
199.7729
20
218.7347
0
VERTEX
8
CUT
10
199.1584
20
218.4713
0
VERTEX
8
CUT
10
195.8518
20
215.5744
0
SEQEND
0
POLYLINE
8
CUT
66
1
70
1
10
0.0
20
0.0
30
0.0
0
VERTEX
8
CUT
10
186.8392
20
218.7639
0
VERTEX
8
CUT
10
186.8099
20
219.0566
0
VERTEX
8
CUT
10
186.4002
20
219.3199
0
VERTEX
8
CUT
10
185.5809
20
219.2321
0
VERTEX
8
CUT
10
184.4397
20
218.8225
0
VERTEX
8
CUT
10
183.9130
20
218.3250
0
VERTEX
8
CUT
10
184.2056
20
218.2080
0
VERTEX
8
CUT
10
186.4588
20
218.5006
0
SEQEND
0
POLYLINE
8
CUT
66
1
70
1
10
0.0
20
0.0
30
0.0
0
VERTEX
8
CUT
10
170.0135
20
231.3173
0
VERTEX
8
CUT
10
169.0186
20
231.0540
0
VERTEX
8
CUT
10
169.0479
20
230.7906
0
VERTEX
8
CUT
10
169.3698
20
230.5272
0
VERTEX
8
CUT
10
171.1255
20
230.6150
0
VERTEX
8
CUT
10
171.7693
20
231.1125
0
VERTEX
8
CUT
10
171.5059
20
231.2880
0
SEQEND
0
POLYLINE
8
CUT
66
1
70
1
10
0.0
20
0.0
30
0.0
0
VERTEX
8
CUT
10
149.6765
20
241.3542
0
VERTEX
8
CUT
10
151.7834
20
241.1493
0
VERTEX
8
CUT
10
152.8953
20
240.1252
0
VERTEX
8
CUT
10
153.2465
20
240.1544
0
VERTEX
8
CUT
10
153.4220
20
240.4763
0
VERTEX
8
CUT
10
153.3635
20
241.0030
0
VERTEX
8
CUT
10
152.9831
20
241.4127
0
VERTEX
8
CUT
10
150.7299
20
242.0857
0
VERTEX
8
CUT
10
149.7935
20
241.9394
0
VERTEX
8
CUT
10
149.4424
20
241.6175
0
SEQEND
0
POLYLINE
8
CUT
66
1
70
1
10
0.0
20
0.0
30
0.0
0
VERTEX
8
CUT
10
146.8674
20
229.5031
0
VERTEX
8
CUT
10
146.7210
20
229.7372
0
VERTEX
8
CUT
10
144.1753
20
230.2639
0
VERTEX
8
CUT
10
144.1460
20
229.7079
0
VERTEX
8
CUT
10
144.6142
20
228.9178
0
VERTEX
8
CUT
10
145.3457
20
228.4204
0
VERTEX
8
CUT
10
146.0773
20
228.5374
0
VERTEX
8
CUT
10
146.7503
20
229.1519
0
SEQEND
0
POLYLINE
8
CUT
66
1
70
1
10
0.0
20
0.0
30
0.0
0
VERTEX
8
CUT
10
131.6222
20
154.3431
0
VERTEX
8
CUT
10
130.9016
20
151.6290
0
VERTEX
8
CUT
10
129.2262
20
148.5726
0
VERTEX
8
CUT
10
128.0916
20
147.2542
0
VERTEX
8
CUT
10
127.5844
20
146.9411
0
VERTEX
8
CUT
10
127.0873
20
147.0443
0
VERTEX
8
CUT
10
126.8756
20
147.3757
0
VERTEX
8
CUT
10
125.2322
20
153.1441
0
VERTEX
8
CUT
10
123.7793
20
155.7497
0
VERTEX
8
CUT
10
121.9754
20
157.3919
0
VERTEX
8
CUT
10
120.9838
20
157.8132
0
VERTEX
8
CUT
10
119.7781
20
157.9527
0
VERTEX
8
CUT
10
118.4658
20
157.4175
0
VERTEX
8
CUT
10
117.0656
20
156.0666
0
VERTEX
8
CUT
10
115.7596
20
153.9702
0
VERTEX
8
CUT
10
115.2660
20
152.7011
0
VERTEX
8
CUT
10
114.6523
20
149.8146
0
VERTEX
8
CUT
10
114.5370
20
144.6828
0
VERTEX
8
CUT
10
114.2561
20
143.1942
0
VERTEX
8
CUT
10
112.7741
20
143.3309
0
VERTEX
8
CUT
10
109.2737
20
144.4787
0
VERTEX
8
CUT
10
107.2187
20
145.7264
0
VERTEX
8
CUT
10
106.5299
20
146.6624
0
VERTEX
8
CUT
10
106.3357
20
147.7319
0
VERTEX
8
CUT
10
106.3928
20
148.9704
0
VERTEX
8
CUT
10
107.1318
20
151.8675
0
VERTEX
8
CUT
10
108.5727
20
154.8671
0
VERTEX
8
CUT
10
110.4462
20
157.2967
0
VERTEX
8
CUT
10
111.9977
20
158.6067
0
VERTEX
8
CUT
10
114.7806
20
160.2472
0
VERTEX
8
CUT
10
117.6606
20
161.2601
0
VERTEX
8
CUT
10
119.9856
20
161.4840
0
VERTEX
8
CUT
10
119.9683
20
161.5501
0
VERTEX
8
CUT
10
119.9498
20
161.6667
0
VERTEX
8
CUT
10
119.9428
20
161.7845
0
VERTEX
8
CUT
10
119.9474
20
161.9025
0
VERTEX
8
CUT
10
119.9636
20
162.0194
0
VERTEX
8
CUT
10
119.9912
20
162.1342
0
VERTEX
8
CUT
10
120.0299
20
162.2457
0
VERTEX
8
CUT
10
120.0477
20
162.2840
0
VERTEX
8
CUT
10
117.1941
20
162.0835
0
VERTEX
8
CUT
10
114.4283
20
161.2810
0
VERTEX
8
CUT
10
112.5935
20
160.4223
0
VERTEX
8
CUT
10
109.5176
20
158.2009
0
VERTEX
8
CUT
10
107.0305
20
155.2162
0
VERTEX
8
CUT
10
106.1117
20
153.5176
0
VERTEX
8
CUT
10
104.1624
20
148.6284
0
VERTEX
8
CUT
10
103.5492
20
147.6456
0
VERTEX
8
CUT
10
102.8922
20
147.0301
0
VERTEX
8
CUT
10
101.4668
20
146.6033
0
VERTEX
8
CUT
10
100.1308
20
146.5991
0
VERTEX
8
CUT
10
97.5693
20
147.0562
0
VERTEX
8
CUT
10
97.4732
20
147.1014
0
VERTEX
8
CUT
10
95.5712
20
147.5696
0
VERTEX
8
CUT
10
94.7811
20
147.4819
0
VERTEX
8
CUT
10
94.6640
20
147.3063
0
VERTEX
8
CUT
10
95.5451
20
146.7917
0
VERTEX
8
CUT
10
95.6076
20
146.6561
0
VERTEX
8
CUT
10
96.4713
20
146.2507
0
VERTEX
8
CUT
10
97.9706
20
145.3750
0
VERTEX
8
CUT
10
102.2136
20
143.3559
0
VERTEX
8
CUT
10
106.2810
20
141.5709
0
VERTEX
8
CUT
10
109.1194
20
140.5760
0
VERTEX
8
CUT
10
111.4604
20
139.9323
0
VERTEX
8
CUT
10
113.6258
20
139.6104
0
VERTEX
8
CUT
10
113.9094
20
139.6128
0
VERTEX
8
CUT
10
114.0798
20
139.5833
0
VERTEX
8
CUT
10
118.5016
20
139.4680
0
VERTEX
8
CUT
10
119.8631
20
139.6624
0
VERTEX
8
CUT
10
120.6487
20
139.6689
0
VERTEX
8
CUT
10
122.4922
20
139.9615
0
VERTEX
8
CUT
10
125.1550
20
141.0150
0
VERTEX
8
CUT
10
127.9056
20
142.7414
0
VERTEX
8
CUT
10
129.1346
20
143.8241
0
VERTEX
8
CUT
10
130.2758
20
144.9946
0
VERTEX
8
CUT
10
132.2071
20
147.7159
0
VERTEX
8
CUT
10
133.3191
20
149.9984
0
VERTEX
8
CUT
10
133.7873
20
151.6370
0
VERTEX
8
CUT
10
133.6901
20
151.6492
0
VERTEX
8
CUT
10
134.2616
20
153.4087
0
VERTEX
8
CUT
10
134.9867
20
156.8959
0
VERTEX
8
CUT
10
135.3918
20
161.4265
0
VERTEX
8
CUT
10
135.3900
20
163.3504
0
VERTEX
8
CUT
10
135.1103
20
165.3973
0
VERTEX
8
CUT
10
134.8181
20
165.6222
0
VERTEX
8
CUT
10
134.4968
20
165.5296
0
VERTEX
8
CUT
10
133.2690
20
163.3183
0
VERTEX
8
CUT
10
131.7873
20
162.2990
0
VERTEX
8
CUT
10
129.6193
20
161.8738
0
VERTEX
8
CUT
10
127.9350
20
161.9513
0
VERTEX
8
CUT
10
127.9912
20
161.7891
0
VERTEX
8
CUT
10
128.0244
20
161.6760
0
VERTEX
8
CUT
10
128.0462
20
161.5602
0
VERTEX
8
CUT
10
128.0566
20
161.4429
0
VERTEX
8
CUT
10
128.0555
20
161.3250
0
VERTEX
8
CUT
10
128.0428
20
161.2078
0
VERTEX
8
CUT
10
128.0186
20
161.0925
0
VERTEX
8
CUT
10
127.9833
20
160.9801
0
VERTEX
8
CUT
10
127.9794
20
160.9710
0
VERTEX
8
CUT
10
129.2745
20
160.6192
0
VERTEX
8
CUT
10
130.8549
20
159.6931
0
VERTEX
8
CUT
10
131.5009
20
158.5717
0
VERTEX
8
CUT
10
131.7147
20
157.0788
0
SEQEND
0
POLYLINE
8
CUT
66
1
70
1
10
0.0
20
0.0
30
0.0
0
VERTEX
8
CUT
10
133.6117
20
229.5616
0
VERTEX
8
CUT
10
134.0799
20
229.9127
0
VERTEX
8
CUT
10
134.1091
20
230.2054
0
VERTEX
8
CUT
10
131.3293
20
230.6443
0
VERTEX
8
CUT
10
129.6321
20
231.4051
0
VERTEX
8
CUT
10
130.7733
20
230.1761
0
VERTEX
8
CUT
10
132.0315
20
229.4153
0
VERTEX
8
CUT
10
132.8216
20
229.3275
0
SEQEND
0
POLYLINE
8
CUT
66
1
70
1
10
0.0
20
0.0
30
0.0
0
VERTEX
8
CUT
10
125.6817
20
161.7909
0
VERTEX
8
CUT
10
125.4769
20
162.0836
0
VERTEX
8
CUT
10
124.8916
20
162.3177
0
VERTEX
8
CUT
10
124.5722
20
162.3576
0
VERTEX
8
CUT
10
123.7933
20
162.4550
0
VERTEX
8
CUT
10
123.5267
20
162.4883
0
VERTEX
8
CUT
10
123.4208
20
162.5015
0
VERTEX
8
CUT
10
123.3537
20
162.5099
0
VERTEX
8
CUT
10
123.0189
20
162.5518
0
VERTEX
8
CUT
10
122.1703
20
162.2884
0
VERTEX
8
CUT
10
122.2581
20
161.9665
0
VERTEX
8
CUT
10
122.8140
20
161.6739
0
VERTEX
8
CUT
10
123.3713
20
161.6145
0
VERTEX
8
CUT
10
124.4467
20
161.4997
0
VERTEX
8
CUT
10
125.0087
20
161.4398
0
VERTEX
8
CUT
10
125.6232
20
161.5568
0
SEQEND
0
POLYLINE
8
CUT
66
1
70
1
10
0.0
20
0.0
30
0.0
0
VERTEX
8
CUT
10
123.8675
20
218.7054
0
VERTEX
8
CUT
10
123.8382
20
219.2614
0
VERTEX
8
CUT
10
121.8191
20
218.3250
0
VERTEX
8
CUT
10
120.9413
20
218.1787
0
VERTEX
8
CUT
10
120.0049
20
218.3250
0
VERTEX
8
CUT
10
117.6054
20
219.2321
0
VERTEX
8
CUT
10
117.1372
20
219.2614
0
VERTEX
8
CUT
10
116.9324
20
219.0858
0
VERTEX
8
CUT
10
117.0202
20
218.6762
0
VERTEX
8
CUT
10
117.3713
20
218.4128
0
VERTEX
8
CUT
10
119.1563
20
217.6520
0
VERTEX
8
CUT
10
120.5609
20
217.3301
0
VERTEX
8
CUT
10
122.0240
20
217.3594
0
VERTEX
8
CUT
10
122.7555
20
217.6227
0
VERTEX
8
CUT
10
123.4578
20
218.1494
0
SEQEND
0
POLYLINE
8
CUT
66
1
70
1
10
0.0
20
0.0
30
0.0
0
VERTEX
8
CUT
10
106.0177
20
213.3212
0
VERTEX
8
CUT
10
106.9541
20
212.8530
0
VERTEX
8
CUT
10
107.9490
20
212.6482
0
VERTEX
8
CUT
10
108.7683
20
212.7067
0
VERTEX
8
CUT
10
109.2072
20
213.0286
0
VERTEX
8
CUT
10
108.1245
20
213.6431
0
VERTEX
8
CUT
10
106.0177
20
214.4332
0
VERTEX
8
CUT
10
105.0813
20
214.6380
0
VERTEX
8
CUT
10
104.8765
20
214.5210
0
VERTEX
8
CUT
10
105.1398
20
214.0235
0
SEQEND
0
POLYLINE
8
CUT
66
1
70
1
10
0.0
20
0.0
30
0.0
0
VERTEX
8
CUT
10
94.1959
20
206.3861
0
VERTEX
8
CUT
10
93.9032
20
206.2691
0
VERTEX
8
CUT
10
94.7518
20
205.5961
0
VERTEX
8
CUT
10
97.7073
20
204.0744
0
VERTEX
8
CUT
10
103.5304
20
201.5872
0
VERTEX
8
CUT
10
104.3790
20
201.5287
0
VERTEX
8
CUT
10
104.5546
20
201.6750
0
VERTEX
8
CUT
10
104.5253
20
202.0846
0
VERTEX
8
CUT
10
103.9401
20
202.5236
0
VERTEX
8
CUT
10
100.3409
20
203.8403
0
VERTEX
8
CUT
10
95.6297
20
205.9179
0
SEQEND
0
POLYLINE
8
CUT
66
1
70
1
10
0.0
20
0.0
30
0.0
0
VERTEX
8
CUT
10
34.9665
20
232.5172
0
VERTEX
8
CUT
10
35.2687
20
232.5231
0
VERTEX
8
CUT
10
36.1825
20
232.5411
0
VERTEX
8
CUT
10
38.2000
20
232.3419
0
VERTEX
8
CUT
10
40.9997
20
231.1966
0
VERTEX
8
CUT
10
43.0351
20
229.4140
0
VERTEX
8
CUT
10
43.0745
20
229.3701
0
VERTEX
8
CUT
10
43.0979
20
229.3441
0
VERTEX
8
CUT
10
43.1644
20
229.2701
0
VERTEX
8
CUT
10
43.3901
20
229.0189
0
VERTEX
8
CUT
10
44.8579
20
226.4837
0
VERTEX
8
CUT
10
45.3649
20
223.4684
0
VERTEX
8
CUT
10
45.2512
20
221.4292
0
VERTEX
8
CUT
10
45.2412
20
221.3277
0
VERTEX
8
CUT
10
44.7330
20
219.6233
0
VERTEX
8
CUT
10
44.0593
20
218.2770
0
VERTEX
8
CUT
10
43.5100
20
217.5237
0
VERTEX
8
CUT
10
43.4648
20
217.4619
0
VERTEX
8
CUT
10
43.4198
20
217.4001
0
VERTEX
8
CUT
10
43.4026
20
217.3765
0
VERTEX
8
CUT
10
42.8759
20
216.7176
0
VERTEX
8
CUT
10
41.5604
20
215.5519
0
VERTEX
8
CUT
10
40.0645
20
214.6543
0
VERTEX
8
CUT
10
38.3904
20
214.0265
0
VERTEX
8
CUT
10
36.5685
20
213.6979
0
VERTEX
8
CUT
10
35.4533
20
213.7144
0
VERTEX
8
CUT
10
34.3019
20
213.8046
0
VERTEX
8
CUT
10
34.1265
20
213.8353
0
VERTEX
8
CUT
10
33.0454
20
214.0837
0
VERTEX
8
CUT
10
32.4535
20
214.2804
0
VERTEX
8
CUT
10
30.7173
20
215.1833
0
VERTEX
8
CUT
10
29.0078
20
216.6458
0
VERTEX
8
CUT
10
27.6359
20
218.3704
0
VERTEX
8
CUT
10
26.9412
20
219.7794
0
VERTEX
8
CUT
10
26.8749
20
220.0060
0
VERTEX
8
CUT
10
26.5672
20
221.0873
0
VERTEX
8
CUT
10
26.5149
20
225.1342
0
VERTEX
8
CUT
10
26.5157
20
225.1413
0
VERTEX
8
CUT
10
27.4773
20
227.5957
0
VERTEX
8
CUT
10
29.5612
20
230.2692
0
VERTEX
8
CUT
10
32.2150
20
231.9571
0
VERTEX
8
CUT
10
34.6542
20
232.5110
0
VERTEX
8
CUT
10
34.7661
20
232.5132
0
SEQEND
0
ENDSEC
0
EOF
