0
SECTION
2
HEADER
9
$ACADVER
1
AC1009
9
$INSUNITS
70
4
0
ENDSEC
0
SECTION
2
TABLES
0
TABLE
2
LAYER
70
1
0
LAYER
2
CUT
70
0
62
7
6
CONTINUOUS
0
ENDTAB
0
ENDSEC
0
SECTION
2
ENTITIES
0
POLYLINE
8
CUT
66
1
70
1
10
0.0
20
0.0
30
0.0
0
VERTEX
8
CUT
10
89.6895
20
188.8614
0
VERTEX
8
CUT
10
89.3933
20
188.9259
0
VERTEX
8
CUT
10
83.6411
20
190.2377
0
VERTEX
8
CUT
10
80.3108
20
191.1456
0
VERTEX
8
CUT
10
77.6819
20
191.9231
0
VERTEX
8
CUT
10
74.9648
20
192.8422
0
VERTEX
8
CUT
10
69.1861
20
195.0721
0
VERTEX
8
CUT
10
66.2202
20
196.4552
0
VERTEX
8
CUT
10
64.1546
20
197.5626
0
VERTEX
8
CUT
10
63.7992
20
197.7531
0
VERTEX
8
CUT
10
63.5806
20
197.8703
0
VERTEX
8
CUT
10
62.7514
20
198.3149
0
VERTEX
8
CUT
10
60.3550
20
199.7116
0
VERTEX
8
CUT
10
60.2252
20
199.8030
0
VERTEX
8
CUT
10
60.1795
20
199.8351
0
VERTEX
8
CUT
10
60.0438
20
199.9307
0
VERTEX
8
CUT
10
59.9127
20
200.0231
0
VERTEX
8
CUT
10
59.7073
20
200.2148
0
VERTEX
8
CUT
10
59.5126
20
200.5685
0
VERTEX
8
CUT
10
59.4416
20
200.8124
0
VERTEX
8
CUT
10
59.5531
20
200.9745
0
VERTEX
8
CUT
10
59.7188
20
201.0893
0
VERTEX
8
CUT
10
59.7967
20
201.1097
0
VERTEX
8
CUT
10
59.8377
20
201.1205
0
VERTEX
8
CUT
10
59.8382
20
201.1206
0
VERTEX
8
CUT
10
59.8872
20
201.1335
0
VERTEX
8
CUT
10
62.2039
20
200.6790
0
VERTEX
8
CUT
10
70.6427
20
198.1594
0
VERTEX
8
CUT
10
82.5322
20
194.9751
0
VERTEX
8
CUT
10
85.1285
20
194.4137
0
VERTEX
8
CUT
10
85.3396
20
194.3609
0
VERTEX
8
CUT
10
85.7788
20
194.2731
0
VERTEX
8
CUT
10
87.9516
20
193.8033
0
VERTEX
8
CUT
10
89.0566
20
193.6176
0
VERTEX
8
CUT
10
92.2199
20
192.9849
0
VERTEX
8
CUT
10
93.9465
20
192.7480
0
VERTEX
8
CUT
10
94.4125
20
192.6635
0
VERTEX
8
CUT
10
95.5332
20
192.5290
0
VERTEX
8
CUT
10
98.3703
20
192.0522
0
VERTEX
8
CUT
10
100.3817
20
191.8649
0
VERTEX
8
CUT
10
101.1567
20
191.7585
0
VERTEX
8
CUT
10
103.3819
20
191.5855
0
VERTEX
8
CUT
10
103.4435
20
191.5798
0
VERTEX
8
CUT
10
103.8913
20
191.5261
0
VERTEX
8
CUT
10
104.1585
20
191.5132
0
VERTEX
8
CUT
10
110.3066
20
190.9407
0
VERTEX
8
CUT
10
112.5201
20
191.0843
0
VERTEX
8
CUT
10
113.2858
20
191.4297
0
VERTEX
8
CUT
10
113.6559
20
191.9756
0
VERTEX
8
CUT
10
113.6167
20
192.0923
0
VERTEX
8
CUT
10
113.6340
20
192.1510
0
VERTEX
8
CUT
10
113.6432
20
192.1633
0
VERTEX
8
CUT
10
113.6397
20
192.1704
0
VERTEX
8
CUT
10
113.6857
20
192.3269
0
VERTEX
8
CUT
10
113.4791
20
192.5024
0
VERTEX
8
CUT
10
113.4039
20
192.7266
0
VERTEX
8
CUT
10
113.3465
20
192.7611
0
VERTEX
8
CUT
10
113.2962
20
192.8626
0
VERTEX
8
CUT
10
112.5618
20
193.2664
0
VERTEX
8
CUT
10
112.4170
20
193.3202
0
VERTEX
8
CUT
10
112.2321
20
193.4315
0
VERTEX
8
CUT
10
102.1440
20
197.2926
0
VERTEX
8
CUT
10
96.2226
20
199.8717
0
VERTEX
8
CUT
10
90.4801
20
202.6547
0
VERTEX
8
CUT
10
84.9804
20
205.6547
0
VERTEX
8
CUT
10
79.8388
20
208.8390
0
VERTEX
8
CUT
10
74.9732
20
212.1798
0
VERTEX
8
CUT
10
70.6236
20
215.5120
0
VERTEX
8
CUT
10
70.3164
20
215.7662
0
VERTEX
8
CUT
10
65.5269
20
220.0689
0
VERTEX
8
CUT
10
65.0097
20
220.7487
0
VERTEX
8
CUT
10
64.9599
20
221.3599
0
VERTEX
8
CUT
10
65.2802
20
221.4965
0
VERTEX
8
CUT
10
65.4162
20
221.5067
0
VERTEX
8
CUT
10
66.4357
20
221.0811
0
VERTEX
8
CUT
10
81.3791
20
212.5019
0
VERTEX
8
CUT
10
88.3435
20
208.7856
0
VERTEX
8
CUT
10
88.7378
20
208.6205
0
VERTEX
8
CUT
10
94.5533
20
205.7535
0
VERTEX
8
CUT
10
94.7518
20
205.5961
0
VERTEX
8
CUT
10
97.7073
20
204.0744
0
VERTEX
8
CUT
10
102.9578
20
201.8318
0
VERTEX
8
CUT
10
103.2088
20
201.7192
0
VERTEX
8
CUT
10
103.4437
20
201.6242
0
VERTEX
8
CUT
10
103.5304
20
201.5872
0
VERTEX
8
CUT
10
103.5363
20
201.5868
0
VERTEX
8
CUT
10
103.9847
20
201.4055
0
VERTEX
8
CUT
10
108.4416
20
199.4683
0
VERTEX
8
CUT
10
111.3508
20
198.4272
0
VERTEX
8
CUT
10
112.6722
20
197.8930
0
VERTEX
8
CUT
10
114.7457
20
197.2123
0
VERTEX
8
CUT
10
117.4070
20
196.2599
0
VERTEX
8
CUT
10
118.1352
20
196.2553
0
VERTEX
8
CUT
10
118.4793
20
196.5765
0
VERTEX
8
CUT
10
118.5333
20
196.5865
0
VERTEX
8
CUT
10
118.8676
20
196.9391
0
VERTEX
8
CUT
10
118.8693
20
196.9407
0
VERTEX
8
CUT
10
118.8694
20
196.9410
0
VERTEX
8
CUT
10
118.9591
20
197.0356
0
VERTEX
8
CUT
10
118.9955
20
197.4457
0
VERTEX
8
CUT
10
118.9804
20
197.4733
0
VERTEX
8
CUT
10
118.9977
20
197.5562
0
VERTEX
8
CUT
10
118.6691
20
198.3588
0
VERTEX
8
CUT
10
109.3659
20
205.1128
0
VERTEX
8
CUT
10
108.3101
20
205.9665
0
VERTEX
8
CUT
10
107.4720
20
206.6864
0
VERTEX
8
CUT
10
107.1355
20
206.9755
0
VERTEX
8
CUT
10
107.0705
20
207.0314
0
VERTEX
8
CUT
10
106.5744
20
207.4575
0
VERTEX
8
CUT
10
103.5333
20
210.3297
0
VERTEX
8
CUT
10
101.8983
20
212.1141
0
VERTEX
8
CUT
10
99.1653
20
215.7602
0
VERTEX
8
CUT
10
97.7062
20
218.1864
0
VERTEX
8
CUT
10
97.5010
20
218.6991
0
VERTEX
8
CUT
10
97.6291
20
219.4767
0
VERTEX
8
CUT
10
97.6470
20
219.4766
0
VERTEX
8
CUT
10
98.3727
20
219.3378
0
VERTEX
8
CUT
10
99.3924
20
218.6912
0
VERTEX
8
CUT
10
104.9807
20
214.3241
0
VERTEX
8
CUT
10
105.1398
20
214.0235
0
VERTEX
8
CUT
10
106.0177
20
213.3212
0
VERTEX
8
CUT
10
106.7014
20
212.9794
0
VERTEX
8
CUT
10
110.7698
20
209.7999
0
VERTEX
8
CUT
10
113.8289
20
207.6585
0
VERTEX
8
CUT
10
114.8841
20
206.8251
0
VERTEX
8
CUT
10
118.8637
20
204.1622
0
VERTEX
8
CUT
10
119.7123
20
203.7818
0
VERTEX
8
CUT
10
120.7072
20
203.6355
0
VERTEX
8
CUT
10
121.1168
20
203.8403
0
VERTEX
8
CUT
10
121.1390
20
203.9013
0
VERTEX
8
CUT
10
121.1854
20
203.9074
0
VERTEX
8
CUT
10
121.4656
20
204.2636
0
VERTEX
8
CUT
10
121.4657
20
204.2722
0
VERTEX
8
CUT
10
121.5423
20
204.3496
0
VERTEX
8
CUT
10
121.5800
20
205.0648
0
VERTEX
8
CUT
10
121.0538
20
207.4753
0
VERTEX
8
CUT
10
121.4148
20
208.9974
0
VERTEX
8
CUT
10
121.9063
20
209.6900
0
VERTEX
8
CUT
10
123.4860
20
210.8321
0
VERTEX
8
CUT
10
124.6186
20
211.2843
0
VERTEX
8
CUT
10
125.9413
20
211.7454
0
VERTEX
8
CUT
10
127.5714
20
211.9797
0
VERTEX
8
CUT
10
128.5993
20
212.0066
0
VERTEX
8
CUT
10
128.6079
20
212.0044
0
VERTEX
8
CUT
10
128.6243
20
212.0072
0
VERTEX
8
CUT
10
130.9407
20
212.0677
0
VERTEX
8
CUT
10
135.5036
20
211.8182
0
VERTEX
8
CUT
10
137.1062
20
211.4473
0
VERTEX
8
CUT
10
137.6315
20
211.3257
0
VERTEX
8
CUT
10
138.1682
20
211.2015
0
VERTEX
8
CUT
10
139.0778
20
210.9909
0
VERTEX
8
CUT
10
142.4147
20
209.6514
0
VERTEX
8
CUT
10
144.2546
20
208.6224
0
VERTEX
8
CUT
10
145.7195
20
207.5079
0
VERTEX
8
CUT
10
146.9135
20
206.2540
0
VERTEX
8
CUT
10
147.7995
20
204.9268
0
VERTEX
8
CUT
10
148.2731
20
203.6439
0
VERTEX
8
CUT
10
148.3920
20
202.3244
0
VERTEX
8
CUT
10
148.0929
20
201.0281
0
VERTEX
8
CUT
10
144.7074
20
196.1752
0
VERTEX
8
CUT
10
142.7431
20
194.3035
0
VERTEX
8
CUT
10
138.5458
20
191.5021
0
VERTEX
8
CUT
10
137.3408
20
189.9321
0
VERTEX
8
CUT
10
136.8686
20
188.2920
0
VERTEX
8
CUT
10
137.1981
20
186.7269
0
VERTEX
8
CUT
10
138.3091
20
185.3098
0
VERTEX
8
CUT
10
139.9281
20
184.5831
0
VERTEX
8
CUT
10
142.1565
20
184.5353
0
VERTEX
8
CUT
10
147.7601
20
185.8154
0
VERTEX
8
CUT
10
150.4265
20
186.0247
0
VERTEX
8
CUT
10
152.7988
20
185.6969
0
VERTEX
8
CUT
10
156.4368
20
184.7595
0
VERTEX
8
CUT
10
159.0335
20
184.4756
0
VERTEX
8
CUT
10
160.9131
20
184.8684
0
VERTEX
8
CUT
10
161.6706
20
185.3219
0
VERTEX
8
CUT
10
162.2894
20
185.9787
0
VERTEX
8
CUT
10
162.9181
20
187.0762
0
VERTEX
8
CUT
10
163.1321
20
187.9764
0
VERTEX
8
CUT
10
162.7411
20
189.4705
0
VERTEX
8
CUT
10
162.1367
20
190.6233
0
VERTEX
8
CUT
10
160.8070
20
191.9813
0
VERTEX
8
CUT
10
157.7954
20
193.7874
0
VERTEX
8
CUT
10
155.8243
20
195.4939
0
VERTEX
8
CUT
10
151.9014
20
200.6232
0
VERTEX
8
CUT
10
151.5810
20
201.6479
0
VERTEX
8
CUT
10
151.6429
20
203.6152
0
VERTEX
8
CUT
10
152.0817
20
204.9026
0
VERTEX
8
CUT
10
152.6664
20
205.9224
0
VERTEX
8
CUT
10
154.5105
20
207.7933
0
VERTEX
8
CUT
10
157.0855
20
209.4318
0
VERTEX
8
CUT
10
160.3594
20
210.8313
0
VERTEX
8
CUT
10
164.0620
20
211.7835
0
VERTEX
8
CUT
10
164.0623
20
211.7835
0
VERTEX
8
CUT
10
164.0657
20
211.7840
0
VERTEX
8
CUT
10
164.0681
20
211.7843
0
VERTEX
8
CUT
10
164.2380
20
211.8071
0
VERTEX
8
CUT
10
170.4762
20
212.0386
0
VERTEX
8
CUT
10
174.2690
20
211.6379
0
VERTEX
8
CUT
10
174.5546
20
211.5578
0
VERTEX
8
CUT
10
174.6467
20
211.5320
0
VERTEX
8
CUT
10
174.7801
20
211.4945
0
VERTEX
8
CUT
10
174.8113
20
211.4858
0
VERTEX
8
CUT
10
176.2359
20
210.9321
0
VERTEX
8
CUT
10
176.3299
20
210.8784
0
VERTEX
8
CUT
10
177.6638
20
209.8284
0
VERTEX
8
CUT
10
178.4570
20
208.8720
0
VERTEX
8
CUT
10
178.8551
20
207.4345
0
VERTEX
8
CUT
10
178.1592
20
204.4343
0
VERTEX
8
CUT
10
178.4578
20
204.0370
0
VERTEX
8
CUT
10
178.5873
20
203.6648
0
VERTEX
8
CUT
10
178.8799
20
203.5185
0
VERTEX
8
CUT
10
179.7870
20
203.6648
0
VERTEX
8
CUT
10
181.1623
20
204.3671
0
VERTEX
8
CUT
10
182.3831
20
205.1890
0
VERTEX
8
CUT
10
183.4105
20
205.7675
0
VERTEX
8
CUT
10
188.2323
20
209.0980
0
VERTEX
8
CUT
10
193.0338
20
212.8013
0
VERTEX
8
CUT
10
193.3646
20
212.9116
0
VERTEX
8
CUT
10
194.5643
20
213.7894
0
VERTEX
8
CUT
10
197.3043
20
216.0950
0
VERTEX
8
CUT
10
201.4975
20
219.3292
0
VERTEX
8
CUT
10
201.5961
20
219.3827
0
VERTEX
8
CUT
10
201.6947
20
219.4363
0
VERTEX
8
CUT
10
201.7836
20
219.4846
0
VERTEX
8
CUT
10
201.8064
20
219.4970
0
VERTEX
8
CUT
10
202.1979
20
219.2930
0
VERTEX
8
CUT
10
202.2359
20
218.7730
0
VERTEX
8
CUT
10
201.6476
20
217.2180
0
VERTEX
8
CUT
10
199.5382
20
213.9954
0
VERTEX
8
CUT
10
197.3582
20
211.3717
0
VERTEX
8
CUT
10
194.8524
20
208.8129
0
VERTEX
8
CUT
10
193.8028
20
207.8691
0
VERTEX
8
CUT
10
191.3061
20
205.7291
0
VERTEX
8
CUT
10
181.6675
20
198.7508
0
VERTEX
8
CUT
10
180.9775
20
197.7390
0
VERTEX
8
CUT
10
180.9747
20
197.5452
0
VERTEX
8
CUT
10
180.9598
20
197.5099
0
VERTEX
8
CUT
10
180.9734
20
197.4504
0
VERTEX
8
CUT
10
180.9699
20
197.2035
0
VERTEX
8
CUT
10
181.0634
20
197.0567
0
VERTEX
8
CUT
10
181.0870
20
196.9537
0
VERTEX
8
CUT
10
181.1651
20
196.8972
0
VERTEX
8
CUT
10
181.2888
20
196.7030
0
VERTEX
8
CUT
10
181.5089
20
196.5952
0
VERTEX
8
CUT
10
181.5627
20
196.5548
0
VERTEX
8
CUT
10
181.5903
20
196.5553
0
VERTEX
8
CUT
10
182.2193
20
196.2471
0
VERTEX
8
CUT
10
183.6599
20
196.5843
0
VERTEX
8
CUT
10
190.4246
20
199.0336
0
VERTEX
8
CUT
10
193.5544
20
200.3716
0
VERTEX
8
CUT
10
194.1659
20
200.6121
0
VERTEX
8
CUT
10
195.1784
20
201.0659
0
VERTEX
8
CUT
10
195.5231
20
201.2132
0
VERTEX
8
CUT
10
195.5300
20
201.2068
0
VERTEX
8
CUT
10
197.3442
20
201.8798
0
VERTEX
8
CUT
10
205.2449
20
205.5961
0
VERTEX
8
CUT
10
206.1325
20
206.2193
0
VERTEX
8
CUT
10
207.2590
20
206.8006
0
VERTEX
8
CUT
10
209.5707
20
207.9590
0
VERTEX
8
CUT
10
209.7277
20
208.0363
0
VERTEX
8
CUT
10
209.7513
20
207.9955
0
VERTEX
8
CUT
10
210.2780
20
208.0833
0
VERTEX
8
CUT
10
217.7105
20
212.0922
0
VERTEX
8
CUT
10
233.7644
20
221.2497
0
VERTEX
8
CUT
10
234.3745
20
221.5141
0
VERTEX
8
CUT
10
234.8280
20
221.3689
0
VERTEX
8
CUT
10
234.9686
20
221.2828
0
VERTEX
8
CUT
10
234.9848
20
221.1949
0
VERTEX
8
CUT
10
234.7966
20
220.6939
0
VERTEX
8
CUT
10
234.0385
20
219.8424
0
VERTEX
8
CUT
10
230.1867
20
216.3127
0
VERTEX
8
CUT
10
229.5351
20
215.7661
0
VERTEX
8
CUT
10
229.5346
20
215.7657
0
VERTEX
8
CUT
10
229.5217
20
215.7549
0
VERTEX
8
CUT
10
229.4543
20
215.6983
0
VERTEX
8
CUT
10
223.5626
20
211.2551
0
VERTEX
8
CUT
10
223.4300
20
211.1588
0
VERTEX
8
CUT
10
223.0366
20
210.8732
0
VERTEX
8
CUT
10
222.7893
20
210.6936
0
VERTEX
8
CUT
10
222.4659
20
210.4587
0
VERTEX
8
CUT
10
218.7530
20
208.0194
0
VERTEX
8
CUT
10
214.5606
20
205.4692
0
VERTEX
8
CUT
10
205.8563
20
200.8393
0
VERTEX
8
CUT
10
199.4444
20
197.9718
0
VERTEX
8
CUT
10
198.3373
20
197.5176
0
VERTEX
8
CUT
10
187.7072
20
193.5197
0
VERTEX
8
CUT
10
186.7644
20
192.9638
0
VERTEX
8
CUT
10
186.6911
20
192.8813
0
VERTEX
8
CUT
10
186.5792
20
192.8222
0
VERTEX
8
CUT
10
186.2140
20
192.3438
0
VERTEX
8
CUT
10
186.3034
20
191.8810
0
VERTEX
8
CUT
10
186.3070
20
191.7255
0
VERTEX
8
CUT
10
186.3399
20
191.6921
0
VERTEX
8
CUT
10
186.3588
20
191.5944
0
VERTEX
8
CUT
10
186.4893
20
191.5404
0
VERTEX
8
CUT
10
186.7694
20
191.2561
0
VERTEX
8
CUT
10
187.8020
20
190.9973
0
VERTEX
8
CUT
10
190.4957
20
190.9998
0
VERTEX
8
CUT
10
195.8096
20
191.4088
0
VERTEX
8
CUT
10
206.3008
20
192.7535
0
VERTEX
8
CUT
10
206.4234
20
192.7758
0
VERTEX
8
CUT
10
206.5617
20
192.7793
0
VERTEX
8
CUT
10
207.7170
20
193.0104
0
VERTEX
8
CUT
10
211.6189
20
193.7180
0
VERTEX
8
CUT
10
213.8116
20
194.2293
0
VERTEX
8
CUT
10
215.9255
20
194.6521
0
VERTEX
8
CUT
10
219.4515
20
195.5443
0
VERTEX
8
CUT
10
222.8903
20
196.3461
0
VERTEX
8
CUT
10
224.9350
20
196.9319
0
VERTEX
8
CUT
10
225.5234
20
197.0808
0
VERTEX
8
CUT
10
228.1035
20
197.8397
0
VERTEX
8
CUT
10
238.9293
20
200.9412
0
VERTEX
8
CUT
10
240.0933
20
201.0925
0
VERTEX
8
CUT
10
240.4701
20
200.9525
0
VERTEX
8
CUT
10
240.5959
20
200.6501
0
VERTEX
8
CUT
10
240.2402
20
200.1253
0
VERTEX
8
CUT
10
239.9562
20
199.8995
0
VERTEX
8
CUT
10
239.9138
20
199.8658
0
VERTEX
8
CUT
10
239.8062
20
199.7802
0
VERTEX
8
CUT
10
239.4665
20
199.5101
0
VERTEX
8
CUT
10
238.9566
20
199.1811
0
VERTEX
8
CUT
10
237.6438
20
198.4482
0
VERTEX
8
CUT
10
232.1768
20
195.6406
0
VERTEX
8
CUT
10
231.8649
20
195.5020
0
VERTEX
8
CUT
10
231.8529
20
195.4967
0
VERTEX
8
CUT
10
231.8369
20
195.4896
0
VERTEX
8
CUT
10
231.7935
20
195.4702
0
VERTEX
8
CUT
10
227.1657
20
193.6031
0
VERTEX
8
CUT
10
221.9966
20
191.8508
0
VERTEX
8
CUT
10
216.5235
20
190.3206
0
VERTEX
8
CUT
10
210.8657
20
189.0313
0
VERTEX
8
CUT
10
205.0815
20
188.0088
0
VERTEX
8
CUT
10
199.1886
20
187.2753
0
VERTEX
8
CUT
10
193.2491
20
186.8049
0
VERTEX
8
CUT
10
182.6214
20
186.4549
0
VERTEX
8
CUT
10
179.9240
20
186.1616
0
VERTEX
8
CUT
10
177.5696
20
185.6239
0
VERTEX
8
CUT
10
176.6569
20
184.8647
0
VERTEX
8
CUT
10
176.3976
20
184.4139
0
VERTEX
8
CUT
10
176.3645
20
184.1178
0
VERTEX
8
CUT
10
176.0708
20
184.1178
0
VERTEX
8
CUT
10
176.1878
20
183.5326
0
VERTEX
8
CUT
10
176.6489
20
182.9836
0
VERTEX
8
CUT
10
176.7211
20
182.8409
0
VERTEX
8
CUT
10
176.8870
20
182.7002
0
VERTEX
8
CUT
10
177.4168
20
182.0695
0
VERTEX
8
CUT
10
177.9847
20
181.6185
0
VERTEX
8
CUT
10
178.5579
20
180.7413
0
VERTEX
8
CUT
10
178.8229
20
179.4751
0
VERTEX
8
CUT
10
178.7679
20
178.7843
0
VERTEX
8
CUT
10
178.1542
20
177.4770
0
VERTEX
8
CUT
10
177.1832
20
176.5413
0
VERTEX
8
CUT
10
175.8370
20
175.9283
0
VERTEX
8
CUT
10
173.9654
20
175.5975
0
VERTEX
8
CUT
10
167.8892
20
175.2729
0
VERTEX
8
CUT
10
165.4387
20
174.4957
0
VERTEX
8
CUT
10
164.4157
20
173.8060
0
VERTEX
8
CUT
10
162.7102
20
171.8172
0
VERTEX
8
CUT
10
160.9771
20
168.8540
0
VERTEX
8
CUT
10
160.0529
20
167.6588
0
VERTEX
8
CUT
10
158.9486
20
166.6112
0
VERTEX
8
CUT
10
156.8026
20
165.0789
0
VERTEX
8
CUT
10
155.9153
20
164.1545
0
VERTEX
8
CUT
10
155.2724
20
162.5078
0
VERTEX
8
CUT
10
154.9485
20
158.0622
0
VERTEX
8
CUT
10
154.2740
20
155.7698
0
VERTEX
8
CUT
10
153.7816
20
154.8602
0
VERTEX
8
CUT
10
152.4823
20
153.5607
0
VERTEX
8
CUT
10
150.3302
20
152.7184
0
VERTEX
8
CUT
10
149.1288
20
152.8963
0
VERTEX
8
CUT
10
148.0936
20
153.3664
0
VERTEX
8
CUT
10
146.8316
20
154.2472
0
VERTEX
8
CUT
10
146.3150
20
154.8535
0
VERTEX
8
CUT
10
145.3209
20
157.4269
0
VERTEX
8
CUT
10
144.6076
20
162.3853
0
VERTEX
8
CUT
10
143.9286
20
164.2494
0
VERTEX
8
CUT
10
143.1261
20
165.0650
0
VERTEX
8
CUT
10
140.0340
20
167.4509
0
VERTEX
8
CUT
10
138.6860
20
169.1792
0
VERTEX
8
CUT
10
137.3791
20
171.4585
0
VERTEX
8
CUT
10
135.6504
20
173.4401
0
VERTEX
8
CUT
10
133.7115
20
174.7894
0
VERTEX
8
CUT
10
132.4168
20
175.3018
0
VERTEX
8
CUT
10
126.0303
20
175.5683
0
VERTEX
8
CUT
10
124.4798
20
175.8046
0
VERTEX
8
CUT
10
123.0731
20
176.3969
0
VERTEX
8
CUT
10
121.7596
20
177.5013
0
VERTEX
8
CUT
10
121.1144
20
179.0256
0
VERTEX
8
CUT
10
121.2088
20
180.5490
0
VERTEX
8
CUT
10
123.6636
20
183.8906
0
VERTEX
8
CUT
10
123.6190
20
184.2534
0
VERTEX
8
CUT
10
122.8789
20
185.0465
0
VERTEX
8
CUT
10
120.9710
20
186.0551
0
VERTEX
8
CUT
10
114.9955
20
186.5123
0
VERTEX
8
CUT
10
106.8485
20
186.8350
0
VERTEX
8
CUT
10
98.1159
20
187.5680
0
VERTEX
8
CUT
10
90.3392
20
188.7201
0
VERTEX
8
CUT
10
89.7649
20
188.8450
0
VERTEX
8
CUT
10
89.7432
20
188.8497
0
SEQEND
0
POLYLINE
8
CUT
66
1
70
1
10
0.0
20
0.0
30
0.0
0
VERTEX
8
CUT
10
137.0622
20
222.9169
0
VERTEX
8
CUT
10
137.5188
20
222.9039
0
VERTEX
8
CUT
10
137.5621
20
222.8606
0
VERTEX
8
CUT
10
138.6447
20
222.6265
0
VERTEX
8
CUT
10
139.8152
20
222.6265
0
VERTEX
8
CUT
10
140.2391
20
222.8149
0
VERTEX
8
CUT
10
140.6669
20
222.9542
0
VERTEX
8
CUT
10
140.7950
20
223.0831
0
VERTEX
8
CUT
10
140.8065
20
223.0863
0
VERTEX
8
CUT
10
141.4697
20
223.7605
0
VERTEX
8
CUT
10
141.4730
20
223.7660
0
VERTEX
8
CUT
10
141.5617
20
223.8553
0
VERTEX
8
CUT
10
142.0676
20
224.7443
0
VERTEX
8
CUT
10
143.0579
20
226.3738
0
VERTEX
8
CUT
10
143.0834
20
226.4157
0
VERTEX
8
CUT
10
143.2886
20
226.7534
0
VERTEX
8
CUT
10
143.5045
20
227.1087
0
VERTEX
8
CUT
10
143.8929
20
227.5844
0
VERTEX
8
CUT
10
145.5750
20
228.4571
0
VERTEX
8
CUT
10
146.0773
20
228.5374
0
VERTEX
8
CUT
10
146.7503
20
229.1519
0
VERTEX
8
CUT
10
146.7758
20
229.2283
0
VERTEX
8
CUT
10
146.8491
20
229.2961
0
VERTEX
8
CUT
10
146.8964
20
229.4215
0
VERTEX
8
CUT
10
146.9078
20
229.4306
0
VERTEX
8
CUT
10
146.9268
20
229.5020
0
VERTEX
8
CUT
10
147.0105
20
229.7241
0
VERTEX
8
CUT
10
147.1438
20
229.8910
0
VERTEX
8
CUT
10
147.3557
20
230.6394
0
VERTEX
8
CUT
10
147.5115
20
231.0526
0
VERTEX
8
CUT
10
147.5690
20
232.3010
0
VERTEX
8
CUT
10
147.5717
20
232.3394
0
VERTEX
8
CUT
10
147.6079
20
232.8561
0
VERTEX
8
CUT
10
147.7579
20
235.0019
0
VERTEX
8
CUT
10
148.0209
20
238.7643
0
VERTEX
8
CUT
10
148.0810
20
239.1596
0
VERTEX
8
CUT
10
148.5191
20
240.0589
0
VERTEX
8
CUT
10
149.0698
20
240.6882
0
VERTEX
8
CUT
10
150.0505
20
241.2200
0
VERTEX
8
CUT
10
150.3956
20
241.2842
0
VERTEX
8
CUT
10
151.4619
20
241.1806
0
VERTEX
8
CUT
10
151.5525
20
241.1718
0
VERTEX
8
CUT
10
151.5640
20
241.1698
0
VERTEX
8
CUT
10
152.3650
20
240.5945
0
VERTEX
8
CUT
10
152.4628
20
240.4708
0
VERTEX
8
CUT
10
153.0996
20
239.5972
0
VERTEX
8
CUT
10
153.4183
20
238.8082
0
VERTEX
8
CUT
10
153.6315
20
237.1210
0
VERTEX
8
CUT
10
153.7805
20
230.2632
0
VERTEX
8
CUT
10
153.8606
20
229.8643
0
VERTEX
8
CUT
10
153.8679
20
229.7196
0
VERTEX
8
CUT
10
153.9639
20
229.3498
0
VERTEX
8
CUT
10
154.1359
20
228.4928
0
VERTEX
8
CUT
10
154.7427
20
227.3781
0
VERTEX
8
CUT
10
155.1129
20
227.1163
0
VERTEX
8
CUT
10
155.2363
20
226.8695
0
VERTEX
8
CUT
10
156.1726
20
226.7232
0
VERTEX
8
CUT
10
157.0212
20
227.4547
0
VERTEX
8
CUT
10
157.0379
20
227.4769
0
VERTEX
8
CUT
10
158.5879
20
228.4999
0
VERTEX
8
CUT
10
159.1935
20
228.6003
0
VERTEX
8
CUT
10
159.7736
20
228.4453
0
VERTEX
8
CUT
10
159.8420
20
228.4104
0
VERTEX
8
CUT
10
160.7009
20
227.4678
0
VERTEX
8
CUT
10
161.6158
20
224.4639
0
VERTEX
8
CUT
10
162.4049
20
223.0361
0
VERTEX
8
CUT
10
164.3224
20
220.9575
0
VERTEX
8
CUT
10
165.1589
20
219.9063
0
VERTEX
8
CUT
10
165.9526
20
219.2751
0
VERTEX
8
CUT
10
167.4692
20
218.4378
0
VERTEX
8
CUT
10
168.4035
20
217.8433
0
VERTEX
8
CUT
10
169.1646
20
217.0260
0
VERTEX
8
CUT
10
169.4620
20
215.9808
0
VERTEX
8
CUT
10
169.1750
20
214.8341
0
VERTEX
8
CUT
10
168.5476
20
214.3484
0
VERTEX
8
CUT
10
162.7843
20
214.1075
0
VERTEX
8
CUT
10
160.6837
20
213.7929
0
VERTEX
8
CUT
10
158.5195
20
213.1212
0
VERTEX
8
CUT
10
152.3253
20
210.6958
0
VERTEX
8
CUT
10
149.1995
20
210.3932
0
VERTEX
8
CUT
10
146.9361
20
210.8438
0
VERTEX
8
CUT
10
141.0418
20
213.2373
0
VERTEX
8
CUT
10
135.9340
20
214.6040
0
VERTEX
8
CUT
10
134.9876
20
216.1110
0
VERTEX
8
CUT
10
134.7189
20
217.0803
0
VERTEX
8
CUT
10
134.5438
20
219.2437
0
VERTEX
8
CUT
10
134.9630
20
221.2736
0
VERTEX
8
CUT
10
135.8587
20
222.5330
0
VERTEX
8
CUT
10
135.9284
20
222.5607
0
SEQEND
0
ENDSEC
0
EOF
