0
SECTION
2
HEADER
9
$ACADVER
1
AC1009
9
$INSUNITS
70
4
0
ENDSEC
0
SECTION
2
TABLES
0
TABLE
2
LAYER
70
1
0
LAYER
2
CUT
70
0
62
7
6
CONTINUOUS
0
ENDTAB
0
ENDSEC
0
SECTION
2
ENTITIES
0
POLYLINE
8
CUT
66
1
70
1
10
0.0
20
0.0
30
0.0
0
VERTEX
8
CUT
10
97.6167
20
218.9425
0
VERTEX
8
CUT
10
97.7423
20
219.3287
0
VERTEX
8
CUT
10
97.9534
20
219.4180
0
VERTEX
8
CUT
10
98.3727
20
219.3378
0
VERTEX
8
CUT
10
99.2625
20
218.7736
0
VERTEX
8
CUT
10
105.0749
20
214.1461
0
VERTEX
8
CUT
10
105.1398
20
214.0235
0
VERTEX
8
CUT
10
106.0177
20
213.3212
0
VERTEX
8
CUT
10
106.2687
20
213.1957
0
VERTEX
8
CUT
10
107.8128
20
211.9664
0
VERTEX
8
CUT
10
114.5603
20
207.0005
0
VERTEX
8
CUT
10
117.5332
20
205.0525
0
VERTEX
8
CUT
10
118.8637
20
204.1622
0
VERTEX
8
CUT
10
119.7123
20
203.7818
0
VERTEX
8
CUT
10
120.0816
20
203.7275
0
VERTEX
8
CUT
10
120.2221
20
203.6593
0
VERTEX
8
CUT
10
120.4135
20
203.6787
0
VERTEX
8
CUT
10
120.7072
20
203.6355
0
VERTEX
8
CUT
10
120.8904
20
203.7271
0
VERTEX
8
CUT
10
121.3063
20
203.7694
0
VERTEX
8
CUT
10
121.8235
20
204.5752
0
VERTEX
8
CUT
10
121.7704
20
205.2519
0
VERTEX
8
CUT
10
121.2682
20
206.4933
0
VERTEX
8
CUT
10
121.2326
20
206.6563
0
VERTEX
8
CUT
10
121.2160
20
206.7326
0
VERTEX
8
CUT
10
121.1837
20
206.8805
0
VERTEX
8
CUT
10
121.1573
20
207.0013
0
VERTEX
8
CUT
10
121.1119
20
207.6933
0
VERTEX
8
CUT
10
121.3534
20
208.6086
0
VERTEX
8
CUT
10
121.9242
20
209.5370
0
VERTEX
8
CUT
10
123.4489
20
210.7402
0
VERTEX
8
CUT
10
125.4763
20
211.5323
0
VERTEX
8
CUT
10
127.6984
20
211.9830
0
VERTEX
8
CUT
10
128.5993
20
212.0066
0
VERTEX
8
CUT
10
128.6079
20
212.0044
0
VERTEX
8
CUT
10
128.6243
20
212.0072
0
VERTEX
8
CUT
10
130.9407
20
212.0677
0
VERTEX
8
CUT
10
134.5865
20
211.8683
0
VERTEX
8
CUT
10
136.8088
20
211.5015
0
VERTEX
8
CUT
10
139.7427
20
210.6881
0
VERTEX
8
CUT
10
142.5181
20
209.5399
0
VERTEX
8
CUT
10
145.0183
20
208.0344
0
VERTEX
8
CUT
10
146.5992
20
206.5841
0
VERTEX
8
CUT
10
146.8010
20
206.3722
0
VERTEX
8
CUT
10
147.8221
20
204.6511
0
VERTEX
8
CUT
10
148.2180
20
202.6817
0
VERTEX
8
CUT
10
148.0569
20
201.1881
0
VERTEX
8
CUT
10
146.0926
20
198.6993
0
VERTEX
8
CUT
10
145.1171
20
196.8280
0
VERTEX
8
CUT
10
143.5346
20
195.1486
0
VERTEX
8
CUT
10
141.7250
20
193.7043
0
VERTEX
8
CUT
10
140.9181
20
193.2482
0
VERTEX
8
CUT
10
139.2031
20
192.7904
0
VERTEX
8
CUT
10
138.4879
20
192.2058
0
VERTEX
8
CUT
10
137.5498
20
190.7898
0
VERTEX
8
CUT
10
136.8915
20
188.9709
0
VERTEX
8
CUT
10
136.7865
20
187.4795
0
VERTEX
8
CUT
10
137.2202
20
186.2105
0
VERTEX
8
CUT
10
138.0157
20
185.3487
0
VERTEX
8
CUT
10
139.2395
20
184.7554
0
VERTEX
8
CUT
10
139.7131
20
184.6796
0
VERTEX
8
CUT
10
139.9281
20
184.5831
0
VERTEX
8
CUT
10
140.3761
20
184.5735
0
VERTEX
8
CUT
10
140.9563
20
184.4806
0
VERTEX
8
CUT
10
142.0566
20
184.5375
0
VERTEX
8
CUT
10
142.1565
20
184.5353
0
VERTEX
8
CUT
10
142.1978
20
184.5448
0
VERTEX
8
CUT
10
143.0926
20
184.5910
0
VERTEX
8
CUT
10
147.7908
20
185.6693
0
VERTEX
8
CUT
10
149.9511
20
185.8489
0
VERTEX
8
CUT
10
152.0965
20
185.6677
0
VERTEX
8
CUT
10
156.5782
20
184.6151
0
VERTEX
8
CUT
10
159.2583
20
184.4457
0
VERTEX
8
CUT
10
160.6812
20
184.8199
0
VERTEX
8
CUT
10
160.9131
20
184.8684
0
VERTEX
8
CUT
10
160.9504
20
184.8907
0
VERTEX
8
CUT
10
161.2833
20
184.9783
0
VERTEX
8
CUT
10
161.9829
20
185.4233
0
VERTEX
8
CUT
10
162.8488
20
186.4241
0
VERTEX
8
CUT
10
163.0828
20
187.1040
0
VERTEX
8
CUT
10
163.0930
20
187.8119
0
VERTEX
8
CUT
10
163.1321
20
187.9764
0
VERTEX
8
CUT
10
163.0972
20
188.1095
0
VERTEX
8
CUT
10
163.1034
20
188.5347
0
VERTEX
8
CUT
10
162.5398
20
190.3422
0
VERTEX
8
CUT
10
161.9386
20
191.4888
0
VERTEX
8
CUT
10
160.8454
20
192.6655
0
VERTEX
8
CUT
10
158.3448
20
193.5957
0
VERTEX
8
CUT
10
157.2032
20
194.3000
0
VERTEX
8
CUT
10
155.8243
20
195.4939
0
VERTEX
8
CUT
10
155.1029
20
196.4372
0
VERTEX
8
CUT
10
151.6717
20
201.6987
0
VERTEX
8
CUT
10
151.5936
20
202.0498
0
VERTEX
8
CUT
10
151.6033
20
202.3577
0
VERTEX
8
CUT
10
151.6131
20
202.6695
0
VERTEX
8
CUT
10
151.6147
20
202.7205
0
VERTEX
8
CUT
10
151.6255
20
203.0618
0
VERTEX
8
CUT
10
151.6636
20
203.4332
0
VERTEX
8
CUT
10
152.6058
20
205.6279
0
VERTEX
8
CUT
10
153.4054
20
206.6722
0
VERTEX
8
CUT
10
153.8041
20
207.0767
0
VERTEX
8
CUT
10
155.4638
20
208.3999
0
VERTEX
8
CUT
10
155.8860
20
208.6685
0
VERTEX
8
CUT
10
159.3903
20
210.3622
0
VERTEX
8
CUT
10
161.2178
20
210.9801
0
VERTEX
8
CUT
10
164.9434
20
211.8333
0
VERTEX
8
CUT
10
170.4603
20
212.0380
0
VERTEX
8
CUT
10
170.7160
20
212.0133
0
VERTEX
8
CUT
10
172.2081
20
211.8556
0
VERTEX
8
CUT
10
172.3115
20
211.8447
0
VERTEX
8
CUT
10
172.5542
20
211.8191
0
VERTEX
8
CUT
10
173.6580
20
211.7025
0
VERTEX
8
CUT
10
176.4959
20
210.7477
0
VERTEX
8
CUT
10
177.6638
20
209.8284
0
VERTEX
8
CUT
10
178.4332
20
208.9008
0
VERTEX
8
CUT
10
178.4662
20
208.8390
0
VERTEX
8
CUT
10
178.7769
20
207.7170
0
VERTEX
8
CUT
10
178.7939
20
207.4893
0
VERTEX
8
CUT
10
178.0123
20
204.5282
0
VERTEX
8
CUT
10
178.4390
20
203.8592
0
VERTEX
8
CUT
10
178.5365
20
203.8110
0
VERTEX
8
CUT
10
178.5873
20
203.6648
0
VERTEX
8
CUT
10
178.8799
20
203.5185
0
VERTEX
8
CUT
10
179.0663
20
203.5485
0
VERTEX
8
CUT
10
179.2212
20
203.4718
0
VERTEX
8
CUT
10
179.5529
20
203.6270
0
VERTEX
8
CUT
10
179.7870
20
203.6648
0
VERTEX
8
CUT
10
181.1623
20
204.3671
0
VERTEX
8
CUT
10
181.2257
20
204.4097
0
VERTEX
8
CUT
10
181.5338
20
204.5539
0
VERTEX
8
CUT
10
183.3033
20
205.7071
0
VERTEX
8
CUT
10
183.4105
20
205.7675
0
VERTEX
8
CUT
10
183.6544
20
205.9360
0
VERTEX
8
CUT
10
186.0502
20
207.4974
0
VERTEX
8
CUT
10
191.7698
20
211.6704
0
VERTEX
8
CUT
10
193.2801
20
212.8834
0
VERTEX
8
CUT
10
193.3646
20
212.9116
0
VERTEX
8
CUT
10
194.5643
20
213.7894
0
VERTEX
8
CUT
10
197.3043
20
216.0950
0
VERTEX
8
CUT
10
200.5510
20
218.5991
0
VERTEX
8
CUT
10
201.6070
20
219.3501
0
VERTEX
8
CUT
10
201.9304
20
219.3023
0
VERTEX
8
CUT
10
202.2268
20
218.8972
0
VERTEX
8
CUT
10
202.2270
20
218.8944
0
VERTEX
8
CUT
10
202.2272
20
218.8923
0
VERTEX
8
CUT
10
202.2275
20
218.8876
0
VERTEX
8
CUT
10
202.2283
20
218.8769
0
VERTEX
8
CUT
10
202.1179
20
218.4610
0
VERTEX
8
CUT
10
201.9839
20
218.1068
0
VERTEX
8
CUT
10
201.9553
20
218.0314
0
VERTEX
8
CUT
10
201.8637
20
217.7893
0
VERTEX
8
CUT
10
201.7710
20
217.5440
0
VERTEX
8
CUT
10
199.5390
20
214.1136
0
VERTEX
8
CUT
10
198.0817
20
212.2990
0
VERTEX
8
CUT
10
194.7445
20
208.8154
0
VERTEX
8
CUT
10
192.7640
20
207.0709
0
VERTEX
8
CUT
10
190.5899
20
205.2793
0
VERTEX
8
CUT
10
184.6204
20
200.8887
0
VERTEX
8
CUT
10
181.6675
20
198.7508
0
VERTEX
8
CUT
10
181.6210
20
198.6827
0
VERTEX
8
CUT
10
181.2010
20
198.3738
0
VERTEX
8
CUT
10
180.8098
20
197.9368
0
VERTEX
8
CUT
10
180.7283
20
197.4619
0
VERTEX
8
CUT
10
180.8529
20
196.9484
0
VERTEX
8
CUT
10
181.2387
20
196.4845
0
VERTEX
8
CUT
10
182.1310
20
196.2125
0
VERTEX
8
CUT
10
184.3554
20
196.7278
0
VERTEX
8
CUT
10
191.3217
20
199.3515
0
VERTEX
8
CUT
10
196.9217
20
201.7231
0
VERTEX
8
CUT
10
197.3442
20
201.8798
0
VERTEX
8
CUT
10
197.8177
20
202.1025
0
VERTEX
8
CUT
10
199.5459
20
202.8344
0
VERTEX
8
CUT
10
202.9382
20
204.5110
0
VERTEX
8
CUT
10
205.2449
20
205.5961
0
VERTEX
8
CUT
10
205.5099
20
205.7821
0
VERTEX
8
CUT
10
210.1088
20
208.0551
0
VERTEX
8
CUT
10
210.2780
20
208.0833
0
VERTEX
8
CUT
10
211.5059
20
208.7456
0
VERTEX
8
CUT
10
212.2010
20
209.0892
0
VERTEX
8
CUT
10
213.4545
20
209.7966
0
VERTEX
8
CUT
10
217.7105
20
212.0922
0
VERTEX
8
CUT
10
233.6021
20
221.1571
0
VERTEX
8
CUT
10
234.4913
20
221.4767
0
VERTEX
8
CUT
10
234.8280
20
221.3689
0
VERTEX
8
CUT
10
234.9686
20
221.2828
0
VERTEX
8
CUT
10
234.9848
20
221.1949
0
VERTEX
8
CUT
10
234.8928
20
220.9500
0
VERTEX
8
CUT
10
233.0602
20
218.9459
0
VERTEX
8
CUT
10
232.4776
20
218.4121
0
VERTEX
8
CUT
10
232.4272
20
218.3659
0
VERTEX
8
CUT
10
232.2958
20
218.2455
0
VERTEX
8
CUT
10
231.9320
20
217.9121
0
VERTEX
8
CUT
10
228.8500
20
215.2427
0
VERTEX
8
CUT
10
224.0818
20
211.6466
0
VERTEX
8
CUT
10
215.6298
20
206.1515
0
VERTEX
8
CUT
10
211.8209
20
204.0119
0
VERTEX
8
CUT
10
210.9630
20
203.5556
0
VERTEX
8
CUT
10
210.4062
20
203.2594
0
VERTEX
8
CUT
10
210.3254
20
203.2164
0
VERTEX
8
CUT
10
210.2909
20
203.1981
0
VERTEX
8
CUT
10
200.8595
20
198.6478
0
VERTEX
8
CUT
10
187.8251
20
193.5641
0
VERTEX
8
CUT
10
187.7072
20
193.5197
0
VERTEX
8
CUT
10
187.6990
20
193.5149
0
VERTEX
8
CUT
10
187.1598
20
193.3046
0
VERTEX
8
CUT
10
186.0227
20
192.3753
0
VERTEX
8
CUT
10
186.0316
20
191.7936
0
VERTEX
8
CUT
10
186.4788
20
191.3212
0
VERTEX
8
CUT
10
187.9853
20
190.9397
0
VERTEX
8
CUT
10
191.0163
20
190.9701
0
VERTEX
8
CUT
10
196.0423
20
191.3794
0
VERTEX
8
CUT
10
206.0388
20
192.6368
0
VERTEX
8
CUT
10
211.1206
20
193.5716
0
VERTEX
8
CUT
10
215.0592
20
194.4788
0
VERTEX
8
CUT
10
215.9255
20
194.6521
0
VERTEX
8
CUT
10
217.0844
20
194.9453
0
VERTEX
8
CUT
10
221.8966
20
196.0539
0
VERTEX
8
CUT
10
225.4788
20
197.0695
0
VERTEX
8
CUT
10
225.5234
20
197.0808
0
VERTEX
8
CUT
10
225.6521
20
197.1187
0
VERTEX
8
CUT
10
239.1288
20
200.9398
0
VERTEX
8
CUT
10
240.1687
20
201.0603
0
VERTEX
8
CUT
10
240.4772
20
200.9166
0
VERTEX
8
CUT
10
240.5848
20
200.6337
0
VERTEX
8
CUT
10
240.2505
20
200.1404
0
VERTEX
8
CUT
10
238.6169
20
199.0332
0
VERTEX
8
CUT
10
231.5241
20
195.3989
0
VERTEX
8
CUT
10
226.6587
20
193.4640
0
VERTEX
8
CUT
10
221.7974
20
191.7951
0
VERTEX
8
CUT
10
216.5235
20
190.3206
0
VERTEX
8
CUT
10
215.4234
20
190.0699
0
VERTEX
8
CUT
10
211.4507
20
189.1775
0
VERTEX
8
CUT
10
206.1051
20
188.2428
0
VERTEX
8
CUT
10
200.4759
20
187.5386
0
VERTEX
8
CUT
10
194.5398
20
187.0391
0
VERTEX
8
CUT
10
181.5239
20
186.4831
0
VERTEX
8
CUT
10
178.9733
20
186.1401
0
VERTEX
8
CUT
10
177.4891
20
185.6287
0
VERTEX
8
CUT
10
176.4475
20
184.6900
0
VERTEX
8
CUT
10
176.3122
20
184.1178
0
VERTEX
8
CUT
10
176.0708
20
184.1178
0
VERTEX
8
CUT
10
176.1878
20
183.5326
0
VERTEX
8
CUT
10
176.6489
20
182.9836
0
VERTEX
8
CUT
10
176.7211
20
182.8409
0
VERTEX
8
CUT
10
176.8870
20
182.7002
0
VERTEX
8
CUT
10
177.4168
20
182.0695
0
VERTEX
8
CUT
10
177.4472
20
182.0453
0
VERTEX
8
CUT
10
178.1896
20
181.0665
0
VERTEX
8
CUT
10
178.6791
20
180.0716
0
VERTEX
8
CUT
10
178.6394
20
178.7845
0
VERTEX
8
CUT
10
177.5544
20
177.0552
0
VERTEX
8
CUT
10
176.2647
20
176.2115
0
VERTEX
8
CUT
10
175.3262
20
175.9490
0
VERTEX
8
CUT
10
168.6709
20
175.5971
0
VERTEX
8
CUT
10
166.7020
20
175.2894
0
VERTEX
8
CUT
10
165.4474
20
174.4984
0
VERTEX
8
CUT
10
165.4387
20
174.4957
0
VERTEX
8
CUT
10
165.3767
20
174.4538
0
VERTEX
8
CUT
10
164.4576
20
173.8744
0
VERTEX
8
CUT
10
162.6683
20
171.8870
0
VERTEX
8
CUT
10
160.0575
20
167.8399
0
VERTEX
8
CUT
10
156.2892
20
164.8248
0
VERTEX
8
CUT
10
155.5320
20
163.7512
0
VERTEX
8
CUT
10
155.0905
20
162.1535
0
VERTEX
8
CUT
10
154.6214
20
157.3838
0
VERTEX
8
CUT
10
153.9044
20
155.1008
0
VERTEX
8
CUT
10
153.0299
20
154.1102
0
VERTEX
8
CUT
10
151.9310
20
153.3792
0
VERTEX
8
CUT
10
150.7915
20
153.0397
0
VERTEX
8
CUT
10
149.6256
20
153.0074
0
VERTEX
8
CUT
10
147.9472
20
153.5717
0
VERTEX
8
CUT
10
146.2261
20
155.0893
0
VERTEX
8
CUT
10
146.2185
20
155.1034
0
VERTEX
8
CUT
10
145.8416
20
156.0789
0
VERTEX
8
CUT
10
145.7512
20
156.3129
0
VERTEX
8
CUT
10
145.7194
20
156.3954
0
VERTEX
8
CUT
10
145.5652
20
156.7945
0
VERTEX
8
CUT
10
145.3765
20
157.4667
0
VERTEX
8
CUT
10
144.7920
20
162.1695
0
VERTEX
8
CUT
10
144.2791
20
163.7705
0
VERTEX
8
CUT
10
143.9534
20
164.1811
0
VERTEX
8
CUT
10
143.9286
20
164.2494
0
VERTEX
8
CUT
10
143.7774
20
164.4031
0
VERTEX
8
CUT
10
143.3140
20
164.9872
0
VERTEX
8
CUT
10
139.8479
20
167.7277
0
VERTEX
8
CUT
10
137.3501
20
171.7516
0
VERTEX
8
CUT
10
135.7743
20
173.6115
0
VERTEX
8
CUT
10
133.7967
20
174.8793
0
VERTEX
8
CUT
10
132.3660
20
175.4610
0
VERTEX
8
CUT
10
125.6551
20
175.7749
0
VERTEX
8
CUT
10
124.1161
20
176.0410
0
VERTEX
8
CUT
10
122.8211
20
176.6742
0
VERTEX
8
CUT
10
121.7233
20
177.7135
0
VERTEX
8
CUT
10
121.1175
20
179.0744
0
VERTEX
8
CUT
10
121.1216
20
179.1415
0
VERTEX
8
CUT
10
121.1244
20
179.1856
0
VERTEX
8
CUT
10
121.1258
20
179.2087
0
VERTEX
8
CUT
10
121.1280
20
179.2439
0
VERTEX
8
CUT
10
121.2115
20
180.3229
0
VERTEX
8
CUT
10
121.6035
20
181.0862
0
VERTEX
8
CUT
10
122.1317
20
181.8053
0
VERTEX
8
CUT
10
123.2526
20
182.8479
0
VERTEX
8
CUT
10
123.6522
20
183.7261
0
VERTEX
8
CUT
10
123.6382
20
183.8561
0
VERTEX
8
CUT
10
123.6636
20
183.8906
0
VERTEX
8
CUT
10
123.6190
20
184.2534
0
VERTEX
8
CUT
10
123.4941
20
184.3872
0
VERTEX
8
CUT
10
123.0820
20
185.0382
0
VERTEX
8
CUT
10
121.8734
20
185.8438
0
VERTEX
8
CUT
10
120.9910
20
186.0445
0
VERTEX
8
CUT
10
120.9710
20
186.0551
0
VERTEX
8
CUT
10
120.9310
20
186.0582
0
VERTEX
8
CUT
10
119.4419
20
186.3969
0
VERTEX
8
CUT
10
104.9571
20
187.0099
0
VERTEX
8
CUT
10
98.3040
20
187.5958
0
VERTEX
8
CUT
10
92.1084
20
188.5058
0
VERTEX
8
CUT
10
85.8323
20
189.7380
0
VERTEX
8
CUT
10
80.3494
20
191.1750
0
VERTEX
8
CUT
10
72.3596
20
193.8475
0
VERTEX
8
CUT
10
71.1510
20
194.3139
0
VERTEX
8
CUT
10
70.9786
20
194.3804
0
VERTEX
8
CUT
10
70.6281
20
194.5157
0
VERTEX
8
CUT
10
70.2755
20
194.6517
0
VERTEX
8
CUT
10
64.4627
20
197.3974
0
VERTEX
8
CUT
10
64.1546
20
197.5626
0
VERTEX
8
CUT
10
63.7992
20
197.7531
0
VERTEX
8
CUT
10
63.5806
20
197.8703
0
VERTEX
8
CUT
10
63.2674
20
198.0383
0
VERTEX
8
CUT
10
62.7723
20
198.3037
0
VERTEX
8
CUT
10
60.8277
20
199.4593
0
VERTEX
8
CUT
10
59.9824
20
200.0686
0
VERTEX
8
CUT
10
59.6340
20
200.6127
0
VERTEX
8
CUT
10
60.0370
20
201.0361
0
VERTEX
8
CUT
10
61.0045
20
200.9143
0
VERTEX
8
CUT
10
61.8042
20
200.7574
0
VERTEX
8
CUT
10
67.4270
20
199.1195
0
VERTEX
8
CUT
10
70.6427
20
198.1594
0
VERTEX
8
CUT
10
71.6396
20
197.8924
0
VERTEX
8
CUT
10
77.0490
20
196.3166
0
VERTEX
8
CUT
10
80.7597
20
195.4498
0
VERTEX
8
CUT
10
82.5322
20
194.9751
0
VERTEX
8
CUT
10
85.1285
20
194.4137
0
VERTEX
8
CUT
10
85.3396
20
194.3609
0
VERTEX
8
CUT
10
85.7788
20
194.2731
0
VERTEX
8
CUT
10
86.0256
20
194.2197
0
VERTEX
8
CUT
10
88.1746
20
193.7177
0
VERTEX
8
CUT
10
93.4773
20
192.7218
0
VERTEX
8
CUT
10
97.5634
20
192.1878
0
VERTEX
8
CUT
10
98.3703
20
192.0522
0
VERTEX
8
CUT
10
99.1736
20
191.9774
0
VERTEX
8
CUT
10
103.7488
20
191.3795
0
VERTEX
8
CUT
10
111.1469
20
190.8835
0
VERTEX
8
CUT
10
111.9775
20
191.0491
0
VERTEX
8
CUT
10
112.5201
20
191.0843
0
VERTEX
8
CUT
10
112.8104
20
191.2153
0
VERTEX
8
CUT
10
112.9414
20
191.2414
0
VERTEX
8
CUT
10
113.0475
20
191.3222
0
VERTEX
8
CUT
10
113.2858
20
191.4297
0
VERTEX
8
CUT
10
113.3896
20
191.5827
0
VERTEX
8
CUT
10
113.4953
20
191.6633
0
VERTEX
8
CUT
10
113.7620
20
192.1386
0
VERTEX
8
CUT
10
113.6366
20
192.8689
0
VERTEX
8
CUT
10
113.0431
20
193.3009
0
VERTEX
8
CUT
10
104.5317
20
196.4193
0
VERTEX
8
CUT
10
94.4938
20
200.7095
0
VERTEX
8
CUT
10
94.4632
20
200.7243
0
VERTEX
8
CUT
10
94.4472
20
200.7321
0
VERTEX
8
CUT
10
94.3857
20
200.7619
0
VERTEX
8
CUT
10
94.3111
20
200.7981
0
VERTEX
8
CUT
10
89.6133
20
203.1616
0
VERTEX
8
CUT
10
80.4262
20
208.4865
0
VERTEX
8
CUT
10
76.5627
20
211.0884
0
VERTEX
8
CUT
10
76.2137
20
211.3281
0
VERTEX
8
CUT
10
76.1136
20
211.3968
0
VERTEX
8
CUT
10
76.0787
20
211.4207
0
VERTEX
8
CUT
10
76.0284
20
211.4553
0
VERTEX
8
CUT
10
69.5645
20
216.4416
0
VERTEX
8
CUT
10
69.5617
20
216.4442
0
VERTEX
8
CUT
10
65.6413
20
220.1630
0
VERTEX
8
CUT
10
65.0811
20
221.0581
0
VERTEX
8
CUT
10
65.4078
20
221.4019
0
VERTEX
8
CUT
10
66.2058
20
221.1718
0
VERTEX
8
CUT
10
67.1691
20
220.6600
0
VERTEX
8
CUT
10
73.0385
20
217.2903
0
VERTEX
8
CUT
10
74.1732
20
216.6389
0
VERTEX
8
CUT
10
74.7235
20
216.3229
0
VERTEX
8
CUT
10
76.1259
20
215.5178
0
VERTEX
8
CUT
10
78.1209
20
214.3504
0
VERTEX
8
CUT
10
78.8361
20
213.9618
0
VERTEX
8
CUT
10
81.3791
20
212.5019
0
VERTEX
8
CUT
10
88.3435
20
208.7856
0
VERTEX
8
CUT
10
88.4351
20
208.7473
0
VERTEX
8
CUT
10
88.9339
20
208.4763
0
VERTEX
8
CUT
10
94.7353
20
205.6091
0
VERTEX
8
CUT
10
94.7518
20
205.5961
0
VERTEX
8
CUT
10
97.7073
20
204.0744
0
VERTEX
8
CUT
10
98.6902
20
203.6546
0
VERTEX
8
CUT
10
99.0590
20
203.4723
0
VERTEX
8
CUT
10
108.5476
20
199.3557
0
VERTEX
8
CUT
10
116.6429
20
196.4126
0
VERTEX
8
CUT
10
117.0971
20
196.3708
0
VERTEX
8
CUT
10
117.4070
20
196.2599
0
VERTEX
8
CUT
10
118.1352
20
196.2553
0
VERTEX
8
CUT
10
118.1547
20
196.2735
0
VERTEX
8
CUT
10
118.2393
20
196.2658
0
VERTEX
8
CUT
10
119.2579
20
197.2307
0
VERTEX
8
CUT
10
119.0714
20
197.8351
0
VERTEX
8
CUT
10
118.7533
20
198.1530
0
VERTEX
8
CUT
10
118.6691
20
198.3588
0
VERTEX
8
CUT
10
118.2244
20
198.6817
0
VERTEX
8
CUT
10
118.1653
20
198.7407
0
VERTEX
8
CUT
10
107.9958
20
206.2791
0
VERTEX
8
CUT
10
103.1799
20
210.7414
0
VERTEX
8
CUT
10
99.2527
20
215.6732
0
VERTEX
8
CUT
10
97.9176
20
217.9956
0
SEQEND
0
POLYLINE
8
CUT
66
1
70
1
10
0.0
20
0.0
30
0.0
0
VERTEX
8
CUT
10
137.1016
20
222.9158
0
VERTEX
8
CUT
10
137.4391
20
222.9062
0
VERTEX
8
CUT
10
137.4427
20
222.9060
0
VERTEX
8
CUT
10
137.4575
20
222.9056
0
VERTEX
8
CUT
10
137.4604
20
222.9055
0
VERTEX
8
CUT
10
137.5296
20
222.8931
0
VERTEX
8
CUT
10
137.5621
20
222.8606
0
VERTEX
8
CUT
10
138.6447
20
222.6265
0
VERTEX
8
CUT
10
139.0079
20
222.6265
0
VERTEX
8
CUT
10
139.4543
20
222.5460
0
VERTEX
8
CUT
10
140.5096
20
222.7205
0
VERTEX
8
CUT
10
141.8223
20
224.0562
0
VERTEX
8
CUT
10
143.8645
20
227.5495
0
VERTEX
8
CUT
10
143.8820
20
227.5709
0
VERTEX
8
CUT
10
145.6174
20
228.4638
0
VERTEX
8
CUT
10
146.0773
20
228.5374
0
VERTEX
8
CUT
10
146.7503
20
229.1519
0
VERTEX
8
CUT
10
146.7758
20
229.2283
0
VERTEX
8
CUT
10
146.8491
20
229.2961
0
VERTEX
8
CUT
10
146.8964
20
229.4215
0
VERTEX
8
CUT
10
146.9078
20
229.4306
0
VERTEX
8
CUT
10
146.9268
20
229.5020
0
VERTEX
8
CUT
10
146.9302
20
229.5111
0
VERTEX
8
CUT
10
147.0661
20
229.6398
0
VERTEX
8
CUT
10
147.5065
20
230.5621
0
VERTEX
8
CUT
10
147.6516
20
231.4668
0
VERTEX
8
CUT
10
147.7414
20
234.7656
0
VERTEX
8
CUT
10
147.7579
20
235.0019
0
VERTEX
8
CUT
10
148.0142
20
238.6675
0
VERTEX
8
CUT
10
148.4380
20
239.7253
0
VERTEX
8
CUT
10
149.0601
20
240.4778
0
VERTEX
8
CUT
10
149.7947
20
240.9888
0
VERTEX
8
CUT
10
150.6251
20
241.1796
0
VERTEX
8
CUT
10
151.4143
20
241.0540
0
VERTEX
8
CUT
10
152.1862
20
240.6030
0
VERTEX
8
CUT
10
152.8314
20
239.8954
0
VERTEX
8
CUT
10
153.3871
20
238.8727
0
VERTEX
8
CUT
10
153.6314
20
236.3339
0
VERTEX
8
CUT
10
153.6604
20
229.9592
0
VERTEX
8
CUT
10
153.8102
20
229.0372
0
VERTEX
8
CUT
10
154.5421
20
227.6597
0
VERTEX
8
CUT
10
154.6548
20
227.5396
0
VERTEX
8
CUT
10
154.7427
20
227.3781
0
VERTEX
8
CUT
10
154.9313
20
227.2447
0
VERTEX
8
CUT
10
155.1827
20
226.9766
0
VERTEX
8
CUT
10
155.2363
20
226.8695
0
VERTEX
8
CUT
10
155.4750
20
226.8322
0
VERTEX
8
CUT
10
155.9375
20
226.6203
0
VERTEX
8
CUT
10
156.1040
20
226.7339
0
VERTEX
8
CUT
10
156.1726
20
226.7232
0
VERTEX
8
CUT
10
156.4931
20
226.9994
0
VERTEX
8
CUT
10
158.5678
20
228.4152
0
VERTEX
8
CUT
10
159.7109
20
228.4531
0
VERTEX
8
CUT
10
159.9843
20
228.2542
0
VERTEX
8
CUT
10
160.0602
20
228.1709
0
VERTEX
8
CUT
10
160.0859
20
228.1427
0
VERTEX
8
CUT
10
160.1997
20
228.0178
0
VERTEX
8
CUT
10
160.5216
20
227.6646
0
VERTEX
8
CUT
10
160.7038
20
227.4004
0
VERTEX
8
CUT
10
161.6521
20
224.1453
0
VERTEX
8
CUT
10
162.1535
20
223.2948
0
VERTEX
8
CUT
10
164.3367
20
220.9395
0
VERTEX
8
CUT
10
165.1589
20
219.9063
0
VERTEX
8
CUT
10
165.9526
20
219.2751
0
VERTEX
8
CUT
10
166.3434
20
219.0593
0
VERTEX
8
CUT
10
168.7050
20
217.3543
0
VERTEX
8
CUT
10
169.3776
20
216.2775
0
VERTEX
8
CUT
10
169.4011
20
216.1950
0
VERTEX
8
CUT
10
169.4049
20
216.1815
0
VERTEX
8
CUT
10
169.4103
20
216.1624
0
VERTEX
8
CUT
10
169.4179
20
216.1358
0
VERTEX
8
CUT
10
169.4333
20
215.8661
0
VERTEX
8
CUT
10
169.3873
20
215.6823
0
VERTEX
8
CUT
10
169.3584
20
215.5668
0
VERTEX
8
CUT
10
169.2941
20
215.3099
0
VERTEX
8
CUT
10
169.2540
20
215.1498
0
VERTEX
8
CUT
10
168.9531
20
214.7525
0
VERTEX
8
CUT
10
167.8683
20
214.4340
0
VERTEX
8
CUT
10
162.4357
20
214.1955
0
VERTEX
8
CUT
10
160.4831
20
213.8750
0
VERTEX
8
CUT
10
152.2481
20
210.8303
0
VERTEX
8
CUT
10
148.7355
20
210.6827
0
VERTEX
8
CUT
10
146.5520
20
211.1672
0
VERTEX
8
CUT
10
139.8784
20
213.7615
0
VERTEX
8
CUT
10
137.0391
20
214.3870
0
VERTEX
8
CUT
10
135.7805
20
215.1345
0
VERTEX
8
CUT
10
135.1270
20
216.0559
0
VERTEX
8
CUT
10
134.7251
20
217.1643
0
VERTEX
8
CUT
10
134.6333
20
219.6120
0
VERTEX
8
CUT
10
134.9046
20
220.7883
0
VERTEX
8
CUT
10
135.4101
20
221.7767
0
VERTEX
8
CUT
10
136.2045
20
222.5575
0
SEQEND
0
ENDSEC
0
EOF
