0
SECTION
2
HEADER
9
$ACADVER
1
AC1009
9
$INSUNITS
70
4
0
ENDSEC
0
SECTION
2
TABLES
0
TABLE
2
LAYER
70
1
0
LAYER
2
CUT
70
0
62
7
6
CONTINUOUS
0
ENDTAB
0
ENDSEC
0
SECTION
2
ENTITIES
0
POLYLINE
8
CUT
66
1
70
1
10
0.0
20
0.0
30
0.0
0
VERTEX
8
CUT
10
71.1544
20
80.9724
0
VERTEX
8
CUT
10
71.1509
20
81.0122
0
VERTEX
8
CUT
10
71.1307
20
81.2388
0
VERTEX
8
CUT
10
71.1355
20
81.6764
0
VERTEX
8
CUT
10
71.1661
20
82.4087
0
VERTEX
8
CUT
10
71.1684
20
82.4652
0
VERTEX
8
CUT
10
71.1744
20
82.6093
0
VERTEX
8
CUT
10
71.2094
20
83.4480
0
VERTEX
8
CUT
10
71.5085
20
85.3027
0
VERTEX
8
CUT
10
72.0552
20
87.1873
0
VERTEX
8
CUT
10
73.4061
20
89.9457
0
VERTEX
8
CUT
10
76.1203
20
93.7226
0
VERTEX
8
CUT
10
76.6087
20
94.3952
0
VERTEX
8
CUT
10
76.6228
20
94.4219
0
VERTEX
8
CUT
10
77.4767
20
95.6101
0
VERTEX
8
CUT
10
78.0544
20
97.0249
0
VERTEX
8
CUT
10
78.3663
20
98.4640
0
VERTEX
8
CUT
10
78.3465
20
99.1051
0
VERTEX
8
CUT
10
78.3737
20
99.2391
0
VERTEX
8
CUT
10
78.4010
20
100.7581
0
VERTEX
8
CUT
10
78.2656
20
101.7168
0
VERTEX
8
CUT
10
78.2587
20
101.9386
0
VERTEX
8
CUT
10
78.2001
20
102.1798
0
VERTEX
8
CUT
10
78.1555
20
102.4960
0
VERTEX
8
CUT
10
78.1149
20
102.5311
0
VERTEX
8
CUT
10
77.1010
20
106.7078
0
VERTEX
8
CUT
10
77.0445
20
107.1495
0
VERTEX
8
CUT
10
77.2852
20
107.5297
0
VERTEX
8
CUT
10
77.9158
20
107.3995
0
VERTEX
8
CUT
10
78.4369
20
107.0192
0
VERTEX
8
CUT
10
80.7810
20
104.7973
0
VERTEX
8
CUT
10
83.8350
20
101.2097
0
VERTEX
8
CUT
10
85.3862
20
98.8258
0
VERTEX
8
CUT
10
87.0454
20
95.1415
0
VERTEX
8
CUT
10
87.8136
20
91.8028
0
VERTEX
8
CUT
10
87.8654
20
91.2200
0
VERTEX
8
CUT
10
87.8464
20
90.6285
0
VERTEX
8
CUT
10
87.9611
20
89.9629
0
VERTEX
8
CUT
10
87.8428
20
86.7889
0
VERTEX
8
CUT
10
87.1026
20
83.9751
0
VERTEX
8
CUT
10
86.5003
20
82.7615
0
VERTEX
8
CUT
10
80.6079
20
75.9900
0
VERTEX
8
CUT
10
79.1660
20
73.5091
0
VERTEX
8
CUT
10
78.1059
20
70.8626
0
VERTEX
8
CUT
10
76.3292
20
64.3214
0
VERTEX
8
CUT
10
75.2114
20
56.9961
0
VERTEX
8
CUT
10
74.9451
20
53.3056
0
VERTEX
8
CUT
10
74.8565
20
49.7436
0
VERTEX
8
CUT
10
75.3559
20
43.3126
0
VERTEX
8
CUT
10
75.8607
20
40.2839
0
VERTEX
8
CUT
10
77.2392
20
34.7987
0
VERTEX
8
CUT
10
79.1499
20
30.0013
0
VERTEX
8
CUT
10
80.2627
20
27.9195
0
VERTEX
8
CUT
10
81.5471
20
26.0095
0
VERTEX
8
CUT
10
81.9591
20
25.5953
0
VERTEX
8
CUT
10
82.1045
20
25.1008
0
VERTEX
8
CUT
10
82.5189
20
24.6568
0
VERTEX
8
CUT
10
84.0283
20
23.4433
0
VERTEX
8
CUT
10
85.8338
20
22.5850
0
VERTEX
8
CUT
10
86.8105
20
22.3778
0
VERTEX
8
CUT
10
87.6951
20
22.3652
0
VERTEX
8
CUT
10
87.7782
20
22.3559
0
VERTEX
8
CUT
10
87.8532
20
22.3629
0
VERTEX
8
CUT
10
88.8822
20
22.3482
0
VERTEX
8
CUT
10
91.1316
20
22.8810
0
VERTEX
8
CUT
10
93.7953
20
24.3016
0
VERTEX
8
CUT
10
96.8142
20
26.6694
0
VERTEX
8
CUT
10
97.8148
20
27.6699
0
VERTEX
8
CUT
10
98.2729
20
28.1001
0
VERTEX
8
CUT
10
98.4644
20
28.3196
0
VERTEX
8
CUT
10
99.7739
20
29.6291
0
VERTEX
8
CUT
10
102.3489
20
32.8552
0
VERTEX
8
CUT
10
103.6350
20
34.8441
0
VERTEX
8
CUT
10
103.9439
20
35.2709
0
VERTEX
8
CUT
10
104.7045
20
36.4982
0
VERTEX
8
CUT
10
104.8942
20
36.7916
0
VERTEX
8
CUT
10
104.9308
20
36.8634
0
VERTEX
8
CUT
10
105.6237
20
37.9813
0
VERTEX
8
CUT
10
106.3212
20
39.3619
0
VERTEX
8
CUT
10
106.5390
20
39.7226
0
VERTEX
8
CUT
10
107.8752
20
42.3953
0
VERTEX
8
CUT
10
107.9541
20
42.5939
0
VERTEX
8
CUT
10
108.4948
20
43.6642
0
VERTEX
8
CUT
10
109.6735
20
46.5837
0
VERTEX
8
CUT
10
111.4646
20
52.4855
0
VERTEX
8
CUT
10
112.0885
20
55.4863
0
VERTEX
8
CUT
10
112.6173
20
59.7518
0
VERTEX
8
CUT
10
112.5302
20
64.4566
0
VERTEX
8
CUT
10
112.4084
20
64.8356
0
VERTEX
8
CUT
10
112.0692
20
64.9616
0
VERTEX
8
CUT
10
111.7728
20
64.7541
0
VERTEX
8
CUT
10
110.0851
20
61.3541
0
VERTEX
8
CUT
10
108.9461
20
59.8198
0
VERTEX
8
CUT
10
107.6406
20
58.4209
0
VERTEX
8
CUT
10
106.2179
20
57.2935
0
VERTEX
8
CUT
10
104.6288
20
56.3303
0
VERTEX
8
CUT
10
102.9227
20
55.5867
0
VERTEX
8
CUT
10
101.1497
20
55.1096
0
VERTEX
8
CUT
10
97.6768
20
54.8445
0
VERTEX
8
CUT
10
94.6355
20
55.2423
0
VERTEX
8
CUT
10
93.2523
20
55.6964
0
VERTEX
8
CUT
10
90.7383
20
57.0274
0
VERTEX
8
CUT
10
88.4538
20
59.0337
0
VERTEX
8
CUT
10
86.3729
20
61.7682
0
VERTEX
8
CUT
10
85.5543
20
63.6366
0
VERTEX
8
CUT
10
85.1208
20
65.7897
0
VERTEX
8
CUT
10
85.0913
20
69.1173
0
VERTEX
8
CUT
10
85.4203
20
71.0150
0
VERTEX
8
CUT
10
86.1130
20
72.7722
0
VERTEX
8
CUT
10
87.1914
20
74.4168
0
VERTEX
8
CUT
10
87.3158
20
74.5660
0
VERTEX
8
CUT
10
87.9522
20
75.2418
0
VERTEX
8
CUT
10
88.2265
20
75.4847
0
VERTEX
8
CUT
10
90.2479
20
76.7910
0
VERTEX
8
CUT
10
92.6024
20
77.4012
0
VERTEX
8
CUT
10
92.9926
20
77.4047
0
VERTEX
8
CUT
10
95.1256
20
77.2150
0
VERTEX
8
CUT
10
96.2002
20
76.7852
0
VERTEX
8
CUT
10
97.0506
20
76.2083
0
VERTEX
8
CUT
10
98.2480
20
74.9770
0
VERTEX
8
CUT
10
98.6670
20
74.1885
0
VERTEX
8
CUT
10
98.9172
20
73.0346
0
VERTEX
8
CUT
10
98.8550
20
71.7958
0
VERTEX
8
CUT
10
98.4444
20
70.6916
0
VERTEX
8
CUT
10
97.6942
20
69.7846
0
VERTEX
8
CUT
10
96.3329
20
68.9329
0
VERTEX
8
CUT
10
95.6776
20
68.7242
0
VERTEX
8
CUT
10
94.9230
20
68.8500
0
VERTEX
8
CUT
10
93.4488
20
69.6034
0
VERTEX
8
CUT
10
92.9750
20
69.6501
0
VERTEX
8
CUT
10
92.6372
20
69.3451
0
VERTEX
8
CUT
10
92.0879
20
67.8859
0
VERTEX
8
CUT
10
92.2529
20
66.1512
0
VERTEX
8
CUT
10
93.0802
20
64.4396
0
VERTEX
8
CUT
10
93.3975
20
64.1158
0
VERTEX
8
CUT
10
93.4106
20
64.0504
0
VERTEX
8
CUT
10
94.1505
20
63.0737
0
VERTEX
8
CUT
10
95.8079
20
62.0970
0
VERTEX
8
CUT
10
96.8142
20
61.7714
0
VERTEX
8
CUT
10
99.0340
20
61.5642
0
VERTEX
8
CUT
10
100.1291
20
61.6826
0
VERTEX
8
CUT
10
102.2009
20
62.3930
0
VERTEX
8
CUT
10
103.8287
20
63.4880
0
VERTEX
8
CUT
10
104.9830
20
64.8199
0
VERTEX
8
CUT
10
105.8090
20
66.2842
0
VERTEX
8
CUT
10
105.8502
20
66.3464
0
VERTEX
8
CUT
10
105.8600
20
66.3746
0
VERTEX
8
CUT
10
106.2853
20
67.1285
0
VERTEX
8
CUT
10
106.4425
20
68.0459
0
VERTEX
8
CUT
10
106.7577
20
68.9514
0
VERTEX
8
CUT
10
107.0783
20
71.8643
0
VERTEX
8
CUT
10
106.7285
20
75.1404
0
VERTEX
8
CUT
10
106.2154
20
77.0759
0
VERTEX
8
CUT
10
106.0874
20
77.7113
0
VERTEX
8
CUT
10
105.9534
20
78.0645
0
VERTEX
8
CUT
10
105.7805
20
78.7166
0
VERTEX
8
CUT
10
104.2211
20
82.5362
0
VERTEX
8
CUT
10
102.0697
20
86.5703
0
VERTEX
8
CUT
10
98.4209
20
91.9244
0
VERTEX
8
CUT
10
93.1149
20
97.7900
0
VERTEX
8
CUT
10
87.8247
20
102.6659
0
VERTEX
8
CUT
10
87.3200
20
103.4736
0
VERTEX
8
CUT
10
87.4928
20
103.8839
0
VERTEX
8
CUT
10
87.9677
20
103.9769
0
VERTEX
8
CUT
10
88.4232
20
103.9028
0
VERTEX
8
CUT
10
91.6644
20
102.8224
0
VERTEX
8
CUT
10
94.3873
20
101.4314
0
VERTEX
8
CUT
10
97.1398
20
99.5668
0
VERTEX
8
CUT
10
101.2338
20
96.0536
0
VERTEX
8
CUT
10
103.4900
20
93.5393
0
VERTEX
8
CUT
10
103.5399
20
93.4698
0
VERTEX
8
CUT
10
104.3636
20
92.2851
0
VERTEX
8
CUT
10
104.6242
20
91.9102
0
VERTEX
8
CUT
10
105.0516
20
91.2955
0
VERTEX
8
CUT
10
106.1366
20
89.7347
0
VERTEX
8
CUT
10
107.6181
20
87.3644
0
VERTEX
8
CUT
10
112.7521
20
77.3047
0
VERTEX
8
CUT
10
114.0890
20
74.3326
0
VERTEX
8
CUT
10
115.9315
20
69.2164
0
VERTEX
8
CUT
10
116.5273
20
66.8851
0
VERTEX
8
CUT
10
117.1185
20
62.2436
0
VERTEX
8
CUT
10
117.1792
20
58.0312
0
VERTEX
8
CUT
10
116.9258
20
53.7944
0
VERTEX
8
CUT
10
117.0458
20
53.5214
0
VERTEX
8
CUT
10
117.5966
20
53.5335
0
VERTEX
8
CUT
10
117.7404
20
53.7351
0
VERTEX
8
CUT
10
119.9637
20
56.6002
0
VERTEX
8
CUT
10
120.3586
20
57.0266
0
VERTEX
8
CUT
10
122.6524
20
59.1965
0
VERTEX
8
CUT
10
124.2802
20
60.3804
0
VERTEX
8
CUT
10
125.7974
20
61.1819
0
VERTEX
8
CUT
10
128.2988
20
61.7119
0
VERTEX
8
CUT
10
129.5952
20
61.5602
0
VERTEX
8
CUT
10
129.6076
20
61.5565
0
VERTEX
8
CUT
10
129.6390
20
61.5468
0
VERTEX
8
CUT
10
129.9042
20
61.4654
0
VERTEX
8
CUT
10
130.0373
20
61.4245
0
VERTEX
8
CUT
10
131.5923
20
60.1133
0
VERTEX
8
CUT
10
132.1537
20
58.7161
0
VERTEX
8
CUT
10
131.9443
20
57.1447
0
VERTEX
8
CUT
10
131.8291
20
56.9076
0
VERTEX
8
CUT
10
131.1723
20
55.8175
0
VERTEX
8
CUT
10
129.7576
20
54.5259
0
VERTEX
8
CUT
10
123.3063
20
49.9082
0
VERTEX
8
CUT
10
119.6284
20
46.5523
0
VERTEX
8
CUT
10
115.3816
20
41.7738
0
VERTEX
8
CUT
10
105.1708
20
29.0771
0
VERTEX
8
CUT
10
99.7936
20
23.1966
0
VERTEX
8
CUT
10
96.8039
20
20.5916
0
VERTEX
8
CUT
10
93.9371
20
18.7220
0
VERTEX
8
CUT
10
91.0070
20
17.4788
0
VERTEX
8
CUT
10
88.0916
20
16.9326
0
VERTEX
8
CUT
10
85.2846
20
17.1502
0
VERTEX
8
CUT
10
84.0354
20
17.5385
0
VERTEX
8
CUT
10
81.9252
20
18.6959
0
VERTEX
8
CUT
10
80.8787
20
19.6589
0
VERTEX
8
CUT
10
80.8603
20
19.6777
0
VERTEX
8
CUT
10
80.7972
20
19.7421
0
VERTEX
8
CUT
10
80.7113
20
19.8296
0
VERTEX
8
CUT
10
79.5799
20
20.9837
0
VERTEX
8
CUT
10
78.0862
20
23.0101
0
VERTEX
8
CUT
10
77.9464
20
23.2279
0
VERTEX
8
CUT
10
76.3131
20
26.1840
0
VERTEX
8
CUT
10
74.7993
20
29.8090
0
VERTEX
8
CUT
10
73.4721
20
33.9085
0
VERTEX
8
CUT
10
72.4910
20
37.9096
0
VERTEX
8
CUT
10
72.2875
20
38.8544
0
VERTEX
8
CUT
10
71.4631
20
44.1270
0
VERTEX
8
CUT
10
71.3712
20
44.8412
0
VERTEX
8
CUT
10
71.3511
20
44.9972
0
VERTEX
8
CUT
10
71.2801
20
45.5493
0
VERTEX
8
CUT
10
71.1851
20
46.2873
0
VERTEX
8
CUT
10
70.9439
20
51.2645
0
VERTEX
8
CUT
10
71.0335
20
60.2209
0
VERTEX
8
CUT
10
71.4803
20
64.9178
0
VERTEX
8
CUT
10
72.5734
20
70.6198
0
VERTEX
8
CUT
10
72.5835
20
70.6591
0
VERTEX
8
CUT
10
72.5838
20
70.6602
0
VERTEX
8
CUT
10
73.9115
20
75.2657
0
VERTEX
8
CUT
10
74.7270
20
77.2303
0
VERTEX
8
CUT
10
76.5330
20
80.5172
0
VERTEX
8
CUT
10
79.9519
20
84.8964
0
VERTEX
8
CUT
10
80.7750
20
86.7128
0
VERTEX
8
CUT
10
81.2230
20
88.5653
0
VERTEX
8
CUT
10
80.9792
20
88.8855
0
VERTEX
8
CUT
10
80.5823
20
88.8192
0
VERTEX
8
CUT
10
76.3798
20
84.9316
0
VERTEX
8
CUT
10
75.6080
20
84.2497
0
VERTEX
8
CUT
10
75.4770
20
84.0964
0
VERTEX
8
CUT
10
75.1887
20
83.8297
0
VERTEX
8
CUT
10
73.7644
20
82.0910
0
VERTEX
8
CUT
10
72.0964
20
79.1742
0
VERTEX
8
CUT
10
71.8328
20
79.0564
0
VERTEX
8
CUT
10
71.4702
20
79.2729
0
VERTEX
8
CUT
10
71.2409
20
80.0026
0
VERTEX
8
CUT
10
71.2195
20
80.2428
0
VERTEX
8
CUT
10
71.1985
20
80.4778
0
VERTEX
8
CUT
10
71.1657
20
80.8463
0
VERTEX
8
CUT
10
71.1633
20
80.8726
0
SEQEND
0
POLYLINE
8
CUT
66
1
70
1
10
0.0
20
0.0
30
0.0
0
VERTEX
8
CUT
10
188.3573
20
78.3869
0
VERTEX
8
CUT
10
188.2649
20
78.3134
0
VERTEX
8
CUT
10
188.2538
20
78.3054
0
VERTEX
8
CUT
10
188.2445
20
78.2365
0
VERTEX
8
CUT
10
188.5219
20
77.2208
0
VERTEX
8
CUT
10
188.2852
20
76.4645
0
VERTEX
8
CUT
10
188.0775
20
75.8012
0
VERTEX
8
CUT
10
187.5639
20
74.1601
0
VERTEX
8
CUT
10
187.2359
20
73.8816
0
VERTEX
8
CUT
10
187.1420
20
73.8095
0
VERTEX
8
CUT
10
187.0414
20
73.7470
0
VERTEX
8
CUT
10
186.9351
20
73.6947
0
VERTEX
8
CUT
10
186.8242
20
73.6531
0
VERTEX
8
CUT
10
186.7098
20
73.6227
0
VERTEX
8
CUT
10
186.5929
20
73.6037
0
VERTEX
8
CUT
10
186.4747
20
73.5964
0
VERTEX
8
CUT
10
186.3563
20
73.6007
0
VERTEX
8
CUT
10
185.6531
20
73.6612
0
VERTEX
8
CUT
10
185.5372
20
73.6769
0
VERTEX
8
CUT
10
185.4234
20
73.7037
0
VERTEX
8
CUT
10
185.3128
20
73.7416
0
VERTEX
8
CUT
10
185.2064
20
73.7900
0
VERTEX
8
CUT
10
185.1052
20
73.8485
0
VERTEX
8
CUT
10
185.0102
20
73.9166
0
VERTEX
8
CUT
10
184.9222
20
73.9937
0
VERTEX
8
CUT
10
183.3796
20
75.4837
0
VERTEX
8
CUT
10
183.5926
20
75.5636
0
VERTEX
8
CUT
10
183.5630
20
75.7708
0
VERTEX
8
CUT
10
182.9118
20
76.5995
0
VERTEX
8
CUT
10
182.3199
20
76.8067
0
VERTEX
8
CUT
10
181.6962
20
76.8160
0
VERTEX
8
CUT
10
181.0217
20
78.1048
0
VERTEX
8
CUT
10
180.9949
20
78.1636
0
VERTEX
8
CUT
10
180.9494
20
77.9524
0
VERTEX
8
CUT
10
180.1413
20
77.7516
0
VERTEX
8
CUT
10
177.5064
20
77.7198
0
VERTEX
8
CUT
10
177.2233
20
77.5531
0
VERTEX
8
CUT
10
175.1024
20
74.1855
0
VERTEX
8
CUT
10
172.9099
20
69.0027
0
VERTEX
8
CUT
10
172.5437
20
68.4814
0
VERTEX
8
CUT
10
172.2809
20
68.4021
0
VERTEX
8
CUT
10
171.6873
20
68.9524
0
VERTEX
8
CUT
10
171.0861
20
70.0679
0
VERTEX
8
CUT
10
170.5827
20
71.4289
0
VERTEX
8
CUT
10
170.4193
20
72.5409
0
VERTEX
8
CUT
10
170.4231
20
76.2070
0
VERTEX
8
CUT
10
170.6883
20
77.7834
0
VERTEX
8
CUT
10
171.2341
20
79.7328
0
VERTEX
8
CUT
10
171.8028
20
81.0370
0
VERTEX
8
CUT
10
171.6344
20
81.3969
0
VERTEX
8
CUT
10
171.2723
20
81.4373
0
VERTEX
8
CUT
10
170.6740
20
80.7797
0
VERTEX
8
CUT
10
170.6587
20
80.7727
0
VERTEX
8
CUT
10
170.6216
20
80.7222
0
VERTEX
8
CUT
10
166.9299
20
76.6655
0
VERTEX
8
CUT
10
163.9413
20
71.1031
0
VERTEX
8
CUT
10
162.0687
20
68.2791
0
VERTEX
8
CUT
10
159.2624
20
65.3505
0
VERTEX
8
CUT
10
158.0641
20
64.6439
0
VERTEX
8
CUT
10
157.4121
20
64.9281
0
VERTEX
8
CUT
10
157.1908
20
65.8238
0
VERTEX
8
CUT
10
157.4860
20
69.4831
0
VERTEX
8
CUT
10
158.0777
20
72.1419
0
VERTEX
8
CUT
10
158.4431
20
73.3339
0
VERTEX
8
CUT
10
158.9490
20
74.5427
0
VERTEX
8
CUT
10
160.1643
20
76.9661
0
VERTEX
8
CUT
10
160.2676
20
77.1401
0
VERTEX
8
CUT
10
160.4957
20
77.4274
0
VERTEX
8
CUT
10
160.6138
20
77.5763
0
VERTEX
8
CUT
10
160.7875
20
77.7952
0
VERTEX
8
CUT
10
161.3429
20
78.4951
0
VERTEX
8
CUT
10
163.2514
20
80.8572
0
VERTEX
8
CUT
10
163.2759
20
81.1943
0
VERTEX
8
CUT
10
163.0275
20
81.4236
0
VERTEX
8
CUT
10
161.2923
20
80.5307
0
VERTEX
8
CUT
10
158.2746
20
78.1851
0
VERTEX
8
CUT
10
156.5073
20
76.2725
0
VERTEX
8
CUT
10
154.4066
20
73.5172
0
VERTEX
8
CUT
10
152.5850
20
71.6091
0
VERTEX
8
CUT
10
150.5547
20
69.8802
0
VERTEX
8
CUT
10
148.3492
20
68.3622
0
VERTEX
8
CUT
10
146.0235
20
67.0521
0
VERTEX
8
CUT
10
143.5741
20
65.9494
0
VERTEX
8
CUT
10
141.0341
20
65.1154
0
VERTEX
8
CUT
10
138.4430
20
64.5810
0
VERTEX
8
CUT
10
135.3353
20
64.2256
0
VERTEX
8
CUT
10
132.3685
20
64.2549
0
VERTEX
8
CUT
10
129.5661
20
64.5806
0
VERTEX
8
CUT
10
126.9363
20
65.2346
0
VERTEX
8
CUT
10
124.5697
20
66.2021
0
VERTEX
8
CUT
10
122.5641
20
67.4526
0
VERTEX
8
CUT
10
120.9486
20
68.9231
0
VERTEX
8
CUT
10
119.8047
20
70.6689
0
VERTEX
8
CUT
10
119.3463
20
71.7087
0
VERTEX
8
CUT
10
119.0942
20
73.1464
0
VERTEX
8
CUT
10
119.0935
20
73.2128
0
VERTEX
8
CUT
10
119.0926
20
73.2972
0
VERTEX
8
CUT
10
119.0901
20
73.5337
0
VERTEX
8
CUT
10
119.0808
20
74.4119
0
VERTEX
8
CUT
10
119.2788
20
75.6595
0
VERTEX
8
CUT
10
119.6870
20
76.5824
0
VERTEX
8
CUT
10
120.9262
20
78.1292
0
VERTEX
8
CUT
10
121.9012
20
78.8364
0
VERTEX
8
CUT
10
124.0436
20
79.6182
0
VERTEX
8
CUT
10
124.0440
20
79.6182
0
VERTEX
8
CUT
10
126.1408
20
79.4716
0
VERTEX
8
CUT
10
126.7544
20
79.2329
0
VERTEX
8
CUT
10
127.2918
20
78.9946
0
VERTEX
8
CUT
10
127.3377
20
78.9638
0
VERTEX
8
CUT
10
128.2862
20
78.2460
0
VERTEX
8
CUT
10
129.5651
20
76.7073
0
VERTEX
8
CUT
10
129.6976
20
75.8985
0
VERTEX
8
CUT
10
129.3855
20
75.2247
0
VERTEX
8
CUT
10
127.3720
20
74.1907
0
VERTEX
8
CUT
10
126.9834
20
73.7362
0
VERTEX
8
CUT
10
126.8658
20
73.0022
0
VERTEX
8
CUT
10
126.9332
20
72.8712
0
VERTEX
8
CUT
10
126.9324
20
72.7246
0
VERTEX
8
CUT
10
127.2134
20
72.3272
0
VERTEX
8
CUT
10
127.3955
20
71.9736
0
VERTEX
8
CUT
10
127.6022
20
71.7773
0
VERTEX
8
CUT
10
127.7541
20
71.5625
0
VERTEX
8
CUT
10
127.9912
20
71.4078
0
VERTEX
8
CUT
10
128.0344
20
71.3666
0
VERTEX
8
CUT
10
128.0506
20
71.2966
0
VERTEX
8
CUT
10
128.2092
20
71.2006
0
VERTEX
8
CUT
10
128.6072
20
70.8225
0
VERTEX
8
CUT
10
130.1970
20
69.9681
0
VERTEX
8
CUT
10
131.0843
20
69.7559
0
VERTEX
8
CUT
10
131.5907
20
69.5554
0
VERTEX
8
CUT
10
132.1606
20
69.4305
0
VERTEX
8
CUT
10
132.2208
20
69.4081
0
VERTEX
8
CUT
10
132.2827
20
69.4038
0
VERTEX
8
CUT
10
133.7513
20
69.0819
0
VERTEX
8
CUT
10
136.1190
20
68.9339
0
VERTEX
8
CUT
10
139.9962
20
69.3186
0
VERTEX
8
CUT
10
143.5479
20
70.2657
0
VERTEX
8
CUT
10
144.7021
20
70.7985
0
VERTEX
8
CUT
10
144.7317
20
70.8313
0
VERTEX
8
CUT
10
147.6211
20
72.2394
0
VERTEX
8
CUT
10
149.2058
20
73.3455
0
VERTEX
8
CUT
10
149.9293
20
74.0445
0
VERTEX
8
CUT
10
150.7760
20
74.7128
0
VERTEX
8
CUT
10
151.1545
20
75.1589
0
VERTEX
8
CUT
10
151.1839
20
75.1197
0
VERTEX
8
CUT
10
151.7230
20
75.7776
0
VERTEX
8
CUT
10
151.7581
20
75.8115
0
VERTEX
8
CUT
10
151.7891
20
75.8583
0
VERTEX
8
CUT
10
152.9301
20
77.2506
0
VERTEX
8
CUT
10
153.2261
20
77.8722
0
VERTEX
8
CUT
10
153.1669
20
78.1977
0
VERTEX
8
CUT
10
152.5749
20
77.9906
0
VERTEX
8
CUT
10
152.5036
20
77.8921
0
VERTEX
8
CUT
10
152.4259
20
77.9044
0
VERTEX
8
CUT
10
148.7552
20
76.2793
0
VERTEX
8
CUT
10
145.1269
20
75.4464
0
VERTEX
8
CUT
10
139.0521
20
75.2059
0
VERTEX
8
CUT
10
136.0032
20
75.4781
0
VERTEX
8
CUT
10
135.6844
20
75.8510
0
VERTEX
8
CUT
10
135.7121
20
76.3065
0
VERTEX
8
CUT
10
136.4912
20
77.3857
0
VERTEX
8
CUT
10
138.6494
20
79.2026
0
VERTEX
8
CUT
10
138.7625
20
79.2718
0
VERTEX
8
CUT
10
138.8043
20
79.2973
0
VERTEX
8
CUT
10
138.9036
20
79.3581
0
VERTEX
8
CUT
10
139.3603
20
79.6375
0
VERTEX
8
CUT
10
141.6173
20
80.9439
0
VERTEX
8
CUT
10
141.6762
20
81.4986
0
VERTEX
8
CUT
10
141.3659
20
81.5610
0
VERTEX
8
CUT
10
141.3234
20
81.5986
0
VERTEX
8
CUT
10
140.1159
20
81.8372
0
VERTEX
8
CUT
10
139.8323
20
81.8690
0
VERTEX
8
CUT
10
132.0199
20
83.4385
0
VERTEX
8
CUT
10
126.0551
20
84.3595
0
VERTEX
8
CUT
10
125.8174
20
84.7193
0
VERTEX
8
CUT
10
126.1060
20
85.3501
0
VERTEX
8
CUT
10
127.8876
20
86.5231
0
VERTEX
8
CUT
10
129.5765
20
87.3108
0
VERTEX
8
CUT
10
130.6533
20
87.6789
0
VERTEX
8
CUT
10
131.5251
20
87.8856
0
VERTEX
8
CUT
10
135.1423
20
88.2311
0
VERTEX
8
CUT
10
136.0894
20
88.6455
0
VERTEX
8
CUT
10
135.3791
20
89.3262
0
VERTEX
8
CUT
10
134.8508
20
89.4719
0
VERTEX
8
CUT
10
132.6075
20
90.8627
0
VERTEX
8
CUT
10
127.4461
20
93.5466
0
VERTEX
8
CUT
10
118.2161
20
97.6288
0
VERTEX
8
CUT
10
117.5901
20
98.1567
0
VERTEX
8
CUT
10
118.0581
20
98.8170
0
VERTEX
8
CUT
10
120.3369
20
99.7755
0
VERTEX
8
CUT
10
122.0901
20
100.2179
0
VERTEX
8
CUT
10
124.2210
20
100.5435
0
VERTEX
8
CUT
10
127.9503
20
100.4547
0
VERTEX
8
CUT
10
130.9691
20
99.8035
0
VERTEX
8
CUT
10
135.0407
20
97.9365
0
VERTEX
8
CUT
10
135.3557
20
97.7535
0
VERTEX
8
CUT
10
144.2926
20
90.1179
0
VERTEX
8
CUT
10
146.5797
20
88.5040
0
VERTEX
8
CUT
10
147.5628
20
87.9632
0
VERTEX
8
CUT
10
147.6874
20
87.8759
0
VERTEX
8
CUT
10
147.8563
20
87.8018
0
VERTEX
8
CUT
10
148.6528
20
87.3637
0
VERTEX
8
CUT
10
149.5882
20
87.0382
0
VERTEX
8
CUT
10
149.7928
20
86.8697
0
VERTEX
8
CUT
10
151.4798
20
86.2481
0
VERTEX
8
CUT
10
154.2158
20
85.9305
0
VERTEX
8
CUT
10
154.5835
20
85.8676
0
VERTEX
8
CUT
10
154.7912
20
85.8638
0
VERTEX
8
CUT
10
154.7947
20
85.8634
0
VERTEX
8
CUT
10
154.7987
20
85.8636
0
VERTEX
8
CUT
10
156.1702
20
85.8385
0
VERTEX
8
CUT
10
157.6116
20
86.0584
0
VERTEX
8
CUT
10
158.6423
20
86.1297
0
VERTEX
8
CUT
10
161.5724
20
86.9584
0
VERTEX
8
CUT
10
163.9106
20
88.3199
0
VERTEX
8
CUT
10
165.3539
20
89.5123
0
VERTEX
8
CUT
10
165.6151
20
89.7033
0
VERTEX
8
CUT
10
165.7386
20
89.8300
0
VERTEX
8
CUT
10
165.9528
20
90.0069
0
VERTEX
8
CUT
10
167.2846
20
91.3980
0
VERTEX
8
CUT
10
167.7876
20
92.2878
0
VERTEX
8
CUT
10
168.0830
20
92.6784
0
VERTEX
8
CUT
10
168.3298
20
92.9752
0
VERTEX
8
CUT
10
168.3846
20
93.0771
0
VERTEX
8
CUT
10
168.4157
20
93.1183
0
VERTEX
8
CUT
10
172.1092
20
99.9054
0
VERTEX
8
CUT
10
172.1229
20
99.9299
0
VERTEX
8
CUT
10
172.1985
20
100.0651
0
VERTEX
8
CUT
10
172.2481
20
100.1537
0
VERTEX
8
CUT
10
174.0662
20
102.9105
0
VERTEX
8
CUT
10
174.6749
20
103.5401
0
VERTEX
8
CUT
10
176.3413
20
105.0422
0
VERTEX
8
CUT
10
177.7916
20
105.8709
0
VERTEX
8
CUT
10
177.8296
20
105.9158
0
VERTEX
8
CUT
10
178.6047
20
106.3641
0
VERTEX
8
CUT
10
178.6124
20
106.7408
0
VERTEX
8
CUT
10
177.3599
20
108.7596
0
VERTEX
8
CUT
10
174.2918
20
112.7284
0
VERTEX
8
CUT
10
173.9509
20
112.8509
0
VERTEX
8
CUT
10
173.6565
20
112.6398
0
VERTEX
8
CUT
10
173.1647
20
110.4187
0
VERTEX
8
CUT
10
172.5757
20
109.3904
0
VERTEX
8
CUT
10
171.8163
20
108.6583
0
VERTEX
8
CUT
10
171.5492
20
108.4714
0
VERTEX
8
CUT
10
170.6810
20
107.9869
0
VERTEX
8
CUT
10
169.4526
20
107.6185
0
VERTEX
8
CUT
10
167.9953
20
107.5274
0
VERTEX
8
CUT
10
166.4247
20
107.6468
0
VERTEX
8
CUT
10
163.4545
20
108.3491
0
VERTEX
8
CUT
10
163.1068
20
108.2226
0
VERTEX
8
CUT
10
163.0900
20
107.7253
0
VERTEX
8
CUT
10
164.2436
20
106.7689
0
VERTEX
8
CUT
10
165.8938
20
104.9243
0
VERTEX
8
CUT
10
165.9113
20
104.9030
0
VERTEX
8
CUT
10
165.9275
20
104.8620
0
VERTEX
8
CUT
10
165.9564
20
104.7888
0
VERTEX
8
CUT
10
166.0666
20
104.5093
0
VERTEX
8
CUT
10
166.3887
20
103.6924
0
VERTEX
8
CUT
10
166.3582
20
102.9608
0
VERTEX
8
CUT
10
166.1282
20
102.2334
0
VERTEX
8
CUT
10
165.0827
20
100.7387
0
VERTEX
8
CUT
10
163.3338
20
99.2274
0
VERTEX
8
CUT
10
160.5012
20
97.1871
0
VERTEX
8
CUT
10
159.9799
20
94.8489
0
VERTEX
8
CUT
10
159.4779
20
94.2197
0
VERTEX
8
CUT
10
158.7850
20
93.8890
0
VERTEX
8
CUT
10
157.9686
20
93.9122
0
VERTEX
8
CUT
10
157.5952
20
94.1139
0
VERTEX
8
CUT
10
157.3845
20
94.6436
0
VERTEX
8
CUT
10
157.3834
20
94.6767
0
VERTEX
8
CUT
10
157.3817
20
94.7267
0
VERTEX
8
CUT
10
157.3723
20
95.0094
0
VERTEX
8
CUT
10
157.4484
20
95.2256
0
VERTEX
8
CUT
10
157.9215
20
96.0088
0
VERTEX
8
CUT
10
158.0277
20
96.1845
0
VERTEX
8
CUT
10
158.0399
20
96.2048
0
VERTEX
8
CUT
10
158.3103
20
96.6524
0
VERTEX
8
CUT
10
158.8254
20
97.3238
0
VERTEX
8
CUT
10
159.1412
20
98.9072
0
VERTEX
8
CUT
10
158.8182
20
102.1725
0
VERTEX
8
CUT
10
158.4411
20
103.4695
0
VERTEX
8
CUT
10
157.9543
20
104.2121
0
VERTEX
8
CUT
10
157.3779
20
103.9283
0
VERTEX
8
CUT
10
156.6657
20
102.7201
0
VERTEX
8
CUT
10
154.7556
20
97.3665
0
VERTEX
8
CUT
10
150.3215
20
95.4821
0
VERTEX
8
CUT
10
149.3903
20
95.7606
0
VERTEX
8
CUT
10
149.0141
20
96.1278
0
VERTEX
8
CUT
10
148.9831
20
96.6412
0
VERTEX
8
CUT
10
149.6678
20
97.9434
0
VERTEX
8
CUT
10
148.5840
20
98.9849
0
VERTEX
8
CUT
10
148.0656
20
99.0540
0
VERTEX
8
CUT
10
147.2804
20
98.2119
0
VERTEX
8
CUT
10
146.4695
20
97.7308
0
VERTEX
8
CUT
10
145.6629
20
97.9560
0
VERTEX
8
CUT
10
145.2073
20
98.6962
0
VERTEX
8
CUT
10
145.4048
20
99.5300
0
VERTEX
8
CUT
10
146.4456
20
100.2938
0
VERTEX
8
CUT
10
146.0996
20
101.9046
0
VERTEX
8
CUT
10
146.1717
20
102.0573
0
VERTEX
8
CUT
10
146.4912
20
102.6276
0
VERTEX
8
CUT
10
147.3136
20
103.7062
0
VERTEX
8
CUT
10
148.1701
20
104.7678
0
VERTEX
8
CUT
10
148.3939
20
105.0275
0
VERTEX
8
CUT
10
148.4123
20
105.3607
0
VERTEX
8
CUT
10
148.1659
20
105.5858
0
VERTEX
8
CUT
10
147.8334
20
105.4736
0
VERTEX
8
CUT
10
147.7748
20
105.4717
0
VERTEX
8
CUT
10
147.7314
20
105.4391
0
VERTEX
8
CUT
10
147.6440
20
105.4097
0
VERTEX
8
CUT
10
145.9086
20
104.0578
0
VERTEX
8
CUT
10
142.4566
20
100.9053
0
VERTEX
8
CUT
10
141.9347
20
100.4404
0
VERTEX
8
CUT
10
141.1097
20
99.9383
0
VERTEX
8
CUT
10
137.6930
20
100.0636
0
VERTEX
8
CUT
10
137.6017
20
100.0825
0
VERTEX
8
CUT
10
137.5910
20
100.0847
0
VERTEX
8
CUT
10
137.4949
20
100.1045
0
VERTEX
8
CUT
10
137.3771
20
100.1288
0
VERTEX
8
CUT
10
134.5809
20
100.9449
0
VERTEX
8
CUT
10
126.6881
20
104.8032
0
VERTEX
8
CUT
10
125.1539
20
105.8561
0
VERTEX
8
CUT
10
125.0125
20
106.4715
0
VERTEX
8
CUT
10
125.9663
20
106.7001
0
VERTEX
8
CUT
10
128.5319
20
106.7278
0
VERTEX
8
CUT
10
128.6572
20
107.1776
0
VERTEX
8
CUT
10
128.1562
20
107.5000
0
VERTEX
8
CUT
10
128.0997
20
107.7445
0
VERTEX
8
CUT
10
128.9790
20
108.8240
0
VERTEX
8
CUT
10
138.0933
20
116.9591
0
VERTEX
8
CUT
10
140.9521
20
118.8804
0
VERTEX
8
CUT
10
144.4120
20
120.3886
0
VERTEX
8
CUT
10
147.0775
20
121.0799
0
VERTEX
8
CUT
10
151.3755
20
121.4706
0
VERTEX
8
CUT
10
155.5390
20
121.3841
0
VERTEX
8
CUT
10
155.8245
20
121.5551
0
VERTEX
8
CUT
10
155.8609
20
121.9203
0
VERTEX
8
CUT
10
153.7271
20
123.4226
0
VERTEX
8
CUT
10
151.8465
20
122.9467
0
VERTEX
8
CUT
10
150.8155
20
123.3768
0
VERTEX
8
CUT
10
150.4116
20
124.1259
0
VERTEX
8
CUT
10
150.6170
20
125.5376
0
VERTEX
8
CUT
10
151.3553
20
126.1249
0
VERTEX
8
CUT
10
152.4471
20
126.3108
0
VERTEX
8
CUT
10
152.5776
20
126.8236
0
VERTEX
8
CUT
10
152.0372
20
127.1959
0
VERTEX
8
CUT
10
149.8159
20
127.2906
0
VERTEX
8
CUT
10
147.0268
20
129.7775
0
VERTEX
8
CUT
10
138.4153
20
131.4147
0
VERTEX
8
CUT
10
136.5051
20
131.6178
0
VERTEX
8
CUT
10
135.9354
20
131.3427
0
VERTEX
8
CUT
10
135.4931
20
129.8147
0
VERTEX
8
CUT
10
135.0090
20
129.6697
0
VERTEX
8
CUT
10
134.4319
20
129.9671
0
VERTEX
8
CUT
10
134.1852
20
130.3138
0
VERTEX
8
CUT
10
133.8535
20
132.0419
0
VERTEX
8
CUT
10
133.6160
20
132.2925
0
VERTEX
8
CUT
10
127.2405
20
133.8301
0
VERTEX
8
CUT
10
125.4584
20
134.3075
0
VERTEX
8
CUT
10
125.1951
20
134.3234
0
VERTEX
8
CUT
10
121.2360
20
135.2782
0
VERTEX
8
CUT
10
119.6058
20
134.6258
0
VERTEX
8
CUT
10
116.7806
20
132.5544
0
VERTEX
8
CUT
10
115.0999
20
130.4342
0
VERTEX
8
CUT
10
114.0119
20
128.0315
0
VERTEX
8
CUT
10
113.5695
20
125.1687
0
VERTEX
8
CUT
10
113.6293
20
122.8391
0
VERTEX
8
CUT
10
114.0728
20
120.8915
0
VERTEX
8
CUT
10
114.9399
20
119.2419
0
VERTEX
8
CUT
10
115.6013
20
118.3966
0
VERTEX
8
CUT
10
115.6745
20
118.3268
0
VERTEX
8
CUT
10
115.7291
20
118.2348
0
VERTEX
8
CUT
10
116.9642
20
117.0063
0
VERTEX
8
CUT
10
117.0478
20
116.9506
0
VERTEX
8
CUT
10
117.1770
20
116.6738
0
VERTEX
8
CUT
10
117.8281
20
116.1115
0
VERTEX
8
CUT
10
119.7223
20
115.2827
0
VERTEX
8
CUT
10
120.6333
20
115.1461
0
VERTEX
8
CUT
10
120.8751
20
115.0563
0
VERTEX
8
CUT
10
121.5938
20
115.0020
0
VERTEX
8
CUT
10
122.0901
20
114.9276
0
VERTEX
8
CUT
10
123.3035
20
114.9572
0
VERTEX
8
CUT
10
125.5233
20
115.4899
0
VERTEX
8
CUT
10
127.0031
20
116.3482
0
VERTEX
8
CUT
10
127.9207
20
117.1474
0
VERTEX
8
CUT
10
128.8678
20
118.3904
0
VERTEX
8
CUT
10
128.9542
20
118.6756
0
VERTEX
8
CUT
10
129.0954
20
118.8781
0
VERTEX
8
CUT
10
129.5937
20
120.0626
0
VERTEX
8
CUT
10
129.8081
20
121.4038
0
VERTEX
8
CUT
10
129.7181
20
122.5955
0
VERTEX
8
CUT
10
129.3079
20
123.7163
0
VERTEX
8
CUT
10
127.8921
20
125.3062
0
VERTEX
8
CUT
10
127.5191
20
125.3449
0
VERTEX
8
CUT
10
127.2948
20
125.0890
0
VERTEX
8
CUT
10
127.2388
20
122.7650
0
VERTEX
8
CUT
10
126.7036
20
121.4706
0
VERTEX
8
CUT
10
125.7604
20
120.5266
0
VERTEX
8
CUT
10
124.5253
20
119.9860
0
VERTEX
8
CUT
10
123.1936
20
119.8693
0
VERTEX
8
CUT
10
121.8514
20
120.1363
0
VERTEX
8
CUT
10
120.4627
20
120.8813
0
VERTEX
8
CUT
10
119.2092
20
122.1733
0
VERTEX
8
CUT
10
118.5091
20
124.1592
0
VERTEX
8
CUT
10
118.4496
20
125.8531
0
VERTEX
8
CUT
10
118.7173
20
127.3698
0
VERTEX
8
CUT
10
118.9863
20
128.0978
0
VERTEX
8
CUT
10
120.1316
20
129.7418
0
VERTEX
8
CUT
10
121.6757
20
130.9691
0
VERTEX
8
CUT
10
122.9188
20
131.5907
0
VERTEX
8
CUT
10
124.3986
20
132.0050
0
VERTEX
8
CUT
10
126.5045
20
132.2088
0
VERTEX
8
CUT
10
127.3851
20
132.1480
0
VERTEX
8
CUT
10
129.8658
20
131.3845
0
VERTEX
8
CUT
10
131.7851
20
130.0875
0
VERTEX
8
CUT
10
131.8085
20
130.0690
0
VERTEX
8
CUT
10
132.7007
20
129.0991
0
VERTEX
8
CUT
10
133.7092
20
127.9021
0
VERTEX
8
CUT
10
134.6627
20
126.0276
0
VERTEX
8
CUT
10
135.1987
20
124.0623
0
VERTEX
8
CUT
10
135.1108
20
119.0891
0
VERTEX
8
CUT
10
134.1419
20
116.7207
0
VERTEX
8
CUT
10
132.3432
20
113.9650
0
VERTEX
8
CUT
10
130.0280
20
111.7703
0
VERTEX
8
CUT
10
127.3232
20
110.2370
0
VERTEX
8
CUT
10
124.3495
20
109.3060
0
VERTEX
8
CUT
10
121.2850
20
109.0655
0
VERTEX
8
CUT
10
118.1906
20
109.4864
0
VERTEX
8
CUT
10
115.1823
20
110.6486
0
VERTEX
8
CUT
10
112.5151
20
112.5169
0
VERTEX
8
CUT
10
111.3562
20
113.6447
0
VERTEX
8
CUT
10
109.4606
20
116.2238
0
VERTEX
8
CUT
10
108.1927
20
119.1389
0
VERTEX
8
CUT
10
107.5552
20
122.3839
0
VERTEX
8
CUT
10
107.5323
20
125.3293
0
VERTEX
8
CUT
10
108.0019
20
128.3350
0
VERTEX
8
CUT
10
108.8898
20
130.9987
0
VERTEX
8
CUT
10
110.2809
20
133.4257
0
VERTEX
8
CUT
10
112.1680
20
135.6976
0
VERTEX
8
CUT
10
112.7078
20
136.2374
0
VERTEX
8
CUT
10
113.2406
20
136.9181
0
VERTEX
8
CUT
10
113.2553
20
137.0066
0
VERTEX
8
CUT
10
113.3293
20
137.0957
0
VERTEX
8
CUT
10
113.4773
20
137.5397
0
VERTEX
8
CUT
10
113.3575
20
137.6196
0
VERTEX
8
CUT
10
113.3589
20
137.6285
0
VERTEX
8
CUT
10
113.3392
20
137.6318
0
VERTEX
8
CUT
10
112.9446
20
137.8948
0
VERTEX
8
CUT
10
112.6158
20
137.8028
0
VERTEX
8
CUT
10
112.4153
20
137.8598
0
VERTEX
8
CUT
10
112.3627
20
137.8547
0
VERTEX
8
CUT
10
110.7154
20
138.4656
0
VERTEX
8
CUT
10
108.3381
20
139.0460
0
VERTEX
8
CUT
10
107.7120
20
139.0437
0
VERTEX
8
CUT
10
106.2423
20
137.0014
0
VERTEX
8
CUT
10
106.7792
20
135.5679
0
VERTEX
8
CUT
10
106.8173
20
134.4965
0
VERTEX
8
CUT
10
105.3328
20
132.9165
0
VERTEX
8
CUT
10
104.6097
20
132.4135
0
VERTEX
8
CUT
10
104.2135
20
132.3483
0
VERTEX
8
CUT
10
103.8045
20
132.7150
0
VERTEX
8
CUT
10
103.4200
20
133.5150
0
VERTEX
8
CUT
10
102.8607
20
136.1648
0
VERTEX
8
CUT
10
101.4955
20
137.2085
0
VERTEX
8
CUT
10
95.7360
20
143.8123
0
VERTEX
8
CUT
10
83.6701
20
149.5747
0
VERTEX
8
CUT
10
76.4302
20
153.6066
0
VERTEX
8
CUT
10
76.3685
20
153.6426
0
VERTEX
8
CUT
10
76.3508
20
153.6529
0
VERTEX
8
CUT
10
76.3464
20
153.6555
0
VERTEX
8
CUT
10
76.3446
20
153.6566
0
VERTEX
8
CUT
10
65.9765
20
160.3619
0
VERTEX
8
CUT
10
58.1240
20
166.3174
0
VERTEX
8
CUT
10
49.3494
20
174.1423
0
VERTEX
8
CUT
10
45.2423
20
178.2782
0
VERTEX
8
CUT
10
44.9489
20
178.6072
0
VERTEX
8
CUT
10
37.4331
20
187.1833
0
VERTEX
8
CUT
10
34.0829
20
191.5469
0
VERTEX
8
CUT
10
33.9543
20
191.7234
0
VERTEX
8
CUT
10
33.9396
20
191.7435
0
VERTEX
8
CUT
10
33.9020
20
191.7952
0
VERTEX
8
CUT
10
33.7271
20
192.0352
0
VERTEX
8
CUT
10
29.4244
20
198.2757
0
VERTEX
8
CUT
10
24.9199
20
205.7434
0
VERTEX
8
CUT
10
23.9928
20
207.6152
0
VERTEX
8
CUT
10
23.4633
20
208.9383
0
VERTEX
8
CUT
10
23.5666
20
209.2529
0
VERTEX
8
CUT
10
24.0732
20
209.7568
0
VERTEX
8
CUT
10
24.4424
20
209.8458
0
VERTEX
8
CUT
10
24.6234
20
209.7479
0
VERTEX
8
CUT
10
24.9008
20
209.4242
0
VERTEX
8
CUT
10
27.1125
20
206.0314
0
VERTEX
8
CUT
10
29.8941
20
201.7016
0
VERTEX
8
CUT
10
31.2263
20
199.9423
0
VERTEX
8
CUT
10
32.6417
20
198.0094
0
VERTEX
8
CUT
10
33.3660
20
197.1167
0
VERTEX
8
CUT
10
36.1589
20
193.4284
0
VERTEX
8
CUT
10
38.6824
20
190.6180
0
VERTEX
8
CUT
10
40.4157
20
188.5811
0
VERTEX
8
CUT
10
41.7628
20
187.1874
0
VERTEX
8
CUT
10
43.6882
20
185.0431
0
VERTEX
8
CUT
10
46.7612
20
182.0160
0
VERTEX
8
CUT
10
47.2354
20
181.5254
0
VERTEX
8
CUT
10
48.4973
20
180.3058
0
VERTEX
8
CUT
10
51.6197
20
177.2301
0
VERTEX
8
CUT
10
56.5871
20
172.7658
0
VERTEX
8
CUT
10
61.5402
20
168.6677
0
VERTEX
8
CUT
10
66.5781
20
164.8450
0
VERTEX
8
CUT
10
71.7791
20
161.2698
0
VERTEX
8
CUT
10
73.6571
20
160.0961
0
VERTEX
8
CUT
10
73.7581
20
160.0292
0
VERTEX
8
CUT
10
74.3158
20
159.6845
0
VERTEX
8
CUT
10
77.2171
20
157.8714
0
VERTEX
8
CUT
10
77.6202
20
157.6419
0
VERTEX
8
CUT
10
78.6361
20
157.0139
0
VERTEX
8
CUT
10
82.1018
20
155.0908
0
VERTEX
8
CUT
10
82.9678
20
154.5979
0
VERTEX
8
CUT
10
83.1941
20
154.4847
0
VERTEX
8
CUT
10
83.7381
20
154.1829
0
VERTEX
8
CUT
10
84.9762
20
153.5782
0
VERTEX
8
CUT
10
86.3990
20
152.8059
0
VERTEX
8
CUT
10
86.5187
20
152.8222
0
VERTEX
8
CUT
10
95.1480
20
148.5072
0
VERTEX
8
CUT
10
101.2507
20
145.8704
0
VERTEX
8
CUT
10
107.4317
20
143.4161
0
VERTEX
8
CUT
10
112.3596
20
141.7773
0
VERTEX
8
CUT
10
112.6517
20
141.6358
0
VERTEX
8
CUT
10
115.3082
20
140.7764
0
VERTEX
8
CUT
10
115.3589
20
140.7798
0
VERTEX
8
CUT
10
120.4871
20
139.0742
0
VERTEX
8
CUT
10
127.5070
20
137.0897
0
VERTEX
8
CUT
10
142.7968
20
133.4820
0
VERTEX
8
CUT
10
155.0580
20
131.3548
0
VERTEX
8
CUT
10
159.8934
20
130.7649
0
VERTEX
8
CUT
10
161.6976
20
130.7679
0
VERTEX
8
CUT
10
161.8064
20
131.2427
0
VERTEX
8
CUT
10
160.6121
20
133.3338
0
VERTEX
8
CUT
10
160.2944
20
133.6045
0
VERTEX
8
CUT
10
159.9172
20
133.4698
0
VERTEX
8
CUT
10
159.7777
20
132.9199
0
VERTEX
8
CUT
10
159.4665
20
132.5830
0
VERTEX
8
CUT
10
157.7325
20
132.3883
0
VERTEX
8
CUT
10
148.4958
20
133.6909
0
VERTEX
8
CUT
10
145.7593
20
134.2755
0
VERTEX
8
CUT
10
144.8704
20
134.7692
0
VERTEX
8
CUT
10
144.5938
20
135.0699
0
VERTEX
8
CUT
10
144.4307
20
135.2633
0
VERTEX
8
CUT
10
141.9520
20
139.2500
0
VERTEX
8
CUT
10
133.5177
20
142.5573
0
VERTEX
8
CUT
10
125.1719
20
146.2862
0
VERTEX
8
CUT
10
120.5847
20
148.6299
0
VERTEX
8
CUT
10
115.6199
20
151.2692
0
VERTEX
8
CUT
10
109.5248
20
154.8203
0
VERTEX
8
CUT
10
109.4776
20
154.8504
0
VERTEX
8
CUT
10
105.9030
20
157.1442
0
VERTEX
8
CUT
10
100.1655
20
161.2505
0
VERTEX
8
CUT
10
99.9477
20
161.4144
0
VERTEX
8
CUT
10
94.5818
20
165.7192
0
VERTEX
8
CUT
10
94.3850
20
165.8956
0
VERTEX
8
CUT
10
94.3161
20
165.9574
0
VERTEX
8
CUT
10
94.1958
20
166.0652
0
VERTEX
8
CUT
10
94.1651
20
166.0928
0
VERTEX
8
CUT
10
89.5138
20
170.4118
0
VERTEX
8
CUT
10
85.1243
20
175.0670
0
VERTEX
8
CUT
10
82.3339
20
178.5589
0
VERTEX
8
CUT
10
80.8211
20
180.6021
0
VERTEX
8
CUT
10
78.7697
20
183.7466
0
VERTEX
8
CUT
10
77.5180
20
185.9971
0
VERTEX
8
CUT
10
75.9372
20
189.0960
0
VERTEX
8
CUT
10
74.9848
20
191.8021
0
VERTEX
8
CUT
10
74.9319
20
191.9524
0
VERTEX
8
CUT
10
74.7410
20
192.4947
0
VERTEX
8
CUT
10
74.2926
20
193.7685
0
VERTEX
8
CUT
10
73.5202
20
198.8703
0
VERTEX
8
CUT
10
73.5457
20
202.3049
0
VERTEX
8
CUT
10
73.5494
20
202.3236
0
VERTEX
8
CUT
10
73.5874
20
202.5141
0
VERTEX
8
CUT
10
73.6168
20
202.6620
0
VERTEX
8
CUT
10
73.9862
20
204.5147
0
VERTEX
8
CUT
10
74.6482
20
206.5271
0
VERTEX
8
CUT
10
75.4730
20
207.9286
0
VERTEX
8
CUT
10
75.7010
20
208.2565
0
VERTEX
8
CUT
10
75.8296
20
208.4416
0
VERTEX
8
CUT
10
76.0407
20
208.7453
0
VERTEX
8
CUT
10
76.4189
20
209.2894
0
VERTEX
8
CUT
10
77.2115
20
210.1090
0
VERTEX
8
CUT
10
77.9719
20
210.8047
0
VERTEX
8
CUT
10
79.6717
20
211.8171
0
VERTEX
8
CUT
10
81.3942
20
212.4200
0
VERTEX
8
CUT
10
83.2292
20
212.7160
0
VERTEX
8
CUT
10
85.0642
20
212.5976
0
VERTEX
8
CUT
10
86.8401
20
212.1241
0
VERTEX
8
CUT
10
87.3272
20
211.8635
0
VERTEX
8
CUT
10
89.1360
20
210.6555
0
VERTEX
8
CUT
10
90.6144
20
208.8816
0
VERTEX
8
CUT
10
91.4006
20
206.8353
0
VERTEX
8
CUT
10
91.4865
20
205.8140
0
VERTEX
8
CUT
10
91.0679
20
203.9003
0
VERTEX
8
CUT
10
90.2972
20
202.6772
0
VERTEX
8
CUT
10
89.5256
20
202.4109
0
VERTEX
8
CUT
10
89.4702
20
202.4145
0
VERTEX
8
CUT
10
89.4389
20
202.4165
0
VERTEX
8
CUT
10
89.4348
20
202.4168
0
VERTEX
8
CUT
10
89.4203
20
202.4177
0
VERTEX
8
CUT
10
89.3138
20
202.4918
0
VERTEX
8
CUT
10
88.7942
20
203.5148
0
VERTEX
8
CUT
10
88.6912
20
203.9930
0
VERTEX
8
CUT
10
87.9999
20
205.1280
0
VERTEX
8
CUT
10
86.7829
20
206.1856
0
VERTEX
8
CUT
10
86.4621
20
206.3527
0
VERTEX
8
CUT
10
86.4468
20
206.3669
0
VERTEX
8
CUT
10
86.4306
20
206.3691
0
VERTEX
8
CUT
10
86.0196
20
206.5832
0
VERTEX
8
CUT
10
84.6298
20
206.9066
0
VERTEX
8
CUT
10
83.7330
20
206.8285
0
VERTEX
8
CUT
10
82.0542
20
206.2967
0
VERTEX
8
CUT
10
81.2682
20
205.8084
0
VERTEX
8
CUT
10
81.1117
20
205.6617
0
VERTEX
8
CUT
10
80.1896
20
204.8515
0
VERTEX
8
CUT
10
80.1063
20
204.7185
0
VERTEX
8
CUT
10
79.8563
20
204.4840
0
VERTEX
8
CUT
10
79.2818
20
203.6728
0
VERTEX
8
CUT
10
78.4844
20
201.9301
0
VERTEX
8
CUT
10
78.1707
20
199.8720
0
VERTEX
8
CUT
10
78.2395
20
198.0352
0
VERTEX
8
CUT
10
78.2278
20
196.7233
0
VERTEX
8
CUT
10
78.3007
20
196.4004
0
VERTEX
8
CUT
10
78.3442
20
195.2386
0
VERTEX
8
CUT
10
78.6122
20
193.9928
0
VERTEX
8
CUT
10
80.1031
20
189.8424
0
VERTEX
8
CUT
10
82.6925
20
184.7477
0
VERTEX
8
CUT
10
84.2555
20
182.4958
0
VERTEX
8
CUT
10
84.4541
20
182.0907
0
VERTEX
8
CUT
10
85.1090
20
181.2595
0
VERTEX
8
CUT
10
85.4194
20
180.6625
0
VERTEX
8
CUT
10
86.6033
20
179.0642
0
VERTEX
8
CUT
10
86.9675
20
178.8214
0
VERTEX
8
CUT
10
87.5958
20
178.1030
0
VERTEX
8
CUT
10
88.1493
20
177.4004
0
VERTEX
8
CUT
10
89.0993
20
176.3838
0
VERTEX
8
CUT
10
89.3296
20
176.1204
0
VERTEX
8
CUT
10
89.4150
20
175.7790
0
VERTEX
8
CUT
10
92.6115
20
172.4049
0
VERTEX
8
CUT
10
93.1442
20
172.2569
0
VERTEX
8
CUT
10
93.1417
20
172.2636
0
VERTEX
8
CUT
10
97.8769
20
167.8217
0
VERTEX
8
CUT
10
100.4370
20
165.7525
0
VERTEX
8
CUT
10
100.4390
20
165.7328
0
VERTEX
8
CUT
10
100.8495
20
165.4191
0
VERTEX
8
CUT
10
102.8101
20
163.8344
0
VERTEX
8
CUT
10
105.1622
20
162.1226
0
VERTEX
8
CUT
10
105.7038
20
161.7086
0
VERTEX
8
CUT
10
106.2934
20
161.2993
0
VERTEX
8
CUT
10
108.1142
20
159.9743
0
VERTEX
8
CUT
10
109.8888
20
158.8035
0
VERTEX
8
CUT
10
110.3446
20
158.4871
0
VERTEX
8
CUT
10
110.6400
20
158.3079
0
VERTEX
8
CUT
10
113.7738
20
156.2406
0
VERTEX
8
CUT
10
119.6708
20
152.7024
0
VERTEX
8
CUT
10
125.7892
20
149.3916
0
VERTEX
8
CUT
10
132.0546
20
146.3471
0
VERTEX
8
CUT
10
138.3806
20
143.6271
0
VERTEX
8
CUT
10
144.4984
20
141.3509
0
VERTEX
8
CUT
10
157.0254
20
137.5388
0
VERTEX
8
CUT
10
158.9380
20
137.1246
0
VERTEX
8
CUT
10
159.6765
20
137.0857
0
VERTEX
8
CUT
10
159.9726
20
137.2952
0
VERTEX
8
CUT
10
159.6633
20
139.0722
0
VERTEX
8
CUT
10
158.6383
20
139.7459
0
VERTEX
8
CUT
10
157.5922
20
139.8823
0
VERTEX
8
CUT
10
155.9690
20
139.1946
0
VERTEX
8
CUT
10
153.0089
20
139.7014
0
VERTEX
8
CUT
10
147.6386
20
141.4175
0
VERTEX
8
CUT
10
146.4829
20
141.6089
0
VERTEX
8
CUT
10
142.0001
20
143.5396
0
VERTEX
8
CUT
10
141.4816
20
144.0817
0
VERTEX
8
CUT
10
141.1567
20
145.8551
0
VERTEX
8
CUT
10
141.0953
20
145.9933
0
VERTEX
8
CUT
10
141.0853
20
146.2483
0
VERTEX
8
CUT
10
141.0407
20
146.3158
0
VERTEX
8
CUT
10
141.0413
20
146.3396
0
VERTEX
8
CUT
10
141.0148
20
146.3550
0
VERTEX
8
CUT
10
140.8767
20
146.5639
0
VERTEX
8
CUT
10
140.1187
20
146.9434
0
VERTEX
8
CUT
10
130.1813
20
152.2466
0
VERTEX
8
CUT
10
125.0216
20
155.2718
0
VERTEX
8
CUT
10
120.2590
20
158.4074
0
VERTEX
8
CUT
10
113.2497
20
163.6942
0
VERTEX
8
CUT
10
109.6893
20
166.8397
0
VERTEX
8
CUT
10
107.7735
20
168.9044
0
VERTEX
8
CUT
10
107.6167
20
169.3825
0
VERTEX
8
CUT
10
107.8641
20
169.7424
0
VERTEX
8
CUT
10
109.5202
20
169.0685
0
VERTEX
8
CUT
10
118.7475
20
162.6864
0
VERTEX
8
CUT
10
121.0498
20
161.0678
0
VERTEX
8
CUT
10
121.5643
20
160.7381
0
VERTEX
8
CUT
10
123.2751
20
159.5549
0
VERTEX
8
CUT
10
125.2748
20
158.3609
0
VERTEX
8
CUT
10
127.4137
20
156.9905
0
VERTEX
8
CUT
10
127.5359
20
156.8073
0
VERTEX
8
CUT
10
129.2821
20
155.6234
0
VERTEX
8
CUT
10
131.5315
20
154.5283
0
VERTEX
8
CUT
10
131.7116
20
154.5177
0
VERTEX
8
CUT
10
133.3128
20
153.5617
0
VERTEX
8
CUT
10
138.4560
20
150.8716
0
VERTEX
8
CUT
10
143.7894
20
148.3234
0
VERTEX
8
CUT
10
155.1060
20
143.5959
0
VERTEX
8
CUT
10
159.4034
20
141.9969
0
VERTEX
8
CUT
10
160.5083
20
141.7262
0
VERTEX
8
CUT
10
160.8421
20
141.8648
0
VERTEX
8
CUT
10
161.7752
20
144.0720
0
VERTEX
8
CUT
10
161.1541
20
144.8362
0
VERTEX
8
CUT
10
160.2346
20
144.8313
0
VERTEX
8
CUT
10
158.7801
20
143.9018
0
VERTEX
8
CUT
10
156.5196
20
144.3506
0
VERTEX
8
CUT
10
153.1237
20
145.6005
0
VERTEX
8
CUT
10
149.4122
20
147.3511
0
VERTEX
8
CUT
10
146.9136
20
148.0677
0
VERTEX
8
CUT
10
143.0084
20
150.2133
0
VERTEX
8
CUT
10
142.6071
20
150.7402
0
VERTEX
8
CUT
10
142.7017
20
151.4373
0
VERTEX
8
CUT
10
144.6396
20
154.4311
0
VERTEX
8
CUT
10
144.6323
20
154.5249
0
VERTEX
8
CUT
10
144.6847
20
154.6017
0
VERTEX
8
CUT
10
144.6355
20
154.6565
0
VERTEX
8
CUT
10
144.6633
20
154.7383
0
VERTEX
8
CUT
10
144.6121
20
154.7823
0
VERTEX
8
CUT
10
144.6068
20
154.8505
0
VERTEX
8
CUT
10
144.0579
20
155.2998
0
VERTEX
8
CUT
10
143.8639
20
155.5158
0
VERTEX
8
CUT
10
143.0938
20
156.0888
0
VERTEX
8
CUT
10
137.1592
20
160.9460
0
VERTEX
8
CUT
10
132.6012
20
165.2672
0
VERTEX
8
CUT
10
129.0736
20
169.5724
0
VERTEX
8
CUT
10
127.7215
20
171.6300
0
VERTEX
8
CUT
10
126.6560
20
173.7001
0
VERTEX
8
CUT
10
125.9994
20
175.6428
0
VERTEX
8
CUT
10
125.4167
20
177.8342
0
VERTEX
8
CUT
10
125.1381
20
179.8914
0
VERTEX
8
CUT
10
125.1374
20
181.3945
0
VERTEX
8
CUT
10
125.1385
20
181.4024
0
VERTEX
8
CUT
10
125.1382
20
181.4050
0
VERTEX
8
CUT
10
125.4624
20
184.1763
0
VERTEX
8
CUT
10
125.4865
20
184.2689
0
VERTEX
8
CUT
10
125.4937
20
184.2733
0
VERTEX
8
CUT
10
126.6184
20
187.0850
0
VERTEX
8
CUT
10
127.2695
20
188.1209
0
VERTEX
8
CUT
10
129.1341
20
190.2223
0
VERTEX
8
CUT
10
130.7214
20
191.2382
0
VERTEX
8
CUT
10
131.1130
20
191.4070
0
VERTEX
8
CUT
10
131.4621
20
191.5574
0
VERTEX
8
CUT
10
131.9072
20
191.7493
0
VERTEX
8
CUT
10
132.5007
20
192.0051
0
VERTEX
8
CUT
10
133.2480
20
192.2411
0
VERTEX
8
CUT
10
133.2842
20
192.2482
0
VERTEX
8
CUT
10
133.3050
20
192.2506
0
VERTEX
8
CUT
10
133.4205
20
192.2640
0
VERTEX
8
CUT
10
133.4902
20
192.2721
0
VERTEX
8
CUT
10
134.1205
20
192.3452
0
VERTEX
8
CUT
10
135.6178
20
192.2935
0
VERTEX
8
CUT
10
137.4022
20
191.8114
0
VERTEX
8
CUT
10
137.8067
20
192.1011
0
VERTEX
8
CUT
10
137.6303
20
192.5338
0
VERTEX
8
CUT
10
134.6502
20
194.1772
0
VERTEX
8
CUT
10
134.0926
20
194.6772
0
VERTEX
8
CUT
10
133.7267
20
195.3451
0
VERTEX
8
CUT
10
133.3640
20
197.1934
0
VERTEX
8
CUT
10
134.2888
20
201.0891
0
VERTEX
8
CUT
10
134.1231
20
201.6143
0
VERTEX
8
CUT
10
133.7200
20
201.6112
0
VERTEX
8
CUT
10
132.5520
20
200.7442
0
VERTEX
8
CUT
10
128.9200
20
197.5845
0
VERTEX
8
CUT
10
126.9487
20
195.5532
0
VERTEX
8
CUT
10
124.5518
20
192.3968
0
VERTEX
8
CUT
10
123.6277
20
190.8737
0
VERTEX
8
CUT
10
123.0860
20
189.5593
0
VERTEX
8
CUT
10
123.0372
20
189.5416
0
VERTEX
8
CUT
10
122.7287
20
188.9825
0
VERTEX
8
CUT
10
122.5636
20
188.6832
0
VERTEX
8
CUT
10
121.9717
20
186.4043
0
VERTEX
8
CUT
10
122.0433
20
186.1895
0
VERTEX
8
CUT
10
121.7094
20
184.5344
0
VERTEX
8
CUT
10
121.6770
20
184.0185
0
VERTEX
8
CUT
10
121.5869
20
183.9477
0
VERTEX
8
CUT
10
121.4093
20
183.2374
0
VERTEX
8
CUT
10
121.3205
20
182.1127
0
VERTEX
8
CUT
10
121.5573
20
181.4024
0
VERTEX
8
CUT
10
121.5894
20
181.4147
0
VERTEX
8
CUT
10
121.5894
20
180.4441
0
VERTEX
8
CUT
10
121.5277
20
180.4553
0
VERTEX
8
CUT
10
121.3501
20
180.2185
0
VERTEX
8
CUT
10
121.3501
20
179.5378
0
VERTEX
8
CUT
10
122.2972
20
175.2166
0
VERTEX
8
CUT
10
123.2288
20
172.8334
0
VERTEX
8
CUT
10
123.5699
20
171.9610
0
VERTEX
8
CUT
10
125.3161
20
168.7349
0
VERTEX
8
CUT
10
127.5063
20
165.8344
0
VERTEX
8
CUT
10
130.2884
20
162.7563
0
VERTEX
8
CUT
10
131.4759
20
161.6714
0
VERTEX
8
CUT
10
132.7933
20
160.2792
0
VERTEX
8
CUT
10
133.0391
20
159.9255
0
VERTEX
8
CUT
10
132.9302
20
159.6997
0
VERTEX
8
CUT
10
132.4972
20
159.5617
0
VERTEX
8
CUT
10
131.6277
20
159.9143
0
VERTEX
8
CUT
10
127.3887
20
162.6418
0
VERTEX
8
CUT
10
124.2250
20
165.1787
0
VERTEX
8
CUT
10
121.3620
20
168.0439
0
VERTEX
8
CUT
10
118.7868
20
171.3886
0
VERTEX
8
CUT
10
117.6960
20
173.1768
0
VERTEX
8
CUT
10
116.0578
20
176.7567
0
VERTEX
8
CUT
10
114.9582
20
180.9088
0
VERTEX
8
CUT
10
114.7471
20
181.1607
0
VERTEX
8
CUT
10
114.2513
20
181.0137
0
VERTEX
8
CUT
10
113.4723
20
178.7078
0
VERTEX
8
CUT
10
112.4603
20
177.0733
0
VERTEX
8
CUT
10
111.1303
20
175.6227
0
VERTEX
8
CUT
10
109.5008
20
174.4453
0
VERTEX
8
CUT
10
107.6872
20
173.5521
0
VERTEX
8
CUT
10
105.6492
20
172.9355
0
VERTEX
8
CUT
10
103.5670
20
172.6988
0
VERTEX
8
CUT
10
101.3999
20
172.8490
0
VERTEX
8
CUT
10
98.1758
20
173.8016
0
VERTEX
8
CUT
10
95.1908
20
175.5370
0
VERTEX
8
CUT
10
92.6730
20
177.9125
0
VERTEX
8
CUT
10
91.6241
20
179.3262
0
VERTEX
8
CUT
10
90.4053
20
181.5287
0
VERTEX
8
CUT
10
89.9218
20
182.6830
0
VERTEX
8
CUT
10
89.5637
20
184.3250
0
VERTEX
8
CUT
10
89.5057
20
188.2251
0
VERTEX
8
CUT
10
89.8333
20
190.3611
0
VERTEX
8
CUT
10
90.3772
20
191.9388
0
VERTEX
8
CUT
10
90.6434
20
192.4747
0
VERTEX
8
CUT
10
91.1221
20
193.4387
0
VERTEX
8
CUT
10
91.1328
20
193.4603
0
VERTEX
8
CUT
10
91.3085
20
193.8141
0
VERTEX
8
CUT
10
91.6165
20
194.3592
0
VERTEX
8
CUT
10
93.0068
20
196.0638
0
VERTEX
8
CUT
10
94.7654
20
197.7637
0
VERTEX
8
CUT
10
97.0339
20
199.4601
0
VERTEX
8
CUT
10
102.4397
20
202.8875
0
VERTEX
8
CUT
10
102.4538
20
202.8961
0
VERTEX
8
CUT
10
102.4565
20
202.8981
0
VERTEX
8
CUT
10
103.6571
20
203.6593
0
VERTEX
8
CUT
10
105.1899
20
204.7811
0
VERTEX
8
CUT
10
107.5044
20
206.9792
0
VERTEX
8
CUT
10
108.4623
20
208.2077
0
VERTEX
8
CUT
10
110.0093
20
210.9293
0
VERTEX
8
CUT
10
110.4001
20
212.0060
0
VERTEX
8
CUT
10
110.4776
20
212.1697
0
VERTEX
8
CUT
10
110.5456
20
212.4069
0
VERTEX
8
CUT
10
110.6247
20
212.6247
0
VERTEX
8
CUT
10
110.7093
20
212.8050
0
VERTEX
8
CUT
10
110.7668
20
213.0162
0
VERTEX
8
CUT
10
111.1936
20
214.1921
0
VERTEX
8
CUT
10
111.4946
20
215.8701
0
VERTEX
8
CUT
10
111.6085
20
217.5073
0
VERTEX
8
CUT
10
111.2532
20
220.7125
0
VERTEX
8
CUT
10
110.1331
20
223.8144
0
VERTEX
8
CUT
10
109.1020
20
225.5568
0
VERTEX
8
CUT
10
107.8286
20
227.0613
0
VERTEX
8
CUT
10
106.4272
20
228.2608
0
VERTEX
8
CUT
10
104.8917
20
229.2006
0
VERTEX
8
CUT
10
103.1783
20
229.8563
0
VERTEX
8
CUT
10
101.4780
20
230.1977
0
VERTEX
8
CUT
10
99.6445
20
230.2038
0
VERTEX
8
CUT
10
97.8985
20
229.8955
0
VERTEX
8
CUT
10
96.1529
20
229.1356
0
VERTEX
8
CUT
10
94.8984
20
228.1783
0
VERTEX
8
CUT
10
94.7355
20
228.0619
0
VERTEX
8
CUT
10
94.7161
20
228.0392
0
VERTEX
8
CUT
10
94.7113
20
228.0355
0
VERTEX
8
CUT
10
94.6836
20
228.0010
0
VERTEX
8
CUT
10
93.7667
20
226.9226
0
VERTEX
8
CUT
10
93.6822
20
226.7517
0
VERTEX
8
CUT
10
93.6808
20
226.7499
0
VERTEX
8
CUT
10
93.6689
20
226.7249
0
VERTEX
8
CUT
10
93.0658
20
225.5044
0
VERTEX
8
CUT
10
93.0559
20
225.4280
0
VERTEX
8
CUT
10
93.0113
20
225.3337
0
VERTEX
8
CUT
10
92.7098
20
223.7207
0
VERTEX
8
CUT
10
92.8557
20
222.2494
0
VERTEX
8
CUT
10
93.2113
20
221.3617
0
VERTEX
8
CUT
10
93.3061
20
221.0357
0
VERTEX
8
CUT
10
93.3900
20
220.9158
0
VERTEX
8
CUT
10
93.4080
20
220.8707
0
VERTEX
8
CUT
10
93.4543
20
220.8239
0
VERTEX
8
CUT
10
93.8207
20
220.3000
0
VERTEX
8
CUT
10
93.8612
20
220.2665
0
VERTEX
8
CUT
10
93.8545
20
220.0856
0
VERTEX
8
CUT
10
94.5353
20
219.3753
0
VERTEX
8
CUT
10
95.9263
20
218.7242
0
VERTEX
8
CUT
10
96.0661
20
218.7708
0
VERTEX
8
CUT
10
96.3263
20
218.6672
0
VERTEX
8
CUT
10
96.4956
20
218.9140
0
VERTEX
8
CUT
10
96.5479
20
218.9314
0
VERTEX
8
CUT
10
96.5351
20
218.9714
0
VERTEX
8
CUT
10
96.6246
20
219.1018
0
VERTEX
8
CUT
10
96.1543
20
220.8120
0
VERTEX
8
CUT
10
96.1071
20
221.4317
0
VERTEX
8
CUT
10
96.4960
20
222.7246
0
VERTEX
8
CUT
10
97.9175
20
224.3486
0
VERTEX
8
CUT
10
98.5859
20
224.7854
0
VERTEX
8
CUT
10
98.6664
20
224.8259
0
VERTEX
8
CUT
10
98.6774
20
224.8314
0
VERTEX
8
CUT
10
98.7002
20
224.8429
0
VERTEX
8
CUT
10
98.7345
20
224.8602
0
VERTEX
8
CUT
10
99.8756
20
225.1713
0
VERTEX
8
CUT
10
100.2667
20
225.1998
0
VERTEX
8
CUT
10
100.4820
20
225.2155
0
VERTEX
8
CUT
10
100.6026
20
225.2244
0
VERTEX
8
CUT
10
100.7872
20
225.2378
0
VERTEX
8
CUT
10
102.1433
20
225.0806
0
VERTEX
8
CUT
10
103.6467
20
224.2897
0
VERTEX
8
CUT
10
103.9775
20
224.0816
0
VERTEX
8
CUT
10
104.7391
20
223.3522
0
VERTEX
8
CUT
10
105.0629
20
222.9327
0
VERTEX
8
CUT
10
105.1417
20
222.8306
0
VERTEX
8
CUT
10
105.2149
20
222.7358
0
VERTEX
8
CUT
10
105.2959
20
222.6310
0
VERTEX
8
CUT
10
105.7952
20
221.7700
0
VERTEX
8
CUT
10
106.2829
20
220.3046
0
VERTEX
8
CUT
10
106.4057
20
218.7204
0
VERTEX
8
CUT
10
106.2284
20
217.1421
0
VERTEX
8
CUT
10
105.7071
20
215.5613
0
VERTEX
8
CUT
10
104.8855
20
214.1023
0
VERTEX
8
CUT
10
103.0510
20
212.2931
0
VERTEX
8
CUT
10
101.6300
20
211.4123
0
VERTEX
8
CUT
10
100.0375
20
210.8800
0
VERTEX
8
CUT
10
97.3378
20
210.6298
0
VERTEX
8
CUT
10
96.9830
20
210.6235
0
VERTEX
8
CUT
10
94.5042
20
210.7919
0
VERTEX
8
CUT
10
92.8397
20
211.4055
0
VERTEX
8
CUT
10
90.2870
20
212.8300
0
VERTEX
8
CUT
10
88.8906
20
214.0265
0
VERTEX
8
CUT
10
88.7988
20
214.1063
0
VERTEX
8
CUT
10
88.7773
20
214.1249
0
VERTEX
8
CUT
10
88.7736
20
214.1281
0
VERTEX
8
CUT
10
88.7686
20
214.1324
0
VERTEX
8
CUT
10
87.4809
20
215.6857
0
VERTEX
8
CUT
10
86.4573
20
217.4943
0
VERTEX
8
CUT
10
86.4087
20
217.5826
0
VERTEX
8
CUT
10
85.3715
20
220.7794
0
VERTEX
8
CUT
10
85.1452
20
223.7681
0
VERTEX
8
CUT
10
85.6266
20
226.6562
0
VERTEX
8
CUT
10
86.1902
20
228.2734
0
VERTEX
8
CUT
10
86.4748
20
228.9101
0
VERTEX
8
CUT
10
87.3136
20
230.4150
0
VERTEX
8
CUT
10
88.6159
20
232.1020
0
VERTEX
8
CUT
10
89.9088
20
233.3453
0
VERTEX
8
CUT
10
90.4704
20
233.8065
0
VERTEX
8
CUT
10
91.9011
20
234.8249
0
VERTEX
8
CUT
10
92.5773
20
235.1733
0
VERTEX
8
CUT
10
94.1205
20
235.9236
0
VERTEX
8
CUT
10
95.1182
20
236.2700
0
VERTEX
8
CUT
10
97.0141
20
236.7270
0
VERTEX
8
CUT
10
97.9389
20
236.8671
0
VERTEX
8
CUT
10
102.5560
20
236.8967
0
VERTEX
8
CUT
10
104.8094
20
236.4825
0
VERTEX
8
CUT
10
105.4997
20
236.2899
0
VERTEX
8
CUT
10
106.6725
20
235.8614
0
VERTEX
8
CUT
10
107.9936
20
235.2504
0
VERTEX
8
CUT
10
109.4782
20
234.2917
0
VERTEX
8
CUT
10
109.8080
20
234.0787
0
VERTEX
8
CUT
10
110.5112
20
233.6246
0
VERTEX
8
CUT
10
110.9380
20
233.3490
0
VERTEX
8
CUT
10
112.7493
20
231.6993
0
VERTEX
8
CUT
10
112.9697
20
231.4347
0
VERTEX
8
CUT
10
114.5231
20
229.4741
0
VERTEX
8
CUT
10
115.9625
20
227.0359
0
VERTEX
8
CUT
10
117.4074
20
223.3411
0
VERTEX
8
CUT
10
118.1563
20
219.6066
0
VERTEX
8
CUT
10
118.2143
20
215.9552
0
VERTEX
8
CUT
10
117.7619
20
213.3201
0
VERTEX
8
CUT
10
118.0043
20
212.9675
0
VERTEX
8
CUT
10
118.3329
20
212.9836
0
VERTEX
8
CUT
10
118.5408
20
213.2672
0
VERTEX
8
CUT
10
119.2129
20
215.9225
0
VERTEX
8
CUT
10
119.4596
20
218.4467
0
VERTEX
8
CUT
10
119.9490
20
219.3656
0
VERTEX
8
CUT
10
120.3083
20
219.4297
0
VERTEX
8
CUT
10
120.6603
20
219.2034
0
VERTEX
8
CUT
10
121.2909
20
217.6325
0
VERTEX
8
CUT
10
121.4094
20
216.6486
0
VERTEX
8
CUT
10
121.0895
20
214.6352
0
VERTEX
8
CUT
10
121.0993
20
214.6484
0
VERTEX
8
CUT
10
121.1315
20
214.6838
0
VERTEX
8
CUT
10
121.2114
20
214.9051
0
VERTEX
8
CUT
10
121.2643
20
215.3465
0
VERTEX
8
CUT
10
121.2828
20
215.4570
0
VERTEX
8
CUT
10
121.3116
20
215.5653
0
VERTEX
8
CUT
10
121.3503
20
215.6705
0
VERTEX
8
CUT
10
121.3987
20
215.7716
0
VERTEX
8
CUT
10
121.4563
20
215.8677
0
VERTEX
8
CUT
10
121.5226
20
215.9580
0
VERTEX
8
CUT
10
121.5366
20
215.9737
0
VERTEX
8
CUT
10
121.5623
20
216.0700
0
VERTEX
8
CUT
10
121.6045
20
216.1820
0
VERTEX
8
CUT
10
121.6577
20
216.2892
0
VERTEX
8
CUT
10
121.7213
20
216.3906
0
VERTEX
8
CUT
10
121.7947
20
216.4852
0
VERTEX
8
CUT
10
121.8401
20
216.5329
0
VERTEX
8
CUT
10
121.8829
20
215.9717
0
VERTEX
8
CUT
10
121.9717
20
215.3797
0
VERTEX
8
CUT
10
122.3268
20
215.1133
0
VERTEX
8
CUT
10
122.6228
20
215.3205
0
VERTEX
8
CUT
10
122.7116
20
215.7349
0
VERTEX
8
CUT
10
122.7116
20
216.9016
0
VERTEX
8
CUT
10
122.7116
20
218.4282
0
VERTEX
8
CUT
10
122.4748
20
219.7305
0
VERTEX
8
CUT
10
122.1492
20
220.1152
0
VERTEX
8
CUT
10
122.0153
20
220.1274
0
VERTEX
8
CUT
10
120.7888
20
224.1007
0
VERTEX
8
CUT
10
120.9383
20
225.0746
0
VERTEX
8
CUT
10
121.2034
20
225.6733
0
VERTEX
8
CUT
10
121.3928
20
226.0135
0
VERTEX
8
CUT
10
122.0857
20
226.7264
0
VERTEX
8
CUT
10
122.7412
20
227.0705
0
VERTEX
8
CUT
10
123.9547
20
227.3073
0
VERTEX
8
CUT
10
123.9587
20
227.3125
0
VERTEX
8
CUT
10
123.9763
20
227.3111
0
VERTEX
8
CUT
10
124.7906
20
227.0493
0
VERTEX
8
CUT
10
125.7173
20
226.4531
0
VERTEX
8
CUT
10
126.4490
20
225.5830
0
VERTEX
8
CUT
10
126.9116
20
224.5110
0
VERTEX
8
CUT
10
127.0643
20
223.2882
0
VERTEX
8
CUT
10
126.6333
20
220.3567
0
VERTEX
8
CUT
10
124.9752
20
216.4229
0
VERTEX
8
CUT
10
125.0049
20
216.4111
0
VERTEX
8
CUT
10
125.1079
20
216.3582
0
VERTEX
8
CUT
10
125.2054
20
216.2957
0
VERTEX
8
CUT
10
125.2963
20
216.2241
0
VERTEX
8
CUT
10
125.3800
20
216.1441
0
VERTEX
8
CUT
10
125.4555
20
216.0564
0
VERTEX
8
CUT
10
125.5223
20
215.9618
0
VERTEX
8
CUT
10
125.5796
20
215.8612
0
VERTEX
8
CUT
10
125.6269
20
215.7556
0
VERTEX
8
CUT
10
125.6639
20
215.6459
0
VERTEX
8
CUT
10
125.6901
20
215.5331
0
VERTEX
8
CUT
10
125.7053
20
215.4183
0
VERTEX
8
CUT
10
125.7094
20
215.3027
0
VERTEX
8
CUT
10
125.7023
20
215.1871
0
VERTEX
8
CUT
10
125.6842
20
215.0728
0
VERTEX
8
CUT
10
125.6551
20
214.9607
0
VERTEX
8
CUT
10
125.6153
20
214.8520
0
VERTEX
8
CUT
10
124.5599
20
212.3481
0
VERTEX
8
CUT
10
124.5572
20
212.3425
0
VERTEX
8
CUT
10
124.5098
20
212.2833
0
VERTEX
8
CUT
10
124.5061
20
212.2787
0
VERTEX
8
CUT
10
124.1591
20
211.8448
0
VERTEX
8
CUT
10
124.1235
20
211.8183
0
VERTEX
8
CUT
10
124.0242
20
211.7583
0
VERTEX
8
CUT
10
123.9196
20
211.7082
0
VERTEX
8
CUT
10
123.8107
20
211.6685
0
VERTEX
8
CUT
10
123.6984
20
211.6394
0
VERTEX
8
CUT
10
123.5839
20
211.6213
0
VERTEX
8
CUT
10
123.4681
20
211.6143
0
VERTEX
8
CUT
10
123.3522
20
211.6186
0
VERTEX
8
CUT
10
123.2373
20
211.6340
0
VERTEX
8
CUT
10
123.1243
20
211.6604
0
VERTEX
8
CUT
10
123.0145
20
211.6977
0
VERTEX
8
CUT
10
122.9593
20
211.7225
0
VERTEX
8
CUT
10
121.3419
20
208.6332
0
VERTEX
8
CUT
10
121.8134
20
208.8373
0
VERTEX
8
CUT
10
122.0411
20
209.2213
0
VERTEX
8
CUT
10
122.1221
20
209.3408
0
VERTEX
8
CUT
10
122.2169
20
209.4498
0
VERTEX
8
CUT
10
122.3276
20
209.5625
0
VERTEX
8
CUT
10
122.4032
20
209.6331
0
VERTEX
8
CUT
10
122.4846
20
209.6970
0
VERTEX
8
CUT
10
122.5711
20
209.7536
0
VERTEX
8
CUT
10
122.5801
20
209.7584
0
VERTEX
8
CUT
10
122.8367
20
210.0249
0
VERTEX
8
CUT
10
122.1312
20
208.9671
0
VERTEX
8
CUT
10
122.2428
20
208.4881
0
VERTEX
8
CUT
10
122.5021
20
208.4819
0
VERTEX
8
CUT
10
122.4452
20
208.3652
0
VERTEX
8
CUT
10
122.6783
20
208.4777
0
VERTEX
8
CUT
10
122.7045
20
208.4771
0
VERTEX
8
CUT
10
122.7318
20
208.5036
0
VERTEX
8
CUT
10
123.3035
20
208.7796
0
VERTEX
8
CUT
10
125.7125
20
211.2821
0
VERTEX
8
CUT
10
126.3520
20
211.9465
0
VERTEX
8
CUT
10
127.9503
20
214.2254
0
VERTEX
8
CUT
10
129.3117
20
216.6820
0
VERTEX
8
CUT
10
130.2884
20
219.0793
0
VERTEX
8
CUT
10
130.9691
20
222.2758
0
VERTEX
8
CUT
10
131.2355
20
225.3243
0
VERTEX
8
CUT
10
131.1467
20
225.7387
0
VERTEX
8
CUT
10
131.0283
20
225.8452
0
VERTEX
8
CUT
10
130.9990
20
226.1272
0
VERTEX
8
CUT
10
130.9911
20
226.7566
0
VERTEX
8
CUT
10
130.8470
20
227.5918
0
VERTEX
8
CUT
10
130.7018
20
228.9911
0
VERTEX
8
CUT
10
130.1351
20
230.7454
0
VERTEX
8
CUT
10
129.7342
20
231.1516
0
VERTEX
8
CUT
10
125.5117
20
230.6203
0
VERTEX
8
CUT
10
122.4970
20
230.8305
0
VERTEX
8
CUT
10
120.0974
20
231.5023
0
VERTEX
8
CUT
10
117.8700
20
232.5726
0
VERTEX
8
CUT
10
115.8108
20
234.0299
0
VERTEX
8
CUT
10
113.9708
20
235.8414
0
VERTEX
8
CUT
10
112.3403
20
238.0202
0
VERTEX
8
CUT
10
110.9678
20
240.5052
0
VERTEX
8
CUT
10
110.5082
20
241.6571
0
VERTEX
8
CUT
10
110.0737
20
243.0825
0
VERTEX
8
CUT
10
109.2154
20
245.0655
0
VERTEX
8
CUT
10
109.1151
20
245.1490
0
VERTEX
8
CUT
10
109.0317
20
245.3582
0
VERTEX
8
CUT
10
108.8785
20
245.3462
0
VERTEX
8
CUT
10
108.6826
20
245.5094
0
VERTEX
8
CUT
10
108.6481
20
245.3283
0
VERTEX
8
CUT
10
108.5620
20
245.3216
0
VERTEX
8
CUT
10
107.6427
20
244.1434
0
VERTEX
8
CUT
10
105.2967
20
242.0052
0
VERTEX
8
CUT
10
104.5161
20
241.5520
0
VERTEX
8
CUT
10
104.2189
20
241.6614
0
VERTEX
8
CUT
10
104.3124
20
242.4142
0
VERTEX
8
CUT
10
106.6863
20
248.1419
0
VERTEX
8
CUT
10
107.2864
20
248.8460
0
VERTEX
8
CUT
10
108.0380
20
248.8439
0
VERTEX
8
CUT
10
108.3055
20
249.1493
0
VERTEX
8
CUT
10
107.6440
20
257.9603
0
VERTEX
8
CUT
10
106.9716
20
262.4656
0
VERTEX
8
CUT
10
105.7035
20
266.2717
0
VERTEX
8
CUT
10
104.3813
20
268.8847
0
VERTEX
8
CUT
10
102.7765
20
271.3647
0
VERTEX
8
CUT
10
99.8733
20
274.6513
0
VERTEX
8
CUT
10
96.5489
20
277.4724
0
VERTEX
8
CUT
10
95.5950
20
278.5282
0
VERTEX
8
CUT
10
95.5574
20
279.0276
0
VERTEX
8
CUT
10
96.4944
20
279.6937
0
VERTEX
8
CUT
10
101.6692
20
281.9564
0
VERTEX
8
CUT
10
103.1183
20
282.1151
0
VERTEX
8
CUT
10
104.7671
20
281.4710
0
VERTEX
8
CUT
10
107.2761
20
279.9137
0
VERTEX
8
CUT
10
108.1895
20
279.1703
0
VERTEX
8
CUT
10
108.5902
20
278.8442
0
VERTEX
8
CUT
10
108.8147
20
278.6615
0
VERTEX
8
CUT
10
109.1501
20
278.3885
0
VERTEX
8
CUT
10
110.2161
20
277.3620
0
VERTEX
8
CUT
10
110.2169
20
277.3613
0
VERTEX
8
CUT
10
110.2384
20
277.3397
0
VERTEX
8
CUT
10
111.0551
20
276.5230
0
VERTEX
8
CUT
10
111.8266
20
275.5513
0
VERTEX
8
CUT
10
112.4455
20
274.6890
0
VERTEX
8
CUT
10
112.7001
20
274.3343
0
VERTEX
8
CUT
10
112.9276
20
274.0175
0
VERTEX
8
CUT
10
113.2637
20
273.5491
0
VERTEX
8
CUT
10
114.2107
20
271.8274
0
VERTEX
8
CUT
10
114.5592
20
271.0432
0
VERTEX
8
CUT
10
114.5842
20
270.9871
0
VERTEX
8
CUT
10
114.7538
20
270.6054
0
VERTEX
8
CUT
10
114.8533
20
270.3816
0
VERTEX
8
CUT
10
115.2232
20
269.3714
0
VERTEX
8
CUT
10
115.9620
20
265.5593
0
VERTEX
8
CUT
10
115.9621
20
261.5094
0
VERTEX
8
CUT
10
115.6609
20
259.5357
0
VERTEX
8
CUT
10
114.3896
20
254.7423
0
VERTEX
8
CUT
10
113.9247
20
251.3710
0
VERTEX
8
CUT
10
114.0391
20
249.4307
0
VERTEX
8
CUT
10
114.4537
20
247.3547
0
VERTEX
8
CUT
10
115.0564
20
245.4882
0
VERTEX
8
CUT
10
115.9196
20
243.7335
0
VERTEX
8
CUT
10
116.7454
20
242.6493
0
VERTEX
8
CUT
10
116.7845
20
242.5870
0
VERTEX
8
CUT
10
116.8328
20
242.5346
0
VERTEX
8
CUT
10
117.6684
20
241.4373
0
VERTEX
8
CUT
10
117.7804
20
241.3405
0
VERTEX
8
CUT
10
117.8577
20
241.0699
0
VERTEX
8
CUT
10
118.6568
20
240.2708
0
VERTEX
8
CUT
10
120.6990
20
238.8797
0
VERTEX
8
CUT
10
122.1196
20
238.1694
0
VERTEX
8
CUT
10
122.6601
20
238.0556
0
VERTEX
8
CUT
10
122.6635
20
238.0539
0
VERTEX
8
CUT
10
122.6971
20
238.0478
0
VERTEX
8
CUT
10
124.3690
20
237.6958
0
VERTEX
8
CUT
10
124.6209
20
237.7002
0
VERTEX
8
CUT
10
125.4388
20
237.5524
0
VERTEX
8
CUT
10
126.7899
20
237.7379
0
VERTEX
8
CUT
10
127.7727
20
237.7550
0
VERTEX
8
CUT
10
129.9333
20
238.5837
0
VERTEX
8
CUT
10
131.3835
20
239.6492
0
VERTEX
8
CUT
10
132.3602
20
240.7739
0
VERTEX
8
CUT
10
133.0409
20
241.8690
0
VERTEX
8
CUT
10
133.0597
20
242.0118
0
VERTEX
8
CUT
10
133.6287
20
242.8363
0
VERTEX
8
CUT
10
134.1912
20
243.0663
0
VERTEX
8
CUT
10
134.8995
20
242.1676
0
VERTEX
8
CUT
10
135.9521
20
240.0080
0
VERTEX
8
CUT
10
137.4706
20
236.1095
0
VERTEX
8
CUT
10
138.1281
20
233.6029
0
VERTEX
8
CUT
10
138.4588
20
230.4937
0
VERTEX
8
CUT
10
138.3571
20
226.4808
0
VERTEX
8
CUT
10
138.2568
20
225.2763
0
VERTEX
8
CUT
10
137.8058
20
222.9212
0
VERTEX
8
CUT
10
137.0608
20
220.7087
0
VERTEX
8
CUT
10
136.1077
20
218.6187
0
VERTEX
8
CUT
10
134.8818
20
216.6390
0
VERTEX
8
CUT
10
133.4500
20
214.7862
0
VERTEX
8
CUT
10
131.7786
20
213.0516
0
VERTEX
8
CUT
10
127.6621
20
209.9142
0
VERTEX
8
CUT
10
127.0966
20
209.5654
0
VERTEX
8
CUT
10
127.1417
20
209.4881
0
VERTEX
8
CUT
10
127.1914
20
209.3793
0
VERTEX
8
CUT
10
127.2300
20
209.2660
0
VERTEX
8
CUT
10
127.2571
20
209.1495
0
VERTEX
8
CUT
10
127.2725
20
209.0308
0
VERTEX
8
CUT
10
127.2760
20
208.9113
0
VERTEX
8
CUT
10
127.2676
20
208.7919
0
VERTEX
8
CUT
10
127.2473
20
208.6740
0
VERTEX
8
CUT
10
127.2154
20
208.5587
0
VERTEX
8
CUT
10
127.1721
20
208.4471
0
VERTEX
8
CUT
10
127.1180
20
208.3404
0
VERTEX
8
CUT
10
127.0535
20
208.2397
0
VERTEX
8
CUT
10
126.9793
20
208.1458
0
VERTEX
8
CUT
10
126.8961
20
208.0598
0
VERTEX
8
CUT
10
126.8048
20
207.9825
0
VERTEX
8
CUT
10
126.7062
20
207.9147
0
VERTEX
8
CUT
10
124.0581
20
206.2813
0
VERTEX
8
CUT
10
123.3410
20
205.4395
0
VERTEX
8
CUT
10
123.2562
20
205.3498
0
VERTEX
8
CUT
10
123.1627
20
205.2693
0
VERTEX
8
CUT
10
122.4521
20
204.7184
0
VERTEX
8
CUT
10
122.3539
20
204.6498
0
VERTEX
8
CUT
10
122.2494
20
204.5914
0
VERTEX
8
CUT
10
122.1397
20
204.5437
0
VERTEX
8
CUT
10
122.0257
20
204.5072
0
VERTEX
8
CUT
10
121.9086
20
204.4822
0
VERTEX
8
CUT
10
121.7897
20
204.4690
0
VERTEX
8
CUT
10
121.6700
20
204.4677
0
VERTEX
8
CUT
10
121.5508
20
204.4783
0
VERTEX
8
CUT
10
121.4332
20
204.5008
0
VERTEX
8
CUT
10
121.3184
20
204.5348
0
VERTEX
8
CUT
10
121.2077
20
204.5801
0
VERTEX
8
CUT
10
121.1019
20
204.6363
0
VERTEX
8
CUT
10
121.0023
20
204.7027
0
VERTEX
8
CUT
10
120.9098
20
204.7786
0
VERTEX
8
CUT
10
120.8254
20
204.8634
0
VERTEX
8
CUT
10
120.7693
20
204.9322
0
VERTEX
8
CUT
10
119.6808
20
204.0883
0
VERTEX
8
CUT
10
118.3497
20
202.2294
0
VERTEX
8
CUT
10
117.6776
20
201.6632
0
VERTEX
8
CUT
10
116.9961
20
201.5942
0
VERTEX
8
CUT
10
116.1854
20
202.0186
0
VERTEX
8
CUT
10
115.4073
20
203.4804
0
VERTEX
8
CUT
10
114.9387
20
205.3968
0
VERTEX
8
CUT
10
114.6734
20
205.5955
0
VERTEX
8
CUT
10
114.3820
20
205.5402
0
VERTEX
8
CUT
10
111.8798
20
202.5944
0
VERTEX
8
CUT
10
108.7655
20
199.9237
0
VERTEX
8
CUT
10
101.3913
20
195.2196
0
VERTEX
8
CUT
10
99.5339
20
193.7379
0
VERTEX
8
CUT
10
98.0586
20
192.1077
0
VERTEX
8
CUT
10
97.0650
20
190.5138
0
VERTEX
8
CUT
10
96.4743
20
188.8887
0
VERTEX
8
CUT
10
96.2905
20
187.1972
0
VERTEX
8
CUT
10
96.5470
20
185.3923
0
VERTEX
8
CUT
10
97.2122
20
183.6268
0
VERTEX
8
CUT
10
98.0140
20
182.3304
0
VERTEX
8
CUT
10
98.9400
20
181.3225
0
VERTEX
8
CUT
10
100.0036
20
180.5180
0
VERTEX
8
CUT
10
101.2170
20
179.9330
0
VERTEX
8
CUT
10
102.4076
20
179.6310
0
VERTEX
8
CUT
10
103.1146
20
179.6130
0
VERTEX
8
CUT
10
103.2096
20
179.6050
0
VERTEX
8
CUT
10
103.4503
20
179.5722
0
VERTEX
8
CUT
10
103.4793
20
179.5820
0
VERTEX
8
CUT
10
103.6511
20
179.5674
0
VERTEX
8
CUT
10
105.3974
20
179.9225
0
VERTEX
8
CUT
10
106.1669
20
180.3961
0
VERTEX
8
CUT
10
106.4085
20
180.6511
0
VERTEX
8
CUT
10
106.4261
20
180.6601
0
VERTEX
8
CUT
10
106.4582
20
180.7036
0
VERTEX
8
CUT
10
107.2324
20
181.5208
0
VERTEX
8
CUT
10
107.2591
20
181.7885
0
VERTEX
8
CUT
10
107.3186
20
181.8691
0
VERTEX
8
CUT
10
107.7034
20
183.2725
0
VERTEX
8
CUT
10
107.6772
20
183.8929
0
VERTEX
8
CUT
10
107.4812
20
184.1512
0
VERTEX
8
CUT
10
107.3239
20
184.1514
0
VERTEX
8
CUT
10
107.2190
20
184.2632
0
VERTEX
8
CUT
10
106.7615
20
184.3192
0
VERTEX
8
CUT
10
106.4327
20
184.1531
0
VERTEX
8
CUT
10
105.9921
20
184.1540
0
VERTEX
8
CUT
10
104.7755
20
184.3802
0
VERTEX
8
CUT
10
103.9129
20
185.0474
0
VERTEX
8
CUT
10
103.1994
20
185.9520
0
VERTEX
8
CUT
10
102.8809
20
187.0014
0
VERTEX
8
CUT
10
102.9390
20
187.9909
0
VERTEX
8
CUT
10
102.9650
20
188.0967
0
VERTEX
8
CUT
10
103.3472
20
189.0757
0
VERTEX
8
CUT
10
103.4105
20
189.1535
0
VERTEX
8
CUT
10
104.9534
20
190.4591
0
VERTEX
8
CUT
10
106.1452
20
191.0114
0
VERTEX
8
CUT
10
106.4998
20
191.0436
0
VERTEX
8
CUT
10
107.4987
20
191.1102
0
VERTEX
8
CUT
10
108.9786
20
190.9326
0
VERTEX
8
CUT
10
110.2980
20
190.4928
0
VERTEX
8
CUT
10
111.3335
20
189.9005
0
VERTEX
8
CUT
10
112.1563
20
189.1745
0
VERTEX
8
CUT
10
112.8898
20
188.3141
0
VERTEX
8
CUT
10
113.8763
20
186.4214
0
VERTEX
8
CUT
10
114.4269
20
186.3725
0
VERTEX
8
CUT
10
114.9017
20
189.3857
0
VERTEX
8
CUT
10
115.8319
20
193.0032
0
VERTEX
8
CUT
10
117.3861
20
196.4638
0
VERTEX
8
CUT
10
119.4586
20
199.6022
0
VERTEX
8
CUT
10
121.6096
20
201.9658
0
VERTEX
8
CUT
10
123.6226
20
203.7687
0
VERTEX
8
CUT
10
126.9236
20
206.1767
0
VERTEX
8
CUT
10
127.6867
20
206.6686
0
VERTEX
8
CUT
10
128.3780
20
207.1141
0
VERTEX
8
CUT
10
128.4786
20
207.1789
0
VERTEX
8
CUT
10
128.8721
20
207.4326
0
VERTEX
8
CUT
10
133.3442
20
210.2424
0
VERTEX
8
CUT
10
134.9943
20
211.2361
0
VERTEX
8
CUT
10
137.3917
20
213.1599
0
VERTEX
8
CUT
10
139.4339
20
215.1725
0
VERTEX
8
CUT
10
141.1505
20
217.3331
0
VERTEX
8
CUT
10
142.5416
20
219.6121
0
VERTEX
8
CUT
10
143.6071
20
222.0094
0
VERTEX
8
CUT
10
144.3766
20
224.5844
0
VERTEX
8
CUT
10
144.7866
20
227.0675
0
VERTEX
8
CUT
10
144.7917
20
227.0932
0
VERTEX
8
CUT
10
144.7925
20
227.1028
0
VERTEX
8
CUT
10
144.9093
20
227.8104
0
VERTEX
8
CUT
10
144.8767
20
228.2344
0
VERTEX
8
CUT
10
144.9947
20
229.8188
0
VERTEX
8
CUT
10
144.9044
20
232.5975
0
VERTEX
8
CUT
10
144.9389
20
233.3747
0
VERTEX
8
CUT
10
144.8205
20
234.1442
0
VERTEX
8
CUT
10
144.6613
20
234.2557
0
VERTEX
8
CUT
10
144.4984
20
235.3612
0
VERTEX
8
CUT
10
144.1764
20
236.6044
0
VERTEX
8
CUT
10
144.1175
20
237.0033
0
VERTEX
8
CUT
10
143.8286
20
237.9476
0
VERTEX
8
CUT
10
143.5011
20
239.2122
0
VERTEX
8
CUT
10
142.8562
20
240.9164
0
VERTEX
8
CUT
10
142.1101
20
242.5270
0
VERTEX
8
CUT
10
140.3400
20
245.4292
0
VERTEX
8
CUT
10
139.5919
20
246.2916
0
VERTEX
8
CUT
10
139.4296
20
246.5164
0
VERTEX
8
CUT
10
137.7920
20
248.3617
0
VERTEX
8
CUT
10
136.0724
20
249.8811
0
VERTEX
8
CUT
10
135.6884
20
250.1314
0
VERTEX
8
CUT
10
135.2984
20
250.4697
0
VERTEX
8
CUT
10
134.6806
20
250.7882
0
VERTEX
8
CUT
10
134.3034
20
251.0340
0
VERTEX
8
CUT
10
133.7857
20
251.2494
0
VERTEX
8
CUT
10
132.8373
20
251.7383
0
VERTEX
8
CUT
10
131.2842
20
252.0726
0
VERTEX
8
CUT
10
130.0087
20
252.0495
0
VERTEX
8
CUT
10
128.9192
20
251.7713
0
VERTEX
8
CUT
10
128.1474
20
251.2565
0
VERTEX
8
CUT
10
127.6788
20
250.6254
0
VERTEX
8
CUT
10
127.5467
20
250.0782
0
VERTEX
8
CUT
10
127.5359
20
250.0674
0
VERTEX
8
CUT
10
127.5374
20
250.0396
0
VERTEX
8
CUT
10
127.5298
20
250.0080
0
VERTEX
8
CUT
10
127.5421
20
249.9549
0
VERTEX
8
CUT
10
127.5655
20
249.5346
0
VERTEX
8
CUT
10
127.6827
20
249.3498
0
VERTEX
8
CUT
10
127.7059
20
249.2498
0
VERTEX
8
CUT
10
127.9137
20
248.9856
0
VERTEX
8
CUT
10
128.3350
20
248.3212
0
VERTEX
8
CUT
10
129.4736
20
247.8230
0
VERTEX
8
CUT
10
130.0235
20
247.4654
0
VERTEX
8
CUT
10
130.3065
20
246.9767
0
VERTEX
8
CUT
10
130.0413
20
245.7620
0
VERTEX
8
CUT
10
129.2895
20
244.6440
0
VERTEX
8
CUT
10
129.2461
20
244.6017
0
VERTEX
8
CUT
10
129.2292
20
244.5853
0
VERTEX
8
CUT
10
129.2209
20
244.5772
0
VERTEX
8
CUT
10
129.2123
20
244.5688
0
VERTEX
8
CUT
10
127.8808
20
243.7172
0
VERTEX
8
CUT
10
126.3051
20
243.3790
0
VERTEX
8
CUT
10
124.9417
20
243.5310
0
VERTEX
8
CUT
10
124.7623
20
243.5509
0
VERTEX
8
CUT
10
124.5100
20
243.5791
0
VERTEX
8
CUT
10
124.1954
20
243.6141
0
VERTEX
8
CUT
10
122.7702
20
244.2538
0
VERTEX
8
CUT
10
121.4533
20
245.3180
0
VERTEX
8
CUT
10
120.2463
20
246.7442
0
VERTEX
8
CUT
10
119.4027
20
248.2905
0
VERTEX
8
CUT
10
118.7956
20
250.7186
0
VERTEX
8
CUT
10
118.7892
20
250.8212
0
VERTEX
8
CUT
10
118.8378
20
250.8625
0
VERTEX
8
CUT
10
118.9055
20
253.2137
0
VERTEX
8
CUT
10
119.1066
20
254.2387
0
VERTEX
8
CUT
10
119.6376
20
255.6455
0
VERTEX
8
CUT
10
119.9018
20
256.1568
0
VERTEX
8
CUT
10
120.6368
20
257.3757
0
VERTEX
8
CUT
10
121.7982
20
258.6842
0
VERTEX
8
CUT
10
123.2693
20
259.8450
0
VERTEX
8
CUT
10
125.3636
20
261.0054
0
VERTEX
8
CUT
10
126.8692
20
261.4264
0
VERTEX
8
CUT
10
127.7466
20
261.5202
0
VERTEX
8
CUT
10
133.6572
20
261.4876
0
VERTEX
8
CUT
10
135.9244
20
260.8307
0
VERTEX
8
CUT
10
139.1744
20
259.2628
0
VERTEX
8
CUT
10
142.1593
20
257.1985
0
VERTEX
8
CUT
10
144.8446
20
254.6275
0
VERTEX
8
CUT
10
147.1962
20
251.6754
0
VERTEX
8
CUT
10
149.1903
20
248.3951
0
VERTEX
8
CUT
10
150.7486
20
244.8963
0
VERTEX
8
CUT
10
151.8667
20
241.0886
0
VERTEX
8
CUT
10
152.4158
20
237.3515
0
VERTEX
8
CUT
10
152.3974
20
236.5120
0
VERTEX
8
CUT
10
152.6637
20
235.5353
0
VERTEX
8
CUT
10
153.1373
20
235.2393
0
VERTEX
8
CUT
10
153.4628
20
235.6832
0
VERTEX
8
CUT
10
153.5220
20
238.1990
0
VERTEX
8
CUT
10
153.3149
20
239.3829
0
VERTEX
8
CUT
10
153.1946
20
239.4764
0
VERTEX
8
CUT
10
153.0188
20
244.6750
0
VERTEX
8
CUT
10
152.0301
20
248.8568
0
VERTEX
8
CUT
10
151.7302
20
249.0021
0
VERTEX
8
CUT
10
151.4536
20
248.8903
0
VERTEX
8
CUT
10
151.2195
20
247.5993
0
VERTEX
8
CUT
10
150.7264
20
247.5668
0
VERTEX
8
CUT
10
150.1358
20
248.2903
0
VERTEX
8
CUT
10
148.4053
20
251.6344
0
VERTEX
8
CUT
10
147.2330
20
253.4836
0
VERTEX
8
CUT
10
144.3327
20
256.9763
0
VERTEX
8
CUT
10
141.0393
20
259.8618
0
VERTEX
8
CUT
10
139.2488
20
261.0671
0
VERTEX
8
CUT
10
137.4302
20
262.0806
0
VERTEX
8
CUT
10
132.4919
20
264.1371
0
VERTEX
8
CUT
10
131.4699
20
264.9308
0
VERTEX
8
CUT
10
129.3618
20
267.2720
0
VERTEX
8
CUT
10
127.4327
20
270.3749
0
VERTEX
8
CUT
10
126.6259
20
272.0523
0
VERTEX
8
CUT
10
125.5025
20
275.4224
0
VERTEX
8
CUT
10
125.0641
20
278.5978
0
VERTEX
8
CUT
10
125.0526
20
279.3684
0
VERTEX
8
CUT
10
125.0500
20
279.5391
0
VERTEX
8
CUT
10
125.0478
20
279.6837
0
VERTEX
8
CUT
10
125.0464
20
279.7769
0
VERTEX
8
CUT
10
125.1292
20
282.1956
0
VERTEX
8
CUT
10
125.4757
20
284.3962
0
VERTEX
8
CUT
10
125.8059
20
285.7305
0
VERTEX
8
CUT
10
126.9636
20
288.2360
0
VERTEX
8
CUT
10
128.2760
20
288.8335
0
VERTEX
8
CUT
10
131.1534
20
289.2847
0
VERTEX
8
CUT
10
132.6649
20
289.1938
0
VERTEX
8
CUT
10
133.1974
20
288.7572
0
VERTEX
8
CUT
10
133.1578
20
287.7939
0
VERTEX
8
CUT
10
132.3348
20
284.9406
0
VERTEX
8
CUT
10
132.0983
20
283.3905
0
VERTEX
8
CUT
10
132.0979
20
280.0524
0
VERTEX
8
CUT
10
132.3337
20
278.3536
0
VERTEX
8
CUT
10
133.2007
20
275.1151
0
VERTEX
8
CUT
10
134.2958
20
272.8010
0
VERTEX
8
CUT
10
134.8647
20
271.8641
0
VERTEX
8
CUT
10
135.1604
20
271.7210
0
VERTEX
8
CUT
10
135.4604
20
271.8550
0
VERTEX
8
CUT
10
135.5512
20
272.1707
0
VERTEX
8
CUT
10
134.6507
20
275.0835
0
VERTEX
8
CUT
10
134.5432
20
275.5837
0
VERTEX
8
CUT
10
134.1351
20
278.6308
0
VERTEX
8
CUT
10
134.2538
20
281.2326
0
VERTEX
8
CUT
10
134.3693
20
282.3108
0
VERTEX
8
CUT
10
134.8876
20
284.5055
0
VERTEX
8
CUT
10
136.2525
20
287.7400
0
VERTEX
8
CUT
10
136.3484
20
287.9093
0
VERTEX
8
CUT
10
136.7997
20
288.5730
0
VERTEX
8
CUT
10
137.3736
20
289.6747
0
VERTEX
8
CUT
10
137.3815
20
289.6863
0
VERTEX
8
CUT
10
138.5522
20
290.8288
0
VERTEX
8
CUT
10
138.5931
20
290.8354
0
VERTEX
8
CUT
10
138.6257
20
290.8406
0
VERTEX
8
CUT
10
138.6853
20
290.8502
0
VERTEX
8
CUT
10
138.8743
20
290.8807
0
VERTEX
8
CUT
10
141.0603
20
291.1505
0
VERTEX
8
CUT
10
148.1624
20
291.2097
0
VERTEX
8
CUT
10
150.9753
20
291.1191
0
VERTEX
8
CUT
10
152.1839
20
290.7921
0
VERTEX
8
CUT
10
151.7518
20
290.0875
0
VERTEX
8
CUT
10
149.5602
20
288.3713
0
VERTEX
8
CUT
10
147.4540
20
286.2892
0
VERTEX
8
CUT
10
145.7505
20
283.8634
0
VERTEX
8
CUT
10
145.0464
20
282.5465
0
VERTEX
8
CUT
10
143.6294
20
278.8610
0
VERTEX
8
CUT
10
143.1760
20
278.3271
0
VERTEX
8
CUT
10
142.4338
20
278.3053
0
VERTEX
8
CUT
10
142.1589
20
278.1049
0
VERTEX
8
CUT
10
142.2469
20
277.2740
0
VERTEX
8
CUT
10
142.9997
20
275.2766
0
VERTEX
8
CUT
10
142.9263
20
274.9584
0
VERTEX
8
CUT
10
143.7846
20
273.5674
0
VERTEX
8
CUT
10
144.1102
20
273.5082
0
VERTEX
8
CUT
10
144.1880
20
273.8640
0
VERTEX
8
CUT
10
144.4093
20
274.0277
0
VERTEX
8
CUT
10
144.5074
20
275.3239
0
VERTEX
8
CUT
10
144.5246
20
275.4024
0
VERTEX
8
CUT
10
144.5161
20
275.4383
0
VERTEX
8
CUT
10
144.6437
20
277.1244
0
VERTEX
8
CUT
10
145.1764
20
279.2003
0
VERTEX
8
CUT
10
146.0355
20
281.2883
0
VERTEX
8
CUT
10
147.1488
20
283.2363
0
VERTEX
8
CUT
10
148.5604
20
285.0621
0
VERTEX
8
CUT
10
150.2068
20
286.6745
0
VERTEX
8
CUT
10
150.9970
20
287.2813
0
VERTEX
8
CUT
10
154.6676
20
289.4645
0
VERTEX
8
CUT
10
155.1411
20
289.7136
0
VERTEX
8
CUT
10
156.1031
20
290.0625
0
VERTEX
8
CUT
10
159.3302
20
291.0258
0
VERTEX
8
CUT
10
163.5757
20
291.2088
0
VERTEX
8
CUT
10
172.1106
20
290.1715
0
VERTEX
8
CUT
10
177.0392
20
289.2806
0
VERTEX
8
CUT
10
178.5893
20
288.7761
0
VERTEX
8
CUT
10
178.8300
20
288.2570
0
VERTEX
8
CUT
10
178.5735
20
287.9068
0
VERTEX
8
CUT
10
174.1322
20
285.6830
0
VERTEX
8
CUT
10
170.9128
20
283.0528
0
VERTEX
8
CUT
10
168.5944
20
279.9787
0
VERTEX
8
CUT
10
167.1979
20
277.0224
0
VERTEX
8
CUT
10
166.6949
20
273.6367
0
VERTEX
8
CUT
10
166.8445
20
268.6694
0
VERTEX
8
CUT
10
167.6634
20
265.6683
0
VERTEX
8
CUT
10
168.6932
20
263.2880
0
VERTEX
8
CUT
10
169.5517
20
261.7209
0
VERTEX
8
CUT
10
169.8311
20
261.5385
0
VERTEX
8
CUT
10
170.1491
20
261.6393
0
VERTEX
8
CUT
10
170.2724
20
261.9493
0
VERTEX
8
CUT
10
169.7686
20
264.9129
0
VERTEX
8
CUT
10
169.7111
20
268.6553
0
VERTEX
8
CUT
10
170.3353
20
271.8072
0
VERTEX
8
CUT
10
171.1587
20
273.8813
0
VERTEX
8
CUT
10
172.2437
20
275.7736
0
VERTEX
8
CUT
10
174.4035
20
278.3177
0
VERTEX
8
CUT
10
174.9970
20
278.8396
0
VERTEX
8
CUT
10
175.2573
20
279.0585
0
VERTEX
8
CUT
10
177.2884
20
280.5819
0
VERTEX
8
CUT
10
180.5441
20
282.2097
0
VERTEX
8
CUT
10
184.2141
20
283.3048
0
VERTEX
8
CUT
10
185.4088
20
283.4818
0
VERTEX
8
CUT
10
187.2599
20
283.6898
0
VERTEX
8
CUT
10
189.3800
20
283.7340
0
VERTEX
8
CUT
10
189.4126
20
283.7338
0
VERTEX
8
CUT
10
189.4349
20
283.7337
0
VERTEX
8
CUT
10
189.5668
20
283.7328
0
VERTEX
8
CUT
10
190.5414
20
283.7262
0
VERTEX
8
CUT
10
196.3111
20
283.3358
0
VERTEX
8
CUT
10
197.5259
20
283.1134
0
VERTEX
8
CUT
10
199.8396
20
282.0465
0
VERTEX
8
CUT
10
203.0747
20
281.0645
0
VERTEX
8
CUT
10
206.9126
20
279.1883
0
VERTEX
8
CUT
10
207.9614
20
278.4980
0
VERTEX
8
CUT
10
210.0884
20
275.9521
0
VERTEX
8
CUT
10
210.5736
20
275.0133
0
VERTEX
8
CUT
10
211.5270
20
273.1206
0
VERTEX
8
CUT
10
212.1266
20
270.1096
0
VERTEX
8
CUT
10
212.0378
20
266.5408
0
VERTEX
8
CUT
10
211.2416
20
264.3785
0
VERTEX
8
CUT
10
209.6981
20
261.9063
0
VERTEX
8
CUT
10
207.7053
20
260.0027
0
VERTEX
8
CUT
10
205.0682
20
258.6626
0
VERTEX
8
CUT
10
203.5681
20
258.3221
0
VERTEX
8
CUT
10
200.5093
20
258.2636
0
VERTEX
8
CUT
10
198.6714
20
258.3864
0
VERTEX
8
CUT
10
196.9164
20
258.9174
0
VERTEX
8
CUT
10
194.7884
20
260.2474
0
VERTEX
8
CUT
10
193.1439
20
261.9735
0
VERTEX
8
CUT
10
192.5117
20
263.0171
0
VERTEX
8
CUT
10
191.8270
20
265.1295
0
VERTEX
8
CUT
10
191.7916
20
267.4750
0
VERTEX
8
CUT
10
192.3031
20
269.0057
0
VERTEX
8
CUT
10
192.7380
20
269.7494
0
VERTEX
8
CUT
10
194.5576
20
271.2973
0
VERTEX
8
CUT
10
195.2075
20
271.5801
0
VERTEX
8
CUT
10
195.5282
20
271.6749
0
VERTEX
8
CUT
10
195.5895
20
271.6930
0
VERTEX
8
CUT
10
195.6713
20
271.7171
0
VERTEX
8
CUT
10
195.8589
20
271.7726
0
VERTEX
8
CUT
10
196.5921
20
271.7982
0
VERTEX
8
CUT
10
196.5928
20
271.7981
0
VERTEX
8
CUT
10
197.1755
20
271.7746
0
VERTEX
8
CUT
10
197.2501
20
271.7716
0
VERTEX
8
CUT
10
197.5984
20
271.7575
0
VERTEX
8
CUT
10
198.2070
20
271.6087
0
VERTEX
8
CUT
10
198.5327
20
271.4766
0
VERTEX
8
CUT
10
199.2902
20
270.8594
0
VERTEX
8
CUT
10
199.6229
20
270.5406
0
VERTEX
8
CUT
10
199.7275
20
270.4404
0
VERTEX
8
CUT
10
199.7596
20
270.4097
0
VERTEX
8
CUT
10
199.7862
20
270.3842
0
VERTEX
8
CUT
10
200.2106
20
269.5093
0
VERTEX
8
CUT
10
200.4062
20
268.5830
0
VERTEX
8
CUT
10
200.2469
20
267.8461
0
VERTEX
8
CUT
10
199.6765
20
266.6541
0
VERTEX
8
CUT
10
199.4619
20
266.2848
0
VERTEX
8
CUT
10
199.4631
20
266.2080
0
VERTEX
8
CUT
10
199.4088
20
266.0946
0
VERTEX
8
CUT
10
199.4163
20
266.0384
0
VERTEX
8
CUT
10
199.4012
20
266.0231
0
VERTEX
8
CUT
10
199.4414
20
265.6445
0
VERTEX
8
CUT
10
199.7698
20
265.3841
0
VERTEX
8
CUT
10
199.8038
20
265.3525
0
VERTEX
8
CUT
10
199.8163
20
265.3472
0
VERTEX
8
CUT
10
199.8514
20
265.3194
0
VERTEX
8
CUT
10
199.9200
20
265.3033
0
VERTEX
8
CUT
10
200.6676
20
264.9870
0
VERTEX
8
CUT
10
200.7315
20
264.9498
0
VERTEX
8
CUT
10
200.7583
20
264.9487
0
VERTEX
8
CUT
10
200.9665
20
264.8606
0
VERTEX
8
CUT
10
202.1929
20
264.8360
0
VERTEX
8
CUT
10
203.5722
20
265.3809
0
VERTEX
8
CUT
10
204.6983
20
266.2714
0
VERTEX
8
CUT
10
205.4580
20
267.3766
0
VERTEX
8
CUT
10
205.9070
20
268.6708
0
VERTEX
8
CUT
10
206.0501
20
270.1009
0
VERTEX
8
CUT
10
205.8403
20
271.6304
0
VERTEX
8
CUT
10
205.3591
20
273.0953
0
VERTEX
8
CUT
10
204.5526
20
274.4786
0
VERTEX
8
CUT
10
203.4250
20
275.7513
0
VERTEX
8
CUT
10
201.4473
20
277.1587
0
VERTEX
8
CUT
10
199.2131
20
278.0643
0
VERTEX
8
CUT
10
196.8199
20
278.4475
0
VERTEX
8
CUT
10
194.5356
20
278.2449
0
VERTEX
8
CUT
10
191.5499
20
277.2014
0
VERTEX
8
CUT
10
189.0890
20
275.4726
0
VERTEX
8
CUT
10
187.2873
20
273.2904
0
VERTEX
8
CUT
10
186.0412
20
270.6150
0
VERTEX
8
CUT
10
185.4625
20
267.6010
0
VERTEX
8
CUT
10
185.4885
20
266.6079
0
VERTEX
8
CUT
10
185.4604
20
266.3304
0
VERTEX
8
CUT
10
185.5091
20
265.8191
0
VERTEX
8
CUT
10
185.5496
20
264.2697
0
VERTEX
8
CUT
10
185.6423
20
263.8421
0
VERTEX
8
CUT
10
185.6348
20
263.4748
0
VERTEX
8
CUT
10
185.8419
20
262.3501
0
VERTEX
8
CUT
10
186.1857
20
261.3337
0
VERTEX
8
CUT
10
186.3107
20
260.7568
0
VERTEX
8
CUT
10
186.6632
20
259.9221
0
VERTEX
8
CUT
10
187.2034
20
258.3249
0
VERTEX
8
CUT
10
188.8608
20
255.1877
0
VERTEX
8
CUT
10
191.3470
20
251.6360
0
VERTEX
8
CUT
10
191.8416
20
251.1092
0
VERTEX
8
CUT
10
192.1572
20
250.6781
0
VERTEX
8
CUT
10
194.8772
20
247.5735
0
VERTEX
8
CUT
10
198.6170
20
243.9499
0
VERTEX
8
CUT
10
198.9475
20
243.4359
0
VERTEX
8
CUT
10
198.8685
20
243.1494
0
VERTEX
8
CUT
10
197.6684
20
243.1728
0
VERTEX
8
CUT
10
195.9722
20
243.9104
0
VERTEX
8
CUT
10
194.0356
20
245.2787
0
VERTEX
8
CUT
10
191.6052
20
246.4667
0
VERTEX
8
CUT
10
188.3521
20
249.0069
0
VERTEX
8
CUT
10
185.1557
20
252.4400
0
VERTEX
8
CUT
10
183.7931
20
254.2879
0
VERTEX
8
CUT
10
182.7439
20
256.0336
0
VERTEX
8
CUT
10
180.9795
20
260.6500
0
VERTEX
8
CUT
10
180.5755
20
260.8701
0
VERTEX
8
CUT
10
180.2404
20
260.4385
0
VERTEX
8
CUT
10
181.0583
20
257.8303
0
VERTEX
8
CUT
10
182.0728
20
255.6224
0
VERTEX
8
CUT
10
183.3636
20
253.4842
0
VERTEX
8
CUT
10
184.9301
20
251.3666
0
VERTEX
8
CUT
10
186.8622
20
249.1661
0
VERTEX
8
CUT
10
190.2698
20
245.8760
0
VERTEX
8
CUT
10
192.5165
20
244.0143
0
VERTEX
8
CUT
10
195.1249
20
242.2561
0
VERTEX
8
CUT
10
204.8058
20
236.7494
0
VERTEX
8
CUT
10
208.0737
20
234.6620
0
VERTEX
8
CUT
10
208.5780
20
234.3294
0
VERTEX
8
CUT
10
208.6313
20
234.2942
0
VERTEX
8
CUT
10
208.7117
20
234.2412
0
VERTEX
8
CUT
10
208.7392
20
234.2230
0
VERTEX
8
CUT
10
211.5437
20
231.8535
0
VERTEX
8
CUT
10
213.4210
20
229.8246
0
VERTEX
8
CUT
10
215.0643
20
227.6680
0
VERTEX
8
CUT
10
216.3556
20
225.4376
0
VERTEX
8
CUT
10
217.4298
20
223.0848
0
VERTEX
8
CUT
10
218.1815
20
220.6315
0
VERTEX
8
CUT
10
218.6324
20
218.1223
0
VERTEX
8
CUT
10
218.7550
20
215.5607
0
VERTEX
8
CUT
10
218.3103
20
211.5315
0
VERTEX
8
CUT
10
217.4972
20
208.6101
0
VERTEX
8
CUT
10
215.5944
20
204.6261
0
VERTEX
8
CUT
10
213.6596
20
201.9929
0
VERTEX
8
CUT
10
213.7390
20
201.5343
0
VERTEX
8
CUT
10
214.2334
20
201.5000
0
VERTEX
8
CUT
10
216.6870
20
203.4579
0
VERTEX
8
CUT
10
219.6092
20
206.5214
0
VERTEX
8
CUT
10
219.9142
20
207.0680
0
VERTEX
8
CUT
10
220.8888
20
208.6545
0
VERTEX
8
CUT
10
220.9896
20
208.8091
0
VERTEX
8
CUT
10
221.0067
20
208.8463
0
VERTEX
8
CUT
10
221.0138
20
208.8579
0
VERTEX
8
CUT
10
221.0317
20
208.9008
0
VERTEX
8
CUT
10
221.4733
20
209.8622
0
VERTEX
8
CUT
10
221.7353
20
210.3318
0
VERTEX
8
CUT
10
221.8490
20
210.6803
0
VERTEX
8
CUT
10
221.9552
20
210.9116
0
VERTEX
8
CUT
10
223.4032
20
215.2697
0
VERTEX
8
CUT
10
224.0686
20
216.8003
0
VERTEX
8
CUT
10
225.1965
20
218.0570
0
VERTEX
8
CUT
10
225.2726
20
218.1173
0
VERTEX
8
CUT
10
225.4261
20
218.2218
0
VERTEX
8
CUT
10
225.8059
20
218.4314
0
VERTEX
8
CUT
10
226.1250
20
218.5320
0
VERTEX
8
CUT
10
226.2155
20
218.5606
0
VERTEX
8
CUT
10
226.3289
20
218.5963
0
VERTEX
8
CUT
10
226.4544
20
218.6359
0
VERTEX
8
CUT
10
227.5206
20
218.8273
0
VERTEX
8
CUT
10
227.6586
20
218.8422
0
VERTEX
8
CUT
10
227.7012
20
218.8468
0
VERTEX
8
CUT
10
227.7164
20
218.8484
0
VERTEX
8
CUT
10
227.8462
20
218.8625
0
VERTEX
8
CUT
10
229.4020
20
218.5691
0
VERTEX
8
CUT
10
229.7449
20
218.4416
0
VERTEX
8
CUT
10
229.8060
20
218.4189
0
VERTEX
8
CUT
10
229.8300
20
218.4100
0
VERTEX
8
CUT
10
229.8403
20
218.4062
0
VERTEX
8
CUT
10
231.1452
20
217.4318
0
VERTEX
8
CUT
10
231.6257
20
216.6502
0
VERTEX
8
CUT
10
231.9855
20
215.6356
0
VERTEX
8
CUT
10
232.1325
20
213.3393
0
VERTEX
8
CUT
10
231.8353
20
211.4077
0
VERTEX
8
CUT
10
231.2601
20
209.8480
0
VERTEX
8
CUT
10
231.0457
20
209.3917
0
VERTEX
8
CUT
10
229.2038
20
206.6798
0
VERTEX
8
CUT
10
227.1765
20
204.5351
0
VERTEX
8
CUT
10
224.7326
20
202.4504
0
VERTEX
8
CUT
10
220.0074
20
199.4199
0
VERTEX
8
CUT
10
211.0150
20
194.7165
0
VERTEX
8
CUT
10
207.7012
20
192.7930
0
VERTEX
8
CUT
10
204.4056
20
190.3150
0
VERTEX
8
CUT
10
202.2396
20
187.9778
0
VERTEX
8
CUT
10
201.1975
20
186.4289
0
VERTEX
8
CUT
10
200.4160
20
184.8046
0
VERTEX
8
CUT
10
199.7742
20
182.9592
0
VERTEX
8
CUT
10
199.6781
20
182.3899
0
VERTEX
8
CUT
10
199.5453
20
182.2903
0
VERTEX
8
CUT
10
199.3086
20
181.5800
0
VERTEX
8
CUT
10
199.1902
20
179.1826
0
VERTEX
8
CUT
10
199.5453
20
176.1637
0
VERTEX
8
CUT
10
200.3149
20
173.2928
0
VERTEX
8
CUT
10
200.6485
20
172.5471
0
VERTEX
8
CUT
10
200.8163
20
171.9709
0
VERTEX
8
CUT
10
200.6668
20
171.4608
0
VERTEX
8
CUT
10
200.3743
20
171.3691
0
VERTEX
8
CUT
10
199.7184
20
171.6132
0
VERTEX
8
CUT
10
197.4932
20
173.4209
0
VERTEX
8
CUT
10
195.2125
20
176.0865
0
VERTEX
8
CUT
10
194.3452
20
177.5741
0
VERTEX
8
CUT
10
193.7233
20
179.0568
0
VERTEX
8
CUT
10
193.3273
20
180.6225
0
VERTEX
8
CUT
10
193.3128
20
180.9382
0
VERTEX
8
CUT
10
193.7147
20
187.4402
0
VERTEX
8
CUT
10
193.5667
20
187.8841
0
VERTEX
8
CUT
10
193.0340
20
187.4402
0
VERTEX
8
CUT
10
192.6784
20
186.6104
0
VERTEX
8
CUT
10
192.1198
20
185.9706
0
VERTEX
8
CUT
10
190.7961
20
183.7965
0
VERTEX
8
CUT
10
189.5937
20
180.8356
0
VERTEX
8
CUT
10
189.0409
20
177.0921
0
VERTEX
8
CUT
10
189.4840
20
173.0395
0
VERTEX
8
CUT
10
189.3636
20
172.6761
0
VERTEX
8
CUT
10
188.6987
20
172.5852
0
VERTEX
8
CUT
10
187.3647
20
173.2206
0
VERTEX
8
CUT
10
185.7982
20
174.5507
0
VERTEX
8
CUT
10
184.2861
20
176.5280
0
VERTEX
8
CUT
10
183.7725
20
177.5977
0
VERTEX
8
CUT
10
183.3271
20
179.8234
0
VERTEX
8
CUT
10
183.5016
20
182.3667
0
VERTEX
8
CUT
10
183.9126
20
183.9600
0
VERTEX
8
CUT
10
183.7736
20
184.2569
0
VERTEX
8
CUT
10
183.4205
20
184.3343
0
VERTEX
8
CUT
10
181.9164
20
182.9505
0
VERTEX
8
CUT
10
182.2922
20
181.3601
0
VERTEX
8
CUT
10
182.2925
20
179.6704
0
VERTEX
8
CUT
10
181.0674
20
176.9824
0
VERTEX
8
CUT
10
180.5942
20
176.7235
0
VERTEX
8
CUT
10
179.7799
20
176.9349
0
VERTEX
8
CUT
10
179.3200
20
177.6691
0
VERTEX
8
CUT
10
178.9487
20
178.8451
0
VERTEX
8
CUT
10
178.5645
20
178.9715
0
VERTEX
8
CUT
10
178.2477
20
178.6739
0
VERTEX
8
CUT
10
177.9268
20
177.8490
0
VERTEX
8
CUT
10
177.5603
20
175.7308
0
VERTEX
8
CUT
10
177.5845
20
173.1157
0
VERTEX
8
CUT
10
177.4715
20
172.6586
0
VERTEX
8
CUT
10
177.1572
20
172.3580
0
VERTEX
8
CUT
10
176.1175
20
172.4163
0
VERTEX
8
CUT
10
172.5054
20
173.8080
0
VERTEX
8
CUT
10
169.9100
20
175.3458
0
VERTEX
8
CUT
10
167.4858
20
177.3421
0
VERTEX
8
CUT
10
167.1250
20
177.2650
0
VERTEX
8
CUT
10
166.6927
20
177.4956
0
VERTEX
8
CUT
10
166.7223
20
176.8741
0
VERTEX
8
CUT
10
167.3734
20
175.4830
0
VERTEX
8
CUT
10
169.6524
20
172.4641
0
VERTEX
8
CUT
10
171.4282
20
170.8067
0
VERTEX
8
CUT
10
171.7840
20
170.6110
0
VERTEX
8
CUT
10
172.0544
20
170.3513
0
VERTEX
8
CUT
10
173.4879
20
169.5140
0
VERTEX
8
CUT
10
173.6152
20
169.1620
0
VERTEX
8
CUT
10
173.3173
20
168.7290
0
VERTEX
8
CUT
10
172.5345
20
168.3816
0
VERTEX
8
CUT
10
167.2091
20
167.5824
0
VERTEX
8
CUT
10
164.1837
20
166.8580
0
VERTEX
8
CUT
10
163.3307
20
166.2292
0
VERTEX
8
CUT
10
162.7285
20
164.8055
0
VERTEX
8
CUT
10
161.0049
20
165.0971
0
VERTEX
8
CUT
10
158.3155
20
164.1231
0
VERTEX
8
CUT
10
157.2262
20
164.3339
0
VERTEX
8
CUT
10
156.9289
20
163.9690
0
VERTEX
8
CUT
10
157.4793
20
163.1186
0
VERTEX
8
CUT
10
158.9110
20
161.5726
0
VERTEX
8
CUT
10
158.8972
20
161.4067
0
VERTEX
8
CUT
10
159.6340
20
160.6522
0
VERTEX
8
CUT
10
159.6486
20
160.3589
0
VERTEX
8
CUT
10
160.0014
20
160.2759
0
VERTEX
8
CUT
10
160.4307
20
159.8363
0
VERTEX
8
CUT
10
160.5091
20
159.8469
0
VERTEX
8
CUT
10
161.5319
20
158.7425
0
VERTEX
8
CUT
10
161.9750
20
158.8922
0
VERTEX
8
CUT
10
161.9404
20
159.5486
0
VERTEX
8
CUT
10
162.3448
20
159.8690
0
VERTEX
8
CUT
10
163.0249
20
159.9226
0
VERTEX
8
CUT
10
163.8810
20
159.8854
0
VERTEX
8
CUT
10
165.5000
20
159.9394
0
VERTEX
8
CUT
10
169.5878
20
159.5610
0
VERTEX
8
CUT
10
174.1550
20
158.6764
0
VERTEX
8
CUT
10
174.4827
20
158.9120
0
VERTEX
8
CUT
10
174.4257
20
159.3115
0
VERTEX
8
CUT
10
169.0647
20
164.1721
0
VERTEX
8
CUT
10
168.7400
20
164.6260
0
VERTEX
8
CUT
10
168.7991
20
165.0057
0
VERTEX
8
CUT
10
169.7097
20
165.4498
0
VERTEX
8
CUT
10
171.4144
20
165.5715
0
VERTEX
8
CUT
10
171.5167
20
165.5668
0
VERTEX
8
CUT
10
171.7916
20
165.5544
0
VERTEX
8
CUT
10
172.4956
20
165.5226
0
VERTEX
8
CUT
10
175.7384
20
165.3759
0
VERTEX
8
CUT
10
177.9986
20
165.0358
0
VERTEX
8
CUT
10
181.1960
20
164.0411
0
VERTEX
8
CUT
10
183.6235
20
162.8533
0
VERTEX
8
CUT
10
184.2853
20
162.4716
0
VERTEX
8
CUT
10
185.2315
20
161.8291
0
VERTEX
8
CUT
10
185.6037
20
161.8286
0
VERTEX
8
CUT
10
185.7980
20
162.2566
0
VERTEX
8
CUT
10
185.3740
20
162.9024
0
VERTEX
8
CUT
10
180.6355
20
168.5021
0
VERTEX
8
CUT
10
180.4792
20
169.1022
0
VERTEX
8
CUT
10
181.1357
20
169.3801
0
VERTEX
8
CUT
10
183.1802
20
169.2890
0
VERTEX
8
CUT
10
187.4353
20
168.1632
0
VERTEX
8
CUT
10
189.8110
20
166.9566
0
VERTEX
8
CUT
10
190.0837
20
166.7724
0
VERTEX
8
CUT
10
190.5134
20
166.4821
0
VERTEX
8
CUT
10
190.6563
20
166.3856
0
VERTEX
8
CUT
10
190.7630
20
166.3135
0
VERTEX
8
CUT
10
192.1885
20
165.3049
0
VERTEX
8
CUT
10
192.4911
20
165.4466
0
VERTEX
8
CUT
10
192.5724
20
165.7707
0
VERTEX
8
CUT
10
192.3143
20
166.5124
0
VERTEX
8
CUT
10
192.2434
20
166.7692
0
VERTEX
8
CUT
10
192.2039
20
166.8297
0
VERTEX
8
CUT
10
191.7919
20
168.0137
0
VERTEX
8
CUT
10
191.6164
20
169.0770
0
VERTEX
8
CUT
10
191.7954
20
169.4495
0
VERTEX
8
CUT
10
192.1457
20
169.5930
0
VERTEX
8
CUT
10
193.1188
20
169.3991
0
VERTEX
8
CUT
10
193.1519
20
169.3864
0
VERTEX
8
CUT
10
193.7739
20
168.9717
0
VERTEX
8
CUT
10
196.6943
20
167.3972
0
VERTEX
8
CUT
10
197.5860
20
166.7583
0
VERTEX
8
CUT
10
199.2045
20
165.2867
0
VERTEX
8
CUT
10
201.2173
20
162.9538
0
VERTEX
8
CUT
10
201.5099
20
162.5849
0
VERTEX
8
CUT
10
201.5348
20
162.5859
0
VERTEX
8
CUT
10
201.6425
20
162.4610
0
VERTEX
8
CUT
10
202.0975
20
162.7629
0
VERTEX
8
CUT
10
202.1165
20
165.2006
0
VERTEX
8
CUT
10
202.4103
20
165.4782
0
VERTEX
8
CUT
10
202.8525
20
165.4056
0
VERTEX
8
CUT
10
203.0985
20
165.2635
0
VERTEX
8
CUT
10
204.1827
20
164.1587
0
VERTEX
8
CUT
10
204.2361
20
164.0885
0
VERTEX
8
CUT
10
204.2605
20
164.0564
0
VERTEX
8
CUT
10
204.3396
20
163.9522
0
VERTEX
8
CUT
10
204.3740
20
163.9069
0
VERTEX
8
CUT
10
205.6721
20
161.9508
0
VERTEX
8
CUT
10
205.8284
20
161.6226
0
VERTEX
8
CUT
10
205.9141
20
161.4426
0
VERTEX
8
CUT
10
206.0873
20
161.0791
0
VERTEX
8
CUT
10
206.9612
20
159.2444
0
VERTEX
8
CUT
10
207.3822
20
157.9414
0
VERTEX
8
CUT
10
207.9091
20
157.8873
0
VERTEX
8
CUT
10
208.4260
20
158.7867
0
VERTEX
8
CUT
10
208.8818
20
159.0877
0
VERTEX
8
CUT
10
209.2648
20
158.9257
0
VERTEX
8
CUT
10
209.7773
20
158.1190
0
VERTEX
8
CUT
10
210.6976
20
155.3861
0
VERTEX
8
CUT
10
210.9706
20
153.6679
0
VERTEX
8
CUT
10
210.9429
20
151.6836
0
VERTEX
8
CUT
10
210.5546
20
149.6361
0
VERTEX
8
CUT
10
209.3268
20
146.6006
0
VERTEX
8
CUT
10
208.1846
20
144.8225
0
VERTEX
8
CUT
10
205.9326
20
142.1803
0
VERTEX
8
CUT
10
203.9524
20
140.6342
0
VERTEX
8
CUT
10
203.1006
20
140.4382
0
VERTEX
8
CUT
10
202.3558
20
140.6354
0
VERTEX
8
CUT
10
197.6895
20
143.3042
0
VERTEX
8
CUT
10
197.3242
20
143.2507
0
VERTEX
8
CUT
10
197.1678
20
142.9163
0
VERTEX
8
CUT
10
201.5692
20
139.0190
0
VERTEX
8
CUT
10
202.0750
20
138.4949
0
VERTEX
8
CUT
10
202.1215
20
138.4468
0
VERTEX
8
CUT
10
202.1432
20
138.4243
0
VERTEX
8
CUT
10
202.3026
20
138.2591
0
VERTEX
8
CUT
10
203.6457
20
136.5855
0
VERTEX
8
CUT
10
204.5373
20
134.3262
0
VERTEX
8
CUT
10
204.9293
20
132.5255
0
VERTEX
8
CUT
10
205.0363
20
130.6953
0
VERTEX
8
CUT
10
204.9912
20
130.6140
0
VERTEX
8
CUT
10
204.9320
20
129.1045
0
VERTEX
8
CUT
10
205.1584
20
128.6093
0
VERTEX
8
CUT
10
205.1596
20
128.5883
0
VERTEX
8
CUT
10
205.5269
20
127.6811
0
VERTEX
8
CUT
10
205.8279
20
127.4810
0
VERTEX
8
CUT
10
206.1380
20
127.5873
0
VERTEX
8
CUT
10
206.2571
20
127.8926
0
VERTEX
8
CUT
10
206.2145
20
128.3153
0
VERTEX
8
CUT
10
206.4118
20
128.9270
0
VERTEX
8
CUT
10
206.3230
20
129.8445
0
VERTEX
8
CUT
10
205.9883
20
130.5597
0
VERTEX
8
CUT
10
205.5806
20
134.6038
0
VERTEX
8
CUT
10
205.6760
20
137.4419
0
VERTEX
8
CUT
10
206.9971
20
140.2148
0
VERTEX
8
CUT
10
211.4475
20
147.1880
0
VERTEX
8
CUT
10
212.3725
20
148.2055
0
VERTEX
8
CUT
10
213.2810
20
148.8137
0
VERTEX
8
CUT
10
214.7043
20
148.9963
0
VERTEX
8
CUT
10
216.2071
20
148.4700
0
VERTEX
8
CUT
10
216.5550
20
148.2399
0
VERTEX
8
CUT
10
216.7582
20
148.1057
0
VERTEX
8
CUT
10
217.0394
20
147.9197
0
VERTEX
8
CUT
10
217.9393
20
147.3248
0
VERTEX
8
CUT
10
218.6488
20
146.6468
0
VERTEX
8
CUT
10
218.8936
20
146.5442
0
VERTEX
8
CUT
10
218.9819
20
146.4685
0
VERTEX
8
CUT
10
219.0138
20
146.4737
0
VERTEX
8
CUT
10
219.0515
20
146.4402
0
VERTEX
8
CUT
10
219.0863
20
146.4635
0
VERTEX
8
CUT
10
219.1929
20
146.4188
0
VERTEX
8
CUT
10
219.3293
20
146.5247
0
VERTEX
8
CUT
10
219.4095
20
146.5377
0
VERTEX
8
CUT
10
220.4102
20
147.3482
0
VERTEX
8
CUT
10
220.6233
20
147.4906
0
VERTEX
8
CUT
10
220.7045
20
147.5865
0
VERTEX
8
CUT
10
220.8922
20
147.7385
0
VERTEX
8
CUT
10
222.5310
20
149.0113
0
VERTEX
8
CUT
10
224.4714
20
150.8708
0
VERTEX
8
CUT
10
225.3489
20
151.6538
0
VERTEX
8
CUT
10
225.9127
20
152.2519
0
VERTEX
8
CUT
10
227.4562
20
153.7311
0
VERTEX
8
CUT
10
229.2630
20
155.8065
0
VERTEX
8
CUT
10
230.2026
20
156.8033
0
VERTEX
8
CUT
10
230.7556
20
157.5210
0
VERTEX
8
CUT
10
232.0313
20
158.9863
0
VERTEX
8
CUT
10
234.0192
20
161.7559
0
VERTEX
8
CUT
10
234.5693
20
162.4698
0
VERTEX
8
CUT
10
234.5884
20
162.4999
0
VERTEX
8
CUT
10
237.0010
20
166.3043
0
VERTEX
8
CUT
10
237.6297
20
167.2371
0
VERTEX
8
CUT
10
237.8301
20
167.6117
0
VERTEX
8
CUT
10
238.3953
20
168.5029
0
VERTEX
8
CUT
10
241.5356
20
174.3975
0
VERTEX
8
CUT
10
242.1705
20
175.2219
0
VERTEX
8
CUT
10
242.6236
20
175.3189
0
VERTEX
8
CUT
10
242.7500
20
174.9915
0
VERTEX
8
CUT
10
242.5781
20
173.7260
0
VERTEX
8
CUT
10
241.4592
20
170.6669
0
VERTEX
8
CUT
10
239.1955
20
166.0894
0
VERTEX
8
CUT
10
238.6504
20
165.1009
0
VERTEX
8
CUT
10
237.0454
20
162.3275
0
VERTEX
8
CUT
10
236.6511
20
161.7426
0
VERTEX
8
CUT
10
236.3667
20
161.3434
0
VERTEX
8
CUT
10
236.3000
20
161.3812
0
VERTEX
8
CUT
10
235.8228
20
160.5799
0
VERTEX
8
CUT
10
235.4366
20
160.0378
0
VERTEX
8
CUT
10
233.8488
20
157.8424
0
VERTEX
8
CUT
10
233.7131
20
157.6800
0
VERTEX
8
CUT
10
233.4930
20
157.4167
0
VERTEX
8
CUT
10
233.0611
20
156.9000
0
VERTEX
8
CUT
10
230.5998
20
153.9554
0
VERTEX
8
CUT
10
230.4924
20
153.8339
0
VERTEX
8
CUT
10
229.0522
20
152.3374
0
VERTEX
8
CUT
10
224.5796
20
148.0413
0
VERTEX
8
CUT
10
220.6006
20
144.7345
0
VERTEX
8
CUT
10
220.5546
20
144.3072
0
VERTEX
8
CUT
10
220.7750
20
143.9791
0
VERTEX
8
CUT
10
220.8481
20
143.7121
0
VERTEX
8
CUT
10
221.0584
20
143.4949
0
VERTEX
8
CUT
10
221.1464
20
143.3216
0
VERTEX
8
CUT
10
221.2542
20
143.2656
0
VERTEX
8
CUT
10
221.3452
20
143.1302
0
VERTEX
8
CUT
10
221.5016
20
143.1371
0
VERTEX
8
CUT
10
221.5124
20
143.1314
0
VERTEX
8
CUT
10
221.5349
20
143.1385
0
VERTEX
8
CUT
10
221.9722
20
143.1576
0
VERTEX
8
CUT
10
223.2307
20
143.7122
0
VERTEX
8
CUT
10
225.7490
20
145.0765
0
VERTEX
8
CUT
10
225.7975
20
145.1000
0
VERTEX
8
CUT
10
225.8707
20
145.1425
0
VERTEX
8
CUT
10
226.3996
20
145.4290
0
VERTEX
8
CUT
10
226.3911
20
145.4439
0
VERTEX
8
CUT
10
227.4684
20
146.0680
0
VERTEX
8
CUT
10
227.8330
20
146.2504
0
VERTEX
8
CUT
10
228.0790
20
146.3954
0
VERTEX
8
CUT
10
228.5944
20
146.6602
0
VERTEX
8
CUT
10
233.7585
20
149.6697
0
VERTEX
8
CUT
10
234.2416
20
149.9918
0
VERTEX
8
CUT
10
234.3421
20
150.0500
0
VERTEX
8
CUT
10
234.5936
20
150.2265
0
VERTEX
8
CUT
10
238.0271
20
152.5157
0
VERTEX
8
CUT
10
239.3905
20
153.5790
0
VERTEX
8
CUT
10
240.0169
20
154.0090
0
VERTEX
8
CUT
10
240.2716
20
154.2105
0
VERTEX
8
CUT
10
242.1694
20
155.5421
0
VERTEX
8
CUT
10
244.9390
20
157.9035
0
VERTEX
8
CUT
10
245.1557
20
158.0750
0
VERTEX
8
CUT
10
245.9277
20
158.6770
0
VERTEX
8
CUT
10
247.3271
20
159.9397
0
VERTEX
8
CUT
10
249.1986
20
161.5353
0
VERTEX
8
CUT
10
250.4441
20
162.8284
0
VERTEX
8
CUT
10
250.6494
20
163.0146
0
VERTEX
8
CUT
10
251.1509
20
163.5448
0
VERTEX
8
CUT
10
252.9563
20
165.3499
0
VERTEX
8
CUT
10
254.1240
20
166.6485
0
VERTEX
8
CUT
10
255.4262
20
168.0004
0
VERTEX
8
CUT
10
256.0139
20
168.7505
0
VERTEX
8
CUT
10
256.1297
20
168.8792
0
VERTEX
8
CUT
10
259.0089
20
172.4635
0
VERTEX
8
CUT
10
259.8635
20
173.6635
0
VERTEX
8
CUT
10
260.7438
20
174.7869
0
VERTEX
8
CUT
10
261.2645
20
175.6306
0
VERTEX
8
CUT
10
261.6358
20
176.1519
0
VERTEX
8
CUT
10
262.4597
20
177.5591
0
VERTEX
8
CUT
10
263.0213
20
178.3922
0
VERTEX
8
CUT
10
263.5786
20
179.3797
0
VERTEX
8
CUT
10
265.1938
20
181.9964
0
VERTEX
8
CUT
10
265.8333
20
183.3745
0
VERTEX
8
CUT
10
266.1361
20
183.9109
0
VERTEX
8
CUT
10
267.5548
20
187.0836
0
VERTEX
8
CUT
10
268.6732
20
189.4932
0
VERTEX
8
CUT
10
269.1721
20
191.0502
0
VERTEX
8
CUT
10
269.8308
20
192.9367
0
VERTEX
8
CUT
10
269.7822
20
192.9550
0
VERTEX
8
CUT
10
270.4342
20
194.9222
0
VERTEX
8
CUT
10
271.8241
20
200.6301
0
VERTEX
8
CUT
10
272.5105
20
204.8796
0
VERTEX
8
CUT
10
272.6185
20
204.9072
0
VERTEX
8
CUT
10
272.7303
20
204.9247
0
VERTEX
8
CUT
10
272.9931
20
204.9533
0
VERTEX
8
CUT
10
273.1049
20
204.9602
0
VERTEX
8
CUT
10
273.2169
20
204.9566
0
VERTEX
8
CUT
10
273.3281
20
204.9426
0
VERTEX
8
CUT
10
273.4375
20
204.9183
0
VERTEX
8
CUT
10
273.5441
20
204.8839
0
VERTEX
8
CUT
10
273.6471
20
204.8397
0
VERTEX
8
CUT
10
273.7455
20
204.7861
0
VERTEX
8
CUT
10
273.7956
20
204.7524
0
VERTEX
8
CUT
10
273.5379
20
199.9868
0
VERTEX
8
CUT
10
273.0293
20
196.6468
0
VERTEX
8
CUT
10
271.8168
20
192.3216
0
VERTEX
8
CUT
10
271.7987
20
192.3261
0
VERTEX
8
CUT
10
271.6383
20
191.7370
0
VERTEX
8
CUT
10
269.4067
20
185.4767
0
VERTEX
8
CUT
10
268.3349
20
183.2882
0
VERTEX
8
CUT
10
265.6917
20
178.0926
0
VERTEX
8
CUT
10
265.6848
20
178.0819
0
VERTEX
8
CUT
10
265.6619
20
178.0458
0
VERTEX
8
CUT
10
265.6606
20
178.0438
0
VERTEX
8
CUT
10
265.6472
20
178.0228
0
VERTEX
8
CUT
10
261.1432
20
171.2269
0
VERTEX
8
CUT
10
255.7418
20
164.7307
0
VERTEX
8
CUT
10
250.3060
20
159.4002
0
VERTEX
8
CUT
10
248.9208
20
158.1390
0
VERTEX
8
CUT
10
243.0429
20
153.3942
0
VERTEX
8
CUT
10
242.5923
20
153.0658
0
VERTEX
8
CUT
10
242.0364
20
152.6606
0
VERTEX
8
CUT
10
241.8798
20
152.5465
0
VERTEX
8
CUT
10
241.7738
20
152.4692
0
VERTEX
8
CUT
10
241.6856
20
152.4050
0
VERTEX
8
CUT
10
241.5186
20
152.2833
0
VERTEX
8
CUT
10
235.6866
20
148.3732
0
VERTEX
8
CUT
10
234.5272
20
147.6173
0
VERTEX
8
CUT
10
234.2996
20
147.4756
0
VERTEX
8
CUT
10
227.3983
20
143.6096
0
VERTEX
8
CUT
10
227.3786
20
143.6397
0
VERTEX
8
CUT
10
227.3638
20
143.6679
0
VERTEX
8
CUT
10
223.1827
20
141.3548
0
VERTEX
8
CUT
10
222.8668
20
141.0920
0
VERTEX
8
CUT
10
222.7562
20
141.0314
0
VERTEX
8
CUT
10
222.7293
20
140.9777
0
VERTEX
8
CUT
10
222.4808
20
140.7710
0
VERTEX
8
CUT
10
222.5200
20
140.5678
0
VERTEX
8
CUT
10
222.5116
20
140.5586
0
VERTEX
8
CUT
10
222.6062
20
139.9071
0
VERTEX
8
CUT
10
222.6617
20
139.8336
0
VERTEX
8
CUT
10
222.6853
20
139.7115
0
VERTEX
8
CUT
10
222.7662
20
139.6289
0
VERTEX
8
CUT
10
222.7875
20
139.6628
0
VERTEX
8
CUT
10
222.7891
20
139.6648
0
VERTEX
8
CUT
10
222.8386
20
139.5992
0
VERTEX
8
CUT
10
222.8845
20
139.4600
0
VERTEX
8
CUT
10
223.0018
20
139.3642
0
VERTEX
8
CUT
10
223.0504
20
139.3185
0
VERTEX
8
CUT
10
223.2593
20
139.0417
0
VERTEX
8
CUT
10
223.3929
20
138.9967
0
VERTEX
8
CUT
10
223.3988
20
138.9911
0
VERTEX
8
CUT
10
223.4053
20
138.9925
0
VERTEX
8
CUT
10
223.6000
20
138.9268
0
VERTEX
8
CUT
10
226.6297
20
139.7727
0
VERTEX
8
CUT
10
227.5414
20
139.9896
0
VERTEX
8
CUT
10
229.6809
20
140.6245
0
VERTEX
8
CUT
10
235.1560
20
142.1530
0
VERTEX
8
CUT
10
242.8197
20
144.8353
0
VERTEX
8
CUT
10
246.5747
20
146.3919
0
VERTEX
8
CUT
10
246.6246
20
146.4107
0
VERTEX
8
CUT
10
246.6692
20
146.4311
0
VERTEX
8
CUT
10
250.0869
20
147.8478
0
VERTEX
8
CUT
10
253.0358
20
149.3092
0
VERTEX
8
CUT
10
253.3362
20
149.4428
0
VERTEX
8
CUT
10
253.7195
20
149.6479
0
VERTEX
8
CUT
10
254.3705
20
149.9450
0
VERTEX
8
CUT
10
254.8704
20
150.2183
0
VERTEX
8
CUT
10
256.9414
20
151.2446
0
VERTEX
8
CUT
10
259.7716
20
152.8875
0
VERTEX
8
CUT
10
260.8401
20
153.4595
0
VERTEX
8
CUT
10
261.0961
20
153.6224
0
VERTEX
8
CUT
10
261.6065
20
153.9015
0
VERTEX
8
CUT
10
262.2697
20
154.3376
0
VERTEX
8
CUT
10
263.3517
20
154.9657
0
VERTEX
8
CUT
10
265.6803
20
156.5406
0
VERTEX
8
CUT
10
267.7507
20
157.8585
0
VERTEX
8
CUT
10
268.7045
20
158.5858
0
VERTEX
8
CUT
10
269.3764
20
159.0401
0
VERTEX
8
CUT
10
271.3214
20
160.5812
0
VERTEX
8
CUT
10
274.1006
20
162.7003
0
VERTEX
8
CUT
10
274.8177
20
163.3513
0
VERTEX
8
CUT
10
274.9286
20
163.4392
0
VERTEX
8
CUT
10
275.6627
20
164.1183
0
VERTEX
8
CUT
10
276.0180
20
164.4409
0
VERTEX
8
CUT
10
276.1556
20
164.5658
0
VERTEX
8
CUT
10
276.1829
20
164.5905
0
VERTEX
8
CUT
10
276.2295
20
164.6328
0
VERTEX
8
CUT
10
278.5067
20
166.6998
0
VERTEX
8
CUT
10
278.4494
20
166.7659
0
VERTEX
8
CUT
10
278.4417
20
166.7768
0
VERTEX
8
CUT
10
280.4216
20
168.6059
0
VERTEX
8
CUT
10
286.6637
20
175.4376
0
VERTEX
8
CUT
10
287.6859
20
176.1990
0
VERTEX
8
CUT
10
287.7579
20
176.1666
0
VERTEX
8
CUT
10
287.8625
20
176.1063
0
VERTEX
8
CUT
10
287.9604
20
176.0358
0
VERTEX
8
CUT
10
288.0508
20
175.9558
0
VERTEX
8
CUT
10
288.3339
20
175.6788
0
VERTEX
8
CUT
10
288.4156
20
175.5903
0
VERTEX
8
CUT
10
288.4881
20
175.4941
0
VERTEX
8
CUT
10
288.5505
20
175.3911
0
VERTEX
8
CUT
10
288.6024
20
175.2823
0
VERTEX
8
CUT
10
288.6430
20
175.1689
0
VERTEX
8
CUT
10
288.6721
20
175.0520
0
VERTEX
8
CUT
10
288.6893
20
174.9327
0
VERTEX
8
CUT
10
288.7305
20
174.4907
0
VERTEX
8
CUT
10
288.7357
20
174.3739
0
VERTEX
8
CUT
10
288.7295
20
174.2571
0
VERTEX
8
CUT
10
288.7119
20
174.1415
0
VERTEX
8
CUT
10
288.6893
20
174.0523
0
VERTEX
8
CUT
10
288.6017
20
174.4553
0
VERTEX
8
CUT
10
288.2949
20
174.6576
0
VERTEX
8
CUT
10
287.9819
20
174.5430
0
VERTEX
8
CUT
10
286.3340
20
172.2673
0
VERTEX
8
CUT
10
283.4889
20
168.9187
0
VERTEX
8
CUT
10
280.2349
20
165.3688
0
VERTEX
8
CUT
10
280.0246
20
165.1666
0
VERTEX
8
CUT
10
280.0244
20
165.1668
0
VERTEX
8
CUT
10
279.9592
20
165.2250
0
VERTEX
8
CUT
10
279.7576
20
165.0096
0
VERTEX
8
CUT
10
277.7112
20
163.0785
0
VERTEX
8
CUT
10
277.6497
20
163.1324
0
VERTEX
8
CUT
10
277.6295
20
163.1539
0
VERTEX
8
CUT
10
275.7145
20
161.2635
0
VERTEX
8
CUT
10
270.5311
20
157.0791
0
VERTEX
8
CUT
10
270.5037
20
157.0592
0
VERTEX
8
CUT
10
270.4438
20
157.0156
0
VERTEX
8
CUT
10
270.1890
20
156.8303
0
VERTEX
8
CUT
10
269.7195
20
156.4889
0
VERTEX
8
CUT
10
262.8497
20
151.9554
0
VERTEX
8
CUT
10
254.7685
20
147.5584
0
VERTEX
8
CUT
10
245.9943
20
143.7055
0
VERTEX
8
CUT
10
238.6403
20
141.0719
0
VERTEX
8
CUT
10
236.6022
20
140.4333
0
VERTEX
8
CUT
10
236.1343
20
140.2867
0
VERTEX
8
CUT
10
236.0951
20
140.2744
0
VERTEX
8
CUT
10
236.0001
20
140.2446
0
VERTEX
8
CUT
10
224.2491
20
136.8845
0
VERTEX
8
CUT
10
224.0736
20
136.7069
0
VERTEX
8
CUT
10
224.0688
20
136.7050
0
VERTEX
8
CUT
10
223.7122
20
136.3677
0
VERTEX
8
CUT
10
223.7106
20
136.3393
0
VERTEX
8
CUT
10
223.6938
20
136.3224
0
VERTEX
8
CUT
10
223.6962
20
136.0961
0
VERTEX
8
CUT
10
223.6890
20
135.9733
0
VERTEX
8
CUT
10
223.6131
20
136.0141
0
VERTEX
8
CUT
10
223.5306
20
136.0696
0
VERTEX
8
CUT
10
223.5165
20
135.3758
0
VERTEX
8
CUT
10
223.6403
20
135.1484
0
VERTEX
8
CUT
10
223.6399
20
135.1405
0
VERTEX
8
CUT
10
223.6885
20
135.0587
0
VERTEX
8
CUT
10
223.6976
20
134.8240
0
VERTEX
8
CUT
10
223.7437
20
134.8055
0
VERTEX
8
CUT
10
223.9482
20
134.5454
0
VERTEX
8
CUT
10
223.9737
20
134.5362
0
VERTEX
8
CUT
10
224.0097
20
134.4702
0
VERTEX
8
CUT
10
224.3301
20
134.4073
0
VERTEX
8
CUT
10
224.4225
20
134.3739
0
VERTEX
8
CUT
10
224.5226
20
134.3696
0
VERTEX
8
CUT
10
225.0855
20
134.2592
0
VERTEX
8
CUT
10
226.1477
20
134.2990
0
VERTEX
8
CUT
10
226.4335
20
134.2865
0
VERTEX
8
CUT
10
227.1744
20
134.3374
0
VERTEX
8
CUT
10
232.1092
20
134.5223
0
VERTEX
8
CUT
10
239.7076
20
135.2317
0
VERTEX
8
CUT
10
246.9492
20
136.1773
0
VERTEX
8
CUT
10
253.8829
20
137.3922
0
VERTEX
8
CUT
10
260.4738
20
138.8706
0
VERTEX
8
CUT
10
266.7475
20
140.6378
0
VERTEX
8
CUT
10
271.7482
20
142.3288
0
VERTEX
8
CUT
10
271.7370
20
142.3616
0
VERTEX
8
CUT
10
271.9973
20
142.4471
0
VERTEX
8
CUT
10
273.4219
20
143.0115
0
VERTEX
8
CUT
10
274.9882
20
143.5614
0
VERTEX
8
CUT
10
277.1284
20
144.4798
0
VERTEX
8
CUT
10
277.9635
20
144.8106
0
VERTEX
8
CUT
10
278.2995
20
144.9645
0
VERTEX
8
CUT
10
278.2927
20
144.9794
0
VERTEX
8
CUT
10
281.2504
20
146.2485
0
VERTEX
8
CUT
10
288.2927
20
149.7826
0
VERTEX
8
CUT
10
289.3517
20
150.1399
0
VERTEX
8
CUT
10
289.7363
20
150.1761
0
VERTEX
8
CUT
10
290.0786
20
149.9310
0
VERTEX
8
CUT
10
289.9095
20
149.0875
0
VERTEX
8
CUT
10
288.0417
20
147.7760
0
VERTEX
8
CUT
10
288.0283
20
147.7674
0
VERTEX
8
CUT
10
287.9877
20
147.7414
0
VERTEX
8
CUT
10
287.8080
20
147.6262
0
VERTEX
8
CUT
10
287.1190
20
147.1845
0
VERTEX
8
CUT
10
282.3457
20
144.5509
0
VERTEX
8
CUT
10
279.1440
20
143.0828
0
VERTEX
8
CUT
10
279.1337
20
143.1013
0
VERTEX
8
CUT
10
279.1216
20
143.1289
0
VERTEX
8
CUT
10
277.2671
20
142.2628
0
VERTEX
8
CUT
10
274.5157
20
141.1427
0
VERTEX
8
CUT
10
272.5097
20
140.3514
0
VERTEX
8
CUT
10
272.4834
20
140.4117
0
VERTEX
8
CUT
10
272.0640
20
140.2409
0
VERTEX
8
CUT
10
264.2067
20
137.6915
0
VERTEX
8
CUT
10
256.6086
20
135.7585
0
VERTEX
8
CUT
10
255.2915
20
135.4930
0
VERTEX
8
CUT
10
254.3170
20
135.3121
0
VERTEX
8
CUT
10
245.4218
20
133.8007
0
VERTEX
8
CUT
10
244.6385
20
133.7125
0
VERTEX
8
CUT
10
233.7483
20
132.5953
0
VERTEX
8
CUT
10
223.8814
20
132.1296
0
VERTEX
8
CUT
10
223.6105
20
131.9869
0
VERTEX
8
CUT
10
223.3649
20
131.4718
0
VERTEX
8
CUT
10
223.2927
20
130.7767
0
VERTEX
8
CUT
10
223.1678
20
130.3878
0
VERTEX
8
CUT
10
223.2263
20
130.1380
0
VERTEX
8
CUT
10
223.2195
20
130.0723
0
VERTEX
8
CUT
10
223.2615
20
129.9878
0
VERTEX
8
CUT
10
223.3169
20
129.7517
0
VERTEX
8
CUT
10
223.3923
20
129.7249
0
VERTEX
8
CUT
10
223.4475
20
129.6137
0
VERTEX
8
CUT
10
224.9796
20
129.0363
0
VERTEX
8
CUT
10
226.2042
20
128.7218
0
VERTEX
8
CUT
10
226.2985
20
128.6917
0
VERTEX
8
CUT
10
227.0616
20
128.4205
0
VERTEX
8
CUT
10
231.1368
20
127.4552
0
VERTEX
8
CUT
10
234.5046
20
126.5904
0
VERTEX
8
CUT
10
234.5111
20
126.6187
0
VERTEX
8
CUT
10
234.5182
20
126.6398
0
VERTEX
8
CUT
10
237.0059
20
126.0232
0
VERTEX
8
CUT
10
237.9928
20
125.8313
0
VERTEX
8
CUT
10
238.3029
20
125.7579
0
VERTEX
8
CUT
10
239.1773
20
125.6011
0
VERTEX
8
CUT
10
241.2611
20
125.1960
0
VERTEX
8
CUT
10
242.0453
20
125.0868
0
VERTEX
8
CUT
10
243.7422
20
124.7825
0
VERTEX
8
CUT
10
250.5592
20
123.8972
0
VERTEX
8
CUT
10
253.9751
20
123.7097
0
VERTEX
8
CUT
10
256.9661
20
123.4840
0
VERTEX
8
CUT
10
259.5756
20
123.4023
0
VERTEX
8
CUT
10
260.2489
20
123.3654
0
VERTEX
8
CUT
10
260.6594
20
123.3684
0
VERTEX
8
CUT
10
262.6336
20
123.3065
0
VERTEX
8
CUT
10
265.7139
20
123.4055
0
VERTEX
8
CUT
10
266.2570
20
123.4095
0
VERTEX
8
CUT
10
266.2573
20
123.4229
0
VERTEX
8
CUT
10
268.1291
20
123.4830
0
VERTEX
8
CUT
10
270.4834
20
123.6794
0
VERTEX
8
CUT
10
271.5725
20
123.7554
0
VERTEX
8
CUT
10
271.5718
20
123.7702
0
VERTEX
8
CUT
10
273.4675
20
123.9284
0
VERTEX
8
CUT
10
278.5715
20
124.7256
0
VERTEX
8
CUT
10
283.9386
20
125.8799
0
VERTEX
8
CUT
10
284.3029
20
125.7983
0
VERTEX
8
CUT
10
284.3263
20
125.7635
0
VERTEX
8
CUT
10
284.3842
20
125.6550
0
VERTEX
8
CUT
10
284.4308
20
125.5411
0
VERTEX
8
CUT
10
284.4654
20
125.4230
0
VERTEX
8
CUT
10
284.5107
20
125.2326
0
VERTEX
8
CUT
10
284.2372
20
124.8589
0
VERTEX
8
CUT
10
283.5038
20
124.4566
0
VERTEX
8
CUT
10
280.8884
20
123.5201
0
VERTEX
8
CUT
10
277.1855
20
122.5643
0
VERTEX
8
CUT
10
273.0204
20
121.7667
0
VERTEX
8
CUT
10
271.8131
20
121.6663
0
VERTEX
8
CUT
10
271.8082
20
121.6930
0
VERTEX
8
CUT
10
271.6856
20
121.6734
0
VERTEX
8
CUT
10
269.3874
20
121.4645
0
VERTEX
8
CUT
10
268.3462
20
121.3779
0
VERTEX
8
CUT
10
266.3334
20
121.3329
0
VERTEX
8
CUT
10
266.3309
20
121.3611
0
VERTEX
8
CUT
10
265.6665
20
121.3180
0
VERTEX
8
CUT
10
263.0326
20
121.2591
0
VERTEX
8
CUT
10
258.2948
20
121.2591
0
VERTEX
8
CUT
10
258.0224
20
121.2614
0
VERTEX
8
CUT
10
252.9436
20
121.4806
0
VERTEX
8
CUT
10
252.4206
20
121.5268
0
VERTEX
8
CUT
10
251.9960
20
121.5643
0
VERTEX
8
CUT
10
251.4477
20
121.6127
0
VERTEX
8
CUT
10
250.3707
20
121.7079
0
VERTEX
8
CUT
10
247.2539
20
122.0828
0
VERTEX
8
CUT
10
245.9614
20
122.2684
0
VERTEX
8
CUT
10
238.4796
20
123.6308
0
VERTEX
8
CUT
10
234.8562
20
124.3892
0
VERTEX
8
CUT
10
234.0853
20
124.5506
0
VERTEX
8
CUT
10
234.0368
20
124.5607
0
VERTEX
8
CUT
10
234.0383
20
124.5724
0
VERTEX
8
CUT
10
234.0448
20
124.6007
0
VERTEX
8
CUT
10
231.9524
20
125.0310
0
VERTEX
8
CUT
10
231.7925
20
125.0675
0
VERTEX
8
CUT
10
223.2980
20
127.3307
0
VERTEX
8
CUT
10
222.7634
20
127.4238
0
VERTEX
8
CUT
10
222.4933
20
127.2768
0
VERTEX
8
CUT
10
222.1408
20
126.5844
0
VERTEX
8
CUT
10
222.2175
20
126.5610
0
VERTEX
8
CUT
10
222.3261
20
126.5158
0
VERTEX
8
CUT
10
222.4297
20
126.4602
0
VERTEX
8
CUT
10
222.4519
20
126.4453
0
VERTEX
8
CUT
10
222.7203
20
126.3887
0
VERTEX
8
CUT
10
223.0183
20
124.9363
0
VERTEX
8
CUT
10
223.1067
20
121.8109
0
VERTEX
8
CUT
10
222.9584
20
120.0720
0
VERTEX
8
CUT
10
222.9407
20
120.0703
0
VERTEX
8
CUT
10
222.8250
20
120.0709
0
VERTEX
8
CUT
10
222.8143
20
120.0720
0
VERTEX
8
CUT
10
222.7587
20
119.7449
0
VERTEX
8
CUT
10
221.9086
20
118.0105
0
VERTEX
8
CUT
10
221.7775
20
116.2951
0
VERTEX
8
CUT
10
222.2329
20
116.1082
0
VERTEX
8
CUT
10
224.2950
20
117.0136
0
VERTEX
8
CUT
10
224.5897
20
117.6557
0
VERTEX
8
CUT
10
224.7979
20
119.3966
0
VERTEX
8
CUT
10
225.2530
20
120.0373
0
VERTEX
8
CUT
10
225.9006
20
120.0748
0
VERTEX
8
CUT
10
226.2743
20
119.8634
0
VERTEX
8
CUT
10
226.9210
20
119.2747
0
VERTEX
8
CUT
10
227.3243
20
118.5521
0
VERTEX
8
CUT
10
227.3304
20
118.4789
0
VERTEX
8
CUT
10
227.3319
20
118.4601
0
VERTEX
8
CUT
10
227.3322
20
118.4566
0
VERTEX
8
CUT
10
227.3345
20
118.4294
0
VERTEX
8
CUT
10
227.2760
20
117.1645
0
VERTEX
8
CUT
10
226.8231
20
115.5056
0
VERTEX
8
CUT
10
226.0232
20
113.5199
0
VERTEX
8
CUT
10
224.9903
20
111.7254
0
VERTEX
8
CUT
10
223.2257
20
109.3956
0
VERTEX
8
CUT
10
222.2695
20
108.5946
0
VERTEX
8
CUT
10
221.7715
20
108.4463
0
VERTEX
8
CUT
10
220.9563
20
107.0386
0
VERTEX
8
CUT
10
220.1839
20
106.6090
0
VERTEX
8
CUT
10
219.2072
20
107.1927
0
VERTEX
8
CUT
10
218.7529
20
108.1481
0
VERTEX
8
CUT
10
219.2170
20
109.5310
0
VERTEX
8
CUT
10
219.6701
20
110.0383
0
VERTEX
8
CUT
10
220.4836
20
110.4603
0
VERTEX
8
CUT
10
220.4075
20
111.2218
0
VERTEX
8
CUT
10
219.4422
20
111.4918
0
VERTEX
8
CUT
10
217.1596
20
111.1093
0
VERTEX
8
CUT
10
216.6385
20
111.3322
0
VERTEX
8
CUT
10
216.4824
20
111.6390
0
VERTEX
8
CUT
10
216.7722
20
112.5862
0
VERTEX
8
CUT
10
218.7154
20
113.2043
0
VERTEX
8
CUT
10
219.7161
20
114.2570
0
VERTEX
8
CUT
10
219.7505
20
115.2365
0
VERTEX
8
CUT
10
218.6199
20
117.2444
0
VERTEX
8
CUT
10
218.4866
20
117.9093
0
VERTEX
8
CUT
10
218.7608
20
118.5410
0
VERTEX
8
CUT
10
220.5853
20
120.6174
0
VERTEX
8
CUT
10
220.5725
20
120.6236
0
VERTEX
8
CUT
10
220.4739
20
120.6842
0
VERTEX
8
CUT
10
220.3815
20
120.7540
0
VERTEX
8
CUT
10
220.2964
20
120.8324
0
VERTEX
8
CUT
10
220.2191
20
120.9186
0
VERTEX
8
CUT
10
220.1506
20
121.0118
0
VERTEX
8
CUT
10
220.0913
20
121.1112
0
VERTEX
8
CUT
10
220.0419
20
121.2159
0
VERTEX
8
CUT
10
220.0028
20
121.3248
0
VERTEX
8
CUT
10
219.9744
20
121.4370
0
VERTEX
8
CUT
10
219.9569
20
121.5514
0
VERTEX
8
CUT
10
219.9505
20
121.6670
0
VERTEX
8
CUT
10
219.9553
20
121.7826
0
VERTEX
8
CUT
10
219.9712
20
121.8973
0
VERTEX
8
CUT
10
219.9981
20
122.0099
0
VERTEX
8
CUT
10
220.0357
20
122.1193
0
VERTEX
8
CUT
10
220.0837
20
122.2247
0
VERTEX
8
CUT
10
220.1448
20
122.3433
0
VERTEX
8
CUT
10
220.3532
20
123.1320
0
VERTEX
8
CUT
10
220.3476
20
123.3258
0
VERTEX
8
CUT
10
220.3465
20
123.3268
0
VERTEX
8
CUT
10
217.4494
20
118.7195
0
VERTEX
8
CUT
10
211.9523
20
111.0139
0
VERTEX
8
CUT
10
211.9546
20
111.0090
0
VERTEX
8
CUT
10
211.8281
20
110.9616
0
VERTEX
8
CUT
10
212.0830
20
110.7322
0
VERTEX
8
CUT
10
212.1436
20
110.6016
0
VERTEX
8
CUT
10
212.2647
20
110.5686
0
VERTEX
8
CUT
10
212.4200
20
110.4288
0
VERTEX
8
CUT
10
214.3333
20
109.8107
0
VERTEX
8
CUT
10
214.5101
20
109.7152
0
VERTEX
8
CUT
10
214.7156
20
109.6013
0
VERTEX
8
CUT
10
214.7307
20
109.5930
0
VERTEX
8
CUT
10
214.7584
20
109.5776
0
VERTEX
8
CUT
10
215.5410
20
109.1440
0
VERTEX
8
CUT
10
216.6464
20
108.1860
0
VERTEX
8
CUT
10
217.5142
20
107.0423
0
VERTEX
8
CUT
10
218.0881
20
105.8655
0
VERTEX
8
CUT
10
218.3967
20
104.4347
0
VERTEX
8
CUT
10
218.6105
20
100.6526
0
VERTEX
8
CUT
10
218.4686
20
100.4669
0
VERTEX
8
CUT
10
218.3391
20
100.2974
0
VERTEX
8
CUT
10
218.3289
20
100.2840
0
VERTEX
8
CUT
10
218.1110
20
99.9988
0
VERTEX
8
CUT
10
216.6572
20
98.5681
0
VERTEX
8
CUT
10
215.0249
20
97.4023
0
VERTEX
8
CUT
10
215.0019
20
97.3901
0
VERTEX
8
CUT
10
214.9771
20
97.3771
0
VERTEX
8
CUT
10
214.9668
20
97.3716
0
VERTEX
8
CUT
10
214.9572
20
97.3666
0
VERTEX
8
CUT
10
214.0879
20
97.0104
0
VERTEX
8
CUT
10
214.0762
20
97.0078
0
VERTEX
8
CUT
10
214.0388
20
96.9997
0
VERTEX
8
CUT
10
213.9733
20
96.9853
0
VERTEX
8
CUT
10
213.8958
20
96.9684
0
VERTEX
8
CUT
10
213.2066
20
96.9863
0
VERTEX
8
CUT
10
212.9502
20
97.6224
0
VERTEX
8
CUT
10
212.9930
20
100.5157
0
VERTEX
8
CUT
10
213.0327
20
100.6292
0
VERTEX
8
CUT
10
213.0060
20
101.0797
0
VERTEX
8
CUT
10
213.0068
20
101.0866
0
VERTEX
8
CUT
10
213.0045
20
101.1048
0
VERTEX
8
CUT
10
213.0023
20
101.1427
0
VERTEX
8
CUT
10
213.0135
20
101.9044
0
VERTEX
8
CUT
10
212.3934
20
103.6805
0
VERTEX
8
CUT
10
212.0148
20
104.2121
0
VERTEX
8
CUT
10
211.8141
20
104.5249
0
VERTEX
8
CUT
10
211.7499
20
104.5840
0
VERTEX
8
CUT
10
211.5958
20
104.8004
0
VERTEX
8
CUT
10
210.3483
20
105.8831
0
VERTEX
8
CUT
10
209.3549
20
106.3255
0
VERTEX
8
CUT
10
208.0418
20
106.5451
0
VERTEX
8
CUT
10
207.7693
20
106.2972
0
VERTEX
8
CUT
10
207.8039
20
105.9648
0
VERTEX
8
CUT
10
208.9708
20
105.2494
0
VERTEX
8
CUT
10
209.0208
20
105.1937
0
VERTEX
8
CUT
10
209.1579
20
105.0412
0
VERTEX
8
CUT
10
209.2488
20
104.9400
0
VERTEX
8
CUT
10
209.3416
20
104.8367
0
VERTEX
8
CUT
10
209.6618
20
104.4589
0
VERTEX
8
CUT
10
209.6849
20
104.4207
0
VERTEX
8
CUT
10
209.6941
20
104.4053
0
VERTEX
8
CUT
10
209.6967
20
104.4011
0
VERTEX
8
CUT
10
209.6976
20
104.3996
0
VERTEX
8
CUT
10
210.6380
20
102.0250
0
VERTEX
8
CUT
10
210.8068
20
100.9685
0
VERTEX
8
CUT
10
210.7944
20
100.3505
0
VERTEX
8
CUT
10
210.5187
20
99.5627
0
VERTEX
8
CUT
10
209.5861
20
98.1536
0
VERTEX
8
CUT
10
208.9703
20
97.5778
0
VERTEX
8
CUT
10
207.6820
20
96.9383
0
VERTEX
8
CUT
10
205.9513
20
97.0095
0
VERTEX
8
CUT
10
205.5305
20
101.2115
0
VERTEX
8
CUT
10
205.3191
20
101.7661
0
VERTEX
8
CUT
10
204.9560
20
101.9206
0
VERTEX
8
CUT
10
204.4398
20
101.4643
0
VERTEX
8
CUT
10
202.7876
20
97.9468
0
VERTEX
8
CUT
10
202.0736
20
97.0063
0
VERTEX
8
CUT
10
201.1867
20
96.9150
0
VERTEX
8
CUT
10
199.7264
20
97.9805
0
VERTEX
8
CUT
10
199.2998
20
98.1044
0
VERTEX
8
CUT
10
199.0190
20
97.8786
0
VERTEX
8
CUT
10
198.4755
20
96.2843
0
VERTEX
8
CUT
10
198.3121
20
94.2335
0
VERTEX
8
CUT
10
198.1751
20
94.0627
0
VERTEX
8
CUT
10
198.2527
20
93.4881
0
VERTEX
8
CUT
10
198.2171
20
93.0418
0
VERTEX
8
CUT
10
198.2645
20
92.7321
0
VERTEX
8
CUT
10
198.2428
20
92.7087
0
VERTEX
8
CUT
10
198.3014
20
92.4910
0
VERTEX
8
CUT
10
198.3069
20
92.4551
0
VERTEX
8
CUT
10
198.4135
20
91.6434
0
VERTEX
8
CUT
10
198.4432
20
91.5635
0
VERTEX
8
CUT
10
198.4787
20
91.3317
0
VERTEX
8
CUT
10
198.5836
20
91.0390
0
VERTEX
8
CUT
10
198.5965
20
90.9434
0
VERTEX
8
CUT
10
198.9819
20
89.8895
0
VERTEX
8
CUT
10
199.0133
20
89.8395
0
VERTEX
8
CUT
10
199.0275
20
89.7999
0
VERTEX
8
CUT
10
199.8067
20
88.4448
0
VERTEX
8
CUT
10
200.8138
20
87.3220
0
VERTEX
8
CUT
10
201.9941
20
86.4299
0
VERTEX
8
CUT
10
203.3145
20
85.7990
0
VERTEX
8
CUT
10
204.7899
20
85.4811
0
VERTEX
8
CUT
10
206.2777
20
85.4822
0
VERTEX
8
CUT
10
206.6510
20
85.5572
0
VERTEX
8
CUT
10
207.0926
20
85.5082
0
VERTEX
8
CUT
10
209.0756
20
86.3369
0
VERTEX
8
CUT
10
212.5384
20
88.7343
0
VERTEX
8
CUT
10
214.9366
20
89.3738
0
VERTEX
8
CUT
10
215.8307
20
89.3585
0
VERTEX
8
CUT
10
216.9662
20
89.1163
0
VERTEX
8
CUT
10
218.0702
20
88.6720
0
VERTEX
8
CUT
10
218.4302
20
88.2044
0
VERTEX
8
CUT
10
217.7005
20
87.2074
0
VERTEX
8
CUT
10
216.0359
20
85.8417
0
VERTEX
8
CUT
10
214.1466
20
84.4647
0
VERTEX
8
CUT
10
211.6748
20
83.1021
0
VERTEX
8
CUT
10
211.7036
20
82.6466
0
VERTEX
8
CUT
10
213.4202
20
81.0402
0
VERTEX
8
CUT
10
213.6029
20
80.0563
0
VERTEX
8
CUT
10
213.2662
20
79.5778
0
VERTEX
8
CUT
10
212.7096
20
79.2779
0
VERTEX
8
CUT
10
209.6899
20
78.5534
0
VERTEX
8
CUT
10
209.6571
20
78.1607
0
VERTEX
8
CUT
10
210.2265
20
77.5146
0
VERTEX
8
CUT
10
210.5283
20
76.7275
0
VERTEX
8
CUT
10
210.4509
20
75.9808
0
VERTEX
8
CUT
10
210.0518
20
75.4205
0
VERTEX
8
CUT
10
209.2322
20
75.2711
0
VERTEX
8
CUT
10
208.3723
20
75.7039
0
VERTEX
8
CUT
10
207.9284
20
76.9493
0
VERTEX
8
CUT
10
207.6018
20
79.0065
0
VERTEX
8
CUT
10
206.8291
20
79.6023
0
VERTEX
8
CUT
10
206.3813
20
79.4759
0
VERTEX
8
CUT
10
206.6498
20
77.0390
0
VERTEX
8
CUT
10
206.5565
20
76.1948
0
VERTEX
8
CUT
10
205.8044
20
73.7913
0
VERTEX
8
CUT
10
204.9707
20
72.3598
0
VERTEX
8
CUT
10
204.6823
20
72.3914
0
VERTEX
8
CUT
10
204.3723
20
72.7263
0
VERTEX
8
CUT
10
202.6711
20
76.3011
0
VERTEX
8
CUT
10
201.1863
20
78.7984
0
VERTEX
8
CUT
10
200.8476
20
79.5888
0
VERTEX
8
CUT
10
200.0485
20
80.5951
0
VERTEX
8
CUT
10
200.0485
20
78.9081
0
VERTEX
8
CUT
10
200.1714
20
78.4780
0
VERTEX
8
CUT
10
200.4640
20
75.8277
0
VERTEX
8
CUT
10
200.1265
20
72.7360
0
VERTEX
8
CUT
10
200.3615
20
72.4936
0
VERTEX
8
CUT
10
201.1124
20
72.3928
0
VERTEX
8
CUT
10
201.5186
20
71.8718
0
VERTEX
8
CUT
10
202.1790
20
69.6007
0
VERTEX
8
CUT
10
202.9768
20
67.7480
0
VERTEX
8
CUT
10
205.8515
20
64.0757
0
VERTEX
8
CUT
10
205.7512
20
63.6864
0
VERTEX
8
CUT
10
205.0097
20
63.3967
0
VERTEX
8
CUT
10
202.1585
20
63.6100
0
VERTEX
8
CUT
10
199.8440
20
64.4944
0
VERTEX
8
CUT
10
199.4835
20
64.3267
0
VERTEX
8
CUT
10
199.4538
20
63.8762
0
VERTEX
8
CUT
10
199.7792
20
63.1462
0
VERTEX
8
CUT
10
200.4929
20
62.2020
0
VERTEX
8
CUT
10
200.5559
20
62.0978
0
VERTEX
8
CUT
10
200.6283
20
62.0228
0
VERTEX
8
CUT
10
200.9025
20
61.6599
0
VERTEX
8
CUT
10
201.3782
20
61.2455
0
VERTEX
8
CUT
10
201.5119
20
61.1069
0
VERTEX
8
CUT
10
201.7490
20
60.9224
0
VERTEX
8
CUT
10
202.5308
20
60.2412
0
VERTEX
8
CUT
10
205.4689
20
58.5669
0
VERTEX
8
CUT
10
205.9722
20
58.0272
0
VERTEX
8
CUT
10
205.9890
20
57.7146
0
VERTEX
8
CUT
10
205.9878
20
57.7064
0
VERTEX
8
CUT
10
205.9872
20
57.7023
0
VERTEX
8
CUT
10
205.9860
20
57.6942
0
VERTEX
8
CUT
10
205.9842
20
57.6816
0
VERTEX
8
CUT
10
205.8346
20
57.5896
0
VERTEX
8
CUT
10
205.5383
20
57.4879
0
VERTEX
8
CUT
10
205.3691
20
57.4299
0
VERTEX
8
CUT
10
204.7435
20
57.2153
0
VERTEX
8
CUT
10
204.3647
20
57.0854
0
VERTEX
8
CUT
10
201.1822
20
56.3837
0
VERTEX
8
CUT
10
195.2205
20
59.6144
0
VERTEX
8
CUT
10
194.7944
20
59.5423
0
VERTEX
8
CUT
10
194.7021
20
59.0964
0
VERTEX
8
CUT
10
195.2584
20
58.0614
0
VERTEX
8
CUT
10
195.8788
20
57.3896
0
VERTEX
8
CUT
10
195.8841
20
57.3813
0
VERTEX
8
CUT
10
195.9331
20
57.3308
0
VERTEX
8
CUT
10
196.1487
20
57.0973
0
VERTEX
8
CUT
10
196.3489
20
56.7399
0
VERTEX
8
CUT
10
197.4735
20
55.8520
0
VERTEX
8
CUT
10
198.8942
20
55.2009
0
VERTEX
8
CUT
10
199.0659
20
55.1804
0
VERTEX
8
CUT
10
199.2956
20
55.0590
0
VERTEX
8
CUT
10
201.5906
20
54.2776
0
VERTEX
8
CUT
10
208.9061
20
53.1208
0
VERTEX
8
CUT
10
209.8639
20
52.8496
0
VERTEX
8
CUT
10
210.4391
20
52.4164
0
VERTEX
8
CUT
10
210.3448
20
52.0011
0
VERTEX
8
CUT
10
209.7115
20
51.6807
0
VERTEX
8
CUT
10
204.2331
20
50.7591
0
VERTEX
8
CUT
10
201.6912
20
50.7296
0
VERTEX
8
CUT
10
198.1029
20
51.5876
0
VERTEX
8
CUT
10
197.6872
20
51.3160
0
VERTEX
8
CUT
10
197.8860
20
50.9509
0
VERTEX
8
CUT
10
197.8787
20
50.8769
0
VERTEX
8
CUT
10
197.9798
20
50.7786
0
VERTEX
8
CUT
10
198.0385
20
50.6708
0
VERTEX
8
CUT
10
198.3009
20
50.4666
0
VERTEX
8
CUT
10
198.3571
20
50.4120
0
VERTEX
8
CUT
10
198.4313
20
50.3651
0
VERTEX
8
CUT
10
200.0164
20
49.1313
0
VERTEX
8
CUT
10
203.4932
20
47.4670
0
VERTEX
8
CUT
10
207.4235
20
45.9169
0
VERTEX
8
CUT
10
208.1602
20
45.3963
0
VERTEX
8
CUT
10
208.4277
20
45.1100
0
VERTEX
8
CUT
10
208.4855
20
44.9490
0
VERTEX
8
CUT
10
208.4113
20
44.7813
0
VERTEX
8
CUT
10
208.4003
20
44.7566
0
VERTEX
8
CUT
10
208.3890
20
44.7310
0
VERTEX
8
CUT
10
208.3728
20
44.6943
0
VERTEX
8
CUT
10
208.2773
20
44.5732
0
VERTEX
8
CUT
10
207.8459
20
44.3498
0
VERTEX
8
CUT
10
207.1178
20
44.2192
0
VERTEX
8
CUT
10
204.9292
20
44.0745
0
VERTEX
8
CUT
10
204.0596
20
43.7011
0
VERTEX
8
CUT
10
204.3231
20
36.8025
0
VERTEX
8
CUT
10
204.3296
20
36.1149
0
VERTEX
8
CUT
10
203.9213
20
30.5220
0
VERTEX
8
CUT
10
202.9148
20
26.6740
0
VERTEX
8
CUT
10
202.3373
20
25.5110
0
VERTEX
8
CUT
10
201.8042
20
24.8487
0
VERTEX
8
CUT
10
201.7196
20
24.7436
0
VERTEX
8
CUT
10
201.6976
20
24.7164
0
VERTEX
8
CUT
10
201.6933
20
24.7110
0
VERTEX
8
CUT
10
201.6039
20
24.6104
0
VERTEX
8
CUT
10
201.2967
20
24.3226
0
VERTEX
8
CUT
10
200.4866
20
23.8580
0
VERTEX
8
CUT
10
199.3047
20
23.7373
0
VERTEX
8
CUT
10
198.0579
20
24.0146
0
VERTEX
8
CUT
10
196.9447
20
24.5223
0
VERTEX
8
CUT
10
196.7643
20
24.6281
0
VERTEX
8
CUT
10
196.6962
20
24.6680
0
VERTEX
8
CUT
10
196.5935
20
24.7282
0
VERTEX
8
CUT
10
196.2356
20
24.9381
0
VERTEX
8
CUT
10
195.8317
20
25.2101
0
VERTEX
8
CUT
10
194.7437
20
26.1221
0
VERTEX
8
CUT
10
194.6497
20
26.2009
0
VERTEX
8
CUT
10
194.6105
20
26.2338
0
VERTEX
8
CUT
10
194.1493
20
26.6204
0
VERTEX
8
CUT
10
193.0496
20
27.6084
0
VERTEX
8
CUT
10
191.6599
20
29.0284
0
VERTEX
8
CUT
10
189.0587
20
31.9765
0
VERTEX
8
CUT
10
183.7773
20
39.1851
0
VERTEX
8
CUT
10
181.0463
20
43.6368
0
VERTEX
8
CUT
10
179.2888
20
47.2092
0
VERTEX
8
CUT
10
178.3806
20
50.1935
0
VERTEX
8
CUT
10
178.2938
20
52.7379
0
VERTEX
8
CUT
10
178.5401
20
53.8760
0
VERTEX
8
CUT
10
179.0470
20
54.8263
0
VERTEX
8
CUT
10
180.0675
20
55.7863
0
VERTEX
8
CUT
10
184.9384
20
59.3194
0
VERTEX
8
CUT
10
185.6063
20
59.6406
0
VERTEX
8
CUT
10
186.1139
20
59.4547
0
VERTEX
8
CUT
10
186.2869
20
58.7208
0
VERTEX
8
CUT
10
186.1988
20
56.7083
0
VERTEX
8
CUT
10
186.4353
20
54.9635
0
VERTEX
8
CUT
10
187.2172
20
52.3580
0
VERTEX
8
CUT
10
187.7572
20
51.2931
0
VERTEX
8
CUT
10
188.1209
20
50.4358
0
VERTEX
8
CUT
10
188.9792
20
49.1927
0
VERTEX
8
CUT
10
190.9622
20
47.0617
0
VERTEX
8
CUT
10
192.8251
20
45.6380
0
VERTEX
8
CUT
10
193.4369
20
45.1426
0
VERTEX
8
CUT
10
193.6605
20
44.9996
0
VERTEX
8
CUT
10
194.6026
20
44.2796
0
VERTEX
8
CUT
10
194.9236
20
44.1921
0
VERTEX
8
CUT
10
195.7566
20
43.6595
0
VERTEX
8
CUT
10
196.2901
20
43.1466
0
VERTEX
8
CUT
10
196.3756
20
42.7256
0
VERTEX
8
CUT
10
196.1298
20
42.4277
0
VERTEX
8
CUT
10
195.5554
20
42.4192
0
VERTEX
8
CUT
10
192.8633
20
43.0702
0
VERTEX
8
CUT
10
191.0956
20
43.7280
0
VERTEX
8
CUT
10
189.4165
20
44.6438
0
VERTEX
8
CUT
10
186.2717
20
47.1926
0
VERTEX
8
CUT
10
185.9843
20
47.2587
0
VERTEX
8
CUT
10
185.7121
20
47.0728
0
VERTEX
8
CUT
10
185.6692
20
46.7810
0
VERTEX
8
CUT
10
186.5123
20
44.6210
0
VERTEX
8
CUT
10
188.5940
20
40.5753
0
VERTEX
8
CUT
10
190.0196
20
38.2287
0
VERTEX
8
CUT
10
191.5243
20
36.0172
0
VERTEX
8
CUT
10
192.1533
20
35.2564
0
VERTEX
8
CUT
10
192.4100
20
34.8962
0
VERTEX
8
CUT
10
193.3620
20
33.7943
0
VERTEX
8
CUT
10
194.5955
20
32.3023
0
VERTEX
8
CUT
10
194.8196
20
32.1072
0
VERTEX
8
CUT
10
195.0069
20
31.8905
0
VERTEX
8
CUT
10
196.2063
20
30.7839
0
VERTEX
8
CUT
10
196.6579
20
30.5077
0
VERTEX
8
CUT
10
197.0002
20
30.2098
0
VERTEX
8
CUT
10
197.3256
20
29.8659
0
VERTEX
8
CUT
10
198.5686
20
29.2739
0
VERTEX
8
CUT
10
198.7125
20
29.2957
0
VERTEX
8
CUT
10
198.7270
20
29.2896
0
VERTEX
8
CUT
10
198.7536
20
29.3020
0
VERTEX
8
CUT
10
199.5453
20
29.4219
0
VERTEX
8
CUT
10
199.9301
20
29.7771
0
VERTEX
8
CUT
10
199.9942
20
30.0977
0
VERTEX
8
CUT
10
200.3412
20
30.5386
0
VERTEX
8
CUT
10
200.8334
20
31.6160
0
VERTEX
8
CUT
10
201.4987
20
35.0808
0
VERTEX
8
CUT
10
201.7918
20
39.5876
0
VERTEX
8
CUT
10
201.4497
20
44.1743
0
VERTEX
8
CUT
10
196.7934
20
46.2369
0
VERTEX
8
CUT
10
195.4449
20
47.0781
0
VERTEX
8
CUT
10
193.0774
20
49.0608
0
VERTEX
8
CUT
10
191.1278
20
51.4540
0
VERTEX
8
CUT
10
190.3387
20
52.8135
0
VERTEX
8
CUT
10
189.7113
20
54.1905
0
VERTEX
8
CUT
10
189.3605
20
55.5938
0
VERTEX
8
CUT
10
189.3026
20
58.8245
0
VERTEX
8
CUT
10
189.5885
20
61.4768
0
VERTEX
8
CUT
10
191.4418
20
64.6151
0
VERTEX
8
CUT
10
192.0430
20
65.2481
0
VERTEX
8
CUT
10
193.2292
20
66.0083
0
VERTEX
8
CUT
10
193.8655
20
66.9909
0
VERTEX
8
CUT
10
193.8863
20
67.0499
0
VERTEX
8
CUT
10
194.1883
20
67.2765
0
VERTEX
8
CUT
10
194.6026
20
68.1940
0
VERTEX
8
CUT
10
195.5497
20
72.5151
0
VERTEX
8
CUT
10
195.6681
20
74.2317
0
VERTEX
8
CUT
10
195.4906
20
76.9547
0
VERTEX
8
CUT
10
195.2242
20
77.5762
0
VERTEX
8
CUT
10
194.8394
20
77.7834
0
VERTEX
8
CUT
10
194.4547
20
77.3690
0
VERTEX
8
CUT
10
194.2179
20
76.4219
0
VERTEX
8
CUT
10
194.2096
20
76.0984
0
VERTEX
8
CUT
10
194.0034
20
75.3816
0
VERTEX
8
CUT
10
193.2865
20
73.7650
0
VERTEX
8
CUT
10
191.6451
20
71.4215
0
VERTEX
8
CUT
10
190.2963
20
70.0149
0
VERTEX
8
CUT
10
188.1928
20
68.3260
0
VERTEX
8
CUT
10
186.9833
20
67.6437
0
VERTEX
8
CUT
10
186.1541
20
67.5674
0
VERTEX
8
CUT
10
186.0508
20
67.8812
0
VERTEX
8
CUT
10
186.2954
20
68.6783
0
VERTEX
8
CUT
10
186.4898
20
69.1478
0
VERTEX
8
CUT
10
187.0258
20
69.8514
0
VERTEX
8
CUT
10
188.5649
20
73.8766
0
VERTEX
8
CUT
10
189.2160
20
76.4811
0
VERTEX
8
CUT
10
189.3048
20
78.1385
0
VERTEX
8
CUT
10
189.2399
20
78.2250
0
VERTEX
8
CUT
10
189.3438
20
79.7556
0
VERTEX
8
CUT
10
189.1666
20
80.0331
0
VERTEX
8
CUT
10
188.8401
20
80.0757
0
VERTEX
8
CUT
10
188.6362
20
79.8262
0
VERTEX
8
CUT
10
188.6560
20
79.7881
0
VERTEX
8
CUT
10
188.6998
20
79.6785
0
VERTEX
8
CUT
10
188.7327
20
79.5651
0
VERTEX
8
CUT
10
188.7542
20
79.4490
0
VERTEX
8
CUT
10
188.7643
20
79.3314
0
VERTEX
8
CUT
10
188.7627
20
79.2134
0
VERTEX
8
CUT
10
188.7496
20
79.0960
0
VERTEX
8
CUT
10
188.7249
20
78.9806
0
VERTEX
8
CUT
10
188.6891
20
78.8681
0
VERTEX
8
CUT
10
188.6424
20
78.7597
0
VERTEX
8
CUT
10
188.5852
20
78.6564
0
VERTEX
8
CUT
10
188.5182
20
78.5592
0
VERTEX
8
CUT
10
188.4420
20
78.4691
0
SEQEND
0
POLYLINE
8
CUT
66
1
70
1
10
0.0
20
0.0
30
0.0
0
VERTEX
8
CUT
10
209.9987
20
122.6602
0
VERTEX
8
CUT
10
209.7482
20
122.4477
0
VERTEX
8
CUT
10
209.7624
20
121.4432
0
VERTEX
8
CUT
10
210.4482
20
119.1096
0
VERTEX
8
CUT
10
210.7553
20
118.6680
0
VERTEX
8
CUT
10
211.0882
20
118.5822
0
VERTEX
8
CUT
10
212.3685
20
119.2512
0
VERTEX
8
CUT
10
212.6969
20
119.7855
0
VERTEX
8
CUT
10
210.3525
20
122.5827
0
SEQEND
0
POLYLINE
8
CUT
66
1
70
1
10
0.0
20
0.0
30
0.0
0
VERTEX
8
CUT
10
211.2893
20
213.0145
0
VERTEX
8
CUT
10
211.6175
20
215.9281
0
VERTEX
8
CUT
10
211.5860
20
216.7095
0
VERTEX
8
CUT
10
211.3775
20
216.9710
0
VERTEX
8
CUT
10
211.0431
20
216.9744
0
VERTEX
8
CUT
10
210.8407
20
216.7539
0
VERTEX
8
CUT
10
210.3383
20
213.3250
0
VERTEX
8
CUT
10
208.6626
20
209.2028
0
VERTEX
8
CUT
10
207.1762
20
206.9138
0
VERTEX
8
CUT
10
204.9801
20
204.8334
0
VERTEX
8
CUT
10
204.1514
20
203.5646
0
VERTEX
8
CUT
10
203.8665
20
203.3338
0
VERTEX
8
CUT
10
202.9786
20
201.6467
0
VERTEX
8
CUT
10
203.7777
20
201.9131
0
VERTEX
8
CUT
10
205.5831
20
203.2154
0
VERTEX
8
CUT
10
208.3060
20
206.2047
0
VERTEX
8
CUT
10
210.5850
20
209.9339
0
VERTEX
8
CUT
10
211.4433
20
212.2128
0
VERTEX
8
CUT
10
211.3841
20
213.1008
0
SEQEND
0
POLYLINE
8
CUT
66
1
70
1
10
0.0
20
0.0
30
0.0
0
VERTEX
8
CUT
10
201.2916
20
114.3948
0
VERTEX
8
CUT
10
200.9068
20
114.0397
0
VERTEX
8
CUT
10
201.2916
20
113.6845
0
VERTEX
8
CUT
10
204.5472
20
113.7437
0
VERTEX
8
CUT
10
204.7248
20
114.1581
0
VERTEX
8
CUT
10
204.3696
20
114.3948
0
VERTEX
8
CUT
10
202.3275
20
114.4836
0
SEQEND
0
POLYLINE
8
CUT
66
1
70
1
10
0.0
20
0.0
30
0.0
0
VERTEX
8
CUT
10
202.2318
20
118.6847
0
VERTEX
8
CUT
10
202.8433
20
119.4444
0
VERTEX
8
CUT
10
203.2879
20
120.4104
0
VERTEX
8
CUT
10
203.2462
20
121.1248
0
VERTEX
8
CUT
10
202.9167
20
121.8848
0
VERTEX
8
CUT
10
202.8886
20
122.0484
0
VERTEX
8
CUT
10
202.6562
20
122.5206
0
VERTEX
8
CUT
10
202.6383
20
122.5269
0
VERTEX
8
CUT
10
202.1258
20
123.7088
0
VERTEX
8
CUT
10
201.6992
20
123.8889
0
VERTEX
8
CUT
10
200.5215
20
122.6857
0
VERTEX
8
CUT
10
199.6209
20
122.1156
0
VERTEX
8
CUT
10
195.4895
20
120.7332
0
VERTEX
8
CUT
10
195.3949
20
120.6878
0
VERTEX
8
CUT
10
195.3367
20
120.6728
0
VERTEX
8
CUT
10
193.6074
20
119.8621
0
VERTEX
8
CUT
10
193.5163
20
119.7867
0
VERTEX
8
CUT
10
193.3876
20
119.7250
0
VERTEX
8
CUT
10
192.1823
20
118.8714
0
VERTEX
8
CUT
10
191.3819
20
117.9253
0
VERTEX
8
CUT
10
191.4482
20
117.6016
0
VERTEX
8
CUT
10
191.7394
20
117.4453
0
VERTEX
8
CUT
10
192.8463
20
117.8307
0
VERTEX
8
CUT
10
195.2159
20
117.8317
0
VERTEX
8
CUT
10
195.4528
20
118.1625
0
VERTEX
8
CUT
10
195.1050
20
118.8712
0
VERTEX
8
CUT
10
195.2695
20
119.2926
0
VERTEX
8
CUT
10
195.8267
20
119.6931
0
VERTEX
8
CUT
10
197.0066
20
119.9592
0
VERTEX
8
CUT
10
198.4119
20
119.6895
0
VERTEX
8
CUT
10
199.9152
20
118.9755
0
VERTEX
8
CUT
10
199.9258
20
118.9637
0
VERTEX
8
CUT
10
200.0577
20
118.9079
0
VERTEX
8
CUT
10
200.1522
20
118.8630
0
VERTEX
8
CUT
10
200.2284
20
118.8207
0
VERTEX
8
CUT
10
200.2498
20
118.8167
0
VERTEX
8
CUT
10
200.8273
20
118.5424
0
VERTEX
8
CUT
10
201.6863
20
118.4096
0
SEQEND
0
POLYLINE
8
CUT
66
1
70
1
10
0.0
20
0.0
30
0.0
0
VERTEX
8
CUT
10
193.1377
20
223.6022
0
VERTEX
8
CUT
10
193.5306
20
223.6875
0
VERTEX
8
CUT
10
194.1328
20
225.0497
0
VERTEX
8
CUT
10
195.7865
20
226.6562
0
VERTEX
8
CUT
10
196.7928
20
227.2481
0
VERTEX
8
CUT
10
198.0359
20
227.4849
0
VERTEX
8
CUT
10
200.4481
20
227.4635
0
VERTEX
8
CUT
10
202.3222
20
226.7280
0
VERTEX
8
CUT
10
202.6454
20
226.8932
0
VERTEX
8
CUT
10
202.6921
20
227.2532
0
VERTEX
8
CUT
10
201.4455
20
228.3122
0
VERTEX
8
CUT
10
200.1107
20
228.8789
0
VERTEX
8
CUT
10
198.2825
20
229.0790
0
VERTEX
8
CUT
10
196.5065
20
228.7158
0
VERTEX
8
CUT
10
194.8996
20
227.8353
0
VERTEX
8
CUT
10
193.8090
20
226.7747
0
VERTEX
8
CUT
10
193.1107
20
225.4487
0
VERTEX
8
CUT
10
192.8866
20
223.8723
0
SEQEND
0
POLYLINE
8
CUT
66
1
70
1
10
0.0
20
0.0
30
0.0
0
VERTEX
8
CUT
10
199.6045
20
208.2173
0
VERTEX
8
CUT
10
199.1606
20
209.2531
0
VERTEX
8
CUT
10
198.9238
20
208.6020
0
VERTEX
8
CUT
10
198.3319
20
204.0145
0
VERTEX
8
CUT
10
197.8583
20
202.3275
0
VERTEX
8
CUT
10
195.2242
20
197.5919
0
VERTEX
8
CUT
10
194.4547
20
195.6385
0
VERTEX
8
CUT
10
194.5139
20
195.0170
0
VERTEX
8
CUT
10
195.3130
20
195.4906
0
VERTEX
8
CUT
10
196.7632
20
197.3256
0
VERTEX
8
CUT
10
198.1247
20
199.8117
0
VERTEX
8
CUT
10
198.6574
20
201.1732
0
VERTEX
8
CUT
10
199.6637
20
205.2576
0
SEQEND
0
POLYLINE
8
CUT
66
1
70
1
10
0.0
20
0.0
30
0.0
0
VERTEX
8
CUT
10
186.7890
20
198.3319
0
VERTEX
8
CUT
10
185.4276
20
197.3256
0
VERTEX
8
CUT
10
181.8463
20
195.1946
0
VERTEX
8
CUT
10
181.4320
20
194.6914
0
VERTEX
8
CUT
10
181.5208
20
194.1587
0
VERTEX
8
CUT
10
183.1486
20
194.6026
0
VERTEX
8
CUT
10
186.3451
20
196.2601
0
VERTEX
8
CUT
10
187.0886
20
196.8462
0
VERTEX
8
CUT
10
187.5882
20
197.0888
0
VERTEX
8
CUT
10
188.8016
20
198.1839
0
VERTEX
8
CUT
10
188.8269
20
198.2164
0
VERTEX
8
CUT
10
188.8608
20
198.2431
0
VERTEX
8
CUT
10
189.9263
20
199.3974
0
VERTEX
8
CUT
10
191.6429
20
202.0315
0
VERTEX
8
CUT
10
192.2645
20
203.5113
0
VERTEX
8
CUT
10
193.1820
20
207.1222
0
VERTEX
8
CUT
10
193.1820
20
208.0397
0
VERTEX
8
CUT
10
192.9748
20
208.5428
0
VERTEX
8
CUT
10
192.6788
20
208.5724
0
VERTEX
8
CUT
10
192.4125
20
208.2468
0
VERTEX
8
CUT
10
191.7909
20
205.6719
0
VERTEX
8
CUT
10
191.1398
20
204.1033
0
VERTEX
8
CUT
10
189.2456
20
200.9956
0
SEQEND
0
POLYLINE
8
CUT
66
1
70
1
10
0.0
20
0.0
30
0.0
0
VERTEX
8
CUT
10
191.7021
20
147.2771
0
VERTEX
8
CUT
10
191.3329
20
147.4735
0
VERTEX
8
CUT
10
191.2759
20
147.6744
0
VERTEX
8
CUT
10
185.0550
20
151.7134
0
VERTEX
8
CUT
10
182.3475
20
152.9950
0
VERTEX
8
CUT
10
179.9538
20
153.7046
0
VERTEX
8
CUT
10
176.0382
20
154.3474
0
VERTEX
8
CUT
10
172.6935
20
154.4949
0
VERTEX
8
CUT
10
172.1510
20
154.4152
0
VERTEX
8
CUT
10
171.8883
20
154.1583
0
VERTEX
8
CUT
10
171.9890
20
153.7313
0
VERTEX
8
CUT
10
172.7309
20
153.3708
0
VERTEX
8
CUT
10
178.7109
20
152.4865
0
VERTEX
8
CUT
10
182.6190
20
151.2659
0
VERTEX
8
CUT
10
186.7465
20
149.3822
0
VERTEX
8
CUT
10
190.6261
20
147.1666
0
VERTEX
8
CUT
10
190.7846
20
147.0403
0
VERTEX
8
CUT
10
192.2645
20
146.2116
0
VERTEX
8
CUT
10
192.5900
20
146.3004
0
VERTEX
8
CUT
10
192.5605
20
146.5668
0
SEQEND
0
POLYLINE
8
CUT
66
1
70
1
10
0.0
20
0.0
30
0.0
0
VERTEX
8
CUT
10
185.6348
20
92.0787
0
VERTEX
8
CUT
10
185.2796
20
91.7236
0
VERTEX
8
CUT
10
184.9244
20
90.8652
0
VERTEX
8
CUT
10
185.2204
20
90.0365
0
VERTEX
8
CUT
10
185.7827
20
90.0957
0
VERTEX
8
CUT
10
186.9370
20
91.0132
0
VERTEX
8
CUT
10
187.9729
20
91.2204
0
VERTEX
8
CUT
10
188.1801
20
91.5164
0
VERTEX
8
CUT
10
188.0321
20
91.9307
0
VERTEX
8
CUT
10
187.0554
20
92.4635
0
VERTEX
8
CUT
10
186.0491
20
92.3451
0
SEQEND
0
POLYLINE
8
CUT
66
1
70
1
10
0.0
20
0.0
30
0.0
0
VERTEX
8
CUT
10
186.8778
20
239.7676
0
VERTEX
8
CUT
10
186.1083
20
241.0107
0
VERTEX
8
CUT
10
183.1782
20
244.5031
0
VERTEX
8
CUT
10
179.9817
20
247.5220
0
VERTEX
8
CUT
10
174.2695
20
251.8728
0
VERTEX
8
CUT
10
171.2210
20
254.5661
0
VERTEX
8
CUT
10
166.8999
20
259.2424
0
VERTEX
8
CUT
10
164.0586
20
262.9421
0
VERTEX
8
CUT
10
164.2657
20
261.7582
0
VERTEX
8
CUT
10
164.8577
20
260.6039
0
VERTEX
8
CUT
10
167.3142
20
257.1115
0
VERTEX
8
CUT
10
169.4452
20
254.5957
0
VERTEX
8
CUT
10
172.9969
20
251.3104
0
VERTEX
8
CUT
10
181.6984
20
244.5031
0
VERTEX
8
CUT
10
184.8060
20
241.5138
0
VERTEX
8
CUT
10
186.1971
20
239.6788
0
VERTEX
8
CUT
10
186.9074
20
239.1165
0
SEQEND
0
POLYLINE
8
CUT
66
1
70
1
10
0.0
20
0.0
30
0.0
0
VERTEX
8
CUT
10
183.7731
20
87.0734
0
VERTEX
8
CUT
10
183.0935
20
86.2039
0
VERTEX
8
CUT
10
183.2332
20
85.5506
0
VERTEX
8
CUT
10
183.6607
20
85.0208
0
VERTEX
8
CUT
10
184.0942
20
85.0668
0
VERTEX
8
CUT
10
184.3978
20
85.5445
0
VERTEX
8
CUT
10
185.2716
20
86.2561
0
VERTEX
8
CUT
10
186.7078
20
86.6500
0
VERTEX
8
CUT
10
186.8127
20
87.1983
0
VERTEX
8
CUT
10
185.5233
20
87.6324
0
VERTEX
8
CUT
10
184.4436
20
87.4528
0
SEQEND
0
POLYLINE
8
CUT
66
1
70
1
10
0.0
20
0.0
30
0.0
0
VERTEX
8
CUT
10
182.5941
20
82.0589
0
VERTEX
8
CUT
10
183.4053
20
82.4536
0
VERTEX
8
CUT
10
183.5099
20
82.4985
0
VERTEX
8
CUT
10
183.6183
20
82.5333
0
VERTEX
8
CUT
10
183.7295
20
82.5576
0
VERTEX
8
CUT
10
183.8425
20
82.5713
0
VERTEX
8
CUT
10
184.8583
20
82.6458
0
VERTEX
8
CUT
10
184.9706
20
82.6488
0
VERTEX
8
CUT
10
185.0826
20
82.6413
0
VERTEX
8
CUT
10
185.1934
20
82.6233
0
VERTEX
8
CUT
10
185.3021
20
82.5950
0
VERTEX
8
CUT
10
185.4076
20
82.5568
0
VERTEX
8
CUT
10
185.5091
20
82.5088
0
VERTEX
8
CUT
10
186.4320
20
82.0185
0
VERTEX
8
CUT
10
186.4660
20
82.0285
0
VERTEX
8
CUT
10
186.4862
20
82.0324
0
VERTEX
8
CUT
10
186.4087
20
82.2724
0
VERTEX
8
CUT
10
184.1912
20
83.5801
0
VERTEX
8
CUT
10
183.8591
20
83.6098
0
VERTEX
8
CUT
10
183.0244
20
83.0066
0
VERTEX
8
CUT
10
180.9883
20
82.0782
0
VERTEX
8
CUT
10
180.5521
20
81.6768
0
VERTEX
8
CUT
10
180.5059
20
80.8907
0
VERTEX
8
CUT
10
180.9197
20
79.3771
0
VERTEX
8
CUT
10
180.9461
20
79.8993
0
VERTEX
8
CUT
10
180.9583
20
80.0195
0
VERTEX
8
CUT
10
180.9824
20
80.1378
0
VERTEX
8
CUT
10
181.0184
20
80.2531
0
VERTEX
8
CUT
10
181.0657
20
80.3642
0
VERTEX
8
CUT
10
181.1443
20
80.5255
0
VERTEX
8
CUT
10
181.1995
20
80.6262
0
VERTEX
8
CUT
10
181.2641
20
80.7213
0
VERTEX
8
CUT
10
181.3375
20
80.8097
0
VERTEX
8
CUT
10
182.2334
20
81.7896
0
VERTEX
8
CUT
10
182.3136
20
81.8694
0
VERTEX
8
CUT
10
182.4010
20
81.9413
0
VERTEX
8
CUT
10
182.4947
20
82.0047
0
SEQEND
0
POLYLINE
8
CUT
66
1
70
1
10
0.0
20
0.0
30
0.0
0
VERTEX
8
CUT
10
183.1782
20
82.3117
0
VERTEX
8
CUT
10
181.9351
20
81.4238
0
VERTEX
8
CUT
10
181.3728
20
80.4175
0
VERTEX
8
CUT
10
181.6392
20
79.9144
0
VERTEX
8
CUT
10
182.1719
20
79.9440
0
VERTEX
8
CUT
10
183.1190
20
80.9799
0
VERTEX
8
CUT
10
184.2141
20
81.5126
0
VERTEX
8
CUT
10
185.3388
20
81.6606
0
VERTEX
8
CUT
10
185.3980
20
81.8382
0
VERTEX
8
CUT
10
185.0132
20
82.2525
0
VERTEX
8
CUT
10
184.3621
20
82.4893
0
SEQEND
0
POLYLINE
8
CUT
66
1
70
1
10
0.0
20
0.0
30
0.0
0
VERTEX
8
CUT
10
176.8149
20
203.3633
0
VERTEX
8
CUT
10
177.6140
20
203.8665
0
VERTEX
8
CUT
10
178.6795
20
205.1096
0
VERTEX
8
CUT
10
180.5441
20
207.8029
0
VERTEX
8
CUT
10
181.9647
20
210.6146
0
VERTEX
8
CUT
10
182.9414
20
213.8407
0
VERTEX
8
CUT
10
183.3262
20
216.1196
0
VERTEX
8
CUT
10
183.4446
20
218.9314
0
VERTEX
8
CUT
10
183.3558
20
220.0264
0
VERTEX
8
CUT
10
183.1190
20
220.4112
0
VERTEX
8
CUT
10
182.7934
20
220.3520
0
VERTEX
8
CUT
10
182.6455
20
220.0560
0
VERTEX
8
CUT
10
182.2607
20
215.6165
0
VERTEX
8
CUT
10
180.8696
20
211.0586
0
VERTEX
8
CUT
10
179.5674
20
208.6020
0
VERTEX
8
CUT
10
177.2884
20
205.4351
0
VERTEX
8
CUT
10
176.6077
20
204.1921
0
VERTEX
8
CUT
10
176.4005
20
203.3042
0
SEQEND
0
POLYLINE
8
CUT
66
1
70
1
10
0.0
20
0.0
30
0.0
0
VERTEX
8
CUT
10
177.9099
20
147.6914
0
VERTEX
8
CUT
10
178.1171
20
147.8690
0
VERTEX
8
CUT
10
177.8212
20
148.4018
0
VERTEX
8
CUT
10
177.3772
20
148.6681
0
VERTEX
8
CUT
10
177.3083
20
148.6789
0
VERTEX
8
CUT
10
176.6348
20
149.0405
0
VERTEX
8
CUT
10
173.1943
20
149.6754
0
VERTEX
8
CUT
10
170.8207
20
150.7252
0
VERTEX
8
CUT
10
170.3963
20
150.5465
0
VERTEX
8
CUT
10
170.4388
20
150.0880
0
VERTEX
8
CUT
10
172.7300
20
148.5879
0
VERTEX
8
CUT
10
175.5638
20
148.1853
0
VERTEX
8
CUT
10
176.2821
20
147.8394
0
SEQEND
0
POLYLINE
8
CUT
66
1
70
1
10
0.0
20
0.0
30
0.0
0
VERTEX
8
CUT
10
165.3608
20
240.9219
0
VERTEX
8
CUT
10
165.0945
20
240.4188
0
VERTEX
8
CUT
10
165.2128
20
240.1820
0
VERTEX
8
CUT
10
167.5214
20
238.5837
0
VERTEX
8
CUT
10
170.7475
20
235.8904
0
VERTEX
8
CUT
10
173.7368
20
232.8715
0
VERTEX
8
CUT
10
175.0982
20
231.1845
0
VERTEX
8
CUT
10
173.8848
20
233.5227
0
VERTEX
8
CUT
10
171.3986
20
236.6895
0
VERTEX
8
CUT
10
169.9484
20
238.1398
0
VERTEX
8
CUT
10
167.1662
20
240.3004
0
VERTEX
8
CUT
10
166.1008
20
240.8331
0
SEQEND
0
POLYLINE
8
CUT
66
1
70
1
10
0.0
20
0.0
30
0.0
0
VERTEX
8
CUT
10
167.7851
20
224.9141
0
VERTEX
8
CUT
10
167.3461
20
220.1303
0
VERTEX
8
CUT
10
166.7677
20
217.5766
0
VERTEX
8
CUT
10
165.9239
20
215.2388
0
VERTEX
8
CUT
10
164.7564
20
213.0597
0
VERTEX
8
CUT
10
163.2876
20
210.9672
0
VERTEX
8
CUT
10
161.4399
20
208.9434
0
VERTEX
8
CUT
10
159.2402
20
206.9532
0
VERTEX
8
CUT
10
151.6241
20
200.9906
0
VERTEX
8
CUT
10
148.3440
20
197.7673
0
VERTEX
8
CUT
10
147.1738
20
196.2111
0
VERTEX
8
CUT
10
145.4968
20
192.8556
0
VERTEX
8
CUT
10
144.3768
20
189.2974
0
VERTEX
8
CUT
10
144.0100
20
186.8925
0
VERTEX
8
CUT
10
144.3301
20
186.5924
0
VERTEX
8
CUT
10
144.7264
20
186.7808
0
VERTEX
8
CUT
10
145.2401
20
189.1542
0
VERTEX
8
CUT
10
146.1432
20
191.7385
0
VERTEX
8
CUT
10
146.5351
20
192.4760
0
VERTEX
8
CUT
10
147.7802
20
194.5730
0
VERTEX
8
CUT
10
150.7103
20
198.0655
0
VERTEX
8
CUT
10
154.9131
20
201.7059
0
VERTEX
8
CUT
10
160.6549
20
206.0271
0
VERTEX
8
CUT
10
163.9402
20
209.3715
0
VERTEX
8
CUT
10
165.4792
20
211.4433
0
VERTEX
8
CUT
10
166.8111
20
214.0479
0
VERTEX
8
CUT
10
167.9950
20
217.3035
0
VERTEX
8
CUT
10
167.9716
20
218.0970
0
VERTEX
8
CUT
10
168.4650
20
220.8870
0
VERTEX
8
CUT
10
168.5548
20
224.8300
0
VERTEX
8
CUT
10
168.3840
20
225.1522
0
VERTEX
8
CUT
10
168.0214
20
225.1919
0
SEQEND
0
POLYLINE
8
CUT
66
1
70
1
10
0.0
20
0.0
30
0.0
0
VERTEX
8
CUT
10
164.4607
20
146.2216
0
VERTEX
8
CUT
10
164.7510
20
146.1021
0
VERTEX
8
CUT
10
165.0771
20
146.1827
0
VERTEX
8
CUT
10
165.9882
20
147.0853
0
VERTEX
8
CUT
10
168.2248
20
147.9935
0
VERTEX
8
CUT
10
168.2698
20
148.3305
0
VERTEX
8
CUT
10
168.0126
20
148.7013
0
VERTEX
8
CUT
10
167.3181
20
149.1481
0
VERTEX
8
CUT
10
166.7806
20
149.0664
0
VERTEX
8
CUT
10
165.9875
20
148.3916
0
VERTEX
8
CUT
10
165.0364
20
148.0445
0
VERTEX
8
CUT
10
164.2968
20
148.1416
0
VERTEX
8
CUT
10
162.7427
20
148.7587
0
VERTEX
8
CUT
10
161.1170
20
148.9735
0
VERTEX
8
CUT
10
160.0693
20
149.3927
0
VERTEX
8
CUT
10
154.2460
20
153.0649
0
VERTEX
8
CUT
10
149.7671
20
156.6554
0
VERTEX
8
CUT
10
149.5567
20
157.0108
0
VERTEX
8
CUT
10
149.6523
20
157.3758
0
VERTEX
8
CUT
10
150.2766
20
158.3251
0
VERTEX
8
CUT
10
150.6970
20
158.6017
0
VERTEX
8
CUT
10
152.6736
20
158.4854
0
VERTEX
8
CUT
10
154.7809
20
157.5603
0
VERTEX
8
CUT
10
156.2237
20
159.1265
0
VERTEX
8
CUT
10
156.1765
20
159.5459
0
VERTEX
8
CUT
10
156.0404
20
159.7305
0
VERTEX
8
CUT
10
156.1266
20
159.8558
0
VERTEX
8
CUT
10
155.8602
20
160.2702
0
VERTEX
8
CUT
10
155.4640
20
160.5123
0
VERTEX
8
CUT
10
155.1999
20
160.8704
0
VERTEX
8
CUT
10
152.7003
20
163.5120
0
VERTEX
8
CUT
10
152.2417
20
163.4796
0
VERTEX
8
CUT
10
151.2957
20
162.0092
0
VERTEX
8
CUT
10
150.0604
20
161.2643
0
VERTEX
8
CUT
10
147.5949
20
160.7423
0
VERTEX
8
CUT
10
145.1707
20
160.6260
0
VERTEX
8
CUT
10
144.5041
20
160.8013
0
VERTEX
8
CUT
10
143.3817
20
161.5320
0
VERTEX
8
CUT
10
141.0007
20
164.0301
0
VERTEX
8
CUT
10
138.7614
20
165.9460
0
VERTEX
8
CUT
10
138.3145
20
165.8137
0
VERTEX
8
CUT
10
138.3388
20
165.3180
0
VERTEX
8
CUT
10
140.9785
20
162.5444
0
VERTEX
8
CUT
10
144.8623
20
158.9548
0
VERTEX
8
CUT
10
145.0399
20
158.8139
0
VERTEX
8
CUT
10
145.2093
20
158.6612
0
VERTEX
8
CUT
10
145.2114
20
158.6414
0
VERTEX
8
CUT
10
145.2956
20
158.5833
0
VERTEX
8
CUT
10
145.6325
20
158.2795
0
VERTEX
8
CUT
10
145.8268
20
157.9616
0
VERTEX
8
CUT
10
147.1587
20
156.9553
0
VERTEX
8
CUT
10
147.4698
20
156.8861
0
VERTEX
8
CUT
10
149.3020
20
155.4326
0
VERTEX
8
CUT
10
157.3354
20
150.0875
0
VERTEX
8
CUT
10
162.0020
20
147.3584
0
VERTEX
8
CUT
10
162.0756
20
147.1587
0
VERTEX
8
CUT
10
162.7859
20
146.6555
0
VERTEX
8
CUT
10
164.4433
20
146.2116
0
SEQEND
0
POLYLINE
8
CUT
66
1
70
1
10
0.0
20
0.0
30
0.0
0
VERTEX
8
CUT
10
166.2490
20
116.2816
0
VERTEX
8
CUT
10
166.0277
20
116.5620
0
VERTEX
8
CUT
10
165.6897
20
116.5549
0
VERTEX
8
CUT
10
164.7449
20
115.3507
0
VERTEX
8
CUT
10
163.6404
20
114.9565
0
VERTEX
8
CUT
10
157.4824
20
114.8947
0
VERTEX
8
CUT
10
153.9269
20
114.6035
0
VERTEX
8
CUT
10
152.2850
20
114.2761
0
VERTEX
8
CUT
10
148.9476
20
113.1915
0
VERTEX
8
CUT
10
138.1637
20
108.5710
0
VERTEX
8
CUT
10
135.1971
20
107.9120
0
VERTEX
8
CUT
10
130.4655
20
107.3659
0
VERTEX
8
CUT
10
130.2169
20
107.0079
0
VERTEX
8
CUT
10
130.4562
20
106.6435
0
VERTEX
8
CUT
10
132.2288
20
106.6134
0
VERTEX
8
CUT
10
134.8668
20
106.7619
0
VERTEX
8
CUT
10
137.2397
20
107.1977
0
VERTEX
8
CUT
10
137.4805
20
107.0844
0
VERTEX
8
CUT
10
139.9962
20
107.8243
0
VERTEX
8
CUT
10
149.0825
20
111.8495
0
VERTEX
8
CUT
10
152.3382
20
113.0630
0
VERTEX
8
CUT
10
153.8180
20
113.3293
0
VERTEX
8
CUT
10
154.0330
20
113.5228
0
VERTEX
8
CUT
10
157.5768
20
113.8943
0
VERTEX
8
CUT
10
163.9958
20
113.8869
0
VERTEX
8
CUT
10
164.3841
20
113.5957
0
VERTEX
8
CUT
10
165.7160
20
113.9805
0
VERTEX
8
CUT
10
166.3671
20
114.6908
0
VERTEX
8
CUT
10
166.5447
20
115.5195
0
VERTEX
8
CUT
10
166.3141
20
115.6637
0
SEQEND
0
POLYLINE
8
CUT
66
1
70
1
10
0.0
20
0.0
30
0.0
0
VERTEX
8
CUT
10
160.8545
20
227.7886
0
VERTEX
8
CUT
10
161.1873
20
227.8048
0
VERTEX
8
CUT
10
162.3944
20
228.8853
0
VERTEX
8
CUT
10
163.5709
20
229.3093
0
VERTEX
8
CUT
10
163.6723
20
229.8184
0
VERTEX
8
CUT
10
162.7907
20
230.2805
0
VERTEX
8
CUT
10
162.0547
20
230.0369
0
VERTEX
8
CUT
10
161.1012
20
229.1997
0
VERTEX
8
CUT
10
160.6217
20
228.0728
0
SEQEND
0
POLYLINE
8
CUT
66
1
70
1
10
0.0
20
0.0
30
0.0
0
VERTEX
8
CUT
10
161.9321
20
222.3041
0
VERTEX
8
CUT
10
162.1777
20
222.5361
0
VERTEX
8
CUT
10
162.1676
20
222.8383
0
VERTEX
8
CUT
10
161.7430
20
223.1640
0
VERTEX
8
CUT
10
160.6874
20
223.4529
0
VERTEX
8
CUT
10
158.9725
20
223.2202
0
VERTEX
8
CUT
10
158.2454
20
222.4663
0
VERTEX
8
CUT
10
157.6419
20
220.7991
0
VERTEX
8
CUT
10
157.8536
20
220.5356
0
VERTEX
8
CUT
10
158.1917
20
220.5370
0
VERTEX
8
CUT
10
158.8637
20
221.4578
0
VERTEX
8
CUT
10
159.5894
20
221.9502
0
VERTEX
8
CUT
10
160.8471
20
222.3275
0
SEQEND
0
POLYLINE
8
CUT
66
1
70
1
10
0.0
20
0.0
30
0.0
0
VERTEX
8
CUT
10
162.1052
20
194.0107
0
VERTEX
8
CUT
10
161.3652
20
194.0403
0
VERTEX
8
CUT
10
160.4773
20
193.7443
0
VERTEX
8
CUT
10
159.3526
20
192.5013
0
VERTEX
8
CUT
10
158.7015
20
191.4062
0
VERTEX
8
CUT
10
156.9553
20
187.4994
0
VERTEX
8
CUT
10
156.5113
20
185.4868
0
VERTEX
8
CUT
10
156.6297
20
184.3621
0
VERTEX
8
CUT
10
156.9257
20
183.9773
0
VERTEX
8
CUT
10
157.2513
20
184.3621
0
VERTEX
8
CUT
10
157.9320
20
187.1146
0
VERTEX
8
CUT
10
158.7607
20
188.9792
0
VERTEX
8
CUT
10
159.7966
20
190.8438
0
SEQEND
0
POLYLINE
8
CUT
66
1
70
1
10
0.0
20
0.0
30
0.0
0
VERTEX
8
CUT
10
158.6719
20
266.9081
0
VERTEX
8
CUT
10
158.9383
20
269.8678
0
VERTEX
8
CUT
10
160.0334
20
274.7808
0
VERTEX
8
CUT
10
159.8262
20
275.1952
0
VERTEX
8
CUT
10
159.1159
20
274.9584
0
VERTEX
8
CUT
10
158.6423
20
273.8929
0
VERTEX
8
CUT
10
157.9024
20
270.8149
0
VERTEX
8
CUT
10
157.5176
20
267.4704
0
VERTEX
8
CUT
10
157.7544
20
262.4685
0
VERTEX
8
CUT
10
158.6423
20
258.9761
0
VERTEX
8
CUT
10
159.1159
20
258.1178
0
VERTEX
8
CUT
10
159.3822
20
257.9994
0
VERTEX
8
CUT
10
159.4710
20
258.5025
0
VERTEX
8
CUT
10
158.6719
20
263.9484
0
SEQEND
0
POLYLINE
8
CUT
66
1
70
1
10
0.0
20
0.0
30
0.0
0
VERTEX
8
CUT
10
152.9696
20
213.7434
0
VERTEX
8
CUT
10
153.6652
20
214.8590
0
VERTEX
8
CUT
10
155.2091
20
215.7941
0
VERTEX
8
CUT
10
155.9786
20
216.0309
0
VERTEX
8
CUT
10
155.9934
20
216.0512
0
VERTEX
8
CUT
10
156.9542
20
215.9828
0
VERTEX
8
CUT
10
157.2196
20
216.2308
0
VERTEX
8
CUT
10
157.1858
20
216.5585
0
VERTEX
8
CUT
10
156.6233
20
216.9662
0
VERTEX
8
CUT
10
155.7589
20
217.2464
0
VERTEX
8
CUT
10
154.8445
20
217.1627
0
VERTEX
8
CUT
10
154.2235
20
216.8835
0
VERTEX
8
CUT
10
153.1249
20
215.9291
0
VERTEX
8
CUT
10
152.7152
20
215.3026
0
VERTEX
8
CUT
10
152.4198
20
214.6492
0
VERTEX
8
CUT
10
152.3611
20
213.8705
0
VERTEX
8
CUT
10
152.6153
20
213.6598
0
SEQEND
0
POLYLINE
8
CUT
66
1
70
1
10
0.0
20
0.0
30
0.0
0
VERTEX
8
CUT
10
156.6764
20
164.5129
0
VERTEX
8
CUT
10
156.9626
20
164.7395
0
VERTEX
8
CUT
10
156.7383
20
165.5588
0
VERTEX
8
CUT
10
154.0127
20
170.2537
0
VERTEX
8
CUT
10
153.5723
20
170.7882
0
VERTEX
8
CUT
10
153.1752
20
170.8173
0
VERTEX
8
CUT
10
152.9649
20
170.4065
0
VERTEX
8
CUT
10
153.3767
20
169.5245
0
VERTEX
8
CUT
10
156.3562
20
164.5971
0
SEQEND
0
POLYLINE
8
CUT
66
1
70
1
10
0.0
20
0.0
30
0.0
0
VERTEX
8
CUT
10
148.2242
20
209.5787
0
VERTEX
8
CUT
10
149.4081
20
209.8451
0
VERTEX
8
CUT
10
149.4945
20
209.9316
0
VERTEX
8
CUT
10
150.3588
20
209.9001
0
VERTEX
8
CUT
10
150.6170
20
210.1168
0
VERTEX
8
CUT
10
150.6095
20
210.4537
0
VERTEX
8
CUT
10
149.5542
20
211.0018
0
VERTEX
8
CUT
10
148.6434
20
211.1651
0
VERTEX
8
CUT
10
147.0059
20
210.8735
0
VERTEX
8
CUT
10
146.3757
20
210.4412
0
VERTEX
8
CUT
10
145.8874
20
209.8112
0
VERTEX
8
CUT
10
145.4908
20
208.0855
0
VERTEX
8
CUT
10
145.6828
20
207.8146
0
VERTEX
8
CUT
10
146.0487
20
207.8056
0
VERTEX
8
CUT
10
147.0981
20
208.8769
0
SEQEND
0
POLYLINE
8
CUT
66
1
70
1
10
0.0
20
0.0
30
0.0
0
VERTEX
8
CUT
10
139.0689
20
202.1725
0
VERTEX
8
CUT
10
140.3149
20
202.9968
0
VERTEX
8
CUT
10
140.4389
20
203.0788
0
VERTEX
8
CUT
10
140.4572
20
203.0909
0
VERTEX
8
CUT
10
140.9048
20
203.3870
0
VERTEX
8
CUT
10
140.9776
20
203.4041
0
VERTEX
8
CUT
10
142.3175
20
203.6392
0
VERTEX
8
CUT
10
143.3675
20
203.5608
0
VERTEX
8
CUT
10
143.6156
20
203.7763
0
VERTEX
8
CUT
10
143.6253
20
204.0702
0
VERTEX
8
CUT
10
143.0490
20
204.5580
0
VERTEX
8
CUT
10
142.1352
20
204.9611
0
VERTEX
8
CUT
10
141.2232
20
205.0438
0
VERTEX
8
CUT
10
140.3657
20
204.8059
0
VERTEX
8
CUT
10
138.7088
20
203.6122
0
VERTEX
8
CUT
10
138.2931
20
202.8590
0
VERTEX
8
CUT
10
138.1200
20
201.9760
0
VERTEX
8
CUT
10
138.3147
20
201.7044
0
VERTEX
8
CUT
10
138.6483
20
201.6837
0
SEQEND
0
POLYLINE
8
CUT
66
1
70
1
10
0.0
20
0.0
30
0.0
0
VERTEX
8
CUT
10
239.4876
20
211.0621
0
VERTEX
8
CUT
10
240.2676
20
214.0337
0
VERTEX
8
CUT
10
240.3075
20
215.3741
0
VERTEX
8
CUT
10
240.5076
20
216.8300
0
VERTEX
8
CUT
10
240.5667
20
218.9610
0
VERTEX
8
CUT
10
240.4188
20
219.7601
0
VERTEX
8
CUT
10
240.3381
20
219.7725
0
VERTEX
8
CUT
10
240.1494
20
221.4867
0
VERTEX
8
CUT
10
239.3574
20
224.3205
0
VERTEX
8
CUT
10
237.7897
20
227.8055
0
VERTEX
8
CUT
10
236.6431
20
229.5735
0
VERTEX
8
CUT
10
233.4768
20
233.5691
0
VERTEX
8
CUT
10
223.3100
20
244.2675
0
VERTEX
8
CUT
10
221.2322
20
246.7007
0
VERTEX
8
CUT
10
219.1087
20
249.8969
0
VERTEX
8
CUT
10
217.7860
20
252.6294
0
VERTEX
8
CUT
10
217.6204
20
252.9922
0
VERTEX
8
CUT
10
216.8344
20
255.9619
0
VERTEX
8
CUT
10
216.6499
20
257.5372
0
VERTEX
8
CUT
10
216.7977
20
260.4058
0
VERTEX
8
CUT
10
217.3024
20
262.2568
0
VERTEX
8
CUT
10
217.4409
20
262.5384
0
VERTEX
8
CUT
10
217.4680
20
262.5936
0
VERTEX
8
CUT
10
217.4712
20
262.5999
0
VERTEX
8
CUT
10
217.6164
20
262.8950
0
VERTEX
8
CUT
10
218.6398
20
264.5407
0
VERTEX
8
CUT
10
219.2543
20
265.1393
0
VERTEX
8
CUT
10
219.9609
20
265.7724
0
VERTEX
8
CUT
10
221.0526
20
266.4847
0
VERTEX
8
CUT
10
223.0476
20
267.0590
0
VERTEX
8
CUT
10
226.1524
20
266.8791
0
VERTEX
8
CUT
10
227.6096
20
266.2663
0
VERTEX
8
CUT
10
228.7302
20
265.5451
0
VERTEX
8
CUT
10
229.3178
20
264.8462
0
VERTEX
8
CUT
10
229.9062
20
264.0395
0
VERTEX
8
CUT
10
230.3231
20
263.1091
0
VERTEX
8
CUT
10
230.6810
20
261.3501
0
VERTEX
8
CUT
10
230.4650
20
259.7072
0
VERTEX
8
CUT
10
229.5099
20
258.3194
0
VERTEX
8
CUT
10
227.7916
20
259.5206
0
VERTEX
8
CUT
10
226.3595
20
259.9137
0
VERTEX
8
CUT
10
225.9247
20
259.7117
0
VERTEX
8
CUT
10
225.2159
20
259.5172
0
VERTEX
8
CUT
10
224.9284
20
259.2489
0
VERTEX
8
CUT
10
224.8998
20
259.2356
0
VERTEX
8
CUT
10
224.8191
20
259.1470
0
VERTEX
8
CUT
10
224.1420
20
258.5152
0
VERTEX
8
CUT
10
224.0905
20
258.3912
0
VERTEX
8
CUT
10
223.9321
20
258.2311
0
VERTEX
8
CUT
10
223.9131
20
258.1509
0
VERTEX
8
CUT
10
223.4710
20
257.6649
0
VERTEX
8
CUT
10
223.3142
20
256.4712
0
VERTEX
8
CUT
10
223.3518
20
255.8366
0
VERTEX
8
CUT
10
223.3475
20
255.7987
0
VERTEX
8
CUT
10
223.3588
20
255.7169
0
VERTEX
8
CUT
10
223.4616
20
253.9790
0
VERTEX
8
CUT
10
223.9262
20
252.1500
0
VERTEX
8
CUT
10
224.7549
20
250.3213
0
VERTEX
8
CUT
10
224.8252
20
250.2120
0
VERTEX
8
CUT
10
224.9395
20
249.9490
0
VERTEX
8
CUT
10
225.2970
20
249.4779
0
VERTEX
8
CUT
10
225.9540
20
248.4559
0
VERTEX
8
CUT
10
226.6128
20
247.7442
0
VERTEX
8
CUT
10
227.4553
20
246.6341
0
VERTEX
8
CUT
10
228.9199
20
245.2520
0
VERTEX
8
CUT
10
229.5719
20
244.5477
0
VERTEX
8
CUT
10
230.2584
20
243.9889
0
VERTEX
8
CUT
10
231.6581
20
242.6681
0
VERTEX
8
CUT
10
238.7317
20
237.0151
0
VERTEX
8
CUT
10
241.8986
20
234.1442
0
VERTEX
8
CUT
10
244.4169
20
231.5390
0
VERTEX
8
CUT
10
246.0831
20
229.3680
0
VERTEX
8
CUT
10
247.6317
20
226.7547
0
VERTEX
8
CUT
10
248.7166
20
224.1744
0
VERTEX
8
CUT
10
249.4669
20
221.4269
0
VERTEX
8
CUT
10
249.8333
20
218.4214
0
VERTEX
8
CUT
10
249.6784
20
214.6749
0
VERTEX
8
CUT
10
248.6857
20
210.9927
0
VERTEX
8
CUT
10
246.8861
20
207.4636
0
VERTEX
8
CUT
10
244.3479
20
204.2732
0
VERTEX
8
CUT
10
243.0348
20
202.9914
0
VERTEX
8
CUT
10
240.2832
20
200.8314
0
VERTEX
8
CUT
10
237.0003
20
199.0077
0
VERTEX
8
CUT
10
232.8443
20
197.3915
0
VERTEX
8
CUT
10
227.8001
20
195.8489
0
VERTEX
8
CUT
10
226.7261
20
195.7309
0
VERTEX
8
CUT
10
226.4549
20
196.1986
0
VERTEX
8
CUT
10
227.5274
20
197.2492
0
VERTEX
8
CUT
10
229.1530
20
198.4725
0
VERTEX
8
CUT
10
230.1190
20
199.0718
0
VERTEX
8
CUT
10
232.5756
20
201.2324
0
VERTEX
8
CUT
10
233.3001
20
201.9992
0
VERTEX
8
CUT
10
233.3986
20
202.0862
0
VERTEX
8
CUT
10
233.5570
20
202.2578
0
VERTEX
8
CUT
10
234.7180
20
203.3455
0
VERTEX
8
CUT
10
235.8622
20
204.7107
0
VERTEX
8
CUT
10
236.1272
20
204.9912
0
VERTEX
8
CUT
10
237.6958
20
207.1222
0
VERTEX
8
CUT
10
238.8205
20
209.3715
0
VERTEX
8
CUT
10
238.9865
20
209.8865
0
SEQEND
0
POLYLINE
8
CUT
66
1
70
1
10
0.0
20
0.0
30
0.0
0
VERTEX
8
CUT
10
74.0438
20
242.4619
0
VERTEX
8
CUT
10
74.5053
20
242.7303
0
VERTEX
8
CUT
10
74.6969
20
242.8417
0
VERTEX
8
CUT
10
74.9713
20
243.0013
0
VERTEX
8
CUT
10
75.8141
20
243.4915
0
VERTEX
8
CUT
10
77.5578
20
244.3694
0
VERTEX
8
CUT
10
83.7509
20
246.8323
0
VERTEX
8
CUT
10
84.2096
20
247.0593
0
VERTEX
8
CUT
10
86.1889
20
247.8180
0
VERTEX
8
CUT
10
88.6159
20
249.0315
0
VERTEX
8
CUT
10
90.2917
20
250.2674
0
VERTEX
8
CUT
10
90.4031
20
250.3403
0
VERTEX
8
CUT
10
90.4539
20
250.3870
0
VERTEX
8
CUT
10
90.9836
20
250.7777
0
VERTEX
8
CUT
10
92.3747
20
252.1096
0
VERTEX
8
CUT
10
92.5121
20
252.2784
0
VERTEX
8
CUT
10
92.5271
20
252.2922
0
VERTEX
8
CUT
10
92.5476
20
252.3220
0
VERTEX
8
CUT
10
93.4106
20
253.3822
0
VERTEX
8
CUT
10
93.6780
20
253.8698
0
VERTEX
8
CUT
10
93.9287
20
254.1719
0
VERTEX
8
CUT
10
94.1984
20
254.7246
0
VERTEX
8
CUT
10
94.6874
20
255.4363
0
VERTEX
8
CUT
10
95.6148
20
257.6258
0
VERTEX
8
CUT
10
96.0716
20
259.7730
0
VERTEX
8
CUT
10
96.1848
20
262.1399
0
VERTEX
8
CUT
10
95.8612
20
264.5539
0
VERTEX
8
CUT
10
95.1561
20
267.0987
0
VERTEX
8
CUT
10
94.0408
20
269.7947
0
VERTEX
8
CUT
10
91.8481
20
274.1015
0
VERTEX
8
CUT
10
91.8076
20
274.5876
0
VERTEX
8
CUT
10
92.2292
20
274.7736
0
VERTEX
8
CUT
10
93.9885
20
273.5216
0
VERTEX
8
CUT
10
96.3860
20
271.2124
0
VERTEX
8
CUT
10
98.5604
20
268.4623
0
VERTEX
8
CUT
10
98.6861
20
268.2862
0
VERTEX
8
CUT
10
99.6038
20
266.6399
0
VERTEX
8
CUT
10
100.6022
20
264.5654
0
VERTEX
8
CUT
10
101.4901
20
261.9423
0
VERTEX
8
CUT
10
102.1420
20
257.7643
0
VERTEX
8
CUT
10
102.0205
20
255.3463
0
VERTEX
8
CUT
10
101.6817
20
253.4524
0
VERTEX
8
CUT
10
101.6535
20
253.3355
0
VERTEX
8
CUT
10
101.6220
20
253.2048
0
VERTEX
8
CUT
10
101.5894
20
253.0697
0
VERTEX
8
CUT
10
101.4834
20
252.6308
0
VERTEX
8
CUT
10
100.8453
20
250.6753
0
VERTEX
8
CUT
10
99.7958
20
248.4935
0
VERTEX
8
CUT
10
98.4459
20
246.4001
0
VERTEX
8
CUT
10
96.7975
20
244.4575
0
VERTEX
8
CUT
10
94.8971
20
242.7365
0
VERTEX
8
CUT
10
92.6780
20
241.0795
0
VERTEX
8
CUT
10
85.7231
20
237.0947
0
VERTEX
8
CUT
10
83.4039
20
235.5660
0
VERTEX
8
CUT
10
82.8727
20
235.0787
0
VERTEX
8
CUT
10
81.8744
20
234.3834
0
VERTEX
8
CUT
10
80.8233
20
233.1985
0
VERTEX
8
CUT
10
80.2293
20
232.6536
0
VERTEX
8
CUT
10
79.4152
20
231.6114
0
VERTEX
8
CUT
10
79.3375
20
231.5239
0
VERTEX
8
CUT
10
79.3137
20
231.4815
0
VERTEX
8
CUT
10
78.6838
20
230.6750
0
VERTEX
8
CUT
10
78.1073
20
229.3347
0
VERTEX
8
CUT
10
77.9930
20
229.1313
0
VERTEX
8
CUT
10
78.0062
20
229.0996
0
VERTEX
8
CUT
10
77.1917
20
227.2062
0
VERTEX
8
CUT
10
76.6891
20
224.5506
0
VERTEX
8
CUT
10
76.6040
20
221.7932
0
VERTEX
8
CUT
10
77.0840
20
218.5221
0
VERTEX
8
CUT
10
77.0435
20
218.4874
0
VERTEX
8
CUT
10
77.0139
20
217.9251
0
VERTEX
8
CUT
10
77.2984
20
217.0603
0
VERTEX
8
CUT
10
77.6356
20
214.7622
0
VERTEX
8
CUT
10
77.5271
20
214.4435
0
VERTEX
8
CUT
10
77.2245
20
214.3138
0
VERTEX
8
CUT
10
76.2763
20
214.9623
0
VERTEX
8
CUT
10
73.8929
20
217.2284
0
VERTEX
8
CUT
10
71.8518
20
219.6540
0
VERTEX
8
CUT
10
70.7589
20
221.4124
0
VERTEX
8
CUT
10
69.2663
20
224.4922
0
VERTEX
8
CUT
10
68.3776
20
227.4247
0
VERTEX
8
CUT
10
68.1337
20
229.5009
0
VERTEX
8
CUT
10
68.1925
20
232.8337
0
VERTEX
8
CUT
10
68.3911
20
234.4274
0
VERTEX
8
CUT
10
68.4080
20
234.4960
0
VERTEX
8
CUT
10
68.4477
20
234.6576
0
VERTEX
8
CUT
10
68.4499
20
234.6669
0
VERTEX
8
CUT
10
68.5790
20
235.1925
0
VERTEX
8
CUT
10
69.0459
20
236.4946
0
VERTEX
8
CUT
10
70.5281
20
239.0739
0
VERTEX
8
CUT
10
72.0479
20
240.8398
0
VERTEX
8
CUT
10
72.1362
20
240.9175
0
SEQEND
0
ENDSEC
0
EOF
