0
SECTION
2
HEADER
9
$ACADVER
1
AC1009
9
$INSUNITS
70
4
0
ENDSEC
0
SECTION
2
TABLES
0
TABLE
2
LAYER
70
1
0
LAYER
2
CUT
70
0
62
7
6
CONTINUOUS
0
ENDTAB
0
ENDSEC
0
SECTION
2
ENTITIES
0
POLYLINE
8
CUT
66
1
70
1
10
0.0
20
0.0
30
0.0
0
VERTEX
8
CUT
10
0.5715
20
0.3865
0
VERTEX
8
CUT
10
0.3847
20
0.6010
0
VERTEX
8
CUT
10
0.2072
20
13.5582
0
VERTEX
8
CUT
10
0.0000
20
149.9997
0
VERTEX
8
CUT
10
0.0888
20
252.5829
0
VERTEX
8
CUT
10
0.2072
20
286.4418
0
VERTEX
8
CUT
10
0.4465
20
299.5535
0
VERTEX
8
CUT
10
13.5582
20
299.7928
0
VERTEX
8
CUT
10
47.4157
20
299.9112
0
VERTEX
8
CUT
10
149.9997
20
300.0000
0
VERTEX
8
CUT
10
252.5829
20
299.9112
0
VERTEX
8
CUT
10
286.4418
20
299.7928
0
VERTEX
8
CUT
10
299.5535
20
299.5535
0
VERTEX
8
CUT
10
299.7928
20
286.4418
0
VERTEX
8
CUT
10
299.9112
20
252.5843
0
VERTEX
8
CUT
10
300.0000
20
150.0003
0
VERTEX
8
CUT
10
299.9112
20
47.4171
0
VERTEX
8
CUT
10
299.7928
20
13.5582
0
VERTEX
8
CUT
10
299.5535
20
0.4465
0
VERTEX
8
CUT
10
286.4418
20
0.2072
0
VERTEX
8
CUT
10
252.5843
20
0.0888
0
VERTEX
8
CUT
10
150.0003
20
0.0000
0
VERTEX
8
CUT
10
47.4171
20
0.0888
0
SEQEND
0
ENDSEC
0
EOF
