0
SECTION
2
HEADER
9
$ACADVER
1
AC1009
9
$INSUNITS
70
4
0
ENDSEC
0
SECTION
2
TABLES
0
TABLE
2
LAYER
70
1
0
LAYER
2
CUT
70
0
62
7
6
CONTINUOUS
0
ENDTAB
0
ENDSEC
0
SECTION
2
ENTITIES
0
POLYLINE
8
CUT
66
1
70
1
10
0.0
20
0.0
30
0.0
0
VERTEX
8
CUT
10
119.2888
20
99.3347
0
VERTEX
8
CUT
10
120.7441
20
99.8783
0
VERTEX
8
CUT
10
121.8748
20
100.1636
0
VERTEX
8
CUT
10
122.2893
20
100.2483
0
VERTEX
8
CUT
10
123.9077
20
100.4956
0
VERTEX
8
CUT
10
124.2464
20
100.5428
0
VERTEX
8
CUT
10
127.5026
20
100.4653
0
VERTEX
8
CUT
10
131.1068
20
99.7318
0
VERTEX
8
CUT
10
131.9656
20
99.3466
0
VERTEX
8
CUT
10
134.3841
20
98.2376
0
VERTEX
8
CUT
10
136.5130
20
96.7647
0
VERTEX
8
CUT
10
136.5959
20
96.6939
0
VERTEX
8
CUT
10
136.6355
20
96.6601
0
VERTEX
8
CUT
10
136.6381
20
96.6579
0
VERTEX
8
CUT
10
136.6540
20
96.6442
0
VERTEX
8
CUT
10
143.8980
20
90.2503
0
VERTEX
8
CUT
10
145.2443
20
89.3409
0
VERTEX
8
CUT
10
145.3977
20
89.2231
0
VERTEX
8
CUT
10
145.6176
20
89.0888
0
VERTEX
8
CUT
10
147.2179
20
88.0078
0
VERTEX
8
CUT
10
147.7803
20
87.7682
0
VERTEX
8
CUT
10
148.1575
20
87.5379
0
VERTEX
8
CUT
10
149.7249
20
86.9256
0
VERTEX
8
CUT
10
149.7928
20
86.8697
0
VERTEX
8
CUT
10
150.5107
20
86.6052
0
VERTEX
8
CUT
10
150.8931
20
86.4423
0
VERTEX
8
CUT
10
151.0382
20
86.4108
0
VERTEX
8
CUT
10
151.4798
20
86.2481
0
VERTEX
8
CUT
10
152.1441
20
86.1710
0
VERTEX
8
CUT
10
153.5492
20
85.8663
0
VERTEX
8
CUT
10
154.4529
20
85.8270
0
VERTEX
8
CUT
10
155.2314
20
85.7782
0
VERTEX
8
CUT
10
155.3603
20
85.7875
0
VERTEX
8
CUT
10
156.2309
20
85.7496
0
VERTEX
8
CUT
10
157.9255
20
85.9726
0
VERTEX
8
CUT
10
158.0279
20
85.9800
0
VERTEX
8
CUT
10
158.1074
20
85.9965
0
VERTEX
8
CUT
10
158.8924
20
86.0998
0
VERTEX
8
CUT
10
159.4600
20
86.2781
0
VERTEX
8
CUT
10
159.4659
20
86.2793
0
VERTEX
8
CUT
10
159.4815
20
86.2849
0
VERTEX
8
CUT
10
161.4012
20
86.8878
0
VERTEX
8
CUT
10
161.4884
20
86.9347
0
VERTEX
8
CUT
10
161.5724
20
86.9584
0
VERTEX
8
CUT
10
161.8619
20
87.1270
0
VERTEX
8
CUT
10
162.0361
20
87.1886
0
VERTEX
8
CUT
10
162.9188
20
87.7033
0
VERTEX
8
CUT
10
163.7354
20
88.1421
0
VERTEX
8
CUT
10
165.8970
20
89.8363
0
VERTEX
8
CUT
10
167.7803
20
91.9203
0
VERTEX
8
CUT
10
168.8469
20
93.5714
0
VERTEX
8
CUT
10
172.5135
20
100.4602
0
VERTEX
8
CUT
10
174.0683
20
102.7359
0
VERTEX
8
CUT
10
174.5167
20
103.2266
0
VERTEX
8
CUT
10
175.8414
20
104.4222
0
VERTEX
8
CUT
10
176.0490
20
104.6096
0
VERTEX
8
CUT
10
176.2037
20
104.7492
0
VERTEX
8
CUT
10
176.4222
20
104.9465
0
VERTEX
8
CUT
10
177.8670
20
105.8599
0
VERTEX
8
CUT
10
178.1160
20
105.9167
0
VERTEX
8
CUT
10
178.2333
20
105.9009
0
VERTEX
8
CUT
10
178.3974
20
105.8788
0
VERTEX
8
CUT
10
178.6077
20
105.8506
0
VERTEX
8
CUT
10
178.8502
20
105.8180
0
VERTEX
8
CUT
10
179.2357
20
105.6637
0
VERTEX
8
CUT
10
180.6108
20
103.8385
0
VERTEX
8
CUT
10
182.5701
20
99.8017
0
VERTEX
8
CUT
10
183.4095
20
96.4883
0
VERTEX
8
CUT
10
183.5402
20
94.9763
0
VERTEX
8
CUT
10
183.5572
20
92.6750
0
VERTEX
8
CUT
10
183.5015
20
91.5589
0
VERTEX
8
CUT
10
183.0798
20
89.0774
0
VERTEX
8
CUT
10
182.3301
20
86.5683
0
VERTEX
8
CUT
10
181.2565
20
84.0974
0
VERTEX
8
CUT
10
179.9036
20
81.6270
0
VERTEX
8
CUT
10
175.3125
20
74.9011
0
VERTEX
8
CUT
10
174.4936
20
73.1617
0
VERTEX
8
CUT
10
174.0734
20
72.3338
0
VERTEX
8
CUT
10
173.9381
20
71.9818
0
VERTEX
8
CUT
10
172.9396
20
69.8611
0
VERTEX
8
CUT
10
172.2977
20
69.0542
0
VERTEX
8
CUT
10
171.6539
20
69.4194
0
VERTEX
8
CUT
10
171.3173
20
70.0136
0
VERTEX
8
CUT
10
170.9129
20
71.1334
0
VERTEX
8
CUT
10
170.8594
20
71.2815
0
VERTEX
8
CUT
10
170.8524
20
71.3009
0
VERTEX
8
CUT
10
170.8500
20
71.3075
0
VERTEX
8
CUT
10
170.4197
20
72.9083
0
VERTEX
8
CUT
10
170.4199
20
73.1279
0
VERTEX
8
CUT
10
170.4202
20
73.3472
0
VERTEX
8
CUT
10
170.4206
20
73.7411
0
VERTEX
8
CUT
10
170.4231
20
76.1737
0
VERTEX
8
CUT
10
170.4406
20
76.3111
0
VERTEX
8
CUT
10
170.6883
20
77.7834
0
VERTEX
8
CUT
10
170.8370
20
78.3145
0
VERTEX
8
CUT
10
171.8297
20
80.8311
0
VERTEX
8
CUT
10
174.8958
20
85.5811
0
VERTEX
8
CUT
10
175.0746
20
85.8380
0
VERTEX
8
CUT
10
175.1240
20
85.9346
0
VERTEX
8
CUT
10
175.2525
20
86.1338
0
VERTEX
8
CUT
10
176.7309
20
89.0606
0
VERTEX
8
CUT
10
177.0247
20
90.3289
0
VERTEX
8
CUT
10
177.1083
20
90.5703
0
VERTEX
8
CUT
10
177.2407
20
91.2611
0
VERTEX
8
CUT
10
177.4344
20
92.0969
0
VERTEX
8
CUT
10
177.5488
20
93.6516
0
VERTEX
8
CUT
10
177.5515
20
93.6764
0
VERTEX
8
CUT
10
177.5507
20
93.6774
0
VERTEX
8
CUT
10
177.5902
20
94.2143
0
VERTEX
8
CUT
10
177.3955
20
94.5325
0
VERTEX
8
CUT
10
176.8786
20
94.4130
0
VERTEX
8
CUT
10
175.6895
20
91.8772
0
VERTEX
8
CUT
10
174.0816
20
89.5548
0
VERTEX
8
CUT
10
169.9364
20
85.4373
0
VERTEX
8
CUT
10
167.6322
20
83.9390
0
VERTEX
8
CUT
10
163.0027
20
81.5059
0
VERTEX
8
CUT
10
162.9817
20
81.5054
0
VERTEX
8
CUT
10
162.8626
20
81.4323
0
VERTEX
8
CUT
10
161.1986
20
80.5577
0
VERTEX
8
CUT
10
155.0370
20
75.8383
0
VERTEX
8
CUT
10
153.2633
20
74.6966
0
VERTEX
8
CUT
10
152.0511
20
74.1741
0
VERTEX
8
CUT
10
151.6228
20
74.2700
0
VERTEX
8
CUT
10
151.5154
20
74.5875
0
VERTEX
8
CUT
10
152.0343
20
75.8096
0
VERTEX
8
CUT
10
153.2665
20
77.7910
0
VERTEX
8
CUT
10
153.2359
20
78.1170
0
VERTEX
8
CUT
10
153.1737
20
78.1604
0
VERTEX
8
CUT
10
153.1669
20
78.1977
0
VERTEX
8
CUT
10
153.1358
20
78.1868
0
VERTEX
8
CUT
10
152.9674
20
78.3044
0
VERTEX
8
CUT
10
149.4639
20
76.6635
0
VERTEX
8
CUT
10
145.7227
20
75.7432
0
VERTEX
8
CUT
10
140.8529
20
75.4723
0
VERTEX
8
CUT
10
136.5685
20
75.7148
0
VERTEX
8
CUT
10
136.2701
20
75.8160
0
VERTEX
8
CUT
10
136.0739
20
76.0572
0
VERTEX
8
CUT
10
136.0908
20
76.4591
0
VERTEX
8
CUT
10
136.6349
20
77.2632
0
VERTEX
8
CUT
10
139.8091
20
79.8144
0
VERTEX
8
CUT
10
142.1117
20
81.0526
0
VERTEX
8
CUT
10
142.2651
20
81.3122
0
VERTEX
8
CUT
10
142.1620
20
81.6328
0
VERTEX
8
CUT
10
127.5568
20
84.4437
0
VERTEX
8
CUT
10
126.5451
20
84.7333
0
VERTEX
8
CUT
10
126.2104
20
85.0351
0
VERTEX
8
CUT
10
126.4012
20
85.4672
0
VERTEX
8
CUT
10
127.5596
20
86.2693
0
VERTEX
8
CUT
10
129.9142
20
87.3577
0
VERTEX
8
CUT
10
130.9759
20
87.7178
0
VERTEX
8
CUT
10
131.5238
20
87.8490
0
VERTEX
8
CUT
10
135.9890
20
88.1505
0
VERTEX
8
CUT
10
136.2474
20
88.4500
0
VERTEX
8
CUT
10
136.1106
20
88.8211
0
VERTEX
8
CUT
10
135.5354
20
89.1764
0
VERTEX
8
CUT
10
135.3791
20
89.3262
0
VERTEX
8
CUT
10
135.2234
20
89.3691
0
VERTEX
8
CUT
10
132.1457
20
91.2704
0
VERTEX
8
CUT
10
127.6485
20
93.5417
0
VERTEX
8
CUT
10
127.3566
20
93.6949
0
VERTEX
8
CUT
10
127.1680
20
93.7844
0
VERTEX
8
CUT
10
123.1948
20
95.7910
0
VERTEX
8
CUT
10
118.5717
20
97.5817
0
VERTEX
8
CUT
10
117.9225
20
98.2220
0
VERTEX
8
CUT
10
117.9236
20
98.2363
0
VERTEX
8
CUT
10
118.1117
20
98.6081
0
VERTEX
8
CUT
10
118.8948
20
99.1689
0
SEQEND
0
POLYLINE
8
CUT
66
1
70
1
10
0.0
20
0.0
30
0.0
0
VERTEX
8
CUT
10
213.2776
20
117.4785
0
VERTEX
8
CUT
10
213.3512
20
117.4740
0
VERTEX
8
CUT
10
213.3644
20
118.3562
0
VERTEX
8
CUT
10
212.8819
20
119.5666
0
VERTEX
8
CUT
10
210.7069
20
122.4464
0
VERTEX
8
CUT
10
209.1559
20
125.9591
0
VERTEX
8
CUT
10
206.5683
20
129.9540
0
VERTEX
8
CUT
10
205.9684
20
132.1467
0
VERTEX
8
CUT
10
205.7582
20
136.4308
0
VERTEX
8
CUT
10
206.1185
20
138.1204
0
VERTEX
8
CUT
10
206.5596
20
139.1311
0
VERTEX
8
CUT
10
211.0591
20
146.2650
0
VERTEX
8
CUT
10
212.8875
20
148.3671
0
VERTEX
8
CUT
10
213.8302
20
148.8842
0
VERTEX
8
CUT
10
214.4412
20
148.9626
0
VERTEX
8
CUT
10
214.7949
20
148.9646
0
VERTEX
8
CUT
10
215.6659
20
148.6595
0
VERTEX
8
CUT
10
215.8808
20
148.5766
0
VERTEX
8
CUT
10
216.0945
20
148.4328
0
VERTEX
8
CUT
10
217.8742
20
147.1327
0
VERTEX
8
CUT
10
217.8768
20
147.1307
0
VERTEX
8
CUT
10
217.8859
20
147.1241
0
VERTEX
8
CUT
10
217.8860
20
147.1240
0
VERTEX
8
CUT
10
218.3157
20
146.7407
0
VERTEX
8
CUT
10
218.3217
20
146.7585
0
VERTEX
8
CUT
10
218.3377
20
146.7940
0
VERTEX
8
CUT
10
218.3834
20
146.7607
0
VERTEX
8
CUT
10
218.6359
20
146.6592
0
VERTEX
8
CUT
10
218.6488
20
146.6468
0
VERTEX
8
CUT
10
218.8936
20
146.5442
0
VERTEX
8
CUT
10
218.9819
20
146.4685
0
VERTEX
8
CUT
10
219.0138
20
146.4737
0
VERTEX
8
CUT
10
219.0515
20
146.4402
0
VERTEX
8
CUT
10
219.0863
20
146.4635
0
VERTEX
8
CUT
10
219.1929
20
146.4188
0
VERTEX
8
CUT
10
219.2069
20
146.4296
0
VERTEX
8
CUT
10
219.2283
20
146.4210
0
VERTEX
8
CUT
10
219.3296
20
146.4839
0
VERTEX
8
CUT
10
219.3124
20
146.5116
0
VERTEX
8
CUT
10
219.3293
20
146.5247
0
VERTEX
8
CUT
10
219.4095
20
146.5377
0
VERTEX
8
CUT
10
220.4102
20
147.3482
0
VERTEX
8
CUT
10
220.6233
20
147.4906
0
VERTEX
8
CUT
10
220.7045
20
147.5865
0
VERTEX
8
CUT
10
220.8922
20
147.7385
0
VERTEX
8
CUT
10
222.5310
20
149.0113
0
VERTEX
8
CUT
10
224.4714
20
150.8708
0
VERTEX
8
CUT
10
225.3489
20
151.6538
0
VERTEX
8
CUT
10
225.9127
20
152.2519
0
VERTEX
8
CUT
10
227.4562
20
153.7311
0
VERTEX
8
CUT
10
229.2630
20
155.8065
0
VERTEX
8
CUT
10
230.2026
20
156.8033
0
VERTEX
8
CUT
10
230.7556
20
157.5210
0
VERTEX
8
CUT
10
232.0313
20
158.9863
0
VERTEX
8
CUT
10
234.0192
20
161.7559
0
VERTEX
8
CUT
10
234.5693
20
162.4698
0
VERTEX
8
CUT
10
234.5884
20
162.4999
0
VERTEX
8
CUT
10
237.0010
20
166.3043
0
VERTEX
8
CUT
10
237.6297
20
167.2371
0
VERTEX
8
CUT
10
237.8301
20
167.6117
0
VERTEX
8
CUT
10
238.3953
20
168.5029
0
VERTEX
8
CUT
10
241.5356
20
174.3975
0
VERTEX
8
CUT
10
242.0352
20
175.0463
0
VERTEX
8
CUT
10
242.1282
20
175.0138
0
VERTEX
8
CUT
10
242.5423
20
174.8450
0
VERTEX
8
CUT
10
242.6511
20
174.7942
0
VERTEX
8
CUT
10
242.7178
20
174.7545
0
VERTEX
8
CUT
10
242.5781
20
173.7260
0
VERTEX
8
CUT
10
241.4592
20
170.6669
0
VERTEX
8
CUT
10
239.1955
20
166.0894
0
VERTEX
8
CUT
10
238.6504
20
165.1009
0
VERTEX
8
CUT
10
237.0454
20
162.3275
0
VERTEX
8
CUT
10
236.6511
20
161.7426
0
VERTEX
8
CUT
10
236.3667
20
161.3434
0
VERTEX
8
CUT
10
236.3000
20
161.3812
0
VERTEX
8
CUT
10
235.8228
20
160.5799
0
VERTEX
8
CUT
10
235.4366
20
160.0378
0
VERTEX
8
CUT
10
233.8488
20
157.8424
0
VERTEX
8
CUT
10
233.7131
20
157.6800
0
VERTEX
8
CUT
10
233.4930
20
157.4167
0
VERTEX
8
CUT
10
233.0611
20
156.9000
0
VERTEX
8
CUT
10
230.5998
20
153.9554
0
VERTEX
8
CUT
10
230.4924
20
153.8339
0
VERTEX
8
CUT
10
229.0522
20
152.3374
0
VERTEX
8
CUT
10
224.5796
20
148.0413
0
VERTEX
8
CUT
10
220.6856
20
144.8052
0
VERTEX
8
CUT
10
220.6702
20
144.8244
0
VERTEX
8
CUT
10
220.5731
20
144.7424
0
VERTEX
8
CUT
10
220.5207
20
144.2767
0
VERTEX
8
CUT
10
220.6873
20
143.8937
0
VERTEX
8
CUT
10
220.6294
20
143.8877
0
VERTEX
8
CUT
10
220.5470
20
143.8873
0
VERTEX
8
CUT
10
220.5610
20
143.5138
0
VERTEX
8
CUT
10
220.5279
20
143.3110
0
VERTEX
8
CUT
10
220.5579
20
143.3618
0
VERTEX
8
CUT
10
220.6289
20
143.4583
0
VERTEX
8
CUT
10
220.7090
20
143.5473
0
VERTEX
8
CUT
10
220.7977
20
143.6278
0
VERTEX
8
CUT
10
220.8017
20
143.6307
0
VERTEX
8
CUT
10
220.9570
20
143.2736
0
VERTEX
8
CUT
10
221.5058
20
142.8653
0
VERTEX
8
CUT
10
221.6430
20
142.9237
0
VERTEX
8
CUT
10
221.6099
20
143.0061
0
VERTEX
8
CUT
10
221.5766
20
143.1211
0
VERTEX
8
CUT
10
221.5731
20
143.1402
0
VERTEX
8
CUT
10
221.9722
20
143.1576
0
VERTEX
8
CUT
10
223.2307
20
143.7122
0
VERTEX
8
CUT
10
225.7490
20
145.0765
0
VERTEX
8
CUT
10
225.7975
20
145.1000
0
VERTEX
8
CUT
10
225.8707
20
145.1425
0
VERTEX
8
CUT
10
226.3996
20
145.4290
0
VERTEX
8
CUT
10
226.3911
20
145.4439
0
VERTEX
8
CUT
10
227.4684
20
146.0680
0
VERTEX
8
CUT
10
227.8330
20
146.2504
0
VERTEX
8
CUT
10
228.0790
20
146.3954
0
VERTEX
8
CUT
10
228.5944
20
146.6602
0
VERTEX
8
CUT
10
233.7585
20
149.6697
0
VERTEX
8
CUT
10
234.2416
20
149.9918
0
VERTEX
8
CUT
10
234.3421
20
150.0500
0
VERTEX
8
CUT
10
234.5936
20
150.2265
0
VERTEX
8
CUT
10
238.0271
20
152.5157
0
VERTEX
8
CUT
10
239.3905
20
153.5790
0
VERTEX
8
CUT
10
240.0169
20
154.0090
0
VERTEX
8
CUT
10
240.2716
20
154.2105
0
VERTEX
8
CUT
10
242.1694
20
155.5421
0
VERTEX
8
CUT
10
244.9390
20
157.9035
0
VERTEX
8
CUT
10
245.1557
20
158.0750
0
VERTEX
8
CUT
10
245.9277
20
158.6770
0
VERTEX
8
CUT
10
247.3271
20
159.9397
0
VERTEX
8
CUT
10
249.1986
20
161.5353
0
VERTEX
8
CUT
10
250.4441
20
162.8284
0
VERTEX
8
CUT
10
250.6494
20
163.0146
0
VERTEX
8
CUT
10
251.1509
20
163.5448
0
VERTEX
8
CUT
10
252.9563
20
165.3499
0
VERTEX
8
CUT
10
254.1240
20
166.6485
0
VERTEX
8
CUT
10
255.4262
20
168.0004
0
VERTEX
8
CUT
10
256.0139
20
168.7505
0
VERTEX
8
CUT
10
256.1297
20
168.8792
0
VERTEX
8
CUT
10
259.0089
20
172.4635
0
VERTEX
8
CUT
10
259.8635
20
173.6635
0
VERTEX
8
CUT
10
260.7438
20
174.7869
0
VERTEX
8
CUT
10
261.2645
20
175.6306
0
VERTEX
8
CUT
10
261.6358
20
176.1519
0
VERTEX
8
CUT
10
262.4597
20
177.5591
0
VERTEX
8
CUT
10
263.0213
20
178.3922
0
VERTEX
8
CUT
10
263.5786
20
179.3797
0
VERTEX
8
CUT
10
265.1938
20
181.9964
0
VERTEX
8
CUT
10
265.8333
20
183.3745
0
VERTEX
8
CUT
10
266.1361
20
183.9109
0
VERTEX
8
CUT
10
267.5548
20
187.0836
0
VERTEX
8
CUT
10
268.6732
20
189.4932
0
VERTEX
8
CUT
10
269.1721
20
191.0502
0
VERTEX
8
CUT
10
269.8308
20
192.9367
0
VERTEX
8
CUT
10
269.7822
20
192.9550
0
VERTEX
8
CUT
10
270.4342
20
194.9222
0
VERTEX
8
CUT
10
271.8241
20
200.6301
0
VERTEX
8
CUT
10
272.4108
20
204.2622
0
VERTEX
8
CUT
10
272.4239
20
204.2675
0
VERTEX
8
CUT
10
272.5326
20
204.2999
0
VERTEX
8
CUT
10
272.6438
20
204.3219
0
VERTEX
8
CUT
10
272.7566
20
204.3333
0
VERTEX
8
CUT
10
272.8700
20
204.3340
0
VERTEX
8
CUT
10
272.9829
20
204.3240
0
VERTEX
8
CUT
10
273.4864
20
204.2554
0
VERTEX
8
CUT
10
273.6056
20
204.2330
0
VERTEX
8
CUT
10
273.7219
20
204.1986
0
VERTEX
8
CUT
10
273.7647
20
204.1811
0
VERTEX
8
CUT
10
273.5379
20
199.9868
0
VERTEX
8
CUT
10
273.0293
20
196.6468
0
VERTEX
8
CUT
10
271.8168
20
192.3216
0
VERTEX
8
CUT
10
271.7987
20
192.3261
0
VERTEX
8
CUT
10
271.6383
20
191.7370
0
VERTEX
8
CUT
10
269.4067
20
185.4767
0
VERTEX
8
CUT
10
268.3349
20
183.2882
0
VERTEX
8
CUT
10
265.6917
20
178.0926
0
VERTEX
8
CUT
10
265.6848
20
178.0819
0
VERTEX
8
CUT
10
265.6619
20
178.0458
0
VERTEX
8
CUT
10
265.6606
20
178.0438
0
VERTEX
8
CUT
10
265.6472
20
178.0228
0
VERTEX
8
CUT
10
261.1432
20
171.2269
0
VERTEX
8
CUT
10
255.7418
20
164.7307
0
VERTEX
8
CUT
10
250.3060
20
159.4002
0
VERTEX
8
CUT
10
248.9208
20
158.1390
0
VERTEX
8
CUT
10
243.0429
20
153.3942
0
VERTEX
8
CUT
10
242.5923
20
153.0658
0
VERTEX
8
CUT
10
242.0364
20
152.6606
0
VERTEX
8
CUT
10
241.8798
20
152.5465
0
VERTEX
8
CUT
10
241.7738
20
152.4692
0
VERTEX
8
CUT
10
241.6856
20
152.4050
0
VERTEX
8
CUT
10
241.5186
20
152.2833
0
VERTEX
8
CUT
10
235.6866
20
148.3732
0
VERTEX
8
CUT
10
234.5272
20
147.6173
0
VERTEX
8
CUT
10
234.2996
20
147.4756
0
VERTEX
8
CUT
10
227.3983
20
143.6096
0
VERTEX
8
CUT
10
227.3786
20
143.6397
0
VERTEX
8
CUT
10
227.3638
20
143.6679
0
VERTEX
8
CUT
10
223.1827
20
141.3548
0
VERTEX
8
CUT
10
222.8668
20
141.0920
0
VERTEX
8
CUT
10
222.7562
20
141.0314
0
VERTEX
8
CUT
10
222.7293
20
140.9777
0
VERTEX
8
CUT
10
222.6596
20
140.9197
0
VERTEX
8
CUT
10
222.6546
20
140.9259
0
VERTEX
8
CUT
10
222.5907
20
141.0225
0
VERTEX
8
CUT
10
222.5757
20
141.0506
0
VERTEX
8
CUT
10
222.4933
20
141.0045
0
VERTEX
8
CUT
10
222.3587
20
140.5081
0
VERTEX
8
CUT
10
222.6125
20
139.8698
0
VERTEX
8
CUT
10
222.5358
20
139.8720
0
VERTEX
8
CUT
10
222.6195
20
139.3750
0
VERTEX
8
CUT
10
222.6530
20
139.4503
0
VERTEX
8
CUT
10
222.7100
20
139.5512
0
VERTEX
8
CUT
10
222.7286
20
139.5778
0
VERTEX
8
CUT
10
222.7307
20
139.5726
0
VERTEX
8
CUT
10
222.7662
20
139.6289
0
VERTEX
8
CUT
10
222.7783
20
139.6482
0
VERTEX
8
CUT
10
222.7907
20
139.6627
0
VERTEX
8
CUT
10
222.8386
20
139.5992
0
VERTEX
8
CUT
10
222.8845
20
139.4600
0
VERTEX
8
CUT
10
223.0018
20
139.3642
0
VERTEX
8
CUT
10
223.0504
20
139.3185
0
VERTEX
8
CUT
10
223.2593
20
139.0417
0
VERTEX
8
CUT
10
223.3929
20
138.9967
0
VERTEX
8
CUT
10
223.3988
20
138.9911
0
VERTEX
8
CUT
10
223.4053
20
138.9925
0
VERTEX
8
CUT
10
223.6000
20
138.9268
0
VERTEX
8
CUT
10
226.6297
20
139.7727
0
VERTEX
8
CUT
10
227.5414
20
139.9896
0
VERTEX
8
CUT
10
229.6809
20
140.6245
0
VERTEX
8
CUT
10
235.1560
20
142.1530
0
VERTEX
8
CUT
10
242.8197
20
144.8353
0
VERTEX
8
CUT
10
246.5747
20
146.3919
0
VERTEX
8
CUT
10
246.6246
20
146.4107
0
VERTEX
8
CUT
10
246.6692
20
146.4311
0
VERTEX
8
CUT
10
250.0869
20
147.8478
0
VERTEX
8
CUT
10
253.0358
20
149.3092
0
VERTEX
8
CUT
10
253.3362
20
149.4428
0
VERTEX
8
CUT
10
253.7195
20
149.6479
0
VERTEX
8
CUT
10
254.3705
20
149.9450
0
VERTEX
8
CUT
10
254.8704
20
150.2183
0
VERTEX
8
CUT
10
256.9414
20
151.2446
0
VERTEX
8
CUT
10
259.7716
20
152.8875
0
VERTEX
8
CUT
10
260.8401
20
153.4595
0
VERTEX
8
CUT
10
261.0961
20
153.6224
0
VERTEX
8
CUT
10
261.6065
20
153.9015
0
VERTEX
8
CUT
10
262.2697
20
154.3376
0
VERTEX
8
CUT
10
263.3517
20
154.9657
0
VERTEX
8
CUT
10
265.6803
20
156.5406
0
VERTEX
8
CUT
10
267.7507
20
157.8585
0
VERTEX
8
CUT
10
268.7045
20
158.5858
0
VERTEX
8
CUT
10
269.3764
20
159.0401
0
VERTEX
8
CUT
10
271.3214
20
160.5812
0
VERTEX
8
CUT
10
274.1006
20
162.7003
0
VERTEX
8
CUT
10
274.8177
20
163.3513
0
VERTEX
8
CUT
10
274.9286
20
163.4392
0
VERTEX
8
CUT
10
275.6627
20
164.1183
0
VERTEX
8
CUT
10
276.0180
20
164.4409
0
VERTEX
8
CUT
10
276.1556
20
164.5658
0
VERTEX
8
CUT
10
276.1829
20
164.5905
0
VERTEX
8
CUT
10
276.2295
20
164.6328
0
VERTEX
8
CUT
10
278.5067
20
166.6998
0
VERTEX
8
CUT
10
278.4494
20
166.7659
0
VERTEX
8
CUT
10
278.4417
20
166.7768
0
VERTEX
8
CUT
10
280.4216
20
168.6059
0
VERTEX
8
CUT
10
286.6637
20
175.4376
0
VERTEX
8
CUT
10
287.2363
20
175.8641
0
VERTEX
8
CUT
10
287.2464
20
175.8609
0
VERTEX
8
CUT
10
287.3531
20
175.8150
0
VERTEX
8
CUT
10
287.4549
20
175.7590
0
VERTEX
8
CUT
10
287.5509
20
175.6934
0
VERTEX
8
CUT
10
287.9078
20
175.4232
0
VERTEX
8
CUT
10
287.9995
20
175.3463
0
VERTEX
8
CUT
10
288.0831
20
175.2607
0
VERTEX
8
CUT
10
288.1577
20
175.1671
0
VERTEX
8
CUT
10
288.2226
20
175.0666
0
VERTEX
8
CUT
10
288.2772
20
174.9602
0
VERTEX
8
CUT
10
288.3210
20
174.8488
0
VERTEX
8
CUT
10
288.3534
20
174.7336
0
VERTEX
8
CUT
10
288.3742
20
174.6158
0
VERTEX
8
CUT
10
288.3756
20
174.6044
0
VERTEX
8
CUT
10
288.2949
20
174.6576
0
VERTEX
8
CUT
10
287.9819
20
174.5430
0
VERTEX
8
CUT
10
286.3340
20
172.2673
0
VERTEX
8
CUT
10
283.4889
20
168.9187
0
VERTEX
8
CUT
10
280.2349
20
165.3688
0
VERTEX
8
CUT
10
280.0246
20
165.1666
0
VERTEX
8
CUT
10
280.0244
20
165.1668
0
VERTEX
8
CUT
10
279.9592
20
165.2250
0
VERTEX
8
CUT
10
279.7576
20
165.0096
0
VERTEX
8
CUT
10
277.7112
20
163.0785
0
VERTEX
8
CUT
10
277.6497
20
163.1324
0
VERTEX
8
CUT
10
277.6295
20
163.1539
0
VERTEX
8
CUT
10
275.7145
20
161.2635
0
VERTEX
8
CUT
10
270.5311
20
157.0791
0
VERTEX
8
CUT
10
270.5037
20
157.0592
0
VERTEX
8
CUT
10
270.4438
20
157.0156
0
VERTEX
8
CUT
10
270.1890
20
156.8303
0
VERTEX
8
CUT
10
269.7195
20
156.4889
0
VERTEX
8
CUT
10
262.8497
20
151.9554
0
VERTEX
8
CUT
10
254.7685
20
147.5584
0
VERTEX
8
CUT
10
245.9943
20
143.7055
0
VERTEX
8
CUT
10
238.6403
20
141.0719
0
VERTEX
8
CUT
10
236.6022
20
140.4333
0
VERTEX
8
CUT
10
236.1343
20
140.2867
0
VERTEX
8
CUT
10
236.0951
20
140.2744
0
VERTEX
8
CUT
10
236.0001
20
140.2446
0
VERTEX
8
CUT
10
224.2491
20
136.8845
0
VERTEX
8
CUT
10
224.0736
20
136.7069
0
VERTEX
8
CUT
10
224.0688
20
136.7050
0
VERTEX
8
CUT
10
223.7122
20
136.3677
0
VERTEX
8
CUT
10
223.7106
20
136.3393
0
VERTEX
8
CUT
10
223.6938
20
136.3224
0
VERTEX
8
CUT
10
223.6962
20
136.0961
0
VERTEX
8
CUT
10
223.6890
20
135.9733
0
VERTEX
8
CUT
10
223.6131
20
136.0141
0
VERTEX
8
CUT
10
223.5306
20
136.0696
0
VERTEX
8
CUT
10
223.5154
20
136.0798
0
VERTEX
8
CUT
10
223.4246
20
136.1547
0
VERTEX
8
CUT
10
223.4171
20
136.1622
0
VERTEX
8
CUT
10
223.4057
20
136.0893
0
VERTEX
8
CUT
10
223.3449
20
136.1398
0
VERTEX
8
CUT
10
223.2975
20
136.1879
0
VERTEX
8
CUT
10
222.4505
20
134.6310
0
VERTEX
8
CUT
10
222.7795
20
134.3031
0
VERTEX
8
CUT
10
223.9367
20
134.2690
0
VERTEX
8
CUT
10
223.9378
20
134.2885
0
VERTEX
8
CUT
10
224.1878
20
134.2859
0
VERTEX
8
CUT
10
224.1889
20
134.3499
0
VERTEX
8
CUT
10
224.1985
20
134.4332
0
VERTEX
8
CUT
10
224.3301
20
134.4073
0
VERTEX
8
CUT
10
224.4225
20
134.3739
0
VERTEX
8
CUT
10
224.5226
20
134.3696
0
VERTEX
8
CUT
10
225.0855
20
134.2592
0
VERTEX
8
CUT
10
226.1477
20
134.2990
0
VERTEX
8
CUT
10
226.4335
20
134.2865
0
VERTEX
8
CUT
10
227.1744
20
134.3374
0
VERTEX
8
CUT
10
232.1092
20
134.5223
0
VERTEX
8
CUT
10
239.7076
20
135.2317
0
VERTEX
8
CUT
10
246.9492
20
136.1773
0
VERTEX
8
CUT
10
253.8829
20
137.3922
0
VERTEX
8
CUT
10
260.4738
20
138.8706
0
VERTEX
8
CUT
10
266.7475
20
140.6378
0
VERTEX
8
CUT
10
271.7482
20
142.3288
0
VERTEX
8
CUT
10
271.7370
20
142.3616
0
VERTEX
8
CUT
10
271.9973
20
142.4471
0
VERTEX
8
CUT
10
273.4219
20
143.0115
0
VERTEX
8
CUT
10
274.9882
20
143.5614
0
VERTEX
8
CUT
10
277.1284
20
144.4798
0
VERTEX
8
CUT
10
277.9635
20
144.8106
0
VERTEX
8
CUT
10
278.2995
20
144.9645
0
VERTEX
8
CUT
10
278.2927
20
144.9794
0
VERTEX
8
CUT
10
281.2504
20
146.2485
0
VERTEX
8
CUT
10
288.2927
20
149.7826
0
VERTEX
8
CUT
10
289.3517
20
150.1399
0
VERTEX
8
CUT
10
289.5420
20
150.1578
0
VERTEX
8
CUT
10
289.5872
20
150.1085
0
VERTEX
8
CUT
10
289.6569
20
150.0158
0
VERTEX
8
CUT
10
289.7173
20
149.9168
0
VERTEX
8
CUT
10
289.9487
20
149.4931
0
VERTEX
8
CUT
10
289.9785
20
149.4315
0
VERTEX
8
CUT
10
289.9095
20
149.0875
0
VERTEX
8
CUT
10
288.0417
20
147.7760
0
VERTEX
8
CUT
10
288.0283
20
147.7674
0
VERTEX
8
CUT
10
287.9877
20
147.7414
0
VERTEX
8
CUT
10
287.8080
20
147.6262
0
VERTEX
8
CUT
10
287.1190
20
147.1845
0
VERTEX
8
CUT
10
282.3457
20
144.5509
0
VERTEX
8
CUT
10
279.1440
20
143.0828
0
VERTEX
8
CUT
10
279.1337
20
143.1013
0
VERTEX
8
CUT
10
279.1216
20
143.1289
0
VERTEX
8
CUT
10
277.2671
20
142.2628
0
VERTEX
8
CUT
10
274.5157
20
141.1427
0
VERTEX
8
CUT
10
272.5097
20
140.3514
0
VERTEX
8
CUT
10
272.4834
20
140.4117
0
VERTEX
8
CUT
10
272.0640
20
140.2409
0
VERTEX
8
CUT
10
264.2067
20
137.6915
0
VERTEX
8
CUT
10
256.6086
20
135.7585
0
VERTEX
8
CUT
10
255.2915
20
135.4930
0
VERTEX
8
CUT
10
254.3170
20
135.3121
0
VERTEX
8
CUT
10
245.4218
20
133.8007
0
VERTEX
8
CUT
10
244.6385
20
133.7125
0
VERTEX
8
CUT
10
233.7483
20
132.5953
0
VERTEX
8
CUT
10
224.2830
20
132.1485
0
VERTEX
8
CUT
10
224.2779
20
132.2154
0
VERTEX
8
CUT
10
224.2222
20
132.2124
0
VERTEX
8
CUT
10
224.0399
20
132.1370
0
VERTEX
8
CUT
10
223.9656
20
132.1335
0
VERTEX
8
CUT
10
223.8814
20
132.1296
0
VERTEX
8
CUT
10
223.6105
20
131.9869
0
VERTEX
8
CUT
10
223.5038
20
131.7631
0
VERTEX
8
CUT
10
223.5017
20
131.7623
0
VERTEX
8
CUT
10
223.4955
20
131.7456
0
VERTEX
8
CUT
10
223.4382
20
131.6255
0
VERTEX
8
CUT
10
223.3887
20
131.5637
0
VERTEX
8
CUT
10
223.3784
20
131.5002
0
VERTEX
8
CUT
10
223.3649
20
131.4718
0
VERTEX
8
CUT
10
223.3543
20
131.3699
0
VERTEX
8
CUT
10
223.1972
20
130.9517
0
VERTEX
8
CUT
10
223.2015
20
130.4925
0
VERTEX
8
CUT
10
223.1953
20
130.4733
0
VERTEX
8
CUT
10
223.1682
20
130.3888
0
VERTEX
8
CUT
10
223.1678
20
130.3878
0
VERTEX
8
CUT
10
223.2263
20
130.1380
0
VERTEX
8
CUT
10
223.2195
20
130.0723
0
VERTEX
8
CUT
10
223.2615
20
129.9878
0
VERTEX
8
CUT
10
223.3169
20
129.7517
0
VERTEX
8
CUT
10
223.3923
20
129.7249
0
VERTEX
8
CUT
10
223.4475
20
129.6137
0
VERTEX
8
CUT
10
224.9796
20
129.0363
0
VERTEX
8
CUT
10
226.2042
20
128.7218
0
VERTEX
8
CUT
10
226.2985
20
128.6917
0
VERTEX
8
CUT
10
227.0616
20
128.4205
0
VERTEX
8
CUT
10
231.1368
20
127.4552
0
VERTEX
8
CUT
10
234.5046
20
126.5904
0
VERTEX
8
CUT
10
234.5111
20
126.6187
0
VERTEX
8
CUT
10
234.5182
20
126.6398
0
VERTEX
8
CUT
10
237.0059
20
126.0232
0
VERTEX
8
CUT
10
237.9928
20
125.8313
0
VERTEX
8
CUT
10
238.3029
20
125.7579
0
VERTEX
8
CUT
10
239.1773
20
125.6011
0
VERTEX
8
CUT
10
241.2611
20
125.1960
0
VERTEX
8
CUT
10
242.0453
20
125.0868
0
VERTEX
8
CUT
10
243.7422
20
124.7825
0
VERTEX
8
CUT
10
250.5592
20
123.8972
0
VERTEX
8
CUT
10
253.9751
20
123.7097
0
VERTEX
8
CUT
10
256.9661
20
123.4840
0
VERTEX
8
CUT
10
259.5756
20
123.4023
0
VERTEX
8
CUT
10
260.2489
20
123.3654
0
VERTEX
8
CUT
10
260.6594
20
123.3684
0
VERTEX
8
CUT
10
262.6336
20
123.3065
0
VERTEX
8
CUT
10
265.7139
20
123.4055
0
VERTEX
8
CUT
10
266.2570
20
123.4095
0
VERTEX
8
CUT
10
266.2573
20
123.4229
0
VERTEX
8
CUT
10
268.1291
20
123.4830
0
VERTEX
8
CUT
10
270.4834
20
123.6794
0
VERTEX
8
CUT
10
271.5725
20
123.7554
0
VERTEX
8
CUT
10
271.5718
20
123.7702
0
VERTEX
8
CUT
10
273.4675
20
123.9284
0
VERTEX
8
CUT
10
278.5715
20
124.7256
0
VERTEX
8
CUT
10
282.7587
20
125.6262
0
VERTEX
8
CUT
10
282.7710
20
125.6124
0
VERTEX
8
CUT
10
282.8421
20
125.5151
0
VERTEX
8
CUT
10
282.9031
20
125.4110
0
VERTEX
8
CUT
10
282.9533
20
125.3014
0
VERTEX
8
CUT
10
282.9923
20
125.1873
0
VERTEX
8
CUT
10
283.0196
20
125.0699
0
VERTEX
8
CUT
10
283.0350
20
124.9503
0
VERTEX
8
CUT
10
283.0384
20
124.8298
0
VERTEX
8
CUT
10
283.0283
20
124.3853
0
VERTEX
8
CUT
10
283.0208
20
124.2836
0
VERTEX
8
CUT
10
280.8884
20
123.5201
0
VERTEX
8
CUT
10
277.1855
20
122.5643
0
VERTEX
8
CUT
10
273.0204
20
121.7667
0
VERTEX
8
CUT
10
271.8131
20
121.6663
0
VERTEX
8
CUT
10
271.8082
20
121.6930
0
VERTEX
8
CUT
10
271.6856
20
121.6734
0
VERTEX
8
CUT
10
269.3874
20
121.4645
0
VERTEX
8
CUT
10
268.3462
20
121.3779
0
VERTEX
8
CUT
10
266.3334
20
121.3329
0
VERTEX
8
CUT
10
266.3309
20
121.3611
0
VERTEX
8
CUT
10
265.6665
20
121.3180
0
VERTEX
8
CUT
10
263.0326
20
121.2591
0
VERTEX
8
CUT
10
258.2948
20
121.2591
0
VERTEX
8
CUT
10
258.0224
20
121.2614
0
VERTEX
8
CUT
10
252.9436
20
121.4806
0
VERTEX
8
CUT
10
252.4206
20
121.5268
0
VERTEX
8
CUT
10
251.9960
20
121.5643
0
VERTEX
8
CUT
10
251.4477
20
121.6127
0
VERTEX
8
CUT
10
250.3707
20
121.7079
0
VERTEX
8
CUT
10
247.2539
20
122.0828
0
VERTEX
8
CUT
10
245.9614
20
122.2684
0
VERTEX
8
CUT
10
238.4796
20
123.6308
0
VERTEX
8
CUT
10
234.8562
20
124.3892
0
VERTEX
8
CUT
10
234.0853
20
124.5506
0
VERTEX
8
CUT
10
234.0368
20
124.5607
0
VERTEX
8
CUT
10
234.0383
20
124.5724
0
VERTEX
8
CUT
10
234.0448
20
124.6007
0
VERTEX
8
CUT
10
231.9524
20
125.0310
0
VERTEX
8
CUT
10
231.7925
20
125.0675
0
VERTEX
8
CUT
10
223.2980
20
127.3307
0
VERTEX
8
CUT
10
222.7634
20
127.4238
0
VERTEX
8
CUT
10
222.4933
20
127.2768
0
VERTEX
8
CUT
10
222.2524
20
126.8037
0
VERTEX
8
CUT
10
222.1857
20
126.8451
0
VERTEX
8
CUT
10
222.0921
20
126.9169
0
VERTEX
8
CUT
10
222.0691
20
126.9384
0
VERTEX
8
CUT
10
220.7074
20
124.1689
0
VERTEX
8
CUT
10
218.1557
20
120.0159
0
VERTEX
8
CUT
10
215.6339
20
116.3812
0
VERTEX
8
CUT
10
215.7064
20
116.3281
0
VERTEX
8
CUT
10
215.7188
20
116.3170
0
VERTEX
8
CUT
10
215.3889
20
115.8353
0
VERTEX
8
CUT
10
215.3909
20
115.8339
0
VERTEX
8
CUT
10
213.3537
20
112.9784
0
VERTEX
8
CUT
10
213.2302
20
112.8052
0
VERTEX
8
CUT
10
212.6683
20
112.0176
0
VERTEX
8
CUT
10
212.5752
20
112.0793
0
VERTEX
8
CUT
10
212.5522
20
112.0979
0
VERTEX
8
CUT
10
212.3301
20
111.8106
0
VERTEX
8
CUT
10
212.2756
20
111.8463
0
VERTEX
8
CUT
10
212.2521
20
111.8653
0
VERTEX
8
CUT
10
211.2563
20
110.5666
0
VERTEX
8
CUT
10
211.5206
20
110.1120
0
VERTEX
8
CUT
10
213.2287
20
110.1016
0
VERTEX
8
CUT
10
214.2316
20
109.8060
0
VERTEX
8
CUT
10
215.4359
20
109.0939
0
VERTEX
8
CUT
10
215.7266
20
108.8680
0
VERTEX
8
CUT
10
216.0652
20
108.5491
0
VERTEX
8
CUT
10
216.2066
20
108.4160
0
VERTEX
8
CUT
10
216.3199
20
108.3093
0
VERTEX
8
CUT
10
216.4463
20
108.1902
0
VERTEX
8
CUT
10
217.6875
20
106.4575
0
VERTEX
8
CUT
10
218.1618
20
104.6022
0
VERTEX
8
CUT
10
218.1976
20
103.9652
0
VERTEX
8
CUT
10
218.2237
20
102.2012
0
VERTEX
8
CUT
10
217.9756
20
100.7440
0
VERTEX
8
CUT
10
217.1840
20
99.3644
0
VERTEX
8
CUT
10
215.1877
20
97.6325
0
VERTEX
8
CUT
10
215.0868
20
97.5641
0
VERTEX
8
CUT
10
215.0717
20
97.5539
0
VERTEX
8
CUT
10
215.0661
20
97.5501
0
VERTEX
8
CUT
10
215.0167
20
97.5167
0
VERTEX
8
CUT
10
214.7876
20
97.4320
0
VERTEX
8
CUT
10
213.7958
20
97.1417
0
VERTEX
8
CUT
10
213.2923
20
97.2538
0
VERTEX
8
CUT
10
213.1303
20
97.9051
0
VERTEX
8
CUT
10
213.0300
20
100.6214
0
VERTEX
8
CUT
10
213.0327
20
100.6292
0
VERTEX
8
CUT
10
213.0248
20
100.7637
0
VERTEX
8
CUT
10
213.0047
20
101.3070
0
VERTEX
8
CUT
10
213.0135
20
101.9044
0
VERTEX
8
CUT
10
212.9790
20
102.0033
0
VERTEX
8
CUT
10
212.9787
20
102.0110
0
VERTEX
8
CUT
10
212.9557
20
102.0844
0
VERTEX
8
CUT
10
212.9553
20
102.1383
0
VERTEX
8
CUT
10
212.7722
20
102.6690
0
VERTEX
8
CUT
10
212.3100
20
104.1423
0
VERTEX
8
CUT
10
210.9621
20
105.5631
0
VERTEX
8
CUT
10
208.7005
20
106.9634
0
VERTEX
8
CUT
10
207.7028
20
107.2735
0
VERTEX
8
CUT
10
204.2821
20
104.4799
0
VERTEX
8
CUT
10
200.9172
20
101.0260
0
VERTEX
8
CUT
10
199.0431
20
98.1501
0
VERTEX
8
CUT
10
198.3916
20
96.4783
0
VERTEX
8
CUT
10
198.0700
20
94.7149
0
VERTEX
8
CUT
10
198.0895
20
94.3275
0
VERTEX
8
CUT
10
198.0162
20
93.9532
0
VERTEX
8
CUT
10
198.1855
20
92.0300
0
VERTEX
8
CUT
10
198.2089
20
91.9501
0
VERTEX
8
CUT
10
198.2144
20
91.8410
0
VERTEX
8
CUT
10
198.3885
20
91.3391
0
VERTEX
8
CUT
10
198.6913
20
90.3092
0
VERTEX
8
CUT
10
198.8355
20
90.0509
0
VERTEX
8
CUT
10
199.0563
20
89.4144
0
VERTEX
8
CUT
10
199.5102
20
88.8417
0
VERTEX
8
CUT
10
199.6008
20
88.6794
0
VERTEX
8
CUT
10
200.0310
20
88.1848
0
VERTEX
8
CUT
10
200.6810
20
87.3647
0
VERTEX
8
CUT
10
201.8467
20
86.4082
0
VERTEX
8
CUT
10
202.9608
20
85.8141
0
VERTEX
8
CUT
10
203.5211
20
85.7226
0
VERTEX
8
CUT
10
203.7288
20
85.6322
0
VERTEX
8
CUT
10
204.6325
20
85.5150
0
VERTEX
8
CUT
10
204.7899
20
85.4811
0
VERTEX
8
CUT
10
204.8935
20
85.4812
0
VERTEX
8
CUT
10
205.4025
20
85.4152
0
VERTEX
8
CUT
10
205.5375
20
85.3931
0
VERTEX
8
CUT
10
206.1642
20
85.4821
0
VERTEX
8
CUT
10
206.2777
20
85.4822
0
VERTEX
8
CUT
10
206.5493
20
85.5368
0
VERTEX
8
CUT
10
206.6748
20
85.5546
0
VERTEX
8
CUT
10
207.0926
20
85.5082
0
VERTEX
8
CUT
10
207.4757
20
85.6683
0
VERTEX
8
CUT
10
207.5737
20
85.6822
0
VERTEX
8
CUT
10
208.8586
20
86.2463
0
VERTEX
8
CUT
10
209.0756
20
86.3369
0
VERTEX
8
CUT
10
209.0936
20
86.3494
0
VERTEX
8
CUT
10
209.4196
20
86.4925
0
VERTEX
8
CUT
10
211.9468
20
88.3247
0
VERTEX
8
CUT
10
212.1815
20
88.4872
0
VERTEX
8
CUT
10
212.2505
20
88.5349
0
VERTEX
8
CUT
10
212.2712
20
88.5492
0
VERTEX
8
CUT
10
212.2746
20
88.5516
0
VERTEX
8
CUT
10
213.4134
20
88.9676
0
VERTEX
8
CUT
10
214.1100
20
89.1533
0
VERTEX
8
CUT
10
215.8262
20
89.1760
0
VERTEX
8
CUT
10
215.8301
20
89.1757
0
VERTEX
8
CUT
10
215.8477
20
89.1741
0
VERTEX
8
CUT
10
215.9240
20
89.1671
0
VERTEX
8
CUT
10
216.4750
20
89.1169
0
VERTEX
8
CUT
10
217.1647
20
88.9514
0
VERTEX
8
CUT
10
217.4216
20
88.8392
0
VERTEX
8
CUT
10
217.4999
20
88.8050
0
VERTEX
8
CUT
10
217.7238
20
88.7072
0
VERTEX
8
CUT
10
217.9653
20
88.6017
0
VERTEX
8
CUT
10
217.9708
20
88.5980
0
VERTEX
8
CUT
10
218.2087
20
88.3367
0
VERTEX
8
CUT
10
218.2226
20
88.0577
0
VERTEX
8
CUT
10
218.0814
20
87.8079
0
VERTEX
8
CUT
10
215.0221
20
85.3038
0
VERTEX
8
CUT
10
211.4627
20
83.1375
0
VERTEX
8
CUT
10
211.4876
20
82.6956
0
VERTEX
8
CUT
10
211.5617
20
82.6162
0
VERTEX
8
CUT
10
211.5637
20
82.5946
0
VERTEX
8
CUT
10
211.6268
20
82.5465
0
VERTEX
8
CUT
10
213.3597
20
80.6900
0
VERTEX
8
CUT
10
213.3828
20
80.1005
0
VERTEX
8
CUT
10
212.8992
20
79.6275
0
VERTEX
8
CUT
10
211.6945
20
79.2609
0
VERTEX
8
CUT
10
210.2493
20
79.1429
0
VERTEX
8
CUT
10
208.6008
20
79.2988
0
VERTEX
8
CUT
10
206.6664
20
79.7955
0
VERTEX
8
CUT
10
206.3198
20
79.6565
0
VERTEX
8
CUT
10
206.3236
20
77.7054
0
VERTEX
8
CUT
10
206.0639
20
74.7882
0
VERTEX
8
CUT
10
205.6821
20
73.5813
0
VERTEX
8
CUT
10
205.5907
20
73.4244
0
VERTEX
8
CUT
10
205.0445
20
72.8558
0
VERTEX
8
CUT
10
204.7406
20
72.9449
0
VERTEX
8
CUT
10
204.3300
20
73.4565
0
VERTEX
8
CUT
10
203.0847
20
75.6622
0
VERTEX
8
CUT
10
202.9366
20
75.9776
0
VERTEX
8
CUT
10
201.3558
20
78.7879
0
VERTEX
8
CUT
10
201.1656
20
79.0614
0
VERTEX
8
CUT
10
201.0120
20
79.3334
0
VERTEX
8
CUT
10
200.9019
20
79.4622
0
VERTEX
8
CUT
10
200.8476
20
79.5888
0
VERTEX
8
CUT
10
200.0485
20
80.5951
0
VERTEX
8
CUT
10
200.0485
20
79.8885
0
VERTEX
8
CUT
10
200.0326
20
79.8869
0
VERTEX
8
CUT
10
199.9077
20
79.6136
0
VERTEX
8
CUT
10
200.0507
20
74.1614
0
VERTEX
8
CUT
10
199.6451
20
72.0678
0
VERTEX
8
CUT
10
198.7419
20
70.2660
0
VERTEX
8
CUT
10
196.8399
20
67.7099
0
VERTEX
8
CUT
10
195.0104
20
65.9373
0
VERTEX
8
CUT
10
194.3169
20
65.7362
0
VERTEX
8
CUT
10
193.9580
20
65.9079
0
VERTEX
8
CUT
10
193.8940
20
66.1913
0
VERTEX
8
CUT
10
194.3087
20
67.5431
0
VERTEX
8
CUT
10
194.6026
20
68.1940
0
VERTEX
8
CUT
10
194.8384
20
69.2698
0
VERTEX
8
CUT
10
195.0466
20
69.9484
0
VERTEX
8
CUT
10
195.3443
20
71.5779
0
VERTEX
8
CUT
10
195.5497
20
72.5151
0
VERTEX
8
CUT
10
195.5705
20
72.8158
0
VERTEX
8
CUT
10
195.7877
20
74.0050
0
VERTEX
8
CUT
10
197.2118
20
78.9033
0
VERTEX
8
CUT
10
197.3805
20
80.2778
0
VERTEX
8
CUT
10
197.0881
20
82.9617
0
VERTEX
8
CUT
10
195.7914
20
87.6430
0
VERTEX
8
CUT
10
195.6247
20
88.8787
0
VERTEX
8
CUT
10
195.3989
20
89.1258
0
VERTEX
8
CUT
10
195.0319
20
89.0862
0
VERTEX
8
CUT
10
194.8409
20
88.6798
0
VERTEX
8
CUT
10
194.6650
20
86.8156
0
VERTEX
8
CUT
10
194.6942
20
79.3226
0
VERTEX
8
CUT
10
193.9936
20
75.9478
0
VERTEX
8
CUT
10
192.6361
20
73.0355
0
VERTEX
8
CUT
10
190.6521
20
70.5188
0
VERTEX
8
CUT
10
188.3361
20
68.6181
0
VERTEX
8
CUT
10
186.9332
20
68.1424
0
VERTEX
8
CUT
10
186.5954
20
68.3514
0
VERTEX
8
CUT
10
186.6350
20
68.8230
0
VERTEX
8
CUT
10
187.3066
20
70.5857
0
VERTEX
8
CUT
10
188.3335
20
73.1655
0
VERTEX
8
CUT
10
188.4208
20
73.4998
0
VERTEX
8
CUT
10
188.5649
20
73.8766
0
VERTEX
8
CUT
10
189.2160
20
76.4811
0
VERTEX
8
CUT
10
189.2980
20
78.0127
0
VERTEX
8
CUT
10
189.6277
20
80.6035
0
VERTEX
8
CUT
10
189.9464
20
85.7424
0
VERTEX
8
CUT
10
189.9470
20
85.7501
0
VERTEX
8
CUT
10
189.9481
20
85.7638
0
VERTEX
8
CUT
10
189.9494
20
85.7817
0
VERTEX
8
CUT
10
189.9606
20
85.9252
0
VERTEX
8
CUT
10
190.7959
20
91.0592
0
VERTEX
8
CUT
10
191.4870
20
93.1834
0
VERTEX
8
CUT
10
192.3896
20
95.1311
0
VERTEX
8
CUT
10
193.5579
20
96.9834
0
VERTEX
8
CUT
10
194.9679
20
98.7460
0
VERTEX
8
CUT
10
197.6358
20
101.6277
0
VERTEX
8
CUT
10
197.5903
20
102.1516
0
VERTEX
8
CUT
10
196.8711
20
102.1523
0
VERTEX
8
CUT
10
194.2142
20
101.1582
0
VERTEX
8
CUT
10
193.7266
20
99.8454
0
VERTEX
8
CUT
10
191.6699
20
98.0829
0
VERTEX
8
CUT
10
190.9220
20
97.1891
0
VERTEX
8
CUT
10
189.6561
20
95.0981
0
VERTEX
8
CUT
10
188.8198
20
94.6161
0
VERTEX
8
CUT
10
188.7573
20
93.5753
0
VERTEX
8
CUT
10
188.0772
20
93.2647
0
VERTEX
8
CUT
10
187.4889
20
93.4198
0
VERTEX
8
CUT
10
187.2389
20
93.7379
0
VERTEX
8
CUT
10
187.3001
20
94.1556
0
VERTEX
8
CUT
10
188.5927
20
95.1596
0
VERTEX
8
CUT
10
188.3840
20
98.7615
0
VERTEX
8
CUT
10
188.1280
20
100.4199
0
VERTEX
8
CUT
10
187.1614
20
103.4953
0
VERTEX
8
CUT
10
186.3991
20
104.8658
0
VERTEX
8
CUT
10
182.0879
20
110.6049
0
VERTEX
8
CUT
10
178.2324
20
114.9301
0
VERTEX
8
CUT
10
175.1055
20
117.8501
0
VERTEX
8
CUT
10
169.0707
20
122.7902
0
VERTEX
8
CUT
10
164.9291
20
126.4987
0
VERTEX
8
CUT
10
164.0290
20
127.6543
0
VERTEX
8
CUT
10
163.3482
20
128.0982
0
VERTEX
8
CUT
10
163.1256
20
128.0375
0
VERTEX
8
CUT
10
155.9299
20
128.7181
0
VERTEX
8
CUT
10
151.6293
20
129.3407
0
VERTEX
8
CUT
10
136.2863
20
132.1247
0
VERTEX
8
CUT
10
125.9716
20
134.4368
0
VERTEX
8
CUT
10
111.2909
20
138.4621
0
VERTEX
8
CUT
10
104.7148
20
140.5947
0
VERTEX
8
CUT
10
98.5218
20
142.8760
0
VERTEX
8
CUT
10
94.1721
20
144.7117
0
VERTEX
8
CUT
10
90.9878
20
146.1692
0
VERTEX
8
CUT
10
89.9361
20
146.6506
0
VERTEX
8
CUT
10
88.6369
20
147.2453
0
VERTEX
8
CUT
10
87.7554
20
147.6488
0
VERTEX
8
CUT
10
86.9785
20
148.0132
0
VERTEX
8
CUT
10
80.1204
20
151.6658
0
VERTEX
8
CUT
10
76.8087
20
153.5707
0
VERTEX
8
CUT
10
75.1029
20
154.5734
0
VERTEX
8
CUT
10
68.6592
20
158.6823
0
VERTEX
8
CUT
10
62.1564
20
163.3525
0
VERTEX
8
CUT
10
55.9029
20
168.3605
0
VERTEX
8
CUT
10
52.2156
20
171.6767
0
VERTEX
8
CUT
10
48.5452
20
175.1319
0
VERTEX
8
CUT
10
44.4012
20
179.2972
0
VERTEX
8
CUT
10
40.3553
20
183.8489
0
VERTEX
8
CUT
10
40.2846
20
183.9295
0
VERTEX
8
CUT
10
39.6210
20
184.6868
0
VERTEX
8
CUT
10
39.4253
20
184.9101
0
VERTEX
8
CUT
10
39.0188
20
185.3739
0
VERTEX
8
CUT
10
34.3219
20
191.3310
0
VERTEX
8
CUT
10
29.8737
20
197.7055
0
VERTEX
8
CUT
10
27.3726
20
201.6772
0
VERTEX
8
CUT
10
27.3725
20
201.6774
0
VERTEX
8
CUT
10
27.3715
20
201.6790
0
VERTEX
8
CUT
10
27.3532
20
201.7094
0
VERTEX
8
CUT
10
26.5995
20
202.9589
0
VERTEX
8
CUT
10
24.9421
20
205.9511
0
VERTEX
8
CUT
10
24.8611
20
206.1278
0
VERTEX
8
CUT
10
24.8505
20
206.1508
0
VERTEX
8
CUT
10
24.8422
20
206.1690
0
VERTEX
8
CUT
10
24.7612
20
206.3453
0
VERTEX
8
CUT
10
23.9588
20
208.3461
0
VERTEX
8
CUT
10
23.9454
20
209.0068
0
VERTEX
8
CUT
10
24.3311
20
209.2723
0
VERTEX
8
CUT
10
25.1512
20
208.6705
0
VERTEX
8
CUT
10
27.1151
20
205.7695
0
VERTEX
8
CUT
10
30.8985
20
200.1357
0
VERTEX
8
CUT
10
33.1021
20
197.3204
0
VERTEX
8
CUT
10
35.7777
20
193.8388
0
VERTEX
8
CUT
10
36.2928
20
193.2438
0
VERTEX
8
CUT
10
37.2807
20
191.9817
0
VERTEX
8
CUT
10
39.2868
20
189.7861
0
VERTEX
8
CUT
10
41.3045
20
187.4557
0
VERTEX
8
CUT
10
43.3211
20
185.3705
0
VERTEX
8
CUT
10
44.7817
20
183.7719
0
VERTEX
8
CUT
10
46.4776
20
182.1067
0
VERTEX
8
CUT
10
47.3641
20
181.1900
0
VERTEX
8
CUT
10
48.2796
20
180.3372
0
VERTEX
8
CUT
10
51.3158
20
177.3558
0
VERTEX
8
CUT
10
57.6993
20
171.6812
0
VERTEX
8
CUT
10
64.1511
20
166.5613
0
VERTEX
8
CUT
10
66.1092
20
165.2008
0
VERTEX
8
CUT
10
66.5781
20
164.8450
0
VERTEX
8
CUT
10
67.2098
20
164.4107
0
VERTEX
8
CUT
10
67.4785
20
164.2063
0
VERTEX
8
CUT
10
68.9311
20
163.2275
0
VERTEX
8
CUT
10
70.6457
20
162.0489
0
VERTEX
8
CUT
10
73.2487
20
160.2403
0
VERTEX
8
CUT
10
79.9614
20
156.1298
0
VERTEX
8
CUT
10
81.2707
20
155.4387
0
VERTEX
8
CUT
10
81.5056
20
155.2985
0
VERTEX
8
CUT
10
88.7780
20
151.4264
0
VERTEX
8
CUT
10
89.5887
20
151.0480
0
VERTEX
8
CUT
10
90.0339
20
150.8130
0
VERTEX
8
CUT
10
97.8945
20
147.1484
0
VERTEX
8
CUT
10
106.3675
20
143.7413
0
VERTEX
8
CUT
10
115.2369
20
140.6373
0
VERTEX
8
CUT
10
124.4349
20
137.7984
0
VERTEX
8
CUT
10
133.8958
20
135.3448
0
VERTEX
8
CUT
10
143.4332
20
133.2188
0
VERTEX
8
CUT
10
153.0302
20
131.5008
0
VERTEX
8
CUT
10
162.9799
20
130.1794
0
VERTEX
8
CUT
10
163.3056
20
130.4024
0
VERTEX
8
CUT
10
163.2692
20
130.7955
0
VERTEX
8
CUT
10
161.8832
20
131.7836
0
VERTEX
8
CUT
10
160.6482
20
133.6365
0
VERTEX
8
CUT
10
160.5830
20
133.6914
0
VERTEX
8
CUT
10
160.4582
20
133.9143
0
VERTEX
8
CUT
10
160.0576
20
134.2446
0
VERTEX
8
CUT
10
156.2904
20
135.1530
0
VERTEX
8
CUT
10
147.0852
20
137.7575
0
VERTEX
8
CUT
10
139.2326
20
140.4547
0
VERTEX
8
CUT
10
131.3689
20
143.6179
0
VERTEX
8
CUT
10
123.6635
20
147.1737
0
VERTEX
8
CUT
10
116.1979
20
151.0245
0
VERTEX
8
CUT
10
109.1724
20
155.1739
0
VERTEX
8
CUT
10
102.7117
20
159.4704
0
VERTEX
8
CUT
10
96.8974
20
163.9190
0
VERTEX
8
CUT
10
90.7475
20
169.3097
0
VERTEX
8
CUT
10
90.7305
20
169.3254
0
VERTEX
8
CUT
10
90.6307
20
169.4172
0
VERTEX
8
CUT
10
90.2564
20
169.7617
0
VERTEX
8
CUT
10
90.2440
20
169.7731
0
VERTEX
8
CUT
10
88.4365
20
171.6109
0
VERTEX
8
CUT
10
86.5057
20
173.6275
0
VERTEX
8
CUT
10
84.5088
20
175.9312
0
VERTEX
8
CUT
10
83.5639
20
177.0701
0
VERTEX
8
CUT
10
81.1064
20
180.3905
0
VERTEX
8
CUT
10
80.7110
20
181.5592
0
VERTEX
8
CUT
10
81.1256
20
183.9362
0
VERTEX
8
CUT
10
81.4472
20
184.3526
0
VERTEX
8
CUT
10
81.8163
20
184.4966
0
VERTEX
8
CUT
10
82.3933
20
184.3322
0
VERTEX
8
CUT
10
83.5232
20
183.1453
0
VERTEX
8
CUT
10
87.0439
20
178.3848
0
VERTEX
8
CUT
10
90.5051
20
174.5130
0
VERTEX
8
CUT
10
91.9951
20
173.0555
0
VERTEX
8
CUT
10
92.6115
20
172.4049
0
VERTEX
8
CUT
10
92.6796
20
172.3860
0
VERTEX
8
CUT
10
94.5677
20
170.5391
0
VERTEX
8
CUT
10
99.1164
20
166.5818
0
VERTEX
8
CUT
10
104.1091
20
162.6827
0
VERTEX
8
CUT
10
109.4594
20
158.8701
0
VERTEX
8
CUT
10
115.1334
20
155.2357
0
VERTEX
8
CUT
10
117.9494
20
153.6729
0
VERTEX
8
CUT
10
118.4429
20
153.3744
0
VERTEX
8
CUT
10
124.4746
20
150.0338
0
VERTEX
8
CUT
10
124.7609
20
149.8927
0
VERTEX
8
CUT
10
126.4095
20
148.9778
0
VERTEX
8
CUT
10
129.4014
20
147.6057
0
VERTEX
8
CUT
10
130.6366
20
146.9970
0
VERTEX
8
CUT
10
131.5577
20
146.5885
0
VERTEX
8
CUT
10
132.0546
20
146.3471
0
VERTEX
8
CUT
10
133.5219
20
145.7162
0
VERTEX
8
CUT
10
137.1239
20
144.0644
0
VERTEX
8
CUT
10
142.4882
20
141.9422
0
VERTEX
8
CUT
10
147.8687
20
140.0794
0
VERTEX
8
CUT
10
153.3344
20
138.3951
0
VERTEX
8
CUT
10
158.8912
20
136.9464
0
VERTEX
8
CUT
10
169.4924
20
134.6177
0
VERTEX
8
CUT
10
171.3020
20
135.6327
0
VERTEX
8
CUT
10
171.4529
20
135.9275
0
VERTEX
8
CUT
10
171.3495
20
136.2052
0
VERTEX
8
CUT
10
169.5078
20
137.2383
0
VERTEX
8
CUT
10
167.6796
20
136.8281
0
VERTEX
8
CUT
10
165.4486
20
137.6916
0
VERTEX
8
CUT
10
161.0599
20
137.9338
0
VERTEX
8
CUT
10
159.7941
20
139.0151
0
VERTEX
8
CUT
10
159.7721
20
139.0852
0
VERTEX
8
CUT
10
159.3451
20
139.4952
0
VERTEX
8
CUT
10
158.7471
20
139.7071
0
VERTEX
8
CUT
10
158.1528
20
140.0365
0
VERTEX
8
CUT
10
149.1337
20
143.3491
0
VERTEX
8
CUT
10
142.6410
20
146.1057
0
VERTEX
8
CUT
10
136.6434
20
148.9640
0
VERTEX
8
CUT
10
136.2694
20
149.1586
0
VERTEX
8
CUT
10
136.0765
20
149.2590
0
VERTEX
8
CUT
10
135.9012
20
149.3503
0
VERTEX
8
CUT
10
135.3613
20
149.6312
0
VERTEX
8
CUT
10
130.2224
20
152.3883
0
VERTEX
8
CUT
10
125.2120
20
155.3481
0
VERTEX
8
CUT
10
123.5476
20
156.4042
0
VERTEX
8
CUT
10
120.4577
20
158.4699
0
VERTEX
8
CUT
10
117.2316
20
160.8012
0
VERTEX
8
CUT
10
114.4808
20
162.8810
0
VERTEX
8
CUT
10
110.3646
20
166.4604
0
VERTEX
8
CUT
10
108.9587
20
167.8689
0
VERTEX
8
CUT
10
108.1507
20
169.0846
0
VERTEX
8
CUT
10
108.4666
20
169.4166
0
VERTEX
8
CUT
10
109.5208
20
168.9795
0
VERTEX
8
CUT
10
117.5078
20
163.2809
0
VERTEX
8
CUT
10
124.8007
20
158.4091
0
VERTEX
8
CUT
10
126.7710
20
157.2862
0
VERTEX
8
CUT
10
127.5355
20
156.8079
0
VERTEX
8
CUT
10
127.5359
20
156.8073
0
VERTEX
8
CUT
10
129.2821
20
155.6234
0
VERTEX
8
CUT
10
131.5315
20
154.5283
0
VERTEX
8
CUT
10
131.5502
20
154.5272
0
VERTEX
8
CUT
10
133.0588
20
153.7026
0
VERTEX
8
CUT
10
136.0127
20
152.0190
0
VERTEX
8
CUT
10
137.1376
20
151.4729
0
VERTEX
8
CUT
10
137.1666
20
151.4570
0
VERTEX
8
CUT
10
137.2816
20
151.4029
0
VERTEX
8
CUT
10
144.1637
20
148.0617
0
VERTEX
8
CUT
10
149.8769
20
145.5751
0
VERTEX
8
CUT
10
158.0070
20
142.3824
0
VERTEX
8
CUT
10
160.3744
20
141.6184
0
VERTEX
8
CUT
10
160.5044
20
141.5697
0
VERTEX
8
CUT
10
160.5524
20
141.5610
0
VERTEX
8
CUT
10
161.6351
20
141.2116
0
VERTEX
8
CUT
10
162.4570
20
141.1876
0
VERTEX
8
CUT
10
162.5968
20
141.5586
0
VERTEX
8
CUT
10
162.2349
20
142.0830
0
VERTEX
8
CUT
10
162.2525
20
142.3849
0
VERTEX
8
CUT
10
162.5970
20
142.6794
0
VERTEX
8
CUT
10
163.8751
20
142.8896
0
VERTEX
8
CUT
10
164.0316
20
143.1840
0
VERTEX
8
CUT
10
163.9030
20
143.4916
0
VERTEX
8
CUT
10
162.6589
20
143.9251
0
VERTEX
8
CUT
10
161.1685
20
144.8184
0
VERTEX
8
CUT
10
161.1541
20
144.8362
0
VERTEX
8
CUT
10
161.1390
20
144.8361
0
VERTEX
8
CUT
10
151.3424
20
150.7080
0
VERTEX
8
CUT
10
147.2467
20
153.4143
0
VERTEX
8
CUT
10
140.5454
20
158.3313
0
VERTEX
8
CUT
10
138.2349
20
160.1801
0
VERTEX
8
CUT
10
136.2163
20
161.9805
0
VERTEX
8
CUT
10
135.6729
20
162.4652
0
VERTEX
8
CUT
10
135.1525
20
162.9293
0
VERTEX
8
CUT
10
134.5821
20
163.4380
0
VERTEX
8
CUT
10
131.9204
20
166.1551
0
VERTEX
8
CUT
10
129.6297
20
168.9490
0
VERTEX
8
CUT
10
127.8163
20
171.7304
0
VERTEX
8
CUT
10
126.5034
20
174.3955
0
VERTEX
8
CUT
10
125.7357
20
176.7625
0
VERTEX
8
CUT
10
125.7341
20
176.7686
0
VERTEX
8
CUT
10
125.7292
20
176.7866
0
VERTEX
8
CUT
10
125.7222
20
176.8127
0
VERTEX
8
CUT
10
125.6203
20
177.1913
0
VERTEX
8
CUT
10
125.6172
20
177.2123
0
VERTEX
8
CUT
10
125.3172
20
179.3791
0
VERTEX
8
CUT
10
125.3068
20
180.0811
0
VERTEX
8
CUT
10
125.3871
20
182.6002
0
VERTEX
8
CUT
10
125.4787
20
183.4655
0
VERTEX
8
CUT
10
126.0603
20
185.6898
0
VERTEX
8
CUT
10
126.5923
20
187.0198
0
VERTEX
8
CUT
10
126.6702
20
187.1675
0
VERTEX
8
CUT
10
127.2695
20
188.1209
0
VERTEX
8
CUT
10
129.1341
20
190.2223
0
VERTEX
8
CUT
10
130.7214
20
191.2382
0
VERTEX
8
CUT
10
131.1130
20
191.4070
0
VERTEX
8
CUT
10
131.4621
20
191.5574
0
VERTEX
8
CUT
10
131.9072
20
191.7493
0
VERTEX
8
CUT
10
132.3124
20
191.9239
0
VERTEX
8
CUT
10
132.3220
20
191.9281
0
VERTEX
8
CUT
10
132.3244
20
191.9291
0
VERTEX
8
CUT
10
132.3338
20
191.9331
0
VERTEX
8
CUT
10
132.5890
20
191.9822
0
VERTEX
8
CUT
10
133.5292
20
192.0983
0
VERTEX
8
CUT
10
133.9669
20
192.1524
0
VERTEX
8
CUT
10
134.2273
20
192.1846
0
VERTEX
8
CUT
10
134.5441
20
192.2237
0
VERTEX
8
CUT
10
134.7824
20
192.2191
0
VERTEX
8
CUT
10
135.2790
20
192.1512
0
VERTEX
8
CUT
10
135.3508
20
192.1414
0
VERTEX
8
CUT
10
135.7023
20
192.0934
0
VERTEX
8
CUT
10
136.2896
20
192.0132
0
VERTEX
8
CUT
10
136.9589
20
191.8572
0
VERTEX
8
CUT
10
138.2733
20
191.2274
0
VERTEX
8
CUT
10
139.4612
20
190.2543
0
VERTEX
8
CUT
10
140.5231
20
189.0393
0
VERTEX
8
CUT
10
141.5594
20
187.0246
0
VERTEX
8
CUT
10
142.0084
20
184.8126
0
VERTEX
8
CUT
10
142.1893
20
179.0974
0
VERTEX
8
CUT
10
142.6612
20
175.2268
0
VERTEX
8
CUT
10
142.5051
20
174.9945
0
VERTEX
8
CUT
10
142.1767
20
175.0024
0
VERTEX
8
CUT
10
141.1037
20
176.1233
0
VERTEX
8
CUT
10
139.6120
20
178.3598
0
VERTEX
8
CUT
10
137.3968
20
182.2886
0
VERTEX
8
CUT
10
136.5249
20
183.3684
0
VERTEX
8
CUT
10
135.0020
20
184.0340
0
VERTEX
8
CUT
10
133.3509
20
183.3196
0
VERTEX
8
CUT
10
132.2158
20
182.2231
0
VERTEX
8
CUT
10
131.8015
20
181.0528
0
VERTEX
8
CUT
10
131.6255
20
179.4511
0
VERTEX
8
CUT
10
131.8536
20
176.4860
0
VERTEX
8
CUT
10
132.8813
20
173.2274
0
VERTEX
8
CUT
10
134.6848
20
169.8609
0
VERTEX
8
CUT
10
137.2143
20
166.3649
0
VERTEX
8
CUT
10
140.4540
20
162.8037
0
VERTEX
8
CUT
10
144.4056
20
159.1779
0
VERTEX
8
CUT
10
145.7157
20
158.1434
0
VERTEX
8
CUT
10
145.8268
20
157.9616
0
VERTEX
8
CUT
10
147.1587
20
156.9553
0
VERTEX
8
CUT
10
147.2445
20
156.9362
0
VERTEX
8
CUT
10
149.0395
20
155.5188
0
VERTEX
8
CUT
10
149.9769
20
154.8821
0
VERTEX
8
CUT
10
150.8222
20
154.2333
0
VERTEX
8
CUT
10
155.4474
20
151.1492
0
VERTEX
8
CUT
10
155.6685
20
151.0161
0
VERTEX
8
CUT
10
156.8533
20
150.2113
0
VERTEX
8
CUT
10
161.9381
20
147.2251
0
VERTEX
8
CUT
10
162.1132
20
147.1320
0
VERTEX
8
CUT
10
162.7859
20
146.6555
0
VERTEX
8
CUT
10
163.2368
20
146.5348
0
VERTEX
8
CUT
10
166.6147
20
144.7392
0
VERTEX
8
CUT
10
170.4522
20
143.0400
0
VERTEX
8
CUT
10
170.9226
20
142.9988
0
VERTEX
8
CUT
10
171.1374
20
143.2906
0
VERTEX
8
CUT
10
171.0189
20
143.6330
0
VERTEX
8
CUT
10
168.3243
20
145.3550
0
VERTEX
8
CUT
10
167.0347
20
146.6882
0
VERTEX
8
CUT
10
167.1707
20
147.1331
0
VERTEX
8
CUT
10
168.3735
20
147.9397
0
VERTEX
8
CUT
10
168.3737
20
148.4341
0
VERTEX
8
CUT
10
163.0546
20
153.0752
0
VERTEX
8
CUT
10
156.5965
20
159.5333
0
VERTEX
8
CUT
10
153.8404
20
162.5824
0
VERTEX
8
CUT
10
151.2420
20
165.8696
0
VERTEX
8
CUT
10
149.3560
20
168.6285
0
VERTEX
8
CUT
10
149.3151
20
168.6973
0
VERTEX
8
CUT
10
149.2786
20
168.7587
0
VERTEX
8
CUT
10
149.2634
20
168.7841
0
VERTEX
8
CUT
10
149.2441
20
168.8165
0
VERTEX
8
CUT
10
147.6321
20
171.6421
0
VERTEX
8
CUT
10
146.3043
20
174.5717
0
VERTEX
8
CUT
10
145.3936
20
177.4214
0
VERTEX
8
CUT
10
144.8244
20
180.2543
0
VERTEX
8
CUT
10
144.6124
20
183.0903
0
VERTEX
8
CUT
10
144.7929
20
185.9453
0
VERTEX
8
CUT
10
145.7079
20
190.1328
0
VERTEX
8
CUT
10
145.9227
20
190.6293
0
VERTEX
8
CUT
10
146.1032
20
191.0467
0
VERTEX
8
CUT
10
146.4737
20
191.9032
0
VERTEX
8
CUT
10
146.5604
20
192.1037
0
VERTEX
8
CUT
10
147.4790
20
194.0656
0
VERTEX
8
CUT
10
147.7802
20
194.5730
0
VERTEX
8
CUT
10
150.7103
20
198.0655
0
VERTEX
8
CUT
10
154.9131
20
201.7059
0
VERTEX
8
CUT
10
160.6549
20
206.0271
0
VERTEX
8
CUT
10
161.7003
20
207.0913
0
VERTEX
8
CUT
10
163.8255
20
209.1675
0
VERTEX
8
CUT
10
164.2721
20
209.8184
0
VERTEX
8
CUT
10
165.4792
20
211.4433
0
VERTEX
8
CUT
10
166.8111
20
214.0479
0
VERTEX
8
CUT
10
167.1839
20
215.0731
0
VERTEX
8
CUT
10
167.5267
20
215.7955
0
VERTEX
8
CUT
10
167.8081
20
216.7896
0
VERTEX
8
CUT
10
167.9950
20
217.3035
0
VERTEX
8
CUT
10
167.9911
20
217.4361
0
VERTEX
8
CUT
10
168.1712
20
218.0726
0
VERTEX
8
CUT
10
168.4951
20
220.6511
0
VERTEX
8
CUT
10
168.4939
20
220.9384
0
VERTEX
8
CUT
10
168.6407
20
222.1467
0
VERTEX
8
CUT
10
168.5268
20
227.0124
0
VERTEX
8
CUT
10
168.4684
20
227.3605
0
VERTEX
8
CUT
10
168.4669
20
227.7277
0
VERTEX
8
CUT
10
167.7595
20
232.1180
0
VERTEX
8
CUT
10
165.3073
20
238.9397
0
VERTEX
8
CUT
10
165.3278
20
239.4090
0
VERTEX
8
CUT
10
165.9088
20
239.5323
0
VERTEX
8
CUT
10
166.8118
20
239.0750
0
VERTEX
8
CUT
10
167.5214
20
238.5837
0
VERTEX
8
CUT
10
170.7475
20
235.8904
0
VERTEX
8
CUT
10
173.3331
20
233.2792
0
VERTEX
8
CUT
10
173.4058
20
233.1986
0
VERTEX
8
CUT
10
175.7044
20
229.8280
0
VERTEX
8
CUT
10
175.9627
20
229.4129
0
VERTEX
8
CUT
10
177.7159
20
225.6190
0
VERTEX
8
CUT
10
178.4023
20
223.5633
0
VERTEX
8
CUT
10
179.2442
20
219.2666
0
VERTEX
8
CUT
10
179.4807
20
215.4544
0
VERTEX
8
CUT
10
179.3332
20
212.5631
0
VERTEX
8
CUT
10
178.4703
20
208.5278
0
VERTEX
8
CUT
10
177.0495
20
204.9988
0
VERTEX
8
CUT
10
176.6077
20
204.1921
0
VERTEX
8
CUT
10
176.4005
20
203.3042
0
VERTEX
8
CUT
10
176.8149
20
203.3633
0
VERTEX
8
CUT
10
177.6140
20
203.8665
0
VERTEX
8
CUT
10
178.6795
20
205.1096
0
VERTEX
8
CUT
10
180.5441
20
207.8029
0
VERTEX
8
CUT
10
181.9647
20
210.6146
0
VERTEX
8
CUT
10
182.9414
20
213.8407
0
VERTEX
8
CUT
10
183.3262
20
216.1196
0
VERTEX
8
CUT
10
183.4446
20
218.9314
0
VERTEX
8
CUT
10
183.3623
20
219.9458
0
VERTEX
8
CUT
10
183.4313
20
220.7756
0
VERTEX
8
CUT
10
183.5217
20
221.1514
0
VERTEX
8
CUT
10
183.8442
20
221.4513
0
VERTEX
8
CUT
10
184.4542
20
221.1771
0
VERTEX
8
CUT
10
185.5482
20
219.4834
0
VERTEX
8
CUT
10
187.4228
20
215.1740
0
VERTEX
8
CUT
10
188.1206
20
212.2457
0
VERTEX
8
CUT
10
188.3599
20
209.3418
0
VERTEX
8
CUT
10
188.1204
20
206.4667
0
VERTEX
8
CUT
10
187.4383
20
203.7047
0
VERTEX
8
CUT
10
186.3249
20
200.9901
0
VERTEX
8
CUT
10
184.7822
20
198.4369
0
VERTEX
8
CUT
10
182.1355
20
195.3667
0
VERTEX
8
CUT
10
181.8463
20
195.1946
0
VERTEX
8
CUT
10
181.4320
20
194.6914
0
VERTEX
8
CUT
10
181.5208
20
194.1587
0
VERTEX
8
CUT
10
183.1486
20
194.6026
0
VERTEX
8
CUT
10
186.3451
20
196.2601
0
VERTEX
8
CUT
10
187.0886
20
196.8462
0
VERTEX
8
CUT
10
187.5882
20
197.0888
0
VERTEX
8
CUT
10
188.8016
20
198.1839
0
VERTEX
8
CUT
10
188.8269
20
198.2164
0
VERTEX
8
CUT
10
188.8608
20
198.2431
0
VERTEX
8
CUT
10
189.9263
20
199.3974
0
VERTEX
8
CUT
10
191.6429
20
202.0315
0
VERTEX
8
CUT
10
192.2645
20
203.5113
0
VERTEX
8
CUT
10
193.1820
20
207.1222
0
VERTEX
8
CUT
10
193.1820
20
207.6251
0
VERTEX
8
CUT
10
193.3073
20
208.1892
0
VERTEX
8
CUT
10
193.6465
20
208.4821
0
VERTEX
8
CUT
10
194.0076
20
208.4969
0
VERTEX
8
CUT
10
194.5433
20
208.0914
0
VERTEX
8
CUT
10
195.3067
20
205.9400
0
VERTEX
8
CUT
10
195.7003
20
202.6795
0
VERTEX
8
CUT
10
195.6118
20
199.3939
0
VERTEX
8
CUT
10
195.3702
20
198.1761
0
VERTEX
8
CUT
10
195.3153
20
197.9489
0
VERTEX
8
CUT
10
194.7567
20
196.4054
0
VERTEX
8
CUT
10
194.6436
20
196.1181
0
VERTEX
8
CUT
10
194.6216
20
196.0623
0
VERTEX
8
CUT
10
194.6048
20
196.0196
0
VERTEX
8
CUT
10
194.5298
20
195.8292
0
VERTEX
8
CUT
10
193.5845
20
193.9408
0
VERTEX
8
CUT
10
192.2992
20
192.0616
0
VERTEX
8
CUT
10
190.8042
20
190.3028
0
VERTEX
8
CUT
10
189.1845
20
188.8091
0
VERTEX
8
CUT
10
189.0975
20
188.4547
0
VERTEX
8
CUT
10
188.7336
20
188.4294
0
VERTEX
8
CUT
10
184.5154
20
185.4768
0
VERTEX
8
CUT
10
181.8971
20
184.0499
0
VERTEX
8
CUT
10
178.7977
20
182.6920
0
VERTEX
8
CUT
10
177.3854
20
182.2318
0
VERTEX
8
CUT
10
174.8200
20
181.7846
0
VERTEX
8
CUT
10
172.5676
20
181.9327
0
VERTEX
8
CUT
10
171.4210
20
182.2514
0
VERTEX
8
CUT
10
170.0213
20
182.9574
0
VERTEX
8
CUT
10
168.7179
20
184.0241
0
VERTEX
8
CUT
10
167.5734
20
185.3574
0
VERTEX
8
CUT
10
166.5397
20
187.3372
0
VERTEX
8
CUT
10
166.2405
20
187.4721
0
VERTEX
8
CUT
10
165.9445
20
187.3304
0
VERTEX
8
CUT
10
165.5379
20
185.7467
0
VERTEX
8
CUT
10
165.3344
20
183.2829
0
VERTEX
8
CUT
10
165.3957
20
181.6962
0
VERTEX
8
CUT
10
166.0134
20
178.6320
0
VERTEX
8
CUT
10
166.7147
20
177.0341
0
VERTEX
8
CUT
10
166.7223
20
176.8741
0
VERTEX
8
CUT
10
167.3734
20
175.4830
0
VERTEX
8
CUT
10
167.9371
20
174.7363
0
VERTEX
8
CUT
10
168.1478
20
174.4060
0
VERTEX
8
CUT
10
168.4027
20
174.1195
0
VERTEX
8
CUT
10
168.7046
20
173.7197
0
VERTEX
8
CUT
10
168.8357
20
173.5176
0
VERTEX
8
CUT
10
168.9534
20
173.3901
0
VERTEX
8
CUT
10
169.6524
20
172.4641
0
VERTEX
8
CUT
10
170.9700
20
171.2343
0
VERTEX
8
CUT
10
172.2294
20
169.8190
0
VERTEX
8
CUT
10
172.3299
20
169.3886
0
VERTEX
8
CUT
10
171.9466
20
169.0633
0
VERTEX
8
CUT
10
171.0996
20
169.0966
0
VERTEX
8
CUT
10
167.3984
20
170.1925
0
VERTEX
8
CUT
10
165.5042
20
170.8852
0
VERTEX
8
CUT
10
163.5771
20
171.9117
0
VERTEX
8
CUT
10
162.4050
20
172.7258
0
VERTEX
8
CUT
10
160.3956
20
174.5909
0
VERTEX
8
CUT
10
158.8571
20
176.7212
0
VERTEX
8
CUT
10
158.2344
20
177.9666
0
VERTEX
8
CUT
10
157.3763
20
180.8660
0
VERTEX
8
CUT
10
157.1941
20
182.5623
0
VERTEX
8
CUT
10
157.1941
20
182.5625
0
VERTEX
8
CUT
10
157.1941
20
182.5639
0
VERTEX
8
CUT
10
157.1942
20
182.5646
0
VERTEX
8
CUT
10
157.1971
20
182.6369
0
VERTEX
8
CUT
10
157.5006
20
185.3704
0
VERTEX
8
CUT
10
157.9320
20
187.1146
0
VERTEX
8
CUT
10
158.7607
20
188.9792
0
VERTEX
8
CUT
10
159.7966
20
190.8438
0
VERTEX
8
CUT
10
162.1052
20
194.0107
0
VERTEX
8
CUT
10
161.3652
20
194.0403
0
VERTEX
8
CUT
10
160.4773
20
193.7443
0
VERTEX
8
CUT
10
160.2107
20
193.4496
0
VERTEX
8
CUT
10
160.1464
20
193.4193
0
VERTEX
8
CUT
10
158.2832
20
192.2061
0
VERTEX
8
CUT
10
155.4565
20
189.8172
0
VERTEX
8
CUT
10
153.2956
20
187.3268
0
VERTEX
8
CUT
10
151.8928
20
184.8078
0
VERTEX
8
CUT
10
151.4109
20
183.3983
0
VERTEX
8
CUT
10
151.0622
20
181.9357
0
VERTEX
8
CUT
10
150.8024
20
178.7272
0
VERTEX
8
CUT
10
151.1793
20
175.1884
0
VERTEX
8
CUT
10
152.3039
20
171.4898
0
VERTEX
8
CUT
10
154.2424
20
167.6467
0
VERTEX
8
CUT
10
156.9809
20
163.5852
0
VERTEX
8
CUT
10
159.6409
20
160.5137
0
VERTEX
8
CUT
10
159.6486
20
160.3589
0
VERTEX
8
CUT
10
159.8072
20
160.3216
0
VERTEX
8
CUT
10
161.1613
20
158.7580
0
VERTEX
8
CUT
10
161.5287
20
158.3887
0
VERTEX
8
CUT
10
161.7015
20
158.1879
0
VERTEX
8
CUT
10
164.0722
20
155.8315
0
VERTEX
8
CUT
10
166.6037
20
153.2863
0
VERTEX
8
CUT
10
168.6802
20
151.5284
0
VERTEX
8
CUT
10
172.1126
20
148.5724
0
VERTEX
8
CUT
10
172.3988
20
148.5282
0
VERTEX
8
CUT
10
173.1672
20
148.1975
0
VERTEX
8
CUT
10
176.0668
20
147.9297
0
VERTEX
8
CUT
10
176.1177
20
147.9186
0
VERTEX
8
CUT
10
176.2821
20
147.8394
0
VERTEX
8
CUT
10
176.6188
20
147.8088
0
VERTEX
8
CUT
10
177.7550
20
147.5599
0
VERTEX
8
CUT
10
178.1969
20
147.8495
0
VERTEX
8
CUT
10
178.1293
20
148.1794
0
VERTEX
8
CUT
10
177.4613
20
148.7638
0
VERTEX
8
CUT
10
173.1223
20
152.1233
0
VERTEX
8
CUT
10
172.9065
20
152.5601
0
VERTEX
8
CUT
10
173.0998
20
152.9480
0
VERTEX
8
CUT
10
174.7902
20
153.0155
0
VERTEX
8
CUT
10
174.8516
20
153.0159
0
VERTEX
8
CUT
10
179.9962
20
152.0019
0
VERTEX
8
CUT
10
181.7839
20
151.3424
0
VERTEX
8
CUT
10
185.2970
20
149.9882
0
VERTEX
8
CUT
10
189.3166
20
147.8121
0
VERTEX
8
CUT
10
190.5016
20
147.1645
0
VERTEX
8
CUT
10
196.7334
20
142.9220
0
VERTEX
8
CUT
10
198.5153
20
141.5158
0
VERTEX
8
CUT
10
200.9135
20
139.4902
0
VERTEX
8
CUT
10
202.6341
20
137.6794
0
VERTEX
8
CUT
10
202.9459
20
137.2755
0
VERTEX
8
CUT
10
204.0639
20
135.3437
0
VERTEX
8
CUT
10
204.1815
20
135.0551
0
VERTEX
8
CUT
10
204.2700
20
134.8378
0
VERTEX
8
CUT
10
204.3090
20
134.7421
0
VERTEX
8
CUT
10
204.3835
20
134.5594
0
VERTEX
8
CUT
10
204.6382
20
133.7099
0
VERTEX
8
CUT
10
204.7499
20
132.8414
0
VERTEX
8
CUT
10
204.8168
20
132.2116
0
VERTEX
8
CUT
10
204.8271
20
132.1147
0
VERTEX
8
CUT
10
204.8425
20
131.9698
0
VERTEX
8
CUT
10
204.8876
20
131.5447
0
VERTEX
8
CUT
10
204.5885
20
129.5172
0
VERTEX
8
CUT
10
203.4183
20
127.2106
0
VERTEX
8
CUT
10
201.1959
20
123.7101
0
VERTEX
8
CUT
10
200.3411
20
122.7666
0
VERTEX
8
CUT
10
199.3540
20
122.1209
0
VERTEX
8
CUT
10
195.2719
20
120.8295
0
VERTEX
8
CUT
10
193.5735
20
119.9961
0
VERTEX
8
CUT
10
192.6870
20
119.2546
0
VERTEX
8
CUT
10
192.2117
20
118.9290
0
VERTEX
8
CUT
10
191.9339
20
118.6246
0
VERTEX
8
CUT
10
191.7825
20
118.4980
0
VERTEX
8
CUT
10
191.5172
20
118.1681
0
VERTEX
8
CUT
10
191.3841
20
118.0223
0
VERTEX
8
CUT
10
191.3820
20
118.0000
0
VERTEX
8
CUT
10
191.2395
20
117.8228
0
VERTEX
8
CUT
10
191.2006
20
117.4925
0
VERTEX
8
CUT
10
191.5805
20
117.2271
0
VERTEX
8
CUT
10
193.6546
20
117.6510
0
VERTEX
8
CUT
10
195.0812
20
117.5239
0
VERTEX
8
CUT
10
195.2996
20
117.4094
0
VERTEX
8
CUT
10
196.7651
20
116.3042
0
VERTEX
8
CUT
10
196.8509
20
116.2395
0
VERTEX
8
CUT
10
197.2264
20
115.9564
0
VERTEX
8
CUT
10
198.4851
20
115.0071
0
VERTEX
8
CUT
10
198.9650
20
114.6229
0
VERTEX
8
CUT
10
201.1560
20
113.8097
0
VERTEX
8
CUT
10
201.2916
20
113.6845
0
VERTEX
8
CUT
10
201.5317
20
113.6889
0
VERTEX
8
CUT
10
203.5215
20
113.6274
0
VERTEX
8
CUT
10
206.5055
20
113.8260
0
VERTEX
8
CUT
10
207.0252
20
113.8287
0
VERTEX
8
CUT
10
207.1764
20
113.8294
0
VERTEX
8
CUT
10
207.2302
20
113.8297
0
VERTEX
8
CUT
10
208.1392
20
113.8343
0
VERTEX
8
CUT
10
209.8616
20
113.6648
0
VERTEX
8
CUT
10
210.5053
20
113.8092
0
VERTEX
8
CUT
10
210.4912
20
113.8533
0
VERTEX
8
CUT
10
210.4664
20
113.9677
0
VERTEX
8
CUT
10
210.4588
20
114.0334
0
VERTEX
8
CUT
10
210.9923
20
114.0843
0
VERTEX
8
CUT
10
210.9738
20
114.1441
0
VERTEX
8
CUT
10
210.9502
20
114.2589
0
VERTEX
8
CUT
10
210.9380
20
114.3754
0
VERTEX
8
CUT
10
210.9371
20
114.4925
0
VERTEX
8
CUT
10
210.9477
20
114.6092
0
VERTEX
8
CUT
10
210.9696
20
114.7243
0
VERTEX
8
CUT
10
211.0026
20
114.8367
0
VERTEX
8
CUT
10
211.0465
20
114.9453
0
VERTEX
8
CUT
10
211.1007
20
115.0492
0
VERTEX
8
CUT
10
211.1648
20
115.1473
0
VERTEX
8
CUT
10
211.2381
20
115.2386
0
VERTEX
8
CUT
10
211.3200
20
115.3224
0
VERTEX
8
CUT
10
211.4365
20
115.4304
0
VERTEX
8
CUT
10
211.4810
20
115.4717
0
VERTEX
8
CUT
10
211.8177
20
115.7840
0
VERTEX
8
CUT
10
211.8520
20
115.8668
0
VERTEX
8
CUT
10
211.8532
20
115.8950
0
VERTEX
8
CUT
10
211.8715
20
116.0184
0
VERTEX
8
CUT
10
211.9025
20
116.1392
0
VERTEX
8
CUT
10
211.9458
20
116.2561
0
VERTEX
8
CUT
10
212.1604
20
116.7537
0
VERTEX
8
CUT
10
212.2122
20
116.8593
0
VERTEX
8
CUT
10
212.2741
20
116.9593
0
VERTEX
8
CUT
10
212.3454
20
117.0527
0
VERTEX
8
CUT
10
212.4256
20
117.1388
0
VERTEX
8
CUT
10
212.5138
20
117.2165
0
VERTEX
8
CUT
10
212.6092
20
117.2853
0
VERTEX
8
CUT
10
212.7109
20
117.3444
0
VERTEX
8
CUT
10
212.8179
20
117.3932
0
VERTEX
8
CUT
10
212.9291
20
117.4314
0
VERTEX
8
CUT
10
213.0435
20
117.4585
0
VERTEX
8
CUT
10
213.1601
20
117.4742
0
SEQEND
0
POLYLINE
8
CUT
66
1
70
1
10
0.0
20
0.0
30
0.0
0
VERTEX
8
CUT
10
175.5195
20
134.1035
0
VERTEX
8
CUT
10
176.3541
20
133.6653
0
VERTEX
8
CUT
10
177.2779
20
133.7872
0
VERTEX
8
CUT
10
177.7421
20
134.4992
0
VERTEX
8
CUT
10
177.5273
20
135.2763
0
VERTEX
8
CUT
10
176.7833
20
135.7444
0
VERTEX
8
CUT
10
175.9416
20
135.6919
0
VERTEX
8
CUT
10
175.1279
20
134.9289
0
SEQEND
0
POLYLINE
8
CUT
66
1
70
1
10
0.0
20
0.0
30
0.0
0
VERTEX
8
CUT
10
176.4650
20
143.1354
0
VERTEX
8
CUT
10
175.5474
20
143.0666
0
VERTEX
8
CUT
10
174.2366
20
142.4876
0
VERTEX
8
CUT
10
173.9816
20
142.1809
0
VERTEX
8
CUT
10
174.1301
20
141.8108
0
VERTEX
8
CUT
10
176.4519
20
140.7370
0
VERTEX
8
CUT
10
176.8033
20
140.8436
0
VERTEX
8
CUT
10
177.5389
20
141.7337
0
VERTEX
8
CUT
10
177.2050
20
142.6535
0
SEQEND
0
POLYLINE
8
CUT
66
1
70
1
10
0.0
20
0.0
30
0.0
0
VERTEX
8
CUT
10
172.5541
20
127.1742
0
VERTEX
8
CUT
10
173.2445
20
126.8670
0
VERTEX
8
CUT
10
173.8917
20
126.9845
0
VERTEX
8
CUT
10
174.3017
20
127.5528
0
VERTEX
8
CUT
10
174.1754
20
128.5243
0
VERTEX
8
CUT
10
173.3647
20
129.0183
0
VERTEX
8
CUT
10
172.5983
20
128.9483
0
VERTEX
8
CUT
10
171.8619
20
128.0878
0
SEQEND
0
POLYLINE
8
CUT
66
1
70
1
10
0.0
20
0.0
30
0.0
0
VERTEX
8
CUT
10
191.7387
20
168.9733
0
VERTEX
8
CUT
10
192.2441
20
169.3589
0
VERTEX
8
CUT
10
192.3697
20
169.3579
0
VERTEX
8
CUT
10
193.1285
20
169.2778
0
VERTEX
8
CUT
10
194.3930
20
168.6379
0
VERTEX
8
CUT
10
195.5712
20
168.0027
0
VERTEX
8
CUT
10
196.0737
20
167.6966
0
VERTEX
8
CUT
10
197.3942
20
166.6960
0
VERTEX
8
CUT
10
197.6188
20
166.5186
0
VERTEX
8
CUT
10
199.8996
20
164.2970
0
VERTEX
8
CUT
10
201.6830
20
162.1621
0
VERTEX
8
CUT
10
202.1329
20
162.4140
0
VERTEX
8
CUT
10
202.4675
20
164.7177
0
VERTEX
8
CUT
10
202.7157
20
164.8878
0
VERTEX
8
CUT
10
203.2198
20
164.8082
0
VERTEX
8
CUT
10
203.8582
20
164.3012
0
VERTEX
8
CUT
10
205.2044
20
162.5104
0
VERTEX
8
CUT
10
205.3086
20
162.3341
0
VERTEX
8
CUT
10
206.1654
20
160.7356
0
VERTEX
8
CUT
10
206.6529
20
159.6808
0
VERTEX
8
CUT
10
207.3748
20
157.5296
0
VERTEX
8
CUT
10
207.8898
20
157.4939
0
VERTEX
8
CUT
10
208.0597
20
157.8004
0
VERTEX
8
CUT
10
208.4123
20
158.3558
0
VERTEX
8
CUT
10
208.4801
20
158.4626
0
VERTEX
8
CUT
10
208.5096
20
158.5092
0
VERTEX
8
CUT
10
208.5160
20
158.5191
0
VERTEX
8
CUT
10
208.8460
20
158.7319
0
VERTEX
8
CUT
10
209.3789
20
158.4272
0
VERTEX
8
CUT
10
209.6862
20
157.8881
0
VERTEX
8
CUT
10
210.4899
20
155.4768
0
VERTEX
8
CUT
10
210.8820
20
152.8683
0
VERTEX
8
CUT
10
210.7349
20
151.2228
0
VERTEX
8
CUT
10
210.2109
20
149.6713
0
VERTEX
8
CUT
10
209.2633
20
148.1750
0
VERTEX
8
CUT
10
207.9011
20
146.6057
0
VERTEX
8
CUT
10
206.8917
20
145.6284
0
VERTEX
8
CUT
10
205.1080
20
144.3503
0
VERTEX
8
CUT
10
203.3218
20
143.7525
0
VERTEX
8
CUT
10
201.5968
20
143.9010
0
VERTEX
8
CUT
10
200.6433
20
144.2040
0
VERTEX
8
CUT
10
197.6397
20
145.7314
0
VERTEX
8
CUT
10
188.2892
20
151.4126
0
VERTEX
8
CUT
10
177.5028
20
157.4582
0
VERTEX
8
CUT
10
174.7886
20
159.3673
0
VERTEX
8
CUT
10
170.2895
20
163.0968
0
VERTEX
8
CUT
10
169.3473
20
164.0969
0
VERTEX
8
CUT
10
169.1833
20
164.6162
0
VERTEX
8
CUT
10
169.2865
20
164.9644
0
VERTEX
8
CUT
10
169.7271
20
165.2406
0
VERTEX
8
CUT
10
172.1597
20
165.5378
0
VERTEX
8
CUT
10
172.4956
20
165.5226
0
VERTEX
8
CUT
10
174.2375
20
165.4438
0
VERTEX
8
CUT
10
175.6495
20
165.3799
0
VERTEX
8
CUT
10
177.3212
20
165.0649
0
VERTEX
8
CUT
10
180.7858
20
164.0392
0
VERTEX
8
CUT
10
183.9228
20
162.5002
0
VERTEX
8
CUT
10
185.6455
20
161.4147
0
VERTEX
8
CUT
10
185.9732
20
161.4537
0
VERTEX
8
CUT
10
186.1533
20
161.7302
0
VERTEX
8
CUT
10
185.8067
20
162.4751
0
VERTEX
8
CUT
10
181.4350
20
167.9967
0
VERTEX
8
CUT
10
181.3559
20
168.1003
0
VERTEX
8
CUT
10
181.3169
20
168.1514
0
VERTEX
8
CUT
10
181.2904
20
168.1862
0
VERTEX
8
CUT
10
181.2676
20
168.2161
0
VERTEX
8
CUT
10
181.0788
20
169.0420
0
VERTEX
8
CUT
10
181.4402
20
169.3279
0
VERTEX
8
CUT
10
181.6508
20
169.3572
0
VERTEX
8
CUT
10
183.1564
20
169.2901
0
VERTEX
8
CUT
10
183.1920
20
169.2859
0
VERTEX
8
CUT
10
185.1547
20
168.7666
0
VERTEX
8
CUT
10
185.7847
20
168.5999
0
VERTEX
8
CUT
10
186.1872
20
168.4934
0
VERTEX
8
CUT
10
186.6409
20
168.3734
0
VERTEX
8
CUT
10
186.9544
20
168.2790
0
VERTEX
8
CUT
10
189.7783
20
166.8270
0
VERTEX
8
CUT
10
192.0584
20
165.2402
0
VERTEX
8
CUT
10
192.6349
20
164.8260
0
VERTEX
8
CUT
10
192.9348
20
164.9749
0
VERTEX
8
CUT
10
193.0083
20
165.3015
0
VERTEX
8
CUT
10
191.8674
20
168.1590
0
VERTEX
8
CUT
10
191.7539
20
168.8515
0
SEQEND
0
POLYLINE
8
CUT
66
1
70
1
10
0.0
20
0.0
30
0.0
0
VERTEX
8
CUT
10
174.1419
20
277.9370
0
VERTEX
8
CUT
10
176.9850
20
280.1283
0
VERTEX
8
CUT
10
178.7197
20
281.1022
0
VERTEX
8
CUT
10
182.1217
20
282.5067
0
VERTEX
8
CUT
10
182.9080
20
282.2674
0
VERTEX
8
CUT
10
184.2133
20
281.4122
0
VERTEX
8
CUT
10
184.9020
20
280.7111
0
VERTEX
8
CUT
10
185.2184
20
279.8568
0
VERTEX
8
CUT
10
184.9035
20
279.1398
0
VERTEX
8
CUT
10
182.8569
20
276.8609
0
VERTEX
8
CUT
10
181.8939
20
275.4357
0
VERTEX
8
CUT
10
180.7896
20
272.9599
0
VERTEX
8
CUT
10
180.6616
20
272.7150
0
VERTEX
8
CUT
10
180.6348
20
272.6129
0
VERTEX
8
CUT
10
180.3655
20
272.0092
0
VERTEX
8
CUT
10
179.4774
20
268.2239
0
VERTEX
8
CUT
10
179.3031
20
264.5687
0
VERTEX
8
CUT
10
179.7983
20
261.2591
0
VERTEX
8
CUT
10
180.4433
20
259.1425
0
VERTEX
8
CUT
10
180.9064
20
258.1467
0
VERTEX
8
CUT
10
180.9687
20
257.9523
0
VERTEX
8
CUT
10
182.1414
20
255.4527
0
VERTEX
8
CUT
10
182.2199
20
255.3223
0
VERTEX
8
CUT
10
182.9964
20
253.6523
0
VERTEX
8
CUT
10
184.5588
20
251.4381
0
VERTEX
8
CUT
10
187.5238
20
248.2415
0
VERTEX
8
CUT
10
187.5434
20
248.2198
0
VERTEX
8
CUT
10
187.5477
20
248.2158
0
VERTEX
8
CUT
10
189.8427
20
245.7415
0
VERTEX
8
CUT
10
191.2767
20
243.9072
0
VERTEX
8
CUT
10
194.9292
20
242.1475
0
VERTEX
8
CUT
10
207.0161
20
235.2456
0
VERTEX
8
CUT
10
210.5467
20
232.6405
0
VERTEX
8
CUT
10
211.0457
20
232.2368
0
VERTEX
8
CUT
10
211.9915
20
231.3306
0
VERTEX
8
CUT
10
212.6504
20
230.6116
0
VERTEX
8
CUT
10
214.8824
20
227.7474
0
VERTEX
8
CUT
10
214.8992
20
227.7223
0
VERTEX
8
CUT
10
216.8079
20
224.1210
0
VERTEX
8
CUT
10
217.4785
20
222.3415
0
VERTEX
8
CUT
10
217.5210
20
222.2071
0
VERTEX
8
CUT
10
218.1893
20
219.2803
0
VERTEX
8
CUT
10
218.4122
20
217.5367
0
VERTEX
8
CUT
10
218.5047
20
215.5849
0
VERTEX
8
CUT
10
218.4900
20
214.3205
0
VERTEX
8
CUT
10
217.9295
20
210.6751
0
VERTEX
8
CUT
10
216.8376
20
207.4082
0
VERTEX
8
CUT
10
216.1682
20
206.0233
0
VERTEX
8
CUT
10
215.9010
20
205.5365
0
VERTEX
8
CUT
10
214.2157
20
202.9257
0
VERTEX
8
CUT
10
212.9389
20
201.4400
0
VERTEX
8
CUT
10
211.5403
20
199.9082
0
VERTEX
8
CUT
10
209.0830
20
197.9272
0
VERTEX
8
CUT
10
200.2753
20
192.9728
0
VERTEX
8
CUT
10
195.4699
20
190.0462
0
VERTEX
8
CUT
10
195.1117
20
190.3424
0
VERTEX
8
CUT
10
195.1467
20
191.2448
0
VERTEX
8
CUT
10
197.2768
20
197.7532
0
VERTEX
8
CUT
10
197.9450
20
199.4836
0
VERTEX
8
CUT
10
198.1247
20
199.8117
0
VERTEX
8
CUT
10
198.6574
20
201.1732
0
VERTEX
8
CUT
10
198.7631
20
201.6020
0
VERTEX
8
CUT
10
198.9215
20
202.0121
0
VERTEX
8
CUT
10
199.4218
20
204.0294
0
VERTEX
8
CUT
10
199.4815
20
204.5178
0
VERTEX
8
CUT
10
199.6637
20
205.2576
0
VERTEX
8
CUT
10
199.6508
20
205.9046
0
VERTEX
8
CUT
10
199.6597
20
205.9773
0
VERTEX
8
CUT
10
199.6307
20
206.9068
0
VERTEX
8
CUT
10
199.6045
20
208.2173
0
VERTEX
8
CUT
10
199.4254
20
208.6353
0
VERTEX
8
CUT
10
199.2239
20
209.6089
0
VERTEX
8
CUT
10
198.9889
20
210.2403
0
VERTEX
8
CUT
10
198.9298
20
210.4884
0
VERTEX
8
CUT
10
198.8596
20
210.5878
0
VERTEX
8
CUT
10
198.5427
20
211.4390
0
VERTEX
8
CUT
10
197.5764
20
213.2779
0
VERTEX
8
CUT
10
195.1264
20
216.8523
0
VERTEX
8
CUT
10
194.2495
20
218.4014
0
VERTEX
8
CUT
10
193.6616
20
219.9091
0
VERTEX
8
CUT
10
193.4419
20
221.0329
0
VERTEX
8
CUT
10
193.4164
20
222.3809
0
VERTEX
8
CUT
10
193.6036
20
223.4093
0
VERTEX
8
CUT
10
193.7274
20
223.8621
0
VERTEX
8
CUT
10
194.3232
20
224.9980
0
VERTEX
8
CUT
10
196.0172
20
226.7653
0
VERTEX
8
CUT
10
197.0299
20
227.2933
0
VERTEX
8
CUT
10
198.0359
20
227.4849
0
VERTEX
8
CUT
10
200.4073
20
227.4639
0
VERTEX
8
CUT
10
202.2484
20
226.5857
0
VERTEX
8
CUT
10
203.8095
20
225.1954
0
VERTEX
8
CUT
10
203.9084
20
225.0938
0
VERTEX
8
CUT
10
203.9113
20
225.0908
0
VERTEX
8
CUT
10
203.9160
20
225.0859
0
VERTEX
8
CUT
10
203.9231
20
225.0787
0
VERTEX
8
CUT
10
204.8541
20
223.7591
0
VERTEX
8
CUT
10
206.0398
20
221.2103
0
VERTEX
8
CUT
10
206.6213
20
219.1546
0
VERTEX
8
CUT
10
206.9177
20
217.0360
0
VERTEX
8
CUT
10
207.0048
20
214.8192
0
VERTEX
8
CUT
10
206.8237
20
212.5214
0
VERTEX
8
CUT
10
205.7459
20
207.8373
0
VERTEX
8
CUT
10
204.8490
20
205.5105
0
VERTEX
8
CUT
10
203.2808
20
202.3691
0
VERTEX
8
CUT
10
203.3177
20
202.2910
0
VERTEX
8
CUT
10
202.9786
20
201.6467
0
VERTEX
8
CUT
10
203.7126
20
201.8914
0
VERTEX
8
CUT
10
203.8443
20
201.9032
0
VERTEX
8
CUT
10
204.4943
20
202.3943
0
VERTEX
8
CUT
10
204.7140
20
202.5885
0
VERTEX
8
CUT
10
205.5831
20
203.2154
0
VERTEX
8
CUT
10
206.2417
20
203.9384
0
VERTEX
8
CUT
10
206.5130
20
204.1781
0
VERTEX
8
CUT
10
207.4607
20
205.2680
0
VERTEX
8
CUT
10
207.6273
20
205.4417
0
VERTEX
8
CUT
10
207.6760
20
205.5130
0
VERTEX
8
CUT
10
208.3060
20
206.2047
0
VERTEX
8
CUT
10
208.3794
20
206.3246
0
VERTEX
8
CUT
10
208.4621
20
206.4198
0
VERTEX
8
CUT
10
209.9969
20
208.8471
0
VERTEX
8
CUT
10
210.1766
20
209.2656
0
VERTEX
8
CUT
10
210.5850
20
209.9339
0
VERTEX
8
CUT
10
211.4433
20
212.2128
0
VERTEX
8
CUT
10
211.4019
20
212.8347
0
VERTEX
8
CUT
10
211.6480
20
213.9291
0
VERTEX
8
CUT
10
211.7934
20
216.5257
0
VERTEX
8
CUT
10
211.4499
20
219.0863
0
VERTEX
8
CUT
10
210.6266
20
221.6313
0
VERTEX
8
CUT
10
209.3525
20
224.0665
0
VERTEX
8
CUT
10
207.0794
20
226.8454
0
VERTEX
8
CUT
10
203.9097
20
229.6021
0
VERTEX
8
CUT
10
195.2137
20
235.3400
0
VERTEX
8
CUT
10
192.0959
20
237.6867
0
VERTEX
8
CUT
10
187.7526
20
241.9419
0
VERTEX
8
CUT
10
186.0753
20
243.9529
0
VERTEX
8
CUT
10
185.6189
20
244.6600
0
VERTEX
8
CUT
10
185.1625
20
245.7121
0
VERTEX
8
CUT
10
180.8411
20
248.6800
0
VERTEX
8
CUT
10
178.1577
20
250.9740
0
VERTEX
8
CUT
10
175.4836
20
253.6178
0
VERTEX
8
CUT
10
173.4750
20
255.9322
0
VERTEX
8
CUT
10
172.8771
20
256.8429
0
VERTEX
8
CUT
10
172.5766
20
257.3006
0
VERTEX
8
CUT
10
172.5706
20
257.3097
0
VERTEX
8
CUT
10
172.4695
20
257.4637
0
VERTEX
8
CUT
10
171.0198
20
260.3961
0
VERTEX
8
CUT
10
170.0439
20
263.6193
0
VERTEX
8
CUT
10
169.7977
20
265.2772
0
VERTEX
8
CUT
10
169.7726
20
268.4613
0
VERTEX
8
CUT
10
170.4829
20
271.8054
0
VERTEX
8
CUT
10
171.1307
20
273.5885
0
VERTEX
8
CUT
10
172.5246
20
275.8963
0
VERTEX
8
CUT
10
173.6899
20
277.4273
0
SEQEND
0
POLYLINE
8
CUT
66
1
70
1
10
0.0
20
0.0
30
0.0
0
VERTEX
8
CUT
10
160.1113
20
273.8402
0
VERTEX
8
CUT
10
160.5383
20
273.6542
0
VERTEX
8
CUT
10
160.7959
20
273.1551
0
VERTEX
8
CUT
10
161.8005
20
268.0506
0
VERTEX
8
CUT
10
162.8722
20
264.8045
0
VERTEX
8
CUT
10
164.2563
20
261.8120
0
VERTEX
8
CUT
10
164.2657
20
261.7582
0
VERTEX
8
CUT
10
164.8577
20
260.6039
0
VERTEX
8
CUT
10
165.9569
20
259.0412
0
VERTEX
8
CUT
10
166.0800
20
258.8418
0
VERTEX
8
CUT
10
166.2295
20
258.6536
0
VERTEX
8
CUT
10
167.3142
20
257.1115
0
VERTEX
8
CUT
10
169.4452
20
254.5957
0
VERTEX
8
CUT
10
172.9969
20
251.3104
0
VERTEX
8
CUT
10
181.6984
20
244.5031
0
VERTEX
8
CUT
10
184.0208
20
242.2691
0
VERTEX
8
CUT
10
184.5404
20
241.7029
0
VERTEX
8
CUT
10
185.7677
20
240.2055
0
VERTEX
8
CUT
10
186.1681
20
239.6133
0
VERTEX
8
CUT
10
187.5834
20
237.2531
0
VERTEX
8
CUT
10
188.8003
20
234.3330
0
VERTEX
8
CUT
10
189.5116
20
231.3359
0
VERTEX
8
CUT
10
189.7790
20
228.1370
0
VERTEX
8
CUT
10
189.2447
20
221.9126
0
VERTEX
8
CUT
10
188.9643
20
220.9187
0
VERTEX
8
CUT
10
188.5297
20
220.5641
0
VERTEX
8
CUT
10
188.0909
20
220.5657
0
VERTEX
8
CUT
10
187.7351
20
220.8350
0
VERTEX
8
CUT
10
187.5798
20
221.2544
0
VERTEX
8
CUT
10
187.5882
20
221.2991
0
VERTEX
8
CUT
10
186.9962
20
223.0157
0
VERTEX
8
CUT
10
184.9244
20
226.7154
0
VERTEX
8
CUT
10
183.7701
20
228.2248
0
VERTEX
8
CUT
10
183.2691
20
228.9659
0
VERTEX
8
CUT
10
178.9291
20
233.5688
0
VERTEX
8
CUT
10
171.4161
20
239.9584
0
VERTEX
8
CUT
10
168.3319
20
243.0431
0
VERTEX
8
CUT
10
165.7385
20
246.1375
0
VERTEX
8
CUT
10
163.5076
20
249.3472
0
VERTEX
8
CUT
10
161.6894
20
252.6805
0
VERTEX
8
CUT
10
160.2873
20
256.1047
0
VERTEX
8
CUT
10
159.3351
20
259.4290
0
VERTEX
8
CUT
10
158.6719
20
263.9484
0
VERTEX
8
CUT
10
158.6719
20
266.9081
0
VERTEX
8
CUT
10
158.9383
20
269.8678
0
VERTEX
8
CUT
10
159.6905
20
273.2426
0
SEQEND
0
POLYLINE
8
CUT
66
1
70
1
10
0.0
20
0.0
30
0.0
0
VERTEX
8
CUT
10
143.5849
20
239.2547
0
VERTEX
8
CUT
10
142.1577
20
242.5779
0
VERTEX
8
CUT
10
140.3151
20
245.6556
0
VERTEX
8
CUT
10
138.0232
20
248.3668
0
VERTEX
8
CUT
10
135.1598
20
250.7590
0
VERTEX
8
CUT
10
133.2666
20
251.5998
0
VERTEX
8
CUT
10
132.8501
20
251.8134
0
VERTEX
8
CUT
10
132.7525
20
251.8281
0
VERTEX
8
CUT
10
132.4333
20
251.9699
0
VERTEX
8
CUT
10
130.7085
20
252.1950
0
VERTEX
8
CUT
10
129.4030
20
252.1281
0
VERTEX
8
CUT
10
128.4793
20
251.6305
0
VERTEX
8
CUT
10
128.2543
20
251.3774
0
VERTEX
8
CUT
10
127.8256
20
250.9926
0
VERTEX
8
CUT
10
127.7661
20
250.8282
0
VERTEX
8
CUT
10
127.7320
20
250.7899
0
VERTEX
8
CUT
10
127.4291
20
249.8914
0
VERTEX
8
CUT
10
127.5649
20
249.5449
0
VERTEX
8
CUT
10
127.5655
20
249.5346
0
VERTEX
8
CUT
10
127.5745
20
249.5204
0
VERTEX
8
CUT
10
127.8028
20
248.9381
0
VERTEX
8
CUT
10
128.2088
20
248.5202
0
VERTEX
8
CUT
10
128.3350
20
248.3212
0
VERTEX
8
CUT
10
128.4518
20
248.2701
0
VERTEX
8
CUT
10
128.6432
20
248.0730
0
VERTEX
8
CUT
10
129.4820
20
247.7627
0
VERTEX
8
CUT
10
129.5132
20
247.7386
0
VERTEX
8
CUT
10
129.7244
20
247.5750
0
VERTEX
8
CUT
10
129.7368
20
247.5653
0
VERTEX
8
CUT
10
129.8694
20
247.4626
0
VERTEX
8
CUT
10
130.0836
20
247.0610
0
VERTEX
8
CUT
10
130.0788
20
246.3553
0
VERTEX
8
CUT
10
129.7577
20
245.5503
0
VERTEX
8
CUT
10
128.5545
20
244.2797
0
VERTEX
8
CUT
10
126.8477
20
243.7077
0
VERTEX
8
CUT
10
125.3744
20
243.6718
0
VERTEX
8
CUT
10
123.8085
20
243.9762
0
VERTEX
8
CUT
10
122.3922
20
244.6524
0
VERTEX
8
CUT
10
121.2005
20
245.6298
0
VERTEX
8
CUT
10
120.2270
20
246.8761
0
VERTEX
8
CUT
10
119.4687
20
248.3327
0
VERTEX
8
CUT
10
119.0249
20
249.9001
0
VERTEX
8
CUT
10
119.0100
20
249.9786
0
VERTEX
8
CUT
10
118.8802
20
251.4841
0
VERTEX
8
CUT
10
118.8747
20
251.8276
0
VERTEX
8
CUT
10
119.0390
20
253.5103
0
VERTEX
8
CUT
10
119.9159
20
256.1607
0
VERTEX
8
CUT
10
121.1422
20
257.9063
0
VERTEX
8
CUT
10
122.4777
20
259.1481
0
VERTEX
8
CUT
10
123.4898
20
259.9531
0
VERTEX
8
CUT
10
125.9613
20
261.0985
0
VERTEX
8
CUT
10
128.0380
20
261.5186
0
VERTEX
8
CUT
10
132.5548
20
261.4937
0
VERTEX
8
CUT
10
134.9668
20
261.0111
0
VERTEX
8
CUT
10
138.1339
20
259.6809
0
VERTEX
8
CUT
10
141.1246
20
257.8735
0
VERTEX
8
CUT
10
143.4593
20
255.8983
0
VERTEX
8
CUT
10
144.0077
20
255.3849
0
VERTEX
8
CUT
10
146.1849
20
252.9274
0
VERTEX
8
CUT
10
148.2099
20
249.9434
0
VERTEX
8
CUT
10
149.6019
20
247.1784
0
VERTEX
8
CUT
10
149.6019
20
247.1783
0
VERTEX
8
CUT
10
149.6033
20
247.1755
0
VERTEX
8
CUT
10
149.6047
20
247.1725
0
VERTEX
8
CUT
10
149.9225
20
246.5031
0
VERTEX
8
CUT
10
151.1408
20
243.0748
0
VERTEX
8
CUT
10
152.0149
20
239.2196
0
VERTEX
8
CUT
10
152.5260
20
234.3738
0
VERTEX
8
CUT
10
152.7645
20
234.0998
0
VERTEX
8
CUT
10
153.1253
20
234.1417
0
VERTEX
8
CUT
10
153.2927
20
234.4254
0
VERTEX
8
CUT
10
153.3585
20
235.5409
0
VERTEX
8
CUT
10
153.4628
20
235.6832
0
VERTEX
8
CUT
10
153.5220
20
238.1990
0
VERTEX
8
CUT
10
153.4602
20
238.5522
0
VERTEX
8
CUT
10
153.4895
20
239.0135
0
VERTEX
8
CUT
10
153.1717
20
244.0596
0
VERTEX
8
CUT
10
153.1381
20
244.7238
0
VERTEX
8
CUT
10
152.1708
20
248.8971
0
VERTEX
8
CUT
10
151.4363
20
251.0155
0
VERTEX
8
CUT
10
150.6004
20
252.9826
0
VERTEX
8
CUT
10
149.3370
20
255.0304
0
VERTEX
8
CUT
10
148.5130
20
256.4333
0
VERTEX
8
CUT
10
148.3558
20
256.6208
0
VERTEX
8
CUT
10
148.3417
20
256.6437
0
VERTEX
8
CUT
10
147.9962
20
257.0498
0
VERTEX
8
CUT
10
147.4185
20
257.7389
0
VERTEX
8
CUT
10
147.3419
20
257.8187
0
VERTEX
8
CUT
10
144.9995
20
260.5717
0
VERTEX
8
CUT
10
139.3430
20
266.3175
0
VERTEX
8
CUT
10
137.6723
20
268.4529
0
VERTEX
8
CUT
10
136.3437
20
271.3170
0
VERTEX
8
CUT
10
136.1772
20
272.0373
0
VERTEX
8
CUT
10
137.2250
20
276.6305
0
VERTEX
8
CUT
10
139.1064
20
281.1049
0
VERTEX
8
CUT
10
140.3141
20
283.0300
0
VERTEX
8
CUT
10
140.9625
20
283.3212
0
VERTEX
8
CUT
10
141.3262
20
282.4597
0
VERTEX
8
CUT
10
141.6548
20
279.2165
0
VERTEX
8
CUT
10
142.2647
20
276.7484
0
VERTEX
8
CUT
10
142.9790
20
275.1867
0
VERTEX
8
CUT
10
142.9263
20
274.9584
0
VERTEX
8
CUT
10
143.5335
20
273.9744
0
VERTEX
8
CUT
10
143.6670
20
273.6825
0
VERTEX
8
CUT
10
143.7495
20
273.6243
0
VERTEX
8
CUT
10
143.7846
20
273.5674
0
VERTEX
8
CUT
10
143.8459
20
273.5562
0
VERTEX
8
CUT
10
143.9229
20
273.5019
0
VERTEX
8
CUT
10
144.0298
20
273.5228
0
VERTEX
8
CUT
10
144.1102
20
273.5082
0
VERTEX
8
CUT
10
144.1171
20
273.5399
0
VERTEX
8
CUT
10
144.2200
20
273.5600
0
VERTEX
8
CUT
10
144.3763
20
273.9941
0
VERTEX
8
CUT
10
144.4334
20
274.0436
0
VERTEX
8
CUT
10
144.4404
20
274.1720
0
VERTEX
8
CUT
10
144.4617
20
274.2314
0
VERTEX
8
CUT
10
144.9491
20
277.8434
0
VERTEX
8
CUT
10
145.6913
20
280.3332
0
VERTEX
8
CUT
10
146.6577
20
282.2611
0
VERTEX
8
CUT
10
146.7059
20
282.3478
0
VERTEX
8
CUT
10
146.8290
20
282.5694
0
VERTEX
8
CUT
10
146.9047
20
282.7057
0
VERTEX
8
CUT
10
146.9353
20
282.7607
0
VERTEX
8
CUT
10
148.2610
20
284.6152
0
VERTEX
8
CUT
10
150.2649
20
286.6191
0
VERTEX
8
CUT
10
151.8922
20
287.8138
0
VERTEX
8
CUT
10
152.5646
20
288.2137
0
VERTEX
8
CUT
10
152.8400
20
288.3775
0
VERTEX
8
CUT
10
153.0255
20
288.4878
0
VERTEX
8
CUT
10
153.2888
20
288.6444
0
VERTEX
8
CUT
10
154.8202
20
289.4541
0
VERTEX
8
CUT
10
158.0284
20
290.6178
0
VERTEX
8
CUT
10
158.8081
20
290.7737
0
VERTEX
8
CUT
10
160.3697
20
291.0321
0
VERTEX
8
CUT
10
167.0139
20
290.6458
0
VERTEX
8
CUT
10
171.6651
20
289.8992
0
VERTEX
8
CUT
10
172.1975
20
289.3445
0
VERTEX
8
CUT
10
171.8469
20
288.6396
0
VERTEX
8
CUT
10
165.9006
20
285.2165
0
VERTEX
8
CUT
10
163.4418
20
283.4230
0
VERTEX
8
CUT
10
161.2354
20
281.3640
0
VERTEX
8
CUT
10
159.4522
20
279.1364
0
VERTEX
8
CUT
10
158.0155
20
276.7226
0
VERTEX
8
CUT
10
156.8971
20
274.0544
0
VERTEX
8
CUT
10
156.1021
20
271.1806
0
VERTEX
8
CUT
10
155.5968
20
266.9125
0
VERTEX
8
CUT
10
155.8888
20
262.9238
0
VERTEX
8
CUT
10
156.9500
20
257.9972
0
VERTEX
8
CUT
10
159.4116
20
248.8880
0
VERTEX
8
CUT
10
159.8861
20
245.7741
0
VERTEX
8
CUT
10
160.1839
20
241.8428
0
VERTEX
8
CUT
10
160.2133
20
237.9822
0
VERTEX
8
CUT
10
160.0062
20
235.0489
0
VERTEX
8
CUT
10
159.1157
20
231.1489
0
VERTEX
8
CUT
10
157.7779
20
227.3949
0
VERTEX
8
CUT
10
155.9714
20
223.6920
0
VERTEX
8
CUT
10
153.6809
20
220.1260
0
VERTEX
8
CUT
10
150.9164
20
216.6209
0
VERTEX
8
CUT
10
147.6185
20
213.1170
0
VERTEX
8
CUT
10
143.7810
20
209.6632
0
VERTEX
8
CUT
10
139.3764
20
206.1215
0
VERTEX
8
CUT
10
137.0145
20
204.6154
0
VERTEX
8
CUT
10
136.3673
20
204.7454
0
VERTEX
8
CUT
10
136.3698
20
205.4876
0
VERTEX
8
CUT
10
141.5225
20
216.4455
0
VERTEX
8
CUT
10
142.9379
20
220.5039
0
VERTEX
8
CUT
10
143.6071
20
222.0094
0
VERTEX
8
CUT
10
143.7746
20
222.5699
0
VERTEX
8
CUT
10
143.7890
20
222.6007
0
VERTEX
8
CUT
10
143.9372
20
223.1141
0
VERTEX
8
CUT
10
144.3766
20
224.5844
0
VERTEX
8
CUT
10
144.3906
20
224.6690
0
VERTEX
8
CUT
10
144.5019
20
224.9883
0
VERTEX
8
CUT
10
145.0241
20
228.4478
0
VERTEX
8
CUT
10
145.0252
20
232.0608
0
VERTEX
8
CUT
10
144.9159
20
232.8572
0
VERTEX
8
CUT
10
144.9389
20
233.3747
0
VERTEX
8
CUT
10
144.8205
20
234.1442
0
VERTEX
8
CUT
10
144.7307
20
234.2071
0
VERTEX
8
CUT
10
144.5290
20
235.6777
0
VERTEX
8
CUT
10
144.3733
20
236.2676
0
VERTEX
8
CUT
10
144.2930
20
236.7774
0
VERTEX
8
CUT
10
144.0802
20
237.3779
0
SEQEND
0
ENDSEC
0
EOF
