0
SECTION
2
HEADER
9
$ACADVER
1
AC1009
9
$INSUNITS
70
4
0
ENDSEC
0
SECTION
2
TABLES
0
TABLE
2
LAYER
70
1
0
LAYER
2
CUT
70
0
62
7
6
CONTINUOUS
0
ENDTAB
0
ENDSEC
0
SECTION
2
ENTITIES
0
POLYLINE
8
CUT
66
1
70
1
10
0.0
20
0.0
30
0.0
0
VERTEX
8
CUT
10
0.4440
20
286.4121
0
VERTEX
8
CUT
10
0.6538
20
299.4352
0
VERTEX
8
CUT
10
66.8026
20
299.6744
0
VERTEX
8
CUT
10
250.6590
20
299.7632
0
VERTEX
8
CUT
10
283.9884
20
299.7040
0
VERTEX
8
CUT
10
297.7147
20
299.5561
0
VERTEX
8
CUT
10
299.3734
20
299.3784
0
VERTEX
8
CUT
10
299.6152
20
286.2645
0
VERTEX
8
CUT
10
299.7632
20
252.4364
0
VERTEX
8
CUT
10
299.9408
20
149.9708
0
VERTEX
8
CUT
10
299.9112
20
47.5059
0
VERTEX
8
CUT
10
299.9103
20
47.1502
0
VERTEX
8
CUT
10
299.7928
20
13.5582
0
VERTEX
8
CUT
10
299.5545
20
0.5008
0
VERTEX
8
CUT
10
299.0366
20
0.4371
0
VERTEX
8
CUT
10
286.4418
20
0.2072
0
VERTEX
8
CUT
10
260.3096
20
0.1158
0
VERTEX
8
CUT
10
211.1688
20
0.0529
0
VERTEX
8
CUT
10
185.8998
20
0.0311
0
VERTEX
8
CUT
10
91.0359
20
0.0510
0
VERTEX
8
CUT
10
47.4171
20
0.0888
0
VERTEX
8
CUT
10
1.0203
20
0.3836
0
VERTEX
8
CUT
10
0.8589
20
0.3876
0
VERTEX
8
CUT
10
0.6806
20
0.6019
0
VERTEX
8
CUT
10
0.5327
20
13.5580
0
VERTEX
8
CUT
10
0.2960
20
149.9995
0
VERTEX
8
CUT
10
0.3552
20
252.5829
0
SEQEND
0
POLYLINE
8
CUT
66
1
70
1
10
0.0
20
0.0
30
0.0
0
VERTEX
8
CUT
10
8.7362
20
146.3891
0
VERTEX
8
CUT
10
8.9134
20
127.3720
0
VERTEX
8
CUT
10
9.7986
20
116.7431
0
VERTEX
8
CUT
10
11.9928
20
103.5877
0
VERTEX
8
CUT
10
15.5992
20
90.7362
0
VERTEX
8
CUT
10
20.5062
20
78.2670
0
VERTEX
8
CUT
10
26.6545
20
66.2998
0
VERTEX
8
CUT
10
34.0143
20
54.9237
0
VERTEX
8
CUT
10
42.4971
20
44.2863
0
VERTEX
8
CUT
10
51.9858
20
34.5324
0
VERTEX
8
CUT
10
62.5426
20
25.6586
0
VERTEX
8
CUT
10
68.7581
20
21.2476
0
VERTEX
8
CUT
10
78.3370
20
15.2761
0
VERTEX
8
CUT
10
83.6595
20
12.5117
0
VERTEX
8
CUT
10
87.1268
20
11.1809
0
VERTEX
8
CUT
10
91.2191
20
10.5999
0
VERTEX
8
CUT
10
110.5466
20
10.2752
0
VERTEX
8
CUT
10
167.7881
20
10.2752
0
VERTEX
8
CUT
10
191.5654
20
10.5115
0
VERTEX
8
CUT
10
195.9208
20
10.9813
0
VERTEX
8
CUT
10
199.5714
20
11.9232
0
VERTEX
8
CUT
10
205.7889
20
14.3986
0
VERTEX
8
CUT
10
212.6753
20
17.7084
0
VERTEX
8
CUT
10
219.8369
20
21.6148
0
VERTEX
8
CUT
10
226.7226
20
25.8707
0
VERTEX
8
CUT
10
229.9465
20
28.0604
0
VERTEX
8
CUT
10
241.8044
20
37.3226
0
VERTEX
8
CUT
10
252.5932
20
47.6947
0
VERTEX
8
CUT
10
262.2005
20
59.0430
0
VERTEX
8
CUT
10
270.5949
20
71.2174
0
VERTEX
8
CUT
10
277.6479
20
84.1380
0
VERTEX
8
CUT
10
283.2468
20
97.5459
0
VERTEX
8
CUT
10
287.3662
20
111.4750
0
VERTEX
8
CUT
10
289.9017
20
125.5977
0
VERTEX
8
CUT
10
290.2292
20
128.7441
0
VERTEX
8
CUT
10
290.7315
20
136.1931
0
VERTEX
8
CUT
10
290.9383
20
143.4041
0
VERTEX
8
CUT
10
290.8813
20
148.3447
0
VERTEX
8
CUT
10
290.7493
20
148.9725
0
VERTEX
8
CUT
10
290.4964
20
149.1951
0
VERTEX
8
CUT
10
290.1971
20
149.1580
0
VERTEX
8
CUT
10
286.1047
20
146.5341
0
VERTEX
8
CUT
10
281.6319
20
144.1346
0
VERTEX
8
CUT
10
275.4918
20
141.4047
0
VERTEX
8
CUT
10
270.5493
20
139.5584
0
VERTEX
8
CUT
10
265.4080
20
137.9038
0
VERTEX
8
CUT
10
260.0414
20
136.4505
0
VERTEX
8
CUT
10
248.7018
20
134.1646
0
VERTEX
8
CUT
10
242.8029
20
133.3350
0
VERTEX
8
CUT
10
230.5868
20
132.0505
0
VERTEX
8
CUT
10
230.1648
20
131.5903
0
VERTEX
8
CUT
10
229.5046
20
129.6263
0
VERTEX
8
CUT
10
228.8386
20
129.2221
0
VERTEX
8
CUT
10
227.9618
20
129.2574
0
VERTEX
8
CUT
10
226.8226
20
129.6171
0
VERTEX
8
CUT
10
225.8670
20
130.1597
0
VERTEX
8
CUT
10
224.3771
20
131.5010
0
VERTEX
8
CUT
10
224.0197
20
131.6132
0
VERTEX
8
CUT
10
223.7269
20
131.4429
0
VERTEX
8
CUT
10
223.3727
20
130.6363
0
VERTEX
8
CUT
10
223.4845
20
129.7028
0
VERTEX
8
CUT
10
227.0143
20
128.5355
0
VERTEX
8
CUT
10
238.6766
20
125.7896
0
VERTEX
8
CUT
10
244.9691
20
124.6964
0
VERTEX
8
CUT
10
251.0850
20
123.9278
0
VERTEX
8
CUT
10
256.9661
20
123.4840
0
VERTEX
8
CUT
10
262.6336
20
123.3065
0
VERTEX
8
CUT
10
268.1291
20
123.4830
0
VERTEX
8
CUT
10
273.4675
20
123.9284
0
VERTEX
8
CUT
10
278.5715
20
124.7256
0
VERTEX
8
CUT
10
283.9386
20
125.8799
0
VERTEX
8
CUT
10
284.4151
20
125.7731
0
VERTEX
8
CUT
10
284.5785
20
125.3253
0
VERTEX
8
CUT
10
284.2372
20
124.8589
0
VERTEX
8
CUT
10
283.5038
20
124.4566
0
VERTEX
8
CUT
10
280.8884
20
123.5201
0
VERTEX
8
CUT
10
277.1855
20
122.5643
0
VERTEX
8
CUT
10
273.0204
20
121.7667
0
VERTEX
8
CUT
10
268.3462
20
121.3779
0
VERTEX
8
CUT
10
261.6973
20
121.2292
0
VERTEX
8
CUT
10
254.9504
20
121.2884
0
VERTEX
8
CUT
10
250.0032
20
121.6168
0
VERTEX
8
CUT
10
239.2877
20
123.3337
0
VERTEX
8
CUT
10
230.3967
20
125.2296
0
VERTEX
8
CUT
10
229.3309
20
125.3998
0
VERTEX
8
CUT
10
229.0276
20
125.2472
0
VERTEX
8
CUT
10
228.9707
20
124.8773
0
VERTEX
8
CUT
10
229.8732
20
122.9582
0
VERTEX
8
CUT
10
230.7117
20
120.3130
0
VERTEX
8
CUT
10
230.9795
20
117.6043
0
VERTEX
8
CUT
10
230.8532
20
115.5484
0
VERTEX
8
CUT
10
230.2786
20
113.4753
0
VERTEX
8
CUT
10
229.2712
20
111.4306
0
VERTEX
8
CUT
10
225.1062
20
106.3388
0
VERTEX
8
CUT
10
225.3233
20
105.9974
0
VERTEX
8
CUT
10
228.2262
20
104.8287
0
VERTEX
8
CUT
10
228.7433
20
104.2966
0
VERTEX
8
CUT
10
228.7715
20
103.7740
0
VERTEX
8
CUT
10
224.7195
20
101.3286
0
VERTEX
8
CUT
10
222.8433
20
99.7772
0
VERTEX
8
CUT
10
221.0337
20
97.9076
0
VERTEX
8
CUT
10
218.0667
20
93.8180
0
VERTEX
8
CUT
10
217.3667
20
93.2527
0
VERTEX
8
CUT
10
216.6139
20
93.0699
0
VERTEX
8
CUT
10
216.4379
20
92.7891
0
VERTEX
8
CUT
10
216.5993
20
92.4246
0
VERTEX
8
CUT
10
219.1938
20
90.7756
0
VERTEX
8
CUT
10
221.3066
20
89.7173
0
VERTEX
8
CUT
10
222.6870
20
89.2641
0
VERTEX
8
CUT
10
222.9255
20
88.9792
0
VERTEX
8
CUT
10
222.7926
20
88.5012
0
VERTEX
8
CUT
10
219.2126
20
84.9319
0
VERTEX
8
CUT
10
214.5898
20
81.3628
0
VERTEX
8
CUT
10
214.5869
20
80.9333
0
VERTEX
8
CUT
10
216.1312
20
79.0567
0
VERTEX
8
CUT
10
216.0677
20
78.4128
0
VERTEX
8
CUT
10
214.8537
20
77.6135
0
VERTEX
8
CUT
10
211.1398
20
76.3581
0
VERTEX
8
CUT
10
211.1558
20
75.8806
0
VERTEX
8
CUT
10
211.5277
20
75.1239
0
VERTEX
8
CUT
10
213.0773
20
72.9126
0
VERTEX
8
CUT
10
213.0646
20
72.3896
0
VERTEX
8
CUT
10
212.2914
20
72.0390
0
VERTEX
8
CUT
10
207.6747
20
72.4219
0
VERTEX
8
CUT
10
206.6133
20
72.2682
0
VERTEX
8
CUT
10
206.0011
20
71.6661
0
VERTEX
8
CUT
10
204.7568
20
69.0538
0
VERTEX
8
CUT
10
204.2397
20
68.5765
0
VERTEX
8
CUT
10
203.3547
20
68.3992
0
VERTEX
8
CUT
10
203.1334
20
68.1430
0
VERTEX
8
CUT
10
203.2695
20
67.6497
0
VERTEX
8
CUT
10
205.8578
20
64.5161
0
VERTEX
8
CUT
10
206.3212
20
63.5659
0
VERTEX
8
CUT
10
205.7946
20
63.1231
0
VERTEX
8
CUT
10
204.9986
20
62.9232
0
VERTEX
8
CUT
10
202.0909
20
63.0991
0
VERTEX
8
CUT
10
201.7403
20
62.3889
0
VERTEX
8
CUT
10
201.8543
20
61.2548
0
VERTEX
8
CUT
10
202.8840
20
60.1538
0
VERTEX
8
CUT
10
206.1034
20
58.4087
0
VERTEX
8
CUT
10
206.4132
20
57.7300
0
VERTEX
8
CUT
10
205.6213
20
57.1340
0
VERTEX
8
CUT
10
202.8532
20
56.6143
0
VERTEX
8
CUT
10
202.5643
20
55.7494
0
VERTEX
8
CUT
10
202.7095
20
54.4618
0
VERTEX
8
CUT
10
203.2613
20
54.0455
0
VERTEX
8
CUT
10
210.0026
20
53.0984
0
VERTEX
8
CUT
10
210.9141
20
52.7553
0
VERTEX
8
CUT
10
211.1789
20
52.4146
0
VERTEX
8
CUT
10
210.8190
20
51.8895
0
VERTEX
8
CUT
10
209.7065
20
51.4510
0
VERTEX
8
CUT
10
206.2139
20
50.7032
0
VERTEX
8
CUT
10
203.9810
20
50.5546
0
VERTEX
8
CUT
10
203.4446
20
50.1058
0
VERTEX
8
CUT
10
203.5084
20
48.3909
0
VERTEX
8
CUT
10
203.7665
20
47.7337
0
VERTEX
8
CUT
10
204.3118
20
47.3152
0
VERTEX
8
CUT
10
208.6570
20
45.5077
0
VERTEX
8
CUT
10
209.0479
20
45.0395
0
VERTEX
8
CUT
10
208.7701
20
44.4767
0
VERTEX
8
CUT
10
207.6888
20
43.4768
0
VERTEX
8
CUT
10
207.5371
20
33.7434
0
VERTEX
8
CUT
10
207.0947
20
29.5847
0
VERTEX
8
CUT
10
206.4036
20
25.8329
0
VERTEX
8
CUT
10
205.4922
20
22.6575
0
VERTEX
8
CUT
10
204.3464
20
19.9989
0
VERTEX
8
CUT
10
203.0220
20
18.0128
0
VERTEX
8
CUT
10
201.4747
20
16.7454
0
VERTEX
8
CUT
10
199.7186
20
16.3105
0
VERTEX
8
CUT
10
198.1049
20
16.6686
0
VERTEX
8
CUT
10
197.1272
20
17.1227
0
VERTEX
8
CUT
10
193.7115
20
19.4543
0
VERTEX
8
CUT
10
191.0609
20
21.8056
0
VERTEX
8
CUT
10
185.4478
20
27.6554
0
VERTEX
8
CUT
10
170.3313
20
45.0501
0
VERTEX
8
CUT
10
166.7607
20
48.6803
0
VERTEX
8
CUT
10
164.4342
20
50.6880
0
VERTEX
8
CUT
10
163.7949
20
50.9075
0
VERTEX
8
CUT
10
161.9936
20
50.3365
0
VERTEX
8
CUT
10
159.0396
20
48.8315
0
VERTEX
8
CUT
10
156.1522
20
47.0176
0
VERTEX
8
CUT
10
155.3553
20
46.6532
0
VERTEX
8
CUT
10
154.9291
20
46.6921
0
VERTEX
8
CUT
10
154.6860
20
46.9924
0
VERTEX
8
CUT
10
154.5265
20
47.9386
0
VERTEX
8
CUT
10
154.7373
20
49.9752
0
VERTEX
8
CUT
10
155.4499
20
52.9879
0
VERTEX
8
CUT
10
155.3473
20
53.3029
0
VERTEX
8
CUT
10
155.0392
20
53.4249
0
VERTEX
8
CUT
10
149.8379
20
51.9267
0
VERTEX
8
CUT
10
145.1669
20
50.0335
0
VERTEX
8
CUT
10
142.2686
20
48.3638
0
VERTEX
8
CUT
10
136.6707
20
43.9136
0
VERTEX
8
CUT
10
135.8013
20
43.4522
0
VERTEX
8
CUT
10
135.4499
20
43.5586
0
VERTEX
8
CUT
10
135.3214
20
43.8861
0
VERTEX
8
CUT
10
135.6837
20
46.6224
0
VERTEX
8
CUT
10
135.2968
20
47.0198
0
VERTEX
8
CUT
10
131.2351
20
43.8398
0
VERTEX
8
CUT
10
130.2903
20
43.3100
0
VERTEX
8
CUT
10
129.5241
20
43.3571
0
VERTEX
8
CUT
10
129.5486
20
44.2852
0
VERTEX
8
CUT
10
130.9397
20
48.4807
0
VERTEX
8
CUT
10
130.5764
20
48.8827
0
VERTEX
8
CUT
10
129.8558
20
48.5514
0
VERTEX
8
CUT
10
125.7378
20
45.5021
0
VERTEX
8
CUT
10
120.2323
20
40.3200
0
VERTEX
8
CUT
10
115.7641
20
35.4080
0
VERTEX
8
CUT
10
105.3423
20
23.1509
0
VERTEX
8
CUT
10
99.5494
20
17.2414
0
VERTEX
8
CUT
10
96.2691
20
14.5903
0
VERTEX
8
CUT
10
93.2526
20
12.8209
0
VERTEX
8
CUT
10
91.3466
20
12.6379
0
VERTEX
8
CUT
10
88.3840
20
12.9705
0
VERTEX
8
CUT
10
82.8396
20
14.7317
0
VERTEX
8
CUT
10
78.2656
20
16.8715
0
VERTEX
8
CUT
10
75.9540
20
18.2577
0
VERTEX
8
CUT
10
74.6746
20
19.4851
0
VERTEX
8
CUT
10
73.5089
20
21.3125
0
VERTEX
8
CUT
10
72.3236
20
23.8906
0
VERTEX
8
CUT
10
71.0400
20
27.4137
0
VERTEX
8
CUT
10
69.7347
20
31.8364
0
VERTEX
8
CUT
10
68.6082
20
36.6704
0
VERTEX
8
CUT
10
67.6893
20
41.7720
0
VERTEX
8
CUT
10
67.0081
20
47.1350
0
VERTEX
8
CUT
10
66.5044
20
52.6794
0
VERTEX
8
CUT
10
66.2380
20
58.3116
0
VERTEX
8
CUT
10
66.2087
20
63.9735
0
VERTEX
8
CUT
10
66.5163
20
72.8330
0
VERTEX
8
CUT
10
66.3217
20
73.1089
0
VERTEX
8
CUT
10
65.9846
20
73.1290
0
VERTEX
8
CUT
10
64.2592
20
72.0297
0
VERTEX
8
CUT
10
63.0368
20
71.5125
0
VERTEX
8
CUT
10
62.6417
20
71.5866
0
VERTEX
8
CUT
10
62.3621
20
72.1116
0
VERTEX
8
CUT
10
63.1616
20
80.6806
0
VERTEX
8
CUT
10
64.3029
20
86.3781
0
VERTEX
8
CUT
10
64.0605
20
86.6671
0
VERTEX
8
CUT
10
62.4949
20
86.9107
0
VERTEX
8
CUT
10
60.2722
20
87.8442
0
VERTEX
8
CUT
10
58.0797
20
89.1995
0
VERTEX
8
CUT
10
56.7313
20
90.5330
0
VERTEX
8
CUT
10
56.6834
20
91.0873
0
VERTEX
8
CUT
10
56.9207
20
91.3655
0
VERTEX
8
CUT
10
60.3278
20
92.6576
0
VERTEX
8
CUT
10
62.0197
20
93.6910
0
VERTEX
8
CUT
10
62.3420
20
94.2980
0
VERTEX
8
CUT
10
58.3035
20
97.3547
0
VERTEX
8
CUT
10
55.6178
20
100.1612
0
VERTEX
8
CUT
10
54.4830
20
101.7173
0
VERTEX
8
CUT
10
52.7368
20
104.9728
0
VERTEX
8
CUT
10
52.0943
20
106.6891
0
VERTEX
8
CUT
10
51.9175
20
108.1605
0
VERTEX
8
CUT
10
52.2166
20
108.5193
0
VERTEX
8
CUT
10
53.0153
20
108.5931
0
VERTEX
8
CUT
10
55.9728
20
107.7001
0
VERTEX
8
CUT
10
58.3325
20
107.3533
0
VERTEX
8
CUT
10
59.0817
20
107.4090
0
VERTEX
8
CUT
10
59.2564
20
107.8694
0
VERTEX
8
CUT
10
55.8428
20
114.2990
0
VERTEX
8
CUT
10
53.3782
20
118.1426
0
VERTEX
8
CUT
10
51.4251
20
120.5981
0
VERTEX
8
CUT
10
45.9126
20
126.5048
0
VERTEX
8
CUT
10
46.1377
20
126.9962
0
VERTEX
8
CUT
10
46.6807
20
127.3270
0
VERTEX
8
CUT
10
48.4878
20
127.8570
0
VERTEX
8
CUT
10
50.7337
20
128.1897
0
VERTEX
8
CUT
10
54.2280
20
128.1026
0
VERTEX
8
CUT
10
54.5793
20
128.4899
0
VERTEX
8
CUT
10
51.3590
20
133.0982
0
VERTEX
8
CUT
10
49.2019
20
137.1742
0
VERTEX
8
CUT
10
47.6853
20
141.4322
0
VERTEX
8
CUT
10
46.2918
20
148.5707
0
VERTEX
8
CUT
10
43.6799
20
149.8888
0
VERTEX
8
CUT
10
34.0652
20
153.7777
0
VERTEX
8
CUT
10
29.1135
20
156.2093
0
VERTEX
8
CUT
10
24.0833
20
158.9611
0
VERTEX
8
CUT
10
17.0997
20
163.4487
0
VERTEX
8
CUT
10
10.5606
20
168.6790
0
VERTEX
8
CUT
10
10.1557
20
168.6423
0
VERTEX
8
CUT
10
9.9159
20
168.1505
0
VERTEX
8
CUT
10
9.3870
20
163.6317
0
VERTEX
8
CUT
10
8.9729
20
156.0321
0
SEQEND
0
POLYLINE
8
CUT
66
1
70
1
10
0.0
20
0.0
30
0.0
0
VERTEX
8
CUT
10
234.1854
20
134.8481
0
VERTEX
8
CUT
10
238.5103
20
135.2038
0
VERTEX
8
CUT
10
247.2457
20
136.3252
0
VERTEX
8
CUT
10
255.8891
20
137.9532
0
VERTEX
8
CUT
10
264.1348
20
139.9929
0
VERTEX
8
CUT
10
272.3754
20
142.6515
0
VERTEX
8
CUT
10
278.2441
20
144.9812
0
VERTEX
8
CUT
10
288.1081
20
149.7203
0
VERTEX
8
CUT
10
290.2424
20
150.4405
0
VERTEX
8
CUT
10
290.6409
20
151.8857
0
VERTEX
8
CUT
10
290.6717
20
154.7506
0
VERTEX
8
CUT
10
290.1994
20
163.0301
0
VERTEX
8
CUT
10
289.3138
20
171.1808
0
VERTEX
8
CUT
10
288.6017
20
174.4553
0
VERTEX
8
CUT
10
288.2949
20
174.6576
0
VERTEX
8
CUT
10
287.9819
20
174.5430
0
VERTEX
8
CUT
10
286.3340
20
172.2673
0
VERTEX
8
CUT
10
283.4889
20
168.9187
0
VERTEX
8
CUT
10
280.2349
20
165.3688
0
VERTEX
8
CUT
10
277.1024
20
162.3560
0
VERTEX
8
CUT
10
272.7110
20
158.6480
0
VERTEX
8
CUT
10
268.1037
20
155.2221
0
VERTEX
8
CUT
10
263.1887
20
152.0346
0
VERTEX
8
CUT
10
257.9683
20
149.0693
0
VERTEX
8
CUT
10
252.4836
20
146.3721
0
VERTEX
8
CUT
10
246.6328
20
143.8603
0
VERTEX
8
CUT
10
240.4206
20
141.5714
0
VERTEX
8
CUT
10
230.0818
20
138.1581
0
VERTEX
8
CUT
10
229.6643
20
137.8017
0
VERTEX
8
CUT
10
229.5605
20
136.2201
0
VERTEX
8
CUT
10
229.0574
20
135.8419
0
VERTEX
8
CUT
10
226.1757
20
135.5257
0
VERTEX
8
CUT
10
223.9986
20
135.6115
0
VERTEX
8
CUT
10
223.6764
20
135.3741
0
VERTEX
8
CUT
10
223.6976
20
134.8240
0
VERTEX
8
CUT
10
224.5250
20
134.4917
0
VERTEX
8
CUT
10
229.6612
20
134.5526
0
SEQEND
0
POLYLINE
8
CUT
66
1
70
1
10
0.0
20
0.0
30
0.0
0
VERTEX
8
CUT
10
278.1809
20
10.2752
0
VERTEX
8
CUT
10
286.3834
20
10.3939
0
VERTEX
8
CUT
10
289.3562
20
10.6694
0
VERTEX
8
CUT
10
289.6066
20
13.9269
0
VERTEX
8
CUT
10
289.7248
20
22.9108
0
VERTEX
8
CUT
10
289.8136
20
50.0502
0
VERTEX
8
CUT
10
289.7248
20
77.0731
0
VERTEX
8
CUT
10
289.5767
20
85.9511
0
VERTEX
8
CUT
10
289.3811
20
87.7859
0
VERTEX
8
CUT
10
289.0613
20
87.8831
0
VERTEX
8
CUT
10
288.7840
20
87.6965
0
VERTEX
8
CUT
10
284.2607
20
78.1905
0
VERTEX
8
CUT
10
280.1162
20
70.2861
0
VERTEX
8
CUT
10
274.5776
20
61.3999
0
VERTEX
8
CUT
10
268.3970
20
52.8717
0
VERTEX
8
CUT
10
261.6686
20
44.7813
0
VERTEX
8
CUT
10
254.4264
20
37.1843
0
VERTEX
8
CUT
10
246.6923
20
30.0713
0
VERTEX
8
CUT
10
238.5123
20
23.5497
0
VERTEX
8
CUT
10
229.9537
20
17.6064
0
VERTEX
8
CUT
10
219.1502
20
11.2070
0
VERTEX
8
CUT
10
218.9988
20
10.8764
0
VERTEX
8
CUT
10
219.2196
20
10.5470
0
VERTEX
8
CUT
10
220.8544
20
10.4236
0
VERTEX
8
CUT
10
240.3595
20
10.2160
0
SEQEND
0
POLYLINE
8
CUT
66
1
70
1
10
0.0
20
0.0
30
0.0
0
VERTEX
8
CUT
10
227.7184
20
277.0871
0
VERTEX
8
CUT
10
235.8579
20
271.7299
0
VERTEX
8
CUT
10
239.7234
20
268.9049
0
VERTEX
8
CUT
10
247.1798
20
262.8393
0
VERTEX
8
CUT
10
254.5997
20
255.9538
0
VERTEX
8
CUT
10
259.3595
20
251.1052
0
VERTEX
8
CUT
10
263.8646
20
246.0969
0
VERTEX
8
CUT
10
268.1137
20
240.9268
0
VERTEX
8
CUT
10
272.1448
20
235.5908
0
VERTEX
8
CUT
10
275.9380
20
230.0483
0
VERTEX
8
CUT
10
279.5234
20
224.2696
0
VERTEX
8
CUT
10
282.9011
20
218.2840
0
VERTEX
8
CUT
10
288.5648
20
206.8500
0
VERTEX
8
CUT
10
288.8793
20
206.6498
0
VERTEX
8
CUT
10
289.1933
20
206.7757
0
VERTEX
8
CUT
10
289.3697
20
208.8503
0
VERTEX
8
CUT
10
289.4584
20
217.7209
0
VERTEX
8
CUT
10
289.4880
20
258.3832
0
VERTEX
8
CUT
10
289.3697
20
284.6310
0
VERTEX
8
CUT
10
289.1138
20
289.3260
0
VERTEX
8
CUT
10
285.4822
20
289.6065
0
VERTEX
8
CUT
10
261.9642
20
289.7840
0
VERTEX
8
CUT
10
216.8934
20
289.7248
0
VERTEX
8
CUT
10
205.4187
20
289.5014
0
VERTEX
8
CUT
10
205.0886
20
289.1842
0
VERTEX
8
CUT
10
205.2881
20
288.7722
0
VERTEX
8
CUT
10
211.6280
20
285.7998
0
VERTEX
8
CUT
10
221.5226
20
280.7041
0
SEQEND
0
POLYLINE
8
CUT
66
1
70
1
10
0.0
20
0.0
30
0.0
0
VERTEX
8
CUT
10
242.2541
20
175.6016
0
VERTEX
8
CUT
10
242.5215
20
175.6250
0
VERTEX
8
CUT
10
242.8172
20
175.2958
0
VERTEX
8
CUT
10
242.6895
20
174.0249
0
VERTEX
8
CUT
10
240.9604
20
169.2899
0
VERTEX
8
CUT
10
237.4613
20
162.9444
0
VERTEX
8
CUT
10
232.1360
20
155.0455
0
VERTEX
8
CUT
10
230.8722
20
152.3680
0
VERTEX
8
CUT
10
229.5509
20
148.5781
0
VERTEX
8
CUT
10
228.8385
20
148.1194
0
VERTEX
8
CUT
10
227.7078
20
147.8904
0
VERTEX
8
CUT
10
225.4247
20
146.0272
0
VERTEX
8
CUT
10
223.4051
20
144.9582
0
VERTEX
8
CUT
10
222.1630
20
144.7000
0
VERTEX
8
CUT
10
220.9808
20
144.7980
0
VERTEX
8
CUT
10
220.7861
20
144.1746
0
VERTEX
8
CUT
10
221.3691
20
143.3801
0
VERTEX
8
CUT
10
221.8340
20
143.3504
0
VERTEX
8
CUT
10
222.7656
20
143.7157
0
VERTEX
8
CUT
10
227.8330
20
146.2504
0
VERTEX
8
CUT
10
234.0807
20
149.9339
0
VERTEX
8
CUT
10
240.0169
20
154.0090
0
VERTEX
8
CUT
10
245.5410
20
158.3799
0
VERTEX
8
CUT
10
250.6494
20
163.0146
0
VERTEX
8
CUT
10
255.3057
20
167.9379
0
VERTEX
8
CUT
10
259.4379
20
173.0759
0
VERTEX
8
CUT
10
263.0213
20
178.3922
0
VERTEX
8
CUT
10
266.1361
20
183.9109
0
VERTEX
8
CUT
10
268.6422
20
189.5152
0
VERTEX
8
CUT
10
270.4342
20
194.9222
0
VERTEX
8
CUT
10
271.8241
20
200.6301
0
VERTEX
8
CUT
10
272.7680
20
206.4736
0
VERTEX
8
CUT
10
272.9772
20
207.0874
0
VERTEX
8
CUT
10
273.3297
20
207.3233
0
VERTEX
8
CUT
10
273.7571
20
206.9141
0
VERTEX
8
CUT
10
273.8660
20
206.0534
0
VERTEX
8
CUT
10
273.5379
20
199.9868
0
VERTEX
8
CUT
10
273.0293
20
196.6468
0
VERTEX
8
CUT
10
271.0465
20
189.5737
0
VERTEX
8
CUT
10
269.6416
20
185.9563
0
VERTEX
8
CUT
10
266.1201
20
178.7655
0
VERTEX
8
CUT
10
261.6853
20
171.8005
0
VERTEX
8
CUT
10
259.1913
20
168.5059
0
VERTEX
8
CUT
10
254.9267
20
163.7972
0
VERTEX
8
CUT
10
251.3931
20
160.2933
0
VERTEX
8
CUT
10
246.5377
20
155.9411
0
VERTEX
8
CUT
10
238.5549
20
150.1234
0
VERTEX
8
CUT
10
229.9860
20
144.7916
0
VERTEX
8
CUT
10
229.3895
20
142.7146
0
VERTEX
8
CUT
10
228.7185
20
141.6814
0
VERTEX
8
CUT
10
228.2237
20
141.3632
0
VERTEX
8
CUT
10
226.8463
20
141.0337
0
VERTEX
8
CUT
10
222.7864
20
140.9868
0
VERTEX
8
CUT
10
222.5823
20
140.7779
0
VERTEX
8
CUT
10
222.5693
20
140.3869
0
VERTEX
8
CUT
10
222.9471
20
139.4156
0
VERTEX
8
CUT
10
223.3988
20
138.9911
0
VERTEX
8
CUT
10
224.4691
20
139.2217
0
VERTEX
8
CUT
10
238.3203
20
143.2772
0
VERTEX
8
CUT
10
246.6246
20
146.4107
0
VERTEX
8
CUT
10
254.3705
20
149.9450
0
VERTEX
8
CUT
10
261.6065
20
153.9015
0
VERTEX
8
CUT
10
268.3408
20
158.3304
0
VERTEX
8
CUT
10
274.6269
20
163.2525
0
VERTEX
8
CUT
10
280.4216
20
168.6059
0
VERTEX
8
CUT
10
286.6637
20
175.4376
0
VERTEX
8
CUT
10
288.0544
20
176.4734
0
VERTEX
8
CUT
10
288.1271
20
178.0128
0
VERTEX
8
CUT
10
287.5996
20
181.4099
0
VERTEX
8
CUT
10
285.2372
20
190.8044
0
VERTEX
8
CUT
10
283.6662
20
195.6363
0
VERTEX
8
CUT
10
279.8598
20
205.3147
0
VERTEX
8
CUT
10
275.2500
20
214.8605
0
VERTEX
8
CUT
10
272.7014
20
219.4540
0
VERTEX
8
CUT
10
268.0332
20
226.8988
0
VERTEX
8
CUT
10
264.9877
20
231.3633
0
VERTEX
8
CUT
10
262.9410
20
233.9740
0
VERTEX
8
CUT
10
262.6076
20
233.9590
0
VERTEX
8
CUT
10
262.4176
20
233.7285
0
VERTEX
8
CUT
10
261.7264
20
230.1926
0
VERTEX
8
CUT
10
260.6402
20
227.4735
0
VERTEX
8
CUT
10
259.1251
20
224.8592
0
VERTEX
8
CUT
10
256.6201
20
221.7972
0
VERTEX
8
CUT
10
256.5683
20
221.4074
0
VERTEX
8
CUT
10
256.9574
20
221.1697
0
VERTEX
8
CUT
10
261.3376
20
221.6558
0
VERTEX
8
CUT
10
264.1544
20
221.3528
0
VERTEX
8
CUT
10
266.3032
20
220.7844
0
VERTEX
8
CUT
10
267.9907
20
220.1038
0
VERTEX
8
CUT
10
269.0181
20
219.3364
0
VERTEX
8
CUT
10
269.1732
20
218.7626
0
VERTEX
8
CUT
10
268.9051
20
218.2949
0
VERTEX
8
CUT
10
267.3704
20
216.9965
0
VERTEX
8
CUT
10
264.7683
20
215.2305
0
VERTEX
8
CUT
10
253.7901
20
208.9267
0
VERTEX
8
CUT
10
250.5169
20
206.1502
0
VERTEX
8
CUT
10
248.3425
20
203.8297
0
VERTEX
8
CUT
10
247.3195
20
202.4654
0
VERTEX
8
CUT
10
247.3527
20
202.1331
0
VERTEX
8
CUT
10
247.6311
20
201.9487
0
VERTEX
8
CUT
10
254.0519
20
201.3183
0
VERTEX
8
CUT
10
254.2994
20
200.9894
0
VERTEX
8
CUT
10
253.9759
20
200.4098
0
VERTEX
8
CUT
10
251.9281
20
199.8403
0
VERTEX
8
CUT
10
244.6920
20
199.1610
0
VERTEX
8
CUT
10
241.9334
20
198.6566
0
VERTEX
8
CUT
10
238.2144
20
197.4250
0
VERTEX
8
CUT
10
236.2764
20
196.4711
0
VERTEX
8
CUT
10
234.8430
20
195.4491
0
VERTEX
8
CUT
10
234.8452
20
195.0487
0
VERTEX
8
CUT
10
235.2373
20
194.8657
0
VERTEX
8
CUT
10
237.9346
20
196.0368
0
VERTEX
8
CUT
10
241.0648
20
196.9702
0
VERTEX
8
CUT
10
244.3150
20
197.5611
0
VERTEX
8
CUT
10
247.9507
20
197.8903
0
VERTEX
8
CUT
10
251.1591
20
198.4222
0
VERTEX
8
CUT
10
253.6305
20
199.2264
0
VERTEX
8
CUT
10
254.7100
20
199.7774
0
VERTEX
8
CUT
10
258.5479
20
202.5698
0
VERTEX
8
CUT
10
258.9426
20
202.5484
0
VERTEX
8
CUT
10
259.1816
20
202.2810
0
VERTEX
8
CUT
10
259.1237
20
201.2847
0
VERTEX
8
CUT
10
258.6679
20
200.1191
0
VERTEX
8
CUT
10
257.0542
20
197.3353
0
VERTEX
8
CUT
10
255.3020
20
195.2196
0
VERTEX
8
CUT
10
252.3367
20
192.5801
0
VERTEX
8
CUT
10
249.7632
20
191.1533
0
VERTEX
8
CUT
10
240.4915
20
187.2569
0
VERTEX
8
CUT
10
238.4549
20
186.0760
0
VERTEX
8
CUT
10
236.6429
20
184.6187
0
VERTEX
8
CUT
10
236.6188
20
184.2567
0
VERTEX
8
CUT
10
236.9036
20
184.0319
0
VERTEX
8
CUT
10
240.5128
20
183.9771
0
VERTEX
8
CUT
10
242.9947
20
183.3794
0
VERTEX
8
CUT
10
244.5458
20
182.5330
0
VERTEX
8
CUT
10
245.8184
20
181.5660
0
VERTEX
8
CUT
10
246.1815
20
181.1156
0
VERTEX
8
CUT
10
246.2811
20
180.4980
0
VERTEX
8
CUT
10
245.5613
20
179.8778
0
VERTEX
8
CUT
10
241.3708
20
178.6384
0
VERTEX
8
CUT
10
238.8670
20
177.3031
0
VERTEX
8
CUT
10
236.6780
20
175.4689
0
VERTEX
8
CUT
10
234.8601
20
173.1884
0
VERTEX
8
CUT
10
233.9046
20
171.4593
0
VERTEX
8
CUT
10
233.6743
20
170.4058
0
VERTEX
8
CUT
10
233.7629
20
168.9605
0
VERTEX
8
CUT
10
234.9303
20
168.0057
0
VERTEX
8
CUT
10
235.1817
20
167.0924
0
VERTEX
8
CUT
10
234.6743
20
164.6913
0
VERTEX
8
CUT
10
233.9057
20
163.0469
0
VERTEX
8
CUT
10
234.0712
20
162.5455
0
VERTEX
8
CUT
10
234.5843
20
162.6699
0
VERTEX
8
CUT
10
238.1331
20
168.1843
0
VERTEX
8
CUT
10
241.7756
20
174.9062
0
SEQEND
0
POLYLINE
8
CUT
66
1
70
1
10
0.0
20
0.0
30
0.0
0
VERTEX
8
CUT
10
257.1105
20
240.6141
0
VERTEX
8
CUT
10
257.1644
20
241.0117
0
VERTEX
8
CUT
10
256.8891
20
241.4687
0
VERTEX
8
CUT
10
255.4235
20
243.1477
0
VERTEX
8
CUT
10
254.9535
20
242.9743
0
VERTEX
8
CUT
10
254.8901
20
241.8269
0
VERTEX
8
CUT
10
254.5676
20
241.5504
0
VERTEX
8
CUT
10
253.7877
20
241.7718
0
VERTEX
8
CUT
10
253.1162
20
242.4226
0
VERTEX
8
CUT
10
252.6281
20
242.1833
0
VERTEX
8
CUT
10
252.3753
20
239.1691
0
VERTEX
8
CUT
10
251.2818
20
232.8923
0
VERTEX
8
CUT
10
251.4698
20
232.5330
0
VERTEX
8
CUT
10
251.8753
20
232.5356
0
VERTEX
8
CUT
10
253.4010
20
234.3121
0
VERTEX
8
CUT
10
255.1595
20
236.9814
0
SEQEND
0
POLYLINE
8
CUT
66
1
70
1
10
0.0
20
0.0
30
0.0
0
VERTEX
8
CUT
10
251.8136
20
246.4861
0
VERTEX
8
CUT
10
252.0208
20
245.5390
0
VERTEX
8
CUT
10
252.5535
20
244.4735
0
VERTEX
8
CUT
10
253.6486
20
245.0655
0
VERTEX
8
CUT
10
253.7078
20
245.3023
0
VERTEX
8
CUT
10
252.8199
20
246.5157
0
VERTEX
8
CUT
10
251.9912
20
247.0485
0
SEQEND
0
POLYLINE
8
CUT
66
1
70
1
10
0.0
20
0.0
30
0.0
0
VERTEX
8
CUT
10
245.3023
20
232.0132
0
VERTEX
8
CUT
10
243.1417
20
234.7657
0
VERTEX
8
CUT
10
239.6196
20
238.2878
0
VERTEX
8
CUT
10
237.1335
20
240.3300
0
VERTEX
8
CUT
10
233.6707
20
242.6977
0
VERTEX
8
CUT
10
231.5989
20
244.7103
0
VERTEX
8
CUT
10
229.2607
20
246.6341
0
VERTEX
8
CUT
10
226.8633
20
249.1795
0
VERTEX
8
CUT
10
224.4660
20
252.5239
0
VERTEX
8
CUT
10
224.0812
20
252.6423
0
VERTEX
8
CUT
10
224.0516
20
251.9912
0
VERTEX
8
CUT
10
224.9395
20
249.9490
0
VERTEX
8
CUT
10
227.4553
20
246.6341
0
VERTEX
8
CUT
10
231.6581
20
242.6681
0
VERTEX
8
CUT
10
238.7317
20
237.0151
0
VERTEX
8
CUT
10
241.8986
20
234.1442
0
VERTEX
8
CUT
10
244.4735
20
231.4805
0
VERTEX
8
CUT
10
247.4628
20
227.5737
0
VERTEX
8
CUT
10
247.6404
20
227.6625
0
VERTEX
8
CUT
10
247.5812
20
228.1952
0
VERTEX
8
CUT
10
246.9301
20
229.4383
0
SEQEND
0
POLYLINE
8
CUT
66
1
70
1
10
0.0
20
0.0
30
0.0
0
VERTEX
8
CUT
10
232.3077
20
255.8039
0
VERTEX
8
CUT
10
233.8977
20
256.7761
0
VERTEX
8
CUT
10
236.1315
20
257.0227
0
VERTEX
8
CUT
10
238.5797
20
256.5932
0
VERTEX
8
CUT
10
240.0763
20
255.9628
0
VERTEX
8
CUT
10
241.2038
20
255.2221
0
VERTEX
8
CUT
10
243.5195
20
252.9717
0
VERTEX
8
CUT
10
245.7071
20
249.9087
0
VERTEX
8
CUT
10
246.0929
20
249.8118
0
VERTEX
8
CUT
10
246.3686
20
250.1417
0
VERTEX
8
CUT
10
246.1009
20
251.5759
0
VERTEX
8
CUT
10
246.1349
20
252.4986
0
VERTEX
8
CUT
10
245.7511
20
253.1131
0
VERTEX
8
CUT
10
240.2834
20
258.1055
0
VERTEX
8
CUT
10
238.3606
20
259.5309
0
VERTEX
8
CUT
10
233.3196
20
258.9807
0
VERTEX
8
CUT
10
230.6881
20
257.2674
0
VERTEX
8
CUT
10
229.8256
20
256.1741
0
VERTEX
8
CUT
10
229.3854
20
254.4728
0
VERTEX
8
CUT
10
229.3236
20
253.3984
0
VERTEX
8
CUT
10
229.6492
20
251.7457
0
VERTEX
8
CUT
10
229.9541
20
251.4848
0
VERTEX
8
CUT
10
230.3493
20
251.6632
0
VERTEX
8
CUT
10
230.6834
20
253.3379
0
VERTEX
8
CUT
10
231.0786
20
254.2301
0
SEQEND
0
POLYLINE
8
CUT
66
1
70
1
10
0.0
20
0.0
30
0.0
0
VERTEX
8
CUT
10
238.8205
20
209.3715
0
VERTEX
8
CUT
10
239.9748
20
212.9528
0
VERTEX
8
CUT
10
240.5076
20
216.8300
0
VERTEX
8
CUT
10
240.5667
20
218.9610
0
VERTEX
8
CUT
10
240.4188
20
219.7601
0
VERTEX
8
CUT
10
240.0340
20
219.8193
0
VERTEX
8
CUT
10
239.7676
20
219.4937
0
VERTEX
8
CUT
10
239.5013
20
216.0013
0
VERTEX
8
CUT
10
238.6725
20
212.6568
0
VERTEX
8
CUT
10
237.7846
20
210.3482
0
VERTEX
8
CUT
10
236.4824
20
207.8325
0
VERTEX
8
CUT
10
235.1209
20
205.9087
0
VERTEX
8
CUT
10
233.0195
20
203.5705
0
VERTEX
8
CUT
10
230.7405
20
201.2028
0
VERTEX
8
CUT
10
226.8929
20
197.6807
0
VERTEX
8
CUT
10
226.6562
20
197.2960
0
VERTEX
8
CUT
10
226.9225
20
197.0888
0
VERTEX
8
CUT
10
230.1190
20
199.0718
0
VERTEX
8
CUT
10
232.5756
20
201.2324
0
VERTEX
8
CUT
10
236.1272
20
204.9912
0
VERTEX
8
CUT
10
237.6958
20
207.1222
0
SEQEND
0
POLYLINE
8
CUT
66
1
70
1
10
0.0
20
0.0
30
0.0
0
VERTEX
8
CUT
10
231.8883
20
176.2028
0
VERTEX
8
CUT
10
229.6383
20
175.2976
0
VERTEX
8
CUT
10
228.8170
20
174.1537
0
VERTEX
8
CUT
10
227.9679
20
171.9919
0
VERTEX
8
CUT
10
228.1588
20
171.5700
0
VERTEX
8
CUT
10
228.6181
20
171.6289
0
VERTEX
8
CUT
10
232.3045
20
175.5746
0
VERTEX
8
CUT
10
232.3042
20
176.0943
0
SEQEND
0
POLYLINE
8
CUT
66
1
70
1
10
0.0
20
0.0
30
0.0
0
VERTEX
8
CUT
10
218.4144
20
264.5546
0
VERTEX
8
CUT
10
219.4479
20
265.5886
0
VERTEX
8
CUT
10
220.6377
20
266.4228
0
VERTEX
8
CUT
10
222.0080
20
267.0088
0
VERTEX
8
CUT
10
224.5644
20
267.3540
0
VERTEX
8
CUT
10
226.5932
20
266.9520
0
VERTEX
8
CUT
10
228.3632
20
266.0597
0
VERTEX
8
CUT
10
229.0799
20
265.4905
0
VERTEX
8
CUT
10
230.2184
20
264.1175
0
VERTEX
8
CUT
10
230.6623
20
264.3882
0
VERTEX
8
CUT
10
230.5969
20
265.3372
0
VERTEX
8
CUT
10
227.6752
20
267.6141
0
VERTEX
8
CUT
10
224.5858
20
269.3387
0
VERTEX
8
CUT
10
222.7088
20
268.9026
0
VERTEX
8
CUT
10
220.1565
20
267.9360
0
VERTEX
8
CUT
10
218.6553
20
266.9849
0
VERTEX
8
CUT
10
217.6094
20
265.7615
0
VERTEX
8
CUT
10
216.1512
20
263.4834
0
VERTEX
8
CUT
10
215.4679
20
261.5935
0
VERTEX
8
CUT
10
215.6704
20
259.0906
0
VERTEX
8
CUT
10
216.0097
20
258.8294
0
VERTEX
8
CUT
10
216.3839
20
259.0378
0
VERTEX
8
CUT
10
216.9285
20
261.8870
0
VERTEX
8
CUT
10
217.5645
20
263.2807
0
SEQEND
0
POLYLINE
8
CUT
66
1
70
1
10
0.0
20
0.0
30
0.0
0
VERTEX
8
CUT
10
227.4621
20
219.0800
0
VERTEX
8
CUT
10
228.9713
20
218.9827
0
VERTEX
8
CUT
10
229.2315
20
219.1934
0
VERTEX
8
CUT
10
229.2320
20
219.5283
0
VERTEX
8
CUT
10
228.4238
20
219.9646
0
VERTEX
8
CUT
10
227.4657
20
220.1396
0
VERTEX
8
CUT
10
226.4931
20
220.0797
0
VERTEX
8
CUT
10
225.6457
20
219.7596
0
VERTEX
8
CUT
10
223.7507
20
218.2417
0
VERTEX
8
CUT
10
223.1432
20
217.4096
0
VERTEX
8
CUT
10
222.7909
20
216.4317
0
VERTEX
8
CUT
10
222.9259
20
216.0495
0
VERTEX
8
CUT
10
223.3274
20
215.9942
0
VERTEX
8
CUT
10
224.3059
20
217.3504
0
VERTEX
8
CUT
10
225.7791
20
218.5191
0
SEQEND
0
POLYLINE
8
CUT
66
1
70
1
10
0.0
20
0.0
30
0.0
0
VERTEX
8
CUT
10
224.5548
20
230.0894
0
VERTEX
8
CUT
10
227.0409
20
230.0598
0
VERTEX
8
CUT
10
227.4849
20
230.2078
0
VERTEX
8
CUT
10
227.4849
20
230.3558
0
VERTEX
8
CUT
10
227.0409
20
230.8293
0
VERTEX
8
CUT
10
225.8275
20
231.4805
0
VERTEX
8
CUT
10
224.1996
20
231.5693
0
VERTEX
8
CUT
10
223.3709
20
231.3325
0
VERTEX
8
CUT
10
222.6014
20
230.9181
0
VERTEX
8
CUT
10
221.2991
20
229.6455
0
VERTEX
8
CUT
10
220.5888
20
228.0472
0
VERTEX
8
CUT
10
220.4704
20
227.0113
0
VERTEX
8
CUT
10
220.7960
20
226.6858
0
VERTEX
8
CUT
10
221.0623
20
226.8633
0
VERTEX
8
CUT
10
222.4830
20
228.9943
0
VERTEX
8
CUT
10
223.4005
20
229.7047
0
SEQEND
0
POLYLINE
8
CUT
66
1
70
1
10
0.0
20
0.0
30
0.0
0
VERTEX
8
CUT
10
225.7390
20
123.3186
0
VERTEX
8
CUT
10
225.5406
20
123.6981
0
VERTEX
8
CUT
10
224.7924
20
123.5135
0
VERTEX
8
CUT
10
223.5852
20
122.6060
0
VERTEX
8
CUT
10
222.5549
20
117.8797
0
VERTEX
8
CUT
10
222.7434
20
117.4939
0
VERTEX
8
CUT
10
223.1722
20
117.5160
0
VERTEX
8
CUT
10
224.1996
20
119.0384
0
VERTEX
8
CUT
10
225.4237
20
121.9900
0
SEQEND
0
POLYLINE
8
CUT
66
1
70
1
10
0.0
20
0.0
30
0.0
0
VERTEX
8
CUT
10
221.6247
20
240.0932
0
VERTEX
8
CUT
10
221.4471
20
240.5371
0
VERTEX
8
CUT
10
220.3520
20
241.2771
0
VERTEX
8
CUT
10
219.5825
20
241.4251
0
VERTEX
8
CUT
10
218.7538
20
241.3955
0
VERTEX
8
CUT
10
217.0667
20
240.9219
0
VERTEX
8
CUT
10
215.7053
20
240.0044
0
VERTEX
8
CUT
10
215.1133
20
239.0277
0
VERTEX
8
CUT
10
214.8174
20
237.5183
0
VERTEX
8
CUT
10
214.9358
20
237.0743
0
VERTEX
8
CUT
10
215.3501
20
237.1927
0
VERTEX
8
CUT
10
216.2972
20
238.4950
0
VERTEX
8
CUT
10
217.8067
20
239.6492
0
VERTEX
8
CUT
10
219.4345
20
240.1820
0
VERTEX
8
CUT
10
221.4767
20
239.7972
0
SEQEND
0
POLYLINE
8
CUT
66
1
70
1
10
0.0
20
0.0
30
0.0
0
VERTEX
8
CUT
10
221.2526
20
148.2340
0
VERTEX
8
CUT
10
220.8517
20
148.6102
0
VERTEX
8
CUT
10
219.3429
20
147.8385
0
VERTEX
8
CUT
10
218.2254
20
148.1472
0
VERTEX
8
CUT
10
217.7778
20
148.0543
0
VERTEX
8
CUT
10
217.7099
20
147.6335
0
VERTEX
8
CUT
10
219.0515
20
146.4402
0
VERTEX
8
CUT
10
220.6233
20
147.4906
0
SEQEND
0
POLYLINE
8
CUT
66
1
70
1
10
0.0
20
0.0
30
0.0
0
VERTEX
8
CUT
10
221.0318
20
192.8563
0
VERTEX
8
CUT
10
220.8756
20
193.1882
0
VERTEX
8
CUT
10
220.1187
20
193.5673
0
VERTEX
8
CUT
10
218.8324
20
193.8602
0
VERTEX
8
CUT
10
216.2110
20
193.7102
0
VERTEX
8
CUT
10
213.8872
20
193.3128
0
VERTEX
8
CUT
10
213.6391
20
192.8877
0
VERTEX
8
CUT
10
214.0057
20
192.5591
0
VERTEX
8
CUT
10
218.2769
20
192.6814
0
VERTEX
8
CUT
10
220.6620
20
192.4870
0
SEQEND
0
POLYLINE
8
CUT
66
1
70
1
10
0.0
20
0.0
30
0.0
0
VERTEX
8
CUT
10
215.3501
20
89.9773
0
VERTEX
8
CUT
10
213.8999
20
90.2141
0
VERTEX
8
CUT
10
212.8048
20
89.8885
0
VERTEX
8
CUT
10
210.4666
20
88.2607
0
VERTEX
8
CUT
10
206.5006
20
86.2777
0
VERTEX
8
CUT
10
206.3230
20
85.8338
0
VERTEX
8
CUT
10
206.5598
20
85.5674
0
VERTEX
8
CUT
10
207.0926
20
85.5082
0
VERTEX
8
CUT
10
209.0756
20
86.3369
0
VERTEX
8
CUT
10
212.5384
20
88.7343
0
VERTEX
8
CUT
10
215.2021
20
89.4446
0
VERTEX
8
CUT
10
215.4093
20
89.6814
0
SEQEND
0
POLYLINE
8
CUT
66
1
70
1
10
0.0
20
0.0
30
0.0
0
VERTEX
8
CUT
10
213.2191
20
247.6404
0
VERTEX
8
CUT
10
212.2720
20
248.3212
0
VERTEX
8
CUT
10
211.3249
20
248.5579
0
VERTEX
8
CUT
10
210.2890
20
248.4691
0
VERTEX
8
CUT
10
209.3419
20
248.0844
0
VERTEX
8
CUT
10
207.9213
20
246.7229
0
VERTEX
8
CUT
10
207.2997
20
245.6278
0
VERTEX
8
CUT
10
207.1518
20
245.1543
0
VERTEX
8
CUT
10
207.2701
20
244.5031
0
VERTEX
8
CUT
10
207.8029
20
244.5031
0
VERTEX
8
CUT
10
208.6908
20
245.8054
0
VERTEX
8
CUT
10
209.9931
20
246.8413
0
VERTEX
8
CUT
10
213.0712
20
247.1965
0
VERTEX
8
CUT
10
213.3079
20
247.4628
0
SEQEND
0
POLYLINE
8
CUT
66
1
70
1
10
0.0
20
0.0
30
0.0
0
VERTEX
8
CUT
10
211.6710
20
192.5047
0
VERTEX
8
CUT
10
210.9254
20
192.3030
0
VERTEX
8
CUT
10
209.2683
20
191.2272
0
VERTEX
8
CUT
10
209.1936
20
190.7451
0
VERTEX
8
CUT
10
209.6836
20
190.5813
0
VERTEX
8
CUT
10
211.8913
20
191.8041
0
VERTEX
8
CUT
10
212.0226
20
192.2504
0
SEQEND
0
POLYLINE
8
CUT
66
1
70
1
10
0.0
20
0.0
30
0.0
0
VERTEX
8
CUT
10
200.8085
20
89.0071
0
VERTEX
8
CUT
10
201.4432
20
87.6024
0
VERTEX
8
CUT
10
201.7418
20
87.5505
0
VERTEX
8
CUT
10
202.2188
20
87.7883
0
VERTEX
8
CUT
10
206.5121
20
87.9045
0
VERTEX
8
CUT
10
207.5342
20
88.3336
0
VERTEX
8
CUT
10
208.5383
20
89.1161
0
VERTEX
8
CUT
10
209.6222
20
90.2294
0
VERTEX
8
CUT
10
210.3547
20
91.3526
0
VERTEX
8
CUT
10
210.9639
20
93.3258
0
VERTEX
8
CUT
10
211.0327
20
95.9521
0
VERTEX
8
CUT
10
210.7459
20
96.2326
0
VERTEX
8
CUT
10
210.3635
20
96.1110
0
VERTEX
8
CUT
10
208.7194
20
93.1194
0
VERTEX
8
CUT
10
206.8727
20
91.3350
0
VERTEX
8
CUT
10
205.5923
20
90.6204
0
VERTEX
8
CUT
10
204.8609
20
90.4192
0
VERTEX
8
CUT
10
203.9935
20
90.3655
0
VERTEX
8
CUT
10
203.2176
20
90.7151
0
VERTEX
8
CUT
10
203.0983
20
91.0799
0
VERTEX
8
CUT
10
203.5132
20
91.9225
0
VERTEX
8
CUT
10
203.7637
20
93.9705
0
VERTEX
8
CUT
10
205.0671
20
95.8022
0
VERTEX
8
CUT
10
205.4974
20
96.9883
0
VERTEX
8
CUT
10
205.6097
20
100.1164
0
VERTEX
8
CUT
10
205.3373
20
101.3349
0
VERTEX
8
CUT
10
204.9091
20
101.5300
0
VERTEX
8
CUT
10
203.8607
20
100.0601
0
VERTEX
8
CUT
10
202.9086
20
97.5367
0
VERTEX
8
CUT
10
202.2426
20
94.8159
0
VERTEX
8
CUT
10
201.6489
20
91.1120
0
VERTEX
8
CUT
10
201.0127
20
91.1550
0
VERTEX
8
CUT
10
198.7976
20
92.9346
0
VERTEX
8
CUT
10
198.4672
20
92.9518
0
VERTEX
8
CUT
10
198.2428
20
92.7087
0
VERTEX
8
CUT
10
198.4731
20
91.8525
0
VERTEX
8
CUT
10
199.6222
20
90.1725
0
SEQEND
0
POLYLINE
8
CUT
66
1
70
1
10
0.0
20
0.0
30
0.0
0
VERTEX
8
CUT
10
208.4244
20
278.6285
0
VERTEX
8
CUT
10
208.5132
20
277.9181
0
VERTEX
8
CUT
10
210.4370
20
275.6984
0
VERTEX
8
CUT
10
210.7922
20
275.5504
0
VERTEX
8
CUT
10
210.8810
20
275.9351
0
VERTEX
8
CUT
10
210.3778
20
277.6518
0
VERTEX
8
CUT
10
209.0164
20
278.5397
0
SEQEND
0
POLYLINE
8
CUT
66
1
70
1
10
0.0
20
0.0
30
0.0
0
VERTEX
8
CUT
10
205.7311
20
141.6241
0
VERTEX
8
CUT
10
205.7607
20
140.0850
0
VERTEX
8
CUT
10
206.3526
20
140.5882
0
VERTEX
8
CUT
10
207.1814
20
142.2160
0
VERTEX
8
CUT
10
207.3293
20
142.8671
0
VERTEX
8
CUT
10
207.1814
20
143.1039
0
VERTEX
8
CUT
10
206.2047
20
142.4232
0
SEQEND
0
POLYLINE
8
CUT
66
1
70
1
10
0.0
20
0.0
30
0.0
0
VERTEX
8
CUT
10
203.2986
20
265.4263
0
VERTEX
8
CUT
10
204.2043
20
266.0057
0
VERTEX
8
CUT
10
204.9260
20
266.7910
0
VERTEX
8
CUT
10
205.6454
20
268.2049
0
VERTEX
8
CUT
10
205.7894
20
269.1914
0
VERTEX
8
CUT
10
205.5099
20
269.3745
0
VERTEX
8
CUT
10
205.1914
20
269.2736
0
VERTEX
8
CUT
10
204.1283
20
267.4403
0
VERTEX
8
CUT
10
203.1934
20
266.6929
0
VERTEX
8
CUT
10
202.0167
20
266.2890
0
VERTEX
8
CUT
10
200.2471
20
266.0713
0
VERTEX
8
CUT
10
199.9823
20
265.8743
0
VERTEX
8
CUT
10
199.9639
20
265.5447
0
VERTEX
8
CUT
10
200.6673
20
265.1529
0
VERTEX
8
CUT
10
202.2152
20
265.1009
0
SEQEND
0
POLYLINE
8
CUT
66
1
70
1
10
0.0
20
0.0
30
0.0
0
VERTEX
8
CUT
10
203.8665
20
252.9975
0
VERTEX
8
CUT
10
202.8010
20
252.9383
0
VERTEX
8
CUT
10
201.8243
20
252.6423
0
VERTEX
8
CUT
10
201.1436
20
251.9024
0
VERTEX
8
CUT
10
200.9364
20
251.3104
0
VERTEX
8
CUT
10
200.9364
20
250.6889
0
VERTEX
8
CUT
10
203.3338
20
251.9024
0
VERTEX
8
CUT
10
205.0800
20
252.1392
0
VERTEX
8
CUT
10
205.1984
20
252.3167
0
VERTEX
8
CUT
10
204.7544
20
252.7607
0
SEQEND
0
POLYLINE
8
CUT
66
1
70
1
10
0.0
20
0.0
30
0.0
0
VERTEX
8
CUT
10
202.5701
20
119.2552
0
VERTEX
8
CUT
10
203.0435
20
120.3108
0
VERTEX
8
CUT
10
202.8533
20
120.5834
0
VERTEX
8
CUT
10
202.5515
20
120.6224
0
VERTEX
8
CUT
10
199.7479
20
119.7274
0
VERTEX
8
CUT
10
199.5995
20
119.3286
0
VERTEX
8
CUT
10
199.9258
20
118.9637
0
VERTEX
8
CUT
10
200.8269
20
118.5822
0
VERTEX
8
CUT
10
201.5067
20
118.6192
0
SEQEND
0
POLYLINE
8
CUT
66
1
70
1
10
0.0
20
0.0
30
0.0
0
VERTEX
8
CUT
10
195.9345
20
57.4799
0
VERTEX
8
CUT
10
196.3489
20
56.7399
0
VERTEX
8
CUT
10
197.4735
20
55.8520
0
VERTEX
8
CUT
10
198.8942
20
55.2009
0
VERTEX
8
CUT
10
200.1373
20
55.0529
0
VERTEX
8
CUT
10
200.1077
20
55.3193
0
VERTEX
8
CUT
10
199.6341
20
55.7632
0
VERTEX
8
CUT
10
198.5686
20
56.1480
0
VERTEX
8
CUT
10
196.6152
20
57.3911
0
SEQEND
0
POLYLINE
8
CUT
66
1
70
1
10
0.0
20
0.0
30
0.0
0
VERTEX
8
CUT
10
199.3678
20
30.5762
0
VERTEX
8
CUT
10
196.2897
20
30.9610
0
VERTEX
8
CUT
10
197.3256
20
29.8659
0
VERTEX
8
CUT
10
198.5686
20
29.2739
0
VERTEX
8
CUT
10
199.5453
20
29.4219
0
VERTEX
8
CUT
10
199.9301
20
29.7771
0
VERTEX
8
CUT
10
200.0189
20
30.2210
0
SEQEND
0
POLYLINE
8
CUT
66
1
70
1
10
0.0
20
0.0
30
0.0
0
VERTEX
8
CUT
10
199.0126
20
271.8507
0
VERTEX
8
CUT
10
198.3023
20
272.5907
0
VERTEX
8
CUT
10
197.0296
20
273.1530
0
VERTEX
8
CUT
10
195.5201
20
273.1826
0
VERTEX
8
CUT
10
193.9811
20
272.6795
0
VERTEX
8
CUT
10
192.6788
20
271.7620
0
VERTEX
8
CUT
10
191.7317
20
270.4597
0
VERTEX
8
CUT
10
191.1990
20
269.1278
0
VERTEX
8
CUT
10
191.1694
20
268.5951
0
VERTEX
8
CUT
10
191.2878
20
268.2399
0
VERTEX
8
CUT
10
191.8205
20
268.1807
0
VERTEX
8
CUT
10
192.7380
20
269.7494
0
VERTEX
8
CUT
10
194.7210
20
271.4364
0
VERTEX
8
CUT
10
196.0233
20
271.8212
0
VERTEX
8
CUT
10
198.9534
20
271.7028
0
SEQEND
0
POLYLINE
8
CUT
66
1
70
1
10
0.0
20
0.0
30
0.0
0
VERTEX
8
CUT
10
198.8054
20
256.2531
0
VERTEX
8
CUT
10
198.0951
20
256.9339
0
VERTEX
8
CUT
10
197.1480
20
257.0819
0
VERTEX
8
CUT
10
195.7865
20
255.7500
0
VERTEX
8
CUT
10
195.5793
20
255.2172
0
VERTEX
8
CUT
10
195.8161
20
254.8029
0
VERTEX
8
CUT
10
196.3785
20
254.8917
0
VERTEX
8
CUT
10
197.2664
20
255.5428
0
VERTEX
8
CUT
10
198.5094
20
255.7204
0
VERTEX
8
CUT
10
198.8350
20
255.9868
0
SEQEND
0
POLYLINE
8
CUT
66
1
70
1
10
0.0
20
0.0
30
0.0
0
VERTEX
8
CUT
10
185.8123
20
283.5416
0
VERTEX
8
CUT
10
186.1083
20
283.8375
0
VERTEX
8
CUT
10
186.0195
20
284.1335
0
VERTEX
8
CUT
10
185.3092
20
284.3703
0
VERTEX
8
CUT
10
183.4446
20
284.1927
0
VERTEX
8
CUT
10
179.3898
20
282.7128
0
VERTEX
8
CUT
10
177.5844
20
281.7953
0
VERTEX
8
CUT
10
175.5126
20
280.2859
0
VERTEX
8
CUT
10
173.6776
20
278.4213
0
VERTEX
8
CUT
10
172.5529
20
277.0598
0
VERTEX
8
CUT
10
172.2273
20
276.4679
0
VERTEX
8
CUT
10
172.3457
20
276.1127
0
VERTEX
8
CUT
10
174.3287
20
278.3621
0
VERTEX
8
CUT
10
177.2884
20
280.5819
0
VERTEX
8
CUT
10
180.5441
20
282.2097
0
VERTEX
8
CUT
10
184.2141
20
283.3048
0
SEQEND
0
POLYLINE
8
CUT
66
1
70
1
10
0.0
20
0.0
30
0.0
0
VERTEX
8
CUT
10
178.9993
20
56.8443
0
VERTEX
8
CUT
10
178.3019
20
56.5825
0
VERTEX
8
CUT
10
176.6560
20
55.4523
0
VERTEX
8
CUT
10
176.8202
20
53.0173
0
VERTEX
8
CUT
10
177.3419
20
50.9582
0
VERTEX
8
CUT
10
177.7278
20
50.7474
0
VERTEX
8
CUT
10
178.0642
20
51.0306
0
VERTEX
8
CUT
10
178.3527
20
54.0738
0
VERTEX
8
CUT
10
179.2926
20
56.4021
0
SEQEND
0
POLYLINE
8
CUT
66
1
70
1
10
0.0
20
0.0
30
0.0
0
VERTEX
8
CUT
10
177.6732
20
106.5812
0
VERTEX
8
CUT
10
176.6669
20
106.1077
0
VERTEX
8
CUT
10
174.3583
20
104.5094
0
VERTEX
8
CUT
10
174.0327
20
104.2135
0
VERTEX
8
CUT
10
173.6776
20
103.3552
0
VERTEX
8
CUT
10
173.7960
20
102.9704
0
VERTEX
8
CUT
10
174.2399
20
103.1480
0
VERTEX
8
CUT
10
176.3413
20
105.0422
0
VERTEX
8
CUT
10
177.7916
20
105.8709
0
VERTEX
8
CUT
10
178.1171
20
106.2557
0
VERTEX
8
CUT
10
178.0283
20
106.4924
0
SEQEND
0
POLYLINE
8
CUT
66
1
70
1
10
0.0
20
0.0
30
0.0
0
VERTEX
8
CUT
10
149.5393
20
90.0356
0
VERTEX
8
CUT
10
149.6191
20
90.1196
0
VERTEX
8
CUT
10
149.7065
20
90.1955
0
VERTEX
8
CUT
10
149.8009
20
90.2626
0
VERTEX
8
CUT
10
149.9013
20
90.3203
0
VERTEX
8
CUT
10
150.0068
20
90.3681
0
VERTEX
8
CUT
10
150.1164
20
90.4054
0
VERTEX
8
CUT
10
150.2292
20
90.4321
0
VERTEX
8
CUT
10
150.3439
20
90.4477
0
VERTEX
8
CUT
10
150.4596
20
90.4522
0
VERTEX
8
CUT
10
150.5752
20
90.4455
0
VERTEX
8
CUT
10
150.6897
20
90.4277
0
VERTEX
8
CUT
10
150.8019
20
90.3990
0
VERTEX
8
CUT
10
152.2123
20
89.9641
0
VERTEX
8
CUT
10
154.7598
20
89.6121
0
VERTEX
8
CUT
10
156.4199
20
89.6123
0
VERTEX
8
CUT
10
158.6403
20
89.9508
0
VERTEX
8
CUT
10
161.3225
20
90.9998
0
VERTEX
8
CUT
10
163.5653
20
92.6695
0
VERTEX
8
CUT
10
164.5980
20
93.7756
0
VERTEX
8
CUT
10
165.1629
20
94.6065
0
VERTEX
8
CUT
10
165.2351
20
94.7020
0
VERTEX
8
CUT
10
165.3165
20
94.7899
0
VERTEX
8
CUT
10
165.4062
20
94.8693
0
VERTEX
8
CUT
10
165.5034
20
94.9393
0
VERTEX
8
CUT
10
165.6071
20
94.9992
0
VERTEX
8
CUT
10
165.7163
20
95.0486
0
VERTEX
8
CUT
10
165.8298
20
95.0868
0
VERTEX
8
CUT
10
165.9466
20
95.1135
0
VERTEX
8
CUT
10
166.0654
20
95.1284
0
VERTEX
8
CUT
10
166.1852
20
95.1314
0
VERTEX
8
CUT
10
166.3046
20
95.1224
0
VERTEX
8
CUT
10
166.4226
20
95.1016
0
VERTEX
8
CUT
10
166.5379
20
95.0691
0
VERTEX
8
CUT
10
166.6494
20
95.0253
0
VERTEX
8
CUT
10
166.7559
20
94.9706
0
VERTEX
8
CUT
10
166.8293
20
94.9231
0
VERTEX
8
CUT
10
167.7784
20
96.3190
0
VERTEX
8
CUT
10
170.6885
20
101.6913
0
VERTEX
8
CUT
10
173.1990
20
105.8357
0
VERTEX
8
CUT
10
172.8401
20
106.1380
0
VERTEX
8
CUT
10
171.8469
20
105.8484
0
VERTEX
8
CUT
10
169.6414
20
104.9645
0
VERTEX
8
CUT
10
168.1534
20
104.0082
0
VERTEX
8
CUT
10
167.4405
20
104.0691
0
VERTEX
8
CUT
10
166.8924
20
104.4333
0
VERTEX
8
CUT
10
166.5341
20
104.3294
0
VERTEX
8
CUT
10
166.4213
20
104.0103
0
VERTEX
8
CUT
10
166.7539
20
101.9738
0
VERTEX
8
CUT
10
166.5761
20
99.4002
0
VERTEX
8
CUT
10
165.5574
20
97.0421
0
VERTEX
8
CUT
10
163.7124
20
94.7807
0
VERTEX
8
CUT
10
162.1180
20
93.4836
0
VERTEX
8
CUT
10
160.3427
20
92.4737
0
VERTEX
8
CUT
10
158.2965
20
91.7617
0
VERTEX
8
CUT
10
157.4332
20
91.8273
0
VERTEX
8
CUT
10
157.0120
20
92.4138
0
VERTEX
8
CUT
10
157.4250
20
93.4280
0
VERTEX
8
CUT
10
157.3548
20
95.5368
0
VERTEX
8
CUT
10
158.5808
20
97.2236
0
VERTEX
8
CUT
10
158.9111
20
98.0710
0
VERTEX
8
CUT
10
158.9364
20
100.1374
0
VERTEX
8
CUT
10
158.7053
20
102.1696
0
VERTEX
8
CUT
10
158.2239
20
103.6313
0
VERTEX
8
CUT
10
157.9480
20
103.9135
0
VERTEX
8
CUT
10
157.5660
20
103.8274
0
VERTEX
8
CUT
10
156.9333
20
102.9015
0
VERTEX
8
CUT
10
155.6159
20
99.4694
0
VERTEX
8
CUT
10
155.2083
20
97.4249
0
VERTEX
8
CUT
10
155.0641
20
95.4948
0
VERTEX
8
CUT
10
155.4173
20
91.7327
0
VERTEX
8
CUT
10
154.8262
20
91.2571
0
VERTEX
8
CUT
10
152.8946
20
91.4576
0
VERTEX
8
CUT
10
150.3000
20
92.2420
0
VERTEX
8
CUT
10
147.8150
20
93.3659
0
VERTEX
8
CUT
10
146.2978
20
94.4785
0
VERTEX
8
CUT
10
145.4820
20
95.6160
0
VERTEX
8
CUT
10
144.8824
20
97.5355
0
VERTEX
8
CUT
10
144.8799
20
98.9753
0
VERTEX
8
CUT
10
145.5652
20
101.1572
0
VERTEX
8
CUT
10
145.3306
20
101.5626
0
VERTEX
8
CUT
10
144.8533
20
101.4180
0
VERTEX
8
CUT
10
142.8642
20
97.8828
0
VERTEX
8
CUT
10
139.4901
20
97.8357
0
VERTEX
8
CUT
10
139.1863
20
97.5670
0
VERTEX
8
CUT
10
139.2861
20
97.1739
0
VERTEX
8
CUT
10
144.7046
20
92.5470
0
VERTEX
8
CUT
10
147.3184
20
90.7245
0
VERTEX
8
CUT
10
149.3244
20
89.6694
0
VERTEX
8
CUT
10
149.3534
20
89.7434
0
VERTEX
8
CUT
10
149.4059
20
89.8466
0
VERTEX
8
CUT
10
149.4680
20
89.9444
0
SEQEND
0
POLYLINE
8
CUT
66
1
70
1
10
0.0
20
0.0
30
0.0
0
VERTEX
8
CUT
10
159.8262
20
77.6058
0
VERTEX
8
CUT
10
159.7966
20
77.2506
0
VERTEX
8
CUT
10
159.9742
20
77.1914
0
VERTEX
8
CUT
10
161.1877
20
78.4345
0
VERTEX
8
CUT
10
161.9572
20
79.7664
0
VERTEX
8
CUT
10
161.2469
20
79.5592
0
VERTEX
8
CUT
10
160.7141
20
78.9969
0
SEQEND
0
POLYLINE
8
CUT
66
1
70
1
10
0.0
20
0.0
30
0.0
0
VERTEX
8
CUT
10
157.9320
20
61.3275
0
VERTEX
8
CUT
10
157.5768
20
61.6530
0
VERTEX
8
CUT
10
157.0737
20
61.5938
0
VERTEX
8
CUT
10
151.4503
20
59.4924
0
VERTEX
8
CUT
10
148.3722
20
57.9534
0
VERTEX
8
CUT
10
146.0044
20
56.2072
0
VERTEX
8
CUT
10
144.4358
20
54.7273
0
VERTEX
8
CUT
10
143.3111
20
53.3363
0
VERTEX
8
CUT
10
142.9263
20
52.1820
0
VERTEX
8
CUT
10
143.3703
20
52.3004
0
VERTEX
8
CUT
10
146.6555
20
55.3785
0
VERTEX
8
CUT
10
148.2242
20
56.5328
0
VERTEX
8
CUT
10
149.7336
20
57.3615
0
VERTEX
8
CUT
10
156.9553
20
60.3508
0
VERTEX
8
CUT
10
157.7544
20
60.8835
0
SEQEND
0
POLYLINE
8
CUT
66
1
70
1
10
0.0
20
0.0
30
0.0
0
VERTEX
8
CUT
10
151.9534
20
77.1322
0
VERTEX
8
CUT
10
151.0951
20
75.2380
0
VERTEX
8
CUT
10
151.1839
20
75.1197
0
VERTEX
8
CUT
10
152.9301
20
77.2506
0
VERTEX
8
CUT
10
153.2261
20
77.8722
0
VERTEX
8
CUT
10
153.1669
20
78.1977
0
VERTEX
8
CUT
10
152.5749
20
77.9906
0
SEQEND
0
POLYLINE
8
CUT
66
1
70
1
10
0.0
20
0.0
30
0.0
0
VERTEX
8
CUT
10
149.0233
20
158.1984
0
VERTEX
8
CUT
10
147.1883
20
158.3759
0
VERTEX
8
CUT
10
145.5605
20
158.7903
0
VERTEX
8
CUT
10
145.5013
20
158.4943
0
VERTEX
8
CUT
10
145.8268
20
157.9616
0
VERTEX
8
CUT
10
147.1587
20
156.9553
0
VERTEX
8
CUT
10
147.6914
20
156.8369
0
VERTEX
8
CUT
10
148.2834
20
156.9849
0
VERTEX
8
CUT
10
149.2897
20
157.5472
0
VERTEX
8
CUT
10
149.4081
20
157.9320
0
SEQEND
0
POLYLINE
8
CUT
66
1
70
1
10
0.0
20
0.0
30
0.0
0
VERTEX
8
CUT
10
145.2349
20
71.3904
0
VERTEX
8
CUT
10
144.7909
20
71.5088
0
VERTEX
8
CUT
10
140.3810
20
70.3841
0
VERTEX
8
CUT
10
137.5101
20
70.0290
0
VERTEX
8
CUT
10
133.0409
20
69.9994
0
VERTEX
8
CUT
10
129.6965
20
70.5617
0
VERTEX
8
CUT
10
130.1700
20
70.1178
0
VERTEX
8
CUT
10
131.5907
20
69.5554
0
VERTEX
8
CUT
10
133.7513
20
69.0819
0
VERTEX
8
CUT
10
136.1190
20
68.9339
0
VERTEX
8
CUT
10
139.9962
20
69.3186
0
VERTEX
8
CUT
10
143.5479
20
70.2657
0
VERTEX
8
CUT
10
144.7021
20
70.7985
0
SEQEND
0
POLYLINE
8
CUT
66
1
70
1
10
0.0
20
0.0
30
0.0
0
VERTEX
8
CUT
10
144.1102
20
231.4805
0
VERTEX
8
CUT
10
144.3174
20
230.5926
0
VERTEX
8
CUT
10
144.5246
20
230.5038
0
VERTEX
8
CUT
10
144.8205
20
230.7110
0
VERTEX
8
CUT
10
144.9389
20
233.3747
0
VERTEX
8
CUT
10
144.8205
20
234.1442
0
VERTEX
8
CUT
10
144.5246
20
234.3514
0
VERTEX
8
CUT
10
144.1694
20
233.9666
0
SEQEND
0
POLYLINE
8
CUT
66
1
70
1
10
0.0
20
0.0
30
0.0
0
VERTEX
8
CUT
10
142.5416
20
219.6121
0
VERTEX
8
CUT
10
143.6071
20
222.0094
0
VERTEX
8
CUT
10
144.3766
20
224.5844
0
VERTEX
8
CUT
10
144.9093
20
227.8104
0
VERTEX
8
CUT
10
144.8205
20
228.9647
0
VERTEX
8
CUT
10
144.4950
20
228.9943
0
VERTEX
8
CUT
10
144.2878
20
228.7576
0
VERTEX
8
CUT
10
142.7783
20
222.8678
0
VERTEX
8
CUT
10
141.0025
20
219.3161
0
VERTEX
8
CUT
10
139.2859
20
217.0371
0
VERTEX
8
CUT
10
136.9477
20
214.4326
0
VERTEX
8
CUT
10
132.8042
20
210.8218
0
VERTEX
8
CUT
10
129.6077
20
208.6612
0
VERTEX
8
CUT
10
129.3117
20
208.1285
0
VERTEX
8
CUT
10
129.6373
20
208.0101
0
VERTEX
8
CUT
10
134.9943
20
211.2361
0
VERTEX
8
CUT
10
137.3917
20
213.1599
0
VERTEX
8
CUT
10
139.4339
20
215.1725
0
VERTEX
8
CUT
10
141.1505
20
217.3331
0
SEQEND
0
POLYLINE
8
CUT
66
1
70
1
10
0.0
20
0.0
30
0.0
0
VERTEX
8
CUT
10
142.1571
20
150.7063
0
VERTEX
8
CUT
10
143.0732
20
152.4249
0
VERTEX
8
CUT
10
143.0506
20
152.7928
0
VERTEX
8
CUT
10
142.5123
20
152.9176
0
VERTEX
8
CUT
10
141.0822
20
151.5888
0
VERTEX
8
CUT
10
139.9192
20
150.8760
0
VERTEX
8
CUT
10
139.7717
20
150.5363
0
VERTEX
8
CUT
10
139.9421
20
150.2467
0
VERTEX
8
CUT
10
140.9463
20
149.7761
0
VERTEX
8
CUT
10
141.4655
20
149.8288
0
SEQEND
0
POLYLINE
8
CUT
66
1
70
1
10
0.0
20
0.0
30
0.0
0
VERTEX
8
CUT
10
141.4321
20
81.1107
0
VERTEX
8
CUT
10
141.3144
20
81.4614
0
VERTEX
8
CUT
10
140.9356
20
81.6050
0
VERTEX
8
CUT
10
138.3132
20
81.6859
0
VERTEX
8
CUT
10
138.0112
20
81.4892
0
VERTEX
8
CUT
10
137.9998
20
81.1291
0
VERTEX
8
CUT
10
139.1615
20
80.0786
0
VERTEX
8
CUT
10
141.2036
20
80.8198
0
SEQEND
0
POLYLINE
8
CUT
66
1
70
1
10
0.0
20
0.0
30
0.0
0
VERTEX
8
CUT
10
141.0288
20
143.1269
0
VERTEX
8
CUT
10
141.1261
20
144.0821
0
VERTEX
8
CUT
10
140.8454
20
144.6067
0
VERTEX
8
CUT
10
138.9441
20
144.3425
0
VERTEX
8
CUT
10
138.6085
20
144.0632
0
VERTEX
8
CUT
10
138.7749
20
143.6256
0
VERTEX
8
CUT
10
140.1685
20
143.0139
0
VERTEX
8
CUT
10
140.7332
20
142.9438
0
SEQEND
0
POLYLINE
8
CUT
66
1
70
1
10
0.0
20
0.0
30
0.0
0
VERTEX
8
CUT
10
135.3791
20
61.9786
0
VERTEX
8
CUT
10
134.7872
20
61.6234
0
VERTEX
8
CUT
10
134.3136
20
60.8835
0
VERTEX
8
CUT
10
134.4912
20
60.7651
0
VERTEX
8
CUT
10
136.6814
20
61.2683
0
VERTEX
8
CUT
10
136.9773
20
61.5642
0
VERTEX
8
CUT
10
136.9181
20
61.8602
0
VERTEX
8
CUT
10
136.1190
20
62.0970
0
SEQEND
0
POLYLINE
8
CUT
66
1
70
1
10
0.0
20
0.0
30
0.0
0
VERTEX
8
CUT
10
130.6140
20
100.8986
0
VERTEX
8
CUT
10
128.4534
20
101.3426
0
VERTEX
8
CUT
10
124.2210
20
101.4314
0
VERTEX
8
CUT
10
121.5869
20
101.0762
0
VERTEX
8
CUT
10
119.5743
20
100.3363
0
VERTEX
8
CUT
10
118.8640
20
99.9219
0
VERTEX
8
CUT
10
118.6568
20
99.5964
0
VERTEX
8
CUT
10
118.9232
20
99.4188
0
VERTEX
8
CUT
10
122.0901
20
100.2179
0
VERTEX
8
CUT
10
124.2210
20
100.5435
0
VERTEX
8
CUT
10
127.9503
20
100.4547
0
VERTEX
8
CUT
10
130.9691
20
99.8035
0
VERTEX
8
CUT
10
136.3262
20
97.3470
0
VERTEX
8
CUT
10
136.6814
20
97.5542
0
VERTEX
8
CUT
10
135.9414
20
98.5309
0
VERTEX
8
CUT
10
134.5208
20
99.3300
0
SEQEND
0
POLYLINE
8
CUT
66
1
70
1
10
0.0
20
0.0
30
0.0
0
VERTEX
8
CUT
10
132.4786
20
89.1782
0
VERTEX
8
CUT
10
131.5019
20
89.1782
0
VERTEX
8
CUT
10
130.3476
20
88.4679
0
VERTEX
8
CUT
10
129.8741
20
87.7280
0
VERTEX
8
CUT
10
135.1423
20
88.2311
0
VERTEX
8
CUT
10
136.0894
20
88.6455
0
VERTEX
8
CUT
10
135.3791
20
89.3262
0
VERTEX
8
CUT
10
134.5208
20
89.5630
0
SEQEND
0
POLYLINE
8
CUT
66
1
70
1
10
0.0
20
0.0
30
0.0
0
VERTEX
8
CUT
10
130.5924
20
261.9672
0
VERTEX
8
CUT
10
133.7227
20
261.6019
0
VERTEX
8
CUT
10
134.0142
20
261.7516
0
VERTEX
8
CUT
10
134.0882
20
262.0708
0
VERTEX
8
CUT
10
133.0089
20
263.0663
0
VERTEX
8
CUT
10
132.1114
20
263.6136
0
VERTEX
8
CUT
10
130.8339
20
263.2356
0
VERTEX
8
CUT
10
128.2701
20
263.0042
0
VERTEX
8
CUT
10
125.5368
20
262.3304
0
VERTEX
8
CUT
10
123.9708
20
261.7390
0
VERTEX
8
CUT
10
123.0914
20
261.1895
0
VERTEX
8
CUT
10
121.8362
20
259.9812
0
VERTEX
8
CUT
10
121.8250
20
259.5176
0
VERTEX
8
CUT
10
122.2653
20
259.3720
0
VERTEX
8
CUT
10
124.7096
20
260.8163
0
VERTEX
8
CUT
10
127.6054
20
261.7009
0
SEQEND
0
POLYLINE
8
CUT
66
1
70
1
10
0.0
20
0.0
30
0.0
0
VERTEX
8
CUT
10
132.6858
20
192.9748
0
VERTEX
8
CUT
10
129.4597
20
191.7613
0
VERTEX
8
CUT
10
128.0982
20
190.4591
0
VERTEX
8
CUT
10
127.2991
20
189.0384
0
VERTEX
8
CUT
10
130.0812
20
190.9622
0
VERTEX
8
CUT
10
133.5145
20
192.4421
0
VERTEX
8
CUT
10
133.9880
20
192.7676
0
VERTEX
8
CUT
10
133.9584
20
193.0044
0
VERTEX
8
CUT
10
133.5441
20
193.1228
0
SEQEND
0
POLYLINE
8
CUT
66
1
70
1
10
0.0
20
0.0
30
0.0
0
VERTEX
8
CUT
10
133.0409
20
241.8690
0
VERTEX
8
CUT
10
133.1889
20
242.9937
0
VERTEX
8
CUT
10
132.5970
20
242.8753
0
VERTEX
8
CUT
10
129.4301
20
239.9748
0
VERTEX
8
CUT
10
127.1807
20
239.2053
0
VERTEX
8
CUT
10
125.1089
20
239.0869
0
VERTEX
8
CUT
10
122.7708
20
239.2349
0
VERTEX
8
CUT
10
120.7286
20
240.0340
0
VERTEX
8
CUT
10
118.3016
20
241.4547
0
VERTEX
8
CUT
10
117.8577
20
241.6026
0
VERTEX
8
CUT
10
117.7393
20
241.4843
0
VERTEX
8
CUT
10
117.8577
20
241.0699
0
VERTEX
8
CUT
10
118.6568
20
240.2708
0
VERTEX
8
CUT
10
120.6990
20
238.8797
0
VERTEX
8
CUT
10
122.1196
20
238.1694
0
VERTEX
8
CUT
10
124.3690
20
237.6958
0
VERTEX
8
CUT
10
127.7727
20
237.7550
0
VERTEX
8
CUT
10
129.9333
20
238.5837
0
VERTEX
8
CUT
10
131.3835
20
239.6492
0
VERTEX
8
CUT
10
132.3602
20
240.7739
0
SEQEND
0
POLYLINE
8
CUT
66
1
70
1
10
0.0
20
0.0
30
0.0
0
VERTEX
8
CUT
10
127.9207
20
117.1474
0
VERTEX
8
CUT
10
128.8678
20
118.3904
0
VERTEX
8
CUT
10
129.1637
20
119.3671
0
VERTEX
8
CUT
10
128.5126
20
119.1008
0
VERTEX
8
CUT
10
126.2040
20
117.1178
0
VERTEX
8
CUT
10
124.0730
20
116.2003
0
VERTEX
8
CUT
10
121.4389
20
116.1115
0
VERTEX
8
CUT
10
119.3967
20
116.4666
0
VERTEX
8
CUT
10
117.6801
20
117.0882
0
VERTEX
8
CUT
10
116.9698
20
117.1178
0
VERTEX
8
CUT
10
117.1770
20
116.6738
0
VERTEX
8
CUT
10
117.8281
20
116.1115
0
VERTEX
8
CUT
10
119.7223
20
115.2827
0
VERTEX
8
CUT
10
122.0901
20
114.9276
0
VERTEX
8
CUT
10
123.3035
20
114.9572
0
VERTEX
8
CUT
10
125.5233
20
115.4899
0
VERTEX
8
CUT
10
127.0031
20
116.3482
0
SEQEND
0
POLYLINE
8
CUT
66
1
70
1
10
0.0
20
0.0
30
0.0
0
VERTEX
8
CUT
10
128.0686
20
132.3602
0
VERTEX
8
CUT
10
128.4534
20
132.5674
0
VERTEX
8
CUT
10
127.6247
20
133.0113
0
VERTEX
8
CUT
10
126.1448
20
133.2185
0
VERTEX
8
CUT
10
124.4578
20
133.1593
0
VERTEX
8
CUT
10
122.9188
20
132.8634
0
VERTEX
8
CUT
10
121.1725
20
131.9162
0
VERTEX
8
CUT
10
119.7815
20
130.7324
0
VERTEX
8
CUT
10
119.2191
20
129.9924
0
VERTEX
8
CUT
10
119.0416
20
129.0453
0
VERTEX
8
CUT
10
119.3671
20
129.1341
0
VERTEX
8
CUT
10
121.6757
20
130.9691
0
VERTEX
8
CUT
10
122.9188
20
131.5907
0
VERTEX
8
CUT
10
124.3986
20
132.0050
0
SEQEND
0
POLYLINE
8
CUT
66
1
70
1
10
0.0
20
0.0
30
0.0
0
VERTEX
8
CUT
10
128.0982
20
61.9194
0
VERTEX
8
CUT
10
128.3942
20
62.2746
0
VERTEX
8
CUT
10
128.2758
20
62.4521
0
VERTEX
8
CUT
10
127.4767
20
62.6593
0
VERTEX
8
CUT
10
126.2632
20
62.6593
0
VERTEX
8
CUT
10
124.6058
20
62.2746
0
VERTEX
8
CUT
10
122.6228
20
60.5875
0
VERTEX
8
CUT
10
120.1662
20
58.0422
0
VERTEX
8
CUT
10
119.2487
20
56.8583
0
VERTEX
8
CUT
10
118.9232
20
55.8816
0
VERTEX
8
CUT
10
119.3671
20
56.0888
0
VERTEX
8
CUT
10
122.6524
20
59.1965
0
VERTEX
8
CUT
10
124.2802
20
60.3804
0
VERTEX
8
CUT
10
125.8489
20
61.2091
0
SEQEND
0
POLYLINE
8
CUT
66
1
70
1
10
0.0
20
0.0
30
0.0
0
VERTEX
8
CUT
10
125.7032
20
288.7051
0
VERTEX
8
CUT
10
125.3105
20
288.2578
0
VERTEX
8
CUT
10
124.6972
20
285.9178
0
VERTEX
8
CUT
10
124.5022
20
284.2922
0
VERTEX
8
CUT
10
124.8143
20
283.9116
0
VERTEX
8
CUT
10
125.2499
20
284.1406
0
VERTEX
8
CUT
10
126.6148
20
288.3875
0
VERTEX
8
CUT
10
126.4000
20
288.8356
0
SEQEND
0
POLYLINE
8
CUT
66
1
70
1
10
0.0
20
0.0
30
0.0
0
VERTEX
8
CUT
10
124.5733
20
80.2489
0
VERTEX
8
CUT
10
124.2289
20
80.5121
0
VERTEX
8
CUT
10
121.4745
20
80.5819
0
VERTEX
8
CUT
10
120.4581
20
79.0226
0
VERTEX
8
CUT
10
120.4759
20
78.5606
0
VERTEX
8
CUT
10
120.8864
20
78.4289
0
VERTEX
8
CUT
10
122.5173
20
79.3399
0
VERTEX
8
CUT
10
124.3646
20
79.7683
0
SEQEND
0
POLYLINE
8
CUT
66
1
70
1
10
0.0
20
0.0
30
0.0
0
VERTEX
8
CUT
10
124.2506
20
227.6921
0
VERTEX
8
CUT
10
124.1618
20
227.8992
0
VERTEX
8
CUT
10
123.5403
20
228.1064
0
VERTEX
8
CUT
10
122.1492
20
228.0176
0
VERTEX
8
CUT
10
121.1429
20
227.3073
0
VERTEX
8
CUT
10
120.9654
20
226.7154
0
VERTEX
8
CUT
10
121.2613
20
226.4194
0
VERTEX
8
CUT
10
121.5573
20
226.4490
0
VERTEX
8
CUT
10
122.7412
20
227.0705
0
VERTEX
8
CUT
10
123.9547
20
227.3073
0
SEQEND
0
POLYLINE
8
CUT
66
1
70
1
10
0.0
20
0.0
30
0.0
0
VERTEX
8
CUT
10
117.0290
20
147.9874
0
VERTEX
8
CUT
10
117.1474
20
147.5139
0
VERTEX
8
CUT
10
117.7393
20
147.1883
0
VERTEX
8
CUT
10
119.9887
20
146.6555
0
VERTEX
8
CUT
10
120.0775
20
146.8035
0
VERTEX
8
CUT
10
119.8407
20
147.1587
0
VERTEX
8
CUT
10
118.9528
20
147.7802
0
VERTEX
8
CUT
10
117.8281
20
148.1354
0
SEQEND
0
POLYLINE
8
CUT
66
1
70
1
10
0.0
20
0.0
30
0.0
0
VERTEX
8
CUT
10
116.9402
20
286.4717
0
VERTEX
8
CUT
10
116.3186
20
286.9156
0
VERTEX
8
CUT
10
116.0227
20
286.8860
0
VERTEX
8
CUT
10
115.7859
20
286.5604
0
VERTEX
8
CUT
10
116.0523
20
285.9981
0
VERTEX
8
CUT
10
118.2720
20
283.7487
0
VERTEX
8
CUT
10
118.7160
20
283.5120
0
VERTEX
8
CUT
10
118.8936
20
283.7191
0
VERTEX
8
CUT
10
118.8936
20
284.0743
0
VERTEX
8
CUT
10
118.5384
20
284.6662
0
SEQEND
0
POLYLINE
8
CUT
66
1
70
1
10
0.0
20
0.0
30
0.0
0
VERTEX
8
CUT
10
116.6159
20
88.4145
0
VERTEX
8
CUT
10
116.3879
20
88.6596
0
VERTEX
8
CUT
10
115.7268
20
88.7875
0
VERTEX
8
CUT
10
114.5482
20
88.7502
0
VERTEX
8
CUT
10
114.0719
20
88.3979
0
VERTEX
8
CUT
10
113.5124
20
87.4311
0
VERTEX
8
CUT
10
113.6150
20
87.0490
0
VERTEX
8
CUT
10
113.9990
20
86.9538
0
VERTEX
8
CUT
10
115.1356
20
87.6338
0
VERTEX
8
CUT
10
116.4289
20
87.9546
0
SEQEND
0
POLYLINE
8
CUT
66
1
70
1
10
0.0
20
0.0
30
0.0
0
VERTEX
8
CUT
10
116.3812
20
141.7359
0
VERTEX
8
CUT
10
116.4090
20
143.4146
0
VERTEX
8
CUT
10
115.8824
20
143.5644
0
VERTEX
8
CUT
10
114.9627
20
142.4617
0
VERTEX
8
CUT
10
113.9662
20
142.1011
0
VERTEX
8
CUT
10
113.6546
20
141.7918
0
VERTEX
8
CUT
10
113.8290
20
141.3889
0
VERTEX
8
CUT
10
115.2047
20
140.8571
0
VERTEX
8
CUT
10
115.9633
20
140.9179
0
SEQEND
0
POLYLINE
8
CUT
66
1
70
1
10
0.0
20
0.0
30
0.0
0
VERTEX
8
CUT
10
111.2872
20
153.5516
0
VERTEX
8
CUT
10
106.5812
20
153.9660
0
VERTEX
8
CUT
10
104.7166
20
153.9660
0
VERTEX
8
CUT
10
103.9175
20
153.6404
0
VERTEX
8
CUT
10
103.8879
20
153.1965
0
VERTEX
8
CUT
10
104.7462
20
152.8117
0
VERTEX
8
CUT
10
111.4351
20
151.9830
0
VERTEX
8
CUT
10
112.9150
20
151.5686
0
VERTEX
8
CUT
10
115.5195
20
150.3552
0
VERTEX
8
CUT
10
115.6675
20
150.5919
0
VERTEX
8
CUT
10
114.8684
20
151.5686
0
VERTEX
8
CUT
10
112.7670
20
152.9005
0
SEQEND
0
POLYLINE
8
CUT
66
1
70
1
10
0.0
20
0.0
30
0.0
0
VERTEX
8
CUT
10
112.5006
20
137.3917
0
VERTEX
8
CUT
10
110.5176
20
135.4679
0
VERTEX
8
CUT
10
109.6001
20
133.9880
0
VERTEX
8
CUT
10
109.4521
20
133.4257
0
VERTEX
8
CUT
10
109.6889
20
133.2185
0
VERTEX
8
CUT
10
112.7078
20
136.2374
0
VERTEX
8
CUT
10
113.2406
20
136.9181
0
VERTEX
8
CUT
10
113.3589
20
137.6285
0
VERTEX
8
CUT
10
113.0038
20
137.6877
0
SEQEND
0
POLYLINE
8
CUT
66
1
70
1
10
0.0
20
0.0
30
0.0
0
VERTEX
8
CUT
10
97.1679
20
199.7767
0
VERTEX
8
CUT
10
103.7769
20
203.8477
0
VERTEX
8
CUT
10
105.7717
20
205.4583
0
VERTEX
8
CUT
10
107.4686
20
207.1809
0
VERTEX
8
CUT
10
108.8464
20
209.0217
0
VERTEX
8
CUT
10
109.9406
20
210.9694
0
VERTEX
8
CUT
10
110.6988
20
213.0396
0
VERTEX
8
CUT
10
111.0669
20
214.8838
0
VERTEX
8
CUT
10
110.9582
20
215.1947
0
VERTEX
8
CUT
10
110.6126
20
215.3064
0
VERTEX
8
CUT
10
110.3251
20
215.0844
0
VERTEX
8
CUT
10
109.5287
20
212.4611
0
VERTEX
8
CUT
10
108.6993
20
210.7508
0
VERTEX
8
CUT
10
105.8466
20
207.4230
0
VERTEX
8
CUT
10
103.0834
20
205.0512
0
VERTEX
8
CUT
10
95.6603
20
200.2584
0
VERTEX
8
CUT
10
93.7158
20
198.4878
0
VERTEX
8
CUT
10
91.9872
20
196.5854
0
VERTEX
8
CUT
10
90.6543
20
194.4678
0
VERTEX
8
CUT
10
90.7899
20
194.0296
0
VERTEX
8
CUT
10
91.2486
20
194.0245
0
VERTEX
8
CUT
10
92.8463
20
196.0813
0
VERTEX
8
CUT
10
94.9162
20
198.1473
0
SEQEND
0
POLYLINE
8
CUT
66
1
70
1
10
0.0
20
0.0
30
0.0
0
VERTEX
8
CUT
10
108.5346
20
191.9389
0
VERTEX
8
CUT
10
107.3212
20
192.0277
0
VERTEX
8
CUT
10
106.0189
20
191.9093
0
VERTEX
8
CUT
10
104.8350
20
191.5542
0
VERTEX
8
CUT
10
103.7103
20
190.7550
0
VERTEX
8
CUT
10
103.6511
20
190.0151
0
VERTEX
8
CUT
10
105.9301
20
190.9918
0
VERTEX
8
CUT
10
108.5346
20
191.2286
0
VERTEX
8
CUT
10
108.8306
20
191.4654
0
VERTEX
8
CUT
10
108.8306
20
191.7021
0
SEQEND
0
POLYLINE
8
CUT
66
1
70
1
10
0.0
20
0.0
30
0.0
0
VERTEX
8
CUT
10
107.3212
20
182.4087
0
VERTEX
8
CUT
10
106.9660
20
182.4383
0
VERTEX
8
CUT
10
105.4566
20
181.2544
0
VERTEX
8
CUT
10
104.0359
20
180.6921
0
VERTEX
8
CUT
10
102.4081
20
180.4849
0
VERTEX
8
CUT
10
99.6851
20
180.9288
0
VERTEX
8
CUT
10
100.9578
20
180.0705
0
VERTEX
8
CUT
10
102.2601
20
179.6858
0
VERTEX
8
CUT
10
103.6511
20
179.5674
0
VERTEX
8
CUT
10
105.3974
20
179.9225
0
VERTEX
8
CUT
10
106.1669
20
180.3961
0
VERTEX
8
CUT
10
107.2324
20
181.5208
0
SEQEND
0
POLYLINE
8
CUT
66
1
70
1
10
0.0
20
0.0
30
0.0
0
VERTEX
8
CUT
10
103.7103
20
282.0025
0
VERTEX
8
CUT
10
107.0252
20
280.4043
0
VERTEX
8
CUT
10
104.7758
20
282.6536
0
VERTEX
8
CUT
10
103.7695
20
283.0976
0
VERTEX
8
CUT
10
103.3848
20
282.8608
0
VERTEX
8
CUT
10
103.3256
20
282.4465
0
SEQEND
0
POLYLINE
8
CUT
66
1
70
1
10
0.0
20
0.0
30
0.0
0
VERTEX
8
CUT
10
90.1549
20
233.5819
0
VERTEX
8
CUT
10
91.9011
20
234.8249
0
VERTEX
8
CUT
10
93.8545
20
235.8312
0
VERTEX
8
CUT
10
95.9855
20
236.5712
0
VERTEX
8
CUT
10
97.9389
20
236.8671
0
VERTEX
8
CUT
10
102.5560
20
236.8967
0
VERTEX
8
CUT
10
106.5812
20
236.1568
0
VERTEX
8
CUT
10
106.6108
20
236.4232
0
VERTEX
8
CUT
10
106.0781
20
236.8671
0
VERTEX
8
CUT
10
103.7991
20
237.6958
0
VERTEX
8
CUT
10
100.7802
20
238.3174
0
VERTEX
8
CUT
10
98.8860
20
238.4358
0
VERTEX
8
CUT
10
96.9918
20
238.2878
0
VERTEX
8
CUT
10
95.0384
20
237.8142
0
VERTEX
8
CUT
10
91.0428
20
236.0384
0
VERTEX
8
CUT
10
89.2670
20
234.5882
0
VERTEX
8
CUT
10
87.5800
20
232.7235
0
VERTEX
8
CUT
10
86.1297
20
230.5334
0
VERTEX
8
CUT
10
85.2418
20
228.7280
0
VERTEX
8
CUT
10
84.5611
20
226.6266
0
VERTEX
8
CUT
10
84.2947
20
223.6669
0
VERTEX
8
CUT
10
84.4427
20
222.6014
0
VERTEX
8
CUT
10
84.7683
20
222.5422
0
VERTEX
8
CUT
10
84.9754
20
222.7494
0
VERTEX
8
CUT
10
85.6266
20
226.6562
0
VERTEX
8
CUT
10
86.3073
20
228.6096
0
VERTEX
8
CUT
10
87.3136
20
230.4150
0
VERTEX
8
CUT
10
88.6159
20
232.1020
0
SEQEND
0
POLYLINE
8
CUT
66
1
70
1
10
0.0
20
0.0
30
0.0
0
VERTEX
8
CUT
10
103.8287
20
63.4880
0
VERTEX
8
CUT
10
104.9830
20
64.8199
0
VERTEX
8
CUT
10
106.2853
20
67.1285
0
VERTEX
8
CUT
10
106.4628
20
68.1644
0
VERTEX
8
CUT
10
106.2557
20
68.3123
0
VERTEX
8
CUT
10
105.9597
20
68.1052
0
VERTEX
8
CUT
10
104.4799
20
65.9446
0
VERTEX
8
CUT
10
102.7040
20
64.1392
0
VERTEX
8
CUT
10
101.7569
20
63.4584
0
VERTEX
8
CUT
10
100.5139
20
63.0145
0
VERTEX
8
CUT
10
98.2349
20
62.8369
0
VERTEX
8
CUT
10
96.7550
20
63.0737
0
VERTEX
8
CUT
10
95.1568
20
63.6656
0
VERTEX
8
CUT
10
93.5586
20
64.6719
0
VERTEX
8
CUT
10
93.2922
20
64.6423
0
VERTEX
8
CUT
10
93.4106
20
64.0504
0
VERTEX
8
CUT
10
94.1505
20
63.0737
0
VERTEX
8
CUT
10
95.8079
20
62.0970
0
VERTEX
8
CUT
10
96.8142
20
61.7714
0
VERTEX
8
CUT
10
99.0340
20
61.5642
0
VERTEX
8
CUT
10
100.1291
20
61.6826
0
VERTEX
8
CUT
10
102.2009
20
62.3930
0
SEQEND
0
POLYLINE
8
CUT
66
1
70
1
10
0.0
20
0.0
30
0.0
0
VERTEX
8
CUT
10
99.7739
20
29.6291
0
VERTEX
8
CUT
10
102.3489
20
32.8552
0
VERTEX
8
CUT
10
104.8942
20
36.7916
0
VERTEX
8
CUT
10
106.4037
20
39.7513
0
VERTEX
8
CUT
10
106.1669
20
39.6921
0
VERTEX
8
CUT
10
105.6045
20
38.9226
0
VERTEX
8
CUT
10
102.8520
20
34.6014
0
VERTEX
8
CUT
10
100.3067
20
31.3457
0
VERTEX
8
CUT
10
98.7084
20
29.6587
0
VERTEX
8
CUT
10
94.1209
20
25.8703
0
VERTEX
8
CUT
10
89.4150
20
23.8577
0
VERTEX
8
CUT
10
87.7872
20
23.5913
0
VERTEX
8
CUT
10
86.1297
20
23.9169
0
VERTEX
8
CUT
10
82.6373
20
25.4855
0
VERTEX
8
CUT
10
81.9566
20
25.6039
0
VERTEX
8
CUT
10
82.1045
20
25.1008
0
VERTEX
8
CUT
10
82.5189
20
24.6568
0
VERTEX
8
CUT
10
84.0283
20
23.4433
0
VERTEX
8
CUT
10
85.8338
20
22.5850
0
VERTEX
8
CUT
10
86.8105
20
22.3778
0
VERTEX
8
CUT
10
88.8822
20
22.3482
0
VERTEX
8
CUT
10
91.1316
20
22.8810
0
VERTEX
8
CUT
10
93.7953
20
24.3016
0
VERTEX
8
CUT
10
96.8142
20
26.6694
0
SEQEND
0
POLYLINE
8
CUT
66
1
70
1
10
0.0
20
0.0
30
0.0
0
VERTEX
8
CUT
10
102.6404
20
225.0248
0
VERTEX
8
CUT
10
103.0040
20
225.4305
0
VERTEX
8
CUT
10
102.8523
20
225.7221
0
VERTEX
8
CUT
10
101.9002
20
226.2009
0
VERTEX
8
CUT
10
99.9337
20
226.5917
0
VERTEX
8
CUT
10
98.9605
20
226.3213
0
VERTEX
8
CUT
10
97.7234
20
225.3810
0
VERTEX
8
CUT
10
97.6465
20
224.9581
0
VERTEX
8
CUT
10
98.0057
20
224.7219
0
VERTEX
8
CUT
10
99.6449
20
225.3230
0
VERTEX
8
CUT
10
100.9078
20
225.3530
0
SEQEND
0
POLYLINE
8
CUT
66
1
70
1
10
0.0
20
0.0
30
0.0
0
VERTEX
8
CUT
10
98.8268
20
48.6896
0
VERTEX
8
CUT
10
98.2053
20
48.1864
0
VERTEX
8
CUT
10
98.4421
20
47.9200
0
VERTEX
8
CUT
10
100.2179
20
48.3344
0
VERTEX
8
CUT
10
100.8394
20
48.8967
0
VERTEX
8
CUT
10
100.8986
20
49.2223
0
VERTEX
8
CUT
10
100.3363
20
49.3407
0
SEQEND
0
POLYLINE
8
CUT
66
1
70
1
10
0.0
20
0.0
30
0.0
0
VERTEX
8
CUT
10
99.5964
20
157.8432
0
VERTEX
8
CUT
10
99.9811
20
157.9024
0
VERTEX
8
CUT
10
100.0995
20
158.1096
0
VERTEX
8
CUT
10
99.6851
20
158.5535
0
VERTEX
8
CUT
10
98.4125
20
159.1751
0
VERTEX
8
CUT
10
97.4950
20
159.4414
0
VERTEX
8
CUT
10
96.6958
20
159.3822
0
VERTEX
8
CUT
10
95.6304
20
158.7015
0
VERTEX
8
CUT
10
94.1505
20
157.1329
0
VERTEX
8
CUT
10
93.7657
20
156.2450
0
VERTEX
8
CUT
10
94.0025
20
155.6826
0
VERTEX
8
CUT
10
94.5353
20
155.8306
0
VERTEX
8
CUT
10
95.4232
20
157.1625
0
VERTEX
8
CUT
10
96.1631
20
157.6656
0
VERTEX
8
CUT
10
97.1990
20
157.9320
0
SEQEND
0
POLYLINE
8
CUT
66
1
70
1
10
0.0
20
0.0
30
0.0
0
VERTEX
8
CUT
10
87.9055
20
131.2059
0
VERTEX
8
CUT
10
86.7217
20
130.7916
0
VERTEX
8
CUT
10
84.5315
20
129.1637
0
VERTEX
8
CUT
10
83.7324
20
128.2758
0
VERTEX
8
CUT
10
83.4068
20
127.6247
0
VERTEX
8
CUT
10
83.4660
20
127.4471
0
VERTEX
8
CUT
10
83.8212
20
127.5655
0
VERTEX
8
CUT
10
85.8930
20
129.1637
0
VERTEX
8
CUT
10
87.3136
20
129.8149
0
VERTEX
8
CUT
10
88.9414
20
130.1108
0
VERTEX
8
CUT
10
92.2563
20
129.9924
0
VERTEX
8
CUT
10
93.6474
20
129.6965
0
VERTEX
8
CUT
10
95.6304
20
128.6606
0
VERTEX
8
CUT
10
98.0277
20
126.9736
0
VERTEX
8
CUT
10
99.8627
20
125.2273
0
VERTEX
8
CUT
10
99.7443
20
125.6121
0
VERTEX
8
CUT
10
96.9030
20
129.0453
0
VERTEX
8
CUT
10
95.4528
20
130.2884
0
VERTEX
8
CUT
10
94.8016
20
130.6140
0
VERTEX
8
CUT
10
90.4509
20
131.2651
0
SEQEND
0
POLYLINE
8
CUT
66
1
70
1
10
0.0
20
0.0
30
0.0
0
VERTEX
8
CUT
10
93.8841
20
220.8848
0
VERTEX
8
CUT
10
93.8545
20
220.0856
0
VERTEX
8
CUT
10
94.5353
20
219.3753
0
VERTEX
8
CUT
10
95.9263
20
218.7242
0
VERTEX
8
CUT
10
96.5479
20
218.9314
0
VERTEX
8
CUT
10
96.3111
20
219.6713
0
VERTEX
8
CUT
10
95.6008
20
220.4704
0
SEQEND
0
POLYLINE
8
CUT
66
1
70
1
10
0.0
20
0.0
30
0.0
0
VERTEX
8
CUT
10
23.0276
20
227.0319
0
VERTEX
8
CUT
10
27.9815
20
234.5364
0
VERTEX
8
CUT
10
33.5155
20
241.9053
0
VERTEX
8
CUT
10
36.7834
20
245.7974
0
VERTEX
8
CUT
10
40.1941
20
249.6822
0
VERTEX
8
CUT
10
47.4451
20
257.0811
0
VERTEX
8
CUT
10
54.9825
20
263.9061
0
VERTEX
8
CUT
10
62.4992
20
269.8247
0
VERTEX
8
CUT
10
66.4525
20
272.5893
0
VERTEX
8
CUT
10
74.6215
20
277.8282
0
VERTEX
8
CUT
10
78.8305
20
280.2590
0
VERTEX
8
CUT
10
87.3654
20
284.7046
0
VERTEX
8
CUT
10
95.4765
20
288.4774
0
VERTEX
8
CUT
10
95.6838
20
288.7762
0
VERTEX
8
CUT
10
95.5812
20
289.0896
0
VERTEX
8
CUT
10
93.5872
20
289.2807
0
VERTEX
8
CUT
10
83.7916
20
289.4288
0
VERTEX
8
CUT
10
54.0459
20
289.5176
0
VERTEX
8
CUT
10
24.1835
20
289.4288
0
VERTEX
8
CUT
10
14.2513
20
289.3106
0
VERTEX
8
CUT
10
10.6732
20
289.0577
0
VERTEX
8
CUT
10
10.3935
20
285.5117
0
VERTEX
8
CUT
10
10.2160
20
262.0530
0
VERTEX
8
CUT
10
10.2752
20
217.1597
0
VERTEX
8
CUT
10
10.5011
20
205.6409
0
VERTEX
8
CUT
10
10.8237
20
205.3103
0
VERTEX
8
CUT
10
11.2165
20
205.4873
0
VERTEX
8
CUT
10
14.0240
20
211.2164
0
VERTEX
8
CUT
10
18.2901
20
219.1262
0
SEQEND
0
POLYLINE
8
CUT
66
1
70
1
10
0.0
20
0.0
30
0.0
0
VERTEX
8
CUT
10
95.6257
20
77.8478
0
VERTEX
8
CUT
10
95.4591
20
78.1331
0
VERTEX
8
CUT
10
94.4965
20
78.5913
0
VERTEX
8
CUT
10
91.2539
20
79.2247
0
VERTEX
8
CUT
10
89.0185
20
77.1998
0
VERTEX
8
CUT
10
88.9684
20
76.7692
0
VERTEX
8
CUT
10
89.3477
20
76.5590
0
VERTEX
8
CUT
10
91.5720
20
77.3919
0
VERTEX
8
CUT
10
95.2782
20
77.4253
0
SEQEND
0
POLYLINE
8
CUT
66
1
70
1
10
0.0
20
0.0
30
0.0
0
VERTEX
8
CUT
10
88.6159
20
249.0315
0
VERTEX
8
CUT
10
90.9836
20
250.7777
0
VERTEX
8
CUT
10
92.3747
20
252.1096
0
VERTEX
8
CUT
10
93.4106
20
253.3822
0
VERTEX
8
CUT
10
94.4169
20
255.2172
0
VERTEX
8
CUT
10
93.6770
20
254.6845
0
VERTEX
8
CUT
10
91.7827
20
252.7015
0
VERTEX
8
CUT
10
86.7217
20
249.0315
0
VERTEX
8
CUT
10
84.2059
20
247.7292
0
VERTEX
8
CUT
10
75.5340
20
244.3552
0
VERTEX
8
CUT
10
72.9887
20
243.0825
0
VERTEX
8
CUT
10
71.5384
20
241.8098
0
VERTEX
8
CUT
10
70.6505
20
239.5309
0
VERTEX
8
CUT
10
71.6864
20
240.6555
0
VERTEX
8
CUT
10
73.7878
20
242.3130
0
VERTEX
8
CUT
10
76.6883
20
244.0000
0
VERTEX
8
CUT
10
79.0856
20
245.0951
0
VERTEX
8
CUT
10
86.1889
20
247.8180
0
SEQEND
0
POLYLINE
8
CUT
66
1
70
1
10
0.0
20
0.0
30
0.0
0
VERTEX
8
CUT
10
76.3909
20
141.0441
0
VERTEX
8
CUT
10
79.6613
20
142.7750
0
VERTEX
8
CUT
10
83.1661
20
142.9289
0
VERTEX
8
CUT
10
87.1842
20
142.6322
0
VERTEX
8
CUT
10
89.3241
20
142.0223
0
VERTEX
8
CUT
10
92.3939
20
140.6161
0
VERTEX
8
CUT
10
92.7869
20
140.7172
0
VERTEX
8
CUT
10
92.8872
20
141.0756
0
VERTEX
8
CUT
10
91.0121
20
142.3219
0
VERTEX
8
CUT
10
87.2125
20
144.2487
0
VERTEX
8
CUT
10
80.0788
20
144.0749
0
VERTEX
8
CUT
10
78.2684
20
143.3501
0
VERTEX
8
CUT
10
75.9336
20
142.8853
0
VERTEX
8
CUT
10
75.1848
20
142.3381
0
VERTEX
8
CUT
10
71.3406
20
137.9125
0
VERTEX
8
CUT
10
70.7233
20
136.7110
0
VERTEX
8
CUT
10
70.3288
20
135.2650
0
VERTEX
8
CUT
10
70.5336
20
134.8774
0
VERTEX
8
CUT
10
70.9974
20
134.9526
0
VERTEX
8
CUT
10
72.4199
20
137.4157
0
VERTEX
8
CUT
10
74.6396
20
139.7800
0
SEQEND
0
POLYLINE
8
CUT
66
1
70
1
10
0.0
20
0.0
30
0.0
0
VERTEX
8
CUT
10
87.8053
20
52.4389
0
VERTEX
8
CUT
10
90.1340
20
52.4806
0
VERTEX
8
CUT
10
91.7973
20
51.8818
0
VERTEX
8
CUT
10
92.1211
20
52.0558
0
VERTEX
8
CUT
10
92.2509
20
52.5041
0
VERTEX
8
CUT
10
92.0873
20
52.9572
0
VERTEX
8
CUT
10
91.3372
20
53.3403
0
VERTEX
8
CUT
10
87.6014
20
54.4792
0
VERTEX
8
CUT
10
86.3191
20
54.0827
0
VERTEX
8
CUT
10
84.8996
20
53.1094
0
VERTEX
8
CUT
10
85.0329
20
51.2775
0
VERTEX
8
CUT
10
85.1637
20
50.9134
0
VERTEX
8
CUT
10
85.4291
20
50.7805
0
VERTEX
8
CUT
10
86.9389
20
52.0362
0
SEQEND
0
POLYLINE
8
CUT
66
1
70
1
10
0.0
20
0.0
30
0.0
0
VERTEX
8
CUT
10
91.5164
20
164.4729
0
VERTEX
8
CUT
10
91.0132
20
165.0353
0
VERTEX
8
CUT
10
89.8589
20
165.7160
0
VERTEX
8
CUT
10
89.1190
20
165.9232
0
VERTEX
8
CUT
10
88.3495
20
165.7456
0
VERTEX
8
CUT
10
86.7513
20
164.7985
0
VERTEX
8
CUT
10
85.8042
20
163.6738
0
VERTEX
8
CUT
10
85.4786
20
162.4307
0
VERTEX
8
CUT
10
85.5378
20
161.9868
0
VERTEX
8
CUT
10
85.7450
20
161.8684
0
VERTEX
8
CUT
10
87.0768
20
163.5554
0
VERTEX
8
CUT
10
87.9647
20
164.1178
0
VERTEX
8
CUT
10
89.0598
20
164.4137
0
VERTEX
8
CUT
10
91.3684
20
164.2953
0
SEQEND
0
POLYLINE
8
CUT
66
1
70
1
10
0.0
20
0.0
30
0.0
0
VERTEX
8
CUT
10
81.3942
20
212.4200
0
VERTEX
8
CUT
10
83.2292
20
212.7160
0
VERTEX
8
CUT
10
85.0642
20
212.5976
0
VERTEX
8
CUT
10
86.8401
20
212.1241
0
VERTEX
8
CUT
10
89.3854
20
210.7626
0
VERTEX
8
CUT
10
89.5334
20
210.7922
0
VERTEX
8
CUT
10
89.5334
20
211.2065
0
VERTEX
8
CUT
10
88.1719
20
212.5680
0
VERTEX
8
CUT
10
85.8042
20
213.8111
0
VERTEX
8
CUT
10
83.2884
20
214.2550
0
VERTEX
8
CUT
10
80.7727
20
213.8407
0
VERTEX
8
CUT
10
78.3753
20
212.6568
0
VERTEX
8
CUT
10
76.6883
20
211.1769
0
VERTEX
8
CUT
10
75.5340
20
209.8155
0
VERTEX
8
CUT
10
74.2317
20
207.8029
0
VERTEX
8
CUT
10
73.9358
20
206.8854
0
VERTEX
8
CUT
10
73.9654
20
206.6486
0
VERTEX
8
CUT
10
74.2317
20
206.5302
0
VERTEX
8
CUT
10
74.9125
20
207.1222
0
VERTEX
8
CUT
10
76.5995
20
209.5491
0
VERTEX
8
CUT
10
77.9906
20
210.8218
0
VERTEX
8
CUT
10
79.6184
20
211.7985
0
SEQEND
0
POLYLINE
8
CUT
66
1
70
1
10
0.0
20
0.0
30
0.0
0
VERTEX
8
CUT
10
87.5208
20
201.2324
0
VERTEX
8
CUT
10
87.0176
20
201.8835
0
VERTEX
8
CUT
10
85.9817
20
202.6826
0
VERTEX
8
CUT
10
85.2714
20
203.0082
0
VERTEX
8
CUT
10
83.8212
20
203.1858
0
VERTEX
8
CUT
10
82.4005
20
202.7714
0
VERTEX
8
CUT
10
81.1870
20
201.7355
0
VERTEX
8
CUT
10
80.4175
20
200.1373
0
VERTEX
8
CUT
10
80.6247
20
199.7229
0
VERTEX
8
CUT
10
82.6077
20
201.2916
0
VERTEX
8
CUT
10
83.4364
20
201.7059
0
VERTEX
8
CUT
10
85.1234
20
201.7651
0
VERTEX
8
CUT
10
87.3432
20
201.1140
0
SEQEND
0
POLYLINE
8
CUT
66
1
70
1
10
0.0
20
0.0
30
0.0
0
VERTEX
8
CUT
10
86.9333
20
40.4860
0
VERTEX
8
CUT
10
84.7199
20
41.0376
0
VERTEX
8
CUT
10
84.3309
20
40.7233
0
VERTEX
8
CUT
10
84.5720
20
40.2852
0
VERTEX
8
CUT
10
86.5025
20
39.5663
0
VERTEX
8
CUT
10
87.1132
20
39.9751
0
SEQEND
0
POLYLINE
8
CUT
66
1
70
1
10
0.0
20
0.0
30
0.0
0
VERTEX
8
CUT
10
84.0963
20
261.7435
0
VERTEX
8
CUT
10
85.0706
20
264.4639
0
VERTEX
8
CUT
10
85.4145
20
267.2431
0
VERTEX
8
CUT
10
85.3593
20
268.6129
0
VERTEX
8
CUT
10
84.8067
20
271.1854
0
VERTEX
8
CUT
10
84.0720
20
272.6904
0
VERTEX
8
CUT
10
83.4998
20
273.3338
0
VERTEX
8
CUT
10
82.9044
20
273.2143
0
VERTEX
8
CUT
10
82.0712
20
272.4461
0
VERTEX
8
CUT
10
82.8398
20
270.4833
0
VERTEX
8
CUT
10
82.9950
20
268.7865
0
VERTEX
8
CUT
10
82.5977
20
266.6292
0
VERTEX
8
CUT
10
81.7777
20
264.5447
0
VERTEX
8
CUT
10
80.4273
20
262.3893
0
VERTEX
8
CUT
10
77.5314
20
259.1688
0
VERTEX
8
CUT
10
74.7938
20
256.9970
0
VERTEX
8
CUT
10
74.1981
20
256.7857
0
VERTEX
8
CUT
10
73.2588
20
256.8645
0
VERTEX
8
CUT
10
73.0063
20
256.6942
0
VERTEX
8
CUT
10
72.0056
20
253.7626
0
VERTEX
8
CUT
10
71.6101
20
251.1006
0
VERTEX
8
CUT
10
71.8387
20
250.8066
0
VERTEX
8
CUT
10
72.2098
20
250.8390
0
VERTEX
8
CUT
10
80.5326
20
257.2287
0
VERTEX
8
CUT
10
82.9872
20
259.8824
0
SEQEND
0
POLYLINE
8
CUT
66
1
70
1
10
0.0
20
0.0
30
0.0
0
VERTEX
8
CUT
10
83.7324
20
171.5762
0
VERTEX
8
CUT
10
82.6077
20
172.0497
0
VERTEX
8
CUT
10
81.4534
20
172.0793
0
VERTEX
8
CUT
10
81.0094
20
171.9018
0
VERTEX
8
CUT
10
80.1215
20
171.2802
0
VERTEX
8
CUT
10
78.9673
20
170.0076
0
VERTEX
8
CUT
10
78.6713
20
169.2676
0
VERTEX
8
CUT
10
78.8785
20
168.7053
0
VERTEX
8
CUT
10
79.2928
20
168.7941
0
VERTEX
8
CUT
10
81.3350
20
170.5403
0
VERTEX
8
CUT
10
83.9396
20
170.8067
0
VERTEX
8
CUT
10
84.1171
20
171.1322
0
SEQEND
0
POLYLINE
8
CUT
66
1
70
1
10
0.0
20
0.0
30
0.0
0
VERTEX
8
CUT
10
83.7460
20
41.1414
0
VERTEX
8
CUT
10
82.9098
20
41.1975
0
VERTEX
8
CUT
10
80.4787
20
40.9630
0
VERTEX
8
CUT
10
80.0589
20
40.3522
0
VERTEX
8
CUT
10
80.2709
20
38.9563
0
VERTEX
8
CUT
10
80.7705
20
38.7787
0
VERTEX
8
CUT
10
82.1632
20
39.8525
0
VERTEX
8
CUT
10
83.8326
20
40.4225
0
VERTEX
8
CUT
10
83.9853
20
40.9575
0
SEQEND
0
POLYLINE
8
CUT
66
1
70
1
10
0.0
20
0.0
30
0.0
0
VERTEX
8
CUT
10
76.2840
20
80.2774
0
VERTEX
8
CUT
10
80.0209
20
85.3044
0
VERTEX
8
CUT
10
80.8401
20
87.2969
0
VERTEX
8
CUT
10
80.9990
20
88.0849
0
VERTEX
8
CUT
10
80.7903
20
88.4240
0
VERTEX
8
CUT
10
80.3623
20
88.3799
0
VERTEX
8
CUT
10
78.9959
20
86.9566
0
VERTEX
8
CUT
10
75.6679
20
84.2190
0
VERTEX
8
CUT
10
73.7998
20
81.6577
0
VERTEX
8
CUT
10
72.8061
20
79.6174
0
VERTEX
8
CUT
10
72.5117
20
78.5862
0
VERTEX
8
CUT
10
72.4209
20
73.6558
0
VERTEX
8
CUT
10
72.7213
20
73.3363
0
VERTEX
8
CUT
10
73.1285
20
73.4988
0
VERTEX
8
CUT
10
74.0337
20
76.1062
0
VERTEX
8
CUT
10
75.0316
20
78.2515
0
SEQEND
0
POLYLINE
8
CUT
66
1
70
1
10
0.0
20
0.0
30
0.0
0
VERTEX
8
CUT
10
78.6417
20
177.4660
0
VERTEX
8
CUT
10
78.6121
20
177.7028
0
VERTEX
8
CUT
10
78.1977
20
178.0579
0
VERTEX
8
CUT
10
77.5170
20
178.2651
0
VERTEX
8
CUT
10
76.0668
20
178.1467
0
VERTEX
8
CUT
10
74.8237
20
177.2588
0
VERTEX
8
CUT
10
74.2021
20
176.5485
0
VERTEX
8
CUT
10
73.9358
20
175.9270
0
VERTEX
8
CUT
10
74.1725
20
175.4830
0
VERTEX
8
CUT
10
74.7941
20
175.7494
0
VERTEX
8
CUT
10
76.0964
20
176.9332
0
VERTEX
8
CUT
10
76.8363
20
177.1996
0
VERTEX
8
CUT
10
78.3161
20
177.3180
0
SEQEND
0
POLYLINE
8
CUT
66
1
70
1
10
0.0
20
0.0
30
0.0
0
VERTEX
8
CUT
10
70.4467
20
85.3287
0
VERTEX
8
CUT
10
70.4177
20
84.0700
0
VERTEX
8
CUT
10
70.8182
20
83.7809
0
VERTEX
8
CUT
10
71.1624
20
84.0428
0
VERTEX
8
CUT
10
71.5806
20
86.3272
0
VERTEX
8
CUT
10
72.5436
20
88.7556
0
VERTEX
8
CUT
10
74.0555
20
91.1862
0
VERTEX
8
CUT
10
76.9069
20
94.9003
0
VERTEX
8
CUT
10
77.5389
20
95.9998
0
VERTEX
8
CUT
10
78.0163
20
97.4320
0
VERTEX
8
CUT
10
78.2858
20
99.1861
0
VERTEX
8
CUT
10
78.3404
20
100.8500
0
VERTEX
8
CUT
10
78.0777
20
102.1763
0
VERTEX
8
CUT
10
77.7779
20
102.3163
0
VERTEX
8
CUT
10
77.4785
20
102.1751
0
VERTEX
8
CUT
10
76.3073
20
99.8164
0
VERTEX
8
CUT
10
74.9530
20
98.2472
0
VERTEX
8
CUT
10
73.3161
20
96.9800
0
VERTEX
8
CUT
10
70.2292
20
95.4558
0
VERTEX
8
CUT
10
70.2566
20
95.1206
0
VERTEX
8
CUT
10
71.7772
20
93.6147
0
VERTEX
8
CUT
10
70.8601
20
89.0397
0
SEQEND
0
POLYLINE
8
CUT
66
1
70
1
10
0.0
20
0.0
30
0.0
0
VERTEX
8
CUT
10
74.7500
20
159.5193
0
VERTEX
8
CUT
10
75.2662
20
159.5981
0
VERTEX
8
CUT
10
75.2655
20
160.0915
0
VERTEX
8
CUT
10
70.7806
20
164.5568
0
VERTEX
8
CUT
10
68.4672
20
165.5094
0
VERTEX
8
CUT
10
66.8715
20
166.7205
0
VERTEX
8
CUT
10
63.6914
20
168.5940
0
VERTEX
8
CUT
10
59.0848
20
171.8693
0
VERTEX
8
CUT
10
58.5938
20
171.7883
0
VERTEX
8
CUT
10
58.5833
20
171.2907
0
VERTEX
8
CUT
10
61.1712
20
169.0995
0
VERTEX
8
CUT
10
68.3831
20
163.7209
0
SEQEND
0
POLYLINE
8
CUT
66
1
70
1
10
0.0
20
0.0
30
0.0
0
VERTEX
8
CUT
10
61.8978
20
248.8017
0
VERTEX
8
CUT
10
62.7810
20
250.5691
0
VERTEX
8
CUT
10
64.9967
20
253.9371
0
VERTEX
8
CUT
10
67.2918
20
256.3269
0
VERTEX
8
CUT
10
71.2637
20
259.3692
0
VERTEX
8
CUT
10
72.4525
20
260.0350
0
VERTEX
8
CUT
10
74.2104
20
260.5442
0
VERTEX
8
CUT
10
74.2090
20
261.4811
0
VERTEX
8
CUT
10
73.5021
20
262.4028
0
VERTEX
8
CUT
10
73.0321
20
262.5179
0
VERTEX
8
CUT
10
71.8950
20
262.0720
0
VERTEX
8
CUT
10
68.4242
20
260.3368
0
VERTEX
8
CUT
10
66.4832
20
259.1245
0
VERTEX
8
CUT
10
64.4817
20
256.8042
0
VERTEX
8
CUT
10
61.8123
20
252.8753
0
VERTEX
8
CUT
10
60.8714
20
250.7251
0
VERTEX
8
CUT
10
59.3717
20
245.2235
0
VERTEX
8
CUT
10
58.8154
20
240.9411
0
VERTEX
8
CUT
10
59.2335
20
237.8831
0
VERTEX
8
CUT
10
59.6083
20
237.6148
0
VERTEX
8
CUT
10
59.9766
20
237.8920
0
VERTEX
8
CUT
10
60.0835
20
241.0965
0
VERTEX
8
CUT
10
60.6762
20
245.1276
0
SEQEND
0
POLYLINE
8
CUT
66
1
70
1
10
0.0
20
0.0
30
0.0
0
VERTEX
8
CUT
10
73.3734
20
184.2733
0
VERTEX
8
CUT
10
71.7456
20
184.0661
0
VERTEX
8
CUT
10
70.7985
20
183.1782
0
VERTEX
8
CUT
10
70.7097
20
182.7934
0
VERTEX
8
CUT
10
71.0353
20
182.0239
0
VERTEX
8
CUT
10
72.7223
20
183.2374
0
VERTEX
8
CUT
10
73.8174
20
183.4742
0
VERTEX
8
CUT
10
74.1725
20
183.7997
0
VERTEX
8
CUT
10
73.9358
20
184.0957
0
SEQEND
0
POLYLINE
8
CUT
66
1
70
1
10
0.0
20
0.0
30
0.0
0
VERTEX
8
CUT
10
71.1833
20
145.7380
0
VERTEX
8
CUT
10
71.1833
20
145.3829
0
VERTEX
8
CUT
10
71.5680
20
145.0573
0
VERTEX
8
CUT
10
73.5806
20
144.7317
0
VERTEX
8
CUT
10
73.9358
20
144.9685
0
VERTEX
8
CUT
10
73.1367
20
145.7676
0
VERTEX
8
CUT
10
71.8048
20
146.0932
0
SEQEND
0
POLYLINE
8
CUT
66
1
70
1
10
0.0
20
0.0
30
0.0
0
VERTEX
8
CUT
10
70.4754
20
116.5753
0
VERTEX
8
CUT
10
70.9444
20
116.8217
0
VERTEX
8
CUT
10
70.7949
20
117.3363
0
VERTEX
8
CUT
10
68.4148
20
120.4496
0
VERTEX
8
CUT
10
65.4188
20
123.7101
0
VERTEX
8
CUT
10
63.7691
20
125.1622
0
VERTEX
8
CUT
10
63.4044
20
125.0909
0
VERTEX
8
CUT
10
63.2654
20
124.7463
0
VERTEX
8
CUT
10
64.0767
20
122.6107
0
VERTEX
8
CUT
10
64.0474
20
121.6788
0
VERTEX
8
CUT
10
63.3470
20
121.1517
0
VERTEX
8
CUT
10
61.2456
20
120.7047
0
VERTEX
8
CUT
10
60.4928
20
120.2929
0
VERTEX
8
CUT
10
60.5320
20
119.7091
0
VERTEX
8
CUT
10
61.5689
20
119.1929
0
VERTEX
8
CUT
10
66.4527
20
118.1462
0
VERTEX
8
CUT
10
69.1448
20
117.2293
0
SEQEND
0
POLYLINE
8
CUT
66
1
70
1
10
0.0
20
0.0
30
0.0
0
VERTEX
8
CUT
10
10.3934
20
13.5438
0
VERTEX
8
CUT
10
10.6414
20
10.6687
0
VERTEX
8
CUT
10
13.0995
20
10.4230
0
VERTEX
8
CUT
10
40.7272
20
10.2752
0
VERTEX
8
CUT
10
61.4150
20
10.3936
0
VERTEX
8
CUT
10
69.6038
20
10.6773
0
VERTEX
8
CUT
10
69.7293
20
10.9851
0
VERTEX
8
CUT
10
69.5715
20
11.2777
0
VERTEX
8
CUT
10
61.7596
20
16.5900
0
VERTEX
8
CUT
10
56.6925
20
20.4129
0
VERTEX
8
CUT
10
51.7126
20
24.5042
0
VERTEX
8
CUT
10
46.8535
20
28.8896
0
VERTEX
8
CUT
10
42.1414
20
33.4836
0
VERTEX
8
CUT
10
37.6186
20
38.2725
0
VERTEX
8
CUT
10
33.2917
20
43.2508
0
VERTEX
8
CUT
10
26.6500
20
51.8780
0
VERTEX
8
CUT
10
21.7833
20
59.0891
0
VERTEX
8
CUT
10
17.3737
20
66.4878
0
VERTEX
8
CUT
10
15.3572
20
70.2534
0
VERTEX
8
CUT
10
11.2081
20
78.8650
0
VERTEX
8
CUT
10
10.8012
20
79.0289
0
VERTEX
8
CUT
10
10.4957
20
78.6715
0
VERTEX
8
CUT
10
10.2752
20
69.5799
0
VERTEX
8
CUT
10
10.1864
20
32.7657
0
SEQEND
0
POLYLINE
8
CUT
66
1
70
1
10
0.0
20
0.0
30
0.0
0
VERTEX
8
CUT
10
67.9805
20
104.8044
0
VERTEX
8
CUT
10
66.9553
20
101.5612
0
VERTEX
8
CUT
10
66.8350
20
99.9000
0
VERTEX
8
CUT
10
67.2612
20
97.6287
0
VERTEX
8
CUT
10
67.6399
20
97.3538
0
VERTEX
8
CUT
10
68.0678
20
97.7476
0
VERTEX
8
CUT
10
69.1435
20
100.8867
0
VERTEX
8
CUT
10
69.6706
20
104.2619
0
VERTEX
8
CUT
10
69.2878
20
107.1920
0
VERTEX
8
CUT
10
68.2484
20
109.6434
0
VERTEX
8
CUT
10
67.3885
20
111.0861
0
VERTEX
8
CUT
10
66.9382
20
111.1814
0
VERTEX
8
CUT
10
66.7116
20
110.7796
0
VERTEX
8
CUT
10
68.0083
20
107.1196
0
VERTEX
8
CUT
10
68.1660
20
105.9965
0
SEQEND
0
POLYLINE
8
CUT
66
1
70
1
10
0.0
20
0.0
30
0.0
0
VERTEX
8
CUT
10
57.5686
20
228.1064
0
VERTEX
8
CUT
10
57.5095
20
227.6329
0
VERTEX
8
CUT
10
59.4333
20
224.4068
0
VERTEX
8
CUT
10
61.0907
20
222.0686
0
VERTEX
8
CUT
10
61.7418
20
221.3287
0
VERTEX
8
CUT
10
62.1266
20
221.0327
0
VERTEX
8
CUT
10
62.3634
20
221.8911
0
VERTEX
8
CUT
10
62.0082
20
222.5718
0
VERTEX
8
CUT
10
59.4333
20
225.5611
0
VERTEX
8
CUT
10
58.0718
20
227.8696
0
SEQEND
0
POLYLINE
8
CUT
66
1
70
1
10
0.0
20
0.0
30
0.0
0
VERTEX
8
CUT
10
43.7969
20
229.6272
0
VERTEX
8
CUT
10
45.5860
20
225.3409
0
VERTEX
8
CUT
10
45.8513
20
224.9231
0
VERTEX
8
CUT
10
46.2106
20
224.8560
0
VERTEX
8
CUT
10
46.4818
20
225.1907
0
VERTEX
8
CUT
10
46.7631
20
230.9219
0
VERTEX
8
CUT
10
47.0893
20
233.4516
0
VERTEX
8
CUT
10
47.6245
20
235.8086
0
VERTEX
8
CUT
10
48.4159
20
238.1211
0
VERTEX
8
CUT
10
50.8599
20
242.7349
0
VERTEX
8
CUT
10
57.7531
20
252.0836
0
VERTEX
8
CUT
10
61.0001
20
257.2437
0
VERTEX
8
CUT
10
60.9322
20
257.7054
0
VERTEX
8
CUT
10
60.4373
20
257.7503
0
VERTEX
8
CUT
10
58.5013
20
256.1209
0
VERTEX
8
CUT
10
51.2989
20
249.3612
0
VERTEX
8
CUT
10
45.7344
20
243.3821
0
VERTEX
8
CUT
10
42.1915
20
239.0979
0
VERTEX
8
CUT
10
42.1735
20
238.7029
0
VERTEX
8
CUT
10
42.7277
20
238.3276
0
VERTEX
8
CUT
10
42.9747
20
237.5656
0
VERTEX
8
CUT
10
43.2734
20
232.1084
0
SEQEND
0
POLYLINE
8
CUT
66
1
70
1
10
0.0
20
0.0
30
0.0
0
VERTEX
8
CUT
10
57.8655
20
140.7317
0
VERTEX
8
CUT
10
59.5488
20
140.5399
0
VERTEX
8
CUT
10
59.9099
20
140.8688
0
VERTEX
8
CUT
10
59.7925
20
141.2118
0
VERTEX
8
CUT
10
55.2904
20
145.4996
0
VERTEX
8
CUT
10
54.2900
20
146.3492
0
VERTEX
8
CUT
10
53.2721
20
146.8019
0
VERTEX
8
CUT
10
52.8281
20
146.7525
0
VERTEX
8
CUT
10
52.6605
20
146.3913
0
VERTEX
8
CUT
10
53.5340
20
144.2785
0
VERTEX
8
CUT
10
51.8123
20
142.4243
0
VERTEX
8
CUT
10
51.8187
20
142.1295
0
VERTEX
8
CUT
10
52.0656
20
141.9112
0
VERTEX
8
CUT
10
52.6768
20
142.0699
0
VERTEX
8
CUT
10
53.4617
20
141.9490
0
SEQEND
0
POLYLINE
8
CUT
66
1
70
1
10
0.0
20
0.0
30
0.0
0
VERTEX
8
CUT
10
57.5095
20
205.6423
0
VERTEX
8
CUT
10
57.4207
20
205.4055
0
VERTEX
8
CUT
10
58.8413
20
196.1713
0
VERTEX
8
CUT
10
59.1965
20
195.8753
0
VERTEX
8
CUT
10
59.5812
20
196.1121
0
VERTEX
8
CUT
10
59.6996
20
198.9238
0
VERTEX
8
CUT
10
59.3445
20
201.7355
0
VERTEX
8
CUT
10
58.3974
20
204.7544
0
VERTEX
8
CUT
10
58.0126
20
205.3463
0
SEQEND
0
POLYLINE
8
CUT
66
1
70
1
10
0.0
20
0.0
30
0.0
0
VERTEX
8
CUT
10
59.2163
20
188.3565
0
VERTEX
8
CUT
10
59.1957
20
188.9452
0
VERTEX
8
CUT
10
58.8431
20
190.3277
0
VERTEX
8
CUT
10
57.4285
20
191.2449
0
VERTEX
8
CUT
10
56.9347
20
191.2211
0
VERTEX
8
CUT
10
56.8441
20
190.7658
0
VERTEX
8
CUT
10
58.5433
20
188.1723
0
VERTEX
8
CUT
10
59.0238
20
188.0911
0
SEQEND
0
POLYLINE
8
CUT
66
1
70
1
10
0.0
20
0.0
30
0.0
0
VERTEX
8
CUT
10
55.0233
20
150.1480
0
VERTEX
8
CUT
10
54.4018
20
149.7928
0
VERTEX
8
CUT
10
55.1417
20
149.2601
0
VERTEX
8
CUT
10
58.0126
20
148.5497
0
VERTEX
8
CUT
10
58.4862
20
148.5793
0
VERTEX
8
CUT
10
58.6933
20
148.8161
0
VERTEX
8
CUT
10
57.8054
20
149.4969
0
VERTEX
8
CUT
10
56.8879
20
149.8816
0
SEQEND
0
POLYLINE
8
CUT
66
1
70
1
10
0.0
20
0.0
30
0.0
0
VERTEX
8
CUT
10
46.5442
20
166.6818
0
VERTEX
8
CUT
10
51.8838
20
162.8135
0
VERTEX
8
CUT
10
56.2318
20
160.6697
0
VERTEX
8
CUT
10
57.2473
20
160.2926
0
VERTEX
8
CUT
10
57.6233
20
160.5153
0
VERTEX
8
CUT
10
57.5806
20
160.9175
0
VERTEX
8
CUT
10
53.1840
20
165.6013
0
VERTEX
8
CUT
10
51.0953
20
168.4037
0
VERTEX
8
CUT
10
49.4538
20
171.2070
0
VERTEX
8
CUT
10
47.7794
20
175.0328
0
VERTEX
8
CUT
10
46.9758
20
176.1631
0
VERTEX
8
CUT
10
46.0698
20
176.9975
0
VERTEX
8
CUT
10
45.7193
20
176.8690
0
VERTEX
8
CUT
10
45.6380
20
176.5045
0
VERTEX
8
CUT
10
47.9904
20
171.6678
0
VERTEX
8
CUT
10
48.5418
20
169.7085
0
VERTEX
8
CUT
10
48.4784
20
169.3579
0
VERTEX
8
CUT
10
48.1400
20
169.0456
0
VERTEX
8
CUT
10
46.6074
20
168.2459
0
VERTEX
8
CUT
10
45.5419
20
167.4216
0
VERTEX
8
CUT
10
45.4278
20
167.1431
0
VERTEX
8
CUT
10
45.5540
20
166.8597
0
VERTEX
8
CUT
10
45.0288
20
166.7729
0
VERTEX
8
CUT
10
44.9445
20
166.0159
0
VERTEX
8
CUT
10
45.2637
20
165.7681
0
VERTEX
8
CUT
10
45.6076
20
165.9059
0
VERTEX
8
CUT
10
45.7273
20
166.5483
0
VERTEX
8
CUT
10
45.6045
20
166.8202
0
SEQEND
0
POLYLINE
8
CUT
66
1
70
1
10
0.0
20
0.0
30
0.0
0
VERTEX
8
CUT
10
52.8767
20
228.9282
0
VERTEX
8
CUT
10
54.9173
20
233.7857
0
VERTEX
8
CUT
10
55.0232
20
234.4126
0
VERTEX
8
CUT
10
54.7505
20
234.7052
0
VERTEX
8
CUT
10
54.1962
20
234.5544
0
VERTEX
8
CUT
10
53.6944
20
233.7989
0
VERTEX
8
CUT
10
52.1677
20
230.3621
0
VERTEX
8
CUT
10
51.5038
20
228.3744
0
VERTEX
8
CUT
10
51.1191
20
223.9875
0
VERTEX
8
CUT
10
51.1553
20
221.3143
0
VERTEX
8
CUT
10
51.5261
20
220.9975
0
VERTEX
8
CUT
10
51.9155
20
221.2911
0
VERTEX
8
CUT
10
51.9146
20
223.8405
0
VERTEX
8
CUT
10
52.2169
20
226.4474
0
SEQEND
0
POLYLINE
8
CUT
66
1
70
1
10
0.0
20
0.0
30
0.0
0
VERTEX
8
CUT
10
53.0403
20
200.2853
0
VERTEX
8
CUT
10
52.5076
20
200.6108
0
VERTEX
8
CUT
10
51.7676
20
199.9893
0
VERTEX
8
CUT
10
51.2645
20
199.0126
0
VERTEX
8
CUT
10
50.3766
20
196.4968
0
VERTEX
8
CUT
10
50.1102
20
194.8986
0
VERTEX
8
CUT
10
50.2286
20
192.3533
0
VERTEX
8
CUT
10
50.9389
20
188.7128
0
VERTEX
8
CUT
10
51.4421
20
187.4994
0
VERTEX
8
CUT
10
51.7676
20
187.2922
0
VERTEX
8
CUT
10
51.9156
20
187.4698
0
VERTEX
8
CUT
10
51.6197
20
190.8438
0
VERTEX
8
CUT
10
51.6197
20
194.1587
0
VERTEX
8
CUT
10
51.8564
20
195.9049
0
VERTEX
8
CUT
10
53.0403
20
199.6341
0
SEQEND
0
POLYLINE
8
CUT
66
1
70
1
10
0.0
20
0.0
30
0.0
0
VERTEX
8
CUT
10
16.1206
20
194.8202
0
VERTEX
8
CUT
10
13.7317
20
187.3881
0
VERTEX
8
CUT
10
12.6943
20
183.5642
0
VERTEX
8
CUT
10
11.7786
20
179.6646
0
VERTEX
8
CUT
10
10.3045
20
171.8120
0
VERTEX
8
CUT
10
14.1203
20
168.5829
0
VERTEX
8
CUT
10
19.4378
20
164.8305
0
VERTEX
8
CUT
10
22.7890
20
162.7249
0
VERTEX
8
CUT
10
29.8926
20
158.8636
0
VERTEX
8
CUT
10
33.7464
20
157.0552
0
VERTEX
8
CUT
10
41.9794
20
153.6912
0
VERTEX
8
CUT
10
50.2959
20
150.8594
0
VERTEX
8
CUT
10
51.7767
20
150.6298
0
VERTEX
8
CUT
10
51.9655
20
151.1073
0
VERTEX
8
CUT
10
51.0555
20
152.8417
0
VERTEX
8
CUT
10
50.7632
20
152.9002
0
VERTEX
8
CUT
10
49.4370
20
152.4550
0
VERTEX
8
CUT
10
47.2389
20
152.9359
0
VERTEX
8
CUT
10
46.2455
20
153.4008
0
VERTEX
8
CUT
10
45.2530
20
154.1498
0
VERTEX
8
CUT
10
44.0247
20
155.6432
0
VERTEX
8
CUT
10
42.4595
20
158.3808
0
VERTEX
8
CUT
10
41.1551
20
161.4641
0
VERTEX
8
CUT
10
39.9346
20
165.4801
0
VERTEX
8
CUT
10
38.3032
20
172.1197
0
VERTEX
8
CUT
10
36.6126
20
176.1994
0
VERTEX
8
CUT
10
35.0166
20
178.7731
0
VERTEX
8
CUT
10
33.2669
20
180.9896
0
VERTEX
8
CUT
10
28.8781
20
185.1602
0
VERTEX
8
CUT
10
28.7704
20
185.5432
0
VERTEX
8
CUT
10
29.0416
20
186.1381
0
VERTEX
8
CUT
10
30.0413
20
186.5824
0
VERTEX
8
CUT
10
32.2130
20
187.0227
0
VERTEX
8
CUT
10
33.4675
20
187.0579
0
VERTEX
8
CUT
10
36.8923
20
186.5069
0
VERTEX
8
CUT
10
37.1872
20
186.6477
0
VERTEX
8
CUT
10
37.2710
20
186.9636
0
VERTEX
8
CUT
10
29.7780
20
197.5973
0
VERTEX
8
CUT
10
22.9996
20
208.9263
0
VERTEX
8
CUT
10
22.7034
20
209.0629
0
VERTEX
8
CUT
10
22.4072
20
208.9263
0
VERTEX
8
CUT
10
21.0259
20
206.4650
0
VERTEX
8
CUT
10
18.9865
20
202.0307
0
SEQEND
0
POLYLINE
8
CUT
66
1
70
1
10
0.0
20
0.0
30
0.0
0
VERTEX
8
CUT
10
23.8020
20
211.5903
0
VERTEX
8
CUT
10
25.8752
20
208.0550
0
VERTEX
8
CUT
10
30.3562
20
201.2746
0
VERTEX
8
CUT
10
35.4973
20
194.4482
0
VERTEX
8
CUT
10
41.2756
20
187.7213
0
VERTEX
8
CUT
10
43.3778
20
185.5426
0
VERTEX
8
CUT
10
43.7036
20
185.4568
0
VERTEX
8
CUT
10
43.9546
20
185.6240
0
VERTEX
8
CUT
10
44.0011
20
185.9577
0
VERTEX
8
CUT
10
43.1979
20
187.1517
0
VERTEX
8
CUT
10
42.1621
20
189.5496
0
VERTEX
8
CUT
10
39.9624
20
198.2502
0
VERTEX
8
CUT
10
38.7805
20
201.9089
0
VERTEX
8
CUT
10
36.3101
20
206.7272
0
VERTEX
8
CUT
10
33.6526
20
210.4461
0
VERTEX
8
CUT
10
33.7789
20
211.0358
0
VERTEX
8
CUT
10
34.5631
20
211.4418
0
VERTEX
8
CUT
10
37.2106
20
211.1697
0
VERTEX
8
CUT
10
40.5590
20
210.1197
0
VERTEX
8
CUT
10
42.3928
20
209.0955
0
VERTEX
8
CUT
10
44.9005
20
207.0287
0
VERTEX
8
CUT
10
45.2333
20
207.0125
0
VERTEX
8
CUT
10
45.4568
20
207.2594
0
VERTEX
8
CUT
10
44.5299
20
209.6727
0
VERTEX
8
CUT
10
38.9231
20
218.7300
0
VERTEX
8
CUT
10
37.3010
20
222.0966
0
VERTEX
8
CUT
10
36.7630
20
223.6568
0
VERTEX
8
CUT
10
36.2005
20
226.6174
0
VERTEX
8
CUT
10
36.1387
20
228.7767
0
VERTEX
8
CUT
10
36.4220
20
230.3878
0
VERTEX
8
CUT
10
36.2075
20
230.8377
0
VERTEX
8
CUT
10
35.7500
20
230.7387
0
VERTEX
8
CUT
10
32.0542
20
225.3873
0
VERTEX
8
CUT
10
27.7343
20
218.6707
0
SEQEND
0
ENDSEC
0
EOF
