0
SECTION
2
ENTITIES
0
POLYLINE
8
CUT
66
1
70
1
0
VERTEX
8
CUT
10
300.0000
20
150.0000
0
VERTEX
8
CUT
10
299.9086
20
144.7651
0
VERTEX
8
CUT
10
299.6346
20
139.5365
0
VERTEX
8
CUT
10
299.1783
20
134.3207
0
VERTEX
8
CUT
10
298.5402
20
129.1240
0
VERTEX
8
CUT
10
297.7212
20
123.9528
0
VERTEX
8
CUT
10
296.7221
20
118.8132
0
VERTEX
8
CUT
10
295.5444
20
113.7117
0
VERTEX
8
CUT
10
294.1893
20
108.6544
0
VERTEX
8
CUT
10
292.6585
20
103.6475
0
VERTEX
8
CUT
10
290.9539
20
98.6970
0
VERTEX
8
CUT
10
289.0776
20
93.8090
0
VERTEX
8
CUT
10
287.0318
20
88.9895
0
VERTEX
8
CUT
10
284.8191
20
84.2443
0
VERTEX
8
CUT
10
282.4421
20
79.5793
0
VERTEX
8
CUT
10
279.9038
20
75.0000
0
VERTEX
8
CUT
10
277.2072
20
70.5121
0
VERTEX
8
CUT
10
274.3556
20
66.1211
0
VERTEX
8
CUT
10
271.3525
20
61.8322
0
VERTEX
8
CUT
10
268.2016
20
57.6508
0
VERTEX
8
CUT
10
264.9067
20
53.5819
0
VERTEX
8
CUT
10
261.4717
20
49.6304
0
VERTEX
8
CUT
10
257.9010
20
45.8012
0
VERTEX
8
CUT
10
254.1988
20
42.0990
0
VERTEX
8
CUT
10
250.3696
20
38.5283
0
VERTEX
8
CUT
10
246.4181
20
35.0933
0
VERTEX
8
CUT
10
242.3492
20
31.7984
0
VERTEX
8
CUT
10
238.1678
20
28.6475
0
VERTEX
8
CUT
10
233.8789
20
25.6444
0
VERTEX
8
CUT
10
229.4879
20
22.7928
0
VERTEX
8
CUT
10
225.0000
20
20.0962
0
VERTEX
8
CUT
10
220.4207
20
17.5579
0
VERTEX
8
CUT
10
215.7557
20
15.1809
0
VERTEX
8
CUT
10
211.0105
20
12.9682
0
VERTEX
8
CUT
10
206.1910
20
10.9224
0
VERTEX
8
CUT
10
201.3030
20
9.0461
0
VERTEX
8
CUT
10
196.3525
20
7.3415
0
VERTEX
8
CUT
10
191.3456
20
5.8107
0
VERTEX
8
CUT
10
186.2883
20
4.4556
0
VERTEX
8
CUT
10
181.1868
20
3.2779
0
VERTEX
8
CUT
10
176.0472
20
2.2788
0
VERTEX
8
CUT
10
170.8760
20
1.4598
0
VERTEX
8
CUT
10
165.6793
20
0.8217
0
VERTEX
8
CUT
10
160.4635
20
0.3654
0
VERTEX
8
CUT
10
155.2349
20
0.0914
0
VERTEX
8
CUT
10
150.0000
20
0.0000
0
VERTEX
8
CUT
10
144.7651
20
0.0914
0
VERTEX
8
CUT
10
139.5365
20
0.3654
0
VERTEX
8
CUT
10
134.3207
20
0.8217
0
VERTEX
8
CUT
10
129.1240
20
1.4598
0
VERTEX
8
CUT
10
123.9528
20
2.2788
0
VERTEX
8
CUT
10
118.8132
20
3.2779
0
VERTEX
8
CUT
10
113.7117
20
4.4556
0
VERTEX
8
CUT
10
108.6544
20
5.8107
0
VERTEX
8
CUT
10
103.6475
20
7.3415
0
VERTEX
8
CUT
10
98.6970
20
9.0461
0
VERTEX
8
CUT
10
93.8090
20
10.9224
0
VERTEX
8
CUT
10
88.9895
20
12.9682
0
VERTEX
8
CUT
10
84.2443
20
15.1809
0
VERTEX
8
CUT
10
79.5793
20
17.5579
0
VERTEX
8
CUT
10
75.0000
20
20.0962
0
VERTEX
8
CUT
10
70.5121
20
22.7928
0
VERTEX
8
CUT
10
66.1211
20
25.6444
0
VERTEX
8
CUT
10
61.8322
20
28.6475
0
VERTEX
8
CUT
10
57.6508
20
31.7984
0
VERTEX
8
CUT
10
53.5819
20
35.0933
0
VERTEX
8
CUT
10
49.6304
20
38.5283
0
VERTEX
8
CUT
10
45.8012
20
42.0990
0
VERTEX
8
CUT
10
42.0990
20
45.8012
0
VERTEX
8
CUT
10
38.5283
20
49.6304
0
VERTEX
8
CUT
10
35.0933
20
53.5819
0
VERTEX
8
CUT
10
31.7984
20
57.6508
0
VERTEX
8
CUT
10
28.6475
20
61.8322
0
VERTEX
8
CUT
10
25.6444
20
66.1211
0
VERTEX
8
CUT
10
22.7928
20
70.5121
0
VERTEX
8
CUT
10
20.0962
20
75.0000
0
VERTEX
8
CUT
10
17.5579
20
79.5793
0
VERTEX
8
CUT
10
15.1809
20
84.2443
0
VERTEX
8
CUT
10
12.9682
20
88.9895
0
VERTEX
8
CUT
10
10.9224
20
93.8090
0
VERTEX
8
CUT
10
9.0461
20
98.6970
0
VERTEX
8
CUT
10
7.3415
20
103.6475
0
VERTEX
8
CUT
10
5.8107
20
108.6544
0
VERTEX
8
CUT
10
4.4556
20
113.7117
0
VERTEX
8
CUT
10
3.2779
20
118.8132
0
VERTEX
8
CUT
10
2.2788
20
123.9528
0
VERTEX
8
CUT
10
1.4598
20
129.1240
0
VERTEX
8
CUT
10
0.8217
20
134.3207
0
VERTEX
8
CUT
10
0.3654
20
139.5365
0
VERTEX
8
CUT
10
0.0914
20
144.7651
0
VERTEX
8
CUT
10
0.0000
20
150.0000
0
VERTEX
8
CUT
10
0.0914
20
155.2349
0
VERTEX
8
CUT
10
0.3654
20
160.4635
0
VERTEX
8
CUT
10
0.8217
20
165.6793
0
VERTEX
8
CUT
10
1.4598
20
170.8760
0
VERTEX
8
CUT
10
2.2788
20
176.0472
0
VERTEX
8
CUT
10
3.2779
20
181.1868
0
VERTEX
8
CUT
10
4.4556
20
186.2883
0
VERTEX
8
CUT
10
5.8107
20
191.3456
0
VERTEX
8
CUT
10
7.3415
20
196.3525
0
VERTEX
8
CUT
10
9.0461
20
201.3030
0
VERTEX
8
CUT
10
10.9224
20
206.1910
0
VERTEX
8
CUT
10
12.9682
20
211.0105
0
VERTEX
8
CUT
10
15.1809
20
215.7557
0
VERTEX
8
CUT
10
17.5579
20
220.4207
0
VERTEX
8
CUT
10
20.0962
20
225.0000
0
VERTEX
8
CUT
10
22.7928
20
229.4879
0
VERTEX
8
CUT
10
25.6444
20
233.8789
0
VERTEX
8
CUT
10
28.6475
20
238.1678
0
VERTEX
8
CUT
10
31.7984
20
242.3492
0
VERTEX
8
CUT
10
35.0933
20
246.4181
0
VERTEX
8
CUT
10
38.5283
20
250.3696
0
VERTEX
8
CUT
10
42.0990
20
254.1988
0
VERTEX
8
CUT
10
45.8012
20
257.9010
0
VERTEX
8
CUT
10
49.6304
20
261.4717
0
VERTEX
8
CUT
10
53.5819
20
264.9067
0
VERTEX
8
CUT
10
57.6508
20
268.2016
0
VERTEX
8
CUT
10
61.8322
20
271.3525
0
VERTEX
8
CUT
10
66.1211
20
274.3556
0
VERTEX
8
CUT
10
70.5121
20
277.2072
0
VERTEX
8
CUT
10
75.0000
20
279.9038
0
VERTEX
8
CUT
10
79.5793
20
282.4421
0
VERTEX
8
CUT
10
84.2443
20
284.8191
0
VERTEX
8
CUT
10
88.9895
20
287.0318
0
VERTEX
8
CUT
10
93.8090
20
289.0776
0
VERTEX
8
CUT
10
98.6970
20
290.9539
0
VERTEX
8
CUT
10
103.6475
20
292.6585
0
VERTEX
8
CUT
10
108.6544
20
294.1893
0
VERTEX
8
CUT
10
113.7117
20
295.5444
0
VERTEX
8
CUT
10
118.8132
20
296.7221
0
VERTEX
8
CUT
10
123.9528
20
297.7212
0
VERTEX
8
CUT
10
129.1240
20
298.5402
0
VERTEX
8
CUT
10
134.3207
20
299.1783
0
VERTEX
8
CUT
10
139.5365
20
299.6346
0
VERTEX
8
CUT
10
144.7651
20
299.9086
0
VERTEX
8
CUT
10
150.0000
20
300.0000
0
VERTEX
8
CUT
10
155.2349
20
299.9086
0
VERTEX
8
CUT
10
160.4635
20
299.6346
0
VERTEX
8
CUT
10
165.6793
20
299.1783
0
VERTEX
8
CUT
10
170.8760
20
298.5402
0
VERTEX
8
CUT
10
176.0472
20
297.7212
0
VERTEX
8
CUT
10
181.1868
20
296.7221
0
VERTEX
8
CUT
10
186.2883
20
295.5444
0
VERTEX
8
CUT
10
191.3456
20
294.1893
0
VERTEX
8
CUT
10
196.3525
20
292.6585
0
VERTEX
8
CUT
10
201.3030
20
290.9539
0
VERTEX
8
CUT
10
206.1910
20
289.0776
0
VERTEX
8
CUT
10
211.0105
20
287.0318
0
VERTEX
8
CUT
10
215.7557
20
284.8191
0
VERTEX
8
CUT
10
220.4207
20
282.4421
0
VERTEX
8
CUT
10
225.0000
20
279.9038
0
VERTEX
8
CUT
10
229.4879
20
277.2072
0
VERTEX
8
CUT
10
233.8789
20
274.3556
0
VERTEX
8
CUT
10
238.1678
20
271.3525
0
VERTEX
8
CUT
10
242.3492
20
268.2016
0
VERTEX
8
CUT
10
246.4181
20
264.9067
0
VERTEX
8
CUT
10
250.3696
20
261.4717
0
VERTEX
8
CUT
10
254.1988
20
257.9010
0
VERTEX
8
CUT
10
257.9010
20
254.1988
0
VERTEX
8
CUT
10
261.4717
20
250.3696
0
VERTEX
8
CUT
10
264.9067
20
246.4181
0
VERTEX
8
CUT
10
268.2016
20
242.3492
0
VERTEX
8
CUT
10
271.3525
20
238.1678
0
VERTEX
8
CUT
10
274.3556
20
233.8789
0
VERTEX
8
CUT
10
277.2072
20
229.4879
0
VERTEX
8
CUT
10
279.9038
20
225.0000
0
VERTEX
8
CUT
10
282.4421
20
220.4207
0
VERTEX
8
CUT
10
284.8191
20
215.7557
0
VERTEX
8
CUT
10
287.0318
20
211.0105
0
VERTEX
8
CUT
10
289.0776
20
206.1910
0
VERTEX
8
CUT
10
290.9539
20
201.3030
0
VERTEX
8
CUT
10
292.6585
20
196.3525
0
VERTEX
8
CUT
10
294.1893
20
191.3456
0
VERTEX
8
CUT
10
295.5444
20
186.2883
0
VERTEX
8
CUT
10
296.7221
20
181.1868
0
VERTEX
8
CUT
10
297.7212
20
176.0472
0
VERTEX
8
CUT
10
298.5402
20
170.8760
0
VERTEX
8
CUT
10
299.1783
20
165.6793
0
VERTEX
8
CUT
10
299.6346
20
160.4635
0
VERTEX
8
CUT
10
299.9086
20
155.2349
0
SEQEND
0
POLYLINE
8
CUT
66
1
70
1
0
VERTEX
8
CUT
10
222.0000
20
150.0000
0
VERTEX
8
CUT
10
221.9561
20
147.4872
0
VERTEX
8
CUT
10
221.8246
20
144.9775
0
VERTEX
8
CUT
10
221.6056
20
142.4740
0
VERTEX
8
CUT
10
221.2993
20
139.9795
0
VERTEX
8
CUT
10
220.9062
20
137.4973
0
VERTEX
8
CUT
10
220.4266
20
135.0304
0
VERTEX
8
CUT
10
219.8613
20
132.5816
0
VERTEX
8
CUT
10
219.2108
20
130.1541
0
VERTEX
8
CUT
10
218.4761
20
127.7508
0
VERTEX
8
CUT
10
217.6579
20
125.3745
0
VERTEX
8
CUT
10
216.7572
20
123.0283
0
VERTEX
8
CUT
10
215.7753
20
120.7150
0
VERTEX
8
CUT
10
214.7132
20
118.4373
0
VERTEX
8
CUT
10
213.5722
20
116.1980
0
VERTEX
8
CUT
10
212.3538
20
114.0000
0
VERTEX
8
CUT
10
211.0595
20
111.8458
0
VERTEX
8
CUT
10
209.6907
20
109.7381
0
VERTEX
8
CUT
10
208.2492
20
107.6795
0
VERTEX
8
CUT
10
206.7368
20
105.6724
0
VERTEX
8
CUT
10
205.1552
20
103.7193
0
VERTEX
8
CUT
10
203.5064
20
101.8226
0
VERTEX
8
CUT
10
201.7925
20
99.9846
0
VERTEX
8
CUT
10
200.0154
20
98.2075
0
VERTEX
8
CUT
10
198.1774
20
96.4936
0
VERTEX
8
CUT
10
196.2807
20
94.8448
0
VERTEX
8
CUT
10
194.3276
20
93.2632
0
VERTEX
8
CUT
10
192.3205
20
91.7508
0
VERTEX
8
CUT
10
190.2619
20
90.3093
0
VERTEX
8
CUT
10
188.1542
20
88.9405
0
VERTEX
8
CUT
10
186.0000
20
87.6462
0
VERTEX
8
CUT
10
183.8020
20
86.4278
0
VERTEX
8
CUT
10
181.5627
20
85.2868
0
VERTEX
8
CUT
10
179.2850
20
84.2247
0
VERTEX
8
CUT
10
176.9717
20
83.2428
0
VERTEX
8
CUT
10
174.6255
20
82.3421
0
VERTEX
8
CUT
10
172.2492
20
81.5239
0
VERTEX
8
CUT
10
169.8459
20
80.7892
0
VERTEX
8
CUT
10
167.4184
20
80.1387
0
VERTEX
8
CUT
10
164.9696
20
79.5734
0
VERTEX
8
CUT
10
162.5027
20
79.0938
0
VERTEX
8
CUT
10
160.0205
20
78.7007
0
VERTEX
8
CUT
10
157.5260
20
78.3944
0
VERTEX
8
CUT
10
155.0225
20
78.1754
0
VERTEX
8
CUT
10
152.5128
20
78.0439
0
VERTEX
8
CUT
10
150.0000
20
78.0000
0
VERTEX
8
CUT
10
147.4872
20
78.0439
0
VERTEX
8
CUT
10
144.9775
20
78.1754
0
VERTEX
8
CUT
10
142.4740
20
78.3944
0
VERTEX
8
CUT
10
139.9795
20
78.7007
0
VERTEX
8
CUT
10
137.4973
20
79.0938
0
VERTEX
8
CUT
10
135.0304
20
79.5734
0
VERTEX
8
CUT
10
132.5816
20
80.1387
0
VERTEX
8
CUT
10
130.1541
20
80.7892
0
VERTEX
8
CUT
10
127.7508
20
81.5239
0
VERTEX
8
CUT
10
125.3745
20
82.3421
0
VERTEX
8
CUT
10
123.0283
20
83.2428
0
VERTEX
8
CUT
10
120.7150
20
84.2247
0
VERTEX
8
CUT
10
118.4373
20
85.2868
0
VERTEX
8
CUT
10
116.1980
20
86.4278
0
VERTEX
8
CUT
10
114.0000
20
87.6462
0
VERTEX
8
CUT
10
111.8458
20
88.9405
0
VERTEX
8
CUT
10
109.7381
20
90.3093
0
VERTEX
8
CUT
10
107.6795
20
91.7508
0
VERTEX
8
CUT
10
105.6724
20
93.2632
0
VERTEX
8
CUT
10
103.7193
20
94.8448
0
VERTEX
8
CUT
10
101.8226
20
96.4936
0
VERTEX
8
CUT
10
99.9846
20
98.2075
0
VERTEX
8
CUT
10
98.2075
20
99.9846
0
VERTEX
8
CUT
10
96.4936
20
101.8226
0
VERTEX
8
CUT
10
94.8448
20
103.7193
0
VERTEX
8
CUT
10
93.2632
20
105.6724
0
VERTEX
8
CUT
10
91.7508
20
107.6795
0
VERTEX
8
CUT
10
90.3093
20
109.7381
0
VERTEX
8
CUT
10
88.9405
20
111.8458
0
VERTEX
8
CUT
10
87.6462
20
114.0000
0
VERTEX
8
CUT
10
86.4278
20
116.1980
0
VERTEX
8
CUT
10
85.2868
20
118.4373
0
VERTEX
8
CUT
10
84.2247
20
120.7150
0
VERTEX
8
CUT
10
83.2428
20
123.0283
0
VERTEX
8
CUT
10
82.3421
20
125.3745
0
VERTEX
8
CUT
10
81.5239
20
127.7508
0
VERTEX
8
CUT
10
80.7892
20
130.1541
0
VERTEX
8
CUT
10
80.1387
20
132.5816
0
VERTEX
8
CUT
10
79.5734
20
135.0304
0
VERTEX
8
CUT
10
79.0938
20
137.4973
0
VERTEX
8
CUT
10
78.7007
20
139.9795
0
VERTEX
8
CUT
10
78.3944
20
142.4740
0
VERTEX
8
CUT
10
78.1754
20
144.9775
0
VERTEX
8
CUT
10
78.0439
20
147.4872
0
VERTEX
8
CUT
10
78.0000
20
150.0000
0
VERTEX
8
CUT
10
78.0439
20
152.5128
0
VERTEX
8
CUT
10
78.1754
20
155.0225
0
VERTEX
8
CUT
10
78.3944
20
157.5260
0
VERTEX
8
CUT
10
78.7007
20
160.0205
0
VERTEX
8
CUT
10
79.0938
20
162.5027
0
VERTEX
8
CUT
10
79.5734
20
164.9696
0
VERTEX
8
CUT
10
80.1387
20
167.4184
0
VERTEX
8
CUT
10
80.7892
20
169.8459
0
VERTEX
8
CUT
10
81.5239
20
172.2492
0
VERTEX
8
CUT
10
82.3421
20
174.6255
0
VERTEX
8
CUT
10
83.2428
20
176.9717
0
VERTEX
8
CUT
10
84.2247
20
179.2850
0
VERTEX
8
CUT
10
85.2868
20
181.5627
0
VERTEX
8
CUT
10
86.4278
20
183.8020
0
VERTEX
8
CUT
10
87.6462
20
186.0000
0
VERTEX
8
CUT
10
88.9405
20
188.1542
0
VERTEX
8
CUT
10
90.3093
20
190.2619
0
VERTEX
8
CUT
10
91.7508
20
192.3205
0
VERTEX
8
CUT
10
93.2632
20
194.3276
0
VERTEX
8
CUT
10
94.8448
20
196.2807
0
VERTEX
8
CUT
10
96.4936
20
198.1774
0
VERTEX
8
CUT
10
98.2075
20
200.0154
0
VERTEX
8
CUT
10
99.9846
20
201.7925
0
VERTEX
8
CUT
10
101.8226
20
203.5064
0
VERTEX
8
CUT
10
103.7193
20
205.1552
0
VERTEX
8
CUT
10
105.6724
20
206.7368
0
VERTEX
8
CUT
10
107.6795
20
208.2492
0
VERTEX
8
CUT
10
109.7381
20
209.6907
0
VERTEX
8
CUT
10
111.8458
20
211.0595
0
VERTEX
8
CUT
10
114.0000
20
212.3538
0
VERTEX
8
CUT
10
116.1980
20
213.5722
0
VERTEX
8
CUT
10
118.4373
20
214.7132
0
VERTEX
8
CUT
10
120.7150
20
215.7753
0
VERTEX
8
CUT
10
123.0283
20
216.7572
0
VERTEX
8
CUT
10
125.3745
20
217.6579
0
VERTEX
8
CUT
10
127.7508
20
218.4761
0
VERTEX
8
CUT
10
130.1541
20
219.2108
0
VERTEX
8
CUT
10
132.5816
20
219.8613
0
VERTEX
8
CUT
10
135.0304
20
220.4266
0
VERTEX
8
CUT
10
137.4973
20
220.9062
0
VERTEX
8
CUT
10
139.9795
20
221.2993
0
VERTEX
8
CUT
10
142.4740
20
221.6056
0
VERTEX
8
CUT
10
144.9775
20
221.8246
0
VERTEX
8
CUT
10
147.4872
20
221.9561
0
VERTEX
8
CUT
10
150.0000
20
222.0000
0
VERTEX
8
CUT
10
152.5128
20
221.9561
0
VERTEX
8
CUT
10
155.0225
20
221.8246
0
VERTEX
8
CUT
10
157.5260
20
221.6056
0
VERTEX
8
CUT
10
160.0205
20
221.2993
0
VERTEX
8
CUT
10
162.5027
20
220.9062
0
VERTEX
8
CUT
10
164.9696
20
220.4266
0
VERTEX
8
CUT
10
167.4184
20
219.8613
0
VERTEX
8
CUT
10
169.8459
20
219.2108
0
VERTEX
8
CUT
10
172.2492
20
218.4761
0
VERTEX
8
CUT
10
174.6255
20
217.6579
0
VERTEX
8
CUT
10
176.9717
20
216.7572
0
VERTEX
8
CUT
10
179.2850
20
215.7753
0
VERTEX
8
CUT
10
181.5627
20
214.7132
0
VERTEX
8
CUT
10
183.8020
20
213.5722
0
VERTEX
8
CUT
10
186.0000
20
212.3538
0
VERTEX
8
CUT
10
188.1542
20
211.0595
0
VERTEX
8
CUT
10
190.2619
20
209.6907
0
VERTEX
8
CUT
10
192.3205
20
208.2492
0
VERTEX
8
CUT
10
194.3276
20
206.7368
0
VERTEX
8
CUT
10
196.2807
20
205.1552
0
VERTEX
8
CUT
10
198.1774
20
203.5064
0
VERTEX
8
CUT
10
200.0154
20
201.7925
0
VERTEX
8
CUT
10
201.7925
20
200.0154
0
VERTEX
8
CUT
10
203.5064
20
198.1774
0
VERTEX
8
CUT
10
205.1552
20
196.2807
0
VERTEX
8
CUT
10
206.7368
20
194.3276
0
VERTEX
8
CUT
10
208.2492
20
192.3205
0
VERTEX
8
CUT
10
209.6907
20
190.2619
0
VERTEX
8
CUT
10
211.0595
20
188.1542
0
VERTEX
8
CUT
10
212.3538
20
186.0000
0
VERTEX
8
CUT
10
213.5722
20
183.8020
0
VERTEX
8
CUT
10
214.7132
20
181.5627
0
VERTEX
8
CUT
10
215.7753
20
179.2850
0
VERTEX
8
CUT
10
216.7572
20
176.9717
0
VERTEX
8
CUT
10
217.6579
20
174.6255
0
VERTEX
8
CUT
10
218.4761
20
172.2492
0
VERTEX
8
CUT
10
219.2108
20
169.8459
0
VERTEX
8
CUT
10
219.8613
20
167.4184
0
VERTEX
8
CUT
10
220.4266
20
164.9696
0
VERTEX
8
CUT
10
220.9062
20
162.5027
0
VERTEX
8
CUT
10
221.2993
20
160.0205
0
VERTEX
8
CUT
10
221.6056
20
157.5260
0
VERTEX
8
CUT
10
221.8246
20
155.0225
0
VERTEX
8
CUT
10
221.9561
20
152.5128
0
SEQEND
0
POLYLINE
8
CUT
66
1
70
1
0
VERTEX
8
CUT
10
240.9899
20
148.6410
0
VERTEX
8
CUT
10
240.9771
20
147.9602
0
VERTEX
8
CUT
10
240.9593
20
147.2796
0
VERTEX
8
CUT
10
240.9364
20
146.5991
0
VERTEX
8
CUT
10
240.9084
20
145.9188
0
VERTEX
8
CUT
10
240.8754
20
145.2387
0
VERTEX
8
CUT
10
240.8372
20
144.5590
0
VERTEX
8
CUT
10
240.7939
20
143.8795
0
VERTEX
8
CUT
10
240.7456
20
143.2003
0
VERTEX
8
CUT
10
240.6922
20
142.5215
0
VERTEX
8
CUT
10
240.6337
20
141.8432
0
VERTEX
8
CUT
10
240.5701
20
141.1653
0
VERTEX
8
CUT
10
240.5015
20
140.4879
0
VERTEX
8
CUT
10
240.4278
20
139.8110
0
VERTEX
8
CUT
10
240.3490
20
139.1348
0
VERTEX
8
CUT
10
240.2652
20
138.4591
0
VERTEX
8
CUT
10
240.1763
20
137.7840
0
VERTEX
8
CUT
10
240.0824
20
137.1097
0
VERTEX
8
CUT
10
239.9834
20
136.4360
0
VERTEX
8
CUT
10
239.8794
20
135.7632
0
VERTEX
8
CUT
10
239.7704
20
135.0911
0
VERTEX
8
CUT
10
239.6563
20
134.4198
0
VERTEX
8
CUT
10
239.5373
20
133.7495
0
VERTEX
8
CUT
10
239.4132
20
133.0800
0
VERTEX
8
CUT
10
239.2841
20
132.4115
0
VERTEX
8
CUT
10
225.5481
20
135.1174
0
VERTEX
8
CUT
10
225.6573
20
135.6831
0
VERTEX
8
CUT
10
225.7623
20
136.2495
0
VERTEX
8
CUT
10
225.8631
20
136.8168
0
VERTEX
8
CUT
10
225.9596
20
137.3848
0
VERTEX
8
CUT
10
226.0518
20
137.9534
0
VERTEX
8
CUT
10
226.1398
20
138.5228
0
VERTEX
8
CUT
10
226.2236
20
139.0928
0
VERTEX
8
CUT
10
226.3030
20
139.6634
0
VERTEX
8
CUT
10
226.3782
20
140.2346
0
VERTEX
8
CUT
10
226.4492
20
140.8063
0
VERTEX
8
CUT
10
226.5158
20
141.3786
0
VERTEX
8
CUT
10
226.5782
20
141.9513
0
VERTEX
8
CUT
10
226.6363
20
142.5245
0
VERTEX
8
CUT
10
226.6900
20
143.0981
0
VERTEX
8
CUT
10
226.7395
20
143.6721
0
VERTEX
8
CUT
10
226.7847
20
144.2464
0
VERTEX
8
CUT
10
226.8256
20
144.8211
0
VERTEX
8
CUT
10
226.8622
20
145.3960
0
VERTEX
8
CUT
10
226.8945
20
145.9712
0
VERTEX
8
CUT
10
226.9225
20
146.5467
0
VERTEX
8
CUT
10
226.9462
20
147.1223
0
VERTEX
8
CUT
10
226.9656
20
147.6981
0
VERTEX
8
CUT
10
226.9807
20
148.2740
0
VERTEX
8
CUT
10
226.9914
20
148.8500
0
SEQEND
0
POLYLINE
8
CUT
66
1
70
1
0
VERTEX
8
CUT
10
238.7189
20
129.7528
0
VERTEX
8
CUT
10
238.5650
20
129.0896
0
VERTEX
8
CUT
10
238.4060
20
128.4275
0
VERTEX
8
CUT
10
238.2422
20
127.7667
0
VERTEX
8
CUT
10
238.0733
20
127.1071
0
VERTEX
8
CUT
10
237.8996
20
126.4487
0
VERTEX
8
CUT
10
237.7209
20
125.7917
0
VERTEX
8
CUT
10
237.5373
20
125.1361
0
VERTEX
8
CUT
10
237.3489
20
124.4818
0
VERTEX
8
CUT
10
237.1555
20
123.8290
0
VERTEX
8
CUT
10
236.9572
20
123.1776
0
VERTEX
8
CUT
10
236.7541
20
122.5278
0
VERTEX
8
CUT
10
236.5461
20
121.8795
0
VERTEX
8
CUT
10
236.3333
20
121.2327
0
VERTEX
8
CUT
10
236.1157
20
120.5876
0
VERTEX
8
CUT
10
235.8932
20
119.9441
0
VERTEX
8
CUT
10
235.6659
20
119.3023
0
VERTEX
8
CUT
10
235.4338
20
118.6622
0
VERTEX
8
CUT
10
235.1970
20
118.0238
0
VERTEX
8
CUT
10
234.9553
20
117.3873
0
VERTEX
8
CUT
10
234.7090
20
116.7526
0
VERTEX
8
CUT
10
234.4578
20
116.1197
0
VERTEX
8
CUT
10
234.2020
20
115.4887
0
VERTEX
8
CUT
10
233.9414
20
114.8597
0
VERTEX
8
CUT
10
233.6761
20
114.2326
0
VERTEX
8
CUT
10
220.8029
20
119.7353
0
VERTEX
8
CUT
10
221.0273
20
120.2659
0
VERTEX
8
CUT
10
221.2478
20
120.7982
0
VERTEX
8
CUT
10
221.4643
20
121.3321
0
VERTEX
8
CUT
10
221.6768
20
121.8676
0
VERTEX
8
CUT
10
221.8853
20
122.4046
0
VERTEX
8
CUT
10
222.0897
20
122.9432
0
VERTEX
8
CUT
10
222.2902
20
123.4834
0
VERTEX
8
CUT
10
222.4865
20
124.0250
0
VERTEX
8
CUT
10
222.6789
20
124.5681
0
VERTEX
8
CUT
10
222.8671
20
125.1126
0
VERTEX
8
CUT
10
223.0513
20
125.6584
0
VERTEX
8
CUT
10
223.2314
20
126.2057
0
VERTEX
8
CUT
10
223.4073
20
126.7543
0
VERTEX
8
CUT
10
223.5792
20
127.3042
0
VERTEX
8
CUT
10
223.7470
20
127.8553
0
VERTEX
8
CUT
10
223.9106
20
128.4077
0
VERTEX
8
CUT
10
224.0701
20
128.9613
0
VERTEX
8
CUT
10
224.2254
20
129.5161
0
VERTEX
8
CUT
10
224.3766
20
130.0720
0
VERTEX
8
CUT
10
224.5236
20
130.6291
0
VERTEX
8
CUT
10
224.6664
20
131.1872
0
VERTEX
8
CUT
10
224.8051
20
131.7464
0
VERTEX
8
CUT
10
224.9396
20
132.3066
0
VERTEX
8
CUT
10
225.0699
20
132.8678
0
SEQEND
0
POLYLINE
8
CUT
66
1
70
1
0
VERTEX
8
CUT
10
232.5706
20
111.7495
0
VERTEX
8
CUT
10
232.2821
20
111.1328
0
VERTEX
8
CUT
10
231.9890
20
110.5183
0
VERTEX
8
CUT
10
231.6913
20
109.9059
0
VERTEX
8
CUT
10
231.3890
20
109.2959
0
VERTEX
8
CUT
10
231.0822
20
108.6880
0
VERTEX
8
CUT
10
230.7708
20
108.0825
0
VERTEX
8
CUT
10
230.4549
20
107.4794
0
VERTEX
8
CUT
10
230.1346
20
106.8786
0
VERTEX
8
CUT
10
229.8097
20
106.2803
0
VERTEX
8
CUT
10
229.4803
20
105.6843
0
VERTEX
8
CUT
10
229.1465
20
105.0909
0
VERTEX
8
CUT
10
228.8083
20
104.5000
0
VERTEX
8
CUT
10
228.4657
20
103.9116
0
VERTEX
8
CUT
10
228.1186
20
103.3258
0
VERTEX
8
CUT
10
227.7672
20
102.7427
0
VERTEX
8
CUT
10
227.4115
20
102.1621
0
VERTEX
8
CUT
10
227.0514
20
101.5843
0
VERTEX
8
CUT
10
226.6870
20
101.0091
0
VERTEX
8
CUT
10
226.3183
20
100.4367
0
VERTEX
8
CUT
10
225.9453
20
99.8671
0
VERTEX
8
CUT
10
225.5681
20
99.3003
0
VERTEX
8
CUT
10
225.1867
20
98.7363
0
VERTEX
8
CUT
10
224.8010
20
98.1752
0
VERTEX
8
CUT
10
224.4112
20
97.6170
0
VERTEX
8
CUT
10
212.9633
20
105.6759
0
VERTEX
8
CUT
10
213.2932
20
106.1482
0
VERTEX
8
CUT
10
213.6195
20
106.6230
0
VERTEX
8
CUT
10
213.9423
20
107.1002
0
VERTEX
8
CUT
10
214.2614
20
107.5799
0
VERTEX
8
CUT
10
214.5770
20
108.0619
0
VERTEX
8
CUT
10
214.8890
20
108.5462
0
VERTEX
8
CUT
10
215.1973
20
109.0329
0
VERTEX
8
CUT
10
215.5020
20
109.5218
0
VERTEX
8
CUT
10
215.8031
20
110.0130
0
VERTEX
8
CUT
10
216.1004
20
110.5065
0
VERTEX
8
CUT
10
216.3940
20
111.0021
0
VERTEX
8
CUT
10
216.6840
20
111.5000
0
VERTEX
8
CUT
10
216.9701
20
112.0000
0
VERTEX
8
CUT
10
217.2526
20
112.5021
0
VERTEX
8
CUT
10
217.5313
20
113.0064
0
VERTEX
8
CUT
10
217.8062
20
113.5127
0
VERTEX
8
CUT
10
218.0773
20
114.0210
0
VERTEX
8
CUT
10
218.3445
20
114.5314
0
VERTEX
8
CUT
10
218.6080
20
115.0437
0
VERTEX
8
CUT
10
218.8676
20
115.5580
0
VERTEX
8
CUT
10
219.1234
20
116.0743
0
VERTEX
8
CUT
10
219.3753
20
116.5924
0
VERTEX
8
CUT
10
219.6233
20
117.1124
0
VERTEX
8
CUT
10
219.8674
20
117.6342
0
SEQEND
0
POLYLINE
8
CUT
66
1
70
1
0
VERTEX
8
CUT
10
222.8135
20
95.4180
0
VERTEX
8
CUT
10
222.4031
20
94.8748
0
VERTEX
8
CUT
10
221.9886
20
94.3346
0
VERTEX
8
CUT
10
221.5701
20
93.7975
0
VERTEX
8
CUT
10
221.1476
20
93.2636
0
VERTEX
8
CUT
10
220.7211
20
92.7329
0
VERTEX
8
CUT
10
220.2907
20
92.2053
0
VERTEX
8
CUT
10
219.8563
20
91.6810
0
VERTEX
8
CUT
10
219.4180
20
91.1600
0
VERTEX
8
CUT
10
218.9758
20
90.6423
0
VERTEX
8
CUT
10
218.5298
20
90.1279
0
VERTEX
8
CUT
10
218.0799
20
89.6168
0
VERTEX
8
CUT
10
217.6262
20
89.1091
0
VERTEX
8
CUT
10
217.1687
20
88.6048
0
VERTEX
8
CUT
10
216.7075
20
88.1040
0
VERTEX
8
CUT
10
216.2425
20
87.6066
0
VERTEX
8
CUT
10
215.7738
20
87.1128
0
VERTEX
8
CUT
10
215.3014
20
86.6224
0
VERTEX
8
CUT
10
214.8254
20
86.1356
0
VERTEX
8
CUT
10
214.3458
20
85.6523
0
VERTEX
8
CUT
10
213.8625
20
85.1727
0
VERTEX
8
CUT
10
213.3757
20
84.6967
0
VERTEX
8
CUT
10
212.8853
20
84.2244
0
VERTEX
8
CUT
10
212.3914
20
83.7557
0
VERTEX
8
CUT
10
211.8941
20
83.2907
0
VERTEX
8
CUT
10
202.3719
20
93.5537
0
VERTEX
8
CUT
10
202.7928
20
93.9471
0
VERTEX
8
CUT
10
203.2107
20
94.3437
0
VERTEX
8
CUT
10
203.6256
20
94.7434
0
VERTEX
8
CUT
10
204.0375
20
95.1461
0
VERTEX
8
CUT
10
204.4464
20
95.5520
0
VERTEX
8
CUT
10
204.8523
20
95.9609
0
VERTEX
8
CUT
10
205.2551
20
96.3728
0
VERTEX
8
CUT
10
205.6548
20
96.7877
0
VERTEX
8
CUT
10
206.0513
20
97.2056
0
VERTEX
8
CUT
10
206.4448
20
97.6265
0
VERTEX
8
CUT
10
206.8351
20
98.0503
0
VERTEX
8
CUT
10
207.2222
20
98.4769
0
VERTEX
8
CUT
10
207.6060
20
98.9065
0
VERTEX
8
CUT
10
207.9867
20
99.3390
0
VERTEX
8
CUT
10
208.3641
20
99.7742
0
VERTEX
8
CUT
10
208.7383
20
100.2123
0
VERTEX
8
CUT
10
209.1092
20
100.6532
0
VERTEX
8
CUT
10
209.4767
20
101.0968
0
VERTEX
8
CUT
10
209.8409
20
101.5432
0
VERTEX
8
CUT
10
210.2018
20
101.9923
0
VERTEX
8
CUT
10
210.5593
20
102.4441
0
VERTEX
8
CUT
10
210.9134
20
102.8985
0
VERTEX
8
CUT
10
211.2642
20
103.3556
0
VERTEX
8
CUT
10
211.6114
20
103.8152
0
SEQEND
0
POLYLINE
8
CUT
66
1
70
1
0
VERTEX
8
CUT
10
209.8741
20
81.4720
0
VERTEX
8
CUT
10
209.3597
20
81.0259
0
VERTEX
8
CUT
10
208.8420
20
80.5837
0
VERTEX
8
CUT
10
208.3210
20
80.1454
0
VERTEX
8
CUT
10
207.7967
20
79.7110
0
VERTEX
8
CUT
10
207.2692
20
79.2805
0
VERTEX
8
CUT
10
206.7385
20
78.8540
0
VERTEX
8
CUT
10
206.2046
20
78.4315
0
VERTEX
8
CUT
10
205.6675
20
78.0130
0
VERTEX
8
CUT
10
205.1273
20
77.5985
0
VERTEX
8
CUT
10
204.5841
20
77.1881
0
VERTEX
8
CUT
10
204.0378
20
76.7817
0
VERTEX
8
CUT
10
203.4885
20
76.3795
0
VERTEX
8
CUT
10
202.9361
20
75.9813
0
VERTEX
8
CUT
10
202.3808
20
75.5873
0
VERTEX
8
CUT
10
201.8226
20
75.1975
0
VERTEX
8
CUT
10
201.2615
20
74.8118
0
VERTEX
8
CUT
10
200.6975
20
74.4304
0
VERTEX
8
CUT
10
200.1307
20
74.0532
0
VERTEX
8
CUT
10
199.5610
20
73.6803
0
VERTEX
8
CUT
10
198.9886
20
73.3116
0
VERTEX
8
CUT
10
198.4135
20
72.9472
0
VERTEX
8
CUT
10
197.8356
20
72.5871
0
VERTEX
8
CUT
10
197.2551
20
72.2314
0
VERTEX
8
CUT
10
196.6719
20
71.8800
0
VERTEX
8
CUT
10
189.4916
20
83.8985
0
VERTEX
8
CUT
10
189.9851
20
84.1958
0
VERTEX
8
CUT
10
190.4763
20
84.4968
0
VERTEX
8
CUT
10
190.9653
20
84.8015
0
VERTEX
8
CUT
10
191.4519
20
85.1098
0
VERTEX
8
CUT
10
191.9363
20
85.4218
0
VERTEX
8
CUT
10
192.4183
20
85.7373
0
VERTEX
8
CUT
10
192.8979
20
86.0565
0
VERTEX
8
CUT
10
193.3751
20
86.3793
0
VERTEX
8
CUT
10
193.8499
20
86.7056
0
VERTEX
8
CUT
10
194.3223
20
87.0354
0
VERTEX
8
CUT
10
194.7921
20
87.3688
0
VERTEX
8
CUT
10
195.2595
20
87.7057
0
VERTEX
8
CUT
10
195.7243
20
88.0461
0
VERTEX
8
CUT
10
196.1865
20
88.3899
0
VERTEX
8
CUT
10
196.6462
20
88.7372
0
VERTEX
8
CUT
10
197.1033
20
89.0879
0
VERTEX
8
CUT
10
197.5577
20
89.4421
0
VERTEX
8
CUT
10
198.0095
20
89.7996
0
VERTEX
8
CUT
10
198.4585
20
90.1605
0
VERTEX
8
CUT
10
198.9049
20
90.5247
0
VERTEX
8
CUT
10
199.3485
20
90.8923
0
VERTEX
8
CUT
10
199.7894
20
91.2632
0
VERTEX
8
CUT
10
200.2275
20
91.6373
0
VERTEX
8
CUT
10
200.6627
20
92.0148
0
SEQEND
0
POLYLINE
8
CUT
66
1
70
1
0
VERTEX
8
CUT
10
194.3180
20
70.5210
0
VERTEX
8
CUT
10
193.7221
20
70.1916
0
VERTEX
8
CUT
10
193.1237
20
69.8667
0
VERTEX
8
CUT
10
192.5229
20
69.5463
0
VERTEX
8
CUT
10
191.9198
20
69.2304
0
VERTEX
8
CUT
10
191.3143
20
68.9190
0
VERTEX
8
CUT
10
190.7065
20
68.6122
0
VERTEX
8
CUT
10
190.0964
20
68.3099
0
VERTEX
8
CUT
10
189.4841
20
68.0122
0
VERTEX
8
CUT
10
188.8696
20
67.7190
0
VERTEX
8
CUT
10
188.2529
20
67.4305
0
VERTEX
8
CUT
10
187.6340
20
67.1466
0
VERTEX
8
CUT
10
187.0130
20
66.8674
0
VERTEX
8
CUT
10
186.3900
20
66.5928
0
VERTEX
8
CUT
10
185.7649
20
66.3228
0
VERTEX
8
CUT
10
185.1379
20
66.0576
0
VERTEX
8
CUT
10
184.5088
20
65.7970
0
VERTEX
8
CUT
10
183.8778
20
65.5412
0
VERTEX
8
CUT
10
183.2450
20
65.2901
0
VERTEX
8
CUT
10
182.6102
20
65.0437
0
VERTEX
8
CUT
10
181.9737
20
64.8021
0
VERTEX
8
CUT
10
181.3354
20
64.5653
0
VERTEX
8
CUT
10
180.6953
20
64.3332
0
VERTEX
8
CUT
10
180.0534
20
64.1059
0
VERTEX
8
CUT
10
179.4099
20
63.8835
0
VERTEX
8
CUT
10
174.8853
20
77.1322
0
VERTEX
8
CUT
10
175.4298
20
77.3204
0
VERTEX
8
CUT
10
175.9729
20
77.5127
0
VERTEX
8
CUT
10
176.5145
20
77.7091
0
VERTEX
8
CUT
10
177.0547
20
77.9095
0
VERTEX
8
CUT
10
177.5933
20
78.1139
0
VERTEX
8
CUT
10
178.1304
20
78.3224
0
VERTEX
8
CUT
10
178.6659
20
78.5348
0
VERTEX
8
CUT
10
179.1998
20
78.7513
0
VERTEX
8
CUT
10
179.7320
20
78.9718
0
VERTEX
8
CUT
10
180.2626
20
79.1962
0
VERTEX
8
CUT
10
180.7915
20
79.4246
0
VERTEX
8
CUT
10
181.3187
20
79.6570
0
VERTEX
8
CUT
10
181.8442
20
79.8933
0
VERTEX
8
CUT
10
182.3678
20
80.1335
0
VERTEX
8
CUT
10
182.8896
20
80.3776
0
VERTEX
8
CUT
10
183.4096
20
80.6257
0
VERTEX
8
CUT
10
183.9277
20
80.8776
0
VERTEX
8
CUT
10
184.4440
20
81.1334
0
VERTEX
8
CUT
10
184.9583
20
81.3930
0
VERTEX
8
CUT
10
185.4706
20
81.6565
0
VERTEX
8
CUT
10
185.9810
20
81.9238
0
VERTEX
8
CUT
10
186.4893
20
82.1949
0
VERTEX
8
CUT
10
186.9956
20
82.4698
0
VERTEX
8
CUT
10
187.4998
20
82.7485
0
SEQEND
0
POLYLINE
8
CUT
66
1
70
1
0
VERTEX
8
CUT
10
176.8249
20
63.0435
0
VERTEX
8
CUT
10
176.1735
20
62.8453
0
VERTEX
8
CUT
10
175.5207
20
62.6519
0
VERTEX
8
CUT
10
174.8665
20
62.4634
0
VERTEX
8
CUT
10
174.2108
20
62.2798
0
VERTEX
8
CUT
10
173.5538
20
62.1011
0
VERTEX
8
CUT
10
172.8955
20
61.9273
0
VERTEX
8
CUT
10
172.2359
20
61.7585
0
VERTEX
8
CUT
10
171.5750
20
61.5946
0
VERTEX
8
CUT
10
170.9130
20
61.4356
0
VERTEX
8
CUT
10
170.2498
20
61.2816
0
VERTEX
8
CUT
10
169.5854
20
61.1326
0
VERTEX
8
CUT
10
168.9200
20
60.9886
0
VERTEX
8
CUT
10
168.2535
20
60.8495
0
VERTEX
8
CUT
10
167.5859
20
60.7154
0
VERTEX
8
CUT
10
166.9174
20
60.5863
0
VERTEX
8
CUT
10
166.2479
20
60.4623
0
VERTEX
8
CUT
10
165.5776
20
60.3432
0
VERTEX
8
CUT
10
164.9063
20
60.2292
0
VERTEX
8
CUT
10
164.2342
20
60.1202
0
VERTEX
8
CUT
10
163.5614
20
60.0162
0
VERTEX
8
CUT
10
162.8877
20
59.9172
0
VERTEX
8
CUT
10
162.2134
20
59.8233
0
VERTEX
8
CUT
10
161.5383
20
59.7345
0
VERTEX
8
CUT
10
160.8626
20
59.6507
0
VERTEX
8
CUT
10
159.1915
20
73.5506
0
VERTEX
8
CUT
10
159.7632
20
73.6215
0
VERTEX
8
CUT
10
160.3344
20
73.6967
0
VERTEX
8
CUT
10
160.9050
20
73.7761
0
VERTEX
8
CUT
10
161.4750
20
73.8598
0
VERTEX
8
CUT
10
162.0443
20
73.9478
0
VERTEX
8
CUT
10
162.6130
20
74.0401
0
VERTEX
8
CUT
10
163.1810
20
74.1366
0
VERTEX
8
CUT
10
163.7483
20
74.2373
0
VERTEX
8
CUT
10
164.3147
20
74.3423
0
VERTEX
8
CUT
10
164.8804
20
74.4515
0
VERTEX
8
CUT
10
165.4452
20
74.5650
0
VERTEX
8
CUT
10
166.0092
20
74.6826
0
VERTEX
8
CUT
10
166.5723
20
74.8045
0
VERTEX
8
CUT
10
167.1344
20
74.9306
0
VERTEX
8
CUT
10
167.6956
20
75.0609
0
VERTEX
8
CUT
10
168.2558
20
75.1954
0
VERTEX
8
CUT
10
168.8150
20
75.3341
0
VERTEX
8
CUT
10
169.3731
20
75.4770
0
VERTEX
8
CUT
10
169.9301
20
75.6240
0
VERTEX
8
CUT
10
170.4861
20
75.7752
0
VERTEX
8
CUT
10
171.0408
20
75.9306
0
VERTEX
8
CUT
10
171.5944
20
76.0901
0
VERTEX
8
CUT
10
172.1468
20
76.2537
0
VERTEX
8
CUT
10
172.6980
20
76.4215
0
SEQEND
0
POLYLINE
8
CUT
66
1
70
1
0
VERTEX
8
CUT
10
158.1594
20
59.3665
0
VERTEX
8
CUT
10
157.4811
20
59.3080
0
VERTEX
8
CUT
10
156.8023
20
59.2546
0
VERTEX
8
CUT
10
156.1232
20
59.2062
0
VERTEX
8
CUT
10
155.4437
20
59.1630
0
VERTEX
8
CUT
10
154.7639
20
59.1248
0
VERTEX
8
CUT
10
154.0838
20
59.0917
0
VERTEX
8
CUT
10
153.4035
20
59.0637
0
VERTEX
8
CUT
10
152.7231
20
59.0408
0
VERTEX
8
CUT
10
152.0424
20
59.0229
0
VERTEX
8
CUT
10
151.3617
20
59.0102
0
VERTEX
8
CUT
10
150.6809
20
59.0025
0
VERTEX
8
CUT
10
150.0000
20
59.0000
0
VERTEX
8
CUT
10
149.3191
20
59.0025
0
VERTEX
8
CUT
10
148.6383
20
59.0102
0
VERTEX
8
CUT
10
147.9576
20
59.0229
0
VERTEX
8
CUT
10
147.2769
20
59.0408
0
VERTEX
8
CUT
10
146.5965
20
59.0637
0
VERTEX
8
CUT
10
145.9162
20
59.0917
0
VERTEX
8
CUT
10
145.2361
20
59.1248
0
VERTEX
8
CUT
10
144.5563
20
59.1630
0
VERTEX
8
CUT
10
143.8768
20
59.2062
0
VERTEX
8
CUT
10
143.1977
20
59.2546
0
VERTEX
8
CUT
10
142.5189
20
59.3080
0
VERTEX
8
CUT
10
141.8406
20
59.3665
0
VERTEX
8
CUT
10
143.0959
20
73.3102
0
VERTEX
8
CUT
10
143.6698
20
73.2606
0
VERTEX
8
CUT
10
144.2442
20
73.2154
0
VERTEX
8
CUT
10
144.8189
20
73.1745
0
VERTEX
8
CUT
10
145.3938
20
73.1379
0
VERTEX
8
CUT
10
145.9690
20
73.1056
0
VERTEX
8
CUT
10
146.5445
20
73.0776
0
VERTEX
8
CUT
10
147.1201
20
73.0539
0
VERTEX
8
CUT
10
147.6959
20
73.0345
0
VERTEX
8
CUT
10
148.2718
20
73.0194
0
VERTEX
8
CUT
10
148.8478
20
73.0086
0
VERTEX
8
CUT
10
149.4239
20
73.0022
0
VERTEX
8
CUT
10
150.0000
20
73.0000
0
VERTEX
8
CUT
10
150.5761
20
73.0022
0
VERTEX
8
CUT
10
151.1522
20
73.0086
0
VERTEX
8
CUT
10
151.7282
20
73.0194
0
VERTEX
8
CUT
10
152.3041
20
73.0345
0
VERTEX
8
CUT
10
152.8799
20
73.0539
0
VERTEX
8
CUT
10
153.4555
20
73.0776
0
VERTEX
8
CUT
10
154.0310
20
73.1056
0
VERTEX
8
CUT
10
154.6062
20
73.1379
0
VERTEX
8
CUT
10
155.1811
20
73.1745
0
VERTEX
8
CUT
10
155.7558
20
73.2154
0
VERTEX
8
CUT
10
156.3302
20
73.2606
0
VERTEX
8
CUT
10
156.9041
20
73.3102
0
SEQEND
0
POLYLINE
8
CUT
66
1
70
1
0
VERTEX
8
CUT
10
139.1374
20
59.6507
0
VERTEX
8
CUT
10
138.4617
20
59.7345
0
VERTEX
8
CUT
10
137.7866
20
59.8233
0
VERTEX
8
CUT
10
137.1123
20
59.9172
0
VERTEX
8
CUT
10
136.4386
20
60.0162
0
VERTEX
8
CUT
10
135.7658
20
60.1202
0
VERTEX
8
CUT
10
135.0937
20
60.2292
0
VERTEX
8
CUT
10
134.4224
20
60.3432
0
VERTEX
8
CUT
10
133.7521
20
60.4623
0
VERTEX
8
CUT
10
133.0826
20
60.5863
0
VERTEX
8
CUT
10
132.4141
20
60.7154
0
VERTEX
8
CUT
10
131.7465
20
60.8495
0
VERTEX
8
CUT
10
131.0800
20
60.9886
0
VERTEX
8
CUT
10
130.4146
20
61.1326
0
VERTEX
8
CUT
10
129.7502
20
61.2816
0
VERTEX
8
CUT
10
129.0870
20
61.4356
0
VERTEX
8
CUT
10
128.4250
20
61.5946
0
VERTEX
8
CUT
10
127.7641
20
61.7585
0
VERTEX
8
CUT
10
127.1045
20
61.9273
0
VERTEX
8
CUT
10
126.4462
20
62.1011
0
VERTEX
8
CUT
10
125.7892
20
62.2798
0
VERTEX
8
CUT
10
125.1335
20
62.4634
0
VERTEX
8
CUT
10
124.4793
20
62.6519
0
VERTEX
8
CUT
10
123.8265
20
62.8453
0
VERTEX
8
CUT
10
123.1751
20
63.0435
0
VERTEX
8
CUT
10
127.3020
20
76.4215
0
VERTEX
8
CUT
10
127.8532
20
76.2537
0
VERTEX
8
CUT
10
128.4056
20
76.0901
0
VERTEX
8
CUT
10
128.9592
20
75.9306
0
VERTEX
8
CUT
10
129.5139
20
75.7752
0
VERTEX
8
CUT
10
130.0699
20
75.6240
0
VERTEX
8
CUT
10
130.6269
20
75.4770
0
VERTEX
8
CUT
10
131.1850
20
75.3341
0
VERTEX
8
CUT
10
131.7442
20
75.1954
0
VERTEX
8
CUT
10
132.3044
20
75.0609
0
VERTEX
8
CUT
10
132.8656
20
74.9306
0
VERTEX
8
CUT
10
133.4277
20
74.8045
0
VERTEX
8
CUT
10
133.9908
20
74.6826
0
VERTEX
8
CUT
10
134.5548
20
74.5650
0
VERTEX
8
CUT
10
135.1196
20
74.4515
0
VERTEX
8
CUT
10
135.6853
20
74.3423
0
VERTEX
8
CUT
10
136.2517
20
74.2373
0
VERTEX
8
CUT
10
136.8190
20
74.1366
0
VERTEX
8
CUT
10
137.3870
20
74.0401
0
VERTEX
8
CUT
10
137.9557
20
73.9478
0
VERTEX
8
CUT
10
138.5250
20
73.8598
0
VERTEX
8
CUT
10
139.0950
20
73.7761
0
VERTEX
8
CUT
10
139.6656
20
73.6967
0
VERTEX
8
CUT
10
140.2368
20
73.6215
0
VERTEX
8
CUT
10
140.8085
20
73.5506
0
SEQEND
0
POLYLINE
8
CUT
66
1
70
1
0
VERTEX
8
CUT
10
120.5901
20
63.8835
0
VERTEX
8
CUT
10
119.9466
20
64.1059
0
VERTEX
8
CUT
10
119.3047
20
64.3332
0
VERTEX
8
CUT
10
118.6646
20
64.5653
0
VERTEX
8
CUT
10
118.0263
20
64.8021
0
VERTEX
8
CUT
10
117.3898
20
65.0437
0
VERTEX
8
CUT
10
116.7550
20
65.2901
0
VERTEX
8
CUT
10
116.1222
20
65.5412
0
VERTEX
8
CUT
10
115.4912
20
65.7970
0
VERTEX
8
CUT
10
114.8621
20
66.0576
0
VERTEX
8
CUT
10
114.2351
20
66.3228
0
VERTEX
8
CUT
10
113.6100
20
66.5928
0
VERTEX
8
CUT
10
112.9870
20
66.8674
0
VERTEX
8
CUT
10
112.3660
20
67.1466
0
VERTEX
8
CUT
10
111.7471
20
67.4305
0
VERTEX
8
CUT
10
111.1304
20
67.7190
0
VERTEX
8
CUT
10
110.5159
20
68.0122
0
VERTEX
8
CUT
10
109.9036
20
68.3099
0
VERTEX
8
CUT
10
109.2935
20
68.6122
0
VERTEX
8
CUT
10
108.6857
20
68.9190
0
VERTEX
8
CUT
10
108.0802
20
69.2304
0
VERTEX
8
CUT
10
107.4771
20
69.5463
0
VERTEX
8
CUT
10
106.8763
20
69.8667
0
VERTEX
8
CUT
10
106.2779
20
70.1916
0
VERTEX
8
CUT
10
105.6820
20
70.5210
0
VERTEX
8
CUT
10
112.5002
20
82.7485
0
VERTEX
8
CUT
10
113.0044
20
82.4698
0
VERTEX
8
CUT
10
113.5107
20
82.1949
0
VERTEX
8
CUT
10
114.0190
20
81.9238
0
VERTEX
8
CUT
10
114.5294
20
81.6565
0
VERTEX
8
CUT
10
115.0417
20
81.3930
0
VERTEX
8
CUT
10
115.5560
20
81.1334
0
VERTEX
8
CUT
10
116.0723
20
80.8776
0
VERTEX
8
CUT
10
116.5904
20
80.6257
0
VERTEX
8
CUT
10
117.1104
20
80.3776
0
VERTEX
8
CUT
10
117.6322
20
80.1335
0
VERTEX
8
CUT
10
118.1558
20
79.8933
0
VERTEX
8
CUT
10
118.6813
20
79.6570
0
VERTEX
8
CUT
10
119.2085
20
79.4246
0
VERTEX
8
CUT
10
119.7374
20
79.1962
0
VERTEX
8
CUT
10
120.2680
20
78.9718
0
VERTEX
8
CUT
10
120.8002
20
78.7513
0
VERTEX
8
CUT
10
121.3341
20
78.5348
0
VERTEX
8
CUT
10
121.8696
20
78.3224
0
VERTEX
8
CUT
10
122.4067
20
78.1139
0
VERTEX
8
CUT
10
122.9453
20
77.9095
0
VERTEX
8
CUT
10
123.4855
20
77.7091
0
VERTEX
8
CUT
10
124.0271
20
77.5127
0
VERTEX
8
CUT
10
124.5702
20
77.3204
0
VERTEX
8
CUT
10
125.1147
20
77.1322
0
SEQEND
0
POLYLINE
8
CUT
66
1
70
1
0
VERTEX
8
CUT
10
103.3281
20
71.8800
0
VERTEX
8
CUT
10
102.7449
20
72.2314
0
VERTEX
8
CUT
10
102.1644
20
72.5871
0
VERTEX
8
CUT
10
101.5865
20
72.9472
0
VERTEX
8
CUT
10
101.0114
20
73.3116
0
VERTEX
8
CUT
10
100.4390
20
73.6803
0
VERTEX
8
CUT
10
99.8693
20
74.0532
0
VERTEX
8
CUT
10
99.3025
20
74.4304
0
VERTEX
8
CUT
10
98.7385
20
74.8118
0
VERTEX
8
CUT
10
98.1774
20
75.1975
0
VERTEX
8
CUT
10
97.6192
20
75.5873
0
VERTEX
8
CUT
10
97.0639
20
75.9813
0
VERTEX
8
CUT
10
96.5115
20
76.3795
0
VERTEX
8
CUT
10
95.9622
20
76.7817
0
VERTEX
8
CUT
10
95.4159
20
77.1881
0
VERTEX
8
CUT
10
94.8727
20
77.5985
0
VERTEX
8
CUT
10
94.3325
20
78.0130
0
VERTEX
8
CUT
10
93.7954
20
78.4315
0
VERTEX
8
CUT
10
93.2615
20
78.8540
0
VERTEX
8
CUT
10
92.7308
20
79.2805
0
VERTEX
8
CUT
10
92.2033
20
79.7110
0
VERTEX
8
CUT
10
91.6790
20
80.1454
0
VERTEX
8
CUT
10
91.1580
20
80.5837
0
VERTEX
8
CUT
10
90.6403
20
81.0259
0
VERTEX
8
CUT
10
90.1259
20
81.4720
0
VERTEX
8
CUT
10
99.3373
20
92.0148
0
VERTEX
8
CUT
10
99.7725
20
91.6373
0
VERTEX
8
CUT
10
100.2106
20
91.2632
0
VERTEX
8
CUT
10
100.6515
20
90.8923
0
VERTEX
8
CUT
10
101.0951
20
90.5247
0
VERTEX
8
CUT
10
101.5415
20
90.1605
0
VERTEX
8
CUT
10
101.9905
20
89.7996
0
VERTEX
8
CUT
10
102.4423
20
89.4421
0
VERTEX
8
CUT
10
102.8967
20
89.0879
0
VERTEX
8
CUT
10
103.3538
20
88.7372
0
VERTEX
8
CUT
10
103.8135
20
88.3899
0
VERTEX
8
CUT
10
104.2757
20
88.0461
0
VERTEX
8
CUT
10
104.7405
20
87.7057
0
VERTEX
8
CUT
10
105.2079
20
87.3688
0
VERTEX
8
CUT
10
105.6777
20
87.0354
0
VERTEX
8
CUT
10
106.1501
20
86.7056
0
VERTEX
8
CUT
10
106.6249
20
86.3793
0
VERTEX
8
CUT
10
107.1021
20
86.0565
0
VERTEX
8
CUT
10
107.5817
20
85.7373
0
VERTEX
8
CUT
10
108.0637
20
85.4218
0
VERTEX
8
CUT
10
108.5481
20
85.1098
0
VERTEX
8
CUT
10
109.0347
20
84.8015
0
VERTEX
8
CUT
10
109.5237
20
84.4968
0
VERTEX
8
CUT
10
110.0149
20
84.1958
0
VERTEX
8
CUT
10
110.5084
20
83.8985
0
SEQEND
0
POLYLINE
8
CUT
66
1
70
1
0
VERTEX
8
CUT
10
88.1059
20
83.2907
0
VERTEX
8
CUT
10
87.6086
20
83.7557
0
VERTEX
8
CUT
10
87.1147
20
84.2244
0
VERTEX
8
CUT
10
86.6243
20
84.6967
0
VERTEX
8
CUT
10
86.1375
20
85.1727
0
VERTEX
8
CUT
10
85.6542
20
85.6523
0
VERTEX
8
CUT
10
85.1746
20
86.1356
0
VERTEX
8
CUT
10
84.6986
20
86.6224
0
VERTEX
8
CUT
10
84.2262
20
87.1128
0
VERTEX
8
CUT
10
83.7575
20
87.6066
0
VERTEX
8
CUT
10
83.2925
20
88.1040
0
VERTEX
8
CUT
10
82.8313
20
88.6048
0
VERTEX
8
CUT
10
82.3738
20
89.1091
0
VERTEX
8
CUT
10
81.9201
20
89.6168
0
VERTEX
8
CUT
10
81.4702
20
90.1279
0
VERTEX
8
CUT
10
81.0242
20
90.6423
0
VERTEX
8
CUT
10
80.5820
20
91.1600
0
VERTEX
8
CUT
10
80.1437
20
91.6810
0
VERTEX
8
CUT
10
79.7093
20
92.2053
0
VERTEX
8
CUT
10
79.2789
20
92.7329
0
VERTEX
8
CUT
10
78.8524
20
93.2636
0
VERTEX
8
CUT
10
78.4299
20
93.7975
0
VERTEX
8
CUT
10
78.0114
20
94.3346
0
VERTEX
8
CUT
10
77.5969
20
94.8748
0
VERTEX
8
CUT
10
77.1865
20
95.4180
0
VERTEX
8
CUT
10
88.3886
20
103.8152
0
VERTEX
8
CUT
10
88.7358
20
103.3556
0
VERTEX
8
CUT
10
89.0866
20
102.8985
0
VERTEX
8
CUT
10
89.4407
20
102.4441
0
VERTEX
8
CUT
10
89.7982
20
101.9923
0
VERTEX
8
CUT
10
90.1591
20
101.5432
0
VERTEX
8
CUT
10
90.5233
20
101.0968
0
VERTEX
8
CUT
10
90.8908
20
100.6532
0
VERTEX
8
CUT
10
91.2617
20
100.2123
0
VERTEX
8
CUT
10
91.6359
20
99.7742
0
VERTEX
8
CUT
10
92.0133
20
99.3390
0
VERTEX
8
CUT
10
92.3940
20
98.9065
0
VERTEX
8
CUT
10
92.7778
20
98.4769
0
VERTEX
8
CUT
10
93.1649
20
98.0503
0
VERTEX
8
CUT
10
93.5552
20
97.6265
0
VERTEX
8
CUT
10
93.9487
20
97.2056
0
VERTEX
8
CUT
10
94.3452
20
96.7877
0
VERTEX
8
CUT
10
94.7449
20
96.3728
0
VERTEX
8
CUT
10
95.1477
20
95.9609
0
VERTEX
8
CUT
10
95.5536
20
95.5520
0
VERTEX
8
CUT
10
95.9625
20
95.1461
0
VERTEX
8
CUT
10
96.3744
20
94.7434
0
VERTEX
8
CUT
10
96.7893
20
94.3437
0
VERTEX
8
CUT
10
97.2072
20
93.9471
0
VERTEX
8
CUT
10
97.6281
20
93.5537
0
SEQEND
0
POLYLINE
8
CUT
66
1
70
1
0
VERTEX
8
CUT
10
75.5888
20
97.6170
0
VERTEX
8
CUT
10
75.1990
20
98.1752
0
VERTEX
8
CUT
10
74.8133
20
98.7363
0
VERTEX
8
CUT
10
74.4319
20
99.3003
0
VERTEX
8
CUT
10
74.0547
20
99.8671
0
VERTEX
8
CUT
10
73.6817
20
100.4367
0
VERTEX
8
CUT
10
73.3130
20
101.0091
0
VERTEX
8
CUT
10
72.9486
20
101.5843
0
VERTEX
8
CUT
10
72.5885
20
102.1621
0
VERTEX
8
CUT
10
72.2328
20
102.7427
0
VERTEX
8
CUT
10
71.8814
20
103.3258
0
VERTEX
8
CUT
10
71.5343
20
103.9116
0
VERTEX
8
CUT
10
71.1917
20
104.5000
0
VERTEX
8
CUT
10
70.8535
20
105.0909
0
VERTEX
8
CUT
10
70.5197
20
105.6843
0
VERTEX
8
CUT
10
70.1903
20
106.2803
0
VERTEX
8
CUT
10
69.8654
20
106.8786
0
VERTEX
8
CUT
10
69.5451
20
107.4794
0
VERTEX
8
CUT
10
69.2292
20
108.0825
0
VERTEX
8
CUT
10
68.9178
20
108.6880
0
VERTEX
8
CUT
10
68.6110
20
109.2959
0
VERTEX
8
CUT
10
68.3087
20
109.9059
0
VERTEX
8
CUT
10
68.0110
20
110.5183
0
VERTEX
8
CUT
10
67.7179
20
111.1328
0
VERTEX
8
CUT
10
67.4294
20
111.7495
0
VERTEX
8
CUT
10
80.1326
20
117.6342
0
VERTEX
8
CUT
10
80.3767
20
117.1124
0
VERTEX
8
CUT
10
80.6247
20
116.5924
0
VERTEX
8
CUT
10
80.8766
20
116.0743
0
VERTEX
8
CUT
10
81.1324
20
115.5580
0
VERTEX
8
CUT
10
81.3920
20
115.0437
0
VERTEX
8
CUT
10
81.6555
20
114.5314
0
VERTEX
8
CUT
10
81.9227
20
114.0210
0
VERTEX
8
CUT
10
82.1938
20
113.5127
0
VERTEX
8
CUT
10
82.4687
20
113.0064
0
VERTEX
8
CUT
10
82.7474
20
112.5021
0
VERTEX
8
CUT
10
83.0299
20
112.0000
0
VERTEX
8
CUT
10
83.3160
20
111.5000
0
VERTEX
8
CUT
10
83.6060
20
111.0021
0
VERTEX
8
CUT
10
83.8996
20
110.5065
0
VERTEX
8
CUT
10
84.1969
20
110.0130
0
VERTEX
8
CUT
10
84.4980
20
109.5218
0
VERTEX
8
CUT
10
84.8027
20
109.0329
0
VERTEX
8
CUT
10
85.1110
20
108.5462
0
VERTEX
8
CUT
10
85.4230
20
108.0619
0
VERTEX
8
CUT
10
85.7386
20
107.5799
0
VERTEX
8
CUT
10
86.0577
20
107.1002
0
VERTEX
8
CUT
10
86.3805
20
106.6230
0
VERTEX
8
CUT
10
86.7068
20
106.1482
0
VERTEX
8
CUT
10
87.0367
20
105.6759
0
SEQEND
0
POLYLINE
8
CUT
66
1
70
1
0
VERTEX
8
CUT
10
66.3239
20
114.2326
0
VERTEX
8
CUT
10
66.0586
20
114.8597
0
VERTEX
8
CUT
10
65.7980
20
115.4887
0
VERTEX
8
CUT
10
65.5422
20
116.1197
0
VERTEX
8
CUT
10
65.2910
20
116.7526
0
VERTEX
8
CUT
10
65.0447
20
117.3873
0
VERTEX
8
CUT
10
64.8030
20
118.0238
0
VERTEX
8
CUT
10
64.5662
20
118.6622
0
VERTEX
8
CUT
10
64.3341
20
119.3023
0
VERTEX
8
CUT
10
64.1068
20
119.9441
0
VERTEX
8
CUT
10
63.8843
20
120.5876
0
VERTEX
8
CUT
10
63.6667
20
121.2327
0
VERTEX
8
CUT
10
63.4539
20
121.8795
0
VERTEX
8
CUT
10
63.2459
20
122.5278
0
VERTEX
8
CUT
10
63.0428
20
123.1776
0
VERTEX
8
CUT
10
62.8445
20
123.8290
0
VERTEX
8
CUT
10
62.6511
20
124.4818
0
VERTEX
8
CUT
10
62.4627
20
125.1361
0
VERTEX
8
CUT
10
62.2791
20
125.7917
0
VERTEX
8
CUT
10
62.1004
20
126.4487
0
VERTEX
8
CUT
10
61.9267
20
127.1071
0
VERTEX
8
CUT
10
61.7578
20
127.7667
0
VERTEX
8
CUT
10
61.5940
20
128.4275
0
VERTEX
8
CUT
10
61.4350
20
129.0896
0
VERTEX
8
CUT
10
61.2811
20
129.7528
0
VERTEX
8
CUT
10
74.9301
20
132.8678
0
VERTEX
8
CUT
10
75.0604
20
132.3066
0
VERTEX
8
CUT
10
75.1949
20
131.7464
0
VERTEX
8
CUT
10
75.3336
20
131.1872
0
VERTEX
8
CUT
10
75.4764
20
130.6291
0
VERTEX
8
CUT
10
75.6234
20
130.0720
0
VERTEX
8
CUT
10
75.7746
20
129.5161
0
VERTEX
8
CUT
10
75.9299
20
128.9613
0
VERTEX
8
CUT
10
76.0894
20
128.4077
0
VERTEX
8
CUT
10
76.2530
20
127.8553
0
VERTEX
8
CUT
10
76.4208
20
127.3042
0
VERTEX
8
CUT
10
76.5927
20
126.7543
0
VERTEX
8
CUT
10
76.7686
20
126.2057
0
VERTEX
8
CUT
10
76.9487
20
125.6584
0
VERTEX
8
CUT
10
77.1329
20
125.1126
0
VERTEX
8
CUT
10
77.3211
20
124.5681
0
VERTEX
8
CUT
10
77.5135
20
124.0250
0
VERTEX
8
CUT
10
77.7098
20
123.4834
0
VERTEX
8
CUT
10
77.9103
20
122.9432
0
VERTEX
8
CUT
10
78.1147
20
122.4046
0
VERTEX
8
CUT
10
78.3232
20
121.8676
0
VERTEX
8
CUT
10
78.5357
20
121.3321
0
VERTEX
8
CUT
10
78.7522
20
120.7982
0
VERTEX
8
CUT
10
78.9727
20
120.2659
0
VERTEX
8
CUT
10
79.1971
20
119.7353
0
SEQEND
0
POLYLINE
8
CUT
66
1
70
1
0
VERTEX
8
CUT
10
60.7159
20
132.4115
0
VERTEX
8
CUT
10
60.5868
20
133.0800
0
VERTEX
8
CUT
10
60.4627
20
133.7495
0
VERTEX
8
CUT
10
60.3437
20
134.4198
0
VERTEX
8
CUT
10
60.2296
20
135.0911
0
VERTEX
8
CUT
10
60.1206
20
135.7632
0
VERTEX
8
CUT
10
60.0166
20
136.4360
0
VERTEX
8
CUT
10
59.9176
20
137.1097
0
VERTEX
8
CUT
10
59.8237
20
137.7840
0
VERTEX
8
CUT
10
59.7348
20
138.4591
0
VERTEX
8
CUT
10
59.6510
20
139.1348
0
VERTEX
8
CUT
10
59.5722
20
139.8110
0
VERTEX
8
CUT
10
59.4985
20
140.4879
0
VERTEX
8
CUT
10
59.4299
20
141.1653
0
VERTEX
8
CUT
10
59.3663
20
141.8432
0
VERTEX
8
CUT
10
59.3078
20
142.5215
0
VERTEX
8
CUT
10
59.2544
20
143.2003
0
VERTEX
8
CUT
10
59.2061
20
143.8795
0
VERTEX
8
CUT
10
59.1628
20
144.5590
0
VERTEX
8
CUT
10
59.1246
20
145.2387
0
VERTEX
8
CUT
10
59.0916
20
145.9188
0
VERTEX
8
CUT
10
59.0636
20
146.5991
0
VERTEX
8
CUT
10
59.0407
20
147.2796
0
VERTEX
8
CUT
10
59.0229
20
147.9602
0
VERTEX
8
CUT
10
59.0101
20
148.6410
0
VERTEX
8
CUT
10
73.0086
20
148.8500
0
VERTEX
8
CUT
10
73.0193
20
148.2740
0
VERTEX
8
CUT
10
73.0344
20
147.6981
0
VERTEX
8
CUT
10
73.0538
20
147.1223
0
VERTEX
8
CUT
10
73.0775
20
146.5467
0
VERTEX
8
CUT
10
73.1055
20
145.9712
0
VERTEX
8
CUT
10
73.1378
20
145.3960
0
VERTEX
8
CUT
10
73.1744
20
144.8211
0
VERTEX
8
CUT
10
73.2153
20
144.2464
0
VERTEX
8
CUT
10
73.2605
20
143.6721
0
VERTEX
8
CUT
10
73.3100
20
143.0981
0
VERTEX
8
CUT
10
73.3637
20
142.5245
0
VERTEX
8
CUT
10
73.4218
20
141.9513
0
VERTEX
8
CUT
10
73.4842
20
141.3786
0
VERTEX
8
CUT
10
73.5508
20
140.8063
0
VERTEX
8
CUT
10
73.6218
20
140.2346
0
VERTEX
8
CUT
10
73.6970
20
139.6634
0
VERTEX
8
CUT
10
73.7764
20
139.0928
0
VERTEX
8
CUT
10
73.8602
20
138.5228
0
VERTEX
8
CUT
10
73.9482
20
137.9534
0
VERTEX
8
CUT
10
74.0404
20
137.3848
0
VERTEX
8
CUT
10
74.1369
20
136.8168
0
VERTEX
8
CUT
10
74.2377
20
136.2495
0
VERTEX
8
CUT
10
74.3427
20
135.6831
0
VERTEX
8
CUT
10
74.4519
20
135.1174
0
SEQEND
0
POLYLINE
8
CUT
66
1
70
1
0
VERTEX
8
CUT
10
59.0101
20
151.3590
0
VERTEX
8
CUT
10
59.0229
20
152.0398
0
VERTEX
8
CUT
10
59.0407
20
152.7204
0
VERTEX
8
CUT
10
59.0636
20
153.4009
0
VERTEX
8
CUT
10
59.0916
20
154.0812
0
VERTEX
8
CUT
10
59.1246
20
154.7613
0
VERTEX
8
CUT
10
59.1628
20
155.4410
0
VERTEX
8
CUT
10
59.2061
20
156.1205
0
VERTEX
8
CUT
10
59.2544
20
156.7997
0
VERTEX
8
CUT
10
59.3078
20
157.4785
0
VERTEX
8
CUT
10
59.3663
20
158.1568
0
VERTEX
8
CUT
10
59.4299
20
158.8347
0
VERTEX
8
CUT
10
59.4985
20
159.5121
0
VERTEX
8
CUT
10
59.5722
20
160.1890
0
VERTEX
8
CUT
10
59.6510
20
160.8652
0
VERTEX
8
CUT
10
59.7348
20
161.5409
0
VERTEX
8
CUT
10
59.8237
20
162.2160
0
VERTEX
8
CUT
10
59.9176
20
162.8903
0
VERTEX
8
CUT
10
60.0166
20
163.5640
0
VERTEX
8
CUT
10
60.1206
20
164.2368
0
VERTEX
8
CUT
10
60.2296
20
164.9089
0
VERTEX
8
CUT
10
60.3437
20
165.5802
0
VERTEX
8
CUT
10
60.4627
20
166.2505
0
VERTEX
8
CUT
10
60.5868
20
166.9200
0
VERTEX
8
CUT
10
60.7159
20
167.5885
0
VERTEX
8
CUT
10
74.4519
20
164.8826
0
VERTEX
8
CUT
10
74.3427
20
164.3169
0
VERTEX
8
CUT
10
74.2377
20
163.7505
0
VERTEX
8
CUT
10
74.1369
20
163.1832
0
VERTEX
8
CUT
10
74.0404
20
162.6152
0
VERTEX
8
CUT
10
73.9482
20
162.0466
0
VERTEX
8
CUT
10
73.8602
20
161.4772
0
VERTEX
8
CUT
10
73.7764
20
160.9072
0
VERTEX
8
CUT
10
73.6970
20
160.3366
0
VERTEX
8
CUT
10
73.6218
20
159.7654
0
VERTEX
8
CUT
10
73.5508
20
159.1937
0
VERTEX
8
CUT
10
73.4842
20
158.6214
0
VERTEX
8
CUT
10
73.4218
20
158.0487
0
VERTEX
8
CUT
10
73.3637
20
157.4755
0
VERTEX
8
CUT
10
73.3100
20
156.9019
0
VERTEX
8
CUT
10
73.2605
20
156.3279
0
VERTEX
8
CUT
10
73.2153
20
155.7536
0
VERTEX
8
CUT
10
73.1744
20
155.1789
0
VERTEX
8
CUT
10
73.1378
20
154.6040
0
VERTEX
8
CUT
10
73.1055
20
154.0288
0
VERTEX
8
CUT
10
73.0775
20
153.4533
0
VERTEX
8
CUT
10
73.0538
20
152.8777
0
VERTEX
8
CUT
10
73.0344
20
152.3019
0
VERTEX
8
CUT
10
73.0193
20
151.7260
0
VERTEX
8
CUT
10
73.0086
20
151.1500
0
SEQEND
0
POLYLINE
8
CUT
66
1
70
1
0
VERTEX
8
CUT
10
61.2811
20
170.2472
0
VERTEX
8
CUT
10
61.4350
20
170.9104
0
VERTEX
8
CUT
10
61.5940
20
171.5725
0
VERTEX
8
CUT
10
61.7578
20
172.2333
0
VERTEX
8
CUT
10
61.9267
20
172.8929
0
VERTEX
8
CUT
10
62.1004
20
173.5513
0
VERTEX
8
CUT
10
62.2791
20
174.2083
0
VERTEX
8
CUT
10
62.4627
20
174.8639
0
VERTEX
8
CUT
10
62.6511
20
175.5182
0
VERTEX
8
CUT
10
62.8445
20
176.1710
0
VERTEX
8
CUT
10
63.0428
20
176.8224
0
VERTEX
8
CUT
10
63.2459
20
177.4722
0
VERTEX
8
CUT
10
63.4539
20
178.1205
0
VERTEX
8
CUT
10
63.6667
20
178.7673
0
VERTEX
8
CUT
10
63.8843
20
179.4124
0
VERTEX
8
CUT
10
64.1068
20
180.0559
0
VERTEX
8
CUT
10
64.3341
20
180.6977
0
VERTEX
8
CUT
10
64.5662
20
181.3378
0
VERTEX
8
CUT
10
64.8030
20
181.9762
0
VERTEX
8
CUT
10
65.0447
20
182.6127
0
VERTEX
8
CUT
10
65.2910
20
183.2474
0
VERTEX
8
CUT
10
65.5422
20
183.8803
0
VERTEX
8
CUT
10
65.7980
20
184.5113
0
VERTEX
8
CUT
10
66.0586
20
185.1403
0
VERTEX
8
CUT
10
66.3239
20
185.7674
0
VERTEX
8
CUT
10
79.1971
20
180.2647
0
VERTEX
8
CUT
10
78.9727
20
179.7341
0
VERTEX
8
CUT
10
78.7522
20
179.2018
0
VERTEX
8
CUT
10
78.5357
20
178.6679
0
VERTEX
8
CUT
10
78.3232
20
178.1324
0
VERTEX
8
CUT
10
78.1147
20
177.5954
0
VERTEX
8
CUT
10
77.9103
20
177.0568
0
VERTEX
8
CUT
10
77.7098
20
176.5166
0
VERTEX
8
CUT
10
77.5135
20
175.9750
0
VERTEX
8
CUT
10
77.3211
20
175.4319
0
VERTEX
8
CUT
10
77.1329
20
174.8874
0
VERTEX
8
CUT
10
76.9487
20
174.3416
0
VERTEX
8
CUT
10
76.7686
20
173.7943
0
VERTEX
8
CUT
10
76.5927
20
173.2457
0
VERTEX
8
CUT
10
76.4208
20
172.6958
0
VERTEX
8
CUT
10
76.2530
20
172.1447
0
VERTEX
8
CUT
10
76.0894
20
171.5923
0
VERTEX
8
CUT
10
75.9299
20
171.0387
0
VERTEX
8
CUT
10
75.7746
20
170.4839
0
VERTEX
8
CUT
10
75.6234
20
169.9280
0
VERTEX
8
CUT
10
75.4764
20
169.3709
0
VERTEX
8
CUT
10
75.3336
20
168.8128
0
VERTEX
8
CUT
10
75.1949
20
168.2536
0
VERTEX
8
CUT
10
75.0604
20
167.6934
0
VERTEX
8
CUT
10
74.9301
20
167.1322
0
SEQEND
0
POLYLINE
8
CUT
66
1
70
1
0
VERTEX
8
CUT
10
67.4294
20
188.2505
0
VERTEX
8
CUT
10
67.7179
20
188.8672
0
VERTEX
8
CUT
10
68.0110
20
189.4817
0
VERTEX
8
CUT
10
68.3087
20
190.0941
0
VERTEX
8
CUT
10
68.6110
20
190.7041
0
VERTEX
8
CUT
10
68.9178
20
191.3120
0
VERTEX
8
CUT
10
69.2292
20
191.9175
0
VERTEX
8
CUT
10
69.5451
20
192.5206
0
VERTEX
8
CUT
10
69.8654
20
193.1214
0
VERTEX
8
CUT
10
70.1903
20
193.7197
0
VERTEX
8
CUT
10
70.5197
20
194.3157
0
VERTEX
8
CUT
10
70.8535
20
194.9091
0
VERTEX
8
CUT
10
71.1917
20
195.5000
0
VERTEX
8
CUT
10
71.5343
20
196.0884
0
VERTEX
8
CUT
10
71.8814
20
196.6742
0
VERTEX
8
CUT
10
72.2328
20
197.2573
0
VERTEX
8
CUT
10
72.5885
20
197.8379
0
VERTEX
8
CUT
10
72.9486
20
198.4157
0
VERTEX
8
CUT
10
73.3130
20
198.9909
0
VERTEX
8
CUT
10
73.6817
20
199.5633
0
VERTEX
8
CUT
10
74.0547
20
200.1329
0
VERTEX
8
CUT
10
74.4319
20
200.6997
0
VERTEX
8
CUT
10
74.8133
20
201.2637
0
VERTEX
8
CUT
10
75.1990
20
201.8248
0
VERTEX
8
CUT
10
75.5888
20
202.3830
0
VERTEX
8
CUT
10
87.0367
20
194.3241
0
VERTEX
8
CUT
10
86.7068
20
193.8518
0
VERTEX
8
CUT
10
86.3805
20
193.3770
0
VERTEX
8
CUT
10
86.0577
20
192.8998
0
VERTEX
8
CUT
10
85.7386
20
192.4201
0
VERTEX
8
CUT
10
85.4230
20
191.9381
0
VERTEX
8
CUT
10
85.1110
20
191.4538
0
VERTEX
8
CUT
10
84.8027
20
190.9671
0
VERTEX
8
CUT
10
84.4980
20
190.4782
0
VERTEX
8
CUT
10
84.1969
20
189.9870
0
VERTEX
8
CUT
10
83.8996
20
189.4935
0
VERTEX
8
CUT
10
83.6060
20
188.9979
0
VERTEX
8
CUT
10
83.3160
20
188.5000
0
VERTEX
8
CUT
10
83.0299
20
188.0000
0
VERTEX
8
CUT
10
82.7474
20
187.4979
0
VERTEX
8
CUT
10
82.4687
20
186.9936
0
VERTEX
8
CUT
10
82.1938
20
186.4873
0
VERTEX
8
CUT
10
81.9227
20
185.9790
0
VERTEX
8
CUT
10
81.6555
20
185.4686
0
VERTEX
8
CUT
10
81.3920
20
184.9563
0
VERTEX
8
CUT
10
81.1324
20
184.4420
0
VERTEX
8
CUT
10
80.8766
20
183.9257
0
VERTEX
8
CUT
10
80.6247
20
183.4076
0
VERTEX
8
CUT
10
80.3767
20
182.8876
0
VERTEX
8
CUT
10
80.1326
20
182.3658
0
SEQEND
0
POLYLINE
8
CUT
66
1
70
1
0
VERTEX
8
CUT
10
77.1865
20
204.5820
0
VERTEX
8
CUT
10
77.5969
20
205.1252
0
VERTEX
8
CUT
10
78.0114
20
205.6654
0
VERTEX
8
CUT
10
78.4299
20
206.2025
0
VERTEX
8
CUT
10
78.8524
20
206.7364
0
VERTEX
8
CUT
10
79.2789
20
207.2671
0
VERTEX
8
CUT
10
79.7093
20
207.7947
0
VERTEX
8
CUT
10
80.1437
20
208.3190
0
VERTEX
8
CUT
10
80.5820
20
208.8400
0
VERTEX
8
CUT
10
81.0242
20
209.3577
0
VERTEX
8
CUT
10
81.4702
20
209.8721
0
VERTEX
8
CUT
10
81.9201
20
210.3832
0
VERTEX
8
CUT
10
82.3738
20
210.8909
0
VERTEX
8
CUT
10
82.8313
20
211.3952
0
VERTEX
8
CUT
10
83.2925
20
211.8960
0
VERTEX
8
CUT
10
83.7575
20
212.3934
0
VERTEX
8
CUT
10
84.2262
20
212.8872
0
VERTEX
8
CUT
10
84.6986
20
213.3776
0
VERTEX
8
CUT
10
85.1746
20
213.8644
0
VERTEX
8
CUT
10
85.6542
20
214.3477
0
VERTEX
8
CUT
10
86.1375
20
214.8273
0
VERTEX
8
CUT
10
86.6243
20
215.3033
0
VERTEX
8
CUT
10
87.1147
20
215.7756
0
VERTEX
8
CUT
10
87.6086
20
216.2443
0
VERTEX
8
CUT
10
88.1059
20
216.7093
0
VERTEX
8
CUT
10
97.6281
20
206.4463
0
VERTEX
8
CUT
10
97.2072
20
206.0529
0
VERTEX
8
CUT
10
96.7893
20
205.6563
0
VERTEX
8
CUT
10
96.3744
20
205.2566
0
VERTEX
8
CUT
10
95.9625
20
204.8539
0
VERTEX
8
CUT
10
95.5536
20
204.4480
0
VERTEX
8
CUT
10
95.1477
20
204.0391
0
VERTEX
8
CUT
10
94.7449
20
203.6272
0
VERTEX
8
CUT
10
94.3452
20
203.2123
0
VERTEX
8
CUT
10
93.9487
20
202.7944
0
VERTEX
8
CUT
10
93.5552
20
202.3735
0
VERTEX
8
CUT
10
93.1649
20
201.9497
0
VERTEX
8
CUT
10
92.7778
20
201.5231
0
VERTEX
8
CUT
10
92.3940
20
201.0935
0
VERTEX
8
CUT
10
92.0133
20
200.6610
0
VERTEX
8
CUT
10
91.6359
20
200.2258
0
VERTEX
8
CUT
10
91.2617
20
199.7877
0
VERTEX
8
CUT
10
90.8908
20
199.3468
0
VERTEX
8
CUT
10
90.5233
20
198.9032
0
VERTEX
8
CUT
10
90.1591
20
198.4568
0
VERTEX
8
CUT
10
89.7982
20
198.0077
0
VERTEX
8
CUT
10
89.4407
20
197.5559
0
VERTEX
8
CUT
10
89.0866
20
197.1015
0
VERTEX
8
CUT
10
88.7358
20
196.6444
0
VERTEX
8
CUT
10
88.3886
20
196.1848
0
SEQEND
0
POLYLINE
8
CUT
66
1
70
1
0
VERTEX
8
CUT
10
90.1259
20
218.5280
0
VERTEX
8
CUT
10
90.6403
20
218.9741
0
VERTEX
8
CUT
10
91.1580
20
219.4163
0
VERTEX
8
CUT
10
91.6790
20
219.8546
0
VERTEX
8
CUT
10
92.2033
20
220.2890
0
VERTEX
8
CUT
10
92.7308
20
220.7195
0
VERTEX
8
CUT
10
93.2615
20
221.1460
0
VERTEX
8
CUT
10
93.7954
20
221.5685
0
VERTEX
8
CUT
10
94.3325
20
221.9870
0
VERTEX
8
CUT
10
94.8727
20
222.4015
0
VERTEX
8
CUT
10
95.4159
20
222.8119
0
VERTEX
8
CUT
10
95.9622
20
223.2183
0
VERTEX
8
CUT
10
96.5115
20
223.6205
0
VERTEX
8
CUT
10
97.0639
20
224.0187
0
VERTEX
8
CUT
10
97.6192
20
224.4127
0
VERTEX
8
CUT
10
98.1774
20
224.8025
0
VERTEX
8
CUT
10
98.7385
20
225.1882
0
VERTEX
8
CUT
10
99.3025
20
225.5696
0
VERTEX
8
CUT
10
99.8693
20
225.9468
0
VERTEX
8
CUT
10
100.4390
20
226.3197
0
VERTEX
8
CUT
10
101.0114
20
226.6884
0
VERTEX
8
CUT
10
101.5865
20
227.0528
0
VERTEX
8
CUT
10
102.1644
20
227.4129
0
VERTEX
8
CUT
10
102.7449
20
227.7686
0
VERTEX
8
CUT
10
103.3281
20
228.1200
0
VERTEX
8
CUT
10
110.5084
20
216.1015
0
VERTEX
8
CUT
10
110.0149
20
215.8042
0
VERTEX
8
CUT
10
109.5237
20
215.5032
0
VERTEX
8
CUT
10
109.0347
20
215.1985
0
VERTEX
8
CUT
10
108.5481
20
214.8902
0
VERTEX
8
CUT
10
108.0637
20
214.5782
0
VERTEX
8
CUT
10
107.5817
20
214.2627
0
VERTEX
8
CUT
10
107.1021
20
213.9435
0
VERTEX
8
CUT
10
106.6249
20
213.6207
0
VERTEX
8
CUT
10
106.1501
20
213.2944
0
VERTEX
8
CUT
10
105.6777
20
212.9646
0
VERTEX
8
CUT
10
105.2079
20
212.6312
0
VERTEX
8
CUT
10
104.7405
20
212.2943
0
VERTEX
8
CUT
10
104.2757
20
211.9539
0
VERTEX
8
CUT
10
103.8135
20
211.6101
0
VERTEX
8
CUT
10
103.3538
20
211.2628
0
VERTEX
8
CUT
10
102.8967
20
210.9121
0
VERTEX
8
CUT
10
102.4423
20
210.5579
0
VERTEX
8
CUT
10
101.9905
20
210.2004
0
VERTEX
8
CUT
10
101.5415
20
209.8395
0
VERTEX
8
CUT
10
101.0951
20
209.4753
0
VERTEX
8
CUT
10
100.6515
20
209.1077
0
VERTEX
8
CUT
10
100.2106
20
208.7368
0
VERTEX
8
CUT
10
99.7725
20
208.3627
0
VERTEX
8
CUT
10
99.3373
20
207.9852
0
SEQEND
0
POLYLINE
8
CUT
66
1
70
1
0
VERTEX
8
CUT
10
105.6820
20
229.4790
0
VERTEX
8
CUT
10
106.2779
20
229.8084
0
VERTEX
8
CUT
10
106.8763
20
230.1333
0
VERTEX
8
CUT
10
107.4771
20
230.4537
0
VERTEX
8
CUT
10
108.0802
20
230.7696
0
VERTEX
8
CUT
10
108.6857
20
231.0810
0
VERTEX
8
CUT
10
109.2935
20
231.3878
0
VERTEX
8
CUT
10
109.9036
20
231.6901
0
VERTEX
8
CUT
10
110.5159
20
231.9878
0
VERTEX
8
CUT
10
111.1304
20
232.2810
0
VERTEX
8
CUT
10
111.7471
20
232.5695
0
VERTEX
8
CUT
10
112.3660
20
232.8534
0
VERTEX
8
CUT
10
112.9870
20
233.1326
0
VERTEX
8
CUT
10
113.6100
20
233.4072
0
VERTEX
8
CUT
10
114.2351
20
233.6772
0
VERTEX
8
CUT
10
114.8621
20
233.9424
0
VERTEX
8
CUT
10
115.4912
20
234.2030
0
VERTEX
8
CUT
10
116.1222
20
234.4588
0
VERTEX
8
CUT
10
116.7550
20
234.7099
0
VERTEX
8
CUT
10
117.3898
20
234.9563
0
VERTEX
8
CUT
10
118.0263
20
235.1979
0
VERTEX
8
CUT
10
118.6646
20
235.4347
0
VERTEX
8
CUT
10
119.3047
20
235.6668
0
VERTEX
8
CUT
10
119.9466
20
235.8941
0
VERTEX
8
CUT
10
120.5901
20
236.1165
0
VERTEX
8
CUT
10
125.1147
20
222.8678
0
VERTEX
8
CUT
10
124.5702
20
222.6796
0
VERTEX
8
CUT
10
124.0271
20
222.4873
0
VERTEX
8
CUT
10
123.4855
20
222.2909
0
VERTEX
8
CUT
10
122.9453
20
222.0905
0
VERTEX
8
CUT
10
122.4067
20
221.8861
0
VERTEX
8
CUT
10
121.8696
20
221.6776
0
VERTEX
8
CUT
10
121.3341
20
221.4652
0
VERTEX
8
CUT
10
120.8002
20
221.2487
0
VERTEX
8
CUT
10
120.2680
20
221.0282
0
VERTEX
8
CUT
10
119.7374
20
220.8038
0
VERTEX
8
CUT
10
119.2085
20
220.5754
0
VERTEX
8
CUT
10
118.6813
20
220.3430
0
VERTEX
8
CUT
10
118.1558
20
220.1067
0
VERTEX
8
CUT
10
117.6322
20
219.8665
0
VERTEX
8
CUT
10
117.1104
20
219.6224
0
VERTEX
8
CUT
10
116.5904
20
219.3743
0
VERTEX
8
CUT
10
116.0723
20
219.1224
0
VERTEX
8
CUT
10
115.5560
20
218.8666
0
VERTEX
8
CUT
10
115.0417
20
218.6070
0
VERTEX
8
CUT
10
114.5294
20
218.3435
0
VERTEX
8
CUT
10
114.0190
20
218.0762
0
VERTEX
8
CUT
10
113.5107
20
217.8051
0
VERTEX
8
CUT
10
113.0044
20
217.5302
0
VERTEX
8
CUT
10
112.5002
20
217.2515
0
SEQEND
0
POLYLINE
8
CUT
66
1
70
1
0
VERTEX
8
CUT
10
123.1751
20
236.9565
0
VERTEX
8
CUT
10
123.8265
20
237.1547
0
VERTEX
8
CUT
10
124.4793
20
237.3481
0
VERTEX
8
CUT
10
125.1335
20
237.5366
0
VERTEX
8
CUT
10
125.7892
20
237.7202
0
VERTEX
8
CUT
10
126.4462
20
237.8989
0
VERTEX
8
CUT
10
127.1045
20
238.0727
0
VERTEX
8
CUT
10
127.7641
20
238.2415
0
VERTEX
8
CUT
10
128.4250
20
238.4054
0
VERTEX
8
CUT
10
129.0870
20
238.5644
0
VERTEX
8
CUT
10
129.7502
20
238.7184
0
VERTEX
8
CUT
10
130.4146
20
238.8674
0
VERTEX
8
CUT
10
131.0800
20
239.0114
0
VERTEX
8
CUT
10
131.7465
20
239.1505
0
VERTEX
8
CUT
10
132.4141
20
239.2846
0
VERTEX
8
CUT
10
133.0826
20
239.4137
0
VERTEX
8
CUT
10
133.7521
20
239.5377
0
VERTEX
8
CUT
10
134.4224
20
239.6568
0
VERTEX
8
CUT
10
135.0937
20
239.7708
0
VERTEX
8
CUT
10
135.7658
20
239.8798
0
VERTEX
8
CUT
10
136.4386
20
239.9838
0
VERTEX
8
CUT
10
137.1123
20
240.0828
0
VERTEX
8
CUT
10
137.7866
20
240.1767
0
VERTEX
8
CUT
10
138.4617
20
240.2655
0
VERTEX
8
CUT
10
139.1374
20
240.3493
0
VERTEX
8
CUT
10
140.8085
20
226.4494
0
VERTEX
8
CUT
10
140.2368
20
226.3785
0
VERTEX
8
CUT
10
139.6656
20
226.3033
0
VERTEX
8
CUT
10
139.0950
20
226.2239
0
VERTEX
8
CUT
10
138.5250
20
226.1402
0
VERTEX
8
CUT
10
137.9557
20
226.0522
0
VERTEX
8
CUT
10
137.3870
20
225.9599
0
VERTEX
8
CUT
10
136.8190
20
225.8634
0
VERTEX
8
CUT
10
136.2517
20
225.7627
0
VERTEX
8
CUT
10
135.6853
20
225.6577
0
VERTEX
8
CUT
10
135.1196
20
225.5485
0
VERTEX
8
CUT
10
134.5548
20
225.4350
0
VERTEX
8
CUT
10
133.9908
20
225.3174
0
VERTEX
8
CUT
10
133.4277
20
225.1955
0
VERTEX
8
CUT
10
132.8656
20
225.0694
0
VERTEX
8
CUT
10
132.3044
20
224.9391
0
VERTEX
8
CUT
10
131.7442
20
224.8046
0
VERTEX
8
CUT
10
131.1850
20
224.6659
0
VERTEX
8
CUT
10
130.6269
20
224.5230
0
VERTEX
8
CUT
10
130.0699
20
224.3760
0
VERTEX
8
CUT
10
129.5139
20
224.2248
0
VERTEX
8
CUT
10
128.9592
20
224.0694
0
VERTEX
8
CUT
10
128.4056
20
223.9099
0
VERTEX
8
CUT
10
127.8532
20
223.7463
0
VERTEX
8
CUT
10
127.3020
20
223.5785
0
SEQEND
0
POLYLINE
8
CUT
66
1
70
1
0
VERTEX
8
CUT
10
141.8406
20
240.6335
0
VERTEX
8
CUT
10
142.5189
20
240.6920
0
VERTEX
8
CUT
10
143.1977
20
240.7454
0
VERTEX
8
CUT
10
143.8768
20
240.7938
0
VERTEX
8
CUT
10
144.5563
20
240.8370
0
VERTEX
8
CUT
10
145.2361
20
240.8752
0
VERTEX
8
CUT
10
145.9162
20
240.9083
0
VERTEX
8
CUT
10
146.5965
20
240.9363
0
VERTEX
8
CUT
10
147.2769
20
240.9592
0
VERTEX
8
CUT
10
147.9576
20
240.9771
0
VERTEX
8
CUT
10
148.6383
20
240.9898
0
VERTEX
8
CUT
10
149.3191
20
240.9975
0
VERTEX
8
CUT
10
150.0000
20
241.0000
0
VERTEX
8
CUT
10
150.6809
20
240.9975
0
VERTEX
8
CUT
10
151.3617
20
240.9898
0
VERTEX
8
CUT
10
152.0424
20
240.9771
0
VERTEX
8
CUT
10
152.7231
20
240.9592
0
VERTEX
8
CUT
10
153.4035
20
240.9363
0
VERTEX
8
CUT
10
154.0838
20
240.9083
0
VERTEX
8
CUT
10
154.7639
20
240.8752
0
VERTEX
8
CUT
10
155.4437
20
240.8370
0
VERTEX
8
CUT
10
156.1232
20
240.7938
0
VERTEX
8
CUT
10
156.8023
20
240.7454
0
VERTEX
8
CUT
10
157.4811
20
240.6920
0
VERTEX
8
CUT
10
158.1594
20
240.6335
0
VERTEX
8
CUT
10
156.9041
20
226.6898
0
VERTEX
8
CUT
10
156.3302
20
226.7394
0
VERTEX
8
CUT
10
155.7558
20
226.7846
0
VERTEX
8
CUT
10
155.1811
20
226.8255
0
VERTEX
8
CUT
10
154.6062
20
226.8621
0
VERTEX
8
CUT
10
154.0310
20
226.8944
0
VERTEX
8
CUT
10
153.4555
20
226.9224
0
VERTEX
8
CUT
10
152.8799
20
226.9461
0
VERTEX
8
CUT
10
152.3041
20
226.9655
0
VERTEX
8
CUT
10
151.7282
20
226.9806
0
VERTEX
8
CUT
10
151.1522
20
226.9914
0
VERTEX
8
CUT
10
150.5761
20
226.9978
0
VERTEX
8
CUT
10
150.0000
20
227.0000
0
VERTEX
8
CUT
10
149.4239
20
226.9978
0
VERTEX
8
CUT
10
148.8478
20
226.9914
0
VERTEX
8
CUT
10
148.2718
20
226.9806
0
VERTEX
8
CUT
10
147.6959
20
226.9655
0
VERTEX
8
CUT
10
147.1201
20
226.9461
0
VERTEX
8
CUT
10
146.5445
20
226.9224
0
VERTEX
8
CUT
10
145.9690
20
226.8944
0
VERTEX
8
CUT
10
145.3938
20
226.8621
0
VERTEX
8
CUT
10
144.8189
20
226.8255
0
VERTEX
8
CUT
10
144.2442
20
226.7846
0
VERTEX
8
CUT
10
143.6698
20
226.7394
0
VERTEX
8
CUT
10
143.0959
20
226.6898
0
SEQEND
0
POLYLINE
8
CUT
66
1
70
1
0
VERTEX
8
CUT
10
160.8626
20
240.3493
0
VERTEX
8
CUT
10
161.5383
20
240.2655
0
VERTEX
8
CUT
10
162.2134
20
240.1767
0
VERTEX
8
CUT
10
162.8877
20
240.0828
0
VERTEX
8
CUT
10
163.5614
20
239.9838
0
VERTEX
8
CUT
10
164.2342
20
239.8798
0
VERTEX
8
CUT
10
164.9063
20
239.7708
0
VERTEX
8
CUT
10
165.5776
20
239.6568
0
VERTEX
8
CUT
10
166.2479
20
239.5377
0
VERTEX
8
CUT
10
166.9174
20
239.4137
0
VERTEX
8
CUT
10
167.5859
20
239.2846
0
VERTEX
8
CUT
10
168.2535
20
239.1505
0
VERTEX
8
CUT
10
168.9200
20
239.0114
0
VERTEX
8
CUT
10
169.5854
20
238.8674
0
VERTEX
8
CUT
10
170.2498
20
238.7184
0
VERTEX
8
CUT
10
170.9130
20
238.5644
0
VERTEX
8
CUT
10
171.5750
20
238.4054
0
VERTEX
8
CUT
10
172.2359
20
238.2415
0
VERTEX
8
CUT
10
172.8955
20
238.0727
0
VERTEX
8
CUT
10
173.5538
20
237.8989
0
VERTEX
8
CUT
10
174.2108
20
237.7202
0
VERTEX
8
CUT
10
174.8665
20
237.5366
0
VERTEX
8
CUT
10
175.5207
20
237.3481
0
VERTEX
8
CUT
10
176.1735
20
237.1547
0
VERTEX
8
CUT
10
176.8249
20
236.9565
0
VERTEX
8
CUT
10
172.6980
20
223.5785
0
VERTEX
8
CUT
10
172.1468
20
223.7463
0
VERTEX
8
CUT
10
171.5944
20
223.9099
0
VERTEX
8
CUT
10
171.0408
20
224.0694
0
VERTEX
8
CUT
10
170.4861
20
224.2248
0
VERTEX
8
CUT
10
169.9301
20
224.3760
0
VERTEX
8
CUT
10
169.3731
20
224.5230
0
VERTEX
8
CUT
10
168.8150
20
224.6659
0
VERTEX
8
CUT
10
168.2558
20
224.8046
0
VERTEX
8
CUT
10
167.6956
20
224.9391
0
VERTEX
8
CUT
10
167.1344
20
225.0694
0
VERTEX
8
CUT
10
166.5723
20
225.1955
0
VERTEX
8
CUT
10
166.0092
20
225.3174
0
VERTEX
8
CUT
10
165.4452
20
225.4350
0
VERTEX
8
CUT
10
164.8804
20
225.5485
0
VERTEX
8
CUT
10
164.3147
20
225.6577
0
VERTEX
8
CUT
10
163.7483
20
225.7627
0
VERTEX
8
CUT
10
163.1810
20
225.8634
0
VERTEX
8
CUT
10
162.6130
20
225.9599
0
VERTEX
8
CUT
10
162.0443
20
226.0522
0
VERTEX
8
CUT
10
161.4750
20
226.1402
0
VERTEX
8
CUT
10
160.9050
20
226.2239
0
VERTEX
8
CUT
10
160.3344
20
226.3033
0
VERTEX
8
CUT
10
159.7632
20
226.3785
0
VERTEX
8
CUT
10
159.1915
20
226.4494
0
SEQEND
0
POLYLINE
8
CUT
66
1
70
1
0
VERTEX
8
CUT
10
179.4099
20
236.1165
0
VERTEX
8
CUT
10
180.0534
20
235.8941
0
VERTEX
8
CUT
10
180.6953
20
235.6668
0
VERTEX
8
CUT
10
181.3354
20
235.4347
0
VERTEX
8
CUT
10
181.9737
20
235.1979
0
VERTEX
8
CUT
10
182.6102
20
234.9563
0
VERTEX
8
CUT
10
183.2450
20
234.7099
0
VERTEX
8
CUT
10
183.8778
20
234.4588
0
VERTEX
8
CUT
10
184.5088
20
234.2030
0
VERTEX
8
CUT
10
185.1379
20
233.9424
0
VERTEX
8
CUT
10
185.7649
20
233.6772
0
VERTEX
8
CUT
10
186.3900
20
233.4072
0
VERTEX
8
CUT
10
187.0130
20
233.1326
0
VERTEX
8
CUT
10
187.6340
20
232.8534
0
VERTEX
8
CUT
10
188.2529
20
232.5695
0
VERTEX
8
CUT
10
188.8696
20
232.2810
0
VERTEX
8
CUT
10
189.4841
20
231.9878
0
VERTEX
8
CUT
10
190.0964
20
231.6901
0
VERTEX
8
CUT
10
190.7065
20
231.3878
0
VERTEX
8
CUT
10
191.3143
20
231.0810
0
VERTEX
8
CUT
10
191.9198
20
230.7696
0
VERTEX
8
CUT
10
192.5229
20
230.4537
0
VERTEX
8
CUT
10
193.1237
20
230.1333
0
VERTEX
8
CUT
10
193.7221
20
229.8084
0
VERTEX
8
CUT
10
194.3180
20
229.4790
0
VERTEX
8
CUT
10
187.4998
20
217.2515
0
VERTEX
8
CUT
10
186.9956
20
217.5302
0
VERTEX
8
CUT
10
186.4893
20
217.8051
0
VERTEX
8
CUT
10
185.9810
20
218.0762
0
VERTEX
8
CUT
10
185.4706
20
218.3435
0
VERTEX
8
CUT
10
184.9583
20
218.6070
0
VERTEX
8
CUT
10
184.4440
20
218.8666
0
VERTEX
8
CUT
10
183.9277
20
219.1224
0
VERTEX
8
CUT
10
183.4096
20
219.3743
0
VERTEX
8
CUT
10
182.8896
20
219.6224
0
VERTEX
8
CUT
10
182.3678
20
219.8665
0
VERTEX
8
CUT
10
181.8442
20
220.1067
0
VERTEX
8
CUT
10
181.3187
20
220.3430
0
VERTEX
8
CUT
10
180.7915
20
220.5754
0
VERTEX
8
CUT
10
180.2626
20
220.8038
0
VERTEX
8
CUT
10
179.7320
20
221.0282
0
VERTEX
8
CUT
10
179.1998
20
221.2487
0
VERTEX
8
CUT
10
178.6659
20
221.4652
0
VERTEX
8
CUT
10
178.1304
20
221.6776
0
VERTEX
8
CUT
10
177.5933
20
221.8861
0
VERTEX
8
CUT
10
177.0547
20
222.0905
0
VERTEX
8
CUT
10
176.5145
20
222.2909
0
VERTEX
8
CUT
10
175.9729
20
222.4873
0
VERTEX
8
CUT
10
175.4298
20
222.6796
0
VERTEX
8
CUT
10
174.8853
20
222.8678
0
SEQEND
0
POLYLINE
8
CUT
66
1
70
1
0
VERTEX
8
CUT
10
196.6719
20
228.1200
0
VERTEX
8
CUT
10
197.2551
20
227.7686
0
VERTEX
8
CUT
10
197.8356
20
227.4129
0
VERTEX
8
CUT
10
198.4135
20
227.0528
0
VERTEX
8
CUT
10
198.9886
20
226.6884
0
VERTEX
8
CUT
10
199.5610
20
226.3197
0
VERTEX
8
CUT
10
200.1307
20
225.9468
0
VERTEX
8
CUT
10
200.6975
20
225.5696
0
VERTEX
8
CUT
10
201.2615
20
225.1882
0
VERTEX
8
CUT
10
201.8226
20
224.8025
0
VERTEX
8
CUT
10
202.3808
20
224.4127
0
VERTEX
8
CUT
10
202.9361
20
224.0187
0
VERTEX
8
CUT
10
203.4885
20
223.6205
0
VERTEX
8
CUT
10
204.0378
20
223.2183
0
VERTEX
8
CUT
10
204.5841
20
222.8119
0
VERTEX
8
CUT
10
205.1273
20
222.4015
0
VERTEX
8
CUT
10
205.6675
20
221.9870
0
VERTEX
8
CUT
10
206.2046
20
221.5685
0
VERTEX
8
CUT
10
206.7385
20
221.1460
0
VERTEX
8
CUT
10
207.2692
20
220.7195
0
VERTEX
8
CUT
10
207.7967
20
220.2890
0
VERTEX
8
CUT
10
208.3210
20
219.8546
0
VERTEX
8
CUT
10
208.8420
20
219.4163
0
VERTEX
8
CUT
10
209.3597
20
218.9741
0
VERTEX
8
CUT
10
209.8741
20
218.5280
0
VERTEX
8
CUT
10
200.6627
20
207.9852
0
VERTEX
8
CUT
10
200.2275
20
208.3627
0
VERTEX
8
CUT
10
199.7894
20
208.7368
0
VERTEX
8
CUT
10
199.3485
20
209.1077
0
VERTEX
8
CUT
10
198.9049
20
209.4753
0
VERTEX
8
CUT
10
198.4585
20
209.8395
0
VERTEX
8
CUT
10
198.0095
20
210.2004
0
VERTEX
8
CUT
10
197.5577
20
210.5579
0
VERTEX
8
CUT
10
197.1033
20
210.9121
0
VERTEX
8
CUT
10
196.6462
20
211.2628
0
VERTEX
8
CUT
10
196.1865
20
211.6101
0
VERTEX
8
CUT
10
195.7243
20
211.9539
0
VERTEX
8
CUT
10
195.2595
20
212.2943
0
VERTEX
8
CUT
10
194.7921
20
212.6312
0
VERTEX
8
CUT
10
194.3223
20
212.9646
0
VERTEX
8
CUT
10
193.8499
20
213.2944
0
VERTEX
8
CUT
10
193.3751
20
213.6207
0
VERTEX
8
CUT
10
192.8979
20
213.9435
0
VERTEX
8
CUT
10
192.4183
20
214.2627
0
VERTEX
8
CUT
10
191.9363
20
214.5782
0
VERTEX
8
CUT
10
191.4519
20
214.8902
0
VERTEX
8
CUT
10
190.9653
20
215.1985
0
VERTEX
8
CUT
10
190.4763
20
215.5032
0
VERTEX
8
CUT
10
189.9851
20
215.8042
0
VERTEX
8
CUT
10
189.4916
20
216.1015
0
SEQEND
0
POLYLINE
8
CUT
66
1
70
1
0
VERTEX
8
CUT
10
211.8941
20
216.7093
0
VERTEX
8
CUT
10
212.3914
20
216.2443
0
VERTEX
8
CUT
10
212.8853
20
215.7756
0
VERTEX
8
CUT
10
213.3757
20
215.3033
0
VERTEX
8
CUT
10
213.8625
20
214.8273
0
VERTEX
8
CUT
10
214.3458
20
214.3477
0
VERTEX
8
CUT
10
214.8254
20
213.8644
0
VERTEX
8
CUT
10
215.3014
20
213.3776
0
VERTEX
8
CUT
10
215.7738
20
212.8872
0
VERTEX
8
CUT
10
216.2425
20
212.3934
0
VERTEX
8
CUT
10
216.7075
20
211.8960
0
VERTEX
8
CUT
10
217.1687
20
211.3952
0
VERTEX
8
CUT
10
217.6262
20
210.8909
0
VERTEX
8
CUT
10
218.0799
20
210.3832
0
VERTEX
8
CUT
10
218.5298
20
209.8721
0
VERTEX
8
CUT
10
218.9758
20
209.3577
0
VERTEX
8
CUT
10
219.4180
20
208.8400
0
VERTEX
8
CUT
10
219.8563
20
208.3190
0
VERTEX
8
CUT
10
220.2907
20
207.7947
0
VERTEX
8
CUT
10
220.7211
20
207.2671
0
VERTEX
8
CUT
10
221.1476
20
206.7364
0
VERTEX
8
CUT
10
221.5701
20
206.2025
0
VERTEX
8
CUT
10
221.9886
20
205.6654
0
VERTEX
8
CUT
10
222.4031
20
205.1252
0
VERTEX
8
CUT
10
222.8135
20
204.5820
0
VERTEX
8
CUT
10
211.6114
20
196.1848
0
VERTEX
8
CUT
10
211.2642
20
196.6444
0
VERTEX
8
CUT
10
210.9134
20
197.1015
0
VERTEX
8
CUT
10
210.5593
20
197.5559
0
VERTEX
8
CUT
10
210.2018
20
198.0077
0
VERTEX
8
CUT
10
209.8409
20
198.4568
0
VERTEX
8
CUT
10
209.4767
20
198.9032
0
VERTEX
8
CUT
10
209.1092
20
199.3468
0
VERTEX
8
CUT
10
208.7383
20
199.7877
0
VERTEX
8
CUT
10
208.3641
20
200.2258
0
VERTEX
8
CUT
10
207.9867
20
200.6610
0
VERTEX
8
CUT
10
207.6060
20
201.0935
0
VERTEX
8
CUT
10
207.2222
20
201.5231
0
VERTEX
8
CUT
10
206.8351
20
201.9497
0
VERTEX
8
CUT
10
206.4448
20
202.3735
0
VERTEX
8
CUT
10
206.0513
20
202.7944
0
VERTEX
8
CUT
10
205.6548
20
203.2123
0
VERTEX
8
CUT
10
205.2551
20
203.6272
0
VERTEX
8
CUT
10
204.8523
20
204.0391
0
VERTEX
8
CUT
10
204.4464
20
204.4480
0
VERTEX
8
CUT
10
204.0375
20
204.8539
0
VERTEX
8
CUT
10
203.6256
20
205.2566
0
VERTEX
8
CUT
10
203.2107
20
205.6563
0
VERTEX
8
CUT
10
202.7928
20
206.0529
0
VERTEX
8
CUT
10
202.3719
20
206.4463
0
SEQEND
0
POLYLINE
8
CUT
66
1
70
1
0
VERTEX
8
CUT
10
224.4112
20
202.3830
0
VERTEX
8
CUT
10
224.8010
20
201.8248
0
VERTEX
8
CUT
10
225.1867
20
201.2637
0
VERTEX
8
CUT
10
225.5681
20
200.6997
0
VERTEX
8
CUT
10
225.9453
20
200.1329
0
VERTEX
8
CUT
10
226.3183
20
199.5633
0
VERTEX
8
CUT
10
226.6870
20
198.9909
0
VERTEX
8
CUT
10
227.0514
20
198.4157
0
VERTEX
8
CUT
10
227.4115
20
197.8379
0
VERTEX
8
CUT
10
227.7672
20
197.2573
0
VERTEX
8
CUT
10
228.1186
20
196.6742
0
VERTEX
8
CUT
10
228.4657
20
196.0884
0
VERTEX
8
CUT
10
228.8083
20
195.5000
0
VERTEX
8
CUT
10
229.1465
20
194.9091
0
VERTEX
8
CUT
10
229.4803
20
194.3157
0
VERTEX
8
CUT
10
229.8097
20
193.7197
0
VERTEX
8
CUT
10
230.1346
20
193.1214
0
VERTEX
8
CUT
10
230.4549
20
192.5206
0
VERTEX
8
CUT
10
230.7708
20
191.9175
0
VERTEX
8
CUT
10
231.0822
20
191.3120
0
VERTEX
8
CUT
10
231.3890
20
190.7041
0
VERTEX
8
CUT
10
231.6913
20
190.0941
0
VERTEX
8
CUT
10
231.9890
20
189.4817
0
VERTEX
8
CUT
10
232.2821
20
188.8672
0
VERTEX
8
CUT
10
232.5706
20
188.2505
0
VERTEX
8
CUT
10
219.8674
20
182.3658
0
VERTEX
8
CUT
10
219.6233
20
182.8876
0
VERTEX
8
CUT
10
219.3753
20
183.4076
0
VERTEX
8
CUT
10
219.1234
20
183.9257
0
VERTEX
8
CUT
10
218.8676
20
184.4420
0
VERTEX
8
CUT
10
218.6080
20
184.9563
0
VERTEX
8
CUT
10
218.3445
20
185.4686
0
VERTEX
8
CUT
10
218.0773
20
185.9790
0
VERTEX
8
CUT
10
217.8062
20
186.4873
0
VERTEX
8
CUT
10
217.5313
20
186.9936
0
VERTEX
8
CUT
10
217.2526
20
187.4979
0
VERTEX
8
CUT
10
216.9701
20
188.0000
0
VERTEX
8
CUT
10
216.6840
20
188.5000
0
VERTEX
8
CUT
10
216.3940
20
188.9979
0
VERTEX
8
CUT
10
216.1004
20
189.4935
0
VERTEX
8
CUT
10
215.8031
20
189.9870
0
VERTEX
8
CUT
10
215.5020
20
190.4782
0
VERTEX
8
CUT
10
215.1973
20
190.9671
0
VERTEX
8
CUT
10
214.8890
20
191.4538
0
VERTEX
8
CUT
10
214.5770
20
191.9381
0
VERTEX
8
CUT
10
214.2614
20
192.4201
0
VERTEX
8
CUT
10
213.9423
20
192.8998
0
VERTEX
8
CUT
10
213.6195
20
193.3770
0
VERTEX
8
CUT
10
213.2932
20
193.8518
0
VERTEX
8
CUT
10
212.9633
20
194.3241
0
SEQEND
0
POLYLINE
8
CUT
66
1
70
1
0
VERTEX
8
CUT
10
233.6761
20
185.7674
0
VERTEX
8
CUT
10
233.9414
20
185.1403
0
VERTEX
8
CUT
10
234.2020
20
184.5113
0
VERTEX
8
CUT
10
234.4578
20
183.8803
0
VERTEX
8
CUT
10
234.7090
20
183.2474
0
VERTEX
8
CUT
10
234.9553
20
182.6127
0
VERTEX
8
CUT
10
235.1970
20
181.9762
0
VERTEX
8
CUT
10
235.4338
20
181.3378
0
VERTEX
8
CUT
10
235.6659
20
180.6977
0
VERTEX
8
CUT
10
235.8932
20
180.0559
0
VERTEX
8
CUT
10
236.1157
20
179.4124
0
VERTEX
8
CUT
10
236.3333
20
178.7673
0
VERTEX
8
CUT
10
236.5461
20
178.1205
0
VERTEX
8
CUT
10
236.7541
20
177.4722
0
VERTEX
8
CUT
10
236.9572
20
176.8224
0
VERTEX
8
CUT
10
237.1555
20
176.1710
0
VERTEX
8
CUT
10
237.3489
20
175.5182
0
VERTEX
8
CUT
10
237.5373
20
174.8639
0
VERTEX
8
CUT
10
237.7209
20
174.2083
0
VERTEX
8
CUT
10
237.8996
20
173.5513
0
VERTEX
8
CUT
10
238.0733
20
172.8929
0
VERTEX
8
CUT
10
238.2422
20
172.2333
0
VERTEX
8
CUT
10
238.4060
20
171.5725
0
VERTEX
8
CUT
10
238.5650
20
170.9104
0
VERTEX
8
CUT
10
238.7189
20
170.2472
0
VERTEX
8
CUT
10
225.0699
20
167.1322
0
VERTEX
8
CUT
10
224.9396
20
167.6934
0
VERTEX
8
CUT
10
224.8051
20
168.2536
0
VERTEX
8
CUT
10
224.6664
20
168.8128
0
VERTEX
8
CUT
10
224.5236
20
169.3709
0
VERTEX
8
CUT
10
224.3766
20
169.9280
0
VERTEX
8
CUT
10
224.2254
20
170.4839
0
VERTEX
8
CUT
10
224.0701
20
171.0387
0
VERTEX
8
CUT
10
223.9106
20
171.5923
0
VERTEX
8
CUT
10
223.7470
20
172.1447
0
VERTEX
8
CUT
10
223.5792
20
172.6958
0
VERTEX
8
CUT
10
223.4073
20
173.2457
0
VERTEX
8
CUT
10
223.2314
20
173.7943
0
VERTEX
8
CUT
10
223.0513
20
174.3416
0
VERTEX
8
CUT
10
222.8671
20
174.8874
0
VERTEX
8
CUT
10
222.6789
20
175.4319
0
VERTEX
8
CUT
10
222.4865
20
175.9750
0
VERTEX
8
CUT
10
222.2902
20
176.5166
0
VERTEX
8
CUT
10
222.0897
20
177.0568
0
VERTEX
8
CUT
10
221.8853
20
177.5954
0
VERTEX
8
CUT
10
221.6768
20
178.1324
0
VERTEX
8
CUT
10
221.4643
20
178.6679
0
VERTEX
8
CUT
10
221.2478
20
179.2018
0
VERTEX
8
CUT
10
221.0273
20
179.7341
0
VERTEX
8
CUT
10
220.8029
20
180.2647
0
SEQEND
0
POLYLINE
8
CUT
66
1
70
1
0
VERTEX
8
CUT
10
239.2841
20
167.5885
0
VERTEX
8
CUT
10
239.4132
20
166.9200
0
VERTEX
8
CUT
10
239.5373
20
166.2505
0
VERTEX
8
CUT
10
239.6563
20
165.5802
0
VERTEX
8
CUT
10
239.7704
20
164.9089
0
VERTEX
8
CUT
10
239.8794
20
164.2368
0
VERTEX
8
CUT
10
239.9834
20
163.5640
0
VERTEX
8
CUT
10
240.0824
20
162.8903
0
VERTEX
8
CUT
10
240.1763
20
162.2160
0
VERTEX
8
CUT
10
240.2652
20
161.5409
0
VERTEX
8
CUT
10
240.3490
20
160.8652
0
VERTEX
8
CUT
10
240.4278
20
160.1890
0
VERTEX
8
CUT
10
240.5015
20
159.5121
0
VERTEX
8
CUT
10
240.5701
20
158.8347
0
VERTEX
8
CUT
10
240.6337
20
158.1568
0
VERTEX
8
CUT
10
240.6922
20
157.4785
0
VERTEX
8
CUT
10
240.7456
20
156.7997
0
VERTEX
8
CUT
10
240.7939
20
156.1205
0
VERTEX
8
CUT
10
240.8372
20
155.4410
0
VERTEX
8
CUT
10
240.8754
20
154.7613
0
VERTEX
8
CUT
10
240.9084
20
154.0812
0
VERTEX
8
CUT
10
240.9364
20
153.4009
0
VERTEX
8
CUT
10
240.9593
20
152.7204
0
VERTEX
8
CUT
10
240.9771
20
152.0398
0
VERTEX
8
CUT
10
240.9899
20
151.3590
0
VERTEX
8
CUT
10
226.9914
20
151.1500
0
VERTEX
8
CUT
10
226.9807
20
151.7260
0
VERTEX
8
CUT
10
226.9656
20
152.3019
0
VERTEX
8
CUT
10
226.9462
20
152.8777
0
VERTEX
8
CUT
10
226.9225
20
153.4533
0
VERTEX
8
CUT
10
226.8945
20
154.0288
0
VERTEX
8
CUT
10
226.8622
20
154.6040
0
VERTEX
8
CUT
10
226.8256
20
155.1789
0
VERTEX
8
CUT
10
226.7847
20
155.7536
0
VERTEX
8
CUT
10
226.7395
20
156.3279
0
VERTEX
8
CUT
10
226.6900
20
156.9019
0
VERTEX
8
CUT
10
226.6363
20
157.4755
0
VERTEX
8
CUT
10
226.5782
20
158.0487
0
VERTEX
8
CUT
10
226.5158
20
158.6214
0
VERTEX
8
CUT
10
226.4492
20
159.1937
0
VERTEX
8
CUT
10
226.3782
20
159.7654
0
VERTEX
8
CUT
10
226.3030
20
160.3366
0
VERTEX
8
CUT
10
226.2236
20
160.9072
0
VERTEX
8
CUT
10
226.1398
20
161.4772
0
VERTEX
8
CUT
10
226.0518
20
162.0466
0
VERTEX
8
CUT
10
225.9596
20
162.6152
0
VERTEX
8
CUT
10
225.8631
20
163.1832
0
VERTEX
8
CUT
10
225.7623
20
163.7505
0
VERTEX
8
CUT
10
225.6573
20
164.3169
0
VERTEX
8
CUT
10
225.5481
20
164.8826
0
SEQEND
0
ENDSEC
0
EOF
