0
SECTION
2
ENTITIES
0
POLYLINE
8
CUT
66
1
70
1
0
VERTEX
8
CUT
10
300.0000
20
150.0000
0
VERTEX
8
CUT
10
299.9086
20
144.7651
0
VERTEX
8
CUT
10
299.6346
20
139.5365
0
VERTEX
8
CUT
10
299.1783
20
134.3207
0
VERTEX
8
CUT
10
298.5402
20
129.1240
0
VERTEX
8
CUT
10
297.7212
20
123.9528
0
VERTEX
8
CUT
10
296.7221
20
118.8132
0
VERTEX
8
CUT
10
295.5444
20
113.7117
0
VERTEX
8
CUT
10
294.1893
20
108.6544
0
VERTEX
8
CUT
10
292.6585
20
103.6475
0
VERTEX
8
CUT
10
290.9539
20
98.6970
0
VERTEX
8
CUT
10
289.0776
20
93.8090
0
VERTEX
8
CUT
10
287.0318
20
88.9895
0
VERTEX
8
CUT
10
284.8191
20
84.2443
0
VERTEX
8
CUT
10
282.4421
20
79.5793
0
VERTEX
8
CUT
10
279.9038
20
75.0000
0
VERTEX
8
CUT
10
277.2072
20
70.5121
0
VERTEX
8
CUT
10
274.3556
20
66.1211
0
VERTEX
8
CUT
10
271.3525
20
61.8322
0
VERTEX
8
CUT
10
268.2016
20
57.6508
0
VERTEX
8
CUT
10
264.9067
20
53.5819
0
VERTEX
8
CUT
10
261.4717
20
49.6304
0
VERTEX
8
CUT
10
257.9010
20
45.8012
0
VERTEX
8
CUT
10
254.1988
20
42.0990
0
VERTEX
8
CUT
10
250.3696
20
38.5283
0
VERTEX
8
CUT
10
246.4181
20
35.0933
0
VERTEX
8
CUT
10
242.3492
20
31.7984
0
VERTEX
8
CUT
10
238.1678
20
28.6475
0
VERTEX
8
CUT
10
233.8789
20
25.6444
0
VERTEX
8
CUT
10
229.4879
20
22.7928
0
VERTEX
8
CUT
10
225.0000
20
20.0962
0
VERTEX
8
CUT
10
220.4207
20
17.5579
0
VERTEX
8
CUT
10
215.7557
20
15.1809
0
VERTEX
8
CUT
10
211.0105
20
12.9682
0
VERTEX
8
CUT
10
206.1910
20
10.9224
0
VERTEX
8
CUT
10
201.3030
20
9.0461
0
VERTEX
8
CUT
10
196.3525
20
7.3415
0
VERTEX
8
CUT
10
191.3456
20
5.8107
0
VERTEX
8
CUT
10
186.2883
20
4.4556
0
VERTEX
8
CUT
10
181.1868
20
3.2779
0
VERTEX
8
CUT
10
176.0472
20
2.2788
0
VERTEX
8
CUT
10
170.8760
20
1.4598
0
VERTEX
8
CUT
10
165.6793
20
0.8217
0
VERTEX
8
CUT
10
160.4635
20
0.3654
0
VERTEX
8
CUT
10
155.2349
20
0.0914
0
VERTEX
8
CUT
10
150.0000
20
0.0000
0
VERTEX
8
CUT
10
144.7651
20
0.0914
0
VERTEX
8
CUT
10
139.5365
20
0.3654
0
VERTEX
8
CUT
10
134.3207
20
0.8217
0
VERTEX
8
CUT
10
129.1240
20
1.4598
0
VERTEX
8
CUT
10
123.9528
20
2.2788
0
VERTEX
8
CUT
10
118.8132
20
3.2779
0
VERTEX
8
CUT
10
113.7117
20
4.4556
0
VERTEX
8
CUT
10
108.6544
20
5.8107
0
VERTEX
8
CUT
10
103.6475
20
7.3415
0
VERTEX
8
CUT
10
98.6970
20
9.0461
0
VERTEX
8
CUT
10
93.8090
20
10.9224
0
VERTEX
8
CUT
10
88.9895
20
12.9682
0
VERTEX
8
CUT
10
84.2443
20
15.1809
0
VERTEX
8
CUT
10
79.5793
20
17.5579
0
VERTEX
8
CUT
10
75.0000
20
20.0962
0
VERTEX
8
CUT
10
70.5121
20
22.7928
0
VERTEX
8
CUT
10
66.1211
20
25.6444
0
VERTEX
8
CUT
10
61.8322
20
28.6475
0
VERTEX
8
CUT
10
57.6508
20
31.7984
0
VERTEX
8
CUT
10
53.5819
20
35.0933
0
VERTEX
8
CUT
10
49.6304
20
38.5283
0
VERTEX
8
CUT
10
45.8012
20
42.0990
0
VERTEX
8
CUT
10
42.0990
20
45.8012
0
VERTEX
8
CUT
10
38.5283
20
49.6304
0
VERTEX
8
CUT
10
35.0933
20
53.5819
0
VERTEX
8
CUT
10
31.7984
20
57.6508
0
VERTEX
8
CUT
10
28.6475
20
61.8322
0
VERTEX
8
CUT
10
25.6444
20
66.1211
0
VERTEX
8
CUT
10
22.7928
20
70.5121
0
VERTEX
8
CUT
10
20.0962
20
75.0000
0
VERTEX
8
CUT
10
17.5579
20
79.5793
0
VERTEX
8
CUT
10
15.1809
20
84.2443
0
VERTEX
8
CUT
10
12.9682
20
88.9895
0
VERTEX
8
CUT
10
10.9224
20
93.8090
0
VERTEX
8
CUT
10
9.0461
20
98.6970
0
VERTEX
8
CUT
10
7.3415
20
103.6475
0
VERTEX
8
CUT
10
5.8107
20
108.6544
0
VERTEX
8
CUT
10
4.4556
20
113.7117
0
VERTEX
8
CUT
10
3.2779
20
118.8132
0
VERTEX
8
CUT
10
2.2788
20
123.9528
0
VERTEX
8
CUT
10
1.4598
20
129.1240
0
VERTEX
8
CUT
10
0.8217
20
134.3207
0
VERTEX
8
CUT
10
0.3654
20
139.5365
0
VERTEX
8
CUT
10
0.0914
20
144.7651
0
VERTEX
8
CUT
10
0.0000
20
150.0000
0
VERTEX
8
CUT
10
0.0914
20
155.2349
0
VERTEX
8
CUT
10
0.3654
20
160.4635
0
VERTEX
8
CUT
10
0.8217
20
165.6793
0
VERTEX
8
CUT
10
1.4598
20
170.8760
0
VERTEX
8
CUT
10
2.2788
20
176.0472
0
VERTEX
8
CUT
10
3.2779
20
181.1868
0
VERTEX
8
CUT
10
4.4556
20
186.2883
0
VERTEX
8
CUT
10
5.8107
20
191.3456
0
VERTEX
8
CUT
10
7.3415
20
196.3525
0
VERTEX
8
CUT
10
9.0461
20
201.3030
0
VERTEX
8
CUT
10
10.9224
20
206.1910
0
VERTEX
8
CUT
10
12.9682
20
211.0105
0
VERTEX
8
CUT
10
15.1809
20
215.7557
0
VERTEX
8
CUT
10
17.5579
20
220.4207
0
VERTEX
8
CUT
10
20.0962
20
225.0000
0
VERTEX
8
CUT
10
22.7928
20
229.4879
0
VERTEX
8
CUT
10
25.6444
20
233.8789
0
VERTEX
8
CUT
10
28.6475
20
238.1678
0
VERTEX
8
CUT
10
31.7984
20
242.3492
0
VERTEX
8
CUT
10
35.0933
20
246.4181
0
VERTEX
8
CUT
10
38.5283
20
250.3696
0
VERTEX
8
CUT
10
42.0990
20
254.1988
0
VERTEX
8
CUT
10
45.8012
20
257.9010
0
VERTEX
8
CUT
10
49.6304
20
261.4717
0
VERTEX
8
CUT
10
53.5819
20
264.9067
0
VERTEX
8
CUT
10
57.6508
20
268.2016
0
VERTEX
8
CUT
10
61.8322
20
271.3525
0
VERTEX
8
CUT
10
66.1211
20
274.3556
0
VERTEX
8
CUT
10
70.5121
20
277.2072
0
VERTEX
8
CUT
10
75.0000
20
279.9038
0
VERTEX
8
CUT
10
79.5793
20
282.4421
0
VERTEX
8
CUT
10
84.2443
20
284.8191
0
VERTEX
8
CUT
10
88.9895
20
287.0318
0
VERTEX
8
CUT
10
93.8090
20
289.0776
0
VERTEX
8
CUT
10
98.6970
20
290.9539
0
VERTEX
8
CUT
10
103.6475
20
292.6585
0
VERTEX
8
CUT
10
108.6544
20
294.1893
0
VERTEX
8
CUT
10
113.7117
20
295.5444
0
VERTEX
8
CUT
10
118.8132
20
296.7221
0
VERTEX
8
CUT
10
123.9528
20
297.7212
0
VERTEX
8
CUT
10
129.1240
20
298.5402
0
VERTEX
8
CUT
10
134.3207
20
299.1783
0
VERTEX
8
CUT
10
139.5365
20
299.6346
0
VERTEX
8
CUT
10
144.7651
20
299.9086
0
VERTEX
8
CUT
10
150.0000
20
300.0000
0
VERTEX
8
CUT
10
155.2349
20
299.9086
0
VERTEX
8
CUT
10
160.4635
20
299.6346
0
VERTEX
8
CUT
10
165.6793
20
299.1783
0
VERTEX
8
CUT
10
170.8760
20
298.5402
0
VERTEX
8
CUT
10
176.0472
20
297.7212
0
VERTEX
8
CUT
10
181.1868
20
296.7221
0
VERTEX
8
CUT
10
186.2883
20
295.5444
0
VERTEX
8
CUT
10
191.3456
20
294.1893
0
VERTEX
8
CUT
10
196.3525
20
292.6585
0
VERTEX
8
CUT
10
201.3030
20
290.9539
0
VERTEX
8
CUT
10
206.1910
20
289.0776
0
VERTEX
8
CUT
10
211.0105
20
287.0318
0
VERTEX
8
CUT
10
215.7557
20
284.8191
0
VERTEX
8
CUT
10
220.4207
20
282.4421
0
VERTEX
8
CUT
10
225.0000
20
279.9038
0
VERTEX
8
CUT
10
229.4879
20
277.2072
0
VERTEX
8
CUT
10
233.8789
20
274.3556
0
VERTEX
8
CUT
10
238.1678
20
271.3525
0
VERTEX
8
CUT
10
242.3492
20
268.2016
0
VERTEX
8
CUT
10
246.4181
20
264.9067
0
VERTEX
8
CUT
10
250.3696
20
261.4717
0
VERTEX
8
CUT
10
254.1988
20
257.9010
0
VERTEX
8
CUT
10
257.9010
20
254.1988
0
VERTEX
8
CUT
10
261.4717
20
250.3696
0
VERTEX
8
CUT
10
264.9067
20
246.4181
0
VERTEX
8
CUT
10
268.2016
20
242.3492
0
VERTEX
8
CUT
10
271.3525
20
238.1678
0
VERTEX
8
CUT
10
274.3556
20
233.8789
0
VERTEX
8
CUT
10
277.2072
20
229.4879
0
VERTEX
8
CUT
10
279.9038
20
225.0000
0
VERTEX
8
CUT
10
282.4421
20
220.4207
0
VERTEX
8
CUT
10
284.8191
20
215.7557
0
VERTEX
8
CUT
10
287.0318
20
211.0105
0
VERTEX
8
CUT
10
289.0776
20
206.1910
0
VERTEX
8
CUT
10
290.9539
20
201.3030
0
VERTEX
8
CUT
10
292.6585
20
196.3525
0
VERTEX
8
CUT
10
294.1893
20
191.3456
0
VERTEX
8
CUT
10
295.5444
20
186.2883
0
VERTEX
8
CUT
10
296.7221
20
181.1868
0
VERTEX
8
CUT
10
297.7212
20
176.0472
0
VERTEX
8
CUT
10
298.5402
20
170.8760
0
VERTEX
8
CUT
10
299.1783
20
165.6793
0
VERTEX
8
CUT
10
299.6346
20
160.4635
0
VERTEX
8
CUT
10
299.9086
20
155.2349
0
SEQEND
0
POLYLINE
8
CUT
66
1
70
1
0
VERTEX
8
CUT
10
184.0000
20
150.0000
0
VERTEX
8
CUT
10
183.9793
20
148.8134
0
VERTEX
8
CUT
10
183.9172
20
147.6283
0
VERTEX
8
CUT
10
183.8137
20
146.4460
0
VERTEX
8
CUT
10
183.6691
20
145.2681
0
VERTEX
8
CUT
10
183.4835
20
144.0960
0
VERTEX
8
CUT
10
183.2570
20
142.9310
0
VERTEX
8
CUT
10
182.9901
20
141.7747
0
VERTEX
8
CUT
10
182.6829
20
140.6283
0
VERTEX
8
CUT
10
182.3359
20
139.4934
0
VERTEX
8
CUT
10
181.9495
20
138.3713
0
VERTEX
8
CUT
10
181.5243
20
137.2634
0
VERTEX
8
CUT
10
181.0605
20
136.1710
0
VERTEX
8
CUT
10
180.5590
20
135.0954
0
VERTEX
8
CUT
10
180.0202
20
134.0380
0
VERTEX
8
CUT
10
179.4449
20
133.0000
0
VERTEX
8
CUT
10
178.8336
20
131.9827
0
VERTEX
8
CUT
10
178.1873
20
130.9874
0
VERTEX
8
CUT
10
177.5066
20
130.0153
0
VERTEX
8
CUT
10
176.7924
20
129.0675
0
VERTEX
8
CUT
10
176.0455
20
128.1452
0
VERTEX
8
CUT
10
175.2669
20
127.2496
0
VERTEX
8
CUT
10
174.4576
20
126.3816
0
VERTEX
8
CUT
10
173.6184
20
125.5424
0
VERTEX
8
CUT
10
172.7504
20
124.7331
0
VERTEX
8
CUT
10
171.8548
20
123.9545
0
VERTEX
8
CUT
10
170.9325
20
123.2076
0
VERTEX
8
CUT
10
169.9847
20
122.4934
0
VERTEX
8
CUT
10
169.0126
20
121.8127
0
VERTEX
8
CUT
10
168.0173
20
121.1664
0
VERTEX
8
CUT
10
167.0000
20
120.5551
0
VERTEX
8
CUT
10
165.9620
20
119.9798
0
VERTEX
8
CUT
10
164.9046
20
119.4410
0
VERTEX
8
CUT
10
163.8290
20
118.9395
0
VERTEX
8
CUT
10
162.7366
20
118.4757
0
VERTEX
8
CUT
10
161.6287
20
118.0505
0
VERTEX
8
CUT
10
160.5066
20
117.6641
0
VERTEX
8
CUT
10
159.3717
20
117.3171
0
VERTEX
8
CUT
10
158.2253
20
117.0099
0
VERTEX
8
CUT
10
157.0690
20
116.7430
0
VERTEX
8
CUT
10
155.9040
20
116.5165
0
VERTEX
8
CUT
10
154.7319
20
116.3309
0
VERTEX
8
CUT
10
153.5540
20
116.1863
0
VERTEX
8
CUT
10
152.3717
20
116.0828
0
VERTEX
8
CUT
10
151.1866
20
116.0207
0
VERTEX
8
CUT
10
150.0000
20
116.0000
0
VERTEX
8
CUT
10
148.8134
20
116.0207
0
VERTEX
8
CUT
10
147.6283
20
116.0828
0
VERTEX
8
CUT
10
146.4460
20
116.1863
0
VERTEX
8
CUT
10
145.2681
20
116.3309
0
VERTEX
8
CUT
10
144.0960
20
116.5165
0
VERTEX
8
CUT
10
142.9310
20
116.7430
0
VERTEX
8
CUT
10
141.7747
20
117.0099
0
VERTEX
8
CUT
10
140.6283
20
117.3171
0
VERTEX
8
CUT
10
139.4934
20
117.6641
0
VERTEX
8
CUT
10
138.3713
20
118.0505
0
VERTEX
8
CUT
10
137.2634
20
118.4757
0
VERTEX
8
CUT
10
136.1710
20
118.9395
0
VERTEX
8
CUT
10
135.0954
20
119.4410
0
VERTEX
8
CUT
10
134.0380
20
119.9798
0
VERTEX
8
CUT
10
133.0000
20
120.5551
0
VERTEX
8
CUT
10
131.9827
20
121.1664
0
VERTEX
8
CUT
10
130.9874
20
121.8127
0
VERTEX
8
CUT
10
130.0153
20
122.4934
0
VERTEX
8
CUT
10
129.0675
20
123.2076
0
VERTEX
8
CUT
10
128.1452
20
123.9545
0
VERTEX
8
CUT
10
127.2496
20
124.7331
0
VERTEX
8
CUT
10
126.3816
20
125.5424
0
VERTEX
8
CUT
10
125.5424
20
126.3816
0
VERTEX
8
CUT
10
124.7331
20
127.2496
0
VERTEX
8
CUT
10
123.9545
20
128.1452
0
VERTEX
8
CUT
10
123.2076
20
129.0675
0
VERTEX
8
CUT
10
122.4934
20
130.0153
0
VERTEX
8
CUT
10
121.8127
20
130.9874
0
VERTEX
8
CUT
10
121.1664
20
131.9827
0
VERTEX
8
CUT
10
120.5551
20
133.0000
0
VERTEX
8
CUT
10
119.9798
20
134.0380
0
VERTEX
8
CUT
10
119.4410
20
135.0954
0
VERTEX
8
CUT
10
118.9395
20
136.1710
0
VERTEX
8
CUT
10
118.4757
20
137.2634
0
VERTEX
8
CUT
10
118.0505
20
138.3713
0
VERTEX
8
CUT
10
117.6641
20
139.4934
0
VERTEX
8
CUT
10
117.3171
20
140.6283
0
VERTEX
8
CUT
10
117.0099
20
141.7747
0
VERTEX
8
CUT
10
116.7430
20
142.9310
0
VERTEX
8
CUT
10
116.5165
20
144.0960
0
VERTEX
8
CUT
10
116.3309
20
145.2681
0
VERTEX
8
CUT
10
116.1863
20
146.4460
0
VERTEX
8
CUT
10
116.0828
20
147.6283
0
VERTEX
8
CUT
10
116.0207
20
148.8134
0
VERTEX
8
CUT
10
116.0000
20
150.0000
0
VERTEX
8
CUT
10
116.0207
20
151.1866
0
VERTEX
8
CUT
10
116.0828
20
152.3717
0
VERTEX
8
CUT
10
116.1863
20
153.5540
0
VERTEX
8
CUT
10
116.3309
20
154.7319
0
VERTEX
8
CUT
10
116.5165
20
155.9040
0
VERTEX
8
CUT
10
116.7430
20
157.0690
0
VERTEX
8
CUT
10
117.0099
20
158.2253
0
VERTEX
8
CUT
10
117.3171
20
159.3717
0
VERTEX
8
CUT
10
117.6641
20
160.5066
0
VERTEX
8
CUT
10
118.0505
20
161.6287
0
VERTEX
8
CUT
10
118.4757
20
162.7366
0
VERTEX
8
CUT
10
118.9395
20
163.8290
0
VERTEX
8
CUT
10
119.4410
20
164.9046
0
VERTEX
8
CUT
10
119.9798
20
165.9620
0
VERTEX
8
CUT
10
120.5551
20
167.0000
0
VERTEX
8
CUT
10
121.1664
20
168.0173
0
VERTEX
8
CUT
10
121.8127
20
169.0126
0
VERTEX
8
CUT
10
122.4934
20
169.9847
0
VERTEX
8
CUT
10
123.2076
20
170.9325
0
VERTEX
8
CUT
10
123.9545
20
171.8548
0
VERTEX
8
CUT
10
124.7331
20
172.7504
0
VERTEX
8
CUT
10
125.5424
20
173.6184
0
VERTEX
8
CUT
10
126.3816
20
174.4576
0
VERTEX
8
CUT
10
127.2496
20
175.2669
0
VERTEX
8
CUT
10
128.1452
20
176.0455
0
VERTEX
8
CUT
10
129.0675
20
176.7924
0
VERTEX
8
CUT
10
130.0153
20
177.5066
0
VERTEX
8
CUT
10
130.9874
20
178.1873
0
VERTEX
8
CUT
10
131.9827
20
178.8336
0
VERTEX
8
CUT
10
133.0000
20
179.4449
0
VERTEX
8
CUT
10
134.0380
20
180.0202
0
VERTEX
8
CUT
10
135.0954
20
180.5590
0
VERTEX
8
CUT
10
136.1710
20
181.0605
0
VERTEX
8
CUT
10
137.2634
20
181.5243
0
VERTEX
8
CUT
10
138.3713
20
181.9495
0
VERTEX
8
CUT
10
139.4934
20
182.3359
0
VERTEX
8
CUT
10
140.6283
20
182.6829
0
VERTEX
8
CUT
10
141.7747
20
182.9901
0
VERTEX
8
CUT
10
142.9310
20
183.2570
0
VERTEX
8
CUT
10
144.0960
20
183.4835
0
VERTEX
8
CUT
10
145.2681
20
183.6691
0
VERTEX
8
CUT
10
146.4460
20
183.8137
0
VERTEX
8
CUT
10
147.6283
20
183.9172
0
VERTEX
8
CUT
10
148.8134
20
183.9793
0
VERTEX
8
CUT
10
150.0000
20
184.0000
0
VERTEX
8
CUT
10
151.1866
20
183.9793
0
VERTEX
8
CUT
10
152.3717
20
183.9172
0
VERTEX
8
CUT
10
153.5540
20
183.8137
0
VERTEX
8
CUT
10
154.7319
20
183.6691
0
VERTEX
8
CUT
10
155.9040
20
183.4835
0
VERTEX
8
CUT
10
157.0690
20
183.2570
0
VERTEX
8
CUT
10
158.2253
20
182.9901
0
VERTEX
8
CUT
10
159.3717
20
182.6829
0
VERTEX
8
CUT
10
160.5066
20
182.3359
0
VERTEX
8
CUT
10
161.6287
20
181.9495
0
VERTEX
8
CUT
10
162.7366
20
181.5243
0
VERTEX
8
CUT
10
163.8290
20
181.0605
0
VERTEX
8
CUT
10
164.9046
20
180.5590
0
VERTEX
8
CUT
10
165.9620
20
180.0202
0
VERTEX
8
CUT
10
167.0000
20
179.4449
0
VERTEX
8
CUT
10
168.0173
20
178.8336
0
VERTEX
8
CUT
10
169.0126
20
178.1873
0
VERTEX
8
CUT
10
169.9847
20
177.5066
0
VERTEX
8
CUT
10
170.9325
20
176.7924
0
VERTEX
8
CUT
10
171.8548
20
176.0455
0
VERTEX
8
CUT
10
172.7504
20
175.2669
0
VERTEX
8
CUT
10
173.6184
20
174.4576
0
VERTEX
8
CUT
10
174.4576
20
173.6184
0
VERTEX
8
CUT
10
175.2669
20
172.7504
0
VERTEX
8
CUT
10
176.0455
20
171.8548
0
VERTEX
8
CUT
10
176.7924
20
170.9325
0
VERTEX
8
CUT
10
177.5066
20
169.9847
0
VERTEX
8
CUT
10
178.1873
20
169.0126
0
VERTEX
8
CUT
10
178.8336
20
168.0173
0
VERTEX
8
CUT
10
179.4449
20
167.0000
0
VERTEX
8
CUT
10
180.0202
20
165.9620
0
VERTEX
8
CUT
10
180.5590
20
164.9046
0
VERTEX
8
CUT
10
181.0605
20
163.8290
0
VERTEX
8
CUT
10
181.5243
20
162.7366
0
VERTEX
8
CUT
10
181.9495
20
161.6287
0
VERTEX
8
CUT
10
182.3359
20
160.5066
0
VERTEX
8
CUT
10
182.6829
20
159.3717
0
VERTEX
8
CUT
10
182.9901
20
158.2253
0
VERTEX
8
CUT
10
183.2570
20
157.0690
0
VERTEX
8
CUT
10
183.4835
20
155.9040
0
VERTEX
8
CUT
10
183.6691
20
154.7319
0
VERTEX
8
CUT
10
183.8137
20
153.5540
0
VERTEX
8
CUT
10
183.9172
20
152.3717
0
VERTEX
8
CUT
10
183.9793
20
151.1866
0
SEQEND
0
POLYLINE
8
CUT
66
1
70
1
0
VERTEX
8
CUT
10
202.9770
20
148.4374
0
VERTEX
8
CUT
10
202.9542
20
147.7972
0
VERTEX
8
CUT
10
202.9237
20
147.1573
0
VERTEX
8
CUT
10
202.8855
20
146.5178
0
VERTEX
8
CUT
10
202.8395
20
145.8789
0
VERTEX
8
CUT
10
202.7859
20
145.2405
0
VERTEX
8
CUT
10
202.7245
20
144.6028
0
VERTEX
8
CUT
10
202.6554
20
143.9660
0
VERTEX
8
CUT
10
202.5786
20
143.3300
0
VERTEX
8
CUT
10
202.4942
20
142.6949
0
VERTEX
8
CUT
10
202.4020
20
142.0610
0
VERTEX
8
CUT
10
202.3022
20
141.4282
0
VERTEX
8
CUT
10
202.1948
20
140.7966
0
VERTEX
8
CUT
10
202.0798
20
140.1664
0
VERTEX
8
CUT
10
201.9571
20
139.5377
0
VERTEX
8
CUT
10
201.8268
20
138.9105
0
VERTEX
8
CUT
10
201.6890
20
138.2848
0
VERTEX
8
CUT
10
201.5436
20
137.6609
0
VERTEX
8
CUT
10
201.3907
20
137.0388
0
VERTEX
8
CUT
10
201.2303
20
136.4186
0
VERTEX
8
CUT
10
201.0624
20
135.8004
0
VERTEX
8
CUT
10
200.8871
20
135.1843
0
VERTEX
8
CUT
10
200.7043
20
134.5703
0
VERTEX
8
CUT
10
200.5141
20
133.9586
0
VERTEX
8
CUT
10
200.3165
20
133.3492
0
VERTEX
8
CUT
10
187.0253
20
137.7475
0
VERTEX
8
CUT
10
187.1707
20
138.1959
0
VERTEX
8
CUT
10
187.3107
20
138.6461
0
VERTEX
8
CUT
10
187.4452
20
139.0979
0
VERTEX
8
CUT
10
187.5742
20
139.5512
0
VERTEX
8
CUT
10
187.6978
20
140.0062
0
VERTEX
8
CUT
10
187.8158
20
140.4625
0
VERTEX
8
CUT
10
187.9283
20
140.9203
0
VERTEX
8
CUT
10
188.0353
20
141.3794
0
VERTEX
8
CUT
10
188.1367
20
141.8398
0
VERTEX
8
CUT
10
188.2326
20
142.3013
0
VERTEX
8
CUT
10
188.3228
20
142.7640
0
VERTEX
8
CUT
10
188.4075
20
143.2277
0
VERTEX
8
CUT
10
188.4866
20
143.6924
0
VERTEX
8
CUT
10
188.5600
20
144.1581
0
VERTEX
8
CUT
10
188.6278
20
144.6246
0
VERTEX
8
CUT
10
188.6899
20
145.0919
0
VERTEX
8
CUT
10
188.7464
20
145.5599
0
VERTEX
8
CUT
10
188.7973
20
146.0285
0
VERTEX
8
CUT
10
188.8424
20
146.4977
0
VERTEX
8
CUT
10
188.8819
20
146.9675
0
VERTEX
8
CUT
10
188.9157
20
147.4377
0
VERTEX
8
CUT
10
188.9439
20
147.9082
0
VERTEX
8
CUT
10
188.9663
20
148.3791
0
VERTEX
8
CUT
10
188.9830
20
148.8502
0
SEQEND
0
POLYLINE
8
CUT
66
1
70
1
0
VERTEX
8
CUT
10
199.2476
20
130.4125
0
VERTEX
8
CUT
10
199.0073
20
129.8186
0
VERTEX
8
CUT
10
198.7598
20
129.2278
0
VERTEX
8
CUT
10
198.5051
20
128.6399
0
VERTEX
8
CUT
10
198.2434
20
128.0552
0
VERTEX
8
CUT
10
197.9746
20
127.4737
0
VERTEX
8
CUT
10
197.6989
20
126.8955
0
VERTEX
8
CUT
10
197.4161
20
126.3207
0
VERTEX
8
CUT
10
197.1264
20
125.7493
0
VERTEX
8
CUT
10
196.8299
20
125.1814
0
VERTEX
8
CUT
10
196.5265
20
124.6172
0
VERTEX
8
CUT
10
196.2163
20
124.0567
0
VERTEX
8
CUT
10
195.8993
20
123.5000
0
VERTEX
8
CUT
10
195.5757
20
122.9472
0
VERTEX
8
CUT
10
195.2454
20
122.3983
0
VERTEX
8
CUT
10
194.9085
20
121.8534
0
VERTEX
8
CUT
10
194.5650
20
121.3127
0
VERTEX
8
CUT
10
194.2150
20
120.7761
0
VERTEX
8
CUT
10
193.8585
20
120.2438
0
VERTEX
8
CUT
10
193.4957
20
119.7159
0
VERTEX
8
CUT
10
193.1264
20
119.1924
0
VERTEX
8
CUT
10
192.7509
20
118.6734
0
VERTEX
8
CUT
10
192.3692
20
118.1589
0
VERTEX
8
CUT
10
191.9812
20
117.6491
0
VERTEX
8
CUT
10
191.5871
20
117.1441
0
VERTEX
8
CUT
10
180.6018
20
125.8230
0
VERTEX
8
CUT
10
180.8918
20
126.1947
0
VERTEX
8
CUT
10
181.1773
20
126.5698
0
VERTEX
8
CUT
10
181.4582
20
126.9483
0
VERTEX
8
CUT
10
181.7346
20
127.3302
0
VERTEX
8
CUT
10
182.0062
20
127.7155
0
VERTEX
8
CUT
10
182.2733
20
128.1039
0
VERTEX
8
CUT
10
182.5355
20
128.4956
0
VERTEX
8
CUT
10
182.7931
20
128.8905
0
VERTEX
8
CUT
10
183.0458
20
129.2884
0
VERTEX
8
CUT
10
183.2938
20
129.6893
0
VERTEX
8
CUT
10
183.5368
20
130.0932
0
VERTEX
8
CUT
10
183.7750
20
130.5000
0
VERTEX
8
CUT
10
184.0082
20
130.9097
0
VERTEX
8
CUT
10
184.2365
20
131.3221
0
VERTEX
8
CUT
10
184.4597
20
131.7373
0
VERTEX
8
CUT
10
184.6780
20
132.1551
0
VERTEX
8
CUT
10
184.8911
20
132.5756
0
VERTEX
8
CUT
10
185.0992
20
132.9986
0
VERTEX
8
CUT
10
185.3021
20
133.4241
0
VERTEX
8
CUT
10
185.4999
20
133.8520
0
VERTEX
8
CUT
10
185.6925
20
134.2822
0
VERTEX
8
CUT
10
185.8798
20
134.7148
0
VERTEX
8
CUT
10
186.0620
20
135.1496
0
VERTEX
8
CUT
10
186.2388
20
135.5865
0
SEQEND
0
POLYLINE
8
CUT
66
1
70
1
0
VERTEX
8
CUT
10
189.5783
20
114.7500
0
VERTEX
8
CUT
10
189.1493
20
114.2742
0
VERTEX
8
CUT
10
188.7147
20
113.8037
0
VERTEX
8
CUT
10
188.2743
20
113.3384
0
VERTEX
8
CUT
10
187.8284
20
112.8784
0
VERTEX
8
CUT
10
187.3770
20
112.4239
0
VERTEX
8
CUT
10
186.9201
20
111.9749
0
VERTEX
8
CUT
10
186.4578
20
111.5314
0
VERTEX
8
CUT
10
185.9901
20
111.0936
0
VERTEX
8
CUT
10
185.5173
20
110.6614
0
VERTEX
8
CUT
10
185.0392
20
110.2350
0
VERTEX
8
CUT
10
184.5560
20
109.8144
0
VERTEX
8
CUT
10
184.0677
20
109.3996
0
VERTEX
8
CUT
10
183.5745
20
108.9908
0
VERTEX
8
CUT
10
183.0764
20
108.5880
0
VERTEX
8
CUT
10
182.5734
20
108.1913
0
VERTEX
8
CUT
10
182.0657
20
107.8006
0
VERTEX
8
CUT
10
181.5533
20
107.4161
0
VERTEX
8
CUT
10
181.0363
20
107.0378
0
VERTEX
8
CUT
10
180.5148
20
106.6658
0
VERTEX
8
CUT
10
179.9888
20
106.3002
0
VERTEX
8
CUT
10
179.4584
20
105.9409
0
VERTEX
8
CUT
10
178.9237
20
105.5881
0
VERTEX
8
CUT
10
178.3848
20
105.2417
0
VERTEX
8
CUT
10
177.8417
20
104.9019
0
VERTEX
8
CUT
10
170.4873
20
116.8146
0
VERTEX
8
CUT
10
170.8869
20
117.0647
0
VERTEX
8
CUT
10
171.2835
20
117.3195
0
VERTEX
8
CUT
10
171.6769
20
117.5792
0
VERTEX
8
CUT
10
172.0672
20
117.8435
0
VERTEX
8
CUT
10
172.4543
20
118.1126
0
VERTEX
8
CUT
10
172.8380
20
118.3863
0
VERTEX
8
CUT
10
173.2185
20
118.6647
0
VERTEX
8
CUT
10
173.5955
20
118.9476
0
VERTEX
8
CUT
10
173.9691
20
119.2351
0
VERTEX
8
CUT
10
174.3392
20
119.5270
0
VERTEX
8
CUT
10
174.7058
20
119.8234
0
VERTEX
8
CUT
10
175.0687
20
120.1243
0
VERTEX
8
CUT
10
175.4280
20
120.4295
0
VERTEX
8
CUT
10
175.7835
20
120.7390
0
VERTEX
8
CUT
10
176.1353
20
121.0527
0
VERTEX
8
CUT
10
176.4833
20
121.3707
0
VERTEX
8
CUT
10
176.8274
20
121.6929
0
VERTEX
8
CUT
10
177.1676
20
122.0193
0
VERTEX
8
CUT
10
177.5038
20
122.3497
0
VERTEX
8
CUT
10
177.8360
20
122.6841
0
VERTEX
8
CUT
10
178.1641
20
123.0226
0
VERTEX
8
CUT
10
178.4882
20
123.3650
0
VERTEX
8
CUT
10
178.8080
20
123.7112
0
VERTEX
8
CUT
10
179.1236
20
124.0614
0
SEQEND
0
POLYLINE
8
CUT
66
1
70
1
0
VERTEX
8
CUT
10
175.1352
20
103.3393
0
VERTEX
8
CUT
10
174.5694
20
103.0389
0
VERTEX
8
CUT
10
174.0000
20
102.7454
0
VERTEX
8
CUT
10
173.4271
20
102.4587
0
VERTEX
8
CUT
10
172.8508
20
102.1791
0
VERTEX
8
CUT
10
172.2711
20
101.9064
0
VERTEX
8
CUT
10
171.6882
20
101.6407
0
VERTEX
8
CUT
10
171.1021
20
101.3821
0
VERTEX
8
CUT
10
170.5129
20
101.1306
0
VERTEX
8
CUT
10
169.9207
20
100.8862
0
VERTEX
8
CUT
10
169.3256
20
100.6490
0
VERTEX
8
CUT
10
168.7277
20
100.4190
0
VERTEX
8
CUT
10
168.1271
20
100.1963
0
VERTEX
8
CUT
10
167.5238
20
99.9808
0
VERTEX
8
CUT
10
166.9179
20
99.7727
0
VERTEX
8
CUT
10
166.3096
20
99.5719
0
VERTEX
8
CUT
10
165.6989
20
99.3784
0
VERTEX
8
CUT
10
165.0859
20
99.1924
0
VERTEX
8
CUT
10
164.4707
20
99.0137
0
VERTEX
8
CUT
10
163.8534
20
98.8426
0
VERTEX
8
CUT
10
163.2340
20
98.6788
0
VERTEX
8
CUT
10
162.6127
20
98.5226
0
VERTEX
8
CUT
10
161.9896
20
98.3739
0
VERTEX
8
CUT
10
161.3647
20
98.2328
0
VERTEX
8
CUT
10
160.7382
20
98.0992
0
VERTEX
8
CUT
10
157.9017
20
111.8089
0
VERTEX
8
CUT
10
158.3627
20
111.9072
0
VERTEX
8
CUT
10
158.8225
20
112.0110
0
VERTEX
8
CUT
10
159.2811
20
112.1204
0
VERTEX
8
CUT
10
159.7382
20
112.2354
0
VERTEX
8
CUT
10
160.1940
20
112.3558
0
VERTEX
8
CUT
10
160.6482
20
112.4818
0
VERTEX
8
CUT
10
161.1009
20
112.6132
0
VERTEX
8
CUT
10
161.5520
20
112.7502
0
VERTEX
8
CUT
10
162.0014
20
112.8925
0
VERTEX
8
CUT
10
162.4490
20
113.0403
0
VERTEX
8
CUT
10
162.8949
20
113.1934
0
VERTEX
8
CUT
10
163.3388
20
113.3520
0
VERTEX
8
CUT
10
163.7808
20
113.5159
0
VERTEX
8
CUT
10
164.2207
20
113.6851
0
VERTEX
8
CUT
10
164.6586
20
113.8597
0
VERTEX
8
CUT
10
165.0944
20
114.0395
0
VERTEX
8
CUT
10
165.5279
20
114.2245
0
VERTEX
8
CUT
10
165.9592
20
114.4148
0
VERTEX
8
CUT
10
166.3882
20
114.6103
0
VERTEX
8
CUT
10
166.8147
20
114.8110
0
VERTEX
8
CUT
10
167.2388
20
115.0168
0
VERTEX
8
CUT
10
167.6604
20
115.2277
0
VERTEX
8
CUT
10
168.0794
20
115.4437
0
VERTEX
8
CUT
10
168.4957
20
115.6648
0
SEQEND
0
POLYLINE
8
CUT
66
1
70
1
0
VERTEX
8
CUT
10
157.6605
20
97.5565
0
VERTEX
8
CUT
10
157.0261
20
97.4678
0
VERTEX
8
CUT
10
156.3906
20
97.3867
0
VERTEX
8
CUT
10
155.7542
20
97.3133
0
VERTEX
8
CUT
10
155.1170
20
97.2476
0
VERTEX
8
CUT
10
154.4790
20
97.1896
0
VERTEX
8
CUT
10
153.8403
20
97.1393
0
VERTEX
8
CUT
10
153.2011
20
97.0968
0
VERTEX
8
CUT
10
152.5615
20
97.0619
0
VERTEX
8
CUT
10
151.9214
20
97.0348
0
VERTEX
8
CUT
10
151.2811
20
97.0155
0
VERTEX
8
CUT
10
150.6406
20
97.0039
0
VERTEX
8
CUT
10
150.0000
20
97.0000
0
VERTEX
8
CUT
10
149.3594
20
97.0039
0
VERTEX
8
CUT
10
148.7189
20
97.0155
0
VERTEX
8
CUT
10
148.0786
20
97.0348
0
VERTEX
8
CUT
10
147.4385
20
97.0619
0
VERTEX
8
CUT
10
146.7989
20
97.0968
0
VERTEX
8
CUT
10
146.1597
20
97.1393
0
VERTEX
8
CUT
10
145.5210
20
97.1896
0
VERTEX
8
CUT
10
144.8830
20
97.2476
0
VERTEX
8
CUT
10
144.2458
20
97.3133
0
VERTEX
8
CUT
10
143.6094
20
97.3867
0
VERTEX
8
CUT
10
142.9739
20
97.4678
0
VERTEX
8
CUT
10
142.3395
20
97.5565
0
VERTEX
8
CUT
10
144.3630
20
111.4095
0
VERTEX
8
CUT
10
144.8299
20
111.3442
0
VERTEX
8
CUT
10
145.2975
20
111.2845
0
VERTEX
8
CUT
10
145.7658
20
111.2305
0
VERTEX
8
CUT
10
146.2347
20
111.1822
0
VERTEX
8
CUT
10
146.7041
20
111.1395
0
VERTEX
8
CUT
10
147.1741
20
111.1025
0
VERTEX
8
CUT
10
147.6444
20
111.0712
0
VERTEX
8
CUT
10
148.1151
20
111.0456
0
VERTEX
8
CUT
10
148.5861
20
111.0256
0
VERTEX
8
CUT
10
149.0573
20
111.0114
0
VERTEX
8
CUT
10
149.5286
20
111.0028
0
VERTEX
8
CUT
10
150.0000
20
111.0000
0
VERTEX
8
CUT
10
150.4714
20
111.0028
0
VERTEX
8
CUT
10
150.9427
20
111.0114
0
VERTEX
8
CUT
10
151.4139
20
111.0256
0
VERTEX
8
CUT
10
151.8849
20
111.0456
0
VERTEX
8
CUT
10
152.3556
20
111.0712
0
VERTEX
8
CUT
10
152.8259
20
111.1025
0
VERTEX
8
CUT
10
153.2959
20
111.1395
0
VERTEX
8
CUT
10
153.7653
20
111.1822
0
VERTEX
8
CUT
10
154.2342
20
111.2305
0
VERTEX
8
CUT
10
154.7025
20
111.2845
0
VERTEX
8
CUT
10
155.1701
20
111.3442
0
VERTEX
8
CUT
10
155.6370
20
111.4095
0
SEQEND
0
POLYLINE
8
CUT
66
1
70
1
0
VERTEX
8
CUT
10
139.2618
20
98.0992
0
VERTEX
8
CUT
10
138.6353
20
98.2328
0
VERTEX
8
CUT
10
138.0104
20
98.3739
0
VERTEX
8
CUT
10
137.3873
20
98.5226
0
VERTEX
8
CUT
10
136.7660
20
98.6788
0
VERTEX
8
CUT
10
136.1466
20
98.8426
0
VERTEX
8
CUT
10
135.5293
20
99.0137
0
VERTEX
8
CUT
10
134.9141
20
99.1924
0
VERTEX
8
CUT
10
134.3011
20
99.3784
0
VERTEX
8
CUT
10
133.6904
20
99.5719
0
VERTEX
8
CUT
10
133.0821
20
99.7727
0
VERTEX
8
CUT
10
132.4762
20
99.9808
0
VERTEX
8
CUT
10
131.8729
20
100.1963
0
VERTEX
8
CUT
10
131.2723
20
100.4190
0
VERTEX
8
CUT
10
130.6744
20
100.6490
0
VERTEX
8
CUT
10
130.0793
20
100.8862
0
VERTEX
8
CUT
10
129.4871
20
101.1306
0
VERTEX
8
CUT
10
128.8979
20
101.3821
0
VERTEX
8
CUT
10
128.3118
20
101.6407
0
VERTEX
8
CUT
10
127.7289
20
101.9064
0
VERTEX
8
CUT
10
127.1492
20
102.1791
0
VERTEX
8
CUT
10
126.5729
20
102.4587
0
VERTEX
8
CUT
10
126.0000
20
102.7454
0
VERTEX
8
CUT
10
125.4306
20
103.0389
0
VERTEX
8
CUT
10
124.8648
20
103.3393
0
VERTEX
8
CUT
10
131.5043
20
115.6648
0
VERTEX
8
CUT
10
131.9206
20
115.4437
0
VERTEX
8
CUT
10
132.3396
20
115.2277
0
VERTEX
8
CUT
10
132.7612
20
115.0168
0
VERTEX
8
CUT
10
133.1853
20
114.8110
0
VERTEX
8
CUT
10
133.6118
20
114.6103
0
VERTEX
8
CUT
10
134.0408
20
114.4148
0
VERTEX
8
CUT
10
134.4721
20
114.2245
0
VERTEX
8
CUT
10
134.9056
20
114.0395
0
VERTEX
8
CUT
10
135.3414
20
113.8597
0
VERTEX
8
CUT
10
135.7793
20
113.6851
0
VERTEX
8
CUT
10
136.2192
20
113.5159
0
VERTEX
8
CUT
10
136.6612
20
113.3520
0
VERTEX
8
CUT
10
137.1051
20
113.1934
0
VERTEX
8
CUT
10
137.5510
20
113.0403
0
VERTEX
8
CUT
10
137.9986
20
112.8925
0
VERTEX
8
CUT
10
138.4480
20
112.7502
0
VERTEX
8
CUT
10
138.8991
20
112.6132
0
VERTEX
8
CUT
10
139.3518
20
112.4818
0
VERTEX
8
CUT
10
139.8060
20
112.3558
0
VERTEX
8
CUT
10
140.2618
20
112.2354
0
VERTEX
8
CUT
10
140.7189
20
112.1204
0
VERTEX
8
CUT
10
141.1775
20
112.0110
0
VERTEX
8
CUT
10
141.6373
20
111.9072
0
VERTEX
8
CUT
10
142.0983
20
111.8089
0
SEQEND
0
POLYLINE
8
CUT
66
1
70
1
0
VERTEX
8
CUT
10
122.1583
20
104.9019
0
VERTEX
8
CUT
10
121.6152
20
105.2417
0
VERTEX
8
CUT
10
121.0763
20
105.5881
0
VERTEX
8
CUT
10
120.5416
20
105.9409
0
VERTEX
8
CUT
10
120.0112
20
106.3002
0
VERTEX
8
CUT
10
119.4852
20
106.6658
0
VERTEX
8
CUT
10
118.9637
20
107.0378
0
VERTEX
8
CUT
10
118.4467
20
107.4161
0
VERTEX
8
CUT
10
117.9343
20
107.8006
0
VERTEX
8
CUT
10
117.4266
20
108.1913
0
VERTEX
8
CUT
10
116.9236
20
108.5880
0
VERTEX
8
CUT
10
116.4255
20
108.9908
0
VERTEX
8
CUT
10
115.9323
20
109.3996
0
VERTEX
8
CUT
10
115.4440
20
109.8144
0
VERTEX
8
CUT
10
114.9608
20
110.2350
0
VERTEX
8
CUT
10
114.4827
20
110.6614
0
VERTEX
8
CUT
10
114.0099
20
111.0936
0
VERTEX
8
CUT
10
113.5422
20
111.5314
0
VERTEX
8
CUT
10
113.0799
20
111.9749
0
VERTEX
8
CUT
10
112.6230
20
112.4239
0
VERTEX
8
CUT
10
112.1716
20
112.8784
0
VERTEX
8
CUT
10
111.7257
20
113.3384
0
VERTEX
8
CUT
10
111.2853
20
113.8037
0
VERTEX
8
CUT
10
110.8507
20
114.2742
0
VERTEX
8
CUT
10
110.4217
20
114.7500
0
VERTEX
8
CUT
10
120.8764
20
124.0614
0
VERTEX
8
CUT
10
121.1920
20
123.7112
0
VERTEX
8
CUT
10
121.5118
20
123.3650
0
VERTEX
8
CUT
10
121.8359
20
123.0226
0
VERTEX
8
CUT
10
122.1640
20
122.6841
0
VERTEX
8
CUT
10
122.4962
20
122.3497
0
VERTEX
8
CUT
10
122.8324
20
122.0193
0
VERTEX
8
CUT
10
123.1726
20
121.6929
0
VERTEX
8
CUT
10
123.5167
20
121.3707
0
VERTEX
8
CUT
10
123.8647
20
121.0527
0
VERTEX
8
CUT
10
124.2165
20
120.7390
0
VERTEX
8
CUT
10
124.5720
20
120.4295
0
VERTEX
8
CUT
10
124.9313
20
120.1243
0
VERTEX
8
CUT
10
125.2942
20
119.8234
0
VERTEX
8
CUT
10
125.6608
20
119.5270
0
VERTEX
8
CUT
10
126.0309
20
119.2351
0
VERTEX
8
CUT
10
126.4045
20
118.9476
0
VERTEX
8
CUT
10
126.7815
20
118.6647
0
VERTEX
8
CUT
10
127.1620
20
118.3863
0
VERTEX
8
CUT
10
127.5457
20
118.1126
0
VERTEX
8
CUT
10
127.9328
20
117.8435
0
VERTEX
8
CUT
10
128.3231
20
117.5792
0
VERTEX
8
CUT
10
128.7165
20
117.3195
0
VERTEX
8
CUT
10
129.1131
20
117.0647
0
VERTEX
8
CUT
10
129.5127
20
116.8146
0
SEQEND
0
POLYLINE
8
CUT
66
1
70
1
0
VERTEX
8
CUT
10
108.4129
20
117.1441
0
VERTEX
8
CUT
10
108.0188
20
117.6491
0
VERTEX
8
CUT
10
107.6308
20
118.1589
0
VERTEX
8
CUT
10
107.2491
20
118.6734
0
VERTEX
8
CUT
10
106.8736
20
119.1924
0
VERTEX
8
CUT
10
106.5043
20
119.7159
0
VERTEX
8
CUT
10
106.1415
20
120.2438
0
VERTEX
8
CUT
10
105.7850
20
120.7761
0
VERTEX
8
CUT
10
105.4350
20
121.3127
0
VERTEX
8
CUT
10
105.0915
20
121.8534
0
VERTEX
8
CUT
10
104.7546
20
122.3983
0
VERTEX
8
CUT
10
104.4243
20
122.9472
0
VERTEX
8
CUT
10
104.1007
20
123.5000
0
VERTEX
8
CUT
10
103.7837
20
124.0567
0
VERTEX
8
CUT
10
103.4735
20
124.6172
0
VERTEX
8
CUT
10
103.1701
20
125.1814
0
VERTEX
8
CUT
10
102.8736
20
125.7493
0
VERTEX
8
CUT
10
102.5839
20
126.3207
0
VERTEX
8
CUT
10
102.3011
20
126.8955
0
VERTEX
8
CUT
10
102.0254
20
127.4737
0
VERTEX
8
CUT
10
101.7566
20
128.0552
0
VERTEX
8
CUT
10
101.4949
20
128.6399
0
VERTEX
8
CUT
10
101.2402
20
129.2278
0
VERTEX
8
CUT
10
100.9927
20
129.8186
0
VERTEX
8
CUT
10
100.7524
20
130.4125
0
VERTEX
8
CUT
10
113.7612
20
135.5865
0
VERTEX
8
CUT
10
113.9380
20
135.1496
0
VERTEX
8
CUT
10
114.1202
20
134.7148
0
VERTEX
8
CUT
10
114.3075
20
134.2822
0
VERTEX
8
CUT
10
114.5001
20
133.8520
0
VERTEX
8
CUT
10
114.6979
20
133.4241
0
VERTEX
8
CUT
10
114.9008
20
132.9986
0
VERTEX
8
CUT
10
115.1089
20
132.5756
0
VERTEX
8
CUT
10
115.3220
20
132.1551
0
VERTEX
8
CUT
10
115.5403
20
131.7373
0
VERTEX
8
CUT
10
115.7635
20
131.3221
0
VERTEX
8
CUT
10
115.9918
20
130.9097
0
VERTEX
8
CUT
10
116.2250
20
130.5000
0
VERTEX
8
CUT
10
116.4632
20
130.0932
0
VERTEX
8
CUT
10
116.7062
20
129.6893
0
VERTEX
8
CUT
10
116.9542
20
129.2884
0
VERTEX
8
CUT
10
117.2069
20
128.8905
0
VERTEX
8
CUT
10
117.4645
20
128.4956
0
VERTEX
8
CUT
10
117.7267
20
128.1039
0
VERTEX
8
CUT
10
117.9938
20
127.7155
0
VERTEX
8
CUT
10
118.2654
20
127.3302
0
VERTEX
8
CUT
10
118.5418
20
126.9483
0
VERTEX
8
CUT
10
118.8227
20
126.5698
0
VERTEX
8
CUT
10
119.1082
20
126.1947
0
VERTEX
8
CUT
10
119.3982
20
125.8230
0
SEQEND
0
POLYLINE
8
CUT
66
1
70
1
0
VERTEX
8
CUT
10
99.6835
20
133.3492
0
VERTEX
8
CUT
10
99.4859
20
133.9586
0
VERTEX
8
CUT
10
99.2957
20
134.5703
0
VERTEX
8
CUT
10
99.1129
20
135.1843
0
VERTEX
8
CUT
10
98.9376
20
135.8004
0
VERTEX
8
CUT
10
98.7697
20
136.4186
0
VERTEX
8
CUT
10
98.6093
20
137.0388
0
VERTEX
8
CUT
10
98.4564
20
137.6609
0
VERTEX
8
CUT
10
98.3110
20
138.2848
0
VERTEX
8
CUT
10
98.1732
20
138.9105
0
VERTEX
8
CUT
10
98.0429
20
139.5377
0
VERTEX
8
CUT
10
97.9202
20
140.1664
0
VERTEX
8
CUT
10
97.8052
20
140.7966
0
VERTEX
8
CUT
10
97.6978
20
141.4282
0
VERTEX
8
CUT
10
97.5980
20
142.0610
0
VERTEX
8
CUT
10
97.5058
20
142.6949
0
VERTEX
8
CUT
10
97.4214
20
143.3300
0
VERTEX
8
CUT
10
97.3446
20
143.9660
0
VERTEX
8
CUT
10
97.2755
20
144.6028
0
VERTEX
8
CUT
10
97.2141
20
145.2405
0
VERTEX
8
CUT
10
97.1605
20
145.8789
0
VERTEX
8
CUT
10
97.1145
20
146.5178
0
VERTEX
8
CUT
10
97.0763
20
147.1573
0
VERTEX
8
CUT
10
97.0458
20
147.7972
0
VERTEX
8
CUT
10
97.0230
20
148.4374
0
VERTEX
8
CUT
10
111.0170
20
148.8502
0
VERTEX
8
CUT
10
111.0337
20
148.3791
0
VERTEX
8
CUT
10
111.0561
20
147.9082
0
VERTEX
8
CUT
10
111.0843
20
147.4377
0
VERTEX
8
CUT
10
111.1181
20
146.9675
0
VERTEX
8
CUT
10
111.1576
20
146.4977
0
VERTEX
8
CUT
10
111.2027
20
146.0285
0
VERTEX
8
CUT
10
111.2536
20
145.5599
0
VERTEX
8
CUT
10
111.3101
20
145.0919
0
VERTEX
8
CUT
10
111.3722
20
144.6246
0
VERTEX
8
CUT
10
111.4400
20
144.1581
0
VERTEX
8
CUT
10
111.5134
20
143.6924
0
VERTEX
8
CUT
10
111.5925
20
143.2277
0
VERTEX
8
CUT
10
111.6772
20
142.7640
0
VERTEX
8
CUT
10
111.7674
20
142.3013
0
VERTEX
8
CUT
10
111.8633
20
141.8398
0
VERTEX
8
CUT
10
111.9647
20
141.3794
0
VERTEX
8
CUT
10
112.0717
20
140.9203
0
VERTEX
8
CUT
10
112.1842
20
140.4625
0
VERTEX
8
CUT
10
112.3022
20
140.0062
0
VERTEX
8
CUT
10
112.4258
20
139.5512
0
VERTEX
8
CUT
10
112.5548
20
139.0979
0
VERTEX
8
CUT
10
112.6893
20
138.6461
0
VERTEX
8
CUT
10
112.8293
20
138.1959
0
VERTEX
8
CUT
10
112.9747
20
137.7475
0
SEQEND
0
POLYLINE
8
CUT
66
1
70
1
0
VERTEX
8
CUT
10
97.0230
20
151.5626
0
VERTEX
8
CUT
10
97.0458
20
152.2028
0
VERTEX
8
CUT
10
97.0763
20
152.8427
0
VERTEX
8
CUT
10
97.1145
20
153.4822
0
VERTEX
8
CUT
10
97.1605
20
154.1211
0
VERTEX
8
CUT
10
97.2141
20
154.7595
0
VERTEX
8
CUT
10
97.2755
20
155.3972
0
VERTEX
8
CUT
10
97.3446
20
156.0340
0
VERTEX
8
CUT
10
97.4214
20
156.6700
0
VERTEX
8
CUT
10
97.5058
20
157.3051
0
VERTEX
8
CUT
10
97.5980
20
157.9390
0
VERTEX
8
CUT
10
97.6978
20
158.5718
0
VERTEX
8
CUT
10
97.8052
20
159.2034
0
VERTEX
8
CUT
10
97.9202
20
159.8336
0
VERTEX
8
CUT
10
98.0429
20
160.4623
0
VERTEX
8
CUT
10
98.1732
20
161.0895
0
VERTEX
8
CUT
10
98.3110
20
161.7152
0
VERTEX
8
CUT
10
98.4564
20
162.3391
0
VERTEX
8
CUT
10
98.6093
20
162.9612
0
VERTEX
8
CUT
10
98.7697
20
163.5814
0
VERTEX
8
CUT
10
98.9376
20
164.1996
0
VERTEX
8
CUT
10
99.1129
20
164.8157
0
VERTEX
8
CUT
10
99.2957
20
165.4297
0
VERTEX
8
CUT
10
99.4859
20
166.0414
0
VERTEX
8
CUT
10
99.6835
20
166.6508
0
VERTEX
8
CUT
10
112.9747
20
162.2525
0
VERTEX
8
CUT
10
112.8293
20
161.8041
0
VERTEX
8
CUT
10
112.6893
20
161.3539
0
VERTEX
8
CUT
10
112.5548
20
160.9021
0
VERTEX
8
CUT
10
112.4258
20
160.4488
0
VERTEX
8
CUT
10
112.3022
20
159.9938
0
VERTEX
8
CUT
10
112.1842
20
159.5375
0
VERTEX
8
CUT
10
112.0717
20
159.0797
0
VERTEX
8
CUT
10
111.9647
20
158.6206
0
VERTEX
8
CUT
10
111.8633
20
158.1602
0
VERTEX
8
CUT
10
111.7674
20
157.6987
0
VERTEX
8
CUT
10
111.6772
20
157.2360
0
VERTEX
8
CUT
10
111.5925
20
156.7723
0
VERTEX
8
CUT
10
111.5134
20
156.3076
0
VERTEX
8
CUT
10
111.4400
20
155.8419
0
VERTEX
8
CUT
10
111.3722
20
155.3754
0
VERTEX
8
CUT
10
111.3101
20
154.9081
0
VERTEX
8
CUT
10
111.2536
20
154.4401
0
VERTEX
8
CUT
10
111.2027
20
153.9715
0
VERTEX
8
CUT
10
111.1576
20
153.5023
0
VERTEX
8
CUT
10
111.1181
20
153.0325
0
VERTEX
8
CUT
10
111.0843
20
152.5623
0
VERTEX
8
CUT
10
111.0561
20
152.0918
0
VERTEX
8
CUT
10
111.0337
20
151.6209
0
VERTEX
8
CUT
10
111.0170
20
151.1498
0
SEQEND
0
POLYLINE
8
CUT
66
1
70
1
0
VERTEX
8
CUT
10
100.7524
20
169.5875
0
VERTEX
8
CUT
10
100.9927
20
170.1814
0
VERTEX
8
CUT
10
101.2402
20
170.7722
0
VERTEX
8
CUT
10
101.4949
20
171.3601
0
VERTEX
8
CUT
10
101.7566
20
171.9448
0
VERTEX
8
CUT
10
102.0254
20
172.5263
0
VERTEX
8
CUT
10
102.3011
20
173.1045
0
VERTEX
8
CUT
10
102.5839
20
173.6793
0
VERTEX
8
CUT
10
102.8736
20
174.2507
0
VERTEX
8
CUT
10
103.1701
20
174.8186
0
VERTEX
8
CUT
10
103.4735
20
175.3828
0
VERTEX
8
CUT
10
103.7837
20
175.9433
0
VERTEX
8
CUT
10
104.1007
20
176.5000
0
VERTEX
8
CUT
10
104.4243
20
177.0528
0
VERTEX
8
CUT
10
104.7546
20
177.6017
0
VERTEX
8
CUT
10
105.0915
20
178.1466
0
VERTEX
8
CUT
10
105.4350
20
178.6873
0
VERTEX
8
CUT
10
105.7850
20
179.2239
0
VERTEX
8
CUT
10
106.1415
20
179.7562
0
VERTEX
8
CUT
10
106.5043
20
180.2841
0
VERTEX
8
CUT
10
106.8736
20
180.8076
0
VERTEX
8
CUT
10
107.2491
20
181.3266
0
VERTEX
8
CUT
10
107.6308
20
181.8411
0
VERTEX
8
CUT
10
108.0188
20
182.3509
0
VERTEX
8
CUT
10
108.4129
20
182.8559
0
VERTEX
8
CUT
10
119.3982
20
174.1770
0
VERTEX
8
CUT
10
119.1082
20
173.8053
0
VERTEX
8
CUT
10
118.8227
20
173.4302
0
VERTEX
8
CUT
10
118.5418
20
173.0517
0
VERTEX
8
CUT
10
118.2654
20
172.6698
0
VERTEX
8
CUT
10
117.9938
20
172.2845
0
VERTEX
8
CUT
10
117.7267
20
171.8961
0
VERTEX
8
CUT
10
117.4645
20
171.5044
0
VERTEX
8
CUT
10
117.2069
20
171.1095
0
VERTEX
8
CUT
10
116.9542
20
170.7116
0
VERTEX
8
CUT
10
116.7062
20
170.3107
0
VERTEX
8
CUT
10
116.4632
20
169.9068
0
VERTEX
8
CUT
10
116.2250
20
169.5000
0
VERTEX
8
CUT
10
115.9918
20
169.0903
0
VERTEX
8
CUT
10
115.7635
20
168.6779
0
VERTEX
8
CUT
10
115.5403
20
168.2627
0
VERTEX
8
CUT
10
115.3220
20
167.8449
0
VERTEX
8
CUT
10
115.1089
20
167.4244
0
VERTEX
8
CUT
10
114.9008
20
167.0014
0
VERTEX
8
CUT
10
114.6979
20
166.5759
0
VERTEX
8
CUT
10
114.5001
20
166.1480
0
VERTEX
8
CUT
10
114.3075
20
165.7178
0
VERTEX
8
CUT
10
114.1202
20
165.2852
0
VERTEX
8
CUT
10
113.9380
20
164.8504
0
VERTEX
8
CUT
10
113.7612
20
164.4135
0
SEQEND
0
POLYLINE
8
CUT
66
1
70
1
0
VERTEX
8
CUT
10
110.4217
20
185.2500
0
VERTEX
8
CUT
10
110.8507
20
185.7258
0
VERTEX
8
CUT
10
111.2853
20
186.1963
0
VERTEX
8
CUT
10
111.7257
20
186.6616
0
VERTEX
8
CUT
10
112.1716
20
187.1216
0
VERTEX
8
CUT
10
112.6230
20
187.5761
0
VERTEX
8
CUT
10
113.0799
20
188.0251
0
VERTEX
8
CUT
10
113.5422
20
188.4686
0
VERTEX
8
CUT
10
114.0099
20
188.9064
0
VERTEX
8
CUT
10
114.4827
20
189.3386
0
VERTEX
8
CUT
10
114.9608
20
189.7650
0
VERTEX
8
CUT
10
115.4440
20
190.1856
0
VERTEX
8
CUT
10
115.9323
20
190.6004
0
VERTEX
8
CUT
10
116.4255
20
191.0092
0
VERTEX
8
CUT
10
116.9236
20
191.4120
0
VERTEX
8
CUT
10
117.4266
20
191.8087
0
VERTEX
8
CUT
10
117.9343
20
192.1994
0
VERTEX
8
CUT
10
118.4467
20
192.5839
0
VERTEX
8
CUT
10
118.9637
20
192.9622
0
VERTEX
8
CUT
10
119.4852
20
193.3342
0
VERTEX
8
CUT
10
120.0112
20
193.6998
0
VERTEX
8
CUT
10
120.5416
20
194.0591
0
VERTEX
8
CUT
10
121.0763
20
194.4119
0
VERTEX
8
CUT
10
121.6152
20
194.7583
0
VERTEX
8
CUT
10
122.1583
20
195.0981
0
VERTEX
8
CUT
10
129.5127
20
183.1854
0
VERTEX
8
CUT
10
129.1131
20
182.9353
0
VERTEX
8
CUT
10
128.7165
20
182.6805
0
VERTEX
8
CUT
10
128.3231
20
182.4208
0
VERTEX
8
CUT
10
127.9328
20
182.1565
0
VERTEX
8
CUT
10
127.5457
20
181.8874
0
VERTEX
8
CUT
10
127.1620
20
181.6137
0
VERTEX
8
CUT
10
126.7815
20
181.3353
0
VERTEX
8
CUT
10
126.4045
20
181.0524
0
VERTEX
8
CUT
10
126.0309
20
180.7649
0
VERTEX
8
CUT
10
125.6608
20
180.4730
0
VERTEX
8
CUT
10
125.2942
20
180.1766
0
VERTEX
8
CUT
10
124.9313
20
179.8757
0
VERTEX
8
CUT
10
124.5720
20
179.5705
0
VERTEX
8
CUT
10
124.2165
20
179.2610
0
VERTEX
8
CUT
10
123.8647
20
178.9473
0
VERTEX
8
CUT
10
123.5167
20
178.6293
0
VERTEX
8
CUT
10
123.1726
20
178.3071
0
VERTEX
8
CUT
10
122.8324
20
177.9807
0
VERTEX
8
CUT
10
122.4962
20
177.6503
0
VERTEX
8
CUT
10
122.1640
20
177.3159
0
VERTEX
8
CUT
10
121.8359
20
176.9774
0
VERTEX
8
CUT
10
121.5118
20
176.6350
0
VERTEX
8
CUT
10
121.1920
20
176.2888
0
VERTEX
8
CUT
10
120.8764
20
175.9386
0
SEQEND
0
POLYLINE
8
CUT
66
1
70
1
0
VERTEX
8
CUT
10
124.8648
20
196.6607
0
VERTEX
8
CUT
10
125.4306
20
196.9611
0
VERTEX
8
CUT
10
126.0000
20
197.2546
0
VERTEX
8
CUT
10
126.5729
20
197.5413
0
VERTEX
8
CUT
10
127.1492
20
197.8209
0
VERTEX
8
CUT
10
127.7289
20
198.0936
0
VERTEX
8
CUT
10
128.3118
20
198.3593
0
VERTEX
8
CUT
10
128.8979
20
198.6179
0
VERTEX
8
CUT
10
129.4871
20
198.8694
0
VERTEX
8
CUT
10
130.0793
20
199.1138
0
VERTEX
8
CUT
10
130.6744
20
199.3510
0
VERTEX
8
CUT
10
131.2723
20
199.5810
0
VERTEX
8
CUT
10
131.8729
20
199.8037
0
VERTEX
8
CUT
10
132.4762
20
200.0192
0
VERTEX
8
CUT
10
133.0821
20
200.2273
0
VERTEX
8
CUT
10
133.6904
20
200.4281
0
VERTEX
8
CUT
10
134.3011
20
200.6216
0
VERTEX
8
CUT
10
134.9141
20
200.8076
0
VERTEX
8
CUT
10
135.5293
20
200.9863
0
VERTEX
8
CUT
10
136.1466
20
201.1574
0
VERTEX
8
CUT
10
136.7660
20
201.3212
0
VERTEX
8
CUT
10
137.3873
20
201.4774
0
VERTEX
8
CUT
10
138.0104
20
201.6261
0
VERTEX
8
CUT
10
138.6353
20
201.7672
0
VERTEX
8
CUT
10
139.2618
20
201.9008
0
VERTEX
8
CUT
10
142.0983
20
188.1911
0
VERTEX
8
CUT
10
141.6373
20
188.0928
0
VERTEX
8
CUT
10
141.1775
20
187.9890
0
VERTEX
8
CUT
10
140.7189
20
187.8796
0
VERTEX
8
CUT
10
140.2618
20
187.7646
0
VERTEX
8
CUT
10
139.8060
20
187.6442
0
VERTEX
8
CUT
10
139.3518
20
187.5182
0
VERTEX
8
CUT
10
138.8991
20
187.3868
0
VERTEX
8
CUT
10
138.4480
20
187.2498
0
VERTEX
8
CUT
10
137.9986
20
187.1075
0
VERTEX
8
CUT
10
137.5510
20
186.9597
0
VERTEX
8
CUT
10
137.1051
20
186.8066
0
VERTEX
8
CUT
10
136.6612
20
186.6480
0
VERTEX
8
CUT
10
136.2192
20
186.4841
0
VERTEX
8
CUT
10
135.7793
20
186.3149
0
VERTEX
8
CUT
10
135.3414
20
186.1403
0
VERTEX
8
CUT
10
134.9056
20
185.9605
0
VERTEX
8
CUT
10
134.4721
20
185.7755
0
VERTEX
8
CUT
10
134.0408
20
185.5852
0
VERTEX
8
CUT
10
133.6118
20
185.3897
0
VERTEX
8
CUT
10
133.1853
20
185.1890
0
VERTEX
8
CUT
10
132.7612
20
184.9832
0
VERTEX
8
CUT
10
132.3396
20
184.7723
0
VERTEX
8
CUT
10
131.9206
20
184.5563
0
VERTEX
8
CUT
10
131.5043
20
184.3352
0
SEQEND
0
POLYLINE
8
CUT
66
1
70
1
0
VERTEX
8
CUT
10
142.3395
20
202.4435
0
VERTEX
8
CUT
10
142.9739
20
202.5322
0
VERTEX
8
CUT
10
143.6094
20
202.6133
0
VERTEX
8
CUT
10
144.2458
20
202.6867
0
VERTEX
8
CUT
10
144.8830
20
202.7524
0
VERTEX
8
CUT
10
145.5210
20
202.8104
0
VERTEX
8
CUT
10
146.1597
20
202.8607
0
VERTEX
8
CUT
10
146.7989
20
202.9032
0
VERTEX
8
CUT
10
147.4385
20
202.9381
0
VERTEX
8
CUT
10
148.0786
20
202.9652
0
VERTEX
8
CUT
10
148.7189
20
202.9845
0
VERTEX
8
CUT
10
149.3594
20
202.9961
0
VERTEX
8
CUT
10
150.0000
20
203.0000
0
VERTEX
8
CUT
10
150.6406
20
202.9961
0
VERTEX
8
CUT
10
151.2811
20
202.9845
0
VERTEX
8
CUT
10
151.9214
20
202.9652
0
VERTEX
8
CUT
10
152.5615
20
202.9381
0
VERTEX
8
CUT
10
153.2011
20
202.9032
0
VERTEX
8
CUT
10
153.8403
20
202.8607
0
VERTEX
8
CUT
10
154.4790
20
202.8104
0
VERTEX
8
CUT
10
155.1170
20
202.7524
0
VERTEX
8
CUT
10
155.7542
20
202.6867
0
VERTEX
8
CUT
10
156.3906
20
202.6133
0
VERTEX
8
CUT
10
157.0261
20
202.5322
0
VERTEX
8
CUT
10
157.6605
20
202.4435
0
VERTEX
8
CUT
10
155.6370
20
188.5905
0
VERTEX
8
CUT
10
155.1701
20
188.6558
0
VERTEX
8
CUT
10
154.7025
20
188.7155
0
VERTEX
8
CUT
10
154.2342
20
188.7695
0
VERTEX
8
CUT
10
153.7653
20
188.8178
0
VERTEX
8
CUT
10
153.2959
20
188.8605
0
VERTEX
8
CUT
10
152.8259
20
188.8975
0
VERTEX
8
CUT
10
152.3556
20
188.9288
0
VERTEX
8
CUT
10
151.8849
20
188.9544
0
VERTEX
8
CUT
10
151.4139
20
188.9744
0
VERTEX
8
CUT
10
150.9427
20
188.9886
0
VERTEX
8
CUT
10
150.4714
20
188.9972
0
VERTEX
8
CUT
10
150.0000
20
189.0000
0
VERTEX
8
CUT
10
149.5286
20
188.9972
0
VERTEX
8
CUT
10
149.0573
20
188.9886
0
VERTEX
8
CUT
10
148.5861
20
188.9744
0
VERTEX
8
CUT
10
148.1151
20
188.9544
0
VERTEX
8
CUT
10
147.6444
20
188.9288
0
VERTEX
8
CUT
10
147.1741
20
188.8975
0
VERTEX
8
CUT
10
146.7041
20
188.8605
0
VERTEX
8
CUT
10
146.2347
20
188.8178
0
VERTEX
8
CUT
10
145.7658
20
188.7695
0
VERTEX
8
CUT
10
145.2975
20
188.7155
0
VERTEX
8
CUT
10
144.8299
20
188.6558
0
VERTEX
8
CUT
10
144.3630
20
188.5905
0
SEQEND
0
POLYLINE
8
CUT
66
1
70
1
0
VERTEX
8
CUT
10
160.7382
20
201.9008
0
VERTEX
8
CUT
10
161.3647
20
201.7672
0
VERTEX
8
CUT
10
161.9896
20
201.6261
0
VERTEX
8
CUT
10
162.6127
20
201.4774
0
VERTEX
8
CUT
10
163.2340
20
201.3212
0
VERTEX
8
CUT
10
163.8534
20
201.1574
0
VERTEX
8
CUT
10
164.4707
20
200.9863
0
VERTEX
8
CUT
10
165.0859
20
200.8076
0
VERTEX
8
CUT
10
165.6989
20
200.6216
0
VERTEX
8
CUT
10
166.3096
20
200.4281
0
VERTEX
8
CUT
10
166.9179
20
200.2273
0
VERTEX
8
CUT
10
167.5238
20
200.0192
0
VERTEX
8
CUT
10
168.1271
20
199.8037
0
VERTEX
8
CUT
10
168.7277
20
199.5810
0
VERTEX
8
CUT
10
169.3256
20
199.3510
0
VERTEX
8
CUT
10
169.9207
20
199.1138
0
VERTEX
8
CUT
10
170.5129
20
198.8694
0
VERTEX
8
CUT
10
171.1021
20
198.6179
0
VERTEX
8
CUT
10
171.6882
20
198.3593
0
VERTEX
8
CUT
10
172.2711
20
198.0936
0
VERTEX
8
CUT
10
172.8508
20
197.8209
0
VERTEX
8
CUT
10
173.4271
20
197.5413
0
VERTEX
8
CUT
10
174.0000
20
197.2546
0
VERTEX
8
CUT
10
174.5694
20
196.9611
0
VERTEX
8
CUT
10
175.1352
20
196.6607
0
VERTEX
8
CUT
10
168.4957
20
184.3352
0
VERTEX
8
CUT
10
168.0794
20
184.5563
0
VERTEX
8
CUT
10
167.6604
20
184.7723
0
VERTEX
8
CUT
10
167.2388
20
184.9832
0
VERTEX
8
CUT
10
166.8147
20
185.1890
0
VERTEX
8
CUT
10
166.3882
20
185.3897
0
VERTEX
8
CUT
10
165.9592
20
185.5852
0
VERTEX
8
CUT
10
165.5279
20
185.7755
0
VERTEX
8
CUT
10
165.0944
20
185.9605
0
VERTEX
8
CUT
10
164.6586
20
186.1403
0
VERTEX
8
CUT
10
164.2207
20
186.3149
0
VERTEX
8
CUT
10
163.7808
20
186.4841
0
VERTEX
8
CUT
10
163.3388
20
186.6480
0
VERTEX
8
CUT
10
162.8949
20
186.8066
0
VERTEX
8
CUT
10
162.4490
20
186.9597
0
VERTEX
8
CUT
10
162.0014
20
187.1075
0
VERTEX
8
CUT
10
161.5520
20
187.2498
0
VERTEX
8
CUT
10
161.1009
20
187.3868
0
VERTEX
8
CUT
10
160.6482
20
187.5182
0
VERTEX
8
CUT
10
160.1940
20
187.6442
0
VERTEX
8
CUT
10
159.7382
20
187.7646
0
VERTEX
8
CUT
10
159.2811
20
187.8796
0
VERTEX
8
CUT
10
158.8225
20
187.9890
0
VERTEX
8
CUT
10
158.3627
20
188.0928
0
VERTEX
8
CUT
10
157.9017
20
188.1911
0
SEQEND
0
POLYLINE
8
CUT
66
1
70
1
0
VERTEX
8
CUT
10
177.8417
20
195.0981
0
VERTEX
8
CUT
10
178.3848
20
194.7583
0
VERTEX
8
CUT
10
178.9237
20
194.4119
0
VERTEX
8
CUT
10
179.4584
20
194.0591
0
VERTEX
8
CUT
10
179.9888
20
193.6998
0
VERTEX
8
CUT
10
180.5148
20
193.3342
0
VERTEX
8
CUT
10
181.0363
20
192.9622
0
VERTEX
8
CUT
10
181.5533
20
192.5839
0
VERTEX
8
CUT
10
182.0657
20
192.1994
0
VERTEX
8
CUT
10
182.5734
20
191.8087
0
VERTEX
8
CUT
10
183.0764
20
191.4120
0
VERTEX
8
CUT
10
183.5745
20
191.0092
0
VERTEX
8
CUT
10
184.0677
20
190.6004
0
VERTEX
8
CUT
10
184.5560
20
190.1856
0
VERTEX
8
CUT
10
185.0392
20
189.7650
0
VERTEX
8
CUT
10
185.5173
20
189.3386
0
VERTEX
8
CUT
10
185.9901
20
188.9064
0
VERTEX
8
CUT
10
186.4578
20
188.4686
0
VERTEX
8
CUT
10
186.9201
20
188.0251
0
VERTEX
8
CUT
10
187.3770
20
187.5761
0
VERTEX
8
CUT
10
187.8284
20
187.1216
0
VERTEX
8
CUT
10
188.2743
20
186.6616
0
VERTEX
8
CUT
10
188.7147
20
186.1963
0
VERTEX
8
CUT
10
189.1493
20
185.7258
0
VERTEX
8
CUT
10
189.5783
20
185.2500
0
VERTEX
8
CUT
10
179.1236
20
175.9386
0
VERTEX
8
CUT
10
178.8080
20
176.2888
0
VERTEX
8
CUT
10
178.4882
20
176.6350
0
VERTEX
8
CUT
10
178.1641
20
176.9774
0
VERTEX
8
CUT
10
177.8360
20
177.3159
0
VERTEX
8
CUT
10
177.5038
20
177.6503
0
VERTEX
8
CUT
10
177.1676
20
177.9807
0
VERTEX
8
CUT
10
176.8274
20
178.3071
0
VERTEX
8
CUT
10
176.4833
20
178.6293
0
VERTEX
8
CUT
10
176.1353
20
178.9473
0
VERTEX
8
CUT
10
175.7835
20
179.2610
0
VERTEX
8
CUT
10
175.4280
20
179.5705
0
VERTEX
8
CUT
10
175.0687
20
179.8757
0
VERTEX
8
CUT
10
174.7058
20
180.1766
0
VERTEX
8
CUT
10
174.3392
20
180.4730
0
VERTEX
8
CUT
10
173.9691
20
180.7649
0
VERTEX
8
CUT
10
173.5955
20
181.0524
0
VERTEX
8
CUT
10
173.2185
20
181.3353
0
VERTEX
8
CUT
10
172.8380
20
181.6137
0
VERTEX
8
CUT
10
172.4543
20
181.8874
0
VERTEX
8
CUT
10
172.0672
20
182.1565
0
VERTEX
8
CUT
10
171.6769
20
182.4208
0
VERTEX
8
CUT
10
171.2835
20
182.6805
0
VERTEX
8
CUT
10
170.8869
20
182.9353
0
VERTEX
8
CUT
10
170.4873
20
183.1854
0
SEQEND
0
POLYLINE
8
CUT
66
1
70
1
0
VERTEX
8
CUT
10
191.5871
20
182.8559
0
VERTEX
8
CUT
10
191.9812
20
182.3509
0
VERTEX
8
CUT
10
192.3692
20
181.8411
0
VERTEX
8
CUT
10
192.7509
20
181.3266
0
VERTEX
8
CUT
10
193.1264
20
180.8076
0
VERTEX
8
CUT
10
193.4957
20
180.2841
0
VERTEX
8
CUT
10
193.8585
20
179.7562
0
VERTEX
8
CUT
10
194.2150
20
179.2239
0
VERTEX
8
CUT
10
194.5650
20
178.6873
0
VERTEX
8
CUT
10
194.9085
20
178.1466
0
VERTEX
8
CUT
10
195.2454
20
177.6017
0
VERTEX
8
CUT
10
195.5757
20
177.0528
0
VERTEX
8
CUT
10
195.8993
20
176.5000
0
VERTEX
8
CUT
10
196.2163
20
175.9433
0
VERTEX
8
CUT
10
196.5265
20
175.3828
0
VERTEX
8
CUT
10
196.8299
20
174.8186
0
VERTEX
8
CUT
10
197.1264
20
174.2507
0
VERTEX
8
CUT
10
197.4161
20
173.6793
0
VERTEX
8
CUT
10
197.6989
20
173.1045
0
VERTEX
8
CUT
10
197.9746
20
172.5263
0
VERTEX
8
CUT
10
198.2434
20
171.9448
0
VERTEX
8
CUT
10
198.5051
20
171.3601
0
VERTEX
8
CUT
10
198.7598
20
170.7722
0
VERTEX
8
CUT
10
199.0073
20
170.1814
0
VERTEX
8
CUT
10
199.2476
20
169.5875
0
VERTEX
8
CUT
10
186.2388
20
164.4135
0
VERTEX
8
CUT
10
186.0620
20
164.8504
0
VERTEX
8
CUT
10
185.8798
20
165.2852
0
VERTEX
8
CUT
10
185.6925
20
165.7178
0
VERTEX
8
CUT
10
185.4999
20
166.1480
0
VERTEX
8
CUT
10
185.3021
20
166.5759
0
VERTEX
8
CUT
10
185.0992
20
167.0014
0
VERTEX
8
CUT
10
184.8911
20
167.4244
0
VERTEX
8
CUT
10
184.6780
20
167.8449
0
VERTEX
8
CUT
10
184.4597
20
168.2627
0
VERTEX
8
CUT
10
184.2365
20
168.6779
0
VERTEX
8
CUT
10
184.0082
20
169.0903
0
VERTEX
8
CUT
10
183.7750
20
169.5000
0
VERTEX
8
CUT
10
183.5368
20
169.9068
0
VERTEX
8
CUT
10
183.2938
20
170.3107
0
VERTEX
8
CUT
10
183.0458
20
170.7116
0
VERTEX
8
CUT
10
182.7931
20
171.1095
0
VERTEX
8
CUT
10
182.5355
20
171.5044
0
VERTEX
8
CUT
10
182.2733
20
171.8961
0
VERTEX
8
CUT
10
182.0062
20
172.2845
0
VERTEX
8
CUT
10
181.7346
20
172.6698
0
VERTEX
8
CUT
10
181.4582
20
173.0517
0
VERTEX
8
CUT
10
181.1773
20
173.4302
0
VERTEX
8
CUT
10
180.8918
20
173.8053
0
VERTEX
8
CUT
10
180.6018
20
174.1770
0
SEQEND
0
POLYLINE
8
CUT
66
1
70
1
0
VERTEX
8
CUT
10
200.3165
20
166.6508
0
VERTEX
8
CUT
10
200.5141
20
166.0414
0
VERTEX
8
CUT
10
200.7043
20
165.4297
0
VERTEX
8
CUT
10
200.8871
20
164.8157
0
VERTEX
8
CUT
10
201.0624
20
164.1996
0
VERTEX
8
CUT
10
201.2303
20
163.5814
0
VERTEX
8
CUT
10
201.3907
20
162.9612
0
VERTEX
8
CUT
10
201.5436
20
162.3391
0
VERTEX
8
CUT
10
201.6890
20
161.7152
0
VERTEX
8
CUT
10
201.8268
20
161.0895
0
VERTEX
8
CUT
10
201.9571
20
160.4623
0
VERTEX
8
CUT
10
202.0798
20
159.8336
0
VERTEX
8
CUT
10
202.1948
20
159.2034
0
VERTEX
8
CUT
10
202.3022
20
158.5718
0
VERTEX
8
CUT
10
202.4020
20
157.9390
0
VERTEX
8
CUT
10
202.4942
20
157.3051
0
VERTEX
8
CUT
10
202.5786
20
156.6700
0
VERTEX
8
CUT
10
202.6554
20
156.0340
0
VERTEX
8
CUT
10
202.7245
20
155.3972
0
VERTEX
8
CUT
10
202.7859
20
154.7595
0
VERTEX
8
CUT
10
202.8395
20
154.1211
0
VERTEX
8
CUT
10
202.8855
20
153.4822
0
VERTEX
8
CUT
10
202.9237
20
152.8427
0
VERTEX
8
CUT
10
202.9542
20
152.2028
0
VERTEX
8
CUT
10
202.9770
20
151.5626
0
VERTEX
8
CUT
10
188.9830
20
151.1498
0
VERTEX
8
CUT
10
188.9663
20
151.6209
0
VERTEX
8
CUT
10
188.9439
20
152.0918
0
VERTEX
8
CUT
10
188.9157
20
152.5623
0
VERTEX
8
CUT
10
188.8819
20
153.0325
0
VERTEX
8
CUT
10
188.8424
20
153.5023
0
VERTEX
8
CUT
10
188.7973
20
153.9715
0
VERTEX
8
CUT
10
188.7464
20
154.4401
0
VERTEX
8
CUT
10
188.6899
20
154.9081
0
VERTEX
8
CUT
10
188.6278
20
155.3754
0
VERTEX
8
CUT
10
188.5600
20
155.8419
0
VERTEX
8
CUT
10
188.4866
20
156.3076
0
VERTEX
8
CUT
10
188.4075
20
156.7723
0
VERTEX
8
CUT
10
188.3228
20
157.2360
0
VERTEX
8
CUT
10
188.2326
20
157.6987
0
VERTEX
8
CUT
10
188.1367
20
158.1602
0
VERTEX
8
CUT
10
188.0353
20
158.6206
0
VERTEX
8
CUT
10
187.9283
20
159.0797
0
VERTEX
8
CUT
10
187.8158
20
159.5375
0
VERTEX
8
CUT
10
187.6978
20
159.9938
0
VERTEX
8
CUT
10
187.5742
20
160.4488
0
VERTEX
8
CUT
10
187.4452
20
160.9021
0
VERTEX
8
CUT
10
187.3107
20
161.3539
0
VERTEX
8
CUT
10
187.1707
20
161.8041
0
VERTEX
8
CUT
10
187.0253
20
162.2525
0
SEQEND
0
ENDSEC
0
EOF
