0
SECTION
2
ENTITIES
0
POLYLINE
8
CUT
66
1
70
1
0
VERTEX
8
CUT
10
300.0000
20
150.0000
0
VERTEX
8
CUT
10
299.9086
20
144.7651
0
VERTEX
8
CUT
10
299.6346
20
139.5365
0
VERTEX
8
CUT
10
299.1783
20
134.3207
0
VERTEX
8
CUT
10
298.5402
20
129.1240
0
VERTEX
8
CUT
10
297.7212
20
123.9528
0
VERTEX
8
CUT
10
296.7221
20
118.8132
0
VERTEX
8
CUT
10
295.5444
20
113.7117
0
VERTEX
8
CUT
10
294.1893
20
108.6544
0
VERTEX
8
CUT
10
292.6585
20
103.6475
0
VERTEX
8
CUT
10
290.9539
20
98.6970
0
VERTEX
8
CUT
10
289.0776
20
93.8090
0
VERTEX
8
CUT
10
287.0318
20
88.9895
0
VERTEX
8
CUT
10
284.8191
20
84.2443
0
VERTEX
8
CUT
10
282.4421
20
79.5793
0
VERTEX
8
CUT
10
279.9038
20
75.0000
0
VERTEX
8
CUT
10
277.2072
20
70.5121
0
VERTEX
8
CUT
10
274.3556
20
66.1211
0
VERTEX
8
CUT
10
271.3525
20
61.8322
0
VERTEX
8
CUT
10
268.2016
20
57.6508
0
VERTEX
8
CUT
10
264.9067
20
53.5819
0
VERTEX
8
CUT
10
261.4717
20
49.6304
0
VERTEX
8
CUT
10
257.9010
20
45.8012
0
VERTEX
8
CUT
10
254.1988
20
42.0990
0
VERTEX
8
CUT
10
250.3696
20
38.5283
0
VERTEX
8
CUT
10
246.4181
20
35.0933
0
VERTEX
8
CUT
10
242.3492
20
31.7984
0
VERTEX
8
CUT
10
238.1678
20
28.6475
0
VERTEX
8
CUT
10
233.8789
20
25.6444
0
VERTEX
8
CUT
10
229.4879
20
22.7928
0
VERTEX
8
CUT
10
225.0000
20
20.0962
0
VERTEX
8
CUT
10
220.4207
20
17.5579
0
VERTEX
8
CUT
10
215.7557
20
15.1809
0
VERTEX
8
CUT
10
211.0105
20
12.9682
0
VERTEX
8
CUT
10
206.1910
20
10.9224
0
VERTEX
8
CUT
10
201.3030
20
9.0461
0
VERTEX
8
CUT
10
196.3525
20
7.3415
0
VERTEX
8
CUT
10
191.3456
20
5.8107
0
VERTEX
8
CUT
10
186.2883
20
4.4556
0
VERTEX
8
CUT
10
181.1868
20
3.2779
0
VERTEX
8
CUT
10
176.0472
20
2.2788
0
VERTEX
8
CUT
10
170.8760
20
1.4598
0
VERTEX
8
CUT
10
165.6793
20
0.8217
0
VERTEX
8
CUT
10
160.4635
20
0.3654
0
VERTEX
8
CUT
10
155.2349
20
0.0914
0
VERTEX
8
CUT
10
150.0000
20
0.0000
0
VERTEX
8
CUT
10
144.7651
20
0.0914
0
VERTEX
8
CUT
10
139.5365
20
0.3654
0
VERTEX
8
CUT
10
134.3207
20
0.8217
0
VERTEX
8
CUT
10
129.1240
20
1.4598
0
VERTEX
8
CUT
10
123.9528
20
2.2788
0
VERTEX
8
CUT
10
118.8132
20
3.2779
0
VERTEX
8
CUT
10
113.7117
20
4.4556
0
VERTEX
8
CUT
10
108.6544
20
5.8107
0
VERTEX
8
CUT
10
103.6475
20
7.3415
0
VERTEX
8
CUT
10
98.6970
20
9.0461
0
VERTEX
8
CUT
10
93.8090
20
10.9224
0
VERTEX
8
CUT
10
88.9895
20
12.9682
0
VERTEX
8
CUT
10
84.2443
20
15.1809
0
VERTEX
8
CUT
10
79.5793
20
17.5579
0
VERTEX
8
CUT
10
75.0000
20
20.0962
0
VERTEX
8
CUT
10
70.5121
20
22.7928
0
VERTEX
8
CUT
10
66.1211
20
25.6444
0
VERTEX
8
CUT
10
61.8322
20
28.6475
0
VERTEX
8
CUT
10
57.6508
20
31.7984
0
VERTEX
8
CUT
10
53.5819
20
35.0933
0
VERTEX
8
CUT
10
49.6304
20
38.5283
0
VERTEX
8
CUT
10
45.8012
20
42.0990
0
VERTEX
8
CUT
10
42.0990
20
45.8012
0
VERTEX
8
CUT
10
38.5283
20
49.6304
0
VERTEX
8
CUT
10
35.0933
20
53.5819
0
VERTEX
8
CUT
10
31.7984
20
57.6508
0
VERTEX
8
CUT
10
28.6475
20
61.8322
0
VERTEX
8
CUT
10
25.6444
20
66.1211
0
VERTEX
8
CUT
10
22.7928
20
70.5121
0
VERTEX
8
CUT
10
20.0962
20
75.0000
0
VERTEX
8
CUT
10
17.5579
20
79.5793
0
VERTEX
8
CUT
10
15.1809
20
84.2443
0
VERTEX
8
CUT
10
12.9682
20
88.9895
0
VERTEX
8
CUT
10
10.9224
20
93.8090
0
VERTEX
8
CUT
10
9.0461
20
98.6970
0
VERTEX
8
CUT
10
7.3415
20
103.6475
0
VERTEX
8
CUT
10
5.8107
20
108.6544
0
VERTEX
8
CUT
10
4.4556
20
113.7117
0
VERTEX
8
CUT
10
3.2779
20
118.8132
0
VERTEX
8
CUT
10
2.2788
20
123.9528
0
VERTEX
8
CUT
10
1.4598
20
129.1240
0
VERTEX
8
CUT
10
0.8217
20
134.3207
0
VERTEX
8
CUT
10
0.3654
20
139.5365
0
VERTEX
8
CUT
10
0.0914
20
144.7651
0
VERTEX
8
CUT
10
0.0000
20
150.0000
0
VERTEX
8
CUT
10
0.0914
20
155.2349
0
VERTEX
8
CUT
10
0.3654
20
160.4635
0
VERTEX
8
CUT
10
0.8217
20
165.6793
0
VERTEX
8
CUT
10
1.4598
20
170.8760
0
VERTEX
8
CUT
10
2.2788
20
176.0472
0
VERTEX
8
CUT
10
3.2779
20
181.1868
0
VERTEX
8
CUT
10
4.4556
20
186.2883
0
VERTEX
8
CUT
10
5.8107
20
191.3456
0
VERTEX
8
CUT
10
7.3415
20
196.3525
0
VERTEX
8
CUT
10
9.0461
20
201.3030
0
VERTEX
8
CUT
10
10.9224
20
206.1910
0
VERTEX
8
CUT
10
12.9682
20
211.0105
0
VERTEX
8
CUT
10
15.1809
20
215.7557
0
VERTEX
8
CUT
10
17.5579
20
220.4207
0
VERTEX
8
CUT
10
20.0962
20
225.0000
0
VERTEX
8
CUT
10
22.7928
20
229.4879
0
VERTEX
8
CUT
10
25.6444
20
233.8789
0
VERTEX
8
CUT
10
28.6475
20
238.1678
0
VERTEX
8
CUT
10
31.7984
20
242.3492
0
VERTEX
8
CUT
10
35.0933
20
246.4181
0
VERTEX
8
CUT
10
38.5283
20
250.3696
0
VERTEX
8
CUT
10
42.0990
20
254.1988
0
VERTEX
8
CUT
10
45.8012
20
257.9010
0
VERTEX
8
CUT
10
49.6304
20
261.4717
0
VERTEX
8
CUT
10
53.5819
20
264.9067
0
VERTEX
8
CUT
10
57.6508
20
268.2016
0
VERTEX
8
CUT
10
61.8322
20
271.3525
0
VERTEX
8
CUT
10
66.1211
20
274.3556
0
VERTEX
8
CUT
10
70.5121
20
277.2072
0
VERTEX
8
CUT
10
75.0000
20
279.9038
0
VERTEX
8
CUT
10
79.5793
20
282.4421
0
VERTEX
8
CUT
10
84.2443
20
284.8191
0
VERTEX
8
CUT
10
88.9895
20
287.0318
0
VERTEX
8
CUT
10
93.8090
20
289.0776
0
VERTEX
8
CUT
10
98.6970
20
290.9539
0
VERTEX
8
CUT
10
103.6475
20
292.6585
0
VERTEX
8
CUT
10
108.6544
20
294.1893
0
VERTEX
8
CUT
10
113.7117
20
295.5444
0
VERTEX
8
CUT
10
118.8132
20
296.7221
0
VERTEX
8
CUT
10
123.9528
20
297.7212
0
VERTEX
8
CUT
10
129.1240
20
298.5402
0
VERTEX
8
CUT
10
134.3207
20
299.1783
0
VERTEX
8
CUT
10
139.5365
20
299.6346
0
VERTEX
8
CUT
10
144.7651
20
299.9086
0
VERTEX
8
CUT
10
150.0000
20
300.0000
0
VERTEX
8
CUT
10
155.2349
20
299.9086
0
VERTEX
8
CUT
10
160.4635
20
299.6346
0
VERTEX
8
CUT
10
165.6793
20
299.1783
0
VERTEX
8
CUT
10
170.8760
20
298.5402
0
VERTEX
8
CUT
10
176.0472
20
297.7212
0
VERTEX
8
CUT
10
181.1868
20
296.7221
0
VERTEX
8
CUT
10
186.2883
20
295.5444
0
VERTEX
8
CUT
10
191.3456
20
294.1893
0
VERTEX
8
CUT
10
196.3525
20
292.6585
0
VERTEX
8
CUT
10
201.3030
20
290.9539
0
VERTEX
8
CUT
10
206.1910
20
289.0776
0
VERTEX
8
CUT
10
211.0105
20
287.0318
0
VERTEX
8
CUT
10
215.7557
20
284.8191
0
VERTEX
8
CUT
10
220.4207
20
282.4421
0
VERTEX
8
CUT
10
225.0000
20
279.9038
0
VERTEX
8
CUT
10
229.4879
20
277.2072
0
VERTEX
8
CUT
10
233.8789
20
274.3556
0
VERTEX
8
CUT
10
238.1678
20
271.3525
0
VERTEX
8
CUT
10
242.3492
20
268.2016
0
VERTEX
8
CUT
10
246.4181
20
264.9067
0
VERTEX
8
CUT
10
250.3696
20
261.4717
0
VERTEX
8
CUT
10
254.1988
20
257.9010
0
VERTEX
8
CUT
10
257.9010
20
254.1988
0
VERTEX
8
CUT
10
261.4717
20
250.3696
0
VERTEX
8
CUT
10
264.9067
20
246.4181
0
VERTEX
8
CUT
10
268.2016
20
242.3492
0
VERTEX
8
CUT
10
271.3525
20
238.1678
0
VERTEX
8
CUT
10
274.3556
20
233.8789
0
VERTEX
8
CUT
10
277.2072
20
229.4879
0
VERTEX
8
CUT
10
279.9038
20
225.0000
0
VERTEX
8
CUT
10
282.4421
20
220.4207
0
VERTEX
8
CUT
10
284.8191
20
215.7557
0
VERTEX
8
CUT
10
287.0318
20
211.0105
0
VERTEX
8
CUT
10
289.0776
20
206.1910
0
VERTEX
8
CUT
10
290.9539
20
201.3030
0
VERTEX
8
CUT
10
292.6585
20
196.3525
0
VERTEX
8
CUT
10
294.1893
20
191.3456
0
VERTEX
8
CUT
10
295.5444
20
186.2883
0
VERTEX
8
CUT
10
296.7221
20
181.1868
0
VERTEX
8
CUT
10
297.7212
20
176.0472
0
VERTEX
8
CUT
10
298.5402
20
170.8760
0
VERTEX
8
CUT
10
299.1783
20
165.6793
0
VERTEX
8
CUT
10
299.6346
20
160.4635
0
VERTEX
8
CUT
10
299.9086
20
155.2349
0
SEQEND
0
POLYLINE
8
CUT
66
1
70
1
0
VERTEX
8
CUT
10
260.0000
20
150.0000
0
VERTEX
8
CUT
10
259.9330
20
146.1611
0
VERTEX
8
CUT
10
259.7320
20
142.3268
0
VERTEX
8
CUT
10
259.3974
20
138.5019
0
VERTEX
8
CUT
10
258.9295
20
134.6910
0
VERTEX
8
CUT
10
258.3289
20
130.8987
0
VERTEX
8
CUT
10
257.5962
20
127.1297
0
VERTEX
8
CUT
10
256.7325
20
123.3886
0
VERTEX
8
CUT
10
255.7388
20
119.6799
0
VERTEX
8
CUT
10
254.6162
20
116.0081
0
VERTEX
8
CUT
10
253.3662
20
112.3778
0
VERTEX
8
CUT
10
251.9902
20
108.7933
0
VERTEX
8
CUT
10
250.4900
20
105.2590
0
VERTEX
8
CUT
10
248.8673
20
101.7792
0
VERTEX
8
CUT
10
247.1242
20
98.3581
0
VERTEX
8
CUT
10
245.2628
20
95.0000
0
VERTEX
8
CUT
10
243.2853
20
91.7089
0
VERTEX
8
CUT
10
241.1941
20
88.4888
0
VERTEX
8
CUT
10
238.9919
20
85.3436
0
VERTEX
8
CUT
10
236.6812
20
82.2772
0
VERTEX
8
CUT
10
234.2649
20
79.2934
0
VERTEX
8
CUT
10
231.7459
20
76.3956
0
VERTEX
8
CUT
10
229.1274
20
73.5876
0
VERTEX
8
CUT
10
226.4124
20
70.8726
0
VERTEX
8
CUT
10
223.6044
20
68.2541
0
VERTEX
8
CUT
10
220.7066
20
65.7351
0
VERTEX
8
CUT
10
217.7228
20
63.3188
0
VERTEX
8
CUT
10
214.6564
20
61.0081
0
VERTEX
8
CUT
10
211.5112
20
58.8059
0
VERTEX
8
CUT
10
208.2911
20
56.7147
0
VERTEX
8
CUT
10
205.0000
20
54.7372
0
VERTEX
8
CUT
10
201.6419
20
52.8758
0
VERTEX
8
CUT
10
198.2208
20
51.1327
0
VERTEX
8
CUT
10
194.7410
20
49.5100
0
VERTEX
8
CUT
10
191.2067
20
48.0098
0
VERTEX
8
CUT
10
187.6222
20
46.6338
0
VERTEX
8
CUT
10
183.9919
20
45.3838
0
VERTEX
8
CUT
10
180.3201
20
44.2612
0
VERTEX
8
CUT
10
176.6114
20
43.2675
0
VERTEX
8
CUT
10
172.8703
20
42.4038
0
VERTEX
8
CUT
10
169.1013
20
41.6711
0
VERTEX
8
CUT
10
165.3090
20
41.0705
0
VERTEX
8
CUT
10
161.4981
20
40.6026
0
VERTEX
8
CUT
10
157.6732
20
40.2680
0
VERTEX
8
CUT
10
153.8389
20
40.0670
0
VERTEX
8
CUT
10
150.0000
20
40.0000
0
VERTEX
8
CUT
10
146.1611
20
40.0670
0
VERTEX
8
CUT
10
142.3268
20
40.2680
0
VERTEX
8
CUT
10
138.5019
20
40.6026
0
VERTEX
8
CUT
10
134.6910
20
41.0705
0
VERTEX
8
CUT
10
130.8987
20
41.6711
0
VERTEX
8
CUT
10
127.1297
20
42.4038
0
VERTEX
8
CUT
10
123.3886
20
43.2675
0
VERTEX
8
CUT
10
119.6799
20
44.2612
0
VERTEX
8
CUT
10
116.0081
20
45.3838
0
VERTEX
8
CUT
10
112.3778
20
46.6338
0
VERTEX
8
CUT
10
108.7933
20
48.0098
0
VERTEX
8
CUT
10
105.2590
20
49.5100
0
VERTEX
8
CUT
10
101.7792
20
51.1327
0
VERTEX
8
CUT
10
98.3581
20
52.8758
0
VERTEX
8
CUT
10
95.0000
20
54.7372
0
VERTEX
8
CUT
10
91.7089
20
56.7147
0
VERTEX
8
CUT
10
88.4888
20
58.8059
0
VERTEX
8
CUT
10
85.3436
20
61.0081
0
VERTEX
8
CUT
10
82.2772
20
63.3188
0
VERTEX
8
CUT
10
79.2934
20
65.7351
0
VERTEX
8
CUT
10
76.3956
20
68.2541
0
VERTEX
8
CUT
10
73.5876
20
70.8726
0
VERTEX
8
CUT
10
70.8726
20
73.5876
0
VERTEX
8
CUT
10
68.2541
20
76.3956
0
VERTEX
8
CUT
10
65.7351
20
79.2934
0
VERTEX
8
CUT
10
63.3188
20
82.2772
0
VERTEX
8
CUT
10
61.0081
20
85.3436
0
VERTEX
8
CUT
10
58.8059
20
88.4888
0
VERTEX
8
CUT
10
56.7147
20
91.7089
0
VERTEX
8
CUT
10
54.7372
20
95.0000
0
VERTEX
8
CUT
10
52.8758
20
98.3581
0
VERTEX
8
CUT
10
51.1327
20
101.7792
0
VERTEX
8
CUT
10
49.5100
20
105.2590
0
VERTEX
8
CUT
10
48.0098
20
108.7933
0
VERTEX
8
CUT
10
46.6338
20
112.3778
0
VERTEX
8
CUT
10
45.3838
20
116.0081
0
VERTEX
8
CUT
10
44.2612
20
119.6799
0
VERTEX
8
CUT
10
43.2675
20
123.3886
0
VERTEX
8
CUT
10
42.4038
20
127.1297
0
VERTEX
8
CUT
10
41.6711
20
130.8987
0
VERTEX
8
CUT
10
41.0705
20
134.6910
0
VERTEX
8
CUT
10
40.6026
20
138.5019
0
VERTEX
8
CUT
10
40.2680
20
142.3268
0
VERTEX
8
CUT
10
40.0670
20
146.1611
0
VERTEX
8
CUT
10
40.0000
20
150.0000
0
VERTEX
8
CUT
10
40.0670
20
153.8389
0
VERTEX
8
CUT
10
40.2680
20
157.6732
0
VERTEX
8
CUT
10
40.6026
20
161.4981
0
VERTEX
8
CUT
10
41.0705
20
165.3090
0
VERTEX
8
CUT
10
41.6711
20
169.1013
0
VERTEX
8
CUT
10
42.4038
20
172.8703
0
VERTEX
8
CUT
10
43.2675
20
176.6114
0
VERTEX
8
CUT
10
44.2612
20
180.3201
0
VERTEX
8
CUT
10
45.3838
20
183.9919
0
VERTEX
8
CUT
10
46.6338
20
187.6222
0
VERTEX
8
CUT
10
48.0098
20
191.2067
0
VERTEX
8
CUT
10
49.5100
20
194.7410
0
VERTEX
8
CUT
10
51.1327
20
198.2208
0
VERTEX
8
CUT
10
52.8758
20
201.6419
0
VERTEX
8
CUT
10
54.7372
20
205.0000
0
VERTEX
8
CUT
10
56.7147
20
208.2911
0
VERTEX
8
CUT
10
58.8059
20
211.5112
0
VERTEX
8
CUT
10
61.0081
20
214.6564
0
VERTEX
8
CUT
10
63.3188
20
217.7228
0
VERTEX
8
CUT
10
65.7351
20
220.7066
0
VERTEX
8
CUT
10
68.2541
20
223.6044
0
VERTEX
8
CUT
10
70.8726
20
226.4124
0
VERTEX
8
CUT
10
73.5876
20
229.1274
0
VERTEX
8
CUT
10
76.3956
20
231.7459
0
VERTEX
8
CUT
10
79.2934
20
234.2649
0
VERTEX
8
CUT
10
82.2772
20
236.6812
0
VERTEX
8
CUT
10
85.3436
20
238.9919
0
VERTEX
8
CUT
10
88.4888
20
241.1941
0
VERTEX
8
CUT
10
91.7089
20
243.2853
0
VERTEX
8
CUT
10
95.0000
20
245.2628
0
VERTEX
8
CUT
10
98.3581
20
247.1242
0
VERTEX
8
CUT
10
101.7792
20
248.8673
0
VERTEX
8
CUT
10
105.2590
20
250.4900
0
VERTEX
8
CUT
10
108.7933
20
251.9902
0
VERTEX
8
CUT
10
112.3778
20
253.3662
0
VERTEX
8
CUT
10
116.0081
20
254.6162
0
VERTEX
8
CUT
10
119.6799
20
255.7388
0
VERTEX
8
CUT
10
123.3886
20
256.7325
0
VERTEX
8
CUT
10
127.1297
20
257.5962
0
VERTEX
8
CUT
10
130.8987
20
258.3289
0
VERTEX
8
CUT
10
134.6910
20
258.9295
0
VERTEX
8
CUT
10
138.5019
20
259.3974
0
VERTEX
8
CUT
10
142.3268
20
259.7320
0
VERTEX
8
CUT
10
146.1611
20
259.9330
0
VERTEX
8
CUT
10
150.0000
20
260.0000
0
VERTEX
8
CUT
10
153.8389
20
259.9330
0
VERTEX
8
CUT
10
157.6732
20
259.7320
0
VERTEX
8
CUT
10
161.4981
20
259.3974
0
VERTEX
8
CUT
10
165.3090
20
258.9295
0
VERTEX
8
CUT
10
169.1013
20
258.3289
0
VERTEX
8
CUT
10
172.8703
20
257.5962
0
VERTEX
8
CUT
10
176.6114
20
256.7325
0
VERTEX
8
CUT
10
180.3201
20
255.7388
0
VERTEX
8
CUT
10
183.9919
20
254.6162
0
VERTEX
8
CUT
10
187.6222
20
253.3662
0
VERTEX
8
CUT
10
191.2067
20
251.9902
0
VERTEX
8
CUT
10
194.7410
20
250.4900
0
VERTEX
8
CUT
10
198.2208
20
248.8673
0
VERTEX
8
CUT
10
201.6419
20
247.1242
0
VERTEX
8
CUT
10
205.0000
20
245.2628
0
VERTEX
8
CUT
10
208.2911
20
243.2853
0
VERTEX
8
CUT
10
211.5112
20
241.1941
0
VERTEX
8
CUT
10
214.6564
20
238.9919
0
VERTEX
8
CUT
10
217.7228
20
236.6812
0
VERTEX
8
CUT
10
220.7066
20
234.2649
0
VERTEX
8
CUT
10
223.6044
20
231.7459
0
VERTEX
8
CUT
10
226.4124
20
229.1274
0
VERTEX
8
CUT
10
229.1274
20
226.4124
0
VERTEX
8
CUT
10
231.7459
20
223.6044
0
VERTEX
8
CUT
10
234.2649
20
220.7066
0
VERTEX
8
CUT
10
236.6812
20
217.7228
0
VERTEX
8
CUT
10
238.9919
20
214.6564
0
VERTEX
8
CUT
10
241.1941
20
211.5112
0
VERTEX
8
CUT
10
243.2853
20
208.2911
0
VERTEX
8
CUT
10
245.2628
20
205.0000
0
VERTEX
8
CUT
10
247.1242
20
201.6419
0
VERTEX
8
CUT
10
248.8673
20
198.2208
0
VERTEX
8
CUT
10
250.4900
20
194.7410
0
VERTEX
8
CUT
10
251.9902
20
191.2067
0
VERTEX
8
CUT
10
253.3662
20
187.6222
0
VERTEX
8
CUT
10
254.6162
20
183.9919
0
VERTEX
8
CUT
10
255.7388
20
180.3201
0
VERTEX
8
CUT
10
256.7325
20
176.6114
0
VERTEX
8
CUT
10
257.5962
20
172.8703
0
VERTEX
8
CUT
10
258.3289
20
169.1013
0
VERTEX
8
CUT
10
258.9295
20
165.3090
0
VERTEX
8
CUT
10
259.3974
20
161.4981
0
VERTEX
8
CUT
10
259.7320
20
157.6732
0
VERTEX
8
CUT
10
259.9330
20
153.8389
0
SEQEND
0
POLYLINE
8
CUT
66
1
70
1
0
VERTEX
8
CUT
10
278.9936
20
148.7100
0
VERTEX
8
CUT
10
278.9847
20
148.0135
0
VERTEX
8
CUT
10
278.9721
20
147.3170
0
VERTEX
8
CUT
10
278.9557
20
146.6206
0
VERTEX
8
CUT
10
278.9356
20
145.9243
0
VERTEX
8
CUT
10
278.9117
20
145.2281
0
VERTEX
8
CUT
10
278.8841
20
144.5320
0
VERTEX
8
CUT
10
278.8527
20
143.8362
0
VERTEX
8
CUT
10
278.8175
20
143.1405
0
VERTEX
8
CUT
10
278.7786
20
142.4449
0
VERTEX
8
CUT
10
278.7359
20
141.7497
0
VERTEX
8
CUT
10
278.6895
20
141.0546
0
VERTEX
8
CUT
10
278.6393
20
140.3598
0
VERTEX
8
CUT
10
278.5854
20
139.6653
0
VERTEX
8
CUT
10
278.5277
20
138.9711
0
VERTEX
8
CUT
10
278.4662
20
138.2772
0
VERTEX
8
CUT
10
278.4011
20
137.5837
0
VERTEX
8
CUT
10
278.3322
20
136.8905
0
VERTEX
8
CUT
10
278.2595
20
136.1977
0
VERTEX
8
CUT
10
278.1831
20
135.5053
0
VERTEX
8
CUT
10
278.1029
20
134.8133
0
VERTEX
8
CUT
10
278.0191
20
134.1218
0
VERTEX
8
CUT
10
277.9315
20
133.4307
0
VERTEX
8
CUT
10
277.8401
20
132.7402
0
VERTEX
8
CUT
10
277.7451
20
132.0501
0
VERTEX
8
CUT
10
263.8813
20
133.9981
0
VERTEX
8
CUT
10
263.9660
20
134.6133
0
VERTEX
8
CUT
10
264.0474
20
135.2290
0
VERTEX
8
CUT
10
264.1255
20
135.8450
0
VERTEX
8
CUT
10
264.2003
20
136.4615
0
VERTEX
8
CUT
10
264.2717
20
137.0784
0
VERTEX
8
CUT
10
264.3399
20
137.6956
0
VERTEX
8
CUT
10
264.4046
20
138.3132
0
VERTEX
8
CUT
10
264.4661
20
138.9312
0
VERTEX
8
CUT
10
264.5242
20
139.5495
0
VERTEX
8
CUT
10
264.5789
20
140.1680
0
VERTEX
8
CUT
10
264.6304
20
140.7869
0
VERTEX
8
CUT
10
264.6784
20
141.4060
0
VERTEX
8
CUT
10
264.7232
20
142.0254
0
VERTEX
8
CUT
10
264.7646
20
142.6450
0
VERTEX
8
CUT
10
264.8026
20
143.2649
0
VERTEX
8
CUT
10
264.8373
20
143.8849
0
VERTEX
8
CUT
10
264.8686
20
144.5051
0
VERTEX
8
CUT
10
264.8966
20
145.1255
0
VERTEX
8
CUT
10
264.9213
20
145.7460
0
VERTEX
8
CUT
10
264.9426
20
146.3666
0
VERTEX
8
CUT
10
264.9605
20
146.9873
0
VERTEX
8
CUT
10
264.9751
20
147.6082
0
VERTEX
8
CUT
10
264.9864
20
148.2291
0
VERTEX
8
CUT
10
264.9943
20
148.8500
0
SEQEND
0
POLYLINE
8
CUT
66
1
70
1
0
VERTEX
8
CUT
10
277.3605
20
129.4989
0
VERTEX
8
CUT
10
277.2480
20
128.8115
0
VERTEX
8
CUT
10
277.1317
20
128.1247
0
VERTEX
8
CUT
10
277.0117
20
127.4385
0
VERTEX
8
CUT
10
276.8880
20
126.7530
0
VERTEX
8
CUT
10
276.7607
20
126.0681
0
VERTEX
8
CUT
10
276.6296
20
125.3839
0
VERTEX
8
CUT
10
276.4948
20
124.7005
0
VERTEX
8
CUT
10
276.3563
20
124.0178
0
VERTEX
8
CUT
10
276.2142
20
123.3359
0
VERTEX
8
CUT
10
276.0684
20
122.6547
0
VERTEX
8
CUT
10
275.9189
20
121.9743
0
VERTEX
8
CUT
10
275.7657
20
121.2948
0
VERTEX
8
CUT
10
275.6089
20
120.6161
0
VERTEX
8
CUT
10
275.4484
20
119.9382
0
VERTEX
8
CUT
10
275.2842
20
119.2613
0
VERTEX
8
CUT
10
275.1164
20
118.5852
0
VERTEX
8
CUT
10
274.9449
20
117.9100
0
VERTEX
8
CUT
10
274.7698
20
117.2358
0
VERTEX
8
CUT
10
274.5911
20
116.5625
0
VERTEX
8
CUT
10
274.4087
20
115.8902
0
VERTEX
8
CUT
10
274.2227
20
115.2189
0
VERTEX
8
CUT
10
274.0331
20
114.5486
0
VERTEX
8
CUT
10
273.8398
20
113.8794
0
VERTEX
8
CUT
10
273.6430
20
113.2112
0
VERTEX
8
CUT
10
260.2243
20
117.2037
0
VERTEX
8
CUT
10
260.3998
20
117.7994
0
VERTEX
8
CUT
10
260.5721
20
118.3960
0
VERTEX
8
CUT
10
260.7412
20
118.9936
0
VERTEX
8
CUT
10
260.9070
20
119.5920
0
VERTEX
8
CUT
10
261.0696
20
120.1914
0
VERTEX
8
CUT
10
261.2289
20
120.7916
0
VERTEX
8
CUT
10
261.3850
20
121.3926
0
VERTEX
8
CUT
10
261.5379
20
121.9945
0
VERTEX
8
CUT
10
261.6875
20
122.5972
0
VERTEX
8
CUT
10
261.8338
20
123.2008
0
VERTEX
8
CUT
10
261.9769
20
123.8050
0
VERTEX
8
CUT
10
262.1167
20
124.4101
0
VERTEX
8
CUT
10
262.2533
20
125.0159
0
VERTEX
8
CUT
10
262.3865
20
125.6224
0
VERTEX
8
CUT
10
262.5165
20
126.2297
0
VERTEX
8
CUT
10
262.6433
20
126.8376
0
VERTEX
8
CUT
10
262.7667
20
127.4462
0
VERTEX
8
CUT
10
262.8868
20
128.0555
0
VERTEX
8
CUT
10
263.0037
20
128.6654
0
VERTEX
8
CUT
10
263.1172
20
129.2759
0
VERTEX
8
CUT
10
263.2275
20
129.8870
0
VERTEX
8
CUT
10
263.3345
20
130.4987
0
VERTEX
8
CUT
10
263.4381
20
131.1110
0
VERTEX
8
CUT
10
263.5385
20
131.7239
0
SEQEND
0
POLYLINE
8
CUT
66
1
70
1
0
VERTEX
8
CUT
10
272.8825
20
110.7458
0
VERTEX
8
CUT
10
272.6687
20
110.0828
0
VERTEX
8
CUT
10
272.4514
20
109.4210
0
VERTEX
8
CUT
10
272.2305
20
108.7604
0
VERTEX
8
CUT
10
272.0060
20
108.1009
0
VERTEX
8
CUT
10
271.7780
20
107.4427
0
VERTEX
8
CUT
10
271.5464
20
106.7857
0
VERTEX
8
CUT
10
271.3113
20
106.1300
0
VERTEX
8
CUT
10
271.0726
20
105.4756
0
VERTEX
8
CUT
10
270.8304
20
104.8224
0
VERTEX
8
CUT
10
270.5847
20
104.1706
0
VERTEX
8
CUT
10
270.3355
20
103.5201
0
VERTEX
8
CUT
10
270.0827
20
102.8710
0
VERTEX
8
CUT
10
269.8265
20
102.2233
0
VERTEX
8
CUT
10
269.5667
20
101.5769
0
VERTEX
8
CUT
10
269.3035
20
100.9319
0
VERTEX
8
CUT
10
269.0368
20
100.2884
0
VERTEX
8
CUT
10
268.7666
20
99.6464
0
VERTEX
8
CUT
10
268.4930
20
99.0058
0
VERTEX
8
CUT
10
268.2159
20
98.3666
0
VERTEX
8
CUT
10
267.9353
20
97.7290
0
VERTEX
8
CUT
10
267.6514
20
97.0929
0
VERTEX
8
CUT
10
267.3640
20
96.4584
0
VERTEX
8
CUT
10
267.0731
20
95.8254
0
VERTEX
8
CUT
10
266.7789
20
95.1940
0
VERTEX
8
CUT
10
254.1052
20
101.1420
0
VERTEX
8
CUT
10
254.3675
20
101.7048
0
VERTEX
8
CUT
10
254.6268
20
102.2691
0
VERTEX
8
CUT
10
254.8830
20
102.8348
0
VERTEX
8
CUT
10
255.1362
20
103.4019
0
VERTEX
8
CUT
10
255.3863
20
103.9703
0
VERTEX
8
CUT
10
255.6333
20
104.5400
0
VERTEX
8
CUT
10
255.8772
20
105.1111
0
VERTEX
8
CUT
10
256.1181
20
105.6835
0
VERTEX
8
CUT
10
256.3558
20
106.2572
0
VERTEX
8
CUT
10
256.5905
20
106.8321
0
VERTEX
8
CUT
10
256.8220
20
107.4083
0
VERTEX
8
CUT
10
257.0505
20
107.9858
0
VERTEX
8
CUT
10
257.2758
20
108.5645
0
VERTEX
8
CUT
10
257.4980
20
109.1444
0
VERTEX
8
CUT
10
257.7170
20
109.7254
0
VERTEX
8
CUT
10
257.9329
20
110.3077
0
VERTEX
8
CUT
10
258.1457
20
110.8911
0
VERTEX
8
CUT
10
258.3553
20
111.4757
0
VERTEX
8
CUT
10
258.5618
20
112.0613
0
VERTEX
8
CUT
10
258.7651
20
112.6481
0
VERTEX
8
CUT
10
258.9652
20
113.2360
0
VERTEX
8
CUT
10
259.1621
20
113.8249
0
VERTEX
8
CUT
10
259.3559
20
114.4149
0
VERTEX
8
CUT
10
259.5464
20
115.0060
0
SEQEND
0
POLYLINE
8
CUT
66
1
70
1
0
VERTEX
8
CUT
10
265.6595
20
92.8696
0
VERTEX
8
CUT
10
265.3493
20
92.2458
0
VERTEX
8
CUT
10
265.0357
20
91.6238
0
VERTEX
8
CUT
10
264.7188
20
91.0035
0
VERTEX
8
CUT
10
264.3986
20
90.3848
0
VERTEX
8
CUT
10
264.0750
20
89.7680
0
VERTEX
8
CUT
10
263.7481
20
89.1528
0
VERTEX
8
CUT
10
263.4178
20
88.5395
0
VERTEX
8
CUT
10
263.0843
20
87.9279
0
VERTEX
8
CUT
10
262.7475
20
87.3182
0
VERTEX
8
CUT
10
262.4073
20
86.7103
0
VERTEX
8
CUT
10
262.0639
20
86.1042
0
VERTEX
8
CUT
10
261.7173
20
85.5000
0
VERTEX
8
CUT
10
261.3674
20
84.8977
0
VERTEX
8
CUT
10
261.0142
20
84.2972
0
VERTEX
8
CUT
10
260.6578
20
83.6987
0
VERTEX
8
CUT
10
260.2981
20
83.1021
0
VERTEX
8
CUT
10
259.9353
20
82.5075
0
VERTEX
8
CUT
10
259.5692
20
81.9149
0
VERTEX
8
CUT
10
259.2000
20
81.3242
0
VERTEX
8
CUT
10
258.8275
20
80.7355
0
VERTEX
8
CUT
10
258.4519
20
80.1488
0
VERTEX
8
CUT
10
258.0731
20
79.5642
0
VERTEX
8
CUT
10
257.6912
20
78.9817
0
VERTEX
8
CUT
10
257.3061
20
78.4012
0
VERTEX
8
CUT
10
245.6605
20
86.1716
0
VERTEX
8
CUT
10
246.0038
20
86.6891
0
VERTEX
8
CUT
10
246.3443
20
87.2084
0
VERTEX
8
CUT
10
246.6819
20
87.7296
0
VERTEX
8
CUT
10
247.0168
20
88.2526
0
VERTEX
8
CUT
10
247.3488
20
88.7774
0
VERTEX
8
CUT
10
247.6780
20
89.3039
0
VERTEX
8
CUT
10
248.0043
20
89.8323
0
VERTEX
8
CUT
10
248.3278
20
90.3624
0
VERTEX
8
CUT
10
248.6484
20
90.8942
0
VERTEX
8
CUT
10
248.9661
20
91.4278
0
VERTEX
8
CUT
10
249.2810
20
91.9630
0
VERTEX
8
CUT
10
249.5929
20
92.5000
0
VERTEX
8
CUT
10
249.9020
20
93.0386
0
VERTEX
8
CUT
10
250.2081
20
93.5789
0
VERTEX
8
CUT
10
250.5113
20
94.1209
0
VERTEX
8
CUT
10
250.8116
20
94.6644
0
VERTEX
8
CUT
10
251.1089
20
95.2096
0
VERTEX
8
CUT
10
251.4033
20
95.7564
0
VERTEX
8
CUT
10
251.6948
20
96.3048
0
VERTEX
8
CUT
10
251.9832
20
96.8547
0
VERTEX
8
CUT
10
252.2687
20
97.4062
0
VERTEX
8
CUT
10
252.5512
20
97.9592
0
VERTEX
8
CUT
10
252.8308
20
98.5137
0
VERTEX
8
CUT
10
253.1073
20
99.0698
0
SEQEND
0
POLYLINE
8
CUT
66
1
70
1
0
VERTEX
8
CUT
10
255.8528
20
76.2695
0
VERTEX
8
CUT
10
255.4531
20
75.6990
0
VERTEX
8
CUT
10
255.0504
20
75.1306
0
VERTEX
8
CUT
10
254.6445
20
74.5645
0
VERTEX
8
CUT
10
254.2357
20
74.0005
0
VERTEX
8
CUT
10
253.8237
20
73.4387
0
VERTEX
8
CUT
10
253.4088
20
72.8792
0
VERTEX
8
CUT
10
252.9908
20
72.3219
0
VERTEX
8
CUT
10
252.5699
20
71.7669
0
VERTEX
8
CUT
10
252.1459
20
71.2142
0
VERTEX
8
CUT
10
251.7190
20
70.6637
0
VERTEX
8
CUT
10
251.2891
20
70.1156
0
VERTEX
8
CUT
10
250.8563
20
69.5698
0
VERTEX
8
CUT
10
250.4205
20
69.0264
0
VERTEX
8
CUT
10
249.9818
20
68.4853
0
VERTEX
8
CUT
10
249.5401
20
67.9466
0
VERTEX
8
CUT
10
249.0956
20
67.4103
0
VERTEX
8
CUT
10
248.6482
20
66.8763
0
VERTEX
8
CUT
10
248.1979
20
66.3449
0
VERTEX
8
CUT
10
247.7447
20
65.8158
0
VERTEX
8
CUT
10
247.2887
20
65.2892
0
VERTEX
8
CUT
10
246.8298
20
64.7651
0
VERTEX
8
CUT
10
246.3681
20
64.2435
0
VERTEX
8
CUT
10
245.9037
20
63.7243
0
VERTEX
8
CUT
10
245.4364
20
63.2077
0
VERTEX
8
CUT
10
235.0789
20
72.6270
0
VERTEX
8
CUT
10
235.4955
20
73.0876
0
VERTEX
8
CUT
10
235.9096
20
73.5504
0
VERTEX
8
CUT
10
236.3212
20
74.0154
0
VERTEX
8
CUT
10
236.7302
20
74.4826
0
VERTEX
8
CUT
10
237.1367
20
74.9521
0
VERTEX
8
CUT
10
237.5407
20
75.4237
0
VERTEX
8
CUT
10
237.9422
20
75.8975
0
VERTEX
8
CUT
10
238.3410
20
76.3735
0
VERTEX
8
CUT
10
238.7373
20
76.8516
0
VERTEX
8
CUT
10
239.1310
20
77.3318
0
VERTEX
8
CUT
10
239.5221
20
77.8142
0
VERTEX
8
CUT
10
239.9106
20
78.2987
0
VERTEX
8
CUT
10
240.2965
20
78.7852
0
VERTEX
8
CUT
10
240.6797
20
79.2739
0
VERTEX
8
CUT
10
241.0603
20
79.7646
0
VERTEX
8
CUT
10
241.4383
20
80.2573
0
VERTEX
8
CUT
10
241.8135
20
80.7521
0
VERTEX
8
CUT
10
242.1861
20
81.2489
0
VERTEX
8
CUT
10
242.5561
20
81.7477
0
VERTEX
8
CUT
10
242.9233
20
82.2485
0
VERTEX
8
CUT
10
243.2878
20
82.7513
0
VERTEX
8
CUT
10
243.6495
20
83.2560
0
VERTEX
8
CUT
10
244.0086
20
83.7627
0
VERTEX
8
CUT
10
244.3649
20
84.2713
0
SEQEND
0
POLYLINE
8
CUT
66
1
70
1
0
VERTEX
8
CUT
10
243.6816
20
61.3165
0
VERTEX
8
CUT
10
243.2013
20
60.8119
0
VERTEX
8
CUT
10
242.7183
20
60.3099
0
VERTEX
8
CUT
10
242.2327
20
59.8105
0
VERTEX
8
CUT
10
241.7443
20
59.3138
0
VERTEX
8
CUT
10
241.2533
20
58.8197
0
VERTEX
8
CUT
10
240.7596
20
58.3283
0
VERTEX
8
CUT
10
240.2632
20
57.8395
0
VERTEX
8
CUT
10
239.7642
20
57.3534
0
VERTEX
8
CUT
10
239.2626
20
56.8701
0
VERTEX
8
CUT
10
238.7584
20
56.3894
0
VERTEX
8
CUT
10
238.2516
20
55.9115
0
VERTEX
8
CUT
10
237.7423
20
55.4363
0
VERTEX
8
CUT
10
237.2304
20
54.9639
0
VERTEX
8
CUT
10
236.7159
20
54.4942
0
VERTEX
8
CUT
10
236.1989
20
54.0274
0
VERTEX
8
CUT
10
235.6794
20
53.5633
0
VERTEX
8
CUT
10
235.1574
20
53.1020
0
VERTEX
8
CUT
10
234.6329
20
52.6436
0
VERTEX
8
CUT
10
234.1060
20
52.1880
0
VERTEX
8
CUT
10
233.5766
20
51.7353
0
VERTEX
8
CUT
10
233.0447
20
51.2854
0
VERTEX
8
CUT
10
232.5104
20
50.8384
0
VERTEX
8
CUT
10
231.9738
20
50.3943
0
VERTEX
8
CUT
10
231.4347
20
49.9531
0
VERTEX
8
CUT
10
222.5968
20
60.8109
0
VERTEX
8
CUT
10
223.0774
20
61.2042
0
VERTEX
8
CUT
10
223.5558
20
61.6001
0
VERTEX
8
CUT
10
224.0321
20
61.9986
0
VERTEX
8
CUT
10
224.5062
20
62.3996
0
VERTEX
8
CUT
10
224.9782
20
62.8033
0
VERTEX
8
CUT
10
225.4479
20
63.2094
0
VERTEX
8
CUT
10
225.9155
20
63.6181
0
VERTEX
8
CUT
10
226.3809
20
64.0293
0
VERTEX
8
CUT
10
226.8440
20
64.4430
0
VERTEX
8
CUT
10
227.3049
20
64.8592
0
VERTEX
8
CUT
10
227.7635
20
65.2779
0
VERTEX
8
CUT
10
228.2199
20
65.6990
0
VERTEX
8
CUT
10
228.6739
20
66.1226
0
VERTEX
8
CUT
10
229.1257
20
66.5487
0
VERTEX
8
CUT
10
229.5752
20
66.9772
0
VERTEX
8
CUT
10
230.0224
20
67.4081
0
VERTEX
8
CUT
10
230.4672
20
67.8414
0
VERTEX
8
CUT
10
230.9097
20
68.2772
0
VERTEX
8
CUT
10
231.3498
20
68.7153
0
VERTEX
8
CUT
10
231.7875
20
69.1557
0
VERTEX
8
CUT
10
232.2229
20
69.5986
0
VERTEX
8
CUT
10
232.6559
20
70.0437
0
VERTEX
8
CUT
10
233.0864
20
70.4912
0
VERTEX
8
CUT
10
233.5146
20
70.9411
0
SEQEND
0
POLYLINE
8
CUT
66
1
70
1
0
VERTEX
8
CUT
10
229.4176
20
48.3445
0
VERTEX
8
CUT
10
228.8675
20
47.9171
0
VERTEX
8
CUT
10
228.3151
20
47.4927
0
VERTEX
8
CUT
10
227.7605
20
47.0713
0
VERTEX
8
CUT
10
227.2035
20
46.6529
0
VERTEX
8
CUT
10
226.6443
20
46.2375
0
VERTEX
8
CUT
10
226.0829
20
45.8252
0
VERTEX
8
CUT
10
225.5192
20
45.4158
0
VERTEX
8
CUT
10
224.9534
20
45.0096
0
VERTEX
8
CUT
10
224.3853
20
44.6064
0
VERTEX
8
CUT
10
223.8151
20
44.2062
0
VERTEX
8
CUT
10
223.2428
20
43.8092
0
VERTEX
8
CUT
10
222.6683
20
43.4152
0
VERTEX
8
CUT
10
222.0917
20
43.0243
0
VERTEX
8
CUT
10
221.5130
20
42.6366
0
VERTEX
8
CUT
10
220.9322
20
42.2520
0
VERTEX
8
CUT
10
220.3493
20
41.8706
0
VERTEX
8
CUT
10
219.7644
20
41.4922
0
VERTEX
8
CUT
10
219.1774
20
41.1171
0
VERTEX
8
CUT
10
218.5884
20
40.7451
0
VERTEX
8
CUT
10
217.9975
20
40.3764
0
VERTEX
8
CUT
10
217.4045
20
40.0108
0
VERTEX
8
CUT
10
216.8096
20
39.6484
0
VERTEX
8
CUT
10
216.2127
20
39.2892
0
VERTEX
8
CUT
10
215.6139
20
38.9333
0
VERTEX
8
CUT
10
208.4930
20
50.9870
0
VERTEX
8
CUT
10
209.0269
20
51.3044
0
VERTEX
8
CUT
10
209.5589
20
51.6245
0
VERTEX
8
CUT
10
210.0893
20
51.9476
0
VERTEX
8
CUT
10
210.6179
20
52.2735
0
VERTEX
8
CUT
10
211.1447
20
52.6023
0
VERTEX
8
CUT
10
211.6698
20
52.9339
0
VERTEX
8
CUT
10
212.1930
20
53.2683
0
VERTEX
8
CUT
10
212.7145
20
53.6055
0
VERTEX
8
CUT
10
213.2341
20
53.9456
0
VERTEX
8
CUT
10
213.7519
20
54.2885
0
VERTEX
8
CUT
10
214.2678
20
54.6341
0
VERTEX
8
CUT
10
214.7818
20
54.9825
0
VERTEX
8
CUT
10
215.2940
20
55.3337
0
VERTEX
8
CUT
10
215.8042
20
55.6877
0
VERTEX
8
CUT
10
216.3125
20
56.0444
0
VERTEX
8
CUT
10
216.8189
20
56.4039
0
VERTEX
8
CUT
10
217.3233
20
56.7661
0
VERTEX
8
CUT
10
217.8258
20
57.1310
0
VERTEX
8
CUT
10
218.3263
20
57.4986
0
VERTEX
8
CUT
10
218.8248
20
57.8689
0
VERTEX
8
CUT
10
219.3213
20
58.2419
0
VERTEX
8
CUT
10
219.8158
20
58.6176
0
VERTEX
8
CUT
10
220.3083
20
58.9959
0
VERTEX
8
CUT
10
220.7987
20
59.3769
0
SEQEND
0
POLYLINE
8
CUT
66
1
70
1
0
VERTEX
8
CUT
10
213.3796
20
37.6433
0
VERTEX
8
CUT
10
212.7720
20
37.3027
0
VERTEX
8
CUT
10
212.1625
20
36.9654
0
VERTEX
8
CUT
10
211.5512
20
36.6314
0
VERTEX
8
CUT
10
210.9381
20
36.3006
0
VERTEX
8
CUT
10
210.3233
20
35.9732
0
VERTEX
8
CUT
10
209.7066
20
35.6492
0
VERTEX
8
CUT
10
209.0883
20
35.3284
0
VERTEX
8
CUT
10
208.4682
20
35.0110
0
VERTEX
8
CUT
10
207.8464
20
34.6970
0
VERTEX
8
CUT
10
207.2229
20
34.3863
0
VERTEX
8
CUT
10
206.5978
20
34.0790
0
VERTEX
8
CUT
10
205.9710
20
33.7750
0
VERTEX
8
CUT
10
205.3426
20
33.4745
0
VERTEX
8
CUT
10
204.7125
20
33.1773
0
VERTEX
8
CUT
10
204.0809
20
32.8836
0
VERTEX
8
CUT
10
203.4477
20
32.5933
0
VERTEX
8
CUT
10
202.8129
20
32.3063
0
VERTEX
8
CUT
10
202.1766
20
32.0229
0
VERTEX
8
CUT
10
201.5388
20
31.7428
0
VERTEX
8
CUT
10
200.8994
20
31.4663
0
VERTEX
8
CUT
10
200.2586
20
31.1931
0
VERTEX
8
CUT
10
199.6163
20
30.9235
0
VERTEX
8
CUT
10
198.9726
20
30.6573
0
VERTEX
8
CUT
10
198.3274
20
30.3946
0
VERTEX
8
CUT
10
193.0826
20
43.3750
0
VERTEX
8
CUT
10
193.6577
20
43.6092
0
VERTEX
8
CUT
10
194.2316
20
43.8465
0
VERTEX
8
CUT
10
194.8042
20
44.0869
0
VERTEX
8
CUT
10
195.3755
20
44.3304
0
VERTEX
8
CUT
10
195.9454
20
44.5770
0
VERTEX
8
CUT
10
196.5140
20
44.8266
0
VERTEX
8
CUT
10
197.0813
20
45.0793
0
VERTEX
8
CUT
10
197.6472
20
45.3351
0
VERTEX
8
CUT
10
198.2117
20
45.5939
0
VERTEX
8
CUT
10
198.7747
20
45.8558
0
VERTEX
8
CUT
10
199.3364
20
46.1207
0
VERTEX
8
CUT
10
199.8966
20
46.3886
0
VERTEX
8
CUT
10
200.4554
20
46.6595
0
VERTEX
8
CUT
10
201.0127
20
46.9335
0
VERTEX
8
CUT
10
201.5685
20
47.2105
0
VERTEX
8
CUT
10
202.1228
20
47.4904
0
VERTEX
8
CUT
10
202.6756
20
47.7734
0
VERTEX
8
CUT
10
203.2269
20
48.0593
0
VERTEX
8
CUT
10
203.7766
20
48.3482
0
VERTEX
8
CUT
10
204.3247
20
48.6401
0
VERTEX
8
CUT
10
204.8712
20
48.9349
0
VERTEX
8
CUT
10
205.4162
20
49.2327
0
VERTEX
8
CUT
10
205.9595
20
49.5334
0
VERTEX
8
CUT
10
206.5012
20
49.8371
0
SEQEND
0
POLYLINE
8
CUT
66
1
70
1
0
VERTEX
8
CUT
10
195.9258
20
29.4520
0
VERTEX
8
CUT
10
195.2742
20
29.2058
0
VERTEX
8
CUT
10
194.6213
20
28.9631
0
VERTEX
8
CUT
10
193.9670
20
28.7239
0
VERTEX
8
CUT
10
193.3115
20
28.4882
0
VERTEX
8
CUT
10
192.6547
20
28.2561
0
VERTEX
8
CUT
10
191.9967
20
28.0275
0
VERTEX
8
CUT
10
191.3374
20
27.8025
0
VERTEX
8
CUT
10
190.6769
20
27.5811
0
VERTEX
8
CUT
10
190.0153
20
27.3632
0
VERTEX
8
CUT
10
189.3525
20
27.1489
0
VERTEX
8
CUT
10
188.6885
20
26.9382
0
VERTEX
8
CUT
10
188.0234
20
26.7311
0
VERTEX
8
CUT
10
187.3572
20
26.5276
0
VERTEX
8
CUT
10
186.6899
20
26.3277
0
VERTEX
8
CUT
10
186.0216
20
26.1313
0
VERTEX
8
CUT
10
185.3522
20
25.9386
0
VERTEX
8
CUT
10
184.6817
20
25.7495
0
VERTEX
8
CUT
10
184.0103
20
25.5641
0
VERTEX
8
CUT
10
183.3378
20
25.3822
0
VERTEX
8
CUT
10
182.6644
20
25.2040
0
VERTEX
8
CUT
10
181.9900
20
25.0295
0
VERTEX
8
CUT
10
181.3147
20
24.8585
0
VERTEX
8
CUT
10
180.6385
20
24.6913
0
VERTEX
8
CUT
10
179.9614
20
24.5276
0
VERTEX
8
CUT
10
176.7098
20
38.1448
0
VERTEX
8
CUT
10
177.3134
20
38.2907
0
VERTEX
8
CUT
10
177.9162
20
38.4398
0
VERTEX
8
CUT
10
178.5182
20
38.5921
0
VERTEX
8
CUT
10
179.1194
20
38.7478
0
VERTEX
8
CUT
10
179.7198
20
38.9066
0
VERTEX
8
CUT
10
180.3192
20
39.0687
0
VERTEX
8
CUT
10
180.9178
20
39.2341
0
VERTEX
8
CUT
10
181.5155
20
39.4026
0
VERTEX
8
CUT
10
182.1122
20
39.5744
0
VERTEX
8
CUT
10
182.7081
20
39.7495
0
VERTEX
8
CUT
10
183.3029
20
39.9277
0
VERTEX
8
CUT
10
183.8968
20
40.1091
0
VERTEX
8
CUT
10
184.4898
20
40.2938
0
VERTEX
8
CUT
10
185.0817
20
40.4816
0
VERTEX
8
CUT
10
185.6725
20
40.6727
0
VERTEX
8
CUT
10
186.2624
20
40.8669
0
VERTEX
8
CUT
10
186.8512
20
41.0643
0
VERTEX
8
CUT
10
187.4389
20
41.2649
0
VERTEX
8
CUT
10
188.0255
20
41.4686
0
VERTEX
8
CUT
10
188.6110
20
41.6755
0
VERTEX
8
CUT
10
189.1954
20
41.8856
0
VERTEX
8
CUT
10
189.7786
20
42.0988
0
VERTEX
8
CUT
10
190.3607
20
42.3152
0
VERTEX
8
CUT
10
190.9416
20
42.5347
0
SEQEND
0
POLYLINE
8
CUT
66
1
70
1
0
VERTEX
8
CUT
10
177.4461
20
23.9535
0
VERTEX
8
CUT
10
176.7651
20
23.8072
0
VERTEX
8
CUT
10
176.0833
20
23.6645
0
VERTEX
8
CUT
10
175.4007
20
23.5255
0
VERTEX
8
CUT
10
174.7173
20
23.3902
0
VERTEX
8
CUT
10
174.0333
20
23.2585
0
VERTEX
8
CUT
10
173.3485
20
23.1306
0
VERTEX
8
CUT
10
172.6631
20
23.0064
0
VERTEX
8
CUT
10
171.9770
20
22.8858
0
VERTEX
8
CUT
10
171.2903
20
22.7690
0
VERTEX
8
CUT
10
170.6029
20
22.6559
0
VERTEX
8
CUT
10
169.9150
20
22.5465
0
VERTEX
8
CUT
10
169.2265
20
22.4408
0
VERTEX
8
CUT
10
168.5374
20
22.3389
0
VERTEX
8
CUT
10
167.8477
20
22.2406
0
VERTEX
8
CUT
10
167.1576
20
22.1461
0
VERTEX
8
CUT
10
166.4669
20
22.0553
0
VERTEX
8
CUT
10
165.7758
20
21.9683
0
VERTEX
8
CUT
10
165.0842
20
21.8849
0
VERTEX
8
CUT
10
164.3921
20
21.8054
0
VERTEX
8
CUT
10
163.6997
20
21.7295
0
VERTEX
8
CUT
10
163.0068
20
21.6574
0
VERTEX
8
CUT
10
162.3136
20
21.5890
0
VERTEX
8
CUT
10
161.6200
20
21.5244
0
VERTEX
8
CUT
10
160.9261
20
21.4635
0
VERTEX
8
CUT
10
159.7403
20
35.4132
0
VERTEX
8
CUT
10
160.3589
20
35.4675
0
VERTEX
8
CUT
10
160.9772
20
35.5251
0
VERTEX
8
CUT
10
161.5952
20
35.5861
0
VERTEX
8
CUT
10
162.2129
20
35.6503
0
VERTEX
8
CUT
10
162.8302
20
35.7180
0
VERTEX
8
CUT
10
163.4471
20
35.7889
0
VERTEX
8
CUT
10
164.0637
20
35.8632
0
VERTEX
8
CUT
10
164.6798
20
35.9408
0
VERTEX
8
CUT
10
165.2955
20
36.0217
0
VERTEX
8
CUT
10
165.9108
20
36.1060
0
VERTEX
8
CUT
10
166.5256
20
36.1936
0
VERTEX
8
CUT
10
167.1399
20
36.2845
0
VERTEX
8
CUT
10
167.7537
20
36.3787
0
VERTEX
8
CUT
10
168.3670
20
36.4762
0
VERTEX
8
CUT
10
168.9797
20
36.5770
0
VERTEX
8
CUT
10
169.5919
20
36.6812
0
VERTEX
8
CUT
10
170.2036
20
36.7886
0
VERTEX
8
CUT
10
170.8146
20
36.8994
0
VERTEX
8
CUT
10
171.4250
20
37.0134
0
VERTEX
8
CUT
10
172.0348
20
37.1308
0
VERTEX
8
CUT
10
172.6440
20
37.2514
0
VERTEX
8
CUT
10
173.2525
20
37.3753
0
VERTEX
8
CUT
10
173.8603
20
37.5025
0
VERTEX
8
CUT
10
174.4675
20
37.6330
0
SEQEND
0
POLYLINE
8
CUT
66
1
70
1
0
VERTEX
8
CUT
10
158.3533
20
21.2707
0
VERTEX
8
CUT
10
157.6581
20
21.2275
0
VERTEX
8
CUT
10
156.9626
20
21.1880
0
VERTEX
8
CUT
10
156.2669
20
21.1523
0
VERTEX
8
CUT
10
155.5711
20
21.1204
0
VERTEX
8
CUT
10
154.8750
20
21.0921
0
VERTEX
8
CUT
10
154.1789
20
21.0677
0
VERTEX
8
CUT
10
153.4826
20
21.0470
0
VERTEX
8
CUT
10
152.7862
20
21.0301
0
VERTEX
8
CUT
10
152.0897
20
21.0169
0
VERTEX
8
CUT
10
151.3932
20
21.0075
0
VERTEX
8
CUT
10
150.6966
20
21.0019
0
VERTEX
8
CUT
10
150.0000
20
21.0000
0
VERTEX
8
CUT
10
149.3034
20
21.0019
0
VERTEX
8
CUT
10
148.6068
20
21.0075
0
VERTEX
8
CUT
10
147.9103
20
21.0169
0
VERTEX
8
CUT
10
147.2138
20
21.0301
0
VERTEX
8
CUT
10
146.5174
20
21.0470
0
VERTEX
8
CUT
10
145.8211
20
21.0677
0
VERTEX
8
CUT
10
145.1250
20
21.0921
0
VERTEX
8
CUT
10
144.4289
20
21.1204
0
VERTEX
8
CUT
10
143.7331
20
21.1523
0
VERTEX
8
CUT
10
143.0374
20
21.1880
0
VERTEX
8
CUT
10
142.3419
20
21.2275
0
VERTEX
8
CUT
10
141.6467
20
21.2707
0
VERTEX
8
CUT
10
142.5532
20
35.2414
0
VERTEX
8
CUT
10
143.1730
20
35.2028
0
VERTEX
8
CUT
10
143.7930
20
35.1676
0
VERTEX
8
CUT
10
144.4132
20
35.1358
0
VERTEX
8
CUT
10
145.0336
20
35.1073
0
VERTEX
8
CUT
10
145.6540
20
35.0821
0
VERTEX
8
CUT
10
146.2747
20
35.0604
0
VERTEX
8
CUT
10
146.8954
20
35.0419
0
VERTEX
8
CUT
10
147.5162
20
35.0268
0
VERTEX
8
CUT
10
148.1371
20
35.0151
0
VERTEX
8
CUT
10
148.7580
20
35.0067
0
VERTEX
8
CUT
10
149.3790
20
35.0017
0
VERTEX
8
CUT
10
150.0000
20
35.0000
0
VERTEX
8
CUT
10
150.6210
20
35.0017
0
VERTEX
8
CUT
10
151.2420
20
35.0067
0
VERTEX
8
CUT
10
151.8629
20
35.0151
0
VERTEX
8
CUT
10
152.4838
20
35.0268
0
VERTEX
8
CUT
10
153.1046
20
35.0419
0
VERTEX
8
CUT
10
153.7253
20
35.0604
0
VERTEX
8
CUT
10
154.3460
20
35.0821
0
VERTEX
8
CUT
10
154.9664
20
35.1073
0
VERTEX
8
CUT
10
155.5868
20
35.1358
0
VERTEX
8
CUT
10
156.2070
20
35.1676
0
VERTEX
8
CUT
10
156.8270
20
35.2028
0
VERTEX
8
CUT
10
157.4468
20
35.2414
0
SEQEND
0
POLYLINE
8
CUT
66
1
70
1
0
VERTEX
8
CUT
10
139.0739
20
21.4635
0
VERTEX
8
CUT
10
138.3800
20
21.5244
0
VERTEX
8
CUT
10
137.6864
20
21.5890
0
VERTEX
8
CUT
10
136.9932
20
21.6574
0
VERTEX
8
CUT
10
136.3003
20
21.7295
0
VERTEX
8
CUT
10
135.6079
20
21.8054
0
VERTEX
8
CUT
10
134.9158
20
21.8849
0
VERTEX
8
CUT
10
134.2242
20
21.9683
0
VERTEX
8
CUT
10
133.5331
20
22.0553
0
VERTEX
8
CUT
10
132.8424
20
22.1461
0
VERTEX
8
CUT
10
132.1523
20
22.2406
0
VERTEX
8
CUT
10
131.4626
20
22.3389
0
VERTEX
8
CUT
10
130.7735
20
22.4408
0
VERTEX
8
CUT
10
130.0850
20
22.5465
0
VERTEX
8
CUT
10
129.3971
20
22.6559
0
VERTEX
8
CUT
10
128.7097
20
22.7690
0
VERTEX
8
CUT
10
128.0230
20
22.8858
0
VERTEX
8
CUT
10
127.3369
20
23.0064
0
VERTEX
8
CUT
10
126.6515
20
23.1306
0
VERTEX
8
CUT
10
125.9667
20
23.2585
0
VERTEX
8
CUT
10
125.2827
20
23.3902
0
VERTEX
8
CUT
10
124.5993
20
23.5255
0
VERTEX
8
CUT
10
123.9167
20
23.6645
0
VERTEX
8
CUT
10
123.2349
20
23.8072
0
VERTEX
8
CUT
10
122.5539
20
23.9535
0
VERTEX
8
CUT
10
125.5325
20
37.6330
0
VERTEX
8
CUT
10
126.1397
20
37.5025
0
VERTEX
8
CUT
10
126.7475
20
37.3753
0
VERTEX
8
CUT
10
127.3560
20
37.2514
0
VERTEX
8
CUT
10
127.9652
20
37.1308
0
VERTEX
8
CUT
10
128.5750
20
37.0134
0
VERTEX
8
CUT
10
129.1854
20
36.8994
0
VERTEX
8
CUT
10
129.7964
20
36.7886
0
VERTEX
8
CUT
10
130.4081
20
36.6812
0
VERTEX
8
CUT
10
131.0203
20
36.5770
0
VERTEX
8
CUT
10
131.6330
20
36.4762
0
VERTEX
8
CUT
10
132.2463
20
36.3787
0
VERTEX
8
CUT
10
132.8601
20
36.2845
0
VERTEX
8
CUT
10
133.4744
20
36.1936
0
VERTEX
8
CUT
10
134.0892
20
36.1060
0
VERTEX
8
CUT
10
134.7045
20
36.0217
0
VERTEX
8
CUT
10
135.3202
20
35.9408
0
VERTEX
8
CUT
10
135.9363
20
35.8632
0
VERTEX
8
CUT
10
136.5529
20
35.7889
0
VERTEX
8
CUT
10
137.1698
20
35.7180
0
VERTEX
8
CUT
10
137.7871
20
35.6503
0
VERTEX
8
CUT
10
138.4048
20
35.5861
0
VERTEX
8
CUT
10
139.0228
20
35.5251
0
VERTEX
8
CUT
10
139.6411
20
35.4675
0
VERTEX
8
CUT
10
140.2597
20
35.4132
0
SEQEND
0
POLYLINE
8
CUT
66
1
70
1
0
VERTEX
8
CUT
10
120.0386
20
24.5276
0
VERTEX
8
CUT
10
119.3615
20
24.6913
0
VERTEX
8
CUT
10
118.6853
20
24.8585
0
VERTEX
8
CUT
10
118.0100
20
25.0295
0
VERTEX
8
CUT
10
117.3356
20
25.2040
0
VERTEX
8
CUT
10
116.6622
20
25.3822
0
VERTEX
8
CUT
10
115.9897
20
25.5641
0
VERTEX
8
CUT
10
115.3183
20
25.7495
0
VERTEX
8
CUT
10
114.6478
20
25.9386
0
VERTEX
8
CUT
10
113.9784
20
26.1313
0
VERTEX
8
CUT
10
113.3101
20
26.3277
0
VERTEX
8
CUT
10
112.6428
20
26.5276
0
VERTEX
8
CUT
10
111.9766
20
26.7311
0
VERTEX
8
CUT
10
111.3115
20
26.9382
0
VERTEX
8
CUT
10
110.6475
20
27.1489
0
VERTEX
8
CUT
10
109.9847
20
27.3632
0
VERTEX
8
CUT
10
109.3231
20
27.5811
0
VERTEX
8
CUT
10
108.6626
20
27.8025
0
VERTEX
8
CUT
10
108.0033
20
28.0275
0
VERTEX
8
CUT
10
107.3453
20
28.2561
0
VERTEX
8
CUT
10
106.6885
20
28.4882
0
VERTEX
8
CUT
10
106.0330
20
28.7239
0
VERTEX
8
CUT
10
105.3787
20
28.9631
0
VERTEX
8
CUT
10
104.7258
20
29.2058
0
VERTEX
8
CUT
10
104.0742
20
29.4520
0
VERTEX
8
CUT
10
109.0584
20
42.5347
0
VERTEX
8
CUT
10
109.6393
20
42.3152
0
VERTEX
8
CUT
10
110.2214
20
42.0988
0
VERTEX
8
CUT
10
110.8046
20
41.8856
0
VERTEX
8
CUT
10
111.3890
20
41.6755
0
VERTEX
8
CUT
10
111.9745
20
41.4686
0
VERTEX
8
CUT
10
112.5611
20
41.2649
0
VERTEX
8
CUT
10
113.1488
20
41.0643
0
VERTEX
8
CUT
10
113.7376
20
40.8669
0
VERTEX
8
CUT
10
114.3275
20
40.6727
0
VERTEX
8
CUT
10
114.9183
20
40.4816
0
VERTEX
8
CUT
10
115.5102
20
40.2938
0
VERTEX
8
CUT
10
116.1032
20
40.1091
0
VERTEX
8
CUT
10
116.6971
20
39.9277
0
VERTEX
8
CUT
10
117.2919
20
39.7495
0
VERTEX
8
CUT
10
117.8878
20
39.5744
0
VERTEX
8
CUT
10
118.4845
20
39.4026
0
VERTEX
8
CUT
10
119.0822
20
39.2341
0
VERTEX
8
CUT
10
119.6808
20
39.0687
0
VERTEX
8
CUT
10
120.2802
20
38.9066
0
VERTEX
8
CUT
10
120.8806
20
38.7478
0
VERTEX
8
CUT
10
121.4818
20
38.5921
0
VERTEX
8
CUT
10
122.0838
20
38.4398
0
VERTEX
8
CUT
10
122.6866
20
38.2907
0
VERTEX
8
CUT
10
123.2902
20
38.1448
0
SEQEND
0
POLYLINE
8
CUT
66
1
70
1
0
VERTEX
8
CUT
10
101.6726
20
30.3946
0
VERTEX
8
CUT
10
101.0274
20
30.6573
0
VERTEX
8
CUT
10
100.3837
20
30.9235
0
VERTEX
8
CUT
10
99.7414
20
31.1931
0
VERTEX
8
CUT
10
99.1006
20
31.4663
0
VERTEX
8
CUT
10
98.4612
20
31.7428
0
VERTEX
8
CUT
10
97.8234
20
32.0229
0
VERTEX
8
CUT
10
97.1871
20
32.3063
0
VERTEX
8
CUT
10
96.5523
20
32.5933
0
VERTEX
8
CUT
10
95.9191
20
32.8836
0
VERTEX
8
CUT
10
95.2875
20
33.1773
0
VERTEX
8
CUT
10
94.6574
20
33.4745
0
VERTEX
8
CUT
10
94.0290
20
33.7750
0
VERTEX
8
CUT
10
93.4022
20
34.0790
0
VERTEX
8
CUT
10
92.7771
20
34.3863
0
VERTEX
8
CUT
10
92.1536
20
34.6970
0
VERTEX
8
CUT
10
91.5318
20
35.0110
0
VERTEX
8
CUT
10
90.9117
20
35.3284
0
VERTEX
8
CUT
10
90.2934
20
35.6492
0
VERTEX
8
CUT
10
89.6767
20
35.9732
0
VERTEX
8
CUT
10
89.0619
20
36.3006
0
VERTEX
8
CUT
10
88.4488
20
36.6314
0
VERTEX
8
CUT
10
87.8375
20
36.9654
0
VERTEX
8
CUT
10
87.2280
20
37.3027
0
VERTEX
8
CUT
10
86.6204
20
37.6433
0
VERTEX
8
CUT
10
93.4988
20
49.8371
0
VERTEX
8
CUT
10
94.0405
20
49.5334
0
VERTEX
8
CUT
10
94.5838
20
49.2327
0
VERTEX
8
CUT
10
95.1288
20
48.9349
0
VERTEX
8
CUT
10
95.6753
20
48.6401
0
VERTEX
8
CUT
10
96.2234
20
48.3482
0
VERTEX
8
CUT
10
96.7731
20
48.0593
0
VERTEX
8
CUT
10
97.3244
20
47.7734
0
VERTEX
8
CUT
10
97.8772
20
47.4904
0
VERTEX
8
CUT
10
98.4315
20
47.2105
0
VERTEX
8
CUT
10
98.9873
20
46.9335
0
VERTEX
8
CUT
10
99.5446
20
46.6595
0
VERTEX
8
CUT
10
100.1034
20
46.3886
0
VERTEX
8
CUT
10
100.6636
20
46.1207
0
VERTEX
8
CUT
10
101.2253
20
45.8558
0
VERTEX
8
CUT
10
101.7883
20
45.5939
0
VERTEX
8
CUT
10
102.3528
20
45.3351
0
VERTEX
8
CUT
10
102.9187
20
45.0793
0
VERTEX
8
CUT
10
103.4860
20
44.8266
0
VERTEX
8
CUT
10
104.0546
20
44.5770
0
VERTEX
8
CUT
10
104.6245
20
44.3304
0
VERTEX
8
CUT
10
105.1958
20
44.0869
0
VERTEX
8
CUT
10
105.7684
20
43.8465
0
VERTEX
8
CUT
10
106.3423
20
43.6092
0
VERTEX
8
CUT
10
106.9174
20
43.3750
0
SEQEND
0
POLYLINE
8
CUT
66
1
70
1
0
VERTEX
8
CUT
10
84.3861
20
38.9333
0
VERTEX
8
CUT
10
83.7873
20
39.2892
0
VERTEX
8
CUT
10
83.1904
20
39.6484
0
VERTEX
8
CUT
10
82.5955
20
40.0108
0
VERTEX
8
CUT
10
82.0025
20
40.3764
0
VERTEX
8
CUT
10
81.4116
20
40.7451
0
VERTEX
8
CUT
10
80.8226
20
41.1171
0
VERTEX
8
CUT
10
80.2356
20
41.4922
0
VERTEX
8
CUT
10
79.6507
20
41.8706
0
VERTEX
8
CUT
10
79.0678
20
42.2520
0
VERTEX
8
CUT
10
78.4870
20
42.6366
0
VERTEX
8
CUT
10
77.9083
20
43.0243
0
VERTEX
8
CUT
10
77.3317
20
43.4152
0
VERTEX
8
CUT
10
76.7572
20
43.8092
0
VERTEX
8
CUT
10
76.1849
20
44.2062
0
VERTEX
8
CUT
10
75.6147
20
44.6064
0
VERTEX
8
CUT
10
75.0466
20
45.0096
0
VERTEX
8
CUT
10
74.4808
20
45.4158
0
VERTEX
8
CUT
10
73.9171
20
45.8252
0
VERTEX
8
CUT
10
73.3557
20
46.2375
0
VERTEX
8
CUT
10
72.7965
20
46.6529
0
VERTEX
8
CUT
10
72.2395
20
47.0713
0
VERTEX
8
CUT
10
71.6849
20
47.4927
0
VERTEX
8
CUT
10
71.1325
20
47.9171
0
VERTEX
8
CUT
10
70.5824
20
48.3445
0
VERTEX
8
CUT
10
79.2013
20
59.3769
0
VERTEX
8
CUT
10
79.6917
20
58.9959
0
VERTEX
8
CUT
10
80.1842
20
58.6176
0
VERTEX
8
CUT
10
80.6787
20
58.2419
0
VERTEX
8
CUT
10
81.1752
20
57.8689
0
VERTEX
8
CUT
10
81.6737
20
57.4986
0
VERTEX
8
CUT
10
82.1742
20
57.1310
0
VERTEX
8
CUT
10
82.6767
20
56.7661
0
VERTEX
8
CUT
10
83.1811
20
56.4039
0
VERTEX
8
CUT
10
83.6875
20
56.0444
0
VERTEX
8
CUT
10
84.1958
20
55.6877
0
VERTEX
8
CUT
10
84.7060
20
55.3337
0
VERTEX
8
CUT
10
85.2182
20
54.9825
0
VERTEX
8
CUT
10
85.7322
20
54.6341
0
VERTEX
8
CUT
10
86.2481
20
54.2885
0
VERTEX
8
CUT
10
86.7659
20
53.9456
0
VERTEX
8
CUT
10
87.2855
20
53.6055
0
VERTEX
8
CUT
10
87.8070
20
53.2683
0
VERTEX
8
CUT
10
88.3302
20
52.9339
0
VERTEX
8
CUT
10
88.8553
20
52.6023
0
VERTEX
8
CUT
10
89.3821
20
52.2735
0
VERTEX
8
CUT
10
89.9107
20
51.9476
0
VERTEX
8
CUT
10
90.4411
20
51.6245
0
VERTEX
8
CUT
10
90.9731
20
51.3044
0
VERTEX
8
CUT
10
91.5070
20
50.9870
0
SEQEND
0
POLYLINE
8
CUT
66
1
70
1
0
VERTEX
8
CUT
10
68.5653
20
49.9531
0
VERTEX
8
CUT
10
68.0262
20
50.3943
0
VERTEX
8
CUT
10
67.4896
20
50.8384
0
VERTEX
8
CUT
10
66.9553
20
51.2854
0
VERTEX
8
CUT
10
66.4234
20
51.7353
0
VERTEX
8
CUT
10
65.8940
20
52.1880
0
VERTEX
8
CUT
10
65.3671
20
52.6436
0
VERTEX
8
CUT
10
64.8426
20
53.1020
0
VERTEX
8
CUT
10
64.3206
20
53.5633
0
VERTEX
8
CUT
10
63.8011
20
54.0274
0
VERTEX
8
CUT
10
63.2841
20
54.4942
0
VERTEX
8
CUT
10
62.7696
20
54.9639
0
VERTEX
8
CUT
10
62.2577
20
55.4363
0
VERTEX
8
CUT
10
61.7484
20
55.9115
0
VERTEX
8
CUT
10
61.2416
20
56.3894
0
VERTEX
8
CUT
10
60.7374
20
56.8701
0
VERTEX
8
CUT
10
60.2358
20
57.3534
0
VERTEX
8
CUT
10
59.7368
20
57.8395
0
VERTEX
8
CUT
10
59.2404
20
58.3283
0
VERTEX
8
CUT
10
58.7467
20
58.8197
0
VERTEX
8
CUT
10
58.2557
20
59.3138
0
VERTEX
8
CUT
10
57.7673
20
59.8105
0
VERTEX
8
CUT
10
57.2817
20
60.3099
0
VERTEX
8
CUT
10
56.7987
20
60.8119
0
VERTEX
8
CUT
10
56.3184
20
61.3165
0
VERTEX
8
CUT
10
66.4854
20
70.9411
0
VERTEX
8
CUT
10
66.9136
20
70.4912
0
VERTEX
8
CUT
10
67.3441
20
70.0437
0
VERTEX
8
CUT
10
67.7771
20
69.5986
0
VERTEX
8
CUT
10
68.2125
20
69.1557
0
VERTEX
8
CUT
10
68.6502
20
68.7153
0
VERTEX
8
CUT
10
69.0903
20
68.2772
0
VERTEX
8
CUT
10
69.5328
20
67.8414
0
VERTEX
8
CUT
10
69.9776
20
67.4081
0
VERTEX
8
CUT
10
70.4248
20
66.9772
0
VERTEX
8
CUT
10
70.8743
20
66.5487
0
VERTEX
8
CUT
10
71.3261
20
66.1226
0
VERTEX
8
CUT
10
71.7801
20
65.6990
0
VERTEX
8
CUT
10
72.2365
20
65.2779
0
VERTEX
8
CUT
10
72.6951
20
64.8592
0
VERTEX
8
CUT
10
73.1560
20
64.4430
0
VERTEX
8
CUT
10
73.6191
20
64.0293
0
VERTEX
8
CUT
10
74.0845
20
63.6181
0
VERTEX
8
CUT
10
74.5521
20
63.2094
0
VERTEX
8
CUT
10
75.0218
20
62.8033
0
VERTEX
8
CUT
10
75.4938
20
62.3996
0
VERTEX
8
CUT
10
75.9679
20
61.9986
0
VERTEX
8
CUT
10
76.4442
20
61.6001
0
VERTEX
8
CUT
10
76.9226
20
61.2042
0
VERTEX
8
CUT
10
77.4032
20
60.8109
0
SEQEND
0
POLYLINE
8
CUT
66
1
70
1
0
VERTEX
8
CUT
10
54.5636
20
63.2077
0
VERTEX
8
CUT
10
54.0963
20
63.7243
0
VERTEX
8
CUT
10
53.6319
20
64.2435
0
VERTEX
8
CUT
10
53.1702
20
64.7651
0
VERTEX
8
CUT
10
52.7113
20
65.2892
0
VERTEX
8
CUT
10
52.2553
20
65.8158
0
VERTEX
8
CUT
10
51.8021
20
66.3449
0
VERTEX
8
CUT
10
51.3518
20
66.8763
0
VERTEX
8
CUT
10
50.9044
20
67.4103
0
VERTEX
8
CUT
10
50.4599
20
67.9466
0
VERTEX
8
CUT
10
50.0182
20
68.4853
0
VERTEX
8
CUT
10
49.5795
20
69.0264
0
VERTEX
8
CUT
10
49.1437
20
69.5698
0
VERTEX
8
CUT
10
48.7109
20
70.1156
0
VERTEX
8
CUT
10
48.2810
20
70.6637
0
VERTEX
8
CUT
10
47.8541
20
71.2142
0
VERTEX
8
CUT
10
47.4301
20
71.7669
0
VERTEX
8
CUT
10
47.0092
20
72.3219
0
VERTEX
8
CUT
10
46.5912
20
72.8792
0
VERTEX
8
CUT
10
46.1763
20
73.4387
0
VERTEX
8
CUT
10
45.7643
20
74.0005
0
VERTEX
8
CUT
10
45.3555
20
74.5645
0
VERTEX
8
CUT
10
44.9496
20
75.1306
0
VERTEX
8
CUT
10
44.5469
20
75.6990
0
VERTEX
8
CUT
10
44.1472
20
76.2695
0
VERTEX
8
CUT
10
55.6351
20
84.2713
0
VERTEX
8
CUT
10
55.9914
20
83.7627
0
VERTEX
8
CUT
10
56.3505
20
83.2560
0
VERTEX
8
CUT
10
56.7122
20
82.7513
0
VERTEX
8
CUT
10
57.0767
20
82.2485
0
VERTEX
8
CUT
10
57.4439
20
81.7477
0
VERTEX
8
CUT
10
57.8139
20
81.2489
0
VERTEX
8
CUT
10
58.1865
20
80.7521
0
VERTEX
8
CUT
10
58.5617
20
80.2573
0
VERTEX
8
CUT
10
58.9397
20
79.7646
0
VERTEX
8
CUT
10
59.3203
20
79.2739
0
VERTEX
8
CUT
10
59.7035
20
78.7852
0
VERTEX
8
CUT
10
60.0894
20
78.2987
0
VERTEX
8
CUT
10
60.4779
20
77.8142
0
VERTEX
8
CUT
10
60.8690
20
77.3318
0
VERTEX
8
CUT
10
61.2627
20
76.8516
0
VERTEX
8
CUT
10
61.6590
20
76.3735
0
VERTEX
8
CUT
10
62.0578
20
75.8975
0
VERTEX
8
CUT
10
62.4593
20
75.4237
0
VERTEX
8
CUT
10
62.8633
20
74.9521
0
VERTEX
8
CUT
10
63.2698
20
74.4826
0
VERTEX
8
CUT
10
63.6788
20
74.0154
0
VERTEX
8
CUT
10
64.0904
20
73.5504
0
VERTEX
8
CUT
10
64.5045
20
73.0876
0
VERTEX
8
CUT
10
64.9211
20
72.6270
0
SEQEND
0
POLYLINE
8
CUT
66
1
70
1
0
VERTEX
8
CUT
10
42.6939
20
78.4012
0
VERTEX
8
CUT
10
42.3088
20
78.9817
0
VERTEX
8
CUT
10
41.9269
20
79.5642
0
VERTEX
8
CUT
10
41.5481
20
80.1488
0
VERTEX
8
CUT
10
41.1725
20
80.7355
0
VERTEX
8
CUT
10
40.8000
20
81.3242
0
VERTEX
8
CUT
10
40.4308
20
81.9149
0
VERTEX
8
CUT
10
40.0647
20
82.5075
0
VERTEX
8
CUT
10
39.7019
20
83.1021
0
VERTEX
8
CUT
10
39.3422
20
83.6987
0
VERTEX
8
CUT
10
38.9858
20
84.2972
0
VERTEX
8
CUT
10
38.6326
20
84.8977
0
VERTEX
8
CUT
10
38.2827
20
85.5000
0
VERTEX
8
CUT
10
37.9361
20
86.1042
0
VERTEX
8
CUT
10
37.5927
20
86.7103
0
VERTEX
8
CUT
10
37.2525
20
87.3182
0
VERTEX
8
CUT
10
36.9157
20
87.9279
0
VERTEX
8
CUT
10
36.5822
20
88.5395
0
VERTEX
8
CUT
10
36.2519
20
89.1528
0
VERTEX
8
CUT
10
35.9250
20
89.7680
0
VERTEX
8
CUT
10
35.6014
20
90.3848
0
VERTEX
8
CUT
10
35.2812
20
91.0035
0
VERTEX
8
CUT
10
34.9643
20
91.6238
0
VERTEX
8
CUT
10
34.6507
20
92.2458
0
VERTEX
8
CUT
10
34.3405
20
92.8696
0
VERTEX
8
CUT
10
46.8927
20
99.0698
0
VERTEX
8
CUT
10
47.1692
20
98.5137
0
VERTEX
8
CUT
10
47.4488
20
97.9592
0
VERTEX
8
CUT
10
47.7313
20
97.4062
0
VERTEX
8
CUT
10
48.0168
20
96.8547
0
VERTEX
8
CUT
10
48.3052
20
96.3048
0
VERTEX
8
CUT
10
48.5967
20
95.7564
0
VERTEX
8
CUT
10
48.8911
20
95.2096
0
VERTEX
8
CUT
10
49.1884
20
94.6644
0
VERTEX
8
CUT
10
49.4887
20
94.1209
0
VERTEX
8
CUT
10
49.7919
20
93.5789
0
VERTEX
8
CUT
10
50.0980
20
93.0386
0
VERTEX
8
CUT
10
50.4071
20
92.5000
0
VERTEX
8
CUT
10
50.7190
20
91.9630
0
VERTEX
8
CUT
10
51.0339
20
91.4278
0
VERTEX
8
CUT
10
51.3516
20
90.8942
0
VERTEX
8
CUT
10
51.6722
20
90.3624
0
VERTEX
8
CUT
10
51.9957
20
89.8323
0
VERTEX
8
CUT
10
52.3220
20
89.3039
0
VERTEX
8
CUT
10
52.6512
20
88.7774
0
VERTEX
8
CUT
10
52.9832
20
88.2526
0
VERTEX
8
CUT
10
53.3181
20
87.7296
0
VERTEX
8
CUT
10
53.6557
20
87.2084
0
VERTEX
8
CUT
10
53.9962
20
86.6891
0
VERTEX
8
CUT
10
54.3395
20
86.1716
0
SEQEND
0
POLYLINE
8
CUT
66
1
70
1
0
VERTEX
8
CUT
10
33.2211
20
95.1940
0
VERTEX
8
CUT
10
32.9269
20
95.8254
0
VERTEX
8
CUT
10
32.6360
20
96.4584
0
VERTEX
8
CUT
10
32.3486
20
97.0929
0
VERTEX
8
CUT
10
32.0647
20
97.7290
0
VERTEX
8
CUT
10
31.7841
20
98.3666
0
VERTEX
8
CUT
10
31.5070
20
99.0058
0
VERTEX
8
CUT
10
31.2334
20
99.6464
0
VERTEX
8
CUT
10
30.9632
20
100.2884
0
VERTEX
8
CUT
10
30.6965
20
100.9319
0
VERTEX
8
CUT
10
30.4333
20
101.5769
0
VERTEX
8
CUT
10
30.1735
20
102.2233
0
VERTEX
8
CUT
10
29.9173
20
102.8710
0
VERTEX
8
CUT
10
29.6645
20
103.5201
0
VERTEX
8
CUT
10
29.4153
20
104.1706
0
VERTEX
8
CUT
10
29.1696
20
104.8224
0
VERTEX
8
CUT
10
28.9274
20
105.4756
0
VERTEX
8
CUT
10
28.6887
20
106.1300
0
VERTEX
8
CUT
10
28.4536
20
106.7857
0
VERTEX
8
CUT
10
28.2220
20
107.4427
0
VERTEX
8
CUT
10
27.9940
20
108.1009
0
VERTEX
8
CUT
10
27.7695
20
108.7604
0
VERTEX
8
CUT
10
27.5486
20
109.4210
0
VERTEX
8
CUT
10
27.3313
20
110.0828
0
VERTEX
8
CUT
10
27.1175
20
110.7458
0
VERTEX
8
CUT
10
40.4536
20
115.0060
0
VERTEX
8
CUT
10
40.6441
20
114.4149
0
VERTEX
8
CUT
10
40.8379
20
113.8249
0
VERTEX
8
CUT
10
41.0348
20
113.2360
0
VERTEX
8
CUT
10
41.2349
20
112.6481
0
VERTEX
8
CUT
10
41.4382
20
112.0613
0
VERTEX
8
CUT
10
41.6447
20
111.4757
0
VERTEX
8
CUT
10
41.8543
20
110.8911
0
VERTEX
8
CUT
10
42.0671
20
110.3077
0
VERTEX
8
CUT
10
42.2830
20
109.7254
0
VERTEX
8
CUT
10
42.5020
20
109.1444
0
VERTEX
8
CUT
10
42.7242
20
108.5645
0
VERTEX
8
CUT
10
42.9495
20
107.9858
0
VERTEX
8
CUT
10
43.1780
20
107.4083
0
VERTEX
8
CUT
10
43.4095
20
106.8321
0
VERTEX
8
CUT
10
43.6442
20
106.2572
0
VERTEX
8
CUT
10
43.8819
20
105.6835
0
VERTEX
8
CUT
10
44.1228
20
105.1111
0
VERTEX
8
CUT
10
44.3667
20
104.5400
0
VERTEX
8
CUT
10
44.6137
20
103.9703
0
VERTEX
8
CUT
10
44.8638
20
103.4019
0
VERTEX
8
CUT
10
45.1170
20
102.8348
0
VERTEX
8
CUT
10
45.3732
20
102.2691
0
VERTEX
8
CUT
10
45.6325
20
101.7048
0
VERTEX
8
CUT
10
45.8948
20
101.1420
0
SEQEND
0
POLYLINE
8
CUT
66
1
70
1
0
VERTEX
8
CUT
10
26.3570
20
113.2112
0
VERTEX
8
CUT
10
26.1602
20
113.8794
0
VERTEX
8
CUT
10
25.9669
20
114.5486
0
VERTEX
8
CUT
10
25.7773
20
115.2189
0
VERTEX
8
CUT
10
25.5913
20
115.8902
0
VERTEX
8
CUT
10
25.4089
20
116.5625
0
VERTEX
8
CUT
10
25.2302
20
117.2358
0
VERTEX
8
CUT
10
25.0551
20
117.9100
0
VERTEX
8
CUT
10
24.8836
20
118.5852
0
VERTEX
8
CUT
10
24.7158
20
119.2613
0
VERTEX
8
CUT
10
24.5516
20
119.9382
0
VERTEX
8
CUT
10
24.3911
20
120.6161
0
VERTEX
8
CUT
10
24.2343
20
121.2948
0
VERTEX
8
CUT
10
24.0811
20
121.9743
0
VERTEX
8
CUT
10
23.9316
20
122.6547
0
VERTEX
8
CUT
10
23.7858
20
123.3359
0
VERTEX
8
CUT
10
23.6437
20
124.0178
0
VERTEX
8
CUT
10
23.5052
20
124.7005
0
VERTEX
8
CUT
10
23.3704
20
125.3839
0
VERTEX
8
CUT
10
23.2393
20
126.0681
0
VERTEX
8
CUT
10
23.1120
20
126.7530
0
VERTEX
8
CUT
10
22.9883
20
127.4385
0
VERTEX
8
CUT
10
22.8683
20
128.1247
0
VERTEX
8
CUT
10
22.7520
20
128.8115
0
VERTEX
8
CUT
10
22.6395
20
129.4989
0
VERTEX
8
CUT
10
36.4615
20
131.7239
0
VERTEX
8
CUT
10
36.5619
20
131.1110
0
VERTEX
8
CUT
10
36.6655
20
130.4987
0
VERTEX
8
CUT
10
36.7725
20
129.8870
0
VERTEX
8
CUT
10
36.8828
20
129.2759
0
VERTEX
8
CUT
10
36.9963
20
128.6654
0
VERTEX
8
CUT
10
37.1132
20
128.0555
0
VERTEX
8
CUT
10
37.2333
20
127.4462
0
VERTEX
8
CUT
10
37.3567
20
126.8376
0
VERTEX
8
CUT
10
37.4835
20
126.2297
0
VERTEX
8
CUT
10
37.6135
20
125.6224
0
VERTEX
8
CUT
10
37.7467
20
125.0159
0
VERTEX
8
CUT
10
37.8833
20
124.4101
0
VERTEX
8
CUT
10
38.0231
20
123.8050
0
VERTEX
8
CUT
10
38.1662
20
123.2008
0
VERTEX
8
CUT
10
38.3125
20
122.5972
0
VERTEX
8
CUT
10
38.4621
20
121.9945
0
VERTEX
8
CUT
10
38.6150
20
121.3926
0
VERTEX
8
CUT
10
38.7711
20
120.7916
0
VERTEX
8
CUT
10
38.9304
20
120.1914
0
VERTEX
8
CUT
10
39.0930
20
119.5920
0
VERTEX
8
CUT
10
39.2588
20
118.9936
0
VERTEX
8
CUT
10
39.4279
20
118.3960
0
VERTEX
8
CUT
10
39.6002
20
117.7994
0
VERTEX
8
CUT
10
39.7757
20
117.2037
0
SEQEND
0
POLYLINE
8
CUT
66
1
70
1
0
VERTEX
8
CUT
10
22.2549
20
132.0501
0
VERTEX
8
CUT
10
22.1599
20
132.7402
0
VERTEX
8
CUT
10
22.0685
20
133.4307
0
VERTEX
8
CUT
10
21.9809
20
134.1218
0
VERTEX
8
CUT
10
21.8971
20
134.8133
0
VERTEX
8
CUT
10
21.8169
20
135.5053
0
VERTEX
8
CUT
10
21.7405
20
136.1977
0
VERTEX
8
CUT
10
21.6678
20
136.8905
0
VERTEX
8
CUT
10
21.5989
20
137.5837
0
VERTEX
8
CUT
10
21.5338
20
138.2772
0
VERTEX
8
CUT
10
21.4723
20
138.9711
0
VERTEX
8
CUT
10
21.4146
20
139.6653
0
VERTEX
8
CUT
10
21.3607
20
140.3598
0
VERTEX
8
CUT
10
21.3105
20
141.0546
0
VERTEX
8
CUT
10
21.2641
20
141.7497
0
VERTEX
8
CUT
10
21.2214
20
142.4449
0
VERTEX
8
CUT
10
21.1825
20
143.1405
0
VERTEX
8
CUT
10
21.1473
20
143.8362
0
VERTEX
8
CUT
10
21.1159
20
144.5320
0
VERTEX
8
CUT
10
21.0883
20
145.2281
0
VERTEX
8
CUT
10
21.0644
20
145.9243
0
VERTEX
8
CUT
10
21.0443
20
146.6206
0
VERTEX
8
CUT
10
21.0279
20
147.3170
0
VERTEX
8
CUT
10
21.0153
20
148.0135
0
VERTEX
8
CUT
10
21.0064
20
148.7100
0
VERTEX
8
CUT
10
35.0057
20
148.8500
0
VERTEX
8
CUT
10
35.0136
20
148.2291
0
VERTEX
8
CUT
10
35.0249
20
147.6082
0
VERTEX
8
CUT
10
35.0395
20
146.9873
0
VERTEX
8
CUT
10
35.0574
20
146.3666
0
VERTEX
8
CUT
10
35.0787
20
145.7460
0
VERTEX
8
CUT
10
35.1034
20
145.1255
0
VERTEX
8
CUT
10
35.1314
20
144.5051
0
VERTEX
8
CUT
10
35.1627
20
143.8849
0
VERTEX
8
CUT
10
35.1974
20
143.2649
0
VERTEX
8
CUT
10
35.2354
20
142.6450
0
VERTEX
8
CUT
10
35.2768
20
142.0254
0
VERTEX
8
CUT
10
35.3216
20
141.4060
0
VERTEX
8
CUT
10
35.3696
20
140.7869
0
VERTEX
8
CUT
10
35.4211
20
140.1680
0
VERTEX
8
CUT
10
35.4758
20
139.5495
0
VERTEX
8
CUT
10
35.5339
20
138.9312
0
VERTEX
8
CUT
10
35.5954
20
138.3132
0
VERTEX
8
CUT
10
35.6601
20
137.6956
0
VERTEX
8
CUT
10
35.7283
20
137.0784
0
VERTEX
8
CUT
10
35.7997
20
136.4615
0
VERTEX
8
CUT
10
35.8745
20
135.8450
0
VERTEX
8
CUT
10
35.9526
20
135.2290
0
VERTEX
8
CUT
10
36.0340
20
134.6133
0
VERTEX
8
CUT
10
36.1187
20
133.9981
0
SEQEND
0
POLYLINE
8
CUT
66
1
70
1
0
VERTEX
8
CUT
10
21.0064
20
151.2900
0
VERTEX
8
CUT
10
21.0153
20
151.9865
0
VERTEX
8
CUT
10
21.0279
20
152.6830
0
VERTEX
8
CUT
10
21.0443
20
153.3794
0
VERTEX
8
CUT
10
21.0644
20
154.0757
0
VERTEX
8
CUT
10
21.0883
20
154.7719
0
VERTEX
8
CUT
10
21.1159
20
155.4680
0
VERTEX
8
CUT
10
21.1473
20
156.1638
0
VERTEX
8
CUT
10
21.1825
20
156.8595
0
VERTEX
8
CUT
10
21.2214
20
157.5551
0
VERTEX
8
CUT
10
21.2641
20
158.2503
0
VERTEX
8
CUT
10
21.3105
20
158.9454
0
VERTEX
8
CUT
10
21.3607
20
159.6402
0
VERTEX
8
CUT
10
21.4146
20
160.3347
0
VERTEX
8
CUT
10
21.4723
20
161.0289
0
VERTEX
8
CUT
10
21.5338
20
161.7228
0
VERTEX
8
CUT
10
21.5989
20
162.4163
0
VERTEX
8
CUT
10
21.6678
20
163.1095
0
VERTEX
8
CUT
10
21.7405
20
163.8023
0
VERTEX
8
CUT
10
21.8169
20
164.4947
0
VERTEX
8
CUT
10
21.8971
20
165.1867
0
VERTEX
8
CUT
10
21.9809
20
165.8782
0
VERTEX
8
CUT
10
22.0685
20
166.5693
0
VERTEX
8
CUT
10
22.1599
20
167.2598
0
VERTEX
8
CUT
10
22.2549
20
167.9499
0
VERTEX
8
CUT
10
36.1187
20
166.0019
0
VERTEX
8
CUT
10
36.0340
20
165.3867
0
VERTEX
8
CUT
10
35.9526
20
164.7710
0
VERTEX
8
CUT
10
35.8745
20
164.1550
0
VERTEX
8
CUT
10
35.7997
20
163.5385
0
VERTEX
8
CUT
10
35.7283
20
162.9216
0
VERTEX
8
CUT
10
35.6601
20
162.3044
0
VERTEX
8
CUT
10
35.5954
20
161.6868
0
VERTEX
8
CUT
10
35.5339
20
161.0688
0
VERTEX
8
CUT
10
35.4758
20
160.4505
0
VERTEX
8
CUT
10
35.4211
20
159.8320
0
VERTEX
8
CUT
10
35.3696
20
159.2131
0
VERTEX
8
CUT
10
35.3216
20
158.5940
0
VERTEX
8
CUT
10
35.2768
20
157.9746
0
VERTEX
8
CUT
10
35.2354
20
157.3550
0
VERTEX
8
CUT
10
35.1974
20
156.7351
0
VERTEX
8
CUT
10
35.1627
20
156.1151
0
VERTEX
8
CUT
10
35.1314
20
155.4949
0
VERTEX
8
CUT
10
35.1034
20
154.8745
0
VERTEX
8
CUT
10
35.0787
20
154.2540
0
VERTEX
8
CUT
10
35.0574
20
153.6334
0
VERTEX
8
CUT
10
35.0395
20
153.0127
0
VERTEX
8
CUT
10
35.0249
20
152.3918
0
VERTEX
8
CUT
10
35.0136
20
151.7709
0
VERTEX
8
CUT
10
35.0057
20
151.1500
0
SEQEND
0
POLYLINE
8
CUT
66
1
70
1
0
VERTEX
8
CUT
10
22.6395
20
170.5011
0
VERTEX
8
CUT
10
22.7520
20
171.1885
0
VERTEX
8
CUT
10
22.8683
20
171.8753
0
VERTEX
8
CUT
10
22.9883
20
172.5615
0
VERTEX
8
CUT
10
23.1120
20
173.2470
0
VERTEX
8
CUT
10
23.2393
20
173.9319
0
VERTEX
8
CUT
10
23.3704
20
174.6161
0
VERTEX
8
CUT
10
23.5052
20
175.2995
0
VERTEX
8
CUT
10
23.6437
20
175.9822
0
VERTEX
8
CUT
10
23.7858
20
176.6641
0
VERTEX
8
CUT
10
23.9316
20
177.3453
0
VERTEX
8
CUT
10
24.0811
20
178.0257
0
VERTEX
8
CUT
10
24.2343
20
178.7052
0
VERTEX
8
CUT
10
24.3911
20
179.3839
0
VERTEX
8
CUT
10
24.5516
20
180.0618
0
VERTEX
8
CUT
10
24.7158
20
180.7387
0
VERTEX
8
CUT
10
24.8836
20
181.4148
0
VERTEX
8
CUT
10
25.0551
20
182.0900
0
VERTEX
8
CUT
10
25.2302
20
182.7642
0
VERTEX
8
CUT
10
25.4089
20
183.4375
0
VERTEX
8
CUT
10
25.5913
20
184.1098
0
VERTEX
8
CUT
10
25.7773
20
184.7811
0
VERTEX
8
CUT
10
25.9669
20
185.4514
0
VERTEX
8
CUT
10
26.1602
20
186.1206
0
VERTEX
8
CUT
10
26.3570
20
186.7888
0
VERTEX
8
CUT
10
39.7757
20
182.7963
0
VERTEX
8
CUT
10
39.6002
20
182.2006
0
VERTEX
8
CUT
10
39.4279
20
181.6040
0
VERTEX
8
CUT
10
39.2588
20
181.0064
0
VERTEX
8
CUT
10
39.0930
20
180.4080
0
VERTEX
8
CUT
10
38.9304
20
179.8086
0
VERTEX
8
CUT
10
38.7711
20
179.2084
0
VERTEX
8
CUT
10
38.6150
20
178.6074
0
VERTEX
8
CUT
10
38.4621
20
178.0055
0
VERTEX
8
CUT
10
38.3125
20
177.4028
0
VERTEX
8
CUT
10
38.1662
20
176.7992
0
VERTEX
8
CUT
10
38.0231
20
176.1950
0
VERTEX
8
CUT
10
37.8833
20
175.5899
0
VERTEX
8
CUT
10
37.7467
20
174.9841
0
VERTEX
8
CUT
10
37.6135
20
174.3776
0
VERTEX
8
CUT
10
37.4835
20
173.7703
0
VERTEX
8
CUT
10
37.3567
20
173.1624
0
VERTEX
8
CUT
10
37.2333
20
172.5538
0
VERTEX
8
CUT
10
37.1132
20
171.9445
0
VERTEX
8
CUT
10
36.9963
20
171.3346
0
VERTEX
8
CUT
10
36.8828
20
170.7241
0
VERTEX
8
CUT
10
36.7725
20
170.1130
0
VERTEX
8
CUT
10
36.6655
20
169.5013
0
VERTEX
8
CUT
10
36.5619
20
168.8890
0
VERTEX
8
CUT
10
36.4615
20
168.2761
0
SEQEND
0
POLYLINE
8
CUT
66
1
70
1
0
VERTEX
8
CUT
10
27.1175
20
189.2542
0
VERTEX
8
CUT
10
27.3313
20
189.9172
0
VERTEX
8
CUT
10
27.5486
20
190.5790
0
VERTEX
8
CUT
10
27.7695
20
191.2396
0
VERTEX
8
CUT
10
27.9940
20
191.8991
0
VERTEX
8
CUT
10
28.2220
20
192.5573
0
VERTEX
8
CUT
10
28.4536
20
193.2143
0
VERTEX
8
CUT
10
28.6887
20
193.8700
0
VERTEX
8
CUT
10
28.9274
20
194.5244
0
VERTEX
8
CUT
10
29.1696
20
195.1776
0
VERTEX
8
CUT
10
29.4153
20
195.8294
0
VERTEX
8
CUT
10
29.6645
20
196.4799
0
VERTEX
8
CUT
10
29.9173
20
197.1290
0
VERTEX
8
CUT
10
30.1735
20
197.7767
0
VERTEX
8
CUT
10
30.4333
20
198.4231
0
VERTEX
8
CUT
10
30.6965
20
199.0681
0
VERTEX
8
CUT
10
30.9632
20
199.7116
0
VERTEX
8
CUT
10
31.2334
20
200.3536
0
VERTEX
8
CUT
10
31.5070
20
200.9942
0
VERTEX
8
CUT
10
31.7841
20
201.6334
0
VERTEX
8
CUT
10
32.0647
20
202.2710
0
VERTEX
8
CUT
10
32.3486
20
202.9071
0
VERTEX
8
CUT
10
32.6360
20
203.5416
0
VERTEX
8
CUT
10
32.9269
20
204.1746
0
VERTEX
8
CUT
10
33.2211
20
204.8060
0
VERTEX
8
CUT
10
45.8948
20
198.8580
0
VERTEX
8
CUT
10
45.6325
20
198.2952
0
VERTEX
8
CUT
10
45.3732
20
197.7309
0
VERTEX
8
CUT
10
45.1170
20
197.1652
0
VERTEX
8
CUT
10
44.8638
20
196.5981
0
VERTEX
8
CUT
10
44.6137
20
196.0297
0
VERTEX
8
CUT
10
44.3667
20
195.4600
0
VERTEX
8
CUT
10
44.1228
20
194.8889
0
VERTEX
8
CUT
10
43.8819
20
194.3165
0
VERTEX
8
CUT
10
43.6442
20
193.7428
0
VERTEX
8
CUT
10
43.4095
20
193.1679
0
VERTEX
8
CUT
10
43.1780
20
192.5917
0
VERTEX
8
CUT
10
42.9495
20
192.0142
0
VERTEX
8
CUT
10
42.7242
20
191.4355
0
VERTEX
8
CUT
10
42.5020
20
190.8556
0
VERTEX
8
CUT
10
42.2830
20
190.2746
0
VERTEX
8
CUT
10
42.0671
20
189.6923
0
VERTEX
8
CUT
10
41.8543
20
189.1089
0
VERTEX
8
CUT
10
41.6447
20
188.5243
0
VERTEX
8
CUT
10
41.4382
20
187.9387
0
VERTEX
8
CUT
10
41.2349
20
187.3519
0
VERTEX
8
CUT
10
41.0348
20
186.7640
0
VERTEX
8
CUT
10
40.8379
20
186.1751
0
VERTEX
8
CUT
10
40.6441
20
185.5851
0
VERTEX
8
CUT
10
40.4536
20
184.9940
0
SEQEND
0
POLYLINE
8
CUT
66
1
70
1
0
VERTEX
8
CUT
10
34.3405
20
207.1304
0
VERTEX
8
CUT
10
34.6507
20
207.7542
0
VERTEX
8
CUT
10
34.9643
20
208.3762
0
VERTEX
8
CUT
10
35.2812
20
208.9965
0
VERTEX
8
CUT
10
35.6014
20
209.6152
0
VERTEX
8
CUT
10
35.9250
20
210.2320
0
VERTEX
8
CUT
10
36.2519
20
210.8472
0
VERTEX
8
CUT
10
36.5822
20
211.4605
0
VERTEX
8
CUT
10
36.9157
20
212.0721
0
VERTEX
8
CUT
10
37.2525
20
212.6818
0
VERTEX
8
CUT
10
37.5927
20
213.2897
0
VERTEX
8
CUT
10
37.9361
20
213.8958
0
VERTEX
8
CUT
10
38.2827
20
214.5000
0
VERTEX
8
CUT
10
38.6326
20
215.1023
0
VERTEX
8
CUT
10
38.9858
20
215.7028
0
VERTEX
8
CUT
10
39.3422
20
216.3013
0
VERTEX
8
CUT
10
39.7019
20
216.8979
0
VERTEX
8
CUT
10
40.0647
20
217.4925
0
VERTEX
8
CUT
10
40.4308
20
218.0851
0
VERTEX
8
CUT
10
40.8000
20
218.6758
0
VERTEX
8
CUT
10
41.1725
20
219.2645
0
VERTEX
8
CUT
10
41.5481
20
219.8512
0
VERTEX
8
CUT
10
41.9269
20
220.4358
0
VERTEX
8
CUT
10
42.3088
20
221.0183
0
VERTEX
8
CUT
10
42.6939
20
221.5988
0
VERTEX
8
CUT
10
54.3395
20
213.8284
0
VERTEX
8
CUT
10
53.9962
20
213.3109
0
VERTEX
8
CUT
10
53.6557
20
212.7916
0
VERTEX
8
CUT
10
53.3181
20
212.2704
0
VERTEX
8
CUT
10
52.9832
20
211.7474
0
VERTEX
8
CUT
10
52.6512
20
211.2226
0
VERTEX
8
CUT
10
52.3220
20
210.6961
0
VERTEX
8
CUT
10
51.9957
20
210.1677
0
VERTEX
8
CUT
10
51.6722
20
209.6376
0
VERTEX
8
CUT
10
51.3516
20
209.1058
0
VERTEX
8
CUT
10
51.0339
20
208.5722
0
VERTEX
8
CUT
10
50.7190
20
208.0370
0
VERTEX
8
CUT
10
50.4071
20
207.5000
0
VERTEX
8
CUT
10
50.0980
20
206.9614
0
VERTEX
8
CUT
10
49.7919
20
206.4211
0
VERTEX
8
CUT
10
49.4887
20
205.8791
0
VERTEX
8
CUT
10
49.1884
20
205.3356
0
VERTEX
8
CUT
10
48.8911
20
204.7904
0
VERTEX
8
CUT
10
48.5967
20
204.2436
0
VERTEX
8
CUT
10
48.3052
20
203.6952
0
VERTEX
8
CUT
10
48.0168
20
203.1453
0
VERTEX
8
CUT
10
47.7313
20
202.5938
0
VERTEX
8
CUT
10
47.4488
20
202.0408
0
VERTEX
8
CUT
10
47.1692
20
201.4863
0
VERTEX
8
CUT
10
46.8927
20
200.9302
0
SEQEND
0
POLYLINE
8
CUT
66
1
70
1
0
VERTEX
8
CUT
10
44.1472
20
223.7305
0
VERTEX
8
CUT
10
44.5469
20
224.3010
0
VERTEX
8
CUT
10
44.9496
20
224.8694
0
VERTEX
8
CUT
10
45.3555
20
225.4355
0
VERTEX
8
CUT
10
45.7643
20
225.9995
0
VERTEX
8
CUT
10
46.1763
20
226.5613
0
VERTEX
8
CUT
10
46.5912
20
227.1208
0
VERTEX
8
CUT
10
47.0092
20
227.6781
0
VERTEX
8
CUT
10
47.4301
20
228.2331
0
VERTEX
8
CUT
10
47.8541
20
228.7858
0
VERTEX
8
CUT
10
48.2810
20
229.3363
0
VERTEX
8
CUT
10
48.7109
20
229.8844
0
VERTEX
8
CUT
10
49.1437
20
230.4302
0
VERTEX
8
CUT
10
49.5795
20
230.9736
0
VERTEX
8
CUT
10
50.0182
20
231.5147
0
VERTEX
8
CUT
10
50.4599
20
232.0534
0
VERTEX
8
CUT
10
50.9044
20
232.5897
0
VERTEX
8
CUT
10
51.3518
20
233.1237
0
VERTEX
8
CUT
10
51.8021
20
233.6551
0
VERTEX
8
CUT
10
52.2553
20
234.1842
0
VERTEX
8
CUT
10
52.7113
20
234.7108
0
VERTEX
8
CUT
10
53.1702
20
235.2349
0
VERTEX
8
CUT
10
53.6319
20
235.7565
0
VERTEX
8
CUT
10
54.0963
20
236.2757
0
VERTEX
8
CUT
10
54.5636
20
236.7923
0
VERTEX
8
CUT
10
64.9211
20
227.3730
0
VERTEX
8
CUT
10
64.5045
20
226.9124
0
VERTEX
8
CUT
10
64.0904
20
226.4496
0
VERTEX
8
CUT
10
63.6788
20
225.9846
0
VERTEX
8
CUT
10
63.2698
20
225.5174
0
VERTEX
8
CUT
10
62.8633
20
225.0479
0
VERTEX
8
CUT
10
62.4593
20
224.5763
0
VERTEX
8
CUT
10
62.0578
20
224.1025
0
VERTEX
8
CUT
10
61.6590
20
223.6265
0
VERTEX
8
CUT
10
61.2627
20
223.1484
0
VERTEX
8
CUT
10
60.8690
20
222.6682
0
VERTEX
8
CUT
10
60.4779
20
222.1858
0
VERTEX
8
CUT
10
60.0894
20
221.7013
0
VERTEX
8
CUT
10
59.7035
20
221.2148
0
VERTEX
8
CUT
10
59.3203
20
220.7261
0
VERTEX
8
CUT
10
58.9397
20
220.2354
0
VERTEX
8
CUT
10
58.5617
20
219.7427
0
VERTEX
8
CUT
10
58.1865
20
219.2479
0
VERTEX
8
CUT
10
57.8139
20
218.7511
0
VERTEX
8
CUT
10
57.4439
20
218.2523
0
VERTEX
8
CUT
10
57.0767
20
217.7515
0
VERTEX
8
CUT
10
56.7122
20
217.2487
0
VERTEX
8
CUT
10
56.3505
20
216.7440
0
VERTEX
8
CUT
10
55.9914
20
216.2373
0
VERTEX
8
CUT
10
55.6351
20
215.7287
0
SEQEND
0
POLYLINE
8
CUT
66
1
70
1
0
VERTEX
8
CUT
10
56.3184
20
238.6835
0
VERTEX
8
CUT
10
56.7987
20
239.1881
0
VERTEX
8
CUT
10
57.2817
20
239.6901
0
VERTEX
8
CUT
10
57.7673
20
240.1895
0
VERTEX
8
CUT
10
58.2557
20
240.6862
0
VERTEX
8
CUT
10
58.7467
20
241.1803
0
VERTEX
8
CUT
10
59.2404
20
241.6717
0
VERTEX
8
CUT
10
59.7368
20
242.1605
0
VERTEX
8
CUT
10
60.2358
20
242.6466
0
VERTEX
8
CUT
10
60.7374
20
243.1299
0
VERTEX
8
CUT
10
61.2416
20
243.6106
0
VERTEX
8
CUT
10
61.7484
20
244.0885
0
VERTEX
8
CUT
10
62.2577
20
244.5637
0
VERTEX
8
CUT
10
62.7696
20
245.0361
0
VERTEX
8
CUT
10
63.2841
20
245.5058
0
VERTEX
8
CUT
10
63.8011
20
245.9726
0
VERTEX
8
CUT
10
64.3206
20
246.4367
0
VERTEX
8
CUT
10
64.8426
20
246.8980
0
VERTEX
8
CUT
10
65.3671
20
247.3564
0
VERTEX
8
CUT
10
65.8940
20
247.8120
0
VERTEX
8
CUT
10
66.4234
20
248.2647
0
VERTEX
8
CUT
10
66.9553
20
248.7146
0
VERTEX
8
CUT
10
67.4896
20
249.1616
0
VERTEX
8
CUT
10
68.0262
20
249.6057
0
VERTEX
8
CUT
10
68.5653
20
250.0469
0
VERTEX
8
CUT
10
77.4032
20
239.1891
0
VERTEX
8
CUT
10
76.9226
20
238.7958
0
VERTEX
8
CUT
10
76.4442
20
238.3999
0
VERTEX
8
CUT
10
75.9679
20
238.0014
0
VERTEX
8
CUT
10
75.4938
20
237.6004
0
VERTEX
8
CUT
10
75.0218
20
237.1967
0
VERTEX
8
CUT
10
74.5521
20
236.7906
0
VERTEX
8
CUT
10
74.0845
20
236.3819
0
VERTEX
8
CUT
10
73.6191
20
235.9707
0
VERTEX
8
CUT
10
73.1560
20
235.5570
0
VERTEX
8
CUT
10
72.6951
20
235.1408
0
VERTEX
8
CUT
10
72.2365
20
234.7221
0
VERTEX
8
CUT
10
71.7801
20
234.3010
0
VERTEX
8
CUT
10
71.3261
20
233.8774
0
VERTEX
8
CUT
10
70.8743
20
233.4513
0
VERTEX
8
CUT
10
70.4248
20
233.0228
0
VERTEX
8
CUT
10
69.9776
20
232.5919
0
VERTEX
8
CUT
10
69.5328
20
232.1586
0
VERTEX
8
CUT
10
69.0903
20
231.7228
0
VERTEX
8
CUT
10
68.6502
20
231.2847
0
VERTEX
8
CUT
10
68.2125
20
230.8443
0
VERTEX
8
CUT
10
67.7771
20
230.4014
0
VERTEX
8
CUT
10
67.3441
20
229.9563
0
VERTEX
8
CUT
10
66.9136
20
229.5088
0
VERTEX
8
CUT
10
66.4854
20
229.0589
0
SEQEND
0
POLYLINE
8
CUT
66
1
70
1
0
VERTEX
8
CUT
10
70.5824
20
251.6555
0
VERTEX
8
CUT
10
71.1325
20
252.0829
0
VERTEX
8
CUT
10
71.6849
20
252.5073
0
VERTEX
8
CUT
10
72.2395
20
252.9287
0
VERTEX
8
CUT
10
72.7965
20
253.3471
0
VERTEX
8
CUT
10
73.3557
20
253.7625
0
VERTEX
8
CUT
10
73.9171
20
254.1748
0
VERTEX
8
CUT
10
74.4808
20
254.5842
0
VERTEX
8
CUT
10
75.0466
20
254.9904
0
VERTEX
8
CUT
10
75.6147
20
255.3936
0
VERTEX
8
CUT
10
76.1849
20
255.7938
0
VERTEX
8
CUT
10
76.7572
20
256.1908
0
VERTEX
8
CUT
10
77.3317
20
256.5848
0
VERTEX
8
CUT
10
77.9083
20
256.9757
0
VERTEX
8
CUT
10
78.4870
20
257.3634
0
VERTEX
8
CUT
10
79.0678
20
257.7480
0
VERTEX
8
CUT
10
79.6507
20
258.1294
0
VERTEX
8
CUT
10
80.2356
20
258.5078
0
VERTEX
8
CUT
10
80.8226
20
258.8829
0
VERTEX
8
CUT
10
81.4116
20
259.2549
0
VERTEX
8
CUT
10
82.0025
20
259.6236
0
VERTEX
8
CUT
10
82.5955
20
259.9892
0
VERTEX
8
CUT
10
83.1904
20
260.3516
0
VERTEX
8
CUT
10
83.7873
20
260.7108
0
VERTEX
8
CUT
10
84.3861
20
261.0667
0
VERTEX
8
CUT
10
91.5070
20
249.0130
0
VERTEX
8
CUT
10
90.9731
20
248.6956
0
VERTEX
8
CUT
10
90.4411
20
248.3755
0
VERTEX
8
CUT
10
89.9107
20
248.0524
0
VERTEX
8
CUT
10
89.3821
20
247.7265
0
VERTEX
8
CUT
10
88.8553
20
247.3977
0
VERTEX
8
CUT
10
88.3302
20
247.0661
0
VERTEX
8
CUT
10
87.8070
20
246.7317
0
VERTEX
8
CUT
10
87.2855
20
246.3945
0
VERTEX
8
CUT
10
86.7659
20
246.0544
0
VERTEX
8
CUT
10
86.2481
20
245.7115
0
VERTEX
8
CUT
10
85.7322
20
245.3659
0
VERTEX
8
CUT
10
85.2182
20
245.0175
0
VERTEX
8
CUT
10
84.7060
20
244.6663
0
VERTEX
8
CUT
10
84.1958
20
244.3123
0
VERTEX
8
CUT
10
83.6875
20
243.9556
0
VERTEX
8
CUT
10
83.1811
20
243.5961
0
VERTEX
8
CUT
10
82.6767
20
243.2339
0
VERTEX
8
CUT
10
82.1742
20
242.8690
0
VERTEX
8
CUT
10
81.6737
20
242.5014
0
VERTEX
8
CUT
10
81.1752
20
242.1311
0
VERTEX
8
CUT
10
80.6787
20
241.7581
0
VERTEX
8
CUT
10
80.1842
20
241.3824
0
VERTEX
8
CUT
10
79.6917
20
241.0041
0
VERTEX
8
CUT
10
79.2013
20
240.6231
0
SEQEND
0
POLYLINE
8
CUT
66
1
70
1
0
VERTEX
8
CUT
10
86.6204
20
262.3567
0
VERTEX
8
CUT
10
87.2280
20
262.6973
0
VERTEX
8
CUT
10
87.8375
20
263.0346
0
VERTEX
8
CUT
10
88.4488
20
263.3686
0
VERTEX
8
CUT
10
89.0619
20
263.6994
0
VERTEX
8
CUT
10
89.6767
20
264.0268
0
VERTEX
8
CUT
10
90.2934
20
264.3508
0
VERTEX
8
CUT
10
90.9117
20
264.6716
0
VERTEX
8
CUT
10
91.5318
20
264.9890
0
VERTEX
8
CUT
10
92.1536
20
265.3030
0
VERTEX
8
CUT
10
92.7771
20
265.6137
0
VERTEX
8
CUT
10
93.4022
20
265.9210
0
VERTEX
8
CUT
10
94.0290
20
266.2250
0
VERTEX
8
CUT
10
94.6574
20
266.5255
0
VERTEX
8
CUT
10
95.2875
20
266.8227
0
VERTEX
8
CUT
10
95.9191
20
267.1164
0
VERTEX
8
CUT
10
96.5523
20
267.4067
0
VERTEX
8
CUT
10
97.1871
20
267.6937
0
VERTEX
8
CUT
10
97.8234
20
267.9771
0
VERTEX
8
CUT
10
98.4612
20
268.2572
0
VERTEX
8
CUT
10
99.1006
20
268.5337
0
VERTEX
8
CUT
10
99.7414
20
268.8069
0
VERTEX
8
CUT
10
100.3837
20
269.0765
0
VERTEX
8
CUT
10
101.0274
20
269.3427
0
VERTEX
8
CUT
10
101.6726
20
269.6054
0
VERTEX
8
CUT
10
106.9174
20
256.6250
0
VERTEX
8
CUT
10
106.3423
20
256.3908
0
VERTEX
8
CUT
10
105.7684
20
256.1535
0
VERTEX
8
CUT
10
105.1958
20
255.9131
0
VERTEX
8
CUT
10
104.6245
20
255.6696
0
VERTEX
8
CUT
10
104.0546
20
255.4230
0
VERTEX
8
CUT
10
103.4860
20
255.1734
0
VERTEX
8
CUT
10
102.9187
20
254.9207
0
VERTEX
8
CUT
10
102.3528
20
254.6649
0
VERTEX
8
CUT
10
101.7883
20
254.4061
0
VERTEX
8
CUT
10
101.2253
20
254.1442
0
VERTEX
8
CUT
10
100.6636
20
253.8793
0
VERTEX
8
CUT
10
100.1034
20
253.6114
0
VERTEX
8
CUT
10
99.5446
20
253.3405
0
VERTEX
8
CUT
10
98.9873
20
253.0665
0
VERTEX
8
CUT
10
98.4315
20
252.7895
0
VERTEX
8
CUT
10
97.8772
20
252.5096
0
VERTEX
8
CUT
10
97.3244
20
252.2266
0
VERTEX
8
CUT
10
96.7731
20
251.9407
0
VERTEX
8
CUT
10
96.2234
20
251.6518
0
VERTEX
8
CUT
10
95.6753
20
251.3599
0
VERTEX
8
CUT
10
95.1288
20
251.0651
0
VERTEX
8
CUT
10
94.5838
20
250.7673
0
VERTEX
8
CUT
10
94.0405
20
250.4666
0
VERTEX
8
CUT
10
93.4988
20
250.1629
0
SEQEND
0
POLYLINE
8
CUT
66
1
70
1
0
VERTEX
8
CUT
10
104.0742
20
270.5480
0
VERTEX
8
CUT
10
104.7258
20
270.7942
0
VERTEX
8
CUT
10
105.3787
20
271.0369
0
VERTEX
8
CUT
10
106.0330
20
271.2761
0
VERTEX
8
CUT
10
106.6885
20
271.5118
0
VERTEX
8
CUT
10
107.3453
20
271.7439
0
VERTEX
8
CUT
10
108.0033
20
271.9725
0
VERTEX
8
CUT
10
108.6626
20
272.1975
0
VERTEX
8
CUT
10
109.3231
20
272.4189
0
VERTEX
8
CUT
10
109.9847
20
272.6368
0
VERTEX
8
CUT
10
110.6475
20
272.8511
0
VERTEX
8
CUT
10
111.3115
20
273.0618
0
VERTEX
8
CUT
10
111.9766
20
273.2689
0
VERTEX
8
CUT
10
112.6428
20
273.4724
0
VERTEX
8
CUT
10
113.3101
20
273.6723
0
VERTEX
8
CUT
10
113.9784
20
273.8687
0
VERTEX
8
CUT
10
114.6478
20
274.0614
0
VERTEX
8
CUT
10
115.3183
20
274.2505
0
VERTEX
8
CUT
10
115.9897
20
274.4359
0
VERTEX
8
CUT
10
116.6622
20
274.6178
0
VERTEX
8
CUT
10
117.3356
20
274.7960
0
VERTEX
8
CUT
10
118.0100
20
274.9705
0
VERTEX
8
CUT
10
118.6853
20
275.1415
0
VERTEX
8
CUT
10
119.3615
20
275.3087
0
VERTEX
8
CUT
10
120.0386
20
275.4724
0
VERTEX
8
CUT
10
123.2902
20
261.8552
0
VERTEX
8
CUT
10
122.6866
20
261.7093
0
VERTEX
8
CUT
10
122.0838
20
261.5602
0
VERTEX
8
CUT
10
121.4818
20
261.4079
0
VERTEX
8
CUT
10
120.8806
20
261.2522
0
VERTEX
8
CUT
10
120.2802
20
261.0934
0
VERTEX
8
CUT
10
119.6808
20
260.9313
0
VERTEX
8
CUT
10
119.0822
20
260.7659
0
VERTEX
8
CUT
10
118.4845
20
260.5974
0
VERTEX
8
CUT
10
117.8878
20
260.4256
0
VERTEX
8
CUT
10
117.2919
20
260.2505
0
VERTEX
8
CUT
10
116.6971
20
260.0723
0
VERTEX
8
CUT
10
116.1032
20
259.8909
0
VERTEX
8
CUT
10
115.5102
20
259.7062
0
VERTEX
8
CUT
10
114.9183
20
259.5184
0
VERTEX
8
CUT
10
114.3275
20
259.3273
0
VERTEX
8
CUT
10
113.7376
20
259.1331
0
VERTEX
8
CUT
10
113.1488
20
258.9357
0
VERTEX
8
CUT
10
112.5611
20
258.7351
0
VERTEX
8
CUT
10
111.9745
20
258.5314
0
VERTEX
8
CUT
10
111.3890
20
258.3245
0
VERTEX
8
CUT
10
110.8046
20
258.1144
0
VERTEX
8
CUT
10
110.2214
20
257.9012
0
VERTEX
8
CUT
10
109.6393
20
257.6848
0
VERTEX
8
CUT
10
109.0584
20
257.4653
0
SEQEND
0
POLYLINE
8
CUT
66
1
70
1
0
VERTEX
8
CUT
10
122.5539
20
276.0465
0
VERTEX
8
CUT
10
123.2349
20
276.1928
0
VERTEX
8
CUT
10
123.9167
20
276.3355
0
VERTEX
8
CUT
10
124.5993
20
276.4745
0
VERTEX
8
CUT
10
125.2827
20
276.6098
0
VERTEX
8
CUT
10
125.9667
20
276.7415
0
VERTEX
8
CUT
10
126.6515
20
276.8694
0
VERTEX
8
CUT
10
127.3369
20
276.9936
0
VERTEX
8
CUT
10
128.0230
20
277.1142
0
VERTEX
8
CUT
10
128.7097
20
277.2310
0
VERTEX
8
CUT
10
129.3971
20
277.3441
0
VERTEX
8
CUT
10
130.0850
20
277.4535
0
VERTEX
8
CUT
10
130.7735
20
277.5592
0
VERTEX
8
CUT
10
131.4626
20
277.6611
0
VERTEX
8
CUT
10
132.1523
20
277.7594
0
VERTEX
8
CUT
10
132.8424
20
277.8539
0
VERTEX
8
CUT
10
133.5331
20
277.9447
0
VERTEX
8
CUT
10
134.2242
20
278.0317
0
VERTEX
8
CUT
10
134.9158
20
278.1151
0
VERTEX
8
CUT
10
135.6079
20
278.1946
0
VERTEX
8
CUT
10
136.3003
20
278.2705
0
VERTEX
8
CUT
10
136.9932
20
278.3426
0
VERTEX
8
CUT
10
137.6864
20
278.4110
0
VERTEX
8
CUT
10
138.3800
20
278.4756
0
VERTEX
8
CUT
10
139.0739
20
278.5365
0
VERTEX
8
CUT
10
140.2597
20
264.5868
0
VERTEX
8
CUT
10
139.6411
20
264.5325
0
VERTEX
8
CUT
10
139.0228
20
264.4749
0
VERTEX
8
CUT
10
138.4048
20
264.4139
0
VERTEX
8
CUT
10
137.7871
20
264.3497
0
VERTEX
8
CUT
10
137.1698
20
264.2820
0
VERTEX
8
CUT
10
136.5529
20
264.2111
0
VERTEX
8
CUT
10
135.9363
20
264.1368
0
VERTEX
8
CUT
10
135.3202
20
264.0592
0
VERTEX
8
CUT
10
134.7045
20
263.9783
0
VERTEX
8
CUT
10
134.0892
20
263.8940
0
VERTEX
8
CUT
10
133.4744
20
263.8064
0
VERTEX
8
CUT
10
132.8601
20
263.7155
0
VERTEX
8
CUT
10
132.2463
20
263.6213
0
VERTEX
8
CUT
10
131.6330
20
263.5238
0
VERTEX
8
CUT
10
131.0203
20
263.4230
0
VERTEX
8
CUT
10
130.4081
20
263.3188
0
VERTEX
8
CUT
10
129.7964
20
263.2114
0
VERTEX
8
CUT
10
129.1854
20
263.1006
0
VERTEX
8
CUT
10
128.5750
20
262.9866
0
VERTEX
8
CUT
10
127.9652
20
262.8692
0
VERTEX
8
CUT
10
127.3560
20
262.7486
0
VERTEX
8
CUT
10
126.7475
20
262.6247
0
VERTEX
8
CUT
10
126.1397
20
262.4975
0
VERTEX
8
CUT
10
125.5325
20
262.3670
0
SEQEND
0
POLYLINE
8
CUT
66
1
70
1
0
VERTEX
8
CUT
10
141.6467
20
278.7293
0
VERTEX
8
CUT
10
142.3419
20
278.7725
0
VERTEX
8
CUT
10
143.0374
20
278.8120
0
VERTEX
8
CUT
10
143.7331
20
278.8477
0
VERTEX
8
CUT
10
144.4289
20
278.8796
0
VERTEX
8
CUT
10
145.1250
20
278.9079
0
VERTEX
8
CUT
10
145.8211
20
278.9323
0
VERTEX
8
CUT
10
146.5174
20
278.9530
0
VERTEX
8
CUT
10
147.2138
20
278.9699
0
VERTEX
8
CUT
10
147.9103
20
278.9831
0
VERTEX
8
CUT
10
148.6068
20
278.9925
0
VERTEX
8
CUT
10
149.3034
20
278.9981
0
VERTEX
8
CUT
10
150.0000
20
279.0000
0
VERTEX
8
CUT
10
150.6966
20
278.9981
0
VERTEX
8
CUT
10
151.3932
20
278.9925
0
VERTEX
8
CUT
10
152.0897
20
278.9831
0
VERTEX
8
CUT
10
152.7862
20
278.9699
0
VERTEX
8
CUT
10
153.4826
20
278.9530
0
VERTEX
8
CUT
10
154.1789
20
278.9323
0
VERTEX
8
CUT
10
154.8750
20
278.9079
0
VERTEX
8
CUT
10
155.5711
20
278.8796
0
VERTEX
8
CUT
10
156.2669
20
278.8477
0
VERTEX
8
CUT
10
156.9626
20
278.8120
0
VERTEX
8
CUT
10
157.6581
20
278.7725
0
VERTEX
8
CUT
10
158.3533
20
278.7293
0
VERTEX
8
CUT
10
157.4468
20
264.7586
0
VERTEX
8
CUT
10
156.8270
20
264.7972
0
VERTEX
8
CUT
10
156.2070
20
264.8324
0
VERTEX
8
CUT
10
155.5868
20
264.8642
0
VERTEX
8
CUT
10
154.9664
20
264.8927
0
VERTEX
8
CUT
10
154.3460
20
264.9179
0
VERTEX
8
CUT
10
153.7253
20
264.9396
0
VERTEX
8
CUT
10
153.1046
20
264.9581
0
VERTEX
8
CUT
10
152.4838
20
264.9732
0
VERTEX
8
CUT
10
151.8629
20
264.9849
0
VERTEX
8
CUT
10
151.2420
20
264.9933
0
VERTEX
8
CUT
10
150.6210
20
264.9983
0
VERTEX
8
CUT
10
150.0000
20
265.0000
0
VERTEX
8
CUT
10
149.3790
20
264.9983
0
VERTEX
8
CUT
10
148.7580
20
264.9933
0
VERTEX
8
CUT
10
148.1371
20
264.9849
0
VERTEX
8
CUT
10
147.5162
20
264.9732
0
VERTEX
8
CUT
10
146.8954
20
264.9581
0
VERTEX
8
CUT
10
146.2747
20
264.9396
0
VERTEX
8
CUT
10
145.6540
20
264.9179
0
VERTEX
8
CUT
10
145.0336
20
264.8927
0
VERTEX
8
CUT
10
144.4132
20
264.8642
0
VERTEX
8
CUT
10
143.7930
20
264.8324
0
VERTEX
8
CUT
10
143.1730
20
264.7972
0
VERTEX
8
CUT
10
142.5532
20
264.7586
0
SEQEND
0
POLYLINE
8
CUT
66
1
70
1
0
VERTEX
8
CUT
10
160.9261
20
278.5365
0
VERTEX
8
CUT
10
161.6200
20
278.4756
0
VERTEX
8
CUT
10
162.3136
20
278.4110
0
VERTEX
8
CUT
10
163.0068
20
278.3426
0
VERTEX
8
CUT
10
163.6997
20
278.2705
0
VERTEX
8
CUT
10
164.3921
20
278.1946
0
VERTEX
8
CUT
10
165.0842
20
278.1151
0
VERTEX
8
CUT
10
165.7758
20
278.0317
0
VERTEX
8
CUT
10
166.4669
20
277.9447
0
VERTEX
8
CUT
10
167.1576
20
277.8539
0
VERTEX
8
CUT
10
167.8477
20
277.7594
0
VERTEX
8
CUT
10
168.5374
20
277.6611
0
VERTEX
8
CUT
10
169.2265
20
277.5592
0
VERTEX
8
CUT
10
169.9150
20
277.4535
0
VERTEX
8
CUT
10
170.6029
20
277.3441
0
VERTEX
8
CUT
10
171.2903
20
277.2310
0
VERTEX
8
CUT
10
171.9770
20
277.1142
0
VERTEX
8
CUT
10
172.6631
20
276.9936
0
VERTEX
8
CUT
10
173.3485
20
276.8694
0
VERTEX
8
CUT
10
174.0333
20
276.7415
0
VERTEX
8
CUT
10
174.7173
20
276.6098
0
VERTEX
8
CUT
10
175.4007
20
276.4745
0
VERTEX
8
CUT
10
176.0833
20
276.3355
0
VERTEX
8
CUT
10
176.7651
20
276.1928
0
VERTEX
8
CUT
10
177.4461
20
276.0465
0
VERTEX
8
CUT
10
174.4675
20
262.3670
0
VERTEX
8
CUT
10
173.8603
20
262.4975
0
VERTEX
8
CUT
10
173.2525
20
262.6247
0
VERTEX
8
CUT
10
172.6440
20
262.7486
0
VERTEX
8
CUT
10
172.0348
20
262.8692
0
VERTEX
8
CUT
10
171.4250
20
262.9866
0
VERTEX
8
CUT
10
170.8146
20
263.1006
0
VERTEX
8
CUT
10
170.2036
20
263.2114
0
VERTEX
8
CUT
10
169.5919
20
263.3188
0
VERTEX
8
CUT
10
168.9797
20
263.4230
0
VERTEX
8
CUT
10
168.3670
20
263.5238
0
VERTEX
8
CUT
10
167.7537
20
263.6213
0
VERTEX
8
CUT
10
167.1399
20
263.7155
0
VERTEX
8
CUT
10
166.5256
20
263.8064
0
VERTEX
8
CUT
10
165.9108
20
263.8940
0
VERTEX
8
CUT
10
165.2955
20
263.9783
0
VERTEX
8
CUT
10
164.6798
20
264.0592
0
VERTEX
8
CUT
10
164.0637
20
264.1368
0
VERTEX
8
CUT
10
163.4471
20
264.2111
0
VERTEX
8
CUT
10
162.8302
20
264.2820
0
VERTEX
8
CUT
10
162.2129
20
264.3497
0
VERTEX
8
CUT
10
161.5952
20
264.4139
0
VERTEX
8
CUT
10
160.9772
20
264.4749
0
VERTEX
8
CUT
10
160.3589
20
264.5325
0
VERTEX
8
CUT
10
159.7403
20
264.5868
0
SEQEND
0
POLYLINE
8
CUT
66
1
70
1
0
VERTEX
8
CUT
10
179.9614
20
275.4724
0
VERTEX
8
CUT
10
180.6385
20
275.3087
0
VERTEX
8
CUT
10
181.3147
20
275.1415
0
VERTEX
8
CUT
10
181.9900
20
274.9705
0
VERTEX
8
CUT
10
182.6644
20
274.7960
0
VERTEX
8
CUT
10
183.3378
20
274.6178
0
VERTEX
8
CUT
10
184.0103
20
274.4359
0
VERTEX
8
CUT
10
184.6817
20
274.2505
0
VERTEX
8
CUT
10
185.3522
20
274.0614
0
VERTEX
8
CUT
10
186.0216
20
273.8687
0
VERTEX
8
CUT
10
186.6899
20
273.6723
0
VERTEX
8
CUT
10
187.3572
20
273.4724
0
VERTEX
8
CUT
10
188.0234
20
273.2689
0
VERTEX
8
CUT
10
188.6885
20
273.0618
0
VERTEX
8
CUT
10
189.3525
20
272.8511
0
VERTEX
8
CUT
10
190.0153
20
272.6368
0
VERTEX
8
CUT
10
190.6769
20
272.4189
0
VERTEX
8
CUT
10
191.3374
20
272.1975
0
VERTEX
8
CUT
10
191.9967
20
271.9725
0
VERTEX
8
CUT
10
192.6547
20
271.7439
0
VERTEX
8
CUT
10
193.3115
20
271.5118
0
VERTEX
8
CUT
10
193.9670
20
271.2761
0
VERTEX
8
CUT
10
194.6213
20
271.0369
0
VERTEX
8
CUT
10
195.2742
20
270.7942
0
VERTEX
8
CUT
10
195.9258
20
270.5480
0
VERTEX
8
CUT
10
190.9416
20
257.4653
0
VERTEX
8
CUT
10
190.3607
20
257.6848
0
VERTEX
8
CUT
10
189.7786
20
257.9012
0
VERTEX
8
CUT
10
189.1954
20
258.1144
0
VERTEX
8
CUT
10
188.6110
20
258.3245
0
VERTEX
8
CUT
10
188.0255
20
258.5314
0
VERTEX
8
CUT
10
187.4389
20
258.7351
0
VERTEX
8
CUT
10
186.8512
20
258.9357
0
VERTEX
8
CUT
10
186.2624
20
259.1331
0
VERTEX
8
CUT
10
185.6725
20
259.3273
0
VERTEX
8
CUT
10
185.0817
20
259.5184
0
VERTEX
8
CUT
10
184.4898
20
259.7062
0
VERTEX
8
CUT
10
183.8968
20
259.8909
0
VERTEX
8
CUT
10
183.3029
20
260.0723
0
VERTEX
8
CUT
10
182.7081
20
260.2505
0
VERTEX
8
CUT
10
182.1122
20
260.4256
0
VERTEX
8
CUT
10
181.5155
20
260.5974
0
VERTEX
8
CUT
10
180.9178
20
260.7659
0
VERTEX
8
CUT
10
180.3192
20
260.9313
0
VERTEX
8
CUT
10
179.7198
20
261.0934
0
VERTEX
8
CUT
10
179.1194
20
261.2522
0
VERTEX
8
CUT
10
178.5182
20
261.4079
0
VERTEX
8
CUT
10
177.9162
20
261.5602
0
VERTEX
8
CUT
10
177.3134
20
261.7093
0
VERTEX
8
CUT
10
176.7098
20
261.8552
0
SEQEND
0
POLYLINE
8
CUT
66
1
70
1
0
VERTEX
8
CUT
10
198.3274
20
269.6054
0
VERTEX
8
CUT
10
198.9726
20
269.3427
0
VERTEX
8
CUT
10
199.6163
20
269.0765
0
VERTEX
8
CUT
10
200.2586
20
268.8069
0
VERTEX
8
CUT
10
200.8994
20
268.5337
0
VERTEX
8
CUT
10
201.5388
20
268.2572
0
VERTEX
8
CUT
10
202.1766
20
267.9771
0
VERTEX
8
CUT
10
202.8129
20
267.6937
0
VERTEX
8
CUT
10
203.4477
20
267.4067
0
VERTEX
8
CUT
10
204.0809
20
267.1164
0
VERTEX
8
CUT
10
204.7125
20
266.8227
0
VERTEX
8
CUT
10
205.3426
20
266.5255
0
VERTEX
8
CUT
10
205.9710
20
266.2250
0
VERTEX
8
CUT
10
206.5978
20
265.9210
0
VERTEX
8
CUT
10
207.2229
20
265.6137
0
VERTEX
8
CUT
10
207.8464
20
265.3030
0
VERTEX
8
CUT
10
208.4682
20
264.9890
0
VERTEX
8
CUT
10
209.0883
20
264.6716
0
VERTEX
8
CUT
10
209.7066
20
264.3508
0
VERTEX
8
CUT
10
210.3233
20
264.0268
0
VERTEX
8
CUT
10
210.9381
20
263.6994
0
VERTEX
8
CUT
10
211.5512
20
263.3686
0
VERTEX
8
CUT
10
212.1625
20
263.0346
0
VERTEX
8
CUT
10
212.7720
20
262.6973
0
VERTEX
8
CUT
10
213.3796
20
262.3567
0
VERTEX
8
CUT
10
206.5012
20
250.1629
0
VERTEX
8
CUT
10
205.9595
20
250.4666
0
VERTEX
8
CUT
10
205.4162
20
250.7673
0
VERTEX
8
CUT
10
204.8712
20
251.0651
0
VERTEX
8
CUT
10
204.3247
20
251.3599
0
VERTEX
8
CUT
10
203.7766
20
251.6518
0
VERTEX
8
CUT
10
203.2269
20
251.9407
0
VERTEX
8
CUT
10
202.6756
20
252.2266
0
VERTEX
8
CUT
10
202.1228
20
252.5096
0
VERTEX
8
CUT
10
201.5685
20
252.7895
0
VERTEX
8
CUT
10
201.0127
20
253.0665
0
VERTEX
8
CUT
10
200.4554
20
253.3405
0
VERTEX
8
CUT
10
199.8966
20
253.6114
0
VERTEX
8
CUT
10
199.3364
20
253.8793
0
VERTEX
8
CUT
10
198.7747
20
254.1442
0
VERTEX
8
CUT
10
198.2117
20
254.4061
0
VERTEX
8
CUT
10
197.6472
20
254.6649
0
VERTEX
8
CUT
10
197.0813
20
254.9207
0
VERTEX
8
CUT
10
196.5140
20
255.1734
0
VERTEX
8
CUT
10
195.9454
20
255.4230
0
VERTEX
8
CUT
10
195.3755
20
255.6696
0
VERTEX
8
CUT
10
194.8042
20
255.9131
0
VERTEX
8
CUT
10
194.2316
20
256.1535
0
VERTEX
8
CUT
10
193.6577
20
256.3908
0
VERTEX
8
CUT
10
193.0826
20
256.6250
0
SEQEND
0
POLYLINE
8
CUT
66
1
70
1
0
VERTEX
8
CUT
10
215.6139
20
261.0667
0
VERTEX
8
CUT
10
216.2127
20
260.7108
0
VERTEX
8
CUT
10
216.8096
20
260.3516
0
VERTEX
8
CUT
10
217.4045
20
259.9892
0
VERTEX
8
CUT
10
217.9975
20
259.6236
0
VERTEX
8
CUT
10
218.5884
20
259.2549
0
VERTEX
8
CUT
10
219.1774
20
258.8829
0
VERTEX
8
CUT
10
219.7644
20
258.5078
0
VERTEX
8
CUT
10
220.3493
20
258.1294
0
VERTEX
8
CUT
10
220.9322
20
257.7480
0
VERTEX
8
CUT
10
221.5130
20
257.3634
0
VERTEX
8
CUT
10
222.0917
20
256.9757
0
VERTEX
8
CUT
10
222.6683
20
256.5848
0
VERTEX
8
CUT
10
223.2428
20
256.1908
0
VERTEX
8
CUT
10
223.8151
20
255.7938
0
VERTEX
8
CUT
10
224.3853
20
255.3936
0
VERTEX
8
CUT
10
224.9534
20
254.9904
0
VERTEX
8
CUT
10
225.5192
20
254.5842
0
VERTEX
8
CUT
10
226.0829
20
254.1748
0
VERTEX
8
CUT
10
226.6443
20
253.7625
0
VERTEX
8
CUT
10
227.2035
20
253.3471
0
VERTEX
8
CUT
10
227.7605
20
252.9287
0
VERTEX
8
CUT
10
228.3151
20
252.5073
0
VERTEX
8
CUT
10
228.8675
20
252.0829
0
VERTEX
8
CUT
10
229.4176
20
251.6555
0
VERTEX
8
CUT
10
220.7987
20
240.6231
0
VERTEX
8
CUT
10
220.3083
20
241.0041
0
VERTEX
8
CUT
10
219.8158
20
241.3824
0
VERTEX
8
CUT
10
219.3213
20
241.7581
0
VERTEX
8
CUT
10
218.8248
20
242.1311
0
VERTEX
8
CUT
10
218.3263
20
242.5014
0
VERTEX
8
CUT
10
217.8258
20
242.8690
0
VERTEX
8
CUT
10
217.3233
20
243.2339
0
VERTEX
8
CUT
10
216.8189
20
243.5961
0
VERTEX
8
CUT
10
216.3125
20
243.9556
0
VERTEX
8
CUT
10
215.8042
20
244.3123
0
VERTEX
8
CUT
10
215.2940
20
244.6663
0
VERTEX
8
CUT
10
214.7818
20
245.0175
0
VERTEX
8
CUT
10
214.2678
20
245.3659
0
VERTEX
8
CUT
10
213.7519
20
245.7115
0
VERTEX
8
CUT
10
213.2341
20
246.0544
0
VERTEX
8
CUT
10
212.7145
20
246.3945
0
VERTEX
8
CUT
10
212.1930
20
246.7317
0
VERTEX
8
CUT
10
211.6698
20
247.0661
0
VERTEX
8
CUT
10
211.1447
20
247.3977
0
VERTEX
8
CUT
10
210.6179
20
247.7265
0
VERTEX
8
CUT
10
210.0893
20
248.0524
0
VERTEX
8
CUT
10
209.5589
20
248.3755
0
VERTEX
8
CUT
10
209.0269
20
248.6956
0
VERTEX
8
CUT
10
208.4930
20
249.0130
0
SEQEND
0
POLYLINE
8
CUT
66
1
70
1
0
VERTEX
8
CUT
10
231.4347
20
250.0469
0
VERTEX
8
CUT
10
231.9738
20
249.6057
0
VERTEX
8
CUT
10
232.5104
20
249.1616
0
VERTEX
8
CUT
10
233.0447
20
248.7146
0
VERTEX
8
CUT
10
233.5766
20
248.2647
0
VERTEX
8
CUT
10
234.1060
20
247.8120
0
VERTEX
8
CUT
10
234.6329
20
247.3564
0
VERTEX
8
CUT
10
235.1574
20
246.8980
0
VERTEX
8
CUT
10
235.6794
20
246.4367
0
VERTEX
8
CUT
10
236.1989
20
245.9726
0
VERTEX
8
CUT
10
236.7159
20
245.5058
0
VERTEX
8
CUT
10
237.2304
20
245.0361
0
VERTEX
8
CUT
10
237.7423
20
244.5637
0
VERTEX
8
CUT
10
238.2516
20
244.0885
0
VERTEX
8
CUT
10
238.7584
20
243.6106
0
VERTEX
8
CUT
10
239.2626
20
243.1299
0
VERTEX
8
CUT
10
239.7642
20
242.6466
0
VERTEX
8
CUT
10
240.2632
20
242.1605
0
VERTEX
8
CUT
10
240.7596
20
241.6717
0
VERTEX
8
CUT
10
241.2533
20
241.1803
0
VERTEX
8
CUT
10
241.7443
20
240.6862
0
VERTEX
8
CUT
10
242.2327
20
240.1895
0
VERTEX
8
CUT
10
242.7183
20
239.6901
0
VERTEX
8
CUT
10
243.2013
20
239.1881
0
VERTEX
8
CUT
10
243.6816
20
238.6835
0
VERTEX
8
CUT
10
233.5146
20
229.0589
0
VERTEX
8
CUT
10
233.0864
20
229.5088
0
VERTEX
8
CUT
10
232.6559
20
229.9563
0
VERTEX
8
CUT
10
232.2229
20
230.4014
0
VERTEX
8
CUT
10
231.7875
20
230.8443
0
VERTEX
8
CUT
10
231.3498
20
231.2847
0
VERTEX
8
CUT
10
230.9097
20
231.7228
0
VERTEX
8
CUT
10
230.4672
20
232.1586
0
VERTEX
8
CUT
10
230.0224
20
232.5919
0
VERTEX
8
CUT
10
229.5752
20
233.0228
0
VERTEX
8
CUT
10
229.1257
20
233.4513
0
VERTEX
8
CUT
10
228.6739
20
233.8774
0
VERTEX
8
CUT
10
228.2199
20
234.3010
0
VERTEX
8
CUT
10
227.7635
20
234.7221
0
VERTEX
8
CUT
10
227.3049
20
235.1408
0
VERTEX
8
CUT
10
226.8440
20
235.5570
0
VERTEX
8
CUT
10
226.3809
20
235.9707
0
VERTEX
8
CUT
10
225.9155
20
236.3819
0
VERTEX
8
CUT
10
225.4479
20
236.7906
0
VERTEX
8
CUT
10
224.9782
20
237.1967
0
VERTEX
8
CUT
10
224.5062
20
237.6004
0
VERTEX
8
CUT
10
224.0321
20
238.0014
0
VERTEX
8
CUT
10
223.5558
20
238.3999
0
VERTEX
8
CUT
10
223.0774
20
238.7958
0
VERTEX
8
CUT
10
222.5968
20
239.1891
0
SEQEND
0
POLYLINE
8
CUT
66
1
70
1
0
VERTEX
8
CUT
10
245.4364
20
236.7923
0
VERTEX
8
CUT
10
245.9037
20
236.2757
0
VERTEX
8
CUT
10
246.3681
20
235.7565
0
VERTEX
8
CUT
10
246.8298
20
235.2349
0
VERTEX
8
CUT
10
247.2887
20
234.7108
0
VERTEX
8
CUT
10
247.7447
20
234.1842
0
VERTEX
8
CUT
10
248.1979
20
233.6551
0
VERTEX
8
CUT
10
248.6482
20
233.1237
0
VERTEX
8
CUT
10
249.0956
20
232.5897
0
VERTEX
8
CUT
10
249.5401
20
232.0534
0
VERTEX
8
CUT
10
249.9818
20
231.5147
0
VERTEX
8
CUT
10
250.4205
20
230.9736
0
VERTEX
8
CUT
10
250.8563
20
230.4302
0
VERTEX
8
CUT
10
251.2891
20
229.8844
0
VERTEX
8
CUT
10
251.7190
20
229.3363
0
VERTEX
8
CUT
10
252.1459
20
228.7858
0
VERTEX
8
CUT
10
252.5699
20
228.2331
0
VERTEX
8
CUT
10
252.9908
20
227.6781
0
VERTEX
8
CUT
10
253.4088
20
227.1208
0
VERTEX
8
CUT
10
253.8237
20
226.5613
0
VERTEX
8
CUT
10
254.2357
20
225.9995
0
VERTEX
8
CUT
10
254.6445
20
225.4355
0
VERTEX
8
CUT
10
255.0504
20
224.8694
0
VERTEX
8
CUT
10
255.4531
20
224.3010
0
VERTEX
8
CUT
10
255.8528
20
223.7305
0
VERTEX
8
CUT
10
244.3649
20
215.7287
0
VERTEX
8
CUT
10
244.0086
20
216.2373
0
VERTEX
8
CUT
10
243.6495
20
216.7440
0
VERTEX
8
CUT
10
243.2878
20
217.2487
0
VERTEX
8
CUT
10
242.9233
20
217.7515
0
VERTEX
8
CUT
10
242.5561
20
218.2523
0
VERTEX
8
CUT
10
242.1861
20
218.7511
0
VERTEX
8
CUT
10
241.8135
20
219.2479
0
VERTEX
8
CUT
10
241.4383
20
219.7427
0
VERTEX
8
CUT
10
241.0603
20
220.2354
0
VERTEX
8
CUT
10
240.6797
20
220.7261
0
VERTEX
8
CUT
10
240.2965
20
221.2148
0
VERTEX
8
CUT
10
239.9106
20
221.7013
0
VERTEX
8
CUT
10
239.5221
20
222.1858
0
VERTEX
8
CUT
10
239.1310
20
222.6682
0
VERTEX
8
CUT
10
238.7373
20
223.1484
0
VERTEX
8
CUT
10
238.3410
20
223.6265
0
VERTEX
8
CUT
10
237.9422
20
224.1025
0
VERTEX
8
CUT
10
237.5407
20
224.5763
0
VERTEX
8
CUT
10
237.1367
20
225.0479
0
VERTEX
8
CUT
10
236.7302
20
225.5174
0
VERTEX
8
CUT
10
236.3212
20
225.9846
0
VERTEX
8
CUT
10
235.9096
20
226.4496
0
VERTEX
8
CUT
10
235.4955
20
226.9124
0
VERTEX
8
CUT
10
235.0789
20
227.3730
0
SEQEND
0
POLYLINE
8
CUT
66
1
70
1
0
VERTEX
8
CUT
10
257.3061
20
221.5988
0
VERTEX
8
CUT
10
257.6912
20
221.0183
0
VERTEX
8
CUT
10
258.0731
20
220.4358
0
VERTEX
8
CUT
10
258.4519
20
219.8512
0
VERTEX
8
CUT
10
258.8275
20
219.2645
0
VERTEX
8
CUT
10
259.2000
20
218.6758
0
VERTEX
8
CUT
10
259.5692
20
218.0851
0
VERTEX
8
CUT
10
259.9353
20
217.4925
0
VERTEX
8
CUT
10
260.2981
20
216.8979
0
VERTEX
8
CUT
10
260.6578
20
216.3013
0
VERTEX
8
CUT
10
261.0142
20
215.7028
0
VERTEX
8
CUT
10
261.3674
20
215.1023
0
VERTEX
8
CUT
10
261.7173
20
214.5000
0
VERTEX
8
CUT
10
262.0639
20
213.8958
0
VERTEX
8
CUT
10
262.4073
20
213.2897
0
VERTEX
8
CUT
10
262.7475
20
212.6818
0
VERTEX
8
CUT
10
263.0843
20
212.0721
0
VERTEX
8
CUT
10
263.4178
20
211.4605
0
VERTEX
8
CUT
10
263.7481
20
210.8472
0
VERTEX
8
CUT
10
264.0750
20
210.2320
0
VERTEX
8
CUT
10
264.3986
20
209.6152
0
VERTEX
8
CUT
10
264.7188
20
208.9965
0
VERTEX
8
CUT
10
265.0357
20
208.3762
0
VERTEX
8
CUT
10
265.3493
20
207.7542
0
VERTEX
8
CUT
10
265.6595
20
207.1304
0
VERTEX
8
CUT
10
253.1073
20
200.9302
0
VERTEX
8
CUT
10
252.8308
20
201.4863
0
VERTEX
8
CUT
10
252.5512
20
202.0408
0
VERTEX
8
CUT
10
252.2687
20
202.5938
0
VERTEX
8
CUT
10
251.9832
20
203.1453
0
VERTEX
8
CUT
10
251.6948
20
203.6952
0
VERTEX
8
CUT
10
251.4033
20
204.2436
0
VERTEX
8
CUT
10
251.1089
20
204.7904
0
VERTEX
8
CUT
10
250.8116
20
205.3356
0
VERTEX
8
CUT
10
250.5113
20
205.8791
0
VERTEX
8
CUT
10
250.2081
20
206.4211
0
VERTEX
8
CUT
10
249.9020
20
206.9614
0
VERTEX
8
CUT
10
249.5929
20
207.5000
0
VERTEX
8
CUT
10
249.2810
20
208.0370
0
VERTEX
8
CUT
10
248.9661
20
208.5722
0
VERTEX
8
CUT
10
248.6484
20
209.1058
0
VERTEX
8
CUT
10
248.3278
20
209.6376
0
VERTEX
8
CUT
10
248.0043
20
210.1677
0
VERTEX
8
CUT
10
247.6780
20
210.6961
0
VERTEX
8
CUT
10
247.3488
20
211.2226
0
VERTEX
8
CUT
10
247.0168
20
211.7474
0
VERTEX
8
CUT
10
246.6819
20
212.2704
0
VERTEX
8
CUT
10
246.3443
20
212.7916
0
VERTEX
8
CUT
10
246.0038
20
213.3109
0
VERTEX
8
CUT
10
245.6605
20
213.8284
0
SEQEND
0
POLYLINE
8
CUT
66
1
70
1
0
VERTEX
8
CUT
10
266.7789
20
204.8060
0
VERTEX
8
CUT
10
267.0731
20
204.1746
0
VERTEX
8
CUT
10
267.3640
20
203.5416
0
VERTEX
8
CUT
10
267.6514
20
202.9071
0
VERTEX
8
CUT
10
267.9353
20
202.2710
0
VERTEX
8
CUT
10
268.2159
20
201.6334
0
VERTEX
8
CUT
10
268.4930
20
200.9942
0
VERTEX
8
CUT
10
268.7666
20
200.3536
0
VERTEX
8
CUT
10
269.0368
20
199.7116
0
VERTEX
8
CUT
10
269.3035
20
199.0681
0
VERTEX
8
CUT
10
269.5667
20
198.4231
0
VERTEX
8
CUT
10
269.8265
20
197.7767
0
VERTEX
8
CUT
10
270.0827
20
197.1290
0
VERTEX
8
CUT
10
270.3355
20
196.4799
0
VERTEX
8
CUT
10
270.5847
20
195.8294
0
VERTEX
8
CUT
10
270.8304
20
195.1776
0
VERTEX
8
CUT
10
271.0726
20
194.5244
0
VERTEX
8
CUT
10
271.3113
20
193.8700
0
VERTEX
8
CUT
10
271.5464
20
193.2143
0
VERTEX
8
CUT
10
271.7780
20
192.5573
0
VERTEX
8
CUT
10
272.0060
20
191.8991
0
VERTEX
8
CUT
10
272.2305
20
191.2396
0
VERTEX
8
CUT
10
272.4514
20
190.5790
0
VERTEX
8
CUT
10
272.6687
20
189.9172
0
VERTEX
8
CUT
10
272.8825
20
189.2542
0
VERTEX
8
CUT
10
259.5464
20
184.9940
0
VERTEX
8
CUT
10
259.3559
20
185.5851
0
VERTEX
8
CUT
10
259.1621
20
186.1751
0
VERTEX
8
CUT
10
258.9652
20
186.7640
0
VERTEX
8
CUT
10
258.7651
20
187.3519
0
VERTEX
8
CUT
10
258.5618
20
187.9387
0
VERTEX
8
CUT
10
258.3553
20
188.5243
0
VERTEX
8
CUT
10
258.1457
20
189.1089
0
VERTEX
8
CUT
10
257.9329
20
189.6923
0
VERTEX
8
CUT
10
257.7170
20
190.2746
0
VERTEX
8
CUT
10
257.4980
20
190.8556
0
VERTEX
8
CUT
10
257.2758
20
191.4355
0
VERTEX
8
CUT
10
257.0505
20
192.0142
0
VERTEX
8
CUT
10
256.8220
20
192.5917
0
VERTEX
8
CUT
10
256.5905
20
193.1679
0
VERTEX
8
CUT
10
256.3558
20
193.7428
0
VERTEX
8
CUT
10
256.1181
20
194.3165
0
VERTEX
8
CUT
10
255.8772
20
194.8889
0
VERTEX
8
CUT
10
255.6333
20
195.4600
0
VERTEX
8
CUT
10
255.3863
20
196.0297
0
VERTEX
8
CUT
10
255.1362
20
196.5981
0
VERTEX
8
CUT
10
254.8830
20
197.1652
0
VERTEX
8
CUT
10
254.6268
20
197.7309
0
VERTEX
8
CUT
10
254.3675
20
198.2952
0
VERTEX
8
CUT
10
254.1052
20
198.8580
0
SEQEND
0
POLYLINE
8
CUT
66
1
70
1
0
VERTEX
8
CUT
10
273.6430
20
186.7888
0
VERTEX
8
CUT
10
273.8398
20
186.1206
0
VERTEX
8
CUT
10
274.0331
20
185.4514
0
VERTEX
8
CUT
10
274.2227
20
184.7811
0
VERTEX
8
CUT
10
274.4087
20
184.1098
0
VERTEX
8
CUT
10
274.5911
20
183.4375
0
VERTEX
8
CUT
10
274.7698
20
182.7642
0
VERTEX
8
CUT
10
274.9449
20
182.0900
0
VERTEX
8
CUT
10
275.1164
20
181.4148
0
VERTEX
8
CUT
10
275.2842
20
180.7387
0
VERTEX
8
CUT
10
275.4484
20
180.0618
0
VERTEX
8
CUT
10
275.6089
20
179.3839
0
VERTEX
8
CUT
10
275.7657
20
178.7052
0
VERTEX
8
CUT
10
275.9189
20
178.0257
0
VERTEX
8
CUT
10
276.0684
20
177.3453
0
VERTEX
8
CUT
10
276.2142
20
176.6641
0
VERTEX
8
CUT
10
276.3563
20
175.9822
0
VERTEX
8
CUT
10
276.4948
20
175.2995
0
VERTEX
8
CUT
10
276.6296
20
174.6161
0
VERTEX
8
CUT
10
276.7607
20
173.9319
0
VERTEX
8
CUT
10
276.8880
20
173.2470
0
VERTEX
8
CUT
10
277.0117
20
172.5615
0
VERTEX
8
CUT
10
277.1317
20
171.8753
0
VERTEX
8
CUT
10
277.2480
20
171.1885
0
VERTEX
8
CUT
10
277.3605
20
170.5011
0
VERTEX
8
CUT
10
263.5385
20
168.2761
0
VERTEX
8
CUT
10
263.4381
20
168.8890
0
VERTEX
8
CUT
10
263.3345
20
169.5013
0
VERTEX
8
CUT
10
263.2275
20
170.1130
0
VERTEX
8
CUT
10
263.1172
20
170.7241
0
VERTEX
8
CUT
10
263.0037
20
171.3346
0
VERTEX
8
CUT
10
262.8868
20
171.9445
0
VERTEX
8
CUT
10
262.7667
20
172.5538
0
VERTEX
8
CUT
10
262.6433
20
173.1624
0
VERTEX
8
CUT
10
262.5165
20
173.7703
0
VERTEX
8
CUT
10
262.3865
20
174.3776
0
VERTEX
8
CUT
10
262.2533
20
174.9841
0
VERTEX
8
CUT
10
262.1167
20
175.5899
0
VERTEX
8
CUT
10
261.9769
20
176.1950
0
VERTEX
8
CUT
10
261.8338
20
176.7992
0
VERTEX
8
CUT
10
261.6875
20
177.4028
0
VERTEX
8
CUT
10
261.5379
20
178.0055
0
VERTEX
8
CUT
10
261.3850
20
178.6074
0
VERTEX
8
CUT
10
261.2289
20
179.2084
0
VERTEX
8
CUT
10
261.0696
20
179.8086
0
VERTEX
8
CUT
10
260.9070
20
180.4080
0
VERTEX
8
CUT
10
260.7412
20
181.0064
0
VERTEX
8
CUT
10
260.5721
20
181.6040
0
VERTEX
8
CUT
10
260.3998
20
182.2006
0
VERTEX
8
CUT
10
260.2243
20
182.7963
0
SEQEND
0
POLYLINE
8
CUT
66
1
70
1
0
VERTEX
8
CUT
10
277.7451
20
167.9499
0
VERTEX
8
CUT
10
277.8401
20
167.2598
0
VERTEX
8
CUT
10
277.9315
20
166.5693
0
VERTEX
8
CUT
10
278.0191
20
165.8782
0
VERTEX
8
CUT
10
278.1029
20
165.1867
0
VERTEX
8
CUT
10
278.1831
20
164.4947
0
VERTEX
8
CUT
10
278.2595
20
163.8023
0
VERTEX
8
CUT
10
278.3322
20
163.1095
0
VERTEX
8
CUT
10
278.4011
20
162.4163
0
VERTEX
8
CUT
10
278.4662
20
161.7228
0
VERTEX
8
CUT
10
278.5277
20
161.0289
0
VERTEX
8
CUT
10
278.5854
20
160.3347
0
VERTEX
8
CUT
10
278.6393
20
159.6402
0
VERTEX
8
CUT
10
278.6895
20
158.9454
0
VERTEX
8
CUT
10
278.7359
20
158.2503
0
VERTEX
8
CUT
10
278.7786
20
157.5551
0
VERTEX
8
CUT
10
278.8175
20
156.8595
0
VERTEX
8
CUT
10
278.8527
20
156.1638
0
VERTEX
8
CUT
10
278.8841
20
155.4680
0
VERTEX
8
CUT
10
278.9117
20
154.7719
0
VERTEX
8
CUT
10
278.9356
20
154.0757
0
VERTEX
8
CUT
10
278.9557
20
153.3794
0
VERTEX
8
CUT
10
278.9721
20
152.6830
0
VERTEX
8
CUT
10
278.9847
20
151.9865
0
VERTEX
8
CUT
10
278.9936
20
151.2900
0
VERTEX
8
CUT
10
264.9943
20
151.1500
0
VERTEX
8
CUT
10
264.9864
20
151.7709
0
VERTEX
8
CUT
10
264.9751
20
152.3918
0
VERTEX
8
CUT
10
264.9605
20
153.0127
0
VERTEX
8
CUT
10
264.9426
20
153.6334
0
VERTEX
8
CUT
10
264.9213
20
154.2540
0
VERTEX
8
CUT
10
264.8966
20
154.8745
0
VERTEX
8
CUT
10
264.8686
20
155.4949
0
VERTEX
8
CUT
10
264.8373
20
156.1151
0
VERTEX
8
CUT
10
264.8026
20
156.7351
0
VERTEX
8
CUT
10
264.7646
20
157.3550
0
VERTEX
8
CUT
10
264.7232
20
157.9746
0
VERTEX
8
CUT
10
264.6784
20
158.5940
0
VERTEX
8
CUT
10
264.6304
20
159.2131
0
VERTEX
8
CUT
10
264.5789
20
159.8320
0
VERTEX
8
CUT
10
264.5242
20
160.4505
0
VERTEX
8
CUT
10
264.4661
20
161.0688
0
VERTEX
8
CUT
10
264.4046
20
161.6868
0
VERTEX
8
CUT
10
264.3399
20
162.3044
0
VERTEX
8
CUT
10
264.2717
20
162.9216
0
VERTEX
8
CUT
10
264.2003
20
163.5385
0
VERTEX
8
CUT
10
264.1255
20
164.1550
0
VERTEX
8
CUT
10
264.0474
20
164.7710
0
VERTEX
8
CUT
10
263.9660
20
165.3867
0
VERTEX
8
CUT
10
263.8813
20
166.0019
0
SEQEND
0
ENDSEC
0
EOF
