0
SECTION
2
ENTITIES
0
POLYLINE
8
CUT
66
1
70
1
0
VERTEX
8
CUT
10
300.0000
20
150.0000
0
VERTEX
8
CUT
10
299.9086
20
144.7651
0
VERTEX
8
CUT
10
299.6346
20
139.5365
0
VERTEX
8
CUT
10
299.1783
20
134.3207
0
VERTEX
8
CUT
10
298.5402
20
129.1240
0
VERTEX
8
CUT
10
297.7212
20
123.9528
0
VERTEX
8
CUT
10
296.7221
20
118.8132
0
VERTEX
8
CUT
10
295.5444
20
113.7117
0
VERTEX
8
CUT
10
294.1893
20
108.6544
0
VERTEX
8
CUT
10
292.6585
20
103.6475
0
VERTEX
8
CUT
10
290.9539
20
98.6970
0
VERTEX
8
CUT
10
289.0776
20
93.8090
0
VERTEX
8
CUT
10
287.0318
20
88.9895
0
VERTEX
8
CUT
10
284.8191
20
84.2443
0
VERTEX
8
CUT
10
282.4421
20
79.5793
0
VERTEX
8
CUT
10
279.9038
20
75.0000
0
VERTEX
8
CUT
10
277.2072
20
70.5121
0
VERTEX
8
CUT
10
274.3556
20
66.1211
0
VERTEX
8
CUT
10
271.3525
20
61.8322
0
VERTEX
8
CUT
10
268.2016
20
57.6508
0
VERTEX
8
CUT
10
264.9067
20
53.5819
0
VERTEX
8
CUT
10
261.4717
20
49.6304
0
VERTEX
8
CUT
10
257.9010
20
45.8012
0
VERTEX
8
CUT
10
254.1988
20
42.0990
0
VERTEX
8
CUT
10
250.3696
20
38.5283
0
VERTEX
8
CUT
10
246.4181
20
35.0933
0
VERTEX
8
CUT
10
242.3492
20
31.7984
0
VERTEX
8
CUT
10
238.1678
20
28.6475
0
VERTEX
8
CUT
10
233.8789
20
25.6444
0
VERTEX
8
CUT
10
229.4879
20
22.7928
0
VERTEX
8
CUT
10
225.0000
20
20.0962
0
VERTEX
8
CUT
10
220.4207
20
17.5579
0
VERTEX
8
CUT
10
215.7557
20
15.1809
0
VERTEX
8
CUT
10
211.0105
20
12.9682
0
VERTEX
8
CUT
10
206.1910
20
10.9224
0
VERTEX
8
CUT
10
201.3030
20
9.0461
0
VERTEX
8
CUT
10
196.3525
20
7.3415
0
VERTEX
8
CUT
10
191.3456
20
5.8107
0
VERTEX
8
CUT
10
186.2883
20
4.4556
0
VERTEX
8
CUT
10
181.1868
20
3.2779
0
VERTEX
8
CUT
10
176.0472
20
2.2788
0
VERTEX
8
CUT
10
170.8760
20
1.4598
0
VERTEX
8
CUT
10
165.6793
20
0.8217
0
VERTEX
8
CUT
10
160.4635
20
0.3654
0
VERTEX
8
CUT
10
155.2349
20
0.0914
0
VERTEX
8
CUT
10
150.0000
20
0.0000
0
VERTEX
8
CUT
10
144.7651
20
0.0914
0
VERTEX
8
CUT
10
139.5365
20
0.3654
0
VERTEX
8
CUT
10
134.3207
20
0.8217
0
VERTEX
8
CUT
10
129.1240
20
1.4598
0
VERTEX
8
CUT
10
123.9528
20
2.2788
0
VERTEX
8
CUT
10
118.8132
20
3.2779
0
VERTEX
8
CUT
10
113.7117
20
4.4556
0
VERTEX
8
CUT
10
108.6544
20
5.8107
0
VERTEX
8
CUT
10
103.6475
20
7.3415
0
VERTEX
8
CUT
10
98.6970
20
9.0461
0
VERTEX
8
CUT
10
93.8090
20
10.9224
0
VERTEX
8
CUT
10
88.9895
20
12.9682
0
VERTEX
8
CUT
10
84.2443
20
15.1809
0
VERTEX
8
CUT
10
79.5793
20
17.5579
0
VERTEX
8
CUT
10
75.0000
20
20.0962
0
VERTEX
8
CUT
10
70.5121
20
22.7928
0
VERTEX
8
CUT
10
66.1211
20
25.6444
0
VERTEX
8
CUT
10
61.8322
20
28.6475
0
VERTEX
8
CUT
10
57.6508
20
31.7984
0
VERTEX
8
CUT
10
53.5819
20
35.0933
0
VERTEX
8
CUT
10
49.6304
20
38.5283
0
VERTEX
8
CUT
10
45.8012
20
42.0990
0
VERTEX
8
CUT
10
42.0990
20
45.8012
0
VERTEX
8
CUT
10
38.5283
20
49.6304
0
VERTEX
8
CUT
10
35.0933
20
53.5819
0
VERTEX
8
CUT
10
31.7984
20
57.6508
0
VERTEX
8
CUT
10
28.6475
20
61.8322
0
VERTEX
8
CUT
10
25.6444
20
66.1211
0
VERTEX
8
CUT
10
22.7928
20
70.5121
0
VERTEX
8
CUT
10
20.0962
20
75.0000
0
VERTEX
8
CUT
10
17.5579
20
79.5793
0
VERTEX
8
CUT
10
15.1809
20
84.2443
0
VERTEX
8
CUT
10
12.9682
20
88.9895
0
VERTEX
8
CUT
10
10.9224
20
93.8090
0
VERTEX
8
CUT
10
9.0461
20
98.6970
0
VERTEX
8
CUT
10
7.3415
20
103.6475
0
VERTEX
8
CUT
10
5.8107
20
108.6544
0
VERTEX
8
CUT
10
4.4556
20
113.7117
0
VERTEX
8
CUT
10
3.2779
20
118.8132
0
VERTEX
8
CUT
10
2.2788
20
123.9528
0
VERTEX
8
CUT
10
1.4598
20
129.1240
0
VERTEX
8
CUT
10
0.8217
20
134.3207
0
VERTEX
8
CUT
10
0.3654
20
139.5365
0
VERTEX
8
CUT
10
0.0914
20
144.7651
0
VERTEX
8
CUT
10
0.0000
20
150.0000
0
VERTEX
8
CUT
10
0.0914
20
155.2349
0
VERTEX
8
CUT
10
0.3654
20
160.4635
0
VERTEX
8
CUT
10
0.8217
20
165.6793
0
VERTEX
8
CUT
10
1.4598
20
170.8760
0
VERTEX
8
CUT
10
2.2788
20
176.0472
0
VERTEX
8
CUT
10
3.2779
20
181.1868
0
VERTEX
8
CUT
10
4.4556
20
186.2883
0
VERTEX
8
CUT
10
5.8107
20
191.3456
0
VERTEX
8
CUT
10
7.3415
20
196.3525
0
VERTEX
8
CUT
10
9.0461
20
201.3030
0
VERTEX
8
CUT
10
10.9224
20
206.1910
0
VERTEX
8
CUT
10
12.9682
20
211.0105
0
VERTEX
8
CUT
10
15.1809
20
215.7557
0
VERTEX
8
CUT
10
17.5579
20
220.4207
0
VERTEX
8
CUT
10
20.0962
20
225.0000
0
VERTEX
8
CUT
10
22.7928
20
229.4879
0
VERTEX
8
CUT
10
25.6444
20
233.8789
0
VERTEX
8
CUT
10
28.6475
20
238.1678
0
VERTEX
8
CUT
10
31.7984
20
242.3492
0
VERTEX
8
CUT
10
35.0933
20
246.4181
0
VERTEX
8
CUT
10
38.5283
20
250.3696
0
VERTEX
8
CUT
10
42.0990
20
254.1988
0
VERTEX
8
CUT
10
45.8012
20
257.9010
0
VERTEX
8
CUT
10
49.6304
20
261.4717
0
VERTEX
8
CUT
10
53.5819
20
264.9067
0
VERTEX
8
CUT
10
57.6508
20
268.2016
0
VERTEX
8
CUT
10
61.8322
20
271.3525
0
VERTEX
8
CUT
10
66.1211
20
274.3556
0
VERTEX
8
CUT
10
70.5121
20
277.2072
0
VERTEX
8
CUT
10
75.0000
20
279.9038
0
VERTEX
8
CUT
10
79.5793
20
282.4421
0
VERTEX
8
CUT
10
84.2443
20
284.8191
0
VERTEX
8
CUT
10
88.9895
20
287.0318
0
VERTEX
8
CUT
10
93.8090
20
289.0776
0
VERTEX
8
CUT
10
98.6970
20
290.9539
0
VERTEX
8
CUT
10
103.6475
20
292.6585
0
VERTEX
8
CUT
10
108.6544
20
294.1893
0
VERTEX
8
CUT
10
113.7117
20
295.5444
0
VERTEX
8
CUT
10
118.8132
20
296.7221
0
VERTEX
8
CUT
10
123.9528
20
297.7212
0
VERTEX
8
CUT
10
129.1240
20
298.5402
0
VERTEX
8
CUT
10
134.3207
20
299.1783
0
VERTEX
8
CUT
10
139.5365
20
299.6346
0
VERTEX
8
CUT
10
144.7651
20
299.9086
0
VERTEX
8
CUT
10
150.0000
20
300.0000
0
VERTEX
8
CUT
10
155.2349
20
299.9086
0
VERTEX
8
CUT
10
160.4635
20
299.6346
0
VERTEX
8
CUT
10
165.6793
20
299.1783
0
VERTEX
8
CUT
10
170.8760
20
298.5402
0
VERTEX
8
CUT
10
176.0472
20
297.7212
0
VERTEX
8
CUT
10
181.1868
20
296.7221
0
VERTEX
8
CUT
10
186.2883
20
295.5444
0
VERTEX
8
CUT
10
191.3456
20
294.1893
0
VERTEX
8
CUT
10
196.3525
20
292.6585
0
VERTEX
8
CUT
10
201.3030
20
290.9539
0
VERTEX
8
CUT
10
206.1910
20
289.0776
0
VERTEX
8
CUT
10
211.0105
20
287.0318
0
VERTEX
8
CUT
10
215.7557
20
284.8191
0
VERTEX
8
CUT
10
220.4207
20
282.4421
0
VERTEX
8
CUT
10
225.0000
20
279.9038
0
VERTEX
8
CUT
10
229.4879
20
277.2072
0
VERTEX
8
CUT
10
233.8789
20
274.3556
0
VERTEX
8
CUT
10
238.1678
20
271.3525
0
VERTEX
8
CUT
10
242.3492
20
268.2016
0
VERTEX
8
CUT
10
246.4181
20
264.9067
0
VERTEX
8
CUT
10
250.3696
20
261.4717
0
VERTEX
8
CUT
10
254.1988
20
257.9010
0
VERTEX
8
CUT
10
257.9010
20
254.1988
0
VERTEX
8
CUT
10
261.4717
20
250.3696
0
VERTEX
8
CUT
10
264.9067
20
246.4181
0
VERTEX
8
CUT
10
268.2016
20
242.3492
0
VERTEX
8
CUT
10
271.3525
20
238.1678
0
VERTEX
8
CUT
10
274.3556
20
233.8789
0
VERTEX
8
CUT
10
277.2072
20
229.4879
0
VERTEX
8
CUT
10
279.9038
20
225.0000
0
VERTEX
8
CUT
10
282.4421
20
220.4207
0
VERTEX
8
CUT
10
284.8191
20
215.7557
0
VERTEX
8
CUT
10
287.0318
20
211.0105
0
VERTEX
8
CUT
10
289.0776
20
206.1910
0
VERTEX
8
CUT
10
290.9539
20
201.3030
0
VERTEX
8
CUT
10
292.6585
20
196.3525
0
VERTEX
8
CUT
10
294.1893
20
191.3456
0
VERTEX
8
CUT
10
295.5444
20
186.2883
0
VERTEX
8
CUT
10
296.7221
20
181.1868
0
VERTEX
8
CUT
10
297.7212
20
176.0472
0
VERTEX
8
CUT
10
298.5402
20
170.8760
0
VERTEX
8
CUT
10
299.1783
20
165.6793
0
VERTEX
8
CUT
10
299.6346
20
160.4635
0
VERTEX
8
CUT
10
299.9086
20
155.2349
0
SEQEND
0
POLYLINE
8
CUT
66
1
70
1
0
VERTEX
8
CUT
10
153.0000
20
282.0000
0
VERTEX
8
CUT
10
152.9544
20
281.4791
0
VERTEX
8
CUT
10
152.8191
20
280.9739
0
VERTEX
8
CUT
10
152.5981
20
280.5000
0
VERTEX
8
CUT
10
152.2981
20
280.0716
0
VERTEX
8
CUT
10
151.9284
20
279.7019
0
VERTEX
8
CUT
10
151.5000
20
279.4019
0
VERTEX
8
CUT
10
151.0261
20
279.1809
0
VERTEX
8
CUT
10
150.5209
20
279.0456
0
VERTEX
8
CUT
10
150.0000
20
279.0000
0
VERTEX
8
CUT
10
149.4791
20
279.0456
0
VERTEX
8
CUT
10
148.9739
20
279.1809
0
VERTEX
8
CUT
10
148.5000
20
279.4019
0
VERTEX
8
CUT
10
148.0716
20
279.7019
0
VERTEX
8
CUT
10
147.7019
20
280.0716
0
VERTEX
8
CUT
10
147.4019
20
280.5000
0
VERTEX
8
CUT
10
147.1809
20
280.9739
0
VERTEX
8
CUT
10
147.0456
20
281.4791
0
VERTEX
8
CUT
10
147.0000
20
282.0000
0
VERTEX
8
CUT
10
147.0456
20
282.5209
0
VERTEX
8
CUT
10
147.1809
20
283.0261
0
VERTEX
8
CUT
10
147.4019
20
283.5000
0
VERTEX
8
CUT
10
147.7019
20
283.9284
0
VERTEX
8
CUT
10
148.0716
20
284.2981
0
VERTEX
8
CUT
10
148.5000
20
284.5981
0
VERTEX
8
CUT
10
148.9739
20
284.8191
0
VERTEX
8
CUT
10
149.4791
20
284.9544
0
VERTEX
8
CUT
10
150.0000
20
285.0000
0
VERTEX
8
CUT
10
150.5209
20
284.9544
0
VERTEX
8
CUT
10
151.0261
20
284.8191
0
VERTEX
8
CUT
10
151.5000
20
284.5981
0
VERTEX
8
CUT
10
151.9284
20
284.2981
0
VERTEX
8
CUT
10
152.2981
20
283.9284
0
VERTEX
8
CUT
10
152.5981
20
283.5000
0
VERTEX
8
CUT
10
152.8191
20
283.0261
0
VERTEX
8
CUT
10
152.9544
20
282.5209
0
SEQEND
0
ENDSEC
0
EOF
