0
SECTION
2
HEADER
9
$ACADVER
1
AC1009
9
$INSUNITS
70
4
0
ENDSEC
0
SECTION
2
TABLES
0
TABLE
2
LAYER
70
1
0
LAYER
2
CUT
70
0
62
7
6
CONTINUOUS
0
ENDTAB
0
ENDSEC
0
SECTION
2
ENTITIES
0
POLYLINE
8
CUT
66
1
70
1
10
0.0
20
0.0
30
0.0
0
VERTEX
8
CUT
10
1.1545
20
-0.0750
0
VERTEX
8
CUT
10
1.0075
20
-0.0678
0
VERTEX
8
CUT
10
0.8912
20
-0.0505
0
VERTEX
8
CUT
10
0.7771
20
-0.0219
0
VERTEX
8
CUT
10
0.6663
20
0.0177
0
VERTEX
8
CUT
10
0.5600
20
0.0680
0
VERTEX
8
CUT
10
0.4591
20
0.1284
0
VERTEX
8
CUT
10
0.3646
20
0.1985
0
VERTEX
8
CUT
10
0.2775
20
0.2775
0
VERTEX
8
CUT
10
0.1985
20
0.3646
0
VERTEX
8
CUT
10
0.1284
20
0.4591
0
VERTEX
8
CUT
10
0.0680
20
0.5600
0
VERTEX
8
CUT
10
0.0177
20
0.6663
0
VERTEX
8
CUT
10
-0.0219
20
0.7771
0
VERTEX
8
CUT
10
-0.0505
20
0.8912
0
VERTEX
8
CUT
10
-0.0678
20
1.0075
0
VERTEX
8
CUT
10
-0.0750
20
1.1545
0
VERTEX
8
CUT
10
-0.0750
20
298.8439
0
VERTEX
8
CUT
10
-0.0678
20
298.9908
0
VERTEX
8
CUT
10
-0.0505
20
299.1071
0
VERTEX
8
CUT
10
-0.0219
20
299.2212
0
VERTEX
8
CUT
10
0.0177
20
299.3320
0
VERTEX
8
CUT
10
0.0680
20
299.4383
0
VERTEX
8
CUT
10
0.1284
20
299.5392
0
VERTEX
8
CUT
10
0.1985
20
299.6337
0
VERTEX
8
CUT
10
0.2775
20
299.7208
0
VERTEX
8
CUT
10
0.3646
20
299.7998
0
VERTEX
8
CUT
10
0.4591
20
299.8699
0
VERTEX
8
CUT
10
0.5600
20
299.9303
0
VERTEX
8
CUT
10
0.6663
20
299.9806
0
VERTEX
8
CUT
10
0.7771
20
300.0203
0
VERTEX
8
CUT
10
0.8912
20
300.0488
0
VERTEX
8
CUT
10
1.0075
20
300.0661
0
VERTEX
8
CUT
10
1.1545
20
300.0733
0
VERTEX
8
CUT
10
298.8455
20
300.0733
0
VERTEX
8
CUT
10
298.9925
20
300.0661
0
VERTEX
8
CUT
10
299.1088
20
300.0488
0
VERTEX
8
CUT
10
299.2229
20
300.0203
0
VERTEX
8
CUT
10
299.3337
20
299.9806
0
VERTEX
8
CUT
10
299.4400
20
299.9303
0
VERTEX
8
CUT
10
299.5409
20
299.8699
0
VERTEX
8
CUT
10
299.6354
20
299.7998
0
VERTEX
8
CUT
10
299.7225
20
299.7208
0
VERTEX
8
CUT
10
299.8015
20
299.6337
0
VERTEX
8
CUT
10
299.8716
20
299.5392
0
VERTEX
8
CUT
10
299.9320
20
299.4383
0
VERTEX
8
CUT
10
299.9823
20
299.3320
0
VERTEX
8
CUT
10
300.0219
20
299.2212
0
VERTEX
8
CUT
10
300.0505
20
299.1071
0
VERTEX
8
CUT
10
300.0678
20
298.9908
0
VERTEX
8
CUT
10
300.0750
20
298.8439
0
VERTEX
8
CUT
10
300.0750
20
1.1545
0
VERTEX
8
CUT
10
300.0678
20
1.0075
0
VERTEX
8
CUT
10
300.0505
20
0.8912
0
VERTEX
8
CUT
10
300.0219
20
0.7771
0
VERTEX
8
CUT
10
299.9823
20
0.6663
0
VERTEX
8
CUT
10
299.9320
20
0.5600
0
VERTEX
8
CUT
10
299.8716
20
0.4591
0
VERTEX
8
CUT
10
299.8015
20
0.3646
0
VERTEX
8
CUT
10
299.7225
20
0.2775
0
VERTEX
8
CUT
10
299.6354
20
0.1985
0
VERTEX
8
CUT
10
299.5409
20
0.1284
0
VERTEX
8
CUT
10
299.4400
20
0.0680
0
VERTEX
8
CUT
10
299.3337
20
0.0177
0
VERTEX
8
CUT
10
299.2229
20
-0.0219
0
VERTEX
8
CUT
10
299.1088
20
-0.0505
0
VERTEX
8
CUT
10
298.9925
20
-0.0678
0
VERTEX
8
CUT
10
298.8455
20
-0.0750
0
SEQEND
0
POLYLINE
8
CUT
66
1
70
1
10
0.0
20
0.0
30
0.0
0
VERTEX
8
CUT
10
269.6963
20
206.0201
0
VERTEX
8
CUT
10
269.6980
20
205.9664
0
VERTEX
8
CUT
10
269.7057
20
205.8234
0
VERTEX
8
CUT
10
269.7163
20
205.7165
0
VERTEX
8
CUT
10
269.7328
20
205.6014
0
VERTEX
8
CUT
10
269.7529
20
205.4959
0
VERTEX
8
CUT
10
269.7797
20
205.3828
0
VERTEX
8
CUT
10
269.8092
20
205.2795
0
VERTEX
8
CUT
10
269.8545
20
205.1437
0
VERTEX
8
CUT
10
269.8727
20
205.0932
0
VERTEX
8
CUT
10
270.3884
20
203.7517
0
VERTEX
8
CUT
10
270.4128
20
203.6931
0
VERTEX
8
CUT
10
270.4817
20
203.5387
0
VERTEX
8
CUT
10
270.5394
20
203.4258
0
VERTEX
8
CUT
10
270.6083
20
203.3071
0
VERTEX
8
CUT
10
270.6777
20
203.2009
0
VERTEX
8
CUT
10
270.7587
20
203.0901
0
VERTEX
8
CUT
10
270.8388
20
202.9918
0
VERTEX
8
CUT
10
270.9524
20
202.8668
0
VERTEX
8
CUT
10
270.9962
20
202.8210
0
VERTEX
8
CUT
10
272.5137
20
201.3175
0
VERTEX
8
CUT
10
272.5570
20
201.2767
0
VERTEX
8
CUT
10
272.6750
20
201.1708
0
VERTEX
8
CUT
10
272.7674
20
201.0958
0
VERTEX
8
CUT
10
272.8713
20
201.0198
0
VERTEX
8
CUT
10
272.9706
20
200.9543
0
VERTEX
8
CUT
10
273.0815
20
200.8889
0
VERTEX
8
CUT
10
273.1868
20
200.8337
0
VERTEX
8
CUT
10
273.3306
20
200.7671
0
VERTEX
8
CUT
10
273.3852
20
200.7434
0
VERTEX
8
CUT
10
276.7703
20
199.3753
0
VERTEX
8
CUT
10
276.8218
20
199.3559
0
VERTEX
8
CUT
10
276.9602
20
199.3072
0
VERTEX
8
CUT
10
277.0656
20
199.2755
0
VERTEX
8
CUT
10
277.1811
20
199.2464
0
VERTEX
8
CUT
10
277.2890
20
199.2245
0
VERTEX
8
CUT
10
277.4067
20
199.2061
0
VERTEX
8
CUT
10
277.5161
20
199.1942
0
VERTEX
8
CUT
10
277.6625
20
199.1850
0
VERTEX
8
CUT
10
277.7175
20
199.1828
0
VERTEX
8
CUT
10
278.2114
20
199.1743
0
VERTEX
8
CUT
10
278.2769
20
199.1750
0
VERTEX
8
CUT
10
278.4511
20
199.1815
0
VERTEX
8
CUT
10
278.5814
20
199.1936
0
VERTEX
8
CUT
10
278.7215
20
199.2143
0
VERTEX
8
CUT
10
278.8497
20
199.2404
0
VERTEX
8
CUT
10
279.0183
20
199.2845
0
VERTEX
8
CUT
10
279.0811
20
199.3027
0
VERTEX
8
CUT
10
279.1223
20
199.3159
0
VERTEX
8
CUT
10
279.1757
20
199.3345
0
VERTEX
8
CUT
10
279.3168
20
199.3871
0
VERTEX
8
CUT
10
279.4207
20
199.4316
0
VERTEX
8
CUT
10
279.5308
20
199.4850
0
VERTEX
8
CUT
10
279.6300
20
199.5390
0
VERTEX
8
CUT
10
279.7345
20
199.6025
0
VERTEX
8
CUT
10
279.8282
20
199.6656
0
VERTEX
8
CUT
10
279.9490
20
199.7555
0
VERTEX
8
CUT
10
279.9935
20
199.7903
0
VERTEX
8
CUT
10
280.3298
20
200.0662
0
VERTEX
8
CUT
10
280.3653
20
200.0945
0
VERTEX
8
CUT
10
280.3792
20
200.1053
0
VERTEX
8
CUT
10
280.4133
20
200.1312
0
VERTEX
8
CUT
10
280.4865
20
200.1825
0
VERTEX
8
CUT
10
280.4916
20
200.1859
0
VERTEX
8
CUT
10
280.6476
20
200.2785
0
VERTEX
8
CUT
10
280.6529
20
200.2813
0
VERTEX
8
CUT
10
280.7331
20
200.3211
0
VERTEX
8
CUT
10
280.7721
20
200.3386
0
VERTEX
8
CUT
10
280.7883
20
200.3456
0
VERTEX
8
CUT
10
280.8301
20
200.3632
0
VERTEX
8
CUT
10
281.7134
20
200.7205
0
VERTEX
8
CUT
10
281.7678
20
200.7441
0
VERTEX
8
CUT
10
281.9111
20
200.8105
0
VERTEX
8
CUT
10
282.0161
20
200.8656
0
VERTEX
8
CUT
10
282.1265
20
200.9307
0
VERTEX
8
CUT
10
282.2255
20
200.9959
0
VERTEX
8
CUT
10
282.3290
20
201.0716
0
VERTEX
8
CUT
10
282.4211
20
201.1462
0
VERTEX
8
CUT
10
282.5388
20
201.2515
0
VERTEX
8
CUT
10
282.5819
20
201.2921
0
VERTEX
8
CUT
10
283.2817
20
201.9839
0
VERTEX
8
CUT
10
283.3224
20
202.0262
0
VERTEX
8
CUT
10
283.4281
20
202.1414
0
VERTEX
8
CUT
10
283.5031
20
202.2316
0
VERTEX
8
CUT
10
283.5793
20
202.3331
0
VERTEX
8
CUT
10
283.6451
20
202.4301
0
VERTEX
8
CUT
10
283.7111
20
202.5386
0
VERTEX
8
CUT
10
283.7671
20
202.6416
0
VERTEX
8
CUT
10
283.8349
20
202.7824
0
VERTEX
8
CUT
10
283.8590
20
202.8358
0
VERTEX
8
CUT
10
284.9314
20
205.3717
0
VERTEX
8
CUT
10
284.9525
20
205.4251
0
VERTEX
8
CUT
10
285.0053
20
205.5688
0
VERTEX
8
CUT
10
285.0397
20
205.6784
0
VERTEX
8
CUT
10
285.0712
20
205.7987
0
VERTEX
8
CUT
10
285.0950
20
205.9110
0
VERTEX
8
CUT
10
285.1149
20
206.0337
0
VERTEX
8
CUT
10
285.1278
20
206.1479
0
VERTEX
8
CUT
10
285.1377
20
206.3006
0
VERTEX
8
CUT
10
285.1401
20
206.3579
0
VERTEX
8
CUT
10
285.1465
20
206.7364
0
VERTEX
8
CUT
10
285.1463
20
206.7896
0
VERTEX
8
CUT
10
285.1424
20
206.9313
0
VERTEX
8
CUT
10
285.1348
20
207.0373
0
VERTEX
8
CUT
10
285.1215
20
207.1516
0
VERTEX
8
CUT
10
285.1045
20
207.2566
0
VERTEX
8
CUT
10
285.0812
20
207.3693
0
VERTEX
8
CUT
10
285.0550
20
207.4723
0
VERTEX
8
CUT
10
285.0140
20
207.6079
0
VERTEX
8
CUT
10
284.9976
20
207.6585
0
VERTEX
8
CUT
10
284.9915
20
207.6758
0
VERTEX
8
CUT
10
284.9610
20
207.7709
0
VERTEX
8
CUT
10
284.9592
20
207.7772
0
VERTEX
8
CUT
10
284.9144
20
207.9716
0
VERTEX
8
CUT
10
284.9133
20
207.9781
0
VERTEX
8
CUT
10
284.8992
20
208.0754
0
VERTEX
8
CUT
10
284.8944
20
208.1222
0
VERTEX
8
CUT
10
284.8927
20
208.1415
0
VERTEX
8
CUT
10
284.8890
20
208.1913
0
VERTEX
8
CUT
10
284.8821
20
208.3064
0
VERTEX
8
CUT
10
284.8772
20
208.3640
0
VERTEX
8
CUT
10
284.8606
20
208.5170
0
VERTEX
8
CUT
10
284.8426
20
208.6311
0
VERTEX
8
CUT
10
284.8172
20
208.7535
0
VERTEX
8
CUT
10
284.7883
20
208.8653
0
VERTEX
8
CUT
10
284.7512
20
208.9847
0
VERTEX
8
CUT
10
284.7117
20
209.0932
0
VERTEX
8
CUT
10
284.6522
20
209.2351
0
VERTEX
8
CUT
10
284.6286
20
209.2877
0
VERTEX
8
CUT
10
284.6045
20
209.3381
0
VERTEX
8
CUT
10
284.5865
20
209.3743
0
VERTEX
8
CUT
10
284.5275
20
209.4879
0
VERTEX
8
CUT
10
284.5083
20
209.5235
0
VERTEX
8
CUT
10
283.2859
20
211.6947
0
VERTEX
8
CUT
10
283.2588
20
211.7406
0
VERTEX
8
CUT
10
283.1837
20
211.8611
0
VERTEX
8
CUT
10
283.1233
20
211.9490
0
VERTEX
8
CUT
10
283.0539
20
212.0411
0
VERTEX
8
CUT
10
282.9861
20
212.1232
0
VERTEX
8
CUT
10
282.8909
20
212.2285
0
VERTEX
8
CUT
10
282.8543
20
212.2673
0
VERTEX
8
CUT
10
282.5613
20
212.5639
0
VERTEX
8
CUT
10
282.5153
20
212.6081
0
VERTEX
8
CUT
10
282.3898
20
212.7224
0
VERTEX
8
CUT
10
282.2911
20
212.8030
0
VERTEX
8
CUT
10
282.1799
20
212.8845
0
VERTEX
8
CUT
10
282.0733
20
212.9542
0
VERTEX
8
CUT
10
281.9265
20
213.0394
0
VERTEX
8
CUT
10
281.8706
20
213.0699
0
VERTEX
8
CUT
10
281.5391
20
213.2396
0
VERTEX
8
CUT
10
281.4898
20
213.2634
0
VERTEX
8
CUT
10
281.3571
20
213.3238
0
VERTEX
8
CUT
10
281.2556
20
213.3645
0
VERTEX
8
CUT
10
281.1439
20
213.4036
0
VERTEX
8
CUT
10
281.0391
20
213.4349
0
VERTEX
8
CUT
10
280.9243
20
213.4636
0
VERTEX
8
CUT
10
280.8171
20
213.4853
0
VERTEX
8
CUT
10
280.6613
20
213.5094
0
VERTEX
8
CUT
10
280.6308
20
213.5138
0
VERTEX
8
CUT
10
280.6034
20
213.5173
0
VERTEX
8
CUT
10
280.5608
20
213.5233
0
VERTEX
8
CUT
10
280.4816
20
213.5375
0
VERTEX
8
CUT
10
280.4761
20
213.5386
0
VERTEX
8
CUT
10
280.3257
20
213.5765
0
VERTEX
8
CUT
10
280.1794
20
213.6279
0
VERTEX
8
CUT
10
280.1743
20
213.6300
0
VERTEX
8
CUT
10
280.0993
20
213.6624
0
VERTEX
8
CUT
10
280.0640
20
213.6791
0
VERTEX
8
CUT
10
280.0495
20
213.6861
0
VERTEX
8
CUT
10
280.0125
20
213.7047
0
VERTEX
8
CUT
10
279.6393
20
213.8973
0
VERTEX
8
CUT
10
279.5754
20
213.9279
0
VERTEX
8
CUT
10
279.4029
20
214.0043
0
VERTEX
8
CUT
10
279.2703
20
214.0540
0
VERTEX
8
CUT
10
279.0901
20
214.1096
0
VERTEX
8
CUT
10
279.0219
20
214.1285
0
VERTEX
8
CUT
10
278.4850
20
214.2600
0
VERTEX
8
CUT
10
278.4161
20
214.2747
0
VERTEX
8
CUT
10
278.2315
20
214.3086
0
VERTEX
8
CUT
10
278.0916
20
214.3259
0
VERTEX
8
CUT
10
277.9044
20
214.3379
0
VERTEX
8
CUT
10
277.8340
20
214.3403
0
VERTEX
8
CUT
10
275.9588
20
214.3504
0
VERTEX
8
CUT
10
275.9027
20
214.3494
0
VERTEX
8
CUT
10
275.7535
20
214.3432
0
VERTEX
8
CUT
10
275.6419
20
214.3334
0
VERTEX
8
CUT
10
275.5218
20
214.3171
0
VERTEX
8
CUT
10
275.4116
20
214.2969
0
VERTEX
8
CUT
10
275.2662
20
214.2631
0
VERTEX
8
CUT
10
275.2120
20
214.2492
0
VERTEX
8
CUT
10
274.8609
20
214.1502
0
VERTEX
8
CUT
10
274.8065
20
214.1335
0
VERTEX
8
CUT
10
274.6626
20
214.0854
0
VERTEX
8
CUT
10
274.5564
20
214.0443
0
VERTEX
8
CUT
10
274.4438
20
213.9944
0
VERTEX
8
CUT
10
274.3420
20
213.9434
0
VERTEX
8
CUT
10
274.2346
20
213.8830
0
VERTEX
8
CUT
10
274.1381
20
213.8226
0
VERTEX
8
CUT
10
274.0369
20
213.7523
0
VERTEX
8
CUT
10
273.9466
20
213.6830
0
VERTEX
8
CUT
10
273.8308
20
213.5851
0
VERTEX
8
CUT
10
273.7882
20
213.5473
0
VERTEX
8
CUT
10
271.0702
20
211.0187
0
VERTEX
8
CUT
10
271.0247
20
210.9741
0
VERTEX
8
CUT
10
270.9065
20
210.8518
0
VERTEX
8
CUT
10
270.8229
20
210.7555
0
VERTEX
8
CUT
10
270.7380
20
210.6466
0
VERTEX
8
CUT
10
270.6651
20
210.5419
0
VERTEX
8
CUT
10
270.5923
20
210.4247
0
VERTEX
8
CUT
10
270.5309
20
210.3129
0
VERTEX
8
CUT
10
270.4709
20
210.1885
0
VERTEX
8
CUT
10
270.4217
20
210.0709
0
VERTEX
8
CUT
10
270.3646
20
209.9108
0
VERTEX
8
CUT
10
270.3448
20
209.8502
0
VERTEX
8
CUT
10
269.7980
20
208.0161
0
VERTEX
8
CUT
10
269.7824
20
207.9585
0
VERTEX
8
CUT
10
269.7446
20
207.8039
0
VERTEX
8
CUT
10
269.7220
20
207.6866
0
VERTEX
8
CUT
10
269.7040
20
207.5587
0
VERTEX
8
CUT
10
269.6931
20
207.4399
0
VERTEX
8
CUT
10
269.6867
20
207.2810
0
VERTEX
8
CUT
10
269.6857
20
207.2213
0
SEQEND
0
POLYLINE
8
CUT
66
1
70
1
10
0.0
20
0.0
30
0.0
0
VERTEX
8
CUT
10
261.7864
20
104.5389
0
VERTEX
8
CUT
10
261.7888
20
104.4818
0
VERTEX
8
CUT
10
261.7988
20
104.3298
0
VERTEX
8
CUT
10
261.8118
20
104.2162
0
VERTEX
8
CUT
10
261.8316
20
104.0942
0
VERTEX
8
CUT
10
261.8553
20
103.9824
0
VERTEX
8
CUT
10
261.8866
20
103.8627
0
VERTEX
8
CUT
10
261.9208
20
103.7537
0
VERTEX
8
CUT
10
261.9732
20
103.6107
0
VERTEX
8
CUT
10
261.9942
20
103.5576
0
VERTEX
8
CUT
10
262.3564
20
102.6989
0
VERTEX
8
CUT
10
262.3821
20
102.6422
0
VERTEX
8
CUT
10
262.4545
20
102.4927
0
VERTEX
8
CUT
10
262.5145
20
102.3835
0
VERTEX
8
CUT
10
262.5856
20
102.2689
0
VERTEX
8
CUT
10
262.6566
20
102.1666
0
VERTEX
8
CUT
10
262.7392
20
102.0600
0
VERTEX
8
CUT
10
262.8205
20
101.9656
0
VERTEX
8
CUT
10
262.9136
20
101.8681
0
VERTEX
8
CUT
10
263.0043
20
101.7826
0
VERTEX
8
CUT
10
263.1070
20
101.6954
0
VERTEX
8
CUT
10
263.2060
20
101.6197
0
VERTEX
8
CUT
10
263.3173
20
101.5436
0
VERTEX
8
CUT
10
263.4236
20
101.4786
0
VERTEX
8
CUT
10
263.5422
20
101.4144
0
VERTEX
8
CUT
10
263.6547
20
101.3609
0
VERTEX
8
CUT
10
263.8080
20
101.2974
0
VERTEX
8
CUT
10
263.8662
20
101.2750
0
VERTEX
8
CUT
10
264.5662
20
101.0269
0
VERTEX
8
CUT
10
264.6307
20
101.0061
0
VERTEX
8
CUT
10
264.8041
20
100.9555
0
VERTEX
8
CUT
10
264.9361
20
100.9249
0
VERTEX
8
CUT
10
265.0805
20
100.8999
0
VERTEX
8
CUT
10
265.2151
20
100.8844
0
VERTEX
8
CUT
10
265.3953
20
100.8739
0
VERTEX
8
CUT
10
265.4630
20
100.8719
0
VERTEX
8
CUT
10
265.9801
20
100.8710
0
VERTEX
8
CUT
10
266.0436
20
100.8726
0
VERTEX
8
CUT
10
266.2127
20
100.8813
0
VERTEX
8
CUT
10
266.3390
20
100.8945
0
VERTEX
8
CUT
10
266.4747
20
100.9160
0
VERTEX
8
CUT
10
266.5989
20
100.9425
0
VERTEX
8
CUT
10
266.7316
20
100.9782
0
VERTEX
8
CUT
10
266.8523
20
101.0177
0
VERTEX
8
CUT
10
266.9805
20
101.0672
0
VERTEX
8
CUT
10
267.0963
20
101.1192
0
VERTEX
8
CUT
10
267.2468
20
101.1966
0
VERTEX
8
CUT
10
267.3024
20
101.2271
0
VERTEX
8
CUT
10
267.9093
20
101.5808
0
VERTEX
8
CUT
10
267.9533
20
101.6077
0
VERTEX
8
CUT
10
268.0689
20
101.6819
0
VERTEX
8
CUT
10
268.1532
20
101.7412
0
VERTEX
8
CUT
10
268.2415
20
101.8093
0
VERTEX
8
CUT
10
268.3204
20
101.8757
0
VERTEX
8
CUT
10
268.4215
20
101.9685
0
VERTEX
8
CUT
10
268.4587
20
102.0041
0
VERTEX
8
CUT
10
268.5618
20
102.1073
0
VERTEX
8
CUT
10
268.6027
20
102.1502
0
VERTEX
8
CUT
10
268.7089
20
102.2674
0
VERTEX
8
CUT
10
268.7841
20
102.3592
0
VERTEX
8
CUT
10
268.8781
20
102.4862
0
VERTEX
8
CUT
10
268.9122
20
102.5348
0
VERTEX
8
CUT
10
269.1430
20
102.8814
0
VERTEX
8
CUT
10
269.1713
20
102.9258
0
VERTEX
8
CUT
10
269.2439
20
103.0460
0
VERTEX
8
CUT
10
269.2944
20
103.1385
0
VERTEX
8
CUT
10
269.3446
20
103.2409
0
VERTEX
8
CUT
10
269.3868
20
103.3374
0
VERTEX
8
CUT
10
269.4373
20
103.4684
0
VERTEX
8
CUT
10
269.4552
20
103.5180
0
VERTEX
8
CUT
10
269.4947
20
103.6355
0
VERTEX
8
CUT
10
269.5128
20
103.6945
0
VERTEX
8
CUT
10
269.5571
20
103.8527
0
VERTEX
8
CUT
10
269.5841
20
103.9730
0
VERTEX
8
CUT
10
269.6067
20
104.1045
0
VERTEX
8
CUT
10
269.6213
20
104.2269
0
VERTEX
8
CUT
10
269.6323
20
104.3908
0
VERTEX
8
CUT
10
269.6349
20
104.4523
0
VERTEX
8
CUT
10
269.6384
20
104.6770
0
VERTEX
8
CUT
10
269.6379
20
104.7357
0
VERTEX
8
CUT
10
269.6327
20
104.8921
0
VERTEX
8
CUT
10
269.6231
20
105.0091
0
VERTEX
8
CUT
10
269.6065
20
105.1350
0
VERTEX
8
CUT
10
269.5855
20
105.2505
0
VERTEX
8
CUT
10
269.5567
20
105.3742
0
VERTEX
8
CUT
10
269.5245
20
105.4871
0
VERTEX
8
CUT
10
269.4743
20
105.6352
0
VERTEX
8
CUT
10
269.4541
20
105.6903
0
VERTEX
8
CUT
10
269.2594
20
106.1840
0
VERTEX
8
CUT
10
269.2363
20
106.2387
0
VERTEX
8
CUT
10
269.1710
20
106.3828
0
VERTEX
8
CUT
10
269.1168
20
106.4884
0
VERTEX
8
CUT
10
269.0525
20
106.5996
0
VERTEX
8
CUT
10
268.9881
20
106.6993
0
VERTEX
8
CUT
10
268.9131
20
106.8036
0
VERTEX
8
CUT
10
268.8392
20
106.8965
0
VERTEX
8
CUT
10
268.7347
20
107.0152
0
VERTEX
8
CUT
10
268.6944
20
107.0587
0
VERTEX
8
CUT
10
268.2029
20
107.5641
0
VERTEX
8
CUT
10
268.1598
20
107.6063
0
VERTEX
8
CUT
10
268.0421
20
107.7157
0
VERTEX
8
CUT
10
267.9498
20
107.7933
0
VERTEX
8
CUT
10
267.8217
20
107.8903
0
VERTEX
8
CUT
10
267.7728
20
107.9255
0
VERTEX
8
CUT
10
267.3196
20
108.2344
0
VERTEX
8
CUT
10
267.2724
20
108.2650
0
VERTEX
8
CUT
10
267.1446
20
108.3436
0
VERTEX
8
CUT
10
267.0461
20
108.3980
0
VERTEX
8
CUT
10
266.9368
20
108.4518
0
VERTEX
8
CUT
10
266.8336
20
108.4967
0
VERTEX
8
CUT
10
266.6935
20
108.5501
0
VERTEX
8
CUT
10
266.6405
20
108.5689
0
VERTEX
8
CUT
10
266.5252
20
108.6067
0
VERTEX
8
CUT
10
266.4655
20
108.6245
0
VERTEX
8
CUT
10
266.3051
20
108.6681
0
VERTEX
8
CUT
10
266.1831
20
108.6944
0
VERTEX
8
CUT
10
266.0499
20
108.7160
0
VERTEX
8
CUT
10
265.9260
20
108.7296
0
VERTEX
8
CUT
10
265.7601
20
108.7390
0
VERTEX
8
CUT
10
265.6978
20
108.7409
0
VERTEX
8
CUT
10
265.6557
20
108.7412
0
VERTEX
8
CUT
10
265.6061
20
108.7404
0
VERTEX
8
CUT
10
265.4741
20
108.7356
0
VERTEX
8
CUT
10
265.3753
20
108.7279
0
VERTEX
8
CUT
10
265.2688
20
108.7152
0
VERTEX
8
CUT
10
265.1710
20
108.6993
0
VERTEX
8
CUT
10
265.0417
20
108.6729
0
VERTEX
8
CUT
10
264.9933
20
108.6620
0
VERTEX
8
CUT
10
264.5140
20
108.5432
0
VERTEX
8
CUT
10
264.4512
20
108.5259
0
VERTEX
8
CUT
10
264.2852
20
108.4750
0
VERTEX
8
CUT
10
264.1629
20
108.4302
0
VERTEX
8
CUT
10
264.0334
20
108.3746
0
VERTEX
8
CUT
10
263.9167
20
108.3168
0
VERTEX
8
CUT
10
263.7759
20
108.2371
0
VERTEX
8
CUT
10
263.6678
20
108.1682
0
VERTEX
8
CUT
10
263.5409
20
108.0774
0
VERTEX
8
CUT
10
263.4423
20
107.9987
0
VERTEX
8
CUT
10
263.3402
20
107.9080
0
VERTEX
8
CUT
10
263.2505
20
107.8194
0
VERTEX
8
CUT
10
263.1585
20
107.7185
0
VERTEX
8
CUT
10
263.0785
20
107.6210
0
VERTEX
8
CUT
10
262.9790
20
107.4856
0
VERTEX
8
CUT
10
262.9430
20
107.4338
0
VERTEX
8
CUT
10
262.2647
20
106.4019
0
VERTEX
8
CUT
10
262.2361
20
106.3563
0
VERTEX
8
CUT
10
262.1628
20
106.2330
0
VERTEX
8
CUT
10
262.1120
20
106.1381
0
VERTEX
8
CUT
10
262.0617
20
106.0331
0
VERTEX
8
CUT
10
262.0195
20
105.9341
0
VERTEX
8
CUT
10
261.9694
20
105.7998
0
VERTEX
8
CUT
10
261.9517
20
105.7490
0
VERTEX
8
CUT
10
261.9128
20
105.6284
0
VERTEX
8
CUT
10
261.8942
20
105.5650
0
VERTEX
8
CUT
10
261.8494
20
105.3947
0
VERTEX
8
CUT
10
261.8229
20
105.2652
0
VERTEX
8
CUT
10
261.8019
20
105.1238
0
VERTEX
8
CUT
10
261.7898
20
104.9922
0
VERTEX
8
CUT
10
261.7832
20
104.8163
0
VERTEX
8
CUT
10
261.7826
20
104.7503
0
SEQEND
0
POLYLINE
8
CUT
66
1
70
1
10
0.0
20
0.0
30
0.0
0
VERTEX
8
CUT
10
160.0347
20
80.0041
0
VERTEX
8
CUT
10
160.0202
20
79.9321
0
VERTEX
8
CUT
10
159.9875
20
79.7393
0
VERTEX
8
CUT
10
159.9718
20
79.5933
0
VERTEX
8
CUT
10
159.9629
20
79.3980
0
VERTEX
8
CUT
10
159.9618
20
79.3246
0
VERTEX
8
CUT
10
159.9819
20
78.0373
0
VERTEX
8
CUT
10
159.9839
20
77.9855
0
VERTEX
8
CUT
10
159.9920
20
77.8474
0
VERTEX
8
CUT
10
160.0026
20
77.7442
0
VERTEX
8
CUT
10
160.0188
20
77.6331
0
VERTEX
8
CUT
10
160.0383
20
77.5312
0
VERTEX
8
CUT
10
160.0701
20
77.3967
0
VERTEX
8
CUT
10
160.0831
20
77.3465
0
VERTEX
8
CUT
10
160.4781
20
75.9467
0
VERTEX
8
CUT
10
160.4953
20
75.8909
0
VERTEX
8
CUT
10
160.5447
20
75.7436
0
VERTEX
8
CUT
10
160.5872
20
75.6349
0
VERTEX
8
CUT
10
160.6506
20
75.4931
0
VERTEX
8
CUT
10
160.6758
20
75.4405
0
VERTEX
8
CUT
10
161.5204
20
73.7757
0
VERTEX
8
CUT
10
161.5502
20
73.7205
0
VERTEX
8
CUT
10
161.6336
20
73.5755
0
VERTEX
8
CUT
10
161.7018
20
73.4701
0
VERTEX
8
CUT
10
161.7814
20
73.3601
0
VERTEX
8
CUT
10
161.8602
20
73.2624
0
VERTEX
8
CUT
10
161.9718
20
73.1379
0
VERTEX
8
CUT
10
162.0149
20
73.0923
0
VERTEX
8
CUT
10
164.3805
20
70.7172
0
VERTEX
8
CUT
10
164.4321
20
70.6685
0
VERTEX
8
CUT
10
164.5731
20
70.5427
0
VERTEX
8
CUT
10
164.6844
20
70.4547
0
VERTEX
8
CUT
10
164.8393
20
70.3464
0
VERTEX
8
CUT
10
164.8986
20
70.3076
0
VERTEX
8
CUT
10
167.2604
20
68.8567
0
VERTEX
8
CUT
10
167.3128
20
68.8263
0
VERTEX
8
CUT
10
167.4543
20
68.7490
0
VERTEX
8
CUT
10
167.5632
20
68.6963
0
VERTEX
8
CUT
10
167.7117
20
68.6336
0
VERTEX
8
CUT
10
167.7680
20
68.6115
0
VERTEX
8
CUT
10
170.6182
20
67.5739
0
VERTEX
8
CUT
10
170.6785
20
67.5538
0
VERTEX
8
CUT
10
170.8708
20
67.4951
0
VERTEX
8
CUT
10
170.9320
20
67.4781
0
VERTEX
8
CUT
10
172.8227
20
67.0090
0
VERTEX
8
CUT
10
172.8830
20
66.9956
0
VERTEX
8
CUT
10
173.0445
20
66.9643
0
VERTEX
8
CUT
10
173.1667
20
66.9470
0
VERTEX
8
CUT
10
173.3305
20
66.9324
0
VERTEX
8
CUT
10
173.3921
20
66.9285
0
VERTEX
8
CUT
10
174.3323
20
66.8933
0
VERTEX
8
CUT
10
174.3728
20
66.8914
0
VERTEX
8
CUT
10
174.3886
20
66.8904
0
VERTEX
8
CUT
10
174.4268
20
66.8877
0
VERTEX
8
CUT
10
174.5064
20
66.8793
0
VERTEX
8
CUT
10
174.5119
20
66.8786
0
VERTEX
8
CUT
10
174.6718
20
66.8507
0
VERTEX
8
CUT
10
174.6772
20
66.8495
0
VERTEX
8
CUT
10
174.7549
20
66.8304
0
VERTEX
8
CUT
10
174.7918
20
66.8200
0
VERTEX
8
CUT
10
174.8069
20
66.8156
0
VERTEX
8
CUT
10
174.8458
20
66.8037
0
VERTEX
8
CUT
10
174.9710
20
66.7638
0
VERTEX
8
CUT
10
175.0280
20
66.7472
0
VERTEX
8
CUT
10
175.1810
20
66.7067
0
VERTEX
8
CUT
10
175.2972
20
66.6821
0
VERTEX
8
CUT
10
175.4240
20
66.6616
0
VERTEX
8
CUT
10
175.5421
20
66.6486
0
VERTEX
8
CUT
10
175.7000
20
66.6390
0
VERTEX
8
CUT
10
175.7593
20
66.6369
0
VERTEX
8
CUT
10
177.6632
20
66.6155
0
VERTEX
8
CUT
10
177.6727
20
66.6154
0
VERTEX
8
CUT
10
177.7060
20
66.6153
0
VERTEX
8
CUT
10
177.7175
20
66.6153
0
VERTEX
8
CUT
10
180.9612
20
66.6356
0
VERTEX
8
CUT
10
181.0174
20
66.6373
0
VERTEX
8
CUT
10
181.1672
20
66.6453
0
VERTEX
8
CUT
10
181.2792
20
66.6565
0
VERTEX
8
CUT
10
181.3997
20
66.6744
0
VERTEX
8
CUT
10
181.5101
20
66.6960
0
VERTEX
8
CUT
10
181.6557
20
66.7318
0
VERTEX
8
CUT
10
181.7100
20
66.7465
0
VERTEX
8
CUT
10
181.9287
20
66.8112
0
VERTEX
8
CUT
10
181.9662
20
66.8219
0
VERTEX
8
CUT
10
181.9808
20
66.8258
0
VERTEX
8
CUT
10
182.0163
20
66.8351
0
VERTEX
8
CUT
10
182.0911
20
66.8521
0
VERTEX
8
CUT
10
182.0963
20
66.8531
0
VERTEX
8
CUT
10
182.2500
20
66.8776
0
VERTEX
8
CUT
10
182.2552
20
66.8782
0
VERTEX
8
CUT
10
182.3316
20
66.8853
0
VERTEX
8
CUT
10
182.3683
20
66.8876
0
VERTEX
8
CUT
10
182.3834
20
66.8883
0
VERTEX
8
CUT
10
182.4223
20
66.8898
0
VERTEX
8
CUT
10
183.6264
20
66.9238
0
VERTEX
8
CUT
10
183.6855
20
66.9270
0
VERTEX
8
CUT
10
183.8427
20
66.9392
0
VERTEX
8
CUT
10
183.9602
20
66.9542
0
VERTEX
8
CUT
10
184.1154
20
66.9818
0
VERTEX
8
CUT
10
184.1734
20
66.9936
0
VERTEX
8
CUT
10
187.5744
20
67.7741
0
VERTEX
8
CUT
10
187.6486
20
67.7936
0
VERTEX
8
CUT
10
187.8812
20
67.8629
0
VERTEX
8
CUT
10
187.9540
20
67.8871
0
VERTEX
8
CUT
10
193.1652
20
69.8096
0
VERTEX
8
CUT
10
193.2375
20
69.8390
0
VERTEX
8
CUT
10
193.4631
20
69.9393
0
VERTEX
8
CUT
10
193.5334
20
69.9734
0
VERTEX
8
CUT
10
199.3386
20
73.0218
0
VERTEX
8
CUT
10
199.3863
20
73.0482
0
VERTEX
8
CUT
10
199.5352
20
73.1353
0
VERTEX
8
CUT
10
199.5817
20
73.1639
0
VERTEX
8
CUT
10
209.2119
20
79.3965
0
VERTEX
8
CUT
10
209.2619
20
79.4307
0
VERTEX
8
CUT
10
209.3929
20
79.5252
0
VERTEX
8
CUT
10
209.4875
20
79.6010
0
VERTEX
8
CUT
10
209.5855
20
79.6880
0
VERTEX
8
CUT
10
209.6719
20
79.7729
0
VERTEX
8
CUT
10
209.7607
20
79.8693
0
VERTEX
8
CUT
10
209.8381
20
79.9625
0
VERTEX
8
CUT
10
209.9167
20
80.0675
0
VERTEX
8
CUT
10
209.9844
20
80.1680
0
VERTEX
8
CUT
10
210.0520
20
80.2803
0
VERTEX
8
CUT
10
210.1091
20
80.3871
0
VERTEX
8
CUT
10
210.1651
20
80.5057
0
VERTEX
8
CUT
10
210.2112
20
80.6177
0
VERTEX
8
CUT
10
210.2549
20
80.7413
0
VERTEX
8
CUT
10
210.2894
20
80.8574
0
VERTEX
8
CUT
10
210.3204
20
80.9848
0
VERTEX
8
CUT
10
210.3431
20
81.1038
0
VERTEX
8
CUT
10
210.3611
20
81.2336
0
VERTEX
8
CUT
10
210.3717
20
81.3543
0
VERTEX
8
CUT
10
210.3765
20
81.4853
0
VERTEX
8
CUT
10
210.3749
20
81.6065
0
VERTEX
8
CUT
10
210.3665
20
81.7373
0
VERTEX
8
CUT
10
210.3526
20
81.8577
0
VERTEX
8
CUT
10
210.3311
20
81.9870
0
VERTEX
8
CUT
10
210.3051
20
82.1053
0
VERTEX
8
CUT
10
210.2706
20
82.2318
0
VERTEX
8
CUT
10
210.2329
20
82.3469
0
VERTEX
8
CUT
10
210.1859
20
82.4693
0
VERTEX
8
CUT
10
210.1367
20
82.5800
0
VERTEX
8
CUT
10
210.0776
20
82.6970
0
VERTEX
8
CUT
10
210.0175
20
82.8022
0
VERTEX
8
CUT
10
209.9305
20
82.9382
0
VERTEX
8
CUT
10
209.8966
20
82.9884
0
VERTEX
8
CUT
10
208.7499
20
84.5957
0
VERTEX
8
CUT
10
208.7260
20
84.6301
0
VERTEX
8
CUT
10
208.7168
20
84.6436
0
VERTEX
8
CUT
10
208.6950
20
84.6765
0
VERTEX
8
CUT
10
208.6519
20
84.7469
0
VERTEX
8
CUT
10
208.6490
20
84.7518
0
VERTEX
8
CUT
10
208.5717
20
84.9004
0
VERTEX
8
CUT
10
208.5693
20
84.9055
0
VERTEX
8
CUT
10
208.5364
20
84.9812
0
VERTEX
8
CUT
10
208.5219
20
85.0180
0
VERTEX
8
CUT
10
208.5161
20
85.0332
0
VERTEX
8
CUT
10
208.5017
20
85.0725
0
VERTEX
8
CUT
10
207.7747
20
87.1251
0
VERTEX
8
CUT
10
207.7583
20
87.1736
0
VERTEX
8
CUT
10
207.7522
20
87.1925
0
VERTEX
8
CUT
10
207.7381
20
87.2386
0
VERTEX
8
CUT
10
207.7126
20
87.3362
0
VERTEX
8
CUT
10
207.7111
20
87.3429
0
VERTEX
8
CUT
10
207.6765
20
87.5444
0
VERTEX
8
CUT
10
207.6758
20
87.5512
0
VERTEX
8
CUT
10
207.6672
20
87.6517
0
VERTEX
8
CUT
10
207.6652
20
87.6999
0
VERTEX
8
CUT
10
207.6647
20
87.7198
0
VERTEX
8
CUT
10
207.6640
20
87.7709
0
VERTEX
8
CUT
10
207.6651
20
89.1323
0
VERTEX
8
CUT
10
207.6656
20
89.1759
0
VERTEX
8
CUT
10
207.6660
20
89.1929
0
VERTEX
8
CUT
10
207.6676
20
89.2340
0
VERTEX
8
CUT
10
207.6739
20
89.3199
0
VERTEX
8
CUT
10
207.6745
20
89.3257
0
VERTEX
8
CUT
10
207.6999
20
89.4984
0
VERTEX
8
CUT
10
207.7011
20
89.5041
0
VERTEX
8
CUT
10
207.7198
20
89.5881
0
VERTEX
8
CUT
10
207.7302
20
89.6280
0
VERTEX
8
CUT
10
207.7346
20
89.6443
0
VERTEX
8
CUT
10
207.7467
20
89.6863
0
VERTEX
8
CUT
10
207.9122
20
90.2373
0
VERTEX
8
CUT
10
207.9273
20
90.2851
0
VERTEX
8
CUT
10
207.9334
20
90.3036
0
VERTEX
8
CUT
10
207.9489
20
90.3483
0
VERTEX
8
CUT
10
207.9852
20
90.4403
0
VERTEX
8
CUT
10
207.9878
20
90.4464
0
VERTEX
8
CUT
10
208.0766
20
90.6261
0
VERTEX
8
CUT
10
208.0799
20
90.6319
0
VERTEX
8
CUT
10
208.1310
20
90.7166
0
VERTEX
8
CUT
10
208.1571
20
90.7560
0
VERTEX
8
CUT
10
208.1681
20
90.7721
0
VERTEX
8
CUT
10
208.1969
20
90.8132
0
VERTEX
8
CUT
10
209.5440
20
92.6754
0
VERTEX
8
CUT
10
209.5717
20
92.7127
0
VERTEX
8
CUT
10
209.5827
20
92.7270
0
VERTEX
8
CUT
10
209.6097
20
92.7615
0
VERTEX
8
CUT
10
209.6690
20
92.8314
0
VERTEX
8
CUT
10
209.6732
20
92.8360
0
VERTEX
8
CUT
10
209.7957
20
92.9596
0
VERTEX
8
CUT
10
209.9303
20
93.0699
0
VERTEX
8
CUT
10
209.9354
20
93.0736
0
VERTEX
8
CUT
10
210.0105
20
93.1260
0
VERTEX
8
CUT
10
210.0474
20
93.1496
0
VERTEX
8
CUT
10
210.0628
20
93.1592
0
VERTEX
8
CUT
10
210.1025
20
93.1832
0
VERTEX
8
CUT
10
211.1933
20
93.8242
0
VERTEX
8
CUT
10
211.2287
20
93.8445
0
VERTEX
8
CUT
10
211.2425
20
93.8522
0
VERTEX
8
CUT
10
211.2764
20
93.8706
0
VERTEX
8
CUT
10
211.3483
20
93.9066
0
VERTEX
8
CUT
10
211.3533
20
93.9089
0
VERTEX
8
CUT
10
211.4944
20
93.9678
0
VERTEX
8
CUT
10
211.6303
20
94.0105
0
VERTEX
8
CUT
10
211.7696
20
94.0407
0
VERTEX
8
CUT
10
211.9213
20
94.0595
0
VERTEX
8
CUT
10
211.9267
20
94.0600
0
VERTEX
8
CUT
10
212.0071
20
94.0644
0
VERTEX
8
CUT
10
212.0456
20
94.0652
0
VERTEX
8
CUT
10
212.0614
20
94.0654
0
VERTEX
8
CUT
10
212.1022
20
94.0653
0
VERTEX
8
CUT
10
214.7642
20
94.0311
0
VERTEX
8
CUT
10
214.8104
20
94.0300
0
VERTEX
8
CUT
10
214.8283
20
94.0293
0
VERTEX
8
CUT
10
214.8718
20
94.0270
0
VERTEX
8
CUT
10
214.9625
20
94.0189
0
VERTEX
8
CUT
10
214.9687
20
94.0182
0
VERTEX
8
CUT
10
215.1392
20
93.9894
0
VERTEX
8
CUT
10
215.2946
20
93.9465
0
VERTEX
8
CUT
10
215.4557
20
93.8836
0
VERTEX
8
CUT
10
215.4614
20
93.8811
0
VERTEX
8
CUT
10
215.5434
20
93.8415
0
VERTEX
8
CUT
10
215.5819
20
93.8211
0
VERTEX
8
CUT
10
215.5976
20
93.8125
0
VERTEX
8
CUT
10
215.6379
20
93.7898
0
VERTEX
8
CUT
10
217.0709
20
92.9576
0
VERTEX
8
CUT
10
217.1123
20
92.9328
0
VERTEX
8
CUT
10
217.1282
20
92.9230
0
VERTEX
8
CUT
10
217.1666
20
92.8986
0
VERTEX
8
CUT
10
217.2447
20
92.8443
0
VERTEX
8
CUT
10
217.2748
20
92.8222
0
VERTEX
8
CUT
10
217.3499
20
92.7639
0
VERTEX
8
CUT
10
217.3847
20
92.7346
0
VERTEX
8
CUT
10
217.3989
20
92.7223
0
VERTEX
8
CUT
10
217.4349
20
92.6903
0
VERTEX
8
CUT
10
218.2476
20
91.9473
0
VERTEX
8
CUT
10
218.2797
20
91.9173
0
VERTEX
8
CUT
10
218.2920
20
91.9055
0
VERTEX
8
CUT
10
218.3233
20
91.8746
0
VERTEX
8
CUT
10
218.3577
20
91.8400
0
VERTEX
8
CUT
10
218.3883
20
91.8084
0
VERTEX
8
CUT
10
218.4000
20
91.7960
0
VERTEX
8
CUT
10
218.4298
20
91.7637
0
VERTEX
8
CUT
10
219.0728
20
91.0488
0
VERTEX
8
CUT
10
219.1002
20
91.0176
0
VERTEX
8
CUT
10
219.1107
20
91.0054
0
VERTEX
8
CUT
10
219.1358
20
90.9754
0
VERTEX
8
CUT
10
219.1862
20
90.9110
0
VERTEX
8
CUT
10
219.1895
20
90.9066
0
VERTEX
8
CUT
10
219.2823
20
90.7692
0
VERTEX
8
CUT
10
219.3006
20
90.7393
0
VERTEX
8
CUT
10
219.3332
20
90.6887
0
VERTEX
8
CUT
10
219.4235
20
90.5563
0
VERTEX
8
CUT
10
219.4962
20
90.4604
0
VERTEX
8
CUT
10
219.5799
20
90.3608
0
VERTEX
8
CUT
10
219.6618
20
90.2727
0
VERTEX
8
CUT
10
219.7550
20
90.1820
0
VERTEX
8
CUT
10
219.8453
20
90.1025
0
VERTEX
8
CUT
10
219.9471
20
90.0215
0
VERTEX
8
CUT
10
220.0449
20
89.9515
0
VERTEX
8
CUT
10
220.1544
20
89.8811
0
VERTEX
8
CUT
10
220.2587
20
89.8213
0
VERTEX
8
CUT
10
220.3746
20
89.7622
0
VERTEX
8
CUT
10
220.4844
20
89.7131
0
VERTEX
8
CUT
10
220.6057
20
89.6659
0
VERTEX
8
CUT
10
220.7198
20
89.6280
0
VERTEX
8
CUT
10
220.8452
20
89.5932
0
VERTEX
8
CUT
10
220.9625
20
89.5669
0
VERTEX
8
CUT
10
221.0908
20
89.5448
0
VERTEX
8
CUT
10
221.2101
20
89.5304
0
VERTEX
8
CUT
10
221.3400
20
89.5213
0
VERTEX
8
CUT
10
221.4602
20
89.5189
0
VERTEX
8
CUT
10
221.5903
20
89.5228
0
VERTEX
8
CUT
10
221.7101
20
89.5325
0
VERTEX
8
CUT
10
221.8391
20
89.5494
0
VERTEX
8
CUT
10
221.9574
20
89.5710
0
VERTEX
8
CUT
10
222.0841
20
89.6008
0
VERTEX
8
CUT
10
222.1997
20
89.6341
0
VERTEX
8
CUT
10
222.3227
20
89.6764
0
VERTEX
8
CUT
10
222.4344
20
89.7211
0
VERTEX
8
CUT
10
222.5526
20
89.7755
0
VERTEX
8
CUT
10
222.6592
20
89.8312
0
VERTEX
8
CUT
10
222.7714
20
89.8971
0
VERTEX
8
CUT
10
222.8718
20
89.9632
0
VERTEX
8
CUT
10
222.9769
20
90.0400
0
VERTEX
8
CUT
10
223.0702
20
90.1158
0
VERTEX
8
CUT
10
223.1670
20
90.2028
0
VERTEX
8
CUT
10
223.2523
20
90.2875
0
VERTEX
8
CUT
10
223.3602
20
90.4060
0
VERTEX
8
CUT
10
223.3995
20
90.4514
0
VERTEX
8
CUT
10
225.3502
20
92.8223
0
VERTEX
8
CUT
10
225.3919
20
92.8760
0
VERTEX
8
CUT
10
225.5188
20
93.0494
0
VERTEX
8
CUT
10
225.5574
20
93.1053
0
VERTEX
8
CUT
10
228.6316
20
97.8463
0
VERTEX
8
CUT
10
228.6547
20
97.8835
0
VERTEX
8
CUT
10
228.7259
20
98.0026
0
VERTEX
8
CUT
10
228.7477
20
98.0406
0
VERTEX
8
CUT
10
231.6700
20
103.3615
0
VERTEX
8
CUT
10
231.6956
20
103.4066
0
VERTEX
8
CUT
10
231.7058
20
103.4240
0
VERTEX
8
CUT
10
231.7327
20
103.4683
0
VERTEX
8
CUT
10
231.7632
20
103.5170
0
VERTEX
8
CUT
10
231.7914
20
103.5605
0
VERTEX
8
CUT
10
231.8025
20
103.5773
0
VERTEX
8
CUT
10
231.8320
20
103.6200
0
VERTEX
8
CUT
10
232.7692
20
104.9400
0
VERTEX
8
CUT
10
232.8016
20
104.9880
0
VERTEX
8
CUT
10
232.8848
20
105.1180
0
VERTEX
8
CUT
10
232.9425
20
105.2185
0
VERTEX
8
CUT
10
232.9995
20
105.3301
0
VERTEX
8
CUT
10
233.0472
20
105.4356
0
VERTEX
8
CUT
10
233.0932
20
105.5522
0
VERTEX
8
CUT
10
233.1305
20
105.6618
0
VERTEX
8
CUT
10
233.1651
20
105.7823
0
VERTEX
8
CUT
10
233.1916
20
105.8950
0
VERTEX
8
CUT
10
233.2144
20
106.0182
0
VERTEX
8
CUT
10
233.2300
20
106.1330
0
VERTEX
8
CUT
10
233.2408
20
106.2578
0
VERTEX
8
CUT
10
233.2452
20
106.3735
0
VERTEX
8
CUT
10
233.2439
20
106.4988
0
VERTEX
8
CUT
10
233.2372
20
106.6145
0
VERTEX
8
CUT
10
233.2238
20
106.7391
0
VERTEX
8
CUT
10
233.2060
20
106.8535
0
VERTEX
8
CUT
10
233.1807
20
106.9762
0
VERTEX
8
CUT
10
233.1519
20
107.0884
0
VERTEX
8
CUT
10
233.1149
20
107.2081
0
VERTEX
8
CUT
10
233.0754
20
107.3170
0
VERTEX
8
CUT
10
233.0270
20
107.4326
0
VERTEX
8
CUT
10
232.9772
20
107.5371
0
VERTEX
8
CUT
10
232.9179
20
107.6475
0
VERTEX
8
CUT
10
232.8583
20
107.7468
0
VERTEX
8
CUT
10
232.7886
20
107.8510
0
VERTEX
8
CUT
10
232.7197
20
107.9440
0
VERTEX
8
CUT
10
232.6403
20
108.0410
0
VERTEX
8
CUT
10
232.5627
20
108.1270
0
VERTEX
8
CUT
10
232.4744
20
108.2159
0
VERTEX
8
CUT
10
232.3889
20
108.2940
0
VERTEX
8
CUT
10
232.2924
20
108.3739
0
VERTEX
8
CUT
10
232.1997
20
108.4434
0
VERTEX
8
CUT
10
232.0960
20
108.5137
0
VERTEX
8
CUT
10
231.9971
20
108.5739
0
VERTEX
8
CUT
10
231.8870
20
108.6338
0
VERTEX
8
CUT
10
231.7828
20
108.6843
0
VERTEX
8
CUT
10
231.6674
20
108.7333
0
VERTEX
8
CUT
10
231.5588
20
108.7735
0
VERTEX
8
CUT
10
231.4393
20
108.8112
0
VERTEX
8
CUT
10
231.3273
20
108.8407
0
VERTEX
8
CUT
10
231.2047
20
108.8667
0
VERTEX
8
CUT
10
231.0904
20
108.8852
0
VERTEX
8
CUT
10
230.9659
20
108.8993
0
VERTEX
8
CUT
10
230.8503
20
108.9067
0
VERTEX
8
CUT
10
230.7250
20
108.9088
0
VERTEX
8
CUT
10
230.6093
20
108.9050
0
VERTEX
8
CUT
10
230.4844
20
108.8949
0
VERTEX
8
CUT
10
230.3695
20
108.8801
0
VERTEX
8
CUT
10
230.2462
20
108.8580
0
VERTEX
8
CUT
10
230.1333
20
108.8321
0
VERTEX
8
CUT
10
229.9847
20
108.7904
0
VERTEX
8
CUT
10
229.9294
20
108.7735
0
VERTEX
8
CUT
10
224.8783
20
107.0894
0
VERTEX
8
CUT
10
224.8423
20
107.0778
0
VERTEX
8
CUT
10
224.8283
20
107.0734
0
VERTEX
8
CUT
10
224.7921
20
107.0626
0
VERTEX
8
CUT
10
224.7517
20
107.0510
0
VERTEX
8
CUT
10
224.7153
20
107.0410
0
VERTEX
8
CUT
10
224.7011
20
107.0372
0
VERTEX
8
CUT
10
224.6645
20
107.0279
0
VERTEX
8
CUT
10
219.7305
20
105.8319
0
VERTEX
8
CUT
10
219.6818
20
105.8190
0
VERTEX
8
CUT
10
219.5285
20
105.7749
0
VERTEX
8
CUT
10
219.4804
20
105.7600
0
VERTEX
8
CUT
10
217.1436
20
104.9809
0
VERTEX
8
CUT
10
217.0847
20
104.9595
0
VERTEX
8
CUT
10
216.8999
20
104.8869
0
VERTEX
8
CUT
10
216.8421
20
104.8625
0
VERTEX
8
CUT
10
213.9966
20
103.5699
0
VERTEX
8
CUT
10
213.9191
20
103.5313
0
VERTEX
8
CUT
10
213.6785
20
103.4003
0
VERTEX
8
CUT
10
213.6040
20
103.3562
0
VERTEX
8
CUT
10
210.7639
20
101.5327
0
VERTEX
8
CUT
10
210.6967
20
101.4863
0
VERTEX
8
CUT
10
210.4892
20
101.3322
0
VERTEX
8
CUT
10
210.4254
20
101.2813
0
VERTEX
8
CUT
10
208.4576
20
99.6005
0
VERTEX
8
CUT
10
208.4112
20
99.5587
0
VERTEX
8
CUT
10
208.2680
20
99.4229
0
VERTEX
8
CUT
10
208.2239
20
99.3788
0
VERTEX
8
CUT
10
203.7315
20
94.6514
0
VERTEX
8
CUT
10
203.7051
20
94.6243
0
VERTEX
8
CUT
10
203.6948
20
94.6138
0
VERTEX
8
CUT
10
203.6679
20
94.5872
0
VERTEX
8
CUT
10
203.6377
20
94.5581
0
VERTEX
8
CUT
10
203.6103
20
94.5321
0
VERTEX
8
CUT
10
203.5995
20
94.5221
0
VERTEX
8
CUT
10
203.5715
20
94.4966
0
VERTEX
8
CUT
10
200.5284
20
91.7905
0
VERTEX
8
CUT
10
200.4884
20
91.7560
0
VERTEX
8
CUT
10
200.4727
20
91.7428
0
VERTEX
8
CUT
10
200.4316
20
91.7094
0
VERTEX
8
CUT
10
200.3856
20
91.6731
0
VERTEX
8
CUT
10
200.3436
20
91.6409
0
VERTEX
8
CUT
10
200.3271
20
91.6287
0
VERTEX
8
CUT
10
200.2842
20
91.5978
0
VERTEX
8
CUT
10
196.6710
20
89.0759
0
VERTEX
8
CUT
10
196.6166
20
89.0394
0
VERTEX
8
CUT
10
196.5952
20
89.0255
0
VERTEX
8
CUT
10
196.5394
20
88.9910
0
VERTEX
8
CUT
10
196.4769
20
88.9538
0
VERTEX
8
CUT
10
196.4199
20
88.9214
0
VERTEX
8
CUT
10
196.3976
20
88.9091
0
VERTEX
8
CUT
10
196.3395
20
88.8787
0
VERTEX
8
CUT
10
193.6974
20
87.5580
0
VERTEX
8
CUT
10
193.6600
20
87.5399
0
VERTEX
8
CUT
10
193.6454
20
87.5330
0
VERTEX
8
CUT
10
193.6096
20
87.5166
0
VERTEX
8
CUT
10
193.5339
20
87.4851
0
VERTEX
8
CUT
10
193.5038
20
87.4734
0
VERTEX
8
CUT
10
193.4266
20
87.4454
0
VERTEX
8
CUT
10
193.3893
20
87.4333
0
VERTEX
8
CUT
10
193.3738
20
87.4285
0
VERTEX
8
CUT
10
193.3340
20
87.4166
0
VERTEX
8
CUT
10
189.4911
20
86.3177
0
VERTEX
8
CUT
10
189.4395
20
86.3038
0
VERTEX
8
CUT
10
189.4194
20
86.2986
0
VERTEX
8
CUT
10
189.3674
20
86.2862
0
VERTEX
8
CUT
10
189.3095
20
86.2734
0
VERTEX
8
CUT
10
189.2571
20
86.2625
0
VERTEX
8
CUT
10
189.2367
20
86.2586
0
VERTEX
8
CUT
10
189.1841
20
86.2493
0
VERTEX
8
CUT
10
187.5568
20
85.9872
0
VERTEX
8
CUT
10
187.5209
20
85.9818
0
VERTEX
8
CUT
10
187.5069
20
85.9798
0
VERTEX
8
CUT
10
187.4729
20
85.9754
0
VERTEX
8
CUT
10
187.4016
20
85.9683
0
VERTEX
8
CUT
10
187.3735
20
85.9661
0
VERTEX
8
CUT
10
187.3019
20
85.9619
0
VERTEX
8
CUT
10
187.2676
20
85.9609
0
VERTEX
8
CUT
10
187.2535
20
85.9606
0
VERTEX
8
CUT
10
187.2171
20
85.9603
0
VERTEX
8
CUT
10
180.8258
20
85.9723
0
VERTEX
8
CUT
10
180.7796
20
85.9730
0
VERTEX
8
CUT
10
180.7617
20
85.9735
0
VERTEX
8
CUT
10
180.7182
20
85.9753
0
VERTEX
8
CUT
10
180.6275
20
85.9824
0
VERTEX
8
CUT
10
180.6213
20
85.9831
0
VERTEX
8
CUT
10
180.4390
20
86.0117
0
VERTEX
8
CUT
10
180.4330
20
86.0130
0
VERTEX
8
CUT
10
180.3444
20
86.0339
0
VERTEX
8
CUT
10
180.3025
20
86.0456
0
VERTEX
8
CUT
10
180.2853
20
86.0506
0
VERTEX
8
CUT
10
180.2411
20
86.0641
0
VERTEX
8
CUT
10
180.1267
20
86.1007
0
VERTEX
8
CUT
10
180.0744
20
86.1162
0
VERTEX
8
CUT
10
179.9342
20
86.1541
0
VERTEX
8
CUT
10
179.8277
20
86.1778
0
VERTEX
8
CUT
10
179.7115
20
86.1981
0
VERTEX
8
CUT
10
179.6034
20
86.2120
0
VERTEX
8
CUT
10
179.4587
20
86.2240
0
VERTEX
8
CUT
10
179.4043
20
86.2272
0
VERTEX
8
CUT
10
178.6174
20
86.2564
0
VERTEX
8
CUT
10
178.5760
20
86.2584
0
VERTEX
8
CUT
10
178.5599
20
86.2594
0
VERTEX
8
CUT
10
178.5209
20
86.2622
0
VERTEX
8
CUT
10
178.4396
20
86.2709
0
VERTEX
8
CUT
10
178.4341
20
86.2716
0
VERTEX
8
CUT
10
178.2812
20
86.2987
0
VERTEX
8
CUT
10
178.1314
20
86.3397
0
VERTEX
8
CUT
10
178.1166
20
86.3445
0
VERTEX
8
CUT
10
178.0842
20
86.3553
0
VERTEX
8
CUT
10
178.0618
20
86.3631
0
VERTEX
8
CUT
10
178.0310
20
86.3733
0
VERTEX
8
CUT
10
177.8658
20
86.4253
0
VERTEX
8
CUT
10
177.7399
20
86.4577
0
VERTEX
8
CUT
10
177.6020
20
86.4852
0
VERTEX
8
CUT
10
177.4735
20
86.5037
0
VERTEX
8
CUT
10
177.3011
20
86.5190
0
VERTEX
8
CUT
10
177.2362
20
86.5230
0
VERTEX
8
CUT
10
176.5950
20
86.5452
0
VERTEX
8
CUT
10
176.5536
20
86.5471
0
VERTEX
8
CUT
10
176.5376
20
86.5481
0
VERTEX
8
CUT
10
176.4986
20
86.5508
0
VERTEX
8
CUT
10
176.4175
20
86.5592
0
VERTEX
8
CUT
10
176.4119
20
86.5599
0
VERTEX
8
CUT
10
176.2592
20
86.5865
0
VERTEX
8
CUT
10
176.1096
20
86.6270
0
VERTEX
8
CUT
10
176.1043
20
86.6288
0
VERTEX
8
CUT
10
176.0261
20
86.6559
0
VERTEX
8
CUT
10
176.0037
20
86.6642
0
VERTEX
8
CUT
10
175.9622
20
86.6788
0
VERTEX
8
CUT
10
175.8435
20
86.7181
0
VERTEX
8
CUT
10
175.7377
20
86.7479
0
VERTEX
8
CUT
10
175.6048
20
86.7787
0
VERTEX
8
CUT
10
175.4857
20
86.8001
0
VERTEX
8
CUT
10
175.3259
20
86.8206
0
VERTEX
8
CUT
10
175.2657
20
86.8268
0
VERTEX
8
CUT
10
171.6218
20
87.1079
0
VERTEX
8
CUT
10
171.5648
20
87.1109
0
VERTEX
8
CUT
10
171.3841
20
87.1162
0
VERTEX
8
CUT
10
171.3269
20
87.1165
0
VERTEX
8
CUT
10
168.8150
20
87.0707
0
VERTEX
8
CUT
10
168.7507
20
87.0678
0
VERTEX
8
CUT
10
168.5795
20
87.0555
0
VERTEX
8
CUT
10
168.4517
20
87.0394
0
VERTEX
8
CUT
10
168.2829
20
87.0088
0
VERTEX
8
CUT
10
168.2198
20
86.9956
0
VERTEX
8
CUT
10
166.3547
20
86.5530
0
VERTEX
8
CUT
10
166.2864
20
86.5347
0
VERTEX
8
CUT
10
166.1059
20
86.4804
0
VERTEX
8
CUT
10
165.9731
20
86.4318
0
VERTEX
8
CUT
10
165.8003
20
86.3567
0
VERTEX
8
CUT
10
165.7364
20
86.3267
0
VERTEX
8
CUT
10
164.0413
20
85.4682
0
VERTEX
8
CUT
10
163.9779
20
85.4337
0
VERTEX
8
CUT
10
163.8118
20
85.3365
0
VERTEX
8
CUT
10
163.6917
20
85.2563
0
VERTEX
8
CUT
10
163.5386
20
85.1400
0
VERTEX
8
CUT
10
163.4824
20
85.0946
0
VERTEX
8
CUT
10
162.0747
20
83.8857
0
VERTEX
8
CUT
10
162.0353
20
83.8502
0
VERTEX
8
CUT
10
161.9322
20
83.7535
0
VERTEX
8
CUT
10
161.8581
20
83.6775
0
VERTEX
8
CUT
10
161.7817
20
83.5919
0
VERTEX
8
CUT
10
161.7147
20
83.5097
0
VERTEX
8
CUT
10
161.6461
20
83.4177
0
VERTEX
8
CUT
10
161.5866
20
83.3299
0
VERTEX
8
CUT
10
161.5125
20
83.2096
0
VERTEX
8
CUT
10
161.4857
20
83.1638
0
VERTEX
8
CUT
10
160.4398
20
81.2833
0
VERTEX
8
CUT
10
160.4139
20
81.2341
0
VERTEX
8
CUT
10
160.3479
20
81.1012
0
VERTEX
8
CUT
10
160.3030
20
80.9993
0
VERTEX
8
CUT
10
160.2596
20
80.8869
0
VERTEX
8
CUT
10
160.2244
20
80.7813
0
VERTEX
8
CUT
10
160.1840
20
80.6386
0
VERTEX
8
CUT
10
160.1701
20
80.5847
0
SEQEND
0
POLYLINE
8
CUT
66
1
70
1
10
0.0
20
0.0
30
0.0
0
VERTEX
8
CUT
10
191.6181
20
42.7496
0
VERTEX
8
CUT
10
191.5601
20
42.7539
0
VERTEX
8
CUT
10
191.4052
20
42.7615
0
VERTEX
8
CUT
10
191.2888
20
42.7616
0
VERTEX
8
CUT
10
191.1631
20
42.7556
0
VERTEX
8
CUT
10
191.0473
20
42.7444
0
VERTEX
8
CUT
10
190.9227
20
42.7263
0
VERTEX
8
CUT
10
190.8085
20
42.7039
0
VERTEX
8
CUT
10
190.6863
20
42.6738
0
VERTEX
8
CUT
10
190.5748
20
42.6405
0
VERTEX
8
CUT
10
190.4561
20
42.5986
0
VERTEX
8
CUT
10
190.3484
20
42.5547
0
VERTEX
8
CUT
10
190.2342
20
42.5016
0
VERTEX
8
CUT
10
190.1313
20
42.4474
0
VERTEX
8
CUT
10
190.0228
20
42.3835
0
VERTEX
8
CUT
10
189.9256
20
42.3196
0
VERTEX
8
CUT
10
189.8238
20
42.2454
0
VERTEX
8
CUT
10
189.7332
20
42.1725
0
VERTEX
8
CUT
10
189.6391
20
42.0888
0
VERTEX
8
CUT
10
189.5560
20
42.0074
0
VERTEX
8
CUT
10
189.4705
20
41.9150
0
VERTEX
8
CUT
10
189.3957
20
41.8259
0
VERTEX
8
CUT
10
189.3195
20
41.7257
0
VERTEX
8
CUT
10
189.2536
20
41.6298
0
VERTEX
8
CUT
10
189.1875
20
41.5227
0
VERTEX
8
CUT
10
189.1312
20
41.4209
0
VERTEX
8
CUT
10
189.0758
20
41.3078
0
VERTEX
8
CUT
10
189.0296
20
41.2010
0
VERTEX
8
CUT
10
188.9854
20
41.0832
0
VERTEX
8
CUT
10
188.9498
20
40.9724
0
VERTEX
8
CUT
10
188.9172
20
40.8508
0
VERTEX
8
CUT
10
188.8925
20
40.7371
0
VERTEX
8
CUT
10
188.8718
20
40.6129
0
VERTEX
8
CUT
10
188.8583
20
40.4974
0
VERTEX
8
CUT
10
188.8497
20
40.3718
0
VERTEX
8
CUT
10
188.8474
20
40.2555
0
VERTEX
8
CUT
10
188.8510
20
40.1296
0
VERTEX
8
CUT
10
188.8600
20
40.0136
0
VERTEX
8
CUT
10
188.8758
20
39.8887
0
VERTEX
8
CUT
10
188.8960
20
39.7741
0
VERTEX
8
CUT
10
188.9238
20
39.6514
0
VERTEX
8
CUT
10
188.9550
20
39.5393
0
VERTEX
8
CUT
10
188.9945
20
39.4198
0
VERTEX
8
CUT
10
189.0364
20
39.3112
0
VERTEX
8
CUT
10
189.0874
20
39.1961
0
VERTEX
8
CUT
10
189.1396
20
39.0921
0
VERTEX
8
CUT
10
189.2014
20
38.9825
0
VERTEX
8
CUT
10
189.2634
20
38.8840
0
VERTEX
8
CUT
10
189.3356
20
38.7809
0
VERTEX
8
CUT
10
189.4069
20
38.6889
0
VERTEX
8
CUT
10
189.4887
20
38.5933
0
VERTEX
8
CUT
10
189.5686
20
38.5086
0
VERTEX
8
CUT
10
189.6593
20
38.4213
0
VERTEX
8
CUT
10
189.7469
20
38.3448
0
VERTEX
8
CUT
10
189.8685
20
38.2487
0
VERTEX
8
CUT
10
189.9150
20
38.2137
0
VERTEX
8
CUT
10
196.7109
20
33.3552
0
VERTEX
8
CUT
10
196.7416
20
33.3340
0
VERTEX
8
CUT
10
196.8398
20
33.2683
0
VERTEX
8
CUT
10
196.8712
20
33.2480
0
VERTEX
8
CUT
10
199.0414
20
31.8921
0
VERTEX
8
CUT
10
199.0893
20
31.8637
0
VERTEX
8
CUT
10
199.2430
20
31.7773
0
VERTEX
8
CUT
10
199.2921
20
31.7511
0
VERTEX
8
CUT
10
203.6577
20
29.5575
0
VERTEX
8
CUT
10
203.7233
20
29.5270
0
VERTEX
8
CUT
10
203.9335
20
29.4367
0
VERTEX
8
CUT
10
204.0007
20
29.4103
0
VERTEX
8
CUT
10
206.8569
20
28.3834
0
VERTEX
8
CUT
10
206.9323
20
28.3590
0
VERTEX
8
CUT
10
207.1733
20
28.2900
0
VERTEX
8
CUT
10
207.2501
20
28.2707
0
VERTEX
8
CUT
10
209.4625
20
27.7920
0
VERTEX
8
CUT
10
209.5234
20
27.7805
0
VERTEX
8
CUT
10
209.6862
20
27.7540
0
VERTEX
8
CUT
10
209.8093
20
27.7404
0
VERTEX
8
CUT
10
209.9739
20
27.7308
0
VERTEX
8
CUT
10
210.0358
20
27.7288
0
VERTEX
8
CUT
10
212.1400
20
27.7148
0
VERTEX
8
CUT
10
212.1961
20
27.7158
0
VERTEX
8
CUT
10
212.3455
20
27.7218
0
VERTEX
8
CUT
10
212.4573
20
27.7315
0
VERTEX
8
CUT
10
212.5776
20
27.7477
0
VERTEX
8
CUT
10
212.6879
20
27.7678
0
VERTEX
8
CUT
10
212.8336
20
27.8015
0
VERTEX
8
CUT
10
212.8879
20
27.8154
0
VERTEX
8
CUT
10
213.2012
20
27.9034
0
VERTEX
8
CUT
10
213.2505
20
27.9165
0
VERTEX
8
CUT
10
213.2697
20
27.9213
0
VERTEX
8
CUT
10
213.3166
20
27.9324
0
VERTEX
8
CUT
10
213.4154
20
27.9512
0
VERTEX
8
CUT
10
213.4543
20
27.9576
0
VERTEX
8
CUT
10
213.5541
20
27.9708
0
VERTEX
8
CUT
10
213.6020
20
27.9751
0
VERTEX
8
CUT
10
213.6217
20
27.9766
0
VERTEX
8
CUT
10
213.6727
20
27.9797
0
VERTEX
8
CUT
10
214.2937
20
28.0090
0
VERTEX
8
CUT
10
214.3486
20
28.0128
0
VERTEX
8
CUT
10
214.4946
20
28.0264
0
VERTEX
8
CUT
10
214.6035
20
28.0417
0
VERTEX
8
CUT
10
214.7206
20
28.0635
0
VERTEX
8
CUT
10
214.8276
20
28.0886
0
VERTEX
8
CUT
10
214.9686
20
28.1286
0
VERTEX
8
CUT
10
215.0212
20
28.1448
0
VERTEX
8
CUT
10
216.1435
20
28.5195
0
VERTEX
8
CUT
10
216.2115
20
28.5445
0
VERTEX
8
CUT
10
216.3906
20
28.6165
0
VERTEX
8
CUT
10
216.5214
20
28.6786
0
VERTEX
8
CUT
10
216.6904
20
28.7716
0
VERTEX
8
CUT
10
216.7527
20
28.8084
0
VERTEX
8
CUT
10
217.6739
20
29.3907
0
VERTEX
8
CUT
10
217.7292
20
29.4278
0
VERTEX
8
CUT
10
217.8737
20
29.5307
0
VERTEX
8
CUT
10
217.9776
20
29.6139
0
VERTEX
8
CUT
10
218.1097
20
29.7322
0
VERTEX
8
CUT
10
218.1581
20
29.7779
0
VERTEX
8
CUT
10
219.9133
20
31.5339
0
VERTEX
8
CUT
10
219.9584
20
31.5816
0
VERTEX
8
CUT
10
220.0752
20
31.7119
0
VERTEX
8
CUT
10
220.1573
20
31.8144
0
VERTEX
8
CUT
10
220.2590
20
31.9566
0
VERTEX
8
CUT
10
220.2957
20
32.0110
0
VERTEX
8
CUT
10
220.9446
20
33.0316
0
VERTEX
8
CUT
10
220.9704
20
33.0742
0
VERTEX
8
CUT
10
221.0370
20
33.1891
0
VERTEX
8
CUT
10
221.0833
20
33.2774
0
VERTEX
8
CUT
10
221.1400
20
33.3974
0
VERTEX
8
CUT
10
221.1604
20
33.4428
0
VERTEX
8
CUT
10
221.3531
20
33.8984
0
VERTEX
8
CUT
10
221.3743
20
33.9520
0
VERTEX
8
CUT
10
221.4273
20
34.0963
0
VERTEX
8
CUT
10
221.4618
20
34.2064
0
VERTEX
8
CUT
10
221.4934
20
34.3272
0
VERTEX
8
CUT
10
221.5172
20
34.4400
0
VERTEX
8
CUT
10
221.5371
20
34.5633
0
VERTEX
8
CUT
10
221.5499
20
34.6779
0
VERTEX
8
CUT
10
221.5579
20
34.8025
0
VERTEX
8
CUT
10
221.5597
20
34.9178
0
VERTEX
8
CUT
10
221.5556
20
35.0426
0
VERTEX
8
CUT
10
221.5463
20
35.1575
0
VERTEX
8
CUT
10
221.5303
20
35.2813
0
VERTEX
8
CUT
10
221.5100
20
35.3949
0
VERTEX
8
CUT
10
221.4822
20
35.5165
0
VERTEX
8
CUT
10
221.4511
20
35.6276
0
VERTEX
8
CUT
10
221.4117
20
35.7461
0
VERTEX
8
CUT
10
221.3701
20
35.8536
0
VERTEX
8
CUT
10
221.3195
20
35.9678
0
VERTEX
8
CUT
10
221.2678
20
36.0708
0
VERTEX
8
CUT
10
221.2065
20
36.1796
0
VERTEX
8
CUT
10
221.1451
20
36.2772
0
VERTEX
8
CUT
10
221.0736
20
36.3796
0
VERTEX
8
CUT
10
221.0031
20
36.4709
0
VERTEX
8
CUT
10
220.9222
20
36.5659
0
VERTEX
8
CUT
10
220.8432
20
36.6500
0
VERTEX
8
CUT
10
220.7535
20
36.7368
0
VERTEX
8
CUT
10
220.6669
20
36.8129
0
VERTEX
8
CUT
10
220.5467
20
36.9087
0
VERTEX
8
CUT
10
220.5008
20
36.9435
0
VERTEX
8
CUT
10
220.4551
20
36.9765
0
VERTEX
8
CUT
10
220.3917
20
37.0244
0
VERTEX
8
CUT
10
220.3621
20
37.0484
0
VERTEX
8
CUT
10
220.3500
20
37.0584
0
VERTEX
8
CUT
10
220.3193
20
37.0844
0
VERTEX
8
CUT
10
217.3498
20
39.6596
0
VERTEX
8
CUT
10
217.2967
20
39.7030
0
VERTEX
8
CUT
10
217.1522
20
39.8146
0
VERTEX
8
CUT
10
217.0390
20
39.8920
0
VERTEX
8
CUT
10
216.9121
20
39.9686
0
VERTEX
8
CUT
10
216.7909
20
40.0326
0
VERTEX
8
CUT
10
216.6249
20
40.1085
0
VERTEX
8
CUT
10
216.5618
20
40.1352
0
VERTEX
8
CUT
10
216.3772
20
40.2071
0
VERTEX
8
CUT
10
216.3364
20
40.2236
0
VERTEX
8
CUT
10
216.3206
20
40.2302
0
VERTEX
8
CUT
10
216.2826
20
40.2467
0
VERTEX
8
CUT
10
216.2043
20
40.2840
0
VERTEX
8
CUT
10
216.1991
20
40.2866
0
VERTEX
8
CUT
10
216.0560
20
40.3682
0
VERTEX
8
CUT
10
215.9307
20
40.4569
0
VERTEX
8
CUT
10
215.8062
20
40.5647
0
VERTEX
8
CUT
10
215.7977
20
40.5728
0
VERTEX
8
CUT
10
215.7601
20
40.6098
0
VERTEX
8
CUT
10
215.7415
20
40.6286
0
VERTEX
8
CUT
10
215.7178
20
40.6520
0
VERTEX
8
CUT
10
215.6123
20
40.7531
0
VERTEX
8
CUT
10
215.5268
20
40.8277
0
VERTEX
8
CUT
10
215.4306
20
40.9038
0
VERTEX
8
CUT
10
215.3385
20
40.9699
0
VERTEX
8
CUT
10
215.2355
20
41.0366
0
VERTEX
8
CUT
10
215.1376
20
41.0937
0
VERTEX
8
CUT
10
215.0288
20
41.1504
0
VERTEX
8
CUT
10
214.9259
20
41.1980
0
VERTEX
8
CUT
10
214.8122
20
41.2442
0
VERTEX
8
CUT
10
214.7053
20
41.2819
0
VERTEX
8
CUT
10
214.5878
20
41.3172
0
VERTEX
8
CUT
10
214.4778
20
41.3446
0
VERTEX
8
CUT
10
214.3575
20
41.3686
0
VERTEX
8
CUT
10
214.2454
20
41.3856
0
VERTEX
8
CUT
10
214.1233
20
41.3981
0
VERTEX
8
CUT
10
214.0101
20
41.4044
0
VERTEX
8
CUT
10
213.8874
20
41.4054
0
VERTEX
8
CUT
10
213.7742
20
41.4009
0
VERTEX
8
CUT
10
213.6519
20
41.3903
0
VERTEX
8
CUT
10
213.5396
20
41.3752
0
VERTEX
8
CUT
10
213.4189
20
41.3531
0
VERTEX
8
CUT
10
213.3084
20
41.3275
0
VERTEX
8
CUT
10
213.2737
20
41.3177
0
VERTEX
8
CUT
10
213.2259
20
41.3054
0
VERTEX
8
CUT
10
213.1981
20
41.2979
0
VERTEX
8
CUT
10
213.1215
20
41.2764
0
VERTEX
8
CUT
10
212.9519
20
41.2374
0
VERTEX
8
CUT
10
212.9461
20
41.2364
0
VERTEX
8
CUT
10
212.8613
20
41.2232
0
VERTEX
8
CUT
10
212.8205
20
41.2184
0
VERTEX
8
CUT
10
212.8037
20
41.2167
0
VERTEX
8
CUT
10
212.7604
20
41.2126
0
VERTEX
8
CUT
10
212.5935
20
41.1991
0
VERTEX
8
CUT
10
212.5504
20
41.1961
0
VERTEX
8
CUT
10
212.5336
20
41.1952
0
VERTEX
8
CUT
10
212.4929
20
41.1933
0
VERTEX
8
CUT
10
212.4077
20
41.1926
0
VERTEX
8
CUT
10
212.4019
20
41.1927
0
VERTEX
8
CUT
10
212.2295
20
41.2036
0
VERTEX
8
CUT
10
212.2238
20
41.2042
0
VERTEX
8
CUT
10
212.1394
20
41.2157
0
VERTEX
8
CUT
10
212.0992
20
41.2226
0
VERTEX
8
CUT
10
212.0827
20
41.2257
0
VERTEX
8
CUT
10
212.0403
20
41.2341
0
VERTEX
8
CUT
10
210.7318
20
41.5091
0
VERTEX
8
CUT
10
210.6734
20
41.5199
0
VERTEX
8
CUT
10
210.5170
20
41.5448
0
VERTEX
8
CUT
10
210.3989
20
41.5576
0
VERTEX
8
CUT
10
210.2705
20
41.5651
0
VERTEX
8
CUT
10
210.1518
20
41.5662
0
VERTEX
8
CUT
10
210.0233
20
41.5610
0
VERTEX
8
CUT
10
209.9050
20
41.5503
0
VERTEX
8
CUT
10
209.7777
20
41.5324
0
VERTEX
8
CUT
10
209.6610
20
41.5101
0
VERTEX
8
CUT
10
209.5361
20
41.4797
0
VERTEX
8
CUT
10
209.4222
20
41.4460
0
VERTEX
8
CUT
10
209.3009
20
41.4034
0
VERTEX
8
CUT
10
209.1909
20
41.3586
0
VERTEX
8
CUT
10
209.0744
20
41.3042
0
VERTEX
8
CUT
10
208.9694
20
41.2487
0
VERTEX
8
CUT
10
208.8333
20
41.1680
0
VERTEX
8
CUT
10
208.7830
20
41.1364
0
VERTEX
8
CUT
10
208.3885
20
40.8751
0
VERTEX
8
CUT
10
208.3377
20
40.8395
0
VERTEX
8
CUT
10
208.2048
20
40.7412
0
VERTEX
8
CUT
10
208.1091
20
40.6624
0
VERTEX
8
CUT
10
208.0100
20
40.5719
0
VERTEX
8
CUT
10
207.9229
20
40.4837
0
VERTEX
8
CUT
10
207.8337
20
40.3835
0
VERTEX
8
CUT
10
207.7562
20
40.2867
0
VERTEX
8
CUT
10
207.6778
20
40.1778
0
VERTEX
8
CUT
10
207.6107
20
40.0736
0
VERTEX
8
CUT
10
207.5285
20
39.9303
0
VERTEX
8
CUT
10
207.4991
20
39.8757
0
VERTEX
8
CUT
10
207.4715
20
39.8213
0
VERTEX
8
CUT
10
207.3893
20
39.6770
0
VERTEX
8
CUT
10
207.2998
20
39.5508
0
VERTEX
8
CUT
10
207.1983
20
39.4339
0
VERTEX
8
CUT
10
207.0858
20
39.3276
0
VERTEX
8
CUT
10
206.9634
20
39.2329
0
VERTEX
8
CUT
10
206.8323
20
39.1507
0
VERTEX
8
CUT
10
206.6937
20
39.0817
0
VERTEX
8
CUT
10
206.5490
20
39.0268
0
VERTEX
8
CUT
10
206.3996
20
38.9863
0
VERTEX
8
CUT
10
206.2469
20
38.9608
0
VERTEX
8
CUT
10
206.0925
20
38.9504
0
VERTEX
8
CUT
10
205.9378
20
38.9552
0
VERTEX
8
CUT
10
205.7732
20
38.9767
0
VERTEX
8
CUT
10
205.7673
20
38.9777
0
VERTEX
8
CUT
10
205.6817
20
38.9954
0
VERTEX
8
CUT
10
205.6411
20
39.0054
0
VERTEX
8
CUT
10
205.6244
20
39.0097
0
VERTEX
8
CUT
10
205.5816
20
39.0213
0
VERTEX
8
CUT
10
203.5319
20
39.6053
0
VERTEX
8
CUT
10
203.4672
20
39.6218
0
VERTEX
8
CUT
10
203.2935
20
39.6610
0
VERTEX
8
CUT
10
203.1617
20
39.6831
0
VERTEX
8
CUT
10
202.9849
20
39.7027
0
VERTEX
8
CUT
10
202.9183
20
39.7082
0
VERTEX
8
CUT
10
202.5003
20
39.7311
0
VERTEX
8
CUT
10
202.4579
20
39.7339
0
VERTEX
8
CUT
10
202.4415
20
39.7352
0
VERTEX
8
CUT
10
202.4015
20
39.7388
0
VERTEX
8
CUT
10
202.3184
20
39.7493
0
VERTEX
8
CUT
10
202.2859
20
39.7542
0
VERTEX
8
CUT
10
202.2034
20
39.7686
0
VERTEX
8
CUT
10
202.1642
20
39.7769
0
VERTEX
8
CUT
10
202.1481
20
39.7805
0
VERTEX
8
CUT
10
202.1067
20
39.7903
0
VERTEX
8
CUT
10
199.9784
20
40.3192
0
VERTEX
8
CUT
10
199.9388
20
40.3296
0
VERTEX
8
CUT
10
199.9234
20
40.3338
0
VERTEX
8
CUT
10
199.8841
20
40.3450
0
VERTEX
8
CUT
10
199.8405
20
40.3579
0
VERTEX
8
CUT
10
199.8014
20
40.3701
0
VERTEX
8
CUT
10
199.7863
20
40.3749
0
VERTEX
8
CUT
10
199.7475
20
40.3879
0
VERTEX
8
CUT
10
199.0450
20
40.6321
0
VERTEX
8
CUT
10
198.9953
20
40.6503
0
VERTEX
8
CUT
10
198.9760
20
40.6576
0
VERTEX
8
CUT
10
198.9296
20
40.6761
0
VERTEX
8
CUT
10
198.8344
20
40.7189
0
VERTEX
8
CUT
10
198.7976
20
40.7368
0
VERTEX
8
CUT
10
198.7050
20
40.7852
0
VERTEX
8
CUT
10
198.6618
20
40.8103
0
VERTEX
8
CUT
10
198.6442
20
40.8209
0
VERTEX
8
CUT
10
198.5992
20
40.8488
0
VERTEX
8
CUT
10
198.1853
20
41.1141
0
VERTEX
8
CUT
10
198.1381
20
41.1429
0
VERTEX
8
CUT
10
198.0106
20
41.2166
0
VERTEX
8
CUT
10
197.9125
20
41.2674
0
VERTEX
8
CUT
10
197.8039
20
41.3174
0
VERTEX
8
CUT
10
197.7015
20
41.3590
0
VERTEX
8
CUT
10
197.5888
20
41.3989
0
VERTEX
8
CUT
10
197.4830
20
41.4309
0
VERTEX
8
CUT
10
197.3671
20
41.4602
0
VERTEX
8
CUT
10
197.2588
20
41.4823
0
VERTEX
8
CUT
10
197.1134
20
41.5051
0
VERTEX
8
CUT
10
197.0586
20
41.5124
0
VERTEX
8
CUT
10
194.6821
20
41.7738
0
VERTEX
8
CUT
10
194.6425
20
41.7786
0
VERTEX
8
CUT
10
194.6272
20
41.7806
0
VERTEX
8
CUT
10
194.5899
20
41.7860
0
VERTEX
8
CUT
10
194.5126
20
41.7998
0
VERTEX
8
CUT
10
194.5073
20
41.8008
0
VERTEX
8
CUT
10
194.3624
20
41.8366
0
VERTEX
8
CUT
10
194.2307
20
41.8819
0
VERTEX
8
CUT
10
194.0944
20
41.9427
0
VERTEX
8
CUT
10
194.0896
20
41.9451
0
VERTEX
8
CUT
10
194.0201
20
41.9818
0
VERTEX
8
CUT
10
193.9874
20
42.0005
0
VERTEX
8
CUT
10
193.9741
20
42.0083
0
VERTEX
8
CUT
10
193.9399
20
42.0289
0
VERTEX
8
CUT
10
193.5042
20
42.2974
0
VERTEX
8
CUT
10
193.4572
20
42.3250
0
VERTEX
8
CUT
10
193.3300
20
42.3956
0
VERTEX
8
CUT
10
193.2323
20
42.4442
0
VERTEX
8
CUT
10
193.1243
20
42.4919
0
VERTEX
8
CUT
10
193.0226
20
42.5314
0
VERTEX
8
CUT
10
192.9107
20
42.5691
0
VERTEX
8
CUT
10
192.8059
20
42.5992
0
VERTEX
8
CUT
10
192.6910
20
42.6266
0
VERTEX
8
CUT
10
192.5839
20
42.6471
0
VERTEX
8
CUT
10
192.4400
20
42.6678
0
VERTEX
8
CUT
10
192.3858
20
42.6744
0
SEQEND
0
POLYLINE
8
CUT
66
1
70
1
10
0.0
20
0.0
30
0.0
0
VERTEX
8
CUT
10
127.9919
20
136.0708
0
VERTEX
8
CUT
10
127.9448
20
136.1048
0
VERTEX
8
CUT
10
127.8171
20
136.1922
0
VERTEX
8
CUT
10
127.7182
20
136.2531
0
VERTEX
8
CUT
10
127.6082
20
136.3138
0
VERTEX
8
CUT
10
127.5039
20
136.3648
0
VERTEX
8
CUT
10
127.3885
20
136.4145
0
VERTEX
8
CUT
10
127.2798
20
136.4553
0
VERTEX
8
CUT
10
127.1601
20
136.4936
0
VERTEX
8
CUT
10
127.0480
20
136.5236
0
VERTEX
8
CUT
10
126.9252
20
136.5502
0
VERTEX
8
CUT
10
126.8106
20
136.5693
0
VERTEX
8
CUT
10
126.6858
20
136.5839
0
VERTEX
8
CUT
10
126.5700
20
136.5918
0
VERTEX
8
CUT
10
126.4444
20
136.5942
0
VERTEX
8
CUT
10
126.3283
20
136.5909
0
VERTEX
8
CUT
10
126.2030
20
136.5812
0
VERTEX
8
CUT
10
126.0879
20
136.5667
0
VERTEX
8
CUT
10
125.9641
20
136.5449
0
VERTEX
8
CUT
10
125.8509
20
136.5193
0
VERTEX
8
CUT
10
125.7298
20
136.4857
0
VERTEX
8
CUT
10
125.6195
20
136.4493
0
VERTEX
8
CUT
10
125.5023
20
136.4042
0
VERTEX
8
CUT
10
125.3961
20
136.3572
0
VERTEX
8
CUT
10
125.2837
20
136.3010
0
VERTEX
8
CUT
10
125.1826
20
136.2440
0
VERTEX
8
CUT
10
125.0762
20
136.1772
0
VERTEX
8
CUT
10
124.9810
20
136.1107
0
VERTEX
8
CUT
10
124.8815
20
136.0339
0
VERTEX
8
CUT
10
124.7932
20
135.9585
0
VERTEX
8
CUT
10
124.7017
20
135.8724
0
VERTEX
8
CUT
10
124.6211
20
135.7889
0
VERTEX
8
CUT
10
124.5383
20
135.6944
0
VERTEX
8
CUT
10
124.4661
20
135.6034
0
VERTEX
8
CUT
10
124.3928
20
135.5014
0
VERTEX
8
CUT
10
124.3298
20
135.4039
0
VERTEX
8
CUT
10
124.2667
20
135.2952
0
VERTEX
8
CUT
10
124.2134
20
135.1921
0
VERTEX
8
CUT
10
124.1611
20
135.0778
0
VERTEX
8
CUT
10
124.1180
20
134.9700
0
VERTEX
8
CUT
10
124.0770
20
134.8512
0
VERTEX
8
CUT
10
124.0445
20
134.7397
0
VERTEX
8
CUT
10
124.0152
20
134.6176
0
VERTEX
8
CUT
10
123.9936
20
134.5035
0
VERTEX
8
CUT
10
123.9763
20
134.3790
0
VERTEX
8
CUT
10
123.9658
20
134.2634
0
VERTEX
8
CUT
10
123.9606
20
134.1379
0
VERTEX
8
CUT
10
123.9614
20
134.0218
0
VERTEX
8
CUT
10
123.9683
20
133.8963
0
VERTEX
8
CUT
10
123.9803
20
133.7808
0
VERTEX
8
CUT
10
123.9993
20
133.6566
0
VERTEX
8
CUT
10
124.0224
20
133.5428
0
VERTEX
8
CUT
10
124.0533
20
133.4210
0
VERTEX
8
CUT
10
124.0873
20
133.3100
0
VERTEX
8
CUT
10
124.1298
20
133.1918
0
VERTEX
8
CUT
10
124.1744
20
133.0846
0
VERTEX
8
CUT
10
124.2281
20
132.9710
0
VERTEX
8
CUT
10
124.2828
20
132.8686
0
VERTEX
8
CUT
10
124.3473
20
132.7608
0
VERTEX
8
CUT
10
124.4117
20
132.6641
0
VERTEX
8
CUT
10
124.4863
20
132.5630
0
VERTEX
8
CUT
10
124.5597
20
132.4731
0
VERTEX
8
CUT
10
124.6631
20
132.3581
0
VERTEX
8
CUT
10
124.7030
20
132.3159
0
VERTEX
8
CUT
10
124.9704
20
132.0461
0
VERTEX
8
CUT
10
125.0262
20
131.9933
0
VERTEX
8
CUT
10
125.2081
20
131.8319
0
VERTEX
8
CUT
10
125.2672
20
131.7827
0
VERTEX
8
CUT
10
127.5897
20
129.9738
0
VERTEX
8
CUT
10
127.6377
20
129.9383
0
VERTEX
8
CUT
10
127.7924
20
129.8297
0
VERTEX
8
CUT
10
127.8421
20
129.7966
0
VERTEX
8
CUT
10
129.9914
20
128.4427
0
VERTEX
8
CUT
10
130.0409
20
128.4131
0
VERTEX
8
CUT
10
130.2001
20
128.3233
0
VERTEX
8
CUT
10
130.2510
20
128.2961
0
VERTEX
8
CUT
10
134.0730
20
126.3742
0
VERTEX
8
CUT
10
134.1206
20
126.3515
0
VERTEX
8
CUT
10
134.2728
20
126.2832
0
VERTEX
8
CUT
10
134.3213
20
126.2627
0
VERTEX
8
CUT
10
138.4920
20
124.6061
0
VERTEX
8
CUT
10
138.5243
20
124.5938
0
VERTEX
8
CUT
10
138.6270
20
124.5564
0
VERTEX
8
CUT
10
138.6597
20
124.5450
0
VERTEX
8
CUT
10
141.7299
20
123.5258
0
VERTEX
8
CUT
10
141.7841
20
123.5092
0
VERTEX
8
CUT
10
141.9294
20
123.4685
0
VERTEX
8
CUT
10
142.0398
20
123.4431
0
VERTEX
8
CUT
10
142.1604
20
123.4213
0
VERTEX
8
CUT
10
142.2727
20
123.4064
0
VERTEX
8
CUT
10
142.4231
20
123.3937
0
VERTEX
8
CUT
10
142.4796
20
123.3903
0
VERTEX
8
CUT
10
143.3818
20
123.3566
0
VERTEX
8
CUT
10
143.4238
20
123.3546
0
VERTEX
8
CUT
10
143.4402
20
123.3536
0
VERTEX
8
CUT
10
143.4798
20
123.3507
0
VERTEX
8
CUT
10
143.5623
20
123.3418
0
VERTEX
8
CUT
10
143.5946
20
123.3376
0
VERTEX
8
CUT
10
143.6766
20
123.3248
0
VERTEX
8
CUT
10
143.7156
20
123.3173
0
VERTEX
8
CUT
10
143.7317
20
123.3141
0
VERTEX
8
CUT
10
143.7728
20
123.3052
0
VERTEX
8
CUT
10
145.7228
20
122.8602
0
VERTEX
8
CUT
10
145.8055
20
122.8443
0
VERTEX
8
CUT
10
146.0686
20
122.8034
0
VERTEX
8
CUT
10
146.1522
20
122.7934
0
VERTEX
8
CUT
10
149.7740
20
122.4884
0
VERTEX
8
CUT
10
149.8288
20
122.4829
0
VERTEX
8
CUT
10
149.8501
20
122.4804
0
VERTEX
8
CUT
10
149.9016
20
122.4737
0
VERTEX
8
CUT
10
150.0086
20
122.4547
0
VERTEX
8
CUT
10
150.0503
20
122.4459
0
VERTEX
8
CUT
10
150.1559
20
122.4204
0
VERTEX
8
CUT
10
150.2058
20
122.4059
0
VERTEX
8
CUT
10
150.2334
20
122.3974
0
VERTEX
8
CUT
10
150.2430
20
122.3944
0
VERTEX
8
CUT
10
150.2756
20
122.3842
0
VERTEX
8
CUT
10
150.3096
20
122.3741
0
VERTEX
8
CUT
10
150.4752
20
122.3275
0
VERTEX
8
CUT
10
150.6031
20
122.2989
0
VERTEX
8
CUT
10
150.7430
20
122.2756
0
VERTEX
8
CUT
10
150.8733
20
122.2611
0
VERTEX
8
CUT
10
151.0476
20
122.2514
0
VERTEX
8
CUT
10
151.1131
20
122.2495
0
VERTEX
8
CUT
10
163.0803
20
122.2345
0
VERTEX
8
CUT
10
163.1508
20
122.2364
0
VERTEX
8
CUT
10
163.3383
20
122.2472
0
VERTEX
8
CUT
10
163.4782
20
122.2636
0
VERTEX
8
CUT
10
163.6630
20
122.2963
0
VERTEX
8
CUT
10
163.7320
20
122.3106
0
VERTEX
8
CUT
10
164.0892
20
122.3956
0
VERTEX
8
CUT
10
164.1469
20
122.4108
0
VERTEX
8
CUT
10
164.2995
20
122.4553
0
VERTEX
8
CUT
10
164.4123
20
122.4943
0
VERTEX
8
CUT
10
164.5320
20
122.5425
0
VERTEX
8
CUT
10
164.6402
20
122.5925
0
VERTEX
8
CUT
10
164.7546
20
122.6524
0
VERTEX
8
CUT
10
164.8573
20
122.7129
0
VERTEX
8
CUT
10
164.9652
20
122.7838
0
VERTEX
8
CUT
10
165.0614
20
122.8542
0
VERTEX
8
CUT
10
165.1617
20
122.9355
0
VERTEX
8
CUT
10
165.2505
20
123.0151
0
VERTEX
8
CUT
10
165.3422
20
123.1059
0
VERTEX
8
CUT
10
165.4227
20
123.1939
0
VERTEX
8
CUT
10
165.5049
20
123.2934
0
VERTEX
8
CUT
10
165.5762
20
123.3890
0
VERTEX
8
CUT
10
165.6482
20
123.4961
0
VERTEX
8
CUT
10
165.7096
20
123.5983
0
VERTEX
8
CUT
10
165.7706
20
123.7120
0
VERTEX
8
CUT
10
165.8216
20
123.8198
0
VERTEX
8
CUT
10
165.8710
20
123.9391
0
VERTEX
8
CUT
10
165.9111
20
124.0514
0
VERTEX
8
CUT
10
165.9484
20
124.1749
0
VERTEX
8
CUT
10
165.9771
20
124.2907
0
VERTEX
8
CUT
10
166.0019
20
124.4173
0
VERTEX
8
CUT
10
166.0190
20
124.5354
0
VERTEX
8
CUT
10
166.0312
20
124.6638
0
VERTEX
8
CUT
10
166.0365
20
124.7830
0
VERTEX
8
CUT
10
166.0358
20
124.9120
0
VERTEX
8
CUT
10
166.0293
20
125.0311
0
VERTEX
8
CUT
10
166.0158
20
125.1595
0
VERTEX
8
CUT
10
165.9975
20
125.2773
0
VERTEX
8
CUT
10
165.9713
20
125.4037
0
VERTEX
8
CUT
10
165.9414
20
125.5191
0
VERTEX
8
CUT
10
165.9028
20
125.6423
0
VERTEX
8
CUT
10
165.8616
20
125.7542
0
VERTEX
8
CUT
10
165.8110
20
125.8729
0
VERTEX
8
CUT
10
165.7588
20
125.9802
0
VERTEX
8
CUT
10
165.6967
20
126.0933
0
VERTEX
8
CUT
10
165.6341
20
126.1948
0
VERTEX
8
CUT
10
165.5611
20
126.3012
0
VERTEX
8
CUT
10
165.4888
20
126.3960
0
VERTEX
8
CUT
10
165.4055
20
126.4946
0
VERTEX
8
CUT
10
165.3241
20
126.5818
0
VERTEX
8
CUT
10
165.2315
20
126.6717
0
VERTEX
8
CUT
10
165.1419
20
126.7504
0
VERTEX
8
CUT
10
165.0408
20
126.8306
0
VERTEX
8
CUT
10
164.9438
20
126.9000
0
VERTEX
8
CUT
10
164.8101
20
126.9859
0
VERTEX
8
CUT
10
164.7592
20
127.0169
0
VERTEX
8
CUT
10
163.9555
20
127.4788
0
VERTEX
8
CUT
10
163.8994
20
127.5124
0
VERTEX
8
CUT
10
163.8779
20
127.5259
0
VERTEX
8
CUT
10
163.8230
20
127.5615
0
VERTEX
8
CUT
10
163.7630
20
127.6021
0
VERTEX
8
CUT
10
163.7095
20
127.6397
0
VERTEX
8
CUT
10
163.6890
20
127.6547
0
VERTEX
8
CUT
10
163.6368
20
127.6942
0
VERTEX
8
CUT
10
162.3569
20
128.7020
0
VERTEX
8
CUT
10
162.3224
20
128.7299
0
VERTEX
8
CUT
10
162.3091
20
128.7409
0
VERTEX
8
CUT
10
162.2772
20
128.7680
0
VERTEX
8
CUT
10
162.2126
20
128.8271
0
VERTEX
8
CUT
10
162.2083
20
128.8312
0
VERTEX
8
CUT
10
162.0866
20
128.9604
0
VERTEX
8
CUT
10
162.0827
20
128.9649
0
VERTEX
8
CUT
10
162.0275
20
129.0329
0
VERTEX
8
CUT
10
162.0024
20
129.0664
0
VERTEX
8
CUT
10
161.9922
20
129.0803
0
VERTEX
8
CUT
10
161.9664
20
129.1164
0
VERTEX
8
CUT
10
160.7674
20
130.8400
0
VERTEX
8
CUT
10
160.7423
20
130.8771
0
VERTEX
8
CUT
10
160.7327
20
130.8917
0
VERTEX
8
CUT
10
160.7098
20
130.9273
0
VERTEX
8
CUT
10
160.6648
20
131.0035
0
VERTEX
8
CUT
10
160.6619
20
131.0088
0
VERTEX
8
CUT
10
160.5825
20
131.1698
0
VERTEX
8
CUT
10
160.5802
20
131.1753
0
VERTEX
8
CUT
10
160.5471
20
131.2573
0
VERTEX
8
CUT
10
160.5327
20
131.2972
0
VERTEX
8
CUT
10
160.5270
20
131.3137
0
VERTEX
8
CUT
10
160.5128
20
131.3563
0
VERTEX
8
CUT
10
160.3523
20
131.8600
0
VERTEX
8
CUT
10
160.3408
20
131.8975
0
VERTEX
8
CUT
10
160.3365
20
131.9121
0
VERTEX
8
CUT
10
160.3264
20
131.9477
0
VERTEX
8
CUT
10
160.3078
20
132.0228
0
VERTEX
8
CUT
10
160.3066
20
132.0279
0
VERTEX
8
CUT
10
160.2789
20
132.1822
0
VERTEX
8
CUT
10
160.2782
20
132.1875
0
VERTEX
8
CUT
10
160.2695
20
132.2643
0
VERTEX
8
CUT
10
160.2666
20
132.3012
0
VERTEX
8
CUT
10
160.2655
20
132.3164
0
VERTEX
8
CUT
10
160.2633
20
132.3555
0
VERTEX
8
CUT
10
160.2333
20
132.9923
0
VERTEX
8
CUT
10
160.2298
20
133.0432
0
VERTEX
8
CUT
10
160.2176
20
133.1787
0
VERTEX
8
CUT
10
160.2041
20
133.2799
0
VERTEX
8
CUT
10
160.1849
20
133.3887
0
VERTEX
8
CUT
10
160.1629
20
133.4884
0
VERTEX
8
CUT
10
160.1280
20
133.6199
0
VERTEX
8
CUT
10
160.1138
20
133.6689
0
VERTEX
8
CUT
10
158.8257
20
137.7989
0
VERTEX
8
CUT
10
158.8102
20
137.8452
0
VERTEX
8
CUT
10
158.7664
20
137.9678
0
VERTEX
8
CUT
10
158.7298
20
138.0583
0
VERTEX
8
CUT
10
158.6763
20
138.1769
0
VERTEX
8
CUT
10
158.6553
20
138.2209
0
VERTEX
8
CUT
10
156.2214
20
143.0709
0
VERTEX
8
CUT
10
156.1920
20
143.1259
0
VERTEX
8
CUT
10
156.1099
20
143.2702
0
VERTEX
8
CUT
10
156.0428
20
143.3752
0
VERTEX
8
CUT
10
155.9462
20
143.5102
0
VERTEX
8
CUT
10
155.9087
20
143.5599
0
VERTEX
8
CUT
10
153.9518
20
146.0154
0
VERTEX
8
CUT
10
153.9074
20
146.0680
0
VERTEX
8
CUT
10
153.7621
20
146.2303
0
VERTEX
8
CUT
10
153.7147
20
146.2803
0
VERTEX
8
CUT
10
151.7439
20
148.2423
0
VERTEX
8
CUT
10
151.6948
20
148.2884
0
VERTEX
8
CUT
10
151.5357
20
148.4300
0
VERTEX
8
CUT
10
151.4841
20
148.4734
0
VERTEX
8
CUT
10
150.8442
20
148.9813
0
VERTEX
8
CUT
10
150.7967
20
149.0172
0
VERTEX
8
CUT
10
150.6677
20
149.1095
0
VERTEX
8
CUT
10
150.5676
20
149.1739
0
VERTEX
8
CUT
10
150.4559
20
149.2382
0
VERTEX
8
CUT
10
150.3500
20
149.2923
0
VERTEX
8
CUT
10
150.2325
20
149.3452
0
VERTEX
8
CUT
10
150.1217
20
149.3886
0
VERTEX
8
CUT
10
149.9996
20
149.4295
0
VERTEX
8
CUT
10
149.8850
20
149.4618
0
VERTEX
8
CUT
10
149.7594
20
149.4904
0
VERTEX
8
CUT
10
149.6422
20
149.5111
0
VERTEX
8
CUT
10
149.5144
20
149.5272
0
VERTEX
8
CUT
10
149.3957
20
149.5362
0
VERTEX
8
CUT
10
149.2670
20
149.5395
0
VERTEX
8
CUT
10
149.1480
20
149.5367
0
VERTEX
8
CUT
10
149.0195
20
149.5273
0
VERTEX
8
CUT
10
148.9014
20
149.5127
0
VERTEX
8
CUT
10
148.7745
20
149.4906
0
VERTEX
8
CUT
10
148.6584
20
149.4643
0
VERTEX
8
CUT
10
148.5343
20
149.4298
0
VERTEX
8
CUT
10
148.4214
20
149.3922
0
VERTEX
8
CUT
10
148.3014
20
149.3455
0
VERTEX
8
CUT
10
148.1927
20
149.2969
0
VERTEX
8
CUT
10
148.0779
20
149.2385
0
VERTEX
8
CUT
10
147.9746
20
149.1794
0
VERTEX
8
CUT
10
147.8661
20
149.1100
0
VERTEX
8
CUT
10
147.7692
20
149.0409
0
VERTEX
8
CUT
10
147.6681
20
148.9611
0
VERTEX
8
CUT
10
147.5785
20
148.8827
0
VERTEX
8
CUT
10
147.4859
20
148.7933
0
VERTEX
8
CUT
10
147.4044
20
148.7065
0
VERTEX
8
CUT
10
147.3211
20
148.6083
0
VERTEX
8
CUT
10
147.2487
20
148.5138
0
VERTEX
8
CUT
10
147.1755
20
148.4078
0
VERTEX
8
CUT
10
147.1128
20
148.3067
0
VERTEX
8
CUT
10
147.0504
20
148.1939
0
VERTEX
8
CUT
10
146.9981
20
148.0871
0
VERTEX
8
CUT
10
146.9472
20
147.9687
0
VERTEX
8
CUT
10
146.9057
20
147.8572
0
VERTEX
8
CUT
10
146.8668
20
147.7344
0
VERTEX
8
CUT
10
146.8365
20
147.6193
0
VERTEX
8
CUT
10
146.8054
20
147.4714
0
VERTEX
8
CUT
10
146.7737
20
147.3299
0
VERTEX
8
CUT
10
146.7241
20
147.1735
0
VERTEX
8
CUT
10
146.6624
20
147.0301
0
VERTEX
8
CUT
10
146.5868
20
146.8936
0
VERTEX
8
CUT
10
146.4980
20
146.7652
0
VERTEX
8
CUT
10
146.3969
20
146.6462
0
VERTEX
8
CUT
10
146.2844
20
146.5379
0
VERTEX
8
CUT
10
146.1618
20
146.4413
0
VERTEX
8
CUT
10
146.0302
20
146.3573
0
VERTEX
8
CUT
10
145.8809
20
146.2817
0
VERTEX
8
CUT
10
145.8754
20
146.2793
0
VERTEX
8
CUT
10
145.7940
20
146.2454
0
VERTEX
8
CUT
10
145.7545
20
146.2307
0
VERTEX
8
CUT
10
145.7381
20
146.2248
0
VERTEX
8
CUT
10
145.6958
20
146.2102
0
VERTEX
8
CUT
10
144.9388
20
145.9597
0
VERTEX
8
CUT
10
144.8578
20
145.9297
0
VERTEX
8
CUT
10
144.6054
20
145.8254
0
VERTEX
8
CUT
10
144.5269
20
145.7897
0
VERTEX
8
CUT
10
143.2481
20
145.1505
0
VERTEX
8
CUT
10
143.1948
20
145.1222
0
VERTEX
8
CUT
10
143.0548
20
145.0432
0
VERTEX
8
CUT
10
142.9528
20
144.9787
0
VERTEX
8
CUT
10
142.8215
20
144.8860
0
VERTEX
8
CUT
10
142.7731
20
144.8500
0
VERTEX
8
CUT
10
140.4494
20
143.0292
0
VERTEX
8
CUT
10
140.4056
20
142.9932
0
VERTEX
8
CUT
10
140.2911
20
142.8944
0
VERTEX
8
CUT
10
140.2088
20
142.8163
0
VERTEX
8
CUT
10
140.1238
20
142.7277
0
VERTEX
8
CUT
10
140.0493
20
142.6422
0
VERTEX
8
CUT
10
139.9555
20
142.5237
0
VERTEX
8
CUT
10
139.9214
20
142.4785
0
VERTEX
8
CUT
10
138.7470
20
140.8421
0
VERTEX
8
CUT
10
138.7202
20
140.8031
0
VERTEX
8
CUT
10
138.6506
20
140.6977
0
VERTEX
8
CUT
10
138.6016
20
140.6166
0
VERTEX
8
CUT
10
138.5406
20
140.5060
0
VERTEX
8
CUT
10
138.5186
20
140.4640
0
VERTEX
8
CUT
10
137.5660
20
138.5630
0
VERTEX
8
CUT
10
137.5404
20
138.5085
0
VERTEX
8
CUT
10
137.4757
20
138.3614
0
VERTEX
8
CUT
10
137.4328
20
138.2488
0
VERTEX
8
CUT
10
137.3832
20
138.0961
0
VERTEX
8
CUT
10
137.3661
20
138.0383
0
VERTEX
8
CUT
10
136.6382
20
135.3411
0
VERTEX
8
CUT
10
136.6234
20
135.2797
0
VERTEX
8
CUT
10
136.5881
20
135.1149
0
VERTEX
8
CUT
10
136.5682
20
134.9900
0
VERTEX
8
CUT
10
136.5504
20
134.8225
0
VERTEX
8
CUT
10
136.5455
20
134.7595
0
VERTEX
8
CUT
10
136.4976
20
133.8542
0
VERTEX
8
CUT
10
136.4947
20
133.8094
0
VERTEX
8
CUT
10
136.4934
20
133.7920
0
VERTEX
8
CUT
10
136.4895
20
133.7499
0
VERTEX
8
CUT
10
136.4783
20
133.6622
0
VERTEX
8
CUT
10
136.4774
20
133.6562
0
VERTEX
8
CUT
10
136.4436
20
133.4916
0
VERTEX
8
CUT
10
136.3970
20
133.3421
0
VERTEX
8
CUT
10
136.3358
20
133.1980
0
VERTEX
8
CUT
10
136.2605
20
133.0607
0
VERTEX
8
CUT
10
136.1719
20
132.9315
0
VERTEX
8
CUT
10
136.0710
20
132.8118
0
VERTEX
8
CUT
10
135.9585
20
132.7028
0
VERTEX
8
CUT
10
135.8358
20
132.6055
0
VERTEX
8
CUT
10
135.7041
20
132.5208
0
VERTEX
8
CUT
10
135.5645
20
132.4498
0
VERTEX
8
CUT
10
135.4186
20
132.3929
0
VERTEX
8
CUT
10
135.2677
20
132.3509
0
VERTEX
8
CUT
10
135.1134
20
132.3241
0
VERTEX
8
CUT
10
134.9572
20
132.3128
0
VERTEX
8
CUT
10
134.8007
20
132.3171
0
VERTEX
8
CUT
10
134.6341
20
132.3384
0
VERTEX
8
CUT
10
134.6281
20
132.3394
0
VERTEX
8
CUT
10
134.5415
20
132.3572
0
VERTEX
8
CUT
10
134.5004
20
132.3672
0
VERTEX
8
CUT
10
134.4835
20
132.3716
0
VERTEX
8
CUT
10
134.4402
20
132.3833
0
VERTEX
8
CUT
10
134.1879
20
132.4549
0
VERTEX
8
CUT
10
134.1412
20
132.4689
0
VERTEX
8
CUT
10
134.1232
20
132.4745
0
VERTEX
8
CUT
10
134.0796
20
132.4888
0
VERTEX
8
CUT
10
133.9897
20
132.5224
0
VERTEX
8
CUT
10
133.9547
20
132.5366
0
VERTEX
8
CUT
10
133.8668
20
132.5750
0
VERTEX
8
CUT
10
133.8255
20
132.5951
0
VERTEX
8
CUT
10
133.8086
20
132.6036
0
VERTEX
8
CUT
10
133.7654
20
132.6260
0
VERTEX
8
CUT
10
129.6861
20
134.8181
0
VERTEX
8
CUT
10
129.6554
20
134.8349
0
VERTEX
8
CUT
10
129.6435
20
134.8416
0
VERTEX
8
CUT
10
129.6149
20
134.8581
0
VERTEX
8
CUT
10
129.5560
20
134.8943
0
VERTEX
8
CUT
10
129.5331
20
134.9090
0
VERTEX
8
CUT
10
129.4757
20
134.9475
0
VERTEX
8
CUT
10
129.4488
20
134.9667
0
VERTEX
8
CUT
10
129.4378
20
134.9747
0
VERTEX
8
CUT
10
129.4097
20
134.9956
0
SEQEND
0
POLYLINE
8
CUT
66
1
70
1
10
0.0
20
0.0
30
0.0
0
VERTEX
8
CUT
10
139.2761
20
62.7054
0
VERTEX
8
CUT
10
139.2437
20
62.6550
0
VERTEX
8
CUT
10
139.1606
20
62.5186
0
VERTEX
8
CUT
10
139.1035
20
62.4132
0
VERTEX
8
CUT
10
139.0474
20
62.2962
0
VERTEX
8
CUT
10
139.0011
20
62.1857
0
VERTEX
8
CUT
10
138.9570
20
62.0638
0
VERTEX
8
CUT
10
138.9219
20
61.9492
0
VERTEX
8
CUT
10
138.8901
20
61.8235
0
VERTEX
8
CUT
10
138.8666
20
61.7059
0
VERTEX
8
CUT
10
138.8476
20
61.5777
0
VERTEX
8
CUT
10
138.8360
20
61.4584
0
VERTEX
8
CUT
10
138.8298
20
61.3289
0
VERTEX
8
CUT
10
138.8301
20
61.2090
0
VERTEX
8
CUT
10
138.8369
20
61.0795
0
VERTEX
8
CUT
10
138.8492
20
60.9603
0
VERTEX
8
CUT
10
138.8689
20
60.8321
0
VERTEX
8
CUT
10
138.8930
20
60.7148
0
VERTEX
8
CUT
10
138.9253
20
60.5892
0
VERTEX
8
CUT
10
138.9610
20
60.4748
0
VERTEX
8
CUT
10
139.0057
20
60.3531
0
VERTEX
8
CUT
10
139.0526
20
60.2428
0
VERTEX
8
CUT
10
139.1093
20
60.1261
0
VERTEX
8
CUT
10
139.1670
20
60.0211
0
VERTEX
8
CUT
10
139.2350
20
59.9107
0
VERTEX
8
CUT
10
139.3029
20
59.8119
0
VERTEX
8
CUT
10
139.3815
20
59.7088
0
VERTEX
8
CUT
10
139.4589
20
59.6173
0
VERTEX
8
CUT
10
139.5475
20
59.5226
0
VERTEX
8
CUT
10
139.6336
20
59.4392
0
VERTEX
8
CUT
10
139.7312
20
59.3538
0
VERTEX
8
CUT
10
139.8252
20
59.2795
0
VERTEX
8
CUT
10
139.9308
20
59.2042
0
VERTEX
8
CUT
10
140.0317
20
59.1397
0
VERTEX
8
CUT
10
140.1443
20
59.0753
0
VERTEX
8
CUT
10
140.2512
20
59.0211
0
VERTEX
8
CUT
10
140.3697
20
58.9683
0
VERTEX
8
CUT
10
140.4814
20
58.9251
0
VERTEX
8
CUT
10
140.6045
20
58.8843
0
VERTEX
8
CUT
10
140.7200
20
58.8524
0
VERTEX
8
CUT
10
140.8466
20
58.8242
0
VERTEX
8
CUT
10
140.9647
20
58.8040
0
VERTEX
8
CUT
10
141.0935
20
58.7885
0
VERTEX
8
CUT
10
141.2130
20
58.7802
0
VERTEX
8
CUT
10
141.3727
20
58.7771
0
VERTEX
8
CUT
10
141.4326
20
58.7774
0
VERTEX
8
CUT
10
148.5639
20
58.9932
0
VERTEX
8
CUT
10
148.6169
20
58.9941
0
VERTEX
8
CUT
10
148.6374
20
58.9941
0
VERTEX
8
CUT
10
148.6873
20
58.9934
0
VERTEX
8
CUT
10
148.7915
20
58.9873
0
VERTEX
8
CUT
10
148.8323
20
58.9838
0
VERTEX
8
CUT
10
148.9359
20
58.9716
0
VERTEX
8
CUT
10
148.9852
20
58.9636
0
VERTEX
8
CUT
10
149.0055
20
58.9600
0
VERTEX
8
CUT
10
149.0574
20
58.9500
0
VERTEX
8
CUT
10
149.8524
20
58.7846
0
VERTEX
8
CUT
10
149.9361
20
58.7703
0
VERTEX
8
CUT
10
150.2022
20
58.7344
0
VERTEX
8
CUT
10
150.2866
20
58.7260
0
VERTEX
8
CUT
10
154.7095
20
58.4444
0
VERTEX
8
CUT
10
154.7718
20
58.4420
0
VERTEX
8
CUT
10
154.9378
20
58.4401
0
VERTEX
8
CUT
10
155.0623
20
58.4451
0
VERTEX
8
CUT
10
155.2276
20
58.4604
0
VERTEX
8
CUT
10
155.2895
20
58.4677
0
VERTEX
8
CUT
10
156.6779
20
58.6693
0
VERTEX
8
CUT
10
156.7411
20
58.6773
0
VERTEX
8
CUT
10
156.7657
20
58.6800
0
VERTEX
8
CUT
10
156.8291
20
58.6858
0
VERTEX
8
CUT
10
156.8994
20
58.6910
0
VERTEX
8
CUT
10
156.9630
20
58.6945
0
VERTEX
8
CUT
10
156.9877
20
58.6955
0
VERTEX
8
CUT
10
157.0514
20
58.6968
0
VERTEX
8
CUT
10
157.2280
20
58.6972
0
VERTEX
8
CUT
10
157.2875
20
58.6989
0
VERTEX
8
CUT
10
157.4458
20
58.7071
0
VERTEX
8
CUT
10
157.5641
20
58.7192
0
VERTEX
8
CUT
10
157.6913
20
58.7386
0
VERTEX
8
CUT
10
157.8079
20
58.7624
0
VERTEX
8
CUT
10
157.9325
20
58.7943
0
VERTEX
8
CUT
10
158.0461
20
58.8294
0
VERTEX
8
CUT
10
158.1670
20
58.8735
0
VERTEX
8
CUT
10
158.2766
20
58.9198
0
VERTEX
8
CUT
10
158.3926
20
58.9756
0
VERTEX
8
CUT
10
158.4970
20
59.0324
0
VERTEX
8
CUT
10
158.6069
20
59.0995
0
VERTEX
8
CUT
10
158.7052
20
59.1664
0
VERTEX
8
CUT
10
158.8078
20
59.2440
0
VERTEX
8
CUT
10
158.8991
20
59.3203
0
VERTEX
8
CUT
10
158.9935
20
59.4077
0
VERTEX
8
CUT
10
159.0767
20
59.4926
0
VERTEX
8
CUT
10
159.1621
20
59.5889
0
VERTEX
8
CUT
10
159.2365
20
59.6817
0
VERTEX
8
CUT
10
159.3119
20
59.7860
0
VERTEX
8
CUT
10
159.3768
20
59.8856
0
VERTEX
8
CUT
10
159.4415
20
59.9969
0
VERTEX
8
CUT
10
159.4962
20
60.1025
0
VERTEX
8
CUT
10
159.5496
20
60.2196
0
VERTEX
8
CUT
10
159.5935
20
60.3301
0
VERTEX
8
CUT
10
159.6351
20
60.4519
0
VERTEX
8
CUT
10
159.6679
20
60.5662
0
VERTEX
8
CUT
10
159.6971
20
60.6915
0
VERTEX
8
CUT
10
159.7185
20
60.8085
0
VERTEX
8
CUT
10
159.7352
20
60.9361
0
VERTEX
8
CUT
10
159.7448
20
61.0546
0
VERTEX
8
CUT
10
159.7489
20
61.1832
0
VERTEX
8
CUT
10
159.7467
20
61.3021
0
VERTEX
8
CUT
10
159.7380
20
61.4305
0
VERTEX
8
CUT
10
159.7241
20
61.5486
0
VERTEX
8
CUT
10
159.7027
20
61.6755
0
VERTEX
8
CUT
10
159.6772
20
61.7917
0
VERTEX
8
CUT
10
159.6433
20
61.9158
0
VERTEX
8
CUT
10
159.6064
20
62.0289
0
VERTEX
8
CUT
10
159.5605
20
62.1491
0
VERTEX
8
CUT
10
159.5125
20
62.2579
0
VERTEX
8
CUT
10
159.4549
20
62.3730
0
VERTEX
8
CUT
10
159.3964
20
62.4766
0
VERTEX
8
CUT
10
159.3277
20
62.5854
0
VERTEX
8
CUT
10
159.2593
20
62.6826
0
VERTEX
8
CUT
10
159.1801
20
62.7841
0
VERTEX
8
CUT
10
159.1024
20
62.8741
0
VERTEX
8
CUT
10
159.0136
20
62.9672
0
VERTEX
8
CUT
10
158.9274
20
63.0491
0
VERTEX
8
CUT
10
158.8298
20
63.1330
0
VERTEX
8
CUT
10
158.7358
20
63.2059
0
VERTEX
8
CUT
10
158.6060
20
63.2968
0
VERTEX
8
CUT
10
158.5565
20
63.3297
0
VERTEX
8
CUT
10
157.3999
20
64.0567
0
VERTEX
8
CUT
10
157.3551
20
64.0859
0
VERTEX
8
CUT
10
157.3379
20
64.0974
0
VERTEX
8
CUT
10
157.2939
20
64.1278
0
VERTEX
8
CUT
10
157.2457
20
64.1623
0
VERTEX
8
CUT
10
157.2027
20
64.1940
0
VERTEX
8
CUT
10
157.1862
20
64.2066
0
VERTEX
8
CUT
10
157.1441
20
64.2396
0
VERTEX
8
CUT
10
154.3050
20
66.5355
0
VERTEX
8
CUT
10
154.2745
20
66.5607
0
VERTEX
8
CUT
10
154.2627
20
66.5707
0
VERTEX
8
CUT
10
154.2327
20
66.5966
0
VERTEX
8
CUT
10
154.1997
20
66.6258
0
VERTEX
8
CUT
10
154.1703
20
66.6524
0
VERTEX
8
CUT
10
154.1590
20
66.6628
0
VERTEX
8
CUT
10
154.1302
20
66.6901
0
VERTEX
8
CUT
10
152.4560
20
68.3075
0
VERTEX
8
CUT
10
152.4251
20
68.3381
0
VERTEX
8
CUT
10
152.4132
20
68.3501
0
VERTEX
8
CUT
10
152.3830
20
68.3814
0
VERTEX
8
CUT
10
152.3500
20
68.4166
0
VERTEX
8
CUT
10
152.3206
20
68.4486
0
VERTEX
8
CUT
10
152.3093
20
68.4612
0
VERTEX
8
CUT
10
152.2807
20
68.4940
0
VERTEX
8
CUT
10
147.7000
20
73.8666
0
VERTEX
8
CUT
10
147.6561
20
73.9154
0
VERTEX
8
CUT
10
147.5356
20
74.0420
0
VERTEX
8
CUT
10
147.4401
20
74.1319
0
VERTEX
8
CUT
10
147.3065
20
74.2446
0
VERTEX
8
CUT
10
147.2553
20
74.2855
0
VERTEX
8
CUT
10
145.2147
20
75.8242
0
VERTEX
8
CUT
10
145.1705
20
75.8560
0
VERTEX
8
CUT
10
145.0508
20
75.9381
0
VERTEX
8
CUT
10
144.9582
20
75.9955
0
VERTEX
8
CUT
10
144.8316
20
76.0663
0
VERTEX
8
CUT
10
144.7835
20
76.0918
0
VERTEX
8
CUT
10
143.6109
20
76.6794
0
VERTEX
8
CUT
10
143.5648
20
76.7013
0
VERTEX
8
CUT
10
143.4408
20
76.7570
0
VERTEX
8
CUT
10
143.3461
20
76.7947
0
VERTEX
8
CUT
10
143.2420
20
76.8312
0
VERTEX
8
CUT
10
143.1444
20
76.8608
0
VERTEX
8
CUT
10
143.0129
20
76.8947
0
VERTEX
8
CUT
10
142.9632
20
76.9064
0
VERTEX
8
CUT
10
142.0884
20
77.0925
0
VERTEX
8
CUT
10
142.0212
20
77.1048
0
VERTEX
8
CUT
10
141.8415
20
77.1324
0
VERTEX
8
CUT
10
141.7057
20
77.1455
0
VERTEX
8
CUT
10
141.5241
20
77.1526
0
VERTEX
8
CUT
10
141.4559
20
77.1533
0
VERTEX
8
CUT
10
141.3799
20
77.1519
0
VERTEX
8
CUT
10
141.3224
20
77.1495
0
VERTEX
8
CUT
10
141.1693
20
77.1394
0
VERTEX
8
CUT
10
141.0550
20
77.1263
0
VERTEX
8
CUT
10
140.9320
20
77.1063
0
VERTEX
8
CUT
10
140.8195
20
77.0823
0
VERTEX
8
CUT
10
140.6991
20
77.0506
0
VERTEX
8
CUT
10
140.5893
20
77.0159
0
VERTEX
8
CUT
10
140.4725
20
76.9728
0
VERTEX
8
CUT
10
140.3666
20
76.9278
0
VERTEX
8
CUT
10
140.2544
20
76.8737
0
VERTEX
8
CUT
10
140.1533
20
76.8187
0
VERTEX
8
CUT
10
140.0468
20
76.7541
0
VERTEX
8
CUT
10
139.9514
20
76.6897
0
VERTEX
8
CUT
10
139.8516
20
76.6152
0
VERTEX
8
CUT
10
139.7629
20
76.5420
0
VERTEX
8
CUT
10
139.6494
20
76.4389
0
VERTEX
8
CUT
10
139.6077
20
76.3992
0
VERTEX
8
CUT
10
139.5158
20
76.3073
0
VERTEX
8
CUT
10
139.4720
20
76.2611
0
VERTEX
8
CUT
10
139.3586
20
76.1350
0
VERTEX
8
CUT
10
139.2786
20
76.0359
0
VERTEX
8
CUT
10
139.1979
20
75.9244
0
VERTEX
8
CUT
10
139.1289
20
75.8174
0
VERTEX
8
CUT
10
139.0446
20
75.6703
0
VERTEX
8
CUT
10
139.0145
20
75.6143
0
VERTEX
8
CUT
10
138.8976
20
75.3824
0
VERTEX
8
CUT
10
138.8738
20
75.3324
0
VERTEX
8
CUT
10
138.8134
20
75.1975
0
VERTEX
8
CUT
10
138.7729
20
75.0944
0
VERTEX
8
CUT
10
138.7342
20
74.9808
0
VERTEX
8
CUT
10
138.7033
20
74.8744
0
VERTEX
8
CUT
10
138.6753
20
74.7578
0
VERTEX
8
CUT
10
138.6543
20
74.6489
0
VERTEX
8
CUT
10
138.6372
20
74.5302
0
VERTEX
8
CUT
10
138.6264
20
74.4199
0
VERTEX
8
CUT
10
138.6188
20
74.2724
0
VERTEX
8
CUT
10
138.6173
20
74.2171
0
VERTEX
8
CUT
10
138.6122
20
73.2251
0
VERTEX
8
CUT
10
138.6136
20
73.1611
0
VERTEX
8
CUT
10
138.6218
20
72.9908
0
VERTEX
8
CUT
10
138.6348
20
72.8634
0
VERTEX
8
CUT
10
138.6562
20
72.7266
0
VERTEX
8
CUT
10
138.6826
20
72.6014
0
VERTEX
8
CUT
10
138.7267
20
72.4367
0
VERTEX
8
CUT
10
138.7449
20
72.3754
0
VERTEX
8
CUT
10
139.9282
20
68.7441
0
VERTEX
8
CUT
10
139.9395
20
68.7080
0
VERTEX
8
CUT
10
139.9438
20
68.6939
0
VERTEX
8
CUT
10
139.9537
20
68.6597
0
VERTEX
8
CUT
10
139.9723
20
68.5875
0
VERTEX
8
CUT
10
139.9735
20
68.5826
0
VERTEX
8
CUT
10
140.0019
20
68.4341
0
VERTEX
8
CUT
10
140.0026
20
68.4291
0
VERTEX
8
CUT
10
140.0120
20
68.3552
0
VERTEX
8
CUT
10
140.0154
20
68.3197
0
VERTEX
8
CUT
10
140.0166
20
68.3050
0
VERTEX
8
CUT
10
140.0194
20
68.2673
0
VERTEX
8
CUT
10
140.0392
20
67.9527
0
VERTEX
8
CUT
10
140.0444
20
67.8942
0
VERTEX
8
CUT
10
140.0618
20
67.7388
0
VERTEX
8
CUT
10
140.0806
20
67.6229
0
VERTEX
8
CUT
10
140.1071
20
67.4987
0
VERTEX
8
CUT
10
140.1371
20
67.3852
0
VERTEX
8
CUT
10
140.1845
20
67.2362
0
VERTEX
8
CUT
10
140.2036
20
67.1807
0
VERTEX
8
CUT
10
140.2076
20
67.1700
0
VERTEX
8
CUT
10
140.2213
20
67.1318
0
VERTEX
8
CUT
10
140.2470
20
67.0511
0
VERTEX
8
CUT
10
140.2487
20
67.0456
0
VERTEX
8
CUT
10
140.2865
20
66.8892
0
VERTEX
8
CUT
10
140.3092
20
66.7299
0
VERTEX
8
CUT
10
140.3097
20
66.7242
0
VERTEX
8
CUT
10
140.3157
20
66.6397
0
VERTEX
8
CUT
10
140.3171
20
66.5992
0
VERTEX
8
CUT
10
140.3174
20
66.5825
0
VERTEX
8
CUT
10
140.3179
20
66.5395
0
VERTEX
8
CUT
10
140.3166
20
65.7058
0
VERTEX
8
CUT
10
140.3157
20
65.6529
0
VERTEX
8
CUT
10
140.3151
20
65.6323
0
VERTEX
8
CUT
10
140.3128
20
65.5825
0
VERTEX
8
CUT
10
140.3035
20
65.4785
0
VERTEX
8
CUT
10
140.2986
20
65.4378
0
VERTEX
8
CUT
10
140.2831
20
65.3346
0
VERTEX
8
CUT
10
140.2736
20
65.2856
0
VERTEX
8
CUT
10
140.2693
20
65.2655
0
VERTEX
8
CUT
10
140.2577
20
65.2138
0
VERTEX
8
CUT
10
140.0362
20
64.2966
0
VERTEX
8
CUT
10
140.0234
20
64.2468
0
VERTEX
8
CUT
10
140.0182
20
64.2275
0
VERTEX
8
CUT
10
140.0048
20
64.1809
0
VERTEX
8
CUT
10
139.9726
20
64.0847
0
VERTEX
8
CUT
10
139.9589
20
64.0473
0
VERTEX
8
CUT
10
139.9213
20
63.9531
0
VERTEX
8
CUT
10
139.9014
20
63.9089
0
VERTEX
8
CUT
10
139.8929
20
63.8908
0
VERTEX
8
CUT
10
139.8705
20
63.8445
0
VERTEX
8
CUT
10
139.4226
20
62.9531
0
VERTEX
8
CUT
10
139.4072
20
62.9231
0
VERTEX
8
CUT
10
139.4011
20
62.9115
0
VERTEX
8
CUT
10
139.3860
20
62.8834
0
VERTEX
8
CUT
10
139.3528
20
62.8257
0
VERTEX
8
CUT
10
139.3393
20
62.8033
0
VERTEX
8
CUT
10
139.3040
20
62.7468
0
VERTEX
8
CUT
10
139.2863
20
62.7203
0
SEQEND
0
POLYLINE
8
CUT
66
1
70
1
10
0.0
20
0.0
30
0.0
0
VERTEX
8
CUT
10
116.3524
20
152.5151
0
VERTEX
8
CUT
10
116.2981
20
152.5350
0
VERTEX
8
CUT
10
116.1522
20
152.5843
0
VERTEX
8
CUT
10
116.0410
20
152.6161
0
VERTEX
8
CUT
10
115.9192
20
152.6446
0
VERTEX
8
CUT
10
115.8055
20
152.6655
0
VERTEX
8
CUT
10
115.6816
20
152.6821
0
VERTEX
8
CUT
10
115.5664
20
152.6920
0
VERTEX
8
CUT
10
115.4414
20
152.6967
0
VERTEX
8
CUT
10
115.3258
20
152.6954
0
VERTEX
8
CUT
10
115.2010
20
152.6880
0
VERTEX
8
CUT
10
115.0861
20
152.6756
0
VERTEX
8
CUT
10
114.9625
20
152.6563
0
VERTEX
8
CUT
10
114.8493
20
152.6329
0
VERTEX
8
CUT
10
114.7282
20
152.6017
0
VERTEX
8
CUT
10
114.6177
20
152.5676
0
VERTEX
8
CUT
10
114.5002
20
152.5249
0
VERTEX
8
CUT
10
114.3935
20
152.4803
0
VERTEX
8
CUT
10
114.2806
20
152.4265
0
VERTEX
8
CUT
10
114.1788
20
152.3718
0
VERTEX
8
CUT
10
114.0716
20
152.3074
0
VERTEX
8
CUT
10
113.9755
20
152.2432
0
VERTEX
8
CUT
10
113.8749
20
152.1688
0
VERTEX
8
CUT
10
113.7854
20
152.0956
0
VERTEX
8
CUT
10
113.6925
20
152.0119
0
VERTEX
8
CUT
10
113.6105
20
151.9304
0
VERTEX
8
CUT
10
113.5261
20
151.8381
0
VERTEX
8
CUT
10
113.4523
20
151.7492
0
VERTEX
8
CUT
10
113.3771
20
151.6492
0
VERTEX
8
CUT
10
113.3122
20
151.5536
0
VERTEX
8
CUT
10
113.2471
20
151.4468
0
VERTEX
8
CUT
10
113.1916
20
151.3454
0
VERTEX
8
CUT
10
113.1370
20
151.2328
0
VERTEX
8
CUT
10
113.0916
20
151.1265
0
VERTEX
8
CUT
10
113.0481
20
151.0093
0
VERTEX
8
CUT
10
113.0132
20
150.8991
0
VERTEX
8
CUT
10
112.9811
20
150.7782
0
VERTEX
8
CUT
10
112.9569
20
150.6652
0
VERTEX
8
CUT
10
112.9367
20
150.5417
0
VERTEX
8
CUT
10
112.9235
20
150.4269
0
VERTEX
8
CUT
10
112.9152
20
150.3021
0
VERTEX
8
CUT
10
112.9131
20
150.1866
0
VERTEX
8
CUT
10
112.9168
20
150.0615
0
VERTEX
8
CUT
10
112.9259
20
149.9463
0
VERTEX
8
CUT
10
112.9416
20
149.8222
0
VERTEX
8
CUT
10
112.9617
20
149.7084
0
VERTEX
8
CUT
10
112.9893
20
149.5864
0
VERTEX
8
CUT
10
113.0202
20
149.4750
0
VERTEX
8
CUT
10
113.0595
20
149.3563
0
VERTEX
8
CUT
10
113.1010
20
149.2484
0
VERTEX
8
CUT
10
113.1631
20
149.1075
0
VERTEX
8
CUT
10
113.1877
20
149.0552
0
VERTEX
8
CUT
10
114.8652
20
145.6998
0
VERTEX
8
CUT
10
114.8786
20
145.6737
0
VERTEX
8
CUT
10
114.9222
20
145.5916
0
VERTEX
8
CUT
10
114.9363
20
145.5658
0
VERTEX
8
CUT
10
116.7087
20
142.4161
0
VERTEX
8
CUT
10
116.7392
20
142.3649
0
VERTEX
8
CUT
10
116.8238
20
142.2306
0
VERTEX
8
CUT
10
116.8923
20
142.1330
0
VERTEX
8
CUT
10
116.9715
20
142.0313
0
VERTEX
8
CUT
10
117.0492
20
141.9410
0
VERTEX
8
CUT
10
117.1381
20
141.8477
0
VERTEX
8
CUT
10
117.2245
20
141.7656
0
VERTEX
8
CUT
10
117.3222
20
141.6815
0
VERTEX
8
CUT
10
117.4162
20
141.6084
0
VERTEX
8
CUT
10
117.5218
20
141.5344
0
VERTEX
8
CUT
10
117.6226
20
141.4709
0
VERTEX
8
CUT
10
117.7350
20
141.4078
0
VERTEX
8
CUT
10
117.8417
20
141.3546
0
VERTEX
8
CUT
10
117.9598
20
141.3029
0
VERTEX
8
CUT
10
118.0711
20
141.2606
0
VERTEX
8
CUT
10
118.1938
20
141.2209
0
VERTEX
8
CUT
10
118.3088
20
141.1899
0
VERTEX
8
CUT
10
118.4348
20
141.1625
0
VERTEX
8
CUT
10
118.5523
20
141.1430
0
VERTEX
8
CUT
10
118.6804
20
141.1282
0
VERTEX
8
CUT
10
118.7993
20
141.1205
0
VERTEX
8
CUT
10
118.9282
20
141.1185
0
VERTEX
8
CUT
10
119.0473
20
141.1226
0
VERTEX
8
CUT
10
119.1757
20
141.1334
0
VERTEX
8
CUT
10
119.2938
20
141.1493
0
VERTEX
8
CUT
10
119.4206
20
141.1728
0
VERTEX
8
CUT
10
119.5365
20
141.2003
0
VERTEX
8
CUT
10
119.6603
20
141.2363
0
VERTEX
8
CUT
10
119.7729
20
141.2751
0
VERTEX
8
CUT
10
119.8925
20
141.3232
0
VERTEX
8
CUT
10
120.0007
20
141.3730
0
VERTEX
8
CUT
10
120.1150
20
141.4327
0
VERTEX
8
CUT
10
120.2177
20
141.4930
0
VERTEX
8
CUT
10
120.3255
20
141.5637
0
VERTEX
8
CUT
10
120.4218
20
141.6340
0
VERTEX
8
CUT
10
120.5220
20
141.7150
0
VERTEX
8
CUT
10
120.6108
20
141.7944
0
VERTEX
8
CUT
10
120.7026
20
141.8850
0
VERTEX
8
CUT
10
120.7831
20
141.9728
0
VERTEX
8
CUT
10
120.8654
20
142.0721
0
VERTEX
8
CUT
10
120.9367
20
142.1675
0
VERTEX
8
CUT
10
121.0088
20
142.2744
0
VERTEX
8
CUT
10
121.0704
20
142.3764
0
VERTEX
8
CUT
10
121.1314
20
142.4899
0
VERTEX
8
CUT
10
121.1826
20
142.5975
0
VERTEX
8
CUT
10
121.2321
20
142.7165
0
VERTEX
8
CUT
10
121.2724
20
142.8286
0
VERTEX
8
CUT
10
121.3099
20
142.9520
0
VERTEX
8
CUT
10
121.3388
20
143.0676
0
VERTEX
8
CUT
10
121.3638
20
143.1940
0
VERTEX
8
CUT
10
121.3812
20
143.3119
0
VERTEX
8
CUT
10
121.3936
20
143.4402
0
VERTEX
8
CUT
10
121.3991
20
143.5592
0
VERTEX
8
CUT
10
121.3987
20
143.6882
0
VERTEX
8
CUT
10
121.3925
20
143.8071
0
VERTEX
8
CUT
10
121.3734
20
143.9931
0
VERTEX
8
CUT
10
121.3642
20
144.0834
0
VERTEX
8
CUT
10
121.3570
20
144.1814
0
VERTEX
8
CUT
10
121.3556
20
144.2251
0
VERTEX
8
CUT
10
121.3553
20
144.2438
0
VERTEX
8
CUT
10
121.3550
20
144.2917
0
VERTEX
8
CUT
10
121.3581
20
144.6781
0
VERTEX
8
CUT
10
121.3591
20
144.7264
0
VERTEX
8
CUT
10
121.3598
20
144.7451
0
VERTEX
8
CUT
10
121.3620
20
144.7905
0
VERTEX
8
CUT
10
121.3704
20
144.8853
0
VERTEX
8
CUT
10
121.3711
20
144.8917
0
VERTEX
8
CUT
10
121.4015
20
145.0698
0
VERTEX
8
CUT
10
121.4507
20
145.2435
0
VERTEX
8
CUT
10
121.4528
20
145.2496
0
VERTEX
8
CUT
10
121.4860
20
145.3388
0
VERTEX
8
CUT
10
121.5036
20
145.3807
0
VERTEX
8
CUT
10
121.5110
20
145.3979
0
VERTEX
8
CUT
10
121.5309
20
145.4419
0
VERTEX
8
CUT
10
121.8919
20
146.2148
0
VERTEX
8
CUT
10
121.9124
20
146.2572
0
VERTEX
8
CUT
10
121.9205
20
146.2736
0
VERTEX
8
CUT
10
121.9409
20
146.3131
0
VERTEX
8
CUT
10
121.9867
20
146.3939
0
VERTEX
8
CUT
10
121.9900
20
146.3993
0
VERTEX
8
CUT
10
122.0954
20
146.5555
0
VERTEX
8
CUT
10
122.0992
20
146.5605
0
VERTEX
8
CUT
10
122.1571
20
146.6332
0
VERTEX
8
CUT
10
122.1861
20
146.6668
0
VERTEX
8
CUT
10
122.1983
20
146.6805
0
VERTEX
8
CUT
10
122.2300
20
146.7154
0
VERTEX
8
CUT
10
122.4654
20
146.9674
0
VERTEX
8
CUT
10
122.4980
20
147.0015
0
VERTEX
8
CUT
10
122.5109
20
147.0146
0
VERTEX
8
CUT
10
122.5426
20
147.0459
0
VERTEX
8
CUT
10
122.6113
20
147.1088
0
VERTEX
8
CUT
10
122.6389
20
147.1328
0
VERTEX
8
CUT
10
122.7108
20
147.1919
0
VERTEX
8
CUT
10
122.7463
20
147.2188
0
VERTEX
8
CUT
10
122.7924
20
147.2529
0
VERTEX
8
CUT
10
122.8202
20
147.2740
0
VERTEX
8
CUT
10
122.9220
20
147.3539
0
VERTEX
8
CUT
10
123.0056
20
147.4259
0
VERTEX
8
CUT
10
123.1010
20
147.5159
0
VERTEX
8
CUT
10
123.1825
20
147.6009
0
VERTEX
8
CUT
10
123.2661
20
147.6971
0
VERTEX
8
CUT
10
123.3389
20
147.7896
0
VERTEX
8
CUT
10
123.4127
20
147.8935
0
VERTEX
8
CUT
10
123.4761
20
147.9927
0
VERTEX
8
CUT
10
123.5393
20
148.1034
0
VERTEX
8
CUT
10
123.5927
20
148.2083
0
VERTEX
8
CUT
10
123.6448
20
148.3246
0
VERTEX
8
CUT
10
123.6876
20
148.4343
0
VERTEX
8
CUT
10
123.7280
20
148.5551
0
VERTEX
8
CUT
10
123.7599
20
148.6685
0
VERTEX
8
CUT
10
123.7883
20
148.7927
0
VERTEX
8
CUT
10
123.8089
20
148.9086
0
VERTEX
8
CUT
10
123.8250
20
149.0350
0
VERTEX
8
CUT
10
123.8341
20
149.1524
0
VERTEX
8
CUT
10
123.8377
20
149.2798
0
VERTEX
8
CUT
10
123.8353
20
149.3975
0
VERTEX
8
CUT
10
123.8264
20
149.5246
0
VERTEX
8
CUT
10
123.8125
20
149.6415
0
VERTEX
8
CUT
10
123.7912
20
149.7672
0
VERTEX
8
CUT
10
123.7659
20
149.8822
0
VERTEX
8
CUT
10
123.7324
20
150.0051
0
VERTEX
8
CUT
10
123.6959
20
150.1171
0
VERTEX
8
CUT
10
123.6505
20
150.2361
0
VERTEX
8
CUT
10
123.6032
20
150.3440
0
VERTEX
8
CUT
10
123.5464
20
150.4580
0
VERTEX
8
CUT
10
123.4888
20
150.5607
0
VERTEX
8
CUT
10
123.4211
20
150.6686
0
VERTEX
8
CUT
10
123.3536
20
150.7652
0
VERTEX
8
CUT
10
123.2757
20
150.8659
0
VERTEX
8
CUT
10
123.1991
20
150.9554
0
VERTEX
8
CUT
10
123.1116
20
151.0480
0
VERTEX
8
CUT
10
123.0267
20
151.1296
0
VERTEX
8
CUT
10
122.9305
20
151.2132
0
VERTEX
8
CUT
10
122.8380
20
151.2860
0
VERTEX
8
CUT
10
122.7341
20
151.3598
0
VERTEX
8
CUT
10
122.6349
20
151.4232
0
VERTEX
8
CUT
10
122.5243
20
151.4865
0
VERTEX
8
CUT
10
122.4194
20
151.5399
0
VERTEX
8
CUT
10
122.3031
20
151.5920
0
VERTEX
8
CUT
10
122.1934
20
151.6348
0
VERTEX
8
CUT
10
122.0726
20
151.6753
0
VERTEX
8
CUT
10
121.9592
20
151.7071
0
VERTEX
8
CUT
10
121.8350
20
151.7356
0
VERTEX
8
CUT
10
121.7191
20
151.7562
0
VERTEX
8
CUT
10
121.5635
20
151.7760
0
VERTEX
8
CUT
10
121.5049
20
151.7820
0
VERTEX
8
CUT
10
117.6914
20
152.0794
0
VERTEX
8
CUT
10
117.6471
20
152.0834
0
VERTEX
8
CUT
10
117.6299
20
152.0852
0
VERTEX
8
CUT
10
117.5882
20
152.0900
0
VERTEX
8
CUT
10
117.5015
20
152.1033
0
VERTEX
8
CUT
10
117.4956
20
152.1043
0
VERTEX
8
CUT
10
117.3222
20
152.1442
0
VERTEX
8
CUT
10
117.3165
20
152.1459
0
VERTEX
8
CUT
10
117.2327
20
152.1718
0
VERTEX
8
CUT
10
117.1931
20
152.1857
0
VERTEX
8
CUT
10
117.1768
20
152.1916
0
VERTEX
8
CUT
10
117.1352
20
152.2074
0
SEQEND
0
POLYLINE
8
CUT
66
1
70
1
10
0.0
20
0.0
30
0.0
0
VERTEX
8
CUT
10
107.8156
20
128.2246
0
VERTEX
8
CUT
10
107.8089
20
128.1887
0
VERTEX
8
CUT
10
107.8060
20
128.1740
0
VERTEX
8
CUT
10
107.7982
20
128.1361
0
VERTEX
8
CUT
10
107.4221
20
126.4149
0
VERTEX
8
CUT
10
107.4103
20
126.3529
0
VERTEX
8
CUT
10
107.3831
20
126.1867
0
VERTEX
8
CUT
10
107.3692
20
126.0611
0
VERTEX
8
CUT
10
107.3596
20
125.8931
0
VERTEX
8
CUT
10
107.3577
20
125.8300
0
VERTEX
8
CUT
10
107.3208
20
117.5409
0
VERTEX
8
CUT
10
107.3217
20
117.4881
0
VERTEX
8
CUT
10
107.3273
20
117.3474
0
VERTEX
8
CUT
10
107.3361
20
117.2422
0
VERTEX
8
CUT
10
107.3540
20
117.1026
0
VERTEX
8
CUT
10
107.3619
20
117.0504
0
VERTEX
8
CUT
10
107.8228
20
114.3915
0
VERTEX
8
CUT
10
107.8366
20
114.3233
0
VERTEX
8
CUT
10
107.8788
20
114.1428
0
VERTEX
8
CUT
10
107.9183
20
114.0093
0
VERTEX
8
CUT
10
107.9811
20
113.8350
0
VERTEX
8
CUT
10
107.9933
20
113.8025
0
VERTEX
8
CUT
10
107.9985
20
113.7894
0
VERTEX
8
CUT
10
108.0061
20
113.7706
0
VERTEX
8
CUT
10
108.0115
20
113.7573
0
VERTEX
8
CUT
10
108.0413
20
113.6771
0
VERTEX
8
CUT
10
108.0432
20
113.6716
0
VERTEX
8
CUT
10
108.0886
20
113.5155
0
VERTEX
8
CUT
10
108.1187
20
113.3558
0
VERTEX
8
CUT
10
108.1195
20
113.3500
0
VERTEX
8
CUT
10
108.1293
20
113.2650
0
VERTEX
8
CUT
10
108.1325
20
113.2242
0
VERTEX
8
CUT
10
108.1336
20
113.2074
0
VERTEX
8
CUT
10
108.1359
20
113.1640
0
VERTEX
8
CUT
10
108.1659
20
112.4494
0
VERTEX
8
CUT
10
108.1694
20
112.3955
0
VERTEX
8
CUT
10
108.1819
20
112.2521
0
VERTEX
8
CUT
10
108.1961
20
112.1450
0
VERTEX
8
CUT
10
108.2167
20
112.0299
0
VERTEX
8
CUT
10
108.2404
20
111.9245
0
VERTEX
8
CUT
10
108.2713
20
111.8117
0
VERTEX
8
CUT
10
108.3045
20
111.7089
0
VERTEX
8
CUT
10
108.3548
20
111.5740
0
VERTEX
8
CUT
10
108.3748
20
111.5239
0
VERTEX
8
CUT
10
109.0384
20
109.9634
0
VERTEX
8
CUT
10
109.0536
20
109.9291
0
VERTEX
8
CUT
10
109.1034
20
109.8216
0
VERTEX
8
CUT
10
109.1196
20
109.7879
0
VERTEX
8
CUT
10
110.7288
20
106.5762
0
VERTEX
8
CUT
10
110.7595
20
106.5189
0
VERTEX
8
CUT
10
110.8614
20
106.3403
0
VERTEX
8
CUT
10
110.8951
20
106.2848
0
VERTEX
8
CUT
10
111.9261
20
104.6859
0
VERTEX
8
CUT
10
111.9588
20
104.6379
0
VERTEX
8
CUT
10
112.0489
20
104.5120
0
VERTEX
8
CUT
10
112.1210
20
104.4209
0
VERTEX
8
CUT
10
112.2037
20
104.3262
0
VERTEX
8
CUT
10
112.2843
20
104.2425
0
VERTEX
8
CUT
10
112.3758
20
104.1563
0
VERTEX
8
CUT
10
112.4641
20
104.0808
0
VERTEX
8
CUT
10
112.5635
20
104.0038
0
VERTEX
8
CUT
10
112.6586
20
103.9372
0
VERTEX
8
CUT
10
112.7650
20
103.8702
0
VERTEX
8
CUT
10
112.8662
20
103.8131
0
VERTEX
8
CUT
10
112.9785
20
103.7567
0
VERTEX
8
CUT
10
113.0847
20
103.7096
0
VERTEX
8
CUT
10
113.2020
20
103.6643
0
VERTEX
8
CUT
10
113.3123
20
103.6278
0
VERTEX
8
CUT
10
113.4334
20
103.5940
0
VERTEX
8
CUT
10
113.5467
20
103.5683
0
VERTEX
8
CUT
10
113.6705
20
103.5465
0
VERTEX
8
CUT
10
113.7857
20
103.5318
0
VERTEX
8
CUT
10
113.9110
20
103.5220
0
VERTEX
8
CUT
10
114.0272
20
103.5186
0
VERTEX
8
CUT
10
114.1528
20
103.5210
0
VERTEX
8
CUT
10
114.2688
20
103.5288
0
VERTEX
8
CUT
10
114.3936
20
103.5433
0
VERTEX
8
CUT
10
114.5082
20
103.5623
0
VERTEX
8
CUT
10
114.6311
20
103.5888
0
VERTEX
8
CUT
10
114.7434
20
103.6188
0
VERTEX
8
CUT
10
114.8631
20
103.6570
0
VERTEX
8
CUT
10
114.9719
20
103.6977
0
VERTEX
8
CUT
10
115.0874
20
103.7474
0
VERTEX
8
CUT
10
115.1918
20
103.7984
0
VERTEX
8
CUT
10
115.3019
20
103.8590
0
VERTEX
8
CUT
10
115.4008
20
103.9199
0
VERTEX
8
CUT
10
115.5046
20
103.9909
0
VERTEX
8
CUT
10
115.5972
20
104.0610
0
VERTEX
8
CUT
10
115.6936
20
104.1417
0
VERTEX
8
CUT
10
115.7790
20
104.2205
0
VERTEX
8
CUT
10
115.8671
20
104.3101
0
VERTEX
8
CUT
10
115.9445
20
104.3968
0
VERTEX
8
CUT
10
116.0236
20
104.4945
0
VERTEX
8
CUT
10
116.0922
20
104.5882
0
VERTEX
8
CUT
10
116.1615
20
104.6931
0
VERTEX
8
CUT
10
116.2207
20
104.7931
0
VERTEX
8
CUT
10
116.2795
20
104.9042
0
VERTEX
8
CUT
10
116.3288
20
105.0094
0
VERTEX
8
CUT
10
116.3766
20
105.1257
0
VERTEX
8
CUT
10
116.4154
20
105.2351
0
VERTEX
8
CUT
10
116.4517
20
105.3555
0
VERTEX
8
CUT
10
116.4799
20
105.4682
0
VERTEX
8
CUT
10
116.5044
20
105.5915
0
VERTEX
8
CUT
10
116.5215
20
105.7064
0
VERTEX
8
CUT
10
116.5339
20
105.8315
0
VERTEX
8
CUT
10
116.5398
20
105.9475
0
VERTEX
8
CUT
10
116.5401
20
106.0732
0
VERTEX
8
CUT
10
116.5348
20
106.1893
0
VERTEX
8
CUT
10
116.5229
20
106.3144
0
VERTEX
8
CUT
10
116.5064
20
106.4294
0
VERTEX
8
CUT
10
116.4770
20
106.5814
0
VERTEX
8
CUT
10
116.4645
20
106.6381
0
VERTEX
8
CUT
10
116.4395
20
106.7404
0
VERTEX
8
CUT
10
116.4295
20
106.7838
0
VERTEX
8
CUT
10
116.4258
20
106.8007
0
VERTEX
8
CUT
10
116.4174
20
106.8418
0
VERTEX
8
CUT
10
116.4029
20
106.9283
0
VERTEX
8
CUT
10
116.3981
20
106.9624
0
VERTEX
8
CUT
10
116.3879
20
107.0496
0
VERTEX
8
CUT
10
116.3846
20
107.0914
0
VERTEX
8
CUT
10
116.3835
20
107.1087
0
VERTEX
8
CUT
10
116.3811
20
107.1531
0
VERTEX
8
CUT
10
116.3522
20
107.8408
0
VERTEX
8
CUT
10
116.3478
20
107.9051
0
VERTEX
8
CUT
10
116.3314
20
108.0760
0
VERTEX
8
CUT
10
116.3123
20
108.2035
0
VERTEX
8
CUT
10
116.2777
20
108.3716
0
VERTEX
8
CUT
10
116.2630
20
108.4343
0
VERTEX
8
CUT
10
115.8666
20
109.9442
0
VERTEX
8
CUT
10
115.8544
20
109.9938
0
VERTEX
8
CUT
10
115.8499
20
110.0131
0
VERTEX
8
CUT
10
115.8396
20
110.0602
0
VERTEX
8
CUT
10
115.8225
20
110.1593
0
VERTEX
8
CUT
10
115.8168
20
110.1984
0
VERTEX
8
CUT
10
115.8053
20
110.2984
0
VERTEX
8
CUT
10
115.8018
20
110.3464
0
VERTEX
8
CUT
10
115.8006
20
110.3662
0
VERTEX
8
CUT
10
115.7984
20
110.4172
0
VERTEX
8
CUT
10
115.7663
20
111.4954
0
VERTEX
8
CUT
10
115.7631
20
111.5548
0
VERTEX
8
CUT
10
115.7505
20
111.7128
0
VERTEX
8
CUT
10
115.7352
20
111.8308
0
VERTEX
8
CUT
10
115.7123
20
111.9575
0
VERTEX
8
CUT
10
115.6854
20
112.0734
0
VERTEX
8
CUT
10
115.6420
20
112.2258
0
VERTEX
8
CUT
10
115.6243
20
112.2825
0
VERTEX
8
CUT
10
115.6035
20
112.3438
0
VERTEX
8
CUT
10
115.5883
20
112.3910
0
VERTEX
8
CUT
10
115.5628
20
112.4841
0
VERTEX
8
CUT
10
115.5612
20
112.4906
0
VERTEX
8
CUT
10
115.5245
20
112.6896
0
VERTEX
8
CUT
10
115.5236
20
112.6963
0
VERTEX
8
CUT
10
115.5138
20
112.7955
0
VERTEX
8
CUT
10
115.5111
20
112.8432
0
VERTEX
8
CUT
10
115.5103
20
112.8628
0
VERTEX
8
CUT
10
115.5089
20
112.9134
0
VERTEX
8
CUT
10
115.4674
20
115.8767
0
VERTEX
8
CUT
10
115.4657
20
115.9265
0
VERTEX
8
CUT
10
115.4583
20
116.0590
0
VERTEX
8
CUT
10
115.4487
20
116.1582
0
VERTEX
8
CUT
10
115.4338
20
116.2649
0
VERTEX
8
CUT
10
115.4159
20
116.3629
0
VERTEX
8
CUT
10
115.3868
20
116.4924
0
VERTEX
8
CUT
10
115.3748
20
116.5407
0
VERTEX
8
CUT
10
115.3082
20
116.7884
0
VERTEX
8
CUT
10
115.2970
20
116.8318
0
VERTEX
8
CUT
10
115.2929
20
116.8487
0
VERTEX
8
CUT
10
115.2835
20
116.8900
0
VERTEX
8
CUT
10
115.2669
20
116.9768
0
VERTEX
8
CUT
10
115.2659
20
116.9828
0
VERTEX
8
CUT
10
115.2469
20
117.1496
0
VERTEX
8
CUT
10
115.2447
20
117.3062
0
VERTEX
8
CUT
10
115.2591
20
117.4735
0
VERTEX
8
CUT
10
115.2600
20
117.4794
0
VERTEX
8
CUT
10
115.2741
20
117.5667
0
VERTEX
8
CUT
10
115.2824
20
117.6082
0
VERTEX
8
CUT
10
115.2860
20
117.6252
0
VERTEX
8
CUT
10
115.2960
20
117.6690
0
VERTEX
8
CUT
10
115.3897
20
118.0598
0
VERTEX
8
CUT
10
115.4041
20
118.1288
0
VERTEX
8
CUT
10
115.4371
20
118.3138
0
VERTEX
8
CUT
10
115.4537
20
118.4538
0
VERTEX
8
CUT
10
115.4647
20
118.6413
0
VERTEX
8
CUT
10
115.4668
20
118.7117
0
VERTEX
8
CUT
10
115.4677
20
122.2203
0
VERTEX
8
CUT
10
115.4661
20
122.2820
0
VERTEX
8
CUT
10
115.4577
20
122.4463
0
VERTEX
8
CUT
10
115.4450
20
122.5690
0
VERTEX
8
CUT
10
115.4198
20
122.7314
0
VERTEX
8
CUT
10
115.4088
20
122.7921
0
VERTEX
8
CUT
10
114.9650
20
124.9211
0
VERTEX
8
CUT
10
114.9575
20
124.9592
0
VERTEX
8
CUT
10
114.9548
20
124.9740
0
VERTEX
8
CUT
10
114.9485
20
125.0100
0
VERTEX
8
CUT
10
114.9377
20
125.0857
0
VERTEX
8
CUT
10
114.9342
20
125.1155
0
VERTEX
8
CUT
10
114.9267
20
125.1916
0
VERTEX
8
CUT
10
114.9243
20
125.2281
0
VERTEX
8
CUT
10
114.9235
20
125.2431
0
VERTEX
8
CUT
10
114.9218
20
125.2819
0
VERTEX
8
CUT
10
114.8836
20
126.4322
0
VERTEX
8
CUT
10
114.8794
20
126.4997
0
VERTEX
8
CUT
10
114.8633
20
126.6791
0
VERTEX
8
CUT
10
114.8436
20
126.8129
0
VERTEX
8
CUT
10
114.8142
20
126.9562
0
VERTEX
8
CUT
10
114.7797
20
127.0869
0
VERTEX
8
CUT
10
114.7239
20
127.2581
0
VERTEX
8
CUT
10
114.7011
20
127.3218
0
VERTEX
8
CUT
10
113.0043
20
131.6788
0
VERTEX
8
CUT
10
112.9818
20
131.7327
0
VERTEX
8
CUT
10
112.9183
20
131.8748
0
VERTEX
8
CUT
10
112.8655
20
131.9790
0
VERTEX
8
CUT
10
112.8030
20
132.0888
0
VERTEX
8
CUT
10
112.7404
20
132.1874
0
VERTEX
8
CUT
10
112.6675
20
132.2907
0
VERTEX
8
CUT
10
112.5955
20
132.3827
0
VERTEX
8
CUT
10
112.5129
20
132.4783
0
VERTEX
8
CUT
10
112.4324
20
132.5629
0
VERTEX
8
CUT
10
112.3409
20
132.6501
0
VERTEX
8
CUT
10
112.2525
20
132.7265
0
VERTEX
8
CUT
10
112.1530
20
132.8043
0
VERTEX
8
CUT
10
112.0576
20
132.8717
0
VERTEX
8
CUT
10
111.9510
20
132.9396
0
VERTEX
8
CUT
10
111.8495
20
132.9974
0
VERTEX
8
CUT
10
111.7368
20
133.0545
0
VERTEX
8
CUT
10
111.6302
20
133.1022
0
VERTEX
8
CUT
10
111.5124
20
133.1481
0
VERTEX
8
CUT
10
111.4017
20
133.1852
0
VERTEX
8
CUT
10
111.2800
20
133.2194
0
VERTEX
8
CUT
10
111.1662
20
133.2456
0
VERTEX
8
CUT
10
111.0418
20
133.2679
0
VERTEX
8
CUT
10
110.9259
20
133.2828
0
VERTEX
8
CUT
10
110.8000
20
133.2929
0
VERTEX
8
CUT
10
110.6832
20
133.2965
0
VERTEX
8
CUT
10
110.5569
20
133.2943
0
VERTEX
8
CUT
10
110.4403
20
133.2865
0
VERTEX
8
CUT
10
110.3148
20
133.2720
0
VERTEX
8
CUT
10
110.1996
20
133.2530
0
VERTEX
8
CUT
10
110.0760
20
133.2263
0
VERTEX
8
CUT
10
109.9632
20
133.1962
0
VERTEX
8
CUT
10
109.8428
20
133.1577
0
VERTEX
8
CUT
10
109.7334
20
133.1167
0
VERTEX
8
CUT
10
109.6174
20
133.0667
0
VERTEX
8
CUT
10
109.5125
20
133.0153
0
VERTEX
8
CUT
10
109.4019
20
132.9542
0
VERTEX
8
CUT
10
109.3025
20
132.8928
0
VERTEX
8
CUT
10
109.1983
20
132.8213
0
VERTEX
8
CUT
10
109.1054
20
132.7505
0
VERTEX
8
CUT
10
109.0087
20
132.6692
0
VERTEX
8
CUT
10
108.9230
20
132.5898
0
VERTEX
8
CUT
10
108.8347
20
132.4994
0
VERTEX
8
CUT
10
108.7572
20
132.4120
0
VERTEX
8
CUT
10
108.6780
20
132.3135
0
VERTEX
8
CUT
10
108.6094
20
132.2190
0
VERTEX
8
CUT
10
108.5402
20
132.1133
0
VERTEX
8
CUT
10
108.4810
20
132.0125
0
VERTEX
8
CUT
10
108.4224
20
131.9006
0
VERTEX
8
CUT
10
108.3734
20
131.7946
0
VERTEX
8
CUT
10
108.3259
20
131.6774
0
VERTEX
8
CUT
10
108.2874
20
131.5672
0
VERTEX
8
CUT
10
108.2516
20
131.4460
0
VERTEX
8
CUT
10
108.2240
20
131.3325
0
VERTEX
8
CUT
10
108.2001
20
131.2084
0
VERTEX
8
CUT
10
108.1837
20
131.0928
0
VERTEX
8
CUT
10
108.1693
20
130.9378
0
VERTEX
8
CUT
10
108.1653
20
130.8796
0
VERTEX
8
CUT
10
108.1443
20
130.4046
0
VERTEX
8
CUT
10
108.1420
20
130.3632
0
VERTEX
8
CUT
10
108.1410
20
130.3471
0
VERTEX
8
CUT
10
108.1379
20
130.3081
0
VERTEX
8
CUT
10
108.1287
20
130.2269
0
VERTEX
8
CUT
10
108.1279
20
130.2213
0
VERTEX
8
CUT
10
108.0997
20
130.0685
0
VERTEX
8
CUT
10
108.0576
20
129.9190
0
VERTEX
8
CUT
10
108.0529
20
129.9048
0
VERTEX
8
CUT
10
108.0417
20
129.8723
0
VERTEX
8
CUT
10
108.0336
20
129.8492
0
VERTEX
8
CUT
10
108.0232
20
129.8185
0
VERTEX
8
CUT
10
107.9702
20
129.6545
0
VERTEX
8
CUT
10
107.9370
20
129.5294
0
VERTEX
8
CUT
10
107.9086
20
129.3924
0
VERTEX
8
CUT
10
107.8891
20
129.2645
0
VERTEX
8
CUT
10
107.8724
20
129.0930
0
VERTEX
8
CUT
10
107.8679
20
129.0285
0
VERTEX
8
CUT
10
107.8449
20
128.4956
0
VERTEX
8
CUT
10
107.8428
20
128.4570
0
VERTEX
8
CUT
10
107.8418
20
128.4420
0
VERTEX
8
CUT
10
107.8391
20
128.4056
0
VERTEX
8
CUT
10
107.8309
20
128.3298
0
VERTEX
8
CUT
10
107.8270
20
128.3000
0
SEQEND
0
POLYLINE
8
CUT
66
1
70
1
10
0.0
20
0.0
30
0.0
0
VERTEX
8
CUT
10
71.1848
20
169.9346
0
VERTEX
8
CUT
10
71.1724
20
169.8769
0
VERTEX
8
CUT
10
71.1433
20
169.7222
0
VERTEX
8
CUT
10
71.1272
20
169.6051
0
VERTEX
8
CUT
10
71.1160
20
169.4778
0
VERTEX
8
CUT
10
71.1114
20
169.3598
0
VERTEX
8
CUT
10
71.1128
20
169.2320
0
VERTEX
8
CUT
10
71.1199
20
169.1141
0
VERTEX
8
CUT
10
71.1338
20
168.9871
0
VERTEX
8
CUT
10
71.1525
20
168.8705
0
VERTEX
8
CUT
10
71.1788
20
168.7454
0
VERTEX
8
CUT
10
71.2088
20
168.6312
0
VERTEX
8
CUT
10
71.2474
20
168.5093
0
VERTEX
8
CUT
10
71.2884
20
168.3986
0
VERTEX
8
CUT
10
71.3388
20
168.2811
0
VERTEX
8
CUT
10
71.3905
20
168.1750
0
VERTEX
8
CUT
10
71.4522
20
168.0630
0
VERTEX
8
CUT
10
71.5141
20
167.9624
0
VERTEX
8
CUT
10
71.5865
20
167.8571
0
VERTEX
8
CUT
10
71.6580
20
167.7631
0
VERTEX
8
CUT
10
71.7403
20
167.6654
0
VERTEX
8
CUT
10
71.8208
20
167.5789
0
VERTEX
8
CUT
10
71.9123
20
167.4897
0
VERTEX
8
CUT
10
72.0009
20
167.4115
0
VERTEX
8
CUT
10
72.1007
20
167.3318
0
VERTEX
8
CUT
10
72.1965
20
167.2627
0
VERTEX
8
CUT
10
72.3038
20
167.1932
0
VERTEX
8
CUT
10
72.4059
20
167.1339
0
VERTEX
8
CUT
10
72.5194
20
167.0752
0
VERTEX
8
CUT
10
72.6269
20
167.0262
0
VERTEX
8
CUT
10
72.7457
20
166.9790
0
VERTEX
8
CUT
10
72.8574
20
166.9408
0
VERTEX
8
CUT
10
72.9803
20
166.9055
0
VERTEX
8
CUT
10
73.0952
20
166.8785
0
VERTEX
8
CUT
10
73.2209
20
166.8554
0
VERTEX
8
CUT
10
73.3380
20
166.8398
0
VERTEX
8
CUT
10
73.4654
20
166.8292
0
VERTEX
8
CUT
10
73.5834
20
166.8252
0
VERTEX
8
CUT
10
73.7112
20
166.8272
0
VERTEX
8
CUT
10
73.8291
20
166.8348
0
VERTEX
8
CUT
10
73.9560
20
166.8493
0
VERTEX
8
CUT
10
74.0726
20
166.8685
0
VERTEX
8
CUT
10
74.1975
20
166.8954
0
VERTEX
8
CUT
10
74.3116
20
166.9259
0
VERTEX
8
CUT
10
74.4333
20
166.9650
0
VERTEX
8
CUT
10
74.5438
20
167.0066
0
VERTEX
8
CUT
10
74.6611
20
167.0575
0
VERTEX
8
CUT
10
74.7670
20
167.1097
0
VERTEX
8
CUT
10
74.9045
20
167.1862
0
VERTEX
8
CUT
10
74.9554
20
167.2162
0
VERTEX
8
CUT
10
76.0676
20
167.9087
0
VERTEX
8
CUT
10
76.1019
20
167.9295
0
VERTEX
8
CUT
10
76.1154
20
167.9375
0
VERTEX
8
CUT
10
76.1482
20
167.9564
0
VERTEX
8
CUT
10
76.2180
20
167.9936
0
VERTEX
8
CUT
10
76.2228
20
167.9961
0
VERTEX
8
CUT
10
76.3691
20
168.0620
0
VERTEX
8
CUT
10
76.3742
20
168.0640
0
VERTEX
8
CUT
10
76.4483
20
168.0915
0
VERTEX
8
CUT
10
76.4842
20
168.1036
0
VERTEX
8
CUT
10
76.4991
20
168.1083
0
VERTEX
8
CUT
10
76.5374
20
168.1202
0
VERTEX
8
CUT
10
79.1261
20
168.8907
0
VERTEX
8
CUT
10
79.1668
20
168.9023
0
VERTEX
8
CUT
10
79.1827
20
168.9066
0
VERTEX
8
CUT
10
79.2213
20
168.9167
0
VERTEX
8
CUT
10
79.3028
20
168.9348
0
VERTEX
8
CUT
10
79.3084
20
168.9359
0
VERTEX
8
CUT
10
79.4757
20
168.9608
0
VERTEX
8
CUT
10
79.4814
20
168.9614
0
VERTEX
8
CUT
10
79.5645
20
168.9679
0
VERTEX
8
CUT
10
79.6044
20
168.9696
0
VERTEX
8
CUT
10
79.6209
20
168.9701
0
VERTEX
8
CUT
10
79.6632
20
168.9709
0
VERTEX
8
CUT
10
82.5536
20
168.9916
0
VERTEX
8
CUT
10
82.6029
20
168.9912
0
VERTEX
8
CUT
10
82.6220
20
168.9909
0
VERTEX
8
CUT
10
82.6685
20
168.9893
0
VERTEX
8
CUT
10
82.7653
20
168.9820
0
VERTEX
8
CUT
10
82.7719
20
168.9813
0
VERTEX
8
CUT
10
82.9664
20
168.9505
0
VERTEX
8
CUT
10
82.9728
20
168.9491
0
VERTEX
8
CUT
10
83.0672
20
168.9261
0
VERTEX
8
CUT
10
83.1119
20
168.9133
0
VERTEX
8
CUT
10
83.1302
20
168.9077
0
VERTEX
8
CUT
10
83.1772
20
168.8928
0
VERTEX
8
CUT
10
83.3369
20
168.8396
0
VERTEX
8
CUT
10
83.3986
20
168.8209
0
VERTEX
8
CUT
10
83.5643
20
168.7754
0
VERTEX
8
CUT
10
83.6902
20
168.7481
0
VERTEX
8
CUT
10
83.8597
20
168.7207
0
VERTEX
8
CUT
10
83.9235
20
168.7121
0
VERTEX
8
CUT
10
86.6397
20
168.4217
0
VERTEX
8
CUT
10
86.6814
20
168.4167
0
VERTEX
8
CUT
10
86.6975
20
168.4146
0
VERTEX
8
CUT
10
86.7367
20
168.4090
0
VERTEX
8
CUT
10
86.8181
20
168.3945
0
VERTEX
8
CUT
10
86.8236
20
168.3934
0
VERTEX
8
CUT
10
86.9863
20
168.3525
0
VERTEX
8
CUT
10
86.9917
20
168.3509
0
VERTEX
8
CUT
10
87.0714
20
168.3248
0
VERTEX
8
CUT
10
87.0981
20
168.3153
0
VERTEX
8
CUT
10
87.1326
20
168.3037
0
VERTEX
8
CUT
10
87.2353
20
168.2709
0
VERTEX
8
CUT
10
87.3287
20
168.2452
0
VERTEX
8
CUT
10
87.4472
20
168.2176
0
VERTEX
8
CUT
10
87.5528
20
168.1980
0
VERTEX
8
CUT
10
87.6680
20
168.1819
0
VERTEX
8
CUT
10
87.7750
20
168.1718
0
VERTEX
8
CUT
10
87.9180
20
168.1647
0
VERTEX
8
CUT
10
87.9718
20
168.1633
0
VERTEX
8
CUT
10
90.7945
20
168.1505
0
VERTEX
8
CUT
10
90.8455
20
168.1514
0
VERTEX
8
CUT
10
90.9813
20
168.1565
0
VERTEX
8
CUT
10
91.0829
20
168.1647
0
VERTEX
8
CUT
10
91.1924
20
168.1782
0
VERTEX
8
CUT
10
91.2930
20
168.1950
0
VERTEX
8
CUT
10
91.4259
20
168.2231
0
VERTEX
8
CUT
10
91.4755
20
168.2346
0
VERTEX
8
CUT
10
92.1250
20
168.4008
0
VERTEX
8
CUT
10
92.1881
20
168.4187
0
VERTEX
8
CUT
10
92.3547
20
168.4712
0
VERTEX
8
CUT
10
92.4775
20
168.5174
0
VERTEX
8
CUT
10
92.6374
20
168.5877
0
VERTEX
8
CUT
10
92.6966
20
168.6157
0
VERTEX
8
CUT
10
93.1293
20
168.8350
0
VERTEX
8
CUT
10
93.1836
20
168.8643
0
VERTEX
8
CUT
10
93.3264
20
168.9462
0
VERTEX
8
CUT
10
93.4303
20
169.0131
0
VERTEX
8
CUT
10
93.5388
20
169.0911
0
VERTEX
8
CUT
10
93.6352
20
169.1682
0
VERTEX
8
CUT
10
93.7351
20
169.2570
0
VERTEX
8
CUT
10
93.8231
20
169.3437
0
VERTEX
8
CUT
10
93.9133
20
169.4422
0
VERTEX
8
CUT
10
93.9919
20
169.5375
0
VERTEX
8
CUT
10
94.0716
20
169.6448
0
VERTEX
8
CUT
10
94.1399
20
169.7476
0
VERTEX
8
CUT
10
94.2177
20
169.8788
0
VERTEX
8
CUT
10
94.2741
20
169.9857
0
VERTEX
8
CUT
10
94.3352
20
170.1174
0
VERTEX
8
CUT
10
94.3797
20
170.2271
0
VERTEX
8
CUT
10
94.4220
20
170.3480
0
VERTEX
8
CUT
10
94.4554
20
170.4616
0
VERTEX
8
CUT
10
94.4855
20
170.5861
0
VERTEX
8
CUT
10
94.5076
20
170.7023
0
VERTEX
8
CUT
10
94.5253
20
170.8292
0
VERTEX
8
CUT
10
94.5359
20
170.9471
0
VERTEX
8
CUT
10
94.5410
20
171.0751
0
VERTEX
8
CUT
10
94.5399
20
171.1934
0
VERTEX
8
CUT
10
94.5324
20
171.3213
0
VERTEX
8
CUT
10
94.5196
20
171.4390
0
VERTEX
8
CUT
10
94.4995
20
171.5655
0
VERTEX
8
CUT
10
94.4752
20
171.6813
0
VERTEX
8
CUT
10
94.4428
20
171.8052
0
VERTEX
8
CUT
10
94.4072
20
171.9181
0
VERTEX
8
CUT
10
94.3627
20
172.0382
0
VERTEX
8
CUT
10
94.3161
20
172.1470
0
VERTEX
8
CUT
10
94.2471
20
172.2888
0
VERTEX
8
CUT
10
94.2198
20
172.3413
0
VERTEX
8
CUT
10
93.9671
20
172.8009
0
VERTEX
8
CUT
10
93.9398
20
172.8481
0
VERTEX
8
CUT
10
93.8640
20
172.9721
0
VERTEX
8
CUT
10
93.8030
20
173.0625
0
VERTEX
8
CUT
10
93.7326
20
173.1572
0
VERTEX
8
CUT
10
93.6636
20
173.2417
0
VERTEX
8
CUT
10
93.5667
20
173.3500
0
VERTEX
8
CUT
10
93.5294
20
173.3898
0
VERTEX
8
CUT
10
92.6948
20
174.2411
0
VERTEX
8
CUT
10
92.6556
20
174.2793
0
VERTEX
8
CUT
10
92.5490
20
174.3786
0
VERTEX
8
CUT
10
92.4656
20
174.4494
0
VERTEX
8
CUT
10
92.3504
20
174.5385
0
VERTEX
8
CUT
10
92.3064
20
174.5710
0
VERTEX
8
CUT
10
91.6422
20
175.0383
0
VERTEX
8
CUT
10
91.6054
20
175.0631
0
VERTEX
8
CUT
10
91.5061
20
175.1276
0
VERTEX
8
CUT
10
91.4299
20
175.1732
0
VERTEX
8
CUT
10
91.3262
20
175.2301
0
VERTEX
8
CUT
10
91.2869
20
175.2507
0
VERTEX
8
CUT
10
90.7771
20
175.5065
0
VERTEX
8
CUT
10
90.7287
20
175.5295
0
VERTEX
8
CUT
10
90.5985
20
175.5877
0
VERTEX
8
CUT
10
90.4990
20
175.6269
0
VERTEX
8
CUT
10
90.3894
20
175.6646
0
VERTEX
8
CUT
10
90.2868
20
175.6949
0
VERTEX
8
CUT
10
90.1744
20
175.7226
0
VERTEX
8
CUT
10
90.0695
20
175.7436
0
VERTEX
8
CUT
10
89.9286
20
175.7653
0
VERTEX
8
CUT
10
89.8755
20
175.7723
0
VERTEX
8
CUT
10
89.7957
20
175.7809
0
VERTEX
8
CUT
10
89.7475
20
175.7868
0
VERTEX
8
CUT
10
89.7288
20
175.7894
0
VERTEX
8
CUT
10
89.6835
20
175.7962
0
VERTEX
8
CUT
10
89.5895
20
175.8142
0
VERTEX
8
CUT
10
89.5528
20
175.8222
0
VERTEX
8
CUT
10
89.4599
20
175.8453
0
VERTEX
8
CUT
10
89.4160
20
175.8581
0
VERTEX
8
CUT
10
89.3980
20
175.8636
0
VERTEX
8
CUT
10
89.3517
20
175.8784
0
VERTEX
8
CUT
10
87.9946
20
176.3343
0
VERTEX
8
CUT
10
87.9485
20
176.3505
0
VERTEX
8
CUT
10
87.9307
20
176.3570
0
VERTEX
8
CUT
10
87.8876
20
176.3734
0
VERTEX
8
CUT
10
87.7991
20
176.4114
0
VERTEX
8
CUT
10
87.7932
20
176.4141
0
VERTEX
8
CUT
10
87.6207
20
176.5055
0
VERTEX
8
CUT
10
87.6151
20
176.5088
0
VERTEX
8
CUT
10
87.5339
20
176.5607
0
VERTEX
8
CUT
10
87.4962
20
176.5870
0
VERTEX
8
CUT
10
87.4807
20
176.5981
0
VERTEX
8
CUT
10
87.4414
20
176.6271
0
VERTEX
8
CUT
10
86.3614
20
177.4477
0
VERTEX
8
CUT
10
86.3257
20
177.4756
0
VERTEX
8
CUT
10
86.3119
20
177.4866
0
VERTEX
8
CUT
10
86.2789
20
177.5137
0
VERTEX
8
CUT
10
86.2120
20
177.5730
0
VERTEX
8
CUT
10
86.1863
20
177.5969
0
VERTEX
8
CUT
10
86.1225
20
177.6595
0
VERTEX
8
CUT
10
86.0932
20
177.6906
0
VERTEX
8
CUT
10
86.0812
20
177.7035
0
VERTEX
8
CUT
10
86.0509
20
177.7372
0
VERTEX
8
CUT
10
85.6477
20
178.1974
0
VERTEX
8
CUT
10
85.6192
20
178.2307
0
VERTEX
8
CUT
10
85.6082
20
178.2438
0
VERTEX
8
CUT
10
85.5821
20
178.2759
0
VERTEX
8
CUT
10
85.5301
20
178.3449
0
VERTEX
8
CUT
10
85.5266
20
178.3497
0
VERTEX
8
CUT
10
85.4376
20
178.4876
0
VERTEX
8
CUT
10
85.3623
20
178.6335
0
VERTEX
8
CUT
10
85.3599
20
178.6389
0
VERTEX
8
CUT
10
85.3260
20
178.7184
0
VERTEX
8
CUT
10
85.3112
20
178.7570
0
VERTEX
8
CUT
10
85.3053
20
178.7730
0
VERTEX
8
CUT
10
85.2906
20
178.8143
0
VERTEX
8
CUT
10
84.8230
20
180.1803
0
VERTEX
8
CUT
10
84.7988
20
180.2450
0
VERTEX
8
CUT
10
84.7293
20
180.4152
0
VERTEX
8
CUT
10
84.6700
20
180.5397
0
VERTEX
8
CUT
10
84.5815
20
180.7008
0
VERTEX
8
CUT
10
84.5466
20
180.7602
0
VERTEX
8
CUT
10
83.9340
20
181.7377
0
VERTEX
8
CUT
10
83.9021
20
181.7860
0
VERTEX
8
CUT
10
83.8140
20
181.9126
0
VERTEX
8
CUT
10
83.7433
20
182.0043
0
VERTEX
8
CUT
10
83.6622
20
182.0997
0
VERTEX
8
CUT
10
83.5831
20
182.1841
0
VERTEX
8
CUT
10
83.4932
20
182.2713
0
VERTEX
8
CUT
10
83.4063
20
182.3477
0
VERTEX
8
CUT
10
83.3084
20
182.4258
0
VERTEX
8
CUT
10
83.2146
20
182.4935
0
VERTEX
8
CUT
10
83.1097
20
182.5618
0
VERTEX
8
CUT
10
83.0097
20
182.6201
0
VERTEX
8
CUT
10
82.8987
20
182.6780
0
VERTEX
8
CUT
10
82.7936
20
182.7265
0
VERTEX
8
CUT
10
82.6775
20
182.7734
0
VERTEX
8
CUT
10
82.5683
20
182.8115
0
VERTEX
8
CUT
10
82.4482
20
182.8470
0
VERTEX
8
CUT
10
82.3358
20
182.8744
0
VERTEX
8
CUT
10
82.2128
20
182.8982
0
VERTEX
8
CUT
10
82.0983
20
182.9147
0
VERTEX
8
CUT
10
81.9737
20
182.9265
0
VERTEX
8
CUT
10
81.8581
20
182.9318
0
VERTEX
8
CUT
10
81.7329
20
182.9316
0
VERTEX
8
CUT
10
81.6173
20
182.9258
0
VERTEX
8
CUT
10
81.4927
20
182.9135
0
VERTEX
8
CUT
10
81.3782
20
182.8966
0
VERTEX
8
CUT
10
81.2554
20
182.8723
0
VERTEX
8
CUT
10
81.1431
20
182.8445
0
VERTEX
8
CUT
10
81.0231
20
182.8085
0
VERTEX
8
CUT
10
80.9140
20
182.7700
0
VERTEX
8
CUT
10
80.7981
20
182.7226
0
VERTEX
8
CUT
10
80.6932
20
182.6738
0
VERTEX
8
CUT
10
80.5824
20
182.6155
0
VERTEX
8
CUT
10
80.4827
20
182.5568
0
VERTEX
8
CUT
10
80.3780
20
182.4881
0
VERTEX
8
CUT
10
80.2844
20
182.4200
0
VERTEX
8
CUT
10
80.1868
20
182.3415
0
VERTEX
8
CUT
10
80.1003
20
182.2648
0
VERTEX
8
CUT
10
79.9900
20
182.1571
0
VERTEX
8
CUT
10
79.9496
20
182.1156
0
VERTEX
8
CUT
10
78.6013
20
180.6654
0
VERTEX
8
CUT
10
78.5603
20
180.6190
0
VERTEX
8
CUT
10
78.4545
20
180.4927
0
VERTEX
8
CUT
10
78.3800
20
180.3939
0
VERTEX
8
CUT
10
78.3051
20
180.2830
0
VERTEX
8
CUT
10
78.2412
20
180.1771
0
VERTEX
8
CUT
10
78.1635
20
180.0319
0
VERTEX
8
CUT
10
78.1358
20
179.9766
0
VERTEX
8
CUT
10
76.2945
20
176.0623
0
VERTEX
8
CUT
10
76.2747
20
176.0214
0
VERTEX
8
CUT
10
76.2667
20
176.0056
0
VERTEX
8
CUT
10
76.2470
20
175.9675
0
VERTEX
8
CUT
10
76.2028
20
175.8895
0
VERTEX
8
CUT
10
76.1997
20
175.8843
0
VERTEX
8
CUT
10
76.1048
20
175.7429
0
VERTEX
8
CUT
10
75.9960
20
175.6119
0
VERTEX
8
CUT
10
75.9919
20
175.6074
0
VERTEX
8
CUT
10
75.9296
20
175.5429
0
VERTEX
8
CUT
10
75.8987
20
175.5132
0
VERTEX
8
CUT
10
75.8858
20
175.5011
0
VERTEX
8
CUT
10
75.8522
20
175.4705
0
VERTEX
8
CUT
10
72.5630
20
172.5459
0
VERTEX
8
CUT
10
72.5215
20
172.5072
0
VERTEX
8
CUT
10
72.4133
20
172.4014
0
VERTEX
8
CUT
10
72.3360
20
172.3183
0
VERTEX
8
CUT
10
72.2566
20
172.2245
0
VERTEX
8
CUT
10
72.1875
20
172.1344
0
VERTEX
8
CUT
10
72.1174
20
172.0336
0
VERTEX
8
CUT
10
72.0571
20
171.9374
0
VERTEX
8
CUT
10
71.9829
20
171.8056
0
VERTEX
8
CUT
10
71.9562
20
171.7555
0
VERTEX
8
CUT
10
71.4608
20
170.7691
0
VERTEX
8
CUT
10
71.4316
20
170.7066
0
VERTEX
8
CUT
10
71.3586
20
170.5378
0
VERTEX
8
CUT
10
71.3112
20
170.4082
0
VERTEX
8
CUT
10
71.2582
20
170.2322
0
VERTEX
8
CUT
10
71.2402
20
170.1656
0
SEQEND
0
POLYLINE
8
CUT
66
1
70
1
10
0.0
20
0.0
30
0.0
0
VERTEX
8
CUT
10
69.1397
20
34.5093
0
VERTEX
8
CUT
10
69.1327
20
34.4829
0
VERTEX
8
CUT
10
69.1200
20
34.4331
0
VERTEX
8
CUT
10
69.1082
20
34.3910
0
VERTEX
8
CUT
10
69.0801
20
34.2663
0
VERTEX
8
CUT
10
69.0570
20
34.1301
0
VERTEX
8
CUT
10
69.0423
20
34.0032
0
VERTEX
8
CUT
10
69.0318
20
33.8334
0
VERTEX
8
CUT
10
69.0296
20
33.7696
0
VERTEX
8
CUT
10
68.9938
20
29.5583
0
VERTEX
8
CUT
10
68.9947
20
29.5013
0
VERTEX
8
CUT
10
69.0006
20
29.3493
0
VERTEX
8
CUT
10
69.0105
20
29.2357
0
VERTEX
8
CUT
10
69.0270
20
29.1134
0
VERTEX
8
CUT
10
69.0476
20
29.0012
0
VERTEX
8
CUT
10
69.0756
20
28.8810
0
VERTEX
8
CUT
10
69.1068
20
28.7712
0
VERTEX
8
CUT
10
69.1461
20
28.6542
0
VERTEX
8
CUT
10
69.1876
20
28.5480
0
VERTEX
8
CUT
10
69.2495
20
28.4092
0
VERTEX
8
CUT
10
69.2739
20
28.3577
0
VERTEX
8
CUT
10
69.7440
20
27.4252
0
VERTEX
8
CUT
10
69.7756
20
27.3666
0
VERTEX
8
CUT
10
69.8642
20
27.2128
0
VERTEX
8
CUT
10
69.9369
20
27.1013
0
VERTEX
8
CUT
10
70.0222
20
26.9852
0
VERTEX
8
CUT
10
70.1068
20
26.8824
0
VERTEX
8
CUT
10
70.2270
20
26.7520
0
VERTEX
8
CUT
10
70.2735
20
26.7043
0
VERTEX
8
CUT
10
70.6521
20
26.3365
0
VERTEX
8
CUT
10
70.6958
20
26.2962
0
VERTEX
8
CUT
10
70.8146
20
26.1916
0
VERTEX
8
CUT
10
70.9076
20
26.1177
0
VERTEX
8
CUT
10
71.0120
20
26.0428
0
VERTEX
8
CUT
10
71.1119
20
25.9784
0
VERTEX
8
CUT
10
71.2232
20
25.9142
0
VERTEX
8
CUT
10
71.3289
20
25.8600
0
VERTEX
8
CUT
10
71.4731
20
25.7949
0
VERTEX
8
CUT
10
71.5278
20
25.7718
0
VERTEX
8
CUT
10
72.0503
20
25.5662
0
VERTEX
8
CUT
10
72.1027
20
25.5470
0
VERTEX
8
CUT
10
72.2435
20
25.4991
0
VERTEX
8
CUT
10
72.3507
20
25.4680
0
VERTEX
8
CUT
10
72.4681
20
25.4399
0
VERTEX
8
CUT
10
72.5777
20
25.4190
0
VERTEX
8
CUT
10
72.6972
20
25.4018
0
VERTEX
8
CUT
10
72.8082
20
25.3912
0
VERTEX
8
CUT
10
72.9567
20
25.3839
0
VERTEX
8
CUT
10
73.0124
20
25.3824
0
VERTEX
8
CUT
10
73.0489
20
25.3823
0
VERTEX
8
CUT
10
73.1029
20
25.3834
0
VERTEX
8
CUT
10
73.2468
20
25.3895
0
VERTEX
8
CUT
10
73.3545
20
25.3989
0
VERTEX
8
CUT
10
73.4704
20
25.4143
0
VERTEX
8
CUT
10
73.5767
20
25.4334
0
VERTEX
8
CUT
10
73.6908
20
25.4592
0
VERTEX
8
CUT
10
73.7950
20
25.4877
0
VERTEX
8
CUT
10
73.9319
20
25.5320
0
VERTEX
8
CUT
10
73.9575
20
25.5406
0
VERTEX
8
CUT
10
73.9729
20
25.5459
0
VERTEX
8
CUT
10
73.9842
20
25.5492
0
VERTEX
8
CUT
10
74.0194
20
25.5616
0
VERTEX
8
CUT
10
74.0245
20
25.5632
0
VERTEX
8
CUT
10
74.1657
20
25.6023
0
VERTEX
8
CUT
10
74.3098
20
25.6291
0
VERTEX
8
CUT
10
74.3150
20
25.6298
0
VERTEX
8
CUT
10
74.3927
20
25.6391
0
VERTEX
8
CUT
10
74.4009
20
25.6399
0
VERTEX
8
CUT
10
74.4580
20
25.6468
0
VERTEX
8
CUT
10
74.6097
20
25.6689
0
VERTEX
8
CUT
10
74.7226
20
25.6909
0
VERTEX
8
CUT
10
74.8435
20
25.7205
0
VERTEX
8
CUT
10
74.9537
20
25.7532
0
VERTEX
8
CUT
10
75.0712
20
25.7943
0
VERTEX
8
CUT
10
75.1778
20
25.8374
0
VERTEX
8
CUT
10
75.2909
20
25.8896
0
VERTEX
8
CUT
10
75.3929
20
25.9427
0
VERTEX
8
CUT
10
75.5004
20
26.0054
0
VERTEX
8
CUT
10
75.5968
20
26.0680
0
VERTEX
8
CUT
10
75.6978
20
26.1408
0
VERTEX
8
CUT
10
75.7878
20
26.2124
0
VERTEX
8
CUT
10
75.8814
20
26.2944
0
VERTEX
8
CUT
10
75.9642
20
26.3743
0
VERTEX
8
CUT
10
76.0495
20
26.4649
0
VERTEX
8
CUT
10
76.1242
20
26.5524
0
VERTEX
8
CUT
10
76.2180
20
26.6735
0
VERTEX
8
CUT
10
76.2521
20
26.7198
0
VERTEX
8
CUT
10
76.7947
20
27.4940
0
VERTEX
8
CUT
10
76.8153
20
27.5227
0
VERTEX
8
CUT
10
76.8233
20
27.5337
0
VERTEX
8
CUT
10
76.8432
20
27.5604
0
VERTEX
8
CUT
10
76.8864
20
27.6149
0
VERTEX
8
CUT
10
76.9039
20
27.6361
0
VERTEX
8
CUT
10
76.9492
20
27.6888
0
VERTEX
8
CUT
10
76.9716
20
27.7135
0
VERTEX
8
CUT
10
76.9809
20
27.7235
0
VERTEX
8
CUT
10
77.0052
20
27.7491
0
VERTEX
8
CUT
10
81.6487
20
32.5565
0
VERTEX
8
CUT
10
81.7056
20
32.6197
0
VERTEX
8
CUT
10
81.8783
20
32.8258
0
VERTEX
8
CUT
10
81.9305
20
32.8929
0
VERTEX
8
CUT
10
84.6127
20
36.5999
0
VERTEX
8
CUT
10
84.6561
20
36.6640
0
VERTEX
8
CUT
10
84.7865
20
36.8713
0
VERTEX
8
CUT
10
84.8257
20
36.9381
0
VERTEX
8
CUT
10
88.3373
20
43.4075
0
VERTEX
8
CUT
10
88.3630
20
43.4576
0
VERTEX
8
CUT
10
88.4284
20
43.5927
0
VERTEX
8
CUT
10
88.4726
20
43.6964
0
VERTEX
8
CUT
10
88.5151
20
43.8106
0
VERTEX
8
CUT
10
88.5494
20
43.9178
0
VERTEX
8
CUT
10
88.5884
20
44.0628
0
VERTEX
8
CUT
10
88.5994
20
44.1072
0
VERTEX
8
CUT
10
88.6117
20
44.1610
0
VERTEX
8
CUT
10
88.6149
20
44.1745
0
VERTEX
8
CUT
10
88.6239
20
44.2098
0
VERTEX
8
CUT
10
88.6449
20
44.2830
0
VERTEX
8
CUT
10
88.6465
20
44.2880
0
VERTEX
8
CUT
10
88.6986
20
44.4333
0
VERTEX
8
CUT
10
88.7006
20
44.4382
0
VERTEX
8
CUT
10
88.7309
20
44.5081
0
VERTEX
8
CUT
10
88.7464
20
44.5410
0
VERTEX
8
CUT
10
88.7530
20
44.5545
0
VERTEX
8
CUT
10
88.7702
20
44.5891
0
VERTEX
8
CUT
10
89.6138
20
46.2369
0
VERTEX
8
CUT
10
89.6492
20
46.3125
0
VERTEX
8
CUT
10
89.7530
20
46.5555
0
VERTEX
8
CUT
10
89.7831
20
46.6334
0
VERTEX
8
CUT
10
91.3127
20
51.0427
0
VERTEX
8
CUT
10
91.3305
20
51.0981
0
VERTEX
8
CUT
10
91.3741
20
51.2469
0
VERTEX
8
CUT
10
91.4014
20
51.3599
0
VERTEX
8
CUT
10
91.4250
20
51.4836
0
VERTEX
8
CUT
10
91.4412
20
51.5987
0
VERTEX
8
CUT
10
91.4527
20
51.7241
0
VERTEX
8
CUT
10
91.4577
20
51.8402
0
VERTEX
8
CUT
10
91.4570
20
51.9661
0
VERTEX
8
CUT
10
91.4508
20
52.0822
0
VERTEX
8
CUT
10
91.4379
20
52.2074
0
VERTEX
8
CUT
10
91.4204
20
52.3224
0
VERTEX
8
CUT
10
91.3955
20
52.4457
0
VERTEX
8
CUT
10
91.3670
20
52.5585
0
VERTEX
8
CUT
10
91.3302
20
52.6788
0
VERTEX
8
CUT
10
91.2909
20
52.7883
0
VERTEX
8
CUT
10
91.2427
20
52.9045
0
VERTEX
8
CUT
10
91.1930
20
53.0097
0
VERTEX
8
CUT
10
91.1338
20
53.1207
0
VERTEX
8
CUT
10
91.0741
20
53.2205
0
VERTEX
8
CUT
10
91.0044
20
53.3253
0
VERTEX
8
CUT
10
90.9353
20
53.4189
0
VERTEX
8
CUT
10
90.8558
20
53.5164
0
VERTEX
8
CUT
10
90.7780
20
53.6029
0
VERTEX
8
CUT
10
90.6894
20
53.6923
0
VERTEX
8
CUT
10
90.6037
20
53.7708
0
VERTEX
8
CUT
10
90.5068
20
53.8512
0
VERTEX
8
CUT
10
90.4139
20
53.9210
0
VERTEX
8
CUT
10
90.2856
20
54.0080
0
VERTEX
8
CUT
10
90.2367
20
54.0394
0
VERTEX
8
CUT
10
90.2311
20
54.0429
0
VERTEX
8
CUT
10
90.1958
20
54.0649
0
VERTEX
8
CUT
10
90.1822
20
54.0737
0
VERTEX
8
CUT
10
90.1494
20
54.0953
0
VERTEX
8
CUT
10
90.0825
20
54.1427
0
VERTEX
8
CUT
10
90.0566
20
54.1620
0
VERTEX
8
CUT
10
89.9919
20
54.2125
0
VERTEX
8
CUT
10
89.9618
20
54.2377
0
VERTEX
8
CUT
10
89.9495
20
54.2483
0
VERTEX
8
CUT
10
89.9183
20
54.2757
0
VERTEX
8
CUT
10
89.2155
20
54.9077
0
VERTEX
8
CUT
10
89.1945
20
54.9269
0
VERTEX
8
CUT
10
89.1864
20
54.9345
0
VERTEX
8
CUT
10
89.1656
20
54.9540
0
VERTEX
8
CUT
10
89.1428
20
54.9759
0
VERTEX
8
CUT
10
89.1224
20
54.9958
0
VERTEX
8
CUT
10
89.1145
20
55.0036
0
VERTEX
8
CUT
10
89.0944
20
55.0238
0
VERTEX
8
CUT
10
87.2736
20
56.8826
0
VERTEX
8
CUT
10
87.2503
20
56.9069
0
VERTEX
8
CUT
10
87.2413
20
56.9165
0
VERTEX
8
CUT
10
87.2197
20
56.9398
0
VERTEX
8
CUT
10
87.1759
20
56.9899
0
VERTEX
8
CUT
10
87.1590
20
57.0099
0
VERTEX
8
CUT
10
87.1171
20
57.0615
0
VERTEX
8
CUT
10
87.0978
20
57.0868
0
VERTEX
8
CUT
10
87.0899
20
57.0973
0
VERTEX
8
CUT
10
87.0699
20
57.1244
0
VERTEX
8
CUT
10
86.4032
20
58.0483
0
VERTEX
8
CUT
10
86.3819
20
58.0784
0
VERTEX
8
CUT
10
86.3737
20
58.0902
0
VERTEX
8
CUT
10
86.3542
20
58.1191
0
VERTEX
8
CUT
10
86.3153
20
58.1806
0
VERTEX
8
CUT
10
86.3005
20
58.2051
0
VERTEX
8
CUT
10
86.2642
20
58.2682
0
VERTEX
8
CUT
10
86.2477
20
58.2989
0
VERTEX
8
CUT
10
86.2411
20
58.3116
0
VERTEX
8
CUT
10
86.2243
20
58.3445
0
VERTEX
8
CUT
10
85.7933
20
59.2121
0
VERTEX
8
CUT
10
85.7664
20
59.2687
0
VERTEX
8
CUT
10
85.7564
20
59.2908
0
VERTEX
8
CUT
10
85.7315
20
59.3483
0
VERTEX
8
CUT
10
85.7050
20
59.4125
0
VERTEX
8
CUT
10
85.6821
20
59.4708
0
VERTEX
8
CUT
10
85.6736
20
59.4936
0
VERTEX
8
CUT
10
85.6528
20
59.5526
0
VERTEX
8
CUT
10
84.5774
20
62.7773
0
VERTEX
8
CUT
10
84.5593
20
62.8348
0
VERTEX
8
CUT
10
84.5527
20
62.8572
0
VERTEX
8
CUT
10
84.5365
20
62.9153
0
VERTEX
8
CUT
10
84.5197
20
62.9799
0
VERTEX
8
CUT
10
84.5054
20
63.0385
0
VERTEX
8
CUT
10
84.5003
20
63.0613
0
VERTEX
8
CUT
10
84.4881
20
63.1203
0
VERTEX
8
CUT
10
84.1963
20
64.6546
0
VERTEX
8
CUT
10
84.1787
20
64.7328
0
VERTEX
8
CUT
10
84.1149
20
64.9781
0
VERTEX
8
CUT
10
84.0921
20
65.0549
0
VERTEX
8
CUT
10
83.3511
20
67.2802
0
VERTEX
8
CUT
10
83.3339
20
67.3282
0
VERTEX
8
CUT
10
83.2856
20
67.4551
0
VERTEX
8
CUT
10
83.2453
20
67.5488
0
VERTEX
8
CUT
10
83.1863
20
67.6712
0
VERTEX
8
CUT
10
83.1633
20
67.7166
0
VERTEX
8
CUT
10
81.0146
20
71.7316
0
VERTEX
8
CUT
10
80.9893
20
71.7766
0
VERTEX
8
CUT
10
80.9192
20
71.8949
0
VERTEX
8
CUT
10
80.8629
20
71.9813
0
VERTEX
8
CUT
10
80.7830
20
72.0931
0
VERTEX
8
CUT
10
80.7522
20
72.1345
0
VERTEX
8
CUT
10
79.5507
20
73.6719
0
VERTEX
8
CUT
10
79.5134
20
73.7173
0
VERTEX
8
CUT
10
79.4109
20
73.8359
0
VERTEX
8
CUT
10
79.3298
20
73.9210
0
VERTEX
8
CUT
10
79.2377
20
74.0087
0
VERTEX
8
CUT
10
79.1486
20
74.0855
0
VERTEX
8
CUT
10
79.0483
20
74.1637
0
VERTEX
8
CUT
10
78.9522
20
74.2314
0
VERTEX
8
CUT
10
78.8447
20
74.2994
0
VERTEX
8
CUT
10
78.7424
20
74.3574
0
VERTEX
8
CUT
10
78.6288
20
74.4146
0
VERTEX
8
CUT
10
78.5214
20
74.4622
0
VERTEX
8
CUT
10
78.4027
20
74.5080
0
VERTEX
8
CUT
10
78.2911
20
74.5450
0
VERTEX
8
CUT
10
78.1685
20
74.5789
0
VERTEX
8
CUT
10
78.0538
20
74.6048
0
VERTEX
8
CUT
10
77.9285
20
74.6266
0
VERTEX
8
CUT
10
77.8118
20
74.6411
0
VERTEX
8
CUT
10
77.6850
20
74.6505
0
VERTEX
8
CUT
10
77.5675
20
74.6535
0
VERTEX
8
CUT
10
77.4403
20
74.6505
0
VERTEX
8
CUT
10
77.3231
20
74.6420
0
VERTEX
8
CUT
10
77.1968
20
74.6266
0
VERTEX
8
CUT
10
77.0809
20
74.6066
0
VERTEX
8
CUT
10
76.9568
20
74.5789
0
VERTEX
8
CUT
10
76.8434
20
74.5477
0
VERTEX
8
CUT
10
76.7226
20
74.5080
0
VERTEX
8
CUT
10
76.6129
20
74.4659
0
VERTEX
8
CUT
10
76.4965
20
74.4145
0
VERTEX
8
CUT
10
76.3914
20
74.3618
0
VERTEX
8
CUT
10
76.2806
20
74.2993
0
VERTEX
8
CUT
10
76.1811
20
74.2366
0
VERTEX
8
CUT
10
76.0770
20
74.1636
0
VERTEX
8
CUT
10
75.9842
20
74.0915
0
VERTEX
8
CUT
10
75.8877
20
74.0086
0
VERTEX
8
CUT
10
75.8023
20
73.9277
0
VERTEX
8
CUT
10
75.7144
20
73.8358
0
VERTEX
8
CUT
10
75.6374
20
73.7470
0
VERTEX
8
CUT
10
75.5589
20
73.6469
0
VERTEX
8
CUT
10
75.4909
20
73.5510
0
VERTEX
8
CUT
10
75.4226
20
73.4437
0
VERTEX
8
CUT
10
75.3644
20
73.3416
0
VERTEX
8
CUT
10
75.3068
20
73.2281
0
VERTEX
8
CUT
10
75.2589
20
73.1208
0
VERTEX
8
CUT
10
75.2127
20
73.0022
0
VERTEX
8
CUT
10
75.1755
20
72.8907
0
VERTEX
8
CUT
10
75.1412
20
72.7683
0
VERTEX
8
CUT
10
75.1151
20
72.6536
0
VERTEX
8
CUT
10
75.0929
20
72.5284
0
VERTEX
8
CUT
10
75.0781
20
72.4118
0
VERTEX
8
CUT
10
75.0683
20
72.2849
0
VERTEX
8
CUT
10
75.0649
20
72.1674
0
VERTEX
8
CUT
10
75.0682
20
72.0109
0
VERTEX
8
CUT
10
75.0709
20
71.9521
0
VERTEX
8
CUT
10
75.0757
20
71.8829
0
VERTEX
8
CUT
10
75.0784
20
71.8355
0
VERTEX
8
CUT
10
75.0792
20
71.8171
0
VERTEX
8
CUT
10
75.0806
20
71.7697
0
VERTEX
8
CUT
10
75.1161
20
69.6888
0
VERTEX
8
CUT
10
75.1184
20
69.6323
0
VERTEX
8
CUT
10
75.1280
20
69.4821
0
VERTEX
8
CUT
10
75.1405
20
69.3698
0
VERTEX
8
CUT
10
75.1598
20
69.2491
0
VERTEX
8
CUT
10
75.1828
20
69.1385
0
VERTEX
8
CUT
10
75.2204
20
68.9928
0
VERTEX
8
CUT
10
75.2358
20
68.9385
0
VERTEX
8
CUT
10
75.2797
20
68.7965
0
VERTEX
8
CUT
10
75.2924
20
68.7532
0
VERTEX
8
CUT
10
75.2972
20
68.7364
0
VERTEX
8
CUT
10
75.3082
20
68.6953
0
VERTEX
8
CUT
10
75.3279
20
68.6087
0
VERTEX
8
CUT
10
75.3291
20
68.6028
0
VERTEX
8
CUT
10
75.3559
20
68.4246
0
VERTEX
8
CUT
10
75.3565
20
68.4186
0
VERTEX
8
CUT
10
75.3631
20
68.3300
0
VERTEX
8
CUT
10
75.3647
20
68.2876
0
VERTEX
8
CUT
10
75.3651
20
68.2700
0
VERTEX
8
CUT
10
75.3656
20
68.2250
0
VERTEX
8
CUT
10
75.3622
20
64.6793
0
VERTEX
8
CUT
10
75.3616
20
64.6324
0
VERTEX
8
CUT
10
75.3611
20
64.6142
0
VERTEX
8
CUT
10
75.3593
20
64.5700
0
VERTEX
8
CUT
10
75.3520
20
64.4779
0
VERTEX
8
CUT
10
75.3513
20
64.4717
0
VERTEX
8
CUT
10
75.3220
20
64.2866
0
VERTEX
8
CUT
10
75.3207
20
64.2805
0
VERTEX
8
CUT
10
75.2992
20
64.1906
0
VERTEX
8
CUT
10
75.2872
20
64.1481
0
VERTEX
8
CUT
10
75.2820
20
64.1306
0
VERTEX
8
CUT
10
75.2681
20
64.0858
0
VERTEX
8
CUT
10
75.2432
20
64.0090
0
VERTEX
8
CUT
10
75.2264
20
63.9524
0
VERTEX
8
CUT
10
75.1853
20
63.8004
0
VERTEX
8
CUT
10
75.1601
20
63.6850
0
VERTEX
8
CUT
10
75.1390
20
63.5590
0
VERTEX
8
CUT
10
75.1253
20
63.4417
0
VERTEX
8
CUT
10
75.1147
20
63.2847
0
VERTEX
8
CUT
10
75.1122
20
63.2257
0
VERTEX
8
CUT
10
75.0800
20
61.4476
0
VERTEX
8
CUT
10
75.0785
20
61.4003
0
VERTEX
8
CUT
10
75.0777
20
61.3819
0
VERTEX
8
CUT
10
75.0752
20
61.3374
0
VERTEX
8
CUT
10
75.0661
20
61.2444
0
VERTEX
8
CUT
10
75.0653
20
61.2382
0
VERTEX
8
CUT
10
75.0322
20
61.0518
0
VERTEX
8
CUT
10
75.0308
20
61.0456
0
VERTEX
8
CUT
10
75.0072
20
60.9553
0
VERTEX
8
CUT
10
74.9943
20
60.9126
0
VERTEX
8
CUT
10
74.9887
20
60.8950
0
VERTEX
8
CUT
10
74.9738
20
60.8501
0
VERTEX
8
CUT
10
74.9545
20
60.7944
0
VERTEX
8
CUT
10
74.9363
20
60.7374
0
VERTEX
8
CUT
10
74.8916
20
60.5843
0
VERTEX
8
CUT
10
74.8639
20
60.4679
0
VERTEX
8
CUT
10
74.8402
20
60.3407
0
VERTEX
8
CUT
10
74.8241
20
60.2221
0
VERTEX
8
CUT
10
74.8107
20
60.0633
0
VERTEX
8
CUT
10
74.8071
20
60.0036
0
VERTEX
8
CUT
10
74.7828
20
59.2997
0
VERTEX
8
CUT
10
74.7807
20
59.2559
0
VERTEX
8
CUT
10
74.7797
20
59.2389
0
VERTEX
8
CUT
10
74.7768
20
59.1976
0
VERTEX
8
CUT
10
74.7675
20
59.1117
0
VERTEX
8
CUT
10
74.7667
20
59.1058
0
VERTEX
8
CUT
10
74.7372
20
58.9443
0
VERTEX
8
CUT
10
74.6921
20
58.7865
0
VERTEX
8
CUT
10
74.6635
20
58.7020
0
VERTEX
8
CUT
10
74.6567
20
58.6816
0
VERTEX
8
CUT
10
74.6193
20
58.5644
0
VERTEX
8
CUT
10
74.5887
20
58.4489
0
VERTEX
8
CUT
10
74.5574
20
58.3016
0
VERTEX
8
CUT
10
74.5370
20
58.1703
0
VERTEX
8
CUT
10
74.5196
20
57.9941
0
VERTEX
8
CUT
10
74.5149
20
57.9278
0
VERTEX
8
CUT
10
74.4929
20
57.4203
0
VERTEX
8
CUT
10
74.4906
20
57.3776
0
VERTEX
8
CUT
10
74.4894
20
57.3610
0
VERTEX
8
CUT
10
74.4863
20
57.3207
0
VERTEX
8
CUT
10
74.4766
20
57.2369
0
VERTEX
8
CUT
10
74.4720
20
57.2041
0
VERTEX
8
CUT
10
74.4584
20
57.1208
0
VERTEX
8
CUT
10
74.4505
20
57.0812
0
VERTEX
8
CUT
10
74.4470
20
57.0649
0
VERTEX
8
CUT
10
74.4376
20
57.0232
0
VERTEX
8
CUT
10
73.7088
20
53.9584
0
VERTEX
8
CUT
10
73.6979
20
53.9079
0
VERTEX
8
CUT
10
73.6718
20
53.7727
0
VERTEX
8
CUT
10
73.6567
20
53.6705
0
VERTEX
8
CUT
10
73.6423
20
53.5336
0
VERTEX
8
CUT
10
73.6381
20
53.4822
0
VERTEX
8
CUT
10
73.6057
20
52.9540
0
VERTEX
8
CUT
10
73.6024
20
52.9101
0
VERTEX
8
CUT
10
73.6010
20
52.8930
0
VERTEX
8
CUT
10
73.5969
20
52.8517
0
VERTEX
8
CUT
10
73.5852
20
52.7656
0
VERTEX
8
CUT
10
73.5798
20
52.7319
0
VERTEX
8
CUT
10
73.5639
20
52.6465
0
VERTEX
8
CUT
10
73.5549
20
52.6059
0
VERTEX
8
CUT
10
73.5509
20
52.5892
0
VERTEX
8
CUT
10
73.5402
20
52.5465
0
VERTEX
8
CUT
10
69.9240
20
38.7952
0
VERTEX
8
CUT
10
69.9101
20
38.7361
0
VERTEX
8
CUT
10
69.8769
20
38.5778
0
VERTEX
8
CUT
10
69.8580
20
38.4579
0
VERTEX
8
CUT
10
69.8410
20
38.2971
0
VERTEX
8
CUT
10
69.8362
20
38.2366
0
VERTEX
8
CUT
10
69.8138
20
37.8289
0
VERTEX
8
CUT
10
69.8114
20
37.7915
0
VERTEX
8
CUT
10
69.8103
20
37.7770
0
VERTEX
8
CUT
10
69.8073
20
37.7419
0
VERTEX
8
CUT
10
69.7986
20
37.6686
0
VERTEX
8
CUT
10
69.7979
20
37.6636
0
VERTEX
8
CUT
10
69.7713
20
37.5165
0
VERTEX
8
CUT
10
69.7701
20
37.5115
0
VERTEX
8
CUT
10
69.7525
20
37.4399
0
VERTEX
8
CUT
10
69.7430
20
37.4060
0
VERTEX
8
CUT
10
69.7389
20
37.3920
0
VERTEX
8
CUT
10
69.7281
20
37.3562
0
VERTEX
8
CUT
10
69.3770
20
36.2375
0
VERTEX
8
CUT
10
69.3625
20
36.1876
0
VERTEX
8
CUT
10
69.3267
20
36.0536
0
VERTEX
8
CUT
10
69.3043
20
35.9520
0
VERTEX
8
CUT
10
69.2848
20
35.8412
0
VERTEX
8
CUT
10
69.2712
20
35.7380
0
VERTEX
8
CUT
10
69.2591
20
35.6000
0
VERTEX
8
CUT
10
69.2557
20
35.5481
0
VERTEX
8
CUT
10
69.2330
20
35.0322
0
VERTEX
8
CUT
10
69.2300
20
34.9812
0
VERTEX
8
CUT
10
69.2286
20
34.9614
0
VERTEX
8
CUT
10
69.2244
20
34.9134
0
VERTEX
8
CUT
10
69.2114
20
34.8135
0
VERTEX
8
CUT
10
69.2104
20
34.8068
0
VERTEX
8
CUT
10
69.1669
20
34.6073
0
SEQEND
0
POLYLINE
8
CUT
66
1
70
1
10
0.0
20
0.0
30
0.0
0
VERTEX
8
CUT
10
70.5155
20
132.8891
0
VERTEX
8
CUT
10
70.5232
20
132.8788
0
VERTEX
8
CUT
10
70.5360
20
132.8617
0
VERTEX
8
CUT
10
70.5871
20
132.7879
0
VERTEX
8
CUT
10
70.5904
20
132.7828
0
VERTEX
8
CUT
10
70.6765
20
132.6357
0
VERTEX
8
CUT
10
70.7425
20
132.4911
0
VERTEX
8
CUT
10
70.7936
20
132.3406
0
VERTEX
8
CUT
10
70.8292
20
132.1858
0
VERTEX
8
CUT
10
70.8490
20
132.0281
0
VERTEX
8
CUT
10
70.8527
20
131.8692
0
VERTEX
8
CUT
10
70.8404
20
131.7108
0
VERTEX
8
CUT
10
70.8122
20
131.5544
0
VERTEX
8
CUT
10
70.7651
20
131.3905
0
VERTEX
8
CUT
10
70.7631
20
131.3848
0
VERTEX
8
CUT
10
70.7318
20
131.3006
0
VERTEX
8
CUT
10
70.7153
20
131.2610
0
VERTEX
8
CUT
10
70.7083
20
131.2447
0
VERTEX
8
CUT
10
70.6898
20
131.2031
0
VERTEX
8
CUT
10
70.4017
20
130.5778
0
VERTEX
8
CUT
10
70.3783
20
130.5235
0
VERTEX
8
CUT
10
70.3194
20
130.3771
0
VERTEX
8
CUT
10
70.2807
20
130.2653
0
VERTEX
8
CUT
10
70.2449
20
130.1424
0
VERTEX
8
CUT
10
70.2174
20
130.0273
0
VERTEX
8
CUT
10
70.1938
20
129.9014
0
VERTEX
8
CUT
10
70.1778
20
129.7842
0
VERTEX
8
CUT
10
70.1667
20
129.6566
0
VERTEX
8
CUT
10
70.1624
20
129.5384
0
VERTEX
8
CUT
10
70.1639
20
129.4104
0
VERTEX
8
CUT
10
70.1712
20
129.2923
0
VERTEX
8
CUT
10
70.1853
20
129.1650
0
VERTEX
8
CUT
10
70.2042
20
129.0482
0
VERTEX
8
CUT
10
70.2308
20
128.9230
0
VERTEX
8
CUT
10
70.2611
20
128.8086
0
VERTEX
8
CUT
10
70.2999
20
128.6866
0
VERTEX
8
CUT
10
70.3413
20
128.5757
0
VERTEX
8
CUT
10
70.3920
20
128.4581
0
VERTEX
8
CUT
10
70.4441
20
128.3519
0
VERTEX
8
CUT
10
70.5061
20
128.2399
0
VERTEX
8
CUT
10
70.5684
20
128.1393
0
VERTEX
8
CUT
10
70.6411
20
128.0339
0
VERTEX
8
CUT
10
70.7131
20
127.9400
0
VERTEX
8
CUT
10
70.7958
20
127.8423
0
VERTEX
8
CUT
10
70.8766
20
127.7558
0
VERTEX
8
CUT
10
70.9686
20
127.6668
0
VERTEX
8
CUT
10
71.0575
20
127.5887
0
VERTEX
8
CUT
10
71.1578
20
127.5091
0
VERTEX
8
CUT
10
71.2540
20
127.4402
0
VERTEX
8
CUT
10
71.3617
20
127.3709
0
VERTEX
8
CUT
10
71.4642
20
127.3118
0
VERTEX
8
CUT
10
71.5781
20
127.2534
0
VERTEX
8
CUT
10
71.6860
20
127.2047
0
VERTEX
8
CUT
10
71.8051
20
127.1578
0
VERTEX
8
CUT
10
71.9172
20
127.1200
0
VERTEX
8
CUT
10
72.0404
20
127.0851
0
VERTEX
8
CUT
10
72.1557
20
127.0584
0
VERTEX
8
CUT
10
72.2817
20
127.0358
0
VERTEX
8
CUT
10
72.3991
20
127.0207
0
VERTEX
8
CUT
10
72.5267
20
127.0106
0
VERTEX
8
CUT
10
72.6450
20
127.0071
0
VERTEX
8
CUT
10
72.7730
20
127.0096
0
VERTEX
8
CUT
10
72.8910
20
127.0177
0
VERTEX
8
CUT
10
73.0182
20
127.0328
0
VERTEX
8
CUT
10
73.1349
20
127.0526
0
VERTEX
8
CUT
10
73.2599
20
127.0801
0
VERTEX
8
CUT
10
73.3740
20
127.1113
0
VERTEX
8
CUT
10
73.4958
20
127.1510
0
VERTEX
8
CUT
10
73.6063
20
127.1932
0
VERTEX
8
CUT
10
73.7506
20
127.2567
0
VERTEX
8
CUT
10
73.8041
20
127.2818
0
VERTEX
8
CUT
10
74.5294
20
127.6444
0
VERTEX
8
CUT
10
74.5849
20
127.6739
0
VERTEX
8
CUT
10
74.7305
20
127.7565
0
VERTEX
8
CUT
10
74.8365
20
127.8242
0
VERTEX
8
CUT
10
74.9726
20
127.9215
0
VERTEX
8
CUT
10
75.0227
20
127.9594
0
VERTEX
8
CUT
10
77.6927
20
130.0878
0
VERTEX
8
CUT
10
77.7453
20
130.1322
0
VERTEX
8
CUT
10
77.8818
20
130.2544
0
VERTEX
8
CUT
10
77.9788
20
130.3519
0
VERTEX
8
CUT
10
78.1003
20
130.4889
0
VERTEX
8
CUT
10
78.1444
20
130.5415
0
VERTEX
8
CUT
10
80.1398
20
133.0678
0
VERTEX
8
CUT
10
80.1819
20
133.1244
0
VERTEX
8
CUT
10
80.2894
20
133.2783
0
VERTEX
8
CUT
10
80.3632
20
133.3983
0
VERTEX
8
CUT
10
80.4518
20
133.5636
0
VERTEX
8
CUT
10
80.4833
20
133.6267
0
VERTEX
8
CUT
10
81.9948
20
136.8913
0
VERTEX
8
CUT
10
82.0177
20
136.9439
0
VERTEX
8
CUT
10
82.0752
20
137.0855
0
VERTEX
8
CUT
10
82.1132
20
137.1937
0
VERTEX
8
CUT
10
82.1570
20
137.3401
0
VERTEX
8
CUT
10
82.1721
20
137.3954
0
VERTEX
8
CUT
10
82.6411
20
139.2921
0
VERTEX
8
CUT
10
82.6514
20
139.3376
0
VERTEX
8
CUT
10
82.6765
20
139.4594
0
VERTEX
8
CUT
10
82.6918
20
139.5514
0
VERTEX
8
CUT
10
82.7074
20
139.6748
0
VERTEX
8
CUT
10
82.7124
20
139.7212
0
VERTEX
8
CUT
10
82.9430
20
142.3695
0
VERTEX
8
CUT
10
82.9468
20
142.4302
0
VERTEX
8
CUT
10
82.9527
20
142.5923
0
VERTEX
8
CUT
10
82.9509
20
142.7139
0
VERTEX
8
CUT
10
82.9423
20
142.8453
0
VERTEX
8
CUT
10
82.9282
20
142.9662
0
VERTEX
8
CUT
10
82.9064
20
143.0960
0
VERTEX
8
CUT
10
82.8801
20
143.2148
0
VERTEX
8
CUT
10
82.8372
20
143.3711
0
VERTEX
8
CUT
10
82.8196
20
143.4293
0
VERTEX
8
CUT
10
81.5804
20
147.1831
0
VERTEX
8
CUT
10
81.5621
20
147.2348
0
VERTEX
8
CUT
10
81.5100
20
147.3711
0
VERTEX
8
CUT
10
81.4664
20
147.4716
0
VERTEX
8
CUT
10
81.4021
20
147.6026
0
VERTEX
8
CUT
10
81.3769
20
147.6512
0
VERTEX
8
CUT
10
81.3035
20
147.7852
0
VERTEX
8
CUT
10
81.2738
20
147.8363
0
VERTEX
8
CUT
10
81.1915
20
147.9703
0
VERTEX
8
CUT
10
81.1249
20
148.0678
0
VERTEX
8
CUT
10
81.0476
20
148.1696
0
VERTEX
8
CUT
10
80.9718
20
148.2600
0
VERTEX
8
CUT
10
80.8849
20
148.3537
0
VERTEX
8
CUT
10
80.8005
20
148.4362
0
VERTEX
8
CUT
10
80.7049
20
148.5209
0
VERTEX
8
CUT
10
80.6128
20
148.5947
0
VERTEX
8
CUT
10
80.5093
20
148.6696
0
VERTEX
8
CUT
10
80.4104
20
148.7340
0
VERTEX
8
CUT
10
80.3001
20
148.7984
0
VERTEX
8
CUT
10
80.1953
20
148.8528
0
VERTEX
8
CUT
10
80.0792
20
148.9060
0
VERTEX
8
CUT
10
79.9696
20
148.9498
0
VERTEX
8
CUT
10
79.8488
20
148.9914
0
VERTEX
8
CUT
10
79.7354
20
149.0242
0
VERTEX
8
CUT
10
79.6111
20
149.0537
0
VERTEX
8
CUT
10
79.4950
20
149.0753
0
VERTEX
8
CUT
10
79.3684
20
149.0924
0
VERTEX
8
CUT
10
79.2508
20
149.1025
0
VERTEX
8
CUT
10
79.1232
20
149.1071
0
VERTEX
8
CUT
10
79.0051
20
149.1055
0
VERTEX
8
CUT
10
78.8776
20
149.0975
0
VERTEX
8
CUT
10
78.7603
20
149.0844
0
VERTEX
8
CUT
10
78.6342
20
149.0639
0
VERTEX
8
CUT
10
78.5188
20
149.0393
0
VERTEX
8
CUT
10
78.3953
20
149.0066
0
VERTEX
8
CUT
10
78.2828
20
148.9708
0
VERTEX
8
CUT
10
78.1632
20
148.9260
0
VERTEX
8
CUT
10
78.0548
20
148.8793
0
VERTEX
8
CUT
10
77.9401
20
148.8231
0
VERTEX
8
CUT
10
77.8368
20
148.7660
0
VERTEX
8
CUT
10
77.7282
20
148.6987
0
VERTEX
8
CUT
10
77.6310
20
148.6317
0
VERTEX
8
CUT
10
77.5295
20
148.5541
0
VERTEX
8
CUT
10
77.4394
20
148.4779
0
VERTEX
8
CUT
10
77.3460
20
148.3907
0
VERTEX
8
CUT
10
77.2638
20
148.3060
0
VERTEX
8
CUT
10
77.1795
20
148.2100
0
VERTEX
8
CUT
10
77.1060
20
148.1176
0
VERTEX
8
CUT
10
77.0315
20
148.0139
0
VERTEX
8
CUT
10
76.9675
20
147.9147
0
VERTEX
8
CUT
10
76.9035
20
147.8041
0
VERTEX
8
CUT
10
76.8495
20
147.6992
0
VERTEX
8
CUT
10
76.7967
20
147.5828
0
VERTEX
8
CUT
10
76.7533
20
147.4731
0
VERTEX
8
CUT
10
76.7122
20
147.3521
0
VERTEX
8
CUT
10
76.6798
20
147.2386
0
VERTEX
8
CUT
10
76.6508
20
147.1142
0
VERTEX
8
CUT
10
76.6297
20
146.9981
0
VERTEX
8
CUT
10
76.6092
20
146.8421
0
VERTEX
8
CUT
10
76.6029
20
146.7835
0
VERTEX
8
CUT
10
76.6015
20
146.7660
0
VERTEX
8
CUT
10
76.5921
20
146.6774
0
VERTEX
8
CUT
10
76.5913
20
146.6715
0
VERTEX
8
CUT
10
76.5614
20
146.5075
0
VERTEX
8
CUT
10
76.5185
20
146.3581
0
VERTEX
8
CUT
10
76.4611
20
146.2136
0
VERTEX
8
CUT
10
76.3897
20
146.0756
0
VERTEX
8
CUT
10
76.3050
20
145.9452
0
VERTEX
8
CUT
10
76.2078
20
145.8239
0
VERTEX
8
CUT
10
76.0991
20
145.7128
0
VERTEX
8
CUT
10
75.9713
20
145.6056
0
VERTEX
8
CUT
10
75.9666
20
145.6020
0
VERTEX
8
CUT
10
75.8953
20
145.5508
0
VERTEX
8
CUT
10
75.8603
20
145.5276
0
VERTEX
8
CUT
10
75.8458
20
145.5182
0
VERTEX
8
CUT
10
75.8081
20
145.4944
0
VERTEX
8
CUT
10
74.7804
20
144.8655
0
VERTEX
8
CUT
10
74.7251
20
144.8296
0
VERTEX
8
CUT
10
74.5805
20
144.7297
0
VERTEX
8
CUT
10
74.4762
20
144.6489
0
VERTEX
8
CUT
10
74.3434
20
144.5338
0
VERTEX
8
CUT
10
74.2948
20
144.4893
0
VERTEX
8
CUT
10
73.2633
20
143.4908
0
VERTEX
8
CUT
10
73.2069
20
143.4324
0
VERTEX
8
CUT
10
73.0348
20
143.2416
0
VERTEX
8
CUT
10
72.9825
20
143.1795
0
VERTEX
8
CUT
10
72.0788
20
142.0302
0
VERTEX
8
CUT
10
72.0432
20
141.9825
0
VERTEX
8
CUT
10
71.9515
20
141.8530
0
VERTEX
8
CUT
10
71.8875
20
141.7526
0
VERTEX
8
CUT
10
71.8091
20
141.6147
0
VERTEX
8
CUT
10
71.7809
20
141.5623
0
VERTEX
8
CUT
10
70.8731
20
139.7654
0
VERTEX
8
CUT
10
70.8489
20
139.7144
0
VERTEX
8
CUT
10
70.7875
20
139.5772
0
VERTEX
8
CUT
10
70.7463
20
139.4721
0
VERTEX
8
CUT
10
70.6980
20
139.3297
0
VERTEX
8
CUT
10
70.6812
20
139.2759
0
VERTEX
8
CUT
10
70.2066
20
137.6233
0
VERTEX
8
CUT
10
70.1949
20
137.5796
0
VERTEX
8
CUT
10
70.1660
20
137.4623
0
VERTEX
8
CUT
10
70.1476
20
137.3735
0
VERTEX
8
CUT
10
70.1276
20
137.2544
0
VERTEX
8
CUT
10
70.1210
20
137.2096
0
VERTEX
8
CUT
10
69.8892
20
135.4174
0
VERTEX
8
CUT
10
69.8827
20
135.3541
0
VERTEX
8
CUT
10
69.8699
20
135.1851
0
VERTEX
8
CUT
10
69.8671
20
135.0579
0
VERTEX
8
CUT
10
69.8713
20
134.9204
0
VERTEX
8
CUT
10
69.8819
20
134.7936
0
VERTEX
8
CUT
10
69.9049
20
134.6258
0
VERTEX
8
CUT
10
69.9152
20
134.5631
0
VERTEX
8
CUT
10
70.0265
20
133.9832
0
VERTEX
8
CUT
10
70.0383
20
133.9285
0
VERTEX
8
CUT
10
70.0732
20
133.7834
0
VERTEX
8
CUT
10
70.1044
20
133.6759
0
VERTEX
8
CUT
10
70.1436
20
133.5613
0
VERTEX
8
CUT
10
70.1847
20
133.4572
0
VERTEX
8
CUT
10
70.2344
20
133.3467
0
VERTEX
8
CUT
10
70.2851
20
133.2469
0
VERTEX
8
CUT
10
70.3448
20
133.1415
0
VERTEX
8
CUT
10
70.4046
20
133.0469
0
VERTEX
8
CUT
10
70.4899
20
132.9246
0
VERTEX
8
CUT
10
70.5062
20
132.9018
0
SEQEND
0
ENDSEC
0
EOF
