0
SECTION
2
HEADER
9
$ACADVER
1
AC1009
9
$INSUNITS
70
4
0
ENDSEC
0
SECTION
2
TABLES
0
TABLE
2
LAYER
70
1
0
LAYER
2
CUT
70
0
62
7
6
CONTINUOUS
0
ENDTAB
0
ENDSEC
0
SECTION
2
ENTITIES
0
POLYLINE
8
CUT
66
1
70
1
10
0.0
20
0.0
30
0.0
0
VERTEX
8
CUT
10
299.9971
20
299.9532
0
VERTEX
8
CUT
10
300.0000
20
299.8947
0
VERTEX
8
CUT
10
300.0000
20
0.0614
0
VERTEX
8
CUT
10
299.9971
20
0.0029
0
VERTEX
8
CUT
10
299.9386
20
-0.0000
0
VERTEX
8
CUT
10
0.0614
20
-0.0000
0
VERTEX
8
CUT
10
0.0029
20
0.0029
0
VERTEX
8
CUT
10
0.0000
20
0.0614
0
VERTEX
8
CUT
10
0.0000
20
299.8947
0
VERTEX
8
CUT
10
0.0029
20
299.9532
0
VERTEX
8
CUT
10
0.0614
20
299.9561
0
VERTEX
8
CUT
10
299.9386
20
299.9561
0
SEQEND
0
POLYLINE
8
CUT
66
1
70
1
10
0.0
20
0.0
30
0.0
0
VERTEX
8
CUT
10
266.5429
20
63.7393
0
VERTEX
8
CUT
10
266.5469
20
63.7300
0
VERTEX
8
CUT
10
266.5593
20
63.6948
0
VERTEX
8
CUT
10
266.5649
20
63.6583
0
VERTEX
8
CUT
10
266.5663
20
63.6408
0
VERTEX
8
CUT
10
266.5876
20
63.2886
0
VERTEX
8
CUT
10
266.6145
20
63.0440
0
VERTEX
8
CUT
10
266.6653
20
62.8032
0
VERTEX
8
CUT
10
266.7395
20
62.5685
0
VERTEX
8
CUT
10
266.8365
20
62.3423
0
VERTEX
8
CUT
10
267.1260
20
61.7494
0
VERTEX
8
CUT
10
267.2449
20
61.5335
0
VERTEX
8
CUT
10
267.8816
20
60.5016
0
VERTEX
8
CUT
10
268.0337
20
60.2822
0
VERTEX
8
CUT
10
268.2083
20
60.0803
0
VERTEX
8
CUT
10
268.4612
20
59.8177
0
VERTEX
8
CUT
10
268.6251
20
59.6622
0
VERTEX
8
CUT
10
268.8024
20
59.5221
0
VERTEX
8
CUT
10
268.9917
20
59.3986
0
VERTEX
8
CUT
10
270.5547
20
58.4764
0
VERTEX
8
CUT
10
270.7936
20
58.3522
0
VERTEX
8
CUT
10
271.0446
20
58.2545
0
VERTEX
8
CUT
10
271.4287
20
58.1283
0
VERTEX
8
CUT
10
271.6445
20
58.0679
0
VERTEX
8
CUT
10
271.8648
20
58.0272
0
VERTEX
8
CUT
10
273.1130
20
57.8536
0
VERTEX
8
CUT
10
273.3607
20
57.8316
0
VERTEX
8
CUT
10
273.6093
20
57.8344
0
VERTEX
8
CUT
10
273.8564
20
57.8618
0
VERTEX
8
CUT
10
274.0996
20
57.9137
0
VERTEX
8
CUT
10
274.3360
20
57.9893
0
VERTEX
8
CUT
10
274.3786
20
58.0014
0
VERTEX
8
CUT
10
274.4219
20
58.0088
0
VERTEX
8
CUT
10
274.4422
20
58.0105
0
VERTEX
8
CUT
10
274.8808
20
58.0369
0
VERTEX
8
CUT
10
275.1444
20
58.0668
0
VERTEX
8
CUT
10
275.4034
20
58.1246
0
VERTEX
8
CUT
10
275.6548
20
58.2094
0
VERTEX
8
CUT
10
276.3797
20
58.4977
0
VERTEX
8
CUT
10
276.6524
20
58.6257
0
VERTEX
8
CUT
10
276.9077
20
58.7856
0
VERTEX
8
CUT
10
277.5253
20
59.2263
0
VERTEX
8
CUT
10
277.6915
20
59.3557
0
VERTEX
8
CUT
10
277.8461
20
59.4987
0
VERTEX
8
CUT
10
278.7543
20
60.4121
0
VERTEX
8
CUT
10
278.9006
20
60.5727
0
VERTEX
8
CUT
10
279.0325
20
60.7453
0
VERTEX
8
CUT
10
279.1488
20
60.9288
0
VERTEX
8
CUT
10
279.2488
20
61.1216
0
VERTEX
8
CUT
10
280.0563
20
62.8602
0
VERTEX
8
CUT
10
280.1558
20
63.1081
0
VERTEX
8
CUT
10
280.2282
20
63.3652
0
VERTEX
8
CUT
10
280.2727
20
63.6286
0
VERTEX
8
CUT
10
280.2889
20
63.8952
0
VERTEX
8
CUT
10
280.2971
20
65.0184
0
VERTEX
8
CUT
10
280.2876
20
65.2554
0
VERTEX
8
CUT
10
280.2556
20
65.4903
0
VERTEX
8
CUT
10
280.2016
20
65.7212
0
VERTEX
8
CUT
10
280.1259
20
65.9459
0
VERTEX
8
CUT
10
280.0891
20
66.0402
0
VERTEX
8
CUT
10
280.0825
20
66.0586
0
VERTEX
8
CUT
10
280.0713
20
66.0991
0
VERTEX
8
CUT
10
280.0645
20
66.1405
0
VERTEX
8
CUT
10
280.0628
20
66.1600
0
VERTEX
8
CUT
10
280.0435
20
66.4806
0
VERTEX
8
CUT
10
280.0147
20
66.7369
0
VERTEX
8
CUT
10
279.9596
20
66.9889
0
VERTEX
8
CUT
10
279.8789
20
67.2339
0
VERTEX
8
CUT
10
279.7734
20
67.4692
0
VERTEX
8
CUT
10
279.6365
20
67.7366
0
VERTEX
8
CUT
10
279.5070
20
67.9603
0
VERTEX
8
CUT
10
279.3550
20
68.1695
0
VERTEX
8
CUT
10
279.1822
20
68.3619
0
VERTEX
8
CUT
10
277.1203
20
70.4315
0
VERTEX
8
CUT
10
276.9555
20
70.5829
0
VERTEX
8
CUT
10
276.7777
20
70.7188
0
VERTEX
8
CUT
10
276.4270
20
70.9630
0
VERTEX
8
CUT
10
276.2245
20
71.0901
0
VERTEX
8
CUT
10
276.0108
20
71.1972
0
VERTEX
8
CUT
10
275.7879
20
71.2834
0
VERTEX
8
CUT
10
274.8288
20
71.6026
0
VERTEX
8
CUT
10
274.5789
20
71.6716
0
VERTEX
8
CUT
10
274.3231
20
71.7143
0
VERTEX
8
CUT
10
274.0643
20
71.7303
0
VERTEX
8
CUT
10
272.8748
20
71.7421
0
VERTEX
8
CUT
10
272.5720
20
71.7268
0
VERTEX
8
CUT
10
272.2733
20
71.6748
0
VERTEX
8
CUT
10
271.6162
20
71.5191
0
VERTEX
8
CUT
10
271.3360
20
71.4351
0
VERTEX
8
CUT
10
271.0675
20
71.3189
0
VERTEX
8
CUT
10
269.9383
20
70.7496
0
VERTEX
8
CUT
10
269.7123
20
70.6205
0
VERTEX
8
CUT
10
269.5010
20
70.4686
0
VERTEX
8
CUT
10
268.4518
20
69.6284
0
VERTEX
8
CUT
10
268.2787
20
69.4761
0
VERTEX
8
CUT
10
268.1203
20
69.3086
0
VERTEX
8
CUT
10
267.9781
20
69.1272
0
VERTEX
8
CUT
10
267.8532
20
68.9334
0
VERTEX
8
CUT
10
267.0529
20
67.5567
0
VERTEX
8
CUT
10
266.9560
20
67.3728
0
VERTEX
8
CUT
10
266.8747
20
67.1813
0
VERTEX
8
CUT
10
266.8095
20
66.9838
0
VERTEX
8
CUT
10
266.4336
20
65.6611
0
VERTEX
8
CUT
10
266.3804
20
65.4343
0
VERTEX
8
CUT
10
266.3486
20
65.2036
0
VERTEX
8
CUT
10
266.3384
20
64.9710
0
VERTEX
8
CUT
10
266.3390
20
64.7215
0
VERTEX
8
CUT
10
266.3524
20
64.4695
0
VERTEX
8
CUT
10
266.3912
20
64.2201
0
VERTEX
8
CUT
10
266.4549
20
63.9759
0
SEQEND
0
POLYLINE
8
CUT
66
1
70
1
10
0.0
20
0.0
30
0.0
0
VERTEX
8
CUT
10
182.0542
20
81.4602
0
VERTEX
8
CUT
10
181.8995
20
81.2732
0
VERTEX
8
CUT
10
181.7637
20
81.0720
0
VERTEX
8
CUT
10
181.6480
20
80.8587
0
VERTEX
8
CUT
10
181.5536
20
80.6351
0
VERTEX
8
CUT
10
181.4813
20
80.4034
0
VERTEX
8
CUT
10
181.4318
20
80.1659
0
VERTEX
8
CUT
10
181.4055
20
79.9246
0
VERTEX
8
CUT
10
181.4028
20
79.6819
0
VERTEX
8
CUT
10
181.4236
20
79.4401
0
VERTEX
8
CUT
10
181.4678
20
79.2015
0
VERTEX
8
CUT
10
181.5349
20
78.9683
0
VERTEX
8
CUT
10
181.6243
20
78.7426
0
VERTEX
8
CUT
10
181.7351
20
78.5267
0
VERTEX
8
CUT
10
181.8664
20
78.3226
0
VERTEX
8
CUT
10
182.0168
20
78.1322
0
VERTEX
8
CUT
10
182.1850
20
77.9572
0
VERTEX
8
CUT
10
182.3694
20
77.7994
0
VERTEX
8
CUT
10
182.5682
20
77.6602
0
VERTEX
8
CUT
10
182.7795
20
77.5409
0
VERTEX
8
CUT
10
183.0014
20
77.4427
0
VERTEX
8
CUT
10
183.1608
20
77.3813
0
VERTEX
8
CUT
10
183.2407
20
77.3470
0
VERTEX
8
CUT
10
183.3179
20
77.3071
0
VERTEX
8
CUT
10
185.7800
20
75.9167
0
VERTEX
8
CUT
10
185.7840
20
75.9143
0
VERTEX
8
CUT
10
185.8440
20
75.8747
0
VERTEX
8
CUT
10
185.8571
20
75.8649
0
VERTEX
8
CUT
10
188.4015
20
73.8777
0
VERTEX
8
CUT
10
188.4057
20
73.8743
0
VERTEX
8
CUT
10
188.4666
20
73.8182
0
VERTEX
8
CUT
10
188.4795
20
73.8046
0
VERTEX
8
CUT
10
191.5962
20
70.3649
0
VERTEX
8
CUT
10
191.6458
20
70.3065
0
VERTEX
8
CUT
10
191.6915
20
70.2451
0
VERTEX
8
CUT
10
197.6012
20
61.7472
0
VERTEX
8
CUT
10
197.7071
20
61.6059
0
VERTEX
8
CUT
10
199.8314
20
58.9698
0
VERTEX
8
CUT
10
199.9960
20
58.7851
0
VERTEX
8
CUT
10
202.3817
20
56.3604
0
VERTEX
8
CUT
10
202.5977
20
56.1651
0
VERTEX
8
CUT
10
203.8770
20
55.1370
0
VERTEX
8
CUT
10
204.1469
20
54.9479
0
VERTEX
8
CUT
10
206.4571
20
53.5471
0
VERTEX
8
CUT
10
206.6538
20
53.4395
0
VERTEX
8
CUT
10
206.8594
20
53.3501
0
VERTEX
8
CUT
10
207.0722
20
53.2794
0
VERTEX
8
CUT
10
208.4463
20
52.8902
0
VERTEX
8
CUT
10
208.6728
20
52.8374
0
VERTEX
8
CUT
10
208.9033
20
52.8057
0
VERTEX
8
CUT
10
209.1357
20
52.7957
0
VERTEX
8
CUT
10
210.4674
20
52.8000
0
VERTEX
8
CUT
10
210.7319
20
52.8149
0
VERTEX
8
CUT
10
210.9933
20
52.8578
0
VERTEX
8
CUT
10
211.2487
20
52.9280
0
VERTEX
8
CUT
10
211.4953
20
53.0248
0
VERTEX
8
CUT
10
212.6701
20
53.5598
0
VERTEX
8
CUT
10
212.8677
20
53.6606
0
VERTEX
8
CUT
10
213.0556
20
53.7786
0
VERTEX
8
CUT
10
213.2323
20
53.9127
0
VERTEX
8
CUT
10
213.3964
20
54.0619
0
VERTEX
8
CUT
10
214.3025
20
54.9625
0
VERTEX
8
CUT
10
214.4430
20
55.1142
0
VERTEX
8
CUT
10
214.5704
20
55.2769
0
VERTEX
8
CUT
10
215.0230
20
55.9068
0
VERTEX
8
CUT
10
215.1611
20
56.1214
0
VERTEX
8
CUT
10
215.2767
20
56.3490
0
VERTEX
8
CUT
10
216.1884
20
58.3974
0
VERTEX
8
CUT
10
216.2840
20
58.6476
0
VERTEX
8
CUT
10
216.3523
20
58.9065
0
VERTEX
8
CUT
10
216.8002
20
61.0670
0
VERTEX
8
CUT
10
216.8389
20
61.3169
0
VERTEX
8
CUT
10
216.8522
20
61.5695
0
VERTEX
8
CUT
10
216.8627
20
66.9159
0
VERTEX
8
CUT
10
216.8547
20
67.1210
0
VERTEX
8
CUT
10
216.8298
20
67.3249
0
VERTEX
8
CUT
10
216.0423
20
72.1325
0
VERTEX
8
CUT
10
216.0009
20
72.3334
0
VERTEX
8
CUT
10
215.2326
20
75.4134
0
VERTEX
8
CUT
10
215.1332
20
75.7241
0
VERTEX
8
CUT
10
214.7268
20
76.7566
0
VERTEX
8
CUT
10
214.7207
20
76.7732
0
VERTEX
8
CUT
10
214.6996
20
76.8462
0
VERTEX
8
CUT
10
214.6959
20
76.8634
0
VERTEX
8
CUT
10
214.4058
20
78.3890
0
VERTEX
8
CUT
10
214.3514
20
78.6163
0
VERTEX
8
CUT
10
214.2761
20
78.8377
0
VERTEX
8
CUT
10
213.8956
20
79.8042
0
VERTEX
8
CUT
10
213.8896
20
79.8206
0
VERTEX
8
CUT
10
213.8791
20
79.8568
0
VERTEX
8
CUT
10
213.8720
20
79.8939
0
VERTEX
8
CUT
10
213.8699
20
79.9112
0
VERTEX
8
CUT
10
213.8389
20
80.2354
0
VERTEX
8
CUT
10
213.8092
20
80.4485
0
VERTEX
8
CUT
10
213.7612
20
80.6583
0
VERTEX
8
CUT
10
213.6954
20
80.8632
0
VERTEX
8
CUT
10
213.0733
20
82.5474
0
VERTEX
8
CUT
10
213.0470
20
82.6271
0
VERTEX
8
CUT
10
213.0264
20
82.7084
0
VERTEX
8
CUT
10
211.6531
20
89.0570
0
VERTEX
8
CUT
10
211.6499
20
89.0741
0
VERTEX
8
CUT
10
211.6408
20
89.1488
0
VERTEX
8
CUT
10
211.6399
20
89.1662
0
VERTEX
8
CUT
10
211.6048
20
90.4296
0
VERTEX
8
CUT
10
211.5904
20
90.6363
0
VERTEX
8
CUT
10
211.5590
20
90.8410
0
VERTEX
8
CUT
10
211.5108
20
91.0424
0
VERTEX
8
CUT
10
211.3722
20
91.5308
0
VERTEX
8
CUT
10
211.3680
20
91.5472
0
VERTEX
8
CUT
10
211.3612
20
91.5832
0
VERTEX
8
CUT
10
211.3577
20
91.6199
0
VERTEX
8
CUT
10
211.3572
20
91.6363
0
VERTEX
8
CUT
10
211.3391
20
95.0021
0
VERTEX
8
CUT
10
211.3399
20
95.0511
0
VERTEX
8
CUT
10
211.3426
20
95.1000
0
VERTEX
8
CUT
10
211.6567
20
99.1825
0
VERTEX
8
CUT
10
211.6585
20
99.2008
0
VERTEX
8
CUT
10
211.6722
20
99.2788
0
VERTEX
8
CUT
10
211.6767
20
99.2966
0
VERTEX
8
CUT
10
212.8960
20
103.6711
0
VERTEX
8
CUT
10
212.9500
20
103.9090
0
VERTEX
8
CUT
10
212.9805
20
104.1511
0
VERTEX
8
CUT
10
212.9872
20
104.3949
0
VERTEX
8
CUT
10
212.9702
20
104.6383
0
VERTEX
8
CUT
10
212.9295
20
104.8788
0
VERTEX
8
CUT
10
212.8656
20
105.1143
0
VERTEX
8
CUT
10
212.7791
20
105.3424
0
VERTEX
8
CUT
10
212.6707
20
105.5609
0
VERTEX
8
CUT
10
212.5415
20
105.7679
0
VERTEX
8
CUT
10
212.3928
20
105.9613
0
VERTEX
8
CUT
10
212.2259
20
106.1392
0
VERTEX
8
CUT
10
212.0425
20
106.3001
0
VERTEX
8
CUT
10
211.8443
20
106.4423
0
VERTEX
8
CUT
10
211.6331
20
106.5645
0
VERTEX
8
CUT
10
211.4111
20
106.6656
0
VERTEX
8
CUT
10
211.1802
20
106.7445
0
VERTEX
8
CUT
10
210.9428
20
106.8006
0
VERTEX
8
CUT
10
210.7010
20
106.8332
0
VERTEX
8
CUT
10
210.4572
20
106.8421
0
VERTEX
8
CUT
10
210.2137
20
106.8272
0
VERTEX
8
CUT
10
209.9728
20
106.7887
0
VERTEX
8
CUT
10
209.7368
20
106.7268
0
VERTEX
8
CUT
10
209.5080
20
106.6423
0
VERTEX
8
CUT
10
209.2885
20
106.5358
0
VERTEX
8
CUT
10
209.0804
20
106.4085
0
VERTEX
8
CUT
10
208.8857
20
106.2615
0
VERTEX
8
CUT
10
208.7063
20
106.0962
0
VERTEX
8
CUT
10
208.5438
20
105.9142
0
VERTEX
8
CUT
10
208.3998
20
105.7172
0
VERTEX
8
CUT
10
208.2758
20
105.5072
0
VERTEX
8
CUT
10
206.4176
20
101.9786
0
VERTEX
8
CUT
10
206.3988
20
101.9443
0
VERTEX
8
CUT
10
206.3790
20
101.9107
0
VERTEX
8
CUT
10
203.3224
20
96.9274
0
VERTEX
8
CUT
10
203.2882
20
96.8748
0
VERTEX
8
CUT
10
203.2514
20
96.8242
0
VERTEX
8
CUT
10
201.5472
20
94.6069
0
VERTEX
8
CUT
10
201.5015
20
94.5511
0
VERTEX
8
CUT
10
201.4527
20
94.4982
0
VERTEX
8
CUT
10
198.1800
20
91.1648
0
VERTEX
8
CUT
10
198.1675
20
91.1523
0
VERTEX
8
CUT
10
198.1402
20
91.1260
0
VERTEX
8
CUT
10
196.8504
20
89.9208
0
VERTEX
8
CUT
10
196.7973
20
89.8740
0
VERTEX
8
CUT
10
196.7414
20
89.8305
0
VERTEX
8
CUT
10
193.7914
20
87.6675
0
VERTEX
8
CUT
10
193.7310
20
87.6261
0
VERTEX
8
CUT
10
193.6683
20
87.5884
0
VERTEX
8
CUT
10
188.8176
20
84.8762
0
VERTEX
8
CUT
10
188.7824
20
84.8573
0
VERTEX
8
CUT
10
188.7465
20
84.8396
0
VERTEX
8
CUT
10
182.8300
20
82.0342
0
VERTEX
8
CUT
10
182.6160
20
81.9197
0
VERTEX
8
CUT
10
182.4141
20
81.7850
0
VERTEX
8
CUT
10
182.2262
20
81.6313
0
SEQEND
0
POLYLINE
8
CUT
66
1
70
1
10
0.0
20
0.0
30
0.0
0
VERTEX
8
CUT
10
136.4160
20
118.3698
0
VERTEX
8
CUT
10
136.1832
20
118.2869
0
VERTEX
8
CUT
10
135.9598
20
118.1814
0
VERTEX
8
CUT
10
135.7479
20
118.0544
0
VERTEX
8
CUT
10
135.5495
20
117.9071
0
VERTEX
8
CUT
10
135.3667
20
117.7409
0
VERTEX
8
CUT
10
135.2011
20
117.5575
0
VERTEX
8
CUT
10
135.0545
20
117.3586
0
VERTEX
8
CUT
10
134.9282
20
117.1462
0
VERTEX
8
CUT
10
134.8234
20
116.9224
0
VERTEX
8
CUT
10
134.7413
20
116.6894
0
VERTEX
8
CUT
10
134.6826
20
116.4494
0
VERTEX
8
CUT
10
134.6479
20
116.2048
0
VERTEX
8
CUT
10
134.6375
20
115.9579
0
VERTEX
8
CUT
10
134.6515
20
115.7112
0
VERTEX
8
CUT
10
134.6898
20
115.4671
0
VERTEX
8
CUT
10
134.7520
20
115.2280
0
VERTEX
8
CUT
10
134.8375
20
114.9962
0
VERTEX
8
CUT
10
134.9455
20
114.7739
0
VERTEX
8
CUT
10
135.0749
20
114.5634
0
VERTEX
8
CUT
10
135.2244
20
114.3667
0
VERTEX
8
CUT
10
135.3926
20
114.1857
0
VERTEX
8
CUT
10
135.8149
20
113.7741
0
VERTEX
8
CUT
10
136.0472
20
113.5740
0
VERTEX
8
CUT
10
136.9384
20
112.8968
0
VERTEX
8
CUT
10
137.1288
20
112.7656
0
VERTEX
8
CUT
10
137.3306
20
112.6524
0
VERTEX
8
CUT
10
140.4464
20
111.0905
0
VERTEX
8
CUT
10
140.7787
20
110.9529
0
VERTEX
8
CUT
10
143.8131
20
109.9451
0
VERTEX
8
CUT
10
144.0349
20
109.8826
0
VERTEX
8
CUT
10
144.2615
20
109.8409
0
VERTEX
8
CUT
10
144.4910
20
109.8201
0
VERTEX
8
CUT
10
145.2966
20
109.7846
0
VERTEX
8
CUT
10
145.3157
20
109.7833
0
VERTEX
8
CUT
10
145.3548
20
109.7778
0
VERTEX
8
CUT
10
145.3932
20
109.7685
0
VERTEX
8
CUT
10
145.4114
20
109.7627
0
VERTEX
8
CUT
10
145.6590
20
109.6770
0
VERTEX
8
CUT
10
145.9256
20
109.6010
0
VERTEX
8
CUT
10
146.1990
20
109.5550
0
VERTEX
8
CUT
10
146.4758
20
109.5396
0
VERTEX
8
CUT
10
150.5040
20
109.5385
0
VERTEX
8
CUT
10
150.7181
20
109.5476
0
VERTEX
8
CUT
10
150.9307
20
109.5750
0
VERTEX
8
CUT
10
153.8487
20
110.0797
0
VERTEX
8
CUT
10
154.0938
20
110.1349
0
VERTEX
8
CUT
10
154.3321
20
110.2144
0
VERTEX
8
CUT
10
154.9601
20
110.4596
0
VERTEX
8
CUT
10
155.1865
20
110.5612
0
VERTEX
8
CUT
10
155.4016
20
110.6848
0
VERTEX
8
CUT
10
155.6035
20
110.8291
0
VERTEX
8
CUT
10
155.7901
20
110.9927
0
VERTEX
8
CUT
10
155.9595
20
111.1739
0
VERTEX
8
CUT
10
156.1102
20
111.3711
0
VERTEX
8
CUT
10
156.2405
20
111.5822
0
VERTEX
8
CUT
10
156.3493
20
111.8053
0
VERTEX
8
CUT
10
156.4354
20
112.0380
0
VERTEX
8
CUT
10
156.4981
20
112.2781
0
VERTEX
8
CUT
10
156.5366
20
112.5232
0
VERTEX
8
CUT
10
156.5506
20
112.7709
0
VERTEX
8
CUT
10
156.5401
20
113.0188
0
VERTEX
8
CUT
10
156.5049
20
113.2644
0
VERTEX
8
CUT
10
156.4457
20
113.5054
0
VERTEX
8
CUT
10
156.3628
20
113.7393
0
VERTEX
8
CUT
10
156.2571
20
113.9638
0
VERTEX
8
CUT
10
156.1297
20
114.1767
0
VERTEX
8
CUT
10
155.9819
20
114.3760
0
VERTEX
8
CUT
10
155.8150
20
114.5596
0
VERTEX
8
CUT
10
155.6307
20
114.7258
0
VERTEX
8
CUT
10
155.4831
20
114.8344
0
VERTEX
8
CUT
10
155.4567
20
114.8557
0
VERTEX
8
CUT
10
155.4319
20
114.8849
0
VERTEX
8
CUT
10
155.4210
20
114.8997
0
VERTEX
8
CUT
10
155.1741
20
115.2526
0
VERTEX
8
CUT
10
155.1639
20
115.2680
0
VERTEX
8
CUT
10
155.1451
20
115.3009
0
VERTEX
8
CUT
10
155.1362
20
115.3377
0
VERTEX
8
CUT
10
155.1331
20
115.3559
0
VERTEX
8
CUT
10
155.0473
20
115.9451
0
VERTEX
8
CUT
10
155.0451
20
115.9624
0
VERTEX
8
CUT
10
155.0431
20
115.9986
0
VERTEX
8
CUT
10
155.0474
20
116.0341
0
VERTEX
8
CUT
10
155.0506
20
116.0515
0
VERTEX
8
CUT
10
155.2362
20
116.9294
0
VERTEX
8
CUT
10
155.2397
20
116.9441
0
VERTEX
8
CUT
10
155.5671
20
118.4949
0
VERTEX
8
CUT
10
155.5940
20
118.6661
0
VERTEX
8
CUT
10
155.6075
20
118.7516
0
VERTEX
8
CUT
10
155.6075
20
118.7518
0
VERTEX
8
CUT
10
155.6076
20
118.7519
0
VERTEX
8
CUT
10
155.6211
20
119.0117
0
VERTEX
8
CUT
10
155.6207
20
122.0784
0
VERTEX
8
CUT
10
155.6119
20
122.2871
0
VERTEX
8
CUT
10
155.5858
20
122.4943
0
VERTEX
8
CUT
10
155.5424
20
122.6986
0
VERTEX
8
CUT
10
155.1029
20
124.4140
0
VERTEX
8
CUT
10
155.0987
20
124.4325
0
VERTEX
8
CUT
10
155.0865
20
124.5101
0
VERTEX
8
CUT
10
155.0849
20
124.5290
0
VERTEX
8
CUT
10
155.0536
20
125.0499
0
VERTEX
8
CUT
10
155.0264
20
125.2974
0
VERTEX
8
CUT
10
154.9746
20
125.5409
0
VERTEX
8
CUT
10
154.8989
20
125.7781
0
VERTEX
8
CUT
10
154.1850
20
127.6810
0
VERTEX
8
CUT
10
154.0931
20
127.8872
0
VERTEX
8
CUT
10
154.0625
20
127.9559
0
VERTEX
8
CUT
10
153.9217
20
128.2268
0
VERTEX
8
CUT
10
153.9003
20
128.2680
0
VERTEX
8
CUT
10
153.5181
20
129.0032
0
VERTEX
8
CUT
10
153.4961
20
129.0511
0
VERTEX
8
CUT
10
153.5443
20
129.0297
0
VERTEX
8
CUT
10
153.8437
20
128.8794
0
VERTEX
8
CUT
10
153.8481
20
128.8771
0
VERTEX
8
CUT
10
153.9119
20
128.8390
0
VERTEX
8
CUT
10
153.9259
20
128.8295
0
VERTEX
8
CUT
10
156.7055
20
126.8474
0
VERTEX
8
CUT
10
156.7094
20
126.8444
0
VERTEX
8
CUT
10
156.7669
20
126.7967
0
VERTEX
8
CUT
10
156.7793
20
126.7851
0
VERTEX
8
CUT
10
159.3091
20
124.3109
0
VERTEX
8
CUT
10
159.3516
20
124.2672
0
VERTEX
8
CUT
10
159.3918
20
124.2214
0
VERTEX
8
CUT
10
160.8407
20
122.4809
0
VERTEX
8
CUT
10
160.8789
20
122.4325
0
VERTEX
8
CUT
10
160.9145
20
122.3823
0
VERTEX
8
CUT
10
162.5725
20
119.9108
0
VERTEX
8
CUT
10
162.6139
20
119.8446
0
VERTEX
8
CUT
10
162.6508
20
119.7758
0
VERTEX
8
CUT
10
163.6692
20
117.7193
0
VERTEX
8
CUT
10
163.6937
20
117.6630
0
VERTEX
8
CUT
10
163.6945
20
117.6006
0
VERTEX
8
CUT
10
163.6900
20
117.4758
0
VERTEX
8
CUT
10
163.7059
20
117.2262
0
VERTEX
8
CUT
10
163.7467
20
116.9794
0
VERTEX
8
CUT
10
163.8119
20
116.7380
0
VERTEX
8
CUT
10
163.9009
20
116.5042
0
VERTEX
8
CUT
10
164.0129
20
116.2805
0
VERTEX
8
CUT
10
164.1466
20
116.0692
0
VERTEX
8
CUT
10
164.3008
20
115.8722
0
VERTEX
8
CUT
10
164.4739
20
115.6917
0
VERTEX
8
CUT
10
164.6642
20
115.5293
0
VERTEX
8
CUT
10
164.8653
20
115.3898
0
VERTEX
8
CUT
10
164.8670
20
115.3885
0
VERTEX
8
CUT
10
164.9025
20
115.3387
0
VERTEX
8
CUT
10
165.3685
20
114.6122
0
VERTEX
8
CUT
10
165.3786
20
114.5954
0
VERTEX
8
CUT
10
165.3977
20
114.5574
0
VERTEX
8
CUT
10
165.4259
20
114.4823
0
VERTEX
8
CUT
10
165.5278
20
114.2484
0
VERTEX
8
CUT
10
165.6529
20
114.0260
0
VERTEX
8
CUT
10
165.8002
20
113.8175
0
VERTEX
8
CUT
10
165.9678
20
113.6251
0
VERTEX
8
CUT
10
166.1543
20
113.4508
0
VERTEX
8
CUT
10
166.3575
20
113.2965
0
VERTEX
8
CUT
10
166.5754
20
113.1636
0
VERTEX
8
CUT
10
166.6456
20
113.1256
0
VERTEX
8
CUT
10
166.7380
20
113.0631
0
VERTEX
8
CUT
10
166.8239
20
112.9918
0
VERTEX
8
CUT
10
166.9023
20
112.9124
0
VERTEX
8
CUT
10
166.9725
20
112.8257
0
VERTEX
8
CUT
10
167.0339
20
112.7325
0
VERTEX
8
CUT
10
167.0859
20
112.6337
0
VERTEX
8
CUT
10
167.1278
20
112.5303
0
VERTEX
8
CUT
10
167.1594
20
112.4232
0
VERTEX
8
CUT
10
167.1804
20
112.3136
0
VERTEX
8
CUT
10
167.1905
20
112.2025
0
VERTEX
8
CUT
10
167.1896
20
112.0909
0
VERTEX
8
CUT
10
167.1777
20
111.9799
0
VERTEX
8
CUT
10
167.1550
20
111.8706
0
VERTEX
8
CUT
10
167.1217
20
111.7641
0
VERTEX
8
CUT
10
167.0781
20
111.6614
0
VERTEX
8
CUT
10
167.0246
20
111.5635
0
VERTEX
8
CUT
10
166.9617
20
111.4713
0
VERTEX
8
CUT
10
166.8901
20
111.3857
0
VERTEX
8
CUT
10
166.8104
20
111.3076
0
VERTEX
8
CUT
10
166.7234
20
111.2376
0
VERTEX
8
CUT
10
166.6253
20
111.1735
0
VERTEX
8
CUT
10
166.6084
20
111.1636
0
VERTEX
8
CUT
10
166.5546
20
111.1339
0
VERTEX
8
CUT
10
163.5083
20
109.5466
0
VERTEX
8
CUT
10
163.3318
20
109.4453
0
VERTEX
8
CUT
10
160.1007
20
107.4115
0
VERTEX
8
CUT
10
160.0503
20
107.3814
0
VERTEX
8
CUT
10
160.0085
20
107.3577
0
VERTEX
8
CUT
10
159.9567
20
107.3300
0
VERTEX
8
CUT
10
158.9431
20
106.8179
0
VERTEX
8
CUT
10
158.7265
20
106.6946
0
VERTEX
8
CUT
10
158.5233
20
106.5503
0
VERTEX
8
CUT
10
158.3355
20
106.3866
0
VERTEX
8
CUT
10
158.1649
20
106.2049
0
VERTEX
8
CUT
10
158.0133
20
106.0072
0
VERTEX
8
CUT
10
157.8820
20
105.7953
0
VERTEX
8
CUT
10
157.7726
20
105.5714
0
VERTEX
8
CUT
10
157.6859
20
105.3378
0
VERTEX
8
CUT
10
157.6230
20
105.0966
0
VERTEX
8
CUT
10
157.5844
20
104.8504
0
VERTEX
8
CUT
10
157.5704
20
104.6016
0
VERTEX
8
CUT
10
157.5813
20
104.3527
0
VERTEX
8
CUT
10
157.6170
20
104.1060
0
VERTEX
8
CUT
10
157.6770
20
103.8642
0
VERTEX
8
CUT
10
157.7608
20
103.6295
0
VERTEX
8
CUT
10
157.8676
20
103.4043
0
VERTEX
8
CUT
10
157.9962
20
103.1909
0
VERTEX
8
CUT
10
158.1455
20
102.9913
0
VERTEX
8
CUT
10
158.3139
20
102.8076
0
VERTEX
8
CUT
10
158.4997
20
102.6415
0
VERTEX
8
CUT
10
158.7011
20
102.4948
0
VERTEX
8
CUT
10
158.9162
20
102.3689
0
VERTEX
8
CUT
10
159.1427
20
102.2650
0
VERTEX
8
CUT
10
159.3784
20
102.1842
0
VERTEX
8
CUT
10
159.6210
20
102.1272
0
VERTEX
8
CUT
10
159.8681
20
102.0947
0
VERTEX
8
CUT
10
160.1172
20
102.0870
0
VERTEX
8
CUT
10
160.3658
20
102.1040
0
VERTEX
8
CUT
10
160.6115
20
102.1458
0
VERTEX
8
CUT
10
161.5510
20
102.3541
0
VERTEX
8
CUT
10
161.8751
20
102.4493
0
VERTEX
8
CUT
10
166.8479
20
104.2838
0
VERTEX
8
CUT
10
167.1717
20
104.4302
0
VERTEX
8
CUT
10
170.4854
20
106.2219
0
VERTEX
8
CUT
10
170.6889
20
106.3448
0
VERTEX
8
CUT
10
173.7855
20
108.4216
0
VERTEX
8
CUT
10
173.9992
20
108.5821
0
VERTEX
8
CUT
10
177.3303
20
111.3750
0
VERTEX
8
CUT
10
177.4696
20
111.5009
0
VERTEX
8
CUT
10
179.1019
20
113.0928
0
VERTEX
8
CUT
10
179.2409
20
113.2397
0
VERTEX
8
CUT
10
190.1495
20
125.7515
0
VERTEX
8
CUT
10
190.1908
20
125.7965
0
VERTEX
8
CUT
10
190.2342
20
125.8392
0
VERTEX
8
CUT
10
194.7599
20
130.0676
0
VERTEX
8
CUT
10
194.7961
20
130.1001
0
VERTEX
8
CUT
10
194.8336
20
130.1311
0
VERTEX
8
CUT
10
198.7033
20
133.1961
0
VERTEX
8
CUT
10
198.7413
20
133.2250
0
VERTEX
8
CUT
10
198.7805
20
133.2523
0
VERTEX
8
CUT
10
202.9600
20
136.0493
0
VERTEX
8
CUT
10
202.9909
20
136.0693
0
VERTEX
8
CUT
10
203.0224
20
136.0884
0
VERTEX
8
CUT
10
204.4171
20
136.9018
0
VERTEX
8
CUT
10
204.6217
20
137.0349
0
VERTEX
8
CUT
10
204.8122
20
137.1873
0
VERTEX
8
CUT
10
204.9870
20
137.3575
0
VERTEX
8
CUT
10
205.1444
20
137.5440
0
VERTEX
8
CUT
10
205.2829
20
137.7449
0
VERTEX
8
CUT
10
205.4011
20
137.9583
0
VERTEX
8
CUT
10
205.4979
20
138.1823
0
VERTEX
8
CUT
10
205.5725
20
138.4146
0
VERTEX
8
CUT
10
205.6241
20
138.6531
0
VERTEX
8
CUT
10
205.6521
20
138.8954
0
VERTEX
8
CUT
10
205.6564
20
139.1394
0
VERTEX
8
CUT
10
205.6369
20
139.3826
0
VERTEX
8
CUT
10
205.5938
20
139.6228
0
VERTEX
8
CUT
10
205.5274
20
139.8576
0
VERTEX
8
CUT
10
205.4385
20
140.0848
0
VERTEX
8
CUT
10
205.3279
20
140.3023
0
VERTEX
8
CUT
10
205.1966
20
140.5079
0
VERTEX
8
CUT
10
205.0459
20
140.6998
0
VERTEX
8
CUT
10
204.8772
20
140.8761
0
VERTEX
8
CUT
10
204.6921
20
141.0351
0
VERTEX
8
CUT
10
204.4924
20
141.1752
0
VERTEX
8
CUT
10
204.2800
20
141.2953
0
VERTEX
8
CUT
10
204.0569
20
141.3941
0
VERTEX
8
CUT
10
203.8252
20
141.4706
0
VERTEX
8
CUT
10
203.5871
20
141.5242
0
VERTEX
8
CUT
10
203.3450
20
141.5543
0
VERTEX
8
CUT
10
203.1011
20
141.5607
0
VERTEX
8
CUT
10
202.9609
20
141.5576
0
VERTEX
8
CUT
10
202.7088
20
141.5391
0
VERTEX
8
CUT
10
202.4599
20
141.4953
0
VERTEX
8
CUT
10
200.5766
20
141.0645
0
VERTEX
8
CUT
10
200.5597
20
141.0610
0
VERTEX
8
CUT
10
200.4860
20
141.0511
0
VERTEX
8
CUT
10
200.4688
20
141.0500
0
VERTEX
8
CUT
10
199.4038
20
141.0055
0
VERTEX
8
CUT
10
199.1716
20
140.9849
0
VERTEX
8
CUT
10
198.9423
20
140.9428
0
VERTEX
8
CUT
10
198.7179
20
140.8794
0
VERTEX
8
CUT
10
191.6660
20
138.5295
0
VERTEX
8
CUT
10
191.3617
20
138.4054
0
VERTEX
8
CUT
10
182.7036
20
134.1889
0
VERTEX
8
CUT
10
182.6318
20
134.1568
0
VERTEX
8
CUT
10
182.5580
20
134.1295
0
VERTEX
8
CUT
10
179.2854
20
133.0410
0
VERTEX
8
CUT
10
179.2803
20
133.0394
0
VERTEX
8
CUT
10
179.2306
20
133.0272
0
VERTEX
8
CUT
10
179.2044
20
133.0233
0
VERTEX
8
CUT
10
179.1807
20
133.0212
0
VERTEX
8
CUT
10
178.7163
20
132.9919
0
VERTEX
8
CUT
10
178.4437
20
132.9596
0
VERTEX
8
CUT
10
178.1762
20
132.8976
0
VERTEX
8
CUT
10
177.9172
20
132.8066
0
VERTEX
8
CUT
10
177.7891
20
132.7536
0
VERTEX
8
CUT
10
177.7732
20
132.7474
0
VERTEX
8
CUT
10
177.7380
20
132.7365
0
VERTEX
8
CUT
10
177.7018
20
132.7321
0
VERTEX
8
CUT
10
177.6846
20
132.7313
0
VERTEX
8
CUT
10
176.5024
20
132.6979
0
VERTEX
8
CUT
10
176.2379
20
132.6764
0
VERTEX
8
CUT
10
175.9772
20
132.6269
0
VERTEX
8
CUT
10
175.7232
20
132.5501
0
VERTEX
8
CUT
10
175.5293
20
132.4801
0
VERTEX
8
CUT
10
175.5242
20
132.4783
0
VERTEX
8
CUT
10
175.4775
20
132.4656
0
VERTEX
8
CUT
10
175.4487
20
132.4631
0
VERTEX
8
CUT
10
175.4244
20
132.4625
0
VERTEX
8
CUT
10
171.2691
20
132.4567
0
VERTEX
8
CUT
10
171.2488
20
132.4572
0
VERTEX
8
CUT
10
171.2055
20
132.4619
0
VERTEX
8
CUT
10
171.1629
20
132.4712
0
VERTEX
8
CUT
10
171.1435
20
132.4771
0
VERTEX
8
CUT
10
170.8638
20
132.5706
0
VERTEX
8
CUT
10
170.6307
20
132.6361
0
VERTEX
8
CUT
10
170.3923
20
132.6788
0
VERTEX
8
CUT
10
170.1509
20
132.6983
0
VERTEX
8
CUT
10
169.2159
20
132.7281
0
VERTEX
8
CUT
10
169.1992
20
132.7290
0
VERTEX
8
CUT
10
169.1636
20
132.7333
0
VERTEX
8
CUT
10
169.1296
20
132.7437
0
VERTEX
8
CUT
10
169.1139
20
132.7497
0
VERTEX
8
CUT
10
168.9624
20
132.8115
0
VERTEX
8
CUT
10
168.7061
20
132.9000
0
VERTEX
8
CUT
10
168.4417
20
132.9603
0
VERTEX
8
CUT
10
168.1723
20
132.9915
0
VERTEX
8
CUT
10
167.7273
20
133.0188
0
VERTEX
8
CUT
10
167.7057
20
133.0208
0
VERTEX
8
CUT
10
167.6135
20
133.0373
0
VERTEX
8
CUT
10
167.5926
20
133.0429
0
VERTEX
8
CUT
10
164.4175
20
133.9980
0
VERTEX
8
CUT
10
164.1824
20
134.0565
0
VERTEX
8
CUT
10
163.9427
20
134.0919
0
VERTEX
8
CUT
10
163.5422
20
134.1314
0
VERTEX
8
CUT
10
163.5200
20
134.1342
0
VERTEX
8
CUT
10
163.4257
20
134.1551
0
VERTEX
8
CUT
10
163.4044
20
134.1618
0
VERTEX
8
CUT
10
159.0315
20
135.6916
0
VERTEX
8
CUT
10
158.8074
20
135.7584
0
VERTEX
8
CUT
10
154.6751
20
136.7826
0
VERTEX
8
CUT
10
154.4143
20
136.8327
0
VERTEX
8
CUT
10
154.1496
20
136.8548
0
VERTEX
8
CUT
10
153.1284
20
136.8859
0
VERTEX
8
CUT
10
153.1230
20
136.8861
0
VERTEX
8
CUT
10
153.0719
20
136.8919
0
VERTEX
8
CUT
10
153.0458
20
136.8973
0
VERTEX
8
CUT
10
153.0227
20
136.9036
0
VERTEX
8
CUT
10
152.6409
20
137.0175
0
VERTEX
8
CUT
10
152.4120
20
137.0742
0
VERTEX
8
CUT
10
152.1788
20
137.1091
0
VERTEX
8
CUT
10
151.9434
20
137.1219
0
VERTEX
8
CUT
10
149.0817
20
137.1420
0
VERTEX
8
CUT
10
149.0403
20
137.1420
0
VERTEX
8
CUT
10
146.7167
20
137.1198
0
VERTEX
8
CUT
10
146.4602
20
137.1041
0
VERTEX
8
CUT
10
146.2067
20
137.0623
0
VERTEX
8
CUT
10
145.9588
20
136.9946
0
VERTEX
8
CUT
10
145.6957
20
136.9080
0
VERTEX
8
CUT
10
145.6792
20
136.9029
0
VERTEX
8
CUT
10
145.6426
20
136.8945
0
VERTEX
8
CUT
10
145.6052
20
136.8895
0
VERTEX
8
CUT
10
145.5884
20
136.8885
0
VERTEX
8
CUT
10
144.7570
20
136.8547
0
VERTEX
8
CUT
10
144.5210
20
136.8339
0
VERTEX
8
CUT
10
144.2881
20
136.7909
0
VERTEX
8
CUT
10
141.8349
20
136.2161
0
VERTEX
8
CUT
10
141.5975
20
136.1479
0
VERTEX
8
CUT
10
141.3680
20
136.0567
0
VERTEX
8
CUT
10
141.1486
20
135.9432
0
VERTEX
8
CUT
10
140.9414
20
135.8087
0
VERTEX
8
CUT
10
140.7486
20
135.6544
0
VERTEX
8
CUT
10
140.5719
20
135.4818
0
VERTEX
8
CUT
10
140.4131
20
135.2926
0
VERTEX
8
CUT
10
140.2738
20
135.0886
0
VERTEX
8
CUT
10
140.1553
20
134.8719
0
VERTEX
8
CUT
10
140.0587
20
134.6446
0
VERTEX
8
CUT
10
139.9850
20
134.4088
0
VERTEX
8
CUT
10
139.9350
20
134.1670
0
VERTEX
8
CUT
10
139.9091
20
133.9213
0
VERTEX
8
CUT
10
139.9075
20
133.6743
0
VERTEX
8
CUT
10
139.9303
20
133.4284
0
VERTEX
8
CUT
10
139.9773
20
133.1859
0
VERTEX
8
CUT
10
140.0479
20
132.9493
0
VERTEX
8
CUT
10
140.1416
20
132.7207
0
VERTEX
8
CUT
10
140.2574
20
132.5025
0
VERTEX
8
CUT
10
140.3941
20
132.2968
0
VERTEX
8
CUT
10
140.5505
20
132.1056
0
VERTEX
8
CUT
10
140.7250
20
131.9308
0
VERTEX
8
CUT
10
140.9158
20
131.7740
0
VERTEX
8
CUT
10
140.9232
20
131.7691
0
VERTEX
8
CUT
10
141.0172
20
131.6995
0
VERTEX
8
CUT
10
140.9787
20
131.6565
0
VERTEX
8
CUT
10
140.7430
20
131.4177
0
VERTEX
8
CUT
10
140.2312
20
130.8992
0
VERTEX
8
CUT
10
140.0907
20
130.7445
0
VERTEX
8
CUT
10
139.9637
20
130.5785
0
VERTEX
8
CUT
10
139.8509
20
130.4026
0
VERTEX
8
CUT
10
138.9882
20
128.9236
0
VERTEX
8
CUT
10
138.8700
20
128.6944
0
VERTEX
8
CUT
10
138.7759
20
128.4542
0
VERTEX
8
CUT
10
138.0375
20
126.2380
0
VERTEX
8
CUT
10
137.9688
20
125.9897
0
VERTEX
8
CUT
10
137.9260
20
125.7356
0
VERTEX
8
CUT
10
137.6544
20
123.3923
0
VERTEX
8
CUT
10
137.6379
20
123.0876
0
VERTEX
8
CUT
10
137.6553
20
120.5228
0
VERTEX
8
CUT
10
137.6685
20
120.2825
0
VERTEX
8
CUT
10
137.7048
20
120.0447
0
VERTEX
8
CUT
10
137.9087
20
119.0356
0
VERTEX
8
CUT
10
137.9121
20
119.0164
0
VERTEX
8
CUT
10
137.9161
20
118.9766
0
VERTEX
8
CUT
10
137.9006
20
118.9398
0
VERTEX
8
CUT
10
137.8917
20
118.9224
0
VERTEX
8
CUT
10
137.7043
20
118.5768
0
VERTEX
8
CUT
10
137.6948
20
118.5602
0
VERTEX
8
CUT
10
137.6730
20
118.5279
0
VERTEX
8
CUT
10
137.6347
20
118.5206
0
VERTEX
8
CUT
10
137.6157
20
118.5184
0
VERTEX
8
CUT
10
137.1687
20
118.4774
0
VERTEX
8
CUT
10
137.1501
20
118.4761
0
VERTEX
8
CUT
10
137.1471
20
118.4761
0
VERTEX
8
CUT
10
136.9003
20
118.4649
0
VERTEX
8
CUT
10
136.6558
20
118.4293
0
SEQEND
0
POLYLINE
8
CUT
66
1
70
1
10
0.0
20
0.0
30
0.0
0
VERTEX
8
CUT
10
121.6601
20
89.5271
0
VERTEX
8
CUT
10
121.9392
20
88.5190
0
VERTEX
8
CUT
10
122.0197
20
88.2770
0
VERTEX
8
CUT
10
122.1244
20
88.0446
0
VERTEX
8
CUT
10
122.7259
20
86.8724
0
VERTEX
8
CUT
10
122.7281
20
86.8678
0
VERTEX
8
CUT
10
122.7471
20
86.8223
0
VERTEX
8
CUT
10
122.7548
20
86.7980
0
VERTEX
8
CUT
10
122.7605
20
86.7759
0
VERTEX
8
CUT
10
123.0763
20
85.4005
0
VERTEX
8
CUT
10
123.1263
20
85.2155
0
VERTEX
8
CUT
10
123.1903
20
85.0349
0
VERTEX
8
CUT
10
124.1182
20
82.7055
0
VERTEX
8
CUT
10
124.1463
20
82.6268
0
VERTEX
8
CUT
10
124.1689
20
82.5464
0
VERTEX
8
CUT
10
125.5827
20
76.7392
0
VERTEX
8
CUT
10
125.6255
20
76.5850
0
VERTEX
8
CUT
10
126.9650
20
72.2974
0
VERTEX
8
CUT
10
127.0303
20
72.1140
0
VERTEX
8
CUT
10
128.0824
20
69.4848
0
VERTEX
8
CUT
10
128.1684
20
69.2936
0
VERTEX
8
CUT
10
129.6738
20
66.2898
0
VERTEX
8
CUT
10
129.7642
20
66.1252
0
VERTEX
8
CUT
10
129.8666
20
65.9679
0
VERTEX
8
CUT
10
131.6759
20
63.4055
0
VERTEX
8
CUT
10
131.8122
20
63.2295
0
VERTEX
8
CUT
10
133.5001
20
61.2411
0
VERTEX
8
CUT
10
133.6300
20
61.0996
0
VERTEX
8
CUT
10
133.7703
20
60.9684
0
VERTEX
8
CUT
10
136.0166
20
59.0249
0
VERTEX
8
CUT
10
136.2965
20
58.8151
0
VERTEX
8
CUT
10
138.9455
20
57.1051
0
VERTEX
8
CUT
10
139.1541
20
56.9843
0
VERTEX
8
CUT
10
139.3734
20
56.8842
0
VERTEX
8
CUT
10
141.7910
20
55.9178
0
VERTEX
8
CUT
10
141.9835
20
55.8498
0
VERTEX
8
CUT
10
142.1809
20
55.7977
0
VERTEX
8
CUT
10
145.4775
20
55.0713
0
VERTEX
8
CUT
10
145.7443
20
55.0274
0
VERTEX
8
CUT
10
146.0143
20
55.0127
0
VERTEX
8
CUT
10
151.8527
20
55.0098
0
VERTEX
8
CUT
10
152.0639
20
55.0187
0
VERTEX
8
CUT
10
152.2736
20
55.0453
0
VERTEX
8
CUT
10
155.2015
20
55.5439
0
VERTEX
8
CUT
10
155.3862
20
55.5826
0
VERTEX
8
CUT
10
157.4308
20
56.0920
0
VERTEX
8
CUT
10
157.6166
20
56.1460
0
VERTEX
8
CUT
10
159.5560
20
56.7920
0
VERTEX
8
CUT
10
159.7846
20
56.8809
0
VERTEX
8
CUT
10
160.0034
20
56.9917
0
VERTEX
8
CUT
10
160.2103
20
57.1234
0
VERTEX
8
CUT
10
160.4033
20
57.2748
0
VERTEX
8
CUT
10
160.5806
20
57.4444
0
VERTEX
8
CUT
10
160.7403
20
57.6305
0
VERTEX
8
CUT
10
160.8811
20
57.8313
0
VERTEX
8
CUT
10
161.0015
20
58.0450
0
VERTEX
8
CUT
10
161.1004
20
58.2695
0
VERTEX
8
CUT
10
161.1768
20
58.5026
0
VERTEX
8
CUT
10
161.2300
20
58.7420
0
VERTEX
8
CUT
10
161.2595
20
58.9855
0
VERTEX
8
CUT
10
161.2649
20
59.2307
0
VERTEX
8
CUT
10
161.2464
20
59.4753
0
VERTEX
8
CUT
10
161.2039
20
59.7169
0
VERTEX
8
CUT
10
161.1380
20
59.9531
0
VERTEX
8
CUT
10
161.0492
20
60.1818
0
VERTEX
8
CUT
10
160.9385
20
60.4006
0
VERTEX
8
CUT
10
160.8068
20
60.6076
0
VERTEX
8
CUT
10
160.6555
20
60.8007
0
VERTEX
8
CUT
10
160.4861
20
60.9780
0
VERTEX
8
CUT
10
160.3000
20
61.1378
0
VERTEX
8
CUT
10
160.0992
20
61.2786
0
VERTEX
8
CUT
10
159.8855
20
61.3991
0
VERTEX
8
CUT
10
154.5644
20
64.0647
0
VERTEX
8
CUT
10
154.4983
20
64.1004
0
VERTEX
8
CUT
10
154.4346
20
64.1403
0
VERTEX
8
CUT
10
151.9930
20
65.7768
0
VERTEX
8
CUT
10
151.9550
20
65.8033
0
VERTEX
8
CUT
10
151.9180
20
65.8314
0
VERTEX
8
CUT
10
149.5229
20
67.7224
0
VERTEX
8
CUT
10
149.4740
20
67.7631
0
VERTEX
8
CUT
10
149.4274
20
67.8064
0
VERTEX
8
CUT
10
146.0058
20
71.1581
0
VERTEX
8
CUT
10
145.9631
20
71.2021
0
VERTEX
8
CUT
10
145.9227
20
71.2483
0
VERTEX
8
CUT
10
143.0870
20
74.6643
0
VERTEX
8
CUT
10
143.0343
20
74.7327
0
VERTEX
8
CUT
10
142.9867
20
74.8048
0
VERTEX
8
CUT
10
138.4942
20
82.1684
0
VERTEX
8
CUT
10
138.3669
20
82.3571
0
VERTEX
8
CUT
10
134.5656
20
87.4742
0
VERTEX
8
CUT
10
134.4255
20
87.6463
0
VERTEX
8
CUT
10
131.8639
20
90.5218
0
VERTEX
8
CUT
10
131.6604
20
90.7252
0
VERTEX
8
CUT
10
124.2868
20
97.2963
0
VERTEX
8
CUT
10
124.2440
20
97.3363
0
VERTEX
8
CUT
10
124.2033
20
97.3784
0
VERTEX
8
CUT
10
123.0356
20
98.6452
0
VERTEX
8
CUT
10
122.8626
20
98.8155
0
VERTEX
8
CUT
10
122.6739
20
98.9683
0
VERTEX
8
CUT
10
122.4713
20
99.1020
0
VERTEX
8
CUT
10
122.2566
20
99.2154
0
VERTEX
8
CUT
10
122.0320
20
99.3075
0
VERTEX
8
CUT
10
121.7995
20
99.3773
0
VERTEX
8
CUT
10
121.5613
20
99.4243
0
VERTEX
8
CUT
10
121.3197
20
99.4479
0
VERTEX
8
CUT
10
121.0769
20
99.4480
0
VERTEX
8
CUT
10
120.8353
20
99.4245
0
VERTEX
8
CUT
10
120.5970
20
99.3777
0
VERTEX
8
CUT
10
120.3645
20
99.3081
0
VERTEX
8
CUT
10
120.1398
20
99.2162
0
VERTEX
8
CUT
10
119.9250
20
99.1029
0
VERTEX
8
CUT
10
119.7223
20
98.9693
0
VERTEX
8
CUT
10
119.5335
20
98.8167
0
VERTEX
8
CUT
10
119.3603
20
98.6466
0
VERTEX
8
CUT
10
119.2045
20
98.4604
0
VERTEX
8
CUT
10
119.0675
20
98.2600
0
VERTEX
8
CUT
10
118.9506
20
98.0472
0
VERTEX
8
CUT
10
118.8548
20
97.8241
0
VERTEX
8
CUT
10
118.7812
20
97.5928
0
VERTEX
8
CUT
10
118.7303
20
97.3554
0
VERTEX
8
CUT
10
118.7027
20
97.1142
0
VERTEX
8
CUT
10
118.6986
20
96.8715
0
VERTEX
8
CUT
10
118.7181
20
96.6295
0
VERTEX
8
CUT
10
118.7610
20
96.3905
0
VERTEX
8
CUT
10
118.8268
20
96.1568
0
VERTEX
8
CUT
10
119.1960
20
95.0547
0
VERTEX
8
CUT
10
119.2631
20
94.8772
0
VERTEX
8
CUT
10
119.3434
20
94.7052
0
VERTEX
8
CUT
10
120.2132
20
93.0143
0
VERTEX
8
CUT
10
120.2343
20
92.9712
0
VERTEX
8
CUT
10
120.2536
20
92.9274
0
VERTEX
8
CUT
10
121.6117
20
89.6675
0
VERTEX
8
CUT
10
121.6381
20
89.5980
0
SEQEND
0
POLYLINE
8
CUT
66
1
70
1
10
0.0
20
0.0
30
0.0
0
VERTEX
8
CUT
10
125.6798
20
129.5045
0
VERTEX
8
CUT
10
126.2689
20
128.3591
0
VERTEX
8
CUT
10
126.4291
20
128.0477
0
VERTEX
8
CUT
10
126.5515
20
127.8359
0
VERTEX
8
CUT
10
126.6940
20
127.6371
0
VERTEX
8
CUT
10
126.8552
20
127.4532
0
VERTEX
8
CUT
10
127.0336
20
127.2859
0
VERTEX
8
CUT
10
127.2275
20
127.1368
0
VERTEX
8
CUT
10
127.4351
20
127.0075
0
VERTEX
8
CUT
10
127.6543
20
126.8990
0
VERTEX
8
CUT
10
127.8830
20
126.8124
0
VERTEX
8
CUT
10
128.1192
20
126.7486
0
VERTEX
8
CUT
10
128.3604
20
126.7082
0
VERTEX
8
CUT
10
128.6044
20
126.6916
0
VERTEX
8
CUT
10
128.8489
20
126.6989
0
VERTEX
8
CUT
10
129.0914
20
126.7300
0
VERTEX
8
CUT
10
129.3298
20
126.7847
0
VERTEX
8
CUT
10
129.5617
20
126.8624
0
VERTEX
8
CUT
10
129.7849
20
126.9624
0
VERTEX
8
CUT
10
129.9973
20
127.0838
0
VERTEX
8
CUT
10
130.1968
20
127.2253
0
VERTEX
8
CUT
10
130.3815
20
127.3856
0
VERTEX
8
CUT
10
130.5496
20
127.5632
0
VERTEX
8
CUT
10
130.6996
20
127.7564
0
VERTEX
8
CUT
10
130.8300
20
127.9633
0
VERTEX
8
CUT
10
130.9396
20
128.1820
0
VERTEX
8
CUT
10
131.0272
20
128.4103
0
VERTEX
8
CUT
10
131.0922
20
128.6461
0
VERTEX
8
CUT
10
131.1337
20
128.8872
0
VERTEX
8
CUT
10
131.1429
20
129.0129
0
VERTEX
8
CUT
10
131.1501
20
129.0717
0
VERTEX
8
CUT
10
131.1559
20
129.0802
0
VERTEX
8
CUT
10
131.2857
20
129.2901
0
VERTEX
8
CUT
10
131.3942
20
129.5118
0
VERTEX
8
CUT
10
131.4803
20
129.7430
0
VERTEX
8
CUT
10
131.5432
20
129.9817
0
VERTEX
8
CUT
10
131.5823
20
130.2253
0
VERTEX
8
CUT
10
131.5971
20
130.4717
0
VERTEX
8
CUT
10
131.5876
20
130.7183
0
VERTEX
8
CUT
10
131.5538
20
130.9627
0
VERTEX
8
CUT
10
131.4961
20
131.2027
0
VERTEX
8
CUT
10
131.4150
20
131.4357
0
VERTEX
8
CUT
10
131.3113
20
131.6597
0
VERTEX
8
CUT
10
131.1861
20
131.8723
0
VERTEX
8
CUT
10
131.0405
20
132.0716
0
VERTEX
8
CUT
10
130.9865
20
132.1318
0
VERTEX
8
CUT
10
130.9354
20
132.1950
0
VERTEX
8
CUT
10
130.9535
20
132.2522
0
VERTEX
8
CUT
10
130.9985
20
132.3734
0
VERTEX
8
CUT
10
131.0724
20
132.6064
0
VERTEX
8
CUT
10
131.1231
20
132.8455
0
VERTEX
8
CUT
10
131.1503
20
133.0885
0
VERTEX
8
CUT
10
131.1535
20
133.3329
0
VERTEX
8
CUT
10
131.1330
20
133.5765
0
VERTEX
8
CUT
10
131.0887
20
133.8169
0
VERTEX
8
CUT
10
131.0211
20
134.0518
0
VERTEX
8
CUT
10
130.9854
20
134.1419
0
VERTEX
8
CUT
10
130.9310
20
134.2790
0
VERTEX
8
CUT
10
130.8191
20
134.4963
0
VERTEX
8
CUT
10
130.6864
20
134.7016
0
VERTEX
8
CUT
10
130.5344
20
134.8931
0
VERTEX
8
CUT
10
130.3644
20
135.0687
0
VERTEX
8
CUT
10
130.1781
20
135.2269
0
VERTEX
8
CUT
10
129.9772
20
135.3662
0
VERTEX
8
CUT
10
129.7636
20
135.4851
0
VERTEX
8
CUT
10
129.5395
20
135.5827
0
VERTEX
8
CUT
10
129.3069
20
135.6579
0
VERTEX
8
CUT
10
129.0681
20
135.7100
0
VERTEX
8
CUT
10
128.8253
20
135.7385
0
VERTEX
8
CUT
10
128.7694
20
135.7424
0
VERTEX
8
CUT
10
128.7327
20
135.7476
0
VERTEX
8
CUT
10
128.6948
20
135.7567
0
VERTEX
8
CUT
10
128.6769
20
135.7624
0
VERTEX
8
CUT
10
128.3612
20
135.8710
0
VERTEX
8
CUT
10
128.1237
20
135.9398
0
VERTEX
8
CUT
10
127.8806
20
135.9848
0
VERTEX
8
CUT
10
127.6343
20
136.0056
0
VERTEX
8
CUT
10
126.5941
20
136.0416
0
VERTEX
8
CUT
10
126.5759
20
136.0426
0
VERTEX
8
CUT
10
126.5558
20
136.0452
0
VERTEX
8
CUT
10
126.5384
20
136.0474
0
VERTEX
8
CUT
10
126.5217
20
136.0511
0
VERTEX
8
CUT
10
126.3866
20
136.0744
0
VERTEX
8
CUT
10
126.2841
20
136.0921
0
VERTEX
8
CUT
10
126.0437
20
136.1101
0
VERTEX
8
CUT
10
125.8026
20
136.1047
0
VERTEX
8
CUT
10
125.5632
20
136.0762
0
VERTEX
8
CUT
10
125.3277
20
136.0248
0
VERTEX
8
CUT
10
125.0982
20
135.9509
0
VERTEX
8
CUT
10
124.8852
20
135.8588
0
VERTEX
8
CUT
10
124.8768
20
135.8552
0
VERTEX
8
CUT
10
124.6658
20
135.7387
0
VERTEX
8
CUT
10
124.4669
20
135.6024
0
VERTEX
8
CUT
10
124.2821
20
135.4475
0
VERTEX
8
CUT
10
124.1131
20
135.2756
0
VERTEX
8
CUT
10
123.9614
20
135.0882
0
VERTEX
8
CUT
10
123.8284
20
134.8871
0
VERTEX
8
CUT
10
123.7155
20
134.6740
0
VERTEX
8
CUT
10
123.6236
20
134.4511
0
VERTEX
8
CUT
10
123.5536
20
134.2204
0
VERTEX
8
CUT
10
123.5062
20
133.9840
0
VERTEX
8
CUT
10
123.4818
20
133.7441
0
VERTEX
8
CUT
10
123.4805
20
133.5030
0
VERTEX
8
CUT
10
123.5025
20
133.2629
0
VERTEX
8
CUT
10
123.5476
20
133.0261
0
VERTEX
8
CUT
10
123.6152
20
132.7947
0
VERTEX
8
CUT
10
123.7048
20
132.5708
0
VERTEX
8
CUT
10
123.8156
20
132.3567
0
VERTEX
8
CUT
10
123.9465
20
132.1542
0
VERTEX
8
CUT
10
125.0804
20
130.5728
0
VERTEX
8
CUT
10
125.1782
20
130.4213
0
VERTEX
8
CUT
10
125.1793
20
130.4220
0
VERTEX
8
CUT
10
125.2750
20
130.2660
0
VERTEX
8
CUT
10
125.3096
20
130.2177
0
VERTEX
8
CUT
10
125.3402
20
130.1648
0
VERTEX
8
CUT
10
125.6633
20
129.5365
0
SEQEND
0
POLYLINE
8
CUT
66
1
70
1
10
0.0
20
0.0
30
0.0
0
VERTEX
8
CUT
10
83.1359
20
34.0128
0
VERTEX
8
CUT
10
83.1771
20
33.8901
0
VERTEX
8
CUT
10
83.1864
20
33.8487
0
VERTEX
8
CUT
10
83.1893
20
33.8283
0
VERTEX
8
CUT
10
83.4927
20
31.2263
0
VERTEX
8
CUT
10
83.5275
20
31.0105
0
VERTEX
8
CUT
10
83.5810
20
30.7985
0
VERTEX
8
CUT
10
83.6529
20
30.5919
0
VERTEX
8
CUT
10
84.0087
20
29.6974
0
VERTEX
8
CUT
10
84.0951
20
29.5044
0
VERTEX
8
CUT
10
84.1975
20
29.3193
0
VERTEX
8
CUT
10
84.3152
20
29.1436
0
VERTEX
8
CUT
10
85.3736
20
27.6993
0
VERTEX
8
CUT
10
85.5439
20
27.4913
0
VERTEX
8
CUT
10
85.7356
20
27.3028
0
VERTEX
8
CUT
10
85.9465
20
27.1360
0
VERTEX
8
CUT
10
86.0687
20
27.0495
0
VERTEX
8
CUT
10
86.2920
20
26.9087
0
VERTEX
8
CUT
10
86.5289
20
26.7922
0
VERTEX
8
CUT
10
86.7767
20
26.7013
0
VERTEX
8
CUT
10
87.0327
20
26.6371
0
VERTEX
8
CUT
10
87.6790
20
26.5107
0
VERTEX
8
CUT
10
87.9029
20
26.4774
0
VERTEX
8
CUT
10
88.1289
20
26.4645
0
VERTEX
8
CUT
10
88.3552
20
26.4720
0
VERTEX
8
CUT
10
88.5798
20
26.5001
0
VERTEX
8
CUT
10
89.6410
20
26.6815
0
VERTEX
8
CUT
10
89.8617
20
26.7295
0
VERTEX
8
CUT
10
90.0772
20
26.7974
0
VERTEX
8
CUT
10
90.2857
20
26.8844
0
VERTEX
8
CUT
10
90.4855
20
26.9898
0
VERTEX
8
CUT
10
93.4519
20
28.7314
0
VERTEX
8
CUT
10
93.6929
20
28.8924
0
VERTEX
8
CUT
10
94.7305
20
29.6761
0
VERTEX
8
CUT
10
94.8713
20
29.7908
0
VERTEX
8
CUT
10
97.2803
20
31.9017
0
VERTEX
8
CUT
10
97.4051
20
32.0189
0
VERTEX
8
CUT
10
103.3203
20
37.9658
0
VERTEX
8
CUT
10
103.4956
20
38.1617
0
VERTEX
8
CUT
10
108.1286
20
43.9201
0
VERTEX
8
CUT
10
108.2588
20
44.0975
0
VERTEX
8
CUT
10
111.0891
20
48.3296
0
VERTEX
8
CUT
10
111.1661
20
48.4523
0
VERTEX
8
CUT
10
113.1384
20
51.8066
0
VERTEX
8
CUT
10
113.2225
20
51.9619
0
VERTEX
8
CUT
10
114.8691
20
55.2779
0
VERTEX
8
CUT
10
115.0021
20
55.6006
0
VERTEX
8
CUT
10
115.7218
20
57.7636
0
VERTEX
8
CUT
10
115.7811
20
57.9716
0
VERTEX
8
CUT
10
115.8223
20
58.1838
0
VERTEX
8
CUT
10
115.8449
20
58.3989
0
VERTEX
8
CUT
10
115.8803
20
58.9731
0
VERTEX
8
CUT
10
115.8822
20
58.9944
0
VERTEX
8
CUT
10
115.8897
20
59.0379
0
VERTEX
8
CUT
10
115.9018
20
59.0803
0
VERTEX
8
CUT
10
115.9093
20
59.1004
0
VERTEX
8
CUT
10
115.9343
20
59.1622
0
VERTEX
8
CUT
10
116.0143
20
59.3903
0
VERTEX
8
CUT
10
116.0718
20
59.6251
0
VERTEX
8
CUT
10
116.1064
20
59.8643
0
VERTEX
8
CUT
10
116.1178
20
60.1058
0
VERTEX
8
CUT
10
116.1131
20
63.2683
0
VERTEX
8
CUT
10
116.0992
20
63.5275
0
VERTEX
8
CUT
10
116.0586
20
63.7839
0
VERTEX
8
CUT
10
115.9915
20
64.0346
0
VERTEX
8
CUT
10
115.5901
20
65.2746
0
VERTEX
8
CUT
10
115.5255
20
65.4511
0
VERTEX
8
CUT
10
115.4479
20
65.6222
0
VERTEX
8
CUT
10
114.7607
20
66.9972
0
VERTEX
8
CUT
10
114.6525
20
67.1915
0
VERTEX
8
CUT
10
114.5275
20
67.3754
0
VERTEX
8
CUT
10
114.0297
20
68.0419
0
VERTEX
8
CUT
10
113.8709
20
68.2339
0
VERTEX
8
CUT
10
113.6937
20
68.4091
0
VERTEX
8
CUT
10
113.4999
20
68.5658
0
VERTEX
8
CUT
10
113.2915
20
68.7024
0
VERTEX
8
CUT
10
113.0705
20
68.8176
0
VERTEX
8
CUT
10
112.8392
20
68.9103
0
VERTEX
8
CUT
10
112.5998
20
68.9794
0
VERTEX
8
CUT
10
112.3547
20
69.0244
0
VERTEX
8
CUT
10
112.1063
20
69.0447
0
VERTEX
8
CUT
10
111.8572
20
69.0402
0
VERTEX
8
CUT
10
111.6097
20
69.0110
0
VERTEX
8
CUT
10
111.3664
20
68.9572
0
VERTEX
8
CUT
10
111.1296
20
68.8795
0
VERTEX
8
CUT
10
110.9018
20
68.7786
0
VERTEX
8
CUT
10
110.6851
20
68.6555
0
VERTEX
8
CUT
10
110.4818
20
68.5115
0
VERTEX
8
CUT
10
110.2938
20
68.3479
0
VERTEX
8
CUT
10
110.1230
20
68.1664
0
VERTEX
8
CUT
10
109.9711
20
67.9689
0
VERTEX
8
CUT
10
109.8397
20
67.7572
0
VERTEX
8
CUT
10
109.7300
20
67.5334
0
VERTEX
8
CUT
10
109.6431
20
67.2999
0
VERTEX
8
CUT
10
109.5799
20
67.0588
0
VERTEX
8
CUT
10
109.5410
20
66.8127
0
VERTEX
8
CUT
10
109.5268
20
66.5639
0
VERTEX
8
CUT
10
109.5240
20
66.1829
0
VERTEX
8
CUT
10
109.5233
20
66.1622
0
VERTEX
8
CUT
10
109.5139
20
66.0773
0
VERTEX
8
CUT
10
109.5100
20
66.0570
0
VERTEX
8
CUT
10
109.2403
20
64.8229
0
VERTEX
8
CUT
10
109.2205
20
64.7444
0
VERTEX
8
CUT
10
109.1954
20
64.6674
0
VERTEX
8
CUT
10
108.0292
20
61.4478
0
VERTEX
8
CUT
10
107.9978
20
61.3696
0
VERTEX
8
CUT
10
107.9611
20
61.2938
0
VERTEX
8
CUT
10
105.1004
20
55.8688
0
VERTEX
8
CUT
10
105.0583
20
55.7952
0
VERTEX
8
CUT
10
105.0112
20
55.7248
0
VERTEX
8
CUT
10
102.1130
20
51.6981
0
VERTEX
8
CUT
10
102.0822
20
51.6571
0
VERTEX
8
CUT
10
102.0496
20
51.6174
0
VERTEX
8
CUT
10
100.1879
20
49.4414
0
VERTEX
8
CUT
10
100.1576
20
49.4073
0
VERTEX
8
CUT
10
100.1261
20
49.3743
0
VERTEX
8
CUT
10
98.5632
20
47.8014
0
VERTEX
8
CUT
10
98.5159
20
47.7564
0
VERTEX
8
CUT
10
98.4664
20
47.7139
0
VERTEX
8
CUT
10
96.7776
20
46.3429
0
VERTEX
8
CUT
10
96.7608
20
46.3300
0
VERTEX
8
CUT
10
96.6872
20
46.2823
0
VERTEX
8
CUT
10
96.6686
20
46.2722
0
VERTEX
8
CUT
10
95.5182
20
45.6899
0
VERTEX
8
CUT
10
95.4986
20
45.6807
0
VERTEX
8
CUT
10
95.4568
20
45.6650
0
VERTEX
8
CUT
10
95.4126
20
45.6588
0
VERTEX
8
CUT
10
95.3910
20
45.6576
0
VERTEX
8
CUT
10
94.0753
20
45.6190
0
VERTEX
8
CUT
10
94.0568
20
45.6188
0
VERTEX
8
CUT
10
94.0189
20
45.6213
0
VERTEX
8
CUT
10
93.9821
20
45.6307
0
VERTEX
8
CUT
10
93.9646
20
45.6365
0
VERTEX
8
CUT
10
93.4745
20
45.8114
0
VERTEX
8
CUT
10
93.4545
20
45.8192
0
VERTEX
8
CUT
10
93.4149
20
45.8384
0
VERTEX
8
CUT
10
93.3803
20
45.8656
0
VERTEX
8
CUT
10
93.3647
20
45.8802
0
VERTEX
8
CUT
10
92.5675
20
46.6622
0
VERTEX
8
CUT
10
92.5514
20
46.6790
0
VERTEX
8
CUT
10
92.4910
20
46.7541
0
VERTEX
8
CUT
10
92.4780
20
46.7735
0
VERTEX
8
CUT
10
91.9766
20
47.5729
0
VERTEX
8
CUT
10
91.9658
20
47.5911
0
VERTEX
8
CUT
10
91.9467
20
47.6303
0
VERTEX
8
CUT
10
91.9319
20
47.6713
0
VERTEX
8
CUT
10
91.9263
20
47.6917
0
VERTEX
8
CUT
10
91.6146
20
48.9636
0
VERTEX
8
CUT
10
91.6097
20
48.9864
0
VERTEX
8
CUT
10
91.5979
20
49.0820
0
VERTEX
8
CUT
10
91.5971
20
49.1053
0
VERTEX
8
CUT
10
91.5883
20
50.6183
0
VERTEX
8
CUT
10
91.5888
20
50.6408
0
VERTEX
8
CUT
10
91.5938
20
50.6870
0
VERTEX
8
CUT
10
91.6041
20
50.7323
0
VERTEX
8
CUT
10
91.6109
20
50.7537
0
VERTEX
8
CUT
10
91.7215
20
51.0713
0
VERTEX
8
CUT
10
91.7920
20
51.3117
0
VERTEX
8
CUT
10
91.8381
20
51.5580
0
VERTEX
8
CUT
10
91.8593
20
51.8076
0
VERTEX
8
CUT
10
91.8949
20
52.8354
0
VERTEX
8
CUT
10
91.8962
20
52.8560
0
VERTEX
8
CUT
10
91.9080
20
52.9407
0
VERTEX
8
CUT
10
91.9124
20
52.9608
0
VERTEX
8
CUT
10
92.4837
20
55.2713
0
VERTEX
8
CUT
10
92.4979
20
55.3238
0
VERTEX
8
CUT
10
92.5145
20
55.3756
0
VERTEX
8
CUT
10
95.0201
20
62.6597
0
VERTEX
8
CUT
10
95.0821
20
62.8692
0
VERTEX
8
CUT
10
95.5803
20
64.8714
0
VERTEX
8
CUT
10
95.6284
20
65.1164
0
VERTEX
8
CUT
10
95.6518
20
65.3650
0
VERTEX
8
CUT
10
95.6913
20
66.2603
0
VERTEX
8
CUT
10
95.6928
20
66.2817
0
VERTEX
8
CUT
10
95.6996
20
66.3256
0
VERTEX
8
CUT
10
95.7110
20
66.3685
0
VERTEX
8
CUT
10
95.7183
20
66.3888
0
VERTEX
8
CUT
10
95.7820
20
66.5531
0
VERTEX
8
CUT
10
95.8517
20
66.7591
0
VERTEX
8
CUT
10
95.9033
20
66.9705
0
VERTEX
8
CUT
10
95.9363
20
67.1855
0
VERTEX
8
CUT
10
95.9504
20
67.4026
0
VERTEX
8
CUT
10
95.9887
20
69.1683
0
VERTEX
8
CUT
10
95.9897
20
69.1891
0
VERTEX
8
CUT
10
95.9951
20
69.2315
0
VERTEX
8
CUT
10
96.0049
20
69.2732
0
VERTEX
8
CUT
10
96.0113
20
69.2930
0
VERTEX
8
CUT
10
96.0965
20
69.5374
0
VERTEX
8
CUT
10
96.1738
20
69.8063
0
VERTEX
8
CUT
10
96.2205
20
70.0821
0
VERTEX
8
CUT
10
96.2361
20
70.3614
0
VERTEX
8
CUT
10
96.2357
20
71.9090
0
VERTEX
8
CUT
10
96.2211
20
72.1781
0
VERTEX
8
CUT
10
96.1777
20
72.4441
0
VERTEX
8
CUT
10
96.1058
20
72.7039
0
VERTEX
8
CUT
10
96.0043
20
73.0064
0
VERTEX
8
CUT
10
95.9984
20
73.0254
0
VERTEX
8
CUT
10
95.9893
20
73.0655
0
VERTEX
8
CUT
10
95.9843
20
73.1063
0
VERTEX
8
CUT
10
95.9834
20
73.1262
0
VERTEX
8
CUT
10
95.9395
20
75.0731
0
VERTEX
8
CUT
10
95.9182
20
75.3473
0
VERTEX
8
CUT
10
95.8670
20
75.6174
0
VERTEX
8
CUT
10
95.7283
20
76.1780
0
VERTEX
8
CUT
10
95.6589
20
76.4095
0
VERTEX
8
CUT
10
95.5676
20
76.6332
0
VERTEX
8
CUT
10
95.4551
20
76.8470
0
VERTEX
8
CUT
10
95.3225
20
77.0490
0
VERTEX
8
CUT
10
95.1709
20
77.2373
0
VERTEX
8
CUT
10
95.0020
20
77.4100
0
VERTEX
8
CUT
10
94.8171
20
77.5656
0
VERTEX
8
CUT
10
94.6181
20
77.7027
0
VERTEX
8
CUT
10
94.4067
20
77.8199
0
VERTEX
8
CUT
10
94.1851
20
77.9161
0
VERTEX
8
CUT
10
93.9552
20
77.9905
0
VERTEX
8
CUT
10
93.7191
20
78.0423
0
VERTEX
8
CUT
10
93.4792
20
78.0711
0
VERTEX
8
CUT
10
93.2376
20
78.0766
0
VERTEX
8
CUT
10
92.9967
20
78.0588
0
VERTEX
8
CUT
10
92.7585
20
78.0178
0
VERTEX
8
CUT
10
92.5255
20
77.9540
0
VERTEX
8
CUT
10
92.2996
20
77.8680
0
VERTEX
8
CUT
10
92.0832
20
77.7605
0
VERTEX
8
CUT
10
91.8781
20
77.6327
0
VERTEX
8
CUT
10
91.6863
20
77.4857
0
VERTEX
8
CUT
10
91.5096
20
77.3209
0
VERTEX
8
CUT
10
91.3497
20
77.1397
0
VERTEX
8
CUT
10
91.2080
20
76.9440
0
VERTEX
8
CUT
10
91.0858
20
76.7355
0
VERTEX
8
CUT
10
90.9844
20
76.5162
0
VERTEX
8
CUT
10
90.9046
20
76.2881
0
VERTEX
8
CUT
10
90.8472
20
76.0534
0
VERTEX
8
CUT
10
90.8127
20
75.8142
0
VERTEX
8
CUT
10
90.8015
20
75.5728
0
VERTEX
8
CUT
10
90.8060
20
73.1170
0
VERTEX
8
CUT
10
90.8056
20
73.0973
0
VERTEX
8
CUT
10
90.7976
20
73.0160
0
VERTEX
8
CUT
10
90.7943
20
72.9966
0
VERTEX
8
CUT
10
90.5906
20
71.9744
0
VERTEX
8
CUT
10
90.5575
20
71.7604
0
VERTEX
8
CUT
10
90.5431
20
71.5444
0
VERTEX
8
CUT
10
90.5034
20
69.8508
0
VERTEX
8
CUT
10
90.5024
20
69.8309
0
VERTEX
8
CUT
10
90.4922
20
69.7490
0
VERTEX
8
CUT
10
90.4883
20
69.7294
0
VERTEX
8
CUT
10
90.0155
20
67.6544
0
VERTEX
8
CUT
10
89.9756
20
67.4344
0
VERTEX
8
CUT
10
89.9555
20
67.2116
0
VERTEX
8
CUT
10
89.9132
20
66.2726
0
VERTEX
8
CUT
10
89.9117
20
66.2522
0
VERTEX
8
CUT
10
89.8992
20
66.1684
0
VERTEX
8
CUT
10
89.8947
20
66.1484
0
VERTEX
8
CUT
10
88.5641
20
60.9613
0
VERTEX
8
CUT
10
88.5164
20
60.7310
0
VERTEX
8
CUT
10
88.4906
20
60.4972
0
VERTEX
8
CUT
10
88.4468
20
59.8017
0
VERTEX
8
CUT
10
88.4453
20
59.7836
0
VERTEX
8
CUT
10
88.4338
20
59.7096
0
VERTEX
8
CUT
10
88.4298
20
59.6920
0
VERTEX
8
CUT
10
86.6997
20
52.7686
0
VERTEX
8
CUT
10
86.6778
20
52.6916
0
VERTEX
8
CUT
10
86.6508
20
52.6162
0
VERTEX
8
CUT
10
86.2299
20
51.5494
0
VERTEX
8
CUT
10
86.1295
20
51.2359
0
VERTEX
8
CUT
10
85.6327
20
49.2406
0
VERTEX
8
CUT
10
85.5878
20
49.0168
0
VERTEX
8
CUT
10
85.5634
20
48.7897
0
VERTEX
8
CUT
10
85.5206
20
48.0931
0
VERTEX
8
CUT
10
85.5202
20
48.0878
0
VERTEX
8
CUT
10
85.5132
20
48.0381
0
VERTEX
8
CUT
10
85.5076
20
48.0135
0
VERTEX
8
CUT
10
85.5009
20
47.9905
0
VERTEX
8
CUT
10
85.0876
20
46.6894
0
VERTEX
8
CUT
10
85.0130
20
46.3929
0
VERTEX
8
CUT
10
84.9752
20
46.0896
0
VERTEX
8
CUT
10
84.9371
20
45.4846
0
VERTEX
8
CUT
10
84.9348
20
45.4604
0
VERTEX
8
CUT
10
84.9163
20
45.3616
0
VERTEX
8
CUT
10
84.9097
20
45.3383
0
VERTEX
8
CUT
10
84.5055
20
44.0660
0
VERTEX
8
CUT
10
84.4503
20
43.8628
0
VERTEX
8
CUT
10
84.4123
20
43.6556
0
VERTEX
8
CUT
10
84.3919
20
43.4460
0
VERTEX
8
CUT
10
84.3617
20
42.8944
0
VERTEX
8
CUT
10
84.3601
20
42.8741
0
VERTEX
8
CUT
10
84.3469
20
42.7909
0
VERTEX
8
CUT
10
84.3422
20
42.7711
0
VERTEX
8
CUT
10
83.8906
20
41.0714
0
VERTEX
8
CUT
10
83.8358
20
40.8090
0
VERTEX
8
CUT
10
83.8094
20
40.5422
0
VERTEX
8
CUT
10
83.7688
20
39.6429
0
VERTEX
8
CUT
10
83.7675
20
39.6242
0
VERTEX
8
CUT
10
83.7622
20
39.5860
0
VERTEX
8
CUT
10
83.7497
20
39.5494
0
VERTEX
8
CUT
10
83.7424
20
39.5321
0
VERTEX
8
CUT
10
83.7357
20
39.5172
0
VERTEX
8
CUT
10
83.6463
20
39.2902
0
VERTEX
8
CUT
10
83.5795
20
39.0555
0
VERTEX
8
CUT
10
83.5360
20
38.8154
0
VERTEX
8
CUT
10
83.5160
20
38.5722
0
VERTEX
8
CUT
10
83.4862
20
37.6708
0
VERTEX
8
CUT
10
83.4852
20
37.6533
0
VERTEX
8
CUT
10
83.4808
20
37.6174
0
VERTEX
8
CUT
10
83.4703
20
37.5831
0
VERTEX
8
CUT
10
83.4640
20
37.5666
0
VERTEX
8
CUT
10
83.3669
20
37.3282
0
VERTEX
8
CUT
10
83.2903
20
37.1121
0
VERTEX
8
CUT
10
83.2338
20
36.8899
0
VERTEX
8
CUT
10
83.1979
20
36.6634
0
VERTEX
8
CUT
10
83.0215
20
35.0862
0
VERTEX
8
CUT
10
83.0060
20
34.8148
0
VERTEX
8
CUT
10
83.0201
20
34.5433
0
VERTEX
8
CUT
10
83.0635
20
34.2749
0
SEQEND
0
POLYLINE
8
CUT
66
1
70
1
10
0.0
20
0.0
30
0.0
0
VERTEX
8
CUT
10
88.7037
20
146.0191
0
VERTEX
8
CUT
10
88.7844
20
145.7836
0
VERTEX
8
CUT
10
88.8882
20
145.5572
0
VERTEX
8
CUT
10
89.0140
20
145.3424
0
VERTEX
8
CUT
10
89.1605
20
145.1410
0
VERTEX
8
CUT
10
89.3263
20
144.9553
0
VERTEX
8
CUT
10
89.5097
20
144.7870
0
VERTEX
8
CUT
10
89.7090
20
144.6378
0
VERTEX
8
CUT
10
89.9222
20
144.5091
0
VERTEX
8
CUT
10
90.1471
20
144.4022
0
VERTEX
8
CUT
10
90.3815
20
144.3183
0
VERTEX
8
CUT
10
90.6231
20
144.2581
0
VERTEX
8
CUT
10
90.8695
20
144.2222
0
VERTEX
8
CUT
10
91.1182
20
144.2110
0
VERTEX
8
CUT
10
91.2708
20
144.2118
0
VERTEX
8
CUT
10
91.4974
20
144.2232
0
VERTEX
8
CUT
10
91.7219
20
144.2551
0
VERTEX
8
CUT
10
91.9427
20
144.3072
0
VERTEX
8
CUT
10
92.1578
20
144.3791
0
VERTEX
8
CUT
10
92.3656
20
144.4702
0
VERTEX
8
CUT
10
92.7802
20
144.6749
0
VERTEX
8
CUT
10
92.7952
20
144.6819
0
VERTEX
8
CUT
10
92.8288
20
144.6949
0
VERTEX
8
CUT
10
92.8635
20
144.7050
0
VERTEX
8
CUT
10
92.8793
20
144.7084
0
VERTEX
8
CUT
10
94.3767
20
145.0006
0
VERTEX
8
CUT
10
94.3954
20
145.0037
0
VERTEX
8
CUT
10
94.4770
20
145.0113
0
VERTEX
8
CUT
10
94.4960
20
145.0116
0
VERTEX
8
CUT
10
96.7896
20
144.9903
0
VERTEX
8
CUT
10
96.8115
20
144.9895
0
VERTEX
8
CUT
10
96.9054
20
144.9776
0
VERTEX
8
CUT
10
96.9268
20
144.9729
0
VERTEX
8
CUT
10
98.6120
20
144.5559
0
VERTEX
8
CUT
10
98.9107
20
144.5009
0
VERTEX
8
CUT
10
99.2139
20
144.4826
0
VERTEX
8
CUT
10
100.6269
20
144.4834
0
VERTEX
8
CUT
10
100.8938
20
144.4978
0
VERTEX
8
CUT
10
101.1577
20
144.5406
0
VERTEX
8
CUT
10
101.4155
20
144.6114
0
VERTEX
8
CUT
10
101.6643
20
144.7093
0
VERTEX
8
CUT
10
102.1921
20
144.9504
0
VERTEX
8
CUT
10
102.2095
20
144.9578
0
VERTEX
8
CUT
10
102.2869
20
144.9841
0
VERTEX
8
CUT
10
102.3052
20
144.9889
0
VERTEX
8
CUT
10
103.3869
20
145.2388
0
VERTEX
8
CUT
10
103.6137
20
145.3026
0
VERTEX
8
CUT
10
103.8335
20
145.3875
0
VERTEX
8
CUT
10
104.0443
20
145.4927
0
VERTEX
8
CUT
10
104.2442
20
145.6172
0
VERTEX
8
CUT
10
105.0878
20
146.1995
0
VERTEX
8
CUT
10
105.2816
20
146.3478
0
VERTEX
8
CUT
10
105.4601
20
146.5142
0
VERTEX
8
CUT
10
105.6214
20
146.6972
0
VERTEX
8
CUT
10
105.7642
20
146.8951
0
VERTEX
8
CUT
10
105.8869
20
147.1060
0
VERTEX
8
CUT
10
105.9886
20
147.3278
0
VERTEX
8
CUT
10
106.0681
20
147.5585
0
VERTEX
8
CUT
10
106.1247
20
147.7958
0
VERTEX
8
CUT
10
106.1580
20
148.0375
0
VERTEX
8
CUT
10
106.1675
20
148.2813
0
VERTEX
8
CUT
10
106.1532
20
148.5249
0
VERTEX
8
CUT
10
106.1153
20
148.7660
0
VERTEX
8
CUT
10
106.0540
20
149.0021
0
VERTEX
8
CUT
10
105.9700
20
149.2312
0
VERTEX
8
CUT
10
105.8641
20
149.4510
0
VERTEX
8
CUT
10
105.7372
20
149.6594
0
VERTEX
8
CUT
10
105.5906
20
149.8545
0
VERTEX
8
CUT
10
105.4257
20
150.0344
0
VERTEX
8
CUT
10
105.2441
20
150.1973
0
VERTEX
8
CUT
10
105.0474
20
150.3417
0
VERTEX
8
CUT
10
104.8376
20
150.4663
0
VERTEX
8
CUT
10
104.6167
20
150.5698
0
VERTEX
8
CUT
10
104.3867
20
150.6513
0
VERTEX
8
CUT
10
104.1499
20
150.7100
0
VERTEX
8
CUT
10
103.9085
20
150.7453
0
VERTEX
8
CUT
10
103.6647
20
150.7570
0
VERTEX
8
CUT
10
103.4210
20
150.7448
0
VERTEX
8
CUT
10
103.2636
20
150.7292
0
VERTEX
8
CUT
10
103.2434
20
150.7288
0
VERTEX
8
CUT
10
101.4559
20
150.7445
0
VERTEX
8
CUT
10
101.4345
20
150.7453
0
VERTEX
8
CUT
10
101.3887
20
150.7509
0
VERTEX
8
CUT
10
101.3438
20
150.7618
0
VERTEX
8
CUT
10
101.3235
20
150.7686
0
VERTEX
8
CUT
10
100.9377
20
150.9104
0
VERTEX
8
CUT
10
100.9195
20
150.9176
0
VERTEX
8
CUT
10
100.8818
20
150.9361
0
VERTEX
8
CUT
10
100.8488
20
150.9621
0
VERTEX
8
CUT
10
100.8344
20
150.9753
0
VERTEX
8
CUT
10
100.3094
20
151.4844
0
VERTEX
8
CUT
10
100.2953
20
151.4989
0
VERTEX
8
CUT
10
100.2676
20
151.5323
0
VERTEX
8
CUT
10
100.2477
20
151.5709
0
VERTEX
8
CUT
10
100.2399
20
151.5896
0
VERTEX
8
CUT
10
100.0158
20
152.1706
0
VERTEX
8
CUT
10
100.0139
20
152.1757
0
VERTEX
8
CUT
10
100.0003
20
152.2219
0
VERTEX
8
CUT
10
99.9971
20
152.2505
0
VERTEX
8
CUT
10
99.9959
20
152.2746
0
VERTEX
8
CUT
10
99.9427
20
154.4494
0
VERTEX
8
CUT
10
99.9245
20
154.6955
0
VERTEX
8
CUT
10
99.8821
20
154.9386
0
VERTEX
8
CUT
10
99.8160
20
155.1763
0
VERTEX
8
CUT
10
99.7621
20
155.3387
0
VERTEX
8
CUT
10
99.6754
20
155.5629
0
VERTEX
8
CUT
10
99.5676
20
155.7778
0
VERTEX
8
CUT
10
99.4397
20
155.9813
0
VERTEX
8
CUT
10
99.0297
20
156.5689
0
VERTEX
8
CUT
10
98.8781
20
156.7647
0
VERTEX
8
CUT
10
98.7079
20
156.9446
0
VERTEX
8
CUT
10
98.5208
20
157.1067
0
VERTEX
8
CUT
10
98.3185
20
157.2495
0
VERTEX
8
CUT
10
98.1032
20
157.3716
0
VERTEX
8
CUT
10
97.8768
20
157.4718
0
VERTEX
8
CUT
10
97.6415
20
157.5491
0
VERTEX
8
CUT
10
97.3998
20
157.6028
0
VERTEX
8
CUT
10
97.1540
20
157.6322
0
VERTEX
8
CUT
10
96.9065
20
157.6373
0
VERTEX
8
CUT
10
96.6596
20
157.6178
0
VERTEX
8
CUT
10
96.4160
20
157.5740
0
VERTEX
8
CUT
10
96.1778
20
157.5063
0
VERTEX
8
CUT
10
95.9475
20
157.4154
0
VERTEX
8
CUT
10
95.7273
20
157.3022
0
VERTEX
8
CUT
10
95.5194
20
157.1677
0
VERTEX
8
CUT
10
95.3259
20
157.0133
0
VERTEX
8
CUT
10
95.1485
20
156.8406
0
VERTEX
8
CUT
10
93.9676
20
155.5704
0
VERTEX
8
CUT
10
93.8199
20
155.3961
0
VERTEX
8
CUT
10
93.6887
20
155.2091
0
VERTEX
8
CUT
10
93.5750
20
155.0109
0
VERTEX
8
CUT
10
93.3110
20
154.4970
0
VERTEX
8
CUT
10
93.2079
20
154.2690
0
VERTEX
8
CUT
10
93.1281
20
154.0319
0
VERTEX
8
CUT
10
92.8247
20
152.9544
0
VERTEX
8
CUT
10
92.8193
20
152.9369
0
VERTEX
8
CUT
10
92.7907
20
152.8635
0
VERTEX
8
CUT
10
92.7828
20
152.8470
0
VERTEX
8
CUT
10
91.6996
20
150.7071
0
VERTEX
8
CUT
10
91.6903
20
150.6898
0
VERTEX
8
CUT
10
91.6674
20
150.6543
0
VERTEX
8
CUT
10
91.6409
20
150.6214
0
VERTEX
8
CUT
10
91.6274
20
150.6071
0
VERTEX
8
CUT
10
90.7942
20
149.7692
0
VERTEX
8
CUT
10
90.7820
20
149.7575
0
VERTEX
8
CUT
10
90.7540
20
149.7339
0
VERTEX
8
CUT
10
90.7238
20
149.7129
0
VERTEX
8
CUT
10
90.7097
20
149.7045
0
VERTEX
8
CUT
10
89.9124
20
149.2505
0
VERTEX
8
CUT
10
89.7150
20
149.1255
0
VERTEX
8
CUT
10
89.5301
20
148.9826
0
VERTEX
8
CUT
10
89.3594
20
148.8231
0
VERTEX
8
CUT
10
89.2042
20
148.6483
0
VERTEX
8
CUT
10
89.0661
20
148.4598
0
VERTEX
8
CUT
10
88.9462
20
148.2592
0
VERTEX
8
CUT
10
88.8456
20
148.0484
0
VERTEX
8
CUT
10
88.7650
20
147.8290
0
VERTEX
8
CUT
10
88.7053
20
147.6031
0
VERTEX
8
CUT
10
88.6670
20
147.3726
0
VERTEX
8
CUT
10
88.6234
20
147.0056
0
VERTEX
8
CUT
10
88.6064
20
146.7572
0
VERTEX
8
CUT
10
88.6142
20
146.5083
0
VERTEX
8
CUT
10
88.6468
20
146.2615
0
SEQEND
0
POLYLINE
8
CUT
66
1
70
1
10
0.0
20
0.0
30
0.0
0
VERTEX
8
CUT
10
89.1712
20
112.3418
0
VERTEX
8
CUT
10
89.2354
20
112.1078
0
VERTEX
8
CUT
10
89.3219
20
111.8811
0
VERTEX
8
CUT
10
89.4301
20
111.6639
0
VERTEX
8
CUT
10
89.5587
20
111.4581
0
VERTEX
8
CUT
10
89.7068
20
111.2658
0
VERTEX
8
CUT
10
89.8727
20
111.0888
0
VERTEX
8
CUT
10
90.0551
20
110.9287
0
VERTEX
8
CUT
10
90.2521
20
110.7870
0
VERTEX
8
CUT
10
90.4619
20
110.6651
0
VERTEX
8
CUT
10
90.6826
20
110.5641
0
VERTEX
8
CUT
10
90.9120
20
110.4850
0
VERTEX
8
CUT
10
91.1480
20
110.4285
0
VERTEX
8
CUT
10
91.3883
20
110.3952
0
VERTEX
8
CUT
10
91.6308
20
110.3852
0
VERTEX
8
CUT
10
91.8731
20
110.3989
0
VERTEX
8
CUT
10
92.1129
20
110.4360
0
VERTEX
8
CUT
10
92.3480
20
110.4961
0
VERTEX
8
CUT
10
92.5761
20
110.5788
0
VERTEX
8
CUT
10
92.7952
20
110.6832
0
VERTEX
8
CUT
10
93.0031
20
110.8083
0
VERTEX
8
CUT
10
93.1979
20
110.9530
0
VERTEX
8
CUT
10
93.3777
20
111.1159
0
VERTEX
8
CUT
10
94.2600
20
111.9967
0
VERTEX
8
CUT
10
94.4213
20
112.1740
0
VERTEX
8
CUT
10
94.5650
20
112.3660
0
VERTEX
8
CUT
10
95.5196
20
113.7785
0
VERTEX
8
CUT
10
95.6347
20
113.9660
0
VERTEX
8
CUT
10
95.7328
20
114.1629
0
VERTEX
8
CUT
10
96.7117
20
116.3650
0
VERTEX
8
CUT
10
96.7910
20
116.5665
0
VERTEX
8
CUT
10
96.8526
20
116.7741
0
VERTEX
8
CUT
10
97.3619
20
118.8116
0
VERTEX
8
CUT
10
97.4149
20
119.0893
0
VERTEX
8
CUT
10
97.6867
20
121.1390
0
VERTEX
8
CUT
10
97.7084
20
121.4746
0
VERTEX
8
CUT
10
97.6983
20
125.0741
0
VERTEX
8
CUT
10
97.6847
20
125.3274
0
VERTEX
8
CUT
10
97.6455
20
125.5780
0
VERTEX
8
CUT
10
97.5812
20
125.8233
0
VERTEX
8
CUT
10
97.4677
20
126.1809
0
VERTEX
8
CUT
10
97.4628
20
126.1974
0
VERTEX
8
CUT
10
97.4550
20
126.2322
0
VERTEX
8
CUT
10
97.4503
20
126.2677
0
VERTEX
8
CUT
10
97.4491
20
126.2844
0
VERTEX
8
CUT
10
97.4147
20
127.0160
0
VERTEX
8
CUT
10
97.3942
20
127.2387
0
VERTEX
8
CUT
10
97.3538
20
127.4586
0
VERTEX
8
CUT
10
97.2940
20
127.6741
0
VERTEX
8
CUT
10
97.2152
20
127.8834
0
VERTEX
8
CUT
10
96.6005
20
129.3171
0
VERTEX
8
CUT
10
96.4896
20
129.5436
0
VERTEX
8
CUT
10
96.3564
20
129.7578
0
VERTEX
8
CUT
10
95.9535
20
130.3381
0
VERTEX
8
CUT
10
95.8137
20
130.5209
0
VERTEX
8
CUT
10
95.6577
20
130.6900
0
VERTEX
8
CUT
10
95.2599
20
131.0835
0
VERTEX
8
CUT
10
95.0717
20
131.2516
0
VERTEX
8
CUT
10
94.8676
20
131.3999
0
VERTEX
8
CUT
10
94.6495
20
131.5269
0
VERTEX
8
CUT
10
94.4197
20
131.6313
0
VERTEX
8
CUT
10
94.1806
20
131.7120
0
VERTEX
8
CUT
10
93.9346
20
131.7681
0
VERTEX
8
CUT
10
93.6842
20
131.7992
0
VERTEX
8
CUT
10
93.4319
20
131.8048
0
VERTEX
8
CUT
10
93.1803
20
131.7850
0
VERTEX
8
CUT
10
92.9320
20
131.7399
0
VERTEX
8
CUT
10
92.6895
20
131.6701
0
VERTEX
8
CUT
10
92.4553
20
131.5761
0
VERTEX
8
CUT
10
92.2318
20
131.4590
0
VERTEX
8
CUT
10
91.7766
20
131.1905
0
VERTEX
8
CUT
10
91.5613
20
131.0480
0
VERTEX
8
CUT
10
91.3619
20
130.8842
0
VERTEX
8
CUT
10
91.1805
20
130.7006
0
VERTEX
8
CUT
10
91.0190
20
130.4993
0
VERTEX
8
CUT
10
89.8819
20
128.9222
0
VERTEX
8
CUT
10
89.7557
20
128.7289
0
VERTEX
8
CUT
10
89.6479
20
128.5249
0
VERTEX
8
CUT
10
89.5593
20
128.3118
0
VERTEX
8
CUT
10
88.5891
20
125.6343
0
VERTEX
8
CUT
10
88.5233
20
125.4243
0
VERTEX
8
CUT
10
88.4763
20
125.2093
0
VERTEX
8
CUT
10
88.2456
20
123.8777
0
VERTEX
8
CUT
10
88.2181
20
123.6651
0
VERTEX
8
CUT
10
88.2089
20
123.4509
0
VERTEX
8
CUT
10
88.2091
20
118.8886
0
VERTEX
8
CUT
10
88.2217
20
118.6388
0
VERTEX
8
CUT
10
88.2591
20
118.3914
0
VERTEX
8
CUT
10
88.7405
20
116.0196
0
VERTEX
8
CUT
10
88.8153
20
115.7369
0
VERTEX
8
CUT
10
88.9227
20
115.4648
0
VERTEX
8
CUT
10
89.3304
20
114.5858
0
VERTEX
8
CUT
10
89.3383
20
114.5677
0
VERTEX
8
CUT
10
89.3516
20
114.5293
0
VERTEX
8
CUT
10
89.3488
20
114.4888
0
VERTEX
8
CUT
10
89.3460
20
114.4692
0
VERTEX
8
CUT
10
89.1472
20
113.3065
0
VERTEX
8
CUT
10
89.1180
20
113.0656
0
VERTEX
8
CUT
10
89.1122
20
112.8230
0
VERTEX
8
CUT
10
89.1300
20
112.5810
0
SEQEND
0
ENDSEC
0
EOF
