0
SECTION
2
HEADER
9
$ACADVER
1
AC1009
9
$INSUNITS
70
4
0
ENDSEC
0
SECTION
2
TABLES
0
TABLE
2
LAYER
70
1
0
LAYER
2
CUT
70
0
62
7
6
CONTINUOUS
0
ENDTAB
0
ENDSEC
0
SECTION
2
ENTITIES
0
POLYLINE
8
CUT
66
1
70
1
10
0.0
20
0.0
30
0.0
0
VERTEX
8
CUT
10
90.3565
20
41.1876
0
VERTEX
8
CUT
10
90.1582
20
41.7489
0
VERTEX
8
CUT
10
89.5145
20
42.4936
0
VERTEX
8
CUT
10
82.7414
20
47.2754
0
VERTEX
8
CUT
10
68.2627
20
56.8389
0
VERTEX
8
CUT
10
67.4850
20
57.1411
0
VERTEX
8
CUT
10
67.2259
20
57.3081
0
VERTEX
8
CUT
10
67.0848
20
57.2967
0
VERTEX
8
CUT
10
66.8548
20
57.3860
0
VERTEX
8
CUT
10
66.0405
20
57.3745
0
VERTEX
8
CUT
10
62.5958
20
55.9986
0
VERTEX
8
CUT
10
62.3738
20
55.9708
0
VERTEX
8
CUT
10
62.2402
20
55.9541
0
VERTEX
8
CUT
10
62.2186
20
55.9513
0
VERTEX
8
CUT
10
60.4477
20
55.7296
0
VERTEX
8
CUT
10
59.2717
20
55.7961
0
VERTEX
8
CUT
10
57.9361
20
56.1966
0
VERTEX
8
CUT
10
56.5059
20
57.0580
0
VERTEX
8
CUT
10
55.5250
20
58.1260
0
VERTEX
8
CUT
10
54.8066
20
59.5788
0
VERTEX
8
CUT
10
54.4973
20
61.2493
0
VERTEX
8
CUT
10
54.6175
20
63.2522
0
VERTEX
8
CUT
10
54.9063
20
64.1631
0
VERTEX
8
CUT
10
55.1593
20
64.6258
0
VERTEX
8
CUT
10
55.4003
20
65.0321
0
VERTEX
8
CUT
10
55.4659
20
65.1059
0
VERTEX
8
CUT
10
56.6625
20
66.2755
0
VERTEX
8
CUT
10
56.7597
20
66.3470
0
VERTEX
8
CUT
10
59.5182
20
67.7784
0
VERTEX
8
CUT
10
59.9298
20
68.1849
0
VERTEX
8
CUT
10
59.9539
20
68.1981
0
VERTEX
8
CUT
10
59.9571
20
68.2888
0
VERTEX
8
CUT
10
60.0907
20
68.8822
0
VERTEX
8
CUT
10
60.0230
20
70.2056
0
VERTEX
8
CUT
10
60.0456
20
70.8637
0
VERTEX
8
CUT
10
60.0525
20
71.0632
0
VERTEX
8
CUT
10
60.0672
20
71.4902
0
VERTEX
8
CUT
10
60.0840
20
71.9800
0
VERTEX
8
CUT
10
60.1412
20
72.3569
0
VERTEX
8
CUT
10
60.2755
20
72.6684
0
VERTEX
8
CUT
10
60.3040
20
72.7345
0
VERTEX
8
CUT
10
60.3317
20
72.7986
0
VERTEX
8
CUT
10
60.3692
20
72.8856
0
VERTEX
8
CUT
10
61.2245
20
74.5072
0
VERTEX
8
CUT
10
61.2245
20
74.5072
0
VERTEX
8
CUT
10
61.2245
20
74.5072
0
VERTEX
8
CUT
10
61.2268
20
74.5095
0
VERTEX
8
CUT
10
61.8189
20
75.1260
0
VERTEX
8
CUT
10
62.1690
20
75.4667
0
VERTEX
8
CUT
10
63.2052
20
76.0950
0
VERTEX
8
CUT
10
64.3328
20
76.4929
0
VERTEX
8
CUT
10
65.7070
20
76.6288
0
VERTEX
8
CUT
10
67.5883
20
76.3787
0
VERTEX
8
CUT
10
69.1809
20
75.5404
0
VERTEX
8
CUT
10
70.1997
20
74.5048
0
VERTEX
8
CUT
10
70.2053
20
74.4978
0
VERTEX
8
CUT
10
70.2265
20
74.4714
0
VERTEX
8
CUT
10
70.2508
20
74.4412
0
VERTEX
8
CUT
10
70.6324
20
73.9669
0
VERTEX
8
CUT
10
71.2440
20
72.7778
0
VERTEX
8
CUT
10
71.2744
20
72.6991
0
VERTEX
8
CUT
10
71.3293
20
72.5567
0
VERTEX
8
CUT
10
71.3523
20
72.4970
0
VERTEX
8
CUT
10
71.4033
20
72.3646
0
VERTEX
8
CUT
10
72.1471
20
67.7942
0
VERTEX
8
CUT
10
72.7374
20
66.4009
0
VERTEX
8
CUT
10
73.1797
20
66.0881
0
VERTEX
8
CUT
10
73.5120
20
65.7130
0
VERTEX
8
CUT
10
77.1363
20
63.2900
0
VERTEX
8
CUT
10
81.5858
20
60.1433
0
VERTEX
8
CUT
10
91.8605
20
53.4461
0
VERTEX
8
CUT
10
92.6469
20
52.9204
0
VERTEX
8
CUT
10
94.1001
20
52.1011
0
VERTEX
8
CUT
10
94.6697
20
52.0072
0
VERTEX
8
CUT
10
94.7764
20
51.9544
0
VERTEX
8
CUT
10
94.8948
20
51.9506
0
VERTEX
8
CUT
10
95.1529
20
51.8696
0
VERTEX
8
CUT
10
95.5207
20
51.8669
0
VERTEX
8
CUT
10
95.5443
20
51.8630
0
VERTEX
8
CUT
10
95.5627
20
51.8666
0
VERTEX
8
CUT
10
96.0638
20
51.8629
0
VERTEX
8
CUT
10
100.3422
20
53.3349
0
VERTEX
8
CUT
10
101.0678
20
53.4619
0
VERTEX
8
CUT
10
101.8294
20
53.5049
0
VERTEX
8
CUT
10
102.3538
20
53.5136
0
VERTEX
8
CUT
10
102.7126
20
53.4945
0
VERTEX
8
CUT
10
104.3355
20
53.0012
0
VERTEX
8
CUT
10
105.2664
20
52.5086
0
VERTEX
8
CUT
10
106.7944
20
51.1786
0
VERTEX
8
CUT
10
107.7269
20
49.5070
0
VERTEX
8
CUT
10
107.9905
20
48.4866
0
VERTEX
8
CUT
10
108.0212
20
46.4802
0
VERTEX
8
CUT
10
107.5593
20
44.6987
0
VERTEX
8
CUT
10
107.0956
20
43.8662
0
VERTEX
8
CUT
10
106.4760
20
43.1820
0
VERTEX
8
CUT
10
105.7425
20
42.4899
0
VERTEX
8
CUT
10
105.6687
20
42.4445
0
VERTEX
8
CUT
10
103.3371
20
41.1634
0
VERTEX
8
CUT
10
102.9776
20
40.7904
0
VERTEX
8
CUT
10
102.8457
20
40.7093
0
VERTEX
8
CUT
10
102.8418
20
40.5155
0
VERTEX
8
CUT
10
102.6982
20
39.9053
0
VERTEX
8
CUT
10
102.7769
20
37.2848
0
VERTEX
8
CUT
10
102.7734
20
37.1089
0
VERTEX
8
CUT
10
102.7707
20
36.9767
0
VERTEX
8
CUT
10
102.7700
20
36.9390
0
VERTEX
8
CUT
10
102.7680
20
36.8407
0
VERTEX
8
CUT
10
102.4453
20
35.2860
0
VERTEX
8
CUT
10
101.7666
20
33.8184
0
VERTEX
8
CUT
10
100.8878
20
32.7750
0
VERTEX
8
CUT
10
100.8305
20
32.7159
0
VERTEX
8
CUT
10
100.8175
20
32.7025
0
VERTEX
8
CUT
10
100.8048
20
32.6894
0
VERTEX
8
CUT
10
100.7714
20
32.6551
0
VERTEX
8
CUT
10
99.5565
20
31.8238
0
VERTEX
8
CUT
10
98.2613
20
31.3668
0
VERTEX
8
CUT
10
98.0907
20
31.3282
0
VERTEX
8
CUT
10
96.7299
20
31.2279
0
VERTEX
8
CUT
10
96.3061
20
31.2540
0
VERTEX
8
CUT
10
95.0549
20
31.4613
0
VERTEX
8
CUT
10
94.7403
20
31.6093
0
VERTEX
8
CUT
10
94.7357
20
31.6115
0
VERTEX
8
CUT
10
94.5725
20
31.6882
0
VERTEX
8
CUT
10
94.4463
20
31.7476
0
VERTEX
8
CUT
10
93.1411
20
32.5499
0
VERTEX
8
CUT
10
92.0236
20
33.7038
0
VERTEX
8
CUT
10
90.9185
20
35.6773
0
VERTEX
8
CUT
10
90.6105
20
37.5134
0
VERTEX
8
CUT
10
90.4486
20
39.4119
0
VERTEX
8
CUT
10
90.4349
20
39.5725
0
VERTEX
8
CUT
10
90.4159
20
39.7954
0
VERTEX
8
CUT
10
90.4044
20
39.9309
0
VERTEX
8
CUT
10
90.3999
20
39.9831
0
SEQEND
0
POLYLINE
8
CUT
66
1
70
1
10
0.0
20
0.0
30
0.0
0
VERTEX
8
CUT
10
216.1375
20
90.5205
0
VERTEX
8
CUT
10
215.7160
20
94.8546
0
VERTEX
8
CUT
10
215.9933
20
97.6048
0
VERTEX
8
CUT
10
216.4071
20
98.6119
0
VERTEX
8
CUT
10
216.7139
20
99.1139
0
VERTEX
8
CUT
10
216.7337
20
99.1463
0
VERTEX
8
CUT
10
216.7343
20
99.1472
0
VERTEX
8
CUT
10
216.7343
20
99.1473
0
VERTEX
8
CUT
10
218.3908
20
100.5223
0
VERTEX
8
CUT
10
219.6382
20
101.1137
0
VERTEX
8
CUT
10
220.8066
20
101.3640
0
VERTEX
8
CUT
10
222.1752
20
101.3651
0
VERTEX
8
CUT
10
222.1850
20
101.3648
0
VERTEX
8
CUT
10
223.0168
20
101.1475
0
VERTEX
8
CUT
10
223.4169
20
101.0250
0
VERTEX
8
CUT
10
224.4839
20
100.4703
0
VERTEX
8
CUT
10
225.4579
20
99.5724
0
VERTEX
8
CUT
10
226.2696
20
98.4475
0
VERTEX
8
CUT
10
226.6970
20
97.4323
0
VERTEX
8
CUT
10
227.2635
20
96.0052
0
VERTEX
8
CUT
10
227.3846
20
95.7988
0
VERTEX
8
CUT
10
227.6868
20
95.0809
0
VERTEX
8
CUT
10
228.1720
20
94.8234
0
VERTEX
8
CUT
10
231.4568
20
94.3221
0
VERTEX
8
CUT
10
232.7669
20
93.6257
0
VERTEX
8
CUT
10
233.8014
20
92.6809
0
VERTEX
8
CUT
10
234.5446
20
91.5415
0
VERTEX
8
CUT
10
234.9719
20
90.1902
0
VERTEX
8
CUT
10
235.0563
20
89.2752
0
VERTEX
8
CUT
10
235.0369
20
88.4693
0
VERTEX
8
CUT
10
234.9713
20
88.0495
0
VERTEX
8
CUT
10
234.6700
20
87.0120
0
VERTEX
8
CUT
10
234.2841
20
86.1459
0
VERTEX
8
CUT
10
233.3438
20
84.9829
0
VERTEX
8
CUT
10
232.0965
20
84.0283
0
VERTEX
8
CUT
10
230.1472
20
83.3491
0
VERTEX
8
CUT
10
230.1260
20
83.3467
0
VERTEX
8
CUT
10
230.0974
20
83.3433
0
VERTEX
8
CUT
10
230.0372
20
83.3364
0
VERTEX
8
CUT
10
229.9501
20
83.3262
0
VERTEX
8
CUT
10
224.5847
20
83.4428
0
VERTEX
8
CUT
10
221.8022
20
80.6038
0
VERTEX
8
CUT
10
221.3331
20
80.1692
0
VERTEX
8
CUT
10
215.2705
20
73.9392
0
VERTEX
8
CUT
10
207.3330
20
65.8404
0
VERTEX
8
CUT
10
207.4334
20
64.8264
0
VERTEX
8
CUT
10
207.4221
20
64.5544
0
VERTEX
8
CUT
10
207.4305
20
64.5197
0
VERTEX
8
CUT
10
207.4275
20
64.4551
0
VERTEX
8
CUT
10
207.5187
20
63.9649
0
VERTEX
8
CUT
10
207.7589
20
61.5379
0
VERTEX
8
CUT
10
207.6058
20
58.5786
0
VERTEX
8
CUT
10
207.3651
20
57.7716
0
VERTEX
8
CUT
10
207.1208
20
57.3676
0
VERTEX
8
CUT
10
206.5685
20
56.4915
0
VERTEX
8
CUT
10
206.4401
20
56.3701
0
VERTEX
8
CUT
10
206.4236
20
56.3545
0
VERTEX
8
CUT
10
206.3339
20
56.2696
0
VERTEX
8
CUT
10
205.2269
20
55.3553
0
VERTEX
8
CUT
10
204.3379
20
54.9267
0
VERTEX
8
CUT
10
202.5178
20
54.4975
0
VERTEX
8
CUT
10
202.5170
20
54.4974
0
VERTEX
8
CUT
10
202.5158
20
54.4973
0
VERTEX
8
CUT
10
202.5149
20
54.4972
0
VERTEX
8
CUT
10
202.5144
20
54.4971
0
VERTEX
8
CUT
10
200.7842
20
54.6177
0
VERTEX
8
CUT
10
199.7846
20
55.0134
0
VERTEX
8
CUT
10
198.4403
20
56.6827
0
VERTEX
8
CUT
10
196.9957
20
57.6217
0
VERTEX
8
CUT
10
195.8779
20
60.6664
0
VERTEX
8
CUT
10
195.0230
20
61.1699
0
VERTEX
8
CUT
10
193.2636
20
61.5159
0
VERTEX
8
CUT
10
192.5464
20
61.8361
0
VERTEX
8
CUT
10
191.9345
20
62.3737
0
VERTEX
8
CUT
10
191.1082
20
63.6822
0
VERTEX
8
CUT
10
189.8973
20
64.1383
0
VERTEX
8
CUT
10
189.4844
20
64.7513
0
VERTEX
8
CUT
10
188.7708
20
67.9130
0
VERTEX
8
CUT
10
189.1158
20
69.5980
0
VERTEX
8
CUT
10
190.3895
20
71.2599
0
VERTEX
8
CUT
10
191.7591
20
72.4039
0
VERTEX
8
CUT
10
193.6995
20
73.1073
0
VERTEX
8
CUT
10
194.1196
20
73.1729
0
VERTEX
8
CUT
10
195.6727
20
73.1517
0
VERTEX
8
CUT
10
198.2858
20
72.8192
0
VERTEX
8
CUT
10
199.4410
20
73.0621
0
VERTEX
8
CUT
10
199.8833
20
73.0490
0
VERTEX
8
CUT
10
205.6247
20
78.9343
0
VERTEX
8
CUT
10
207.9755
20
81.2261
0
VERTEX
8
CUT
10
216.0605
20
89.7597
0
SEQEND
0
POLYLINE
8
CUT
66
1
70
1
10
0.0
20
0.0
30
0.0
0
VERTEX
8
CUT
10
299.7206
20
298.8253
0
VERTEX
8
CUT
10
299.8748
20
296.6004
0
VERTEX
8
CUT
10
299.9664
20
290.9259
0
VERTEX
8
CUT
10
300.1176
20
235.9766
0
VERTEX
8
CUT
10
300.0269
20
27.2763
0
VERTEX
8
CUT
10
299.9362
20
1.5783
0
VERTEX
8
CUT
10
299.7165
20
1.2057
0
VERTEX
8
CUT
10
299.7157
20
1.2050
0
VERTEX
8
CUT
10
299.7133
20
1.2028
0
VERTEX
8
CUT
10
299.7107
20
1.2003
0
VERTEX
8
CUT
10
299.7027
20
1.1927
0
VERTEX
8
CUT
10
298.7448
20
0.4687
0
VERTEX
8
CUT
10
297.4006
20
0.3049
0
VERTEX
8
CUT
10
285.3608
20
0.1210
0
VERTEX
8
CUT
10
186.0014
20
0.0822
0
VERTEX
8
CUT
10
1.7689
20
0.2169
0
VERTEX
8
CUT
10
0.4513
20
1.4417
0
VERTEX
8
CUT
10
0.3049
20
2.6868
0
VERTEX
8
CUT
10
0.3026
20
2.7875
0
VERTEX
8
CUT
10
0.3327
20
260.3507
0
VERTEX
8
CUT
10
0.5443
20
292.7104
0
VERTEX
8
CUT
10
0.6953
20
297.9655
0
VERTEX
8
CUT
10
0.9670
20
299.4488
0
VERTEX
8
CUT
10
1.5947
20
299.7206
0
VERTEX
8
CUT
10
3.8196
20
299.8748
0
VERTEX
8
CUT
10
9.5244
20
299.9664
0
VERTEX
8
CUT
10
64.5341
20
300.1176
0
VERTEX
8
CUT
10
262.2864
20
300.0873
0
VERTEX
8
CUT
10
296.5792
20
299.8757
0
VERTEX
8
CUT
10
298.8253
20
299.7206
0
VERTEX
8
CUT
10
299.4509
20
299.4509
0
SEQEND
0
POLYLINE
8
CUT
66
1
70
1
10
0.0
20
0.0
30
0.0
0
VERTEX
8
CUT
10
267.1035
20
242.3883
0
VERTEX
8
CUT
10
267.6836
20
241.5662
0
VERTEX
8
CUT
10
267.7391
20
241.4875
0
VERTEX
8
CUT
10
267.7767
20
241.4343
0
VERTEX
8
CUT
10
267.7870
20
241.4196
0
VERTEX
8
CUT
10
270.5423
20
237.3527
0
VERTEX
8
CUT
10
273.6907
20
232.2360
0
VERTEX
8
CUT
10
279.6785
20
221.2887
0
VERTEX
8
CUT
10
282.4037
20
215.6572
0
VERTEX
8
CUT
10
287.0219
20
204.7128
0
VERTEX
8
CUT
10
287.0499
20
204.6339
0
VERTEX
8
CUT
10
287.0891
20
204.5234
0
VERTEX
8
CUT
10
287.1822
20
204.2610
0
VERTEX
8
CUT
10
287.3449
20
203.8027
0
VERTEX
8
CUT
10
289.4218
20
197.8025
0
VERTEX
8
CUT
10
289.6812
20
197.5886
0
VERTEX
8
CUT
10
290.0402
20
197.6808
0
VERTEX
8
CUT
10
290.0617
20
197.8688
0
VERTEX
8
CUT
10
290.2411
20
198.1507
0
VERTEX
8
CUT
10
290.3223
20
200.1666
0
VERTEX
8
CUT
10
290.2850
20
205.2135
0
VERTEX
8
CUT
10
290.2471
20
205.2326
0
VERTEX
8
CUT
10
290.2923
20
211.3574
0
VERTEX
8
CUT
10
290.2895
20
212.4399
0
VERTEX
8
CUT
10
290.3226
20
217.4392
0
VERTEX
8
CUT
10
290.2923
20
246.1933
0
VERTEX
8
CUT
10
290.1876
20
251.2645
0
VERTEX
8
CUT
10
290.1717
20
257.3129
0
VERTEX
8
CUT
10
288.1756
20
262.3267
0
VERTEX
8
CUT
10
286.0695
20
265.3956
0
VERTEX
8
CUT
10
284.1792
20
267.2857
0
VERTEX
8
CUT
10
282.9465
20
268.2485
0
VERTEX
8
CUT
10
280.3727
20
269.4517
0
VERTEX
8
CUT
10
279.0447
20
269.7276
0
VERTEX
8
CUT
10
277.8757
20
269.6757
0
VERTEX
8
CUT
10
277.8298
20
269.6800
0
VERTEX
8
CUT
10
277.7007
20
269.6954
0
VERTEX
8
CUT
10
277.5620
20
269.6617
0
VERTEX
8
CUT
10
276.5581
20
269.6171
0
VERTEX
8
CUT
10
275.3658
20
269.2079
0
VERTEX
8
CUT
10
273.8693
20
268.2464
0
VERTEX
8
CUT
10
273.3688
20
267.7090
0
VERTEX
8
CUT
10
273.1946
20
267.5619
0
VERTEX
8
CUT
10
273.1617
20
267.4866
0
VERTEX
8
CUT
10
273.0284
20
267.3435
0
VERTEX
8
CUT
10
272.9672
20
267.0129
0
VERTEX
8
CUT
10
273.1591
20
266.7888
0
VERTEX
8
CUT
10
273.2139
20
266.7058
0
VERTEX
8
CUT
10
273.7908
20
266.6532
0
VERTEX
8
CUT
10
277.5013
20
266.0134
0
VERTEX
8
CUT
10
279.4480
20
265.0954
0
VERTEX
8
CUT
10
280.8499
20
263.9182
0
VERTEX
8
CUT
10
281.6374
20
263.0745
0
VERTEX
8
CUT
10
282.7723
20
261.3408
0
VERTEX
8
CUT
10
283.3550
20
259.8964
0
VERTEX
8
CUT
10
283.5856
20
258.4937
0
VERTEX
8
CUT
10
283.6036
20
258.2952
0
VERTEX
8
CUT
10
283.6049
20
256.5057
0
VERTEX
8
CUT
10
283.6013
20
256.3349
0
VERTEX
8
CUT
10
283.5982
20
256.1889
0
VERTEX
8
CUT
10
283.5909
20
255.8426
0
VERTEX
8
CUT
10
283.5817
20
255.4102
0
VERTEX
8
CUT
10
283.4637
20
254.6200
0
VERTEX
8
CUT
10
283.3755
20
254.2258
0
VERTEX
8
CUT
10
283.3638
20
254.1735
0
VERTEX
8
CUT
10
283.3361
20
254.0495
0
VERTEX
8
CUT
10
283.3071
20
253.9201
0
VERTEX
8
CUT
10
282.8914
20
253.0014
0
VERTEX
8
CUT
10
282.7338
20
252.6935
0
VERTEX
8
CUT
10
281.4881
20
250.9187
0
VERTEX
8
CUT
10
279.8725
20
249.4251
0
VERTEX
8
CUT
10
278.3763
20
248.5913
0
VERTEX
8
CUT
10
277.6422
20
248.3013
0
VERTEX
8
CUT
10
277.0985
20
248.1785
0
VERTEX
8
CUT
10
276.2818
20
248.1216
0
VERTEX
8
CUT
10
275.9342
20
248.0974
0
VERTEX
8
CUT
10
275.8015
20
248.0882
0
VERTEX
8
CUT
10
275.7236
20
248.0828
0
VERTEX
8
CUT
10
274.5828
20
248.2997
0
VERTEX
8
CUT
10
273.2105
20
249.1062
0
VERTEX
8
CUT
10
272.6475
20
249.6953
0
VERTEX
8
CUT
10
271.9848
20
250.9183
0
VERTEX
8
CUT
10
271.9364
20
251.6171
0
VERTEX
8
CUT
10
272.2767
20
252.6057
0
VERTEX
8
CUT
10
273.7049
20
252.7058
0
VERTEX
8
CUT
10
274.9582
20
253.0450
0
VERTEX
8
CUT
10
275.9470
20
253.7489
0
VERTEX
8
CUT
10
276.2823
20
254.3837
0
VERTEX
8
CUT
10
276.4102
20
256.0108
0
VERTEX
8
CUT
10
276.3728
20
256.1738
0
VERTEX
8
CUT
10
276.3796
20
256.2237
0
VERTEX
8
CUT
10
276.3384
20
256.3238
0
VERTEX
8
CUT
10
276.1547
20
257.1241
0
VERTEX
8
CUT
10
275.6918
20
258.1091
0
VERTEX
8
CUT
10
274.7793
20
259.0984
0
VERTEX
8
CUT
10
273.7102
20
259.7994
0
VERTEX
8
CUT
10
272.3910
20
260.3266
0
VERTEX
8
CUT
10
269.2546
20
260.5934
0
VERTEX
8
CUT
10
267.4747
20
260.3495
0
VERTEX
8
CUT
10
265.7059
20
259.8565
0
VERTEX
8
CUT
10
261.9469
20
258.2123
0
VERTEX
8
CUT
10
260.2835
20
257.8434
0
VERTEX
8
CUT
10
259.4452
20
258.1774
0
VERTEX
8
CUT
10
258.3472
20
259.4752
0
VERTEX
8
CUT
10
258.2746
20
259.8364
0
VERTEX
8
CUT
10
258.5501
20
260.4475
0
VERTEX
8
CUT
10
260.2838
20
262.9773
0
VERTEX
8
CUT
10
260.3771
20
263.0852
0
VERTEX
8
CUT
10
260.4574
20
263.2305
0
VERTEX
8
CUT
10
261.4998
20
264.7515
0
VERTEX
8
CUT
10
262.2306
20
266.4454
0
VERTEX
8
CUT
10
262.6551
20
268.2644
0
VERTEX
8
CUT
10
262.6820
20
269.0647
0
VERTEX
8
CUT
10
262.7982
20
269.7506
0
VERTEX
8
CUT
10
262.7306
20
270.5076
0
VERTEX
8
CUT
10
262.7429
20
270.8743
0
VERTEX
8
CUT
10
262.5011
20
272.4140
0
VERTEX
8
CUT
10
261.6919
20
274.3789
0
VERTEX
8
CUT
10
260.5400
20
275.8285
0
VERTEX
8
CUT
10
259.6726
20
276.4641
0
VERTEX
8
CUT
10
258.7076
20
276.8479
0
VERTEX
8
CUT
10
257.8320
20
276.8767
0
VERTEX
8
CUT
10
257.7803
20
276.8871
0
VERTEX
8
CUT
10
257.7476
20
276.8795
0
VERTEX
8
CUT
10
257.0037
20
276.9039
0
VERTEX
8
CUT
10
256.1153
20
276.5739
0
VERTEX
8
CUT
10
255.4133
20
276.0324
0
VERTEX
8
CUT
10
255.2628
20
275.7907
0
VERTEX
8
CUT
10
255.1997
20
275.7374
0
VERTEX
8
CUT
10
255.1142
20
275.5519
0
VERTEX
8
CUT
10
254.6460
20
274.7999
0
VERTEX
8
CUT
10
254.5983
20
274.0444
0
VERTEX
8
CUT
10
254.9948
20
272.5013
0
VERTEX
8
CUT
10
254.8830
20
271.9285
0
VERTEX
8
CUT
10
254.6890
20
271.7120
0
VERTEX
8
CUT
10
254.5720
20
271.5816
0
VERTEX
8
CUT
10
254.5522
20
271.5595
0
VERTEX
8
CUT
10
254.4701
20
271.4679
0
VERTEX
8
CUT
10
253.8837
20
271.3002
0
VERTEX
8
CUT
10
252.4926
20
271.3689
0
VERTEX
8
CUT
10
250.8708
20
272.1753
0
VERTEX
8
CUT
10
250.1616
20
272.8525
0
VERTEX
8
CUT
10
249.2440
20
274.5234
0
VERTEX
8
CUT
10
249.1436
20
275.0713
0
VERTEX
8
CUT
10
248.9594
20
276.2043
0
VERTEX
8
CUT
10
249.1096
20
277.8348
0
VERTEX
8
CUT
10
249.2548
20
278.6429
0
VERTEX
8
CUT
10
249.2601
20
278.6552
0
VERTEX
8
CUT
10
249.2613
20
278.6580
0
VERTEX
8
CUT
10
249.2706
20
278.6797
0
VERTEX
8
CUT
10
249.2804
20
278.7025
0
VERTEX
8
CUT
10
250.2759
20
280.6208
0
VERTEX
8
CUT
10
251.6514
20
282.1122
0
VERTEX
8
CUT
10
251.6570
20
282.1166
0
VERTEX
8
CUT
10
251.6790
20
282.1341
0
VERTEX
8
CUT
10
251.7717
20
282.2076
0
VERTEX
8
CUT
10
252.2069
20
282.5524
0
VERTEX
8
CUT
10
253.2898
20
283.2475
0
VERTEX
8
CUT
10
254.8523
20
283.9356
0
VERTEX
8
CUT
10
255.1161
20
284.0263
0
VERTEX
8
CUT
10
257.3741
20
284.2402
0
VERTEX
8
CUT
10
260.3723
20
284.1741
0
VERTEX
8
CUT
10
261.2391
20
283.9595
0
VERTEX
8
CUT
10
263.6173
20
282.7991
0
VERTEX
8
CUT
10
264.1888
20
282.3648
0
VERTEX
8
CUT
10
265.7698
20
280.8343
0
VERTEX
8
CUT
10
265.8738
20
280.7195
0
VERTEX
8
CUT
10
267.2749
20
278.4241
0
VERTEX
8
CUT
10
267.7725
20
277.0664
0
VERTEX
8
CUT
10
268.5349
20
272.2001
0
VERTEX
8
CUT
10
268.8469
20
271.9558
0
VERTEX
8
CUT
10
269.2478
20
272.1224
0
VERTEX
8
CUT
10
269.3474
20
272.2605
0
VERTEX
8
CUT
10
269.3632
20
272.2665
0
VERTEX
8
CUT
10
269.9681
20
273.0527
0
VERTEX
8
CUT
10
270.0787
20
273.2740
0
VERTEX
8
CUT
10
270.4816
20
273.8324
0
VERTEX
8
CUT
10
270.8883
20
275.0102
0
VERTEX
8
CUT
10
271.1462
20
277.4600
0
VERTEX
8
CUT
10
270.7251
20
279.9708
0
VERTEX
8
CUT
10
269.7387
20
282.0879
0
VERTEX
8
CUT
10
268.2519
20
284.0559
0
VERTEX
8
CUT
10
266.3090
20
285.9384
0
VERTEX
8
CUT
10
264.1852
20
287.5018
0
VERTEX
8
CUT
10
260.2178
20
289.5052
0
VERTEX
8
CUT
10
258.6739
20
289.9257
0
VERTEX
8
CUT
10
253.2738
20
290.3828
0
VERTEX
8
CUT
10
228.5952
20
290.5645
0
VERTEX
8
CUT
10
209.2430
20
290.4713
0
VERTEX
8
CUT
10
208.9841
20
290.1251
0
VERTEX
8
CUT
10
209.1702
20
289.7710
0
VERTEX
8
CUT
10
222.0883
20
282.9065
0
VERTEX
8
CUT
10
229.3226
20
278.4968
0
VERTEX
8
CUT
10
229.5954
20
278.3205
0
VERTEX
8
CUT
10
231.2456
20
277.1795
0
VERTEX
8
CUT
10
236.3711
20
273.5838
0
VERTEX
8
CUT
10
237.7975
20
272.4992
0
VERTEX
8
CUT
10
243.0532
20
268.3324
0
VERTEX
8
CUT
10
245.2172
20
266.4181
0
VERTEX
8
CUT
10
245.4389
20
266.2219
0
VERTEX
8
CUT
10
245.6961
20
265.9944
0
VERTEX
8
CUT
10
247.5126
20
264.3876
0
VERTEX
8
CUT
10
250.2351
20
261.9326
0
VERTEX
8
CUT
10
256.3411
20
255.6747
0
VERTEX
8
CUT
10
262.0337
20
249.0424
0
SEQEND
0
POLYLINE
8
CUT
66
1
70
1
10
0.0
20
0.0
30
0.0
0
VERTEX
8
CUT
10
270.7288
20
21.5162
0
VERTEX
8
CUT
10
270.9658
20
22.8084
0
VERTEX
8
CUT
10
270.7521
20
25.5674
0
VERTEX
8
CUT
10
270.1880
20
27.0599
0
VERTEX
8
CUT
10
269.7901
20
27.6500
0
VERTEX
8
CUT
10
269.6052
20
28.1535
0
VERTEX
8
CUT
10
269.2420
20
28.4629
0
VERTEX
8
CUT
10
269.1330
20
28.6245
0
VERTEX
8
CUT
10
269.0376
20
28.6370
0
VERTEX
8
CUT
10
268.7886
20
28.8491
0
VERTEX
8
CUT
10
268.4862
20
28.7584
0
VERTEX
8
CUT
10
268.2443
20
27.7906
0
VERTEX
8
CUT
10
268.1564
20
26.5162
0
VERTEX
8
CUT
10
267.7565
20
24.1302
0
VERTEX
8
CUT
10
267.3739
20
22.9760
0
VERTEX
8
CUT
10
267.0115
20
22.0761
0
VERTEX
8
CUT
10
265.6337
20
19.9272
0
VERTEX
8
CUT
10
264.1540
20
18.5107
0
VERTEX
8
CUT
10
262.6070
20
17.4948
0
VERTEX
8
CUT
10
261.0036
20
16.8594
0
VERTEX
8
CUT
10
259.1175
20
16.5453
0
VERTEX
8
CUT
10
256.9590
20
16.5451
0
VERTEX
8
CUT
10
255.0722
20
16.8592
0
VERTEX
8
CUT
10
254.7116
20
16.9965
0
VERTEX
8
CUT
10
253.2930
20
17.6462
0
VERTEX
8
CUT
10
253.0787
20
17.7443
0
VERTEX
8
CUT
10
253.0658
20
17.7502
0
VERTEX
8
CUT
10
253.0655
20
17.7503
0
VERTEX
8
CUT
10
251.2919
20
19.0434
0
VERTEX
8
CUT
10
249.7538
20
20.8843
0
VERTEX
8
CUT
10
249.1723
20
22.1966
0
VERTEX
8
CUT
10
248.9212
20
23.6785
0
VERTEX
8
CUT
10
249.0222
20
26.0713
0
VERTEX
8
CUT
10
249.7946
20
27.8628
0
VERTEX
8
CUT
10
250.7507
20
28.8887
0
VERTEX
8
CUT
10
252.0693
20
29.7056
0
VERTEX
8
CUT
10
253.3673
20
30.0053
0
VERTEX
8
CUT
10
254.4487
20
29.7493
0
VERTEX
8
CUT
10
254.8685
20
29.2712
0
VERTEX
8
CUT
10
254.9323
20
28.8426
0
VERTEX
8
CUT
10
254.4908
20
27.4847
0
VERTEX
8
CUT
10
254.5056
20
27.0542
0
VERTEX
8
CUT
10
254.4859
20
26.9763
0
VERTEX
8
CUT
10
254.5109
20
26.9031
0
VERTEX
8
CUT
10
254.5182
20
26.6907
0
VERTEX
8
CUT
10
254.7472
20
26.2095
0
VERTEX
8
CUT
10
254.8242
20
25.9837
0
VERTEX
8
CUT
10
254.8816
20
25.9273
0
VERTEX
8
CUT
10
255.1623
20
25.3375
0
VERTEX
8
CUT
10
255.8566
20
24.7046
0
VERTEX
8
CUT
10
257.3796
20
24.1140
0
VERTEX
8
CUT
10
258.3529
20
24.1599
0
VERTEX
8
CUT
10
259.1077
20
24.5160
0
VERTEX
8
CUT
10
259.4908
20
24.6066
0
VERTEX
8
CUT
10
260.3262
20
25.2222
0
VERTEX
8
CUT
10
260.5964
20
25.5205
0
VERTEX
8
CUT
10
260.7856
20
25.6808
0
VERTEX
8
CUT
10
261.1384
20
26.1187
0
VERTEX
8
CUT
10
261.4122
20
26.4209
0
VERTEX
8
CUT
10
261.4670
20
26.5267
0
VERTEX
8
CUT
10
261.6716
20
26.7806
0
VERTEX
8
CUT
10
262.4511
20
28.4115
0
VERTEX
8
CUT
10
262.5900
20
29.5155
0
VERTEX
8
CUT
10
262.5902
20
29.5161
0
VERTEX
8
CUT
10
262.5902
20
29.5171
0
VERTEX
8
CUT
10
262.6210
20
29.7613
0
VERTEX
8
CUT
10
262.6126
20
29.9499
0
VERTEX
8
CUT
10
262.6788
20
31.2284
0
VERTEX
8
CUT
10
262.5025
20
32.4442
0
VERTEX
8
CUT
10
262.4736
20
33.0989
0
VERTEX
8
CUT
10
261.6371
20
35.7855
0
VERTEX
8
CUT
10
258.8408
20
39.9897
0
VERTEX
8
CUT
10
258.5998
20
40.8386
0
VERTEX
8
CUT
10
258.6856
20
41.2900
0
VERTEX
8
CUT
10
259.4700
20
42.1912
0
VERTEX
8
CUT
10
260.9464
20
42.4246
0
VERTEX
8
CUT
10
262.2508
20
42.1362
0
VERTEX
8
CUT
10
266.0907
20
40.5967
0
VERTEX
8
CUT
10
268.0802
20
40.1923
0
VERTEX
8
CUT
10
269.0949
20
40.1881
0
VERTEX
8
CUT
10
271.2369
20
40.4898
0
VERTEX
8
CUT
10
271.7442
20
40.6341
0
VERTEX
8
CUT
10
271.7531
20
40.6352
0
VERTEX
8
CUT
10
271.7665
20
40.6404
0
VERTEX
8
CUT
10
272.3999
20
40.8205
0
VERTEX
8
CUT
10
273.6793
20
41.4670
0
VERTEX
8
CUT
10
274.8562
20
42.4725
0
VERTEX
8
CUT
10
275.7880
20
43.6304
0
VERTEX
8
CUT
10
276.2509
20
44.7566
0
VERTEX
8
CUT
10
276.3164
20
45.4572
0
VERTEX
8
CUT
10
275.9498
20
46.7709
0
VERTEX
8
CUT
10
275.8618
20
46.8766
0
VERTEX
8
CUT
10
275.8491
20
46.9501
0
VERTEX
8
CUT
10
275.3950
20
47.4985
0
VERTEX
8
CUT
10
275.3062
20
47.5432
0
VERTEX
8
CUT
10
275.0981
20
47.7929
0
VERTEX
8
CUT
10
273.9695
20
48.2861
0
VERTEX
8
CUT
10
272.4373
20
48.3927
0
VERTEX
8
CUT
10
272.2395
20
48.4942
0
VERTEX
8
CUT
10
271.8485
20
48.8328
0
VERTEX
8
CUT
10
271.7598
20
48.9879
0
VERTEX
8
CUT
10
271.7569
20
50.0842
0
VERTEX
8
CUT
10
272.1541
20
50.9143
0
VERTEX
8
CUT
10
272.3479
20
51.2082
0
VERTEX
8
CUT
10
273.0242
20
51.8839
0
VERTEX
8
CUT
10
273.0284
20
51.8872
0
VERTEX
8
CUT
10
273.0290
20
51.8877
0
VERTEX
8
CUT
10
273.0294
20
51.8880
0
VERTEX
8
CUT
10
273.0306
20
51.8890
0
VERTEX
8
CUT
10
273.8775
20
52.3472
0
VERTEX
8
CUT
10
274.2059
20
52.4611
0
VERTEX
8
CUT
10
275.3135
20
52.6554
0
VERTEX
8
CUT
10
276.2780
20
52.6309
0
VERTEX
8
CUT
10
277.6654
20
52.3306
0
VERTEX
8
CUT
10
279.5998
20
51.2285
0
VERTEX
8
CUT
10
281.3850
20
49.6642
0
VERTEX
8
CUT
10
282.0334
20
48.8531
0
VERTEX
8
CUT
10
282.4264
20
48.0736
0
VERTEX
8
CUT
10
282.4926
20
47.9424
0
VERTEX
8
CUT
10
282.6190
20
47.6916
0
VERTEX
8
CUT
10
283.0724
20
46.7925
0
VERTEX
8
CUT
10
283.3638
20
45.3033
0
VERTEX
8
CUT
10
283.4232
20
43.3461
0
VERTEX
8
CUT
10
283.0740
20
41.0651
0
VERTEX
8
CUT
10
282.7060
20
39.9331
0
VERTEX
8
CUT
10
282.4794
20
39.4046
0
VERTEX
8
CUT
10
280.8935
20
37.3019
0
VERTEX
8
CUT
10
279.8678
20
36.4069
0
VERTEX
8
CUT
10
277.4804
20
35.1243
0
VERTEX
8
CUT
10
272.9501
20
34.2267
0
VERTEX
8
CUT
10
272.8474
20
34.0820
0
VERTEX
8
CUT
10
272.8410
20
34.0810
0
VERTEX
8
CUT
10
272.8423
20
34.0750
0
VERTEX
8
CUT
10
272.7201
20
33.9029
0
VERTEX
8
CUT
10
272.8859
20
33.4757
0
VERTEX
8
CUT
10
273.9334
20
32.4391
0
VERTEX
8
CUT
10
274.2669
20
32.2846
0
VERTEX
8
CUT
10
274.3229
20
32.2362
0
VERTEX
8
CUT
10
274.4985
20
32.1582
0
VERTEX
8
CUT
10
274.6030
20
32.0622
0
VERTEX
8
CUT
10
275.5864
20
31.5849
0
VERTEX
8
CUT
10
275.9876
20
31.5303
0
VERTEX
8
CUT
10
276.9243
20
31.3244
0
VERTEX
8
CUT
10
277.4381
20
31.3330
0
VERTEX
8
CUT
10
277.6960
20
31.2979
0
VERTEX
8
CUT
10
278.0171
20
31.3426
0
VERTEX
8
CUT
10
279.1880
20
31.3621
0
VERTEX
8
CUT
10
280.3365
20
31.6322
0
VERTEX
8
CUT
10
282.3289
20
32.6052
0
VERTEX
8
CUT
10
284.2327
20
34.0962
0
VERTEX
8
CUT
10
286.0347
20
36.0165
0
VERTEX
8
CUT
10
286.6723
20
36.9979
0
VERTEX
8
CUT
10
286.9830
20
37.3648
0
VERTEX
8
CUT
10
287.2384
20
37.8693
0
VERTEX
8
CUT
10
288.1926
20
39.3381
0
VERTEX
8
CUT
10
289.4417
20
42.2146
0
VERTEX
8
CUT
10
289.7161
20
44.1206
0
VERTEX
8
CUT
10
290.0814
20
46.3842
0
VERTEX
8
CUT
10
290.0838
20
46.7636
0
VERTEX
8
CUT
10
290.2923
20
56.2512
0
VERTEX
8
CUT
10
290.3206
20
82.9744
0
VERTEX
8
CUT
10
290.3226
20
83.2832
0
VERTEX
8
CUT
10
290.3211
20
83.4923
0
VERTEX
8
CUT
10
290.3226
20
84.8862
0
VERTEX
8
CUT
10
290.2318
20
97.8602
0
VERTEX
8
CUT
10
290.2158
20
98.4584
0
VERTEX
8
CUT
10
290.2018
20
100.4455
0
VERTEX
8
CUT
10
290.1500
20
101.2023
0
VERTEX
8
CUT
10
290.1420
20
101.2127
0
VERTEX
8
CUT
10
290.1418
20
101.2193
0
VERTEX
8
CUT
10
290.0453
20
101.4753
0
VERTEX
8
CUT
10
290.0185
20
101.6415
0
VERTEX
8
CUT
10
289.6858
20
101.8531
0
VERTEX
8
CUT
10
289.4936
20
101.5722
0
VERTEX
8
CUT
10
289.3833
20
101.4853
0
VERTEX
8
CUT
10
289.3324
20
101.3367
0
VERTEX
8
CUT
10
289.2927
20
101.2785
0
VERTEX
8
CUT
10
289.0533
20
100.5206
0
VERTEX
8
CUT
10
288.3203
20
98.3773
0
VERTEX
8
CUT
10
288.2284
20
98.1356
0
VERTEX
8
CUT
10
288.0899
20
97.7711
0
VERTEX
8
CUT
10
288.0456
20
97.6543
0
VERTEX
8
CUT
10
287.7551
20
96.8898
0
VERTEX
8
CUT
10
284.8556
20
89.8180
0
VERTEX
8
CUT
10
280.8600
20
81.2824
0
VERTEX
8
CUT
10
276.6190
20
73.1951
0
VERTEX
8
CUT
10
271.5687
20
64.9394
0
VERTEX
8
CUT
10
268.5646
20
60.4484
0
VERTEX
8
CUT
10
266.2357
20
57.1883
0
VERTEX
8
CUT
10
265.0213
20
55.5856
0
VERTEX
8
CUT
10
264.8910
20
55.4136
0
VERTEX
8
CUT
10
264.7796
20
55.2665
0
VERTEX
8
CUT
10
264.7197
20
55.1874
0
VERTEX
8
CUT
10
259.2645
20
48.3627
0
VERTEX
8
CUT
10
252.5812
20
41.1956
0
VERTEX
8
CUT
10
249.4721
20
38.1930
0
VERTEX
8
CUT
10
248.9042
20
37.6784
0
VERTEX
8
CUT
10
248.7644
20
37.5518
0
VERTEX
8
CUT
10
248.6466
20
37.4450
0
VERTEX
8
CUT
10
248.3445
20
37.1713
0
VERTEX
8
CUT
10
240.1668
20
30.0821
0
VERTEX
8
CUT
10
235.6236
20
26.5381
0
VERTEX
8
CUT
10
231.3682
20
23.4101
0
VERTEX
8
CUT
10
230.5331
20
22.8499
0
VERTEX
8
CUT
10
230.1713
20
22.6072
0
VERTEX
8
CUT
10
230.1201
20
22.5728
0
VERTEX
8
CUT
10
230.1083
20
22.5649
0
VERTEX
8
CUT
10
221.7556
20
17.1506
0
VERTEX
8
CUT
10
211.6009
20
11.6021
0
VERTEX
8
CUT
10
210.3281
20
10.9343
0
VERTEX
8
CUT
10
210.2439
20
10.5803
0
VERTEX
8
CUT
10
210.4885
20
10.3109
0
VERTEX
8
CUT
10
210.8642
20
10.2937
0
VERTEX
8
CUT
10
210.8714
20
10.2884
0
VERTEX
8
CUT
10
211.0797
20
10.2839
0
VERTEX
8
CUT
10
212.5176
20
10.2183
0
VERTEX
8
CUT
10
214.0679
20
10.2197
0
VERTEX
8
CUT
10
218.3508
20
10.1277
0
VERTEX
8
CUT
10
223.2763
20
10.1367
0
VERTEX
8
CUT
10
232.5299
20
10.0672
0
VERTEX
8
CUT
10
243.8288
20
10.1746
0
VERTEX
8
CUT
10
251.1204
20
10.1881
0
VERTEX
8
CUT
10
252.1986
20
10.2539
0
VERTEX
8
CUT
10
257.0993
20
10.2583
0
VERTEX
8
CUT
10
257.7534
20
10.5132
0
VERTEX
8
CUT
10
257.7921
20
10.5163
0
VERTEX
8
CUT
10
258.3964
20
10.7638
0
VERTEX
8
CUT
10
261.2678
20
11.8828
0
VERTEX
8
CUT
10
263.4627
20
13.1027
0
VERTEX
8
CUT
10
263.6461
20
13.2501
0
VERTEX
8
CUT
10
264.2441
20
13.5924
0
VERTEX
8
CUT
10
266.5983
20
15.4634
0
VERTEX
8
CUT
10
268.5184
20
17.5303
0
VERTEX
8
CUT
10
269.9559
20
19.8008
0
SEQEND
0
POLYLINE
8
CUT
66
1
70
1
10
0.0
20
0.0
30
0.0
0
VERTEX
8
CUT
10
289.5884
20
271.5798
0
VERTEX
8
CUT
10
290.0818
20
271.6241
0
VERTEX
8
CUT
10
290.0925
20
271.8911
0
VERTEX
8
CUT
10
290.2031
20
272.1616
0
VERTEX
8
CUT
10
290.2356
20
273.6397
0
VERTEX
8
CUT
10
290.2923
20
274.2173
0
VERTEX
8
CUT
10
290.2985
20
276.5002
0
VERTEX
8
CUT
10
290.3226
20
277.5937
0
VERTEX
8
CUT
10
290.3224
20
277.6485
0
VERTEX
8
CUT
10
290.3226
20
277.6540
0
VERTEX
8
CUT
10
290.3222
20
277.6926
0
VERTEX
8
CUT
10
290.3100
20
280.7354
0
VERTEX
8
CUT
10
290.3225
20
285.3326
0
VERTEX
8
CUT
10
290.2193
20
287.7558
0
VERTEX
8
CUT
10
290.2027
20
289.3788
0
VERTEX
8
CUT
10
289.7873
20
289.7564
0
VERTEX
8
CUT
10
289.7780
20
289.7780
0
VERTEX
8
CUT
10
289.7497
20
289.7906
0
VERTEX
8
CUT
10
288.8342
20
290.6230
0
VERTEX
8
CUT
10
271.9938
20
290.4604
0
VERTEX
8
CUT
10
271.7692
20
290.2157
0
VERTEX
8
CUT
10
271.8146
20
289.8867
0
VERTEX
8
CUT
10
275.0255
20
286.1952
0
VERTEX
8
CUT
10
276.8361
20
282.8916
0
VERTEX
8
CUT
10
277.4887
20
280.5806
0
VERTEX
8
CUT
10
277.6976
20
279.3782
0
VERTEX
8
CUT
10
277.7944
20
278.0084
0
VERTEX
8
CUT
10
278.0464
20
277.1856
0
VERTEX
8
CUT
10
278.3427
20
277.1387
0
VERTEX
8
CUT
10
282.0484
20
276.4517
0
VERTEX
8
CUT
10
282.4064
20
276.3300
0
VERTEX
8
CUT
10
282.5059
20
276.2962
0
VERTEX
8
CUT
10
282.5616
20
276.2772
0
VERTEX
8
CUT
10
283.8660
20
275.8338
0
VERTEX
8
CUT
10
284.5332
20
275.5760
0
VERTEX
8
CUT
10
286.4964
20
274.3611
0
SEQEND
0
POLYLINE
8
CUT
66
1
70
1
10
0.0
20
0.0
30
0.0
0
VERTEX
8
CUT
10
290.3226
20
24.4303
0
VERTEX
8
CUT
10
290.2923
20
25.9000
0
VERTEX
8
CUT
10
290.2923
20
26.5069
0
VERTEX
8
CUT
10
290.2753
20
26.7282
0
VERTEX
8
CUT
10
290.2330
20
28.7805
0
VERTEX
8
CUT
10
290.0556
20
29.5787
0
VERTEX
8
CUT
10
290.0521
20
29.6243
0
VERTEX
8
CUT
10
290.0453
20
29.6248
0
VERTEX
8
CUT
10
290.0086
20
29.7902
0
VERTEX
8
CUT
10
289.5227
20
29.8304
0
VERTEX
8
CUT
10
286.8012
20
27.1497
0
VERTEX
8
CUT
10
284.3196
20
25.5992
0
VERTEX
8
CUT
10
281.7924
20
24.5939
0
VERTEX
8
CUT
10
281.3770
20
24.5158
0
VERTEX
8
CUT
10
278.4978
20
24.1392
0
VERTEX
8
CUT
10
277.7877
20
23.8841
0
VERTEX
8
CUT
10
277.7799
20
23.8389
0
VERTEX
8
CUT
10
277.7751
20
23.8380
0
VERTEX
8
CUT
10
277.7340
20
23.5756
0
VERTEX
8
CUT
10
276.9486
20
19.0715
0
VERTEX
8
CUT
10
276.0604
20
16.7348
0
VERTEX
8
CUT
10
273.9868
20
13.6876
0
VERTEX
8
CUT
10
272.9292
20
12.5021
0
VERTEX
8
CUT
10
271.1986
20
10.6703
0
VERTEX
8
CUT
10
271.2145
20
10.3428
0
VERTEX
8
CUT
10
271.4383
20
10.1531
0
VERTEX
8
CUT
10
272.9088
20
10.0369
0
VERTEX
8
CUT
10
286.2893
20
9.8555
0
VERTEX
8
CUT
10
288.5910
20
10.0145
0
VERTEX
8
CUT
10
288.8077
20
10.0988
0
VERTEX
8
CUT
10
288.9972
20
10.0974
0
VERTEX
8
CUT
10
289.2806
20
10.2195
0
VERTEX
8
CUT
10
289.3353
20
10.3040
0
VERTEX
8
CUT
10
289.3887
20
10.3248
0
VERTEX
8
CUT
10
290.0213
20
10.8525
0
VERTEX
8
CUT
10
290.0642
20
11.4303
0
VERTEX
8
CUT
10
290.0673
20
11.4350
0
VERTEX
8
CUT
10
290.2921
20
13.8499
0
VERTEX
8
CUT
10
290.2922
20
19.2343
0
SEQEND
0
POLYLINE
8
CUT
66
1
70
1
10
0.0
20
0.0
30
0.0
0
VERTEX
8
CUT
10
224.7127
20
32.7323
0
VERTEX
8
CUT
10
230.2230
20
36.9346
0
VERTEX
8
CUT
10
232.6300
20
38.7140
0
VERTEX
8
CUT
10
233.3148
20
39.2925
0
VERTEX
8
CUT
10
234.1344
20
39.9176
0
VERTEX
8
CUT
10
242.9462
20
47.9418
0
VERTEX
8
CUT
10
251.0685
20
56.6701
0
VERTEX
8
CUT
10
251.7498
20
57.5399
0
VERTEX
8
CUT
10
251.9568
20
57.7657
0
VERTEX
8
CUT
10
256.3777
20
63.3976
0
VERTEX
8
CUT
10
256.7839
20
63.9670
0
VERTEX
8
CUT
10
258.4957
20
66.1525
0
VERTEX
8
CUT
10
260.3622
20
68.9824
0
VERTEX
8
CUT
10
260.5149
20
69.1965
0
VERTEX
8
CUT
10
261.0815
20
70.0730
0
VERTEX
8
CUT
10
265.1687
20
76.2701
0
VERTEX
8
CUT
10
267.5454
20
80.6223
0
VERTEX
8
CUT
10
267.9435
20
81.3072
0
VERTEX
8
CUT
10
268.4526
20
82.2835
0
VERTEX
8
CUT
10
271.0563
20
87.0515
0
VERTEX
8
CUT
10
273.5540
20
92.6565
0
VERTEX
8
CUT
10
274.2243
20
94.1123
0
VERTEX
8
CUT
10
274.4357
20
94.6350
0
VERTEX
8
CUT
10
276.1206
20
98.4161
0
VERTEX
8
CUT
10
278.6618
20
105.3124
0
VERTEX
8
CUT
10
280.8967
20
112.4409
0
VERTEX
8
CUT
10
282.7384
20
119.5972
0
VERTEX
8
CUT
10
284.1270
20
126.4211
0
VERTEX
8
CUT
10
285.3331
20
134.8639
0
VERTEX
8
CUT
10
285.7259
20
140.0865
0
VERTEX
8
CUT
10
285.8017
20
142.6122
0
VERTEX
8
CUT
10
285.8469
20
143.1002
0
VERTEX
8
CUT
10
285.8530
20
144.3191
0
VERTEX
8
CUT
10
285.9072
20
146.1256
0
VERTEX
8
CUT
10
285.8900
20
151.7789
0
VERTEX
8
CUT
10
285.9071
20
155.2355
0
VERTEX
8
CUT
10
285.8784
20
155.5874
0
VERTEX
8
CUT
10
285.8771
20
156.0066
0
VERTEX
8
CUT
10
285.6661
20
160.8356
0
VERTEX
8
CUT
10
284.5500
20
170.7335
0
VERTEX
8
CUT
10
282.7329
20
180.8143
0
VERTEX
8
CUT
10
280.1354
20
190.8080
0
VERTEX
8
CUT
10
276.8522
20
200.6578
0
VERTEX
8
CUT
10
272.8554
20
210.3166
0
VERTEX
8
CUT
10
270.2566
20
215.5312
0
VERTEX
8
CUT
10
269.6268
20
216.8641
0
VERTEX
8
CUT
10
269.2189
20
217.6132
0
VERTEX
8
CUT
10
268.2166
20
219.6244
0
VERTEX
8
CUT
10
266.9026
20
221.8677
0
VERTEX
8
CUT
10
266.8488
20
221.9665
0
VERTEX
8
CUT
10
266.7588
20
222.1131
0
VERTEX
8
CUT
10
262.9628
20
228.5937
0
VERTEX
8
CUT
10
261.2219
20
231.1375
0
VERTEX
8
CUT
10
260.8074
20
231.8130
0
VERTEX
8
CUT
10
259.5460
20
233.5861
0
VERTEX
8
CUT
10
257.1189
20
237.1324
0
VERTEX
8
CUT
10
250.7459
20
245.1344
0
VERTEX
8
CUT
10
244.0434
20
252.2883
0
VERTEX
8
CUT
10
241.0186
20
255.0736
0
VERTEX
8
CUT
10
240.8565
20
255.2346
0
VERTEX
8
CUT
10
240.6949
20
255.3717
0
VERTEX
8
CUT
10
236.8180
20
258.9416
0
VERTEX
8
CUT
10
236.0041
20
259.5864
0
VERTEX
8
CUT
10
235.8631
20
259.7126
0
VERTEX
8
CUT
10
235.1931
20
260.2288
0
VERTEX
8
CUT
10
229.0958
20
265.0588
0
VERTEX
8
CUT
10
220.9130
20
270.5831
0
VERTEX
8
CUT
10
212.3924
20
275.4607
0
VERTEX
8
CUT
10
203.5475
20
279.7182
0
VERTEX
8
CUT
10
194.4017
20
283.2615
0
VERTEX
8
CUT
10
185.0719
20
286.0987
0
VERTEX
8
CUT
10
176.8312
20
287.9694
0
VERTEX
8
CUT
10
168.4596
20
289.3245
0
VERTEX
8
CUT
10
159.9508
20
290.2025
0
VERTEX
8
CUT
10
151.4366
20
290.5340
0
VERTEX
8
CUT
10
142.9200
20
290.3823
0
VERTEX
8
CUT
10
134.4647
20
289.7171
0
VERTEX
8
CUT
10
126.1247
20
288.5128
0
VERTEX
8
CUT
10
117.8888
20
286.8173
0
VERTEX
8
CUT
10
111.0241
20
285.0108
0
VERTEX
8
CUT
10
104.3818
20
282.8978
0
VERTEX
8
CUT
10
97.9195
20
280.4524
0
VERTEX
8
CUT
10
91.6204
20
277.6964
0
VERTEX
8
CUT
10
85.4927
20
274.5868
0
VERTEX
8
CUT
10
79.4842
20
271.1442
0
VERTEX
8
CUT
10
73.5355
20
267.3389
0
VERTEX
8
CUT
10
67.6383
20
263.1567
0
VERTEX
8
CUT
10
57.1633
20
254.4670
0
VERTEX
8
CUT
10
47.5314
20
244.8025
0
VERTEX
8
CUT
10
44.5663
20
241.2005
0
VERTEX
8
CUT
10
44.5218
20
241.1967
0
VERTEX
8
CUT
10
43.1545
20
239.4855
0
VERTEX
8
CUT
10
38.8058
20
234.2027
0
VERTEX
8
CUT
10
37.0017
20
231.5765
0
VERTEX
8
CUT
10
34.3194
20
227.7894
0
VERTEX
8
CUT
10
33.4094
20
226.3475
0
VERTEX
8
CUT
10
31.0451
20
222.9060
0
VERTEX
8
CUT
10
29.5404
20
220.2165
0
VERTEX
8
CUT
10
29.1545
20
219.6050
0
VERTEX
8
CUT
10
27.7571
20
217.0291
0
VERTEX
8
CUT
10
24.3885
20
211.0084
0
VERTEX
8
CUT
10
22.2059
20
206.1035
0
VERTEX
8
CUT
10
21.1830
20
203.9353
0
VERTEX
8
CUT
10
20.5360
20
202.3507
0
VERTEX
8
CUT
10
18.8778
20
198.6241
0
VERTEX
8
CUT
10
18.2608
20
196.7774
0
VERTEX
8
CUT
10
18.1632
20
196.5383
0
VERTEX
8
CUT
10
15.6497
20
189.1494
0
VERTEX
8
CUT
10
15.3437
20
188.0470
0
VERTEX
8
CUT
10
14.6626
20
186.0084
0
VERTEX
8
CUT
10
14.1448
20
183.7274
0
VERTEX
8
CUT
10
13.6032
20
181.7761
0
VERTEX
8
CUT
10
12.6087
20
176.9600
0
VERTEX
8
CUT
10
11.7552
20
173.2000
0
VERTEX
8
CUT
10
10.7607
20
165.9331
0
VERTEX
8
CUT
10
10.1271
20
158.5940
0
VERTEX
8
CUT
10
9.9164
20
151.2270
0
VERTEX
8
CUT
10
10.1282
20
143.8608
0
VERTEX
8
CUT
10
10.7028
20
136.4911
0
VERTEX
8
CUT
10
11.7265
20
129.1446
0
VERTEX
8
CUT
10
13.1195
20
121.7866
0
VERTEX
8
CUT
10
14.9263
20
114.4991
0
VERTEX
8
CUT
10
16.8946
20
107.9884
0
VERTEX
8
CUT
10
19.2133
20
101.5141
0
VERTEX
8
CUT
10
21.8779
20
95.0647
0
VERTEX
8
CUT
10
24.8680
20
88.6928
0
VERTEX
8
CUT
10
28.1905
20
82.3809
0
VERTEX
8
CUT
10
31.8145
20
76.2207
0
VERTEX
8
CUT
10
32.6008
20
75.0018
0
VERTEX
8
CUT
10
32.6218
20
74.9655
0
VERTEX
8
CUT
10
32.6716
20
74.8921
0
VERTEX
8
CUT
10
35.7117
20
70.1794
0
VERTEX
8
CUT
10
39.9108
20
64.2897
0
VERTEX
8
CUT
10
41.7304
20
62.0274
0
VERTEX
8
CUT
10
42.0431
20
61.6170
0
VERTEX
8
CUT
10
42.3559
20
61.2496
0
VERTEX
8
CUT
10
46.9817
20
55.4982
0
VERTEX
8
CUT
10
54.5406
20
47.4575
0
VERTEX
8
CUT
10
62.6319
20
40.0892
0
VERTEX
8
CUT
10
71.1715
20
33.4877
0
VERTEX
8
CUT
10
74.3422
20
31.4203
0
VERTEX
8
CUT
10
75.0674
20
30.8817
0
VERTEX
8
CUT
10
76.0969
20
30.2762
0
VERTEX
8
CUT
10
80.0826
20
27.6774
0
VERTEX
8
CUT
10
85.6417
20
24.6623
0
VERTEX
8
CUT
10
87.0808
20
23.8159
0
VERTEX
8
CUT
10
87.7344
20
23.5273
0
VERTEX
8
CUT
10
89.3802
20
22.6347
0
VERTEX
8
CUT
10
99.0103
20
18.4370
0
VERTEX
8
CUT
10
108.9498
20
15.0820
0
VERTEX
8
CUT
10
112.7233
20
14.1620
0
VERTEX
8
CUT
10
113.0850
20
14.0488
0
VERTEX
8
CUT
10
113.6203
20
13.9433
0
VERTEX
8
CUT
10
119.8643
20
12.4209
0
VERTEX
8
CUT
10
127.2604
20
11.1835
0
VERTEX
8
CUT
10
135.1342
20
10.3087
0
VERTEX
8
CUT
10
139.3439
20
9.9759
0
VERTEX
8
CUT
10
144.3093
20
9.8858
0
VERTEX
8
CUT
10
154.0762
20
10.1059
0
VERTEX
8
CUT
10
156.8376
20
10.1275
0
VERTEX
8
CUT
10
157.4588
20
10.1822
0
VERTEX
8
CUT
10
159.0653
20
10.2184
0
VERTEX
8
CUT
10
164.0890
20
10.5490
0
VERTEX
8
CUT
10
171.0526
20
11.4875
0
VERTEX
8
CUT
10
177.8277
20
12.6920
0
VERTEX
8
CUT
10
184.4596
20
14.2664
0
VERTEX
8
CUT
10
187.4987
20
15.1327
0
VERTEX
8
CUT
10
187.6370
20
15.1664
0
VERTEX
8
CUT
10
187.7638
20
15.2083
0
VERTEX
8
CUT
10
190.9050
20
16.1037
0
VERTEX
8
CUT
10
197.1824
20
18.2158
0
VERTEX
8
CUT
10
203.2222
20
20.6612
0
VERTEX
8
CUT
10
209.0978
20
23.3871
0
VERTEX
8
CUT
10
214.6827
20
26.3770
0
VERTEX
8
CUT
10
221.4414
20
30.6595
0
VERTEX
8
CUT
10
221.5135
20
30.7011
0
VERTEX
8
CUT
10
221.5577
20
30.7332
0
SEQEND
0
POLYLINE
8
CUT
66
1
70
1
10
0.0
20
0.0
30
0.0
0
VERTEX
8
CUT
10
60.3417
20
271.4091
0
VERTEX
8
CUT
10
61.5355
20
272.3066
0
VERTEX
8
CUT
10
63.6193
20
273.8732
0
VERTEX
8
CUT
10
64.7394
20
274.7012
0
VERTEX
8
CUT
10
66.7453
20
276.0666
0
VERTEX
8
CUT
10
74.1250
20
280.8255
0
VERTEX
8
CUT
10
74.9583
20
281.3420
0
VERTEX
8
CUT
10
76.0641
20
281.9702
0
VERTEX
8
CUT
10
77.7453
20
282.8833
0
VERTEX
8
CUT
10
79.1104
20
283.6248
0
VERTEX
8
CUT
10
80.1287
20
284.1778
0
VERTEX
8
CUT
10
85.1414
20
286.9004
0
VERTEX
8
CUT
10
90.6053
20
289.7491
0
VERTEX
8
CUT
10
90.8005
20
290.0253
0
VERTEX
8
CUT
10
90.6791
20
290.3778
0
VERTEX
8
CUT
10
85.9773
20
290.5645
0
VERTEX
8
CUT
10
65.9883
20
290.5645
0
VERTEX
8
CUT
10
51.1673
20
290.4737
0
VERTEX
8
CUT
10
43.4917
20
290.2314
0
VERTEX
8
CUT
10
42.9325
20
290.1747
0
VERTEX
8
CUT
10
41.5622
20
290.1702
0
VERTEX
8
CUT
10
40.4468
20
289.7390
0
VERTEX
8
CUT
10
38.6856
20
289.2135
0
VERTEX
8
CUT
10
37.7026
20
288.6781
0
VERTEX
8
CUT
10
37.3244
20
288.5318
0
VERTEX
8
CUT
10
35.2893
20
287.3634
0
VERTEX
8
CUT
10
34.6241
20
287.0010
0
VERTEX
8
CUT
10
32.3237
20
285.1481
0
VERTEX
8
CUT
10
30.5345
20
283.0608
0
VERTEX
8
CUT
10
29.2758
20
280.8978
0
VERTEX
8
CUT
10
28.5437
20
278.5929
0
VERTEX
8
CUT
10
28.4284
20
276.4490
0
VERTEX
8
CUT
10
28.7822
20
274.9898
0
VERTEX
8
CUT
10
28.6374
20
274.7765
0
VERTEX
8
CUT
10
29.6052
20
273.0830
0
VERTEX
8
CUT
10
30.3612
20
272.2060
0
VERTEX
8
CUT
10
30.8451
20
271.8733
0
VERTEX
8
CUT
10
31.1475
20
272.4781
0
VERTEX
8
CUT
10
31.1959
20
273.5822
0
VERTEX
8
CUT
10
31.3640
20
274.7940
0
VERTEX
8
CUT
10
31.5412
20
275.8669
0
VERTEX
8
CUT
10
32.4300
20
278.5331
0
VERTEX
8
CUT
10
33.9948
20
280.9994
0
VERTEX
8
CUT
10
35.8216
20
282.6605
0
VERTEX
8
CUT
10
36.3906
20
283.0715
0
VERTEX
8
CUT
10
37.3136
20
283.5655
0
VERTEX
8
CUT
10
39.2121
20
284.1197
0
VERTEX
8
CUT
10
40.5801
20
284.2099
0
VERTEX
8
CUT
10
40.8661
20
284.2099
0
VERTEX
8
CUT
10
41.0406
20
284.2099
0
VERTEX
8
CUT
10
41.3809
20
284.2098
0
VERTEX
8
CUT
10
42.3864
20
284.2097
0
VERTEX
8
CUT
10
43.1199
20
284.1593
0
VERTEX
8
CUT
10
43.9398
20
284.0757
0
VERTEX
8
CUT
10
45.7234
20
283.5544
0
VERTEX
8
CUT
10
47.2374
20
282.6348
0
VERTEX
8
CUT
10
47.3522
20
282.5561
0
VERTEX
8
CUT
10
47.3827
20
282.5351
0
VERTEX
8
CUT
10
47.3997
20
282.5235
0
VERTEX
8
CUT
10
47.5124
20
282.4463
0
VERTEX
8
CUT
10
48.8416
20
281.1385
0
VERTEX
8
CUT
10
49.8130
20
279.5874
0
VERTEX
8
CUT
10
50.4237
20
277.9733
0
VERTEX
8
CUT
10
50.6099
20
276.3308
0
VERTEX
8
CUT
10
50.5859
20
276.0977
0
VERTEX
8
CUT
10
50.5769
20
276.0104
0
VERTEX
8
CUT
10
50.5759
20
276.0009
0
VERTEX
8
CUT
10
50.5672
20
275.9164
0
VERTEX
8
CUT
10
50.3424
20
274.6047
0
VERTEX
8
CUT
10
50.3392
20
274.5956
0
VERTEX
8
CUT
10
49.6073
20
273.1033
0
VERTEX
8
CUT
10
48.4000
20
271.8948
0
VERTEX
8
CUT
10
47.2497
20
271.2725
0
VERTEX
8
CUT
10
46.8345
20
271.1858
0
VERTEX
8
CUT
10
46.7803
20
271.1745
0
VERTEX
8
CUT
10
46.7025
20
271.1583
0
VERTEX
8
CUT
10
46.5648
20
271.1295
0
VERTEX
8
CUT
10
46.2496
20
271.0900
0
VERTEX
8
CUT
10
45.4992
20
271.3284
0
VERTEX
8
CUT
10
44.6290
20
272.1128
0
VERTEX
8
CUT
10
44.5773
20
272.7701
0
VERTEX
8
CUT
10
44.9667
20
274.1304
0
VERTEX
8
CUT
10
44.8937
20
274.7259
0
VERTEX
8
CUT
10
44.0415
20
276.0912
0
VERTEX
8
CUT
10
43.2854
20
276.6580
0
VERTEX
8
CUT
10
42.3452
20
276.9537
0
VERTEX
8
CUT
10
41.3746
20
276.9377
0
VERTEX
8
CUT
10
40.4294
20
276.6377
0
VERTEX
8
CUT
10
39.5053
20
276.0809
0
VERTEX
8
CUT
10
38.5932
20
275.2391
0
VERTEX
8
CUT
10
37.7562
20
274.0689
0
VERTEX
8
CUT
10
37.0040
20
272.3213
0
VERTEX
8
CUT
10
36.9659
20
271.6540
0
VERTEX
8
CUT
10
36.8029
20
270.8245
0
VERTEX
8
CUT
10
36.8025
20
269.0491
0
VERTEX
8
CUT
10
36.9622
20
268.3863
0
VERTEX
8
CUT
10
37.0098
20
267.7070
0
VERTEX
8
CUT
10
37.4160
20
265.9520
0
VERTEX
8
CUT
10
38.2462
20
264.2231
0
VERTEX
8
CUT
10
40.7151
20
260.6154
0
VERTEX
8
CUT
10
40.8820
20
259.8653
0
VERTEX
8
CUT
10
40.7664
20
259.4334
0
VERTEX
8
CUT
10
39.8419
20
258.3852
0
VERTEX
8
CUT
10
39.1170
20
258.0383
0
VERTEX
8
CUT
10
38.6294
20
258.0242
0
VERTEX
8
CUT
10
36.8610
20
258.5174
0
VERTEX
8
CUT
10
34.0177
20
259.7664
0
VERTEX
8
CUT
10
32.0725
20
260.3252
0
VERTEX
8
CUT
10
30.2312
20
260.5601
0
VERTEX
8
CUT
10
28.3863
20
260.4966
0
VERTEX
8
CUT
10
26.8599
20
260.1491
0
VERTEX
8
CUT
10
25.4700
20
259.5234
0
VERTEX
8
CUT
10
24.3380
20
258.5885
0
VERTEX
8
CUT
10
23.4985
20
257.3931
0
VERTEX
8
CUT
10
23.1927
20
256.0421
0
VERTEX
8
CUT
10
23.1598
20
255.9518
0
VERTEX
8
CUT
10
23.1647
20
255.9184
0
VERTEX
8
CUT
10
23.1087
20
255.6710
0
VERTEX
8
CUT
10
23.2766
20
254.7571
0
VERTEX
8
CUT
10
23.3586
20
254.6083
0
VERTEX
8
CUT
10
23.3675
20
254.5482
0
VERTEX
8
CUT
10
23.4461
20
254.4494
0
VERTEX
8
CUT
10
24.0337
20
253.3829
0
VERTEX
8
CUT
10
24.6637
20
252.9053
0
VERTEX
8
CUT
10
25.3963
20
252.6770
0
VERTEX
8
CUT
10
26.4766
20
252.7536
0
VERTEX
8
CUT
10
26.5562
20
252.7454
0
VERTEX
8
CUT
10
27.3485
20
252.5296
0
VERTEX
8
CUT
10
27.7471
20
252.0716
0
VERTEX
8
CUT
10
27.8132
20
251.2319
0
VERTEX
8
CUT
10
27.8124
20
251.2276
0
VERTEX
8
CUT
10
27.8119
20
251.2254
0
VERTEX
8
CUT
10
27.8119
20
251.2253
0
VERTEX
8
CUT
10
27.7839
20
251.0750
0
VERTEX
8
CUT
10
27.5441
20
250.5463
0
VERTEX
8
CUT
10
27.0958
20
249.8128
0
VERTEX
8
CUT
10
26.4641
20
249.1107
0
VERTEX
8
CUT
10
24.6805
20
248.2063
0
VERTEX
8
CUT
10
23.4437
20
248.0149
0
VERTEX
8
CUT
10
22.3793
20
248.1014
0
VERTEX
8
CUT
10
22.1180
20
248.1378
0
VERTEX
8
CUT
10
20.9959
20
248.4845
0
VERTEX
8
CUT
10
19.8658
20
249.0937
0
VERTEX
8
CUT
10
18.7371
20
249.9960
0
VERTEX
8
CUT
10
17.7496
20
251.1132
0
VERTEX
8
CUT
10
16.3380
20
253.6878
0
VERTEX
8
CUT
10
16.0484
20
254.7188
0
VERTEX
8
CUT
10
15.9072
20
255.4480
0
VERTEX
8
CUT
10
15.9072
20
258.0575
0
VERTEX
8
CUT
10
16.0520
20
259.0367
0
VERTEX
8
CUT
10
16.4606
20
260.4557
0
VERTEX
8
CUT
10
16.6035
20
260.8544
0
VERTEX
8
CUT
10
17.9676
20
263.0367
0
VERTEX
8
CUT
10
18.8603
20
263.9654
0
VERTEX
8
CUT
10
19.9210
20
264.8017
0
VERTEX
8
CUT
10
22.1871
20
265.9624
0
VERTEX
8
CUT
10
25.0844
20
266.4836
0
VERTEX
8
CUT
10
26.2624
20
266.6378
0
VERTEX
8
CUT
10
26.3389
20
266.7093
0
VERTEX
8
CUT
10
26.4286
20
266.7254
0
VERTEX
8
CUT
10
26.4820
20
266.8431
0
VERTEX
8
CUT
10
26.6381
20
266.9891
0
VERTEX
8
CUT
10
26.5862
20
267.0726
0
VERTEX
8
CUT
10
26.6195
20
267.1459
0
VERTEX
8
CUT
10
26.5241
20
267.2810
0
VERTEX
8
CUT
10
26.5242
20
267.2843
0
VERTEX
8
CUT
10
26.5183
20
267.2891
0
VERTEX
8
CUT
10
26.1806
20
267.7674
0
VERTEX
8
CUT
10
25.7782
20
268.0679
0
VERTEX
8
CUT
10
25.2282
20
268.5084
0
VERTEX
8
CUT
10
25.0425
20
268.6172
0
VERTEX
8
CUT
10
24.7797
20
268.8134
0
VERTEX
8
CUT
10
24.7362
20
268.8491
0
VERTEX
8
CUT
10
24.7343
20
268.8474
0
VERTEX
8
CUT
10
24.3339
20
269.1463
0
VERTEX
8
CUT
10
22.2914
20
269.8415
0
VERTEX
8
CUT
10
21.1126
20
269.9056
0
VERTEX
8
CUT
10
18.8710
20
269.5028
0
VERTEX
8
CUT
10
17.6675
20
269.0073
0
VERTEX
8
CUT
10
16.9546
20
268.5007
0
VERTEX
8
CUT
10
16.6957
20
268.3549
0
VERTEX
8
CUT
10
16.4459
20
268.1392
0
VERTEX
8
CUT
10
15.2438
20
267.2848
0
VERTEX
8
CUT
10
14.5716
20
266.5206
0
VERTEX
8
CUT
10
14.5603
20
266.5108
0
VERTEX
8
CUT
10
14.4822
20
266.4188
0
VERTEX
8
CUT
10
13.0978
20
264.8447
0
VERTEX
8
CUT
10
12.1635
20
263.3427
0
VERTEX
8
CUT
10
11.3106
20
261.7259
0
VERTEX
8
CUT
10
10.0948
20
258.2553
0
VERTEX
8
CUT
10
10.0925
20
258.2377
0
VERTEX
8
CUT
10
9.6530
20
257.0999
0
VERTEX
8
CUT
10
9.6457
20
254.9344
0
VERTEX
8
CUT
10
9.6433
20
254.9163
0
VERTEX
8
CUT
10
9.6265
20
251.4199
0
VERTEX
8
CUT
10
9.3733
20
251.1878
0
VERTEX
8
CUT
10
9.3431
20
249.0406
0
VERTEX
8
CUT
10
9.6126
20
248.5315
0
VERTEX
8
CUT
10
9.4926
20
223.5483
0
VERTEX
8
CUT
10
9.5295
20
220.1057
0
VERTEX
8
CUT
10
9.5228
20
218.1056
0
VERTEX
8
CUT
10
9.6047
20
212.4719
0
VERTEX
8
CUT
10
9.5398
20
212.4198
0
VERTEX
8
CUT
10
9.6186
20
206.6590
0
VERTEX
8
CUT
10
9.6741
20
206.6309
0
VERTEX
8
CUT
10
9.6754
20
206.5066
0
VERTEX
8
CUT
10
9.9805
20
206.2486
0
VERTEX
8
CUT
10
10.3744
20
206.4258
0
VERTEX
8
CUT
10
13.9576
20
214.4340
0
VERTEX
8
CUT
10
17.5009
20
221.3098
0
VERTEX
8
CUT
10
19.8637
20
225.3631
0
VERTEX
8
CUT
10
22.2339
20
229.2212
0
VERTEX
8
CUT
10
22.8428
20
230.2123
0
VERTEX
8
CUT
10
23.0270
20
230.5121
0
VERTEX
8
CUT
10
23.2181
20
230.8232
0
VERTEX
8
CUT
10
25.7366
20
234.7251
0
VERTEX
8
CUT
10
30.3695
20
241.1757
0
VERTEX
8
CUT
10
35.2740
20
247.3826
0
VERTEX
8
CUT
10
40.4958
20
253.3332
0
VERTEX
8
CUT
10
45.9029
20
258.9215
0
VERTEX
8
CUT
10
50.4592
20
263.2347
0
VERTEX
8
CUT
10
59.3012
20
270.6268
0
VERTEX
8
CUT
10
59.9350
20
271.1033
0
SEQEND
0
POLYLINE
8
CUT
66
1
70
1
10
0.0
20
0.0
30
0.0
0
VERTEX
8
CUT
10
18.7547
20
32.1677
0
VERTEX
8
CUT
10
20.6512
20
31.7870
0
VERTEX
8
CUT
10
22.2163
20
31.9666
0
VERTEX
8
CUT
10
22.2228
20
31.9671
0
VERTEX
8
CUT
10
22.2243
20
31.9675
0
VERTEX
8
CUT
10
23.2436
20
32.0845
0
VERTEX
8
CUT
10
25.1730
20
33.0935
0
VERTEX
8
CUT
10
26.3477
20
34.2367
0
VERTEX
8
CUT
10
26.4300
20
34.6228
0
VERTEX
8
CUT
10
26.2222
20
34.8851
0
VERTEX
8
CUT
10
26.1671
20
34.8956
0
VERTEX
8
CUT
10
26.0703
20
34.9842
0
VERTEX
8
CUT
10
26.0394
20
34.9876
0
VERTEX
8
CUT
10
26.0353
20
34.9941
0
VERTEX
8
CUT
10
25.6252
20
35.0336
0
VERTEX
8
CUT
10
22.6072
20
35.6021
0
VERTEX
8
CUT
10
21.3502
20
36.0267
0
VERTEX
8
CUT
10
20.8230
20
36.2905
0
VERTEX
8
CUT
10
20.5677
20
36.4182
0
VERTEX
8
CUT
10
20.4230
20
36.4906
0
VERTEX
8
CUT
10
20.2723
20
36.5660
0
VERTEX
8
CUT
10
19.5673
20
36.9625
0
VERTEX
8
CUT
10
19.4397
20
37.0678
0
VERTEX
8
CUT
10
18.4859
20
37.9299
0
VERTEX
8
CUT
10
18.3920
20
38.0148
0
VERTEX
8
CUT
10
18.1038
20
38.2753
0
VERTEX
8
CUT
10
18.0444
20
38.3290
0
VERTEX
8
CUT
10
17.5760
20
38.8969
0
VERTEX
8
CUT
10
17.4238
20
39.1273
0
VERTEX
8
CUT
10
17.3809
20
39.1923
0
VERTEX
8
CUT
10
17.1575
20
39.5306
0
VERTEX
8
CUT
10
17.0788
20
39.6499
0
VERTEX
8
CUT
10
16.5284
20
40.6846
0
VERTEX
8
CUT
10
16.0334
20
42.3225
0
VERTEX
8
CUT
10
15.7861
20
44.1224
0
VERTEX
8
CUT
10
15.7588
20
46.0006
0
VERTEX
8
CUT
10
16.1136
20
47.4268
0
VERTEX
8
CUT
10
17.2893
20
49.6728
0
VERTEX
8
CUT
10
18.7246
20
51.3433
0
VERTEX
8
CUT
10
18.7557
20
51.3750
0
VERTEX
8
CUT
10
18.8013
20
51.4154
0
VERTEX
8
CUT
10
19.1323
20
51.6616
0
VERTEX
8
CUT
10
20.4032
20
52.3650
0
VERTEX
8
CUT
10
21.2694
20
52.7265
0
VERTEX
8
CUT
10
21.4575
20
52.7619
0
VERTEX
8
CUT
10
21.8089
20
52.8281
0
VERTEX
8
CUT
10
21.9611
20
52.8568
0
VERTEX
8
CUT
10
22.0635
20
52.8761
0
VERTEX
8
CUT
10
23.5257
20
52.9437
0
VERTEX
8
CUT
10
23.8158
20
52.8962
0
VERTEX
8
CUT
10
24.0220
20
52.8624
0
VERTEX
8
CUT
10
24.2824
20
52.8198
0
VERTEX
8
CUT
10
24.9160
20
52.7160
0
VERTEX
8
CUT
10
25.3422
20
52.5081
0
VERTEX
8
CUT
10
25.7697
20
52.2321
0
VERTEX
8
CUT
10
25.8146
20
52.2032
0
VERTEX
8
CUT
10
25.9107
20
52.1411
0
VERTEX
8
CUT
10
26.1284
20
52.0006
0
VERTEX
8
CUT
10
26.9506
20
51.1556
0
VERTEX
8
CUT
10
27.3691
20
50.3000
0
VERTEX
8
CUT
10
27.4561
20
50.1057
0
VERTEX
8
CUT
10
27.4623
20
49.0746
0
VERTEX
8
CUT
10
27.4368
20
48.8990
0
VERTEX
8
CUT
10
27.3766
20
48.7648
0
VERTEX
8
CUT
10
26.7170
20
48.4009
0
VERTEX
8
CUT
10
25.2517
20
48.3194
0
VERTEX
8
CUT
10
24.9796
20
48.3227
0
VERTEX
8
CUT
10
24.9244
20
48.3011
0
VERTEX
8
CUT
10
24.3466
20
48.2690
0
VERTEX
8
CUT
10
24.0719
20
47.9671
0
VERTEX
8
CUT
10
23.9838
20
47.9326
0
VERTEX
8
CUT
10
23.6413
20
47.4940
0
VERTEX
8
CUT
10
23.1646
20
46.9702
0
VERTEX
8
CUT
10
22.8632
20
45.7794
0
VERTEX
8
CUT
10
23.1034
20
44.5177
0
VERTEX
8
CUT
10
23.9672
20
43.1685
0
VERTEX
8
CUT
10
24.6807
20
42.4831
0
VERTEX
8
CUT
10
25.6295
20
41.7956
0
VERTEX
8
CUT
10
26.8027
20
41.2669
0
VERTEX
8
CUT
10
29.5984
20
40.7054
0
VERTEX
8
CUT
10
32.7396
20
40.8255
0
VERTEX
8
CUT
10
34.0743
20
41.1949
0
VERTEX
8
CUT
10
34.4940
20
41.2662
0
VERTEX
8
CUT
10
35.6104
20
41.6200
0
VERTEX
8
CUT
10
38.3555
20
42.3797
0
VERTEX
8
CUT
10
38.3942
20
42.3833
0
VERTEX
8
CUT
10
38.4006
20
42.3839
0
VERTEX
8
CUT
10
38.4075
20
42.3846
0
VERTEX
8
CUT
10
38.4418
20
42.3878
0
VERTEX
8
CUT
10
39.3079
20
42.2092
0
VERTEX
8
CUT
10
40.4689
20
41.0377
0
VERTEX
8
CUT
10
40.5616
20
40.7402
0
VERTEX
8
CUT
10
40.5610
20
40.7317
0
VERTEX
8
CUT
10
40.5606
20
40.7269
0
VERTEX
8
CUT
10
40.5588
20
40.7023
0
VERTEX
8
CUT
10
40.5513
20
40.5982
0
VERTEX
8
CUT
10
40.4061
20
40.1709
0
VERTEX
8
CUT
10
40.2260
20
39.7838
0
VERTEX
8
CUT
10
38.2902
20
36.9171
0
VERTEX
8
CUT
10
37.4576
20
35.2565
0
VERTEX
8
CUT
10
37.1222
20
33.9079
0
VERTEX
8
CUT
10
37.0108
20
33.6213
0
VERTEX
8
CUT
10
36.9791
20
33.3329
0
VERTEX
8
CUT
10
36.8031
20
32.6254
0
VERTEX
8
CUT
10
36.8027
20
32.0693
0
VERTEX
8
CUT
10
36.7931
20
32.0606
0
VERTEX
8
CUT
10
36.8025
20
31.8619
0
VERTEX
8
CUT
10
36.8024
20
31.7233
0
VERTEX
8
CUT
10
36.7138
20
30.9163
0
VERTEX
8
CUT
10
36.8011
20
30.1377
0
VERTEX
8
CUT
10
36.8009
20
29.8859
0
VERTEX
8
CUT
10
37.0124
20
28.3375
0
VERTEX
8
CUT
10
37.7270
20
26.7723
0
VERTEX
8
CUT
10
38.6052
20
25.6518
0
VERTEX
8
CUT
10
39.6886
20
24.7502
0
VERTEX
8
CUT
10
40.2660
20
24.5105
0
VERTEX
8
CUT
10
40.3949
20
24.4259
0
VERTEX
8
CUT
10
40.5306
20
24.3976
0
VERTEX
8
CUT
10
40.8930
20
24.2266
0
VERTEX
8
CUT
10
40.9684
20
24.2190
0
VERTEX
8
CUT
10
41.3179
20
24.0739
0
VERTEX
8
CUT
10
42.4120
20
24.0717
0
VERTEX
8
CUT
10
43.2598
20
24.4848
0
VERTEX
8
CUT
10
43.4557
20
24.7094
0
VERTEX
8
CUT
10
43.5659
20
24.7541
0
VERTEX
8
CUT
10
43.6936
20
24.9208
0
VERTEX
8
CUT
10
43.9484
20
25.0747
0
VERTEX
8
CUT
10
44.3355
20
25.5090
0
VERTEX
8
CUT
10
44.4917
20
25.8969
0
VERTEX
8
CUT
10
44.6423
20
26.0695
0
VERTEX
8
CUT
10
44.6404
20
26.2661
0
VERTEX
8
CUT
10
44.6965
20
26.4054
0
VERTEX
8
CUT
10
44.6838
20
26.6858
0
VERTEX
8
CUT
10
44.7569
20
27.1995
0
VERTEX
8
CUT
10
44.6270
20
27.6755
0
VERTEX
8
CUT
10
44.6089
20
29.5658
0
VERTEX
8
CUT
10
44.6544
20
29.6265
0
VERTEX
8
CUT
10
45.3968
20
29.9059
0
VERTEX
8
CUT
10
46.8021
20
29.9060
0
VERTEX
8
CUT
10
46.8119
20
29.9049
0
VERTEX
8
CUT
10
46.8547
20
29.9001
0
VERTEX
8
CUT
10
46.9206
20
29.8927
0
VERTEX
8
CUT
10
46.9964
20
29.8843
0
VERTEX
8
CUT
10
47.8585
20
29.5407
0
VERTEX
8
CUT
10
48.0520
20
29.4112
0
VERTEX
8
CUT
10
48.0715
20
29.3982
0
VERTEX
8
CUT
10
48.0972
20
29.3810
0
VERTEX
8
CUT
10
48.1410
20
29.3517
0
VERTEX
8
CUT
10
49.5715
20
27.8992
0
VERTEX
8
CUT
10
50.1336
20
26.7446
0
VERTEX
8
CUT
10
50.4373
20
25.5535
0
VERTEX
8
CUT
10
50.5000
20
24.2407
0
VERTEX
8
CUT
10
50.3403
20
23.0491
0
VERTEX
8
CUT
10
50.2183
20
22.5890
0
VERTEX
8
CUT
10
49.7358
20
21.2989
0
VERTEX
8
CUT
10
49.1429
20
20.3628
0
VERTEX
8
CUT
10
49.0401
20
20.2005
0
VERTEX
8
CUT
10
49.0259
20
20.1780
0
VERTEX
8
CUT
10
49.0098
20
20.1526
0
VERTEX
8
CUT
10
48.5161
20
19.4715
0
VERTEX
8
CUT
10
48.4137
20
19.3735
0
VERTEX
8
CUT
10
48.3518
20
19.3143
0
VERTEX
8
CUT
10
48.3422
20
19.3050
0
VERTEX
8
CUT
10
48.3041
20
19.2686
0
VERTEX
8
CUT
10
47.0858
20
18.1848
0
VERTEX
8
CUT
10
45.3533
20
17.2141
0
VERTEX
8
CUT
10
43.4985
20
16.6379
0
VERTEX
8
CUT
10
41.5223
20
16.4236
0
VERTEX
8
CUT
10
39.4858
20
16.6027
0
VERTEX
8
CUT
10
37.4157
20
17.2554
0
VERTEX
8
CUT
10
36.1983
20
17.9232
0
VERTEX
8
CUT
10
33.9983
20
19.8091
0
VERTEX
8
CUT
10
33.1356
20
20.9853
0
VERTEX
8
CUT
10
31.8355
20
23.6759
0
VERTEX
8
CUT
10
31.4216
20
25.2650
0
VERTEX
8
CUT
10
30.9657
20
28.6739
0
VERTEX
8
CUT
10
30.7245
20
28.9635
0
VERTEX
8
CUT
10
30.3225
20
28.8937
0
VERTEX
8
CUT
10
30.1163
20
28.6098
0
VERTEX
8
CUT
10
29.7866
20
28.3350
0
VERTEX
8
CUT
10
29.3388
20
27.5388
0
VERTEX
8
CUT
10
29.3253
20
27.5203
0
VERTEX
8
CUT
10
29.3120
20
27.4913
0
VERTEX
8
CUT
10
29.2423
20
27.3673
0
VERTEX
8
CUT
10
29.2374
20
27.3285
0
VERTEX
8
CUT
10
28.5099
20
25.7412
0
VERTEX
8
CUT
10
28.3031
20
23.3645
0
VERTEX
8
CUT
10
28.5189
20
22.0664
0
VERTEX
8
CUT
10
29.5593
20
19.5578
0
VERTEX
8
CUT
10
30.2686
20
18.5742
0
VERTEX
8
CUT
10
30.6090
20
18.0168
0
VERTEX
8
CUT
10
31.1117
20
17.4050
0
VERTEX
8
CUT
10
31.3835
20
17.0281
0
VERTEX
8
CUT
10
31.6244
20
16.7811
0
VERTEX
8
CUT
10
32.0082
20
16.3140
0
VERTEX
8
CUT
10
33.7112
20
14.7551
0
VERTEX
8
CUT
10
34.8193
20
13.9688
0
VERTEX
8
CUT
10
35.2093
20
13.6517
0
VERTEX
8
CUT
10
36.5639
20
12.7505
0
VERTEX
8
CUT
10
39.3422
20
11.3612
0
VERTEX
8
CUT
10
40.6345
20
11.0156
0
VERTEX
8
CUT
10
41.0955
20
10.8172
0
VERTEX
8
CUT
10
41.5351
20
10.7744
0
VERTEX
8
CUT
10
42.4362
20
10.5120
0
VERTEX
8
CUT
10
42.6628
20
10.4731
0
VERTEX
8
CUT
10
43.9626
20
10.1255
0
VERTEX
8
CUT
10
44.8187
20
10.1035
0
VERTEX
8
CUT
10
44.8645
20
10.0956
0
VERTEX
8
CUT
10
45.2648
20
10.0920
0
VERTEX
8
CUT
10
52.1098
20
9.9160
0
VERTEX
8
CUT
10
67.4658
20
9.8857
0
VERTEX
8
CUT
10
67.6790
20
9.8896
0
VERTEX
8
CUT
10
68.1039
20
9.8857
0
VERTEX
8
CUT
10
82.3150
20
10.0370
0
VERTEX
8
CUT
10
84.3117
20
10.0891
0
VERTEX
8
CUT
10
87.2146
20
10.0974
0
VERTEX
8
CUT
10
87.4183
20
10.2459
0
VERTEX
8
CUT
10
87.5732
20
10.2487
0
VERTEX
8
CUT
10
87.6899
20
10.5929
0
VERTEX
8
CUT
10
87.5054
20
10.8661
0
VERTEX
8
CUT
10
78.9880
20
15.3241
0
VERTEX
8
CUT
10
74.2921
20
18.0200
0
VERTEX
8
CUT
10
74.0630
20
18.1632
0
VERTEX
8
CUT
10
72.9766
20
18.8820
0
VERTEX
8
CUT
10
71.7405
20
19.6999
0
VERTEX
8
CUT
10
69.5185
20
21.1702
0
VERTEX
8
CUT
10
64.8758
20
24.2422
0
VERTEX
8
CUT
10
56.4997
20
30.7506
0
VERTEX
8
CUT
10
44.4263
20
41.7999
0
VERTEX
8
CUT
10
43.6589
20
42.2335
0
VERTEX
8
CUT
10
42.3229
20
42.2924
0
VERTEX
8
CUT
10
41.6621
20
42.7170
0
VERTEX
8
CUT
10
41.3119
20
43.4058
0
VERTEX
8
CUT
10
41.5146
20
44.5314
0
VERTEX
8
CUT
10
41.0821
20
45.3222
0
VERTEX
8
CUT
10
35.9642
20
51.6312
0
VERTEX
8
CUT
10
33.1858
20
55.1859
0
VERTEX
8
CUT
10
32.5874
20
55.9515
0
VERTEX
8
CUT
10
32.0496
20
56.6396
0
VERTEX
8
CUT
10
31.7168
20
57.0654
0
VERTEX
8
CUT
10
29.4076
20
60.2041
0
VERTEX
8
CUT
10
22.0729
20
71.2369
0
VERTEX
8
CUT
10
15.7453
20
82.5610
0
VERTEX
8
CUT
10
13.0498
20
88.1044
0
VERTEX
8
CUT
10
10.4591
20
94.0583
0
VERTEX
8
CUT
10
10.3108
20
94.5648
0
VERTEX
8
CUT
10
9.7060
20
95.1697
0
VERTEX
8
CUT
10
9.4338
20
94.9882
0
VERTEX
8
CUT
10
9.3431
20
94.6253
0
VERTEX
8
CUT
10
9.3733
20
92.4177
0
VERTEX
8
CUT
10
9.6190
20
92.2167
0
VERTEX
8
CUT
10
9.5229
20
87.3084
0
VERTEX
8
CUT
10
9.4926
20
56.4317
0
VERTEX
8
CUT
10
9.5229
20
54.4272
0
VERTEX
8
CUT
10
9.5229
20
53.4644
0
VERTEX
8
CUT
10
9.5765
20
50.8837
0
VERTEX
8
CUT
10
9.6444
20
46.3905
0
VERTEX
8
CUT
10
9.8885
20
43.8940
0
VERTEX
8
CUT
10
10.4865
20
41.9702
0
VERTEX
8
CUT
10
10.6231
20
41.4662
0
VERTEX
8
CUT
10
10.6948
20
41.3002
0
VERTEX
8
CUT
10
10.9507
20
40.4770
0
VERTEX
8
CUT
10
12.1136
20
38.1127
0
VERTEX
8
CUT
10
13.5509
20
36.0049
0
VERTEX
8
CUT
10
15.1388
20
34.3310
0
VERTEX
8
CUT
10
16.9214
20
33.0242
0
SEQEND
0
POLYLINE
8
CUT
66
1
70
1
10
0.0
20
0.0
30
0.0
0
VERTEX
8
CUT
10
27.9692
20
10.3296
0
VERTEX
8
CUT
10
28.0247
20
10.8274
0
VERTEX
8
CUT
10
26.0762
20
12.8400
0
VERTEX
8
CUT
10
25.8688
20
13.0678
0
VERTEX
8
CUT
10
25.4544
20
13.5228
0
VERTEX
8
CUT
10
25.0647
20
13.9507
0
VERTEX
8
CUT
10
24.8068
20
14.2339
0
VERTEX
8
CUT
10
23.2709
20
16.7349
0
VERTEX
8
CUT
10
22.1703
20
19.6497
0
VERTEX
8
CUT
10
21.9056
20
20.8706
0
VERTEX
8
CUT
10
21.8502
20
21.2789
0
VERTEX
8
CUT
10
21.6856
20
23.5151
0
VERTEX
8
CUT
10
21.4916
20
23.9218
0
VERTEX
8
CUT
10
21.4848
20
23.9723
0
VERTEX
8
CUT
10
21.4663
20
23.9749
0
VERTEX
8
CUT
10
21.3286
20
24.2636
0
VERTEX
8
CUT
10
20.7977
20
24.4303
0
VERTEX
8
CUT
10
19.4430
20
24.2848
0
VERTEX
8
CUT
10
18.7417
20
24.3596
0
VERTEX
8
CUT
10
18.6156
20
24.3774
0
VERTEX
8
CUT
10
18.5513
20
24.3865
0
VERTEX
8
CUT
10
18.4985
20
24.3939
0
VERTEX
8
CUT
10
18.2232
20
24.4328
0
VERTEX
8
CUT
10
17.7281
20
24.5815
0
VERTEX
8
CUT
10
17.1829
20
24.7618
0
VERTEX
8
CUT
10
17.0149
20
24.8173
0
VERTEX
8
CUT
10
16.7990
20
24.8887
0
VERTEX
8
CUT
10
15.4711
20
25.3276
0
VERTEX
8
CUT
10
12.1064
20
27.2783
0
VERTEX
8
CUT
10
9.9002
20
29.3676
0
VERTEX
8
CUT
10
9.4041
20
29.2292
0
VERTEX
8
CUT
10
9.2802
20
28.3995
0
VERTEX
8
CUT
10
9.2203
20
17.5476
0
VERTEX
8
CUT
10
9.4848
20
11.7416
0
VERTEX
8
CUT
10
10.0902
20
10.5030
0
VERTEX
8
CUT
10
10.4676
20
10.4101
0
VERTEX
8
CUT
10
10.7281
20
10.1162
0
VERTEX
8
CUT
10
13.8266
20
10.1254
0
VERTEX
8
CUT
10
14.4825
20
10.0975
0
VERTEX
8
CUT
10
24.9642
20
10.1277
0
VERTEX
8
CUT
10
24.9643
20
10.1277
0
VERTEX
8
CUT
10
25.6886
20
10.1277
0
VERTEX
8
CUT
10
26.9212
20
10.2368
0
VERTEX
8
CUT
10
27.5254
20
10.2583
0
VERTEX
8
CUT
10
27.5720
20
10.2945
0
SEQEND
0
POLYLINE
8
CUT
66
1
70
1
10
0.0
20
0.0
30
0.0
0
VERTEX
8
CUT
10
22.9808
20
283.6204
0
VERTEX
8
CUT
10
25.0552
20
287.0588
0
VERTEX
8
CUT
10
26.8357
20
289.1827
0
VERTEX
8
CUT
10
27.4217
20
289.8588
0
VERTEX
8
CUT
10
27.3668
20
290.3570
0
VERTEX
8
CUT
10
24.9619
20
290.5948
0
VERTEX
8
CUT
10
10.9809
20
290.6230
0
VERTEX
8
CUT
10
10.0655
20
289.7906
0
VERTEX
8
CUT
10
10.0372
20
289.7780
0
VERTEX
8
CUT
10
10.0278
20
289.7564
0
VERTEX
8
CUT
10
9.6125
20
289.3788
0
VERTEX
8
CUT
10
9.6003
20
288.1839
0
VERTEX
8
CUT
10
9.5226
20
286.9499
0
VERTEX
8
CUT
10
9.5227
20
280.6003
0
VERTEX
8
CUT
10
9.4944
20
277.8306
0
VERTEX
8
CUT
10
9.4926
20
277.7144
0
VERTEX
8
CUT
10
9.4931
20
277.6998
0
VERTEX
8
CUT
10
9.4926
20
277.6538
0
VERTEX
8
CUT
10
9.5228
20
276.5951
0
VERTEX
8
CUT
10
9.5228
20
274.7606
0
VERTEX
8
CUT
10
9.6259
20
272.9816
0
VERTEX
8
CUT
10
9.6597
20
271.7963
0
VERTEX
8
CUT
10
9.9313
20
271.5556
0
VERTEX
8
CUT
10
10.2542
20
271.6192
0
VERTEX
8
CUT
10
12.1221
20
273.4945
0
VERTEX
8
CUT
10
15.0382
20
275.4543
0
VERTEX
8
CUT
10
17.1619
20
276.3127
0
VERTEX
8
CUT
10
20.6608
20
276.9227
0
VERTEX
8
CUT
10
20.9756
20
277.0700
0
VERTEX
8
CUT
10
21.2260
20
277.1390
0
VERTEX
8
CUT
10
21.4569
20
277.1766
0
VERTEX
8
CUT
10
21.5067
20
277.3185
0
VERTEX
8
CUT
10
21.5496
20
277.3386
0
VERTEX
8
CUT
10
21.5758
20
277.5152
0
VERTEX
8
CUT
10
21.7195
20
277.9245
0
VERTEX
8
CUT
10
21.9615
20
280.1231
0
VERTEX
8
CUT
10
22.0771
20
280.9053
0
SEQEND
0
POLYLINE
8
CUT
66
1
70
1
10
0.0
20
0.0
30
0.0
0
VERTEX
8
CUT
10
71.2224
20
120.2004
0
VERTEX
8
CUT
10
72.6442
20
120.2159
0
VERTEX
8
CUT
10
78.8479
20
120.1195
0
VERTEX
8
CUT
10
80.9428
20
120.3305
0
VERTEX
8
CUT
10
82.5311
20
120.7173
0
VERTEX
8
CUT
10
82.5952
20
120.7230
0
VERTEX
8
CUT
10
82.7474
20
120.7700
0
VERTEX
8
CUT
10
84.4599
20
121.1870
0
VERTEX
8
CUT
10
87.1224
20
122.5692
0
VERTEX
8
CUT
10
87.5765
20
122.9694
0
VERTEX
8
CUT
10
87.6194
20
122.9934
0
VERTEX
8
CUT
10
87.6237
20
122.9983
0
VERTEX
8
CUT
10
87.8102
20
123.1041
0
VERTEX
8
CUT
10
88.1251
20
123.4527
0
VERTEX
8
CUT
10
88.1783
20
123.4996
0
VERTEX
8
CUT
10
88.2300
20
123.5688
0
VERTEX
8
CUT
10
88.6609
20
124.0457
0
VERTEX
8
CUT
10
88.7870
20
124.3150
0
VERTEX
8
CUT
10
88.9880
20
124.5841
0
VERTEX
8
CUT
10
89.9536
20
126.7684
0
VERTEX
8
CUT
10
90.0735
20
127.8028
0
VERTEX
8
CUT
10
90.0933
20
127.8730
0
VERTEX
8
CUT
10
90.3629
20
130.0160
0
VERTEX
8
CUT
10
90.3608
20
132.4673
0
VERTEX
8
CUT
10
90.0601
20
135.3150
0
VERTEX
8
CUT
10
89.8942
20
136.1213
0
VERTEX
8
CUT
10
89.8487
20
136.5520
0
VERTEX
8
CUT
10
89.7803
20
136.8617
0
VERTEX
8
CUT
10
89.5814
20
138.5214
0
VERTEX
8
CUT
10
88.5384
20
142.7102
0
VERTEX
8
CUT
10
88.5227
20
142.7863
0
VERTEX
8
CUT
10
88.4919
20
142.8970
0
VERTEX
8
CUT
10
87.6495
20
146.2802
0
VERTEX
8
CUT
10
83.7152
20
160.2694
0
VERTEX
8
CUT
10
82.7542
20
164.3910
0
VERTEX
8
CUT
10
82.6732
20
164.7940
0
VERTEX
8
CUT
10
82.1417
20
167.8849
0
VERTEX
8
CUT
10
81.9706
20
169.0666
0
VERTEX
8
CUT
10
81.6232
20
174.7270
0
VERTEX
8
CUT
10
81.7138
20
178.5831
0
VERTEX
8
CUT
10
82.0249
20
181.2609
0
VERTEX
8
CUT
10
82.4416
20
183.1493
0
VERTEX
8
CUT
10
83.0122
20
185.4001
0
VERTEX
8
CUT
10
83.0137
20
185.4041
0
VERTEX
8
CUT
10
83.0179
20
185.4161
0
VERTEX
8
CUT
10
83.0259
20
185.4384
0
VERTEX
8
CUT
10
83.0829
20
185.5978
0
VERTEX
8
CUT
10
84.4312
20
189.2330
0
VERTEX
8
CUT
10
86.2847
20
192.9973
0
VERTEX
8
CUT
10
88.3899
20
196.4756
0
VERTEX
8
CUT
10
88.4958
20
196.6414
0
VERTEX
8
CUT
10
88.5234
20
196.6846
0
VERTEX
8
CUT
10
88.5438
20
196.7165
0
VERTEX
8
CUT
10
88.6455
20
196.8758
0
VERTEX
8
CUT
10
90.3798
20
199.2789
0
VERTEX
8
CUT
10
91.9920
20
201.3644
0
VERTEX
8
CUT
10
93.0243
20
202.5928
0
VERTEX
8
CUT
10
97.1182
20
207.0227
0
VERTEX
8
CUT
10
97.6348
20
207.5579
0
VERTEX
8
CUT
10
101.3458
20
210.9069
0
VERTEX
8
CUT
10
106.0762
20
214.6981
0
VERTEX
8
CUT
10
114.9175
20
221.0269
0
VERTEX
8
CUT
10
116.2248
20
221.7728
0
VERTEX
8
CUT
10
117.2625
20
222.0481
0
VERTEX
8
CUT
10
117.5787
20
222.8845
0
VERTEX
8
CUT
10
117.6109
20
224.9592
0
VERTEX
8
CUT
10
117.3691
20
229.9481
0
VERTEX
8
CUT
10
116.9198
20
234.2058
0
VERTEX
8
CUT
10
116.5832
20
235.8827
0
VERTEX
8
CUT
10
116.3036
20
236.6826
0
VERTEX
8
CUT
10
116.2824
20
236.7810
0
VERTEX
8
CUT
10
116.2073
20
236.9580
0
VERTEX
8
CUT
10
115.6957
20
238.4218
0
VERTEX
8
CUT
10
115.4228
20
238.8071
0
VERTEX
8
CUT
10
115.3815
20
238.9044
0
VERTEX
8
CUT
10
114.9803
20
239.4319
0
VERTEX
8
CUT
10
114.4110
20
240.2358
0
VERTEX
8
CUT
10
114.2934
20
240.3351
0
VERTEX
8
CUT
10
114.1314
20
240.5481
0
VERTEX
8
CUT
10
113.8785
20
240.6853
0
VERTEX
8
CUT
10
113.2155
20
241.2450
0
VERTEX
8
CUT
10
111.9179
20
241.7029
0
VERTEX
8
CUT
10
109.7188
20
242.0785
0
VERTEX
8
CUT
10
109.4947
20
241.6349
0
VERTEX
8
CUT
10
110.7091
20
238.0100
0
VERTEX
8
CUT
10
111.5472
20
234.0252
0
VERTEX
8
CUT
10
111.8118
20
233.8141
0
VERTEX
8
CUT
10
112.1417
20
233.8894
0
VERTEX
8
CUT
10
112.4760
20
234.7630
0
VERTEX
8
CUT
10
112.9484
20
235.0667
0
VERTEX
8
CUT
10
113.5082
20
234.8073
0
VERTEX
8
CUT
10
113.7950
20
233.9810
0
VERTEX
8
CUT
10
113.5922
20
233.0384
0
VERTEX
8
CUT
10
113.1594
20
232.6586
0
VERTEX
8
CUT
10
112.7284
20
232.7597
0
VERTEX
8
CUT
10
112.1912
20
233.4289
0
VERTEX
8
CUT
10
111.8638
20
233.3896
0
VERTEX
8
CUT
10
111.6907
20
233.1505
0
VERTEX
8
CUT
10
111.9512
20
229.6181
0
VERTEX
8
CUT
10
111.8617
20
226.9049
0
VERTEX
8
CUT
10
111.5588
20
224.3783
0
VERTEX
8
CUT
10
111.0350
20
222.0625
0
VERTEX
8
CUT
10
109.8977
20
219.5699
0
VERTEX
8
CUT
10
108.1132
20
217.6849
0
VERTEX
8
CUT
10
105.8214
20
215.9702
0
VERTEX
8
CUT
10
103.7847
20
214.7449
0
VERTEX
8
CUT
10
102.2042
20
213.1764
0
VERTEX
8
CUT
10
101.8768
20
213.0884
0
VERTEX
8
CUT
10
101.6163
20
213.2654
0
VERTEX
8
CUT
10
101.5222
20
214.1481
0
VERTEX
8
CUT
10
102.0405
20
216.9444
0
VERTEX
8
CUT
10
102.3688
20
220.5889
0
VERTEX
8
CUT
10
102.3899
20
222.7409
0
VERTEX
8
CUT
10
102.4592
20
223.4469
0
VERTEX
8
CUT
10
102.4242
20
225.2683
0
VERTEX
8
CUT
10
102.4294
20
225.6445
0
VERTEX
8
CUT
10
102.4199
20
225.7946
0
VERTEX
8
CUT
10
102.4297
20
226.7935
0
VERTEX
8
CUT
10
102.1268
20
229.9067
0
VERTEX
8
CUT
10
101.2697
20
233.1902
0
VERTEX
8
CUT
10
100.0754
20
235.4790
0
VERTEX
8
CUT
10
99.2361
20
236.3572
0
VERTEX
8
CUT
10
99.1964
20
236.3804
0
VERTEX
8
CUT
10
99.0259
20
236.5602
0
VERTEX
8
CUT
10
98.6044
20
236.7873
0
VERTEX
8
CUT
10
98.1570
20
237.1464
0
VERTEX
8
CUT
10
97.5151
20
237.3743
0
VERTEX
8
CUT
10
97.2877
20
237.4968
0
VERTEX
8
CUT
10
97.2674
20
237.5042
0
VERTEX
8
CUT
10
97.0746
20
237.6165
0
VERTEX
8
CUT
10
93.7510
20
238.7978
0
VERTEX
8
CUT
10
93.7084
20
238.8192
0
VERTEX
8
CUT
10
92.7672
20
239.3320
0
VERTEX
8
CUT
10
91.3872
20
240.3991
0
VERTEX
8
CUT
10
89.7203
20
242.2776
0
VERTEX
8
CUT
10
88.6733
20
244.3711
0
VERTEX
8
CUT
10
88.3372
20
246.4163
0
VERTEX
8
CUT
10
88.7203
20
248.2995
0
VERTEX
8
CUT
10
88.7624
20
248.3819
0
VERTEX
8
CUT
10
88.8074
20
248.4699
0
VERTEX
8
CUT
10
88.8296
20
248.5133
0
VERTEX
8
CUT
10
88.8527
20
248.5586
0
VERTEX
8
CUT
10
89.4159
20
249.2708
0
VERTEX
8
CUT
10
90.4099
20
250.0142
0
VERTEX
8
CUT
10
91.5782
20
250.4237
0
VERTEX
8
CUT
10
94.6293
20
250.3650
0
VERTEX
8
CUT
10
95.8371
20
250.8299
0
VERTEX
8
CUT
10
97.3543
20
250.9080
0
VERTEX
8
CUT
10
98.9990
20
250.9408
0
VERTEX
8
CUT
10
102.0875
20
250.6898
0
VERTEX
8
CUT
10
102.3725
20
250.9509
0
VERTEX
8
CUT
10
103.0996
20
252.5128
0
VERTEX
8
CUT
10
104.8073
20
254.9266
0
VERTEX
8
CUT
10
104.8110
20
254.9296
0
VERTEX
8
CUT
10
104.8168
20
254.9342
0
VERTEX
8
CUT
10
104.8399
20
254.9527
0
VERTEX
8
CUT
10
105.0224
20
255.0983
0
VERTEX
8
CUT
10
106.4311
20
255.8884
0
VERTEX
8
CUT
10
108.0532
20
256.1438
0
VERTEX
8
CUT
10
110.7379
20
256.2673
0
VERTEX
8
CUT
10
112.2318
20
256.4585
0
VERTEX
8
CUT
10
114.8195
20
256.6505
0
VERTEX
8
CUT
10
115.3906
20
256.6929
0
VERTEX
8
CUT
10
115.5726
20
256.7064
0
VERTEX
8
CUT
10
115.6340
20
256.7109
0
VERTEX
8
CUT
10
116.8822
20
256.6151
0
VERTEX
8
CUT
10
117.7913
20
256.4480
0
VERTEX
8
CUT
10
117.7966
20
256.4470
0
VERTEX
8
CUT
10
117.8645
20
256.4345
0
VERTEX
8
CUT
10
119.6713
20
256.1025
0
VERTEX
8
CUT
10
121.2801
20
255.5579
0
VERTEX
8
CUT
10
121.3133
20
255.5434
0
VERTEX
8
CUT
10
121.3349
20
255.5340
0
VERTEX
8
CUT
10
121.3668
20
255.5202
0
VERTEX
8
CUT
10
121.4794
20
255.4712
0
VERTEX
8
CUT
10
123.1087
20
254.5979
0
VERTEX
8
CUT
10
124.6719
20
253.3108
0
VERTEX
8
CUT
10
126.0058
20
251.7026
0
VERTEX
8
CUT
10
127.2186
20
249.7032
0
VERTEX
8
CUT
10
128.3643
20
247.2282
0
VERTEX
8
CUT
10
130.0548
20
242.6129
0
VERTEX
8
CUT
10
130.7794
20
241.3369
0
VERTEX
8
CUT
10
130.9674
20
241.1020
0
VERTEX
8
CUT
10
131.0258
20
241.0007
0
VERTEX
8
CUT
10
131.5282
20
240.3971
0
VERTEX
8
CUT
10
132.6068
20
238.8431
0
VERTEX
8
CUT
10
133.1452
20
237.6148
0
VERTEX
8
CUT
10
133.1684
20
237.5434
0
VERTEX
8
CUT
10
133.1846
20
237.4937
0
VERTEX
8
CUT
10
133.2050
20
237.4313
0
VERTEX
8
CUT
10
133.4770
20
236.5971
0
VERTEX
8
CUT
10
134.6547
20
230.6957
0
VERTEX
8
CUT
10
134.8400
20
229.6431
0
VERTEX
8
CUT
10
134.9717
20
229.1071
0
VERTEX
8
CUT
10
135.5015
20
226.4521
0
VERTEX
8
CUT
10
139.9740
20
213.0639
0
VERTEX
8
CUT
10
140.7086
20
209.6150
0
VERTEX
8
CUT
10
140.4905
20
206.6667
0
VERTEX
8
CUT
10
138.2945
20
199.1901
0
VERTEX
8
CUT
10
138.2026
20
197.0811
0
VERTEX
8
CUT
10
138.4472
20
194.4423
0
VERTEX
8
CUT
10
139.2070
20
192.3165
0
VERTEX
8
CUT
10
140.4687
20
190.6151
0
VERTEX
8
CUT
10
142.2851
20
189.3367
0
VERTEX
8
CUT
10
143.8767
20
188.8588
0
VERTEX
8
CUT
10
146.6657
20
189.1279
0
VERTEX
8
CUT
10
148.1721
20
189.6930
0
VERTEX
8
CUT
10
148.3862
20
190.0762
0
VERTEX
8
CUT
10
147.9931
20
190.4318
0
VERTEX
8
CUT
10
146.3839
20
190.2525
0
VERTEX
8
CUT
10
142.8988
20
190.2557
0
VERTEX
8
CUT
10
140.5658
20
193.1335
0
VERTEX
8
CUT
10
139.3666
20
195.6544
0
VERTEX
8
CUT
10
139.2096
20
197.0750
0
VERTEX
8
CUT
10
139.8163
20
199.0547
0
VERTEX
8
CUT
10
140.2060
20
201.9066
0
VERTEX
8
CUT
10
140.7558
20
203.0827
0
VERTEX
8
CUT
10
141.2310
20
205.1565
0
VERTEX
8
CUT
10
141.7444
20
209.5365
0
VERTEX
8
CUT
10
141.7733
20
212.3631
0
VERTEX
8
CUT
10
141.5071
20
215.0619
0
VERTEX
8
CUT
10
140.0217
20
218.7894
0
VERTEX
8
CUT
10
140.5048
20
219.7641
0
VERTEX
8
CUT
10
142.2027
20
221.4314
0
VERTEX
8
CUT
10
144.4437
20
222.8181
0
VERTEX
8
CUT
10
145.6527
20
223.2867
0
VERTEX
8
CUT
10
148.2806
20
223.9974
0
VERTEX
8
CUT
10
152.5827
20
224.3913
0
VERTEX
8
CUT
10
155.6360
20
224.2100
0
VERTEX
8
CUT
10
158.6171
20
223.7848
0
VERTEX
8
CUT
10
164.9646
20
222.1762
0
VERTEX
8
CUT
10
177.8973
20
217.8850
0
VERTEX
8
CUT
10
185.9375
20
216.4852
0
VERTEX
8
CUT
10
186.5774
20
215.8427
0
VERTEX
8
CUT
10
187.3996
20
212.1379
0
VERTEX
8
CUT
10
188.9915
20
208.1166
0
VERTEX
8
CUT
10
190.4124
20
205.6840
0
VERTEX
8
CUT
10
190.7541
20
205.5413
0
VERTEX
8
CUT
10
191.0611
20
205.7485
0
VERTEX
8
CUT
10
191.0736
20
206.0842
0
VERTEX
8
CUT
10
190.0516
20
207.9335
0
VERTEX
8
CUT
10
189.2306
20
209.9446
0
VERTEX
8
CUT
10
188.1416
20
214.1489
0
VERTEX
8
CUT
10
187.8933
20
216.4534
0
VERTEX
8
CUT
10
187.9233
20
219.4836
0
VERTEX
8
CUT
10
188.3591
20
222.5604
0
VERTEX
8
CUT
10
189.2171
20
225.4890
0
VERTEX
8
CUT
10
190.4703
20
228.2932
0
VERTEX
8
CUT
10
192.1198
20
231.0056
0
VERTEX
8
CUT
10
194.1318
20
233.5316
0
VERTEX
8
CUT
10
195.8670
20
235.2668
0
VERTEX
8
CUT
10
196.2759
20
235.6331
0
VERTEX
8
CUT
10
196.2993
20
235.6541
0
VERTEX
8
CUT
10
196.5262
20
235.8574
0
VERTEX
8
CUT
10
196.9055
20
236.1972
0
VERTEX
8
CUT
10
200.0026
20
238.5676
0
VERTEX
8
CUT
10
201.0467
20
239.1818
0
VERTEX
8
CUT
10
201.2886
20
239.6052
0
VERTEX
8
CUT
10
201.1677
20
239.9076
0
VERTEX
8
CUT
10
200.2604
20
239.9983
0
VERTEX
8
CUT
10
199.7549
20
239.7271
0
VERTEX
8
CUT
10
199.5957
20
239.7100
0
VERTEX
8
CUT
10
198.6841
20
239.6685
0
VERTEX
8
CUT
10
191.8108
20
238.8780
0
VERTEX
8
CUT
10
191.3696
20
238.8308
0
VERTEX
8
CUT
10
191.1304
20
238.8052
0
VERTEX
8
CUT
10
191.0929
20
238.8012
0
VERTEX
8
CUT
10
190.0647
20
238.6913
0
VERTEX
8
CUT
10
183.2985
20
238.3971
0
VERTEX
8
CUT
10
180.0270
20
238.8530
0
VERTEX
8
CUT
10
177.3006
20
239.8426
0
VERTEX
8
CUT
10
175.1304
20
241.3377
0
VERTEX
8
CUT
10
174.1433
20
242.2633
0
VERTEX
8
CUT
10
172.6954
20
244.3374
0
VERTEX
8
CUT
10
171.8995
20
246.4897
0
VERTEX
8
CUT
10
171.7890
20
247.4949
0
VERTEX
8
CUT
10
171.7957
20
247.7369
0
VERTEX
8
CUT
10
172.1339
20
249.7795
0
VERTEX
8
CUT
10
172.9633
20
251.0918
0
VERTEX
8
CUT
10
173.0338
20
251.1599
0
VERTEX
8
CUT
10
173.1760
20
251.2972
0
VERTEX
8
CUT
10
173.2605
20
251.3787
0
VERTEX
8
CUT
10
173.4298
20
251.5421
0
VERTEX
8
CUT
10
173.7978
20
251.7631
0
VERTEX
8
CUT
10
174.9994
20
252.3782
0
VERTEX
8
CUT
10
175.6833
20
252.5153
0
VERTEX
8
CUT
10
178.2043
20
252.5492
0
VERTEX
8
CUT
10
179.9225
20
253.1972
0
VERTEX
8
CUT
10
179.9280
20
253.1976
0
VERTEX
8
CUT
10
180.6617
20
253.2531
0
VERTEX
8
CUT
10
183.4577
20
253.3330
0
VERTEX
8
CUT
10
184.0225
20
253.2937
0
VERTEX
8
CUT
10
186.7713
20
252.9684
0
VERTEX
8
CUT
10
191.9370
20
251.9114
0
VERTEX
8
CUT
10
194.7502
20
251.5781
0
VERTEX
8
CUT
10
213.9022
20
251.0954
0
VERTEX
8
CUT
10
216.6499
20
250.8143
0
VERTEX
8
CUT
10
217.0716
20
250.7323
0
VERTEX
8
CUT
10
217.0952
20
250.7277
0
VERTEX
8
CUT
10
217.4005
20
250.6684
0
VERTEX
8
CUT
10
218.3145
20
250.4907
0
VERTEX
8
CUT
10
220.2343
20
249.6252
0
VERTEX
8
CUT
10
221.2939
20
248.6685
0
VERTEX
8
CUT
10
221.4128
20
248.4909
0
VERTEX
8
CUT
10
221.4173
20
248.4842
0
VERTEX
8
CUT
10
221.4232
20
248.4754
0
VERTEX
8
CUT
10
221.7392
20
248.0036
0
VERTEX
8
CUT
10
221.8687
20
247.7506
0
VERTEX
8
CUT
10
222.0631
20
246.0005
0
VERTEX
8
CUT
10
221.3028
20
242.5211
0
VERTEX
8
CUT
10
221.4681
20
241.8545
0
VERTEX
8
CUT
10
222.6505
20
241.5048
0
VERTEX
8
CUT
10
227.0618
20
240.9611
0
VERTEX
8
CUT
10
231.4099
20
240.1389
0
VERTEX
8
CUT
10
235.2045
20
238.8033
0
VERTEX
8
CUT
10
238.0945
20
237.3746
0
VERTEX
8
CUT
10
240.7048
20
235.4442
0
VERTEX
8
CUT
10
243.8359
20
232.2843
0
VERTEX
8
CUT
10
245.3980
20
230.3262
0
VERTEX
8
CUT
10
246.6191
20
228.2609
0
VERTEX
8
CUT
10
246.8027
20
227.7806
0
VERTEX
8
CUT
10
247.6193
20
227.0245
0
VERTEX
8
CUT
10
247.7705
20
227.5386
0
VERTEX
8
CUT
10
247.1959
20
228.9902
0
VERTEX
8
CUT
10
247.1804
20
229.0051
0
VERTEX
8
CUT
10
245.5491
20
232.7478
0
VERTEX
8
CUT
10
242.9411
20
237.0324
0
VERTEX
8
CUT
10
239.6223
20
241.0107
0
VERTEX
8
CUT
10
235.5540
20
244.6861
0
VERTEX
8
CUT
10
232.6105
20
246.7886
0
VERTEX
8
CUT
10
232.5930
20
246.8586
0
VERTEX
8
CUT
10
231.6170
20
247.4982
0
VERTEX
8
CUT
10
230.9530
20
247.9725
0
VERTEX
8
CUT
10
225.7091
20
250.8687
0
VERTEX
8
CUT
10
221.7483
20
252.5693
0
VERTEX
8
CUT
10
221.6104
20
252.6308
0
VERTEX
8
CUT
10
221.5751
20
252.6436
0
VERTEX
8
CUT
10
219.9173
20
253.3554
0
VERTEX
8
CUT
10
217.3746
20
254.1784
0
VERTEX
8
CUT
10
216.9333
20
254.3397
0
VERTEX
8
CUT
10
216.4869
20
254.4658
0
VERTEX
8
CUT
10
213.7095
20
255.3647
0
VERTEX
8
CUT
10
207.0141
20
256.8807
0
VERTEX
8
CUT
10
200.6255
20
257.8140
0
VERTEX
8
CUT
10
198.3826
20
257.9142
0
VERTEX
8
CUT
10
196.0933
20
258.1155
0
VERTEX
8
CUT
10
191.2676
20
258.2324
0
VERTEX
8
CUT
10
187.1299
20
258.4174
0
VERTEX
8
CUT
10
185.4056
20
258.5721
0
VERTEX
8
CUT
10
185.2326
20
258.6262
0
VERTEX
8
CUT
10
184.5661
20
258.9276
0
VERTEX
8
CUT
10
184.2538
20
259.2710
0
VERTEX
8
CUT
10
184.0231
20
259.8236
0
VERTEX
8
CUT
10
184.1379
20
260.0766
0
VERTEX
8
CUT
10
184.7858
20
260.7713
0
VERTEX
8
CUT
10
186.0650
20
261.5324
0
VERTEX
8
CUT
10
189.0879
20
262.6775
0
VERTEX
8
CUT
10
189.5437
20
262.8021
0
VERTEX
8
CUT
10
189.7534
20
262.8594
0
VERTEX
8
CUT
10
190.0065
20
262.9285
0
VERTEX
8
CUT
10
191.3545
20
263.2968
0
VERTEX
8
CUT
10
192.4849
20
263.5815
0
VERTEX
8
CUT
10
194.7331
20
263.9290
0
VERTEX
8
CUT
10
200.0510
20
264.2809
0
VERTEX
8
CUT
10
205.7772
20
264.2503
0
VERTEX
8
CUT
10
211.9288
20
263.7815
0
VERTEX
8
CUT
10
212.3206
20
263.7036
0
VERTEX
8
CUT
10
212.3611
20
263.6956
0
VERTEX
8
CUT
10
212.9356
20
263.5813
0
VERTEX
8
CUT
10
214.1884
20
263.3322
0
VERTEX
8
CUT
10
221.2677
20
261.6137
0
VERTEX
8
CUT
10
225.2703
20
260.2802
0
VERTEX
8
CUT
10
228.7289
20
258.8700
0
VERTEX
8
CUT
10
231.7035
20
257.4139
0
VERTEX
8
CUT
10
232.7904
20
256.8818
0
VERTEX
8
CUT
10
232.8782
20
256.8389
0
VERTEX
8
CUT
10
235.4894
20
255.3232
0
VERTEX
8
CUT
10
238.9356
20
252.9700
0
VERTEX
8
CUT
10
239.6493
20
252.4826
0
VERTEX
8
CUT
10
241.2632
20
251.2033
0
VERTEX
8
CUT
10
242.0583
20
250.4621
0
VERTEX
8
CUT
10
242.3204
20
250.2178
0
VERTEX
8
CUT
10
243.0900
20
249.5003
0
VERTEX
8
CUT
10
245.6225
20
247.1394
0
VERTEX
8
CUT
10
246.1604
20
246.5503
0
VERTEX
8
CUT
10
249.3267
20
242.3954
0
VERTEX
8
CUT
10
249.3608
20
242.3507
0
VERTEX
8
CUT
10
249.3611
20
242.3502
0
VERTEX
8
CUT
10
249.3611
20
242.3502
0
VERTEX
8
CUT
10
250.5639
20
240.4277
0
VERTEX
8
CUT
10
250.6396
20
240.2902
0
VERTEX
8
CUT
10
250.7236
20
240.1375
0
VERTEX
8
CUT
10
250.7432
20
240.1019
0
VERTEX
8
CUT
10
250.8440
20
239.9187
0
VERTEX
8
CUT
10
250.9562
20
239.6963
0
VERTEX
8
CUT
10
252.3895
20
236.7280
0
VERTEX
8
CUT
10
253.3450
20
234.3391
0
VERTEX
8
CUT
10
254.2603
20
231.2035
0
VERTEX
8
CUT
10
254.9301
20
227.9825
0
VERTEX
8
CUT
10
255.2682
20
224.1367
0
VERTEX
8
CUT
10
255.2990
20
219.5848
0
VERTEX
8
CUT
10
255.0265
20
215.0657
0
VERTEX
8
CUT
10
254.6697
20
212.5623
0
VERTEX
8
CUT
10
254.6399
20
212.4388
0
VERTEX
8
CUT
10
254.5824
20
212.2001
0
VERTEX
8
CUT
10
254.3672
20
211.3078
0
VERTEX
8
CUT
10
253.7939
20
208.9301
0
VERTEX
8
CUT
10
252.9877
20
206.1371
0
VERTEX
8
CUT
10
252.2916
20
204.3227
0
VERTEX
8
CUT
10
252.1387
20
203.9242
0
VERTEX
8
CUT
10
252.1201
20
203.8759
0
VERTEX
8
CUT
10
252.1173
20
203.8684
0
VERTEX
8
CUT
10
250.5645
20
200.1531
0
VERTEX
8
CUT
10
250.3871
20
199.8248
0
VERTEX
8
CUT
10
250.3626
20
199.7795
0
VERTEX
8
CUT
10
250.1474
20
199.3813
0
VERTEX
8
CUT
10
249.9224
20
198.9648
0
VERTEX
8
CUT
10
247.5053
20
194.6932
0
VERTEX
8
CUT
10
243.8633
20
189.7413
0
VERTEX
8
CUT
10
239.6458
20
185.1562
0
VERTEX
8
CUT
10
234.9435
20
181.0413
0
VERTEX
8
CUT
10
234.4710
20
180.6756
0
VERTEX
8
CUT
10
229.3290
20
177.0295
0
VERTEX
8
CUT
10
223.3358
20
173.5794
0
VERTEX
8
CUT
10
216.2126
20
170.1804
0
VERTEX
8
CUT
10
216.1815
20
170.1669
0
VERTEX
8
CUT
10
216.1487
20
170.1527
0
VERTEX
8
CUT
10
216.0894
20
170.1270
0
VERTEX
8
CUT
10
215.8446
20
170.0209
0
VERTEX
8
CUT
10
210.7619
20
168.0053
0
VERTEX
8
CUT
10
206.4741
20
166.4993
0
VERTEX
8
CUT
10
193.3694
20
162.1886
0
VERTEX
8
CUT
10
182.4277
20
158.6311
0
VERTEX
8
CUT
10
174.0626
20
155.6114
0
VERTEX
8
CUT
10
169.7638
20
153.7716
0
VERTEX
8
CUT
10
169.6896
20
153.7415
0
VERTEX
8
CUT
10
169.6534
20
153.7244
0
VERTEX
8
CUT
10
167.3486
20
152.7380
0
VERTEX
8
CUT
10
165.3798
20
151.7047
0
VERTEX
8
CUT
10
164.7145
20
151.3903
0
VERTEX
8
CUT
10
163.8273
20
150.8899
0
VERTEX
8
CUT
10
161.9118
20
149.8846
0
VERTEX
8
CUT
10
160.9317
20
149.2568
0
VERTEX
8
CUT
10
160.4975
20
149.0118
0
VERTEX
8
CUT
10
159.7642
20
148.5089
0
VERTEX
8
CUT
10
159.5458
20
148.3690
0
VERTEX
8
CUT
10
159.2723
20
148.1714
0
VERTEX
8
CUT
10
156.9483
20
146.5774
0
VERTEX
8
CUT
10
156.3271
20
146.0446
0
VERTEX
8
CUT
10
155.7620
20
145.6366
0
VERTEX
8
CUT
10
154.3885
20
144.3822
0
VERTEX
8
CUT
10
153.9735
20
144.0262
0
VERTEX
8
CUT
10
153.8468
20
143.8874
0
VERTEX
8
CUT
10
152.9734
20
143.0897
0
VERTEX
8
CUT
10
151.8963
20
141.7500
0
VERTEX
8
CUT
10
151.5045
20
141.3207
0
VERTEX
8
CUT
10
150.9344
20
140.5536
0
VERTEX
8
CUT
10
150.0321
20
139.4314
0
VERTEX
8
CUT
10
148.9488
20
137.6592
0
VERTEX
8
CUT
10
148.0183
20
135.8558
0
VERTEX
8
CUT
10
147.8959
20
135.6459
0
VERTEX
8
CUT
10
147.6971
20
135.1183
0
VERTEX
8
CUT
10
147.6738
20
135.0767
0
VERTEX
8
CUT
10
147.6219
20
134.9187
0
VERTEX
8
CUT
10
146.3261
20
131.4793
0
VERTEX
8
CUT
10
145.9776
20
129.7557
0
VERTEX
8
CUT
10
145.3689
20
127.1120
0
VERTEX
8
CUT
10
144.7282
20
122.6080
0
VERTEX
8
CUT
10
144.4126
20
121.4535
0
VERTEX
8
CUT
10
144.1102
20
121.1011
0
VERTEX
8
CUT
10
143.4180
20
121.2644
0
VERTEX
8
CUT
10
140.4791
20
125.2341
0
VERTEX
8
CUT
10
139.7008
20
126.7290
0
VERTEX
8
CUT
10
137.9913
20
131.2606
0
VERTEX
8
CUT
10
137.3937
20
132.1535
0
VERTEX
8
CUT
10
135.9119
20
133.3946
0
VERTEX
8
CUT
10
134.0731
20
135.7185
0
VERTEX
8
CUT
10
132.6363
20
137.0359
0
VERTEX
8
CUT
10
128.7489
20
139.7187
0
VERTEX
8
CUT
10
126.3613
20
141.1054
0
VERTEX
8
CUT
10
124.3751
20
141.7458
0
VERTEX
8
CUT
10
121.9398
20
141.9548
0
VERTEX
8
CUT
10
117.9050
20
141.9546
0
VERTEX
8
CUT
10
115.9193
20
141.7136
0
VERTEX
8
CUT
10
114.1577
20
140.9759
0
VERTEX
8
CUT
10
111.9153
20
139.5970
0
VERTEX
8
CUT
10
109.7949
20
137.7120
0
VERTEX
8
CUT
10
108.0032
20
135.5580
0
VERTEX
8
CUT
10
107.2879
20
134.4488
0
VERTEX
8
CUT
10
106.5045
20
132.6791
0
VERTEX
8
CUT
10
106.4698
20
132.3367
0
VERTEX
8
CUT
10
106.6916
20
132.0920
0
VERTEX
8
CUT
10
107.1396
20
132.1990
0
VERTEX
8
CUT
10
108.4107
20
134.4736
0
VERTEX
8
CUT
10
109.5054
20
135.7798
0
VERTEX
8
CUT
10
110.7767
20
136.9009
0
VERTEX
8
CUT
10
112.2692
20
137.8850
0
VERTEX
8
CUT
10
115.7372
20
139.1685
0
VERTEX
8
CUT
10
117.7313
20
139.5333
0
VERTEX
8
CUT
10
119.9495
20
139.6532
0
VERTEX
8
CUT
10
122.2655
20
139.4340
0
VERTEX
8
CUT
10
124.5332
20
138.9087
0
VERTEX
8
CUT
10
126.7310
20
138.0508
0
VERTEX
8
CUT
10
128.3787
20
137.1646
0
VERTEX
8
CUT
10
128.9017
20
136.8728
0
VERTEX
8
CUT
10
130.0666
20
136.0538
0
VERTEX
8
CUT
10
130.6993
20
135.5438
0
VERTEX
8
CUT
10
130.9571
20
135.3361
0
VERTEX
8
CUT
10
131.6108
20
134.8091
0
VERTEX
8
CUT
10
131.9188
20
134.5609
0
VERTEX
8
CUT
10
132.7400
20
133.8323
0
VERTEX
8
CUT
10
134.9326
20
131.3629
0
VERTEX
8
CUT
10
147.8200
20
113.3449
0
VERTEX
8
CUT
10
148.7142
20
111.7762
0
VERTEX
8
CUT
10
148.9106
20
111.4088
0
VERTEX
8
CUT
10
149.8255
20
109.0624
0
VERTEX
8
CUT
10
149.8448
20
108.9820
0
VERTEX
8
CUT
10
150.1364
20
107.5144
0
VERTEX
8
CUT
10
150.3115
20
105.9911
0
VERTEX
8
CUT
10
150.3359
20
104.5900
0
VERTEX
8
CUT
10
150.0810
20
101.1356
0
VERTEX
8
CUT
10
149.5903
20
98.7853
0
VERTEX
8
CUT
10
148.8396
20
96.4432
0
VERTEX
8
CUT
10
146.8519
20
92.0146
0
VERTEX
8
CUT
10
146.6049
20
91.6112
0
VERTEX
8
CUT
10
146.3708
20
91.2290
0
VERTEX
8
CUT
10
146.2297
20
90.9986
0
VERTEX
8
CUT
10
145.5082
20
89.8204
0
VERTEX
8
CUT
10
143.6721
20
86.9801
0
VERTEX
8
CUT
10
140.6840
20
83.0579
0
VERTEX
8
CUT
10
140.6101
20
82.8942
0
VERTEX
8
CUT
10
140.5808
20
82.8560
0
VERTEX
8
CUT
10
139.6566
20
80.7826
0
VERTEX
8
CUT
10
139.6135
20
80.6870
0
VERTEX
8
CUT
10
138.9688
20
79.3562
0
VERTEX
8
CUT
10
137.0624
20
76.2216
0
VERTEX
8
CUT
10
135.7528
20
74.5786
0
VERTEX
8
CUT
10
132.8218
20
71.5871
0
VERTEX
8
CUT
10
129.7052
20
69.3035
0
VERTEX
8
CUT
10
129.4585
20
69.1400
0
VERTEX
8
CUT
10
125.5411
20
67.2394
0
VERTEX
8
CUT
10
121.0360
20
65.7799
0
VERTEX
8
CUT
10
116.5515
20
64.9922
0
VERTEX
8
CUT
10
111.2231
20
64.7783
0
VERTEX
8
CUT
10
104.3450
20
65.1721
0
VERTEX
8
CUT
10
99.0916
20
66.2336
0
VERTEX
8
CUT
10
94.6924
20
67.6104
0
VERTEX
8
CUT
10
94.4408
20
67.7055
0
VERTEX
8
CUT
10
93.3090
20
68.1330
0
VERTEX
8
CUT
10
89.4062
20
69.8283
0
VERTEX
8
CUT
10
85.5016
20
72.1893
0
VERTEX
8
CUT
10
83.4477
20
73.8732
0
VERTEX
8
CUT
10
82.5849
20
74.8903
0
VERTEX
8
CUT
10
82.5786
20
74.8993
0
VERTEX
8
CUT
10
82.4379
20
75.0999
0
VERTEX
8
CUT
10
82.2625
20
75.3499
0
VERTEX
8
CUT
10
80.9584
20
77.2086
0
VERTEX
8
CUT
10
79.4725
20
79.5500
0
VERTEX
8
CUT
10
78.2732
20
81.1023
0
VERTEX
8
CUT
10
77.8153
20
81.7727
0
VERTEX
8
CUT
10
76.6934
20
82.7431
0
VERTEX
8
CUT
10
76.4727
20
82.9590
0
VERTEX
8
CUT
10
76.2877
20
83.0940
0
VERTEX
8
CUT
10
76.2780
20
83.1024
0
VERTEX
8
CUT
10
76.1832
20
83.1925
0
VERTEX
8
CUT
10
76.1245
20
83.2351
0
VERTEX
8
CUT
10
75.2006
20
84.0342
0
VERTEX
8
CUT
10
73.4915
20
85.0567
0
VERTEX
8
CUT
10
72.8699
20
85.3287
0
VERTEX
8
CUT
10
72.5149
20
85.5158
0
VERTEX
8
CUT
10
71.4680
20
85.9419
0
VERTEX
8
CUT
10
68.9300
20
87.0520
0
VERTEX
8
CUT
10
51.7204
20
93.2925
0
VERTEX
8
CUT
10
49.5501
20
94.1695
0
VERTEX
8
CUT
10
49.3447
20
94.2525
0
VERTEX
8
CUT
10
49.2631
20
94.2855
0
VERTEX
8
CUT
10
48.9420
20
94.4152
0
VERTEX
8
CUT
10
43.3675
20
96.8108
0
VERTEX
8
CUT
10
42.5787
20
97.3269
0
VERTEX
8
CUT
10
42.0747
20
97.6567
0
VERTEX
8
CUT
10
41.9843
20
97.7158
0
VERTEX
8
CUT
10
41.5909
20
97.9733
0
VERTEX
8
CUT
10
41.1914
20
98.3028
0
VERTEX
8
CUT
10
40.5460
20
99.4050
0
VERTEX
8
CUT
10
40.3975
20
99.7508
0
VERTEX
8
CUT
10
40.2879
20
100.2789
0
VERTEX
8
CUT
10
40.2942
20
100.5956
0
VERTEX
8
CUT
10
40.3213
20
101.0131
0
VERTEX
8
CUT
10
40.3756
20
101.4669
0
VERTEX
8
CUT
10
40.7885
20
102.8247
0
VERTEX
8
CUT
10
42.1437
20
105.3334
0
VERTEX
8
CUT
10
42.1516
20
105.3444
0
VERTEX
8
CUT
10
42.1733
20
105.3742
0
VERTEX
8
CUT
10
42.1879
20
105.3944
0
VERTEX
8
CUT
10
42.4194
20
105.7134
0
VERTEX
8
CUT
10
44.7768
20
108.5783
0
VERTEX
8
CUT
10
44.9808
20
108.8045
0
VERTEX
8
CUT
10
47.0052
20
110.3567
0
VERTEX
8
CUT
10
47.2836
20
110.9501
0
VERTEX
8
CUT
10
48.8627
20
112.4079
0
VERTEX
8
CUT
10
49.3132
20
112.6161
0
VERTEX
8
CUT
10
49.9325
20
111.7974
0
VERTEX
8
CUT
10
50.2588
20
111.8185
0
VERTEX
8
CUT
10
52.6477
20
113.5640
0
VERTEX
8
CUT
10
56.5894
20
115.4468
0
VERTEX
8
CUT
10
56.7050
20
115.8351
0
VERTEX
8
CUT
10
56.4507
20
116.1062
0
VERTEX
8
CUT
10
55.0784
20
115.8871
0
VERTEX
8
CUT
10
54.7726
20
116.1168
0
VERTEX
8
CUT
10
54.9772
20
116.6345
0
VERTEX
8
CUT
10
56.0558
20
117.4771
0
VERTEX
8
CUT
10
56.0603
20
117.4797
0
VERTEX
8
CUT
10
56.0717
20
117.4863
0
VERTEX
8
CUT
10
56.1232
20
117.5161
0
VERTEX
8
CUT
10
56.3358
20
117.6390
0
VERTEX
8
CUT
10
57.1350
20
118.0831
0
VERTEX
8
CUT
10
57.4370
20
118.2024
0
VERTEX
8
CUT
10
57.5300
20
118.2392
0
VERTEX
8
CUT
10
57.8292
20
118.3574
0
VERTEX
8
CUT
10
58.7268
20
118.7120
0
VERTEX
8
CUT
10
60.8400
20
119.4419
0
VERTEX
8
CUT
10
62.8227
20
119.8750
0
VERTEX
8
CUT
10
65.6052
20
120.1394
0
VERTEX
8
CUT
10
66.6608
20
120.1509
0
VERTEX
8
CUT
10
69.7518
20
120.1844
0
SEQEND
0
POLYLINE
8
CUT
66
1
70
1
10
0.0
20
0.0
30
0.0
0
VERTEX
8
CUT
10
197.3568
20
195.6300
0
VERTEX
8
CUT
10
199.8800
20
195.2688
0
VERTEX
8
CUT
10
201.9612
20
195.1781
0
VERTEX
8
CUT
10
202.6278
20
195.3737
0
VERTEX
8
CUT
10
202.5228
20
195.9191
0
VERTEX
8
CUT
10
200.1658
20
196.9578
0
VERTEX
8
CUT
10
197.5635
20
198.8767
0
VERTEX
8
CUT
10
197.1135
20
198.6892
0
VERTEX
8
CUT
10
197.1703
20
197.8005
0
VERTEX
8
CUT
10
196.6418
20
197.1336
0
VERTEX
8
CUT
10
195.9436
20
196.9084
0
VERTEX
8
CUT
10
194.6552
20
196.9719
0
VERTEX
8
CUT
10
194.4012
20
196.7018
0
VERTEX
8
CUT
10
194.4879
20
196.3413
0
SEQEND
0
POLYLINE
8
CUT
66
1
70
1
10
0.0
20
0.0
30
0.0
0
VERTEX
8
CUT
10
183.6581
20
199.4679
0
VERTEX
8
CUT
10
183.9060
20
198.9716
0
VERTEX
8
CUT
10
190.7626
20
197.2865
0
VERTEX
8
CUT
10
191.0680
20
197.5005
0
VERTEX
8
CUT
10
191.0541
20
197.8732
0
VERTEX
8
CUT
10
190.0580
20
198.4086
0
VERTEX
8
CUT
10
184.5686
20
199.6586
0
VERTEX
8
CUT
10
183.9294
20
199.7198
0
SEQEND
0
POLYLINE
8
CUT
66
1
70
1
10
0.0
20
0.0
30
0.0
0
VERTEX
8
CUT
10
177.2463
20
250.0689
0
VERTEX
8
CUT
10
176.9439
20
248.9499
0
VERTEX
8
CUT
10
177.3068
20
247.8915
0
VERTEX
8
CUT
10
178.7584
20
245.8652
0
VERTEX
8
CUT
10
179.1818
20
245.5326
0
VERTEX
8
CUT
10
179.5144
20
245.5628
0
VERTEX
8
CUT
10
179.4842
20
245.9560
0
VERTEX
8
CUT
10
178.5769
20
247.3169
0
VERTEX
8
CUT
10
177.7604
20
249.7665
0
SEQEND
0
POLYLINE
8
CUT
66
1
70
1
10
0.0
20
0.0
30
0.0
0
VERTEX
8
CUT
10
114.1702
20
88.3590
0
VERTEX
8
CUT
10
114.2821
20
89.2407
0
VERTEX
8
CUT
10
113.8229
20
93.8588
0
VERTEX
8
CUT
10
113.3881
20
94.0324
0
VERTEX
8
CUT
10
113.0999
20
93.6634
0
VERTEX
8
CUT
10
113.2852
20
89.3013
0
VERTEX
8
CUT
10
113.4650
20
88.3590
0
VERTEX
8
CUT
10
113.7985
20
88.1361
0
SEQEND
0
POLYLINE
8
CUT
66
1
70
1
10
0.0
20
0.0
30
0.0
0
VERTEX
8
CUT
10
112.6798
20
78.2644
0
VERTEX
8
CUT
10
112.7100
20
79.5951
0
VERTEX
8
CUT
10
111.8935
20
78.2947
0
VERTEX
8
CUT
10
111.6515
20
77.4781
0
VERTEX
8
CUT
10
111.7725
20
77.1455
0
VERTEX
8
CUT
10
112.1052
20
77.0245
0
VERTEX
8
CUT
10
112.4983
20
77.4177
0
SEQEND
0
POLYLINE
8
CUT
66
1
70
1
10
0.0
20
0.0
30
0.0
0
VERTEX
8
CUT
10
94.4515
20
83.9488
0
VERTEX
8
CUT
10
94.4646
20
83.9711
0
VERTEX
8
CUT
10
96.5420
20
86.3429
0
VERTEX
8
CUT
10
97.3415
20
87.5981
0
VERTEX
8
CUT
10
97.1234
20
87.9259
0
VERTEX
8
CUT
10
96.7233
20
87.9211
0
VERTEX
8
CUT
10
95.7365
20
86.9793
0
VERTEX
8
CUT
10
95.1573
20
86.8513
0
VERTEX
8
CUT
10
94.5529
20
87.4162
0
VERTEX
8
CUT
10
93.7818
20
88.8155
0
VERTEX
8
CUT
10
92.9469
20
89.6307
0
VERTEX
8
CUT
10
92.7350
20
89.7562
0
VERTEX
8
CUT
10
92.6440
20
89.8508
0
VERTEX
8
CUT
10
92.5037
20
89.8931
0
VERTEX
8
CUT
10
91.9442
20
90.2244
0
VERTEX
8
CUT
10
90.9956
20
90.4195
0
VERTEX
8
CUT
10
89.4068
20
90.1227
0
VERTEX
8
CUT
10
89.2655
20
90.0555
0
VERTEX
8
CUT
10
89.1561
20
90.0386
0
VERTEX
8
CUT
10
88.7494
20
89.8099
0
VERTEX
8
CUT
10
87.9749
20
89.4413
0
VERTEX
8
CUT
10
86.9973
20
88.5142
0
VERTEX
8
CUT
10
86.2594
20
86.7304
0
VERTEX
8
CUT
10
85.7404
20
86.6810
0
VERTEX
8
CUT
10
85.0494
20
87.1095
0
VERTEX
8
CUT
10
84.6255
20
87.0246
0
VERTEX
8
CUT
10
84.5403
20
86.6008
0
VERTEX
8
CUT
10
87.3339
20
81.2372
0
VERTEX
8
CUT
10
88.0282
20
80.7613
0
VERTEX
8
CUT
10
89.2686
20
80.5944
0
VERTEX
8
CUT
10
89.3455
20
80.6085
0
VERTEX
8
CUT
10
89.4042
20
80.5945
0
VERTEX
8
CUT
10
89.6727
20
80.6495
0
VERTEX
8
CUT
10
89.6766
20
80.6490
0
VERTEX
8
CUT
10
89.6856
20
80.6514
0
VERTEX
8
CUT
10
89.7383
20
80.6216
0
VERTEX
8
CUT
10
89.9278
20
80.7018
0
VERTEX
8
CUT
10
90.5275
20
80.8246
0
VERTEX
8
CUT
10
90.7471
20
80.8647
0
VERTEX
8
CUT
10
90.7603
20
80.8723
0
VERTEX
8
CUT
10
90.7929
20
80.8789
0
VERTEX
8
CUT
10
92.1379
20
81.6384
0
VERTEX
8
CUT
10
92.1753
20
81.6758
0
VERTEX
8
CUT
10
92.3182
20
81.7569
0
VERTEX
8
CUT
10
93.3604
20
82.7103
0
VERTEX
8
CUT
10
94.4009
20
83.8983
0
SEQEND
0
POLYLINE
8
CUT
66
1
70
1
10
0.0
20
0.0
30
0.0
0
VERTEX
8
CUT
10
94.0507
20
247.9217
0
VERTEX
8
CUT
10
93.7181
20
248.4056
0
VERTEX
8
CUT
10
93.4459
20
248.4056
0
VERTEX
8
CUT
10
93.1737
20
247.5588
0
VERTEX
8
CUT
10
93.5366
20
246.1072
0
VERTEX
8
CUT
10
94.4439
20
244.6858
0
VERTEX
8
CUT
10
95.6535
20
243.7181
0
SEQEND
0
POLYLINE
8
CUT
66
1
70
1
10
0.0
20
0.0
30
0.0
0
VERTEX
8
CUT
10
69.0312
20
116.7251
0
VERTEX
8
CUT
10
72.8091
20
116.2107
0
VERTEX
8
CUT
10
81.8492
20
114.1857
0
VERTEX
8
CUT
10
85.0276
20
113.8877
0
VERTEX
8
CUT
10
85.4101
20
114.2015
0
VERTEX
8
CUT
10
85.1041
20
114.6602
0
VERTEX
8
CUT
10
76.6840
20
116.3744
0
VERTEX
8
CUT
10
72.5444
20
117.0996
0
VERTEX
8
CUT
10
68.9692
20
117.4732
0
VERTEX
8
CUT
10
68.7171
20
117.0756
0
SEQEND
0
POLYLINE
8
CUT
66
1
70
1
10
0.0
20
0.0
30
0.0
0
VERTEX
8
CUT
10
48.6576
20
104.7261
0
VERTEX
8
CUT
10
47.4177
20
105.1495
0
VERTEX
8
CUT
10
46.1173
20
105.1495
0
VERTEX
8
CUT
10
44.9681
20
104.7564
0
VERTEX
8
CUT
10
44.2120
20
104.1213
0
VERTEX
8
CUT
10
43.7886
20
103.3350
0
VERTEX
8
CUT
10
43.9398
20
102.6999
0
VERTEX
8
CUT
10
44.6052
20
102.1858
0
VERTEX
8
CUT
10
45.4217
20
102.2765
0
VERTEX
8
CUT
10
46.8733
20
103.7584
0
VERTEX
8
CUT
10
47.5084
20
104.0910
0
VERTEX
8
CUT
10
48.2040
20
104.0608
0
VERTEX
8
CUT
10
49.8068
20
103.3048
0
VERTEX
8
CUT
10
50.0790
20
103.3350
0
VERTEX
8
CUT
10
49.5951
20
104.0003
0
SEQEND
0
POLYLINE
8
CUT
66
1
70
1
10
0.0
20
0.0
30
0.0
0
VERTEX
8
CUT
10
40.5448
20
203.8407
0
VERTEX
8
CUT
10
41.4012
20
204.4510
0
VERTEX
8
CUT
10
43.2957
20
205.0069
0
VERTEX
8
CUT
10
47.5273
20
205.1494
0
VERTEX
8
CUT
10
48.1786
20
205.1091
0
VERTEX
8
CUT
10
48.2361
20
205.1733
0
VERTEX
8
CUT
10
48.3320
20
205.1765
0
VERTEX
8
CUT
10
49.9873
20
206.9084
0
VERTEX
8
CUT
10
53.8370
20
212.0825
0
VERTEX
8
CUT
10
58.4650
20
218.7977
0
VERTEX
8
CUT
10
60.9910
20
222.6466
0
VERTEX
8
CUT
10
62.1306
20
224.8839
0
VERTEX
8
CUT
10
62.1375
20
225.1218
0
VERTEX
8
CUT
10
62.1703
20
225.1893
0
VERTEX
8
CUT
10
62.1706
20
225.6268
0
VERTEX
8
CUT
10
62.1774
20
225.6647
0
VERTEX
8
CUT
10
62.1707
20
225.6949
0
VERTEX
8
CUT
10
62.1709
20
226.0222
0
VERTEX
8
CUT
10
62.1641
20
226.0405
0
VERTEX
8
CUT
10
62.1730
20
226.3479
0
VERTEX
8
CUT
10
62.1738
20
226.3602
0
VERTEX
8
CUT
10
62.1734
20
226.3612
0
VERTEX
8
CUT
10
62.1790
20
226.5554
0
VERTEX
8
CUT
10
60.7937
20
230.1467
0
VERTEX
8
CUT
10
60.5451
20
231.7609
0
VERTEX
8
CUT
10
60.6078
20
233.2556
0
VERTEX
8
CUT
10
60.9587
20
234.5785
0
VERTEX
8
CUT
10
60.9589
20
234.5788
0
VERTEX
8
CUT
10
60.9602
20
234.5817
0
VERTEX
8
CUT
10
60.9618
20
234.5852
0
VERTEX
8
CUT
10
61.0204
20
234.7146
0
VERTEX
8
CUT
10
61.6557
20
235.8298
0
VERTEX
8
CUT
10
62.6558
20
236.8897
0
VERTEX
8
CUT
10
63.8499
20
237.5607
0
VERTEX
8
CUT
10
65.2840
20
237.9597
0
VERTEX
8
CUT
10
66.3025
20
237.9962
0
VERTEX
8
CUT
10
68.1314
20
237.5389
0
VERTEX
8
CUT
10
69.0541
20
237.0450
0
VERTEX
8
CUT
10
70.3431
20
235.9365
0
VERTEX
8
CUT
10
71.4366
20
234.1793
0
VERTEX
8
CUT
10
71.9171
20
232.9993
0
VERTEX
8
CUT
10
72.4014
20
232.4820
0
VERTEX
8
CUT
10
73.1732
20
232.2564
0
VERTEX
8
CUT
10
74.9990
20
232.2995
0
VERTEX
8
CUT
10
76.2163
20
232.2031
0
VERTEX
8
CUT
10
77.2139
20
232.0396
0
VERTEX
8
CUT
10
79.2246
20
230.8970
0
VERTEX
8
CUT
10
80.2066
20
229.5666
0
VERTEX
8
CUT
10
80.8249
20
227.9588
0
VERTEX
8
CUT
10
80.9841
20
226.3297
0
VERTEX
8
CUT
10
80.7326
20
224.9613
0
VERTEX
8
CUT
10
80.6030
20
224.6573
0
VERTEX
8
CUT
10
80.5896
20
224.6260
0
VERTEX
8
CUT
10
80.5522
20
224.5382
0
VERTEX
8
CUT
10
80.3832
20
224.1419
0
VERTEX
8
CUT
10
80.0160
20
223.4073
0
VERTEX
8
CUT
10
79.0031
20
222.2359
0
VERTEX
8
CUT
10
77.6118
20
221.2776
0
VERTEX
8
CUT
10
76.0198
20
220.6948
0
VERTEX
8
CUT
10
75.8662
20
220.6700
0
VERTEX
8
CUT
10
72.5565
20
220.3398
0
VERTEX
8
CUT
10
71.9172
20
220.0646
0
VERTEX
8
CUT
10
71.4408
20
219.6251
0
VERTEX
8
CUT
10
71.3808
20
219.6002
0
VERTEX
8
CUT
10
71.3003
20
219.4955
0
VERTEX
8
CUT
10
70.6089
20
218.8575
0
VERTEX
8
CUT
10
68.5738
20
216.1627
0
VERTEX
8
CUT
10
60.8197
20
204.8479
0
VERTEX
8
CUT
10
59.0880
20
202.3568
0
VERTEX
8
CUT
10
58.8629
20
201.9925
0
VERTEX
8
CUT
10
57.2429
20
199.6285
0
VERTEX
8
CUT
10
57.0585
20
199.0900
0
VERTEX
8
CUT
10
56.8736
20
198.8035
0
VERTEX
8
CUT
10
56.8713
20
198.7699
0
VERTEX
8
CUT
10
56.7865
20
198.6327
0
VERTEX
8
CUT
10
56.7884
20
198.3011
0
VERTEX
8
CUT
10
56.7413
20
198.1635
0
VERTEX
8
CUT
10
56.7305
20
197.4103
0
VERTEX
8
CUT
10
57.3307
20
194.1369
0
VERTEX
8
CUT
10
57.3648
20
192.8078
0
VERTEX
8
CUT
10
57.1714
20
191.5388
0
VERTEX
8
CUT
10
56.3657
20
189.5752
0
VERTEX
8
CUT
10
55.9100
20
188.9713
0
VERTEX
8
CUT
10
54.9282
20
187.9449
0
VERTEX
8
CUT
10
54.2702
20
187.5223
0
VERTEX
8
CUT
10
53.6984
20
187.2339
0
VERTEX
8
CUT
10
52.6171
20
186.9579
0
VERTEX
8
CUT
10
51.3896
20
186.9254
0
VERTEX
8
CUT
10
49.6429
20
187.2620
0
VERTEX
8
CUT
10
48.5235
20
187.8201
0
VERTEX
8
CUT
10
48.0319
20
188.2617
0
VERTEX
8
CUT
10
47.0984
20
189.3932
0
VERTEX
8
CUT
10
45.9158
20
191.9848
0
VERTEX
8
CUT
10
45.7993
20
192.3121
0
VERTEX
8
CUT
10
45.7272
20
192.3983
0
VERTEX
8
CUT
10
45.6922
20
192.4748
0
VERTEX
8
CUT
10
45.2430
20
193.0937
0
VERTEX
8
CUT
10
44.8819
20
193.1972
0
VERTEX
8
CUT
10
44.5779
20
193.3935
0
VERTEX
8
CUT
10
43.6294
20
193.5561
0
VERTEX
8
CUT
10
41.8015
20
194.0799
0
VERTEX
8
CUT
10
40.6904
20
194.7166
0
VERTEX
8
CUT
10
39.7850
20
195.6227
0
VERTEX
8
CUT
10
39.0811
20
196.7222
0
VERTEX
8
CUT
10
38.6559
20
197.9112
0
VERTEX
8
CUT
10
38.4715
20
199.1612
0
VERTEX
8
CUT
10
38.5613
20
200.5344
0
VERTEX
8
CUT
10
38.9902
20
201.8317
0
VERTEX
8
CUT
10
39.9037
20
203.3111
0
VERTEX
8
CUT
10
40.2318
20
203.6129
0
SEQEND
0
ENDSEC
0
EOF
