0
SECTION
2
HEADER
9
$ACADVER
1
AC1009
9
$INSUNITS
70
4
0
ENDSEC
0
SECTION
2
TABLES
0
TABLE
2
LAYER
70
1
0
LAYER
2
CUT
70
0
62
7
6
CONTINUOUS
0
ENDTAB
0
ENDSEC
0
SECTION
2
ENTITIES
0
POLYLINE
8
CUT
66
1
70
1
10
0.0
20
0.0
30
0.0
0
VERTEX
8
CUT
10
41.5245
20
103.5494
0
VERTEX
8
CUT
10
41.7510
20
104.3261
0
VERTEX
8
CUT
10
42.4436
20
104.7537
0
VERTEX
8
CUT
10
43.2904
20
104.3700
0
VERTEX
8
CUT
10
43.8293
20
103.6008
0
VERTEX
8
CUT
10
43.8605
20
103.4684
0
VERTEX
8
CUT
10
43.7886
20
103.3350
0
VERTEX
8
CUT
10
43.9398
20
102.6999
0
VERTEX
8
CUT
10
44.6052
20
102.1858
0
VERTEX
8
CUT
10
45.4217
20
102.2765
0
VERTEX
8
CUT
10
45.5763
20
102.4343
0
VERTEX
8
CUT
10
45.6843
20
102.4645
0
VERTEX
8
CUT
10
46.5578
20
103.4363
0
VERTEX
8
CUT
10
46.8733
20
103.7584
0
VERTEX
8
CUT
10
47.3745
20
104.0209
0
VERTEX
8
CUT
10
48.2219
20
104.0523
0
VERTEX
8
CUT
10
48.4609
20
103.9396
0
VERTEX
8
CUT
10
48.5416
20
103.9015
0
VERTEX
8
CUT
10
48.5677
20
103.8892
0
VERTEX
8
CUT
10
49.2701
20
103.5579
0
VERTEX
8
CUT
10
50.0509
20
102.8627
0
VERTEX
8
CUT
10
50.7214
20
101.5827
0
VERTEX
8
CUT
10
50.8640
20
100.8508
0
VERTEX
8
CUT
10
50.8190
20
99.4474
0
VERTEX
8
CUT
10
50.3211
20
98.1503
0
VERTEX
8
CUT
10
49.5018
20
97.1214
0
VERTEX
8
CUT
10
49.5115
20
96.7555
0
VERTEX
8
CUT
10
49.8964
20
96.5603
0
VERTEX
8
CUT
10
50.6444
20
96.8687
0
VERTEX
8
CUT
10
52.2006
20
98.2197
0
VERTEX
8
CUT
10
52.7304
20
99.0407
0
VERTEX
8
CUT
10
52.8976
20
99.8334
0
VERTEX
8
CUT
10
49.3991
20
107.2816
0
VERTEX
8
CUT
10
48.8210
20
108.8939
0
VERTEX
8
CUT
10
48.8163
20
109.5810
0
VERTEX
8
CUT
10
49.2601
20
110.4947
0
VERTEX
8
CUT
10
51.0868
20
112.3140
0
VERTEX
8
CUT
10
53.8924
20
114.1106
0
VERTEX
8
CUT
10
57.1292
20
115.5627
0
VERTEX
8
CUT
10
58.8433
20
116.0622
0
VERTEX
8
CUT
10
61.3405
20
116.4877
0
VERTEX
8
CUT
10
67.4574
20
116.7901
0
VERTEX
8
CUT
10
72.4597
20
116.1837
0
VERTEX
8
CUT
10
81.0107
20
114.3735
0
VERTEX
8
CUT
10
81.8492
20
114.1857
0
VERTEX
8
CUT
10
81.9367
20
114.1775
0
VERTEX
8
CUT
10
82.8781
20
113.9782
0
VERTEX
8
CUT
10
85.0196
20
113.8591
0
VERTEX
8
CUT
10
85.6583
20
113.9889
0
VERTEX
8
CUT
10
85.9455
20
114.2948
0
VERTEX
8
CUT
10
85.8319
20
114.6749
0
VERTEX
8
CUT
10
85.3819
20
114.8627
0
VERTEX
8
CUT
10
70.6282
20
117.8528
0
VERTEX
8
CUT
10
65.9811
20
118.0645
0
VERTEX
8
CUT
10
62.5081
20
118.0338
0
VERTEX
8
CUT
10
59.4704
20
117.7319
0
VERTEX
8
CUT
10
58.7043
20
117.9175
0
VERTEX
8
CUT
10
58.7161
20
118.2641
0
VERTEX
8
CUT
10
59.0045
20
118.5695
0
VERTEX
8
CUT
10
60.7409
20
119.3180
0
VERTEX
8
CUT
10
63.9775
20
119.9661
0
VERTEX
8
CUT
10
66.8168
20
120.1526
0
VERTEX
8
CUT
10
67.0299
20
120.1549
0
VERTEX
8
CUT
10
68.1929
20
120.1675
0
VERTEX
8
CUT
10
69.7518
20
120.1844
0
VERTEX
8
CUT
10
70.1799
20
120.1891
0
VERTEX
8
CUT
10
70.5450
20
120.1931
0
VERTEX
8
CUT
10
70.5858
20
120.1935
0
VERTEX
8
CUT
10
73.1399
20
120.1472
0
VERTEX
8
CUT
10
80.2249
20
119.6035
0
VERTEX
8
CUT
10
81.5208
20
120.1766
0
VERTEX
8
CUT
10
81.9713
20
119.7914
0
VERTEX
8
CUT
10
82.1012
20
118.9281
0
VERTEX
8
CUT
10
82.4784
20
118.6380
0
VERTEX
8
CUT
10
89.1849
20
117.4537
0
VERTEX
8
CUT
10
91.3560
20
116.8134
0
VERTEX
8
CUT
10
93.7942
20
115.5829
0
VERTEX
8
CUT
10
95.3691
20
114.1016
0
VERTEX
8
CUT
10
95.9101
20
114.2352
0
VERTEX
8
CUT
10
95.9233
20
114.6071
0
VERTEX
8
CUT
10
95.0267
20
115.8248
0
VERTEX
8
CUT
10
93.2764
20
117.6934
0
VERTEX
8
CUT
10
92.3687
20
118.3755
0
VERTEX
8
CUT
10
90.7517
20
118.6486
0
VERTEX
8
CUT
10
87.4213
20
119.6771
0
VERTEX
8
CUT
10
85.9040
20
119.8612
0
VERTEX
8
CUT
10
85.3258
20
120.1112
0
VERTEX
8
CUT
10
85.0765
20
120.5554
0
VERTEX
8
CUT
10
85.2900
20
121.1160
0
VERTEX
8
CUT
10
85.6330
20
121.4316
0
VERTEX
8
CUT
10
86.6466
20
121.8196
0
VERTEX
8
CUT
10
88.0241
20
123.0389
0
VERTEX
8
CUT
10
89.7411
20
125.4039
0
VERTEX
8
CUT
10
89.9376
20
126.7321
0
VERTEX
8
CUT
10
89.9536
20
126.7684
0
VERTEX
8
CUT
10
89.9924
20
127.1027
0
VERTEX
8
CUT
10
90.3021
20
129.1967
0
VERTEX
8
CUT
10
90.3022
20
129.5338
0
VERTEX
8
CUT
10
90.3629
20
130.0160
0
VERTEX
8
CUT
10
90.3608
20
132.4673
0
VERTEX
8
CUT
10
90.3032
20
133.0120
0
VERTEX
8
CUT
10
90.3035
20
133.9409
0
VERTEX
8
CUT
10
90.0600
20
136.1306
0
VERTEX
8
CUT
10
89.5927
20
138.4269
0
VERTEX
8
CUT
10
89.5814
20
138.5214
0
VERTEX
8
CUT
10
89.5381
20
138.6952
0
VERTEX
8
CUT
10
88.9758
20
141.4582
0
VERTEX
8
CUT
10
87.7071
20
146.0489
0
VERTEX
8
CUT
10
87.6495
20
146.2802
0
VERTEX
8
CUT
10
87.2836
20
147.5811
0
VERTEX
8
CUT
10
83.7482
20
160.3735
0
VERTEX
8
CUT
10
82.2923
20
167.1651
0
VERTEX
8
CUT
10
81.8657
20
171.1195
0
VERTEX
8
CUT
10
81.6837
20
175.2091
0
VERTEX
8
CUT
10
81.7758
20
178.6638
0
VERTEX
8
CUT
10
82.1427
20
181.6800
0
VERTEX
8
CUT
10
83.3243
20
186.1641
0
VERTEX
8
CUT
10
85.1567
20
190.6837
0
VERTEX
8
CUT
10
87.6067
20
195.1602
0
VERTEX
8
CUT
10
89.0635
20
197.4070
0
VERTEX
8
CUT
10
92.5323
20
201.9719
0
VERTEX
8
CUT
10
95.2041
20
204.9515
0
VERTEX
8
CUT
10
96.2475
20
206.0805
0
VERTEX
8
CUT
10
96.3413
20
206.1820
0
VERTEX
8
CUT
10
96.3609
20
206.2033
0
VERTEX
8
CUT
10
96.3776
20
206.2214
0
VERTEX
8
CUT
10
103.5607
20
212.5767
0
VERTEX
8
CUT
10
110.4108
20
217.8009
0
VERTEX
8
CUT
10
110.8221
20
218.0953
0
VERTEX
8
CUT
10
111.5905
20
218.6453
0
VERTEX
8
CUT
10
112.0708
20
218.9891
0
VERTEX
8
CUT
10
112.7871
20
219.5019
0
VERTEX
8
CUT
10
115.6289
20
221.2776
0
VERTEX
8
CUT
10
115.5416
20
219.8244
0
VERTEX
8
CUT
10
114.5709
20
216.9434
0
VERTEX
8
CUT
10
111.3482
20
210.0422
0
VERTEX
8
CUT
10
108.1110
20
204.7175
0
VERTEX
8
CUT
10
99.4317
20
192.5599
0
VERTEX
8
CUT
10
96.8317
20
188.2661
0
VERTEX
8
CUT
10
95.8697
20
186.3402
0
VERTEX
8
CUT
10
94.4386
20
182.6437
0
VERTEX
8
CUT
10
93.3796
20
178.0115
0
VERTEX
8
CUT
10
93.1115
20
175.3410
0
VERTEX
8
CUT
10
93.1132
20
172.6412
0
VERTEX
8
CUT
10
93.9271
20
166.6612
0
VERTEX
8
CUT
10
95.9728
20
159.3524
0
VERTEX
8
CUT
10
100.2676
20
146.4071
0
VERTEX
8
CUT
10
101.0879
20
142.9176
0
VERTEX
8
CUT
10
101.5454
20
139.7263
0
VERTEX
8
CUT
10
101.6386
20
136.6074
0
VERTEX
8
CUT
10
101.4239
20
133.5042
0
VERTEX
8
CUT
10
100.8772
20
130.1378
0
VERTEX
8
CUT
10
99.2464
20
122.8874
0
VERTEX
8
CUT
10
99.0390
20
121.2642
0
VERTEX
8
CUT
10
99.0689
20
118.3484
0
VERTEX
8
CUT
10
99.2807
20
115.4502
0
VERTEX
8
CUT
10
99.7832
20
113.2655
0
VERTEX
8
CUT
10
102.6955
20
104.9124
0
VERTEX
8
CUT
10
103.0009
20
103.2408
0
VERTEX
8
CUT
10
103.0611
20
100.8296
0
VERTEX
8
CUT
10
102.9359
20
99.0282
0
VERTEX
8
CUT
10
102.5709
20
97.4469
0
VERTEX
8
CUT
10
101.7214
20
95.0465
0
VERTEX
8
CUT
10
101.0323
20
94.0716
0
VERTEX
8
CUT
10
100.1114
20
93.9979
0
VERTEX
8
CUT
10
97.4670
20
95.0577
0
VERTEX
8
CUT
10
94.5191
20
95.5318
0
VERTEX
8
CUT
10
91.9019
20
95.3244
0
VERTEX
8
CUT
10
91.5767
20
94.9164
0
VERTEX
8
CUT
10
91.9105
20
94.5537
0
VERTEX
8
CUT
10
94.5795
20
94.5929
0
VERTEX
8
CUT
10
96.8337
20
94.3425
0
VERTEX
8
CUT
10
98.5497
20
93.6990
0
VERTEX
8
CUT
10
99.7092
20
93.0101
0
VERTEX
8
CUT
10
100.2291
20
92.4745
0
VERTEX
8
CUT
10
100.3988
20
91.3373
0
VERTEX
8
CUT
10
100.1514
20
90.0665
0
VERTEX
8
CUT
10
99.5263
20
88.5047
0
VERTEX
8
CUT
10
99.4501
20
87.3777
0
VERTEX
8
CUT
10
99.6989
20
87.1528
0
VERTEX
8
CUT
10
100.0302
20
87.2042
0
VERTEX
8
CUT
10
100.8029
20
88.3636
0
VERTEX
8
CUT
10
101.3250
20
88.7254
0
VERTEX
8
CUT
10
101.9472
20
88.4339
0
VERTEX
8
CUT
10
101.9091
20
87.6643
0
VERTEX
8
CUT
10
101.3696
20
86.6263
0
VERTEX
8
CUT
10
100.6543
20
85.9442
0
VERTEX
8
CUT
10
100.1503
20
85.8274
0
VERTEX
8
CUT
10
99.6305
20
86.1453
0
VERTEX
8
CUT
10
99.2489
20
86.0274
0
VERTEX
8
CUT
10
98.5252
20
83.9622
0
VERTEX
8
CUT
10
97.2142
20
81.6792
0
VERTEX
8
CUT
10
96.3369
20
80.6471
0
VERTEX
8
CUT
10
94.4628
20
79.0145
0
VERTEX
8
CUT
10
93.2624
20
78.3648
0
VERTEX
8
CUT
10
92.2254
20
78.0860
0
VERTEX
8
CUT
10
91.0986
20
78.1508
0
VERTEX
8
CUT
10
88.7448
20
78.7403
0
VERTEX
8
CUT
10
88.4754
20
78.5483
0
VERTEX
8
CUT
10
88.1862
20
77.8220
0
VERTEX
8
CUT
10
87.4035
20
77.6380
0
VERTEX
8
CUT
10
86.7931
20
77.8814
0
VERTEX
8
CUT
10
86.2373
20
78.4519
0
VERTEX
8
CUT
10
85.9493
20
79.2098
0
VERTEX
8
CUT
10
86.1385
20
80.0242
0
VERTEX
8
CUT
10
86.5216
20
80.2800
0
VERTEX
8
CUT
10
87.1988
20
80.3786
0
VERTEX
8
CUT
10
89.9664
20
80.4755
0
VERTEX
8
CUT
10
91.6155
20
81.1776
0
VERTEX
8
CUT
10
92.1233
20
81.6302
0
VERTEX
8
CUT
10
92.1379
20
81.6384
0
VERTEX
8
CUT
10
92.1753
20
81.6758
0
VERTEX
8
CUT
10
92.3182
20
81.7569
0
VERTEX
8
CUT
10
93.3604
20
82.7103
0
VERTEX
8
CUT
10
93.9831
20
83.4213
0
VERTEX
8
CUT
10
95.4308
20
84.9908
0
VERTEX
8
CUT
10
95.9510
20
85.6681
0
VERTEX
8
CUT
10
96.5420
20
86.3429
0
VERTEX
8
CUT
10
96.8957
20
86.8981
0
VERTEX
8
CUT
10
97.6747
20
87.9124
0
VERTEX
8
CUT
10
97.5382
20
88.2527
0
VERTEX
8
CUT
10
96.7038
20
88.6933
0
VERTEX
8
CUT
10
92.9764
20
90.0351
0
VERTEX
8
CUT
10
91.9819
20
90.2020
0
VERTEX
8
CUT
10
91.9442
20
90.2244
0
VERTEX
8
CUT
10
90.9956
20
90.4195
0
VERTEX
8
CUT
10
90.8495
20
90.3922
0
VERTEX
8
CUT
10
90.8438
20
90.3931
0
VERTEX
8
CUT
10
89.2049
20
90.1858
0
VERTEX
8
CUT
10
84.0901
20
87.8019
0
VERTEX
8
CUT
10
84.1266
20
87.2718
0
VERTEX
8
CUT
10
85.8123
20
83.9265
0
VERTEX
8
CUT
10
86.3060
20
82.1125
0
VERTEX
8
CUT
10
86.1374
20
81.2338
0
VERTEX
8
CUT
10
85.6275
20
80.6839
0
VERTEX
8
CUT
10
85.0005
20
80.6973
0
VERTEX
8
CUT
10
84.1614
20
81.2244
0
VERTEX
8
CUT
10
83.8218
20
81.0742
0
VERTEX
8
CUT
10
83.7509
20
80.7449
0
VERTEX
8
CUT
10
85.4971
20
77.9848
0
VERTEX
8
CUT
10
86.4683
20
76.8340
0
VERTEX
8
CUT
10
88.5844
20
75.2183
0
VERTEX
8
CUT
10
91.0020
20
74.4798
0
VERTEX
8
CUT
10
93.5434
20
74.4802
0
VERTEX
8
CUT
10
94.7799
20
74.7185
0
VERTEX
8
CUT
10
97.0269
20
75.6942
0
VERTEX
8
CUT
10
99.2151
20
77.4370
0
VERTEX
8
CUT
10
104.0606
20
82.9765
0
VERTEX
8
CUT
10
105.9777
20
84.8328
0
VERTEX
8
CUT
10
109.4675
20
86.9184
0
VERTEX
8
CUT
10
111.4365
20
87.4541
0
VERTEX
8
CUT
10
111.9635
20
86.9396
0
VERTEX
8
CUT
10
112.1640
20
85.6955
0
VERTEX
8
CUT
10
111.8029
20
78.2722
0
VERTEX
8
CUT
10
111.8673
20
78.2064
0
VERTEX
8
CUT
10
111.6515
20
77.4781
0
VERTEX
8
CUT
10
111.7725
20
77.1455
0
VERTEX
8
CUT
10
112.1052
20
77.0245
0
VERTEX
8
CUT
10
112.4983
20
77.4177
0
VERTEX
8
CUT
10
112.6798
20
78.2644
0
VERTEX
8
CUT
10
112.6848
20
78.4884
0
VERTEX
8
CUT
10
113.8392
20
81.6217
0
VERTEX
8
CUT
10
114.3140
20
84.9822
0
VERTEX
8
CUT
10
114.3149
20
89.7427
0
VERTEX
8
CUT
10
113.9254
20
94.2176
0
VERTEX
8
CUT
10
112.9313
20
98.7412
0
VERTEX
8
CUT
10
111.9667
20
102.1181
0
VERTEX
8
CUT
10
108.0681
20
113.1194
0
VERTEX
8
CUT
10
106.7626
20
117.6100
0
VERTEX
8
CUT
10
106.0616
20
121.4134
0
VERTEX
8
CUT
10
105.8475
20
124.9469
0
VERTEX
8
CUT
10
106.3121
20
129.5034
0
VERTEX
8
CUT
10
107.7065
20
133.2016
0
VERTEX
8
CUT
10
108.7812
20
134.8063
0
VERTEX
8
CUT
10
110.1207
20
136.2132
0
VERTEX
8
CUT
10
111.6835
20
137.3967
0
VERTEX
8
CUT
10
113.1858
20
138.2242
0
VERTEX
8
CUT
10
115.7372
20
139.1685
0
VERTEX
8
CUT
10
116.1472
20
139.2435
0
VERTEX
8
CUT
10
118.5537
20
139.4713
0
VERTEX
8
CUT
10
121.4107
20
139.4122
0
VERTEX
8
CUT
10
124.1029
20
138.9815
0
VERTEX
8
CUT
10
126.5870
20
138.0925
0
VERTEX
8
CUT
10
128.9851
20
136.7580
0
VERTEX
8
CUT
10
131.3376
20
134.9294
0
VERTEX
8
CUT
10
133.7458
20
132.5227
0
VERTEX
8
CUT
10
136.1552
20
129.5711
0
VERTEX
8
CUT
10
144.6503
20
117.7764
0
VERTEX
8
CUT
10
146.7105
20
114.8960
0
VERTEX
8
CUT
10
148.0123
20
112.8272
0
VERTEX
8
CUT
10
149.0615
20
110.7586
0
VERTEX
8
CUT
10
149.7979
20
108.7722
0
VERTEX
8
CUT
10
150.1823
20
107.1149
0
VERTEX
8
CUT
10
150.3115
20
105.9911
0
VERTEX
8
CUT
10
150.3359
20
104.5900
0
VERTEX
8
CUT
10
150.1242
20
101.7214
0
VERTEX
8
CUT
10
149.4713
20
98.4890
0
VERTEX
8
CUT
10
148.4168
20
95.5012
0
VERTEX
8
CUT
10
148.0548
20
94.6946
0
VERTEX
8
CUT
10
147.8963
20
94.3416
0
VERTEX
8
CUT
10
147.7482
20
94.0116
0
VERTEX
8
CUT
10
147.5965
20
93.6735
0
VERTEX
8
CUT
10
146.2457
20
91.0374
0
VERTEX
8
CUT
10
143.8537
20
87.3129
0
VERTEX
8
CUT
10
141.3447
20
83.9250
0
VERTEX
8
CUT
10
140.6840
20
83.0579
0
VERTEX
8
CUT
10
140.6101
20
82.8942
0
VERTEX
8
CUT
10
140.5808
20
82.8560
0
VERTEX
8
CUT
10
140.1096
20
81.7989
0
VERTEX
8
CUT
10
138.4690
20
78.5343
0
VERTEX
8
CUT
10
137.8533
20
77.5220
0
VERTEX
8
CUT
10
136.8674
20
76.0623
0
VERTEX
8
CUT
10
134.0524
20
72.9088
0
VERTEX
8
CUT
10
131.5011
20
70.6194
0
VERTEX
8
CUT
10
131.3743
20
70.5265
0
VERTEX
8
CUT
10
131.2763
20
70.4547
0
VERTEX
8
CUT
10
130.6923
20
70.0268
0
VERTEX
8
CUT
10
130.6269
20
69.9789
0
VERTEX
8
CUT
10
126.2451
20
67.6357
0
VERTEX
8
CUT
10
123.8790
20
66.7009
0
VERTEX
8
CUT
10
122.9276
20
66.3927
0
VERTEX
8
CUT
10
120.9768
20
65.8104
0
VERTEX
8
CUT
10
115.8593
20
64.9644
0
VERTEX
8
CUT
10
115.5581
20
64.9523
0
VERTEX
8
CUT
10
115.1629
20
64.9364
0
VERTEX
8
CUT
10
115.0343
20
64.9313
0
VERTEX
8
CUT
10
114.7195
20
64.9186
0
VERTEX
8
CUT
10
109.7717
20
64.8614
0
VERTEX
8
CUT
10
107.7586
20
64.9766
0
VERTEX
8
CUT
10
107.6924
20
64.9804
0
VERTEX
8
CUT
10
107.4813
20
64.9925
0
VERTEX
8
CUT
10
105.9409
20
65.0807
0
VERTEX
8
CUT
10
103.8956
20
65.3272
0
VERTEX
8
CUT
10
97.8456
20
66.6582
0
VERTEX
8
CUT
10
92.3690
20
68.5413
0
VERTEX
8
CUT
10
89.7685
20
69.6709
0
VERTEX
8
CUT
10
89.6194
20
69.7367
0
VERTEX
8
CUT
10
86.0770
20
71.8414
0
VERTEX
8
CUT
10
85.5016
20
72.1893
0
VERTEX
8
CUT
10
85.1398
20
72.4859
0
VERTEX
8
CUT
10
83.3581
20
74.0536
0
VERTEX
8
CUT
10
82.1849
20
75.4605
0
VERTEX
8
CUT
10
81.9188
20
75.8397
0
VERTEX
8
CUT
10
79.4896
20
79.5231
0
VERTEX
8
CUT
10
79.4725
20
79.5500
0
VERTEX
8
CUT
10
79.4680
20
79.5559
0
VERTEX
8
CUT
10
78.6598
20
80.7813
0
VERTEX
8
CUT
10
78.0180
20
81.4759
0
VERTEX
8
CUT
10
77.8153
20
81.7727
0
VERTEX
8
CUT
10
77.4594
20
82.0806
0
VERTEX
8
CUT
10
76.8964
20
82.6899
0
VERTEX
8
CUT
10
75.9666
20
83.3718
0
VERTEX
8
CUT
10
75.2006
20
84.0342
0
VERTEX
8
CUT
10
74.4539
20
84.4810
0
VERTEX
8
CUT
10
73.7895
20
84.9682
0
VERTEX
8
CUT
10
71.9438
20
85.8770
0
VERTEX
8
CUT
10
67.2474
20
87.7133
0
VERTEX
8
CUT
10
50.0028
20
94.0365
0
VERTEX
8
CUT
10
48.1150
20
94.9670
0
VERTEX
8
CUT
10
47.5654
20
95.6127
0
VERTEX
8
CUT
10
43.9173
20
96.6861
0
VERTEX
8
CUT
10
42.8904
20
97.4040
0
VERTEX
8
CUT
10
42.6433
20
98.0342
0
VERTEX
8
CUT
10
41.4374
20
98.4845
0
VERTEX
8
CUT
10
40.8433
20
98.9382
0
VERTEX
8
CUT
10
40.6370
20
99.2497
0
VERTEX
8
CUT
10
40.5460
20
99.4050
0
VERTEX
8
CUT
10
40.3975
20
99.7508
0
VERTEX
8
CUT
10
40.2879
20
100.2789
0
VERTEX
8
CUT
10
40.2938
20
100.5726
0
VERTEX
8
CUT
10
40.3947
20
100.9031
0
VERTEX
8
CUT
10
41.6143
20
102.2542
0
SEQEND
0
POLYLINE
8
CUT
66
1
70
1
10
0.0
20
0.0
30
0.0
0
VERTEX
8
CUT
10
83.0445
20
83.5960
0
VERTEX
8
CUT
10
81.0020
20
85.9956
0
VERTEX
8
CUT
10
80.4208
20
86.1423
0
VERTEX
8
CUT
10
80.2936
20
85.6049
0
VERTEX
8
CUT
10
82.9447
20
82.1320
0
VERTEX
8
CUT
10
83.3576
20
82.0144
0
VERTEX
8
CUT
10
83.6284
20
82.3477
0
SEQEND
0
POLYLINE
8
CUT
66
1
70
1
10
0.0
20
0.0
30
0.0
0
VERTEX
8
CUT
10
105.0863
20
255.1342
0
VERTEX
8
CUT
10
105.4382
20
255.3315
0
VERTEX
8
CUT
10
105.4406
20
255.3329
0
VERTEX
8
CUT
10
105.6289
20
255.4385
0
VERTEX
8
CUT
10
106.4272
20
255.8863
0
VERTEX
8
CUT
10
106.4458
20
255.8908
0
VERTEX
8
CUT
10
108.0532
20
256.1438
0
VERTEX
8
CUT
10
108.0783
20
256.1450
0
VERTEX
8
CUT
10
109.1608
20
256.0914
0
VERTEX
8
CUT
10
109.9409
20
251.7844
0
VERTEX
8
CUT
10
110.6337
20
250.2244
0
VERTEX
8
CUT
10
111.0164
20
250.0304
0
VERTEX
8
CUT
10
111.3605
20
250.4552
0
VERTEX
8
CUT
10
110.7213
20
252.6513
0
VERTEX
8
CUT
10
110.7187
20
254.1226
0
VERTEX
8
CUT
10
111.1242
20
255.2592
0
VERTEX
8
CUT
10
111.7208
20
255.9987
0
VERTEX
8
CUT
10
113.0686
20
256.5088
0
VERTEX
8
CUT
10
117.8605
20
256.3877
0
VERTEX
8
CUT
10
121.5441
20
255.3801
0
VERTEX
8
CUT
10
123.5656
20
254.2217
0
VERTEX
8
CUT
10
124.0965
20
253.7846
0
VERTEX
8
CUT
10
124.2391
20
253.6672
0
VERTEX
8
CUT
10
124.3252
20
253.5963
0
VERTEX
8
CUT
10
124.5131
20
253.4415
0
VERTEX
8
CUT
10
124.9237
20
253.0072
0
VERTEX
8
CUT
10
126.0058
20
251.7026
0
VERTEX
8
CUT
10
127.0322
20
250.0105
0
VERTEX
8
CUT
10
127.7275
20
248.6038
0
VERTEX
8
CUT
10
127.7811
20
248.4881
0
VERTEX
8
CUT
10
127.8254
20
248.3924
0
VERTEX
8
CUT
10
127.8925
20
248.2474
0
VERTEX
8
CUT
10
128.0121
20
247.9891
0
VERTEX
8
CUT
10
128.5998
20
246.3690
0
VERTEX
8
CUT
10
128.8266
20
245.2361
0
VERTEX
8
CUT
10
128.5856
20
244.5998
0
VERTEX
8
CUT
10
128.1280
20
244.5475
0
VERTEX
8
CUT
10
127.1739
20
245.0128
0
VERTEX
8
CUT
10
126.8761
20
244.8687
0
VERTEX
8
CUT
10
126.7907
20
244.5852
0
VERTEX
8
CUT
10
128.0657
20
241.1958
0
VERTEX
8
CUT
10
128.7339
20
238.6710
0
VERTEX
8
CUT
10
129.2479
20
235.7073
0
VERTEX
8
CUT
10
130.4276
20
225.9984
0
VERTEX
8
CUT
10
132.0915
20
215.3487
0
VERTEX
8
CUT
10
132.3353
20
212.2000
0
VERTEX
8
CUT
10
132.2419
20
209.6014
0
VERTEX
8
CUT
10
131.6026
20
206.6781
0
VERTEX
8
CUT
10
130.5296
20
204.3110
0
VERTEX
8
CUT
10
124.4206
20
194.8437
0
VERTEX
8
CUT
10
122.4095
20
190.7054
0
VERTEX
8
CUT
10
121.2916
20
186.7462
0
VERTEX
8
CUT
10
120.9655
20
182.8909
0
VERTEX
8
CUT
10
121.0539
20
181.1464
0
VERTEX
8
CUT
10
121.2399
20
179.5268
0
VERTEX
8
CUT
10
122.0769
20
176.7637
0
VERTEX
8
CUT
10
123.4805
20
174.3072
0
VERTEX
8
CUT
10
124.4671
20
173.1369
0
VERTEX
8
CUT
10
127.2406
20
170.6274
0
VERTEX
8
CUT
10
128.9660
20
169.5232
0
VERTEX
8
CUT
10
130.8165
20
168.6831
0
VERTEX
8
CUT
10
132.7529
20
168.0840
0
VERTEX
8
CUT
10
134.8013
20
167.7469
0
VERTEX
8
CUT
10
138.9693
20
167.8060
0
VERTEX
8
CUT
10
141.1658
20
168.2320
0
VERTEX
8
CUT
10
143.7612
20
169.0993
0
VERTEX
8
CUT
10
147.7190
20
171.1708
0
VERTEX
8
CUT
10
156.6714
20
177.7430
0
VERTEX
8
CUT
10
160.8898
20
180.2640
0
VERTEX
8
CUT
10
165.2754
20
182.2878
0
VERTEX
8
CUT
10
169.8630
20
183.8045
0
VERTEX
8
CUT
10
174.7506
20
184.8652
0
VERTEX
8
CUT
10
180.0592
20
185.5008
0
VERTEX
8
CUT
10
185.8459
20
185.7121
0
VERTEX
8
CUT
10
200.4808
20
185.2284
0
VERTEX
8
CUT
10
209.3646
20
185.4086
0
VERTEX
8
CUT
10
214.0343
20
186.0703
0
VERTEX
8
CUT
10
218.2145
20
187.0618
0
VERTEX
8
CUT
10
221.7838
20
188.3331
0
VERTEX
8
CUT
10
226.4627
20
190.9458
0
VERTEX
8
CUT
10
230.3037
20
194.1900
0
VERTEX
8
CUT
10
231.2526
20
195.3218
0
VERTEX
8
CUT
10
232.5908
20
197.4393
0
VERTEX
8
CUT
10
233.1547
20
199.0593
0
VERTEX
8
CUT
10
233.0574
20
199.5437
0
VERTEX
8
CUT
10
232.7688
20
199.7268
0
VERTEX
8
CUT
10
231.1694
20
199.1342
0
VERTEX
8
CUT
10
224.8654
20
196.1343
0
VERTEX
8
CUT
10
220.4417
20
194.5501
0
VERTEX
8
CUT
10
218.0814
20
194.0962
0
VERTEX
8
CUT
10
216.0244
20
193.9719
0
VERTEX
8
CUT
10
209.9930
20
194.0352
0
VERTEX
8
CUT
10
206.0197
20
194.7120
0
VERTEX
8
CUT
10
202.3935
20
196.0863
0
VERTEX
8
CUT
10
198.7659
20
198.1627
0
VERTEX
8
CUT
10
194.7767
20
201.4264
0
VERTEX
8
CUT
10
193.0939
20
203.3191
0
VERTEX
8
CUT
10
191.6060
20
205.3955
0
VERTEX
8
CUT
10
190.3562
20
207.5646
0
VERTEX
8
CUT
10
189.3504
20
209.8577
0
VERTEX
8
CUT
10
188.1044
20
214.7473
0
VERTEX
8
CUT
10
187.9077
20
217.9091
0
VERTEX
8
CUT
10
187.9080
20
217.9394
0
VERTEX
8
CUT
10
187.9084
20
217.9831
0
VERTEX
8
CUT
10
187.9093
20
218.0740
0
VERTEX
8
CUT
10
187.9118
20
218.3216
0
VERTEX
8
CUT
10
188.2293
20
221.5268
0
VERTEX
8
CUT
10
189.0839
20
224.8539
0
VERTEX
8
CUT
10
190.4446
20
228.0612
0
VERTEX
8
CUT
10
192.3330
20
231.1585
0
VERTEX
8
CUT
10
194.6519
20
234.0208
0
VERTEX
8
CUT
10
197.1870
20
236.4126
0
VERTEX
8
CUT
10
198.4489
20
237.3785
0
VERTEX
8
CUT
10
200.4752
20
238.8456
0
VERTEX
8
CUT
10
201.0467
20
239.1818
0
VERTEX
8
CUT
10
201.2886
20
239.6052
0
VERTEX
8
CUT
10
201.1677
20
239.9076
0
VERTEX
8
CUT
10
200.2604
20
239.9983
0
VERTEX
8
CUT
10
199.9776
20
239.8466
0
VERTEX
8
CUT
10
189.6406
20
238.7313
0
VERTEX
8
CUT
10
185.2207
20
238.4880
0
VERTEX
8
CUT
10
180.5203
20
238.8518
0
VERTEX
8
CUT
10
177.8944
20
239.6664
0
VERTEX
8
CUT
10
175.6641
20
240.9834
0
VERTEX
8
CUT
10
174.0044
20
242.7919
0
VERTEX
8
CUT
10
173.2981
20
244.0105
0
VERTEX
8
CUT
10
172.1696
20
247.0118
0
VERTEX
8
CUT
10
171.9565
20
248.6903
0
VERTEX
8
CUT
10
172.2470
20
249.9584
0
VERTEX
8
CUT
10
172.3117
20
250.0608
0
VERTEX
8
CUT
10
172.4416
20
250.2663
0
VERTEX
8
CUT
10
172.6552
20
250.6043
0
VERTEX
8
CUT
10
172.9068
20
251.0024
0
VERTEX
8
CUT
10
173.0059
20
251.1329
0
VERTEX
8
CUT
10
173.0338
20
251.1599
0
VERTEX
8
CUT
10
173.1760
20
251.2972
0
VERTEX
8
CUT
10
173.2605
20
251.3787
0
VERTEX
8
CUT
10
173.4298
20
251.5421
0
VERTEX
8
CUT
10
173.7978
20
251.7631
0
VERTEX
8
CUT
10
174.8817
20
252.3180
0
VERTEX
8
CUT
10
175.4347
20
252.4539
0
VERTEX
8
CUT
10
176.2127
20
252.1177
0
VERTEX
8
CUT
10
176.8158
20
249.1853
0
VERTEX
8
CUT
10
177.0073
20
248.7650
0
VERTEX
8
CUT
10
177.3068
20
247.8915
0
VERTEX
8
CUT
10
177.5771
20
247.5141
0
VERTEX
8
CUT
10
177.7178
20
247.2053
0
VERTEX
8
CUT
10
178.0373
20
246.8718
0
VERTEX
8
CUT
10
178.7584
20
245.8652
0
VERTEX
8
CUT
10
179.1818
20
245.5326
0
VERTEX
8
CUT
10
179.5144
20
245.5628
0
VERTEX
8
CUT
10
179.4842
20
245.9560
0
VERTEX
8
CUT
10
178.6692
20
247.1784
0
VERTEX
8
CUT
10
177.9436
20
249.3011
0
VERTEX
8
CUT
10
177.9154
20
250.4623
0
VERTEX
8
CUT
10
178.1428
20
251.5148
0
VERTEX
8
CUT
10
178.6019
20
252.3866
0
VERTEX
8
CUT
10
179.1472
20
252.9048
0
VERTEX
8
CUT
10
179.5245
20
253.0471
0
VERTEX
8
CUT
10
180.3909
20
253.2326
0
VERTEX
8
CUT
10
180.6617
20
253.2531
0
VERTEX
8
CUT
10
181.8450
20
253.2869
0
VERTEX
8
CUT
10
184.3906
20
253.2501
0
VERTEX
8
CUT
10
185.5616
20
253.1116
0
VERTEX
8
CUT
10
187.4838
20
252.5193
0
VERTEX
8
CUT
10
194.1657
20
251.5486
0
VERTEX
8
CUT
10
208.2455
20
251.0954
0
VERTEX
8
CUT
10
211.3105
20
250.8233
0
VERTEX
8
CUT
10
213.0442
20
250.2021
0
VERTEX
8
CUT
10
214.5141
20
249.0246
0
VERTEX
8
CUT
10
215.6870
20
247.5368
0
VERTEX
8
CUT
10
216.2201
20
245.7966
0
VERTEX
8
CUT
10
216.0739
20
243.8743
0
VERTEX
8
CUT
10
215.7164
20
242.8296
0
VERTEX
8
CUT
10
215.2163
20
241.8070
0
VERTEX
8
CUT
10
213.8294
20
239.9681
0
VERTEX
8
CUT
10
209.5792
20
235.1693
0
VERTEX
8
CUT
10
206.7488
20
231.4924
0
VERTEX
8
CUT
10
205.0622
20
228.2390
0
VERTEX
8
CUT
10
204.2835
20
225.0570
0
VERTEX
8
CUT
10
204.2196
20
222.4860
0
VERTEX
8
CUT
10
204.4247
20
220.8296
0
VERTEX
8
CUT
10
205.2481
20
218.6377
0
VERTEX
8
CUT
10
207.0251
20
216.1432
0
VERTEX
8
CUT
10
208.9098
20
214.5772
0
VERTEX
8
CUT
10
209.9994
20
213.9840
0
VERTEX
8
CUT
10
212.5704
20
213.1961
0
VERTEX
8
CUT
10
215.5182
20
212.9610
0
VERTEX
8
CUT
10
217.1969
20
213.0228
0
VERTEX
8
CUT
10
220.3344
20
213.5950
0
VERTEX
8
CUT
10
223.6825
20
214.8992
0
VERTEX
8
CUT
10
225.6155
20
215.9244
0
VERTEX
8
CUT
10
234.5055
20
221.2311
0
VERTEX
8
CUT
10
237.6658
20
222.3557
0
VERTEX
8
CUT
10
239.8559
20
222.6367
0
VERTEX
8
CUT
10
242.6449
20
222.5417
0
VERTEX
8
CUT
10
244.7175
20
221.6791
0
VERTEX
8
CUT
10
246.2285
20
220.5775
0
VERTEX
8
CUT
10
247.4992
20
219.2462
0
VERTEX
8
CUT
10
248.8232
20
216.9256
0
VERTEX
8
CUT
10
249.1421
20
216.8147
0
VERTEX
8
CUT
10
249.4280
20
216.9942
0
VERTEX
8
CUT
10
249.2550
20
220.0484
0
VERTEX
8
CUT
10
248.5003
20
224.8729
0
VERTEX
8
CUT
10
247.6816
20
227.2363
0
VERTEX
8
CUT
10
247.7705
20
227.5386
0
VERTEX
8
CUT
10
247.1959
20
228.9902
0
VERTEX
8
CUT
10
247.1804
20
229.0051
0
VERTEX
8
CUT
10
246.6363
20
230.2534
0
VERTEX
8
CUT
10
246.1093
20
231.7745
0
VERTEX
8
CUT
10
245.6025
20
232.6251
0
VERTEX
8
CUT
10
245.5491
20
232.7478
0
VERTEX
8
CUT
10
244.6217
20
234.2713
0
VERTEX
8
CUT
10
242.8890
20
237.1795
0
VERTEX
8
CUT
10
241.2378
20
239.0742
0
VERTEX
8
CUT
10
239.6223
20
241.0107
0
VERTEX
8
CUT
10
239.2828
20
241.3174
0
VERTEX
8
CUT
10
238.6406
20
242.0542
0
VERTEX
8
CUT
10
236.5383
20
243.7968
0
VERTEX
8
CUT
10
235.5540
20
244.6861
0
VERTEX
8
CUT
10
234.9138
20
245.1434
0
VERTEX
8
CUT
10
233.3957
20
246.4017
0
VERTEX
8
CUT
10
231.8743
20
247.3296
0
VERTEX
8
CUT
10
231.6170
20
247.4982
0
VERTEX
8
CUT
10
230.9530
20
247.9725
0
VERTEX
8
CUT
10
229.5472
20
248.7489
0
VERTEX
8
CUT
10
227.1759
20
250.1952
0
VERTEX
8
CUT
10
225.9092
20
250.7581
0
VERTEX
8
CUT
10
225.7091
20
250.8687
0
VERTEX
8
CUT
10
224.2777
20
251.4832
0
VERTEX
8
CUT
10
220.1667
20
253.3104
0
VERTEX
8
CUT
10
217.3373
20
254.1921
0
VERTEX
8
CUT
10
216.9333
20
254.3397
0
VERTEX
8
CUT
10
216.4869
20
254.4658
0
VERTEX
8
CUT
10
213.7095
20
255.3647
0
VERTEX
8
CUT
10
213.2147
20
255.4768
0
VERTEX
8
CUT
10
212.2855
20
255.7663
0
VERTEX
8
CUT
10
208.8295
20
256.4697
0
VERTEX
8
CUT
10
207.0141
20
256.8807
0
VERTEX
8
CUT
10
206.2899
20
256.9865
0
VERTEX
8
CUT
10
203.7216
20
257.5092
0
VERTEX
8
CUT
10
201.8823
20
257.7217
0
VERTEX
8
CUT
10
200.8529
20
257.7808
0
VERTEX
8
CUT
10
200.6255
20
257.8140
0
VERTEX
8
CUT
10
199.0348
20
257.8851
0
VERTEX
8
CUT
10
198.1117
20
257.9381
0
VERTEX
8
CUT
10
196.0933
20
258.1155
0
VERTEX
8
CUT
10
194.2360
20
258.1605
0
VERTEX
8
CUT
10
186.0705
20
258.6290
0
VERTEX
8
CUT
10
184.6795
20
258.8763
0
VERTEX
8
CUT
10
184.5661
20
258.9276
0
VERTEX
8
CUT
10
184.3112
20
259.2079
0
VERTEX
8
CUT
10
184.1793
20
259.5243
0
VERTEX
8
CUT
10
184.2891
20
260.0261
0
VERTEX
8
CUT
10
184.7478
20
260.5847
0
VERTEX
8
CUT
10
186.3715
20
261.6388
0
VERTEX
8
CUT
10
188.9047
20
262.6036
0
VERTEX
8
CUT
10
193.7340
20
263.7654
0
VERTEX
8
CUT
10
195.3337
20
263.9687
0
VERTEX
8
CUT
10
200.0510
20
264.2809
0
VERTEX
8
CUT
10
205.7772
20
264.2503
0
VERTEX
8
CUT
10
210.0271
20
263.9264
0
VERTEX
8
CUT
10
214.7058
20
263.2066
0
VERTEX
8
CUT
10
218.5260
20
262.2793
0
VERTEX
8
CUT
10
219.0474
20
262.1527
0
VERTEX
8
CUT
10
219.1685
20
262.1233
0
VERTEX
8
CUT
10
220.9068
20
261.7013
0
VERTEX
8
CUT
10
224.9044
20
260.4021
0
VERTEX
8
CUT
10
229.5479
20
258.4612
0
VERTEX
8
CUT
10
233.9791
20
256.1689
0
VERTEX
8
CUT
10
237.8610
20
253.7038
0
VERTEX
8
CUT
10
238.2536
20
253.4357
0
VERTEX
8
CUT
10
241.6575
20
250.8357
0
VERTEX
8
CUT
10
242.0583
20
250.4621
0
VERTEX
8
CUT
10
242.3204
20
250.2178
0
VERTEX
8
CUT
10
243.0900
20
249.5003
0
VERTEX
8
CUT
10
244.9979
20
247.7216
0
VERTEX
8
CUT
10
245.0560
20
247.6674
0
VERTEX
8
CUT
10
245.0605
20
247.6633
0
VERTEX
8
CUT
10
245.0607
20
247.6631
0
VERTEX
8
CUT
10
246.6748
20
245.8753
0
VERTEX
8
CUT
10
248.8951
20
242.9617
0
VERTEX
8
CUT
10
250.5924
20
240.2375
0
VERTEX
8
CUT
10
252.1126
20
237.2536
0
VERTEX
8
CUT
10
253.3273
20
234.1517
0
VERTEX
8
CUT
10
254.2600
20
230.9626
0
VERTEX
8
CUT
10
255.0862
20
226.2066
0
VERTEX
8
CUT
10
255.1011
20
226.0379
0
VERTEX
8
CUT
10
255.1030
20
226.0157
0
VERTEX
8
CUT
10
255.1031
20
226.0146
0
VERTEX
8
CUT
10
255.1593
20
225.3755
0
VERTEX
8
CUT
10
255.2984
20
219.6284
0
VERTEX
8
CUT
10
254.7809
20
213.3744
0
VERTEX
8
CUT
10
253.5041
20
207.9261
0
VERTEX
8
CUT
10
253.4207
20
207.6371
0
VERTEX
8
CUT
10
253.4057
20
207.5853
0
VERTEX
8
CUT
10
253.3667
20
207.4500
0
VERTEX
8
CUT
10
253.3122
20
207.2613
0
VERTEX
8
CUT
10
252.0910
20
203.8056
0
VERTEX
8
CUT
10
251.9871
20
203.5569
0
VERTEX
8
CUT
10
251.9256
20
203.4099
0
VERTEX
8
CUT
10
251.8653
20
203.2655
0
VERTEX
8
CUT
10
251.7268
20
202.9343
0
VERTEX
8
CUT
10
250.1891
20
199.5483
0
VERTEX
8
CUT
10
248.2248
20
195.9648
0
VERTEX
8
CUT
10
248.1977
20
195.9169
0
VERTEX
8
CUT
10
248.1706
20
195.8689
0
VERTEX
8
CUT
10
248.1635
20
195.8565
0
VERTEX
8
CUT
10
248.0640
20
195.6805
0
VERTEX
8
CUT
10
246.1821
20
192.8941
0
VERTEX
8
CUT
10
244.9235
20
191.1829
0
VERTEX
8
CUT
10
243.3065
20
189.1360
0
VERTEX
8
CUT
10
240.4436
20
186.0235
0
VERTEX
8
CUT
10
240.3552
20
185.9273
0
VERTEX
8
CUT
10
240.3474
20
185.9189
0
VERTEX
8
CUT
10
239.7661
20
185.2869
0
VERTEX
8
CUT
10
239.1460
20
184.7188
0
VERTEX
8
CUT
10
237.6229
20
183.3859
0
VERTEX
8
CUT
10
236.1692
20
182.1138
0
VERTEX
8
CUT
10
236.0195
20
181.9829
0
VERTEX
8
CUT
10
235.4089
20
181.4485
0
VERTEX
8
CUT
10
234.0539
20
180.3798
0
VERTEX
8
CUT
10
231.6723
20
178.6911
0
VERTEX
8
CUT
10
231.2384
20
178.3834
0
VERTEX
8
CUT
10
231.0154
20
178.2253
0
VERTEX
8
CUT
10
229.7044
20
177.2957
0
VERTEX
8
CUT
10
228.2260
20
176.3945
0
VERTEX
8
CUT
10
224.3679
20
174.1735
0
VERTEX
8
CUT
10
222.5680
20
173.2130
0
VERTEX
8
CUT
10
222.1854
20
173.0305
0
VERTEX
8
CUT
10
222.0638
20
172.9724
0
VERTEX
8
CUT
10
221.7024
20
172.8000
0
VERTEX
8
CUT
10
221.3424
20
172.6282
0
VERTEX
8
CUT
10
212.6984
20
168.8524
0
VERTEX
8
CUT
10
201.2368
20
164.8000
0
VERTEX
8
CUT
10
179.8014
20
157.7859
0
VERTEX
8
CUT
10
176.0611
20
156.3328
0
VERTEX
8
CUT
10
174.0626
20
155.6114
0
VERTEX
8
CUT
10
172.6694
20
155.0151
0
VERTEX
8
CUT
10
169.7788
20
153.8921
0
VERTEX
8
CUT
10
165.6477
20
151.9628
0
VERTEX
8
CUT
10
162.0307
20
150.0044
0
VERTEX
8
CUT
10
158.8727
20
148.0203
0
VERTEX
8
CUT
10
157.2172
20
146.7618
0
VERTEX
8
CUT
10
156.9483
20
146.5774
0
VERTEX
8
CUT
10
156.7434
20
146.4017
0
VERTEX
8
CUT
10
156.1030
20
145.9148
0
VERTEX
8
CUT
10
155.9700
20
145.7868
0
VERTEX
8
CUT
10
155.7620
20
145.6366
0
VERTEX
8
CUT
10
154.3885
20
144.3822
0
VERTEX
8
CUT
10
153.9735
20
144.0262
0
VERTEX
8
CUT
10
153.8468
20
143.8874
0
VERTEX
8
CUT
10
152.9734
20
143.0897
0
VERTEX
8
CUT
10
152.3006
20
142.2530
0
VERTEX
8
CUT
10
151.9242
20
141.8904
0
VERTEX
8
CUT
10
151.5448
20
141.3649
0
VERTEX
8
CUT
10
151.5045
20
141.3207
0
VERTEX
8
CUT
10
150.9344
20
140.5536
0
VERTEX
8
CUT
10
150.0321
20
139.4314
0
VERTEX
8
CUT
10
149.3857
20
138.3740
0
VERTEX
8
CUT
10
149.0212
20
137.8690
0
VERTEX
8
CUT
10
148.4478
20
136.6881
0
VERTEX
8
CUT
10
148.0183
20
135.8558
0
VERTEX
8
CUT
10
147.8959
20
135.6459
0
VERTEX
8
CUT
10
147.7373
20
135.2251
0
VERTEX
8
CUT
10
146.8930
20
133.4863
0
VERTEX
8
CUT
10
145.5211
20
128.7742
0
VERTEX
8
CUT
10
144.8740
20
125.0415
0
VERTEX
8
CUT
10
144.5258
20
124.3909
0
VERTEX
8
CUT
10
144.1394
20
124.2712
0
VERTEX
8
CUT
10
143.8692
20
124.4445
0
VERTEX
8
CUT
10
142.7619
20
126.4537
0
VERTEX
8
CUT
10
140.0889
20
129.7661
0
VERTEX
8
CUT
10
137.0603
20
134.7020
0
VERTEX
8
CUT
10
134.7788
20
138.9569
0
VERTEX
8
CUT
10
131.7108
20
143.3440
0
VERTEX
8
CUT
10
127.7285
20
147.4756
0
VERTEX
8
CUT
10
125.2259
20
149.6174
0
VERTEX
8
CUT
10
116.4774
20
156.0360
0
VERTEX
8
CUT
10
110.8020
20
160.7728
0
VERTEX
8
CUT
10
109.3687
20
162.2383
0
VERTEX
8
CUT
10
107.0687
20
165.2042
0
VERTEX
8
CUT
10
106.0746
20
166.7919
0
VERTEX
8
CUT
10
104.4623
20
170.1467
0
VERTEX
8
CUT
10
103.4326
20
173.5722
0
VERTEX
8
CUT
10
102.9443
20
177.0217
0
VERTEX
8
CUT
10
103.0052
20
180.5321
0
VERTEX
8
CUT
10
103.6156
20
184.0719
0
VERTEX
8
CUT
10
104.8145
20
187.6309
0
VERTEX
8
CUT
10
106.4973
20
191.1167
0
VERTEX
8
CUT
10
113.6432
20
201.7206
0
VERTEX
8
CUT
10
116.2573
20
206.9131
0
VERTEX
8
CUT
10
117.5232
20
211.6107
0
VERTEX
8
CUT
10
117.7621
20
220.2159
0
VERTEX
8
CUT
10
117.6057
20
224.6257
0
VERTEX
8
CUT
10
117.6109
20
224.9592
0
VERTEX
8
CUT
10
117.5475
20
226.2676
0
VERTEX
8
CUT
10
117.3687
20
231.3088
0
VERTEX
8
CUT
10
117.0658
20
233.8721
0
VERTEX
8
CUT
10
116.6649
20
235.4756
0
VERTEX
8
CUT
10
116.5832
20
235.8827
0
VERTEX
8
CUT
10
116.5127
20
236.0842
0
VERTEX
8
CUT
10
116.1285
20
237.6212
0
VERTEX
8
CUT
10
115.7577
20
238.2443
0
VERTEX
8
CUT
10
115.6957
20
238.4218
0
VERTEX
8
CUT
10
115.4230
20
238.8069
0
VERTEX
8
CUT
10
115.4227
20
238.8073
0
VERTEX
8
CUT
10
115.3815
20
238.9044
0
VERTEX
8
CUT
10
115.3053
20
239.0046
0
VERTEX
8
CUT
10
114.7700
20
239.9042
0
VERTEX
8
CUT
10
114.2476
20
240.3952
0
VERTEX
8
CUT
10
114.1314
20
240.5481
0
VERTEX
8
CUT
10
114.0217
20
240.6076
0
VERTEX
8
CUT
10
113.4869
20
241.1103
0
VERTEX
8
CUT
10
112.5691
20
241.6300
0
VERTEX
8
CUT
10
110.0146
20
242.3088
0
VERTEX
8
CUT
10
108.0655
20
243.1598
0
VERTEX
8
CUT
10
105.4685
20
245.0989
0
VERTEX
8
CUT
10
104.7544
20
245.9132
0
VERTEX
8
CUT
10
103.7611
20
247.5690
0
VERTEX
8
CUT
10
103.2255
20
249.3442
0
VERTEX
8
CUT
10
103.6220
20
249.5991
0
VERTEX
8
CUT
10
104.3811
20
248.9520
0
VERTEX
8
CUT
10
104.8169
20
248.9144
0
VERTEX
8
CUT
10
105.0135
20
249.3051
0
VERTEX
8
CUT
10
104.1628
20
251.6993
0
VERTEX
8
CUT
10
104.0363
20
252.8933
0
VERTEX
8
CUT
10
104.1911
20
253.8427
0
VERTEX
8
CUT
10
104.5384
20
254.5466
0
VERTEX
8
CUT
10
104.5902
20
254.6198
0
VERTEX
8
CUT
10
104.5933
20
254.6241
0
VERTEX
8
CUT
10
104.5940
20
254.6252
0
VERTEX
8
CUT
10
104.6719
20
254.7353
0
SEQEND
0
POLYLINE
8
CUT
66
1
70
1
10
0.0
20
0.0
30
0.0
0
VERTEX
8
CUT
10
193.7281
20
244.7160
0
VERTEX
8
CUT
10
194.4842
20
244.5951
0
VERTEX
8
CUT
10
194.9681
20
244.8370
0
VERTEX
8
CUT
10
194.3027
20
245.3511
0
VERTEX
8
CUT
10
193.1233
20
245.5326
0
VERTEX
8
CUT
10
191.2181
20
246.3794
0
VERTEX
8
CUT
10
189.9177
20
247.2261
0
VERTEX
8
CUT
10
188.2544
20
248.8290
0
VERTEX
8
CUT
10
188.0124
20
248.8290
0
VERTEX
8
CUT
10
188.1031
20
248.4358
0
VERTEX
8
CUT
10
188.8592
20
247.5588
0
VERTEX
8
CUT
10
191.4902
20
245.6233
0
SEQEND
0
ENDSEC
0
EOF
