0
SECTION
2
HEADER
9
$ACADVER
1
AC1009
9
$INSUNITS
70
4
0
ENDSEC
0
SECTION
2
TABLES
0
TABLE
2
LAYER
70
1
0
LAYER
2
CUT
70
0
62
7
6
CONTINUOUS
0
ENDTAB
0
ENDSEC
0
SECTION
2
ENTITIES
0
POLYLINE
8
CUT
66
1
70
1
10
0.0
20
0.0
30
0.0
0
VERTEX
8
CUT
10
0.0000
20
298.7183
0
VERTEX
8
CUT
10
1.5336
20
300.3483
0
VERTEX
8
CUT
10
298.7183
20
300.4200
0
VERTEX
8
CUT
10
300.3483
20
298.8864
0
VERTEX
8
CUT
10
300.4200
20
1.7017
0
VERTEX
8
CUT
10
298.8639
20
0.0504
0
VERTEX
8
CUT
10
1.7017
20
0.0000
0
VERTEX
8
CUT
10
0.0717
20
1.5336
0
SEQEND
0
POLYLINE
8
CUT
66
1
70
1
10
0.0
20
0.0
30
0.0
0
VERTEX
8
CUT
10
151.9617
20
8.0000
0
VERTEX
8
CUT
10
151.9617
20
14.9692
0
VERTEX
8
CUT
10
152.0111
20
14.9979
0
VERTEX
8
CUT
10
152.0842
20
15.0430
0
VERTEX
8
CUT
10
152.1562
20
15.0899
0
VERTEX
8
CUT
10
152.2271
20
15.1385
0
VERTEX
8
CUT
10
152.2967
20
15.1888
0
VERTEX
8
CUT
10
152.3650
20
15.2408
0
VERTEX
8
CUT
10
152.4321
20
15.2945
0
VERTEX
8
CUT
10
152.4978
20
15.3498
0
VERTEX
8
CUT
10
152.5622
20
15.4067
0
VERTEX
8
CUT
10
152.6251
20
15.4651
0
VERTEX
8
CUT
10
152.6866
20
15.5251
0
VERTEX
8
CUT
10
152.7466
20
15.5866
0
VERTEX
8
CUT
10
152.8051
20
15.6495
0
VERTEX
8
CUT
10
152.8620
20
15.7139
0
VERTEX
8
CUT
10
152.9173
20
15.7796
0
VERTEX
8
CUT
10
152.9709
20
15.8467
0
VERTEX
8
CUT
10
153.0230
20
15.9151
0
VERTEX
8
CUT
10
153.0733
20
15.9847
0
VERTEX
8
CUT
10
153.1219
20
16.0555
0
VERTEX
8
CUT
10
153.1687
20
16.1275
0
VERTEX
8
CUT
10
153.2138
20
16.2006
0
VERTEX
8
CUT
10
153.2570
20
16.2749
0
VERTEX
8
CUT
10
153.2985
20
16.3501
0
VERTEX
8
CUT
10
153.3380
20
16.4264
0
VERTEX
8
CUT
10
153.3757
20
16.5036
0
VERTEX
8
CUT
10
153.4115
20
16.5817
0
VERTEX
8
CUT
10
153.4453
20
16.6606
0
VERTEX
8
CUT
10
153.4772
20
16.7404
0
VERTEX
8
CUT
10
153.5071
20
16.8209
0
VERTEX
8
CUT
10
153.5351
20
16.9021
0
VERTEX
8
CUT
10
153.5610
20
16.9840
0
VERTEX
8
CUT
10
153.5849
20
17.0665
0
VERTEX
8
CUT
10
153.6068
20
17.1496
0
VERTEX
8
CUT
10
153.6267
20
17.2331
0
VERTEX
8
CUT
10
153.6445
20
17.3172
0
VERTEX
8
CUT
10
153.6602
20
17.4016
0
VERTEX
8
CUT
10
153.6738
20
17.4864
0
VERTEX
8
CUT
10
153.6854
20
17.5716
0
VERTEX
8
CUT
10
153.6949
20
17.6569
0
VERTEX
8
CUT
10
153.7022
20
17.7425
0
VERTEX
8
CUT
10
153.7075
20
17.8283
0
VERTEX
8
CUT
10
153.7107
20
17.9141
0
VERTEX
8
CUT
10
153.7117
20
18.0000
0
VERTEX
8
CUT
10
153.7107
20
18.0859
0
VERTEX
8
CUT
10
153.7075
20
18.1717
0
VERTEX
8
CUT
10
153.7022
20
18.2575
0
VERTEX
8
CUT
10
153.6949
20
18.3431
0
VERTEX
8
CUT
10
153.6854
20
18.4284
0
VERTEX
8
CUT
10
153.6738
20
18.5136
0
VERTEX
8
CUT
10
153.6602
20
18.5984
0
VERTEX
8
CUT
10
153.6445
20
18.6828
0
VERTEX
8
CUT
10
153.6267
20
18.7669
0
VERTEX
8
CUT
10
153.6068
20
18.8504
0
VERTEX
8
CUT
10
153.5849
20
18.9335
0
VERTEX
8
CUT
10
153.5610
20
19.0160
0
VERTEX
8
CUT
10
153.5351
20
19.0979
0
VERTEX
8
CUT
10
153.5071
20
19.1791
0
VERTEX
8
CUT
10
153.4772
20
19.2596
0
VERTEX
8
CUT
10
153.4453
20
19.3394
0
VERTEX
8
CUT
10
153.4115
20
19.4183
0
VERTEX
8
CUT
10
153.3757
20
19.4964
0
VERTEX
8
CUT
10
153.3380
20
19.5736
0
VERTEX
8
CUT
10
153.2985
20
19.6499
0
VERTEX
8
CUT
10
153.2570
20
19.7251
0
VERTEX
8
CUT
10
153.2138
20
19.7994
0
VERTEX
8
CUT
10
153.1687
20
19.8725
0
VERTEX
8
CUT
10
153.1219
20
19.9445
0
VERTEX
8
CUT
10
153.0733
20
20.0153
0
VERTEX
8
CUT
10
153.0230
20
20.0849
0
VERTEX
8
CUT
10
152.9709
20
20.1533
0
VERTEX
8
CUT
10
152.9173
20
20.2204
0
VERTEX
8
CUT
10
152.8620
20
20.2861
0
VERTEX
8
CUT
10
152.8051
20
20.3505
0
VERTEX
8
CUT
10
152.7466
20
20.4134
0
VERTEX
8
CUT
10
152.6866
20
20.4749
0
VERTEX
8
CUT
10
152.6251
20
20.5349
0
VERTEX
8
CUT
10
152.5622
20
20.5933
0
VERTEX
8
CUT
10
152.4978
20
20.6502
0
VERTEX
8
CUT
10
152.4321
20
20.7055
0
VERTEX
8
CUT
10
152.3650
20
20.7592
0
VERTEX
8
CUT
10
152.2967
20
20.8112
0
VERTEX
8
CUT
10
152.2271
20
20.8615
0
VERTEX
8
CUT
10
152.1562
20
20.9101
0
VERTEX
8
CUT
10
152.0842
20
20.9570
0
VERTEX
8
CUT
10
152.0111
20
21.0021
0
VERTEX
8
CUT
10
151.9369
20
21.0453
0
VERTEX
8
CUT
10
151.8616
20
21.0867
0
VERTEX
8
CUT
10
151.7854
20
21.1263
0
VERTEX
8
CUT
10
151.7082
20
21.1640
0
VERTEX
8
CUT
10
151.6301
20
21.1997
0
VERTEX
8
CUT
10
151.5511
20
21.2336
0
VERTEX
8
CUT
10
151.4714
20
21.2655
0
VERTEX
8
CUT
10
151.3908
20
21.2954
0
VERTEX
8
CUT
10
151.3096
20
21.3233
0
VERTEX
8
CUT
10
151.2277
20
21.3493
0
VERTEX
8
CUT
10
151.1452
20
21.3732
0
VERTEX
8
CUT
10
151.0622
20
21.3951
0
VERTEX
8
CUT
10
150.9786
20
21.4150
0
VERTEX
8
CUT
10
150.8945
20
21.4327
0
VERTEX
8
CUT
10
150.8101
20
21.4485
0
VERTEX
8
CUT
10
150.7253
20
21.4621
0
VERTEX
8
CUT
10
150.6402
20
21.4737
0
VERTEX
8
CUT
10
150.5548
20
21.4831
0
VERTEX
8
CUT
10
150.4692
20
21.4905
0
VERTEX
8
CUT
10
150.3835
20
21.4958
0
VERTEX
8
CUT
10
150.2976
20
21.4989
0
VERTEX
8
CUT
10
150.2117
20
21.5000
0
VERTEX
8
CUT
10
150.1258
20
21.4989
0
VERTEX
8
CUT
10
150.0400
20
21.4958
0
VERTEX
8
CUT
10
149.9543
20
21.4905
0
VERTEX
8
CUT
10
149.8687
20
21.4831
0
VERTEX
8
CUT
10
149.7833
20
21.4737
0
VERTEX
8
CUT
10
149.6982
20
21.4621
0
VERTEX
8
CUT
10
149.6134
20
21.4485
0
VERTEX
8
CUT
10
149.5289
20
21.4327
0
VERTEX
8
CUT
10
149.4449
20
21.4150
0
VERTEX
8
CUT
10
149.3613
20
21.3951
0
VERTEX
8
CUT
10
149.2782
20
21.3732
0
VERTEX
8
CUT
10
149.1957
20
21.3493
0
VERTEX
8
CUT
10
149.1138
20
21.3233
0
VERTEX
8
CUT
10
149.0326
20
21.2954
0
VERTEX
8
CUT
10
148.9521
20
21.2655
0
VERTEX
8
CUT
10
148.8723
20
21.2336
0
VERTEX
8
CUT
10
148.7934
20
21.1997
0
VERTEX
8
CUT
10
148.7153
20
21.1640
0
VERTEX
8
CUT
10
148.6381
20
21.1263
0
VERTEX
8
CUT
10
148.5618
20
21.0867
0
VERTEX
8
CUT
10
148.4866
20
21.0453
0
VERTEX
8
CUT
10
148.4124
20
21.0021
0
VERTEX
8
CUT
10
148.3392
20
20.9570
0
VERTEX
8
CUT
10
148.2672
20
20.9101
0
VERTEX
8
CUT
10
148.1964
20
20.8615
0
VERTEX
8
CUT
10
148.1268
20
20.8112
0
VERTEX
8
CUT
10
148.0584
20
20.7592
0
VERTEX
8
CUT
10
147.9914
20
20.7055
0
VERTEX
8
CUT
10
147.9256
20
20.6502
0
VERTEX
8
CUT
10
147.8613
20
20.5933
0
VERTEX
8
CUT
10
147.7983
20
20.5349
0
VERTEX
8
CUT
10
147.7369
20
20.4749
0
VERTEX
8
CUT
10
147.6769
20
20.4134
0
VERTEX
8
CUT
10
147.6184
20
20.3505
0
VERTEX
8
CUT
10
147.5615
20
20.2861
0
VERTEX
8
CUT
10
147.5062
20
20.2204
0
VERTEX
8
CUT
10
147.4525
20
20.1533
0
VERTEX
8
CUT
10
147.4005
20
20.0849
0
VERTEX
8
CUT
10
147.3502
20
20.0153
0
VERTEX
8
CUT
10
147.3016
20
19.9445
0
VERTEX
8
CUT
10
147.2547
20
19.8725
0
VERTEX
8
CUT
10
147.2097
20
19.7994
0
VERTEX
8
CUT
10
147.1664
20
19.7251
0
VERTEX
8
CUT
10
147.1250
20
19.6499
0
VERTEX
8
CUT
10
147.0854
20
19.5736
0
VERTEX
8
CUT
10
147.0478
20
19.4964
0
VERTEX
8
CUT
10
147.0120
20
19.4183
0
VERTEX
8
CUT
10
146.9782
20
19.3394
0
VERTEX
8
CUT
10
146.9463
20
19.2596
0
VERTEX
8
CUT
10
146.9163
20
19.1791
0
VERTEX
8
CUT
10
146.8884
20
19.0979
0
VERTEX
8
CUT
10
146.8624
20
19.0160
0
VERTEX
8
CUT
10
146.8385
20
18.9335
0
VERTEX
8
CUT
10
146.8166
20
18.8504
0
VERTEX
8
CUT
10
146.7968
20
18.7669
0
VERTEX
8
CUT
10
146.7790
20
18.6828
0
VERTEX
8
CUT
10
146.7633
20
18.5984
0
VERTEX
8
CUT
10
146.7496
20
18.5136
0
VERTEX
8
CUT
10
146.7381
20
18.4284
0
VERTEX
8
CUT
10
146.7286
20
18.3431
0
VERTEX
8
CUT
10
146.7212
20
18.2575
0
VERTEX
8
CUT
10
146.7159
20
18.1717
0
VERTEX
8
CUT
10
146.7128
20
18.0859
0
VERTEX
8
CUT
10
146.7117
20
18.0000
0
VERTEX
8
CUT
10
146.7128
20
17.9141
0
VERTEX
8
CUT
10
146.7159
20
17.8283
0
VERTEX
8
CUT
10
146.7212
20
17.7425
0
VERTEX
8
CUT
10
146.7286
20
17.6569
0
VERTEX
8
CUT
10
146.7381
20
17.5716
0
VERTEX
8
CUT
10
146.7496
20
17.4864
0
VERTEX
8
CUT
10
146.7633
20
17.4016
0
VERTEX
8
CUT
10
146.7790
20
17.3172
0
VERTEX
8
CUT
10
146.7968
20
17.2331
0
VERTEX
8
CUT
10
146.8166
20
17.1496
0
VERTEX
8
CUT
10
146.8385
20
17.0665
0
VERTEX
8
CUT
10
146.8624
20
16.9840
0
VERTEX
8
CUT
10
146.8884
20
16.9021
0
VERTEX
8
CUT
10
146.9163
20
16.8209
0
VERTEX
8
CUT
10
146.9463
20
16.7404
0
VERTEX
8
CUT
10
146.9782
20
16.6606
0
VERTEX
8
CUT
10
147.0120
20
16.5817
0
VERTEX
8
CUT
10
147.0478
20
16.5036
0
VERTEX
8
CUT
10
147.0854
20
16.4264
0
VERTEX
8
CUT
10
147.1250
20
16.3501
0
VERTEX
8
CUT
10
147.1664
20
16.2749
0
VERTEX
8
CUT
10
147.2097
20
16.2006
0
VERTEX
8
CUT
10
147.2547
20
16.1275
0
VERTEX
8
CUT
10
147.3016
20
16.0555
0
VERTEX
8
CUT
10
147.3502
20
15.9847
0
VERTEX
8
CUT
10
147.4005
20
15.9151
0
VERTEX
8
CUT
10
147.4525
20
15.8467
0
VERTEX
8
CUT
10
147.5062
20
15.7796
0
VERTEX
8
CUT
10
147.5615
20
15.7139
0
VERTEX
8
CUT
10
147.6184
20
15.6495
0
VERTEX
8
CUT
10
147.6769
20
15.5866
0
VERTEX
8
CUT
10
147.7369
20
15.5251
0
VERTEX
8
CUT
10
147.7983
20
15.4651
0
VERTEX
8
CUT
10
147.8613
20
15.4067
0
VERTEX
8
CUT
10
147.9256
20
15.3498
0
VERTEX
8
CUT
10
147.9914
20
15.2945
0
VERTEX
8
CUT
10
148.0584
20
15.2408
0
VERTEX
8
CUT
10
148.1268
20
15.1888
0
VERTEX
8
CUT
10
148.1964
20
15.1385
0
VERTEX
8
CUT
10
148.2672
20
15.0899
0
VERTEX
8
CUT
10
148.3392
20
15.0430
0
VERTEX
8
CUT
10
148.4124
20
14.9979
0
VERTEX
8
CUT
10
148.4617
20
14.9692
0
VERTEX
8
CUT
10
148.4617
20
8.0000
0
VERTEX
8
CUT
10
148.4638
20
7.9141
0
VERTEX
8
CUT
10
148.4702
20
7.8285
0
VERTEX
8
CUT
10
148.4807
20
7.7432
0
VERTEX
8
CUT
10
148.4954
20
7.6586
0
VERTEX
8
CUT
10
148.5142
20
7.5748
0
VERTEX
8
CUT
10
148.5371
20
7.4920
0
VERTEX
8
CUT
10
148.5640
20
7.4104
0
VERTEX
8
CUT
10
148.5949
20
7.3303
0
VERTEX
8
CUT
10
148.6297
20
7.2518
0
VERTEX
8
CUT
10
148.6684
20
7.1751
0
VERTEX
8
CUT
10
148.7107
20
7.1003
0
VERTEX
8
CUT
10
148.7567
20
7.0278
0
VERTEX
8
CUT
10
148.8061
20
6.9575
0
VERTEX
8
CUT
10
148.8590
20
6.8898
0
VERTEX
8
CUT
10
148.9151
20
6.8248
0
VERTEX
8
CUT
10
148.9743
20
6.7626
0
VERTEX
8
CUT
10
149.0365
20
6.7033
0
VERTEX
8
CUT
10
149.1015
20
6.6472
0
VERTEX
8
CUT
10
149.1693
20
6.5944
0
VERTEX
8
CUT
10
149.2395
20
6.5449
0
VERTEX
8
CUT
10
149.3120
20
6.4990
0
VERTEX
8
CUT
10
149.3868
20
6.4566
0
VERTEX
8
CUT
10
149.4635
20
6.4180
0
VERTEX
8
CUT
10
149.5420
20
6.3832
0
VERTEX
8
CUT
10
149.6222
20
6.3523
0
VERTEX
8
CUT
10
149.7037
20
6.3254
0
VERTEX
8
CUT
10
149.7865
20
6.3024
0
VERTEX
8
CUT
10
149.8703
20
6.2836
0
VERTEX
8
CUT
10
149.9550
20
6.2689
0
VERTEX
8
CUT
10
150.0402
20
6.2584
0
VERTEX
8
CUT
10
150.1259
20
6.2521
0
VERTEX
8
CUT
10
150.2117
20
6.2500
0
VERTEX
8
CUT
10
150.2976
20
6.2521
0
VERTEX
8
CUT
10
150.3833
20
6.2584
0
VERTEX
8
CUT
10
150.4685
20
6.2689
0
VERTEX
8
CUT
10
150.5531
20
6.2836
0
VERTEX
8
CUT
10
150.6369
20
6.3024
0
VERTEX
8
CUT
10
150.7197
20
6.3254
0
VERTEX
8
CUT
10
150.8013
20
6.3523
0
VERTEX
8
CUT
10
150.8814
20
6.3832
0
VERTEX
8
CUT
10
150.9600
20
6.4180
0
VERTEX
8
CUT
10
151.0367
20
6.4566
0
VERTEX
8
CUT
10
151.1114
20
6.4990
0
VERTEX
8
CUT
10
151.1840
20
6.5449
0
VERTEX
8
CUT
10
151.2542
20
6.5944
0
VERTEX
8
CUT
10
151.3219
20
6.6472
0
VERTEX
8
CUT
10
151.3870
20
6.7033
0
VERTEX
8
CUT
10
151.4492
20
6.7626
0
VERTEX
8
CUT
10
151.5084
20
6.8248
0
VERTEX
8
CUT
10
151.5645
20
6.8898
0
VERTEX
8
CUT
10
151.6173
20
6.9575
0
VERTEX
8
CUT
10
151.6668
20
7.0278
0
VERTEX
8
CUT
10
151.7128
20
7.1003
0
VERTEX
8
CUT
10
151.7551
20
7.1751
0
VERTEX
8
CUT
10
151.7937
20
7.2518
0
VERTEX
8
CUT
10
151.8285
20
7.3303
0
VERTEX
8
CUT
10
151.8594
20
7.4104
0
VERTEX
8
CUT
10
151.8864
20
7.4920
0
VERTEX
8
CUT
10
151.9093
20
7.5748
0
VERTEX
8
CUT
10
151.9281
20
7.6586
0
VERTEX
8
CUT
10
151.9428
20
7.7432
0
VERTEX
8
CUT
10
151.9533
20
7.8285
0
VERTEX
8
CUT
10
151.9596
20
7.9141
0
SEQEND
0
ENDSEC
0
EOF
