0
SECTION
2
HEADER
9
$ACADVER
1
AC1009
9
$INSUNITS
70
4
0
ENDSEC
0
SECTION
2
TABLES
0
TABLE
2
LAYER
70
1
0
LAYER
2
CUT
70
0
62
7
6
CONTINUOUS
0
ENDTAB
0
ENDSEC
0
SECTION
2
ENTITIES
0
POLYLINE
8
CUT
66
1
70
1
10
0.0
20
0.0
30
0.0
0
VERTEX
8
CUT
10
72.5608
20
66.8525
0
VERTEX
8
CUT
10
72.6677
20
66.7671
0
VERTEX
8
CUT
10
72.7685
20
66.5522
0
VERTEX
8
CUT
10
73.5120
20
65.7130
0
VERTEX
8
CUT
10
77.9109
20
62.7722
0
VERTEX
8
CUT
10
79.3840
20
61.7422
0
VERTEX
8
CUT
10
87.2064
20
56.5172
0
VERTEX
8
CUT
10
88.1556
20
55.9231
0
VERTEX
8
CUT
10
92.6469
20
52.9204
0
VERTEX
8
CUT
10
94.1001
20
52.1011
0
VERTEX
8
CUT
10
94.6697
20
52.0072
0
VERTEX
8
CUT
10
94.7764
20
51.9544
0
VERTEX
8
CUT
10
95.0419
20
51.9458
0
VERTEX
8
CUT
10
95.5443
20
51.8630
0
VERTEX
8
CUT
10
96.5918
20
52.0665
0
VERTEX
8
CUT
10
99.3570
20
53.0530
0
VERTEX
8
CUT
10
100.6014
20
53.4356
0
VERTEX
8
CUT
10
101.8294
20
53.5049
0
VERTEX
8
CUT
10
102.8595
20
53.5221
0
VERTEX
8
CUT
10
103.4992
20
53.3621
0
VERTEX
8
CUT
10
103.5261
20
53.3527
0
VERTEX
8
CUT
10
103.5541
20
53.3428
0
VERTEX
8
CUT
10
103.7297
20
53.2812
0
VERTEX
8
CUT
10
104.4207
20
53.0385
0
VERTEX
8
CUT
10
105.6489
20
52.2860
0
VERTEX
8
CUT
10
106.0410
20
51.9502
0
VERTEX
8
CUT
10
106.3152
20
51.7152
0
VERTEX
8
CUT
10
106.3800
20
51.6597
0
VERTEX
8
CUT
10
106.4124
20
51.6319
0
VERTEX
8
CUT
10
106.7500
20
51.2782
0
VERTEX
8
CUT
10
107.8529
20
49.4945
0
VERTEX
8
CUT
10
108.2170
20
47.8449
0
VERTEX
8
CUT
10
108.2263
20
46.8772
0
VERTEX
8
CUT
10
108.2265
20
46.8636
0
VERTEX
8
CUT
10
108.2276
20
46.7513
0
VERTEX
8
CUT
10
108.2285
20
46.6482
0
VERTEX
8
CUT
10
108.2297
20
46.5329
0
VERTEX
8
CUT
10
108.2247
20
46.4532
0
VERTEX
8
CUT
10
107.7493
20
44.9204
0
VERTEX
8
CUT
10
106.9603
20
43.6390
0
VERTEX
8
CUT
10
105.7425
20
42.4899
0
VERTEX
8
CUT
10
102.8457
20
40.7093
0
VERTEX
8
CUT
10
102.7549
20
36.1899
0
VERTEX
8
CUT
10
102.4663
20
35.1097
0
VERTEX
8
CUT
10
101.9071
20
34.0160
0
VERTEX
8
CUT
10
101.5131
20
33.4188
0
VERTEX
8
CUT
10
100.4838
20
32.3589
0
VERTEX
8
CUT
10
100.2302
20
32.1267
0
VERTEX
8
CUT
10
100.1983
20
32.1053
0
VERTEX
8
CUT
10
100.1807
20
32.0936
0
VERTEX
8
CUT
10
100.1679
20
32.0850
0
VERTEX
8
CUT
10
100.0719
20
32.0206
0
VERTEX
8
CUT
10
99.2983
20
31.6014
0
VERTEX
8
CUT
10
97.6485
20
31.2282
0
VERTEX
8
CUT
10
97.2090
20
31.1984
0
VERTEX
8
CUT
10
96.1186
20
31.2655
0
VERTEX
8
CUT
10
95.9595
20
31.2822
0
VERTEX
8
CUT
10
95.7002
20
31.3093
0
VERTEX
8
CUT
10
95.4303
20
31.3375
0
VERTEX
8
CUT
10
95.2859
20
31.3526
0
VERTEX
8
CUT
10
93.4621
20
32.2105
0
VERTEX
8
CUT
10
93.4073
20
32.2651
0
VERTEX
8
CUT
10
93.3394
20
32.3328
0
VERTEX
8
CUT
10
93.0592
20
32.6120
0
VERTEX
8
CUT
10
91.8101
20
33.8569
0
VERTEX
8
CUT
10
90.9499
20
35.4926
0
VERTEX
8
CUT
10
90.6681
20
36.8379
0
VERTEX
8
CUT
10
90.4486
20
39.4119
0
VERTEX
8
CUT
10
90.4349
20
39.5725
0
VERTEX
8
CUT
10
90.4159
20
39.7954
0
VERTEX
8
CUT
10
90.3794
20
40.2244
0
VERTEX
8
CUT
10
90.3574
20
40.7339
0
VERTEX
8
CUT
10
90.3261
20
40.8496
0
VERTEX
8
CUT
10
90.3159
20
40.9684
0
VERTEX
8
CUT
10
90.2729
20
41.0455
0
VERTEX
8
CUT
10
90.1882
20
41.3577
0
VERTEX
8
CUT
10
89.7789
20
41.9312
0
VERTEX
8
CUT
10
89.6814
20
42.1060
0
VERTEX
8
CUT
10
89.6240
20
42.1482
0
VERTEX
8
CUT
10
89.5767
20
42.2144
0
VERTEX
8
CUT
10
85.7902
20
45.0414
0
VERTEX
8
CUT
10
78.3900
20
50.1159
0
VERTEX
8
CUT
10
74.2541
20
52.7803
0
VERTEX
8
CUT
10
73.5146
20
53.2753
0
VERTEX
8
CUT
10
73.1020
20
53.5604
0
VERTEX
8
CUT
10
72.7558
20
53.7833
0
VERTEX
8
CUT
10
69.7514
20
55.7945
0
VERTEX
8
CUT
10
68.9393
20
56.2397
0
VERTEX
8
CUT
10
68.6795
20
56.4069
0
VERTEX
8
CUT
10
68.5146
20
56.4778
0
VERTEX
8
CUT
10
67.2259
20
57.3081
0
VERTEX
8
CUT
10
65.8780
20
57.1994
0
VERTEX
8
CUT
10
62.6973
20
56.0113
0
VERTEX
8
CUT
10
60.0201
20
55.6760
0
VERTEX
8
CUT
10
58.5611
20
55.9060
0
VERTEX
8
CUT
10
58.4960
20
55.9277
0
VERTEX
8
CUT
10
58.4601
20
55.9397
0
VERTEX
8
CUT
10
58.3413
20
55.9794
0
VERTEX
8
CUT
10
58.2414
20
56.0127
0
VERTEX
8
CUT
10
56.4435
20
57.0956
0
VERTEX
8
CUT
10
56.0559
20
57.4622
0
VERTEX
8
CUT
10
55.5793
20
58.0315
0
VERTEX
8
CUT
10
55.5733
20
58.0410
0
VERTEX
8
CUT
10
55.5593
20
58.0632
0
VERTEX
8
CUT
10
55.4507
20
58.2353
0
VERTEX
8
CUT
10
55.0047
20
58.9423
0
VERTEX
8
CUT
10
54.5334
20
60.0355
0
VERTEX
8
CUT
10
54.3459
20
61.7763
0
VERTEX
8
CUT
10
54.5809
20
63.4337
0
VERTEX
8
CUT
10
54.5843
20
63.4495
0
VERTEX
8
CUT
10
54.5879
20
63.4660
0
VERTEX
8
CUT
10
54.5918
20
63.4841
0
VERTEX
8
CUT
10
54.6292
20
63.6564
0
VERTEX
8
CUT
10
54.7110
20
63.8702
0
VERTEX
8
CUT
10
55.4003
20
65.0321
0
VERTEX
8
CUT
10
56.2096
20
65.9427
0
VERTEX
8
CUT
10
57.3628
20
66.7902
0
VERTEX
8
CUT
10
58.3884
20
67.3474
0
VERTEX
8
CUT
10
59.1180
20
67.6418
0
VERTEX
8
CUT
10
59.4577
20
67.9284
0
VERTEX
8
CUT
10
59.9539
20
68.1981
0
VERTEX
8
CUT
10
60.0932
20
72.2456
0
VERTEX
8
CUT
10
60.9412
20
74.2122
0
VERTEX
8
CUT
10
62.2686
20
75.5942
0
VERTEX
8
CUT
10
63.9234
20
76.4974
0
VERTEX
8
CUT
10
65.8170
20
76.7800
0
VERTEX
8
CUT
10
67.7222
20
76.4650
0
VERTEX
8
CUT
10
69.4654
20
75.4075
0
VERTEX
8
CUT
10
69.4881
20
75.3894
0
VERTEX
8
CUT
10
70.9267
20
73.6010
0
VERTEX
8
CUT
10
71.7517
20
71.4607
0
VERTEX
8
CUT
10
72.0226
20
69.6116
0
VERTEX
8
CUT
10
72.2170
20
67.8385
0
VERTEX
8
CUT
10
72.3298
20
67.5149
0
VERTEX
8
CUT
10
72.3358
20
67.4739
0
VERTEX
8
CUT
10
72.3681
20
67.4053
0
SEQEND
0
POLYLINE
8
CUT
66
1
70
1
10
0.0
20
0.0
30
0.0
0
VERTEX
8
CUT
10
189.2729
20
70.2474
0
VERTEX
8
CUT
10
190.8660
20
72.0349
0
VERTEX
8
CUT
10
190.9287
20
72.0772
0
VERTEX
8
CUT
10
191.4563
20
72.3670
0
VERTEX
8
CUT
10
191.7615
20
72.5347
0
VERTEX
8
CUT
10
191.8370
20
72.5762
0
VERTEX
8
CUT
10
192.3654
20
72.8665
0
VERTEX
8
CUT
10
192.5295
20
72.9248
0
VERTEX
8
CUT
10
194.3726
20
73.2123
0
VERTEX
8
CUT
10
199.8833
20
73.0490
0
VERTEX
8
CUT
10
210.5123
20
83.9443
0
VERTEX
8
CUT
10
215.5952
20
89.4322
0
VERTEX
8
CUT
10
215.5987
20
89.4508
0
VERTEX
8
CUT
10
215.8949
20
89.7558
0
VERTEX
8
CUT
10
215.8292
20
90.4105
0
VERTEX
8
CUT
10
215.8544
20
90.8428
0
VERTEX
8
CUT
10
215.8669
20
90.9108
0
VERTEX
8
CUT
10
215.8614
20
90.9614
0
VERTEX
8
CUT
10
215.8656
20
91.0340
0
VERTEX
8
CUT
10
215.8234
20
91.3045
0
VERTEX
8
CUT
10
215.4738
20
94.4664
0
VERTEX
8
CUT
10
215.4740
20
96.4184
0
VERTEX
8
CUT
10
215.6351
20
97.0841
0
VERTEX
8
CUT
10
215.8651
20
97.7252
0
VERTEX
8
CUT
10
217.0661
20
99.6903
0
VERTEX
8
CUT
10
218.2329
20
100.6859
0
VERTEX
8
CUT
10
220.3297
20
101.3636
0
VERTEX
8
CUT
10
222.3057
20
101.3652
0
VERTEX
8
CUT
10
224.1603
20
100.7974
0
VERTEX
8
CUT
10
225.3251
20
99.8403
0
VERTEX
8
CUT
10
225.7562
20
99.3768
0
VERTEX
8
CUT
10
226.1643
20
98.7741
0
VERTEX
8
CUT
10
227.2635
20
96.0052
0
VERTEX
8
CUT
10
227.8056
20
95.0811
0
VERTEX
8
CUT
10
228.3827
20
94.8333
0
VERTEX
8
CUT
10
230.2227
20
94.7079
0
VERTEX
8
CUT
10
231.7643
20
94.3039
0
VERTEX
8
CUT
10
233.1302
20
93.4440
0
VERTEX
8
CUT
10
234.1968
20
92.3167
0
VERTEX
8
CUT
10
234.4719
20
91.7729
0
VERTEX
8
CUT
10
234.8563
20
90.9539
0
VERTEX
8
CUT
10
235.0672
20
89.7307
0
VERTEX
8
CUT
10
235.0319
20
88.2579
0
VERTEX
8
CUT
10
234.4791
20
86.3549
0
VERTEX
8
CUT
10
234.1380
20
85.7805
0
VERTEX
8
CUT
10
233.4813
20
84.9872
0
VERTEX
8
CUT
10
232.9755
20
84.4687
0
VERTEX
8
CUT
10
231.3331
20
83.5875
0
VERTEX
8
CUT
10
231.0328
20
83.4519
0
VERTEX
8
CUT
10
228.8375
20
83.1972
0
VERTEX
8
CUT
10
225.8992
20
83.3155
0
VERTEX
8
CUT
10
225.4846
20
83.2403
0
VERTEX
8
CUT
10
225.1754
20
83.2644
0
VERTEX
8
CUT
10
224.8495
20
83.1498
0
VERTEX
8
CUT
10
224.6162
20
83.1602
0
VERTEX
8
CUT
10
224.5187
20
83.0648
0
VERTEX
8
CUT
10
224.4444
20
83.0514
0
VERTEX
8
CUT
10
221.3331
20
80.1692
0
VERTEX
8
CUT
10
212.5692
20
71.1634
0
VERTEX
8
CUT
10
209.9520
20
68.2363
0
VERTEX
8
CUT
10
207.6090
20
65.8057
0
VERTEX
8
CUT
10
207.6250
20
65.6339
0
VERTEX
8
CUT
10
207.4749
20
65.4661
0
VERTEX
8
CUT
10
207.4733
20
65.4319
0
VERTEX
8
CUT
10
207.4579
20
65.4148
0
VERTEX
8
CUT
10
207.4221
20
64.5544
0
VERTEX
8
CUT
10
207.4305
20
64.5197
0
VERTEX
8
CUT
10
207.4275
20
64.4551
0
VERTEX
8
CUT
10
208.0430
20
61.1471
0
VERTEX
8
CUT
10
208.0844
20
60.7028
0
VERTEX
8
CUT
10
208.0906
20
60.5939
0
VERTEX
8
CUT
10
208.0902
20
60.5741
0
VERTEX
8
CUT
10
208.0894
20
60.5388
0
VERTEX
8
CUT
10
208.0883
20
60.4914
0
VERTEX
8
CUT
10
208.0804
20
60.1417
0
VERTEX
8
CUT
10
207.9725
20
59.4855
0
VERTEX
8
CUT
10
207.9208
20
59.2808
0
VERTEX
8
CUT
10
207.8941
20
59.1753
0
VERTEX
8
CUT
10
207.8676
20
59.0702
0
VERTEX
8
CUT
10
207.7957
20
58.7855
0
VERTEX
8
CUT
10
207.4712
20
57.9232
0
VERTEX
8
CUT
10
206.5685
20
56.4915
0
VERTEX
8
CUT
10
206.4401
20
56.3701
0
VERTEX
8
CUT
10
206.4236
20
56.3545
0
VERTEX
8
CUT
10
206.0823
20
56.0315
0
VERTEX
8
CUT
10
205.5821
20
55.5581
0
VERTEX
8
CUT
10
205.4358
20
55.4258
0
VERTEX
8
CUT
10
205.1555
20
55.2723
0
VERTEX
8
CUT
10
204.9492
20
55.1593
0
VERTEX
8
CUT
10
204.8647
20
55.1130
0
VERTEX
8
CUT
10
204.1092
20
54.6991
0
VERTEX
8
CUT
10
202.2697
20
54.4661
0
VERTEX
8
CUT
10
200.2208
20
54.6287
0
VERTEX
8
CUT
10
199.1613
20
55.1771
0
VERTEX
8
CUT
10
199.0699
20
55.2517
0
VERTEX
8
CUT
10
199.0087
20
55.3017
0
VERTEX
8
CUT
10
198.9303
20
55.3657
0
VERTEX
8
CUT
10
198.1012
20
56.0428
0
VERTEX
8
CUT
10
197.0439
20
57.3428
0
VERTEX
8
CUT
10
195.9445
20
60.3124
0
VERTEX
8
CUT
10
195.6350
20
60.7279
0
VERTEX
8
CUT
10
195.0269
20
61.0346
0
VERTEX
8
CUT
10
193.6311
20
61.3647
0
VERTEX
8
CUT
10
192.0692
20
61.8512
0
VERTEX
8
CUT
10
191.9855
20
61.8773
0
VERTEX
8
CUT
10
191.9820
20
61.8783
0
VERTEX
8
CUT
10
191.9773
20
61.8798
0
VERTEX
8
CUT
10
191.0730
20
62.3680
0
VERTEX
8
CUT
10
191.0439
20
62.3852
0
VERTEX
8
CUT
10
189.9845
20
63.3539
0
VERTEX
8
CUT
10
189.1530
20
64.6276
0
VERTEX
8
CUT
10
188.5588
20
66.4550
0
VERTEX
8
CUT
10
188.5002
20
68.1307
0
VERTEX
8
CUT
10
188.5245
20
68.2077
0
VERTEX
8
CUT
10
188.8364
20
69.0809
0
VERTEX
8
CUT
10
188.9416
20
69.3757
0
VERTEX
8
CUT
10
188.9720
20
69.4607
0
VERTEX
8
CUT
10
189.2117
20
70.1317
0
SEQEND
0
POLYLINE
8
CUT
66
1
70
1
10
0.0
20
0.0
30
0.0
0
VERTEX
8
CUT
10
246.0194
20
95.4333
0
VERTEX
8
CUT
10
245.5202
20
94.5538
0
VERTEX
8
CUT
10
245.0807
20
92.1184
0
VERTEX
8
CUT
10
245.3601
20
89.9153
0
VERTEX
8
CUT
10
246.0800
20
87.9681
0
VERTEX
8
CUT
10
247.1782
20
86.3249
0
VERTEX
8
CUT
10
248.6250
20
84.9380
0
VERTEX
8
CUT
10
250.3679
20
83.9326
0
VERTEX
8
CUT
10
252.2747
20
83.2949
0
VERTEX
8
CUT
10
254.4471
20
83.1054
0
VERTEX
8
CUT
10
256.6700
20
83.4354
0
VERTEX
8
CUT
10
258.9148
20
84.2075
0
VERTEX
8
CUT
10
260.9993
20
85.4116
0
VERTEX
8
CUT
10
263.4922
20
87.3247
0
VERTEX
8
CUT
10
264.5634
20
87.7818
0
VERTEX
8
CUT
10
265.4118
20
87.8147
0
VERTEX
8
CUT
10
265.7969
20
87.6005
0
VERTEX
8
CUT
10
266.0325
20
87.2487
0
VERTEX
8
CUT
10
266.1256
20
86.1970
0
VERTEX
8
CUT
10
265.4663
20
83.9424
0
VERTEX
8
CUT
10
262.7279
20
79.3090
0
VERTEX
8
CUT
10
262.0844
20
77.0879
0
VERTEX
8
CUT
10
261.2292
20
75.4689
0
VERTEX
8
CUT
10
259.7207
20
73.8325
0
VERTEX
8
CUT
10
258.4291
20
73.4551
0
VERTEX
8
CUT
10
258.4365
20
72.1917
0
VERTEX
8
CUT
10
257.7667
20
70.7888
0
VERTEX
8
CUT
10
255.7642
20
68.2694
0
VERTEX
8
CUT
10
253.9683
20
65.4450
0
VERTEX
8
CUT
10
253.0403
20
64.4901
0
VERTEX
8
CUT
10
252.0664
20
64.0528
0
VERTEX
8
CUT
10
251.2648
20
64.3438
0
VERTEX
8
CUT
10
250.7627
20
64.9469
0
VERTEX
8
CUT
10
250.7319
20
65.2717
0
VERTEX
8
CUT
10
253.5615
20
69.4407
0
VERTEX
8
CUT
10
255.9965
20
72.6041
0
VERTEX
8
CUT
10
257.0351
20
73.4679
0
VERTEX
8
CUT
10
258.0321
20
73.5110
0
VERTEX
8
CUT
10
258.2813
20
73.6800
0
VERTEX
8
CUT
10
258.3258
20
74.0135
0
VERTEX
8
CUT
10
257.7823
20
75.2322
0
VERTEX
8
CUT
10
258.4127
20
76.6184
0
VERTEX
8
CUT
10
258.3921
20
76.9158
0
VERTEX
8
CUT
10
258.0167
20
77.1313
0
VERTEX
8
CUT
10
253.9289
20
76.3319
0
VERTEX
8
CUT
10
251.3999
20
76.3051
0
VERTEX
8
CUT
10
251.3662
20
76.3065
0
VERTEX
8
CUT
10
251.3282
20
76.3081
0
VERTEX
8
CUT
10
251.2990
20
76.3093
0
VERTEX
8
CUT
10
251.2970
20
76.3093
0
VERTEX
8
CUT
10
248.8685
20
76.7003
0
VERTEX
8
CUT
10
247.2787
20
77.2505
0
VERTEX
8
CUT
10
244.3529
20
78.7470
0
VERTEX
8
CUT
10
242.4825
20
80.2922
0
VERTEX
8
CUT
10
240.8419
20
82.2046
0
VERTEX
8
CUT
10
239.4172
20
84.5226
0
VERTEX
8
CUT
10
238.3079
20
87.4314
0
VERTEX
8
CUT
10
237.7934
20
90.4048
0
VERTEX
8
CUT
10
237.8191
20
92.9781
0
VERTEX
8
CUT
10
237.8310
20
93.1305
0
VERTEX
8
CUT
10
237.8363
20
93.1994
0
VERTEX
8
CUT
10
237.8456
20
93.3178
0
VERTEX
8
CUT
10
237.8602
20
93.5059
0
VERTEX
8
CUT
10
238.4064
20
96.2278
0
VERTEX
8
CUT
10
239.4671
20
98.8679
0
VERTEX
8
CUT
10
241.0463
20
101.2605
0
VERTEX
8
CUT
10
243.0745
20
103.2577
0
VERTEX
8
CUT
10
245.4731
20
104.7476
0
VERTEX
8
CUT
10
248.3587
20
105.7468
0
VERTEX
8
CUT
10
251.1548
20
106.0847
0
VERTEX
8
CUT
10
253.8088
20
105.8276
0
VERTEX
8
CUT
10
256.0804
20
105.0219
0
VERTEX
8
CUT
10
256.1031
20
105.0117
0
VERTEX
8
CUT
10
256.1600
20
104.9862
0
VERTEX
8
CUT
10
256.1939
20
104.9710
0
VERTEX
8
CUT
10
256.2223
20
104.9583
0
VERTEX
8
CUT
10
258.1676
20
103.6375
0
VERTEX
8
CUT
10
259.6229
20
101.9774
0
VERTEX
8
CUT
10
259.8105
20
101.6923
0
VERTEX
8
CUT
10
260.6045
20
99.9010
0
VERTEX
8
CUT
10
260.7956
20
99.1886
0
VERTEX
8
CUT
10
261.0774
20
97.2124
0
VERTEX
8
CUT
10
261.0867
20
96.9117
0
VERTEX
8
CUT
10
261.0877
20
96.8783
0
VERTEX
8
CUT
10
261.0877
20
96.8783
0
VERTEX
8
CUT
10
261.0892
20
96.8316
0
VERTEX
8
CUT
10
261.0115
20
95.8908
0
VERTEX
8
CUT
10
260.7189
20
94.7699
0
VERTEX
8
CUT
10
259.6864
20
92.8873
0
VERTEX
8
CUT
10
258.1661
20
91.4173
0
VERTEX
8
CUT
10
256.2210
20
90.5876
0
VERTEX
8
CUT
10
255.2405
20
90.5161
0
VERTEX
8
CUT
10
253.4630
20
90.8949
0
VERTEX
8
CUT
10
252.0483
20
91.8498
0
VERTEX
8
CUT
10
252.0373
20
91.8604
0
VERTEX
8
CUT
10
252.0231
20
91.8743
0
VERTEX
8
CUT
10
252.0214
20
91.8759
0
VERTEX
8
CUT
10
251.9871
20
91.9092
0
VERTEX
8
CUT
10
251.3614
20
92.9497
0
VERTEX
8
CUT
10
251.3608
20
92.9511
0
VERTEX
8
CUT
10
251.3569
20
92.9600
0
VERTEX
8
CUT
10
251.3321
20
93.0175
0
VERTEX
8
CUT
10
251.1276
20
93.4912
0
VERTEX
8
CUT
10
251.0988
20
93.8578
0
VERTEX
8
CUT
10
251.0989
20
94.7367
0
VERTEX
8
CUT
10
251.3334
20
95.4152
0
VERTEX
8
CUT
10
251.8236
20
96.1018
0
VERTEX
8
CUT
10
252.7560
20
96.6141
0
VERTEX
8
CUT
10
253.2233
20
96.7415
0
VERTEX
8
CUT
10
253.3778
20
96.9557
0
VERTEX
8
CUT
10
253.5433
20
97.0466
0
VERTEX
8
CUT
10
253.5783
20
97.4144
0
VERTEX
8
CUT
10
253.1273
20
97.8100
0
VERTEX
8
CUT
10
253.0871
20
97.8692
0
VERTEX
8
CUT
10
252.9852
20
97.9347
0
VERTEX
8
CUT
10
252.0966
20
98.7144
0
VERTEX
8
CUT
10
251.0004
20
98.8600
0
VERTEX
8
CUT
10
250.5940
20
98.7898
0
VERTEX
8
CUT
10
250.5393
20
98.7968
0
VERTEX
8
CUT
10
250.4068
20
98.7575
0
VERTEX
8
CUT
10
249.4704
20
98.5957
0
VERTEX
8
CUT
10
248.4201
20
98.1102
0
VERTEX
8
CUT
10
247.5313
20
97.3543
0
VERTEX
8
CUT
10
247.5285
20
97.3525
0
VERTEX
8
CUT
10
247.5270
20
97.3507
0
VERTEX
8
CUT
10
246.7166
20
96.6616
0
VERTEX
8
CUT
10
246.2370
20
95.8166
0
VERTEX
8
CUT
10
246.0987
20
95.6521
0
SEQEND
0
POLYLINE
8
CUT
66
1
70
1
10
0.0
20
0.0
30
0.0
0
VERTEX
8
CUT
10
232.7810
20
156.7655
0
VERTEX
8
CUT
10
233.8166
20
157.3797
0
VERTEX
8
CUT
10
234.0377
20
157.4792
0
VERTEX
8
CUT
10
235.9405
20
157.9474
0
VERTEX
8
CUT
10
238.0392
20
157.8487
0
VERTEX
8
CUT
10
239.2010
20
157.5105
0
VERTEX
8
CUT
10
240.2382
20
156.9449
0
VERTEX
8
CUT
10
240.7654
20
156.4928
0
VERTEX
8
CUT
10
240.9586
20
156.2776
0
VERTEX
8
CUT
10
241.2439
20
155.9599
0
VERTEX
8
CUT
10
241.4043
20
155.7813
0
VERTEX
8
CUT
10
241.4699
20
155.7083
0
VERTEX
8
CUT
10
241.5463
20
155.6035
0
VERTEX
8
CUT
10
242.2283
20
154.3642
0
VERTEX
8
CUT
10
242.3430
20
154.1206
0
VERTEX
8
CUT
10
242.6578
20
152.8216
0
VERTEX
8
CUT
10
242.7789
20
150.8256
0
VERTEX
8
CUT
10
242.5588
20
149.3989
0
VERTEX
8
CUT
10
242.3960
20
148.9815
0
VERTEX
8
CUT
10
241.8763
20
147.6490
0
VERTEX
8
CUT
10
241.8177
20
147.4986
0
VERTEX
8
CUT
10
241.7217
20
147.2526
0
VERTEX
8
CUT
10
240.2229
20
143.5967
0
VERTEX
8
CUT
10
239.0816
20
139.0536
0
VERTEX
8
CUT
10
238.9590
20
138.7282
0
VERTEX
8
CUT
10
238.5342
20
137.7553
0
VERTEX
8
CUT
10
238.1514
20
137.0958
0
VERTEX
8
CUT
10
238.0629
20
136.9435
0
VERTEX
8
CUT
10
237.9296
20
136.7137
0
VERTEX
8
CUT
10
237.8294
20
136.5411
0
VERTEX
8
CUT
10
237.1796
20
135.7575
0
VERTEX
8
CUT
10
237.1763
20
135.7544
0
VERTEX
8
CUT
10
237.1674
20
135.7460
0
VERTEX
8
CUT
10
237.1387
20
135.7190
0
VERTEX
8
CUT
10
236.8854
20
135.4805
0
VERTEX
8
CUT
10
235.4538
20
134.5788
0
VERTEX
8
CUT
10
234.1551
20
134.1360
0
VERTEX
8
CUT
10
234.1541
20
134.1358
0
VERTEX
8
CUT
10
234.1499
20
134.1349
0
VERTEX
8
CUT
10
234.1469
20
134.1343
0
VERTEX
8
CUT
10
234.0865
20
134.1222
0
VERTEX
8
CUT
10
232.7971
20
134.0819
0
VERTEX
8
CUT
10
232.5681
20
134.1074
0
VERTEX
8
CUT
10
232.4410
20
134.1216
0
VERTEX
8
CUT
10
232.3416
20
134.1328
0
VERTEX
8
CUT
10
231.7966
20
134.1937
0
VERTEX
8
CUT
10
229.7468
20
134.8863
0
VERTEX
8
CUT
10
224.6857
20
138.5523
0
VERTEX
8
CUT
10
220.2429
20
141.1027
0
VERTEX
8
CUT
10
218.6089
20
142.3916
0
VERTEX
8
CUT
10
217.4617
20
143.7197
0
VERTEX
8
CUT
10
216.8586
20
144.9468
0
VERTEX
8
CUT
10
216.7723
20
145.1346
0
VERTEX
8
CUT
10
216.7388
20
145.2075
0
VERTEX
8
CUT
10
216.7321
20
145.2221
0
VERTEX
8
CUT
10
216.7100
20
145.2703
0
VERTEX
8
CUT
10
216.5241
20
146.0441
0
VERTEX
8
CUT
10
216.2906
20
147.3945
0
VERTEX
8
CUT
10
216.4875
20
148.9119
0
VERTEX
8
CUT
10
217.5005
20
150.9328
0
VERTEX
8
CUT
10
218.8494
20
152.1673
0
VERTEX
8
CUT
10
219.0383
20
152.2927
0
VERTEX
8
CUT
10
219.9113
20
152.6950
0
VERTEX
8
CUT
10
222.2475
20
153.2328
0
VERTEX
8
CUT
10
227.7105
20
153.3003
0
VERTEX
8
CUT
10
229.6056
20
154.1807
0
VERTEX
8
CUT
10
231.9904
20
156.1529
0
VERTEX
8
CUT
10
232.4693
20
156.5240
0
VERTEX
8
CUT
10
232.5438
20
156.5817
0
VERTEX
8
CUT
10
232.6886
20
156.6939
0
SEQEND
0
POLYLINE
8
CUT
66
1
70
1
10
0.0
20
0.0
30
0.0
0
VERTEX
8
CUT
10
298.4994
20
0.0504
0
VERTEX
8
CUT
10
276.3050
20
0.0466
0
VERTEX
8
CUT
10
274.5827
20
0.0463
0
VERTEX
8
CUT
10
265.4898
20
0.0448
0
VERTEX
8
CUT
10
242.5309
20
0.0409
0
VERTEX
8
CUT
10
1.4709
20
0.2171
0
VERTEX
8
CUT
10
0.8249
20
0.8249
0
VERTEX
8
CUT
10
0.7226
20
0.9336
0
VERTEX
8
CUT
10
0.4593
20
1.3736
0
VERTEX
8
CUT
10
0.3049
20
2.6868
0
VERTEX
8
CUT
10
0.2117
20
6.7409
0
VERTEX
8
CUT
10
0.0590
20
54.0580
0
VERTEX
8
CUT
10
0.0502
20
90.5583
0
VERTEX
8
CUT
10
0.0489
20
95.7279
0
VERTEX
8
CUT
10
0.0463
20
106.8039
0
VERTEX
8
CUT
10
0.0457
20
109.0444
0
VERTEX
8
CUT
10
0.1210
20
285.6330
0
VERTEX
8
CUT
10
0.3023
20
297.6652
0
VERTEX
8
CUT
10
0.4569
20
298.9801
0
VERTEX
8
CUT
10
1.7831
20
300.2391
0
VERTEX
8
CUT
10
48.2033
20
300.3595
0
VERTEX
8
CUT
10
252.2160
20
300.3595
0
VERTEX
8
CUT
10
298.7183
20
300.2389
0
VERTEX
8
CUT
10
299.9663
20
298.9243
0
VERTEX
8
CUT
10
300.1151
20
297.7030
0
VERTEX
8
CUT
10
300.2990
20
285.6330
0
VERTEX
8
CUT
10
300.3714
20
87.3738
0
VERTEX
8
CUT
10
300.3517
20
1.8088
0
SEQEND
0
POLYLINE
8
CUT
66
1
70
1
10
0.0
20
0.0
30
0.0
0
VERTEX
8
CUT
10
289.6943
20
271.7933
0
VERTEX
8
CUT
10
290.0566
20
271.8034
0
VERTEX
8
CUT
10
290.2031
20
272.1616
0
VERTEX
8
CUT
10
290.2356
20
273.6397
0
VERTEX
8
CUT
10
290.2923
20
274.2173
0
VERTEX
8
CUT
10
290.2985
20
276.5002
0
VERTEX
8
CUT
10
290.3226
20
277.5937
0
VERTEX
8
CUT
10
290.3100
20
280.7354
0
VERTEX
8
CUT
10
290.3225
20
285.3326
0
VERTEX
8
CUT
10
290.1720
20
288.8655
0
VERTEX
8
CUT
10
289.7780
20
289.7780
0
VERTEX
8
CUT
10
288.8938
20
290.1720
0
VERTEX
8
CUT
10
287.0403
20
290.2926
0
VERTEX
8
CUT
10
275.2142
20
290.2923
0
VERTEX
8
CUT
10
273.9047
20
290.2135
0
VERTEX
8
CUT
10
272.4728
20
290.2318
0
VERTEX
8
CUT
10
272.3635
20
290.1208
0
VERTEX
8
CUT
10
272.3628
20
290.1208
0
VERTEX
8
CUT
10
272.3588
20
290.1160
0
VERTEX
8
CUT
10
272.2614
20
290.0171
0
VERTEX
8
CUT
10
272.2625
20
290.0010
0
VERTEX
8
CUT
10
272.1700
20
289.8905
0
VERTEX
8
CUT
10
272.2178
20
289.5583
0
VERTEX
8
CUT
10
274.0820
20
287.5423
0
VERTEX
8
CUT
10
274.3030
20
287.2793
0
VERTEX
8
CUT
10
274.3148
20
287.2653
0
VERTEX
8
CUT
10
274.4043
20
287.1589
0
VERTEX
8
CUT
10
274.8802
20
286.5930
0
VERTEX
8
CUT
10
275.1083
20
286.2456
0
VERTEX
8
CUT
10
275.7680
20
285.0379
0
VERTEX
8
CUT
10
276.0442
20
284.5323
0
VERTEX
8
CUT
10
276.0716
20
284.4823
0
VERTEX
8
CUT
10
276.0875
20
284.4531
0
VERTEX
8
CUT
10
276.8401
20
282.9136
0
VERTEX
8
CUT
10
277.6407
20
280.1842
0
VERTEX
8
CUT
10
277.7944
20
278.0084
0
VERTEX
8
CUT
10
278.0464
20
277.1856
0
VERTEX
8
CUT
10
281.4944
20
276.6400
0
VERTEX
8
CUT
10
284.6220
20
275.5768
0
VERTEX
8
CUT
10
286.6487
20
274.3602
0
VERTEX
8
CUT
10
288.4005
20
272.8272
0
VERTEX
8
CUT
10
289.5609
20
271.7896
0
VERTEX
8
CUT
10
289.5855
20
271.7903
0
VERTEX
8
CUT
10
289.5915
20
271.7850
0
SEQEND
0
POLYLINE
8
CUT
66
1
70
1
10
0.0
20
0.0
30
0.0
0
VERTEX
8
CUT
10
279.3600
20
222.0714
0
VERTEX
8
CUT
10
279.8269
20
221.1601
0
VERTEX
8
CUT
10
280.4788
20
219.8878
0
VERTEX
8
CUT
10
281.6668
20
217.4562
0
VERTEX
8
CUT
10
286.2692
20
206.8330
0
VERTEX
8
CUT
10
289.4099
20
197.9854
0
VERTEX
8
CUT
10
289.6860
20
197.7426
0
VERTEX
8
CUT
10
290.0412
20
197.8372
0
VERTEX
8
CUT
10
290.0416
20
197.8408
0
VERTEX
8
CUT
10
290.0441
20
197.8411
0
VERTEX
8
CUT
10
290.2411
20
198.1507
0
VERTEX
8
CUT
10
290.3223
20
200.1666
0
VERTEX
8
CUT
10
290.2850
20
205.2135
0
VERTEX
8
CUT
10
290.2418
20
205.2352
0
VERTEX
8
CUT
10
290.3226
20
217.4392
0
VERTEX
8
CUT
10
290.2923
20
246.1933
0
VERTEX
8
CUT
10
290.1115
20
254.9436
0
VERTEX
8
CUT
10
289.8471
20
257.1383
0
VERTEX
8
CUT
10
288.9733
20
260.2156
0
VERTEX
8
CUT
10
287.6578
20
262.9663
0
VERTEX
8
CUT
10
286.0149
20
265.3257
0
VERTEX
8
CUT
10
284.1064
20
267.2340
0
VERTEX
8
CUT
10
282.0649
20
268.6359
0
VERTEX
8
CUT
10
279.8512
20
269.4896
0
VERTEX
8
CUT
10
277.8298
20
269.6800
0
VERTEX
8
CUT
10
277.7007
20
269.6954
0
VERTEX
8
CUT
10
275.9296
20
269.2649
0
VERTEX
8
CUT
10
275.8874
20
269.2417
0
VERTEX
8
CUT
10
275.6115
20
269.1741
0
VERTEX
8
CUT
10
274.3818
20
268.5643
0
VERTEX
8
CUT
10
273.1946
20
267.5619
0
VERTEX
8
CUT
10
272.9775
20
267.0643
0
VERTEX
8
CUT
10
273.2139
20
266.7058
0
VERTEX
8
CUT
10
275.9578
20
266.4555
0
VERTEX
8
CUT
10
277.1610
20
266.1681
0
VERTEX
8
CUT
10
279.3487
20
265.1788
0
VERTEX
8
CUT
10
280.8499
20
263.9182
0
VERTEX
8
CUT
10
281.7909
20
262.9100
0
VERTEX
8
CUT
10
282.5403
20
261.8338
0
VERTEX
8
CUT
10
283.0325
20
261.0016
0
VERTEX
8
CUT
10
283.4781
20
259.6776
0
VERTEX
8
CUT
10
283.6353
20
257.9457
0
VERTEX
8
CUT
10
283.5756
20
255.1203
0
VERTEX
8
CUT
10
283.2648
20
253.7310
0
VERTEX
8
CUT
10
282.3503
20
251.9441
0
VERTEX
8
CUT
10
282.1133
20
251.5997
0
VERTEX
8
CUT
10
282.0452
20
251.5007
0
VERTEX
8
CUT
10
281.9575
20
251.3732
0
VERTEX
8
CUT
10
281.6943
20
250.9908
0
VERTEX
8
CUT
10
281.2801
20
250.4940
0
VERTEX
8
CUT
10
280.9313
20
250.1953
0
VERTEX
8
CUT
10
280.6278
20
249.9354
0
VERTEX
8
CUT
10
279.9176
20
249.3270
0
VERTEX
8
CUT
10
279.9017
20
249.3135
0
VERTEX
8
CUT
10
278.6633
20
248.7047
0
VERTEX
8
CUT
10
277.3811
20
248.1982
0
VERTEX
8
CUT
10
275.4596
20
248.0644
0
VERTEX
8
CUT
10
275.2247
20
248.0765
0
VERTEX
8
CUT
10
275.0778
20
248.1267
0
VERTEX
8
CUT
10
274.8360
20
248.2093
0
VERTEX
8
CUT
10
274.3917
20
248.3610
0
VERTEX
8
CUT
10
273.7897
20
248.5666
0
VERTEX
8
CUT
10
272.9282
20
249.1905
0
VERTEX
8
CUT
10
272.8713
20
249.2452
0
VERTEX
8
CUT
10
272.8101
20
249.3040
0
VERTEX
8
CUT
10
272.7324
20
249.3787
0
VERTEX
8
CUT
10
272.6599
20
249.4484
0
VERTEX
8
CUT
10
272.3046
20
249.9595
0
VERTEX
8
CUT
10
271.9004
20
250.5630
0
VERTEX
8
CUT
10
271.7168
20
251.2539
0
VERTEX
8
CUT
10
271.6848
20
251.3926
0
VERTEX
8
CUT
10
271.6633
20
251.7521
0
VERTEX
8
CUT
10
271.8224
20
252.4960
0
VERTEX
8
CUT
10
272.1641
20
252.8583
0
VERTEX
8
CUT
10
272.2730
20
252.8689
0
VERTEX
8
CUT
10
272.3034
20
252.8719
0
VERTEX
8
CUT
10
272.3374
20
252.8752
0
VERTEX
8
CUT
10
272.3836
20
252.8797
0
VERTEX
8
CUT
10
274.4206
20
252.9727
0
VERTEX
8
CUT
10
275.2443
20
253.3153
0
VERTEX
8
CUT
10
275.4812
20
253.6450
0
VERTEX
8
CUT
10
275.5521
20
253.6924
0
VERTEX
8
CUT
10
275.7240
20
253.9829
0
VERTEX
8
CUT
10
276.1577
20
254.5864
0
VERTEX
8
CUT
10
276.2068
20
254.9482
0
VERTEX
8
CUT
10
276.3794
20
255.6555
0
VERTEX
8
CUT
10
276.3370
20
255.9097
0
VERTEX
8
CUT
10
276.3796
20
256.2237
0
VERTEX
8
CUT
10
276.2198
20
256.6119
0
VERTEX
8
CUT
10
276.2147
20
256.6428
0
VERTEX
8
CUT
10
276.1915
20
256.6809
0
VERTEX
8
CUT
10
275.6638
20
257.9633
0
VERTEX
8
CUT
10
274.1454
20
259.3955
0
VERTEX
8
CUT
10
273.0927
20
259.9590
0
VERTEX
8
CUT
10
271.7087
20
260.3211
0
VERTEX
8
CUT
10
269.9505
20
260.4430
0
VERTEX
8
CUT
10
268.0463
20
260.3221
0
VERTEX
8
CUT
10
266.2951
20
259.9722
0
VERTEX
8
CUT
10
262.4897
20
258.4332
0
VERTEX
8
CUT
10
258.0122
20
255.8482
0
VERTEX
8
CUT
10
257.0880
20
256.2102
0
VERTEX
8
CUT
10
255.8437
20
257.7976
0
VERTEX
8
CUT
10
255.6956
20
258.2427
0
VERTEX
8
CUT
10
255.8040
20
258.7602
0
VERTEX
8
CUT
10
258.5058
20
260.9205
0
VERTEX
8
CUT
10
259.6945
20
262.2956
0
VERTEX
8
CUT
10
259.8098
20
262.4093
0
VERTEX
8
CUT
10
259.8529
20
262.4788
0
VERTEX
8
CUT
10
260.3771
20
263.0852
0
VERTEX
8
CUT
10
261.5734
20
265.2509
0
VERTEX
8
CUT
10
261.7804
20
265.5844
0
VERTEX
8
CUT
10
261.8082
20
265.6760
0
VERTEX
8
CUT
10
261.8418
20
265.7369
0
VERTEX
8
CUT
10
262.3624
20
267.1767
0
VERTEX
8
CUT
10
262.7982
20
269.7506
0
VERTEX
8
CUT
10
262.6524
20
271.3831
0
VERTEX
8
CUT
10
262.2546
20
272.8927
0
VERTEX
8
CUT
10
261.6497
20
274.1844
0
VERTEX
8
CUT
10
260.8580
20
275.2691
0
VERTEX
8
CUT
10
259.9120
20
276.1218
0
VERTEX
8
CUT
10
258.8346
20
276.6750
0
VERTEX
8
CUT
10
257.7803
20
276.8871
0
VERTEX
8
CUT
10
256.0975
20
276.4949
0
VERTEX
8
CUT
10
255.1997
20
275.7374
0
VERTEX
8
CUT
10
254.7602
20
274.7842
0
VERTEX
8
CUT
10
254.8317
20
274.2718
0
VERTEX
8
CUT
10
254.8456
20
273.7244
0
VERTEX
8
CUT
10
254.9458
20
273.4544
0
VERTEX
8
CUT
10
255.1216
20
272.1946
0
VERTEX
8
CUT
10
254.3201
20
271.3005
0
VERTEX
8
CUT
10
253.4038
20
271.0591
0
VERTEX
8
CUT
10
252.2043
20
271.2860
0
VERTEX
8
CUT
10
251.9156
20
271.3968
0
VERTEX
8
CUT
10
250.9729
20
271.9719
0
VERTEX
8
CUT
10
250.7765
20
272.1099
0
VERTEX
8
CUT
10
250.2912
20
272.6424
0
VERTEX
8
CUT
10
249.7241
20
273.3583
0
VERTEX
8
CUT
10
249.6518
20
273.4873
0
VERTEX
8
CUT
10
249.6335
20
273.5199
0
VERTEX
8
CUT
10
249.6283
20
273.5292
0
VERTEX
8
CUT
10
249.5877
20
273.6016
0
VERTEX
8
CUT
10
249.2885
20
274.2800
0
VERTEX
8
CUT
10
248.9516
20
276.1197
0
VERTEX
8
CUT
10
249.1646
20
278.4324
0
VERTEX
8
CUT
10
249.9380
20
280.2364
0
VERTEX
8
CUT
10
250.1932
20
280.6218
0
VERTEX
8
CUT
10
250.5786
20
281.1419
0
VERTEX
8
CUT
10
251.3641
20
281.8845
0
VERTEX
8
CUT
10
252.8034
20
283.0251
0
VERTEX
8
CUT
10
252.8089
20
283.0279
0
VERTEX
8
CUT
10
252.8650
20
283.0569
0
VERTEX
8
CUT
10
252.8752
20
283.0622
0
VERTEX
8
CUT
10
252.9113
20
283.0808
0
VERTEX
8
CUT
10
255.1434
20
284.0638
0
VERTEX
8
CUT
10
257.1330
20
284.4454
0
VERTEX
8
CUT
10
258.5870
20
284.4138
0
VERTEX
8
CUT
10
259.7873
20
284.3482
0
VERTEX
8
CUT
10
261.0746
20
284.0398
0
VERTEX
8
CUT
10
263.6173
20
282.7991
0
VERTEX
8
CUT
10
264.8153
20
281.8887
0
VERTEX
8
CUT
10
266.2518
20
280.3019
0
VERTEX
8
CUT
10
267.3336
20
278.5781
0
VERTEX
8
CUT
10
267.5704
20
277.9874
0
VERTEX
8
CUT
10
267.7898
20
277.3091
0
VERTEX
8
CUT
10
268.0788
20
276.0176
0
VERTEX
8
CUT
10
268.1053
20
275.8188
0
VERTEX
8
CUT
10
268.4195
20
272.9932
0
VERTEX
8
CUT
10
268.5069
20
272.7510
0
VERTEX
8
CUT
10
268.5374
20
272.4892
0
VERTEX
8
CUT
10
268.6232
20
272.4284
0
VERTEX
8
CUT
10
268.6576
20
272.3333
0
VERTEX
8
CUT
10
268.7728
20
272.3226
0
VERTEX
8
CUT
10
268.7729
20
272.3225
0
VERTEX
8
CUT
10
268.8794
20
272.0850
0
VERTEX
8
CUT
10
269.3632
20
272.2665
0
VERTEX
8
CUT
10
269.9681
20
273.0527
0
VERTEX
8
CUT
10
270.3612
20
273.8390
0
VERTEX
8
CUT
10
270.4345
20
274.2055
0
VERTEX
8
CUT
10
270.8488
20
275.0971
0
VERTEX
8
CUT
10
271.1116
20
277.3001
0
VERTEX
8
CUT
10
270.7994
20
279.0974
0
VERTEX
8
CUT
10
270.7853
20
279.2516
0
VERTEX
8
CUT
10
270.7647
20
279.2972
0
VERTEX
8
CUT
10
270.7305
20
279.4941
0
VERTEX
8
CUT
10
269.7818
20
281.7188
0
VERTEX
8
CUT
10
269.4695
20
282.1599
0
VERTEX
8
CUT
10
268.2993
20
283.8845
0
VERTEX
8
CUT
10
268.2111
20
283.9172
0
VERTEX
8
CUT
10
266.3215
20
285.8358
0
VERTEX
8
CUT
10
263.9897
20
287.5400
0
VERTEX
8
CUT
10
261.3283
20
288.9153
0
VERTEX
8
CUT
10
258.4774
20
289.8279
0
VERTEX
8
CUT
10
255.5202
20
290.0811
0
VERTEX
8
CUT
10
232.4960
20
290.3831
0
VERTEX
8
CUT
10
215.9936
20
290.2622
0
VERTEX
8
CUT
10
213.8097
20
290.1732
0
VERTEX
8
CUT
10
209.8892
20
290.2340
0
VERTEX
8
CUT
10
209.6663
20
289.8993
0
VERTEX
8
CUT
10
209.8574
20
289.5456
0
VERTEX
8
CUT
10
209.8777
20
289.5350
0
VERTEX
8
CUT
10
209.9889
20
289.3371
0
VERTEX
8
CUT
10
217.5880
20
285.4906
0
VERTEX
8
CUT
10
222.7801
20
282.5761
0
VERTEX
8
CUT
10
225.9915
20
280.6490
0
VERTEX
8
CUT
10
227.7910
20
279.4863
0
VERTEX
8
CUT
10
228.2488
20
279.1905
0
VERTEX
8
CUT
10
229.0936
20
278.6447
0
VERTEX
8
CUT
10
229.5954
20
278.3205
0
VERTEX
8
CUT
10
235.6180
20
274.1564
0
VERTEX
8
CUT
10
241.2053
20
269.9081
0
VERTEX
8
CUT
10
241.2889
20
269.8445
0
VERTEX
8
CUT
10
241.5316
20
269.6600
0
VERTEX
8
CUT
10
241.5599
20
269.6384
0
VERTEX
8
CUT
10
241.7103
20
269.5203
0
VERTEX
8
CUT
10
250.0073
20
262.1807
0
VERTEX
8
CUT
10
250.5851
20
261.6435
0
VERTEX
8
CUT
10
254.5526
20
257.6758
0
VERTEX
8
CUT
10
259.9282
20
251.7263
0
VERTEX
8
CUT
10
264.3229
20
246.2010
0
VERTEX
8
CUT
10
266.0113
20
243.9362
0
VERTEX
8
CUT
10
269.9544
20
238.3480
0
VERTEX
8
CUT
10
270.1044
20
238.1236
0
VERTEX
8
CUT
10
270.1077
20
238.1188
0
VERTEX
8
CUT
10
270.1080
20
238.1182
0
VERTEX
8
CUT
10
270.1080
20
238.1182
0
VERTEX
8
CUT
10
274.6603
20
230.7811
0
VERTEX
8
CUT
10
277.8981
20
224.9246
0
VERTEX
8
CUT
10
279.0468
20
222.6827
0
SEQEND
0
POLYLINE
8
CUT
66
1
70
1
10
0.0
20
0.0
30
0.0
0
VERTEX
8
CUT
10
274.8290
20
42.4758
0
VERTEX
8
CUT
10
275.9051
20
44.0334
0
VERTEX
8
CUT
10
275.9410
20
44.4636
0
VERTEX
8
CUT
10
276.1367
20
45.2846
0
VERTEX
8
CUT
10
276.0510
20
45.7808
0
VERTEX
8
CUT
10
276.0808
20
46.1380
0
VERTEX
8
CUT
10
275.9137
20
46.7452
0
VERTEX
8
CUT
10
275.8836
20
46.7499
0
VERTEX
8
CUT
10
275.8491
20
46.9501
0
VERTEX
8
CUT
10
275.3950
20
47.4985
0
VERTEX
8
CUT
10
273.9464
20
48.2278
0
VERTEX
8
CUT
10
272.4989
20
48.3611
0
VERTEX
8
CUT
10
271.9600
20
48.6377
0
VERTEX
8
CUT
10
271.7549
20
48.9965
0
VERTEX
8
CUT
10
271.7543
20
49.0009
0
VERTEX
8
CUT
10
271.7505
20
49.0320
0
VERTEX
8
CUT
10
271.7479
20
49.0539
0
VERTEX
8
CUT
10
271.6909
20
49.5225
0
VERTEX
8
CUT
10
271.7386
20
50.1637
0
VERTEX
8
CUT
10
271.8695
20
50.4829
0
VERTEX
8
CUT
10
272.5300
20
51.4843
0
VERTEX
8
CUT
10
272.5850
20
51.5307
0
VERTEX
8
CUT
10
273.2254
20
52.0456
0
VERTEX
8
CUT
10
273.8142
20
52.3252
0
VERTEX
8
CUT
10
274.6442
20
52.6131
0
VERTEX
8
CUT
10
274.9779
20
52.6640
0
VERTEX
8
CUT
10
276.7254
20
52.6195
0
VERTEX
8
CUT
10
276.8854
20
52.5972
0
VERTEX
8
CUT
10
277.1518
20
52.5180
0
VERTEX
8
CUT
10
277.3318
20
52.4645
0
VERTEX
8
CUT
10
277.4601
20
52.4264
0
VERTEX
8
CUT
10
277.5906
20
52.3875
0
VERTEX
8
CUT
10
278.1189
20
52.2026
0
VERTEX
8
CUT
10
279.0533
20
51.6523
0
VERTEX
8
CUT
10
279.1871
20
51.5734
0
VERTEX
8
CUT
10
279.8372
20
51.1905
0
VERTEX
8
CUT
10
279.8652
20
51.1741
0
VERTEX
8
CUT
10
280.8592
20
50.3078
0
VERTEX
8
CUT
10
280.9014
20
50.2653
0
VERTEX
8
CUT
10
281.9652
20
48.9882
0
VERTEX
8
CUT
10
283.2079
20
46.5239
0
VERTEX
8
CUT
10
283.6058
20
44.5689
0
VERTEX
8
CUT
10
283.5684
20
42.5856
0
VERTEX
8
CUT
10
282.6054
20
39.6237
0
VERTEX
8
CUT
10
281.9542
20
38.4826
0
VERTEX
8
CUT
10
280.4515
20
36.6776
0
VERTEX
8
CUT
10
279.5279
20
35.9798
0
VERTEX
8
CUT
10
277.4347
20
35.0086
0
VERTEX
8
CUT
10
273.0352
20
34.2276
0
VERTEX
8
CUT
10
272.9159
20
34.0937
0
VERTEX
8
CUT
10
272.8410
20
34.0810
0
VERTEX
8
CUT
10
272.8535
20
34.0236
0
VERTEX
8
CUT
10
272.8178
20
33.9834
0
VERTEX
8
CUT
10
272.8626
20
33.6596
0
VERTEX
8
CUT
10
272.9501
20
33.5792
0
VERTEX
8
CUT
10
272.9923
20
33.3854
0
VERTEX
8
CUT
10
274.3229
20
32.2362
0
VERTEX
8
CUT
10
274.4985
20
32.1582
0
VERTEX
8
CUT
10
274.6030
20
32.0622
0
VERTEX
8
CUT
10
275.5864
20
31.5849
0
VERTEX
8
CUT
10
277.6960
20
31.2979
0
VERTEX
8
CUT
10
278.1998
20
31.3681
0
VERTEX
8
CUT
10
278.3360
20
31.3562
0
VERTEX
8
CUT
10
278.6565
20
31.4317
0
VERTEX
8
CUT
10
279.7949
20
31.5903
0
VERTEX
8
CUT
10
280.5903
20
31.8871
0
VERTEX
8
CUT
10
280.8844
20
31.9564
0
VERTEX
8
CUT
10
281.0439
20
32.0564
0
VERTEX
8
CUT
10
281.1964
20
32.1133
0
VERTEX
8
CUT
10
282.7998
20
33.0319
0
VERTEX
8
CUT
10
284.3187
20
34.2180
0
VERTEX
8
CUT
10
286.9830
20
37.3648
0
VERTEX
8
CUT
10
287.7164
20
38.8133
0
VERTEX
8
CUT
10
287.9527
20
39.1604
0
VERTEX
8
CUT
10
288.1440
20
39.6577
0
VERTEX
8
CUT
10
288.9214
20
41.1930
0
VERTEX
8
CUT
10
289.5770
20
43.2585
0
VERTEX
8
CUT
10
290.0814
20
46.3842
0
VERTEX
8
CUT
10
290.3226
20
83.2832
0
VERTEX
8
CUT
10
290.2018
20
100.4455
0
VERTEX
8
CUT
10
290.1500
20
101.2023
0
VERTEX
8
CUT
10
290.0732
20
101.3020
0
VERTEX
8
CUT
10
290.0185
20
101.6415
0
VERTEX
8
CUT
10
289.6858
20
101.8531
0
VERTEX
8
CUT
10
289.2927
20
101.2785
0
VERTEX
8
CUT
10
288.9298
20
100.1294
0
VERTEX
8
CUT
10
288.9045
20
99.9150
0
VERTEX
8
CUT
10
285.6477
20
91.3435
0
VERTEX
8
CUT
10
282.0747
20
83.4701
0
VERTEX
8
CUT
10
277.7758
20
75.2047
0
VERTEX
8
CUT
10
275.5981
20
71.4145
0
VERTEX
8
CUT
10
275.5336
20
71.3058
0
VERTEX
8
CUT
10
275.5286
20
71.2974
0
VERTEX
8
CUT
10
275.4514
20
71.1674
0
VERTEX
8
CUT
10
275.3181
20
70.9428
0
VERTEX
8
CUT
10
271.1930
20
64.2748
0
VERTEX
8
CUT
10
268.6552
20
60.4521
0
VERTEX
8
CUT
10
268.1997
20
59.7804
0
VERTEX
8
CUT
10
262.2425
20
51.9181
0
VERTEX
8
CUT
10
257.5348
20
46.2866
0
VERTEX
8
CUT
10
257.8243
20
45.6172
0
VERTEX
8
CUT
10
259.3699
20
44.3084
0
VERTEX
8
CUT
10
259.5329
20
43.7748
0
VERTEX
8
CUT
10
259.4580
20
42.9094
0
VERTEX
8
CUT
10
259.6908
20
42.6249
0
VERTEX
8
CUT
10
261.6017
20
42.3836
0
VERTEX
8
CUT
10
263.0241
20
41.9145
0
VERTEX
8
CUT
10
264.3058
20
41.4116
0
VERTEX
8
CUT
10
267.0322
20
40.5815
0
VERTEX
8
CUT
10
267.1041
20
40.5690
0
VERTEX
8
CUT
10
267.2664
20
40.5155
0
VERTEX
8
CUT
10
267.6553
20
40.4729
0
VERTEX
8
CUT
10
268.2610
20
40.3673
0
VERTEX
8
CUT
10
268.5789
20
40.3718
0
VERTEX
8
CUT
10
269.1436
20
40.3100
0
VERTEX
8
CUT
10
269.7750
20
40.3887
0
VERTEX
8
CUT
10
270.3098
20
40.3962
0
VERTEX
8
CUT
10
270.6691
20
40.5001
0
VERTEX
8
CUT
10
271.7531
20
40.6352
0
VERTEX
8
CUT
10
272.9299
20
41.0943
0
VERTEX
8
CUT
10
273.9348
20
41.8511
0
SEQEND
0
POLYLINE
8
CUT
66
1
70
1
10
0.0
20
0.0
30
0.0
0
VERTEX
8
CUT
10
276.6384
20
18.0786
0
VERTEX
8
CUT
10
276.5670
20
17.8771
0
VERTEX
8
CUT
10
276.2115
20
16.8746
0
VERTEX
8
CUT
10
276.1786
20
16.7890
0
VERTEX
8
CUT
10
274.8427
20
14.6468
0
VERTEX
8
CUT
10
271.3659
20
10.7499
0
VERTEX
8
CUT
10
271.5778
20
10.2765
0
VERTEX
8
CUT
10
271.8716
20
10.2563
0
VERTEX
8
CUT
10
271.9909
20
10.2176
0
VERTEX
8
CUT
10
285.0230
20
10.0974
0
VERTEX
8
CUT
10
285.6045
20
10.1222
0
VERTEX
8
CUT
10
288.9972
20
10.0974
0
VERTEX
8
CUT
10
289.2806
20
10.2195
0
VERTEX
8
CUT
10
290.0673
20
11.4350
0
VERTEX
8
CUT
10
290.2921
20
13.8499
0
VERTEX
8
CUT
10
290.2923
20
26.5069
0
VERTEX
8
CUT
10
290.0521
20
29.6243
0
VERTEX
8
CUT
10
289.5282
20
29.6577
0
VERTEX
8
CUT
10
286.5628
20
26.8503
0
VERTEX
8
CUT
10
284.4716
20
25.5390
0
VERTEX
8
CUT
10
282.2586
20
24.6816
0
VERTEX
8
CUT
10
279.9095
20
24.2396
0
VERTEX
8
CUT
10
279.0171
20
24.1338
0
VERTEX
8
CUT
10
278.5657
20
23.9868
0
VERTEX
8
CUT
10
277.7751
20
23.8380
0
VERTEX
8
CUT
10
277.0580
20
19.2617
0
VERTEX
8
CUT
10
276.6552
20
18.1260
0
SEQEND
0
POLYLINE
8
CUT
66
1
70
1
10
0.0
20
0.0
30
0.0
0
VERTEX
8
CUT
10
24.6307
20
124.4456
0
VERTEX
8
CUT
10
27.9160
20
122.6189
0
VERTEX
8
CUT
10
30.0873
20
121.9319
0
VERTEX
8
CUT
10
31.1819
20
121.7746
0
VERTEX
8
CUT
10
31.3735
20
121.7228
0
VERTEX
8
CUT
10
32.3242
20
121.6103
0
VERTEX
8
CUT
10
32.6073
20
121.5696
0
VERTEX
8
CUT
10
38.1870
20
121.5671
0
VERTEX
8
CUT
10
41.8440
20
122.3742
0
VERTEX
8
CUT
10
47.0773
20
124.2798
0
VERTEX
8
CUT
10
47.5681
20
124.3121
0
VERTEX
8
CUT
10
47.8521
20
124.0747
0
VERTEX
8
CUT
10
47.9906
20
123.3369
0
VERTEX
8
CUT
10
47.8450
20
122.7738
0
VERTEX
8
CUT
10
47.1546
20
122.2190
0
VERTEX
8
CUT
10
45.3673
20
119.3751
0
VERTEX
8
CUT
10
44.1183
20
118.0096
0
VERTEX
8
CUT
10
42.4582
20
116.9760
0
VERTEX
8
CUT
10
41.7732
20
116.2295
0
VERTEX
8
CUT
10
41.3917
20
115.4221
0
VERTEX
8
CUT
10
41.3677
20
114.0011
0
VERTEX
8
CUT
10
41.1292
20
113.3037
0
VERTEX
8
CUT
10
36.4129
20
107.1336
0
VERTEX
8
CUT
10
34.3141
20
103.2721
0
VERTEX
8
CUT
10
33.1356
20
99.3737
0
VERTEX
8
CUT
10
32.9727
20
97.5102
0
VERTEX
8
CUT
10
32.8430
20
96.5729
0
VERTEX
8
CUT
10
32.8423
20
96.0195
0
VERTEX
8
CUT
10
32.7795
20
95.3015
0
VERTEX
8
CUT
10
32.8703
20
92.8773
0
VERTEX
8
CUT
10
33.1428
20
90.8376
0
VERTEX
8
CUT
10
33.7066
20
88.9742
0
VERTEX
8
CUT
10
34.5776
20
86.9354
0
VERTEX
8
CUT
10
35.8539
20
84.7900
0
VERTEX
8
CUT
10
35.9092
20
84.6865
0
VERTEX
8
CUT
10
35.9302
20
84.6617
0
VERTEX
8
CUT
10
36.2889
20
84.0587
0
VERTEX
8
CUT
10
37.3086
20
82.7733
0
VERTEX
8
CUT
10
39.6429
20
80.5949
0
VERTEX
8
CUT
10
42.2561
20
79.0096
0
VERTEX
8
CUT
10
44.4657
20
78.1988
0
VERTEX
8
CUT
10
46.6002
20
77.8711
0
VERTEX
8
CUT
10
47.9327
20
78.0511
0
VERTEX
8
CUT
10
48.5430
20
78.3203
0
VERTEX
8
CUT
10
48.9500
20
78.4325
0
VERTEX
8
CUT
10
49.1384
20
78.5830
0
VERTEX
8
CUT
10
49.6152
20
78.7933
0
VERTEX
8
CUT
10
50.6219
20
79.8163
0
VERTEX
8
CUT
10
50.6810
20
80.4189
0
VERTEX
8
CUT
10
50.7688
20
80.5817
0
VERTEX
8
CUT
10
50.7135
20
80.7506
0
VERTEX
8
CUT
10
50.7255
20
80.8727
0
VERTEX
8
CUT
10
50.5625
20
81.2115
0
VERTEX
8
CUT
10
50.5420
20
81.2739
0
VERTEX
8
CUT
10
50.5254
20
81.2885
0
VERTEX
8
CUT
10
50.2817
20
81.7950
0
VERTEX
8
CUT
10
49.9544
20
81.7906
0
VERTEX
8
CUT
10
49.9184
20
81.8222
0
VERTEX
8
CUT
10
49.5248
20
81.8755
0
VERTEX
8
CUT
10
49.1636
20
81.7800
0
VERTEX
8
CUT
10
47.2627
20
81.7545
0
VERTEX
8
CUT
10
46.3571
20
82.4756
0
VERTEX
8
CUT
10
45.8693
20
83.3704
0
VERTEX
8
CUT
10
45.6962
20
84.3495
0
VERTEX
8
CUT
10
45.9387
20
85.3316
0
VERTEX
8
CUT
10
46.5486
20
86.2811
0
VERTEX
8
CUT
10
47.8155
20
87.3418
0
VERTEX
8
CUT
10
48.5367
20
87.6929
0
VERTEX
8
CUT
10
48.7365
20
87.7849
0
VERTEX
8
CUT
10
49.4649
20
87.9230
0
VERTEX
8
CUT
10
50.5802
20
88.0250
0
VERTEX
8
CUT
10
50.6032
20
88.0271
0
VERTEX
8
CUT
10
50.7027
20
88.0362
0
VERTEX
8
CUT
10
51.0556
20
88.0684
0
VERTEX
8
CUT
10
51.6834
20
88.0119
0
VERTEX
8
CUT
10
51.9175
20
87.9625
0
VERTEX
8
CUT
10
52.1991
20
87.9031
0
VERTEX
8
CUT
10
52.3431
20
87.8727
0
VERTEX
8
CUT
10
53.0306
20
87.7277
0
VERTEX
8
CUT
10
54.5774
20
87.1225
0
VERTEX
8
CUT
10
54.5868
20
87.1171
0
VERTEX
8
CUT
10
54.6542
20
87.0782
0
VERTEX
8
CUT
10
54.7003
20
87.0516
0
VERTEX
8
CUT
10
55.1000
20
86.8210
0
VERTEX
8
CUT
10
56.0322
20
86.0952
0
VERTEX
8
CUT
10
57.6963
20
83.6688
0
VERTEX
8
CUT
10
58.2060
20
82.2151
0
VERTEX
8
CUT
10
58.3638
20
81.1124
0
VERTEX
8
CUT
10
58.3892
20
80.5536
0
VERTEX
8
CUT
10
58.3968
20
80.3872
0
VERTEX
8
CUT
10
58.4017
20
80.2796
0
VERTEX
8
CUT
10
58.4112
20
80.0708
0
VERTEX
8
CUT
10
58.3939
20
79.1773
0
VERTEX
8
CUT
10
58.0579
20
77.6524
0
VERTEX
8
CUT
10
57.2581
20
75.9843
0
VERTEX
8
CUT
10
55.4339
20
73.8264
0
VERTEX
8
CUT
10
53.9495
20
72.7092
0
VERTEX
8
CUT
10
52.3993
20
72.0225
0
VERTEX
8
CUT
10
49.2380
20
71.4919
0
VERTEX
8
CUT
10
46.0761
20
71.5223
0
VERTEX
8
CUT
10
45.4767
20
71.6406
0
VERTEX
8
CUT
10
44.7026
20
71.8361
0
VERTEX
8
CUT
10
40.6549
20
73.4582
0
VERTEX
8
CUT
10
40.2845
20
73.2171
0
VERTEX
8
CUT
10
40.1643
20
72.1354
0
VERTEX
8
CUT
10
39.7920
20
71.9781
0
VERTEX
8
CUT
10
39.1961
20
72.0556
0
VERTEX
8
CUT
10
38.3465
20
72.7427
0
VERTEX
8
CUT
10
35.7466
20
76.7932
0
VERTEX
8
CUT
10
33.0580
20
80.4786
0
VERTEX
8
CUT
10
31.6370
20
83.5616
0
VERTEX
8
CUT
10
28.8066
20
88.1023
0
VERTEX
8
CUT
10
26.9508
20
92.3291
0
VERTEX
8
CUT
10
25.2904
20
94.7156
0
VERTEX
8
CUT
10
24.2204
20
96.7905
0
VERTEX
8
CUT
10
23.3235
20
98.9559
0
VERTEX
8
CUT
10
22.3916
20
102.2647
0
VERTEX
8
CUT
10
20.2749
20
106.2578
0
VERTEX
8
CUT
10
19.6047
20
108.9024
0
VERTEX
8
CUT
10
17.1250
20
116.0090
0
VERTEX
8
CUT
10
15.7907
20
120.7415
0
VERTEX
8
CUT
10
12.1317
20
140.3974
0
VERTEX
8
CUT
10
11.8263
20
143.1974
0
VERTEX
8
CUT
10
11.4921
20
153.3334
0
VERTEX
8
CUT
10
11.7946
20
160.6228
0
VERTEX
8
CUT
10
12.2185
20
165.3797
0
VERTEX
8
CUT
10
13.8869
20
176.4793
0
VERTEX
8
CUT
10
14.6438
20
179.1141
0
VERTEX
8
CUT
10
15.0379
20
181.9904
0
VERTEX
8
CUT
10
16.6400
20
188.2475
0
VERTEX
8
CUT
10
20.3401
20
198.8626
0
VERTEX
8
CUT
10
25.4232
20
210.2087
0
VERTEX
8
CUT
10
31.8950
20
222.5179
0
VERTEX
8
CUT
10
35.0847
20
227.5025
0
VERTEX
8
CUT
10
38.1680
20
231.8776
0
VERTEX
8
CUT
10
38.1920
20
232.2076
0
VERTEX
8
CUT
10
37.9539
20
232.4372
0
VERTEX
8
CUT
10
37.5137
20
232.2994
0
VERTEX
8
CUT
10
34.3194
20
227.7894
0
VERTEX
8
CUT
10
29.1545
20
219.6050
0
VERTEX
8
CUT
10
24.7161
20
211.4237
0
VERTEX
8
CUT
10
21.1830
20
203.9353
0
VERTEX
8
CUT
10
18.1632
20
196.5383
0
VERTEX
8
CUT
10
15.6497
20
189.1494
0
VERTEX
8
CUT
10
13.6032
20
181.7761
0
VERTEX
8
CUT
10
12.0584
20
174.2951
0
VERTEX
8
CUT
10
10.9722
20
166.7174
0
VERTEX
8
CUT
10
10.3086
20
158.9569
0
VERTEX
8
CUT
10
10.0979
20
150.9553
0
VERTEX
8
CUT
10
10.3704
20
142.3181
0
VERTEX
8
CUT
10
11.1562
20
133.8025
0
VERTEX
8
CUT
10
12.4556
20
125.3775
0
VERTEX
8
CUT
10
14.2981
20
117.0746
0
VERTEX
8
CUT
10
16.6841
20
108.8622
0
VERTEX
8
CUT
10
19.6138
20
100.7096
0
VERTEX
8
CUT
10
23.0869
20
92.6171
0
VERTEX
8
CUT
10
23.7193
20
91.3430
0
VERTEX
8
CUT
10
23.8435
20
91.0442
0
VERTEX
8
CUT
10
24.4386
20
89.8937
0
VERTEX
8
CUT
10
27.0737
20
84.5841
0
VERTEX
8
CUT
10
28.1492
20
82.7195
0
VERTEX
8
CUT
10
28.4039
20
82.2272
0
VERTEX
8
CUT
10
29.1626
20
80.9625
0
VERTEX
8
CUT
10
32.6218
20
74.9655
0
VERTEX
8
CUT
10
38.7522
20
65.9350
0
VERTEX
8
CUT
10
42.0431
20
61.6170
0
VERTEX
8
CUT
10
43.8579
20
59.4854
0
VERTEX
8
CUT
10
45.7567
20
57.0581
0
VERTEX
8
CUT
10
47.5392
20
55.1614
0
VERTEX
8
CUT
10
49.1405
20
53.2806
0
VERTEX
8
CUT
10
52.9881
20
49.2217
0
VERTEX
8
CUT
10
54.4895
20
47.8349
0
VERTEX
8
CUT
10
60.5899
20
41.9511
0
VERTEX
8
CUT
10
62.1995
20
40.5249
0
VERTEX
8
CUT
10
63.4085
20
39.5968
0
VERTEX
8
CUT
10
63.7179
20
39.3110
0
VERTEX
8
CUT
10
65.6507
20
37.8755
0
VERTEX
8
CUT
10
71.1459
20
33.6570
0
VERTEX
8
CUT
10
72.6338
20
32.6891
0
VERTEX
8
CUT
10
75.0674
20
30.8817
0
VERTEX
8
CUT
10
78.6686
20
28.7636
0
VERTEX
8
CUT
10
80.3842
20
27.6476
0
VERTEX
8
CUT
10
82.5218
20
26.4973
0
VERTEX
8
CUT
10
87.0808
20
23.8159
0
VERTEX
8
CUT
10
89.4417
20
22.7735
0
VERTEX
8
CUT
10
89.9230
20
22.5145
0
VERTEX
8
CUT
10
93.4361
20
21.0098
0
VERTEX
8
CUT
10
99.7707
20
18.2128
0
VERTEX
8
CUT
10
104.3886
20
16.7686
0
VERTEX
8
CUT
10
110.0619
20
14.8942
0
VERTEX
8
CUT
10
111.3711
20
14.5848
0
VERTEX
8
CUT
10
113.0850
20
14.0488
0
VERTEX
8
CUT
10
116.4347
20
13.3881
0
VERTEX
8
CUT
10
120.6591
20
12.3898
0
VERTEX
8
CUT
10
124.0662
20
11.8830
0
VERTEX
8
CUT
10
127.0043
20
11.3034
0
VERTEX
8
CUT
10
129.3814
20
11.0923
0
VERTEX
8
CUT
10
131.5877
20
10.7640
0
VERTEX
8
CUT
10
137.5319
20
10.3681
0
VERTEX
8
CUT
10
141.5808
20
10.0084
0
VERTEX
8
CUT
10
142.7910
20
10.0179
0
VERTEX
8
CUT
10
142.9561
20
10.0069
0
VERTEX
8
CUT
10
146.8795
20
9.9462
0
VERTEX
8
CUT
10
153.0381
20
10.0978
0
VERTEX
8
CUT
10
156.8376
20
10.1275
0
VERTEX
8
CUT
10
162.9269
20
10.6637
0
VERTEX
8
CUT
10
165.4052
20
10.8531
0
VERTEX
8
CUT
10
165.8890
20
10.9245
0
VERTEX
8
CUT
10
167.4966
20
11.0660
0
VERTEX
8
CUT
10
173.0677
20
11.9836
0
VERTEX
8
CUT
10
174.6008
20
12.2098
0
VERTEX
8
CUT
10
175.3200
20
12.3546
0
VERTEX
8
CUT
10
177.7340
20
12.7522
0
VERTEX
8
CUT
10
187.6370
20
15.1664
0
VERTEX
8
CUT
10
197.2370
20
18.3349
0
VERTEX
8
CUT
10
206.5349
20
22.3023
0
VERTEX
8
CUT
10
208.6947
20
23.4371
0
VERTEX
8
CUT
10
209.5592
20
23.8157
0
VERTEX
8
CUT
10
211.0531
20
24.6761
0
VERTEX
8
CUT
10
215.5010
20
27.0131
0
VERTEX
8
CUT
10
219.7732
20
29.6987
0
VERTEX
8
CUT
10
221.5135
20
30.7011
0
VERTEX
8
CUT
10
222.4378
20
31.3737
0
VERTEX
8
CUT
10
224.1961
20
32.4790
0
VERTEX
8
CUT
10
232.6300
20
38.7140
0
VERTEX
8
CUT
10
234.7838
20
40.5333
0
VERTEX
8
CUT
10
238.4391
20
44.0003
0
VERTEX
8
CUT
10
243.0993
20
48.1863
0
VERTEX
8
CUT
10
244.6285
20
49.8709
0
VERTEX
8
CUT
10
245.3253
20
50.5318
0
VERTEX
8
CUT
10
251.9568
20
57.7657
0
VERTEX
8
CUT
10
256.3777
20
63.3976
0
VERTEX
8
CUT
10
260.5149
20
69.1965
0
VERTEX
8
CUT
10
264.3803
20
75.1766
0
VERTEX
8
CUT
10
267.9435
20
81.3072
0
VERTEX
8
CUT
10
271.2351
20
87.6197
0
VERTEX
8
CUT
10
274.2243
20
94.1123
0
VERTEX
8
CUT
10
276.9116
20
100.7562
0
VERTEX
8
CUT
10
279.3279
20
107.5548
0
VERTEX
8
CUT
10
282.5508
20
119.1515
0
VERTEX
8
CUT
10
284.7312
20
131.0523
0
VERTEX
8
CUT
10
285.8469
20
143.1002
0
VERTEX
8
CUT
10
285.9071
20
155.2355
0
VERTEX
8
CUT
10
284.9079
20
167.4686
0
VERTEX
8
CUT
10
282.8600
20
179.6056
0
VERTEX
8
CUT
10
282.1737
20
182.2691
0
VERTEX
8
CUT
10
281.9056
20
182.5132
0
VERTEX
8
CUT
10
281.5524
20
182.4311
0
VERTEX
8
CUT
10
281.4194
20
182.0938
0
VERTEX
8
CUT
10
283.7262
20
168.0047
0
VERTEX
8
CUT
10
284.6337
20
156.7761
0
VERTEX
8
CUT
10
284.5127
20
144.7619
0
VERTEX
8
CUT
10
283.3027
20
131.3834
0
VERTEX
8
CUT
10
281.5200
20
123.6367
0
VERTEX
8
CUT
10
281.0909
20
120.8014
0
VERTEX
8
CUT
10
279.2072
20
114.4510
0
VERTEX
8
CUT
10
277.0589
20
108.9133
0
VERTEX
8
CUT
10
276.2403
20
106.0054
0
VERTEX
8
CUT
10
274.9505
20
103.1558
0
VERTEX
8
CUT
10
274.3956
20
101.3485
0
VERTEX
8
CUT
10
272.8867
20
98.8151
0
VERTEX
8
CUT
10
272.3077
20
96.8692
0
VERTEX
8
CUT
10
270.4924
20
94.2055
0
VERTEX
8
CUT
10
268.8658
20
90.3860
0
VERTEX
8
CUT
10
268.2274
20
89.6257
0
VERTEX
8
CUT
10
267.3594
20
89.0992
0
VERTEX
8
CUT
10
266.1342
20
88.9596
0
VERTEX
8
CUT
10
265.8220
20
89.2030
0
VERTEX
8
CUT
10
265.6758
20
89.8787
0
VERTEX
8
CUT
10
267.3791
20
95.1455
0
VERTEX
8
CUT
10
268.0937
20
98.8957
0
VERTEX
8
CUT
10
268.2762
20
101.9911
0
VERTEX
8
CUT
10
268.1247
20
108.2248
0
VERTEX
8
CUT
10
267.5554
20
112.2396
0
VERTEX
8
CUT
10
266.4368
20
117.0470
0
VERTEX
8
CUT
10
264.7224
20
122.4907
0
VERTEX
8
CUT
10
263.4366
20
125.5016
0
VERTEX
8
CUT
10
263.1002
20
125.5447
0
VERTEX
8
CUT
10
262.8724
20
125.3440
0
VERTEX
8
CUT
10
261.2302
20
120.6520
0
VERTEX
8
CUT
10
259.4162
20
117.3867
0
VERTEX
8
CUT
10
258.2869
20
115.8277
0
VERTEX
8
CUT
10
256.4085
20
113.7671
0
VERTEX
8
CUT
10
255.9744
20
113.3567
0
VERTEX
8
CUT
10
255.5357
20
112.9420
0
VERTEX
8
CUT
10
255.2171
20
112.6409
0
VERTEX
8
CUT
10
254.8453
20
112.2893
0
VERTEX
8
CUT
10
254.4095
20
111.9240
0
VERTEX
8
CUT
10
251.8797
20
110.2505
0
VERTEX
8
CUT
10
249.1677
20
108.8513
0
VERTEX
8
CUT
10
246.3139
20
107.7398
0
VERTEX
8
CUT
10
243.2981
20
106.9150
0
VERTEX
8
CUT
10
240.1954
20
106.3657
0
VERTEX
8
CUT
10
236.9881
20
106.1193
0
VERTEX
8
CUT
10
233.7940
20
106.2124
0
VERTEX
8
CUT
10
230.5867
20
106.6133
0
VERTEX
8
CUT
10
225.3517
20
108.0063
0
VERTEX
8
CUT
10
220.4519
20
110.1976
0
VERTEX
8
CUT
10
215.9786
20
113.1492
0
VERTEX
8
CUT
10
212.6395
20
116.1776
0
VERTEX
8
CUT
10
211.0452
20
117.9580
0
VERTEX
8
CUT
10
208.7365
20
120.8174
0
VERTEX
8
CUT
10
206.1190
20
125.3830
0
VERTEX
8
CUT
10
204.2922
20
130.2853
0
VERTEX
8
CUT
10
202.9633
20
137.2873
0
VERTEX
8
CUT
10
202.5271
20
137.2899
0
VERTEX
8
CUT
10
199.9871
20
135.0985
0
VERTEX
8
CUT
10
197.9642
20
133.9509
0
VERTEX
8
CUT
10
195.8128
20
133.1872
0
VERTEX
8
CUT
10
193.5663
20
132.7936
0
VERTEX
8
CUT
10
191.3197
20
132.7622
0
VERTEX
8
CUT
10
189.0791
20
133.1019
0
VERTEX
8
CUT
10
186.9580
20
133.8861
0
VERTEX
8
CUT
10
184.4942
20
135.5596
0
VERTEX
8
CUT
10
182.9489
20
137.7010
0
VERTEX
8
CUT
10
182.3017
20
139.2843
0
VERTEX
8
CUT
10
182.0579
20
140.7791
0
VERTEX
8
CUT
10
182.5638
20
143.0188
0
VERTEX
8
CUT
10
183.3102
20
144.4417
0
VERTEX
8
CUT
10
184.2887
20
145.6039
0
VERTEX
8
CUT
10
185.6084
20
146.4603
0
VERTEX
8
CUT
10
186.5246
20
146.7268
0
VERTEX
8
CUT
10
188.3114
20
146.7610
0
VERTEX
8
CUT
10
189.2001
20
146.5371
0
VERTEX
8
CUT
10
190.6040
20
145.7611
0
VERTEX
8
CUT
10
191.0963
20
145.1144
0
VERTEX
8
CUT
10
191.3670
20
144.0393
0
VERTEX
8
CUT
10
191.3013
20
143.8531
0
VERTEX
8
CUT
10
190.9239
20
143.5294
0
VERTEX
8
CUT
10
190.9102
20
143.5177
0
VERTEX
8
CUT
10
190.9094
20
143.5170
0
VERTEX
8
CUT
10
190.3683
20
143.0530
0
VERTEX
8
CUT
10
189.7754
20
142.7490
0
VERTEX
8
CUT
10
189.1902
20
141.8686
0
VERTEX
8
CUT
10
189.2515
20
141.7141
0
VERTEX
8
CUT
10
189.2315
20
141.2653
0
VERTEX
8
CUT
10
189.4465
20
140.7954
0
VERTEX
8
CUT
10
190.0798
20
140.2207
0
VERTEX
8
CUT
10
190.3530
20
140.0946
0
VERTEX
8
CUT
10
190.9511
20
139.6633
0
VERTEX
8
CUT
10
191.9266
20
139.4099
0
VERTEX
8
CUT
10
193.9850
20
139.5300
0
VERTEX
8
CUT
10
196.3319
20
140.4077
0
VERTEX
8
CUT
10
197.3183
20
140.9934
0
VERTEX
8
CUT
10
199.1266
20
142.5093
0
VERTEX
8
CUT
10
200.8847
20
144.5695
0
VERTEX
8
CUT
10
204.9285
20
151.5089
0
VERTEX
8
CUT
10
204.9335
20
151.5172
0
VERTEX
8
CUT
10
204.9423
20
151.5317
0
VERTEX
8
CUT
10
204.9437
20
151.5340
0
VERTEX
8
CUT
10
205.4002
20
152.2879
0
VERTEX
8
CUT
10
207.5398
20
155.5955
0
VERTEX
8
CUT
10
207.4295
20
156.1026
0
VERTEX
8
CUT
10
206.1685
20
155.9282
0
VERTEX
8
CUT
10
204.0366
20
154.9783
0
VERTEX
8
CUT
10
201.3419
20
154.1197
0
VERTEX
8
CUT
10
188.7254
20
150.8823
0
VERTEX
8
CUT
10
182.7046
20
149.1364
0
VERTEX
8
CUT
10
180.3363
20
148.2859
0
VERTEX
8
CUT
10
176.5807
20
146.4979
0
VERTEX
8
CUT
10
173.4723
20
144.3793
0
VERTEX
8
CUT
10
170.8436
20
141.8446
0
VERTEX
8
CUT
10
168.7797
20
139.0324
0
VERTEX
8
CUT
10
168.4856
20
138.4114
0
VERTEX
8
CUT
10
168.4340
20
138.3386
0
VERTEX
8
CUT
10
168.3489
20
138.1226
0
VERTEX
8
CUT
10
167.3341
20
135.9799
0
VERTEX
8
CUT
10
166.9771
20
134.6415
0
VERTEX
8
CUT
10
166.9029
20
134.4532
0
VERTEX
8
CUT
10
166.8828
20
134.2881
0
VERTEX
8
CUT
10
166.5042
20
132.8690
0
VERTEX
8
CUT
10
166.3001
20
129.8345
0
VERTEX
8
CUT
10
166.7084
20
126.9034
0
VERTEX
8
CUT
10
167.8175
20
124.0933
0
VERTEX
8
CUT
10
169.1913
20
122.1817
0
VERTEX
8
CUT
10
169.3452
20
121.9337
0
VERTEX
8
CUT
10
169.4218
20
121.8610
0
VERTEX
8
CUT
10
169.5751
20
121.6477
0
VERTEX
8
CUT
10
170.2764
20
121.0502
0
VERTEX
8
CUT
10
170.7828
20
120.5698
0
VERTEX
8
CUT
10
170.9946
20
120.4383
0
VERTEX
8
CUT
10
171.6374
20
119.8907
0
VERTEX
8
CUT
10
173.7756
20
119.0209
0
VERTEX
8
CUT
10
176.3364
20
118.9385
0
VERTEX
8
CUT
10
177.2670
20
119.1822
0
VERTEX
8
CUT
10
178.6962
20
119.9689
0
VERTEX
8
CUT
10
179.5975
20
121.1882
0
VERTEX
8
CUT
10
179.8418
20
121.9994
0
VERTEX
8
CUT
10
179.9395
20
123.2010
0
VERTEX
8
CUT
10
179.7749
20
123.9579
0
VERTEX
8
CUT
10
179.3166
20
124.5866
0
VERTEX
8
CUT
10
178.5414
20
125.1311
0
VERTEX
8
CUT
10
176.2536
20
124.0522
0
VERTEX
8
CUT
10
175.3576
20
124.0658
0
VERTEX
8
CUT
10
174.2877
20
124.6263
0
VERTEX
8
CUT
10
173.9572
20
125.1204
0
VERTEX
8
CUT
10
173.7094
20
126.2892
0
VERTEX
8
CUT
10
173.7399
20
127.6878
0
VERTEX
8
CUT
10
174.0476
20
129.0281
0
VERTEX
8
CUT
10
174.9371
20
130.2633
0
VERTEX
8
CUT
10
175.0249
20
130.3300
0
VERTEX
8
CUT
10
175.8874
20
130.9023
0
VERTEX
8
CUT
10
177.5761
20
131.4792
0
VERTEX
8
CUT
10
179.7547
20
131.5495
0
VERTEX
8
CUT
10
181.9107
20
130.9332
0
VERTEX
8
CUT
10
183.2663
20
130.1479
0
VERTEX
8
CUT
10
184.3866
20
129.1519
0
VERTEX
8
CUT
10
185.2868
20
127.9424
0
VERTEX
8
CUT
10
185.9984
20
126.5805
0
VERTEX
8
CUT
10
186.4631
20
125.0939
0
VERTEX
8
CUT
10
186.6387
20
123.7663
0
VERTEX
8
CUT
10
186.6292
20
122.9864
0
VERTEX
8
CUT
10
186.6257
20
122.7020
0
VERTEX
8
CUT
10
186.6230
20
122.4740
0
VERTEX
8
CUT
10
186.6114
20
121.5218
0
VERTEX
8
CUT
10
186.2167
20
119.2851
0
VERTEX
8
CUT
10
186.4263
20
118.8995
0
VERTEX
8
CUT
10
186.7988
20
118.9079
0
VERTEX
8
CUT
10
189.2358
20
120.4976
0
VERTEX
8
CUT
10
189.3274
20
120.5477
0
VERTEX
8
CUT
10
189.3314
20
120.5499
0
VERTEX
8
CUT
10
189.3635
20
120.5676
0
VERTEX
8
CUT
10
189.5313
20
120.6596
0
VERTEX
8
CUT
10
192.2045
20
121.6474
0
VERTEX
8
CUT
10
193.6339
20
121.9677
0
VERTEX
8
CUT
10
193.7749
20
121.9945
0
VERTEX
8
CUT
10
196.7990
20
122.2040
0
VERTEX
8
CUT
10
198.3879
20
122.0804
0
VERTEX
8
CUT
10
201.3255
20
121.3763
0
VERTEX
8
CUT
10
204.0225
20
120.1809
0
VERTEX
8
CUT
10
206.4439
20
118.4952
0
VERTEX
8
CUT
10
208.5276
20
116.3760
0
VERTEX
8
CUT
10
208.5477
20
116.3522
0
VERTEX
8
CUT
10
208.5511
20
116.3482
0
VERTEX
8
CUT
10
208.5522
20
116.3468
0
VERTEX
8
CUT
10
208.5530
20
116.3459
0
VERTEX
8
CUT
10
210.1907
20
113.9619
0
VERTEX
8
CUT
10
210.2052
20
113.9370
0
VERTEX
8
CUT
10
210.2092
20
113.9300
0
VERTEX
8
CUT
10
210.2162
20
113.9181
0
VERTEX
8
CUT
10
210.2231
20
113.9062
0
VERTEX
8
CUT
10
211.4751
20
111.2257
0
VERTEX
8
CUT
10
211.4888
20
111.1901
0
VERTEX
8
CUT
10
212.2615
20
108.1785
0
VERTEX
8
CUT
10
212.5355
20
104.9721
0
VERTEX
8
CUT
10
212.3256
20
102.5141
0
VERTEX
8
CUT
10
211.7788
20
100.0965
0
VERTEX
8
CUT
10
210.8833
20
97.7713
0
VERTEX
8
CUT
10
209.6423
20
95.5901
0
VERTEX
8
CUT
10
208.1492
20
93.5741
0
VERTEX
8
CUT
10
206.2772
20
91.7003
0
VERTEX
8
CUT
10
204.1974
20
90.0834
0
VERTEX
8
CUT
10
202.9330
20
89.3368
0
VERTEX
8
CUT
10
202.1506
20
88.9237
0
VERTEX
8
CUT
10
202.1398
20
88.9180
0
VERTEX
8
CUT
10
202.0694
20
88.8808
0
VERTEX
8
CUT
10
201.3588
20
88.5056
0
VERTEX
8
CUT
10
199.9160
20
87.9286
0
VERTEX
8
CUT
10
196.0562
20
86.9173
0
VERTEX
8
CUT
10
191.3720
20
86.4307
0
VERTEX
8
CUT
10
190.6918
20
86.1441
0
VERTEX
8
CUT
10
190.5978
20
85.7870
0
VERTEX
8
CUT
10
191.0595
20
84.2991
0
VERTEX
8
CUT
10
191.0603
20
84.2920
0
VERTEX
8
CUT
10
191.1118
20
83.1763
0
VERTEX
8
CUT
10
191.1137
20
83.1350
0
VERTEX
8
CUT
10
191.1285
20
82.8151
0
VERTEX
8
CUT
10
191.1684
20
81.9520
0
VERTEX
8
CUT
10
190.8433
20
79.5302
0
VERTEX
8
CUT
10
190.2107
20
77.7901
0
VERTEX
8
CUT
10
190.2105
20
77.7898
0
VERTEX
8
CUT
10
190.2097
20
77.7884
0
VERTEX
8
CUT
10
190.1964
20
77.7645
0
VERTEX
8
CUT
10
190.1176
20
77.6235
0
VERTEX
8
CUT
10
189.1083
20
76.0435
0
VERTEX
8
CUT
10
187.4693
20
74.4007
0
VERTEX
8
CUT
10
187.3840
20
74.3182
0
VERTEX
8
CUT
10
185.5021
20
73.1763
0
VERTEX
8
CUT
10
183.4056
20
72.4151
0
VERTEX
8
CUT
10
181.0984
20
72.0673
0
VERTEX
8
CUT
10
178.7020
20
72.1593
0
VERTEX
8
CUT
10
176.3028
20
72.6744
0
VERTEX
8
CUT
10
173.0615
20
74.0396
0
VERTEX
8
CUT
10
172.6834
20
73.9054
0
VERTEX
8
CUT
10
172.6402
20
73.4739
0
VERTEX
8
CUT
10
175.0572
20
70.1627
0
VERTEX
8
CUT
10
180.0682
20
64.1861
0
VERTEX
8
CUT
10
185.8410
20
57.7790
0
VERTEX
8
CUT
10
189.7873
20
53.8542
0
VERTEX
8
CUT
10
190.8240
20
52.7969
0
VERTEX
8
CUT
10
191.0031
20
52.6451
0
VERTEX
8
CUT
10
191.5491
20
52.1021
0
VERTEX
8
CUT
10
194.2946
20
49.6893
0
VERTEX
8
CUT
10
195.6577
20
48.7002
0
VERTEX
8
CUT
10
196.1405
20
48.2910
0
VERTEX
8
CUT
10
197.6469
20
47.2567
0
VERTEX
8
CUT
10
199.3561
20
46.0165
0
VERTEX
8
CUT
10
201.7940
20
44.6651
0
VERTEX
8
CUT
10
206.5814
20
42.9405
0
VERTEX
8
CUT
10
209.1123
20
42.4535
0
VERTEX
8
CUT
10
212.8682
20
42.4593
0
VERTEX
8
CUT
10
214.6015
20
42.7836
0
VERTEX
8
CUT
10
216.2336
20
43.3476
0
VERTEX
8
CUT
10
219.0474
20
45.1237
0
VERTEX
8
CUT
10
220.0820
20
46.2468
0
VERTEX
8
CUT
10
220.9079
20
47.5449
0
VERTEX
8
CUT
10
221.5469
20
49.5932
0
VERTEX
8
CUT
10
221.5397
20
49.8699
0
VERTEX
8
CUT
10
221.6418
20
50.2174
0
VERTEX
8
CUT
10
221.4995
20
51.4280
0
VERTEX
8
CUT
10
221.4941
20
51.6387
0
VERTEX
8
CUT
10
221.4669
20
51.7054
0
VERTEX
8
CUT
10
221.4594
20
51.7693
0
VERTEX
8
CUT
10
221.2110
20
52.3337
0
VERTEX
8
CUT
10
220.8195
20
53.2948
0
VERTEX
8
CUT
10
219.5814
20
54.3033
0
VERTEX
8
CUT
10
218.6019
20
54.4492
0
VERTEX
8
CUT
10
218.4386
20
54.0575
0
VERTEX
8
CUT
10
218.9158
20
51.9220
0
VERTEX
8
CUT
10
218.8464
20
51.3384
0
VERTEX
8
CUT
10
218.8252
20
51.2633
0
VERTEX
8
CUT
10
218.3461
20
50.2364
0
VERTEX
8
CUT
10
217.4012
20
49.3589
0
VERTEX
8
CUT
10
216.1379
20
48.7590
0
VERTEX
8
CUT
10
214.8785
20
48.4823
0
VERTEX
8
CUT
10
214.2276
20
48.4826
0
VERTEX
8
CUT
10
213.5593
20
48.6020
0
VERTEX
8
CUT
10
212.4039
20
49.0806
0
VERTEX
8
CUT
10
211.3007
20
49.8411
0
VERTEX
8
CUT
10
210.4871
20
50.8434
0
VERTEX
8
CUT
10
209.9342
20
51.9753
0
VERTEX
8
CUT
10
209.6687
20
53.3254
0
VERTEX
8
CUT
10
209.6676
20
54.3877
0
VERTEX
8
CUT
10
209.7157
20
54.7469
0
VERTEX
8
CUT
10
209.7378
20
54.9116
0
VERTEX
8
CUT
10
209.7493
20
54.9977
0
VERTEX
8
CUT
10
209.7644
20
55.1105
0
VERTEX
8
CUT
10
209.9779
20
56.0898
0
VERTEX
8
CUT
10
210.0073
20
56.1635
0
VERTEX
8
CUT
10
210.5705
20
57.4678
0
VERTEX
8
CUT
10
211.7127
20
59.0747
0
VERTEX
8
CUT
10
213.9334
20
60.6868
0
VERTEX
8
CUT
10
215.9805
20
61.6041
0
VERTEX
8
CUT
10
216.0813
20
61.6286
0
VERTEX
8
CUT
10
217.5373
20
61.8103
0
VERTEX
8
CUT
10
220.1617
20
61.6575
0
VERTEX
8
CUT
10
221.9565
20
61.3446
0
VERTEX
8
CUT
10
223.4842
20
60.7464
0
VERTEX
8
CUT
10
224.4712
20
60.0795
0
VERTEX
8
CUT
10
225.0459
20
59.6472
0
VERTEX
8
CUT
10
225.6074
20
59.1041
0
VERTEX
8
CUT
10
226.5032
20
58.1076
0
VERTEX
8
CUT
10
226.5872
20
58.0141
0
VERTEX
8
CUT
10
226.6475
20
57.9470
0
VERTEX
8
CUT
10
226.7495
20
57.8336
0
VERTEX
8
CUT
10
227.9171
20
55.8982
0
VERTEX
8
CUT
10
228.8564
20
53.2321
0
VERTEX
8
CUT
10
229.1099
20
51.7697
0
VERTEX
8
CUT
10
229.0715
20
49.1135
0
VERTEX
8
CUT
10
228.4964
20
46.8753
0
VERTEX
8
CUT
10
227.4248
20
44.0583
0
VERTEX
8
CUT
10
227.5853
20
43.7240
0
VERTEX
8
CUT
10
228.4095
20
43.5275
0
VERTEX
8
CUT
10
228.8058
20
43.0528
0
VERTEX
8
CUT
10
228.9882
20
42.3359
0
VERTEX
8
CUT
10
228.8157
20
41.5800
0
VERTEX
8
CUT
10
228.2475
20
40.9362
0
VERTEX
8
CUT
10
227.3504
20
40.3760
0
VERTEX
8
CUT
10
216.4682
20
35.4024
0
VERTEX
8
CUT
10
213.5588
20
34.9003
0
VERTEX
8
CUT
10
209.4211
20
34.8991
0
VERTEX
8
CUT
10
205.3280
20
35.6381
0
VERTEX
8
CUT
10
201.0686
20
37.3433
0
VERTEX
8
CUT
10
197.5363
20
39.3545
0
VERTEX
8
CUT
10
194.1431
20
41.8692
0
VERTEX
8
CUT
10
191.9754
20
43.8468
0
VERTEX
8
CUT
10
191.5513
20
43.8960
0
VERTEX
8
CUT
10
191.3400
20
43.4898
0
VERTEX
8
CUT
10
191.9932
20
41.1903
0
VERTEX
8
CUT
10
192.3617
20
38.9000
0
VERTEX
8
CUT
10
192.5372
20
35.5852
0
VERTEX
8
CUT
10
192.5280
20
33.7952
0
VERTEX
8
CUT
10
192.3649
20
30.3670
0
VERTEX
8
CUT
10
192.3243
20
30.1391
0
VERTEX
8
CUT
10
191.4702
20
26.7065
0
VERTEX
8
CUT
10
189.8887
20
23.2415
0
VERTEX
8
CUT
10
188.7717
20
21.6644
0
VERTEX
8
CUT
10
187.8194
20
21.2604
0
VERTEX
8
CUT
10
184.9298
20
20.8461
0
VERTEX
8
CUT
10
182.6889
20
19.9916
0
VERTEX
8
CUT
10
182.0308
20
20.0383
0
VERTEX
8
CUT
10
180.5490
20
21.1365
0
VERTEX
8
CUT
10
180.0280
20
21.7895
0
VERTEX
8
CUT
10
179.9453
20
22.1826
0
VERTEX
8
CUT
10
180.3910
20
22.9160
0
VERTEX
8
CUT
10
182.5079
20
25.1864
0
VERTEX
8
CUT
10
184.3580
20
27.9400
0
VERTEX
8
CUT
10
185.5982
20
31.0419
0
VERTEX
8
CUT
10
186.0483
20
32.7766
0
VERTEX
8
CUT
10
186.5022
20
36.5830
0
VERTEX
8
CUT
10
186.5035
20
36.7090
0
VERTEX
8
CUT
10
186.5272
20
36.8970
0
VERTEX
8
CUT
10
186.5089
20
37.2566
0
VERTEX
8
CUT
10
186.5319
20
39.5829
0
VERTEX
8
CUT
10
186.2350
20
42.4282
0
VERTEX
8
CUT
10
185.5787
20
45.2161
0
VERTEX
8
CUT
10
184.5141
20
48.0781
0
VERTEX
8
CUT
10
183.0283
20
51.0794
0
VERTEX
8
CUT
10
182.7206
20
51.5483
0
VERTEX
8
CUT
10
182.6536
20
51.6761
0
VERTEX
8
CUT
10
179.6412
20
56.2840
0
VERTEX
8
CUT
10
179.4152
20
56.5849
0
VERTEX
8
CUT
10
178.4116
20
58.1142
0
VERTEX
8
CUT
10
167.8992
20
72.1092
0
VERTEX
8
CUT
10
167.5133
20
72.1895
0
VERTEX
8
CUT
10
167.2632
20
71.9288
0
VERTEX
8
CUT
10
166.7787
20
68.3430
0
VERTEX
8
CUT
10
166.1472
20
66.7567
0
VERTEX
8
CUT
10
165.3300
20
65.4459
0
VERTEX
8
CUT
10
164.0348
20
64.2676
0
VERTEX
8
CUT
10
163.6693
20
64.1460
0
VERTEX
8
CUT
10
163.4948
20
64.1644
0
VERTEX
8
CUT
10
161.0693
20
64.9372
0
VERTEX
8
CUT
10
159.9544
20
65.4911
0
VERTEX
8
CUT
10
158.8662
20
66.1960
0
VERTEX
8
CUT
10
157.0810
20
67.8356
0
VERTEX
8
CUT
10
155.8984
20
69.6253
0
VERTEX
8
CUT
10
155.2461
20
71.3516
0
VERTEX
8
CUT
10
154.5565
20
72.4596
0
VERTEX
8
CUT
10
154.2640
20
73.6288
0
VERTEX
8
CUT
10
154.1505
20
75.3349
0
VERTEX
8
CUT
10
153.7297
20
75.6372
0
VERTEX
8
CUT
10
152.1952
20
74.4571
0
VERTEX
8
CUT
10
151.3865
20
74.0916
0
VERTEX
8
CUT
10
151.3842
20
73.2115
0
VERTEX
8
CUT
10
152.0115
20
72.3151
0
VERTEX
8
CUT
10
152.1989
20
71.2037
0
VERTEX
8
CUT
10
151.8881
20
70.3632
0
VERTEX
8
CUT
10
150.6616
20
68.8358
0
VERTEX
8
CUT
10
150.8434
20
67.3574
0
VERTEX
8
CUT
10
150.6172
20
66.3930
0
VERTEX
8
CUT
10
148.2835
20
61.5124
0
VERTEX
8
CUT
10
146.2751
20
58.2840
0
VERTEX
8
CUT
10
145.3172
20
57.0213
0
VERTEX
8
CUT
10
144.7800
20
56.3883
0
VERTEX
8
CUT
10
144.6713
20
56.2604
0
VERTEX
8
CUT
10
144.6007
20
56.1771
0
VERTEX
8
CUT
10
144.4599
20
56.0113
0
VERTEX
8
CUT
10
142.3912
20
53.7209
0
VERTEX
8
CUT
10
140.0045
20
51.5813
0
VERTEX
8
CUT
10
138.9892
20
50.6928
0
VERTEX
8
CUT
10
137.0474
20
49.3381
0
VERTEX
8
CUT
10
136.1875
20
48.8055
0
VERTEX
8
CUT
10
135.9867
20
48.6812
0
VERTEX
8
CUT
10
135.8855
20
48.6185
0
VERTEX
8
CUT
10
135.6502
20
48.4727
0
VERTEX
8
CUT
10
134.7740
20
47.9917
0
VERTEX
8
CUT
10
134.1595
20
47.7478
0
VERTEX
8
CUT
10
133.9335
20
47.6581
0
VERTEX
8
CUT
10
133.8044
20
47.6068
0
VERTEX
8
CUT
10
133.1964
20
47.3655
0
VERTEX
8
CUT
10
131.1343
20
46.6139
0
VERTEX
8
CUT
10
123.4099
20
44.4728
0
VERTEX
8
CUT
10
122.3100
20
43.9244
0
VERTEX
8
CUT
10
121.4409
20
43.5601
0
VERTEX
8
CUT
10
121.1173
20
43.3298
0
VERTEX
8
CUT
10
120.3794
20
42.9619
0
VERTEX
8
CUT
10
118.8279
20
41.6547
0
VERTEX
8
CUT
10
117.4654
20
40.0767
0
VERTEX
8
CUT
10
116.5232
20
38.3885
0
VERTEX
8
CUT
10
115.9364
20
36.5526
0
VERTEX
8
CUT
10
115.6729
20
33.4748
0
VERTEX
8
CUT
10
115.9169
20
31.4710
0
VERTEX
8
CUT
10
116.5106
20
29.7640
0
VERTEX
8
CUT
10
118.0523
20
27.4365
0
VERTEX
8
CUT
10
119.1603
20
26.3624
0
VERTEX
8
CUT
10
121.6167
20
24.9339
0
VERTEX
8
CUT
10
122.3125
20
24.7825
0
VERTEX
8
CUT
10
122.7215
20
24.6059
0
VERTEX
8
CUT
10
123.2213
20
24.5848
0
VERTEX
8
CUT
10
124.4618
20
24.3149
0
VERTEX
8
CUT
10
126.0899
20
24.3153
0
VERTEX
8
CUT
10
127.3457
20
24.5647
0
VERTEX
8
CUT
10
127.9055
20
24.6116
0
VERTEX
8
CUT
10
128.2597
20
24.7461
0
VERTEX
8
CUT
10
129.3601
20
24.9646
0
VERTEX
8
CUT
10
131.3112
20
25.8123
0
VERTEX
8
CUT
10
132.2721
20
26.8149
0
VERTEX
8
CUT
10
133.6207
20
28.7763
0
VERTEX
8
CUT
10
134.2107
20
30.5840
0
VERTEX
8
CUT
10
133.8256
20
32.1124
0
VERTEX
8
CUT
10
133.2840
20
32.9194
0
VERTEX
8
CUT
10
132.8826
20
33.1558
0
VERTEX
8
CUT
10
132.3593
20
32.8200
0
VERTEX
8
CUT
10
131.2821
20
31.0960
0
VERTEX
8
CUT
10
129.9967
20
30.3779
0
VERTEX
8
CUT
10
128.0591
20
30.3157
0
VERTEX
8
CUT
10
127.1916
20
30.6875
0
VERTEX
8
CUT
10
126.6253
20
31.2129
0
VERTEX
8
CUT
10
126.0906
20
31.7091
0
VERTEX
8
CUT
10
126.0537
20
31.7433
0
VERTEX
8
CUT
10
125.9052
20
31.8811
0
VERTEX
8
CUT
10
125.4694
20
32.6493
0
VERTEX
8
CUT
10
125.4656
20
32.6579
0
VERTEX
8
CUT
10
125.2692
20
33.4820
0
VERTEX
8
CUT
10
125.3227
20
35.5748
0
VERTEX
8
CUT
10
125.6893
20
36.7667
0
VERTEX
8
CUT
10
127.0024
20
38.5683
0
VERTEX
8
CUT
10
127.9954
20
39.3111
0
VERTEX
8
CUT
10
129.1985
20
39.8788
0
VERTEX
8
CUT
10
130.5316
20
40.2782
0
VERTEX
8
CUT
10
132.3809
20
40.4748
0
VERTEX
8
CUT
10
133.4642
20
40.4246
0
VERTEX
8
CUT
10
133.9359
20
40.4028
0
VERTEX
8
CUT
10
134.1142
20
40.3946
0
VERTEX
8
CUT
10
134.3455
20
40.3838
0
VERTEX
8
CUT
10
136.2267
20
40.0011
0
VERTEX
8
CUT
10
138.9435
20
38.6881
0
VERTEX
8
CUT
10
141.0883
20
36.8371
0
VERTEX
8
CUT
10
141.1740
20
36.7527
0
VERTEX
8
CUT
10
142.8263
20
34.3457
0
VERTEX
8
CUT
10
143.9622
20
31.7431
0
VERTEX
8
CUT
10
144.5491
20
29.0421
0
VERTEX
8
CUT
10
144.5836
20
26.3099
0
VERTEX
8
CUT
10
144.0655
20
23.6675
0
VERTEX
8
CUT
10
143.1320
20
21.2710
0
VERTEX
8
CUT
10
141.9516
20
19.4163
0
VERTEX
8
CUT
10
140.6879
20
18.3196
0
VERTEX
8
CUT
10
139.2749
20
17.9579
0
VERTEX
8
CUT
10
136.7269
20
16.7642
0
VERTEX
8
CUT
10
135.1405
20
16.7052
0
VERTEX
8
CUT
10
134.4096
20
17.0460
0
VERTEX
8
CUT
10
134.0513
20
17.5732
0
VERTEX
8
CUT
10
134.0106
20
17.9314
0
VERTEX
8
CUT
10
134.2604
20
18.4570
0
VERTEX
8
CUT
10
136.0833
20
19.9813
0
VERTEX
8
CUT
10
137.0807
20
21.5707
0
VERTEX
8
CUT
10
138.5688
20
25.9404
0
VERTEX
8
CUT
10
138.6666
20
27.1798
0
VERTEX
8
CUT
10
138.3399
20
27.5101
0
VERTEX
8
CUT
10
137.9470
20
27.3295
0
VERTEX
8
CUT
10
135.6826
20
23.7626
0
VERTEX
8
CUT
10
132.1714
20
20.6869
0
VERTEX
8
CUT
10
131.0306
20
19.8961
0
VERTEX
8
CUT
10
130.9731
20
19.8578
0
VERTEX
8
CUT
10
130.9718
20
19.8572
0
VERTEX
8
CUT
10
130.9716
20
19.8572
0
VERTEX
8
CUT
10
130.9714
20
19.8570
0
VERTEX
8
CUT
10
130.9707
20
19.8567
0
VERTEX
8
CUT
10
129.4056
20
19.1826
0
VERTEX
8
CUT
10
127.5168
20
19.5640
0
VERTEX
8
CUT
10
125.5298
20
17.9054
0
VERTEX
8
CUT
10
122.4509
20
19.0290
0
VERTEX
8
CUT
10
114.3783
20
20.0692
0
VERTEX
8
CUT
10
112.2791
20
22.3607
0
VERTEX
8
CUT
10
110.8671
20
24.3854
0
VERTEX
8
CUT
10
109.7134
20
26.8154
0
VERTEX
8
CUT
10
109.7095
20
26.8248
0
VERTEX
8
CUT
10
109.6835
20
26.8874
0
VERTEX
8
CUT
10
109.5976
20
27.0940
0
VERTEX
8
CUT
10
109.3316
20
27.7342
0
VERTEX
8
CUT
10
108.6946
20
30.2544
0
VERTEX
8
CUT
10
108.4778
20
33.3217
0
VERTEX
8
CUT
10
108.7880
20
36.9506
0
VERTEX
8
CUT
10
109.1882
20
38.6348
0
VERTEX
8
CUT
10
110.4508
20
41.7618
0
VERTEX
8
CUT
10
112.2548
20
44.4093
0
VERTEX
8
CUT
10
113.0865
20
45.3184
0
VERTEX
8
CUT
10
114.9612
20
47.3030
0
VERTEX
8
CUT
10
115.2893
20
47.8541
0
VERTEX
8
CUT
10
115.1109
20
48.1763
0
VERTEX
8
CUT
10
113.7616
20
48.7739
0
VERTEX
8
CUT
10
112.7995
20
49.5447
0
VERTEX
8
CUT
10
111.0901
20
51.6724
0
VERTEX
8
CUT
10
110.7845
20
52.6202
0
VERTEX
8
CUT
10
110.7210
20
53.7858
0
VERTEX
8
CUT
10
110.9534
20
54.6854
0
VERTEX
8
CUT
10
111.6448
20
55.4540
0
VERTEX
8
CUT
10
111.1656
20
55.9657
0
VERTEX
8
CUT
10
111.1874
20
56.2000
0
VERTEX
8
CUT
10
112.4296
20
56.4641
0
VERTEX
8
CUT
10
112.5967
20
57.4937
0
VERTEX
8
CUT
10
112.9267
20
58.0255
0
VERTEX
8
CUT
10
113.9448
20
59.1712
0
VERTEX
8
CUT
10
114.5208
20
59.5030
0
VERTEX
8
CUT
10
116.8503
20
59.6885
0
VERTEX
8
CUT
10
118.7279
20
60.1996
0
VERTEX
8
CUT
10
123.0340
20
60.9291
0
VERTEX
8
CUT
10
125.8397
20
62.0651
0
VERTEX
8
CUT
10
127.7409
20
62.5793
0
VERTEX
8
CUT
10
131.7977
20
64.8171
0
VERTEX
8
CUT
10
133.3221
20
65.3181
0
VERTEX
8
CUT
10
134.2600
20
64.6929
0
VERTEX
8
CUT
10
134.6927
20
63.8184
0
VERTEX
8
CUT
10
134.4050
20
63.2827
0
VERTEX
8
CUT
10
133.0954
20
62.3079
0
VERTEX
8
CUT
10
130.1317
20
61.0607
0
VERTEX
8
CUT
10
127.8523
20
60.8893
0
VERTEX
8
CUT
10
126.7592
20
59.5985
0
VERTEX
8
CUT
10
125.5109
20
58.8845
0
VERTEX
8
CUT
10
124.3527
20
58.7998
0
VERTEX
8
CUT
10
123.3943
20
59.5020
0
VERTEX
8
CUT
10
123.0481
20
59.5217
0
VERTEX
8
CUT
10
122.4679
20
58.3960
0
VERTEX
8
CUT
10
121.8517
20
57.8369
0
VERTEX
8
CUT
10
118.5412
20
56.5561
0
VERTEX
8
CUT
10
116.3381
20
54.8936
0
VERTEX
8
CUT
10
116.2095
20
54.5911
0
VERTEX
8
CUT
10
116.3884
20
54.2759
0
VERTEX
8
CUT
10
117.2007
20
53.9158
0
VERTEX
8
CUT
10
119.1778
20
53.4632
0
VERTEX
8
CUT
10
120.7136
20
53.3412
0
VERTEX
8
CUT
10
121.2814
20
53.2508
0
VERTEX
8
CUT
10
122.0943
20
53.2315
0
VERTEX
8
CUT
10
122.3855
20
53.2084
0
VERTEX
8
CUT
10
122.8955
20
53.1291
0
VERTEX
8
CUT
10
123.4901
20
53.1207
0
VERTEX
8
CUT
10
124.4848
20
53.0417
0
VERTEX
8
CUT
10
128.3485
20
53.3681
0
VERTEX
8
CUT
10
130.1407
20
53.7841
0
VERTEX
8
CUT
10
133.5216
20
55.1857
0
VERTEX
8
CUT
10
136.7895
20
57.3705
0
VERTEX
8
CUT
10
139.5111
20
59.8803
0
VERTEX
8
CUT
10
141.6592
20
62.4761
0
VERTEX
8
CUT
10
143.5518
20
65.1783
0
VERTEX
8
CUT
10
144.2544
20
66.4015
0
VERTEX
8
CUT
10
144.8221
20
67.9068
0
VERTEX
8
CUT
10
144.4717
20
68.2858
0
VERTEX
8
CUT
10
143.8385
20
68.1668
0
VERTEX
8
CUT
10
141.9416
20
68.6492
0
VERTEX
8
CUT
10
141.0844
20
68.4577
0
VERTEX
8
CUT
10
140.4480
20
67.9600
0
VERTEX
8
CUT
10
140.0225
20
67.3047
0
VERTEX
8
CUT
10
139.7630
20
65.8858
0
VERTEX
8
CUT
10
139.3726
20
65.1376
0
VERTEX
8
CUT
10
138.9312
20
64.8485
0
VERTEX
8
CUT
10
137.9390
20
64.7480
0
VERTEX
8
CUT
10
136.5131
20
65.0865
0
VERTEX
8
CUT
10
135.8853
20
65.4686
0
VERTEX
8
CUT
10
135.5342
20
66.0489
0
VERTEX
8
CUT
10
135.5028
20
66.7998
0
VERTEX
8
CUT
10
136.2482
20
68.0436
0
VERTEX
8
CUT
10
136.9429
20
68.5828
0
VERTEX
8
CUT
10
137.8148
20
68.9398
0
VERTEX
8
CUT
10
140.1421
20
69.2307
0
VERTEX
8
CUT
10
140.2534
20
71.4925
0
VERTEX
8
CUT
10
142.2533
20
74.0062
0
VERTEX
8
CUT
10
144.6919
20
72.7949
0
VERTEX
8
CUT
10
145.8612
20
72.5708
0
VERTEX
8
CUT
10
146.2876
20
72.8356
0
VERTEX
8
CUT
10
146.5190
20
73.3230
0
VERTEX
8
CUT
10
146.4315
20
75.2888
0
VERTEX
8
CUT
10
146.6157
20
75.6866
0
VERTEX
8
CUT
10
150.1341
20
75.7489
0
VERTEX
8
CUT
10
150.4400
20
75.9606
0
VERTEX
8
CUT
10
150.3387
20
76.5364
0
VERTEX
8
CUT
10
149.8830
20
77.1445
0
VERTEX
8
CUT
10
148.3990
20
78.1235
0
VERTEX
8
CUT
10
148.3392
20
79.2656
0
VERTEX
8
CUT
10
149.2396
20
81.0387
0
VERTEX
8
CUT
10
152.4685
20
84.2330
0
VERTEX
8
CUT
10
152.3339
20
84.6726
0
VERTEX
8
CUT
10
150.5622
20
85.7524
0
VERTEX
8
CUT
10
150.2831
20
86.6790
0
VERTEX
8
CUT
10
150.6513
20
87.6809
0
VERTEX
8
CUT
10
152.5251
20
90.1428
0
VERTEX
8
CUT
10
153.2285
20
92.8791
0
VERTEX
8
CUT
10
152.7860
20
93.9528
0
VERTEX
8
CUT
10
152.8992
20
94.5144
0
VERTEX
8
CUT
10
153.3474
20
94.9613
0
VERTEX
8
CUT
10
154.8133
20
95.5183
0
VERTEX
8
CUT
10
155.5042
20
96.3232
0
VERTEX
8
CUT
10
156.1436
20
99.2364
0
VERTEX
8
CUT
10
157.1025
20
101.1359
0
VERTEX
8
CUT
10
157.0769
20
104.2869
0
VERTEX
8
CUT
10
157.8616
20
106.5884
0
VERTEX
8
CUT
10
157.5302
20
112.0551
0
VERTEX
8
CUT
10
157.7722
20
114.4409
0
VERTEX
8
CUT
10
157.6865
20
115.7424
0
VERTEX
8
CUT
10
157.0501
20
117.6398
0
VERTEX
8
CUT
10
155.7235
20
119.3933
0
VERTEX
8
CUT
10
155.4737
20
120.4142
0
VERTEX
8
CUT
10
155.5358
20
122.8861
0
VERTEX
8
CUT
10
155.6040
20
123.3005
0
VERTEX
8
CUT
10
155.6218
20
123.4082
0
VERTEX
8
CUT
10
155.6391
20
123.5137
0
VERTEX
8
CUT
10
155.6778
20
123.7490
0
VERTEX
8
CUT
10
156.2034
20
126.7821
0
VERTEX
8
CUT
10
158.0533
20
133.1540
0
VERTEX
8
CUT
10
160.2120
20
137.9620
0
VERTEX
8
CUT
10
162.6582
20
141.7795
0
VERTEX
8
CUT
10
163.1852
20
142.4973
0
VERTEX
8
CUT
10
163.2141
20
142.5367
0
VERTEX
8
CUT
10
163.2910
20
142.6414
0
VERTEX
8
CUT
10
163.4539
20
142.8632
0
VERTEX
8
CUT
10
164.0970
20
143.6476
0
VERTEX
8
CUT
10
164.9451
20
144.3170
0
VERTEX
8
CUT
10
166.0414
20
145.7720
0
VERTEX
8
CUT
10
168.0484
20
147.1750
0
VERTEX
8
CUT
10
169.3397
20
148.4353
0
VERTEX
8
CUT
10
170.4620
20
149.2149
0
VERTEX
8
CUT
10
173.6177
20
151.0650
0
VERTEX
8
CUT
10
177.3123
20
152.8152
0
VERTEX
8
CUT
10
178.9787
20
153.4140
0
VERTEX
8
CUT
10
179.6103
20
153.5557
0
VERTEX
8
CUT
10
183.0379
20
154.8003
0
VERTEX
8
CUT
10
194.5782
20
157.7911
0
VERTEX
8
CUT
10
203.4096
20
160.3015
0
VERTEX
8
CUT
10
210.6271
20
162.7177
0
VERTEX
8
CUT
10
219.7180
20
166.3424
0
VERTEX
8
CUT
10
223.8815
20
168.2735
0
VERTEX
8
CUT
10
229.5210
20
171.3197
0
VERTEX
8
CUT
10
233.5677
20
173.8267
0
VERTEX
8
CUT
10
238.6014
20
177.5656
0
VERTEX
8
CUT
10
243.7566
20
182.2693
0
VERTEX
8
CUT
10
248.2674
20
187.1107
0
VERTEX
8
CUT
10
250.0583
20
189.3881
0
VERTEX
8
CUT
10
252.0257
20
192.3521
0
VERTEX
8
CUT
10
253.8108
20
194.2942
0
VERTEX
8
CUT
10
253.8944
20
195.4052
0
VERTEX
8
CUT
10
254.6297
20
196.8924
0
VERTEX
8
CUT
10
255.3781
20
197.7298
0
VERTEX
8
CUT
10
256.6653
20
198.5308
0
VERTEX
8
CUT
10
257.3440
20
199.2875
0
VERTEX
8
CUT
10
257.4176
20
199.9843
0
VERTEX
8
CUT
10
256.5983
20
200.3905
0
VERTEX
8
CUT
10
256.4872
20
200.9401
0
VERTEX
8
CUT
10
257.7658
20
203.6941
0
VERTEX
8
CUT
10
258.3496
20
206.9491
0
VERTEX
8
CUT
10
258.8006
20
207.7152
0
VERTEX
8
CUT
10
260.0173
20
208.9649
0
VERTEX
8
CUT
10
260.0388
20
209.4444
0
VERTEX
8
CUT
10
259.4239
20
211.0599
0
VERTEX
8
CUT
10
259.2666
20
212.2096
0
VERTEX
8
CUT
10
259.6075
20
213.8149
0
VERTEX
8
CUT
10
260.5623
20
215.3765
0
VERTEX
8
CUT
10
260.4803
20
216.5307
0
VERTEX
8
CUT
10
259.9607
20
218.5136
0
VERTEX
8
CUT
10
260.8345
20
220.7639
0
VERTEX
8
CUT
10
260.9486
20
221.6128
0
VERTEX
8
CUT
10
260.5118
20
222.5642
0
VERTEX
8
CUT
10
259.3989
20
223.8948
0
VERTEX
8
CUT
10
259.2034
20
224.3893
0
VERTEX
8
CUT
10
259.2345
20
225.2596
0
VERTEX
8
CUT
10
259.8509
20
226.2461
0
VERTEX
8
CUT
10
261.3883
20
227.3839
0
VERTEX
8
CUT
10
261.9530
20
227.5285
0
VERTEX
8
CUT
10
262.7477
20
227.0703
0
VERTEX
8
CUT
10
264.8294
20
222.9831
0
VERTEX
8
CUT
10
266.9775
20
220.0478
0
VERTEX
8
CUT
10
267.8288
20
218.3455
0
VERTEX
8
CUT
10
268.6185
20
216.1004
0
VERTEX
8
CUT
10
271.9444
20
209.9624
0
VERTEX
8
CUT
10
275.0246
20
202.9527
0
VERTEX
8
CUT
10
275.4134
20
202.7528
0
VERTEX
8
CUT
10
275.7435
20
203.0393
0
VERTEX
8
CUT
10
273.2526
20
209.1902
0
VERTEX
8
CUT
10
269.6268
20
216.8641
0
VERTEX
8
CUT
10
266.8488
20
221.9665
0
VERTEX
8
CUT
10
260.8074
20
231.8130
0
VERTEX
8
CUT
10
256.6416
20
237.6688
0
VERTEX
8
CUT
10
250.4313
20
245.3565
0
VERTEX
8
CUT
10
248.4913
20
247.3988
0
VERTEX
8
CUT
10
245.2581
20
250.8630
0
VERTEX
8
CUT
10
244.2446
20
251.8695
0
VERTEX
8
CUT
10
244.1175
20
252.0033
0
VERTEX
8
CUT
10
243.8344
20
252.2769
0
VERTEX
8
CUT
10
240.8565
20
255.2346
0
VERTEX
8
CUT
10
240.1825
20
255.8063
0
VERTEX
8
CUT
10
239.6093
20
256.3603
0
VERTEX
8
CUT
10
235.8631
20
259.7126
0
VERTEX
8
CUT
10
229.2813
20
264.7840
0
VERTEX
8
CUT
10
222.5057
20
269.4517
0
VERTEX
8
CUT
10
215.4802
20
273.6610
0
VERTEX
8
CUT
10
208.3141
20
277.3947
0
VERTEX
8
CUT
10
200.9793
20
280.6855
0
VERTEX
8
CUT
10
193.4598
20
283.4647
0
VERTEX
8
CUT
10
185.8279
20
285.7964
0
VERTEX
8
CUT
10
179.3973
20
287.2823
0
VERTEX
8
CUT
10
178.9604
20
286.9467
0
VERTEX
8
CUT
10
179.1853
20
286.5407
0
VERTEX
8
CUT
10
181.8593
20
285.4808
0
VERTEX
8
CUT
10
182.8190
20
284.5795
0
VERTEX
8
CUT
10
185.5285
20
284.2625
0
VERTEX
8
CUT
10
186.4123
20
283.8367
0
VERTEX
8
CUT
10
186.7296
20
283.4024
0
VERTEX
8
CUT
10
186.9813
20
282.4719
0
VERTEX
8
CUT
10
186.8913
20
281.3830
0
VERTEX
8
CUT
10
186.5598
20
280.6566
0
VERTEX
8
CUT
10
186.2314
20
280.4259
0
VERTEX
8
CUT
10
185.3644
20
280.4177
0
VERTEX
8
CUT
10
183.9238
20
281.0919
0
VERTEX
8
CUT
10
183.0852
20
282.3897
0
VERTEX
8
CUT
10
182.7061
20
282.2639
0
VERTEX
8
CUT
10
181.9915
20
281.1717
0
VERTEX
8
CUT
10
183.2548
20
278.4938
0
VERTEX
8
CUT
10
184.2695
20
274.4397
0
VERTEX
8
CUT
10
184.5828
20
273.9734
0
VERTEX
8
CUT
10
185.3679
20
274.1012
0
VERTEX
8
CUT
10
186.9448
20
275.0218
0
VERTEX
8
CUT
10
188.4659
20
275.6127
0
VERTEX
8
CUT
10
190.6494
20
276.1892
0
VERTEX
8
CUT
10
192.3017
20
276.4059
0
VERTEX
8
CUT
10
194.3532
20
277.2144
0
VERTEX
8
CUT
10
194.3902
20
277.5066
0
VERTEX
8
CUT
10
194.1790
20
277.7589
0
VERTEX
8
CUT
10
190.7846
20
278.9032
0
VERTEX
8
CUT
10
189.9268
20
279.4960
0
VERTEX
8
CUT
10
189.2648
20
281.2120
0
VERTEX
8
CUT
10
189.0121
20
282.4375
0
VERTEX
8
CUT
10
189.2718
20
283.1654
0
VERTEX
8
CUT
10
189.7424
20
283.3630
0
VERTEX
8
CUT
10
190.4076
20
283.0682
0
VERTEX
8
CUT
10
191.0377
20
282.4817
0
VERTEX
8
CUT
10
191.8019
20
281.0036
0
VERTEX
8
CUT
10
192.3558
20
281.0545
0
VERTEX
8
CUT
10
194.0147
20
281.8374
0
VERTEX
8
CUT
10
194.5223
20
281.8101
0
VERTEX
8
CUT
10
195.6150
20
281.0470
0
VERTEX
8
CUT
10
196.0138
20
279.8380
0
VERTEX
8
CUT
10
196.3182
20
279.4985
0
VERTEX
8
CUT
10
196.6602
20
279.5205
0
VERTEX
8
CUT
10
197.9247
20
280.3460
0
VERTEX
8
CUT
10
198.4931
20
280.3994
0
VERTEX
8
CUT
10
200.0894
20
279.6195
0
VERTEX
8
CUT
10
203.7937
20
278.2482
0
VERTEX
8
CUT
10
204.9074
20
277.5260
0
VERTEX
8
CUT
10
205.6188
20
276.7916
0
VERTEX
8
CUT
10
205.9223
20
275.1818
0
VERTEX
8
CUT
10
206.2833
20
274.7738
0
VERTEX
8
CUT
10
207.0383
20
274.5557
0
VERTEX
8
CUT
10
207.5212
20
273.9390
0
VERTEX
8
CUT
10
207.4993
20
273.6940
0
VERTEX
8
CUT
10
206.8771
20
273.2540
0
VERTEX
8
CUT
10
206.2083
20
273.1149
0
VERTEX
8
CUT
10
205.2585
20
273.2423
0
VERTEX
8
CUT
10
204.3234
20
273.6896
0
VERTEX
8
CUT
10
202.1581
20
272.2486
0
VERTEX
8
CUT
10
201.7903
20
271.6328
0
VERTEX
8
CUT
10
200.9261
20
271.3629
0
VERTEX
8
CUT
10
199.5221
20
271.6909
0
VERTEX
8
CUT
10
198.8786
20
272.5478
0
VERTEX
8
CUT
10
198.1918
20
272.8491
0
VERTEX
8
CUT
10
196.4191
20
272.9337
0
VERTEX
8
CUT
10
195.3762
20
272.5483
0
VERTEX
8
CUT
10
193.2753
20
271.0187
0
VERTEX
8
CUT
10
189.1853
20
269.2152
0
VERTEX
8
CUT
10
187.0617
20
267.9112
0
VERTEX
8
CUT
10
185.1219
20
266.2452
0
VERTEX
8
CUT
10
185.0407
20
266.1852
0
VERTEX
8
CUT
10
184.9452
20
266.0934
0
VERTEX
8
CUT
10
178.0485
20
260.1701
0
VERTEX
8
CUT
10
175.6533
20
258.7618
0
VERTEX
8
CUT
10
173.2321
20
257.9144
0
VERTEX
8
CUT
10
170.3000
20
257.5107
0
VERTEX
8
CUT
10
167.0078
20
257.7827
0
VERTEX
8
CUT
10
165.2919
20
258.1789
0
VERTEX
8
CUT
10
161.9943
20
259.3970
0
VERTEX
8
CUT
10
158.5363
20
261.5987
0
VERTEX
8
CUT
10
158.1419
20
261.6053
0
VERTEX
8
CUT
10
157.9463
20
261.2178
0
VERTEX
8
CUT
10
158.6089
20
258.0463
0
VERTEX
8
CUT
10
158.7353
20
255.7287
0
VERTEX
8
CUT
10
158.5806
20
253.4408
0
VERTEX
8
CUT
10
157.6636
20
249.4187
0
VERTEX
8
CUT
10
156.9939
20
248.0517
0
VERTEX
8
CUT
10
156.9798
20
248.0293
0
VERTEX
8
CUT
10
156.9505
20
247.9829
0
VERTEX
8
CUT
10
156.9320
20
247.9535
0
VERTEX
8
CUT
10
156.8523
20
247.8269
0
VERTEX
8
CUT
10
156.0061
20
246.8896
0
VERTEX
8
CUT
10
154.5298
20
246.3078
0
VERTEX
8
CUT
10
154.4319
20
245.1366
0
VERTEX
8
CUT
10
154.0412
20
244.4944
0
VERTEX
8
CUT
10
153.8947
20
244.3645
0
VERTEX
8
CUT
10
151.2345
20
242.6194
0
VERTEX
8
CUT
10
150.5002
20
242.6352
0
VERTEX
8
CUT
10
150.1697
20
242.9189
0
VERTEX
8
CUT
10
149.8786
20
244.4422
0
VERTEX
8
CUT
10
149.5721
20
244.8159
0
VERTEX
8
CUT
10
148.3820
20
244.8197
0
VERTEX
8
CUT
10
147.5791
20
243.4521
0
VERTEX
8
CUT
10
146.7462
20
242.9948
0
VERTEX
8
CUT
10
145.7909
20
243.3956
0
VERTEX
8
CUT
10
145.1915
20
244.5753
0
VERTEX
8
CUT
10
145.3894
20
245.8845
0
VERTEX
8
CUT
10
146.2658
20
247.2069
0
VERTEX
8
CUT
10
147.6036
20
248.2409
0
VERTEX
8
CUT
10
151.1919
20
250.0605
0
VERTEX
8
CUT
10
151.4579
20
250.4016
0
VERTEX
8
CUT
10
151.8778
20
253.2786
0
VERTEX
8
CUT
10
152.7012
20
256.6892
0
VERTEX
8
CUT
10
151.3811
20
261.7044
0
VERTEX
8
CUT
10
151.0545
20
262.4325
0
VERTEX
8
CUT
10
150.9631
20
262.7229
0
VERTEX
8
CUT
10
150.6585
20
263.3157
0
VERTEX
8
CUT
10
150.3037
20
264.1069
0
VERTEX
8
CUT
10
149.8710
20
264.8487
0
VERTEX
8
CUT
10
149.8655
20
264.8595
0
VERTEX
8
CUT
10
149.8593
20
264.8688
0
VERTEX
8
CUT
10
148.9587
20
266.4128
0
VERTEX
8
CUT
10
147.3112
20
268.5744
0
VERTEX
8
CUT
10
145.3908
20
270.5882
0
VERTEX
8
CUT
10
143.2335
20
272.4483
0
VERTEX
8
CUT
10
140.7395
20
274.1527
0
VERTEX
8
CUT
10
138.0871
20
275.6428
0
VERTEX
8
CUT
10
134.9015
20
277.1466
0
VERTEX
8
CUT
10
133.2703
20
277.6781
0
VERTEX
8
CUT
10
132.9521
20
277.4881
0
VERTEX
8
CUT
10
132.9214
20
277.1533
0
VERTEX
8
CUT
10
134.4372
20
274.9762
0
VERTEX
8
CUT
10
135.3397
20
272.0861
0
VERTEX
8
CUT
10
135.4499
20
269.5616
0
VERTEX
8
CUT
10
135.3671
20
268.8820
0
VERTEX
8
CUT
10
134.9858
20
267.4217
0
VERTEX
8
CUT
10
133.8450
20
264.8051
0
VERTEX
8
CUT
10
132.1900
20
262.7196
0
VERTEX
8
CUT
10
130.3826
20
261.4073
0
VERTEX
8
CUT
10
128.8620
20
261.0276
0
VERTEX
8
CUT
10
127.1376
20
260.2417
0
VERTEX
8
CUT
10
125.9522
20
260.2123
0
VERTEX
8
CUT
10
124.1366
20
261.8368
0
VERTEX
8
CUT
10
119.7211
20
263.1068
0
VERTEX
8
CUT
10
118.0980
20
263.2863
0
VERTEX
8
CUT
10
116.5127
20
262.9554
0
VERTEX
8
CUT
10
115.6569
20
263.0897
0
VERTEX
8
CUT
10
108.0307
20
268.0362
0
VERTEX
8
CUT
10
105.0264
20
269.5244
0
VERTEX
8
CUT
10
103.5563
20
269.9453
0
VERTEX
8
CUT
10
103.2502
20
269.8228
0
VERTEX
8
CUT
10
103.1474
20
269.5096
0
VERTEX
8
CUT
10
104.0159
20
267.3796
0
VERTEX
8
CUT
10
104.4460
20
265.7250
0
VERTEX
8
CUT
10
104.5772
20
264.4929
0
VERTEX
8
CUT
10
104.5740
20
264.2687
0
VERTEX
8
CUT
10
104.5726
20
264.1729
0
VERTEX
8
CUT
10
104.5725
20
264.1655
0
VERTEX
8
CUT
10
104.5714
20
264.0880
0
VERTEX
8
CUT
10
104.4161
20
263.2346
0
VERTEX
8
CUT
10
103.6079
20
261.3353
0
VERTEX
8
CUT
10
102.5656
20
259.7109
0
VERTEX
8
CUT
10
101.1735
20
258.5379
0
VERTEX
8
CUT
10
99.9838
20
258.0051
0
VERTEX
8
CUT
10
98.7098
20
257.7216
0
VERTEX
8
CUT
10
96.2095
20
257.8189
0
VERTEX
8
CUT
10
95.0781
20
258.2273
0
VERTEX
8
CUT
10
94.0745
20
258.8541
0
VERTEX
8
CUT
10
93.1289
20
260.0031
0
VERTEX
8
CUT
10
92.9043
20
260.6665
0
VERTEX
8
CUT
10
93.0259
20
261.4994
0
VERTEX
8
CUT
10
93.5641
20
262.9305
0
VERTEX
8
CUT
10
94.0460
20
263.5164
0
VERTEX
8
CUT
10
94.7741
20
263.7046
0
VERTEX
8
CUT
10
96.3662
20
263.3207
0
VERTEX
8
CUT
10
97.1890
20
264.0597
0
VERTEX
8
CUT
10
97.3746
20
264.8564
0
VERTEX
8
CUT
10
97.1546
20
265.7624
0
VERTEX
8
CUT
10
96.8434
20
266.2393
0
VERTEX
8
CUT
10
95.9363
20
266.9220
0
VERTEX
8
CUT
10
93.8959
20
267.3953
0
VERTEX
8
CUT
10
91.4584
20
266.9554
0
VERTEX
8
CUT
10
88.8278
20
265.6069
0
VERTEX
8
CUT
10
88.1113
20
265.0140
0
VERTEX
8
CUT
10
87.7506
20
264.7655
0
VERTEX
8
CUT
10
87.0405
20
264.1278
0
VERTEX
8
CUT
10
86.2655
20
263.4865
0
VERTEX
8
CUT
10
84.5574
20
261.5016
0
VERTEX
8
CUT
10
83.2603
20
259.4359
0
VERTEX
8
CUT
10
82.3053
20
257.2275
0
VERTEX
8
CUT
10
81.7049
20
254.9294
0
VERTEX
8
CUT
10
81.5004
20
252.6669
0
VERTEX
8
CUT
10
81.6496
20
250.3421
0
VERTEX
8
CUT
10
82.1859
20
248.0773
0
VERTEX
8
CUT
10
84.1540
20
243.3567
0
VERTEX
8
CUT
10
84.7831
20
242.6694
0
VERTEX
8
CUT
10
87.6076
20
240.6251
0
VERTEX
8
CUT
10
88.4825
20
239.6901
0
VERTEX
8
CUT
10
90.3879
20
238.6295
0
VERTEX
8
CUT
10
90.8864
20
238.1171
0
VERTEX
8
CUT
10
91.1116
20
237.6478
0
VERTEX
8
CUT
10
91.0934
20
237.0928
0
VERTEX
8
CUT
10
90.3561
20
236.2482
0
VERTEX
8
CUT
10
89.6789
20
235.8842
0
VERTEX
8
CUT
10
87.9184
20
235.3726
0
VERTEX
8
CUT
10
86.9005
20
235.5373
0
VERTEX
8
CUT
10
85.9207
20
236.4983
0
VERTEX
8
CUT
10
85.6796
20
237.0555
0
VERTEX
8
CUT
10
85.6749
20
237.8112
0
VERTEX
8
CUT
10
85.4312
20
238.1222
0
VERTEX
8
CUT
10
85.0489
20
238.1609
0
VERTEX
8
CUT
10
84.4241
20
237.7629
0
VERTEX
8
CUT
10
83.6438
20
237.8626
0
VERTEX
8
CUT
10
81.1893
20
239.5707
0
VERTEX
8
CUT
10
79.1456
20
240.6835
0
VERTEX
8
CUT
10
74.4615
20
242.6372
0
VERTEX
8
CUT
10
72.0385
20
243.3258
0
VERTEX
8
CUT
10
69.5781
20
243.7481
0
VERTEX
8
CUT
10
67.1227
20
243.9296
0
VERTEX
8
CUT
10
64.6620
20
243.8419
0
VERTEX
8
CUT
10
62.1644
20
243.5065
0
VERTEX
8
CUT
10
59.7077
20
242.9056
0
VERTEX
8
CUT
10
57.2765
20
242.0629
0
VERTEX
8
CUT
10
54.9089
20
240.9519
0
VERTEX
8
CUT
10
51.3530
20
238.4975
0
VERTEX
8
CUT
10
48.9804
20
236.3039
0
VERTEX
8
CUT
10
47.0528
20
234.1100
0
VERTEX
8
CUT
10
46.3483
20
233.0678
0
VERTEX
8
CUT
10
44.9021
20
230.1465
0
VERTEX
8
CUT
10
44.1237
20
227.3204
0
VERTEX
8
CUT
10
44.1069
20
226.6234
0
VERTEX
8
CUT
10
44.0895
20
226.5430
0
VERTEX
8
CUT
10
44.0311
20
225.3995
0
VERTEX
8
CUT
10
44.0719
20
225.1795
0
VERTEX
8
CUT
10
44.0593
20
224.6610
0
VERTEX
8
CUT
10
44.4014
20
223.3990
0
VERTEX
8
CUT
10
44.4346
20
223.2198
0
VERTEX
8
CUT
10
44.4779
20
223.1169
0
VERTEX
8
CUT
10
44.6900
20
222.3344
0
VERTEX
8
CUT
10
45.2442
20
221.3357
0
VERTEX
8
CUT
10
45.9147
20
220.6418
0
VERTEX
8
CUT
10
46.9336
20
220.3150
0
VERTEX
8
CUT
10
47.2384
20
220.3465
0
VERTEX
8
CUT
10
47.5697
20
220.3135
0
VERTEX
8
CUT
10
47.6741
20
220.3876
0
VERTEX
8
CUT
10
47.7465
20
220.3989
0
VERTEX
8
CUT
10
47.8938
20
220.4141
0
VERTEX
8
CUT
10
48.4019
20
220.6970
0
VERTEX
8
CUT
10
48.5993
20
221.1066
0
VERTEX
8
CUT
10
48.5539
20
221.3276
0
VERTEX
8
CUT
10
48.5850
20
221.4379
0
VERTEX
8
CUT
10
48.3100
20
222.5176
0
VERTEX
8
CUT
10
48.1832
20
223.1363
0
VERTEX
8
CUT
10
48.1844
20
223.1578
0
VERTEX
8
CUT
10
48.1848
20
223.1645
0
VERTEX
8
CUT
10
48.1852
20
223.1713
0
VERTEX
8
CUT
10
48.1869
20
223.2021
0
VERTEX
8
CUT
10
48.4122
20
223.9008
0
VERTEX
8
CUT
10
49.6273
20
224.9174
0
VERTEX
8
CUT
10
50.7266
20
225.1170
0
VERTEX
8
CUT
10
51.3911
20
224.9794
0
VERTEX
8
CUT
10
52.9844
20
223.9011
0
VERTEX
8
CUT
10
53.7054
20
222.9601
0
VERTEX
8
CUT
10
54.1213
20
222.0798
0
VERTEX
8
CUT
10
54.4562
20
220.6384
0
VERTEX
8
CUT
10
54.1814
20
218.3164
0
VERTEX
8
CUT
10
53.7132
20
217.1008
0
VERTEX
8
CUT
10
52.9677
20
215.9500
0
VERTEX
8
CUT
10
51.9940
20
214.8538
0
VERTEX
8
CUT
10
50.8712
20
213.9548
0
VERTEX
8
CUT
10
49.6600
20
213.3489
0
VERTEX
8
CUT
10
48.2616
20
213.0016
0
VERTEX
8
CUT
10
45.1739
20
212.9939
0
VERTEX
8
CUT
10
42.6361
20
213.8028
0
VERTEX
8
CUT
10
40.5711
20
215.3093
0
VERTEX
8
CUT
10
39.3588
20
216.9555
0
VERTEX
8
CUT
10
38.6060
20
218.3084
0
VERTEX
8
CUT
10
37.8957
20
219.9335
0
VERTEX
8
CUT
10
37.5737
20
220.1020
0
VERTEX
8
CUT
10
37.2526
20
219.9318
0
VERTEX
8
CUT
10
36.4286
20
217.5243
0
VERTEX
8
CUT
10
35.4995
20
213.1777
0
VERTEX
8
CUT
10
35.2261
20
210.7115
0
VERTEX
8
CUT
10
34.9542
20
208.9597
0
VERTEX
8
CUT
10
34.8568
20
207.3805
0
VERTEX
8
CUT
10
34.6847
20
205.8278
0
VERTEX
8
CUT
10
34.6541
20
202.5794
0
VERTEX
8
CUT
10
34.8637
20
199.3881
0
VERTEX
8
CUT
10
35.4140
20
196.2366
0
VERTEX
8
CUT
10
35.4411
20
196.0480
0
VERTEX
8
CUT
10
35.4611
20
195.9669
0
VERTEX
8
CUT
10
35.9136
20
193.3757
0
VERTEX
8
CUT
10
37.8961
20
187.7199
0
VERTEX
8
CUT
10
39.2181
20
185.0427
0
VERTEX
8
CUT
10
40.7686
20
182.4591
0
VERTEX
8
CUT
10
42.9175
20
179.8139
0
VERTEX
8
CUT
10
43.0811
20
179.5790
0
VERTEX
8
CUT
10
43.2601
20
179.3922
0
VERTEX
8
CUT
10
44.0009
20
178.4803
0
VERTEX
8
CUT
10
46.7251
20
175.6359
0
VERTEX
8
CUT
10
50.4870
20
172.4803
0
VERTEX
8
CUT
10
53.2146
20
170.8496
0
VERTEX
8
CUT
10
55.8493
20
169.6198
0
VERTEX
8
CUT
10
58.3833
20
168.8035
0
VERTEX
8
CUT
10
60.7659
20
168.4466
0
VERTEX
8
CUT
10
62.9604
20
168.5361
0
VERTEX
8
CUT
10
64.9720
20
169.0686
0
VERTEX
8
CUT
10
66.7888
20
170.0052
0
VERTEX
8
CUT
10
67.2110
20
170.3790
0
VERTEX
8
CUT
10
67.2358
20
170.3930
0
VERTEX
8
CUT
10
67.3496
20
170.5017
0
VERTEX
8
CUT
10
68.3938
20
171.4262
0
VERTEX
8
CUT
10
68.5599
20
171.6584
0
VERTEX
8
CUT
10
68.7196
20
171.8110
0
VERTEX
8
CUT
10
69.0700
20
172.3713
0
VERTEX
8
CUT
10
69.7830
20
173.3680
0
VERTEX
8
CUT
10
70.4204
20
174.8006
0
VERTEX
8
CUT
10
70.7642
20
176.7831
0
VERTEX
8
CUT
10
70.5750
20
178.3273
0
VERTEX
8
CUT
10
70.1180
20
179.6338
0
VERTEX
8
CUT
10
69.5808
20
180.4949
0
VERTEX
8
CUT
10
69.4197
20
180.7840
0
VERTEX
8
CUT
10
69.2194
20
180.9961
0
VERTEX
8
CUT
10
68.5042
20
181.8052
0
VERTEX
8
CUT
10
68.3533
20
181.9135
0
VERTEX
8
CUT
10
68.2183
20
182.0565
0
VERTEX
8
CUT
10
68.0192
20
182.1532
0
VERTEX
8
CUT
10
67.5342
20
182.5012
0
VERTEX
8
CUT
10
66.3981
20
182.9060
0
VERTEX
8
CUT
10
65.3727
20
182.8968
0
VERTEX
8
CUT
10
64.4836
20
182.4958
0
VERTEX
8
CUT
10
64.0317
20
181.9763
0
VERTEX
8
CUT
10
64.0085
20
181.9527
0
VERTEX
8
CUT
10
64.0093
20
181.9507
0
VERTEX
8
CUT
10
64.0091
20
181.9504
0
VERTEX
8
CUT
10
64.0412
20
181.3100
0
VERTEX
8
CUT
10
64.7002
20
180.0145
0
VERTEX
8
CUT
10
64.8041
20
179.0692
0
VERTEX
8
CUT
10
64.5538
20
177.7878
0
VERTEX
8
CUT
10
63.9355
20
177.0464
0
VERTEX
8
CUT
10
62.4876
20
176.3373
0
VERTEX
8
CUT
10
61.1953
20
176.1594
0
VERTEX
8
CUT
10
59.7563
20
176.6940
0
VERTEX
8
CUT
10
58.5856
20
177.4572
0
VERTEX
8
CUT
10
58.3335
20
177.7297
0
VERTEX
8
CUT
10
57.8753
20
178.3375
0
VERTEX
8
CUT
10
57.3480
20
179.4194
0
VERTEX
8
CUT
10
57.0074
20
181.9901
0
VERTEX
8
CUT
10
57.3578
20
184.3806
0
VERTEX
8
CUT
10
58.3287
20
186.3831
0
VERTEX
8
CUT
10
59.1416
20
187.3304
0
VERTEX
8
CUT
10
61.0855
20
188.8183
0
VERTEX
8
CUT
10
63.1389
20
189.7422
0
VERTEX
8
CUT
10
63.1764
20
189.7514
0
VERTEX
8
CUT
10
63.1797
20
189.7522
0
VERTEX
8
CUT
10
63.1833
20
189.7531
0
VERTEX
8
CUT
10
63.1946
20
189.7559
0
VERTEX
8
CUT
10
65.2687
20
190.0369
0
VERTEX
8
CUT
10
68.6448
20
189.7631
0
VERTEX
8
CUT
10
70.5353
20
189.1470
0
VERTEX
8
CUT
10
72.0795
20
188.1728
0
VERTEX
8
CUT
10
74.2366
20
186.1378
0
VERTEX
8
CUT
10
75.3997
20
184.5648
0
VERTEX
8
CUT
10
76.8640
20
180.9901
0
VERTEX
8
CUT
10
77.3545
20
178.0781
0
VERTEX
8
CUT
10
77.2932
20
175.1963
0
VERTEX
8
CUT
10
76.7107
20
172.4065
0
VERTEX
8
CUT
10
75.6377
20
169.8004
0
VERTEX
8
CUT
10
74.1127
20
167.4447
0
VERTEX
8
CUT
10
72.2346
20
165.5398
0
VERTEX
8
CUT
10
72.0754
20
165.4124
0
VERTEX
8
CUT
10
69.7604
20
163.9288
0
VERTEX
8
CUT
10
67.8339
20
163.0772
0
VERTEX
8
CUT
10
67.6558
20
162.6788
0
VERTEX
8
CUT
10
67.8854
20
162.3881
0
VERTEX
8
CUT
10
68.5651
20
162.2763
0
VERTEX
8
CUT
10
73.1717
20
161.8813
0
VERTEX
8
CUT
10
75.1143
20
161.2121
0
VERTEX
8
CUT
10
76.3738
20
160.3922
0
VERTEX
8
CUT
10
76.7728
20
160.1021
0
VERTEX
8
CUT
10
78.1141
20
158.7321
0
VERTEX
8
CUT
10
79.1470
20
157.0800
0
VERTEX
8
CUT
10
79.2887
20
156.1421
0
VERTEX
8
CUT
10
78.6377
20
155.0050
0
VERTEX
8
CUT
10
77.3391
20
154.0348
0
VERTEX
8
CUT
10
76.5701
20
153.7035
0
VERTEX
8
CUT
10
76.2624
20
153.6065
0
VERTEX
8
CUT
10
75.9730
20
153.5152
0
VERTEX
8
CUT
10
75.7504
20
153.4451
0
VERTEX
8
CUT
10
75.1838
20
153.2664
0
VERTEX
8
CUT
10
74.5732
20
153.1230
0
VERTEX
8
CUT
10
73.0403
20
153.1149
0
VERTEX
8
CUT
10
71.4676
20
153.3641
0
VERTEX
8
CUT
10
69.9508
20
153.9208
0
VERTEX
8
CUT
10
68.4706
20
154.7533
0
VERTEX
8
CUT
10
66.4855
20
156.3388
0
VERTEX
8
CUT
10
66.1493
20
156.3680
0
VERTEX
8
CUT
10
65.9301
20
156.1602
0
VERTEX
8
CUT
10
67.2534
20
151.4738
0
VERTEX
8
CUT
10
67.6174
20
148.8603
0
VERTEX
8
CUT
10
68.1291
20
142.0522
0
VERTEX
8
CUT
10
68.5455
20
139.5755
0
VERTEX
8
CUT
10
69.1709
20
137.7514
0
VERTEX
8
CUT
10
71.0896
20
134.5036
0
VERTEX
8
CUT
10
70.9436
20
134.0949
0
VERTEX
8
CUT
10
69.8574
20
133.3447
0
VERTEX
8
CUT
10
66.8917
20
131.9235
0
VERTEX
8
CUT
10
65.7485
20
131.8018
0
VERTEX
8
CUT
10
65.3261
20
132.1331
0
VERTEX
8
CUT
10
65.0207
20
132.9641
0
VERTEX
8
CUT
10
65.1077
20
133.5295
0
VERTEX
8
CUT
10
65.5704
20
134.1051
0
VERTEX
8
CUT
10
65.5715
20
134.5607
0
VERTEX
8
CUT
10
65.2140
20
135.1409
0
VERTEX
8
CUT
10
64.8567
20
135.2465
0
VERTEX
8
CUT
10
62.9019
20
133.3764
0
VERTEX
8
CUT
10
62.3085
20
131.7701
0
VERTEX
8
CUT
10
61.6411
20
131.0344
0
VERTEX
8
CUT
10
61.0748
20
131.0217
0
VERTEX
8
CUT
10
58.2218
20
132.5025
0
VERTEX
8
CUT
10
57.9083
20
132.1277
0
VERTEX
8
CUT
10
58.3622
20
129.8224
0
VERTEX
8
CUT
10
58.1352
20
129.1512
0
VERTEX
8
CUT
10
57.7144
20
128.8745
0
VERTEX
8
CUT
10
57.3530
20
128.9047
0
VERTEX
8
CUT
10
55.9799
20
129.8286
0
VERTEX
8
CUT
10
54.9324
20
130.9873
0
VERTEX
8
CUT
10
57.3021
20
132.9090
0
VERTEX
8
CUT
10
57.2198
20
133.4509
0
VERTEX
8
CUT
10
57.4685
20
134.1220
0
VERTEX
8
CUT
10
59.5660
20
138.6258
0
VERTEX
8
CUT
10
60.6106
20
141.3706
0
VERTEX
8
CUT
10
60.9758
20
142.6858
0
VERTEX
8
CUT
10
61.3012
20
145.3034
0
VERTEX
8
CUT
10
61.2788
20
146.9395
0
VERTEX
8
CUT
10
61.2987
20
147.1586
0
VERTEX
8
CUT
10
61.2693
20
147.6289
0
VERTEX
8
CUT
10
61.2395
20
149.8086
0
VERTEX
8
CUT
10
60.5592
20
153.4226
0
VERTEX
8
CUT
10
59.6215
20
155.6629
0
VERTEX
8
CUT
10
58.2405
20
157.8769
0
VERTEX
8
CUT
10
58.2384
20
157.8807
0
VERTEX
8
CUT
10
58.2374
20
157.8819
0
VERTEX
8
CUT
10
57.6031
20
158.8988
0
VERTEX
8
CUT
10
55.9959
20
160.7492
0
VERTEX
8
CUT
10
53.8206
20
162.7455
0
VERTEX
8
CUT
10
45.2308
20
169.5212
0
VERTEX
8
CUT
10
42.1047
20
172.3735
0
VERTEX
8
CUT
10
39.4206
20
175.1498
0
VERTEX
8
CUT
10
36.4228
20
178.8794
0
VERTEX
8
CUT
10
36.0973
20
178.9190
0
VERTEX
8
CUT
10
35.8566
20
178.6963
0
VERTEX
8
CUT
10
35.4690
20
176.2203
0
VERTEX
8
CUT
10
34.9215
20
174.7406
0
VERTEX
8
CUT
10
34.1328
20
173.5280
0
VERTEX
8
CUT
10
33.0554
20
172.3552
0
VERTEX
8
CUT
10
31.8881
20
171.5008
0
VERTEX
8
CUT
10
30.5774
20
170.9081
0
VERTEX
8
CUT
10
29.8858
20
170.7632
0
VERTEX
8
CUT
10
29.4741
20
170.7230
0
VERTEX
8
CUT
10
29.2926
20
170.7052
0
VERTEX
8
CUT
10
28.6876
20
170.6460
0
VERTEX
8
CUT
10
28.4887
20
170.6266
0
VERTEX
8
CUT
10
27.8607
20
170.6265
0
VERTEX
8
CUT
10
26.9632
20
170.8059
0
VERTEX
8
CUT
10
26.2235
20
171.0032
0
VERTEX
8
CUT
10
25.0941
20
171.4651
0
VERTEX
8
CUT
10
23.7642
20
172.2998
0
VERTEX
8
CUT
10
22.5151
20
173.3960
0
VERTEX
8
CUT
10
20.4901
20
176.4390
0
VERTEX
8
CUT
10
19.6640
20
178.2507
0
VERTEX
8
CUT
10
19.0741
20
180.3037
0
VERTEX
8
CUT
10
18.5857
20
180.4173
0
VERTEX
8
CUT
10
18.2886
20
179.8615
0
VERTEX
8
CUT
10
16.8997
20
173.1327
0
VERTEX
8
CUT
10
15.9318
20
166.7807
0
VERTEX
8
CUT
10
15.2686
20
159.4851
0
VERTEX
8
CUT
10
15.0268
20
153.3473
0
VERTEX
8
CUT
10
15.0867
20
145.1497
0
VERTEX
8
CUT
10
15.4152
20
142.3204
0
VERTEX
8
CUT
10
15.4205
20
142.1739
0
VERTEX
8
CUT
10
15.6322
20
140.4301
0
VERTEX
8
CUT
10
15.6372
20
140.4084
0
VERTEX
8
CUT
10
15.6866
20
139.9829
0
VERTEX
8
CUT
10
16.3853
20
136.9437
0
VERTEX
8
CUT
10
16.5721
20
136.3578
0
VERTEX
8
CUT
10
16.6186
20
136.1562
0
VERTEX
8
CUT
10
16.7322
20
135.8553
0
VERTEX
8
CUT
10
17.2462
20
134.2424
0
VERTEX
8
CUT
10
18.2919
20
131.7881
0
VERTEX
8
CUT
10
19.5772
20
129.5703
0
VERTEX
8
CUT
10
21.0396
20
127.6258
0
VERTEX
8
CUT
10
22.7092
20
125.9216
0
SEQEND
0
POLYLINE
8
CUT
66
1
70
1
10
0.0
20
0.0
30
0.0
0
VERTEX
8
CUT
10
276.5999
20
198.5203
0
VERTEX
8
CUT
10
276.9774
20
196.9812
0
VERTEX
8
CUT
10
278.8133
20
191.9593
0
VERTEX
8
CUT
10
279.5465
20
188.6725
0
VERTEX
8
CUT
10
280.0966
20
187.3110
0
VERTEX
8
CUT
10
280.5060
20
187.1527
0
VERTEX
8
CUT
10
280.8030
20
187.5917
0
VERTEX
8
CUT
10
279.7507
20
191.6863
0
VERTEX
8
CUT
10
277.2771
20
198.7298
0
VERTEX
8
CUT
10
276.8530
20
198.8360
0
SEQEND
0
POLYLINE
8
CUT
66
1
70
1
10
0.0
20
0.0
30
0.0
0
VERTEX
8
CUT
10
271.4980
20
147.6470
0
VERTEX
8
CUT
10
270.2446
20
147.5825
0
VERTEX
8
CUT
10
269.1122
20
147.9187
0
VERTEX
8
CUT
10
268.8793
20
148.0677
0
VERTEX
8
CUT
10
267.4925
20
149.4045
0
VERTEX
8
CUT
10
267.3199
20
149.6099
0
VERTEX
8
CUT
10
266.6784
20
151.1044
0
VERTEX
8
CUT
10
266.4928
20
152.8107
0
VERTEX
8
CUT
10
266.4932
20
152.8169
0
VERTEX
8
CUT
10
266.7038
20
154.5188
0
VERTEX
8
CUT
10
267.3621
20
156.2628
0
VERTEX
8
CUT
10
268.3555
20
157.7834
0
VERTEX
8
CUT
10
269.6872
20
159.0541
0
VERTEX
8
CUT
10
271.3737
20
159.9313
0
VERTEX
8
CUT
10
272.4186
20
160.2165
0
VERTEX
8
CUT
10
273.4468
20
160.4000
0
VERTEX
8
CUT
10
275.4172
20
160.3398
0
VERTEX
8
CUT
10
277.4973
20
159.7262
0
VERTEX
8
CUT
10
279.6830
20
158.5630
0
VERTEX
8
CUT
10
280.0109
20
158.6289
0
VERTEX
8
CUT
10
280.1672
20
158.9246
0
VERTEX
8
CUT
10
279.2263
20
169.1072
0
VERTEX
8
CUT
10
278.2296
20
175.2711
0
VERTEX
8
CUT
10
275.5723
20
187.4410
0
VERTEX
8
CUT
10
274.4510
20
191.5296
0
VERTEX
8
CUT
10
274.2253
20
192.1233
0
VERTEX
8
CUT
10
273.9305
20
192.2823
0
VERTEX
8
CUT
10
273.5320
20
191.9857
0
VERTEX
8
CUT
10
272.5352
20
183.7207
0
VERTEX
8
CUT
10
271.2840
20
178.6854
0
VERTEX
8
CUT
10
269.3391
20
173.6135
0
VERTEX
8
CUT
10
263.2761
20
161.3704
0
VERTEX
8
CUT
10
262.2276
20
157.8424
0
VERTEX
8
CUT
10
261.8010
20
154.9145
0
VERTEX
8
CUT
10
261.8024
20
152.2237
0
VERTEX
8
CUT
10
262.2199
20
149.7493
0
VERTEX
8
CUT
10
263.0236
20
147.4881
0
VERTEX
8
CUT
10
264.2110
20
145.5002
0
VERTEX
8
CUT
10
265.7515
20
143.8708
0
VERTEX
8
CUT
10
267.6842
20
142.5610
0
VERTEX
8
CUT
10
268.9834
20
141.9636
0
VERTEX
8
CUT
10
270.8820
20
141.7114
0
VERTEX
8
CUT
10
274.5925
20
142.1463
0
VERTEX
8
CUT
10
275.2935
20
142.5259
0
VERTEX
8
CUT
10
277.0884
20
145.0603
0
VERTEX
8
CUT
10
277.6638
20
146.2347
0
VERTEX
8
CUT
10
278.1596
20
148.5734
0
VERTEX
8
CUT
10
278.0690
20
149.7843
0
VERTEX
8
CUT
10
277.7943
20
150.8723
0
VERTEX
8
CUT
10
276.6492
20
152.6638
0
VERTEX
8
CUT
10
275.3857
20
153.5990
0
VERTEX
8
CUT
10
274.6224
20
153.8366
0
VERTEX
8
CUT
10
273.9046
20
153.8227
0
VERTEX
8
CUT
10
273.1348
20
153.4856
0
VERTEX
8
CUT
10
272.7317
20
152.9460
0
VERTEX
8
CUT
10
272.8333
20
152.4913
0
VERTEX
8
CUT
10
274.0172
20
150.5394
0
VERTEX
8
CUT
10
273.9967
20
150.1149
0
VERTEX
8
CUT
10
273.9930
20
150.0849
0
VERTEX
8
CUT
10
273.9897
20
150.0585
0
VERTEX
8
CUT
10
273.9811
20
149.9884
0
VERTEX
8
CUT
10
273.9395
20
149.6503
0
VERTEX
8
CUT
10
273.5502
20
148.9311
0
VERTEX
8
CUT
10
272.6509
20
148.1277
0
SEQEND
0
POLYLINE
8
CUT
66
1
70
1
10
0.0
20
0.0
30
0.0
0
VERTEX
8
CUT
10
268.4453
20
134.8788
0
VERTEX
8
CUT
10
265.4928
20
136.0178
0
VERTEX
8
CUT
10
265.1607
20
135.8496
0
VERTEX
8
CUT
10
265.1080
20
135.5161
0
VERTEX
8
CUT
10
269.7919
20
124.3834
0
VERTEX
8
CUT
10
269.7931
20
124.3805
0
VERTEX
8
CUT
10
269.8013
20
124.3605
0
VERTEX
8
CUT
10
269.8959
20
124.1309
0
VERTEX
8
CUT
10
270.3864
20
122.9408
0
VERTEX
8
CUT
10
272.0772
20
117.6898
0
VERTEX
8
CUT
10
273.8473
20
110.3455
0
VERTEX
8
CUT
10
274.0339
20
110.1165
0
VERTEX
8
CUT
10
274.3633
20
110.0961
0
VERTEX
8
CUT
10
274.5903
20
110.3357
0
VERTEX
8
CUT
10
275.2420
20
112.6587
0
VERTEX
8
CUT
10
278.0196
20
125.3397
0
VERTEX
8
CUT
10
279.2587
20
131.7804
0
VERTEX
8
CUT
10
279.6179
20
134.8689
0
VERTEX
8
CUT
10
279.6372
20
136.7116
0
VERTEX
8
CUT
10
279.1299
20
136.9547
0
VERTEX
8
CUT
10
278.8884
20
136.8345
0
VERTEX
8
CUT
10
278.8681
20
136.8459
0
VERTEX
8
CUT
10
278.7325
20
136.7570
0
VERTEX
8
CUT
10
275.6335
20
135.2152
0
VERTEX
8
CUT
10
274.1949
20
134.8856
0
VERTEX
8
CUT
10
272.2518
20
134.7586
0
SEQEND
0
POLYLINE
8
CUT
66
1
70
1
10
0.0
20
0.0
30
0.0
0
VERTEX
8
CUT
10
269.6743
20
19.3926
0
VERTEX
8
CUT
10
269.7449
20
19.4998
0
VERTEX
8
CUT
10
269.9907
20
20.0899
0
VERTEX
8
CUT
10
270.4729
20
21.1526
0
VERTEX
8
CUT
10
270.5038
20
21.3221
0
VERTEX
8
CUT
10
270.6032
20
21.5609
0
VERTEX
8
CUT
10
270.7093
20
22.4503
0
VERTEX
8
CUT
10
270.9060
20
23.5300
0
VERTEX
8
CUT
10
270.5864
20
25.8406
0
VERTEX
8
CUT
10
269.8271
20
27.5493
0
VERTEX
8
CUT
10
269.6052
20
28.1535
0
VERTEX
8
CUT
10
268.7886
20
28.8491
0
VERTEX
8
CUT
10
268.4862
20
28.7584
0
VERTEX
8
CUT
10
268.2443
20
27.7906
0
VERTEX
8
CUT
10
268.0895
20
25.5459
0
VERTEX
8
CUT
10
267.8433
20
24.1415
0
VERTEX
8
CUT
10
266.5912
20
21.0328
0
VERTEX
8
CUT
10
265.4959
20
19.5447
0
VERTEX
8
CUT
10
264.1040
20
18.3071
0
VERTEX
8
CUT
10
262.4979
20
17.3495
0
VERTEX
8
CUT
10
260.7375
20
16.7010
0
VERTEX
8
CUT
10
258.8849
20
16.3921
0
VERTEX
8
CUT
10
257.0003
20
16.4212
0
VERTEX
8
CUT
10
255.0879
20
16.8241
0
VERTEX
8
CUT
10
252.4811
20
18.0179
0
VERTEX
8
CUT
10
250.5639
20
19.5894
0
VERTEX
8
CUT
10
250.5627
20
19.5910
0
VERTEX
8
CUT
10
250.5622
20
19.5917
0
VERTEX
8
CUT
10
250.5620
20
19.5919
0
VERTEX
8
CUT
10
250.5620
20
19.5919
0
VERTEX
8
CUT
10
249.8752
20
20.5697
0
VERTEX
8
CUT
10
249.2871
20
21.8337
0
VERTEX
8
CUT
10
249.1293
20
22.1728
0
VERTEX
8
CUT
10
249.0474
20
22.3488
0
VERTEX
8
CUT
10
248.9875
20
22.4774
0
VERTEX
8
CUT
10
248.8509
20
23.0750
0
VERTEX
8
CUT
10
248.7990
20
23.5621
0
VERTEX
8
CUT
10
248.7539
20
23.9848
0
VERTEX
8
CUT
10
248.7448
20
24.0702
0
VERTEX
8
CUT
10
248.7106
20
24.3908
0
VERTEX
8
CUT
10
248.7097
20
25.0292
0
VERTEX
8
CUT
10
248.9612
20
26.3396
0
VERTEX
8
CUT
10
249.0774
20
26.6156
0
VERTEX
8
CUT
10
249.7060
20
27.8834
0
VERTEX
8
CUT
10
249.8291
20
28.0624
0
VERTEX
8
CUT
10
250.9132
20
29.2001
0
VERTEX
8
CUT
10
252.2496
20
29.8870
0
VERTEX
8
CUT
10
252.4553
20
29.9306
0
VERTEX
8
CUT
10
253.1280
20
30.0455
0
VERTEX
8
CUT
10
253.2321
20
30.0307
0
VERTEX
8
CUT
10
253.2939
20
30.0219
0
VERTEX
8
CUT
10
253.2999
20
30.0211
0
VERTEX
8
CUT
10
253.3017
20
30.0208
0
VERTEX
8
CUT
10
254.4487
20
29.7493
0
VERTEX
8
CUT
10
254.8693
20
29.2703
0
VERTEX
8
CUT
10
254.9648
20
28.8703
0
VERTEX
8
CUT
10
254.4859
20
26.9763
0
VERTEX
8
CUT
10
254.8242
20
25.9837
0
VERTEX
8
CUT
10
255.0833
20
25.7290
0
VERTEX
8
CUT
10
255.1546
20
25.5482
0
VERTEX
8
CUT
10
256.0227
20
24.8057
0
VERTEX
8
CUT
10
256.2646
20
24.5679
0
VERTEX
8
CUT
10
257.0014
20
24.3435
0
VERTEX
8
CUT
10
258.2414
20
24.3111
0
VERTEX
8
CUT
10
259.4908
20
24.6066
0
VERTEX
8
CUT
10
260.3262
20
25.2222
0
VERTEX
8
CUT
10
261.4122
20
26.4209
0
VERTEX
8
CUT
10
262.1773
20
27.8963
0
VERTEX
8
CUT
10
262.5902
20
29.5161
0
VERTEX
8
CUT
10
262.6788
20
31.2284
0
VERTEX
8
CUT
10
262.4126
20
33.0642
0
VERTEX
8
CUT
10
261.7773
20
34.9627
0
VERTEX
8
CUT
10
260.8201
20
36.8691
0
VERTEX
8
CUT
10
259.5509
20
38.7265
0
VERTEX
8
CUT
10
257.8615
20
40.3878
0
VERTEX
8
CUT
10
255.7178
20
41.9562
0
VERTEX
8
CUT
10
254.4895
20
42.4955
0
VERTEX
8
CUT
10
253.1622
20
41.5361
0
VERTEX
8
CUT
10
242.5587
20
31.9293
0
VERTEX
8
CUT
10
233.2205
20
24.6527
0
VERTEX
8
CUT
10
223.7414
20
18.2936
0
VERTEX
8
CUT
10
218.9841
20
15.4761
0
VERTEX
8
CUT
10
210.3281
20
10.9343
0
VERTEX
8
CUT
10
210.2439
20
10.5803
0
VERTEX
8
CUT
10
210.4885
20
10.3109
0
VERTEX
8
CUT
10
210.8642
20
10.2937
0
VERTEX
8
CUT
10
210.8714
20
10.2884
0
VERTEX
8
CUT
10
211.0797
20
10.2839
0
VERTEX
8
CUT
10
212.5176
20
10.2183
0
VERTEX
8
CUT
10
214.0679
20
10.2197
0
VERTEX
8
CUT
10
218.3508
20
10.1277
0
VERTEX
8
CUT
10
251.1204
20
10.1881
0
VERTEX
8
CUT
10
252.1986
20
10.2539
0
VERTEX
8
CUT
10
257.0993
20
10.2583
0
VERTEX
8
CUT
10
261.2678
20
11.8828
0
VERTEX
8
CUT
10
263.4627
20
13.1027
0
VERTEX
8
CUT
10
264.9882
20
14.3280
0
VERTEX
8
CUT
10
266.1238
20
15.1386
0
VERTEX
8
CUT
10
266.6412
20
15.6558
0
VERTEX
8
CUT
10
267.0786
20
16.0071
0
VERTEX
8
CUT
10
267.6793
20
16.6934
0
VERTEX
8
CUT
10
268.3098
20
17.3237
0
VERTEX
8
CUT
10
269.2287
20
18.7170
0
VERTEX
8
CUT
10
269.6620
20
19.3656
0
SEQEND
0
POLYLINE
8
CUT
66
1
70
1
10
0.0
20
0.0
30
0.0
0
VERTEX
8
CUT
10
263.7059
20
215.1410
0
VERTEX
8
CUT
10
263.5362
20
214.8586
0
VERTEX
8
CUT
10
263.4668
20
210.0992
0
VERTEX
8
CUT
10
263.4667
20
210.0988
0
VERTEX
8
CUT
10
263.4663
20
210.0953
0
VERTEX
8
CUT
10
263.4662
20
210.0943
0
VERTEX
8
CUT
10
263.4337
20
209.8220
0
VERTEX
8
CUT
10
262.6737
20
207.2035
0
VERTEX
8
CUT
10
262.2797
20
203.6312
0
VERTEX
8
CUT
10
261.4812
20
201.6275
0
VERTEX
8
CUT
10
260.6299
20
200.4724
0
VERTEX
8
CUT
10
260.7728
20
199.7948
0
VERTEX
8
CUT
10
260.6348
20
198.6643
0
VERTEX
8
CUT
10
257.4097
20
191.1010
0
VERTEX
8
CUT
10
256.8788
20
188.9738
0
VERTEX
8
CUT
10
257.0836
20
186.9517
0
VERTEX
8
CUT
10
257.2603
20
186.4389
0
VERTEX
8
CUT
10
257.2628
20
186.3827
0
VERTEX
8
CUT
10
257.4779
20
185.8077
0
VERTEX
8
CUT
10
258.3474
20
183.2849
0
VERTEX
8
CUT
10
258.8677
20
181.1870
0
VERTEX
8
CUT
10
258.9857
20
179.2958
0
VERTEX
8
CUT
10
258.4019
20
176.9036
0
VERTEX
8
CUT
10
257.4139
20
175.1988
0
VERTEX
8
CUT
10
256.7411
20
174.3888
0
VERTEX
8
CUT
10
256.7272
20
174.3774
0
VERTEX
8
CUT
10
256.7123
20
174.3651
0
VERTEX
8
CUT
10
256.6732
20
174.3329
0
VERTEX
8
CUT
10
256.3406
20
174.0594
0
VERTEX
8
CUT
10
255.8192
20
173.6979
0
VERTEX
8
CUT
10
255.3441
20
173.6908
0
VERTEX
8
CUT
10
255.1966
20
173.7277
0
VERTEX
8
CUT
10
253.9211
20
174.9452
0
VERTEX
8
CUT
10
252.3669
20
177.2316
0
VERTEX
8
CUT
10
251.7683
20
179.8353
0
VERTEX
8
CUT
10
251.5623
20
181.8733
0
VERTEX
8
CUT
10
251.0734
20
182.1410
0
VERTEX
8
CUT
10
249.6264
20
180.4391
0
VERTEX
8
CUT
10
247.8227
20
177.8215
0
VERTEX
8
CUT
10
246.4233
20
175.1711
0
VERTEX
8
CUT
10
245.6692
20
173.2339
0
VERTEX
8
CUT
10
245.1992
20
169.9406
0
VERTEX
8
CUT
10
245.2932
20
169.1358
0
VERTEX
8
CUT
10
245.3204
20
168.3541
0
VERTEX
8
CUT
10
245.4427
20
167.8560
0
VERTEX
8
CUT
10
245.5532
20
166.9097
0
VERTEX
8
CUT
10
246.5542
20
165.1022
0
VERTEX
8
CUT
10
247.3971
20
164.2184
0
VERTEX
8
CUT
10
248.3861
20
163.5233
0
VERTEX
8
CUT
10
250.5064
20
162.9135
0
VERTEX
8
CUT
10
251.6681
20
162.9713
0
VERTEX
8
CUT
10
253.9999
20
163.8425
0
VERTEX
8
CUT
10
256.0187
20
165.2556
0
VERTEX
8
CUT
10
258.4849
20
167.8713
0
VERTEX
8
CUT
10
261.5875
20
172.3569
0
VERTEX
8
CUT
10
263.6673
20
176.2434
0
VERTEX
8
CUT
10
265.4125
20
180.3339
0
VERTEX
8
CUT
10
266.7070
20
184.4552
0
VERTEX
8
CUT
10
267.7312
20
189.7788
0
VERTEX
8
CUT
10
267.9731
20
192.5204
0
VERTEX
8
CUT
10
268.0045
20
198.1202
0
VERTEX
8
CUT
10
267.7644
20
200.9806
0
VERTEX
8
CUT
10
267.3691
20
203.1552
0
VERTEX
8
CUT
10
267.3392
20
203.4454
0
VERTEX
8
CUT
10
266.9729
20
205.3354
0
VERTEX
8
CUT
10
266.0722
20
210.2911
0
VERTEX
8
CUT
10
266.2930
20
213.1683
0
VERTEX
8
CUT
10
266.0312
20
213.5379
0
VERTEX
8
CUT
10
264.7918
20
214.3030
0
VERTEX
8
CUT
10
264.0312
20
215.1928
0
SEQEND
0
POLYLINE
8
CUT
66
1
70
1
10
0.0
20
0.0
30
0.0
0
VERTEX
8
CUT
10
252.4406
20
156.6532
0
VERTEX
8
CUT
10
248.4931
20
156.5322
0
VERTEX
8
CUT
10
246.4320
20
156.9972
0
VERTEX
8
CUT
10
243.7876
20
158.4318
0
VERTEX
8
CUT
10
242.5769
20
159.4015
0
VERTEX
8
CUT
10
242.5646
20
159.4150
0
VERTEX
8
CUT
10
241.3822
20
160.7550
0
VERTEX
8
CUT
10
240.7010
20
161.7540
0
VERTEX
8
CUT
10
240.5857
20
161.9746
0
VERTEX
8
CUT
10
239.9949
20
163.2347
0
VERTEX
8
CUT
10
239.4919
20
164.7984
0
VERTEX
8
CUT
10
239.2178
20
166.4984
0
VERTEX
8
CUT
10
239.0568
20
169.2356
0
VERTEX
8
CUT
10
239.0550
20
170.2789
0
VERTEX
8
CUT
10
238.9925
20
170.3300
0
VERTEX
8
CUT
10
238.9904
20
170.3652
0
VERTEX
8
CUT
10
238.6203
20
170.6956
0
VERTEX
8
CUT
10
232.3589
20
166.7807
0
VERTEX
8
CUT
10
221.5350
20
160.6126
0
VERTEX
8
CUT
10
217.5790
20
157.8258
0
VERTEX
8
CUT
10
215.5220
20
155.9796
0
VERTEX
8
CUT
10
212.7148
20
152.6007
0
VERTEX
8
CUT
10
210.6769
20
148.8552
0
VERTEX
8
CUT
10
209.3282
20
144.8087
0
VERTEX
8
CUT
10
208.7282
20
140.5208
0
VERTEX
8
CUT
10
208.8533
20
136.1084
0
VERTEX
8
CUT
10
209.7184
20
131.7593
0
VERTEX
8
CUT
10
210.3877
20
129.9392
0
VERTEX
8
CUT
10
210.4311
20
129.7980
0
VERTEX
8
CUT
10
210.4875
20
129.6678
0
VERTEX
8
CUT
10
211.2970
20
127.4668
0
VERTEX
8
CUT
10
213.6978
20
123.2694
0
VERTEX
8
CUT
10
215.4047
20
121.0575
0
VERTEX
8
CUT
10
217.3539
20
119.0492
0
VERTEX
8
CUT
10
219.6030
20
117.1870
0
VERTEX
8
CUT
10
222.0655
20
115.5625
0
VERTEX
8
CUT
10
224.6767
20
114.1799
0
VERTEX
8
CUT
10
227.4094
20
113.0667
0
VERTEX
8
CUT
10
230.2275
20
112.2253
0
VERTEX
8
CUT
10
233.0852
20
111.7115
0
VERTEX
8
CUT
10
235.5497
20
111.4684
0
VERTEX
8
CUT
10
237.3713
20
111.5274
0
VERTEX
8
CUT
10
242.4992
20
112.3054
0
VERTEX
8
CUT
10
245.4407
20
113.3229
0
VERTEX
8
CUT
10
246.1441
20
113.6851
0
VERTEX
8
CUT
10
246.5609
20
113.8394
0
VERTEX
8
CUT
10
247.4633
20
114.3645
0
VERTEX
8
CUT
10
249.2752
20
115.2976
0
VERTEX
8
CUT
10
252.2671
20
117.6260
0
VERTEX
8
CUT
10
253.5489
20
118.9996
0
VERTEX
8
CUT
10
255.6813
20
122.0202
0
VERTEX
8
CUT
10
257.2418
20
125.4624
0
VERTEX
8
CUT
10
257.8523
20
127.8661
0
VERTEX
8
CUT
10
257.8760
20
127.9390
0
VERTEX
8
CUT
10
257.8821
20
127.9835
0
VERTEX
8
CUT
10
258.2407
20
129.3954
0
VERTEX
8
CUT
10
258.5378
20
133.3198
0
VERTEX
8
CUT
10
258.1460
20
137.8484
0
VERTEX
8
CUT
10
256.2143
20
147.2329
0
VERTEX
8
CUT
10
255.7566
20
150.2550
0
VERTEX
8
CUT
10
255.6356
20
152.8262
0
VERTEX
8
CUT
10
256.0221
20
157.6882
0
VERTEX
8
CUT
10
255.5590
20
157.8684
0
SEQEND
0
POLYLINE
8
CUT
66
1
70
1
10
0.0
20
0.0
30
0.0
0
VERTEX
8
CUT
10
201.2064
20
96.5363
0
VERTEX
8
CUT
10
202.7266
20
98.1714
0
VERTEX
8
CUT
10
203.9091
20
100.1005
0
VERTEX
8
CUT
10
204.6500
20
102.1462
0
VERTEX
8
CUT
10
204.9456
20
104.3072
0
VERTEX
8
CUT
10
204.7392
20
106.5049
0
VERTEX
8
CUT
10
204.4367
20
107.7088
0
VERTEX
8
CUT
10
203.5652
20
109.7428
0
VERTEX
8
CUT
10
202.9477
20
110.6989
0
VERTEX
8
CUT
10
201.5170
20
112.2137
0
VERTEX
8
CUT
10
199.6300
20
113.4079
0
VERTEX
8
CUT
10
198.1871
20
113.8990
0
VERTEX
8
CUT
10
197.6413
20
114.0996
0
VERTEX
8
CUT
10
197.5829
20
114.1046
0
VERTEX
8
CUT
10
197.2283
20
114.2253
0
VERTEX
8
CUT
10
195.9494
20
114.2431
0
VERTEX
8
CUT
10
195.5219
20
114.2794
0
VERTEX
8
CUT
10
195.3280
20
114.2518
0
VERTEX
8
CUT
10
194.9042
20
114.2577
0
VERTEX
8
CUT
10
194.5160
20
114.1363
0
VERTEX
8
CUT
10
194.4717
20
114.1300
0
VERTEX
8
CUT
10
194.2822
20
114.0632
0
VERTEX
8
CUT
10
192.7391
20
113.5807
0
VERTEX
8
CUT
10
190.9644
20
112.1541
0
VERTEX
8
CUT
10
190.2449
20
111.1071
0
VERTEX
8
CUT
10
189.8791
20
110.0683
0
VERTEX
8
CUT
10
189.8345
20
109.0320
0
VERTEX
8
CUT
10
190.3261
20
107.6793
0
VERTEX
8
CUT
10
190.5706
20
107.3308
0
VERTEX
8
CUT
10
190.9015
20
107.2682
0
VERTEX
8
CUT
10
192.3998
20
108.2124
0
VERTEX
8
CUT
10
193.2487
20
108.4118
0
VERTEX
8
CUT
10
194.0624
20
108.3435
0
VERTEX
8
CUT
10
194.8119
20
108.0156
0
VERTEX
8
CUT
10
195.4797
20
107.4675
0
VERTEX
8
CUT
10
196.2510
20
105.9258
0
VERTEX
8
CUT
10
196.3870
20
104.8649
0
VERTEX
8
CUT
10
196.1751
20
103.4643
0
VERTEX
8
CUT
10
195.5409
20
102.1589
0
VERTEX
8
CUT
10
194.6411
20
101.1721
0
VERTEX
8
CUT
10
193.4851
20
100.4543
0
VERTEX
8
CUT
10
192.1119
20
99.9857
0
VERTEX
8
CUT
10
190.7646
20
99.8158
0
VERTEX
8
CUT
10
190.7013
20
99.8120
0
VERTEX
8
CUT
10
190.6837
20
99.8109
0
VERTEX
8
CUT
10
190.6326
20
99.8079
0
VERTEX
8
CUT
10
190.6080
20
99.8064
0
VERTEX
8
CUT
10
189.0868
20
99.9801
0
VERTEX
8
CUT
10
187.4737
20
100.5425
0
VERTEX
8
CUT
10
185.9781
20
101.4459
0
VERTEX
8
CUT
10
184.6351
20
102.7296
0
VERTEX
8
CUT
10
183.0950
20
105.0228
0
VERTEX
8
CUT
10
182.5723
20
106.5423
0
VERTEX
8
CUT
10
182.2693
20
109.1782
0
VERTEX
8
CUT
10
182.3620
20
111.0534
0
VERTEX
8
CUT
10
182.8087
20
113.4472
0
VERTEX
8
CUT
10
182.6505
20
113.7799
0
VERTEX
8
CUT
10
182.2859
20
113.8325
0
VERTEX
8
CUT
10
178.1061
20
112.2103
0
VERTEX
8
CUT
10
177.3397
20
112.0964
0
VERTEX
8
CUT
10
174.6341
20
112.0466
0
VERTEX
8
CUT
10
173.8034
20
112.1380
0
VERTEX
8
CUT
10
172.0885
20
112.4237
0
VERTEX
8
CUT
10
169.2987
20
113.6061
0
VERTEX
8
CUT
10
167.8361
20
114.6890
0
VERTEX
8
CUT
10
165.4993
20
116.9642
0
VERTEX
8
CUT
10
163.8409
20
119.1735
0
VERTEX
8
CUT
10
163.4081
20
119.1974
0
VERTEX
8
CUT
10
163.2170
20
118.8447
0
VERTEX
8
CUT
10
164.1670
20
114.1470
0
VERTEX
8
CUT
10
165.5471
20
110.2135
0
VERTEX
8
CUT
10
167.3716
20
106.5346
0
VERTEX
8
CUT
10
169.5362
20
103.2729
0
VERTEX
8
CUT
10
172.0867
20
100.3570
0
VERTEX
8
CUT
10
174.9349
20
97.8344
0
VERTEX
8
CUT
10
178.1010
20
95.7342
0
VERTEX
8
CUT
10
181.4351
20
94.1576
0
VERTEX
8
CUT
10
185.0616
20
93.0726
0
VERTEX
8
CUT
10
188.4870
20
92.7184
0
VERTEX
8
CUT
10
191.7067
20
92.8509
0
VERTEX
8
CUT
10
192.5428
20
92.8712
0
VERTEX
8
CUT
10
192.6323
20
92.8890
0
VERTEX
8
CUT
10
193.6535
20
92.9311
0
VERTEX
8
CUT
10
195.5269
20
93.4663
0
VERTEX
8
CUT
10
195.8646
20
93.5336
0
VERTEX
8
CUT
10
196.0562
20
93.6175
0
VERTEX
8
CUT
10
197.0934
20
93.9137
0
VERTEX
8
CUT
10
199.2993
20
95.0762
0
SEQEND
0
POLYLINE
8
CUT
66
1
70
1
10
0.0
20
0.0
30
0.0
0
VERTEX
8
CUT
10
182.0750
20
79.2704
0
VERTEX
8
CUT
10
182.4581
20
79.6457
0
VERTEX
8
CUT
10
182.7241
20
79.8166
0
VERTEX
8
CUT
10
183.3007
20
80.4713
0
VERTEX
8
CUT
10
183.5310
20
80.6969
0
VERTEX
8
CUT
10
184.3205
20
82.3004
0
VERTEX
8
CUT
10
184.3838
20
83.2671
0
VERTEX
8
CUT
10
184.1883
20
84.2831
0
VERTEX
8
CUT
10
183.4365
20
85.8483
0
VERTEX
8
CUT
10
182.6385
20
86.5710
0
VERTEX
8
CUT
10
181.8933
20
87.2606
0
VERTEX
8
CUT
10
179.9132
20
88.2332
0
VERTEX
8
CUT
10
175.8807
20
90.3858
0
VERTEX
8
CUT
10
173.1013
20
92.0643
0
VERTEX
8
CUT
10
172.9414
20
92.1818
0
VERTEX
8
CUT
10
172.9134
20
92.2023
0
VERTEX
8
CUT
10
172.8738
20
92.2314
0
VERTEX
8
CUT
10
172.8278
20
92.2651
0
VERTEX
8
CUT
10
169.3025
20
95.3167
0
VERTEX
8
CUT
10
165.6038
20
99.4174
0
VERTEX
8
CUT
10
162.7656
20
103.9161
0
VERTEX
8
CUT
10
160.9409
20
107.6497
0
VERTEX
8
CUT
10
160.6254
20
107.7422
0
VERTEX
8
CUT
10
160.3513
20
107.5607
0
VERTEX
8
CUT
10
160.1881
20
106.3414
0
VERTEX
8
CUT
10
161.5755
20
97.4313
0
VERTEX
8
CUT
10
164.0158
20
91.1926
0
VERTEX
8
CUT
10
164.5164
20
90.2362
0
VERTEX
8
CUT
10
164.5898
20
90.0454
0
VERTEX
8
CUT
10
165.6738
20
87.9410
0
VERTEX
8
CUT
10
165.8518
20
87.6849
0
VERTEX
8
CUT
10
166.3485
20
86.7358
0
VERTEX
8
CUT
10
167.5400
20
84.9761
0
VERTEX
8
CUT
10
170.2304
20
82.1589
0
VERTEX
8
CUT
10
171.7556
20
80.9895
0
VERTEX
8
CUT
10
174.2313
20
79.5541
0
VERTEX
8
CUT
10
175.4264
20
79.0734
0
VERTEX
8
CUT
10
176.6236
20
78.7067
0
VERTEX
8
CUT
10
177.0052
20
78.6631
0
VERTEX
8
CUT
10
177.1517
20
78.6217
0
VERTEX
8
CUT
10
177.3919
20
78.6190
0
VERTEX
8
CUT
10
178.9024
20
78.4467
0
VERTEX
8
CUT
10
181.0566
20
78.7409
0
SEQEND
0
POLYLINE
8
CUT
66
1
70
1
10
0.0
20
0.0
30
0.0
0
VERTEX
8
CUT
10
164.0526
20
265.2435
0
VERTEX
8
CUT
10
167.1681
20
264.5204
0
VERTEX
8
CUT
10
168.9237
20
264.4339
0
VERTEX
8
CUT
10
170.5819
20
264.6119
0
VERTEX
8
CUT
10
172.0888
20
265.0549
0
VERTEX
8
CUT
10
173.4752
20
265.7339
0
VERTEX
8
CUT
10
174.7130
20
266.6768
0
VERTEX
8
CUT
10
175.7651
20
267.8559
0
VERTEX
8
CUT
10
176.4943
20
269.2448
0
VERTEX
8
CUT
10
176.6790
20
269.5203
0
VERTEX
8
CUT
10
176.8019
20
269.8307
0
VERTEX
8
CUT
10
177.1147
20
270.4265
0
VERTEX
8
CUT
10
177.2425
20
271.0883
0
VERTEX
8
CUT
10
177.4340
20
271.8511
0
VERTEX
8
CUT
10
177.4339
20
272.0798
0
VERTEX
8
CUT
10
177.5760
20
272.8157
0
VERTEX
8
CUT
10
177.5222
20
274.0334
0
VERTEX
8
CUT
10
176.9435
20
276.3586
0
VERTEX
8
CUT
10
174.9652
20
279.1743
0
VERTEX
8
CUT
10
174.9735
20
280.5456
0
VERTEX
8
CUT
10
174.7899
20
280.8273
0
VERTEX
8
CUT
10
174.4466
20
280.8592
0
VERTEX
8
CUT
10
173.6316
20
280.4042
0
VERTEX
8
CUT
10
171.0392
20
280.8235
0
VERTEX
8
CUT
10
169.8591
20
280.7157
0
VERTEX
8
CUT
10
168.7887
20
280.3060
0
VERTEX
8
CUT
10
167.8406
20
279.6157
0
VERTEX
8
CUT
10
167.7449
20
279.4838
0
VERTEX
8
CUT
10
167.7360
20
279.4781
0
VERTEX
8
CUT
10
167.6991
20
279.4207
0
VERTEX
8
CUT
10
167.2143
20
278.7524
0
VERTEX
8
CUT
10
167.1591
20
277.9994
0
VERTEX
8
CUT
10
167.4705
20
277.7318
0
VERTEX
8
CUT
10
168.9280
20
277.5369
0
VERTEX
8
CUT
10
169.9402
20
276.6019
0
VERTEX
8
CUT
10
170.3790
20
275.2082
0
VERTEX
8
CUT
10
170.1558
20
273.8604
0
VERTEX
8
CUT
10
169.5395
20
272.7619
0
VERTEX
8
CUT
10
168.6271
20
271.9612
0
VERTEX
8
CUT
10
168.6149
20
271.9537
0
VERTEX
8
CUT
10
168.6117
20
271.9518
0
VERTEX
8
CUT
10
168.5982
20
271.9435
0
VERTEX
8
CUT
10
168.5091
20
271.8891
0
VERTEX
8
CUT
10
167.5964
20
271.5122
0
VERTEX
8
CUT
10
165.8998
20
271.3417
0
VERTEX
8
CUT
10
164.8150
20
271.4615
0
VERTEX
8
CUT
10
163.4754
20
272.0228
0
VERTEX
8
CUT
10
162.3419
20
272.8273
0
VERTEX
8
CUT
10
161.9463
20
273.2469
0
VERTEX
8
CUT
10
161.3877
20
273.9680
0
VERTEX
8
CUT
10
160.8104
20
275.1558
0
VERTEX
8
CUT
10
160.4373
20
276.4930
0
VERTEX
8
CUT
10
160.3727
20
279.1913
0
VERTEX
8
CUT
10
160.6884
20
280.4126
0
VERTEX
8
CUT
10
161.2578
20
281.3724
0
VERTEX
8
CUT
10
162.5448
20
282.2157
0
VERTEX
8
CUT
10
162.9708
20
282.7028
0
VERTEX
8
CUT
10
163.2994
20
283.7512
0
VERTEX
8
CUT
10
163.0488
20
284.2288
0
VERTEX
8
CUT
10
161.1354
20
285.1848
0
VERTEX
8
CUT
10
160.4493
20
285.7842
0
VERTEX
8
CUT
10
159.9126
20
285.7188
0
VERTEX
8
CUT
10
159.3855
20
285.1684
0
VERTEX
8
CUT
10
158.9176
20
284.9784
0
VERTEX
8
CUT
10
156.4887
20
284.7286
0
VERTEX
8
CUT
10
151.1144
20
284.9092
0
VERTEX
8
CUT
10
149.2999
20
285.1607
0
VERTEX
8
CUT
10
148.0004
20
285.7626
0
VERTEX
8
CUT
10
147.8216
20
286.3382
0
VERTEX
8
CUT
10
146.8877
20
287.6598
0
VERTEX
8
CUT
10
147.2056
20
288.1251
0
VERTEX
8
CUT
10
147.8013
20
288.4581
0
VERTEX
8
CUT
10
148.4870
20
288.3611
0
VERTEX
8
CUT
10
149.8476
20
288.9563
0
VERTEX
8
CUT
10
151.5069
20
289.0474
0
VERTEX
8
CUT
10
153.7057
20
288.5652
0
VERTEX
8
CUT
10
155.5737
20
289.3804
0
VERTEX
8
CUT
10
157.7443
20
288.9915
0
VERTEX
8
CUT
10
159.1934
20
289.3793
0
VERTEX
8
CUT
10
159.3681
20
289.6976
0
VERTEX
8
CUT
10
159.2345
20
289.9985
0
VERTEX
8
CUT
10
151.3646
20
290.2922
0
VERTEX
8
CUT
10
141.8305
20
290.0683
0
VERTEX
8
CUT
10
141.6042
20
289.7409
0
VERTEX
8
CUT
10
141.7831
20
289.3854
0
VERTEX
8
CUT
10
143.9927
20
288.3290
0
VERTEX
8
CUT
10
145.4701
20
287.8886
0
VERTEX
8
CUT
10
146.0241
20
287.4550
0
VERTEX
8
CUT
10
146.4276
20
286.4521
0
VERTEX
8
CUT
10
146.0825
20
285.2930
0
VERTEX
8
CUT
10
145.2154
20
284.8567
0
VERTEX
8
CUT
10
143.5890
20
284.6093
0
VERTEX
8
CUT
10
134.8886
20
283.9395
0
VERTEX
8
CUT
10
134.5834
20
283.6868
0
VERTEX
8
CUT
10
134.6568
20
283.2974
0
VERTEX
8
CUT
10
140.2487
20
281.1103
0
VERTEX
8
CUT
10
144.2018
20
279.0018
0
VERTEX
8
CUT
10
144.4413
20
278.8639
0
VERTEX
8
CUT
10
148.7531
20
275.9395
0
VERTEX
8
CUT
10
148.8198
20
275.8882
0
VERTEX
8
CUT
10
148.8984
20
275.8280
0
VERTEX
8
CUT
10
148.9999
20
275.7501
0
VERTEX
8
CUT
10
149.0601
20
275.7039
0
VERTEX
8
CUT
10
159.0598
20
267.8796
0
VERTEX
8
CUT
10
161.6618
20
266.2631
0
SEQEND
0
POLYLINE
8
CUT
66
1
70
1
10
0.0
20
0.0
30
0.0
0
VERTEX
8
CUT
10
166.9305
20
288.9780
0
VERTEX
8
CUT
10
166.6303
20
289.4458
0
VERTEX
8
CUT
10
162.0192
20
289.8757
0
VERTEX
8
CUT
10
161.7551
20
289.4635
0
VERTEX
8
CUT
10
162.0646
20
289.1237
0
VERTEX
8
CUT
10
166.5345
20
288.6744
0
SEQEND
0
POLYLINE
8
CUT
66
1
70
1
10
0.0
20
0.0
30
0.0
0
VERTEX
8
CUT
10
157.2328
20
94.3559
0
VERTEX
8
CUT
10
156.5894
20
85.4290
0
VERTEX
8
CUT
10
156.5896
20
81.7447
0
VERTEX
8
CUT
10
156.9810
20
78.7881
0
VERTEX
8
CUT
10
156.3548
20
77.6830
0
VERTEX
8
CUT
10
156.4632
20
77.2667
0
VERTEX
8
CUT
10
157.5505
20
76.5995
0
VERTEX
8
CUT
10
159.2791
20
73.8408
0
VERTEX
8
CUT
10
160.5547
20
72.4785
0
VERTEX
8
CUT
10
160.5721
20
72.4579
0
VERTEX
8
CUT
10
160.5765
20
72.4552
0
VERTEX
8
CUT
10
160.9752
20
72.0294
0
VERTEX
8
CUT
10
161.5898
20
71.7946
0
VERTEX
8
CUT
10
161.9293
20
71.8691
0
VERTEX
8
CUT
10
161.9352
20
71.8681
0
VERTEX
8
CUT
10
161.9390
20
71.8712
0
VERTEX
8
CUT
10
162.1045
20
71.9075
0
VERTEX
8
CUT
10
163.3997
20
72.7265
0
VERTEX
8
CUT
10
163.7821
20
73.4873
0
VERTEX
8
CUT
10
164.0606
20
75.6887
0
VERTEX
8
CUT
10
163.5583
20
78.6812
0
VERTEX
8
CUT
10
163.0381
20
80.3897
0
VERTEX
8
CUT
10
161.0517
20
84.9950
0
VERTEX
8
CUT
10
159.3888
20
89.4999
0
VERTEX
8
CUT
10
158.1961
20
94.3692
0
VERTEX
8
CUT
10
157.6670
20
94.7001
0
SEQEND
0
POLYLINE
8
CUT
66
1
70
1
10
0.0
20
0.0
30
0.0
0
VERTEX
8
CUT
10
111.8925
20
284.2906
0
VERTEX
8
CUT
10
127.6677
20
287.8653
0
VERTEX
8
CUT
10
135.6943
20
288.9365
0
VERTEX
8
CUT
10
135.9860
20
289.3780
0
VERTEX
8
CUT
10
135.7930
20
289.6548
0
VERTEX
8
CUT
10
135.3763
20
289.6879
0
VERTEX
8
CUT
10
124.8582
20
288.2114
0
VERTEX
8
CUT
10
113.6887
20
285.6762
0
VERTEX
8
CUT
10
111.5753
20
284.9740
0
VERTEX
8
CUT
10
111.4801
20
284.4937
0
SEQEND
0
POLYLINE
8
CUT
66
1
70
1
10
0.0
20
0.0
30
0.0
0
VERTEX
8
CUT
10
128.0385
20
272.1554
0
VERTEX
8
CUT
10
127.7409
20
272.5391
0
VERTEX
8
CUT
10
127.3145
20
272.7999
0
VERTEX
8
CUT
10
126.4535
20
272.8222
0
VERTEX
8
CUT
10
125.0400
20
271.7257
0
VERTEX
8
CUT
10
124.2346
20
271.6045
0
VERTEX
8
CUT
10
123.5070
20
271.7749
0
VERTEX
8
CUT
10
122.9491
20
272.1617
0
VERTEX
8
CUT
10
122.3313
20
273.2378
0
VERTEX
8
CUT
10
122.2075
20
274.8701
0
VERTEX
8
CUT
10
122.5357
20
276.1172
0
VERTEX
8
CUT
10
123.4475
20
277.3993
0
VERTEX
8
CUT
10
125.7792
20
278.8486
0
VERTEX
8
CUT
10
125.8349
20
279.2442
0
VERTEX
8
CUT
10
125.4704
20
279.5130
0
VERTEX
8
CUT
10
123.9282
20
279.8004
0
VERTEX
8
CUT
10
120.5518
20
279.9796
0
VERTEX
8
CUT
10
115.1146
20
279.6168
0
VERTEX
8
CUT
10
111.5662
20
278.9308
0
VERTEX
8
CUT
10
108.7232
20
278.1151
0
VERTEX
8
CUT
10
103.8343
20
276.3727
0
VERTEX
8
CUT
10
103.7367
20
276.0542
0
VERTEX
8
CUT
10
103.9542
20
275.7583
0
VERTEX
8
CUT
10
107.7103
20
274.7284
0
VERTEX
8
CUT
10
111.5631
20
272.9689
0
VERTEX
8
CUT
10
119.5872
20
267.8227
0
VERTEX
8
CUT
10
121.6257
20
266.8685
0
VERTEX
8
CUT
10
123.8063
20
266.5806
0
VERTEX
8
CUT
10
123.9188
20
266.5931
0
VERTEX
8
CUT
10
124.1948
20
266.5514
0
VERTEX
8
CUT
10
124.8291
20
266.6940
0
VERTEX
8
CUT
10
125.7799
20
266.7993
0
VERTEX
8
CUT
10
126.0194
20
266.9615
0
VERTEX
8
CUT
10
126.0527
20
266.9690
0
VERTEX
8
CUT
10
127.4963
20
267.9379
0
VERTEX
8
CUT
10
127.6499
20
268.1941
0
VERTEX
8
CUT
10
128.0926
20
268.7129
0
VERTEX
8
CUT
10
128.7009
20
269.8503
0
VERTEX
8
CUT
10
128.7579
20
270.5269
0
VERTEX
8
CUT
10
128.4272
20
271.6544
0
VERTEX
8
CUT
10
128.1356
20
272.0303
0
VERTEX
8
CUT
10
128.1028
20
272.0962
0
SEQEND
0
POLYLINE
8
CUT
66
1
70
1
10
0.0
20
0.0
30
0.0
0
VERTEX
8
CUT
10
99.2178
20
280.1718
0
VERTEX
8
CUT
10
99.7375
20
280.0796
0
VERTEX
8
CUT
10
105.6713
20
282.3082
0
VERTEX
8
CUT
10
105.8775
20
282.7857
0
VERTEX
8
CUT
10
105.3892
20
283.0338
0
VERTEX
8
CUT
10
102.7567
20
282.1937
0
VERTEX
8
CUT
10
99.2419
20
280.6953
0
SEQEND
0
POLYLINE
8
CUT
66
1
70
1
10
0.0
20
0.0
30
0.0
0
VERTEX
8
CUT
10
34.9333
20
287.1590
0
VERTEX
8
CUT
10
32.5754
20
285.2199
0
VERTEX
8
CUT
10
30.8132
20
283.3123
0
VERTEX
8
CUT
10
29.0993
20
280.3010
0
VERTEX
8
CUT
10
28.9227
20
279.5749
0
VERTEX
8
CUT
10
28.8759
20
279.4549
0
VERTEX
8
CUT
10
28.8333
20
279.2076
0
VERTEX
8
CUT
10
28.6026
20
278.2591
0
VERTEX
8
CUT
10
28.6133
20
277.9287
0
VERTEX
8
CUT
10
28.6066
20
277.8902
0
VERTEX
8
CUT
10
28.6035
20
276.3445
0
VERTEX
8
CUT
10
28.6738
20
276.0455
0
VERTEX
8
CUT
10
28.6905
20
275.5270
0
VERTEX
8
CUT
10
28.8445
20
275.0818
0
VERTEX
8
CUT
10
28.6374
20
274.7765
0
VERTEX
8
CUT
10
29.6052
20
273.0830
0
VERTEX
8
CUT
10
30.3612
20
272.2060
0
VERTEX
8
CUT
10
30.8451
20
271.8733
0
VERTEX
8
CUT
10
31.1475
20
272.4781
0
VERTEX
8
CUT
10
31.2076
20
273.8474
0
VERTEX
8
CUT
10
31.7259
20
276.9844
0
VERTEX
8
CUT
10
31.9879
20
277.6853
0
VERTEX
8
CUT
10
32.7445
20
279.3650
0
VERTEX
8
CUT
10
32.7630
20
279.3946
0
VERTEX
8
CUT
10
32.8876
20
279.5931
0
VERTEX
8
CUT
10
33.0325
20
279.8240
0
VERTEX
8
CUT
10
33.1438
20
280.0013
0
VERTEX
8
CUT
10
34.3789
20
281.5252
0
VERTEX
8
CUT
10
34.3944
20
281.5410
0
VERTEX
8
CUT
10
34.4602
20
281.6079
0
VERTEX
8
CUT
10
34.6394
20
281.7906
0
VERTEX
8
CUT
10
34.6939
20
281.8460
0
VERTEX
8
CUT
10
36.7401
20
283.3239
0
VERTEX
8
CUT
10
37.4329
20
283.6382
0
VERTEX
8
CUT
10
38.4563
20
284.0285
0
VERTEX
8
CUT
10
39.7852
20
284.2100
0
VERTEX
8
CUT
10
42.6257
20
284.2097
0
VERTEX
8
CUT
10
44.4844
20
284.0202
0
VERTEX
8
CUT
10
45.8099
20
283.5645
0
VERTEX
8
CUT
10
46.3899
20
283.2158
0
VERTEX
8
CUT
10
47.7421
20
282.2888
0
VERTEX
8
CUT
10
48.8265
20
281.2514
0
VERTEX
8
CUT
10
48.9269
20
281.1426
0
VERTEX
8
CUT
10
50.0109
20
279.4470
0
VERTEX
8
CUT
10
50.4584
20
277.9923
0
VERTEX
8
CUT
10
50.6211
20
276.4396
0
VERTEX
8
CUT
10
50.4704
20
274.9777
0
VERTEX
8
CUT
10
50.0018
20
273.6130
0
VERTEX
8
CUT
10
49.9820
20
273.5783
0
VERTEX
8
CUT
10
49.3032
20
272.5774
0
VERTEX
8
CUT
10
48.9746
20
272.2703
0
VERTEX
8
CUT
10
47.5789
20
271.3427
0
VERTEX
8
CUT
10
47.3037
20
271.2837
0
VERTEX
8
CUT
10
46.0813
20
271.0286
0
VERTEX
8
CUT
10
45.7913
20
271.0892
0
VERTEX
8
CUT
10
44.7267
20
271.6066
0
VERTEX
8
CUT
10
44.3659
20
272.3730
0
VERTEX
8
CUT
10
44.6947
20
274.3407
0
VERTEX
8
CUT
10
44.4940
20
275.2405
0
VERTEX
8
CUT
10
43.5024
20
276.2444
0
VERTEX
8
CUT
10
41.8376
20
276.8240
0
VERTEX
8
CUT
10
40.6136
20
276.6563
0
VERTEX
8
CUT
10
39.5742
20
276.1029
0
VERTEX
8
CUT
10
38.6011
20
275.2152
0
VERTEX
8
CUT
10
37.7462
20
273.9501
0
VERTEX
8
CUT
10
37.1276
20
272.4765
0
VERTEX
8
CUT
10
36.8029
20
270.8245
0
VERTEX
8
CUT
10
36.8025
20
269.0491
0
VERTEX
8
CUT
10
37.0678
20
267.9482
0
VERTEX
8
CUT
10
37.0951
20
267.7699
0
VERTEX
8
CUT
10
37.1510
20
267.6030
0
VERTEX
8
CUT
10
37.5231
20
266.0588
0
VERTEX
8
CUT
10
38.1505
20
264.6308
0
VERTEX
8
CUT
10
38.6467
20
263.8722
0
VERTEX
8
CUT
10
38.6669
20
263.8342
0
VERTEX
8
CUT
10
38.8074
20
263.6265
0
VERTEX
8
CUT
10
39.8253
20
262.0703
0
VERTEX
8
CUT
10
41.9524
20
260.1178
0
VERTEX
8
CUT
10
43.3610
20
259.2202
0
VERTEX
8
CUT
10
43.3800
20
259.2055
0
VERTEX
8
CUT
10
43.3941
20
259.1947
0
VERTEX
8
CUT
10
43.4004
20
259.1898
0
VERTEX
8
CUT
10
43.4552
20
259.1477
0
VERTEX
8
CUT
10
43.6345
20
258.3363
0
VERTEX
8
CUT
10
43.3350
20
257.3716
0
VERTEX
8
CUT
10
43.5161
20
256.9848
0
VERTEX
8
CUT
10
43.9730
20
257.0187
0
VERTEX
8
CUT
10
47.6173
20
260.7557
0
VERTEX
8
CUT
10
53.9964
20
266.3657
0
VERTEX
8
CUT
10
55.5697
20
267.7102
0
VERTEX
8
CUT
10
56.2517
20
268.2930
0
VERTEX
8
CUT
10
56.3466
20
268.3741
0
VERTEX
8
CUT
10
56.6516
20
268.6348
0
VERTEX
8
CUT
10
65.2798
20
275.1216
0
VERTEX
8
CUT
10
75.0247
20
281.4057
0
VERTEX
8
CUT
10
88.6369
20
288.7989
0
VERTEX
8
CUT
10
88.9077
20
288.9374
0
VERTEX
8
CUT
10
89.1037
20
289.0524
0
VERTEX
8
CUT
10
89.8100
20
289.4360
0
VERTEX
8
CUT
10
89.8448
20
289.4873
0
VERTEX
8
CUT
10
90.0306
20
289.5963
0
VERTEX
8
CUT
10
90.1610
20
289.9421
0
VERTEX
8
CUT
10
89.8720
20
290.2679
0
VERTEX
8
CUT
10
88.9256
20
290.3226
0
VERTEX
8
CUT
10
86.1904
20
290.2615
0
VERTEX
8
CUT
10
85.9727
20
290.2259
0
VERTEX
8
CUT
10
78.6901
20
290.2923
0
VERTEX
8
CUT
10
41.5622
20
290.1702
0
VERTEX
8
CUT
10
37.3244
20
288.5318
0
SEQEND
0
POLYLINE
8
CUT
66
1
70
1
10
0.0
20
0.0
30
0.0
0
VERTEX
8
CUT
10
41.9923
20
24.1159
0
VERTEX
8
CUT
10
42.6401
20
24.3786
0
VERTEX
8
CUT
10
42.8738
20
24.4254
0
VERTEX
8
CUT
10
43.1153
20
24.5713
0
VERTEX
8
CUT
10
43.5659
20
24.7541
0
VERTEX
8
CUT
10
43.6936
20
24.9208
0
VERTEX
8
CUT
10
43.9484
20
25.0747
0
VERTEX
8
CUT
10
44.3355
20
25.5090
0
VERTEX
8
CUT
10
44.5473
20
26.0348
0
VERTEX
8
CUT
10
44.6012
20
26.1052
0
VERTEX
8
CUT
10
44.6152
20
26.2035
0
VERTEX
8
CUT
10
44.6965
20
26.4054
0
VERTEX
8
CUT
10
44.6838
20
26.6858
0
VERTEX
8
CUT
10
44.7569
20
27.1995
0
VERTEX
8
CUT
10
44.2747
20
28.9666
0
VERTEX
8
CUT
10
44.4701
20
29.3808
0
VERTEX
8
CUT
10
44.6544
20
29.6265
0
VERTEX
8
CUT
10
45.7182
20
30.0269
0
VERTEX
8
CUT
10
47.4147
20
29.8376
0
VERTEX
8
CUT
10
48.6216
20
29.0302
0
VERTEX
8
CUT
10
49.6518
20
27.8348
0
VERTEX
8
CUT
10
49.8229
20
27.4783
0
VERTEX
8
CUT
10
49.9453
20
27.2230
0
VERTEX
8
CUT
10
50.0318
20
27.0428
0
VERTEX
8
CUT
10
50.3159
20
26.4506
0
VERTEX
8
CUT
10
50.3730
20
26.3228
0
VERTEX
8
CUT
10
50.5714
20
24.1917
0
VERTEX
8
CUT
10
50.4860
20
23.5986
0
VERTEX
8
CUT
10
50.0240
20
21.8562
0
VERTEX
8
CUT
10
49.9107
20
21.5750
0
VERTEX
8
CUT
10
48.6742
20
19.6228
0
VERTEX
8
CUT
10
47.3360
20
18.3420
0
VERTEX
8
CUT
10
45.5805
20
17.2023
0
VERTEX
8
CUT
10
43.8854
20
16.6133
0
VERTEX
8
CUT
10
41.8528
20
16.3627
0
VERTEX
8
CUT
10
38.7587
20
16.6751
0
VERTEX
8
CUT
10
36.5414
20
17.5859
0
VERTEX
8
CUT
10
35.3001
20
18.4190
0
VERTEX
8
CUT
10
34.1695
20
19.4521
0
VERTEX
8
CUT
10
33.2292
20
20.6336
0
VERTEX
8
CUT
10
31.8195
20
23.4202
0
VERTEX
8
CUT
10
31.4217
20
24.9618
0
VERTEX
8
CUT
10
30.9741
20
28.5405
0
VERTEX
8
CUT
10
30.7250
20
28.7693
0
VERTEX
8
CUT
10
30.4105
20
28.7205
0
VERTEX
8
CUT
10
30.3310
20
28.7886
0
VERTEX
8
CUT
10
29.7866
20
28.3350
0
VERTEX
8
CUT
10
29.2423
20
27.3673
0
VERTEX
8
CUT
10
29.2105
20
27.1134
0
VERTEX
8
CUT
10
29.1548
20
26.9801
0
VERTEX
8
CUT
10
29.0952
20
26.8717
0
VERTEX
8
CUT
10
29.0617
20
26.7576
0
VERTEX
8
CUT
10
28.5669
20
25.5748
0
VERTEX
8
CUT
10
28.3938
20
23.5050
0
VERTEX
8
CUT
10
28.8309
20
21.4055
0
VERTEX
8
CUT
10
29.4786
20
19.8677
0
VERTEX
8
CUT
10
30.6090
20
18.0168
0
VERTEX
8
CUT
10
32.0082
20
16.3140
0
VERTEX
8
CUT
10
33.7112
20
14.7551
0
VERTEX
8
CUT
10
35.6604
20
13.3720
0
VERTEX
8
CUT
10
37.7525
20
12.1744
0
VERTEX
8
CUT
10
40.0277
20
11.2133
0
VERTEX
8
CUT
10
40.4834
20
11.0807
0
VERTEX
8
CUT
10
41.0955
20
10.8172
0
VERTEX
8
CUT
10
41.5351
20
10.7744
0
VERTEX
8
CUT
10
42.4362
20
10.5120
0
VERTEX
8
CUT
10
44.8645
20
10.0956
0
VERTEX
8
CUT
10
68.1039
20
9.8857
0
VERTEX
8
CUT
10
82.3150
20
10.0370
0
VERTEX
8
CUT
10
84.3117
20
10.0891
0
VERTEX
8
CUT
10
87.2146
20
10.0974
0
VERTEX
8
CUT
10
87.5859
20
10.3681
0
VERTEX
8
CUT
10
87.4713
20
10.7810
0
VERTEX
8
CUT
10
86.4361
20
11.3577
0
VERTEX
8
CUT
10
85.2167
20
11.9229
0
VERTEX
8
CUT
10
80.0665
20
14.5735
0
VERTEX
8
CUT
10
75.8233
20
16.9984
0
VERTEX
8
CUT
10
63.7430
20
24.9918
0
VERTEX
8
CUT
10
55.5340
20
31.4444
0
VERTEX
8
CUT
10
44.2484
20
41.6370
0
VERTEX
8
CUT
10
43.4851
20
42.0238
0
VERTEX
8
CUT
10
41.9857
20
41.2546
0
VERTEX
8
CUT
10
40.9743
20
41.4659
0
VERTEX
8
CUT
10
40.5993
20
41.2577
0
VERTEX
8
CUT
10
40.5413
20
40.4611
0
VERTEX
8
CUT
10
40.0797
20
39.4698
0
VERTEX
8
CUT
10
37.9810
20
36.1177
0
VERTEX
8
CUT
10
37.0108
20
33.6213
0
VERTEX
8
CUT
10
36.8445
20
32.1073
0
VERTEX
8
CUT
10
36.7931
20
32.0606
0
VERTEX
8
CUT
10
36.8071
20
31.7658
0
VERTEX
8
CUT
10
36.7138
20
30.9163
0
VERTEX
8
CUT
10
36.8900
20
29.3452
0
VERTEX
8
CUT
10
37.3480
20
27.8372
0
VERTEX
8
CUT
10
38.0334
20
26.5451
0
VERTEX
8
CUT
10
38.1890
20
26.3867
0
VERTEX
8
CUT
10
38.2474
20
26.2813
0
VERTEX
8
CUT
10
39.2044
20
25.2079
0
VERTEX
8
CUT
10
39.6079
20
24.9428
0
VERTEX
8
CUT
10
39.8093
20
24.7379
0
VERTEX
8
CUT
10
40.2016
20
24.5528
0
VERTEX
8
CUT
10
40.3949
20
24.4259
0
VERTEX
8
CUT
10
40.5306
20
24.3976
0
VERTEX
8
CUT
10
40.8930
20
24.2266
0
SEQEND
0
POLYLINE
8
CUT
66
1
70
1
10
0.0
20
0.0
30
0.0
0
VERTEX
8
CUT
10
68.5842
20
249.7631
0
VERTEX
8
CUT
10
71.4879
20
249.3699
0
VERTEX
8
CUT
10
74.7624
20
248.5009
0
VERTEX
8
CUT
10
75.0804
20
248.5817
0
VERTEX
8
CUT
10
75.2231
20
248.9141
0
VERTEX
8
CUT
10
74.8790
20
252.7048
0
VERTEX
8
CUT
10
75.0004
20
256.5258
0
VERTEX
8
CUT
10
76.0379
20
259.1853
0
VERTEX
8
CUT
10
76.7800
20
261.5423
0
VERTEX
8
CUT
10
76.7030
20
261.8666
0
VERTEX
8
CUT
10
76.4036
20
262.0130
0
VERTEX
8
CUT
10
76.0549
20
261.8818
0
VERTEX
8
CUT
10
71.1982
20
258.4029
0
VERTEX
8
CUT
10
63.6758
20
252.3610
0
VERTEX
8
CUT
10
60.8613
20
249.7272
0
VERTEX
8
CUT
10
60.9045
20
249.3904
0
VERTEX
8
CUT
10
61.2344
20
249.2136
0
VERTEX
8
CUT
10
65.4446
20
249.7933
0
SEQEND
0
POLYLINE
8
CUT
66
1
70
1
10
0.0
20
0.0
30
0.0
0
VERTEX
8
CUT
10
56.0618
20
252.6500
0
VERTEX
8
CUT
10
55.5201
20
252.7312
0
VERTEX
8
CUT
10
52.9777
20
250.2382
0
VERTEX
8
CUT
10
53.1281
20
249.7703
0
VERTEX
8
CUT
10
53.5889
20
249.7957
0
VERTEX
8
CUT
10
56.0432
20
252.1592
0
SEQEND
0
POLYLINE
8
CUT
66
1
70
1
10
0.0
20
0.0
30
0.0
0
VERTEX
8
CUT
10
45.0702
20
241.2431
0
VERTEX
8
CUT
10
44.5218
20
241.1967
0
VERTEX
8
CUT
10
39.1593
20
234.4852
0
VERTEX
8
CUT
10
39.3640
20
234.0405
0
VERTEX
8
CUT
10
39.8420
20
234.1462
0
VERTEX
8
CUT
10
45.1419
20
240.7254
0
SEQEND
0
POLYLINE
8
CUT
66
1
70
1
10
0.0
20
0.0
30
0.0
0
VERTEX
8
CUT
10
23.2295
20
256.1498
0
VERTEX
8
CUT
10
23.2294
20
256.1426
0
VERTEX
8
CUT
10
23.1598
20
255.9518
0
VERTEX
8
CUT
10
23.2214
20
255.5354
0
VERTEX
8
CUT
10
23.2181
20
255.2822
0
VERTEX
8
CUT
10
23.2981
20
255.0171
0
VERTEX
8
CUT
10
23.3675
20
254.5482
0
VERTEX
8
CUT
10
23.5206
20
254.3558
0
VERTEX
8
CUT
10
23.9708
20
253.6502
0
VERTEX
8
CUT
10
24.3863
20
253.2680
0
VERTEX
8
CUT
10
24.4267
20
253.2173
0
VERTEX
8
CUT
10
24.4552
20
253.2046
0
VERTEX
8
CUT
10
24.5284
20
253.1373
0
VERTEX
8
CUT
10
25.0259
20
252.9515
0
VERTEX
8
CUT
10
25.3183
20
252.8218
0
VERTEX
8
CUT
10
26.3306
20
252.7687
0
VERTEX
8
CUT
10
27.2861
20
252.6700
0
VERTEX
8
CUT
10
27.7179
20
252.4025
0
VERTEX
8
CUT
10
27.8332
20
251.9062
0
VERTEX
8
CUT
10
27.8725
20
251.6380
0
VERTEX
8
CUT
10
27.8585
20
251.4755
0
VERTEX
8
CUT
10
27.7474
20
250.8789
0
VERTEX
8
CUT
10
26.8474
20
249.4065
0
VERTEX
8
CUT
10
26.5417
20
249.1025
0
VERTEX
8
CUT
10
26.3501
20
248.9648
0
VERTEX
8
CUT
10
24.6020
20
248.1496
0
VERTEX
8
CUT
10
23.7245
20
248.0326
0
VERTEX
8
CUT
10
23.3042
20
247.9926
0
VERTEX
8
CUT
10
23.2414
20
247.9973
0
VERTEX
8
CUT
10
23.1161
20
248.0067
0
VERTEX
8
CUT
10
23.1068
20
248.0074
0
VERTEX
8
CUT
10
22.9955
20
248.0157
0
VERTEX
8
CUT
10
21.8745
20
248.1717
0
VERTEX
8
CUT
10
20.5636
20
248.6274
0
VERTEX
8
CUT
10
19.9315
20
249.0038
0
VERTEX
8
CUT
10
19.0848
20
249.6787
0
VERTEX
8
CUT
10
18.9760
20
249.7666
0
VERTEX
8
CUT
10
18.9005
20
249.8277
0
VERTEX
8
CUT
10
18.7796
20
249.9254
0
VERTEX
8
CUT
10
18.1557
20
250.4298
0
VERTEX
8
CUT
10
16.5660
20
252.8763
0
VERTEX
8
CUT
10
15.8266
20
255.5079
0
VERTEX
8
CUT
10
15.8179
20
258.2236
0
VERTEX
8
CUT
10
16.5566
20
260.7892
0
VERTEX
8
CUT
10
17.9253
20
263.0900
0
VERTEX
8
CUT
10
19.7349
20
264.8076
0
VERTEX
8
CUT
10
19.8365
20
264.8685
0
VERTEX
8
CUT
10
19.8673
20
264.8572
0
VERTEX
8
CUT
10
20.0556
20
265.0001
0
VERTEX
8
CUT
10
20.2081
20
265.0916
0
VERTEX
8
CUT
10
21.3873
20
265.6719
0
VERTEX
8
CUT
10
22.7622
20
266.1714
0
VERTEX
8
CUT
10
22.8104
20
266.1813
0
VERTEX
8
CUT
10
22.8139
20
266.1820
0
VERTEX
8
CUT
10
22.8734
20
266.1942
0
VERTEX
8
CUT
10
26.2624
20
266.6378
0
VERTEX
8
CUT
10
26.6381
20
266.9891
0
VERTEX
8
CUT
10
26.5203
20
267.1785
0
VERTEX
8
CUT
10
26.5242
20
267.2843
0
VERTEX
8
CUT
10
26.3811
20
267.4025
0
VERTEX
8
CUT
10
26.1549
20
267.7661
0
VERTEX
8
CUT
10
25.2282
20
268.5084
0
VERTEX
8
CUT
10
24.9602
20
268.6655
0
VERTEX
8
CUT
10
24.7362
20
268.8491
0
VERTEX
8
CUT
10
24.7012
20
268.8172
0
VERTEX
8
CUT
10
24.2796
20
269.0643
0
VERTEX
8
CUT
10
22.2506
20
269.6635
0
VERTEX
8
CUT
10
20.0752
20
269.6712
0
VERTEX
8
CUT
10
17.8976
20
269.0318
0
VERTEX
8
CUT
10
16.6957
20
268.3549
0
VERTEX
8
CUT
10
14.5603
20
266.5108
0
VERTEX
8
CUT
10
13.5209
20
265.2876
0
VERTEX
8
CUT
10
11.7286
20
262.4733
0
VERTEX
8
CUT
10
9.6530
20
257.0999
0
VERTEX
8
CUT
10
9.6340
20
251.4268
0
VERTEX
8
CUT
10
9.3733
20
251.1878
0
VERTEX
8
CUT
10
9.3431
20
249.0406
0
VERTEX
8
CUT
10
9.6152
20
248.5265
0
VERTEX
8
CUT
10
9.6244
20
248.5274
0
VERTEX
8
CUT
10
9.5228
20
218.1056
0
VERTEX
8
CUT
10
9.6047
20
212.4719
0
VERTEX
8
CUT
10
9.5398
20
212.4198
0
VERTEX
8
CUT
10
9.6186
20
206.6590
0
VERTEX
8
CUT
10
10.0345
20
206.4481
0
VERTEX
8
CUT
10
10.1593
20
206.5719
0
VERTEX
8
CUT
10
10.3814
20
206.6964
0
VERTEX
8
CUT
10
13.6613
20
213.8725
0
VERTEX
8
CUT
10
17.9218
20
222.1343
0
VERTEX
8
CUT
10
18.3157
20
222.8337
0
VERTEX
8
CUT
10
18.3455
20
222.8865
0
VERTEX
8
CUT
10
18.3734
20
222.9361
0
VERTEX
8
CUT
10
18.3817
20
222.9509
0
VERTEX
8
CUT
10
25.0683
20
233.8348
0
VERTEX
8
CUT
10
25.1833
20
234.0051
0
VERTEX
8
CUT
10
25.2589
20
234.1170
0
VERTEX
8
CUT
10
25.3516
20
234.2542
0
VERTEX
8
CUT
10
25.8171
20
234.9434
0
VERTEX
8
CUT
10
32.2317
20
243.7987
0
VERTEX
8
CUT
10
39.6318
20
252.5580
0
VERTEX
8
CUT
10
42.4488
20
255.5443
0
VERTEX
8
CUT
10
42.1793
20
255.9900
0
VERTEX
8
CUT
10
41.5188
20
255.8774
0
VERTEX
8
CUT
10
40.7912
20
256.0209
0
VERTEX
8
CUT
10
39.0926
20
257.2920
0
VERTEX
8
CUT
10
37.3229
20
258.2831
0
VERTEX
8
CUT
10
33.4686
20
259.8997
0
VERTEX
8
CUT
10
30.1548
20
260.3824
0
VERTEX
8
CUT
10
27.7145
20
260.1982
0
VERTEX
8
CUT
10
26.0382
20
259.6464
0
VERTEX
8
CUT
10
24.6950
20
258.7701
0
VERTEX
8
CUT
10
23.7581
20
257.5928
0
VERTEX
8
CUT
10
23.2471
20
256.1912
0
SEQEND
0
POLYLINE
8
CUT
66
1
70
1
10
0.0
20
0.0
30
0.0
0
VERTEX
8
CUT
10
18.8813
20
32.2714
0
VERTEX
8
CUT
10
19.3297
20
32.1024
0
VERTEX
8
CUT
10
19.7535
20
32.0464
0
VERTEX
8
CUT
10
19.9604
20
31.9930
0
VERTEX
8
CUT
10
20.2763
20
31.9774
0
VERTEX
8
CUT
10
21.0526
20
31.8748
0
VERTEX
8
CUT
10
21.5510
20
31.9141
0
VERTEX
8
CUT
10
21.6225
20
31.9106
0
VERTEX
8
CUT
10
21.6834
20
31.9246
0
VERTEX
8
CUT
10
22.2228
20
31.9671
0
VERTEX
8
CUT
10
23.8423
20
32.4193
0
VERTEX
8
CUT
10
24.8780
20
33.0368
0
VERTEX
8
CUT
10
25.3566
20
33.4718
0
VERTEX
8
CUT
10
25.4933
20
33.5647
0
VERTEX
8
CUT
10
25.6998
20
33.7837
0
VERTEX
8
CUT
10
26.1592
20
34.2012
0
VERTEX
8
CUT
10
26.1793
20
34.2923
0
VERTEX
8
CUT
10
26.2800
20
34.3992
0
VERTEX
8
CUT
10
26.2881
20
34.4859
0
VERTEX
8
CUT
10
26.3300
20
34.5290
0
VERTEX
8
CUT
10
26.2969
20
34.5813
0
VERTEX
8
CUT
10
26.3136
20
34.7615
0
VERTEX
8
CUT
10
26.0703
20
34.9842
0
VERTEX
8
CUT
10
26.0394
20
34.9876
0
VERTEX
8
CUT
10
26.0353
20
34.9941
0
VERTEX
8
CUT
10
25.6252
20
35.0336
0
VERTEX
8
CUT
10
22.0943
20
35.6987
0
VERTEX
8
CUT
10
21.8003
20
35.8015
0
VERTEX
8
CUT
10
19.6509
20
36.8769
0
VERTEX
8
CUT
10
17.8126
20
38.5385
0
VERTEX
8
CUT
10
16.5048
20
40.5193
0
VERTEX
8
CUT
10
15.6986
20
42.7575
0
VERTEX
8
CUT
10
15.5461
20
45.1430
0
VERTEX
8
CUT
10
16.0447
20
47.5586
0
VERTEX
8
CUT
10
17.2489
20
49.8154
0
VERTEX
8
CUT
10
17.2987
20
49.8886
0
VERTEX
8
CUT
10
18.7557
20
51.3750
0
VERTEX
8
CUT
10
18.9900
20
51.5828
0
VERTEX
8
CUT
10
20.9460
20
52.6655
0
VERTEX
8
CUT
10
22.9355
20
53.0404
0
VERTEX
8
CUT
10
25.0554
20
52.6932
0
VERTEX
8
CUT
10
26.3961
20
51.8277
0
VERTEX
8
CUT
10
26.7872
20
51.4390
0
VERTEX
8
CUT
10
27.0771
20
50.9520
0
VERTEX
8
CUT
10
27.4561
20
50.1057
0
VERTEX
8
CUT
10
27.4623
20
49.0746
0
VERTEX
8
CUT
10
27.3890
20
48.5695
0
VERTEX
8
CUT
10
26.7756
20
48.3004
0
VERTEX
8
CUT
10
24.9796
20
48.3227
0
VERTEX
8
CUT
10
23.9838
20
47.9326
0
VERTEX
8
CUT
10
23.2068
20
46.9376
0
VERTEX
8
CUT
10
22.9254
20
45.5484
0
VERTEX
8
CUT
10
23.4400
20
44.0129
0
VERTEX
8
CUT
10
24.5824
20
42.6366
0
VERTEX
8
CUT
10
25.4505
20
41.9865
0
VERTEX
8
CUT
10
27.3248
20
41.1738
0
VERTEX
8
CUT
10
29.5798
20
40.7922
0
VERTEX
8
CUT
10
32.0558
20
40.8519
0
VERTEX
8
CUT
10
34.4940
20
41.2662
0
VERTEX
8
CUT
10
37.6475
20
42.2656
0
VERTEX
8
CUT
10
38.0620
20
42.3521
0
VERTEX
8
CUT
10
38.8481
20
42.4260
0
VERTEX
8
CUT
10
39.8143
20
42.2235
0
VERTEX
8
CUT
10
40.0701
20
42.6064
0
VERTEX
8
CUT
10
39.7172
20
43.9403
0
VERTEX
8
CUT
10
40.5144
20
44.9595
0
VERTEX
8
CUT
10
40.7212
20
45.5449
0
VERTEX
8
CUT
10
29.8327
20
59.4760
0
VERTEX
8
CUT
10
26.1386
20
64.7744
0
VERTEX
8
CUT
10
22.6560
20
70.1946
0
VERTEX
8
CUT
10
16.3813
20
81.1376
0
VERTEX
8
CUT
10
13.6858
20
86.5297
0
VERTEX
8
CUT
10
10.6628
20
93.2305
0
VERTEX
8
CUT
10
10.6737
20
93.3249
0
VERTEX
8
CUT
10
10.3108
20
94.5648
0
VERTEX
8
CUT
10
9.7060
20
95.1697
0
VERTEX
8
CUT
10
9.4338
20
94.9882
0
VERTEX
8
CUT
10
9.3431
20
94.6253
0
VERTEX
8
CUT
10
9.3733
20
92.4177
0
VERTEX
8
CUT
10
9.6229
20
92.2134
0
VERTEX
8
CUT
10
9.5228
20
87.1803
0
VERTEX
8
CUT
10
9.5229
20
53.4644
0
VERTEX
8
CUT
10
9.6439
20
47.6319
0
VERTEX
8
CUT
10
9.9686
20
43.8825
0
VERTEX
8
CUT
10
10.6231
20
41.4662
0
VERTEX
8
CUT
10
11.6078
20
39.1882
0
VERTEX
8
CUT
10
12.7987
20
37.1580
0
VERTEX
8
CUT
10
13.9416
20
35.7298
0
VERTEX
8
CUT
10
13.9806
20
35.6691
0
VERTEX
8
CUT
10
14.0328
20
35.6158
0
VERTEX
8
CUT
10
14.2667
20
35.3235
0
VERTEX
8
CUT
10
14.8134
20
34.8187
0
VERTEX
8
CUT
10
15.3792
20
34.2411
0
VERTEX
8
CUT
10
15.6723
20
34.0257
0
VERTEX
8
CUT
10
15.8241
20
33.8856
0
VERTEX
8
CUT
10
16.1411
20
33.6814
0
VERTEX
8
CUT
10
16.8328
20
33.1733
0
VERTEX
8
CUT
10
17.2515
20
32.9660
0
VERTEX
8
CUT
10
17.5518
20
32.7726
0
VERTEX
8
CUT
10
17.9318
20
32.6294
0
VERTEX
8
CUT
10
18.4086
20
32.3934
0
SEQEND
0
POLYLINE
8
CUT
66
1
70
1
10
0.0
20
0.0
30
0.0
0
VERTEX
8
CUT
10
26.2999
20
98.5103
0
VERTEX
8
CUT
10
26.7708
20
98.3447
0
VERTEX
8
CUT
10
27.0175
20
98.6346
0
VERTEX
8
CUT
10
28.2843
20
104.0884
0
VERTEX
8
CUT
10
29.6924
20
107.3661
0
VERTEX
8
CUT
10
31.3773
20
110.2716
0
VERTEX
8
CUT
10
35.2522
20
114.7218
0
VERTEX
8
CUT
10
35.4058
20
115.1879
0
VERTEX
8
CUT
10
35.0637
20
115.4596
0
VERTEX
8
CUT
10
29.1693
20
115.7663
0
VERTEX
8
CUT
10
25.9270
20
116.5580
0
VERTEX
8
CUT
10
23.0392
20
117.9539
0
VERTEX
8
CUT
10
19.2419
20
120.8837
0
VERTEX
8
CUT
10
18.8575
20
120.7948
0
VERTEX
8
CUT
10
18.7474
20
120.4159
0
VERTEX
8
CUT
10
21.6377
20
110.6637
0
VERTEX
8
CUT
10
25.4084
20
100.4058
0
SEQEND
0
POLYLINE
8
CUT
66
1
70
1
10
0.0
20
0.0
30
0.0
0
VERTEX
8
CUT
10
28.3059
20
207.4738
0
VERTEX
8
CUT
10
25.2622
20
200.3892
0
VERTEX
8
CUT
10
25.0302
20
199.7139
0
VERTEX
8
CUT
10
24.9363
20
199.5000
0
VERTEX
8
CUT
10
24.5889
20
198.4300
0
VERTEX
8
CUT
10
23.6343
20
195.6524
0
VERTEX
8
CUT
10
22.9786
20
192.2719
0
VERTEX
8
CUT
10
22.8605
20
188.7924
0
VERTEX
8
CUT
10
23.1404
20
186.8070
0
VERTEX
8
CUT
10
23.2232
20
185.9460
0
VERTEX
8
CUT
10
23.2983
20
185.6869
0
VERTEX
8
CUT
10
23.5446
20
183.9401
0
VERTEX
8
CUT
10
24.5726
20
181.1933
0
VERTEX
8
CUT
10
25.1091
20
180.3086
0
VERTEX
8
CUT
10
26.3743
20
179.0194
0
VERTEX
8
CUT
10
26.7747
20
178.8246
0
VERTEX
8
CUT
10
27.6450
20
178.3637
0
VERTEX
8
CUT
10
27.7472
20
178.3515
0
VERTEX
8
CUT
10
27.8003
20
178.3257
0
VERTEX
8
CUT
10
27.9220
20
178.3307
0
VERTEX
8
CUT
10
28.5576
20
178.2549
0
VERTEX
8
CUT
10
28.9372
20
178.3724
0
VERTEX
8
CUT
10
29.0280
20
178.3761
0
VERTEX
8
CUT
10
29.1660
20
178.4432
0
VERTEX
8
CUT
10
29.5049
20
178.5481
0
VERTEX
8
CUT
10
29.6279
20
178.6678
0
VERTEX
8
CUT
10
29.7061
20
178.7059
0
VERTEX
8
CUT
10
30.3510
20
179.3567
0
VERTEX
8
CUT
10
30.8596
20
180.2628
0
VERTEX
8
CUT
10
31.4183
20
182.9246
0
VERTEX
8
CUT
10
31.2996
20
186.7632
0
VERTEX
8
CUT
10
29.6677
20
196.6179
0
VERTEX
8
CUT
10
29.4553
20
207.0022
0
VERTEX
8
CUT
10
29.3705
20
208.0730
0
VERTEX
8
CUT
10
29.0528
20
208.3285
0
VERTEX
8
CUT
10
28.7045
20
208.1922
0
SEQEND
0
POLYLINE
8
CUT
66
1
70
1
10
0.0
20
0.0
30
0.0
0
VERTEX
8
CUT
10
27.5254
20
10.2583
0
VERTEX
8
CUT
10
27.6216
20
10.3330
0
VERTEX
8
CUT
10
27.8311
20
10.3492
0
VERTEX
8
CUT
10
27.8444
20
10.5058
0
VERTEX
8
CUT
10
27.8632
20
10.5204
0
VERTEX
8
CUT
10
27.8508
20
10.5813
0
VERTEX
8
CUT
10
27.8748
20
10.8650
0
VERTEX
8
CUT
10
24.5167
20
14.5524
0
VERTEX
8
CUT
10
24.5071
20
14.5672
0
VERTEX
8
CUT
10
24.4927
20
14.5895
0
VERTEX
8
CUT
10
24.4755
20
14.6161
0
VERTEX
8
CUT
10
24.2288
20
14.9974
0
VERTEX
8
CUT
10
23.0381
20
16.9742
0
VERTEX
8
CUT
10
23.0285
20
16.9931
0
VERTEX
8
CUT
10
23.0095
20
17.0303
0
VERTEX
8
CUT
10
22.9820
20
17.0841
0
VERTEX
8
CUT
10
22.9807
20
17.0866
0
VERTEX
8
CUT
10
22.1511
20
19.3916
0
VERTEX
8
CUT
10
22.0749
20
19.6231
0
VERTEX
8
CUT
10
21.4848
20
23.9723
0
VERTEX
8
CUT
10
18.1443
20
24.4439
0
VERTEX
8
CUT
10
14.5598
20
25.6289
0
VERTEX
8
CUT
10
12.4427
20
26.8444
0
VERTEX
8
CUT
10
10.2580
20
28.9694
0
VERTEX
8
CUT
10
9.9313
20
28.9884
0
VERTEX
8
CUT
10
9.6947
20
28.7160
0
VERTEX
8
CUT
10
9.5227
20
26.2086
0
VERTEX
8
CUT
10
9.5226
20
16.2467
0
VERTEX
8
CUT
10
9.5001
20
16.2244
0
VERTEX
8
CUT
10
9.5226
20
15.1846
0
VERTEX
8
CUT
10
9.5226
20
13.4999
0
VERTEX
8
CUT
10
9.5785
20
12.5973
0
VERTEX
8
CUT
10
9.5833
20
12.3756
0
VERTEX
8
CUT
10
9.5978
20
12.2865
0
VERTEX
8
CUT
10
9.6432
20
11.5545
0
VERTEX
8
CUT
10
9.7612
20
11.2812
0
VERTEX
8
CUT
10
9.7759
20
11.1908
0
VERTEX
8
CUT
10
9.8234
20
11.1372
0
VERTEX
8
CUT
10
10.0372
20
10.6420
0
VERTEX
8
CUT
10
10.4016
20
10.4847
0
VERTEX
8
CUT
10
10.7281
20
10.1162
0
VERTEX
8
CUT
10
13.8266
20
10.1254
0
VERTEX
8
CUT
10
14.4825
20
10.0975
0
VERTEX
8
CUT
10
24.9642
20
10.1277
0
VERTEX
8
CUT
10
25.9124
20
10.2009
0
SEQEND
0
POLYLINE
8
CUT
66
1
70
1
10
0.0
20
0.0
30
0.0
0
VERTEX
8
CUT
10
9.6432
20
288.8655
0
VERTEX
8
CUT
10
9.5226
20
286.9499
0
VERTEX
8
CUT
10
9.5227
20
279.6518
0
VERTEX
8
CUT
10
9.4926
20
277.7144
0
VERTEX
8
CUT
10
9.5228
20
276.7779
0
VERTEX
8
CUT
10
9.5228
20
274.7606
0
VERTEX
8
CUT
10
9.6695
20
272.2290
0
VERTEX
8
CUT
10
9.6754
20
272.0465
0
VERTEX
8
CUT
10
9.9053
20
271.8509
0
VERTEX
8
CUT
10
10.2392
20
271.8979
0
VERTEX
8
CUT
10
10.3049
20
271.9571
0
VERTEX
8
CUT
10
13.1917
20
274.4697
0
VERTEX
8
CUT
10
16.1110
20
276.0821
0
VERTEX
8
CUT
10
18.1822
20
276.6435
0
VERTEX
8
CUT
10
18.4560
20
276.6880
0
VERTEX
8
CUT
10
20.3203
20
276.8895
0
VERTEX
8
CUT
10
21.2260
20
277.1390
0
VERTEX
8
CUT
10
21.4569
20
277.1766
0
VERTEX
8
CUT
10
21.7195
20
277.9245
0
VERTEX
8
CUT
10
22.0471
20
280.9015
0
VERTEX
8
CUT
10
22.9679
20
283.7654
0
VERTEX
8
CUT
10
24.2989
20
286.1565
0
VERTEX
8
CUT
10
27.1669
20
289.5779
0
VERTEX
8
CUT
10
27.1214
20
290.0617
0
VERTEX
8
CUT
10
27.0484
20
290.0669
0
VERTEX
8
CUT
10
27.0340
20
290.1676
0
VERTEX
8
CUT
10
26.1925
20
290.3206
0
VERTEX
8
CUT
10
25.5183
20
290.1772
0
VERTEX
8
CUT
10
23.9218
20
290.2922
0
VERTEX
8
CUT
10
14.2707
20
290.3225
0
VERTEX
8
CUT
10
10.9197
20
290.1721
0
VERTEX
8
CUT
10
10.0372
20
289.7780
0
SEQEND
0
POLYLINE
8
CUT
66
1
70
1
10
0.0
20
0.0
30
0.0
0
VERTEX
8
CUT
10
76.1832
20
83.1925
0
VERTEX
8
CUT
10
74.2371
20
84.6080
0
VERTEX
8
CUT
10
72.5149
20
85.5158
0
VERTEX
8
CUT
10
70.0711
20
86.5104
0
VERTEX
8
CUT
10
70.0671
20
86.5124
0
VERTEX
8
CUT
10
70.0595
20
86.5151
0
VERTEX
8
CUT
10
69.1108
20
86.9013
0
VERTEX
8
CUT
10
54.5036
20
92.1679
0
VERTEX
8
CUT
10
44.9789
20
96.0166
0
VERTEX
8
CUT
10
43.3748
20
96.8061
0
VERTEX
8
CUT
10
41.2561
20
98.1923
0
VERTEX
8
CUT
10
40.4270
20
99.6082
0
VERTEX
8
CUT
10
40.2879
20
100.2789
0
VERTEX
8
CUT
10
40.2965
20
100.7060
0
VERTEX
8
CUT
10
40.2975
20
100.7583
0
VERTEX
8
CUT
10
40.2984
20
100.8043
0
VERTEX
8
CUT
10
40.2989
20
100.8254
0
VERTEX
8
CUT
10
40.4492
20
102.0826
0
VERTEX
8
CUT
10
40.6946
20
102.7705
0
VERTEX
8
CUT
10
41.3563
20
104.2484
0
VERTEX
8
CUT
10
43.3537
20
107.0008
0
VERTEX
8
CUT
10
45.0867
20
108.9218
0
VERTEX
8
CUT
10
50.1476
20
113.5942
0
VERTEX
8
CUT
10
50.2825
20
113.6879
0
VERTEX
8
CUT
10
50.3029
20
113.7022
0
VERTEX
8
CUT
10
50.3972
20
113.7677
0
VERTEX
8
CUT
10
50.9084
20
114.1231
0
VERTEX
8
CUT
10
54.8699
20
116.7912
0
VERTEX
8
CUT
10
57.0360
20
118.0440
0
VERTEX
8
CUT
10
60.5816
20
119.4449
0
VERTEX
8
CUT
10
60.6294
20
119.4558
0
VERTEX
8
CUT
10
63.9330
20
120.1212
0
VERTEX
8
CUT
10
77.5390
20
120.2690
0
VERTEX
8
CUT
10
77.9949
20
120.3100
0
VERTEX
8
CUT
10
79.1492
20
120.2987
0
VERTEX
8
CUT
10
81.1955
20
120.5912
0
VERTEX
8
CUT
10
81.2772
20
120.5981
0
VERTEX
8
CUT
10
81.3312
20
120.6095
0
VERTEX
8
CUT
10
82.5952
20
120.7230
0
VERTEX
8
CUT
10
83.0081
20
120.8503
0
VERTEX
8
CUT
10
83.0886
20
120.8618
0
VERTEX
8
CUT
10
83.2903
20
120.9373
0
VERTEX
8
CUT
10
84.8234
20
121.4100
0
VERTEX
8
CUT
10
86.0552
20
122.1087
0
VERTEX
8
CUT
10
86.1105
20
122.1312
0
VERTEX
8
CUT
10
86.1732
20
122.1756
0
VERTEX
8
CUT
10
87.2973
20
122.8132
0
VERTEX
8
CUT
10
87.6194
20
122.9934
0
VERTEX
8
CUT
10
87.6237
20
122.9983
0
VERTEX
8
CUT
10
87.8102
20
123.1041
0
VERTEX
8
CUT
10
88.6609
20
124.0457
0
VERTEX
8
CUT
10
88.8390
20
124.4258
0
VERTEX
8
CUT
10
88.9239
20
124.5255
0
VERTEX
8
CUT
10
89.5364
20
125.9139
0
VERTEX
8
CUT
10
89.5521
20
125.9474
0
VERTEX
8
CUT
10
89.5537
20
125.9532
0
VERTEX
8
CUT
10
89.5937
20
126.0438
0
VERTEX
8
CUT
10
90.0586
20
127.6929
0
VERTEX
8
CUT
10
90.0668
20
127.7789
0
VERTEX
8
CUT
10
90.0933
20
127.8730
0
VERTEX
8
CUT
10
90.3629
20
130.0160
0
VERTEX
8
CUT
10
90.3608
20
132.4673
0
VERTEX
8
CUT
10
90.0601
20
135.3150
0
VERTEX
8
CUT
10
89.8942
20
136.1213
0
VERTEX
8
CUT
10
89.8487
20
136.5520
0
VERTEX
8
CUT
10
89.4602
20
138.3116
0
VERTEX
8
CUT
10
89.4008
20
138.6977
0
VERTEX
8
CUT
10
89.1634
20
139.6727
0
VERTEX
8
CUT
10
88.5227
20
142.7863
0
VERTEX
8
CUT
10
86.1928
20
151.1456
0
VERTEX
8
CUT
10
85.8047
20
152.5539
0
VERTEX
8
CUT
10
84.8439
20
156.0405
0
VERTEX
8
CUT
10
84.6562
20
156.7218
0
VERTEX
8
CUT
10
83.9165
20
159.4061
0
VERTEX
8
CUT
10
82.7542
20
164.3910
0
VERTEX
8
CUT
10
82.4892
20
165.7104
0
VERTEX
8
CUT
10
82.4486
20
165.9124
0
VERTEX
8
CUT
10
82.4338
20
165.9862
0
VERTEX
8
CUT
10
82.3721
20
166.2931
0
VERTEX
8
CUT
10
81.6229
20
171.4682
0
VERTEX
8
CUT
10
81.4723
20
175.1835
0
VERTEX
8
CUT
10
81.4722
20
175.3490
0
VERTEX
8
CUT
10
81.5040
20
176.6296
0
VERTEX
8
CUT
10
81.8094
20
180.1120
0
VERTEX
8
CUT
10
81.8567
20
180.4985
0
VERTEX
8
CUT
10
82.8187
20
184.8586
0
VERTEX
8
CUT
10
84.3714
20
189.2041
0
VERTEX
8
CUT
10
86.5005
20
193.5175
0
VERTEX
8
CUT
10
89.2327
20
197.7950
0
VERTEX
8
CUT
10
92.5188
20
202.0458
0
VERTEX
8
CUT
10
98.8186
20
208.8627
0
VERTEX
8
CUT
10
100.3021
20
210.8170
0
VERTEX
8
CUT
10
100.9873
20
213.5389
0
VERTEX
8
CUT
10
101.1301
20
213.9376
0
VERTEX
8
CUT
10
101.5461
20
215.7583
0
VERTEX
8
CUT
10
102.0099
20
217.6007
0
VERTEX
8
CUT
10
102.3693
20
221.3213
0
VERTEX
8
CUT
10
102.3889
20
222.7307
0
VERTEX
8
CUT
10
102.4592
20
223.4469
0
VERTEX
8
CUT
10
102.4242
20
225.2683
0
VERTEX
8
CUT
10
102.4294
20
225.6445
0
VERTEX
8
CUT
10
102.4116
20
225.9258
0
VERTEX
8
CUT
10
102.3998
20
226.5391
0
VERTEX
8
CUT
10
102.3372
20
227.0960
0
VERTEX
8
CUT
10
102.2504
20
228.4620
0
VERTEX
8
CUT
10
101.8230
20
230.9916
0
VERTEX
8
CUT
10
101.5421
20
231.9412
0
VERTEX
8
CUT
10
101.5059
20
232.1086
0
VERTEX
8
CUT
10
101.4425
20
232.2779
0
VERTEX
8
CUT
10
101.2102
20
233.0633
0
VERTEX
8
CUT
10
100.8589
20
233.8351
0
VERTEX
8
CUT
10
100.6811
20
234.3097
0
VERTEX
8
CUT
10
100.5033
20
234.6164
0
VERTEX
8
CUT
10
100.4193
20
234.8008
0
VERTEX
8
CUT
10
100.3169
20
234.9380
0
VERTEX
8
CUT
10
99.9288
20
235.6077
0
VERTEX
8
CUT
10
99.0259
20
236.5602
0
VERTEX
8
CUT
10
98.6044
20
236.7873
0
VERTEX
8
CUT
10
98.1570
20
237.1464
0
VERTEX
8
CUT
10
97.5151
20
237.3743
0
VERTEX
8
CUT
10
97.2877
20
237.4968
0
VERTEX
8
CUT
10
93.8205
20
238.7630
0
VERTEX
8
CUT
10
92.7264
20
239.3112
0
VERTEX
8
CUT
10
91.8622
20
239.8759
0
VERTEX
8
CUT
10
90.6805
20
240.8352
0
VERTEX
8
CUT
10
89.7801
20
242.0033
0
VERTEX
8
CUT
10
89.4698
20
242.4687
0
VERTEX
8
CUT
10
89.1967
20
242.9486
0
VERTEX
8
CUT
10
88.7109
20
243.9914
0
VERTEX
8
CUT
10
88.7109
20
243.9915
0
VERTEX
8
CUT
10
88.7108
20
243.9920
0
VERTEX
8
CUT
10
88.7105
20
243.9930
0
VERTEX
8
CUT
10
88.7002
20
244.0302
0
VERTEX
8
CUT
10
88.3077
20
246.4160
0
VERTEX
8
CUT
10
88.5277
20
247.9226
0
VERTEX
8
CUT
10
89.0934
20
249.0297
0
VERTEX
8
CUT
10
90.6980
20
250.2296
0
VERTEX
8
CUT
10
92.1697
20
250.6257
0
VERTEX
8
CUT
10
92.3389
20
250.6498
0
VERTEX
8
CUT
10
97.3543
20
250.9080
0
VERTEX
8
CUT
10
102.0538
20
251.0019
0
VERTEX
8
CUT
10
103.3078
20
253.1736
0
VERTEX
8
CUT
10
104.5305
20
254.7058
0
VERTEX
8
CUT
10
105.8193
20
255.7343
0
VERTEX
8
CUT
10
107.1269
20
256.0797
0
VERTEX
8
CUT
10
116.1213
20
256.7471
0
VERTEX
8
CUT
10
116.2395
20
256.7331
0
VERTEX
8
CUT
10
119.9046
20
256.0597
0
VERTEX
8
CUT
10
120.1669
20
255.9750
0
VERTEX
8
CUT
10
120.3425
20
255.9183
0
VERTEX
8
CUT
10
120.6414
20
255.8217
0
VERTEX
8
CUT
10
120.7653
20
255.7817
0
VERTEX
8
CUT
10
122.3437
20
255.0953
0
VERTEX
8
CUT
10
123.1557
20
254.6300
0
VERTEX
8
CUT
10
124.9521
20
253.1237
0
VERTEX
8
CUT
10
126.7454
20
250.8344
0
VERTEX
8
CUT
10
127.4106
20
249.5474
0
VERTEX
8
CUT
10
127.4544
20
249.4572
0
VERTEX
8
CUT
10
127.4938
20
249.3762
0
VERTEX
8
CUT
10
127.5465
20
249.2676
0
VERTEX
8
CUT
10
127.6894
20
248.9734
0
VERTEX
8
CUT
10
130.3851
20
242.0441
0
VERTEX
8
CUT
10
130.6191
20
241.7068
0
VERTEX
8
CUT
10
131.0258
20
241.0007
0
VERTEX
8
CUT
10
131.5282
20
240.3971
0
VERTEX
8
CUT
10
132.8667
20
238.4687
0
VERTEX
8
CUT
10
133.6999
20
235.9135
0
VERTEX
8
CUT
10
134.1050
20
233.8181
0
VERTEX
8
CUT
10
134.8400
20
229.6431
0
VERTEX
8
CUT
10
135.7161
20
226.0784
0
VERTEX
8
CUT
10
138.3090
20
218.1793
0
VERTEX
8
CUT
10
138.6053
20
217.4186
0
VERTEX
8
CUT
10
138.9588
20
217.2355
0
VERTEX
8
CUT
10
139.3145
20
217.5293
0
VERTEX
8
CUT
10
139.5112
20
219.2943
0
VERTEX
8
CUT
10
138.6135
20
220.6885
0
VERTEX
8
CUT
10
138.2123
20
222.6156
0
VERTEX
8
CUT
10
136.2404
20
227.9753
0
VERTEX
8
CUT
10
136.1808
20
228.8584
0
VERTEX
8
CUT
10
136.3630
20
229.2526
0
VERTEX
8
CUT
10
137.3237
20
229.7948
0
VERTEX
8
CUT
10
142.5774
20
230.6136
0
VERTEX
8
CUT
10
143.8900
20
230.6936
0
VERTEX
8
CUT
10
147.0505
20
230.8175
0
VERTEX
8
CUT
10
147.8097
20
230.8041
0
VERTEX
8
CUT
10
148.1275
20
230.7984
0
VERTEX
8
CUT
10
148.4505
20
230.7927
0
VERTEX
8
CUT
10
148.6442
20
230.7893
0
VERTEX
8
CUT
10
149.9111
20
230.7426
0
VERTEX
8
CUT
10
155.4196
20
230.1645
0
VERTEX
8
CUT
10
166.0796
20
228.2922
0
VERTEX
8
CUT
10
169.8413
20
227.8103
0
VERTEX
8
CUT
10
173.3017
20
227.6286
0
VERTEX
8
CUT
10
176.4842
20
227.7174
0
VERTEX
8
CUT
10
179.4883
20
228.1060
0
VERTEX
8
CUT
10
182.3788
20
228.7756
0
VERTEX
8
CUT
10
185.1691
20
229.7375
0
VERTEX
8
CUT
10
190.0592
20
231.8903
0
VERTEX
8
CUT
10
190.3068
20
231.4143
0
VERTEX
8
CUT
10
189.2828
20
227.6771
0
VERTEX
8
CUT
10
189.4116
20
227.3709
0
VERTEX
8
CUT
10
189.7297
20
227.2752
0
VERTEX
8
CUT
10
190.0062
20
227.4592
0
VERTEX
8
CUT
10
191.3617
20
229.9292
0
VERTEX
8
CUT
10
192.9757
20
232.2475
0
VERTEX
8
CUT
10
194.8319
20
234.4111
0
VERTEX
8
CUT
10
195.5719
20
235.0986
0
VERTEX
8
CUT
10
195.8148
20
235.2201
0
VERTEX
8
CUT
10
197.2665
20
236.5205
0
VERTEX
8
CUT
10
197.3557
20
236.6990
0
VERTEX
8
CUT
10
199.4267
20
238.2967
0
VERTEX
8
CUT
10
199.5044
20
238.2745
0
VERTEX
8
CUT
10
201.0467
20
239.1818
0
VERTEX
8
CUT
10
201.2886
20
239.6052
0
VERTEX
8
CUT
10
201.1677
20
239.9076
0
VERTEX
8
CUT
10
200.2604
20
239.9983
0
VERTEX
8
CUT
10
199.7549
20
239.7271
0
VERTEX
8
CUT
10
187.5968
20
238.4275
0
VERTEX
8
CUT
10
182.7233
20
238.3668
0
VERTEX
8
CUT
10
180.1313
20
238.6841
0
VERTEX
8
CUT
10
179.8657
20
238.4257
0
VERTEX
8
CUT
10
179.9132
20
238.0928
0
VERTEX
8
CUT
10
181.3574
20
236.6984
0
VERTEX
8
CUT
10
181.9230
20
235.8841
0
VERTEX
8
CUT
10
181.8966
20
235.1122
0
VERTEX
8
CUT
10
181.4244
20
234.2149
0
VERTEX
8
CUT
10
180.1016
20
232.8455
0
VERTEX
8
CUT
10
175.8138
20
231.6848
0
VERTEX
8
CUT
10
174.4421
20
231.7751
0
VERTEX
8
CUT
10
173.8137
20
232.0055
0
VERTEX
8
CUT
10
173.1178
20
232.7331
0
VERTEX
8
CUT
10
172.8681
20
233.6867
0
VERTEX
8
CUT
10
172.6220
20
233.9051
0
VERTEX
8
CUT
10
164.1397
20
234.0465
0
VERTEX
8
CUT
10
162.6489
20
234.4367
0
VERTEX
8
CUT
10
160.5440
20
235.7209
0
VERTEX
8
CUT
10
159.1956
20
237.0432
0
VERTEX
8
CUT
10
158.2227
20
238.4444
0
VERTEX
8
CUT
10
157.5718
20
239.9315
0
VERTEX
8
CUT
10
157.3496
20
241.4068
0
VERTEX
8
CUT
10
157.4928
20
242.7256
0
VERTEX
8
CUT
10
157.5086
20
242.7633
0
VERTEX
8
CUT
10
157.5253
20
242.8029
0
VERTEX
8
CUT
10
157.5465
20
242.8532
0
VERTEX
8
CUT
10
157.6472
20
243.0925
0
VERTEX
8
CUT
10
157.9859
20
243.7781
0
VERTEX
8
CUT
10
158.4836
20
244.3466
0
VERTEX
8
CUT
10
159.6555
20
245.2578
0
VERTEX
8
CUT
10
160.4003
20
245.4397
0
VERTEX
8
CUT
10
160.7287
20
245.3014
0
VERTEX
8
CUT
10
161.1756
20
244.5991
0
VERTEX
8
CUT
10
161.8243
20
242.0873
0
VERTEX
8
CUT
10
162.3039
20
241.8791
0
VERTEX
8
CUT
10
162.5684
20
242.2213
0
VERTEX
8
CUT
10
162.4327
20
244.2354
0
VERTEX
8
CUT
10
162.8556
20
245.3423
0
VERTEX
8
CUT
10
163.8268
20
246.2573
0
VERTEX
8
CUT
10
167.4888
20
246.3731
0
VERTEX
8
CUT
10
168.2882
20
246.3102
0
VERTEX
8
CUT
10
168.7873
20
246.0008
0
VERTEX
8
CUT
10
169.4855
20
244.9129
0
VERTEX
8
CUT
10
170.6908
20
244.9756
0
VERTEX
8
CUT
10
171.1663
20
244.7974
0
VERTEX
8
CUT
10
171.7717
20
244.2261
0
VERTEX
8
CUT
10
172.1010
20
244.2192
0
VERTEX
8
CUT
10
172.3315
20
244.6165
0
VERTEX
8
CUT
10
171.9595
20
245.5829
0
VERTEX
8
CUT
10
171.7742
20
246.9597
0
VERTEX
8
CUT
10
171.8335
20
249.0988
0
VERTEX
8
CUT
10
171.9878
20
249.4985
0
VERTEX
8
CUT
10
172.0820
20
249.7426
0
VERTEX
8
CUT
10
172.1779
20
249.9913
0
VERTEX
8
CUT
10
172.2555
20
250.1923
0
VERTEX
8
CUT
10
172.6263
20
250.7665
0
VERTEX
8
CUT
10
173.5017
20
251.6116
0
VERTEX
8
CUT
10
175.2561
20
252.5096
0
VERTEX
8
CUT
10
178.4647
20
253.0868
0
VERTEX
8
CUT
10
179.2225
20
253.1441
0
VERTEX
8
CUT
10
179.6838
20
253.1791
0
VERTEX
8
CUT
10
179.9280
20
253.1976
0
VERTEX
8
CUT
10
180.6617
20
253.2531
0
VERTEX
8
CUT
10
183.4577
20
253.3330
0
VERTEX
8
CUT
10
186.0784
20
253.1506
0
VERTEX
8
CUT
10
186.2791
20
253.1111
0
VERTEX
8
CUT
10
186.4609
20
253.0753
0
VERTEX
8
CUT
10
186.7890
20
253.0107
0
VERTEX
8
CUT
10
187.7407
20
252.8233
0
VERTEX
8
CUT
10
191.5472
20
252.0618
0
VERTEX
8
CUT
10
194.5745
20
251.6688
0
VERTEX
8
CUT
10
206.7176
20
251.4034
0
VERTEX
8
CUT
10
213.1132
20
251.2282
0
VERTEX
8
CUT
10
213.7865
20
251.1820
0
VERTEX
8
CUT
10
215.3603
20
251.0651
0
VERTEX
8
CUT
10
219.0720
20
250.3434
0
VERTEX
8
CUT
10
219.4479
20
250.1523
0
VERTEX
8
CUT
10
219.4630
20
250.1446
0
VERTEX
8
CUT
10
219.4808
20
250.1356
0
VERTEX
8
CUT
10
219.4829
20
250.1345
0
VERTEX
8
CUT
10
220.3137
20
249.6825
0
VERTEX
8
CUT
10
221.1995
20
248.8094
0
VERTEX
8
CUT
10
222.6858
20
246.5903
0
VERTEX
8
CUT
10
225.4586
20
246.8210
0
VERTEX
8
CUT
10
226.0753
20
246.7860
0
VERTEX
8
CUT
10
226.3707
20
246.7692
0
VERTEX
8
CUT
10
227.0167
20
246.7325
0
VERTEX
8
CUT
10
230.0024
20
246.5629
0
VERTEX
8
CUT
10
232.3154
20
246.1710
0
VERTEX
8
CUT
10
232.7037
20
246.4140
0
VERTEX
8
CUT
10
232.5930
20
246.8586
0
VERTEX
8
CUT
10
230.9680
20
247.9235
0
VERTEX
8
CUT
10
226.0702
20
250.6430
0
VERTEX
8
CUT
10
221.6104
20
252.6308
0
VERTEX
8
CUT
10
216.9333
20
254.3397
0
VERTEX
8
CUT
10
212.0149
20
255.7288
0
VERTEX
8
CUT
10
206.8927
20
256.8500
0
VERTEX
8
CUT
10
201.6081
20
257.6307
0
VERTEX
8
CUT
10
196.0933
20
258.1155
0
VERTEX
8
CUT
10
188.9360
20
258.2888
0
VERTEX
8
CUT
10
186.5594
20
258.4165
0
VERTEX
8
CUT
10
185.3983
20
258.5512
0
VERTEX
8
CUT
10
184.5661
20
258.9276
0
VERTEX
8
CUT
10
184.2538
20
259.2710
0
VERTEX
8
CUT
10
184.0231
20
259.8236
0
VERTEX
8
CUT
10
184.3327
20
260.5057
0
VERTEX
8
CUT
10
185.1087
20
261.0848
0
VERTEX
8
CUT
10
187.6247
20
262.2778
0
VERTEX
8
CUT
10
192.2820
20
263.5502
0
VERTEX
8
CUT
10
194.9728
20
263.9660
0
VERTEX
8
CUT
10
196.2284
20
264.1601
0
VERTEX
8
CUT
10
196.5319
20
264.2070
0
VERTEX
8
CUT
10
197.2927
20
264.3246
0
VERTEX
8
CUT
10
202.8998
20
264.4622
0
VERTEX
8
CUT
10
208.8767
20
264.0971
0
VERTEX
8
CUT
10
209.0703
20
264.0841
0
VERTEX
8
CUT
10
209.3843
20
264.0630
0
VERTEX
8
CUT
10
209.9776
20
264.0232
0
VERTEX
8
CUT
10
211.0001
20
263.9545
0
VERTEX
8
CUT
10
211.4885
20
263.8691
0
VERTEX
8
CUT
10
216.0342
20
262.9652
0
VERTEX
8
CUT
10
216.0565
20
262.9608
0
VERTEX
8
CUT
10
216.3334
20
262.9057
0
VERTEX
8
CUT
10
217.4345
20
262.6867
0
VERTEX
8
CUT
10
219.3865
20
262.2200
0
VERTEX
8
CUT
10
221.1512
20
261.6891
0
VERTEX
8
CUT
10
223.2743
20
260.9686
0
VERTEX
8
CUT
10
224.3138
20
260.6158
0
VERTEX
8
CUT
10
225.1787
20
260.3223
0
VERTEX
8
CUT
10
225.9278
20
260.0681
0
VERTEX
8
CUT
10
227.3040
20
259.5520
0
VERTEX
8
CUT
10
227.7007
20
259.3733
0
VERTEX
8
CUT
10
231.7035
20
257.4139
0
VERTEX
8
CUT
10
232.7904
20
256.8818
0
VERTEX
8
CUT
10
233.2242
20
256.6695
0
VERTEX
8
CUT
10
233.4219
20
256.5727
0
VERTEX
8
CUT
10
234.5283
20
255.9722
0
VERTEX
8
CUT
10
234.6738
20
255.8802
0
VERTEX
8
CUT
10
238.9356
20
252.9700
0
VERTEX
8
CUT
10
240.0843
20
252.1856
0
VERTEX
8
CUT
10
240.3180
20
252.0260
0
VERTEX
8
CUT
10
240.4043
20
251.9670
0
VERTEX
8
CUT
10
240.6015
20
251.8202
0
VERTEX
8
CUT
10
245.9299
20
246.8527
0
VERTEX
8
CUT
10
249.4098
20
242.2864
0
VERTEX
8
CUT
10
250.1660
20
241.1509
0
VERTEX
8
CUT
10
250.8836
20
239.8466
0
VERTEX
8
CUT
10
252.5803
20
236.3327
0
VERTEX
8
CUT
10
253.1137
20
235.0660
0
VERTEX
8
CUT
10
254.1669
20
231.8464
0
VERTEX
8
CUT
10
254.2221
20
231.6034
0
VERTEX
8
CUT
10
254.2155
20
231.5914
0
VERTEX
8
CUT
10
254.2597
20
231.4382
0
VERTEX
8
CUT
10
254.7719
20
229.1869
0
VERTEX
8
CUT
10
254.7778
20
229.1497
0
VERTEX
8
CUT
10
254.7978
20
229.0237
0
VERTEX
8
CUT
10
254.8428
20
228.7404
0
VERTEX
8
CUT
10
255.0723
20
227.2962
0
VERTEX
8
CUT
10
255.3282
20
225.1105
0
VERTEX
8
CUT
10
255.4502
20
221.0609
0
VERTEX
8
CUT
10
255.2982
20
217.0255
0
VERTEX
8
CUT
10
254.9297
20
213.7880
0
VERTEX
8
CUT
10
254.9190
20
213.7310
0
VERTEX
8
CUT
10
254.8997
20
213.6291
0
VERTEX
8
CUT
10
254.8814
20
213.5320
0
VERTEX
8
CUT
10
254.8015
20
213.1090
0
VERTEX
8
CUT
10
253.4245
20
207.3979
0
VERTEX
8
CUT
10
253.2428
20
206.8020
0
VERTEX
8
CUT
10
251.1612
20
201.3766
0
VERTEX
8
CUT
10
250.9208
20
200.8126
0
VERTEX
8
CUT
10
248.9663
20
197.1955
0
VERTEX
8
CUT
10
247.5247
20
194.7011
0
VERTEX
8
CUT
10
244.5391
20
190.5441
0
VERTEX
8
CUT
10
244.1615
20
190.0487
0
VERTEX
8
CUT
10
244.1591
20
190.0456
0
VERTEX
8
CUT
10
243.9184
20
189.7299
0
VERTEX
8
CUT
10
243.8704
20
189.6669
0
VERTEX
8
CUT
10
239.4934
20
184.9169
0
VERTEX
8
CUT
10
239.3838
20
184.8172
0
VERTEX
8
CUT
10
239.3746
20
184.8088
0
VERTEX
8
CUT
10
239.3577
20
184.7935
0
VERTEX
8
CUT
10
239.3431
20
184.7802
0
VERTEX
8
CUT
10
235.5547
20
181.5143
0
VERTEX
8
CUT
10
232.8593
20
179.4283
0
VERTEX
8
CUT
10
228.1757
20
176.2109
0
VERTEX
8
CUT
10
221.5363
20
172.5592
0
VERTEX
8
CUT
10
218.6606
20
171.2415
0
VERTEX
8
CUT
10
214.5748
20
169.4705
0
VERTEX
8
CUT
10
210.4149
20
167.8421
0
VERTEX
8
CUT
10
209.6315
20
167.5542
0
VERTEX
8
CUT
10
209.1179
20
167.3689
0
VERTEX
8
CUT
10
182.1776
20
158.5072
0
VERTEX
8
CUT
10
175.4840
20
156.0951
0
VERTEX
8
CUT
10
173.8281
20
155.4225
0
VERTEX
8
CUT
10
173.2778
20
155.2190
0
VERTEX
8
CUT
10
172.4920
20
154.8798
0
VERTEX
8
CUT
10
169.6896
20
153.7415
0
VERTEX
8
CUT
10
164.7145
20
151.3903
0
VERTEX
8
CUT
10
160.4975
20
149.0118
0
VERTEX
8
CUT
10
156.9483
20
146.5774
0
VERTEX
8
CUT
10
153.9735
20
144.0262
0
VERTEX
8
CUT
10
151.5045
20
141.3207
0
VERTEX
8
CUT
10
150.1174
20
139.4545
0
VERTEX
8
CUT
10
147.8959
20
135.6459
0
VERTEX
8
CUT
10
147.6971
20
135.1183
0
VERTEX
8
CUT
10
147.6738
20
135.0767
0
VERTEX
8
CUT
10
147.6219
20
134.9187
0
VERTEX
8
CUT
10
146.3261
20
131.4793
0
VERTEX
8
CUT
10
145.3363
20
126.5838
0
VERTEX
8
CUT
10
145.1689
20
124.9341
0
VERTEX
8
CUT
10
145.0978
20
124.5228
0
VERTEX
8
CUT
10
145.0276
20
123.5417
0
VERTEX
8
CUT
10
144.5176
20
118.5165
0
VERTEX
8
CUT
10
144.6493
20
118.2598
0
VERTEX
8
CUT
10
144.6371
20
118.0901
0
VERTEX
8
CUT
10
145.0306
20
117.5169
0
VERTEX
8
CUT
10
145.1645
20
117.2560
0
VERTEX
8
CUT
10
146.9359
20
114.7413
0
VERTEX
8
CUT
10
147.4552
20
113.9847
0
VERTEX
8
CUT
10
148.7142
20
111.7762
0
VERTEX
8
CUT
10
148.9889
20
111.2623
0
VERTEX
8
CUT
10
149.8124
20
109.1172
0
VERTEX
8
CUT
10
149.8448
20
108.9820
0
VERTEX
8
CUT
10
150.2992
20
106.6951
0
VERTEX
8
CUT
10
150.3586
20
103.2850
0
VERTEX
8
CUT
10
149.8949
20
99.6601
0
VERTEX
8
CUT
10
149.8852
20
99.6277
0
VERTEX
8
CUT
10
149.8639
20
99.5571
0
VERTEX
8
CUT
10
149.7379
20
99.1391
0
VERTEX
8
CUT
10
148.9607
20
96.5615
0
VERTEX
8
CUT
10
147.5518
20
93.2851
0
VERTEX
8
CUT
10
147.5204
20
93.2168
0
VERTEX
8
CUT
10
147.4177
20
92.9931
0
VERTEX
8
CUT
10
147.3564
20
92.8595
0
VERTEX
8
CUT
10
147.3177
20
92.7753
0
VERTEX
8
CUT
10
144.0659
20
87.4651
0
VERTEX
8
CUT
10
140.8084
20
83.1540
0
VERTEX
8
CUT
10
140.8067
20
83.1505
0
VERTEX
8
CUT
10
140.5808
20
82.8560
0
VERTEX
8
CUT
10
139.6204
20
80.7014
0
VERTEX
8
CUT
10
138.4900
20
78.3677
0
VERTEX
8
CUT
10
136.7241
20
75.6688
0
VERTEX
8
CUT
10
135.6333
20
74.3969
0
VERTEX
8
CUT
10
135.2674
20
73.9702
0
VERTEX
8
CUT
10
134.9536
20
73.6044
0
VERTEX
8
CUT
10
134.3941
20
72.9519
0
VERTEX
8
CUT
10
132.1560
20
70.9990
0
VERTEX
8
CUT
10
131.7817
20
70.6803
0
VERTEX
8
CUT
10
128.8777
20
68.7549
0
VERTEX
8
CUT
10
125.6524
20
67.2058
0
VERTEX
8
CUT
10
123.2274
20
66.3550
0
VERTEX
8
CUT
10
122.0698
20
65.9759
0
VERTEX
8
CUT
10
122.0207
20
65.9639
0
VERTEX
8
CUT
10
117.2928
20
65.0479
0
VERTEX
8
CUT
10
116.8285
20
64.9846
0
VERTEX
8
CUT
10
111.3552
20
64.7481
0
VERTEX
8
CUT
10
107.3813
20
64.8690
0
VERTEX
8
CUT
10
104.2935
20
65.1665
0
VERTEX
8
CUT
10
102.6066
20
65.4682
0
VERTEX
8
CUT
10
99.7845
20
66.0385
0
VERTEX
8
CUT
10
99.1462
20
66.1982
0
VERTEX
8
CUT
10
98.9251
20
66.2535
0
VERTEX
8
CUT
10
98.7907
20
66.2871
0
VERTEX
8
CUT
10
98.1652
20
66.4436
0
VERTEX
8
CUT
10
95.6069
20
67.2650
0
VERTEX
8
CUT
10
93.1523
20
68.1922
0
VERTEX
8
CUT
10
92.5941
20
68.4030
0
VERTEX
8
CUT
10
92.4820
20
68.4454
0
VERTEX
8
CUT
10
92.1326
20
68.5773
0
VERTEX
8
CUT
10
89.2453
20
69.8478
0
VERTEX
8
CUT
10
85.5536
20
72.0673
0
VERTEX
8
CUT
10
85.4792
20
72.1178
0
VERTEX
8
CUT
10
83.3274
20
73.9633
0
VERTEX
8
CUT
10
82.7594
20
74.6417
0
VERTEX
8
CUT
10
82.5786
20
74.8993
0
VERTEX
8
CUT
10
82.4379
20
75.0999
0
VERTEX
8
CUT
10
82.2625
20
75.3499
0
VERTEX
8
CUT
10
80.9584
20
77.2086
0
VERTEX
8
CUT
10
79.4725
20
79.5500
0
VERTEX
8
CUT
10
77.9698
20
81.4951
0
VERTEX
8
CUT
10
77.9136
20
81.5484
0
VERTEX
8
CUT
10
77.9120
20
81.5508
0
VERTEX
8
CUT
10
76.4727
20
82.9590
0
VERTEX
8
CUT
10
76.2839
20
83.0968
0
SEQEND
0
POLYLINE
8
CUT
66
1
70
1
10
0.0
20
0.0
30
0.0
0
VERTEX
8
CUT
10
246.8027
20
227.7806
0
VERTEX
8
CUT
10
247.6193
20
227.0245
0
VERTEX
8
CUT
10
247.7705
20
227.5386
0
VERTEX
8
CUT
10
247.1959
20
228.9902
0
VERTEX
8
CUT
10
246.4398
20
229.7160
0
VERTEX
8
CUT
10
246.4096
20
228.8088
0
SEQEND
0
POLYLINE
8
CUT
66
1
70
1
10
0.0
20
0.0
30
0.0
0
VERTEX
8
CUT
10
187.8184
20
222.3182
0
VERTEX
8
CUT
10
188.3244
20
222.5420
0
VERTEX
8
CUT
10
189.2748
20
225.7421
0
VERTEX
8
CUT
10
189.1006
20
226.0656
0
VERTEX
8
CUT
10
188.7004
20
226.0844
0
VERTEX
8
CUT
10
188.1681
20
225.2009
0
VERTEX
8
CUT
10
187.5877
20
222.8994
0
VERTEX
8
CUT
10
187.6025
20
222.5261
0
SEQEND
0
POLYLINE
8
CUT
66
1
70
1
10
0.0
20
0.0
30
0.0
0
VERTEX
8
CUT
10
176.1768
20
237.7480
0
VERTEX
8
CUT
10
177.5912
20
239.0869
0
VERTEX
8
CUT
10
177.4737
20
239.4935
0
VERTEX
8
CUT
10
175.4590
20
240.8436
0
VERTEX
8
CUT
10
175.1343
20
240.8366
0
VERTEX
8
CUT
10
174.3074
20
240.2159
0
VERTEX
8
CUT
10
173.6440
20
239.9306
0
VERTEX
8
CUT
10
173.6916
20
239.5688
0
VERTEX
8
CUT
10
175.7907
20
237.6684
0
SEQEND
0
POLYLINE
8
CUT
66
1
70
1
10
0.0
20
0.0
30
0.0
0
VERTEX
8
CUT
10
132.0070
20
134.4897
0
VERTEX
8
CUT
10
132.3071
20
134.4485
0
VERTEX
8
CUT
10
132.5635
20
134.6692
0
VERTEX
8
CUT
10
132.4818
20
135.1009
0
VERTEX
8
CUT
10
130.4666
20
136.9613
0
VERTEX
8
CUT
10
128.4912
20
138.1985
0
VERTEX
8
CUT
10
125.1455
20
139.8263
0
VERTEX
8
CUT
10
123.2266
20
140.4795
0
VERTEX
8
CUT
10
118.8469
20
140.4797
0
VERTEX
8
CUT
10
118.6347
20
140.1040
0
VERTEX
8
CUT
10
118.9353
20
139.7523
0
VERTEX
8
CUT
10
121.7357
20
139.5931
0
VERTEX
8
CUT
10
123.5332
20
139.2894
0
VERTEX
8
CUT
10
126.0458
20
138.4662
0
VERTEX
8
CUT
10
129.3853
20
136.6031
0
SEQEND
0
POLYLINE
8
CUT
66
1
70
1
10
0.0
20
0.0
30
0.0
0
VERTEX
8
CUT
10
112.7471
20
241.1436
0
VERTEX
8
CUT
10
112.7016
20
241.0267
0
VERTEX
8
CUT
10
112.5552
20
240.8445
0
VERTEX
8
CUT
10
112.9467
20
239.1382
0
VERTEX
8
CUT
10
113.9401
20
236.9468
0
VERTEX
8
CUT
10
115.1148
20
235.2333
0
VERTEX
8
CUT
10
115.7934
20
233.2941
0
VERTEX
8
CUT
10
115.8069
20
233.2031
0
VERTEX
8
CUT
10
115.8105
20
233.1782
0
VERTEX
8
CUT
10
115.8339
20
233.0197
0
VERTEX
8
CUT
10
115.9117
20
232.4928
0
VERTEX
8
CUT
10
116.4520
20
226.7121
0
VERTEX
8
CUT
10
116.4546
20
226.6477
0
VERTEX
8
CUT
10
116.4592
20
226.5300
0
VERTEX
8
CUT
10
116.4741
20
226.1561
0
VERTEX
8
CUT
10
116.5169
20
225.0825
0
VERTEX
8
CUT
10
116.5144
20
223.9561
0
VERTEX
8
CUT
10
116.1807
20
222.8512
0
VERTEX
8
CUT
10
116.2908
20
222.5376
0
VERTEX
8
CUT
10
116.5647
20
222.4213
0
VERTEX
8
CUT
10
117.2071
20
222.8121
0
VERTEX
8
CUT
10
117.4484
20
223.2144
0
VERTEX
8
CUT
10
117.5474
20
224.0195
0
VERTEX
8
CUT
10
117.5129
20
224.9765
0
VERTEX
8
CUT
10
117.5194
20
225.1553
0
VERTEX
8
CUT
10
117.4830
20
225.8057
0
VERTEX
8
CUT
10
117.3395
20
229.7873
0
VERTEX
8
CUT
10
116.9157
20
233.8374
0
VERTEX
8
CUT
10
116.2824
20
236.7810
0
VERTEX
8
CUT
10
115.3815
20
238.9044
0
VERTEX
8
CUT
10
114.5391
20
240.0120
0
VERTEX
8
CUT
10
114.4663
20
240.1241
0
VERTEX
8
CUT
10
114.4347
20
240.1493
0
VERTEX
8
CUT
10
114.1314
20
240.5481
0
VERTEX
8
CUT
10
113.5223
20
240.8786
0
VERTEX
8
CUT
10
113.0576
20
241.2501
0
VERTEX
8
CUT
10
112.9229
20
241.2039
0
VERTEX
8
CUT
10
112.8678
20
241.2338
0
VERTEX
8
CUT
10
112.8138
20
241.1665
0
SEQEND
0
POLYLINE
8
CUT
66
1
70
1
10
0.0
20
0.0
30
0.0
0
VERTEX
8
CUT
10
87.8498
20
89.3039
0
VERTEX
8
CUT
10
87.0853
20
88.1483
0
VERTEX
8
CUT
10
86.5657
20
86.1757
0
VERTEX
8
CUT
10
85.7755
20
84.8822
0
VERTEX
8
CUT
10
86.2896
20
83.5840
0
VERTEX
8
CUT
10
87.5399
20
81.7209
0
VERTEX
8
CUT
10
88.6930
20
80.7639
0
VERTEX
8
CUT
10
89.4042
20
80.5945
0
VERTEX
8
CUT
10
89.6727
20
80.6495
0
VERTEX
8
CUT
10
89.6766
20
80.6490
0
VERTEX
8
CUT
10
89.6856
20
80.6514
0
VERTEX
8
CUT
10
89.7383
20
80.6216
0
VERTEX
8
CUT
10
89.9278
20
80.7018
0
VERTEX
8
CUT
10
90.7929
20
80.8789
0
VERTEX
8
CUT
10
92.1379
20
81.6384
0
VERTEX
8
CUT
10
92.4374
20
81.9375
0
VERTEX
8
CUT
10
93.1955
20
82.6054
0
VERTEX
8
CUT
10
93.5561
20
83.0547
0
VERTEX
8
CUT
10
94.4515
20
83.9488
0
VERTEX
8
CUT
10
95.2332
20
85.2728
0
VERTEX
8
CUT
10
94.4083
20
87.3615
0
VERTEX
8
CUT
10
93.5585
20
88.9000
0
VERTEX
8
CUT
10
92.6440
20
89.8508
0
VERTEX
8
CUT
10
91.0532
20
90.3310
0
VERTEX
8
CUT
10
89.1561
20
90.0386
0
SEQEND
0
POLYLINE
8
CUT
66
1
70
1
10
0.0
20
0.0
30
0.0
0
VERTEX
8
CUT
10
39.1423
20
196.3189
0
VERTEX
8
CUT
10
38.8164
20
196.8678
0
VERTEX
8
CUT
10
38.5284
20
197.7982
0
VERTEX
8
CUT
10
38.4080
20
199.1032
0
VERTEX
8
CUT
10
38.5911
20
201.0492
0
VERTEX
8
CUT
10
38.9813
20
202.0040
0
VERTEX
8
CUT
10
39.7535
20
203.1731
0
VERTEX
8
CUT
10
40.2545
20
203.6338
0
VERTEX
8
CUT
10
41.4985
20
204.5204
0
VERTEX
8
CUT
10
43.7204
20
205.2184
0
VERTEX
8
CUT
10
44.9594
20
205.3083
0
VERTEX
8
CUT
10
48.1786
20
205.1091
0
VERTEX
8
CUT
10
49.1589
20
206.2031
0
VERTEX
8
CUT
10
49.5139
20
206.5233
0
VERTEX
8
CUT
10
49.9805
20
207.1201
0
VERTEX
8
CUT
10
50.6656
20
207.8848
0
VERTEX
8
CUT
10
57.2255
20
217.1048
0
VERTEX
8
CUT
10
61.1111
20
222.9780
0
VERTEX
8
CUT
10
62.0813
20
224.9647
0
VERTEX
8
CUT
10
62.0845
20
225.0130
0
VERTEX
8
CUT
10
62.1703
20
225.1893
0
VERTEX
8
CUT
10
62.1706
20
225.6268
0
VERTEX
8
CUT
10
62.1774
20
225.6647
0
VERTEX
8
CUT
10
62.1707
20
225.6949
0
VERTEX
8
CUT
10
62.1709
20
226.0222
0
VERTEX
8
CUT
10
62.1544
20
226.0667
0
VERTEX
8
CUT
10
62.1738
20
226.3602
0
VERTEX
8
CUT
10
61.1156
20
228.8521
0
VERTEX
8
CUT
10
61.0911
20
228.9178
0
VERTEX
8
CUT
10
61.0650
20
228.9878
0
VERTEX
8
CUT
10
61.0273
20
229.0890
0
VERTEX
8
CUT
10
60.7793
20
229.7539
0
VERTEX
8
CUT
10
60.3969
20
231.5900
0
VERTEX
8
CUT
10
60.3774
20
231.7128
0
VERTEX
8
CUT
10
60.3721
20
231.7465
0
VERTEX
8
CUT
10
60.3689
20
231.7664
0
VERTEX
8
CUT
10
60.3679
20
231.7728
0
VERTEX
8
CUT
10
60.6398
20
233.8739
0
VERTEX
8
CUT
10
61.4202
20
235.5979
0
VERTEX
8
CUT
10
62.5487
20
236.8568
0
VERTEX
8
CUT
10
63.6264
20
237.5059
0
VERTEX
8
CUT
10
64.0444
20
237.7266
0
VERTEX
8
CUT
10
65.2084
20
237.9838
0
VERTEX
8
CUT
10
65.7819
20
238.0471
0
VERTEX
8
CUT
10
67.1880
20
237.9632
0
VERTEX
8
CUT
10
68.7278
20
237.3940
0
VERTEX
8
CUT
10
70.0922
20
236.3397
0
VERTEX
8
CUT
10
71.6887
20
233.7741
0
VERTEX
8
CUT
10
71.9866
20
233.2404
0
VERTEX
8
CUT
10
72.5335
20
232.6366
0
VERTEX
8
CUT
10
73.1389
20
232.4664
0
VERTEX
8
CUT
10
73.2072
20
232.4677
0
VERTEX
8
CUT
10
73.3210
20
232.4325
0
VERTEX
8
CUT
10
77.2479
20
232.1213
0
VERTEX
8
CUT
10
77.9618
20
231.8180
0
VERTEX
8
CUT
10
79.0760
20
231.0759
0
VERTEX
8
CUT
10
79.8897
20
230.1199
0
VERTEX
8
CUT
10
80.1993
20
229.7272
0
VERTEX
8
CUT
10
80.3117
20
229.4866
0
VERTEX
8
CUT
10
80.8967
20
228.1897
0
VERTEX
8
CUT
10
81.1348
20
226.5889
0
VERTEX
8
CUT
10
80.9533
20
225.4787
0
VERTEX
8
CUT
10
79.9689
20
223.1706
0
VERTEX
8
CUT
10
79.7586
20
222.9158
0
VERTEX
8
CUT
10
78.4186
20
221.6332
0
VERTEX
8
CUT
10
78.2469
20
221.5095
0
VERTEX
8
CUT
10
76.4771
20
220.7686
0
VERTEX
8
CUT
10
72.7425
20
220.1656
0
VERTEX
8
CUT
10
71.9927
20
219.8543
0
VERTEX
8
CUT
10
71.6539
20
219.7926
0
VERTEX
8
CUT
10
71.5338
20
219.6637
0
VERTEX
8
CUT
10
71.3808
20
219.6002
0
VERTEX
8
CUT
10
70.9409
20
219.0279
0
VERTEX
8
CUT
10
70.8111
20
218.8888
0
VERTEX
8
CUT
10
70.5630
20
218.6614
0
VERTEX
8
CUT
10
70.4577
20
218.5097
0
VERTEX
8
CUT
10
69.9434
20
217.9582
0
VERTEX
8
CUT
10
68.3625
20
215.6734
0
VERTEX
8
CUT
10
68.1796
20
215.4355
0
VERTEX
8
CUT
10
59.0880
20
202.3568
0
VERTEX
8
CUT
10
57.3101
20
199.4799
0
VERTEX
8
CUT
10
56.8736
20
198.8035
0
VERTEX
8
CUT
10
56.8713
20
198.7699
0
VERTEX
8
CUT
10
56.7865
20
198.6327
0
VERTEX
8
CUT
10
56.7908
20
197.8475
0
VERTEX
8
CUT
10
56.7875
20
197.8254
0
VERTEX
8
CUT
10
56.7911
20
197.8100
0
VERTEX
8
CUT
10
56.7922
20
197.6094
0
VERTEX
8
CUT
10
56.7881
20
197.5497
0
VERTEX
8
CUT
10
56.8712
20
197.1932
0
VERTEX
8
CUT
10
57.4352
20
194.2247
0
VERTEX
8
CUT
10
57.5308
20
193.0625
0
VERTEX
8
CUT
10
57.3558
20
191.8788
0
VERTEX
8
CUT
10
57.2543
20
191.3507
0
VERTEX
8
CUT
10
56.9491
20
190.4935
0
VERTEX
8
CUT
10
56.7481
20
190.0848
0
VERTEX
8
CUT
10
56.7356
20
190.0654
0
VERTEX
8
CUT
10
55.6196
20
188.5865
0
VERTEX
8
CUT
10
55.2764
20
188.2327
0
VERTEX
8
CUT
10
54.9283
20
187.9449
0
VERTEX
8
CUT
10
53.9195
20
187.2970
0
VERTEX
8
CUT
10
52.6631
20
186.8702
0
VERTEX
8
CUT
10
51.4661
20
186.7583
0
VERTEX
8
CUT
10
51.0145
20
186.8072
0
VERTEX
8
CUT
10
49.9541
20
187.0268
0
VERTEX
8
CUT
10
48.4540
20
187.8197
0
VERTEX
8
CUT
10
48.1969
20
188.0616
0
VERTEX
8
CUT
10
46.6409
20
189.9477
0
VERTEX
8
CUT
10
45.7993
20
192.3121
0
VERTEX
8
CUT
10
45.2656
20
192.9495
0
VERTEX
8
CUT
10
44.5779
20
193.3935
0
VERTEX
8
CUT
10
42.4232
20
193.7628
0
VERTEX
8
CUT
10
41.8059
20
194.0034
0
VERTEX
8
CUT
10
41.2340
20
194.3319
0
VERTEX
8
CUT
10
40.4482
20
194.8371
0
VERTEX
8
CUT
10
40.2860
20
194.9943
0
VERTEX
8
CUT
10
40.2230
20
195.0554
0
VERTEX
8
CUT
10
40.1753
20
195.1016
0
VERTEX
8
CUT
10
40.1607
20
195.1158
0
VERTEX
8
CUT
10
39.3129
20
196.0316
0
VERTEX
8
CUT
10
39.2601
20
196.1205
0
VERTEX
8
CUT
10
39.2119
20
196.2016
0
SEQEND
0
ENDSEC
0
EOF
