0
SECTION
2
HEADER
9
$ACADVER
1
AC1009
9
$INSUNITS
70
4
0
ENDSEC
0
SECTION
2
TABLES
0
TABLE
2
LAYER
70
1
0
LAYER
2
CUT
70
0
62
7
6
CONTINUOUS
0
ENDTAB
0
ENDSEC
0
SECTION
2
ENTITIES
0
POLYLINE
8
CUT
66
1
70
1
10
0.0
20
0.0
30
0.0
0
VERTEX
8
CUT
10
-0.1500
20
297.2861
0
VERTEX
8
CUT
10
-0.1350
20
297.5922
0
VERTEX
8
CUT
10
-0.0990
20
297.8346
0
VERTEX
8
CUT
10
-0.0395
20
298.0723
0
VERTEX
8
CUT
10
0.0431
20
298.3030
0
VERTEX
8
CUT
10
0.1479
20
298.5245
0
VERTEX
8
CUT
10
0.2738
20
298.7347
0
VERTEX
8
CUT
10
0.4198
20
298.9315
0
VERTEX
8
CUT
10
0.5844
20
299.1131
0
VERTEX
8
CUT
10
0.7659
20
299.2776
0
VERTEX
8
CUT
10
0.9627
20
299.4236
0
VERTEX
8
CUT
10
1.1729
20
299.5496
0
VERTEX
8
CUT
10
1.3944
20
299.6544
0
VERTEX
8
CUT
10
1.6252
20
299.7369
0
VERTEX
8
CUT
10
1.8629
20
299.7965
0
VERTEX
8
CUT
10
2.1053
20
299.8324
0
VERTEX
8
CUT
10
2.4114
20
299.8475
0
VERTEX
8
CUT
10
297.5886
20
299.8475
0
VERTEX
8
CUT
10
297.8947
20
299.8324
0
VERTEX
8
CUT
10
298.1371
20
299.7965
0
VERTEX
8
CUT
10
298.3748
20
299.7369
0
VERTEX
8
CUT
10
298.6056
20
299.6544
0
VERTEX
8
CUT
10
298.8271
20
299.5496
0
VERTEX
8
CUT
10
299.0373
20
299.4236
0
VERTEX
8
CUT
10
299.2341
20
299.2776
0
VERTEX
8
CUT
10
299.4156
20
299.1131
0
VERTEX
8
CUT
10
299.5802
20
298.9315
0
VERTEX
8
CUT
10
299.7262
20
298.7347
0
VERTEX
8
CUT
10
299.8521
20
298.5245
0
VERTEX
8
CUT
10
299.9569
20
298.3030
0
VERTEX
8
CUT
10
300.0395
20
298.0723
0
VERTEX
8
CUT
10
300.0990
20
297.8346
0
VERTEX
8
CUT
10
300.1350
20
297.5922
0
VERTEX
8
CUT
10
300.1500
20
297.2861
0
VERTEX
8
CUT
10
300.1500
20
2.4114
0
VERTEX
8
CUT
10
300.1350
20
2.1053
0
VERTEX
8
CUT
10
300.0990
20
1.8629
0
VERTEX
8
CUT
10
300.0395
20
1.6252
0
VERTEX
8
CUT
10
299.9569
20
1.3944
0
VERTEX
8
CUT
10
299.8521
20
1.1729
0
VERTEX
8
CUT
10
299.7262
20
0.9627
0
VERTEX
8
CUT
10
299.5802
20
0.7659
0
VERTEX
8
CUT
10
299.4156
20
0.5844
0
VERTEX
8
CUT
10
299.2341
20
0.4198
0
VERTEX
8
CUT
10
299.0373
20
0.2738
0
VERTEX
8
CUT
10
298.8271
20
0.1479
0
VERTEX
8
CUT
10
298.6056
20
0.0431
0
VERTEX
8
CUT
10
298.3748
20
-0.0395
0
VERTEX
8
CUT
10
298.1371
20
-0.0990
0
VERTEX
8
CUT
10
297.8947
20
-0.1350
0
VERTEX
8
CUT
10
297.5886
20
-0.1500
0
VERTEX
8
CUT
10
2.4114
20
-0.1500
0
VERTEX
8
CUT
10
2.1053
20
-0.1350
0
VERTEX
8
CUT
10
1.8629
20
-0.0990
0
VERTEX
8
CUT
10
1.6252
20
-0.0395
0
VERTEX
8
CUT
10
1.3944
20
0.0431
0
VERTEX
8
CUT
10
1.1729
20
0.1479
0
VERTEX
8
CUT
10
0.9627
20
0.2738
0
VERTEX
8
CUT
10
0.7659
20
0.4198
0
VERTEX
8
CUT
10
0.5844
20
0.5844
0
VERTEX
8
CUT
10
0.4198
20
0.7659
0
VERTEX
8
CUT
10
0.2738
20
0.9627
0
VERTEX
8
CUT
10
0.1479
20
1.1729
0
VERTEX
8
CUT
10
0.0431
20
1.3944
0
VERTEX
8
CUT
10
-0.0395
20
1.6252
0
VERTEX
8
CUT
10
-0.0990
20
1.8629
0
VERTEX
8
CUT
10
-0.1350
20
2.1053
0
VERTEX
8
CUT
10
-0.1500
20
2.4114
0
SEQEND
0
ENDSEC
0
EOF
