0
SECTION
2
HEADER
9
$ACADVER
1
AC1009
9
$INSUNITS
70
4
0
ENDSEC
0
SECTION
2
TABLES
0
TABLE
2
LAYER
70
1
0
LAYER
2
CUT
70
0
62
7
6
CONTINUOUS
0
ENDTAB
0
ENDSEC
0
SECTION
2
ENTITIES
0
POLYLINE
8
CUT
66
1
70
1
10
0.0
20
0.0
30
0.0
0
VERTEX
8
CUT
10
-0.1500
20
297.5872
0
VERTEX
8
CUT
10
-0.1350
20
297.8933
0
VERTEX
8
CUT
10
-0.0990
20
298.1357
0
VERTEX
8
CUT
10
-0.0395
20
298.3734
0
VERTEX
8
CUT
10
0.0431
20
298.6041
0
VERTEX
8
CUT
10
0.1479
20
298.8256
0
VERTEX
8
CUT
10
0.2738
20
299.0358
0
VERTEX
8
CUT
10
0.4198
20
299.2326
0
VERTEX
8
CUT
10
0.5844
20
299.4142
0
VERTEX
8
CUT
10
0.7659
20
299.5787
0
VERTEX
8
CUT
10
0.9627
20
299.7247
0
VERTEX
8
CUT
10
1.1729
20
299.8507
0
VERTEX
8
CUT
10
1.3944
20
299.9554
0
VERTEX
8
CUT
10
1.6252
20
300.0380
0
VERTEX
8
CUT
10
1.8629
20
300.0975
0
VERTEX
8
CUT
10
2.1053
20
300.1335
0
VERTEX
8
CUT
10
2.4114
20
300.1485
0
VERTEX
8
CUT
10
297.5886
20
300.1485
0
VERTEX
8
CUT
10
297.8947
20
300.1335
0
VERTEX
8
CUT
10
298.1371
20
300.0975
0
VERTEX
8
CUT
10
298.3748
20
300.0380
0
VERTEX
8
CUT
10
298.6056
20
299.9554
0
VERTEX
8
CUT
10
298.8271
20
299.8507
0
VERTEX
8
CUT
10
299.0373
20
299.7247
0
VERTEX
8
CUT
10
299.2341
20
299.5787
0
VERTEX
8
CUT
10
299.4156
20
299.4142
0
VERTEX
8
CUT
10
299.5802
20
299.2326
0
VERTEX
8
CUT
10
299.7262
20
299.0358
0
VERTEX
8
CUT
10
299.8521
20
298.8256
0
VERTEX
8
CUT
10
299.9569
20
298.6041
0
VERTEX
8
CUT
10
300.0395
20
298.3734
0
VERTEX
8
CUT
10
300.0990
20
298.1357
0
VERTEX
8
CUT
10
300.1350
20
297.8933
0
VERTEX
8
CUT
10
300.1500
20
297.5872
0
VERTEX
8
CUT
10
300.1500
20
2.4114
0
VERTEX
8
CUT
10
300.1350
20
2.1053
0
VERTEX
8
CUT
10
300.0990
20
1.8629
0
VERTEX
8
CUT
10
300.0395
20
1.6252
0
VERTEX
8
CUT
10
299.9569
20
1.3944
0
VERTEX
8
CUT
10
299.8521
20
1.1729
0
VERTEX
8
CUT
10
299.7262
20
0.9627
0
VERTEX
8
CUT
10
299.5802
20
0.7659
0
VERTEX
8
CUT
10
299.4156
20
0.5844
0
VERTEX
8
CUT
10
299.2341
20
0.4198
0
VERTEX
8
CUT
10
299.0373
20
0.2738
0
VERTEX
8
CUT
10
298.8271
20
0.1479
0
VERTEX
8
CUT
10
298.6056
20
0.0431
0
VERTEX
8
CUT
10
298.3748
20
-0.0395
0
VERTEX
8
CUT
10
298.1371
20
-0.0990
0
VERTEX
8
CUT
10
297.8947
20
-0.1350
0
VERTEX
8
CUT
10
297.5886
20
-0.1500
0
VERTEX
8
CUT
10
2.4114
20
-0.1500
0
VERTEX
8
CUT
10
2.1053
20
-0.1350
0
VERTEX
8
CUT
10
1.8629
20
-0.0990
0
VERTEX
8
CUT
10
1.6252
20
-0.0395
0
VERTEX
8
CUT
10
1.3944
20
0.0431
0
VERTEX
8
CUT
10
1.1729
20
0.1479
0
VERTEX
8
CUT
10
0.9627
20
0.2738
0
VERTEX
8
CUT
10
0.7659
20
0.4198
0
VERTEX
8
CUT
10
0.5844
20
0.5844
0
VERTEX
8
CUT
10
0.4198
20
0.7659
0
VERTEX
8
CUT
10
0.2738
20
0.9627
0
VERTEX
8
CUT
10
0.1479
20
1.1729
0
VERTEX
8
CUT
10
0.0431
20
1.3944
0
VERTEX
8
CUT
10
-0.0395
20
1.6252
0
VERTEX
8
CUT
10
-0.0990
20
1.8629
0
VERTEX
8
CUT
10
-0.1350
20
2.1053
0
VERTEX
8
CUT
10
-0.1500
20
2.4114
0
SEQEND
0
POLYLINE
8
CUT
66
1
70
1
10
0.0
20
0.0
30
0.0
0
VERTEX
8
CUT
10
177.3386
20
209.4457
0
VERTEX
8
CUT
10
177.3570
20
209.2017
0
VERTEX
8
CUT
10
177.3991
20
208.9606
0
VERTEX
8
CUT
10
177.4646
20
208.7249
0
VERTEX
8
CUT
10
177.5529
20
208.4966
0
VERTEX
8
CUT
10
177.6630
20
208.2781
0
VERTEX
8
CUT
10
177.7940
20
208.0714
0
VERTEX
8
CUT
10
177.9446
20
207.8785
0
VERTEX
8
CUT
10
178.1133
20
207.7012
0
VERTEX
8
CUT
10
178.2985
20
207.5413
0
VERTEX
8
CUT
10
178.4984
20
207.4003
0
VERTEX
8
CUT
10
178.7112
20
207.2794
0
VERTEX
8
CUT
10
178.9348
20
207.1800
0
VERTEX
8
CUT
10
179.1671
20
207.1029
0
VERTEX
8
CUT
10
179.4057
20
207.0489
0
VERTEX
8
CUT
10
179.6485
20
207.0184
0
VERTEX
8
CUT
10
179.8932
20
207.0119
0
VERTEX
8
CUT
10
180.1372
20
207.0293
0
VERTEX
8
CUT
10
180.3785
20
207.0704
0
VERTEX
8
CUT
10
180.6145
20
207.1350
0
VERTEX
8
CUT
10
180.8431
20
207.2223
0
VERTEX
8
CUT
10
181.5200
20
207.5196
0
VERTEX
8
CUT
10
181.8322
20
207.6839
0
VERTEX
8
CUT
10
183.3465
20
208.6230
0
VERTEX
8
CUT
10
183.6045
20
208.8066
0
VERTEX
8
CUT
10
184.8220
20
209.7949
0
VERTEX
8
CUT
10
185.0109
20
209.9649
0
VERTEX
8
CUT
10
185.1816
20
210.1531
0
VERTEX
8
CUT
10
185.3323
20
210.3578
0
VERTEX
8
CUT
10
185.4614
20
210.5767
0
VERTEX
8
CUT
10
185.5677
20
210.8075
0
VERTEX
8
CUT
10
185.6499
20
211.0480
0
VERTEX
8
CUT
10
185.7073
20
211.2956
0
VERTEX
8
CUT
10
185.7393
20
211.5477
0
VERTEX
8
CUT
10
185.7455
20
211.8017
0
VERTEX
8
CUT
10
185.7259
20
212.0551
0
VERTEX
8
CUT
10
185.6807
20
212.3052
0
VERTEX
8
CUT
10
185.6104
20
212.5494
0
VERTEX
8
CUT
10
185.5433
20
212.7162
0
VERTEX
8
CUT
10
185.5444
20
212.7166
0
VERTEX
8
CUT
10
185.5436
20
212.7185
0
VERTEX
8
CUT
10
185.4288
20
213.0414
0
VERTEX
8
CUT
10
185.4282
20
213.0433
0
VERTEX
8
CUT
10
185.4254
20
213.0425
0
VERTEX
8
CUT
10
185.3871
20
213.1669
0
VERTEX
8
CUT
10
185.2931
20
213.3915
0
VERTEX
8
CUT
10
185.1777
20
213.6059
0
VERTEX
8
CUT
10
185.0420
20
213.8080
0
VERTEX
8
CUT
10
184.8873
20
213.9959
0
VERTEX
8
CUT
10
184.7151
20
214.1680
0
VERTEX
8
CUT
10
184.5269
20
214.3224
0
VERTEX
8
CUT
10
184.3246
20
214.4579
0
VERTEX
8
CUT
10
184.1101
20
214.5730
0
VERTEX
8
CUT
10
183.8855
20
214.6667
0
VERTEX
8
CUT
10
183.6527
20
214.7381
0
VERTEX
8
CUT
10
183.4142
20
214.7865
0
VERTEX
8
CUT
10
183.1720
20
214.8115
0
VERTEX
8
CUT
10
182.9286
20
214.8129
0
VERTEX
8
CUT
10
182.6862
20
214.7905
0
VERTEX
8
CUT
10
182.4471
20
214.7447
0
VERTEX
8
CUT
10
182.3342
20
214.7173
0
VERTEX
8
CUT
10
182.2984
20
214.7097
0
VERTEX
8
CUT
10
181.9258
20
214.6511
0
VERTEX
8
CUT
10
181.5489
20
214.6336
0
VERTEX
8
CUT
10
181.5123
20
214.6339
0
VERTEX
8
CUT
10
181.3406
20
214.6400
0
VERTEX
8
CUT
10
181.1372
20
214.6584
0
VERTEX
8
CUT
10
181.1014
20
214.6627
0
VERTEX
8
CUT
10
180.8946
20
214.7001
0
VERTEX
8
CUT
10
180.6590
20
214.7312
0
VERTEX
8
CUT
10
180.4215
20
214.7397
0
VERTEX
8
CUT
10
180.1843
20
214.7257
0
VERTEX
8
CUT
10
179.9495
20
214.6892
0
VERTEX
8
CUT
10
179.7192
20
214.6306
0
VERTEX
8
CUT
10
179.4955
20
214.5504
0
VERTEX
8
CUT
10
179.2804
20
214.4493
0
VERTEX
8
CUT
10
179.0760
20
214.3282
0
VERTEX
8
CUT
10
178.8839
20
214.1883
0
VERTEX
8
CUT
10
178.7060
20
214.0308
0
VERTEX
8
CUT
10
178.5438
20
213.8570
0
VERTEX
8
CUT
10
178.0667
20
213.2946
0
VERTEX
8
CUT
10
177.9183
20
213.1012
0
VERTEX
8
CUT
10
177.7893
20
212.8943
0
VERTEX
8
CUT
10
177.6812
20
212.6757
0
VERTEX
8
CUT
10
177.5949
20
212.4477
0
VERTEX
8
CUT
10
177.5311
20
212.2124
0
VERTEX
8
CUT
10
177.4906
20
211.9720
0
VERTEX
8
CUT
10
177.3331
20
210.6447
0
VERTEX
8
CUT
10
177.3166
20
210.2845
0
SEQEND
0
POLYLINE
8
CUT
66
1
70
1
10
0.0
20
0.0
30
0.0
0
VERTEX
8
CUT
10
155.2344
20
223.0135
0
VERTEX
8
CUT
10
155.0010
20
223.0870
0
VERTEX
8
CUT
10
154.7614
20
223.1373
0
VERTEX
8
CUT
10
154.5181
20
223.1640
0
VERTEX
8
CUT
10
154.2733
20
223.1667
0
VERTEX
8
CUT
10
154.0295
20
223.1455
0
VERTEX
8
CUT
10
153.7888
20
223.1005
0
VERTEX
8
CUT
10
153.5538
20
223.0322
0
VERTEX
8
CUT
10
153.3265
20
222.9413
0
VERTEX
8
CUT
10
153.1092
20
222.8285
0
VERTEX
8
CUT
10
152.9040
20
222.6951
0
VERTEX
8
CUT
10
152.7129
20
222.5422
0
VERTEX
8
CUT
10
152.5376
20
222.3714
0
VERTEX
8
CUT
10
152.3798
20
222.1842
0
VERTEX
8
CUT
10
152.2411
20
221.9825
0
VERTEX
8
CUT
10
152.1228
20
221.7682
0
VERTEX
8
CUT
10
152.0260
20
221.5434
0
VERTEX
8
CUT
10
151.5821
20
220.3552
0
VERTEX
8
CUT
10
151.5095
20
220.1286
0
VERTEX
8
CUT
10
151.4588
20
219.8962
0
VERTEX
8
CUT
10
151.4304
20
219.6600
0
VERTEX
8
CUT
10
151.4246
20
219.4222
0
VERTEX
8
CUT
10
151.4415
20
219.1849
0
VERTEX
8
CUT
10
151.4808
20
218.9503
0
VERTEX
8
CUT
10
151.5422
20
218.7205
0
VERTEX
8
CUT
10
153.0195
20
214.0892
0
VERTEX
8
CUT
10
153.1051
20
213.8603
0
VERTEX
8
CUT
10
153.2126
20
213.6409
0
VERTEX
8
CUT
10
153.3410
20
213.4330
0
VERTEX
8
CUT
10
153.4891
20
213.2386
0
VERTEX
8
CUT
10
153.6554
20
213.0596
0
VERTEX
8
CUT
10
153.8385
20
212.8977
0
VERTEX
8
CUT
10
154.0364
20
212.7545
0
VERTEX
8
CUT
10
154.2474
20
212.6312
0
VERTEX
8
CUT
10
154.4695
20
212.5292
0
VERTEX
8
CUT
10
154.7004
20
212.4493
0
VERTEX
8
CUT
10
154.9380
20
212.3923
0
VERTEX
8
CUT
10
155.1801
20
212.3588
0
VERTEX
8
CUT
10
155.4243
20
212.3491
0
VERTEX
8
CUT
10
155.6682
20
212.3633
0
VERTEX
8
CUT
10
155.9096
20
212.4012
0
VERTEX
8
CUT
10
156.1462
20
212.4626
0
VERTEX
8
CUT
10
156.3756
20
212.5467
0
VERTEX
8
CUT
10
156.5957
20
212.6528
0
VERTEX
8
CUT
10
156.8044
20
212.7799
0
VERTEX
8
CUT
10
156.9997
20
212.9268
0
VERTEX
8
CUT
10
157.1798
20
213.0920
0
VERTEX
8
CUT
10
157.3428
20
213.2740
0
VERTEX
8
CUT
10
157.4873
20
213.4711
0
VERTEX
8
CUT
10
157.6118
20
213.6813
0
VERTEX
8
CUT
10
158.1937
20
214.7828
0
VERTEX
8
CUT
10
158.2849
20
214.9749
0
VERTEX
8
CUT
10
158.3595
20
215.1740
0
VERTEX
8
CUT
10
158.4169
20
215.3788
0
VERTEX
8
CUT
10
158.5155
20
215.7987
0
VERTEX
8
CUT
10
158.5615
20
216.0529
0
VERTEX
8
CUT
10
158.5811
20
216.3104
0
VERTEX
8
CUT
10
158.5739
20
216.5686
0
VERTEX
8
CUT
10
158.5402
20
216.8247
0
VERTEX
8
CUT
10
158.4802
20
217.0759
0
VERTEX
8
CUT
10
158.3946
20
217.3196
0
VERTEX
8
CUT
10
158.2182
20
217.7495
0
VERTEX
8
CUT
10
158.1385
20
217.9619
0
VERTEX
8
CUT
10
158.1254
20
218.0001
0
VERTEX
8
CUT
10
158.0052
20
218.4372
0
VERTEX
8
CUT
10
157.9969
20
218.4768
0
VERTEX
8
CUT
10
157.9568
20
218.7000
0
VERTEX
8
CUT
10
157.6714
20
220.6219
0
VERTEX
8
CUT
10
157.6242
20
220.8598
0
VERTEX
8
CUT
10
157.5541
20
221.0921
0
VERTEX
8
CUT
10
157.4881
20
221.2779
0
VERTEX
8
CUT
10
157.3916
20
221.5112
0
VERTEX
8
CUT
10
157.2721
20
221.7337
0
VERTEX
8
CUT
10
157.1307
20
221.9429
0
VERTEX
8
CUT
10
156.9690
20
222.1368
0
VERTEX
8
CUT
10
156.7885
20
222.3134
0
VERTEX
8
CUT
10
156.5911
20
222.4709
0
VERTEX
8
CUT
10
156.3788
20
222.6077
0
VERTEX
8
CUT
10
156.1539
20
222.7224
0
VERTEX
8
CUT
10
155.9185
20
222.8138
0
VERTEX
8
CUT
10
155.6751
20
222.8810
0
VERTEX
8
CUT
10
155.6717
20
222.8817
0
VERTEX
8
CUT
10
155.3719
20
222.9627
0
SEQEND
0
POLYLINE
8
CUT
66
1
70
1
10
0.0
20
0.0
30
0.0
0
VERTEX
8
CUT
10
155.1182
20
193.2406
0
VERTEX
8
CUT
10
154.8779
20
193.2552
0
VERTEX
8
CUT
10
154.6373
20
193.2467
0
VERTEX
8
CUT
10
154.3987
20
193.2151
0
VERTEX
8
CUT
10
154.1642
20
193.1607
0
VERTEX
8
CUT
10
153.9361
20
193.0839
0
VERTEX
8
CUT
10
153.7164
20
192.9856
0
VERTEX
8
CUT
10
153.5071
20
192.8667
0
VERTEX
8
CUT
10
153.3103
20
192.7281
0
VERTEX
8
CUT
10
153.1277
20
192.5713
0
VERTEX
8
CUT
10
152.9610
20
192.3976
0
VERTEX
8
CUT
10
152.8118
20
192.2087
0
VERTEX
8
CUT
10
152.6815
20
192.0063
0
VERTEX
8
CUT
10
152.5712
20
191.7923
0
VERTEX
8
CUT
10
152.4820
20
191.5688
0
VERTEX
8
CUT
10
152.4148
20
191.3376
0
VERTEX
8
CUT
10
152.3701
20
191.1011
0
VERTEX
8
CUT
10
152.3483
20
190.8614
0
VERTEX
8
CUT
10
152.3497
20
190.6207
0
VERTEX
8
CUT
10
152.4105
20
189.4944
0
VERTEX
8
CUT
10
152.4364
20
189.2459
0
VERTEX
8
CUT
10
152.4870
20
189.0013
0
VERTEX
8
CUT
10
152.5617
20
188.7629
0
VERTEX
8
CUT
10
152.6598
20
188.5332
0
VERTEX
8
CUT
10
152.7804
20
188.3145
0
VERTEX
8
CUT
10
152.9222
20
188.1088
0
VERTEX
8
CUT
10
153.0838
20
187.9184
0
VERTEX
8
CUT
10
153.2637
20
187.7450
0
VERTEX
8
CUT
10
153.4599
20
187.5904
0
VERTEX
8
CUT
10
153.6706
20
187.4562
0
VERTEX
8
CUT
10
153.8936
20
187.3437
0
VERTEX
8
CUT
10
154.1267
20
187.2540
0
VERTEX
8
CUT
10
154.3676
20
187.1880
0
VERTEX
8
CUT
10
154.6139
20
187.1463
0
VERTEX
8
CUT
10
154.8632
20
187.1295
0
VERTEX
8
CUT
10
155.1128
20
187.1376
0
VERTEX
8
CUT
10
155.3604
20
187.1706
0
VERTEX
8
CUT
10
155.6035
20
187.2281
0
VERTEX
8
CUT
10
155.8396
20
187.3097
0
VERTEX
8
CUT
10
156.0664
20
187.4143
0
VERTEX
8
CUT
10
156.2817
20
187.5411
0
VERTEX
8
CUT
10
156.4832
20
187.6887
0
VERTEX
8
CUT
10
156.6689
20
187.8557
0
VERTEX
8
CUT
10
156.8371
20
188.0404
0
VERTEX
8
CUT
10
156.9860
20
188.2410
0
VERTEX
8
CUT
10
157.1142
20
188.4554
0
VERTEX
8
CUT
10
157.6870
20
189.5327
0
VERTEX
8
CUT
10
157.7934
20
189.7594
0
VERTEX
8
CUT
10
157.8765
20
189.9956
0
VERTEX
8
CUT
10
157.9356
20
190.2389
0
VERTEX
8
CUT
10
157.9700
20
190.4869
0
VERTEX
8
CUT
10
157.9795
20
190.7371
0
VERTEX
8
CUT
10
157.9639
20
190.9870
0
VERTEX
8
CUT
10
157.9234
20
191.2340
0
VERTEX
8
CUT
10
157.8584
20
191.4758
0
VERTEX
8
CUT
10
157.7695
20
191.7099
0
VERTEX
8
CUT
10
157.6576
20
191.9339
0
VERTEX
8
CUT
10
157.5239
20
192.1456
0
VERTEX
8
CUT
10
157.3697
20
192.3429
0
VERTEX
8
CUT
10
157.1966
20
192.5237
0
VERTEX
8
CUT
10
157.0062
20
192.6863
0
VERTEX
8
CUT
10
156.8005
20
192.8291
0
VERTEX
8
CUT
10
156.5815
20
192.9505
0
VERTEX
8
CUT
10
156.3515
20
193.0495
0
VERTEX
8
CUT
10
156.1128
20
193.1250
0
VERTEX
8
CUT
10
155.8677
20
193.1762
0
VERTEX
8
CUT
10
155.6187
20
193.2026
0
VERTEX
8
CUT
10
155.4065
20
193.2144
0
VERTEX
8
CUT
10
155.2068
20
193.2309
0
SEQEND
0
POLYLINE
8
CUT
66
1
70
1
10
0.0
20
0.0
30
0.0
0
VERTEX
8
CUT
10
138.8467
20
85.2959
0
VERTEX
8
CUT
10
138.8189
20
85.0548
0
VERTEX
8
CUT
10
138.8145
20
84.8121
0
VERTEX
8
CUT
10
138.8337
20
84.5702
0
VERTEX
8
CUT
10
138.8762
20
84.3312
0
VERTEX
8
CUT
10
138.9418
20
84.0975
0
VERTEX
8
CUT
10
139.0296
20
83.8713
0
VERTEX
8
CUT
10
139.1391
20
83.6546
0
VERTEX
8
CUT
10
139.2690
20
83.4496
0
VERTEX
8
CUT
10
139.4181
20
83.2581
0
VERTEX
8
CUT
10
139.5852
20
83.0820
0
VERTEX
8
CUT
10
139.7685
20
82.9229
0
VERTEX
8
CUT
10
139.9664
20
82.7824
0
VERTEX
8
CUT
10
140.1770
20
82.6617
0
VERTEX
8
CUT
10
140.3983
20
82.5620
0
VERTEX
8
CUT
10
140.6282
20
82.4842
0
VERTEX
8
CUT
10
140.6972
20
82.4646
0
VERTEX
8
CUT
10
140.9822
20
82.3524
0
VERTEX
8
CUT
10
141.2549
20
82.2130
0
VERTEX
8
CUT
10
141.5128
20
82.0478
0
VERTEX
8
CUT
10
141.7534
20
81.8582
0
VERTEX
8
CUT
10
141.9744
20
81.6462
0
VERTEX
8
CUT
10
142.1737
20
81.4136
0
VERTEX
8
CUT
10
142.3663
20
81.1387
0
VERTEX
8
CUT
10
142.3942
20
81.0946
0
VERTEX
8
CUT
10
142.4480
20
81.0067
0
VERTEX
8
CUT
10
142.5264
20
80.8866
0
VERTEX
8
CUT
10
143.4267
20
79.5907
0
VERTEX
8
CUT
10
143.5477
20
79.4306
0
VERTEX
8
CUT
10
143.6812
20
79.2807
0
VERTEX
8
CUT
10
144.2527
20
78.6887
0
VERTEX
8
CUT
10
144.4268
20
78.5248
0
VERTEX
8
CUT
10
144.6158
20
78.3783
0
VERTEX
8
CUT
10
144.9792
20
78.1234
0
VERTEX
8
CUT
10
145.2148
20
77.9770
0
VERTEX
8
CUT
10
145.4652
20
77.8575
0
VERTEX
8
CUT
10
145.7273
20
77.7666
0
VERTEX
8
CUT
10
146.6282
20
77.5089
0
VERTEX
8
CUT
10
146.8914
20
77.4489
0
VERTEX
8
CUT
10
147.1595
20
77.4175
0
VERTEX
8
CUT
10
147.4294
20
77.4152
0
VERTEX
8
CUT
10
147.6979
20
77.4420
0
VERTEX
8
CUT
10
148.5909
20
77.5802
0
VERTEX
8
CUT
10
148.8333
20
77.6301
0
VERTEX
8
CUT
10
149.0697
20
77.7038
0
VERTEX
8
CUT
10
149.2976
20
77.8005
0
VERTEX
8
CUT
10
149.5148
20
77.9192
0
VERTEX
8
CUT
10
150.4983
20
78.5219
0
VERTEX
8
CUT
10
150.7234
20
78.6774
0
VERTEX
8
CUT
10
150.9303
20
78.8567
0
VERTEX
8
CUT
10
151.1163
20
79.0575
0
VERTEX
8
CUT
10
151.8935
20
79.9946
0
VERTEX
8
CUT
10
152.0627
20
80.2241
0
VERTEX
8
CUT
10
152.2047
20
80.4714
0
VERTEX
8
CUT
10
152.3176
20
80.7332
0
VERTEX
8
CUT
10
152.7258
20
81.8513
0
VERTEX
8
CUT
10
152.8127
20
82.1433
0
VERTEX
8
CUT
10
152.8634
20
82.4438
0
VERTEX
8
CUT
10
153.0406
20
84.1064
0
VERTEX
8
CUT
10
153.0543
20
84.3274
0
VERTEX
8
CUT
10
153.0483
20
84.5487
0
VERTEX
8
CUT
10
152.9118
20
86.4672
0
VERTEX
8
CUT
10
152.8863
20
86.6872
0
VERTEX
8
CUT
10
152.8414
20
86.9041
0
VERTEX
8
CUT
10
150.9645
20
94.3085
0
VERTEX
8
CUT
10
150.9272
20
94.4706
0
VERTEX
8
CUT
10
150.9043
20
94.5813
0
VERTEX
8
CUT
10
150.8742
20
94.7449
0
VERTEX
8
CUT
10
150.5999
20
96.4495
0
VERTEX
8
CUT
10
150.5774
20
96.6123
0
VERTEX
8
CUT
10
150.5740
20
96.6415
0
VERTEX
8
CUT
10
150.5523
20
96.9430
0
VERTEX
8
CUT
10
150.5571
20
97.2452
0
VERTEX
8
CUT
10
150.5588
20
97.2745
0
VERTEX
8
CUT
10
150.5722
20
97.4384
0
VERTEX
8
CUT
10
150.6208
20
97.9058
0
VERTEX
8
CUT
10
150.6503
20
98.1260
0
VERTEX
8
CUT
10
150.6567
20
98.1651
0
VERTEX
8
CUT
10
150.7546
20
98.5983
0
VERTEX
8
CUT
10
150.7655
20
98.6363
0
VERTEX
8
CUT
10
150.7795
20
98.6799
0
VERTEX
8
CUT
10
150.8427
20
98.9151
0
VERTEX
8
CUT
10
150.8826
20
99.1553
0
VERTEX
8
CUT
10
150.8990
20
99.3983
0
VERTEX
8
CUT
10
150.8917
20
99.6417
0
VERTEX
8
CUT
10
150.8607
20
99.8833
0
VERTEX
8
CUT
10
150.8064
20
100.1207
0
VERTEX
8
CUT
10
150.7292
20
100.3517
0
VERTEX
8
CUT
10
150.5175
20
100.8956
0
VERTEX
8
CUT
10
150.4191
20
101.1163
0
VERTEX
8
CUT
10
150.2998
20
101.3264
0
VERTEX
8
CUT
10
150.1608
20
101.5241
0
VERTEX
8
CUT
10
150.0034
20
101.7074
0
VERTEX
8
CUT
10
149.8290
20
101.8746
0
VERTEX
8
CUT
10
149.6393
20
102.0242
0
VERTEX
8
CUT
10
149.4360
20
102.1548
0
VERTEX
8
CUT
10
149.2211
20
102.2652
0
VERTEX
8
CUT
10
148.9965
20
102.3544
0
VERTEX
8
CUT
10
148.7644
20
102.4214
0
VERTEX
8
CUT
10
148.5269
20
102.4657
0
VERTEX
8
CUT
10
148.2862
20
102.4869
0
VERTEX
8
CUT
10
148.0446
20
102.4847
0
VERTEX
8
CUT
10
147.8043
20
102.4592
0
VERTEX
8
CUT
10
147.5676
20
102.4107
0
VERTEX
8
CUT
10
147.3367
20
102.3395
0
VERTEX
8
CUT
10
147.1138
20
102.2464
0
VERTEX
8
CUT
10
146.9009
20
102.1322
0
VERTEX
8
CUT
10
146.7000
20
101.9979
0
VERTEX
8
CUT
10
146.5130
20
101.8449
0
VERTEX
8
CUT
10
146.3416
20
101.6746
0
VERTEX
8
CUT
10
146.1875
20
101.4885
0
VERTEX
8
CUT
10
146.0521
20
101.2884
0
VERTEX
8
CUT
10
142.9687
20
96.2214
0
VERTEX
8
CUT
10
142.8687
20
96.0408
0
VERTEX
8
CUT
10
141.4207
20
93.1480
0
VERTEX
8
CUT
10
141.3183
20
92.9141
0
VERTEX
8
CUT
10
141.2402
20
92.6710
0
VERTEX
8
CUT
10
140.8430
20
91.1765
0
VERTEX
8
CUT
10
140.7971
20
91.0178
0
VERTEX
8
CUT
10
140.7883
20
90.9896
0
VERTEX
8
CUT
10
140.6848
20
90.7042
0
VERTEX
8
CUT
10
140.5565
20
90.4288
0
VERTEX
8
CUT
10
140.4696
20
90.2176
0
VERTEX
8
CUT
10
140.4024
20
89.9994
0
VERTEX
8
CUT
10
140.3553
20
89.7759
0
VERTEX
8
CUT
10
140.3289
20
89.5490
0
VERTEX
8
CUT
10
140.3027
20
89.1778
0
VERTEX
8
CUT
10
140.2507
20
88.8729
0
VERTEX
8
CUT
10
140.1691
20
88.5745
0
VERTEX
8
CUT
10
140.0585
20
88.2856
0
VERTEX
8
CUT
10
139.9200
20
88.0090
0
VERTEX
8
CUT
10
139.7551
20
87.7473
0
VERTEX
8
CUT
10
139.5120
20
87.4347
0
VERTEX
8
CUT
10
139.3704
20
87.2327
0
VERTEX
8
CUT
10
139.2493
20
87.0176
0
VERTEX
8
CUT
10
139.1501
20
86.7917
0
VERTEX
8
CUT
10
139.0736
20
86.5572
0
VERTEX
8
CUT
10
139.0601
20
86.5075
0
VERTEX
8
CUT
10
139.0056
20
86.2580
0
SEQEND
0
POLYLINE
8
CUT
66
1
70
1
10
0.0
20
0.0
30
0.0
0
VERTEX
8
CUT
10
143.8519
20
237.0082
0
VERTEX
8
CUT
10
143.7149
20
237.0257
0
VERTEX
8
CUT
10
143.4673
20
237.0325
0
VERTEX
8
CUT
10
143.2202
20
237.0148
0
VERTEX
8
CUT
10
142.9761
20
236.9727
0
VERTEX
8
CUT
10
142.7373
20
236.9067
0
VERTEX
8
CUT
10
142.5062
20
236.8174
0
VERTEX
8
CUT
10
142.2852
20
236.7056
0
VERTEX
8
CUT
10
142.0762
20
236.5725
0
VERTEX
8
CUT
10
141.8815
20
236.4194
0
VERTEX
8
CUT
10
141.7028
20
236.2478
0
VERTEX
8
CUT
10
141.5421
20
236.0593
0
VERTEX
8
CUT
10
141.4008
20
235.8558
0
VERTEX
8
CUT
10
141.2803
20
235.6394
0
VERTEX
8
CUT
10
141.1818
20
235.4121
0
VERTEX
8
CUT
10
141.1063
20
235.1761
0
VERTEX
8
CUT
10
141.0545
20
234.9339
0
VERTEX
8
CUT
10
141.0270
20
234.6877
0
VERTEX
8
CUT
10
140.9501
20
233.4475
0
VERTEX
8
CUT
10
140.9472
20
233.1954
0
VERTEX
8
CUT
10
140.9698
20
232.9443
0
VERTEX
8
CUT
10
141.0175
20
232.6967
0
VERTEX
8
CUT
10
141.0899
20
232.4552
0
VERTEX
8
CUT
10
141.1862
20
232.2222
0
VERTEX
8
CUT
10
141.3055
20
232.0001
0
VERTEX
8
CUT
10
141.4466
20
231.7912
0
VERTEX
8
CUT
10
141.6081
20
231.5975
0
VERTEX
8
CUT
10
141.9113
20
231.2688
0
VERTEX
8
CUT
10
142.0886
20
231.0949
0
VERTEX
8
CUT
10
142.2822
20
230.9395
0
VERTEX
8
CUT
10
142.4903
20
230.8040
0
VERTEX
8
CUT
10
142.7109
20
230.6898
0
VERTEX
8
CUT
10
142.9416
20
230.5981
0
VERTEX
8
CUT
10
143.1804
20
230.5297
0
VERTEX
8
CUT
10
143.4247
20
230.4853
0
VERTEX
8
CUT
10
143.6722
20
230.4654
0
VERTEX
8
CUT
10
143.9205
20
230.4702
0
VERTEX
8
CUT
10
144.1671
20
230.4995
0
VERTEX
8
CUT
10
144.4096
20
230.5532
0
VERTEX
8
CUT
10
144.6455
20
230.6307
0
VERTEX
8
CUT
10
144.8726
20
230.7311
0
VERTEX
8
CUT
10
145.0886
20
230.8537
0
VERTEX
8
CUT
10
145.2914
20
230.9970
0
VERTEX
8
CUT
10
145.4789
20
231.1598
0
VERTEX
8
CUT
10
145.6494
20
231.3403
0
VERTEX
8
CUT
10
145.8011
20
231.5369
0
VERTEX
8
CUT
10
145.9326
20
231.7476
0
VERTEX
8
CUT
10
146.0425
20
231.9703
0
VERTEX
8
CUT
10
146.2812
20
232.5211
0
VERTEX
8
CUT
10
146.3703
20
232.7591
0
VERTEX
8
CUT
10
146.4347
20
233.0049
0
VERTEX
8
CUT
10
146.4738
20
233.2560
0
VERTEX
8
CUT
10
146.4873
20
233.5097
0
VERTEX
8
CUT
10
146.4749
20
233.7635
0
VERTEX
8
CUT
10
146.4369
20
234.0147
0
VERTEX
8
CUT
10
146.3423
20
234.4786
0
VERTEX
8
CUT
10
146.3140
20
234.6336
0
VERTEX
8
CUT
10
146.3095
20
234.6615
0
VERTEX
8
CUT
10
146.2934
20
234.7989
0
VERTEX
8
CUT
10
146.2525
20
235.0423
0
VERTEX
8
CUT
10
146.1877
20
235.2804
0
VERTEX
8
CUT
10
146.0999
20
235.5111
0
VERTEX
8
CUT
10
145.9897
20
235.7319
0
VERTEX
8
CUT
10
145.8583
20
235.9408
0
VERTEX
8
CUT
10
145.7069
20
236.1357
0
VERTEX
8
CUT
10
145.5371
20
236.3147
0
VERTEX
8
CUT
10
145.3504
20
236.4761
0
VERTEX
8
CUT
10
145.1487
20
236.6184
0
VERTEX
8
CUT
10
144.9340
20
236.7400
0
VERTEX
8
CUT
10
144.7083
20
236.8399
0
VERTEX
8
CUT
10
144.4739
20
236.9171
0
VERTEX
8
CUT
10
144.2330
20
236.9707
0
VERTEX
8
CUT
10
143.9880
20
237.0004
0
VERTEX
8
CUT
10
143.8544
20
237.0099
0
VERTEX
8
CUT
10
143.8522
20
237.0102
0
SEQEND
0
POLYLINE
8
CUT
66
1
70
1
10
0.0
20
0.0
30
0.0
0
VERTEX
8
CUT
10
130.8350
20
206.2351
0
VERTEX
8
CUT
10
130.7157
20
206.0301
0
VERTEX
8
CUT
10
130.6163
20
205.8147
0
VERTEX
8
CUT
10
130.5379
20
205.5909
0
VERTEX
8
CUT
10
130.4809
20
205.3607
0
VERTEX
8
CUT
10
130.4461
20
205.1261
0
VERTEX
8
CUT
10
130.4337
20
204.8892
0
VERTEX
8
CUT
10
130.4437
20
204.6522
0
VERTEX
8
CUT
10
130.4762
20
204.4173
0
VERTEX
8
CUT
10
130.5308
20
204.1865
0
VERTEX
8
CUT
10
130.6070
20
203.9619
0
VERTEX
8
CUT
10
130.7041
20
203.7455
0
VERTEX
8
CUT
10
130.8213
20
203.5393
0
VERTEX
8
CUT
10
130.9576
20
203.3452
0
VERTEX
8
CUT
10
136.8526
20
195.7384
0
VERTEX
8
CUT
10
136.9673
20
195.5823
0
VERTEX
8
CUT
10
137.0424
20
195.4742
0
VERTEX
8
CUT
10
137.1490
20
195.3123
0
VERTEX
8
CUT
10
138.2138
20
193.5984
0
VERTEX
8
CUT
10
138.3526
20
193.3976
0
VERTEX
8
CUT
10
138.5104
20
193.2112
0
VERTEX
8
CUT
10
138.6855
20
193.0411
0
VERTEX
8
CUT
10
138.8765
20
192.8890
0
VERTEX
8
CUT
10
139.0814
20
192.7561
0
VERTEX
8
CUT
10
139.2982
20
192.6439
0
VERTEX
8
CUT
10
139.5250
20
192.5534
0
VERTEX
8
CUT
10
139.7595
20
192.4855
0
VERTEX
8
CUT
10
139.9995
20
192.4407
0
VERTEX
8
CUT
10
140.2428
20
192.4196
0
VERTEX
8
CUT
10
140.4869
20
192.4222
0
VERTEX
8
CUT
10
140.7296
20
192.4487
0
VERTEX
8
CUT
10
140.9686
20
192.4988
0
VERTEX
8
CUT
10
141.2016
20
192.5719
0
VERTEX
8
CUT
10
141.4263
20
192.6674
0
VERTEX
8
CUT
10
141.6406
20
192.7844
0
VERTEX
8
CUT
10
141.8425
20
192.9217
0
VERTEX
8
CUT
10
142.0300
20
193.0780
0
VERTEX
8
CUT
10
142.2014
20
193.2519
0
VERTEX
8
CUT
10
142.3550
20
193.4417
0
VERTEX
8
CUT
10
142.4894
20
193.6456
0
VERTEX
8
CUT
10
142.6032
20
193.8616
0
VERTEX
8
CUT
10
142.6955
20
194.0877
0
VERTEX
8
CUT
10
142.7652
20
194.3217
0
VERTEX
8
CUT
10
142.8117
20
194.5614
0
VERTEX
8
CUT
10
142.9012
20
195.1822
0
VERTEX
8
CUT
10
142.9479
20
195.4416
0
VERTEX
8
CUT
10
142.9858
20
195.6164
0
VERTEX
8
CUT
10
143.0506
20
195.8719
0
VERTEX
8
CUT
10
143.4119
20
197.1113
0
VERTEX
8
CUT
10
143.4704
20
197.3575
0
VERTEX
8
CUT
10
143.5036
20
197.6083
0
VERTEX
8
CUT
10
143.5113
20
197.8612
0
VERTEX
8
CUT
10
143.4935
20
198.1136
0
VERTEX
8
CUT
10
143.4502
20
198.3629
0
VERTEX
8
CUT
10
143.3819
20
198.6065
0
VERTEX
8
CUT
10
143.2894
20
198.8420
0
VERTEX
8
CUT
10
143.1735
20
199.0669
0
VERTEX
8
CUT
10
143.0355
20
199.2790
0
VERTEX
8
CUT
10
142.8768
20
199.4760
0
VERTEX
8
CUT
10
142.6989
20
199.6560
0
VERTEX
8
CUT
10
142.5038
20
199.8170
0
VERTEX
8
CUT
10
142.2934
20
199.9576
0
VERTEX
8
CUT
10
142.0763
20
200.0872
0
VERTEX
8
CUT
10
141.8264
20
200.2722
0
VERTEX
8
CUT
10
141.5959
20
200.4810
0
VERTEX
8
CUT
10
141.3872
20
200.7115
0
VERTEX
8
CUT
10
141.2022
20
200.9615
0
VERTEX
8
CUT
10
141.0429
20
201.2286
0
VERTEX
8
CUT
10
140.9108
20
201.5101
0
VERTEX
8
CUT
10
140.8070
20
201.8032
0
VERTEX
8
CUT
10
140.7328
20
202.1052
0
VERTEX
8
CUT
10
140.6887
20
202.4131
0
VERTEX
8
CUT
10
140.6753
20
202.7237
0
VERTEX
8
CUT
10
140.6926
20
203.0342
0
VERTEX
8
CUT
10
140.7450
20
203.3710
0
VERTEX
8
CUT
10
140.7518
20
203.4035
0
VERTEX
8
CUT
10
140.7938
20
203.5841
0
VERTEX
8
CUT
10
141.4278
20
206.0308
0
VERTEX
8
CUT
10
141.4728
20
206.2417
0
VERTEX
8
CUT
10
141.8027
20
208.1963
0
VERTEX
8
CUT
10
141.8365
20
208.5380
0
VERTEX
8
CUT
10
141.8789
20
209.9660
0
VERTEX
8
CUT
10
141.8743
20
210.2095
0
VERTEX
8
CUT
10
141.8460
20
210.4513
0
VERTEX
8
CUT
10
141.4724
20
212.6933
0
VERTEX
8
CUT
10
141.4236
20
212.9202
0
VERTEX
8
CUT
10
141.3541
20
213.1416
0
VERTEX
8
CUT
10
140.5719
20
215.2787
0
VERTEX
8
CUT
10
140.4758
20
215.5059
0
VERTEX
8
CUT
10
140.3577
20
215.7226
0
VERTEX
8
CUT
10
139.3738
20
217.3336
0
VERTEX
8
CUT
10
139.2489
20
217.5189
0
VERTEX
8
CUT
10
139.1079
20
217.6924
0
VERTEX
8
CUT
10
138.9520
20
217.8526
0
VERTEX
8
CUT
10
138.1502
20
218.6058
0
VERTEX
8
CUT
10
137.9710
20
218.7589
0
VERTEX
8
CUT
10
137.7783
20
218.8944
0
VERTEX
8
CUT
10
137.5737
20
219.0111
0
VERTEX
8
CUT
10
137.3589
20
219.1081
0
VERTEX
8
CUT
10
137.1361
20
219.1844
0
VERTEX
8
CUT
10
136.9070
20
219.2394
0
VERTEX
8
CUT
10
136.7651
20
219.2665
0
VERTEX
8
CUT
10
136.5907
20
219.3041
0
VERTEX
8
CUT
10
136.5597
20
219.3115
0
VERTEX
8
CUT
10
136.1602
20
219.4280
0
VERTEX
8
CUT
10
136.1598
20
219.4264
0
VERTEX
8
CUT
10
136.0134
20
219.4688
0
VERTEX
8
CUT
10
135.7722
20
219.5137
0
VERTEX
8
CUT
10
135.5278
20
219.5347
0
VERTEX
8
CUT
10
135.2825
20
219.5317
0
VERTEX
8
CUT
10
135.0387
20
219.5047
0
VERTEX
8
CUT
10
134.7987
20
219.4539
0
VERTEX
8
CUT
10
134.5649
20
219.3798
0
VERTEX
8
CUT
10
134.3394
20
219.2831
0
VERTEX
8
CUT
10
134.1245
20
219.1649
0
VERTEX
8
CUT
10
133.9222
20
219.0261
0
VERTEX
8
CUT
10
133.7345
20
218.8682
0
VERTEX
8
CUT
10
133.5632
20
218.6926
0
VERTEX
8
CUT
10
133.4099
20
218.5011
0
VERTEX
8
CUT
10
133.2761
20
218.2955
0
VERTEX
8
CUT
10
133.1631
20
218.0778
0
VERTEX
8
CUT
10
133.0720
20
217.8500
0
VERTEX
8
CUT
10
133.0036
20
217.6144
0
VERTEX
8
CUT
10
132.9587
20
217.3733
0
VERTEX
8
CUT
10
132.9274
20
217.1436
0
VERTEX
8
CUT
10
132.9211
20
217.1102
0
VERTEX
8
CUT
10
132.8811
20
216.9236
0
VERTEX
8
CUT
10
131.6077
20
211.6503
0
VERTEX
8
CUT
10
131.5499
20
211.3094
0
VERTEX
8
CUT
10
131.4158
20
209.9527
0
VERTEX
8
CUT
10
131.4049
20
209.6295
0
VERTEX
8
CUT
10
131.4462
20
208.2911
0
VERTEX
8
CUT
10
131.4473
20
208.1020
0
VERTEX
8
CUT
10
131.4467
20
208.0682
0
VERTEX
8
CUT
10
131.4223
20
207.7214
0
VERTEX
8
CUT
10
131.3684
20
207.4089
0
VERTEX
8
CUT
10
131.2833
20
207.1034
0
VERTEX
8
CUT
10
131.1678
20
206.8080
0
VERTEX
8
CUT
10
131.0231
20
206.5258
0
SEQEND
0
POLYLINE
8
CUT
66
1
70
1
10
0.0
20
0.0
30
0.0
0
VERTEX
8
CUT
10
119.9083
20
104.9640
0
VERTEX
8
CUT
10
120.1543
20
104.7814
0
VERTEX
8
CUT
10
120.3814
20
104.5757
0
VERTEX
8
CUT
10
120.5874
20
104.3489
0
VERTEX
8
CUT
10
120.7703
20
104.1031
0
VERTEX
8
CUT
10
120.9284
20
103.8407
0
VERTEX
8
CUT
10
121.0603
20
103.5642
0
VERTEX
8
CUT
10
121.1646
20
103.2762
0
VERTEX
8
CUT
10
121.2404
20
102.9793
0
VERTEX
8
CUT
10
121.2870
20
102.6765
0
VERTEX
8
CUT
10
121.3039
20
102.3706
0
VERTEX
8
CUT
10
121.2909
20
102.0645
0
VERTEX
8
CUT
10
121.2482
20
101.7611
0
VERTEX
8
CUT
10
121.1762
20
101.4634
0
VERTEX
8
CUT
10
121.0756
20
101.1740
0
VERTEX
8
CUT
10
120.9473
20
100.8958
0
VERTEX
8
CUT
10
120.7925
20
100.6314
0
VERTEX
8
CUT
10
120.6127
20
100.3833
0
VERTEX
8
CUT
10
120.6101
20
100.3804
0
VERTEX
8
CUT
10
120.4573
20
100.1897
0
VERTEX
8
CUT
10
120.3238
20
99.9849
0
VERTEX
8
CUT
10
120.2109
20
99.7681
0
VERTEX
8
CUT
10
120.1197
20
99.5413
0
VERTEX
8
CUT
10
120.0511
20
99.3067
0
VERTEX
8
CUT
10
120.0058
20
99.0665
0
VERTEX
8
CUT
10
119.9841
20
98.8230
0
VERTEX
8
CUT
10
119.9864
20
98.5786
0
VERTEX
8
CUT
10
120.0124
20
98.3355
0
VERTEX
8
CUT
10
120.0621
20
98.0962
0
VERTEX
8
CUT
10
120.1349
20
97.8629
0
VERTEX
8
CUT
10
120.2302
20
97.6377
0
VERTEX
8
CUT
10
120.3470
20
97.4230
0
VERTEX
8
CUT
10
120.4842
20
97.2207
0
VERTEX
8
CUT
10
120.6405
20
97.0328
0
VERTEX
8
CUT
10
120.8144
20
96.8610
0
VERTEX
8
CUT
10
121.0043
20
96.7070
0
VERTEX
8
CUT
10
121.2082
20
96.5724
0
VERTEX
8
CUT
10
121.4244
20
96.4582
0
VERTEX
8
CUT
10
121.6507
20
96.3658
0
VERTEX
8
CUT
10
121.8849
20
96.2958
0
VERTEX
8
CUT
10
122.1248
20
96.2491
0
VERTEX
8
CUT
10
122.3682
20
96.2260
0
VERTEX
8
CUT
10
122.6126
20
96.2268
0
VERTEX
8
CUT
10
122.8558
20
96.2515
0
VERTEX
8
CUT
10
123.0954
20
96.2998
0
VERTEX
8
CUT
10
123.3292
20
96.3713
0
VERTEX
8
CUT
10
123.3330
20
96.3726
0
VERTEX
8
CUT
10
123.6243
20
96.4990
0
VERTEX
8
CUT
10
127.1952
20
98.3253
0
VERTEX
8
CUT
10
127.4987
20
98.5088
0
VERTEX
8
CUT
10
128.9719
20
99.5488
0
VERTEX
8
CUT
10
129.2224
20
99.7510
0
VERTEX
8
CUT
10
131.3676
20
101.7238
0
VERTEX
8
CUT
10
131.5405
20
101.8993
0
VERTEX
8
CUT
10
131.6953
20
102.0909
0
VERTEX
8
CUT
10
131.8304
20
102.2969
0
VERTEX
8
CUT
10
131.9447
20
102.5151
0
VERTEX
8
CUT
10
132.0369
20
102.7436
0
VERTEX
8
CUT
10
132.1062
20
102.9800
0
VERTEX
8
CUT
10
132.1518
20
103.2221
0
VERTEX
8
CUT
10
132.1735
20
103.4675
0
VERTEX
8
CUT
10
132.1708
20
103.7138
0
VERTEX
8
CUT
10
132.1440
20
103.9587
0
VERTEX
8
CUT
10
132.0931
20
104.1997
0
VERTEX
8
CUT
10
132.0188
20
104.4346
0
VERTEX
8
CUT
10
131.9217
20
104.6610
0
VERTEX
8
CUT
10
131.8029
20
104.8768
0
VERTEX
8
CUT
10
131.6633
20
105.0798
0
VERTEX
8
CUT
10
131.5045
20
105.2681
0
VERTEX
8
CUT
10
131.3279
20
105.4399
0
VERTEX
8
CUT
10
131.1567
20
105.5907
0
VERTEX
8
CUT
10
130.9424
20
105.8214
0
VERTEX
8
CUT
10
130.7522
20
106.0725
0
VERTEX
8
CUT
10
130.5881
20
106.3413
0
VERTEX
8
CUT
10
130.4518
20
106.6252
0
VERTEX
8
CUT
10
130.3445
20
106.9212
0
VERTEX
8
CUT
10
130.2673
20
107.2266
0
VERTEX
8
CUT
10
130.2211
20
107.5381
0
VERTEX
8
CUT
10
130.2063
20
107.8527
0
VERTEX
8
CUT
10
130.2230
20
108.1671
0
VERTEX
8
CUT
10
130.2711
20
108.4784
0
VERTEX
8
CUT
10
130.3501
20
108.7832
0
VERTEX
8
CUT
10
130.4592
20
109.0787
0
VERTEX
8
CUT
10
130.5972
20
109.3617
0
VERTEX
8
CUT
10
130.7789
20
109.6553
0
VERTEX
8
CUT
10
130.7979
20
109.6829
0
VERTEX
8
CUT
10
130.9085
20
109.8347
0
VERTEX
8
CUT
10
131.4176
20
110.4986
0
VERTEX
8
CUT
10
131.5601
20
110.7050
0
VERTEX
8
CUT
10
131.6811
20
110.9246
0
VERTEX
8
CUT
10
133.0245
20
113.6807
0
VERTEX
8
CUT
10
133.1145
20
113.8887
0
VERTEX
8
CUT
10
133.1853
20
114.1040
0
VERTEX
8
CUT
10
133.9068
20
116.6892
0
VERTEX
8
CUT
10
133.9681
20
116.9701
0
VERTEX
8
CUT
10
133.9966
20
117.2562
0
VERTEX
8
CUT
10
134.0854
20
119.3671
0
VERTEX
8
CUT
10
134.0827
20
119.6290
0
VERTEX
8
CUT
10
134.0526
20
119.8892
0
VERTEX
8
CUT
10
133.9955
20
120.1448
0
VERTEX
8
CUT
10
133.8004
20
120.8432
0
VERTEX
8
CUT
10
133.7210
20
121.0806
0
VERTEX
8
CUT
10
133.6184
20
121.3089
0
VERTEX
8
CUT
10
133.4934
20
121.5257
0
VERTEX
8
CUT
10
133.3473
20
121.7290
0
VERTEX
8
CUT
10
133.1817
20
121.9167
0
VERTEX
8
CUT
10
132.9981
20
122.0868
0
VERTEX
8
CUT
10
132.7985
20
122.2378
0
VERTEX
8
CUT
10
132.5847
20
122.3680
0
VERTEX
8
CUT
10
132.3590
20
122.4762
0
VERTEX
8
CUT
10
132.1236
20
122.5613
0
VERTEX
8
CUT
10
131.8809
20
122.6224
0
VERTEX
8
CUT
10
131.6332
20
122.6589
0
VERTEX
8
CUT
10
131.3832
20
122.6705
0
VERTEX
8
CUT
10
131.1332
20
122.6571
0
VERTEX
8
CUT
10
130.8859
20
122.6187
0
VERTEX
8
CUT
10
130.6436
20
122.5557
0
VERTEX
8
CUT
10
130.4089
20
122.4689
0
VERTEX
8
CUT
10
130.1840
20
122.3590
0
VERTEX
8
CUT
10
126.9875
20
120.5938
0
VERTEX
8
CUT
10
126.7440
20
120.4706
0
VERTEX
8
CUT
10
126.5759
20
120.3932
0
VERTEX
8
CUT
10
126.3241
20
120.2881
0
VERTEX
8
CUT
10
123.9080
20
119.3815
0
VERTEX
8
CUT
10
123.7477
20
119.3254
0
VERTEX
8
CUT
10
123.7188
20
119.3160
0
VERTEX
8
CUT
10
123.3915
20
119.2260
0
VERTEX
8
CUT
10
123.3619
20
119.2193
0
VERTEX
8
CUT
10
123.1955
20
119.1855
0
VERTEX
8
CUT
10
121.9557
20
118.9627
0
VERTEX
8
CUT
10
121.7296
20
118.9111
0
VERTEX
8
CUT
10
121.5093
20
118.8388
0
VERTEX
8
CUT
10
121.2966
20
118.7464
0
VERTEX
8
CUT
10
121.0934
20
118.6347
0
VERTEX
8
CUT
10
120.9014
20
118.5047
0
VERTEX
8
CUT
10
120.7223
20
118.3574
0
VERTEX
8
CUT
10
120.1637
20
117.8529
0
VERTEX
8
CUT
10
120.0051
20
117.6962
0
VERTEX
8
CUT
10
119.8610
20
117.5260
0
VERTEX
8
CUT
10
119.0359
20
116.4580
0
VERTEX
8
CUT
10
118.8484
20
116.1782
0
VERTEX
8
CUT
10
117.2441
20
113.3952
0
VERTEX
8
CUT
10
117.1391
20
113.1920
0
VERTEX
8
CUT
10
117.0530
20
112.9800
0
VERTEX
8
CUT
10
116.9867
20
112.7611
0
VERTEX
8
CUT
10
116.8559
20
112.2453
0
VERTEX
8
CUT
10
116.8092
20
112.0166
0
VERTEX
8
CUT
10
116.7840
20
111.7845
0
VERTEX
8
CUT
10
116.7805
20
111.5510
0
VERTEX
8
CUT
10
116.8507
20
109.3586
0
VERTEX
8
CUT
10
116.8743
20
109.0864
0
VERTEX
8
CUT
10
116.9275
20
108.8184
0
VERTEX
8
CUT
10
117.1083
20
108.1125
0
VERTEX
8
CUT
10
117.1751
20
107.8938
0
VERTEX
8
CUT
10
117.2616
20
107.6821
0
VERTEX
8
CUT
10
117.3670
20
107.4792
0
VERTEX
8
CUT
10
117.4906
20
107.2868
0
VERTEX
8
CUT
10
118.1591
20
106.3437
0
VERTEX
8
CUT
10
118.3342
20
106.1240
0
VERTEX
8
CUT
10
118.5328
20
105.9254
0
VERTEX
8
CUT
10
118.9004
20
105.5969
0
VERTEX
8
CUT
10
119.0689
20
105.4590
0
VERTEX
8
CUT
10
119.2487
20
105.3364
0
VERTEX
8
CUT
10
119.4385
20
105.2298
0
VERTEX
8
CUT
10
119.5917
20
105.1524
0
VERTEX
8
CUT
10
119.6205
20
105.1369
0
SEQEND
0
POLYLINE
8
CUT
66
1
70
1
10
0.0
20
0.0
30
0.0
0
VERTEX
8
CUT
10
117.5041
20
217.9407
0
VERTEX
8
CUT
10
117.2809
20
218.0379
0
VERTEX
8
CUT
10
117.0494
20
218.1129
0
VERTEX
8
CUT
10
116.8116
20
218.1651
0
VERTEX
8
CUT
10
116.5699
20
218.1938
0
VERTEX
8
CUT
10
116.3266
20
218.1990
0
VERTEX
8
CUT
10
116.0839
20
218.1804
0
VERTEX
8
CUT
10
115.8441
20
218.1384
0
VERTEX
8
CUT
10
115.6096
20
218.0732
0
VERTEX
8
CUT
10
115.3826
20
217.9855
0
VERTEX
8
CUT
10
115.1651
20
217.8762
0
VERTEX
8
CUT
10
114.9593
20
217.7462
0
VERTEX
8
CUT
10
114.7671
20
217.5968
0
VERTEX
8
CUT
10
114.5904
20
217.4295
0
VERTEX
8
CUT
10
114.4308
20
217.2457
0
VERTEX
8
CUT
10
114.2897
20
217.0473
0
VERTEX
8
CUT
10
114.1687
20
216.8362
0
VERTEX
8
CUT
10
114.0688
20
216.6142
0
VERTEX
8
CUT
10
113.9909
20
216.3836
0
VERTEX
8
CUT
10
113.9358
20
216.1465
0
VERTEX
8
CUT
10
113.9085
20
215.9960
0
VERTEX
8
CUT
10
113.8962
20
215.9365
0
VERTEX
8
CUT
10
113.8571
20
215.6810
0
VERTEX
8
CUT
10
113.8446
20
215.4229
0
VERTEX
8
CUT
10
113.8588
20
215.1649
0
VERTEX
8
CUT
10
113.8995
20
214.9097
0
VERTEX
8
CUT
10
113.9664
20
214.6601
0
VERTEX
8
CUT
10
114.1676
20
214.0395
0
VERTEX
8
CUT
10
114.2605
20
213.7968
0
VERTEX
8
CUT
10
114.3781
20
213.5650
0
VERTEX
8
CUT
10
114.5191
20
213.3467
0
VERTEX
8
CUT
10
115.1931
20
212.4136
0
VERTEX
8
CUT
10
115.3544
20
212.2130
0
VERTEX
8
CUT
10
115.5355
20
212.0299
0
VERTEX
8
CUT
10
117.3677
20
210.3597
0
VERTEX
8
CUT
10
117.5846
20
210.1832
0
VERTEX
8
CUT
10
117.8198
20
210.0320
0
VERTEX
8
CUT
10
118.1654
20
209.8363
0
VERTEX
8
CUT
10
118.3848
20
209.7258
0
VERTEX
8
CUT
10
118.6140
20
209.6375
0
VERTEX
8
CUT
10
118.8508
20
209.5720
0
VERTEX
8
CUT
10
119.0929
20
209.5302
0
VERTEX
8
CUT
10
119.3379
20
209.5122
0
VERTEX
8
CUT
10
119.5835
20
209.5185
0
VERTEX
8
CUT
10
119.8273
20
209.5488
0
VERTEX
8
CUT
10
120.0670
20
209.6028
0
VERTEX
8
CUT
10
120.3001
20
209.6802
0
VERTEX
8
CUT
10
120.5246
20
209.7800
0
VERTEX
8
CUT
10
120.7382
20
209.9014
0
VERTEX
8
CUT
10
120.9388
20
210.0432
0
VERTEX
8
CUT
10
121.1246
20
210.2040
0
VERTEX
8
CUT
10
121.2936
20
210.3822
0
VERTEX
8
CUT
10
121.4444
20
210.5762
0
VERTEX
8
CUT
10
121.5754
20
210.7840
0
VERTEX
8
CUT
10
121.6854
20
211.0037
0
VERTEX
8
CUT
10
121.7732
20
211.2332
0
VERTEX
8
CUT
10
121.8381
20
211.4701
0
VERTEX
8
CUT
10
121.8795
20
211.7123
0
VERTEX
8
CUT
10
121.8969
20
211.9573
0
VERTEX
8
CUT
10
121.9533
20
214.5584
0
VERTEX
8
CUT
10
121.9466
20
214.8038
0
VERTEX
8
CUT
10
121.9158
20
215.0474
0
VERTEX
8
CUT
10
121.8613
20
215.2867
0
VERTEX
8
CUT
10
121.7836
20
215.5195
0
VERTEX
8
CUT
10
121.6835
20
215.7437
0
VERTEX
8
CUT
10
121.5618
20
215.9568
0
VERTEX
8
CUT
10
121.4198
20
216.1571
0
VERTEX
8
CUT
10
121.1058
20
216.5568
0
VERTEX
8
CUT
10
120.9487
20
216.7381
0
VERTEX
8
CUT
10
120.7750
20
216.9035
0
VERTEX
8
CUT
10
120.5863
20
217.0515
0
VERTEX
8
CUT
10
120.3842
20
217.1807
0
VERTEX
8
CUT
10
120.1707
20
217.2900
0
VERTEX
8
CUT
10
119.9477
20
217.3783
0
VERTEX
8
CUT
10
119.7173
20
217.4448
0
VERTEX
8
CUT
10
119.4815
20
217.4889
0
VERTEX
8
CUT
10
119.2426
20
217.5103
0
VERTEX
8
CUT
10
119.1471
20
217.5142
0
VERTEX
8
CUT
10
118.9562
20
217.5269
0
VERTEX
8
CUT
10
118.9222
20
217.5301
0
VERTEX
8
CUT
10
118.5435
20
217.5847
0
VERTEX
8
CUT
10
118.5100
20
217.5912
0
VERTEX
8
CUT
10
118.3232
20
217.6330
0
VERTEX
8
CUT
10
118.3013
20
217.6384
0
VERTEX
8
CUT
10
118.1080
20
217.6924
0
VERTEX
8
CUT
10
118.0737
20
217.7029
0
VERTEX
8
CUT
10
117.7276
20
217.8302
0
SEQEND
0
POLYLINE
8
CUT
66
1
70
1
10
0.0
20
0.0
30
0.0
0
VERTEX
8
CUT
10
94.8153
20
191.7612
0
VERTEX
8
CUT
10
94.6437
20
191.8110
0
VERTEX
8
CUT
10
94.4024
20
191.8560
0
VERTEX
8
CUT
10
94.1578
20
191.8771
0
VERTEX
8
CUT
10
93.9123
20
191.8741
0
VERTEX
8
CUT
10
93.6683
20
191.8470
0
VERTEX
8
CUT
10
93.4281
20
191.7962
0
VERTEX
8
CUT
10
93.1941
20
191.7220
0
VERTEX
8
CUT
10
92.9685
20
191.6252
0
VERTEX
8
CUT
10
92.7534
20
191.5068
0
VERTEX
8
CUT
10
92.5510
20
191.3678
0
VERTEX
8
CUT
10
92.3632
20
191.2097
0
VERTEX
8
CUT
10
92.1919
20
191.0339
0
VERTEX
8
CUT
10
92.0385
20
190.8421
0
VERTEX
8
CUT
10
91.9048
20
190.6363
0
VERTEX
8
CUT
10
91.7919
20
190.4183
0
VERTEX
8
CUT
10
91.7009
20
190.1902
0
VERTEX
8
CUT
10
91.6327
20
189.9544
0
VERTEX
8
CUT
10
91.5880
20
189.7130
0
VERTEX
8
CUT
10
91.5671
20
189.4684
0
VERTEX
8
CUT
10
91.5704
20
189.2229
0
VERTEX
8
CUT
10
91.5977
20
188.9789
0
VERTEX
8
CUT
10
91.6488
20
188.7388
0
VERTEX
8
CUT
10
91.7232
20
188.5048
0
VERTEX
8
CUT
10
91.8186
20
188.2494
0
VERTEX
8
CUT
10
91.9196
20
188.0157
0
VERTEX
8
CUT
10
92.0438
20
187.7935
0
VERTEX
8
CUT
10
92.1901
20
187.5851
0
VERTEX
8
CUT
10
92.3567
20
187.3927
0
VERTEX
8
CUT
10
92.5421
20
187.2182
0
VERTEX
8
CUT
10
92.7442
20
187.0634
0
VERTEX
8
CUT
10
92.9611
20
186.9300
0
VERTEX
8
CUT
10
93.1904
20
186.8194
0
VERTEX
8
CUT
10
93.4297
20
186.7326
0
VERTEX
8
CUT
10
93.6766
20
186.6707
0
VERTEX
8
CUT
10
93.9286
20
186.6342
0
VERTEX
8
CUT
10
94.1829
20
186.6234
0
VERTEX
8
CUT
10
95.0916
20
186.6315
0
VERTEX
8
CUT
10
95.3369
20
186.6457
0
VERTEX
8
CUT
10
95.5797
20
186.6840
0
VERTEX
8
CUT
10
95.8175
20
186.7459
0
VERTEX
8
CUT
10
96.0481
20
186.8309
0
VERTEX
8
CUT
10
96.2692
20
186.9380
0
VERTEX
8
CUT
10
96.4787
20
187.0664
0
VERTEX
8
CUT
10
96.6747
20
187.2148
0
VERTEX
8
CUT
10
96.8551
20
187.3816
0
VERTEX
8
CUT
10
97.0182
20
187.5654
0
VERTEX
8
CUT
10
97.1626
20
187.7643
0
VERTEX
8
CUT
10
97.2867
20
187.9763
0
VERTEX
8
CUT
10
97.3894
20
188.1996
0
VERTEX
8
CUT
10
97.4696
20
188.4319
0
VERTEX
8
CUT
10
97.5267
20
188.6709
0
VERTEX
8
CUT
10
97.5601
20
188.9144
0
VERTEX
8
CUT
10
97.5693
20
189.1599
0
VERTEX
8
CUT
10
97.5544
20
189.4052
0
VERTEX
8
CUT
10
97.5156
20
189.6479
0
VERTEX
8
CUT
10
97.4530
20
189.8855
0
VERTEX
8
CUT
10
97.3675
20
190.1159
0
VERTEX
8
CUT
10
97.2597
20
190.3367
0
VERTEX
8
CUT
10
97.1308
20
190.5459
0
VERTEX
8
CUT
10
96.9820
20
190.7415
0
VERTEX
8
CUT
10
96.8147
20
190.9215
0
VERTEX
8
CUT
10
96.6305
20
191.0842
0
VERTEX
8
CUT
10
96.4312
20
191.2280
0
VERTEX
8
CUT
10
96.2188
20
191.3515
0
VERTEX
8
CUT
10
95.9953
20
191.4536
0
VERTEX
8
CUT
10
95.7628
20
191.5333
0
VERTEX
8
CUT
10
95.5236
20
191.5898
0
VERTEX
8
CUT
10
95.2036
20
191.6489
0
VERTEX
8
CUT
10
94.8153
20
191.7614
0
SEQEND
0
ENDSEC
0
EOF
