0
SECTION
2
HEADER
9
$ACADVER
1
AC1009
9
$INSUNITS
70
4
0
ENDSEC
0
SECTION
2
TABLES
0
TABLE
2
LAYER
70
1
0
LAYER
2
CUT
70
0
62
7
6
CONTINUOUS
0
ENDTAB
0
ENDSEC
0
SECTION
2
ENTITIES
0
POLYLINE
8
CUT
66
1
70
1
10
0.0
20
0.0
30
0.0
0
VERTEX
8
CUT
10
0.0906
20
47.4011
0
VERTEX
8
CUT
10
0.0000
20
149.9695
0
VERTEX
8
CUT
10
0.0906
20
252.5372
0
VERTEX
8
CUT
10
0.2114
20
286.3841
0
VERTEX
8
CUT
10
0.4543
20
299.5155
0
VERTEX
8
CUT
10
13.5857
20
299.7585
0
VERTEX
8
CUT
10
47.4313
20
299.8792
0
VERTEX
8
CUT
10
149.9997
20
299.9698
0
VERTEX
8
CUT
10
252.5674
20
299.8792
0
VERTEX
8
CUT
10
286.4143
20
299.7585
0
VERTEX
8
CUT
10
299.5457
20
299.5155
0
VERTEX
8
CUT
10
299.7886
20
286.3841
0
VERTEX
8
CUT
10
299.9094
20
252.5386
0
VERTEX
8
CUT
10
300.0000
20
149.9701
0
VERTEX
8
CUT
10
299.9094
20
47.4024
0
VERTEX
8
CUT
10
299.7886
20
13.5555
0
VERTEX
8
CUT
10
299.5457
20
0.4241
0
VERTEX
8
CUT
10
286.4143
20
0.1812
0
VERTEX
8
CUT
10
204.7715
20
0.0000
0
VERTEX
8
CUT
10
13.5815
20
0.1812
0
VERTEX
8
CUT
10
0.6087
20
0.3622
0
VERTEX
8
CUT
10
0.3924
20
0.5785
0
SEQEND
0
POLYLINE
8
CUT
66
1
70
1
10
0.0
20
0.0
30
0.0
0
VERTEX
8
CUT
10
151.7576
20
8.0000
0
VERTEX
8
CUT
10
151.7576
20
14.9692
0
VERTEX
8
CUT
10
151.8069
20
14.9979
0
VERTEX
8
CUT
10
151.8801
20
15.0430
0
VERTEX
8
CUT
10
151.9521
20
15.0899
0
VERTEX
8
CUT
10
152.0229
20
15.1385
0
VERTEX
8
CUT
10
152.0925
20
15.1888
0
VERTEX
8
CUT
10
152.1609
20
15.2408
0
VERTEX
8
CUT
10
152.2279
20
15.2945
0
VERTEX
8
CUT
10
152.2937
20
15.3498
0
VERTEX
8
CUT
10
152.3580
20
15.4067
0
VERTEX
8
CUT
10
152.4210
20
15.4651
0
VERTEX
8
CUT
10
152.4824
20
15.5251
0
VERTEX
8
CUT
10
152.5424
20
15.5866
0
VERTEX
8
CUT
10
152.6009
20
15.6495
0
VERTEX
8
CUT
10
152.6578
20
15.7139
0
VERTEX
8
CUT
10
152.7131
20
15.7796
0
VERTEX
8
CUT
10
152.7668
20
15.8467
0
VERTEX
8
CUT
10
152.8188
20
15.9151
0
VERTEX
8
CUT
10
152.8691
20
15.9847
0
VERTEX
8
CUT
10
152.9177
20
16.0555
0
VERTEX
8
CUT
10
152.9646
20
16.1275
0
VERTEX
8
CUT
10
153.0096
20
16.2006
0
VERTEX
8
CUT
10
153.0529
20
16.2749
0
VERTEX
8
CUT
10
153.0943
20
16.3501
0
VERTEX
8
CUT
10
153.1339
20
16.4264
0
VERTEX
8
CUT
10
153.1715
20
16.5036
0
VERTEX
8
CUT
10
153.2073
20
16.5817
0
VERTEX
8
CUT
10
153.2411
20
16.6606
0
VERTEX
8
CUT
10
153.2730
20
16.7404
0
VERTEX
8
CUT
10
153.3030
20
16.8209
0
VERTEX
8
CUT
10
153.3309
20
16.9021
0
VERTEX
8
CUT
10
153.3569
20
16.9840
0
VERTEX
8
CUT
10
153.3808
20
17.0665
0
VERTEX
8
CUT
10
153.4027
20
17.1496
0
VERTEX
8
CUT
10
153.4225
20
17.2331
0
VERTEX
8
CUT
10
153.4403
20
17.3172
0
VERTEX
8
CUT
10
153.4560
20
17.4016
0
VERTEX
8
CUT
10
153.4697
20
17.4864
0
VERTEX
8
CUT
10
153.4812
20
17.5716
0
VERTEX
8
CUT
10
153.4907
20
17.6569
0
VERTEX
8
CUT
10
153.4981
20
17.7425
0
VERTEX
8
CUT
10
153.5034
20
17.8283
0
VERTEX
8
CUT
10
153.5065
20
17.9141
0
VERTEX
8
CUT
10
153.5076
20
18.0000
0
VERTEX
8
CUT
10
153.5065
20
18.0859
0
VERTEX
8
CUT
10
153.5034
20
18.1717
0
VERTEX
8
CUT
10
153.4981
20
18.2575
0
VERTEX
8
CUT
10
153.4907
20
18.3431
0
VERTEX
8
CUT
10
153.4812
20
18.4284
0
VERTEX
8
CUT
10
153.4697
20
18.5136
0
VERTEX
8
CUT
10
153.4560
20
18.5984
0
VERTEX
8
CUT
10
153.4403
20
18.6828
0
VERTEX
8
CUT
10
153.4225
20
18.7669
0
VERTEX
8
CUT
10
153.4027
20
18.8504
0
VERTEX
8
CUT
10
153.3808
20
18.9335
0
VERTEX
8
CUT
10
153.3569
20
19.0160
0
VERTEX
8
CUT
10
153.3309
20
19.0979
0
VERTEX
8
CUT
10
153.3030
20
19.1791
0
VERTEX
8
CUT
10
153.2730
20
19.2596
0
VERTEX
8
CUT
10
153.2411
20
19.3394
0
VERTEX
8
CUT
10
153.2073
20
19.4183
0
VERTEX
8
CUT
10
153.1715
20
19.4964
0
VERTEX
8
CUT
10
153.1339
20
19.5736
0
VERTEX
8
CUT
10
153.0943
20
19.6499
0
VERTEX
8
CUT
10
153.0529
20
19.7251
0
VERTEX
8
CUT
10
153.0096
20
19.7994
0
VERTEX
8
CUT
10
152.9646
20
19.8725
0
VERTEX
8
CUT
10
152.9177
20
19.9445
0
VERTEX
8
CUT
10
152.8691
20
20.0153
0
VERTEX
8
CUT
10
152.8188
20
20.0849
0
VERTEX
8
CUT
10
152.7668
20
20.1533
0
VERTEX
8
CUT
10
152.7131
20
20.2204
0
VERTEX
8
CUT
10
152.6578
20
20.2861
0
VERTEX
8
CUT
10
152.6009
20
20.3505
0
VERTEX
8
CUT
10
152.5424
20
20.4134
0
VERTEX
8
CUT
10
152.4824
20
20.4749
0
VERTEX
8
CUT
10
152.4210
20
20.5349
0
VERTEX
8
CUT
10
152.3580
20
20.5933
0
VERTEX
8
CUT
10
152.2937
20
20.6502
0
VERTEX
8
CUT
10
152.2279
20
20.7055
0
VERTEX
8
CUT
10
152.1609
20
20.7592
0
VERTEX
8
CUT
10
152.0925
20
20.8112
0
VERTEX
8
CUT
10
152.0229
20
20.8615
0
VERTEX
8
CUT
10
151.9521
20
20.9101
0
VERTEX
8
CUT
10
151.8801
20
20.9570
0
VERTEX
8
CUT
10
151.8069
20
21.0021
0
VERTEX
8
CUT
10
151.7327
20
21.0453
0
VERTEX
8
CUT
10
151.6575
20
21.0867
0
VERTEX
8
CUT
10
151.5812
20
21.1263
0
VERTEX
8
CUT
10
151.5040
20
21.1640
0
VERTEX
8
CUT
10
151.4259
20
21.1997
0
VERTEX
8
CUT
10
151.3470
20
21.2336
0
VERTEX
8
CUT
10
151.2672
20
21.2655
0
VERTEX
8
CUT
10
151.1867
20
21.2954
0
VERTEX
8
CUT
10
151.1055
20
21.3233
0
VERTEX
8
CUT
10
151.0236
20
21.3493
0
VERTEX
8
CUT
10
150.9411
20
21.3732
0
VERTEX
8
CUT
10
150.8580
20
21.3951
0
VERTEX
8
CUT
10
150.7744
20
21.4150
0
VERTEX
8
CUT
10
150.6904
20
21.4327
0
VERTEX
8
CUT
10
150.6059
20
21.4485
0
VERTEX
8
CUT
10
150.5211
20
21.4621
0
VERTEX
8
CUT
10
150.4360
20
21.4737
0
VERTEX
8
CUT
10
150.3506
20
21.4831
0
VERTEX
8
CUT
10
150.2650
20
21.4905
0
VERTEX
8
CUT
10
150.1793
20
21.4958
0
VERTEX
8
CUT
10
150.0935
20
21.4989
0
VERTEX
8
CUT
10
150.0076
20
21.5000
0
VERTEX
8
CUT
10
149.9217
20
21.4989
0
VERTEX
8
CUT
10
149.8358
20
21.4958
0
VERTEX
8
CUT
10
149.7501
20
21.4905
0
VERTEX
8
CUT
10
149.6645
20
21.4831
0
VERTEX
8
CUT
10
149.5791
20
21.4737
0
VERTEX
8
CUT
10
149.4940
20
21.4621
0
VERTEX
8
CUT
10
149.4092
20
21.4485
0
VERTEX
8
CUT
10
149.3248
20
21.4327
0
VERTEX
8
CUT
10
149.2407
20
21.4150
0
VERTEX
8
CUT
10
149.1571
20
21.3951
0
VERTEX
8
CUT
10
149.0741
20
21.3732
0
VERTEX
8
CUT
10
148.9916
20
21.3493
0
VERTEX
8
CUT
10
148.9097
20
21.3233
0
VERTEX
8
CUT
10
148.8285
20
21.2954
0
VERTEX
8
CUT
10
148.7479
20
21.2655
0
VERTEX
8
CUT
10
148.6682
20
21.2336
0
VERTEX
8
CUT
10
148.5892
20
21.1997
0
VERTEX
8
CUT
10
148.5111
20
21.1640
0
VERTEX
8
CUT
10
148.4339
20
21.1263
0
VERTEX
8
CUT
10
148.3577
20
21.0867
0
VERTEX
8
CUT
10
148.2824
20
21.0453
0
VERTEX
8
CUT
10
148.2082
20
21.0021
0
VERTEX
8
CUT
10
148.1351
20
20.9570
0
VERTEX
8
CUT
10
148.0631
20
20.9101
0
VERTEX
8
CUT
10
147.9922
20
20.8615
0
VERTEX
8
CUT
10
147.9226
20
20.8112
0
VERTEX
8
CUT
10
147.8543
20
20.7592
0
VERTEX
8
CUT
10
147.7872
20
20.7055
0
VERTEX
8
CUT
10
147.7215
20
20.6502
0
VERTEX
8
CUT
10
147.6571
20
20.5933
0
VERTEX
8
CUT
10
147.5942
20
20.5349
0
VERTEX
8
CUT
10
147.5327
20
20.4749
0
VERTEX
8
CUT
10
147.4727
20
20.4134
0
VERTEX
8
CUT
10
147.4142
20
20.3505
0
VERTEX
8
CUT
10
147.3573
20
20.2861
0
VERTEX
8
CUT
10
147.3020
20
20.2204
0
VERTEX
8
CUT
10
147.2484
20
20.1533
0
VERTEX
8
CUT
10
147.1963
20
20.0849
0
VERTEX
8
CUT
10
147.1460
20
20.0153
0
VERTEX
8
CUT
10
147.0974
20
19.9445
0
VERTEX
8
CUT
10
147.0506
20
19.8725
0
VERTEX
8
CUT
10
147.0055
20
19.7994
0
VERTEX
8
CUT
10
146.9623
20
19.7251
0
VERTEX
8
CUT
10
146.9208
20
19.6499
0
VERTEX
8
CUT
10
146.8813
20
19.5736
0
VERTEX
8
CUT
10
146.8436
20
19.4964
0
VERTEX
8
CUT
10
146.8078
20
19.4183
0
VERTEX
8
CUT
10
146.7740
20
19.3394
0
VERTEX
8
CUT
10
146.7421
20
19.2596
0
VERTEX
8
CUT
10
146.7122
20
19.1791
0
VERTEX
8
CUT
10
146.6842
20
19.0979
0
VERTEX
8
CUT
10
146.6583
20
19.0160
0
VERTEX
8
CUT
10
146.6344
20
18.9335
0
VERTEX
8
CUT
10
146.6125
20
18.8504
0
VERTEX
8
CUT
10
146.5926
20
18.7669
0
VERTEX
8
CUT
10
146.5748
20
18.6828
0
VERTEX
8
CUT
10
146.5591
20
18.5984
0
VERTEX
8
CUT
10
146.5455
20
18.5136
0
VERTEX
8
CUT
10
146.5339
20
18.4284
0
VERTEX
8
CUT
10
146.5244
20
18.3431
0
VERTEX
8
CUT
10
146.5171
20
18.2575
0
VERTEX
8
CUT
10
146.5118
20
18.1717
0
VERTEX
8
CUT
10
146.5086
20
18.0859
0
VERTEX
8
CUT
10
146.5076
20
18.0000
0
VERTEX
8
CUT
10
146.5086
20
17.9141
0
VERTEX
8
CUT
10
146.5118
20
17.8283
0
VERTEX
8
CUT
10
146.5171
20
17.7425
0
VERTEX
8
CUT
10
146.5244
20
17.6569
0
VERTEX
8
CUT
10
146.5339
20
17.5716
0
VERTEX
8
CUT
10
146.5455
20
17.4864
0
VERTEX
8
CUT
10
146.5591
20
17.4016
0
VERTEX
8
CUT
10
146.5748
20
17.3172
0
VERTEX
8
CUT
10
146.5926
20
17.2331
0
VERTEX
8
CUT
10
146.6125
20
17.1496
0
VERTEX
8
CUT
10
146.6344
20
17.0665
0
VERTEX
8
CUT
10
146.6583
20
16.9840
0
VERTEX
8
CUT
10
146.6842
20
16.9021
0
VERTEX
8
CUT
10
146.7122
20
16.8209
0
VERTEX
8
CUT
10
146.7421
20
16.7404
0
VERTEX
8
CUT
10
146.7740
20
16.6606
0
VERTEX
8
CUT
10
146.8078
20
16.5817
0
VERTEX
8
CUT
10
146.8436
20
16.5036
0
VERTEX
8
CUT
10
146.8813
20
16.4264
0
VERTEX
8
CUT
10
146.9208
20
16.3501
0
VERTEX
8
CUT
10
146.9623
20
16.2749
0
VERTEX
8
CUT
10
147.0055
20
16.2006
0
VERTEX
8
CUT
10
147.0506
20
16.1275
0
VERTEX
8
CUT
10
147.0974
20
16.0555
0
VERTEX
8
CUT
10
147.1460
20
15.9847
0
VERTEX
8
CUT
10
147.1963
20
15.9151
0
VERTEX
8
CUT
10
147.2484
20
15.8467
0
VERTEX
8
CUT
10
147.3020
20
15.7796
0
VERTEX
8
CUT
10
147.3573
20
15.7139
0
VERTEX
8
CUT
10
147.4142
20
15.6495
0
VERTEX
8
CUT
10
147.4727
20
15.5866
0
VERTEX
8
CUT
10
147.5327
20
15.5251
0
VERTEX
8
CUT
10
147.5942
20
15.4651
0
VERTEX
8
CUT
10
147.6571
20
15.4067
0
VERTEX
8
CUT
10
147.7215
20
15.3498
0
VERTEX
8
CUT
10
147.7872
20
15.2945
0
VERTEX
8
CUT
10
147.8543
20
15.2408
0
VERTEX
8
CUT
10
147.9226
20
15.1888
0
VERTEX
8
CUT
10
147.9922
20
15.1385
0
VERTEX
8
CUT
10
148.0631
20
15.0899
0
VERTEX
8
CUT
10
148.1351
20
15.0430
0
VERTEX
8
CUT
10
148.2082
20
14.9979
0
VERTEX
8
CUT
10
148.2576
20
14.9692
0
VERTEX
8
CUT
10
148.2576
20
8.0000
0
VERTEX
8
CUT
10
148.2597
20
7.9141
0
VERTEX
8
CUT
10
148.2660
20
7.8285
0
VERTEX
8
CUT
10
148.2765
20
7.7432
0
VERTEX
8
CUT
10
148.2912
20
7.6586
0
VERTEX
8
CUT
10
148.3100
20
7.5748
0
VERTEX
8
CUT
10
148.3329
20
7.4920
0
VERTEX
8
CUT
10
148.3599
20
7.4104
0
VERTEX
8
CUT
10
148.3908
20
7.3303
0
VERTEX
8
CUT
10
148.4256
20
7.2518
0
VERTEX
8
CUT
10
148.4642
20
7.1751
0
VERTEX
8
CUT
10
148.5065
20
7.1003
0
VERTEX
8
CUT
10
148.5525
20
7.0278
0
VERTEX
8
CUT
10
148.6020
20
6.9575
0
VERTEX
8
CUT
10
148.6548
20
6.8898
0
VERTEX
8
CUT
10
148.7109
20
6.8248
0
VERTEX
8
CUT
10
148.7701
20
6.7626
0
VERTEX
8
CUT
10
148.8323
20
6.7033
0
VERTEX
8
CUT
10
148.8974
20
6.6472
0
VERTEX
8
CUT
10
148.9651
20
6.5944
0
VERTEX
8
CUT
10
149.0353
20
6.5449
0
VERTEX
8
CUT
10
149.1079
20
6.4990
0
VERTEX
8
CUT
10
149.1826
20
6.4566
0
VERTEX
8
CUT
10
149.2593
20
6.4180
0
VERTEX
8
CUT
10
149.3379
20
6.3832
0
VERTEX
8
CUT
10
149.4180
20
6.3523
0
VERTEX
8
CUT
10
149.4996
20
6.3254
0
VERTEX
8
CUT
10
149.5824
20
6.3024
0
VERTEX
8
CUT
10
149.6662
20
6.2836
0
VERTEX
8
CUT
10
149.7508
20
6.2689
0
VERTEX
8
CUT
10
149.8360
20
6.2584
0
VERTEX
8
CUT
10
149.9217
20
6.2521
0
VERTEX
8
CUT
10
150.0076
20
6.2500
0
VERTEX
8
CUT
10
150.0934
20
6.2521
0
VERTEX
8
CUT
10
150.1791
20
6.2584
0
VERTEX
8
CUT
10
150.2643
20
6.2689
0
VERTEX
8
CUT
10
150.3490
20
6.2836
0
VERTEX
8
CUT
10
150.4328
20
6.3024
0
VERTEX
8
CUT
10
150.5156
20
6.3254
0
VERTEX
8
CUT
10
150.5971
20
6.3523
0
VERTEX
8
CUT
10
150.6773
20
6.3832
0
VERTEX
8
CUT
10
150.7558
20
6.4180
0
VERTEX
8
CUT
10
150.8325
20
6.4566
0
VERTEX
8
CUT
10
150.9072
20
6.4990
0
VERTEX
8
CUT
10
150.9798
20
6.5449
0
VERTEX
8
CUT
10
151.0500
20
6.5944
0
VERTEX
8
CUT
10
151.1178
20
6.6472
0
VERTEX
8
CUT
10
151.1828
20
6.7033
0
VERTEX
8
CUT
10
151.2450
20
6.7626
0
VERTEX
8
CUT
10
151.3042
20
6.8248
0
VERTEX
8
CUT
10
151.3603
20
6.8898
0
VERTEX
8
CUT
10
151.4132
20
6.9575
0
VERTEX
8
CUT
10
151.4626
20
7.0278
0
VERTEX
8
CUT
10
151.5086
20
7.1003
0
VERTEX
8
CUT
10
151.5509
20
7.1751
0
VERTEX
8
CUT
10
151.5896
20
7.2518
0
VERTEX
8
CUT
10
151.6244
20
7.3303
0
VERTEX
8
CUT
10
151.6553
20
7.4104
0
VERTEX
8
CUT
10
151.6822
20
7.4920
0
VERTEX
8
CUT
10
151.7051
20
7.5748
0
VERTEX
8
CUT
10
151.7239
20
7.6586
0
VERTEX
8
CUT
10
151.7386
20
7.7432
0
VERTEX
8
CUT
10
151.7491
20
7.8285
0
VERTEX
8
CUT
10
151.7555
20
7.9141
0
SEQEND
0
ENDSEC
0
EOF
