0
SECTION
2
HEADER
9
$ACADVER
1
AC1009
9
$INSUNITS
70
4
0
ENDSEC
0
SECTION
2
TABLES
0
TABLE
2
LAYER
70
1
0
LAYER
2
CUT
70
0
62
7
6
CONTINUOUS
0
ENDTAB
0
ENDSEC
0
SECTION
2
ENTITIES
0
POLYLINE
8
CUT
66
1
70
1
10
0.0
20
0.0
30
0.0
0
VERTEX
8
CUT
10
69.5875
20
145.1232
0
VERTEX
8
CUT
10
65.8516
20
148.1441
0
VERTEX
8
CUT
10
65.2811
20
148.6151
0
VERTEX
8
CUT
10
63.9136
20
149.8347
0
VERTEX
8
CUT
10
62.8579
20
150.9744
0
VERTEX
8
CUT
10
62.0542
20
151.8422
0
VERTEX
8
CUT
10
61.9488
20
151.9559
0
VERTEX
8
CUT
10
61.2628
20
152.6965
0
VERTEX
8
CUT
10
59.9057
20
154.6292
0
VERTEX
8
CUT
10
59.8972
20
154.6441
0
VERTEX
8
CUT
10
59.8623
20
154.7052
0
VERTEX
8
CUT
10
59.8573
20
154.7141
0
VERTEX
8
CUT
10
59.6893
20
155.0082
0
VERTEX
8
CUT
10
59.5551
20
155.2432
0
VERTEX
8
CUT
10
58.3009
20
158.0161
0
VERTEX
8
CUT
10
58.2990
20
158.0216
0
VERTEX
8
CUT
10
58.2986
20
158.0228
0
VERTEX
8
CUT
10
58.2950
20
158.0333
0
VERTEX
8
CUT
10
58.2853
20
158.0614
0
VERTEX
8
CUT
10
57.7067
20
160.3327
0
VERTEX
8
CUT
10
57.6099
20
165.8974
0
VERTEX
8
CUT
10
57.7918
20
166.9880
0
VERTEX
8
CUT
10
57.9903
20
167.1961
0
VERTEX
8
CUT
10
58.3736
20
167.1819
0
VERTEX
8
CUT
10
58.9476
20
166.2669
0
VERTEX
8
CUT
10
59.9455
20
162.9140
0
VERTEX
8
CUT
10
60.8190
20
160.9274
0
VERTEX
8
CUT
10
62.1624
20
158.9026
0
VERTEX
8
CUT
10
62.6884
20
158.3455
0
VERTEX
8
CUT
10
63.2191
20
157.6713
0
VERTEX
8
CUT
10
64.8023
20
156.0278
0
VERTEX
8
CUT
10
65.1512
20
155.7371
0
VERTEX
8
CUT
10
65.1698
20
155.7173
0
VERTEX
8
CUT
10
65.4957
20
155.4500
0
VERTEX
8
CUT
10
66.5679
20
154.5564
0
VERTEX
8
CUT
10
66.6576
20
154.4968
0
VERTEX
8
CUT
10
67.5231
20
153.7867
0
VERTEX
8
CUT
10
75.6453
20
148.4413
0
VERTEX
8
CUT
10
77.8652
20
146.5408
0
VERTEX
8
CUT
10
79.2472
20
145.2936
0
VERTEX
8
CUT
10
80.4200
20
143.9557
0
VERTEX
8
CUT
10
80.9506
20
143.2901
0
VERTEX
8
CUT
10
82.3857
20
141.1108
0
VERTEX
8
CUT
10
82.4328
20
141.0367
0
VERTEX
8
CUT
10
84.1605
20
137.6102
0
VERTEX
8
CUT
10
85.3261
20
134.6219
0
VERTEX
8
CUT
10
85.6013
20
134.4308
0
VERTEX
8
CUT
10
85.9231
20
134.5242
0
VERTEX
8
CUT
10
86.0219
20
135.7041
0
VERTEX
8
CUT
10
85.7221
20
139.8136
0
VERTEX
8
CUT
10
85.2739
20
142.5711
0
VERTEX
8
CUT
10
84.6180
20
145.0824
0
VERTEX
8
CUT
10
83.7232
20
147.3861
0
VERTEX
8
CUT
10
82.5356
20
149.6387
0
VERTEX
8
CUT
10
81.0409
20
151.7883
0
VERTEX
8
CUT
10
79.1812
20
154.0063
0
VERTEX
8
CUT
10
72.7834
20
160.6165
0
VERTEX
8
CUT
10
71.0005
20
162.8526
0
VERTEX
8
CUT
10
69.6293
20
165.0439
0
VERTEX
8
CUT
10
67.8923
20
168.9084
0
VERTEX
8
CUT
10
67.1883
20
171.4113
0
VERTEX
8
CUT
10
66.8486
20
174.0296
0
VERTEX
8
CUT
10
66.8183
20
176.9311
0
VERTEX
8
CUT
10
66.9732
20
178.8758
0
VERTEX
8
CUT
10
67.5342
20
181.6560
0
VERTEX
8
CUT
10
68.6757
20
184.3468
0
VERTEX
8
CUT
10
68.6847
20
184.3648
0
VERTEX
8
CUT
10
68.6899
20
184.3752
0
VERTEX
8
CUT
10
68.6911
20
184.3776
0
VERTEX
8
CUT
10
68.6916
20
184.3785
0
VERTEX
8
CUT
10
70.2621
20
186.9500
0
VERTEX
8
CUT
10
71.7539
20
188.7342
0
VERTEX
8
CUT
10
71.7685
20
188.7383
0
VERTEX
8
CUT
10
71.9376
20
188.9539
0
VERTEX
8
CUT
10
74.7463
20
192.3132
0
VERTEX
8
CUT
10
76.1427
20
194.2536
0
VERTEX
8
CUT
10
76.6436
20
194.5584
0
VERTEX
8
CUT
10
76.9831
20
194.4405
0
VERTEX
8
CUT
10
77.1407
20
193.9583
0
VERTEX
8
CUT
10
76.9450
20
192.7351
0
VERTEX
8
CUT
10
74.2326
20
186.0163
0
VERTEX
8
CUT
10
73.3684
20
182.8699
0
VERTEX
8
CUT
10
73.2966
20
180.2437
0
VERTEX
8
CUT
10
73.2783
20
180.0299
0
VERTEX
8
CUT
10
73.2889
20
179.9613
0
VERTEX
8
CUT
10
73.2778
20
179.5576
0
VERTEX
8
CUT
10
73.8772
20
176.1596
0
VERTEX
8
CUT
10
74.6562
20
173.9201
0
VERTEX
8
CUT
10
76.4491
20
170.6987
0
VERTEX
8
CUT
10
78.2525
20
168.5049
0
VERTEX
8
CUT
10
78.7130
20
167.8142
0
VERTEX
8
CUT
10
79.8212
20
166.6732
0
VERTEX
8
CUT
10
85.0658
20
160.9458
0
VERTEX
8
CUT
10
85.4161
20
160.4934
0
VERTEX
8
CUT
10
87.6370
20
157.5233
0
VERTEX
8
CUT
10
88.6538
20
155.8595
0
VERTEX
8
CUT
10
89.0723
20
155.0653
0
VERTEX
8
CUT
10
89.4649
20
154.1374
0
VERTEX
8
CUT
10
89.6395
20
153.7247
0
VERTEX
8
CUT
10
89.6478
20
153.7051
0
VERTEX
8
CUT
10
90.3159
20
152.1261
0
VERTEX
8
CUT
10
90.7299
20
151.0435
0
VERTEX
8
CUT
10
91.1701
20
149.4065
0
VERTEX
8
CUT
10
91.7220
20
147.1502
0
VERTEX
8
CUT
10
91.7819
20
146.7853
0
VERTEX
8
CUT
10
91.7832
20
146.7775
0
VERTEX
8
CUT
10
91.8652
20
146.2779
0
VERTEX
8
CUT
10
91.9457
20
145.7875
0
VERTEX
8
CUT
10
92.2347
20
142.8496
0
VERTEX
8
CUT
10
92.4805
20
142.5720
0
VERTEX
8
CUT
10
92.8474
20
142.6261
0
VERTEX
8
CUT
10
92.9818
20
143.2303
0
VERTEX
8
CUT
10
93.0549
20
143.2668
0
VERTEX
8
CUT
10
93.1410
20
143.9459
0
VERTEX
8
CUT
10
93.1465
20
143.9707
0
VERTEX
8
CUT
10
93.1485
20
144.0047
0
VERTEX
8
CUT
10
93.3267
20
145.4106
0
VERTEX
8
CUT
10
93.2674
20
146.0857
0
VERTEX
8
CUT
10
93.2980
20
146.6207
0
VERTEX
8
CUT
10
93.1793
20
150.9050
0
VERTEX
8
CUT
10
92.4334
20
154.9127
0
VERTEX
8
CUT
10
91.5046
20
157.5230
0
VERTEX
8
CUT
10
89.7392
20
161.1757
0
VERTEX
8
CUT
10
88.2917
20
163.3789
0
VERTEX
8
CUT
10
85.3858
20
166.9435
0
VERTEX
8
CUT
10
82.4431
20
170.1604
0
VERTEX
8
CUT
10
79.9485
20
173.4796
0
VERTEX
8
CUT
10
78.4066
20
176.4415
0
VERTEX
8
CUT
10
77.7180
20
179.4972
0
VERTEX
8
CUT
10
77.7480
20
182.9116
0
VERTEX
8
CUT
10
78.0780
20
184.5506
0
VERTEX
8
CUT
10
78.1051
20
184.6570
0
VERTEX
8
CUT
10
78.1144
20
184.6935
0
VERTEX
8
CUT
10
78.1254
20
184.7365
0
VERTEX
8
CUT
10
78.1442
20
184.8104
0
VERTEX
8
CUT
10
78.6275
20
186.1644
0
VERTEX
8
CUT
10
78.7366
20
186.3735
0
VERTEX
8
CUT
10
79.0188
20
186.9145
0
VERTEX
8
CUT
10
79.2208
20
187.3017
0
VERTEX
8
CUT
10
79.7667
20
188.3480
0
VERTEX
8
CUT
10
82.1447
20
191.3481
0
VERTEX
8
CUT
10
87.8863
20
196.0017
0
VERTEX
8
CUT
10
89.9242
20
197.8910
0
VERTEX
8
CUT
10
91.1620
20
199.7072
0
VERTEX
8
CUT
10
91.6737
20
200.9669
0
VERTEX
8
CUT
10
91.9384
20
202.3179
0
VERTEX
8
CUT
10
91.9423
20
202.5027
0
VERTEX
8
CUT
10
91.9977
20
203.4979
0
VERTEX
8
CUT
10
91.9670
20
203.6849
0
VERTEX
8
CUT
10
91.9680
20
203.7314
0
VERTEX
8
CUT
10
91.9262
20
203.9329
0
VERTEX
8
CUT
10
91.6151
20
205.8256
0
VERTEX
8
CUT
10
91.4700
20
206.1353
0
VERTEX
8
CUT
10
91.3865
20
206.5384
0
VERTEX
8
CUT
10
90.6538
20
207.8778
0
VERTEX
8
CUT
10
90.5678
20
208.0614
0
VERTEX
8
CUT
10
90.5277
20
208.1084
0
VERTEX
8
CUT
10
89.9799
20
209.1097
0
VERTEX
8
CUT
10
87.8928
20
211.4872
0
VERTEX
8
CUT
10
87.8274
20
211.9337
0
VERTEX
8
CUT
10
88.3827
20
212.3161
0
VERTEX
8
CUT
10
89.7426
20
212.0892
0
VERTEX
8
CUT
10
90.9585
20
211.7609
0
VERTEX
8
CUT
10
93.0042
20
210.6623
0
VERTEX
8
CUT
10
95.2744
20
208.7053
0
VERTEX
8
CUT
10
97.2043
20
206.2311
0
VERTEX
8
CUT
10
97.9641
20
204.8383
0
VERTEX
8
CUT
10
99.0928
20
201.5506
0
VERTEX
8
CUT
10
99.1474
20
201.1787
0
VERTEX
8
CUT
10
99.3298
20
199.1174
0
VERTEX
8
CUT
10
99.3323
20
197.1586
0
VERTEX
8
CUT
10
99.2431
20
196.2769
0
VERTEX
8
CUT
10
98.2247
20
192.7208
0
VERTEX
8
CUT
10
94.4797
20
185.2611
0
VERTEX
8
CUT
10
94.3246
20
184.8877
0
VERTEX
8
CUT
10
94.1006
20
184.4739
0
VERTEX
8
CUT
10
93.9386
20
183.9583
0
VERTEX
8
CUT
10
93.2807
20
182.3744
0
VERTEX
8
CUT
10
92.7531
20
179.9694
0
VERTEX
8
CUT
10
92.6013
20
178.2074
0
VERTEX
8
CUT
10
93.3080
20
172.0907
0
VERTEX
8
CUT
10
92.9561
20
171.8030
0
VERTEX
8
CUT
10
92.3829
20
172.0077
0
VERTEX
8
CUT
10
90.9996
20
173.3774
0
VERTEX
8
CUT
10
89.4852
20
175.5413
0
VERTEX
8
CUT
10
88.2633
20
178.0840
0
VERTEX
8
CUT
10
87.3818
20
181.6730
0
VERTEX
8
CUT
10
87.3802
20
181.6966
0
VERTEX
8
CUT
10
87.4138
20
184.0969
0
VERTEX
8
CUT
10
88.1234
20
187.7090
0
VERTEX
8
CUT
10
88.0240
20
187.8586
0
VERTEX
8
CUT
10
87.8918
20
188.4666
0
VERTEX
8
CUT
10
87.4709
20
188.0049
0
VERTEX
8
CUT
10
87.4289
20
187.9914
0
VERTEX
8
CUT
10
87.3573
20
187.8803
0
VERTEX
8
CUT
10
86.9558
20
187.4400
0
VERTEX
8
CUT
10
86.0500
20
185.7794
0
VERTEX
8
CUT
10
86.0901
20
185.7126
0
VERTEX
8
CUT
10
85.1857
20
183.6931
0
VERTEX
8
CUT
10
84.6930
20
181.7802
0
VERTEX
8
CUT
10
84.4519
20
179.7902
0
VERTEX
8
CUT
10
84.5122
20
177.7122
0
VERTEX
8
CUT
10
84.8425
20
175.7184
0
VERTEX
8
CUT
10
85.4246
20
173.7396
0
VERTEX
8
CUT
10
86.3387
20
171.6959
0
VERTEX
8
CUT
10
87.0969
20
170.5010
0
VERTEX
8
CUT
10
87.1370
20
170.3807
0
VERTEX
8
CUT
10
87.9522
20
169.0521
0
VERTEX
8
CUT
10
88.2199
20
168.7311
0
VERTEX
8
CUT
10
88.2507
20
168.6826
0
VERTEX
8
CUT
10
88.5414
20
168.3456
0
VERTEX
8
CUT
10
95.2289
20
160.3262
0
VERTEX
8
CUT
10
97.6074
20
156.2972
0
VERTEX
8
CUT
10
97.7068
20
156.0542
0
VERTEX
8
CUT
10
98.7182
20
153.3897
0
VERTEX
8
CUT
10
99.4102
20
150.5994
0
VERTEX
8
CUT
10
99.6170
20
149.3403
0
VERTEX
8
CUT
10
99.6952
20
148.5982
0
VERTEX
8
CUT
10
99.6052
20
141.9911
0
VERTEX
8
CUT
10
98.9378
20
137.7647
0
VERTEX
8
CUT
10
97.7828
20
132.8737
0
VERTEX
8
CUT
10
96.8577
20
129.0874
0
VERTEX
8
CUT
10
96.8293
20
128.7465
0
VERTEX
8
CUT
10
96.5548
20
126.5648
0
VERTEX
8
CUT
10
96.6427
20
122.5185
0
VERTEX
8
CUT
10
97.6216
20
118.8771
0
VERTEX
8
CUT
10
97.6921
20
118.7386
0
VERTEX
8
CUT
10
97.7047
20
118.6289
0
VERTEX
8
CUT
10
99.0333
20
116.0926
0
VERTEX
8
CUT
10
99.7881
20
114.9453
0
VERTEX
8
CUT
10
101.7809
20
112.6506
0
VERTEX
8
CUT
10
102.8839
20
111.7136
0
VERTEX
8
CUT
10
104.5551
20
110.2276
0
VERTEX
8
CUT
10
104.6582
20
110.2408
0
VERTEX
8
CUT
10
105.1022
20
110.0841
0
VERTEX
8
CUT
10
105.3135
20
110.3558
0
VERTEX
8
CUT
10
105.0227
20
110.8466
0
VERTEX
8
CUT
10
103.3957
20
114.9330
0
VERTEX
8
CUT
10
102.7233
20
117.8289
0
VERTEX
8
CUT
10
102.4921
20
120.7919
0
VERTEX
8
CUT
10
102.5581
20
124.0201
0
VERTEX
8
CUT
10
102.9926
20
126.9337
0
VERTEX
8
CUT
10
103.5144
20
128.8708
0
VERTEX
8
CUT
10
106.6990
20
137.6425
0
VERTEX
8
CUT
10
106.8957
20
138.1397
0
VERTEX
8
CUT
10
106.9885
20
138.4399
0
VERTEX
8
CUT
10
107.6807
20
140.3465
0
VERTEX
8
CUT
10
108.3930
20
144.1736
0
VERTEX
8
CUT
10
108.4558
20
148.3449
0
VERTEX
8
CUT
10
108.0956
20
151.0222
0
VERTEX
8
CUT
10
107.3467
20
153.8350
0
VERTEX
8
CUT
10
103.1251
20
164.4722
0
VERTEX
8
CUT
10
102.5225
20
166.6134
0
VERTEX
8
CUT
10
102.3336
20
167.4850
0
VERTEX
8
CUT
10
102.2078
20
169.1332
0
VERTEX
8
CUT
10
102.1824
20
169.4655
0
VERTEX
8
CUT
10
102.1311
20
170.1374
0
VERTEX
8
CUT
10
102.0968
20
170.5865
0
VERTEX
8
CUT
10
102.1134
20
171.9442
0
VERTEX
8
CUT
10
102.1282
20
172.1327
0
VERTEX
8
CUT
10
102.1303
20
172.1601
0
VERTEX
8
CUT
10
102.1305
20
172.1622
0
VERTEX
8
CUT
10
102.1305
20
172.1624
0
VERTEX
8
CUT
10
102.3104
20
173.6156
0
VERTEX
8
CUT
10
102.5572
20
174.8120
0
VERTEX
8
CUT
10
103.3426
20
177.2594
0
VERTEX
8
CUT
10
104.0950
20
178.9447
0
VERTEX
8
CUT
10
104.0984
20
178.9524
0
VERTEX
8
CUT
10
104.1886
20
179.1545
0
VERTEX
8
CUT
10
104.4239
20
179.6815
0
VERTEX
8
CUT
10
104.7296
20
180.2373
0
VERTEX
8
CUT
10
105.9821
20
181.8534
0
VERTEX
8
CUT
10
106.8887
20
182.6800
0
VERTEX
8
CUT
10
107.5708
20
182.7847
0
VERTEX
8
CUT
10
107.7877
20
182.1048
0
VERTEX
8
CUT
10
106.6374
20
177.1289
0
VERTEX
8
CUT
10
106.4910
20
175.2739
0
VERTEX
8
CUT
10
106.8531
20
171.4271
0
VERTEX
8
CUT
10
108.0725
20
167.2057
0
VERTEX
8
CUT
10
111.1525
20
159.7747
0
VERTEX
8
CUT
10
112.3958
20
155.9871
0
VERTEX
8
CUT
10
112.7690
20
154.2461
0
VERTEX
8
CUT
10
113.1019
20
150.8435
0
VERTEX
8
CUT
10
113.1011
20
147.3857
0
VERTEX
8
CUT
10
112.6445
20
143.2241
0
VERTEX
8
CUT
10
111.5253
20
138.6256
0
VERTEX
8
CUT
10
108.8130
20
129.4973
0
VERTEX
8
CUT
10
108.7798
20
129.1652
0
VERTEX
8
CUT
10
108.6952
20
128.7739
0
VERTEX
8
CUT
10
108.7858
20
128.3210
0
VERTEX
8
CUT
10
109.2387
20
128.4418
0
VERTEX
8
CUT
10
109.6916
20
129.1362
0
VERTEX
8
CUT
10
109.9669
20
129.8350
0
VERTEX
8
CUT
10
110.2022
20
130.2336
0
VERTEX
8
CUT
10
112.2153
20
134.0790
0
VERTEX
8
CUT
10
112.9201
20
135.3980
0
VERTEX
8
CUT
10
113.0908
20
135.7515
0
VERTEX
8
CUT
10
114.9075
20
139.2217
0
VERTEX
8
CUT
10
116.3743
20
143.1445
0
VERTEX
8
CUT
10
117.2110
20
146.1905
0
VERTEX
8
CUT
10
117.5138
20
148.5988
0
VERTEX
8
CUT
10
117.5138
20
149.9492
0
VERTEX
8
CUT
10
117.5732
20
150.4834
0
VERTEX
8
CUT
10
117.6032
20
153.2062
0
VERTEX
8
CUT
10
117.5138
20
153.5826
0
VERTEX
8
CUT
10
117.5138
20
155.5981
0
VERTEX
8
CUT
10
117.3029
20
157.9779
0
VERTEX
8
CUT
10
116.3356
20
162.6445
0
VERTEX
8
CUT
10
116.2772
20
163.4283
0
VERTEX
8
CUT
10
116.4186
20
163.6821
0
VERTEX
8
CUT
10
116.7497
20
163.6583
0
VERTEX
8
CUT
10
117.1683
20
163.3179
0
VERTEX
8
CUT
10
118.5726
20
161.1491
0
VERTEX
8
CUT
10
120.3328
20
157.6276
0
VERTEX
8
CUT
10
121.5226
20
154.2940
0
VERTEX
8
CUT
10
121.8481
20
152.1546
0
VERTEX
8
CUT
10
121.9211
20
151.4222
0
VERTEX
8
CUT
10
121.9371
20
151.2613
0
VERTEX
8
CUT
10
121.9667
20
150.9644
0
VERTEX
8
CUT
10
121.9781
20
150.8495
0
VERTEX
8
CUT
10
122.0496
20
149.3410
0
VERTEX
8
CUT
10
122.0496
20
149.3408
0
VERTEX
8
CUT
10
122.0495
20
149.3364
0
VERTEX
8
CUT
10
122.0460
20
149.2145
0
VERTEX
8
CUT
10
121.9406
20
145.5415
0
VERTEX
8
CUT
10
121.9153
20
145.1029
0
VERTEX
8
CUT
10
121.2832
20
141.7790
0
VERTEX
8
CUT
10
121.0284
20
140.5786
0
VERTEX
8
CUT
10
120.2703
20
138.1099
0
VERTEX
8
CUT
10
119.0892
20
135.2946
0
VERTEX
8
CUT
10
112.8208
20
122.6704
0
VERTEX
8
CUT
10
112.0157
20
120.0274
0
VERTEX
8
CUT
10
111.6840
20
117.6194
0
VERTEX
8
CUT
10
111.7141
20
115.2681
0
VERTEX
8
CUT
10
112.1302
20
113.0369
0
VERTEX
8
CUT
10
112.8744
20
110.8944
0
VERTEX
8
CUT
10
113.9613
20
108.8941
0
VERTEX
8
CUT
10
115.4063
20
106.9624
0
VERTEX
8
CUT
10
117.1768
20
105.2199
0
VERTEX
8
CUT
10
119.7360
20
103.2651
0
VERTEX
8
CUT
10
119.9171
20
102.6292
0
VERTEX
8
CUT
10
119.5345
20
102.3231
0
VERTEX
8
CUT
10
115.3879
20
102.2356
0
VERTEX
8
CUT
10
115.1883
20
102.2509
0
VERTEX
8
CUT
10
113.4414
20
102.4841
0
VERTEX
8
CUT
10
109.5178
20
103.6065
0
VERTEX
8
CUT
10
109.2253
20
103.3811
0
VERTEX
8
CUT
10
109.0575
20
103.3811
0
VERTEX
8
CUT
10
109.0956
20
103.2812
0
VERTEX
8
CUT
10
109.0746
20
103.2650
0
VERTEX
8
CUT
10
109.1670
20
103.0937
0
VERTEX
8
CUT
10
109.2991
20
102.7471
0
VERTEX
8
CUT
10
109.4560
20
102.5577
0
VERTEX
8
CUT
10
109.5376
20
102.4063
0
VERTEX
8
CUT
10
111.0088
20
100.6704
0
VERTEX
8
CUT
10
112.2103
20
99.6491
0
VERTEX
8
CUT
10
112.4056
20
99.4516
0
VERTEX
8
CUT
10
112.5818
20
99.3333
0
VERTEX
8
CUT
10
113.9583
20
98.1632
0
VERTEX
8
CUT
10
114.5924
20
97.8255
0
VERTEX
8
CUT
10
116.9984
20
96.4668
0
VERTEX
8
CUT
10
117.7869
20
96.1240
0
VERTEX
8
CUT
10
118.0959
20
95.9594
0
VERTEX
8
CUT
10
118.3159
20
95.8940
0
VERTEX
8
CUT
10
119.0818
20
95.5610
0
VERTEX
8
CUT
10
120.0178
20
95.3496
0
VERTEX
8
CUT
10
120.0281
20
95.3738
0
VERTEX
8
CUT
10
120.3390
20
95.2924
0
VERTEX
8
CUT
10
122.7910
20
94.5632
0
VERTEX
8
CUT
10
125.4043
20
94.1410
0
VERTEX
8
CUT
10
131.0200
20
93.8394
0
VERTEX
8
CUT
10
132.1807
20
93.9302
0
VERTEX
8
CUT
10
132.2462
20
93.8702
0
VERTEX
8
CUT
10
135.8090
20
94.1117
0
VERTEX
8
CUT
10
140.1569
20
94.8967
0
VERTEX
8
CUT
10
143.8405
20
96.1045
0
VERTEX
8
CUT
10
144.3996
20
96.3993
0
VERTEX
8
CUT
10
144.4281
20
96.4091
0
VERTEX
8
CUT
10
144.6206
20
96.5158
0
VERTEX
8
CUT
10
147.1618
20
97.8557
0
VERTEX
8
CUT
10
147.5179
20
98.1219
0
VERTEX
8
CUT
10
147.7563
20
98.2541
0
VERTEX
8
CUT
10
148.2762
20
98.6889
0
VERTEX
8
CUT
10
150.3925
20
100.2712
0
VERTEX
8
CUT
10
151.2001
20
101.1342
0
VERTEX
8
CUT
10
151.5569
20
101.4326
0
VERTEX
8
CUT
10
152.9482
20
103.0023
0
VERTEX
8
CUT
10
153.4723
20
103.5623
0
VERTEX
8
CUT
10
153.5890
20
103.7252
0
VERTEX
8
CUT
10
153.6823
20
103.8304
0
VERTEX
8
CUT
10
155.5785
20
106.4673
0
VERTEX
8
CUT
10
155.6761
20
106.6380
0
VERTEX
8
CUT
10
156.2199
20
107.3969
0
VERTEX
8
CUT
10
156.8237
20
108.6046
0
VERTEX
8
CUT
10
156.8381
20
108.6686
0
VERTEX
8
CUT
10
157.2646
20
109.4138
0
VERTEX
8
CUT
10
158.7358
20
112.5037
0
VERTEX
8
CUT
10
159.9191
20
115.7502
0
VERTEX
8
CUT
10
160.7880
20
119.0830
0
VERTEX
8
CUT
10
161.5042
20
124.0365
0
VERTEX
8
CUT
10
161.5072
20
125.8657
0
VERTEX
8
CUT
10
161.2041
20
127.8704
0
VERTEX
8
CUT
10
160.7230
20
129.8182
0
VERTEX
8
CUT
10
159.4294
20
133.0547
0
VERTEX
8
CUT
10
158.4246
20
134.3863
0
VERTEX
8
CUT
10
157.9372
20
135.1517
0
VERTEX
8
CUT
10
157.5347
20
135.5656
0
VERTEX
8
CUT
10
157.4815
20
135.6361
0
VERTEX
8
CUT
10
157.4219
20
135.6816
0
VERTEX
8
CUT
10
156.7772
20
136.3448
0
VERTEX
8
CUT
10
155.7673
20
137.0546
0
VERTEX
8
CUT
10
155.2901
20
137.3103
0
VERTEX
8
CUT
10
154.7415
20
137.7294
0
VERTEX
8
CUT
10
149.9810
20
140.3628
0
VERTEX
8
CUT
10
149.0370
20
141.2454
0
VERTEX
8
CUT
10
146.0810
20
144.8432
0
VERTEX
8
CUT
10
145.8675
20
145.3214
0
VERTEX
8
CUT
10
145.9633
20
145.5946
0
VERTEX
8
CUT
10
149.3900
20
147.2300
0
VERTEX
8
CUT
10
149.9178
20
147.6993
0
VERTEX
8
CUT
10
150.0286
20
148.3074
0
VERTEX
8
CUT
10
149.6481
20
148.9062
0
VERTEX
8
CUT
10
148.2157
20
150.0514
0
VERTEX
8
CUT
10
145.0801
20
151.4707
0
VERTEX
8
CUT
10
144.4171
20
152.0055
0
VERTEX
8
CUT
10
144.7192
20
152.4384
0
VERTEX
8
CUT
10
146.2768
20
153.4755
0
VERTEX
8
CUT
10
151.8114
20
156.3184
0
VERTEX
8
CUT
10
156.5732
20
158.3200
0
VERTEX
8
CUT
10
162.6439
20
160.4040
0
VERTEX
8
CUT
10
168.1886
20
161.7079
0
VERTEX
8
CUT
10
169.2973
20
161.8518
0
VERTEX
8
CUT
10
172.5775
20
162.0757
0
VERTEX
8
CUT
10
177.2239
20
161.9874
0
VERTEX
8
CUT
10
179.0996
20
161.7727
0
VERTEX
8
CUT
10
182.2057
20
161.0132
0
VERTEX
8
CUT
10
184.7737
20
159.9768
0
VERTEX
8
CUT
10
184.9408
20
159.9041
0
VERTEX
8
CUT
10
186.8518
20
158.6174
0
VERTEX
8
CUT
10
187.5358
20
158.0940
0
VERTEX
8
CUT
10
187.6276
20
157.9916
0
VERTEX
8
CUT
10
187.8208
20
157.6035
0
VERTEX
8
CUT
10
187.7793
20
157.3509
0
VERTEX
8
CUT
10
187.2542
20
157.1296
0
VERTEX
8
CUT
10
186.6962
20
157.1633
0
VERTEX
8
CUT
10
181.4864
20
158.7602
0
VERTEX
8
CUT
10
177.5639
20
159.3305
0
VERTEX
8
CUT
10
172.9630
20
159.3921
0
VERTEX
8
CUT
10
169.9971
20
159.1234
0
VERTEX
8
CUT
10
167.1893
20
158.5795
0
VERTEX
8
CUT
10
164.4691
20
157.7115
0
VERTEX
8
CUT
10
155.6009
20
153.9544
0
VERTEX
8
CUT
10
154.6496
20
153.3461
0
VERTEX
8
CUT
10
154.5195
20
152.9344
0
VERTEX
8
CUT
10
155.4074
20
152.1945
0
VERTEX
8
CUT
10
155.9273
20
152.1674
0
VERTEX
8
CUT
10
156.5084
20
152.4946
0
VERTEX
8
CUT
10
156.5132
20
152.4951
0
VERTEX
8
CUT
10
156.8448
20
152.6841
0
VERTEX
8
CUT
10
160.9885
20
155.0172
0
VERTEX
8
CUT
10
162.5016
20
155.7656
0
VERTEX
8
CUT
10
162.9549
20
155.9898
0
VERTEX
8
CUT
10
163.2423
20
156.1319
0
VERTEX
8
CUT
10
163.4597
20
156.2395
0
VERTEX
8
CUT
10
163.8902
20
156.4398
0
VERTEX
8
CUT
10
167.2053
20
157.6269
0
VERTEX
8
CUT
10
169.4303
20
158.1157
0
VERTEX
8
CUT
10
175.2594
20
158.3915
0
VERTEX
8
CUT
10
176.9228
20
158.2426
0
VERTEX
8
CUT
10
177.3329
20
158.1916
0
VERTEX
8
CUT
10
177.3531
20
158.1891
0
VERTEX
8
CUT
10
178.0689
20
158.1003
0
VERTEX
8
CUT
10
178.2762
20
158.0745
0
VERTEX
8
CUT
10
180.2417
20
157.5590
0
VERTEX
8
CUT
10
181.1170
20
157.2650
0
VERTEX
8
CUT
10
183.6801
20
156.0185
0
VERTEX
8
CUT
10
185.7428
20
154.2283
0
VERTEX
8
CUT
10
186.8760
20
152.1406
0
VERTEX
8
CUT
10
186.9820
20
151.4111
0
VERTEX
8
CUT
10
186.9820
20
151.3511
0
VERTEX
8
CUT
10
186.9821
20
151.2926
0
VERTEX
8
CUT
10
186.9822
20
151.2346
0
VERTEX
8
CUT
10
186.9827
20
150.7803
0
VERTEX
8
CUT
10
186.9134
20
150.5637
0
VERTEX
8
CUT
10
186.4454
20
149.7074
0
VERTEX
8
CUT
10
186.2550
20
149.4594
0
VERTEX
8
CUT
10
185.8735
20
149.0603
0
VERTEX
8
CUT
10
183.6315
20
146.7390
0
VERTEX
8
CUT
10
183.5419
20
146.6208
0
VERTEX
8
CUT
10
182.8422
20
145.8888
0
VERTEX
8
CUT
10
182.4124
20
145.1303
0
VERTEX
8
CUT
10
182.1156
20
144.7387
0
VERTEX
8
CUT
10
181.9255
20
144.2711
0
VERTEX
8
CUT
10
181.7202
20
143.9088
0
VERTEX
8
CUT
10
181.6544
20
143.6045
0
VERTEX
8
CUT
10
181.3933
20
142.9624
0
VERTEX
8
CUT
10
181.4029
20
142.4406
0
VERTEX
8
CUT
10
181.3257
20
142.0836
0
VERTEX
8
CUT
10
181.4156
20
141.7475
0
VERTEX
8
CUT
10
181.4196
20
141.5290
0
VERTEX
8
CUT
10
181.5997
20
141.0587
0
VERTEX
8
CUT
10
181.6938
20
140.7067
0
VERTEX
8
CUT
10
181.7032
20
140.6098
0
VERTEX
8
CUT
10
181.7225
20
140.5994
0
VERTEX
8
CUT
10
181.7601
20
140.4589
0
VERTEX
8
CUT
10
182.9456
20
139.1045
0
VERTEX
8
CUT
10
184.9685
20
137.9522
0
VERTEX
8
CUT
10
187.7270
20
137.0962
0
VERTEX
8
CUT
10
188.4406
20
136.9883
0
VERTEX
8
CUT
10
188.5842
20
136.9485
0
VERTEX
8
CUT
10
189.1443
20
136.8818
0
VERTEX
8
CUT
10
191.3509
20
136.5479
0
VERTEX
8
CUT
10
191.4256
20
136.4733
0
VERTEX
8
CUT
10
191.8443
20
136.4733
0
VERTEX
8
CUT
10
194.5033
20
136.0710
0
VERTEX
8
CUT
10
194.9374
20
135.9124
0
VERTEX
8
CUT
10
195.1359
20
135.5914
0
VERTEX
8
CUT
10
194.6873
20
134.7895
0
VERTEX
8
CUT
10
193.0295
20
133.3756
0
VERTEX
8
CUT
10
184.8144
20
127.0403
0
VERTEX
8
CUT
10
181.7982
20
124.7408
0
VERTEX
8
CUT
10
181.1023
20
124.1776
0
VERTEX
8
CUT
10
177.3333
20
121.2711
0
VERTEX
8
CUT
10
176.8648
20
120.8397
0
VERTEX
8
CUT
10
173.6352
20
117.9322
0
VERTEX
8
CUT
10
172.1115
20
116.0914
0
VERTEX
8
CUT
10
170.8438
20
114.5982
0
VERTEX
8
CUT
10
169.4222
20
112.3304
0
VERTEX
8
CUT
10
168.9676
20
111.6487
0
VERTEX
8
CUT
10
168.8493
20
111.4165
0
VERTEX
8
CUT
10
167.9645
20
110.0051
0
VERTEX
8
CUT
10
166.7673
20
107.3363
0
VERTEX
8
CUT
10
166.3179
20
105.5784
0
VERTEX
8
CUT
10
166.5679
20
105.2625
0
VERTEX
8
CUT
10
166.9639
20
105.3370
0
VERTEX
8
CUT
10
168.5543
20
107.5557
0
VERTEX
8
CUT
10
169.7640
20
108.6958
0
VERTEX
8
CUT
10
170.4521
20
108.6970
0
VERTEX
8
CUT
10
171.0203
20
107.8001
0
VERTEX
8
CUT
10
171.4410
20
107.7086
0
VERTEX
8
CUT
10
174.7635
20
110.5602
0
VERTEX
8
CUT
10
175.2718
20
110.8278
0
VERTEX
8
CUT
10
175.5675
20
110.8170
0
VERTEX
8
CUT
10
175.7814
20
110.5323
0
VERTEX
8
CUT
10
175.6167
20
109.3113
0
VERTEX
8
CUT
10
174.9814
20
107.7362
0
VERTEX
8
CUT
10
174.1137
20
106.1292
0
VERTEX
8
CUT
10
171.9227
20
103.6113
0
VERTEX
8
CUT
10
161.2795
20
94.5878
0
VERTEX
8
CUT
10
158.0893
20
92.4589
0
VERTEX
8
CUT
10
157.2957
20
92.0317
0
VERTEX
8
CUT
10
156.1566
20
91.4624
0
VERTEX
8
CUT
10
153.4101
20
90.3590
0
VERTEX
8
CUT
10
152.3782
20
90.0229
0
VERTEX
8
CUT
10
150.6920
20
89.5297
0
VERTEX
8
CUT
10
150.0033
20
89.3874
0
VERTEX
8
CUT
10
149.8902
20
89.3702
0
VERTEX
8
CUT
10
147.0993
20
89.1034
0
VERTEX
8
CUT
10
143.7591
20
88.9644
0
VERTEX
8
CUT
10
143.3870
20
88.9614
0
VERTEX
8
CUT
10
143.0968
20
88.9591
0
VERTEX
8
CUT
10
142.7279
20
88.9562
0
VERTEX
8
CUT
10
141.4526
20
88.9459
0
VERTEX
8
CUT
10
129.7054
20
88.9201
0
VERTEX
8
CUT
10
123.0750
20
89.0907
0
VERTEX
8
CUT
10
122.7613
20
89.1279
0
VERTEX
8
CUT
10
122.6519
20
89.1408
0
VERTEX
8
CUT
10
122.0009
20
89.2180
0
VERTEX
8
CUT
10
121.9661
20
89.2222
0
VERTEX
8
CUT
10
120.5033
20
89.4716
0
VERTEX
8
CUT
10
116.0720
20
90.7177
0
VERTEX
8
CUT
10
111.6398
20
92.5713
0
VERTEX
8
CUT
10
107.5424
20
94.9405
0
VERTEX
8
CUT
10
101.9876
20
99.0151
0
VERTEX
8
CUT
10
101.9443
20
99.0410
0
VERTEX
8
CUT
10
101.0639
20
99.6897
0
VERTEX
8
CUT
10
100.4562
20
99.6599
0
VERTEX
8
CUT
10
100.2104
20
99.7271
0
VERTEX
8
CUT
10
96.7423
20
99.5848
0
VERTEX
8
CUT
10
95.4925
20
99.2133
0
VERTEX
8
CUT
10
95.0357
20
99.1282
0
VERTEX
8
CUT
10
94.6286
20
98.8793
0
VERTEX
8
CUT
10
93.4302
20
98.2434
0
VERTEX
8
CUT
10
93.1831
20
97.9956
0
VERTEX
8
CUT
10
93.1132
20
97.9529
0
VERTEX
8
CUT
10
92.8386
20
97.8132
0
VERTEX
8
CUT
10
92.4917
20
97.3462
0
VERTEX
8
CUT
10
91.9459
20
96.7886
0
VERTEX
8
CUT
10
91.9015
20
96.7104
0
VERTEX
8
CUT
10
91.5288
20
96.3366
0
VERTEX
8
CUT
10
90.7861
20
96.0690
0
VERTEX
8
CUT
10
90.6723
20
96.1734
0
VERTEX
8
CUT
10
90.5236
20
96.4714
0
VERTEX
8
CUT
10
90.4660
20
96.5870
0
VERTEX
8
CUT
10
90.4615
20
96.5959
0
VERTEX
8
CUT
10
90.4586
20
96.6018
0
VERTEX
8
CUT
10
90.4018
20
96.8277
0
VERTEX
8
CUT
10
90.4201
20
98.1021
0
VERTEX
8
CUT
10
90.4263
20
98.5292
0
VERTEX
8
CUT
10
90.4286
20
98.6927
0
VERTEX
8
CUT
10
90.4298
20
98.7716
0
VERTEX
8
CUT
10
90.4298
20
98.7731
0
VERTEX
8
CUT
10
90.6012
20
99.2951
0
VERTEX
8
CUT
10
90.6438
20
99.4247
0
VERTEX
8
CUT
10
90.7058
20
99.6135
0
VERTEX
8
CUT
10
90.8042
20
99.9134
0
VERTEX
8
CUT
10
91.3740
20
100.8749
0
VERTEX
8
CUT
10
91.9877
20
101.6156
0
VERTEX
8
CUT
10
92.2134
20
101.8498
0
VERTEX
8
CUT
10
92.2208
20
101.8574
0
VERTEX
8
CUT
10
93.1096
20
102.5715
0
VERTEX
8
CUT
10
95.4134
20
103.7230
0
VERTEX
8
CUT
10
97.0943
20
104.1442
0
VERTEX
8
CUT
10
97.2799
20
104.6690
0
VERTEX
8
CUT
10
97.0149
20
104.8776
0
VERTEX
8
CUT
10
87.2240
20
106.4048
0
VERTEX
8
CUT
10
86.2815
20
106.7501
0
VERTEX
8
CUT
10
86.1880
20
106.9607
0
VERTEX
8
CUT
10
86.1948
20
106.9997
0
VERTEX
8
CUT
10
86.1980
20
107.0185
0
VERTEX
8
CUT
10
86.1994
20
107.0263
0
VERTEX
8
CUT
10
86.2076
20
107.0735
0
VERTEX
8
CUT
10
86.3322
20
107.3704
0
VERTEX
8
CUT
10
86.6360
20
107.5672
0
VERTEX
8
CUT
10
87.3943
20
107.9543
0
VERTEX
8
CUT
10
88.4476
20
108.2649
0
VERTEX
8
CUT
10
89.6861
20
108.5572
0
VERTEX
8
CUT
10
89.7129
20
108.5608
0
VERTEX
8
CUT
10
89.8996
20
108.5827
0
VERTEX
8
CUT
10
92.4652
20
108.7556
0
VERTEX
8
CUT
10
92.7196
20
108.9752
0
VERTEX
8
CUT
10
92.7244
20
109.2759
0
VERTEX
8
CUT
10
87.4045
20
112.0104
0
VERTEX
8
CUT
10
86.0433
20
112.9425
0
VERTEX
8
CUT
10
85.0688
20
113.6404
0
VERTEX
8
CUT
10
83.8119
20
114.6880
0
VERTEX
8
CUT
10
82.9554
20
115.4754
0
VERTEX
8
CUT
10
79.8251
20
118.9026
0
VERTEX
8
CUT
10
79.7184
20
119.0354
0
VERTEX
8
CUT
10
79.7141
20
119.0407
0
VERTEX
8
CUT
10
79.7138
20
119.0411
0
VERTEX
8
CUT
10
79.6950
20
119.0646
0
VERTEX
8
CUT
10
76.9193
20
123.4083
0
VERTEX
8
CUT
10
72.8279
20
131.8936
0
VERTEX
8
CUT
10
72.4956
20
132.5884
0
VERTEX
8
CUT
10
70.1354
20
136.0107
0
VERTEX
8
CUT
10
70.2133
20
136.5115
0
VERTEX
8
CUT
10
70.8499
20
136.5862
0
VERTEX
8
CUT
10
72.1343
20
135.9665
0
VERTEX
8
CUT
10
74.5269
20
133.9938
0
VERTEX
8
CUT
10
76.1186
20
132.1125
0
VERTEX
8
CUT
10
76.5606
20
131.5804
0
VERTEX
8
CUT
10
80.3678
20
125.8705
0
VERTEX
8
CUT
10
82.5398
20
123.2728
0
VERTEX
8
CUT
10
83.0025
20
123.2854
0
VERTEX
8
CUT
10
83.1263
20
123.7315
0
VERTEX
8
CUT
10
81.9535
20
126.1276
0
VERTEX
8
CUT
10
81.8288
20
126.4203
0
VERTEX
8
CUT
10
81.7656
20
126.5687
0
VERTEX
8
CUT
10
81.4871
20
127.2224
0
VERTEX
8
CUT
10
80.5586
20
129.4019
0
VERTEX
8
CUT
10
78.2600
20
135.0362
0
VERTEX
8
CUT
10
77.7146
20
135.9374
0
VERTEX
8
CUT
10
76.8601
20
137.5296
0
VERTEX
8
CUT
10
76.0552
20
138.6794
0
VERTEX
8
CUT
10
75.8671
20
138.9903
0
VERTEX
8
CUT
10
75.6560
20
139.2497
0
VERTEX
8
CUT
10
75.5440
20
139.4096
0
VERTEX
8
CUT
10
75.3163
20
139.6671
0
VERTEX
8
CUT
10
74.4065
20
140.7852
0
VERTEX
8
CUT
10
72.7333
20
142.4574
0
VERTEX
8
CUT
10
70.8290
20
144.0094
0
SEQEND
0
POLYLINE
8
CUT
66
1
70
1
10
0.0
20
0.0
30
0.0
0
VERTEX
8
CUT
10
121.2730
20
229.9261
0
VERTEX
8
CUT
10
123.2101
20
225.9968
0
VERTEX
8
CUT
10
124.0210
20
224.8669
0
VERTEX
8
CUT
10
124.5265
20
223.9894
0
VERTEX
8
CUT
10
125.1822
20
223.2490
0
VERTEX
8
CUT
10
125.4260
20
222.9093
0
VERTEX
8
CUT
10
126.7618
20
221.3916
0
VERTEX
8
CUT
10
129.6469
20
218.6846
0
VERTEX
8
CUT
10
131.7737
20
217.1357
0
VERTEX
8
CUT
10
145.5434
20
209.5132
0
VERTEX
8
CUT
10
149.0012
20
207.2693
0
VERTEX
8
CUT
10
153.3501
20
203.1972
0
VERTEX
8
CUT
10
156.8126
20
198.7535
0
VERTEX
8
CUT
10
157.2520
20
199.0774
0
VERTEX
8
CUT
10
157.0480
20
200.0792
0
VERTEX
8
CUT
10
156.1997
20
202.2794
0
VERTEX
8
CUT
10
156.1467
20
202.4560
0
VERTEX
8
CUT
10
155.9693
20
202.8770
0
VERTEX
8
CUT
10
155.2171
20
204.8279
0
VERTEX
8
CUT
10
153.2184
20
208.2607
0
VERTEX
8
CUT
10
150.5878
20
211.6187
0
VERTEX
8
CUT
10
150.3958
20
212.0860
0
VERTEX
8
CUT
10
150.4776
20
212.4141
0
VERTEX
8
CUT
10
150.9153
20
212.5889
0
VERTEX
8
CUT
10
151.2894
20
212.4945
0
VERTEX
8
CUT
10
152.5484
20
212.0550
0
VERTEX
8
CUT
10
154.1635
20
211.2748
0
VERTEX
8
CUT
10
155.8748
20
210.2433
0
VERTEX
8
CUT
10
156.3168
20
209.9769
0
VERTEX
8
CUT
10
156.3994
20
209.9271
0
VERTEX
8
CUT
10
156.5001
20
209.8664
0
VERTEX
8
CUT
10
156.7644
20
209.6920
0
VERTEX
8
CUT
10
157.1692
20
209.3624
0
VERTEX
8
CUT
10
157.3813
20
209.1897
0
VERTEX
8
CUT
10
157.4500
20
209.1337
0
VERTEX
8
CUT
10
157.4790
20
209.1101
0
VERTEX
8
CUT
10
158.5829
20
208.1996
0
VERTEX
8
CUT
10
161.4813
20
204.8483
0
VERTEX
8
CUT
10
162.6437
20
202.9265
0
VERTEX
8
CUT
10
163.5619
20
200.9130
0
VERTEX
8
CUT
10
164.2367
20
198.8058
0
VERTEX
8
CUT
10
164.6423
20
195.5619
0
VERTEX
8
CUT
10
164.6119
20
191.7809
0
VERTEX
8
CUT
10
164.3106
20
189.4823
0
VERTEX
8
CUT
10
164.5139
20
189.1424
0
VERTEX
8
CUT
10
164.8067
20
189.1099
0
VERTEX
8
CUT
10
165.0584
20
189.3169
0
VERTEX
8
CUT
10
166.2638
20
191.7226
0
VERTEX
8
CUT
10
167.1538
20
194.4203
0
VERTEX
8
CUT
10
167.9018
20
197.8656
0
VERTEX
8
CUT
10
168.1549
20
198.1399
0
VERTEX
8
CUT
10
168.5093
20
198.1055
0
VERTEX
8
CUT
10
169.0052
20
197.3301
0
VERTEX
8
CUT
10
169.3827
20
195.7823
0
VERTEX
8
CUT
10
169.5327
20
193.8016
0
VERTEX
8
CUT
10
169.3273
20
190.7085
0
VERTEX
8
CUT
10
169.3205
20
190.6633
0
VERTEX
8
CUT
10
169.3178
20
190.6447
0
VERTEX
8
CUT
10
169.3145
20
190.6228
0
VERTEX
8
CUT
10
169.3059
20
190.5643
0
VERTEX
8
CUT
10
168.4454
20
187.3884
0
VERTEX
8
CUT
10
168.2698
20
186.9066
0
VERTEX
8
CUT
10
167.1594
20
184.5140
0
VERTEX
8
CUT
10
166.4031
20
183.3173
0
VERTEX
8
CUT
10
164.5115
20
181.0935
0
VERTEX
8
CUT
10
162.1598
20
178.9840
0
VERTEX
8
CUT
10
158.4063
20
175.6515
0
VERTEX
8
CUT
10
158.2932
20
175.5158
0
VERTEX
8
CUT
10
157.7839
20
175.0590
0
VERTEX
8
CUT
10
156.1501
20
172.9626
0
VERTEX
8
CUT
10
155.5620
20
171.7211
0
VERTEX
8
CUT
10
154.8694
20
171.2064
0
VERTEX
8
CUT
10
154.5123
20
171.4332
0
VERTEX
8
CUT
10
154.3890
20
171.8879
0
VERTEX
8
CUT
10
154.4711
20
173.3585
0
VERTEX
8
CUT
10
156.4037
20
181.0030
0
VERTEX
8
CUT
10
156.4804
20
182.8004
0
VERTEX
8
CUT
10
156.6738
20
184.5214
0
VERTEX
8
CUT
10
156.5795
20
185.1237
0
VERTEX
8
CUT
10
156.5838
20
185.2248
0
VERTEX
8
CUT
10
156.4686
20
187.2253
0
VERTEX
8
CUT
10
156.2362
20
188.1426
0
VERTEX
8
CUT
10
154.8587
20
190.8702
0
VERTEX
8
CUT
10
152.9891
20
193.3926
0
VERTEX
8
CUT
10
150.7246
20
195.6298
0
VERTEX
8
CUT
10
147.1561
20
197.9723
0
VERTEX
8
CUT
10
142.6303
20
200.1314
0
VERTEX
8
CUT
10
139.8396
20
201.0631
0
VERTEX
8
CUT
10
137.2428
20
201.5596
0
VERTEX
8
CUT
10
137.1665
20
201.5799
0
VERTEX
8
CUT
10
136.9221
20
201.6209
0
VERTEX
8
CUT
10
135.8495
20
201.8260
0
VERTEX
8
CUT
10
135.4471
20
201.6017
0
VERTEX
8
CUT
10
135.5696
20
201.1265
0
VERTEX
8
CUT
10
139.1325
20
199.2649
0
VERTEX
8
CUT
10
141.7796
20
197.3584
0
VERTEX
8
CUT
10
143.0783
20
196.1679
0
VERTEX
8
CUT
10
145.1493
20
193.6845
0
VERTEX
8
CUT
10
145.8104
20
192.5435
0
VERTEX
8
CUT
10
146.4462
20
190.9411
0
VERTEX
8
CUT
10
146.9218
20
188.7733
0
VERTEX
8
CUT
10
146.9226
20
188.7457
0
VERTEX
8
CUT
10
146.9248
20
188.6725
0
VERTEX
8
CUT
10
146.9250
20
188.6648
0
VERTEX
8
CUT
10
146.9267
20
188.6081
0
VERTEX
8
CUT
10
146.9383
20
188.2129
0
VERTEX
8
CUT
10
146.9395
20
188.1728
0
VERTEX
8
CUT
10
146.9117
20
186.4810
0
VERTEX
8
CUT
10
146.8272
20
185.3055
0
VERTEX
8
CUT
10
146.1488
20
183.0144
0
VERTEX
8
CUT
10
145.3013
20
180.8531
0
VERTEX
8
CUT
10
143.6772
20
176.9824
0
VERTEX
8
CUT
10
143.6321
20
176.5197
0
VERTEX
8
CUT
10
143.2901
20
175.0617
0
VERTEX
8
CUT
10
143.1452
20
171.9410
0
VERTEX
8
CUT
10
143.4782
20
170.5168
0
VERTEX
8
CUT
10
143.4789
20
170.4711
0
VERTEX
8
CUT
10
143.5218
20
170.3301
0
VERTEX
8
CUT
10
143.8654
20
168.8605
0
VERTEX
8
CUT
10
144.4956
20
167.3093
0
VERTEX
8
CUT
10
145.5122
20
165.6254
0
VERTEX
8
CUT
10
146.2298
20
164.8151
0
VERTEX
8
CUT
10
146.3452
20
164.6429
0
VERTEX
8
CUT
10
147.3668
20
163.5309
0
VERTEX
8
CUT
10
147.3917
20
163.5028
0
VERTEX
8
CUT
10
148.0767
20
162.6970
0
VERTEX
8
CUT
10
148.1802
20
162.6123
0
VERTEX
8
CUT
10
148.5590
20
162.1845
0
VERTEX
8
CUT
10
149.6144
20
161.4387
0
VERTEX
8
CUT
10
150.7624
20
160.4993
0
VERTEX
8
CUT
10
150.9631
20
160.2853
0
VERTEX
8
CUT
10
150.9321
20
159.6112
0
VERTEX
8
CUT
10
150.3157
20
159.1946
0
VERTEX
8
CUT
10
148.5126
20
158.9099
0
VERTEX
8
CUT
10
145.1083
20
158.8806
0
VERTEX
8
CUT
10
142.4700
20
159.3355
0
VERTEX
8
CUT
10
140.6559
20
160.0696
0
VERTEX
8
CUT
10
139.4291
20
160.7305
0
VERTEX
8
CUT
10
137.3099
20
162.2731
0
VERTEX
8
CUT
10
135.5387
20
164.2334
0
VERTEX
8
CUT
10
134.1219
20
166.5244
0
VERTEX
8
CUT
10
133.0163
20
169.4600
0
VERTEX
8
CUT
10
132.7897
20
170.6546
0
VERTEX
8
CUT
10
132.7894
20
170.7000
0
VERTEX
8
CUT
10
132.7883
20
170.8708
0
VERTEX
8
CUT
10
132.7852
20
171.3209
0
VERTEX
8
CUT
10
132.7662
20
174.1094
0
VERTEX
8
CUT
10
133.4603
20
177.3098
0
VERTEX
8
CUT
10
135.0650
20
182.1309
0
VERTEX
8
CUT
10
135.1125
20
182.4021
0
VERTEX
8
CUT
10
135.2445
20
182.7656
0
VERTEX
8
CUT
10
135.2632
20
183.2626
0
VERTEX
8
CUT
10
135.5408
20
184.8475
0
VERTEX
8
CUT
10
135.5706
20
187.2835
0
VERTEX
8
CUT
10
135.2739
20
188.5192
0
VERTEX
8
CUT
10
135.2179
20
188.9614
0
VERTEX
8
CUT
10
135.0594
20
189.4126
0
VERTEX
8
CUT
10
134.8951
20
190.0966
0
VERTEX
8
CUT
10
133.5812
20
192.5766
0
VERTEX
8
CUT
10
132.7467
20
193.7455
0
VERTEX
8
CUT
10
132.4142
20
193.7519
0
VERTEX
8
CUT
10
132.1979
20
193.4994
0
VERTEX
8
CUT
10
131.9664
20
188.8068
0
VERTEX
8
CUT
10
131.7064
20
187.5766
0
VERTEX
8
CUT
10
131.6364
20
187.3551
0
VERTEX
8
CUT
10
130.7843
20
185.1734
0
VERTEX
8
CUT
10
130.7768
20
185.1605
0
VERTEX
8
CUT
10
130.7438
20
185.1032
0
VERTEX
8
CUT
10
130.7404
20
185.0973
0
VERTEX
8
CUT
10
130.7302
20
185.0796
0
VERTEX
8
CUT
10
129.2193
20
182.9137
0
VERTEX
8
CUT
10
127.5484
20
181.1485
0
VERTEX
8
CUT
10
126.1567
20
180.0702
0
VERTEX
8
CUT
10
125.7869
20
179.9542
0
VERTEX
8
CUT
10
125.4470
20
180.0993
0
VERTEX
8
CUT
10
125.4897
20
180.7543
0
VERTEX
8
CUT
10
126.6387
20
184.4173
0
VERTEX
8
CUT
10
126.7766
20
185.6161
0
VERTEX
8
CUT
10
126.8123
20
185.7667
0
VERTEX
8
CUT
10
126.8326
20
186.1029
0
VERTEX
8
CUT
10
127.0545
20
188.0313
0
VERTEX
8
CUT
10
127.0545
20
189.7767
0
VERTEX
8
CUT
10
127.0847
20
190.2766
0
VERTEX
8
CUT
10
126.9841
20
190.9663
0
VERTEX
8
CUT
10
126.8093
20
192.5312
0
VERTEX
8
CUT
10
126.3090
20
194.4984
0
VERTEX
8
CUT
10
125.5180
20
196.3762
0
VERTEX
8
CUT
10
124.3899
20
198.2387
0
VERTEX
8
CUT
10
122.9840
20
200.0289
0
VERTEX
8
CUT
10
121.2226
20
201.7886
0
VERTEX
8
CUT
10
116.1530
20
206.1352
0
VERTEX
8
CUT
10
113.6570
20
208.5710
0
VERTEX
8
CUT
10
111.5631
20
210.9664
0
VERTEX
8
CUT
10
109.8532
20
213.3807
0
VERTEX
8
CUT
10
109.1785
20
214.6401
0
VERTEX
8
CUT
10
108.5762
20
215.7731
0
VERTEX
8
CUT
10
107.6420
20
218.2359
0
VERTEX
8
CUT
10
107.0990
20
220.6831
0
VERTEX
8
CUT
10
106.9158
20
223.2648
0
VERTEX
8
CUT
10
107.0671
20
225.4415
0
VERTEX
8
CUT
10
107.4935
20
227.4898
0
VERTEX
8
CUT
10
108.1968
20
229.4226
0
VERTEX
8
CUT
10
109.1922
20
231.1475
0
VERTEX
8
CUT
10
109.2013
20
231.1587
0
VERTEX
8
CUT
10
109.2063
20
231.1647
0
VERTEX
8
CUT
10
109.2229
20
231.1851
0
VERTEX
8
CUT
10
109.2643
20
231.2359
0
VERTEX
8
CUT
10
111.6563
20
233.8093
0
VERTEX
8
CUT
10
113.2149
20
234.7997
0
VERTEX
8
CUT
10
113.6097
20
234.7641
0
VERTEX
8
CUT
10
113.7868
20
234.5422
0
VERTEX
8
CUT
10
113.7021
20
233.7168
0
VERTEX
8
CUT
10
112.6373
20
230.6526
0
VERTEX
8
CUT
10
112.2547
20
228.4252
0
VERTEX
8
CUT
10
112.1678
20
226.1882
0
VERTEX
8
CUT
10
112.4708
20
223.9305
0
VERTEX
8
CUT
10
113.0613
20
221.7496
0
VERTEX
8
CUT
10
113.9978
20
219.6104
0
VERTEX
8
CUT
10
115.2259
20
217.5819
0
VERTEX
8
CUT
10
116.9757
20
215.6099
0
VERTEX
8
CUT
10
117.6708
20
214.8140
0
VERTEX
8
CUT
10
117.7096
20
214.7828
0
VERTEX
8
CUT
10
118.0016
20
214.4537
0
VERTEX
8
CUT
10
120.6047
20
212.4128
0
VERTEX
8
CUT
10
122.0950
20
211.4997
0
VERTEX
8
CUT
10
123.6263
20
210.6909
0
VERTEX
8
CUT
10
126.5516
20
209.5780
0
VERTEX
8
CUT
10
126.5698
20
209.5417
0
VERTEX
8
CUT
10
127.9889
20
209.0284
0
VERTEX
8
CUT
10
130.9479
20
208.3038
0
VERTEX
8
CUT
10
131.4773
20
208.3268
0
VERTEX
8
CUT
10
131.7026
20
208.2723
0
VERTEX
8
CUT
10
132.0579
20
208.5256
0
VERTEX
8
CUT
10
131.9551
20
208.9496
0
VERTEX
8
CUT
10
128.5710
20
211.0782
0
VERTEX
8
CUT
10
126.5349
20
212.7550
0
VERTEX
8
CUT
10
124.7069
20
214.6104
0
VERTEX
8
CUT
10
123.5155
20
216.1257
0
VERTEX
8
CUT
10
123.4599
20
216.2046
0
VERTEX
8
CUT
10
123.3353
20
216.3817
0
VERTEX
8
CUT
10
123.1477
20
216.6481
0
VERTEX
8
CUT
10
122.9272
20
216.9614
0
VERTEX
8
CUT
10
121.8679
20
218.7218
0
VERTEX
8
CUT
10
120.9166
20
220.9520
0
VERTEX
8
CUT
10
120.2726
20
223.2398
0
VERTEX
8
CUT
10
119.9620
20
225.6289
0
VERTEX
8
CUT
10
119.9893
20
228.9676
0
VERTEX
8
CUT
10
120.4953
20
230.1082
0
VERTEX
8
CUT
10
120.8488
20
230.1869
0
SEQEND
0
POLYLINE
8
CUT
66
1
70
1
10
0.0
20
0.0
30
0.0
0
VERTEX
8
CUT
10
221.1655
20
230.0928
0
VERTEX
8
CUT
10
222.2438
20
229.5238
0
VERTEX
8
CUT
10
223.7625
20
229.5256
0
VERTEX
8
CUT
10
224.2348
20
229.2628
0
VERTEX
8
CUT
10
224.3875
20
228.6573
0
VERTEX
8
CUT
10
223.8150
20
227.1766
0
VERTEX
8
CUT
10
222.3636
20
225.0904
0
VERTEX
8
CUT
10
219.6068
20
221.7863
0
VERTEX
8
CUT
10
217.1220
20
217.7990
0
VERTEX
8
CUT
10
216.1464
20
214.9446
0
VERTEX
8
CUT
10
215.9810
20
213.3502
0
VERTEX
8
CUT
10
215.9466
20
213.1966
0
VERTEX
8
CUT
10
215.9225
20
212.7860
0
VERTEX
8
CUT
10
215.8807
20
212.3835
0
VERTEX
8
CUT
10
215.8834
20
212.1220
0
VERTEX
8
CUT
10
215.7941
20
210.6018
0
VERTEX
8
CUT
10
216.0602
20
208.0702
0
VERTEX
8
CUT
10
216.3127
20
207.1150
0
VERTEX
8
CUT
10
216.5446
20
205.7165
0
VERTEX
8
CUT
10
217.1089
20
204.2352
0
VERTEX
8
CUT
10
218.6674
20
201.2440
0
VERTEX
8
CUT
10
219.6529
20
199.8125
0
VERTEX
8
CUT
10
221.9389
20
197.1703
0
VERTEX
8
CUT
10
223.3438
20
196.0098
0
VERTEX
8
CUT
10
223.7926
20
195.5845
0
VERTEX
8
CUT
10
224.2010
20
195.3016
0
VERTEX
8
CUT
10
225.9167
20
193.8844
0
VERTEX
8
CUT
10
226.2851
20
193.3185
0
VERTEX
8
CUT
10
225.7700
20
192.9423
0
VERTEX
8
CUT
10
224.7304
20
192.9667
0
VERTEX
8
CUT
10
221.5968
20
193.6984
0
VERTEX
8
CUT
10
219.0037
20
194.7187
0
VERTEX
8
CUT
10
216.5614
20
196.1359
0
VERTEX
8
CUT
10
214.9647
20
197.3224
0
VERTEX
8
CUT
10
214.5634
20
197.2880
0
VERTEX
8
CUT
10
214.4071
20
196.9167
0
VERTEX
8
CUT
10
215.2474
20
195.5511
0
VERTEX
8
CUT
10
217.2048
20
193.2087
0
VERTEX
8
CUT
10
219.7327
20
190.9212
0
VERTEX
8
CUT
10
221.1174
20
189.8998
0
VERTEX
8
CUT
10
224.0476
20
188.2423
0
VERTEX
8
CUT
10
229.1914
20
186.2563
0
VERTEX
8
CUT
10
229.6104
20
185.7782
0
VERTEX
8
CUT
10
229.3918
20
185.2862
0
VERTEX
8
CUT
10
228.2408
20
185.1470
0
VERTEX
8
CUT
10
225.6174
20
185.4194
0
VERTEX
8
CUT
10
222.1964
20
186.1935
0
VERTEX
8
CUT
10
220.5107
20
186.8543
0
VERTEX
8
CUT
10
220.4428
20
186.8809
0
VERTEX
8
CUT
10
220.3828
20
186.9045
0
VERTEX
8
CUT
10
219.8264
20
187.1225
0
VERTEX
8
CUT
10
219.6443
20
187.1968
0
VERTEX
8
CUT
10
215.8973
20
189.4327
0
VERTEX
8
CUT
10
215.8693
20
189.4550
0
VERTEX
8
CUT
10
215.8593
20
189.4630
0
VERTEX
8
CUT
10
213.8194
20
191.0962
0
VERTEX
8
CUT
10
213.4901
20
191.3905
0
VERTEX
8
CUT
10
213.1086
20
191.7315
0
VERTEX
8
CUT
10
213.0868
20
191.7510
0
VERTEX
8
CUT
10
212.6743
20
192.1196
0
VERTEX
8
CUT
10
211.4751
20
193.3627
0
VERTEX
8
CUT
10
210.4452
20
194.5162
0
VERTEX
8
CUT
10
210.3132
20
194.6781
0
VERTEX
8
CUT
10
208.5039
20
197.1196
0
VERTEX
8
CUT
10
206.6490
20
200.3076
0
VERTEX
8
CUT
10
205.2168
20
203.6517
0
VERTEX
8
CUT
10
204.1995
20
207.1078
0
VERTEX
8
CUT
10
203.7979
20
209.7583
0
VERTEX
8
CUT
10
203.7123
20
210.5035
0
VERTEX
8
CUT
10
203.6868
20
210.8993
0
VERTEX
8
CUT
10
203.6879
20
213.7460
0
VERTEX
8
CUT
10
203.6926
20
213.8633
0
VERTEX
8
CUT
10
204.1426
20
217.0367
0
VERTEX
8
CUT
10
204.4443
20
218.4428
0
VERTEX
8
CUT
10
204.6832
20
219.1833
0
VERTEX
8
CUT
10
204.8350
20
219.5627
0
VERTEX
8
CUT
10
204.8559
20
219.6149
0
VERTEX
8
CUT
10
205.1038
20
220.2347
0
VERTEX
8
CUT
10
205.2055
20
220.4891
0
VERTEX
8
CUT
10
206.7132
20
223.2194
0
VERTEX
8
CUT
10
207.6216
20
224.4612
0
VERTEX
8
CUT
10
208.0634
20
224.7270
0
VERTEX
8
CUT
10
208.3780
20
224.4425
0
VERTEX
8
CUT
10
208.4205
20
223.8810
0
VERTEX
8
CUT
10
207.5189
20
219.0751
0
VERTEX
8
CUT
10
207.3367
20
215.9579
0
VERTEX
8
CUT
10
207.5135
20
213.0936
0
VERTEX
8
CUT
10
207.7735
20
211.8956
0
VERTEX
8
CUT
10
208.1583
20
211.7138
0
VERTEX
8
CUT
10
208.4797
20
211.9927
0
VERTEX
8
CUT
10
208.8276
20
215.0677
0
VERTEX
8
CUT
10
209.2863
20
216.8053
0
VERTEX
8
CUT
10
210.4058
20
219.7092
0
VERTEX
8
CUT
10
211.5750
20
222.0732
0
VERTEX
8
CUT
10
212.9177
20
223.9158
0
VERTEX
8
CUT
10
213.2321
20
224.2632
0
VERTEX
8
CUT
10
214.0194
20
225.1332
0
VERTEX
8
CUT
10
214.0645
20
225.1831
0
VERTEX
8
CUT
10
216.0890
20
227.1617
0
VERTEX
8
CUT
10
217.2920
20
228.0233
0
VERTEX
8
CUT
10
218.6600
20
228.6170
0
VERTEX
8
CUT
10
219.8414
20
229.8305
0
VERTEX
8
CUT
10
220.4377
20
230.1401
0
SEQEND
0
POLYLINE
8
CUT
66
1
70
1
10
0.0
20
0.0
30
0.0
0
VERTEX
8
CUT
10
78.3341
20
262.8693
0
VERTEX
8
CUT
10
79.0665
20
263.9346
0
VERTEX
8
CUT
10
80.0037
20
264.8403
0
VERTEX
8
CUT
10
82.1898
20
265.9336
0
VERTEX
8
CUT
10
83.2874
20
266.1218
0
VERTEX
8
CUT
10
84.3385
20
265.9895
0
VERTEX
8
CUT
10
85.2107
20
265.5661
0
VERTEX
8
CUT
10
85.8397
20
264.8502
0
VERTEX
8
CUT
10
86.0177
20
264.0450
0
VERTEX
8
CUT
10
85.3475
20
261.1657
0
VERTEX
8
CUT
10
85.0536
20
260.3575
0
VERTEX
8
CUT
10
84.5705
20
257.9722
0
VERTEX
8
CUT
10
84.6913
20
257.4891
0
VERTEX
8
CUT
10
85.0536
20
257.5495
0
VERTEX
8
CUT
10
85.2421
20
257.7589
0
VERTEX
8
CUT
10
85.3656
20
257.7910
0
VERTEX
8
CUT
10
86.8941
20
259.8677
0
VERTEX
8
CUT
10
88.5679
20
260.9206
0
VERTEX
8
CUT
10
88.8930
20
260.9872
0
VERTEX
8
CUT
10
89.2705
20
260.8722
0
VERTEX
8
CUT
10
89.9450
20
260.4687
0
VERTEX
8
CUT
10
91.2779
20
258.9460
0
VERTEX
8
CUT
10
92.4370
20
256.4205
0
VERTEX
8
CUT
10
92.3892
20
255.6483
0
VERTEX
8
CUT
10
92.3684
20
255.3136
0
VERTEX
8
CUT
10
92.3675
20
255.2990
0
VERTEX
8
CUT
10
92.3433
20
254.9074
0
VERTEX
8
CUT
10
91.1104
20
252.3047
0
VERTEX
8
CUT
10
91.1167
20
251.9718
0
VERTEX
8
CUT
10
91.6036
20
251.7807
0
VERTEX
8
CUT
10
94.1534
20
253.2548
0
VERTEX
8
CUT
10
94.1547
20
253.2551
0
VERTEX
8
CUT
10
95.1883
20
253.2946
0
VERTEX
8
CUT
10
95.4350
20
253.2561
0
VERTEX
8
CUT
10
96.3535
20
252.4637
0
VERTEX
8
CUT
10
96.6824
20
251.6870
0
VERTEX
8
CUT
10
96.6829
20
251.6705
0
VERTEX
8
CUT
10
96.6859
20
251.5862
0
VERTEX
8
CUT
10
96.7017
20
251.1378
0
VERTEX
8
CUT
10
96.7204
20
250.6060
0
VERTEX
8
CUT
10
96.3064
20
249.0379
0
VERTEX
8
CUT
10
95.8601
20
248.1151
0
VERTEX
8
CUT
10
95.1209
20
247.1523
0
VERTEX
8
CUT
10
94.3339
20
246.5026
0
VERTEX
8
CUT
10
90.4326
20
243.4313
0
VERTEX
8
CUT
10
88.2707
20
241.4178
0
VERTEX
8
CUT
10
85.3853
20
237.6217
0
VERTEX
8
CUT
10
85.1844
20
237.3643
0
VERTEX
8
CUT
10
83.3502
20
235.4171
0
VERTEX
8
CUT
10
83.2725
20
235.3437
0
VERTEX
8
CUT
10
83.2173
20
235.2916
0
VERTEX
8
CUT
10
83.2023
20
235.2775
0
VERTEX
8
CUT
10
83.1657
20
235.2430
0
VERTEX
8
CUT
10
81.5401
20
233.9961
0
VERTEX
8
CUT
10
80.6896
20
233.5469
0
VERTEX
8
CUT
10
79.2194
20
232.9200
0
VERTEX
8
CUT
10
76.9152
20
232.3743
0
VERTEX
8
CUT
10
74.7004
20
232.2244
0
VERTEX
8
CUT
10
74.2575
20
232.2645
0
VERTEX
8
CUT
10
72.6697
20
232.4630
0
VERTEX
8
CUT
10
71.5626
20
232.8868
0
VERTEX
8
CUT
10
69.7131
20
234.1303
0
VERTEX
8
CUT
10
68.1124
20
235.8897
0
VERTEX
8
CUT
10
67.0070
20
237.9578
0
VERTEX
8
CUT
10
66.6432
20
239.0531
0
VERTEX
8
CUT
10
66.5932
20
239.9058
0
VERTEX
8
CUT
10
66.8497
20
240.2089
0
VERTEX
8
CUT
10
67.4428
20
240.1993
0
VERTEX
8
CUT
10
70.4935
20
238.0417
0
VERTEX
8
CUT
10
73.2876
20
237.1880
0
VERTEX
8
CUT
10
73.6004
20
237.3791
0
VERTEX
8
CUT
10
73.6160
20
237.7454
0
VERTEX
8
CUT
10
71.5525
20
240.3336
0
VERTEX
8
CUT
10
70.8642
20
242.5672
0
VERTEX
8
CUT
10
70.8057
20
245.5002
0
VERTEX
8
CUT
10
71.5579
20
252.2224
0
VERTEX
8
CUT
10
71.2489
20
255.9115
0
VERTEX
8
CUT
10
71.0151
20
259.8428
0
VERTEX
8
CUT
10
71.1047
20
260.3596
0
VERTEX
8
CUT
10
72.6366
20
263.3334
0
VERTEX
8
CUT
10
73.5293
20
264.4066
0
VERTEX
8
CUT
10
74.5014
20
265.0212
0
VERTEX
8
CUT
10
75.5333
20
265.1566
0
VERTEX
8
CUT
10
76.6631
20
264.9551
0
VERTEX
8
CUT
10
76.7053
20
261.7325
0
VERTEX
8
CUT
10
76.6280
20
261.2207
0
VERTEX
8
CUT
10
76.6580
20
260.5756
0
VERTEX
8
CUT
10
76.9444
20
260.3429
0
VERTEX
8
CUT
10
76.9907
20
260.3654
0
VERTEX
8
CUT
10
77.1524
20
260.2416
0
VERTEX
8
CUT
10
77.4664
20
260.4809
0
SEQEND
0
POLYLINE
8
CUT
66
1
70
1
10
0.0
20
0.0
30
0.0
0
VERTEX
8
CUT
10
102.2431
20
271.2550
0
VERTEX
8
CUT
10
104.0923
20
271.0689
0
VERTEX
8
CUT
10
105.2300
20
270.6049
0
VERTEX
8
CUT
10
105.6769
20
270.3819
0
VERTEX
8
CUT
10
106.6479
20
269.5110
0
VERTEX
8
CUT
10
107.5159
20
267.2286
0
VERTEX
8
CUT
10
108.6551
20
264.9806
0
VERTEX
8
CUT
10
108.9112
20
264.6218
0
VERTEX
8
CUT
10
108.9367
20
264.4940
0
VERTEX
8
CUT
10
110.3558
20
262.5918
0
VERTEX
8
CUT
10
111.0201
20
262.3201
0
VERTEX
8
CUT
10
110.8087
20
263.1655
0
VERTEX
8
CUT
10
110.7425
20
263.2803
0
VERTEX
8
CUT
10
110.7523
20
263.3154
0
VERTEX
8
CUT
10
109.8863
20
265.2092
0
VERTEX
8
CUT
10
109.2485
20
267.2436
0
VERTEX
8
CUT
10
109.1256
20
268.2662
0
VERTEX
8
CUT
10
109.6186
20
269.3235
0
VERTEX
8
CUT
10
110.5958
20
270.1169
0
VERTEX
8
CUT
10
112.3834
20
270.6198
0
VERTEX
8
CUT
10
113.9436
20
270.5845
0
VERTEX
8
CUT
10
115.7376
20
270.0844
0
VERTEX
8
CUT
10
117.5502
20
269.1177
0
VERTEX
8
CUT
10
119.3353
20
267.6758
0
VERTEX
8
CUT
10
120.9857
20
265.9664
0
VERTEX
8
CUT
10
122.2751
20
264.2494
0
VERTEX
8
CUT
10
122.2835
20
264.2346
0
VERTEX
8
CUT
10
122.3618
20
264.0958
0
VERTEX
8
CUT
10
122.4952
20
263.8595
0
VERTEX
8
CUT
10
123.9044
20
261.3635
0
VERTEX
8
CUT
10
129.3103
20
249.9090
0
VERTEX
8
CUT
10
130.6971
20
247.8880
0
VERTEX
8
CUT
10
133.4868
20
244.8898
0
VERTEX
8
CUT
10
136.1131
20
243.0502
0
VERTEX
8
CUT
10
139.0824
20
241.9269
0
VERTEX
8
CUT
10
142.9156
20
241.2738
0
VERTEX
8
CUT
10
149.5105
20
240.6825
0
VERTEX
8
CUT
10
150.5762
20
240.0771
0
VERTEX
8
CUT
10
150.6917
20
239.5378
0
VERTEX
8
CUT
10
150.5199
20
238.9170
0
VERTEX
8
CUT
10
148.9551
20
236.4052
0
VERTEX
8
CUT
10
148.8231
20
236.2542
0
VERTEX
8
CUT
10
147.0274
20
234.6851
0
VERTEX
8
CUT
10
144.6628
20
233.3900
0
VERTEX
8
CUT
10
141.9276
20
232.5213
0
VERTEX
8
CUT
10
138.1902
20
232.2187
0
VERTEX
8
CUT
10
133.5122
20
232.4023
0
VERTEX
8
CUT
10
129.5927
20
233.0418
0
VERTEX
8
CUT
10
124.9541
20
234.4993
0
VERTEX
8
CUT
10
124.9325
20
234.5085
0
VERTEX
8
CUT
10
124.9276
20
234.5106
0
VERTEX
8
CUT
10
124.8635
20
234.5379
0
VERTEX
8
CUT
10
124.6939
20
234.6104
0
VERTEX
8
CUT
10
122.0684
20
235.8939
0
VERTEX
8
CUT
10
120.4893
20
236.8881
0
VERTEX
8
CUT
10
120.0626
20
237.1756
0
VERTEX
8
CUT
10
117.4081
20
239.3965
0
VERTEX
8
CUT
10
115.8485
20
240.8277
0
VERTEX
8
CUT
10
111.4931
20
244.9451
0
VERTEX
8
CUT
10
109.0013
20
246.9875
0
VERTEX
8
CUT
10
106.1901
20
248.9229
0
VERTEX
8
CUT
10
100.5103
20
252.3978
0
VERTEX
8
CUT
10
95.8525
20
255.9666
0
VERTEX
8
CUT
10
94.1197
20
257.8668
0
VERTEX
8
CUT
10
93.2569
20
259.0023
0
VERTEX
8
CUT
10
92.0575
20
260.9782
0
VERTEX
8
CUT
10
90.9631
20
263.6085
0
VERTEX
8
CUT
10
90.8348
20
263.9684
0
VERTEX
8
CUT
10
90.8148
20
264.1659
0
VERTEX
8
CUT
10
90.7617
20
265.1016
0
VERTEX
8
CUT
10
91.0017
20
265.6854
0
VERTEX
8
CUT
10
91.8577
20
266.7030
0
VERTEX
8
CUT
10
93.0131
20
267.6764
0
VERTEX
8
CUT
10
93.4326
20
267.8430
0
VERTEX
8
CUT
10
93.9382
20
267.8410
0
VERTEX
8
CUT
10
94.1255
20
267.8080
0
VERTEX
8
CUT
10
94.1394
20
267.8015
0
VERTEX
8
CUT
10
94.1414
20
267.8006
0
VERTEX
8
CUT
10
94.1425
20
267.8001
0
VERTEX
8
CUT
10
94.1534
20
267.7950
0
VERTEX
8
CUT
10
95.0549
20
266.9121
0
VERTEX
8
CUT
10
95.8478
20
265.5156
0
VERTEX
8
CUT
10
95.9662
20
265.1825
0
VERTEX
8
CUT
10
96.4004
20
264.4422
0
VERTEX
8
CUT
10
96.3762
20
264.4034
0
VERTEX
8
CUT
10
96.7687
20
263.4372
0
VERTEX
8
CUT
10
97.3977
20
262.7861
0
VERTEX
8
CUT
10
97.4182
20
262.7500
0
VERTEX
8
CUT
10
98.3302
20
261.7183
0
VERTEX
8
CUT
10
98.5179
20
261.4815
0
VERTEX
8
CUT
10
98.5456
20
261.4746
0
VERTEX
8
CUT
10
99.0562
20
260.8970
0
VERTEX
8
CUT
10
99.2134
20
260.9063
0
VERTEX
8
CUT
10
99.3352
20
260.7802
0
VERTEX
8
CUT
10
99.4472
20
260.9203
0
VERTEX
8
CUT
10
99.4605
20
260.9211
0
VERTEX
8
CUT
10
99.4722
20
260.9514
0
VERTEX
8
CUT
10
99.5767
20
261.0821
0
VERTEX
8
CUT
10
99.5466
20
261.1443
0
VERTEX
8
CUT
10
99.6179
20
261.3293
0
VERTEX
8
CUT
10
97.9913
20
264.6605
0
VERTEX
8
CUT
10
97.8841
20
264.9155
0
VERTEX
8
CUT
10
97.8470
20
265.0040
0
VERTEX
8
CUT
10
97.8195
20
265.0694
0
VERTEX
8
CUT
10
97.7733
20
265.1791
0
VERTEX
8
CUT
10
97.4955
20
266.0748
0
VERTEX
8
CUT
10
97.3144
20
267.8584
0
VERTEX
8
CUT
10
97.4429
20
268.6564
0
VERTEX
8
CUT
10
97.6387
20
269.0328
0
VERTEX
8
CUT
10
98.2009
20
269.6561
0
VERTEX
8
CUT
10
98.9671
20
270.3097
0
VERTEX
8
CUT
10
99.0244
20
270.3458
0
VERTEX
8
CUT
10
99.0284
20
270.3483
0
VERTEX
8
CUT
10
99.1720
20
270.4387
0
VERTEX
8
CUT
10
99.2584
20
270.4931
0
VERTEX
8
CUT
10
100.2969
20
270.9514
0
SEQEND
0
ENDSEC
0
EOF
