0
SECTION
2
ENTITIES
0
POLYLINE
8
CUT
66
1
70
1
0
VERTEX
8
CUT
10
8.4619
20
130.1072
0
VERTEX
8
CUT
10
6.7617
20
132.5801
0
VERTEX
8
CUT
10
5.5115
20
135.3797
0
VERTEX
8
CUT
10
4.6834
20
138.3196
0
VERTEX
8
CUT
10
4.3896
20
141.8016
0
VERTEX
8
CUT
10
4.4481
20
144.0572
0
VERTEX
8
CUT
10
4.7445
20
145.7902
0
VERTEX
8
CUT
10
6.5571
20
150.2460
0
VERTEX
8
CUT
10
5.1707
20
153.5734
0
VERTEX
8
CUT
10
4.7426
20
155.1009
0
VERTEX
8
CUT
10
4.3617
20
158.2061
0
VERTEX
8
CUT
10
4.5949
20
161.4687
0
VERTEX
8
CUT
10
5.6988
20
165.6468
0
VERTEX
8
CUT
10
7.0783
20
168.5521
0
VERTEX
8
CUT
10
8.2546
20
170.0654
0
VERTEX
8
CUT
10
7.4370
20
174.2710
0
VERTEX
8
CUT
10
7.1734
20
177.6971
0
VERTEX
8
CUT
10
7.2629
20
180.0014
0
VERTEX
8
CUT
10
7.7023
20
182.6679
0
VERTEX
8
CUT
10
8.8548
20
186.1349
0
VERTEX
8
CUT
10
10.4462
20
189.4677
0
VERTEX
8
CUT
10
12.3336
20
192.3316
0
VERTEX
8
CUT
10
14.3404
20
194.5499
0
VERTEX
8
CUT
10
14.8494
20
201.7866
0
VERTEX
8
CUT
10
15.5568
20
204.8904
0
VERTEX
8
CUT
10
16.1314
20
206.4045
0
VERTEX
8
CUT
10
17.6678
20
209.3561
0
VERTEX
8
CUT
10
20.1801
20
212.8403
0
VERTEX
8
CUT
10
23.4397
20
216.0418
0
VERTEX
8
CUT
10
24.0660
20
216.4360
0
VERTEX
8
CUT
10
24.8008
20
216.4986
0
VERTEX
8
CUT
10
25.0679
20
216.7187
0
VERTEX
8
CUT
10
25.6021
20
220.6903
0
VERTEX
8
CUT
10
26.4877
20
223.8281
0
VERTEX
8
CUT
10
27.7963
20
226.9796
0
VERTEX
8
CUT
10
29.4020
20
229.7377
0
VERTEX
8
CUT
10
31.5995
20
232.3158
0
VERTEX
8
CUT
10
34.3813
20
234.9791
0
VERTEX
8
CUT
10
37.0440
20
237.0476
0
VERTEX
8
CUT
10
39.3993
20
238.2139
0
VERTEX
8
CUT
10
40.0935
20
239.5949
0
VERTEX
8
CUT
10
41.2366
20
242.9332
0
VERTEX
8
CUT
10
42.4958
20
245.5982
0
VERTEX
8
CUT
10
43.9087
20
247.6432
0
VERTEX
8
CUT
10
45.7345
20
249.7326
0
VERTEX
8
CUT
10
48.7545
20
252.4889
0
VERTEX
8
CUT
10
50.6725
20
253.7790
0
VERTEX
8
CUT
10
54.5595
20
255.6925
0
VERTEX
8
CUT
10
55.3647
20
255.9981
0
VERTEX
8
CUT
10
56.7705
20
256.1803
0
VERTEX
8
CUT
10
57.1836
20
256.6542
0
VERTEX
8
CUT
10
59.2182
20
260.4310
0
VERTEX
8
CUT
10
60.7567
20
262.6459
0
VERTEX
8
CUT
10
62.5327
20
264.6841
0
VERTEX
8
CUT
10
64.5717
20
266.5427
0
VERTEX
8
CUT
10
66.7869
20
268.1646
0
VERTEX
8
CUT
10
69.1527
20
269.5516
0
VERTEX
8
CUT
10
71.6665
20
270.6725
0
VERTEX
8
CUT
10
75.2587
20
271.7307
0
VERTEX
8
CUT
10
78.3192
20
271.9299
0
VERTEX
8
CUT
10
81.6640
20
275.8760
0
VERTEX
8
CUT
10
83.2313
20
277.2980
0
VERTEX
8
CUT
10
86.6572
20
279.6647
0
VERTEX
8
CUT
10
88.5561
20
280.6290
0
VERTEX
8
CUT
10
92.5703
20
282.0060
0
VERTEX
8
CUT
10
95.9677
20
282.6870
0
VERTEX
8
CUT
10
98.7058
20
282.8638
0
VERTEX
8
CUT
10
100.0801
20
282.4509
0
VERTEX
8
CUT
10
103.5630
20
285.6128
0
VERTEX
8
CUT
10
106.0957
20
287.3789
0
VERTEX
8
CUT
10
108.6893
20
288.7169
0
VERTEX
8
CUT
10
112.9363
20
290.0349
0
VERTEX
8
CUT
10
117.4496
20
290.6864
0
VERTEX
8
CUT
10
121.6150
20
290.5716
0
VERTEX
8
CUT
10
124.2646
20
290.0806
0
VERTEX
8
CUT
10
129.7841
20
293.0239
0
VERTEX
8
CUT
10
131.5537
20
293.6421
0
VERTEX
8
CUT
10
135.3135
20
294.5265
0
VERTEX
8
CUT
10
139.1533
20
294.7598
0
VERTEX
8
CUT
10
142.9094
20
294.3780
0
VERTEX
8
CUT
10
145.2965
20
293.7813
0
VERTEX
8
CUT
10
149.8323
20
292.0693
0
VERTEX
8
CUT
10
150.5508
20
292.1848
0
VERTEX
8
CUT
10
153.3743
20
293.4357
0
VERTEX
8
CUT
10
157.5656
20
294.5202
0
VERTEX
8
CUT
10
159.8540
20
294.7608
0
VERTEX
8
CUT
10
164.3042
20
294.5851
0
VERTEX
8
CUT
10
166.5312
20
294.1936
0
VERTEX
8
CUT
10
169.0820
20
293.4311
0
VERTEX
8
CUT
10
172.0026
20
292.0167
0
VERTEX
8
CUT
10
175.2474
20
290.1432
0
VERTEX
8
CUT
10
180.6880
20
290.7174
0
VERTEX
8
CUT
10
184.1182
20
290.4828
0
VERTEX
8
CUT
10
187.6247
20
289.8577
0
VERTEX
8
CUT
10
190.3449
20
288.9686
0
VERTEX
8
CUT
10
193.6947
20
287.2350
0
VERTEX
8
CUT
10
195.8674
20
285.7469
0
VERTEX
8
CUT
10
199.6791
20
282.5055
0
VERTEX
8
CUT
10
200.9581
20
282.8663
0
VERTEX
8
CUT
10
204.7470
20
282.5382
0
VERTEX
8
CUT
10
208.6779
20
281.5407
0
VERTEX
8
CUT
10
212.3369
20
280.0084
0
VERTEX
8
CUT
10
214.0537
20
279.0144
0
VERTEX
8
CUT
10
217.0446
20
276.6979
0
VERTEX
8
CUT
10
221.1034
20
272.2496
0
VERTEX
8
CUT
10
225.1191
20
271.6660
0
VERTEX
8
CUT
10
229.5545
20
270.1095
0
VERTEX
8
CUT
10
232.3291
20
268.5890
0
VERTEX
8
CUT
10
235.4082
20
266.3311
0
VERTEX
8
CUT
10
236.8193
20
264.9810
0
VERTEX
8
CUT
10
239.3081
20
262.0824
0
VERTEX
8
CUT
10
242.6210
20
256.5233
0
VERTEX
8
CUT
10
243.1322
20
256.2269
0
VERTEX
8
CUT
10
245.3111
20
255.7143
0
VERTEX
8
CUT
10
249.5024
20
253.5451
0
VERTEX
8
CUT
10
251.4467
20
252.1993
0
VERTEX
8
CUT
10
254.0895
20
249.7623
0
VERTEX
8
CUT
10
256.4547
20
246.6918
0
VERTEX
8
CUT
10
257.4747
20
245.0126
0
VERTEX
8
CUT
10
259.0256
20
241.7649
0
VERTEX
8
CUT
10
259.8226
20
238.9466
0
VERTEX
8
CUT
10
260.2529
20
238.0434
0
VERTEX
8
CUT
10
261.8748
20
237.5148
0
VERTEX
8
CUT
10
264.4355
20
235.8371
0
VERTEX
8
CUT
10
266.3967
20
234.2324
0
VERTEX
8
CUT
10
268.7936
20
231.8025
0
VERTEX
8
CUT
10
271.2433
20
228.4620
0
VERTEX
8
CUT
10
273.0021
20
224.8562
0
VERTEX
8
CUT
10
274.0986
20
220.9563
0
VERTEX
8
CUT
10
274.6751
20
217.2575
0
VERTEX
8
CUT
10
276.9498
20
215.5605
0
VERTEX
8
CUT
10
278.5666
20
214.0051
0
VERTEX
8
CUT
10
280.2247
20
212.1366
0
VERTEX
8
CUT
10
282.7439
20
208.2993
0
VERTEX
8
CUT
10
284.3754
20
204.1881
0
VERTEX
8
CUT
10
284.8804
20
201.9697
0
VERTEX
8
CUT
10
285.1809
20
199.5982
0
VERTEX
8
CUT
10
285.4188
20
194.1853
0
VERTEX
8
CUT
10
286.2058
20
193.6520
0
VERTEX
8
CUT
10
287.2940
20
192.5047
0
VERTEX
8
CUT
10
289.2750
20
189.7280
0
VERTEX
8
CUT
10
290.9311
20
186.5372
0
VERTEX
8
CUT
10
291.7679
20
184.1459
0
VERTEX
8
CUT
10
292.4727
20
180.5046
0
VERTEX
8
CUT
10
292.5928
20
177.1623
0
VERTEX
8
CUT
10
292.4131
20
174.5100
0
VERTEX
8
CUT
10
291.6479
20
171.2402
0
VERTEX
8
CUT
10
291.5326
20
169.9884
0
VERTEX
8
CUT
10
292.8379
20
168.4447
0
VERTEX
8
CUT
10
293.7543
20
166.5893
0
VERTEX
8
CUT
10
295.0145
20
162.6917
0
VERTEX
8
CUT
10
295.3467
20
160.7016
0
VERTEX
8
CUT
10
295.4641
20
157.0705
0
VERTEX
8
CUT
10
295.1992
20
155.3383
0
VERTEX
8
CUT
10
294.7788
20
153.6831
0
VERTEX
8
CUT
10
293.5889
20
150.6474
0
VERTEX
8
CUT
10
293.6774
20
149.7037
0
VERTEX
8
CUT
10
294.8749
20
146.4048
0
VERTEX
8
CUT
10
295.3423
20
144.1550
0
VERTEX
8
CUT
10
295.5219
20
141.6023
0
VERTEX
8
CUT
10
295.3165
20
139.1106
0
VERTEX
8
CUT
10
294.8417
20
136.9090
0
VERTEX
8
CUT
10
294.0455
20
134.6365
0
VERTEX
8
CUT
10
292.6318
20
131.6297
0
VERTEX
8
CUT
10
291.7406
20
130.6245
0
VERTEX
8
CUT
10
291.6611
20
130.2787
0
VERTEX
8
CUT
10
292.4989
20
126.6135
0
VERTEX
8
CUT
10
292.6797
20
124.4750
0
VERTEX
8
CUT
10
292.5002
20
118.1972
0
VERTEX
8
CUT
10
291.6460
20
114.8109
0
VERTEX
8
CUT
10
289.9859
20
111.2513
0
VERTEX
8
CUT
10
287.3423
20
107.2556
0
VERTEX
8
CUT
10
285.5503
20
105.5943
0
VERTEX
8
CUT
10
285.3566
20
100.3108
0
VERTEX
8
CUT
10
285.1213
20
98.4472
0
VERTEX
8
CUT
10
284.7601
20
96.6431
0
VERTEX
8
CUT
10
283.6778
20
93.2789
0
VERTEX
8
CUT
10
282.0553
20
90.0858
0
VERTEX
8
CUT
10
280.3783
20
87.6887
0
VERTEX
8
CUT
10
277.2548
20
84.4197
0
VERTEX
8
CUT
10
275.1232
20
82.9984
0
VERTEX
8
CUT
10
274.6631
20
81.5980
0
VERTEX
8
CUT
10
274.2135
20
78.8605
0
VERTEX
8
CUT
10
272.9854
20
74.8837
0
VERTEX
8
CUT
10
271.0966
20
71.1860
0
VERTEX
8
CUT
10
269.9450
20
69.4705
0
VERTEX
8
CUT
10
268.5911
20
67.8155
0
VERTEX
8
CUT
10
265.5280
20
64.9015
0
VERTEX
8
CUT
10
262.9872
20
63.0122
0
VERTEX
8
CUT
10
260.2848
20
61.5225
0
VERTEX
8
CUT
10
258.3046
20
56.5342
0
VERTEX
8
CUT
10
257.1850
20
54.2911
0
VERTEX
8
CUT
10
254.3521
20
50.3288
0
VERTEX
8
CUT
10
252.5758
20
48.5514
0
VERTEX
8
CUT
10
248.6202
20
45.6506
0
VERTEX
8
CUT
10
245.0231
20
43.8945
0
VERTEX
8
CUT
10
242.8125
20
43.3239
0
VERTEX
8
CUT
10
240.6826
20
39.4504
0
VERTEX
8
CUT
10
238.6470
20
36.6154
0
VERTEX
8
CUT
10
236.2402
20
34.0006
0
VERTEX
8
CUT
10
233.7174
20
31.8884
0
VERTEX
8
CUT
10
230.8238
20
30.1144
0
VERTEX
8
CUT
10
227.6362
20
28.7141
0
VERTEX
8
CUT
10
224.6610
20
27.8564
0
VERTEX
8
CUT
10
221.4926
20
27.6858
0
VERTEX
8
CUT
10
218.1032
20
23.7450
0
VERTEX
8
CUT
10
216.3288
20
22.1740
0
VERTEX
8
CUT
10
214.3486
20
20.7819
0
VERTEX
8
CUT
10
212.1598
20
19.5956
0
VERTEX
8
CUT
10
207.3916
20
17.8971
0
VERTEX
8
CUT
10
204.8831
20
17.4268
0
VERTEX
8
CUT
10
199.2010
20
17.0801
0
VERTEX
8
CUT
10
195.7617
20
13.9993
0
VERTEX
8
CUT
10
193.5118
20
12.5444
0
VERTEX
8
CUT
10
191.0754
20
11.3413
0
VERTEX
8
CUT
10
188.5030
20
10.4276
0
VERTEX
8
CUT
10
185.8138
20
9.8096
0
VERTEX
8
CUT
10
182.9772
20
9.4873
0
VERTEX
8
CUT
10
180.0606
20
9.4889
0
VERTEX
8
CUT
10
175.1731
20
9.9021
0
VERTEX
8
CUT
10
172.0755
20
8.0352
0
VERTEX
8
CUT
10
169.4326
20
6.8445
0
VERTEX
8
CUT
10
166.6284
20
5.9560
0
VERTEX
8
CUT
10
163.7302
20
5.4496
0
VERTEX
8
CUT
10
160.7526
20
5.3287
0
VERTEX
8
CUT
10
157.8238
20
5.5690
0
VERTEX
8
CUT
10
154.9527
20
6.1948
0
VERTEX
8
CUT
10
150.2918
20
8.0265
0
VERTEX
8
CUT
10
146.3678
20
6.4195
0
VERTEX
8
CUT
10
143.4682
20
5.5701
0
VERTEX
8
CUT
10
140.5163
20
5.1515
0
VERTEX
8
CUT
10
137.5520
20
5.1236
0
VERTEX
8
CUT
10
133.2905
20
5.8288
0
VERTEX
8
CUT
10
130.4529
20
6.7728
0
VERTEX
8
CUT
10
127.8567
20
7.9374
0
VERTEX
8
CUT
10
124.7279
20
10.0374
0
VERTEX
8
CUT
10
121.2839
20
9.6058
0
VERTEX
8
CUT
10
118.5289
20
9.5166
0
VERTEX
8
CUT
10
114.3062
20
9.7803
0
VERTEX
8
CUT
10
111.9922
20
10.2310
0
VERTEX
8
CUT
10
109.2719
20
11.1496
0
VERTEX
8
CUT
10
105.5107
20
13.1185
0
VERTEX
8
CUT
10
103.2360
20
14.8006
0
VERTEX
8
CUT
10
100.6855
20
17.1680
0
VERTEX
8
CUT
10
95.2985
20
17.4265
0
VERTEX
8
CUT
10
92.8431
20
17.8678
0
VERTEX
8
CUT
10
90.4113
20
18.5585
0
VERTEX
8
CUT
10
88.1043
20
19.4781
0
VERTEX
8
CUT
10
85.9481
20
20.6325
0
VERTEX
8
CUT
10
83.9727
20
21.9689
0
VERTEX
8
CUT
10
82.1405
20
23.5027
0
VERTEX
8
CUT
10
78.8108
20
27.4765
0
VERTEX
8
CUT
10
78.2010
20
27.6844
0
VERTEX
8
CUT
10
75.3859
20
27.9510
0
VERTEX
8
CUT
10
71.9781
20
28.8736
0
VERTEX
8
CUT
10
68.4961
20
30.5287
0
VERTEX
8
CUT
10
65.1863
20
32.7489
0
VERTEX
8
CUT
10
62.8297
20
34.8720
0
VERTEX
8
CUT
10
60.7196
20
37.2752
0
VERTEX
8
CUT
10
57.1271
20
43.0312
0
VERTEX
8
CUT
10
56.7019
20
43.3457
0
VERTEX
8
CUT
10
53.7761
20
44.3469
0
VERTEX
8
CUT
10
51.1349
20
45.8144
0
VERTEX
8
CUT
10
48.4523
20
47.7293
0
VERTEX
8
CUT
10
46.0979
20
49.8464
0
VERTEX
8
CUT
10
43.4602
20
53.0703
0
VERTEX
8
CUT
10
42.1540
20
55.2920
0
VERTEX
8
CUT
10
39.6006
20
61.6343
0
VERTEX
8
CUT
10
37.9631
20
62.3321
0
VERTEX
8
CUT
10
36.6934
20
63.1276
0
VERTEX
8
CUT
10
33.7043
20
65.5800
0
VERTEX
8
CUT
10
30.7445
20
68.5989
0
VERTEX
8
CUT
10
28.5503
20
71.4820
0
VERTEX
8
CUT
10
27.2920
20
73.9990
0
VERTEX
8
CUT
10
26.2218
20
76.7660
0
VERTEX
8
CUT
10
25.5441
20
79.4230
0
VERTEX
8
CUT
10
25.0387
20
83.0129
0
VERTEX
8
CUT
10
24.1746
20
83.3185
0
VERTEX
8
CUT
10
23.0658
20
84.0402
0
VERTEX
8
CUT
10
20.0055
20
87.0998
0
VERTEX
8
CUT
10
17.9807
20
89.8975
0
VERTEX
8
CUT
10
16.3954
20
92.8626
0
VERTEX
8
CUT
10
15.7349
20
94.4853
0
VERTEX
8
CUT
10
14.6734
20
98.2729
0
VERTEX
8
CUT
10
14.2110
20
105.7363
0
VERTEX
8
CUT
10
12.7740
20
107.0166
0
VERTEX
8
CUT
10
11.5395
20
108.6403
0
VERTEX
8
CUT
10
9.7425
20
111.5004
0
VERTEX
8
CUT
10
8.4807
20
114.4048
0
VERTEX
8
CUT
10
7.4130
20
118.8659
0
VERTEX
8
CUT
10
7.1730
20
123.5028
0
VERTEX
8
CUT
10
7.7896
20
127.9090
0
VERTEX
8
CUT
10
8.4619
20
130.1072
0
SEQEND
0
ENDSEC
0
EOF
