0
SECTION
2
HEADER
9
$ACADVER
1
AC1009
9
$INSUNITS
70
4
0
ENDSEC
0
SECTION
2
TABLES
0
TABLE
2
LAYER
70
1
0
LAYER
2
CUT
70
0
62
7
6
CONTINUOUS
0
ENDTAB
0
ENDSEC
0
SECTION
2
ENTITIES
0
POLYLINE
8
CUT
66
1
70
1
10
0.0
20
0.0
30
0.0
0
VERTEX
8
CUT
10
400.0000
20
266.8000
0
VERTEX
8
CUT
10
0.0000
20
266.8000
0
VERTEX
8
CUT
10
0.0000
20
0.0000
0
VERTEX
8
CUT
10
400.0000
20
0.0000
0
SEQEND
0
POLYLINE
8
CUT
66
1
70
1
10
0.0
20
0.0
30
0.0
0
VERTEX
8
CUT
10
380.5200
20
163.1500
0
VERTEX
8
CUT
10
380.2900
20
163.0400
0
VERTEX
8
CUT
10
380.0500
20
162.9400
0
VERTEX
8
CUT
10
380.0300
20
162.9300
0
VERTEX
8
CUT
10
380.0100
20
162.9200
0
VERTEX
8
CUT
10
379.9900
20
162.9100
0
VERTEX
8
CUT
10
379.8800
20
162.8600
0
VERTEX
8
CUT
10
379.6700
20
162.7500
0
VERTEX
8
CUT
10
379.5900
20
162.7100
0
VERTEX
8
CUT
10
379.5100
20
162.6700
0
VERTEX
8
CUT
10
379.4200
20
162.6200
0
VERTEX
8
CUT
10
379.3300
20
162.5700
0
VERTEX
8
CUT
10
378.5400
20
162.1400
0
VERTEX
8
CUT
10
378.1100
20
161.9200
0
VERTEX
8
CUT
10
378.0800
20
161.9000
0
VERTEX
8
CUT
10
376.5000
20
161.0500
0
VERTEX
8
CUT
10
376.1800
20
160.8600
0
VERTEX
8
CUT
10
376.1000
20
160.8100
0
VERTEX
8
CUT
10
375.5700
20
160.5000
0
VERTEX
8
CUT
10
374.7600
20
160.0100
0
VERTEX
8
CUT
10
374.6900
20
159.9700
0
VERTEX
8
CUT
10
374.6200
20
159.9300
0
VERTEX
8
CUT
10
374.5100
20
159.8600
0
VERTEX
8
CUT
10
374.5000
20
159.8600
0
VERTEX
8
CUT
10
374.4800
20
159.8400
0
VERTEX
8
CUT
10
373.6900
20
159.3300
0
VERTEX
8
CUT
10
373.6800
20
159.3300
0
VERTEX
8
CUT
10
373.6500
20
159.3100
0
VERTEX
8
CUT
10
373.6300
20
159.2900
0
VERTEX
8
CUT
10
371.9000
20
158.0100
0
VERTEX
8
CUT
10
371.8800
20
158.0000
0
VERTEX
8
CUT
10
371.8100
20
157.9500
0
VERTEX
8
CUT
10
371.7900
20
157.9300
0
VERTEX
8
CUT
10
371.7500
20
157.9000
0
VERTEX
8
CUT
10
371.7100
20
157.8700
0
VERTEX
8
CUT
10
371.7000
20
157.8600
0
VERTEX
8
CUT
10
371.6800
20
157.8400
0
VERTEX
8
CUT
10
371.2900
20
157.5400
0
VERTEX
8
CUT
10
368.5800
20
155.4200
0
VERTEX
8
CUT
10
368.5700
20
155.4200
0
VERTEX
8
CUT
10
368.5600
20
155.4100
0
VERTEX
8
CUT
10
368.0700
20
154.9500
0
VERTEX
8
CUT
10
367.2400
20
154.1700
0
VERTEX
8
CUT
10
366.5000
20
153.4800
0
VERTEX
8
CUT
10
366.1000
20
153.1100
0
VERTEX
8
CUT
10
366.0600
20
153.0700
0
VERTEX
8
CUT
10
366.0200
20
153.0300
0
VERTEX
8
CUT
10
361.7500
20
148.7500
0
VERTEX
8
CUT
10
358.1200
20
144.1500
0
VERTEX
8
CUT
10
356.6400
20
142.1300
0
VERTEX
8
CUT
10
356.6100
20
142.0900
0
VERTEX
8
CUT
10
356.4800
20
141.8900
0
VERTEX
8
CUT
10
356.3900
20
141.7600
0
VERTEX
8
CUT
10
354.5700
20
139.0900
0
VERTEX
8
CUT
10
352.4200
20
135.7800
0
VERTEX
8
CUT
10
352.3800
20
135.7100
0
VERTEX
8
CUT
10
352.3700
20
135.6900
0
VERTEX
8
CUT
10
352.3000
20
135.5800
0
VERTEX
8
CUT
10
351.8200
20
134.7700
0
VERTEX
8
CUT
10
351.6800
20
134.5400
0
VERTEX
8
CUT
10
350.8900
20
133.2200
0
VERTEX
8
CUT
10
349.4500
20
130.8300
0
VERTEX
8
CUT
10
347.9200
20
128.1300
0
VERTEX
8
CUT
10
344.8000
20
123.0900
0
VERTEX
8
CUT
10
340.0300
20
115.9500
0
VERTEX
8
CUT
10
336.1900
20
110.6700
0
VERTEX
8
CUT
10
330.8500
20
104.1300
0
VERTEX
8
CUT
10
325.8200
20
98.6300
0
VERTEX
8
CUT
10
321.4600
20
94.2700
0
VERTEX
8
CUT
10
319.1000
20
92.3800
0
VERTEX
8
CUT
10
310.2500
20
86.1600
0
VERTEX
8
CUT
10
302.6000
20
81.3700
0
VERTEX
8
CUT
10
299.2600
20
79.4600
0
VERTEX
8
CUT
10
291.6400
20
75.6400
0
VERTEX
8
CUT
10
284.9400
20
72.7800
0
VERTEX
8
CUT
10
277.3000
20
70.1600
0
VERTEX
8
CUT
10
268.7000
20
68.0100
0
VERTEX
8
CUT
10
267.7200
20
67.9700
0
VERTEX
8
CUT
10
264.3600
20
67.2900
0
VERTEX
8
CUT
10
263.1700
20
67.2400
0
VERTEX
8
CUT
10
262.6900
20
67.0500
0
VERTEX
8
CUT
10
259.1300
20
66.7600
0
VERTEX
8
CUT
10
258.6300
20
66.5800
0
VERTEX
8
CUT
10
255.4900
20
66.5400
0
VERTEX
8
CUT
10
254.5700
20
66.3300
0
VERTEX
8
CUT
10
250.6900
20
66.3200
0
VERTEX
8
CUT
10
249.3600
20
66.5800
0
VERTEX
8
CUT
10
241.9400
20
69.4500
0
VERTEX
8
CUT
10
233.6000
20
73.5000
0
VERTEX
8
CUT
10
227.8700
20
76.8500
0
VERTEX
8
CUT
10
221.3600
20
81.3200
0
VERTEX
8
CUT
10
220.3600
20
81.0500
0
VERTEX
8
CUT
10
219.5800
20
80.6900
0
VERTEX
8
CUT
10
219.5700
20
80.6900
0
VERTEX
8
CUT
10
219.1400
20
80.4300
0
VERTEX
8
CUT
10
218.5200
20
80.2100
0
VERTEX
8
CUT
10
218.5100
20
80.2000
0
VERTEX
8
CUT
10
217.9100
20
79.9300
0
VERTEX
8
CUT
10
216.6200
20
79.5300
0
VERTEX
8
CUT
10
215.7500
20
79.2200
0
VERTEX
8
CUT
10
215.0600
20
79.0500
0
VERTEX
8
CUT
10
215.0200
20
79.0400
0
VERTEX
8
CUT
10
214.9800
20
79.0300
0
VERTEX
8
CUT
10
214.9400
20
79.0200
0
VERTEX
8
CUT
10
214.1000
20
78.7500
0
VERTEX
8
CUT
10
213.7900
20
78.7300
0
VERTEX
8
CUT
10
213.7800
20
78.7300
0
VERTEX
8
CUT
10
211.9100
20
78.2600
0
VERTEX
8
CUT
10
211.1500
20
78.1500
0
VERTEX
8
CUT
10
211.1300
20
78.1500
0
VERTEX
8
CUT
10
211.0900
20
78.1400
0
VERTEX
8
CUT
10
211.0800
20
78.1400
0
VERTEX
8
CUT
10
210.6500
20
78.0200
0
VERTEX
8
CUT
10
210.3500
20
78.0300
0
VERTEX
8
CUT
10
210.0800
20
77.9900
0
VERTEX
8
CUT
10
209.8700
20
78.0500
0
VERTEX
8
CUT
10
209.8600
20
78.0500
0
VERTEX
8
CUT
10
209.8500
20
78.0500
0
VERTEX
8
CUT
10
209.4800
20
78.0600
0
VERTEX
8
CUT
10
209.2800
20
78.2000
0
VERTEX
8
CUT
10
209.2700
20
78.2100
0
VERTEX
8
CUT
10
209.0700
20
78.2600
0
VERTEX
8
CUT
10
208.1200
20
79.0000
0
VERTEX
8
CUT
10
208.0600
20
79.0600
0
VERTEX
8
CUT
10
208.0000
20
79.1000
0
VERTEX
8
CUT
10
203.0900
20
83.8900
0
VERTEX
8
CUT
10
201.7300
20
85.0200
0
VERTEX
8
CUT
10
199.9400
20
85.8200
0
VERTEX
8
CUT
10
198.6200
20
86.1400
0
VERTEX
8
CUT
10
198.5300
20
86.2100
0
VERTEX
8
CUT
10
198.4600
20
86.2300
0
VERTEX
8
CUT
10
198.3200
20
86.3700
0
VERTEX
8
CUT
10
198.2000
20
86.4600
0
VERTEX
8
CUT
10
197.7800
20
86.9000
0
VERTEX
8
CUT
10
197.7600
20
86.9200
0
VERTEX
8
CUT
10
197.7500
20
86.9400
0
VERTEX
8
CUT
10
197.7200
20
86.9700
0
VERTEX
8
CUT
10
195.1100
20
89.5600
0
VERTEX
8
CUT
10
192.9400
20
91.9900
0
VERTEX
8
CUT
10
192.9400
20
92.0000
0
VERTEX
8
CUT
10
192.8400
20
92.1200
0
VERTEX
8
CUT
10
192.8300
20
92.1300
0
VERTEX
8
CUT
10
192.8200
20
92.1400
0
VERTEX
8
CUT
10
192.7700
20
92.2000
0
VERTEX
8
CUT
10
190.7300
20
94.6800
0
VERTEX
8
CUT
10
189.4500
20
96.4300
0
VERTEX
8
CUT
10
189.3700
20
96.5400
0
VERTEX
8
CUT
10
189.3200
20
96.6000
0
VERTEX
8
CUT
10
189.2800
20
96.6500
0
VERTEX
8
CUT
10
188.5700
20
97.5500
0
VERTEX
8
CUT
10
187.9700
20
98.4200
0
VERTEX
8
CUT
10
187.3600
20
99.2500
0
VERTEX
8
CUT
10
186.9500
20
99.9000
0
VERTEX
8
CUT
10
186.9400
20
99.9300
0
VERTEX
8
CUT
10
186.9300
20
99.9400
0
VERTEX
8
CUT
10
186.8900
20
100.0000
0
VERTEX
8
CUT
10
185.4500
20
102.0900
0
VERTEX
8
CUT
10
184.0400
20
104.5000
0
VERTEX
8
CUT
10
183.2800
20
105.7100
0
VERTEX
8
CUT
10
182.9000
20
106.4700
0
VERTEX
8
CUT
10
182.8700
20
106.5200
0
VERTEX
8
CUT
10
182.8300
20
106.5900
0
VERTEX
8
CUT
10
182.8200
20
106.6000
0
VERTEX
8
CUT
10
182.0900
20
107.8500
0
VERTEX
8
CUT
10
180.9200
20
110.2700
0
VERTEX
8
CUT
10
179.7200
20
112.5900
0
VERTEX
8
CUT
10
179.2400
20
113.7400
0
VERTEX
8
CUT
10
178.7600
20
114.7400
0
VERTEX
8
CUT
10
176.8400
20
119.5400
0
VERTEX
8
CUT
10
174.9300
20
125.5300
0
VERTEX
8
CUT
10
174.8800
20
126.5800
0
VERTEX
8
CUT
10
174.8200
20
126.7600
0
VERTEX
8
CUT
10
174.8200
20
126.7700
0
VERTEX
8
CUT
10
174.7100
20
126.9100
0
VERTEX
8
CUT
10
174.2100
20
128.6400
0
VERTEX
8
CUT
10
173.2500
20
133.4300
0
VERTEX
8
CUT
10
172.9400
20
137.1000
0
VERTEX
8
CUT
10
172.9400
20
137.1100
0
VERTEX
8
CUT
10
172.7900
20
137.5900
0
VERTEX
8
CUT
10
172.7900
20
138.8400
0
VERTEX
8
CUT
10
172.7900
20
138.8600
0
VERTEX
8
CUT
10
172.7900
20
138.8800
0
VERTEX
8
CUT
10
172.7900
20
138.8900
0
VERTEX
8
CUT
10
172.7700
20
139.0600
0
VERTEX
8
CUT
10
172.7800
20
143.4700
0
VERTEX
8
CUT
10
172.7800
20
145.6800
0
VERTEX
8
CUT
10
172.7900
20
145.7800
0
VERTEX
8
CUT
10
172.7900
20
145.7900
0
VERTEX
8
CUT
10
172.7900
20
145.9900
0
VERTEX
8
CUT
10
172.7900
20
146.1300
0
VERTEX
8
CUT
10
172.8600
20
146.5800
0
VERTEX
8
CUT
10
172.8700
20
146.6700
0
VERTEX
8
CUT
10
172.8700
20
146.6800
0
VERTEX
8
CUT
10
172.8700
20
146.7000
0
VERTEX
8
CUT
10
172.8800
20
146.7900
0
VERTEX
8
CUT
10
173.0200
20
148.3800
0
VERTEX
8
CUT
10
173.1200
20
148.9500
0
VERTEX
8
CUT
10
173.2500
20
150.0600
0
VERTEX
8
CUT
10
173.5800
20
151.5800
0
VERTEX
8
CUT
10
173.7400
20
152.7000
0
VERTEX
8
CUT
10
173.9800
20
153.6600
0
VERTEX
8
CUT
10
174.4500
20
155.5700
0
VERTEX
8
CUT
10
175.8800
20
159.8900
0
VERTEX
8
CUT
10
175.9000
20
159.9200
0
VERTEX
8
CUT
10
178.5200
20
165.4000
0
VERTEX
8
CUT
10
178.5700
20
165.4900
0
VERTEX
8
CUT
10
178.5800
20
165.4900
0
VERTEX
8
CUT
10
178.5800
20
165.5000
0
VERTEX
8
CUT
10
178.5900
20
165.5100
0
VERTEX
8
CUT
10
178.7500
20
165.8500
0
VERTEX
8
CUT
10
179.5000
20
167.0200
0
VERTEX
8
CUT
10
179.5800
20
167.1500
0
VERTEX
8
CUT
10
179.6200
20
167.2100
0
VERTEX
8
CUT
10
179.6700
20
167.3000
0
VERTEX
8
CUT
10
179.9700
20
167.8100
0
VERTEX
8
CUT
10
180.1500
20
168.0600
0
VERTEX
8
CUT
10
180.4300
20
168.4900
0
VERTEX
8
CUT
10
181.1500
20
169.4300
0
VERTEX
8
CUT
10
181.1700
20
169.4600
0
VERTEX
8
CUT
10
181.1700
20
169.4700
0
VERTEX
8
CUT
10
181.2000
20
169.5100
0
VERTEX
8
CUT
10
181.2800
20
169.6100
0
VERTEX
8
CUT
10
181.8700
20
170.3800
0
VERTEX
8
CUT
10
181.9500
20
170.4600
0
VERTEX
8
CUT
10
182.2000
20
170.7200
0
VERTEX
8
CUT
10
182.3900
20
170.9400
0
VERTEX
8
CUT
10
185.2600
20
173.8000
0
VERTEX
8
CUT
10
185.3800
20
173.9200
0
VERTEX
8
CUT
10
185.5500
20
174.0400
0
VERTEX
8
CUT
10
185.7000
20
174.1900
0
VERTEX
8
CUT
10
187.8100
20
175.6400
0
VERTEX
8
CUT
10
189.6900
20
176.5800
0
VERTEX
8
CUT
10
189.7300
20
176.5900
0
VERTEX
8
CUT
10
191.1900
20
177.0700
0
VERTEX
8
CUT
10
192.3200
20
177.2900
0
VERTEX
8
CUT
10
192.3300
20
177.2900
0
VERTEX
8
CUT
10
192.4000
20
177.3100
0
VERTEX
8
CUT
10
192.4300
20
177.3100
0
VERTEX
8
CUT
10
192.4800
20
177.3200
0
VERTEX
8
CUT
10
194.4200
20
177.3200
0
VERTEX
8
CUT
10
194.4300
20
177.3200
0
VERTEX
8
CUT
10
194.4900
20
177.2900
0
VERTEX
8
CUT
10
194.5000
20
177.2900
0
VERTEX
8
CUT
10
194.5500
20
177.2900
0
VERTEX
8
CUT
10
196.2200
20
176.5900
0
VERTEX
8
CUT
10
196.3700
20
176.4800
0
VERTEX
8
CUT
10
196.6700
20
176.3500
0
VERTEX
8
CUT
10
197.0300
20
176.0000
0
VERTEX
8
CUT
10
197.2000
20
175.8700
0
VERTEX
8
CUT
10
197.9500
20
175.0800
0
VERTEX
8
CUT
10
198.0300
20
175.0000
0
VERTEX
8
CUT
10
198.0600
20
174.9700
0
VERTEX
8
CUT
10
198.0800
20
174.9500
0
VERTEX
8
CUT
10
198.2100
20
174.8300
0
VERTEX
8
CUT
10
198.2200
20
174.8100
0
VERTEX
8
CUT
10
198.2300
20
174.8000
0
VERTEX
8
CUT
10
198.2300
20
174.7900
0
VERTEX
8
CUT
10
198.2600
20
174.7700
0
VERTEX
8
CUT
10
198.2700
20
174.7500
0
VERTEX
8
CUT
10
198.3300
20
174.6900
0
VERTEX
8
CUT
10
198.8200
20
173.7500
0
VERTEX
8
CUT
10
198.8400
20
173.7200
0
VERTEX
8
CUT
10
199.1300
20
172.8100
0
VERTEX
8
CUT
10
199.3100
20
172.2500
0
VERTEX
8
CUT
10
199.3100
20
172.2300
0
VERTEX
8
CUT
10
199.3100
20
171.8300
0
VERTEX
8
CUT
10
199.3100
20
171.8200
0
VERTEX
8
CUT
10
199.3300
20
171.7400
0
VERTEX
8
CUT
10
199.3200
20
170.7600
0
VERTEX
8
CUT
10
199.3200
20
169.7700
0
VERTEX
8
CUT
10
199.3000
20
169.7100
0
VERTEX
8
CUT
10
199.3000
20
169.6400
0
VERTEX
8
CUT
10
199.2200
20
169.4300
0
VERTEX
8
CUT
10
199.0700
20
168.9200
0
VERTEX
8
CUT
10
198.9700
20
168.7800
0
VERTEX
8
CUT
10
198.9600
20
168.7600
0
VERTEX
8
CUT
10
198.9600
20
168.7500
0
VERTEX
8
CUT
10
198.9500
20
168.7300
0
VERTEX
8
CUT
10
198.8400
20
168.4300
0
VERTEX
8
CUT
10
198.7000
20
168.2100
0
VERTEX
8
CUT
10
198.6000
20
167.9700
0
VERTEX
8
CUT
10
198.4100
20
167.7500
0
VERTEX
8
CUT
10
198.4000
20
167.7400
0
VERTEX
8
CUT
10
198.0300
20
167.1500
0
VERTEX
8
CUT
10
197.9400
20
167.0700
0
VERTEX
8
CUT
10
197.9300
20
167.0500
0
VERTEX
8
CUT
10
197.9100
20
167.0100
0
VERTEX
8
CUT
10
197.2500
20
166.3900
0
VERTEX
8
CUT
10
197.2400
20
166.3800
0
VERTEX
8
CUT
10
197.2300
20
166.3700
0
VERTEX
8
CUT
10
197.2300
20
166.3600
0
VERTEX
8
CUT
10
197.2000
20
166.3300
0
VERTEX
8
CUT
10
197.1800
20
166.3200
0
VERTEX
8
CUT
10
197.1500
20
166.2900
0
VERTEX
8
CUT
10
195.2900
20
165.2800
0
VERTEX
8
CUT
10
195.2800
20
165.2700
0
VERTEX
8
CUT
10
195.2700
20
165.2600
0
VERTEX
8
CUT
10
195.2400
20
165.2400
0
VERTEX
8
CUT
10
195.1700
20
165.1800
0
VERTEX
8
CUT
10
195.1600
20
165.1700
0
VERTEX
8
CUT
10
195.1500
20
165.1600
0
VERTEX
8
CUT
10
194.8500
20
164.8200
0
VERTEX
8
CUT
10
194.8200
20
164.7700
0
VERTEX
8
CUT
10
194.6400
20
164.5300
0
VERTEX
8
CUT
10
194.6200
20
164.3600
0
VERTEX
8
CUT
10
194.6100
20
164.3000
0
VERTEX
8
CUT
10
194.6000
20
164.2400
0
VERTEX
8
CUT
10
194.6000
20
164.2200
0
VERTEX
8
CUT
10
194.6000
20
164.2100
0
VERTEX
8
CUT
10
194.6200
20
163.9700
0
VERTEX
8
CUT
10
195.1900
20
163.1300
0
VERTEX
8
CUT
10
195.1900
20
163.1200
0
VERTEX
8
CUT
10
195.2000
20
163.1100
0
VERTEX
8
CUT
10
195.9700
20
162.6100
0
VERTEX
8
CUT
10
197.0400
20
162.3100
0
VERTEX
8
CUT
10
198.1700
20
162.3500
0
VERTEX
8
CUT
10
199.7300
20
162.8500
0
VERTEX
8
CUT
10
201.4500
20
163.8500
0
VERTEX
8
CUT
10
202.8400
20
165.2300
0
VERTEX
8
CUT
10
203.7500
20
166.5400
0
VERTEX
8
CUT
10
204.5200
20
166.5800
0
VERTEX
8
CUT
10
205.0400
20
166.3100
0
VERTEX
8
CUT
10
206.9500
20
164.3800
0
VERTEX
8
CUT
10
207.4200
20
163.2400
0
VERTEX
8
CUT
10
207.4200
20
163.2100
0
VERTEX
8
CUT
10
207.4300
20
163.2000
0
VERTEX
8
CUT
10
207.4400
20
163.1300
0
VERTEX
8
CUT
10
207.4400
20
163.1200
0
VERTEX
8
CUT
10
207.4600
20
163.0300
0
VERTEX
8
CUT
10
207.4600
20
163.0100
0
VERTEX
8
CUT
10
207.4800
20
162.9000
0
VERTEX
8
CUT
10
207.6900
20
161.7200
0
VERTEX
8
CUT
10
207.6900
20
161.7100
0
VERTEX
8
CUT
10
207.6900
20
161.7000
0
VERTEX
8
CUT
10
207.6800
20
161.6600
0
VERTEX
8
CUT
10
207.6800
20
161.6500
0
VERTEX
8
CUT
10
207.6900
20
161.6000
0
VERTEX
8
CUT
10
207.4300
20
160.1200
0
VERTEX
8
CUT
10
206.9400
20
158.8800
0
VERTEX
8
CUT
10
204.8500
20
156.1900
0
VERTEX
8
CUT
10
204.8500
20
156.1500
0
VERTEX
8
CUT
10
204.8700
20
156.0900
0
VERTEX
8
CUT
10
204.8800
20
156.0500
0
VERTEX
8
CUT
10
204.9400
20
155.8900
0
VERTEX
8
CUT
10
205.0300
20
155.6500
0
VERTEX
8
CUT
10
205.0400
20
155.6200
0
VERTEX
8
CUT
10
205.0500
20
155.6000
0
VERTEX
8
CUT
10
205.2700
20
155.2600
0
VERTEX
8
CUT
10
205.2700
20
155.2500
0
VERTEX
8
CUT
10
205.4300
20
155.1700
0
VERTEX
8
CUT
10
205.5000
20
155.1300
0
VERTEX
8
CUT
10
205.5200
20
155.1200
0
VERTEX
8
CUT
10
205.5400
20
155.1100
0
VERTEX
8
CUT
10
205.8600
20
155.0100
0
VERTEX
8
CUT
10
207.2800
20
154.9800
0
VERTEX
8
CUT
10
207.5400
20
154.9800
0
VERTEX
8
CUT
10
208.7400
20
155.4200
0
VERTEX
8
CUT
10
209.6600
20
156.0600
0
VERTEX
8
CUT
10
209.6700
20
156.0700
0
VERTEX
8
CUT
10
209.8800
20
156.2900
0
VERTEX
8
CUT
10
210.7900
20
157.3800
0
VERTEX
8
CUT
10
211.8100
20
159.1800
0
VERTEX
8
CUT
10
212.3300
20
160.9800
0
VERTEX
8
CUT
10
212.4700
20
162.6400
0
VERTEX
8
CUT
10
214.2100
20
162.8200
0
VERTEX
8
CUT
10
216.2100
20
163.5800
0
VERTEX
8
CUT
10
217.8300
20
164.9200
0
VERTEX
8
CUT
10
219.4000
20
167.1900
0
VERTEX
8
CUT
10
219.5400
20
167.3100
0
VERTEX
8
CUT
10
219.5700
20
167.3500
0
VERTEX
8
CUT
10
219.5900
20
167.3600
0
VERTEX
8
CUT
10
219.7600
20
167.5000
0
VERTEX
8
CUT
10
220.1900
20
167.5500
0
VERTEX
8
CUT
10
220.3700
20
167.5500
0
VERTEX
8
CUT
10
220.3900
20
167.5500
0
VERTEX
8
CUT
10
220.6100
20
167.5400
0
VERTEX
8
CUT
10
221.0000
20
167.5300
0
VERTEX
8
CUT
10
221.0200
20
167.5200
0
VERTEX
8
CUT
10
221.0300
20
167.5200
0
VERTEX
8
CUT
10
221.1300
20
167.4700
0
VERTEX
8
CUT
10
221.5100
20
167.2900
0
VERTEX
8
CUT
10
221.5600
20
167.2500
0
VERTEX
8
CUT
10
221.9500
20
167.0500
0
VERTEX
8
CUT
10
222.6800
20
166.3200
0
VERTEX
8
CUT
10
222.8500
20
166.1800
0
VERTEX
8
CUT
10
222.8800
20
166.1200
0
VERTEX
8
CUT
10
222.9200
20
166.0800
0
VERTEX
8
CUT
10
223.0000
20
165.8800
0
VERTEX
8
CUT
10
223.0100
20
165.8700
0
VERTEX
8
CUT
10
223.0200
20
165.8500
0
VERTEX
8
CUT
10
223.0300
20
165.8300
0
VERTEX
8
CUT
10
223.6400
20
164.6600
0
VERTEX
8
CUT
10
223.8500
20
164.0000
0
VERTEX
8
CUT
10
223.8800
20
163.9300
0
VERTEX
8
CUT
10
223.8800
20
163.9000
0
VERTEX
8
CUT
10
223.8800
20
163.8700
0
VERTEX
8
CUT
10
223.9000
20
163.0900
0
VERTEX
8
CUT
10
223.8900
20
162.7900
0
VERTEX
8
CUT
10
223.8900
20
162.7100
0
VERTEX
8
CUT
10
223.8900
20
162.6700
0
VERTEX
8
CUT
10
223.8900
20
162.6600
0
VERTEX
8
CUT
10
223.9000
20
162.2400
0
VERTEX
8
CUT
10
223.8800
20
162.1400
0
VERTEX
8
CUT
10
223.8700
20
161.7400
0
VERTEX
8
CUT
10
223.7200
20
161.4000
0
VERTEX
8
CUT
10
223.6400
20
161.0500
0
VERTEX
8
CUT
10
222.9900
20
159.7900
0
VERTEX
8
CUT
10
222.9800
20
159.7700
0
VERTEX
8
CUT
10
222.9700
20
159.7600
0
VERTEX
8
CUT
10
222.9600
20
159.7400
0
VERTEX
8
CUT
10
222.9000
20
159.6000
0
VERTEX
8
CUT
10
222.8800
20
159.5800
0
VERTEX
8
CUT
10
222.8600
20
159.5400
0
VERTEX
8
CUT
10
222.0900
20
158.7900
0
VERTEX
8
CUT
10
221.7400
20
158.4400
0
VERTEX
8
CUT
10
221.7200
20
158.4300
0
VERTEX
8
CUT
10
221.7100
20
158.4200
0
VERTEX
8
CUT
10
220.2300
20
157.7800
0
VERTEX
8
CUT
10
219.5200
20
157.0200
0
VERTEX
8
CUT
10
219.4900
20
156.9900
0
VERTEX
8
CUT
10
219.4800
20
156.9700
0
VERTEX
8
CUT
10
219.4700
20
156.9600
0
VERTEX
8
CUT
10
219.4500
20
156.9400
0
VERTEX
8
CUT
10
219.4300
20
156.6600
0
VERTEX
8
CUT
10
219.4200
20
156.4100
0
VERTEX
8
CUT
10
219.4200
20
156.3700
0
VERTEX
8
CUT
10
219.4200
20
156.3500
0
VERTEX
8
CUT
10
219.4200
20
156.3400
0
VERTEX
8
CUT
10
219.4200
20
156.3300
0
VERTEX
8
CUT
10
220.2400
20
155.2700
0
VERTEX
8
CUT
10
221.3900
20
154.7200
0
VERTEX
8
CUT
10
222.8900
20
154.7000
0
VERTEX
8
CUT
10
224.0600
20
154.9700
0
VERTEX
8
CUT
10
226.2900
20
156.2400
0
VERTEX
8
CUT
10
227.2400
20
157.1900
0
VERTEX
8
CUT
10
228.3000
20
158.7400
0
VERTEX
8
CUT
10
229.0200
20
160.7000
0
VERTEX
8
CUT
10
229.3100
20
162.4800
0
VERTEX
8
CUT
10
229.5800
20
163.0100
0
VERTEX
8
CUT
10
230.5300
20
163.9500
0
VERTEX
8
CUT
10
232.2400
20
164.4500
0
VERTEX
8
CUT
10
233.4200
20
164.1800
0
VERTEX
8
CUT
10
234.3500
20
163.7100
0
VERTEX
8
CUT
10
235.4500
20
162.6500
0
VERTEX
8
CUT
10
235.8100
20
162.0500
0
VERTEX
8
CUT
10
236.2800
20
161.0700
0
VERTEX
8
CUT
10
236.5600
20
159.4500
0
VERTEX
8
CUT
10
236.5500
20
159.4000
0
VERTEX
8
CUT
10
236.5600
20
159.3400
0
VERTEX
8
CUT
10
236.2800
20
157.9400
0
VERTEX
8
CUT
10
235.6200
20
156.6300
0
VERTEX
8
CUT
10
235.6200
20
155.7800
0
VERTEX
8
CUT
10
235.7400
20
155.5300
0
VERTEX
8
CUT
10
235.7600
20
155.4800
0
VERTEX
8
CUT
10
235.7700
20
155.4800
0
VERTEX
8
CUT
10
235.7700
20
155.4700
0
VERTEX
8
CUT
10
236.3000
20
155.2100
0
VERTEX
8
CUT
10
236.4800
20
155.2000
0
VERTEX
8
CUT
10
236.5500
20
155.2000
0
VERTEX
8
CUT
10
237.0800
20
155.2000
0
VERTEX
8
CUT
10
237.9900
20
155.6400
0
VERTEX
8
CUT
10
238.1400
20
155.7100
0
VERTEX
8
CUT
10
238.1500
20
155.7200
0
VERTEX
8
CUT
10
239.0400
20
156.5400
0
VERTEX
8
CUT
10
239.0600
20
156.5700
0
VERTEX
8
CUT
10
239.1400
20
156.6600
0
VERTEX
8
CUT
10
239.1500
20
156.6700
0
VERTEX
8
CUT
10
240.2000
20
158.4700
0
VERTEX
8
CUT
10
240.7400
20
160.9200
0
VERTEX
8
CUT
10
240.4800
20
163.0400
0
VERTEX
8
CUT
10
239.7300
20
165.1000
0
VERTEX
8
CUT
10
238.5400
20
166.7900
0
VERTEX
8
CUT
10
237.1700
20
168.1000
0
VERTEX
8
CUT
10
234.0000
20
169.9300
0
VERTEX
8
CUT
10
233.9400
20
170.2700
0
VERTEX
8
CUT
10
234.3400
20
171.0900
0
VERTEX
8
CUT
10
235.7800
20
172.5300
0
VERTEX
8
CUT
10
236.9400
20
172.9800
0
VERTEX
8
CUT
10
238.5000
20
173.0200
0
VERTEX
8
CUT
10
240.1200
20
172.5300
0
VERTEX
8
CUT
10
240.9000
20
171.9800
0
VERTEX
8
CUT
10
242.5000
20
170.3400
0
VERTEX
8
CUT
10
243.2000
20
168.7000
0
VERTEX
8
CUT
10
243.3000
20
166.3700
0
VERTEX
8
CUT
10
244.2200
20
165.8900
0
VERTEX
8
CUT
10
245.2700
20
166.4000
0
VERTEX
8
CUT
10
245.3200
20
166.4700
0
VERTEX
8
CUT
10
245.3700
20
166.5300
0
VERTEX
8
CUT
10
245.4500
20
166.6400
0
VERTEX
8
CUT
10
245.6400
20
166.9000
0
VERTEX
8
CUT
10
245.6500
20
166.9100
0
VERTEX
8
CUT
10
245.6500
20
166.9200
0
VERTEX
8
CUT
10
246.0100
20
167.5100
0
VERTEX
8
CUT
10
246.0200
20
167.5200
0
VERTEX
8
CUT
10
246.0300
20
167.5400
0
VERTEX
8
CUT
10
246.0300
20
167.5500
0
VERTEX
8
CUT
10
246.3100
20
168.3400
0
VERTEX
8
CUT
10
246.4200
20
168.7800
0
VERTEX
8
CUT
10
246.4700
20
170.2300
0
VERTEX
8
CUT
10
246.4800
20
170.5300
0
VERTEX
8
CUT
10
246.4800
20
170.5600
0
VERTEX
8
CUT
10
246.4600
20
170.7900
0
VERTEX
8
CUT
10
246.4500
20
170.8200
0
VERTEX
8
CUT
10
246.2200
20
171.9800
0
VERTEX
8
CUT
10
245.9900
20
172.6200
0
VERTEX
8
CUT
10
245.5400
20
173.6900
0
VERTEX
8
CUT
10
245.5100
20
173.7300
0
VERTEX
8
CUT
10
245.3000
20
174.0700
0
VERTEX
8
CUT
10
243.6600
20
175.9800
0
VERTEX
8
CUT
10
243.6500
20
175.9900
0
VERTEX
8
CUT
10
243.6300
20
176.0100
0
VERTEX
8
CUT
10
242.7200
20
176.7200
0
VERTEX
8
CUT
10
242.4600
20
176.9200
0
VERTEX
8
CUT
10
242.4400
20
176.9300
0
VERTEX
8
CUT
10
241.0100
20
177.6400
0
VERTEX
8
CUT
10
240.1500
20
177.9200
0
VERTEX
8
CUT
10
239.1100
20
177.9800
0
VERTEX
8
CUT
10
238.3600
20
178.2400
0
VERTEX
8
CUT
10
237.9500
20
178.6300
0
VERTEX
8
CUT
10
237.8500
20
179.7700
0
VERTEX
8
CUT
10
237.1200
20
182.2200
0
VERTEX
8
CUT
10
236.0100
20
184.1800
0
VERTEX
8
CUT
10
236.0200
20
185.2000
0
VERTEX
8
CUT
10
236.4900
20
186.1400
0
VERTEX
8
CUT
10
237.4100
20
187.0800
0
VERTEX
8
CUT
10
239.0800
20
188.0300
0
VERTEX
8
CUT
10
240.8900
20
188.3000
0
VERTEX
8
CUT
10
242.9600
20
187.8000
0
VERTEX
8
CUT
10
244.2100
20
187.0200
0
VERTEX
8
CUT
10
246.0400
20
185.1900
0
VERTEX
8
CUT
10
246.0500
20
185.1700
0
VERTEX
8
CUT
10
246.0600
20
185.1600
0
VERTEX
8
CUT
10
246.7700
20
183.5000
0
VERTEX
8
CUT
10
246.8700
20
181.9100
0
VERTEX
8
CUT
10
246.8700
20
181.9000
0
VERTEX
8
CUT
10
246.8800
20
181.8900
0
VERTEX
8
CUT
10
246.9700
20
181.6700
0
VERTEX
8
CUT
10
246.9700
20
181.6600
0
VERTEX
8
CUT
10
246.9800
20
181.6400
0
VERTEX
8
CUT
10
246.9900
20
181.6200
0
VERTEX
8
CUT
10
247.1300
20
181.3800
0
VERTEX
8
CUT
10
247.5100
20
181.1300
0
VERTEX
8
CUT
10
247.5200
20
181.1200
0
VERTEX
8
CUT
10
247.6100
20
181.0900
0
VERTEX
8
CUT
10
247.7300
20
181.0500
0
VERTEX
8
CUT
10
247.8000
20
181.0200
0
VERTEX
8
CUT
10
247.9900
20
180.9500
0
VERTEX
8
CUT
10
248.1300
20
180.9300
0
VERTEX
8
CUT
10
248.1600
20
180.9500
0
VERTEX
8
CUT
10
248.4600
20
181.0900
0
VERTEX
8
CUT
10
248.6000
20
181.1600
0
VERTEX
8
CUT
10
249.0600
20
181.3900
0
VERTEX
8
CUT
10
249.1500
20
181.4800
0
VERTEX
8
CUT
10
249.8100
20
182.2900
0
VERTEX
8
CUT
10
249.8900
20
182.3800
0
VERTEX
8
CUT
10
249.9300
20
182.4300
0
VERTEX
8
CUT
10
249.9700
20
182.4800
0
VERTEX
8
CUT
10
249.9700
20
182.4900
0
VERTEX
8
CUT
10
250.3000
20
183.0400
0
VERTEX
8
CUT
10
250.7300
20
184.3800
0
VERTEX
8
CUT
10
250.7300
20
184.3900
0
VERTEX
8
CUT
10
250.7400
20
186.0400
0
VERTEX
8
CUT
10
250.2200
20
187.9900
0
VERTEX
8
CUT
10
248.9700
20
190.2300
0
VERTEX
8
CUT
10
248.2500
20
191.1200
0
VERTEX
8
CUT
10
246.7800
20
192.6100
0
VERTEX
8
CUT
10
246.7700
20
192.6200
0
VERTEX
8
CUT
10
245.3000
20
193.6200
0
VERTEX
8
CUT
10
243.3900
20
194.5900
0
VERTEX
8
CUT
10
241.2300
20
195.2400
0
VERTEX
8
CUT
10
241.1600
20
195.2600
0
VERTEX
8
CUT
10
241.1100
20
195.2700
0
VERTEX
8
CUT
10
241.0300
20
195.2900
0
VERTEX
8
CUT
10
240.8800
20
195.3200
0
VERTEX
8
CUT
10
237.4500
20
195.3500
0
VERTEX
8
CUT
10
236.6900
20
195.3500
0
VERTEX
8
CUT
10
235.2100
20
195.1000
0
VERTEX
8
CUT
10
235.2000
20
195.0900
0
VERTEX
8
CUT
10
232.0100
20
193.6300
0
VERTEX
8
CUT
10
230.3100
20
192.2600
0
VERTEX
8
CUT
10
229.8600
20
192.3600
0
VERTEX
8
CUT
10
229.8600
20
192.3800
0
VERTEX
8
CUT
10
229.8500
20
192.3800
0
VERTEX
8
CUT
10
229.8400
20
193.4000
0
VERTEX
8
CUT
10
229.8300
20
193.5800
0
VERTEX
8
CUT
10
229.8300
20
193.6800
0
VERTEX
8
CUT
10
229.8300
20
193.7600
0
VERTEX
8
CUT
10
229.7800
20
195.8400
0
VERTEX
8
CUT
10
229.8000
20
195.9400
0
VERTEX
8
CUT
10
229.8000
20
196.0400
0
VERTEX
8
CUT
10
229.8900
20
196.3600
0
VERTEX
8
CUT
10
229.9000
20
196.4100
0
VERTEX
8
CUT
10
230.0400
20
197.1100
0
VERTEX
8
CUT
10
230.1600
20
197.3700
0
VERTEX
8
CUT
10
230.1700
20
197.3900
0
VERTEX
8
CUT
10
230.2800
20
197.8100
0
VERTEX
8
CUT
10
230.9600
20
199.1500
0
VERTEX
8
CUT
10
231.0000
20
199.2300
0
VERTEX
8
CUT
10
231.0100
20
199.2400
0
VERTEX
8
CUT
10
231.0200
20
199.2600
0
VERTEX
8
CUT
10
232.6800
20
200.9100
0
VERTEX
8
CUT
10
233.6100
20
201.3900
0
VERTEX
8
CUT
10
234.5900
20
201.6400
0
VERTEX
8
CUT
10
235.8500
20
201.6200
0
VERTEX
8
CUT
10
237.5200
20
200.4400
0
VERTEX
8
CUT
10
238.7900
20
198.2500
0
VERTEX
8
CUT
10
239.5300
20
197.8600
0
VERTEX
8
CUT
10
240.4400
20
198.2700
0
VERTEX
8
CUT
10
241.1600
20
199.2700
0
VERTEX
8
CUT
10
241.4500
20
200.4200
0
VERTEX
8
CUT
10
241.4400
20
201.1900
0
VERTEX
8
CUT
10
241.1600
20
202.3000
0
VERTEX
8
CUT
10
240.4400
20
203.7300
0
VERTEX
8
CUT
10
238.9600
20
205.4700
0
VERTEX
8
CUT
10
236.0000
20
207.2200
0
VERTEX
8
CUT
10
234.4800
20
207.7300
0
VERTEX
8
CUT
10
232.6500
20
208.0000
0
VERTEX
8
CUT
10
230.3000
20
207.9800
0
VERTEX
8
CUT
10
227.7900
20
207.5000
0
VERTEX
8
CUT
10
226.2700
20
206.9800
0
VERTEX
8
CUT
10
223.9000
20
205.8000
0
VERTEX
8
CUT
10
220.0600
20
203.0300
0
VERTEX
8
CUT
10
219.6900
20
202.8400
0
VERTEX
8
CUT
10
219.6000
20
202.7800
0
VERTEX
8
CUT
10
219.0800
20
202.5300
0
VERTEX
8
CUT
10
218.6400
20
202.3100
0
VERTEX
8
CUT
10
217.4500
20
202.0700
0
VERTEX
8
CUT
10
217.2700
20
202.0700
0
VERTEX
8
CUT
10
217.2600
20
202.0700
0
VERTEX
8
CUT
10
217.2500
20
202.0700
0
VERTEX
8
CUT
10
217.1000
20
202.0400
0
VERTEX
8
CUT
10
215.9200
20
202.0600
0
VERTEX
8
CUT
10
215.5900
20
202.0600
0
VERTEX
8
CUT
10
215.5600
20
202.0700
0
VERTEX
8
CUT
10
215.5500
20
202.0700
0
VERTEX
8
CUT
10
215.5400
20
202.0700
0
VERTEX
8
CUT
10
215.4800
20
202.0700
0
VERTEX
8
CUT
10
214.6000
20
202.2500
0
VERTEX
8
CUT
10
214.2900
20
202.3100
0
VERTEX
8
CUT
10
214.2800
20
202.3200
0
VERTEX
8
CUT
10
214.2600
20
202.3200
0
VERTEX
8
CUT
10
212.1400
20
203.8800
0
VERTEX
8
CUT
10
210.2100
20
204.7300
0
VERTEX
8
CUT
10
210.1700
20
204.7500
0
VERTEX
8
CUT
10
210.1300
20
204.7900
0
VERTEX
8
CUT
10
210.1100
20
204.8000
0
VERTEX
8
CUT
10
209.6000
20
205.3200
0
VERTEX
8
CUT
10
209.0900
20
205.8200
0
VERTEX
8
CUT
10
208.9900
20
205.9500
0
VERTEX
8
CUT
10
208.9700
20
205.9700
0
VERTEX
8
CUT
10
208.6200
20
206.3200
0
VERTEX
8
CUT
10
208.6200
20
206.3300
0
VERTEX
8
CUT
10
208.3400
20
206.7700
0
VERTEX
8
CUT
10
208.0900
20
207.0800
0
VERTEX
8
CUT
10
208.0000
20
207.3200
0
VERTEX
8
CUT
10
207.9900
20
207.3300
0
VERTEX
8
CUT
10
207.8700
20
207.5300
0
VERTEX
8
CUT
10
207.8700
20
207.5400
0
VERTEX
8
CUT
10
207.8500
20
207.5700
0
VERTEX
8
CUT
10
207.3700
20
209.0700
0
VERTEX
8
CUT
10
207.3700
20
209.1000
0
VERTEX
8
CUT
10
207.3600
20
209.1300
0
VERTEX
8
CUT
10
207.3700
20
209.3900
0
VERTEX
8
CUT
10
207.3700
20
209.4400
0
VERTEX
8
CUT
10
207.3700
20
209.5000
0
VERTEX
8
CUT
10
207.3700
20
209.5100
0
VERTEX
8
CUT
10
207.3600
20
211.0400
0
VERTEX
8
CUT
10
207.4100
20
211.2400
0
VERTEX
8
CUT
10
207.4200
20
211.4300
0
VERTEX
8
CUT
10
207.4800
20
211.4800
0
VERTEX
8
CUT
10
207.5100
20
211.5800
0
VERTEX
8
CUT
10
208.1100
20
212.1400
0
VERTEX
8
CUT
10
208.4800
20
212.3100
0
VERTEX
8
CUT
10
208.4900
20
212.3100
0
VERTEX
8
CUT
10
208.5500
20
212.3700
0
VERTEX
8
CUT
10
209.1200
20
212.6100
0
VERTEX
8
CUT
10
209.1400
20
212.6200
0
VERTEX
8
CUT
10
210.9500
20
212.6100
0
VERTEX
8
CUT
10
211.7400
20
212.3600
0
VERTEX
8
CUT
10
211.9600
20
212.2300
0
VERTEX
8
CUT
10
212.1900
20
212.1400
0
VERTEX
8
CUT
10
212.6500
20
211.8100
0
VERTEX
8
CUT
10
212.6700
20
211.8000
0
VERTEX
8
CUT
10
212.6800
20
211.7900
0
VERTEX
8
CUT
10
212.7000
20
211.7700
0
VERTEX
8
CUT
10
212.7500
20
211.7400
0
VERTEX
8
CUT
10
212.9400
20
211.6300
0
VERTEX
8
CUT
10
212.9800
20
211.5800
0
VERTEX
8
CUT
10
213.1300
20
211.4700
0
VERTEX
8
CUT
10
213.8600
20
210.4600
0
VERTEX
8
CUT
10
213.9800
20
210.1700
0
VERTEX
8
CUT
10
214.0800
20
210.0200
0
VERTEX
8
CUT
10
214.3200
20
209.3000
0
VERTEX
8
CUT
10
214.3400
20
209.2500
0
VERTEX
8
CUT
10
214.3400
20
209.2400
0
VERTEX
8
CUT
10
214.3500
20
209.2100
0
VERTEX
8
CUT
10
214.4000
20
208.2000
0
VERTEX
8
CUT
10
214.4000
20
208.1900
0
VERTEX
8
CUT
10
214.6600
20
207.6100
0
VERTEX
8
CUT
10
214.7800
20
207.5400
0
VERTEX
8
CUT
10
214.9000
20
207.4800
0
VERTEX
8
CUT
10
215.4900
20
207.2000
0
VERTEX
8
CUT
10
215.5000
20
207.2000
0
VERTEX
8
CUT
10
215.8200
20
207.3200
0
VERTEX
8
CUT
10
215.8300
20
207.3200
0
VERTEX
8
CUT
10
215.8500
20
207.3300
0
VERTEX
8
CUT
10
215.8600
20
207.3400
0
VERTEX
8
CUT
10
216.2500
20
207.6100
0
VERTEX
8
CUT
10
216.6500
20
207.8900
0
VERTEX
8
CUT
10
216.6600
20
207.9000
0
VERTEX
8
CUT
10
216.6700
20
207.9100
0
VERTEX
8
CUT
10
216.6800
20
207.9200
0
VERTEX
8
CUT
10
216.6900
20
207.9300
0
VERTEX
8
CUT
10
216.7200
20
207.9500
0
VERTEX
8
CUT
10
216.7300
20
207.9700
0
VERTEX
8
CUT
10
216.9300
20
208.3600
0
VERTEX
8
CUT
10
217.5200
20
209.5200
0
VERTEX
8
CUT
10
217.5300
20
209.5300
0
VERTEX
8
CUT
10
217.5300
20
209.5400
0
VERTEX
8
CUT
10
217.5500
20
209.6700
0
VERTEX
8
CUT
10
217.5500
20
209.7000
0
VERTEX
8
CUT
10
217.5600
20
209.7400
0
VERTEX
8
CUT
10
217.5800
20
211.9100
0
VERTEX
8
CUT
10
217.5800
20
211.9200
0
VERTEX
8
CUT
10
217.0600
20
213.5200
0
VERTEX
8
CUT
10
215.9800
20
215.0900
0
VERTEX
8
CUT
10
215.0700
20
215.9700
0
VERTEX
8
CUT
10
212.3700
20
217.4900
0
VERTEX
8
CUT
10
210.7400
20
217.7500
0
VERTEX
8
CUT
10
208.0800
20
217.7700
0
VERTEX
8
CUT
10
207.9600
20
217.7500
0
VERTEX
8
CUT
10
207.9500
20
217.7500
0
VERTEX
8
CUT
10
207.9400
20
217.7500
0
VERTEX
8
CUT
10
207.9200
20
217.7400
0
VERTEX
8
CUT
10
207.9100
20
217.7400
0
VERTEX
8
CUT
10
207.3500
20
217.5600
0
VERTEX
8
CUT
10
206.8500
20
217.5600
0
VERTEX
8
CUT
10
206.7900
20
217.5500
0
VERTEX
8
CUT
10
206.7400
20
217.5600
0
VERTEX
8
CUT
10
206.5300
20
217.5600
0
VERTEX
8
CUT
10
205.4600
20
217.8200
0
VERTEX
8
CUT
10
204.5600
20
218.2800
0
VERTEX
8
CUT
10
204.3900
20
218.4400
0
VERTEX
8
CUT
10
204.3000
20
218.5000
0
VERTEX
8
CUT
10
202.9900
20
219.8100
0
VERTEX
8
CUT
10
202.9400
20
219.8900
0
VERTEX
8
CUT
10
202.8300
20
220.0000
0
VERTEX
8
CUT
10
202.7600
20
220.1800
0
VERTEX
8
CUT
10
202.6100
20
220.4200
0
VERTEX
8
CUT
10
202.5500
20
220.7300
0
VERTEX
8
CUT
10
202.5400
20
220.7600
0
VERTEX
8
CUT
10
202.5300
20
220.7900
0
VERTEX
8
CUT
10
202.5300
20
220.8000
0
VERTEX
8
CUT
10
202.5200
20
220.8200
0
VERTEX
8
CUT
10
202.3700
20
221.1800
0
VERTEX
8
CUT
10
202.3700
20
221.5000
0
VERTEX
8
CUT
10
202.3700
20
221.5100
0
VERTEX
8
CUT
10
202.3700
20
221.5200
0
VERTEX
8
CUT
10
202.3500
20
221.5900
0
VERTEX
8
CUT
10
202.3600
20
222.0700
0
VERTEX
8
CUT
10
202.3600
20
222.2800
0
VERTEX
8
CUT
10
202.3600
20
222.3300
0
VERTEX
8
CUT
10
202.3700
20
222.3500
0
VERTEX
8
CUT
10
202.3700
20
222.3700
0
VERTEX
8
CUT
10
202.6000
20
222.8800
0
VERTEX
8
CUT
10
202.7200
20
223.0300
0
VERTEX
8
CUT
10
202.7500
20
223.0800
0
VERTEX
8
CUT
10
202.8000
20
223.1800
0
VERTEX
8
CUT
10
202.8300
20
223.2400
0
VERTEX
8
CUT
10
202.8500
20
223.2700
0
VERTEX
8
CUT
10
202.9000
20
223.4000
0
VERTEX
8
CUT
10
202.9100
20
223.4100
0
VERTEX
8
CUT
10
202.9200
20
223.4100
0
VERTEX
8
CUT
10
202.9400
20
223.4600
0
VERTEX
8
CUT
10
203.2600
20
223.7100
0
VERTEX
8
CUT
10
203.5100
20
224.0200
0
VERTEX
8
CUT
10
203.8300
20
224.1500
0
VERTEX
8
CUT
10
203.8400
20
224.1600
0
VERTEX
8
CUT
10
204.0200
20
224.3000
0
VERTEX
8
CUT
10
204.5600
20
224.4600
0
VERTEX
8
CUT
10
204.7600
20
224.5400
0
VERTEX
8
CUT
10
204.8400
20
224.5400
0
VERTEX
8
CUT
10
204.8700
20
224.5500
0
VERTEX
8
CUT
10
204.8800
20
224.5500
0
VERTEX
8
CUT
10
204.9200
20
224.5500
0
VERTEX
8
CUT
10
206.6600
20
224.5100
0
VERTEX
8
CUT
10
206.6800
20
224.5000
0
VERTEX
8
CUT
10
206.7100
20
224.5000
0
VERTEX
8
CUT
10
208.3500
20
223.8300
0
VERTEX
8
CUT
10
208.3800
20
223.8100
0
VERTEX
8
CUT
10
208.4000
20
223.8000
0
VERTEX
8
CUT
10
208.4600
20
223.7500
0
VERTEX
8
CUT
10
208.4700
20
223.7400
0
VERTEX
8
CUT
10
209.3800
20
223.0700
0
VERTEX
8
CUT
10
209.5600
20
222.8800
0
VERTEX
8
CUT
10
209.5700
20
222.8700
0
VERTEX
8
CUT
10
209.5800
20
222.8600
0
VERTEX
8
CUT
10
209.7500
20
222.7300
0
VERTEX
8
CUT
10
209.8200
20
222.6200
0
VERTEX
8
CUT
10
209.8600
20
222.5700
0
VERTEX
8
CUT
10
209.8700
20
222.5600
0
VERTEX
8
CUT
10
209.8800
20
222.5600
0
VERTEX
8
CUT
10
209.8900
20
222.5500
0
VERTEX
8
CUT
10
209.9400
20
222.5100
0
VERTEX
8
CUT
10
209.9700
20
222.4700
0
VERTEX
8
CUT
10
210.0200
20
222.4100
0
VERTEX
8
CUT
10
210.3100
20
221.9000
0
VERTEX
8
CUT
10
210.3200
20
221.8900
0
VERTEX
8
CUT
10
210.3300
20
221.8700
0
VERTEX
8
CUT
10
210.9300
20
220.8900
0
VERTEX
8
CUT
10
210.9300
20
220.8800
0
VERTEX
8
CUT
10
210.9400
20
220.8800
0
VERTEX
8
CUT
10
211.7800
20
220.5600
0
VERTEX
8
CUT
10
211.8800
20
220.5800
0
VERTEX
8
CUT
10
211.9500
20
220.5900
0
VERTEX
8
CUT
10
211.9600
20
220.5900
0
VERTEX
8
CUT
10
212.0300
20
220.6000
0
VERTEX
8
CUT
10
212.0400
20
220.6100
0
VERTEX
8
CUT
10
212.1500
20
220.7000
0
VERTEX
8
CUT
10
212.3400
20
220.8500
0
VERTEX
8
CUT
10
213.0000
20
221.4400
0
VERTEX
8
CUT
10
213.1300
20
221.6800
0
VERTEX
8
CUT
10
213.1300
20
221.6900
0
VERTEX
8
CUT
10
213.2800
20
222.2900
0
VERTEX
8
CUT
10
213.2800
20
222.6200
0
VERTEX
8
CUT
10
213.2800
20
222.7600
0
VERTEX
8
CUT
10
213.2900
20
222.9400
0
VERTEX
8
CUT
10
213.2900
20
223.2300
0
VERTEX
8
CUT
10
213.2900
20
223.3200
0
VERTEX
8
CUT
10
213.2900
20
223.3900
0
VERTEX
8
CUT
10
213.2900
20
223.4400
0
VERTEX
8
CUT
10
213.2600
20
224.1600
0
VERTEX
8
CUT
10
212.8600
20
225.1800
0
VERTEX
8
CUT
10
212.8500
20
225.2000
0
VERTEX
8
CUT
10
212.7800
20
225.3100
0
VERTEX
8
CUT
10
212.3300
20
226.0200
0
VERTEX
8
CUT
10
212.3200
20
226.0400
0
VERTEX
8
CUT
10
212.3100
20
226.0500
0
VERTEX
8
CUT
10
212.2900
20
226.0700
0
VERTEX
8
CUT
10
212.2000
20
226.1900
0
VERTEX
8
CUT
10
212.0200
20
226.4200
0
VERTEX
8
CUT
10
212.0200
20
226.4300
0
VERTEX
8
CUT
10
211.8100
20
226.6400
0
VERTEX
8
CUT
10
211.7600
20
226.6900
0
VERTEX
8
CUT
10
211.4800
20
226.9600
0
VERTEX
8
CUT
10
210.7200
20
227.7100
0
VERTEX
8
CUT
10
209.8200
20
228.6000
0
VERTEX
8
CUT
10
208.0700
20
229.6200
0
VERTEX
8
CUT
10
207.6100
20
229.8900
0
VERTEX
8
CUT
10
207.5800
20
229.9000
0
VERTEX
8
CUT
10
207.5600
20
229.9100
0
VERTEX
8
CUT
10
205.1100
20
230.6400
0
VERTEX
8
CUT
10
203.8600
20
230.6800
0
VERTEX
8
CUT
10
203.2100
20
230.8800
0
VERTEX
8
CUT
10
200.8700
20
230.9200
0
VERTEX
8
CUT
10
200.8500
20
230.9200
0
VERTEX
8
CUT
10
200.8300
20
230.9200
0
VERTEX
8
CUT
10
200.8100
20
230.9200
0
VERTEX
8
CUT
10
200.8000
20
230.9200
0
VERTEX
8
CUT
10
200.7900
20
230.9200
0
VERTEX
8
CUT
10
199.6100
20
230.9300
0
VERTEX
8
CUT
10
199.5800
20
230.9400
0
VERTEX
8
CUT
10
199.5100
20
230.9400
0
VERTEX
8
CUT
10
199.3400
20
231.0100
0
VERTEX
8
CUT
10
198.7600
20
231.1900
0
VERTEX
8
CUT
10
198.4300
20
231.4000
0
VERTEX
8
CUT
10
198.4200
20
231.4000
0
VERTEX
8
CUT
10
197.8400
20
231.6500
0
VERTEX
8
CUT
10
197.0400
20
232.2700
0
VERTEX
8
CUT
10
197.0100
20
232.3000
0
VERTEX
8
CUT
10
196.9900
20
232.3100
0
VERTEX
8
CUT
10
196.9600
20
232.3300
0
VERTEX
8
CUT
10
196.7800
20
232.4400
0
VERTEX
8
CUT
10
196.7400
20
232.5000
0
VERTEX
8
CUT
10
196.7300
20
232.5100
0
VERTEX
8
CUT
10
196.6300
20
232.5800
0
VERTEX
8
CUT
10
196.5900
20
232.6400
0
VERTEX
8
CUT
10
196.5800
20
232.6400
0
VERTEX
8
CUT
10
196.5600
20
232.6600
0
VERTEX
8
CUT
10
195.8600
20
233.6600
0
VERTEX
8
CUT
10
195.7900
20
233.7700
0
VERTEX
8
CUT
10
195.6600
20
233.9500
0
VERTEX
8
CUT
10
195.4600
20
234.2300
0
VERTEX
8
CUT
10
195.4500
20
234.2400
0
VERTEX
8
CUT
10
195.4100
20
234.2900
0
VERTEX
8
CUT
10
195.3500
20
234.3800
0
VERTEX
8
CUT
10
195.2600
20
234.5100
0
VERTEX
8
CUT
10
195.0300
20
234.8300
0
VERTEX
8
CUT
10
195.0100
20
234.8500
0
VERTEX
8
CUT
10
194.9800
20
234.8800
0
VERTEX
8
CUT
10
194.9500
20
234.9200
0
VERTEX
8
CUT
10
194.7900
20
235.0800
0
VERTEX
8
CUT
10
193.6900
20
236.1800
0
VERTEX
8
CUT
10
193.5900
20
236.2800
0
VERTEX
8
CUT
10
191.1400
20
238.4700
0
VERTEX
8
CUT
10
189.0000
20
239.6400
0
VERTEX
8
CUT
10
188.4300
20
239.9000
0
VERTEX
8
CUT
10
188.0800
20
240.0500
0
VERTEX
8
CUT
10
188.0400
20
240.0700
0
VERTEX
8
CUT
10
186.3200
20
240.6400
0
VERTEX
8
CUT
10
184.5900
20
241.0700
0
VERTEX
8
CUT
10
184.5800
20
241.0700
0
VERTEX
8
CUT
10
184.5700
20
241.0800
0
VERTEX
8
CUT
10
184.5600
20
241.0800
0
VERTEX
8
CUT
10
184.4100
20
241.1000
0
VERTEX
8
CUT
10
184.3100
20
241.1200
0
VERTEX
8
CUT
10
184.2600
20
241.1300
0
VERTEX
8
CUT
10
180.1400
20
241.2500
0
VERTEX
8
CUT
10
180.1200
20
241.2700
0
VERTEX
8
CUT
10
180.1100
20
241.2700
0
VERTEX
8
CUT
10
179.7400
20
241.6200
0
VERTEX
8
CUT
10
179.2600
20
242.8100
0
VERTEX
8
CUT
10
178.6500
20
243.7700
0
VERTEX
8
CUT
10
178.5700
20
243.8800
0
VERTEX
8
CUT
10
177.9000
20
244.5700
0
VERTEX
8
CUT
10
177.4300
20
245.0400
0
VERTEX
8
CUT
10
177.4100
20
245.0600
0
VERTEX
8
CUT
10
177.3800
20
245.0900
0
VERTEX
8
CUT
10
177.2900
20
245.1500
0
VERTEX
8
CUT
10
177.2700
20
245.1600
0
VERTEX
8
CUT
10
177.2400
20
245.1800
0
VERTEX
8
CUT
10
177.1400
20
245.2400
0
VERTEX
8
CUT
10
176.8200
20
245.4400
0
VERTEX
8
CUT
10
176.7100
20
245.5100
0
VERTEX
8
CUT
10
176.5900
20
245.5900
0
VERTEX
8
CUT
10
176.2100
20
245.8300
0
VERTEX
8
CUT
10
176.1700
20
245.8500
0
VERTEX
8
CUT
10
176.1300
20
245.8700
0
VERTEX
8
CUT
10
172.7900
20
247.5400
0
VERTEX
8
CUT
10
169.3600
20
248.7600
0
VERTEX
8
CUT
10
166.4900
20
249.3700
0
VERTEX
8
CUT
10
163.9200
20
249.7300
0
VERTEX
8
CUT
10
161.0800
20
249.7400
0
VERTEX
8
CUT
10
160.1900
20
249.7400
0
VERTEX
8
CUT
10
159.7400
20
249.7400
0
VERTEX
8
CUT
10
159.4700
20
249.7400
0
VERTEX
8
CUT
10
158.3400
20
249.7300
0
VERTEX
8
CUT
10
158.2600
20
249.7200
0
VERTEX
8
CUT
10
157.4900
20
249.5400
0
VERTEX
8
CUT
10
156.7900
20
249.5200
0
VERTEX
8
CUT
10
156.7800
20
249.5100
0
VERTEX
8
CUT
10
156.7700
20
249.5100
0
VERTEX
8
CUT
10
156.7500
20
249.5100
0
VERTEX
8
CUT
10
154.6400
20
249.1700
0
VERTEX
8
CUT
10
154.5500
20
249.1600
0
VERTEX
8
CUT
10
154.5200
20
249.1500
0
VERTEX
8
CUT
10
154.4700
20
249.1400
0
VERTEX
8
CUT
10
152.8400
20
248.7800
0
VERTEX
8
CUT
10
148.7200
20
247.6300
0
VERTEX
8
CUT
10
147.5100
20
247.5900
0
VERTEX
8
CUT
10
147.0300
20
247.4100
0
VERTEX
8
CUT
10
146.9900
20
247.4100
0
VERTEX
8
CUT
10
145.6100
20
247.4000
0
VERTEX
8
CUT
10
137.3600
20
247.3500
0
VERTEX
8
CUT
10
136.3800
20
247.2600
0
VERTEX
8
CUT
10
133.8000
20
246.9600
0
VERTEX
8
CUT
10
131.6400
20
246.5800
0
VERTEX
8
CUT
10
131.1000
20
246.4600
0
VERTEX
8
CUT
10
130.7500
20
246.3900
0
VERTEX
8
CUT
10
130.6300
20
246.3600
0
VERTEX
8
CUT
10
129.8900
20
246.2000
0
VERTEX
8
CUT
10
129.8700
20
246.1900
0
VERTEX
8
CUT
10
129.8600
20
246.1900
0
VERTEX
8
CUT
10
129.8400
20
246.1800
0
VERTEX
8
CUT
10
126.8100
20
245.2700
0
VERTEX
8
CUT
10
126.7700
20
245.2500
0
VERTEX
8
CUT
10
126.7400
20
245.2400
0
VERTEX
8
CUT
10
126.7300
20
245.2400
0
VERTEX
8
CUT
10
123.8900
20
244.2000
0
VERTEX
8
CUT
10
121.0900
20
242.8800
0
VERTEX
8
CUT
10
120.0000
20
242.2500
0
VERTEX
8
CUT
10
118.2600
20
241.2100
0
VERTEX
8
CUT
10
117.6300
20
240.8300
0
VERTEX
8
CUT
10
117.6200
20
240.8300
0
VERTEX
8
CUT
10
117.6100
20
240.8200
0
VERTEX
8
CUT
10
117.5900
20
240.8100
0
VERTEX
8
CUT
10
113.8500
20
237.9100
0
VERTEX
8
CUT
10
110.7500
20
234.9400
0
VERTEX
8
CUT
10
109.6600
20
234.0300
0
VERTEX
8
CUT
10
109.0200
20
233.4400
0
VERTEX
8
CUT
10
108.5000
20
233.0700
0
VERTEX
8
CUT
10
108.4600
20
233.0400
0
VERTEX
8
CUT
10
108.4100
20
233.0000
0
VERTEX
8
CUT
10
108.3900
20
232.9800
0
VERTEX
8
CUT
10
108.3600
20
232.9600
0
VERTEX
8
CUT
10
107.9600
20
232.6200
0
VERTEX
8
CUT
10
107.7000
20
232.4700
0
VERTEX
8
CUT
10
107.2500
20
232.1400
0
VERTEX
8
CUT
10
106.8700
20
231.9900
0
VERTEX
8
CUT
10
106.8600
20
231.9900
0
VERTEX
8
CUT
10
106.8400
20
231.9800
0
VERTEX
8
CUT
10
106.8100
20
231.9700
0
VERTEX
8
CUT
10
106.3100
20
231.6700
0
VERTEX
8
CUT
10
104.6100
20
231.0800
0
VERTEX
8
CUT
10
101.7400
20
229.6500
0
VERTEX
8
CUT
10
101.7000
20
229.6300
0
VERTEX
8
CUT
10
101.6600
20
229.6100
0
VERTEX
8
CUT
10
101.6300
20
229.5900
0
VERTEX
8
CUT
10
101.4500
20
229.4800
0
VERTEX
8
CUT
10
100.8900
20
229.1100
0
VERTEX
8
CUT
10
100.6900
20
228.9800
0
VERTEX
8
CUT
10
100.4700
20
228.8400
0
VERTEX
8
CUT
10
100.4600
20
228.8300
0
VERTEX
8
CUT
10
100.4300
20
228.8100
0
VERTEX
8
CUT
10
100.3900
20
228.7900
0
VERTEX
8
CUT
10
100.3600
20
228.7700
0
VERTEX
8
CUT
10
99.4900
20
228.1500
0
VERTEX
8
CUT
10
99.4800
20
228.1400
0
VERTEX
8
CUT
10
97.1800
20
226.2100
0
VERTEX
8
CUT
10
97.1600
20
226.2000
0
VERTEX
8
CUT
10
97.1500
20
226.1900
0
VERTEX
8
CUT
10
97.1400
20
226.1800
0
VERTEX
8
CUT
10
97.1300
20
226.1800
0
VERTEX
8
CUT
10
97.0600
20
226.1100
0
VERTEX
8
CUT
10
97.0100
20
226.0600
0
VERTEX
8
CUT
10
96.9200
20
225.9800
0
VERTEX
8
CUT
10
96.8900
20
225.9600
0
VERTEX
8
CUT
10
96.7800
20
225.8600
0
VERTEX
8
CUT
10
96.7600
20
225.8400
0
VERTEX
8
CUT
10
96.7500
20
225.8300
0
VERTEX
8
CUT
10
96.7400
20
225.8200
0
VERTEX
8
CUT
10
96.6700
20
225.7600
0
VERTEX
8
CUT
10
87.1200
20
216.3100
0
VERTEX
8
CUT
10
84.7000
20
214.1200
0
VERTEX
8
CUT
10
81.0200
20
211.3900
0
VERTEX
8
CUT
10
77.8600
20
209.5700
0
VERTEX
8
CUT
10
77.8400
20
209.5600
0
VERTEX
8
CUT
10
77.6400
20
209.4000
0
VERTEX
8
CUT
10
77.4600
20
209.2500
0
VERTEX
8
CUT
10
77.2700
20
209.0900
0
VERTEX
8
CUT
10
77.2300
20
209.0600
0
VERTEX
8
CUT
10
76.4400
20
208.4100
0
VERTEX
8
CUT
10
76.4200
20
208.4000
0
VERTEX
8
CUT
10
73.8700
20
206.3100
0
VERTEX
8
CUT
10
71.6000
20
204.0400
0
VERTEX
8
CUT
10
71.4200
20
203.8600
0
VERTEX
8
CUT
10
71.0700
20
203.5100
0
VERTEX
8
CUT
10
70.2900
20
202.7200
0
VERTEX
8
CUT
10
70.2900
20
202.7100
0
VERTEX
8
CUT
10
67.3400
20
199.0700
0
VERTEX
8
CUT
10
64.1800
20
194.7000
0
VERTEX
8
CUT
10
59.4900
20
187.4800
0
VERTEX
8
CUT
10
54.9700
20
181.0500
0
VERTEX
8
CUT
10
50.1500
20
175.0300
0
VERTEX
8
CUT
10
49.9300
20
174.8700
0
VERTEX
8
CUT
10
49.7500
20
174.6500
0
VERTEX
8
CUT
10
49.3400
20
174.4400
0
VERTEX
8
CUT
10
49.2800
20
174.4000
0
VERTEX
8
CUT
10
46.9100
20
173.2200
0
VERTEX
8
CUT
10
43.0500
20
171.7700
0
VERTEX
8
CUT
10
38.9500
20
170.8200
0
VERTEX
8
CUT
10
36.8800
20
170.5700
0
VERTEX
8
CUT
10
36.7700
20
170.5700
0
VERTEX
8
CUT
10
29.6400
20
170.5700
0
VERTEX
8
CUT
10
27.5700
20
170.8200
0
VERTEX
8
CUT
10
23.0100
20
171.7700
0
VERTEX
8
CUT
10
19.4100
20
172.9600
0
VERTEX
8
CUT
10
17.6800
20
173.7300
0
VERTEX
8
CUT
10
17.5300
20
173.7400
0
VERTEX
8
CUT
10
17.5300
20
254.8000
0
VERTEX
8
CUT
10
382.4700
20
254.8000
0
VERTEX
8
CUT
10
382.4700
20
163.8400
0
VERTEX
8
CUT
10
382.4700
20
163.8300
0
VERTEX
8
CUT
10
382.1200
20
163.8400
0
VERTEX
8
CUT
10
381.6400
20
163.6400
0
VERTEX
8
CUT
10
381.6000
20
163.6200
0
VERTEX
8
CUT
10
381.5900
20
163.6200
0
VERTEX
8
CUT
10
381.5700
20
163.6100
0
VERTEX
8
CUT
10
381.5600
20
163.6000
0
VERTEX
8
CUT
10
380.5300
20
163.1500
0
SEQEND
0
POLYLINE
8
CUT
66
1
70
1
10
0.0
20
0.0
30
0.0
0
VERTEX
8
CUT
10
221.3700
20
33.2900
0
VERTEX
8
CUT
10
226.4400
20
32.3200
0
VERTEX
8
CUT
10
227.4200
20
32.2800
0
VERTEX
8
CUT
10
227.8700
20
32.0800
0
VERTEX
8
CUT
10
228.8500
20
32.0400
0
VERTEX
8
CUT
10
230.5400
20
31.6000
0
VERTEX
8
CUT
10
234.0800
20
31.3300
0
VERTEX
8
CUT
10
236.5300
20
30.8900
0
VERTEX
8
CUT
10
238.3600
20
30.8500
0
VERTEX
8
CUT
10
238.9300
20
30.6500
0
VERTEX
8
CUT
10
240.5100
20
30.6100
0
VERTEX
8
CUT
10
241.0400
20
30.4100
0
VERTEX
8
CUT
10
243.1300
20
30.3700
0
VERTEX
8
CUT
10
243.6800
20
30.1700
0
VERTEX
8
CUT
10
255.9300
20
29.4700
0
VERTEX
8
CUT
10
264.4300
20
29.4600
0
VERTEX
8
CUT
10
273.4200
20
29.9300
0
VERTEX
8
CUT
10
273.9800
20
30.1200
0
VERTEX
8
CUT
10
278.4800
20
30.4100
0
VERTEX
8
CUT
10
279.0100
20
30.6100
0
VERTEX
8
CUT
10
280.3800
20
30.6500
0
VERTEX
8
CUT
10
282.5900
20
31.0900
0
VERTEX
8
CUT
10
283.7800
20
31.1300
0
VERTEX
8
CUT
10
284.2600
20
31.3300
0
VERTEX
8
CUT
10
285.4600
20
31.3700
0
VERTEX
8
CUT
10
285.8900
20
31.5600
0
VERTEX
8
CUT
10
286.8600
20
31.6000
0
VERTEX
8
CUT
10
287.3200
20
31.8000
0
VERTEX
8
CUT
10
288.2900
20
31.8400
0
VERTEX
8
CUT
10
288.7500
20
32.0400
0
VERTEX
8
CUT
10
289.7200
20
32.0800
0
VERTEX
8
CUT
10
294.8000
20
33.0400
0
VERTEX
8
CUT
10
299.2600
20
34.1900
0
VERTEX
8
CUT
10
301.0300
20
34.4800
0
VERTEX
8
CUT
10
302.0900
20
34.9000
0
VERTEX
8
CUT
10
307.2400
20
36.1500
0
VERTEX
8
CUT
10
315.1800
20
38.7900
0
VERTEX
8
CUT
10
315.5100
20
38.7300
0
VERTEX
8
CUT
10
315.6300
20
38.3900
0
VERTEX
8
CUT
10
315.2900
20
37.9900
0
VERTEX
8
CUT
10
313.3300
20
36.7600
0
VERTEX
8
CUT
10
304.0300
20
31.5200
0
VERTEX
8
CUT
10
290.9300
20
25.0800
0
VERTEX
8
CUT
10
286.6200
20
23.4100
0
VERTEX
8
CUT
10
285.5400
20
23.3500
0
VERTEX
8
CUT
10
282.7800
20
22.4500
0
VERTEX
8
CUT
10
276.0800
20
20.7700
0
VERTEX
8
CUT
10
275.2900
20
20.7300
0
VERTEX
8
CUT
10
273.9300
20
20.2900
0
VERTEX
8
CUT
10
267.9700
20
19.1000
0
VERTEX
8
CUT
10
265.5300
20
18.8200
0
VERTEX
8
CUT
10
263.9000
20
18.3900
0
VERTEX
8
CUT
10
262.7300
20
18.3500
0
VERTEX
8
CUT
10
262.2200
20
18.1500
0
VERTEX
8
CUT
10
261.0600
20
18.1100
0
VERTEX
8
CUT
10
258.8700
20
17.6700
0
VERTEX
8
CUT
10
257.4500
20
17.6300
0
VERTEX
8
CUT
10
256.9600
20
17.4300
0
VERTEX
8
CUT
10
255.5500
20
17.3900
0
VERTEX
8
CUT
10
255.0600
20
17.2000
0
VERTEX
8
CUT
10
250.8300
20
16.9200
0
VERTEX
8
CUT
10
250.2300
20
16.7200
0
VERTEX
8
CUT
10
248.2000
20
16.6800
0
VERTEX
8
CUT
10
247.5900
20
16.4800
0
VERTEX
8
CUT
10
244.7400
20
16.4400
0
VERTEX
8
CUT
10
243.8300
20
16.2300
0
VERTEX
8
CUT
10
239.7900
20
16.2100
0
VERTEX
8
CUT
10
238.1500
20
16.0000
0
VERTEX
8
CUT
10
233.4500
20
15.9700
0
VERTEX
8
CUT
10
226.4000
20
16.2400
0
VERTEX
8
CUT
10
225.7400
20
16.4400
0
VERTEX
8
CUT
10
223.4900
20
16.4800
0
VERTEX
8
CUT
10
222.9000
20
16.6800
0
VERTEX
8
CUT
10
221.5100
20
16.7200
0
VERTEX
8
CUT
10
217.6700
20
17.4300
0
VERTEX
8
CUT
10
214.0800
20
18.3900
0
VERTEX
8
CUT
10
207.8300
20
20.7900
0
VERTEX
8
CUT
10
202.1400
20
23.6400
0
VERTEX
8
CUT
10
198.0500
20
26.0400
0
VERTEX
8
CUT
10
194.4700
20
28.4400
0
VERTEX
8
CUT
10
189.6500
20
32.0700
0
VERTEX
8
CUT
10
182.7600
20
38.2000
0
VERTEX
8
CUT
10
179.0800
20
42.1800
0
VERTEX
8
CUT
10
175.7100
20
46.2400
0
VERTEX
8
CUT
10
172.0900
20
51.3000
0
VERTEX
8
CUT
10
170.6400
20
53.7000
0
VERTEX
8
CUT
10
168.5000
20
57.7200
0
VERTEX
8
CUT
10
167.8600
20
59.5300
0
VERTEX
8
CUT
10
168.0400
20
60.0000
0
VERTEX
8
CUT
10
168.6000
20
59.8800
0
VERTEX
8
CUT
10
174.0000
20
54.3400
0
VERTEX
8
CUT
10
177.2100
20
51.5800
0
VERTEX
8
CUT
10
180.1900
20
49.3400
0
VERTEX
8
CUT
10
184.8000
20
46.4300
0
VERTEX
8
CUT
10
191.4500
20
43.1000
0
VERTEX
8
CUT
10
200.0700
20
39.5000
0
VERTEX
8
CUT
10
210.1300
20
36.1600
0
SEQEND
0
POLYLINE
8
CUT
66
1
70
1
10
0.0
20
0.0
30
0.0
0
VERTEX
8
CUT
10
80.0800
20
98.8900
0
VERTEX
8
CUT
10
94.8400
20
92.0100
0
VERTEX
8
CUT
10
96.5200
20
91.4200
0
VERTEX
8
CUT
10
100.6000
20
89.6000
0
VERTEX
8
CUT
10
106.0700
20
87.6100
0
VERTEX
8
CUT
10
106.9500
20
87.1200
0
VERTEX
8
CUT
10
107.0000
20
86.6900
0
VERTEX
8
CUT
10
106.0500
20
86.1500
0
VERTEX
8
CUT
10
105.4200
20
86.0800
0
VERTEX
8
CUT
10
101.8000
20
84.8700
0
VERTEX
8
CUT
10
98.1900
20
83.1900
0
VERTEX
8
CUT
10
95.7100
20
81.4200
0
VERTEX
8
CUT
10
91.2400
20
77.3300
0
VERTEX
8
CUT
10
90.0700
20
76.5900
0
VERTEX
8
CUT
10
87.9000
20
75.6400
0
VERTEX
8
CUT
10
86.4100
20
75.4200
0
VERTEX
8
CUT
10
80.6900
20
78.7600
0
VERTEX
8
CUT
10
76.8700
20
81.3900
0
VERTEX
8
CUT
10
72.7700
20
84.5400
0
VERTEX
8
CUT
10
65.9800
20
90.5900
0
VERTEX
8
CUT
10
61.3000
20
95.5500
0
VERTEX
8
CUT
10
56.1700
20
101.6300
0
VERTEX
8
CUT
10
50.9100
20
109.0200
0
VERTEX
8
CUT
10
48.5000
20
113.1000
0
VERTEX
8
CUT
10
47.0700
20
115.9400
0
VERTEX
8
CUT
10
44.7000
20
121.6700
0
VERTEX
8
CUT
10
44.6300
20
123.7100
0
VERTEX
8
CUT
10
44.1400
20
125.2100
0
VERTEX
8
CUT
10
43.5000
20
126.4800
0
VERTEX
8
CUT
10
43.4900
20
127.6100
0
VERTEX
8
CUT
10
43.8500
20
127.9400
0
VERTEX
8
CUT
10
44.3200
20
127.6600
0
VERTEX
8
CUT
10
45.8600
20
125.4600
0
VERTEX
8
CUT
10
48.8300
20
121.7600
0
VERTEX
8
CUT
10
51.1900
20
119.1500
0
VERTEX
8
CUT
10
54.7100
20
115.6600
0
VERTEX
8
CUT
10
59.9000
20
111.1700
0
VERTEX
8
CUT
10
66.4200
20
106.5700
0
VERTEX
8
CUT
10
71.9700
20
103.2000
0
SEQEND
0
POLYLINE
8
CUT
66
1
70
1
10
0.0
20
0.0
30
0.0
0
VERTEX
8
CUT
10
248.3800
20
78.0800
0
VERTEX
8
CUT
10
249.0200
20
77.8800
0
VERTEX
8
CUT
10
252.6300
20
77.8300
0
VERTEX
8
CUT
10
253.4000
20
77.6400
0
VERTEX
8
CUT
10
258.0400
20
77.6300
0
VERTEX
8
CUT
10
259.0900
20
77.8400
0
VERTEX
8
CUT
10
262.3700
20
77.8800
0
VERTEX
8
CUT
10
263.0300
20
78.0800
0
VERTEX
8
CUT
10
265.0700
20
78.1200
0
VERTEX
8
CUT
10
265.6400
20
78.3200
0
VERTEX
8
CUT
10
268.9500
20
78.5900
0
VERTEX
8
CUT
10
274.2800
20
79.5600
0
VERTEX
8
CUT
10
278.1300
20
80.5200
0
VERTEX
8
CUT
10
279.2800
20
80.8700
0
VERTEX
8
CUT
10
279.6300
20
81.3900
0
VERTEX
8
CUT
10
279.1800
20
81.9800
0
VERTEX
8
CUT
10
275.1200
20
83.9900
0
VERTEX
8
CUT
10
271.5200
20
86.1600
0
VERTEX
8
CUT
10
266.9400
20
89.3000
0
VERTEX
8
CUT
10
266.5600
20
89.6300
0
VERTEX
8
CUT
10
266.5500
20
89.6300
0
VERTEX
8
CUT
10
266.5400
20
89.6400
0
VERTEX
8
CUT
10
266.0400
20
89.9900
0
VERTEX
8
CUT
10
263.1300
20
92.4400
0
VERTEX
8
CUT
10
261.9600
20
93.5800
0
VERTEX
8
CUT
10
261.9500
20
93.5900
0
VERTEX
8
CUT
10
261.9100
20
93.6300
0
VERTEX
8
CUT
10
261.6700
20
93.8300
0
VERTEX
8
CUT
10
260.9600
20
94.5500
0
VERTEX
8
CUT
10
260.8500
20
94.6600
0
VERTEX
8
CUT
10
260.8100
20
94.6900
0
VERTEX
8
CUT
10
260.7700
20
94.7300
0
VERTEX
8
CUT
10
260.4700
20
95.0200
0
VERTEX
8
CUT
10
259.1000
20
96.4100
0
VERTEX
8
CUT
10
257.0600
20
98.4700
0
VERTEX
8
CUT
10
256.8900
20
98.6700
0
VERTEX
8
CUT
10
256.8300
20
98.7400
0
VERTEX
8
CUT
10
256.7600
20
98.8200
0
VERTEX
8
CUT
10
256.7400
20
98.8400
0
VERTEX
8
CUT
10
256.7000
20
98.8800
0
VERTEX
8
CUT
10
253.0900
20
102.8400
0
VERTEX
8
CUT
10
252.7800
20
103.1500
0
VERTEX
8
CUT
10
252.5800
20
103.3200
0
VERTEX
8
CUT
10
252.5600
20
103.3300
0
VERTEX
8
CUT
10
252.5200
20
103.3500
0
VERTEX
8
CUT
10
252.4300
20
103.4000
0
VERTEX
8
CUT
10
251.9400
20
103.6700
0
VERTEX
8
CUT
10
251.3200
20
103.9500
0
VERTEX
8
CUT
10
251.3100
20
103.9500
0
VERTEX
8
CUT
10
251.3000
20
103.9500
0
VERTEX
8
CUT
10
251.2900
20
103.9500
0
VERTEX
8
CUT
10
250.7900
20
103.9700
0
VERTEX
8
CUT
10
250.7200
20
103.9700
0
VERTEX
8
CUT
10
250.7100
20
103.9700
0
VERTEX
8
CUT
10
250.4400
20
103.9800
0
VERTEX
8
CUT
10
250.1700
20
103.9700
0
VERTEX
8
CUT
10
250.0100
20
103.9300
0
VERTEX
8
CUT
10
249.9700
20
103.9200
0
VERTEX
8
CUT
10
249.8400
20
103.8900
0
VERTEX
8
CUT
10
249.7000
20
103.8500
0
VERTEX
8
CUT
10
249.6900
20
103.8500
0
VERTEX
8
CUT
10
249.6600
20
103.8400
0
VERTEX
8
CUT
10
249.6500
20
103.8300
0
VERTEX
8
CUT
10
248.7900
20
103.4600
0
VERTEX
8
CUT
10
248.6700
20
103.3900
0
VERTEX
8
CUT
10
248.6300
20
103.3700
0
VERTEX
8
CUT
10
248.6100
20
103.3600
0
VERTEX
8
CUT
10
248.6000
20
103.3500
0
VERTEX
8
CUT
10
240.9200
20
95.5100
0
VERTEX
8
CUT
10
239.6100
20
94.2800
0
VERTEX
8
CUT
10
238.5000
20
93.1600
0
VERTEX
8
CUT
10
237.5000
20
92.3100
0
VERTEX
8
CUT
10
237.4100
20
92.2300
0
VERTEX
8
CUT
10
237.3800
20
92.2000
0
VERTEX
8
CUT
10
237.3600
20
92.1800
0
VERTEX
8
CUT
10
236.4000
20
91.2700
0
VERTEX
8
CUT
10
235.1700
20
90.3000
0
VERTEX
8
CUT
10
235.1600
20
90.2900
0
VERTEX
8
CUT
10
235.1500
20
90.2900
0
VERTEX
8
CUT
10
235.1400
20
90.2800
0
VERTEX
8
CUT
10
233.7200
20
89.0600
0
VERTEX
8
CUT
10
232.1000
20
87.8800
0
VERTEX
8
CUT
10
230.8100
20
86.8700
0
VERTEX
8
CUT
10
229.9900
20
86.3600
0
VERTEX
8
CUT
10
229.9500
20
86.3300
0
VERTEX
8
CUT
10
229.9400
20
86.3200
0
VERTEX
8
CUT
10
229.9100
20
86.3000
0
VERTEX
8
CUT
10
229.3900
20
85.9200
0
VERTEX
8
CUT
10
227.0400
20
84.4700
0
VERTEX
8
CUT
10
225.8600
20
83.7200
0
VERTEX
8
CUT
10
225.8600
20
83.1700
0
VERTEX
8
CUT
10
226.1400
20
82.7900
0
VERTEX
8
CUT
10
226.7500
20
82.4600
0
VERTEX
8
CUT
10
231.3600
20
81.0000
0
VERTEX
8
CUT
10
236.1600
20
79.8000
0
VERTEX
8
CUT
10
241.2300
20
78.8300
0
VERTEX
8
CUT
10
242.2100
20
78.8000
0
VERTEX
8
CUT
10
242.6400
20
78.6000
0
VERTEX
8
CUT
10
243.8600
20
78.5600
0
VERTEX
8
CUT
10
244.3400
20
78.3600
0
SEQEND
0
ENDSEC
0
EOF
