<svg xmlns="http://www.w3.org/2000/svg" width="300.0mm" height="300.0mm" viewBox="0 0 300.0 300.0">
  <path d="M 144.492 1.958 L 132.421 2.927 L 127.725 3.544 L 118.833 5.187 L 114.490 6.244 L 105.702 8.881 L 99.133 11.227 L 92.719 13.845 L 86.458 16.771 L 80.355 19.998 L 74.354 23.528 L 68.516 27.342 L 62.825 31.450 L 57.282 35.849 L 51.274 41.242 L 44.961 47.555 L 36.248 57.472 L 33.780 60.645 L 27.209 70.005 L 21.416 79.602 L 16.398 89.429 L 12.172 99.522 L 8.672 109.848 L 6.003 120.352 L 4.130 131.031 L 3.013 141.941 L 2.778 147.691 L 2.808 153.560 L 3.102 159.516 L 3.659 165.500 L 4.452 171.485 L 5.476 177.395 L 6.737 183.262 L 8.269 189.035 L 11.751 199.717 L 15.916 209.955 L 20.800 219.782 L 26.330 229.056 L 32.549 237.888 L 39.492 246.274 L 47.092 254.195 L 55.394 261.616 L 64.993 269.048 L 74.966 275.650 L 85.262 281.429 L 95.910 286.342 L 106.738 290.361 L 117.768 293.462 L 128.974 295.693 L 140.336 296.958 L 154.216 297.279 L 168.005 296.191 L 181.647 293.755 L 195.026 290.026 L 208.080 284.979 L 220.724 278.670 L 232.898 271.129 L 244.478 262.362 L 248.761 258.548 L 256.531 250.895 L 262.712 244.186 L 270.162 234.420 L 276.764 224.212 L 282.457 213.622 L 287.269 202.650 L 291.182 191.324 L 294.173 179.734 L 296.196 167.882 L 297.279 155.827 L 297.397 147.405 L 296.956 138.896 L 295.991 130.354 L 294.461 121.703 L 292.406 113.166 L 289.824 104.688 L 286.772 96.355 L 283.202 88.250 L 277.971 78.287 L 271.819 68.356 L 268.476 63.488 L 261.398 54.295 L 257.755 50.036 L 250.682 42.672 L 243.112 35.836 L 235.044 29.530 L 226.564 23.780 L 217.704 18.646 L 208.517 14.141 L 199.040 10.296 L 189.328 7.126 L 183.452 5.598 L 177.757 4.364 L 171.861 3.367 L 165.409 2.575 L 160.706 2.281 L 144.492 1.958 Z M 262.801 155.747 L 262.512 155.470 L 262.619 155.085 L 265.144 153.323 L 267.988 151.857 L 270.533 150.933 L 273.410 150.505 L 275.142 150.617 L 276.716 150.998 L 278.230 151.825 L 279.549 153.164 L 280.156 154.590 L 280.003 156.024 L 279.048 157.627 L 279.063 158.104 L 279.420 158.534 L 280.426 158.911 L 282.145 158.852 L 283.989 158.225 L 285.620 157.143 L 285.957 157.168 L 286.139 157.409 L 285.973 157.874 L 284.122 159.943 L 282.888 168.627 L 282.603 168.798 L 282.264 168.660 L 278.665 163.762 L 276.514 161.403 L 273.172 158.737 L 271.020 157.571 L 268.431 156.541 L 262.801 155.747 Z M 272.256 143.353 L 271.843 143.200 L 271.859 142.728 L 276.037 138.723 L 278.125 135.918 L 279.491 133.206 L 280.187 130.142 L 280.751 129.835 L 282.584 130.514 L 283.099 131.729 L 283.649 135.790 L 284.117 140.820 L 284.142 144.447 L 283.720 144.567 L 280.686 143.214 L 279.017 142.906 L 274.858 142.817 L 272.256 143.353 Z M 269.578 177.362 L 269.662 176.838 L 273.613 174.444 L 277.353 172.771 L 279.732 172.419 L 282.024 172.648 L 282.818 173.026 L 282.892 173.548 L 281.723 176.363 L 280.341 181.949 L 278.192 189.332 L 277.896 189.394 L 277.625 189.191 L 277.003 186.843 L 276.379 185.319 L 274.671 182.323 L 272.563 179.777 L 269.578 177.362 Z M 218.106 94.346 L 218.277 93.825 L 219.050 93.865 L 219.632 93.584 L 221.948 90.566 L 224.452 88.119 L 225.879 86.982 L 228.906 85.001 L 232.025 83.426 L 235.813 82.065 L 238.307 81.656 L 243.138 81.538 L 245.582 81.821 L 248.662 82.937 L 250.319 83.863 L 251.833 85.020 L 253.051 86.240 L 254.027 87.619 L 254.773 89.111 L 255.230 90.655 L 255.374 92.286 L 255.227 93.736 L 254.851 95.107 L 254.031 96.617 L 253.538 96.985 L 252.776 96.999 L 249.854 95.679 L 249.483 95.835 L 249.081 96.449 L 248.671 98.161 L 248.725 99.143 L 249.429 101.064 L 250.867 102.683 L 251.753 103.361 L 253.249 104.080 L 254.985 104.478 L 257.703 104.360 L 259.637 103.928 L 262.057 102.570 L 263.804 101.004 L 265.796 98.602 L 267.197 95.959 L 267.677 94.499 L 268.215 91.354 L 268.307 88.526 L 268.495 88.250 L 268.828 88.221 L 272.094 94.628 L 274.993 101.304 L 279.144 113.349 L 280.488 118.197 L 280.825 120.298 L 280.204 120.579 L 277.226 120.581 L 275.944 121.056 L 273.329 121.288 L 272.228 121.822 L 271.837 121.642 L 271.799 121.312 L 273.075 118.145 L 273.461 116.449 L 273.638 113.529 L 273.432 110.641 L 272.802 107.849 L 271.763 105.332 L 270.359 103.040 L 269.708 102.337 L 269.082 102.095 L 268.481 102.418 L 267.442 104.250 L 265.854 105.949 L 260.092 110.220 L 258.082 112.171 L 255.803 115.640 L 253.749 121.247 L 252.930 121.796 L 250.788 122.677 L 249.055 123.348 L 248.671 123.246 L 248.589 122.293 L 249.175 117.209 L 249.027 111.684 L 248.642 109.026 L 247.066 102.635 L 246.801 100.032 L 246.861 93.968 L 248.146 90.243 L 248.088 89.772 L 247.526 89.252 L 246.153 89.359 L 234.067 92.637 L 229.693 94.289 L 227.180 95.736 L 224.960 97.509 L 221.217 101.555 L 220.788 101.320 L 219.865 98.334 L 218.106 94.346 Z M 257.940 215.439 L 257.906 215.110 L 258.137 214.873 L 262.164 213.947 L 266.156 212.229 L 269.858 209.732 L 272.880 206.558 L 273.207 206.477 L 273.475 206.681 L 273.468 207.052 L 272.513 208.301 L 268.564 212.962 L 261.834 223.761 L 261.505 223.760 L 261.306 223.544 L 260.884 220.834 L 259.999 218.415 L 257.940 215.439 Z M 234.607 198.215 L 234.343 197.803 L 234.690 197.457 L 240.047 197.641 L 246.450 196.966 L 250.059 196.793 L 253.254 197.087 L 255.833 197.824 L 258.088 198.946 L 258.689 198.780 L 259.003 198.417 L 259.106 197.644 L 258.577 194.090 L 258.052 186.671 L 257.876 180.023 L 257.933 179.488 L 258.181 179.258 L 258.937 179.387 L 260.319 180.011 L 264.934 182.903 L 265.912 183.769 L 267.530 185.700 L 269.080 188.794 L 268.901 189.225 L 268.467 189.201 L 266.695 186.300 L 265.185 185.225 L 264.258 185.041 L 264.229 185.643 L 265.362 188.955 L 265.654 190.797 L 265.658 192.640 L 265.377 194.417 L 264.775 196.183 L 263.900 197.938 L 262.728 199.604 L 261.282 201.135 L 258.045 203.597 L 255.248 204.969 L 245.852 208.189 L 241.583 210.131 L 237.437 212.424 L 233.244 215.196 L 232.960 215.024 L 232.912 214.696 L 234.454 211.307 L 236.038 207.111 L 237.068 203.198 L 237.397 200.930 L 237.452 199.556 L 237.192 198.752 L 236.485 198.460 L 234.607 198.215 Z M 197.161 24.155 L 197.195 23.751 L 197.570 23.595 L 200.685 24.830 L 205.552 27.000 L 215.076 31.908 L 224.203 37.553 L 232.715 43.783 L 239.422 49.523 L 245.088 55.131 L 247.928 58.205 L 255.827 67.595 L 258.836 71.724 L 258.822 72.183 L 258.346 72.296 L 254.776 70.391 L 252.595 69.534 L 248.079 68.410 L 243.704 68.140 L 240.035 68.395 L 239.948 67.902 L 242.072 65.026 L 242.818 62.674 L 242.934 60.775 L 242.783 58.549 L 242.349 57.286 L 241.289 55.548 L 240.266 54.461 L 239.136 53.606 L 237.452 53.001 L 236.651 52.997 L 236.167 53.282 L 236.041 53.626 L 236.476 55.050 L 236.489 56.160 L 236.236 56.428 L 235.904 56.388 L 234.698 54.753 L 232.493 52.548 L 230.000 50.407 L 227.186 48.440 L 223.292 43.464 L 220.590 40.940 L 217.517 38.842 L 214.208 37.246 L 210.714 36.159 L 207.079 35.623 L 203.360 35.651 L 198.678 36.498 L 198.076 36.450 L 197.941 36.043 L 198.842 33.298 L 198.959 29.125 L 198.679 27.455 L 197.161 24.155 Z M 217.035 92.228 L 217.818 90.561 L 219.890 87.817 L 223.434 84.099 L 225.349 82.450 L 229.338 79.762 L 231.459 78.671 L 233.618 77.740 L 238.058 76.500 L 240.697 76.206 L 243.599 76.236 L 246.455 76.529 L 249.366 77.279 L 251.938 78.406 L 253.419 79.307 L 256.239 81.839 L 257.811 83.914 L 257.642 84.318 L 257.203 84.309 L 254.990 82.018 L 252.740 80.315 L 249.944 79.021 L 247.451 78.170 L 244.870 77.720 L 242.086 77.632 L 236.426 78.307 L 234.474 78.818 L 230.813 80.253 L 227.246 82.391 L 224.116 84.816 L 220.454 88.653 L 218.725 91.067 L 217.948 93.038 L 217.396 93.048 L 217.035 92.228 Z M 242.648 246.796 L 242.225 246.916 L 241.959 246.566 L 242.232 245.694 L 242.524 242.960 L 241.999 240.365 L 240.821 238.092 L 239.072 236.229 L 236.809 234.801 L 234.155 233.907 L 231.213 233.610 L 228.063 233.989 L 224.582 235.184 L 220.363 237.596 L 220.001 237.557 L 219.830 237.199 L 222.316 234.104 L 227.604 228.143 L 231.337 224.700 L 233.220 223.229 L 236.946 220.873 L 240.513 219.319 L 243.824 218.796 L 246.192 218.908 L 248.338 219.380 L 250.399 220.550 L 251.688 222.159 L 252.162 223.459 L 252.134 224.195 L 251.581 224.224 L 250.810 222.915 L 249.418 221.701 L 246.876 220.578 L 243.970 220.337 L 240.690 220.788 L 237.636 221.861 L 233.324 224.531 L 230.536 226.755 L 226.902 230.301 L 227.089 230.653 L 227.763 230.548 L 233.030 227.533 L 236.736 226.084 L 239.593 225.592 L 242.411 225.646 L 244.483 226.169 L 245.133 226.647 L 245.214 227.345 L 244.665 228.593 L 244.449 229.670 L 244.664 231.454 L 245.123 232.579 L 245.818 233.545 L 247.670 235.002 L 249.994 235.667 L 252.531 235.551 L 254.670 234.789 L 257.007 233.201 L 257.455 233.311 L 257.463 233.802 L 255.550 235.579 L 254.468 236.219 L 252.585 236.828 L 250.613 238.466 L 246.994 242.055 L 242.648 246.796 Z M 246.645 165.918 L 246.486 165.540 L 246.774 165.172 L 249.517 163.924 L 251.964 163.758 L 252.336 164.042 L 252.199 164.457 L 250.716 165.153 L 248.755 166.728 L 246.645 165.918 Z M 230.593 162.519 L 230.160 162.573 L 229.953 162.154 L 231.449 157.499 L 232.091 150.693 L 232.284 149.717 L 232.606 149.158 L 234.875 146.810 L 236.939 145.154 L 238.855 143.908 L 241.467 142.789 L 244.073 142.035 L 246.108 141.776 L 246.805 141.923 L 246.942 142.221 L 246.816 142.657 L 246.207 143.454 L 243.604 143.523 L 240.245 144.574 L 236.875 146.530 L 234.155 148.929 L 233.299 150.190 L 233.027 151.248 L 232.053 160.727 L 231.687 161.557 L 230.593 162.519 Z M 216.660 266.207 L 216.274 266.305 L 216.013 266.050 L 216.099 263.525 L 215.833 261.505 L 215.580 260.563 L 214.673 258.820 L 212.258 256.145 L 210.239 254.723 L 207.554 253.457 L 207.465 252.908 L 212.379 251.245 L 215.174 249.967 L 217.970 248.347 L 224.861 243.646 L 226.825 242.649 L 228.446 242.117 L 229.948 241.939 L 231.468 242.053 L 232.626 242.593 L 233.708 243.802 L 233.815 244.835 L 233.340 245.744 L 231.491 246.985 L 231.117 247.658 L 231.157 248.500 L 231.579 249.248 L 233.206 250.460 L 234.389 250.844 L 236.727 250.899 L 237.811 250.587 L 239.455 249.736 L 239.837 249.933 L 239.827 250.331 L 238.521 251.407 L 234.024 254.122 L 225.844 260.015 L 218.401 264.880 L 216.660 266.207 Z M 219.889 175.894 L 218.542 176.462 L 218.137 176.049 L 218.035 175.687 L 218.235 175.284 L 224.929 170.018 L 226.262 169.325 L 228.955 168.779 L 229.322 169.019 L 229.191 169.679 L 229.566 170.111 L 232.972 171.329 L 235.359 172.633 L 237.182 174.467 L 238.479 176.796 L 238.235 177.149 L 237.842 177.089 L 235.672 174.555 L 233.851 173.249 L 231.337 172.586 L 228.156 172.262 L 226.679 172.379 L 225.908 172.706 L 221.291 176.506 L 220.967 176.519 L 219.889 175.894 Z M 226.894 117.457 L 226.370 117.310 L 226.496 116.748 L 227.550 115.728 L 229.719 114.216 L 232.364 113.129 L 232.795 113.155 L 233.138 113.463 L 233.465 114.451 L 233.303 114.822 L 232.935 114.866 L 232.057 114.343 L 231.178 114.584 L 228.672 116.040 L 226.894 117.457 Z M 228.823 64.580 L 228.370 64.671 L 228.147 64.267 L 228.812 60.931 L 229.081 58.126 L 229.519 57.827 L 231.173 59.493 L 232.011 61.002 L 231.622 61.665 L 228.823 64.580 Z M 221.958 191.297 L 222.162 190.954 L 222.528 190.951 L 225.262 193.298 L 227.339 194.761 L 229.614 196.003 L 231.579 196.772 L 231.790 197.031 L 231.673 197.415 L 230.767 197.701 L 230.571 198.131 L 230.006 202.683 L 229.192 206.839 L 228.107 210.706 L 227.553 212.160 L 227.274 212.402 L 226.981 212.355 L 226.799 212.079 L 226.790 209.971 L 226.381 206.402 L 225.293 200.992 L 223.993 197.440 L 222.301 194.055 L 221.991 192.543 L 221.958 191.297 Z M 216.379 147.706 L 216.018 147.552 L 215.927 147.121 L 216.268 145.276 L 217.285 141.613 L 218.355 139.091 L 218.840 138.267 L 219.358 137.834 L 220.892 137.332 L 221.794 136.781 L 222.087 136.800 L 222.308 137.164 L 221.952 140.657 L 221.486 140.832 L 220.881 140.283 L 220.459 140.152 L 219.753 140.406 L 219.346 140.772 L 218.330 142.511 L 217.303 145.151 L 217.266 145.943 L 217.612 146.913 L 217.004 147.447 L 216.379 147.706 Z M 45.690 211.002 L 45.816 210.653 L 46.178 210.568 L 50.865 212.723 L 55.264 213.866 L 58.334 214.339 L 58.388 215.023 L 56.777 220.094 L 56.914 220.821 L 57.469 221.167 L 58.939 220.916 L 60.733 219.907 L 63.627 216.980 L 66.058 213.490 L 66.616 213.471 L 66.681 214.080 L 64.542 223.634 L 64.158 226.049 L 64.166 227.321 L 64.747 227.868 L 65.283 227.865 L 66.398 227.423 L 67.651 226.494 L 68.873 225.208 L 70.943 221.894 L 72.780 217.364 L 73.196 217.164 L 73.514 217.540 L 73.120 227.568 L 73.238 229.937 L 73.531 230.387 L 74.156 230.687 L 74.578 230.645 L 75.407 230.163 L 77.308 228.171 L 78.717 225.559 L 79.749 222.161 L 80.423 217.852 L 80.689 214.626 L 81.016 214.296 L 81.442 214.547 L 82.510 218.076 L 84.013 221.377 L 85.575 223.392 L 86.010 223.676 L 86.589 223.668 L 87.536 222.337 L 88.142 220.749 L 88.597 217.763 L 88.450 213.864 L 87.523 208.188 L 87.606 207.903 L 87.866 207.759 L 88.181 207.866 L 90.196 210.786 L 91.742 212.507 L 93.202 213.665 L 93.788 213.953 L 94.761 213.963 L 95.388 213.487 L 95.737 212.498 L 95.952 209.871 L 95.569 206.834 L 94.270 203.131 L 92.647 199.475 L 92.680 199.108 L 93.222 198.998 L 94.983 200.625 L 97.409 202.145 L 98.844 202.564 L 100.382 202.501 L 100.551 202.313 L 100.435 198.357 L 99.420 195.616 L 97.378 192.271 L 92.765 185.662 L 91.868 184.670 L 91.888 184.213 L 93.623 183.486 L 95.457 183.158 L 95.917 183.718 L 96.128 185.982 L 96.502 186.706 L 97.076 186.767 L 97.808 186.323 L 99.511 186.011 L 100.342 185.270 L 100.831 184.117 L 101.112 180.912 L 105.780 178.570 L 109.946 176.076 L 113.601 173.219 L 116.570 170.368 L 119.578 166.655 L 122.084 162.472 L 124.237 157.435 L 126.469 151.122 L 127.654 148.406 L 128.932 146.080 L 130.367 144.027 L 132.014 142.121 L 136.458 137.941 L 140.163 135.229 L 141.168 134.701 L 142.221 134.422 L 147.204 133.950 L 155.437 133.891 L 161.329 134.357 L 163.913 134.920 L 164.124 135.148 L 165.019 138.294 L 164.768 138.518 L 164.437 138.464 L 163.905 137.360 L 163.184 136.578 L 161.080 135.701 L 156.073 134.995 L 151.946 134.849 L 150.109 135.007 L 149.616 135.432 L 150.550 138.043 L 150.423 138.458 L 146.126 140.115 L 140.061 143.192 L 138.152 144.500 L 137.191 145.590 L 136.963 146.438 L 137.622 147.062 L 140.361 147.626 L 141.707 148.141 L 143.027 148.887 L 144.369 149.939 L 147.028 152.862 L 154.007 162.976 L 156.611 165.785 L 158.003 166.972 L 161.878 169.573 L 161.918 170.126 L 156.317 172.330 L 155.214 171.855 L 153.983 171.032 L 152.349 169.285 L 149.729 164.874 L 147.464 161.993 L 144.835 160.000 L 143.425 159.326 L 141.902 158.872 L 140.320 158.638 L 137.265 158.873 L 134.512 159.941 L 133.314 160.736 L 132.349 161.702 L 131.621 162.764 L 131.073 164.289 L 131.166 164.856 L 131.636 165.135 L 134.945 165.373 L 136.514 166.136 L 137.974 167.686 L 141.218 172.479 L 143.260 174.495 L 145.648 176.007 L 149.014 177.150 L 149.599 177.584 L 149.192 178.565 L 146.595 182.825 L 145.582 185.267 L 143.268 193.028 L 141.303 198.454 L 141.060 199.713 L 141.224 200.523 L 141.529 200.766 L 141.966 200.775 L 146.339 199.480 L 150.042 199.166 L 152.764 199.424 L 160.533 200.977 L 163.418 201.331 L 166.034 201.421 L 170.255 201.212 L 173.871 200.477 L 178.090 198.856 L 181.778 196.762 L 184.426 194.778 L 184.759 195.148 L 184.390 198.999 L 184.570 201.873 L 185.225 204.718 L 187.003 208.740 L 189.462 211.761 L 196.842 218.584 L 201.951 223.861 L 202.627 224.152 L 203.088 224.076 L 203.504 223.706 L 205.109 220.047 L 206.455 217.998 L 208.518 215.646 L 215.189 209.034 L 218.774 205.016 L 219.235 205.358 L 219.608 206.998 L 219.868 211.174 L 219.897 215.813 L 219.576 219.230 L 218.009 224.536 L 215.707 229.845 L 214.170 232.528 L 213.894 232.711 L 213.577 232.616 L 213.450 232.274 L 214.980 226.719 L 215.481 222.833 L 215.542 220.972 L 215.100 216.562 L 214.569 214.402 L 214.128 213.456 L 213.678 213.086 L 213.381 213.149 L 211.067 215.695 L 208.946 217.326 L 209.380 223.079 L 209.321 225.698 L 209.005 228.109 L 207.905 231.825 L 205.509 237.150 L 205.209 237.178 L 204.962 236.949 L 204.465 233.985 L 203.346 231.618 L 201.592 229.801 L 200.005 228.806 L 197.877 228.191 L 195.150 228.249 L 193.570 228.777 L 191.957 229.915 L 191.019 231.004 L 190.341 232.252 L 190.017 233.466 L 189.986 234.684 L 190.269 235.927 L 190.919 237.004 L 192.306 238.036 L 193.175 238.324 L 194.130 238.324 L 196.232 237.410 L 196.671 237.469 L 196.957 239.018 L 196.764 240.805 L 196.313 240.917 L 195.260 240.173 L 194.568 240.516 L 194.078 241.345 L 193.711 242.812 L 192.216 245.276 L 189.919 248.036 L 186.984 250.738 L 183.709 252.940 L 175.062 257.806 L 169.981 261.704 L 164.880 266.717 L 157.540 275.407 L 156.922 275.879 L 156.626 275.717 L 156.579 275.348 L 161.356 264.017 L 162.774 261.036 L 163.792 259.374 L 165.957 256.566 L 167.089 255.437 L 169.423 253.671 L 171.930 252.570 L 173.212 252.308 L 174.859 252.389 L 177.878 253.773 L 178.769 252.800 L 179.094 251.956 L 179.213 249.825 L 178.915 248.183 L 177.771 246.210 L 176.286 244.605 L 174.624 243.654 L 172.869 243.160 L 170.248 243.042 L 168.266 243.326 L 167.728 243.014 L 167.188 242.178 L 166.570 240.705 L 165.761 237.874 L 165.299 234.105 L 165.592 231.320 L 166.386 228.827 L 166.960 227.701 L 167.659 226.622 L 168.591 225.690 L 170.884 224.268 L 172.293 224.067 L 174.335 224.836 L 174.522 225.104 L 174.463 225.390 L 172.737 226.873 L 171.926 228.021 L 171.385 229.267 L 171.239 231.043 L 172.074 233.142 L 173.540 235.066 L 174.722 235.924 L 175.517 236.265 L 178.048 236.812 L 180.607 236.503 L 181.868 236.049 L 184.194 234.639 L 186.040 232.733 L 187.475 230.323 L 188.258 227.903 L 188.558 225.526 L 188.560 223.039 L 188.266 220.671 L 187.259 217.695 L 186.194 215.838 L 184.917 214.181 L 183.469 212.704 L 181.770 211.368 L 179.924 210.241 L 177.996 209.414 L 175.998 208.835 L 173.808 208.501 L 169.738 208.680 L 167.801 209.178 L 165.930 209.917 L 164.059 210.953 L 162.243 212.284 L 159.470 214.973 L 157.700 217.364 L 156.290 219.891 L 155.272 222.616 L 154.136 227.738 L 153.857 227.990 L 153.505 227.901 L 151.677 225.380 L 151.762 218.697 L 152.370 213.992 L 153.671 209.988 L 154.565 208.225 L 155.688 206.567 L 158.003 203.838 L 158.449 203.065 L 158.462 202.673 L 157.901 202.267 L 151.798 201.210 L 150.750 201.307 L 149.956 201.867 L 149.159 202.754 L 148.180 204.353 L 146.792 207.304 L 145.925 210.206 L 145.344 215.198 L 145.039 215.498 L 144.665 215.368 L 142.407 211.460 L 135.673 202.383 L 133.896 199.704 L 132.639 197.306 L 131.718 194.418 L 131.490 191.217 L 131.899 188.810 L 131.385 187.274 L 131.470 186.920 L 131.955 186.838 L 133.189 187.920 L 134.110 188.380 L 135.022 188.559 L 136.092 188.461 L 137.871 187.750 L 138.662 187.123 L 139.318 186.336 L 140.210 184.456 L 140.541 182.175 L 140.037 179.624 L 138.728 177.171 L 137.497 175.886 L 134.734 174.301 L 131.690 173.639 L 128.679 173.917 L 125.822 174.980 L 123.195 176.773 L 121.000 179.265 L 119.325 182.360 L 118.394 185.881 L 118.237 187.260 L 118.296 189.712 L 118.820 193.273 L 118.560 193.651 L 118.200 193.599 L 116.406 191.991 L 113.719 190.070 L 112.354 188.657 L 111.864 186.789 L 111.917 184.574 L 111.578 183.968 L 110.757 183.837 L 109.789 184.139 L 108.861 184.752 L 107.680 185.902 L 106.763 187.317 L 106.175 188.850 L 105.874 190.555 L 105.875 192.291 L 106.144 194.083 L 106.741 195.844 L 107.635 197.543 L 109.442 199.737 L 111.791 201.528 L 114.801 203.049 L 119.236 204.527 L 119.458 204.993 L 119.134 205.272 L 116.300 205.337 L 113.789 205.720 L 110.301 206.693 L 107.304 208.104 L 104.695 209.835 L 102.387 211.936 L 100.452 214.309 L 98.876 216.947 L 97.710 219.839 L 96.997 222.912 L 96.764 226.029 L 96.821 228.044 L 97.439 231.742 L 98.710 235.006 L 100.722 238.064 L 103.378 240.811 L 106.170 242.839 L 109.235 244.190 L 112.534 244.868 L 116.782 244.719 L 119.132 244.124 L 121.245 243.171 L 123.121 241.891 L 124.749 240.315 L 125.955 238.548 L 126.829 236.487 L 127.271 234.277 L 127.269 232.569 L 126.969 230.949 L 126.399 229.448 L 125.585 228.152 L 124.558 227.095 L 123.347 226.279 L 121.953 225.763 L 120.476 225.584 L 118.171 225.899 L 116.836 226.730 L 115.576 227.990 L 114.875 229.339 L 114.635 230.834 L 114.911 232.426 L 115.642 233.797 L 116.697 234.788 L 117.820 235.202 L 117.959 235.620 L 117.376 236.066 L 116.502 236.334 L 115.680 236.415 L 114.870 236.215 L 113.735 235.458 L 112.500 234.221 L 111.438 232.750 L 110.509 230.749 L 110.368 229.461 L 110.510 226.915 L 110.789 225.556 L 111.353 224.278 L 112.286 222.874 L 113.353 221.693 L 114.646 220.680 L 116.106 219.848 L 119.268 218.938 L 120.903 218.854 L 122.536 219.022 L 124.467 219.556 L 126.198 220.323 L 127.785 221.342 L 129.263 222.668 L 130.597 224.240 L 131.691 225.973 L 132.615 227.943 L 133.559 231.433 L 133.736 232.972 L 133.704 236.133 L 132.785 240.704 L 131.635 243.204 L 128.950 243.013 L 127.033 243.196 L 125.372 243.760 L 123.777 244.803 L 122.313 246.302 L 121.272 248.004 L 120.788 249.820 L 120.856 251.641 L 121.321 252.981 L 121.701 253.511 L 122.043 253.654 L 122.770 253.555 L 124.964 252.546 L 126.291 252.346 L 127.754 252.456 L 129.209 252.883 L 130.727 253.645 L 133.662 256.042 L 135.052 257.638 L 136.456 259.701 L 138.584 263.751 L 143.144 274.911 L 142.939 275.419 L 142.489 275.316 L 135.422 267.020 L 131.045 262.525 L 127.441 259.483 L 122.431 256.173 L 119.749 254.832 L 114.123 252.810 L 111.008 252.068 L 100.843 250.233 L 99.973 249.704 L 95.969 248.096 L 92.904 246.206 L 91.935 245.265 L 90.558 242.819 L 90.084 240.351 L 89.881 239.854 L 89.521 239.571 L 88.544 239.821 L 87.102 241.497 L 86.604 241.502 L 86.463 241.044 L 86.823 239.510 L 87.330 238.658 L 88.735 237.475 L 89.622 237.160 L 90.564 237.082 L 93.108 237.895 L 93.721 237.596 L 93.977 237.230 L 94.251 235.781 L 94.130 234.622 L 93.734 233.494 L 93.103 232.464 L 91.309 230.899 L 88.954 230.038 L 86.277 230.008 L 83.843 230.789 L 81.712 232.259 L 79.966 234.386 L 78.808 236.732 L 78.482 238.814 L 78.621 243.275 L 78.336 243.642 L 71.249 239.882 L 67.627 237.634 L 64.180 235.181 L 60.968 232.583 L 57.931 229.782 L 55.126 226.803 L 52.529 223.681 L 50.149 220.361 L 48.235 217.085 L 46.605 213.710 L 45.690 211.002 Z M 192.905 51.699 L 192.461 51.819 L 192.211 51.470 L 192.843 50.302 L 194.215 48.633 L 195.858 47.172 L 197.703 46.024 L 199.755 45.132 L 201.925 44.529 L 204.183 44.215 L 206.470 44.243 L 208.786 44.586 L 211.712 45.623 L 214.430 47.231 L 215.645 48.217 L 217.180 49.904 L 217.007 50.271 L 216.602 50.287 L 214.404 48.388 L 212.827 47.440 L 211.070 46.669 L 207.235 45.791 L 203.001 45.729 L 200.728 46.121 L 198.425 47.024 L 195.203 49.221 L 192.905 51.699 Z M 124.955 117.658 L 124.750 117.217 L 125.164 116.717 L 127.863 114.511 L 130.223 112.910 L 134.561 110.787 L 136.163 110.206 L 139.076 109.549 L 140.474 109.460 L 142.821 109.767 L 145.091 110.790 L 145.796 111.376 L 146.133 111.936 L 146.161 113.592 L 146.592 114.486 L 147.392 115.210 L 149.549 116.075 L 150.823 116.196 L 152.065 116.050 L 153.282 115.619 L 154.572 114.754 L 155.781 113.490 L 156.767 112.059 L 157.400 110.591 L 157.798 107.654 L 157.651 105.686 L 157.178 103.781 L 155.626 100.983 L 154.131 99.377 L 152.424 98.112 L 150.431 97.120 L 148.313 96.503 L 145.994 96.236 L 143.589 96.325 L 140.725 96.897 L 140.422 96.764 L 140.331 96.446 L 146.001 90.134 L 155.524 78.650 L 159.263 74.853 L 162.643 72.117 L 165.732 70.343 L 167.629 69.690 L 169.453 69.320 L 171.172 69.264 L 172.804 69.460 L 174.352 69.923 L 175.752 70.689 L 176.884 71.665 L 177.770 72.857 L 178.273 74.038 L 178.080 74.312 L 177.710 74.318 L 176.784 73.365 L 175.137 72.189 L 174.117 71.636 L 171.898 70.864 L 170.623 70.808 L 167.863 71.248 L 164.189 72.462 L 162.431 73.472 L 161.064 74.540 L 157.228 78.140 L 155.059 80.513 L 151.558 85.074 L 151.342 85.779 L 151.879 85.635 L 158.274 79.678 L 161.025 77.601 L 162.705 76.647 L 165.741 75.414 L 168.397 74.951 L 169.595 75.030 L 171.658 75.712 L 172.994 76.943 L 172.871 77.284 L 170.550 78.970 L 169.935 79.896 L 169.572 80.955 L 169.478 82.095 L 169.631 83.253 L 170.692 85.496 L 172.123 86.902 L 173.920 87.832 L 176.821 88.217 L 178.673 87.997 L 180.350 87.408 L 181.962 86.490 L 183.343 85.284 L 184.579 83.813 L 185.609 82.064 L 186.359 80.134 L 186.947 76.782 L 186.890 74.816 L 186.388 71.831 L 186.572 71.471 L 187.008 71.488 L 190.275 74.055 L 193.120 75.423 L 196.220 76.177 L 199.251 76.292 L 202.257 75.693 L 204.828 74.452 L 207.322 72.290 L 208.069 71.419 L 209.142 69.653 L 209.532 68.716 L 209.917 66.741 L 209.888 64.065 L 209.589 62.735 L 209.014 61.542 L 208.132 60.355 L 206.468 58.986 L 205.453 58.507 L 203.414 58.091 L 201.409 58.366 L 199.414 59.511 L 198.368 60.853 L 197.895 62.637 L 198.051 64.513 L 198.988 65.984 L 200.605 67.066 L 200.677 67.426 L 200.454 67.673 L 198.784 68.049 L 196.865 67.644 L 195.832 67.210 L 193.918 65.942 L 192.349 64.353 L 191.559 62.915 L 191.229 61.066 L 191.262 59.938 L 191.676 59.440 L 192.114 57.576 L 192.948 55.871 L 194.093 54.138 L 195.221 52.844 L 197.386 51.203 L 199.530 50.159 L 200.649 49.840 L 203.260 49.517 L 206.721 49.688 L 208.820 50.344 L 211.225 51.638 L 212.693 52.767 L 213.938 54.070 L 214.960 55.515 L 215.821 57.209 L 216.759 60.879 L 216.851 64.274 L 216.477 66.794 L 214.996 71.014 L 211.478 78.284 L 209.808 82.321 L 209.348 82.937 L 208.885 82.895 L 207.370 80.727 L 205.389 77.184 L 204.554 76.558 L 204.020 76.727 L 203.607 77.121 L 201.654 80.562 L 200.249 82.553 L 194.161 89.431 L 191.365 93.023 L 190.214 94.767 L 188.487 98.074 L 187.184 101.789 L 186.718 101.724 L 184.260 98.973 L 182.017 96.941 L 179.330 95.202 L 176.547 93.883 L 173.181 92.899 L 166.407 91.637 L 159.788 89.968 L 158.167 89.849 L 157.481 90.194 L 157.302 90.948 L 159.404 95.911 L 160.017 98.710 L 160.278 102.756 L 160.308 117.349 L 160.573 120.113 L 161.275 123.284 L 161.104 123.646 L 156.052 123.980 L 154.051 124.483 L 152.207 125.465 L 148.727 128.423 L 143.212 127.825 L 141.665 127.298 L 140.881 126.792 L 134.759 121.513 L 132.187 119.825 L 129.624 118.740 L 124.955 117.658 Z M 212.189 138.896 L 211.737 139.166 L 211.426 138.779 L 211.761 136.406 L 212.464 133.617 L 213.425 132.282 L 215.023 131.034 L 215.939 129.923 L 216.340 129.873 L 216.566 130.168 L 216.561 131.029 L 215.831 133.695 L 215.802 134.785 L 215.350 134.999 L 214.535 134.397 L 214.038 134.409 L 213.163 135.026 L 212.871 135.688 L 212.663 137.389 L 212.189 138.896 Z M 198.279 181.071 L 197.824 180.991 L 197.785 180.500 L 198.204 180.161 L 199.109 179.857 L 205.674 179.357 L 208.417 178.854 L 213.592 177.547 L 214.074 177.662 L 214.408 178.319 L 214.175 178.733 L 213.241 178.769 L 212.739 179.063 L 212.721 181.896 L 212.456 182.353 L 212.096 182.311 L 211.009 181.402 L 201.918 182.868 L 200.213 183.724 L 199.302 184.833 L 198.985 184.727 L 198.871 184.376 L 199.918 181.699 L 199.919 181.147 L 199.385 180.846 L 198.279 181.071 Z M 184.803 261.038 L 181.580 260.844 L 181.479 260.566 L 181.948 260.108 L 185.696 258.773 L 190.188 257.725 L 194.490 257.409 L 196.578 257.526 L 200.428 258.244 L 202.205 258.866 L 205.124 260.508 L 206.065 261.502 L 206.830 262.785 L 207.310 264.121 L 207.382 265.289 L 206.848 265.405 L 205.409 263.798 L 204.686 263.634 L 204.378 264.144 L 204.191 265.828 L 203.786 267.250 L 203.884 268.018 L 204.453 269.015 L 205.898 270.532 L 206.841 271.053 L 208.820 271.498 L 210.996 271.188 L 212.639 270.483 L 213.792 269.715 L 214.170 269.832 L 214.251 270.219 L 212.784 271.661 L 211.029 272.425 L 209.375 272.692 L 207.990 272.692 L 206.327 272.081 L 205.311 272.084 L 202.856 272.913 L 196.106 275.855 L 195.837 275.515 L 195.767 271.602 L 195.374 269.492 L 194.649 267.630 L 192.762 265.034 L 190.549 263.189 L 187.796 261.842 L 184.803 261.038 Z M 211.216 142.410 L 211.423 142.072 L 211.819 142.090 L 212.299 142.955 L 213.317 143.915 L 212.730 148.107 L 212.366 149.209 L 212.058 149.444 L 211.646 149.216 L 211.379 147.966 L 211.216 142.410 Z M 205.703 140.167 L 205.842 139.795 L 206.235 139.737 L 206.949 140.415 L 207.466 140.618 L 207.778 141.062 L 208.208 146.176 L 208.235 148.094 L 207.957 148.430 L 207.519 148.266 L 207.187 147.139 L 205.703 140.167 Z M 205.659 133.863 L 205.334 134.228 L 204.908 133.989 L 204.653 131.035 L 205.879 129.561 L 207.091 127.218 L 207.525 127.074 L 207.895 127.490 L 208.028 128.202 L 207.362 128.670 L 207.078 129.129 L 206.803 130.774 L 205.765 133.185 L 205.659 133.863 Z M 201.365 110.331 L 200.838 110.382 L 200.747 109.859 L 204.123 106.140 L 204.447 106.221 L 204.909 106.737 L 206.900 109.361 L 206.757 109.735 L 206.360 109.786 L 204.955 108.483 L 204.037 108.077 L 202.790 108.900 L 201.365 110.331 Z M 204.742 239.700 L 205.091 239.394 L 205.498 239.676 L 205.504 242.513 L 204.175 243.844 L 203.825 243.939 L 203.527 243.483 L 204.742 239.700 Z M 200.670 141.612 L 201.608 141.021 L 201.885 140.169 L 202.432 140.219 L 203.889 146.875 L 203.670 147.280 L 203.218 147.194 L 201.916 145.284 L 200.993 143.261 L 200.670 141.612 Z M 190.846 142.764 L 190.823 142.331 L 191.214 142.144 L 193.487 143.150 L 196.681 145.056 L 199.114 147.118 L 201.021 149.423 L 201.777 150.725 L 202.990 153.687 L 202.937 154.361 L 202.583 154.471 L 201.248 154.186 L 199.885 153.355 L 198.971 152.139 L 199.951 150.834 L 199.916 150.141 L 199.515 149.413 L 198.630 148.594 L 198.096 148.476 L 197.459 149.040 L 197.133 150.071 L 196.811 150.178 L 196.440 149.967 L 195.485 148.855 L 195.208 146.950 L 194.781 146.117 L 193.582 144.984 L 191.973 144.213 L 190.846 142.764 Z M 199.117 129.881 L 199.231 129.458 L 199.665 129.407 L 201.442 131.076 L 201.616 132.251 L 201.537 133.372 L 201.344 133.642 L 200.815 133.495 L 199.117 129.881 Z M 191.824 136.700 L 191.955 136.289 L 192.349 136.233 L 195.276 138.154 L 196.468 139.986 L 196.748 140.790 L 196.659 141.115 L 196.273 141.239 L 195.468 140.873 L 191.878 138.809 L 191.718 138.432 L 192.017 137.410 L 191.824 136.700 Z M 186.949 148.743 L 187.082 148.297 L 187.547 148.295 L 189.408 150.418 L 190.448 151.281 L 192.839 151.266 L 193.653 151.498 L 195.797 153.528 L 196.079 154.022 L 196.043 154.350 L 192.517 155.757 L 192.172 155.731 L 189.503 152.994 L 188.037 150.837 L 186.949 148.743 Z M 178.329 174.678 L 177.724 173.818 L 178.081 173.515 L 186.068 174.066 L 189.009 176.560 L 193.215 178.818 L 193.563 179.095 L 193.595 179.436 L 192.801 180.129 L 191.441 179.794 L 189.698 180.487 L 186.234 177.207 L 185.081 176.542 L 183.690 176.335 L 182.151 176.363 L 177.489 176.890 L 174.621 177.988 L 171.887 179.766 L 169.837 181.845 L 168.611 184.138 L 168.236 184.292 L 167.820 184.076 L 167.740 183.617 L 168.265 182.555 L 169.779 180.326 L 170.728 179.287 L 171.742 178.363 L 173.962 176.855 L 178.107 175.067 L 178.329 174.678 Z M 184.544 46.986 L 184.146 47.172 L 183.827 46.869 L 184.105 44.615 L 184.013 43.455 L 183.445 41.343 L 182.727 40.143 L 181.006 38.239 L 179.662 37.218 L 177.097 36.097 L 175.067 35.738 L 172.923 35.738 L 170.696 36.102 L 168.554 36.768 L 166.387 37.773 L 164.285 39.073 L 161.133 41.734 L 160.704 41.719 L 160.549 41.319 L 162.424 37.524 L 163.579 35.712 L 164.009 35.752 L 164.252 36.578 L 164.648 36.606 L 167.493 34.158 L 169.237 32.935 L 171.909 31.395 L 174.027 30.455 L 176.018 29.880 L 178.007 29.593 L 180.022 29.565 L 182.006 29.826 L 183.819 30.388 L 185.364 31.204 L 186.794 32.322 L 187.913 33.639 L 188.832 35.190 L 189.492 36.941 L 189.838 38.861 L 189.909 40.332 L 186.344 44.424 L 184.544 46.986 Z M 164.737 35.260 L 164.379 35.317 L 164.140 35.092 L 164.387 34.420 L 166.455 31.800 L 168.721 29.625 L 171.629 27.610 L 173.362 26.656 L 176.909 25.365 L 180.294 24.880 L 181.904 24.969 L 184.662 25.624 L 187.658 27.139 L 189.076 28.501 L 189.837 29.659 L 189.691 30.061 L 189.298 30.104 L 186.623 27.935 L 184.400 26.911 L 182.851 26.490 L 179.518 26.245 L 177.775 26.428 L 174.406 27.366 L 171.760 28.688 L 167.604 31.904 L 166.144 33.393 L 164.737 35.260 Z M 153.846 289.164 L 153.549 288.895 L 153.646 288.506 L 157.265 285.063 L 165.905 275.925 L 169.684 272.470 L 172.970 270.205 L 174.596 269.364 L 177.226 268.384 L 179.333 268.043 L 181.525 268.014 L 183.430 268.300 L 185.066 269.032 L 186.452 270.072 L 187.353 271.324 L 187.813 272.843 L 187.848 274.322 L 187.624 275.370 L 186.831 276.521 L 185.412 277.339 L 184.217 277.490 L 183.466 277.135 L 181.565 275.431 L 181.058 275.183 L 180.304 275.866 L 179.702 277.556 L 179.764 279.002 L 180.039 280.006 L 181.101 281.739 L 182.709 283.073 L 185.484 284.033 L 185.640 284.369 L 185.445 284.684 L 183.598 285.110 L 182.999 285.070 L 182.204 284.358 L 179.366 280.953 L 170.939 282.479 L 160.571 283.863 L 158.303 285.630 L 154.964 288.826 L 154.391 289.155 L 153.846 289.164 Z M 168.725 154.945 L 168.307 154.007 L 168.572 153.758 L 170.040 153.550 L 174.985 153.755 L 177.801 154.137 L 180.048 155.237 L 186.374 159.102 L 187.098 159.636 L 187.184 160.036 L 186.592 160.916 L 186.172 161.012 L 183.823 159.368 L 182.391 158.766 L 178.645 156.442 L 175.413 155.076 L 171.632 154.507 L 170.674 154.607 L 169.381 155.326 L 168.725 154.945 Z M 177.042 138.092 L 176.857 137.606 L 177.282 137.360 L 182.512 138.954 L 183.059 139.407 L 183.339 141.482 L 183.115 141.672 L 182.789 141.635 L 180.690 139.990 L 178.311 139.516 L 177.880 139.162 L 177.602 138.516 L 177.042 138.092 Z M 153.338 71.817 L 152.851 71.912 L 152.665 71.452 L 153.971 67.764 L 154.769 66.133 L 156.786 60.881 L 157.303 60.768 L 157.575 61.600 L 158.077 61.624 L 162.856 56.171 L 165.866 53.622 L 168.844 52.015 L 170.337 51.450 L 171.293 51.308 L 172.045 51.554 L 173.579 52.570 L 174.849 53.025 L 176.191 53.149 L 177.580 53.028 L 180.175 51.959 L 181.374 51.012 L 182.305 49.984 L 182.852 50.063 L 182.918 50.391 L 181.990 53.435 L 181.548 56.663 L 181.606 59.914 L 182.395 64.095 L 182.257 64.469 L 181.828 64.509 L 180.103 63.215 L 177.905 61.984 L 175.518 61.169 L 171.539 60.729 L 169.220 60.874 L 166.932 61.345 L 164.681 62.112 L 162.486 63.205 L 160.317 64.679 L 158.195 66.450 L 156.097 68.547 L 153.338 71.817 Z M 176.954 115.574 L 175.535 116.244 L 175.259 115.948 L 175.550 114.528 L 176.054 113.970 L 176.948 114.079 L 180.531 115.930 L 182.006 117.118 L 182.618 117.816 L 182.667 118.142 L 182.449 118.390 L 182.120 118.382 L 178.346 115.810 L 176.954 115.574 Z M 162.889 225.325 L 162.532 225.501 L 162.193 225.237 L 162.507 224.332 L 163.691 222.480 L 165.085 220.821 L 166.592 219.485 L 168.263 218.420 L 171.042 217.566 L 174.127 217.625 L 175.099 217.857 L 176.772 218.610 L 178.736 220.288 L 179.594 221.700 L 179.973 222.767 L 179.808 223.139 L 179.369 223.142 L 178.259 221.527 L 176.677 220.380 L 173.990 219.430 L 172.133 219.287 L 168.930 219.973 L 166.538 221.184 L 165.069 222.526 L 162.889 225.325 Z M 156.658 15.466 L 156.748 15.048 L 157.208 14.917 L 164.103 15.385 L 172.684 16.558 L 174.697 17.011 L 174.949 17.431 L 174.737 17.726 L 170.839 19.390 L 167.793 21.286 L 164.930 23.679 L 160.853 28.347 L 160.507 28.470 L 160.179 28.144 L 159.252 22.201 L 158.138 18.945 L 156.658 15.466 Z M 160.966 55.121 L 160.443 55.198 L 160.307 54.717 L 162.545 51.767 L 163.759 50.438 L 166.976 47.952 L 168.599 47.087 L 170.094 46.552 L 171.470 46.300 L 172.631 46.380 L 173.425 46.716 L 174.096 47.480 L 174.275 48.372 L 173.899 48.951 L 173.433 48.869 L 172.530 48.197 L 171.178 47.925 L 169.454 48.266 L 167.409 49.216 L 166.246 49.904 L 164.444 51.353 L 162.481 53.286 L 160.966 55.121 Z M 149.127 245.439 L 148.635 245.488 L 148.491 245.014 L 149.798 242.909 L 150.253 242.785 L 151.144 244.074 L 151.790 245.364 L 151.778 245.662 L 151.295 245.866 L 150.353 245.129 L 149.864 245.035 L 149.127 245.439 Z M 119.272 119.061 L 118.876 118.979 L 118.765 118.590 L 119.728 117.315 L 124.325 112.749 L 127.768 109.830 L 131.894 107.110 L 136.865 104.826 L 139.212 104.157 L 141.407 103.808 L 143.452 103.776 L 145.277 104.055 L 146.980 104.694 L 148.020 105.338 L 148.962 106.302 L 149.402 107.150 L 149.649 108.150 L 149.199 108.456 L 148.111 107.327 L 146.374 106.336 L 144.000 105.437 L 142.242 105.288 L 138.582 105.939 L 133.963 107.439 L 129.471 110.036 L 125.921 112.816 L 123.248 115.408 L 122.535 116.425 L 122.171 117.829 L 119.272 119.061 Z M 115.045 284.673 L 114.749 284.354 L 114.901 283.981 L 117.428 282.962 L 118.618 282.049 L 119.596 280.923 L 119.992 280.879 L 119.866 280.536 L 120.297 278.894 L 120.206 277.166 L 119.644 275.797 L 118.952 275.240 L 118.463 275.432 L 117.468 276.629 L 116.721 277.150 L 115.652 277.457 L 114.723 277.376 L 113.805 276.955 L 113.065 276.265 L 112.517 275.407 L 112.168 274.295 L 112.126 273.057 L 112.425 271.786 L 113.186 270.490 L 115.078 268.962 L 116.778 268.201 L 118.859 267.733 L 119.517 267.775 L 122.137 268.218 L 124.530 269.028 L 128.282 270.990 L 130.692 272.701 L 136.018 277.848 L 142.407 284.647 L 146.483 288.577 L 146.596 288.891 L 146.152 289.241 L 145.065 288.763 L 139.956 283.804 L 131.869 282.771 L 120.692 280.807 L 120.093 280.945 L 120.197 281.371 L 119.431 282.489 L 117.944 284.093 L 116.995 284.823 L 116.455 285.013 L 115.045 284.673 Z M 125.582 17.714 L 125.333 17.362 L 125.560 16.996 L 128.505 16.466 L 137.281 15.326 L 141.859 14.917 L 143.384 14.988 L 143.482 15.551 L 141.607 19.510 L 140.800 22.017 L 140.298 24.538 L 139.998 28.802 L 139.705 28.963 L 139.395 28.837 L 137.460 26.163 L 136.185 24.737 L 133.185 21.975 L 129.851 19.705 L 125.582 17.714 Z M 98.770 67.708 L 98.533 67.469 L 98.592 67.103 L 99.854 66.408 L 100.748 65.663 L 101.126 65.109 L 101.486 63.991 L 101.519 62.638 L 101.278 61.474 L 100.805 60.434 L 100.102 59.581 L 98.489 58.430 L 97.699 58.180 L 96.001 58.035 L 93.352 58.617 L 90.986 60.212 L 89.842 61.781 L 89.124 63.578 L 88.824 65.529 L 88.969 67.534 L 89.572 69.543 L 90.571 71.426 L 92.103 73.149 L 93.209 74.071 L 95.738 75.464 L 97.145 75.970 L 100.103 76.467 L 103.269 76.375 L 105.763 75.846 L 108.189 74.913 L 110.411 73.606 L 112.430 71.968 L 114.169 70.084 L 115.741 67.846 L 116.980 65.388 L 118.123 61.693 L 118.393 58.283 L 118.216 54.146 L 117.226 50.671 L 117.305 50.318 L 117.816 50.244 L 119.078 51.462 L 120.460 52.364 L 121.907 52.936 L 123.418 53.178 L 124.864 53.088 L 126.267 52.644 L 128.280 51.378 L 129.177 51.301 L 130.460 51.666 L 132.305 52.516 L 133.353 53.101 L 135.395 54.716 L 137.277 56.746 L 138.884 59.099 L 140.691 62.410 L 141.769 63.414 L 142.297 65.040 L 142.641 67.825 L 142.557 72.431 L 142.342 73.096 L 141.793 73.046 L 141.062 70.081 L 140.384 68.279 L 139.536 66.704 L 138.250 64.945 L 136.677 63.405 L 134.976 62.173 L 133.540 61.452 L 132.071 60.999 L 126.505 60.932 L 124.797 61.365 L 121.783 62.975 L 120.234 64.162 L 118.865 65.525 L 117.701 67.071 L 116.695 68.840 L 115.406 72.647 L 115.016 75.649 L 115.132 77.588 L 115.782 80.587 L 116.456 82.323 L 117.446 83.993 L 118.682 85.404 L 120.094 86.582 L 121.670 87.495 L 123.346 88.094 L 125.028 88.363 L 126.651 88.277 L 128.248 87.823 L 129.399 87.264 L 130.906 85.954 L 131.822 84.110 L 132.017 83.114 L 131.893 81.250 L 131.187 79.626 L 129.943 78.496 L 128.668 78.044 L 127.535 78.253 L 126.162 79.058 L 125.697 78.744 L 126.111 77.397 L 127.151 75.795 L 127.591 75.332 L 129.273 74.304 L 131.074 74.126 L 132.662 74.648 L 134.156 75.781 L 135.377 77.434 L 136.182 79.429 L 136.482 81.781 L 136.198 84.334 L 135.850 85.554 L 134.863 88.018 L 133.614 90.369 L 132.268 92.316 L 129.121 96.081 L 126.092 99.150 L 125.722 99.154 L 125.515 98.847 L 125.366 91.551 L 125.068 90.413 L 124.553 89.903 L 124.117 89.794 L 122.088 90.492 L 121.008 90.507 L 120.587 90.792 L 120.201 93.643 L 120.229 97.915 L 120.937 102.640 L 121.303 103.596 L 120.830 104.311 L 120.151 104.753 L 119.796 104.334 L 119.654 101.046 L 119.351 99.138 L 118.197 95.504 L 116.414 92.037 L 114.012 88.991 L 112.622 87.628 L 109.722 85.388 L 106.411 83.747 L 102.159 82.445 L 95.753 80.895 L 93.335 79.861 L 90.813 78.354 L 88.606 76.644 L 86.715 74.758 L 85.091 72.718 L 83.875 70.625 L 82.976 68.402 L 82.422 66.063 L 82.242 63.578 L 82.527 60.880 L 83.347 58.187 L 84.676 55.739 L 86.424 53.592 L 88.972 51.538 L 91.799 50.182 L 94.710 49.520 L 97.650 49.548 L 100.430 50.198 L 103.050 51.498 L 105.243 53.399 L 107.011 55.972 L 108.074 59.014 L 108.479 61.337 L 108.286 62.996 L 107.751 64.144 L 106.008 66.076 L 103.574 67.508 L 102.233 67.907 L 100.922 68.050 L 98.770 67.708 Z M 108.131 219.998 L 107.710 220.124 L 107.439 219.739 L 108.234 218.431 L 109.983 216.707 L 111.591 215.595 L 113.228 214.663 L 115.145 213.959 L 119.053 213.374 L 123.084 213.662 L 126.330 214.616 L 130.308 216.705 L 133.436 219.194 L 135.845 221.918 L 137.809 225.053 L 139.377 228.572 L 140.596 232.911 L 140.647 235.653 L 138.752 241.528 L 138.116 247.181 L 137.811 247.312 L 137.477 247.153 L 136.191 245.718 L 138.130 240.036 L 138.752 236.138 L 138.726 232.236 L 138.048 228.300 L 137.448 226.175 L 136.853 225.013 L 132.514 220.400 L 128.971 217.682 L 126.862 216.626 L 123.903 215.652 L 119.313 215.005 L 116.401 215.187 L 113.569 216.028 L 110.784 217.631 L 108.131 219.998 Z M 126.447 48.811 L 125.924 48.609 L 125.976 47.637 L 126.591 46.733 L 127.217 46.403 L 128.049 46.295 L 129.241 46.436 L 131.884 47.223 L 134.012 48.522 L 136.772 50.994 L 138.344 53.002 L 139.520 54.939 L 139.528 55.302 L 139.270 55.507 L 138.918 55.418 L 136.045 51.960 L 134.333 50.455 L 132.562 49.230 L 130.718 48.400 L 128.735 47.898 L 127.886 48.048 L 126.447 48.811 Z M 116.025 46.508 L 115.768 46.897 L 115.346 46.792 L 113.834 44.573 L 111.301 41.654 L 110.411 40.287 L 110.221 38.982 L 111.150 35.567 L 112.436 33.493 L 113.774 32.070 L 115.239 30.918 L 115.991 30.470 L 117.747 29.880 L 120.950 29.537 L 123.208 29.713 L 125.369 30.225 L 127.773 31.192 L 130.180 32.498 L 132.335 33.963 L 135.367 36.512 L 135.827 36.226 L 135.867 35.560 L 136.354 35.476 L 137.973 38.057 L 139.362 41.184 L 139.223 41.559 L 138.793 41.598 L 134.873 38.492 L 130.572 36.330 L 127.912 35.913 L 123.453 35.981 L 121.181 36.778 L 119.655 37.702 L 118.333 38.899 L 117.225 40.302 L 116.553 41.495 L 116.128 42.789 L 116.025 46.508 Z M 124.061 75.475 L 123.660 75.704 L 123.331 75.426 L 123.621 73.914 L 124.599 71.987 L 125.536 70.909 L 126.642 70.085 L 127.863 69.518 L 129.168 69.206 L 130.599 69.184 L 131.982 69.462 L 133.412 70.005 L 134.313 70.560 L 135.912 72.024 L 136.596 72.914 L 137.666 74.941 L 138.481 78.209 L 138.173 78.506 L 137.778 78.342 L 136.962 76.587 L 136.652 75.197 L 135.751 73.902 L 133.303 72.044 L 131.120 71.104 L 129.089 71.135 L 126.414 72.290 L 125.115 73.515 L 124.061 75.475 Z M 134.850 33.343 L 134.824 33.840 L 134.301 33.886 L 130.632 30.374 L 128.657 28.967 L 125.461 27.400 L 122.858 26.572 L 119.967 26.362 L 116.319 26.568 L 115.284 26.821 L 113.615 27.582 L 111.586 29.162 L 111.193 29.086 L 111.075 28.704 L 113.235 26.601 L 115.097 25.667 L 116.284 25.316 L 118.942 24.937 L 120.332 24.939 L 123.069 25.309 L 126.346 26.450 L 129.938 28.577 L 133.282 31.539 L 134.850 33.343 Z M 127.702 185.671 L 127.206 185.686 L 127.096 185.203 L 128.136 183.794 L 128.979 183.086 L 130.382 182.523 L 131.329 182.440 L 131.885 182.637 L 131.832 183.284 L 130.962 184.622 L 130.021 184.449 L 129.333 184.578 L 127.702 185.671 Z M 127.922 126.625 L 128.258 126.655 L 128.445 126.935 L 127.877 128.038 L 127.959 128.594 L 128.341 128.958 L 128.982 129.057 L 129.536 128.864 L 129.812 128.434 L 129.863 127.701 L 130.185 127.462 L 130.794 127.870 L 131.280 128.735 L 131.306 129.562 L 130.916 130.375 L 130.508 130.863 L 129.422 131.517 L 128.251 131.654 L 127.141 131.229 L 126.329 130.300 L 125.989 129.476 L 125.952 128.800 L 126.215 128.140 L 126.842 127.403 L 127.922 126.625 Z M 85.256 269.637 L 85.243 269.199 L 85.683 269.035 L 87.611 270.577 L 88.787 271.085 L 91.235 271.469 L 92.511 271.317 L 93.694 270.875 L 94.926 270.084 L 95.727 268.975 L 96.095 267.520 L 96.128 265.663 L 95.857 263.298 L 95.667 262.921 L 95.238 262.839 L 93.236 264.388 L 92.888 264.033 L 93.156 263.019 L 94.263 261.294 L 95.574 260.124 L 97.237 259.163 L 99.146 258.395 L 103.808 257.553 L 109.126 257.728 L 114.135 258.716 L 117.473 259.799 L 118.629 260.413 L 118.588 260.742 L 118.346 260.913 L 115.646 260.977 L 112.736 261.664 L 109.973 262.946 L 107.651 264.709 L 106.194 266.410 L 104.778 269.243 L 104.295 271.486 L 103.996 275.146 L 103.718 275.451 L 96.496 272.472 L 94.683 271.906 L 92.102 272.487 L 90.025 272.543 L 88.710 272.381 L 86.922 271.259 L 85.256 269.637 Z M 100.464 98.370 L 99.151 99.773 L 98.793 99.527 L 98.744 98.932 L 98.979 98.061 L 99.557 97.057 L 100.855 95.922 L 101.932 95.418 L 103.029 95.192 L 104.157 95.193 L 105.348 95.447 L 107.701 96.663 L 109.539 98.295 L 111.096 100.405 L 111.838 102.038 L 112.338 103.780 L 112.045 104.048 L 111.669 103.920 L 110.209 101.215 L 108.644 99.324 L 106.507 98.085 L 103.686 97.498 L 101.783 97.467 L 100.464 98.370 Z M 76.954 85.310 L 76.960 84.816 L 77.445 84.723 L 81.946 87.833 L 86.814 90.047 L 88.492 90.586 L 93.836 91.777 L 93.952 92.152 L 93.404 93.481 L 93.132 95.067 L 93.307 97.613 L 93.847 99.099 L 94.362 99.866 L 95.797 101.117 L 96.566 101.541 L 98.016 101.869 L 98.668 101.735 L 99.163 101.377 L 99.712 100.451 L 101.959 100.261 L 103.377 100.453 L 105.086 101.133 L 106.363 101.917 L 107.448 102.972 L 108.393 104.232 L 109.741 107.496 L 110.185 109.536 L 110.445 111.770 L 110.473 116.950 L 110.171 118.355 L 108.233 122.909 L 106.938 126.910 L 105.994 131.596 L 106.216 132.928 L 105.864 133.511 L 105.333 133.415 L 104.651 132.545 L 102.930 129.422 L 101.830 126.465 L 97.789 113.523 L 96.554 110.638 L 95.094 107.897 L 93.269 105.073 L 90.922 101.964 L 76.954 85.310 Z M 83.461 50.033 L 82.965 50.070 L 82.855 49.555 L 84.755 47.754 L 87.650 45.986 L 89.775 45.053 L 92.557 44.329 L 94.761 44.243 L 97.113 44.416 L 100.266 45.120 L 102.851 46.342 L 104.014 47.124 L 105.140 48.015 L 106.958 50.004 L 107.759 51.191 L 108.469 52.711 L 108.223 53.022 L 107.833 52.958 L 106.530 50.930 L 105.479 49.782 L 103.377 48.003 L 102.041 47.140 L 98.523 46.028 L 95.425 45.525 L 92.612 45.617 L 88.861 46.613 L 85.297 48.567 L 83.461 50.033 Z M 60.351 61.124 L 60.032 61.291 L 59.713 61.125 L 56.953 56.926 L 55.683 54.561 L 58.242 51.948 L 63.715 46.972 L 66.932 44.253 L 72.431 40.100 L 78.245 36.155 L 84.239 32.500 L 90.451 29.159 L 97.084 25.945 L 101.987 23.902 L 102.424 23.773 L 102.728 23.905 L 102.802 24.296 L 101.423 27.739 L 101.014 30.169 L 101.158 32.653 L 102.051 35.808 L 101.979 36.448 L 101.654 36.537 L 97.769 35.825 L 91.491 35.828 L 88.887 36.237 L 86.722 36.916 L 82.559 38.849 L 80.609 40.062 L 77.122 42.904 L 75.645 44.532 L 72.753 48.355 L 68.565 51.666 L 64.653 55.548 L 62.445 58.167 L 60.351 61.124 Z M 74.521 77.383 L 74.555 76.884 L 75.052 76.829 L 76.854 78.996 L 78.864 80.944 L 81.134 82.711 L 83.580 84.283 L 86.234 85.642 L 89.007 86.735 L 91.863 87.591 L 97.224 88.488 L 97.477 88.704 L 97.471 89.036 L 95.730 90.026 L 94.242 90.116 L 88.208 88.429 L 85.925 87.420 L 83.109 85.661 L 78.842 82.236 L 76.616 79.980 L 74.521 77.383 Z M 44.077 233.817 L 44.088 233.296 L 44.607 233.251 L 48.942 237.704 L 55.319 242.815 L 60.211 245.950 L 65.410 248.682 L 70.666 251.061 L 73.945 252.301 L 81.868 254.590 L 88.056 255.828 L 88.127 256.352 L 85.891 258.636 L 84.849 260.238 L 84.055 262.913 L 83.724 265.549 L 83.214 265.639 L 76.116 260.951 L 70.905 257.262 L 65.232 252.846 L 51.095 241.080 L 46.098 236.114 L 44.077 233.817 Z M 16.221 152.079 L 15.788 152.251 L 15.499 151.884 L 15.532 146.851 L 15.913 140.076 L 16.587 133.464 L 17.608 126.990 L 18.923 120.586 L 20.624 114.191 L 22.644 107.813 L 25.042 101.408 L 29.349 91.329 L 29.710 90.141 L 29.654 88.971 L 30.090 88.738 L 33.108 93.371 L 36.937 97.850 L 36.867 98.173 L 36.536 98.326 L 33.678 97.441 L 33.161 97.516 L 32.822 97.803 L 32.633 98.722 L 32.848 100.410 L 33.153 101.465 L 34.172 103.619 L 35.791 105.932 L 37.901 108.276 L 40.988 111.128 L 42.997 112.718 L 42.968 113.055 L 42.686 113.243 L 40.053 113.089 L 39.529 113.340 L 39.245 113.786 L 39.480 115.260 L 40.562 117.454 L 42.455 119.890 L 44.918 122.149 L 50.239 125.519 L 50.218 125.855 L 49.981 126.041 L 47.770 126.152 L 46.812 126.476 L 46.520 127.228 L 47.138 128.933 L 48.492 130.849 L 51.057 133.059 L 53.590 134.461 L 57.602 136.122 L 57.405 136.643 L 55.251 136.989 L 54.223 137.463 L 53.843 138.231 L 54.420 139.648 L 55.826 141.170 L 58.192 142.856 L 59.947 143.553 L 64.231 144.626 L 64.348 144.903 L 64.203 145.206 L 62.786 145.781 L 61.314 146.895 L 61.021 147.558 L 61.248 148.133 L 62.876 149.804 L 64.454 150.700 L 67.365 151.523 L 70.760 151.902 L 70.781 152.446 L 69.112 153.540 L 68.124 154.560 L 67.848 155.043 L 67.934 155.673 L 68.962 156.881 L 70.793 157.939 L 72.184 158.208 L 76.762 158.421 L 76.818 158.919 L 75.319 160.429 L 74.977 161.122 L 74.984 161.834 L 75.574 162.675 L 77.058 163.407 L 78.069 163.599 L 80.278 163.625 L 83.106 163.048 L 83.402 163.195 L 83.479 163.516 L 83.034 163.969 L 81.992 164.423 L 80.339 166.134 L 77.317 170.301 L 74.843 174.567 L 74.378 174.703 L 70.247 171.874 L 68.123 169.807 L 65.421 165.882 L 61.999 159.154 L 58.860 153.786 L 56.774 151.165 L 53.131 147.933 L 51.711 146.998 L 48.641 145.477 L 45.424 144.383 L 43.850 144.054 L 40.932 143.872 L 35.453 144.165 L 34.160 144.079 L 34.093 143.539 L 36.587 140.864 L 38.432 138.258 L 39.656 135.435 L 40.053 133.903 L 40.346 130.801 L 40.024 127.811 L 39.066 125.066 L 37.613 122.716 L 35.757 120.833 L 33.577 119.446 L 31.055 118.621 L 28.479 118.474 L 25.831 119.069 L 24.737 119.570 L 23.707 120.195 L 22.035 121.692 L 20.788 123.571 L 20.154 125.685 L 20.094 127.017 L 20.329 128.263 L 20.790 129.470 L 21.439 130.476 L 22.312 131.327 L 23.283 131.935 L 24.362 132.276 L 26.000 132.166 L 26.422 131.542 L 26.663 129.595 L 27.045 128.533 L 27.923 127.804 L 28.997 127.654 L 30.288 127.927 L 31.206 128.683 L 31.816 129.985 L 32.007 131.807 L 31.762 132.118 L 31.401 132.076 L 30.520 130.626 L 29.482 129.950 L 28.839 129.903 L 28.436 130.232 L 28.355 131.146 L 29.025 133.130 L 29.031 134.656 L 28.594 136.531 L 27.600 139.037 L 26.183 140.805 L 23.024 143.671 L 19.963 146.851 L 18.191 149.039 L 16.221 152.079 Z M 68.952 60.358 L 69.361 60.237 L 69.636 60.562 L 70.074 65.287 L 70.572 68.191 L 70.542 73.188 L 70.906 74.984 L 72.033 77.966 L 71.717 78.426 L 71.364 78.307 L 69.337 75.605 L 65.942 70.776 L 64.530 68.326 L 66.345 64.188 L 68.952 60.358 Z M 35.201 190.529 L 34.743 190.631 L 33.973 189.975 L 31.938 187.880 L 28.787 184.146 L 26.210 179.918 L 24.901 176.694 L 24.082 173.443 L 23.825 170.234 L 23.910 168.435 L 24.570 165.169 L 25.831 162.379 L 26.725 161.129 L 28.886 159.172 L 30.901 158.107 L 32.999 157.475 L 35.091 157.303 L 37.128 157.590 L 39.018 158.249 L 40.768 159.368 L 42.134 160.794 L 43.206 162.594 L 43.940 165.372 L 43.967 166.861 L 43.521 169.490 L 42.401 171.421 L 41.184 172.094 L 39.501 172.347 L 38.623 172.239 L 38.510 171.822 L 39.308 170.493 L 39.672 169.471 L 39.697 168.468 L 39.408 167.440 L 38.806 166.451 L 37.921 165.606 L 36.343 164.891 L 35.049 164.732 L 33.857 164.823 L 32.825 165.185 L 31.818 165.844 L 30.803 166.832 L 29.769 168.367 L 29.207 170.006 L 29.092 171.785 L 29.389 173.496 L 30.095 175.208 L 31.198 176.830 L 32.681 178.288 L 34.505 179.496 L 36.127 180.251 L 37.193 180.469 L 43.310 180.528 L 45.874 179.269 L 48.781 177.336 L 51.190 174.840 L 53.061 171.788 L 53.759 170.090 L 54.468 167.269 L 54.643 164.693 L 54.556 161.863 L 53.906 157.978 L 54.080 157.654 L 54.480 157.635 L 56.064 160.439 L 60.219 170.184 L 62.032 173.245 L 64.058 175.770 L 66.022 177.675 L 68.479 179.537 L 69.931 180.378 L 71.192 180.723 L 71.411 181.024 L 70.588 183.725 L 65.723 196.944 L 61.652 207.071 L 61.289 207.293 L 60.520 207.356 L 58.092 207.125 L 55.194 206.546 L 52.589 205.737 L 47.936 203.267 L 45.880 201.624 L 45.193 201.414 L 44.948 200.866 L 44.889 200.143 L 45.177 198.854 L 46.284 196.326 L 47.341 194.921 L 48.514 193.920 L 49.272 193.540 L 49.781 193.724 L 50.017 195.333 L 50.866 196.707 L 51.586 197.327 L 53.206 198.050 L 55.016 198.167 L 56.652 197.655 L 58.062 196.765 L 59.164 195.531 L 59.958 194.086 L 60.470 192.431 L 60.590 190.628 L 60.350 188.798 L 59.680 186.949 L 58.693 185.310 L 57.371 183.842 L 55.763 182.598 L 54.016 181.671 L 50.854 181.051 L 47.219 181.079 L 45.113 181.539 L 42.591 182.701 L 40.252 184.363 L 38.151 186.438 L 35.201 190.529 Z M 51.191 59.133 L 51.532 59.016 L 51.837 59.264 L 52.884 63.953 L 55.201 69.451 L 55.020 69.777 L 54.685 69.817 L 52.594 68.338 L 51.995 68.112 L 51.400 68.216 L 50.901 69.116 L 50.796 69.993 L 50.854 72.455 L 51.090 73.912 L 51.484 75.457 L 52.697 78.617 L 56.245 84.640 L 56.152 84.920 L 55.853 85.057 L 53.634 84.259 L 52.879 84.467 L 52.554 85.338 L 52.645 87.078 L 53.483 89.741 L 54.950 92.644 L 56.985 95.539 L 58.955 97.938 L 58.679 98.346 L 57.187 98.318 L 56.400 98.670 L 56.188 99.453 L 56.700 101.292 L 56.342 101.674 L 55.523 101.293 L 52.738 99.262 L 44.867 92.971 L 37.255 86.499 L 34.802 84.219 L 33.994 83.138 L 35.895 79.647 L 42.003 70.587 L 47.680 63.241 L 51.191 59.133 Z M 42.951 195.116 L 42.465 195.218 L 42.272 194.761 L 43.769 192.547 L 45.319 191.083 L 46.945 190.074 L 48.189 189.623 L 49.273 189.560 L 51.211 189.939 L 51.942 190.465 L 51.976 190.766 L 51.757 191.051 L 50.253 192.012 L 48.497 191.422 L 46.917 191.888 L 44.680 193.271 L 42.951 195.116 Z M 25.824 156.019 L 23.080 158.360 L 22.766 158.169 L 22.724 157.874 L 22.966 157.504 L 24.817 155.599 L 26.902 154.038 L 29.064 152.986 L 31.087 152.348 L 33.795 152.028 L 36.676 152.406 L 39.888 153.541 L 42.620 155.447 L 43.771 156.632 L 44.703 157.877 L 45.082 158.700 L 44.872 159.042 L 44.471 159.017 L 41.748 156.236 L 39.664 154.774 L 37.955 154.160 L 34.644 153.511 L 31.451 153.749 L 28.233 154.618 L 25.824 156.019 Z M 19.101 191.391 L 19.156 190.876 L 19.675 190.871 L 21.755 193.408 L 23.648 195.361 L 27.409 198.739 L 32.136 202.457 L 32.573 204.035 L 33.163 210.218 L 34.044 214.237 L 35.083 217.669 L 34.885 218.096 L 34.372 217.961 L 31.356 212.594 L 28.313 206.509 L 24.434 198.079 L 23.345 196.489 L 21.161 194.097 L 19.101 191.391 Z M 15.738 186.449 L 15.949 185.997 L 16.432 186.123 L 18.937 189.889 L 18.842 190.400 L 18.414 190.432 L 16.920 189.268 L 16.270 188.129 L 15.738 186.449 Z" fill-rule="evenodd" fill="none" stroke="#000" stroke-width="0.3"/>
</svg>
