0
SECTION
2
HEADER
9
$ACADVER
1
AC1009
9
$INSUNITS
70
4
0
ENDSEC
0
SECTION
2
TABLES
0
TABLE
2
LAYER
70
1
0
LAYER
2
CUT
70
0
62
7
6
CONTINUOUS
0
ENDTAB
0
ENDSEC
0
SECTION
2
ENTITIES
0
POLYLINE
8
CUT
66
1
70
1
10
0.0
20
0.0
30
0.0
0
VERTEX
8
CUT
10
161.5967
20
6.4346
0
VERTEX
8
CUT
10
163.8692
20
6.5266
0
VERTEX
8
CUT
10
165.1068
20
6.7414
0
VERTEX
8
CUT
10
165.3232
20
6.7603
0
VERTEX
8
CUT
10
165.5648
20
6.8208
0
VERTEX
8
CUT
10
165.7748
20
6.8573
0
VERTEX
8
CUT
10
165.9121
20
6.9079
0
VERTEX
8
CUT
10
167.1574
20
7.2200
0
VERTEX
8
CUT
10
168.5542
20
7.8819
0
VERTEX
8
CUT
10
168.5775
20
7.8905
0
VERTEX
8
CUT
10
168.6046
20
7.9057
0
VERTEX
8
CUT
10
170.5112
20
8.8091
0
VERTEX
8
CUT
10
171.2957
20
9.4240
0
VERTEX
8
CUT
10
171.4166
20
9.4922
0
VERTEX
8
CUT
10
172.9681
20
10.7349
0
VERTEX
8
CUT
10
174.0192
20
11.5588
0
VERTEX
8
CUT
10
174.0970
20
11.6391
0
VERTEX
8
CUT
10
174.1101
20
11.6496
0
VERTEX
8
CUT
10
174.3332
20
11.8830
0
VERTEX
8
CUT
10
178.2257
20
15.9008
0
VERTEX
8
CUT
10
179.3349
20
16.6661
0
VERTEX
8
CUT
10
179.4277
20
17.0173
0
VERTEX
8
CUT
10
179.1503
20
17.2827
0
VERTEX
8
CUT
10
179.0816
20
17.3928
0
VERTEX
8
CUT
10
178.3451
20
17.5008
0
VERTEX
8
CUT
10
174.5753
20
17.5295
0
VERTEX
8
CUT
10
173.0239
20
17.2881
0
VERTEX
8
CUT
10
171.8757
20
16.9383
0
VERTEX
8
CUT
10
171.7554
20
16.9126
0
VERTEX
8
CUT
10
171.6122
20
16.8580
0
VERTEX
8
CUT
10
167.8724
20
15.7188
0
VERTEX
8
CUT
10
166.2762
20
16.1088
0
VERTEX
8
CUT
10
164.7959
20
16.9150
0
VERTEX
8
CUT
10
163.8515
20
17.7733
0
VERTEX
8
CUT
10
163.6937
20
18.2707
0
VERTEX
8
CUT
10
163.8759
20
18.7593
0
VERTEX
8
CUT
10
164.9419
20
19.6743
0
VERTEX
8
CUT
10
167.5453
20
21.0801
0
VERTEX
8
CUT
10
168.2405
20
21.3824
0
VERTEX
8
CUT
10
168.6624
20
21.5659
0
VERTEX
8
CUT
10
168.8819
20
21.6614
0
VERTEX
8
CUT
10
169.5087
20
21.9340
0
VERTEX
8
CUT
10
171.0369
20
22.4844
0
VERTEX
8
CUT
10
173.7889
20
23.0610
0
VERTEX
8
CUT
10
176.7133
20
23.2409
0
VERTEX
8
CUT
10
179.2464
20
23.0959
0
VERTEX
8
CUT
10
181.3663
20
22.8281
0
VERTEX
8
CUT
10
183.5174
20
22.4847
0
VERTEX
8
CUT
10
187.6052
20
21.5092
0
VERTEX
8
CUT
10
193.5522
20
19.7584
0
VERTEX
8
CUT
10
195.2405
20
19.0081
0
VERTEX
8
CUT
10
195.6655
20
18.5192
0
VERTEX
8
CUT
10
195.7146
20
17.9893
0
VERTEX
8
CUT
10
194.9022
20
16.8560
0
VERTEX
8
CUT
10
193.7742
20
15.7290
0
VERTEX
8
CUT
10
192.1634
20
14.5402
0
VERTEX
8
CUT
10
191.9974
20
14.5537
0
VERTEX
8
CUT
10
191.9393
20
14.5584
0
VERTEX
8
CUT
10
191.8852
20
14.5628
0
VERTEX
8
CUT
10
191.6882
20
14.5788
0
VERTEX
8
CUT
10
187.4249
20
15.6130
0
VERTEX
8
CUT
10
184.8231
20
16.3306
0
VERTEX
8
CUT
10
184.4021
20
16.3462
0
VERTEX
8
CUT
10
183.7537
20
16.5035
0
VERTEX
8
CUT
10
183.5700
20
15.9894
0
VERTEX
8
CUT
10
184.2173
20
15.5244
0
VERTEX
8
CUT
10
184.2289
20
15.5116
0
VERTEX
8
CUT
10
184.3364
20
15.0934
0
VERTEX
8
CUT
10
183.6338
20
13.7826
0
VERTEX
8
CUT
10
178.8735
20
8.2324
0
VERTEX
8
CUT
10
175.1646
20
4.7130
0
VERTEX
8
CUT
10
173.2493
20
3.4262
0
VERTEX
8
CUT
10
171.2344
20
2.3861
0
VERTEX
8
CUT
10
171.0050
20
2.2950
0
VERTEX
8
CUT
10
170.9408
20
2.2695
0
VERTEX
8
CUT
10
170.9399
20
2.2691
0
VERTEX
8
CUT
10
170.9399
20
2.2691
0
VERTEX
8
CUT
10
168.9627
20
1.5441
0
VERTEX
8
CUT
10
168.8374
20
1.5126
0
VERTEX
8
CUT
10
166.0723
20
0.9166
0
VERTEX
8
CUT
10
161.5612
20
0.5431
0
VERTEX
8
CUT
10
157.9339
20
0.7847
0
VERTEX
8
CUT
10
157.3066
20
0.9148
0
VERTEX
8
CUT
10
157.0607
20
0.9792
0
VERTEX
8
CUT
10
156.6656
20
1.0828
0
VERTEX
8
CUT
10
156.1524
20
1.2173
0
VERTEX
8
CUT
10
155.1185
20
1.4882
0
VERTEX
8
CUT
10
150.6155
20
3.2968
0
VERTEX
8
CUT
10
150.4374
20
3.2286
0
VERTEX
8
CUT
10
150.4307
20
3.2315
0
VERTEX
8
CUT
10
150.3227
20
3.1847
0
VERTEX
8
CUT
10
144.7191
20
1.0391
0
VERTEX
8
CUT
10
142.3980
20
0.5876
0
VERTEX
8
CUT
10
139.8355
20
0.3612
0
VERTEX
8
CUT
10
137.6216
20
0.3821
0
VERTEX
8
CUT
10
136.2910
20
0.4521
0
VERTEX
8
CUT
10
131.6798
20
1.3920
0
VERTEX
8
CUT
10
131.4930
20
1.4456
0
VERTEX
8
CUT
10
131.4820
20
1.4487
0
VERTEX
8
CUT
10
131.4118
20
1.4688
0
VERTEX
8
CUT
10
131.3669
20
1.4817
0
VERTEX
8
CUT
10
127.6384
20
3.0522
0
VERTEX
8
CUT
10
126.4650
20
3.7345
0
VERTEX
8
CUT
10
125.6240
20
4.3938
0
VERTEX
8
CUT
10
123.6668
20
6.1416
0
VERTEX
8
CUT
10
119.6959
20
10.4739
0
VERTEX
8
CUT
10
116.5229
20
14.3116
0
VERTEX
8
CUT
10
116.2102
20
15.0483
0
VERTEX
8
CUT
10
116.5707
20
15.5600
0
VERTEX
8
CUT
10
117.5794
20
15.9441
0
VERTEX
8
CUT
10
120.5175
20
16.4675
0
VERTEX
8
CUT
10
121.4266
20
16.4508
0
VERTEX
8
CUT
10
124.6436
20
13.2762
0
VERTEX
8
CUT
10
124.9814
20
12.8859
0
VERTEX
8
CUT
10
126.5408
20
11.4041
0
VERTEX
8
CUT
10
127.4286
20
10.5279
0
VERTEX
8
CUT
10
129.2155
20
9.0662
0
VERTEX
8
CUT
10
131.8983
20
7.6501
0
VERTEX
8
CUT
10
134.9563
20
6.5432
0
VERTEX
8
CUT
10
137.8496
20
5.9526
0
VERTEX
8
CUT
10
140.4936
20
5.8891
0
VERTEX
8
CUT
10
142.5519
20
6.2505
0
VERTEX
8
CUT
10
145.3759
20
7.3309
0
VERTEX
8
CUT
10
145.5379
20
7.6290
0
VERTEX
8
CUT
10
145.3746
20
7.9653
0
VERTEX
8
CUT
10
143.6346
20
8.3464
0
VERTEX
8
CUT
10
142.8228
20
8.6818
0
VERTEX
8
CUT
10
142.7565
20
8.7327
0
VERTEX
8
CUT
10
142.6098
20
8.8451
0
VERTEX
8
CUT
10
142.4729
20
8.9501
0
VERTEX
8
CUT
10
141.4737
20
9.7161
0
VERTEX
8
CUT
10
141.2932
20
10.0224
0
VERTEX
8
CUT
10
141.7031
20
10.7110
0
VERTEX
8
CUT
10
142.6540
20
11.5067
0
VERTEX
8
CUT
10
143.7503
20
12.2228
0
VERTEX
8
CUT
10
144.9053
20
12.6574
0
VERTEX
8
CUT
10
146.3931
20
12.2349
0
VERTEX
8
CUT
10
154.6913
20
7.3947
0
VERTEX
8
CUT
10
156.0245
20
6.9069
0
VERTEX
8
CUT
10
157.7476
20
6.5860
0
VERTEX
8
CUT
10
161.2534
20
6.4046
0
SEQEND
0
POLYLINE
8
CUT
66
1
70
1
10
0.0
20
0.0
30
0.0
0
VERTEX
8
CUT
10
280.5669
20
140.2258
0
VERTEX
8
CUT
10
280.7031
20
140.3815
0
VERTEX
8
CUT
10
283.5871
20
143.3156
0
VERTEX
8
CUT
10
289.0323
20
148.3074
0
VERTEX
8
CUT
10
290.1943
20
149.6557
0
VERTEX
8
CUT
10
289.2593
20
150.8240
0
VERTEX
8
CUT
10
280.9349
20
158.6680
0
VERTEX
8
CUT
10
279.6825
20
160.1991
0
VERTEX
8
CUT
10
277.7885
20
163.4484
0
VERTEX
8
CUT
10
276.7657
20
166.8087
0
VERTEX
8
CUT
10
276.7394
20
167.0120
0
VERTEX
8
CUT
10
276.7283
20
167.0973
0
VERTEX
8
CUT
10
276.7243
20
167.1283
0
VERTEX
8
CUT
10
276.7177
20
167.1794
0
VERTEX
8
CUT
10
276.6023
20
169.4481
0
VERTEX
8
CUT
10
276.6269
20
170.9771
0
VERTEX
8
CUT
10
276.6325
20
171.0320
0
VERTEX
8
CUT
10
277.4627
20
175.1369
0
VERTEX
8
CUT
10
278.1996
20
176.7626
0
VERTEX
8
CUT
10
278.8020
20
177.2015
0
VERTEX
8
CUT
10
280.3825
20
176.1329
0
VERTEX
8
CUT
10
282.9332
20
173.7069
0
VERTEX
8
CUT
10
282.3453
20
170.7974
0
VERTEX
8
CUT
10
282.2837
20
169.4429
0
VERTEX
8
CUT
10
282.4886
20
168.1720
0
VERTEX
8
CUT
10
282.4886
20
168.1669
0
VERTEX
8
CUT
10
282.4903
20
168.1611
0
VERTEX
8
CUT
10
282.6913
20
166.9142
0
VERTEX
8
CUT
10
283.7508
20
164.3142
0
VERTEX
8
CUT
10
285.4539
20
161.8777
0
VERTEX
8
CUT
10
286.3386
20
160.9296
0
VERTEX
8
CUT
10
290.0912
20
157.4472
0
VERTEX
8
CUT
10
292.2502
20
155.6890
0
VERTEX
8
CUT
10
292.4604
20
155.5035
0
VERTEX
8
CUT
10
293.3268
20
154.8708
0
VERTEX
8
CUT
10
293.4780
20
154.8572
0
VERTEX
8
CUT
10
293.5984
20
154.7809
0
VERTEX
8
CUT
10
293.8145
20
154.8270
0
VERTEX
8
CUT
10
293.8379
20
154.8249
0
VERTEX
8
CUT
10
293.8415
20
154.8328
0
VERTEX
8
CUT
10
294.0298
20
154.8730
0
VERTEX
8
CUT
10
294.3858
20
155.8731
0
VERTEX
8
CUT
10
294.6795
20
157.7706
0
VERTEX
8
CUT
10
294.4130
20
160.5523
0
VERTEX
8
CUT
10
293.4133
20
163.9510
0
VERTEX
8
CUT
10
293.3534
20
164.1602
0
VERTEX
8
CUT
10
293.3486
20
164.4343
0
VERTEX
8
CUT
10
295.5877
20
167.9455
0
VERTEX
8
CUT
10
296.6039
20
169.0151
0
VERTEX
8
CUT
10
297.0333
20
168.8809
0
VERTEX
8
CUT
10
297.3756
20
168.3241
0
VERTEX
8
CUT
10
297.5348
20
168.0651
0
VERTEX
8
CUT
10
297.6717
20
167.8424
0
VERTEX
8
CUT
10
297.9943
20
167.3176
0
VERTEX
8
CUT
10
298.0063
20
167.2954
0
VERTEX
8
CUT
10
298.2066
20
166.8278
0
VERTEX
8
CUT
10
299.1208
20
164.3278
0
VERTEX
8
CUT
10
299.6410
20
162.6054
0
VERTEX
8
CUT
10
299.6739
20
162.4189
0
VERTEX
8
CUT
10
299.9350
20
159.9343
0
VERTEX
8
CUT
10
299.8455
20
155.5307
0
VERTEX
8
CUT
10
299.7996
20
155.0919
0
VERTEX
8
CUT
10
299.5673
20
154.0431
0
VERTEX
8
CUT
10
298.8098
20
151.8331
0
VERTEX
8
CUT
10
297.9706
20
149.7654
0
VERTEX
8
CUT
10
298.6657
20
148.0060
0
VERTEX
8
CUT
10
299.2554
20
146.3794
0
VERTEX
8
CUT
10
299.8430
20
144.0954
0
VERTEX
8
CUT
10
299.8940
20
143.5286
0
VERTEX
8
CUT
10
300.0542
20
140.0022
0
VERTEX
8
CUT
10
300.0488
20
139.9093
0
VERTEX
8
CUT
10
299.6310
20
136.8493
0
VERTEX
8
CUT
10
299.2339
20
135.3167
0
VERTEX
8
CUT
10
298.5463
20
133.2749
0
VERTEX
8
CUT
10
297.6806
20
131.5732
0
VERTEX
8
CUT
10
297.2715
20
131.1238
0
VERTEX
8
CUT
10
296.5244
20
131.1357
0
VERTEX
8
CUT
10
295.1693
20
133.0386
0
VERTEX
8
CUT
10
293.6010
20
135.7836
0
VERTEX
8
CUT
10
294.5005
20
138.9427
0
VERTEX
8
CUT
10
294.7679
20
140.9707
0
VERTEX
8
CUT
10
294.3874
20
143.7528
0
VERTEX
8
CUT
10
293.9442
20
144.6656
0
VERTEX
8
CUT
10
293.9336
20
144.6649
0
VERTEX
8
CUT
10
293.9331
20
144.6662
0
VERTEX
8
CUT
10
293.4759
20
144.7276
0
VERTEX
8
CUT
10
292.9271
20
144.3173
0
VERTEX
8
CUT
10
291.9617
20
143.6319
0
VERTEX
8
CUT
10
289.4314
20
141.4624
0
VERTEX
8
CUT
10
286.5987
20
138.5845
0
VERTEX
8
CUT
10
286.7152
20
138.2401
0
VERTEX
8
CUT
10
287.0651
20
138.1414
0
VERTEX
8
CUT
10
288.3013
20
138.9721
0
VERTEX
8
CUT
10
288.9396
20
139.0414
0
VERTEX
8
CUT
10
289.8395
20
138.2023
0
VERTEX
8
CUT
10
291.1524
20
136.5249
0
VERTEX
8
CUT
10
293.2847
20
133.4485
0
VERTEX
8
CUT
10
295.0106
20
130.5407
0
VERTEX
8
CUT
10
295.3774
20
129.8430
0
VERTEX
8
CUT
10
295.4689
20
129.6690
0
VERTEX
8
CUT
10
295.5858
20
129.4466
0
VERTEX
8
CUT
10
295.6288
20
129.3649
0
VERTEX
8
CUT
10
296.6872
20
126.5522
0
VERTEX
8
CUT
10
296.9977
20
124.8916
0
VERTEX
8
CUT
10
297.1657
20
123.2651
0
VERTEX
8
CUT
10
297.1841
20
122.9535
0
VERTEX
8
CUT
10
297.1841
20
118.0408
0
VERTEX
8
CUT
10
296.5444
20
114.5223
0
VERTEX
8
CUT
10
295.3683
20
111.4362
0
VERTEX
8
CUT
10
293.4806
20
107.8694
0
VERTEX
8
CUT
10
293.0424
20
107.1558
0
VERTEX
8
CUT
10
292.7215
20
106.7478
0
VERTEX
8
CUT
10
291.6337
20
105.4957
0
VERTEX
8
CUT
10
291.0637
20
105.3336
0
VERTEX
8
CUT
10
290.5390
20
105.9301
0
VERTEX
8
CUT
10
288.7539
20
110.5674
0
VERTEX
8
CUT
10
290.2876
20
113.7600
0
VERTEX
8
CUT
10
291.5063
20
117.6550
0
VERTEX
8
CUT
10
291.8342
20
120.3155
0
VERTEX
8
CUT
10
291.5328
20
123.1621
0
VERTEX
8
CUT
10
290.6162
20
126.1762
0
VERTEX
8
CUT
10
289.9164
20
127.7898
0
VERTEX
8
CUT
10
288.1564
20
130.9814
0
VERTEX
8
CUT
10
285.9907
20
134.2431
0
VERTEX
8
CUT
10
285.2473
20
135.8191
0
VERTEX
8
CUT
10
285.1645
20
136.0804
0
VERTEX
8
CUT
10
284.9352
20
136.2779
0
VERTEX
8
CUT
10
284.6047
20
136.1986
0
VERTEX
8
CUT
10
284.6000
20
136.1998
0
VERTEX
8
CUT
10
284.5985
20
136.1971
0
VERTEX
8
CUT
10
284.5400
20
136.1831
0
VERTEX
8
CUT
10
283.9054
20
135.2432
0
VERTEX
8
CUT
10
283.3689
20
134.0220
0
VERTEX
8
CUT
10
283.1229
20
133.5868
0
VERTEX
8
CUT
10
283.0382
20
133.2693
0
VERTEX
8
CUT
10
282.6064
20
132.2864
0
VERTEX
8
CUT
10
282.5546
20
131.4555
0
VERTEX
8
CUT
10
282.4356
20
131.0094
0
VERTEX
8
CUT
10
282.4290
20
128.4617
0
VERTEX
8
CUT
10
282.5379
20
127.9655
0
VERTEX
8
CUT
10
282.6904
20
125.7706
0
VERTEX
8
CUT
10
281.9966
20
124.8076
0
VERTEX
8
CUT
10
279.1289
20
122.5051
0
VERTEX
8
CUT
10
278.4014
20
122.3255
0
VERTEX
8
CUT
10
277.8505
20
123.1172
0
VERTEX
8
CUT
10
277.0579
20
125.6225
0
VERTEX
8
CUT
10
276.6334
20
128.0439
0
VERTEX
8
CUT
10
276.6008
20
128.5066
0
VERTEX
8
CUT
10
276.6806
20
131.6180
0
VERTEX
8
CUT
10
276.8488
20
132.8165
0
VERTEX
8
CUT
10
277.3725
20
134.7919
0
VERTEX
8
CUT
10
277.5892
20
135.3642
0
VERTEX
8
CUT
10
278.6754
20
137.7340
0
VERTEX
8
CUT
10
278.9217
20
138.1482
0
VERTEX
8
CUT
10
279.7760
20
139.3215
0
VERTEX
8
CUT
10
280.1805
20
139.7840
0
VERTEX
8
CUT
10
280.4191
20
140.0569
0
SEQEND
0
POLYLINE
8
CUT
66
1
70
1
10
0.0
20
0.0
30
0.0
0
VERTEX
8
CUT
10
84.2471
20
124.5928
0
VERTEX
8
CUT
10
85.0234
20
124.5353
0
VERTEX
8
CUT
10
86.5695
20
123.8891
0
VERTEX
8
CUT
10
88.9130
20
122.5708
0
VERTEX
8
CUT
10
91.0065
20
123.0563
0
VERTEX
8
CUT
10
91.5505
20
122.9701
0
VERTEX
8
CUT
10
92.0082
20
122.3288
0
VERTEX
8
CUT
10
92.0660
20
121.3395
0
VERTEX
8
CUT
10
91.4503
20
120.3262
0
VERTEX
8
CUT
10
90.5881
20
119.4826
0
VERTEX
8
CUT
10
90.5486
20
119.1226
0
VERTEX
8
CUT
10
92.1461
20
118.1191
0
VERTEX
8
CUT
10
93.3732
20
116.2214
0
VERTEX
8
CUT
10
94.0517
20
114.6011
0
VERTEX
8
CUT
10
96.4628
20
111.6273
0
VERTEX
8
CUT
10
98.4475
20
109.7347
0
VERTEX
8
CUT
10
100.6876
20
108.2143
0
VERTEX
8
CUT
10
104.0683
20
106.7013
0
VERTEX
8
CUT
10
105.4652
20
106.4089
0
VERTEX
8
CUT
10
105.5291
20
106.3451
0
VERTEX
8
CUT
10
107.7056
20
105.9823
0
VERTEX
8
CUT
10
107.8565
20
106.0746
0
VERTEX
8
CUT
10
108.7074
20
105.9812
0
VERTEX
8
CUT
10
109.6922
20
105.9952
0
VERTEX
8
CUT
10
109.9549
20
105.9810
0
VERTEX
8
CUT
10
110.5395
20
106.0073
0
VERTEX
8
CUT
10
110.9464
20
106.0131
0
VERTEX
8
CUT
10
110.9999
20
106.0210
0
VERTEX
8
CUT
10
111.1216
20
105.9823
0
VERTEX
8
CUT
10
112.3308
20
106.0126
0
VERTEX
8
CUT
10
112.8564
20
106.1115
0
VERTEX
8
CUT
10
113.2614
20
106.1297
0
VERTEX
8
CUT
10
115.8718
20
106.6306
0
VERTEX
8
CUT
10
117.3662
20
107.2985
0
VERTEX
8
CUT
10
117.4389
20
107.5842
0
VERTEX
8
CUT
10
117.2600
20
107.8607
0
VERTEX
8
CUT
10
113.5928
20
109.5754
0
VERTEX
8
CUT
10
112.0305
20
110.5930
0
VERTEX
8
CUT
10
111.5075
20
110.9612
0
VERTEX
8
CUT
10
111.0330
20
111.3620
0
VERTEX
8
CUT
10
110.5563
20
111.8708
0
VERTEX
8
CUT
10
110.5469
20
111.8808
0
VERTEX
8
CUT
10
110.5459
20
111.8819
0
VERTEX
8
CUT
10
110.1800
20
112.2725
0
VERTEX
8
CUT
10
110.1567
20
112.3164
0
VERTEX
8
CUT
10
110.2826
20
112.6592
0
VERTEX
8
CUT
10
112.6395
20
115.1230
0
VERTEX
8
CUT
10
113.0922
20
115.1588
0
VERTEX
8
CUT
10
114.7900
20
113.9034
0
VERTEX
8
CUT
10
115.1785
20
113.5503
0
VERTEX
8
CUT
10
115.6212
20
113.2888
0
VERTEX
8
CUT
10
115.9127
20
113.0733
0
VERTEX
8
CUT
10
117.2878
20
112.5407
0
VERTEX
8
CUT
10
118.4346
20
112.0825
0
VERTEX
8
CUT
10
118.4984
20
112.0718
0
VERTEX
8
CUT
10
118.7677
20
111.9675
0
VERTEX
8
CUT
10
119.8414
20
111.8458
0
VERTEX
8
CUT
10
120.9098
20
111.6661
0
VERTEX
8
CUT
10
121.2969
20
111.6810
0
VERTEX
8
CUT
10
121.9683
20
111.6049
0
VERTEX
8
CUT
10
123.6539
20
111.7872
0
VERTEX
8
CUT
10
125.2062
20
112.1399
0
VERTEX
8
CUT
10
126.6868
20
112.7321
0
VERTEX
8
CUT
10
127.5180
20
113.2888
0
VERTEX
8
CUT
10
127.7266
20
113.3888
0
VERTEX
8
CUT
10
128.1132
20
113.6874
0
VERTEX
8
CUT
10
129.1058
20
114.3521
0
VERTEX
8
CUT
10
129.4706
20
114.7357
0
VERTEX
8
CUT
10
129.6896
20
114.9049
0
VERTEX
8
CUT
10
130.8649
20
116.2019
0
VERTEX
8
CUT
10
131.2854
20
116.6441
0
VERTEX
8
CUT
10
131.3288
20
116.7140
0
VERTEX
8
CUT
10
131.4166
20
116.8109
0
VERTEX
8
CUT
10
132.0746
20
117.8923
0
VERTEX
8
CUT
10
132.5391
20
118.6095
0
VERTEX
8
CUT
10
132.6403
20
118.8219
0
VERTEX
8
CUT
10
132.9790
20
119.3662
0
VERTEX
8
CUT
10
134.0359
20
122.2720
0
VERTEX
8
CUT
10
134.2498
20
123.7878
0
VERTEX
8
CUT
10
134.2179
20
127.0830
0
VERTEX
8
CUT
10
133.6443
20
132.9769
0
VERTEX
8
CUT
10
133.7963
20
136.5041
0
VERTEX
8
CUT
10
134.4122
20
139.0334
0
VERTEX
8
CUT
10
135.6766
20
142.6572
0
VERTEX
8
CUT
10
136.3332
20
144.1927
0
VERTEX
8
CUT
10
136.6657
20
145.4321
0
VERTEX
8
CUT
10
136.6355
20
145.8856
0
VERTEX
8
CUT
10
136.6020
20
145.9238
0
VERTEX
8
CUT
10
136.8164
20
147.4300
0
VERTEX
8
CUT
10
136.4868
20
150.1189
0
VERTEX
8
CUT
10
134.5830
20
156.7413
0
VERTEX
8
CUT
10
134.2793
20
158.5409
0
VERTEX
8
CUT
10
133.6194
20
166.9936
0
VERTEX
8
CUT
10
132.6783
20
169.8947
0
VERTEX
8
CUT
10
131.5298
20
171.7096
0
VERTEX
8
CUT
10
130.1267
20
173.3791
0
VERTEX
8
CUT
10
129.3344
20
174.0750
0
VERTEX
8
CUT
10
128.5594
20
174.8867
0
VERTEX
8
CUT
10
127.4861
20
175.7441
0
VERTEX
8
CUT
10
127.3283
20
175.8368
0
VERTEX
8
CUT
10
126.6947
20
176.3933
0
VERTEX
8
CUT
10
123.5335
20
178.3714
0
VERTEX
8
CUT
10
122.5770
20
180.0225
0
VERTEX
8
CUT
10
122.1446
20
180.0448
0
VERTEX
8
CUT
10
121.4625
20
179.3013
0
VERTEX
8
CUT
10
120.6371
20
179.3018
0
VERTEX
8
CUT
10
118.6280
20
180.0933
0
VERTEX
8
CUT
10
115.7129
20
181.6107
0
VERTEX
8
CUT
10
113.8164
20
182.9790
0
VERTEX
8
CUT
10
112.3652
20
184.9276
0
VERTEX
8
CUT
10
110.4619
20
185.7479
0
VERTEX
8
CUT
10
109.3599
20
186.6195
0
VERTEX
8
CUT
10
108.5583
20
187.7080
0
VERTEX
8
CUT
10
108.5832
20
189.1264
0
VERTEX
8
CUT
10
108.4425
20
189.3899
0
VERTEX
8
CUT
10
107.5381
20
189.4225
0
VERTEX
8
CUT
10
106.5754
20
189.0560
0
VERTEX
8
CUT
10
105.5526
20
189.5517
0
VERTEX
8
CUT
10
105.0562
20
190.4422
0
VERTEX
8
CUT
10
104.9930
20
193.1348
0
VERTEX
8
CUT
10
104.5433
20
193.9996
0
VERTEX
8
CUT
10
104.1710
20
194.1089
0
VERTEX
8
CUT
10
103.9002
20
193.9664
0
VERTEX
8
CUT
10
102.9578
20
191.9375
0
VERTEX
8
CUT
10
102.1593
20
190.8607
0
VERTEX
8
CUT
10
101.6968
20
190.5310
0
VERTEX
8
CUT
10
101.1338
20
190.3854
0
VERTEX
8
CUT
10
99.8395
20
190.4874
0
VERTEX
8
CUT
10
99.4572
20
190.7253
0
VERTEX
8
CUT
10
99.2749
20
191.3828
0
VERTEX
8
CUT
10
99.6219
20
192.4602
0
VERTEX
8
CUT
10
100.6924
20
194.4296
0
VERTEX
8
CUT
10
101.3540
20
194.9553
0
VERTEX
8
CUT
10
102.5721
20
195.2314
0
VERTEX
8
CUT
10
102.6968
20
196.3338
0
VERTEX
8
CUT
10
102.9467
20
196.8730
0
VERTEX
8
CUT
10
104.3472
20
198.9003
0
VERTEX
8
CUT
10
106.5735
20
201.0651
0
VERTEX
8
CUT
10
107.4542
20
201.5846
0
VERTEX
8
CUT
10
108.0563
20
201.5920
0
VERTEX
8
CUT
10
108.4300
20
200.9363
0
VERTEX
8
CUT
10
108.3015
20
199.6996
0
VERTEX
8
CUT
10
105.6828
20
196.7125
0
VERTEX
8
CUT
10
105.4368
20
195.9169
0
VERTEX
8
CUT
10
105.6169
20
194.7501
0
VERTEX
8
CUT
10
106.3881
20
194.4570
0
VERTEX
8
CUT
10
106.7365
20
194.5675
0
VERTEX
8
CUT
10
106.7277
20
196.3020
0
VERTEX
8
CUT
10
107.1643
20
196.7711
0
VERTEX
8
CUT
10
107.7996
20
196.7682
0
VERTEX
8
CUT
10
108.5906
20
196.0369
0
VERTEX
8
CUT
10
109.2682
20
194.1061
0
VERTEX
8
CUT
10
110.9934
20
192.7134
0
VERTEX
8
CUT
10
112.4755
20
190.8140
0
VERTEX
8
CUT
10
116.4096
20
187.6249
0
VERTEX
8
CUT
10
120.7009
20
185.7393
0
VERTEX
8
CUT
10
124.1916
20
184.8077
0
VERTEX
8
CUT
10
126.4675
20
183.1833
0
VERTEX
8
CUT
10
128.0628
20
183.4156
0
VERTEX
8
CUT
10
131.8432
20
181.0000
0
VERTEX
8
CUT
10
132.7107
20
180.6373
0
VERTEX
8
CUT
10
133.0851
20
180.7684
0
VERTEX
8
CUT
10
133.1510
20
181.1596
0
VERTEX
8
CUT
10
132.6418
20
181.9554
0
VERTEX
8
CUT
10
130.4570
20
184.1739
0
VERTEX
8
CUT
10
127.8721
20
186.3095
0
VERTEX
8
CUT
10
123.0385
20
189.7780
0
VERTEX
8
CUT
10
119.4097
20
193.2861
0
VERTEX
8
CUT
10
118.3934
20
194.3605
0
VERTEX
8
CUT
10
118.1652
20
194.5486
0
VERTEX
8
CUT
10
117.9342
20
194.7911
0
VERTEX
8
CUT
10
117.3438
20
195.2833
0
VERTEX
8
CUT
10
116.6625
20
195.9419
0
VERTEX
8
CUT
10
114.2716
20
197.8224
0
VERTEX
8
CUT
10
111.6321
20
198.2367
0
VERTEX
8
CUT
10
111.0163
20
198.5974
0
VERTEX
8
CUT
10
110.6437
20
199.1410
0
VERTEX
8
CUT
10
111.2234
20
201.9924
0
VERTEX
8
CUT
10
111.7656
20
202.5018
0
VERTEX
8
CUT
10
113.5320
20
203.1694
0
VERTEX
8
CUT
10
114.7103
20
203.0716
0
VERTEX
8
CUT
10
115.9177
20
202.5974
0
VERTEX
8
CUT
10
116.3263
20
202.8823
0
VERTEX
8
CUT
10
116.4129
20
210.2132
0
VERTEX
8
CUT
10
117.3195
20
213.2647
0
VERTEX
8
CUT
10
116.9849
20
213.5923
0
VERTEX
8
CUT
10
115.9484
20
213.4240
0
VERTEX
8
CUT
10
115.0619
20
213.9285
0
VERTEX
8
CUT
10
114.7206
20
214.6162
0
VERTEX
8
CUT
10
114.8339
20
215.5682
0
VERTEX
8
CUT
10
115.0642
20
215.8201
0
VERTEX
8
CUT
10
115.6651
20
215.8618
0
VERTEX
8
CUT
10
117.7425
20
214.8324
0
VERTEX
8
CUT
10
118.1489
20
214.8933
0
VERTEX
8
CUT
10
120.9353
20
219.4171
0
VERTEX
8
CUT
10
122.7582
20
221.7249
0
VERTEX
8
CUT
10
123.2761
20
222.2573
0
VERTEX
8
CUT
10
124.2078
20
223.1706
0
VERTEX
8
CUT
10
124.8214
20
223.4156
0
VERTEX
8
CUT
10
125.1681
20
223.3007
0
VERTEX
8
CUT
10
126.7050
20
222.0534
0
VERTEX
8
CUT
10
128.6281
20
221.2052
0
VERTEX
8
CUT
10
128.9853
20
220.4960
0
VERTEX
8
CUT
10
128.6664
20
219.5736
0
VERTEX
8
CUT
10
126.4765
20
216.8746
0
VERTEX
8
CUT
10
125.2905
20
215.0799
0
VERTEX
8
CUT
10
124.6110
20
213.6490
0
VERTEX
8
CUT
10
124.5436
20
213.6607
0
VERTEX
8
CUT
10
124.3622
20
213.2072
0
VERTEX
8
CUT
10
124.3857
20
213.1747
0
VERTEX
8
CUT
10
124.3456
20
213.0901
0
VERTEX
8
CUT
10
124.4104
20
212.5835
0
VERTEX
8
CUT
10
125.1587
20
211.9733
0
VERTEX
8
CUT
10
129.2873
20
209.9819
0
VERTEX
8
CUT
10
132.4010
20
208.2113
0
VERTEX
8
CUT
10
134.8652
20
206.5067
0
VERTEX
8
CUT
10
137.7220
20
204.0569
0
VERTEX
8
CUT
10
138.1270
20
203.9321
0
VERTEX
8
CUT
10
138.4677
20
204.2913
0
VERTEX
8
CUT
10
138.2695
20
207.4518
0
VERTEX
8
CUT
10
138.7263
20
210.0116
0
VERTEX
8
CUT
10
139.0116
20
210.8279
0
VERTEX
8
CUT
10
139.8493
20
212.6007
0
VERTEX
8
CUT
10
140.6457
20
214.1103
0
VERTEX
8
CUT
10
140.6554
20
214.1242
0
VERTEX
8
CUT
10
140.7262
20
214.2249
0
VERTEX
8
CUT
10
140.9616
20
214.5599
0
VERTEX
8
CUT
10
142.6272
20
216.9306
0
VERTEX
8
CUT
10
146.6681
20
221.4205
0
VERTEX
8
CUT
10
150.3692
20
224.9102
0
VERTEX
8
CUT
10
150.9545
20
225.2547
0
VERTEX
8
CUT
10
151.4289
20
225.2630
0
VERTEX
8
CUT
10
151.6355
20
225.5223
0
VERTEX
8
CUT
10
151.5436
20
225.8762
0
VERTEX
8
CUT
10
148.6955
20
228.8118
0
VERTEX
8
CUT
10
147.6423
20
229.7415
0
VERTEX
8
CUT
10
145.4718
20
231.1900
0
VERTEX
8
CUT
10
145.5505
20
231.7301
0
VERTEX
8
CUT
10
148.4371
20
234.4047
0
VERTEX
8
CUT
10
149.3720
20
234.9249
0
VERTEX
8
CUT
10
149.7631
20
234.8685
0
VERTEX
8
CUT
10
150.9552
20
233.7924
0
VERTEX
8
CUT
10
151.6040
20
232.2008
0
VERTEX
8
CUT
10
153.3199
20
231.7475
0
VERTEX
8
CUT
10
154.6332
20
231.0249
0
VERTEX
8
CUT
10
155.1024
20
230.6310
0
VERTEX
8
CUT
10
155.7924
20
230.0006
0
VERTEX
8
CUT
10
155.8987
20
229.9035
0
VERTEX
8
CUT
10
155.9799
20
229.8294
0
VERTEX
8
CUT
10
156.0880
20
229.7306
0
VERTEX
8
CUT
10
156.1843
20
229.6426
0
VERTEX
8
CUT
10
156.2882
20
229.5477
0
VERTEX
8
CUT
10
157.9549
20
227.7041
0
VERTEX
8
CUT
10
160.9375
20
223.1729
0
VERTEX
8
CUT
10
161.9537
20
220.5050
0
VERTEX
8
CUT
10
162.4166
20
217.6294
0
VERTEX
8
CUT
10
162.4198
20
216.1803
0
VERTEX
8
CUT
10
161.8351
20
212.9607
0
VERTEX
8
CUT
10
161.0364
20
210.8973
0
VERTEX
8
CUT
10
160.7597
20
210.3366
0
VERTEX
8
CUT
10
160.2793
20
209.6203
0
VERTEX
8
CUT
10
159.9155
20
209.4333
0
VERTEX
8
CUT
10
159.2145
20
209.8295
0
VERTEX
8
CUT
10
157.0931
20
212.0725
0
VERTEX
8
CUT
10
156.1931
20
213.2553
0
VERTEX
8
CUT
10
156.0451
20
213.6788
0
VERTEX
8
CUT
10
156.3178
20
216.5627
0
VERTEX
8
CUT
10
156.2615
20
218.2267
0
VERTEX
8
CUT
10
156.1368
20
218.6309
0
VERTEX
8
CUT
10
155.8596
20
220.3142
0
VERTEX
8
CUT
10
153.7586
20
223.3891
0
VERTEX
8
CUT
10
153.4434
20
223.6541
0
VERTEX
8
CUT
10
153.0885
20
223.5787
0
VERTEX
8
CUT
10
152.9493
20
223.2436
0
VERTEX
8
CUT
10
153.1998
20
221.0140
0
VERTEX
8
CUT
10
152.9521
20
219.8907
0
VERTEX
8
CUT
10
149.5759
20
216.3274
0
VERTEX
8
CUT
10
146.4904
20
212.1933
0
VERTEX
8
CUT
10
144.4537
20
208.5158
0
VERTEX
8
CUT
10
143.7933
20
206.0832
0
VERTEX
8
CUT
10
143.6192
20
204.4737
0
VERTEX
8
CUT
10
143.8426
20
203.0916
0
VERTEX
8
CUT
10
143.7801
20
201.9423
0
VERTEX
8
CUT
10
144.5198
20
200.4934
0
VERTEX
8
CUT
10
144.8131
20
199.7092
0
VERTEX
8
CUT
10
146.7763
20
195.9932
0
VERTEX
8
CUT
10
147.4396
20
193.2804
0
VERTEX
8
CUT
10
147.7289
20
193.0061
0
VERTEX
8
CUT
10
148.1503
20
193.1857
0
VERTEX
8
CUT
10
149.8137
20
196.2903
0
VERTEX
8
CUT
10
150.8013
20
197.7708
0
VERTEX
8
CUT
10
150.9022
20
197.9052
0
VERTEX
8
CUT
10
151.3232
20
198.4045
0
VERTEX
8
CUT
10
151.6474
20
198.7890
0
VERTEX
8
CUT
10
152.3764
20
199.6536
0
VERTEX
8
CUT
10
152.4472
20
199.7376
0
VERTEX
8
CUT
10
153.6152
20
201.0712
0
VERTEX
8
CUT
10
154.0453
20
201.5319
0
VERTEX
8
CUT
10
154.0762
20
201.5844
0
VERTEX
8
CUT
10
154.3199
20
201.8409
0
VERTEX
8
CUT
10
154.4557
20
202.0310
0
VERTEX
8
CUT
10
154.7944
20
202.4177
0
VERTEX
8
CUT
10
154.6521
20
202.6532
0
VERTEX
8
CUT
10
154.6524
20
202.6571
0
VERTEX
8
CUT
10
154.6491
20
202.6581
0
VERTEX
8
CUT
10
153.7175
20
204.1999
0
VERTEX
8
CUT
10
151.9576
20
206.1049
0
VERTEX
8
CUT
10
151.9294
20
206.1409
0
VERTEX
8
CUT
10
151.8587
20
206.2119
0
VERTEX
8
CUT
10
147.6660
20
210.7503
0
VERTEX
8
CUT
10
147.9212
20
211.3630
0
VERTEX
8
CUT
10
149.3936
20
213.2637
0
VERTEX
8
CUT
10
150.7866
20
214.5472
0
VERTEX
8
CUT
10
151.2242
20
214.6857
0
VERTEX
8
CUT
10
151.7402
20
214.4432
0
VERTEX
8
CUT
10
155.8322
20
210.7524
0
VERTEX
8
CUT
10
160.0222
20
206.0492
0
VERTEX
8
CUT
10
160.2582
20
206.0057
0
VERTEX
8
CUT
10
160.2835
20
205.9776
0
VERTEX
8
CUT
10
160.3211
20
205.9942
0
VERTEX
8
CUT
10
160.4576
20
205.9690
0
VERTEX
8
CUT
10
174.3842
20
212.0934
0
VERTEX
8
CUT
10
175.3543
20
212.6295
0
VERTEX
8
CUT
10
175.4276
20
212.6619
0
VERTEX
8
CUT
10
175.4419
20
212.6779
0
VERTEX
8
CUT
10
175.8377
20
212.8966
0
VERTEX
8
CUT
10
175.9092
20
213.2902
0
VERTEX
8
CUT
10
175.0942
20
214.9040
0
VERTEX
8
CUT
10
174.2908
20
216.0033
0
VERTEX
8
CUT
10
174.1849
20
216.1773
0
VERTEX
8
CUT
10
173.6576
20
216.8698
0
VERTEX
8
CUT
10
171.8863
20
219.2933
0
VERTEX
8
CUT
10
171.1000
20
220.8078
0
VERTEX
8
CUT
10
171.3997
20
221.6988
0
VERTEX
8
CUT
10
173.6896
20
222.1142
0
VERTEX
8
CUT
10
174.2831
20
222.4941
0
VERTEX
8
CUT
10
174.8051
20
223.2856
0
VERTEX
8
CUT
10
175.1609
20
223.4221
0
VERTEX
8
CUT
10
176.3216
20
222.9419
0
VERTEX
8
CUT
10
178.3341
20
220.8174
0
VERTEX
8
CUT
10
179.7696
20
218.7911
0
VERTEX
8
CUT
10
180.1673
20
217.4579
0
VERTEX
8
CUT
10
180.6166
20
216.6891
0
VERTEX
8
CUT
10
182.1501
20
215.3708
0
VERTEX
8
CUT
10
183.0750
20
215.4583
0
VERTEX
8
CUT
10
185.4736
20
216.3757
0
VERTEX
8
CUT
10
186.7154
20
216.0775
0
VERTEX
8
CUT
10
188.3724
20
216.3798
0
VERTEX
8
CUT
10
189.5594
20
216.2286
0
VERTEX
8
CUT
10
189.7925
20
216.5987
0
VERTEX
8
CUT
10
189.4801
20
217.3533
0
VERTEX
8
CUT
10
189.4631
20
218.1501
0
VERTEX
8
CUT
10
189.8901
20
218.7819
0
VERTEX
8
CUT
10
190.8550
20
219.1903
0
VERTEX
8
CUT
10
191.4462
20
218.9717
0
VERTEX
8
CUT
10
192.4604
20
217.3226
0
VERTEX
8
CUT
10
193.4009
20
216.7995
0
VERTEX
8
CUT
10
194.1371
20
216.0391
0
VERTEX
8
CUT
10
194.2782
20
215.5881
0
VERTEX
8
CUT
10
194.0111
20
215.1777
0
VERTEX
8
CUT
10
192.8136
20
214.2224
0
VERTEX
8
CUT
10
192.2548
20
214.0255
0
VERTEX
8
CUT
10
191.7500
20
214.3011
0
VERTEX
8
CUT
10
190.9258
20
215.7906
0
VERTEX
8
CUT
10
190.4533
20
216.0761
0
VERTEX
8
CUT
10
190.1168
20
216.0438
0
VERTEX
8
CUT
10
189.9341
20
215.6447
0
VERTEX
8
CUT
10
190.4844
20
214.5348
0
VERTEX
8
CUT
10
190.6224
20
213.7499
0
VERTEX
8
CUT
10
190.3449
20
213.0533
0
VERTEX
8
CUT
10
188.0909
20
211.7201
0
VERTEX
8
CUT
10
185.1629
20
210.7286
0
VERTEX
8
CUT
10
184.2963
20
210.2221
0
VERTEX
8
CUT
10
184.1823
20
209.9697
0
VERTEX
8
CUT
10
183.9742
20
209.8794
0
VERTEX
8
CUT
10
183.9692
20
209.4978
0
VERTEX
8
CUT
10
183.9215
20
209.3922
0
VERTEX
8
CUT
10
183.8225
20
208.5198
0
VERTEX
8
CUT
10
183.9148
20
205.3588
0
VERTEX
8
CUT
10
183.9134
20
205.2536
0
VERTEX
8
CUT
10
183.9196
20
205.1957
0
VERTEX
8
CUT
10
183.9591
20
203.8434
0
VERTEX
8
CUT
10
183.8543
20
203.3826
0
VERTEX
8
CUT
10
183.9799
20
203.1315
0
VERTEX
8
CUT
10
183.9839
20
202.9931
0
VERTEX
8
CUT
10
184.0891
20
202.9130
0
VERTEX
8
CUT
10
184.1264
20
202.8384
0
VERTEX
8
CUT
10
184.1710
20
202.8506
0
VERTEX
8
CUT
10
184.4195
20
202.6614
0
VERTEX
8
CUT
10
187.1726
20
203.5514
0
VERTEX
8
CUT
10
188.6472
20
203.8298
0
VERTEX
8
CUT
10
193.5463
20
204.2573
0
VERTEX
8
CUT
10
195.9830
20
204.1633
0
VERTEX
8
CUT
10
198.0088
20
203.3865
0
VERTEX
8
CUT
10
198.6117
20
202.8143
0
VERTEX
8
CUT
10
199.1706
20
201.2427
0
VERTEX
8
CUT
10
200.0847
20
199.9765
0
VERTEX
8
CUT
10
198.3765
20
197.6280
0
VERTEX
8
CUT
10
196.7759
20
197.0768
0
VERTEX
8
CUT
10
196.8781
20
196.1165
0
VERTEX
8
CUT
10
197.5783
20
195.0021
0
VERTEX
8
CUT
10
198.1873
20
194.8893
0
VERTEX
8
CUT
10
201.9844
20
195.4607
0
VERTEX
8
CUT
10
207.4608
20
195.6427
0
VERTEX
8
CUT
10
211.8364
20
196.2126
0
VERTEX
8
CUT
10
213.5913
20
196.5775
0
VERTEX
8
CUT
10
215.3603
20
197.2131
0
VERTEX
8
CUT
10
216.8601
20
197.2135
0
VERTEX
8
CUT
10
217.1655
20
197.8397
0
VERTEX
8
CUT
10
218.4834
20
198.8583
0
VERTEX
8
CUT
10
219.2898
20
199.2320
0
VERTEX
8
CUT
10
219.9299
20
199.1217
0
VERTEX
8
CUT
10
220.2047
20
198.7742
0
VERTEX
8
CUT
10
221.1393
20
195.2599
0
VERTEX
8
CUT
10
220.7380
20
195.0491
0
VERTEX
8
CUT
10
219.5856
20
195.9211
0
VERTEX
8
CUT
10
218.8051
20
195.9015
0
VERTEX
8
CUT
10
218.6229
20
195.6159
0
VERTEX
8
CUT
10
218.4856
20
193.8549
0
VERTEX
8
CUT
10
217.7864
20
193.2110
0
VERTEX
8
CUT
10
214.9589
20
192.5417
0
VERTEX
8
CUT
10
214.7850
20
192.7635
0
VERTEX
8
CUT
10
214.8698
20
193.3555
0
VERTEX
8
CUT
10
214.6529
20
193.9156
0
VERTEX
8
CUT
10
214.0971
20
194.5734
0
VERTEX
8
CUT
10
213.7758
20
194.6460
0
VERTEX
8
CUT
10
213.4975
20
194.4126
0
VERTEX
8
CUT
10
213.3607
20
193.6815
0
VERTEX
8
CUT
10
213.8562
20
192.7867
0
VERTEX
8
CUT
10
213.3584
20
192.2380
0
VERTEX
8
CUT
10
212.8642
20
192.0235
0
VERTEX
8
CUT
10
210.4786
20
191.4748
0
VERTEX
8
CUT
10
197.8375
20
189.9370
0
VERTEX
8
CUT
10
195.5801
20
189.3449
0
VERTEX
8
CUT
10
193.8920
20
188.5617
0
VERTEX
8
CUT
10
190.7346
20
186.3257
0
VERTEX
8
CUT
10
187.2637
20
183.4058
0
VERTEX
8
CUT
10
184.8624
20
181.7656
0
VERTEX
8
CUT
10
182.3079
20
180.3675
0
VERTEX
8
CUT
10
174.9556
20
177.1283
0
VERTEX
8
CUT
10
172.3318
20
175.3885
0
VERTEX
8
CUT
10
170.5503
20
173.6684
0
VERTEX
8
CUT
10
168.9642
20
171.7202
0
VERTEX
8
CUT
10
168.0581
20
170.1998
0
VERTEX
8
CUT
10
167.8508
20
169.9039
0
VERTEX
8
CUT
10
167.7932
20
169.7552
0
VERTEX
8
CUT
10
167.7730
20
169.7213
0
VERTEX
8
CUT
10
166.7671
20
167.1394
0
VERTEX
8
CUT
10
166.0159
20
157.6212
0
VERTEX
8
CUT
10
163.9534
20
150.3888
0
VERTEX
8
CUT
10
163.5704
20
148.2735
0
VERTEX
8
CUT
10
163.5397
20
146.8402
0
VERTEX
8
CUT
10
163.6713
20
146.2565
0
VERTEX
8
CUT
10
163.6609
20
146.2484
0
VERTEX
8
CUT
10
163.7213
20
145.4926
0
VERTEX
8
CUT
10
164.0829
20
144.4320
0
VERTEX
8
CUT
10
164.0985
20
144.3631
0
VERTEX
8
CUT
10
164.1675
20
144.1837
0
VERTEX
8
CUT
10
164.6282
20
142.8324
0
VERTEX
8
CUT
10
164.8891
20
142.3107
0
VERTEX
8
CUT
10
166.0368
20
139.3313
0
VERTEX
8
CUT
10
166.4976
20
137.5494
0
VERTEX
8
CUT
10
166.4124
20
127.8324
0
VERTEX
8
CUT
10
166.2900
20
125.0998
0
VERTEX
8
CUT
10
166.4145
20
123.6532
0
VERTEX
8
CUT
10
166.5651
20
121.5627
0
VERTEX
8
CUT
10
167.0511
20
120.1088
0
VERTEX
8
CUT
10
167.5164
20
119.2194
0
VERTEX
8
CUT
10
167.5267
20
119.1906
0
VERTEX
8
CUT
10
167.5693
20
119.1184
0
VERTEX
8
CUT
10
168.0822
20
118.1382
0
VERTEX
8
CUT
10
169.4575
20
116.1695
0
VERTEX
8
CUT
10
171.0427
20
114.5551
0
VERTEX
8
CUT
10
172.8800
20
113.2299
0
VERTEX
8
CUT
10
173.1845
20
113.0917
0
VERTEX
8
CUT
10
173.3557
20
112.9521
0
VERTEX
8
CUT
10
175.1629
20
112.1940
0
VERTEX
8
CUT
10
175.5604
20
112.0136
0
VERTEX
8
CUT
10
177.2112
20
111.7847
0
VERTEX
8
CUT
10
178.2001
20
111.7852
0
VERTEX
8
CUT
10
178.5579
20
111.7320
0
VERTEX
8
CUT
10
178.9296
20
111.7603
0
VERTEX
8
CUT
10
179.0033
20
111.7553
0
VERTEX
8
CUT
10
179.4085
20
111.7859
0
VERTEX
8
CUT
10
180.7794
20
111.7866
0
VERTEX
8
CUT
10
181.9381
20
111.9093
0
VERTEX
8
CUT
10
183.3280
20
112.4086
0
VERTEX
8
CUT
10
184.4997
20
113.1018
0
VERTEX
8
CUT
10
184.7664
20
113.2234
0
VERTEX
8
CUT
10
184.9304
20
113.3565
0
VERTEX
8
CUT
10
185.4153
20
113.6434
0
VERTEX
8
CUT
10
187.4658
20
115.3523
0
VERTEX
8
CUT
10
188.2087
20
115.5537
0
VERTEX
8
CUT
10
188.7238
20
115.1517
0
VERTEX
8
CUT
10
189.0412
20
113.7625
0
VERTEX
8
CUT
10
189.9083
20
112.5713
0
VERTEX
8
CUT
10
189.8706
20
111.9719
0
VERTEX
8
CUT
10
189.8173
20
111.9120
0
VERTEX
8
CUT
10
189.8147
20
111.9090
0
VERTEX
8
CUT
10
189.7592
20
111.8466
0
VERTEX
8
CUT
10
189.6587
20
111.7334
0
VERTEX
8
CUT
10
188.9541
20
111.2153
0
VERTEX
8
CUT
10
188.4337
20
111.3025
0
VERTEX
8
CUT
10
187.9309
20
111.6834
0
VERTEX
8
CUT
10
187.6055
20
111.6420
0
VERTEX
8
CUT
10
187.1577
20
110.3073
0
VERTEX
8
CUT
10
186.5362
20
109.4863
0
VERTEX
8
CUT
10
185.9310
20
109.0593
0
VERTEX
8
CUT
10
184.6193
20
108.4108
0
VERTEX
8
CUT
10
183.2311
20
107.8508
0
VERTEX
8
CUT
10
183.0561
20
107.5704
0
VERTEX
8
CUT
10
183.1346
20
107.2851
0
VERTEX
8
CUT
10
183.5063
20
107.1570
0
VERTEX
8
CUT
10
183.5520
20
107.0706
0
VERTEX
8
CUT
10
184.8566
20
106.6792
0
VERTEX
8
CUT
10
184.9549
20
106.6419
0
VERTEX
8
CUT
10
185.0208
20
106.6300
0
VERTEX
8
CUT
10
185.1289
20
106.5975
0
VERTEX
8
CUT
10
185.5189
20
106.4631
0
VERTEX
8
CUT
10
185.6413
20
106.4438
0
VERTEX
8
CUT
10
185.6681
20
106.4358
0
VERTEX
8
CUT
10
185.7992
20
106.4190
0
VERTEX
8
CUT
10
188.2103
20
106.0395
0
VERTEX
8
CUT
10
188.8694
20
106.0253
0
VERTEX
8
CUT
10
189.2050
20
105.9823
0
VERTEX
8
CUT
10
189.5617
20
106.0105
0
VERTEX
8
CUT
10
190.6290
20
105.9876
0
VERTEX
8
CUT
10
191.3564
20
105.9509
0
VERTEX
8
CUT
10
191.5653
20
105.9675
0
VERTEX
8
CUT
10
192.3829
20
105.9500
0
VERTEX
8
CUT
10
194.7315
20
106.2743
0
VERTEX
8
CUT
10
196.7741
20
106.9531
0
VERTEX
8
CUT
10
196.8609
20
106.9742
0
VERTEX
8
CUT
10
196.9400
20
107.0082
0
VERTEX
8
CUT
10
197.9626
20
107.3481
0
VERTEX
8
CUT
10
200.0311
20
108.3654
0
VERTEX
8
CUT
10
201.7825
20
109.4613
0
VERTEX
8
CUT
10
204.1762
20
111.4586
0
VERTEX
8
CUT
10
206.3445
20
114.6423
0
VERTEX
8
CUT
10
207.6712
20
117.0287
0
VERTEX
8
CUT
10
208.1675
20
118.9184
0
VERTEX
8
CUT
10
208.5618
20
121.8510
0
VERTEX
8
CUT
10
208.8497
20
122.5345
0
VERTEX
8
CUT
10
211.0297
20
122.7574
0
VERTEX
8
CUT
10
214.2132
20
123.9053
0
VERTEX
8
CUT
10
214.9613
20
123.7467
0
VERTEX
8
CUT
10
215.5242
20
123.0639
0
VERTEX
8
CUT
10
216.1941
20
120.6882
0
VERTEX
8
CUT
10
216.0954
20
119.6064
0
VERTEX
8
CUT
10
215.4838
20
118.5733
0
VERTEX
8
CUT
10
213.2201
20
115.8518
0
VERTEX
8
CUT
10
212.5876
20
114.1302
0
VERTEX
8
CUT
10
211.0094
20
110.9421
0
VERTEX
8
CUT
10
211.1081
20
110.6129
0
VERTEX
8
CUT
10
212.0061
20
110.1074
0
VERTEX
8
CUT
10
212.7292
20
109.2513
0
VERTEX
8
CUT
10
212.9634
20
108.4269
0
VERTEX
8
CUT
10
212.6785
20
107.8187
0
VERTEX
8
CUT
10
211.7361
20
107.4954
0
VERTEX
8
CUT
10
208.8078
20
107.2882
0
VERTEX
8
CUT
10
208.2217
20
106.1708
0
VERTEX
8
CUT
10
206.8453
20
104.8252
0
VERTEX
8
CUT
10
205.8377
20
104.4172
0
VERTEX
8
CUT
10
203.9694
20
103.2153
0
VERTEX
8
CUT
10
202.0934
20
102.4702
0
VERTEX
8
CUT
10
200.2245
20
101.2364
0
VERTEX
8
CUT
10
198.5929
20
100.7592
0
VERTEX
8
CUT
10
196.8230
20
100.7907
0
VERTEX
8
CUT
10
194.8329
20
99.9199
0
VERTEX
8
CUT
10
194.5884
20
99.8779
0
VERTEX
8
CUT
10
194.4543
20
99.7542
0
VERTEX
8
CUT
10
194.2346
20
99.6581
0
VERTEX
8
CUT
10
194.1622
20
98.5620
0
VERTEX
8
CUT
10
194.4628
20
97.6617
0
VERTEX
8
CUT
10
195.6535
20
97.6028
0
VERTEX
8
CUT
10
196.2994
20
97.3495
0
VERTEX
8
CUT
10
196.9614
20
96.7970
0
VERTEX
8
CUT
10
198.0124
20
95.4071
0
VERTEX
8
CUT
10
200.1361
20
94.7049
0
VERTEX
8
CUT
10
200.8977
20
94.1930
0
VERTEX
8
CUT
10
201.2596
20
93.6337
0
VERTEX
8
CUT
10
200.9595
20
92.8697
0
VERTEX
8
CUT
10
199.5653
20
91.2932
0
VERTEX
8
CUT
10
199.4853
20
90.9968
0
VERTEX
8
CUT
10
201.4966
20
86.3073
0
VERTEX
8
CUT
10
202.5256
20
83.0993
0
VERTEX
8
CUT
10
202.7732
20
81.7000
0
VERTEX
8
CUT
10
202.6843
20
81.2650
0
VERTEX
8
CUT
10
202.3039
20
80.9882
0
VERTEX
8
CUT
10
200.9830
20
81.4001
0
VERTEX
8
CUT
10
200.4022
20
81.2684
0
VERTEX
8
CUT
10
200.0932
20
80.6477
0
VERTEX
8
CUT
10
199.9427
20
79.4966
0
VERTEX
8
CUT
10
199.4041
20
78.8043
0
VERTEX
8
CUT
10
198.4999
20
78.8820
0
VERTEX
8
CUT
10
197.9333
20
79.5309
0
VERTEX
8
CUT
10
197.8573
20
80.2426
0
VERTEX
8
CUT
10
198.3047
20
82.2061
0
VERTEX
8
CUT
10
197.4851
20
84.4466
0
VERTEX
8
CUT
10
196.7455
20
85.7225
0
VERTEX
8
CUT
10
195.8384
20
86.7566
0
VERTEX
8
CUT
10
194.9780
20
86.5793
0
VERTEX
8
CUT
10
194.3410
20
87.0073
0
VERTEX
8
CUT
10
192.1019
20
90.9476
0
VERTEX
8
CUT
10
188.8138
20
95.0117
0
VERTEX
8
CUT
10
187.4403
20
96.2968
0
VERTEX
8
CUT
10
184.9031
20
98.2082
0
VERTEX
8
CUT
10
184.1713
20
98.5591
0
VERTEX
8
CUT
10
183.8781
20
98.3938
0
VERTEX
8
CUT
10
183.8139
20
98.0993
0
VERTEX
8
CUT
10
184.8178
20
95.4577
0
VERTEX
8
CUT
10
184.7487
20
94.7321
0
VERTEX
8
CUT
10
184.4595
20
94.3972
0
VERTEX
8
CUT
10
183.5806
20
94.3477
0
VERTEX
8
CUT
10
183.0653
20
94.6848
0
VERTEX
8
CUT
10
181.3312
20
96.9680
0
VERTEX
8
CUT
10
180.5999
20
98.0204
0
VERTEX
8
CUT
10
180.5357
20
98.0154
0
VERTEX
8
CUT
10
180.3124
20
98.3094
0
VERTEX
8
CUT
10
179.8331
20
98.0353
0
VERTEX
8
CUT
10
179.9833
20
96.5612
0
VERTEX
8
CUT
10
179.7453
20
96.0150
0
VERTEX
8
CUT
10
179.2754
20
95.7370
0
VERTEX
8
CUT
10
178.3823
20
96.0590
0
VERTEX
8
CUT
10
176.6300
20
98.6652
0
VERTEX
8
CUT
10
176.2713
20
99.0266
0
VERTEX
8
CUT
10
176.2695
20
99.0296
0
VERTEX
8
CUT
10
176.2564
20
99.0417
0
VERTEX
8
CUT
10
175.4578
20
99.8465
0
VERTEX
8
CUT
10
175.1862
20
100.0280
0
VERTEX
8
CUT
10
175.1311
20
100.0788
0
VERTEX
8
CUT
10
174.1933
20
100.6915
0
VERTEX
8
CUT
10
173.6396
20
101.0615
0
VERTEX
8
CUT
10
173.5617
20
101.1041
0
VERTEX
8
CUT
10
173.4900
20
101.1510
0
VERTEX
8
CUT
10
173.2498
20
101.2749
0
VERTEX
8
CUT
10
168.2443
20
104.0152
0
VERTEX
8
CUT
10
165.8668
20
105.7506
0
VERTEX
8
CUT
10
163.8013
20
107.6924
0
VERTEX
8
CUT
10
161.5272
20
110.6026
0
VERTEX
8
CUT
10
161.1577
20
110.8193
0
VERTEX
8
CUT
10
160.8184
20
110.6138
0
VERTEX
8
CUT
10
160.7075
20
110.2647
0
VERTEX
8
CUT
10
160.6633
20
110.1959
0
VERTEX
8
CUT
10
160.6389
20
110.0487
0
VERTEX
8
CUT
10
160.5713
20
109.8356
0
VERTEX
8
CUT
10
159.8766
20
106.4809
0
VERTEX
8
CUT
10
159.6419
20
104.4861
0
VERTEX
8
CUT
10
159.6681
20
102.6785
0
VERTEX
8
CUT
10
159.9781
20
100.9556
0
VERTEX
8
CUT
10
160.5994
20
99.3679
0
VERTEX
8
CUT
10
161.5256
20
97.7018
0
VERTEX
8
CUT
10
165.9404
20
92.2388
0
VERTEX
8
CUT
10
167.0168
20
90.6402
0
VERTEX
8
CUT
10
167.0254
20
90.6230
0
VERTEX
8
CUT
10
167.0468
20
90.5801
0
VERTEX
8
CUT
10
167.0727
20
90.5284
0
VERTEX
8
CUT
10
167.1468
20
90.3802
0
VERTEX
8
CUT
10
170.2297
20
83.0666
0
VERTEX
8
CUT
10
171.6268
20
80.5979
0
VERTEX
8
CUT
10
173.4935
20
77.9276
0
VERTEX
8
CUT
10
175.1464
20
71.6557
0
VERTEX
8
CUT
10
175.2023
20
70.4507
0
VERTEX
8
CUT
10
174.8738
20
69.9571
0
VERTEX
8
CUT
10
174.2001
20
69.9244
0
VERTEX
8
CUT
10
173.2783
20
70.3175
0
VERTEX
8
CUT
10
169.2209
20
73.2546
0
VERTEX
8
CUT
10
168.1114
20
73.8334
0
VERTEX
8
CUT
10
167.6692
20
73.4412
0
VERTEX
8
CUT
10
166.8374
20
71.2673
0
VERTEX
8
CUT
10
165.8328
20
69.4854
0
VERTEX
8
CUT
10
165.2494
20
69.4481
0
VERTEX
8
CUT
10
161.9964
20
67.9554
0
VERTEX
8
CUT
10
160.7507
20
68.5130
0
VERTEX
8
CUT
10
159.2777
20
69.8325
0
VERTEX
8
CUT
10
159.2150
20
70.6254
0
VERTEX
8
CUT
10
161.2404
20
73.6522
0
VERTEX
8
CUT
10
162.0501
20
75.3791
0
VERTEX
8
CUT
10
162.4529
20
77.1121
0
VERTEX
8
CUT
10
162.5411
20
78.9021
0
VERTEX
8
CUT
10
162.2082
20
80.8988
0
VERTEX
8
CUT
10
161.5604
20
82.8973
0
VERTEX
8
CUT
10
160.5255
20
84.9696
0
VERTEX
8
CUT
10
159.3085
20
86.8468
0
VERTEX
8
CUT
10
158.9698
20
86.9920
0
VERTEX
8
CUT
10
158.6814
20
86.8230
0
VERTEX
8
CUT
10
158.4594
20
86.2700
0
VERTEX
8
CUT
10
158.1334
20
83.7164
0
VERTEX
8
CUT
10
157.3030
20
81.1243
0
VERTEX
8
CUT
10
155.6912
20
77.7835
0
VERTEX
8
CUT
10
155.0281
20
76.9516
0
VERTEX
8
CUT
10
154.5538
20
76.9060
0
VERTEX
8
CUT
10
153.9386
20
77.2889
0
VERTEX
8
CUT
10
151.4880
20
80.1972
0
VERTEX
8
CUT
10
152.5209
20
83.2347
0
VERTEX
8
CUT
10
153.2081
20
85.9920
0
VERTEX
8
CUT
10
153.4737
20
88.6174
0
VERTEX
8
CUT
10
153.3574
20
91.1472
0
VERTEX
8
CUT
10
152.8472
20
93.2601
0
VERTEX
8
CUT
10
151.3807
20
96.9705
0
VERTEX
8
CUT
10
150.2902
20
99.1804
0
VERTEX
8
CUT
10
149.7619
20
99.7026
0
VERTEX
8
CUT
10
149.3796
20
99.4247
0
VERTEX
8
CUT
10
148.9630
20
96.5662
0
VERTEX
8
CUT
10
147.8520
20
93.7806
0
VERTEX
8
CUT
10
147.7479
20
93.5478
0
VERTEX
8
CUT
10
147.7234
20
93.4582
0
VERTEX
8
CUT
10
147.3945
20
92.6333
0
VERTEX
8
CUT
10
147.3259
20
92.4921
0
VERTEX
8
CUT
10
147.3258
20
92.4611
0
VERTEX
8
CUT
10
147.1459
20
92.0100
0
VERTEX
8
CUT
10
147.0783
20
90.5982
0
VERTEX
8
CUT
10
146.9429
20
89.6155
0
VERTEX
8
CUT
10
146.9565
20
88.7619
0
VERTEX
8
CUT
10
146.9448
20
88.6663
0
VERTEX
8
CUT
10
146.9613
20
88.4635
0
VERTEX
8
CUT
10
146.9733
20
87.7127
0
VERTEX
8
CUT
10
147.0680
20
87.1529
0
VERTEX
8
CUT
10
147.0681
20
87.1526
0
VERTEX
8
CUT
10
147.0681
20
87.1524
0
VERTEX
8
CUT
10
147.2382
20
86.1475
0
VERTEX
8
CUT
10
147.2757
20
85.6900
0
VERTEX
8
CUT
10
148.2736
20
82.8154
0
VERTEX
8
CUT
10
150.1045
20
79.6882
0
VERTEX
8
CUT
10
151.0253
20
78.5084
0
VERTEX
8
CUT
10
151.1571
20
78.3051
0
VERTEX
8
CUT
10
151.9148
20
77.3687
0
VERTEX
8
CUT
10
154.7193
20
73.7755
0
VERTEX
8
CUT
10
157.7419
20
70.4653
0
VERTEX
8
CUT
10
157.6134
20
66.1061
0
VERTEX
8
CUT
10
157.2982
20
64.6223
0
VERTEX
8
CUT
10
156.8592
20
64.3882
0
VERTEX
8
CUT
10
156.3199
20
64.6175
0
VERTEX
8
CUT
10
154.8044
20
65.9928
0
VERTEX
8
CUT
10
150.3787
20
70.7525
0
VERTEX
8
CUT
10
146.9628
20
74.9241
0
VERTEX
8
CUT
10
144.5035
20
78.5355
0
VERTEX
8
CUT
10
143.6180
20
80.1819
0
VERTEX
8
CUT
10
141.8149
20
84.9078
0
VERTEX
8
CUT
10
141.3857
20
85.4357
0
VERTEX
8
CUT
10
141.1901
20
85.2979
0
VERTEX
8
CUT
10
141.1799
20
85.3029
0
VERTEX
8
CUT
10
140.8132
20
85.1011
0
VERTEX
8
CUT
10
140.7020
20
84.9543
0
VERTEX
8
CUT
10
140.4663
20
84.7883
0
VERTEX
8
CUT
10
139.3752
20
83.3041
0
VERTEX
8
CUT
10
138.6091
20
81.7349
0
VERTEX
8
CUT
10
138.3474
20
80.6765
0
VERTEX
8
CUT
10
138.3199
20
80.5922
0
VERTEX
8
CUT
10
138.3162
20
80.5501
0
VERTEX
8
CUT
10
137.9926
20
79.2414
0
VERTEX
8
CUT
10
138.0512
20
76.7748
0
VERTEX
8
CUT
10
138.4141
20
75.3189
0
VERTEX
8
CUT
10
139.0934
20
73.9109
0
VERTEX
8
CUT
10
141.7103
20
70.0956
0
VERTEX
8
CUT
10
140.2567
20
68.0455
0
VERTEX
8
CUT
10
139.6926
20
66.2093
0
VERTEX
8
CUT
10
139.2535
20
66.2798
0
VERTEX
8
CUT
10
137.2054
20
68.2664
0
VERTEX
8
CUT
10
135.6364
20
68.8527
0
VERTEX
8
CUT
10
134.7428
20
69.6397
0
VERTEX
8
CUT
10
133.9367
20
70.7951
0
VERTEX
8
CUT
10
132.7872
20
73.5994
0
VERTEX
8
CUT
10
132.4933
20
73.8422
0
VERTEX
8
CUT
10
132.0242
20
73.6957
0
VERTEX
8
CUT
10
126.5148
20
69.9436
0
VERTEX
8
CUT
10
125.5689
20
69.4751
0
VERTEX
8
CUT
10
125.1669
20
69.6047
0
VERTEX
8
CUT
10
124.9986
20
70.2131
0
VERTEX
8
CUT
10
125.1867
20
71.2104
0
VERTEX
8
CUT
10
126.9129
20
75.8252
0
VERTEX
8
CUT
10
126.9606
20
76.3310
0
VERTEX
8
CUT
10
126.6915
20
77.2779
0
VERTEX
8
CUT
10
126.7782
20
77.8195
0
VERTEX
8
CUT
10
129.0122
20
80.9296
0
VERTEX
8
CUT
10
130.0651
20
82.7926
0
VERTEX
8
CUT
10
130.1080
20
82.8974
0
VERTEX
8
CUT
10
130.2985
20
83.2279
0
VERTEX
8
CUT
10
131.3937
20
86.0395
0
VERTEX
8
CUT
10
132.7461
20
89.3447
0
VERTEX
8
CUT
10
132.7694
20
89.3901
0
VERTEX
8
CUT
10
132.8160
20
89.4806
0
VERTEX
8
CUT
10
132.8418
20
89.5308
0
VERTEX
8
CUT
10
132.8550
20
89.5565
0
VERTEX
8
CUT
10
133.7617
20
91.1214
0
VERTEX
8
CUT
10
138.7546
20
97.2683
0
VERTEX
8
CUT
10
140.2837
20
100.0285
0
VERTEX
8
CUT
10
140.8977
20
102.8958
0
VERTEX
8
CUT
10
140.8949
20
103.1331
0
VERTEX
8
CUT
10
140.9247
20
103.2732
0
VERTEX
8
CUT
10
140.8977
20
104.8074
0
VERTEX
8
CUT
10
140.8736
20
104.9497
0
VERTEX
8
CUT
10
140.8683
20
105.4040
0
VERTEX
8
CUT
10
140.2201
20
108.8273
0
VERTEX
8
CUT
10
139.8712
20
109.6981
0
VERTEX
8
CUT
10
139.3938
20
110.1693
0
VERTEX
8
CUT
10
138.7599
20
109.8062
0
VERTEX
8
CUT
10
138.4595
20
109.5208
0
VERTEX
8
CUT
10
138.4263
20
109.4973
0
VERTEX
8
CUT
10
138.3546
20
109.4221
0
VERTEX
8
CUT
10
138.3420
20
109.4129
0
VERTEX
8
CUT
10
138.3195
20
109.3877
0
VERTEX
8
CUT
10
133.1819
20
104.5057
0
VERTEX
8
CUT
10
127.0185
20
101.1520
0
VERTEX
8
CUT
10
126.3039
20
100.6611
0
VERTEX
8
CUT
10
126.2114
20
100.6132
0
VERTEX
8
CUT
10
125.9302
20
100.4045
0
VERTEX
8
CUT
10
125.2873
20
99.9630
0
VERTEX
8
CUT
10
125.1362
20
99.8684
0
VERTEX
8
CUT
10
125.0972
20
99.8325
0
VERTEX
8
CUT
10
124.9971
20
99.7637
0
VERTEX
8
CUT
10
124.3823
20
99.1725
0
VERTEX
8
CUT
10
123.9301
20
98.7551
0
VERTEX
8
CUT
10
123.9004
20
98.7091
0
VERTEX
8
CUT
10
123.6357
20
98.4546
0
VERTEX
8
CUT
10
123.3078
20
97.7926
0
VERTEX
8
CUT
10
123.2663
20
97.7286
0
VERTEX
8
CUT
10
123.2577
20
97.6915
0
VERTEX
8
CUT
10
122.6764
20
96.5181
0
VERTEX
8
CUT
10
122.1566
20
95.9693
0
VERTEX
8
CUT
10
121.4951
20
95.8649
0
VERTEX
8
CUT
10
120.7449
20
96.3643
0
VERTEX
8
CUT
10
120.5155
20
96.8480
0
VERTEX
8
CUT
10
120.5533
20
97.5137
0
VERTEX
8
CUT
10
120.5440
20
97.5417
0
VERTEX
8
CUT
10
120.5954
20
97.9274
0
VERTEX
8
CUT
10
120.1176
20
98.1892
0
VERTEX
8
CUT
10
119.9143
20
97.9204
0
VERTEX
8
CUT
10
119.8816
20
97.9194
0
VERTEX
8
CUT
10
119.5214
20
97.4006
0
VERTEX
8
CUT
10
117.4592
20
94.6724
0
VERTEX
8
CUT
10
116.9575
20
94.3477
0
VERTEX
8
CUT
10
116.2132
20
94.4212
0
VERTEX
8
CUT
10
115.8672
20
94.6932
0
VERTEX
8
CUT
10
115.6584
20
95.4107
0
VERTEX
8
CUT
10
115.8597
20
96.3400
0
VERTEX
8
CUT
10
116.6666
20
98.0350
0
VERTEX
8
CUT
10
116.5701
20
98.3594
0
VERTEX
8
CUT
10
116.2563
20
98.4862
0
VERTEX
8
CUT
10
115.9963
20
98.3297
0
VERTEX
8
CUT
10
115.9147
20
98.3394
0
VERTEX
8
CUT
10
115.4408
20
97.9951
0
VERTEX
8
CUT
10
114.2795
20
97.2957
0
VERTEX
8
CUT
10
111.8316
20
95.1794
0
VERTEX
8
CUT
10
109.4534
20
92.2029
0
VERTEX
8
CUT
10
107.9512
20
89.9208
0
VERTEX
8
CUT
10
105.9062
20
85.6787
0
VERTEX
8
CUT
10
105.6172
20
84.0398
0
VERTEX
8
CUT
10
105.6211
20
83.6321
0
VERTEX
8
CUT
10
105.4950
20
82.9285
0
VERTEX
8
CUT
10
105.6166
20
80.6260
0
VERTEX
8
CUT
10
105.6506
20
80.5496
0
VERTEX
8
CUT
10
105.6520
20
80.4083
0
VERTEX
8
CUT
10
105.9839
20
79.2481
0
VERTEX
8
CUT
10
107.0252
20
77.4605
0
VERTEX
8
CUT
10
107.2804
20
76.6863
0
VERTEX
8
CUT
10
107.1563
20
76.3045
0
VERTEX
8
CUT
10
106.7985
20
76.0170
0
VERTEX
8
CUT
10
105.9240
20
76.0457
0
VERTEX
8
CUT
10
102.8895
20
77.5330
0
VERTEX
8
CUT
10
101.0203
20
78.7581
0
VERTEX
8
CUT
10
100.4408
20
79.4869
0
VERTEX
8
CUT
10
100.1418
20
80.7767
0
VERTEX
8
CUT
10
99.9705
20
80.9882
0
VERTEX
8
CUT
10
99.9554
20
81.0402
0
VERTEX
8
CUT
10
99.6156
20
81.0723
0
VERTEX
8
CUT
10
98.3693
20
80.5328
0
VERTEX
8
CUT
10
97.9040
20
80.7832
0
VERTEX
8
CUT
10
97.5628
20
81.2751
0
VERTEX
8
CUT
10
97.4913
20
82.0020
0
VERTEX
8
CUT
10
97.7168
20
83.0275
0
VERTEX
8
CUT
10
100.5081
20
90.4132
0
VERTEX
8
CUT
10
100.5008
20
90.4613
0
VERTEX
8
CUT
10
100.5276
20
90.5008
0
VERTEX
8
CUT
10
100.4556
20
90.8320
0
VERTEX
8
CUT
10
100.1126
20
90.9801
0
VERTEX
8
CUT
10
98.3217
20
90.3837
0
VERTEX
8
CUT
10
96.4342
20
89.7833
0
VERTEX
8
CUT
10
95.1072
20
89.5710
0
VERTEX
8
CUT
10
94.4676
20
89.7866
0
VERTEX
8
CUT
10
93.3700
20
90.5493
0
VERTEX
8
CUT
10
92.8277
20
91.1022
0
VERTEX
8
CUT
10
92.4412
20
91.9462
0
VERTEX
8
CUT
10
92.7876
20
92.3885
0
VERTEX
8
CUT
10
93.5005
20
92.7015
0
VERTEX
8
CUT
10
97.1858
20
93.2173
0
VERTEX
8
CUT
10
98.4645
20
93.5875
0
VERTEX
8
CUT
10
101.5924
20
95.3786
0
VERTEX
8
CUT
10
103.4867
20
96.8001
0
VERTEX
8
CUT
10
105.9624
20
99.0930
0
VERTEX
8
CUT
10
106.1506
20
99.7088
0
VERTEX
8
CUT
10
105.8909
20
99.9062
0
VERTEX
8
CUT
10
101.7360
20
100.7286
0
VERTEX
8
CUT
10
99.8997
20
101.3826
0
VERTEX
8
CUT
10
98.5543
20
102.1471
0
VERTEX
8
CUT
10
97.3606
20
103.1208
0
VERTEX
8
CUT
10
96.4515
20
103.3056
0
VERTEX
8
CUT
10
95.1969
20
103.9154
0
VERTEX
8
CUT
10
90.6486
20
106.7035
0
VERTEX
8
CUT
10
88.8840
20
107.4283
0
VERTEX
8
CUT
10
88.7715
20
107.9109
0
VERTEX
8
CUT
10
89.6831
20
109.0708
0
VERTEX
8
CUT
10
89.9205
20
110.1143
0
VERTEX
8
CUT
10
89.3306
20
111.5795
0
VERTEX
8
CUT
10
87.0807
20
115.5631
0
VERTEX
8
CUT
10
85.2634
20
118.2434
0
VERTEX
8
CUT
10
84.1809
20
119.5030
0
VERTEX
8
CUT
10
82.7364
20
120.5002
0
VERTEX
8
CUT
10
79.1088
20
122.2816
0
VERTEX
8
CUT
10
78.5197
20
125.0631
0
VERTEX
8
CUT
10
78.2389
20
125.2315
0
VERTEX
8
CUT
10
77.9572
20
125.1511
0
VERTEX
8
CUT
10
77.2179
20
123.8391
0
VERTEX
8
CUT
10
76.6401
20
123.6381
0
VERTEX
8
CUT
10
75.4215
20
124.1423
0
VERTEX
8
CUT
10
75.3893
20
124.1605
0
VERTEX
8
CUT
10
74.7553
20
124.6356
0
VERTEX
8
CUT
10
74.6143
20
124.7851
0
VERTEX
8
CUT
10
74.5157
20
125.1583
0
VERTEX
8
CUT
10
75.0635
20
126.0196
0
VERTEX
8
CUT
10
77.6354
20
127.7730
0
VERTEX
8
CUT
10
78.5431
20
127.5094
0
VERTEX
8
CUT
10
80.8129
20
126.2384
0
VERTEX
8
CUT
10
83.4355
20
124.0503
0
VERTEX
8
CUT
10
83.7581
20
124.0979
0
SEQEND
0
POLYLINE
8
CUT
66
1
70
1
10
0.0
20
0.0
30
0.0
0
VERTEX
8
CUT
10
191.8207
20
198.9439
0
VERTEX
8
CUT
10
190.8167
20
199.0497
0
VERTEX
8
CUT
10
185.8591
20
197.3008
0
VERTEX
8
CUT
10
184.1043
20
196.3622
0
VERTEX
8
CUT
10
182.3904
20
194.9411
0
VERTEX
8
CUT
10
177.4549
20
190.0073
0
VERTEX
8
CUT
10
171.7700
20
185.5922
0
VERTEX
8
CUT
10
167.8905
20
181.9634
0
VERTEX
8
CUT
10
167.9384
20
181.5032
0
VERTEX
8
CUT
10
168.3569
20
181.3982
0
VERTEX
8
CUT
10
171.8100
20
183.3763
0
VERTEX
8
CUT
10
171.9785
20
183.4636
0
VERTEX
8
CUT
10
181.3434
20
186.7941
0
VERTEX
8
CUT
10
184.6259
20
188.6114
0
VERTEX
8
CUT
10
185.5751
20
189.4158
0
VERTEX
8
CUT
10
186.9265
20
190.5183
0
VERTEX
8
CUT
10
187.0849
20
190.6952
0
VERTEX
8
CUT
10
187.9956
20
191.4670
0
VERTEX
8
CUT
10
190.5853
20
194.2903
0
VERTEX
8
CUT
10
191.4723
20
195.9011
0
VERTEX
8
CUT
10
192.5134
20
197.2585
0
VERTEX
8
CUT
10
192.7889
20
198.0078
0
VERTEX
8
CUT
10
192.6953
20
198.4889
0
SEQEND
0
POLYLINE
8
CUT
66
1
70
1
10
0.0
20
0.0
30
0.0
0
VERTEX
8
CUT
10
173.0626
20
196.0937
0
VERTEX
8
CUT
10
174.2333
20
197.3314
0
VERTEX
8
CUT
10
174.6933
20
197.7773
0
VERTEX
8
CUT
10
174.7540
20
197.8820
0
VERTEX
8
CUT
10
175.1718
20
198.3237
0
VERTEX
8
CUT
10
176.0561
20
199.7146
0
VERTEX
8
CUT
10
176.9150
20
201.9141
0
VERTEX
8
CUT
10
177.1611
20
203.2361
0
VERTEX
8
CUT
10
177.2945
20
203.4733
0
VERTEX
8
CUT
10
177.4759
20
204.7127
0
VERTEX
8
CUT
10
177.4684
20
204.8870
0
VERTEX
8
CUT
10
177.5354
20
205.2467
0
VERTEX
8
CUT
10
177.4437
20
206.5667
0
VERTEX
8
CUT
10
177.1532
20
206.8026
0
VERTEX
8
CUT
10
176.6305
20
206.7168
0
VERTEX
8
CUT
10
172.8085
20
205.1524
0
VERTEX
8
CUT
10
167.8906
20
202.7987
0
VERTEX
8
CUT
10
166.9192
20
202.2361
0
VERTEX
8
CUT
10
166.2010
20
201.8935
0
VERTEX
8
CUT
10
164.5129
20
200.8424
0
VERTEX
8
CUT
10
163.5533
20
200.2866
0
VERTEX
8
CUT
10
163.5511
20
200.2436
0
VERTEX
8
CUT
10
163.4862
20
200.2032
0
VERTEX
8
CUT
10
163.5205
20
199.6237
0
VERTEX
8
CUT
10
163.5124
20
199.4613
0
VERTEX
8
CUT
10
163.5354
20
199.3703
0
VERTEX
8
CUT
10
163.5355
20
199.3689
0
VERTEX
8
CUT
10
163.5422
20
199.3437
0
VERTEX
8
CUT
10
164.5959
20
195.1772
0
VERTEX
8
CUT
10
165.0606
20
190.8619
0
VERTEX
8
CUT
10
165.0868
20
190.5583
0
VERTEX
8
CUT
10
165.0937
20
190.5541
0
VERTEX
8
CUT
10
165.0996
20
190.4995
0
VERTEX
8
CUT
10
165.2491
20
190.2483
0
VERTEX
8
CUT
10
165.5681
20
190.1778
0
VERTEX
8
CUT
10
167.9818
20
192.2471
0
SEQEND
0
POLYLINE
8
CUT
66
1
70
1
10
0.0
20
0.0
30
0.0
0
VERTEX
8
CUT
10
158.3936
20
177.6913
0
VERTEX
8
CUT
10
158.7734
20
178.0543
0
VERTEX
8
CUT
10
158.8560
20
182.9517
0
VERTEX
8
CUT
10
159.3088
20
189.6933
0
VERTEX
8
CUT
10
158.9171
20
192.9553
0
VERTEX
8
CUT
10
158.2980
20
195.1367
0
VERTEX
8
CUT
10
157.7173
20
196.3694
0
VERTEX
8
CUT
10
157.4068
20
196.4714
0
VERTEX
8
CUT
10
157.1277
20
196.3013
0
VERTEX
8
CUT
10
156.6099
20
194.9209
0
VERTEX
8
CUT
10
154.4109
20
191.4550
0
VERTEX
8
CUT
10
154.3598
20
191.3256
0
VERTEX
8
CUT
10
154.2465
20
191.1560
0
VERTEX
8
CUT
10
154.1254
20
190.7322
0
VERTEX
8
CUT
10
153.6705
20
189.5806
0
VERTEX
8
CUT
10
153.3829
20
187.6109
0
VERTEX
8
CUT
10
153.6247
20
186.0898
0
VERTEX
8
CUT
10
153.7789
20
185.7336
0
VERTEX
8
CUT
10
153.7952
20
185.6444
0
VERTEX
8
CUT
10
154.0941
20
185.0058
0
VERTEX
8
CUT
10
154.7404
20
183.5129
0
VERTEX
8
CUT
10
158.0644
20
177.8581
0
SEQEND
0
POLYLINE
8
CUT
66
1
70
1
10
0.0
20
0.0
30
0.0
0
VERTEX
8
CUT
10
155.3555
20
152.1616
0
VERTEX
8
CUT
10
155.8734
20
151.5324
0
VERTEX
8
CUT
10
156.2408
20
151.4599
0
VERTEX
8
CUT
10
156.5955
20
151.9039
0
VERTEX
8
CUT
10
157.0169
20
153.0398
0
VERTEX
8
CUT
10
157.4653
20
155.2122
0
VERTEX
8
CUT
10
157.6165
20
157.1145
0
VERTEX
8
CUT
10
157.5355
20
159.8606
0
VERTEX
8
CUT
10
157.2947
20
160.1401
0
VERTEX
8
CUT
10
156.9287
20
160.0937
0
VERTEX
8
CUT
10
154.8055
20
157.6824
0
VERTEX
8
CUT
10
153.8633
20
157.1358
0
VERTEX
8
CUT
10
152.4668
20
158.3556
0
VERTEX
8
CUT
10
150.5024
20
161.0029
0
VERTEX
8
CUT
10
150.4621
20
161.7310
0
VERTEX
8
CUT
10
152.3301
20
164.7456
0
VERTEX
8
CUT
10
153.2659
20
166.9676
0
VERTEX
8
CUT
10
153.6524
20
169.1367
0
VERTEX
8
CUT
10
153.5979
20
170.2389
0
VERTEX
8
CUT
10
153.0990
20
172.5196
0
VERTEX
8
CUT
10
152.1106
20
174.7434
0
VERTEX
8
CUT
10
150.5376
20
177.6174
0
VERTEX
8
CUT
10
148.5811
20
180.6593
0
VERTEX
8
CUT
10
148.0528
20
180.6578
0
VERTEX
8
CUT
10
147.3622
20
179.5974
0
VERTEX
8
CUT
10
146.7851
20
178.2941
0
VERTEX
8
CUT
10
146.3092
20
177.4573
0
VERTEX
8
CUT
10
145.8991
20
176.4057
0
VERTEX
8
CUT
10
145.7846
20
176.1734
0
VERTEX
8
CUT
10
145.7183
20
175.9423
0
VERTEX
8
CUT
10
145.6416
20
175.7456
0
VERTEX
8
CUT
10
145.6302
20
175.6855
0
VERTEX
8
CUT
10
145.1877
20
174.6862
0
VERTEX
8
CUT
10
144.7354
20
171.8280
0
VERTEX
8
CUT
10
145.0970
20
169.0454
0
VERTEX
8
CUT
10
146.0736
20
166.3552
0
VERTEX
8
CUT
10
148.2136
20
162.2282
0
VERTEX
8
CUT
10
151.5914
20
157.9143
0
SEQEND
0
POLYLINE
8
CUT
66
1
70
1
10
0.0
20
0.0
30
0.0
0
VERTEX
8
CUT
10
153.5092
20
134.9922
0
VERTEX
8
CUT
10
153.1139
20
134.2963
0
VERTEX
8
CUT
10
153.0581
20
134.1586
0
VERTEX
8
CUT
10
152.6749
20
133.4505
0
VERTEX
8
CUT
10
152.1566
20
132.1301
0
VERTEX
8
CUT
10
151.8134
20
129.9092
0
VERTEX
8
CUT
10
152.2921
20
127.5207
0
VERTEX
8
CUT
10
153.5609
20
124.8975
0
VERTEX
8
CUT
10
154.9445
20
122.9704
0
VERTEX
8
CUT
10
155.3201
20
122.9634
0
VERTEX
8
CUT
10
155.9567
20
124.1939
0
VERTEX
8
CUT
10
156.4366
20
126.5792
0
VERTEX
8
CUT
10
156.5777
20
128.6216
0
VERTEX
8
CUT
10
156.6484
20
129.4350
0
VERTEX
8
CUT
10
156.6466
20
129.6185
0
VERTEX
8
CUT
10
156.6485
20
129.6471
0
VERTEX
8
CUT
10
156.6455
20
129.7228
0
VERTEX
8
CUT
10
156.6195
20
132.3113
0
VERTEX
8
CUT
10
156.5060
20
133.2155
0
VERTEX
8
CUT
10
156.4664
20
134.2068
0
VERTEX
8
CUT
10
155.7482
20
137.2182
0
VERTEX
8
CUT
10
155.2932
20
137.6166
0
VERTEX
8
CUT
10
154.5963
20
137.0010
0
SEQEND
0
POLYLINE
8
CUT
66
1
70
1
10
0.0
20
0.0
30
0.0
0
VERTEX
8
CUT
10
148.3954
20
149.4841
0
VERTEX
8
CUT
10
147.1933
20
147.7869
0
VERTEX
8
CUT
10
145.7998
20
145.0914
0
VERTEX
8
CUT
10
145.0014
20
142.8985
0
VERTEX
8
CUT
10
144.9366
20
142.1244
0
VERTEX
8
CUT
10
144.9185
20
142.0621
0
VERTEX
8
CUT
10
144.9121
20
141.8321
0
VERTEX
8
CUT
10
144.8960
20
141.6399
0
VERTEX
8
CUT
10
144.8553
20
141.4182
0
VERTEX
8
CUT
10
144.8614
20
141.2263
0
VERTEX
8
CUT
10
144.7674
20
140.1044
0
VERTEX
8
CUT
10
144.8347
20
139.0330
0
VERTEX
8
CUT
10
144.8288
20
138.8181
0
VERTEX
8
CUT
10
144.8546
20
138.7164
0
VERTEX
8
CUT
10
144.8849
20
138.2349
0
VERTEX
8
CUT
10
145.3761
20
136.4972
0
VERTEX
8
CUT
10
145.8648
20
135.6616
0
VERTEX
8
CUT
10
145.9550
20
135.3683
0
VERTEX
8
CUT
10
146.0756
20
135.2686
0
VERTEX
8
CUT
10
146.1769
20
135.0612
0
VERTEX
8
CUT
10
146.2285
20
135.0400
0
VERTEX
8
CUT
10
146.2868
20
134.9403
0
VERTEX
8
CUT
10
146.6064
20
134.8542
0
VERTEX
8
CUT
10
146.8770
20
135.0448
0
VERTEX
8
CUT
10
148.5914
20
138.6120
0
VERTEX
8
CUT
10
148.6457
20
138.7032
0
VERTEX
8
CUT
10
151.7589
20
143.1785
0
VERTEX
8
CUT
10
152.1517
20
144.1602
0
VERTEX
8
CUT
10
152.0527
20
144.4286
0
VERTEX
8
CUT
10
152.1384
20
144.5727
0
VERTEX
8
CUT
10
151.6342
20
145.5621
0
VERTEX
8
CUT
10
151.3446
20
146.3466
0
VERTEX
8
CUT
10
149.7450
20
149.0139
0
VERTEX
8
CUT
10
149.0094
20
149.7775
0
VERTEX
8
CUT
10
148.8263
20
149.6900
0
VERTEX
8
CUT
10
148.6260
20
149.6462
0
VERTEX
8
CUT
10
148.5447
20
149.5554
0
SEQEND
0
POLYLINE
8
CUT
66
1
70
1
10
0.0
20
0.0
30
0.0
0
VERTEX
8
CUT
10
150.8436
20
112.8219
0
VERTEX
8
CUT
10
150.3927
20
115.9234
0
VERTEX
8
CUT
10
149.7361
20
117.8243
0
VERTEX
8
CUT
10
148.6703
20
119.8064
0
VERTEX
8
CUT
10
147.1282
20
122.2553
0
VERTEX
8
CUT
10
145.8179
20
123.9759
0
VERTEX
8
CUT
10
145.3668
20
124.6521
0
VERTEX
8
CUT
10
145.2838
20
124.6772
0
VERTEX
8
CUT
10
145.2326
20
124.7445
0
VERTEX
8
CUT
10
144.7991
20
124.7766
0
VERTEX
8
CUT
10
144.5583
20
124.3906
0
VERTEX
8
CUT
10
144.4653
20
122.1464
0
VERTEX
8
CUT
10
144.6304
20
120.9005
0
VERTEX
8
CUT
10
144.6715
20
120.1452
0
VERTEX
8
CUT
10
144.8313
20
119.3842
0
VERTEX
8
CUT
10
144.8848
20
118.9806
0
VERTEX
8
CUT
10
145.7228
20
115.3893
0
VERTEX
8
CUT
10
146.7531
20
112.1493
0
VERTEX
8
CUT
10
147.6895
20
110.1888
0
VERTEX
8
CUT
10
149.0874
20
108.2470
0
VERTEX
8
CUT
10
149.8335
20
107.8068
0
VERTEX
8
CUT
10
150.0778
20
107.9867
0
VERTEX
8
CUT
10
150.4246
20
108.8964
0
VERTEX
8
CUT
10
150.7866
20
110.7682
0
SEQEND
0
POLYLINE
8
CUT
66
1
70
1
10
0.0
20
0.0
30
0.0
0
VERTEX
8
CUT
10
141.7716
20
159.1049
0
VERTEX
8
CUT
10
141.7886
20
158.4591
0
VERTEX
8
CUT
10
141.7729
20
158.3444
0
VERTEX
8
CUT
10
141.8098
20
157.6560
0
VERTEX
8
CUT
10
141.8116
20
157.5867
0
VERTEX
8
CUT
10
141.8042
20
157.5280
0
VERTEX
8
CUT
10
141.8161
20
157.4150
0
VERTEX
8
CUT
10
141.9491
20
152.3665
0
VERTEX
8
CUT
10
142.3617
20
152.1072
0
VERTEX
8
CUT
10
142.7272
20
152.4000
0
VERTEX
8
CUT
10
142.7749
20
152.4208
0
VERTEX
8
CUT
10
143.6737
20
153.7232
0
VERTEX
8
CUT
10
143.8147
20
153.9942
0
VERTEX
8
CUT
10
144.6326
20
155.2185
0
VERTEX
8
CUT
10
144.9125
20
156.1046
0
VERTEX
8
CUT
10
144.5949
20
157.0346
0
VERTEX
8
CUT
10
143.5102
20
158.6684
0
VERTEX
8
CUT
10
142.7982
20
159.6166
0
VERTEX
8
CUT
10
142.5730
20
159.7721
0
VERTEX
8
CUT
10
142.5478
20
159.8067
0
VERTEX
8
CUT
10
142.5085
20
159.8165
0
VERTEX
8
CUT
10
142.2749
20
159.9778
0
VERTEX
8
CUT
10
141.9223
20
159.7980
0
SEQEND
0
POLYLINE
8
CUT
66
1
70
1
10
0.0
20
0.0
30
0.0
0
VERTEX
8
CUT
10
138.3935
20
188.0423
0
VERTEX
8
CUT
10
139.6275
20
186.4013
0
VERTEX
8
CUT
10
140.4853
20
184.0781
0
VERTEX
8
CUT
10
140.7669
20
183.9017
0
VERTEX
8
CUT
10
141.0533
20
183.9815
0
VERTEX
8
CUT
10
141.4142
20
185.0664
0
VERTEX
8
CUT
10
141.5030
20
186.5500
0
VERTEX
8
CUT
10
141.0912
20
189.0469
0
VERTEX
8
CUT
10
140.7809
20
189.8449
0
VERTEX
8
CUT
10
140.7096
20
190.1637
0
VERTEX
8
CUT
10
140.5255
20
190.5015
0
VERTEX
8
CUT
10
140.0973
20
191.6025
0
VERTEX
8
CUT
10
138.1510
20
194.6222
0
VERTEX
8
CUT
10
135.5067
20
197.7452
0
VERTEX
8
CUT
10
130.9555
20
201.8776
0
VERTEX
8
CUT
10
126.0877
20
205.3672
0
VERTEX
8
CUT
10
123.1521
20
206.5368
0
VERTEX
8
CUT
10
122.7660
20
206.2792
0
VERTEX
8
CUT
10
122.6979
20
205.0804
0
VERTEX
8
CUT
10
123.3803
20
201.7646
0
VERTEX
8
CUT
10
124.3143
20
199.4761
0
VERTEX
8
CUT
10
126.0539
20
196.9413
0
VERTEX
8
CUT
10
126.3901
20
196.6046
0
VERTEX
8
CUT
10
126.3937
20
196.5992
0
VERTEX
8
CUT
10
126.4207
20
196.5739
0
VERTEX
8
CUT
10
127.6705
20
195.3221
0
VERTEX
8
CUT
10
128.1840
20
194.9180
0
VERTEX
8
CUT
10
128.3978
20
194.7172
0
VERTEX
8
CUT
10
128.5636
20
194.6193
0
VERTEX
8
CUT
10
129.3330
20
194.0139
0
VERTEX
8
CUT
10
134.2749
20
191.1922
0
VERTEX
8
CUT
10
137.8715
20
188.5644
0
SEQEND
0
POLYLINE
8
CUT
66
1
70
1
10
0.0
20
0.0
30
0.0
0
VERTEX
8
CUT
10
0.6952
20
137.1855
0
VERTEX
8
CUT
10
0.3316
20
140.8525
0
VERTEX
8
CUT
10
0.5830
20
144.5600
0
VERTEX
8
CUT
10
2.5711
20
149.7651
0
VERTEX
8
CUT
10
1.0299
20
153.4938
0
VERTEX
8
CUT
10
0.3742
20
156.9422
0
VERTEX
8
CUT
10
0.3531
20
157.6977
0
VERTEX
8
CUT
10
0.3512
20
157.7675
0
VERTEX
8
CUT
10
0.3510
20
157.7751
0
VERTEX
8
CUT
10
0.3510
20
157.7764
0
VERTEX
8
CUT
10
0.4523
20
160.8605
0
VERTEX
8
CUT
10
0.4975
20
161.2442
0
VERTEX
8
CUT
10
0.8567
20
163.0048
0
VERTEX
8
CUT
10
2.2482
20
166.9973
0
VERTEX
8
CUT
10
2.3069
20
167.1035
0
VERTEX
8
CUT
10
3.0491
20
168.3545
0
VERTEX
8
CUT
10
3.2021
20
168.6123
0
VERTEX
8
CUT
10
3.3481
20
168.8583
0
VERTEX
8
CUT
10
3.3741
20
168.9021
0
VERTEX
8
CUT
10
3.5564
20
169.0361
0
VERTEX
8
CUT
10
3.8584
20
168.9460
0
VERTEX
8
CUT
10
5.4926
20
166.6182
0
VERTEX
8
CUT
10
6.6644
20
164.4544
0
VERTEX
8
CUT
10
6.6455
20
163.1277
0
VERTEX
8
CUT
10
6.2581
20
161.4507
0
VERTEX
8
CUT
10
6.1289
20
161.0491
0
VERTEX
8
CUT
10
5.7394
20
159.2047
0
VERTEX
8
CUT
10
5.7840
20
158.4215
0
VERTEX
8
CUT
10
5.7391
20
157.2872
0
VERTEX
8
CUT
10
6.0735
20
155.4163
0
VERTEX
8
CUT
10
6.3555
20
154.8398
0
VERTEX
8
CUT
10
6.6884
20
154.7500
0
VERTEX
8
CUT
10
6.7085
20
154.7333
0
VERTEX
8
CUT
10
6.7203
20
154.7414
0
VERTEX
8
CUT
10
6.8005
20
154.7198
0
VERTEX
8
CUT
10
9.1998
20
156.4131
0
VERTEX
8
CUT
10
12.7096
20
159.4390
0
VERTEX
8
CUT
10
15.1171
20
161.9947
0
VERTEX
8
CUT
10
16.2168
20
163.5077
0
VERTEX
8
CUT
10
17.0749
20
165.1316
0
VERTEX
8
CUT
10
17.4555
20
166.4316
0
VERTEX
8
CUT
10
17.5339
20
166.6324
0
VERTEX
8
CUT
10
17.5610
20
166.7923
0
VERTEX
8
CUT
10
18.0155
20
168.3450
0
VERTEX
8
CUT
10
18.1030
20
169.9735
0
VERTEX
8
CUT
10
17.6341
20
172.9452
0
VERTEX
8
CUT
10
17.6112
20
173.1252
0
VERTEX
8
CUT
10
17.5932
20
173.2662
0
VERTEX
8
CUT
10
17.5793
20
173.3750
0
VERTEX
8
CUT
10
17.5637
20
173.4974
0
VERTEX
8
CUT
10
18.1714
20
174.3328
0
VERTEX
8
CUT
10
20.2263
20
176.2004
0
VERTEX
8
CUT
10
21.3836
20
176.9151
0
VERTEX
8
CUT
10
21.9502
20
176.8754
0
VERTEX
8
CUT
10
22.3506
20
176.4655
0
VERTEX
8
CUT
10
22.9353
20
174.9196
0
VERTEX
8
CUT
10
23.6968
20
170.7188
0
VERTEX
8
CUT
10
23.7294
20
170.4192
0
VERTEX
8
CUT
10
23.7324
20
170.3922
0
VERTEX
8
CUT
10
23.7335
20
170.3814
0
VERTEX
8
CUT
10
23.7459
20
170.2678
0
VERTEX
8
CUT
10
23.5743
20
167.1530
0
VERTEX
8
CUT
10
22.7355
20
163.9879
0
VERTEX
8
CUT
10
21.2964
20
161.1392
0
VERTEX
8
CUT
10
19.6462
20
158.9880
0
VERTEX
8
CUT
10
18.8744
20
158.0272
0
VERTEX
8
CUT
10
16.7690
20
155.9217
0
VERTEX
8
CUT
10
11.7436
20
151.4707
0
VERTEX
8
CUT
10
11.3077
20
150.9636
0
VERTEX
8
CUT
10
11.1653
20
150.8307
0
VERTEX
8
CUT
10
10.9013
20
150.4909
0
VERTEX
8
CUT
10
10.2947
20
149.7852
0
VERTEX
8
CUT
10
10.3241
20
149.7479
0
VERTEX
8
CUT
10
10.3189
20
149.7413
0
VERTEX
8
CUT
10
11.1593
20
148.6849
0
VERTEX
8
CUT
10
11.1639
20
148.6807
0
VERTEX
8
CUT
10
11.2784
20
148.5354
0
VERTEX
8
CUT
10
16.3471
20
143.9800
0
VERTEX
8
CUT
10
19.4928
20
140.8345
0
VERTEX
8
CUT
10
20.6747
20
139.4010
0
VERTEX
8
CUT
10
22.3227
20
136.5559
0
VERTEX
8
CUT
10
23.3824
20
133.4680
0
VERTEX
8
CUT
10
23.7253
20
130.5563
0
VERTEX
8
CUT
10
23.5154
20
126.6641
0
VERTEX
8
CUT
10
23.2942
20
125.3877
0
VERTEX
8
CUT
10
23.1699
20
124.9413
0
VERTEX
8
CUT
10
22.4707
20
122.9518
0
VERTEX
8
CUT
10
21.9258
20
122.5065
0
VERTEX
8
CUT
10
21.5958
20
122.4738
0
VERTEX
8
CUT
10
20.8048
20
122.9063
0
VERTEX
8
CUT
10
17.6133
20
125.6621
0
VERTEX
8
CUT
10
18.0465
20
129.1415
0
VERTEX
8
CUT
10
17.9602
20
131.4661
0
VERTEX
8
CUT
10
17.2820
20
133.6967
0
VERTEX
8
CUT
10
16.0446
20
136.0204
0
VERTEX
8
CUT
10
14.3927
20
138.1444
0
VERTEX
8
CUT
10
11.8608
20
140.6477
0
VERTEX
8
CUT
10
7.8019
20
144.1366
0
VERTEX
8
CUT
10
6.6700
20
144.8336
0
VERTEX
8
CUT
10
6.3337
20
144.6780
0
VERTEX
8
CUT
10
6.0508
20
144.0836
0
VERTEX
8
CUT
10
5.9827
20
143.4568
0
VERTEX
8
CUT
10
5.9459
20
143.3813
0
VERTEX
8
CUT
10
5.7397
20
141.5421
0
VERTEX
8
CUT
10
5.7547
20
141.3593
0
VERTEX
8
CUT
10
5.7391
20
141.2150
0
VERTEX
8
CUT
10
5.7857
20
140.7497
0
VERTEX
8
CUT
10
5.7722
20
140.6354
0
VERTEX
8
CUT
10
5.8292
20
140.3162
0
VERTEX
8
CUT
10
5.8921
20
139.6886
0
VERTEX
8
CUT
10
5.9149
20
139.4110
0
VERTEX
8
CUT
10
5.9236
20
139.3748
0
VERTEX
8
CUT
10
5.9737
20
138.8748
0
VERTEX
8
CUT
10
6.4583
20
137.1331
0
VERTEX
8
CUT
10
6.7306
20
135.9917
0
VERTEX
8
CUT
10
6.6987
20
135.4504
0
VERTEX
8
CUT
10
5.0336
20
132.5815
0
VERTEX
8
CUT
10
3.3992
20
130.6868
0
VERTEX
8
CUT
10
2.1155
20
132.7161
0
VERTEX
8
CUT
10
1.2732
20
134.8358
0
SEQEND
0
POLYLINE
8
CUT
66
1
70
1
10
0.0
20
0.0
30
0.0
0
VERTEX
8
CUT
10
156.0558
20
297.8502
0
VERTEX
8
CUT
10
156.2706
20
297.9013
0
VERTEX
8
CUT
10
156.4150
20
297.9356
0
VERTEX
8
CUT
10
160.3977
20
298.5122
0
VERTEX
8
CUT
10
165.0093
20
298.3272
0
VERTEX
8
CUT
10
169.4236
20
297.2991
0
VERTEX
8
CUT
10
171.5384
20
296.4434
0
VERTEX
8
CUT
10
173.5139
20
295.3787
0
VERTEX
8
CUT
10
173.5346
20
295.3666
0
VERTEX
8
CUT
10
173.5368
20
295.3653
0
VERTEX
8
CUT
10
173.5457
20
295.3600
0
VERTEX
8
CUT
10
173.5594
20
295.3520
0
VERTEX
8
CUT
10
177.3373
20
292.3896
0
VERTEX
8
CUT
10
177.8104
20
291.9107
0
VERTEX
8
CUT
10
179.3783
20
290.3201
0
VERTEX
8
CUT
10
181.4509
20
287.8520
0
VERTEX
8
CUT
10
183.0712
20
285.7086
0
VERTEX
8
CUT
10
183.6709
20
284.4285
0
VERTEX
8
CUT
10
183.2269
20
283.8691
0
VERTEX
8
CUT
10
182.2410
20
283.4481
0
VERTEX
8
CUT
10
178.9046
20
282.6036
0
VERTEX
8
CUT
10
173.0305
20
288.4550
0
VERTEX
8
CUT
10
170.3272
20
290.6847
0
VERTEX
8
CUT
10
169.2098
20
291.3186
0
VERTEX
8
CUT
10
167.7060
20
291.9080
0
VERTEX
8
CUT
10
167.2485
20
292.1311
0
VERTEX
8
CUT
10
166.9461
20
292.2059
0
VERTEX
8
CUT
10
166.3460
20
292.4411
0
VERTEX
8
CUT
10
165.0788
20
292.6673
0
VERTEX
8
CUT
10
164.9011
20
292.7112
0
VERTEX
8
CUT
10
164.8186
20
292.7137
0
VERTEX
8
CUT
10
163.2909
20
292.9865
0
VERTEX
8
CUT
10
160.2198
20
292.9537
0
VERTEX
8
CUT
10
158.6934
20
292.7424
0
VERTEX
8
CUT
10
158.1695
20
292.5966
0
VERTEX
8
CUT
10
158.0873
20
292.5896
0
VERTEX
8
CUT
10
157.8783
20
292.5156
0
VERTEX
8
CUT
10
156.3738
20
292.0971
0
VERTEX
8
CUT
10
155.5134
20
291.6792
0
VERTEX
8
CUT
10
155.0799
20
291.5259
0
VERTEX
8
CUT
10
154.9535
20
291.4073
0
VERTEX
8
CUT
10
151.0385
20
289.5060
0
VERTEX
8
CUT
10
146.8282
20
287.0072
0
VERTEX
8
CUT
10
146.2440
20
286.6792
0
VERTEX
8
CUT
10
145.1856
20
286.2171
0
VERTEX
8
CUT
10
143.1533
20
287.3794
0
VERTEX
8
CUT
10
141.7846
20
288.5955
0
VERTEX
8
CUT
10
141.5978
20
288.9608
0
VERTEX
8
CUT
10
142.0404
20
289.7050
0
VERTEX
8
CUT
10
144.3888
20
291.4022
0
VERTEX
8
CUT
10
144.5014
20
291.7126
0
VERTEX
8
CUT
10
144.3655
20
291.9751
0
VERTEX
8
CUT
10
141.3461
20
292.7463
0
VERTEX
8
CUT
10
137.4500
20
293.0758
0
VERTEX
8
CUT
10
133.7153
20
292.4436
0
VERTEX
8
CUT
10
131.3315
20
291.5016
0
VERTEX
8
CUT
10
129.4249
20
290.4019
0
VERTEX
8
CUT
10
126.7308
20
288.0009
0
VERTEX
8
CUT
10
125.9483
20
287.3797
0
VERTEX
8
CUT
10
124.9194
20
286.2209
0
VERTEX
8
CUT
10
122.0128
20
283.2956
0
VERTEX
8
CUT
10
121.2565
20
282.6415
0
VERTEX
8
CUT
10
117.3802
20
283.6343
0
VERTEX
8
CUT
10
116.6686
20
284.2395
0
VERTEX
8
CUT
10
116.6287
20
284.7682
0
VERTEX
8
CUT
10
117.8000
20
286.6579
0
VERTEX
8
CUT
10
123.0242
20
292.3334
0
VERTEX
8
CUT
10
125.3967
20
294.3456
0
VERTEX
8
CUT
10
127.7763
20
295.9352
0
VERTEX
8
CUT
10
130.2175
20
297.0683
0
VERTEX
8
CUT
10
132.8323
20
297.8779
0
VERTEX
8
CUT
10
135.6403
20
298.3026
0
VERTEX
8
CUT
10
138.6464
20
298.4229
0
VERTEX
8
CUT
10
141.2657
20
298.3298
0
VERTEX
8
CUT
10
144.0832
20
297.8475
0
VERTEX
8
CUT
10
145.0208
20
297.6114
0
VERTEX
8
CUT
10
146.4520
20
297.0941
0
VERTEX
8
CUT
10
149.9859
20
295.6709
0
VERTEX
8
CUT
10
150.2941
20
295.7990
0
VERTEX
8
CUT
10
150.8869
20
295.9128
0
VERTEX
8
CUT
10
153.8344
20
297.2231
0
VERTEX
8
CUT
10
155.2938
20
297.6691
0
VERTEX
8
CUT
10
155.9309
20
297.8205
0
SEQEND
0
ENDSEC
0
EOF
