0
SECTION
2
HEADER
9
$ACADVER
1
AC1009
9
$INSUNITS
70
4
0
ENDSEC
0
SECTION
2
TABLES
0
TABLE
2
LAYER
70
1
0
LAYER
2
CUT
70
0
62
7
6
CONTINUOUS
0
ENDTAB
0
ENDSEC
0
SECTION
2
ENTITIES
0
POLYLINE
8
CUT
66
1
70
1
10
0.0
20
0.0
30
0.0
0
VERTEX
8
CUT
10
-0.0625
20
298.5625
0
VERTEX
8
CUT
10
-0.0625
20
299.4478
0
VERTEX
8
CUT
10
-0.0589
20
299.5212
0
VERTEX
8
CUT
10
-0.0503
20
299.5794
0
VERTEX
8
CUT
10
-0.0360
20
299.6365
0
VERTEX
8
CUT
10
-0.0162
20
299.6918
0
VERTEX
8
CUT
10
0.0090
20
299.7450
0
VERTEX
8
CUT
10
0.0392
20
299.7954
0
VERTEX
8
CUT
10
0.0743
20
299.8427
0
VERTEX
8
CUT
10
0.1137
20
299.8863
0
VERTEX
8
CUT
10
0.1573
20
299.9257
0
VERTEX
8
CUT
10
0.2046
20
299.9608
0
VERTEX
8
CUT
10
0.2550
20
299.9910
0
VERTEX
8
CUT
10
0.3082
20
300.0162
0
VERTEX
8
CUT
10
0.3635
20
300.0360
0
VERTEX
8
CUT
10
0.4206
20
300.0503
0
VERTEX
8
CUT
10
0.4788
20
300.0589
0
VERTEX
8
CUT
10
0.5522
20
300.0625
0
VERTEX
8
CUT
10
1.4375
20
300.0625
0
VERTEX
8
CUT
10
298.5120
20
300.0625
0
VERTEX
8
CUT
10
299.3973
20
300.0625
0
VERTEX
8
CUT
10
299.4708
20
300.0589
0
VERTEX
8
CUT
10
299.5289
20
300.0503
0
VERTEX
8
CUT
10
299.5860
20
300.0360
0
VERTEX
8
CUT
10
299.6414
20
300.0162
0
VERTEX
8
CUT
10
299.6945
20
299.9910
0
VERTEX
8
CUT
10
299.7450
20
299.9608
0
VERTEX
8
CUT
10
299.7922
20
299.9257
0
VERTEX
8
CUT
10
299.8358
20
299.8863
0
VERTEX
8
CUT
10
299.8753
20
299.8427
0
VERTEX
8
CUT
10
299.9103
20
299.7954
0
VERTEX
8
CUT
10
299.9405
20
299.7450
0
VERTEX
8
CUT
10
299.9657
20
299.6918
0
VERTEX
8
CUT
10
299.9855
20
299.6365
0
VERTEX
8
CUT
10
299.9998
20
299.5794
0
VERTEX
8
CUT
10
300.0084
20
299.5212
0
VERTEX
8
CUT
10
300.0120
20
299.4478
0
VERTEX
8
CUT
10
300.0120
20
298.5625
0
VERTEX
8
CUT
10
300.0120
20
1.4375
0
VERTEX
8
CUT
10
300.0120
20
0.5522
0
VERTEX
8
CUT
10
300.0084
20
0.4788
0
VERTEX
8
CUT
10
299.9998
20
0.4206
0
VERTEX
8
CUT
10
299.9855
20
0.3635
0
VERTEX
8
CUT
10
299.9657
20
0.3082
0
VERTEX
8
CUT
10
299.9405
20
0.2550
0
VERTEX
8
CUT
10
299.9103
20
0.2046
0
VERTEX
8
CUT
10
299.8753
20
0.1573
0
VERTEX
8
CUT
10
299.8358
20
0.1137
0
VERTEX
8
CUT
10
299.7922
20
0.0743
0
VERTEX
8
CUT
10
299.7450
20
0.0392
0
VERTEX
8
CUT
10
299.6945
20
0.0090
0
VERTEX
8
CUT
10
299.6414
20
-0.0162
0
VERTEX
8
CUT
10
299.5860
20
-0.0360
0
VERTEX
8
CUT
10
299.5289
20
-0.0503
0
VERTEX
8
CUT
10
299.4708
20
-0.0589
0
VERTEX
8
CUT
10
299.3973
20
-0.0625
0
VERTEX
8
CUT
10
298.5120
20
-0.0625
0
VERTEX
8
CUT
10
1.4375
20
-0.0625
0
VERTEX
8
CUT
10
0.5522
20
-0.0625
0
VERTEX
8
CUT
10
0.4788
20
-0.0589
0
VERTEX
8
CUT
10
0.4206
20
-0.0503
0
VERTEX
8
CUT
10
0.3635
20
-0.0360
0
VERTEX
8
CUT
10
0.3082
20
-0.0162
0
VERTEX
8
CUT
10
0.2550
20
0.0090
0
VERTEX
8
CUT
10
0.2046
20
0.0392
0
VERTEX
8
CUT
10
0.1573
20
0.0743
0
VERTEX
8
CUT
10
0.1137
20
0.1137
0
VERTEX
8
CUT
10
0.0743
20
0.1573
0
VERTEX
8
CUT
10
0.0392
20
0.2046
0
VERTEX
8
CUT
10
0.0090
20
0.2550
0
VERTEX
8
CUT
10
-0.0162
20
0.3082
0
VERTEX
8
CUT
10
-0.0360
20
0.3635
0
VERTEX
8
CUT
10
-0.0503
20
0.4206
0
VERTEX
8
CUT
10
-0.0589
20
0.4788
0
VERTEX
8
CUT
10
-0.0625
20
0.5522
0
VERTEX
8
CUT
10
-0.0625
20
1.4375
0
SEQEND
0
POLYLINE
8
CUT
66
1
70
1
10
0.0
20
0.0
30
0.0
0
VERTEX
8
CUT
10
276.7852
20
120.9365
0
VERTEX
8
CUT
10
276.7839
20
120.8774
0
VERTEX
8
CUT
10
276.7889
20
120.6907
0
VERTEX
8
CUT
10
276.7934
20
120.6318
0
VERTEX
8
CUT
10
276.8171
20
120.4439
0
VERTEX
8
CUT
10
276.8215
20
120.4147
0
VERTEX
8
CUT
10
276.8316
20
120.3579
0
VERTEX
8
CUT
10
276.8343
20
120.3434
0
VERTEX
8
CUT
10
276.8533
20
120.2493
0
VERTEX
8
CUT
10
276.8564
20
120.2348
0
VERTEX
8
CUT
10
277.1040
20
119.1483
0
VERTEX
8
CUT
10
277.1074
20
119.1342
0
VERTEX
8
CUT
10
277.1305
20
119.0428
0
VERTEX
8
CUT
10
277.1342
20
119.0288
0
VERTEX
8
CUT
10
277.1495
20
118.9742
0
VERTEX
8
CUT
10
277.1580
20
118.9465
0
VERTEX
8
CUT
10
277.2166
20
118.7700
0
VERTEX
8
CUT
10
277.2375
20
118.7159
0
VERTEX
8
CUT
10
277.3129
20
118.5460
0
VERTEX
8
CUT
10
277.3253
20
118.5198
0
VERTEX
8
CUT
10
277.3507
20
118.4692
0
VERTEX
8
CUT
10
277.3574
20
118.4563
0
VERTEX
8
CUT
10
277.4017
20
118.3731
0
VERTEX
8
CUT
10
277.4087
20
118.3604
0
VERTEX
8
CUT
10
278.4555
20
116.5069
0
VERTEX
8
CUT
10
278.4627
20
116.4946
0
VERTEX
8
CUT
10
278.5102
20
116.4150
0
VERTEX
8
CUT
10
278.5176
20
116.4028
0
VERTEX
8
CUT
10
278.5473
20
116.3556
0
VERTEX
8
CUT
10
278.5631
20
116.3318
0
VERTEX
8
CUT
10
278.6678
20
116.1819
0
VERTEX
8
CUT
10
278.7026
20
116.1367
0
VERTEX
8
CUT
10
278.8194
20
115.9992
0
VERTEX
8
CUT
10
278.8584
20
115.9575
0
VERTEX
8
CUT
10
278.9895
20
115.8301
0
VERTEX
8
CUT
10
279.0105
20
115.8107
0
VERTEX
8
CUT
10
279.0522
20
115.7738
0
VERTEX
8
CUT
10
279.0630
20
115.7644
0
VERTEX
8
CUT
10
279.1340
20
115.7047
0
VERTEX
8
CUT
10
279.1450
20
115.6956
0
VERTEX
8
CUT
10
279.7265
20
115.2290
0
VERTEX
8
CUT
10
279.7377
20
115.2203
0
VERTEX
8
CUT
10
279.8109
20
115.1643
0
VERTEX
8
CUT
10
279.8223
20
115.1559
0
VERTEX
8
CUT
10
279.8671
20
115.1233
0
VERTEX
8
CUT
10
279.8904
20
115.1071
0
VERTEX
8
CUT
10
280.0423
20
115.0073
0
VERTEX
8
CUT
10
280.0911
20
114.9784
0
VERTEX
8
CUT
10
280.2495
20
114.8945
0
VERTEX
8
CUT
10
280.3008
20
114.8704
0
VERTEX
8
CUT
10
280.4688
20
114.8008
0
VERTEX
8
CUT
10
280.4952
20
114.7906
0
VERTEX
8
CUT
10
280.5473
20
114.7719
0
VERTEX
8
CUT
10
280.5607
20
114.7672
0
VERTEX
8
CUT
10
280.6482
20
114.7381
0
VERTEX
8
CUT
10
280.6617
20
114.7338
0
VERTEX
8
CUT
10
282.1645
20
114.2722
0
VERTEX
8
CUT
10
282.1789
20
114.2680
0
VERTEX
8
CUT
10
282.2727
20
114.2417
0
VERTEX
8
CUT
10
282.2871
20
114.2379
0
VERTEX
8
CUT
10
282.3439
20
114.2235
0
VERTEX
8
CUT
10
282.3731
20
114.2169
0
VERTEX
8
CUT
10
282.5614
20
114.1791
0
VERTEX
8
CUT
10
282.6207
20
114.1702
0
VERTEX
8
CUT
10
282.8118
20
114.1514
0
VERTEX
8
CUT
10
282.8417
20
114.1492
0
VERTEX
8
CUT
10
282.9001
20
114.1464
0
VERTEX
8
CUT
10
282.9151
20
114.1459
0
VERTEX
8
CUT
10
283.0125
20
114.1436
0
VERTEX
8
CUT
10
283.0275
20
114.1434
0
VERTEX
8
CUT
10
283.7317
20
114.1447
0
VERTEX
8
CUT
10
283.7441
20
114.1448
0
VERTEX
8
CUT
10
283.8250
20
114.1467
0
VERTEX
8
CUT
10
283.8374
20
114.1471
0
VERTEX
8
CUT
10
283.8860
20
114.1492
0
VERTEX
8
CUT
10
283.9109
20
114.1508
0
VERTEX
8
CUT
10
284.0720
20
114.1644
0
VERTEX
8
CUT
10
284.0967
20
114.1671
0
VERTEX
8
CUT
10
284.1450
20
114.1732
0
VERTEX
8
CUT
10
284.1573
20
114.1749
0
VERTEX
8
CUT
10
284.2373
20
114.1867
0
VERTEX
8
CUT
10
284.2496
20
114.1887
0
VERTEX
8
CUT
10
285.5852
20
114.4147
0
VERTEX
8
CUT
10
285.5991
20
114.4173
0
VERTEX
8
CUT
10
285.6894
20
114.4347
0
VERTEX
8
CUT
10
285.7033
20
114.4376
0
VERTEX
8
CUT
10
285.7573
20
114.4494
0
VERTEX
8
CUT
10
285.7848
20
114.4561
0
VERTEX
8
CUT
10
285.9600
20
114.5031
0
VERTEX
8
CUT
10
286.0139
20
114.5203
0
VERTEX
8
CUT
10
286.1838
20
114.5836
0
VERTEX
8
CUT
10
286.2101
20
114.5941
0
VERTEX
8
CUT
10
286.2610
20
114.6158
0
VERTEX
8
CUT
10
286.2739
20
114.6215
0
VERTEX
8
CUT
10
286.3576
20
114.6596
0
VERTEX
8
CUT
10
286.3704
20
114.6656
0
VERTEX
8
CUT
10
286.4859
20
114.7215
0
VERTEX
8
CUT
10
286.4976
20
114.7273
0
VERTEX
8
CUT
10
286.5729
20
114.7657
0
VERTEX
8
CUT
10
286.5844
20
114.7718
0
VERTEX
8
CUT
10
286.6291
20
114.7959
0
VERTEX
8
CUT
10
286.6518
20
114.8087
0
VERTEX
8
CUT
10
286.7950
20
114.8941
0
VERTEX
8
CUT
10
286.8385
20
114.9226
0
VERTEX
8
CUT
10
286.9738
20
115.0200
0
VERTEX
8
CUT
10
286.9945
20
115.0357
0
VERTEX
8
CUT
10
287.0344
20
115.0672
0
VERTEX
8
CUT
10
287.0446
20
115.0753
0
VERTEX
8
CUT
10
287.1098
20
115.1291
0
VERTEX
8
CUT
10
287.1198
20
115.1374
0
VERTEX
8
CUT
10
287.4270
20
115.4020
0
VERTEX
8
CUT
10
287.4378
20
115.4115
0
VERTEX
8
CUT
10
287.5076
20
115.4746
0
VERTEX
8
CUT
10
287.5182
20
115.4844
0
VERTEX
8
CUT
10
287.5592
20
115.5233
0
VERTEX
8
CUT
10
287.5797
20
115.5437
0
VERTEX
8
CUT
10
287.7097
20
115.6795
0
VERTEX
8
CUT
10
287.7292
20
115.7009
0
VERTEX
8
CUT
10
287.7662
20
115.7436
0
VERTEX
8
CUT
10
287.7756
20
115.7546
0
VERTEX
8
CUT
10
287.8355
20
115.8270
0
VERTEX
8
CUT
10
287.8446
20
115.8383
0
VERTEX
8
CUT
10
288.9964
20
117.3010
0
VERTEX
8
CUT
10
289.0054
20
117.3128
0
VERTEX
8
CUT
10
289.0633
20
117.3901
0
VERTEX
8
CUT
10
289.0720
20
117.4021
0
VERTEX
8
CUT
10
289.1057
20
117.4495
0
VERTEX
8
CUT
10
289.1223
20
117.4741
0
VERTEX
8
CUT
10
289.2247
20
117.6347
0
VERTEX
8
CUT
10
289.2542
20
117.6864
0
VERTEX
8
CUT
10
289.3391
20
117.8540
0
VERTEX
8
CUT
10
289.3633
20
117.9083
0
VERTEX
8
CUT
10
289.4312
20
118.0835
0
VERTEX
8
CUT
10
289.4499
20
118.1399
0
VERTEX
8
CUT
10
289.5008
20
118.3235
0
VERTEX
8
CUT
10
289.5081
20
118.3524
0
VERTEX
8
CUT
10
289.5208
20
118.4090
0
VERTEX
8
CUT
10
289.5239
20
118.4235
0
VERTEX
8
CUT
10
289.5427
20
118.5183
0
VERTEX
8
CUT
10
289.5454
20
118.5329
0
VERTEX
8
CUT
10
289.7955
20
119.9768
0
VERTEX
8
CUT
10
289.7979
20
119.9919
0
VERTEX
8
CUT
10
289.8124
20
120.0907
0
VERTEX
8
CUT
10
289.8145
20
120.1060
0
VERTEX
8
CUT
10
289.8217
20
120.1655
0
VERTEX
8
CUT
10
289.8246
20
120.1961
0
VERTEX
8
CUT
10
289.8382
20
120.3926
0
VERTEX
8
CUT
10
289.8393
20
120.4540
0
VERTEX
8
CUT
10
289.8327
20
120.6508
0
VERTEX
8
CUT
10
289.8309
20
120.6815
0
VERTEX
8
CUT
10
289.8258
20
120.7413
0
VERTEX
8
CUT
10
289.8243
20
120.7566
0
VERTEX
8
CUT
10
289.8133
20
120.8558
0
VERTEX
8
CUT
10
289.8114
20
120.8711
0
VERTEX
8
CUT
10
289.5990
20
122.4249
0
VERTEX
8
CUT
10
289.5970
20
122.4388
0
VERTEX
8
CUT
10
289.5826
20
122.5283
0
VERTEX
8
CUT
10
289.5802
20
122.5421
0
VERTEX
8
CUT
10
289.5703
20
122.5957
0
VERTEX
8
CUT
10
289.5646
20
122.6230
0
VERTEX
8
CUT
10
289.5240
20
122.7973
0
VERTEX
8
CUT
10
289.5088
20
122.8510
0
VERTEX
8
CUT
10
289.4530
20
123.0185
0
VERTEX
8
CUT
10
289.4329
20
123.0705
0
VERTEX
8
CUT
10
289.3617
20
123.2320
0
VERTEX
8
CUT
10
289.3368
20
123.2820
0
VERTEX
8
CUT
10
289.2498
20
123.4384
0
VERTEX
8
CUT
10
289.2356
20
123.4624
0
VERTEX
8
CUT
10
289.2069
20
123.5088
0
VERTEX
8
CUT
10
289.1994
20
123.5206
0
VERTEX
8
CUT
10
289.1498
20
123.5965
0
VERTEX
8
CUT
10
289.1421
20
123.6081
0
VERTEX
8
CUT
10
288.4337
20
124.6409
0
VERTEX
8
CUT
10
288.4243
20
124.6543
0
VERTEX
8
CUT
10
288.3619
20
124.7402
0
VERTEX
8
CUT
10
288.3521
20
124.7533
0
VERTEX
8
CUT
10
288.3132
20
124.8038
0
VERTEX
8
CUT
10
288.2926
20
124.8292
0
VERTEX
8
CUT
10
288.1561
20
124.9879
0
VERTEX
8
CUT
10
288.1108
20
125.0351
0
VERTEX
8
CUT
10
287.9579
20
125.1781
0
VERTEX
8
CUT
10
287.9334
20
125.1997
0
VERTEX
8
CUT
10
287.8845
20
125.2407
0
VERTEX
8
CUT
10
287.8718
20
125.2510
0
VERTEX
8
CUT
10
287.7886
20
125.3169
0
VERTEX
8
CUT
10
287.7756
20
125.3269
0
VERTEX
8
CUT
10
286.4616
20
126.3109
0
VERTEX
8
CUT
10
286.4503
20
126.3191
0
VERTEX
8
CUT
10
286.3764
20
126.3719
0
VERTEX
8
CUT
10
286.3649
20
126.3798
0
VERTEX
8
CUT
10
286.3197
20
126.4105
0
VERTEX
8
CUT
10
286.2962
20
126.4256
0
VERTEX
8
CUT
10
286.1434
20
126.5192
0
VERTEX
8
CUT
10
286.0945
20
126.5462
0
VERTEX
8
CUT
10
285.9336
20
126.6251
0
VERTEX
8
CUT
10
285.9083
20
126.6368
0
VERTEX
8
CUT
10
285.8582
20
126.6586
0
VERTEX
8
CUT
10
285.8453
20
126.6640
0
VERTEX
8
CUT
10
285.7612
20
126.6983
0
VERTEX
8
CUT
10
285.7481
20
126.7034
0
VERTEX
8
CUT
10
285.2919
20
126.8768
0
VERTEX
8
CUT
10
285.2759
20
126.8826
0
VERTEX
8
CUT
10
285.1716
20
126.9189
0
VERTEX
8
CUT
10
285.1555
20
126.9242
0
VERTEX
8
CUT
10
285.0922
20
126.9442
0
VERTEX
8
CUT
10
285.0596
20
126.9536
0
VERTEX
8
CUT
10
284.8457
20
127.0082
0
VERTEX
8
CUT
10
284.8126
20
127.0156
0
VERTEX
8
CUT
10
284.7475
20
127.0284
0
VERTEX
8
CUT
10
284.7308
20
127.0314
0
VERTEX
8
CUT
10
284.6218
20
127.0495
0
VERTEX
8
CUT
10
284.6050
20
127.0521
0
VERTEX
8
CUT
10
283.9809
20
127.1378
0
VERTEX
8
CUT
10
283.9697
20
127.1393
0
VERTEX
8
CUT
10
283.8915
20
127.1485
0
VERTEX
8
CUT
10
283.8799
20
127.1498
0
VERTEX
8
CUT
10
283.8285
20
127.1549
0
VERTEX
8
CUT
10
283.8037
20
127.1568
0
VERTEX
8
CUT
10
283.6489
20
127.1656
0
VERTEX
8
CUT
10
283.6250
20
127.1665
0
VERTEX
8
CUT
10
283.5835
20
127.1672
0
VERTEX
8
CUT
10
283.5722
20
127.1672
0
VERTEX
8
CUT
10
283.4943
20
127.1671
0
VERTEX
8
CUT
10
283.4818
20
127.1669
0
VERTEX
8
CUT
10
282.8187
20
127.1518
0
VERTEX
8
CUT
10
282.8028
20
127.1512
0
VERTEX
8
CUT
10
282.7005
20
127.1462
0
VERTEX
8
CUT
10
282.6848
20
127.1452
0
VERTEX
8
CUT
10
282.6233
20
127.1405
0
VERTEX
8
CUT
10
282.5920
20
127.1373
0
VERTEX
8
CUT
10
282.3887
20
127.1111
0
VERTEX
8
CUT
10
282.3575
20
127.1063
0
VERTEX
8
CUT
10
282.2969
20
127.0952
0
VERTEX
8
CUT
10
282.2815
20
127.0921
0
VERTEX
8
CUT
10
282.1811
20
127.0711
0
VERTEX
8
CUT
10
282.1657
20
127.0676
0
VERTEX
8
CUT
10
281.7178
20
126.9611
0
VERTEX
8
CUT
10
281.7041
20
126.9577
0
VERTEX
8
CUT
10
281.6156
20
126.9345
0
VERTEX
8
CUT
10
281.6021
20
126.9307
0
VERTEX
8
CUT
10
281.5492
20
126.9155
0
VERTEX
8
CUT
10
281.5224
20
126.9071
0
VERTEX
8
CUT
10
281.3515
20
126.8491
0
VERTEX
8
CUT
10
281.2991
20
126.8286
0
VERTEX
8
CUT
10
281.1345
20
126.7548
0
VERTEX
8
CUT
10
281.1091
20
126.7427
0
VERTEX
8
CUT
10
281.0600
20
126.7179
0
VERTEX
8
CUT
10
281.0475
20
126.7114
0
VERTEX
8
CUT
10
280.9669
20
126.6682
0
VERTEX
8
CUT
10
280.9546
20
126.6615
0
VERTEX
8
CUT
10
279.5430
20
125.8628
0
VERTEX
8
CUT
10
279.5306
20
125.8556
0
VERTEX
8
CUT
10
279.4507
20
125.8078
0
VERTEX
8
CUT
10
279.4384
20
125.8003
0
VERTEX
8
CUT
10
279.3911
20
125.7704
0
VERTEX
8
CUT
10
279.3673
20
125.7546
0
VERTEX
8
CUT
10
279.2168
20
125.6493
0
VERTEX
8
CUT
10
279.1715
20
125.6143
0
VERTEX
8
CUT
10
279.0317
20
125.4951
0
VERTEX
8
CUT
10
279.0104
20
125.4760
0
VERTEX
8
CUT
10
278.9696
20
125.4378
0
VERTEX
8
CUT
10
278.9592
20
125.4278
0
VERTEX
8
CUT
10
278.8929
20
125.3625
0
VERTEX
8
CUT
10
278.8828
20
125.3523
0
VERTEX
8
CUT
10
278.5366
20
124.9948
0
VERTEX
8
CUT
10
278.5259
20
124.9835
0
VERTEX
8
CUT
10
278.4575
20
124.9091
0
VERTEX
8
CUT
10
278.4471
20
124.8975
0
VERTEX
8
CUT
10
278.4072
20
124.8518
0
VERTEX
8
CUT
10
278.3874
20
124.8278
0
VERTEX
8
CUT
10
278.2626
20
124.6690
0
VERTEX
8
CUT
10
278.2441
20
124.6440
0
VERTEX
8
CUT
10
278.2091
20
124.5944
0
VERTEX
8
CUT
10
278.2003
20
124.5816
0
VERTEX
8
CUT
10
278.1443
20
124.4975
0
VERTEX
8
CUT
10
278.1358
20
124.4845
0
VERTEX
8
CUT
10
277.7644
20
123.8947
0
VERTEX
8
CUT
10
277.7576
20
123.8837
0
VERTEX
8
CUT
10
277.7145
20
123.8118
0
VERTEX
8
CUT
10
277.7080
20
123.8007
0
VERTEX
8
CUT
10
277.6830
20
123.7570
0
VERTEX
8
CUT
10
277.6707
20
123.7343
0
VERTEX
8
CUT
10
277.5939
20
123.5854
0
VERTEX
8
CUT
10
277.5826
20
123.5623
0
VERTEX
8
CUT
10
277.5615
20
123.5165
0
VERTEX
8
CUT
10
277.5562
20
123.5048
0
VERTEX
8
CUT
10
277.5227
20
123.4280
0
VERTEX
8
CUT
10
277.5176
20
123.4161
0
VERTEX
8
CUT
10
277.0761
20
122.3424
0
VERTEX
8
CUT
10
277.0701
20
122.3270
0
VERTEX
8
CUT
10
277.0320
20
122.2268
0
VERTEX
8
CUT
10
277.0264
20
122.2113
0
VERTEX
8
CUT
10
277.0052
20
122.1504
0
VERTEX
8
CUT
10
276.9952
20
122.1190
0
VERTEX
8
CUT
10
276.9360
20
121.9130
0
VERTEX
8
CUT
10
276.9277
20
121.8810
0
VERTEX
8
CUT
10
276.9133
20
121.8182
0
VERTEX
8
CUT
10
276.9099
20
121.8021
0
VERTEX
8
CUT
10
276.8888
20
121.6969
0
VERTEX
8
CUT
10
276.8858
20
121.6807
0
VERTEX
8
CUT
10
276.8267
20
121.3363
0
VERTEX
8
CUT
10
276.8244
20
121.3217
0
VERTEX
8
CUT
10
276.8105
20
121.2267
0
VERTEX
8
CUT
10
276.8085
20
121.2121
0
VERTEX
8
CUT
10
276.8015
20
121.1548
0
VERTEX
8
CUT
10
276.7987
20
121.1254
0
SEQEND
0
POLYLINE
8
CUT
66
1
70
1
10
0.0
20
0.0
30
0.0
0
VERTEX
8
CUT
10
170.8085
20
75.6465
0
VERTEX
8
CUT
10
170.8098
20
75.5887
0
VERTEX
8
CUT
10
170.8229
20
75.4062
0
VERTEX
8
CUT
10
170.8298
20
75.3488
0
VERTEX
8
CUT
10
170.8604
20
75.1685
0
VERTEX
8
CUT
10
170.8728
20
75.1119
0
VERTEX
8
CUT
10
170.9206
20
74.9354
0
VERTEX
8
CUT
10
170.9384
20
74.8803
0
VERTEX
8
CUT
10
171.0030
20
74.7092
0
VERTEX
8
CUT
10
171.0260
20
74.6561
0
VERTEX
8
CUT
10
171.1068
20
74.4920
0
VERTEX
8
CUT
10
171.1348
20
74.4414
0
VERTEX
8
CUT
10
171.2310
20
74.2858
0
VERTEX
8
CUT
10
171.2638
20
74.2381
0
VERTEX
8
CUT
10
171.3745
20
74.0925
0
VERTEX
8
CUT
10
171.4117
20
74.0482
0
VERTEX
8
CUT
10
171.5360
20
73.9140
0
VERTEX
8
CUT
10
171.5773
20
73.8735
0
VERTEX
8
CUT
10
171.7139
20
73.7518
0
VERTEX
8
CUT
10
171.7589
20
73.7155
0
VERTEX
8
CUT
10
171.9086
20
73.6061
0
VERTEX
8
CUT
10
171.9324
20
73.5896
0
VERTEX
8
CUT
10
171.9796
20
73.5585
0
VERTEX
8
CUT
10
171.9917
20
73.5506
0
VERTEX
8
CUT
10
172.0715
20
73.5008
0
VERTEX
8
CUT
10
172.0838
20
73.4933
0
VERTEX
8
CUT
10
172.5556
20
73.2139
0
VERTEX
8
CUT
10
172.5685
20
73.2061
0
VERTEX
8
CUT
10
172.5985
20
73.1877
0
VERTEX
8
CUT
10
172.6113
20
73.1797
0
VERTEX
8
CUT
10
172.6268
20
73.1698
0
VERTEX
8
CUT
10
172.6394
20
73.1615
0
VERTEX
8
CUT
10
172.6688
20
73.1421
0
VERTEX
8
CUT
10
172.6813
20
73.1337
0
VERTEX
8
CUT
10
172.7033
20
73.1186
0
VERTEX
8
CUT
10
172.7156
20
73.1099
0
VERTEX
8
CUT
10
172.7443
20
73.0895
0
VERTEX
8
CUT
10
172.7565
20
73.0807
0
VERTEX
8
CUT
10
172.7713
20
73.0698
0
VERTEX
8
CUT
10
172.7834
20
73.0607
0
VERTEX
8
CUT
10
172.8114
20
73.0394
0
VERTEX
8
CUT
10
172.8233
20
73.0301
0
VERTEX
8
CUT
10
174.9220
20
71.3718
0
VERTEX
8
CUT
10
174.9315
20
71.3642
0
VERTEX
8
CUT
10
174.9471
20
71.3515
0
VERTEX
8
CUT
10
174.9839
20
71.3199
0
VERTEX
8
CUT
10
175.0448
20
71.2648
0
VERTEX
8
CUT
10
175.0713
20
71.2398
0
VERTEX
8
CUT
10
175.0740
20
71.2371
0
VERTEX
8
CUT
10
175.0994
20
71.2111
0
VERTEX
8
CUT
10
175.1556
20
71.1512
0
VERTEX
8
CUT
10
175.1879
20
71.1150
0
VERTEX
8
CUT
10
175.2009
20
71.0996
0
VERTEX
8
CUT
10
175.2086
20
71.0902
0
VERTEX
8
CUT
10
176.3464
20
69.7017
0
VERTEX
8
CUT
10
176.3561
20
69.6896
0
VERTEX
8
CUT
10
176.3785
20
69.6613
0
VERTEX
8
CUT
10
176.3880
20
69.6491
0
VERTEX
8
CUT
10
176.3994
20
69.6341
0
VERTEX
8
CUT
10
176.4087
20
69.6217
0
VERTEX
8
CUT
10
176.4302
20
69.5926
0
VERTEX
8
CUT
10
176.4392
20
69.5801
0
VERTEX
8
CUT
10
176.4551
20
69.5577
0
VERTEX
8
CUT
10
176.4639
20
69.5450
0
VERTEX
8
CUT
10
176.4843
20
69.5152
0
VERTEX
8
CUT
10
176.4930
20
69.5024
0
VERTEX
8
CUT
10
176.5034
20
69.4866
0
VERTEX
8
CUT
10
176.5118
20
69.4736
0
VERTEX
8
CUT
10
176.5312
20
69.4432
0
VERTEX
8
CUT
10
176.5393
20
69.4300
0
VERTEX
8
CUT
10
181.0328
20
62.0817
0
VERTEX
8
CUT
10
181.0373
20
62.0746
0
VERTEX
8
CUT
10
181.0684
20
62.0252
0
VERTEX
8
CUT
10
181.0733
20
62.0176
0
VERTEX
8
CUT
10
181.1130
20
61.9567
0
VERTEX
8
CUT
10
181.1179
20
61.9493
0
VERTEX
8
CUT
10
181.1501
20
61.9016
0
VERTEX
8
CUT
10
181.1554
20
61.8938
0
VERTEX
8
CUT
10
183.7398
20
58.1824
0
VERTEX
8
CUT
10
183.7484
20
58.1704
0
VERTEX
8
CUT
10
183.8051
20
58.0930
0
VERTEX
8
CUT
10
183.8140
20
58.0812
0
VERTEX
8
CUT
10
183.8877
20
57.9858
0
VERTEX
8
CUT
10
183.8968
20
57.9743
0
VERTEX
8
CUT
10
183.9574
20
57.8997
0
VERTEX
8
CUT
10
183.9668
20
57.8884
0
VERTEX
8
CUT
10
186.2065
20
55.2656
0
VERTEX
8
CUT
10
186.2138
20
55.2571
0
VERTEX
8
CUT
10
186.2659
20
55.1983
0
VERTEX
8
CUT
10
186.2738
20
55.1896
0
VERTEX
8
CUT
10
186.3087
20
55.1518
0
VERTEX
8
CUT
10
186.3259
20
55.1339
0
VERTEX
8
CUT
10
186.4354
20
55.0247
0
VERTEX
8
CUT
10
186.4526
20
55.0081
0
VERTEX
8
CUT
10
186.4830
20
54.9801
0
VERTEX
8
CUT
10
186.4914
20
54.9725
0
VERTEX
8
CUT
10
186.5494
20
54.9210
0
VERTEX
8
CUT
10
186.5589
20
54.9127
0
VERTEX
8
CUT
10
190.3062
20
51.7252
0
VERTEX
8
CUT
10
190.3187
20
51.7148
0
VERTEX
8
CUT
10
190.4005
20
51.6489
0
VERTEX
8
CUT
10
190.4133
20
51.6389
0
VERTEX
8
CUT
10
190.5183
20
51.5590
0
VERTEX
8
CUT
10
190.5313
20
51.5493
0
VERTEX
8
CUT
10
190.6166
20
51.4879
0
VERTEX
8
CUT
10
190.6298
20
51.4786
0
VERTEX
8
CUT
10
191.6358
20
50.7948
0
VERTEX
8
CUT
10
191.6510
20
50.7849
0
VERTEX
8
CUT
10
191.7502
20
50.7217
0
VERTEX
8
CUT
10
191.7656
20
50.7122
0
VERTEX
8
CUT
10
191.8925
20
50.6368
0
VERTEX
8
CUT
10
191.9082
20
50.6278
0
VERTEX
8
CUT
10
192.0110
20
50.5707
0
VERTEX
8
CUT
10
192.0270
20
50.5622
0
VERTEX
8
CUT
10
194.1066
20
49.4892
0
VERTEX
8
CUT
10
194.1248
20
49.4802
0
VERTEX
8
CUT
10
194.2444
20
49.4236
0
VERTEX
8
CUT
10
194.2629
20
49.4152
0
VERTEX
8
CUT
10
194.4152
20
49.3493
0
VERTEX
8
CUT
10
194.4340
20
49.3415
0
VERTEX
8
CUT
10
194.5571
20
49.2931
0
VERTEX
8
CUT
10
194.5762
20
49.2860
0
VERTEX
8
CUT
10
195.2645
20
49.0421
0
VERTEX
8
CUT
10
195.2776
20
49.0376
0
VERTEX
8
CUT
10
195.3635
20
49.0094
0
VERTEX
8
CUT
10
195.3768
20
49.0052
0
VERTEX
8
CUT
10
195.4288
20
48.9894
0
VERTEX
8
CUT
10
195.4556
20
48.9820
0
VERTEX
8
CUT
10
195.6308
20
48.9376
0
VERTEX
8
CUT
10
195.6579
20
48.9314
0
VERTEX
8
CUT
10
195.7111
20
48.9205
0
VERTEX
8
CUT
10
195.7248
20
48.9179
0
VERTEX
8
CUT
10
195.8138
20
48.9019
0
VERTEX
8
CUT
10
195.8275
20
48.8996
0
VERTEX
8
CUT
10
197.5035
20
48.6375
0
VERTEX
8
CUT
10
197.5207
20
48.6351
0
VERTEX
8
CUT
10
197.6328
20
48.6209
0
VERTEX
8
CUT
10
197.6501
20
48.6189
0
VERTEX
8
CUT
10
197.7176
20
48.6123
0
VERTEX
8
CUT
10
197.7523
20
48.6100
0
VERTEX
8
CUT
10
197.9779
20
48.6011
0
VERTEX
8
CUT
10
198.0127
20
48.6008
0
VERTEX
8
CUT
10
198.0805
20
48.6020
0
VERTEX
8
CUT
10
198.0979
20
48.6026
0
VERTEX
8
CUT
10
198.2108
20
48.6080
0
VERTEX
8
CUT
10
198.2281
20
48.6091
0
VERTEX
8
CUT
10
200.8850
20
48.8134
0
VERTEX
8
CUT
10
200.8974
20
48.8145
0
VERTEX
8
CUT
10
200.9776
20
48.8223
0
VERTEX
8
CUT
10
200.9899
20
48.8237
0
VERTEX
8
CUT
10
201.0380
20
48.8294
0
VERTEX
8
CUT
10
201.0625
20
48.8328
0
VERTEX
8
CUT
10
201.2195
20
48.8580
0
VERTEX
8
CUT
10
201.2680
20
48.8679
0
VERTEX
8
CUT
10
201.4223
20
48.9060
0
VERTEX
8
CUT
10
201.4463
20
48.9124
0
VERTEX
8
CUT
10
201.4928
20
48.9260
0
VERTEX
8
CUT
10
201.5046
20
48.9296
0
VERTEX
8
CUT
10
201.5815
20
48.9537
0
VERTEX
8
CUT
10
201.5933
20
48.9575
0
VERTEX
8
CUT
10
202.4098
20
49.2323
0
VERTEX
8
CUT
10
202.4237
20
49.2372
0
VERTEX
8
CUT
10
202.5140
20
49.2701
0
VERTEX
8
CUT
10
202.5278
20
49.2753
0
VERTEX
8
CUT
10
202.5816
20
49.2964
0
VERTEX
8
CUT
10
202.6088
20
49.3079
0
VERTEX
8
CUT
10
202.7839
20
49.3867
0
VERTEX
8
CUT
10
202.8105
20
49.3995
0
VERTEX
8
CUT
10
202.8619
20
49.4258
0
VERTEX
8
CUT
10
202.8750
20
49.4327
0
VERTEX
8
CUT
10
202.9594
20
49.4785
0
VERTEX
8
CUT
10
202.9723
20
49.4857
0
VERTEX
8
CUT
10
204.1872
20
50.1841
0
VERTEX
8
CUT
10
204.1994
20
50.1913
0
VERTEX
8
CUT
10
204.2780
20
50.2390
0
VERTEX
8
CUT
10
204.2900
20
50.2465
0
VERTEX
8
CUT
10
204.3366
20
50.2762
0
VERTEX
8
CUT
10
204.3600
20
50.2920
0
VERTEX
8
CUT
10
204.5080
20
50.3968
0
VERTEX
8
CUT
10
204.5526
20
50.4316
0
VERTEX
8
CUT
10
204.6882
20
50.5483
0
VERTEX
8
CUT
10
204.7293
20
50.5872
0
VERTEX
8
CUT
10
204.8533
20
50.7160
0
VERTEX
8
CUT
10
204.8906
20
50.7586
0
VERTEX
8
CUT
10
205.0019
20
50.8986
0
VERTEX
8
CUT
10
205.0350
20
50.9445
0
VERTEX
8
CUT
10
205.1326
20
51.0944
0
VERTEX
8
CUT
10
205.1612
20
51.1432
0
VERTEX
8
CUT
10
205.2455
20
51.3038
0
VERTEX
8
CUT
10
205.2580
20
51.3291
0
VERTEX
8
CUT
10
205.2814
20
51.3792
0
VERTEX
8
CUT
10
205.2872
20
51.3921
0
VERTEX
8
CUT
10
205.3240
20
51.4763
0
VERTEX
8
CUT
10
205.3296
20
51.4894
0
VERTEX
8
CUT
10
206.5851
20
54.5542
0
VERTEX
8
CUT
10
206.5910
20
54.5692
0
VERTEX
8
CUT
10
206.6281
20
54.6671
0
VERTEX
8
CUT
10
206.6336
20
54.6822
0
VERTEX
8
CUT
10
206.6769
20
54.8064
0
VERTEX
8
CUT
10
206.6820
20
54.8217
0
VERTEX
8
CUT
10
206.7137
20
54.9215
0
VERTEX
8
CUT
10
206.7184
20
54.9369
0
VERTEX
8
CUT
10
206.9591
20
55.7697
0
VERTEX
8
CUT
10
206.9629
20
55.7832
0
VERTEX
8
CUT
10
206.9861
20
55.8714
0
VERTEX
8
CUT
10
206.9896
20
55.8850
0
VERTEX
8
CUT
10
207.0023
20
55.9383
0
VERTEX
8
CUT
10
207.0082
20
55.9657
0
VERTEX
8
CUT
10
207.0418
20
56.1424
0
VERTEX
8
CUT
10
207.0496
20
56.1979
0
VERTEX
8
CUT
10
207.0666
20
56.3770
0
VERTEX
8
CUT
10
207.0686
20
56.4050
0
VERTEX
8
CUT
10
207.0712
20
56.4597
0
VERTEX
8
CUT
10
207.0717
20
56.4737
0
VERTEX
8
CUT
10
207.0739
20
56.5649
0
VERTEX
8
CUT
10
207.0741
20
56.5789
0
VERTEX
8
CUT
10
207.0777
20
61.2947
0
VERTEX
8
CUT
10
207.0775
20
61.3090
0
VERTEX
8
CUT
10
207.0754
20
61.4020
0
VERTEX
8
CUT
10
207.0749
20
61.4163
0
VERTEX
8
CUT
10
207.0723
20
61.4722
0
VERTEX
8
CUT
10
207.0703
20
61.5007
0
VERTEX
8
CUT
10
207.0527
20
61.6858
0
VERTEX
8
CUT
10
207.0493
20
61.7142
0
VERTEX
8
CUT
10
207.0414
20
61.7695
0
VERTEX
8
CUT
10
207.0392
20
61.7837
0
VERTEX
8
CUT
10
207.0238
20
61.8754
0
VERTEX
8
CUT
10
207.0213
20
61.8895
0
VERTEX
8
CUT
10
206.4278
20
64.9747
0
VERTEX
8
CUT
10
206.4239
20
64.9935
0
VERTEX
8
CUT
10
206.3964
20
65.1153
0
VERTEX
8
CUT
10
206.3919
20
65.1340
0
VERTEX
8
CUT
10
206.3525
20
65.2856
0
VERTEX
8
CUT
10
206.3473
20
65.3041
0
VERTEX
8
CUT
10
206.3121
20
65.4239
0
VERTEX
8
CUT
10
206.3064
20
65.4423
0
VERTEX
8
CUT
10
204.8626
20
69.8264
0
VERTEX
8
CUT
10
204.8591
20
69.8366
0
VERTEX
8
CUT
10
204.8344
20
69.9073
0
VERTEX
8
CUT
10
204.8305
20
69.9182
0
VERTEX
8
CUT
10
204.7980
20
70.0057
0
VERTEX
8
CUT
10
204.7940
20
70.0163
0
VERTEX
8
CUT
10
204.7670
20
70.0850
0
VERTEX
8
CUT
10
204.7625
20
70.0962
0
VERTEX
8
CUT
10
203.5600
20
72.9857
0
VERTEX
8
CUT
10
203.5566
20
72.9937
0
VERTEX
8
CUT
10
203.5323
20
73.0496
0
VERTEX
8
CUT
10
203.5285
20
73.0582
0
VERTEX
8
CUT
10
203.4973
20
73.1274
0
VERTEX
8
CUT
10
203.4934
20
73.1358
0
VERTEX
8
CUT
10
203.4678
20
73.1901
0
VERTEX
8
CUT
10
203.4636
20
73.1989
0
VERTEX
8
CUT
10
201.4471
20
77.3061
0
VERTEX
8
CUT
10
201.4413
20
77.3182
0
VERTEX
8
CUT
10
201.4318
20
77.3383
0
VERTEX
8
CUT
10
201.4104
20
77.3873
0
VERTEX
8
CUT
10
201.3766
20
77.4715
0
VERTEX
8
CUT
10
201.3624
20
77.5091
0
VERTEX
8
CUT
10
201.3610
20
77.5130
0
VERTEX
8
CUT
10
201.3486
20
77.5512
0
VERTEX
8
CUT
10
201.3224
20
77.6380
0
VERTEX
8
CUT
10
201.3085
20
77.6898
0
VERTEX
8
CUT
10
201.3033
20
77.7114
0
VERTEX
8
CUT
10
201.3004
20
77.7245
0
VERTEX
8
CUT
10
201.0614
20
78.8016
0
VERTEX
8
CUT
10
201.0590
20
78.8126
0
VERTEX
8
CUT
10
201.0552
20
78.8309
0
VERTEX
8
CUT
10
201.0471
20
78.8751
0
VERTEX
8
CUT
10
201.0353
20
78.9504
0
VERTEX
8
CUT
10
201.0307
20
78.9838
0
VERTEX
8
CUT
10
201.0303
20
78.9873
0
VERTEX
8
CUT
10
201.0269
20
79.0209
0
VERTEX
8
CUT
10
201.0208
20
79.0968
0
VERTEX
8
CUT
10
201.0183
20
79.1417
0
VERTEX
8
CUT
10
201.0177
20
79.1604
0
VERTEX
8
CUT
10
201.0174
20
79.1717
0
VERTEX
8
CUT
10
200.9657
20
81.9884
0
VERTEX
8
CUT
10
200.9652
20
82.0035
0
VERTEX
8
CUT
10
200.9609
20
82.1016
0
VERTEX
8
CUT
10
200.9601
20
82.1167
0
VERTEX
8
CUT
10
200.9516
20
82.2397
0
VERTEX
8
CUT
10
200.9504
20
82.2548
0
VERTEX
8
CUT
10
200.9412
20
82.3525
0
VERTEX
8
CUT
10
200.9396
20
82.3676
0
VERTEX
8
CUT
10
200.7468
20
83.9787
0
VERTEX
8
CUT
10
200.7447
20
83.9943
0
VERTEX
8
CUT
10
200.7300
20
84.0952
0
VERTEX
8
CUT
10
200.7275
20
84.1107
0
VERTEX
8
CUT
10
200.7170
20
84.1711
0
VERTEX
8
CUT
10
200.7109
20
84.2018
0
VERTEX
8
CUT
10
200.6656
20
84.4006
0
VERTEX
8
CUT
10
200.6579
20
84.4310
0
VERTEX
8
CUT
10
200.6412
20
84.4899
0
VERTEX
8
CUT
10
200.6367
20
84.5050
0
VERTEX
8
CUT
10
200.6064
20
84.6023
0
VERTEX
8
CUT
10
200.6015
20
84.6173
0
VERTEX
8
CUT
10
199.9892
20
86.4146
0
VERTEX
8
CUT
10
199.9852
20
86.4267
0
VERTEX
8
CUT
10
199.9760
20
86.4550
0
VERTEX
8
CUT
10
199.9721
20
86.4672
0
VERTEX
8
CUT
10
199.9675
20
86.4820
0
VERTEX
8
CUT
10
199.9639
20
86.4942
0
VERTEX
8
CUT
10
199.9555
20
86.5227
0
VERTEX
8
CUT
10
199.9520
20
86.5350
0
VERTEX
8
CUT
10
199.9459
20
86.5567
0
VERTEX
8
CUT
10
199.9426
20
86.5690
0
VERTEX
8
CUT
10
199.9350
20
86.5978
0
VERTEX
8
CUT
10
199.9318
20
86.6101
0
VERTEX
8
CUT
10
199.9281
20
86.6252
0
VERTEX
8
CUT
10
199.9251
20
86.6376
0
VERTEX
8
CUT
10
199.9184
20
86.6666
0
VERTEX
8
CUT
10
199.9156
20
86.6790
0
VERTEX
8
CUT
10
199.5036
20
88.5648
0
VERTEX
8
CUT
10
199.5008
20
88.5783
0
VERTEX
8
CUT
10
199.4944
20
88.6099
0
VERTEX
8
CUT
10
199.4918
20
88.6234
0
VERTEX
8
CUT
10
199.4887
20
88.6400
0
VERTEX
8
CUT
10
199.4863
20
88.6536
0
VERTEX
8
CUT
10
199.4808
20
88.6853
0
VERTEX
8
CUT
10
199.4786
20
88.6990
0
VERTEX
8
CUT
10
199.4749
20
88.7231
0
VERTEX
8
CUT
10
199.4729
20
88.7368
0
VERTEX
8
CUT
10
199.4684
20
88.7687
0
VERTEX
8
CUT
10
199.4666
20
88.7824
0
VERTEX
8
CUT
10
199.4646
20
88.7991
0
VERTEX
8
CUT
10
199.4630
20
88.8128
0
VERTEX
8
CUT
10
199.4595
20
88.8448
0
VERTEX
8
CUT
10
199.4581
20
88.8585
0
VERTEX
8
CUT
10
199.3155
20
90.3993
0
VERTEX
8
CUT
10
199.3146
20
90.4088
0
VERTEX
8
CUT
10
199.3133
20
90.4246
0
VERTEX
8
CUT
10
199.3110
20
90.4625
0
VERTEX
8
CUT
10
199.3091
20
90.5122
0
VERTEX
8
CUT
10
199.3089
20
90.5787
0
VERTEX
8
CUT
10
199.3112
20
90.6454
0
VERTEX
8
CUT
10
199.3159
20
90.7117
0
VERTEX
8
CUT
10
199.3213
20
90.7611
0
VERTEX
8
CUT
10
199.3262
20
90.7988
0
VERTEX
8
CUT
10
199.3286
20
90.8144
0
VERTEX
8
CUT
10
199.3300
20
90.8238
0
VERTEX
8
CUT
10
199.6926
20
93.0573
0
VERTEX
8
CUT
10
199.6942
20
93.0665
0
VERTEX
8
CUT
10
199.6969
20
93.0819
0
VERTEX
8
CUT
10
199.7040
20
93.1187
0
VERTEX
8
CUT
10
199.7144
20
93.1667
0
VERTEX
8
CUT
10
199.7306
20
93.2302
0
VERTEX
8
CUT
10
199.7492
20
93.2934
0
VERTEX
8
CUT
10
199.7700
20
93.3557
0
VERTEX
8
CUT
10
199.7872
20
93.4017
0
VERTEX
8
CUT
10
199.8011
20
93.4365
0
VERTEX
8
CUT
10
199.8072
20
93.4508
0
VERTEX
8
CUT
10
199.8109
20
93.4594
0
VERTEX
8
CUT
10
200.5731
20
95.2088
0
VERTEX
8
CUT
10
200.5773
20
95.2182
0
VERTEX
8
CUT
10
200.5871
20
95.2402
0
VERTEX
8
CUT
10
200.5914
20
95.2496
0
VERTEX
8
CUT
10
200.5967
20
95.2610
0
VERTEX
8
CUT
10
200.6011
20
95.2704
0
VERTEX
8
CUT
10
200.6115
20
95.2921
0
VERTEX
8
CUT
10
200.6160
20
95.3014
0
VERTEX
8
CUT
10
200.6241
20
95.3178
0
VERTEX
8
CUT
10
200.6287
20
95.3271
0
VERTEX
8
CUT
10
200.6395
20
95.3486
0
VERTEX
8
CUT
10
200.6442
20
95.3578
0
VERTEX
8
CUT
10
200.6501
20
95.3689
0
VERTEX
8
CUT
10
200.6549
20
95.3781
0
VERTEX
8
CUT
10
200.6662
20
95.3993
0
VERTEX
8
CUT
10
200.6712
20
95.4084
0
VERTEX
8
CUT
10
203.0053
20
99.6541
0
VERTEX
8
CUT
10
203.0121
20
99.6667
0
VERTEX
8
CUT
10
203.0547
20
99.7488
0
VERTEX
8
CUT
10
203.0611
20
99.7615
0
VERTEX
8
CUT
10
203.0856
20
99.8115
0
VERTEX
8
CUT
10
203.0975
20
99.8374
0
VERTEX
8
CUT
10
203.1699
20
100.0050
0
VERTEX
8
CUT
10
203.1900
20
100.0583
0
VERTEX
8
CUT
10
203.2454
20
100.2297
0
VERTEX
8
CUT
10
203.2603
20
100.2847
0
VERTEX
8
CUT
10
203.2992
20
100.4605
0
VERTEX
8
CUT
10
203.3089
20
100.5167
0
VERTEX
8
CUT
10
203.3309
20
100.6954
0
VERTEX
8
CUT
10
203.3352
20
100.7522
0
VERTEX
8
CUT
10
203.3402
20
100.9323
0
VERTEX
8
CUT
10
203.3391
20
100.9892
0
VERTEX
8
CUT
10
203.3270
20
101.1689
0
VERTEX
8
CUT
10
203.3205
20
101.2255
0
VERTEX
8
CUT
10
203.2914
20
101.4033
0
VERTEX
8
CUT
10
203.2796
20
101.4590
0
VERTEX
8
CUT
10
203.2338
20
101.6332
0
VERTEX
8
CUT
10
203.2167
20
101.6875
0
VERTEX
8
CUT
10
203.1546
20
101.8566
0
VERTEX
8
CUT
10
203.1324
20
101.9090
0
VERTEX
8
CUT
10
203.0545
20
102.0714
0
VERTEX
8
CUT
10
203.0275
20
102.1216
0
VERTEX
8
CUT
10
202.9346
20
102.2759
0
VERTEX
8
CUT
10
202.9029
20
102.3232
0
VERTEX
8
CUT
10
202.7958
20
102.4680
0
VERTEX
8
CUT
10
202.7598
20
102.5121
0
VERTEX
8
CUT
10
202.6377
20
102.6479
0
VERTEX
8
CUT
10
202.6182
20
102.6687
0
VERTEX
8
CUT
10
202.5791
20
102.7082
0
VERTEX
8
CUT
10
202.5689
20
102.7183
0
VERTEX
8
CUT
10
202.5023
20
102.7825
0
VERTEX
8
CUT
10
202.4919
20
102.7923
0
VERTEX
8
CUT
10
201.4412
20
103.7591
0
VERTEX
8
CUT
10
201.4302
20
103.7690
0
VERTEX
8
CUT
10
201.3576
20
103.8325
0
VERTEX
8
CUT
10
201.3463
20
103.8421
0
VERTEX
8
CUT
10
201.3018
20
103.8792
0
VERTEX
8
CUT
10
201.2786
20
103.8976
0
VERTEX
8
CUT
10
201.1267
20
104.0119
0
VERTEX
8
CUT
10
201.0776
20
104.0452
0
VERTEX
8
CUT
10
200.9173
20
104.1425
0
VERTEX
8
CUT
10
200.8652
20
104.1708
0
VERTEX
8
CUT
10
200.6961
20
104.2519
0
VERTEX
8
CUT
10
200.6414
20
104.2748
0
VERTEX
8
CUT
10
200.4651
20
104.3388
0
VERTEX
8
CUT
10
200.4085
20
104.3563
0
VERTEX
8
CUT
10
200.2268
20
104.4025
0
VERTEX
8
CUT
10
200.1686
20
104.4143
0
VERTEX
8
CUT
10
199.9832
20
104.4424
0
VERTEX
8
CUT
10
199.9242
20
104.4484
0
VERTEX
8
CUT
10
199.7370
20
104.4581
0
VERTEX
8
CUT
10
199.6777
20
104.4582
0
VERTEX
8
CUT
10
199.4878
20
104.4492
0
VERTEX
8
CUT
10
199.4582
20
104.4471
0
VERTEX
8
CUT
10
199.4005
20
104.4415
0
VERTEX
8
CUT
10
199.3858
20
104.4398
0
VERTEX
8
CUT
10
199.2901
20
104.4282
0
VERTEX
8
CUT
10
199.2754
20
104.4262
0
VERTEX
8
CUT
10
198.8474
20
104.3631
0
VERTEX
8
CUT
10
198.8312
20
104.3605
0
VERTEX
8
CUT
10
198.7261
20
104.3421
0
VERTEX
8
CUT
10
198.7100
20
104.3390
0
VERTEX
8
CUT
10
198.5787
20
104.3123
0
VERTEX
8
CUT
10
198.5627
20
104.3088
0
VERTEX
8
CUT
10
198.4587
20
104.2846
0
VERTEX
8
CUT
10
198.4428
20
104.2807
0
VERTEX
8
CUT
10
190.8234
20
102.2887
0
VERTEX
8
CUT
10
190.8071
20
102.2842
0
VERTEX
8
CUT
10
190.7017
20
102.2534
0
VERTEX
8
CUT
10
190.6856
20
102.2485
0
VERTEX
8
CUT
10
190.6228
20
102.2283
0
VERTEX
8
CUT
10
190.5910
20
102.2170
0
VERTEX
8
CUT
10
190.3891
20
102.1391
0
VERTEX
8
CUT
10
190.3276
20
102.1113
0
VERTEX
8
CUT
10
190.1357
20
102.0111
0
VERTEX
8
CUT
10
190.1063
20
101.9947
0
VERTEX
8
CUT
10
190.0496
20
101.9610
0
VERTEX
8
CUT
10
190.0353
20
101.9521
0
VERTEX
8
CUT
10
189.9426
20
101.8933
0
VERTEX
8
CUT
10
189.9284
20
101.8841
0
VERTEX
8
CUT
10
187.8864
20
100.5063
0
VERTEX
8
CUT
10
187.8723
20
100.4964
0
VERTEX
8
CUT
10
187.7810
20
100.4309
0
VERTEX
8
CUT
10
187.7671
20
100.4206
0
VERTEX
8
CUT
10
187.7134
20
100.3798
0
VERTEX
8
CUT
10
187.6865
20
100.3580
0
VERTEX
8
CUT
10
187.5161
20
100.2119
0
VERTEX
8
CUT
10
187.4905
20
100.1886
0
VERTEX
8
CUT
10
187.4419
20
100.1418
0
VERTEX
8
CUT
10
187.4296
20
100.1297
0
VERTEX
8
CUT
10
187.3510
20
100.0494
0
VERTEX
8
CUT
10
187.3391
20
100.0369
0
VERTEX
8
CUT
10
186.1158
20
98.7152
0
VERTEX
8
CUT
10
186.1069
20
98.7053
0
VERTEX
8
CUT
10
186.0492
20
98.6401
0
VERTEX
8
CUT
10
186.0405
20
98.6300
0
VERTEX
8
CUT
10
186.0067
20
98.5901
0
VERTEX
8
CUT
10
185.9899
20
98.5693
0
VERTEX
8
CUT
10
185.8851
20
98.4335
0
VERTEX
8
CUT
10
185.8543
20
98.3898
0
VERTEX
8
CUT
10
185.7632
20
98.2472
0
VERTEX
8
CUT
10
185.7365
20
98.2008
0
VERTEX
8
CUT
10
185.6574
20
98.0486
0
VERTEX
8
CUT
10
185.6456
20
98.0246
0
VERTEX
8
CUT
10
185.6236
20
97.9772
0
VERTEX
8
CUT
10
185.6181
20
97.9650
0
VERTEX
8
CUT
10
185.5833
20
97.8853
0
VERTEX
8
CUT
10
185.5780
20
97.8730
0
VERTEX
8
CUT
10
185.1159
20
96.7484
0
VERTEX
8
CUT
10
185.1101
20
96.7338
0
VERTEX
8
CUT
10
185.0737
20
96.6382
0
VERTEX
8
CUT
10
185.0683
20
96.6234
0
VERTEX
8
CUT
10
185.0480
20
96.5654
0
VERTEX
8
CUT
10
185.0384
20
96.5355
0
VERTEX
8
CUT
10
184.9817
20
96.3419
0
VERTEX
8
CUT
10
184.9672
20
96.2807
0
VERTEX
8
CUT
10
184.9311
20
96.0823
0
VERTEX
8
CUT
10
184.9262
20
96.0512
0
VERTEX
8
CUT
10
184.9184
20
95.9902
0
VERTEX
8
CUT
10
184.9166
20
95.9746
0
VERTEX
8
CUT
10
184.9063
20
95.8728
0
VERTEX
8
CUT
10
184.9049
20
95.8571
0
VERTEX
8
CUT
10
184.8617
20
95.2835
0
VERTEX
8
CUT
10
184.8606
20
95.2652
0
VERTEX
8
CUT
10
184.8553
20
95.1458
0
VERTEX
8
CUT
10
184.8548
20
95.1274
0
VERTEX
8
CUT
10
184.8538
20
95.0557
0
VERTEX
8
CUT
10
184.8544
20
95.0189
0
VERTEX
8
CUT
10
184.8658
20
94.7804
0
VERTEX
8
CUT
10
184.8687
20
94.7437
0
VERTEX
8
CUT
10
184.8764
20
94.6724
0
VERTEX
8
CUT
10
184.8787
20
94.6542
0
VERTEX
8
CUT
10
184.8953
20
94.5358
0
VERTEX
8
CUT
10
184.8982
20
94.5177
0
VERTEX
8
CUT
10
184.9872
20
93.9997
0
VERTEX
8
CUT
10
184.9899
20
93.9850
0
VERTEX
8
CUT
10
185.0088
20
93.8892
0
VERTEX
8
CUT
10
185.0119
20
93.8745
0
VERTEX
8
CUT
10
185.0247
20
93.8172
0
VERTEX
8
CUT
10
185.0320
20
93.7881
0
VERTEX
8
CUT
10
185.0834
20
93.6025
0
VERTEX
8
CUT
10
185.1024
20
93.5455
0
VERTEX
8
CUT
10
185.1721
20
93.3660
0
VERTEX
8
CUT
10
185.1837
20
93.3383
0
VERTEX
8
CUT
10
185.2076
20
93.2847
0
VERTEX
8
CUT
10
185.2139
20
93.2711
0
VERTEX
8
CUT
10
185.2560
20
93.1830
0
VERTEX
8
CUT
10
185.2626
20
93.1695
0
VERTEX
8
CUT
10
185.9234
20
91.8708
0
VERTEX
8
CUT
10
185.9302
20
91.8578
0
VERTEX
8
CUT
10
185.9754
20
91.7741
0
VERTEX
8
CUT
10
185.9825
20
91.7613
0
VERTEX
8
CUT
10
186.0109
20
91.7117
0
VERTEX
8
CUT
10
186.0260
20
91.6866
0
VERTEX
8
CUT
10
186.1284
20
91.5263
0
VERTEX
8
CUT
10
186.1448
20
91.5020
0
VERTEX
8
CUT
10
186.1778
20
91.4554
0
VERTEX
8
CUT
10
186.1864
20
91.4436
0
VERTEX
8
CUT
10
186.2434
20
91.3674
0
VERTEX
8
CUT
10
186.2523
20
91.3557
0
VERTEX
8
CUT
10
188.5046
20
88.4885
0
VERTEX
8
CUT
10
188.5106
20
88.4808
0
VERTEX
8
CUT
10
188.5204
20
88.4680
0
VERTEX
8
CUT
10
188.5435
20
88.4366
0
VERTEX
8
CUT
10
188.5727
20
88.3949
0
VERTEX
8
CUT
10
188.6096
20
88.3378
0
VERTEX
8
CUT
10
188.6445
20
88.2791
0
VERTEX
8
CUT
10
188.6771
20
88.2194
0
VERTEX
8
CUT
10
188.6997
20
88.1738
0
VERTEX
8
CUT
10
188.7162
20
88.1386
0
VERTEX
8
CUT
10
188.7228
20
88.1238
0
VERTEX
8
CUT
10
188.7267
20
88.1149
0
VERTEX
8
CUT
10
189.2420
20
86.9184
0
VERTEX
8
CUT
10
189.2462
20
86.9084
0
VERTEX
8
CUT
10
189.2499
20
86.8996
0
VERTEX
8
CUT
10
189.2715
20
86.8421
0
VERTEX
8
CUT
10
189.3002
20
86.7575
0
VERTEX
8
CUT
10
189.3272
20
86.6600
0
VERTEX
8
CUT
10
189.3414
20
86.5941
0
VERTEX
8
CUT
10
189.3573
20
86.4942
0
VERTEX
8
CUT
10
189.3663
20
86.4053
0
VERTEX
8
CUT
10
189.3705
20
86.3440
0
VERTEX
8
CUT
10
189.3708
20
86.3345
0
VERTEX
8
CUT
10
189.3711
20
86.3237
0
VERTEX
8
CUT
10
189.3893
20
85.4470
0
VERTEX
8
CUT
10
189.3895
20
85.4354
0
VERTEX
8
CUT
10
189.3897
20
85.4161
0
VERTEX
8
CUT
10
189.3888
20
85.3695
0
VERTEX
8
CUT
10
189.3862
20
85.3087
0
VERTEX
8
CUT
10
189.3789
20
85.2276
0
VERTEX
8
CUT
10
189.3680
20
85.1467
0
VERTEX
8
CUT
10
189.3535
20
85.0666
0
VERTEX
8
CUT
10
189.3399
20
85.0073
0
VERTEX
8
CUT
10
189.3283
20
84.9622
0
VERTEX
8
CUT
10
189.3231
20
84.9436
0
VERTEX
8
CUT
10
189.3198
20
84.9324
0
VERTEX
8
CUT
10
189.2488
20
84.6938
0
VERTEX
8
CUT
10
189.2450
20
84.6815
0
VERTEX
8
CUT
10
189.2386
20
84.6611
0
VERTEX
8
CUT
10
189.2218
20
84.6124
0
VERTEX
8
CUT
10
189.1980
20
84.5494
0
VERTEX
8
CUT
10
189.1620
20
84.4668
0
VERTEX
8
CUT
10
189.1218
20
84.3859
0
VERTEX
8
CUT
10
189.0777
20
84.3073
0
VERTEX
8
CUT
10
189.0418
20
84.2503
0
VERTEX
8
CUT
10
189.0132
20
84.2075
0
VERTEX
8
CUT
10
189.0008
20
84.1900
0
VERTEX
8
CUT
10
188.9932
20
84.1796
0
VERTEX
8
CUT
10
188.0103
20
82.8398
0
VERTEX
8
CUT
10
188.0032
20
82.8303
0
VERTEX
8
CUT
10
187.9932
20
82.8169
0
VERTEX
8
CUT
10
187.9596
20
82.7751
0
VERTEX
8
CUT
10
187.9122
20
82.7194
0
VERTEX
8
CUT
10
187.8552
20
82.6585
0
VERTEX
8
CUT
10
187.8155
20
82.6198
0
VERTEX
8
CUT
10
187.7532
20
82.5645
0
VERTEX
8
CUT
10
187.7100
20
82.5296
0
VERTEX
8
CUT
10
187.6429
20
82.4803
0
VERTEX
8
CUT
10
187.5819
20
82.4397
0
VERTEX
8
CUT
10
187.5365
20
82.4114
0
VERTEX
8
CUT
10
187.5220
20
82.4030
0
VERTEX
8
CUT
10
187.5117
20
82.3971
0
VERTEX
8
CUT
10
186.7411
20
81.9616
0
VERTEX
8
CUT
10
186.7295
20
81.9551
0
VERTEX
8
CUT
10
186.7101
20
81.9446
0
VERTEX
8
CUT
10
186.6627
20
81.9205
0
VERTEX
8
CUT
10
186.5813
20
81.8821
0
VERTEX
8
CUT
10
186.5449
20
81.8659
0
VERTEX
8
CUT
10
186.5412
20
81.8644
0
VERTEX
8
CUT
10
186.5041
20
81.8498
0
VERTEX
8
CUT
10
186.4196
20
81.8188
0
VERTEX
8
CUT
10
186.3692
20
81.8019
0
VERTEX
8
CUT
10
186.3481
20
81.7956
0
VERTEX
8
CUT
10
186.3353
20
81.7918
0
VERTEX
8
CUT
10
185.8233
20
81.6456
0
VERTEX
8
CUT
10
185.8123
20
81.6426
0
VERTEX
8
CUT
10
185.7940
20
81.6376
0
VERTEX
8
CUT
10
185.7495
20
81.6267
0
VERTEX
8
CUT
10
185.6739
20
81.6102
0
VERTEX
8
CUT
10
185.6402
20
81.6036
0
VERTEX
8
CUT
10
185.6367
20
81.6029
0
VERTEX
8
CUT
10
185.6028
20
81.5976
0
VERTEX
8
CUT
10
185.5261
20
81.5869
0
VERTEX
8
CUT
10
185.4807
20
81.5817
0
VERTEX
8
CUT
10
185.4618
20
81.5801
0
VERTEX
8
CUT
10
185.4504
20
81.5791
0
VERTEX
8
CUT
10
179.9442
20
81.1662
0
VERTEX
8
CUT
10
179.9309
20
81.1650
0
VERTEX
8
CUT
10
179.8440
20
81.1565
0
VERTEX
8
CUT
10
179.8307
20
81.1551
0
VERTEX
8
CUT
10
179.7219
20
81.1420
0
VERTEX
8
CUT
10
179.7086
20
81.1403
0
VERTEX
8
CUT
10
179.6223
20
81.1279
0
VERTEX
8
CUT
10
179.6090
20
81.1259
0
VERTEX
8
CUT
10
177.7295
20
80.8141
0
VERTEX
8
CUT
10
177.7163
20
80.8118
0
VERTEX
8
CUT
10
177.6311
20
80.7957
0
VERTEX
8
CUT
10
177.6181
20
80.7931
0
VERTEX
8
CUT
10
177.5671
20
80.7823
0
VERTEX
8
CUT
10
177.5411
20
80.7762
0
VERTEX
8
CUT
10
177.3755
20
80.7333
0
VERTEX
8
CUT
10
177.3245
20
80.7177
0
VERTEX
8
CUT
10
177.1635
20
80.6603
0
VERTEX
8
CUT
10
177.1385
20
80.6508
0
VERTEX
8
CUT
10
177.0903
20
80.6311
0
VERTEX
8
CUT
10
177.0780
20
80.6260
0
VERTEX
8
CUT
10
176.9984
20
80.5915
0
VERTEX
8
CUT
10
176.9862
20
80.5861
0
VERTEX
8
CUT
10
175.5162
20
79.9098
0
VERTEX
8
CUT
10
175.4974
20
79.9008
0
VERTEX
8
CUT
10
175.3764
20
79.8399
0
VERTEX
8
CUT
10
175.3580
20
79.8303
0
VERTEX
8
CUT
10
175.2089
20
79.7487
0
VERTEX
8
CUT
10
175.1908
20
79.7384
0
VERTEX
8
CUT
10
175.0743
20
79.6693
0
VERTEX
8
CUT
10
175.0566
20
79.6583
0
VERTEX
8
CUT
10
173.0961
20
78.4014
0
VERTEX
8
CUT
10
173.0880
20
78.3962
0
VERTEX
8
CUT
10
173.0690
20
78.3843
0
VERTEX
8
CUT
10
173.0609
20
78.3793
0
VERTEX
8
CUT
10
173.0509
20
78.3732
0
VERTEX
8
CUT
10
173.0426
20
78.3682
0
VERTEX
8
CUT
10
173.0234
20
78.3567
0
VERTEX
8
CUT
10
173.0151
20
78.3518
0
VERTEX
8
CUT
10
173.0004
20
78.3433
0
VERTEX
8
CUT
10
172.9921
20
78.3385
0
VERTEX
8
CUT
10
172.9726
20
78.3274
0
VERTEX
8
CUT
10
172.9642
20
78.3227
0
VERTEX
8
CUT
10
172.9539
20
78.3170
0
VERTEX
8
CUT
10
172.9455
20
78.3124
0
VERTEX
8
CUT
10
172.9258
20
78.3018
0
VERTEX
8
CUT
10
172.9173
20
78.2972
0
VERTEX
8
CUT
10
172.1942
20
77.9164
0
VERTEX
8
CUT
10
172.1815
20
77.9095
0
VERTEX
8
CUT
10
172.0993
20
77.8637
0
VERTEX
8
CUT
10
172.0868
20
77.8565
0
VERTEX
8
CUT
10
172.0381
20
77.8278
0
VERTEX
8
CUT
10
172.0136
20
77.8125
0
VERTEX
8
CUT
10
171.8586
20
77.7106
0
VERTEX
8
CUT
10
171.8118
20
77.6766
0
VERTEX
8
CUT
10
171.6693
20
77.5619
0
VERTEX
8
CUT
10
171.6260
20
77.5235
0
VERTEX
8
CUT
10
171.4952
20
77.3956
0
VERTEX
8
CUT
10
171.4559
20
77.3532
0
VERTEX
8
CUT
10
171.3380
20
77.2133
0
VERTEX
8
CUT
10
171.3029
20
77.1673
0
VERTEX
8
CUT
10
171.1991
20
77.0168
0
VERTEX
8
CUT
10
171.1686
20
76.9676
0
VERTEX
8
CUT
10
171.0797
20
76.8077
0
VERTEX
8
CUT
10
171.0541
20
76.7558
0
VERTEX
8
CUT
10
170.9810
20
76.5881
0
VERTEX
8
CUT
10
170.9605
20
76.5341
0
VERTEX
8
CUT
10
170.9039
20
76.3601
0
VERTEX
8
CUT
10
170.8887
20
76.3043
0
VERTEX
8
CUT
10
170.8492
20
76.1257
0
VERTEX
8
CUT
10
170.8394
20
76.0687
0
VERTEX
8
CUT
10
170.8173
20
75.8871
0
VERTEX
8
CUT
10
170.8130
20
75.8294
0
SEQEND
0
POLYLINE
8
CUT
66
1
70
1
10
0.0
20
0.0
30
0.0
0
VERTEX
8
CUT
10
146.1184
20
112.7446
0
VERTEX
8
CUT
10
146.1182
20
112.6866
0
VERTEX
8
CUT
10
146.1264
20
112.5034
0
VERTEX
8
CUT
10
146.1318
20
112.4456
0
VERTEX
8
CUT
10
146.1577
20
112.2641
0
VERTEX
8
CUT
10
146.1686
20
112.2072
0
VERTEX
8
CUT
10
146.2118
20
112.0290
0
VERTEX
8
CUT
10
146.2282
20
111.9733
0
VERTEX
8
CUT
10
146.2885
20
111.8002
0
VERTEX
8
CUT
10
146.3102
20
111.7464
0
VERTEX
8
CUT
10
146.3869
20
111.5798
0
VERTEX
8
CUT
10
146.4137
20
111.5284
0
VERTEX
8
CUT
10
146.5061
20
111.3700
0
VERTEX
8
CUT
10
146.5377
20
111.3214
0
VERTEX
8
CUT
10
146.6450
20
111.1727
0
VERTEX
8
CUT
10
146.6811
20
111.1273
0
VERTEX
8
CUT
10
146.8023
20
110.9897
0
VERTEX
8
CUT
10
146.8426
20
110.9480
0
VERTEX
8
CUT
10
146.9765
20
110.8227
0
VERTEX
8
CUT
10
147.0207
20
110.7852
0
VERTEX
8
CUT
10
147.1660
20
110.6734
0
VERTEX
8
CUT
10
147.2137
20
110.6403
0
VERTEX
8
CUT
10
147.3691
20
110.5430
0
VERTEX
8
CUT
10
147.4197
20
110.5147
0
VERTEX
8
CUT
10
147.5838
20
110.4329
0
VERTEX
8
CUT
10
147.6369
20
110.4095
0
VERTEX
8
CUT
10
147.8082
20
110.3440
0
VERTEX
8
CUT
10
147.8633
20
110.3259
0
VERTEX
8
CUT
10
148.0401
20
110.2772
0
VERTEX
8
CUT
10
148.0966
20
110.2645
0
VERTEX
8
CUT
10
148.2773
20
110.2330
0
VERTEX
8
CUT
10
148.3349
20
110.2259
0
VERTEX
8
CUT
10
148.5177
20
110.2120
0
VERTEX
8
CUT
10
148.5757
20
110.2105
0
VERTEX
8
CUT
10
148.7590
20
110.2143
0
VERTEX
8
CUT
10
148.8169
20
110.2184
0
VERTEX
8
CUT
10
148.9989
20
110.2399
0
VERTEX
8
CUT
10
149.0561
20
110.2495
0
VERTEX
8
CUT
10
149.2353
20
110.2886
0
VERTEX
8
CUT
10
149.2913
20
110.3036
0
VERTEX
8
CUT
10
149.4683
20
110.3606
0
VERTEX
8
CUT
10
149.4957
20
110.3701
0
VERTEX
8
CUT
10
149.5487
20
110.3900
0
VERTEX
8
CUT
10
149.5622
20
110.3953
0
VERTEX
8
CUT
10
149.6496
20
110.4306
0
VERTEX
8
CUT
10
149.6630
20
110.4362
0
VERTEX
8
CUT
10
152.5817
20
111.6977
0
VERTEX
8
CUT
10
152.5894
20
111.7011
0
VERTEX
8
CUT
10
152.6428
20
111.7251
0
VERTEX
8
CUT
10
152.6510
20
111.7288
0
VERTEX
8
CUT
10
152.7172
20
111.7597
0
VERTEX
8
CUT
10
152.7252
20
111.7636
0
VERTEX
8
CUT
10
152.7771
20
111.7888
0
VERTEX
8
CUT
10
152.7856
20
111.7930
0
VERTEX
8
CUT
10
158.4053
20
114.6306
0
VERTEX
8
CUT
10
158.4182
20
114.6373
0
VERTEX
8
CUT
10
158.5010
20
114.6816
0
VERTEX
8
CUT
10
158.5137
20
114.6886
0
VERTEX
8
CUT
10
158.5628
20
114.7165
0
VERTEX
8
CUT
10
158.5876
20
114.7314
0
VERTEX
8
CUT
10
158.7443
20
114.8305
0
VERTEX
8
CUT
10
158.7916
20
114.8637
0
VERTEX
8
CUT
10
158.9360
20
114.9759
0
VERTEX
8
CUT
10
158.9800
20
115.0135
0
VERTEX
8
CUT
10
159.1129
20
115.1391
0
VERTEX
8
CUT
10
159.1530
20
115.1808
0
VERTEX
8
CUT
10
159.2732
20
115.3186
0
VERTEX
8
CUT
10
159.3091
20
115.3639
0
VERTEX
8
CUT
10
159.4155
20
115.5126
0
VERTEX
8
CUT
10
159.4468
20
115.5612
0
VERTEX
8
CUT
10
159.5384
20
115.7195
0
VERTEX
8
CUT
10
159.5649
20
115.7709
0
VERTEX
8
CUT
10
159.6409
20
115.9373
0
VERTEX
8
CUT
10
159.6623
20
115.9910
0
VERTEX
8
CUT
10
159.7219
20
116.1639
0
VERTEX
8
CUT
10
159.7380
20
116.2194
0
VERTEX
8
CUT
10
159.7807
20
116.3972
0
VERTEX
8
CUT
10
159.7914
20
116.4540
0
VERTEX
8
CUT
10
159.8167
20
116.6351
0
VERTEX
8
CUT
10
159.8220
20
116.6927
0
VERTEX
8
CUT
10
159.8297
20
116.8754
0
VERTEX
8
CUT
10
159.8294
20
116.9333
0
VERTEX
8
CUT
10
159.8195
20
117.1158
0
VERTEX
8
CUT
10
159.8136
20
117.1734
0
VERTEX
8
CUT
10
159.7862
20
117.3542
0
VERTEX
8
CUT
10
159.7748
20
117.4109
0
VERTEX
8
CUT
10
159.7301
20
117.5882
0
VERTEX
8
CUT
10
159.7133
20
117.6435
0
VERTEX
8
CUT
10
159.6518
20
117.8157
0
VERTEX
8
CUT
10
159.6297
20
117.8692
0
VERTEX
8
CUT
10
159.5519
20
118.0346
0
VERTEX
8
CUT
10
159.5247
20
118.0857
0
VERTEX
8
CUT
10
159.4313
20
118.2429
0
VERTEX
8
CUT
10
159.3994
20
118.2912
0
VERTEX
8
CUT
10
159.2913
20
118.4386
0
VERTEX
8
CUT
10
159.2549
20
118.4836
0
VERTEX
8
CUT
10
159.1331
20
118.6200
0
VERTEX
8
CUT
10
159.0925
20
118.6612
0
VERTEX
8
CUT
10
158.9582
20
118.7852
0
VERTEX
8
CUT
10
158.9138
20
118.8223
0
VERTEX
8
CUT
10
158.7681
20
118.9328
0
VERTEX
8
CUT
10
158.7204
20
118.9655
0
VERTEX
8
CUT
10
158.5626
20
119.0628
0
VERTEX
8
CUT
10
158.5376
20
119.0774
0
VERTEX
8
CUT
10
158.4882
20
119.1047
0
VERTEX
8
CUT
10
158.4754
20
119.1115
0
VERTEX
8
CUT
10
158.3921
20
119.1550
0
VERTEX
8
CUT
10
158.3792
20
119.1615
0
VERTEX
8
CUT
10
156.3789
20
120.1427
0
VERTEX
8
CUT
10
156.3680
20
120.1482
0
VERTEX
8
CUT
10
156.3500
20
120.1573
0
VERTEX
8
CUT
10
156.3074
20
120.1804
0
VERTEX
8
CUT
10
156.2362
20
120.2214
0
VERTEX
8
CUT
10
156.2051
20
120.2403
0
VERTEX
8
CUT
10
156.2019
20
120.2423
0
VERTEX
8
CUT
10
156.1716
20
120.2623
0
VERTEX
8
CUT
10
156.1040
20
120.3090
0
VERTEX
8
CUT
10
156.0648
20
120.3376
0
VERTEX
8
CUT
10
156.0489
20
120.3500
0
VERTEX
8
CUT
10
156.0393
20
120.3574
0
VERTEX
8
CUT
10
154.1346
20
121.8717
0
VERTEX
8
CUT
10
154.1251
20
121.8793
0
VERTEX
8
CUT
10
154.1031
20
121.8973
0
VERTEX
8
CUT
10
154.0938
20
121.9051
0
VERTEX
8
CUT
10
154.0824
20
121.9147
0
VERTEX
8
CUT
10
154.0731
20
121.9226
0
VERTEX
8
CUT
10
154.0516
20
121.9411
0
VERTEX
8
CUT
10
154.0424
20
121.9492
0
VERTEX
8
CUT
10
154.0263
20
121.9635
0
VERTEX
8
CUT
10
154.0172
20
121.9716
0
VERTEX
8
CUT
10
153.9962
20
121.9908
0
VERTEX
8
CUT
10
153.9873
20
121.9991
0
VERTEX
8
CUT
10
153.9764
20
122.0092
0
VERTEX
8
CUT
10
153.9676
20
122.0176
0
VERTEX
8
CUT
10
153.9471
20
122.0373
0
VERTEX
8
CUT
10
153.9384
20
122.0458
0
VERTEX
8
CUT
10
152.6889
20
123.2818
0
VERTEX
8
CUT
10
152.6785
20
123.2919
0
VERTEX
8
CUT
10
152.6099
20
123.3565
0
VERTEX
8
CUT
10
152.5992
20
123.3664
0
VERTEX
8
CUT
10
152.5571
20
123.4042
0
VERTEX
8
CUT
10
152.5351
20
123.4230
0
VERTEX
8
CUT
10
152.3910
20
123.5403
0
VERTEX
8
CUT
10
152.3443
20
123.5747
0
VERTEX
8
CUT
10
152.1916
20
123.6762
0
VERTEX
8
CUT
10
152.1419
20
123.7059
0
VERTEX
8
CUT
10
151.9801
20
123.7922
0
VERTEX
8
CUT
10
151.9277
20
123.8170
0
VERTEX
8
CUT
10
151.7584
20
123.8872
0
VERTEX
8
CUT
10
151.7039
20
123.9068
0
VERTEX
8
CUT
10
151.5286
20
123.9604
0
VERTEX
8
CUT
10
151.4724
20
123.9746
0
VERTEX
8
CUT
10
151.2928
20
124.0111
0
VERTEX
8
CUT
10
151.2355
20
124.0198
0
VERTEX
8
CUT
10
151.0532
20
124.0387
0
VERTEX
8
CUT
10
150.9953
20
124.0419
0
VERTEX
8
CUT
10
150.8120
20
124.0431
0
VERTEX
8
CUT
10
150.7541
20
124.0407
0
VERTEX
8
CUT
10
150.5715
20
124.0243
0
VERTEX
8
CUT
10
150.5141
20
124.0163
0
VERTEX
8
CUT
10
150.3340
20
123.9823
0
VERTEX
8
CUT
10
150.2776
20
123.9688
0
VERTEX
8
CUT
10
150.1016
20
123.9175
0
VERTEX
8
CUT
10
150.0468
20
123.8987
0
VERTEX
8
CUT
10
149.8766
20
123.8307
0
VERTEX
8
CUT
10
149.8239
20
123.8066
0
VERTEX
8
CUT
10
149.6610
20
123.7225
0
VERTEX
8
CUT
10
149.6109
20
123.6935
0
VERTEX
8
CUT
10
149.4569
20
123.5941
0
VERTEX
8
CUT
10
149.4097
20
123.5603
0
VERTEX
8
CUT
10
149.2661
20
123.4465
0
VERTEX
8
CUT
10
149.2224
20
123.4084
0
VERTEX
8
CUT
10
149.0904
20
123.2812
0
VERTEX
8
CUT
10
149.0506
20
123.2390
0
VERTEX
8
CUT
10
148.9315
20
123.0997
0
VERTEX
8
CUT
10
148.8960
20
123.0539
0
VERTEX
8
CUT
10
148.7908
20
122.9038
0
VERTEX
8
CUT
10
148.7599
20
122.8547
0
VERTEX
8
CUT
10
148.6698
20
122.6952
0
VERTEX
8
CUT
10
148.6437
20
122.6434
0
VERTEX
8
CUT
10
148.5694
20
122.4758
0
VERTEX
8
CUT
10
148.5485
20
122.4218
0
VERTEX
8
CUT
10
148.4907
20
122.2478
0
VERTEX
8
CUT
10
148.4750
20
122.1920
0
VERTEX
8
CUT
10
148.4343
20
122.0133
0
VERTEX
8
CUT
10
148.4241
20
121.9562
0
VERTEX
8
CUT
10
148.4008
20
121.7744
0
VERTEX
8
CUT
10
148.3962
20
121.7166
0
VERTEX
8
CUT
10
148.3905
20
121.5334
0
VERTEX
8
CUT
10
148.3916
20
121.4755
0
VERTEX
8
CUT
10
148.4036
20
121.2926
0
VERTEX
8
CUT
10
148.4102
20
121.2350
0
VERTEX
8
CUT
10
148.4398
20
121.0541
0
VERTEX
8
CUT
10
148.4519
20
120.9974
0
VERTEX
8
CUT
10
148.4995
20
120.8178
0
VERTEX
8
CUT
10
148.5076
20
120.7900
0
VERTEX
8
CUT
10
148.5248
20
120.7360
0
VERTEX
8
CUT
10
148.5293
20
120.7222
0
VERTEX
8
CUT
10
148.5600
20
120.6331
0
VERTEX
8
CUT
10
148.5649
20
120.6195
0
VERTEX
8
CUT
10
148.6405
20
120.4159
0
VERTEX
8
CUT
10
148.6448
20
120.4042
0
VERTEX
8
CUT
10
148.6517
20
120.3848
0
VERTEX
8
CUT
10
148.6670
20
120.3376
0
VERTEX
8
CUT
10
148.6908
20
120.2569
0
VERTEX
8
CUT
10
148.7006
20
120.2210
0
VERTEX
8
CUT
10
148.7015
20
120.2172
0
VERTEX
8
CUT
10
148.7098
20
120.1809
0
VERTEX
8
CUT
10
148.7268
20
120.0986
0
VERTEX
8
CUT
10
148.7356
20
120.0497
0
VERTEX
8
CUT
10
148.7386
20
120.0293
0
VERTEX
8
CUT
10
148.7404
20
120.0170
0
VERTEX
8
CUT
10
149.0701
20
117.5887
0
VERTEX
8
CUT
10
149.0716
20
117.5764
0
VERTEX
8
CUT
10
149.0741
20
117.5561
0
VERTEX
8
CUT
10
149.0787
20
117.5069
0
VERTEX
8
CUT
10
149.0830
20
117.4425
0
VERTEX
8
CUT
10
149.0846
20
117.3561
0
VERTEX
8
CUT
10
149.0820
20
117.2695
0
VERTEX
8
CUT
10
149.0753
20
117.1834
0
VERTEX
8
CUT
10
149.0672
20
117.1193
0
VERTEX
8
CUT
10
149.0597
20
117.0705
0
VERTEX
8
CUT
10
149.0560
20
117.0503
0
VERTEX
8
CUT
10
149.0537
20
117.0382
0
VERTEX
8
CUT
10
148.9650
20
116.5873
0
VERTEX
8
CUT
10
148.9547
20
116.5417
0
VERTEX
8
CUT
10
148.9339
20
116.4587
0
VERTEX
8
CUT
10
148.9065
20
116.3695
0
VERTEX
8
CUT
10
148.8851
20
116.3111
0
VERTEX
8
CUT
10
148.8486
20
116.2252
0
VERTEX
8
CUT
10
148.8214
20
116.1693
0
VERTEX
8
CUT
10
148.7761
20
116.0876
0
VERTEX
8
CUT
10
148.7432
20
116.0349
0
VERTEX
8
CUT
10
148.6897
20
115.9583
0
VERTEX
8
CUT
10
148.6516
20
115.9093
0
VERTEX
8
CUT
10
148.5904
20
115.8387
0
VERTEX
8
CUT
10
148.5474
20
115.7938
0
VERTEX
8
CUT
10
148.4793
20
115.7299
0
VERTEX
8
CUT
10
148.4139
20
115.6747
0
VERTEX
8
CUT
10
148.3775
20
115.6455
0
VERTEX
8
CUT
10
147.4127
20
114.9126
0
VERTEX
8
CUT
10
147.4039
20
114.9060
0
VERTEX
8
CUT
10
147.3833
20
114.8907
0
VERTEX
8
CUT
10
147.3744
20
114.8842
0
VERTEX
8
CUT
10
147.3675
20
114.8792
0
VERTEX
8
CUT
10
147.3539
20
114.8696
0
VERTEX
8
CUT
10
147.3220
20
114.8474
0
VERTEX
8
CUT
10
147.3082
20
114.8381
0
VERTEX
8
CUT
10
147.2931
20
114.8280
0
VERTEX
8
CUT
10
147.2873
20
114.8241
0
VERTEX
8
CUT
10
147.2064
20
114.7687
0
VERTEX
8
CUT
10
147.1827
20
114.7516
0
VERTEX
8
CUT
10
147.0346
20
114.6394
0
VERTEX
8
CUT
10
146.9901
20
114.6022
0
VERTEX
8
CUT
10
146.8554
20
114.4779
0
VERTEX
8
CUT
10
146.8147
20
114.4365
0
VERTEX
8
CUT
10
146.6926
20
114.2997
0
VERTEX
8
CUT
10
146.6561
20
114.2547
0
VERTEX
8
CUT
10
146.5477
20
114.1067
0
VERTEX
8
CUT
10
146.5158
20
114.0583
0
VERTEX
8
CUT
10
146.4222
20
113.9006
0
VERTEX
8
CUT
10
146.3951
20
113.8494
0
VERTEX
8
CUT
10
146.3172
20
113.6834
0
VERTEX
8
CUT
10
146.2951
20
113.6297
0
VERTEX
8
CUT
10
146.2336
20
113.4570
0
VERTEX
8
CUT
10
146.2168
20
113.4015
0
VERTEX
8
CUT
10
146.1723
20
113.2236
0
VERTEX
8
CUT
10
146.1609
20
113.1667
0
VERTEX
8
CUT
10
146.1337
20
112.9854
0
VERTEX
8
CUT
10
146.1279
20
112.9277
0
SEQEND
0
POLYLINE
8
CUT
66
1
70
1
10
0.0
20
0.0
30
0.0
0
VERTEX
8
CUT
10
111.8014
20
130.9620
0
VERTEX
8
CUT
10
111.8016
20
130.9028
0
VERTEX
8
CUT
10
111.8114
20
130.7160
0
VERTEX
8
CUT
10
111.8175
20
130.6571
0
VERTEX
8
CUT
10
111.8457
20
130.4721
0
VERTEX
8
CUT
10
111.8575
20
130.4141
0
VERTEX
8
CUT
10
111.9038
20
130.2328
0
VERTEX
8
CUT
10
111.9213
20
130.1762
0
VERTEX
8
CUT
10
111.9861
20
129.9979
0
VERTEX
8
CUT
10
111.9969
20
129.9704
0
VERTEX
8
CUT
10
112.0194
20
129.9171
0
VERTEX
8
CUT
10
112.0253
20
129.9035
0
VERTEX
8
CUT
10
112.0648
20
129.8158
0
VERTEX
8
CUT
10
112.0710
20
129.8024
0
VERTEX
8
CUT
10
116.3788
20
120.8280
0
VERTEX
8
CUT
10
116.3853
20
120.8148
0
VERTEX
8
CUT
10
116.4288
20
120.7297
0
VERTEX
8
CUT
10
116.4357
20
120.7166
0
VERTEX
8
CUT
10
116.4929
20
120.6111
0
VERTEX
8
CUT
10
116.5000
20
120.5982
0
VERTEX
8
CUT
10
116.5476
20
120.5153
0
VERTEX
8
CUT
10
116.5551
20
120.5027
0
VERTEX
8
CUT
10
118.7778
20
116.8414
0
VERTEX
8
CUT
10
118.7887
20
116.8242
0
VERTEX
8
CUT
10
118.8609
20
116.7138
0
VERTEX
8
CUT
10
118.8723
20
116.6970
0
VERTEX
8
CUT
10
118.9676
20
116.5616
0
VERTEX
8
CUT
10
118.9796
20
116.5452
0
VERTEX
8
CUT
10
119.0592
20
116.4399
0
VERTEX
8
CUT
10
119.0717
20
116.4239
0
VERTEX
8
CUT
10
120.4041
20
114.7796
0
VERTEX
8
CUT
10
120.4142
20
114.7675
0
VERTEX
8
CUT
10
120.4806
20
114.6899
0
VERTEX
8
CUT
10
120.4910
20
114.6780
0
VERTEX
8
CUT
10
120.5768
20
114.5828
0
VERTEX
8
CUT
10
120.5875
20
114.5712
0
VERTEX
8
CUT
10
120.6578
20
114.4972
0
VERTEX
8
CUT
10
120.6688
20
114.4859
0
VERTEX
8
CUT
10
122.1233
20
113.0327
0
VERTEX
8
CUT
10
122.1371
20
113.0193
0
VERTEX
8
CUT
10
122.2281
20
112.9340
0
VERTEX
8
CUT
10
122.2423
20
112.9211
0
VERTEX
8
CUT
10
122.3598
20
112.8179
0
VERTEX
8
CUT
10
122.3744
20
112.8054
0
VERTEX
8
CUT
10
122.4707
20
112.7261
0
VERTEX
8
CUT
10
122.4857
20
112.7142
0
VERTEX
8
CUT
10
124.0449
20
111.5115
0
VERTEX
8
CUT
10
124.0572
20
111.5022
0
VERTEX
8
CUT
10
124.1376
20
111.4434
0
VERTEX
8
CUT
10
124.1501
20
111.4345
0
VERTEX
8
CUT
10
124.2529
20
111.3633
0
VERTEX
8
CUT
10
124.2657
20
111.3547
0
VERTEX
8
CUT
10
124.3490
20
111.3000
0
VERTEX
8
CUT
10
124.3619
20
111.2918
0
VERTEX
8
CUT
10
126.0228
20
110.2625
0
VERTEX
8
CUT
10
126.0380
20
110.2534
0
VERTEX
8
CUT
10
126.1378
20
110.1956
0
VERTEX
8
CUT
10
126.1533
20
110.1869
0
VERTEX
8
CUT
10
126.2806
20
110.1181
0
VERTEX
8
CUT
10
126.2963
20
110.1099
0
VERTEX
8
CUT
10
126.3994
20
110.0580
0
VERTEX
8
CUT
10
126.4153
20
110.0503
0
VERTEX
8
CUT
10
128.1716
20
109.2310
0
VERTEX
8
CUT
10
128.1835
20
109.2257
0
VERTEX
8
CUT
10
128.2608
20
109.1916
0
VERTEX
8
CUT
10
128.2727
20
109.1865
0
VERTEX
8
CUT
10
128.3197
20
109.1671
0
VERTEX
8
CUT
10
128.3439
20
109.1576
0
VERTEX
8
CUT
10
128.5025
20
109.0997
0
VERTEX
8
CUT
10
128.5271
20
109.0914
0
VERTEX
8
CUT
10
128.5756
20
109.0760
0
VERTEX
8
CUT
10
128.5880
20
109.0722
0
VERTEX
8
CUT
10
128.6691
20
109.0485
0
VERTEX
8
CUT
10
128.6816
20
109.0450
0
VERTEX
8
CUT
10
132.9177
20
107.9038
0
VERTEX
8
CUT
10
132.9315
20
107.9002
0
VERTEX
8
CUT
10
133.0213
20
107.8783
0
VERTEX
8
CUT
10
133.0351
20
107.8751
0
VERTEX
8
CUT
10
133.0894
20
107.8632
0
VERTEX
8
CUT
10
133.1173
20
107.8578
0
VERTEX
8
CUT
10
133.2995
20
107.8268
0
VERTEX
8
CUT
10
133.3276
20
107.8227
0
VERTEX
8
CUT
10
133.3828
20
107.8160
0
VERTEX
8
CUT
10
133.3969
20
107.8145
0
VERTEX
8
CUT
10
133.4889
20
107.8055
0
VERTEX
8
CUT
10
133.5030
20
107.8043
0
VERTEX
8
CUT
10
135.3680
20
107.6669
0
VERTEX
8
CUT
10
135.3866
20
107.6658
0
VERTEX
8
CUT
10
135.5075
20
107.6607
0
VERTEX
8
CUT
10
135.5261
20
107.6602
0
VERTEX
8
CUT
10
135.6780
20
107.6584
0
VERTEX
8
CUT
10
135.6966
20
107.6585
0
VERTEX
8
CUT
10
135.8176
20
107.6609
0
VERTEX
8
CUT
10
135.8362
20
107.6615
0
VERTEX
8
CUT
10
136.7833
20
107.7095
0
VERTEX
8
CUT
10
136.7979
20
107.7104
0
VERTEX
8
CUT
10
136.8931
20
107.7176
0
VERTEX
8
CUT
10
136.9077
20
107.7189
0
VERTEX
8
CUT
10
136.9647
20
107.7246
0
VERTEX
8
CUT
10
136.9939
20
107.7282
0
VERTEX
8
CUT
10
137.1800
20
107.7560
0
VERTEX
8
CUT
10
137.2375
20
107.7676
0
VERTEX
8
CUT
10
137.4175
20
107.8128
0
VERTEX
8
CUT
10
137.4737
20
107.8299
0
VERTEX
8
CUT
10
137.6484
20
107.8926
0
VERTEX
8
CUT
10
137.7026
20
107.9150
0
VERTEX
8
CUT
10
137.8704
20
107.9945
0
VERTEX
8
CUT
10
137.9221
20
108.0221
0
VERTEX
8
CUT
10
138.0813
20
108.1176
0
VERTEX
8
CUT
10
138.1301
20
108.1502
0
VERTEX
8
CUT
10
138.2792
20
108.2607
0
VERTEX
8
CUT
10
138.3246
20
108.2979
0
VERTEX
8
CUT
10
138.4622
20
108.4225
0
VERTEX
8
CUT
10
138.5038
20
108.4640
0
VERTEX
8
CUT
10
138.6285
20
108.6014
0
VERTEX
8
CUT
10
138.6658
20
108.6468
0
VERTEX
8
CUT
10
138.7765
20
108.7957
0
VERTEX
8
CUT
10
138.8092
20
108.8445
0
VERTEX
8
CUT
10
138.9048
20
109.0035
0
VERTEX
8
CUT
10
138.9326
20
109.0553
0
VERTEX
8
CUT
10
139.0122
20
109.2229
0
VERTEX
8
CUT
10
139.0348
20
109.2771
0
VERTEX
8
CUT
10
139.0977
20
109.4517
0
VERTEX
8
CUT
10
139.1148
20
109.5079
0
VERTEX
8
CUT
10
139.1603
20
109.6878
0
VERTEX
8
CUT
10
139.1719
20
109.7454
0
VERTEX
8
CUT
10
139.1996
20
109.9289
0
VERTEX
8
CUT
10
139.2055
20
109.9873
0
VERTEX
8
CUT
10
139.2152
20
110.1726
0
VERTEX
8
CUT
10
139.2154
20
110.2313
0
VERTEX
8
CUT
10
139.2068
20
110.4167
0
VERTEX
8
CUT
10
139.2013
20
110.4752
0
VERTEX
8
CUT
10
139.1747
20
110.6589
0
VERTEX
8
CUT
10
139.1634
20
110.7165
0
VERTEX
8
CUT
10
139.1190
20
110.8967
0
VERTEX
8
CUT
10
139.1022
20
110.9529
0
VERTEX
8
CUT
10
139.0403
20
111.1279
0
VERTEX
8
CUT
10
139.0181
20
111.1823
0
VERTEX
8
CUT
10
138.9395
20
111.3504
0
VERTEX
8
CUT
10
138.9120
20
111.4023
0
VERTEX
8
CUT
10
138.8173
20
111.5619
0
VERTEX
8
CUT
10
138.7850
20
111.6109
0
VERTEX
8
CUT
10
138.6751
20
111.7605
0
VERTEX
8
CUT
10
138.6381
20
111.8061
0
VERTEX
8
CUT
10
138.5142
20
111.9442
0
VERTEX
8
CUT
10
138.4729
20
111.9860
0
VERTEX
8
CUT
10
138.3361
20
112.1113
0
VERTEX
8
CUT
10
138.2909
20
112.1488
0
VERTEX
8
CUT
10
138.1300
20
112.2696
0
VERTEX
8
CUT
10
138.1287
20
112.2706
0
VERTEX
8
CUT
10
138.0471
20
112.3315
0
VERTEX
8
CUT
10
137.9809
20
112.3860
0
VERTEX
8
CUT
10
137.9393
20
112.4237
0
VERTEX
8
CUT
10
137.8791
20
112.4837
0
VERTEX
8
CUT
10
137.8410
20
112.5255
0
VERTEX
8
CUT
10
137.7868
20
112.5909
0
VERTEX
8
CUT
10
137.7527
20
112.6361
0
VERTEX
8
CUT
10
137.7049
20
112.7063
0
VERTEX
8
CUT
10
137.6753
20
112.7545
0
VERTEX
8
CUT
10
137.6343
20
112.8289
0
VERTEX
8
CUT
10
137.6094
20
112.8797
0
VERTEX
8
CUT
10
137.5756
20
112.9577
0
VERTEX
8
CUT
10
137.5555
20
113.0106
0
VERTEX
8
CUT
10
137.5292
20
113.0914
0
VERTEX
8
CUT
10
137.5143
20
113.1459
0
VERTEX
8
CUT
10
137.4957
20
113.2288
0
VERTEX
8
CUT
10
137.4860
20
113.2846
0
VERTEX
8
CUT
10
137.4753
20
113.3689
0
VERTEX
8
CUT
10
137.4709
20
113.4253
0
VERTEX
8
CUT
10
137.4682
20
113.5102
0
VERTEX
8
CUT
10
137.4691
20
113.5667
0
VERTEX
8
CUT
10
137.4745
20
113.6515
0
VERTEX
8
CUT
10
137.4807
20
113.7078
0
VERTEX
8
CUT
10
137.4941
20
113.7917
0
VERTEX
8
CUT
10
137.5099
20
113.8679
0
VERTEX
8
CUT
10
137.5195
20
113.9093
0
VERTEX
8
CUT
10
138.1367
20
116.3057
0
VERTEX
8
CUT
10
138.1399
20
116.3187
0
VERTEX
8
CUT
10
138.1598
20
116.4039
0
VERTEX
8
CUT
10
138.1627
20
116.4171
0
VERTEX
8
CUT
10
138.1735
20
116.4685
0
VERTEX
8
CUT
10
138.1785
20
116.4950
0
VERTEX
8
CUT
10
138.2067
20
116.6676
0
VERTEX
8
CUT
10
138.2105
20
116.6943
0
VERTEX
8
CUT
10
138.2167
20
116.7465
0
VERTEX
8
CUT
10
138.2181
20
116.7599
0
VERTEX
8
CUT
10
138.2264
20
116.8470
0
VERTEX
8
CUT
10
138.2275
20
116.8604
0
VERTEX
8
CUT
10
138.3320
20
118.2976
0
VERTEX
8
CUT
10
138.3327
20
118.3086
0
VERTEX
8
CUT
10
138.3369
20
118.3858
0
VERTEX
8
CUT
10
138.3374
20
118.3973
0
VERTEX
8
CUT
10
138.3391
20
118.4479
0
VERTEX
8
CUT
10
138.3395
20
118.4723
0
VERTEX
8
CUT
10
138.3386
20
118.6244
0
VERTEX
8
CUT
10
138.3380
20
118.6479
0
VERTEX
8
CUT
10
138.3362
20
118.6886
0
VERTEX
8
CUT
10
138.3356
20
118.6996
0
VERTEX
8
CUT
10
138.3308
20
118.7759
0
VERTEX
8
CUT
10
138.3299
20
118.7882
0
VERTEX
8
CUT
10
138.1994
20
120.3377
0
VERTEX
8
CUT
10
138.1984
20
120.3486
0
VERTEX
8
CUT
10
138.1907
20
120.4238
0
VERTEX
8
CUT
10
138.1895
20
120.4350
0
VERTEX
8
CUT
10
138.1835
20
120.4843
0
VERTEX
8
CUT
10
138.1801
20
120.5080
0
VERTEX
8
CUT
10
138.1563
20
120.6551
0
VERTEX
8
CUT
10
138.1522
20
120.6777
0
VERTEX
8
CUT
10
138.1443
20
120.7168
0
VERTEX
8
CUT
10
138.1420
20
120.7274
0
VERTEX
8
CUT
10
138.1259
20
120.8005
0
VERTEX
8
CUT
10
138.1232
20
120.8123
0
VERTEX
8
CUT
10
137.7587
20
122.3187
0
VERTEX
8
CUT
10
137.7535
20
122.3386
0
VERTEX
8
CUT
10
137.7178
20
122.4668
0
VERTEX
8
CUT
10
137.7120
20
122.4865
0
VERTEX
8
CUT
10
137.6617
20
122.6458
0
VERTEX
8
CUT
10
137.6552
20
122.6652
0
VERTEX
8
CUT
10
137.6108
20
122.7908
0
VERTEX
8
CUT
10
137.6037
20
122.8100
0
VERTEX
8
CUT
10
137.0371
20
124.2531
0
VERTEX
8
CUT
10
137.0330
20
124.2633
0
VERTEX
8
CUT
10
137.0036
20
124.3345
0
VERTEX
8
CUT
10
136.9991
20
124.3451
0
VERTEX
8
CUT
10
136.9789
20
124.3914
0
VERTEX
8
CUT
10
136.9687
20
124.4135
0
VERTEX
8
CUT
10
136.9024
20
124.5499
0
VERTEX
8
CUT
10
136.8917
20
124.5708
0
VERTEX
8
CUT
10
136.8726
20
124.6066
0
VERTEX
8
CUT
10
136.8673
20
124.6163
0
VERTEX
8
CUT
10
136.8301
20
124.6828
0
VERTEX
8
CUT
10
136.8240
20
124.6935
0
VERTEX
8
CUT
10
136.1224
20
125.8905
0
VERTEX
8
CUT
10
136.1151
20
125.9026
0
VERTEX
8
CUT
10
136.0670
20
125.9804
0
VERTEX
8
CUT
10
136.0595
20
125.9923
0
VERTEX
8
CUT
10
136.0295
20
126.0384
0
VERTEX
8
CUT
10
136.0136
20
126.0616
0
VERTEX
8
CUT
10
135.9067
20
126.2100
0
VERTEX
8
CUT
10
135.8898
20
126.2324
0
VERTEX
8
CUT
10
135.8556
20
126.2755
0
VERTEX
8
CUT
10
135.8467
20
126.2864
0
VERTEX
8
CUT
10
135.7882
20
126.3567
0
VERTEX
8
CUT
10
135.7790
20
126.3674
0
VERTEX
8
CUT
10
135.0544
20
127.1971
0
VERTEX
8
CUT
10
135.0426
20
127.2102
0
VERTEX
8
CUT
10
134.9648
20
127.2941
0
VERTEX
8
CUT
10
134.9527
20
127.3069
0
VERTEX
8
CUT
10
134.9045
20
127.3559
0
VERTEX
8
CUT
10
134.8791
20
127.3803
0
VERTEX
8
CUT
10
134.7094
20
127.5338
0
VERTEX
8
CUT
10
134.6826
20
127.5567
0
VERTEX
8
CUT
10
134.6291
20
127.5997
0
VERTEX
8
CUT
10
134.6152
20
127.6105
0
VERTEX
8
CUT
10
134.5238
20
127.6796
0
VERTEX
8
CUT
10
134.5096
20
127.6900
0
VERTEX
8
CUT
10
133.8745
20
128.1415
0
VERTEX
8
CUT
10
133.8617
20
128.1503
0
VERTEX
8
CUT
10
133.7778
20
128.2068
0
VERTEX
8
CUT
10
133.7647
20
128.2153
0
VERTEX
8
CUT
10
133.7135
20
128.2479
0
VERTEX
8
CUT
10
133.6868
20
128.2639
0
VERTEX
8
CUT
10
133.5132
20
128.3619
0
VERTEX
8
CUT
10
133.4575
20
128.3897
0
VERTEX
8
CUT
10
133.2747
20
128.4693
0
VERTEX
8
CUT
10
133.2459
20
128.4809
0
VERTEX
8
CUT
10
133.1890
20
128.5022
0
VERTEX
8
CUT
10
133.1744
20
128.5075
0
VERTEX
8
CUT
10
133.0788
20
128.5405
0
VERTEX
8
CUT
10
133.0640
20
128.5454
0
VERTEX
8
CUT
10
132.3933
20
128.7579
0
VERTEX
8
CUT
10
132.3790
20
128.7622
0
VERTEX
8
CUT
10
132.2858
20
128.7892
0
VERTEX
8
CUT
10
132.2715
20
128.7932
0
VERTEX
8
CUT
10
132.2151
20
128.8080
0
VERTEX
8
CUT
10
132.1861
20
128.8149
0
VERTEX
8
CUT
10
131.9989
20
128.8542
0
VERTEX
8
CUT
10
131.9399
20
128.8636
0
VERTEX
8
CUT
10
131.7524
20
128.8839
0
VERTEX
8
CUT
10
131.6928
20
128.8874
0
VERTEX
8
CUT
10
131.5015
20
128.8889
0
VERTEX
8
CUT
10
131.4717
20
128.8884
0
VERTEX
8
CUT
10
131.4135
20
128.8860
0
VERTEX
8
CUT
10
131.3986
20
128.8852
0
VERTEX
8
CUT
10
131.3018
20
128.8788
0
VERTEX
8
CUT
10
131.2869
20
128.8776
0
VERTEX
8
CUT
10
131.2821
20
128.8772
0
VERTEX
8
CUT
10
131.2696
20
128.8759
0
VERTEX
8
CUT
10
131.1884
20
128.8667
0
VERTEX
8
CUT
10
131.1759
20
128.8652
0
VERTEX
8
CUT
10
131.1272
20
128.8587
0
VERTEX
8
CUT
10
131.1024
20
128.8548
0
VERTEX
8
CUT
10
130.9437
20
128.8268
0
VERTEX
8
CUT
10
130.8946
20
128.8159
0
VERTEX
8
CUT
10
130.7388
20
128.7747
0
VERTEX
8
CUT
10
130.7146
20
128.7677
0
VERTEX
8
CUT
10
130.6677
20
128.7532
0
VERTEX
8
CUT
10
130.6557
20
128.7493
0
VERTEX
8
CUT
10
130.5782
20
128.7235
0
VERTEX
8
CUT
10
130.5663
20
128.7194
0
VERTEX
8
CUT
10
130.2452
20
128.6048
0
VERTEX
8
CUT
10
130.2333
20
128.6004
0
VERTEX
8
CUT
10
130.1563
20
128.5711
0
VERTEX
8
CUT
10
130.1445
20
128.5665
0
VERTEX
8
CUT
10
130.0986
20
128.5479
0
VERTEX
8
CUT
10
130.0753
20
128.5379
0
VERTEX
8
CUT
10
129.9274
20
128.4706
0
VERTEX
8
CUT
10
129.8822
20
128.4476
0
VERTEX
8
CUT
10
129.7405
20
128.3681
0
VERTEX
8
CUT
10
129.7187
20
128.3552
0
VERTEX
8
CUT
10
129.6766
20
128.3291
0
VERTEX
8
CUT
10
129.6659
20
128.3224
0
VERTEX
8
CUT
10
129.5967
20
128.2776
0
VERTEX
8
CUT
10
129.5862
20
128.2706
0
VERTEX
8
CUT
10
128.4705
20
127.5135
0
VERTEX
8
CUT
10
128.4598
20
127.5061
0
VERTEX
8
CUT
10
128.3909
20
127.4571
0
VERTEX
8
CUT
10
128.3804
20
127.4495
0
VERTEX
8
CUT
10
128.3396
20
127.4192
0
VERTEX
8
CUT
10
128.3191
20
127.4032
0
VERTEX
8
CUT
10
128.1880
20
127.2965
0
VERTEX
8
CUT
10
128.1681
20
127.2797
0
VERTEX
8
CUT
10
128.1301
20
127.2459
0
VERTEX
8
CUT
10
128.1205
20
127.2372
0
VERTEX
8
CUT
10
128.0585
20
127.1797
0
VERTEX
8
CUT
10
128.0491
20
127.1708
0
VERTEX
8
CUT
10
127.6930
20
126.8257
0
VERTEX
8
CUT
10
127.6826
20
126.8154
0
VERTEX
8
CUT
10
127.6160
20
126.7477
0
VERTEX
8
CUT
10
127.6059
20
126.7371
0
VERTEX
8
CUT
10
127.5669
20
126.6955
0
VERTEX
8
CUT
10
127.5474
20
126.6736
0
VERTEX
8
CUT
10
127.4262
20
126.5308
0
VERTEX
8
CUT
10
127.3906
20
126.4844
0
VERTEX
8
CUT
10
127.2838
20
126.3305
0
VERTEX
8
CUT
10
127.2678
20
126.3060
0
VERTEX
8
CUT
10
127.2375
20
126.2576
0
VERTEX
8
CUT
10
127.2300
20
126.2451
0
VERTEX
8
CUT
10
127.1817
20
126.1633
0
VERTEX
8
CUT
10
127.1744
20
126.1506
0
VERTEX
8
CUT
10
125.3084
20
122.8052
0
VERTEX
8
CUT
10
125.3035
20
122.7965
0
VERTEX
8
CUT
10
125.2953
20
122.7822
0
VERTEX
8
CUT
10
125.2748
20
122.7482
0
VERTEX
8
CUT
10
125.2388
20
122.6913
0
VERTEX
8
CUT
10
125.2225
20
122.6664
0
VERTEX
8
CUT
10
125.2207
20
122.6638
0
VERTEX
8
CUT
10
125.2036
20
122.6395
0
VERTEX
8
CUT
10
125.1640
20
122.5851
0
VERTEX
8
CUT
10
125.1399
20
122.5536
0
VERTEX
8
CUT
10
125.1295
20
122.5407
0
VERTEX
8
CUT
10
125.1233
20
122.5330
0
VERTEX
8
CUT
10
124.5685
20
121.8542
0
VERTEX
8
CUT
10
124.5623
20
121.8468
0
VERTEX
8
CUT
10
124.5568
20
121.8402
0
VERTEX
8
CUT
10
124.5202
20
121.7990
0
VERTEX
8
CUT
10
124.4652
20
121.7409
0
VERTEX
8
CUT
10
124.3997
20
121.6782
0
VERTEX
8
CUT
10
124.3541
20
121.6388
0
VERTEX
8
CUT
10
124.2826
20
121.5830
0
VERTEX
8
CUT
10
124.2171
20
121.5371
0
VERTEX
8
CUT
10
124.1711
20
121.5068
0
VERTEX
8
CUT
10
124.1638
20
121.5023
0
VERTEX
8
CUT
10
124.1555
20
121.4973
0
VERTEX
8
CUT
10
124.1335
20
121.4841
0
VERTEX
8
CUT
10
124.0963
20
121.4630
0
VERTEX
8
CUT
10
124.0273
20
121.4260
0
VERTEX
8
CUT
10
123.9501
20
121.3892
0
VERTEX
8
CUT
10
123.8976
20
121.3671
0
VERTEX
8
CUT
10
123.8172
20
121.3378
0
VERTEX
8
CUT
10
123.7628
20
121.3208
0
VERTEX
8
CUT
10
123.6801
20
121.2993
0
VERTEX
8
CUT
10
123.6243
20
121.2876
0
VERTEX
8
CUT
10
123.5399
20
121.2740
0
VERTEX
8
CUT
10
123.4833
20
121.2676
0
VERTEX
8
CUT
10
123.3980
20
121.2621
0
VERTEX
8
CUT
10
123.3410
20
121.2611
0
VERTEX
8
CUT
10
123.2555
20
121.2637
0
VERTEX
8
CUT
10
123.1988
20
121.2682
0
VERTEX
8
CUT
10
123.1139
20
121.2789
0
VERTEX
8
CUT
10
123.0578
20
121.2887
0
VERTEX
8
CUT
10
122.9743
20
121.3074
0
VERTEX
8
CUT
10
122.9194
20
121.3225
0
VERTEX
8
CUT
10
122.8381
20
121.3491
0
VERTEX
8
CUT
10
122.7849
20
121.3693
0
VERTEX
8
CUT
10
122.7065
20
121.4035
0
VERTEX
8
CUT
10
122.6554
20
121.4287
0
VERTEX
8
CUT
10
122.5806
20
121.4701
0
VERTEX
8
CUT
10
122.5322
20
121.5001
0
VERTEX
8
CUT
10
122.4616
20
121.5484
0
VERTEX
8
CUT
10
122.4162
20
121.5828
0
VERTEX
8
CUT
10
122.3506
20
121.6377
0
VERTEX
8
CUT
10
122.2929
20
121.6907
0
VERTEX
8
CUT
10
122.2621
20
121.7204
0
VERTEX
8
CUT
10
122.0487
20
121.9363
0
VERTEX
8
CUT
10
122.0405
20
121.9447
0
VERTEX
8
CUT
10
122.0270
20
121.9588
0
VERTEX
8
CUT
10
121.9952
20
121.9936
0
VERTEX
8
CUT
10
121.9548
20
122.0402
0
VERTEX
8
CUT
10
121.9038
20
122.1048
0
VERTEX
8
CUT
10
121.8556
20
122.1719
0
VERTEX
8
CUT
10
121.8107
20
122.2410
0
VERTEX
8
CUT
10
121.7795
20
122.2941
0
VERTEX
8
CUT
10
121.7567
20
122.3354
0
VERTEX
8
CUT
10
121.7477
20
122.3527
0
VERTEX
8
CUT
10
121.7423
20
122.3632
0
VERTEX
8
CUT
10
120.6973
20
124.4432
0
VERTEX
8
CUT
10
120.6918
20
124.4545
0
VERTEX
8
CUT
10
120.6826
20
124.4733
0
VERTEX
8
CUT
10
120.6619
20
124.5193
0
VERTEX
8
CUT
10
120.6365
20
124.5802
0
VERTEX
8
CUT
10
120.6065
20
124.6632
0
VERTEX
8
CUT
10
120.5806
20
124.7477
0
VERTEX
8
CUT
10
120.5589
20
124.8333
0
VERTEX
8
CUT
10
120.5459
20
124.8979
0
VERTEX
8
CUT
10
120.5373
20
124.9476
0
VERTEX
8
CUT
10
120.5343
20
124.9683
0
VERTEX
8
CUT
10
120.5326
20
124.9808
0
VERTEX
8
CUT
10
120.2594
20
127.0831
0
VERTEX
8
CUT
10
120.2580
20
127.0945
0
VERTEX
8
CUT
10
120.2561
20
127.1106
0
VERTEX
8
CUT
10
120.2516
20
127.1623
0
VERTEX
8
CUT
10
120.2474
20
127.2330
0
VERTEX
8
CUT
10
120.2463
20
127.3137
0
VERTEX
8
CUT
10
120.2479
20
127.3674
0
VERTEX
8
CUT
10
120.2541
20
127.4478
0
VERTEX
8
CUT
10
120.2605
20
127.5012
0
VERTEX
8
CUT
10
120.2738
20
127.5807
0
VERTEX
8
CUT
10
120.2886
20
127.6500
0
VERTEX
8
CUT
10
120.3009
20
127.7004
0
VERTEX
8
CUT
10
120.3052
20
127.7161
0
VERTEX
8
CUT
10
120.3083
20
127.7272
0
VERTEX
8
CUT
10
120.4449
20
128.2010
0
VERTEX
8
CUT
10
120.4479
20
128.2111
0
VERTEX
8
CUT
10
120.4529
20
128.2277
0
VERTEX
8
CUT
10
120.4659
20
128.2676
0
VERTEX
8
CUT
10
120.4842
20
128.3193
0
VERTEX
8
CUT
10
120.5113
20
128.3874
0
VERTEX
8
CUT
10
120.5414
20
128.4545
0
VERTEX
8
CUT
10
120.5740
20
128.5202
0
VERTEX
8
CUT
10
120.6004
20
128.5683
0
VERTEX
8
CUT
10
120.6214
20
128.6045
0
VERTEX
8
CUT
10
120.6304
20
128.6194
0
VERTEX
8
CUT
10
120.6360
20
128.6283
0
VERTEX
8
CUT
10
121.1342
20
129.4229
0
VERTEX
8
CUT
10
121.1420
20
129.4355
0
VERTEX
8
CUT
10
121.1910
20
129.5183
0
VERTEX
8
CUT
10
121.1984
20
129.5311
0
VERTEX
8
CUT
10
121.2267
20
129.5815
0
VERTEX
8
CUT
10
121.2405
20
129.6077
0
VERTEX
8
CUT
10
121.3249
20
129.7775
0
VERTEX
8
CUT
10
121.3486
20
129.8317
0
VERTEX
8
CUT
10
121.4150
20
130.0066
0
VERTEX
8
CUT
10
121.4333
20
130.0629
0
VERTEX
8
CUT
10
121.4821
20
130.2435
0
VERTEX
8
CUT
10
121.4947
20
130.3013
0
VERTEX
8
CUT
10
121.5255
20
130.4859
0
VERTEX
8
CUT
10
121.5324
20
130.5446
0
VERTEX
8
CUT
10
121.5449
20
130.7313
0
VERTEX
8
CUT
10
121.5459
20
130.7905
0
VERTEX
8
CUT
10
121.5399
20
130.9775
0
VERTEX
8
CUT
10
121.5351
20
131.0364
0
VERTEX
8
CUT
10
121.5107
20
131.2219
0
VERTEX
8
CUT
10
121.5002
20
131.2802
0
VERTEX
8
CUT
10
121.4576
20
131.4623
0
VERTEX
8
CUT
10
121.4414
20
131.5192
0
VERTEX
8
CUT
10
121.3811
20
131.6963
0
VERTEX
8
CUT
10
121.3593
20
131.7514
0
VERTEX
8
CUT
10
121.2819
20
131.9217
0
VERTEX
8
CUT
10
121.2548
20
131.9743
0
VERTEX
8
CUT
10
121.1610
20
132.1361
0
VERTEX
8
CUT
10
121.1288
20
132.1858
0
VERTEX
8
CUT
10
121.0195
20
132.3376
0
VERTEX
8
CUT
10
120.9826
20
132.3839
0
VERTEX
8
CUT
10
120.8589
20
132.5242
0
VERTEX
8
CUT
10
120.8176
20
132.5666
0
VERTEX
8
CUT
10
120.6807
20
132.6941
0
VERTEX
8
CUT
10
120.6354
20
132.7322
0
VERTEX
8
CUT
10
120.4866
20
132.8456
0
VERTEX
8
CUT
10
120.4378
20
132.8791
0
VERTEX
8
CUT
10
120.2785
20
132.9772
0
VERTEX
8
CUT
10
120.2267
20
133.0057
0
VERTEX
8
CUT
10
120.0585
20
133.0877
0
VERTEX
8
CUT
10
120.0041
20
133.1110
0
VERTEX
8
CUT
10
119.8287
20
133.1760
0
VERTEX
8
CUT
10
119.7723
20
133.1938
0
VERTEX
8
CUT
10
119.5913
20
133.2412
0
VERTEX
8
CUT
10
119.5334
20
133.2533
0
VERTEX
8
CUT
10
119.3486
20
133.2827
0
VERTEX
8
CUT
10
119.2898
20
133.2891
0
VERTEX
8
CUT
10
119.1030
20
133.3001
0
VERTEX
8
CUT
10
119.0438
20
133.3006
0
VERTEX
8
CUT
10
118.8543
20
133.2931
0
VERTEX
8
CUT
10
118.8248
20
133.2912
0
VERTEX
8
CUT
10
118.7672
20
133.2860
0
VERTEX
8
CUT
10
118.7525
20
133.2845
0
VERTEX
8
CUT
10
118.6569
20
133.2736
0
VERTEX
8
CUT
10
118.6423
20
133.2717
0
VERTEX
8
CUT
10
118.5169
20
133.2543
0
VERTEX
8
CUT
10
118.5068
20
133.2529
0
VERTEX
8
CUT
10
118.4899
20
133.2508
0
VERTEX
8
CUT
10
118.4493
20
133.2465
0
VERTEX
8
CUT
10
118.3803
20
133.2409
0
VERTEX
8
CUT
10
118.3497
20
133.2389
0
VERTEX
8
CUT
10
118.3465
20
133.2387
0
VERTEX
8
CUT
10
118.3158
20
133.2378
0
VERTEX
8
CUT
10
118.2466
20
133.2369
0
VERTEX
8
CUT
10
118.2058
20
133.2372
0
VERTEX
8
CUT
10
118.1888
20
133.2378
0
VERTEX
8
CUT
10
118.1786
20
133.2381
0
VERTEX
8
CUT
10
114.9791
20
133.3764
0
VERTEX
8
CUT
10
114.9668
20
133.3770
0
VERTEX
8
CUT
10
114.9463
20
133.3782
0
VERTEX
8
CUT
10
114.8971
20
133.3823
0
VERTEX
8
CUT
10
114.8140
20
133.3916
0
VERTEX
8
CUT
10
114.7773
20
133.3965
0
VERTEX
8
CUT
10
114.7406
20
133.4022
0
VERTEX
8
CUT
10
114.7259
20
133.4043
0
VERTEX
8
CUT
10
114.6305
20
133.4166
0
VERTEX
8
CUT
10
114.6158
20
133.4183
0
VERTEX
8
CUT
10
114.5583
20
133.4243
0
VERTEX
8
CUT
10
114.5288
20
133.4266
0
VERTEX
8
CUT
10
114.3393
20
133.4369
0
VERTEX
8
CUT
10
114.2801
20
133.4372
0
VERTEX
8
CUT
10
114.0932
20
133.4288
0
VERTEX
8
CUT
10
114.0343
20
133.4233
0
VERTEX
8
CUT
10
113.8491
20
133.3966
0
VERTEX
8
CUT
10
113.7910
20
133.3853
0
VERTEX
8
CUT
10
113.6093
20
133.3405
0
VERTEX
8
CUT
10
113.5526
20
133.3235
0
VERTEX
8
CUT
10
113.3762
20
133.2610
0
VERTEX
8
CUT
10
113.3214
20
133.2385
0
VERTEX
8
CUT
10
113.1521
20
133.1589
0
VERTEX
8
CUT
10
113.0998
20
133.1311
0
VERTEX
8
CUT
10
112.9391
20
133.0352
0
VERTEX
8
CUT
10
112.8898
20
133.0024
0
VERTEX
8
CUT
10
112.7394
20
132.8912
0
VERTEX
8
CUT
10
112.6936
20
132.8537
0
VERTEX
8
CUT
10
112.5548
20
132.7282
0
VERTEX
8
CUT
10
112.5129
20
132.6863
0
VERTEX
8
CUT
10
112.3872
20
132.5477
0
VERTEX
8
CUT
10
112.3496
20
132.5020
0
VERTEX
8
CUT
10
112.2381
20
132.3517
0
VERTEX
8
CUT
10
112.2053
20
132.3025
0
VERTEX
8
CUT
10
112.1092
20
132.1419
0
VERTEX
8
CUT
10
112.0813
20
132.0897
0
VERTEX
8
CUT
10
112.0015
20
131.9204
0
VERTEX
8
CUT
10
111.9789
20
131.8657
0
VERTEX
8
CUT
10
111.9161
20
131.6894
0
VERTEX
8
CUT
10
111.8991
20
131.6327
0
VERTEX
8
CUT
10
111.8540
20
131.4511
0
VERTEX
8
CUT
10
111.8426
20
131.3931
0
VERTEX
8
CUT
10
111.8156
20
131.2079
0
VERTEX
8
CUT
10
111.8100
20
131.1490
0
SEQEND
0
POLYLINE
8
CUT
66
1
70
1
10
0.0
20
0.0
30
0.0
0
VERTEX
8
CUT
10
75.4650
20
146.6546
0
VERTEX
8
CUT
10
75.4674
20
146.5962
0
VERTEX
8
CUT
10
75.4837
20
146.4123
0
VERTEX
8
CUT
10
75.4916
20
146.3544
0
VERTEX
8
CUT
10
75.5257
20
146.1729
0
VERTEX
8
CUT
10
75.5393
20
146.1161
0
VERTEX
8
CUT
10
75.5909
20
145.9388
0
VERTEX
8
CUT
10
75.6099
20
145.8836
0
VERTEX
8
CUT
10
75.6785
20
145.7122
0
VERTEX
8
CUT
10
75.7028
20
145.6591
0
VERTEX
8
CUT
10
75.7878
20
145.4951
0
VERTEX
8
CUT
10
75.8171
20
145.4446
0
VERTEX
8
CUT
10
75.9176
20
145.2897
0
VERTEX
8
CUT
10
75.9517
20
145.2423
0
VERTEX
8
CUT
10
76.0668
20
145.0978
0
VERTEX
8
CUT
10
76.1054
20
145.0540
0
VERTEX
8
CUT
10
76.2339
20
144.9214
0
VERTEX
8
CUT
10
76.2766
20
144.8815
0
VERTEX
8
CUT
10
76.4174
20
144.7621
0
VERTEX
8
CUT
10
76.4637
20
144.7265
0
VERTEX
8
CUT
10
76.6155
20
144.6214
0
VERTEX
8
CUT
10
76.6651
20
144.5905
0
VERTEX
8
CUT
10
76.8264
20
144.5006
0
VERTEX
8
CUT
10
76.8787
20
144.4746
0
VERTEX
8
CUT
10
77.0480
20
144.4008
0
VERTEX
8
CUT
10
77.1026
20
144.3801
0
VERTEX
8
CUT
10
77.2782
20
144.3231
0
VERTEX
8
CUT
10
77.3346
20
144.3078
0
VERTEX
8
CUT
10
77.5149
20
144.2682
0
VERTEX
8
CUT
10
77.5725
20
144.2584
0
VERTEX
8
CUT
10
77.7559
20
144.2365
0
VERTEX
8
CUT
10
77.8141
20
144.2324
0
VERTEX
8
CUT
10
77.9988
20
144.2284
0
VERTEX
8
CUT
10
78.0571
20
144.2300
0
VERTEX
8
CUT
10
78.2413
20
144.2440
0
VERTEX
8
CUT
10
78.2992
20
144.2512
0
VERTEX
8
CUT
10
78.4836
20
144.2835
0
VERTEX
8
CUT
10
78.5123
20
144.2892
0
VERTEX
8
CUT
10
78.5810
20
144.3047
0
VERTEX
8
CUT
10
78.5884
20
144.3064
0
VERTEX
8
CUT
10
78.6406
20
144.3189
0
VERTEX
8
CUT
10
78.6483
20
144.3208
0
VERTEX
8
CUT
10
78.6856
20
144.3302
0
VERTEX
8
CUT
10
78.6955
20
144.3327
0
VERTEX
8
CUT
10
78.7212
20
144.3389
0
VERTEX
8
CUT
10
78.7322
20
144.3414
0
VERTEX
8
CUT
10
78.7429
20
144.3439
0
VERTEX
8
CUT
10
78.7531
20
144.3461
0
VERTEX
8
CUT
10
78.7770
20
144.3513
0
VERTEX
8
CUT
10
78.7872
20
144.3534
0
VERTEX
8
CUT
10
81.8516
20
144.9769
0
VERTEX
8
CUT
10
81.8605
20
144.9787
0
VERTEX
8
CUT
10
81.8753
20
144.9815
0
VERTEX
8
CUT
10
81.9112
20
144.9877
0
VERTEX
8
CUT
10
81.9721
20
144.9969
0
VERTEX
8
CUT
10
81.9991
20
145.0006
0
VERTEX
8
CUT
10
82.0020
20
145.0010
0
VERTEX
8
CUT
10
82.0291
20
145.0038
0
VERTEX
8
CUT
10
82.0905
20
145.0093
0
VERTEX
8
CUT
10
82.1267
20
145.0118
0
VERTEX
8
CUT
10
82.1419
20
145.0126
0
VERTEX
8
CUT
10
82.1509
20
145.0130
0
VERTEX
8
CUT
10
90.0133
20
145.3205
0
VERTEX
8
CUT
10
90.0283
20
145.3213
0
VERTEX
8
CUT
10
90.1257
20
145.3275
0
VERTEX
8
CUT
10
90.1406
20
145.3287
0
VERTEX
8
CUT
10
90.1990
20
145.3339
0
VERTEX
8
CUT
10
90.2288
20
145.3373
0
VERTEX
8
CUT
10
90.4193
20
145.3640
0
VERTEX
8
CUT
10
90.4782
20
145.3753
0
VERTEX
8
CUT
10
90.6625
20
145.4202
0
VERTEX
8
CUT
10
90.7201
20
145.4373
0
VERTEX
8
CUT
10
90.8989
20
145.5005
0
VERTEX
8
CUT
10
90.9545
20
145.5233
0
VERTEX
8
CUT
10
91.1262
20
145.6040
0
VERTEX
8
CUT
10
91.1791
20
145.6322
0
VERTEX
8
CUT
10
91.3419
20
145.7296
0
VERTEX
8
CUT
10
91.3918
20
145.7630
0
VERTEX
8
CUT
10
91.5440
20
145.8762
0
VERTEX
8
CUT
10
91.5903
20
145.9143
0
VERTEX
8
CUT
10
91.7305
20
146.0422
0
VERTEX
8
CUT
10
91.7727
20
146.0848
0
VERTEX
8
CUT
10
91.8994
20
146.2260
0
VERTEX
8
CUT
10
91.9372
20
146.2726
0
VERTEX
8
CUT
10
92.0491
20
146.4258
0
VERTEX
8
CUT
10
92.0821
20
146.4760
0
VERTEX
8
CUT
10
92.1782
20
146.6395
0
VERTEX
8
CUT
10
92.2059
20
146.6927
0
VERTEX
8
CUT
10
92.2852
20
146.8651
0
VERTEX
8
CUT
10
92.3075
20
146.9208
0
VERTEX
8
CUT
10
92.3692
20
147.1002
0
VERTEX
8
CUT
10
92.3858
20
147.1579
0
VERTEX
8
CUT
10
92.4292
20
147.3425
0
VERTEX
8
CUT
10
92.4400
20
147.4016
0
VERTEX
8
CUT
10
92.4648
20
147.5897
0
VERTEX
8
CUT
10
92.4696
20
147.6495
0
VERTEX
8
CUT
10
92.4755
20
147.8391
0
VERTEX
8
CUT
10
92.4743
20
147.8991
0
VERTEX
8
CUT
10
92.4612
20
148.0883
0
VERTEX
8
CUT
10
92.4540
20
148.1479
0
VERTEX
8
CUT
10
92.4221
20
148.3349
0
VERTEX
8
CUT
10
92.4090
20
148.3935
0
VERTEX
8
CUT
10
92.3585
20
148.5764
0
VERTEX
8
CUT
10
92.3397
20
148.6333
0
VERTEX
8
CUT
10
92.2712
20
148.8102
0
VERTEX
8
CUT
10
92.2467
20
148.8651
0
VERTEX
8
CUT
10
92.1609
20
149.0342
0
VERTEX
8
CUT
10
92.1311
20
149.0863
0
VERTEX
8
CUT
10
92.0288
20
149.2461
0
VERTEX
8
CUT
10
91.9940
20
149.2949
0
VERTEX
8
CUT
10
91.8762
20
149.4437
0
VERTEX
8
CUT
10
91.8367
20
149.4888
0
VERTEX
8
CUT
10
91.7046
20
149.6251
0
VERTEX
8
CUT
10
91.6608
20
149.6660
0
VERTEX
8
CUT
10
91.5138
20
149.7901
0
VERTEX
8
CUT
10
91.4904
20
149.8089
0
VERTEX
8
CUT
10
91.4438
20
149.8444
0
VERTEX
8
CUT
10
91.4317
20
149.8533
0
VERTEX
8
CUT
10
91.3527
20
149.9105
0
VERTEX
8
CUT
10
91.3404
20
149.9191
0
VERTEX
8
CUT
10
88.1321
20
152.1187
0
VERTEX
8
CUT
10
88.1263
20
152.1228
0
VERTEX
8
CUT
10
88.1126
20
152.1323
0
VERTEX
8
CUT
10
88.1067
20
152.1364
0
VERTEX
8
CUT
10
88.1042
20
152.1382
0
VERTEX
8
CUT
10
88.0816
20
152.1548
0
VERTEX
8
CUT
10
88.0294
20
152.1943
0
VERTEX
8
CUT
10
88.0115
20
152.2083
0
VERTEX
8
CUT
10
87.9841
20
152.2313
0
VERTEX
8
CUT
10
87.9228
20
152.2848
0
VERTEX
8
CUT
10
87.8969
20
152.3084
0
VERTEX
8
CUT
10
86.9226
20
153.2293
0
VERTEX
8
CUT
10
86.9160
20
153.2356
0
VERTEX
8
CUT
10
86.9051
20
153.2461
0
VERTEX
8
CUT
10
86.8795
20
153.2718
0
VERTEX
8
CUT
10
86.8372
20
153.3161
0
VERTEX
8
CUT
10
86.8188
20
153.3359
0
VERTEX
8
CUT
10
86.8168
20
153.3381
0
VERTEX
8
CUT
10
86.7990
20
153.3585
0
VERTEX
8
CUT
10
86.7594
20
153.4053
0
VERTEX
8
CUT
10
86.7366
20
153.4333
0
VERTEX
8
CUT
10
86.7273
20
153.4452
0
VERTEX
8
CUT
10
86.7218
20
153.4523
0
VERTEX
8
CUT
10
86.0005
20
154.3961
0
VERTEX
8
CUT
10
85.9941
20
154.4046
0
VERTEX
8
CUT
10
85.9835
20
154.4188
0
VERTEX
8
CUT
10
85.9588
20
154.4537
0
VERTEX
8
CUT
10
85.9183
20
154.5137
0
VERTEX
8
CUT
10
85.9009
20
154.5406
0
VERTEX
8
CUT
10
85.8991
20
154.5435
0
VERTEX
8
CUT
10
85.8826
20
154.5709
0
VERTEX
8
CUT
10
85.8465
20
154.6337
0
VERTEX
8
CUT
10
85.8261
20
154.6712
0
VERTEX
8
CUT
10
85.8180
20
154.6870
0
VERTEX
8
CUT
10
85.8132
20
154.6965
0
VERTEX
8
CUT
10
85.3480
20
155.6293
0
VERTEX
8
CUT
10
85.3414
20
155.6427
0
VERTEX
8
CUT
10
85.3396
20
155.6462
0
VERTEX
8
CUT
10
85.2968
20
155.7314
0
VERTEX
8
CUT
10
85.2909
20
155.7429
0
VERTEX
8
CUT
10
85.2640
20
155.7936
0
VERTEX
8
CUT
10
85.2498
20
155.8190
0
VERTEX
8
CUT
10
85.1549
20
155.9789
0
VERTEX
8
CUT
10
85.1229
20
156.0273
0
VERTEX
8
CUT
10
85.0145
20
156.1753
0
VERTEX
8
CUT
10
84.9780
20
156.2204
0
VERTEX
8
CUT
10
84.8558
20
156.3572
0
VERTEX
8
CUT
10
84.8151
20
156.3986
0
VERTEX
8
CUT
10
84.6802
20
156.5230
0
VERTEX
8
CUT
10
84.6357
20
156.5602
0
VERTEX
8
CUT
10
84.4895
20
156.6710
0
VERTEX
8
CUT
10
84.4416
20
156.7037
0
VERTEX
8
CUT
10
84.2853
20
156.7999
0
VERTEX
8
CUT
10
84.2345
20
156.8278
0
VERTEX
8
CUT
10
84.0697
20
156.9084
0
VERTEX
8
CUT
10
84.0164
20
156.9314
0
VERTEX
8
CUT
10
83.8446
20
156.9957
0
VERTEX
8
CUT
10
83.7893
20
157.0133
0
VERTEX
8
CUT
10
83.6121
20
157.0607
0
VERTEX
8
CUT
10
83.5554
20
157.0730
0
VERTEX
8
CUT
10
83.3744
20
157.1031
0
VERTEX
8
CUT
10
83.3168
20
157.1098
0
VERTEX
8
CUT
10
83.1338
20
157.1222
0
VERTEX
8
CUT
10
83.0758
20
157.1233
0
VERTEX
8
CUT
10
82.8924
20
157.1180
0
VERTEX
8
CUT
10
82.8345
20
157.1136
0
VERTEX
8
CUT
10
82.6525
20
157.0906
0
VERTEX
8
CUT
10
82.5954
20
157.0805
0
VERTEX
8
CUT
10
82.4165
20
157.0401
0
VERTEX
8
CUT
10
82.3605
20
157.0245
0
VERTEX
8
CUT
10
82.1864
20
156.9670
0
VERTEX
8
CUT
10
82.1322
20
156.9461
0
VERTEX
8
CUT
10
81.9644
20
156.8720
0
VERTEX
8
CUT
10
81.9125
20
156.8460
0
VERTEX
8
CUT
10
81.7526
20
156.7561
0
VERTEX
8
CUT
10
81.7035
20
156.7252
0
VERTEX
8
CUT
10
81.5531
20
156.6202
0
VERTEX
8
CUT
10
81.5072
20
156.5847
0
VERTEX
8
CUT
10
81.3676
20
156.4657
0
VERTEX
8
CUT
10
81.3253
20
156.4259
0
VERTEX
8
CUT
10
81.1979
20
156.2940
0
VERTEX
8
CUT
10
81.1596
20
156.2503
0
VERTEX
8
CUT
10
81.0440
20
156.1047
0
VERTEX
8
CUT
10
81.0265
20
156.0815
0
VERTEX
8
CUT
10
80.9934
20
156.0355
0
VERTEX
8
CUT
10
80.9851
20
156.0236
0
VERTEX
8
CUT
10
80.9320
20
155.9457
0
VERTEX
8
CUT
10
80.9239
20
155.9336
0
VERTEX
8
CUT
10
75.9888
20
148.3087
0
VERTEX
8
CUT
10
75.9828
20
148.2993
0
VERTEX
8
CUT
10
75.9421
20
148.2338
0
VERTEX
8
CUT
10
75.9359
20
148.2236
0
VERTEX
8
CUT
10
75.8868
20
148.1410
0
VERTEX
8
CUT
10
75.8810
20
148.1309
0
VERTEX
8
CUT
10
75.8431
20
148.0643
0
VERTEX
8
CUT
10
75.8374
20
148.0539
0
VERTEX
8
CUT
10
75.7913
20
147.9689
0
VERTEX
8
CUT
10
75.7842
20
147.9555
0
VERTEX
8
CUT
10
75.7412
20
147.8712
0
VERTEX
8
CUT
10
75.7347
20
147.8581
0
VERTEX
8
CUT
10
75.7101
20
147.8066
0
VERTEX
8
CUT
10
75.6981
20
147.7800
0
VERTEX
8
CUT
10
75.6254
20
147.6075
0
VERTEX
8
CUT
10
75.6054
20
147.5526
0
VERTEX
8
CUT
10
75.5506
20
147.3762
0
VERTEX
8
CUT
10
75.5360
20
147.3197
0
VERTEX
8
CUT
10
75.4987
20
147.1388
0
VERTEX
8
CUT
10
75.4897
20
147.0811
0
VERTEX
8
CUT
10
75.4701
20
146.8975
0
VERTEX
8
CUT
10
75.4667
20
146.8392
0
SEQEND
0
POLYLINE
8
CUT
66
1
70
1
10
0.0
20
0.0
30
0.0
0
VERTEX
8
CUT
10
71.9010
20
106.5772
0
VERTEX
8
CUT
10
71.9031
20
106.5194
0
VERTEX
8
CUT
10
71.9184
20
106.3373
0
VERTEX
8
CUT
10
71.9260
20
106.2800
0
VERTEX
8
CUT
10
71.9588
20
106.1003
0
VERTEX
8
CUT
10
71.9719
20
106.0440
0
VERTEX
8
CUT
10
72.0218
20
105.8682
0
VERTEX
8
CUT
10
72.0403
20
105.8134
0
VERTEX
8
CUT
10
72.1069
20
105.6433
0
VERTEX
8
CUT
10
72.1305
20
105.5905
0
VERTEX
8
CUT
10
72.2132
20
105.4276
0
VERTEX
8
CUT
10
72.2418
20
105.3773
0
VERTEX
8
CUT
10
72.3397
20
105.2231
0
VERTEX
8
CUT
10
72.3730
20
105.1759
0
VERTEX
8
CUT
10
72.4854
20
105.0317
0
VERTEX
8
CUT
10
72.5231
20
104.9879
0
VERTEX
8
CUT
10
72.6488
20
104.8553
0
VERTEX
8
CUT
10
72.6905
20
104.8153
0
VERTEX
8
CUT
10
72.8284
20
104.6954
0
VERTEX
8
CUT
10
72.8737
20
104.6596
0
VERTEX
8
CUT
10
73.0225
20
104.5535
0
VERTEX
8
CUT
10
73.0711
20
104.5222
0
VERTEX
8
CUT
10
73.2294
20
104.4309
0
VERTEX
8
CUT
10
73.2808
20
104.4045
0
VERTEX
8
CUT
10
73.4471
20
104.3289
0
VERTEX
8
CUT
10
73.5008
20
104.3075
0
VERTEX
8
CUT
10
73.6737
20
104.2482
0
VERTEX
8
CUT
10
73.7292
20
104.2321
0
VERTEX
8
CUT
10
73.9069
20
104.1897
0
VERTEX
8
CUT
10
73.9637
20
104.1791
0
VERTEX
8
CUT
10
74.1447
20
104.1540
0
VERTEX
8
CUT
10
74.2023
20
104.1488
0
VERTEX
8
CUT
10
74.3849
20
104.1413
0
VERTEX
8
CUT
10
74.4427
20
104.1416
0
VERTEX
8
CUT
10
74.6251
20
104.1517
0
VERTEX
8
CUT
10
74.6826
20
104.1577
0
VERTEX
8
CUT
10
74.8658
20
104.1856
0
VERTEX
8
CUT
10
74.8942
20
104.1906
0
VERTEX
8
CUT
10
74.9495
20
104.2018
0
VERTEX
8
CUT
10
74.9637
20
104.2049
0
VERTEX
8
CUT
10
75.0553
20
104.2257
0
VERTEX
8
CUT
10
75.0693
20
104.2291
0
VERTEX
8
CUT
10
75.2181
20
104.2667
0
VERTEX
8
CUT
10
75.2288
20
104.2693
0
VERTEX
8
CUT
10
75.2382
20
104.2716
0
VERTEX
8
CUT
10
75.2994
20
104.2841
0
VERTEX
8
CUT
10
75.3889
20
104.2991
0
VERTEX
8
CUT
10
75.4912
20
104.3102
0
VERTEX
8
CUT
10
75.5595
20
104.3138
0
VERTEX
8
CUT
10
75.6624
20
104.3132
0
VERTEX
8
CUT
10
75.7529
20
104.3075
0
VERTEX
8
CUT
10
75.8151
20
104.3014
0
VERTEX
8
CUT
10
75.8247
20
104.3002
0
VERTEX
8
CUT
10
75.8356
20
104.2987
0
VERTEX
8
CUT
10
77.7394
20
104.0219
0
VERTEX
8
CUT
10
77.7532
20
104.0201
0
VERTEX
8
CUT
10
77.8432
20
104.0091
0
VERTEX
8
CUT
10
77.8570
20
104.0076
0
VERTEX
8
CUT
10
77.9112
20
104.0023
0
VERTEX
8
CUT
10
77.9390
20
104.0002
0
VERTEX
8
CUT
10
78.1174
20
103.9910
0
VERTEX
8
CUT
10
78.1732
20
103.9907
0
VERTEX
8
CUT
10
78.3492
20
103.9981
0
VERTEX
8
CUT
10
78.4048
20
104.0030
0
VERTEX
8
CUT
10
78.5794
20
104.0266
0
VERTEX
8
CUT
10
78.6342
20
104.0366
0
VERTEX
8
CUT
10
78.8059
20
104.0763
0
VERTEX
8
CUT
10
78.8596
20
104.0914
0
VERTEX
8
CUT
10
79.0292
20
104.1476
0
VERTEX
8
CUT
10
79.0554
20
104.1570
0
VERTEX
8
CUT
10
79.1062
20
104.1766
0
VERTEX
8
CUT
10
79.1192
20
104.1817
0
VERTEX
8
CUT
10
79.2030
20
104.2161
0
VERTEX
8
CUT
10
79.2158
20
104.2216
0
VERTEX
8
CUT
10
80.1273
20
104.6212
0
VERTEX
8
CUT
10
80.1410
20
104.6274
0
VERTEX
8
CUT
10
80.2294
20
104.6689
0
VERTEX
8
CUT
10
80.2429
20
104.6754
0
VERTEX
8
CUT
10
80.2954
20
104.7016
0
VERTEX
8
CUT
10
80.3219
20
104.7157
0
VERTEX
8
CUT
10
80.4919
20
104.8115
0
VERTEX
8
CUT
10
80.5177
20
104.8269
0
VERTEX
8
CUT
10
80.5673
20
104.8583
0
VERTEX
8
CUT
10
80.5799
20
104.8665
0
VERTEX
8
CUT
10
80.6611
20
104.9206
0
VERTEX
8
CUT
10
80.6735
20
104.9291
0
VERTEX
8
CUT
10
82.8338
20
106.4504
0
VERTEX
8
CUT
10
82.8512
20
106.4630
0
VERTEX
8
CUT
10
82.9623
20
106.5474
0
VERTEX
8
CUT
10
82.9792
20
106.5607
0
VERTEX
8
CUT
10
83.1147
20
106.6714
0
VERTEX
8
CUT
10
83.1311
20
106.6853
0
VERTEX
8
CUT
10
83.2359
20
106.7774
0
VERTEX
8
CUT
10
83.2517
20
106.7919
0
VERTEX
8
CUT
10
84.8900
20
108.3385
0
VERTEX
8
CUT
10
84.9000
20
108.3483
0
VERTEX
8
CUT
10
84.9646
20
108.4122
0
VERTEX
8
CUT
10
84.9745
20
108.4221
0
VERTEX
8
CUT
10
85.0124
20
108.4614
0
VERTEX
8
CUT
10
85.0313
20
108.4820
0
VERTEX
8
CUT
10
85.1513
20
108.6185
0
VERTEX
8
CUT
10
85.1692
20
108.6399
0
VERTEX
8
CUT
10
85.2033
20
108.6826
0
VERTEX
8
CUT
10
85.2119
20
108.6936
0
VERTEX
8
CUT
10
85.2670
20
108.7659
0
VERTEX
8
CUT
10
85.2754
20
108.7772
0
VERTEX
8
CUT
10
86.0238
20
109.8087
0
VERTEX
8
CUT
10
86.0308
20
109.8185
0
VERTEX
8
CUT
10
86.0756
20
109.8830
0
VERTEX
8
CUT
10
86.0824
20
109.8930
0
VERTEX
8
CUT
10
86.1086
20
109.9323
0
VERTEX
8
CUT
10
86.1215
20
109.9527
0
VERTEX
8
CUT
10
86.2032
20
110.0868
0
VERTEX
8
CUT
10
86.2154
20
110.1077
0
VERTEX
8
CUT
10
86.2383
20
110.1490
0
VERTEX
8
CUT
10
86.2441
20
110.1596
0
VERTEX
8
CUT
10
86.2808
20
110.2290
0
VERTEX
8
CUT
10
86.2863
20
110.2398
0
VERTEX
8
CUT
10
87.6614
20
112.9702
0
VERTEX
8
CUT
10
87.6688
20
112.9853
0
VERTEX
8
CUT
10
87.7153
20
113.0845
0
VERTEX
8
CUT
10
87.7222
20
113.0998
0
VERTEX
8
CUT
10
87.7484
20
113.1601
0
VERTEX
8
CUT
10
87.7610
20
113.1914
0
VERTEX
8
CUT
10
87.8369
20
113.3966
0
VERTEX
8
CUT
10
87.8477
20
113.4286
0
VERTEX
8
CUT
10
87.8670
20
113.4914
0
VERTEX
8
CUT
10
87.8717
20
113.5076
0
VERTEX
8
CUT
10
87.9009
20
113.6131
0
VERTEX
8
CUT
10
87.9052
20
113.6294
0
VERTEX
8
CUT
10
88.3123
20
115.2796
0
VERTEX
8
CUT
10
88.3154
20
115.2930
0
VERTEX
8
CUT
10
88.3349
20
115.3806
0
VERTEX
8
CUT
10
88.3377
20
115.3941
0
VERTEX
8
CUT
10
88.3482
20
115.4470
0
VERTEX
8
CUT
10
88.3530
20
115.4742
0
VERTEX
8
CUT
10
88.3797
20
115.6515
0
VERTEX
8
CUT
10
88.3832
20
115.6789
0
VERTEX
8
CUT
10
88.3888
20
115.7325
0
VERTEX
8
CUT
10
88.3901
20
115.7463
0
VERTEX
8
CUT
10
88.3973
20
115.8357
0
VERTEX
8
CUT
10
88.3983
20
115.8495
0
VERTEX
8
CUT
10
88.5769
20
118.9360
0
VERTEX
8
CUT
10
88.5775
20
118.9499
0
VERTEX
8
CUT
10
88.5807
20
119.0406
0
VERTEX
8
CUT
10
88.5810
20
119.0545
0
VERTEX
8
CUT
10
88.5816
20
119.1091
0
VERTEX
8
CUT
10
88.5813
20
119.1370
0
VERTEX
8
CUT
10
88.5750
20
119.3158
0
VERTEX
8
CUT
10
88.5704
20
119.3714
0
VERTEX
8
CUT
10
88.5478
20
119.5464
0
VERTEX
8
CUT
10
88.5381
20
119.6014
0
VERTEX
8
CUT
10
88.4994
20
119.7735
0
VERTEX
8
CUT
10
88.4846
20
119.8274
0
VERTEX
8
CUT
10
88.4300
20
119.9952
0
VERTEX
8
CUT
10
88.4103
20
120.0474
0
VERTEX
8
CUT
10
88.3404
20
120.2094
0
VERTEX
8
CUT
10
88.3159
20
120.2596
0
VERTEX
8
CUT
10
88.2312
20
120.4144
0
VERTEX
8
CUT
10
88.2022
20
120.4621
0
VERTEX
8
CUT
10
88.1021
20
120.6104
0
VERTEX
8
CUT
10
88.0860
20
120.6331
0
VERTEX
8
CUT
10
88.0534
20
120.6769
0
VERTEX
8
CUT
10
88.0450
20
120.6880
0
VERTEX
8
CUT
10
87.9891
20
120.7594
0
VERTEX
8
CUT
10
87.9804
20
120.7703
0
VERTEX
8
CUT
10
86.7198
20
122.3083
0
VERTEX
8
CUT
10
86.7101
20
122.3198
0
VERTEX
8
CUT
10
86.6463
20
122.3938
0
VERTEX
8
CUT
10
86.6364
20
122.4050
0
VERTEX
8
CUT
10
86.5970
20
122.4485
0
VERTEX
8
CUT
10
86.5762
20
122.4702
0
VERTEX
8
CUT
10
86.4380
20
122.6081
0
VERTEX
8
CUT
10
86.4162
20
122.6287
0
VERTEX
8
CUT
10
86.3727
20
122.6680
0
VERTEX
8
CUT
10
86.3614
20
122.6779
0
VERTEX
8
CUT
10
86.2873
20
122.7415
0
VERTEX
8
CUT
10
86.2757
20
122.7511
0
VERTEX
8
CUT
10
84.8280
20
123.9311
0
VERTEX
8
CUT
10
84.8166
20
123.9402
0
VERTEX
8
CUT
10
84.7413
20
123.9986
0
VERTEX
8
CUT
10
84.7296
20
124.0074
0
VERTEX
8
CUT
10
84.6835
20
124.0413
0
VERTEX
8
CUT
10
84.6595
20
124.0581
0
VERTEX
8
CUT
10
84.5031
20
124.1620
0
VERTEX
8
CUT
10
84.4527
20
124.1920
0
VERTEX
8
CUT
10
84.2891
20
124.2790
0
VERTEX
8
CUT
10
84.2361
20
124.3039
0
VERTEX
8
CUT
10
84.0648
20
124.3745
0
VERTEX
8
CUT
10
84.0096
20
124.3941
0
VERTEX
8
CUT
10
83.8323
20
124.4476
0
VERTEX
8
CUT
10
83.7754
20
124.4618
0
VERTEX
8
CUT
10
83.5937
20
124.4977
0
VERTEX
8
CUT
10
83.5358
20
124.5063
0
VERTEX
8
CUT
10
83.3514
20
124.5244
0
VERTEX
8
CUT
10
83.2929
20
124.5272
0
VERTEX
8
CUT
10
83.1076
20
124.5272
0
VERTEX
8
CUT
10
83.0491
20
124.5244
0
VERTEX
8
CUT
10
82.8647
20
124.5063
0
VERTEX
8
CUT
10
82.8068
20
124.4977
0
VERTEX
8
CUT
10
82.6250
20
124.4618
0
VERTEX
8
CUT
10
82.5682
20
124.4476
0
VERTEX
8
CUT
10
82.3908
20
124.3941
0
VERTEX
8
CUT
10
82.3356
20
124.3744
0
VERTEX
8
CUT
10
82.1644
20
124.3039
0
VERTEX
8
CUT
10
82.1113
20
124.2789
0
VERTEX
8
CUT
10
81.9478
20
124.1920
0
VERTEX
8
CUT
10
81.8974
20
124.1620
0
VERTEX
8
CUT
10
81.7410
20
124.0581
0
VERTEX
8
CUT
10
81.7170
20
124.0413
0
VERTEX
8
CUT
10
81.6709
20
124.0073
0
VERTEX
8
CUT
10
81.6592
20
123.9985
0
VERTEX
8
CUT
10
81.5839
20
123.9402
0
VERTEX
8
CUT
10
81.5725
20
123.9310
0
VERTEX
8
CUT
10
81.3675
20
123.7639
0
VERTEX
8
CUT
10
81.3553
20
123.7538
0
VERTEX
8
CUT
10
81.2771
20
123.6865
0
VERTEX
8
CUT
10
81.2652
20
123.6760
0
VERTEX
8
CUT
10
81.2193
20
123.6343
0
VERTEX
8
CUT
10
81.1964
20
123.6124
0
VERTEX
8
CUT
10
81.0512
20
123.4660
0
VERTEX
8
CUT
10
81.0295
20
123.4429
0
VERTEX
8
CUT
10
80.9882
20
123.3966
0
VERTEX
8
CUT
10
80.9778
20
123.3846
0
VERTEX
8
CUT
10
80.9112
20
123.3058
0
VERTEX
8
CUT
10
80.9012
20
123.2936
0
VERTEX
8
CUT
10
80.5117
20
122.8073
0
VERTEX
8
CUT
10
80.5019
20
122.7946
0
VERTEX
8
CUT
10
80.4389
20
122.7115
0
VERTEX
8
CUT
10
80.4294
20
122.6986
0
VERTEX
8
CUT
10
80.3929
20
122.6477
0
VERTEX
8
CUT
10
80.3749
20
122.6211
0
VERTEX
8
CUT
10
80.2627
20
122.4455
0
VERTEX
8
CUT
10
80.2462
20
122.4180
0
VERTEX
8
CUT
10
80.2154
20
122.3635
0
VERTEX
8
CUT
10
80.2076
20
122.3494
0
VERTEX
8
CUT
10
80.1588
20
122.2573
0
VERTEX
8
CUT
10
80.1514
20
122.2430
0
VERTEX
8
CUT
10
79.7962
20
121.5285
0
VERTEX
8
CUT
10
79.7916
20
121.5189
0
VERTEX
8
CUT
10
79.7597
20
121.4519
0
VERTEX
8
CUT
10
79.7551
20
121.4419
0
VERTEX
8
CUT
10
79.7350
20
121.3976
0
VERTEX
8
CUT
10
79.7258
20
121.3760
0
VERTEX
8
CUT
10
79.6707
20
121.2407
0
VERTEX
8
CUT
10
79.6626
20
121.2196
0
VERTEX
8
CUT
10
79.6493
20
121.1828
0
VERTEX
8
CUT
10
79.6457
20
121.1728
0
VERTEX
8
CUT
10
79.6219
20
121.1034
0
VERTEX
8
CUT
10
79.6182
20
121.0922
0
VERTEX
8
CUT
10
79.2193
20
119.8511
0
VERTEX
8
CUT
10
79.2135
20
119.8322
0
VERTEX
8
CUT
10
79.1783
20
119.7089
0
VERTEX
8
CUT
10
79.1732
20
119.6898
0
VERTEX
8
CUT
10
79.1342
20
119.5337
0
VERTEX
8
CUT
10
79.1297
20
119.5145
0
VERTEX
8
CUT
10
79.1027
20
119.3891
0
VERTEX
8
CUT
10
79.0989
20
119.3698
0
VERTEX
8
CUT
10
78.8454
20
117.9716
0
VERTEX
8
CUT
10
78.8422
20
117.9518
0
VERTEX
8
CUT
10
78.8232
20
117.8226
0
VERTEX
8
CUT
10
78.8206
20
117.8026
0
VERTEX
8
CUT
10
78.8022
20
117.6399
0
VERTEX
8
CUT
10
78.8003
20
117.6198
0
VERTEX
8
CUT
10
78.7900
20
117.4897
0
VERTEX
8
CUT
10
78.7888
20
117.4696
0
VERTEX
8
CUT
10
78.5878
20
113.0415
0
VERTEX
8
CUT
10
78.5848
20
112.9980
0
VERTEX
8
CUT
10
78.5773
20
112.9185
0
VERTEX
8
CUT
10
78.5650
20
112.8322
0
VERTEX
8
CUT
10
78.5540
20
112.7753
0
VERTEX
8
CUT
10
78.5333
20
112.6906
0
VERTEX
8
CUT
10
78.5169
20
112.6349
0
VERTEX
8
CUT
10
78.4881
20
112.5527
0
VERTEX
8
CUT
10
78.4664
20
112.4989
0
VERTEX
8
CUT
10
78.4298
20
112.4197
0
VERTEX
8
CUT
10
78.4029
20
112.3683
0
VERTEX
8
CUT
10
78.3589
20
112.2931
0
VERTEX
8
CUT
10
78.3271
20
112.2445
0
VERTEX
8
CUT
10
78.2760
20
112.1739
0
VERTEX
8
CUT
10
78.2397
20
112.1286
0
VERTEX
8
CUT
10
78.1820
20
112.0633
0
VERTEX
8
CUT
10
78.1415
20
112.0217
0
VERTEX
8
CUT
10
78.0778
20
111.9623
0
VERTEX
8
CUT
10
78.0335
20
111.9248
0
VERTEX
8
CUT
10
77.9643
20
111.8718
0
VERTEX
8
CUT
10
77.9165
20
111.8388
0
VERTEX
8
CUT
10
77.8425
20
111.7928
0
VERTEX
8
CUT
10
77.7918
20
111.7646
0
VERTEX
8
CUT
10
77.7137
20
111.7259
0
VERTEX
8
CUT
10
77.6605
20
111.7027
0
VERTEX
8
CUT
10
77.5790
20
111.6718
0
VERTEX
8
CUT
10
77.5238
20
111.6539
0
VERTEX
8
CUT
10
77.4397
20
111.6310
0
VERTEX
8
CUT
10
77.3830
20
111.6185
0
VERTEX
8
CUT
10
77.2971
20
111.6038
0
VERTEX
8
CUT
10
77.2395
20
111.5969
0
VERTEX
8
CUT
10
77.1525
20
111.5906
0
VERTEX
8
CUT
10
77.0945
20
111.5892
0
VERTEX
8
CUT
10
77.0074
20
111.5914
0
VERTEX
8
CUT
10
76.9495
20
111.5957
0
VERTEX
8
CUT
10
76.8630
20
111.6063
0
VERTEX
8
CUT
10
76.8058
20
111.6161
0
VERTEX
8
CUT
10
76.7207
20
111.6350
0
VERTEX
8
CUT
10
76.6648
20
111.6504
0
VERTEX
8
CUT
10
76.5819
20
111.6774
0
VERTEX
8
CUT
10
76.5368
20
111.6946
0
VERTEX
8
CUT
10
76.5347
20
111.6954
0
VERTEX
8
CUT
10
76.3056
20
111.7818
0
VERTEX
8
CUT
10
76.2500
20
111.7997
0
VERTEX
8
CUT
10
76.0672
20
111.8489
0
VERTEX
8
CUT
10
76.0088
20
111.8616
0
VERTEX
8
CUT
10
75.8223
20
111.8923
0
VERTEX
8
CUT
10
75.7629
20
111.8991
0
VERTEX
8
CUT
10
75.5744
20
111.9111
0
VERTEX
8
CUT
10
75.5146
20
111.9120
0
VERTEX
8
CUT
10
75.3258
20
111.9052
0
VERTEX
8
CUT
10
75.2662
20
111.9001
0
VERTEX
8
CUT
10
75.0790
20
111.8746
0
VERTEX
8
CUT
10
75.0203
20
111.8636
0
VERTEX
8
CUT
10
74.8365
20
111.8195
0
VERTEX
8
CUT
10
74.7792
20
111.8027
0
VERTEX
8
CUT
10
74.6007
20
111.7406
0
VERTEX
8
CUT
10
74.5453
20
111.7182
0
VERTEX
8
CUT
10
74.3739
20
111.6387
0
VERTEX
8
CUT
10
74.3210
20
111.6108
0
VERTEX
8
CUT
10
74.1584
20
111.5146
0
VERTEX
8
CUT
10
74.1085
20
111.4817
0
VERTEX
8
CUT
10
73.9563
20
111.3698
0
VERTEX
8
CUT
10
73.9099
20
111.3320
0
VERTEX
8
CUT
10
73.7696
20
111.2056
0
VERTEX
8
CUT
10
73.7272
20
111.1634
0
VERTEX
8
CUT
10
73.6001
20
111.0236
0
VERTEX
8
CUT
10
73.5622
20
110.9774
0
VERTEX
8
CUT
10
73.4496
20
110.8256
0
VERTEX
8
CUT
10
73.4165
20
110.7759
0
VERTEX
8
CUT
10
73.3196
20
110.6136
0
VERTEX
8
CUT
10
73.2915
20
110.5609
0
VERTEX
8
CUT
10
73.2113
20
110.3898
0
VERTEX
8
CUT
10
73.1886
20
110.3345
0
VERTEX
8
CUT
10
73.1249
20
110.1538
0
VERTEX
8
CUT
10
73.1157
20
110.1254
0
VERTEX
8
CUT
10
73.0864
20
110.0269
0
VERTEX
8
CUT
10
73.0847
20
110.0211
0
VERTEX
8
CUT
10
73.0796
20
110.0035
0
VERTEX
8
CUT
10
73.0782
20
109.9985
0
VERTEX
8
CUT
10
73.0738
20
109.9835
0
VERTEX
8
CUT
10
73.0719
20
109.9771
0
VERTEX
8
CUT
10
73.0595
20
109.9359
0
VERTEX
8
CUT
10
73.0485
20
109.9019
0
VERTEX
8
CUT
10
73.0223
20
109.8259
0
VERTEX
8
CUT
10
73.0057
20
109.7814
0
VERTEX
8
CUT
10
72.9983
20
109.7631
0
VERTEX
8
CUT
10
72.9937
20
109.7521
0
VERTEX
8
CUT
10
72.1158
20
107.6629
0
VERTEX
8
CUT
10
72.1103
20
107.6495
0
VERTEX
8
CUT
10
72.0760
20
107.5620
0
VERTEX
8
CUT
10
72.0709
20
107.5485
0
VERTEX
8
CUT
10
72.0516
20
107.4955
0
VERTEX
8
CUT
10
72.0423
20
107.4681
0
VERTEX
8
CUT
10
71.9873
20
107.2912
0
VERTEX
8
CUT
10
71.9728
20
107.2352
0
VERTEX
8
CUT
10
71.9356
20
107.0563
0
VERTEX
8
CUT
10
71.9266
20
106.9992
0
VERTEX
8
CUT
10
71.9068
20
106.8176
0
VERTEX
8
CUT
10
71.9033
20
106.7599
0
SEQEND
0
POLYLINE
8
CUT
66
1
70
1
10
0.0
20
0.0
30
0.0
0
VERTEX
8
CUT
10
21.3915
20
64.8826
0
VERTEX
8
CUT
10
21.3924
20
64.8662
0
VERTEX
8
CUT
10
21.3969
20
64.8022
0
VERTEX
8
CUT
10
21.4000
20
64.7694
0
VERTEX
8
CUT
10
21.4261
20
64.5604
0
VERTEX
8
CUT
10
21.4377
20
64.4958
0
VERTEX
8
CUT
10
21.4858
20
64.2937
0
VERTEX
8
CUT
10
21.5045
20
64.2307
0
VERTEX
8
CUT
10
21.5753
20
64.0324
0
VERTEX
8
CUT
10
21.5872
20
64.0017
0
VERTEX
8
CUT
10
21.6121
20
63.9426
0
VERTEX
8
CUT
10
21.6187
20
63.9275
0
VERTEX
8
CUT
10
21.6628
20
63.8302
0
VERTEX
8
CUT
10
21.6697
20
63.8153
0
VERTEX
8
CUT
10
22.1272
20
62.8749
0
VERTEX
8
CUT
10
22.1349
20
62.8596
0
VERTEX
8
CUT
10
22.1863
20
62.7610
0
VERTEX
8
CUT
10
22.1945
20
62.7460
0
VERTEX
8
CUT
10
22.2271
20
62.6877
0
VERTEX
8
CUT
10
22.2446
20
62.6583
0
VERTEX
8
CUT
10
22.3623
20
62.4734
0
VERTEX
8
CUT
10
22.4023
20
62.4179
0
VERTEX
8
CUT
10
22.5403
20
62.2475
0
VERTEX
8
CUT
10
22.5626
20
62.2215
0
VERTEX
8
CUT
10
22.6075
20
62.1722
0
VERTEX
8
CUT
10
22.6192
20
62.1597
0
VERTEX
8
CUT
10
22.6963
20
62.0796
0
VERTEX
8
CUT
10
22.7083
20
62.0674
0
VERTEX
8
CUT
10
23.4130
20
61.3762
0
VERTEX
8
CUT
10
23.4239
20
61.3657
0
VERTEX
8
CUT
10
23.4958
20
61.2986
0
VERTEX
8
CUT
10
23.5070
20
61.2885
0
VERTEX
8
CUT
10
23.5512
20
61.2493
0
VERTEX
8
CUT
10
23.5743
20
61.2298
0
VERTEX
8
CUT
10
23.7257
20
61.1087
0
VERTEX
8
CUT
10
23.7747
20
61.0733
0
VERTEX
8
CUT
10
23.9353
20
60.9694
0
VERTEX
8
CUT
10
23.9877
20
60.9392
0
VERTEX
8
CUT
10
24.1602
20
60.8508
0
VERTEX
8
CUT
10
24.1875
20
60.8377
0
VERTEX
8
CUT
10
24.2414
20
60.8135
0
VERTEX
8
CUT
10
24.2552
20
60.8075
0
VERTEX
8
CUT
10
24.3459
20
60.7694
0
VERTEX
8
CUT
10
24.3599
20
60.7637
0
VERTEX
8
CUT
10
25.0380
20
60.4988
0
VERTEX
8
CUT
10
25.0526
20
60.4933
0
VERTEX
8
CUT
10
25.1479
20
60.4589
0
VERTEX
8
CUT
10
25.1627
20
60.4538
0
VERTEX
8
CUT
10
25.2204
20
60.4347
0
VERTEX
8
CUT
10
25.2503
20
60.4256
0
VERTEX
8
CUT
10
25.4429
20
60.3726
0
VERTEX
8
CUT
10
25.5038
20
60.3592
0
VERTEX
8
CUT
10
25.6982
20
60.3270
0
VERTEX
8
CUT
10
25.7602
20
60.3200
0
VERTEX
8
CUT
10
25.9596
20
60.3079
0
VERTEX
8
CUT
10
25.9908
20
60.3068
0
VERTEX
8
CUT
10
26.0517
20
60.3063
0
VERTEX
8
CUT
10
26.0673
20
60.3064
0
VERTEX
8
CUT
10
26.1686
20
60.3081
0
VERTEX
8
CUT
10
26.1842
20
60.3086
0
VERTEX
8
CUT
10
26.8739
20
60.3386
0
VERTEX
8
CUT
10
26.8901
20
60.3395
0
VERTEX
8
CUT
10
26.9958
20
60.3470
0
VERTEX
8
CUT
10
27.0120
20
60.3484
0
VERTEX
8
CUT
10
27.0753
20
60.3546
0
VERTEX
8
CUT
10
27.1077
20
60.3586
0
VERTEX
8
CUT
10
27.3141
20
60.3903
0
VERTEX
8
CUT
10
27.3779
20
60.4036
0
VERTEX
8
CUT
10
27.5768
20
60.4567
0
VERTEX
8
CUT
10
27.6388
20
60.4769
0
VERTEX
8
CUT
10
27.8335
20
60.5523
0
VERTEX
8
CUT
10
27.8636
20
60.5649
0
VERTEX
8
CUT
10
27.9216
20
60.5911
0
VERTEX
8
CUT
10
27.9363
20
60.5980
0
VERTEX
8
CUT
10
28.0317
20
60.6442
0
VERTEX
8
CUT
10
28.0462
20
60.6515
0
VERTEX
8
CUT
10
28.9499
20
61.1197
0
VERTEX
8
CUT
10
28.9642
20
61.1274
0
VERTEX
8
CUT
10
29.0566
20
61.1785
0
VERTEX
8
CUT
10
29.0707
20
61.1865
0
VERTEX
8
CUT
10
29.1253
20
61.2187
0
VERTEX
8
CUT
10
29.1529
20
61.2360
0
VERTEX
8
CUT
10
29.3263
20
61.3511
0
VERTEX
8
CUT
10
29.3783
20
61.3900
0
VERTEX
8
CUT
10
29.5382
20
61.5232
0
VERTEX
8
CUT
10
29.5626
20
61.5447
0
VERTEX
8
CUT
10
29.6091
20
61.5879
0
VERTEX
8
CUT
10
29.6208
20
61.5991
0
VERTEX
8
CUT
10
29.6962
20
61.6730
0
VERTEX
8
CUT
10
29.7076
20
61.6846
0
VERTEX
8
CUT
10
29.8610
20
61.8435
0
VERTEX
8
CUT
10
29.8726
20
61.8558
0
VERTEX
8
CUT
10
29.9463
20
61.9366
0
VERTEX
8
CUT
10
29.9575
20
61.9492
0
VERTEX
8
CUT
10
30.0004
20
61.9990
0
VERTEX
8
CUT
10
30.0217
20
62.0251
0
VERTEX
8
CUT
10
30.1532
20
62.1962
0
VERTEX
8
CUT
10
30.1912
20
62.2518
0
VERTEX
8
CUT
10
30.3027
20
62.4365
0
VERTEX
8
CUT
10
30.3193
20
62.4658
0
VERTEX
8
CUT
10
30.3501
20
62.5239
0
VERTEX
8
CUT
10
30.3578
20
62.5389
0
VERTEX
8
CUT
10
30.4062
20
62.6370
0
VERTEX
8
CUT
10
30.4135
20
62.6522
0
VERTEX
8
CUT
10
30.8096
20
63.5139
0
VERTEX
8
CUT
10
30.8162
20
63.5288
0
VERTEX
8
CUT
10
30.8577
20
63.6259
0
VERTEX
8
CUT
10
30.8639
20
63.6409
0
VERTEX
8
CUT
10
30.8872
20
63.6998
0
VERTEX
8
CUT
10
30.8983
20
63.7304
0
VERTEX
8
CUT
10
30.9643
20
63.9278
0
VERTEX
8
CUT
10
30.9815
20
63.9904
0
VERTEX
8
CUT
10
31.0252
20
64.1910
0
VERTEX
8
CUT
10
31.0355
20
64.2551
0
VERTEX
8
CUT
10
31.0575
20
64.4620
0
VERTEX
8
CUT
10
31.0601
20
64.4944
0
VERTEX
8
CUT
10
31.0634
20
64.5577
0
VERTEX
8
CUT
10
31.0640
20
64.5740
0
VERTEX
8
CUT
10
31.0666
20
64.6795
0
VERTEX
8
CUT
10
31.0668
20
64.6957
0
VERTEX
8
CUT
10
31.0649
20
65.5190
0
VERTEX
8
CUT
10
31.0646
20
65.5334
0
VERTEX
8
CUT
10
31.0622
20
65.6269
0
VERTEX
8
CUT
10
31.0616
20
65.6413
0
VERTEX
8
CUT
10
31.0588
20
65.6975
0
VERTEX
8
CUT
10
31.0567
20
65.7262
0
VERTEX
8
CUT
10
31.0385
20
65.9098
0
VERTEX
8
CUT
10
31.0302
20
65.9668
0
VERTEX
8
CUT
10
30.9950
20
66.1454
0
VERTEX
8
CUT
10
30.9812
20
66.2013
0
VERTEX
8
CUT
10
30.9291
20
66.3757
0
VERTEX
8
CUT
10
30.9100
20
66.4300
0
VERTEX
8
CUT
10
30.8405
20
66.6009
0
VERTEX
8
CUT
10
30.8290
20
66.6273
0
VERTEX
8
CUT
10
30.8053
20
66.6783
0
VERTEX
8
CUT
10
30.7991
20
66.6913
0
VERTEX
8
CUT
10
30.7577
20
66.7752
0
VERTEX
8
CUT
10
30.7512
20
66.7881
0
VERTEX
8
CUT
10
30.3338
20
67.5853
0
VERTEX
8
CUT
10
30.3267
20
67.5985
0
VERTEX
8
CUT
10
30.2796
20
67.6833
0
VERTEX
8
CUT
10
30.2722
20
67.6962
0
VERTEX
8
CUT
10
30.2426
20
67.7465
0
VERTEX
8
CUT
10
30.2268
20
67.7718
0
VERTEX
8
CUT
10
30.1217
20
67.9316
0
VERTEX
8
CUT
10
30.0865
20
67.9798
0
VERTEX
8
CUT
10
29.9676
20
68.1264
0
VERTEX
8
CUT
10
29.9278
20
68.1708
0
VERTEX
8
CUT
10
29.7931
20
68.3067
0
VERTEX
8
CUT
10
29.7716
20
68.3274
0
VERTEX
8
CUT
10
29.7286
20
68.3667
0
VERTEX
8
CUT
10
29.7174
20
68.3766
0
VERTEX
8
CUT
10
29.6442
20
68.4402
0
VERTEX
8
CUT
10
29.6328
20
68.4499
0
VERTEX
8
CUT
10
28.8951
20
69.0593
0
VERTEX
8
CUT
10
28.8847
20
69.0676
0
VERTEX
8
CUT
10
28.8168
20
69.1213
0
VERTEX
8
CUT
10
28.8062
20
69.1294
0
VERTEX
8
CUT
10
28.7647
20
69.1608
0
VERTEX
8
CUT
10
28.7430
20
69.1763
0
VERTEX
8
CUT
10
28.6022
20
69.2730
0
VERTEX
8
CUT
10
28.5570
20
69.3012
0
VERTEX
8
CUT
10
28.4102
20
69.3838
0
VERTEX
8
CUT
10
28.3627
20
69.4079
0
VERTEX
8
CUT
10
28.2091
20
69.4772
0
VERTEX
8
CUT
10
28.1596
20
69.4969
0
VERTEX
8
CUT
10
27.9983
20
69.5531
0
VERTEX
8
CUT
10
27.9730
20
69.5613
0
VERTEX
8
CUT
10
27.9231
20
69.5762
0
VERTEX
8
CUT
10
27.9103
20
69.5799
0
VERTEX
8
CUT
10
27.8268
20
69.6029
0
VERTEX
8
CUT
10
27.8140
20
69.6062
0
VERTEX
8
CUT
10
27.3750
20
69.7166
0
VERTEX
8
CUT
10
27.3594
20
69.7203
0
VERTEX
8
CUT
10
27.2580
20
69.7430
0
VERTEX
8
CUT
10
27.2423
20
69.7462
0
VERTEX
8
CUT
10
27.1811
20
69.7582
0
VERTEX
8
CUT
10
27.1496
20
69.7635
0
VERTEX
8
CUT
10
26.9467
20
69.7920
0
VERTEX
8
CUT
10
26.8830
20
69.7976
0
VERTEX
8
CUT
10
26.6783
20
69.8044
0
VERTEX
8
CUT
10
26.6463
20
69.8046
0
VERTEX
8
CUT
10
26.5839
20
69.8033
0
VERTEX
8
CUT
10
26.5679
20
69.8028
0
VERTEX
8
CUT
10
26.4641
20
69.7979
0
VERTEX
8
CUT
10
26.4482
20
69.7969
0
VERTEX
8
CUT
10
25.4959
20
69.7269
0
VERTEX
8
CUT
10
25.4791
20
69.7254
0
VERTEX
8
CUT
10
25.3705
20
69.7143
0
VERTEX
8
CUT
10
25.3538
20
69.7124
0
VERTEX
8
CUT
10
25.2888
20
69.7039
0
VERTEX
8
CUT
10
25.2556
20
69.6987
0
VERTEX
8
CUT
10
25.0440
20
69.6590
0
VERTEX
8
CUT
10
24.9788
20
69.6429
0
VERTEX
8
CUT
10
24.7730
20
69.5798
0
VERTEX
8
CUT
10
24.7411
20
69.5691
0
VERTEX
8
CUT
10
24.6796
20
69.5464
0
VERTEX
8
CUT
10
24.6640
20
69.5403
0
VERTEX
8
CUT
10
24.5626
20
69.4997
0
VERTEX
8
CUT
10
24.5471
20
69.4932
0
VERTEX
8
CUT
10
24.2764
20
69.3757
0
VERTEX
8
CUT
10
24.2645
20
69.3704
0
VERTEX
8
CUT
10
24.1872
20
69.3348
0
VERTEX
8
CUT
10
24.1754
20
69.3292
0
VERTEX
8
CUT
10
24.1294
20
69.3068
0
VERTEX
8
CUT
10
24.1061
20
69.2948
0
VERTEX
8
CUT
10
23.9586
20
69.2149
0
VERTEX
8
CUT
10
23.9137
20
69.1879
0
VERTEX
8
CUT
10
23.7756
20
69.0967
0
VERTEX
8
CUT
10
23.7333
20
69.0659
0
VERTEX
8
CUT
10
23.6019
20
68.9616
0
VERTEX
8
CUT
10
23.5818
20
68.9448
0
VERTEX
8
CUT
10
23.5431
20
68.9113
0
VERTEX
8
CUT
10
23.5334
20
68.9026
0
VERTEX
8
CUT
10
23.4704
20
68.8455
0
VERTEX
8
CUT
10
23.4608
20
68.8366
0
VERTEX
8
CUT
10
22.7836
20
68.1948
0
VERTEX
8
CUT
10
22.7737
20
68.1852
0
VERTEX
8
CUT
10
22.7105
20
68.1225
0
VERTEX
8
CUT
10
22.7009
20
68.1127
0
VERTEX
8
CUT
10
22.6637
20
68.0741
0
VERTEX
8
CUT
10
22.6452
20
68.0540
0
VERTEX
8
CUT
10
22.5292
20
67.9220
0
VERTEX
8
CUT
10
22.4949
20
67.8792
0
VERTEX
8
CUT
10
22.3929
20
67.7391
0
VERTEX
8
CUT
10
22.3627
20
67.6933
0
VERTEX
8
CUT
10
22.2726
20
67.5425
0
VERTEX
8
CUT
10
22.2591
20
67.5186
0
VERTEX
8
CUT
10
22.2338
20
67.4714
0
VERTEX
8
CUT
10
22.2275
20
67.4593
0
VERTEX
8
CUT
10
22.1872
20
67.3798
0
VERTEX
8
CUT
10
22.1811
20
67.3675
0
VERTEX
8
CUT
10
21.6556
20
66.2705
0
VERTEX
8
CUT
10
21.6498
20
66.2579
0
VERTEX
8
CUT
10
21.6129
20
66.1760
0
VERTEX
8
CUT
10
21.6073
20
66.1633
0
VERTEX
8
CUT
10
21.5863
20
66.1136
0
VERTEX
8
CUT
10
21.5761
20
66.0879
0
VERTEX
8
CUT
10
21.5145
20
65.9216
0
VERTEX
8
CUT
10
21.4977
20
65.8689
0
VERTEX
8
CUT
10
21.4524
20
65.7000
0
VERTEX
8
CUT
10
21.4405
20
65.6460
0
VERTEX
8
CUT
10
21.4110
20
65.4737
0
VERTEX
8
CUT
10
21.4041
20
65.4188
0
VERTEX
8
CUT
10
21.3903
20
65.2421
0
VERTEX
8
CUT
10
21.3888
20
65.2145
0
VERTEX
8
CUT
10
21.3871
20
65.1605
0
VERTEX
8
CUT
10
21.3868
20
65.1466
0
VERTEX
8
CUT
10
21.3860
20
65.0568
0
VERTEX
8
CUT
10
21.3861
20
65.0429
0
VERTEX
8
CUT
10
21.3866
20
65.0057
0
VERTEX
8
CUT
10
21.3871
20
64.9893
0
SEQEND
0
ENDSEC
0
EOF
