0
SECTION
2
ENTITIES
0
POLYLINE
8
CUT
66
1
70
1
0
VERTEX
8
CUT
10
277.6667
20
126.0813
0
VERTEX
8
CUT
10
274.8858
20
123.8487
0
VERTEX
8
CUT
10
274.1741
20
123.6756
0
VERTEX
8
CUT
10
273.6382
20
124.4458
0
VERTEX
8
CUT
10
272.8699
20
126.8746
0
VERTEX
8
CUT
10
272.3711
20
129.7196
0
VERTEX
8
CUT
10
272.3680
20
131.7164
0
VERTEX
8
CUT
10
272.6672
20
133.8495
0
VERTEX
8
CUT
10
273.2358
20
135.9938
0
VERTEX
8
CUT
10
274.5290
20
138.8151
0
VERTEX
8
CUT
10
275.8232
20
140.5929
0
VERTEX
8
CUT
10
279.1994
20
144.0276
0
VERTEX
8
CUT
10
284.4767
20
148.8655
0
VERTEX
8
CUT
10
285.5933
20
150.2064
0
VERTEX
8
CUT
10
284.6962
20
151.2953
0
VERTEX
8
CUT
10
276.6552
20
158.8681
0
VERTEX
8
CUT
10
274.4292
20
161.8886
0
VERTEX
8
CUT
10
273.5780
20
163.5326
0
VERTEX
8
CUT
10
272.5529
20
166.9008
0
VERTEX
8
CUT
10
272.3681
20
170.4068
0
VERTEX
8
CUT
10
272.6035
20
172.1701
0
VERTEX
8
CUT
10
273.5023
20
175.5212
0
VERTEX
8
CUT
10
273.9914
20
176.4623
0
VERTEX
8
CUT
10
274.5262
20
176.8650
0
VERTEX
8
CUT
10
276.1020
20
175.8327
0
VERTEX
8
CUT
10
278.5153
20
173.5682
0
VERTEX
8
CUT
10
277.9473
20
169.3433
0
VERTEX
8
CUT
10
278.3418
20
166.8958
0
VERTEX
8
CUT
10
279.3687
20
164.3761
0
VERTEX
8
CUT
10
281.0440
20
161.9857
0
VERTEX
8
CUT
10
284.2295
20
158.8598
0
VERTEX
8
CUT
10
287.8923
20
155.7847
0
VERTEX
8
CUT
10
288.8911
20
155.1478
0
VERTEX
8
CUT
10
289.3224
20
155.2399
0
VERTEX
8
CUT
10
289.6631
20
156.1951
0
VERTEX
8
CUT
10
289.9729
20
158.6926
0
VERTEX
8
CUT
10
289.6854
20
160.7442
0
VERTEX
8
CUT
10
288.5582
20
164.8304
0
VERTEX
8
CUT
10
288.2919
20
164.9734
0
VERTEX
8
CUT
10
287.9750
20
164.8567
0
VERTEX
8
CUT
10
285.6923
20
161.7936
0
VERTEX
8
CUT
10
284.6093
20
160.9827
0
VERTEX
8
CUT
10
283.7238
20
161.2726
0
VERTEX
8
CUT
10
282.6286
20
162.2698
0
VERTEX
8
CUT
10
281.7242
20
163.4121
0
VERTEX
8
CUT
10
281.3345
20
164.3348
0
VERTEX
8
CUT
10
281.9546
20
165.7619
0
VERTEX
8
CUT
10
284.2785
20
169.2471
0
VERTEX
8
CUT
10
285.4701
20
171.5957
0
VERTEX
8
CUT
10
286.3116
20
173.9087
0
VERTEX
8
CUT
10
286.8063
20
176.2470
0
VERTEX
8
CUT
10
286.9270
20
178.5884
0
VERTEX
8
CUT
10
286.6958
20
180.8702
0
VERTEX
8
CUT
10
286.0792
20
183.1797
0
VERTEX
8
CUT
10
284.6266
20
186.4912
0
VERTEX
8
CUT
10
284.3509
20
187.6157
0
VERTEX
8
CUT
10
285.0443
20
191.3696
0
VERTEX
8
CUT
10
285.7202
20
192.6476
0
VERTEX
8
CUT
10
286.2326
20
192.9806
0
VERTEX
8
CUT
10
287.4630
20
191.9483
0
VERTEX
8
CUT
10
289.7921
20
188.2287
0
VERTEX
8
CUT
10
291.4725
20
184.2143
0
VERTEX
8
CUT
10
292.1510
20
180.7353
0
VERTEX
8
CUT
10
292.2414
20
175.7840
0
VERTEX
8
CUT
10
291.9388
20
173.3449
0
VERTEX
8
CUT
10
291.2531
20
171.0597
0
VERTEX
8
CUT
10
288.9067
20
166.1442
0
VERTEX
8
CUT
10
289.1521
20
165.8767
0
VERTEX
8
CUT
10
289.5116
20
165.9272
0
VERTEX
8
CUT
10
291.3347
20
168.5262
0
VERTEX
8
CUT
10
291.8549
20
168.9510
0
VERTEX
8
CUT
10
292.2686
20
168.7798
0
VERTEX
8
CUT
10
293.1917
20
167.2492
0
VERTEX
8
CUT
10
294.5421
20
163.6978
0
VERTEX
8
CUT
10
295.0538
20
160.1286
0
VERTEX
8
CUT
10
294.8478
20
154.8997
0
VERTEX
8
CUT
10
293.2410
20
150.1758
0
VERTEX
8
CUT
10
294.5410
20
146.5913
0
VERTEX
8
CUT
10
294.9874
20
144.8132
0
VERTEX
8
CUT
10
295.1692
20
140.7435
0
VERTEX
8
CUT
10
294.3742
20
136.2694
0
VERTEX
8
CUT
10
293.5214
20
133.7371
0
VERTEX
8
CUT
10
293.0233
20
132.8003
0
VERTEX
8
CUT
10
292.4686
20
132.2015
0
VERTEX
8
CUT
10
291.7374
20
132.2143
0
VERTEX
8
CUT
10
290.4233
20
134.0595
0
VERTEX
8
CUT
10
288.9027
20
136.7214
0
VERTEX
8
CUT
10
289.7742
20
139.7863
0
VERTEX
8
CUT
10
290.0331
20
141.7499
0
VERTEX
8
CUT
10
289.6648
20
144.4443
0
VERTEX
8
CUT
10
289.2405
20
145.3197
0
VERTEX
8
CUT
10
288.6781
20
145.2858
0
VERTEX
8
CUT
10
287.3239
20
144.3244
0
VERTEX
8
CUT
10
284.8720
20
142.2220
0
VERTEX
8
CUT
10
282.3086
20
139.6288
0
VERTEX
8
CUT
10
282.3990
20
139.3117
0
VERTEX
8
CUT
10
282.7377
20
139.1796
0
VERTEX
8
CUT
10
283.7932
20
139.8290
0
VERTEX
8
CUT
10
284.4266
20
139.8711
0
VERTEX
8
CUT
10
286.5408
20
137.4459
0
VERTEX
8
CUT
10
288.6078
20
134.4637
0
VERTEX
8
CUT
10
290.7458
20
130.8615
0
VERTEX
8
CUT
10
291.9058
20
127.7792
0
VERTEX
8
CUT
10
292.2070
20
126.1690
0
VERTEX
8
CUT
10
292.3878
20
124.4184
0
VERTEX
8
CUT
10
292.3878
20
119.5281
0
VERTEX
8
CUT
10
291.7676
20
116.1168
0
VERTEX
8
CUT
10
290.5276
20
112.8628
0
VERTEX
8
CUT
10
289.4354
20
110.7059
0
VERTEX
8
CUT
10
288.2940
20
108.8472
0
VERTEX
8
CUT
10
287.0053
20
107.3645
0
VERTEX
8
CUT
10
286.4475
20
107.2070
0
VERTEX
8
CUT
10
285.9358
20
107.7877
0
VERTEX
8
CUT
10
284.2048
20
112.2851
0
VERTEX
8
CUT
10
285.6919
20
115.3825
0
VERTEX
8
CUT
10
286.8723
20
119.1553
0
VERTEX
8
CUT
10
287.1900
20
121.7319
0
VERTEX
8
CUT
10
286.8979
20
124.4907
0
VERTEX
8
CUT
10
286.0102
20
127.4097
0
VERTEX
8
CUT
10
285.3318
20
128.9739
0
VERTEX
8
CUT
10
280.4806
20
137.1293
0
VERTEX
8
CUT
10
280.0850
20
137.0347
0
VERTEX
8
CUT
10
279.5177
20
136.1959
0
VERTEX
8
CUT
10
278.2597
20
133.3324
0
VERTEX
8
CUT
10
278.0909
20
130.6242
0
VERTEX
8
CUT
10
278.3409
20
127.0172
0
VERTEX
8
CUT
10
277.6667
20
126.0813
0
SEQEND
0
POLYLINE
8
CUT
66
1
70
1
0
VERTEX
8
CUT
10
260.4633
20
217.2365
0
VERTEX
8
CUT
10
260.8544
20
217.5438
0
VERTEX
8
CUT
10
260.6602
20
217.9687
0
VERTEX
8
CUT
10
253.4221
20
221.1452
0
VERTEX
8
CUT
10
250.9683
20
222.5919
0
VERTEX
8
CUT
10
248.9511
20
224.1912
0
VERTEX
8
CUT
10
247.0760
20
226.0948
0
VERTEX
8
CUT
10
245.5586
20
228.0032
0
VERTEX
8
CUT
10
243.9724
20
231.0578
0
VERTEX
8
CUT
10
242.9560
20
234.6090
0
VERTEX
8
CUT
10
242.7790
20
236.0254
0
VERTEX
8
CUT
10
242.9473
20
236.5919
0
VERTEX
8
CUT
10
243.7061
20
236.8365
0
VERTEX
8
CUT
10
247.5516
20
235.8717
0
VERTEX
8
CUT
10
248.4716
20
234.9498
0
VERTEX
8
CUT
10
248.9619
20
233.2966
0
VERTEX
8
CUT
10
250.2306
20
230.9653
0
VERTEX
8
CUT
10
251.3037
20
229.4903
0
VERTEX
8
CUT
10
252.5313
20
228.3519
0
VERTEX
8
CUT
10
255.9204
20
226.2687
0
VERTEX
8
CUT
10
265.2204
20
222.0286
0
VERTEX
8
CUT
10
266.9312
20
220.8831
0
VERTEX
8
CUT
10
267.4268
20
217.8848
0
VERTEX
8
CUT
10
267.4552
20
216.2238
0
VERTEX
8
CUT
10
267.1600
20
215.2768
0
VERTEX
8
CUT
10
266.3238
20
215.3993
0
VERTEX
8
CUT
10
261.8954
20
217.4327
0
VERTEX
8
CUT
10
261.4773
20
217.3189
0
VERTEX
8
CUT
10
261.4071
20
216.9240
0
VERTEX
8
CUT
10
262.5959
20
215.7563
0
VERTEX
8
CUT
10
262.8551
20
213.6633
0
VERTEX
8
CUT
10
263.5405
20
211.4656
0
VERTEX
8
CUT
10
264.2172
20
210.0280
0
VERTEX
8
CUT
10
265.7741
20
207.9319
0
VERTEX
8
CUT
10
267.3353
20
206.5418
0
VERTEX
8
CUT
10
269.6385
20
204.9078
0
VERTEX
8
CUT
10
277.6084
20
199.9554
0
VERTEX
8
CUT
10
278.3860
20
199.1467
0
VERTEX
8
CUT
10
278.4420
20
198.1799
0
VERTEX
8
CUT
10
278.0303
20
195.5561
0
VERTEX
8
CUT
10
277.6411
20
194.2021
0
VERTEX
8
CUT
10
277.3358
20
193.8570
0
VERTEX
8
CUT
10
276.1027
20
194.3806
0
VERTEX
8
CUT
10
270.2736
20
197.8810
0
VERTEX
8
CUT
10
269.8750
20
197.8329
0
VERTEX
8
CUT
10
269.7301
20
197.4585
0
VERTEX
8
CUT
10
271.9581
20
195.6206
0
VERTEX
8
CUT
10
272.2311
20
194.6346
0
VERTEX
8
CUT
10
272.8698
20
189.6105
0
VERTEX
8
CUT
10
273.3837
20
188.2967
0
VERTEX
8
CUT
10
274.1729
20
186.9848
0
VERTEX
8
CUT
10
276.7164
20
184.1282
0
VERTEX
8
CUT
10
283.7982
20
178.0125
0
VERTEX
8
CUT
10
285.1331
20
176.6584
0
VERTEX
8
CUT
10
285.4733
20
175.6359
0
VERTEX
8
CUT
10
285.0793
20
173.8024
0
VERTEX
8
CUT
10
284.1937
20
171.6479
0
VERTEX
8
CUT
10
283.4623
20
170.9104
0
VERTEX
8
CUT
10
282.5814
20
171.4003
0
VERTEX
8
CUT
10
273.3352
20
179.3853
0
VERTEX
8
CUT
10
270.6105
20
182.2271
0
VERTEX
8
CUT
10
268.7502
20
184.9312
0
VERTEX
8
CUT
10
267.5493
20
187.7732
0
VERTEX
8
CUT
10
267.0704
20
189.5928
0
VERTEX
8
CUT
10
266.8605
20
191.5923
0
VERTEX
8
CUT
10
266.8602
20
194.9083
0
VERTEX
8
CUT
10
267.1550
20
196.9924
0
VERTEX
8
CUT
10
267.4604
20
197.6466
0
VERTEX
8
CUT
10
267.9804
20
197.9910
0
VERTEX
8
CUT
10
269.0819
20
197.8573
0
VERTEX
8
CUT
10
269.3057
20
198.3564
0
VERTEX
8
CUT
10
264.4692
20
201.5889
0
VERTEX
8
CUT
10
262.2458
20
203.5137
0
VERTEX
8
CUT
10
260.5160
20
205.4793
0
VERTEX
8
CUT
10
259.1634
20
207.5949
0
VERTEX
8
CUT
10
258.1639
20
209.9550
0
VERTEX
8
CUT
10
257.5150
20
212.5025
0
VERTEX
8
CUT
10
257.1364
20
215.2980
0
VERTEX
8
CUT
10
257.2037
20
217.7132
0
VERTEX
8
CUT
10
257.4342
20
218.0437
0
VERTEX
8
CUT
10
257.9468
20
218.1197
0
VERTEX
8
CUT
10
259.0493
20
217.5743
0
VERTEX
8
CUT
10
260.4633
20
217.2365
0
SEQEND
0
POLYLINE
8
CUT
66
1
70
1
0
VERTEX
8
CUT
10
80.4516
20
126.3246
0
VERTEX
8
CUT
10
79.9117
20
126.3827
0
VERTEX
8
CUT
10
79.2082
20
125.1435
0
VERTEX
8
CUT
10
78.6435
20
124.9463
0
VERTEX
8
CUT
10
77.1391
20
125.5682
0
VERTEX
8
CUT
10
76.5778
20
126.4263
0
VERTEX
8
CUT
10
77.1116
20
127.2661
0
VERTEX
8
CUT
10
79.6090
20
128.9664
0
VERTEX
8
CUT
10
80.4905
20
128.7102
0
VERTEX
8
CUT
10
82.6903
20
127.4785
0
VERTEX
8
CUT
10
85.2141
20
125.3651
0
VERTEX
8
CUT
10
85.5367
20
125.4128
0
VERTEX
8
CUT
10
86.0135
20
125.8841
0
VERTEX
8
CUT
10
86.7693
20
125.8285
0
VERTEX
8
CUT
10
90.5395
20
123.9247
0
VERTEX
8
CUT
10
92.5650
20
124.3953
0
VERTEX
8
CUT
10
93.0968
20
124.3109
0
VERTEX
8
CUT
10
93.5433
20
123.6854
0
VERTEX
8
CUT
10
93.5993
20
122.7232
0
VERTEX
8
CUT
10
93.0012
20
121.7388
0
VERTEX
8
CUT
10
92.1828
20
120.9381
0
VERTEX
8
CUT
10
92.1433
20
120.5780
0
VERTEX
8
CUT
10
93.6756
20
119.6082
0
VERTEX
8
CUT
10
94.8654
20
117.7683
0
VERTEX
8
CUT
10
95.5234
20
116.1975
0
VERTEX
8
CUT
10
97.8588
20
113.3169
0
VERTEX
8
CUT
10
99.7820
20
111.4831
0
VERTEX
8
CUT
10
101.9521
20
110.0103
0
VERTEX
8
CUT
10
105.2265
20
108.5449
0
VERTEX
8
CUT
10
107.7329
20
108.0203
0
VERTEX
8
CUT
10
110.9303
20
107.8470
0
VERTEX
8
CUT
10
114.1332
20
107.9911
0
VERTEX
8
CUT
10
116.6615
20
108.4761
0
VERTEX
8
CUT
10
118.0871
20
109.1071
0
VERTEX
8
CUT
10
118.1598
20
109.3927
0
VERTEX
8
CUT
10
117.9808
20
109.6692
0
VERTEX
8
CUT
10
114.4336
20
111.3296
0
VERTEX
8
CUT
10
112.5685
20
112.5454
0
VERTEX
8
CUT
10
111.1528
20
113.8782
0
VERTEX
8
CUT
10
111.2319
20
114.2994
0
VERTEX
8
CUT
10
111.8626
20
115.0863
0
VERTEX
8
CUT
10
113.5291
20
116.7063
0
VERTEX
8
CUT
10
113.9742
20
116.7403
0
VERTEX
8
CUT
10
116.7080
20
114.7191
0
VERTEX
8
CUT
10
119.4716
20
113.6487
0
VERTEX
8
CUT
10
122.5714
20
113.2974
0
VERTEX
8
CUT
10
124.2058
20
113.4741
0
VERTEX
8
CUT
10
125.7086
20
113.8156
0
VERTEX
8
CUT
10
127.1425
20
114.3892
0
VERTEX
8
CUT
10
129.4851
20
115.9578
0
VERTEX
8
CUT
10
131.5965
20
118.1780
0
VERTEX
8
CUT
10
133.2379
20
120.8161
0
VERTEX
8
CUT
10
134.2612
20
123.6295
0
VERTEX
8
CUT
10
134.4686
20
125.0987
0
VERTEX
8
CUT
10
134.4377
20
128.2913
0
VERTEX
8
CUT
10
133.8817
20
134.0033
0
VERTEX
8
CUT
10
134.0291
20
137.4223
0
VERTEX
8
CUT
10
134.6263
20
139.8751
0
VERTEX
8
CUT
10
136.6049
20
145.5457
0
VERTEX
8
CUT
10
136.9559
20
148.0105
0
VERTEX
8
CUT
10
136.6366
20
150.6155
0
VERTEX
8
CUT
10
134.7916
20
157.0335
0
VERTEX
8
CUT
10
134.4972
20
158.7781
0
VERTEX
8
CUT
10
133.8578
20
166.9687
0
VERTEX
8
CUT
10
132.9466
20
169.7783
0
VERTEX
8
CUT
10
131.8335
20
171.5373
0
VERTEX
8
CUT
10
130.4743
20
173.1545
0
VERTEX
8
CUT
10
127.1495
20
176.0745
0
VERTEX
8
CUT
10
124.0853
20
177.9920
0
VERTEX
8
CUT
10
123.1654
20
179.5860
0
VERTEX
8
CUT
10
122.7425
20
179.6026
0
VERTEX
8
CUT
10
122.0843
20
178.8920
0
VERTEX
8
CUT
10
121.2803
20
178.8925
0
VERTEX
8
CUT
10
119.3328
20
179.6598
0
VERTEX
8
CUT
10
116.5073
20
181.1305
0
VERTEX
8
CUT
10
114.6677
20
182.4577
0
VERTEX
8
CUT
10
113.2640
20
184.3438
0
VERTEX
8
CUT
10
111.3922
20
185.1548
0
VERTEX
8
CUT
10
110.3483
20
185.9864
0
VERTEX
8
CUT
10
109.5701
20
187.0440
0
VERTEX
8
CUT
10
109.5899
20
188.4027
0
VERTEX
8
CUT
10
109.4492
20
188.6662
0
VERTEX
8
CUT
10
108.5890
20
188.7007
0
VERTEX
8
CUT
10
107.6543
20
188.3455
0
VERTEX
8
CUT
10
106.6595
20
188.8272
0
VERTEX
8
CUT
10
106.1761
20
189.6933
0
VERTEX
8
CUT
10
106.1148
20
192.3029
0
VERTEX
8
CUT
10
105.6838
20
193.1361
0
VERTEX
8
CUT
10
105.3342
20
193.2378
0
VERTEX
8
CUT
10
105.0634
20
193.0952
0
VERTEX
8
CUT
10
104.1542
20
191.1411
0
VERTEX
8
CUT
10
103.3800
20
190.0969
0
VERTEX
8
CUT
10
102.9296
20
189.7756
0
VERTEX
8
CUT
10
102.3806
20
189.6337
0
VERTEX
8
CUT
10
101.1246
20
189.7330
0
VERTEX
8
CUT
10
100.7506
20
189.9662
0
VERTEX
8
CUT
10
100.5730
20
190.6060
0
VERTEX
8
CUT
10
100.9098
20
191.6535
0
VERTEX
8
CUT
10
101.9485
20
193.5642
0
VERTEX
8
CUT
10
102.4064
20
193.9956
0
VERTEX
8
CUT
10
103.7704
20
194.3451
0
VERTEX
8
CUT
10
104.1320
20
195.9302
0
VERTEX
8
CUT
10
105.4904
20
197.8968
0
VERTEX
8
CUT
10
107.6487
20
199.9954
0
VERTEX
8
CUT
10
108.5042
20
200.4999
0
VERTEX
8
CUT
10
109.0913
20
200.5073
0
VERTEX
8
CUT
10
109.4585
20
199.8656
0
VERTEX
8
CUT
10
109.3337
20
198.6653
0
VERTEX
8
CUT
10
106.7953
20
195.7687
0
VERTEX
8
CUT
10
106.5577
20
194.9992
0
VERTEX
8
CUT
10
106.7300
20
193.8758
0
VERTEX
8
CUT
10
107.4391
20
193.6027
0
VERTEX
8
CUT
10
107.7875
20
193.7132
0
VERTEX
8
CUT
10
107.7964
20
195.3768
0
VERTEX
8
CUT
10
108.2227
20
195.8348
0
VERTEX
8
CUT
10
108.8440
20
195.8318
0
VERTEX
8
CUT
10
109.6135
20
195.1201
0
VERTEX
8
CUT
10
110.2696
20
193.2500
0
VERTEX
8
CUT
10
111.9408
20
191.9011
0
VERTEX
8
CUT
10
113.3772
20
190.0605
0
VERTEX
8
CUT
10
117.1891
20
186.9703
0
VERTEX
8
CUT
10
121.3470
20
185.1435
0
VERTEX
8
CUT
10
124.7295
20
184.2407
0
VERTEX
8
CUT
10
126.9348
20
182.6677
0
VERTEX
8
CUT
10
128.4813
20
182.8916
0
VERTEX
8
CUT
10
132.1450
20
180.5506
0
VERTEX
8
CUT
10
132.9424
20
180.2171
0
VERTEX
8
CUT
10
133.3168
20
180.3483
0
VERTEX
8
CUT
10
133.3827
20
180.7394
0
VERTEX
8
CUT
10
132.9119
20
181.4659
0
VERTEX
8
CUT
10
130.7952
20
183.6154
0
VERTEX
8
CUT
10
128.2906
20
185.6847
0
VERTEX
8
CUT
10
123.6053
20
189.0469
0
VERTEX
8
CUT
10
117.4261
20
195.0205
0
VERTEX
8
CUT
10
115.1072
20
196.8416
0
VERTEX
8
CUT
10
112.5524
20
197.2435
0
VERTEX
8
CUT
10
111.9543
20
197.5939
0
VERTEX
8
CUT
10
111.5911
20
198.1244
0
VERTEX
8
CUT
10
112.1530
20
200.8909
0
VERTEX
8
CUT
10
112.6813
20
201.3882
0
VERTEX
8
CUT
10
114.3963
20
202.0362
0
VERTEX
8
CUT
10
115.5402
20
201.9412
0
VERTEX
8
CUT
10
116.6960
20
201.4903
0
VERTEX
8
CUT
10
117.0998
20
201.7762
0
VERTEX
8
CUT
10
117.1821
20
208.8562
0
VERTEX
8
CUT
10
118.0433
20
211.7605
0
VERTEX
8
CUT
10
117.7571
20
212.0934
0
VERTEX
8
CUT
10
116.8320
20
211.9378
0
VERTEX
8
CUT
10
115.8750
20
212.4520
0
VERTEX
8
CUT
10
115.5421
20
213.1230
0
VERTEX
8
CUT
10
115.6525
20
214.0488
0
VERTEX
8
CUT
10
115.8791
20
214.2960
0
VERTEX
8
CUT
10
116.4651
20
214.3369
0
VERTEX
8
CUT
10
118.4665
20
213.3513
0
VERTEX
8
CUT
10
118.8728
20
213.4122
0
VERTEX
8
CUT
10
121.5665
20
217.7802
0
VERTEX
8
CUT
10
123.3334
20
220.0171
0
VERTEX
8
CUT
10
124.7487
20
221.4714
0
VERTEX
8
CUT
10
125.2293
20
221.6934
0
VERTEX
8
CUT
10
125.6770
20
221.5453
0
VERTEX
8
CUT
10
127.1654
20
220.3372
0
VERTEX
8
CUT
10
129.0307
20
219.5142
0
VERTEX
8
CUT
10
129.3795
20
218.8217
0
VERTEX
8
CUT
10
129.0846
20
217.9464
0
VERTEX
8
CUT
10
126.9472
20
215.3086
0
VERTEX
8
CUT
10
125.7976
20
213.5689
0
VERTEX
8
CUT
10
124.8834
20
211.6445
0
VERTEX
8
CUT
10
124.9445
20
211.1574
0
VERTEX
8
CUT
10
125.6676
20
210.5677
0
VERTEX
8
CUT
10
129.6684
20
208.6379
0
VERTEX
8
CUT
10
132.6870
20
206.9214
0
VERTEX
8
CUT
10
135.0756
20
205.2690
0
VERTEX
8
CUT
10
137.8419
20
202.8967
0
VERTEX
8
CUT
10
138.2174
20
202.7832
0
VERTEX
8
CUT
10
138.5581
20
203.1424
0
VERTEX
8
CUT
10
138.3642
20
206.1796
0
VERTEX
8
CUT
10
138.8071
20
208.6620
0
VERTEX
8
CUT
10
139.2696
20
209.9855
0
VERTEX
8
CUT
10
140.7156
20
212.7266
0
VERTEX
8
CUT
10
142.5473
20
215.3242
0
VERTEX
8
CUT
10
146.5053
20
219.7220
0
VERTEX
8
CUT
10
150.0926
20
223.1044
0
VERTEX
8
CUT
10
151.0908
20
223.4805
0
VERTEX
8
CUT
10
151.2740
20
223.7210
0
VERTEX
8
CUT
10
151.1839
20
224.0822
0
VERTEX
8
CUT
10
148.4702
20
226.8763
0
VERTEX
8
CUT
10
145.3464
20
229.1809
0
VERTEX
8
CUT
10
145.4223
20
229.7135
0
VERTEX
8
CUT
10
148.2202
20
232.3060
0
VERTEX
8
CUT
10
149.1281
20
232.8112
0
VERTEX
8
CUT
10
149.5118
20
232.7567
0
VERTEX
8
CUT
10
150.6703
20
231.7114
0
VERTEX
8
CUT
10
151.3006
20
230.1697
0
VERTEX
8
CUT
10
152.9594
20
229.7319
0
VERTEX
8
CUT
10
154.2336
20
229.0307
0
VERTEX
8
CUT
10
155.5193
20
227.9511
0
VERTEX
8
CUT
10
157.4535
20
225.8116
0
VERTEX
8
CUT
10
160.3447
20
221.4193
0
VERTEX
8
CUT
10
161.3301
20
218.8326
0
VERTEX
8
CUT
10
161.7790
20
216.0447
0
VERTEX
8
CUT
10
161.7823
20
214.6395
0
VERTEX
8
CUT
10
161.2153
20
211.5168
0
VERTEX
8
CUT
10
160.3089
20
209.1758
0
VERTEX
8
CUT
10
159.7061
20
208.2772
0
VERTEX
8
CUT
10
159.3498
20
208.0940
0
VERTEX
8
CUT
10
158.6646
20
208.4798
0
VERTEX
8
CUT
10
156.6085
20
210.6539
0
VERTEX
8
CUT
10
155.7355
20
211.8012
0
VERTEX
8
CUT
10
155.5345
20
212.3768
0
VERTEX
8
CUT
10
155.7666
20
216.4889
0
VERTEX
8
CUT
10
155.4123
20
218.6418
0
VERTEX
8
CUT
10
153.3767
20
221.6215
0
VERTEX
8
CUT
10
153.1007
20
221.8076
0
VERTEX
8
CUT
10
152.7826
20
221.7237
0
VERTEX
8
CUT
10
152.6418
20
221.4263
0
VERTEX
8
CUT
10
152.8455
20
219.2928
0
VERTEX
8
CUT
10
152.6056
20
218.2313
0
VERTEX
8
CUT
10
149.3329
20
214.7772
0
VERTEX
8
CUT
10
146.3436
20
210.7719
0
VERTEX
8
CUT
10
144.3703
20
207.2091
0
VERTEX
8
CUT
10
143.7303
20
204.8521
0
VERTEX
8
CUT
10
143.5619
20
203.2929
0
VERTEX
8
CUT
10
143.9956
20
200.6110
0
VERTEX
8
CUT
10
144.7185
20
198.6787
0
VERTEX
8
CUT
10
146.6210
20
195.0774
0
VERTEX
8
CUT
10
147.2547
20
192.4781
0
VERTEX
8
CUT
10
147.5230
20
192.2170
0
VERTEX
8
CUT
10
147.9619
20
192.3921
0
VERTEX
8
CUT
10
149.5530
20
195.3661
0
VERTEX
8
CUT
10
150.7481
20
197.1575
0
VERTEX
8
CUT
10
154.3703
20
201.2664
0
VERTEX
8
CUT
10
153.9379
20
202.2450
0
VERTEX
8
CUT
10
153.3374
20
203.0238
0
VERTEX
8
CUT
10
147.4561
20
209.4105
0
VERTEX
8
CUT
10
149.1255
20
211.7916
0
VERTEX
8
CUT
10
150.4577
20
213.0375
0
VERTEX
8
CUT
10
150.9262
20
213.1971
0
VERTEX
8
CUT
10
151.4042
20
212.9751
0
VERTEX
8
CUT
10
153.1237
20
211.5668
0
VERTEX
8
CUT
10
156.5636
20
208.1866
0
VERTEX
8
CUT
10
159.6931
20
204.7219
0
VERTEX
8
CUT
10
173.3679
20
210.6841
0
VERTEX
8
CUT
10
174.7846
20
211.4797
0
VERTEX
8
CUT
10
174.7440
20
212.0995
0
VERTEX
8
CUT
10
174.0448
20
213.4130
0
VERTEX
8
CUT
10
170.4913
20
218.3526
0
VERTEX
8
CUT
10
170.1817
20
219.1233
0
VERTEX
8
CUT
10
170.4228
20
219.8278
0
VERTEX
8
CUT
10
170.3358
20
220.1460
0
VERTEX
8
CUT
10
169.9243
20
220.2666
0
VERTEX
8
CUT
10
168.4418
20
219.3544
0
VERTEX
8
CUT
10
167.6275
20
219.3066
0
VERTEX
8
CUT
10
165.7026
20
220.6663
0
VERTEX
8
CUT
10
165.1428
20
222.6081
0
VERTEX
8
CUT
10
165.2809
20
223.3347
0
VERTEX
8
CUT
10
165.9026
20
224.0281
0
VERTEX
8
CUT
10
168.7565
20
225.7650
0
VERTEX
8
CUT
10
169.5840
20
226.0299
0
VERTEX
8
CUT
10
170.1430
20
225.9582
0
VERTEX
8
CUT
10
170.4074
20
225.7290
0
VERTEX
8
CUT
10
170.7521
20
224.7951
0
VERTEX
8
CUT
10
171.1222
20
224.6468
0
VERTEX
8
CUT
10
171.3969
20
224.8324
0
VERTEX
8
CUT
10
171.8874
20
225.8262
0
VERTEX
8
CUT
10
172.8551
20
226.4372
0
VERTEX
8
CUT
10
173.6325
20
225.7143
0
VERTEX
8
CUT
10
174.0710
20
224.9617
0
VERTEX
8
CUT
10
174.1645
20
223.4128
0
VERTEX
8
CUT
10
173.6330
20
222.5560
0
VERTEX
8
CUT
10
172.8138
20
222.1548
0
VERTEX
8
CUT
10
171.9658
20
222.3099
0
VERTEX
8
CUT
10
171.5297
20
222.6565
0
VERTEX
8
CUT
10
171.2349
20
223.6972
0
VERTEX
8
CUT
10
170.9502
20
223.9305
0
VERTEX
8
CUT
10
170.6573
20
223.8717
0
VERTEX
8
CUT
10
170.1729
20
223.2860
0
VERTEX
8
CUT
10
169.4694
20
222.8624
0
VERTEX
8
CUT
10
169.4297
20
222.3063
0
VERTEX
8
CUT
10
170.7888
20
221.0676
0
VERTEX
8
CUT
10
170.3581
20
220.4656
0
VERTEX
8
CUT
10
170.5263
20
220.0253
0
VERTEX
8
CUT
10
172.6957
20
220.3961
0
VERTEX
8
CUT
10
173.2138
20
220.7081
0
VERTEX
8
CUT
10
173.5894
20
221.3473
0
VERTEX
8
CUT
10
174.0585
20
221.6486
0
VERTEX
8
CUT
10
174.8577
20
221.4626
0
VERTEX
8
CUT
10
176.1096
20
220.3689
0
VERTEX
8
CUT
10
178.2328
20
217.8333
0
VERTEX
8
CUT
10
179.4339
20
215.1118
0
VERTEX
8
CUT
10
180.1872
20
214.3324
0
VERTEX
8
CUT
10
181.0909
20
213.8060
0
VERTEX
8
CUT
10
184.1168
20
214.8348
0
VERTEX
8
CUT
10
185.3231
20
214.5459
0
VERTEX
8
CUT
10
186.9279
20
214.8389
0
VERTEX
8
CUT
10
188.0299
20
214.7159
0
VERTEX
8
CUT
10
188.2631
20
215.0861
0
VERTEX
8
CUT
10
187.9945
20
215.7751
0
VERTEX
8
CUT
10
187.9901
20
216.5767
0
VERTEX
8
CUT
10
188.3943
20
217.1655
0
VERTEX
8
CUT
10
189.3331
20
217.5627
0
VERTEX
8
CUT
10
189.9112
20
217.3487
0
VERTEX
8
CUT
10
190.8946
20
215.7500
0
VERTEX
8
CUT
10
191.8044
20
215.2447
0
VERTEX
8
CUT
10
192.6473
20
214.2926
0
VERTEX
8
CUT
10
192.3758
20
213.6432
0
VERTEX
8
CUT
10
191.2357
20
212.7366
0
VERTEX
8
CUT
10
190.6900
20
212.5443
0
VERTEX
8
CUT
10
190.1954
20
212.8144
0
VERTEX
8
CUT
10
189.3926
20
214.2595
0
VERTEX
8
CUT
10
188.9700
20
214.5031
0
VERTEX
8
CUT
10
188.6706
20
214.4592
0
VERTEX
8
CUT
10
188.4880
20
214.0601
0
VERTEX
8
CUT
10
188.9801
20
213.0471
0
VERTEX
8
CUT
10
189.1145
20
212.2846
0
VERTEX
8
CUT
10
188.8435
20
211.6039
0
VERTEX
8
CUT
10
186.6576
20
210.3108
0
VERTEX
8
CUT
10
183.8183
20
209.3491
0
VERTEX
8
CUT
10
182.9814
20
208.8594
0
VERTEX
8
CUT
10
182.6206
20
208.0603
0
VERTEX
8
CUT
10
182.5245
20
207.2140
0
VERTEX
8
CUT
10
182.6399
20
202.1567
0
VERTEX
8
CUT
10
182.8587
20
201.6052
0
VERTEX
8
CUT
10
183.1506
20
201.5567
0
VERTEX
8
CUT
10
185.8006
20
202.4152
0
VERTEX
8
CUT
10
190.4265
20
203.0323
0
VERTEX
8
CUT
10
194.3044
20
202.9993
0
VERTEX
8
CUT
10
196.2695
20
202.2459
0
VERTEX
8
CUT
10
196.8565
20
201.6886
0
VERTEX
8
CUT
10
197.3977
20
200.1664
0
VERTEX
8
CUT
10
198.2857
20
198.9551
0
VERTEX
8
CUT
10
196.6270
20
196.6544
0
VERTEX
8
CUT
10
195.3495
20
196.3277
0
VERTEX
8
CUT
10
195.0656
20
196.0925
0
VERTEX
8
CUT
10
195.3479
20
194.7763
0
VERTEX
8
CUT
10
195.7535
20
194.1920
0
VERTEX
8
CUT
10
196.1952
20
194.0112
0
VERTEX
8
CUT
10
199.1423
20
194.4768
0
VERTEX
8
CUT
10
205.4267
20
194.7418
0
VERTEX
8
CUT
10
209.6661
20
195.2940
0
VERTEX
8
CUT
10
211.3669
20
195.6477
0
VERTEX
8
CUT
10
213.0818
20
196.2636
0
VERTEX
8
CUT
10
214.5184
20
196.2749
0
VERTEX
8
CUT
10
214.8283
20
196.8698
0
VERTEX
8
CUT
10
216.1051
20
197.8567
0
VERTEX
8
CUT
10
216.8891
20
198.2201
0
VERTEX
8
CUT
10
217.5143
20
198.1126
0
VERTEX
8
CUT
10
217.7834
20
197.7726
0
VERTEX
8
CUT
10
218.6891
20
194.3618
0
VERTEX
8
CUT
10
218.2925
20
194.1538
0
VERTEX
8
CUT
10
217.3483
20
194.9224
0
VERTEX
8
CUT
10
216.4510
20
194.9730
0
VERTEX
8
CUT
10
216.2651
20
194.6980
0
VERTEX
8
CUT
10
216.1176
20
193.0006
0
VERTEX
8
CUT
10
215.4361
20
192.3726
0
VERTEX
8
CUT
10
212.6916
20
191.7238
0
VERTEX
8
CUT
10
212.5186
20
191.9438
0
VERTEX
8
CUT
10
212.6006
20
192.5181
0
VERTEX
8
CUT
10
212.3921
20
193.0567
0
VERTEX
8
CUT
10
211.8738
20
193.6711
0
VERTEX
8
CUT
10
211.5525
20
193.7437
0
VERTEX
8
CUT
10
211.2742
20
193.5103
0
VERTEX
8
CUT
10
211.1513
20
192.8347
0
VERTEX
8
CUT
10
211.6309
20
191.9650
0
VERTEX
8
CUT
10
211.1461
20
191.4304
0
VERTEX
8
CUT
10
210.6650
20
191.2215
0
VERTEX
8
CUT
10
208.3522
20
190.6895
0
VERTEX
8
CUT
10
196.1019
20
189.1994
0
VERTEX
8
CUT
10
193.9155
20
188.6259
0
VERTEX
8
CUT
10
192.2796
20
187.8670
0
VERTEX
8
CUT
10
189.2210
20
185.7009
0
VERTEX
8
CUT
10
185.8565
20
182.8706
0
VERTEX
8
CUT
10
183.5289
20
181.2807
0
VERTEX
8
CUT
10
181.0527
20
179.9255
0
VERTEX
8
CUT
10
173.9272
20
176.7862
0
VERTEX
8
CUT
10
171.3864
20
175.1015
0
VERTEX
8
CUT
10
169.6600
20
173.4345
0
VERTEX
8
CUT
10
168.1232
20
171.5470
0
VERTEX
8
CUT
10
166.9694
20
169.6106
0
VERTEX
8
CUT
10
165.9952
20
167.1098
0
VERTEX
8
CUT
10
165.2673
20
157.8864
0
VERTEX
8
CUT
10
163.2683
20
150.8761
0
VERTEX
8
CUT
10
162.8974
20
148.8279
0
VERTEX
8
CUT
10
162.8676
20
147.4394
0
VERTEX
8
CUT
10
163.4086
20
145.0406
0
VERTEX
8
CUT
10
165.2873
20
140.1637
0
VERTEX
8
CUT
10
165.7341
20
138.4359
0
VERTEX
8
CUT
10
165.6202
20
125.4319
0
VERTEX
8
CUT
10
165.7998
20
122.9417
0
VERTEX
8
CUT
10
166.2699
20
121.5354
0
VERTEX
8
CUT
10
167.2692
20
119.6255
0
VERTEX
8
CUT
10
168.6016
20
117.7183
0
VERTEX
8
CUT
10
170.1365
20
116.1553
0
VERTEX
8
CUT
10
171.9168
20
114.8710
0
VERTEX
8
CUT
10
174.5133
20
113.6931
0
VERTEX
8
CUT
10
176.1110
20
113.4716
0
VERTEX
8
CUT
10
179.5690
20
113.4735
0
VERTEX
8
CUT
10
180.6913
20
113.5924
0
VERTEX
8
CUT
10
182.0365
20
114.0759
0
VERTEX
8
CUT
10
184.0575
20
115.2715
0
VERTEX
8
CUT
10
186.0456
20
116.9282
0
VERTEX
8
CUT
10
186.7707
20
117.1240
0
VERTEX
8
CUT
10
187.2737
20
116.7313
0
VERTEX
8
CUT
10
187.5818
20
115.3841
0
VERTEX
8
CUT
10
188.4218
20
114.2302
0
VERTEX
8
CUT
10
188.3796
20
113.5590
0
VERTEX
8
CUT
10
187.4919
20
112.9068
0
VERTEX
8
CUT
10
186.9835
20
112.9922
0
VERTEX
8
CUT
10
186.5147
20
113.3278
0
VERTEX
8
CUT
10
186.1893
20
113.2864
0
VERTEX
8
CUT
10
185.7561
20
112.0306
0
VERTEX
8
CUT
10
185.1523
20
111.2329
0
VERTEX
8
CUT
10
184.1810
20
110.5477
0
VERTEX
8
CUT
10
181.9855
20
109.6616
0
VERTEX
8
CUT
10
181.8104
20
109.3812
0
VERTEX
8
CUT
10
181.8889
20
109.0959
0
VERTEX
8
CUT
10
184.1630
20
108.3142
0
VERTEX
8
CUT
10
186.7714
20
107.9036
0
VERTEX
8
CUT
10
190.8134
20
107.8169
0
VERTEX
8
CUT
10
193.0883
20
108.1309
0
VERTEX
8
CUT
10
196.2187
20
109.1712
0
VERTEX
8
CUT
10
198.2228
20
110.1567
0
VERTEX
8
CUT
10
199.9192
20
111.2182
0
VERTEX
8
CUT
10
202.2391
20
113.1539
0
VERTEX
8
CUT
10
204.3393
20
116.2377
0
VERTEX
8
CUT
10
205.6250
20
118.5505
0
VERTEX
8
CUT
10
206.1054
20
120.3804
0
VERTEX
8
CUT
10
206.4876
20
123.2225
0
VERTEX
8
CUT
10
206.7690
20
123.8884
0
VERTEX
8
CUT
10
208.8846
20
124.1057
0
VERTEX
8
CUT
10
211.9701
20
125.2181
0
VERTEX
8
CUT
10
212.6996
20
125.0633
0
VERTEX
8
CUT
10
213.2476
20
124.3982
0
VERTEX
8
CUT
10
213.8969
20
122.0952
0
VERTEX
8
CUT
10
213.8010
20
121.0432
0
VERTEX
8
CUT
10
213.2072
20
120.0400
0
VERTEX
8
CUT
10
211.0134
20
117.4024
0
VERTEX
8
CUT
10
210.4015
20
115.7360
0
VERTEX
8
CUT
10
208.8752
20
112.6581
0
VERTEX
8
CUT
10
208.9740
20
112.3289
0
VERTEX
8
CUT
10
209.8358
20
111.8446
0
VERTEX
8
CUT
10
210.5384
20
111.0128
0
VERTEX
8
CUT
10
210.7661
20
110.2108
0
VERTEX
8
CUT
10
210.4886
20
109.6175
0
VERTEX
8
CUT
10
209.5705
20
109.3017
0
VERTEX
8
CUT
10
206.7437
20
109.1033
0
VERTEX
8
CUT
10
206.1690
20
108.0200
0
VERTEX
8
CUT
10
204.8345
20
106.7154
0
VERTEX
8
CUT
10
203.8559
20
106.3186
0
VERTEX
8
CUT
10
202.0454
20
105.1541
0
VERTEX
8
CUT
10
200.2282
20
104.4323
0
VERTEX
8
CUT
10
198.4171
20
103.2368
0
VERTEX
8
CUT
10
196.8340
20
102.7735
0
VERTEX
8
CUT
10
195.1192
20
102.8041
0
VERTEX
8
CUT
10
192.6132
20
101.7043
0
VERTEX
8
CUT
10
192.5485
20
100.6213
0
VERTEX
8
CUT
10
192.8340
20
99.7886
0
VERTEX
8
CUT
10
193.9851
20
99.7272
0
VERTEX
8
CUT
10
194.6123
20
99.4814
0
VERTEX
8
CUT
10
195.2566
20
98.9438
0
VERTEX
8
CUT
10
196.2731
20
97.5987
0
VERTEX
8
CUT
10
198.3315
20
96.9179
0
VERTEX
8
CUT
10
199.0707
20
96.4210
0
VERTEX
8
CUT
10
199.4233
20
95.8757
0
VERTEX
8
CUT
10
199.1316
20
95.1303
0
VERTEX
8
CUT
10
197.7078
20
93.3133
0
VERTEX
8
CUT
10
199.6528
20
88.7760
0
VERTEX
8
CUT
10
200.6501
20
85.6668
0
VERTEX
8
CUT
10
200.8903
20
84.3077
0
VERTEX
8
CUT
10
200.8032
20
83.8838
0
VERTEX
8
CUT
10
200.4303
20
83.6126
0
VERTEX
8
CUT
10
199.1477
20
84.0115
0
VERTEX
8
CUT
10
198.5902
20
83.8854
0
VERTEX
8
CUT
10
198.2933
20
83.2889
0
VERTEX
8
CUT
10
198.1465
20
82.1705
0
VERTEX
8
CUT
10
197.6219
20
81.4968
0
VERTEX
8
CUT
10
196.7401
20
81.5717
0
VERTEX
8
CUT
10
196.1875
20
82.2039
0
VERTEX
8
CUT
10
196.1133
20
82.8978
0
VERTEX
8
CUT
10
196.5468
20
84.7988
0
VERTEX
8
CUT
10
195.7533
20
86.9675
0
VERTEX
8
CUT
10
195.0370
20
88.2033
0
VERTEX
8
CUT
10
194.1711
20
89.1955
0
VERTEX
8
CUT
10
193.3282
20
89.0311
0
VERTEX
8
CUT
10
192.7072
20
89.4480
0
VERTEX
8
CUT
10
190.5361
20
93.2679
0
VERTEX
8
CUT
10
187.3507
20
97.2051
0
VERTEX
8
CUT
10
186.0200
20
98.4501
0
VERTEX
8
CUT
10
183.5622
20
100.3018
0
VERTEX
8
CUT
10
182.8924
20
100.6165
0
VERTEX
8
CUT
10
182.5992
20
100.4512
0
VERTEX
8
CUT
10
182.5350
20
100.1568
0
VERTEX
8
CUT
10
183.4913
20
97.6052
0
VERTEX
8
CUT
10
183.4218
20
96.9367
0
VERTEX
8
CUT
10
183.1381
20
96.6083
0
VERTEX
8
CUT
10
182.2826
20
96.5598
0
VERTEX
8
CUT
10
181.7794
20
96.8885
0
VERTEX
8
CUT
10
179.1542
20
100.3489
0
VERTEX
8
CUT
10
178.6749
20
100.0747
0
VERTEX
8
CUT
10
178.8020
20
98.6786
0
VERTEX
8
CUT
10
178.5714
20
98.1777
0
VERTEX
8
CUT
10
178.1107
20
97.9062
0
VERTEX
8
CUT
10
177.2429
20
98.2188
0
VERTEX
8
CUT
10
175.5428
20
100.7457
0
VERTEX
8
CUT
10
174.4079
20
101.8897
0
VERTEX
8
CUT
10
172.6457
20
103.0674
0
VERTEX
8
CUT
10
167.4174
20
105.9297
0
VERTEX
8
CUT
10
165.1126
20
107.6119
0
VERTEX
8
CUT
10
163.1274
20
109.4760
0
VERTEX
8
CUT
10
160.8607
20
112.3678
0
VERTEX
8
CUT
10
160.5225
20
112.5017
0
VERTEX
8
CUT
10
160.2047
20
112.2643
0
VERTEX
8
CUT
10
159.7587
20
110.6494
0
VERTEX
8
CUT
10
159.0902
20
106.3923
0
VERTEX
8
CUT
10
159.1172
20
104.6103
0
VERTEX
8
CUT
10
159.4161
20
102.9709
0
VERTEX
8
CUT
10
160.9150
20
99.8197
0
VERTEX
8
CUT
10
165.1927
20
94.5265
0
VERTEX
8
CUT
10
166.2893
20
92.8980
0
VERTEX
8
CUT
10
169.3505
20
85.6360
0
VERTEX
8
CUT
10
170.7038
20
83.2447
0
VERTEX
8
CUT
10
172.5136
20
80.6556
0
VERTEX
8
CUT
10
174.1071
20
74.6229
0
VERTEX
8
CUT
10
174.2037
20
73.7385
0
VERTEX
8
CUT
10
174.0385
20
73.1088
0
VERTEX
8
CUT
10
173.4928
20
72.8586
0
VERTEX
8
CUT
10
172.2956
20
73.2722
0
VERTEX
8
CUT
10
168.3632
20
76.1188
0
VERTEX
8
CUT
10
167.2992
20
76.6740
0
VERTEX
8
CUT
10
166.8693
20
76.3026
0
VERTEX
8
CUT
10
166.0627
20
74.1949
0
VERTEX
8
CUT
10
165.0861
20
72.4653
0
VERTEX
8
CUT
10
164.5204
20
72.4288
0
VERTEX
8
CUT
10
161.3654
20
70.9818
0
VERTEX
8
CUT
10
160.1542
20
71.5236
0
VERTEX
8
CUT
10
158.7260
20
72.8030
0
VERTEX
8
CUT
10
158.6642
20
73.5792
0
VERTEX
8
CUT
10
160.6271
20
76.5126
0
VERTEX
8
CUT
10
161.4116
20
78.1864
0
VERTEX
8
CUT
10
161.8013
20
79.8634
0
VERTEX
8
CUT
10
161.8867
20
81.5956
0
VERTEX
8
CUT
10
161.5641
20
83.5316
0
VERTEX
8
CUT
10
160.9369
20
85.4667
0
VERTEX
8
CUT
10
159.9346
20
87.4737
0
VERTEX
8
CUT
10
158.7713
20
89.2682
0
VERTEX
8
CUT
10
158.4325
20
89.4133
0
VERTEX
8
CUT
10
158.1442
20
89.2443
0
VERTEX
8
CUT
10
157.9440
20
88.7368
0
VERTEX
8
CUT
10
157.6167
20
86.1731
0
VERTEX
8
CUT
10
156.9375
20
83.9860
0
VERTEX
8
CUT
10
155.2608
20
80.5105
0
VERTEX
8
CUT
10
154.6163
20
79.7020
0
VERTEX
8
CUT
10
154.1513
20
79.6563
0
VERTEX
8
CUT
10
153.5520
20
80.0290
0
VERTEX
8
CUT
10
151.1760
20
82.8487
0
VERTEX
8
CUT
10
152.1763
20
85.7985
0
VERTEX
8
CUT
10
152.8420
20
88.4700
0
VERTEX
8
CUT
10
153.0992
20
91.0123
0
VERTEX
8
CUT
10
152.9866
20
93.4629
0
VERTEX
8
CUT
10
152.4923
20
95.5105
0
VERTEX
8
CUT
10
151.0715
20
99.1051
0
VERTEX
8
CUT
10
150.0146
20
101.2469
0
VERTEX
8
CUT
10
149.4926
20
101.7194
0
VERTEX
8
CUT
10
149.1324
20
101.4361
0
VERTEX
8
CUT
10
148.7284
20
98.6771
0
VERTEX
8
CUT
10
146.9794
20
94.2986
0
VERTEX
8
CUT
10
146.8410
20
91.4041
0
VERTEX
8
CUT
10
147.1055
20
88.1764
0
VERTEX
8
CUT
10
148.0717
20
85.3931
0
VERTEX
8
CUT
10
149.8457
20
82.3630
0
VERTEX
8
CUT
10
154.3177
20
76.6332
0
VERTEX
8
CUT
10
157.2480
20
73.4237
0
VERTEX
8
CUT
10
157.1241
20
69.1960
0
VERTEX
8
CUT
10
156.8173
20
67.7542
0
VERTEX
8
CUT
10
156.3867
20
67.5248
0
VERTEX
8
CUT
10
155.8614
20
67.7476
0
VERTEX
8
CUT
10
154.3908
20
69.0818
0
VERTEX
8
CUT
10
150.1012
20
73.6950
0
VERTEX
8
CUT
10
146.7907
20
77.7379
0
VERTEX
8
CUT
10
144.4070
20
81.2383
0
VERTEX
8
CUT
10
143.5486
20
82.8343
0
VERTEX
8
CUT
10
141.8005
20
87.4156
0
VERTEX
8
CUT
10
141.3862
20
87.9117
0
VERTEX
8
CUT
10
140.5051
20
87.2980
0
VERTEX
8
CUT
10
139.4475
20
85.8595
0
VERTEX
8
CUT
10
138.7057
20
84.3397
0
VERTEX
8
CUT
10
138.1088
20
81.9246
0
VERTEX
8
CUT
10
138.1655
20
79.5373
0
VERTEX
8
CUT
10
138.5172
20
78.1262
0
VERTEX
8
CUT
10
139.1750
20
76.7630
0
VERTEX
8
CUT
10
141.7118
20
73.0633
0
VERTEX
8
CUT
10
140.3020
20
71.0720
0
VERTEX
8
CUT
10
139.7547
20
69.2917
0
VERTEX
8
CUT
10
139.3203
20
69.3595
0
VERTEX
8
CUT
10
137.3356
20
71.2845
0
VERTEX
8
CUT
10
135.8160
20
71.8521
0
VERTEX
8
CUT
10
134.9485
20
72.6158
0
VERTEX
8
CUT
10
134.1658
20
73.7377
0
VERTEX
8
CUT
10
133.0518
20
76.4552
0
VERTEX
8
CUT
10
132.7681
20
76.6825
0
VERTEX
8
CUT
10
132.3214
20
76.5459
0
VERTEX
8
CUT
10
126.9989
20
72.9193
0
VERTEX
8
CUT
10
126.0638
20
72.4549
0
VERTEX
8
CUT
10
125.7277
20
72.5320
0
VERTEX
8
CUT
10
125.5074
20
72.8498
0
VERTEX
8
CUT
10
125.5424
20
73.6298
0
VERTEX
8
CUT
10
127.3584
20
78.6175
0
VERTEX
8
CUT
10
127.1435
20
80.0236
0
VERTEX
8
CUT
10
127.2283
20
80.5512
0
VERTEX
8
CUT
10
129.3933
20
83.5652
0
VERTEX
8
CUT
10
130.4136
20
85.3704
0
VERTEX
8
CUT
10
133.0439
20
91.7985
0
VERTEX
8
CUT
10
133.9964
20
93.4426
0
VERTEX
8
CUT
10
138.8354
20
99.4001
0
VERTEX
8
CUT
10
140.3169
20
102.0746
0
VERTEX
8
CUT
10
140.9112
20
104.8504
0
VERTEX
8
CUT
10
140.8828
20
107.2812
0
VERTEX
8
CUT
10
140.2551
20
110.5963
0
VERTEX
8
CUT
10
139.9165
20
111.4410
0
VERTEX
8
CUT
10
139.4105
20
111.8877
0
VERTEX
8
CUT
10
138.8500
20
111.5425
0
VERTEX
8
CUT
10
133.4436
20
106.4053
0
VERTEX
8
CUT
10
127.4706
20
103.1551
0
VERTEX
8
CUT
10
125.5116
20
101.8097
0
VERTEX
8
CUT
10
124.1931
20
100.5417
0
VERTEX
8
CUT
10
123.2647
20
98.6668
0
VERTEX
8
CUT
10
122.7579
20
98.1320
0
VERTEX
8
CUT
10
122.1122
20
98.0304
0
VERTEX
8
CUT
10
121.3826
20
98.5158
0
VERTEX
8
CUT
10
121.1099
20
99.0907
0
VERTEX
8
CUT
10
121.2065
20
99.9942
0
VERTEX
8
CUT
10
120.7405
20
100.2302
0
VERTEX
8
CUT
10
118.2070
20
96.8761
0
VERTEX
8
CUT
10
117.7174
20
96.5598
0
VERTEX
8
CUT
10
116.9927
20
96.6315
0
VERTEX
8
CUT
10
116.6541
20
96.8979
0
VERTEX
8
CUT
10
116.4509
20
97.5966
0
VERTEX
8
CUT
10
116.6466
20
98.4999
0
VERTEX
8
CUT
10
117.3957
20
100.0918
0
VERTEX
8
CUT
10
117.2992
20
100.4162
0
VERTEX
8
CUT
10
116.9855
20
100.5430
0
VERTEX
8
CUT
10
115.1073
20
99.4049
0
VERTEX
8
CUT
10
112.7538
20
97.3681
0
VERTEX
8
CUT
10
110.4493
20
94.4840
0
VERTEX
8
CUT
10
108.9937
20
92.2729
0
VERTEX
8
CUT
10
107.0122
20
88.1623
0
VERTEX
8
CUT
10
106.7325
20
86.5756
0
VERTEX
8
CUT
10
106.7663
20
83.0570
0
VERTEX
8
CUT
10
107.0871
20
81.9360
0
VERTEX
8
CUT
10
108.3443
20
79.4497
0
VERTEX
8
CUT
10
107.8737
20
78.7954
0
VERTEX
8
CUT
10
107.0207
20
78.8231
0
VERTEX
8
CUT
10
104.0795
20
80.2647
0
VERTEX
8
CUT
10
102.2671
20
81.4525
0
VERTEX
8
CUT
10
101.6489
20
82.2299
0
VERTEX
8
CUT
10
101.2318
20
83.6548
0
VERTEX
8
CUT
10
100.9294
20
83.6988
0
VERTEX
8
CUT
10
99.7010
20
83.1712
0
VERTEX
8
CUT
10
99.2460
20
83.4160
0
VERTEX
8
CUT
10
98.9141
20
83.8948
0
VERTEX
8
CUT
10
98.8444
20
84.6021
0
VERTEX
8
CUT
10
99.0634
20
85.5978
0
VERTEX
8
CUT
10
101.7546
20
92.7205
0
VERTEX
8
CUT
10
101.6943
20
93.1124
0
VERTEX
8
CUT
10
101.3222
20
93.2490
0
VERTEX
8
CUT
10
97.8275
20
92.1363
0
VERTEX
8
CUT
10
96.5396
20
91.9305
0
VERTEX
8
CUT
10
95.9169
20
92.1405
0
VERTEX
8
CUT
10
94.8528
20
92.8799
0
VERTEX
8
CUT
10
94.3255
20
93.4178
0
VERTEX
8
CUT
10
93.9502
20
94.2385
0
VERTEX
8
CUT
10
94.2881
20
94.6724
0
VERTEX
8
CUT
10
94.9815
20
94.9770
0
VERTEX
8
CUT
10
98.5529
20
95.4769
0
VERTEX
8
CUT
10
99.7907
20
95.8350
0
VERTEX
8
CUT
10
102.8224
20
97.5711
0
VERTEX
8
CUT
10
104.6571
20
98.9478
0
VERTEX
8
CUT
10
107.0554
20
101.1689
0
VERTEX
8
CUT
10
107.2210
20
101.7558
0
VERTEX
8
CUT
10
106.9614
20
101.9532
0
VERTEX
8
CUT
10
102.9632
20
102.7439
0
VERTEX
8
CUT
10
101.1820
20
103.3782
0
VERTEX
8
CUT
10
99.8777
20
104.1194
0
VERTEX
8
CUT
10
98.7203
20
105.0633
0
VERTEX
8
CUT
10
97.8411
20
105.2416
0
VERTEX
8
CUT
10
96.6247
20
105.8327
0
VERTEX
8
CUT
10
92.2163
20
108.5350
0
VERTEX
8
CUT
10
90.5049
20
109.2383
0
VERTEX
8
CUT
10
90.3943
20
109.7134
0
VERTEX
8
CUT
10
91.2789
20
110.8398
0
VERTEX
8
CUT
10
91.5069
20
111.8469
0
VERTEX
8
CUT
10
90.9366
20
113.2627
0
VERTEX
8
CUT
10
88.7557
20
117.1241
0
VERTEX
8
CUT
10
86.9953
20
119.7204
0
VERTEX
8
CUT
10
85.9464
20
120.9408
0
VERTEX
8
CUT
10
84.5476
20
121.9063
0
VERTEX
8
CUT
10
81.0310
20
123.6336
0
VERTEX
8
CUT
10
80.4516
20
126.3246
0
SEQEND
0
POLYLINE
8
CUT
66
1
70
1
0
VERTEX
8
CUT
10
167.1426
20
181.5273
0
VERTEX
8
CUT
10
167.2082
20
181.1008
0
VERTEX
8
CUT
10
167.6267
20
180.9958
0
VERTEX
8
CUT
10
170.9961
20
182.9234
0
VERTEX
8
CUT
10
180.1125
20
186.1656
0
VERTEX
8
CUT
10
183.2924
20
187.9260
0
VERTEX
8
CUT
10
186.5576
20
190.6930
0
VERTEX
8
CUT
10
189.0662
20
193.4276
0
VERTEX
8
CUT
10
189.9262
20
194.9890
0
VERTEX
8
CUT
10
190.9355
20
196.3053
0
VERTEX
8
CUT
10
191.2008
20
197.0258
0
VERTEX
8
CUT
10
191.1099
20
197.4919
0
VERTEX
8
CUT
10
190.2680
20
197.9283
0
VERTEX
8
CUT
10
189.2957
20
198.0303
0
VERTEX
8
CUT
10
184.4948
20
196.3364
0
VERTEX
8
CUT
10
182.7941
20
195.4268
0
VERTEX
8
CUT
10
181.1343
20
194.0505
0
VERTEX
8
CUT
10
176.3509
20
189.2687
0
VERTEX
8
CUT
10
170.8413
20
184.9898
0
VERTEX
8
CUT
10
167.1426
20
181.5273
0
SEQEND
0
POLYLINE
8
CUT
66
1
70
1
0
VERTEX
8
CUT
10
162.8614
20
199.2079
0
VERTEX
8
CUT
10
162.8413
20
198.4363
0
VERTEX
8
CUT
10
163.8912
20
194.2847
0
VERTEX
8
CUT
10
164.3743
20
189.7842
0
VERTEX
8
CUT
10
164.5546
20
189.5118
0
VERTEX
8
CUT
10
164.8428
20
189.4624
0
VERTEX
8
CUT
10
167.1623
20
191.4497
0
VERTEX
8
CUT
10
172.0855
20
195.1770
0
VERTEX
8
CUT
10
174.1294
20
197.3379
0
VERTEX
8
CUT
10
174.9857
20
198.6849
0
VERTEX
8
CUT
10
175.8175
20
200.8155
0
VERTEX
8
CUT
10
176.3074
20
203.0716
0
VERTEX
8
CUT
10
176.3326
20
205.3045
0
VERTEX
8
CUT
10
176.0420
20
205.5404
0
VERTEX
8
CUT
10
175.5498
20
205.4615
0
VERTEX
8
CUT
10
171.8463
20
203.9455
0
VERTEX
8
CUT
10
167.0804
20
201.6646
0
VERTEX
8
CUT
10
162.8614
20
199.2079
0
SEQEND
0
POLYLINE
8
CUT
66
1
70
1
0
VERTEX
8
CUT
10
157.2047
20
195.4318
0
VERTEX
8
CUT
10
156.8858
20
195.5036
0
VERTEX
8
CUT
10
156.6437
20
195.3396
0
VERTEX
8
CUT
10
156.1505
20
194.0321
0
VERTEX
8
CUT
10
154.0196
20
190.6735
0
VERTEX
8
CUT
10
153.3025
20
188.8579
0
VERTEX
8
CUT
10
153.0243
20
186.9516
0
VERTEX
8
CUT
10
153.2586
20
185.4781
0
VERTEX
8
CUT
10
154.3388
20
182.9833
0
VERTEX
8
CUT
10
157.5307
20
177.5558
0
VERTEX
8
CUT
10
157.8598
20
177.3891
0
VERTEX
8
CUT
10
158.2397
20
177.7521
0
VERTEX
8
CUT
10
158.3154
20
182.4361
0
VERTEX
8
CUT
10
158.7543
20
188.9697
0
VERTEX
8
CUT
10
158.3747
20
192.1300
0
VERTEX
8
CUT
10
157.7752
20
194.2423
0
VERTEX
8
CUT
10
157.2047
20
195.4318
0
SEQEND
0
POLYLINE
8
CUT
66
1
70
1
0
VERTEX
8
CUT
10
148.3425
20
180.2163
0
VERTEX
8
CUT
10
147.8440
20
180.1902
0
VERTEX
8
CUT
10
147.1883
20
179.1816
0
VERTEX
8
CUT
10
145.0819
20
174.4243
0
VERTEX
8
CUT
10
144.6436
20
171.6547
0
VERTEX
8
CUT
10
144.9940
20
168.9598
0
VERTEX
8
CUT
10
145.9398
20
166.3545
0
VERTEX
8
CUT
10
148.0135
20
162.3554
0
VERTEX
8
CUT
10
151.2869
20
158.1748
0
VERTEX
8
CUT
10
154.9344
20
152.6003
0
VERTEX
8
CUT
10
155.4200
20
152.0111
0
VERTEX
8
CUT
10
155.7874
20
151.9386
0
VERTEX
8
CUT
10
156.1249
20
152.3482
0
VERTEX
8
CUT
10
156.5332
20
153.4487
0
VERTEX
8
CUT
10
156.9676
20
155.5530
0
VERTEX
8
CUT
10
157.0435
20
160.0219
0
VERTEX
8
CUT
10
156.8026
20
160.3013
0
VERTEX
8
CUT
10
156.4366
20
160.2550
0
VERTEX
8
CUT
10
154.4011
20
157.9420
0
VERTEX
8
CUT
10
153.4823
20
157.4104
0
VERTEX
8
CUT
10
152.1249
20
158.5947
0
VERTEX
8
CUT
10
150.2203
20
161.1617
0
VERTEX
8
CUT
10
150.1809
20
161.8721
0
VERTEX
8
CUT
10
151.9920
20
164.7953
0
VERTEX
8
CUT
10
152.8979
20
166.9464
0
VERTEX
8
CUT
10
153.2723
20
169.0465
0
VERTEX
8
CUT
10
153.2197
20
170.1142
0
VERTEX
8
CUT
10
152.7366
20
172.3230
0
VERTEX
8
CUT
10
151.7790
20
174.4778
0
VERTEX
8
CUT
10
150.2545
20
177.2632
0
VERTEX
8
CUT
10
148.3425
20
180.2163
0
SEQEND
0
POLYLINE
8
CUT
66
1
70
1
0
VERTEX
8
CUT
10
153.1957
20
126.1767
0
VERTEX
8
CUT
10
154.5606
20
124.3041
0
VERTEX
8
CUT
10
154.9349
20
124.3348
0
VERTEX
8
CUT
10
155.5057
20
125.4928
0
VERTEX
8
CUT
10
155.9706
20
127.8033
0
VERTEX
8
CUT
10
156.1761
20
130.7762
0
VERTEX
8
CUT
10
155.9995
20
135.1950
0
VERTEX
8
CUT
10
155.3047
20
138.1093
0
VERTEX
8
CUT
10
154.8674
20
138.4811
0
VERTEX
8
CUT
10
154.1984
20
137.8987
0
VERTEX
8
CUT
10
152.3377
20
134.4601
0
VERTEX
8
CUT
10
151.8353
20
133.1799
0
VERTEX
8
CUT
10
151.5033
20
131.0317
0
VERTEX
8
CUT
10
151.9670
20
128.7169
0
VERTEX
8
CUT
10
153.1957
20
126.1767
0
SEQEND
0
POLYLINE
8
CUT
66
1
70
1
0
VERTEX
8
CUT
10
146.1604
20
135.9067
0
VERTEX
8
CUT
10
146.4499
20
135.8437
0
VERTEX
8
CUT
10
146.7205
20
136.0342
0
VERTEX
8
CUT
10
148.3886
20
139.5094
0
VERTEX
8
CUT
10
151.4376
20
143.8924
0
VERTEX
8
CUT
10
151.8183
20
144.8433
0
VERTEX
8
CUT
10
151.0363
20
146.9579
0
VERTEX
8
CUT
10
149.4871
20
149.5412
0
VERTEX
8
CUT
10
148.7780
20
150.2757
0
VERTEX
8
CUT
10
148.1888
20
149.9965
0
VERTEX
8
CUT
10
147.0249
20
148.3534
0
VERTEX
8
CUT
10
145.6744
20
145.7409
0
VERTEX
8
CUT
10
144.9012
20
143.6170
0
VERTEX
8
CUT
10
144.6746
20
140.9116
0
VERTEX
8
CUT
10
144.7884
20
139.0999
0
VERTEX
8
CUT
10
145.2637
20
137.4182
0
VERTEX
8
CUT
10
146.1604
20
135.9067
0
SEQEND
0
POLYLINE
8
CUT
66
1
70
1
0
VERTEX
8
CUT
10
145.1012
20
126.0209
0
VERTEX
8
CUT
10
144.6990
20
126.0308
0
VERTEX
8
CUT
10
144.4721
20
125.6811
0
VERTEX
8
CUT
10
144.3819
20
123.5067
0
VERTEX
8
CUT
10
144.7883
20
120.4399
0
VERTEX
8
CUT
10
145.6002
20
116.9605
0
VERTEX
8
CUT
10
146.5988
20
113.8203
0
VERTEX
8
CUT
10
147.5053
20
111.9224
0
VERTEX
8
CUT
10
148.8603
20
110.0402
0
VERTEX
8
CUT
10
149.5720
20
109.6233
0
VERTEX
8
CUT
10
149.8162
20
109.8032
0
VERTEX
8
CUT
10
150.1443
20
110.6672
0
VERTEX
8
CUT
10
150.4951
20
112.4812
0
VERTEX
8
CUT
10
150.5503
20
114.4705
0
VERTEX
8
CUT
10
150.1134
20
117.4751
0
VERTEX
8
CUT
10
149.4772
20
119.3162
0
VERTEX
8
CUT
10
148.4451
20
121.2358
0
VERTEX
8
CUT
10
146.9505
20
123.6092
0
VERTEX
8
CUT
10
145.1012
20
126.0209
0
SEQEND
0
POLYLINE
8
CUT
66
1
70
1
0
VERTEX
8
CUT
10
141.9518
20
152.8002
0
VERTEX
8
CUT
10
142.3504
20
152.5757
0
VERTEX
8
CUT
10
142.7324
20
152.8683
0
VERTEX
8
CUT
10
144.5314
20
155.5611
0
VERTEX
8
CUT
10
144.8020
20
156.4164
0
VERTEX
8
CUT
10
144.4956
20
157.3147
0
VERTEX
8
CUT
10
143.4445
20
158.8982
0
VERTEX
8
CUT
10
142.7549
20
159.8164
0
VERTEX
8
CUT
10
142.2655
20
160.1469
0
VERTEX
8
CUT
10
141.9129
20
159.9670
0
VERTEX
8
CUT
10
141.7712
20
159.3234
0
VERTEX
8
CUT
10
141.9518
20
152.8002
0
SEQEND
0
POLYLINE
8
CUT
66
1
70
1
0
VERTEX
8
CUT
10
123.6974
20
205.2823
0
VERTEX
8
CUT
10
123.3384
20
204.9881
0
VERTEX
8
CUT
10
123.2862
20
203.8828
0
VERTEX
8
CUT
10
123.9471
20
200.6705
0
VERTEX
8
CUT
10
124.8521
20
198.4530
0
VERTEX
8
CUT
10
126.5367
20
195.9984
0
VERTEX
8
CUT
10
128.1029
20
194.4296
0
VERTEX
8
CUT
10
129.7132
20
193.1624
0
VERTEX
8
CUT
10
134.5030
20
190.4275
0
VERTEX
8
CUT
10
138.3202
20
187.6386
0
VERTEX
8
CUT
10
139.6391
20
185.9267
0
VERTEX
8
CUT
10
140.5038
20
183.5693
0
VERTEX
8
CUT
10
140.7852
20
183.3922
0
VERTEX
8
CUT
10
141.0721
20
183.4716
0
VERTEX
8
CUT
10
141.4119
20
184.4864
0
VERTEX
8
CUT
10
141.4979
20
185.9224
0
VERTEX
8
CUT
10
141.0992
20
188.3410
0
VERTEX
8
CUT
10
140.1361
20
190.8172
0
VERTEX
8
CUT
10
138.2504
20
193.7427
0
VERTEX
8
CUT
10
135.6881
20
196.7688
0
VERTEX
8
CUT
10
131.2788
20
200.7724
0
VERTEX
8
CUT
10
126.5621
20
204.1538
0
VERTEX
8
CUT
10
123.6974
20
205.2823
0
SEQEND
0
POLYLINE
8
CUT
66
1
70
1
0
VERTEX
8
CUT
10
109.4356
20
19.1267
0
VERTEX
8
CUT
10
108.3173
20
19.9409
0
VERTEX
8
CUT
10
106.1680
20
22.0895
0
VERTEX
8
CUT
10
105.6774
20
22.8526
0
VERTEX
8
CUT
10
105.7963
20
23.2994
0
VERTEX
8
CUT
10
109.7812
20
24.7541
0
VERTEX
8
CUT
10
118.6042
20
27.0404
0
VERTEX
8
CUT
10
122.8456
20
27.6304
0
VERTEX
8
CUT
10
126.5131
20
27.5406
0
VERTEX
8
CUT
10
130.2118
20
26.8272
0
VERTEX
8
CUT
10
133.3888
20
25.5618
0
VERTEX
8
CUT
10
135.4374
20
24.4628
0
VERTEX
8
CUT
10
136.7680
20
23.5168
0
VERTEX
8
CUT
10
137.0244
20
23.0529
0
VERTEX
8
CUT
10
136.8889
20
22.6159
0
VERTEX
8
CUT
10
136.0819
20
21.7321
0
VERTEX
8
CUT
10
134.8867
20
20.9217
0
VERTEX
8
CUT
10
133.0234
20
20.2988
0
VERTEX
8
CUT
10
128.8030
20
21.6499
0
VERTEX
8
CUT
10
125.7706
20
22.2028
0
VERTEX
8
CUT
10
123.1922
20
22.1449
0
VERTEX
8
CUT
10
119.9590
20
21.7088
0
VERTEX
8
CUT
10
119.6721
20
21.5366
0
VERTEX
8
CUT
10
119.6326
20
21.1759
0
VERTEX
8
CUT
10
119.9819
20
20.9289
0
VERTEX
8
CUT
10
122.0972
20
21.0504
0
VERTEX
8
CUT
10
128.5170
20
14.7774
0
VERTEX
8
CUT
10
130.1410
20
13.5789
0
VERTEX
8
CUT
10
132.1699
20
12.5627
0
VERTEX
8
CUT
10
135.1621
20
11.4775
0
VERTEX
8
CUT
10
138.0026
20
10.9010
0
VERTEX
8
CUT
10
140.5723
20
10.8479
0
VERTEX
8
CUT
10
142.4896
20
11.1861
0
VERTEX
8
CUT
10
143.9915
20
11.6753
0
VERTEX
8
CUT
10
145.2369
20
12.2432
0
VERTEX
8
CUT
10
145.2889
20
12.7723
0
VERTEX
8
CUT
10
142.4808
20
13.6619
0
VERTEX
8
CUT
10
141.6321
20
14.2541
0
VERTEX
8
CUT
10
141.2969
20
14.8856
0
VERTEX
8
CUT
10
141.7197
20
15.5413
0
VERTEX
8
CUT
10
143.1061
20
16.6327
0
VERTEX
8
CUT
10
144.1890
20
17.2200
0
VERTEX
8
CUT
10
145.0367
20
17.4073
0
VERTEX
8
CUT
10
146.2472
20
16.9928
0
VERTEX
8
CUT
10
154.8666
20
12.0565
0
VERTEX
8
CUT
10
156.3501
20
11.6596
0
VERTEX
8
CUT
10
158.2694
20
11.4308
0
VERTEX
8
CUT
10
162.7066
20
11.4293
0
VERTEX
8
CUT
10
166.3659
20
12.1337
0
VERTEX
8
CUT
10
169.6522
20
13.6970
0
VERTEX
8
CUT
10
173.0131
20
16.3372
0
VERTEX
8
CUT
10
178.0792
20
21.4649
0
VERTEX
8
CUT
10
178.0556
20
21.8343
0
VERTEX
8
CUT
10
177.7725
20
22.0148
0
VERTEX
8
CUT
10
175.3330
20
22.2005
0
VERTEX
8
CUT
10
173.5960
20
22.1160
0
VERTEX
8
CUT
10
170.7353
20
21.5135
0
VERTEX
8
CUT
10
167.7268
20
20.4825
0
VERTEX
8
CUT
10
166.5788
20
20.3855
0
VERTEX
8
CUT
10
164.1179
20
21.4901
0
VERTEX
8
CUT
10
163.1580
20
22.3511
0
VERTEX
8
CUT
10
163.0039
20
22.8373
0
VERTEX
8
CUT
10
163.1814
20
23.3138
0
VERTEX
8
CUT
10
164.2166
20
24.2027
0
VERTEX
8
CUT
10
167.5313
20
25.9925
0
VERTEX
8
CUT
10
170.0724
20
26.9117
0
VERTEX
8
CUT
10
172.7940
20
27.4859
0
VERTEX
8
CUT
10
175.6289
20
27.6602
0
VERTEX
8
CUT
10
178.7538
20
27.4812
0
VERTEX
8
CUT
10
182.2230
20
26.9273
0
VERTEX
8
CUT
10
186.1859
20
25.9817
0
VERTEX
8
CUT
10
191.9812
20
24.2735
0
VERTEX
8
CUT
10
193.6028
20
23.5462
0
VERTEX
8
CUT
10
193.9877
20
23.1180
0
VERTEX
8
CUT
10
194.0666
20
22.6586
0
VERTEX
8
CUT
10
193.7477
20
22.0346
0
VERTEX
8
CUT
10
192.1964
20
20.3955
0
VERTEX
8
CUT
10
190.5077
20
19.1566
0
VERTEX
8
CUT
10
182.6421
20
21.0677
0
VERTEX
8
CUT
10
182.4420
20
20.6125
0
VERTEX
8
CUT
10
182.9284
20
20.1550
0
VERTEX
8
CUT
10
183.0202
20
19.7205
0
VERTEX
8
CUT
10
182.3404
20
18.4836
0
VERTEX
8
CUT
10
176.7147
20
12.0553
0
VERTEX
8
CUT
10
176.6791
20
11.6245
0
VERTEX
8
CUT
10
176.2795
20
11.5977
0
VERTEX
8
CUT
10
174.1305
20
9.6920
0
VERTEX
8
CUT
10
172.2750
20
8.4453
0
VERTEX
8
CUT
10
170.2631
20
7.4067
0
VERTEX
8
CUT
10
168.1180
20
6.6201
0
VERTEX
8
CUT
10
165.8921
20
6.0596
0
VERTEX
8
CUT
10
160.9442
20
5.6499
0
VERTEX
8
CUT
10
157.4279
20
5.8840
0
VERTEX
8
CUT
10
155.2954
20
6.3262
0
VERTEX
8
CUT
10
150.3362
20
8.3169
0
VERTEX
8
CUT
10
144.6235
20
6.1310
0
VERTEX
8
CUT
10
141.4245
20
5.5062
0
VERTEX
8
CUT
10
138.1394
20
5.4163
0
VERTEX
8
CUT
10
133.1794
20
6.1276
0
VERTEX
8
CUT
10
130.4567
20
6.9586
0
VERTEX
8
CUT
10
128.0643
20
8.0825
0
VERTEX
8
CUT
10
125.9138
20
9.4965
0
VERTEX
8
CUT
10
124.1073
20
11.0940
0
VERTEX
8
CUT
10
117.2645
20
19.0343
0
VERTEX
8
CUT
10
116.9824
20
19.5570
0
VERTEX
8
CUT
10
117.0836
20
19.9477
0
VERTEX
8
CUT
10
118.3623
20
20.6723
0
VERTEX
8
CUT
10
118.4379
20
20.9993
0
VERTEX
8
CUT
10
118.2316
20
21.2639
0
VERTEX
8
CUT
10
109.4356
20
19.1267
0
SEQEND
0
POLYLINE
8
CUT
66
1
70
1
0
VERTEX
8
CUT
10
121.8857
20
279.0436
0
VERTEX
8
CUT
10
118.1233
20
280.0057
0
VERTEX
8
CUT
10
117.4313
20
280.5941
0
VERTEX
8
CUT
10
117.3914
20
281.1116
0
VERTEX
8
CUT
10
118.5281
20
282.9462
0
VERTEX
8
CUT
10
123.5919
20
288.4473
0
VERTEX
8
CUT
10
125.8907
20
290.3970
0
VERTEX
8
CUT
10
128.1975
20
291.9381
0
VERTEX
8
CUT
10
130.5641
20
293.0367
0
VERTEX
8
CUT
10
133.1006
20
293.8220
0
VERTEX
8
CUT
10
135.8227
20
294.2337
0
VERTEX
8
CUT
10
138.7355
20
294.3502
0
VERTEX
8
CUT
10
141.2756
20
294.2599
0
VERTEX
8
CUT
10
144.5296
20
293.7029
0
VERTEX
8
CUT
10
149.8605
20
291.7760
0
VERTEX
8
CUT
10
155.4959
20
293.8113
0
VERTEX
8
CUT
10
159.8152
20
294.4368
0
VERTEX
8
CUT
10
164.2869
20
294.2573
0
VERTEX
8
CUT
10
168.5650
20
293.2609
0
VERTEX
8
CUT
10
170.6154
20
292.4313
0
VERTEX
8
CUT
10
172.5669
20
291.3795
0
VERTEX
8
CUT
10
176.2417
20
288.4980
0
VERTEX
8
CUT
10
180.2247
20
284.1031
0
VERTEX
8
CUT
10
181.7956
20
282.0250
0
VERTEX
8
CUT
10
182.3775
20
280.7813
0
VERTEX
8
CUT
10
181.9447
20
280.2339
0
VERTEX
8
CUT
10
180.9877
20
279.8251
0
VERTEX
8
CUT
10
177.7493
20
279.0067
0
VERTEX
8
CUT
10
172.0543
20
284.6790
0
VERTEX
8
CUT
10
169.4359
20
286.8387
0
VERTEX
8
CUT
10
168.3530
20
287.4530
0
VERTEX
8
CUT
10
165.5797
20
288.5400
0
VERTEX
8
CUT
10
162.6189
20
289.0686
0
VERTEX
8
CUT
10
159.6438
20
289.0368
0
VERTEX
8
CUT
10
158.1650
20
288.8320
0
VERTEX
8
CUT
10
155.9191
20
288.2072
0
VERTEX
8
CUT
10
150.7489
20
285.6964
0
VERTEX
8
CUT
10
146.2180
20
283.0074
0
VERTEX
8
CUT
10
145.0723
20
282.5083
0
VERTEX
8
CUT
10
143.0998
20
283.6360
0
VERTEX
8
CUT
10
141.7730
20
284.8148
0
VERTEX
8
CUT
10
141.5899
20
285.1727
0
VERTEX
8
CUT
10
142.0214
20
285.9001
0
VERTEX
8
CUT
10
144.2825
20
287.5520
0
VERTEX
8
CUT
10
144.2339
20
288.0968
0
VERTEX
8
CUT
10
141.3512
20
288.8360
0
VERTEX
8
CUT
10
137.5773
20
289.1552
0
VERTEX
8
CUT
10
133.9584
20
288.5426
0
VERTEX
8
CUT
10
131.6501
20
287.6304
0
VERTEX
8
CUT
10
129.8032
20
286.5653
0
VERTEX
8
CUT
10
126.8304
20
283.9159
0
VERTEX
8
CUT
10
122.6197
20
279.6782
0
VERTEX
8
CUT
10
121.8857
20
279.0436
0
SEQEND
0
POLYLINE
8
CUT
66
1
70
1
0
VERTEX
8
CUT
10
10.8808
20
145.4785
0
VERTEX
8
CUT
10
10.5308
20
145.3570
0
VERTEX
8
CUT
10
10.2380
20
144.7639
0
VERTEX
8
CUT
10
9.9366
20
141.9876
0
VERTEX
8
CUT
10
10.1637
20
139.7212
0
VERTEX
8
CUT
10
11.0156
20
136.6564
0
VERTEX
8
CUT
10
9.2516
20
133.6163
0
VERTEX
8
CUT
10
7.6610
20
131.7776
0
VERTEX
8
CUT
10
6.4128
20
133.7472
0
VERTEX
8
CUT
10
5.5957
20
135.8034
0
VERTEX
8
CUT
10
5.0354
20
138.0813
0
VERTEX
8
CUT
10
4.6831
20
141.6354
0
VERTEX
8
CUT
10
4.9270
20
145.2310
0
VERTEX
8
CUT
10
6.8516
20
150.2728
0
VERTEX
8
CUT
10
5.3599
20
153.8859
0
VERTEX
8
CUT
10
4.6824
20
157.4492
0
VERTEX
8
CUT
10
4.8063
20
161.2156
0
VERTEX
8
CUT
10
5.1923
20
163.1068
0
VERTEX
8
CUT
10
6.5409
20
166.9761
0
VERTEX
8
CUT
10
7.5137
20
168.7364
0
VERTEX
8
CUT
10
7.7944
20
168.9516
0
VERTEX
8
CUT
10
8.0939
20
168.8778
0
VERTEX
8
CUT
10
9.6966
20
166.6101
0
VERTEX
8
CUT
10
10.8330
20
164.5116
0
VERTEX
8
CUT
10
10.8150
20
163.2231
0
VERTEX
8
CUT
10
10.0254
20
159.8053
0
VERTEX
8
CUT
10
9.9366
20
157.5645
0
VERTEX
8
CUT
10
10.2608
20
155.7514
0
VERTEX
8
CUT
10
10.5343
20
155.1945
0
VERTEX
8
CUT
10
10.9641
20
155.0862
0
VERTEX
8
CUT
10
13.2798
20
156.7212
0
VERTEX
8
CUT
10
16.6814
20
159.6538
0
VERTEX
8
CUT
10
19.0133
20
162.1293
0
VERTEX
8
CUT
10
20.0785
20
163.5947
0
VERTEX
8
CUT
10
20.9105
20
165.1691
0
VERTEX
8
CUT
10
21.8212
20
168.2809
0
VERTEX
8
CUT
10
21.9058
20
169.8590
0
VERTEX
8
CUT
10
21.3706
20
173.2577
0
VERTEX
8
CUT
10
21.9743
20
174.0877
0
VERTEX
8
CUT
10
23.9667
20
175.8984
0
VERTEX
8
CUT
10
25.0895
20
176.5916
0
VERTEX
8
CUT
10
25.6439
20
176.5528
0
VERTEX
8
CUT
10
26.0350
20
176.1523
0
VERTEX
8
CUT
10
26.6020
20
174.6530
0
VERTEX
8
CUT
10
27.3950
20
170.2781
0
VERTEX
8
CUT
10
27.2214
20
167.1243
0
VERTEX
8
CUT
10
26.4078
20
164.0544
0
VERTEX
8
CUT
10
24.9722
20
161.2128
0
VERTEX
8
CUT
10
23.2105
20
158.8219
0
VERTEX
8
CUT
10
20.6241
20
156.2354
0
VERTEX
8
CUT
10
15.7536
20
151.9215
0
VERTEX
8
CUT
10
14.3566
20
150.2931
0
VERTEX
8
CUT
10
15.3033
20
149.0860
0
VERTEX
8
CUT
10
20.2153
20
144.6716
0
VERTEX
8
CUT
10
23.2640
20
141.6230
0
VERTEX
8
CUT
10
24.4104
20
140.2325
0
VERTEX
8
CUT
10
26.0081
20
137.4741
0
VERTEX
8
CUT
10
27.0352
20
134.4813
0
VERTEX
8
CUT
10
27.3970
20
131.4081
0
VERTEX
8
CUT
10
27.1923
20
128.0464
0
VERTEX
8
CUT
10
26.9189
20
126.4690
0
VERTEX
8
CUT
10
26.1514
20
124.2851
0
VERTEX
8
CUT
10
25.6215
20
123.8511
0
VERTEX
8
CUT
10
25.2951
20
123.8183
0
VERTEX
8
CUT
10
24.5266
20
124.2387
0
VERTEX
8
CUT
10
21.4321
20
126.9115
0
VERTEX
8
CUT
10
21.8513
20
130.2873
0
VERTEX
8
CUT
10
21.7677
20
132.5373
0
VERTEX
8
CUT
10
21.1110
20
134.6980
0
VERTEX
8
CUT
10
19.9119
20
136.9498
0
VERTEX
8
CUT
10
18.3122
20
139.0066
0
VERTEX
8
CUT
10
15.8586
20
141.4325
0
VERTEX
8
CUT
10
11.9257
20
144.8131
0
VERTEX
8
CUT
10
10.8808
20
145.4785
0
SEQEND
0
ENDSEC
0
EOF
