0
SECTION
2
HEADER
9
$ACADVER
1
AC1009
9
$INSUNITS
70
4
0
ENDSEC
0
SECTION
2
TABLES
0
TABLE
2
LAYER
70
1
0
LAYER
2
CUT
70
0
62
7
6
CONTINUOUS
0
ENDTAB
0
ENDSEC
0
SECTION
2
ENTITIES
0
POLYLINE
8
CUT
66
1
70
1
10
0.0
20
0.0
30
0.0
0
VERTEX
8
CUT
10
0.0000
20
0.0100
0
VERTEX
8
CUT
10
0.0000
20
0.0200
0
VERTEX
8
CUT
10
0.0000
20
0.0500
0
VERTEX
8
CUT
10
0.0000
20
299.9200
0
VERTEX
8
CUT
10
0.0000
20
299.9500
0
VERTEX
8
CUT
10
0.0000
20
299.9600
0
VERTEX
8
CUT
10
0.0100
20
299.9700
0
VERTEX
8
CUT
10
0.0200
20
299.9700
0
VERTEX
8
CUT
10
0.0500
20
299.9700
0
VERTEX
8
CUT
10
299.9500
20
299.9700
0
VERTEX
8
CUT
10
299.9800
20
299.9700
0
VERTEX
8
CUT
10
299.9900
20
299.9700
0
VERTEX
8
CUT
10
300.0000
20
299.9700
0
VERTEX
8
CUT
10
300.0000
20
299.9600
0
VERTEX
8
CUT
10
300.0000
20
299.9500
0
VERTEX
8
CUT
10
300.0000
20
299.9200
0
VERTEX
8
CUT
10
300.0000
20
0.0500
0
VERTEX
8
CUT
10
300.0000
20
0.0200
0
VERTEX
8
CUT
10
300.0000
20
0.0100
0
VERTEX
8
CUT
10
299.9900
20
0.0000
0
VERTEX
8
CUT
10
299.9800
20
0.0000
0
VERTEX
8
CUT
10
299.9500
20
0.0000
0
VERTEX
8
CUT
10
0.0500
20
0.0000
0
VERTEX
8
CUT
10
0.0200
20
0.0000
0
VERTEX
8
CUT
10
0.0100
20
0.0000
0
VERTEX
8
CUT
10
0.0100
20
0.0100
0
SEQEND
0
POLYLINE
8
CUT
66
1
70
1
10
0.0
20
0.0
30
0.0
0
VERTEX
8
CUT
10
271.0900
20
47.8300
0
VERTEX
8
CUT
10
271.1000
20
47.5900
0
VERTEX
8
CUT
10
271.1300
20
47.3400
0
VERTEX
8
CUT
10
271.1900
20
47.1100
0
VERTEX
8
CUT
10
271.2600
20
46.8700
0
VERTEX
8
CUT
10
272.0600
20
44.8400
0
VERTEX
8
CUT
10
272.1700
20
44.6100
0
VERTEX
8
CUT
10
272.3000
20
44.3900
0
VERTEX
8
CUT
10
272.4500
20
44.1800
0
VERTEX
8
CUT
10
272.6200
20
43.9900
0
VERTEX
8
CUT
10
273.7700
20
42.8400
0
VERTEX
8
CUT
10
273.9700
20
42.6600
0
VERTEX
8
CUT
10
274.1900
20
42.5100
0
VERTEX
8
CUT
10
274.4200
20
42.3800
0
VERTEX
8
CUT
10
275.8500
20
41.6600
0
VERTEX
8
CUT
10
276.0600
20
41.5600
0
VERTEX
8
CUT
10
276.2800
20
41.4900
0
VERTEX
8
CUT
10
276.5000
20
41.4300
0
VERTEX
8
CUT
10
276.7300
20
41.4000
0
VERTEX
8
CUT
10
276.9600
20
41.3900
0
VERTEX
8
CUT
10
279.2200
20
41.3800
0
VERTEX
8
CUT
10
279.4900
20
41.3900
0
VERTEX
8
CUT
10
279.7600
20
41.4400
0
VERTEX
8
CUT
10
280.0200
20
41.5100
0
VERTEX
8
CUT
10
280.3800
20
41.6300
0
VERTEX
8
CUT
10
280.6500
20
41.7400
0
VERTEX
8
CUT
10
280.9100
20
41.8700
0
VERTEX
8
CUT
10
281.7500
20
42.3900
0
VERTEX
8
CUT
10
281.9800
20
42.5600
0
VERTEX
8
CUT
10
282.2000
20
42.7500
0
VERTEX
8
CUT
10
283.1900
20
43.7400
0
VERTEX
8
CUT
10
283.3500
20
43.9200
0
VERTEX
8
CUT
10
283.4900
20
44.1000
0
VERTEX
8
CUT
10
283.6100
20
44.3000
0
VERTEX
8
CUT
10
283.7100
20
44.5100
0
VERTEX
8
CUT
10
284.4500
20
46.2100
0
VERTEX
8
CUT
10
284.5400
20
46.4500
0
VERTEX
8
CUT
10
284.6100
20
46.7000
0
VERTEX
8
CUT
10
284.6500
20
46.9500
0
VERTEX
8
CUT
10
284.6600
20
47.2100
0
VERTEX
8
CUT
10
284.6600
20
49.1000
0
VERTEX
8
CUT
10
284.6500
20
49.3600
0
VERTEX
8
CUT
10
284.6100
20
49.6200
0
VERTEX
8
CUT
10
284.5400
20
49.8700
0
VERTEX
8
CUT
10
284.4500
20
50.1100
0
VERTEX
8
CUT
10
283.6600
20
51.9000
0
VERTEX
8
CUT
10
283.5600
20
52.1000
0
VERTEX
8
CUT
10
283.4400
20
52.2900
0
VERTEX
8
CUT
10
283.3100
20
52.4700
0
VERTEX
8
CUT
10
283.1600
20
52.6300
0
VERTEX
8
CUT
10
282.4800
20
53.3300
0
VERTEX
8
CUT
10
282.4600
20
53.3600
0
VERTEX
8
CUT
10
282.4400
20
53.3800
0
VERTEX
8
CUT
10
282.2800
20
53.5200
0
VERTEX
8
CUT
10
282.1200
20
53.6500
0
VERTEX
8
CUT
10
281.3900
20
54.1700
0
VERTEX
8
CUT
10
281.2100
20
54.2800
0
VERTEX
8
CUT
10
281.0300
20
54.3800
0
VERTEX
8
CUT
10
280.8300
20
54.4600
0
VERTEX
8
CUT
10
280.0200
20
54.7700
0
VERTEX
8
CUT
10
279.8100
20
54.8500
0
VERTEX
8
CUT
10
279.5800
20
54.9000
0
VERTEX
8
CUT
10
279.3600
20
54.9300
0
VERTEX
8
CUT
10
279.1300
20
54.9400
0
VERTEX
8
CUT
10
276.5300
20
54.9400
0
VERTEX
8
CUT
10
276.2600
20
54.9300
0
VERTEX
8
CUT
10
276.0000
20
54.8800
0
VERTEX
8
CUT
10
275.7400
20
54.8100
0
VERTEX
8
CUT
10
275.5000
20
54.7300
0
VERTEX
8
CUT
10
275.2800
20
54.6500
0
VERTEX
8
CUT
10
275.0800
20
54.5500
0
VERTEX
8
CUT
10
274.8800
20
54.4300
0
VERTEX
8
CUT
10
273.6900
20
53.6200
0
VERTEX
8
CUT
10
273.5100
20
53.4800
0
VERTEX
8
CUT
10
273.3400
20
53.3200
0
VERTEX
8
CUT
10
273.1800
20
53.1500
0
VERTEX
8
CUT
10
272.3100
20
52.1100
0
VERTEX
8
CUT
10
272.1600
20
51.9100
0
VERTEX
8
CUT
10
272.0300
20
51.6900
0
VERTEX
8
CUT
10
271.9200
20
51.4600
0
VERTEX
8
CUT
10
271.8300
20
51.2300
0
VERTEX
8
CUT
10
271.2000
20
49.1200
0
VERTEX
8
CUT
10
271.1500
20
48.8900
0
VERTEX
8
CUT
10
271.1100
20
48.6700
0
VERTEX
8
CUT
10
271.1000
20
48.4400
0
SEQEND
0
POLYLINE
8
CUT
66
1
70
1
10
0.0
20
0.0
30
0.0
0
VERTEX
8
CUT
10
245.6600
20
148.2700
0
VERTEX
8
CUT
10
245.6300
20
148.1900
0
VERTEX
8
CUT
10
244.5500
20
144.0400
0
VERTEX
8
CUT
10
244.5100
20
143.8300
0
VERTEX
8
CUT
10
244.4800
20
143.6200
0
VERTEX
8
CUT
10
244.4700
20
143.4000
0
VERTEX
8
CUT
10
244.4800
20
139.5000
0
VERTEX
8
CUT
10
244.5000
20
139.2100
0
VERTEX
8
CUT
10
244.5500
20
138.9300
0
VERTEX
8
CUT
10
245.3000
20
135.8000
0
VERTEX
8
CUT
10
245.3500
20
135.6200
0
VERTEX
8
CUT
10
245.4100
20
135.4400
0
VERTEX
8
CUT
10
245.9100
20
134.2100
0
VERTEX
8
CUT
10
246.0700
20
133.8900
0
VERTEX
8
CUT
10
247.0800
20
132.1500
0
VERTEX
8
CUT
10
247.1700
20
132.0000
0
VERTEX
8
CUT
10
254.2100
20
121.6900
0
VERTEX
8
CUT
10
254.2300
20
121.6500
0
VERTEX
8
CUT
10
254.2600
20
121.6100
0
VERTEX
8
CUT
10
254.3200
20
121.5200
0
VERTEX
8
CUT
10
255.4900
20
119.4800
0
VERTEX
8
CUT
10
255.5000
20
119.4600
0
VERTEX
8
CUT
10
255.5100
20
119.4400
0
VERTEX
8
CUT
10
255.5200
20
119.4200
0
VERTEX
8
CUT
10
255.9800
20
118.4800
0
VERTEX
8
CUT
10
256.0900
20
118.2700
0
VERTEX
8
CUT
10
256.2300
20
118.0600
0
VERTEX
8
CUT
10
256.3800
20
117.8800
0
VERTEX
8
CUT
10
256.5500
20
117.7100
0
VERTEX
8
CUT
10
256.7400
20
117.5500
0
VERTEX
8
CUT
10
256.9400
20
117.4200
0
VERTEX
8
CUT
10
257.1600
20
117.3000
0
VERTEX
8
CUT
10
257.3800
20
117.2100
0
VERTEX
8
CUT
10
257.6100
20
117.1400
0
VERTEX
8
CUT
10
257.8500
20
117.0900
0
VERTEX
8
CUT
10
258.0900
20
117.0600
0
VERTEX
8
CUT
10
258.3300
20
117.0600
0
VERTEX
8
CUT
10
258.5700
20
117.0800
0
VERTEX
8
CUT
10
258.8100
20
117.1300
0
VERTEX
8
CUT
10
259.0500
20
117.2000
0
VERTEX
8
CUT
10
259.2700
20
117.2900
0
VERTEX
8
CUT
10
259.4900
20
117.4000
0
VERTEX
8
CUT
10
259.6900
20
117.5300
0
VERTEX
8
CUT
10
259.8800
20
117.6800
0
VERTEX
8
CUT
10
260.0500
20
117.8500
0
VERTEX
8
CUT
10
260.2100
20
118.0400
0
VERTEX
8
CUT
10
260.3500
20
118.2300
0
VERTEX
8
CUT
10
260.4700
20
118.4500
0
VERTEX
8
CUT
10
260.5700
20
118.6700
0
VERTEX
8
CUT
10
260.6400
20
118.9000
0
VERTEX
8
CUT
10
260.6900
20
119.1400
0
VERTEX
8
CUT
10
260.7200
20
119.3800
0
VERTEX
8
CUT
10
260.7300
20
119.6200
0
VERTEX
8
CUT
10
260.6800
20
121.7300
0
VERTEX
8
CUT
10
260.6600
20
122.0000
0
VERTEX
8
CUT
10
260.6100
20
122.2600
0
VERTEX
8
CUT
10
260.5300
20
122.5200
0
VERTEX
8
CUT
10
260.4700
20
122.6900
0
VERTEX
8
CUT
10
260.4600
20
122.7300
0
VERTEX
8
CUT
10
260.4500
20
122.7600
0
VERTEX
8
CUT
10
260.4300
20
122.8200
0
VERTEX
8
CUT
10
260.4300
20
122.9000
0
VERTEX
8
CUT
10
260.3900
20
124.6200
0
VERTEX
8
CUT
10
260.3700
20
124.9000
0
VERTEX
8
CUT
10
260.3100
20
125.1700
0
VERTEX
8
CUT
10
260.2300
20
125.4400
0
VERTEX
8
CUT
10
260.2000
20
125.5300
0
VERTEX
8
CUT
10
260.1800
20
125.5800
0
VERTEX
8
CUT
10
260.1800
20
125.5900
0
VERTEX
8
CUT
10
260.1700
20
125.6200
0
VERTEX
8
CUT
10
260.1600
20
125.6400
0
VERTEX
8
CUT
10
260.1500
20
125.6700
0
VERTEX
8
CUT
10
260.1500
20
125.6800
0
VERTEX
8
CUT
10
260.1500
20
125.7400
0
VERTEX
8
CUT
10
260.1000
20
127.2600
0
VERTEX
8
CUT
10
260.0800
20
127.5100
0
VERTEX
8
CUT
10
260.0300
20
127.7600
0
VERTEX
8
CUT
10
259.9600
20
128.0000
0
VERTEX
8
CUT
10
259.9000
20
128.1600
0
VERTEX
8
CUT
10
259.9000
20
128.1700
0
VERTEX
8
CUT
10
259.8700
20
128.2700
0
VERTEX
8
CUT
10
259.8600
20
128.3000
0
VERTEX
8
CUT
10
259.8500
20
128.3200
0
VERTEX
8
CUT
10
259.8500
20
128.3300
0
VERTEX
8
CUT
10
259.8500
20
128.3400
0
VERTEX
8
CUT
10
259.8500
20
128.4000
0
VERTEX
8
CUT
10
259.8100
20
129.8400
0
VERTEX
8
CUT
10
259.8100
20
129.8600
0
VERTEX
8
CUT
10
259.8100
20
129.9000
0
VERTEX
8
CUT
10
259.8000
20
130.0800
0
VERTEX
8
CUT
10
259.7700
20
130.3100
0
VERTEX
8
CUT
10
259.7200
20
130.5200
0
VERTEX
8
CUT
10
259.6500
20
130.7400
0
VERTEX
8
CUT
10
259.5800
20
130.9300
0
VERTEX
8
CUT
10
259.5700
20
130.9500
0
VERTEX
8
CUT
10
259.5600
20
130.9900
0
VERTEX
8
CUT
10
259.5600
20
131.0100
0
VERTEX
8
CUT
10
259.5600
20
131.0500
0
VERTEX
8
CUT
10
259.5600
20
131.0700
0
VERTEX
8
CUT
10
259.5200
20
132.7900
0
VERTEX
8
CUT
10
259.5000
20
133.0500
0
VERTEX
8
CUT
10
259.4500
20
133.3000
0
VERTEX
8
CUT
10
259.3800
20
133.5500
0
VERTEX
8
CUT
10
259.2900
20
133.8100
0
VERTEX
8
CUT
10
259.2800
20
133.8500
0
VERTEX
8
CUT
10
259.2700
20
133.8600
0
VERTEX
8
CUT
10
259.2700
20
133.8700
0
VERTEX
8
CUT
10
259.2600
20
133.9000
0
VERTEX
8
CUT
10
259.2600
20
133.9100
0
VERTEX
8
CUT
10
259.2600
20
133.9200
0
VERTEX
8
CUT
10
259.2600
20
133.9500
0
VERTEX
8
CUT
10
259.2600
20
134.0000
0
VERTEX
8
CUT
10
259.2200
20
135.2200
0
VERTEX
8
CUT
10
259.2000
20
135.4900
0
VERTEX
8
CUT
10
259.1400
20
135.7500
0
VERTEX
8
CUT
10
259.0600
20
136.0100
0
VERTEX
8
CUT
10
259.0200
20
136.1100
0
VERTEX
8
CUT
10
258.9800
20
136.2100
0
VERTEX
8
CUT
10
258.9800
20
136.2200
0
VERTEX
8
CUT
10
258.9700
20
136.2300
0
VERTEX
8
CUT
10
258.9700
20
136.2400
0
VERTEX
8
CUT
10
258.9700
20
136.2500
0
VERTEX
8
CUT
10
258.9700
20
136.2600
0
VERTEX
8
CUT
10
258.9700
20
136.3200
0
VERTEX
8
CUT
10
258.9700
20
136.3400
0
VERTEX
8
CUT
10
258.9300
20
137.5900
0
VERTEX
8
CUT
10
258.9000
20
137.8700
0
VERTEX
8
CUT
10
258.8500
20
138.1500
0
VERTEX
8
CUT
10
258.7600
20
138.4200
0
VERTEX
8
CUT
10
258.4200
20
139.2800
0
VERTEX
8
CUT
10
258.4100
20
139.3000
0
VERTEX
8
CUT
10
258.4000
20
139.3700
0
VERTEX
8
CUT
10
258.3900
20
139.4200
0
VERTEX
8
CUT
10
258.3800
20
139.4400
0
VERTEX
8
CUT
10
258.3800
20
139.4800
0
VERTEX
8
CUT
10
257.7900
20
143.0300
0
VERTEX
8
CUT
10
257.7500
20
143.2100
0
VERTEX
8
CUT
10
257.7000
20
143.3900
0
VERTEX
8
CUT
10
256.9600
20
145.6600
0
VERTEX
8
CUT
10
256.9500
20
145.6800
0
VERTEX
8
CUT
10
256.9500
20
145.7000
0
VERTEX
8
CUT
10
256.9400
20
145.7300
0
VERTEX
8
CUT
10
256.9300
20
145.8100
0
VERTEX
8
CUT
10
256.9300
20
145.8200
0
VERTEX
8
CUT
10
256.9300
20
145.8300
0
VERTEX
8
CUT
10
256.9000
20
146.2000
0
VERTEX
8
CUT
10
256.8600
20
146.4900
0
VERTEX
8
CUT
10
256.7800
20
146.7700
0
VERTEX
8
CUT
10
254.8700
20
152.5000
0
VERTEX
8
CUT
10
254.8200
20
152.6400
0
VERTEX
8
CUT
10
254.8000
20
152.6900
0
VERTEX
8
CUT
10
252.6600
20
158.0600
0
VERTEX
8
CUT
10
252.6300
20
158.1400
0
VERTEX
8
CUT
10
252.6200
20
158.1500
0
VERTEX
8
CUT
10
252.6000
20
158.2000
0
VERTEX
8
CUT
10
252.6000
20
158.2100
0
VERTEX
8
CUT
10
252.5800
20
158.2500
0
VERTEX
8
CUT
10
252.5800
20
158.2600
0
VERTEX
8
CUT
10
252.5800
20
158.2800
0
VERTEX
8
CUT
10
252.5700
20
158.3100
0
VERTEX
8
CUT
10
252.5100
20
158.8000
0
VERTEX
8
CUT
10
252.4700
20
159.0800
0
VERTEX
8
CUT
10
252.3900
20
159.3500
0
VERTEX
8
CUT
10
252.1800
20
159.9400
0
VERTEX
8
CUT
10
252.0800
20
160.1600
0
VERTEX
8
CUT
10
251.9700
20
160.3700
0
VERTEX
8
CUT
10
251.8400
20
160.5800
0
VERTEX
8
CUT
10
251.6900
20
160.7600
0
VERTEX
8
CUT
10
251.5200
20
160.9400
0
VERTEX
8
CUT
10
251.3300
20
161.0900
0
VERTEX
8
CUT
10
251.1300
20
161.2300
0
VERTEX
8
CUT
10
250.9200
20
161.3400
0
VERTEX
8
CUT
10
250.7000
20
161.4400
0
VERTEX
8
CUT
10
250.4700
20
161.5100
0
VERTEX
8
CUT
10
250.2400
20
161.5700
0
VERTEX
8
CUT
10
250.0000
20
161.5900
0
VERTEX
8
CUT
10
249.7500
20
161.6000
0
VERTEX
8
CUT
10
249.5100
20
161.5800
0
VERTEX
8
CUT
10
249.2800
20
161.5400
0
VERTEX
8
CUT
10
249.0400
20
161.4800
0
VERTEX
8
CUT
10
248.8200
20
161.3900
0
VERTEX
8
CUT
10
248.6000
20
161.2800
0
VERTEX
8
CUT
10
248.4000
20
161.1600
0
VERTEX
8
CUT
10
248.2100
20
161.0100
0
VERTEX
8
CUT
10
248.0300
20
160.8400
0
VERTEX
8
CUT
10
247.8700
20
160.6600
0
VERTEX
8
CUT
10
247.7300
20
160.4700
0
VERTEX
8
CUT
10
247.6100
20
160.2600
0
VERTEX
8
CUT
10
247.5000
20
160.0400
0
VERTEX
8
CUT
10
247.4200
20
159.8100
0
VERTEX
8
CUT
10
247.3700
20
159.5800
0
VERTEX
8
CUT
10
247.3300
20
159.3400
0
VERTEX
8
CUT
10
247.3200
20
159.1000
0
VERTEX
8
CUT
10
247.3200
20
154.3700
0
VERTEX
8
CUT
10
247.3100
20
154.2700
0
VERTEX
8
CUT
10
247.3100
20
154.2500
0
VERTEX
8
CUT
10
247.3000
20
154.2300
0
VERTEX
8
CUT
10
247.3000
20
154.2200
0
VERTEX
8
CUT
10
247.2500
20
154.1100
0
VERTEX
8
CUT
10
247.1800
20
153.9100
0
VERTEX
8
CUT
10
247.1200
20
153.7000
0
VERTEX
8
CUT
10
247.0800
20
153.4900
0
VERTEX
8
CUT
10
247.0500
20
153.2800
0
VERTEX
8
CUT
10
247.0300
20
152.9400
0
VERTEX
8
CUT
10
247.0300
20
152.8700
0
VERTEX
8
CUT
10
247.0300
20
152.7900
0
VERTEX
8
CUT
10
247.0300
20
152.7700
0
VERTEX
8
CUT
10
247.0200
20
152.7300
0
VERTEX
8
CUT
10
247.0100
20
152.7100
0
VERTEX
8
CUT
10
247.0000
20
152.6800
0
VERTEX
8
CUT
10
246.6500
20
151.7800
0
VERTEX
8
CUT
10
246.5600
20
151.5400
0
VERTEX
8
CUT
10
246.5100
20
151.2900
0
VERTEX
8
CUT
10
246.4800
20
151.0400
0
VERTEX
8
CUT
10
246.4500
20
150.6200
0
VERTEX
8
CUT
10
246.4500
20
150.5900
0
VERTEX
8
CUT
10
246.4500
20
150.5300
0
VERTEX
8
CUT
10
246.4400
20
150.4700
0
VERTEX
8
CUT
10
246.4400
20
150.4500
0
VERTEX
8
CUT
10
246.4400
20
150.4400
0
VERTEX
8
CUT
10
246.4400
20
150.4300
0
VERTEX
8
CUT
10
246.4300
20
150.4000
0
VERTEX
8
CUT
10
246.4300
20
150.3900
0
VERTEX
8
CUT
10
246.4200
20
150.3600
0
VERTEX
8
CUT
10
245.7500
20
148.5700
0
VERTEX
8
CUT
10
245.7100
20
148.4400
0
VERTEX
8
CUT
10
245.6900
20
148.3800
0
VERTEX
8
CUT
10
245.6900
20
148.3700
0
VERTEX
8
CUT
10
245.6800
20
148.3400
0
VERTEX
8
CUT
10
245.6700
20
148.3200
0
SEQEND
0
POLYLINE
8
CUT
66
1
70
1
10
0.0
20
0.0
30
0.0
0
VERTEX
8
CUT
10
132.8200
20
134.5700
0
VERTEX
8
CUT
10
132.5800
20
134.5500
0
VERTEX
8
CUT
10
132.3400
20
134.5100
0
VERTEX
8
CUT
10
132.1100
20
134.4500
0
VERTEX
8
CUT
10
131.8800
20
134.3700
0
VERTEX
8
CUT
10
131.6600
20
134.2600
0
VERTEX
8
CUT
10
131.4500
20
134.1300
0
VERTEX
8
CUT
10
131.2600
20
133.9800
0
VERTEX
8
CUT
10
131.0800
20
133.8200
0
VERTEX
8
CUT
10
130.9200
20
133.6400
0
VERTEX
8
CUT
10
130.7800
20
133.4400
0
VERTEX
8
CUT
10
130.6600
20
133.2300
0
VERTEX
8
CUT
10
130.5500
20
133.0100
0
VERTEX
8
CUT
10
130.4700
20
132.7800
0
VERTEX
8
CUT
10
130.4200
20
132.5400
0
VERTEX
8
CUT
10
130.3800
20
132.3000
0
VERTEX
8
CUT
10
130.3700
20
132.0600
0
VERTEX
8
CUT
10
130.3800
20
131.8200
0
VERTEX
8
CUT
10
130.4200
20
131.5800
0
VERTEX
8
CUT
10
130.4800
20
131.3400
0
VERTEX
8
CUT
10
130.5600
20
131.1100
0
VERTEX
8
CUT
10
130.6600
20
130.8900
0
VERTEX
8
CUT
10
130.7900
20
130.6900
0
VERTEX
8
CUT
10
130.9300
20
130.4900
0
VERTEX
8
CUT
10
131.0900
20
130.3100
0
VERTEX
8
CUT
10
131.2700
20
130.1500
0
VERTEX
8
CUT
10
131.4700
20
130.0000
0
VERTEX
8
CUT
10
135.9400
20
126.9700
0
VERTEX
8
CUT
10
136.0400
20
126.9000
0
VERTEX
8
CUT
10
138.6300
20
124.8700
0
VERTEX
8
CUT
10
138.6800
20
124.8300
0
VERTEX
8
CUT
10
138.7100
20
124.8100
0
VERTEX
8
CUT
10
138.7300
20
124.7900
0
VERTEX
8
CUT
10
138.7400
20
124.7800
0
VERTEX
8
CUT
10
138.7900
20
124.7400
0
VERTEX
8
CUT
10
138.8500
20
124.6800
0
VERTEX
8
CUT
10
141.0000
20
122.8000
0
VERTEX
8
CUT
10
141.0100
20
122.8000
0
VERTEX
8
CUT
10
141.0300
20
122.7800
0
VERTEX
8
CUT
10
141.0400
20
122.7700
0
VERTEX
8
CUT
10
141.0500
20
122.7700
0
VERTEX
8
CUT
10
141.1100
20
122.7100
0
VERTEX
8
CUT
10
141.1700
20
122.6600
0
VERTEX
8
CUT
10
148.2800
20
115.6700
0
VERTEX
8
CUT
10
148.5300
20
115.4500
0
VERTEX
8
CUT
10
151.4800
20
113.2500
0
VERTEX
8
CUT
10
151.5100
20
113.2200
0
VERTEX
8
CUT
10
151.6900
20
113.1000
0
VERTEX
8
CUT
10
151.7000
20
113.0900
0
VERTEX
8
CUT
10
151.7300
20
113.0700
0
VERTEX
8
CUT
10
151.8200
20
113.0300
0
VERTEX
8
CUT
10
151.9400
20
112.9600
0
VERTEX
8
CUT
10
151.9700
20
112.9500
0
VERTEX
8
CUT
10
155.1100
20
111.3900
0
VERTEX
8
CUT
10
155.3000
20
111.3000
0
VERTEX
8
CUT
10
155.5100
20
111.2300
0
VERTEX
8
CUT
10
157.8900
20
110.5200
0
VERTEX
8
CUT
10
158.1800
20
110.4600
0
VERTEX
8
CUT
10
158.4900
20
110.4200
0
VERTEX
8
CUT
10
159.3100
20
110.3800
0
VERTEX
8
CUT
10
159.3600
20
110.3800
0
VERTEX
8
CUT
10
159.3800
20
110.3800
0
VERTEX
8
CUT
10
159.4100
20
110.3700
0
VERTEX
8
CUT
10
159.4400
20
110.3600
0
VERTEX
8
CUT
10
159.5100
20
110.3400
0
VERTEX
8
CUT
10
159.5800
20
110.3100
0
VERTEX
8
CUT
10
159.8000
20
110.2300
0
VERTEX
8
CUT
10
160.0200
20
110.1800
0
VERTEX
8
CUT
10
160.2500
20
110.1500
0
VERTEX
8
CUT
10
160.4800
20
110.1400
0
VERTEX
8
CUT
10
163.7600
20
110.1400
0
VERTEX
8
CUT
10
164.0200
20
110.1500
0
VERTEX
8
CUT
10
164.2700
20
110.1900
0
VERTEX
8
CUT
10
167.8600
20
110.9400
0
VERTEX
8
CUT
10
168.1400
20
111.0200
0
VERTEX
8
CUT
10
168.4000
20
111.1200
0
VERTEX
8
CUT
10
172.3500
20
112.9500
0
VERTEX
8
CUT
10
172.5600
20
113.0600
0
VERTEX
8
CUT
10
172.7500
20
113.1900
0
VERTEX
8
CUT
10
175.3500
20
115.0500
0
VERTEX
8
CUT
10
175.5100
20
115.1700
0
VERTEX
8
CUT
10
175.6600
20
115.3000
0
VERTEX
8
CUT
10
180.2700
20
119.8700
0
VERTEX
8
CUT
10
180.4100
20
120.0200
0
VERTEX
8
CUT
10
185.2000
20
125.6100
0
VERTEX
8
CUT
10
185.2400
20
125.6500
0
VERTEX
8
CUT
10
185.2600
20
125.6700
0
VERTEX
8
CUT
10
185.2800
20
125.6900
0
VERTEX
8
CUT
10
189.3900
20
129.4600
0
VERTEX
8
CUT
10
189.4300
20
129.4900
0
VERTEX
8
CUT
10
189.4400
20
129.5000
0
VERTEX
8
CUT
10
189.5200
20
129.5700
0
VERTEX
8
CUT
10
189.5300
20
129.5700
0
VERTEX
8
CUT
10
189.5500
20
129.6000
0
VERTEX
8
CUT
10
189.5600
20
129.6100
0
VERTEX
8
CUT
10
189.6100
20
129.6400
0
VERTEX
8
CUT
10
192.2100
20
131.3800
0
VERTEX
8
CUT
10
192.3500
20
131.4600
0
VERTEX
8
CUT
10
197.3600
20
133.9700
0
VERTEX
8
CUT
10
197.4300
20
134.0000
0
VERTEX
8
CUT
10
197.4700
20
134.0200
0
VERTEX
8
CUT
10
197.5500
20
134.0500
0
VERTEX
8
CUT
10
198.3900
20
134.3300
0
VERTEX
8
CUT
10
198.5900
20
134.4000
0
VERTEX
8
CUT
10
198.7800
20
134.5000
0
VERTEX
8
CUT
10
202.8200
20
136.6600
0
VERTEX
8
CUT
10
203.0300
20
136.7800
0
VERTEX
8
CUT
10
203.0700
20
136.8100
0
VERTEX
8
CUT
10
204.3800
20
137.6000
0
VERTEX
8
CUT
10
204.4000
20
137.6100
0
VERTEX
8
CUT
10
204.4600
20
137.6400
0
VERTEX
8
CUT
10
204.6500
20
137.7800
0
VERTEX
8
CUT
10
208.3600
20
140.6800
0
VERTEX
8
CUT
10
208.5800
20
140.8800
0
VERTEX
8
CUT
10
211.5200
20
143.8000
0
VERTEX
8
CUT
10
211.6800
20
143.9700
0
VERTEX
8
CUT
10
213.1500
20
145.7300
0
VERTEX
8
CUT
10
213.2300
20
145.8300
0
VERTEX
8
CUT
10
215.8600
20
149.3200
0
VERTEX
8
CUT
10
215.9700
20
149.4800
0
VERTEX
8
CUT
10
218.6400
20
153.6900
0
VERTEX
8
CUT
10
218.6500
20
153.7000
0
VERTEX
8
CUT
10
218.7600
20
153.8700
0
VERTEX
8
CUT
10
222.7800
20
159.0200
0
VERTEX
8
CUT
10
222.8200
20
159.0700
0
VERTEX
8
CUT
10
222.8600
20
159.1100
0
VERTEX
8
CUT
10
222.8800
20
159.1300
0
VERTEX
8
CUT
10
222.9400
20
159.2000
0
VERTEX
8
CUT
10
225.2100
20
161.5100
0
VERTEX
8
CUT
10
225.2400
20
161.5400
0
VERTEX
8
CUT
10
225.2600
20
161.5600
0
VERTEX
8
CUT
10
225.2900
20
161.5800
0
VERTEX
8
CUT
10
227.1300
20
163.1300
0
VERTEX
8
CUT
10
227.1400
20
163.1400
0
VERTEX
8
CUT
10
227.1500
20
163.1500
0
VERTEX
8
CUT
10
227.1900
20
163.1700
0
VERTEX
8
CUT
10
227.2000
20
163.1800
0
VERTEX
8
CUT
10
229.2200
20
164.6200
0
VERTEX
8
CUT
10
229.2300
20
164.6300
0
VERTEX
8
CUT
10
229.3500
20
164.7100
0
VERTEX
8
CUT
10
229.4000
20
164.7500
0
VERTEX
8
CUT
10
229.4200
20
164.7700
0
VERTEX
8
CUT
10
229.4300
20
164.7800
0
VERTEX
8
CUT
10
229.5500
20
164.8200
0
VERTEX
8
CUT
10
233.6900
20
166.7600
0
VERTEX
8
CUT
10
233.7800
20
166.8000
0
VERTEX
8
CUT
10
233.7900
20
166.8000
0
VERTEX
8
CUT
10
233.8700
20
166.8200
0
VERTEX
8
CUT
10
236.5300
20
167.4000
0
VERTEX
8
CUT
10
236.6300
20
167.4300
0
VERTEX
8
CUT
10
236.6500
20
167.4300
0
VERTEX
8
CUT
10
236.6800
20
167.4300
0
VERTEX
8
CUT
10
239.9600
20
167.3600
0
VERTEX
8
CUT
10
240.0000
20
167.3600
0
VERTEX
8
CUT
10
240.0200
20
167.3600
0
VERTEX
8
CUT
10
240.0600
20
167.3500
0
VERTEX
8
CUT
10
240.0900
20
167.3400
0
VERTEX
8
CUT
10
240.1200
20
167.3300
0
VERTEX
8
CUT
10
240.1600
20
167.3200
0
VERTEX
8
CUT
10
242.2800
20
166.5300
0
VERTEX
8
CUT
10
242.3200
20
166.5200
0
VERTEX
8
CUT
10
242.3600
20
166.5000
0
VERTEX
8
CUT
10
242.4700
20
166.4600
0
VERTEX
8
CUT
10
242.5000
20
166.4300
0
VERTEX
8
CUT
10
244.9100
20
164.3500
0
VERTEX
8
CUT
10
244.9400
20
164.3200
0
VERTEX
8
CUT
10
244.9800
20
164.2700
0
VERTEX
8
CUT
10
245.0100
20
164.2300
0
VERTEX
8
CUT
10
246.2100
20
162.5100
0
VERTEX
8
CUT
10
246.3500
20
162.3100
0
VERTEX
8
CUT
10
246.5200
20
162.1400
0
VERTEX
8
CUT
10
246.7000
20
161.9800
0
VERTEX
8
CUT
10
246.8900
20
161.8400
0
VERTEX
8
CUT
10
247.1000
20
161.7100
0
VERTEX
8
CUT
10
247.3200
20
161.6100
0
VERTEX
8
CUT
10
247.5500
20
161.5300
0
VERTEX
8
CUT
10
247.7800
20
161.4800
0
VERTEX
8
CUT
10
248.0200
20
161.4400
0
VERTEX
8
CUT
10
248.2600
20
161.4300
0
VERTEX
8
CUT
10
248.5000
20
161.4400
0
VERTEX
8
CUT
10
248.7400
20
161.4800
0
VERTEX
8
CUT
10
248.9800
20
161.5300
0
VERTEX
8
CUT
10
249.2000
20
161.6100
0
VERTEX
8
CUT
10
249.4200
20
161.7200
0
VERTEX
8
CUT
10
249.6300
20
161.8400
0
VERTEX
8
CUT
10
249.8200
20
161.9800
0
VERTEX
8
CUT
10
250.0100
20
162.1400
0
VERTEX
8
CUT
10
250.1700
20
162.3200
0
VERTEX
8
CUT
10
250.3200
20
162.5100
0
VERTEX
8
CUT
10
250.4400
20
162.7100
0
VERTEX
8
CUT
10
250.5500
20
162.9300
0
VERTEX
8
CUT
10
250.6400
20
163.1500
0
VERTEX
8
CUT
10
250.7000
20
163.3900
0
VERTEX
8
CUT
10
250.7400
20
163.6200
0
VERTEX
8
CUT
10
250.7600
20
163.8700
0
VERTEX
8
CUT
10
250.7500
20
164.1100
0
VERTEX
8
CUT
10
250.7300
20
164.3500
0
VERTEX
8
CUT
10
250.4700
20
165.8900
0
VERTEX
8
CUT
10
250.4600
20
165.8900
0
VERTEX
8
CUT
10
250.4500
20
165.9800
0
VERTEX
8
CUT
10
250.3900
20
166.2300
0
VERTEX
8
CUT
10
249.9300
20
167.6600
0
VERTEX
8
CUT
10
249.9300
20
167.6800
0
VERTEX
8
CUT
10
249.9200
20
167.7100
0
VERTEX
8
CUT
10
249.9200
20
167.7400
0
VERTEX
8
CUT
10
249.9100
20
167.7700
0
VERTEX
8
CUT
10
249.9100
20
167.7900
0
VERTEX
8
CUT
10
249.9000
20
167.8400
0
VERTEX
8
CUT
10
249.5900
20
171.1200
0
VERTEX
8
CUT
10
249.5900
20
171.2300
0
VERTEX
8
CUT
10
249.6400
20
177.5000
0
VERTEX
8
CUT
10
249.6400
20
177.5400
0
VERTEX
8
CUT
10
249.6400
20
177.5600
0
VERTEX
8
CUT
10
249.6600
20
177.6400
0
VERTEX
8
CUT
10
249.6700
20
177.6600
0
VERTEX
8
CUT
10
249.7000
20
177.7300
0
VERTEX
8
CUT
10
249.7900
20
177.9600
0
VERTEX
8
CUT
10
249.8600
20
178.2000
0
VERTEX
8
CUT
10
249.9000
20
178.4400
0
VERTEX
8
CUT
10
250.1900
20
180.7500
0
VERTEX
8
CUT
10
250.2000
20
180.8000
0
VERTEX
8
CUT
10
250.2100
20
180.8400
0
VERTEX
8
CUT
10
251.6800
20
185.8100
0
VERTEX
8
CUT
10
251.7100
20
185.9100
0
VERTEX
8
CUT
10
251.7100
20
185.9200
0
VERTEX
8
CUT
10
251.7200
20
185.9400
0
VERTEX
8
CUT
10
251.7200
20
185.9500
0
VERTEX
8
CUT
10
252.8700
20
188.8100
0
VERTEX
8
CUT
10
252.8800
20
188.8300
0
VERTEX
8
CUT
10
255.4900
20
194.0600
0
VERTEX
8
CUT
10
255.5600
20
194.1800
0
VERTEX
8
CUT
10
258.1300
20
198.1500
0
VERTEX
8
CUT
10
258.1800
20
198.2200
0
VERTEX
8
CUT
10
258.2000
20
198.2600
0
VERTEX
8
CUT
10
258.2300
20
198.3000
0
VERTEX
8
CUT
10
258.2500
20
198.3200
0
VERTEX
8
CUT
10
258.2600
20
198.3300
0
VERTEX
8
CUT
10
258.3000
20
198.3800
0
VERTEX
8
CUT
10
258.3600
20
198.4400
0
VERTEX
8
CUT
10
258.9700
20
199.1500
0
VERTEX
8
CUT
10
259.1200
20
199.3500
0
VERTEX
8
CUT
10
259.2500
20
199.5600
0
VERTEX
8
CUT
10
259.3600
20
199.7800
0
VERTEX
8
CUT
10
259.4500
20
200.0100
0
VERTEX
8
CUT
10
259.5100
20
200.2500
0
VERTEX
8
CUT
10
259.5500
20
200.4900
0
VERTEX
8
CUT
10
259.5700
20
200.7400
0
VERTEX
8
CUT
10
259.5600
20
200.9900
0
VERTEX
8
CUT
10
259.5300
20
201.2300
0
VERTEX
8
CUT
10
259.4700
20
201.4700
0
VERTEX
8
CUT
10
259.3900
20
201.7100
0
VERTEX
8
CUT
10
259.2900
20
201.9300
0
VERTEX
8
CUT
10
259.1600
20
202.1400
0
VERTEX
8
CUT
10
259.0200
20
202.3400
0
VERTEX
8
CUT
10
258.8600
20
202.5300
0
VERTEX
8
CUT
10
258.6700
20
202.7000
0
VERTEX
8
CUT
10
258.4800
20
202.8500
0
VERTEX
8
CUT
10
258.2700
20
202.9800
0
VERTEX
8
CUT
10
258.0400
20
203.0800
0
VERTEX
8
CUT
10
257.8100
20
203.1700
0
VERTEX
8
CUT
10
257.5700
20
203.2300
0
VERTEX
8
CUT
10
257.3300
20
203.2700
0
VERTEX
8
CUT
10
257.0800
20
203.2800
0
VERTEX
8
CUT
10
251.2100
20
203.3000
0
VERTEX
8
CUT
10
250.9500
20
203.2900
0
VERTEX
8
CUT
10
250.7000
20
203.2500
0
VERTEX
8
CUT
10
246.7100
20
202.4400
0
VERTEX
8
CUT
10
246.4300
20
202.3600
0
VERTEX
8
CUT
10
243.3900
20
201.3500
0
VERTEX
8
CUT
10
243.3100
20
201.3300
0
VERTEX
8
CUT
10
243.1200
20
201.2800
0
VERTEX
8
CUT
10
242.8700
20
201.1700
0
VERTEX
8
CUT
10
239.5900
20
199.6300
0
VERTEX
8
CUT
10
239.5800
20
199.6300
0
VERTEX
8
CUT
10
239.5500
20
199.6200
0
VERTEX
8
CUT
10
239.5300
20
199.6100
0
VERTEX
8
CUT
10
239.5000
20
199.6000
0
VERTEX
8
CUT
10
239.3900
20
199.5600
0
VERTEX
8
CUT
10
239.3800
20
199.5600
0
VERTEX
8
CUT
10
238.3600
20
199.2800
0
VERTEX
8
CUT
10
238.1600
20
199.2200
0
VERTEX
8
CUT
10
237.9600
20
199.1300
0
VERTEX
8
CUT
10
237.7600
20
199.0300
0
VERTEX
8
CUT
10
236.0400
20
198.0300
0
VERTEX
8
CUT
10
235.8200
20
197.8900
0
VERTEX
8
CUT
10
226.3800
20
191.0100
0
VERTEX
8
CUT
10
226.3700
20
191.0000
0
VERTEX
8
CUT
10
226.3500
20
190.9900
0
VERTEX
8
CUT
10
226.2500
20
190.9100
0
VERTEX
8
CUT
10
226.1500
20
190.8400
0
VERTEX
8
CUT
10
226.1000
20
190.7900
0
VERTEX
8
CUT
10
219.7900
20
185.5800
0
VERTEX
8
CUT
10
219.6100
20
185.4200
0
VERTEX
8
CUT
10
219.6000
20
185.4100
0
VERTEX
8
CUT
10
219.6000
20
185.4000
0
VERTEX
8
CUT
10
214.4900
20
180.2700
0
VERTEX
8
CUT
10
214.3200
20
180.0900
0
VERTEX
8
CUT
10
212.1200
20
177.3800
0
VERTEX
8
CUT
10
211.9700
20
177.1800
0
VERTEX
8
CUT
10
210.3300
20
174.7300
0
VERTEX
8
CUT
10
210.2000
20
174.5100
0
VERTEX
8
CUT
10
207.6700
20
169.7500
0
VERTEX
8
CUT
10
207.5600
20
169.5100
0
VERTEX
8
CUT
10
206.4900
20
166.8500
0
VERTEX
8
CUT
10
206.4200
20
166.6400
0
VERTEX
8
CUT
10
206.4100
20
166.6100
0
VERTEX
8
CUT
10
205.3800
20
163.8200
0
VERTEX
8
CUT
10
205.3000
20
163.5300
0
VERTEX
8
CUT
10
205.2400
20
163.2300
0
VERTEX
8
CUT
10
205.1900
20
162.7700
0
VERTEX
8
CUT
10
205.1900
20
162.7400
0
VERTEX
8
CUT
10
205.1600
20
162.6300
0
VERTEX
8
CUT
10
202.8500
20
155.4100
0
VERTEX
8
CUT
10
202.8200
20
155.3200
0
VERTEX
8
CUT
10
202.8100
20
155.3000
0
VERTEX
8
CUT
10
202.0200
20
153.4500
0
VERTEX
8
CUT
10
201.9900
20
153.3700
0
VERTEX
8
CUT
10
201.9500
20
153.2800
0
VERTEX
8
CUT
10
201.9100
20
153.1800
0
VERTEX
8
CUT
10
199.5900
20
148.8900
0
VERTEX
8
CUT
10
199.5300
20
148.8000
0
VERTEX
8
CUT
10
199.4800
20
148.7200
0
VERTEX
8
CUT
10
197.0700
20
145.7500
0
VERTEX
8
CUT
10
197.0200
20
145.6900
0
VERTEX
8
CUT
10
197.0000
20
145.6700
0
VERTEX
8
CUT
10
195.0200
20
143.6600
0
VERTEX
8
CUT
10
194.9800
20
143.6200
0
VERTEX
8
CUT
10
194.9200
20
143.5600
0
VERTEX
8
CUT
10
194.8900
20
143.5400
0
VERTEX
8
CUT
10
192.5100
20
141.7500
0
VERTEX
8
CUT
10
192.4600
20
141.7100
0
VERTEX
8
CUT
10
192.4400
20
141.7000
0
VERTEX
8
CUT
10
192.4000
20
141.6700
0
VERTEX
8
CUT
10
192.3400
20
141.6400
0
VERTEX
8
CUT
10
190.0900
20
140.5000
0
VERTEX
8
CUT
10
190.0100
20
140.4600
0
VERTEX
8
CUT
10
189.9900
20
140.4500
0
VERTEX
8
CUT
10
189.9300
20
140.4300
0
VERTEX
8
CUT
10
187.7700
20
139.6300
0
VERTEX
8
CUT
10
187.6700
20
139.6000
0
VERTEX
8
CUT
10
187.6400
20
139.5900
0
VERTEX
8
CUT
10
187.6000
20
139.5800
0
VERTEX
8
CUT
10
187.5300
20
139.5600
0
VERTEX
8
CUT
10
186.1400
20
139.3000
0
VERTEX
8
CUT
10
186.0800
20
139.2900
0
VERTEX
8
CUT
10
186.0200
20
139.2900
0
VERTEX
8
CUT
10
186.0100
20
139.2900
0
VERTEX
8
CUT
10
179.4200
20
139.2800
0
VERTEX
8
CUT
10
179.1700
20
139.2700
0
VERTEX
8
CUT
10
178.9200
20
139.2300
0
VERTEX
8
CUT
10
178.6800
20
139.1700
0
VERTEX
8
CUT
10
178.4400
20
139.0800
0
VERTEX
8
CUT
10
178.2200
20
138.9700
0
VERTEX
8
CUT
10
178.0000
20
138.8400
0
VERTEX
8
CUT
10
177.8100
20
138.6900
0
VERTEX
8
CUT
10
177.6200
20
138.5200
0
VERTEX
8
CUT
10
177.4600
20
138.3300
0
VERTEX
8
CUT
10
177.3100
20
138.1300
0
VERTEX
8
CUT
10
177.1900
20
137.9100
0
VERTEX
8
CUT
10
177.0900
20
137.6800
0
VERTEX
8
CUT
10
177.0100
20
137.4400
0
VERTEX
8
CUT
10
176.9600
20
137.2000
0
VERTEX
8
CUT
10
176.9300
20
136.9500
0
VERTEX
8
CUT
10
176.9200
20
136.7000
0
VERTEX
8
CUT
10
176.9400
20
136.4500
0
VERTEX
8
CUT
10
176.9900
20
136.2000
0
VERTEX
8
CUT
10
177.0600
20
135.9600
0
VERTEX
8
CUT
10
177.1500
20
135.7300
0
VERTEX
8
CUT
10
177.2700
20
135.5100
0
VERTEX
8
CUT
10
177.4000
20
135.3000
0
VERTEX
8
CUT
10
177.5400
20
135.1400
0
VERTEX
8
CUT
10
177.5600
20
135.1100
0
VERTEX
8
CUT
10
177.5900
20
135.0800
0
VERTEX
8
CUT
10
177.5900
20
135.0600
0
VERTEX
8
CUT
10
177.6000
20
135.0500
0
VERTEX
8
CUT
10
177.6100
20
135.0400
0
VERTEX
8
CUT
10
177.6300
20
134.9900
0
VERTEX
8
CUT
10
177.6400
20
134.9700
0
VERTEX
8
CUT
10
177.6700
20
134.9200
0
VERTEX
8
CUT
10
177.6800
20
134.9000
0
VERTEX
8
CUT
10
177.9100
20
134.4800
0
VERTEX
8
CUT
10
177.9200
20
134.4600
0
VERTEX
8
CUT
10
177.9300
20
134.4500
0
VERTEX
8
CUT
10
177.9400
20
134.4100
0
VERTEX
8
CUT
10
177.9500
20
134.3900
0
VERTEX
8
CUT
10
177.9700
20
134.3100
0
VERTEX
8
CUT
10
178.2500
20
133.2400
0
VERTEX
8
CUT
10
178.2600
20
133.1900
0
VERTEX
8
CUT
10
178.2600
20
133.1800
0
VERTEX
8
CUT
10
178.2700
20
133.1600
0
VERTEX
8
CUT
10
178.2700
20
133.1500
0
VERTEX
8
CUT
10
178.2700
20
133.1400
0
VERTEX
8
CUT
10
178.2700
20
133.1000
0
VERTEX
8
CUT
10
178.2800
20
133.0200
0
VERTEX
8
CUT
10
178.3200
20
131.9100
0
VERTEX
8
CUT
10
178.3200
20
131.7900
0
VERTEX
8
CUT
10
178.2900
20
130.7600
0
VERTEX
8
CUT
10
178.2900
20
130.7300
0
VERTEX
8
CUT
10
178.2900
20
130.6900
0
VERTEX
8
CUT
10
178.2900
20
130.6800
0
VERTEX
8
CUT
10
178.2900
20
130.6700
0
VERTEX
8
CUT
10
178.2800
20
130.6600
0
VERTEX
8
CUT
10
178.2800
20
130.6400
0
VERTEX
8
CUT
10
178.0000
20
129.4800
0
VERTEX
8
CUT
10
177.9900
20
129.4300
0
VERTEX
8
CUT
10
177.9800
20
129.4000
0
VERTEX
8
CUT
10
177.9600
20
129.3000
0
VERTEX
8
CUT
10
177.9500
20
129.2700
0
VERTEX
8
CUT
10
177.9500
20
129.2600
0
VERTEX
8
CUT
10
176.4900
20
125.8100
0
VERTEX
8
CUT
10
176.4800
20
125.7800
0
VERTEX
8
CUT
10
176.4600
20
125.7400
0
VERTEX
8
CUT
10
176.4300
20
125.6800
0
VERTEX
8
CUT
10
175.5500
20
124.3000
0
VERTEX
8
CUT
10
175.5100
20
124.2400
0
VERTEX
8
CUT
10
175.4500
20
124.1400
0
VERTEX
8
CUT
10
175.4400
20
124.1200
0
VERTEX
8
CUT
10
175.4300
20
124.1000
0
VERTEX
8
CUT
10
175.4100
20
124.0700
0
VERTEX
8
CUT
10
175.4000
20
124.0600
0
VERTEX
8
CUT
10
175.3900
20
124.0500
0
VERTEX
8
CUT
10
175.3900
20
124.0400
0
VERTEX
8
CUT
10
175.3800
20
124.0300
0
VERTEX
8
CUT
10
175.3300
20
123.9800
0
VERTEX
8
CUT
10
175.2700
20
123.9200
0
VERTEX
8
CUT
10
173.4300
20
121.7900
0
VERTEX
8
CUT
10
173.4200
20
121.7800
0
VERTEX
8
CUT
10
173.3100
20
121.6600
0
VERTEX
8
CUT
10
173.2400
20
121.5700
0
VERTEX
8
CUT
10
173.2300
20
121.5700
0
VERTEX
8
CUT
10
171.8700
20
120.3100
0
VERTEX
8
CUT
10
171.8600
20
120.3100
0
VERTEX
8
CUT
10
171.8300
20
120.2800
0
VERTEX
8
CUT
10
171.8200
20
120.2700
0
VERTEX
8
CUT
10
171.8100
20
120.2700
0
VERTEX
8
CUT
10
171.7900
20
120.2600
0
VERTEX
8
CUT
10
171.7800
20
120.2600
0
VERTEX
8
CUT
10
171.7600
20
120.2600
0
VERTEX
8
CUT
10
171.7400
20
120.2700
0
VERTEX
8
CUT
10
171.6500
20
120.2900
0
VERTEX
8
CUT
10
171.5400
20
120.3100
0
VERTEX
8
CUT
10
171.4000
20
120.3300
0
VERTEX
8
CUT
10
171.3900
20
120.3300
0
VERTEX
8
CUT
10
171.3800
20
120.3400
0
VERTEX
8
CUT
10
171.3700
20
120.3400
0
VERTEX
8
CUT
10
171.3600
20
120.3500
0
VERTEX
8
CUT
10
171.3500
20
120.3600
0
VERTEX
8
CUT
10
171.0600
20
120.6800
0
VERTEX
8
CUT
10
171.0400
20
120.7100
0
VERTEX
8
CUT
10
170.9600
20
120.8000
0
VERTEX
8
CUT
10
170.9500
20
120.8100
0
VERTEX
8
CUT
10
170.9500
20
120.8200
0
VERTEX
8
CUT
10
170.9500
20
120.8300
0
VERTEX
8
CUT
10
170.9400
20
120.8300
0
VERTEX
8
CUT
10
170.9400
20
120.8400
0
VERTEX
8
CUT
10
170.9400
20
120.8500
0
VERTEX
8
CUT
10
170.9400
20
120.9600
0
VERTEX
8
CUT
10
170.8600
20
122.7500
0
VERTEX
8
CUT
10
170.8400
20
122.9600
0
VERTEX
8
CUT
10
170.8100
20
123.1600
0
VERTEX
8
CUT
10
170.7600
20
123.3600
0
VERTEX
8
CUT
10
170.0000
20
125.9000
0
VERTEX
8
CUT
10
169.9200
20
126.1000
0
VERTEX
8
CUT
10
169.8400
20
126.3000
0
VERTEX
8
CUT
10
168.6000
20
128.7800
0
VERTEX
8
CUT
10
168.4800
20
128.9800
0
VERTEX
8
CUT
10
168.4400
20
129.0500
0
VERTEX
8
CUT
10
168.4200
20
129.0800
0
VERTEX
8
CUT
10
166.8900
20
131.6200
0
VERTEX
8
CUT
10
166.7500
20
131.8300
0
VERTEX
8
CUT
10
166.7200
20
131.8700
0
VERTEX
8
CUT
10
166.5000
20
132.1300
0
VERTEX
8
CUT
10
165.6500
20
132.9900
0
VERTEX
8
CUT
10
165.4800
20
133.1400
0
VERTEX
8
CUT
10
165.2900
20
133.2900
0
VERTEX
8
CUT
10
165.1000
20
133.4100
0
VERTEX
8
CUT
10
164.4700
20
133.7600
0
VERTEX
8
CUT
10
164.4600
20
133.7700
0
VERTEX
8
CUT
10
164.4000
20
133.8000
0
VERTEX
8
CUT
10
164.3800
20
133.8100
0
VERTEX
8
CUT
10
164.3500
20
133.8300
0
VERTEX
8
CUT
10
164.3100
20
133.8600
0
VERTEX
8
CUT
10
164.2900
20
133.8700
0
VERTEX
8
CUT
10
164.2500
20
133.9000
0
VERTEX
8
CUT
10
161.7600
20
136.0200
0
VERTEX
8
CUT
10
161.5500
20
136.1800
0
VERTEX
8
CUT
10
161.3300
20
136.3200
0
VERTEX
8
CUT
10
161.1000
20
136.4300
0
VERTEX
8
CUT
10
158.1100
20
137.6700
0
VERTEX
8
CUT
10
157.7700
20
137.7800
0
VERTEX
8
CUT
10
155.8800
20
138.2600
0
VERTEX
8
CUT
10
155.6700
20
138.3100
0
VERTEX
8
CUT
10
155.4700
20
138.3300
0
VERTEX
8
CUT
10
155.2600
20
138.3400
0
VERTEX
8
CUT
10
154.7800
20
138.3400
0
VERTEX
8
CUT
10
154.5700
20
138.3300
0
VERTEX
8
CUT
10
154.3600
20
138.3000
0
VERTEX
8
CUT
10
154.1600
20
138.2600
0
VERTEX
8
CUT
10
152.6100
20
137.8600
0
VERTEX
8
CUT
10
152.4900
20
137.8300
0
VERTEX
8
CUT
10
152.4500
20
137.8200
0
VERTEX
8
CUT
10
152.3300
20
137.8000
0
VERTEX
8
CUT
10
152.0800
20
137.7900
0
VERTEX
8
CUT
10
151.8500
20
137.7600
0
VERTEX
8
CUT
10
151.6300
20
137.7200
0
VERTEX
8
CUT
10
151.4100
20
137.6500
0
VERTEX
8
CUT
10
151.2000
20
137.5700
0
VERTEX
8
CUT
10
150.9900
20
137.4600
0
VERTEX
8
CUT
10
150.8000
20
137.3400
0
VERTEX
8
CUT
10
150.6200
20
137.2000
0
VERTEX
8
CUT
10
150.4900
20
137.0900
0
VERTEX
8
CUT
10
150.3300
20
136.9500
0
VERTEX
8
CUT
10
150.3100
20
136.9300
0
VERTEX
8
CUT
10
150.1600
20
136.7600
0
VERTEX
8
CUT
10
150.0200
20
136.5800
0
VERTEX
8
CUT
10
148.9200
20
134.9800
0
VERTEX
8
CUT
10
148.7900
20
134.7600
0
VERTEX
8
CUT
10
148.6800
20
134.5400
0
VERTEX
8
CUT
10
148.0600
20
133.0800
0
VERTEX
8
CUT
10
147.9800
20
132.8600
0
VERTEX
8
CUT
10
147.9200
20
132.6300
0
VERTEX
8
CUT
10
147.8800
20
132.3900
0
VERTEX
8
CUT
10
147.6100
20
130.1100
0
VERTEX
8
CUT
10
147.5900
20
129.8400
0
VERTEX
8
CUT
10
147.6000
20
129.5600
0
VERTEX
8
CUT
10
147.8700
20
127.0600
0
VERTEX
8
CUT
10
147.8700
20
127.0400
0
VERTEX
8
CUT
10
147.8700
20
126.9800
0
VERTEX
8
CUT
10
147.8700
20
126.9600
0
VERTEX
8
CUT
10
147.8400
20
126.8700
0
VERTEX
8
CUT
10
147.4600
20
125.6900
0
VERTEX
8
CUT
10
147.4600
20
125.6700
0
VERTEX
8
CUT
10
147.4500
20
125.6500
0
VERTEX
8
CUT
10
147.4500
20
125.6400
0
VERTEX
8
CUT
10
147.4400
20
125.6300
0
VERTEX
8
CUT
10
147.4300
20
125.6300
0
VERTEX
8
CUT
10
147.4300
20
125.6200
0
VERTEX
8
CUT
10
146.8700
20
125.2600
0
VERTEX
8
CUT
10
146.8500
20
125.2500
0
VERTEX
8
CUT
10
146.8200
20
125.2200
0
VERTEX
8
CUT
10
146.8100
20
125.2200
0
VERTEX
8
CUT
10
146.7900
20
125.2100
0
VERTEX
8
CUT
10
146.7800
20
125.2100
0
VERTEX
8
CUT
10
146.7600
20
125.2100
0
VERTEX
8
CUT
10
146.7100
20
125.2200
0
VERTEX
8
CUT
10
146.4000
20
125.2700
0
VERTEX
8
CUT
10
146.3900
20
125.2700
0
VERTEX
8
CUT
10
146.3300
20
125.2900
0
VERTEX
8
CUT
10
146.3200
20
125.2900
0
VERTEX
8
CUT
10
146.3100
20
125.3000
0
VERTEX
8
CUT
10
146.3000
20
125.3100
0
VERTEX
8
CUT
10
146.2900
20
125.3100
0
VERTEX
8
CUT
10
146.2500
20
125.3400
0
VERTEX
8
CUT
10
145.8100
20
125.6800
0
VERTEX
8
CUT
10
145.7900
20
125.7000
0
VERTEX
8
CUT
10
145.7000
20
125.7600
0
VERTEX
8
CUT
10
145.6800
20
125.7800
0
VERTEX
8
CUT
10
145.6700
20
125.8000
0
VERTEX
8
CUT
10
145.6600
20
125.8100
0
VERTEX
8
CUT
10
144.7000
20
127.3700
0
VERTEX
8
CUT
10
144.6700
20
127.4200
0
VERTEX
8
CUT
10
144.6600
20
127.4400
0
VERTEX
8
CUT
10
144.6400
20
127.4700
0
VERTEX
8
CUT
10
144.6200
20
127.5000
0
VERTEX
8
CUT
10
144.6100
20
127.5200
0
VERTEX
8
CUT
10
144.6100
20
127.5400
0
VERTEX
8
CUT
10
144.6000
20
127.5500
0
VERTEX
8
CUT
10
144.5900
20
127.5800
0
VERTEX
8
CUT
10
144.0100
20
129.3700
0
VERTEX
8
CUT
10
143.9700
20
129.5000
0
VERTEX
8
CUT
10
143.9800
20
129.5000
0
VERTEX
8
CUT
10
143.9600
20
129.6200
0
VERTEX
8
CUT
10
143.6600
20
132.3400
0
VERTEX
8
CUT
10
143.6500
20
132.4000
0
VERTEX
8
CUT
10
143.6700
20
132.5100
0
VERTEX
8
CUT
10
143.6800
20
132.5500
0
VERTEX
8
CUT
10
143.9700
20
134.4100
0
VERTEX
8
CUT
10
143.9700
20
134.4400
0
VERTEX
8
CUT
10
143.9800
20
134.4900
0
VERTEX
8
CUT
10
144.0100
20
134.6800
0
VERTEX
8
CUT
10
144.0200
20
134.9200
0
VERTEX
8
CUT
10
144.0100
20
135.1600
0
VERTEX
8
CUT
10
143.9800
20
135.4000
0
VERTEX
8
CUT
10
143.9200
20
135.6300
0
VERTEX
8
CUT
10
143.8400
20
135.8600
0
VERTEX
8
CUT
10
143.7400
20
136.0800
0
VERTEX
8
CUT
10
143.6200
20
136.2900
0
VERTEX
8
CUT
10
143.4800
20
136.4800
0
VERTEX
8
CUT
10
143.3200
20
136.6700
0
VERTEX
8
CUT
10
143.1400
20
136.8300
0
VERTEX
8
CUT
10
142.9500
20
136.9800
0
VERTEX
8
CUT
10
142.7500
20
137.1100
0
VERTEX
8
CUT
10
142.5300
20
137.2200
0
VERTEX
8
CUT
10
142.3100
20
137.3000
0
VERTEX
8
CUT
10
142.0800
20
137.3700
0
VERTEX
8
CUT
10
141.8400
20
137.4100
0
VERTEX
8
CUT
10
141.6000
20
137.4300
0
VERTEX
8
CUT
10
141.3600
20
137.4200
0
VERTEX
8
CUT
10
141.1200
20
137.4000
0
VERTEX
8
CUT
10
140.8800
20
137.3500
0
VERTEX
8
CUT
10
140.6500
20
137.2700
0
VERTEX
8
CUT
10
140.4300
20
137.1800
0
VERTEX
8
CUT
10
140.2200
20
137.0600
0
VERTEX
8
CUT
10
139.1700
20
136.4200
0
VERTEX
8
CUT
10
139.0800
20
136.3700
0
VERTEX
8
CUT
10
139.0500
20
136.3500
0
VERTEX
8
CUT
10
137.4500
20
135.5500
0
VERTEX
8
CUT
10
137.3400
20
135.5000
0
VERTEX
8
CUT
10
137.3100
20
135.4900
0
VERTEX
8
CUT
10
137.2600
20
135.4700
0
VERTEX
8
CUT
10
137.2300
20
135.4600
0
VERTEX
8
CUT
10
137.2200
20
135.4600
0
VERTEX
8
CUT
10
137.2000
20
135.4500
0
VERTEX
8
CUT
10
134.0500
20
134.6200
0
VERTEX
8
CUT
10
134.0200
20
134.6100
0
VERTEX
8
CUT
10
134.0100
20
134.6100
0
VERTEX
8
CUT
10
133.9600
20
134.6000
0
VERTEX
8
CUT
10
133.9400
20
134.6000
0
VERTEX
8
CUT
10
133.9300
20
134.6000
0
VERTEX
8
CUT
10
133.9200
20
134.6000
0
VERTEX
8
CUT
10
133.9100
20
134.5900
0
VERTEX
8
CUT
10
133.9000
20
134.5900
0
VERTEX
8
CUT
10
133.8200
20
134.5900
0
SEQEND
0
POLYLINE
8
CUT
66
1
70
1
10
0.0
20
0.0
30
0.0
0
VERTEX
8
CUT
10
206.4400
20
107.8800
0
VERTEX
8
CUT
10
206.3500
20
107.6700
0
VERTEX
8
CUT
10
206.2800
20
107.4500
0
VERTEX
8
CUT
10
206.2200
20
107.2200
0
VERTEX
8
CUT
10
206.1900
20
106.9900
0
VERTEX
8
CUT
10
206.1800
20
106.7600
0
VERTEX
8
CUT
10
206.1900
20
106.5300
0
VERTEX
8
CUT
10
206.2200
20
106.3000
0
VERTEX
8
CUT
10
206.2800
20
106.0700
0
VERTEX
8
CUT
10
206.3500
20
105.8500
0
VERTEX
8
CUT
10
206.6200
20
105.1600
0
VERTEX
8
CUT
10
206.7400
20
104.9100
0
VERTEX
8
CUT
10
206.8800
20
104.6700
0
VERTEX
8
CUT
10
207.8600
20
103.2200
0
VERTEX
8
CUT
10
207.8900
20
103.1700
0
VERTEX
8
CUT
10
207.9000
20
103.1500
0
VERTEX
8
CUT
10
207.9200
20
103.1200
0
VERTEX
8
CUT
10
208.0700
20
102.9100
0
VERTEX
8
CUT
10
211.0900
20
99.1000
0
VERTEX
8
CUT
10
211.1200
20
99.0600
0
VERTEX
8
CUT
10
211.1800
20
98.9900
0
VERTEX
8
CUT
10
211.2800
20
98.8600
0
VERTEX
8
CUT
10
213.6400
20
96.2300
0
VERTEX
8
CUT
10
213.7400
20
96.1300
0
VERTEX
8
CUT
10
219.7700
20
90.1300
0
VERTEX
8
CUT
10
219.9500
20
89.9600
0
VERTEX
8
CUT
10
222.6600
20
87.7500
0
VERTEX
8
CUT
10
222.7500
20
87.6900
0
VERTEX
8
CUT
10
222.8000
20
87.6500
0
VERTEX
8
CUT
10
222.8300
20
87.6200
0
VERTEX
8
CUT
10
222.8500
20
87.6100
0
VERTEX
8
CUT
10
222.9200
20
87.5500
0
VERTEX
8
CUT
10
225.5700
20
85.6900
0
VERTEX
8
CUT
10
225.7300
20
85.5900
0
VERTEX
8
CUT
10
225.8900
20
85.5000
0
VERTEX
8
CUT
10
225.9100
20
85.4900
0
VERTEX
8
CUT
10
225.9700
20
85.4700
0
VERTEX
8
CUT
10
230.5500
20
83.3200
0
VERTEX
8
CUT
10
230.7600
20
83.2300
0
VERTEX
8
CUT
10
230.9900
20
83.1600
0
VERTEX
8
CUT
10
231.6900
20
82.9800
0
VERTEX
8
CUT
10
231.8900
20
82.9400
0
VERTEX
8
CUT
10
232.1000
20
82.9100
0
VERTEX
8
CUT
10
232.2200
20
82.9000
0
VERTEX
8
CUT
10
232.3100
20
82.9000
0
VERTEX
8
CUT
10
233.0500
20
82.8600
0
VERTEX
8
CUT
10
233.1600
20
82.8600
0
VERTEX
8
CUT
10
233.1700
20
82.8600
0
VERTEX
8
CUT
10
233.2300
20
82.8500
0
VERTEX
8
CUT
10
233.2700
20
82.8400
0
VERTEX
8
CUT
10
233.2800
20
82.8300
0
VERTEX
8
CUT
10
233.2900
20
82.8300
0
VERTEX
8
CUT
10
233.4100
20
82.7900
0
VERTEX
8
CUT
10
233.5100
20
82.7500
0
VERTEX
8
CUT
10
233.7500
20
82.6800
0
VERTEX
8
CUT
10
233.9900
20
82.6500
0
VERTEX
8
CUT
10
234.2400
20
82.6300
0
VERTEX
8
CUT
10
235.7500
20
82.6100
0
VERTEX
8
CUT
10
235.7800
20
82.6100
0
VERTEX
8
CUT
10
235.8000
20
82.6100
0
VERTEX
8
CUT
10
236.0600
20
82.6200
0
VERTEX
8
CUT
10
236.3200
20
82.6600
0
VERTEX
8
CUT
10
237.3100
20
82.8700
0
VERTEX
8
CUT
10
237.5200
20
82.9300
0
VERTEX
8
CUT
10
237.7200
20
83.0000
0
VERTEX
8
CUT
10
238.7400
20
83.4100
0
VERTEX
8
CUT
10
238.9500
20
83.5000
0
VERTEX
8
CUT
10
239.1400
20
83.6100
0
VERTEX
8
CUT
10
239.3200
20
83.7400
0
VERTEX
8
CUT
10
240.0700
20
84.3100
0
VERTEX
8
CUT
10
240.3500
20
84.5500
0
VERTEX
8
CUT
10
241.6600
20
85.8900
0
VERTEX
8
CUT
10
241.8200
20
86.0800
0
VERTEX
8
CUT
10
241.9700
20
86.2800
0
VERTEX
8
CUT
10
242.0900
20
86.4900
0
VERTEX
8
CUT
10
242.6900
20
87.6500
0
VERTEX
8
CUT
10
242.7200
20
87.7100
0
VERTEX
8
CUT
10
242.7300
20
87.7300
0
VERTEX
8
CUT
10
242.7700
20
87.8300
0
VERTEX
8
CUT
10
242.8300
20
87.9700
0
VERTEX
8
CUT
10
242.8400
20
88.0100
0
VERTEX
8
CUT
10
242.8500
20
88.0400
0
VERTEX
8
CUT
10
242.9100
20
88.2100
0
VERTEX
8
CUT
10
243.6100
20
90.8500
0
VERTEX
8
CUT
10
243.6500
20
91.0600
0
VERTEX
8
CUT
10
243.6800
20
91.2700
0
VERTEX
8
CUT
10
243.6900
20
91.4900
0
VERTEX
8
CUT
10
243.6900
20
95.8100
0
VERTEX
8
CUT
10
243.6800
20
96.0200
0
VERTEX
8
CUT
10
243.6600
20
96.2200
0
VERTEX
8
CUT
10
243.6100
20
96.4200
0
VERTEX
8
CUT
10
243.2300
20
97.9300
0
VERTEX
8
CUT
10
243.2100
20
98.0100
0
VERTEX
8
CUT
10
243.1900
20
98.1100
0
VERTEX
8
CUT
10
243.1800
20
98.1200
0
VERTEX
8
CUT
10
243.1800
20
98.1400
0
VERTEX
8
CUT
10
243.1800
20
98.1600
0
VERTEX
8
CUT
10
243.1400
20
98.9700
0
VERTEX
8
CUT
10
243.1100
20
99.2400
0
VERTEX
8
CUT
10
243.0500
20
99.5100
0
VERTEX
8
CUT
10
242.9700
20
99.7600
0
VERTEX
8
CUT
10
242.6400
20
100.5900
0
VERTEX
8
CUT
10
242.6300
20
100.6300
0
VERTEX
8
CUT
10
242.6200
20
100.6500
0
VERTEX
8
CUT
10
242.6100
20
100.6800
0
VERTEX
8
CUT
10
242.6000
20
100.7100
0
VERTEX
8
CUT
10
242.6000
20
100.7200
0
VERTEX
8
CUT
10
242.5900
20
100.7700
0
VERTEX
8
CUT
10
242.5600
20
101.1300
0
VERTEX
8
CUT
10
242.5100
20
101.4200
0
VERTEX
8
CUT
10
242.4300
20
101.7100
0
VERTEX
8
CUT
10
240.5600
20
107.0900
0
VERTEX
8
CUT
10
240.4200
20
107.4300
0
VERTEX
8
CUT
10
239.7600
20
108.6800
0
VERTEX
8
CUT
10
239.7400
20
108.7300
0
VERTEX
8
CUT
10
239.6900
20
108.8600
0
VERTEX
8
CUT
10
238.3300
20
112.4000
0
VERTEX
8
CUT
10
238.3100
20
112.4500
0
VERTEX
8
CUT
10
238.2300
20
112.6400
0
VERTEX
8
CUT
10
238.2100
20
112.7000
0
VERTEX
8
CUT
10
236.7900
20
116.9600
0
VERTEX
8
CUT
10
236.7500
20
117.1000
0
VERTEX
8
CUT
10
236.1800
20
119.3500
0
VERTEX
8
CUT
10
236.1700
20
119.3700
0
VERTEX
8
CUT
10
236.1700
20
119.4000
0
VERTEX
8
CUT
10
236.1600
20
119.4100
0
VERTEX
8
CUT
10
236.1600
20
119.4200
0
VERTEX
8
CUT
10
236.1600
20
119.4300
0
VERTEX
8
CUT
10
236.1600
20
119.4600
0
VERTEX
8
CUT
10
236.1600
20
119.4900
0
VERTEX
8
CUT
10
236.1600
20
119.5600
0
VERTEX
8
CUT
10
236.1500
20
119.6200
0
VERTEX
8
CUT
10
236.1500
20
119.6500
0
VERTEX
8
CUT
10
236.1200
20
120.0500
0
VERTEX
8
CUT
10
236.0900
20
120.2900
0
VERTEX
8
CUT
10
236.0400
20
120.5300
0
VERTEX
8
CUT
10
235.9600
20
120.7600
0
VERTEX
8
CUT
10
235.9300
20
120.8300
0
VERTEX
8
CUT
10
235.8900
20
120.9300
0
VERTEX
8
CUT
10
235.8700
20
120.9800
0
VERTEX
8
CUT
10
235.8600
20
121.0000
0
VERTEX
8
CUT
10
235.8500
20
121.0200
0
VERTEX
8
CUT
10
235.8500
20
121.0300
0
VERTEX
8
CUT
10
235.8500
20
121.0400
0
VERTEX
8
CUT
10
235.8500
20
121.0500
0
VERTEX
8
CUT
10
235.8500
20
121.1100
0
VERTEX
8
CUT
10
235.8500
20
121.1300
0
VERTEX
8
CUT
10
235.8200
20
122.0400
0
VERTEX
8
CUT
10
235.7900
20
122.3200
0
VERTEX
8
CUT
10
235.7400
20
122.6000
0
VERTEX
8
CUT
10
235.6500
20
122.8700
0
VERTEX
8
CUT
10
235.6000
20
122.9800
0
VERTEX
8
CUT
10
235.6000
20
122.9900
0
VERTEX
8
CUT
10
235.5900
20
123.0200
0
VERTEX
8
CUT
10
235.5800
20
123.0700
0
VERTEX
8
CUT
10
235.5800
20
123.0800
0
VERTEX
8
CUT
10
235.5800
20
123.1100
0
VERTEX
8
CUT
10
235.5800
20
123.1600
0
VERTEX
8
CUT
10
235.5400
20
124.3700
0
VERTEX
8
CUT
10
235.5400
20
124.4000
0
VERTEX
8
CUT
10
235.5700
20
128.4400
0
VERTEX
8
CUT
10
235.5700
20
128.5200
0
VERTEX
8
CUT
10
235.5700
20
128.5300
0
VERTEX
8
CUT
10
235.5900
20
128.5900
0
VERTEX
8
CUT
10
235.7000
20
128.9400
0
VERTEX
8
CUT
10
235.7600
20
129.1700
0
VERTEX
8
CUT
10
235.7900
20
129.4000
0
VERTEX
8
CUT
10
235.8100
20
129.6400
0
VERTEX
8
CUT
10
235.8500
20
131.9600
0
VERTEX
8
CUT
10
235.8500
20
132.0200
0
VERTEX
8
CUT
10
235.8500
20
132.0300
0
VERTEX
8
CUT
10
235.8600
20
132.0600
0
VERTEX
8
CUT
10
235.8700
20
132.1000
0
VERTEX
8
CUT
10
235.9100
20
132.2200
0
VERTEX
8
CUT
10
236.0200
20
132.6400
0
VERTEX
8
CUT
10
236.0600
20
132.8500
0
VERTEX
8
CUT
10
236.0900
20
133.0600
0
VERTEX
8
CUT
10
236.1000
20
133.2800
0
VERTEX
8
CUT
10
236.0900
20
136.5200
0
VERTEX
8
CUT
10
236.0800
20
136.7500
0
VERTEX
8
CUT
10
236.0400
20
136.9900
0
VERTEX
8
CUT
10
235.5600
20
139.4700
0
VERTEX
8
CUT
10
235.5100
20
139.6900
0
VERTEX
8
CUT
10
235.4400
20
139.9100
0
VERTEX
8
CUT
10
235.3400
20
140.1200
0
VERTEX
8
CUT
10
234.2300
20
142.3200
0
VERTEX
8
CUT
10
234.1000
20
142.5400
0
VERTEX
8
CUT
10
233.9500
20
142.7500
0
VERTEX
8
CUT
10
233.7800
20
142.9400
0
VERTEX
8
CUT
10
233.1600
20
143.5700
0
VERTEX
8
CUT
10
232.9600
20
143.7600
0
VERTEX
8
CUT
10
232.7400
20
143.9200
0
VERTEX
8
CUT
10
232.5100
20
144.0500
0
VERTEX
8
CUT
10
231.6400
20
144.4900
0
VERTEX
8
CUT
10
231.4300
20
144.5800
0
VERTEX
8
CUT
10
231.2200
20
144.6600
0
VERTEX
8
CUT
10
231.0000
20
144.7100
0
VERTEX
8
CUT
10
230.7700
20
144.7500
0
VERTEX
8
CUT
10
230.5500
20
144.7600
0
VERTEX
8
CUT
10
229.8600
20
144.7700
0
VERTEX
8
CUT
10
229.5900
20
144.7600
0
VERTEX
8
CUT
10
229.3300
20
144.7200
0
VERTEX
8
CUT
10
229.0800
20
144.6600
0
VERTEX
8
CUT
10
228.8300
20
144.5700
0
VERTEX
8
CUT
10
227.6900
20
144.0800
0
VERTEX
8
CUT
10
227.4800
20
143.9700
0
VERTEX
8
CUT
10
227.2800
20
143.8500
0
VERTEX
8
CUT
10
227.0900
20
143.7100
0
VERTEX
8
CUT
10
226.9100
20
143.5500
0
VERTEX
8
CUT
10
225.4300
20
142.0700
0
VERTEX
8
CUT
10
225.2700
20
141.8900
0
VERTEX
8
CUT
10
225.1200
20
141.6900
0
VERTEX
8
CUT
10
224.9900
20
141.4800
0
VERTEX
8
CUT
10
222.6200
20
137.0300
0
VERTEX
8
CUT
10
222.5400
20
136.8500
0
VERTEX
8
CUT
10
222.4700
20
136.6700
0
VERTEX
8
CUT
10
219.5200
20
128.1900
0
VERTEX
8
CUT
10
219.5200
20
128.1800
0
VERTEX
8
CUT
10
219.5100
20
128.1500
0
VERTEX
8
CUT
10
219.5000
20
128.1300
0
VERTEX
8
CUT
10
219.4600
20
128.0500
0
VERTEX
8
CUT
10
218.8200
20
126.8100
0
VERTEX
8
CUT
10
218.6900
20
126.4900
0
VERTEX
8
CUT
10
218.0500
20
124.6400
0
VERTEX
8
CUT
10
218.0400
20
124.6100
0
VERTEX
8
CUT
10
218.0300
20
124.5900
0
VERTEX
8
CUT
10
218.0200
20
124.5600
0
VERTEX
8
CUT
10
218.0100
20
124.5400
0
VERTEX
8
CUT
10
216.5800
20
121.7000
0
VERTEX
8
CUT
10
216.5700
20
121.6700
0
VERTEX
8
CUT
10
216.5300
20
121.6100
0
VERTEX
8
CUT
10
212.5500
20
115.3500
0
VERTEX
8
CUT
10
212.4800
20
115.2700
0
VERTEX
8
CUT
10
212.3600
20
115.0900
0
VERTEX
8
CUT
10
210.3300
20
112.5000
0
VERTEX
8
CUT
10
210.2800
20
112.4400
0
VERTEX
8
CUT
10
210.2700
20
112.4300
0
VERTEX
8
CUT
10
210.2600
20
112.4200
0
VERTEX
8
CUT
10
210.1800
20
112.3300
0
VERTEX
8
CUT
10
210.1700
20
112.3200
0
VERTEX
8
CUT
10
210.1300
20
112.2700
0
VERTEX
8
CUT
10
206.9800
20
108.7500
0
VERTEX
8
CUT
10
206.8400
20
108.5700
0
VERTEX
8
CUT
10
206.7100
20
108.3900
0
VERTEX
8
CUT
10
206.6000
20
108.2000
0
SEQEND
0
POLYLINE
8
CUT
66
1
70
1
10
0.0
20
0.0
30
0.0
0
VERTEX
8
CUT
10
99.8500
20
122.7800
0
VERTEX
8
CUT
10
99.8700
20
122.7100
0
VERTEX
8
CUT
10
99.8700
20
122.7000
0
VERTEX
8
CUT
10
99.8700
20
122.6400
0
VERTEX
8
CUT
10
99.8700
20
122.6300
0
VERTEX
8
CUT
10
99.9400
20
119.6100
0
VERTEX
8
CUT
10
99.9600
20
119.3500
0
VERTEX
8
CUT
10
100.0100
20
119.0800
0
VERTEX
8
CUT
10
100.0900
20
118.8200
0
VERTEX
8
CUT
10
101.0600
20
116.1200
0
VERTEX
8
CUT
10
101.1800
20
115.8500
0
VERTEX
8
CUT
10
102.7600
20
112.7000
0
VERTEX
8
CUT
10
102.7700
20
112.6800
0
VERTEX
8
CUT
10
102.7800
20
112.6600
0
VERTEX
8
CUT
10
102.7800
20
112.6500
0
VERTEX
8
CUT
10
102.7800
20
112.6400
0
VERTEX
8
CUT
10
102.7800
20
112.6300
0
VERTEX
8
CUT
10
102.7700
20
112.5900
0
VERTEX
8
CUT
10
102.6000
20
111.8200
0
VERTEX
8
CUT
10
102.5600
20
111.5600
0
VERTEX
8
CUT
10
102.5500
20
111.3000
0
VERTEX
8
CUT
10
102.5500
20
111.2800
0
VERTEX
8
CUT
10
102.5500
20
111.2300
0
VERTEX
8
CUT
10
102.5600
20
110.7500
0
VERTEX
8
CUT
10
102.5800
20
110.4800
0
VERTEX
8
CUT
10
102.6300
20
110.2100
0
VERTEX
8
CUT
10
102.7100
20
109.9500
0
VERTEX
8
CUT
10
102.8200
20
109.7000
0
VERTEX
8
CUT
10
103.6400
20
108.0400
0
VERTEX
8
CUT
10
103.6700
20
107.9500
0
VERTEX
8
CUT
10
103.7100
20
107.8900
0
VERTEX
8
CUT
10
103.8000
20
107.7100
0
VERTEX
8
CUT
10
104.7600
20
106.0800
0
VERTEX
8
CUT
10
104.7700
20
106.0600
0
VERTEX
8
CUT
10
104.8500
20
105.9300
0
VERTEX
8
CUT
10
104.9000
20
105.8300
0
VERTEX
8
CUT
10
105.0600
20
105.6200
0
VERTEX
8
CUT
10
105.2300
20
105.4200
0
VERTEX
8
CUT
10
106.2300
20
104.4100
0
VERTEX
8
CUT
10
106.2400
20
104.4000
0
VERTEX
8
CUT
10
106.2500
20
104.3900
0
VERTEX
8
CUT
10
106.4100
20
104.2500
0
VERTEX
8
CUT
10
106.5800
20
104.1200
0
VERTEX
8
CUT
10
106.7600
20
104.0000
0
VERTEX
8
CUT
10
106.9600
20
103.8900
0
VERTEX
8
CUT
10
107.0300
20
103.8300
0
VERTEX
8
CUT
10
107.2500
20
103.7100
0
VERTEX
8
CUT
10
107.4800
20
103.6100
0
VERTEX
8
CUT
10
108.3600
20
103.2700
0
VERTEX
8
CUT
10
108.6100
20
103.1900
0
VERTEX
8
CUT
10
108.8600
20
103.1300
0
VERTEX
8
CUT
10
109.1200
20
103.1000
0
VERTEX
8
CUT
10
109.3000
20
103.0900
0
VERTEX
8
CUT
10
109.4900
20
103.0900
0
VERTEX
8
CUT
10
110.5700
20
103.1100
0
VERTEX
8
CUT
10
110.8000
20
103.1300
0
VERTEX
8
CUT
10
111.0300
20
103.1600
0
VERTEX
8
CUT
10
111.2600
20
103.2200
0
VERTEX
8
CUT
10
111.4800
20
103.3000
0
VERTEX
8
CUT
10
111.7000
20
103.4000
0
VERTEX
8
CUT
10
112.0000
20
103.5600
0
VERTEX
8
CUT
10
112.2100
20
103.6900
0
VERTEX
8
CUT
10
112.4100
20
103.8400
0
VERTEX
8
CUT
10
112.6000
20
104.0100
0
VERTEX
8
CUT
10
113.5200
20
104.9400
0
VERTEX
8
CUT
10
113.6900
20
105.1400
0
VERTEX
8
CUT
10
113.8500
20
105.3500
0
VERTEX
8
CUT
10
113.9800
20
105.5800
0
VERTEX
8
CUT
10
114.5500
20
106.7200
0
VERTEX
8
CUT
10
114.6400
20
106.9300
0
VERTEX
8
CUT
10
114.7100
20
107.1600
0
VERTEX
8
CUT
10
115.1400
20
108.6700
0
VERTEX
8
CUT
10
115.2000
20
108.8900
0
VERTEX
8
CUT
10
115.2300
20
109.1200
0
VERTEX
8
CUT
10
115.2400
20
109.3500
0
VERTEX
8
CUT
10
115.2400
20
113.2000
0
VERTEX
8
CUT
10
115.2300
20
113.4200
0
VERTEX
8
CUT
10
115.2000
20
113.6300
0
VERTEX
8
CUT
10
115.1500
20
113.8500
0
VERTEX
8
CUT
10
115.0900
20
114.0500
0
VERTEX
8
CUT
10
115.0500
20
114.1600
0
VERTEX
8
CUT
10
115.0400
20
114.1700
0
VERTEX
8
CUT
10
115.0300
20
114.2100
0
VERTEX
8
CUT
10
115.0300
20
114.2200
0
VERTEX
8
CUT
10
115.0200
20
114.2400
0
VERTEX
8
CUT
10
115.0200
20
114.2600
0
VERTEX
8
CUT
10
115.0100
20
114.3000
0
VERTEX
8
CUT
10
115.0000
20
114.3700
0
VERTEX
8
CUT
10
114.9800
20
114.7900
0
VERTEX
8
CUT
10
114.9500
20
115.0500
0
VERTEX
8
CUT
10
114.8900
20
115.3000
0
VERTEX
8
CUT
10
114.8100
20
115.5500
0
VERTEX
8
CUT
10
114.4600
20
116.4600
0
VERTEX
8
CUT
10
114.4600
20
116.4700
0
VERTEX
8
CUT
10
114.4500
20
116.4800
0
VERTEX
8
CUT
10
114.4400
20
116.5400
0
VERTEX
8
CUT
10
114.4400
20
116.5500
0
VERTEX
8
CUT
10
114.4400
20
116.5700
0
VERTEX
8
CUT
10
114.4300
20
116.6900
0
VERTEX
8
CUT
10
114.4300
20
116.7600
0
VERTEX
8
CUT
10
114.4100
20
116.9900
0
VERTEX
8
CUT
10
114.3800
20
117.2400
0
VERTEX
8
CUT
10
114.3100
20
117.4900
0
VERTEX
8
CUT
10
114.2300
20
117.7300
0
VERTEX
8
CUT
10
114.1200
20
117.9600
0
VERTEX
8
CUT
10
113.9800
20
118.1800
0
VERTEX
8
CUT
10
113.8300
20
118.3800
0
VERTEX
8
CUT
10
112.3000
20
120.1900
0
VERTEX
8
CUT
10
112.1600
20
120.3500
0
VERTEX
8
CUT
10
112.1300
20
120.3800
0
VERTEX
8
CUT
10
111.8900
20
120.5900
0
VERTEX
8
CUT
10
109.5800
20
122.3800
0
VERTEX
8
CUT
10
109.2800
20
122.5800
0
VERTEX
8
CUT
10
106.8900
20
123.9300
0
VERTEX
8
CUT
10
106.7200
20
124.0200
0
VERTEX
8
CUT
10
103.3500
20
125.5900
0
VERTEX
8
CUT
10
103.1200
20
125.6800
0
VERTEX
8
CUT
10
102.8800
20
125.7500
0
VERTEX
8
CUT
10
102.6300
20
125.8000
0
VERTEX
8
CUT
10
102.3900
20
125.8200
0
VERTEX
8
CUT
10
102.1400
20
125.8200
0
VERTEX
8
CUT
10
101.8900
20
125.7900
0
VERTEX
8
CUT
10
101.6500
20
125.7400
0
VERTEX
8
CUT
10
101.4100
20
125.6600
0
VERTEX
8
CUT
10
101.1800
20
125.5600
0
VERTEX
8
CUT
10
100.9700
20
125.4400
0
VERTEX
8
CUT
10
100.7600
20
125.3000
0
VERTEX
8
CUT
10
100.5700
20
125.1400
0
VERTEX
8
CUT
10
100.4000
20
124.9600
0
VERTEX
8
CUT
10
100.2500
20
124.7600
0
VERTEX
8
CUT
10
100.1200
20
124.5500
0
VERTEX
8
CUT
10
100.0000
20
124.3300
0
VERTEX
8
CUT
10
99.9200
20
124.1000
0
VERTEX
8
CUT
10
99.8500
20
123.8600
0
VERTEX
8
CUT
10
99.8100
20
123.6200
0
VERTEX
8
CUT
10
99.7900
20
123.3700
0
VERTEX
8
CUT
10
99.8000
20
123.1200
0
VERTEX
8
CUT
10
99.8300
20
122.8800
0
SEQEND
0
POLYLINE
8
CUT
66
1
70
1
10
0.0
20
0.0
30
0.0
0
VERTEX
8
CUT
10
87.4200
20
142.1100
0
VERTEX
8
CUT
10
87.3100
20
141.9100
0
VERTEX
8
CUT
10
87.2200
20
141.7000
0
VERTEX
8
CUT
10
87.1500
20
141.4800
0
VERTEX
8
CUT
10
87.1000
20
141.2600
0
VERTEX
8
CUT
10
87.0700
20
141.0400
0
VERTEX
8
CUT
10
87.0600
20
140.8100
0
VERTEX
8
CUT
10
87.0600
20
138.3900
0
VERTEX
8
CUT
10
87.0700
20
138.1400
0
VERTEX
8
CUT
10
87.1100
20
137.8900
0
VERTEX
8
CUT
10
87.1700
20
137.6400
0
VERTEX
8
CUT
10
87.2200
20
137.4800
0
VERTEX
8
CUT
10
87.3100
20
137.2600
0
VERTEX
8
CUT
10
87.4100
20
137.0500
0
VERTEX
8
CUT
10
87.5300
20
136.8400
0
VERTEX
8
CUT
10
87.6700
20
136.6500
0
VERTEX
8
CUT
10
87.9300
20
136.3300
0
VERTEX
8
CUT
10
88.0900
20
136.1600
0
VERTEX
8
CUT
10
88.2600
20
136.0000
0
VERTEX
8
CUT
10
88.4500
20
135.8600
0
VERTEX
8
CUT
10
88.6400
20
135.7300
0
VERTEX
8
CUT
10
88.8000
20
135.6400
0
VERTEX
8
CUT
10
89.0300
20
135.5300
0
VERTEX
8
CUT
10
89.2700
20
135.4400
0
VERTEX
8
CUT
10
89.5100
20
135.3700
0
VERTEX
8
CUT
10
89.7600
20
135.3300
0
VERTEX
8
CUT
10
90.0200
20
135.3200
0
VERTEX
8
CUT
10
93.9500
20
135.3000
0
VERTEX
8
CUT
10
94.2000
20
135.3100
0
VERTEX
8
CUT
10
94.4400
20
135.3500
0
VERTEX
8
CUT
10
94.6800
20
135.4100
0
VERTEX
8
CUT
10
95.9700
20
135.7900
0
VERTEX
8
CUT
10
95.9900
20
135.8000
0
VERTEX
8
CUT
10
96.0200
20
135.8100
0
VERTEX
8
CUT
10
96.0400
20
135.8100
0
VERTEX
8
CUT
10
96.1000
20
135.8200
0
VERTEX
8
CUT
10
96.1200
20
135.8200
0
VERTEX
8
CUT
10
96.1400
20
135.8200
0
VERTEX
8
CUT
10
96.7800
20
135.8700
0
VERTEX
8
CUT
10
96.9900
20
135.8900
0
VERTEX
8
CUT
10
97.1900
20
135.9300
0
VERTEX
8
CUT
10
97.3900
20
135.9900
0
VERTEX
8
CUT
10
99.6400
20
136.7400
0
VERTEX
8
CUT
10
99.9800
20
136.8800
0
VERTEX
8
CUT
10
101.7800
20
137.7900
0
VERTEX
8
CUT
10
101.9200
20
137.8600
0
VERTEX
8
CUT
10
102.0000
20
137.9000
0
VERTEX
8
CUT
10
102.2200
20
138.0300
0
VERTEX
8
CUT
10
103.6300
20
139.0000
0
VERTEX
8
CUT
10
103.8100
20
139.1400
0
VERTEX
8
CUT
10
103.9700
20
139.2900
0
VERTEX
8
CUT
10
106.1900
20
141.5000
0
VERTEX
8
CUT
10
106.3600
20
141.6800
0
VERTEX
8
CUT
10
106.5100
20
141.8800
0
VERTEX
8
CUT
10
106.6400
20
142.0900
0
VERTEX
8
CUT
10
106.7400
20
142.3200
0
VERTEX
8
CUT
10
106.8200
20
142.5500
0
VERTEX
8
CUT
10
106.8800
20
142.7900
0
VERTEX
8
CUT
10
106.9200
20
143.0400
0
VERTEX
8
CUT
10
106.9300
20
143.2800
0
VERTEX
8
CUT
10
106.9200
20
143.5300
0
VERTEX
8
CUT
10
106.8800
20
143.7800
0
VERTEX
8
CUT
10
106.8200
20
144.0200
0
VERTEX
8
CUT
10
106.7300
20
144.2500
0
VERTEX
8
CUT
10
106.6200
20
144.4700
0
VERTEX
8
CUT
10
106.4900
20
144.6800
0
VERTEX
8
CUT
10
106.3400
20
144.8800
0
VERTEX
8
CUT
10
106.1700
20
145.0600
0
VERTEX
8
CUT
10
105.9900
20
145.2300
0
VERTEX
8
CUT
10
105.7900
20
145.3700
0
VERTEX
8
CUT
10
105.5700
20
145.4900
0
VERTEX
8
CUT
10
105.1800
20
145.6900
0
VERTEX
8
CUT
10
104.9500
20
145.8000
0
VERTEX
8
CUT
10
104.7100
20
145.8800
0
VERTEX
8
CUT
10
104.4600
20
145.9300
0
VERTEX
8
CUT
10
104.2100
20
145.9600
0
VERTEX
8
CUT
10
103.7900
20
145.9900
0
VERTEX
8
CUT
10
103.7600
20
145.9900
0
VERTEX
8
CUT
10
103.7300
20
146.0000
0
VERTEX
8
CUT
10
103.7200
20
146.0000
0
VERTEX
8
CUT
10
103.7000
20
146.0100
0
VERTEX
8
CUT
10
103.6500
20
146.0300
0
VERTEX
8
CUT
10
103.5800
20
146.0500
0
VERTEX
8
CUT
10
103.4500
20
146.1000
0
VERTEX
8
CUT
10
103.2000
20
146.1700
0
VERTEX
8
CUT
10
102.9400
20
146.2300
0
VERTEX
8
CUT
10
102.6700
20
146.2500
0
VERTEX
8
CUT
10
100.8300
20
146.3100
0
VERTEX
8
CUT
10
100.8000
20
146.3100
0
VERTEX
8
CUT
10
100.7500
20
146.3100
0
VERTEX
8
CUT
10
100.7300
20
146.3100
0
VERTEX
8
CUT
10
100.7200
20
146.3100
0
VERTEX
8
CUT
10
100.6700
20
146.3300
0
VERTEX
8
CUT
10
97.8800
20
147.4500
0
VERTEX
8
CUT
10
97.7700
20
147.4900
0
VERTEX
8
CUT
10
97.7400
20
147.5000
0
VERTEX
8
CUT
10
97.7100
20
147.5100
0
VERTEX
8
CUT
10
97.7000
20
147.5200
0
VERTEX
8
CUT
10
97.6800
20
147.5300
0
VERTEX
8
CUT
10
96.6700
20
148.2400
0
VERTEX
8
CUT
10
96.6500
20
148.2500
0
VERTEX
8
CUT
10
96.6100
20
148.2900
0
VERTEX
8
CUT
10
96.5900
20
148.3000
0
VERTEX
8
CUT
10
95.3200
20
149.5300
0
VERTEX
8
CUT
10
95.2800
20
149.5700
0
VERTEX
8
CUT
10
95.2600
20
149.5900
0
VERTEX
8
CUT
10
95.2300
20
149.6200
0
VERTEX
8
CUT
10
95.2300
20
149.6300
0
VERTEX
8
CUT
10
95.1700
20
149.6900
0
VERTEX
8
CUT
10
95.1300
20
149.7400
0
VERTEX
8
CUT
10
95.0800
20
149.8000
0
VERTEX
8
CUT
10
95.0600
20
149.8200
0
VERTEX
8
CUT
10
93.9000
20
151.2600
0
VERTEX
8
CUT
10
93.7400
20
151.4500
0
VERTEX
8
CUT
10
93.5600
20
151.6100
0
VERTEX
8
CUT
10
93.3600
20
151.7600
0
VERTEX
8
CUT
10
93.1500
20
151.8900
0
VERTEX
8
CUT
10
92.9200
20
152.0000
0
VERTEX
8
CUT
10
92.6900
20
152.0800
0
VERTEX
8
CUT
10
92.4500
20
152.1400
0
VERTEX
8
CUT
10
92.2100
20
152.1800
0
VERTEX
8
CUT
10
91.9600
20
152.1900
0
VERTEX
8
CUT
10
91.7200
20
152.1800
0
VERTEX
8
CUT
10
91.4700
20
152.1400
0
VERTEX
8
CUT
10
91.2300
20
152.0800
0
VERTEX
8
CUT
10
91.0000
20
152.0000
0
VERTEX
8
CUT
10
90.7800
20
151.8900
0
VERTEX
8
CUT
10
90.5700
20
151.7700
0
VERTEX
8
CUT
10
90.3700
20
151.6200
0
VERTEX
8
CUT
10
90.1900
20
151.4500
0
VERTEX
8
CUT
10
90.0200
20
151.2700
0
VERTEX
8
CUT
10
89.8800
20
151.0700
0
VERTEX
8
CUT
10
89.7500
20
150.8600
0
VERTEX
8
CUT
10
89.6500
20
150.6400
0
VERTEX
8
CUT
10
89.4700
20
150.2000
0
VERTEX
8
CUT
10
89.4100
20
150.0400
0
VERTEX
8
CUT
10
89.4000
20
150.0100
0
VERTEX
8
CUT
10
89.3400
20
149.8100
0
VERTEX
8
CUT
10
88.8800
20
147.9000
0
VERTEX
8
CUT
10
88.8300
20
147.6400
0
VERTEX
8
CUT
10
88.8100
20
147.3800
0
VERTEX
8
CUT
10
88.7200
20
144.3400
0
VERTEX
8
CUT
10
88.7200
20
144.3200
0
VERTEX
8
CUT
10
88.7200
20
144.2700
0
VERTEX
8
CUT
10
88.7200
20
144.2600
0
VERTEX
8
CUT
10
88.7100
20
144.2300
0
VERTEX
8
CUT
10
88.7100
20
144.2200
0
VERTEX
8
CUT
10
88.7000
20
144.2100
0
VERTEX
8
CUT
10
88.7000
20
144.2000
0
VERTEX
8
CUT
10
88.6700
20
144.1600
0
VERTEX
8
CUT
10
88.6400
20
144.1200
0
SEQEND
0
POLYLINE
8
CUT
66
1
70
1
10
0.0
20
0.0
30
0.0
0
VERTEX
8
CUT
10
81.3700
20
83.1600
0
VERTEX
8
CUT
10
81.4100
20
83.0800
0
VERTEX
8
CUT
10
81.4600
20
83.0100
0
VERTEX
8
CUT
10
81.5500
20
82.8600
0
VERTEX
8
CUT
10
82.6700
20
81.2500
0
VERTEX
8
CUT
10
82.8000
20
81.0800
0
VERTEX
8
CUT
10
82.9500
20
80.9100
0
VERTEX
8
CUT
10
83.1100
20
80.7600
0
VERTEX
8
CUT
10
83.2900
20
80.6300
0
VERTEX
8
CUT
10
83.7400
20
80.3100
0
VERTEX
8
CUT
10
83.8000
20
80.2700
0
VERTEX
8
CUT
10
83.8100
20
80.2700
0
VERTEX
8
CUT
10
83.8400
20
80.2300
0
VERTEX
8
CUT
10
83.8800
20
80.1800
0
VERTEX
8
CUT
10
84.5400
20
79.3100
0
VERTEX
8
CUT
10
84.7300
20
79.1000
0
VERTEX
8
CUT
10
84.9300
20
78.9100
0
VERTEX
8
CUT
10
87.9000
20
76.4400
0
VERTEX
8
CUT
10
87.9300
20
76.4200
0
VERTEX
8
CUT
10
87.9500
20
76.4000
0
VERTEX
8
CUT
10
88.0000
20
76.3500
0
VERTEX
8
CUT
10
89.1800
20
75.1200
0
VERTEX
8
CUT
10
89.2200
20
75.0700
0
VERTEX
8
CUT
10
89.2500
20
75.0500
0
VERTEX
8
CUT
10
89.2600
20
75.0300
0
VERTEX
8
CUT
10
89.2700
20
75.0300
0
VERTEX
8
CUT
10
89.2800
20
75.0100
0
VERTEX
8
CUT
10
89.2800
20
75.0000
0
VERTEX
8
CUT
10
89.2900
20
74.9800
0
VERTEX
8
CUT
10
89.3000
20
74.9500
0
VERTEX
8
CUT
10
89.3000
20
74.9400
0
VERTEX
8
CUT
10
89.6900
20
73.4200
0
VERTEX
8
CUT
10
89.7600
20
73.1800
0
VERTEX
8
CUT
10
89.8600
20
72.9600
0
VERTEX
8
CUT
10
89.9700
20
72.7400
0
VERTEX
8
CUT
10
90.1100
20
72.5400
0
VERTEX
8
CUT
10
90.2700
20
72.3500
0
VERTEX
8
CUT
10
90.4400
20
72.1800
0
VERTEX
8
CUT
10
90.6400
20
72.0200
0
VERTEX
8
CUT
10
90.8400
20
71.8900
0
VERTEX
8
CUT
10
91.0600
20
71.7700
0
VERTEX
8
CUT
10
91.2900
20
71.6800
0
VERTEX
8
CUT
10
91.5200
20
71.6100
0
VERTEX
8
CUT
10
91.7700
20
71.5600
0
VERTEX
8
CUT
10
92.0100
20
71.5400
0
VERTEX
8
CUT
10
92.2600
20
71.5400
0
VERTEX
8
CUT
10
92.5000
20
71.5700
0
VERTEX
8
CUT
10
92.7400
20
71.6200
0
VERTEX
8
CUT
10
92.9800
20
71.7000
0
VERTEX
8
CUT
10
93.2000
20
71.7900
0
VERTEX
8
CUT
10
93.4200
20
71.9100
0
VERTEX
8
CUT
10
93.6200
20
72.0500
0
VERTEX
8
CUT
10
93.8100
20
72.2100
0
VERTEX
8
CUT
10
93.8500
20
72.2400
0
VERTEX
8
CUT
10
93.8600
20
72.2500
0
VERTEX
8
CUT
10
93.8800
20
72.2500
0
VERTEX
8
CUT
10
93.9300
20
72.2700
0
VERTEX
8
CUT
10
94.3500
20
72.3400
0
VERTEX
8
CUT
10
94.4000
20
72.3500
0
VERTEX
8
CUT
10
94.4100
20
72.3500
0
VERTEX
8
CUT
10
94.4200
20
72.3500
0
VERTEX
8
CUT
10
94.4300
20
72.3500
0
VERTEX
8
CUT
10
94.4600
20
72.3400
0
VERTEX
8
CUT
10
94.4700
20
72.3300
0
VERTEX
8
CUT
10
94.5200
20
72.3000
0
VERTEX
8
CUT
10
97.5800
20
70.2700
0
VERTEX
8
CUT
10
97.8200
20
70.1300
0
VERTEX
8
CUT
10
98.0800
20
70.0200
0
VERTEX
8
CUT
10
98.3500
20
69.9400
0
VERTEX
8
CUT
10
99.8900
20
69.5500
0
VERTEX
8
CUT
10
100.1000
20
69.5000
0
VERTEX
8
CUT
10
100.3100
20
69.4800
0
VERTEX
8
CUT
10
100.5200
20
69.4700
0
VERTEX
8
CUT
10
101.6000
20
69.4800
0
VERTEX
8
CUT
10
101.8500
20
69.4900
0
VERTEX
8
CUT
10
102.0900
20
69.5300
0
VERTEX
8
CUT
10
102.3200
20
69.5900
0
VERTEX
8
CUT
10
102.5500
20
69.6800
0
VERTEX
8
CUT
10
102.7700
20
69.7800
0
VERTEX
8
CUT
10
102.9800
20
69.9100
0
VERTEX
8
CUT
10
103.1700
20
70.0500
0
VERTEX
8
CUT
10
103.3500
20
70.2200
0
VERTEX
8
CUT
10
103.5200
20
70.4000
0
VERTEX
8
CUT
10
103.6600
20
70.6000
0
VERTEX
8
CUT
10
103.7900
20
70.8100
0
VERTEX
8
CUT
10
103.8900
20
71.0300
0
VERTEX
8
CUT
10
103.9700
20
71.2600
0
VERTEX
8
CUT
10
104.0300
20
71.4900
0
VERTEX
8
CUT
10
104.0700
20
71.7300
0
VERTEX
8
CUT
10
104.0800
20
71.9800
0
VERTEX
8
CUT
10
104.0700
20
72.2200
0
VERTEX
8
CUT
10
104.0300
20
72.4600
0
VERTEX
8
CUT
10
103.9700
20
72.7000
0
VERTEX
8
CUT
10
103.8900
20
72.9300
0
VERTEX
8
CUT
10
103.7900
20
73.1500
0
VERTEX
8
CUT
10
103.6700
20
73.3600
0
VERTEX
8
CUT
10
103.5200
20
73.5500
0
VERTEX
8
CUT
10
103.3600
20
73.7400
0
VERTEX
8
CUT
10
103.1800
20
73.9000
0
VERTEX
8
CUT
10
102.3400
20
74.6000
0
VERTEX
8
CUT
10
102.1400
20
74.7500
0
VERTEX
8
CUT
10
101.9200
20
74.8800
0
VERTEX
8
CUT
10
101.6900
20
74.9900
0
VERTEX
8
CUT
10
98.4700
20
76.3200
0
VERTEX
8
CUT
10
98.4300
20
76.3400
0
VERTEX
8
CUT
10
98.3800
20
76.3600
0
VERTEX
8
CUT
10
98.2600
20
76.4200
0
VERTEX
8
CUT
10
98.1900
20
76.4600
0
VERTEX
8
CUT
10
95.8600
20
77.9500
0
VERTEX
8
CUT
10
95.8100
20
77.9800
0
VERTEX
8
CUT
10
95.7700
20
78.0100
0
VERTEX
8
CUT
10
95.7600
20
78.0200
0
VERTEX
8
CUT
10
95.7000
20
78.0600
0
VERTEX
8
CUT
10
94.4400
20
79.0800
0
VERTEX
8
CUT
10
94.3700
20
79.1500
0
VERTEX
8
CUT
10
94.3300
20
79.1800
0
VERTEX
8
CUT
10
94.2900
20
79.2100
0
VERTEX
8
CUT
10
86.9100
20
86.2100
0
VERTEX
8
CUT
10
86.7400
20
86.3600
0
VERTEX
8
CUT
10
84.1100
20
88.4400
0
VERTEX
8
CUT
10
83.8400
20
88.6300
0
VERTEX
8
CUT
10
83.4200
20
88.8800
0
VERTEX
8
CUT
10
83.2000
20
88.9900
0
VERTEX
8
CUT
10
82.9800
20
89.0900
0
VERTEX
8
CUT
10
82.7400
20
89.1600
0
VERTEX
8
CUT
10
82.5000
20
89.2000
0
VERTEX
8
CUT
10
82.2600
20
89.2300
0
VERTEX
8
CUT
10
82.0100
20
89.2300
0
VERTEX
8
CUT
10
81.7700
20
89.2000
0
VERTEX
8
CUT
10
81.5300
20
89.1500
0
VERTEX
8
CUT
10
81.2900
20
89.0800
0
VERTEX
8
CUT
10
81.0700
20
88.9900
0
VERTEX
8
CUT
10
80.8500
20
88.8700
0
VERTEX
8
CUT
10
80.6500
20
88.7300
0
VERTEX
8
CUT
10
80.4600
20
88.5800
0
VERTEX
8
CUT
10
80.2800
20
88.4100
0
VERTEX
8
CUT
10
80.1300
20
88.2200
0
VERTEX
8
CUT
10
79.9900
20
88.0100
0
VERTEX
8
CUT
10
79.8800
20
87.7900
0
VERTEX
8
CUT
10
79.7800
20
87.5700
0
VERTEX
8
CUT
10
79.7100
20
87.3300
0
VERTEX
8
CUT
10
79.6700
20
87.0900
0
VERTEX
8
CUT
10
79.6400
20
86.8500
0
VERTEX
8
CUT
10
79.6400
20
86.6000
0
VERTEX
8
CUT
10
79.6700
20
86.3600
0
VERTEX
8
CUT
10
79.7200
20
86.1200
0
VERTEX
8
CUT
10
79.7900
20
85.8800
0
VERTEX
8
CUT
10
79.8800
20
85.6600
0
VERTEX
8
CUT
10
80.0000
20
85.4400
0
SEQEND
0
POLYLINE
8
CUT
66
1
70
1
10
0.0
20
0.0
30
0.0
0
VERTEX
8
CUT
10
51.9500
20
45.5600
0
VERTEX
8
CUT
10
51.9600
20
45.3300
0
VERTEX
8
CUT
10
51.9900
20
45.1000
0
VERTEX
8
CUT
10
52.0500
20
44.8700
0
VERTEX
8
CUT
10
52.4600
20
43.4600
0
VERTEX
8
CUT
10
52.5400
20
43.2200
0
VERTEX
8
CUT
10
52.6600
20
42.9800
0
VERTEX
8
CUT
10
52.7900
20
42.7600
0
VERTEX
8
CUT
10
54.1700
20
40.7200
0
VERTEX
8
CUT
10
54.3300
20
40.5100
0
VERTEX
8
CUT
10
54.5000
20
40.3200
0
VERTEX
8
CUT
10
59.2100
20
35.7800
0
VERTEX
8
CUT
10
59.2400
20
35.7500
0
VERTEX
8
CUT
10
59.2400
20
35.7400
0
VERTEX
8
CUT
10
59.2500
20
35.7300
0
VERTEX
8
CUT
10
59.2500
20
35.7200
0
VERTEX
8
CUT
10
59.2700
20
35.7000
0
VERTEX
8
CUT
10
59.2800
20
35.6800
0
VERTEX
8
CUT
10
59.3200
20
35.6000
0
VERTEX
8
CUT
10
59.4000
20
35.4600
0
VERTEX
8
CUT
10
60.8100
20
33.0400
0
VERTEX
8
CUT
10
60.8600
20
32.9700
0
VERTEX
8
CUT
10
60.8800
20
32.9400
0
VERTEX
8
CUT
10
60.9000
20
32.9000
0
VERTEX
8
CUT
10
60.9100
20
32.8800
0
VERTEX
8
CUT
10
60.9300
20
32.7700
0
VERTEX
8
CUT
10
60.9500
20
32.6800
0
VERTEX
8
CUT
10
61.5300
20
30.4200
0
VERTEX
8
CUT
10
61.5300
20
30.4100
0
VERTEX
8
CUT
10
61.5300
20
30.4000
0
VERTEX
8
CUT
10
61.5300
20
30.3600
0
VERTEX
8
CUT
10
61.5400
20
30.2500
0
VERTEX
8
CUT
10
61.5800
20
29.2300
0
VERTEX
8
CUT
10
61.6000
20
29.0100
0
VERTEX
8
CUT
10
61.6300
20
28.8000
0
VERTEX
8
CUT
10
61.6900
20
28.5900
0
VERTEX
8
CUT
10
61.7800
20
28.3000
0
VERTEX
8
CUT
10
61.7800
20
28.2800
0
VERTEX
8
CUT
10
61.8000
20
28.2300
0
VERTEX
8
CUT
10
61.8200
20
28.1500
0
VERTEX
8
CUT
10
61.8200
20
28.1400
0
VERTEX
8
CUT
10
61.8200
20
28.1300
0
VERTEX
8
CUT
10
61.8200
20
28.1200
0
VERTEX
8
CUT
10
61.8200
20
28.0700
0
VERTEX
8
CUT
10
61.8800
20
19.2900
0
VERTEX
8
CUT
10
61.9000
20
18.9500
0
VERTEX
8
CUT
10
62.1600
20
17.0500
0
VERTEX
8
CUT
10
62.1700
20
16.9700
0
VERTEX
8
CUT
10
62.1900
20
16.8100
0
VERTEX
8
CUT
10
62.2500
20
16.5800
0
VERTEX
8
CUT
10
63.2900
20
12.9900
0
VERTEX
8
CUT
10
63.3700
20
12.7700
0
VERTEX
8
CUT
10
63.4700
20
12.5500
0
VERTEX
8
CUT
10
63.5900
20
12.3400
0
VERTEX
8
CUT
10
65.1400
20
9.9300
0
VERTEX
8
CUT
10
65.1600
20
9.8900
0
VERTEX
8
CUT
10
65.2600
20
9.7200
0
VERTEX
8
CUT
10
65.4100
20
9.5200
0
VERTEX
8
CUT
10
65.5700
20
9.3400
0
VERTEX
8
CUT
10
66.1800
20
8.7300
0
VERTEX
8
CUT
10
66.3600
20
8.5700
0
VERTEX
8
CUT
10
66.5600
20
8.4200
0
VERTEX
8
CUT
10
66.7700
20
8.3000
0
VERTEX
8
CUT
10
66.9900
20
8.1900
0
VERTEX
8
CUT
10
67.2200
20
8.1100
0
VERTEX
8
CUT
10
67.4600
20
8.0500
0
VERTEX
8
CUT
10
67.7000
20
8.0100
0
VERTEX
8
CUT
10
67.9500
20
8.0000
0
VERTEX
8
CUT
10
79.6600
20
8.0000
0
VERTEX
8
CUT
10
79.9200
20
8.0100
0
VERTEX
8
CUT
10
80.1800
20
8.0600
0
VERTEX
8
CUT
10
80.4400
20
8.1200
0
VERTEX
8
CUT
10
80.6800
20
8.2200
0
VERTEX
8
CUT
10
80.9100
20
8.3400
0
VERTEX
8
CUT
10
81.1300
20
8.4800
0
VERTEX
8
CUT
10
83.2400
20
10.0200
0
VERTEX
8
CUT
10
83.3900
20
10.1400
0
VERTEX
8
CUT
10
83.5300
20
10.2600
0
VERTEX
8
CUT
10
85.1200
20
11.8300
0
VERTEX
8
CUT
10
85.1300
20
11.8400
0
VERTEX
8
CUT
10
85.1400
20
11.8500
0
VERTEX
8
CUT
10
85.3000
20
12.0300
0
VERTEX
8
CUT
10
87.9400
20
15.2500
0
VERTEX
8
CUT
10
88.1300
20
15.5100
0
VERTEX
8
CUT
10
90.8700
20
19.8800
0
VERTEX
8
CUT
10
90.8700
20
19.8900
0
VERTEX
8
CUT
10
90.9200
20
19.9700
0
VERTEX
8
CUT
10
91.0400
20
20.1700
0
VERTEX
8
CUT
10
91.0600
20
20.2100
0
VERTEX
8
CUT
10
92.9400
20
23.9800
0
VERTEX
8
CUT
10
93.0600
20
24.2800
0
VERTEX
8
CUT
10
93.7000
20
26.1300
0
VERTEX
8
CUT
10
93.7000
20
26.1400
0
VERTEX
8
CUT
10
93.7100
20
26.1600
0
VERTEX
8
CUT
10
93.7200
20
26.1800
0
VERTEX
8
CUT
10
93.7600
20
26.2700
0
VERTEX
8
CUT
10
94.2600
20
27.2300
0
VERTEX
8
CUT
10
94.3500
20
27.4200
0
VERTEX
8
CUT
10
94.4200
20
27.6300
0
VERTEX
8
CUT
10
94.4800
20
27.8400
0
VERTEX
8
CUT
10
94.5200
20
28.0500
0
VERTEX
8
CUT
10
94.5400
20
28.2000
0
VERTEX
8
CUT
10
94.5500
20
28.3900
0
VERTEX
8
CUT
10
94.5500
20
28.4000
0
VERTEX
8
CUT
10
94.5500
20
28.4100
0
VERTEX
8
CUT
10
94.5700
20
28.4500
0
VERTEX
8
CUT
10
94.5800
20
28.4800
0
VERTEX
8
CUT
10
94.8700
20
29.0300
0
VERTEX
8
CUT
10
94.9800
20
29.2500
0
VERTEX
8
CUT
10
95.0600
20
29.4900
0
VERTEX
8
CUT
10
95.1200
20
29.7300
0
VERTEX
8
CUT
10
95.4000
20
31.2300
0
VERTEX
8
CUT
10
95.4100
20
31.2700
0
VERTEX
8
CUT
10
95.4100
20
31.2800
0
VERTEX
8
CUT
10
95.4500
20
31.3700
0
VERTEX
8
CUT
10
95.8500
20
32.4000
0
VERTEX
8
CUT
10
95.9300
20
32.6600
0
VERTEX
8
CUT
10
95.9900
20
32.9100
0
VERTEX
8
CUT
10
96.2800
20
34.7400
0
VERTEX
8
CUT
10
96.2900
20
34.8000
0
VERTEX
8
CUT
10
96.3000
20
34.8200
0
VERTEX
8
CUT
10
96.3000
20
34.8300
0
VERTEX
8
CUT
10
96.3100
20
34.8500
0
VERTEX
8
CUT
10
96.3200
20
34.8600
0
VERTEX
8
CUT
10
96.7200
20
36.1400
0
VERTEX
8
CUT
10
96.7700
20
36.3400
0
VERTEX
8
CUT
10
96.8100
20
36.5500
0
VERTEX
8
CUT
10
96.8300
20
36.7500
0
VERTEX
8
CUT
10
96.8700
20
37.4800
0
VERTEX
8
CUT
10
96.8700
20
37.6200
0
VERTEX
8
CUT
10
96.8600
20
37.6100
0
VERTEX
8
CUT
10
96.8700
20
37.6300
0
VERTEX
8
CUT
10
96.8700
20
37.6400
0
VERTEX
8
CUT
10
96.8700
20
37.6600
0
VERTEX
8
CUT
10
96.8900
20
37.7100
0
VERTEX
8
CUT
10
97.3300
20
39.4300
0
VERTEX
8
CUT
10
97.3900
20
39.7000
0
VERTEX
8
CUT
10
97.4100
20
39.9800
0
VERTEX
8
CUT
10
97.4500
20
41.3000
0
VERTEX
8
CUT
10
97.4600
20
41.3900
0
VERTEX
8
CUT
10
97.4700
20
41.4900
0
VERTEX
8
CUT
10
97.4800
20
41.5200
0
VERTEX
8
CUT
10
97.5700
20
41.7800
0
VERTEX
8
CUT
10
97.6400
20
42.0300
0
VERTEX
8
CUT
10
97.6800
20
42.2900
0
VERTEX
8
CUT
10
97.7000
20
42.5500
0
VERTEX
8
CUT
10
97.7400
20
46.6800
0
VERTEX
8
CUT
10
97.7400
20
46.7600
0
VERTEX
8
CUT
10
97.7400
20
46.7800
0
VERTEX
8
CUT
10
97.7500
20
46.8000
0
VERTEX
8
CUT
10
97.7500
20
46.8100
0
VERTEX
8
CUT
10
97.7700
20
46.9400
0
VERTEX
8
CUT
10
97.7900
20
47.0200
0
VERTEX
8
CUT
10
97.9800
20
48.2100
0
VERTEX
8
CUT
10
98.0000
20
48.4300
0
VERTEX
8
CUT
10
98.0100
20
48.6600
0
VERTEX
8
CUT
10
97.9900
20
49.5200
0
VERTEX
8
CUT
10
97.9700
20
49.7600
0
VERTEX
8
CUT
10
97.9300
20
50.0000
0
VERTEX
8
CUT
10
97.8700
20
50.2300
0
VERTEX
8
CUT
10
97.7600
20
50.5700
0
VERTEX
8
CUT
10
97.7300
20
50.6600
0
VERTEX
8
CUT
10
97.7400
20
50.7100
0
VERTEX
8
CUT
10
97.7500
20
50.8000
0
VERTEX
8
CUT
10
97.8300
20
51.1200
0
VERTEX
8
CUT
10
97.8700
20
51.3600
0
VERTEX
8
CUT
10
97.9000
20
51.6000
0
VERTEX
8
CUT
10
97.9000
20
51.8400
0
VERTEX
8
CUT
10
97.8700
20
52.0800
0
VERTEX
8
CUT
10
97.8300
20
52.3200
0
VERTEX
8
CUT
10
97.8200
20
52.3600
0
VERTEX
8
CUT
10
97.7900
20
52.4300
0
VERTEX
8
CUT
10
97.7700
20
52.5000
0
VERTEX
8
CUT
10
97.7600
20
52.5400
0
VERTEX
8
CUT
10
97.7500
20
52.5800
0
VERTEX
8
CUT
10
97.7500
20
52.6000
0
VERTEX
8
CUT
10
97.7500
20
52.6400
0
VERTEX
8
CUT
10
97.7100
20
54.3800
0
VERTEX
8
CUT
10
97.6900
20
54.6500
0
VERTEX
8
CUT
10
97.6400
20
54.9100
0
VERTEX
8
CUT
10
97.5600
20
55.1700
0
VERTEX
8
CUT
10
97.4900
20
55.3700
0
VERTEX
8
CUT
10
97.4700
20
55.4100
0
VERTEX
8
CUT
10
97.4700
20
55.4400
0
VERTEX
8
CUT
10
97.4600
20
55.4800
0
VERTEX
8
CUT
10
97.4600
20
55.4900
0
VERTEX
8
CUT
10
97.4500
20
55.6000
0
VERTEX
8
CUT
10
97.4100
20
56.6900
0
VERTEX
8
CUT
10
97.3900
20
56.9200
0
VERTEX
8
CUT
10
97.3500
20
57.1500
0
VERTEX
8
CUT
10
96.8900
20
59.2400
0
VERTEX
8
CUT
10
96.8800
20
59.2700
0
VERTEX
8
CUT
10
96.8800
20
59.2900
0
VERTEX
8
CUT
10
96.8700
20
59.3200
0
VERTEX
8
CUT
10
96.8700
20
59.3300
0
VERTEX
8
CUT
10
96.8700
20
59.3400
0
VERTEX
8
CUT
10
96.8700
20
59.3700
0
VERTEX
8
CUT
10
96.8700
20
59.3900
0
VERTEX
8
CUT
10
96.8300
20
61.0700
0
VERTEX
8
CUT
10
96.8100
20
61.3000
0
VERTEX
8
CUT
10
96.7700
20
61.5400
0
VERTEX
8
CUT
10
96.7100
20
61.7700
0
VERTEX
8
CUT
10
96.6300
20
61.9900
0
VERTEX
8
CUT
10
96.5300
20
62.2000
0
VERTEX
8
CUT
10
96.3600
20
62.5100
0
VERTEX
8
CUT
10
96.3500
20
62.5400
0
VERTEX
8
CUT
10
96.3400
20
62.5500
0
VERTEX
8
CUT
10
96.3300
20
62.5800
0
VERTEX
8
CUT
10
96.3300
20
62.5900
0
VERTEX
8
CUT
10
96.3300
20
62.6100
0
VERTEX
8
CUT
10
96.2700
20
63.0900
0
VERTEX
8
CUT
10
96.2300
20
63.3600
0
VERTEX
8
CUT
10
96.1500
20
63.6300
0
VERTEX
8
CUT
10
95.6700
20
65.0100
0
VERTEX
8
CUT
10
95.5800
20
65.2400
0
VERTEX
8
CUT
10
95.4700
20
65.4500
0
VERTEX
8
CUT
10
95.3400
20
65.6500
0
VERTEX
8
CUT
10
95.1900
20
65.8400
0
VERTEX
8
CUT
10
95.0200
20
66.0200
0
VERTEX
8
CUT
10
94.8300
20
66.1700
0
VERTEX
8
CUT
10
94.6300
20
66.3100
0
VERTEX
8
CUT
10
94.4200
20
66.4300
0
VERTEX
8
CUT
10
94.2000
20
66.5300
0
VERTEX
8
CUT
10
93.9700
20
66.6000
0
VERTEX
8
CUT
10
93.7300
20
66.6500
0
VERTEX
8
CUT
10
93.4900
20
66.6800
0
VERTEX
8
CUT
10
93.2500
20
66.6900
0
VERTEX
8
CUT
10
93.0100
20
66.6700
0
VERTEX
8
CUT
10
92.7700
20
66.6300
0
VERTEX
8
CUT
10
92.5400
20
66.5700
0
VERTEX
8
CUT
10
92.3100
20
66.4800
0
VERTEX
8
CUT
10
92.1000
20
66.3800
0
VERTEX
8
CUT
10
91.8900
20
66.2500
0
VERTEX
8
CUT
10
91.7000
20
66.1000
0
VERTEX
8
CUT
10
91.5200
20
65.9400
0
VERTEX
8
CUT
10
91.3600
20
65.7500
0
VERTEX
8
CUT
10
91.2200
20
65.5600
0
VERTEX
8
CUT
10
91.1000
20
65.3500
0
VERTEX
8
CUT
10
90.9900
20
65.1300
0
VERTEX
8
CUT
10
90.9100
20
64.9000
0
VERTEX
8
CUT
10
90.8600
20
64.6700
0
VERTEX
8
CUT
10
90.8200
20
64.4300
0
VERTEX
8
CUT
10
90.8100
20
64.1900
0
VERTEX
8
CUT
10
90.8200
20
57.7900
0
VERTEX
8
CUT
10
90.8000
20
57.5700
0
VERTEX
8
CUT
10
90.8000
20
57.5400
0
VERTEX
8
CUT
10
90.2200
20
52.2300
0
VERTEX
8
CUT
10
90.2100
20
52.1800
0
VERTEX
8
CUT
10
90.1900
20
52.0900
0
VERTEX
8
CUT
10
89.0200
20
46.8300
0
VERTEX
8
CUT
10
89.0200
20
46.8100
0
VERTEX
8
CUT
10
89.0100
20
46.8000
0
VERTEX
8
CUT
10
89.0000
20
46.7500
0
VERTEX
8
CUT
10
88.9800
20
46.7100
0
VERTEX
8
CUT
10
87.3100
20
42.2700
0
VERTEX
8
CUT
10
87.2600
20
42.1600
0
VERTEX
8
CUT
10
87.1700
20
41.9300
0
VERTEX
8
CUT
10
86.1300
20
39.8500
0
VERTEX
8
CUT
10
86.0800
20
39.7500
0
VERTEX
8
CUT
10
86.0500
20
39.7200
0
VERTEX
8
CUT
10
86.0500
20
39.7100
0
VERTEX
8
CUT
10
83.7700
20
36.3400
0
VERTEX
8
CUT
10
83.7100
20
36.2500
0
VERTEX
8
CUT
10
83.6300
20
36.1200
0
VERTEX
8
CUT
10
83.6200
20
36.1100
0
VERTEX
8
CUT
10
83.6200
20
36.1000
0
VERTEX
8
CUT
10
83.5800
20
36.0500
0
VERTEX
8
CUT
10
83.5600
20
36.0200
0
VERTEX
8
CUT
10
83.5200
20
35.9700
0
VERTEX
8
CUT
10
83.5100
20
35.9600
0
VERTEX
8
CUT
10
80.4900
20
32.9900
0
VERTEX
8
CUT
10
80.4700
20
32.9600
0
VERTEX
8
CUT
10
80.4600
20
32.9500
0
VERTEX
8
CUT
10
80.3700
20
32.9000
0
VERTEX
8
CUT
10
80.2900
20
32.8600
0
VERTEX
8
CUT
10
78.9200
20
31.9800
0
VERTEX
8
CUT
10
78.8800
20
31.9500
0
VERTEX
8
CUT
10
78.8500
20
31.9400
0
VERTEX
8
CUT
10
78.7800
20
31.9200
0
VERTEX
8
CUT
10
76.0900
20
31.0400
0
VERTEX
8
CUT
10
76.0600
20
31.0300
0
VERTEX
8
CUT
10
75.9400
20
31.0000
0
VERTEX
8
CUT
10
75.9200
20
31.0000
0
VERTEX
8
CUT
10
75.9000
20
31.0000
0
VERTEX
8
CUT
10
73.7900
20
31.0000
0
VERTEX
8
CUT
10
73.6900
20
31.0100
0
VERTEX
8
CUT
10
73.6600
20
31.0200
0
VERTEX
8
CUT
10
73.6400
20
31.0200
0
VERTEX
8
CUT
10
72.3400
20
31.3100
0
VERTEX
8
CUT
10
72.3200
20
31.3200
0
VERTEX
8
CUT
10
72.3100
20
31.3200
0
VERTEX
8
CUT
10
72.2300
20
31.3600
0
VERTEX
8
CUT
10
71.1500
20
31.9100
0
VERTEX
8
CUT
10
71.0900
20
31.9400
0
VERTEX
8
CUT
10
71.0800
20
31.9500
0
VERTEX
8
CUT
10
71.0700
20
31.9600
0
VERTEX
8
CUT
10
71.0600
20
31.9600
0
VERTEX
8
CUT
10
71.0500
20
31.9700
0
VERTEX
8
CUT
10
71.0400
20
31.9800
0
VERTEX
8
CUT
10
71.0000
20
32.0200
0
VERTEX
8
CUT
10
70.9700
20
32.0500
0
VERTEX
8
CUT
10
70.9600
20
32.0600
0
VERTEX
8
CUT
10
69.6600
20
33.3000
0
VERTEX
8
CUT
10
69.6500
20
33.3000
0
VERTEX
8
CUT
10
69.6400
20
33.3200
0
VERTEX
8
CUT
10
69.6200
20
33.3300
0
VERTEX
8
CUT
10
69.6000
20
33.3500
0
VERTEX
8
CUT
10
69.5700
20
33.3900
0
VERTEX
8
CUT
10
69.1500
20
33.8900
0
VERTEX
8
CUT
10
69.1300
20
33.9200
0
VERTEX
8
CUT
10
69.1200
20
33.9300
0
VERTEX
8
CUT
10
69.1100
20
33.9400
0
VERTEX
8
CUT
10
69.1000
20
33.9600
0
VERTEX
8
CUT
10
69.0800
20
33.9900
0
VERTEX
8
CUT
10
69.0500
20
34.0500
0
VERTEX
8
CUT
10
68.2900
20
35.5400
0
VERTEX
8
CUT
10
68.2700
20
35.5800
0
VERTEX
8
CUT
10
68.2700
20
35.5900
0
VERTEX
8
CUT
10
68.2600
20
35.6000
0
VERTEX
8
CUT
10
68.2500
20
35.6300
0
VERTEX
8
CUT
10
68.2500
20
35.6400
0
VERTEX
8
CUT
10
68.2400
20
35.6700
0
VERTEX
8
CUT
10
68.2200
20
35.7300
0
VERTEX
8
CUT
10
67.9300
20
36.9200
0
VERTEX
8
CUT
10
67.9300
20
36.9600
0
VERTEX
8
CUT
10
67.9200
20
37.0100
0
VERTEX
8
CUT
10
67.9200
20
37.0200
0
VERTEX
8
CUT
10
67.9000
20
37.1100
0
VERTEX
8
CUT
10
67.9000
20
37.1200
0
VERTEX
8
CUT
10
67.9000
20
37.1400
0
VERTEX
8
CUT
10
67.9000
20
37.1800
0
VERTEX
8
CUT
10
67.8900
20
38.9900
0
VERTEX
8
CUT
10
67.8900
20
39.0200
0
VERTEX
8
CUT
10
67.9000
20
39.0800
0
VERTEX
8
CUT
10
67.9200
20
39.2100
0
VERTEX
8
CUT
10
67.9300
20
39.2600
0
VERTEX
8
CUT
10
68.1500
20
40.1700
0
VERTEX
8
CUT
10
68.2000
20
40.4100
0
VERTEX
8
CUT
10
68.2200
20
40.6500
0
VERTEX
8
CUT
10
68.2200
20
40.8900
0
VERTEX
8
CUT
10
68.1900
20
41.1300
0
VERTEX
8
CUT
10
68.1400
20
41.3700
0
VERTEX
8
CUT
10
68.0700
20
41.6000
0
VERTEX
8
CUT
10
67.9800
20
41.8200
0
VERTEX
8
CUT
10
67.8600
20
42.0400
0
VERTEX
8
CUT
10
67.7300
20
42.2400
0
VERTEX
8
CUT
10
67.5800
20
42.4200
0
VERTEX
8
CUT
10
67.4100
20
42.6000
0
VERTEX
8
CUT
10
67.3400
20
42.6500
0
VERTEX
8
CUT
10
67.2900
20
42.7000
0
VERTEX
8
CUT
10
67.2700
20
42.7100
0
VERTEX
8
CUT
10
67.2500
20
42.7300
0
VERTEX
8
CUT
10
67.2200
20
42.7600
0
VERTEX
8
CUT
10
67.2000
20
42.7800
0
VERTEX
8
CUT
10
67.1800
20
42.7900
0
VERTEX
8
CUT
10
67.1700
20
42.8000
0
VERTEX
8
CUT
10
67.1600
20
42.8100
0
VERTEX
8
CUT
10
66.5800
20
43.4700
0
VERTEX
8
CUT
10
66.4900
20
43.5600
0
VERTEX
8
CUT
10
66.4800
20
43.5700
0
VERTEX
8
CUT
10
66.4700
20
43.5800
0
VERTEX
8
CUT
10
66.4700
20
43.5900
0
VERTEX
8
CUT
10
65.7600
20
45.0500
0
VERTEX
8
CUT
10
65.7000
20
45.1700
0
VERTEX
8
CUT
10
65.6500
20
45.2600
0
VERTEX
8
CUT
10
65.6200
20
45.3100
0
VERTEX
8
CUT
10
65.6000
20
45.3400
0
VERTEX
8
CUT
10
65.6000
20
45.3500
0
VERTEX
8
CUT
10
65.5900
20
45.3600
0
VERTEX
8
CUT
10
65.5900
20
45.3700
0
VERTEX
8
CUT
10
65.5700
20
45.5100
0
VERTEX
8
CUT
10
65.5600
20
45.5600
0
VERTEX
8
CUT
10
65.3000
20
46.9200
0
VERTEX
8
CUT
10
65.2900
20
47.0000
0
VERTEX
8
CUT
10
65.2800
20
47.0300
0
VERTEX
8
CUT
10
65.2700
20
47.0800
0
VERTEX
8
CUT
10
65.2600
20
47.1600
0
VERTEX
8
CUT
10
65.2500
20
47.2200
0
VERTEX
8
CUT
10
65.2500
20
47.2600
0
VERTEX
8
CUT
10
65.2800
20
48.1600
0
VERTEX
8
CUT
10
65.2800
20
48.2100
0
VERTEX
8
CUT
10
65.2800
20
48.2200
0
VERTEX
8
CUT
10
65.2800
20
48.2300
0
VERTEX
8
CUT
10
65.2800
20
48.2400
0
VERTEX
8
CUT
10
65.3200
20
48.3500
0
VERTEX
8
CUT
10
65.3400
20
48.4400
0
VERTEX
8
CUT
10
65.3500
20
48.4700
0
VERTEX
8
CUT
10
65.3500
20
48.4800
0
VERTEX
8
CUT
10
65.8800
20
50.6000
0
VERTEX
8
CUT
10
65.9200
20
50.7300
0
VERTEX
8
CUT
10
65.9500
20
50.7900
0
VERTEX
8
CUT
10
67.3800
20
53.3400
0
VERTEX
8
CUT
10
67.3900
20
53.3800
0
VERTEX
8
CUT
10
67.4000
20
53.3900
0
VERTEX
8
CUT
10
67.4200
20
53.4200
0
VERTEX
8
CUT
10
67.4400
20
53.4500
0
VERTEX
8
CUT
10
67.5100
20
53.5500
0
VERTEX
8
CUT
10
69.2400
20
55.5900
0
VERTEX
8
CUT
10
69.3100
20
55.6600
0
VERTEX
8
CUT
10
69.3300
20
55.6800
0
VERTEX
8
CUT
10
69.3500
20
55.7000
0
VERTEX
8
CUT
10
72.1500
20
58.3800
0
VERTEX
8
CUT
10
72.3200
20
58.5600
0
VERTEX
8
CUT
10
72.4700
20
58.7600
0
VERTEX
8
CUT
10
72.6000
20
58.9700
0
VERTEX
8
CUT
10
72.7100
20
59.1900
0
VERTEX
8
CUT
10
72.8000
20
59.4200
0
VERTEX
8
CUT
10
72.8600
20
59.6600
0
VERTEX
8
CUT
10
72.9000
20
59.9000
0
VERTEX
8
CUT
10
72.9200
20
60.1500
0
VERTEX
8
CUT
10
72.9100
20
60.3900
0
VERTEX
8
CUT
10
72.8800
20
60.6400
0
VERTEX
8
CUT
10
72.8200
20
60.8800
0
VERTEX
8
CUT
10
72.7400
20
61.1100
0
VERTEX
8
CUT
10
72.6400
20
61.3400
0
VERTEX
8
CUT
10
72.5200
20
61.5500
0
VERTEX
8
CUT
10
72.3700
20
61.7500
0
VERTEX
8
CUT
10
72.2100
20
61.9400
0
VERTEX
8
CUT
10
72.0300
20
62.1000
0
VERTEX
8
CUT
10
71.8300
20
62.2500
0
VERTEX
8
CUT
10
71.6200
20
62.3800
0
VERTEX
8
CUT
10
71.4000
20
62.4900
0
VERTEX
8
CUT
10
71.1700
20
62.5800
0
VERTEX
8
CUT
10
70.9300
20
62.6400
0
VERTEX
8
CUT
10
70.6800
20
62.6800
0
VERTEX
8
CUT
10
70.4400
20
62.6900
0
VERTEX
8
CUT
10
70.1900
20
62.6800
0
VERTEX
8
CUT
10
69.9500
20
62.6400
0
VERTEX
8
CUT
10
69.7100
20
62.5900
0
VERTEX
8
CUT
10
69.4700
20
62.5000
0
VERTEX
8
CUT
10
69.2500
20
62.4000
0
VERTEX
8
CUT
10
69.1900
20
62.3700
0
VERTEX
8
CUT
10
69.0500
20
62.3100
0
VERTEX
8
CUT
10
68.7100
20
62.1400
0
VERTEX
8
CUT
10
68.5700
20
62.0600
0
VERTEX
8
CUT
10
68.5400
20
62.0500
0
VERTEX
8
CUT
10
68.5200
20
62.0400
0
VERTEX
8
CUT
10
68.5100
20
62.0400
0
VERTEX
8
CUT
10
68.4700
20
62.0400
0
VERTEX
8
CUT
10
68.4200
20
62.0300
0
VERTEX
8
CUT
10
68.2800
20
62.0200
0
VERTEX
8
CUT
10
68.0100
20
61.9700
0
VERTEX
8
CUT
10
67.7500
20
61.9000
0
VERTEX
8
CUT
10
67.4900
20
61.8000
0
VERTEX
8
CUT
10
67.2500
20
61.6700
0
VERTEX
8
CUT
10
64.6400
20
60.1000
0
VERTEX
8
CUT
10
64.6200
20
60.0900
0
VERTEX
8
CUT
10
64.6000
20
60.0800
0
VERTEX
8
CUT
10
64.4800
20
60.0100
0
VERTEX
8
CUT
10
64.4700
20
60.0100
0
VERTEX
8
CUT
10
64.3400
20
59.9400
0
VERTEX
8
CUT
10
60.5300
20
58.3100
0
VERTEX
8
CUT
10
60.2900
20
58.1900
0
VERTEX
8
CUT
10
60.0700
20
58.0500
0
VERTEX
8
CUT
10
59.8600
20
57.8800
0
VERTEX
8
CUT
10
58.7300
20
56.8800
0
VERTEX
8
CUT
10
58.6800
20
56.8400
0
VERTEX
8
CUT
10
58.6500
20
56.8100
0
VERTEX
8
CUT
10
58.6100
20
56.7900
0
VERTEX
8
CUT
10
56.1400
20
55.2200
0
VERTEX
8
CUT
10
55.9500
20
55.0800
0
VERTEX
8
CUT
10
55.7600
20
54.9300
0
VERTEX
8
CUT
10
55.6000
20
54.7500
0
VERTEX
8
CUT
10
54.0100
20
52.9300
0
VERTEX
8
CUT
10
53.9900
20
52.9100
0
VERTEX
8
CUT
10
53.9000
20
52.8000
0
VERTEX
8
CUT
10
53.8400
20
52.7400
0
VERTEX
8
CUT
10
53.7100
20
52.5700
0
VERTEX
8
CUT
10
53.5900
20
52.3800
0
VERTEX
8
CUT
10
52.6800
20
50.7800
0
VERTEX
8
CUT
10
52.5400
20
50.5000
0
VERTEX
8
CUT
10
52.4400
20
50.2100
0
VERTEX
8
CUT
10
52.0300
20
48.7400
0
VERTEX
8
CUT
10
51.9800
20
48.5200
0
VERTEX
8
CUT
10
51.9500
20
48.2900
0
VERTEX
8
CUT
10
51.9400
20
48.0600
0
SEQEND
0
ENDSEC
0
EOF
