0
SECTION
2
HEADER
9
$ACADVER
1
AC1009
9
$INSUNITS
70
4
0
ENDSEC
0
SECTION
2
TABLES
0
TABLE
2
LAYER
70
1
0
LAYER
2
CUT
70
0
62
7
6
CONTINUOUS
0
ENDTAB
0
ENDSEC
0
SECTION
2
ENTITIES
0
POLYLINE
8
CUT
66
1
70
1
10
0.0
20
0.0
30
0.0
0
VERTEX
8
CUT
10
0.0431
20
298.6056
0
VERTEX
8
CUT
10
0.1479
20
298.8271
0
VERTEX
8
CUT
10
0.2738
20
299.0373
0
VERTEX
8
CUT
10
0.4198
20
299.2341
0
VERTEX
8
CUT
10
0.5844
20
299.4156
0
VERTEX
8
CUT
10
0.7659
20
299.5802
0
VERTEX
8
CUT
10
0.9627
20
299.7262
0
VERTEX
8
CUT
10
1.1729
20
299.8521
0
VERTEX
8
CUT
10
1.3944
20
299.9569
0
VERTEX
8
CUT
10
1.6252
20
300.0395
0
VERTEX
8
CUT
10
1.8629
20
300.0990
0
VERTEX
8
CUT
10
2.1053
20
300.1350
0
VERTEX
8
CUT
10
2.4114
20
300.1500
0
VERTEX
8
CUT
10
297.5872
20
300.1500
0
VERTEX
8
CUT
10
297.8933
20
300.1350
0
VERTEX
8
CUT
10
298.1357
20
300.0990
0
VERTEX
8
CUT
10
298.3734
20
300.0395
0
VERTEX
8
CUT
10
298.6041
20
299.9569
0
VERTEX
8
CUT
10
298.8256
20
299.8521
0
VERTEX
8
CUT
10
299.0358
20
299.7262
0
VERTEX
8
CUT
10
299.2326
20
299.5802
0
VERTEX
8
CUT
10
299.4142
20
299.4156
0
VERTEX
8
CUT
10
299.5787
20
299.2341
0
VERTEX
8
CUT
10
299.7247
20
299.0373
0
VERTEX
8
CUT
10
299.8507
20
298.8271
0
VERTEX
8
CUT
10
299.9554
20
298.6056
0
VERTEX
8
CUT
10
300.0380
20
298.3748
0
VERTEX
8
CUT
10
300.0975
20
298.1371
0
VERTEX
8
CUT
10
300.1335
20
297.8947
0
VERTEX
8
CUT
10
300.1485
20
297.5886
0
VERTEX
8
CUT
10
300.1485
20
2.4114
0
VERTEX
8
CUT
10
300.1335
20
2.1053
0
VERTEX
8
CUT
10
300.0975
20
1.8629
0
VERTEX
8
CUT
10
300.0380
20
1.6252
0
VERTEX
8
CUT
10
299.9554
20
1.3944
0
VERTEX
8
CUT
10
299.8507
20
1.1729
0
VERTEX
8
CUT
10
299.7247
20
0.9627
0
VERTEX
8
CUT
10
299.5787
20
0.7659
0
VERTEX
8
CUT
10
299.4142
20
0.5844
0
VERTEX
8
CUT
10
299.2326
20
0.4198
0
VERTEX
8
CUT
10
299.0358
20
0.2738
0
VERTEX
8
CUT
10
298.8256
20
0.1479
0
VERTEX
8
CUT
10
298.6041
20
0.0431
0
VERTEX
8
CUT
10
298.3734
20
-0.0395
0
VERTEX
8
CUT
10
298.1357
20
-0.0990
0
VERTEX
8
CUT
10
297.8933
20
-0.1350
0
VERTEX
8
CUT
10
297.5872
20
-0.1500
0
VERTEX
8
CUT
10
2.4114
20
-0.1500
0
VERTEX
8
CUT
10
2.1053
20
-0.1350
0
VERTEX
8
CUT
10
1.8629
20
-0.0990
0
VERTEX
8
CUT
10
1.6252
20
-0.0395
0
VERTEX
8
CUT
10
1.3944
20
0.0431
0
VERTEX
8
CUT
10
1.1729
20
0.1479
0
VERTEX
8
CUT
10
0.9627
20
0.2738
0
VERTEX
8
CUT
10
0.7659
20
0.4198
0
VERTEX
8
CUT
10
0.5844
20
0.5844
0
VERTEX
8
CUT
10
0.4198
20
0.7659
0
VERTEX
8
CUT
10
0.2738
20
0.9627
0
VERTEX
8
CUT
10
0.1479
20
1.1729
0
VERTEX
8
CUT
10
0.0431
20
1.3944
0
VERTEX
8
CUT
10
-0.0395
20
1.6252
0
VERTEX
8
CUT
10
-0.0990
20
1.8629
0
VERTEX
8
CUT
10
-0.1350
20
2.1053
0
VERTEX
8
CUT
10
-0.1500
20
2.4114
0
VERTEX
8
CUT
10
-0.1500
20
297.5886
0
VERTEX
8
CUT
10
-0.1350
20
297.8947
0
VERTEX
8
CUT
10
-0.0990
20
298.1371
0
VERTEX
8
CUT
10
-0.0395
20
298.3748
0
SEQEND
0
POLYLINE
8
CUT
66
1
70
1
10
0.0
20
0.0
30
0.0
0
VERTEX
8
CUT
10
240.7841
20
153.4563
0
VERTEX
8
CUT
10
240.8419
20
153.2559
0
VERTEX
8
CUT
10
240.9162
20
153.0610
0
VERTEX
8
CUT
10
241.1222
20
152.5819
0
VERTEX
8
CUT
10
241.2295
20
152.3626
0
VERTEX
8
CUT
10
241.3576
20
152.1547
0
VERTEX
8
CUT
10
241.5055
20
151.9604
0
VERTEX
8
CUT
10
242.7187
20
150.5175
0
VERTEX
8
CUT
10
242.8704
20
150.3527
0
VERTEX
8
CUT
10
243.0363
20
150.2021
0
VERTEX
8
CUT
10
243.2150
20
150.0670
0
VERTEX
8
CUT
10
243.4050
20
149.9483
0
VERTEX
8
CUT
10
243.9262
20
149.6547
0
VERTEX
8
CUT
10
244.1335
20
149.5503
0
VERTEX
8
CUT
10
244.3496
20
149.4655
0
VERTEX
8
CUT
10
244.5727
20
149.4012
0
VERTEX
8
CUT
10
244.8007
20
149.3578
0
VERTEX
8
CUT
10
245.0318
20
149.3358
0
VERTEX
8
CUT
10
246.5143
20
149.2636
0
VERTEX
8
CUT
10
246.7786
20
149.2647
0
VERTEX
8
CUT
10
247.0413
20
149.2937
0
VERTEX
8
CUT
10
247.2995
20
149.3503
0
VERTEX
8
CUT
10
248.3212
20
149.6317
0
VERTEX
8
CUT
10
248.5767
20
149.7170
0
VERTEX
8
CUT
10
248.8214
20
149.8294
0
VERTEX
8
CUT
10
249.0527
20
149.9674
0
VERTEX
8
CUT
10
249.4966
20
150.2660
0
VERTEX
8
CUT
10
249.6803
20
150.4021
0
VERTEX
8
CUT
10
249.8507
20
150.5544
0
VERTEX
8
CUT
10
250.0066
20
150.7216
0
VERTEX
8
CUT
10
250.3601
20
151.1376
0
VERTEX
8
CUT
10
250.5238
20
151.3529
0
VERTEX
8
CUT
10
250.6634
20
151.5847
0
VERTEX
8
CUT
10
250.9953
20
152.2101
0
VERTEX
8
CUT
10
251.1120
20
152.4633
0
VERTEX
8
CUT
10
251.1999
20
152.7279
0
VERTEX
8
CUT
10
251.3788
20
153.3882
0
VERTEX
8
CUT
10
251.4318
20
153.6304
0
VERTEX
8
CUT
10
251.4604
20
153.8767
0
VERTEX
8
CUT
10
251.5082
20
154.5970
0
VERTEX
8
CUT
10
251.5115
20
154.8691
0
VERTEX
8
CUT
10
251.4851
20
155.1399
0
VERTEX
8
CUT
10
251.3799
20
155.8287
0
VERTEX
8
CUT
10
251.3155
20
156.1273
0
VERTEX
8
CUT
10
251.2151
20
156.4158
0
VERTEX
8
CUT
10
250.9471
20
157.0567
0
VERTEX
8
CUT
10
250.8267
20
157.3051
0
VERTEX
8
CUT
10
250.6797
20
157.5388
0
VERTEX
8
CUT
10
250.2459
20
158.1502
0
VERTEX
8
CUT
10
250.0832
20
158.3558
0
VERTEX
8
CUT
10
249.8998
20
158.5433
0
VERTEX
8
CUT
10
249.4176
20
158.9871
0
VERTEX
8
CUT
10
249.2189
20
159.1519
0
VERTEX
8
CUT
10
249.0042
20
159.2953
0
VERTEX
8
CUT
10
248.7759
20
159.4158
0
VERTEX
8
CUT
10
248.0145
20
159.7687
0
VERTEX
8
CUT
10
247.7964
20
159.8575
0
VERTEX
8
CUT
10
247.5710
20
159.9255
0
VERTEX
8
CUT
10
247.3401
20
159.9719
0
VERTEX
8
CUT
10
247.1059
20
159.9964
0
VERTEX
8
CUT
10
245.9024
20
160.0652
0
VERTEX
8
CUT
10
245.6862
20
160.0682
0
VERTEX
8
CUT
10
245.4706
20
160.0525
0
VERTEX
8
CUT
10
245.2572
20
160.0182
0
VERTEX
8
CUT
10
244.6199
20
159.8874
0
VERTEX
8
CUT
10
244.3669
20
159.8215
0
VERTEX
8
CUT
10
244.1221
20
159.7296
0
VERTEX
8
CUT
10
243.6868
20
159.5395
0
VERTEX
8
CUT
10
243.4401
20
159.4152
0
VERTEX
8
CUT
10
243.2086
20
159.2643
0
VERTEX
8
CUT
10
242.9952
20
159.0889
0
VERTEX
8
CUT
10
241.9890
20
158.1640
0
VERTEX
8
CUT
10
241.8057
20
157.9768
0
VERTEX
8
CUT
10
241.6429
20
157.7714
0
VERTEX
8
CUT
10
241.5025
20
157.5501
0
VERTEX
8
CUT
10
241.3861
20
157.3153
0
VERTEX
8
CUT
10
240.8673
20
156.1151
0
VERTEX
8
CUT
10
240.7721
20
155.8563
0
VERTEX
8
CUT
10
240.7059
20
155.5886
0
VERTEX
8
CUT
10
240.6696
20
155.3152
0
VERTEX
8
CUT
10
240.6307
20
154.8113
0
VERTEX
8
CUT
10
240.6253
20
154.5207
0
VERTEX
8
CUT
10
240.6536
20
154.2316
0
VERTEX
8
CUT
10
240.7432
20
153.6607
0
SEQEND
0
POLYLINE
8
CUT
66
1
70
1
10
0.0
20
0.0
30
0.0
0
VERTEX
8
CUT
10
213.8358
20
109.8548
0
VERTEX
8
CUT
10
213.7298
20
109.6287
0
VERTEX
8
CUT
10
213.6468
20
109.3930
0
VERTEX
8
CUT
10
213.5878
20
109.1503
0
VERTEX
8
CUT
10
213.5533
20
108.9029
0
VERTEX
8
CUT
10
213.5437
20
108.6532
0
VERTEX
8
CUT
10
213.5590
20
108.4039
0
VERTEX
8
CUT
10
213.5992
20
108.1573
0
VERTEX
8
CUT
10
213.6638
20
107.9160
0
VERTEX
8
CUT
10
213.7521
20
107.6823
0
VERTEX
8
CUT
10
213.7782
20
107.6224
0
VERTEX
8
CUT
10
213.8105
20
107.5461
0
VERTEX
8
CUT
10
213.8319
20
107.4940
0
VERTEX
8
CUT
10
213.8624
20
107.4170
0
VERTEX
8
CUT
10
215.6801
20
102.6909
0
VERTEX
8
CUT
10
215.7264
20
102.5637
0
VERTEX
8
CUT
10
215.7563
20
102.4767
0
VERTEX
8
CUT
10
215.7980
20
102.3478
0
VERTEX
8
CUT
10
216.0656
20
101.4672
0
VERTEX
8
CUT
10
216.0903
20
101.3125
0
VERTEX
8
CUT
10
216.1491
20
101.0845
0
VERTEX
8
CUT
10
216.6244
20
99.5462
0
VERTEX
8
CUT
10
216.7093
20
99.3130
0
VERTEX
8
CUT
10
216.8169
20
99.0894
0
VERTEX
8
CUT
10
216.8455
20
99.0425
0
VERTEX
8
CUT
10
216.8648
20
99.0018
0
VERTEX
8
CUT
10
216.9911
20
98.7914
0
VERTEX
8
CUT
10
217.1374
20
98.5943
0
VERTEX
8
CUT
10
217.3023
20
98.4125
0
VERTEX
8
CUT
10
217.4843
20
98.2478
0
VERTEX
8
CUT
10
217.6816
20
98.1017
0
VERTEX
8
CUT
10
217.8922
20
97.9757
0
VERTEX
8
CUT
10
218.1142
20
97.8710
0
VERTEX
8
CUT
10
218.3453
20
97.7885
0
VERTEX
8
CUT
10
218.5835
20
97.7290
0
VERTEX
8
CUT
10
218.8263
20
97.6932
0
VERTEX
8
CUT
10
219.0715
20
97.6814
0
VERTEX
8
CUT
10
219.3166
20
97.6937
0
VERTEX
8
CUT
10
219.5593
20
97.7300
0
VERTEX
8
CUT
10
219.7974
20
97.7899
0
VERTEX
8
CUT
10
220.0284
20
97.8728
0
VERTEX
8
CUT
10
220.2501
20
97.9780
0
VERTEX
8
CUT
10
220.4605
20
98.1045
0
VERTEX
8
CUT
10
220.6575
20
98.2510
0
VERTEX
8
CUT
10
220.8391
20
98.4160
0
VERTEX
8
CUT
10
221.0037
20
98.5981
0
VERTEX
8
CUT
10
221.1496
20
98.7955
0
VERTEX
8
CUT
10
221.2755
20
99.0062
0
VERTEX
8
CUT
10
221.3801
20
99.2282
0
VERTEX
8
CUT
10
221.4625
20
99.4594
0
VERTEX
8
CUT
10
221.5217
20
99.6976
0
VERTEX
8
CUT
10
221.9690
20
101.9651
0
VERTEX
8
CUT
10
222.0143
20
102.1658
0
VERTEX
8
CUT
10
222.0489
20
102.3012
0
VERTEX
8
CUT
10
222.1051
20
102.4991
0
VERTEX
8
CUT
10
223.0372
20
105.4650
0
VERTEX
8
CUT
10
223.1035
20
105.6573
0
VERTEX
8
CUT
10
223.1520
20
105.7867
0
VERTEX
8
CUT
10
223.2285
20
105.9751
0
VERTEX
8
CUT
10
224.4654
20
108.7975
0
VERTEX
8
CUT
10
224.5478
20
108.9731
0
VERTEX
8
CUT
10
224.6068
20
109.0908
0
VERTEX
8
CUT
10
224.6982
20
109.2619
0
VERTEX
8
CUT
10
226.3315
20
112.1380
0
VERTEX
8
CUT
10
226.4044
20
112.2608
0
VERTEX
8
CUT
10
226.4554
20
112.3432
0
VERTEX
8
CUT
10
226.5328
20
112.4631
0
VERTEX
8
CUT
10
231.3033
20
119.5482
0
VERTEX
8
CUT
10
231.4102
20
119.7218
0
VERTEX
8
CUT
10
232.7382
20
122.0901
0
VERTEX
8
CUT
10
232.8310
20
122.2729
0
VERTEX
8
CUT
10
232.9086
20
122.4626
0
VERTEX
8
CUT
10
234.1113
20
125.7884
0
VERTEX
8
CUT
10
234.1734
20
125.9852
0
VERTEX
8
CUT
10
234.2190
20
126.1864
0
VERTEX
8
CUT
10
234.5231
20
127.8397
0
VERTEX
8
CUT
10
234.5505
20
128.0290
0
VERTEX
8
CUT
10
234.5633
20
128.2199
0
VERTEX
8
CUT
10
234.6095
20
129.8254
0
VERTEX
8
CUT
10
234.6076
20
130.0201
0
VERTEX
8
CUT
10
234.5904
20
130.2140
0
VERTEX
8
CUT
10
234.3881
20
131.7981
0
VERTEX
8
CUT
10
234.3573
20
131.9837
0
VERTEX
8
CUT
10
234.3126
20
132.1664
0
VERTEX
8
CUT
10
233.8235
20
133.8834
0
VERTEX
8
CUT
10
233.7143
20
134.1897
0
VERTEX
8
CUT
10
232.9438
20
135.9737
0
VERTEX
8
CUT
10
232.8175
20
136.2259
0
VERTEX
8
CUT
10
231.7201
20
138.1400
0
VERTEX
8
CUT
10
231.6062
20
138.3204
0
VERTEX
8
CUT
10
228.5327
20
142.7560
0
VERTEX
8
CUT
10
228.4374
20
142.9005
0
VERTEX
8
CUT
10
228.3749
20
143.0002
0
VERTEX
8
CUT
10
228.2864
20
143.1490
0
VERTEX
8
CUT
10
227.2641
20
144.9613
0
VERTEX
8
CUT
10
227.1591
20
145.1612
0
VERTEX
8
CUT
10
227.0920
20
145.2989
0
VERTEX
8
CUT
10
226.9993
20
145.5047
0
VERTEX
8
CUT
10
226.3119
20
147.1618
0
VERTEX
8
CUT
10
226.2273
20
147.3859
0
VERTEX
8
CUT
10
226.1747
20
147.5397
0
VERTEX
8
CUT
10
226.1045
20
147.7687
0
VERTEX
8
CUT
10
225.6814
20
149.3251
0
VERTEX
8
CUT
10
225.6212
20
149.5823
0
VERTEX
8
CUT
10
225.5865
20
149.7581
0
VERTEX
8
CUT
10
225.5444
20
150.0188
0
VERTEX
8
CUT
10
225.3559
20
151.5255
0
VERTEX
8
CUT
10
225.3398
20
151.6793
0
VERTEX
8
CUT
10
225.3375
20
151.7069
0
VERTEX
8
CUT
10
225.3245
20
152.0156
0
VERTEX
8
CUT
10
225.3245
20
152.0433
0
VERTEX
8
CUT
10
225.3276
20
152.1978
0
VERTEX
8
CUT
10
225.3927
20
153.8089
0
VERTEX
8
CUT
10
225.4016
20
153.9568
0
VERTEX
8
CUT
10
225.4037
20
153.9833
0
VERTEX
8
CUT
10
225.4390
20
154.2776
0
VERTEX
8
CUT
10
225.4432
20
154.3038
0
VERTEX
8
CUT
10
225.4696
20
154.4497
0
VERTEX
8
CUT
10
225.8008
20
156.0959
0
VERTEX
8
CUT
10
225.8481
20
156.3011
0
VERTEX
8
CUT
10
225.8841
20
156.4394
0
VERTEX
8
CUT
10
225.9428
20
156.6416
0
VERTEX
8
CUT
10
226.5010
20
158.3789
0
VERTEX
8
CUT
10
226.5823
20
158.6066
0
VERTEX
8
CUT
10
226.6425
20
158.7593
0
VERTEX
8
CUT
10
226.7383
20
158.9813
0
VERTEX
8
CUT
10
227.8598
20
161.3645
0
VERTEX
8
CUT
10
227.9821
20
161.6021
0
VERTEX
8
CUT
10
228.0708
20
161.7602
0
VERTEX
8
CUT
10
228.2097
20
161.9885
0
VERTEX
8
CUT
10
228.8571
20
162.9715
0
VERTEX
8
CUT
10
228.9335
20
163.0831
0
VERTEX
8
CUT
10
228.9868
20
163.1580
0
VERTEX
8
CUT
10
229.0672
20
163.2667
0
VERTEX
8
CUT
10
229.8561
20
164.2948
0
VERTEX
8
CUT
10
229.9922
20
164.4620
0
VERTEX
8
CUT
10
230.0879
20
164.5728
0
VERTEX
8
CUT
10
230.2334
20
164.7320
0
VERTEX
8
CUT
10
232.5896
20
167.1641
0
VERTEX
8
CUT
10
232.7224
20
167.2945
0
VERTEX
8
CUT
10
232.8147
20
167.3808
0
VERTEX
8
CUT
10
232.9538
20
167.5044
0
VERTEX
8
CUT
10
240.2776
20
173.6982
0
VERTEX
8
CUT
10
240.3018
20
173.7189
0
VERTEX
8
CUT
10
240.3062
20
173.7227
0
VERTEX
8
CUT
10
240.4047
20
173.8129
0
VERTEX
8
CUT
10
241.8919
20
175.2496
0
VERTEX
8
CUT
10
242.0274
20
175.3911
0
VERTEX
8
CUT
10
242.1513
20
175.5428
0
VERTEX
8
CUT
10
244.2698
20
178.3534
0
VERTEX
8
CUT
10
244.4095
20
178.5593
0
VERTEX
8
CUT
10
244.5280
20
178.7780
0
VERTEX
8
CUT
10
246.7263
20
183.3665
0
VERTEX
8
CUT
10
246.8081
20
183.5572
0
VERTEX
8
CUT
10
246.8739
20
183.7542
0
VERTEX
8
CUT
10
247.7841
20
186.9119
0
VERTEX
8
CUT
10
247.8355
20
187.1249
0
VERTEX
8
CUT
10
247.8681
20
187.3417
0
VERTEX
8
CUT
10
248.0341
20
188.9135
0
VERTEX
8
CUT
10
248.0480
20
189.1687
0
VERTEX
8
CUT
10
248.0871
20
202.3161
0
VERTEX
8
CUT
10
248.0754
20
202.5651
0
VERTEX
8
CUT
10
248.0390
20
202.8117
0
VERTEX
8
CUT
10
247.9782
20
203.0534
0
VERTEX
8
CUT
10
247.8937
20
203.2878
0
VERTEX
8
CUT
10
247.7862
20
203.5127
0
VERTEX
8
CUT
10
247.6568
20
203.7258
0
VERTEX
8
CUT
10
247.5069
20
203.9249
0
VERTEX
8
CUT
10
247.3379
20
204.1081
0
VERTEX
8
CUT
10
247.1515
20
204.2736
0
VERTEX
8
CUT
10
246.9496
20
204.4197
0
VERTEX
8
CUT
10
246.7341
20
204.5449
0
VERTEX
8
CUT
10
246.5072
20
204.6481
0
VERTEX
8
CUT
10
246.2712
20
204.7282
0
VERTEX
8
CUT
10
246.0283
20
204.7843
0
VERTEX
8
CUT
10
245.7811
20
204.8160
0
VERTEX
8
CUT
10
245.5319
20
204.8229
0
VERTEX
8
CUT
10
245.2833
20
204.8050
0
VERTEX
8
CUT
10
245.0378
20
204.7624
0
VERTEX
8
CUT
10
244.7976
20
204.6956
0
VERTEX
8
CUT
10
244.5654
20
204.6052
0
VERTEX
8
CUT
10
244.3432
20
204.4921
0
VERTEX
8
CUT
10
244.1335
20
204.3575
0
VERTEX
8
CUT
10
243.9382
20
204.2026
0
VERTEX
8
CUT
10
243.7593
20
204.0291
0
VERTEX
8
CUT
10
243.5985
20
203.8386
0
VERTEX
8
CUT
10
243.4575
20
203.6331
0
VERTEX
8
CUT
10
243.3377
20
203.4145
0
VERTEX
8
CUT
10
243.2403
20
203.1851
0
VERTEX
8
CUT
10
243.0067
20
202.5490
0
VERTEX
8
CUT
10
242.9644
20
202.4391
0
VERTEX
8
CUT
10
242.9345
20
202.3649
0
VERTEX
8
CUT
10
242.8888
20
202.2565
0
VERTEX
8
CUT
10
241.9646
20
200.1566
0
VERTEX
8
CUT
10
241.8834
20
199.9841
0
VERTEX
8
CUT
10
241.8253
20
199.8684
0
VERTEX
8
CUT
10
241.7354
20
199.7003
0
VERTEX
8
CUT
10
240.7254
20
197.9211
0
VERTEX
8
CUT
10
240.6225
20
197.7505
0
VERTEX
8
CUT
10
240.5496
20
197.6365
0
VERTEX
8
CUT
10
240.4377
20
197.4716
0
VERTEX
8
CUT
10
239.3190
20
195.9132
0
VERTEX
8
CUT
10
239.2001
20
195.7564
0
VERTEX
8
CUT
10
239.1166
20
195.6520
0
VERTEX
8
CUT
10
238.9896
20
195.5017
0
VERTEX
8
CUT
10
237.7413
20
194.0999
0
VERTEX
8
CUT
10
237.5524
20
193.9027
0
VERTEX
8
CUT
10
237.4195
20
193.7737
0
VERTEX
8
CUT
10
237.2167
20
193.5908
0
VERTEX
8
CUT
10
230.5390
20
187.9939
0
VERTEX
8
CUT
10
230.5098
20
187.9691
0
VERTEX
8
CUT
10
230.5045
20
187.9645
0
VERTEX
8
CUT
10
230.3861
20
187.8553
0
VERTEX
8
CUT
10
228.6239
20
186.1215
0
VERTEX
8
CUT
10
228.3893
20
185.8553
0
VERTEX
8
CUT
10
227.1420
20
184.2195
0
VERTEX
8
CUT
10
226.9505
20
183.9283
0
VERTEX
8
CUT
10
225.7972
20
181.8757
0
VERTEX
8
CUT
10
225.6453
20
181.5534
0
VERTEX
8
CUT
10
224.0725
20
177.4896
0
VERTEX
8
CUT
10
223.9906
20
177.2395
0
VERTEX
8
CUT
10
222.6843
20
172.4058
0
VERTEX
8
CUT
10
222.6231
20
172.2025
0
VERTEX
8
CUT
10
222.6112
20
172.1666
0
VERTEX
8
CUT
10
222.4549
20
171.7719
0
VERTEX
8
CUT
10
222.4390
20
171.7376
0
VERTEX
8
CUT
10
222.3419
20
171.5427
0
VERTEX
8
CUT
10
222.2444
20
171.3207
0
VERTEX
8
CUT
10
222.1689
20
171.0903
0
VERTEX
8
CUT
10
222.1161
20
170.8536
0
VERTEX
8
CUT
10
221.2728
20
165.9736
0
VERTEX
8
CUT
10
221.2320
20
165.7708
0
VERTEX
8
CUT
10
221.2005
20
165.6340
0
VERTEX
8
CUT
10
221.1485
20
165.4338
0
VERTEX
8
CUT
10
220.3273
20
162.5932
0
VERTEX
8
CUT
10
220.2640
20
162.3950
0
VERTEX
8
CUT
10
220.2173
20
162.2617
0
VERTEX
8
CUT
10
220.1431
20
162.0673
0
VERTEX
8
CUT
10
218.7382
20
158.6726
0
VERTEX
8
CUT
10
218.6947
20
158.5717
0
VERTEX
8
CUT
10
218.6641
20
158.5036
0
VERTEX
8
CUT
10
218.6177
20
158.4041
0
VERTEX
8
CUT
10
215.1423
20
151.2275
0
VERTEX
8
CUT
10
215.0557
20
151.0268
0
VERTEX
8
CUT
10
214.1067
20
148.5323
0
VERTEX
8
CUT
10
214.0409
20
148.3352
0
VERTEX
8
CUT
10
213.3570
20
145.9601
0
VERTEX
8
CUT
10
213.2960
20
145.6949
0
VERTEX
8
CUT
10
212.8811
20
143.2989
0
VERTEX
8
CUT
10
212.8508
20
143.0508
0
VERTEX
8
CUT
10
212.6673
20
140.4864
0
VERTEX
8
CUT
10
212.6613
20
140.2598
0
VERTEX
8
CUT
10
212.7138
20
137.5291
0
VERTEX
8
CUT
10
212.7333
20
137.2620
0
VERTEX
8
CUT
10
215.7328
20
113.6591
0
VERTEX
8
CUT
10
215.7519
20
113.4699
0
VERTEX
8
CUT
10
215.7545
20
113.4360
0
VERTEX
8
CUT
10
215.7632
20
113.0865
0
VERTEX
8
CUT
10
215.7388
20
112.7686
0
VERTEX
8
CUT
10
215.6824
20
112.4547
0
VERTEX
8
CUT
10
215.5944
20
112.1482
0
VERTEX
8
CUT
10
215.4759
20
111.8521
0
VERTEX
8
CUT
10
215.3279
20
111.5696
0
VERTEX
8
CUT
10
215.1521
20
111.3035
0
VERTEX
8
CUT
10
214.9503
20
111.0566
0
VERTEX
8
CUT
10
214.7245
20
110.8315
0
VERTEX
8
CUT
10
214.4666
20
110.6218
0
VERTEX
8
CUT
10
214.2808
20
110.4547
0
VERTEX
8
CUT
10
214.1127
20
110.2699
0
VERTEX
8
CUT
10
213.9639
20
110.0693
0
SEQEND
0
POLYLINE
8
CUT
66
1
70
1
10
0.0
20
0.0
30
0.0
0
VERTEX
8
CUT
10
159.1745
20
49.8543
0
VERTEX
8
CUT
10
159.2285
20
49.6211
0
VERTEX
8
CUT
10
159.3045
20
49.3942
0
VERTEX
8
CUT
10
159.4019
20
49.1755
0
VERTEX
8
CUT
10
159.5197
20
48.9672
0
VERTEX
8
CUT
10
159.6158
20
48.8148
0
VERTEX
8
CUT
10
159.7417
20
48.6334
0
VERTEX
8
CUT
10
159.8052
20
48.5573
0
VERTEX
8
CUT
10
159.8332
20
48.5198
0
VERTEX
8
CUT
10
159.8689
20
48.4809
0
VERTEX
8
CUT
10
159.8832
20
48.4638
0
VERTEX
8
CUT
10
159.9020
20
48.4449
0
VERTEX
8
CUT
10
160.0060
20
48.3317
0
VERTEX
8
CUT
10
160.1971
20
48.1623
0
VERTEX
8
CUT
10
160.4045
20
48.0132
0
VERTEX
8
CUT
10
160.6260
20
47.8861
0
VERTEX
8
CUT
10
160.6407
20
47.8786
0
VERTEX
8
CUT
10
160.7141
20
47.8320
0
VERTEX
8
CUT
10
160.9302
20
47.7092
0
VERTEX
8
CUT
10
161.1575
20
47.6085
0
VERTEX
8
CUT
10
161.3936
20
47.5309
0
VERTEX
8
CUT
10
161.6363
20
47.4771
0
VERTEX
8
CUT
10
161.8832
20
47.4477
0
VERTEX
8
CUT
10
162.1317
20
47.4429
0
VERTEX
8
CUT
10
162.3795
20
47.4629
0
VERTEX
8
CUT
10
162.6241
20
47.5073
0
VERTEX
8
CUT
10
162.8630
20
47.5758
0
VERTEX
8
CUT
10
163.0940
20
47.6677
0
VERTEX
8
CUT
10
163.3147
20
47.7821
0
VERTEX
8
CUT
10
163.5229
20
47.9179
0
VERTEX
8
CUT
10
163.7167
20
48.0736
0
VERTEX
8
CUT
10
163.8511
20
48.1932
0
VERTEX
8
CUT
10
164.0211
20
48.3595
0
VERTEX
8
CUT
10
164.1745
20
48.5412
0
VERTEX
8
CUT
10
164.3100
20
48.7367
0
VERTEX
8
CUT
10
164.4262
20
48.9441
0
VERTEX
8
CUT
10
164.5223
20
49.1617
0
VERTEX
8
CUT
10
164.6256
20
49.4295
0
VERTEX
8
CUT
10
164.7051
20
49.6717
0
VERTEX
8
CUT
10
164.7595
20
49.9208
0
VERTEX
8
CUT
10
164.7882
20
50.1741
0
VERTEX
8
CUT
10
164.7910
20
50.4290
0
VERTEX
8
CUT
10
164.7875
20
50.5183
0
VERTEX
8
CUT
10
164.7613
20
50.7929
0
VERTEX
8
CUT
10
164.7050
20
51.0629
0
VERTEX
8
CUT
10
164.6193
20
51.3251
0
VERTEX
8
CUT
10
164.5646
20
51.4655
0
VERTEX
8
CUT
10
164.4620
20
51.6945
0
VERTEX
8
CUT
10
164.3370
20
51.9119
0
VERTEX
8
CUT
10
164.1909
20
52.1158
0
VERTEX
8
CUT
10
164.0900
20
52.2426
0
VERTEX
8
CUT
10
163.9479
20
52.4060
0
VERTEX
8
CUT
10
163.7923
20
52.5564
0
VERTEX
8
CUT
10
163.6242
20
52.6929
0
VERTEX
8
CUT
10
163.4450
20
52.8143
0
VERTEX
8
CUT
10
163.2977
20
52.9050
0
VERTEX
8
CUT
10
163.0792
20
53.0250
0
VERTEX
8
CUT
10
162.8498
20
53.1226
0
VERTEX
8
CUT
10
162.6118
20
53.1969
0
VERTEX
8
CUT
10
162.6051
20
53.1986
0
VERTEX
8
CUT
10
162.3639
20
53.2484
0
VERTEX
8
CUT
10
162.1188
20
53.2742
0
VERTEX
8
CUT
10
161.8725
20
53.2757
0
VERTEX
8
CUT
10
161.6272
20
53.2530
0
VERTEX
8
CUT
10
161.6118
20
53.2508
0
VERTEX
8
CUT
10
161.3834
20
53.2073
0
VERTEX
8
CUT
10
161.1600
20
53.1428
0
VERTEX
8
CUT
10
160.9436
20
53.0578
0
VERTEX
8
CUT
10
160.7360
20
52.9531
0
VERTEX
8
CUT
10
160.6762
20
52.9193
0
VERTEX
8
CUT
10
160.4616
20
52.7834
0
VERTEX
8
CUT
10
160.2620
20
52.6264
0
VERTEX
8
CUT
10
160.0792
20
52.4500
0
VERTEX
8
CUT
10
159.9154
20
52.2560
0
VERTEX
8
CUT
10
159.6692
20
51.9324
0
VERTEX
8
CUT
10
159.5420
20
51.7488
0
VERTEX
8
CUT
10
159.4317
20
51.5546
0
VERTEX
8
CUT
10
159.3392
20
51.3513
0
VERTEX
8
CUT
10
159.2652
20
51.1405
0
VERTEX
8
CUT
10
159.2103
20
50.9240
0
VERTEX
8
CUT
10
159.1860
20
50.8061
0
VERTEX
8
CUT
10
159.1489
20
50.5697
0
VERTEX
8
CUT
10
159.1346
20
50.3308
0
VERTEX
8
CUT
10
159.1431
20
50.0916
0
SEQEND
0
POLYLINE
8
CUT
66
1
70
1
10
0.0
20
0.0
30
0.0
0
VERTEX
8
CUT
10
144.6549
20
66.3907
0
VERTEX
8
CUT
10
144.6412
20
66.1601
0
VERTEX
8
CUT
10
144.6488
20
65.9292
0
VERTEX
8
CUT
10
144.6777
20
65.6999
0
VERTEX
8
CUT
10
144.7277
20
65.4743
0
VERTEX
8
CUT
10
144.9469
20
64.6637
0
VERTEX
8
CUT
10
145.0201
20
64.4368
0
VERTEX
8
CUT
10
145.1145
20
64.2179
0
VERTEX
8
CUT
10
145.2293
20
64.0090
0
VERTEX
8
CUT
10
145.3635
20
63.8120
0
VERTEX
8
CUT
10
145.5159
20
63.6286
0
VERTEX
8
CUT
10
146.1235
20
62.9646
0
VERTEX
8
CUT
10
146.2927
20
62.7966
0
VERTEX
8
CUT
10
146.4772
20
62.6454
0
VERTEX
8
CUT
10
146.6752
20
62.5125
0
VERTEX
8
CUT
10
146.8850
20
62.3990
0
VERTEX
8
CUT
10
147.0395
20
62.3248
0
VERTEX
8
CUT
10
147.2854
20
62.2224
0
VERTEX
8
CUT
10
147.5409
20
62.1467
0
VERTEX
8
CUT
10
147.8029
20
62.0986
0
VERTEX
8
CUT
10
148.1187
20
62.0579
0
VERTEX
8
CUT
10
148.3695
20
62.0384
0
VERTEX
8
CUT
10
148.6209
20
62.0441
0
VERTEX
8
CUT
10
148.8704
20
62.0751
0
VERTEX
8
CUT
10
149.1156
20
62.1310
0
VERTEX
8
CUT
10
149.9306
20
62.3604
0
VERTEX
8
CUT
10
150.1468
20
62.4321
0
VERTEX
8
CUT
10
150.3555
20
62.5231
0
VERTEX
8
CUT
10
150.5551
20
62.6327
0
VERTEX
8
CUT
10
150.7440
20
62.7601
0
VERTEX
8
CUT
10
151.1798
20
63.0839
0
VERTEX
8
CUT
10
151.3830
20
63.2521
0
VERTEX
8
CUT
10
151.5673
20
63.4409
0
VERTEX
8
CUT
10
151.7307
20
63.6480
0
VERTEX
8
CUT
10
151.8713
20
63.8712
0
VERTEX
8
CUT
10
151.9154
20
63.9501
0
VERTEX
8
CUT
10
152.0127
20
64.1433
0
VERTEX
8
CUT
10
152.0929
20
64.3442
0
VERTEX
8
CUT
10
152.1554
20
64.5513
0
VERTEX
8
CUT
10
152.1997
20
64.7630
0
VERTEX
8
CUT
10
152.3418
20
65.6252
0
VERTEX
8
CUT
10
152.3683
20
65.8469
0
VERTEX
8
CUT
10
152.3748
20
66.0701
0
VERTEX
8
CUT
10
152.3614
20
66.2929
0
VERTEX
8
CUT
10
152.3282
20
66.5137
0
VERTEX
8
CUT
10
152.2188
20
67.0708
0
VERTEX
8
CUT
10
152.1577
20
67.3158
0
VERTEX
8
CUT
10
152.0722
20
67.5533
0
VERTEX
8
CUT
10
151.9631
20
67.7810
0
VERTEX
8
CUT
10
151.8317
20
67.9965
0
VERTEX
8
CUT
10
151.5975
20
68.3403
0
VERTEX
8
CUT
10
151.4526
20
68.5323
0
VERTEX
8
CUT
10
151.2900
20
68.7096
0
VERTEX
8
CUT
10
151.1111
20
68.8703
0
VERTEX
8
CUT
10
150.9175
20
69.0132
0
VERTEX
8
CUT
10
150.5466
20
69.2603
0
VERTEX
8
CUT
10
150.3325
20
69.3880
0
VERTEX
8
CUT
10
150.1069
20
69.4937
0
VERTEX
8
CUT
10
149.8718
20
69.5764
0
VERTEX
8
CUT
10
149.6296
20
69.6353
0
VERTEX
8
CUT
10
148.9862
20
69.7583
0
VERTEX
8
CUT
10
148.7043
20
69.7957
0
VERTEX
8
CUT
10
148.4200
20
69.8008
0
VERTEX
8
CUT
10
148.1370
20
69.7736
0
VERTEX
8
CUT
10
147.6523
20
69.6991
0
VERTEX
8
CUT
10
147.4326
20
69.6551
0
VERTEX
8
CUT
10
147.2176
20
69.5917
0
VERTEX
8
CUT
10
147.0092
20
69.5092
0
VERTEX
8
CUT
10
146.8090
20
69.4084
0
VERTEX
8
CUT
10
146.6186
20
69.2901
0
VERTEX
8
CUT
10
146.1830
20
68.9914
0
VERTEX
8
CUT
10
145.9858
20
68.8413
0
VERTEX
8
CUT
10
145.8045
20
68.6725
0
VERTEX
8
CUT
10
145.6408
20
68.4866
0
VERTEX
8
CUT
10
145.3140
20
68.0761
0
VERTEX
8
CUT
10
145.1462
20
67.8381
0
VERTEX
8
CUT
10
145.0072
20
67.5823
0
VERTEX
8
CUT
10
144.8945
20
67.3424
0
VERTEX
8
CUT
10
144.7905
20
67.0848
0
VERTEX
8
CUT
10
144.7157
20
66.8171
0
VERTEX
8
CUT
10
144.6711
20
66.5429
0
SEQEND
0
POLYLINE
8
CUT
66
1
70
1
10
0.0
20
0.0
30
0.0
0
VERTEX
8
CUT
10
123.6699
20
67.4114
0
VERTEX
8
CUT
10
123.6025
20
67.1750
0
VERTEX
8
CUT
10
123.5586
20
66.9330
0
VERTEX
8
CUT
10
123.5386
20
66.6880
0
VERTEX
8
CUT
10
123.5429
20
66.4421
0
VERTEX
8
CUT
10
123.5713
20
66.1978
0
VERTEX
8
CUT
10
123.6235
20
65.9576
0
VERTEX
8
CUT
10
123.6991
20
65.7236
0
VERTEX
8
CUT
10
123.7973
20
65.4981
0
VERTEX
8
CUT
10
123.9172
20
65.2834
0
VERTEX
8
CUT
10
124.0576
20
65.0816
0
VERTEX
8
CUT
10
124.2172
20
64.8945
0
VERTEX
8
CUT
10
124.3943
20
64.7239
0
VERTEX
8
CUT
10
124.5874
20
64.5716
0
VERTEX
8
CUT
10
124.7945
20
64.4390
0
VERTEX
8
CUT
10
125.0136
20
64.3274
0
VERTEX
8
CUT
10
125.2426
20
64.2379
0
VERTEX
8
CUT
10
125.4793
20
64.1713
0
VERTEX
8
CUT
10
125.7214
20
64.1282
0
VERTEX
8
CUT
10
125.9666
20
64.1092
0
VERTEX
8
CUT
10
126.2124
20
64.1143
0
VERTEX
8
CUT
10
126.4566
20
64.1436
0
VERTEX
8
CUT
10
126.6967
20
64.1967
0
VERTEX
8
CUT
10
126.9304
20
64.2731
0
VERTEX
8
CUT
10
127.1554
20
64.3721
0
VERTEX
8
CUT
10
127.3697
20
64.4928
0
VERTEX
8
CUT
10
127.5711
20
64.6339
0
VERTEX
8
CUT
10
127.7576
20
64.7941
0
VERTEX
8
CUT
10
129.9240
20
66.8485
0
VERTEX
8
CUT
10
129.9801
20
66.9006
0
VERTEX
8
CUT
10
130.0186
20
66.9357
0
VERTEX
8
CUT
10
130.0758
20
66.9867
0
VERTEX
8
CUT
10
134.4728
20
70.8277
0
VERTEX
8
CUT
10
134.6010
20
70.9348
0
VERTEX
8
CUT
10
134.6898
20
71.0056
0
VERTEX
8
CUT
10
134.8227
20
71.1069
0
VERTEX
8
CUT
10
138.6717
20
73.9067
0
VERTEX
8
CUT
10
138.8123
20
74.0042
0
VERTEX
8
CUT
10
138.9093
20
74.0682
0
VERTEX
8
CUT
10
139.0541
20
74.1591
0
VERTEX
8
CUT
10
143.5236
20
76.8240
0
VERTEX
8
CUT
10
143.6974
20
76.9214
0
VERTEX
8
CUT
10
143.8172
20
76.9845
0
VERTEX
8
CUT
10
143.9960
20
77.0726
0
VERTEX
8
CUT
10
148.6559
20
79.2173
0
VERTEX
8
CUT
10
148.8710
20
79.3292
0
VERTEX
8
CUT
10
149.0743
20
79.4615
0
VERTEX
8
CUT
10
149.2638
20
79.6129
0
VERTEX
8
CUT
10
149.4377
20
79.7819
0
VERTEX
8
CUT
10
149.5945
20
79.9669
0
VERTEX
8
CUT
10
149.7325
20
80.1663
0
VERTEX
8
CUT
10
149.8507
20
80.3781
0
VERTEX
8
CUT
10
149.9477
20
80.6004
0
VERTEX
8
CUT
10
150.0227
20
80.8310
0
VERTEX
8
CUT
10
150.0751
20
81.0678
0
VERTEX
8
CUT
10
150.1042
20
81.3086
0
VERTEX
8
CUT
10
150.1099
20
81.5510
0
VERTEX
8
CUT
10
150.0920
20
81.7929
0
VERTEX
8
CUT
10
150.0509
20
82.0319
0
VERTEX
8
CUT
10
149.9867
20
82.2658
0
VERTEX
8
CUT
10
149.9002
20
82.4924
0
VERTEX
8
CUT
10
149.7921
20
82.7095
0
VERTEX
8
CUT
10
149.6635
20
82.9151
0
VERTEX
8
CUT
10
149.5156
20
83.1073
0
VERTEX
8
CUT
10
149.3498
20
83.2843
0
VERTEX
8
CUT
10
149.1676
20
83.4443
0
VERTEX
8
CUT
10
148.9707
20
83.5860
0
VERTEX
8
CUT
10
148.7611
20
83.7079
0
VERTEX
8
CUT
10
148.5406
20
83.8089
0
VERTEX
8
CUT
10
148.3113
20
83.8881
0
VERTEX
8
CUT
10
148.0755
20
83.9447
0
VERTEX
8
CUT
10
147.8353
20
83.9782
0
VERTEX
8
CUT
10
147.5930
20
83.9882
0
VERTEX
8
CUT
10
139.0227
20
83.9276
0
VERTEX
8
CUT
10
138.7710
20
83.9132
0
VERTEX
8
CUT
10
138.5221
20
83.8734
0
VERTEX
8
CUT
10
138.2785
20
83.8088
0
VERTEX
8
CUT
10
138.0426
20
83.7200
0
VERTEX
8
CUT
10
137.8169
20
83.6079
0
VERTEX
8
CUT
10
137.6036
20
83.4736
0
VERTEX
8
CUT
10
137.4049
20
83.3186
0
VERTEX
8
CUT
10
137.0905
20
83.0466
0
VERTEX
8
CUT
10
136.8407
20
82.8708
0
VERTEX
8
CUT
10
136.5733
20
82.7193
0
VERTEX
8
CUT
10
136.2924
20
82.5946
0
VERTEX
8
CUT
10
136.0007
20
82.4979
0
VERTEX
8
CUT
10
135.7009
20
82.4302
0
VERTEX
8
CUT
10
135.3960
20
82.3920
0
VERTEX
8
CUT
10
135.2718
20
82.3887
0
VERTEX
8
CUT
10
135.0207
20
82.3693
0
VERTEX
8
CUT
10
134.7730
20
82.3248
0
VERTEX
8
CUT
10
134.5309
20
82.2555
0
VERTEX
8
CUT
10
134.2970
20
82.1623
0
VERTEX
8
CUT
10
134.0737
20
82.0460
0
VERTEX
8
CUT
10
133.8633
20
81.9079
0
VERTEX
8
CUT
10
133.6678
20
81.7492
0
VERTEX
8
CUT
10
133.4892
20
81.5718
0
VERTEX
8
CUT
10
133.3294
20
81.3772
0
VERTEX
8
CUT
10
133.1899
20
81.1676
0
VERTEX
8
CUT
10
133.0723
20
80.9450
0
VERTEX
8
CUT
10
132.9776
20
80.7117
0
VERTEX
8
CUT
10
132.9069
20
80.4701
0
VERTEX
8
CUT
10
132.8609
20
80.2226
0
VERTEX
8
CUT
10
132.8399
20
79.9717
0
VERTEX
8
CUT
10
132.8443
20
79.7200
0
VERTEX
8
CUT
10
132.8522
20
79.6039
0
VERTEX
8
CUT
10
132.8435
20
79.3002
0
VERTEX
8
CUT
10
132.8055
20
78.9987
0
VERTEX
8
CUT
10
132.7386
20
78.7023
0
VERTEX
8
CUT
10
132.6433
20
78.4137
0
VERTEX
8
CUT
10
132.5207
20
78.1357
0
VERTEX
8
CUT
10
132.3718
20
77.8708
0
VERTEX
8
CUT
10
132.1814
20
77.5976
0
VERTEX
8
CUT
10
132.1616
20
77.5719
0
VERTEX
8
CUT
10
132.0475
20
77.4312
0
VERTEX
8
CUT
10
126.7139
20
71.1676
0
VERTEX
8
CUT
10
126.6952
20
71.1458
0
VERTEX
8
CUT
10
126.6824
20
71.1311
0
VERTEX
8
CUT
10
126.6635
20
71.1094
0
VERTEX
8
CUT
10
124.1590
20
68.2580
0
VERTEX
8
CUT
10
124.0060
20
68.0655
0
VERTEX
8
CUT
10
123.8727
20
67.8588
0
VERTEX
8
CUT
10
123.7603
20
67.6401
0
SEQEND
0
POLYLINE
8
CUT
66
1
70
1
10
0.0
20
0.0
30
0.0
0
VERTEX
8
CUT
10
133.2568
20
118.3523
0
VERTEX
8
CUT
10
133.0616
20
118.2118
0
VERTEX
8
CUT
10
132.8808
20
118.0532
0
VERTEX
8
CUT
10
132.7160
20
117.8779
0
VERTEX
8
CUT
10
132.5689
20
117.6877
0
VERTEX
8
CUT
10
132.4407
20
117.4841
0
VERTEX
8
CUT
10
132.3327
20
117.2692
0
VERTEX
8
CUT
10
132.2459
20
117.0449
0
VERTEX
8
CUT
10
132.1810
20
116.8133
0
VERTEX
8
CUT
10
132.1386
20
116.5765
0
VERTEX
8
CUT
10
132.1192
20
116.3367
0
VERTEX
8
CUT
10
132.1230
20
116.0962
0
VERTEX
8
CUT
10
132.1498
20
115.8572
0
VERTEX
8
CUT
10
132.1995
20
115.6219
0
VERTEX
8
CUT
10
132.2716
20
115.3924
0
VERTEX
8
CUT
10
132.3654
20
115.1709
0
VERTEX
8
CUT
10
132.4800
20
114.9594
0
VERTEX
8
CUT
10
132.6144
20
114.7600
0
VERTEX
8
CUT
10
132.7674
20
114.5744
0
VERTEX
8
CUT
10
132.9375
20
114.4043
0
VERTEX
8
CUT
10
133.1232
20
114.2514
0
VERTEX
8
CUT
10
133.8964
20
113.6747
0
VERTEX
8
CUT
10
134.1156
20
113.5285
0
VERTEX
8
CUT
10
134.3489
20
113.4062
0
VERTEX
8
CUT
10
134.8693
20
113.1675
0
VERTEX
8
CUT
10
135.1188
20
113.0174
0
VERTEX
8
CUT
10
135.3053
20
112.9157
0
VERTEX
8
CUT
10
135.4998
20
112.8302
0
VERTEX
8
CUT
10
136.1985
20
112.5579
0
VERTEX
8
CUT
10
136.7413
20
112.3089
0
VERTEX
8
CUT
10
136.9316
20
112.2309
0
VERTEX
8
CUT
10
137.1278
20
112.1688
0
VERTEX
8
CUT
10
137.3283
20
112.1231
0
VERTEX
8
CUT
10
137.6158
20
112.0699
0
VERTEX
8
CUT
10
138.4346
20
111.8829
0
VERTEX
8
CUT
10
138.7109
20
111.8360
0
VERTEX
8
CUT
10
138.9523
20
111.8224
0
VERTEX
8
CUT
10
139.8306
20
111.6597
0
VERTEX
8
CUT
10
140.0548
20
111.6287
0
VERTEX
8
CUT
10
140.2808
20
111.6180
0
VERTEX
8
CUT
10
141.4603
20
111.6156
0
VERTEX
8
CUT
10
141.7683
20
111.6341
0
VERTEX
8
CUT
10
143.1368
20
111.8012
0
VERTEX
8
CUT
10
143.4281
20
111.8544
0
VERTEX
8
CUT
10
143.9565
20
111.9838
0
VERTEX
8
CUT
10
144.1955
20
112.0551
0
VERTEX
8
CUT
10
144.4262
20
112.1498
0
VERTEX
8
CUT
10
144.6463
20
112.2670
0
VERTEX
8
CUT
10
144.8536
20
112.4056
0
VERTEX
8
CUT
10
145.0460
20
112.5642
0
VERTEX
8
CUT
10
145.2218
20
112.7412
0
VERTEX
8
CUT
10
145.3790
20
112.9347
0
VERTEX
8
CUT
10
145.5161
20
113.1430
0
VERTEX
8
CUT
10
145.6319
20
113.3639
0
VERTEX
8
CUT
10
145.7250
20
113.5952
0
VERTEX
8
CUT
10
145.7946
20
113.8347
0
VERTEX
8
CUT
10
145.8400
20
114.0799
0
VERTEX
8
CUT
10
145.8608
20
114.3284
0
VERTEX
8
CUT
10
145.8567
20
114.5777
0
VERTEX
8
CUT
10
145.8278
20
114.8254
0
VERTEX
8
CUT
10
145.7744
20
115.0690
0
VERTEX
8
CUT
10
145.6969
20
115.3061
0
VERTEX
8
CUT
10
145.5962
20
115.5342
0
VERTEX
8
CUT
10
145.4733
20
115.7512
0
VERTEX
8
CUT
10
145.3294
20
115.9548
0
VERTEX
8
CUT
10
145.1659
20
116.1432
0
VERTEX
8
CUT
10
144.9845
20
116.3142
0
VERTEX
8
CUT
10
144.7869
20
116.4664
0
VERTEX
8
CUT
10
144.7533
20
116.4897
0
VERTEX
8
CUT
10
144.5152
20
116.6927
0
VERTEX
8
CUT
10
144.2984
20
116.9183
0
VERTEX
8
CUT
10
144.1051
20
117.1644
0
VERTEX
8
CUT
10
143.9373
20
117.4284
0
VERTEX
8
CUT
10
143.7965
20
117.7078
0
VERTEX
8
CUT
10
143.6842
20
117.9999
0
VERTEX
8
CUT
10
143.5935
20
118.3306
0
VERTEX
8
CUT
10
143.5863
20
118.3631
0
VERTEX
8
CUT
10
143.5505
20
118.5463
0
VERTEX
8
CUT
10
143.3205
20
119.9009
0
VERTEX
8
CUT
10
143.2641
20
120.1533
0
VERTEX
8
CUT
10
143.1819
20
120.3986
0
VERTEX
8
CUT
10
142.4430
20
122.2750
0
VERTEX
8
CUT
10
142.3629
20
122.4567
0
VERTEX
8
CUT
10
142.2688
20
122.6315
0
VERTEX
8
CUT
10
141.6335
20
123.7057
0
VERTEX
8
CUT
10
141.5259
20
123.8722
0
VERTEX
8
CUT
10
141.4055
20
124.0296
0
VERTEX
8
CUT
10
141.1974
20
124.2804
0
VERTEX
8
CUT
10
141.0309
20
124.4620
0
VERTEX
8
CUT
10
140.8474
20
124.6264
0
VERTEX
8
CUT
10
140.6485
20
124.7719
0
VERTEX
8
CUT
10
140.4363
20
124.8971
0
VERTEX
8
CUT
10
140.2128
20
125.0008
0
VERTEX
8
CUT
10
139.9802
20
125.0820
0
VERTEX
8
CUT
10
139.7407
20
125.1399
0
VERTEX
8
CUT
10
139.4967
20
125.1740
0
VERTEX
8
CUT
10
139.2505
20
125.1839
0
VERTEX
8
CUT
10
139.0045
20
125.1695
0
VERTEX
8
CUT
10
138.7612
20
125.1309
0
VERTEX
8
CUT
10
138.5228
20
125.0686
0
VERTEX
8
CUT
10
138.2917
20
124.9831
0
VERTEX
8
CUT
10
138.0702
20
124.8753
0
VERTEX
8
CUT
10
137.8603
20
124.7462
0
VERTEX
8
CUT
10
137.6642
20
124.5971
0
VERTEX
8
CUT
10
137.4837
20
124.4294
0
VERTEX
8
CUT
10
137.3205
20
124.2447
0
VERTEX
8
CUT
10
137.1764
20
124.0449
0
VERTEX
8
CUT
10
137.0526
20
123.8318
0
VERTEX
8
CUT
10
136.9504
20
123.6077
0
VERTEX
8
CUT
10
136.8708
20
123.3745
0
VERTEX
8
CUT
10
136.8145
20
123.1346
0
VERTEX
8
CUT
10
136.7820
20
122.8904
0
VERTEX
8
CUT
10
136.7738
20
122.6441
0
VERTEX
8
CUT
10
136.7848
20
121.9544
0
VERTEX
8
CUT
10
136.7831
20
121.7675
0
VERTEX
8
CUT
10
136.7820
20
121.7341
0
VERTEX
8
CUT
10
136.7533
20
121.3918
0
VERTEX
8
CUT
10
136.6961
20
121.0836
0
VERTEX
8
CUT
10
136.6085
20
120.7826
0
VERTEX
8
CUT
10
136.4914
20
120.4919
0
VERTEX
8
CUT
10
136.3459
20
120.2143
0
VERTEX
8
CUT
10
136.1735
20
119.9525
0
VERTEX
8
CUT
10
135.9759
20
119.7092
0
VERTEX
8
CUT
10
135.7551
20
119.4868
0
VERTEX
8
CUT
10
135.5132
20
119.2874
0
VERTEX
8
CUT
10
135.2527
20
119.1132
0
VERTEX
8
CUT
10
134.9761
20
118.9657
0
VERTEX
8
CUT
10
134.6863
20
118.8465
0
VERTEX
8
CUT
10
134.3860
20
118.7567
0
VERTEX
8
CUT
10
134.1440
20
118.7100
0
VERTEX
8
CUT
10
133.9103
20
118.6531
0
VERTEX
8
CUT
10
133.6831
20
118.5740
0
VERTEX
8
CUT
10
133.4646
20
118.4734
0
SEQEND
0
POLYLINE
8
CUT
66
1
70
1
10
0.0
20
0.0
30
0.0
0
VERTEX
8
CUT
10
50.8091
20
170.8984
0
VERTEX
8
CUT
10
50.8638
20
170.6930
0
VERTEX
8
CUT
10
52.5132
20
165.4122
0
VERTEX
8
CUT
10
52.5937
20
165.1915
0
VERTEX
8
CUT
10
61.4327
20
144.0948
0
VERTEX
8
CUT
10
61.4419
20
144.0732
0
VERTEX
8
CUT
10
61.4436
20
144.0693
0
VERTEX
8
CUT
10
61.4845
20
143.9792
0
VERTEX
8
CUT
10
65.5025
20
135.5701
0
VERTEX
8
CUT
10
65.6033
20
135.3804
0
VERTEX
8
CUT
10
68.1069
20
131.1241
0
VERTEX
8
CUT
10
68.2191
20
130.9503
0
VERTEX
8
CUT
10
70.8533
20
127.2170
0
VERTEX
8
CUT
10
71.0481
20
126.9745
0
VERTEX
8
CUT
10
75.7203
20
121.8471
0
VERTEX
8
CUT
10
75.7739
20
121.7901
0
VERTEX
8
CUT
10
87.0553
20
110.1627
0
VERTEX
8
CUT
10
87.1852
20
110.0217
0
VERTEX
8
CUT
10
87.2711
20
109.9236
0
VERTEX
8
CUT
10
87.3937
20
109.7761
0
VERTEX
8
CUT
10
89.5719
20
107.0154
0
VERTEX
8
CUT
10
89.6480
20
106.8975
0
VERTEX
8
CUT
10
90.3811
20
105.8761
0
VERTEX
8
CUT
10
92.1843
20
102.8726
0
VERTEX
8
CUT
10
92.2837
20
102.6963
0
VERTEX
8
CUT
10
92.3480
20
102.5748
0
VERTEX
8
CUT
10
92.4378
20
102.3934
0
VERTEX
8
CUT
10
95.2284
20
96.3517
0
VERTEX
8
CUT
10
95.3128
20
96.1544
0
VERTEX
8
CUT
10
95.3662
20
96.0188
0
VERTEX
8
CUT
10
95.4392
20
95.8170
0
VERTEX
8
CUT
10
96.9135
20
91.3412
0
VERTEX
8
CUT
10
96.9561
20
91.2031
0
VERTEX
8
CUT
10
96.9832
20
91.1087
0
VERTEX
8
CUT
10
97.0204
20
90.9691
0
VERTEX
8
CUT
10
98.2903
20
85.8053
0
VERTEX
8
CUT
10
98.3150
20
85.6980
0
VERTEX
8
CUT
10
98.3307
20
85.6248
0
VERTEX
8
CUT
10
98.3523
20
85.5168
0
VERTEX
8
CUT
10
100.9398
20
71.4874
0
VERTEX
8
CUT
10
100.9465
20
71.4523
0
VERTEX
8
CUT
10
100.9477
20
71.4460
0
VERTEX
8
CUT
10
100.9816
20
71.2993
0
VERTEX
8
CUT
10
101.9660
20
67.5519
0
VERTEX
8
CUT
10
102.0413
20
67.3143
0
VERTEX
8
CUT
10
102.1398
20
67.0854
0
VERTEX
8
CUT
10
102.2607
20
66.8674
0
VERTEX
8
CUT
10
102.4026
20
66.6625
0
VERTEX
8
CUT
10
102.5643
20
66.4728
0
VERTEX
8
CUT
10
102.7440
20
66.3001
0
VERTEX
8
CUT
10
102.9401
20
66.1462
0
VERTEX
8
CUT
10
103.1505
20
66.0126
0
VERTEX
8
CUT
10
103.3731
20
65.9006
0
VERTEX
8
CUT
10
103.6058
20
65.8113
0
VERTEX
8
CUT
10
103.8463
20
65.7456
0
VERTEX
8
CUT
10
104.0920
20
65.7042
0
VERTEX
8
CUT
10
104.3407
20
65.6875
0
VERTEX
8
CUT
10
104.5898
20
65.6956
0
VERTEX
8
CUT
10
104.8369
20
65.7285
0
VERTEX
8
CUT
10
105.0795
20
65.7858
0
VERTEX
8
CUT
10
105.3151
20
65.8670
0
VERTEX
8
CUT
10
105.5415
20
65.9712
0
VERTEX
8
CUT
10
105.7564
20
66.0975
0
VERTEX
8
CUT
10
105.9576
20
66.2445
0
VERTEX
8
CUT
10
106.1433
20
66.4109
0
VERTEX
8
CUT
10
106.3114
20
66.5949
0
VERTEX
8
CUT
10
106.4603
20
66.7947
0
VERTEX
8
CUT
10
106.5887
20
67.0084
0
VERTEX
8
CUT
10
106.6951
20
67.2338
0
VERTEX
8
CUT
10
106.7785
20
67.4687
0
VERTEX
8
CUT
10
106.8381
20
67.7107
0
VERTEX
8
CUT
10
106.8734
20
67.9574
0
VERTEX
8
CUT
10
106.8839
20
68.2064
0
VERTEX
8
CUT
10
106.8604
20
71.2494
0
VERTEX
8
CUT
10
106.8606
20
71.3321
0
VERTEX
8
CUT
10
106.8614
20
71.3884
0
VERTEX
8
CUT
10
106.8635
20
71.4711
0
VERTEX
8
CUT
10
107.4095
20
86.4672
0
VERTEX
8
CUT
10
107.4025
20
86.7657
0
VERTEX
8
CUT
10
107.0537
20
90.9535
0
VERTEX
8
CUT
10
107.0059
20
91.2740
0
VERTEX
8
CUT
10
106.3392
20
94.3596
0
VERTEX
8
CUT
10
106.2860
20
94.5638
0
VERTEX
8
CUT
10
106.2157
20
94.7628
0
VERTEX
8
CUT
10
105.8393
20
95.7008
0
VERTEX
8
CUT
10
105.7486
20
95.9009
0
VERTEX
8
CUT
10
105.6407
20
96.0922
0
VERTEX
8
CUT
10
105.5164
20
96.2733
0
VERTEX
8
CUT
10
105.0409
20
96.9049
0
VERTEX
8
CUT
10
104.9068
20
97.0683
0
VERTEX
8
CUT
10
104.7593
20
97.2197
0
VERTEX
8
CUT
10
98.8911
20
102.7566
0
VERTEX
8
CUT
10
98.7616
20
102.8849
0
VERTEX
8
CUT
10
98.6758
20
102.9741
0
VERTEX
8
CUT
10
98.5526
20
103.1085
0
VERTEX
8
CUT
10
97.1402
20
104.7281
0
VERTEX
8
CUT
10
97.0207
20
104.8722
0
VERTEX
8
CUT
10
97.0000
20
104.8985
0
VERTEX
8
CUT
10
96.8008
20
105.1791
0
VERTEX
8
CUT
10
96.6455
20
105.4520
0
VERTEX
8
CUT
10
96.5182
20
105.7390
0
VERTEX
8
CUT
10
96.4201
20
106.0372
0
VERTEX
8
CUT
10
96.3523
20
106.3438
0
VERTEX
8
CUT
10
96.3153
20
106.6556
0
VERTEX
8
CUT
10
96.3097
20
106.9695
0
VERTEX
8
CUT
10
96.3354
20
107.2824
0
VERTEX
8
CUT
10
96.3921
20
107.5912
0
VERTEX
8
CUT
10
96.4794
20
107.8928
0
VERTEX
8
CUT
10
96.5963
20
108.1842
0
VERTEX
8
CUT
10
96.7416
20
108.4624
0
VERTEX
8
CUT
10
96.9140
20
108.7248
0
VERTEX
8
CUT
10
97.1118
20
108.9687
0
VERTEX
8
CUT
10
97.3328
20
109.1917
0
VERTEX
8
CUT
10
97.5750
20
109.3915
0
VERTEX
8
CUT
10
97.8359
20
109.5662
0
VERTEX
8
CUT
10
98.1129
20
109.7140
0
VERTEX
8
CUT
10
98.4032
20
109.8334
0
VERTEX
8
CUT
10
98.7041
20
109.9232
0
VERTEX
8
CUT
10
99.0124
20
109.9827
0
VERTEX
8
CUT
10
99.3250
20
110.0110
0
VERTEX
8
CUT
10
99.6692
20
110.0078
0
VERTEX
8
CUT
10
99.7026
20
110.0058
0
VERTEX
8
CUT
10
99.8892
20
109.9901
0
VERTEX
8
CUT
10
99.9535
20
109.9830
0
VERTEX
8
CUT
10
100.2590
20
109.9683
0
VERTEX
8
CUT
10
100.5640
20
109.9911
0
VERTEX
8
CUT
10
100.6496
20
110.0028
0
VERTEX
8
CUT
10
100.8747
20
110.0441
0
VERTEX
8
CUT
10
101.0951
20
110.1058
0
VERTEX
8
CUT
10
101.3090
20
110.1874
0
VERTEX
8
CUT
10
101.5145
20
110.2882
0
VERTEX
8
CUT
10
101.7099
20
110.4074
0
VERTEX
8
CUT
10
101.8935
20
110.5440
0
VERTEX
8
CUT
10
102.0640
20
110.6968
0
VERTEX
8
CUT
10
102.8609
20
111.4800
0
VERTEX
8
CUT
10
103.0244
20
111.6570
0
VERTEX
8
CUT
10
103.1701
20
111.8489
0
VERTEX
8
CUT
10
103.2967
20
112.0539
0
VERTEX
8
CUT
10
103.5486
20
112.5098
0
VERTEX
8
CUT
10
103.6755
20
112.7752
0
VERTEX
8
CUT
10
103.7703
20
113.0536
0
VERTEX
8
CUT
10
103.8945
20
113.5036
0
VERTEX
8
CUT
10
103.9448
20
113.7243
0
VERTEX
8
CUT
10
103.9750
20
113.9487
0
VERTEX
8
CUT
10
103.9847
20
114.1749
0
VERTEX
8
CUT
10
103.9832
20
114.7886
0
VERTEX
8
CUT
10
103.9678
20
115.0599
0
VERTEX
8
CUT
10
103.9230
20
115.3280
0
VERTEX
8
CUT
10
103.7629
20
116.0439
0
VERTEX
8
CUT
10
103.7035
20
116.2624
0
VERTEX
8
CUT
10
103.6247
20
116.4746
0
VERTEX
8
CUT
10
103.2853
20
117.2747
0
VERTEX
8
CUT
10
103.1544
20
117.5387
0
VERTEX
8
CUT
10
102.9935
20
117.7855
0
VERTEX
8
CUT
10
102.1133
20
118.9750
0
VERTEX
8
CUT
10
101.9601
20
119.1624
0
VERTEX
8
CUT
10
101.7894
20
119.3341
0
VERTEX
8
CUT
10
101.6030
20
119.4884
0
VERTEX
8
CUT
10
101.4025
20
119.6241
0
VERTEX
8
CUT
10
101.1898
20
119.7397
0
VERTEX
8
CUT
10
100.9670
20
119.8342
0
VERTEX
8
CUT
10
100.7360
20
119.9067
0
VERTEX
8
CUT
10
100.4991
20
119.9565
0
VERTEX
8
CUT
10
100.2585
20
119.9832
0
VERTEX
8
CUT
10
100.0165
20
119.9864
0
VERTEX
8
CUT
10
99.7753
20
119.9663
0
VERTEX
8
CUT
10
99.5371
20
119.9229
0
VERTEX
8
CUT
10
99.3043
20
119.8567
0
VERTEX
8
CUT
10
99.0790
20
119.7683
0
VERTEX
8
CUT
10
98.8632
20
119.6585
0
VERTEX
8
CUT
10
98.6591
20
119.5284
0
VERTEX
8
CUT
10
98.4686
20
119.3791
0
VERTEX
8
CUT
10
98.2933
20
119.2122
0
VERTEX
8
CUT
10
98.1351
20
119.0290
0
VERTEX
8
CUT
10
97.9953
20
118.8314
0
VERTEX
8
CUT
10
97.8752
20
118.6212
0
VERTEX
8
CUT
10
97.7517
20
118.3784
0
VERTEX
8
CUT
10
97.5868
20
118.1199
0
VERTEX
8
CUT
10
97.3974
20
117.8787
0
VERTEX
8
CUT
10
97.1855
20
117.6571
0
VERTEX
8
CUT
10
96.9530
20
117.4572
0
VERTEX
8
CUT
10
96.7021
20
117.2809
0
VERTEX
8
CUT
10
96.4353
20
117.1298
0
VERTEX
8
CUT
10
96.1550
20
117.0055
0
VERTEX
8
CUT
10
95.8639
20
116.9090
0
VERTEX
8
CUT
10
95.5649
20
116.8414
0
VERTEX
8
CUT
10
95.2606
20
116.8032
0
VERTEX
8
CUT
10
94.9541
20
116.7948
0
VERTEX
8
CUT
10
94.6482
20
116.8163
0
VERTEX
8
CUT
10
94.3459
20
116.8675
0
VERTEX
8
CUT
10
94.0500
20
116.9479
0
VERTEX
8
CUT
10
93.7633
20
117.0567
0
VERTEX
8
CUT
10
93.4886
20
117.1929
0
VERTEX
8
CUT
10
93.2284
20
117.3552
0
VERTEX
8
CUT
10
92.9853
20
117.5421
0
VERTEX
8
CUT
10
92.7616
20
117.7518
0
VERTEX
8
CUT
10
92.5399
20
118.0044
0
VERTEX
8
CUT
10
92.5196
20
118.0300
0
VERTEX
8
CUT
10
92.4093
20
118.1759
0
VERTEX
8
CUT
10
87.4825
20
125.0375
0
VERTEX
8
CUT
10
87.3991
20
125.1586
0
VERTEX
8
CUT
10
87.3440
20
125.2420
0
VERTEX
8
CUT
10
87.2654
20
125.3663
0
VERTEX
8
CUT
10
85.7281
20
127.9060
0
VERTEX
8
CUT
10
85.6367
20
128.0659
0
VERTEX
8
CUT
10
85.6210
20
128.0949
0
VERTEX
8
CUT
10
85.4750
20
128.4003
0
VERTEX
8
CUT
10
85.3697
20
128.6907
0
VERTEX
8
CUT
10
85.2934
20
128.9899
0
VERTEX
8
CUT
10
85.2469
20
129.2953
0
VERTEX
8
CUT
10
85.2305
20
129.6037
0
VERTEX
8
CUT
10
85.2445
20
129.9122
0
VERTEX
8
CUT
10
85.2886
20
130.2179
0
VERTEX
8
CUT
10
85.3626
20
130.5178
0
VERTEX
8
CUT
10
85.4656
20
130.8090
0
VERTEX
8
CUT
10
85.5966
20
131.0887
0
VERTEX
8
CUT
10
85.7545
20
131.3541
0
VERTEX
8
CUT
10
85.9376
20
131.6028
0
VERTEX
8
CUT
10
86.1443
20
131.8324
0
VERTEX
8
CUT
10
86.3725
20
132.0405
0
VERTEX
8
CUT
10
86.6930
20
132.2798
0
VERTEX
8
CUT
10
86.6918
20
132.2814
0
VERTEX
8
CUT
10
86.8075
20
132.3678
0
VERTEX
8
CUT
10
86.9895
20
132.5341
0
VERTEX
8
CUT
10
87.1543
20
132.7176
0
VERTEX
8
CUT
10
87.3003
20
132.9163
0
VERTEX
8
CUT
10
87.3147
20
132.9408
0
VERTEX
8
CUT
10
87.3943
20
132.9074
0
VERTEX
8
CUT
10
87.6328
20
132.8342
0
VERTEX
8
CUT
10
87.8775
20
132.7851
0
VERTEX
8
CUT
10
88.1259
20
132.7607
0
VERTEX
8
CUT
10
88.3582
20
132.7611
0
VERTEX
8
CUT
10
88.6755
20
132.7464
0
VERTEX
8
CUT
10
88.9811
20
132.7018
0
VERTEX
8
CUT
10
89.3097
20
132.6203
0
VERTEX
8
CUT
10
89.3412
20
132.6109
0
VERTEX
8
CUT
10
89.5163
20
132.5535
0
VERTEX
8
CUT
10
89.6155
20
132.5182
0
VERTEX
8
CUT
10
89.8532
20
132.4469
0
VERTEX
8
CUT
10
90.0967
20
132.3995
0
VERTEX
8
CUT
10
90.3437
20
132.3764
0
VERTEX
8
CUT
10
93.7616
20
132.2280
0
VERTEX
8
CUT
10
93.9933
20
132.2287
0
VERTEX
8
CUT
10
94.2240
20
132.2509
0
VERTEX
8
CUT
10
96.7503
20
132.6122
0
VERTEX
8
CUT
10
97.0191
20
132.6658
0
VERTEX
8
CUT
10
97.2805
20
132.7486
0
VERTEX
8
CUT
10
99.1555
20
133.4575
0
VERTEX
8
CUT
10
99.4867
20
133.6112
0
VERTEX
8
CUT
10
100.4536
20
134.1490
0
VERTEX
8
CUT
10
100.6205
20
134.2506
0
VERTEX
8
CUT
10
100.7790
20
134.3649
0
VERTEX
8
CUT
10
101.2936
20
134.7676
0
VERTEX
8
CUT
10
101.4790
20
134.9279
0
VERTEX
8
CUT
10
101.6478
20
135.1056
0
VERTEX
8
CUT
10
101.7984
20
135.2990
0
VERTEX
8
CUT
10
101.9293
20
135.5061
0
VERTEX
8
CUT
10
102.0393
20
135.7251
0
VERTEX
8
CUT
10
102.1273
20
135.9538
0
VERTEX
8
CUT
10
102.1925
20
136.1900
0
VERTEX
8
CUT
10
102.2343
20
136.4315
0
VERTEX
8
CUT
10
102.2523
20
136.6759
0
VERTEX
8
CUT
10
102.2462
20
136.9209
0
VERTEX
8
CUT
10
102.2161
20
137.1641
0
VERTEX
8
CUT
10
102.1624
20
137.4032
0
VERTEX
8
CUT
10
102.0856
20
137.6359
0
VERTEX
8
CUT
10
101.9863
20
137.8600
0
VERTEX
8
CUT
10
101.8656
20
138.0733
0
VERTEX
8
CUT
10
101.7245
20
138.2737
0
VERTEX
8
CUT
10
101.5645
20
138.4593
0
VERTEX
8
CUT
10
101.3872
20
138.6284
0
VERTEX
8
CUT
10
101.1941
20
138.7793
0
VERTEX
8
CUT
10
100.9871
20
138.9106
0
VERTEX
8
CUT
10
100.7683
20
139.0210
0
VERTEX
8
CUT
10
98.0043
20
140.2495
0
VERTEX
8
CUT
10
97.8577
20
140.3184
0
VERTEX
8
CUT
10
97.8318
20
140.3313
0
VERTEX
8
CUT
10
97.5482
20
140.4879
0
VERTEX
8
CUT
10
97.5235
20
140.5030
0
VERTEX
8
CUT
10
97.3871
20
140.5904
0
VERTEX
8
CUT
10
96.3262
20
141.3023
0
VERTEX
8
CUT
10
96.1676
20
141.4148
0
VERTEX
8
CUT
10
96.1398
20
141.4357
0
VERTEX
8
CUT
10
95.8411
20
141.6846
0
VERTEX
8
CUT
10
95.8156
20
141.7082
0
VERTEX
8
CUT
10
95.6763
20
141.8440
0
VERTEX
8
CUT
10
94.0250
20
143.5395
0
VERTEX
8
CUT
10
93.8908
20
143.6840
0
VERTEX
8
CUT
10
93.7118
20
143.8585
0
VERTEX
8
CUT
10
93.5163
20
144.0142
0
VERTEX
8
CUT
10
93.3063
20
144.1496
0
VERTEX
8
CUT
10
93.0838
20
144.2634
0
VERTEX
8
CUT
10
92.8510
20
144.3543
0
VERTEX
8
CUT
10
92.6103
20
144.4216
0
VERTEX
8
CUT
10
92.3641
20
144.4645
0
VERTEX
8
CUT
10
92.1149
20
144.4826
0
VERTEX
8
CUT
10
91.8650
20
144.4758
0
VERTEX
8
CUT
10
91.6172
20
144.4440
0
VERTEX
8
CUT
10
91.3737
20
144.3877
0
VERTEX
8
CUT
10
91.1370
20
144.3073
0
VERTEX
8
CUT
10
90.9096
20
144.2037
0
VERTEX
8
CUT
10
90.6937
20
144.0779
0
VERTEX
8
CUT
10
90.4914
20
143.9312
0
VERTEX
8
CUT
10
90.3047
20
143.7650
0
VERTEX
8
CUT
10
90.1356
20
143.5810
0
VERTEX
8
CUT
10
89.9857
20
143.3810
0
VERTEX
8
CUT
10
89.8565
20
143.1671
0
VERTEX
8
CUT
10
89.7493
20
142.9413
0
VERTEX
8
CUT
10
88.0358
20
138.8113
0
VERTEX
8
CUT
10
87.9622
20
138.6454
0
VERTEX
8
CUT
10
87.9484
20
138.6161
0
VERTEX
8
CUT
10
87.7914
20
138.3219
0
VERTEX
8
CUT
10
87.6230
20
138.0685
0
VERTEX
8
CUT
10
87.4308
20
137.8326
0
VERTEX
8
CUT
10
87.2167
20
137.6164
0
VERTEX
8
CUT
10
86.9828
20
137.4219
0
VERTEX
8
CUT
10
86.8410
20
137.3256
0
VERTEX
8
CUT
10
86.6419
20
137.1752
0
VERTEX
8
CUT
10
86.4587
20
137.0057
0
VERTEX
8
CUT
10
86.2933
20
136.8188
0
VERTEX
8
CUT
10
86.1474
20
136.6163
0
VERTEX
8
CUT
10
86.1461
20
136.6141
0
VERTEX
8
CUT
10
86.1384
20
136.6176
0
VERTEX
8
CUT
10
85.9051
20
136.6973
0
VERTEX
8
CUT
10
85.6650
20
136.7537
0
VERTEX
8
CUT
10
85.4205
20
136.7861
0
VERTEX
8
CUT
10
85.1741
20
136.7943
0
VERTEX
8
CUT
10
84.9902
20
136.7913
0
VERTEX
8
CUT
10
84.6869
20
136.8158
0
VERTEX
8
CUT
10
84.3875
20
136.8695
0
VERTEX
8
CUT
10
84.0946
20
136.9519
0
VERTEX
8
CUT
10
83.8110
20
137.0622
0
VERTEX
8
CUT
10
83.5395
20
137.1993
0
VERTEX
8
CUT
10
83.2824
20
137.3621
0
VERTEX
8
CUT
10
83.0423
20
137.5489
0
VERTEX
8
CUT
10
82.8214
20
137.7581
0
VERTEX
8
CUT
10
82.6217
20
137.9876
0
VERTEX
8
CUT
10
82.4451
20
138.2354
0
VERTEX
8
CUT
10
82.2933
20
138.4991
0
VERTEX
8
CUT
10
82.1677
20
138.7762
0
VERTEX
8
CUT
10
82.0600
20
139.0918
0
VERTEX
8
CUT
10
82.0511
20
139.1229
0
VERTEX
8
CUT
10
82.0051
20
139.2984
0
VERTEX
8
CUT
10
81.7093
20
140.5499
0
VERTEX
8
CUT
10
81.6296
20
140.8189
0
VERTEX
8
CUT
10
80.1431
20
144.9638
0
VERTEX
8
CUT
10
80.0478
20
145.1928
0
VERTEX
8
CUT
10
79.9304
20
145.4113
0
VERTEX
8
CUT
10
79.7918
20
145.6171
0
VERTEX
8
CUT
10
79.6336
20
145.8082
0
VERTEX
8
CUT
10
79.4572
20
145.9826
0
VERTEX
8
CUT
10
79.2643
20
146.1387
0
VERTEX
8
CUT
10
79.0570
20
146.2749
0
VERTEX
8
CUT
10
78.8372
20
146.3898
0
VERTEX
8
CUT
10
78.6070
20
146.4825
0
VERTEX
8
CUT
10
73.9688
20
148.0868
0
VERTEX
8
CUT
10
73.7950
20
148.1517
0
VERTEX
8
CUT
10
73.7643
20
148.1641
0
VERTEX
8
CUT
10
73.4547
20
148.3068
0
VERTEX
8
CUT
10
73.1865
20
148.4642
0
VERTEX
8
CUT
10
72.9352
20
148.6474
0
VERTEX
8
CUT
10
72.7032
20
148.8545
0
VERTEX
8
CUT
10
72.4927
20
149.0836
0
VERTEX
8
CUT
10
72.3060
20
149.3322
0
VERTEX
8
CUT
10
72.1447
20
149.5981
0
VERTEX
8
CUT
10
72.0104
20
149.8787
0
VERTEX
8
CUT
10
71.9046
20
150.1711
0
VERTEX
8
CUT
10
71.8281
20
150.4726
0
VERTEX
8
CUT
10
71.7818
20
150.7801
0
VERTEX
8
CUT
10
71.7661
20
151.0907
0
VERTEX
8
CUT
10
71.7812
20
151.4014
0
VERTEX
8
CUT
10
71.8268
20
151.7090
0
VERTEX
8
CUT
10
71.9026
20
152.0106
0
VERTEX
8
CUT
10
72.0079
20
152.3033
0
VERTEX
8
CUT
10
72.1415
20
152.5841
0
VERTEX
8
CUT
10
72.3023
20
152.8503
0
VERTEX
8
CUT
10
72.4885
20
153.0994
0
VERTEX
8
CUT
10
72.6802
20
153.3090
0
VERTEX
8
CUT
10
72.8437
20
153.5072
0
VERTEX
8
CUT
10
72.9860
20
153.7212
0
VERTEX
8
CUT
10
73.1055
20
153.9487
0
VERTEX
8
CUT
10
73.2011
20
154.1873
0
VERTEX
8
CUT
10
73.2717
20
154.4344
0
VERTEX
8
CUT
10
73.3165
20
154.6874
0
VERTEX
8
CUT
10
73.3351
20
154.9437
0
VERTEX
8
CUT
10
73.3274
20
155.2006
0
VERTEX
8
CUT
10
73.3000
20
155.5350
0
VERTEX
8
CUT
10
73.3044
20
155.8378
0
VERTEX
8
CUT
10
73.3379
20
156.1387
0
VERTEX
8
CUT
10
73.4002
20
156.4350
0
VERTEX
8
CUT
10
73.4907
20
156.7240
0
VERTEX
8
CUT
10
73.6086
20
157.0029
0
VERTEX
8
CUT
10
73.7527
20
157.2692
0
VERTEX
8
CUT
10
73.9218
20
157.5203
0
VERTEX
8
CUT
10
74.1142
20
157.7541
0
VERTEX
8
CUT
10
74.3283
20
157.9683
0
VERTEX
8
CUT
10
74.5619
20
158.1609
0
VERTEX
8
CUT
10
74.8130
20
158.3301
0
VERTEX
8
CUT
10
75.0792
20
158.4744
0
VERTEX
8
CUT
10
75.3581
20
158.5924
0
VERTEX
8
CUT
10
75.6470
20
158.6831
0
VERTEX
8
CUT
10
75.8612
20
158.7282
0
VERTEX
8
CUT
10
76.0934
20
158.7890
0
VERTEX
8
CUT
10
76.3188
20
158.8717
0
VERTEX
8
CUT
10
76.5352
20
158.9757
0
VERTEX
8
CUT
10
76.7406
20
159.1000
0
VERTEX
8
CUT
10
76.9332
20
159.2434
0
VERTEX
8
CUT
10
77.1111
20
159.4046
0
VERTEX
8
CUT
10
77.2727
20
159.5821
0
VERTEX
8
CUT
10
77.4165
20
159.7743
0
VERTEX
8
CUT
10
77.5413
20
159.9794
0
VERTEX
8
CUT
10
77.6458
20
160.1955
0
VERTEX
8
CUT
10
77.7291
20
160.4207
0
VERTEX
8
CUT
10
77.7904
20
160.6528
0
VERTEX
8
CUT
10
77.8292
20
160.8897
0
VERTEX
8
CUT
10
77.8514
20
161.0839
0
VERTEX
8
CUT
10
77.9185
20
161.3919
0
VERTEX
8
CUT
10
78.0160
20
161.6916
0
VERTEX
8
CUT
10
78.1431
20
161.9800
0
VERTEX
8
CUT
10
78.2984
20
162.2543
0
VERTEX
8
CUT
10
78.4804
20
162.5116
0
VERTEX
8
CUT
10
78.6872
20
162.7495
0
VERTEX
8
CUT
10
78.9168
20
162.9654
0
VERTEX
8
CUT
10
79.1669
20
163.1573
0
VERTEX
8
CUT
10
79.4349
20
163.3231
0
VERTEX
8
CUT
10
79.7182
20
163.4613
0
VERTEX
8
CUT
10
80.0139
20
163.5705
0
VERTEX
8
CUT
10
80.3190
20
163.6495
0
VERTEX
8
CUT
10
80.6305
20
163.6975
0
VERTEX
8
CUT
10
80.9452
20
163.7142
0
VERTEX
8
CUT
10
81.2601
20
163.6992
0
VERTEX
8
CUT
10
81.2947
20
163.6941
0
VERTEX
8
CUT
10
81.5389
20
163.6699
0
VERTEX
8
CUT
10
81.7843
20
163.6698
0
VERTEX
8
CUT
10
82.0285
20
163.6937
0
VERTEX
8
CUT
10
82.2692
20
163.7415
0
VERTEX
8
CUT
10
82.5041
20
163.8127
0
VERTEX
8
CUT
10
82.7309
20
163.9065
0
VERTEX
8
CUT
10
82.9473
20
164.0221
0
VERTEX
8
CUT
10
83.1514
20
164.1584
0
VERTEX
8
CUT
10
83.3412
20
164.3140
0
VERTEX
8
CUT
10
86.2155
20
166.9179
0
VERTEX
8
CUT
10
86.3766
20
167.0778
0
VERTEX
8
CUT
10
86.5226
20
167.2517
0
VERTEX
8
CUT
10
86.6522
20
167.4381
0
VERTEX
8
CUT
10
86.7644
20
167.6354
0
VERTEX
8
CUT
10
86.8107
20
167.7263
0
VERTEX
8
CUT
10
86.9308
20
168.0016
0
VERTEX
8
CUT
10
87.0170
20
168.2894
0
VERTEX
8
CUT
10
87.4040
20
169.9357
0
VERTEX
8
CUT
10
87.4645
20
170.1611
0
VERTEX
8
CUT
10
87.5102
20
170.3127
0
VERTEX
8
CUT
10
87.5846
20
170.5339
0
VERTEX
8
CUT
10
88.4556
20
172.8810
0
VERTEX
8
CUT
10
88.5606
20
173.1348
0
VERTEX
8
CUT
10
88.6380
20
173.3043
0
VERTEX
8
CUT
10
88.7612
20
173.5498
0
VERTEX
8
CUT
10
89.4612
20
174.8252
0
VERTEX
8
CUT
10
89.5449
20
174.9700
0
VERTEX
8
CUT
10
89.5605
20
174.9956
0
VERTEX
8
CUT
10
89.7468
20
175.2732
0
VERTEX
8
CUT
10
89.7646
20
175.2973
0
VERTEX
8
CUT
10
89.8669
20
175.4296
0
VERTEX
8
CUT
10
91.3978
20
177.3215
0
VERTEX
8
CUT
10
91.5130
20
177.4571
0
VERTEX
8
CUT
10
91.5342
20
177.4809
0
VERTEX
8
CUT
10
91.7831
20
177.7349
0
VERTEX
8
CUT
10
91.8064
20
177.7566
0
VERTEX
8
CUT
10
91.9396
20
177.8745
0
VERTEX
8
CUT
10
93.5253
20
179.2118
0
VERTEX
8
CUT
10
93.5561
20
179.2321
0
VERTEX
8
CUT
10
94.3524
20
179.8162
0
VERTEX
8
CUT
10
94.4865
20
179.9101
0
VERTEX
8
CUT
10
94.5109
20
179.9264
0
VERTEX
8
CUT
10
94.7906
20
180.0962
0
VERTEX
8
CUT
10
94.8163
20
180.1103
0
VERTEX
8
CUT
10
94.9615
20
180.1858
0
VERTEX
8
CUT
10
96.5286
20
180.9587
0
VERTEX
8
CUT
10
98.1727
20
181.6127
0
VERTEX
8
CUT
10
98.3512
20
181.6785
0
VERTEX
8
CUT
10
98.4736
20
181.7202
0
VERTEX
8
CUT
10
98.6553
20
181.7769
0
VERTEX
8
CUT
10
98.9664
20
181.8653
0
VERTEX
8
CUT
10
99.2022
20
181.9453
0
VERTEX
8
CUT
10
99.4288
20
182.0483
0
VERTEX
8
CUT
10
99.6441
20
182.1733
0
VERTEX
8
CUT
10
99.8459
20
182.3191
0
VERTEX
8
CUT
10
100.0322
20
182.4843
0
VERTEX
8
CUT
10
100.2011
20
182.6672
0
VERTEX
8
CUT
10
100.3510
20
182.8659
0
VERTEX
8
CUT
10
100.4804
20
183.0786
0
VERTEX
8
CUT
10
100.5880
20
183.3031
0
VERTEX
8
CUT
10
100.6727
20
183.5372
0
VERTEX
8
CUT
10
100.7337
20
183.7786
0
VERTEX
8
CUT
10
100.7705
20
184.0248
0
VERTEX
8
CUT
10
100.7708
20
184.0283
0
VERTEX
8
CUT
10
100.8164
20
184.3307
0
VERTEX
8
CUT
10
100.8912
20
184.6351
0
VERTEX
8
CUT
10
100.8998
20
184.6644
0
VERTEX
8
CUT
10
100.9517
20
184.8268
0
VERTEX
8
CUT
10
102.3911
20
189.0055
0
VERTEX
8
CUT
10
102.4847
20
189.3595
0
VERTEX
8
CUT
10
103.0752
20
192.5118
0
VERTEX
8
CUT
10
103.1047
20
192.7156
0
VERTEX
8
CUT
10
103.1174
20
192.9212
0
VERTEX
8
CUT
10
103.1982
20
196.8939
0
VERTEX
8
CUT
10
103.1789
20
197.2586
0
VERTEX
8
CUT
10
102.8227
20
200.0740
0
VERTEX
8
CUT
10
102.7597
20
200.3982
0
VERTEX
8
CUT
10
102.4305
20
201.6454
0
VERTEX
8
CUT
10
102.3398
20
201.9222
0
VERTEX
8
CUT
10
101.1189
20
205.0271
0
VERTEX
8
CUT
10
101.0182
20
205.2502
0
VERTEX
8
CUT
10
96.0211
20
215.0242
0
VERTEX
8
CUT
10
95.9590
20
215.1517
0
VERTEX
8
CUT
10
95.9483
20
215.1747
0
VERTEX
8
CUT
10
95.8386
20
215.4361
0
VERTEX
8
CUT
10
95.8297
20
215.4599
0
VERTEX
8
CUT
10
95.7824
20
215.5936
0
VERTEX
8
CUT
10
94.8560
20
218.3763
0
VERTEX
8
CUT
10
94.8118
20
218.5182
0
VERTEX
8
CUT
10
94.8044
20
218.5438
0
VERTEX
8
CUT
10
94.7332
20
218.8323
0
VERTEX
8
CUT
10
94.7278
20
218.8583
0
VERTEX
8
CUT
10
94.7009
20
219.0045
0
VERTEX
8
CUT
10
94.3409
20
221.1955
0
VERTEX
8
CUT
10
94.3408
20
221.1985
0
VERTEX
8
CUT
10
94.3405
20
221.2166
0
VERTEX
8
CUT
10
94.3360
20
221.4580
0
VERTEX
8
CUT
10
94.2700
20
225.0064
0
VERTEX
8
CUT
10
94.3761
20
226.5032
0
VERTEX
8
CUT
10
94.3909
20
226.6638
0
VERTEX
8
CUT
10
94.3942
20
226.6925
0
VERTEX
8
CUT
10
94.4446
20
227.0111
0
VERTEX
8
CUT
10
94.4503
20
227.0393
0
VERTEX
8
CUT
10
94.4857
20
227.1967
0
VERTEX
8
CUT
10
95.1597
20
229.9175
0
VERTEX
8
CUT
10
95.1885
20
230.0266
0
VERTEX
8
CUT
10
95.2092
20
230.1005
0
VERTEX
8
CUT
10
95.2412
20
230.2087
0
VERTEX
8
CUT
10
97.0814
20
236.0940
0
VERTEX
8
CUT
10
97.1560
20
236.3987
0
VERTEX
8
CUT
10
97.2722
20
237.0461
0
VERTEX
8
CUT
10
97.2794
20
237.0681
0
VERTEX
8
CUT
10
97.3425
20
237.2980
0
VERTEX
8
CUT
10
97.3835
20
237.5328
0
VERTEX
8
CUT
10
97.4398
20
237.9805
0
VERTEX
8
CUT
10
98.0131
20
241.1767
0
VERTEX
8
CUT
10
98.0426
20
241.3971
0
VERTEX
8
CUT
10
98.0524
20
241.6192
0
VERTEX
8
CUT
10
98.0512
20
244.4761
0
VERTEX
8
CUT
10
98.0346
20
244.7624
0
VERTEX
8
CUT
10
97.5711
20
248.7675
0
VERTEX
8
CUT
10
97.5380
20
248.9763
0
VERTEX
8
CUT
10
97.1821
20
250.7339
0
VERTEX
8
CUT
10
97.1232
20
250.9668
0
VERTEX
8
CUT
10
97.0422
20
251.1929
0
VERTEX
8
CUT
10
96.9399
20
251.4102
0
VERTEX
8
CUT
10
96.8172
20
251.6167
0
VERTEX
8
CUT
10
96.6753
20
251.8104
0
VERTEX
8
CUT
10
96.5154
20
251.9897
0
VERTEX
8
CUT
10
96.3390
20
252.1527
0
VERTEX
8
CUT
10
96.1479
20
252.2981
0
VERTEX
8
CUT
10
95.9436
20
252.4245
0
VERTEX
8
CUT
10
95.7282
20
252.5307
0
VERTEX
8
CUT
10
95.5036
20
252.6157
0
VERTEX
8
CUT
10
95.2718
20
252.6788
0
VERTEX
8
CUT
10
95.0351
20
252.7194
0
VERTEX
8
CUT
10
94.7955
20
252.7370
0
VERTEX
8
CUT
10
94.5554
20
252.7316
0
VERTEX
8
CUT
10
94.3169
20
252.7032
0
VERTEX
8
CUT
10
94.0823
20
252.6520
0
VERTEX
8
CUT
10
93.8536
20
252.5785
0
VERTEX
8
CUT
10
93.6330
20
252.4834
0
VERTEX
8
CUT
10
93.4226
20
252.3676
0
VERTEX
8
CUT
10
91.5156
20
251.1954
0
VERTEX
8
CUT
10
91.4915
20
251.1803
0
VERTEX
8
CUT
10
91.4871
20
251.1776
0
VERTEX
8
CUT
10
91.3871
20
251.1111
0
VERTEX
8
CUT
10
84.8039
20
246.5038
0
VERTEX
8
CUT
10
84.7794
20
246.4864
0
VERTEX
8
CUT
10
84.7750
20
246.4833
0
VERTEX
8
CUT
10
84.6744
20
246.4071
0
VERTEX
8
CUT
10
77.7399
20
240.8776
0
VERTEX
8
CUT
10
77.7159
20
240.8582
0
VERTEX
8
CUT
10
77.7116
20
240.8548
0
VERTEX
8
CUT
10
77.6133
20
240.7700
0
VERTEX
8
CUT
10
73.2956
20
236.8476
0
VERTEX
8
CUT
10
73.1146
20
236.6653
0
VERTEX
8
CUT
10
72.9532
20
236.4654
0
VERTEX
8
CUT
10
72.8132
20
236.2500
0
VERTEX
8
CUT
10
72.6961
20
236.0213
0
VERTEX
8
CUT
10
72.6030
20
235.7818
0
VERTEX
8
CUT
10
72.5350
20
235.5341
0
VERTEX
8
CUT
10
72.4928
20
235.2807
0
VERTEX
8
CUT
10
72.4768
20
235.0242
0
VERTEX
8
CUT
10
72.4383
20
231.4667
0
VERTEX
8
CUT
10
72.4301
20
231.2563
0
VERTEX
8
CUT
10
72.4205
20
231.1136
0
VERTEX
8
CUT
10
72.4005
20
230.9040
0
VERTEX
8
CUT
10
72.0030
20
227.6925
0
VERTEX
8
CUT
10
71.9653
20
227.4521
0
VERTEX
8
CUT
10
71.9344
20
227.2898
0
VERTEX
8
CUT
10
71.8811
20
227.0523
0
VERTEX
8
CUT
10
71.1123
20
224.0787
0
VERTEX
8
CUT
10
71.0750
20
223.9446
0
VERTEX
8
CUT
10
71.0678
20
223.9207
0
VERTEX
8
CUT
10
70.9784
20
223.6571
0
VERTEX
8
CUT
10
70.9695
20
223.6338
0
VERTEX
8
CUT
10
70.9175
20
223.5047
0
VERTEX
8
CUT
10
69.8250
20
220.9316
0
VERTEX
8
CUT
10
69.7331
20
220.7317
0
VERTEX
8
CUT
10
69.6668
20
220.5979
0
VERTEX
8
CUT
10
69.5633
20
220.4037
0
VERTEX
8
CUT
10
67.9440
20
217.5681
0
VERTEX
8
CUT
10
67.8466
20
217.4071
0
VERTEX
8
CUT
10
67.7777
20
217.2994
0
VERTEX
8
CUT
10
67.6724
20
217.1434
0
VERTEX
8
CUT
10
65.3582
20
213.8968
0
VERTEX
8
CUT
10
65.2802
20
213.7913
0
VERTEX
8
CUT
10
65.2259
20
213.7205
0
VERTEX
8
CUT
10
65.1442
20
213.6178
0
VERTEX
8
CUT
10
58.3300
20
205.3491
0
VERTEX
8
CUT
10
58.2020
20
205.1794
0
VERTEX
8
CUT
10
55.4790
20
201.2350
0
VERTEX
8
CUT
10
55.3568
20
201.0393
0
VERTEX
8
CUT
10
53.2552
20
197.2987
0
VERTEX
8
CUT
10
53.1061
20
196.9838
0
VERTEX
8
CUT
10
51.0537
20
191.7292
0
VERTEX
8
CUT
10
50.9657
20
191.4599
0
VERTEX
8
CUT
10
50.2886
20
188.9046
0
VERTEX
8
CUT
10
50.2247
20
188.5756
0
VERTEX
8
CUT
10
49.7177
20
184.5366
0
VERTEX
8
CUT
10
49.6983
20
184.2253
0
VERTEX
8
CUT
10
49.6982
20
178.3837
0
VERTEX
8
CUT
10
49.7154
20
178.0914
0
VERTEX
8
CUT
10
50.2666
20
173.4088
0
VERTEX
8
CUT
10
50.3085
20
173.1611
0
SEQEND
0
POLYLINE
8
CUT
66
1
70
1
10
0.0
20
0.0
30
0.0
0
VERTEX
8
CUT
10
76.5760
20
75.5737
0
VERTEX
8
CUT
10
76.6706
20
75.1519
0
VERTEX
8
CUT
10
76.7425
20
74.8954
0
VERTEX
8
CUT
10
76.8414
20
74.6481
0
VERTEX
8
CUT
10
76.9660
20
74.4127
0
VERTEX
8
CUT
10
77.1150
20
74.1919
0
VERTEX
8
CUT
10
77.2866
20
73.9882
0
VERTEX
8
CUT
10
77.3329
20
73.9389
0
VERTEX
8
CUT
10
77.5231
20
73.7564
0
VERTEX
8
CUT
10
77.7314
20
73.5950
0
VERTEX
8
CUT
10
77.9555
20
73.4564
0
VERTEX
8
CUT
10
78.4379
20
73.1922
0
VERTEX
8
CUT
10
78.6706
20
73.0801
0
VERTEX
8
CUT
10
78.9135
20
72.9925
0
VERTEX
8
CUT
10
79.1642
20
72.9304
0
VERTEX
8
CUT
10
79.4199
20
72.8946
0
VERTEX
8
CUT
10
79.6172
20
72.8772
0
VERTEX
8
CUT
10
79.8594
20
72.8677
0
VERTEX
8
CUT
10
80.1015
20
72.8818
0
VERTEX
8
CUT
10
80.3410
20
72.9192
0
VERTEX
8
CUT
10
80.5757
20
72.9796
0
VERTEX
8
CUT
10
80.8036
20
73.0625
0
VERTEX
8
CUT
10
80.9613
20
73.1287
0
VERTEX
8
CUT
10
81.2014
20
73.2449
0
VERTEX
8
CUT
10
81.4279
20
73.3861
0
VERTEX
8
CUT
10
81.6379
20
73.5506
0
VERTEX
8
CUT
10
81.8293
20
73.7365
0
VERTEX
8
CUT
10
82.0589
20
73.9848
0
VERTEX
8
CUT
10
82.2377
20
74.2015
0
VERTEX
8
CUT
10
82.3911
20
74.4368
0
VERTEX
8
CUT
10
82.5171
20
74.6878
0
VERTEX
8
CUT
10
82.6444
20
74.9816
0
VERTEX
8
CUT
10
82.7297
20
75.2076
0
VERTEX
8
CUT
10
82.7927
20
75.4407
0
VERTEX
8
CUT
10
82.8330
20
75.6788
0
VERTEX
8
CUT
10
82.8500
20
75.9197
0
VERTEX
8
CUT
10
82.8536
20
76.0770
0
VERTEX
8
CUT
10
82.8472
20
76.3203
0
VERTEX
8
CUT
10
82.8172
20
76.5620
0
VERTEX
8
CUT
10
82.7638
20
76.7995
0
VERTEX
8
CUT
10
82.6875
20
77.0307
0
VERTEX
8
CUT
10
82.5906
20
77.2828
0
VERTEX
8
CUT
10
82.4995
20
77.4908
0
VERTEX
8
CUT
10
82.3900
20
77.6896
0
VERTEX
8
CUT
10
82.2629
20
77.8777
0
VERTEX
8
CUT
10
82.1193
20
78.0535
0
VERTEX
8
CUT
10
81.8665
20
78.3356
0
VERTEX
8
CUT
10
81.6811
20
78.5219
0
VERTEX
8
CUT
10
81.4772
20
78.6876
0
VERTEX
8
CUT
10
81.2570
20
78.8310
0
VERTEX
8
CUT
10
81.0230
20
78.9506
0
VERTEX
8
CUT
10
80.9309
20
78.9916
0
VERTEX
8
CUT
10
80.7071
20
79.0788
0
VERTEX
8
CUT
10
80.4760
20
79.1442
0
VERTEX
8
CUT
10
80.2396
20
79.1870
0
VERTEX
8
CUT
10
80.0002
20
79.2070
0
VERTEX
8
CUT
10
79.7786
20
79.2148
0
VERTEX
8
CUT
10
79.4936
20
79.2085
0
VERTEX
8
CUT
10
79.2112
20
79.1699
0
VERTEX
8
CUT
10
78.9350
20
79.0993
0
VERTEX
8
CUT
10
78.6267
20
79.0016
0
VERTEX
8
CUT
10
78.3662
20
78.9026
0
VERTEX
8
CUT
10
78.1182
20
78.7753
0
VERTEX
8
CUT
10
77.8860
20
78.6212
0
VERTEX
8
CUT
10
77.6839
20
78.4702
0
VERTEX
8
CUT
10
77.5103
20
78.3279
0
VERTEX
8
CUT
10
77.3502
20
78.1706
0
VERTEX
8
CUT
10
77.2048
20
77.9995
0
VERTEX
8
CUT
10
77.0754
20
77.8161
0
VERTEX
8
CUT
10
76.9343
20
77.5959
0
VERTEX
8
CUT
10
76.8146
20
77.3877
0
VERTEX
8
CUT
10
76.7155
20
77.1690
0
VERTEX
8
CUT
10
76.6378
20
76.9419
0
VERTEX
8
CUT
10
76.5822
20
76.7083
0
VERTEX
8
CUT
10
76.5584
20
76.5814
0
VERTEX
8
CUT
10
76.5243
20
76.3301
0
VERTEX
8
CUT
10
76.5159
20
76.0766
0
VERTEX
8
CUT
10
76.5332
20
75.8237
0
SEQEND
0
POLYLINE
8
CUT
66
1
70
1
10
0.0
20
0.0
30
0.0
0
VERTEX
8
CUT
10
70.3106
20
263.6106
0
VERTEX
8
CUT
10
70.1085
20
263.7429
0
VERTEX
8
CUT
10
69.8946
20
263.8552
0
VERTEX
8
CUT
10
69.6709
20
263.9462
0
VERTEX
8
CUT
10
69.4394
20
264.0153
0
VERTEX
8
CUT
10
69.2023
20
264.0617
0
VERTEX
8
CUT
10
68.9619
20
264.0850
0
VERTEX
8
CUT
10
68.7203
20
264.0850
0
VERTEX
8
CUT
10
68.4799
20
264.0616
0
VERTEX
8
CUT
10
68.2429
20
264.0152
0
VERTEX
8
CUT
10
68.0114
20
263.9461
0
VERTEX
8
CUT
10
67.7877
20
263.8550
0
VERTEX
8
CUT
10
67.5738
20
263.7428
0
VERTEX
8
CUT
10
67.3717
20
263.6104
0
VERTEX
8
CUT
10
67.1834
20
263.4591
0
VERTEX
8
CUT
10
67.0106
20
263.2904
0
VERTEX
8
CUT
10
66.8548
20
263.1057
0
VERTEX
8
CUT
10
66.7176
20
262.9069
0
VERTEX
8
CUT
10
66.6002
20
262.6958
0
VERTEX
8
CUT
10
66.5037
20
262.4744
0
VERTEX
8
CUT
10
66.4291
20
262.2446
0
VERTEX
8
CUT
10
66.3770
20
262.0088
0
VERTEX
8
CUT
10
66.3478
20
261.7690
0
VERTEX
8
CUT
10
66.3420
20
261.5275
0
VERTEX
8
CUT
10
66.3595
20
261.2866
0
VERTEX
8
CUT
10
66.3860
20
261.0683
0
VERTEX
8
CUT
10
66.4330
20
260.8024
0
VERTEX
8
CUT
10
66.5084
20
260.5431
0
VERTEX
8
CUT
10
66.6113
20
260.2934
0
VERTEX
8
CUT
10
66.7405
20
260.0563
0
VERTEX
8
CUT
10
67.2785
20
259.1849
0
VERTEX
8
CUT
10
67.4231
20
258.9754
0
VERTEX
8
CUT
10
67.5883
20
258.7816
0
VERTEX
8
CUT
10
67.7723
20
258.6057
0
VERTEX
8
CUT
10
67.9733
20
258.4493
0
VERTEX
8
CUT
10
68.1748
20
258.3085
0
VERTEX
8
CUT
10
68.3864
20
258.1758
0
VERTEX
8
CUT
10
68.6101
20
258.0649
0
VERTEX
8
CUT
10
68.8437
20
257.9769
0
VERTEX
8
CUT
10
69.0850
20
257.9126
0
VERTEX
8
CUT
10
69.2946
20
257.8678
0
VERTEX
8
CUT
10
69.5508
20
257.8268
0
VERTEX
8
CUT
10
69.8099
20
257.8126
0
VERTEX
8
CUT
10
70.0690
20
257.8254
0
VERTEX
8
CUT
10
70.3255
20
257.8649
0
VERTEX
8
CUT
10
70.4894
20
257.8990
0
VERTEX
8
CUT
10
70.7305
20
257.9617
0
VERTEX
8
CUT
10
70.9642
20
258.0482
0
VERTEX
8
CUT
10
71.1880
20
258.1575
0
VERTEX
8
CUT
10
71.3999
20
258.2885
0
VERTEX
8
CUT
10
71.5977
20
258.4399
0
VERTEX
8
CUT
10
71.7795
20
258.6103
0
VERTEX
8
CUT
10
71.9434
20
258.7980
0
VERTEX
8
CUT
10
72.0878
20
259.0010
0
VERTEX
8
CUT
10
72.2112
20
259.2174
0
VERTEX
8
CUT
10
72.3126
20
259.4450
0
VERTEX
8
CUT
10
72.3907
20
259.6815
0
VERTEX
8
CUT
10
72.4450
20
259.9247
0
VERTEX
8
CUT
10
72.4747
20
260.1720
0
VERTEX
8
CUT
10
72.4797
20
260.4211
0
VERTEX
8
CUT
10
72.4599
20
260.6694
0
VERTEX
8
CUT
10
72.4155
20
260.9146
0
VERTEX
8
CUT
10
72.3469
20
261.1541
0
VERTEX
8
CUT
10
72.2548
20
261.3856
0
VERTEX
8
CUT
10
72.1401
20
261.6067
0
VERTEX
8
CUT
10
72.0040
20
261.8154
0
VERTEX
8
CUT
10
71.8477
20
262.0094
0
VERTEX
8
CUT
10
71.6730
20
262.1870
0
VERTEX
8
CUT
10
71.5430
20
262.2950
0
VERTEX
8
CUT
10
71.5439
20
262.2960
0
VERTEX
8
CUT
10
71.5423
20
262.2973
0
VERTEX
8
CUT
10
71.3055
20
262.5121
0
VERTEX
8
CUT
10
71.1085
20
262.7272
0
VERTEX
8
CUT
10
70.9153
20
262.9820
0
VERTEX
8
CUT
10
70.9142
20
262.9836
0
VERTEX
8
CUT
10
70.9127
20
262.9827
0
VERTEX
8
CUT
10
70.8276
20
263.1060
0
VERTEX
8
CUT
10
70.6718
20
263.2906
0
VERTEX
8
CUT
10
70.4989
20
263.4593
0
SEQEND
0
POLYLINE
8
CUT
66
1
70
1
10
0.0
20
0.0
30
0.0
0
VERTEX
8
CUT
10
61.7612
20
100.2330
0
VERTEX
8
CUT
10
62.1587
20
99.1585
0
VERTEX
8
CUT
10
62.2496
20
98.9440
0
VERTEX
8
CUT
10
62.3602
20
98.7388
0
VERTEX
8
CUT
10
62.4894
20
98.5448
0
VERTEX
8
CUT
10
62.6361
20
98.3637
0
VERTEX
8
CUT
10
63.6537
20
97.2205
0
VERTEX
8
CUT
10
63.8048
20
97.0649
0
VERTEX
8
CUT
10
63.9688
20
96.9230
0
VERTEX
8
CUT
10
64.1444
20
96.7959
0
VERTEX
8
CUT
10
64.3304
20
96.6844
0
VERTEX
8
CUT
10
64.8829
20
96.3852
0
VERTEX
8
CUT
10
65.1241
20
96.2708
0
VERTEX
8
CUT
10
65.3760
20
96.1828
0
VERTEX
8
CUT
10
65.6360
20
96.1221
0
VERTEX
8
CUT
10
65.9009
20
96.0895
0
VERTEX
8
CUT
10
67.5198
20
95.9774
0
VERTEX
8
CUT
10
67.7432
20
95.9720
0
VERTEX
8
CUT
10
67.9662
20
95.9865
0
VERTEX
8
CUT
10
68.1870
20
96.0209
0
VERTEX
8
CUT
10
68.4038
20
96.0749
0
VERTEX
8
CUT
10
68.6150
20
96.1480
0
VERTEX
8
CUT
10
69.5668
20
96.5259
0
VERTEX
8
CUT
10
69.7848
20
96.6248
0
VERTEX
8
CUT
10
69.9924
20
96.7441
0
VERTEX
8
CUT
10
70.1876
20
96.8828
0
VERTEX
8
CUT
10
70.3687
20
97.0394
0
VERTEX
8
CUT
10
71.0626
20
97.7006
0
VERTEX
8
CUT
10
71.2180
20
97.8625
0
VERTEX
8
CUT
10
71.3582
20
98.0377
0
VERTEX
8
CUT
10
71.4821
20
98.2248
0
VERTEX
8
CUT
10
71.5888
20
98.4223
0
VERTEX
8
CUT
10
72.0542
20
99.3849
0
VERTEX
8
CUT
10
72.1686
20
99.6630
0
VERTEX
8
CUT
10
72.2488
20
99.9528
0
VERTEX
8
CUT
10
72.3169
20
100.2730
0
VERTEX
8
CUT
10
72.3516
20
100.4772
0
VERTEX
8
CUT
10
72.3693
20
100.6836
0
VERTEX
8
CUT
10
72.3698
20
100.8908
0
VERTEX
8
CUT
10
72.3226
20
102.0996
0
VERTEX
8
CUT
10
72.3026
20
102.3329
0
VERTEX
8
CUT
10
72.2607
20
102.5633
0
VERTEX
8
CUT
10
72.1976
20
102.7887
0
VERTEX
8
CUT
10
72.1136
20
103.0073
0
VERTEX
8
CUT
10
71.5868
20
104.2072
0
VERTEX
8
CUT
10
71.4634
20
104.4509
0
VERTEX
8
CUT
10
71.3142
20
104.6798
0
VERTEX
8
CUT
10
71.1409
20
104.8910
0
VERTEX
8
CUT
10
70.9456
20
105.0821
0
VERTEX
8
CUT
10
70.4189
20
105.5438
0
VERTEX
8
CUT
10
70.2507
20
105.6789
0
VERTEX
8
CUT
10
70.0716
20
105.7989
0
VERTEX
8
CUT
10
69.8827
20
105.9031
0
VERTEX
8
CUT
10
69.6856
20
105.9906
0
VERTEX
8
CUT
10
68.3739
20
106.5062
0
VERTEX
8
CUT
10
68.1155
20
106.5919
0
VERTEX
8
CUT
10
67.8494
20
106.6489
0
VERTEX
8
CUT
10
67.5786
20
106.6767
0
VERTEX
8
CUT
10
66.7234
20
106.7176
0
VERTEX
8
CUT
10
66.4763
20
106.7172
0
VERTEX
8
CUT
10
66.2305
20
106.6924
0
VERTEX
8
CUT
10
65.9883
20
106.6435
0
VERTEX
8
CUT
10
65.1926
20
106.4413
0
VERTEX
8
CUT
10
64.9072
20
106.3503
0
VERTEX
8
CUT
10
64.6347
20
106.2258
0
VERTEX
8
CUT
10
64.4594
20
106.1325
0
VERTEX
8
CUT
10
64.2736
20
106.0232
0
VERTEX
8
CUT
10
64.0979
20
105.8983
0
VERTEX
8
CUT
10
63.9336
20
105.7587
0
VERTEX
8
CUT
10
62.9941
20
104.8880
0
VERTEX
8
CUT
10
62.7962
20
104.6824
0
VERTEX
8
CUT
10
62.6230
20
104.4557
0
VERTEX
8
CUT
10
62.4769
20
104.2106
0
VERTEX
8
CUT
10
61.9400
20
103.1814
0
VERTEX
8
CUT
10
61.8296
20
102.9392
0
VERTEX
8
CUT
10
61.7456
20
102.6866
0
VERTEX
8
CUT
10
61.6889
20
102.4265
0
VERTEX
8
CUT
10
61.6602
20
102.1618
0
VERTEX
8
CUT
10
61.6096
20
101.2371
0
VERTEX
8
CUT
10
61.6087
20
100.9816
0
VERTEX
8
CUT
10
61.6339
20
100.7273
0
VERTEX
8
CUT
10
61.6849
20
100.4769
0
SEQEND
0
POLYLINE
8
CUT
66
1
70
1
10
0.0
20
0.0
30
0.0
0
VERTEX
8
CUT
10
51.6600
20
56.3346
0
VERTEX
8
CUT
10
51.4205
20
56.4050
0
VERTEX
8
CUT
10
51.1752
20
56.4511
0
VERTEX
8
CUT
10
50.9265
20
56.4726
0
VERTEX
8
CUT
10
50.6769
20
56.4691
0
VERTEX
8
CUT
10
50.4289
20
56.4408
0
VERTEX
8
CUT
10
50.1849
20
56.3878
0
VERTEX
8
CUT
10
49.9475
20
56.3108
0
VERTEX
8
CUT
10
49.7189
20
56.2106
0
VERTEX
8
CUT
10
49.5014
20
56.0880
0
VERTEX
8
CUT
10
49.2973
20
55.9443
0
VERTEX
8
CUT
10
49.1085
20
55.7810
0
VERTEX
8
CUT
10
48.9369
20
55.5997
0
VERTEX
8
CUT
10
48.7843
20
55.4022
0
VERTEX
8
CUT
10
48.6521
20
55.1904
0
VERTEX
8
CUT
10
48.5417
20
54.9666
0
VERTEX
8
CUT
10
48.4542
20
54.7328
0
VERTEX
8
CUT
10
48.3904
20
54.4914
0
VERTEX
8
CUT
10
48.3511
20
54.2450
0
VERTEX
8
CUT
10
48.3364
20
53.9958
0
VERTEX
8
CUT
10
48.3468
20
53.7464
0
VERTEX
8
CUT
10
48.3819
20
53.4992
0
VERTEX
8
CUT
10
48.6325
20
52.2039
0
VERTEX
8
CUT
10
48.6887
20
51.9732
0
VERTEX
8
CUT
10
48.7664
20
51.7489
0
VERTEX
8
CUT
10
48.8651
20
51.5329
0
VERTEX
8
CUT
10
49.4740
20
50.3524
0
VERTEX
8
CUT
10
49.5882
20
50.1538
0
VERTEX
8
CUT
10
49.7201
20
49.9666
0
VERTEX
8
CUT
10
49.8685
20
49.7922
0
VERTEX
8
CUT
10
50.0816
20
49.5640
0
VERTEX
8
CUT
10
50.2889
20
49.3660
0
VERTEX
8
CUT
10
50.5176
20
49.1930
0
VERTEX
8
CUT
10
51.3958
20
48.6048
0
VERTEX
8
CUT
10
51.5875
20
48.4885
0
VERTEX
8
CUT
10
51.7890
20
48.3898
0
VERTEX
8
CUT
10
51.9984
20
48.3095
0
VERTEX
8
CUT
10
52.2142
20
48.2484
0
VERTEX
8
CUT
10
54.2329
20
47.7732
0
VERTEX
8
CUT
10
54.4952
20
47.7260
0
VERTEX
8
CUT
10
54.7610
20
47.7070
0
VERTEX
8
CUT
10
55.0273
20
47.7165
0
VERTEX
8
CUT
10
56.0958
20
47.8115
0
VERTEX
8
CUT
10
56.3057
20
47.8392
0
VERTEX
8
CUT
10
56.5125
20
47.8845
0
VERTEX
8
CUT
10
56.7147
20
47.9472
0
VERTEX
8
CUT
10
56.9760
20
48.0404
0
VERTEX
8
CUT
10
57.2326
20
48.1485
0
VERTEX
8
CUT
10
57.4756
20
48.2845
0
VERTEX
8
CUT
10
58.1470
20
48.7107
0
VERTEX
8
CUT
10
58.3188
20
48.8302
0
VERTEX
8
CUT
10
58.4800
20
48.9636
0
VERTEX
8
CUT
10
59.3083
20
49.7096
0
VERTEX
8
CUT
10
59.4757
20
49.8754
0
VERTEX
8
CUT
10
59.6268
20
50.0561
0
VERTEX
8
CUT
10
59.6397
20
50.0731
0
VERTEX
8
CUT
10
59.7780
20
50.2752
0
VERTEX
8
CUT
10
59.8959
20
50.4899
0
VERTEX
8
CUT
10
59.9922
20
50.7151
0
VERTEX
8
CUT
10
60.0660
20
50.9486
0
VERTEX
8
CUT
10
60.1166
20
51.1882
0
VERTEX
8
CUT
10
60.1435
20
51.4317
0
VERTEX
8
CUT
10
60.1464
20
51.6766
0
VERTEX
8
CUT
10
60.1254
20
51.9206
0
VERTEX
8
CUT
10
60.0806
20
52.1614
0
VERTEX
8
CUT
10
60.0125
20
52.3966
0
VERTEX
8
CUT
10
59.9217
20
52.6240
0
VERTEX
8
CUT
10
59.8090
20
52.8415
0
VERTEX
8
CUT
10
59.7029
20
53.0240
0
VERTEX
8
CUT
10
59.5703
20
53.3174
0
VERTEX
8
CUT
10
59.4383
20
53.7130
0
VERTEX
8
CUT
10
59.4376
20
53.7128
0
VERTEX
8
CUT
10
59.3872
20
53.8653
0
VERTEX
8
CUT
10
59.2892
20
54.0870
0
VERTEX
8
CUT
10
59.1701
20
54.2982
0
VERTEX
8
CUT
10
59.0312
20
54.4969
0
VERTEX
8
CUT
10
58.8737
20
54.6811
0
VERTEX
8
CUT
10
58.6991
20
54.8493
0
VERTEX
8
CUT
10
58.5090
20
54.9997
0
VERTEX
8
CUT
10
58.3052
20
55.1310
0
VERTEX
8
CUT
10
58.0897
20
55.2420
0
VERTEX
8
CUT
10
57.8644
20
55.3315
0
VERTEX
8
CUT
10
57.6315
20
55.3989
0
VERTEX
8
CUT
10
57.3932
20
55.4433
0
VERTEX
8
CUT
10
57.1518
20
55.4645
0
VERTEX
8
CUT
10
56.9093
20
55.4622
0
VERTEX
8
CUT
10
56.6683
20
55.4364
0
VERTEX
8
CUT
10
56.4309
20
55.3874
0
VERTEX
8
CUT
10
56.1994
20
55.3157
0
VERTEX
8
CUT
10
55.9758
20
55.2218
0
VERTEX
8
CUT
10
55.9099
20
55.1903
0
VERTEX
8
CUT
10
55.6190
20
55.0848
0
VERTEX
8
CUT
10
55.3191
20
55.0085
0
VERTEX
8
CUT
10
55.0131
20
54.9621
0
VERTEX
8
CUT
10
54.7041
20
54.9459
0
VERTEX
8
CUT
10
54.3950
20
54.9602
0
VERTEX
8
CUT
10
54.0887
20
55.0048
0
VERTEX
8
CUT
10
53.7884
20
55.0792
0
VERTEX
8
CUT
10
53.4968
20
55.1829
0
VERTEX
8
CUT
10
53.2168
20
55.3147
0
VERTEX
8
CUT
10
52.9511
20
55.4734
0
VERTEX
8
CUT
10
52.7023
20
55.6574
0
VERTEX
8
CUT
10
52.5133
20
55.8283
0
VERTEX
8
CUT
10
52.3201
20
55.9863
0
VERTEX
8
CUT
10
52.1120
20
56.1242
0
VERTEX
8
CUT
10
51.8913
20
56.2407
0
SEQEND
0
POLYLINE
8
CUT
66
1
70
1
10
0.0
20
0.0
30
0.0
0
VERTEX
8
CUT
10
51.0619
20
127.4308
0
VERTEX
8
CUT
10
51.4410
20
127.0676
0
VERTEX
8
CUT
10
51.6308
20
126.9032
0
VERTEX
8
CUT
10
51.8363
20
126.7586
0
VERTEX
8
CUT
10
52.0552
20
126.6353
0
VERTEX
8
CUT
10
52.2853
20
126.5347
0
VERTEX
8
CUT
10
52.5244
20
126.4577
0
VERTEX
8
CUT
10
52.7700
20
126.4050
0
VERTEX
8
CUT
10
53.0197
20
126.3773
0
VERTEX
8
CUT
10
53.2709
20
126.3747
0
VERTEX
8
CUT
10
53.5211
20
126.3974
0
VERTEX
8
CUT
10
53.8446
20
126.4432
0
VERTEX
8
CUT
10
54.0797
20
126.4880
0
VERTEX
8
CUT
10
54.3094
20
126.5552
0
VERTEX
8
CUT
10
54.5316
20
126.6439
0
VERTEX
8
CUT
10
54.7443
20
126.7536
0
VERTEX
8
CUT
10
54.9456
20
126.8830
0
VERTEX
8
CUT
10
55.1956
20
127.0613
0
VERTEX
8
CUT
10
55.3635
20
127.1921
0
VERTEX
8
CUT
10
55.5196
20
127.3368
0
VERTEX
8
CUT
10
55.6629
20
127.4942
0
VERTEX
8
CUT
10
55.7043
20
127.5438
0
VERTEX
8
CUT
10
55.8466
20
127.7314
0
VERTEX
8
CUT
10
55.9705
20
127.9315
0
VERTEX
8
CUT
10
56.0751
20
128.1424
0
VERTEX
8
CUT
10
56.1594
20
128.3622
0
VERTEX
8
CUT
10
56.2226
20
128.5890
0
VERTEX
8
CUT
10
56.2437
20
128.6814
0
VERTEX
8
CUT
10
56.2850
20
128.9101
0
VERTEX
8
CUT
10
56.3048
20
129.1417
0
VERTEX
8
CUT
10
56.3030
20
129.3742
0
VERTEX
8
CUT
10
56.2713
20
129.9585
0
VERTEX
8
CUT
10
56.2479
20
130.1899
0
VERTEX
8
CUT
10
56.2031
20
130.4182
0
VERTEX
8
CUT
10
56.1373
20
130.6413
0
VERTEX
8
CUT
10
56.0510
20
130.8573
0
VERTEX
8
CUT
10
55.9450
20
131.0644
0
VERTEX
8
CUT
10
55.9071
20
131.1306
0
VERTEX
8
CUT
10
55.7724
20
131.3411
0
VERTEX
8
CUT
10
55.6173
20
131.5370
0
VERTEX
8
CUT
10
55.4434
20
131.7164
0
VERTEX
8
CUT
10
55.2564
20
131.8911
0
VERTEX
8
CUT
10
55.0574
20
132.0585
0
VERTEX
8
CUT
10
54.8420
20
132.2043
0
VERTEX
8
CUT
10
54.6126
20
132.3270
0
VERTEX
8
CUT
10
54.3717
20
132.4251
0
VERTEX
8
CUT
10
54.1219
20
132.4977
0
VERTEX
8
CUT
10
53.8659
20
132.5440
0
VERTEX
8
CUT
10
53.6065
20
132.5634
0
VERTEX
8
CUT
10
53.3465
20
132.5557
0
VERTEX
8
CUT
10
52.8325
20
132.5138
0
VERTEX
8
CUT
10
52.5888
20
132.4817
0
VERTEX
8
CUT
10
52.3495
20
132.4260
0
VERTEX
8
CUT
10
52.1168
20
132.3470
0
VERTEX
8
CUT
10
51.8930
20
132.2455
0
VERTEX
8
CUT
10
51.8103
20
132.2030
0
VERTEX
8
CUT
10
51.5753
20
132.0655
0
VERTEX
8
CUT
10
51.3567
20
131.9033
0
VERTEX
8
CUT
10
51.1570
20
131.7183
0
VERTEX
8
CUT
10
51.0395
20
131.5970
0
VERTEX
8
CUT
10
50.8749
20
131.4089
0
VERTEX
8
CUT
10
50.7298
20
131.2054
0
VERTEX
8
CUT
10
50.6059
20
130.9884
0
VERTEX
8
CUT
10
50.5357
20
130.8501
0
VERTEX
8
CUT
10
50.4432
20
130.6452
0
VERTEX
8
CUT
10
50.3695
20
130.4328
0
VERTEX
8
CUT
10
50.3151
20
130.2146
0
VERTEX
8
CUT
10
50.2794
20
130.0380
0
VERTEX
8
CUT
10
50.2441
20
129.8089
0
VERTEX
8
CUT
10
50.2302
20
129.5774
0
VERTEX
8
CUT
10
50.2378
20
129.3457
0
VERTEX
8
CUT
10
50.2541
20
129.1393
0
VERTEX
8
CUT
10
50.2929
20
128.8563
0
VERTEX
8
CUT
10
50.3637
20
128.5796
0
VERTEX
8
CUT
10
50.4656
20
128.3128
0
VERTEX
8
CUT
10
50.5109
20
128.2119
0
VERTEX
8
CUT
10
50.6198
20
127.9976
0
VERTEX
8
CUT
10
50.7487
20
127.7948
0
VERTEX
8
CUT
10
50.8966
20
127.6053
0
SEQEND
0
ENDSEC
0
EOF
