0
SECTION
2
HEADER
9
$ACADVER
1
AC1009
9
$INSUNITS
70
4
0
ENDSEC
0
SECTION
2
TABLES
0
TABLE
2
LAYER
70
1
0
LAYER
2
CUT
70
0
62
7
6
CONTINUOUS
0
ENDTAB
0
ENDSEC
0
SECTION
2
ENTITIES
0
POLYLINE
8
CUT
66
1
70
1
10
0.0
20
0.0
30
0.0
0
VERTEX
8
CUT
10
-0.1000
20
298.0000
0
VERTEX
8
CUT
10
-0.0899
20
298.2058
0
VERTEX
8
CUT
10
-0.0596
20
298.4097
0
VERTEX
8
CUT
10
-0.0096
20
298.6096
0
VERTEX
8
CUT
10
0.0599
20
298.8036
0
VERTEX
8
CUT
10
0.1480
20
298.9899
0
VERTEX
8
CUT
10
0.2539
20
299.1667
0
VERTEX
8
CUT
10
0.3767
20
299.3322
0
VERTEX
8
CUT
10
0.5151
20
299.4849
0
VERTEX
8
CUT
10
0.6678
20
299.6233
0
VERTEX
8
CUT
10
0.8333
20
299.7461
0
VERTEX
8
CUT
10
1.0101
20
299.8520
0
VERTEX
8
CUT
10
1.1964
20
299.9401
0
VERTEX
8
CUT
10
1.3904
20
300.0096
0
VERTEX
8
CUT
10
1.5903
20
300.0596
0
VERTEX
8
CUT
10
1.7942
20
300.0899
0
VERTEX
8
CUT
10
2.0000
20
300.1000
0
VERTEX
8
CUT
10
297.9985
20
300.1000
0
VERTEX
8
CUT
10
298.2044
20
300.0899
0
VERTEX
8
CUT
10
298.4082
20
300.0596
0
VERTEX
8
CUT
10
298.6081
20
300.0096
0
VERTEX
8
CUT
10
298.8022
20
299.9401
0
VERTEX
8
CUT
10
298.9885
20
299.8520
0
VERTEX
8
CUT
10
299.1652
20
299.7461
0
VERTEX
8
CUT
10
299.3307
20
299.6233
0
VERTEX
8
CUT
10
299.4834
20
299.4849
0
VERTEX
8
CUT
10
299.6218
20
299.3322
0
VERTEX
8
CUT
10
299.7446
20
299.1667
0
VERTEX
8
CUT
10
299.8506
20
298.9899
0
VERTEX
8
CUT
10
299.9387
20
298.8036
0
VERTEX
8
CUT
10
300.0081
20
298.6096
0
VERTEX
8
CUT
10
300.0582
20
298.4097
0
VERTEX
8
CUT
10
300.0884
20
298.2058
0
VERTEX
8
CUT
10
300.0985
20
298.0000
0
VERTEX
8
CUT
10
300.0985
20
2.0000
0
VERTEX
8
CUT
10
300.0884
20
1.7942
0
VERTEX
8
CUT
10
300.0582
20
1.5903
0
VERTEX
8
CUT
10
300.0081
20
1.3904
0
VERTEX
8
CUT
10
299.9387
20
1.1964
0
VERTEX
8
CUT
10
299.8506
20
1.0101
0
VERTEX
8
CUT
10
299.7446
20
0.8333
0
VERTEX
8
CUT
10
299.6218
20
0.6678
0
VERTEX
8
CUT
10
299.4834
20
0.5151
0
VERTEX
8
CUT
10
299.3307
20
0.3767
0
VERTEX
8
CUT
10
299.1652
20
0.2539
0
VERTEX
8
CUT
10
298.9885
20
0.1480
0
VERTEX
8
CUT
10
298.8022
20
0.0599
0
VERTEX
8
CUT
10
298.6081
20
-0.0096
0
VERTEX
8
CUT
10
298.4082
20
-0.0596
0
VERTEX
8
CUT
10
298.2044
20
-0.0899
0
VERTEX
8
CUT
10
297.9985
20
-0.1000
0
VERTEX
8
CUT
10
2.0000
20
-0.1000
0
VERTEX
8
CUT
10
1.7942
20
-0.0899
0
VERTEX
8
CUT
10
1.5903
20
-0.0596
0
VERTEX
8
CUT
10
1.3904
20
-0.0096
0
VERTEX
8
CUT
10
1.1964
20
0.0599
0
VERTEX
8
CUT
10
1.0101
20
0.1480
0
VERTEX
8
CUT
10
0.8333
20
0.2539
0
VERTEX
8
CUT
10
0.6678
20
0.3767
0
VERTEX
8
CUT
10
0.5151
20
0.5151
0
VERTEX
8
CUT
10
0.3767
20
0.6678
0
VERTEX
8
CUT
10
0.2539
20
0.8333
0
VERTEX
8
CUT
10
0.1480
20
1.0101
0
VERTEX
8
CUT
10
0.0599
20
1.1964
0
VERTEX
8
CUT
10
-0.0096
20
1.3904
0
VERTEX
8
CUT
10
-0.0596
20
1.5903
0
VERTEX
8
CUT
10
-0.0899
20
1.7942
0
VERTEX
8
CUT
10
-0.1000
20
2.0000
0
SEQEND
0
POLYLINE
8
CUT
66
1
70
1
10
0.0
20
0.0
30
0.0
0
VERTEX
8
CUT
10
219.8159
20
97.7943
0
VERTEX
8
CUT
10
219.8042
20
97.8387
0
VERTEX
8
CUT
10
219.7931
20
97.8769
0
VERTEX
8
CUT
10
219.7633
20
97.9636
0
VERTEX
8
CUT
10
219.7580
20
97.9770
0
VERTEX
8
CUT
10
219.7200
20
98.0605
0
VERTEX
8
CUT
10
219.7134
20
98.0733
0
VERTEX
8
CUT
10
219.6675
20
98.1527
0
VERTEX
8
CUT
10
219.6597
20
98.1648
0
VERTEX
8
CUT
10
219.6063
20
98.2394
0
VERTEX
8
CUT
10
219.5974
20
98.2507
0
VERTEX
8
CUT
10
219.5371
20
98.3198
0
VERTEX
8
CUT
10
219.5271
20
98.3302
0
VERTEX
8
CUT
10
219.4605
20
98.3932
0
VERTEX
8
CUT
10
219.4495
20
98.4026
0
VERTEX
8
CUT
10
219.3771
20
98.4588
0
VERTEX
8
CUT
10
219.3653
20
98.4671
0
VERTEX
8
CUT
10
219.2878
20
98.5161
0
VERTEX
8
CUT
10
219.2752
20
98.5232
0
VERTEX
8
CUT
10
219.1933
20
98.5645
0
VERTEX
8
CUT
10
219.1801
20
98.5704
0
VERTEX
8
CUT
10
219.0947
20
98.6036
0
VERTEX
8
CUT
10
219.0810
20
98.6081
0
VERTEX
8
CUT
10
218.9927
20
98.6329
0
VERTEX
8
CUT
10
218.9786
20
98.6361
0
VERTEX
8
CUT
10
218.8884
20
98.6523
0
VERTEX
8
CUT
10
218.8740
20
98.6541
0
VERTEX
8
CUT
10
218.7826
20
98.6615
0
VERTEX
8
CUT
10
218.7682
20
98.6620
0
VERTEX
8
CUT
10
218.6765
20
98.6605
0
VERTEX
8
CUT
10
218.6621
20
98.6596
0
VERTEX
8
CUT
10
218.5710
20
98.6493
0
VERTEX
8
CUT
10
218.5568
20
98.6469
0
VERTEX
8
CUT
10
218.4671
20
98.6279
0
VERTEX
8
CUT
10
218.4531
20
98.6242
0
VERTEX
8
CUT
10
218.3657
20
98.5966
0
VERTEX
8
CUT
10
218.3522
20
98.5916
0
VERTEX
8
CUT
10
218.2678
20
98.5557
0
VERTEX
8
CUT
10
218.2548
20
98.5494
0
VERTEX
8
CUT
10
218.1743
20
98.5055
0
VERTEX
8
CUT
10
218.1620
20
98.4980
0
VERTEX
8
CUT
10
218.0861
20
98.4465
0
VERTEX
8
CUT
10
218.0746
20
98.4378
0
VERTEX
8
CUT
10
218.0040
20
98.3793
0
VERTEX
8
CUT
10
217.9933
20
98.3695
0
VERTEX
8
CUT
10
217.9287
20
98.3045
0
VERTEX
8
CUT
10
217.9191
20
98.2937
0
VERTEX
8
CUT
10
217.8611
20
98.2227
0
VERTEX
8
CUT
10
217.8525
20
98.2111
0
VERTEX
8
CUT
10
217.8016
20
98.1349
0
VERTEX
8
CUT
10
217.7942
20
98.1225
0
VERTEX
8
CUT
10
217.7509
20
98.0416
0
VERTEX
8
CUT
10
217.7447
20
98.0286
0
VERTEX
8
CUT
10
217.7094
20
97.9440
0
VERTEX
8
CUT
10
217.7045
20
97.9304
0
VERTEX
8
CUT
10
217.6775
20
97.8428
0
VERTEX
8
CUT
10
217.6739
20
97.8288
0
VERTEX
8
CUT
10
217.6555
20
97.7390
0
VERTEX
8
CUT
10
217.6533
20
97.7247
0
VERTEX
8
CUT
10
217.6437
20
97.6335
0
VERTEX
8
CUT
10
217.6429
20
97.6191
0
VERTEX
8
CUT
10
217.6421
20
97.5274
0
VERTEX
8
CUT
10
217.6436
20
97.4876
0
VERTEX
8
CUT
10
217.6466
20
97.4419
0
VERTEX
8
CUT
10
217.7533
20
96.2310
0
VERTEX
8
CUT
10
217.7559
20
96.2058
0
VERTEX
8
CUT
10
217.7600
20
96.1699
0
VERTEX
8
CUT
10
217.7632
20
96.1447
0
VERTEX
8
CUT
10
218.1348
20
93.5348
0
VERTEX
8
CUT
10
218.1424
20
93.4891
0
VERTEX
8
CUT
10
218.1500
20
93.4497
0
VERTEX
8
CUT
10
218.1719
20
93.3598
0
VERTEX
8
CUT
10
218.1760
20
93.3458
0
VERTEX
8
CUT
10
218.2066
20
93.2585
0
VERTEX
8
CUT
10
218.2121
20
93.2450
0
VERTEX
8
CUT
10
218.2510
20
93.1610
0
VERTEX
8
CUT
10
218.2577
20
93.1481
0
VERTEX
8
CUT
10
218.3046
20
93.0683
0
VERTEX
8
CUT
10
218.3126
20
93.0562
0
VERTEX
8
CUT
10
218.3670
20
92.9813
0
VERTEX
8
CUT
10
218.3761
20
92.9700
0
VERTEX
8
CUT
10
218.4376
20
92.9008
0
VERTEX
8
CUT
10
218.4478
20
92.8904
0
VERTEX
8
CUT
10
218.5157
20
92.8276
0
VERTEX
8
CUT
10
218.5268
20
92.8182
0
VERTEX
8
CUT
10
218.6005
20
92.7623
0
VERTEX
8
CUT
10
218.6125
20
92.7540
0
VERTEX
8
CUT
10
218.6913
20
92.7055
0
VERTEX
8
CUT
10
218.7041
20
92.6985
0
VERTEX
8
CUT
10
218.7872
20
92.6579
0
VERTEX
8
CUT
10
218.8006
20
92.6521
0
VERTEX
8
CUT
10
218.8873
20
92.6198
0
VERTEX
8
CUT
10
218.9012
20
92.6154
0
VERTEX
8
CUT
10
218.9906
20
92.5917
0
VERTEX
8
CUT
10
219.0049
20
92.5886
0
VERTEX
8
CUT
10
219.0962
20
92.5737
0
VERTEX
8
CUT
10
219.1106
20
92.5721
0
VERTEX
8
CUT
10
219.2030
20
92.5661
0
VERTEX
8
CUT
10
219.2175
20
92.5659
0
VERTEX
8
CUT
10
219.3100
20
92.5690
0
VERTEX
8
CUT
10
219.3245
20
92.5702
0
VERTEX
8
CUT
10
219.4163
20
92.5822
0
VERTEX
8
CUT
10
219.4306
20
92.5848
0
VERTEX
8
CUT
10
219.5207
20
92.6057
0
VERTEX
8
CUT
10
219.5347
20
92.6097
0
VERTEX
8
CUT
10
219.6224
20
92.6393
0
VERTEX
8
CUT
10
219.6359
20
92.6446
0
VERTEX
8
CUT
10
219.7203
20
92.6826
0
VERTEX
8
CUT
10
219.7333
20
92.6893
0
VERTEX
8
CUT
10
219.8136
20
92.7353
0
VERTEX
8
CUT
10
219.8258
20
92.7431
0
VERTEX
8
CUT
10
219.9012
20
92.7968
0
VERTEX
8
CUT
10
219.9127
20
92.8058
0
VERTEX
8
CUT
10
219.9825
20
92.8665
0
VERTEX
8
CUT
10
219.9930
20
92.8765
0
VERTEX
8
CUT
10
220.0566
20
92.9438
0
VERTEX
8
CUT
10
220.0661
20
92.9548
0
VERTEX
8
CUT
10
220.1228
20
93.0279
0
VERTEX
8
CUT
10
220.1312
20
93.0398
0
VERTEX
8
CUT
10
220.1805
20
93.1181
0
VERTEX
8
CUT
10
220.1877
20
93.1308
0
VERTEX
8
CUT
10
220.2292
20
93.2135
0
VERTEX
8
CUT
10
220.2351
20
93.2268
0
VERTEX
8
CUT
10
220.2683
20
93.3131
0
VERTEX
8
CUT
10
220.2729
20
93.3270
0
VERTEX
8
CUT
10
220.2976
20
93.4161
0
VERTEX
8
CUT
10
220.3008
20
93.4303
0
VERTEX
8
CUT
10
220.3167
20
93.5215
0
VERTEX
8
CUT
10
220.3216
20
93.5613
0
VERTEX
8
CUT
10
220.3262
20
93.6074
0
VERTEX
8
CUT
10
220.4285
20
94.9662
0
VERTEX
8
CUT
10
220.4309
20
95.0151
0
VERTEX
8
CUT
10
220.4319
20
95.0576
0
VERTEX
8
CUT
10
220.4292
20
95.1554
0
VERTEX
8
CUT
10
220.4279
20
95.1707
0
VERTEX
8
CUT
10
220.4152
20
95.2677
0
VERTEX
8
CUT
10
220.4074
20
95.3095
0
VERTEX
8
CUT
10
220.3973
20
95.3574
0
SEQEND
0
POLYLINE
8
CUT
66
1
70
1
10
0.0
20
0.0
30
0.0
0
VERTEX
8
CUT
10
160.8350
20
52.9624
0
VERTEX
8
CUT
10
160.7980
20
52.9506
0
VERTEX
8
CUT
10
160.7570
20
52.9361
0
VERTEX
8
CUT
10
160.6642
20
52.8980
0
VERTEX
8
CUT
10
160.6499
20
52.8912
0
VERTEX
8
CUT
10
160.5617
20
52.8435
0
VERTEX
8
CUT
10
160.5483
20
52.8352
0
VERTEX
8
CUT
10
160.4656
20
52.7785
0
VERTEX
8
CUT
10
160.4531
20
52.7688
0
VERTEX
8
CUT
10
160.3768
20
52.7037
0
VERTEX
8
CUT
10
160.3453
20
52.6737
0
VERTEX
8
CUT
10
160.3099
20
52.6381
0
VERTEX
8
CUT
10
159.8489
20
52.1507
0
VERTEX
8
CUT
10
159.8182
20
52.1167
0
VERTEX
8
CUT
10
159.7923
20
52.0865
0
VERTEX
8
CUT
10
159.7360
20
52.0142
0
VERTEX
8
CUT
10
159.7277
20
52.0024
0
VERTEX
8
CUT
10
159.6787
20
51.9250
0
VERTEX
8
CUT
10
159.6716
20
51.9124
0
VERTEX
8
CUT
10
159.6303
20
51.8307
0
VERTEX
8
CUT
10
159.6141
20
51.7944
0
VERTEX
8
CUT
10
159.5964
20
51.7520
0
VERTEX
8
CUT
10
159.2474
20
50.8560
0
VERTEX
8
CUT
10
159.2312
20
50.8111
0
VERTEX
8
CUT
10
159.2182
20
50.7718
0
VERTEX
8
CUT
10
159.1926
20
50.6799
0
VERTEX
8
CUT
10
159.1894
20
50.6653
0
VERTEX
8
CUT
10
159.1732
20
50.5713
0
VERTEX
8
CUT
10
159.1682
20
50.5302
0
VERTEX
8
CUT
10
159.1637
20
50.4827
0
VERTEX
8
CUT
10
159.1474
20
50.2498
0
VERTEX
8
CUT
10
159.1452
20
50.1979
0
VERTEX
8
CUT
10
159.1445
20
50.1530
0
VERTEX
8
CUT
10
159.1486
20
50.0494
0
VERTEX
8
CUT
10
159.1501
20
50.0332
0
VERTEX
8
CUT
10
159.1654
20
49.9307
0
VERTEX
8
CUT
10
159.1687
20
49.9147
0
VERTEX
8
CUT
10
159.1952
20
49.8145
0
VERTEX
8
CUT
10
159.2090
20
49.7717
0
VERTEX
8
CUT
10
159.2263
20
49.7228
0
VERTEX
8
CUT
10
159.3540
20
49.3906
0
VERTEX
8
CUT
10
159.3725
20
49.3459
0
VERTEX
8
CUT
10
159.3896
20
49.3075
0
VERTEX
8
CUT
10
159.4333
20
49.2212
0
VERTEX
8
CUT
10
159.4409
20
49.2080
0
VERTEX
8
CUT
10
159.4932
20
49.1265
0
VERTEX
8
CUT
10
159.5021
20
49.1142
0
VERTEX
8
CUT
10
159.5624
20
49.0385
0
VERTEX
8
CUT
10
159.5902
20
49.0070
0
VERTEX
8
CUT
10
159.6232
20
48.9716
0
VERTEX
8
CUT
10
160.3376
20
48.2423
0
VERTEX
8
CUT
10
160.3761
20
48.2052
0
VERTEX
8
CUT
10
160.4104
20
48.1739
0
VERTEX
8
CUT
10
160.4933
20
48.1064
0
VERTEX
8
CUT
10
160.5069
20
48.0966
0
VERTEX
8
CUT
10
160.5969
20
48.0389
0
VERTEX
8
CUT
10
160.6373
20
48.0160
0
VERTEX
8
CUT
10
160.6846
20
47.9911
0
VERTEX
8
CUT
10
161.2480
20
47.7136
0
VERTEX
8
CUT
10
161.2945
20
47.6922
0
VERTEX
8
CUT
10
161.3354
20
47.6748
0
VERTEX
8
CUT
10
161.4316
20
47.6397
0
VERTEX
8
CUT
10
161.4469
20
47.6350
0
VERTEX
8
CUT
10
161.5463
20
47.6105
0
VERTEX
8
CUT
10
161.5621
20
47.6075
0
VERTEX
8
CUT
10
161.6636
20
47.5938
0
VERTEX
8
CUT
10
161.7078
20
47.5903
0
VERTEX
8
CUT
10
161.7590
20
47.5875
0
VERTEX
8
CUT
10
162.2189
20
47.5755
0
VERTEX
8
CUT
10
162.2713
20
47.5756
0
VERTEX
8
CUT
10
162.3166
20
47.5769
0
VERTEX
8
CUT
10
162.4208
20
47.5857
0
VERTEX
8
CUT
10
162.4370
20
47.5880
0
VERTEX
8
CUT
10
162.5396
20
47.6082
0
VERTEX
8
CUT
10
162.5555
20
47.6122
0
VERTEX
8
CUT
10
162.6552
20
47.6436
0
VERTEX
8
CUT
10
162.6977
20
47.6595
0
VERTEX
8
CUT
10
162.7462
20
47.6793
0
VERTEX
8
CUT
10
163.2071
20
47.8821
0
VERTEX
8
CUT
10
163.2554
20
47.9050
0
VERTEX
8
CUT
10
163.2967
20
47.9260
0
VERTEX
8
CUT
10
163.3889
20
47.9798
0
VERTEX
8
CUT
10
163.4030
20
47.9890
0
VERTEX
8
CUT
10
163.4886
20
48.0528
0
VERTEX
8
CUT
10
163.5242
20
48.0825
0
VERTEX
8
CUT
10
163.5642
20
48.1179
0
VERTEX
8
CUT
10
164.1260
20
48.6436
0
VERTEX
8
CUT
10
164.1574
20
48.6745
0
VERTEX
8
CUT
10
164.1841
20
48.7019
0
VERTEX
8
CUT
10
164.2426
20
48.7678
0
VERTEX
8
CUT
10
164.2513
20
48.7785
0
VERTEX
8
CUT
10
164.3034
20
48.8496
0
VERTEX
8
CUT
10
164.3110
20
48.8611
0
VERTEX
8
CUT
10
164.3563
20
48.9366
0
VERTEX
8
CUT
10
164.3629
20
48.9489
0
VERTEX
8
CUT
10
164.4010
20
49.0283
0
VERTEX
8
CUT
10
164.4159
20
49.0635
0
VERTEX
8
CUT
10
164.4322
20
49.1044
0
VERTEX
8
CUT
10
164.5046
20
49.3002
0
VERTEX
8
CUT
10
164.5189
20
49.3416
0
VERTEX
8
CUT
10
164.5304
20
49.3779
0
VERTEX
8
CUT
10
164.5531
20
49.4625
0
VERTEX
8
CUT
10
164.5561
20
49.4760
0
VERTEX
8
CUT
10
164.5709
20
49.5624
0
VERTEX
8
CUT
10
164.5726
20
49.5760
0
VERTEX
8
CUT
10
164.5794
20
49.6634
0
VERTEX
8
CUT
10
164.5798
20
49.6772
0
VERTEX
8
CUT
10
164.5785
20
49.7648
0
VERTEX
8
CUT
10
164.5762
20
49.8028
0
VERTEX
8
CUT
10
164.5725
20
49.8465
0
VERTEX
8
CUT
10
164.5220
20
50.3160
0
VERTEX
8
CUT
10
164.5159
20
50.3616
0
VERTEX
8
CUT
10
164.5098
20
50.4011
0
VERTEX
8
CUT
10
164.4911
20
50.4911
0
VERTEX
8
CUT
10
164.4875
20
50.5051
0
VERTEX
8
CUT
10
164.4603
20
50.5929
0
VERTEX
8
CUT
10
164.4553
20
50.6065
0
VERTEX
8
CUT
10
164.4197
20
50.6913
0
VERTEX
8
CUT
10
164.4134
20
50.7043
0
VERTEX
8
CUT
10
164.3698
20
50.7852
0
VERTEX
8
CUT
10
164.3623
20
50.7976
0
VERTEX
8
CUT
10
164.3110
20
50.8739
0
VERTEX
8
CUT
10
164.3024
20
50.8855
0
VERTEX
8
CUT
10
164.2440
20
50.9565
0
VERTEX
8
CUT
10
164.2342
20
50.9672
0
VERTEX
8
CUT
10
164.1692
20
51.0323
0
VERTEX
8
CUT
10
164.1585
20
51.0420
0
VERTEX
8
CUT
10
164.0875
20
51.1004
0
VERTEX
8
CUT
10
164.0759
20
51.1090
0
VERTEX
8
CUT
10
163.9996
20
51.1603
0
VERTEX
8
CUT
10
163.9872
20
51.1678
0
VERTEX
8
CUT
10
163.9063
20
51.2115
0
VERTEX
8
CUT
10
163.8932
20
51.2177
0
VERTEX
8
CUT
10
163.8085
20
51.2533
0
VERTEX
8
CUT
10
163.7710
20
51.2670
0
VERTEX
8
CUT
10
163.7274
20
51.2817
0
VERTEX
8
CUT
10
163.6401
20
51.3088
0
VERTEX
8
CUT
10
163.4474
20
51.3791
0
VERTEX
8
CUT
10
163.2625
20
51.4678
0
VERTEX
8
CUT
10
163.0872
20
51.5742
0
VERTEX
8
CUT
10
162.9230
20
51.6971
0
VERTEX
8
CUT
10
162.7717
20
51.8355
0
VERTEX
8
CUT
10
162.6346
20
51.9880
0
VERTEX
8
CUT
10
162.5129
20
52.1531
0
VERTEX
8
CUT
10
162.4080
20
52.3293
0
VERTEX
8
CUT
10
162.3502
20
52.4380
0
VERTEX
8
CUT
10
162.3429
20
52.4505
0
VERTEX
8
CUT
10
162.2922
20
52.5270
0
VERTEX
8
CUT
10
162.2836
20
52.5386
0
VERTEX
8
CUT
10
162.2258
20
52.6099
0
VERTEX
8
CUT
10
162.2162
20
52.6207
0
VERTEX
8
CUT
10
162.1517
20
52.6860
0
VERTEX
8
CUT
10
162.1411
20
52.6958
0
VERTEX
8
CUT
10
162.0706
20
52.7546
0
VERTEX
8
CUT
10
162.0591
20
52.7633
0
VERTEX
8
CUT
10
161.9833
20
52.8151
0
VERTEX
8
CUT
10
161.9710
20
52.8226
0
VERTEX
8
CUT
10
161.8905
20
52.8668
0
VERTEX
8
CUT
10
161.8775
20
52.8732
0
VERTEX
8
CUT
10
161.7932
20
52.9094
0
VERTEX
8
CUT
10
161.7796
20
52.9144
0
VERTEX
8
CUT
10
161.6922
20
52.9423
0
VERTEX
8
CUT
10
161.6782
20
52.9460
0
VERTEX
8
CUT
10
161.5885
20
52.9653
0
VERTEX
8
CUT
10
161.5492
20
52.9718
0
VERTEX
8
CUT
10
161.5037
20
52.9782
0
VERTEX
8
CUT
10
161.3100
20
53.0006
0
VERTEX
8
CUT
10
161.2627
20
53.0049
0
VERTEX
8
CUT
10
161.2216
20
53.0076
0
VERTEX
8
CUT
10
161.1268
20
53.0091
0
VERTEX
8
CUT
10
161.1119
20
53.0086
0
VERTEX
8
CUT
10
161.0173
20
53.0005
0
VERTEX
8
CUT
10
161.0025
20
52.9985
0
VERTEX
8
CUT
10
160.9093
20
52.9811
0
VERTEX
8
CUT
10
160.8692
20
52.9715
0
SEQEND
0
POLYLINE
8
CUT
66
1
70
1
10
0.0
20
0.0
30
0.0
0
VERTEX
8
CUT
10
133.5393
20
117.1431
0
VERTEX
8
CUT
10
133.5034
20
117.1737
0
VERTEX
8
CUT
10
133.4716
20
117.1995
0
VERTEX
8
CUT
10
133.3955
20
117.2553
0
VERTEX
8
CUT
10
133.3831
20
117.2634
0
VERTEX
8
CUT
10
133.3018
20
117.3113
0
VERTEX
8
CUT
10
133.2886
20
117.3182
0
VERTEX
8
CUT
10
133.2030
20
117.3578
0
VERTEX
8
CUT
10
133.1892
20
117.3634
0
VERTEX
8
CUT
10
133.1000
20
117.3943
0
VERTEX
8
CUT
10
133.0858
20
117.3984
0
VERTEX
8
CUT
10
132.9940
20
117.4203
0
VERTEX
8
CUT
10
132.9794
20
117.4230
0
VERTEX
8
CUT
10
132.8859
20
117.4357
0
VERTEX
8
CUT
10
132.8711
20
117.4370
0
VERTEX
8
CUT
10
132.7768
20
117.4403
0
VERTEX
8
CUT
10
132.7620
20
117.4401
0
VERTEX
8
CUT
10
132.6678
20
117.4340
0
VERTEX
8
CUT
10
132.6530
20
117.4323
0
VERTEX
8
CUT
10
132.5599
20
117.4170
0
VERTEX
8
CUT
10
132.5454
20
117.4138
0
VERTEX
8
CUT
10
132.4543
20
117.3893
0
VERTEX
8
CUT
10
132.4402
20
117.3847
0
VERTEX
8
CUT
10
132.3520
20
117.3513
0
VERTEX
8
CUT
10
132.3384
20
117.3453
0
VERTEX
8
CUT
10
132.2539
20
117.3033
0
VERTEX
8
CUT
10
132.2410
20
117.2960
0
VERTEX
8
CUT
10
132.1611
20
117.2458
0
VERTEX
8
CUT
10
132.1489
20
117.2373
0
VERTEX
8
CUT
10
132.0744
20
117.1794
0
VERTEX
8
CUT
10
132.0632
20
117.1697
0
VERTEX
8
CUT
10
131.9948
20
117.1046
0
VERTEX
8
CUT
10
131.9845
20
117.0939
0
VERTEX
8
CUT
10
131.9230
20
117.0224
0
VERTEX
8
CUT
10
131.9138
20
117.0107
0
VERTEX
8
CUT
10
131.8596
20
116.9334
0
VERTEX
8
CUT
10
131.8517
20
116.9209
0
VERTEX
8
CUT
10
131.8055
20
116.8386
0
VERTEX
8
CUT
10
131.7989
20
116.8254
0
VERTEX
8
CUT
10
131.7610
20
116.7389
0
VERTEX
8
CUT
10
131.7557
20
116.7250
0
VERTEX
8
CUT
10
131.7266
20
116.6353
0
VERTEX
8
CUT
10
131.7228
20
116.6209
0
VERTEX
8
CUT
10
131.7027
20
116.5287
0
VERTEX
8
CUT
10
131.7003
20
116.5141
0
VERTEX
8
CUT
10
131.6895
20
116.4204
0
VERTEX
8
CUT
10
131.6869
20
116.3795
0
VERTEX
8
CUT
10
131.6850
20
116.3323
0
VERTEX
8
CUT
10
131.6793
20
115.9596
0
VERTEX
8
CUT
10
131.6797
20
115.9153
0
VERTEX
8
CUT
10
131.6809
20
115.8768
0
VERTEX
8
CUT
10
131.6879
20
115.7884
0
VERTEX
8
CUT
10
131.6896
20
115.7746
0
VERTEX
8
CUT
10
131.7047
20
115.6873
0
VERTEX
8
CUT
10
131.7078
20
115.6736
0
VERTEX
8
CUT
10
131.7310
20
115.5881
0
VERTEX
8
CUT
10
131.7353
20
115.5748
0
VERTEX
8
CUT
10
131.7664
20
115.4918
0
VERTEX
8
CUT
10
131.7719
20
115.4790
0
VERTEX
8
CUT
10
131.8106
20
115.3992
0
VERTEX
8
CUT
10
131.8172
20
115.3870
0
VERTEX
8
CUT
10
131.8632
20
115.3112
0
VERTEX
8
CUT
10
131.8710
20
115.2996
0
VERTEX
8
CUT
10
131.9238
20
115.2285
0
VERTEX
8
CUT
10
131.9327
20
115.2177
0
VERTEX
8
CUT
10
131.9919
20
115.1517
0
VERTEX
8
CUT
10
132.0017
20
115.1418
0
VERTEX
8
CUT
10
132.0668
20
115.0817
0
VERTEX
8
CUT
10
132.0963
20
115.0569
0
VERTEX
8
CUT
10
132.1309
20
115.0292
0
VERTEX
8
CUT
10
133.7791
20
113.7712
0
VERTEX
8
CUT
10
133.8121
20
113.7471
0
VERTEX
8
CUT
10
133.8412
20
113.7268
0
VERTEX
8
CUT
10
133.9102
20
113.6830
0
VERTEX
8
CUT
10
133.9409
20
113.6652
0
VERTEX
8
CUT
10
133.9768
20
113.6456
0
VERTEX
8
CUT
10
135.2390
20
112.9888
0
VERTEX
8
CUT
10
135.2744
20
112.9713
0
VERTEX
8
CUT
10
135.3055
20
112.9567
0
VERTEX
8
CUT
10
135.3783
20
112.9262
0
VERTEX
8
CUT
10
135.4104
20
112.9143
0
VERTEX
8
CUT
10
135.4478
20
112.9014
0
VERTEX
8
CUT
10
135.9654
20
112.7336
0
VERTEX
8
CUT
10
136.0100
20
112.7203
0
VERTEX
8
CUT
10
136.0489
20
112.7098
0
VERTEX
8
CUT
10
136.1398
20
112.6899
0
VERTEX
8
CUT
10
136.1542
20
112.6875
0
VERTEX
8
CUT
10
136.2465
20
112.6766
0
VERTEX
8
CUT
10
136.2611
20
112.6756
0
VERTEX
8
CUT
10
136.3541
20
112.6738
0
VERTEX
8
CUT
10
136.3687
20
112.6742
0
VERTEX
8
CUT
10
136.4614
20
112.6815
0
VERTEX
8
CUT
10
136.4759
20
112.6834
0
VERTEX
8
CUT
10
136.5675
20
112.6997
0
VERTEX
8
CUT
10
136.5817
20
112.7030
0
VERTEX
8
CUT
10
136.6712
20
112.7282
0
VERTEX
8
CUT
10
136.6851
20
112.7328
0
VERTEX
8
CUT
10
136.7717
20
112.7667
0
VERTEX
8
CUT
10
136.7851
20
112.7727
0
VERTEX
8
CUT
10
136.8680
20
112.8148
0
VERTEX
8
CUT
10
136.8807
20
112.8221
0
VERTEX
8
CUT
10
136.9590
20
112.8721
0
VERTEX
8
CUT
10
136.9709
20
112.8806
0
VERTEX
8
CUT
10
137.0440
20
112.9381
0
VERTEX
8
CUT
10
137.0551
20
112.9477
0
VERTEX
8
CUT
10
137.1222
20
113.0120
0
VERTEX
8
CUT
10
137.1322
20
113.0227
0
VERTEX
8
CUT
10
137.1927
20
113.0933
0
VERTEX
8
CUT
10
137.2017
20
113.1048
0
VERTEX
8
CUT
10
137.2550
20
113.1810
0
VERTEX
8
CUT
10
137.2628
20
113.1934
0
VERTEX
8
CUT
10
137.3084
20
113.2744
0
VERTEX
8
CUT
10
137.3149
20
113.2875
0
VERTEX
8
CUT
10
137.3524
20
113.3726
0
VERTEX
8
CUT
10
137.3576
20
113.3863
0
VERTEX
8
CUT
10
137.3865
20
113.4747
0
VERTEX
8
CUT
10
137.3904
20
113.4888
0
VERTEX
8
CUT
10
137.4106
20
113.5796
0
VERTEX
8
CUT
10
137.4130
20
113.5940
0
VERTEX
8
CUT
10
137.4242
20
113.6863
0
VERTEX
8
CUT
10
137.4253
20
113.7009
0
VERTEX
8
CUT
10
137.4274
20
113.7938
0
VERTEX
8
CUT
10
137.4270
20
113.8085
0
VERTEX
8
CUT
10
137.4200
20
113.9012
0
VERTEX
8
CUT
10
137.4181
20
113.9157
0
VERTEX
8
CUT
10
137.4021
20
114.0073
0
VERTEX
8
CUT
10
137.3989
20
114.0216
0
VERTEX
8
CUT
10
137.3739
20
114.1111
0
VERTEX
8
CUT
10
137.3693
20
114.1250
0
VERTEX
8
CUT
10
137.3358
20
114.2117
0
VERTEX
8
CUT
10
137.3298
20
114.2251
0
VERTEX
8
CUT
10
137.2879
20
114.3081
0
VERTEX
8
CUT
10
137.2680
20
114.3432
0
VERTEX
8
CUT
10
137.2440
20
114.3831
0
VERTEX
8
CUT
10
137.0970
20
114.6148
0
VERTEX
8
CUT
10
137.0681
20
114.6578
0
VERTEX
8
CUT
10
137.0420
20
114.6944
0
VERTEX
8
CUT
10
136.9773
20
114.7753
0
VERTEX
8
CUT
10
136.9664
20
114.7874
0
VERTEX
8
CUT
10
136.8933
20
114.8608
0
VERTEX
8
CUT
10
136.8812
20
114.8717
0
VERTEX
8
CUT
10
136.8006
20
114.9366
0
VERTEX
8
CUT
10
136.7641
20
114.9628
0
VERTEX
8
CUT
10
136.7212
20
114.9919
0
VERTEX
8
CUT
10
134.1374
20
116.6436
0
VERTEX
8
CUT
10
133.9975
20
116.7413
0
VERTEX
8
CUT
10
133.8660
20
116.8500
0
SEQEND
0
POLYLINE
8
CUT
66
1
70
1
10
0.0
20
0.0
30
0.0
0
VERTEX
8
CUT
10
106.5332
20
56.3701
0
VERTEX
8
CUT
10
106.5652
20
56.3382
0
VERTEX
8
CUT
10
106.5943
20
56.3108
0
VERTEX
8
CUT
10
106.6641
20
56.2508
0
VERTEX
8
CUT
10
106.6756
20
56.2419
0
VERTEX
8
CUT
10
106.7509
20
56.1890
0
VERTEX
8
CUT
10
106.7631
20
56.1813
0
VERTEX
8
CUT
10
106.8432
20
56.1359
0
VERTEX
8
CUT
10
106.8562
20
56.1294
0
VERTEX
8
CUT
10
106.9403
20
56.0920
0
VERTEX
8
CUT
10
106.9538
20
56.0867
0
VERTEX
8
CUT
10
107.0412
20
56.0577
0
VERTEX
8
CUT
10
107.0551
20
56.0538
0
VERTEX
8
CUT
10
107.1449
20
56.0333
0
VERTEX
8
CUT
10
107.1591
20
56.0307
0
VERTEX
8
CUT
10
107.2504
20
56.0191
0
VERTEX
8
CUT
10
107.2649
20
56.0179
0
VERTEX
8
CUT
10
107.3569
20
56.0151
0
VERTEX
8
CUT
10
107.3714
20
56.0154
0
VERTEX
8
CUT
10
107.4632
20
56.0215
0
VERTEX
8
CUT
10
107.4776
20
56.0232
0
VERTEX
8
CUT
10
107.5685
20
56.0382
0
VERTEX
8
CUT
10
107.5826
20
56.0413
0
VERTEX
8
CUT
10
107.6716
20
56.0650
0
VERTEX
8
CUT
10
107.6854
20
56.0694
0
VERTEX
8
CUT
10
107.7716
20
56.1016
0
VERTEX
8
CUT
10
107.7849
20
56.1074
0
VERTEX
8
CUT
10
107.8676
20
56.1478
0
VERTEX
8
CUT
10
107.8803
20
56.1548
0
VERTEX
8
CUT
10
107.9587
20
56.2030
0
VERTEX
8
CUT
10
107.9707
20
56.2112
0
VERTEX
8
CUT
10
108.0440
20
56.2669
0
VERTEX
8
CUT
10
108.0551
20
56.2762
0
VERTEX
8
CUT
10
108.1228
20
56.3386
0
VERTEX
8
CUT
10
108.1329
20
56.3490
0
VERTEX
8
CUT
10
108.1942
20
56.4177
0
VERTEX
8
CUT
10
108.2033
20
56.4290
0
VERTEX
8
CUT
10
108.2576
20
56.5033
0
VERTEX
8
CUT
10
108.2655
20
56.5154
0
VERTEX
8
CUT
10
108.3124
20
56.5946
0
VERTEX
8
CUT
10
108.3192
20
56.6074
0
VERTEX
8
CUT
10
108.3581
20
56.6909
0
VERTEX
8
CUT
10
108.3636
20
56.7043
0
VERTEX
8
CUT
10
108.3943
20
56.7911
0
VERTEX
8
CUT
10
108.3985
20
56.8049
0
VERTEX
8
CUT
10
108.4206
20
56.8943
0
VERTEX
8
CUT
10
108.4234
20
56.9085
0
VERTEX
8
CUT
10
108.4368
20
56.9996
0
VERTEX
8
CUT
10
108.4382
20
57.0140
0
VERTEX
8
CUT
10
108.4427
20
57.1060
0
VERTEX
8
CUT
10
108.4427
20
57.1204
0
VERTEX
8
CUT
10
108.4383
20
57.2124
0
VERTEX
8
CUT
10
108.4369
20
57.2268
0
VERTEX
8
CUT
10
108.4236
20
57.3179
0
VERTEX
8
CUT
10
108.4208
20
57.3321
0
VERTEX
8
CUT
10
108.3987
20
57.4215
0
VERTEX
8
CUT
10
108.3946
20
57.4354
0
VERTEX
8
CUT
10
108.3640
20
57.5222
0
VERTEX
8
CUT
10
108.3489
20
57.5592
0
VERTEX
8
CUT
10
108.3304
20
57.6014
0
VERTEX
8
CUT
10
107.7665
20
58.8113
0
VERTEX
8
CUT
10
107.7428
20
58.8587
0
VERTEX
8
CUT
10
107.7211
20
58.8993
0
VERTEX
8
CUT
10
107.6659
20
58.9897
0
VERTEX
8
CUT
10
107.6565
20
59.0034
0
VERTEX
8
CUT
10
107.5916
20
59.0871
0
VERTEX
8
CUT
10
107.5615
20
59.1218
0
VERTEX
8
CUT
10
107.5256
20
59.1608
0
VERTEX
8
CUT
10
106.9300
20
59.7737
0
VERTEX
8
CUT
10
106.8971
20
59.8060
0
VERTEX
8
CUT
10
106.8679
20
59.8332
0
VERTEX
8
CUT
10
106.7977
20
59.8927
0
VERTEX
8
CUT
10
106.7862
20
59.9015
0
VERTEX
8
CUT
10
106.7106
20
59.9539
0
VERTEX
8
CUT
10
106.6983
20
59.9616
0
VERTEX
8
CUT
10
106.6180
20
60.0064
0
VERTEX
8
CUT
10
106.6050
20
60.0128
0
VERTEX
8
CUT
10
106.5207
20
60.0497
0
VERTEX
8
CUT
10
106.5071
20
60.0548
0
VERTEX
8
CUT
10
106.4197
20
60.0833
0
VERTEX
8
CUT
10
106.4057
20
60.0871
0
VERTEX
8
CUT
10
106.3159
20
60.1070
0
VERTEX
8
CUT
10
106.3016
20
60.1095
0
VERTEX
8
CUT
10
106.2102
20
60.1206
0
VERTEX
8
CUT
10
106.1958
20
60.1216
0
VERTEX
8
CUT
10
106.1038
20
60.1239
0
VERTEX
8
CUT
10
106.0893
20
60.1235
0
VERTEX
8
CUT
10
105.9976
20
60.1168
0
VERTEX
8
CUT
10
105.9832
20
60.1150
0
VERTEX
8
CUT
10
105.8925
20
60.0995
0
VERTEX
8
CUT
10
105.8784
20
60.0964
0
VERTEX
8
CUT
10
105.7896
20
60.0721
0
VERTEX
8
CUT
10
105.7759
20
60.0676
0
VERTEX
8
CUT
10
105.6899
20
60.0349
0
VERTEX
8
CUT
10
105.6766
20
60.0291
0
VERTEX
8
CUT
10
105.5942
20
59.9882
0
VERTEX
8
CUT
10
105.5815
20
59.9811
0
VERTEX
8
CUT
10
105.5035
20
59.9324
0
VERTEX
8
CUT
10
105.4916
20
59.9242
0
VERTEX
8
CUT
10
105.4186
20
59.8682
0
VERTEX
8
CUT
10
105.4075
20
59.8588
0
VERTEX
8
CUT
10
105.3403
20
59.7960
0
VERTEX
8
CUT
10
105.3302
20
59.7856
0
VERTEX
8
CUT
10
105.2694
20
59.7165
0
VERTEX
8
CUT
10
105.2604
20
59.7052
0
VERTEX
8
CUT
10
105.2065
20
59.6306
0
VERTEX
8
CUT
10
105.1986
20
59.6185
0
VERTEX
8
CUT
10
105.1522
20
59.5390
0
VERTEX
8
CUT
10
105.1455
20
59.5262
0
VERTEX
8
CUT
10
105.1071
20
59.4426
0
VERTEX
8
CUT
10
105.1016
20
59.4292
0
VERTEX
8
CUT
10
105.0714
20
59.3423
0
VERTEX
8
CUT
10
105.0674
20
59.3284
0
VERTEX
8
CUT
10
105.0457
20
59.2389
0
VERTEX
8
CUT
10
105.0430
20
59.2247
0
VERTEX
8
CUT
10
105.0301
20
59.1336
0
VERTEX
8
CUT
10
105.0288
20
59.1192
0
VERTEX
8
CUT
10
105.0248
20
59.0273
0
VERTEX
8
CUT
10
105.0248
20
59.0128
0
VERTEX
8
CUT
10
105.0297
20
58.9209
0
VERTEX
8
CUT
10
105.0312
20
58.9065
0
VERTEX
8
CUT
10
105.0450
20
58.8155
0
VERTEX
8
CUT
10
105.0479
20
58.8013
0
VERTEX
8
CUT
10
105.0704
20
58.7121
0
VERTEX
8
CUT
10
105.0746
20
58.6983
0
VERTEX
8
CUT
10
105.1057
20
58.6117
0
VERTEX
8
CUT
10
105.1209
20
58.5748
0
VERTEX
8
CUT
10
105.1396
20
58.5327
0
VERTEX
8
CUT
10
105.1483
20
58.5142
0
VERTEX
8
CUT
10
105.1758
20
58.4604
0
VERTEX
8
CUT
10
105.2173
20
58.3853
0
VERTEX
8
CUT
10
105.2482
20
58.3334
0
VERTEX
8
CUT
10
106.3691
20
56.5788
0
VERTEX
8
CUT
10
106.3951
20
56.5402
0
VERTEX
8
CUT
10
106.4185
20
56.5073
0
VERTEX
8
CUT
10
106.4760
20
56.4342
0
VERTEX
8
CUT
10
106.5024
20
56.4038
0
SEQEND
0
POLYLINE
8
CUT
66
1
70
1
10
0.0
20
0.0
30
0.0
0
VERTEX
8
CUT
10
99.7581
20
115.9420
0
VERTEX
8
CUT
10
99.8381
20
115.8499
0
VERTEX
8
CUT
10
99.9652
20
115.6678
0
VERTEX
8
CUT
10
100.0723
20
115.4733
0
VERTEX
8
CUT
10
100.1582
20
115.2686
0
VERTEX
8
CUT
10
100.2221
20
115.0559
0
VERTEX
8
CUT
10
100.2632
20
114.8377
0
VERTEX
8
CUT
10
100.2798
20
114.7136
0
VERTEX
8
CUT
10
100.2825
20
114.6991
0
VERTEX
8
CUT
10
100.2983
20
114.6323
0
VERTEX
8
CUT
10
100.3350
20
114.4345
0
VERTEX
8
CUT
10
100.3527
20
114.2341
0
VERTEX
8
CUT
10
100.3512
20
114.0330
0
VERTEX
8
CUT
10
100.3304
20
113.8329
0
VERTEX
8
CUT
10
100.2905
20
113.6357
0
VERTEX
8
CUT
10
100.2320
20
113.4433
0
VERTEX
8
CUT
10
100.1553
20
113.2573
0
VERTEX
8
CUT
10
100.0612
20
113.0795
0
VERTEX
8
CUT
10
99.9505
20
112.9115
0
VERTEX
8
CUT
10
99.8242
20
112.7549
0
VERTEX
8
CUT
10
99.6836
20
112.6112
0
VERTEX
8
CUT
10
99.5298
20
112.4815
0
VERTEX
8
CUT
10
99.3643
20
112.3671
0
VERTEX
8
CUT
10
99.1886
20
112.2691
0
VERTEX
8
CUT
10
99.0972
20
112.2237
0
VERTEX
8
CUT
10
99.0842
20
112.2164
0
VERTEX
8
CUT
10
99.0040
20
112.1660
0
VERTEX
8
CUT
10
98.9918
20
112.1575
0
VERTEX
8
CUT
10
98.9170
20
112.0994
0
VERTEX
8
CUT
10
98.9057
20
112.0896
0
VERTEX
8
CUT
10
98.8371
20
112.0244
0
VERTEX
8
CUT
10
98.8268
20
112.0136
0
VERTEX
8
CUT
10
98.7650
20
111.9418
0
VERTEX
8
CUT
10
98.7559
20
111.9300
0
VERTEX
8
CUT
10
98.7016
20
111.8524
0
VERTEX
8
CUT
10
98.6937
20
111.8398
0
VERTEX
8
CUT
10
98.6474
20
111.7572
0
VERTEX
8
CUT
10
98.6407
20
111.7438
0
VERTEX
8
CUT
10
98.6029
20
111.6570
0
VERTEX
8
CUT
10
98.5976
20
111.6431
0
VERTEX
8
CUT
10
98.5686
20
111.5529
0
VERTEX
8
CUT
10
98.5647
20
111.5385
0
VERTEX
8
CUT
10
98.5449
20
111.4459
0
VERTEX
8
CUT
10
98.5425
20
111.4312
0
VERTEX
8
CUT
10
98.5319
20
111.3371
0
VERTEX
8
CUT
10
98.5310
20
111.3222
0
VERTEX
8
CUT
10
98.5298
20
111.2275
0
VERTEX
8
CUT
10
98.5304
20
111.2127
0
VERTEX
8
CUT
10
98.5387
20
111.1183
0
VERTEX
8
CUT
10
98.5408
20
111.1036
0
VERTEX
8
CUT
10
98.5584
20
111.0105
0
VERTEX
8
CUT
10
98.5620
20
110.9960
0
VERTEX
8
CUT
10
98.5888
20
110.9052
0
VERTEX
8
CUT
10
98.6024
20
110.8664
0
VERTEX
8
CUT
10
98.6192
20
110.8221
0
VERTEX
8
CUT
10
98.6635
20
110.7136
0
VERTEX
8
CUT
10
98.6835
20
110.6678
0
VERTEX
8
CUT
10
98.7020
20
110.6287
0
VERTEX
8
CUT
10
98.7492
20
110.5407
0
VERTEX
8
CUT
10
98.7573
20
110.5273
0
VERTEX
8
CUT
10
98.8134
20
110.4448
0
VERTEX
8
CUT
10
98.8229
20
110.4324
0
VERTEX
8
CUT
10
98.8874
20
110.3562
0
VERTEX
8
CUT
10
98.8982
20
110.3448
0
VERTEX
8
CUT
10
98.9703
20
110.2759
0
VERTEX
8
CUT
10
98.9822
20
110.2656
0
VERTEX
8
CUT
10
99.0612
20
110.2046
0
VERTEX
8
CUT
10
99.0741
20
110.1957
0
VERTEX
8
CUT
10
99.1590
20
110.1433
0
VERTEX
8
CUT
10
99.1970
20
110.1226
0
VERTEX
8
CUT
10
99.2414
20
110.0998
0
VERTEX
8
CUT
10
99.2757
20
110.0834
0
VERTEX
8
CUT
10
99.3194
20
110.0637
0
VERTEX
8
CUT
10
99.3577
20
110.0477
0
VERTEX
8
CUT
10
99.4477
20
110.0152
0
VERTEX
8
CUT
10
99.4621
20
110.0108
0
VERTEX
8
CUT
10
99.5549
20
109.9875
0
VERTEX
8
CUT
10
99.5696
20
109.9846
0
VERTEX
8
CUT
10
99.6643
20
109.9708
0
VERTEX
8
CUT
10
99.6793
20
109.9693
0
VERTEX
8
CUT
10
99.7749
20
109.9651
0
VERTEX
8
CUT
10
99.8165
20
109.9654
0
VERTEX
8
CUT
10
99.8643
20
109.9669
0
VERTEX
8
CUT
10
100.4820
20
110.0020
0
VERTEX
8
CUT
10
100.5352
20
110.0066
0
VERTEX
8
CUT
10
100.5813
20
110.0118
0
VERTEX
8
CUT
10
100.6865
20
110.0298
0
VERTEX
8
CUT
10
100.7029
20
110.0335
0
VERTEX
8
CUT
10
100.8054
20
110.0632
0
VERTEX
8
CUT
10
100.8491
20
110.0786
0
VERTEX
8
CUT
10
100.8990
20
110.0977
0
VERTEX
8
CUT
10
101.2905
20
110.2607
0
VERTEX
8
CUT
10
101.3300
20
110.2782
0
VERTEX
8
CUT
10
101.3638
20
110.2941
0
VERTEX
8
CUT
10
101.4401
20
110.3343
0
VERTEX
8
CUT
10
101.4518
20
110.3412
0
VERTEX
8
CUT
10
101.5241
20
110.3882
0
VERTEX
8
CUT
10
101.5352
20
110.3961
0
VERTEX
8
CUT
10
101.6029
20
110.4494
0
VERTEX
8
CUT
10
101.6312
20
110.4739
0
VERTEX
8
CUT
10
101.6632
20
110.5028
0
VERTEX
8
CUT
10
102.1889
20
111.0002
0
VERTEX
8
CUT
10
102.2257
20
111.0370
0
VERTEX
8
CUT
10
102.2567
20
111.0698
0
VERTEX
8
CUT
10
102.3240
20
111.1491
0
VERTEX
8
CUT
10
102.3338
20
111.1622
0
VERTEX
8
CUT
10
102.3920
20
111.2483
0
VERTEX
8
CUT
10
102.4004
20
111.2624
0
VERTEX
8
CUT
10
102.4488
20
111.3544
0
VERTEX
8
CUT
10
102.4676
20
111.3955
0
VERTEX
8
CUT
10
102.4880
20
111.4434
0
VERTEX
8
CUT
10
102.7150
20
112.0210
0
VERTEX
8
CUT
10
102.7940
20
112.1975
0
VERTEX
8
CUT
10
102.8888
20
112.3660
0
VERTEX
8
CUT
10
102.9988
20
112.5251
0
VERTEX
8
CUT
10
103.1229
20
112.6734
0
VERTEX
8
CUT
10
103.4381
20
113.0166
0
VERTEX
8
CUT
10
103.4694
20
113.0524
0
VERTEX
8
CUT
10
103.4957
20
113.0841
0
VERTEX
8
CUT
10
103.5526
20
113.1600
0
VERTEX
8
CUT
10
103.5609
20
113.1724
0
VERTEX
8
CUT
10
103.6100
20
113.2537
0
VERTEX
8
CUT
10
103.6170
20
113.2668
0
VERTEX
8
CUT
10
103.6577
20
113.3526
0
VERTEX
8
CUT
10
103.6634
20
113.3663
0
VERTEX
8
CUT
10
103.6953
20
113.4557
0
VERTEX
8
CUT
10
103.6996
20
113.4700
0
VERTEX
8
CUT
10
103.7225
20
113.5621
0
VERTEX
8
CUT
10
103.7253
20
113.5768
0
VERTEX
8
CUT
10
103.7388
20
113.6707
0
VERTEX
8
CUT
10
103.7402
20
113.6856
0
VERTEX
8
CUT
10
103.7443
20
113.7804
0
VERTEX
8
CUT
10
103.7442
20
113.7953
0
VERTEX
8
CUT
10
103.7388
20
113.8901
0
VERTEX
8
CUT
10
103.7372
20
113.9049
0
VERTEX
8
CUT
10
103.7223
20
113.9987
0
VERTEX
8
CUT
10
103.7192
20
114.0133
0
VERTEX
8
CUT
10
103.6951
20
114.1051
0
VERTEX
8
CUT
10
103.6906
20
114.1193
0
VERTEX
8
CUT
10
103.6574
20
114.2082
0
VERTEX
8
CUT
10
103.6515
20
114.2219
0
VERTEX
8
CUT
10
103.6096
20
114.3071
0
VERTEX
8
CUT
10
103.6023
20
114.3201
0
VERTEX
8
CUT
10
103.5522
20
114.4007
0
VERTEX
8
CUT
10
103.5436
20
114.4129
0
VERTEX
8
CUT
10
103.4857
20
114.4881
0
VERTEX
8
CUT
10
103.4760
20
114.4994
0
VERTEX
8
CUT
10
103.4108
20
114.5684
0
VERTEX
8
CUT
10
103.4000
20
114.5787
0
VERTEX
8
CUT
10
103.3282
20
114.6408
0
VERTEX
8
CUT
10
103.3165
20
114.6500
0
VERTEX
8
CUT
10
103.2389
20
114.7047
0
VERTEX
8
CUT
10
103.2263
20
114.7127
0
VERTEX
8
CUT
10
103.0979
20
114.7851
0
VERTEX
8
CUT
10
103.0983
20
114.7859
0
VERTEX
8
CUT
10
102.9785
20
114.8534
0
VERTEX
8
CUT
10
102.8077
20
114.9735
0
VERTEX
8
CUT
10
102.6497
20
115.1098
0
VERTEX
8
CUT
10
102.5060
20
115.2612
0
VERTEX
8
CUT
10
102.2129
20
115.6027
0
VERTEX
8
CUT
10
102.1815
20
115.6374
0
VERTEX
8
CUT
10
102.1775
20
115.6416
0
VERTEX
8
CUT
10
102.0473
20
115.7926
0
VERTEX
8
CUT
10
101.9321
20
115.9554
0
VERTEX
8
CUT
10
101.8327
20
116.1283
0
VERTEX
8
CUT
10
101.7503
20
116.3098
0
VERTEX
8
CUT
10
101.6854
20
116.4984
0
VERTEX
8
CUT
10
101.6387
20
116.6922
0
VERTEX
8
CUT
10
101.6179
20
116.8384
0
VERTEX
8
CUT
10
101.6086
20
116.9030
0
VERTEX
8
CUT
10
101.5912
20
116.9931
0
VERTEX
8
CUT
10
101.5818
20
117.0319
0
VERTEX
8
CUT
10
101.5698
20
117.0762
0
VERTEX
8
CUT
10
101.3845
20
117.7030
0
VERTEX
8
CUT
10
101.3699
20
117.7482
0
VERTEX
8
CUT
10
101.3563
20
117.7870
0
VERTEX
8
CUT
10
101.3205
20
117.8747
0
VERTEX
8
CUT
10
101.3142
20
117.8882
0
VERTEX
8
CUT
10
101.2698
20
117.9720
0
VERTEX
8
CUT
10
101.2488
20
118.0073
0
VERTEX
8
CUT
10
101.2235
20
118.0474
0
VERTEX
8
CUT
10
100.9019
20
118.5308
0
VERTEX
8
CUT
10
100.8748
20
118.5694
0
VERTEX
8
CUT
10
100.8504
20
118.6024
0
VERTEX
8
CUT
10
100.7906
20
118.6754
0
VERTEX
8
CUT
10
100.7806
20
118.6864
0
VERTEX
8
CUT
10
100.7139
20
118.7531
0
VERTEX
8
CUT
10
100.7028
20
118.7630
0
VERTEX
8
CUT
10
100.6298
20
118.8228
0
VERTEX
8
CUT
10
100.6178
20
118.8316
0
VERTEX
8
CUT
10
100.5392
20
118.8838
0
VERTEX
8
CUT
10
100.5264
20
118.8914
0
VERTEX
8
CUT
10
100.4430
20
118.9355
0
VERTEX
8
CUT
10
100.4295
20
118.9418
0
VERTEX
8
CUT
10
100.3421
20
118.9774
0
VERTEX
8
CUT
10
100.3281
20
118.9823
0
VERTEX
8
CUT
10
100.2376
20
119.0090
0
VERTEX
8
CUT
10
100.2232
20
119.0125
0
VERTEX
8
CUT
10
100.1305
20
119.0302
0
VERTEX
8
CUT
10
100.1158
20
119.0322
0
VERTEX
8
CUT
10
100.0218
20
119.0406
0
VERTEX
8
CUT
10
100.0069
20
119.0412
0
VERTEX
8
CUT
10
99.9126
20
119.0401
0
VERTEX
8
CUT
10
99.8977
20
119.0392
0
VERTEX
8
CUT
10
99.8039
20
119.0289
0
VERTEX
8
CUT
10
99.7893
20
119.0265
0
VERTEX
8
CUT
10
99.6970
20
119.0068
0
VERTEX
8
CUT
10
99.6826
20
119.0030
0
VERTEX
8
CUT
10
99.5927
20
118.9743
0
VERTEX
8
CUT
10
99.5788
20
118.9691
0
VERTEX
8
CUT
10
99.4922
20
118.9316
0
VERTEX
8
CUT
10
99.4789
20
118.9250
0
VERTEX
8
CUT
10
99.3964
20
118.8791
0
VERTEX
8
CUT
10
99.3838
20
118.8713
0
VERTEX
8
CUT
10
99.3064
20
118.8174
0
VERTEX
8
CUT
10
99.2946
20
118.8083
0
VERTEX
8
CUT
10
99.2228
20
118.7470
0
VERTEX
8
CUT
10
99.2120
20
118.7368
0
VERTEX
8
CUT
10
99.1467
20
118.6687
0
VERTEX
8
CUT
10
99.1370
20
118.6575
0
VERTEX
8
CUT
10
99.0788
20
118.5832
0
VERTEX
8
CUT
10
99.0702
20
118.5711
0
VERTEX
8
CUT
10
99.0196
20
118.4914
0
VERTEX
8
CUT
10
99.0123
20
118.4785
0
VERTEX
8
CUT
10
98.9699
20
118.3941
0
VERTEX
8
CUT
10
98.9639
20
118.3806
0
VERTEX
8
CUT
10
98.9301
20
118.2925
0
VERTEX
8
CUT
10
98.9255
20
118.2783
0
VERTEX
8
CUT
10
98.9006
20
118.1873
0
VERTEX
8
CUT
10
98.8974
20
118.1728
0
VERTEX
8
CUT
10
98.8816
20
118.0798
0
VERTEX
8
CUT
10
98.8799
20
118.0650
0
VERTEX
8
CUT
10
98.8734
20
117.9709
0
VERTEX
8
CUT
10
98.8732
20
117.9560
0
VERTEX
8
CUT
10
98.8761
20
117.8617
0
VERTEX
8
CUT
10
98.8773
20
117.8469
0
VERTEX
8
CUT
10
98.8896
20
117.7533
0
VERTEX
8
CUT
10
98.8923
20
117.7387
0
VERTEX
8
CUT
10
98.9138
20
117.6468
0
VERTEX
8
CUT
10
98.9179
20
117.6325
0
VERTEX
8
CUT
10
98.9485
20
117.5433
0
VERTEX
8
CUT
10
98.9637
20
117.5052
0
VERTEX
8
CUT
10
98.9822
20
117.4618
0
VERTEX
8
CUT
10
99.5113
20
116.3054
0
VERTEX
8
CUT
10
99.5315
20
116.2641
0
VERTEX
8
CUT
10
99.5498
20
116.2287
0
VERTEX
8
CUT
10
99.5959
20
116.1493
0
VERTEX
8
CUT
10
99.6037
20
116.1371
0
VERTEX
8
CUT
10
99.6573
20
116.0625
0
VERTEX
8
CUT
10
99.6663
20
116.0512
0
VERTEX
8
CUT
10
99.7603
20
115.9439
0
SEQEND
0
POLYLINE
8
CUT
66
1
70
1
10
0.0
20
0.0
30
0.0
0
VERTEX
8
CUT
10
87.3870
20
213.5921
0
VERTEX
8
CUT
10
87.5008
20
213.4271
0
VERTEX
8
CUT
10
88.3297
20
212.0933
0
VERTEX
8
CUT
10
88.4099
20
211.9523
0
VERTEX
8
CUT
10
89.0862
20
210.6493
0
VERTEX
8
CUT
10
89.1576
20
210.4972
0
VERTEX
8
CUT
10
89.2166
20
210.3399
0
VERTEX
8
CUT
10
90.0232
20
207.8952
0
VERTEX
8
CUT
10
90.0713
20
207.7261
0
VERTEX
8
CUT
10
90.1050
20
207.5537
0
VERTEX
8
CUT
10
90.1242
20
207.3790
0
VERTEX
8
CUT
10
90.2780
20
205.1063
0
VERTEX
8
CUT
10
90.2806
20
204.8684
0
VERTEX
8
CUT
10
90.2563
20
204.6317
0
VERTEX
8
CUT
10
90.1211
20
203.7889
0
VERTEX
8
CUT
10
90.0861
20
203.6172
0
VERTEX
8
CUT
10
90.0369
20
203.4489
0
VERTEX
8
CUT
10
89.9739
20
203.2853
0
VERTEX
8
CUT
10
86.0630
20
194.2782
0
VERTEX
8
CUT
10
86.0470
20
194.2388
0
VERTEX
8
CUT
10
86.0338
20
194.2044
0
VERTEX
8
CUT
10
86.0071
20
194.1237
0
VERTEX
8
CUT
10
85.9971
20
194.0882
0
VERTEX
8
CUT
10
85.9864
20
194.0470
0
VERTEX
8
CUT
10
85.5609
20
192.2345
0
VERTEX
8
CUT
10
85.5507
20
192.1850
0
VERTEX
8
CUT
10
85.5430
20
192.1419
0
VERTEX
8
CUT
10
85.5305
20
192.0418
0
VERTEX
8
CUT
10
85.5274
20
191.9981
0
VERTEX
8
CUT
10
85.5251
20
191.9477
0
VERTEX
8
CUT
10
85.4961
20
190.3251
0
VERTEX
8
CUT
10
85.4964
20
190.2793
0
VERTEX
8
CUT
10
85.4976
20
190.2397
0
VERTEX
8
CUT
10
85.5048
20
190.1486
0
VERTEX
8
CUT
10
85.5098
20
190.1092
0
VERTEX
8
CUT
10
85.5166
20
190.0640
0
VERTEX
8
CUT
10
85.7891
20
188.5209
0
VERTEX
8
CUT
10
85.7976
20
188.4781
0
VERTEX
8
CUT
10
85.8059
20
188.4412
0
VERTEX
8
CUT
10
85.8289
20
188.3571
0
VERTEX
8
CUT
10
85.8405
20
188.3211
0
VERTEX
8
CUT
10
85.8549
20
188.2799
0
VERTEX
8
CUT
10
86.8429
20
185.6426
0
VERTEX
8
CUT
10
86.8642
20
185.5904
0
VERTEX
8
CUT
10
86.8967
20
185.5172
0
VERTEX
8
CUT
10
86.9211
20
185.4664
0
VERTEX
8
CUT
10
88.6166
20
182.1871
0
VERTEX
8
CUT
10
88.6308
20
182.1606
0
VERTEX
8
CUT
10
88.6516
20
182.1233
0
VERTEX
8
CUT
10
88.6667
20
182.0973
0
VERTEX
8
CUT
10
90.7530
20
178.6205
0
VERTEX
8
CUT
10
90.7782
20
178.5807
0
VERTEX
8
CUT
10
90.8010
20
178.5467
0
VERTEX
8
CUT
10
90.8572
20
178.4712
0
VERTEX
8
CUT
10
90.8666
20
178.4597
0
VERTEX
8
CUT
10
90.9300
20
178.3901
0
VERTEX
8
CUT
10
90.9406
20
178.3797
0
VERTEX
8
CUT
10
91.0106
20
178.3167
0
VERTEX
8
CUT
10
91.0220
20
178.3073
0
VERTEX
8
CUT
10
91.0979
20
178.2516
0
VERTEX
8
CUT
10
91.1103
20
178.2434
0
VERTEX
8
CUT
10
91.1914
20
178.1955
0
VERTEX
8
CUT
10
91.2045
20
178.1886
0
VERTEX
8
CUT
10
91.2899
20
178.1489
0
VERTEX
8
CUT
10
91.3036
20
178.1434
0
VERTEX
8
CUT
10
91.3925
20
178.1123
0
VERTEX
8
CUT
10
91.4067
20
178.1082
0
VERTEX
8
CUT
10
91.4983
20
178.0861
0
VERTEX
8
CUT
10
91.5128
20
178.0833
0
VERTEX
8
CUT
10
91.6061
20
178.0705
0
VERTEX
8
CUT
10
91.6209
20
178.0692
0
VERTEX
8
CUT
10
91.7150
20
178.0656
0
VERTEX
8
CUT
10
91.7298
20
178.0658
0
VERTEX
8
CUT
10
91.8238
20
178.0715
0
VERTEX
8
CUT
10
91.8385
20
178.0732
0
VERTEX
8
CUT
10
91.9314
20
178.0882
0
VERTEX
8
CUT
10
91.9459
20
178.0913
0
VERTEX
8
CUT
10
92.0369
20
178.1155
0
VERTEX
8
CUT
10
92.0511
20
178.1200
0
VERTEX
8
CUT
10
92.1392
20
178.1530
0
VERTEX
8
CUT
10
92.1528
20
178.1589
0
VERTEX
8
CUT
10
92.2373
20
178.2006
0
VERTEX
8
CUT
10
92.2502
20
178.2078
0
VERTEX
8
CUT
10
92.3301
20
178.2576
0
VERTEX
8
CUT
10
92.3637
20
178.2809
0
VERTEX
8
CUT
10
92.4017
20
178.3087
0
VERTEX
8
CUT
10
94.2203
20
179.7103
0
VERTEX
8
CUT
10
94.3692
20
179.8151
0
VERTEX
8
CUT
10
94.5266
20
179.9065
0
VERTEX
8
CUT
10
98.8769
20
182.1889
0
VERTEX
8
CUT
10
98.9157
20
182.2104
0
VERTEX
8
CUT
10
98.9490
20
182.2299
0
VERTEX
8
CUT
10
99.0234
20
182.2783
0
VERTEX
8
CUT
10
99.0347
20
182.2864
0
VERTEX
8
CUT
10
99.1043
20
182.3415
0
VERTEX
8
CUT
10
99.1148
20
182.3507
0
VERTEX
8
CUT
10
99.1789
20
182.4121
0
VERTEX
8
CUT
10
99.1885
20
182.4222
0
VERTEX
8
CUT
10
99.2466
20
182.4893
0
VERTEX
8
CUT
10
99.2552
20
182.5002
0
VERTEX
8
CUT
10
99.3068
20
182.5725
0
VERTEX
8
CUT
10
99.3277
20
182.6048
0
VERTEX
8
CUT
10
99.3509
20
182.6427
0
VERTEX
8
CUT
10
100.6253
20
184.8344
0
VERTEX
8
CUT
10
100.6522
20
184.8842
0
VERTEX
8
CUT
10
100.6884
20
184.9560
0
VERTEX
8
CUT
10
100.7124
20
185.0073
0
VERTEX
8
CUT
10
101.7448
20
187.3996
0
VERTEX
8
CUT
10
101.7653
20
187.4511
0
VERTEX
8
CUT
10
101.7922
20
187.5250
0
VERTEX
8
CUT
10
101.8096
20
187.5775
0
VERTEX
8
CUT
10
102.5312
20
189.9888
0
VERTEX
8
CUT
10
102.5406
20
190.0226
0
VERTEX
8
CUT
10
102.5483
20
190.0521
0
VERTEX
8
CUT
10
102.5634
20
190.1207
0
VERTEX
8
CUT
10
102.5688
20
190.1507
0
VERTEX
8
CUT
10
102.5745
20
190.1854
0
VERTEX
8
CUT
10
103.1167
20
193.9562
0
VERTEX
8
CUT
10
103.1218
20
193.9984
0
VERTEX
8
CUT
10
103.1254
20
194.0351
0
VERTEX
8
CUT
10
103.1299
20
194.1198
0
VERTEX
8
CUT
10
103.1302
20
194.1566
0
VERTEX
8
CUT
10
103.1296
20
194.1991
0
VERTEX
8
CUT
10
102.9692
20
198.6512
0
VERTEX
8
CUT
10
102.9660
20
198.7024
0
VERTEX
8
CUT
10
102.9620
20
198.7467
0
VERTEX
8
CUT
10
102.9473
20
198.8482
0
VERTEX
8
CUT
10
102.9385
20
198.8918
0
VERTEX
8
CUT
10
102.9271
20
198.9418
0
VERTEX
8
CUT
10
102.1310
20
202.0321
0
VERTEX
8
CUT
10
102.1114
20
202.0982
0
VERTEX
8
CUT
10
102.0801
20
202.1911
0
VERTEX
8
CUT
10
102.0557
20
202.2557
0
VERTEX
8
CUT
10
100.4383
20
206.1078
0
VERTEX
8
CUT
10
100.4255
20
206.1370
0
VERTEX
8
CUT
10
100.4065
20
206.1782
0
VERTEX
8
CUT
10
100.3927
20
206.2070
0
VERTEX
8
CUT
10
95.8789
20
215.2101
0
VERTEX
8
CUT
10
95.8145
20
215.3512
0
VERTEX
8
CUT
10
95.7607
20
215.4967
0
VERTEX
8
CUT
10
94.6543
20
218.8699
0
VERTEX
8
CUT
10
94.6085
20
219.0307
0
VERTEX
8
CUT
10
94.5757
20
219.1947
0
VERTEX
8
CUT
10
94.0700
20
222.3754
0
VERTEX
8
CUT
10
94.0473
20
222.5870
0
VERTEX
8
CUT
10
94.0461
20
222.7998
0
VERTEX
8
CUT
10
94.2069
20
226.3660
0
VERTEX
8
CUT
10
94.2281
20
226.5836
0
VERTEX
8
CUT
10
94.2719
20
226.7979
0
VERTEX
8
CUT
10
95.2608
20
230.6162
0
VERTEX
8
CUT
10
95.2899
20
230.7178
0
VERTEX
8
CUT
10
96.9440
20
235.9945
0
VERTEX
8
CUT
10
96.9586
20
236.0464
0
VERTEX
8
CUT
10
96.9773
20
236.1205
0
VERTEX
8
CUT
10
96.9890
20
236.1730
0
VERTEX
8
CUT
10
97.7586
20
240.1665
0
VERTEX
8
CUT
10
97.7656
20
240.2081
0
VERTEX
8
CUT
10
97.7709
20
240.2443
0
VERTEX
8
CUT
10
97.7795
20
240.3282
0
VERTEX
8
CUT
10
97.7816
20
240.3647
0
VERTEX
8
CUT
10
97.7830
20
240.4068
0
VERTEX
8
CUT
10
97.8374
20
244.6595
0
VERTEX
8
CUT
10
97.8366
20
244.7127
0
VERTEX
8
CUT
10
97.8333
20
244.7883
0
VERTEX
8
CUT
10
97.8295
20
244.8414
0
VERTEX
8
CUT
10
97.4110
20
249.0379
0
VERTEX
8
CUT
10
97.4056
20
249.0816
0
VERTEX
8
CUT
10
97.3965
20
249.1435
0
VERTEX
8
CUT
10
97.3891
20
249.1870
0
VERTEX
8
CUT
10
96.7612
20
252.4138
0
VERTEX
8
CUT
10
96.7514
20
252.4584
0
VERTEX
8
CUT
10
96.7419
20
252.4970
0
VERTEX
8
CUT
10
96.7159
20
252.5846
0
VERTEX
8
CUT
10
96.7112
20
252.5981
0
VERTEX
8
CUT
10
96.6769
20
252.6828
0
VERTEX
8
CUT
10
96.6709
20
252.6959
0
VERTEX
8
CUT
10
96.6286
20
252.7769
0
VERTEX
8
CUT
10
96.6213
20
252.7893
0
VERTEX
8
CUT
10
96.5715
20
252.8658
0
VERTEX
8
CUT
10
96.5631
20
252.8775
0
VERTEX
8
CUT
10
96.5061
20
252.9489
0
VERTEX
8
CUT
10
96.4966
20
252.9597
0
VERTEX
8
CUT
10
96.4330
20
253.0253
0
VERTEX
8
CUT
10
96.4225
20
253.0351
0
VERTEX
8
CUT
10
96.3529
20
253.0943
0
VERTEX
8
CUT
10
96.3415
20
253.1031
0
VERTEX
8
CUT
10
96.2665
20
253.1553
0
VERTEX
8
CUT
10
96.2543
20
253.1629
0
VERTEX
8
CUT
10
96.1747
20
253.2077
0
VERTEX
8
CUT
10
96.1618
20
253.2142
0
VERTEX
8
CUT
10
96.0783
20
253.2511
0
VERTEX
8
CUT
10
96.0648
20
253.2562
0
VERTEX
8
CUT
10
95.9781
20
253.2849
0
VERTEX
8
CUT
10
95.9643
20
253.2888
0
VERTEX
8
CUT
10
95.8752
20
253.3090
0
VERTEX
8
CUT
10
95.8610
20
253.3115
0
VERTEX
8
CUT
10
95.7704
20
253.3231
0
VERTEX
8
CUT
10
95.7560
20
253.3242
0
VERTEX
8
CUT
10
95.6647
20
253.3271
0
VERTEX
8
CUT
10
95.6503
20
253.3268
0
VERTEX
8
CUT
10
95.5592
20
253.3208
0
VERTEX
8
CUT
10
95.5449
20
253.3192
0
VERTEX
8
CUT
10
95.4547
20
253.3045
0
VERTEX
8
CUT
10
95.4407
20
253.3015
0
VERTEX
8
CUT
10
95.3523
20
253.2782
0
VERTEX
8
CUT
10
95.3386
20
253.2738
0
VERTEX
8
CUT
10
95.2529
20
253.2421
0
VERTEX
8
CUT
10
95.2164
20
253.2266
0
VERTEX
8
CUT
10
95.1748
20
253.2077
0
VERTEX
8
CUT
10
93.8278
20
252.5560
0
VERTEX
8
CUT
10
93.7898
20
252.5366
0
VERTEX
8
CUT
10
93.7572
20
252.5189
0
VERTEX
8
CUT
10
93.6840
20
252.4750
0
VERTEX
8
CUT
10
93.6531
20
252.4545
0
VERTEX
8
CUT
10
93.6180
20
252.4301
0
VERTEX
8
CUT
10
92.4135
20
251.5508
0
VERTEX
8
CUT
10
92.3767
20
251.5226
0
VERTEX
8
CUT
10
92.3454
20
251.4974
0
VERTEX
8
CUT
10
92.2763
20
251.4357
0
VERTEX
8
CUT
10
92.2659
20
251.4255
0
VERTEX
8
CUT
10
92.2031
20
251.3574
0
VERTEX
8
CUT
10
92.1938
20
251.3463
0
VERTEX
8
CUT
10
92.1379
20
251.2724
0
VERTEX
8
CUT
10
92.1297
20
251.2604
0
VERTEX
8
CUT
10
92.0813
20
251.1814
0
VERTEX
8
CUT
10
92.0743
20
251.1686
0
VERTEX
8
CUT
10
92.0338
20
251.0853
0
VERTEX
8
CUT
10
92.0281
20
251.0719
0
VERTEX
8
CUT
10
91.9959
20
250.9851
0
VERTEX
8
CUT
10
91.9915
20
250.9712
0
VERTEX
8
CUT
10
91.9680
20
250.8816
0
VERTEX
8
CUT
10
91.9597
20
250.8423
0
VERTEX
8
CUT
10
91.9512
20
250.7967
0
VERTEX
8
CUT
10
91.1967
20
246.1080
0
VERTEX
8
CUT
10
91.1587
20
245.9244
0
VERTEX
8
CUT
10
91.1045
20
245.7450
0
VERTEX
8
CUT
10
90.1602
20
243.0594
0
VERTEX
8
CUT
10
90.0897
20
242.8843
0
VERTEX
8
CUT
10
90.0037
20
242.7163
0
VERTEX
8
CUT
10
88.4681
20
240.0213
0
VERTEX
8
CUT
10
88.3816
20
239.8823
0
VERTEX
8
CUT
10
88.2844
20
239.7504
0
VERTEX
8
CUT
10
84.5871
20
235.1211
0
VERTEX
8
CUT
10
84.5643
20
235.0913
0
VERTEX
8
CUT
10
84.5327
20
235.0484
0
VERTEX
8
CUT
10
84.5111
20
235.0177
0
VERTEX
8
CUT
10
82.6462
20
232.2622
0
VERTEX
8
CUT
10
82.6213
20
232.2233
0
VERTEX
8
CUT
10
82.6004
20
232.1890
0
VERTEX
8
CUT
10
82.5563
20
232.1078
0
VERTEX
8
CUT
10
82.5389
20
232.0717
0
VERTEX
8
CUT
10
82.5198
20
232.0295
0
VERTEX
8
CUT
10
81.4881
20
229.5905
0
VERTEX
8
CUT
10
81.4735
20
229.5537
0
VERTEX
8
CUT
10
81.4614
20
229.5216
0
VERTEX
8
CUT
10
81.4368
20
229.4465
0
VERTEX
8
CUT
10
81.4334
20
229.4345
0
VERTEX
8
CUT
10
81.4151
20
229.3576
0
VERTEX
8
CUT
10
81.4086
20
229.3239
0
VERTEX
8
CUT
10
81.4018
20
229.2849
0
VERTEX
8
CUT
10
81.0398
20
226.8952
0
VERTEX
8
CUT
10
81.0341
20
226.8504
0
VERTEX
8
CUT
10
81.0301
20
226.8114
0
VERTEX
8
CUT
10
81.0251
20
226.7212
0
VERTEX
8
CUT
10
81.0248
20
226.6820
0
VERTEX
8
CUT
10
81.0256
20
226.6368
0
VERTEX
8
CUT
10
81.0734
20
225.4404
0
VERTEX
8
CUT
10
81.0782
20
225.3757
0
VERTEX
8
CUT
10
81.0882
20
225.2842
0
VERTEX
8
CUT
10
81.0974
20
225.2199
0
VERTEX
8
CUT
10
81.4764
20
223.0961
0
VERTEX
8
CUT
10
81.4856
20
223.0510
0
VERTEX
8
CUT
10
81.4945
20
223.0121
0
VERTEX
8
CUT
10
81.5193
20
222.9236
0
VERTEX
8
CUT
10
81.5320
20
222.8857
0
VERTEX
8
CUT
10
81.5476
20
222.8424
0
VERTEX
8
CUT
10
82.3668
20
220.7329
0
VERTEX
8
CUT
10
82.3830
20
220.6936
0
VERTEX
8
CUT
10
82.3979
20
220.6599
0
VERTEX
8
CUT
10
82.4356
20
220.5838
0
VERTEX
8
CUT
10
82.4535
20
220.5515
0
VERTEX
8
CUT
10
82.4748
20
220.5147
0
VERTEX
8
CUT
10
83.9271
20
218.1429
0
VERTEX
8
CUT
10
83.9535
20
218.1022
0
VERTEX
8
CUT
10
83.9924
20
218.0454
0
VERTEX
8
CUT
10
84.0208
20
218.0061
0
SEQEND
0
POLYLINE
8
CUT
66
1
70
1
10
0.0
20
0.0
30
0.0
0
VERTEX
8
CUT
10
96.6374
20
140.8726
0
VERTEX
8
CUT
10
96.5920
20
140.8857
0
VERTEX
8
CUT
10
96.5522
20
140.8961
0
VERTEX
8
CUT
10
96.4597
20
140.9154
0
VERTEX
8
CUT
10
96.4450
20
140.9177
0
VERTEX
8
CUT
10
96.3509
20
140.9277
0
VERTEX
8
CUT
10
96.3361
20
140.9285
0
VERTEX
8
CUT
10
96.2415
20
140.9291
0
VERTEX
8
CUT
10
96.2266
20
140.9285
0
VERTEX
8
CUT
10
96.1324
20
140.9197
0
VERTEX
8
CUT
10
96.1177
20
140.9175
0
VERTEX
8
CUT
10
96.0249
20
140.8994
0
VERTEX
8
CUT
10
96.0104
20
140.8958
0
VERTEX
8
CUT
10
95.9199
20
140.8685
0
VERTEX
8
CUT
10
95.9059
20
140.8635
0
VERTEX
8
CUT
10
95.8185
20
140.8274
0
VERTEX
8
CUT
10
95.8050
20
140.8210
0
VERTEX
8
CUT
10
95.7217
20
140.7763
0
VERTEX
8
CUT
10
95.7089
20
140.7687
0
VERTEX
8
CUT
10
95.6304
20
140.7159
0
VERTEX
8
CUT
10
95.6185
20
140.7070
0
VERTEX
8
CUT
10
95.5456
20
140.6467
0
VERTEX
8
CUT
10
95.5346
20
140.6367
0
VERTEX
8
CUT
10
95.4681
20
140.5694
0
VERTEX
8
CUT
10
95.4582
20
140.5583
0
VERTEX
8
CUT
10
95.3987
20
140.4848
0
VERTEX
8
CUT
10
95.3900
20
140.4728
0
VERTEX
8
CUT
10
95.3381
20
140.3937
0
VERTEX
8
CUT
10
95.3306
20
140.3808
0
VERTEX
8
CUT
10
95.2868
20
140.2970
0
VERTEX
8
CUT
10
95.2806
20
140.2835
0
VERTEX
8
CUT
10
95.2454
20
140.1957
0
VERTEX
8
CUT
10
95.2406
20
140.1816
0
VERTEX
8
CUT
10
95.2143
20
140.0907
0
VERTEX
8
CUT
10
95.2049
20
140.0508
0
VERTEX
8
CUT
10
95.2008
20
140.0315
0
VERTEX
8
CUT
10
95.1969
20
140.0066
0
VERTEX
8
CUT
10
95.1914
20
139.9635
0
VERTEX
8
CUT
10
95.1838
20
139.8630
0
VERTEX
8
CUT
10
95.1834
20
139.8472
0
VERTEX
8
CUT
10
95.1865
20
139.7466
0
VERTEX
8
CUT
10
95.1878
20
139.7308
0
VERTEX
8
CUT
10
95.2015
20
139.6310
0
VERTEX
8
CUT
10
95.2098
20
139.5881
0
VERTEX
8
CUT
10
95.2206
20
139.5389
0
VERTEX
8
CUT
10
95.3482
20
139.0233
0
VERTEX
8
CUT
10
95.3593
20
138.9827
0
VERTEX
8
CUT
10
95.3696
20
138.9477
0
VERTEX
8
CUT
10
95.3970
20
138.8682
0
VERTEX
8
CUT
10
95.4018
20
138.8558
0
VERTEX
8
CUT
10
95.4361
20
138.7790
0
VERTEX
8
CUT
10
95.4421
20
138.7672
0
VERTEX
8
CUT
10
95.4830
20
138.6937
0
VERTEX
8
CUT
10
95.4900
20
138.6824
0
VERTEX
8
CUT
10
95.5373
20
138.6129
0
VERTEX
8
CUT
10
95.5592
20
138.5836
0
VERTEX
8
CUT
10
95.5851
20
138.5505
0
VERTEX
8
CUT
10
95.8426
20
138.2359
0
VERTEX
8
CUT
10
95.8743
20
138.1991
0
VERTEX
8
CUT
10
95.9026
20
138.1680
0
VERTEX
8
CUT
10
95.9713
20
138.0996
0
VERTEX
8
CUT
10
95.9827
20
138.0894
0
VERTEX
8
CUT
10
96.0581
20
138.0283
0
VERTEX
8
CUT
10
96.0704
20
138.0194
0
VERTEX
8
CUT
10
96.1517
20
137.9664
0
VERTEX
8
CUT
10
96.1648
20
137.9587
0
VERTEX
8
CUT
10
96.2511
20
137.9142
0
VERTEX
8
CUT
10
96.2894
20
137.8969
0
VERTEX
8
CUT
10
96.3341
20
137.8780
0
VERTEX
8
CUT
10
96.4327
20
137.8394
0
VERTEX
8
CUT
10
96.4765
20
137.8234
0
VERTEX
8
CUT
10
96.5149
20
137.8105
0
VERTEX
8
CUT
10
96.6047
20
137.7851
0
VERTEX
8
CUT
10
96.6190
20
137.7818
0
VERTEX
8
CUT
10
96.7108
20
137.7654
0
VERTEX
8
CUT
10
96.7253
20
137.7635
0
VERTEX
8
CUT
10
96.8183
20
137.7561
0
VERTEX
8
CUT
10
96.8330
20
137.7557
0
VERTEX
8
CUT
10
96.9262
20
137.7575
0
VERTEX
8
CUT
10
96.9666
20
137.7603
0
VERTEX
8
CUT
10
97.0131
20
137.7646
0
VERTEX
8
CUT
10
97.3622
20
137.8059
0
VERTEX
8
CUT
10
97.4043
20
137.8118
0
VERTEX
8
CUT
10
97.4406
20
137.8178
0
VERTEX
8
CUT
10
97.5237
20
137.8352
0
VERTEX
8
CUT
10
97.5366
20
137.8386
0
VERTEX
8
CUT
10
97.6178
20
137.8634
0
VERTEX
8
CUT
10
97.6304
20
137.8678
0
VERTEX
8
CUT
10
97.7090
20
137.8998
0
VERTEX
8
CUT
10
97.7425
20
137.9152
0
VERTEX
8
CUT
10
97.7807
20
137.9337
0
VERTEX
8
CUT
10
98.2093
20
138.1544
0
VERTEX
8
CUT
10
98.2509
20
138.1771
0
VERTEX
8
CUT
10
98.2865
20
138.1978
0
VERTEX
8
CUT
10
98.3661
20
138.2494
0
VERTEX
8
CUT
10
98.3782
20
138.2581
0
VERTEX
8
CUT
10
98.4522
20
138.3173
0
VERTEX
8
CUT
10
98.4633
20
138.3272
0
VERTEX
8
CUT
10
98.5311
20
138.3936
0
VERTEX
8
CUT
10
98.5412
20
138.4045
0
VERTEX
8
CUT
10
98.6020
20
138.4773
0
VERTEX
8
CUT
10
98.6109
20
138.4892
0
VERTEX
8
CUT
10
98.6642
20
138.5677
0
VERTEX
8
CUT
10
98.6719
20
138.5804
0
VERTEX
8
CUT
10
98.7170
20
138.6638
0
VERTEX
8
CUT
10
98.7235
20
138.6773
0
VERTEX
8
CUT
10
98.7600
20
138.7648
0
VERTEX
8
CUT
10
98.7651
20
138.7788
0
VERTEX
8
CUT
10
98.7928
20
138.8695
0
VERTEX
8
CUT
10
98.7964
20
138.8839
0
VERTEX
8
CUT
10
98.8149
20
138.9769
0
VERTEX
8
CUT
10
98.8171
20
138.9917
0
VERTEX
8
CUT
10
98.8262
20
139.0861
0
VERTEX
8
CUT
10
98.8269
20
139.1010
0
VERTEX
8
CUT
10
98.8265
20
139.1958
0
VERTEX
8
CUT
10
98.8257
20
139.2107
0
VERTEX
8
CUT
10
98.8159
20
139.3050
0
VERTEX
8
CUT
10
98.8136
20
139.3197
0
VERTEX
8
CUT
10
98.7945
20
139.4126
0
VERTEX
8
CUT
10
98.7907
20
139.4270
0
VERTEX
8
CUT
10
98.7624
20
139.5175
0
VERTEX
8
CUT
10
98.7573
20
139.5315
0
VERTEX
8
CUT
10
98.7201
20
139.6187
0
VERTEX
8
CUT
10
98.7135
20
139.6321
0
VERTEX
8
CUT
10
98.6678
20
139.7152
0
VERTEX
8
CUT
10
98.6600
20
139.7279
0
VERTEX
8
CUT
10
98.6062
20
139.8060
0
VERTEX
8
CUT
10
98.5971
20
139.8178
0
VERTEX
8
CUT
10
98.5358
20
139.8901
0
VERTEX
8
CUT
10
98.5256
20
139.9010
0
VERTEX
8
CUT
10
98.4574
20
139.9669
0
VERTEX
8
CUT
10
98.4462
20
139.9767
0
VERTEX
8
CUT
10
98.3718
20
140.0354
0
VERTEX
8
CUT
10
98.3596
20
140.0441
0
VERTEX
8
CUT
10
98.2797
20
140.0951
0
VERTEX
8
CUT
10
98.2439
20
140.1154
0
VERTEX
8
CUT
10
98.2021
20
140.1379
0
VERTEX
8
CUT
10
97.0332
20
140.7289
0
VERTEX
8
CUT
10
96.9984
20
140.7457
0
VERTEX
8
CUT
10
96.9679
20
140.7596
0
VERTEX
8
CUT
10
96.8963
20
140.7887
0
VERTEX
8
CUT
10
96.8648
20
140.8001
0
VERTEX
8
CUT
10
96.8281
20
140.8125
0
SEQEND
0
ENDSEC
0
EOF
