0
SECTION
2
HEADER
9
$ACADVER
1
AC1009
9
$INSUNITS
70
4
0
ENDSEC
0
SECTION
2
TABLES
0
TABLE
2
LAYER
70
1
0
LAYER
2
CUT
70
0
62
7
6
CONTINUOUS
0
ENDTAB
0
ENDSEC
0
SECTION
2
ENTITIES
0
POLYLINE
8
CUT
66
1
70
1
10
0.0
20
0.0
30
0.0
0
VERTEX
8
CUT
10
-0.0395
20
298.3748
0
VERTEX
8
CUT
10
0.0431
20
298.6056
0
VERTEX
8
CUT
10
0.1479
20
298.8271
0
VERTEX
8
CUT
10
0.2738
20
299.0373
0
VERTEX
8
CUT
10
0.4198
20
299.2341
0
VERTEX
8
CUT
10
0.5844
20
299.4156
0
VERTEX
8
CUT
10
0.7659
20
299.5802
0
VERTEX
8
CUT
10
0.9627
20
299.7262
0
VERTEX
8
CUT
10
1.1729
20
299.8521
0
VERTEX
8
CUT
10
1.3944
20
299.9569
0
VERTEX
8
CUT
10
1.6252
20
300.0395
0
VERTEX
8
CUT
10
1.8629
20
300.0990
0
VERTEX
8
CUT
10
2.1053
20
300.1350
0
VERTEX
8
CUT
10
2.4114
20
300.1500
0
VERTEX
8
CUT
10
297.5872
20
300.1500
0
VERTEX
8
CUT
10
297.8933
20
300.1350
0
VERTEX
8
CUT
10
298.1357
20
300.0990
0
VERTEX
8
CUT
10
298.3734
20
300.0395
0
VERTEX
8
CUT
10
298.6041
20
299.9569
0
VERTEX
8
CUT
10
298.8256
20
299.8521
0
VERTEX
8
CUT
10
299.0358
20
299.7262
0
VERTEX
8
CUT
10
299.2326
20
299.5802
0
VERTEX
8
CUT
10
299.4142
20
299.4156
0
VERTEX
8
CUT
10
299.5787
20
299.2341
0
VERTEX
8
CUT
10
299.7247
20
299.0373
0
VERTEX
8
CUT
10
299.8507
20
298.8271
0
VERTEX
8
CUT
10
299.9554
20
298.6056
0
VERTEX
8
CUT
10
300.0380
20
298.3748
0
VERTEX
8
CUT
10
300.0975
20
298.1371
0
VERTEX
8
CUT
10
300.1335
20
297.8947
0
VERTEX
8
CUT
10
300.1485
20
297.5886
0
VERTEX
8
CUT
10
300.1485
20
2.4114
0
VERTEX
8
CUT
10
300.1335
20
2.1053
0
VERTEX
8
CUT
10
300.0975
20
1.8629
0
VERTEX
8
CUT
10
300.0380
20
1.6252
0
VERTEX
8
CUT
10
299.9554
20
1.3944
0
VERTEX
8
CUT
10
299.8507
20
1.1729
0
VERTEX
8
CUT
10
299.7247
20
0.9627
0
VERTEX
8
CUT
10
299.5787
20
0.7659
0
VERTEX
8
CUT
10
299.4142
20
0.5844
0
VERTEX
8
CUT
10
299.2326
20
0.4198
0
VERTEX
8
CUT
10
299.0358
20
0.2738
0
VERTEX
8
CUT
10
298.8256
20
0.1479
0
VERTEX
8
CUT
10
298.6041
20
0.0431
0
VERTEX
8
CUT
10
298.3734
20
-0.0395
0
VERTEX
8
CUT
10
298.1357
20
-0.0990
0
VERTEX
8
CUT
10
297.8933
20
-0.1350
0
VERTEX
8
CUT
10
297.5872
20
-0.1500
0
VERTEX
8
CUT
10
297.0122
20
-0.1500
0
VERTEX
8
CUT
10
297.0119
20
-0.1500
0
VERTEX
8
CUT
10
2.4114
20
-0.1500
0
VERTEX
8
CUT
10
2.1985
20
-0.1395
0
VERTEX
8
CUT
10
2.1453
20
-0.1369
0
VERTEX
8
CUT
10
2.1053
20
-0.1350
0
VERTEX
8
CUT
10
1.8629
20
-0.0990
0
VERTEX
8
CUT
10
1.6252
20
-0.0395
0
VERTEX
8
CUT
10
1.3944
20
0.0431
0
VERTEX
8
CUT
10
1.1729
20
0.1479
0
VERTEX
8
CUT
10
0.9627
20
0.2738
0
VERTEX
8
CUT
10
0.7659
20
0.4198
0
VERTEX
8
CUT
10
0.5844
20
0.5844
0
VERTEX
8
CUT
10
0.4198
20
0.7659
0
VERTEX
8
CUT
10
0.2738
20
0.9627
0
VERTEX
8
CUT
10
0.1479
20
1.1729
0
VERTEX
8
CUT
10
0.0431
20
1.3944
0
VERTEX
8
CUT
10
-0.0395
20
1.6252
0
VERTEX
8
CUT
10
-0.0990
20
1.8629
0
VERTEX
8
CUT
10
-0.1350
20
2.1053
0
VERTEX
8
CUT
10
-0.1500
20
2.4114
0
VERTEX
8
CUT
10
-0.1500
20
2.9214
0
VERTEX
8
CUT
10
-0.1500
20
2.9225
0
VERTEX
8
CUT
10
-0.1500
20
297.0000
0
VERTEX
8
CUT
10
-0.1500
20
297.5886
0
VERTEX
8
CUT
10
-0.1350
20
297.8947
0
VERTEX
8
CUT
10
-0.0990
20
298.1371
0
SEQEND
0
POLYLINE
8
CUT
66
1
70
1
10
0.0
20
0.0
30
0.0
0
VERTEX
8
CUT
10
261.9515
20
106.2058
0
VERTEX
8
CUT
10
261.9718
20
106.0015
0
VERTEX
8
CUT
10
262.0088
20
105.7997
0
VERTEX
8
CUT
10
262.0622
20
105.6015
0
VERTEX
8
CUT
10
262.4673
20
104.3126
0
VERTEX
8
CUT
10
262.5378
20
104.1171
0
VERTEX
8
CUT
10
262.6243
20
103.9281
0
VERTEX
8
CUT
10
262.7262
20
103.7469
0
VERTEX
8
CUT
10
263.1178
20
103.1139
0
VERTEX
8
CUT
10
263.2566
20
102.9123
0
VERTEX
8
CUT
10
263.4144
20
102.7253
0
VERTEX
8
CUT
10
263.9620
20
102.1374
0
VERTEX
8
CUT
10
264.1355
20
101.9683
0
VERTEX
8
CUT
10
264.3247
20
101.8167
0
VERTEX
8
CUT
10
264.8876
20
101.4089
0
VERTEX
8
CUT
10
265.0966
20
101.2729
0
VERTEX
8
CUT
10
265.3181
20
101.1584
0
VERTEX
8
CUT
10
265.9792
20
100.8573
0
VERTEX
8
CUT
10
266.2299
20
100.7590
0
VERTEX
8
CUT
10
266.4898
20
100.6883
0
VERTEX
8
CUT
10
267.1230
20
100.5521
0
VERTEX
8
CUT
10
267.3672
20
100.5121
0
VERTEX
8
CUT
10
267.6142
20
100.4965
0
VERTEX
8
CUT
10
267.8615
20
100.5053
0
VERTEX
8
CUT
10
268.1067
20
100.5386
0
VERTEX
8
CUT
10
268.3475
20
100.5960
0
VERTEX
8
CUT
10
268.5814
20
100.6768
0
VERTEX
8
CUT
10
268.8061
20
100.7804
0
VERTEX
8
CUT
10
269.0196
20
100.9057
0
VERTEX
8
CUT
10
269.2195
20
101.0515
0
VERTEX
8
CUT
10
269.4041
20
101.2164
0
VERTEX
8
CUT
10
269.5715
20
101.3987
0
VERTEX
8
CUT
10
269.7200
20
101.5966
0
VERTEX
8
CUT
10
269.8482
20
101.8083
0
VERTEX
8
CUT
10
269.9549
20
102.0316
0
VERTEX
8
CUT
10
270.0390
20
102.2644
0
VERTEX
8
CUT
10
270.0996
20
102.5043
0
VERTEX
8
CUT
10
270.1363
20
102.7491
0
VERTEX
8
CUT
10
270.1485
20
102.9963
0
VERTEX
8
CUT
10
270.1485
20
103.1367
0
VERTEX
8
CUT
10
270.1485
20
110.0785
0
VERTEX
8
CUT
10
270.1485
20
110.3064
0
VERTEX
8
CUT
10
270.1362
20
110.5541
0
VERTEX
8
CUT
10
270.0994
20
110.7994
0
VERTEX
8
CUT
10
270.0385
20
111.0398
0
VERTEX
8
CUT
10
269.9541
20
111.2730
0
VERTEX
8
CUT
10
269.8470
20
111.4966
0
VERTEX
8
CUT
10
269.7183
20
111.7086
0
VERTEX
8
CUT
10
269.5692
20
111.9067
0
VERTEX
8
CUT
10
269.4012
20
112.0892
0
VERTEX
8
CUT
10
269.2160
20
112.2540
0
VERTEX
8
CUT
10
269.0153
20
112.3997
0
VERTEX
8
CUT
10
268.8012
20
112.5249
0
VERTEX
8
CUT
10
268.5757
20
112.6281
0
VERTEX
8
CUT
10
268.3411
20
112.7086
0
VERTEX
8
CUT
10
268.0997
20
112.7654
0
VERTEX
8
CUT
10
267.8539
20
112.7980
0
VERTEX
8
CUT
10
267.6060
20
112.8061
0
VERTEX
8
CUT
10
267.3586
20
112.7896
0
VERTEX
8
CUT
10
267.1140
20
112.7486
0
VERTEX
8
CUT
10
266.8747
20
112.6837
0
VERTEX
8
CUT
10
266.0193
20
112.4052
0
VERTEX
8
CUT
10
265.7936
20
112.3195
0
VERTEX
8
CUT
10
265.5771
20
112.2123
0
VERTEX
8
CUT
10
265.3721
20
112.0848
0
VERTEX
8
CUT
10
264.3579
20
111.3841
0
VERTEX
8
CUT
10
264.1602
20
111.2324
0
VERTEX
8
CUT
10
263.9786
20
111.0617
0
VERTEX
8
CUT
10
263.5513
20
110.6181
0
VERTEX
8
CUT
10
263.3739
20
110.4128
0
VERTEX
8
CUT
10
263.2199
20
110.1895
0
VERTEX
8
CUT
10
262.7433
20
109.4114
0
VERTEX
8
CUT
10
262.7301
20
109.3918
0
VERTEX
8
CUT
10
262.7181
20
109.3702
0
VERTEX
8
CUT
10
262.5103
20
109.0309
0
VERTEX
8
CUT
10
262.3751
20
108.7788
0
VERTEX
8
CUT
10
262.2695
20
108.5129
0
VERTEX
8
CUT
10
262.1951
20
108.2367
0
VERTEX
8
CUT
10
261.9800
20
107.2082
0
VERTEX
8
CUT
10
261.9445
20
106.9910
0
VERTEX
8
CUT
10
261.9282
20
106.7715
0
VERTEX
8
CUT
10
261.9313
20
106.5514
0
SEQEND
0
POLYLINE
8
CUT
66
1
70
1
10
0.0
20
0.0
30
0.0
0
VERTEX
8
CUT
10
234.1275
20
128.6017
0
VERTEX
8
CUT
10
233.9591
20
128.4263
0
VERTEX
8
CUT
10
233.8087
20
128.2354
0
VERTEX
8
CUT
10
233.6775
20
128.0307
0
VERTEX
8
CUT
10
233.5667
20
127.8143
0
VERTEX
8
CUT
10
233.4776
20
127.5881
0
VERTEX
8
CUT
10
233.4108
20
127.3543
0
VERTEX
8
CUT
10
233.3670
20
127.1152
0
VERTEX
8
CUT
10
233.3467
20
126.8729
0
VERTEX
8
CUT
10
233.3500
20
126.6298
0
VERTEX
8
CUT
10
233.3769
20
126.3882
0
VERTEX
8
CUT
10
233.4271
20
126.1504
0
VERTEX
8
CUT
10
233.5002
20
125.9185
0
VERTEX
8
CUT
10
233.5955
20
125.6948
0
VERTEX
8
CUT
10
233.7121
20
125.4815
0
VERTEX
8
CUT
10
233.8488
20
125.2805
0
VERTEX
8
CUT
10
234.0044
20
125.0937
0
VERTEX
8
CUT
10
234.1774
20
124.9229
0
VERTEX
8
CUT
10
234.3662
20
124.7697
0
VERTEX
8
CUT
10
234.5690
20
124.6356
0
VERTEX
8
CUT
10
234.7838
20
124.5218
0
VERTEX
8
CUT
10
235.0087
20
124.4294
0
VERTEX
8
CUT
10
235.2414
20
124.3593
0
VERTEX
8
CUT
10
235.4799
20
124.3121
0
VERTEX
8
CUT
10
235.7219
20
124.2883
0
VERTEX
8
CUT
10
235.9650
20
124.2882
0
VERTEX
8
CUT
10
236.2070
20
124.3116
0
VERTEX
8
CUT
10
238.0899
20
124.5870
0
VERTEX
8
CUT
10
238.1209
20
124.5917
0
VERTEX
8
CUT
10
238.1265
20
124.5926
0
VERTEX
8
CUT
10
238.2563
20
124.6168
0
VERTEX
8
CUT
10
243.5663
20
125.7521
0
VERTEX
8
CUT
10
243.5893
20
125.7571
0
VERTEX
8
CUT
10
243.5933
20
125.7580
0
VERTEX
8
CUT
10
243.6890
20
125.7814
0
VERTEX
8
CUT
10
248.7160
20
127.1156
0
VERTEX
8
CUT
10
248.7423
20
127.1227
0
VERTEX
8
CUT
10
248.7470
20
127.1240
0
VERTEX
8
CUT
10
248.8566
20
127.1571
0
VERTEX
8
CUT
10
253.5157
20
128.6810
0
VERTEX
8
CUT
10
253.5444
20
128.6906
0
VERTEX
8
CUT
10
253.5495
20
128.6923
0
VERTEX
8
CUT
10
253.6688
20
128.7363
0
VERTEX
8
CUT
10
257.8237
20
130.3916
0
VERTEX
8
CUT
10
257.8528
20
130.4034
0
VERTEX
8
CUT
10
257.8579
20
130.4055
0
VERTEX
8
CUT
10
257.9784
20
130.4590
0
VERTEX
8
CUT
10
261.5150
20
132.1432
0
VERTEX
8
CUT
10
261.7253
20
132.2559
0
VERTEX
8
CUT
10
262.5376
20
132.7427
0
VERTEX
8
CUT
10
262.7860
20
132.8671
0
VERTEX
8
CUT
10
263.0758
20
133.0374
0
VERTEX
8
CUT
10
263.4134
20
133.2677
0
VERTEX
8
CUT
10
264.4872
20
133.9112
0
VERTEX
8
CUT
10
264.6435
20
134.0130
0
VERTEX
8
CUT
10
264.7918
20
134.1261
0
VERTEX
8
CUT
10
265.3673
20
134.6003
0
VERTEX
8
CUT
10
265.9352
20
134.9876
0
VERTEX
8
CUT
10
266.1595
20
135.1600
0
VERTEX
8
CUT
10
266.3630
20
135.3567
0
VERTEX
8
CUT
10
266.6102
20
135.6243
0
VERTEX
8
CUT
10
266.7045
20
135.7021
0
VERTEX
8
CUT
10
266.9190
20
135.9010
0
VERTEX
8
CUT
10
267.1088
20
136.1236
0
VERTEX
8
CUT
10
267.9844
20
137.2813
0
VERTEX
8
CUT
10
268.1308
20
137.4975
0
VERTEX
8
CUT
10
268.2538
20
137.7277
0
VERTEX
8
CUT
10
268.3522
20
137.9695
0
VERTEX
8
CUT
10
268.5345
20
138.4946
0
VERTEX
8
CUT
10
268.6131
20
138.7715
0
VERTEX
8
CUT
10
268.6593
20
139.0556
0
VERTEX
8
CUT
10
268.7373
20
139.8047
0
VERTEX
8
CUT
10
268.7507
20
140.0624
0
VERTEX
8
CUT
10
268.7375
20
140.3201
0
VERTEX
8
CUT
10
268.6657
20
141.0160
0
VERTEX
8
CUT
10
268.6334
20
141.2344
0
VERTEX
8
CUT
10
268.5819
20
141.4490
0
VERTEX
8
CUT
10
268.5117
20
141.6583
0
VERTEX
8
CUT
10
268.3832
20
141.9919
0
VERTEX
8
CUT
10
268.2823
20
142.2192
0
VERTEX
8
CUT
10
268.1594
20
142.4353
0
VERTEX
8
CUT
10
268.0157
20
142.6381
0
VERTEX
8
CUT
10
267.9564
20
142.7136
0
VERTEX
8
CUT
10
267.7879
20
142.9067
0
VERTEX
8
CUT
10
267.6004
20
143.0815
0
VERTEX
8
CUT
10
267.3961
20
143.2362
0
VERTEX
8
CUT
10
267.1770
20
143.3692
0
VERTEX
8
CUT
10
266.1867
20
143.9029
0
VERTEX
8
CUT
10
265.9650
20
144.0086
0
VERTEX
8
CUT
10
265.7340
20
144.0921
0
VERTEX
8
CUT
10
265.4959
20
144.1525
0
VERTEX
8
CUT
10
265.0458
20
144.2435
0
VERTEX
8
CUT
10
264.8385
20
144.2764
0
VERTEX
8
CUT
10
264.6290
20
144.2918
0
VERTEX
8
CUT
10
264.4191
20
144.2895
0
VERTEX
8
CUT
10
262.3094
20
144.1783
0
VERTEX
8
CUT
10
262.0559
20
144.1519
0
VERTEX
8
CUT
10
261.8064
20
144.0998
0
VERTEX
8
CUT
10
260.8491
20
143.8486
0
VERTEX
8
CUT
10
260.6474
20
143.7864
0
VERTEX
8
CUT
10
260.4516
20
143.7075
0
VERTEX
8
CUT
10
258.4510
20
142.8006
0
VERTEX
8
CUT
10
258.2653
20
142.7069
0
VERTEX
8
CUT
10
258.0880
20
142.5981
0
VERTEX
8
CUT
10
244.9289
20
133.7482
0
VERTEX
8
CUT
10
244.7628
20
133.6428
0
VERTEX
8
CUT
10
244.6482
20
133.5741
0
VERTEX
8
CUT
10
244.4768
20
133.4775
0
VERTEX
8
CUT
10
240.0026
20
131.1076
0
VERTEX
8
CUT
10
239.8028
20
131.0092
0
VERTEX
8
CUT
10
239.6653
20
130.9465
0
VERTEX
8
CUT
10
239.4600
20
130.8602
0
VERTEX
8
CUT
10
234.9450
20
129.1176
0
VERTEX
8
CUT
10
234.7227
20
129.0192
0
VERTEX
8
CUT
10
234.5111
20
128.8996
0
VERTEX
8
CUT
10
234.3120
20
128.7600
0
SEQEND
0
POLYLINE
8
CUT
66
1
70
1
10
0.0
20
0.0
30
0.0
0
VERTEX
8
CUT
10
250.6764
20
243.0694
0
VERTEX
8
CUT
10
250.7354
20
242.8411
0
VERTEX
8
CUT
10
251.0814
20
241.7222
0
VERTEX
8
CUT
10
251.1695
20
241.4817
0
VERTEX
8
CUT
10
251.2817
20
241.2515
0
VERTEX
8
CUT
10
251.8711
20
240.1850
0
VERTEX
8
CUT
10
251.9941
20
239.9852
0
VERTEX
8
CUT
10
252.1353
20
239.7977
0
VERTEX
8
CUT
10
252.9328
20
238.8367
0
VERTEX
8
CUT
10
253.0908
20
238.6635
0
VERTEX
8
CUT
10
253.2644
20
238.5059
0
VERTEX
8
CUT
10
254.2016
20
237.7315
0
VERTEX
8
CUT
10
254.3833
20
237.5949
0
VERTEX
8
CUT
10
254.5765
20
237.4753
0
VERTEX
8
CUT
10
255.1732
20
237.1426
0
VERTEX
8
CUT
10
255.3362
20
237.0477
0
VERTEX
8
CUT
10
255.3831
20
237.0256
0
VERTEX
8
CUT
10
255.6292
20
236.8884
0
VERTEX
8
CUT
10
255.8446
20
236.7815
0
VERTEX
8
CUT
10
256.0692
20
236.6959
0
VERTEX
8
CUT
10
257.2057
20
236.3240
0
VERTEX
8
CUT
10
257.4693
20
236.2534
0
VERTEX
8
CUT
10
257.7391
20
236.2119
0
VERTEX
8
CUT
10
258.9151
20
236.0966
0
VERTEX
8
CUT
10
259.1947
20
236.0849
0
VERTEX
8
CUT
10
259.4740
20
236.1045
0
VERTEX
8
CUT
10
259.7088
20
236.1343
0
VERTEX
8
CUT
10
259.8475
20
236.1366
0
VERTEX
8
CUT
10
260.0687
20
236.1601
0
VERTEX
8
CUT
10
260.8818
20
236.2832
0
VERTEX
8
CUT
10
261.7860
20
236.3979
0
VERTEX
8
CUT
10
261.9983
20
236.4342
0
VERTEX
8
CUT
10
262.2067
20
236.4887
0
VERTEX
8
CUT
10
262.4097
20
236.5608
0
VERTEX
8
CUT
10
262.8456
20
236.7374
0
VERTEX
8
CUT
10
263.0595
20
236.8360
0
VERTEX
8
CUT
10
263.2631
20
236.9542
0
VERTEX
8
CUT
10
264.3263
20
237.6406
0
VERTEX
8
CUT
10
264.5476
20
237.8012
0
VERTEX
8
CUT
10
264.7500
20
237.9851
0
VERTEX
8
CUT
10
264.8523
20
238.0888
0
VERTEX
8
CUT
10
264.8729
20
238.1075
0
VERTEX
8
CUT
10
265.3093
20
238.5519
0
VERTEX
8
CUT
10
266.3877
20
239.6449
0
VERTEX
8
CUT
10
266.5655
20
239.8456
0
VERTEX
8
CUT
10
266.7208
20
240.0642
0
VERTEX
8
CUT
10
267.3770
20
241.1015
0
VERTEX
8
CUT
10
267.5162
20
241.3524
0
VERTEX
8
CUT
10
267.6258
20
241.6175
0
VERTEX
8
CUT
10
268.0358
20
242.7974
0
VERTEX
8
CUT
10
268.1092
20
243.0512
0
VERTEX
8
CUT
10
268.1554
20
243.3114
0
VERTEX
8
CUT
10
268.3133
20
244.5898
0
VERTEX
8
CUT
10
268.3304
20
244.8007
0
VERTEX
8
CUT
10
268.3295
20
245.0123
0
VERTEX
8
CUT
10
268.3107
20
245.2231
0
VERTEX
8
CUT
10
268.0269
20
247.3755
0
VERTEX
8
CUT
10
267.9883
20
247.5933
0
VERTEX
8
CUT
10
267.9307
20
247.8068
0
VERTEX
8
CUT
10
267.8543
20
248.0144
0
VERTEX
8
CUT
10
267.4925
20
248.8785
0
VERTEX
8
CUT
10
267.3998
20
249.0753
0
VERTEX
8
CUT
10
267.2904
20
249.2633
0
VERTEX
8
CUT
10
267.1651
20
249.4410
0
VERTEX
8
CUT
10
265.9895
20
250.9631
0
VERTEX
8
CUT
10
265.8493
20
251.1291
0
VERTEX
8
CUT
10
265.6951
20
251.2824
0
VERTEX
8
CUT
10
264.7302
20
252.1620
0
VERTEX
8
CUT
10
264.5599
20
252.3040
0
VERTEX
8
CUT
10
264.3777
20
252.4303
0
VERTEX
8
CUT
10
263.0255
20
253.2813
0
VERTEX
8
CUT
10
262.8312
20
253.3918
0
VERTEX
8
CUT
10
262.6278
20
253.4845
0
VERTEX
8
CUT
10
262.3404
20
253.6003
0
VERTEX
8
CUT
10
262.0567
20
253.6953
0
VERTEX
8
CUT
10
261.7636
20
253.7557
0
VERTEX
8
CUT
10
260.9687
20
253.8704
0
VERTEX
8
CUT
10
260.7747
20
253.8907
0
VERTEX
8
CUT
10
260.5798
20
253.8958
0
VERTEX
8
CUT
10
260.2640
20
253.8918
0
VERTEX
8
CUT
10
260.1361
20
253.8959
0
VERTEX
8
CUT
10
258.7268
20
253.8726
0
VERTEX
8
CUT
10
258.7208
20
253.8722
0
VERTEX
8
CUT
10
258.6144
20
253.8709
0
VERTEX
8
CUT
10
258.4000
20
253.8589
0
VERTEX
8
CUT
10
258.1873
20
253.8286
0
VERTEX
8
CUT
10
256.8735
20
253.5833
0
VERTEX
8
CUT
10
256.5803
20
253.5100
0
VERTEX
8
CUT
10
256.2982
20
253.4018
0
VERTEX
8
CUT
10
255.3595
20
252.9753
0
VERTEX
8
CUT
10
255.0928
20
252.8341
0
VERTEX
8
CUT
10
254.8450
20
252.6618
0
VERTEX
8
CUT
10
253.7403
20
251.7900
0
VERTEX
8
CUT
10
253.5908
20
251.6622
0
VERTEX
8
CUT
10
253.4519
20
251.5231
0
VERTEX
8
CUT
10
253.3078
20
251.3670
0
VERTEX
8
CUT
10
253.1234
20
251.1811
0
VERTEX
8
CUT
10
252.9718
20
251.0109
0
VERTEX
8
CUT
10
252.9440
20
250.9849
0
VERTEX
8
CUT
10
252.7711
20
250.8061
0
VERTEX
8
CUT
10
252.6576
20
250.6626
0
VERTEX
8
CUT
10
252.3361
20
250.3143
0
VERTEX
8
CUT
10
252.1992
20
250.1527
0
VERTEX
8
CUT
10
252.0764
20
249.9802
0
VERTEX
8
CUT
10
251.4771
20
249.0574
0
VERTEX
8
CUT
10
251.3665
20
248.8695
0
VERTEX
8
CUT
10
251.2726
20
248.6728
0
VERTEX
8
CUT
10
251.2468
20
248.6040
0
VERTEX
8
CUT
10
250.9772
20
248.0066
0
VERTEX
8
CUT
10
250.8920
20
247.7920
0
VERTEX
8
CUT
10
250.8270
20
247.5705
0
VERTEX
8
CUT
10
250.7827
20
247.3439
0
VERTEX
8
CUT
10
250.7427
20
247.0734
0
VERTEX
8
CUT
10
250.6789
20
246.8771
0
VERTEX
8
CUT
10
250.6233
20
246.6786
0
VERTEX
8
CUT
10
250.5843
20
246.4761
0
VERTEX
8
CUT
10
250.5621
20
246.2712
0
VERTEX
8
CUT
10
250.4817
20
245.0695
0
VERTEX
8
CUT
10
250.4767
20
244.8472
0
VERTEX
8
CUT
10
250.4915
20
244.6253
0
VERTEX
8
CUT
10
250.6392
20
243.3023
0
SEQEND
0
POLYLINE
8
CUT
66
1
70
1
10
0.0
20
0.0
30
0.0
0
VERTEX
8
CUT
10
248.1657
20
37.3155
0
VERTEX
8
CUT
10
248.2159
20
37.0339
0
VERTEX
8
CUT
10
248.2979
20
36.7599
0
VERTEX
8
CUT
10
248.5378
20
36.0988
0
VERTEX
8
CUT
10
248.6156
20
35.9090
0
VERTEX
8
CUT
10
248.7087
20
35.7263
0
VERTEX
8
CUT
10
248.7436
20
35.6641
0
VERTEX
8
CUT
10
248.8728
20
35.3592
0
VERTEX
8
CUT
10
248.9892
20
35.1207
0
VERTEX
8
CUT
10
249.1302
20
34.8959
0
VERTEX
8
CUT
10
249.3556
20
34.5756
0
VERTEX
8
CUT
10
249.5246
20
34.2750
0
VERTEX
8
CUT
10
249.6520
20
34.0719
0
VERTEX
8
CUT
10
249.7983
20
33.8818
0
VERTEX
8
CUT
10
250.0638
20
33.5693
0
VERTEX
8
CUT
10
250.4073
20
33.0811
0
VERTEX
8
CUT
10
250.5696
20
32.8745
0
VERTEX
8
CUT
10
250.7525
20
32.6862
0
VERTEX
8
CUT
10
251.5053
20
31.9886
0
VERTEX
8
CUT
10
251.6790
20
31.8417
0
VERTEX
8
CUT
10
251.8653
20
31.7112
0
VERTEX
8
CUT
10
252.7873
20
31.1263
0
VERTEX
8
CUT
10
253.0944
20
30.9603
0
VERTEX
8
CUT
10
254.0123
20
30.5442
0
VERTEX
8
CUT
10
254.2984
20
30.4351
0
VERTEX
8
CUT
10
254.5957
20
30.3618
0
VERTEX
8
CUT
10
254.9737
20
30.2928
0
VERTEX
8
CUT
10
255.0675
20
30.2697
0
VERTEX
8
CUT
10
255.5406
20
30.1324
0
VERTEX
8
CUT
10
255.7908
20
30.0735
0
VERTEX
8
CUT
10
256.0457
20
30.0407
0
VERTEX
8
CUT
10
256.5813
20
29.9995
0
VERTEX
8
CUT
10
256.8069
20
29.9584
0
VERTEX
8
CUT
10
257.0493
20
29.9263
0
VERTEX
8
CUT
10
257.2937
20
29.9180
0
VERTEX
8
CUT
10
257.5377
20
29.9337
0
VERTEX
8
CUT
10
257.5540
20
29.9356
0
VERTEX
8
CUT
10
257.6036
20
29.9343
0
VERTEX
8
CUT
10
257.8613
20
29.9546
0
VERTEX
8
CUT
10
258.7756
20
30.0743
0
VERTEX
8
CUT
10
259.7720
20
30.1874
0
VERTEX
8
CUT
10
260.0094
20
30.2260
0
VERTEX
8
CUT
10
260.2419
20
30.2872
0
VERTEX
8
CUT
10
260.4675
20
30.3705
0
VERTEX
8
CUT
10
261.9549
20
31.0024
0
VERTEX
8
CUT
10
262.2156
20
31.1316
0
VERTEX
8
CUT
10
262.4596
20
31.2901
0
VERTEX
8
CUT
10
263.3558
20
31.9499
0
VERTEX
8
CUT
10
263.5257
20
32.0869
0
VERTEX
8
CUT
10
263.6831
20
32.2382
0
VERTEX
8
CUT
10
265.0224
20
33.6430
0
VERTEX
8
CUT
10
265.1870
20
33.8341
0
VERTEX
8
CUT
10
265.3315
20
34.0408
0
VERTEX
8
CUT
10
265.9553
20
35.0366
0
VERTEX
8
CUT
10
266.0546
20
35.2101
0
VERTEX
8
CUT
10
266.1397
20
35.3911
0
VERTEX
8
CUT
10
266.4826
20
36.2030
0
VERTEX
8
CUT
10
266.5695
20
36.4420
0
VERTEX
8
CUT
10
266.6317
20
36.6886
0
VERTEX
8
CUT
10
266.8314
20
37.6937
0
VERTEX
8
CUT
10
266.8758
20
38.0484
0
VERTEX
8
CUT
10
266.9232
20
38.9422
0
VERTEX
8
CUT
10
266.9527
20
39.1418
0
VERTEX
8
CUT
10
266.9765
20
39.3837
0
VERTEX
8
CUT
10
266.9767
20
39.6268
0
VERTEX
8
CUT
10
266.9656
20
39.7409
0
VERTEX
8
CUT
10
266.9939
20
40.2732
0
VERTEX
8
CUT
10
266.9938
20
40.5392
0
VERTEX
8
CUT
10
266.9655
20
40.8037
0
VERTEX
8
CUT
10
266.7904
20
41.8897
0
VERTEX
8
CUT
10
266.7455
20
42.1063
0
VERTEX
8
CUT
10
266.6817
20
42.3180
0
VERTEX
8
CUT
10
266.5995
20
42.5233
0
VERTEX
8
CUT
10
265.9981
20
43.8508
0
VERTEX
8
CUT
10
265.8975
20
44.0490
0
VERTEX
8
CUT
10
265.7797
20
44.2374
0
VERTEX
8
CUT
10
264.6332
20
45.9017
0
VERTEX
8
CUT
10
264.4680
20
46.1158
0
VERTEX
8
CUT
10
264.2807
20
46.3108
0
VERTEX
8
CUT
10
263.4717
20
47.0662
0
VERTEX
8
CUT
10
263.2996
20
47.2129
0
VERTEX
8
CUT
10
263.1150
20
47.3435
0
VERTEX
8
CUT
10
261.9832
20
48.0692
0
VERTEX
8
CUT
10
261.7146
20
48.2190
0
VERTEX
8
CUT
10
260.6593
20
48.7250
0
VERTEX
8
CUT
10
260.3954
20
48.8335
0
VERTEX
8
CUT
10
260.1208
20
48.9112
0
VERTEX
8
CUT
10
259.7899
20
48.9847
0
VERTEX
8
CUT
10
259.5451
20
49.0265
0
VERTEX
8
CUT
10
259.2974
20
49.0438
0
VERTEX
8
CUT
10
258.0763
20
49.0681
0
VERTEX
8
CUT
10
257.8946
20
49.0977
0
VERTEX
8
CUT
10
257.6783
20
49.1232
0
VERTEX
8
CUT
10
257.4605
20
49.1298
0
VERTEX
8
CUT
10
257.2430
20
49.1174
0
VERTEX
8
CUT
10
256.9730
20
49.0902
0
VERTEX
8
CUT
10
256.9460
20
49.0907
0
VERTEX
8
CUT
10
256.6147
20
49.0753
0
VERTEX
8
CUT
10
255.0959
20
48.9032
0
VERTEX
8
CUT
10
254.8614
20
48.8653
0
VERTEX
8
CUT
10
254.6316
20
48.8053
0
VERTEX
8
CUT
10
254.4085
20
48.7238
0
VERTEX
8
CUT
10
253.6164
20
48.3908
0
VERTEX
8
CUT
10
253.4232
20
48.2997
0
VERTEX
8
CUT
10
253.2385
20
48.1924
0
VERTEX
8
CUT
10
252.0937
20
47.4605
0
VERTEX
8
CUT
10
251.8739
20
47.3026
0
VERTEX
8
CUT
10
251.6725
20
47.1219
0
VERTEX
8
CUT
10
250.8516
20
46.3009
0
VERTEX
8
CUT
10
250.5445
20
46.0263
0
VERTEX
8
CUT
10
250.3426
20
45.8239
0
VERTEX
8
CUT
10
250.2211
20
45.6703
0
VERTEX
8
CUT
10
249.9814
20
45.4307
0
VERTEX
8
CUT
10
249.7981
20
45.2260
0
VERTEX
8
CUT
10
249.6384
20
45.0025
0
VERTEX
8
CUT
10
248.9174
20
43.8663
0
VERTEX
8
CUT
10
248.7824
20
43.6249
0
VERTEX
8
CUT
10
248.6748
20
43.3700
0
VERTEX
8
CUT
10
248.1265
20
41.8396
0
VERTEX
8
CUT
10
248.0509
20
41.5876
0
VERTEX
8
CUT
10
248.0022
20
41.3290
0
VERTEX
8
CUT
10
247.8835
20
40.4448
0
VERTEX
8
CUT
10
247.8613
20
40.1039
0
VERTEX
8
CUT
10
247.8642
20
39.2203
0
VERTEX
8
CUT
10
247.8793
20
38.9542
0
VERTEX
8
CUT
10
247.9226
20
38.6912
0
VERTEX
8
CUT
10
248.0947
20
37.9091
0
SEQEND
0
POLYLINE
8
CUT
66
1
70
1
10
0.0
20
0.0
30
0.0
0
VERTEX
8
CUT
10
238.6308
20
149.3060
0
VERTEX
8
CUT
10
238.5442
20
149.0762
0
VERTEX
8
CUT
10
238.4806
20
148.8391
0
VERTEX
8
CUT
10
238.4405
20
148.5968
0
VERTEX
8
CUT
10
238.4244
20
148.3518
0
VERTEX
8
CUT
10
238.4324
20
148.1064
0
VERTEX
8
CUT
10
238.4644
20
147.8630
0
VERTEX
8
CUT
10
238.5202
20
147.6238
0
VERTEX
8
CUT
10
238.5992
20
147.3914
0
VERTEX
8
CUT
10
238.7006
20
147.1677
0
VERTEX
8
CUT
10
238.8234
20
146.9551
0
VERTEX
8
CUT
10
238.9665
20
146.7556
0
VERTEX
8
CUT
10
239.1285
20
146.5711
0
VERTEX
8
CUT
10
239.3078
20
146.4033
0
VERTEX
8
CUT
10
239.5027
20
146.2540
0
VERTEX
8
CUT
10
239.7113
20
146.1244
0
VERTEX
8
CUT
10
239.9316
20
146.0160
0
VERTEX
8
CUT
10
240.1614
20
145.9297
0
VERTEX
8
CUT
10
240.3987
20
145.8664
0
VERTEX
8
CUT
10
240.6410
20
145.8266
0
VERTEX
8
CUT
10
240.8860
20
145.8109
0
VERTEX
8
CUT
10
241.1314
20
145.8192
0
VERTEX
8
CUT
10
241.3748
20
145.8515
0
VERTEX
8
CUT
10
241.6139
20
145.9076
0
VERTEX
8
CUT
10
241.8462
20
145.9869
0
VERTEX
8
CUT
10
242.0697
20
146.0885
0
VERTEX
8
CUT
10
242.2822
20
146.2117
0
VERTEX
8
CUT
10
242.4815
20
146.3550
0
VERTEX
8
CUT
10
252.0281
20
153.9583
0
VERTEX
8
CUT
10
252.0723
20
153.9943
0
VERTEX
8
CUT
10
252.0821
20
154.0025
0
VERTEX
8
CUT
10
252.1142
20
154.0297
0
VERTEX
8
CUT
10
257.3741
20
158.5710
0
VERTEX
8
CUT
10
257.4167
20
158.6087
0
VERTEX
8
CUT
10
257.4262
20
158.6172
0
VERTEX
8
CUT
10
257.4571
20
158.6456
0
VERTEX
8
CUT
10
261.3673
20
162.3014
0
VERTEX
8
CUT
10
261.5119
20
162.4481
0
VERTEX
8
CUT
10
264.1635
20
165.3719
0
VERTEX
8
CUT
10
264.3882
20
165.6593
0
VERTEX
8
CUT
10
266.1278
20
168.2543
0
VERTEX
8
CUT
10
266.2808
20
168.5155
0
VERTEX
8
CUT
10
266.4012
20
168.7934
0
VERTEX
8
CUT
10
266.6052
20
169.3556
0
VERTEX
8
CUT
10
266.6861
20
169.6246
0
VERTEX
8
CUT
10
266.7362
20
169.9011
0
VERTEX
8
CUT
10
266.8376
20
170.7186
0
VERTEX
8
CUT
10
266.8544
20
170.9223
0
VERTEX
8
CUT
10
266.8545
20
171.1267
0
VERTEX
8
CUT
10
266.7941
20
172.6266
0
VERTEX
8
CUT
10
266.7770
20
172.8342
0
VERTEX
8
CUT
10
266.7428
20
173.0397
0
VERTEX
8
CUT
10
266.6915
20
173.2415
0
VERTEX
8
CUT
10
266.6267
20
173.4586
0
VERTEX
8
CUT
10
266.5390
20
173.7046
0
VERTEX
8
CUT
10
266.4260
20
173.9401
0
VERTEX
8
CUT
10
266.2892
20
174.1625
0
VERTEX
8
CUT
10
266.1298
20
174.3695
0
VERTEX
8
CUT
10
265.6885
20
174.8846
0
VERTEX
8
CUT
10
265.5395
20
175.0439
0
VERTEX
8
CUT
10
265.3772
20
175.1896
0
VERTEX
8
CUT
10
265.2028
20
175.3207
0
VERTEX
8
CUT
10
265.0176
20
175.4360
0
VERTEX
8
CUT
10
264.4026
20
175.7827
0
VERTEX
8
CUT
10
264.1842
20
175.8921
0
VERTEX
8
CUT
10
263.9562
20
175.9797
0
VERTEX
8
CUT
10
263.7207
20
176.0446
0
VERTEX
8
CUT
10
263.4800
20
176.0862
0
VERTEX
8
CUT
10
263.2364
20
176.1041
0
VERTEX
8
CUT
10
262.9922
20
176.0982
0
VERTEX
8
CUT
10
262.5291
20
176.0642
0
VERTEX
8
CUT
10
262.4701
20
176.0673
0
VERTEX
8
CUT
10
262.1710
20
176.0467
0
VERTEX
8
CUT
10
262.0154
20
176.0266
0
VERTEX
8
CUT
10
261.4248
20
175.9833
0
VERTEX
8
CUT
10
261.2110
20
175.9583
0
VERTEX
8
CUT
10
261.0001
20
175.9150
0
VERTEX
8
CUT
10
260.7937
20
175.8538
0
VERTEX
8
CUT
10
260.5934
20
175.7750
0
VERTEX
8
CUT
10
259.0800
20
175.1034
0
VERTEX
8
CUT
10
258.8841
20
175.0060
0
VERTEX
8
CUT
10
258.6975
20
174.8918
0
VERTEX
8
CUT
10
258.5215
20
174.7617
0
VERTEX
8
CUT
10
258.3576
20
174.6168
0
VERTEX
8
CUT
10
257.6488
20
173.9324
0
VERTEX
8
CUT
10
257.3920
20
173.7197
0
VERTEX
8
CUT
10
257.2496
20
173.5923
0
VERTEX
8
CUT
10
257.1174
20
173.4544
0
VERTEX
8
CUT
10
256.8982
20
173.2077
0
VERTEX
8
CUT
10
256.4724
20
172.7965
0
VERTEX
8
CUT
10
256.2538
20
172.5561
0
VERTEX
8
CUT
10
255.0443
20
171.0382
0
VERTEX
8
CUT
10
254.9252
20
170.8758
0
VERTEX
8
CUT
10
246.4490
20
158.2778
0
VERTEX
8
CUT
10
246.3476
20
158.1345
0
VERTEX
8
CUT
10
246.2765
20
158.0388
0
VERTEX
8
CUT
10
246.1685
20
157.9004
0
VERTEX
8
CUT
10
244.0376
20
155.2967
0
VERTEX
8
CUT
10
243.9578
20
155.2024
0
VERTEX
8
CUT
10
243.9025
20
155.1392
0
VERTEX
8
CUT
10
243.8196
20
155.0476
0
VERTEX
8
CUT
10
239.4199
20
150.3415
0
VERTEX
8
CUT
10
239.3316
20
150.2503
0
VERTEX
8
CUT
10
239.2706
20
150.1893
0
VERTEX
8
CUT
10
239.1868
20
150.1084
0
VERTEX
8
CUT
10
239.0189
20
149.9293
0
VERTEX
8
CUT
10
238.8693
20
149.7346
0
VERTEX
8
CUT
10
238.7395
20
149.5261
0
SEQEND
0
POLYLINE
8
CUT
66
1
70
1
10
0.0
20
0.0
30
0.0
0
VERTEX
8
CUT
10
252.6692
20
79.5775
0
VERTEX
8
CUT
10
252.8883
20
79.4731
0
VERTEX
8
CUT
10
253.1165
20
79.3905
0
VERTEX
8
CUT
10
253.3516
20
79.3303
0
VERTEX
8
CUT
10
253.5914
20
79.2933
0
VERTEX
8
CUT
10
253.8068
20
79.2706
0
VERTEX
8
CUT
10
254.0875
20
79.2570
0
VERTEX
8
CUT
10
254.3680
20
79.2750
0
VERTEX
8
CUT
10
254.6446
20
79.3243
0
VERTEX
8
CUT
10
254.8753
20
79.3790
0
VERTEX
8
CUT
10
255.1182
20
79.4497
0
VERTEX
8
CUT
10
255.3528
20
79.5446
0
VERTEX
8
CUT
10
255.5765
20
79.6627
0
VERTEX
8
CUT
10
255.7871
20
79.8029
0
VERTEX
8
CUT
10
255.9825
20
79.9636
0
VERTEX
8
CUT
10
256.1607
20
80.1432
0
VERTEX
8
CUT
10
256.3198
20
80.3399
0
VERTEX
8
CUT
10
256.4582
20
80.5517
0
VERTEX
8
CUT
10
256.4586
20
80.5525
0
VERTEX
8
CUT
10
256.4810
20
80.5835
0
VERTEX
8
CUT
10
256.6064
20
80.8007
0
VERTEX
8
CUT
10
256.6731
20
80.9308
0
VERTEX
8
CUT
10
256.6912
20
80.9706
0
VERTEX
8
CUT
10
256.6973
20
80.9823
0
VERTEX
8
CUT
10
256.7055
20
81.0021
0
VERTEX
8
CUT
10
256.7720
20
81.1489
0
VERTEX
8
CUT
10
256.8496
20
81.3754
0
VERTEX
8
CUT
10
256.9051
20
81.6083
0
VERTEX
8
CUT
10
256.9381
20
81.8454
0
VERTEX
8
CUT
10
256.9442
20
81.9120
0
VERTEX
8
CUT
10
256.9458
20
81.9220
0
VERTEX
8
CUT
10
256.9736
20
82.1684
0
VERTEX
8
CUT
10
256.9769
20
82.4164
0
VERTEX
8
CUT
10
256.9556
20
82.6635
0
VERTEX
8
CUT
10
256.9099
20
82.9072
0
VERTEX
8
CUT
10
256.8599
20
83.1162
0
VERTEX
8
CUT
10
256.7881
20
83.3603
0
VERTEX
8
CUT
10
256.6920
20
83.5958
0
VERTEX
8
CUT
10
256.5723
20
83.8204
0
VERTEX
8
CUT
10
256.4305
20
84.0316
0
VERTEX
8
CUT
10
256.3121
20
84.1900
0
VERTEX
8
CUT
10
256.1669
20
84.3666
0
VERTEX
8
CUT
10
256.0062
20
84.5292
0
VERTEX
8
CUT
10
255.8314
20
84.6765
0
VERTEX
8
CUT
10
255.6438
20
84.8071
0
VERTEX
8
CUT
10
255.4614
20
84.9221
0
VERTEX
8
CUT
10
255.2344
20
85.0493
0
VERTEX
8
CUT
10
254.9954
20
85.1522
0
VERTEX
8
CUT
10
254.7470
20
85.2297
0
VERTEX
8
CUT
10
254.4919
20
85.2809
0
VERTEX
8
CUT
10
254.2329
20
85.3053
0
VERTEX
8
CUT
10
253.9727
20
85.3027
0
VERTEX
8
CUT
10
253.7142
20
85.2731
0
VERTEX
8
CUT
10
253.4602
20
85.2168
0
VERTEX
8
CUT
10
253.2323
20
85.1536
0
VERTEX
8
CUT
10
252.9732
20
85.0663
0
VERTEX
8
CUT
10
252.7252
20
84.9512
0
VERTEX
8
CUT
10
252.4912
20
84.8097
0
VERTEX
8
CUT
10
252.3304
20
84.7000
0
VERTEX
8
CUT
10
252.1568
20
84.5702
0
VERTEX
8
CUT
10
251.9951
20
84.4259
0
VERTEX
8
CUT
10
251.8465
20
84.2681
0
VERTEX
8
CUT
10
251.7121
20
84.0980
0
VERTEX
8
CUT
10
251.6855
20
84.0611
0
VERTEX
8
CUT
10
251.5482
20
83.8491
0
VERTEX
8
CUT
10
251.4329
20
83.6243
0
VERTEX
8
CUT
10
251.3410
20
83.3890
0
VERTEX
8
CUT
10
251.2732
20
83.1457
0
VERTEX
8
CUT
10
251.2171
20
82.8958
0
VERTEX
8
CUT
10
251.1715
20
82.7130
0
VERTEX
8
CUT
10
251.1618
20
82.6494
0
VERTEX
8
CUT
10
251.1589
20
82.6365
0
VERTEX
8
CUT
10
251.1160
20
82.3874
0
VERTEX
8
CUT
10
251.0985
20
82.1353
0
VERTEX
8
CUT
10
251.1066
20
81.8828
0
VERTEX
8
CUT
10
251.1401
20
81.6323
0
VERTEX
8
CUT
10
251.1987
20
81.3865
0
VERTEX
8
CUT
10
251.2819
20
81.1478
0
VERTEX
8
CUT
10
251.3887
20
80.9188
0
VERTEX
8
CUT
10
251.5181
20
80.7017
0
VERTEX
8
CUT
10
251.6687
20
80.4988
0
VERTEX
8
CUT
10
251.9233
20
80.1898
0
VERTEX
8
CUT
10
252.0866
20
80.0102
0
VERTEX
8
CUT
10
252.2664
20
79.8473
0
VERTEX
8
CUT
10
252.4613
20
79.7026
0
SEQEND
0
POLYLINE
8
CUT
66
1
70
1
10
0.0
20
0.0
30
0.0
0
VERTEX
8
CUT
10
69.4956
20
160.2937
0
VERTEX
8
CUT
10
69.2526
20
160.2585
0
VERTEX
8
CUT
10
69.0141
20
160.1996
0
VERTEX
8
CUT
10
68.7826
20
160.1177
0
VERTEX
8
CUT
10
68.5603
20
160.0134
0
VERTEX
8
CUT
10
68.3492
20
159.8878
0
VERTEX
8
CUT
10
68.1515
20
159.7421
0
VERTEX
8
CUT
10
67.9691
20
159.5777
0
VERTEX
8
CUT
10
67.8036
20
159.3962
0
VERTEX
8
CUT
10
67.6568
20
159.1993
0
VERTEX
8
CUT
10
67.5300
20
158.9890
0
VERTEX
8
CUT
10
67.4244
20
158.7672
0
VERTEX
8
CUT
10
67.3411
20
158.5362
0
VERTEX
8
CUT
10
67.2809
20
158.2981
0
VERTEX
8
CUT
10
67.2444
20
158.0552
0
VERTEX
8
CUT
10
67.2318
20
157.8100
0
VERTEX
8
CUT
10
67.2433
20
157.5647
0
VERTEX
8
CUT
10
67.2789
20
157.3217
0
VERTEX
8
CUT
10
67.3382
20
157.0833
0
VERTEX
8
CUT
10
67.4205
20
156.8519
0
VERTEX
8
CUT
10
67.5252
20
156.6298
0
VERTEX
8
CUT
10
67.6511
20
156.4189
0
VERTEX
8
CUT
10
67.7971
20
156.2215
0
VERTEX
8
CUT
10
67.9618
20
156.0393
0
VERTEX
8
CUT
10
68.1436
20
155.8741
0
VERTEX
8
CUT
10
68.3407
20
155.7276
0
VERTEX
8
CUT
10
68.5512
20
155.6012
0
VERTEX
8
CUT
10
70.4202
20
154.5999
0
VERTEX
8
CUT
10
70.5566
20
154.5232
0
VERTEX
8
CUT
10
70.6481
20
154.4691
0
VERTEX
8
CUT
10
70.7811
20
154.3867
0
VERTEX
8
CUT
10
74.2845
20
152.1151
0
VERTEX
8
CUT
10
74.4168
20
152.0252
0
VERTEX
8
CUT
10
74.5054
20
151.9623
0
VERTEX
8
CUT
10
74.6338
20
151.8668
0
VERTEX
8
CUT
10
77.8680
20
149.3538
0
VERTEX
8
CUT
10
78.0082
20
149.2394
0
VERTEX
8
CUT
10
78.1015
20
149.1593
0
VERTEX
8
CUT
10
78.2360
20
149.0383
0
VERTEX
8
CUT
10
81.0898
20
146.3415
0
VERTEX
8
CUT
10
81.2040
20
146.2289
0
VERTEX
8
CUT
10
81.2800
20
146.1507
0
VERTEX
8
CUT
10
81.3893
20
146.0332
0
VERTEX
8
CUT
10
83.9561
20
143.1541
0
VERTEX
8
CUT
10
84.0856
20
143.0008
0
VERTEX
8
CUT
10
84.1707
20
142.8944
0
VERTEX
8
CUT
10
84.2917
20
142.7345
0
VERTEX
8
CUT
10
86.4601
20
139.7043
0
VERTEX
8
CUT
10
86.5682
20
139.5446
0
VERTEX
8
CUT
10
86.6388
20
139.4344
0
VERTEX
8
CUT
10
86.7386
20
139.2694
0
VERTEX
8
CUT
10
88.4904
20
136.1974
0
VERTEX
8
CUT
10
88.5507
20
136.0846
0
VERTEX
8
CUT
10
90.2812
20
132.0536
0
VERTEX
8
CUT
10
90.3090
20
131.9855
0
VERTEX
8
CUT
10
90.3112
20
131.9787
0
VERTEX
8
CUT
10
91.5254
20
127.9238
0
VERTEX
8
CUT
10
91.5683
20
127.7682
0
VERTEX
8
CUT
10
91.5754
20
127.7402
0
VERTEX
8
CUT
10
91.6411
20
127.4242
0
VERTEX
8
CUT
10
91.6457
20
127.3957
0
VERTEX
8
CUT
10
91.6683
20
127.2359
0
VERTEX
8
CUT
10
92.2210
20
122.6029
0
VERTEX
8
CUT
10
92.2356
20
122.4549
0
VERTEX
8
CUT
10
92.2436
20
122.3541
0
VERTEX
8
CUT
10
92.2524
20
122.2055
0
VERTEX
8
CUT
10
92.6812
20
111.3189
0
VERTEX
8
CUT
10
92.6847
20
111.2528
0
VERTEX
8
CUT
10
92.6857
20
111.2380
0
VERTEX
8
CUT
10
92.6893
20
111.1893
0
VERTEX
8
CUT
10
93.0230
20
107.2908
0
VERTEX
8
CUT
10
93.0507
20
107.0765
0
VERTEX
8
CUT
10
93.6254
20
103.7644
0
VERTEX
8
CUT
10
93.6320
20
103.7282
0
VERTEX
8
CUT
10
93.6332
20
103.7216
0
VERTEX
8
CUT
10
93.6667
20
103.5702
0
VERTEX
8
CUT
10
95.5088
20
96.3125
0
VERTEX
8
CUT
10
95.5507
20
96.1279
0
VERTEX
8
CUT
10
95.5761
20
96.0017
0
VERTEX
8
CUT
10
95.6087
20
95.8151
0
VERTEX
8
CUT
10
96.0072
20
93.1335
0
VERTEX
8
CUT
10
96.0314
20
92.9344
0
VERTEX
8
CUT
10
96.0442
20
92.7988
0
VERTEX
8
CUT
10
96.0546
20
92.6444
0
VERTEX
8
CUT
10
95.7578
20
64.6988
0
VERTEX
8
CUT
10
95.7580
20
64.6266
0
VERTEX
8
CUT
10
95.8725
20
58.3574
0
VERTEX
8
CUT
10
95.8731
20
58.3319
0
VERTEX
8
CUT
10
95.8732
20
58.3275
0
VERTEX
8
CUT
10
95.8785
20
58.2207
0
VERTEX
8
CUT
10
95.9683
20
56.9622
0
VERTEX
8
CUT
10
95.9905
20
55.2058
0
VERTEX
8
CUT
10
95.9922
20
55.1394
0
VERTEX
8
CUT
10
95.9928
20
55.1247
0
VERTEX
8
CUT
10
95.9952
20
55.0758
0
VERTEX
8
CUT
10
96.3352
20
49.2903
0
VERTEX
8
CUT
10
96.3371
20
49.2610
0
VERTEX
8
CUT
10
96.3375
20
49.2557
0
VERTEX
8
CUT
10
96.3493
20
49.1328
0
VERTEX
8
CUT
10
96.7399
20
45.8895
0
VERTEX
8
CUT
10
96.7490
20
45.8218
0
VERTEX
8
CUT
10
96.7512
20
45.8068
0
VERTEX
8
CUT
10
96.7591
20
45.7571
0
VERTEX
8
CUT
10
97.1393
20
43.5065
0
VERTEX
8
CUT
10
97.3528
20
41.9195
0
VERTEX
8
CUT
10
97.3569
20
41.8904
0
VERTEX
8
CUT
10
97.3576
20
41.8853
0
VERTEX
8
CUT
10
97.3785
20
41.7638
0
VERTEX
8
CUT
10
97.7625
20
39.8176
0
VERTEX
8
CUT
10
98.1314
20
37.6337
0
VERTEX
8
CUT
10
98.1371
20
37.6014
0
VERTEX
8
CUT
10
98.1381
20
37.5955
0
VERTEX
8
CUT
10
98.1666
20
37.4605
0
VERTEX
8
CUT
10
98.6466
20
35.4614
0
VERTEX
8
CUT
10
98.7119
20
35.2367
0
VERTEX
8
CUT
10
99.8574
20
31.8845
0
VERTEX
8
CUT
10
99.9252
20
31.7082
0
VERTEX
8
CUT
10
100.0061
20
31.5375
0
VERTEX
8
CUT
10
100.1848
20
31.1946
0
VERTEX
8
CUT
10
100.3101
20
30.9808
0
VERTEX
8
CUT
10
100.4558
20
30.7806
0
VERTEX
8
CUT
10
100.6207
20
30.5957
0
VERTEX
8
CUT
10
100.8030
20
30.4280
0
VERTEX
8
CUT
10
101.0011
20
30.2793
0
VERTEX
8
CUT
10
101.2129
20
30.1508
0
VERTEX
8
CUT
10
101.4363
20
30.0439
0
VERTEX
8
CUT
10
101.6693
20
29.9597
0
VERTEX
8
CUT
10
101.9094
20
29.8990
0
VERTEX
8
CUT
10
102.1544
20
29.8623
0
VERTEX
8
CUT
10
102.4018
20
29.8500
0
VERTEX
8
CUT
10
102.4477
20
29.8500
0
VERTEX
8
CUT
10
102.5144
20
29.8500
0
VERTEX
8
CUT
10
102.5739
20
29.8500
0
VERTEX
8
CUT
10
110.1372
20
29.8500
0
VERTEX
8
CUT
10
115.3048
20
29.8500
0
VERTEX
8
CUT
10
115.3092
20
29.8500
0
VERTEX
8
CUT
10
115.4061
20
29.8500
0
VERTEX
8
CUT
10
115.6618
20
29.8631
0
VERTEX
8
CUT
10
115.9149
20
29.9023
0
VERTEX
8
CUT
10
116.1627
20
29.9672
0
VERTEX
8
CUT
10
116.4025
20
30.0571
0
VERTEX
8
CUT
10
116.6318
20
30.1711
0
VERTEX
8
CUT
10
116.8483
20
30.3079
0
VERTEX
8
CUT
10
117.0496
20
30.4662
0
VERTEX
8
CUT
10
117.2337
20
30.6442
0
VERTEX
8
CUT
10
117.3986
20
30.8401
0
VERTEX
8
CUT
10
120.0115
20
34.2884
0
VERTEX
8
CUT
10
120.0279
20
34.3103
0
VERTEX
8
CUT
10
120.0308
20
34.3142
0
VERTEX
8
CUT
10
120.0972
20
34.4083
0
VERTEX
8
CUT
10
130.7104
20
50.2111
0
VERTEX
8
CUT
10
130.8110
20
50.3535
0
VERTEX
8
CUT
10
130.8815
20
50.4486
0
VERTEX
8
CUT
10
130.9885
20
50.5862
0
VERTEX
8
CUT
10
134.5540
20
54.9558
0
VERTEX
8
CUT
10
134.7048
20
55.1295
0
VERTEX
8
CUT
10
134.8107
20
55.2442
0
VERTEX
8
CUT
10
134.9719
20
55.4083
0
VERTEX
8
CUT
10
137.9620
20
58.2712
0
VERTEX
8
CUT
10
138.1518
20
58.4410
0
VERTEX
8
CUT
10
138.2844
20
58.5518
0
VERTEX
8
CUT
10
138.4853
20
58.7083
0
VERTEX
8
CUT
10
140.9765
20
60.5164
0
VERTEX
8
CUT
10
141.0937
20
60.5981
0
VERTEX
8
CUT
10
141.1150
20
60.6123
0
VERTEX
8
CUT
10
141.3582
20
60.7620
0
VERTEX
8
CUT
10
141.3805
20
60.7746
0
VERTEX
8
CUT
10
141.5062
20
60.8424
0
VERTEX
8
CUT
10
144.1680
20
62.2128
0
VERTEX
8
CUT
10
144.2980
20
62.2765
0
VERTEX
8
CUT
10
144.3871
20
62.3181
0
VERTEX
8
CUT
10
144.5194
20
62.3768
0
VERTEX
8
CUT
10
145.9430
20
62.9758
0
VERTEX
8
CUT
10
146.1930
20
63.0706
0
VERTEX
8
CUT
10
146.3647
20
63.1289
0
VERTEX
8
CUT
10
146.6207
20
63.2057
0
VERTEX
8
CUT
10
148.1055
20
63.5937
0
VERTEX
8
CUT
10
148.4199
20
63.6986
0
VERTEX
8
CUT
10
154.3353
20
66.1187
0
VERTEX
8
CUT
10
154.3584
20
66.1283
0
VERTEX
8
CUT
10
154.3626
20
66.1301
0
VERTEX
8
CUT
10
154.4590
20
66.1730
0
VERTEX
8
CUT
10
159.8848
20
68.7311
0
VERTEX
8
CUT
10
160.1202
20
68.8578
0
VERTEX
8
CUT
10
166.3665
20
72.6663
0
VERTEX
8
CUT
10
166.6104
20
72.8357
0
VERTEX
8
CUT
10
169.6121
20
75.1961
0
VERTEX
8
CUT
10
169.8809
20
75.4412
0
VERTEX
8
CUT
10
170.7239
20
76.3302
0
VERTEX
8
CUT
10
170.8821
20
76.5143
0
VERTEX
8
CUT
10
171.0218
20
76.7128
0
VERTEX
8
CUT
10
172.4892
20
79.0298
0
VERTEX
8
CUT
10
172.6145
20
79.2521
0
VERTEX
8
CUT
10
172.7165
20
79.4859
0
VERTEX
8
CUT
10
175.9457
20
88.0559
0
VERTEX
8
CUT
10
176.0024
20
88.1977
0
VERTEX
8
CUT
10
176.0131
20
88.2229
0
VERTEX
8
CUT
10
176.1437
20
88.4991
0
VERTEX
8
CUT
10
176.1564
20
88.5233
0
VERTEX
8
CUT
10
176.2301
20
88.6572
0
VERTEX
8
CUT
10
180.9879
20
96.9031
0
VERTEX
8
CUT
10
181.0854
20
97.0898
0
VERTEX
8
CUT
10
181.1669
20
97.2841
0
VERTEX
8
CUT
10
181.5634
20
98.3545
0
VERTEX
8
CUT
10
181.6492
20
98.6363
0
VERTEX
8
CUT
10
181.7014
20
98.9262
0
VERTEX
8
CUT
10
181.8004
20
99.7547
0
VERTEX
8
CUT
10
181.8170
20
99.9802
0
VERTEX
8
CUT
10
181.8132
20
100.2063
0
VERTEX
8
CUT
10
181.7310
20
101.5318
0
VERTEX
8
CUT
10
181.7057
20
101.7634
0
VERTEX
8
CUT
10
181.6590
20
101.9917
0
VERTEX
8
CUT
10
181.4527
20
102.8047
0
VERTEX
8
CUT
10
181.3689
20
103.0712
0
VERTEX
8
CUT
10
181.2560
20
103.3268
0
VERTEX
8
CUT
10
180.0856
20
105.6187
0
VERTEX
8
CUT
10
179.9672
20
105.8256
0
VERTEX
8
CUT
10
179.8296
20
106.0203
0
VERTEX
8
CUT
10
179.6741
20
106.2010
0
VERTEX
8
CUT
10
179.5021
20
106.3660
0
VERTEX
8
CUT
10
178.6163
20
107.1384
0
VERTEX
8
CUT
10
178.4399
20
107.2787
0
VERTEX
8
CUT
10
178.2516
20
107.4026
0
VERTEX
8
CUT
10
178.0529
20
107.5090
0
VERTEX
8
CUT
10
177.8455
20
107.5970
0
VERTEX
8
CUT
10
177.1617
20
107.8516
0
VERTEX
8
CUT
10
176.9128
20
107.9297
0
VERTEX
8
CUT
10
176.6571
20
107.9815
0
VERTEX
8
CUT
10
175.8715
20
108.0983
0
VERTEX
8
CUT
10
175.6252
20
108.1225
0
VERTEX
8
CUT
10
175.3777
20
108.1223
0
VERTEX
8
CUT
10
175.1314
20
108.0975
0
VERTEX
8
CUT
10
174.8887
20
108.0486
0
VERTEX
8
CUT
10
174.6521
20
107.9759
0
VERTEX
8
CUT
10
174.4239
20
107.8801
0
VERTEX
8
CUT
10
174.2062
20
107.7623
0
VERTEX
8
CUT
10
174.0012
20
107.6234
0
VERTEX
8
CUT
10
173.7536
20
107.4372
0
VERTEX
8
CUT
10
173.4784
20
107.2713
0
VERTEX
8
CUT
10
173.1878
20
107.1343
0
VERTEX
8
CUT
10
172.8847
20
107.0277
0
VERTEX
8
CUT
10
172.5423
20
106.9454
0
VERTEX
8
CUT
10
172.5087
20
106.9391
0
VERTEX
8
CUT
10
172.3194
20
106.9087
0
VERTEX
8
CUT
10
171.5043
20
106.7991
0
VERTEX
8
CUT
10
171.2938
20
106.7616
0
VERTEX
8
CUT
10
171.0874
20
106.7062
0
VERTEX
8
CUT
10
170.8864
20
106.6334
0
VERTEX
8
CUT
10
170.6233
20
106.5252
0
VERTEX
8
CUT
10
170.3764
20
106.4074
0
VERTEX
8
CUT
10
170.1438
20
106.2633
0
VERTEX
8
CUT
10
169.9283
20
106.0947
0
VERTEX
8
CUT
10
169.8168
20
105.9972
0
VERTEX
8
CUT
10
169.7748
20
105.9596
0
VERTEX
8
CUT
10
169.6302
20
105.8272
0
VERTEX
8
CUT
10
169.5976
20
105.7986
0
VERTEX
8
CUT
10
169.3180
20
105.5778
0
VERTEX
8
CUT
10
169.0436
20
105.4039
0
VERTEX
8
CUT
10
168.7526
20
105.2592
0
VERTEX
8
CUT
10
168.4483
20
105.1453
0
VERTEX
8
CUT
10
168.1338
20
105.0634
0
VERTEX
8
CUT
10
167.8126
20
105.0144
0
VERTEX
8
CUT
10
167.4880
20
104.9988
0
VERTEX
8
CUT
10
167.1324
20
105.0185
0
VERTEX
8
CUT
10
167.0880
20
105.0233
0
VERTEX
8
CUT
10
166.9439
20
105.0416
0
VERTEX
8
CUT
10
166.9433
20
105.0417
0
VERTEX
8
CUT
10
166.9112
20
105.0462
0
VERTEX
8
CUT
10
166.9023
20
105.0474
0
VERTEX
8
CUT
10
166.8379
20
105.0552
0
VERTEX
8
CUT
10
164.9332
20
105.2597
0
VERTEX
8
CUT
10
164.6191
20
105.2736
0
VERTEX
8
CUT
10
161.8484
20
105.2213
0
VERTEX
8
CUT
10
161.5923
20
105.2033
0
VERTEX
8
CUT
10
160.7422
20
105.0994
0
VERTEX
8
CUT
10
160.5600
20
105.0817
0
VERTEX
8
CUT
10
160.5274
20
105.0793
0
VERTEX
8
CUT
10
160.1911
20
105.0712
0
VERTEX
8
CUT
10
159.8850
20
105.0938
0
VERTEX
8
CUT
10
159.5825
20
105.1462
0
VERTEX
8
CUT
10
159.2866
20
105.2277
0
VERTEX
8
CUT
10
159.0001
20
105.3378
0
VERTEX
8
CUT
10
158.7256
20
105.4752
0
VERTEX
8
CUT
10
158.4659
20
105.6387
0
VERTEX
8
CUT
10
158.2233
20
105.8268
0
VERTEX
8
CUT
10
158.0002
20
106.0376
0
VERTEX
8
CUT
10
157.7988
20
106.2692
0
VERTEX
8
CUT
10
157.6209
20
106.5193
0
VERTEX
8
CUT
10
157.4682
20
106.7856
0
VERTEX
8
CUT
10
157.3421
20
107.0655
0
VERTEX
8
CUT
10
157.2440
20
107.3563
0
VERTEX
8
CUT
10
157.1747
20
107.6553
0
VERTEX
8
CUT
10
157.1349
20
107.9596
0
VERTEX
8
CUT
10
157.1249
20
108.2664
0
VERTEX
8
CUT
10
157.1449
20
108.5727
0
VERTEX
8
CUT
10
157.1946
20
108.8756
0
VERTEX
8
CUT
10
157.2737
20
109.1722
0
VERTEX
8
CUT
10
157.3812
20
109.4597
0
VERTEX
8
CUT
10
157.5163
20
109.7353
0
VERTEX
8
CUT
10
157.6776
20
109.9964
0
VERTEX
8
CUT
10
157.8636
20
110.2406
0
VERTEX
8
CUT
10
158.0725
20
110.4654
0
VERTEX
8
CUT
10
158.3024
20
110.6689
0
VERTEX
8
CUT
10
158.5510
20
110.8489
0
VERTEX
8
CUT
10
158.8159
20
111.0039
0
VERTEX
8
CUT
10
159.1215
20
111.1446
0
VERTEX
8
CUT
10
159.1518
20
111.1568
0
VERTEX
8
CUT
10
159.3233
20
111.2211
0
VERTEX
8
CUT
10
161.4365
20
111.9543
0
VERTEX
8
CUT
10
161.5222
20
111.9858
0
VERTEX
8
CUT
10
163.1230
20
112.6075
0
VERTEX
8
CUT
10
163.2936
20
112.6812
0
VERTEX
8
CUT
10
163.4583
20
112.7674
0
VERTEX
8
CUT
10
164.4198
20
113.3169
0
VERTEX
8
CUT
10
164.6306
20
113.4518
0
VERTEX
8
CUT
10
164.8269
20
113.6071
0
VERTEX
8
CUT
10
166.0168
20
114.6498
0
VERTEX
8
CUT
10
166.1876
20
114.8144
0
VERTEX
8
CUT
10
166.3420
20
114.9944
0
VERTEX
8
CUT
10
166.4787
20
115.1883
0
VERTEX
8
CUT
10
167.1476
20
116.2398
0
VERTEX
8
CUT
10
167.2567
20
116.4291
0
VERTEX
8
CUT
10
167.3488
20
116.6271
0
VERTEX
8
CUT
10
167.4233
20
116.8325
0
VERTEX
8
CUT
10
167.5122
20
117.1155
0
VERTEX
8
CUT
10
167.5709
20
117.3375
0
VERTEX
8
CUT
10
167.6090
20
117.5640
0
VERTEX
8
CUT
10
167.6261
20
117.7931
0
VERTEX
8
CUT
10
167.6553
20
118.8121
0
VERTEX
8
CUT
10
167.6509
20
119.0478
0
VERTEX
8
CUT
10
167.6243
20
119.2821
0
VERTEX
8
CUT
10
167.5758
20
119.5128
0
VERTEX
8
CUT
10
167.4885
20
119.8485
0
VERTEX
8
CUT
10
167.3978
20
120.1284
0
VERTEX
8
CUT
10
167.2749
20
120.3957
0
VERTEX
8
CUT
10
166.7654
20
121.3512
0
VERTEX
8
CUT
10
166.6536
20
121.5403
0
VERTEX
8
CUT
10
166.5256
20
121.7188
0
VERTEX
8
CUT
10
164.8536
20
123.8480
0
VERTEX
8
CUT
10
164.7422
20
123.9974
0
VERTEX
8
CUT
10
164.7229
20
124.0246
0
VERTEX
8
CUT
10
164.5391
20
124.3137
0
VERTEX
8
CUT
10
164.3985
20
124.5928
0
VERTEX
8
CUT
10
164.2862
20
124.8844
0
VERTEX
8
CUT
10
164.2035
20
125.1857
0
VERTEX
8
CUT
10
164.1510
20
125.4938
0
VERTEX
8
CUT
10
164.1294
20
125.8056
0
VERTEX
8
CUT
10
164.1389
20
126.1179
0
VERTEX
8
CUT
10
164.1793
20
126.4278
0
VERTEX
8
CUT
10
164.2502
20
126.7322
0
VERTEX
8
CUT
10
164.3510
20
127.0279
0
VERTEX
8
CUT
10
164.4807
20
127.3123
0
VERTEX
8
CUT
10
164.6380
20
127.5823
0
VERTEX
8
CUT
10
164.8213
20
127.8354
0
VERTEX
8
CUT
10
165.0180
20
128.0570
0
VERTEX
8
CUT
10
165.1692
20
128.2448
0
VERTEX
8
CUT
10
165.3016
20
128.4463
0
VERTEX
8
CUT
10
165.4140
20
128.6596
0
VERTEX
8
CUT
10
165.5054
20
128.8828
0
VERTEX
8
CUT
10
165.5748
20
129.1137
0
VERTEX
8
CUT
10
165.6216
20
129.3502
0
VERTEX
8
CUT
10
165.6454
20
129.5902
0
VERTEX
8
CUT
10
165.6460
20
129.8313
0
VERTEX
8
CUT
10
165.6234
20
130.0713
0
VERTEX
8
CUT
10
165.5777
20
130.3081
0
VERTEX
8
CUT
10
165.5095
20
130.5394
0
VERTEX
8
CUT
10
165.4193
20
130.7630
0
VERTEX
8
CUT
10
165.3080
20
130.9769
0
VERTEX
8
CUT
10
165.1765
20
131.1790
0
VERTEX
8
CUT
10
165.0751
20
131.3062
0
VERTEX
8
CUT
10
165.0759
20
131.3068
0
VERTEX
8
CUT
10
164.8322
20
131.6124
0
VERTEX
8
CUT
10
164.6675
20
131.8654
0
VERTEX
8
CUT
10
164.5278
20
132.1330
0
VERTEX
8
CUT
10
164.4144
20
132.4127
0
VERTEX
8
CUT
10
164.3283
20
132.7021
0
VERTEX
8
CUT
10
164.2704
20
132.9983
0
VERTEX
8
CUT
10
164.2412
20
133.2988
0
VERTEX
8
CUT
10
164.2409
20
133.6007
0
VERTEX
8
CUT
10
164.2695
20
133.9012
0
VERTEX
8
CUT
10
164.3268
20
134.1975
0
VERTEX
8
CUT
10
164.4123
20
134.4870
0
VERTEX
8
CUT
10
164.5251
20
134.7670
0
VERTEX
8
CUT
10
164.6643
20
135.0349
0
VERTEX
8
CUT
10
164.8442
20
135.3125
0
VERTEX
8
CUT
10
164.8800
20
135.3622
0
VERTEX
8
CUT
10
164.8836
20
135.3673
0
VERTEX
8
CUT
10
165.0161
20
135.5674
0
VERTEX
8
CUT
10
165.1287
20
135.7793
0
VERTEX
8
CUT
10
165.1739
20
135.8753
0
VERTEX
8
CUT
10
165.1889
20
135.9051
0
VERTEX
8
CUT
10
165.3576
20
136.2032
0
VERTEX
8
CUT
10
165.5378
20
136.4585
0
VERTEX
8
CUT
10
165.7424
20
136.6947
0
VERTEX
8
CUT
10
165.9694
20
136.9095
0
VERTEX
8
CUT
10
166.2167
20
137.1006
0
VERTEX
8
CUT
10
166.4816
20
137.2662
0
VERTEX
8
CUT
10
166.7618
20
137.4048
0
VERTEX
8
CUT
10
167.0542
20
137.5148
0
VERTEX
8
CUT
10
167.4011
20
137.6072
0
VERTEX
8
CUT
10
167.6320
20
137.6809
0
VERTEX
8
CUT
10
167.8546
20
137.7766
0
VERTEX
8
CUT
10
168.0670
20
137.8934
0
VERTEX
8
CUT
10
168.2670
20
138.0302
0
VERTEX
8
CUT
10
168.4528
20
138.1857
0
VERTEX
8
CUT
10
168.6228
20
138.3585
0
VERTEX
8
CUT
10
168.7752
20
138.5470
0
VERTEX
8
CUT
10
168.9086
20
138.7493
0
VERTEX
8
CUT
10
169.0218
20
138.9635
0
VERTEX
8
CUT
10
169.1137
20
139.1878
0
VERTEX
8
CUT
10
169.1835
20
139.4198
0
VERTEX
8
CUT
10
169.2305
20
139.6576
0
VERTEX
8
CUT
10
169.2543
20
139.8988
0
VERTEX
8
CUT
10
169.2547
20
139.9079
0
VERTEX
8
CUT
10
169.3001
20
140.2126
0
VERTEX
8
CUT
10
169.3750
20
140.5115
0
VERTEX
8
CUT
10
169.4788
20
140.8015
0
VERTEX
8
CUT
10
169.6105
20
141.0800
0
VERTEX
8
CUT
10
169.7688
20
141.3443
0
VERTEX
8
CUT
10
169.9522
20
141.5918
0
VERTEX
8
CUT
10
170.1590
20
141.8202
0
VERTEX
8
CUT
10
170.3871
20
142.0273
0
VERTEX
8
CUT
10
170.6343
20
142.2110
0
VERTEX
8
CUT
10
170.8984
20
142.3697
0
VERTEX
8
CUT
10
171.0055
20
142.4205
0
VERTEX
8
CUT
10
171.2187
20
142.5346
0
VERTEX
8
CUT
10
171.4198
20
142.6687
0
VERTEX
8
CUT
10
171.6070
20
142.8217
0
VERTEX
8
CUT
10
171.7786
20
142.9919
0
VERTEX
8
CUT
10
171.9329
20
143.1780
0
VERTEX
8
CUT
10
172.0685
20
143.3781
0
VERTEX
8
CUT
10
172.1827
20
143.5877
0
VERTEX
8
CUT
10
172.3427
20
143.8498
0
VERTEX
8
CUT
10
172.5264
20
144.0940
0
VERTEX
8
CUT
10
172.7329
20
144.3192
0
VERTEX
8
CUT
10
172.9604
20
144.5233
0
VERTEX
8
CUT
10
173.2065
20
144.7044
0
VERTEX
8
CUT
10
173.4691
20
144.8607
0
VERTEX
8
CUT
10
173.7456
20
144.9908
0
VERTEX
8
CUT
10
174.0334
20
145.0934
0
VERTEX
8
CUT
10
174.3298
20
145.1676
0
VERTEX
8
CUT
10
174.6321
20
145.2127
0
VERTEX
8
CUT
10
174.9372
20
145.2283
0
VERTEX
8
CUT
10
175.2425
20
145.2142
0
VERTEX
8
CUT
10
175.5740
20
145.1663
0
VERTEX
8
CUT
10
175.6060
20
145.1600
0
VERTEX
8
CUT
10
175.7839
20
145.1209
0
VERTEX
8
CUT
10
179.0900
20
144.3095
0
VERTEX
8
CUT
10
179.2441
20
144.2682
0
VERTEX
8
CUT
10
179.2716
20
144.2602
0
VERTEX
8
CUT
10
179.5738
20
144.1581
0
VERTEX
8
CUT
10
179.6004
20
144.1478
0
VERTEX
8
CUT
10
179.7481
20
144.0872
0
VERTEX
8
CUT
10
182.1158
20
143.0556
0
VERTEX
8
CUT
10
182.3635
20
142.9366
0
VERTEX
8
CUT
10
182.5285
20
142.8498
0
VERTEX
8
CUT
10
182.7669
20
142.7131
0
VERTEX
8
CUT
10
187.0656
20
140.0329
0
VERTEX
8
CUT
10
187.1777
20
139.9602
0
VERTEX
8
CUT
10
187.2529
20
139.9094
0
VERTEX
8
CUT
10
187.3623
20
139.8328
0
VERTEX
8
CUT
10
196.2287
20
133.3849
0
VERTEX
8
CUT
10
196.3823
20
133.2671
0
VERTEX
8
CUT
10
196.4091
20
133.2453
0
VERTEX
8
CUT
10
196.6969
20
132.9867
0
VERTEX
8
CUT
10
196.7214
20
132.9623
0
VERTEX
8
CUT
10
196.8549
20
132.8222
0
VERTEX
8
CUT
10
197.7229
20
131.8631
0
VERTEX
8
CUT
10
197.8959
20
131.6898
0
VERTEX
8
CUT
10
198.0850
20
131.5343
0
VERTEX
8
CUT
10
198.2883
20
131.3980
0
VERTEX
8
CUT
10
198.5041
20
131.2823
0
VERTEX
8
CUT
10
198.7301
20
131.1882
0
VERTEX
8
CUT
10
198.9642
20
131.1167
0
VERTEX
8
CUT
10
199.2043
20
131.0684
0
VERTEX
8
CUT
10
199.4478
20
131.0439
0
VERTEX
8
CUT
10
199.6927
20
131.0433
0
VERTEX
8
CUT
10
199.9364
20
131.0666
0
VERTEX
8
CUT
10
200.1766
20
131.1136
0
VERTEX
8
CUT
10
200.4111
20
131.1840
0
VERTEX
8
CUT
10
200.6376
20
131.2769
0
VERTEX
8
CUT
10
200.8539
20
131.3915
0
VERTEX
8
CUT
10
201.0580
20
131.5268
0
VERTEX
8
CUT
10
201.2479
20
131.6813
0
VERTEX
8
CUT
10
201.4217
20
131.8537
0
VERTEX
8
CUT
10
201.5779
20
132.0423
0
VERTEX
8
CUT
10
201.7148
20
132.2452
0
VERTEX
8
CUT
10
201.8313
20
132.4606
0
VERTEX
8
CUT
10
201.8763
20
132.5546
0
VERTEX
8
CUT
10
202.0278
20
132.8112
0
VERTEX
8
CUT
10
202.0436
20
132.8356
0
VERTEX
8
CUT
10
202.1349
20
132.9695
0
VERTEX
8
CUT
10
205.0249
20
137.0206
0
VERTEX
8
CUT
10
205.0450
20
137.0492
0
VERTEX
8
CUT
10
205.0486
20
137.0545
0
VERTEX
8
CUT
10
205.1289
20
137.1781
0
VERTEX
8
CUT
10
207.8072
20
141.5792
0
VERTEX
8
CUT
10
207.9106
20
141.7397
0
VERTEX
8
CUT
10
207.9299
20
141.7680
0
VERTEX
8
CUT
10
208.1422
20
142.0481
0
VERTEX
8
CUT
10
208.3610
20
142.2826
0
VERTEX
8
CUT
10
208.6025
20
142.4936
0
VERTEX
8
CUT
10
208.8642
20
142.6789
0
VERTEX
8
CUT
10
209.1435
20
142.8366
0
VERTEX
8
CUT
10
209.4373
20
142.9650
0
VERTEX
8
CUT
10
209.7427
20
143.0628
0
VERTEX
8
CUT
10
210.0565
20
143.1290
0
VERTEX
8
CUT
10
210.3754
20
143.1629
0
VERTEX
8
CUT
10
210.7092
20
143.1642
0
VERTEX
8
CUT
10
211.0374
20
143.1325
0
VERTEX
8
CUT
10
211.3371
20
143.0738
0
VERTEX
8
CUT
10
211.6236
20
142.9889
0
VERTEX
8
CUT
10
211.9272
20
142.8665
0
VERTEX
8
CUT
10
211.9562
20
142.8532
0
VERTEX
8
CUT
10
212.1162
20
142.7750
0
VERTEX
8
CUT
10
212.2875
20
142.6862
0
VERTEX
8
CUT
10
212.4516
20
142.5959
0
VERTEX
8
CUT
10
212.4805
20
142.5790
0
VERTEX
8
CUT
10
212.7689
20
142.3908
0
VERTEX
8
CUT
10
213.0135
20
142.1938
0
VERTEX
8
CUT
10
213.2384
20
141.9722
0
VERTEX
8
CUT
10
213.4398
20
141.7299
0
VERTEX
8
CUT
10
213.6228
20
141.4585
0
VERTEX
8
CUT
10
213.7710
20
141.1820
0
VERTEX
8
CUT
10
213.8914
20
140.8902
0
VERTEX
8
CUT
10
213.9820
20
140.5879
0
VERTEX
8
CUT
10
214.0419
20
140.2779
0
VERTEX
8
CUT
10
214.0703
20
139.9635
0
VERTEX
8
CUT
10
214.0668
20
139.6175
0
VERTEX
8
CUT
10
214.0667
20
139.6154
0
VERTEX
8
CUT
10
214.0685
20
139.6153
0
VERTEX
8
CUT
10
214.0591
20
139.4592
0
VERTEX
8
CUT
10
214.0697
20
139.2055
0
VERTEX
8
CUT
10
214.1060
20
138.9543
0
VERTEX
8
CUT
10
214.1676
20
138.7080
0
VERTEX
8
CUT
10
214.2538
20
138.4692
0
VERTEX
8
CUT
10
214.3638
20
138.2404
0
VERTEX
8
CUT
10
214.4964
20
138.0240
0
VERTEX
8
CUT
10
214.6503
20
137.8221
0
VERTEX
8
CUT
10
214.8239
20
137.6369
0
VERTEX
8
CUT
10
215.0153
20
137.4702
0
VERTEX
8
CUT
10
215.2227
20
137.3238
0
VERTEX
8
CUT
10
215.5639
20
137.1080
0
VERTEX
8
CUT
10
215.8770
20
136.8638
0
VERTEX
8
CUT
10
215.8782
20
136.8653
0
VERTEX
8
CUT
10
215.9964
20
136.7733
0
VERTEX
8
CUT
10
216.2066
20
136.6409
0
VERTEX
8
CUT
10
216.4288
20
136.5301
0
VERTEX
8
CUT
10
216.5677
20
136.4772
0
VERTEX
8
CUT
10
216.5653
20
136.3759
0
VERTEX
8
CUT
10
216.5839
20
136.1297
0
VERTEX
8
CUT
10
216.6267
20
135.8865
0
VERTEX
8
CUT
10
216.6932
20
135.6487
0
VERTEX
8
CUT
10
216.7809
20
135.3861
0
VERTEX
8
CUT
10
216.8493
20
135.0866
0
VERTEX
8
CUT
10
216.8881
20
134.7820
0
VERTEX
8
CUT
10
216.8970
20
134.4749
0
VERTEX
8
CUT
10
216.8760
20
134.1685
0
VERTEX
8
CUT
10
216.8655
20
134.1059
0
VERTEX
8
CUT
10
216.8369
20
133.8644
0
VERTEX
8
CUT
10
216.8320
20
133.6213
0
VERTEX
8
CUT
10
216.8506
20
133.3789
0
VERTEX
8
CUT
10
216.8928
20
133.1395
0
VERTEX
8
CUT
10
216.9580
20
132.9053
0
VERTEX
8
CUT
10
217.0456
20
132.6785
0
VERTEX
8
CUT
10
217.1548
20
132.4613
0
VERTEX
8
CUT
10
217.2847
20
132.2558
0
VERTEX
8
CUT
10
217.4339
20
132.0638
0
VERTEX
8
CUT
10
217.6010
20
131.8872
0
VERTEX
8
CUT
10
217.7845
20
131.7277
0
VERTEX
8
CUT
10
217.9826
20
131.5868
0
VERTEX
8
CUT
10
218.1934
20
131.4658
0
VERTEX
8
CUT
10
218.4151
20
131.3658
0
VERTEX
8
CUT
10
218.6453
20
131.2878
0
VERTEX
8
CUT
10
218.8821
20
131.2326
0
VERTEX
8
CUT
10
219.1231
20
131.2006
0
VERTEX
8
CUT
10
219.3661
20
131.1922
0
VERTEX
8
CUT
10
219.6087
20
131.2075
0
VERTEX
8
CUT
10
219.8487
20
131.2462
0
VERTEX
8
CUT
10
220.0839
20
131.3080
0
VERTEX
8
CUT
10
220.3119
20
131.3925
0
VERTEX
8
CUT
10
220.5306
20
131.4986
0
VERTEX
8
CUT
10
220.7380
20
131.6255
0
VERTEX
8
CUT
10
220.9320
20
131.7719
0
VERTEX
8
CUT
10
221.1110
20
131.9365
0
VERTEX
8
CUT
10
221.2731
20
132.1177
0
VERTEX
8
CUT
10
221.2787
20
132.1247
0
VERTEX
8
CUT
10
221.4931
20
132.3583
0
VERTEX
8
CUT
10
221.7196
20
132.5615
0
VERTEX
8
CUT
10
221.9881
20
132.7592
0
VERTEX
8
CUT
10
222.0151
20
132.7771
0
VERTEX
8
CUT
10
222.1687
20
132.8738
0
VERTEX
8
CUT
10
222.5767
20
133.1171
0
VERTEX
8
CUT
10
222.7782
20
133.2510
0
VERTEX
8
CUT
10
222.9659
20
133.4036
0
VERTEX
8
CUT
10
223.1379
20
133.5737
0
VERTEX
8
CUT
10
223.2926
20
133.7597
0
VERTEX
8
CUT
10
223.4287
20
133.9597
0
VERTEX
8
CUT
10
223.5448
20
134.1719
0
VERTEX
8
CUT
10
223.6399
20
134.3943
0
VERTEX
8
CUT
10
223.7130
20
134.6249
0
VERTEX
8
CUT
10
223.7635
20
134.8615
0
VERTEX
8
CUT
10
223.7908
20
135.1019
0
VERTEX
8
CUT
10
223.7948
20
135.3438
0
VERTEX
8
CUT
10
223.7755
20
135.5849
0
VERTEX
8
CUT
10
223.7329
20
135.8230
0
VERTEX
8
CUT
10
223.6675
20
136.0559
0
VERTEX
8
CUT
10
223.5798
20
136.2814
0
VERTEX
8
CUT
10
223.4708
20
136.4974
0
VERTEX
8
CUT
10
223.3415
20
136.7018
0
VERTEX
8
CUT
10
223.1930
20
136.8927
0
VERTEX
8
CUT
10
223.0267
20
137.0684
0
VERTEX
8
CUT
10
222.8442
20
137.2273
0
VERTEX
8
CUT
10
222.6472
20
137.3677
0
VERTEX
8
CUT
10
222.4376
20
137.4884
0
VERTEX
8
CUT
10
222.2173
20
137.5883
0
VERTEX
8
CUT
10
221.9884
20
137.6665
0
VERTEX
8
CUT
10
221.7309
20
137.7407
0
VERTEX
8
CUT
10
221.4424
20
137.8557
0
VERTEX
8
CUT
10
221.1666
20
137.9986
0
VERTEX
8
CUT
10
220.9063
20
138.1681
0
VERTEX
8
CUT
10
220.6283
20
138.3910
0
VERTEX
8
CUT
10
220.4283
20
138.5357
0
VERTEX
8
CUT
10
220.2149
20
138.6600
0
VERTEX
8
CUT
10
219.9904
20
138.7627
0
VERTEX
8
CUT
10
219.9301
20
138.7833
0
VERTEX
8
CUT
10
219.9322
20
138.8299
0
VERTEX
8
CUT
10
219.9189
20
139.0779
0
VERTEX
8
CUT
10
219.8810
20
139.3234
0
VERTEX
8
CUT
10
219.8190
20
139.5639
0
VERTEX
8
CUT
10
219.7051
20
139.9292
0
VERTEX
8
CUT
10
219.6423
20
140.2334
0
VERTEX
8
CUT
10
219.6099
20
140.5423
0
VERTEX
8
CUT
10
219.6081
20
140.8529
0
VERTEX
8
CUT
10
219.6370
20
141.1621
0
VERTEX
8
CUT
10
219.6962
20
141.4670
0
VERTEX
8
CUT
10
219.7852
20
141.7645
0
VERTEX
8
CUT
10
219.9031
20
142.0519
0
VERTEX
8
CUT
10
220.0488
20
142.3261
0
VERTEX
8
CUT
10
220.2373
20
142.6096
0
VERTEX
8
CUT
10
220.2570
20
142.6362
0
VERTEX
8
CUT
10
220.3707
20
142.7824
0
VERTEX
8
CUT
10
221.2186
20
143.8185
0
VERTEX
8
CUT
10
221.3657
20
144.0176
0
VERTEX
8
CUT
10
221.4925
20
144.2304
0
VERTEX
8
CUT
10
221.5975
20
144.4546
0
VERTEX
8
CUT
10
221.6799
20
144.6881
0
VERTEX
8
CUT
10
221.7387
20
144.9287
0
VERTEX
8
CUT
10
221.7735
20
145.1739
0
VERTEX
8
CUT
10
221.7838
20
145.4213
0
VERTEX
8
CUT
10
221.7696
20
145.6685
0
VERTEX
8
CUT
10
221.7310
20
145.9131
0
VERTEX
8
CUT
10
221.6684
20
146.1527
0
VERTEX
8
CUT
10
221.5825
20
146.3849
0
VERTEX
8
CUT
10
221.4739
20
146.6075
0
VERTEX
8
CUT
10
221.3439
20
146.8182
0
VERTEX
8
CUT
10
221.1937
20
147.0151
0
VERTEX
8
CUT
10
221.0247
20
147.1961
0
VERTEX
8
CUT
10
220.8387
20
147.3595
0
VERTEX
8
CUT
10
220.6373
20
147.5037
0
VERTEX
8
CUT
10
220.4228
20
147.6273
0
VERTEX
8
CUT
10
220.1970
20
147.7290
0
VERTEX
8
CUT
10
219.9623
20
147.8080
0
VERTEX
8
CUT
10
219.7209
20
147.8633
0
VERTEX
8
CUT
10
219.5637
20
147.8832
0
VERTEX
8
CUT
10
219.5639
20
147.8847
0
VERTEX
8
CUT
10
219.1739
20
147.9337
0
VERTEX
8
CUT
10
218.8778
20
148.0003
0
VERTEX
8
CUT
10
218.5896
20
148.0952
0
VERTEX
8
CUT
10
218.3118
20
148.2174
0
VERTEX
8
CUT
10
218.0471
20
148.3659
0
VERTEX
8
CUT
10
217.7979
20
148.5391
0
VERTEX
8
CUT
10
217.5666
20
148.7356
0
VERTEX
8
CUT
10
217.3553
20
148.9535
0
VERTEX
8
CUT
10
217.1660
20
149.1907
0
VERTEX
8
CUT
10
217.0004
20
149.4450
0
VERTEX
8
CUT
10
216.8601
20
149.7141
0
VERTEX
8
CUT
10
216.7464
20
149.9955
0
VERTEX
8
CUT
10
216.6604
20
150.2866
0
VERTEX
8
CUT
10
216.6028
20
150.5845
0
VERTEX
8
CUT
10
216.5742
20
150.8867
0
VERTEX
8
CUT
10
216.5749
20
151.2193
0
VERTEX
8
CUT
10
216.5774
20
151.2687
0
VERTEX
8
CUT
10
216.5852
20
151.3856
0
VERTEX
8
CUT
10
216.5853
20
151.3869
0
VERTEX
8
CUT
10
216.5930
20
151.5352
0
VERTEX
8
CUT
10
216.6476
20
153.9811
0
VERTEX
8
CUT
10
216.6425
20
154.2053
0
VERTEX
8
CUT
10
215.8519
20
165.9145
0
VERTEX
8
CUT
10
215.8449
20
166.0590
0
VERTEX
8
CUT
10
215.8442
20
166.0849
0
VERTEX
8
CUT
10
215.8470
20
166.3742
0
VERTEX
8
CUT
10
215.8483
20
166.4001
0
VERTEX
8
CUT
10
215.8580
20
166.5444
0
VERTEX
8
CUT
10
216.0710
20
168.9882
0
VERTEX
8
CUT
10
216.0901
20
169.1613
0
VERTEX
8
CUT
10
216.0943
20
169.1921
0
VERTEX
8
CUT
10
216.1565
20
169.5345
0
VERTEX
8
CUT
10
216.1635
20
169.5649
0
VERTEX
8
CUT
10
216.2064
20
169.7336
0
VERTEX
8
CUT
10
216.7783
20
171.7788
0
VERTEX
8
CUT
10
216.8557
20
172.0230
0
VERTEX
8
CUT
10
216.9138
20
172.1869
0
VERTEX
8
CUT
10
217.0077
20
172.4252
0
VERTEX
8
CUT
10
217.3627
20
173.2436
0
VERTEX
8
CUT
10
217.4566
20
173.4438
0
VERTEX
8
CUT
10
217.5244
20
173.5777
0
VERTEX
8
CUT
10
217.6299
20
173.7720
0
VERTEX
8
CUT
10
218.4985
20
175.2637
0
VERTEX
8
CUT
10
219.2973
20
176.2952
0
VERTEX
8
CUT
10
219.5273
20
176.5922
0
VERTEX
8
CUT
10
219.7846
20
176.9245
0
VERTEX
8
CUT
10
219.8801
20
177.0477
0
VERTEX
8
CUT
10
220.0164
20
177.1939
0
VERTEX
8
CUT
10
220.1432
20
177.3206
0
VERTEX
8
CUT
10
220.3365
20
177.5007
0
VERTEX
8
CUT
10
221.1870
20
178.2387
0
VERTEX
8
CUT
10
221.3144
20
178.3444
0
VERTEX
8
CUT
10
221.3376
20
178.3628
0
VERTEX
8
CUT
10
221.6056
20
178.5567
0
VERTEX
8
CUT
10
221.6303
20
178.5730
0
VERTEX
8
CUT
10
221.7705
20
178.6609
0
VERTEX
8
CUT
10
223.5267
20
179.7092
0
VERTEX
8
CUT
10
223.7064
20
179.8099
0
VERTEX
8
CUT
10
223.7390
20
179.8270
0
VERTEX
8
CUT
10
224.1137
20
179.9980
0
VERTEX
8
CUT
10
224.1479
20
180.0114
0
VERTEX
8
CUT
10
224.3418
20
180.0812
0
VERTEX
8
CUT
10
226.3990
20
180.7591
0
VERTEX
8
CUT
10
226.5561
20
180.8070
0
VERTEX
8
CUT
10
226.5844
20
180.8150
0
VERTEX
8
CUT
10
226.9041
20
180.8901
0
VERTEX
8
CUT
10
226.9329
20
180.8956
0
VERTEX
8
CUT
10
227.0950
20
180.9225
0
VERTEX
8
CUT
10
233.7535
20
181.8817
0
VERTEX
8
CUT
10
233.7874
20
181.8868
0
VERTEX
8
CUT
10
233.7936
20
181.8878
0
VERTEX
8
CUT
10
233.9353
20
181.9144
0
VERTEX
8
CUT
10
235.9429
20
182.3516
0
VERTEX
8
CUT
10
236.2853
20
182.4522
0
VERTEX
8
CUT
10
237.0687
20
182.7447
0
VERTEX
8
CUT
10
237.1178
20
182.7590
0
VERTEX
8
CUT
10
238.3784
20
183.2180
0
VERTEX
8
CUT
10
238.5609
20
183.2927
0
VERTEX
8
CUT
10
238.6299
20
183.3275
0
VERTEX
8
CUT
10
238.8512
20
183.4101
0
VERTEX
8
CUT
10
239.0426
20
183.4908
0
VERTEX
8
CUT
10
239.2266
20
183.5871
0
VERTEX
8
CUT
10
241.9336
20
185.1496
0
VERTEX
8
CUT
10
242.0991
20
185.2540
0
VERTEX
8
CUT
10
242.2560
20
185.3711
0
VERTEX
8
CUT
10
243.7409
20
186.5722
0
VERTEX
8
CUT
10
244.0005
20
186.8147
0
VERTEX
8
CUT
10
245.3179
20
188.2332
0
VERTEX
8
CUT
10
245.5121
20
188.4698
0
VERTEX
8
CUT
10
246.6039
20
189.9801
0
VERTEX
8
CUT
10
246.7938
20
190.2873
0
VERTEX
8
CUT
10
247.5995
20
191.8296
0
VERTEX
8
CUT
10
247.7432
20
192.1611
0
VERTEX
8
CUT
10
248.3066
20
193.7704
0
VERTEX
8
CUT
10
248.3631
20
193.9542
0
VERTEX
8
CUT
10
248.4053
20
194.1418
0
VERTEX
8
CUT
10
248.7112
20
195.7959
0
VERTEX
8
CUT
10
248.7408
20
196.0050
0
VERTEX
8
CUT
10
248.7526
20
196.2158
0
VERTEX
8
CUT
10
248.7736
20
197.7232
0
VERTEX
8
CUT
10
248.7637
20
197.9832
0
VERTEX
8
CUT
10
248.7268
20
198.2407
0
VERTEX
8
CUT
10
248.3569
20
200.1205
0
VERTEX
8
CUT
10
248.2909
20
200.3810
0
VERTEX
8
CUT
10
248.1973
20
200.6330
0
VERTEX
8
CUT
10
247.4879
20
202.2675
0
VERTEX
8
CUT
10
247.3979
20
202.4535
0
VERTEX
8
CUT
10
247.2927
20
202.6316
0
VERTEX
8
CUT
10
247.1732
20
202.8003
0
VERTEX
8
CUT
10
246.2414
20
204.0068
0
VERTEX
8
CUT
10
246.0572
20
204.2194
0
VERTEX
8
CUT
10
245.8503
20
204.4100
0
VERTEX
8
CUT
10
244.7015
20
205.3543
0
VERTEX
8
CUT
10
244.5316
20
205.4823
0
VERTEX
8
CUT
10
244.3514
20
205.5954
0
VERTEX
8
CUT
10
244.1622
20
205.6927
0
VERTEX
8
CUT
10
242.8693
20
206.2898
0
VERTEX
8
CUT
10
242.5844
20
206.4008
0
VERTEX
8
CUT
10
242.2882
20
206.4761
0
VERTEX
8
CUT
10
240.8572
20
206.7483
0
VERTEX
8
CUT
10
240.6376
20
206.7800
0
VERTEX
8
CUT
10
240.4161
20
206.7922
0
VERTEX
8
CUT
10
240.1943
20
206.7847
0
VERTEX
8
CUT
10
238.6883
20
206.6664
0
VERTEX
8
CUT
10
238.3888
20
206.6245
0
VERTEX
8
CUT
10
238.0965
20
206.5467
0
VERTEX
8
CUT
10
236.4664
20
206.0056
0
VERTEX
8
CUT
10
236.2068
20
205.9030
0
VERTEX
8
CUT
10
235.9602
20
205.7721
0
VERTEX
8
CUT
10
233.9034
20
204.5281
0
VERTEX
8
CUT
10
233.7023
20
204.3928
0
VERTEX
8
CUT
10
233.5153
20
204.2386
0
VERTEX
8
CUT
10
233.3441
20
204.0670
0
VERTEX
8
CUT
10
231.2803
20
201.7879
0
VERTEX
8
CUT
10
231.0780
20
201.5329
0
VERTEX
8
CUT
10
227.3425
20
196.1378
0
VERTEX
8
CUT
10
227.2514
20
196.0119
0
VERTEX
8
CUT
10
227.1877
20
195.9276
0
VERTEX
8
CUT
10
227.0915
20
195.8056
0
VERTEX
8
CUT
10
225.9879
20
194.4643
0
VERTEX
8
CUT
10
225.7099
20
194.1326
0
VERTEX
8
CUT
10
225.6135
20
194.0234
0
VERTEX
8
CUT
10
225.4929
20
193.8958
0
VERTEX
8
CUT
10
225.3088
20
193.7141
0
VERTEX
8
CUT
10
224.4936
20
192.9633
0
VERTEX
8
CUT
10
223.6420
20
192.2843
0
VERTEX
8
CUT
10
223.6060
20
192.2615
0
VERTEX
8
CUT
10
222.7544
20
191.7512
0
VERTEX
8
CUT
10
222.6166
20
191.6725
0
VERTEX
8
CUT
10
222.5916
20
191.6590
0
VERTEX
8
CUT
10
222.3295
20
191.5307
0
VERTEX
8
CUT
10
222.0575
20
191.4250
0
VERTEX
8
CUT
10
222.0306
20
191.4158
0
VERTEX
8
CUT
10
221.8792
20
191.3679
0
VERTEX
8
CUT
10
220.1671
20
190.8646
0
VERTEX
8
CUT
10
220.0093
20
190.8220
0
VERTEX
8
CUT
10
219.9809
20
190.8149
0
VERTEX
8
CUT
10
219.6862
20
190.7556
0
VERTEX
8
CUT
10
219.3874
20
190.7222
0
VERTEX
8
CUT
10
219.3583
20
190.7202
0
VERTEX
8
CUT
10
219.1949
20
190.7127
0
VERTEX
8
CUT
10
218.8285
20
190.7038
0
VERTEX
8
CUT
10
218.6401
20
190.7040
0
VERTEX
8
CUT
10
218.6065
20
190.7049
0
VERTEX
8
CUT
10
218.2309
20
190.7336
0
VERTEX
8
CUT
10
218.1976
20
190.7378
0
VERTEX
8
CUT
10
218.0113
20
190.7663
0
VERTEX
8
CUT
10
217.5446
20
190.8497
0
VERTEX
8
CUT
10
217.3637
20
190.8866
0
VERTEX
8
CUT
10
217.3316
20
190.8940
0
VERTEX
8
CUT
10
216.9764
20
190.9943
0
VERTEX
8
CUT
10
216.9452
20
191.0048
0
VERTEX
8
CUT
10
216.7717
20
191.0680
0
VERTEX
8
CUT
10
216.4845
20
191.1806
0
VERTEX
8
CUT
10
216.3392
20
191.2411
0
VERTEX
8
CUT
10
216.3135
20
191.2525
0
VERTEX
8
CUT
10
216.0539
20
191.3804
0
VERTEX
8
CUT
10
215.8059
20
191.5296
0
VERTEX
8
CUT
10
215.7824
20
191.5451
0
VERTEX
8
CUT
10
215.6529
20
191.6346
0
VERTEX
8
CUT
10
215.3075
20
191.8841
0
VERTEX
8
CUT
10
215.1831
20
191.9780
0
VERTEX
8
CUT
10
215.1612
20
191.9952
0
VERTEX
8
CUT
10
214.9247
20
192.1980
0
VERTEX
8
CUT
10
214.9043
20
192.2170
0
VERTEX
8
CUT
10
214.7926
20
192.3255
0
VERTEX
8
CUT
10
214.5194
20
192.6022
0
VERTEX
8
CUT
10
214.3940
20
192.7356
0
VERTEX
8
CUT
10
214.3722
20
192.7600
0
VERTEX
8
CUT
10
214.1603
20
193.0213
0
VERTEX
8
CUT
10
213.9749
20
193.3021
0
VERTEX
8
CUT
10
213.9582
20
193.3303
0
VERTEX
8
CUT
10
213.8688
20
193.4900
0
VERTEX
8
CUT
10
213.4470
20
194.2884
0
VERTEX
8
CUT
10
213.3735
20
194.4352
0
VERTEX
8
CUT
10
213.3609
20
194.4618
0
VERTEX
8
CUT
10
213.2438
20
194.7400
0
VERTEX
8
CUT
10
213.1595
20
195.0022
0
VERTEX
8
CUT
10
213.0927
20
195.2966
0
VERTEX
8
CUT
10
213.0874
20
195.3255
0
VERTEX
8
CUT
10
213.0617
20
195.4877
0
VERTEX
8
CUT
10
212.8549
20
197.0023
0
VERTEX
8
CUT
10
212.8361
20
197.1676
0
VERTEX
8
CUT
10
212.8333
20
197.1972
0
VERTEX
8
CUT
10
212.8190
20
197.5026
0
VERTEX
8
CUT
10
212.8317
20
197.8081
0
VERTEX
8
CUT
10
212.8343
20
197.8378
0
VERTEX
8
CUT
10
212.8523
20
198.0031
0
VERTEX
8
CUT
10
213.1179
20
200.0272
0
VERTEX
8
CUT
10
213.1491
20
200.2244
0
VERTEX
8
CUT
10
213.1556
20
200.2594
0
VERTEX
8
CUT
10
213.2493
20
200.6475
0
VERTEX
8
CUT
10
213.2595
20
200.6816
0
VERTEX
8
CUT
10
213.2993
20
200.8029
0
VERTEX
8
CUT
10
214.0271
20
202.8124
0
VERTEX
8
CUT
10
214.0524
20
202.8785
0
VERTEX
8
CUT
10
214.1254
20
203.0419
0
VERTEX
8
CUT
10
214.1367
20
203.0650
0
VERTEX
8
CUT
10
214.2026
20
203.1923
0
VERTEX
8
CUT
10
215.4263
20
205.4515
0
VERTEX
8
CUT
10
215.5032
20
205.5867
0
VERTEX
8
CUT
10
215.5175
20
205.6106
0
VERTEX
8
CUT
10
215.6876
20
205.8706
0
VERTEX
8
CUT
10
215.7038
20
205.8933
0
VERTEX
8
CUT
10
215.7968
20
206.0178
0
VERTEX
8
CUT
10
219.4522
20
210.7060
0
VERTEX
8
CUT
10
219.5428
20
210.8177
0
VERTEX
8
CUT
10
219.6058
20
210.8924
0
VERTEX
8
CUT
10
219.7006
20
211.0006
0
VERTEX
8
CUT
10
220.9993
20
212.4259
0
VERTEX
8
CUT
10
225.7794
20
217.5633
0
VERTEX
8
CUT
10
225.8162
20
217.6038
0
VERTEX
8
CUT
10
225.8244
20
217.6129
0
VERTEX
8
CUT
10
225.8510
20
217.6433
0
VERTEX
8
CUT
10
227.5615
20
219.6278
0
VERTEX
8
CUT
10
229.6810
20
221.9539
0
VERTEX
8
CUT
10
229.8727
20
222.1922
0
VERTEX
8
CUT
10
232.2902
20
225.6032
0
VERTEX
8
CUT
10
232.4550
20
225.8697
0
VERTEX
8
CUT
10
234.3126
20
229.3431
0
VERTEX
8
CUT
10
234.3998
20
229.5232
0
VERTEX
8
CUT
10
234.4724
20
229.7098
0
VERTEX
8
CUT
10
235.3978
20
232.4033
0
VERTEX
8
CUT
10
235.4790
20
232.6965
0
VERTEX
8
CUT
10
235.5240
20
232.9973
0
VERTEX
8
CUT
10
235.7700
20
235.8044
0
VERTEX
8
CUT
10
235.7794
20
235.9957
0
VERTEX
8
CUT
10
235.7741
20
236.1870
0
VERTEX
8
CUT
10
235.6170
20
238.5729
0
VERTEX
8
CUT
10
235.5883
20
238.8200
0
VERTEX
8
CUT
10
235.5352
20
239.0630
0
VERTEX
8
CUT
10
235.4582
20
239.2995
0
VERTEX
8
CUT
10
235.2570
20
239.8270
0
VERTEX
8
CUT
10
235.2388
20
239.9057
0
VERTEX
8
CUT
10
235.1779
20
240.1234
0
VERTEX
8
CUT
10
235.0977
20
240.3347
0
VERTEX
8
CUT
10
234.9987
20
240.5379
0
VERTEX
8
CUT
10
234.9559
20
240.6164
0
VERTEX
8
CUT
10
234.7011
20
241.2844
0
VERTEX
8
CUT
10
234.6139
20
241.4859
0
VERTEX
8
CUT
10
234.5093
20
241.6790
0
VERTEX
8
CUT
10
234.3882
20
241.8622
0
VERTEX
8
CUT
10
233.1507
20
243.5667
0
VERTEX
8
CUT
10
232.9687
20
243.7892
0
VERTEX
8
CUT
10
232.7625
20
243.9893
0
VERTEX
8
CUT
10
232.2176
20
244.4603
0
VERTEX
8
CUT
10
231.9994
20
244.6288
0
VERTEX
8
CUT
10
231.7639
20
244.7722
0
VERTEX
8
CUT
10
231.4704
20
244.9296
0
VERTEX
8
CUT
10
231.3440
20
245.0262
0
VERTEX
8
CUT
10
231.0923
20
245.1757
0
VERTEX
8
CUT
10
230.5826
20
245.4393
0
VERTEX
8
CUT
10
230.3022
20
245.5631
0
VERTEX
8
CUT
10
230.2709
20
245.5726
0
VERTEX
8
CUT
10
230.0537
20
245.6890
0
VERTEX
8
CUT
10
229.7843
20
245.8134
0
VERTEX
8
CUT
10
229.5020
20
245.9051
0
VERTEX
8
CUT
10
228.7722
20
246.0949
0
VERTEX
8
CUT
10
228.5911
20
246.1349
0
VERTEX
8
CUT
10
228.4076
20
246.1614
0
VERTEX
8
CUT
10
227.5683
20
246.2508
0
VERTEX
8
CUT
10
227.3529
20
246.2644
0
VERTEX
8
CUT
10
227.1372
20
246.2594
0
VERTEX
8
CUT
10
226.9227
20
246.2358
0
VERTEX
8
CUT
10
225.1356
20
245.9605
0
VERTEX
8
CUT
10
224.8887
20
245.9096
0
VERTEX
8
CUT
10
224.6481
20
245.8341
0
VERTEX
8
CUT
10
224.4164
20
245.7347
0
VERTEX
8
CUT
10
222.6623
20
244.8754
0
VERTEX
8
CUT
10
222.4628
20
244.7662
0
VERTEX
8
CUT
10
222.2741
20
244.6393
0
VERTEX
8
CUT
10
222.0977
20
244.4958
0
VERTEX
8
CUT
10
221.9130
20
244.3309
0
VERTEX
8
CUT
10
221.8683
20
244.2957
0
VERTEX
8
CUT
10
220.9028
20
243.4567
0
VERTEX
8
CUT
10
220.7587
20
243.3211
0
VERTEX
8
CUT
10
220.6634
20
243.2160
0
VERTEX
8
CUT
10
220.4960
20
243.0666
0
VERTEX
8
CUT
10
220.3252
20
242.8989
0
VERTEX
8
CUT
10
220.1713
20
242.7156
0
VERTEX
8
CUT
10
220.0356
20
242.5185
0
VERTEX
8
CUT
10
219.9187
20
242.3300
0
VERTEX
8
CUT
10
219.7171
20
242.0892
0
VERTEX
8
CUT
10
219.5945
20
241.9302
0
VERTEX
8
CUT
10
219.4850
20
241.7619
0
VERTEX
8
CUT
10
218.7014
20
240.4438
0
VERTEX
8
CUT
10
218.5401
20
240.1217
0
VERTEX
8
CUT
10
218.5210
20
240.0754
0
VERTEX
8
CUT
10
218.4211
20
239.9144
0
VERTEX
8
CUT
10
218.2838
20
239.6614
0
VERTEX
8
CUT
10
218.1764
20
239.3943
0
VERTEX
8
CUT
10
217.9025
20
238.5801
0
VERTEX
8
CUT
10
217.9016
20
238.5780
0
VERTEX
8
CUT
10
217.8006
20
238.2830
0
VERTEX
8
CUT
10
217.7924
20
238.2528
0
VERTEX
8
CUT
10
217.5171
20
237.4346
0
VERTEX
8
CUT
10
217.4438
20
237.1691
0
VERTEX
8
CUT
10
215.8111
20
229.6680
0
VERTEX
8
CUT
10
215.7613
20
229.4661
0
VERTEX
8
CUT
10
215.7236
20
229.3300
0
VERTEX
8
CUT
10
215.6627
20
229.1311
0
VERTEX
8
CUT
10
215.1429
20
227.5897
0
VERTEX
8
CUT
10
215.0840
20
227.4277
0
VERTEX
8
CUT
10
215.0415
20
227.3185
0
VERTEX
8
CUT
10
214.9753
20
227.1593
0
VERTEX
8
CUT
10
214.3876
20
225.8334
0
VERTEX
8
CUT
10
214.3188
20
225.6869
0
VERTEX
8
CUT
10
214.3060
20
225.6609
0
VERTEX
8
CUT
10
214.1498
20
225.3775
0
VERTEX
8
CUT
10
214.1348
20
225.3528
0
VERTEX
8
CUT
10
214.0477
20
225.2164
0
VERTEX
8
CUT
10
212.4101
20
222.7699
0
VERTEX
8
CUT
10
212.3189
20
222.6398
0
VERTEX
8
CUT
10
212.3021
20
222.6168
0
VERTEX
8
CUT
10
212.1196
20
222.3887
0
VERTEX
8
CUT
10
211.9185
20
222.1768
0
VERTEX
8
CUT
10
211.8981
20
222.1570
0
VERTEX
8
CUT
10
211.7816
20
222.0490
0
VERTEX
8
CUT
10
209.8567
20
220.3380
0
VERTEX
8
CUT
10
209.7306
20
220.2307
0
VERTEX
8
CUT
10
209.7076
20
220.2120
0
VERTEX
8
CUT
10
209.4630
20
220.0306
0
VERTEX
8
CUT
10
209.2035
20
219.8715
0
VERTEX
8
CUT
10
209.1776
20
219.8571
0
VERTEX
8
CUT
10
209.0309
20
219.7801
0
VERTEX
8
CUT
10
207.0055
20
218.7725
0
VERTEX
8
CUT
10
206.8526
20
218.7007
0
VERTEX
8
CUT
10
206.8250
20
218.6885
0
VERTEX
8
CUT
10
206.5579
20
218.5844
0
VERTEX
8
CUT
10
206.0580
20
218.4573
0
VERTEX
8
CUT
10
205.9584
20
218.4380
0
VERTEX
8
CUT
10
205.9285
20
218.4336
0
VERTEX
8
CUT
10
205.7608
20
218.4127
0
VERTEX
8
CUT
10
204.2443
20
218.2588
0
VERTEX
8
CUT
10
204.0228
20
218.2430
0
VERTEX
8
CUT
10
203.8722
20
218.2367
0
VERTEX
8
CUT
10
203.6502
20
218.2339
0
VERTEX
8
CUT
10
201.0822
20
218.2784
0
VERTEX
8
CUT
10
200.9146
20
218.2850
0
VERTEX
8
CUT
10
200.8847
20
218.2869
0
VERTEX
8
CUT
10
200.5783
20
218.3197
0
VERTEX
8
CUT
10
200.2760
20
218.3798
0
VERTEX
8
CUT
10
200.2469
20
218.3869
0
VERTEX
8
CUT
10
200.0850
20
218.4306
0
VERTEX
8
CUT
10
198.7547
20
218.8211
0
VERTEX
8
CUT
10
198.5757
20
218.8786
0
VERTEX
8
CUT
10
198.5439
20
218.8897
0
VERTEX
8
CUT
10
198.1956
20
219.0312
0
VERTEX
8
CUT
10
198.1651
20
219.0454
0
VERTEX
8
CUT
10
197.9967
20
219.1291
0
VERTEX
8
CUT
10
196.9182
20
219.6991
0
VERTEX
8
CUT
10
196.7911
20
219.7695
0
VERTEX
8
CUT
10
196.7686
20
219.7825
0
VERTEX
8
CUT
10
196.5232
20
219.9376
0
VERTEX
8
CUT
10
196.5017
20
219.9524
0
VERTEX
8
CUT
10
196.3837
20
220.0370
0
VERTEX
8
CUT
10
194.9531
20
221.1047
0
VERTEX
8
CUT
10
194.8231
20
221.2062
0
VERTEX
8
CUT
10
194.8003
20
221.2248
0
VERTEX
8
CUT
10
194.5545
20
221.4444
0
VERTEX
8
CUT
10
194.5333
20
221.4650
0
VERTEX
8
CUT
10
194.4179
20
221.5827
0
VERTEX
8
CUT
10
192.3429
20
223.7932
0
VERTEX
8
CUT
10
192.1936
20
223.9622
0
VERTEX
8
CUT
10
192.1680
20
223.9931
0
VERTEX
8
CUT
10
191.9012
20
224.3563
0
VERTEX
8
CUT
10
191.8794
20
224.3901
0
VERTEX
8
CUT
10
191.7628
20
224.5831
0
VERTEX
8
CUT
10
190.4330
20
226.9429
0
VERTEX
8
CUT
10
190.3447
20
227.1091
0
VERTEX
8
CUT
10
190.3297
20
227.1392
0
VERTEX
8
CUT
10
190.1787
20
227.4839
0
VERTEX
8
CUT
10
190.1668
20
227.5154
0
VERTEX
8
CUT
10
190.1045
20
227.6930
0
VERTEX
8
CUT
10
189.3495
20
230.0310
0
VERTEX
8
CUT
10
189.2894
20
230.2371
0
VERTEX
8
CUT
10
189.2797
20
230.2741
0
VERTEX
8
CUT
10
189.1954
20
230.6947
0
VERTEX
8
CUT
10
189.1900
20
230.7326
0
VERTEX
8
CUT
10
189.1660
20
230.9459
0
VERTEX
8
CUT
10
188.9693
20
233.3004
0
VERTEX
8
CUT
10
188.9591
20
233.4684
0
VERTEX
8
CUT
10
188.9579
20
233.4985
0
VERTEX
8
CUT
10
188.9601
20
233.8350
0
VERTEX
8
CUT
10
188.9616
20
233.8651
0
VERTEX
8
CUT
10
188.9740
20
234.0329
0
VERTEX
8
CUT
10
189.3115
20
237.5299
0
VERTEX
8
CUT
10
189.3358
20
237.7270
0
VERTEX
8
CUT
10
189.3411
20
237.7621
0
VERTEX
8
CUT
10
189.4208
20
238.1509
0
VERTEX
8
CUT
10
189.4297
20
238.1852
0
VERTEX
8
CUT
10
189.4849
20
238.3760
0
VERTEX
8
CUT
10
190.3534
20
241.1054
0
VERTEX
8
CUT
10
190.7516
20
242.1276
0
VERTEX
8
CUT
10
190.8131
20
242.2856
0
VERTEX
8
CUT
10
190.9055
20
242.5228
0
VERTEX
8
CUT
10
190.9802
20
242.7144
0
VERTEX
8
CUT
10
192.8399
20
247.2871
0
VERTEX
8
CUT
10
192.9178
20
247.5074
0
VERTEX
8
CUT
10
193.4852
20
249.3900
0
VERTEX
8
CUT
10
193.5361
20
249.5876
0
VERTEX
8
CUT
10
193.5707
20
249.7887
0
VERTEX
8
CUT
10
193.7750
20
251.3576
0
VERTEX
8
CUT
10
193.7959
20
251.6802
0
VERTEX
8
CUT
10
193.7961
20
253.5875
0
VERTEX
8
CUT
10
193.7814
20
253.8581
0
VERTEX
8
CUT
10
193.5727
20
255.7760
0
VERTEX
8
CUT
10
193.5366
20
256.0068
0
VERTEX
8
CUT
10
193.4791
20
256.2333
0
VERTEX
8
CUT
10
193.4007
20
256.4534
0
VERTEX
8
CUT
10
193.1862
20
256.9769
0
VERTEX
8
CUT
10
193.1591
20
257.0532
0
VERTEX
8
CUT
10
193.1328
20
257.1074
0
VERTEX
8
CUT
10
192.8807
20
257.7226
0
VERTEX
8
CUT
10
192.7867
20
257.9256
0
VERTEX
8
CUT
10
192.6749
20
258.1194
0
VERTEX
8
CUT
10
191.9583
20
259.2425
0
VERTEX
8
CUT
10
191.9123
20
259.3253
0
VERTEX
8
CUT
10
191.7891
20
259.5242
0
VERTEX
8
CUT
10
191.7228
20
259.6116
0
VERTEX
8
CUT
10
191.6951
20
259.6550
0
VERTEX
8
CUT
10
191.5192
20
259.8974
0
VERTEX
8
CUT
10
191.3156
20
260.1170
0
VERTEX
8
CUT
10
191.2831
20
260.1481
0
VERTEX
8
CUT
10
191.2192
20
260.2247
0
VERTEX
8
CUT
10
191.0626
20
260.3957
0
VERTEX
8
CUT
10
190.8908
20
260.5515
0
VERTEX
8
CUT
10
190.6750
20
260.7297
0
VERTEX
8
CUT
10
190.1829
20
261.2003
0
VERTEX
8
CUT
10
189.9677
20
261.3840
0
VERTEX
8
CUT
10
189.7330
20
261.5423
0
VERTEX
8
CUT
10
188.5366
20
262.2539
0
VERTEX
8
CUT
10
188.2660
20
262.3933
0
VERTEX
8
CUT
10
187.9805
20
262.4988
0
VERTEX
8
CUT
10
186.7147
20
262.8806
0
VERTEX
8
CUT
10
186.5119
20
262.9326
0
VERTEX
8
CUT
10
186.3056
20
262.9675
0
VERTEX
8
CUT
10
186.0970
20
262.9850
0
VERTEX
8
CUT
10
184.8390
20
263.0375
0
VERTEX
8
CUT
10
184.6240
20
263.0372
0
VERTEX
8
CUT
10
184.4098
20
263.0185
0
VERTEX
8
CUT
10
184.1980
20
262.9814
0
VERTEX
8
CUT
10
182.9744
20
262.7125
0
VERTEX
8
CUT
10
182.6839
20
262.6300
0
VERTEX
8
CUT
10
182.4055
20
262.5130
0
VERTEX
8
CUT
10
181.0936
20
261.8662
0
VERTEX
8
CUT
10
180.8304
20
261.7160
0
VERTEX
8
CUT
10
180.5873
20
261.5350
0
VERTEX
8
CUT
10
179.6809
20
260.7705
0
VERTEX
8
CUT
10
179.6646
20
260.7592
0
VERTEX
8
CUT
10
179.4765
20
260.6154
0
VERTEX
8
CUT
10
179.3029
20
260.4544
0
VERTEX
8
CUT
10
179.2934
20
260.4437
0
VERTEX
8
CUT
10
179.2569
20
260.4129
0
VERTEX
8
CUT
10
179.0709
20
260.2391
0
VERTEX
8
CUT
10
178.9036
20
260.0474
0
VERTEX
8
CUT
10
177.8525
20
258.7109
0
VERTEX
8
CUT
10
177.6993
20
258.4933
0
VERTEX
8
CUT
10
177.5702
20
258.2606
0
VERTEX
8
CUT
10
176.6036
20
256.2773
0
VERTEX
8
CUT
10
176.5871
20
256.2428
0
VERTEX
8
CUT
10
176.5842
20
256.2366
0
VERTEX
8
CUT
10
176.5206
20
256.0887
0
VERTEX
8
CUT
10
174.3819
20
250.6363
0
VERTEX
8
CUT
10
174.3211
20
250.4904
0
VERTEX
8
CUT
10
174.3096
20
250.4644
0
VERTEX
8
CUT
10
174.1808
20
250.2033
0
VERTEX
8
CUT
10
174.0304
20
249.9539
0
VERTEX
8
CUT
10
174.0148
20
249.9303
0
VERTEX
8
CUT
10
173.9245
20
249.8001
0
VERTEX
8
CUT
10
172.3991
20
247.6955
0
VERTEX
8
CUT
10
172.3033
20
247.5690
0
VERTEX
8
CUT
10
172.2856
20
247.5467
0
VERTEX
8
CUT
10
172.0950
20
247.3258
0
VERTEX
8
CUT
10
171.8865
20
247.1218
0
VERTEX
8
CUT
10
171.8653
20
247.1028
0
VERTEX
8
CUT
10
171.7450
20
246.9992
0
VERTEX
8
CUT
10
171.2951
20
246.6281
0
VERTEX
8
CUT
10
170.1022
20
245.8712
0
VERTEX
8
CUT
10
169.9655
20
245.7979
0
VERTEX
8
CUT
10
169.7938
20
245.7114
0
VERTEX
8
CUT
10
169.7628
20
245.6968
0
VERTEX
8
CUT
10
169.4075
20
245.5509
0
VERTEX
8
CUT
10
169.3751
20
245.5395
0
VERTEX
8
CUT
10
169.1923
20
245.4803
0
VERTEX
8
CUT
10
168.5429
20
245.2885
0
VERTEX
8
CUT
10
168.3926
20
245.2475
0
VERTEX
8
CUT
10
168.3655
20
245.2407
0
VERTEX
8
CUT
10
168.0851
20
245.1827
0
VERTEX
8
CUT
10
167.8007
20
245.1481
0
VERTEX
8
CUT
10
167.7729
20
245.1459
0
VERTEX
8
CUT
10
167.6174
20
245.1367
0
VERTEX
8
CUT
10
166.1896
20
245.0826
0
VERTEX
8
CUT
10
165.9987
20
245.0802
0
VERTEX
8
CUT
10
165.9646
20
245.0806
0
VERTEX
8
CUT
10
165.6143
20
245.1031
0
VERTEX
8
CUT
10
165.2681
20
245.1610
0
VERTEX
8
CUT
10
165.2348
20
245.1684
0
VERTEX
8
CUT
10
165.0494
20
245.2142
0
VERTEX
8
CUT
10
164.4204
20
245.3867
0
VERTEX
8
CUT
10
164.2309
20
245.4441
0
VERTEX
8
CUT
10
164.1974
20
245.4552
0
VERTEX
8
CUT
10
163.8585
20
245.5880
0
VERTEX
8
CUT
10
163.5355
20
245.7557
0
VERTEX
8
CUT
10
163.5050
20
245.7737
0
VERTEX
8
CUT
10
163.3371
20
245.8786
0
VERTEX
8
CUT
10
162.8674
20
246.1894
0
VERTEX
8
CUT
10
162.7166
20
246.2946
0
VERTEX
8
CUT
10
162.6901
20
246.3141
0
VERTEX
8
CUT
10
162.4279
20
246.5273
0
VERTEX
8
CUT
10
162.1878
20
246.7652
0
VERTEX
8
CUT
10
162.1656
20
246.7895
0
VERTEX
8
CUT
10
162.0449
20
246.9282
0
VERTEX
8
CUT
10
161.4729
20
247.6186
0
VERTEX
8
CUT
10
161.3471
20
247.7792
0
VERTEX
8
CUT
10
161.3254
20
247.8085
0
VERTEX
8
CUT
10
161.1009
20
248.1489
0
VERTEX
8
CUT
10
161.0825
20
248.1804
0
VERTEX
8
CUT
10
160.9844
20
248.3593
0
VERTEX
8
CUT
10
160.4341
20
249.4316
0
VERTEX
8
CUT
10
160.3573
20
249.5904
0
VERTEX
8
CUT
10
160.3442
20
249.6191
0
VERTEX
8
CUT
10
160.2239
20
249.9201
0
VERTEX
8
CUT
10
160.1325
20
250.2311
0
VERTEX
8
CUT
10
160.1250
20
250.2617
0
VERTEX
8
CUT
10
160.0873
20
250.4340
0
VERTEX
8
CUT
10
159.8882
20
251.4581
0
VERTEX
8
CUT
10
159.8524
20
251.6770
0
VERTEX
8
CUT
10
159.8472
20
251.7162
0
VERTEX
8
CUT
10
159.8418
20
251.7882
0
VERTEX
8
CUT
10
159.8166
20
252.3750
0
VERTEX
8
CUT
10
159.8173
20
252.4195
0
VERTEX
8
CUT
10
159.9879
20
256.2372
0
VERTEX
8
CUT
10
160.0066
20
256.4792
0
VERTEX
8
CUT
10
160.0246
20
256.6429
0
VERTEX
8
CUT
10
160.0589
20
256.8832
0
VERTEX
8
CUT
10
161.6303
20
265.8149
0
VERTEX
8
CUT
10
161.6586
20
266.0301
0
VERTEX
8
CUT
10
161.6681
20
266.2470
0
VERTEX
8
CUT
10
161.6687
20
267.6489
0
VERTEX
8
CUT
10
161.6568
20
267.8941
0
VERTEX
8
CUT
10
161.6209
20
268.1368
0
VERTEX
8
CUT
10
161.5613
20
268.3749
0
VERTEX
8
CUT
10
161.4787
20
268.6060
0
VERTEX
8
CUT
10
161.3739
20
268.8279
0
VERTEX
8
CUT
10
161.2478
20
269.0384
0
VERTEX
8
CUT
10
161.1016
20
269.2355
0
VERTEX
8
CUT
10
160.9369
20
269.4174
0
VERTEX
8
CUT
10
160.7551
20
269.5822
0
VERTEX
8
CUT
10
160.5580
20
269.7285
0
VERTEX
8
CUT
10
160.3475
20
269.8546
0
VERTEX
8
CUT
10
160.1257
20
269.9596
0
VERTEX
8
CUT
10
159.8946
20
270.0423
0
VERTEX
8
CUT
10
159.6566
20
270.1019
0
VERTEX
8
CUT
10
159.4138
20
270.1380
0
VERTEX
8
CUT
10
159.1687
20
270.1500
0
VERTEX
8
CUT
10
159.1217
20
270.1500
0
VERTEX
8
CUT
10
159.0382
20
270.1500
0
VERTEX
8
CUT
10
158.8341
20
270.1500
0
VERTEX
8
CUT
10
144.9626
20
270.1500
0
VERTEX
8
CUT
10
144.8810
20
270.1500
0
VERTEX
8
CUT
10
144.7731
20
270.1500
0
VERTEX
8
CUT
10
144.7628
20
270.1500
0
VERTEX
8
CUT
10
144.5213
20
270.1383
0
VERTEX
8
CUT
10
144.2820
20
270.1033
0
VERTEX
8
CUT
10
144.0472
20
270.0454
0
VERTEX
8
CUT
10
143.8191
20
269.9651
0
VERTEX
8
CUT
10
143.5999
20
269.8631
0
VERTEX
8
CUT
10
143.3915
20
269.7404
0
VERTEX
8
CUT
10
143.1960
20
269.5981
0
VERTEX
8
CUT
10
143.0151
20
269.4376
0
VERTEX
8
CUT
10
142.8506
20
269.2604
0
VERTEX
8
CUT
10
142.7039
20
269.0682
0
VERTEX
8
CUT
10
142.5766
20
268.8626
0
VERTEX
8
CUT
10
142.4696
20
268.6457
0
VERTEX
8
CUT
10
142.3842
20
268.4195
0
VERTEX
8
CUT
10
142.3210
20
268.1861
0
VERTEX
8
CUT
10
142.2806
20
267.9477
0
VERTEX
8
CUT
10
142.2315
20
267.5382
0
VERTEX
8
CUT
10
142.2137
20
267.2576
0
VERTEX
8
CUT
10
142.2276
20
266.9767
0
VERTEX
8
CUT
10
142.3051
20
266.2465
0
VERTEX
8
CUT
10
142.3655
20
264.9138
0
VERTEX
8
CUT
10
142.3898
20
264.6616
0
VERTEX
8
CUT
10
142.7223
20
262.4106
0
VERTEX
8
CUT
10
142.7790
20
262.1350
0
VERTEX
8
CUT
10
143.4680
20
259.5374
0
VERTEX
8
CUT
10
143.5400
20
259.3103
0
VERTEX
8
CUT
10
146.8762
20
250.3003
0
VERTEX
8
CUT
10
146.9033
20
250.2248
0
VERTEX
8
CUT
10
146.9211
20
250.1733
0
VERTEX
8
CUT
10
146.9465
20
250.0972
0
VERTEX
8
CUT
10
148.5755
20
245.0441
0
VERTEX
8
CUT
10
148.6284
20
244.8647
0
VERTEX
8
CUT
10
148.6613
20
244.7420
0
VERTEX
8
CUT
10
148.7052
20
244.5602
0
VERTEX
8
CUT
10
149.4873
20
240.9282
0
VERTEX
8
CUT
10
149.5130
20
240.7939
0
VERTEX
8
CUT
10
149.5137
20
240.7819
0
VERTEX
8
CUT
10
149.5160
20
240.7155
0
VERTEX
8
CUT
10
149.5898
20
235.9538
0
VERTEX
8
CUT
10
149.5377
20
235.4531
0
VERTEX
8
CUT
10
149.5204
20
235.3123
0
VERTEX
8
CUT
10
149.5168
20
235.2871
0
VERTEX
8
CUT
10
149.4662
20
235.0080
0
VERTEX
8
CUT
10
149.4607
20
234.9832
0
VERTEX
8
CUT
10
149.4276
20
234.8453
0
VERTEX
8
CUT
10
148.7316
20
232.1745
0
VERTEX
8
CUT
10
148.6755
20
231.9808
0
VERTEX
8
CUT
10
148.6646
20
231.9466
0
VERTEX
8
CUT
10
148.5216
20
231.5697
0
VERTEX
8
CUT
10
148.5071
20
231.5368
0
VERTEX
8
CUT
10
148.4206
20
231.3546
0
VERTEX
8
CUT
10
147.2914
20
229.1319
0
VERTEX
8
CUT
10
147.1904
20
228.9463
0
VERTEX
8
CUT
10
147.1715
20
228.9137
0
VERTEX
8
CUT
10
146.9390
20
228.5610
0
VERTEX
8
CUT
10
146.9165
20
228.5307
0
VERTEX
8
CUT
10
146.7857
20
228.3647
0
VERTEX
8
CUT
10
145.2883
20
226.5708
0
VERTEX
8
CUT
10
145.1440
20
226.4077
0
VERTEX
8
CUT
10
145.1174
20
226.3794
0
VERTEX
8
CUT
10
144.8016
20
226.0798
0
VERTEX
8
CUT
10
144.7719
20
226.0548
0
VERTEX
8
CUT
10
144.6015
20
225.9192
0
VERTEX
8
CUT
10
142.8513
20
224.6082
0
VERTEX
8
CUT
10
142.7499
20
224.5366
0
VERTEX
8
CUT
10
142.0340
20
224.1326
0
VERTEX
8
CUT
10
140.1444
20
223.2869
0
VERTEX
8
CUT
10
139.9363
20
223.2011
0
VERTEX
8
CUT
10
139.8988
20
223.1870
0
VERTEX
8
CUT
10
139.4691
20
223.0537
0
VERTEX
8
CUT
10
139.4302
20
223.0441
0
VERTEX
8
CUT
10
139.2100
20
222.9971
0
VERTEX
8
CUT
10
137.2561
20
222.6402
0
VERTEX
8
CUT
10
137.1980
20
222.6358
0
VERTEX
8
CUT
10
137.0244
20
222.6266
0
VERTEX
8
CUT
10
136.9063
20
222.6232
0
VERTEX
8
CUT
10
136.7847
20
222.6224
0
VERTEX
8
CUT
10
136.5394
20
222.6264
0
VERTEX
8
CUT
10
136.2375
20
222.6313
0
VERTEX
8
CUT
10
136.1286
20
222.6331
0
VERTEX
8
CUT
10
135.2062
20
222.6481
0
VERTEX
8
CUT
10
135.0533
20
222.6507
0
VERTEX
8
CUT
10
133.9896
20
222.7305
0
VERTEX
8
CUT
10
133.8341
20
222.7455
0
VERTEX
8
CUT
10
133.8063
20
222.7487
0
VERTEX
8
CUT
10
133.5228
20
222.7940
0
VERTEX
8
CUT
10
133.2440
20
222.8627
0
VERTEX
8
CUT
10
133.2171
20
222.8705
0
VERTEX
8
CUT
10
133.0681
20
222.9173
0
VERTEX
8
CUT
10
130.8767
20
223.6554
0
VERTEX
8
CUT
10
130.7262
20
223.7097
0
VERTEX
8
CUT
10
130.6995
20
223.7200
0
VERTEX
8
CUT
10
130.6864
20
223.7257
0
VERTEX
8
CUT
10
130.3217
20
223.9185
0
VERTEX
8
CUT
10
130.3067
20
223.9264
0
VERTEX
8
CUT
10
130.2505
20
223.9561
0
VERTEX
8
CUT
10
129.9639
20
224.1075
0
VERTEX
8
CUT
10
128.4781
20
225.0828
0
VERTEX
8
CUT
10
128.2926
20
225.2127
0
VERTEX
8
CUT
10
128.2603
20
225.2368
0
VERTEX
8
CUT
10
127.9145
20
225.5291
0
VERTEX
8
CUT
10
127.8854
20
225.5569
0
VERTEX
8
CUT
10
127.7263
20
225.7182
0
VERTEX
8
CUT
10
126.3500
20
227.2006
0
VERTEX
8
CUT
10
126.2570
20
227.3045
0
VERTEX
8
CUT
10
126.2407
20
227.3234
0
VERTEX
8
CUT
10
126.0667
20
227.5413
0
VERTEX
8
CUT
10
126.0519
20
227.5614
0
VERTEX
8
CUT
10
125.9711
20
227.6750
0
VERTEX
8
CUT
10
125.4866
20
228.3838
0
VERTEX
8
CUT
10
125.3405
20
228.6153
0
VERTEX
8
CUT
10
125.2472
20
228.7758
0
VERTEX
8
CUT
10
125.1184
20
229.0173
0
VERTEX
8
CUT
10
124.0773
20
231.1531
0
VERTEX
8
CUT
10
124.0150
20
231.2876
0
VERTEX
8
CUT
10
124.0044
20
231.3119
0
VERTEX
8
CUT
10
123.8959
20
231.5877
0
VERTEX
8
CUT
10
123.8872
20
231.6128
0
VERTEX
8
CUT
10
123.8413
20
231.7537
0
VERTEX
8
CUT
10
123.5895
20
232.5811
0
VERTEX
8
CUT
10
123.5209
20
232.8391
0
VERTEX
8
CUT
10
123.4806
20
233.0157
0
VERTEX
8
CUT
10
123.4306
20
233.2780
0
VERTEX
8
CUT
10
123.2122
20
234.6944
0
VERTEX
8
CUT
10
123.1813
20
234.9549
0
VERTEX
8
CUT
10
123.1666
20
235.1323
0
VERTEX
8
CUT
10
123.1540
20
235.3944
0
VERTEX
8
CUT
10
123.1031
20
239.3001
0
VERTEX
8
CUT
10
123.1048
20
239.4707
0
VERTEX
8
CUT
10
123.1085
20
239.5866
0
VERTEX
8
CUT
10
123.1180
20
239.7570
0
VERTEX
8
CUT
10
123.7935
20
248.4009
0
VERTEX
8
CUT
10
123.7959
20
248.4335
0
VERTEX
8
CUT
10
123.7963
20
248.4394
0
VERTEX
8
CUT
10
123.8014
20
248.5766
0
VERTEX
8
CUT
10
123.8300
20
251.4350
0
VERTEX
8
CUT
10
123.8235
20
251.6428
0
VERTEX
8
CUT
10
123.6350
20
254.2152
0
VERTEX
8
CUT
10
123.6005
20
254.4847
0
VERTEX
8
CUT
10
123.2006
20
256.6587
0
VERTEX
8
CUT
10
123.1263
20
256.9578
0
VERTEX
8
CUT
10
122.5040
20
258.9330
0
VERTEX
8
CUT
10
122.3930
20
259.2216
0
VERTEX
8
CUT
10
121.5863
20
260.9853
0
VERTEX
8
CUT
10
121.4992
20
261.1579
0
VERTEX
8
CUT
10
121.3989
20
261.3232
0
VERTEX
8
CUT
10
120.4012
20
262.8338
0
VERTEX
8
CUT
10
120.2863
20
262.9938
0
VERTEX
8
CUT
10
120.1591
20
263.1442
0
VERTEX
8
CUT
10
119.9035
20
263.4234
0
VERTEX
8
CUT
10
119.8983
20
263.4311
0
VERTEX
8
CUT
10
119.7770
20
263.5944
0
VERTEX
8
CUT
10
119.6428
20
263.7474
0
VERTEX
8
CUT
10
118.6992
20
264.7388
0
VERTEX
8
CUT
10
118.1671
20
265.3199
0
VERTEX
8
CUT
10
118.0119
20
265.4752
0
VERTEX
8
CUT
10
117.8437
20
265.6162
0
VERTEX
8
CUT
10
116.2056
20
266.8714
0
VERTEX
8
CUT
10
116.0066
20
267.0091
0
VERTEX
8
CUT
10
115.7953
20
267.1269
0
VERTEX
8
CUT
10
115.5736
20
267.2237
0
VERTEX
8
CUT
10
115.0436
20
267.4253
0
VERTEX
8
CUT
10
114.9254
20
267.4837
0
VERTEX
8
CUT
10
114.6916
20
267.5849
0
VERTEX
8
CUT
10
114.4487
20
267.6617
0
VERTEX
8
CUT
10
114.3628
20
267.6842
0
VERTEX
8
CUT
10
114.1327
20
267.7717
0
VERTEX
8
CUT
10
114.0861
20
267.7919
0
VERTEX
8
CUT
10
114.0403
20
267.8068
0
VERTEX
8
CUT
10
113.0088
20
268.1990
0
VERTEX
8
CUT
10
112.7475
20
268.2823
0
VERTEX
8
CUT
10
112.4787
20
268.3364
0
VERTEX
8
CUT
10
110.6561
20
268.6005
0
VERTEX
8
CUT
10
110.3687
20
268.6253
0
VERTEX
8
CUT
10
110.0803
20
268.6169
0
VERTEX
8
CUT
10
108.3606
20
268.4668
0
VERTEX
8
CUT
10
108.1092
20
268.4320
0
VERTEX
8
CUT
10
107.8625
20
268.3718
0
VERTEX
8
CUT
10
106.1614
20
267.8637
0
VERTEX
8
CUT
10
105.9277
20
267.7811
0
VERTEX
8
CUT
10
105.7033
20
267.6758
0
VERTEX
8
CUT
10
104.0830
20
266.8145
0
VERTEX
8
CUT
10
103.8566
20
266.6784
0
VERTEX
8
CUT
10
103.6459
20
266.5191
0
VERTEX
8
CUT
10
102.2568
20
265.3491
0
VERTEX
8
CUT
10
102.0979
20
265.2031
0
VERTEX
8
CUT
10
101.9522
20
265.0439
0
VERTEX
8
CUT
10
101.3555
20
264.3327
0
VERTEX
8
CUT
10
101.3091
20
264.2841
0
VERTEX
8
CUT
10
101.1685
20
264.1237
0
VERTEX
8
CUT
10
101.0849
20
264.0101
0
VERTEX
8
CUT
10
100.7011
20
263.5526
0
VERTEX
8
CUT
10
100.5459
20
263.3471
0
VERTEX
8
CUT
10
100.4128
20
263.1267
0
VERTEX
8
CUT
10
99.4862
20
261.3979
0
VERTEX
8
CUT
10
99.3866
20
261.1894
0
VERTEX
8
CUT
10
99.3067
20
260.9727
0
VERTEX
8
CUT
10
98.6748
20
258.9802
0
VERTEX
8
CUT
10
98.6250
20
258.8001
0
VERTEX
8
CUT
10
98.5887
20
258.6168
0
VERTEX
8
CUT
10
98.4053
20
257.4626
0
VERTEX
8
CUT
10
98.3785
20
257.2135
0
VERTEX
8
CUT
10
98.3767
20
256.9630
0
VERTEX
8
CUT
10
98.4970
20
254.1602
0
VERTEX
8
CUT
10
98.5285
20
253.8578
0
VERTEX
8
CUT
10
98.5965
20
253.5614
0
VERTEX
8
CUT
10
99.3892
20
250.8690
0
VERTEX
8
CUT
10
99.4192
20
250.7487
0
VERTEX
8
CUT
10
99.4791
20
250.5635
0
VERTEX
8
CUT
10
99.5995
20
250.1546
0
VERTEX
8
CUT
10
99.7246
20
249.8201
0
VERTEX
8
CUT
10
100.0562
20
249.0957
0
VERTEX
8
CUT
10
100.2839
20
248.5271
0
VERTEX
8
CUT
10
100.3660
20
248.3439
0
VERTEX
8
CUT
10
100.8030
20
247.4645
0
VERTEX
8
CUT
10
102.0035
20
244.8423
0
VERTEX
8
CUT
10
102.0150
20
244.8174
0
VERTEX
8
CUT
10
102.0171
20
244.8129
0
VERTEX
8
CUT
10
102.0688
20
244.7095
0
VERTEX
8
CUT
10
103.7772
20
241.4798
0
VERTEX
8
CUT
10
106.6020
20
235.7957
0
VERTEX
8
CUT
10
107.4368
20
234.0092
0
VERTEX
8
CUT
10
107.4947
20
233.8787
0
VERTEX
8
CUT
10
107.5325
20
233.7892
0
VERTEX
8
CUT
10
107.5854
20
233.6566
0
VERTEX
8
CUT
10
109.0076
20
229.8887
0
VERTEX
8
CUT
10
109.0827
20
229.6696
0
VERTEX
8
CUT
10
109.1290
20
229.5194
0
VERTEX
8
CUT
10
109.1904
20
229.2961
0
VERTEX
8
CUT
10
109.8745
20
226.4683
0
VERTEX
8
CUT
10
110.1838
20
223.2000
0
VERTEX
8
CUT
10
110.1383
20
221.6233
0
VERTEX
8
CUT
10
110.1300
20
221.4609
0
VERTEX
8
CUT
10
110.1279
20
221.4319
0
VERTEX
8
CUT
10
110.0935
20
221.1349
0
VERTEX
8
CUT
10
110.0334
20
220.8421
0
VERTEX
8
CUT
10
110.0263
20
220.8139
0
VERTEX
8
CUT
10
109.9833
20
220.6570
0
VERTEX
8
CUT
10
109.4679
20
218.9241
0
VERTEX
8
CUT
10
109.4132
20
218.7547
0
VERTEX
8
CUT
10
109.4026
20
218.7247
0
VERTEX
8
CUT
10
109.2801
20
218.4214
0
VERTEX
8
CUT
10
109.1294
20
218.1311
0
VERTEX
8
CUT
10
109.1134
20
218.1036
0
VERTEX
8
CUT
10
109.0203
20
217.9519
0
VERTEX
8
CUT
10
108.1873
20
216.6632
0
VERTEX
8
CUT
10
108.0665
20
216.4876
0
VERTEX
8
CUT
10
108.0441
20
216.4569
0
VERTEX
8
CUT
10
107.7956
20
216.1543
0
VERTEX
8
CUT
10
107.5144
20
215.8819
0
VERTEX
8
CUT
10
107.4857
20
215.8570
0
VERTEX
8
CUT
10
107.3205
20
215.7223
0
VERTEX
8
CUT
10
106.0678
20
214.7583
0
VERTEX
8
CUT
10
105.9381
20
214.6629
0
VERTEX
8
CUT
10
105.9145
20
214.6463
0
VERTEX
8
CUT
10
105.6652
20
214.4865
0
VERTEX
8
CUT
10
105.4032
20
214.3487
0
VERTEX
8
CUT
10
105.3771
20
214.3364
0
VERTEX
8
CUT
10
105.2300
20
214.2708
0
VERTEX
8
CUT
10
104.4659
20
213.9494
0
VERTEX
8
CUT
10
104.2981
20
213.8835
0
VERTEX
8
CUT
10
104.2678
20
213.8725
0
VERTEX
8
CUT
10
103.9516
20
213.7739
0
VERTEX
8
CUT
10
103.6273
20
213.7062
0
VERTEX
8
CUT
10
103.5954
20
213.7012
0
VERTEX
8
CUT
10
103.4168
20
213.6771
0
VERTEX
8
CUT
10
102.8668
20
213.6165
0
VERTEX
8
CUT
10
102.5943
20
213.5965
0
VERTEX
8
CUT
10
102.4091
20
213.5897
0
VERTEX
8
CUT
10
102.1359
20
213.5896
0
VERTEX
8
CUT
10
101.1537
20
213.6250
0
VERTEX
8
CUT
10
100.9843
20
213.6349
0
VERTEX
8
CUT
10
100.9541
20
213.6374
0
VERTEX
8
CUT
10
100.9330
20
213.6401
0
VERTEX
8
CUT
10
100.8766
20
213.6502
0
VERTEX
8
CUT
10
100.5606
20
213.7067
0
VERTEX
8
CUT
10
100.4358
20
213.7290
0
VERTEX
8
CUT
10
100.0981
20
213.7894
0
VERTEX
8
CUT
10
99.2030
20
213.9868
0
VERTEX
8
CUT
10
98.9975
20
214.0382
0
VERTEX
8
CUT
10
98.9612
20
214.0484
0
VERTEX
8
CUT
10
98.5607
20
214.1856
0
VERTEX
8
CUT
10
98.5257
20
214.1999
0
VERTEX
8
CUT
10
98.3318
20
214.2852
0
VERTEX
8
CUT
10
97.1018
20
214.8689
0
VERTEX
8
CUT
10
96.9583
20
214.9408
0
VERTEX
8
CUT
10
96.9329
20
214.9542
0
VERTEX
8
CUT
10
96.6557
20
215.1160
0
VERTEX
8
CUT
10
96.6316
20
215.1316
0
VERTEX
8
CUT
10
96.4984
20
215.2213
0
VERTEX
8
CUT
10
96.1152
20
215.4916
0
VERTEX
8
CUT
10
95.9869
20
215.5862
0
VERTEX
8
CUT
10
95.9643
20
215.6036
0
VERTEX
8
CUT
10
95.7205
20
215.8086
0
VERTEX
8
CUT
10
95.6995
20
215.8279
0
VERTEX
8
CUT
10
95.5843
20
215.9380
0
VERTEX
8
CUT
10
93.3513
20
218.1659
0
VERTEX
8
CUT
10
93.2292
20
218.2936
0
VERTEX
8
CUT
10
93.2079
20
218.3170
0
VERTEX
8
CUT
10
92.9824
20
218.5889
0
VERTEX
8
CUT
10
92.9634
20
218.6142
0
VERTEX
8
CUT
10
92.8605
20
218.7578
0
VERTEX
8
CUT
10
91.7558
20
220.3794
0
VERTEX
8
CUT
10
91.6656
20
220.5184
0
VERTEX
8
CUT
10
91.6500
20
220.5436
0
VERTEX
8
CUT
10
91.4884
20
220.8327
0
VERTEX
8
CUT
10
91.4751
20
220.8592
0
VERTEX
8
CUT
10
91.4040
20
221.0089
0
VERTEX
8
CUT
10
90.4445
20
223.1500
0
VERTEX
8
CUT
10
90.3430
20
223.4005
0
VERTEX
8
CUT
10
90.2802
20
223.5728
0
VERTEX
8
CUT
10
90.1970
20
223.8299
0
VERTEX
8
CUT
10
87.2585
20
234.1617
0
VERTEX
8
CUT
10
87.2388
20
234.2275
0
VERTEX
8
CUT
10
87.2342
20
234.2423
0
VERTEX
8
CUT
10
87.2185
20
234.2905
0
VERTEX
8
CUT
10
86.4353
20
236.6159
0
VERTEX
8
CUT
10
86.3032
20
236.9340
0
VERTEX
8
CUT
10
85.4094
20
238.7256
0
VERTEX
8
CUT
10
85.2669
20
238.9744
0
VERTEX
8
CUT
10
83.6628
20
241.4362
0
VERTEX
8
CUT
10
83.4489
20
241.7185
0
VERTEX
8
CUT
10
82.6482
20
242.6329
0
VERTEX
8
CUT
10
82.4156
20
242.8656
0
VERTEX
8
CUT
10
80.3719
20
244.6574
0
VERTEX
8
CUT
10
80.1020
20
244.8635
0
VERTEX
8
CUT
10
79.1107
20
245.5184
0
VERTEX
8
CUT
10
78.8645
20
245.6617
0
VERTEX
8
CUT
10
77.1620
20
246.5262
0
VERTEX
8
CUT
10
76.9839
20
246.6080
0
VERTEX
8
CUT
10
76.8000
20
246.6756
0
VERTEX
8
CUT
10
75.8751
20
246.9750
0
VERTEX
8
CUT
10
75.6440
20
247.0378
0
VERTEX
8
CUT
10
75.4080
20
247.0781
0
VERTEX
8
CUT
10
75.1692
20
247.0957
0
VERTEX
8
CUT
10
74.3624
20
247.1164
0
VERTEX
8
CUT
10
72.5507
20
247.3115
0
VERTEX
8
CUT
10
72.2769
20
247.3259
0
VERTEX
8
CUT
10
72.0031
20
247.3102
0
VERTEX
8
CUT
10
70.0832
20
247.0938
0
VERTEX
8
CUT
10
70.0197
20
247.0831
0
VERTEX
8
CUT
10
69.1296
20
246.9968
0
VERTEX
8
CUT
10
68.8976
20
246.9633
0
VERTEX
8
CUT
10
68.6699
20
246.9082
0
VERTEX
8
CUT
10
68.4482
20
246.8320
0
VERTEX
8
CUT
10
68.2347
20
246.7354
0
VERTEX
8
CUT
10
65.7540
20
245.4699
0
VERTEX
8
CUT
10
65.5516
20
245.3544
0
VERTEX
8
CUT
10
65.3608
20
245.2207
0
VERTEX
8
CUT
10
65.1834
20
245.0697
0
VERTEX
8
CUT
10
64.8577
20
244.7655
0
VERTEX
8
CUT
10
64.8239
20
244.7378
0
VERTEX
8
CUT
10
63.4698
20
243.4889
0
VERTEX
8
CUT
10
63.2899
20
243.3050
0
VERTEX
8
CUT
10
63.2770
20
243.2887
0
VERTEX
8
CUT
10
63.0759
20
243.1009
0
VERTEX
8
CUT
10
62.8993
20
242.9182
0
VERTEX
8
CUT
10
62.7422
20
242.7186
0
VERTEX
8
CUT
10
62.0124
20
241.6877
0
VERTEX
8
CUT
10
61.8676
20
241.4577
0
VERTEX
8
CUT
10
61.7487
20
241.2133
0
VERTEX
8
CUT
10
61.6228
20
240.9143
0
VERTEX
8
CUT
10
61.6081
20
240.8852
0
VERTEX
8
CUT
10
60.7660
20
238.9959
0
VERTEX
8
CUT
10
60.6716
20
238.7500
0
VERTEX
8
CUT
10
60.6036
20
238.4957
0
VERTEX
8
CUT
10
60.6027
20
238.4913
0
VERTEX
8
CUT
10
60.5464
20
238.3576
0
VERTEX
8
CUT
10
60.4610
20
238.1225
0
VERTEX
8
CUT
10
60.3995
20
237.8802
0
VERTEX
8
CUT
10
60.1170
20
236.4748
0
VERTEX
8
CUT
10
60.0725
20
236.1334
0
VERTEX
8
CUT
10
59.9813
20
234.6284
0
VERTEX
8
CUT
10
59.9819
20
234.3175
0
VERTEX
8
CUT
10
60.1075
20
232.3548
0
VERTEX
8
CUT
10
60.1273
20
232.1621
0
VERTEX
8
CUT
10
60.1620
20
231.9715
0
VERTEX
8
CUT
10
60.5694
20
230.1404
0
VERTEX
8
CUT
10
60.6754
20
229.7885
0
VERTEX
8
CUT
10
61.3818
20
227.9457
0
VERTEX
8
CUT
10
61.5238
20
227.6391
0
VERTEX
8
CUT
10
62.5528
20
225.7612
0
VERTEX
8
CUT
10
62.7021
20
225.5220
0
VERTEX
8
CUT
10
64.1146
20
223.5188
0
VERTEX
8
CUT
10
64.2636
20
223.3278
0
VERTEX
8
CUT
10
64.5802
20
222.9603
0
VERTEX
8
CUT
10
64.6405
20
222.8754
0
VERTEX
8
CUT
10
64.7943
20
222.6799
0
VERTEX
8
CUT
10
66.0204
20
221.2727
0
VERTEX
8
CUT
10
66.1805
20
221.1053
0
VERTEX
8
CUT
10
66.2050
20
221.0820
0
VERTEX
8
CUT
10
66.2548
20
221.0287
0
VERTEX
8
CUT
10
68.5943
20
218.7160
0
VERTEX
8
CUT
10
68.6109
20
218.6998
0
VERTEX
8
CUT
10
68.6139
20
218.6969
0
VERTEX
8
CUT
10
68.6856
20
218.6299
0
VERTEX
8
CUT
10
75.7810
20
212.2664
0
VERTEX
8
CUT
10
75.9452
20
212.1099
0
VERTEX
8
CUT
10
76.0535
20
212.0003
0
VERTEX
8
CUT
10
76.2080
20
211.8341
0
VERTEX
8
CUT
10
78.5556
20
209.1504
0
VERTEX
8
CUT
10
78.6997
20
208.9753
0
VERTEX
8
CUT
10
78.7244
20
208.9433
0
VERTEX
8
CUT
10
78.9795
20
208.5686
0
VERTEX
8
CUT
10
79.0001
20
208.5339
0
VERTEX
8
CUT
10
79.1103
20
208.3356
0
VERTEX
8
CUT
10
80.2139
20
206.1983
0
VERTEX
8
CUT
10
80.2836
20
206.0561
0
VERTEX
8
CUT
10
80.2956
20
206.0304
0
VERTEX
8
CUT
10
80.4069
20
205.7612
0
VERTEX
8
CUT
10
80.4951
20
205.4837
0
VERTEX
8
CUT
10
80.5025
20
205.4563
0
VERTEX
8
CUT
10
80.5409
20
205.3026
0
VERTEX
8
CUT
10
80.6901
20
204.6453
0
VERTEX
8
CUT
10
80.7249
20
204.4734
0
VERTEX
8
CUT
10
80.7304
20
204.4426
0
VERTEX
8
CUT
10
80.7757
20
204.0950
0
VERTEX
8
CUT
10
80.7783
20
204.0637
0
VERTEX
8
CUT
10
80.7887
20
203.8887
0
VERTEX
8
CUT
10
80.8466
20
202.2873
0
VERTEX
8
CUT
10
80.8490
20
202.1315
0
VERTEX
8
CUT
10
80.8489
20
202.1036
0
VERTEX
8
CUT
10
80.8354
20
201.8175
0
VERTEX
8
CUT
10
80.7983
20
201.5334
0
VERTEX
8
CUT
10
80.7935
20
201.5059
0
VERTEX
8
CUT
10
80.7637
20
201.3530
0
VERTEX
8
CUT
10
80.6218
20
200.6973
0
VERTEX
8
CUT
10
80.5839
20
200.5391
0
VERTEX
8
CUT
10
80.5765
20
200.5110
0
VERTEX
8
CUT
10
80.4883
20
200.2255
0
VERTEX
8
CUT
10
80.3854
20
199.9729
0
VERTEX
8
CUT
10
80.2492
20
199.7069
0
VERTEX
8
CUT
10
80.2348
20
199.6816
0
VERTEX
8
CUT
10
80.1515
20
199.5420
0
VERTEX
8
CUT
10
79.9636
20
199.2423
0
VERTEX
8
CUT
10
79.8499
20
199.0716
0
VERTEX
8
CUT
10
79.8288
20
199.0418
0
VERTEX
8
CUT
10
79.5950
20
198.7463
0
VERTEX
8
CUT
10
79.3304
20
198.4781
0
VERTEX
8
CUT
10
79.3033
20
198.4535
0
VERTEX
8
CUT
10
79.1478
20
198.3199
0
VERTEX
8
CUT
10
78.6903
20
197.9480
0
VERTEX
8
CUT
10
78.5284
20
197.8235
0
VERTEX
8
CUT
10
78.4989
20
197.8021
0
VERTEX
8
CUT
10
78.1561
20
197.5806
0
VERTEX
8
CUT
10
78.1245
20
197.5625
0
VERTEX
8
CUT
10
77.9445
20
197.4661
0
VERTEX
8
CUT
10
77.0137
20
196.9994
0
VERTEX
8
CUT
10
76.8214
20
196.9097
0
VERTEX
8
CUT
10
76.7867
20
196.8947
0
VERTEX
8
CUT
10
76.4207
20
196.7604
0
VERTEX
8
CUT
10
76.0419
20
196.6684
0
VERTEX
8
CUT
10
76.0351
20
196.6671
0
VERTEX
8
CUT
10
74.9170
20
196.5256
0
VERTEX
8
CUT
10
74.7771
20
196.5106
0
VERTEX
8
CUT
10
74.7520
20
196.5084
0
VERTEX
8
CUT
10
74.4711
20
196.4941
0
VERTEX
8
CUT
10
74.4459
20
196.4937
0
VERTEX
8
CUT
10
74.3053
20
196.4945
0
VERTEX
8
CUT
10
73.7129
20
196.5088
0
VERTEX
8
CUT
10
69.2926
20
196.8287
0
VERTEX
8
CUT
10
69.0298
20
196.8339
0
VERTEX
8
CUT
10
66.0461
20
196.7355
0
VERTEX
8
CUT
10
65.7444
20
196.7072
0
VERTEX
8
CUT
10
65.4483
20
196.6426
0
VERTEX
8
CUT
10
63.8735
20
196.1973
0
VERTEX
8
CUT
10
63.8653
20
196.1952
0
VERTEX
8
CUT
10
63.8621
20
196.1941
0
VERTEX
8
CUT
10
63.7277
20
196.1561
0
VERTEX
8
CUT
10
63.5035
20
196.0811
0
VERTEX
8
CUT
10
63.2873
20
195.9852
0
VERTEX
8
CUT
10
63.0812
20
195.8693
0
VERTEX
8
CUT
10
62.6189
20
195.5799
0
VERTEX
8
CUT
10
61.9662
20
195.2290
0
VERTEX
8
CUT
10
61.7404
20
195.0917
0
VERTEX
8
CUT
10
61.5303
20
194.9314
0
VERTEX
8
CUT
10
61.3615
20
194.7877
0
VERTEX
8
CUT
10
61.2585
20
194.7168
0
VERTEX
8
CUT
10
61.0894
20
194.5770
0
VERTEX
8
CUT
10
60.9333
20
194.4229
0
VERTEX
8
CUT
10
60.9054
20
194.3929
0
VERTEX
8
CUT
10
60.8398
20
194.3320
0
VERTEX
8
CUT
10
60.6958
20
194.1735
0
VERTEX
8
CUT
10
60.6425
20
194.1096
0
VERTEX
8
CUT
10
60.5683
20
194.0296
0
VERTEX
8
CUT
10
60.3862
20
193.8700
0
VERTEX
8
CUT
10
60.2175
20
193.7075
0
VERTEX
8
CUT
10
60.0647
20
193.5299
0
VERTEX
8
CUT
10
59.8513
20
193.2569
0
VERTEX
8
CUT
10
59.5372
20
192.9185
0
VERTEX
8
CUT
10
59.3950
20
192.7511
0
VERTEX
8
CUT
10
59.2680
20
192.5718
0
VERTEX
8
CUT
10
58.8097
20
191.8604
0
VERTEX
8
CUT
10
58.6910
20
191.6554
0
VERTEX
8
CUT
10
58.5922
20
191.4401
0
VERTEX
8
CUT
10
57.7977
20
189.4664
0
VERTEX
8
CUT
10
57.7214
20
189.2483
0
VERTEX
8
CUT
10
57.6656
20
189.0240
0
VERTEX
8
CUT
10
57.5036
20
188.2158
0
VERTEX
8
CUT
10
57.4672
20
187.9725
0
VERTEX
8
CUT
10
57.4549
20
187.7268
0
VERTEX
8
CUT
10
57.4534
20
186.0514
0
VERTEX
8
CUT
10
57.4635
20
185.8256
0
VERTEX
8
CUT
10
57.4938
20
185.6016
0
VERTEX
8
CUT
10
57.8116
20
183.8554
0
VERTEX
8
CUT
10
57.8627
20
183.6328
0
VERTEX
8
CUT
10
57.9340
20
183.4157
0
VERTEX
8
CUT
10
58.5967
20
181.6702
0
VERTEX
8
CUT
10
58.6686
20
181.5001
0
VERTEX
8
CUT
10
58.7528
20
181.3358
0
VERTEX
8
CUT
10
59.6794
20
179.6815
0
VERTEX
8
CUT
10
59.7913
20
179.5003
0
VERTEX
8
CUT
10
59.9182
20
179.3293
0
VERTEX
8
CUT
10
60.2732
20
178.8912
0
VERTEX
8
CUT
10
60.4045
20
178.7057
0
VERTEX
8
CUT
10
60.5846
20
178.5023
0
VERTEX
8
CUT
10
60.6054
20
178.4812
0
VERTEX
8
CUT
10
61.1010
20
177.8696
0
VERTEX
8
CUT
10
61.2227
20
177.7303
0
VERTEX
8
CUT
10
61.3542
20
177.6005
0
VERTEX
8
CUT
10
62.7091
20
176.3587
0
VERTEX
8
CUT
10
62.8813
20
176.2145
0
VERTEX
8
CUT
10
63.0659
20
176.0864
0
VERTEX
8
CUT
10
64.6265
20
175.1034
0
VERTEX
8
CUT
10
64.8132
20
174.9967
0
VERTEX
8
CUT
10
65.0084
20
174.9065
0
VERTEX
8
CUT
10
66.6610
20
174.2272
0
VERTEX
8
CUT
10
66.8907
20
174.1456
0
VERTEX
8
CUT
10
67.1273
20
174.0868
0
VERTEX
8
CUT
10
68.2742
20
173.8604
0
VERTEX
8
CUT
10
68.6271
20
173.8165
0
VERTEX
8
CUT
10
76.4981
20
173.4026
0
VERTEX
8
CUT
10
76.7243
20
173.3838
0
VERTEX
8
CUT
10
76.7645
20
173.3792
0
VERTEX
8
CUT
10
77.2113
20
173.3008
0
VERTEX
8
CUT
10
77.2506
20
173.2915
0
VERTEX
8
CUT
10
77.4698
20
173.2321
0
VERTEX
8
CUT
10
78.2443
20
172.9970
0
VERTEX
8
CUT
10
78.4359
20
172.9331
0
VERTEX
8
CUT
10
78.4698
20
172.9208
0
VERTEX
8
CUT
10
78.5901
20
172.8696
0
VERTEX
8
CUT
10
78.6439
20
172.8441
0
VERTEX
8
CUT
10
78.8595
20
172.7421
0
VERTEX
8
CUT
10
78.9324
20
172.7077
0
VERTEX
8
CUT
10
79.1352
20
172.5941
0
VERTEX
8
CUT
10
79.1656
20
172.5749
0
VERTEX
8
CUT
10
79.3334
20
172.4623
0
VERTEX
8
CUT
10
80.7990
20
171.4204
0
VERTEX
8
CUT
10
80.9064
20
171.3403
0
VERTEX
8
CUT
10
81.4785
20
170.7942
0
VERTEX
8
CUT
10
81.4989
20
170.7739
0
VERTEX
8
CUT
10
81.5606
20
170.7002
0
VERTEX
8
CUT
10
82.6537
20
169.3316
0
VERTEX
8
CUT
10
82.6583
20
169.3249
0
VERTEX
8
CUT
10
82.8569
20
169.0033
0
VERTEX
8
CUT
10
82.8732
20
168.9737
0
VERTEX
8
CUT
10
82.9601
20
168.8058
0
VERTEX
8
CUT
10
83.9600
20
166.7487
0
VERTEX
8
CUT
10
83.9603
20
166.7478
0
VERTEX
8
CUT
10
83.9697
20
166.7138
0
VERTEX
8
CUT
10
84.0173
20
166.5220
0
VERTEX
8
CUT
10
84.2838
20
165.3132
0
VERTEX
8
CUT
10
84.3188
20
165.1335
0
VERTEX
8
CUT
10
84.3243
20
165.1013
0
VERTEX
8
CUT
10
84.3678
20
164.7380
0
VERTEX
8
CUT
10
84.3701
20
164.7054
0
VERTEX
8
CUT
10
84.3786
20
164.5225
0
VERTEX
8
CUT
10
84.4247
20
162.3952
0
VERTEX
8
CUT
10
84.4240
20
162.2049
0
VERTEX
8
CUT
10
84.4230
20
162.1710
0
VERTEX
8
CUT
10
84.3951
20
161.8224
0
VERTEX
8
CUT
10
84.3376
20
161.5087
0
VERTEX
8
CUT
10
84.2486
20
161.2023
0
VERTEX
8
CUT
10
84.1290
20
160.9066
0
VERTEX
8
CUT
10
83.9801
20
160.6246
0
VERTEX
8
CUT
10
83.8034
20
160.3590
0
VERTEX
8
CUT
10
83.6006
20
160.1127
0
VERTEX
8
CUT
10
83.3740
20
159.8883
0
VERTEX
8
CUT
10
83.1258
20
159.6879
0
VERTEX
8
CUT
10
82.8586
20
159.5138
0
VERTEX
8
CUT
10
82.5751
20
159.3676
0
VERTEX
8
CUT
10
82.2497
20
159.2396
0
VERTEX
8
CUT
10
82.2175
20
159.2288
0
VERTEX
8
CUT
10
82.0356
20
159.1728
0
VERTEX
8
CUT
10
81.1692
20
158.9301
0
VERTEX
8
CUT
10
80.9521
20
158.8762
0
VERTEX
8
CUT
10
80.9132
20
158.8678
0
VERTEX
8
CUT
10
80.4714
20
158.7993
0
VERTEX
8
CUT
10
80.4317
20
158.7956
0
VERTEX
8
CUT
10
80.2085
20
158.7812
0
VERTEX
8
CUT
10
78.4703
20
158.7212
0
VERTEX
8
CUT
10
78.3217
20
158.7190
0
VERTEX
8
CUT
10
78.2951
20
158.7192
0
VERTEX
8
CUT
10
77.9983
20
158.7325
0
VERTEX
8
CUT
10
77.9718
20
158.7347
0
VERTEX
8
CUT
10
77.8240
20
158.7502
0
VERTEX
8
CUT
10
75.3032
20
159.0645
0
VERTEX
8
CUT
10
75.1345
20
159.0894
0
VERTEX
8
CUT
10
75.0202
20
159.1090
0
VERTEX
8
CUT
10
74.8528
20
159.1416
0
VERTEX
8
CUT
10
71.7340
20
159.8227
0
VERTEX
8
CUT
10
71.5819
20
159.8593
0
VERTEX
8
CUT
10
71.4791
20
159.8863
0
VERTEX
8
CUT
10
71.3286
20
159.9292
0
VERTEX
8
CUT
10
70.4670
20
160.1943
0
VERTEX
8
CUT
10
70.2290
20
160.2549
0
VERTEX
8
CUT
10
69.9862
20
160.2919
0
VERTEX
8
CUT
10
69.7410
20
160.3048
0
SEQEND
0
POLYLINE
8
CUT
66
1
70
1
10
0.0
20
0.0
30
0.0
0
VERTEX
8
CUT
10
218.2047
20
59.0275
0
VERTEX
8
CUT
10
218.2620
20
58.8147
0
VERTEX
8
CUT
10
218.3378
20
58.6079
0
VERTEX
8
CUT
10
218.4316
20
58.4085
0
VERTEX
8
CUT
10
218.9375
20
57.4452
0
VERTEX
8
CUT
10
219.0599
20
57.2372
0
VERTEX
8
CUT
10
219.2018
20
57.0420
0
VERTEX
8
CUT
10
219.5495
20
56.6091
0
VERTEX
8
CUT
10
219.7877
20
56.3518
0
VERTEX
8
CUT
10
220.8697
20
55.3363
0
VERTEX
8
CUT
10
221.0322
20
55.1964
0
VERTEX
8
CUT
10
221.2061
20
55.0710
0
VERTEX
8
CUT
10
222.2761
20
54.3667
0
VERTEX
8
CUT
10
222.4626
20
54.2552
0
VERTEX
8
CUT
10
222.6580
20
54.1604
0
VERTEX
8
CUT
10
222.8610
20
54.0829
0
VERTEX
8
CUT
10
223.6532
20
53.8192
0
VERTEX
8
CUT
10
223.9140
20
53.7478
0
VERTEX
8
CUT
10
224.1809
20
53.7050
0
VERTEX
8
CUT
10
225.3269
20
53.5843
0
VERTEX
8
CUT
10
225.5416
20
53.5710
0
VERTEX
8
CUT
10
225.7565
20
53.5762
0
VERTEX
8
CUT
10
227.0434
20
53.6627
0
VERTEX
8
CUT
10
227.2395
20
53.6837
0
VERTEX
8
CUT
10
227.4332
20
53.7200
0
VERTEX
8
CUT
10
228.4494
20
53.9525
0
VERTEX
8
CUT
10
228.7280
20
54.0335
0
VERTEX
8
CUT
10
228.9952
20
54.1462
0
VERTEX
8
CUT
10
229.5748
20
54.4312
0
VERTEX
8
CUT
10
229.8371
20
54.5805
0
VERTEX
8
CUT
10
230.0794
20
54.7602
0
VERTEX
8
CUT
10
230.6082
20
55.2044
0
VERTEX
8
CUT
10
230.7887
20
55.3361
0
VERTEX
8
CUT
10
230.9801
20
55.5087
0
VERTEX
8
CUT
10
231.0308
20
55.5593
0
VERTEX
8
CUT
10
231.3776
20
55.8506
0
VERTEX
8
CUT
10
231.5782
20
56.0388
0
VERTEX
8
CUT
10
231.7568
20
56.2479
0
VERTEX
8
CUT
10
232.7073
20
57.4929
0
VERTEX
8
CUT
10
232.8653
20
57.7259
0
VERTEX
8
CUT
10
232.9960
20
57.9752
0
VERTEX
8
CUT
10
233.5471
20
59.1873
0
VERTEX
8
CUT
10
233.6564
20
59.4728
0
VERTEX
8
CUT
10
233.7300
20
59.7695
0
VERTEX
8
CUT
10
233.9768
20
61.1102
0
VERTEX
8
CUT
10
234.0121
20
61.3896
0
VERTEX
8
CUT
10
234.0157
20
61.6713
0
VERTEX
8
CUT
10
233.9613
20
62.9217
0
VERTEX
8
CUT
10
233.9310
20
63.2159
0
VERTEX
8
CUT
10
233.8662
20
63.5044
0
VERTEX
8
CUT
10
233.4961
20
64.7906
0
VERTEX
8
CUT
10
233.3949
20
65.0762
0
VERTEX
8
CUT
10
233.2598
20
65.3475
0
VERTEX
8
CUT
10
232.6048
20
66.4842
0
VERTEX
8
CUT
10
232.4465
20
66.7255
0
VERTEX
8
CUT
10
232.2615
20
66.9470
0
VERTEX
8
CUT
10
231.3909
20
67.8745
0
VERTEX
8
CUT
10
231.2242
20
68.0363
0
VERTEX
8
CUT
10
231.0432
20
68.1820
0
VERTEX
8
CUT
10
230.8494
20
68.3102
0
VERTEX
8
CUT
10
228.9235
20
69.4598
0
VERTEX
8
CUT
10
228.7060
20
69.5755
0
VERTEX
8
CUT
10
228.4782
20
69.6692
0
VERTEX
8
CUT
10
228.2424
20
69.7400
0
VERTEX
8
CUT
10
227.6940
20
69.8756
0
VERTEX
8
CUT
10
227.4665
20
69.9208
0
VERTEX
8
CUT
10
227.2358
20
69.9447
0
VERTEX
8
CUT
10
226.1474
20
70.0066
0
VERTEX
8
CUT
10
225.8294
20
70.0045
0
VERTEX
8
CUT
10
224.9706
20
69.9439
0
VERTEX
8
CUT
10
224.7359
20
69.9161
0
VERTEX
8
CUT
10
224.5049
20
69.8663
0
VERTEX
8
CUT
10
222.8190
20
69.4186
0
VERTEX
8
CUT
10
222.5628
20
69.3356
0
VERTEX
8
CUT
10
222.3170
20
69.2255
0
VERTEX
8
CUT
10
221.7868
20
68.9527
0
VERTEX
8
CUT
10
221.5483
20
68.8128
0
VERTEX
8
CUT
10
221.3267
20
68.6474
0
VERTEX
8
CUT
10
220.0729
20
67.5989
0
VERTEX
8
CUT
10
219.8794
20
67.4189
0
VERTEX
8
CUT
10
219.7061
20
67.2195
0
VERTEX
8
CUT
10
219.2853
20
66.6806
0
VERTEX
8
CUT
10
219.1503
20
66.4899
0
VERTEX
8
CUT
10
219.0336
20
66.2874
0
VERTEX
8
CUT
10
218.3258
20
64.9139
0
VERTEX
8
CUT
10
218.2182
20
64.6751
0
VERTEX
8
CUT
10
218.1361
20
64.4264
0
VERTEX
8
CUT
10
217.8259
20
63.2888
0
VERTEX
8
CUT
10
217.7659
20
63.0048
0
VERTEX
8
CUT
10
217.7392
20
62.7158
0
VERTEX
8
CUT
10
217.7030
20
61.6465
0
VERTEX
8
CUT
10
217.7047
20
61.4357
0
VERTEX
8
CUT
10
217.7242
20
61.2258
0
VERTEX
8
CUT
10
217.7613
20
61.0183
0
SEQEND
0
POLYLINE
8
CUT
66
1
70
1
10
0.0
20
0.0
30
0.0
0
VERTEX
8
CUT
10
187.6080
20
78.1042
0
VERTEX
8
CUT
10
187.3669
20
78.0726
0
VERTEX
8
CUT
10
187.1300
20
78.0178
0
VERTEX
8
CUT
10
186.8996
20
77.9402
0
VERTEX
8
CUT
10
186.1396
20
77.6423
0
VERTEX
8
CUT
10
185.8995
20
77.5333
0
VERTEX
8
CUT
10
185.6723
20
77.3996
0
VERTEX
8
CUT
10
185.4604
20
77.2427
0
VERTEX
8
CUT
10
184.2631
20
76.2545
0
VERTEX
8
CUT
10
184.0608
20
76.0679
0
VERTEX
8
CUT
10
178.5570
20
70.3988
0
VERTEX
8
CUT
10
178.3840
20
70.2317
0
VERTEX
8
CUT
10
178.2630
20
70.1221
0
VERTEX
8
CUT
10
178.0796
20
69.9664
0
VERTEX
8
CUT
10
175.4088
20
67.8424
0
VERTEX
8
CUT
10
175.2719
20
67.7385
0
VERTEX
8
CUT
10
175.2470
20
67.7205
0
VERTEX
8
CUT
10
174.9597
20
67.5322
0
VERTEX
8
CUT
10
174.9333
20
67.5166
0
VERTEX
8
CUT
10
174.7835
20
67.4325
0
VERTEX
8
CUT
10
170.7967
20
65.3133
0
VERTEX
8
CUT
10
170.5719
20
65.2033
0
VERTEX
8
CUT
10
170.4169
20
65.1338
0
VERTEX
8
CUT
10
170.1853
20
65.0390
0
VERTEX
8
CUT
10
168.9710
20
64.5887
0
VERTEX
8
CUT
10
168.7449
20
64.4920
0
VERTEX
8
CUT
10
168.5295
20
64.3736
0
VERTEX
8
CUT
10
168.3267
20
64.2346
0
VERTEX
8
CUT
10
168.1386
20
64.0763
0
VERTEX
8
CUT
10
167.9669
20
63.9003
0
VERTEX
8
CUT
10
167.8133
20
63.7083
0
VERTEX
8
CUT
10
167.6793
20
63.5021
0
VERTEX
8
CUT
10
167.5663
20
63.2838
0
VERTEX
8
CUT
10
167.4752
20
63.0555
0
VERTEX
8
CUT
10
167.4070
20
62.8192
0
VERTEX
8
CUT
10
167.3623
20
62.5775
0
VERTEX
8
CUT
10
167.3416
20
62.3325
0
VERTEX
8
CUT
10
167.3451
20
62.0867
0
VERTEX
8
CUT
10
167.3727
20
61.8423
0
VERTEX
8
CUT
10
167.4241
20
61.6019
0
VERTEX
8
CUT
10
167.4989
20
61.3677
0
VERTEX
8
CUT
10
167.5964
20
61.1420
0
VERTEX
8
CUT
10
167.7155
20
60.9270
0
VERTEX
8
CUT
10
167.8553
20
60.7246
0
VERTEX
8
CUT
10
168.0142
20
60.5370
0
VERTEX
8
CUT
10
168.1907
20
60.3659
0
VERTEX
8
CUT
10
168.3832
20
60.2130
0
VERTEX
8
CUT
10
168.6677
20
60.0090
0
VERTEX
8
CUT
10
168.6915
20
59.9903
0
VERTEX
8
CUT
10
168.8224
20
59.8823
0
VERTEX
8
CUT
10
171.9207
20
57.2053
0
VERTEX
8
CUT
10
172.2739
20
56.8603
0
VERTEX
8
CUT
10
172.2873
20
56.8472
0
VERTEX
8
CUT
10
172.3329
20
56.8027
0
VERTEX
8
CUT
10
172.4506
20
56.6878
0
VERTEX
8
CUT
10
176.4317
20
52.2179
0
VERTEX
8
CUT
10
176.4966
20
52.1430
0
VERTEX
8
CUT
10
176.5401
20
52.0915
0
VERTEX
8
CUT
10
176.6030
20
52.0150
0
VERTEX
8
CUT
10
184.8537
20
41.7023
0
VERTEX
8
CUT
10
185.0521
20
41.4825
0
VERTEX
8
CUT
10
186.6379
20
39.9214
0
VERTEX
8
CUT
10
186.8623
20
39.7255
0
VERTEX
8
CUT
10
188.1486
20
38.7306
0
VERTEX
8
CUT
10
188.3750
20
38.5747
0
VERTEX
8
CUT
10
188.6171
20
38.4445
0
VERTEX
8
CUT
10
189.9184
20
37.8347
0
VERTEX
8
CUT
10
190.1425
20
37.7426
0
VERTEX
8
CUT
10
190.3744
20
37.6727
0
VERTEX
8
CUT
10
190.6121
20
37.6255
0
VERTEX
8
CUT
10
190.8641
20
37.5881
0
VERTEX
8
CUT
10
191.1243
20
37.5202
0
VERTEX
8
CUT
10
191.3357
20
37.4747
0
VERTEX
8
CUT
10
191.5502
20
37.4477
0
VERTEX
8
CUT
10
191.7662
20
37.4392
0
VERTEX
8
CUT
10
191.8636
20
37.4397
0
VERTEX
8
CUT
10
191.9476
20
37.4272
0
VERTEX
8
CUT
10
192.1832
20
37.4035
0
VERTEX
8
CUT
10
192.4199
20
37.4023
0
VERTEX
8
CUT
10
192.6558
20
37.4234
0
VERTEX
8
CUT
10
192.8885
20
37.4668
0
VERTEX
8
CUT
10
193.5690
20
37.6272
0
VERTEX
8
CUT
10
193.7193
20
37.6559
0
VERTEX
8
CUT
10
193.8425
20
37.6917
0
VERTEX
8
CUT
10
193.9615
20
37.7198
0
VERTEX
8
CUT
10
194.1988
20
37.7882
0
VERTEX
8
CUT
10
194.4281
20
37.8798
0
VERTEX
8
CUT
10
194.6473
20
37.9935
0
VERTEX
8
CUT
10
195.0057
20
38.2026
0
VERTEX
8
CUT
10
195.1973
20
38.3264
0
VERTEX
8
CUT
10
195.3768
20
38.4671
0
VERTEX
8
CUT
10
195.8546
20
38.8783
0
VERTEX
8
CUT
10
196.0461
20
39.0616
0
VERTEX
8
CUT
10
196.2170
20
39.2641
0
VERTEX
8
CUT
10
196.6192
20
39.7953
0
VERTEX
8
CUT
10
196.7525
20
39.9898
0
VERTEX
8
CUT
10
196.8669
20
40.1959
0
VERTEX
8
CUT
10
197.8677
20
42.2191
0
VERTEX
8
CUT
10
197.9573
20
42.4224
0
VERTEX
8
CUT
10
198.0284
20
42.6328
0
VERTEX
8
CUT
10
198.0806
20
42.8487
0
VERTEX
8
CUT
10
198.6806
20
45.9229
0
VERTEX
8
CUT
10
198.7222
20
46.2484
0
VERTEX
8
CUT
10
198.8557
20
48.4219
0
VERTEX
8
CUT
10
198.8586
20
48.4809
0
VERTEX
8
CUT
10
198.8591
20
48.4942
0
VERTEX
8
CUT
10
198.8604
20
48.5377
0
VERTEX
8
CUT
10
198.9157
20
51.2621
0
VERTEX
8
CUT
10
198.9161
20
51.2871
0
VERTEX
8
CUT
10
198.9161
20
51.2915
0
VERTEX
8
CUT
10
198.9150
20
51.3963
0
VERTEX
8
CUT
10
198.4258
20
66.8740
0
VERTEX
8
CUT
10
198.4250
20
66.9300
0
VERTEX
8
CUT
10
198.4249
20
66.9616
0
VERTEX
8
CUT
10
198.4249
20
66.9646
0
VERTEX
8
CUT
10
198.4247
20
67.0064
0
VERTEX
8
CUT
10
198.4243
20
67.0994
0
VERTEX
8
CUT
10
198.4271
20
67.2289
0
VERTEX
8
CUT
10
198.4824
20
68.6451
0
VERTEX
8
CUT
10
198.5057
20
69.0956
0
VERTEX
8
CUT
10
198.5322
20
69.6064
0
VERTEX
8
CUT
10
198.5572
20
70.0891
0
VERTEX
8
CUT
10
198.6074
20
71.0588
0
VERTEX
8
CUT
10
198.6254
20
71.1886
0
VERTEX
8
CUT
10
199.2143
20
74.6003
0
VERTEX
8
CUT
10
199.2538
20
74.7975
0
VERTEX
8
CUT
10
199.2618
20
74.8325
0
VERTEX
8
CUT
10
199.3722
20
75.2189
0
VERTEX
8
CUT
10
199.3839
20
75.2529
0
VERTEX
8
CUT
10
199.4545
20
75.4411
0
VERTEX
8
CUT
10
199.8777
20
76.4842
0
VERTEX
8
CUT
10
199.9632
20
76.6789
0
VERTEX
8
CUT
10
199.9794
20
76.7131
0
VERTEX
8
CUT
10
200.1827
20
77.0862
0
VERTEX
8
CUT
10
200.2026
20
77.1184
0
VERTEX
8
CUT
10
200.3198
20
77.2957
0
VERTEX
8
CUT
10
201.9054
20
79.5536
0
VERTEX
8
CUT
10
201.9890
20
79.6680
0
VERTEX
8
CUT
10
202.0044
20
79.6883
0
VERTEX
8
CUT
10
202.1843
20
79.9073
0
VERTEX
8
CUT
10
202.2012
20
79.9263
0
VERTEX
8
CUT
10
202.2973
20
80.0305
0
VERTEX
8
CUT
10
203.7341
20
81.5318
0
VERTEX
8
CUT
10
206.3400
20
83.9769
0
VERTEX
8
CUT
10
208.9571
20
86.3957
0
VERTEX
8
CUT
10
209.1254
20
86.5671
0
VERTEX
8
CUT
10
210.3938
20
87.9884
0
VERTEX
8
CUT
10
210.6007
20
88.2544
0
VERTEX
8
CUT
10
212.7346
20
91.4158
0
VERTEX
8
CUT
10
212.8979
20
91.6951
0
VERTEX
8
CUT
10
213.8237
20
93.5439
0
VERTEX
8
CUT
10
213.9082
20
93.7315
0
VERTEX
8
CUT
10
214.8569
20
96.0931
0
VERTEX
8
CUT
10
214.8956
20
96.1757
0
VERTEX
8
CUT
10
214.9880
20
96.4007
0
VERTEX
8
CUT
10
215.0453
20
96.5623
0
VERTEX
8
CUT
10
216.8566
20
101.0713
0
VERTEX
8
CUT
10
216.9330
20
101.2903
0
VERTEX
8
CUT
10
218.1466
20
105.3702
0
VERTEX
8
CUT
10
218.2031
20
105.5990
0
VERTEX
8
CUT
10
219.3398
20
111.3587
0
VERTEX
8
CUT
10
219.3825
20
111.6918
0
VERTEX
8
CUT
10
219.7018
20
116.9706
0
VERTEX
8
CUT
10
219.7148
20
117.1297
0
VERTEX
8
CUT
10
219.7177
20
117.1581
0
VERTEX
8
CUT
10
219.7603
20
117.4484
0
VERTEX
8
CUT
10
219.8274
20
117.7340
0
VERTEX
8
CUT
10
219.8351
20
117.7615
0
VERTEX
8
CUT
10
219.8814
20
117.9142
0
VERTEX
8
CUT
10
220.0459
20
118.4178
0
VERTEX
8
CUT
10
220.1080
20
118.5929
0
VERTEX
8
CUT
10
220.1198
20
118.6239
0
VERTEX
8
CUT
10
220.2575
20
118.9364
0
VERTEX
8
CUT
10
220.4253
20
119.2337
0
VERTEX
8
CUT
10
220.4431
20
119.2618
0
VERTEX
8
CUT
10
220.5462
20
119.4163
0
VERTEX
8
CUT
10
220.9447
20
119.9828
0
VERTEX
8
CUT
10
221.0614
20
120.1651
0
VERTEX
8
CUT
10
221.1620
20
120.3567
0
VERTEX
8
CUT
10
221.2456
20
120.5564
0
VERTEX
8
CUT
10
221.3116
20
120.7625
0
VERTEX
8
CUT
10
221.3147
20
120.7738
0
VERTEX
8
CUT
10
221.4211
20
121.0989
0
VERTEX
8
CUT
10
221.5471
20
121.3843
0
VERTEX
8
CUT
10
221.7007
20
121.6559
0
VERTEX
8
CUT
10
221.8805
20
121.9109
0
VERTEX
8
CUT
10
222.0847
20
122.1468
0
VERTEX
8
CUT
10
222.3112
20
122.3614
0
VERTEX
8
CUT
10
222.4393
20
122.4606
0
VERTEX
8
CUT
10
222.6217
20
122.6163
0
VERTEX
8
CUT
10
222.7883
20
122.7888
0
VERTEX
8
CUT
10
222.9376
20
122.9765
0
VERTEX
8
CUT
10
223.0682
20
123.1777
0
VERTEX
8
CUT
10
223.1790
20
123.3904
0
VERTEX
8
CUT
10
223.2688
20
123.6128
0
VERTEX
8
CUT
10
223.3370
20
123.8427
0
VERTEX
8
CUT
10
223.3828
20
124.0781
0
VERTEX
8
CUT
10
223.4058
20
124.3168
0
VERTEX
8
CUT
10
223.4058
20
124.5567
0
VERTEX
8
CUT
10
223.3829
20
124.7954
0
VERTEX
8
CUT
10
223.3372
20
125.0308
0
VERTEX
8
CUT
10
223.2692
20
125.2608
0
VERTEX
8
CUT
10
223.1794
20
125.4832
0
VERTEX
8
CUT
10
223.0687
20
125.6960
0
VERTEX
8
CUT
10
222.9381
20
125.8972
0
VERTEX
8
CUT
10
222.7889
20
126.0849
0
VERTEX
8
CUT
10
222.6224
20
126.2575
0
VERTEX
8
CUT
10
222.4401
20
126.4133
0
VERTEX
8
CUT
10
222.2437
20
126.5510
0
VERTEX
8
CUT
10
222.0350
20
126.6692
0
VERTEX
8
CUT
10
221.9713
20
126.7013
0
VERTEX
8
CUT
10
221.7129
20
126.8650
0
VERTEX
8
CUT
10
221.4716
20
127.0530
0
VERTEX
8
CUT
10
221.2284
20
127.2838
0
VERTEX
8
CUT
10
221.2270
20
127.2853
0
VERTEX
8
CUT
10
221.2260
20
127.2844
0
VERTEX
8
CUT
10
221.1145
20
127.4008
0
VERTEX
8
CUT
10
220.9265
20
127.5618
0
VERTEX
8
CUT
10
220.7234
20
127.7033
0
VERTEX
8
CUT
10
220.5074
20
127.8242
0
VERTEX
8
CUT
10
220.2805
20
127.9230
0
VERTEX
8
CUT
10
220.0449
20
127.9989
0
VERTEX
8
CUT
10
219.8029
20
128.0512
0
VERTEX
8
CUT
10
219.5570
20
128.0793
0
VERTEX
8
CUT
10
219.3095
20
128.0829
0
VERTEX
8
CUT
10
219.0629
20
128.0620
0
VERTEX
8
CUT
10
218.8195
20
128.0168
0
VERTEX
8
CUT
10
218.5818
20
127.9478
0
VERTEX
8
CUT
10
218.3521
20
127.8557
0
VERTEX
8
CUT
10
218.1326
20
127.7412
0
VERTEX
8
CUT
10
217.9255
20
127.6056
0
VERTEX
8
CUT
10
217.7328
20
127.4502
0
VERTEX
8
CUT
10
217.5565
20
127.2765
0
VERTEX
8
CUT
10
217.3982
20
127.0863
0
VERTEX
8
CUT
10
217.2594
20
126.8813
0
VERTEX
8
CUT
10
217.1417
20
126.6636
0
VERTEX
8
CUT
10
217.1333
20
126.6460
0
VERTEX
8
CUT
10
216.9727
20
126.3811
0
VERTEX
8
CUT
10
216.7869
20
126.1332
0
VERTEX
8
CUT
10
216.5776
20
125.9049
0
VERTEX
8
CUT
10
216.3468
20
125.6983
0
VERTEX
8
CUT
10
216.0294
20
125.4660
0
VERTEX
8
CUT
10
215.8403
20
125.3129
0
VERTEX
8
CUT
10
215.6669
20
125.1421
0
VERTEX
8
CUT
10
215.5110
20
124.9553
0
VERTEX
8
CUT
10
215.3739
20
124.7543
0
VERTEX
8
CUT
10
215.2571
20
124.5408
0
VERTEX
8
CUT
10
215.1615
20
124.3170
0
VERTEX
8
CUT
10
215.0882
20
124.0850
0
VERTEX
8
CUT
10
215.0378
20
123.8470
0
VERTEX
8
CUT
10
215.0107
20
123.6051
0
VERTEX
8
CUT
10
215.0073
20
123.3618
0
VERTEX
8
CUT
10
215.0276
20
123.1193
0
VERTEX
8
CUT
10
215.0570
20
122.9582
0
VERTEX
8
CUT
10
215.0563
20
122.9580
0
VERTEX
8
CUT
10
215.0566
20
122.9559
0
VERTEX
8
CUT
10
215.1010
20
122.6167
0
VERTEX
8
CUT
10
215.1107
20
122.3048
0
VERTEX
8
CUT
10
215.0893
20
121.9935
0
VERTEX
8
CUT
10
215.0373
20
121.6858
0
VERTEX
8
CUT
10
214.9549
20
121.3848
0
VERTEX
8
CUT
10
214.8432
20
121.0934
0
VERTEX
8
CUT
10
214.6896
20
120.7878
0
VERTEX
8
CUT
10
214.6733
20
120.7588
0
VERTEX
8
CUT
10
214.5776
20
120.5992
0
VERTEX
8
CUT
10
212.6135
20
117.4996
0
VERTEX
8
CUT
10
212.5137
20
117.3272
0
VERTEX
8
CUT
10
212.4279
20
117.1474
0
VERTEX
8
CUT
10
212.0199
20
116.1966
0
VERTEX
8
CUT
10
211.9443
20
116.0317
0
VERTEX
8
CUT
10
211.9299
20
116.0021
0
VERTEX
8
CUT
10
211.7679
20
115.7073
0
VERTEX
8
CUT
10
211.5946
20
115.4541
0
VERTEX
8
CUT
10
211.3974
20
115.2190
0
VERTEX
8
CUT
10
211.1783
20
115.0042
0
VERTEX
8
CUT
10
210.9393
20
114.8118
0
VERTEX
8
CUT
10
210.6827
20
114.6436
0
VERTEX
8
CUT
10
210.4109
20
114.5012
0
VERTEX
8
CUT
10
210.1265
20
114.3860
0
VERTEX
8
CUT
10
209.8323
20
114.2990
0
VERTEX
8
CUT
10
209.5309
20
114.2411
0
VERTEX
8
CUT
10
209.2254
20
114.2129
0
VERTEX
8
CUT
10
208.9186
20
114.2146
0
VERTEX
8
CUT
10
208.6134
20
114.2461
0
VERTEX
8
CUT
10
208.3127
20
114.3073
0
VERTEX
8
CUT
10
208.0194
20
114.3974
0
VERTEX
8
CUT
10
207.7363
20
114.5158
0
VERTEX
8
CUT
10
207.4661
20
114.6611
0
VERTEX
8
CUT
10
207.2113
20
114.8321
0
VERTEX
8
CUT
10
206.9744
20
115.0271
0
VERTEX
8
CUT
10
206.7368
20
115.2651
0
VERTEX
8
CUT
10
206.7064
20
115.2987
0
VERTEX
8
CUT
10
206.6238
20
115.3927
0
VERTEX
8
CUT
10
206.6234
20
115.3924
0
VERTEX
8
CUT
10
206.5005
20
115.5251
0
VERTEX
8
CUT
10
205.5408
20
116.4822
0
VERTEX
8
CUT
10
204.5218
20
117.6527
0
VERTEX
8
CUT
10
204.4812
20
117.7077
0
VERTEX
8
CUT
10
204.3505
20
117.8967
0
VERTEX
8
CUT
10
204.3283
20
117.9310
0
VERTEX
8
CUT
10
204.1030
20
118.3311
0
VERTEX
8
CUT
10
204.0851
20
118.3679
0
VERTEX
8
CUT
10
203.9912
20
118.5776
0
VERTEX
8
CUT
10
203.1534
20
120.6135
0
VERTEX
8
CUT
10
203.0358
20
120.8601
0
VERTEX
8
CUT
10
202.7730
20
121.3416
0
VERTEX
8
CUT
10
202.6435
20
121.5531
0
VERTEX
8
CUT
10
202.4937
20
121.7508
0
VERTEX
8
CUT
10
202.3250
20
121.9326
0
VERTEX
8
CUT
10
202.1391
20
122.0969
0
VERTEX
8
CUT
10
201.9379
20
122.2419
0
VERTEX
8
CUT
10
201.7233
20
122.3662
0
VERTEX
8
CUT
10
201.4975
20
122.4687
0
VERTEX
8
CUT
10
201.2626
20
122.5483
0
VERTEX
8
CUT
10
201.0209
20
122.6042
0
VERTEX
8
CUT
10
200.7750
20
122.6360
0
VERTEX
8
CUT
10
200.5270
20
122.6431
0
VERTEX
8
CUT
10
200.2796
20
122.6257
0
VERTEX
8
CUT
10
200.0352
20
122.5839
0
VERTEX
8
CUT
10
199.7961
20
122.5180
0
VERTEX
8
CUT
10
199.5646
20
122.4288
0
VERTEX
8
CUT
10
199.3432
20
122.3171
0
VERTEX
8
CUT
10
199.1339
20
122.1840
0
VERTEX
8
CUT
10
198.9389
20
122.0308
0
VERTEX
8
CUT
10
198.7600
20
121.8590
0
VERTEX
8
CUT
10
198.5989
20
121.6704
0
VERTEX
8
CUT
10
198.4574
20
121.4667
0
VERTEX
8
CUT
10
197.0398
20
119.1938
0
VERTEX
8
CUT
10
196.8951
20
118.9787
0
VERTEX
8
CUT
10
196.7919
20
118.8362
0
VERTEX
8
CUT
10
196.6326
20
118.6315
0
VERTEX
8
CUT
10
196.5130
20
118.4884
0
VERTEX
8
CUT
10
196.3905
20
118.3489
0
VERTEX
8
CUT
10
196.3680
20
118.3245
0
VERTEX
8
CUT
10
196.3305
20
118.2878
0
VERTEX
8
CUT
10
195.2008
20
117.4923
0
VERTEX
8
CUT
10
192.5755
20
116.1298
0
VERTEX
8
CUT
10
192.3619
20
116.0052
0
VERTEX
8
CUT
10
192.1616
20
115.8600
0
VERTEX
8
CUT
10
191.9767
20
115.6958
0
VERTEX
8
CUT
10
191.8089
20
115.5141
0
VERTEX
8
CUT
10
191.6598
20
115.3167
0
VERTEX
8
CUT
10
191.5310
20
115.1055
0
VERTEX
8
CUT
10
191.4237
20
114.8827
0
VERTEX
8
CUT
10
191.3390
20
114.6503
0
VERTEX
8
CUT
10
191.2776
20
114.4107
0
VERTEX
8
CUT
10
191.2402
20
114.1662
0
VERTEX
8
CUT
10
191.2271
20
113.9192
0
VERTEX
8
CUT
10
191.2385
20
113.6722
0
VERTEX
8
CUT
10
191.2743
20
113.4274
0
VERTEX
8
CUT
10
191.3341
20
113.1874
0
VERTEX
8
CUT
10
191.4173
20
112.9545
0
VERTEX
8
CUT
10
191.5231
20
112.7309
0
VERTEX
8
CUT
10
191.6504
20
112.5189
0
VERTEX
8
CUT
10
191.7982
20
112.3205
0
VERTEX
8
CUT
10
191.9647
20
112.1377
0
VERTEX
8
CUT
10
192.1486
20
111.9722
0
VERTEX
8
CUT
10
192.3479
20
111.8257
0
VERTEX
8
CUT
10
193.4070
20
111.1252
0
VERTEX
8
CUT
10
193.6301
20
110.9937
0
VERTEX
8
CUT
10
194.2545
20
110.6680
0
VERTEX
8
CUT
10
194.3275
20
110.6207
0
VERTEX
8
CUT
10
194.5438
20
110.5089
0
VERTEX
8
CUT
10
194.6111
20
110.4820
0
VERTEX
8
CUT
10
194.9863
20
110.2863
0
VERTEX
8
CUT
10
195.0801
20
110.2304
0
VERTEX
8
CUT
10
195.2898
20
110.1306
0
VERTEX
8
CUT
10
195.5632
20
110.0157
0
VERTEX
8
CUT
10
195.7549
20
109.9442
0
VERTEX
8
CUT
10
195.9518
20
109.8887
0
VERTEX
8
CUT
10
196.1526
20
109.8494
0
VERTEX
8
CUT
10
196.8620
20
109.7405
0
VERTEX
8
CUT
10
197.0891
20
109.7163
0
VERTEX
8
CUT
10
197.3176
20
109.7128
0
VERTEX
8
CUT
10
197.5454
20
109.7302
0
VERTEX
8
CUT
10
197.5702
20
109.7333
0
VERTEX
8
CUT
10
198.3894
20
109.7603
0
VERTEX
8
CUT
10
198.5892
20
109.7749
0
VERTEX
8
CUT
10
198.7871
20
109.8055
0
VERTEX
8
CUT
10
199.5926
20
109.9631
0
VERTEX
8
CUT
10
201.3948
20
110.0383
0
VERTEX
8
CUT
10
201.5612
20
110.0411
0
VERTEX
8
CUT
10
201.7885
20
109.9964
0
VERTEX
8
CUT
10
202.0847
20
109.9072
0
VERTEX
8
CUT
10
202.3707
20
109.7892
0
VERTEX
8
CUT
10
202.6438
20
109.6438
0
VERTEX
8
CUT
10
202.9012
20
109.4722
0
VERTEX
8
CUT
10
203.1405
20
109.2761
0
VERTEX
8
CUT
10
203.3594
20
109.0575
0
VERTEX
8
CUT
10
203.5557
20
108.8184
0
VERTEX
8
CUT
10
203.7277
20
108.5612
0
VERTEX
8
CUT
10
203.8735
20
108.2883
0
VERTEX
8
CUT
10
203.9917
20
108.0024
0
VERTEX
8
CUT
10
204.0814
20
107.7063
0
VERTEX
8
CUT
10
204.1415
20
107.4028
0
VERTEX
8
CUT
10
204.1715
20
107.0949
0
VERTEX
8
CUT
10
204.1710
20
106.7855
0
VERTEX
8
CUT
10
204.1402
20
106.4777
0
VERTEX
8
CUT
10
204.0793
20
106.1744
0
VERTEX
8
CUT
10
203.9889
20
105.8785
0
VERTEX
8
CUT
10
203.8698
20
105.5930
0
VERTEX
8
CUT
10
203.7233
20
105.3205
0
VERTEX
8
CUT
10
203.5507
20
105.0637
0
VERTEX
8
CUT
10
203.3347
20
104.8023
0
VERTEX
8
CUT
10
203.3125
20
104.7779
0
VERTEX
8
CUT
10
203.1849
20
104.6447
0
VERTEX
8
CUT
10
198.4566
20
99.9476
0
VERTEX
8
CUT
10
198.2668
20
99.7363
0
VERTEX
8
CUT
10
196.8224
20
97.9318
0
VERTEX
8
CUT
10
196.6451
20
97.6800
0
VERTEX
8
CUT
10
195.6868
20
96.1229
0
VERTEX
8
CUT
10
195.5239
20
95.8111
0
VERTEX
8
CUT
10
194.8246
20
94.2062
0
VERTEX
8
CUT
10
194.7473
20
94.0055
0
VERTEX
8
CUT
10
194.6874
20
93.7988
0
VERTEX
8
CUT
10
194.3932
20
92.5897
0
VERTEX
8
CUT
10
194.3496
20
92.3674
0
VERTEX
8
CUT
10
194.3264
20
92.1421
0
VERTEX
8
CUT
10
194.2547
20
90.8964
0
VERTEX
8
CUT
10
194.1214
20
89.6324
0
VERTEX
8
CUT
10
194.1077
20
89.3440
0
VERTEX
8
CUT
10
194.1166
20
88.4959
0
VERTEX
8
CUT
10
193.7698
20
82.4660
0
VERTEX
8
CUT
10
193.7534
20
82.2711
0
VERTEX
8
CUT
10
193.7389
20
82.1391
0
VERTEX
8
CUT
10
193.7125
20
81.9453
0
VERTEX
8
CUT
10
193.5752
20
81.1045
0
VERTEX
8
CUT
10
193.5406
20
80.9209
0
VERTEX
8
CUT
10
193.5336
20
80.8883
0
VERTEX
8
CUT
10
193.4442
20
80.5542
0
VERTEX
8
CUT
10
193.3318
20
80.2558
0
VERTEX
8
CUT
10
193.1770
20
79.9446
0
VERTEX
8
CUT
10
193.0062
20
79.6760
0
VERTEX
8
CUT
10
192.8064
20
79.4231
0
VERTEX
8
CUT
10
192.5817
20
79.1920
0
VERTEX
8
CUT
10
192.3345
20
78.9851
0
VERTEX
8
CUT
10
192.0675
20
78.8047
0
VERTEX
8
CUT
10
191.7834
20
78.6525
0
VERTEX
8
CUT
10
191.4852
20
78.5301
0
VERTEX
8
CUT
10
191.1760
20
78.4390
0
VERTEX
8
CUT
10
190.8287
20
78.3743
0
VERTEX
8
CUT
10
190.7947
20
78.3697
0
VERTEX
8
CUT
10
190.6035
20
78.3492
0
SEQEND
0
POLYLINE
8
CUT
66
1
70
1
10
0.0
20
0.0
30
0.0
0
VERTEX
8
CUT
10
207.0941
20
269.9675
0
VERTEX
8
CUT
10
206.8760
20
269.8668
0
VERTEX
8
CUT
10
206.6686
20
269.7456
0
VERTEX
8
CUT
10
206.4738
20
269.6051
0
VERTEX
8
CUT
10
206.2934
20
269.4466
0
VERTEX
8
CUT
10
206.1290
20
269.2714
0
VERTEX
8
CUT
10
205.9821
20
269.0813
0
VERTEX
8
CUT
10
205.8542
20
268.8780
0
VERTEX
8
CUT
10
205.7464
20
268.6633
0
VERTEX
8
CUT
10
205.6597
20
268.4393
0
VERTEX
8
CUT
10
205.5949
20
268.2080
0
VERTEX
8
CUT
10
205.4965
20
267.7782
0
VERTEX
8
CUT
10
205.4492
20
267.5007
0
VERTEX
8
CUT
10
205.4334
20
267.2197
0
VERTEX
8
CUT
10
205.4335
20
266.7457
0
VERTEX
8
CUT
10
205.4327
20
266.7393
0
VERTEX
8
CUT
10
205.4242
20
266.5315
0
VERTEX
8
CUT
10
205.4330
20
266.3237
0
VERTEX
8
CUT
10
205.4336
20
266.3167
0
VERTEX
8
CUT
10
205.4336
20
266.3084
0
VERTEX
8
CUT
10
205.4516
20
266.0094
0
VERTEX
8
CUT
10
205.4662
20
265.9293
0
VERTEX
8
CUT
10
205.4695
20
265.8899
0
VERTEX
8
CUT
10
205.5208
20
265.5547
0
VERTEX
8
CUT
10
205.6256
20
265.0854
0
VERTEX
8
CUT
10
205.7101
20
264.7921
0
VERTEX
8
CUT
10
205.7769
20
264.6355
0
VERTEX
8
CUT
10
205.8060
20
264.5379
0
VERTEX
8
CUT
10
205.9007
20
264.3073
0
VERTEX
8
CUT
10
206.2873
20
263.4850
0
VERTEX
8
CUT
10
206.4082
20
263.2588
0
VERTEX
8
CUT
10
206.5516
20
263.0461
0
VERTEX
8
CUT
10
206.7161
20
262.8493
0
VERTEX
8
CUT
10
208.0760
20
261.3819
0
VERTEX
8
CUT
10
208.2853
20
261.1808
0
VERTEX
8
CUT
10
208.5165
20
261.0053
0
VERTEX
8
CUT
10
208.8209
20
260.8011
0
VERTEX
8
CUT
10
209.0549
20
260.6619
0
VERTEX
8
CUT
10
209.3027
20
260.5490
0
VERTEX
8
CUT
10
210.4597
20
260.0960
0
VERTEX
8
CUT
10
210.7230
20
260.0094
0
VERTEX
8
CUT
10
210.9942
20
259.9525
0
VERTEX
8
CUT
10
211.2716
20
259.9102
0
VERTEX
8
CUT
10
211.5008
20
259.8860
0
VERTEX
8
CUT
10
211.7314
20
259.8830
0
VERTEX
8
CUT
10
211.9612
20
259.9013
0
VERTEX
8
CUT
10
212.1068
20
259.9197
0
VERTEX
8
CUT
10
212.2368
20
259.9137
0
VERTEX
8
CUT
10
212.4674
20
259.9244
0
VERTEX
8
CUT
10
212.8869
20
259.9633
0
VERTEX
8
CUT
10
213.1009
20
259.9925
0
VERTEX
8
CUT
10
213.3116
20
260.0401
0
VERTEX
8
CUT
10
213.4751
20
260.0922
0
VERTEX
8
CUT
10
213.8698
20
260.1420
0
VERTEX
8
CUT
10
214.0945
20
260.1808
0
VERTEX
8
CUT
10
214.3147
20
260.2399
0
VERTEX
8
CUT
10
214.5286
20
260.3189
0
VERTEX
8
CUT
10
214.7345
20
260.4170
0
VERTEX
8
CUT
10
216.0214
20
261.1040
0
VERTEX
8
CUT
10
216.2552
20
261.2458
0
VERTEX
8
CUT
10
216.4720
20
261.4122
0
VERTEX
8
CUT
10
216.6694
20
261.6012
0
VERTEX
8
CUT
10
217.5643
20
262.5575
0
VERTEX
8
CUT
10
217.7460
20
262.7753
0
VERTEX
8
CUT
10
217.9019
20
263.0122
0
VERTEX
8
CUT
10
218.0300
20
263.2653
0
VERTEX
8
CUT
10
218.0927
20
263.4090
0
VERTEX
8
CUT
10
218.3791
20
263.9177
0
VERTEX
8
CUT
10
218.4725
20
264.1005
0
VERTEX
8
CUT
10
218.5504
20
264.2904
0
VERTEX
8
CUT
10
218.6126
20
264.4861
0
VERTEX
8
CUT
10
218.8336
20
265.2959
0
VERTEX
8
CUT
10
218.8899
20
265.5561
0
VERTEX
8
CUT
10
218.9182
20
265.8207
0
VERTEX
8
CUT
10
218.9693
20
266.7769
0
VERTEX
8
CUT
10
218.9696
20
267.0390
0
VERTEX
8
CUT
10
218.9424
20
267.2997
0
VERTEX
8
CUT
10
218.8257
20
268.0394
0
VERTEX
8
CUT
10
218.7739
20
268.2865
0
VERTEX
8
CUT
10
218.6974
20
268.5271
0
VERTEX
8
CUT
10
218.5970
20
268.7587
0
VERTEX
8
CUT
10
218.4737
20
268.9791
0
VERTEX
8
CUT
10
218.3289
20
269.1858
0
VERTEX
8
CUT
10
218.1639
20
269.3770
0
VERTEX
8
CUT
10
217.9805
20
269.5505
0
VERTEX
8
CUT
10
217.7806
20
269.7046
0
VERTEX
8
CUT
10
217.5661
20
269.8378
0
VERTEX
8
CUT
10
217.3393
20
269.9486
0
VERTEX
8
CUT
10
217.1024
20
270.0361
0
VERTEX
8
CUT
10
216.8580
20
270.0991
0
VERTEX
8
CUT
10
216.6084
20
270.1373
0
VERTEX
8
CUT
10
216.3563
20
270.1500
0
VERTEX
8
CUT
10
216.3033
20
270.1500
0
VERTEX
8
CUT
10
216.2456
20
270.1500
0
VERTEX
8
CUT
10
216.1450
20
270.1500
0
VERTEX
8
CUT
10
216.1035
20
270.1500
0
VERTEX
8
CUT
10
208.3295
20
270.1500
0
VERTEX
8
CUT
10
208.1909
20
270.1500
0
VERTEX
8
CUT
10
208.1278
20
270.1500
0
VERTEX
8
CUT
10
208.1110
20
270.1500
0
VERTEX
8
CUT
10
208.0318
20
270.1500
0
VERTEX
8
CUT
10
207.7919
20
270.1385
0
VERTEX
8
CUT
10
207.5542
20
270.1039
0
VERTEX
8
CUT
10
207.3209
20
270.0468
0
SEQEND
0
POLYLINE
8
CUT
66
1
70
1
10
0.0
20
0.0
30
0.0
0
VERTEX
8
CUT
10
65.8883
20
61.8317
0
VERTEX
8
CUT
10
65.9011
20
61.5293
0
VERTEX
8
CUT
10
65.9504
20
61.2306
0
VERTEX
8
CUT
10
66.0810
20
60.6572
0
VERTEX
8
CUT
10
66.1347
20
60.4597
0
VERTEX
8
CUT
10
66.2043
20
60.2672
0
VERTEX
8
CUT
10
66.2894
20
60.0811
0
VERTEX
8
CUT
10
66.9607
20
58.7588
0
VERTEX
8
CUT
10
67.0655
20
58.5727
0
VERTEX
8
CUT
10
67.1858
20
58.3961
0
VERTEX
8
CUT
10
67.3207
20
58.2304
0
VERTEX
8
CUT
10
67.8394
20
57.6465
0
VERTEX
8
CUT
10
68.0001
20
57.4815
0
VERTEX
8
CUT
10
68.1754
20
57.3320
0
VERTEX
8
CUT
10
68.7515
20
56.8847
0
VERTEX
8
CUT
10
68.9956
20
56.7173
0
VERTEX
8
CUT
10
69.2578
20
56.5800
0
VERTEX
8
CUT
10
69.8330
20
56.3209
0
VERTEX
8
CUT
10
70.0860
20
56.2231
0
VERTEX
8
CUT
10
70.3482
20
56.1532
0
VERTEX
8
CUT
10
70.9795
20
56.0212
0
VERTEX
8
CUT
10
71.2619
20
55.9789
0
VERTEX
8
CUT
10
71.5474
20
55.9690
0
VERTEX
8
CUT
10
72.1946
20
55.9835
0
VERTEX
8
CUT
10
72.4650
20
56.0043
0
VERTEX
8
CUT
10
72.7315
20
56.0543
0
VERTEX
8
CUT
10
73.4585
20
56.2319
0
VERTEX
8
CUT
10
73.7047
20
56.3056
0
VERTEX
8
CUT
10
73.9420
20
56.4042
0
VERTEX
8
CUT
10
74.7006
20
56.7662
0
VERTEX
8
CUT
10
74.9232
20
56.8866
0
VERTEX
8
CUT
10
75.1324
20
57.0289
0
VERTEX
8
CUT
10
75.6568
20
57.4257
0
VERTEX
8
CUT
10
75.8427
20
57.5811
0
VERTEX
8
CUT
10
76.0127
20
57.7538
0
VERTEX
8
CUT
10
76.1652
20
57.9422
0
VERTEX
8
CUT
10
77.0747
20
59.1841
0
VERTEX
8
CUT
10
77.2179
20
59.4028
0
VERTEX
8
CUT
10
77.3375
20
59.6352
0
VERTEX
8
CUT
10
77.4322
20
59.8789
0
VERTEX
8
CUT
10
77.5009
20
60.1311
0
VERTEX
8
CUT
10
77.8033
20
61.5249
0
VERTEX
8
CUT
10
77.8447
20
61.7770
0
VERTEX
8
CUT
10
77.8601
20
62.0321
0
VERTEX
8
CUT
10
77.8494
20
62.2874
0
VERTEX
8
CUT
10
77.8024
20
62.7908
0
VERTEX
8
CUT
10
77.7601
20
63.0707
0
VERTEX
8
CUT
10
77.6865
20
63.3441
0
VERTEX
8
CUT
10
77.4931
20
63.9285
0
VERTEX
8
CUT
10
77.3874
20
64.1953
0
VERTEX
8
CUT
10
77.2519
20
64.4482
0
VERTEX
8
CUT
10
76.3896
20
65.8568
0
VERTEX
8
CUT
10
76.2530
20
66.0572
0
VERTEX
8
CUT
10
76.0977
20
66.2435
0
VERTEX
8
CUT
10
75.9282
20
66.4279
0
VERTEX
8
CUT
10
75.7157
20
66.6332
0
VERTEX
8
CUT
10
75.4805
20
66.8120
0
VERTEX
8
CUT
10
74.9707
20
67.1540
0
VERTEX
8
CUT
10
74.7752
20
67.2725
0
VERTEX
8
CUT
10
74.5696
20
67.3728
0
VERTEX
8
CUT
10
74.3557
20
67.4538
0
VERTEX
8
CUT
10
74.1353
20
67.5149
0
VERTEX
8
CUT
10
72.8132
20
67.8172
0
VERTEX
8
CUT
10
72.5470
20
67.8631
0
VERTEX
8
CUT
10
72.2774
20
67.8800
0
VERTEX
8
CUT
10
72.0075
20
67.8677
0
VERTEX
8
CUT
10
71.8638
20
67.8533
0
VERTEX
8
CUT
10
71.3334
20
67.8701
0
VERTEX
8
CUT
10
71.0331
20
67.8615
0
VERTEX
8
CUT
10
70.7360
20
67.8170
0
VERTEX
8
CUT
10
70.5275
20
67.7728
0
VERTEX
8
CUT
10
70.3274
20
67.7216
0
VERTEX
8
CUT
10
70.1943
20
67.6756
0
VERTEX
8
CUT
10
70.1591
20
67.6703
0
VERTEX
8
CUT
10
69.9150
20
67.6077
0
VERTEX
8
CUT
10
69.6785
20
67.5210
0
VERTEX
8
CUT
10
69.4519
20
67.4108
0
VERTEX
8
CUT
10
68.5040
20
66.8894
0
VERTEX
8
CUT
10
68.2720
20
66.7448
0
VERTEX
8
CUT
10
68.0573
20
66.5757
0
VERTEX
8
CUT
10
67.8622
20
66.3842
0
VERTEX
8
CUT
10
67.6893
20
66.1725
0
VERTEX
8
CUT
10
66.8252
20
64.9882
0
VERTEX
8
CUT
10
66.6926
20
64.7867
0
VERTEX
8
CUT
10
66.5801
20
64.5735
0
VERTEX
8
CUT
10
66.4886
20
64.3503
0
VERTEX
8
CUT
10
66.4115
20
64.1329
0
VERTEX
8
CUT
10
66.3934
20
64.1002
0
VERTEX
8
CUT
10
66.2886
20
63.8871
0
VERTEX
8
CUT
10
66.2045
20
63.6650
0
VERTEX
8
CUT
10
66.1418
20
63.4359
0
VERTEX
8
CUT
10
66.1203
20
63.3119
0
VERTEX
8
CUT
10
66.0401
20
63.0859
0
VERTEX
8
CUT
10
65.9640
20
62.8281
0
VERTEX
8
CUT
10
65.9160
20
62.5638
0
VERTEX
8
CUT
10
65.8967
20
62.2957
0
SEQEND
0
POLYLINE
8
CUT
66
1
70
1
10
0.0
20
0.0
30
0.0
0
VERTEX
8
CUT
10
60.1392
20
105.7664
0
VERTEX
8
CUT
10
60.1435
20
105.6734
0
VERTEX
8
CUT
10
60.1645
20
105.4465
0
VERTEX
8
CUT
10
60.2061
20
105.2224
0
VERTEX
8
CUT
10
60.2558
20
105.0463
0
VERTEX
8
CUT
10
60.3001
20
104.7727
0
VERTEX
8
CUT
10
60.3456
20
104.5539
0
VERTEX
8
CUT
10
60.4106
20
104.3399
0
VERTEX
8
CUT
10
60.4944
20
104.1326
0
VERTEX
8
CUT
10
60.7619
20
103.5477
0
VERTEX
8
CUT
10
60.8703
20
103.3374
0
VERTEX
8
CUT
10
60.9982
20
103.1383
0
VERTEX
8
CUT
10
61.5018
20
102.4304
0
VERTEX
8
CUT
10
61.5710
20
102.3256
0
VERTEX
8
CUT
10
61.6968
20
102.1519
0
VERTEX
8
CUT
10
61.8370
20
101.9896
0
VERTEX
8
CUT
10
61.9906
20
101.8399
0
VERTEX
8
CUT
10
62.0233
20
101.8106
0
VERTEX
8
CUT
10
62.4159
20
101.3728
0
VERTEX
8
CUT
10
62.5790
20
101.2070
0
VERTEX
8
CUT
10
62.7569
20
101.0570
0
VERTEX
8
CUT
10
63.8433
20
100.2246
0
VERTEX
8
CUT
10
64.0597
20
100.0762
0
VERTEX
8
CUT
10
64.2904
20
99.9513
0
VERTEX
8
CUT
10
64.5329
20
99.8512
0
VERTEX
8
CUT
10
64.7846
20
99.7771
0
VERTEX
8
CUT
10
66.2733
20
99.4226
0
VERTEX
8
CUT
10
66.5332
20
99.3751
0
VERTEX
8
CUT
10
66.7966
20
99.3552
0
VERTEX
8
CUT
10
67.0606
20
99.3633
0
VERTEX
8
CUT
10
69.0460
20
99.5291
0
VERTEX
8
CUT
10
69.2847
20
99.5607
0
VERTEX
8
CUT
10
69.5193
20
99.6151
0
VERTEX
8
CUT
10
69.7476
20
99.6918
0
VERTEX
8
CUT
10
70.3555
20
99.9293
0
VERTEX
8
CUT
10
70.6196
20
100.0506
0
VERTEX
8
CUT
10
70.8679
20
100.2018
0
VERTEX
8
CUT
10
71.4732
20
100.6205
0
VERTEX
8
CUT
10
71.6426
20
100.7486
0
VERTEX
8
CUT
10
71.8006
20
100.8907
0
VERTEX
8
CUT
10
72.1617
20
101.2444
0
VERTEX
8
CUT
10
72.2070
20
101.2838
0
VERTEX
8
CUT
10
72.2695
20
101.3500
0
VERTEX
8
CUT
10
72.8999
20
101.9675
0
VERTEX
8
CUT
10
73.0638
20
102.1443
0
VERTEX
8
CUT
10
73.2099
20
102.3362
0
VERTEX
8
CUT
10
73.6634
20
102.9950
0
VERTEX
8
CUT
10
73.7833
20
103.1875
0
VERTEX
8
CUT
10
73.8854
20
103.3901
0
VERTEX
8
CUT
10
74.2766
20
104.2631
0
VERTEX
8
CUT
10
74.3763
20
104.5239
0
VERTEX
8
CUT
10
74.4464
20
104.7942
0
VERTEX
8
CUT
10
74.6207
20
105.6640
0
VERTEX
8
CUT
10
74.6572
20
105.9084
0
VERTEX
8
CUT
10
74.6694
20
106.1552
0
VERTEX
8
CUT
10
74.6694
20
107.0514
0
VERTEX
8
CUT
10
74.6573
20
107.2975
0
VERTEX
8
CUT
10
74.6210
20
107.5412
0
VERTEX
8
CUT
10
74.4347
20
108.4736
0
VERTEX
8
CUT
10
74.3808
20
108.6919
0
VERTEX
8
CUT
10
74.3074
20
108.9046
0
VERTEX
8
CUT
10
73.9517
20
109.8025
0
VERTEX
8
CUT
10
73.8484
20
110.0295
0
VERTEX
8
CUT
10
73.7230
20
110.2451
0
VERTEX
8
CUT
10
73.1927
20
111.0602
0
VERTEX
8
CUT
10
73.0700
20
111.2323
0
VERTEX
8
CUT
10
72.9333
20
111.3935
0
VERTEX
8
CUT
10
72.2501
20
112.1328
0
VERTEX
8
CUT
10
72.0606
20
112.3172
0
VERTEX
8
CUT
10
71.8527
20
112.4807
0
VERTEX
8
CUT
10
70.9959
20
113.0835
0
VERTEX
8
CUT
10
70.8100
20
113.2024
0
VERTEX
8
CUT
10
70.6144
20
113.3044
0
VERTEX
8
CUT
10
69.8535
20
113.6595
0
VERTEX
8
CUT
10
69.5942
20
113.7633
0
VERTEX
8
CUT
10
69.3250
20
113.8375
0
VERTEX
8
CUT
10
68.7952
20
113.9522
0
VERTEX
8
CUT
10
68.5701
20
113.9902
0
VERTEX
8
CUT
10
68.3426
20
114.0076
0
VERTEX
8
CUT
10
68.1144
20
114.0041
0
VERTEX
8
CUT
10
65.6115
20
113.8516
0
VERTEX
8
CUT
10
65.3316
20
113.8186
0
VERTEX
8
CUT
10
65.0572
20
113.7544
0
VERTEX
8
CUT
10
64.7918
20
113.6596
0
VERTEX
8
CUT
10
64.4805
20
113.5283
0
VERTEX
8
CUT
10
64.2263
20
113.4036
0
VERTEX
8
CUT
10
63.9878
20
113.2510
0
VERTEX
8
CUT
10
62.6128
20
112.2572
0
VERTEX
8
CUT
10
62.4181
20
112.1011
0
VERTEX
8
CUT
10
62.2400
20
111.9264
0
VERTEX
8
CUT
10
61.5406
20
111.1686
0
VERTEX
8
CUT
10
61.3874
20
110.9858
0
VERTEX
8
CUT
10
61.2524
20
110.7892
0
VERTEX
8
CUT
10
60.8402
20
110.1235
0
VERTEX
8
CUT
10
60.7385
20
109.9428
0
VERTEX
8
CUT
10
60.6520
20
109.7543
0
VERTEX
8
CUT
10
60.5815
20
109.5593
0
VERTEX
8
CUT
10
60.1698
20
108.2537
0
VERTEX
8
CUT
10
60.1040
20
107.9989
0
VERTEX
8
CUT
10
60.0653
20
107.7386
0
VERTEX
8
CUT
10
60.0048
20
107.1032
0
VERTEX
8
CUT
10
59.9937
20
106.8907
0
VERTEX
8
CUT
10
60.0007
20
106.6781
0
VERTEX
8
CUT
10
60.0258
20
106.4668
0
SEQEND
0
POLYLINE
8
CUT
66
1
70
1
10
0.0
20
0.0
30
0.0
0
VERTEX
8
CUT
10
31.3634
20
179.6214
0
VERTEX
8
CUT
10
31.1454
20
179.5149
0
VERTEX
8
CUT
10
30.9387
20
179.3878
0
VERTEX
8
CUT
10
30.7453
20
179.2413
0
VERTEX
8
CUT
10
30.5670
20
179.0767
0
VERTEX
8
CUT
10
30.4055
20
178.8956
0
VERTEX
8
CUT
10
30.2624
20
178.6997
0
VERTEX
8
CUT
10
30.1389
20
178.4909
0
VERTEX
8
CUT
10
30.0362
20
178.2710
0
VERTEX
8
CUT
10
29.9553
20
178.0422
0
VERTEX
8
CUT
10
29.8970
20
177.8067
0
VERTEX
8
CUT
10
29.8618
20
177.5666
0
VERTEX
8
CUT
10
29.8500
20
177.3243
0
VERTEX
8
CUT
10
29.8500
20
177.1257
0
VERTEX
8
CUT
10
29.8500
20
167.6325
0
VERTEX
8
CUT
10
29.8500
20
167.5534
0
VERTEX
8
CUT
10
29.8612
20
167.3170
0
VERTEX
8
CUT
10
29.8947
20
167.0828
0
VERTEX
8
CUT
10
29.9502
20
166.8527
0
VERTEX
8
CUT
10
30.0272
20
166.6289
0
VERTEX
8
CUT
10
30.1250
20
166.4135
0
VERTEX
8
CUT
10
30.2428
20
166.2082
0
VERTEX
8
CUT
10
30.3794
20
166.0150
0
VERTEX
8
CUT
10
30.5337
20
165.8356
0
VERTEX
8
CUT
10
30.7042
20
165.6715
0
VERTEX
8
CUT
10
30.8896
20
165.5243
0
VERTEX
8
CUT
10
31.0880
20
165.3953
0
VERTEX
8
CUT
10
31.2977
20
165.2857
0
VERTEX
8
CUT
10
31.5168
20
165.1963
0
VERTEX
8
CUT
10
31.7434
20
165.1281
0
VERTEX
8
CUT
10
34.0337
20
164.5553
0
VERTEX
8
CUT
10
34.3655
20
164.4957
0
VERTEX
8
CUT
10
45.5922
20
163.2543
0
VERTEX
8
CUT
10
45.7726
20
163.2299
0
VERTEX
8
CUT
10
45.8946
20
163.2104
0
VERTEX
8
CUT
10
46.0736
20
163.1773
0
VERTEX
8
CUT
10
52.5858
20
161.8081
0
VERTEX
8
CUT
10
52.7711
20
161.7643
0
VERTEX
8
CUT
10
52.8961
20
161.7313
0
VERTEX
8
CUT
10
53.0789
20
161.6780
0
VERTEX
8
CUT
10
56.2818
20
160.6564
0
VERTEX
8
CUT
10
56.5186
20
160.5935
0
VERTEX
8
CUT
10
56.7604
20
160.5540
0
VERTEX
8
CUT
10
57.0049
20
160.5384
0
VERTEX
8
CUT
10
57.2498
20
160.5469
0
VERTEX
8
CUT
10
57.4926
20
160.5792
0
VERTEX
8
CUT
10
57.7312
20
160.6352
0
VERTEX
8
CUT
10
57.9631
20
160.7143
0
VERTEX
8
CUT
10
58.1861
20
160.8156
0
VERTEX
8
CUT
10
58.3982
20
160.9383
0
VERTEX
8
CUT
10
58.5972
20
161.0812
0
VERTEX
8
CUT
10
58.7813
20
161.2429
0
VERTEX
8
CUT
10
58.9487
20
161.4219
0
VERTEX
8
CUT
10
59.0978
20
161.6163
0
VERTEX
8
CUT
10
59.2271
20
161.8244
0
VERTEX
8
CUT
10
59.3354
20
162.0442
0
VERTEX
8
CUT
10
59.4217
20
162.2735
0
VERTEX
8
CUT
10
59.4851
20
162.5102
0
VERTEX
8
CUT
10
59.5250
20
162.7519
0
VERTEX
8
CUT
10
59.5411
20
162.9964
0
VERTEX
8
CUT
10
59.5332
20
163.2413
0
VERTEX
8
CUT
10
59.5014
20
163.4842
0
VERTEX
8
CUT
10
59.4459
20
163.7229
0
VERTEX
8
CUT
10
59.3673
20
163.9549
0
VERTEX
8
CUT
10
59.2664
20
164.1782
0
VERTEX
8
CUT
10
59.1441
20
164.3905
0
VERTEX
8
CUT
10
59.0017
20
164.5899
0
VERTEX
8
CUT
10
58.8404
20
164.7743
0
VERTEX
8
CUT
10
58.6618
20
164.9420
0
VERTEX
8
CUT
10
58.4676
20
165.0915
0
VERTEX
8
CUT
10
58.2598
20
165.2212
0
VERTEX
8
CUT
10
53.1301
20
168.0840
0
VERTEX
8
CUT
10
52.9583
20
168.1859
0
VERTEX
8
CUT
10
52.8435
20
168.2582
0
VERTEX
8
CUT
10
52.6774
20
168.3692
0
VERTEX
8
CUT
10
40.2772
20
177.1391
0
VERTEX
8
CUT
10
40.0819
20
177.2641
0
VERTEX
8
CUT
10
38.5257
20
178.1608
0
VERTEX
8
CUT
10
38.3286
20
178.2630
0
VERTEX
8
CUT
10
38.1232
20
178.3473
0
VERTEX
8
CUT
10
34.9437
20
179.4903
0
VERTEX
8
CUT
10
34.7081
20
179.5621
0
VERTEX
8
CUT
10
34.4665
20
179.6104
0
VERTEX
8
CUT
10
33.1629
20
179.8047
0
VERTEX
8
CUT
10
32.9576
20
179.8266
0
VERTEX
8
CUT
10
32.7512
20
179.8316
0
VERTEX
8
CUT
10
32.3068
20
179.8239
0
VERTEX
8
CUT
10
32.0647
20
179.8080
0
VERTEX
8
CUT
10
31.8252
20
179.7686
0
VERTEX
8
CUT
10
31.5907
20
179.7062
0
SEQEND
0
POLYLINE
8
CUT
66
1
70
1
10
0.0
20
0.0
30
0.0
0
VERTEX
8
CUT
10
36.6857
20
136.1075
0
VERTEX
8
CUT
10
36.7167
20
135.8924
0
VERTEX
8
CUT
10
36.7663
20
135.6808
0
VERTEX
8
CUT
10
36.8340
20
135.4743
0
VERTEX
8
CUT
10
37.2053
20
134.4891
0
VERTEX
8
CUT
10
37.2917
20
134.2873
0
VERTEX
8
CUT
10
37.3954
20
134.0938
0
VERTEX
8
CUT
10
37.5157
20
133.9102
0
VERTEX
8
CUT
10
38.1173
20
133.0745
0
VERTEX
8
CUT
10
38.2459
20
132.9107
0
VERTEX
8
CUT
10
38.3876
20
132.7582
0
VERTEX
8
CUT
10
38.5416
20
132.6181
0
VERTEX
8
CUT
10
39.3722
20
131.9227
0
VERTEX
8
CUT
10
39.5487
20
131.7879
0
VERTEX
8
CUT
10
39.7364
20
131.6692
0
VERTEX
8
CUT
10
39.9340
20
131.5677
0
VERTEX
8
CUT
10
40.7692
20
131.1843
0
VERTEX
8
CUT
10
40.9962
20
131.0932
0
VERTEX
8
CUT
10
41.2310
20
131.0248
0
VERTEX
8
CUT
10
41.4714
20
130.9796
0
VERTEX
8
CUT
10
42.4385
20
130.8466
0
VERTEX
8
CUT
10
42.7068
20
130.8243
0
VERTEX
8
CUT
10
42.9760
20
130.8310
0
VERTEX
8
CUT
10
43.2429
20
130.8666
0
VERTEX
8
CUT
10
44.3512
20
131.0758
0
VERTEX
8
CUT
10
44.5845
20
131.1316
0
VERTEX
8
CUT
10
44.8114
20
131.2094
0
VERTEX
8
CUT
10
45.0298
20
131.3087
0
VERTEX
8
CUT
10
45.8529
20
131.7315
0
VERTEX
8
CUT
10
46.0341
20
131.8343
0
VERTEX
8
CUT
10
46.2061
20
131.9519
0
VERTEX
8
CUT
10
46.3677
20
132.0834
0
VERTEX
8
CUT
10
47.0867
20
132.7199
0
VERTEX
8
CUT
10
47.2973
20
132.9299
0
VERTEX
8
CUT
10
47.4814
20
133.1635
0
VERTEX
8
CUT
10
48.0452
20
133.9734
0
VERTEX
8
CUT
10
48.1872
20
134.2028
0
VERTEX
8
CUT
10
48.3036
20
134.4463
0
VERTEX
8
CUT
10
48.6509
20
135.2861
0
VERTEX
8
CUT
10
48.7491
20
135.5712
0
VERTEX
8
CUT
10
48.8123
20
135.8661
0
VERTEX
8
CUT
10
48.9533
20
136.7942
0
VERTEX
8
CUT
10
48.9765
20
137.0098
0
VERTEX
8
CUT
10
48.9810
20
137.2266
0
VERTEX
8
CUT
10
48.9666
20
137.4430
0
VERTEX
8
CUT
10
48.8699
20
138.3221
0
VERTEX
8
CUT
10
48.8196
20
138.6162
0
VERTEX
8
CUT
10
48.7347
20
138.9022
0
VERTEX
8
CUT
10
48.4428
20
139.7057
0
VERTEX
8
CUT
10
48.3611
20
139.9036
0
VERTEX
8
CUT
10
48.2628
20
140.0939
0
VERTEX
8
CUT
10
48.1486
20
140.2750
0
VERTEX
8
CUT
10
47.5953
20
141.0743
0
VERTEX
8
CUT
10
47.4568
20
141.2560
0
VERTEX
8
CUT
10
47.3023
20
141.4244
0
VERTEX
8
CUT
10
47.1330
20
141.5779
0
VERTEX
8
CUT
10
46.6793
20
141.9531
0
VERTEX
8
CUT
10
46.4889
20
142.0959
0
VERTEX
8
CUT
10
46.2857
20
142.2199
0
VERTEX
8
CUT
10
45.4769
20
142.6624
0
VERTEX
8
CUT
10
45.2225
20
142.7834
0
VERTEX
8
CUT
10
44.9561
20
142.8750
0
VERTEX
8
CUT
10
43.4302
20
143.3056
0
VERTEX
8
CUT
10
43.1613
20
143.3658
0
VERTEX
8
CUT
10
42.8873
20
143.3959
0
VERTEX
8
CUT
10
42.6117
20
143.3957
0
VERTEX
8
CUT
10
42.3378
20
143.3652
0
VERTEX
8
CUT
10
41.3936
20
143.2068
0
VERTEX
8
CUT
10
41.1514
20
143.1537
0
VERTEX
8
CUT
10
40.9156
20
143.0769
0
VERTEX
8
CUT
10
40.6887
20
142.9771
0
VERTEX
8
CUT
10
39.5762
20
142.4206
0
VERTEX
8
CUT
10
39.3568
20
142.2967
0
VERTEX
8
CUT
10
39.1511
20
142.1514
0
VERTEX
8
CUT
10
38.7503
20
141.8368
0
VERTEX
8
CUT
10
38.5455
20
141.6573
0
VERTEX
8
CUT
10
38.3615
20
141.4565
0
VERTEX
8
CUT
10
37.5165
20
140.4273
0
VERTEX
8
CUT
10
37.3896
20
140.2587
0
VERTEX
8
CUT
10
37.2774
20
140.0801
0
VERTEX
8
CUT
10
37.1807
20
139.8927
0
VERTEX
8
CUT
10
37.0657
20
139.6446
0
VERTEX
8
CUT
10
36.9676
20
139.4000
0
VERTEX
8
CUT
10
36.8957
20
139.1464
0
VERTEX
8
CUT
10
36.6292
20
137.9729
0
VERTEX
8
CUT
10
36.5839
20
137.7079
0
VERTEX
8
CUT
10
36.5672
20
137.4395
0
VERTEX
8
CUT
10
36.5795
20
137.1708
0
SEQEND
0
POLYLINE
8
CUT
66
1
70
1
10
0.0
20
0.0
30
0.0
0
VERTEX
8
CUT
10
35.9263
20
41.5234
0
VERTEX
8
CUT
10
35.9622
20
41.3065
0
VERTEX
8
CUT
10
36.0170
20
41.0936
0
VERTEX
8
CUT
10
36.0903
20
40.8864
0
VERTEX
8
CUT
10
36.4546
20
39.9847
0
VERTEX
8
CUT
10
36.5393
20
39.7976
0
VERTEX
8
CUT
10
36.6390
20
39.6181
0
VERTEX
8
CUT
10
36.7532
20
39.4473
0
VERTEX
8
CUT
10
37.3402
20
38.6432
0
VERTEX
8
CUT
10
37.4816
20
38.4667
0
VERTEX
8
CUT
10
37.6384
20
38.3038
0
VERTEX
8
CUT
10
37.8093
20
38.1557
0
VERTEX
8
CUT
10
38.7240
20
37.4328
0
VERTEX
8
CUT
10
38.9745
20
37.2586
0
VERTEX
8
CUT
10
39.2443
20
37.1161
0
VERTEX
8
CUT
10
40.4296
20
36.5804
0
VERTEX
8
CUT
10
40.7078
20
36.4741
0
VERTEX
8
CUT
10
40.9967
20
36.4016
0
VERTEX
8
CUT
10
41.4013
20
36.3254
0
VERTEX
8
CUT
10
41.6159
20
36.2946
0
VERTEX
8
CUT
10
41.8324
20
36.2824
0
VERTEX
8
CUT
10
42.0491
20
36.2891
0
VERTEX
8
CUT
10
42.2606
20
36.3048
0
VERTEX
8
CUT
10
42.3784
20
36.3079
0
VERTEX
8
CUT
10
42.6301
20
36.3272
0
VERTEX
8
CUT
10
42.6783
20
36.3358
0
VERTEX
8
CUT
10
42.9091
20
36.3530
0
VERTEX
8
CUT
10
43.1883
20
36.3896
0
VERTEX
8
CUT
10
43.4616
20
36.4574
0
VERTEX
8
CUT
10
44.0043
20
36.6250
0
VERTEX
8
CUT
10
44.1985
20
36.6939
0
VERTEX
8
CUT
10
44.3864
20
36.7785
0
VERTEX
8
CUT
10
44.5667
20
36.8784
0
VERTEX
8
CUT
10
44.7805
20
37.0085
0
VERTEX
8
CUT
10
44.9778
20
37.0861
0
VERTEX
8
CUT
10
45.1811
20
37.1883
0
VERTEX
8
CUT
10
45.3743
20
37.3085
0
VERTEX
8
CUT
10
45.9387
20
37.6964
0
VERTEX
8
CUT
10
46.1001
20
37.8189
0
VERTEX
8
CUT
10
46.1730
20
37.8678
0
VERTEX
8
CUT
10
46.3448
20
38.0067
0
VERTEX
8
CUT
10
46.5038
20
38.1602
0
VERTEX
8
CUT
10
47.1158
20
38.8059
0
VERTEX
8
CUT
10
47.3059
20
39.0317
0
VERTEX
8
CUT
10
47.4680
20
39.2784
0
VERTEX
8
CUT
10
47.8968
20
40.0234
0
VERTEX
8
CUT
10
47.9957
20
40.2136
0
VERTEX
8
CUT
10
48.0780
20
40.4117
0
VERTEX
8
CUT
10
48.1430
20
40.6161
0
VERTEX
8
CUT
10
48.3811
20
41.4939
0
VERTEX
8
CUT
10
48.4400
20
41.7729
0
VERTEX
8
CUT
10
48.4667
20
42.0567
0
VERTEX
8
CUT
10
48.4971
20
42.8862
0
VERTEX
8
CUT
10
48.4919
20
43.1641
0
VERTEX
8
CUT
10
48.4558
20
43.4397
0
VERTEX
8
CUT
10
48.2939
20
44.3011
0
VERTEX
8
CUT
10
48.2461
20
44.5072
0
VERTEX
8
CUT
10
48.1810
20
44.7085
0
VERTEX
8
CUT
10
48.0991
20
44.9036
0
VERTEX
8
CUT
10
47.7319
20
45.6840
0
VERTEX
8
CUT
10
47.6059
20
45.9184
0
VERTEX
8
CUT
10
47.4558
20
46.1382
0
VERTEX
8
CUT
10
47.2831
20
46.3407
0
VERTEX
8
CUT
10
46.9306
20
46.7121
0
VERTEX
8
CUT
10
46.7449
20
46.9628
0
VERTEX
8
CUT
10
46.5832
20
47.1593
0
VERTEX
8
CUT
10
46.4025
20
47.3383
0
VERTEX
8
CUT
10
46.2045
20
47.4980
0
VERTEX
8
CUT
10
46.1407
20
47.5443
0
VERTEX
8
CUT
10
45.8787
20
47.8204
0
VERTEX
8
CUT
10
45.6977
20
47.9929
0
VERTEX
8
CUT
10
45.5004
20
48.1464
0
VERTEX
8
CUT
10
45.2888
20
48.2795
0
VERTEX
8
CUT
10
45.0649
20
48.3908
0
VERTEX
8
CUT
10
43.7057
20
48.9837
0
VERTEX
8
CUT
10
43.4797
20
49.0695
0
VERTEX
8
CUT
10
43.2464
20
49.1331
0
VERTEX
8
CUT
10
43.0080
20
49.1739
0
VERTEX
8
CUT
10
42.5252
20
49.2326
0
VERTEX
8
CUT
10
42.2531
20
49.2507
0
VERTEX
8
CUT
10
41.9807
20
49.2391
0
VERTEX
8
CUT
10
41.5210
20
49.1943
0
VERTEX
8
CUT
10
41.2700
20
49.1569
0
VERTEX
8
CUT
10
41.0241
20
49.0942
0
VERTEX
8
CUT
10
40.7858
20
49.0069
0
VERTEX
8
CUT
10
39.2357
20
48.3481
0
VERTEX
8
CUT
10
39.0259
20
48.2471
0
VERTEX
8
CUT
10
38.8264
20
48.1271
0
VERTEX
8
CUT
10
38.6390
20
47.9891
0
VERTEX
8
CUT
10
38.0855
20
47.5403
0
VERTEX
8
CUT
10
37.8992
20
47.3731
0
VERTEX
8
CUT
10
37.7306
20
47.1882
0
VERTEX
8
CUT
10
37.6329
20
47.0695
0
VERTEX
8
CUT
10
37.5109
20
46.9468
0
VERTEX
8
CUT
10
37.3305
20
46.7442
0
VERTEX
8
CUT
10
37.1730
20
46.5233
0
VERTEX
8
CUT
10
37.1402
20
46.4716
0
VERTEX
8
CUT
10
36.9455
20
46.2352
0
VERTEX
8
CUT
10
36.8087
20
46.0529
0
VERTEX
8
CUT
10
36.6892
20
45.8589
0
VERTEX
8
CUT
10
36.5878
20
45.6549
0
VERTEX
8
CUT
10
36.1504
20
44.6638
0
VERTEX
8
CUT
10
36.0694
20
44.4557
0
VERTEX
8
CUT
10
36.0074
20
44.2411
0
VERTEX
8
CUT
10
35.9647
20
44.0219
0
VERTEX
8
CUT
10
35.8266
20
43.0924
0
VERTEX
8
CUT
10
35.8037
20
42.8707
0
VERTEX
8
CUT
10
35.8006
20
42.6478
0
VERTEX
8
CUT
10
35.8174
20
42.4255
0
SEQEND
0
POLYLINE
8
CUT
66
1
70
1
10
0.0
20
0.0
30
0.0
0
VERTEX
8
CUT
10
36.3809
20
258.6847
0
VERTEX
8
CUT
10
36.4763
20
258.4804
0
VERTEX
8
CUT
10
37.0321
20
257.4173
0
VERTEX
8
CUT
10
37.1678
20
257.1884
0
VERTEX
8
CUT
10
37.3271
20
256.9751
0
VERTEX
8
CUT
10
37.5081
20
256.7800
0
VERTEX
8
CUT
10
37.8856
20
256.4144
0
VERTEX
8
CUT
10
38.0725
20
256.2506
0
VERTEX
8
CUT
10
38.2747
20
256.1061
0
VERTEX
8
CUT
10
38.8053
20
255.7655
0
VERTEX
8
CUT
10
39.0344
20
255.6350
0
VERTEX
8
CUT
10
39.2759
20
255.5294
0
VERTEX
8
CUT
10
39.5271
20
255.4498
0
VERTEX
8
CUT
10
39.5998
20
255.4309
0
VERTEX
8
CUT
10
39.6708
20
255.4022
0
VERTEX
8
CUT
10
39.9641
20
255.3231
0
VERTEX
8
CUT
10
40.2061
20
255.2734
0
VERTEX
8
CUT
10
40.2689
20
255.2571
0
VERTEX
8
CUT
10
40.4837
20
255.2113
0
VERTEX
8
CUT
10
40.5462
20
255.2036
0
VERTEX
8
CUT
10
40.5653
20
255.1997
0
VERTEX
8
CUT
10
40.7944
20
255.1636
0
VERTEX
8
CUT
10
41.0259
20
255.1490
0
VERTEX
8
CUT
10
41.2577
20
255.1558
0
VERTEX
8
CUT
10
41.9466
20
255.2082
0
VERTEX
8
CUT
10
42.2410
20
255.2483
0
VERTEX
8
CUT
10
42.5286
20
255.3231
0
VERTEX
8
CUT
10
42.5548
20
255.3316
0
VERTEX
8
CUT
10
42.6694
20
255.3479
0
VERTEX
8
CUT
10
42.8855
20
255.3987
0
VERTEX
8
CUT
10
43.0962
20
255.4684
0
VERTEX
8
CUT
10
43.2999
20
255.5565
0
VERTEX
8
CUT
10
43.4950
20
255.6623
0
VERTEX
8
CUT
10
43.4985
20
255.6644
0
VERTEX
8
CUT
10
43.6286
20
255.7286
0
VERTEX
8
CUT
10
43.8332
20
255.8553
0
VERTEX
8
CUT
10
43.9536
20
255.9381
0
VERTEX
8
CUT
10
44.3251
20
256.1615
0
VERTEX
8
CUT
10
44.5305
20
256.2993
0
VERTEX
8
CUT
10
44.7212
20
256.4566
0
VERTEX
8
CUT
10
44.8954
20
256.6320
0
VERTEX
8
CUT
10
45.0515
20
256.8238
0
VERTEX
8
CUT
10
45.2711
20
257.1227
0
VERTEX
8
CUT
10
45.4260
20
257.3156
0
VERTEX
8
CUT
10
45.5678
20
257.5107
0
VERTEX
8
CUT
10
45.6146
20
257.5903
0
VERTEX
8
CUT
10
45.6882
20
257.6906
0
VERTEX
8
CUT
10
45.8346
20
257.9139
0
VERTEX
8
CUT
10
45.9563
20
258.1515
0
VERTEX
8
CUT
10
46.0520
20
258.4008
0
VERTEX
8
CUT
10
46.1205
20
258.6588
0
VERTEX
8
CUT
10
46.3578
20
259.7933
0
VERTEX
8
CUT
10
46.3951
20
260.0255
0
VERTEX
8
CUT
10
46.4104
20
260.2602
0
VERTEX
8
CUT
10
46.4036
20
260.4953
0
VERTEX
8
CUT
10
46.3747
20
260.7288
0
VERTEX
8
CUT
10
46.2271
20
261.5868
0
VERTEX
8
CUT
10
46.1671
20
261.8499
0
VERTEX
8
CUT
10
46.0791
20
262.1050
0
VERTEX
8
CUT
10
45.9641
20
262.3491
0
VERTEX
8
CUT
10
45.5778
20
263.0659
0
VERTEX
8
CUT
10
45.4306
20
263.3057
0
VERTEX
8
CUT
10
45.2573
20
263.5275
0
VERTEX
8
CUT
10
45.0602
20
263.7284
0
VERTEX
8
CUT
10
44.4765
20
264.2599
0
VERTEX
8
CUT
10
44.2818
20
264.4200
0
VERTEX
8
CUT
10
44.0719
20
264.5597
0
VERTEX
8
CUT
10
43.8491
20
264.6775
0
VERTEX
8
CUT
10
43.1270
20
265.0139
0
VERTEX
8
CUT
10
42.9282
20
265.0963
0
VERTEX
8
CUT
10
42.7231
20
265.1613
0
VERTEX
8
CUT
10
42.5131
20
265.2084
0
VERTEX
8
CUT
10
41.7635
20
265.3430
0
VERTEX
8
CUT
10
41.5053
20
265.3757
0
VERTEX
8
CUT
10
41.2451
20
265.3812
0
VERTEX
8
CUT
10
40.9857
20
265.3597
0
VERTEX
8
CUT
10
40.1604
20
265.2478
0
VERTEX
8
CUT
10
39.9045
20
265.1995
0
VERTEX
8
CUT
10
39.6551
20
265.1247
0
VERTEX
8
CUT
10
39.4147
20
265.0245
0
VERTEX
8
CUT
10
38.7036
20
264.6832
0
VERTEX
8
CUT
10
38.4570
20
264.5473
0
VERTEX
8
CUT
10
38.2273
20
264.3846
0
VERTEX
8
CUT
10
38.0174
20
264.1970
0
VERTEX
8
CUT
10
37.3429
20
263.5226
0
VERTEX
8
CUT
10
37.1988
20
263.3657
0
VERTEX
8
CUT
10
37.0686
20
263.1970
0
VERTEX
8
CUT
10
36.9533
20
263.0179
0
VERTEX
8
CUT
10
36.6600
20
262.5170
0
VERTEX
8
CUT
10
36.5357
20
262.2755
0
VERTEX
8
CUT
10
36.4384
20
262.0219
0
VERTEX
8
CUT
10
36.2783
20
261.5261
0
VERTEX
8
CUT
10
36.2062
20
261.2497
0
VERTEX
8
CUT
10
36.1661
20
260.9669
0
VERTEX
8
CUT
10
36.1586
20
260.6814
0
VERTEX
8
CUT
10
36.1929
20
259.5620
0
VERTEX
8
CUT
10
36.2100
20
259.3372
0
VERTEX
8
CUT
10
36.2472
20
259.1148
0
VERTEX
8
CUT
10
36.3044
20
258.8967
0
SEQEND
0
POLYLINE
8
CUT
66
1
70
1
10
0.0
20
0.0
30
0.0
0
VERTEX
8
CUT
10
30.6096
20
220.7205
0
VERTEX
8
CUT
10
30.4389
20
220.5376
0
VERTEX
8
CUT
10
30.2874
20
220.3386
0
VERTEX
8
CUT
10
30.1566
20
220.1254
0
VERTEX
8
CUT
10
30.0477
20
219.9003
0
VERTEX
8
CUT
10
29.9619
20
219.6653
0
VERTEX
8
CUT
10
29.8999
20
219.4230
0
VERTEX
8
CUT
10
29.8625
20
219.1757
0
VERTEX
8
CUT
10
29.8500
20
218.9259
0
VERTEX
8
CUT
10
29.8500
20
218.8746
0
VERTEX
8
CUT
10
29.8500
20
218.8308
0
VERTEX
8
CUT
10
29.8500
20
218.8151
0
VERTEX
8
CUT
10
29.8500
20
218.6590
0
VERTEX
8
CUT
10
29.8500
20
209.5319
0
VERTEX
8
CUT
10
29.8500
20
209.5269
0
VERTEX
8
CUT
10
29.8500
20
209.4329
0
VERTEX
8
CUT
10
29.8500
20
209.3559
0
VERTEX
8
CUT
10
29.8500
20
209.2538
0
VERTEX
8
CUT
10
29.8620
20
209.0092
0
VERTEX
8
CUT
10
29.8979
20
208.7670
0
VERTEX
8
CUT
10
29.9573
20
208.5294
0
VERTEX
8
CUT
10
30.0396
20
208.2987
0
VERTEX
8
CUT
10
30.1442
20
208.0773
0
VERTEX
8
CUT
10
30.2699
20
207.8671
0
VERTEX
8
CUT
10
30.4156
20
207.6702
0
VERTEX
8
CUT
10
30.5798
20
207.4885
0
VERTEX
8
CUT
10
30.7610
20
207.3238
0
VERTEX
8
CUT
10
30.9575
20
207.1776
0
VERTEX
8
CUT
10
31.1673
20
207.0513
0
VERTEX
8
CUT
10
31.3885
20
206.9461
0
VERTEX
8
CUT
10
31.6471
20
206.8384
0
VERTEX
8
CUT
10
31.8546
20
206.7625
0
VERTEX
8
CUT
10
32.0681
20
206.7052
0
VERTEX
8
CUT
10
32.2857
20
206.6670
0
VERTEX
8
CUT
10
32.9876
20
206.5756
0
VERTEX
8
CUT
10
33.2281
20
206.5561
0
VERTEX
8
CUT
10
33.4694
20
206.5598
0
VERTEX
8
CUT
10
34.3013
20
206.6128
0
VERTEX
8
CUT
10
34.5327
20
206.6384
0
VERTEX
8
CUT
10
34.7606
20
206.6854
0
VERTEX
8
CUT
10
35.6224
20
206.9054
0
VERTEX
8
CUT
10
35.8414
20
206.9721
0
VERTEX
8
CUT
10
36.0533
20
207.0586
0
VERTEX
8
CUT
10
37.0249
20
207.5078
0
VERTEX
8
CUT
10
37.2871
20
207.6486
0
VERTEX
8
CUT
10
37.5307
20
207.8195
0
VERTEX
8
CUT
10
38.3382
20
208.4609
0
VERTEX
8
CUT
10
38.5160
20
208.6164
0
VERTEX
8
CUT
10
38.6784
20
208.7881
0
VERTEX
8
CUT
10
38.9940
20
209.1549
0
VERTEX
8
CUT
10
39.1227
20
209.2797
0
VERTEX
8
CUT
10
39.2834
20
209.4700
0
VERTEX
8
CUT
10
39.6397
20
209.9374
0
VERTEX
8
CUT
10
39.7510
20
210.0957
0
VERTEX
8
CUT
10
39.8497
20
210.2621
0
VERTEX
8
CUT
10
40.0962
20
210.7171
0
VERTEX
8
CUT
10
40.2215
20
210.9850
0
VERTEX
8
CUT
10
40.2320
20
211.0168
0
VERTEX
8
CUT
10
40.3033
20
211.1600
0
VERTEX
8
CUT
10
40.3924
20
211.3961
0
VERTEX
8
CUT
10
40.7128
20
212.3951
0
VERTEX
8
CUT
10
40.7776
20
212.6387
0
VERTEX
8
CUT
10
40.8175
20
212.8875
0
VERTEX
8
CUT
10
40.9306
20
213.9239
0
VERTEX
8
CUT
10
40.9453
20
214.1732
0
VERTEX
8
CUT
10
40.9350
20
214.4227
0
VERTEX
8
CUT
10
40.8449
20
215.4084
0
VERTEX
8
CUT
10
40.8008
20
215.6998
0
VERTEX
8
CUT
10
40.7227
20
215.9840
0
VERTEX
8
CUT
10
40.4177
20
216.8833
0
VERTEX
8
CUT
10
40.3017
20
217.1666
0
VERTEX
8
CUT
10
40.1521
20
217.4336
0
VERTEX
8
CUT
10
39.6697
20
218.1827
0
VERTEX
8
CUT
10
39.5513
20
218.3509
0
VERTEX
8
CUT
10
39.4532
20
218.4684
0
VERTEX
8
CUT
10
39.2388
20
218.7703
0
VERTEX
8
CUT
10
39.0479
20
219.0070
0
VERTEX
8
CUT
10
38.8298
20
219.2188
0
VERTEX
8
CUT
10
38.5614
20
219.4494
0
VERTEX
8
CUT
10
38.4804
20
219.5316
0
VERTEX
8
CUT
10
38.3267
20
219.6644
0
VERTEX
8
CUT
10
38.1200
20
219.8286
0
VERTEX
8
CUT
10
37.7667
20
220.1321
0
VERTEX
8
CUT
10
37.5608
20
220.2912
0
VERTEX
8
CUT
10
37.4577
20
220.3549
0
VERTEX
8
CUT
10
37.0919
20
220.6456
0
VERTEX
8
CUT
10
36.9119
20
220.7760
0
VERTEX
8
CUT
10
36.7210
20
220.8899
0
VERTEX
8
CUT
10
36.5208
20
220.9865
0
VERTEX
8
CUT
10
36.3127
20
221.0648
0
VERTEX
8
CUT
10
35.3668
20
221.3737
0
VERTEX
8
CUT
10
35.1595
20
221.4317
0
VERTEX
8
CUT
10
34.9480
20
221.4716
0
VERTEX
8
CUT
10
34.7339
20
221.4932
0
VERTEX
8
CUT
10
34.5187
20
221.4962
0
VERTEX
8
CUT
10
34.3615
20
221.4917
0
VERTEX
8
CUT
10
33.6397
20
221.5420
0
VERTEX
8
CUT
10
33.3757
20
221.5465
0
VERTEX
8
CUT
10
33.1126
20
221.5230
0
VERTEX
8
CUT
10
32.5218
20
221.4387
0
VERTEX
8
CUT
10
32.2971
20
221.4322
0
VERTEX
8
CUT
10
32.0142
20
221.4079
0
VERTEX
8
CUT
10
31.7359
20
221.3517
0
VERTEX
8
CUT
10
31.4658
20
221.2643
0
VERTEX
8
CUT
10
31.4467
20
221.2570
0
VERTEX
8
CUT
10
31.2183
20
221.1550
0
VERTEX
8
CUT
10
31.0012
20
221.0308
0
VERTEX
8
CUT
10
30.7976
20
220.8855
0
SEQEND
0
POLYLINE
8
CUT
66
1
70
1
10
0.0
20
0.0
30
0.0
0
VERTEX
8
CUT
10
31.3343
20
96.0349
0
VERTEX
8
CUT
10
31.3564
20
95.7950
0
VERTEX
8
CUT
10
31.4236
20
95.3174
0
VERTEX
8
CUT
10
31.4627
20
95.1058
0
VERTEX
8
CUT
10
31.5198
20
94.8985
0
VERTEX
8
CUT
10
31.5946
20
94.6968
0
VERTEX
8
CUT
10
31.6249
20
94.6326
0
VERTEX
8
CUT
10
31.6919
20
94.4447
0
VERTEX
8
CUT
10
31.7926
20
94.2293
0
VERTEX
8
CUT
10
31.9133
20
94.0245
0
VERTEX
8
CUT
10
32.0101
20
93.8768
0
VERTEX
8
CUT
10
32.1431
20
93.6927
0
VERTEX
8
CUT
10
32.2922
20
93.5215
0
VERTEX
8
CUT
10
32.4563
20
93.3644
0
VERTEX
8
CUT
10
32.8192
20
93.0474
0
VERTEX
8
CUT
10
33.0345
20
92.8792
0
VERTEX
8
CUT
10
33.2667
20
92.7355
0
VERTEX
8
CUT
10
33.3150
20
92.7092
0
VERTEX
8
CUT
10
33.4097
20
92.6398
0
VERTEX
8
CUT
10
33.6313
20
92.5102
0
VERTEX
8
CUT
10
33.8651
20
92.4041
0
VERTEX
8
CUT
10
33.8888
20
92.3961
0
VERTEX
8
CUT
10
34.2190
20
92.2160
0
VERTEX
8
CUT
10
34.4275
20
92.1145
0
VERTEX
8
CUT
10
34.6446
20
92.0328
0
VERTEX
8
CUT
10
34.8683
20
91.9715
0
VERTEX
8
CUT
10
35.0967
20
91.9312
0
VERTEX
8
CUT
10
35.3278
20
91.9123
0
VERTEX
8
CUT
10
35.5597
20
91.9148
0
VERTEX
8
CUT
10
35.7904
20
91.9389
0
VERTEX
8
CUT
10
36.0179
20
91.9842
0
VERTEX
8
CUT
10
36.2402
20
92.0504
0
VERTEX
8
CUT
10
36.7071
20
92.2134
0
VERTEX
8
CUT
10
36.9611
20
92.3181
0
VERTEX
8
CUT
10
37.1295
20
92.4102
0
VERTEX
8
CUT
10
37.3230
20
92.4871
0
VERTEX
8
CUT
10
37.5327
20
92.5819
0
VERTEX
8
CUT
10
37.7328
20
92.6955
0
VERTEX
8
CUT
10
37.9216
20
92.8270
0
VERTEX
8
CUT
10
37.9463
20
92.8459
0
VERTEX
8
CUT
10
38.1432
20
93.0139
0
VERTEX
8
CUT
10
38.3217
20
93.2014
0
VERTEX
8
CUT
10
38.3529
20
93.2418
0
VERTEX
8
CUT
10
38.4647
20
93.3561
0
VERTEX
8
CUT
10
38.6157
20
93.5436
0
VERTEX
8
CUT
10
38.9743
20
94.0356
0
VERTEX
8
CUT
10
39.1215
20
94.2624
0
VERTEX
8
CUT
10
39.2434
20
94.5038
0
VERTEX
8
CUT
10
39.3385
20
94.7570
0
VERTEX
8
CUT
10
39.4056
20
95.0189
0
VERTEX
8
CUT
10
39.5461
20
95.7231
0
VERTEX
8
CUT
10
39.5817
20
95.9599
0
VERTEX
8
CUT
10
39.5944
20
96.1991
0
VERTEX
8
CUT
10
39.5842
20
96.4383
0
VERTEX
8
CUT
10
39.5511
20
96.6755
0
VERTEX
8
CUT
10
39.4073
20
97.4383
0
VERTEX
8
CUT
10
39.3443
20
97.6962
0
VERTEX
8
CUT
10
39.2543
20
97.9460
0
VERTEX
8
CUT
10
39.1383
20
98.1849
0
VERTEX
8
CUT
10
38.9977
20
98.4100
0
VERTEX
8
CUT
10
38.7222
20
98.8030
0
VERTEX
8
CUT
10
38.5871
20
98.9787
0
VERTEX
8
CUT
10
38.4369
20
99.1417
0
VERTEX
8
CUT
10
38.2729
20
99.2907
0
VERTEX
8
CUT
10
38.0964
20
99.4247
0
VERTEX
8
CUT
10
37.9086
20
99.5425
0
VERTEX
8
CUT
10
37.1652
20
99.9643
0
VERTEX
8
CUT
10
36.9337
20
100.0801
0
VERTEX
8
CUT
10
36.6916
20
100.1715
0
VERTEX
8
CUT
10
36.4413
20
100.2373
0
VERTEX
8
CUT
10
36.1855
20
100.2768
0
VERTEX
8
CUT
10
35.5718
20
100.3395
0
VERTEX
8
CUT
10
35.3453
20
100.3523
0
VERTEX
8
CUT
10
35.1185
20
100.3444
0
VERTEX
8
CUT
10
34.8934
20
100.3161
0
VERTEX
8
CUT
10
34.6718
20
100.2675
0
VERTEX
8
CUT
10
34.0311
20
100.0960
0
VERTEX
8
CUT
10
33.8220
20
100.0301
0
VERTEX
8
CUT
10
33.6195
20
99.9462
0
VERTEX
8
CUT
10
33.4251
20
99.8448
0
VERTEX
8
CUT
10
33.2403
20
99.7268
0
VERTEX
8
CUT
10
32.7202
20
99.3614
0
VERTEX
8
CUT
10
32.5375
20
99.2200
0
VERTEX
8
CUT
10
32.3686
20
99.0624
0
VERTEX
8
CUT
10
32.2150
20
98.8899
0
VERTEX
8
CUT
10
32.0780
20
98.7039
0
VERTEX
8
CUT
10
31.8950
20
98.4298
0
VERTEX
8
CUT
10
31.7596
20
98.2016
0
VERTEX
8
CUT
10
31.6490
20
97.9602
0
VERTEX
8
CUT
10
31.5648
20
97.7085
0
VERTEX
8
CUT
10
31.5076
20
97.4492
0
VERTEX
8
CUT
10
31.4337
20
97.0016
0
VERTEX
8
CUT
10
31.4309
20
96.9878
0
VERTEX
8
CUT
10
31.4260
20
96.9553
0
VERTEX
8
CUT
10
31.3714
20
96.6246
0
VERTEX
8
CUT
10
31.3446
20
96.3992
0
VERTEX
8
CUT
10
31.3433
20
96.3525
0
VERTEX
8
CUT
10
31.3355
20
96.2758
0
SEQEND
0
ENDSEC
0
EOF
