0
SECTION
2
HEADER
9
$ACADVER
1
AC1009
9
$INSUNITS
70
4
0
ENDSEC
0
SECTION
2
TABLES
0
TABLE
2
LAYER
70
1
0
LAYER
2
CUT
70
0
62
7
6
CONTINUOUS
0
ENDTAB
0
ENDSEC
0
SECTION
2
ENTITIES
0
POLYLINE
8
CUT
66
1
70
1
10
0.0
20
0.0
30
0.0
0
VERTEX
8
CUT
10
-0.1500
20
297.5886
0
VERTEX
8
CUT
10
-0.1350
20
297.8947
0
VERTEX
8
CUT
10
-0.0990
20
298.1371
0
VERTEX
8
CUT
10
-0.0395
20
298.3748
0
VERTEX
8
CUT
10
0.0431
20
298.6056
0
VERTEX
8
CUT
10
0.1479
20
298.8271
0
VERTEX
8
CUT
10
0.2738
20
299.0373
0
VERTEX
8
CUT
10
0.4198
20
299.2341
0
VERTEX
8
CUT
10
0.5844
20
299.4156
0
VERTEX
8
CUT
10
0.7659
20
299.5802
0
VERTEX
8
CUT
10
0.9627
20
299.7262
0
VERTEX
8
CUT
10
1.1729
20
299.8521
0
VERTEX
8
CUT
10
1.3944
20
299.9569
0
VERTEX
8
CUT
10
1.6252
20
300.0395
0
VERTEX
8
CUT
10
1.8629
20
300.0990
0
VERTEX
8
CUT
10
2.1053
20
300.1350
0
VERTEX
8
CUT
10
2.4114
20
300.1500
0
VERTEX
8
CUT
10
297.5872
20
300.1500
0
VERTEX
8
CUT
10
297.8933
20
300.1350
0
VERTEX
8
CUT
10
298.1357
20
300.0990
0
VERTEX
8
CUT
10
298.3734
20
300.0395
0
VERTEX
8
CUT
10
298.6041
20
299.9569
0
VERTEX
8
CUT
10
298.8256
20
299.8521
0
VERTEX
8
CUT
10
299.0358
20
299.7262
0
VERTEX
8
CUT
10
299.2326
20
299.5802
0
VERTEX
8
CUT
10
299.4142
20
299.4156
0
VERTEX
8
CUT
10
299.5787
20
299.2341
0
VERTEX
8
CUT
10
299.7247
20
299.0373
0
VERTEX
8
CUT
10
299.8507
20
298.8271
0
VERTEX
8
CUT
10
299.9554
20
298.6056
0
VERTEX
8
CUT
10
300.0380
20
298.3748
0
VERTEX
8
CUT
10
300.0975
20
298.1371
0
VERTEX
8
CUT
10
300.1335
20
297.8947
0
VERTEX
8
CUT
10
300.1485
20
297.5886
0
VERTEX
8
CUT
10
300.1485
20
2.4114
0
VERTEX
8
CUT
10
300.1335
20
2.1053
0
VERTEX
8
CUT
10
300.0975
20
1.8629
0
VERTEX
8
CUT
10
300.0380
20
1.6252
0
VERTEX
8
CUT
10
299.9554
20
1.3944
0
VERTEX
8
CUT
10
299.8507
20
1.1729
0
VERTEX
8
CUT
10
299.7247
20
0.9627
0
VERTEX
8
CUT
10
299.5787
20
0.7659
0
VERTEX
8
CUT
10
299.4142
20
0.5844
0
VERTEX
8
CUT
10
299.2326
20
0.4198
0
VERTEX
8
CUT
10
299.0358
20
0.2738
0
VERTEX
8
CUT
10
298.8256
20
0.1479
0
VERTEX
8
CUT
10
298.6041
20
0.0431
0
VERTEX
8
CUT
10
298.3734
20
-0.0395
0
VERTEX
8
CUT
10
298.1357
20
-0.0990
0
VERTEX
8
CUT
10
297.8933
20
-0.1350
0
VERTEX
8
CUT
10
297.5872
20
-0.1500
0
VERTEX
8
CUT
10
2.4114
20
-0.1500
0
VERTEX
8
CUT
10
2.1053
20
-0.1350
0
VERTEX
8
CUT
10
1.8629
20
-0.0990
0
VERTEX
8
CUT
10
1.6252
20
-0.0395
0
VERTEX
8
CUT
10
1.3944
20
0.0431
0
VERTEX
8
CUT
10
1.1729
20
0.1479
0
VERTEX
8
CUT
10
0.9627
20
0.2738
0
VERTEX
8
CUT
10
0.7659
20
0.4198
0
VERTEX
8
CUT
10
0.5844
20
0.5844
0
VERTEX
8
CUT
10
0.4198
20
0.7659
0
VERTEX
8
CUT
10
0.2738
20
0.9627
0
VERTEX
8
CUT
10
0.1479
20
1.1729
0
VERTEX
8
CUT
10
0.0431
20
1.3944
0
VERTEX
8
CUT
10
-0.0395
20
1.6252
0
VERTEX
8
CUT
10
-0.0990
20
1.8629
0
VERTEX
8
CUT
10
-0.1350
20
2.1053
0
VERTEX
8
CUT
10
-0.1500
20
2.4114
0
SEQEND
0
POLYLINE
8
CUT
66
1
70
1
10
0.0
20
0.0
30
0.0
0
VERTEX
8
CUT
10
193.9055
20
81.0315
0
VERTEX
8
CUT
10
194.0216
20
80.8050
0
VERTEX
8
CUT
10
194.1601
20
80.5914
0
VERTEX
8
CUT
10
194.3196
20
80.3930
0
VERTEX
8
CUT
10
195.1331
20
79.4804
0
VERTEX
8
CUT
10
195.3033
20
79.3072
0
VERTEX
8
CUT
10
195.4895
20
79.1513
0
VERTEX
8
CUT
10
195.6899
20
79.0142
0
VERTEX
8
CUT
10
195.8856
20
78.8940
0
VERTEX
8
CUT
10
196.0761
20
78.7880
0
VERTEX
8
CUT
10
196.2751
20
78.6990
0
VERTEX
8
CUT
10
196.4811
20
78.6277
0
VERTEX
8
CUT
10
196.7252
20
78.5551
0
VERTEX
8
CUT
10
196.9533
20
78.4986
0
VERTEX
8
CUT
10
197.1856
20
78.4639
0
VERTEX
8
CUT
10
197.4202
20
78.4511
0
VERTEX
8
CUT
10
198.6433
20
78.4419
0
VERTEX
8
CUT
10
198.8739
20
78.4509
0
VERTEX
8
CUT
10
199.1027
20
78.4810
0
VERTEX
8
CUT
10
199.3278
20
78.5322
0
VERTEX
8
CUT
10
199.3459
20
78.5372
0
VERTEX
8
CUT
10
199.5754
20
78.6127
0
VERTEX
8
CUT
10
199.7966
20
78.7101
0
VERTEX
8
CUT
10
200.0073
20
78.8283
0
VERTEX
8
CUT
10
200.2056
20
78.9663
0
VERTEX
8
CUT
10
200.3897
20
79.1228
0
VERTEX
8
CUT
10
200.5578
20
79.2964
0
VERTEX
8
CUT
10
200.7084
20
79.4854
0
VERTEX
8
CUT
10
200.8400
20
79.6880
0
VERTEX
8
CUT
10
200.9514
20
79.9024
0
VERTEX
8
CUT
10
201.0416
20
80.1266
0
VERTEX
8
CUT
10
201.1098
20
80.3584
0
VERTEX
8
CUT
10
201.1553
20
80.5957
0
VERTEX
8
CUT
10
201.1776
20
80.8363
0
VERTEX
8
CUT
10
201.1766
20
81.0779
0
VERTEX
8
CUT
10
201.1523
20
81.3183
0
VERTEX
8
CUT
10
201.1049
20
81.5552
0
VERTEX
8
CUT
10
201.0349
20
81.7865
0
VERTEX
8
CUT
10
200.9428
20
82.0099
0
VERTEX
8
CUT
10
200.8296
20
82.2234
0
VERTEX
8
CUT
10
200.6963
20
82.4249
0
VERTEX
8
CUT
10
200.5442
20
82.6127
0
VERTEX
8
CUT
10
200.3747
20
82.7848
0
VERTEX
8
CUT
10
200.1894
20
82.9399
0
VERTEX
8
CUT
10
199.9899
20
83.0763
0
VERTEX
8
CUT
10
199.8397
20
83.1589
0
VERTEX
8
CUT
10
199.8400
20
83.1593
0
VERTEX
8
CUT
10
199.8381
20
83.1603
0
VERTEX
8
CUT
10
199.5543
20
83.3349
0
VERTEX
8
CUT
10
199.3120
20
83.5185
0
VERTEX
8
CUT
10
199.0885
20
83.7245
0
VERTEX
8
CUT
10
198.8860
20
83.9512
0
VERTEX
8
CUT
10
198.7062
20
84.1964
0
VERTEX
8
CUT
10
198.5510
20
84.4578
0
VERTEX
8
CUT
10
198.4631
20
84.6449
0
VERTEX
8
CUT
10
198.3494
20
84.8594
0
VERTEX
8
CUT
10
198.2154
20
85.0618
0
VERTEX
8
CUT
10
198.0624
20
85.2502
0
VERTEX
8
CUT
10
197.8919
20
85.4229
0
VERTEX
8
CUT
10
197.7054
20
85.5783
0
VERTEX
8
CUT
10
197.5047
20
85.7148
0
VERTEX
8
CUT
10
197.2918
20
85.8313
0
VERTEX
8
CUT
10
197.0685
20
85.9265
0
VERTEX
8
CUT
10
196.8371
20
85.9997
0
VERTEX
8
CUT
10
196.5996
20
86.0500
0
VERTEX
8
CUT
10
196.3584
20
86.0771
0
VERTEX
8
CUT
10
196.1157
20
86.0807
0
VERTEX
8
CUT
10
195.8738
20
86.0607
0
VERTEX
8
CUT
10
195.6350
20
86.0174
0
VERTEX
8
CUT
10
195.4015
20
85.9510
0
VERTEX
8
CUT
10
195.1755
20
85.8624
0
VERTEX
8
CUT
10
194.9592
20
85.7523
0
VERTEX
8
CUT
10
194.7546
20
85.6217
0
VERTEX
8
CUT
10
194.5636
20
85.4719
0
VERTEX
8
CUT
10
194.3881
20
85.3043
0
VERTEX
8
CUT
10
194.2296
20
85.1204
0
VERTEX
8
CUT
10
194.0897
20
84.9220
0
VERTEX
8
CUT
10
193.9697
20
84.7110
0
VERTEX
8
CUT
10
193.8708
20
84.4894
0
VERTEX
8
CUT
10
193.7938
20
84.2592
0
VERTEX
8
CUT
10
193.7023
20
83.9341
0
VERTEX
8
CUT
10
193.6477
20
83.6960
0
VERTEX
8
CUT
10
193.6166
20
83.4536
0
VERTEX
8
CUT
10
193.5475
20
82.5778
0
VERTEX
8
CUT
10
193.5404
20
82.3274
0
VERTEX
8
CUT
10
193.5583
20
82.0776
0
VERTEX
8
CUT
10
193.6011
20
81.8308
0
VERTEX
8
CUT
10
193.6685
20
81.5895
0
VERTEX
8
CUT
10
193.7596
20
81.3562
0
SEQEND
0
POLYLINE
8
CUT
66
1
70
1
10
0.0
20
0.0
30
0.0
0
VERTEX
8
CUT
10
189.6974
20
163.0525
0
VERTEX
8
CUT
10
189.4584
20
163.1164
0
VERTEX
8
CUT
10
189.2143
20
163.1563
0
VERTEX
8
CUT
10
188.9674
20
163.1720
0
VERTEX
8
CUT
10
188.7203
20
163.1631
0
VERTEX
8
CUT
10
188.4751
20
163.1299
0
VERTEX
8
CUT
10
188.2345
20
163.0727
0
VERTEX
8
CUT
10
188.0007
20
162.9919
0
VERTEX
8
CUT
10
187.7761
20
162.8884
0
VERTEX
8
CUT
10
187.5627
20
162.7632
0
VERTEX
8
CUT
10
187.3628
20
162.6176
0
VERTEX
8
CUT
10
187.1782
20
162.4529
0
VERTEX
8
CUT
10
187.0109
20
162.2708
0
VERTEX
8
CUT
10
186.8623
20
162.0730
0
VERTEX
8
CUT
10
186.7340
20
161.8615
0
VERTEX
8
CUT
10
186.6272
20
161.6384
0
VERTEX
8
CUT
10
186.5430
20
161.4058
0
VERTEX
8
CUT
10
186.4822
20
161.1661
0
VERTEX
8
CUT
10
186.4454
20
160.9215
0
VERTEX
8
CUT
10
186.4330
20
160.6745
0
VERTEX
8
CUT
10
186.4450
20
160.4274
0
VERTEX
8
CUT
10
186.4814
20
160.1827
0
VERTEX
8
CUT
10
186.5417
20
159.9429
0
VERTEX
8
CUT
10
186.6255
20
159.7101
0
VERTEX
8
CUT
10
186.7319
20
159.4868
0
VERTEX
8
CUT
10
186.8598
20
159.2751
0
VERTEX
8
CUT
10
187.0080
20
159.0771
0
VERTEX
8
CUT
10
187.0961
20
158.9708
0
VERTEX
8
CUT
10
187.2296
20
158.8222
0
VERTEX
8
CUT
10
187.3745
20
158.6847
0
VERTEX
8
CUT
10
190.3079
20
156.1171
0
VERTEX
8
CUT
10
190.5805
20
155.9097
0
VERTEX
8
CUT
10
193.1107
20
154.2452
0
VERTEX
8
CUT
10
193.3259
20
154.1185
0
VERTEX
8
CUT
10
193.5528
20
154.0139
0
VERTEX
8
CUT
10
193.7889
20
153.9325
0
VERTEX
8
CUT
10
194.0320
20
153.8750
0
VERTEX
8
CUT
10
194.2797
20
153.8421
0
VERTEX
8
CUT
10
194.5293
20
153.8341
0
VERTEX
8
CUT
10
194.7785
20
153.8510
0
VERTEX
8
CUT
10
195.0248
20
153.8928
0
VERTEX
8
CUT
10
195.2657
20
153.9588
0
VERTEX
8
CUT
10
195.4988
20
154.0486
0
VERTEX
8
CUT
10
195.7218
20
154.1612
0
VERTEX
8
CUT
10
195.9324
20
154.2955
0
VERTEX
8
CUT
10
196.1286
20
154.4502
0
VERTEX
8
CUT
10
196.3083
20
154.6236
0
VERTEX
8
CUT
10
196.4699
20
154.8142
0
VERTEX
8
CUT
10
196.6116
20
155.0199
0
VERTEX
8
CUT
10
196.7321
20
155.2387
0
VERTEX
8
CUT
10
196.8302
20
155.4684
0
VERTEX
8
CUT
10
196.9048
20
155.7068
0
VERTEX
8
CUT
10
196.9553
20
155.9514
0
VERTEX
8
CUT
10
196.9811
20
156.1999
0
VERTEX
8
CUT
10
196.9820
20
156.4497
0
VERTEX
8
CUT
10
196.9580
20
156.6983
0
VERTEX
8
CUT
10
196.9092
20
156.9433
0
VERTEX
8
CUT
10
196.8363
20
157.1822
0
VERTEX
8
CUT
10
196.7399
20
157.4127
0
VERTEX
8
CUT
10
195.3632
20
160.2901
0
VERTEX
8
CUT
10
195.2421
20
160.5134
0
VERTEX
8
CUT
10
195.0988
20
160.7233
0
VERTEX
8
CUT
10
194.9350
20
160.9176
0
VERTEX
8
CUT
10
194.7523
20
161.0943
0
VERTEX
8
CUT
10
194.5527
20
161.2515
0
VERTEX
8
CUT
10
194.3381
20
161.3876
0
VERTEX
8
CUT
10
194.1108
20
161.5012
0
VERTEX
8
CUT
10
193.0796
20
161.9527
0
VERTEX
8
CUT
10
192.8412
20
162.0429
0
SEQEND
0
POLYLINE
8
CUT
66
1
70
1
10
0.0
20
0.0
30
0.0
0
VERTEX
8
CUT
10
155.1185
20
89.9757
0
VERTEX
8
CUT
10
155.0018
20
89.8921
0
VERTEX
8
CUT
10
154.8171
20
89.7299
0
VERTEX
8
CUT
10
154.6492
20
89.5504
0
VERTEX
8
CUT
10
154.4997
20
89.3553
0
VERTEX
8
CUT
10
154.3701
20
89.1465
0
VERTEX
8
CUT
10
154.2617
20
88.9259
0
VERTEX
8
CUT
10
154.1754
20
88.6957
0
VERTEX
8
CUT
10
154.1121
20
88.4582
0
VERTEX
8
CUT
10
154.0725
20
88.2156
0
VERTEX
8
CUT
10
154.0569
20
87.9703
0
VERTEX
8
CUT
10
154.0655
20
87.7247
0
VERTEX
8
CUT
10
154.0981
20
87.4811
0
VERTEX
8
CUT
10
154.1545
20
87.2418
0
VERTEX
8
CUT
10
154.2341
20
87.0093
0
VERTEX
8
CUT
10
154.3362
20
86.7857
0
VERTEX
8
CUT
10
154.4597
20
86.5732
0
VERTEX
8
CUT
10
154.6035
20
86.3739
0
VERTEX
8
CUT
10
154.7662
20
86.1896
0
VERTEX
8
CUT
10
154.9462
20
86.0222
0
VERTEX
8
CUT
10
155.1417
20
85.8733
0
VERTEX
8
CUT
10
155.3510
20
85.7443
0
VERTEX
8
CUT
10
155.5719
20
85.6365
0
VERTEX
8
CUT
10
155.8023
20
85.5509
0
VERTEX
8
CUT
10
156.2208
20
85.4184
0
VERTEX
8
CUT
10
156.5032
20
85.3469
0
VERTEX
8
CUT
10
156.7921
20
85.3086
0
VERTEX
8
CUT
10
159.3331
20
85.1220
0
VERTEX
8
CUT
10
159.5604
20
85.1157
0
VERTEX
8
CUT
10
159.7872
20
85.1300
0
VERTEX
8
CUT
10
160.3940
20
85.1961
0
VERTEX
8
CUT
10
160.6336
20
85.2341
0
VERTEX
8
CUT
10
160.8684
20
85.2951
0
VERTEX
8
CUT
10
161.0962
20
85.3786
0
VERTEX
8
CUT
10
161.3149
20
85.4838
0
VERTEX
8
CUT
10
161.5223
20
85.6096
0
VERTEX
8
CUT
10
161.7165
20
85.7550
0
VERTEX
8
CUT
10
161.8957
20
85.9185
0
VERTEX
8
CUT
10
162.0583
20
86.0986
0
VERTEX
8
CUT
10
162.2026
20
86.2937
0
VERTEX
8
CUT
10
162.3273
20
86.5018
0
VERTEX
8
CUT
10
162.4313
20
86.7210
0
VERTEX
8
CUT
10
162.5135
20
86.9492
0
VERTEX
8
CUT
10
162.5732
20
87.1844
0
VERTEX
8
CUT
10
162.6098
20
87.4242
0
VERTEX
8
CUT
10
162.6231
20
87.6665
0
VERTEX
8
CUT
10
162.6127
20
87.9088
0
VERTEX
8
CUT
10
162.5790
20
88.1491
0
VERTEX
8
CUT
10
162.5221
20
88.3849
0
VERTEX
8
CUT
10
162.4426
20
88.6142
0
VERTEX
8
CUT
10
162.3412
20
88.8346
0
VERTEX
8
CUT
10
162.2190
20
89.0442
0
VERTEX
8
CUT
10
162.0771
20
89.2409
0
VERTEX
8
CUT
10
161.9167
20
89.4230
0
VERTEX
8
CUT
10
161.7394
20
89.5886
0
VERTEX
8
CUT
10
161.5470
20
89.7363
0
VERTEX
8
CUT
10
161.2345
20
89.9528
0
VERTEX
8
CUT
10
160.9998
20
90.1521
0
VERTEX
8
CUT
10
160.7857
20
90.3733
0
VERTEX
8
CUT
10
160.5943
20
90.6143
0
VERTEX
8
CUT
10
160.3782
20
90.9493
0
VERTEX
8
CUT
10
160.3781
20
90.9492
0
VERTEX
8
CUT
10
160.2787
20
91.1031
0
VERTEX
8
CUT
10
160.1253
20
91.2959
0
VERTEX
8
CUT
10
159.9536
20
91.4727
0
VERTEX
8
CUT
10
159.7654
20
91.6317
0
VERTEX
8
CUT
10
159.5625
20
91.7714
0
VERTEX
8
CUT
10
159.3468
20
91.8905
0
VERTEX
8
CUT
10
159.1204
20
91.9877
0
VERTEX
8
CUT
10
158.8856
20
92.0622
0
VERTEX
8
CUT
10
158.6446
20
92.1133
0
VERTEX
8
CUT
10
158.3997
20
92.1403
0
VERTEX
8
CUT
10
158.1533
20
92.1431
0
VERTEX
8
CUT
10
157.9079
20
92.1217
0
VERTEX
8
CUT
10
157.6657
20
92.0762
0
VERTEX
8
CUT
10
157.4292
20
92.0070
0
VERTEX
8
CUT
10
157.2007
20
91.9150
0
VERTEX
8
CUT
10
156.9824
20
91.8009
0
VERTEX
8
CUT
10
156.7763
20
91.6658
0
VERTEX
8
CUT
10
156.5845
20
91.5112
0
VERTEX
8
CUT
10
156.4089
20
91.3383
0
VERTEX
8
CUT
10
156.2511
20
91.1491
0
VERTEX
8
CUT
10
156.1128
20
90.9452
0
VERTEX
8
CUT
10
156.0889
20
90.9060
0
VERTEX
8
CUT
10
155.8989
20
90.6547
0
VERTEX
8
CUT
10
155.6848
20
90.4237
0
VERTEX
8
CUT
10
155.4487
20
90.2152
0
VERTEX
8
CUT
10
155.1174
20
89.9772
0
SEQEND
0
ENDSEC
0
EOF
