0
SECTION
2
HEADER
9
$ACADVER
1
AC1009
9
$INSUNITS
70
4
0
ENDSEC
0
SECTION
2
TABLES
0
TABLE
2
LAYER
70
1
0
LAYER
2
CUT
70
0
62
7
6
CONTINUOUS
0
ENDTAB
0
ENDSEC
0
SECTION
2
ENTITIES
0
POLYLINE
8
CUT
66
1
70
1
10
0.0
20
0.0
30
0.0
0
VERTEX
8
CUT
10
-0.1500
20
297.5886
0
VERTEX
8
CUT
10
-0.1350
20
297.8947
0
VERTEX
8
CUT
10
-0.0990
20
298.1371
0
VERTEX
8
CUT
10
-0.0395
20
298.3748
0
VERTEX
8
CUT
10
0.0431
20
298.6056
0
VERTEX
8
CUT
10
0.1479
20
298.8271
0
VERTEX
8
CUT
10
0.2738
20
299.0373
0
VERTEX
8
CUT
10
0.4198
20
299.2341
0
VERTEX
8
CUT
10
0.5844
20
299.4156
0
VERTEX
8
CUT
10
0.7659
20
299.5802
0
VERTEX
8
CUT
10
0.9627
20
299.7262
0
VERTEX
8
CUT
10
1.1729
20
299.8521
0
VERTEX
8
CUT
10
1.3944
20
299.9569
0
VERTEX
8
CUT
10
1.6252
20
300.0395
0
VERTEX
8
CUT
10
1.8629
20
300.0990
0
VERTEX
8
CUT
10
2.1053
20
300.1350
0
VERTEX
8
CUT
10
2.4114
20
300.1500
0
VERTEX
8
CUT
10
297.5872
20
300.1500
0
VERTEX
8
CUT
10
297.8933
20
300.1350
0
VERTEX
8
CUT
10
298.1357
20
300.0990
0
VERTEX
8
CUT
10
298.3734
20
300.0395
0
VERTEX
8
CUT
10
298.6041
20
299.9569
0
VERTEX
8
CUT
10
298.8256
20
299.8521
0
VERTEX
8
CUT
10
299.0358
20
299.7262
0
VERTEX
8
CUT
10
299.2326
20
299.5802
0
VERTEX
8
CUT
10
299.4142
20
299.4156
0
VERTEX
8
CUT
10
299.5787
20
299.2341
0
VERTEX
8
CUT
10
299.7247
20
299.0373
0
VERTEX
8
CUT
10
299.8507
20
298.8271
0
VERTEX
8
CUT
10
299.9554
20
298.6056
0
VERTEX
8
CUT
10
300.0380
20
298.3748
0
VERTEX
8
CUT
10
300.0975
20
298.1371
0
VERTEX
8
CUT
10
300.1335
20
297.8947
0
VERTEX
8
CUT
10
300.1485
20
297.5886
0
VERTEX
8
CUT
10
300.1485
20
2.4114
0
VERTEX
8
CUT
10
300.1335
20
2.1053
0
VERTEX
8
CUT
10
300.0975
20
1.8629
0
VERTEX
8
CUT
10
300.0380
20
1.6252
0
VERTEX
8
CUT
10
299.9554
20
1.3944
0
VERTEX
8
CUT
10
299.8507
20
1.1729
0
VERTEX
8
CUT
10
299.7247
20
0.9627
0
VERTEX
8
CUT
10
299.5787
20
0.7659
0
VERTEX
8
CUT
10
299.4142
20
0.5844
0
VERTEX
8
CUT
10
299.2326
20
0.4198
0
VERTEX
8
CUT
10
299.0358
20
0.2738
0
VERTEX
8
CUT
10
298.8256
20
0.1479
0
VERTEX
8
CUT
10
298.6041
20
0.0431
0
VERTEX
8
CUT
10
298.3734
20
-0.0395
0
VERTEX
8
CUT
10
298.1357
20
-0.0990
0
VERTEX
8
CUT
10
297.8933
20
-0.1350
0
VERTEX
8
CUT
10
297.5872
20
-0.1500
0
VERTEX
8
CUT
10
2.4114
20
-0.1500
0
VERTEX
8
CUT
10
2.1053
20
-0.1350
0
VERTEX
8
CUT
10
1.8629
20
-0.0990
0
VERTEX
8
CUT
10
1.6252
20
-0.0395
0
VERTEX
8
CUT
10
1.3944
20
0.0431
0
VERTEX
8
CUT
10
1.1729
20
0.1479
0
VERTEX
8
CUT
10
0.9627
20
0.2738
0
VERTEX
8
CUT
10
0.7659
20
0.4198
0
VERTEX
8
CUT
10
0.5844
20
0.5844
0
VERTEX
8
CUT
10
0.4198
20
0.7659
0
VERTEX
8
CUT
10
0.2738
20
0.9627
0
VERTEX
8
CUT
10
0.1479
20
1.1729
0
VERTEX
8
CUT
10
0.0431
20
1.3944
0
VERTEX
8
CUT
10
-0.0395
20
1.6252
0
VERTEX
8
CUT
10
-0.0990
20
1.8629
0
VERTEX
8
CUT
10
-0.1350
20
2.1053
0
VERTEX
8
CUT
10
-0.1500
20
2.4114
0
SEQEND
0
POLYLINE
8
CUT
66
1
70
1
10
0.0
20
0.0
30
0.0
0
VERTEX
8
CUT
10
197.9362
20
94.1876
0
VERTEX
8
CUT
10
197.7551
20
94.0332
0
VERTEX
8
CUT
10
197.5896
20
93.8623
0
VERTEX
8
CUT
10
197.4410
20
93.6765
0
VERTEX
8
CUT
10
197.3108
20
93.4774
0
VERTEX
8
CUT
10
197.2001
20
93.2668
0
VERTEX
8
CUT
10
197.1099
20
93.0466
0
VERTEX
8
CUT
10
197.0411
20
92.8189
0
VERTEX
8
CUT
10
196.9942
20
92.5856
0
VERTEX
8
CUT
10
196.9697
20
92.3489
0
VERTEX
8
CUT
10
196.9678
20
92.1110
0
VERTEX
8
CUT
10
196.9885
20
91.8740
0
VERTEX
8
CUT
10
197.0317
20
91.6400
0
VERTEX
8
CUT
10
197.0969
20
91.4112
0
VERTEX
8
CUT
10
197.1836
20
91.1897
0
VERTEX
8
CUT
10
197.2910
20
90.9773
0
VERTEX
8
CUT
10
197.4180
20
90.7762
0
VERTEX
8
CUT
10
197.4690
20
90.7033
0
VERTEX
8
CUT
10
197.6156
20
90.5139
0
VERTEX
8
CUT
10
197.7797
20
90.3394
0
VERTEX
8
CUT
10
197.9597
20
90.1815
0
VERTEX
8
CUT
10
198.1540
20
90.0414
0
VERTEX
8
CUT
10
198.9078
20
89.5513
0
VERTEX
8
CUT
10
199.1395
20
89.4177
0
VERTEX
8
CUT
10
199.3841
20
89.3097
0
VERTEX
8
CUT
10
200.6139
20
88.8433
0
VERTEX
8
CUT
10
200.8483
20
88.7674
0
VERTEX
8
CUT
10
201.0890
20
88.7150
0
VERTEX
8
CUT
10
201.4005
20
88.6630
0
VERTEX
8
CUT
10
201.6806
20
88.6324
0
VERTEX
8
CUT
10
201.9624
20
88.6335
0
VERTEX
8
CUT
10
202.2423
20
88.6663
0
VERTEX
8
CUT
10
202.5914
20
88.7273
0
VERTEX
8
CUT
10
202.7972
20
88.7723
0
VERTEX
8
CUT
10
202.9985
20
88.8344
0
VERTEX
8
CUT
10
203.1938
20
88.9133
0
VERTEX
8
CUT
10
204.7918
20
89.6383
0
VERTEX
8
CUT
10
204.9935
20
89.7410
0
VERTEX
8
CUT
10
205.1850
20
89.8615
0
VERTEX
8
CUT
10
205.3649
20
89.9989
0
VERTEX
8
CUT
10
205.6747
20
90.2586
0
VERTEX
8
CUT
10
205.8783
20
90.4496
0
VERTEX
8
CUT
10
206.0594
20
90.6621
0
VERTEX
8
CUT
10
206.6537
20
91.4443
0
VERTEX
8
CUT
10
206.7914
20
91.6452
0
VERTEX
8
CUT
10
206.9090
20
91.8585
0
VERTEX
8
CUT
10
207.0052
20
92.0823
0
VERTEX
8
CUT
10
207.0792
20
92.3144
0
VERTEX
8
CUT
10
207.1302
20
92.5526
0
VERTEX
8
CUT
10
207.1579
20
92.7946
0
VERTEX
8
CUT
10
207.1618
20
93.0382
0
VERTEX
8
CUT
10
207.1420
20
93.2810
0
VERTEX
8
CUT
10
207.0987
20
93.5207
0
VERTEX
8
CUT
10
207.0322
20
93.7551
0
VERTEX
8
CUT
10
206.9433
20
93.9819
0
VERTEX
8
CUT
10
206.8327
20
94.1989
0
VERTEX
8
CUT
10
206.7015
20
94.4042
0
VERTEX
8
CUT
10
206.5510
20
94.5957
0
VERTEX
8
CUT
10
206.3825
20
94.7717
0
VERTEX
8
CUT
10
206.1977
20
94.9304
0
VERTEX
8
CUT
10
205.9983
20
95.0704
0
VERTEX
8
CUT
10
205.7863
20
95.1903
0
VERTEX
8
CUT
10
205.5636
20
95.2890
0
VERTEX
8
CUT
10
205.3323
20
95.3655
0
VERTEX
8
CUT
10
205.0947
20
95.4192
0
VERTEX
8
CUT
10
204.8530
20
95.4495
0
VERTEX
8
CUT
10
204.7410
20
95.4581
0
VERTEX
8
CUT
10
204.4413
20
95.5104
0
VERTEX
8
CUT
10
204.1481
20
95.5914
0
VERTEX
8
CUT
10
203.8640
20
95.7004
0
VERTEX
8
CUT
10
203.5918
20
95.8363
0
VERTEX
8
CUT
10
203.3341
20
95.9979
0
VERTEX
8
CUT
10
203.0931
20
96.1836
0
VERTEX
8
CUT
10
203.0096
20
96.2619
0
VERTEX
8
CUT
10
202.8194
20
96.4233
0
VERTEX
8
CUT
10
202.6140
20
96.5649
0
VERTEX
8
CUT
10
202.3955
20
96.6854
0
VERTEX
8
CUT
10
202.1661
20
96.7835
0
VERTEX
8
CUT
10
201.9281
20
96.8582
0
VERTEX
8
CUT
10
201.6838
20
96.9088
0
VERTEX
8
CUT
10
201.4357
20
96.9349
0
VERTEX
8
CUT
10
201.1862
20
96.9360
0
VERTEX
8
CUT
10
200.9379
20
96.9123
0
VERTEX
8
CUT
10
200.6931
20
96.8640
0
VERTEX
8
CUT
10
200.4544
20
96.7915
0
VERTEX
8
CUT
10
200.2241
20
96.6956
0
VERTEX
8
CUT
10
200.0045
20
96.5772
0
VERTEX
8
CUT
10
199.7978
20
96.4375
0
VERTEX
8
CUT
10
199.6060
20
96.2779
0
VERTEX
8
CUT
10
199.4311
20
96.1000
0
VERTEX
8
CUT
10
199.2748
20
95.9055
0
VERTEX
8
CUT
10
199.1387
20
95.6965
0
VERTEX
8
CUT
10
199.0241
20
95.4749
0
VERTEX
8
CUT
10
198.9695
20
95.3550
0
VERTEX
8
CUT
10
198.8168
20
95.0911
0
VERTEX
8
CUT
10
198.6393
20
94.8432
0
VERTEX
8
CUT
10
198.4386
20
94.6136
0
VERTEX
8
CUT
10
198.2167
20
94.4045
0
SEQEND
0
POLYLINE
8
CUT
66
1
70
1
10
0.0
20
0.0
30
0.0
0
VERTEX
8
CUT
10
154.8081
20
91.7492
0
VERTEX
8
CUT
10
154.5908
20
91.6337
0
VERTEX
8
CUT
10
154.3860
20
91.4975
0
VERTEX
8
CUT
10
154.1956
20
91.3418
0
VERTEX
8
CUT
10
154.0213
20
91.1682
0
VERTEX
8
CUT
10
153.8650
20
90.9783
0
VERTEX
8
CUT
10
153.7281
20
90.7739
0
VERTEX
8
CUT
10
153.6119
20
90.5571
0
VERTEX
8
CUT
10
153.5176
20
90.3298
0
VERTEX
8
CUT
10
153.4462
20
90.0945
0
VERTEX
8
CUT
10
153.3981
20
89.8532
0
VERTEX
8
CUT
10
153.3741
20
89.6084
0
VERTEX
8
CUT
10
153.3742
20
89.3624
0
VERTEX
8
CUT
10
153.3984
20
89.1176
0
VERTEX
8
CUT
10
153.4466
20
88.8764
0
VERTEX
8
CUT
10
153.5183
20
88.6411
0
VERTEX
8
CUT
10
153.6128
20
88.4140
0
VERTEX
8
CUT
10
153.7291
20
88.1972
0
VERTEX
8
CUT
10
153.8662
20
87.9929
0
VERTEX
8
CUT
10
154.0227
20
87.8031
0
VERTEX
8
CUT
10
154.1971
20
87.6296
0
VERTEX
8
CUT
10
154.3876
20
87.4741
0
VERTEX
8
CUT
10
154.5926
20
87.3381
0
VERTEX
8
CUT
10
154.8099
20
87.2228
0
VERTEX
8
CUT
10
154.8205
20
87.2179
0
VERTEX
8
CUT
10
155.0460
20
87.1253
0
VERTEX
8
CUT
10
155.2794
20
87.0551
0
VERTEX
8
CUT
10
157.0793
20
86.6084
0
VERTEX
8
CUT
10
157.2700
20
86.5688
0
VERTEX
8
CUT
10
157.4631
20
86.5443
0
VERTEX
8
CUT
10
158.9321
20
86.4155
0
VERTEX
8
CUT
10
159.1957
20
86.4063
0
VERTEX
8
CUT
10
159.4589
20
86.4250
0
VERTEX
8
CUT
10
161.2741
20
86.6506
0
VERTEX
8
CUT
10
161.4677
20
86.6824
0
VERTEX
8
CUT
10
161.6582
20
86.7293
0
VERTEX
8
CUT
10
162.7625
20
87.0476
0
VERTEX
8
CUT
10
162.9633
20
87.1148
0
VERTEX
8
CUT
10
163.1576
20
87.1988
0
VERTEX
8
CUT
10
164.4222
20
87.8096
0
VERTEX
8
CUT
10
164.6683
20
87.9462
0
VERTEX
8
CUT
10
165.6850
20
88.5874
0
VERTEX
8
CUT
10
165.8878
20
88.7298
0
VERTEX
8
CUT
10
166.0755
20
88.8916
0
VERTEX
8
CUT
10
166.2463
20
89.0712
0
VERTEX
8
CUT
10
166.3984
20
89.2668
0
VERTEX
8
CUT
10
166.5304
20
89.4765
0
VERTEX
8
CUT
10
166.6410
20
89.6982
0
VERTEX
8
CUT
10
166.7292
20
89.9298
0
VERTEX
8
CUT
10
166.7939
20
90.1690
0
VERTEX
8
CUT
10
166.8347
20
90.4135
0
VERTEX
8
CUT
10
166.8510
20
90.6607
0
VERTEX
8
CUT
10
166.8428
20
90.9084
0
VERTEX
8
CUT
10
166.8102
20
91.1540
0
VERTEX
8
CUT
10
166.7533
20
91.3952
0
VERTEX
8
CUT
10
166.6729
20
91.6296
0
VERTEX
8
CUT
10
166.5696
20
91.8549
0
VERTEX
8
CUT
10
166.4446
20
92.0688
0
VERTEX
8
CUT
10
166.2990
20
92.2694
0
VERTEX
8
CUT
10
166.1343
20
92.4545
0
VERTEX
8
CUT
10
165.9520
20
92.6224
0
VERTEX
8
CUT
10
165.7540
20
92.7714
0
VERTEX
8
CUT
10
165.5422
20
92.9001
0
VERTEX
8
CUT
10
165.3188
20
93.0072
0
VERTEX
8
CUT
10
165.0858
20
93.0916
0
VERTEX
8
CUT
10
164.8456
20
93.1526
0
VERTEX
8
CUT
10
164.6006
20
93.1895
0
VERTEX
8
CUT
10
164.3531
20
93.2019
0
VERTEX
8
CUT
10
164.1612
20
93.2021
0
VERTEX
8
CUT
10
163.8528
20
93.2328
0
VERTEX
8
CUT
10
163.5488
20
93.2938
0
VERTEX
8
CUT
10
163.2523
20
93.3844
0
VERTEX
8
CUT
10
162.9662
20
93.5037
0
VERTEX
8
CUT
10
162.6932
20
93.6506
0
VERTEX
8
CUT
10
162.4361
20
93.8237
0
VERTEX
8
CUT
10
162.1972
20
94.0213
0
VERTEX
8
CUT
10
161.9789
20
94.2414
0
VERTEX
8
CUT
10
161.7833
20
94.4820
0
VERTEX
8
CUT
10
161.6124
20
94.7406
0
VERTEX
8
CUT
10
161.4678
20
95.0148
0
VERTEX
8
CUT
10
161.4248
20
95.1204
0
VERTEX
8
CUT
10
161.3202
20
95.3449
0
VERTEX
8
CUT
10
161.1938
20
95.5580
0
VERTEX
8
CUT
10
161.0469
20
95.7575
0
VERTEX
8
CUT
10
160.8811
20
95.9415
0
VERTEX
8
CUT
10
160.6978
20
96.1082
0
VERTEX
8
CUT
10
160.4989
20
96.2559
0
VERTEX
8
CUT
10
160.2864
20
96.3832
0
VERTEX
8
CUT
10
160.0623
20
96.4889
0
VERTEX
8
CUT
10
159.8289
20
96.5718
0
VERTEX
8
CUT
10
159.5884
20
96.6313
0
VERTEX
8
CUT
10
159.3432
20
96.6667
0
VERTEX
8
CUT
10
159.0957
20
96.6776
0
VERTEX
8
CUT
10
158.8483
20
96.6639
0
VERTEX
8
CUT
10
158.6035
20
96.6259
0
VERTEX
8
CUT
10
158.3637
20
96.5638
0
VERTEX
8
CUT
10
158.1312
20
96.4783
0
VERTEX
8
CUT
10
157.9083
20
96.3702
0
VERTEX
8
CUT
10
157.6972
20
96.2405
0
VERTEX
8
CUT
10
157.5000
20
96.0906
0
VERTEX
8
CUT
10
157.3185
20
95.9219
0
VERTEX
8
CUT
10
157.1547
20
95.7361
0
VERTEX
8
CUT
10
157.0100
20
95.5350
0
VERTEX
8
CUT
10
156.8860
20
95.3206
0
VERTEX
8
CUT
10
156.7838
20
95.0949
0
VERTEX
8
CUT
10
156.7044
20
94.8602
0
VERTEX
8
CUT
10
156.6487
20
94.6188
0
VERTEX
8
CUT
10
156.6109
20
94.4083
0
VERTEX
8
CUT
10
156.5999
20
94.3417
0
VERTEX
8
CUT
10
156.5985
20
94.3324
0
VERTEX
8
CUT
10
156.5965
20
94.3187
0
VERTEX
8
CUT
10
156.5738
20
94.1630
0
VERTEX
8
CUT
10
156.5577
20
94.0894
0
VERTEX
8
CUT
10
156.5286
20
93.9158
0
VERTEX
8
CUT
10
156.4498
20
93.6226
0
VERTEX
8
CUT
10
156.3431
20
93.3384
0
VERTEX
8
CUT
10
156.2096
20
93.0658
0
VERTEX
8
CUT
10
156.0503
20
92.8074
0
VERTEX
8
CUT
10
155.8669
20
92.5655
0
VERTEX
8
CUT
10
155.6610
20
92.3424
0
VERTEX
8
CUT
10
155.4345
20
92.1402
0
VERTEX
8
CUT
10
155.1897
20
91.9608
0
VERTEX
8
CUT
10
154.9286
20
91.8058
0
SEQEND
0
ENDSEC
0
EOF
