<svg xmlns="http://www.w3.org/2000/svg" width="300.0mm" height="300.0mm" viewBox="0 0 300.0 300.0">
  <path d="M 298.604 299.957 L 298.826 299.852 L 299.036 299.726 L 299.233 299.580 L 299.414 299.416 L 299.579 299.234 L 299.725 299.037 L 299.851 298.827 L 299.955 298.606 L 300.038 298.375 L 300.098 298.137 L 300.133 297.895 L 300.149 297.589 L 300.149 2.411 L 300.133 2.105 L 300.098 1.863 L 300.038 1.625 L 299.955 1.394 L 299.851 1.173 L 299.725 0.963 L 299.579 0.766 L 299.414 0.584 L 299.233 0.420 L 299.036 0.274 L 298.826 0.148 L 298.604 0.043 L 298.373 -0.039 L 298.136 -0.099 L 297.893 -0.135 L 297.587 -0.150 L 2.411 -0.150 L 2.105 -0.135 L 1.863 -0.099 L 1.625 -0.039 L 1.394 0.043 L 1.173 0.148 L 0.963 0.274 L 0.766 0.420 L 0.584 0.584 L 0.420 0.766 L 0.274 0.963 L 0.148 1.173 L 0.043 1.394 L -0.039 1.625 L -0.099 1.863 L -0.135 2.105 L -0.150 2.411 L -0.150 297.589 L -0.135 297.895 L -0.099 298.137 L -0.039 298.375 L 0.043 298.606 L 0.148 298.827 L 0.274 299.037 L 0.420 299.234 L 0.584 299.416 L 0.766 299.580 L 0.963 299.726 L 1.173 299.852 L 1.394 299.957 L 1.625 300.039 L 1.863 300.099 L 2.105 300.135 L 2.411 300.150 L 297.587 300.150 L 297.893 300.135 L 298.136 300.099 L 298.373 300.039 Z M 30.044 125.012 L 30.151 124.788 L 30.280 124.576 L 30.429 124.378 L 30.597 124.196 L 30.782 124.031 L 30.983 123.885 L 31.608 123.477 L 31.920 123.303 L 33.962 122.353 L 34.271 122.234 L 36.482 121.543 L 36.695 121.487 L 36.912 121.449 L 39.299 121.145 L 39.615 121.125 L 40.001 121.125 L 40.039 121.122 L 43.197 121.071 L 43.560 121.091 L 45.545 121.350 L 46.210 121.406 L 46.483 121.444 L 46.922 121.530 L 47.037 121.545 L 47.333 121.602 L 47.477 121.639 L 49.082 121.953 L 49.424 122.046 L 50.396 122.385 L 50.888 122.510 L 51.111 122.579 L 52.848 123.200 L 53.072 123.293 L 53.278 123.390 L 53.400 123.432 L 53.588 123.507 L 55.429 124.322 L 55.613 124.412 L 56.673 124.989 L 56.833 125.065 L 57.050 125.180 L 57.323 125.343 L 59.627 126.598 L 59.836 126.725 L 61.289 127.712 L 61.351 127.748 L 61.376 127.764 L 61.381 127.767 L 61.487 127.836 L 62.992 128.868 L 64.415 129.833 L 64.459 129.864 L 64.469 129.871 L 64.501 129.894 L 73.669 136.633 L 73.720 136.669 L 73.755 136.694 L 73.806 136.730 L 76.322 138.453 L 76.420 138.518 L 76.488 138.561 L 76.588 138.623 L 80.641 141.039 L 80.816 141.128 L 80.865 141.154 L 81.020 141.233 L 81.516 141.485 L 84.886 142.977 L 85.050 143.045 L 85.162 143.088 L 85.328 143.148 L 86.838 143.652 L 87.073 143.722 L 87.235 143.764 L 87.474 143.819 L 91.321 144.564 L 91.460 144.588 L 91.485 144.592 L 91.764 144.624 L 91.789 144.626 L 91.929 144.635 L 94.158 144.727 L 94.404 144.729 L 94.571 144.725 L 94.816 144.710 L 96.653 144.545 L 96.860 144.520 L 96.897 144.515 L 97.305 144.432 L 97.341 144.422 L 97.540 144.364 L 99.314 143.791 L 99.489 143.730 L 99.991 143.502 L 100.070 143.459 L 100.792 143.051 L 100.917 142.977 L 101.263 142.732 L 101.410 142.623 L 101.436 142.603 L 101.712 142.364 L 101.736 142.342 L 101.865 142.212 L 102.792 141.237 L 103.648 140.099 L 103.759 139.943 L 103.778 139.915 L 103.959 139.614 L 104.109 139.295 L 104.122 139.264 L 104.190 139.085 L 104.877 137.132 L 104.937 136.946 L 104.947 136.913 L 105.037 136.533 L 105.044 136.499 L 105.074 136.306 L 105.198 135.356 L 105.214 135.214 L 105.216 135.189 L 105.226 135.009 L 105.196 133.159 L 105.183 132.558 L 105.173 132.352 L 105.170 132.315 L 105.115 131.906 L 105.109 131.870 L 105.065 131.668 L 104.586 129.733 L 104.539 129.561 L 104.530 129.530 L 104.412 129.194 L 104.400 129.164 L 104.329 129.001 L 103.375 126.936 L 103.299 126.781 L 103.285 126.754 L 103.112 126.455 L 103.096 126.429 L 102.999 126.286 L 101.555 124.249 L 101.388 124.031 L 101.270 123.888 L 101.088 123.683 L 100.137 122.689 L 99.143 121.725 L 97.282 120.261 L 97.112 120.134 L 96.994 120.052 L 96.817 119.935 L 93.938 118.156 L 93.845 118.101 L 93.781 118.064 L 93.686 118.011 L 84.307 112.941 L 84.033 112.798 L 83.928 112.736 L 83.120 112.299 L 82.885 112.155 L 80.882 110.767 L 80.633 110.570 L 77.700 107.931 L 77.476 107.701 L 76.687 106.783 L 76.636 106.733 L 76.422 106.488 L 76.325 106.361 L 74.665 104.429 L 74.527 104.253 L 73.180 102.368 L 73.163 102.344 L 73.160 102.340 L 73.091 102.236 L 70.261 97.707 L 70.226 97.650 L 70.219 97.637 L 70.194 97.595 L 64.668 87.768 L 64.572 87.607 L 64.504 87.499 L 64.400 87.342 L 62.802 85.069 L 62.689 84.917 L 62.610 84.815 L 62.490 84.669 L 61.069 83.028 L 60.784 82.711 L 60.679 82.602 L 60.660 82.582 L 60.487 82.417 L 59.934 81.923 L 58.707 80.853 L 58.519 80.700 L 58.441 80.640 L 58.434 80.635 L 57.768 80.178 L 56.282 79.189 L 56.206 79.141 L 56.140 79.104 L 53.879 77.924 L 53.788 77.878 L 53.725 77.848 L 53.633 77.804 L 44.868 73.821 L 44.684 73.728 L 44.388 73.562 L 44.225 73.481 L 44.066 73.386 L 44.025 73.360 L 42.638 72.586 L 42.462 72.478 L 40.844 71.390 L 40.682 71.272 L 40.530 71.140 L 39.007 69.713 L 38.712 69.440 L 38.652 69.381 L 38.197 68.954 L 38.047 68.801 L 37.911 68.636 L 37.790 68.460 L 37.416 67.866 L 37.172 67.561 L 37.048 67.391 L 36.938 67.211 L 36.434 66.303 L 36.161 65.868 L 36.049 65.671 L 35.955 65.464 L 35.336 63.911 L 35.225 63.561 L 34.849 61.972 L 34.811 61.779 L 34.788 61.584 L 34.676 60.089 L 34.668 59.904 L 34.675 59.719 L 34.787 58.179 L 34.811 57.969 L 34.853 57.763 L 35.209 56.317 L 35.263 56.128 L 35.332 55.945 L 35.940 54.499 L 36.102 54.181 L 36.919 52.821 L 37.027 52.657 L 37.147 52.501 L 38.250 51.188 L 38.309 51.123 L 38.329 51.098 L 38.505 50.901 L 38.702 50.723 L 39.290 50.245 L 40.360 49.317 L 40.591 49.139 L 40.842 48.989 L 41.454 48.669 L 41.606 48.579 L 41.794 48.477 L 41.967 48.402 L 42.702 48.018 L 42.967 47.899 L 43.244 47.812 L 43.995 47.622 L 44.065 47.595 L 44.312 47.514 L 44.567 47.460 L 44.747 47.431 L 45.377 47.271 L 45.636 47.220 L 45.900 47.196 L 46.312 47.181 L 46.933 47.082 L 47.206 47.054 L 47.481 47.056 L 48.320 47.108 L 48.497 47.101 L 48.692 47.102 L 48.886 47.117 L 49.329 47.170 L 49.697 47.193 L 49.951 47.222 L 50.179 47.272 L 50.952 47.364 L 51.208 47.408 L 51.457 47.479 L 51.698 47.574 L 52.293 47.848 L 52.383 47.872 L 52.620 47.950 L 52.848 48.050 L 53.919 48.589 L 54.246 48.744 L 54.831 49.012 L 55.049 49.126 L 55.255 49.260 L 56.973 50.504 L 57.134 50.632 L 57.285 50.772 L 59.222 52.733 L 59.416 52.953 L 60.225 53.991 L 60.415 54.274 L 61.127 55.501 L 61.372 55.870 L 61.491 56.069 L 61.591 56.279 L 61.627 56.363 L 61.904 56.841 L 62.002 57.028 L 62.084 57.222 L 62.780 59.090 L 63.229 60.150 L 63.295 60.324 L 63.348 60.502 L 63.454 60.914 L 63.485 61.012 L 66.354 71.723 L 66.393 71.858 L 66.421 71.950 L 66.465 72.083 L 67.481 74.984 L 68.096 76.310 L 68.515 77.213 L 68.920 78.086 L 69.206 78.701 L 69.493 79.271 L 69.578 79.430 L 69.638 79.536 L 69.730 79.691 L 71.880 83.099 L 71.980 83.249 L 72.049 83.348 L 72.156 83.493 L 72.977 84.555 L 75.348 87.385 L 76.654 88.820 L 76.777 88.950 L 76.864 89.036 L 76.993 89.159 L 80.451 92.298 L 80.460 92.305 L 80.533 92.359 L 80.694 92.471 L 81.914 93.275 L 81.970 93.310 L 82.112 93.371 L 83.319 93.852 L 83.517 93.925 L 83.553 93.937 L 83.945 94.044 L 84.283 94.098 L 84.576 94.116 L 84.871 94.106 L 85.164 94.069 L 85.454 94.004 L 85.751 93.907 L 86.023 93.788 L 86.285 93.643 L 86.532 93.474 L 86.761 93.282 L 86.971 93.070 L 87.160 92.838 L 87.339 92.569 L 87.498 92.275 L 87.617 91.998 L 87.704 91.729 L 87.767 91.454 L 87.809 91.147 L 87.812 91.117 L 87.823 90.949 L 87.901 89.221 L 87.904 88.983 L 87.901 88.821 L 87.889 88.583 L 87.410 82.760 L 87.197 80.574 L 84.620 63.635 L 84.615 63.607 L 84.615 63.601 L 84.601 63.480 L 84.265 59.795 L 84.262 59.761 L 84.262 59.756 L 84.255 59.615 L 84.112 52.880 L 84.112 52.825 L 84.112 52.813 L 84.112 52.772 L 84.112 52.741 L 84.112 52.683 L 84.112 52.668 L 84.113 52.618 L 84.119 52.368 L 84.225 46.153 L 84.241 45.908 L 84.591 42.888 L 84.623 42.686 L 84.877 41.414 L 85.051 40.207 L 85.096 39.974 L 85.779 37.156 L 85.872 36.855 L 86.148 36.131 L 86.209 35.923 L 86.306 35.652 L 86.561 35.049 L 86.730 34.605 L 86.805 34.428 L 86.894 34.258 L 86.899 34.249 L 87.104 33.764 L 87.199 33.564 L 87.312 33.373 L 88.125 32.124 L 88.288 31.901 L 88.475 31.697 L 89.294 30.899 L 89.515 30.708 L 89.756 30.544 L 90.322 30.205 L 90.560 30.079 L 90.811 29.980 L 91.071 29.908 L 91.337 29.865 L 91.606 29.850 L 91.666 29.850 L 98.655 29.850 L 98.679 29.850 L 98.894 29.859 L 99.107 29.887 L 99.317 29.933 L 100.166 30.157 L 100.363 30.218 L 100.555 30.295 L 103.273 31.521 L 103.545 31.665 L 106.431 33.422 L 106.671 33.588 L 109.836 36.064 L 109.866 36.088 L 109.871 36.092 L 109.993 36.197 L 113.472 39.396 L 113.492 39.414 L 113.496 39.418 L 113.577 39.498 L 117.387 43.421 L 117.425 43.461 L 117.433 43.470 L 117.461 43.500 L 126.353 53.389 L 126.515 53.559 L 126.629 53.670 L 126.802 53.829 L 129.995 56.591 L 130.142 56.712 L 130.168 56.733 L 130.479 56.951 L 130.508 56.969 L 130.671 57.066 L 131.094 57.302 L 132.062 57.809 L 132.267 57.908 L 132.407 57.971 L 132.618 58.058 L 133.977 58.571 L 134.091 58.605 L 134.116 58.612 L 134.256 58.645 L 134.412 58.680 L 137.240 59.190 L 137.308 59.202 L 137.359 59.211 L 137.366 59.212 L 141.087 59.711 L 141.309 59.751 L 143.761 60.310 L 143.796 60.318 L 143.803 60.319 L 143.950 60.360 L 146.147 61.038 L 146.413 61.138 L 148.319 61.974 L 148.561 62.096 L 150.180 63.027 L 150.345 63.131 L 150.501 63.247 L 151.843 64.326 L 152.080 64.544 L 153.175 65.687 L 153.311 65.840 L 153.433 66.004 L 153.814 66.560 L 153.844 66.596 L 153.953 66.751 L 154.073 66.938 L 155.223 68.615 L 155.331 68.765 L 155.351 68.792 L 155.570 69.052 L 155.813 69.289 L 155.838 69.311 L 155.979 69.430 L 156.621 69.943 L 156.757 70.046 L 156.782 70.064 L 157.045 70.238 L 157.111 70.273 L 157.660 70.511 L 157.877 70.617 L 157.925 70.647 L 158.837 71.033 L 158.970 71.086 L 158.995 71.095 L 159.267 71.187 L 159.292 71.194 L 159.431 71.232 L 164.008 72.384 L 164.242 72.455 L 165.533 72.918 L 165.651 72.944 L 165.769 72.976 L 165.981 73.043 L 166.186 73.128 L 168.195 74.073 L 168.379 74.169 L 168.554 74.280 L 169.252 74.763 L 169.267 74.772 L 169.444 74.894 L 169.486 74.925 L 170.264 75.464 L 170.434 75.593 L 170.592 75.736 L 171.946 77.065 L 172.114 77.247 L 172.263 77.444 L 172.298 77.496 L 172.834 78.051 L 173.007 78.251 L 173.158 78.467 L 174.007 79.831 L 174.123 80.040 L 174.219 80.259 L 177.580 89.052 L 178.312 90.892 L 178.392 91.093 L 178.394 91.097 L 178.773 92.049 L 179.782 94.238 L 179.839 94.355 L 179.840 94.356 L 179.846 94.368 L 179.883 94.441 L 179.916 94.505 L 180.002 94.662 L 182.054 98.187 L 182.147 98.338 L 182.213 98.440 L 182.313 98.587 L 182.641 99.044 L 182.775 99.252 L 182.887 99.471 L 182.978 99.701 L 183.045 99.938 L 183.089 100.181 L 183.108 100.427 L 183.103 100.674 L 183.074 100.919 L 183.021 101.160 L 182.944 101.394 L 182.845 101.620 L 182.724 101.835 L 182.582 102.037 L 182.421 102.224 L 182.242 102.394 L 182.048 102.546 L 181.839 102.677 L 181.618 102.788 L 181.388 102.876 L 181.150 102.942 L 180.092 103.176 L 179.853 103.217 L 179.611 103.235 L 172.864 103.399 L 172.705 103.407 L 172.625 103.418 L 172.598 103.424 L 172.443 103.456 L 171.655 103.640 L 171.419 103.683 L 171.179 103.703 L 171.083 103.702 L 170.915 103.716 L 170.665 103.711 L 170.417 103.681 L 170.173 103.626 L 169.936 103.548 L 169.707 103.446 L 169.490 103.321 L 169.287 103.176 L 169.099 103.011 L 168.928 102.828 L 168.777 102.629 L 168.646 102.416 L 168.538 102.191 L 168.452 101.956 L 168.390 101.713 L 168.353 101.466 L 168.340 101.216 L 168.353 100.967 L 168.390 100.719 L 168.484 100.257 L 168.516 100.076 L 168.521 100.044 L 168.556 99.708 L 168.557 99.401 L 168.528 99.095 L 168.470 98.793 L 168.383 98.498 L 168.267 98.213 L 168.123 97.941 L 167.954 97.684 L 167.761 97.445 L 167.524 97.205 L 167.500 97.183 L 167.376 97.074 L 167.246 96.971 L 167.220 96.951 L 166.941 96.762 L 166.672 96.614 L 166.389 96.494 L 166.095 96.402 L 165.795 96.339 L 165.489 96.306 L 165.182 96.303 L 164.875 96.329 L 164.573 96.386 L 164.278 96.472 L 163.993 96.586 L 163.720 96.727 L 163.462 96.895 L 163.222 97.087 L 163.001 97.301 L 162.803 97.536 L 162.629 97.789 L 162.531 97.964 L 162.402 98.172 L 162.254 98.367 L 162.087 98.546 L 161.903 98.707 L 161.705 98.850 L 161.493 98.973 L 161.271 99.075 L 161.040 99.155 L 160.802 99.211 L 160.559 99.244 L 160.315 99.253 L 160.070 99.238 L 159.829 99.199 L 159.592 99.137 L 159.363 99.052 L 159.143 98.945 L 158.934 98.818 L 158.739 98.670 L 158.560 98.504 L 158.397 98.321 L 158.253 98.123 L 158.129 97.912 L 157.492 96.695 L 157.360 96.397 L 156.893 95.122 L 156.826 94.952 L 156.813 94.922 L 156.667 94.620 L 156.508 94.359 L 156.325 94.114 L 156.118 93.888 L 155.891 93.684 L 155.645 93.502 L 155.382 93.345 L 155.105 93.215 L 154.817 93.112 L 154.520 93.037 L 154.218 92.992 L 153.912 92.976 L 153.607 92.991 L 153.304 93.034 L 153.007 93.107 L 152.690 93.218 L 152.660 93.231 L 152.493 93.304 L 152.212 93.434 L 152.013 93.534 L 151.979 93.553 L 151.601 93.786 L 151.568 93.809 L 151.390 93.942 L 150.138 94.940 L 149.993 95.062 L 149.967 95.084 L 149.718 95.328 L 149.514 95.572 L 149.335 95.836 L 149.185 96.116 L 149.063 96.410 L 148.972 96.715 L 148.912 97.028 L 148.881 97.374 L 148.849 97.611 L 148.794 97.844 L 148.717 98.071 L 148.618 98.289 L 148.500 98.497 L 148.361 98.692 L 148.205 98.874 L 148.033 99.039 L 147.845 99.187 L 147.644 99.317 L 147.431 99.427 L 147.209 99.516 L 146.979 99.583 L 146.744 99.629 L 146.506 99.651 L 146.257 99.663 L 145.952 99.707 L 145.653 99.781 L 145.362 99.883 L 145.083 100.014 L 144.819 100.172 L 144.570 100.354 L 144.341 100.560 L 144.133 100.788 L 143.949 101.034 L 143.789 101.298 L 143.656 101.576 L 143.551 101.866 L 143.474 102.164 L 143.428 102.469 L 143.411 102.776 L 143.424 103.084 L 143.468 103.389 L 143.541 103.689 L 143.643 103.979 L 143.773 104.259 L 143.930 104.524 L 144.112 104.773 L 144.337 105.024 L 144.360 105.048 L 144.493 105.175 L 144.683 105.350 L 144.829 105.477 L 144.930 105.561 L 145.031 105.640 L 145.131 105.717 L 147.161 107.228 L 147.374 107.375 L 147.522 107.470 L 147.745 107.603 L 151.177 109.484 L 151.358 109.577 L 151.483 109.637 L 151.669 109.720 L 153.589 110.515 L 153.723 110.568 L 153.747 110.577 L 153.938 110.639 L 154.411 110.765 L 157.206 111.447 L 157.347 111.479 L 157.372 111.484 L 157.657 111.530 L 157.683 111.533 L 157.826 111.549 L 166.317 112.274 L 166.561 112.307 L 167.777 112.533 L 168.008 112.587 L 168.232 112.662 L 168.450 112.748 L 168.558 112.778 L 168.814 112.879 L 168.970 112.951 L 169.552 113.179 L 169.772 113.278 L 169.983 113.398 L 170.802 113.919 L 171.024 114.077 L 171.227 114.259 L 171.743 114.774 L 171.884 114.927 L 172.012 115.091 L 172.125 115.266 L 172.534 115.954 L 172.666 116.207 L 172.768 116.473 L 173.001 117.208 L 173.063 117.439 L 173.102 117.675 L 173.118 117.913 L 173.132 118.577 L 173.127 118.792 L 173.104 119.006 L 172.930 120.150 L 172.906 120.407 L 172.870 120.653 L 172.828 120.820 L 172.775 121.173 L 172.729 121.400 L 172.663 121.622 L 172.627 121.725 L 172.571 121.899 L 172.562 121.930 L 172.482 122.257 L 172.439 122.561 L 172.426 122.868 L 172.443 123.174 L 172.489 123.478 L 172.565 123.775 L 172.670 124.064 L 172.802 124.341 L 172.960 124.604 L 173.144 124.850 L 173.350 125.077 L 173.578 125.283 L 173.825 125.466 L 174.088 125.623 L 174.306 125.727 L 174.525 125.844 L 174.732 125.983 L 174.923 126.141 L 175.098 126.318 L 175.255 126.511 L 175.391 126.719 L 175.507 126.939 L 175.599 127.170 L 175.669 127.408 L 175.714 127.653 L 175.735 127.900 L 175.731 128.149 L 175.703 128.396 L 175.650 128.639 L 175.573 128.875 L 175.473 129.103 L 175.352 129.319 L 175.172 129.604 L 175.033 129.883 L 174.922 130.174 L 174.840 130.474 L 174.789 130.782 L 174.768 131.092 L 174.778 131.403 L 174.819 131.712 L 174.890 132.015 L 174.990 132.310 L 175.120 132.593 L 175.276 132.862 L 175.459 133.115 L 175.634 133.312 L 175.787 133.502 L 175.920 133.707 L 176.033 133.923 L 176.124 134.150 L 176.193 134.384 L 176.226 134.554 L 176.226 134.556 L 176.307 134.889 L 176.411 135.184 L 176.543 135.467 L 176.703 135.736 L 176.889 135.987 L 177.099 136.219 L 177.330 136.429 L 177.582 136.614 L 177.850 136.774 L 178.134 136.907 L 178.429 137.010 L 178.732 137.084 L 179.042 137.127 L 179.354 137.140 L 179.658 137.122 L 179.899 137.119 L 180.140 137.139 L 180.378 137.183 L 180.610 137.249 L 180.835 137.338 L 181.050 137.447 L 181.253 137.577 L 181.443 137.726 L 181.618 137.893 L 181.776 138.076 L 181.915 138.273 L 182.035 138.483 L 182.134 138.703 L 182.169 138.790 L 182.311 139.068 L 182.480 139.330 L 182.675 139.574 L 182.892 139.798 L 183.131 139.999 L 183.388 140.175 L 183.662 140.325 L 183.949 140.447 L 184.247 140.540 L 184.582 140.610 L 184.605 140.613 L 186.079 140.611 L 186.250 140.607 L 186.281 140.606 L 186.622 140.574 L 186.652 140.570 L 186.821 140.542 L 187.239 140.465 L 189.628 139.851 L 189.805 139.801 L 189.837 139.791 L 190.182 139.665 L 190.213 139.652 L 190.381 139.576 L 191.481 139.047 L 191.691 138.938 L 191.831 138.860 L 192.034 138.738 L 195.687 136.375 L 195.829 136.279 L 195.924 136.211 L 196.061 136.109 L 201.185 132.087 L 201.313 131.982 L 201.398 131.909 L 201.521 131.798 L 204.400 129.097 L 204.541 128.957 L 204.565 128.931 L 204.825 128.630 L 204.847 128.602 L 204.964 128.441 L 205.215 128.078 L 205.362 127.886 L 205.527 127.710 L 205.708 127.550 L 205.903 127.408 L 206.111 127.285 L 206.331 127.184 L 206.559 127.104 L 206.793 127.046 L 207.032 127.012 L 207.274 127.000 L 207.515 127.012 L 207.754 127.047 L 207.988 127.105 L 208.216 127.186 L 208.435 127.288 L 208.643 127.410 L 208.839 127.552 L 209.019 127.713 L 209.184 127.890 L 209.330 128.082 L 209.457 128.287 L 209.564 128.504 L 209.650 128.730 L 209.713 128.963 L 209.722 129.002 L 209.810 129.327 L 209.919 129.614 L 210.055 129.889 L 210.234 130.174 L 210.252 130.201 L 210.360 130.349 L 211.510 131.842 L 211.639 132.026 L 211.751 132.221 L 211.802 132.320 L 211.817 132.348 L 211.990 132.631 L 212.172 132.873 L 212.376 133.096 L 212.601 133.298 L 212.844 133.478 L 213.103 133.634 L 213.376 133.765 L 213.661 133.868 L 213.954 133.943 L 214.253 133.991 L 214.590 134.011 L 214.829 134.037 L 215.064 134.086 L 215.294 134.157 L 215.516 134.250 L 215.728 134.364 L 215.928 134.497 L 216.114 134.650 L 216.285 134.819 L 216.438 135.005 L 216.573 135.204 L 216.689 135.415 L 216.783 135.636 L 216.856 135.865 L 216.907 136.101 L 216.934 136.340 L 216.939 136.580 L 216.920 136.820 L 216.878 137.057 L 216.814 137.289 L 216.728 137.513 L 216.621 137.729 L 216.493 137.933 L 216.294 138.218 L 216.144 138.489 L 216.020 138.773 L 215.925 139.068 L 215.853 139.399 L 215.848 139.432 L 215.822 139.615 L 215.314 144.037 L 215.273 144.284 L 215.207 144.526 L 214.399 147.009 L 214.306 147.251 L 214.189 147.481 L 212.632 150.189 L 212.446 150.467 L 209.468 154.336 L 207.725 156.662 L 206.558 158.458 L 206.458 158.621 L 206.392 158.734 L 206.300 158.902 L 205.368 160.721 L 205.284 160.895 L 205.230 161.015 L 205.156 161.193 L 204.470 162.958 L 204.382 163.211 L 204.328 163.384 L 204.259 163.642 L 203.878 165.279 L 203.832 165.513 L 203.805 165.673 L 203.774 165.909 L 203.724 166.396 L 203.613 169.568 L 203.625 170.078 L 203.640 170.220 L 203.831 171.791 L 203.950 172.639 L 203.979 172.811 L 204.001 172.928 L 204.037 173.099 L 204.546 175.237 L 204.593 175.416 L 204.629 175.538 L 204.685 175.715 L 205.372 177.703 L 205.425 177.846 L 205.435 177.871 L 205.557 178.150 L 205.569 178.174 L 205.639 178.310 L 207.769 182.255 L 207.906 182.489 L 208.005 182.644 L 208.160 182.868 L 209.321 184.428 L 209.454 184.596 L 209.547 184.708 L 209.690 184.868 L 211.138 186.410 L 211.263 186.537 L 211.350 186.621 L 211.481 186.742 L 213.117 188.180 L 213.247 188.289 L 213.337 188.362 L 213.473 188.465 L 214.630 189.310 L 217.100 190.843 L 219.533 192.220 L 219.698 192.308 L 219.812 192.365 L 219.981 192.444 L 223.964 194.200 L 233.196 197.783 L 235.014 198.474 L 235.037 198.483 L 235.042 198.485 L 235.139 198.525 L 235.373 198.628 L 236.809 199.186 L 236.843 199.199 L 236.849 199.202 L 236.991 199.264 L 238.984 200.220 L 239.395 200.401 L 239.427 200.416 L 239.433 200.418 L 239.565 200.483 L 239.861 200.640 L 241.816 201.578 L 242.043 201.701 L 243.244 202.439 L 243.386 202.522 L 243.491 202.590 L 244.773 203.377 L 244.979 203.518 L 245.309 203.770 L 246.349 204.444 L 246.593 204.625 L 249.054 206.685 L 249.268 206.887 L 251.366 209.112 L 251.573 209.363 L 253.309 211.767 L 253.497 212.073 L 253.973 212.984 L 254.362 213.576 L 254.499 213.813 L 255.304 215.396 L 255.411 215.636 L 255.553 216.008 L 255.800 216.481 L 255.918 216.742 L 256.885 219.261 L 256.990 219.605 L 257.241 220.715 L 257.285 220.964 L 257.662 224.065 L 257.680 224.296 L 257.961 234.178 L 257.968 234.322 L 257.970 234.348 L 258.001 234.636 L 258.004 234.661 L 258.028 234.804 L 258.252 236.020 L 258.293 236.213 L 258.302 236.247 L 258.414 236.626 L 258.426 236.659 L 258.497 236.844 L 258.889 237.788 L 258.981 237.993 L 258.998 238.029 L 259.219 238.419 L 259.240 238.453 L 259.367 238.637 L 260.210 239.786 L 260.329 239.941 L 260.352 239.968 L 260.593 240.233 L 260.860 240.473 L 260.887 240.494 L 261.043 240.613 L 262.296 241.518 L 262.427 241.608 L 262.450 241.624 L 262.701 241.774 L 262.963 241.903 L 262.989 241.914 L 263.136 241.975 L 265.244 242.796 L 265.433 242.864 L 265.562 242.906 L 265.620 242.924 L 267.420 243.415 L 268.302 243.654 L 268.541 243.731 L 268.770 243.833 L 268.989 243.956 L 269.194 244.102 L 269.383 244.266 L 269.555 244.450 L 269.708 244.649 L 269.840 244.863 L 269.949 245.089 L 270.036 245.324 L 270.098 245.568 L 270.136 245.816 L 270.149 246.067 L 270.149 246.069 L 270.149 258.981 L 270.149 259.017 L 270.136 259.272 L 270.097 259.524 L 270.032 259.770 L 269.943 260.009 L 269.830 260.238 L 269.694 260.454 L 269.537 260.655 L 269.361 260.839 L 269.166 261.004 L 268.956 261.148 L 268.063 261.695 L 267.895 261.790 L 267.720 261.871 L 266.550 262.360 L 266.276 262.457 L 265.993 262.521 L 265.430 262.613 L 265.210 262.640 L 264.988 262.646 L 264.677 262.642 L 263.850 262.783 L 263.624 262.811 L 263.397 262.819 L 261.591 262.796 L 261.406 262.787 L 261.223 262.764 L 260.067 262.577 L 259.730 262.573 L 259.511 262.560 L 259.294 262.528 L 259.080 262.477 L 258.872 262.408 L 257.153 261.750 L 256.836 261.602 L 256.600 261.471 L 256.518 261.436 L 256.301 261.316 L 256.144 261.219 L 255.283 260.742 L 255.024 260.577 L 253.604 259.544 L 253.450 259.422 L 253.306 259.289 L 252.016 257.998 L 251.820 257.777 L 250.659 256.301 L 250.483 256.047 L 249.331 254.138 L 249.224 253.941 L 248.134 251.706 L 248.050 251.514 L 247.024 248.866 L 247.014 248.841 L 247.012 248.836 L 246.975 248.730 L 246.220 246.405 L 244.720 242.049 L 244.718 242.043 L 244.716 242.037 L 243.778 239.717 L 243.416 238.970 L 243.354 238.843 L 243.334 238.802 L 242.664 237.420 L 242.639 237.372 L 242.535 237.187 L 242.461 237.064 L 242.347 236.885 L 240.453 234.094 L 240.368 233.973 L 240.352 233.952 L 240.168 233.722 L 240.151 233.702 L 240.052 233.593 L 236.742 230.064 L 236.538 229.876 L 236.388 229.738 L 236.320 229.676 L 235.728 229.130 L 233.420 227.403 L 233.282 227.304 L 233.257 227.287 L 232.967 227.109 L 232.941 227.094 L 232.791 227.015 L 232.457 226.849 L 232.291 226.772 L 232.261 226.759 L 231.920 226.629 L 231.889 226.619 L 231.713 226.566 L 230.597 226.262 L 230.386 226.211 L 230.348 226.203 L 229.919 226.138 L 229.881 226.135 L 229.664 226.121 L 227.890 226.059 L 227.713 226.057 L 227.682 226.058 L 227.357 226.077 L 227.035 226.127 L 227.004 226.134 L 226.832 226.173 L 225.876 226.416 L 225.670 226.474 L 225.634 226.486 L 225.351 226.593 L 225.310 226.616 L 224.367 227.165 L 223.862 227.505 L 223.743 227.590 L 223.618 227.695 L 223.597 227.714 L 223.481 227.825 L 222.512 228.792 L 222.323 229.028 L 222.307 229.050 L 222.218 229.176 L 221.816 229.770 L 221.719 229.922 L 221.702 229.949 L 221.530 230.265 L 221.516 230.294 L 221.442 230.458 L 221.141 231.164 L 221.079 231.318 L 221.069 231.346 L 220.966 231.664 L 220.958 231.693 L 220.917 231.854 L 220.804 232.348 L 220.630 233.813 L 220.630 236.508 L 220.633 236.669 L 220.634 236.698 L 220.662 237.020 L 220.666 237.049 L 220.690 237.209 L 221.374 241.135 L 222.198 245.595 L 222.204 245.630 L 222.205 245.636 L 222.225 245.781 L 222.274 246.230 L 222.463 247.141 L 222.497 247.349 L 222.513 247.559 L 222.518 247.702 L 222.828 249.482 L 222.861 249.776 L 223.019 252.696 L 223.016 253.014 L 222.804 255.902 L 222.766 256.192 L 222.254 258.854 L 222.179 259.148 L 221.391 261.595 L 221.259 261.924 L 220.205 264.088 L 220.116 264.253 L 220.016 264.411 L 218.791 266.188 L 218.655 266.368 L 218.502 266.536 L 217.172 267.868 L 216.978 268.042 L 216.768 268.195 L 215.269 269.173 L 215.056 269.298 L 214.831 269.401 L 214.774 269.424 L 214.709 269.459 L 214.484 269.556 L 213.864 269.787 L 213.403 269.972 L 213.178 270.049 L 212.947 270.105 L 212.712 270.139 L 212.475 270.150 L 212.441 270.150 L 212.440 270.150 L 209.968 270.150 L 209.671 270.150 L 209.435 270.139 L 209.201 270.105 L 208.971 270.050 L 208.550 269.927 L 208.266 269.825 L 207.997 269.690 L 207.458 269.378 L 207.332 269.324 L 207.130 269.215 L 206.938 269.088 L 206.803 268.989 L 206.753 268.956 L 206.670 268.891 L 206.065 268.447 L 205.887 268.303 L 205.723 268.144 L 205.392 267.793 L 205.325 267.735 L 205.189 267.608 L 205.062 267.470 L 204.793 267.155 L 204.657 267.011 L 204.439 266.746 L 204.427 266.729 L 203.745 265.932 L 203.607 265.755 L 198.933 259.186 L 198.793 259.001 L 198.695 258.879 L 198.543 258.704 L 197.364 257.417 L 197.195 257.244 L 197.077 257.131 L 196.897 256.969 L 195.788 256.036 L 193.921 254.846 L 193.740 254.738 L 193.707 254.719 L 193.330 254.534 L 193.296 254.520 L 193.100 254.444 L 191.241 253.780 L 190.405 253.578 L 190.244 253.543 L 190.215 253.537 L 189.889 253.488 L 189.859 253.485 L 189.695 253.471 L 188.389 253.391 L 188.169 253.384 L 188.019 253.384 L 187.799 253.390 L 186.832 253.444 L 186.640 253.460 L 186.606 253.464 L 186.225 253.525 L 186.192 253.532 L 186.004 253.577 L 184.032 254.106 L 183.870 254.153 L 183.842 254.162 L 183.551 254.269 L 183.270 254.401 L 183.244 254.415 L 183.097 254.498 L 181.140 255.648 L 180.957 255.764 L 180.925 255.785 L 180.579 256.047 L 180.550 256.072 L 180.389 256.217 L 177.971 258.528 L 177.874 258.625 L 177.809 258.692 L 177.751 258.754 L 174.897 262.056 L 174.874 262.082 L 174.870 262.087 L 174.768 262.194 L 173.495 263.467 L 173.370 263.605 L 173.233 263.745 L 173.096 263.865 L 172.684 264.277 L 172.545 264.406 L 172.397 264.523 L 171.158 265.434 L 170.738 265.774 L 170.564 265.902 L 170.380 266.015 L 169.442 266.537 L 169.237 266.639 L 169.023 266.722 L 168.435 266.919 L 168.318 266.974 L 167.980 267.103 L 167.042 267.387 L 166.770 267.478 L 166.515 267.549 L 166.255 267.593 L 165.484 267.680 L 165.328 267.700 L 165.299 267.701 L 165.149 267.718 L 164.788 267.733 L 164.164 267.713 L 164.108 267.718 L 163.819 267.708 L 163.719 267.699 L 162.498 267.660 L 162.201 267.633 L 161.910 267.571 L 159.958 267.031 L 159.693 266.941 L 159.440 266.823 L 157.606 265.836 L 157.353 265.680 L 157.121 265.495 L 155.670 264.194 L 155.488 264.013 L 155.325 263.814 L 154.154 262.222 L 153.991 261.971 L 153.860 261.702 L 153.817 261.598 L 153.688 261.381 L 153.579 261.145 L 153.083 259.905 L 152.993 259.636 L 152.933 259.358 L 152.873 258.968 L 152.585 257.320 L 152.552 257.033 L 152.552 256.744 L 152.685 254.455 L 152.713 254.202 L 152.766 253.953 L 152.882 253.521 L 152.882 253.502 L 152.895 253.257 L 152.931 253.013 L 152.992 252.774 L 153.075 252.543 L 153.181 252.320 L 153.240 252.211 L 153.308 252.010 L 153.998 250.322 L 154.075 250.154 L 154.163 249.991 L 154.441 249.524 L 154.885 248.711 L 155.007 248.511 L 155.850 247.261 L 156.063 246.988 L 156.542 246.455 L 156.608 246.369 L 156.750 246.197 L 158.305 244.486 L 158.430 244.363 L 158.496 244.296 L 158.551 244.249 L 160.270 242.756 L 160.521 242.564 L 161.047 242.213 L 161.199 242.106 L 161.226 242.086 L 161.491 241.868 L 161.712 241.646 L 161.909 241.404 L 162.082 241.143 L 162.228 240.866 L 162.345 240.576 L 162.433 240.276 L 162.491 239.968 L 162.518 239.656 L 162.514 239.344 L 162.479 239.033 L 162.413 238.727 L 162.317 238.429 L 162.192 238.142 L 162.039 237.869 L 161.859 237.613 L 161.655 237.376 L 161.429 237.160 L 161.182 236.968 L 160.917 236.801 L 160.637 236.661 L 160.345 236.550 L 160.013 236.461 L 159.981 236.454 L 159.798 236.419 L 159.668 236.397 L 159.562 236.381 L 159.490 236.371 L 159.383 236.358 L 150.163 235.370 L 150.004 235.356 L 149.895 235.349 L 149.735 235.342 L 145.996 235.263 L 145.868 235.262 L 145.781 235.263 L 145.654 235.267 L 142.220 235.428 L 142.074 235.438 L 141.974 235.447 L 141.828 235.462 L 138.805 235.843 L 138.612 235.873 L 138.482 235.896 L 138.291 235.936 L 135.479 236.592 L 135.317 236.634 L 135.207 236.665 L 135.046 236.714 L 132.416 237.583 L 132.173 237.673 L 132.010 237.739 L 131.774 237.846 L 127.107 240.142 L 126.971 240.213 L 126.946 240.226 L 126.682 240.384 L 126.659 240.399 L 126.533 240.486 L 123.807 242.437 L 123.640 242.564 L 123.528 242.654 L 123.368 242.791 L 118.281 247.377 L 118.259 247.397 L 118.255 247.400 L 118.159 247.480 L 117.180 248.260 L 116.847 248.555 L 116.602 248.745 L 116.369 248.905 L 116.004 249.196 L 115.833 249.320 L 115.652 249.430 L 115.401 249.568 L 115.329 249.617 L 115.137 249.736 L 114.936 249.837 L 114.806 249.895 L 114.062 250.305 L 113.874 250.398 L 113.679 250.475 L 113.479 250.536 L 111.947 250.929 L 111.648 250.987 L 111.344 251.008 L 109.744 251.020 L 109.517 251.025 L 109.430 251.022 L 108.791 251.027 L 108.582 251.020 L 108.375 250.995 L 108.170 250.953 L 107.061 250.678 L 106.777 250.589 L 106.505 250.467 L 105.552 249.968 L 105.370 249.863 L 105.198 249.744 L 105.037 249.610 L 104.083 248.750 L 103.913 248.582 L 103.888 248.552 L 103.748 248.411 L 103.604 248.238 L 103.476 248.052 L 103.363 247.872 L 102.653 246.930 L 102.529 246.749 L 102.421 246.558 L 102.330 246.359 L 101.700 244.795 L 101.616 244.550 L 101.557 244.297 L 101.365 243.212 L 101.333 242.953 L 101.328 242.692 L 101.343 242.249 L 101.329 241.794 L 101.332 241.575 L 101.354 241.357 L 101.379 241.187 L 101.394 240.743 L 101.410 240.535 L 101.443 240.329 L 101.705 239.041 L 101.755 238.838 L 101.822 238.640 L 102.549 236.754 L 102.658 236.509 L 102.793 236.278 L 103.535 235.151 L 103.757 234.862 L 104.916 233.562 L 105.054 233.419 L 105.114 233.367 L 105.219 233.238 L 105.410 233.050 L 106.500 232.088 L 106.649 231.965 L 106.808 231.855 L 107.979 231.106 L 108.180 230.990 L 108.391 230.894 L 109.020 230.640 L 109.677 230.302 L 109.986 230.169 L 111.142 229.760 L 111.359 229.694 L 111.581 229.648 L 111.777 229.617 L 112.692 229.404 L 112.889 229.367 L 113.089 229.345 L 113.765 229.299 L 114.649 229.158 L 114.974 229.128 L 116.715 229.079 L 117.051 229.092 L 118.756 229.275 L 121.568 229.504 L 121.629 229.510 L 121.643 229.511 L 121.688 229.516 L 125.822 230.033 L 132.046 230.700 L 137.454 230.621 L 137.701 230.629 L 137.776 230.640 L 138.456 230.627 L 138.587 230.622 L 138.675 230.617 L 138.805 230.608 L 142.022 230.323 L 142.216 230.301 L 142.347 230.282 L 142.539 230.250 L 146.681 229.444 L 146.818 229.414 L 146.842 229.409 L 147.112 229.335 L 147.136 229.327 L 147.269 229.283 L 147.877 229.067 L 148.050 229.001 L 148.080 228.988 L 148.387 228.843 L 148.653 228.685 L 148.902 228.500 L 149.132 228.293 L 149.340 228.063 L 149.524 227.814 L 149.683 227.549 L 149.815 227.269 L 149.919 226.977 L 149.994 226.677 L 150.039 226.370 L 150.054 226.061 L 150.038 225.752 L 149.991 225.445 L 149.915 225.145 L 149.810 224.854 L 149.677 224.575 L 149.516 224.310 L 149.331 224.062 L 149.122 223.833 L 148.891 223.626 L 148.641 223.443 L 148.375 223.286 L 148.094 223.155 L 147.806 223.054 L 147.634 223.019 L 147.152 222.885 L 142.144 221.667 L 141.925 221.603 L 123.598 215.330 L 123.524 215.306 L 123.474 215.290 L 123.399 215.267 L 116.205 213.133 L 116.092 213.102 L 116.015 213.082 L 115.901 213.054 L 109.745 211.640 L 109.586 211.607 L 109.478 211.587 L 109.319 211.561 L 101.260 210.430 L 101.037 210.405 L 100.885 210.393 L 100.662 210.382 L 93.837 210.245 L 93.645 210.246 L 93.515 210.250 L 93.323 210.261 L 87.102 210.774 L 86.942 210.791 L 86.913 210.794 L 86.595 210.849 L 86.566 210.855 L 86.409 210.892 L 81.069 212.281 L 80.816 212.357 L 80.646 212.414 L 80.399 212.507 L 78.768 213.187 L 78.045 213.506 L 77.770 213.627 L 77.518 213.738 L 76.602 214.141 L 75.398 214.798 L 73.611 215.925 L 71.403 217.443 L 69.708 218.892 L 69.471 219.094 L 69.392 219.162 L 67.901 220.436 L 65.166 223.393 L 65.016 223.565 L 64.918 223.685 L 64.779 223.866 L 61.378 228.581 L 61.330 228.649 L 61.298 228.696 L 61.251 228.765 L 56.211 236.453 L 56.049 236.674 L 53.188 240.138 L 53.010 240.333 L 51.711 241.605 L 51.485 241.801 L 48.705 243.938 L 48.512 244.072 L 48.308 244.188 L 46.889 244.904 L 45.469 245.635 L 45.252 245.735 L 45.228 245.743 L 44.883 245.917 L 44.685 246.006 L 44.479 246.079 L 42.747 246.601 L 42.394 246.680 L 40.677 246.937 L 40.493 246.957 L 40.307 246.964 L 38.505 246.963 L 38.284 246.953 L 38.066 246.924 L 35.051 246.385 L 34.831 246.335 L 34.617 246.266 L 34.409 246.178 L 31.933 244.988 L 31.748 244.889 L 31.572 244.775 L 31.406 244.647 L 30.740 244.086 L 30.563 243.922 L 30.402 243.741 L 30.260 243.545 L 30.137 243.337 L 30.035 243.118 L 29.955 242.890 L 29.897 242.655 L 29.862 242.416 L 29.850 242.174 L 29.850 242.080 L 29.850 223.851 L 29.850 223.771 L 29.863 223.514 L 29.903 223.260 L 29.968 223.011 L 30.059 222.770 L 30.174 222.540 L 30.312 222.323 L 30.472 222.121 L 31.576 220.863 L 31.600 220.837 L 31.604 220.832 L 31.706 220.726 L 33.416 219.043 L 33.650 218.841 L 36.750 216.467 L 37.067 216.216 L 37.178 216.139 L 37.850 215.625 L 38.146 215.430 L 40.473 214.123 L 41.579 213.451 L 41.864 213.302 L 42.209 213.149 L 43.065 212.668 L 43.257 212.571 L 45.556 211.529 L 45.755 211.449 L 50.883 209.639 L 51.127 209.566 L 57.288 208.075 L 57.314 208.069 L 57.319 208.068 L 57.429 208.045 L 61.129 207.367 L 61.213 207.353 L 81.790 204.301 L 81.866 204.288 L 81.918 204.280 L 81.994 204.266 L 87.265 203.262 L 87.443 203.223 L 87.475 203.215 L 87.796 203.121 L 88.079 203.007 L 88.350 202.867 L 88.606 202.700 L 88.844 202.510 L 89.063 202.297 L 89.260 202.064 L 89.434 201.813 L 89.583 201.547 L 89.705 201.267 L 89.799 200.977 L 89.865 200.679 L 89.902 200.376 L 89.909 200.071 L 89.887 199.766 L 89.835 199.465 L 89.754 199.171 L 89.645 198.886 L 89.509 198.613 L 89.347 198.354 L 89.160 198.112 L 88.952 197.890 L 88.722 197.688 L 88.474 197.510 L 88.185 197.342 L 88.156 197.327 L 87.993 197.248 L 87.106 196.842 L 86.969 196.783 L 86.945 196.773 L 86.666 196.671 L 86.640 196.663 L 86.498 196.620 L 83.592 195.815 L 83.437 195.792 L 83.100 195.719 L 81.120 195.145 L 80.916 195.073 L 80.557 194.973 L 80.216 194.852 L 76.774 193.334 L 76.586 193.241 L 76.406 193.133 L 76.237 193.011 L 74.772 191.858 L 74.595 191.704 L 74.432 191.534 L 74.286 191.350 L 73.937 190.863 L 73.795 190.640 L 73.697 190.445 L 73.661 190.376 L 73.505 190.045 L 73.415 189.829 L 73.346 189.605 L 73.298 189.376 L 73.272 189.144 L 73.235 188.583 L 73.230 188.359 L 73.239 188.225 L 73.237 188.156 L 73.257 187.892 L 73.305 187.631 L 73.380 187.377 L 73.800 186.191 L 73.877 186.000 L 73.969 185.815 L 74.077 185.639 L 75.484 183.530 L 75.614 183.352 L 78.340 179.957 L 79.774 178.101 L 80.327 177.261 L 80.405 177.136 L 80.419 177.114 L 80.561 176.856 L 80.573 176.833 L 80.636 176.700 L 81.525 174.736 L 81.590 174.585 L 81.601 174.557 L 81.702 174.271 L 81.776 173.977 L 81.782 173.948 L 81.813 173.786 L 82.101 172.015 L 82.129 171.799 L 82.132 171.756 L 82.133 171.744 L 82.133 171.730 L 82.138 171.665 L 82.152 171.297 L 82.152 171.256 L 82.140 171.030 L 81.907 168.144 L 81.888 167.967 L 81.884 167.936 L 81.822 167.586 L 81.815 167.555 L 81.771 167.382 L 81.693 167.101 L 81.643 166.933 L 81.633 166.903 L 81.591 166.792 L 80.737 165.020 L 80.716 164.977 L 80.566 164.732 L 80.548 164.706 L 80.448 164.566 L 79.964 163.917 L 78.888 162.635 L 75.947 160.059 L 75.814 159.948 L 75.789 159.928 L 75.508 159.724 L 75.482 159.707 L 75.334 159.616 L 73.661 158.626 L 72.663 158.078 L 72.530 158.008 L 72.439 157.963 L 72.304 157.899 L 71.451 157.515 L 69.221 156.598 L 67.344 156.039 L 63.767 155.076 L 63.562 155.027 L 63.422 154.997 L 63.376 154.989 L 62.952 154.936 L 60.462 154.623 L 60.148 154.584 L 59.965 154.561 L 56.994 154.471 L 56.898 154.469 L 56.833 154.469 L 56.738 154.470 L 39.923 154.816 L 39.889 154.816 L 39.882 154.816 L 39.738 154.813 L 37.877 154.718 L 37.606 154.689 L 37.339 154.631 L 36.570 154.419 L 36.104 154.356 L 35.854 154.310 L 35.610 154.238 L 34.478 153.841 L 33.400 153.544 L 33.128 153.451 L 32.868 153.328 L 31.938 152.821 L 31.736 152.726 L 31.559 152.634 L 31.390 152.528 L 31.349 152.500 L 31.153 152.393 L 30.945 152.266 L 30.751 152.120 L 30.571 151.955 L 30.409 151.774 L 30.265 151.578 L 30.141 151.368 L 30.037 151.148 L 29.956 150.919 L 29.897 150.682 L 29.862 150.441 L 29.850 150.198 L 29.850 150.156 L 29.850 126.045 L 29.850 125.978 L 29.862 125.731 L 29.899 125.485 L 29.960 125.245 Z M 218.262 131.314 L 218.363 131.034 L 218.437 130.747 L 218.484 130.454 L 218.507 130.084 L 218.532 129.852 L 218.579 129.623 L 218.648 129.400 L 218.736 129.184 L 218.845 128.977 L 218.972 128.782 L 219.117 128.599 L 219.197 128.506 L 219.378 128.254 L 219.532 127.987 L 219.659 127.706 L 219.758 127.414 L 219.828 127.114 L 219.869 126.808 L 219.879 126.500 L 219.858 126.192 L 219.808 125.888 L 219.729 125.590 L 219.620 125.302 L 219.577 125.214 L 219.482 124.997 L 219.409 124.772 L 219.357 124.542 L 219.327 124.307 L 219.320 124.071 L 219.334 123.835 L 219.371 123.602 L 219.430 123.373 L 219.510 123.151 L 219.611 122.937 L 219.731 122.734 L 219.789 122.647 L 219.932 122.376 L 220.047 122.093 L 220.135 121.799 L 220.193 121.499 L 220.223 121.194 L 220.222 120.888 L 220.191 120.583 L 220.132 120.283 L 220.043 119.990 L 219.926 119.706 L 219.782 119.436 L 219.620 119.193 L 219.497 118.986 L 219.393 118.768 L 219.312 118.541 L 219.252 118.307 L 219.216 118.069 L 219.202 117.828 L 219.212 117.587 L 219.245 117.348 L 219.301 117.114 L 219.379 116.886 L 219.479 116.666 L 219.599 116.457 L 219.739 116.261 L 219.898 116.079 L 220.073 115.913 L 220.263 115.765 L 220.467 115.636 L 220.682 115.527 L 220.907 115.439 L 221.139 115.374 L 221.376 115.331 L 221.490 115.316 L 221.521 115.311 L 221.865 115.241 L 221.895 115.233 L 222.064 115.186 L 225.459 114.157 L 225.639 114.097 L 225.760 114.053 L 225.937 113.985 L 229.355 112.557 L 229.572 112.458 L 229.718 112.386 L 229.929 112.273 L 232.007 111.074 L 232.239 110.929 L 232.392 110.825 L 232.612 110.663 L 236.040 107.953 L 236.235 107.788 L 236.363 107.671 L 236.546 107.494 L 243.507 100.252 L 243.530 100.228 L 243.535 100.224 L 243.636 100.127 L 243.847 99.936 L 244.312 99.448 L 244.336 99.423 L 244.341 99.419 L 244.445 99.318 L 246.165 97.755 L 246.367 97.590 L 246.748 97.311 L 247.067 97.021 L 247.220 96.894 L 247.381 96.780 L 248.173 96.264 L 248.950 95.694 L 249.112 95.585 L 249.282 95.488 L 249.688 95.278 L 250.361 94.840 L 250.571 94.718 L 250.792 94.616 L 251.591 94.295 L 252.123 94.020 L 252.341 93.920 L 252.567 93.842 L 253.121 93.679 L 253.715 93.441 L 253.955 93.358 L 254.202 93.300 L 254.757 93.200 L 255.426 93.004 L 255.624 92.954 L 255.826 92.921 L 257.079 92.768 L 257.273 92.752 L 257.468 92.751 L 260.183 92.844 L 260.437 92.866 L 260.686 92.913 L 261.785 93.179 L 262.116 93.285 L 262.365 93.383 L 263.090 93.580 L 263.365 93.672 L 263.627 93.796 L 264.279 94.150 L 264.316 94.166 L 264.508 94.274 L 264.518 94.279 L 265.600 94.867 L 265.783 94.977 L 265.956 95.102 L 266.118 95.242 L 267.802 96.823 L 267.954 96.979 L 268.091 97.147 L 268.214 97.327 L 268.795 98.263 L 268.807 98.279 L 268.845 98.343 L 269.412 99.257 L 269.519 99.448 L 269.609 99.648 L 269.682 99.855 L 270.043 101.054 L 270.101 101.290 L 270.137 101.531 L 270.149 101.774 L 270.149 101.815 L 270.149 107.059 L 270.149 107.300 L 270.135 107.564 L 270.093 107.825 L 270.024 108.080 L 269.903 108.446 L 269.805 108.699 L 269.679 108.940 L 268.952 110.166 L 268.823 110.362 L 268.676 110.546 L 267.724 111.623 L 267.551 111.801 L 267.362 111.960 L 266.126 112.898 L 265.916 113.041 L 265.692 113.162 L 265.602 113.205 L 265.527 113.256 L 265.317 113.384 L 265.097 113.490 L 264.289 113.832 L 264.234 113.859 L 264.022 113.948 L 263.931 113.977 L 263.861 114.003 L 263.650 114.061 L 263.577 114.078 L 262.139 114.463 L 261.912 114.512 L 261.682 114.541 L 259.404 114.712 L 259.197 114.719 L 258.989 114.709 L 255.804 114.419 L 255.776 114.416 L 255.771 114.416 L 255.653 114.401 L 249.022 113.403 L 248.786 113.375 L 248.624 113.361 L 248.387 113.348 L 246.376 113.303 L 246.129 113.306 L 245.962 113.313 L 245.716 113.332 L 243.504 113.574 L 243.330 113.597 L 243.299 113.602 L 242.984 113.667 L 242.676 113.761 L 242.647 113.771 L 242.483 113.834 L 240.422 114.680 L 240.279 114.742 L 240.254 114.753 L 239.999 114.884 L 239.756 115.034 L 239.733 115.050 L 239.606 115.140 L 237.978 116.348 L 237.830 116.463 L 237.804 116.485 L 237.549 116.717 L 237.318 116.974 L 237.297 117.000 L 237.182 117.149 L 236.116 118.606 L 236.002 118.770 L 235.983 118.800 L 235.783 119.146 L 235.766 119.178 L 235.680 119.358 L 235.519 119.721 L 235.439 119.915 L 235.426 119.950 L 235.408 120.005 L 235.345 120.255 L 235.276 120.481 L 235.259 120.524 L 235.245 120.583 L 235.177 120.828 L 235.084 121.064 L 234.967 121.290 L 234.828 121.503 L 234.677 121.711 L 234.514 121.981 L 234.383 122.257 L 234.279 122.546 L 234.204 122.843 L 234.157 123.145 L 234.141 123.451 L 234.154 123.757 L 234.198 124.061 L 234.270 124.358 L 234.371 124.648 L 234.500 124.926 L 234.655 125.190 L 234.835 125.438 L 235.039 125.667 L 235.161 125.780 L 235.331 125.954 L 235.484 126.144 L 235.617 126.348 L 235.730 126.564 L 235.822 126.790 L 235.891 127.023 L 235.937 127.262 L 235.959 127.505 L 235.958 127.748 L 235.933 127.991 L 235.885 128.229 L 235.814 128.462 L 235.720 128.687 L 235.605 128.902 L 235.469 129.104 L 235.315 129.292 L 235.143 129.465 L 234.955 129.619 L 234.752 129.755 L 234.538 129.871 L 234.313 129.965 L 234.238 129.992 L 233.962 130.123 L 233.701 130.281 L 233.455 130.463 L 233.229 130.668 L 233.024 130.895 L 232.841 131.140 L 232.683 131.401 L 232.552 131.677 L 232.447 131.964 L 232.371 132.260 L 232.324 132.562 L 232.307 132.867 L 232.319 133.172 L 232.361 133.475 L 232.432 133.772 L 232.532 134.061 L 232.680 134.386 L 232.771 134.612 L 232.839 134.846 L 232.884 135.086 L 232.905 135.328 L 232.903 135.572 L 232.877 135.814 L 232.827 136.052 L 232.755 136.285 L 232.660 136.509 L 232.587 136.643 L 232.777 136.519 L 232.996 136.404 L 233.226 136.312 L 233.463 136.243 L 233.707 136.198 L 233.953 136.177 L 234.201 136.180 L 234.447 136.208 L 234.688 136.260 L 234.924 136.336 L 235.151 136.435 L 235.367 136.555 L 236.157 137.049 L 236.187 137.068 L 236.192 137.071 L 236.314 137.155 L 243.552 142.457 L 243.727 142.578 L 243.848 142.657 L 244.030 142.768 L 246.629 144.250 L 246.778 144.331 L 246.805 144.345 L 247.113 144.486 L 247.141 144.497 L 247.300 144.557 L 250.193 145.573 L 250.392 145.637 L 250.529 145.676 L 250.732 145.729 L 259.729 147.797 L 260.020 147.883 L 261.151 148.293 L 261.760 148.470 L 261.960 148.537 L 262.155 148.622 L 262.434 148.758 L 263.668 149.204 L 263.992 149.348 L 265.410 150.104 L 265.594 150.213 L 266.948 151.090 L 267.207 151.283 L 269.268 153.035 L 269.443 153.199 L 269.602 153.380 L 269.743 153.575 L 269.865 153.782 L 269.965 154.000 L 270.045 154.228 L 270.102 154.461 L 270.137 154.699 L 270.149 154.939 L 270.149 154.952 L 270.149 172.842 L 270.149 172.922 L 270.136 173.174 L 270.098 173.423 L 270.035 173.667 L 269.948 173.904 L 269.837 174.130 L 269.705 174.344 L 269.551 174.544 L 269.378 174.728 L 269.187 174.893 L 268.981 175.037 L 268.761 175.161 L 268.530 175.262 L 267.897 175.500 L 267.628 175.585 L 267.350 175.638 L 265.828 175.844 L 265.547 175.866 L 265.266 175.856 L 263.701 175.714 L 263.444 175.677 L 263.193 175.614 L 261.384 175.058 L 261.159 174.977 L 260.943 174.875 L 259.167 173.930 L 258.870 173.743 L 257.894 173.032 L 257.865 173.011 L 257.859 173.007 L 257.740 172.911 L 256.788 172.100 L 256.551 171.870 L 254.416 169.500 L 254.230 169.267 L 253.573 168.336 L 253.359 168.052 L 253.193 167.797 L 251.495 165.390 L 251.462 165.342 L 251.455 165.331 L 251.432 165.295 L 244.103 153.960 L 243.996 153.802 L 243.920 153.697 L 243.804 153.545 L 237.957 146.250 L 237.533 145.803 L 237.459 145.726 L 236.261 144.464 L 235.564 143.730 L 234.216 142.330 L 232.297 140.500 L 232.128 140.322 L 231.978 140.129 L 231.847 139.922 L 231.737 139.703 L 231.649 139.475 L 231.584 139.239 L 231.542 138.997 L 231.524 138.753 L 231.529 138.508 L 231.559 138.265 L 231.613 138.026 L 231.689 137.794 L 231.788 137.569 L 231.846 137.468 L 231.687 137.573 L 231.472 137.687 L 231.247 137.780 L 231.014 137.851 L 230.775 137.899 L 230.533 137.923 L 230.289 137.923 L 230.047 137.900 L 229.808 137.853 L 229.574 137.783 L 229.349 137.691 L 229.133 137.577 L 228.930 137.443 L 228.741 137.290 L 228.072 136.692 L 227.983 136.615 L 227.922 136.564 L 227.831 136.489 L 226.499 135.442 L 226.348 135.329 L 226.320 135.309 L 226.027 135.123 L 225.744 134.981 L 225.449 134.868 L 225.143 134.786 L 224.831 134.734 L 224.515 134.714 L 224.198 134.727 L 223.885 134.770 L 223.578 134.846 L 223.279 134.951 L 222.993 135.086 L 222.722 135.250 L 222.468 135.439 L 222.235 135.653 L 222.005 135.913 L 221.837 136.102 L 221.650 136.272 L 221.448 136.424 L 221.231 136.554 L 221.002 136.661 L 220.763 136.745 L 220.518 136.804 L 220.267 136.838 L 220.014 136.847 L 219.762 136.830 L 219.513 136.788 L 219.493 136.783 L 219.185 136.746 L 219.137 136.745 L 218.891 136.728 L 218.648 136.686 L 218.410 136.621 L 218.180 136.532 L 217.959 136.421 L 217.751 136.289 L 217.556 136.137 L 217.378 135.967 L 217.217 135.780 L 217.076 135.578 L 216.955 135.363 L 216.855 135.137 L 216.779 134.902 L 216.726 134.661 L 216.697 134.416 L 216.692 134.170 L 216.712 133.924 L 216.756 133.681 L 216.823 133.444 L 216.914 133.214 L 217.027 132.995 L 217.161 132.788 L 217.314 132.594 L 217.486 132.417 L 217.615 132.298 L 217.809 132.078 L 217.984 131.838 L 218.135 131.582 Z M 262.265 198.529 L 262.298 198.254 L 262.362 197.985 L 262.456 197.724 L 262.763 196.993 L 262.872 196.767 L 263.002 196.554 L 263.153 196.355 L 263.323 196.172 L 263.757 195.749 L 263.821 195.676 L 263.910 195.592 L 263.976 195.517 L 264.155 195.350 L 264.213 195.306 L 264.424 195.100 L 264.601 194.943 L 264.792 194.804 L 264.995 194.683 L 265.209 194.582 L 265.982 194.261 L 266.217 194.177 L 266.459 194.117 L 266.706 194.081 L 266.955 194.070 L 267.663 194.074 L 267.907 194.087 L 268.148 194.125 L 268.385 194.185 L 268.615 194.268 L 268.836 194.374 L 269.045 194.500 L 269.241 194.647 L 269.421 194.811 L 269.585 194.993 L 269.730 195.190 L 269.855 195.400 L 269.960 195.621 L 270.042 195.851 L 270.101 196.088 L 270.137 196.330 L 270.149 196.574 L 270.149 196.635 L 270.149 196.753 L 270.149 196.854 L 270.149 201.873 L 270.149 202.187 L 270.149 202.286 L 270.149 202.287 L 270.137 202.527 L 270.136 202.535 L 270.136 202.539 L 270.128 202.586 L 270.103 202.764 L 270.098 202.781 L 270.097 202.790 L 270.083 202.845 L 270.046 202.996 L 270.037 203.023 L 270.033 203.036 L 270.013 203.089 L 269.967 203.223 L 269.951 203.257 L 269.945 203.274 L 269.921 203.323 L 269.867 203.440 L 269.842 203.482 L 269.833 203.502 L 269.806 203.544 L 269.746 203.647 L 269.712 203.695 L 269.698 203.718 L 269.671 203.753 L 269.606 203.842 L 269.560 203.895 L 269.542 203.918 L 269.515 203.946 L 269.449 204.022 L 269.388 204.079 L 269.366 204.102 L 269.341 204.124 L 269.274 204.186 L 269.198 204.246 L 269.173 204.267 L 269.151 204.283 L 269.085 204.333 L 268.991 204.393 L 268.964 204.411 L 268.945 204.422 L 268.883 204.461 L 268.768 204.519 L 268.742 204.534 L 268.727 204.540 L 268.669 204.570 L 268.531 204.624 L 268.508 204.633 L 268.499 204.636 L 268.446 204.657 L 268.278 204.704 L 268.265 204.708 L 268.254 204.711 L 268.215 204.722 L 268.200 204.725 L 268.168 204.733 L 267.904 204.785 L 267.636 204.809 L 267.367 204.804 L 267.101 204.770 L 267.045 204.756 L 266.686 204.735 L 266.460 204.711 L 266.238 204.668 L 266.021 204.604 L 265.810 204.521 L 265.003 204.159 L 264.760 204.034 L 264.532 203.883 L 264.322 203.708 L 264.018 203.425 L 263.995 203.410 L 263.804 203.280 L 263.625 203.132 L 263.462 202.968 L 263.314 202.790 L 263.183 202.598 L 262.883 202.114 L 262.769 201.908 L 262.675 201.693 L 262.601 201.469 L 262.568 201.321 L 262.564 201.313 L 262.497 201.089 L 262.491 201.065 L 262.484 201.046 L 262.410 200.760 L 262.394 200.675 L 262.275 200.198 L 262.225 199.944 L 262.202 199.687 L 262.206 199.428 Z M 266.712 128.022 L 266.848 127.972 L 267.077 127.912 L 267.311 127.873 L 267.360 127.867 L 267.607 127.851 L 267.855 127.859 L 268.101 127.892 L 268.342 127.949 L 268.576 128.029 L 268.802 128.133 L 269.016 128.258 L 269.216 128.403 L 269.402 128.568 L 269.569 128.751 L 269.719 128.949 L 269.847 129.161 L 269.954 129.384 L 270.039 129.617 L 270.099 129.858 L 270.136 130.103 L 270.149 130.351 L 270.149 130.363 L 270.149 130.466 L 270.149 131.133 L 270.149 131.225 L 270.149 131.230 L 270.137 131.474 L 270.101 131.715 L 270.042 131.952 L 269.961 132.181 L 269.857 132.402 L 269.732 132.612 L 269.588 132.808 L 269.425 132.989 L 269.245 133.154 L 269.050 133.300 L 268.842 133.427 L 268.622 133.533 L 268.393 133.617 L 268.157 133.678 L 267.916 133.716 L 267.887 133.719 L 267.648 133.733 L 267.409 133.724 L 267.172 133.693 L 266.939 133.639 L 266.712 133.562 L 266.493 133.465 L 266.285 133.347 L 266.089 133.210 L 265.907 133.054 L 265.866 133.011 L 265.780 132.940 L 265.598 132.775 L 265.434 132.593 L 265.288 132.395 L 265.163 132.184 L 265.059 131.962 L 264.977 131.730 L 264.918 131.492 L 264.883 131.249 L 264.850 130.904 L 264.839 130.657 L 264.852 130.410 L 264.890 130.166 L 264.951 129.926 L 265.036 129.694 L 265.144 129.471 L 265.273 129.260 L 265.383 129.114 L 265.410 129.071 L 265.491 128.954 L 265.647 128.752 L 265.824 128.566 L 266.018 128.399 L 266.229 128.253 L 266.453 128.129 L 266.587 128.073 L 266.626 128.054 L 266.665 128.039 L 266.689 128.029 Z M 251.348 67.536 L 251.664 66.557 L 251.742 66.349 L 251.838 66.148 L 251.951 65.957 L 252.081 65.776 L 252.737 64.945 L 252.893 64.766 L 253.065 64.602 L 253.252 64.455 L 253.453 64.327 L 254.580 63.679 L 254.838 63.550 L 255.109 63.451 L 255.524 63.327 L 255.725 63.275 L 255.929 63.241 L 256.135 63.224 L 256.564 63.206 L 256.805 63.207 L 257.045 63.232 L 257.281 63.279 L 257.512 63.350 L 257.596 63.380 L 257.621 63.383 L 257.827 63.416 L 258.029 63.467 L 258.227 63.535 L 258.681 63.711 L 258.890 63.804 L 259.090 63.915 L 259.278 64.044 L 260.151 64.700 L 260.316 64.836 L 260.469 64.985 L 260.609 65.147 L 260.773 65.354 L 260.894 65.522 L 261.001 65.698 L 261.087 65.871 L 261.125 65.936 L 261.568 66.807 L 261.661 67.013 L 261.736 67.226 L 261.791 67.445 L 261.916 68.065 L 261.956 68.338 L 261.965 68.613 L 261.944 68.888 L 261.893 69.159 L 261.654 70.131 L 261.585 70.361 L 261.495 70.583 L 261.384 70.796 L 261.253 70.996 L 261.146 71.145 L 261.024 71.393 L 260.873 71.630 L 260.697 71.848 L 260.121 72.484 L 259.967 72.639 L 259.801 72.780 L 259.623 72.907 L 259.434 73.017 L 259.134 73.175 L 258.872 73.359 L 258.668 73.489 L 258.452 73.599 L 258.226 73.687 L 257.993 73.752 L 257.017 73.977 L 256.799 74.017 L 256.577 74.038 L 256.355 74.039 L 256.133 74.020 L 255.914 73.981 L 255.218 73.827 L 254.966 73.757 L 254.723 73.661 L 254.491 73.540 L 253.587 73.007 L 253.350 72.848 L 253.133 72.664 L 252.744 72.294 L 252.543 72.078 L 252.256 71.732 L 252.130 71.566 L 252.019 71.391 L 251.922 71.208 L 251.547 70.417 L 251.458 70.206 L 251.389 69.987 L 251.341 69.763 L 251.313 69.535 L 251.273 69.010 L 251.263 68.946 L 251.238 68.715 L 251.234 68.499 L 251.234 68.494 L 251.227 68.251 L 251.244 68.009 L 251.284 67.770 Z M 236.077 183.697 L 236.080 183.692 L 236.113 183.635 L 236.258 183.413 L 236.427 183.209 L 236.469 183.167 L 236.539 183.074 L 236.681 182.903 L 236.837 182.745 L 237.007 182.602 L 237.115 182.519 L 237.307 182.385 L 237.511 182.269 L 237.724 182.173 L 237.945 182.098 L 238.173 182.043 L 238.333 182.020 L 238.381 182.008 L 238.408 182.002 L 238.650 181.964 L 238.893 181.950 L 239.137 181.959 L 239.379 181.993 L 239.444 182.008 L 239.670 182.061 L 239.890 182.135 L 240.102 182.228 L 240.305 182.341 L 240.496 182.472 L 240.613 182.570 L 240.656 182.598 L 240.834 182.725 L 240.999 182.866 L 241.152 183.022 L 241.291 183.190 L 241.327 183.238 L 241.467 183.445 L 241.490 183.486 L 241.574 183.612 L 241.711 183.839 L 241.823 184.080 L 241.909 184.332 L 241.936 184.427 L 241.990 184.658 L 242.021 184.894 L 242.030 185.131 L 242.017 185.368 L 241.981 185.603 L 241.922 185.837 L 241.840 186.063 L 241.738 186.281 L 241.614 186.488 L 241.474 186.701 L 241.341 186.883 L 241.312 186.915 L 241.248 187.009 L 241.067 187.217 L 240.966 187.322 L 240.787 187.489 L 240.593 187.638 L 240.385 187.767 L 240.252 187.841 L 240.017 187.956 L 239.952 187.988 L 239.712 188.077 L 239.464 188.142 L 239.211 188.181 L 238.955 188.193 L 238.849 188.187 L 238.735 188.189 L 238.459 188.161 L 238.275 188.133 L 238.027 188.081 L 237.786 188.005 L 237.553 187.904 L 237.376 187.817 L 237.178 187.708 L 236.990 187.580 L 236.814 187.437 L 236.693 187.329 L 236.531 187.169 L 236.383 186.995 L 236.252 186.808 L 236.139 186.610 L 236.074 186.484 L 236.031 186.414 L 235.905 186.187 L 235.803 185.947 L 235.727 185.699 L 235.677 185.443 L 235.654 185.184 L 235.658 184.924 L 235.689 184.666 L 235.747 184.412 L 235.750 184.401 L 235.824 184.181 L 235.917 183.968 L 236.030 183.765 Z M 215.982 63.340 L 215.948 62.703 L 215.946 62.508 L 215.958 62.314 L 215.994 61.969 L 216.041 61.683 L 216.120 61.404 L 216.214 61.135 L 216.358 60.614 L 216.434 60.385 L 216.531 60.165 L 217.119 58.987 L 217.242 58.769 L 217.386 58.564 L 217.551 58.374 L 218.557 57.324 L 218.732 57.159 L 218.922 57.010 L 219.397 56.676 L 219.594 56.550 L 219.803 56.444 L 220.933 55.931 L 221.138 55.849 L 221.349 55.785 L 221.565 55.740 L 222.510 55.586 L 222.729 55.560 L 222.949 55.554 L 222.986 55.555 L 223.086 55.546 L 223.597 55.531 L 223.890 55.539 L 224.109 55.572 L 224.138 55.572 L 224.274 55.581 L 224.599 55.597 L 224.881 55.627 L 225.157 55.689 L 226.013 55.931 L 226.302 56.033 L 226.576 56.169 L 226.919 56.365 L 227.378 56.592 L 227.597 56.713 L 227.802 56.856 L 227.882 56.924 L 228.023 57.016 L 228.230 57.183 L 228.983 57.863 L 229.166 58.046 L 229.329 58.248 L 229.558 58.563 L 229.563 58.570 L 229.566 58.574 L 229.922 59.063 L 230.058 59.271 L 230.173 59.492 L 230.419 60.029 L 230.534 60.228 L 230.651 60.456 L 230.743 60.695 L 230.811 60.942 L 231.153 62.501 L 231.200 62.794 L 231.211 63.091 L 231.198 63.678 L 231.174 63.974 L 231.116 64.264 L 230.741 65.680 L 230.653 65.949 L 230.536 66.206 L 229.952 67.313 L 229.804 67.558 L 229.630 67.784 L 228.808 68.734 L 228.595 68.952 L 228.356 69.142 L 227.456 69.776 L 227.215 69.925 L 226.959 70.047 L 226.558 70.210 L 226.508 70.233 L 226.468 70.246 L 225.860 70.494 L 225.571 70.591 L 225.273 70.653 L 224.746 70.728 L 224.496 70.782 L 224.234 70.810 L 224.171 70.810 L 224.109 70.819 L 223.818 70.843 L 223.527 70.834 L 223.430 70.825 L 223.287 70.827 L 223.018 70.802 L 222.738 70.761 L 222.349 70.726 L 222.265 70.714 L 222.197 70.707 L 222.163 70.701 L 222.134 70.697 L 222.039 70.675 L 221.951 70.657 L 221.930 70.651 L 221.923 70.649 L 221.833 70.620 L 221.712 70.583 L 220.792 70.245 L 220.724 70.221 L 220.695 70.209 L 220.277 70.056 L 220.033 69.952 L 219.803 69.822 L 219.639 69.707 L 219.230 69.469 L 218.966 69.292 L 218.421 68.875 L 218.261 68.741 L 218.112 68.594 L 217.976 68.436 L 217.131 67.362 L 216.974 67.139 L 216.843 66.899 L 216.738 66.647 L 216.224 65.186 L 216.147 64.920 L 216.099 64.646 L 216.020 63.971 L 216.005 63.753 L 216.007 63.581 L 216.004 63.565 Z M 216.047 166.899 L 216.120 166.668 L 216.139 166.623 L 216.234 166.334 L 216.327 166.094 L 216.444 165.864 L 216.584 165.648 L 217.384 164.544 L 217.576 164.309 L 217.796 164.100 L 218.098 163.845 L 218.336 163.667 L 218.595 163.518 L 219.893 162.870 L 220.134 162.765 L 220.385 162.686 L 221.239 162.465 L 221.440 162.422 L 221.643 162.396 L 221.847 162.386 L 222.013 162.385 L 222.313 162.401 L 222.608 162.453 L 223.465 162.657 L 223.682 162.719 L 223.894 162.801 L 225.012 163.293 L 225.226 163.400 L 225.429 163.527 L 225.620 163.673 L 226.417 164.349 L 226.573 164.492 L 226.715 164.648 L 226.844 164.815 L 227.468 165.699 L 227.583 165.876 L 227.682 166.063 L 227.764 166.257 L 228.101 167.148 L 228.168 167.352 L 228.218 167.562 L 228.249 167.775 L 228.349 168.747 L 228.361 169.042 L 228.339 169.336 L 228.203 170.349 L 228.166 170.556 L 228.112 170.760 L 228.041 170.958 L 227.678 171.850 L 227.580 172.063 L 227.462 172.265 L 227.326 172.455 L 226.586 173.394 L 226.396 173.609 L 226.182 173.801 L 225.618 174.251 L 225.415 174.396 L 225.200 174.521 L 224.742 174.755 L 224.512 174.859 L 224.412 174.892 L 224.197 174.983 L 223.941 175.060 L 223.311 175.214 L 223.073 175.261 L 222.831 175.283 L 222.128 175.315 L 222.045 175.326 L 221.814 175.333 L 221.583 175.319 L 220.849 175.240 L 220.601 175.201 L 220.358 175.137 L 219.706 174.930 L 219.440 174.828 L 219.186 174.696 L 218.541 174.312 L 218.332 174.173 L 218.137 174.013 L 217.602 173.526 L 217.446 173.372 L 217.305 173.205 L 217.299 173.196 L 217.225 173.123 L 217.081 172.952 L 216.952 172.768 L 216.649 172.290 L 216.529 172.080 L 216.430 171.859 L 216.429 171.855 L 216.235 171.553 L 216.113 171.341 L 216.013 171.118 L 215.935 170.885 L 215.801 170.413 L 215.742 170.155 L 215.711 169.893 L 215.658 169.073 L 215.653 168.886 L 215.662 168.699 L 215.710 168.143 L 215.751 167.856 L 215.826 167.576 L 216.046 166.905 Z M 197.997 113.580 L 197.786 113.447 L 197.590 113.293 L 197.410 113.120 L 197.248 112.930 L 197.106 112.725 L 196.985 112.507 L 196.887 112.278 L 196.811 112.040 L 196.760 111.796 L 196.734 111.548 L 196.732 111.299 L 196.755 111.050 L 196.803 110.805 L 196.874 110.567 L 196.970 110.336 L 197.088 110.116 L 197.227 109.909 L 197.386 109.717 L 197.563 109.542 L 197.757 109.385 L 197.966 109.248 L 198.278 109.066 L 198.304 109.048 L 198.451 108.948 L 200.234 107.663 L 200.482 107.505 L 200.747 107.378 L 200.904 107.314 L 201.134 107.202 L 201.595 107.010 L 201.790 106.938 L 201.883 106.912 L 202.267 106.754 L 202.507 106.670 L 202.755 106.610 L 203.008 106.576 L 207.201 106.226 L 207.388 106.206 L 207.421 106.201 L 207.759 106.139 L 208.061 106.051 L 208.352 105.933 L 208.631 105.787 L 208.893 105.614 L 209.137 105.416 L 209.359 105.194 L 209.559 104.952 L 209.733 104.690 L 209.880 104.413 L 209.999 104.122 L 210.088 103.821 L 210.147 103.512 L 210.175 103.199 L 210.171 102.885 L 210.136 102.573 L 210.070 102.266 L 209.974 101.967 L 209.848 101.679 L 209.840 101.665 L 209.729 101.441 L 209.640 101.207 L 209.576 100.965 L 209.536 100.718 L 209.520 100.469 L 209.530 100.219 L 209.565 99.971 L 209.624 99.728 L 210.115 98.078 L 210.173 97.856 L 210.183 97.816 L 210.259 97.363 L 210.263 97.322 L 210.280 97.092 L 210.330 95.962 L 210.330 95.944 L 210.347 95.700 L 210.388 95.459 L 210.452 95.223 L 210.540 94.994 L 210.649 94.775 L 210.778 94.568 L 210.928 94.374 L 211.096 94.196 L 211.280 94.035 L 211.479 93.893 L 211.691 93.771 L 211.914 93.671 L 212.146 93.593 L 212.384 93.537 L 212.627 93.506 L 212.871 93.498 L 213.116 93.514 L 213.357 93.554 L 213.593 93.617 L 213.822 93.703 L 214.042 93.811 L 214.250 93.940 L 214.444 94.089 L 214.623 94.256 L 214.784 94.439 L 214.927 94.638 L 215.050 94.849 L 215.312 95.356 L 215.435 95.634 L 215.983 97.110 L 216.047 97.306 L 216.094 97.506 L 216.182 97.962 L 216.230 98.124 L 216.277 98.364 L 216.321 98.681 L 216.790 101.101 L 216.820 101.301 L 216.834 101.502 L 217.032 108.226 L 217.027 108.473 L 216.997 108.718 L 216.944 108.960 L 216.867 109.194 L 216.767 109.420 L 216.646 109.635 L 216.504 109.838 L 216.342 110.025 L 216.163 110.195 L 215.968 110.346 L 215.759 110.478 L 215.538 110.588 L 215.307 110.677 L 215.069 110.741 L 214.825 110.782 L 214.482 110.823 L 214.188 110.886 L 213.902 110.977 L 213.626 111.095 L 213.362 111.239 L 213.114 111.408 L 212.882 111.599 L 212.670 111.811 L 212.647 111.839 L 212.546 111.993 L 211.849 113.122 L 211.494 113.775 L 211.417 113.924 L 211.368 114.026 L 211.298 114.178 L 209.602 118.092 L 209.492 118.314 L 209.361 118.525 L 209.210 118.721 L 209.040 118.901 L 208.853 119.064 L 208.651 119.207 L 208.435 119.329 L 208.209 119.430 L 207.974 119.508 L 207.732 119.562 L 207.486 119.592 L 207.239 119.597 L 206.992 119.578 L 206.748 119.535 L 206.509 119.467 L 206.279 119.377 L 206.058 119.264 L 205.850 119.129 L 205.656 118.975 L 205.479 118.802 L 205.319 118.613 L 205.179 118.409 L 205.060 118.191 L 204.991 118.030 L 204.990 118.031 L 204.842 117.680 L 204.689 117.397 L 204.673 117.370 L 204.615 117.278 L 204.582 117.240 L 204.427 117.049 L 204.307 116.866 L 204.245 116.805 L 204.220 116.782 L 204.075 116.658 L 203.309 116.034 L 203.127 115.895 L 203.094 115.872 L 202.706 115.628 L 202.670 115.609 L 202.466 115.505 L 201.381 114.996 L 198.796 114.002 L 198.625 113.929 L 198.461 113.843 Z M 205.119 30.051 L 205.355 29.964 L 205.599 29.901 L 205.849 29.863 L 206.100 29.850 L 206.145 29.850 L 206.167 29.850 L 208.757 29.850 L 208.803 29.850 L 208.851 29.850 L 209.102 29.863 L 209.350 29.900 L 209.594 29.963 L 209.830 30.050 L 210.056 30.160 L 210.269 30.292 L 210.469 30.445 L 210.652 30.617 L 210.817 30.806 L 210.896 30.907 L 211.048 31.123 L 211.129 31.269 L 211.142 31.288 L 211.165 31.334 L 211.176 31.355 L 211.180 31.364 L 211.262 31.522 L 211.357 31.768 L 211.530 32.298 L 211.600 32.557 L 211.641 32.821 L 211.654 33.089 L 211.639 33.356 L 211.602 33.679 L 211.586 33.918 L 211.554 34.179 L 211.495 34.435 L 211.410 34.683 L 211.321 34.875 L 211.262 35.046 L 211.146 35.294 L 211.128 35.327 L 211.020 35.509 L 210.896 35.682 L 210.817 35.774 L 210.814 35.779 L 210.684 35.996 L 210.531 36.198 L 210.359 36.384 L 210.170 36.552 L 210.078 36.624 L 209.901 36.753 L 209.713 36.866 L 209.517 36.962 L 209.312 37.040 L 208.873 37.187 L 208.801 37.212 L 208.772 37.220 L 208.391 37.347 L 208.174 37.409 L 207.952 37.451 L 207.727 37.473 L 207.501 37.474 L 207.275 37.455 L 206.358 37.335 L 206.129 37.294 L 205.905 37.232 L 205.688 37.150 L 205.479 37.047 L 205.336 36.969 L 205.141 36.850 L 204.958 36.714 L 204.788 36.561 L 204.633 36.394 L 204.039 35.694 L 203.892 35.502 L 203.764 35.297 L 203.656 35.081 L 203.570 34.855 L 203.384 34.286 L 203.322 34.063 L 203.281 33.835 L 203.262 33.605 L 203.263 33.374 L 203.292 32.837 L 203.318 32.592 L 203.367 32.351 L 203.440 32.116 L 203.535 31.889 L 203.821 31.295 L 203.947 31.064 L 204.097 30.847 L 204.269 30.647 L 204.295 30.620 L 204.478 30.447 L 204.678 30.294 L 204.892 30.161 Z M 200.448 93.589 L 200.242 93.729 L 200.023 93.849 L 199.793 93.945 L 199.554 94.019 L 199.309 94.068 L 199.061 94.093 L 198.811 94.092 L 198.563 94.067 L 198.318 94.017 L 198.080 93.943 L 197.850 93.846 L 194.603 92.274 L 194.391 92.158 L 194.191 92.022 L 191.446 89.961 L 191.260 89.806 L 191.089 89.634 L 188.639 86.909 L 188.471 86.702 L 188.327 86.478 L 186.518 83.315 L 186.506 83.294 L 186.504 83.290 L 186.456 83.200 L 183.183 76.738 L 183.114 76.610 L 183.066 76.523 L 182.993 76.397 L 181.580 74.074 L 181.474 73.909 L 181.399 73.799 L 181.284 73.640 L 179.904 71.830 L 179.766 71.658 L 179.668 71.545 L 179.520 71.382 L 178.136 69.951 L 178.020 69.836 L 177.999 69.816 L 177.754 69.603 L 177.731 69.585 L 177.601 69.486 L 176.050 68.359 L 175.838 68.215 L 175.690 68.122 L 175.468 67.993 L 173.573 66.979 L 173.395 66.890 L 173.273 66.832 L 173.091 66.752 L 170.687 65.777 L 170.548 65.724 L 170.452 65.690 L 170.311 65.642 L 164.514 63.811 L 164.317 63.740 L 162.413 62.957 L 162.165 62.839 L 160.490 61.924 L 160.297 61.807 L 156.058 58.965 L 155.866 58.822 L 155.688 58.661 L 155.526 58.484 L 155.382 58.292 L 155.257 58.087 L 155.152 57.871 L 155.068 57.646 L 155.007 57.414 L 154.967 57.177 L 154.951 56.938 L 154.958 56.698 L 154.988 56.460 L 155.040 56.225 L 155.115 55.997 L 155.211 55.777 L 155.328 55.568 L 155.464 55.370 L 157.042 53.305 L 157.132 53.105 L 157.251 52.894 L 158.563 50.819 L 170.031 31.093 L 170.160 30.894 L 170.307 30.708 L 170.471 30.537 L 170.651 30.382 L 170.844 30.245 L 171.050 30.126 L 171.266 30.028 L 171.490 29.951 L 171.721 29.895 L 171.956 29.861 L 172.193 29.850 L 182.690 29.850 L 182.937 29.862 L 183.183 29.899 L 183.423 29.960 L 183.656 30.044 L 183.880 30.151 L 184.091 30.280 L 184.290 30.429 L 184.472 30.597 L 184.637 30.782 L 184.783 30.982 L 184.908 31.196 L 185.011 31.422 L 185.092 31.656 L 185.330 32.483 L 185.399 32.793 L 186.151 37.636 L 186.160 37.698 L 186.162 37.711 L 186.167 37.757 L 187.953 53.785 L 187.977 53.964 L 187.996 54.084 L 188.029 54.261 L 188.795 57.916 L 188.828 58.059 L 188.835 58.085 L 188.917 58.366 L 188.925 58.391 L 188.975 58.529 L 189.935 61.056 L 189.990 61.192 L 190.000 61.217 L 190.126 61.483 L 190.138 61.506 L 190.209 61.635 L 191.182 63.334 L 191.311 63.544 L 191.404 63.683 L 191.546 63.883 L 192.955 65.730 L 193.044 65.843 L 193.060 65.862 L 193.251 66.077 L 193.269 66.096 L 193.371 66.197 L 200.693 73.242 L 200.859 73.417 L 202.294 75.093 L 204.397 77.215 L 204.566 77.404 L 204.715 77.609 L 204.843 77.828 L 206.264 80.578 L 209.377 86.159 L 209.458 86.297 L 209.515 86.390 L 209.602 86.525 L 209.883 86.940 L 210.009 87.147 L 210.113 87.364 L 210.197 87.591 L 210.258 87.825 L 210.297 88.063 L 210.312 88.304 L 210.304 88.545 L 210.272 88.785 L 210.218 89.020 L 210.141 89.249 L 210.042 89.470 L 209.923 89.680 L 209.784 89.877 L 209.627 90.060 L 209.452 90.227 L 209.262 90.377 L 209.059 90.507 L 208.844 90.617 L 208.620 90.706 L 208.388 90.773 L 208.150 90.818 L 207.910 90.839 L 207.668 90.836 L 207.428 90.811 L 207.222 90.779 L 206.920 90.761 L 206.618 90.773 L 206.319 90.813 L 206.025 90.882 L 205.738 90.979 L 205.500 91.086 L 205.256 91.181 L 205.002 91.250 L 204.743 91.291 L 204.480 91.306 L 204.218 91.292 L 204.001 91.270 L 203.686 91.269 L 203.373 91.299 L 203.065 91.361 L 202.764 91.453 L 202.474 91.575 L 202.198 91.725 L 201.938 91.902 L 201.697 92.104 L 201.477 92.329 L 201.281 92.574 L 201.060 92.917 L 201.059 92.916 L 200.969 93.055 L 200.814 93.250 L 200.640 93.428 Z M 139.787 35.096 L 139.818 34.325 L 139.842 34.064 L 139.894 33.807 L 139.972 33.556 L 140.096 33.223 L 140.216 32.950 L 140.368 32.693 L 140.558 32.412 L 140.705 32.216 L 140.871 32.036 L 141.053 31.872 L 141.909 31.176 L 142.127 31.018 L 142.361 30.884 L 142.608 30.775 L 142.864 30.695 L 143.623 30.500 L 143.890 30.446 L 144.161 30.422 L 144.433 30.428 L 144.703 30.463 L 144.797 30.481 L 144.978 30.509 L 145.402 30.594 L 145.652 30.640 L 145.891 30.697 L 146.123 30.777 L 146.347 30.879 L 146.559 31.003 L 147.047 31.321 L 147.233 31.455 L 147.406 31.605 L 147.565 31.771 L 147.707 31.950 L 148.130 32.534 L 148.270 32.751 L 148.388 32.981 L 148.480 33.222 L 148.710 33.923 L 148.769 34.137 L 148.810 34.356 L 148.831 34.578 L 148.832 34.801 L 148.807 35.413 L 148.785 35.659 L 148.738 35.902 L 148.668 36.139 L 148.575 36.368 L 148.165 37.249 L 148.048 37.470 L 147.910 37.678 L 147.752 37.871 L 147.575 38.048 L 146.948 38.615 L 146.738 38.784 L 146.512 38.930 L 146.271 39.051 L 146.019 39.146 L 145.226 39.394 L 144.976 39.458 L 144.721 39.497 L 144.463 39.508 L 144.206 39.494 L 143.283 39.392 L 143.019 39.349 L 142.761 39.278 L 142.513 39.179 L 142.276 39.055 L 141.754 38.744 L 141.560 38.615 L 141.378 38.469 L 141.210 38.306 L 141.059 38.129 L 140.919 37.949 L 140.853 37.889 L 140.701 37.725 L 140.564 37.549 L 140.539 37.514 L 140.394 37.282 L 140.275 37.036 L 140.199 36.822 L 140.177 36.769 L 139.917 36.000 L 139.853 35.780 L 139.810 35.554 L 139.788 35.326 Z M 82.367 232.544 L 82.515 232.335 L 82.684 232.143 L 82.872 231.969 L 83.077 231.815 L 83.246 231.700 L 83.452 231.575 L 83.670 231.471 L 83.896 231.387 L 84.129 231.326 L 84.367 231.288 L 84.608 231.273 L 84.849 231.281 L 85.088 231.313 L 85.323 231.367 L 85.552 231.443 L 85.772 231.542 L 85.982 231.661 L 86.179 231.800 L 86.302 231.895 L 86.493 232.060 L 86.667 232.244 L 86.821 232.444 L 86.955 232.658 L 87.066 232.886 L 87.153 233.123 L 87.216 233.367 L 87.236 233.466 L 87.273 233.704 L 87.287 233.945 L 87.277 234.186 L 87.245 234.425 L 87.189 234.660 L 87.111 234.888 L 87.011 235.108 L 86.891 235.317 L 86.832 235.409 L 86.682 235.619 L 86.511 235.812 L 86.321 235.986 L 86.114 236.140 L 85.892 236.272 L 85.658 236.380 L 85.414 236.463 L 85.283 236.500 L 85.064 236.552 L 84.842 236.584 L 84.618 236.596 L 84.393 236.588 L 84.171 236.560 L 84.102 236.548 L 83.885 236.500 L 83.673 236.434 L 83.468 236.349 L 83.272 236.246 L 83.085 236.126 L 83.058 236.107 L 82.876 235.965 L 82.708 235.807 L 82.555 235.634 L 82.419 235.448 L 82.300 235.250 L 82.258 235.171 L 82.157 234.962 L 82.077 234.744 L 82.017 234.519 L 81.978 234.290 L 81.960 234.058 L 81.964 233.826 L 81.990 233.595 L 82.006 233.495 L 82.059 233.245 L 82.137 233.001 L 82.240 232.766 Z M 63.260 260.237 L 63.280 260.066 L 63.319 259.865 L 63.375 259.667 L 63.379 259.655 L 63.507 259.033 L 63.564 258.809 L 63.641 258.591 L 63.739 258.381 L 63.903 258.064 L 63.934 257.972 L 64.006 257.779 L 64.093 257.594 L 64.196 257.416 L 64.447 257.020 L 64.651 256.629 L 64.763 256.435 L 64.892 256.251 L 65.038 256.080 L 65.050 256.067 L 65.179 255.863 L 65.302 255.686 L 65.439 255.521 L 65.591 255.368 L 66.397 254.619 L 66.399 254.617 L 66.550 254.468 L 66.646 254.388 L 66.949 254.107 L 67.112 253.968 L 67.287 253.843 L 67.471 253.734 L 68.483 253.193 L 68.583 253.130 L 68.765 253.024 L 68.957 252.934 L 68.996 252.919 L 69.244 252.787 L 69.439 252.693 L 69.641 252.617 L 69.850 252.558 L 70.062 252.518 L 70.330 252.478 L 71.005 252.259 L 71.237 252.196 L 71.474 252.156 L 71.713 252.138 L 73.740 252.086 L 73.989 252.092 L 74.237 252.123 L 74.480 252.178 L 76.284 252.685 L 76.378 252.710 L 76.388 252.714 L 76.692 252.799 L 76.940 252.883 L 77.177 252.992 L 77.852 253.346 L 78.109 253.500 L 78.811 253.983 L 79.001 254.128 L 79.177 254.291 L 80.508 255.645 L 80.640 255.790 L 80.760 255.945 L 81.226 256.598 L 81.364 256.814 L 81.479 257.043 L 81.607 257.333 L 81.669 257.432 L 81.808 257.687 L 81.916 257.957 L 81.948 258.053 L 82.006 258.163 L 82.093 258.349 L 82.164 258.542 L 82.208 258.696 L 82.247 258.785 L 82.344 259.042 L 82.412 259.307 L 82.778 261.156 L 82.816 261.424 L 82.825 261.694 L 82.807 262.558 L 82.782 262.858 L 82.666 263.671 L 82.618 263.917 L 82.546 264.158 L 82.122 265.348 L 82.088 265.459 L 82.053 265.540 L 81.911 265.938 L 81.833 266.130 L 81.740 266.315 L 81.632 266.492 L 81.464 266.741 L 81.386 266.899 L 81.256 267.127 L 81.103 267.341 L 80.846 267.662 L 80.512 268.161 L 80.379 268.340 L 80.232 268.507 L 79.621 269.137 L 79.441 269.306 L 79.245 269.455 L 79.018 269.612 L 79.002 269.626 L 78.809 269.761 L 78.604 269.878 L 78.390 269.975 L 78.167 270.051 L 77.938 270.106 L 77.705 270.139 L 77.470 270.150 L 77.459 270.150 L 77.457 270.150 L 68.471 270.150 L 68.332 270.150 L 68.243 270.150 L 68.001 270.138 L 67.761 270.103 L 67.526 270.045 L 67.298 269.964 L 67.078 269.862 L 66.869 269.739 L 66.674 269.596 L 66.084 269.120 L 65.923 268.979 L 65.775 268.824 L 65.641 268.658 L 64.504 267.115 L 64.384 266.936 L 64.280 266.748 L 64.192 266.552 L 63.447 264.673 L 63.372 264.454 L 63.318 264.230 L 63.284 264.002 L 63.060 261.777 L 63.048 261.525 L 63.061 261.274 L 63.099 261.025 Z M 65.549 35.440 L 65.697 35.273 L 65.749 35.204 L 65.918 34.997 L 66.073 34.824 L 66.244 34.666 L 66.429 34.524 L 66.503 34.473 L 66.689 34.332 L 66.890 34.207 L 66.919 34.193 L 67.001 34.142 L 67.221 34.033 L 67.450 33.947 L 67.480 33.937 L 67.625 33.873 L 67.848 33.788 L 68.079 33.724 L 68.314 33.683 L 68.553 33.665 L 69.111 33.648 L 69.337 33.651 L 69.562 33.675 L 69.783 33.719 L 69.803 33.724 L 70.027 33.790 L 70.244 33.877 L 70.451 33.984 L 70.696 34.124 L 70.907 34.260 L 71.103 34.416 L 71.283 34.591 L 71.444 34.784 L 71.935 35.433 L 72.084 35.652 L 72.208 35.886 L 72.307 36.132 L 72.411 36.435 L 72.478 36.670 L 72.523 36.910 L 72.544 37.153 L 72.544 37.169 L 72.564 37.362 L 72.565 37.615 L 72.541 37.867 L 72.473 38.319 L 72.468 38.369 L 72.458 38.415 L 72.413 38.637 L 72.336 38.883 L 72.234 39.120 L 72.109 39.345 L 72.043 39.449 L 72.038 39.459 L 71.918 39.666 L 71.778 39.860 L 71.765 39.875 L 71.716 39.944 L 71.542 40.143 L 71.349 40.322 L 71.137 40.480 L 71.058 40.533 L 70.924 40.637 L 70.730 40.761 L 70.585 40.836 L 70.571 40.845 L 70.534 40.863 L 70.526 40.867 L 70.522 40.869 L 70.366 40.944 L 70.152 41.025 L 69.966 41.076 L 69.760 41.149 L 69.505 41.223 L 69.244 41.271 L 68.979 41.290 L 68.432 41.302 L 68.187 41.295 L 67.944 41.263 L 67.705 41.209 L 67.472 41.131 L 67.248 41.030 L 67.035 40.909 L 66.835 40.767 L 66.650 40.606 L 66.620 40.577 L 66.616 40.575 L 66.426 40.441 L 66.407 40.426 L 66.220 40.266 L 66.050 40.088 L 65.898 39.894 L 65.881 39.868 L 65.772 39.763 L 65.605 39.586 L 65.456 39.394 L 65.326 39.188 L 65.217 38.970 L 65.129 38.743 L 65.064 38.509 L 65.023 38.269 L 65.004 38.026 L 64.996 37.707 L 64.982 37.539 L 64.985 37.312 L 64.981 37.146 L 64.985 36.910 L 65.012 36.676 L 65.061 36.445 L 65.081 36.370 L 65.161 36.120 L 65.266 35.881 L 65.396 35.653 Z M 53.094 173.013 L 53.094 172.974 L 53.108 172.706 L 53.151 172.441 L 53.221 172.182 L 53.258 172.070 L 53.270 172.009 L 53.321 171.788 L 53.392 171.572 L 53.483 171.363 L 53.593 171.163 L 53.720 170.975 L 54.354 170.119 L 54.501 169.939 L 54.664 169.773 L 54.841 169.624 L 55.032 169.491 L 55.183 169.396 L 55.374 169.288 L 55.573 169.197 L 55.779 169.123 L 55.991 169.068 L 55.994 169.068 L 56.001 169.065 L 56.231 168.992 L 56.466 168.942 L 56.479 168.940 L 56.491 168.937 L 57.038 168.823 L 57.296 168.783 L 57.557 168.770 L 57.817 168.784 L 58.225 168.828 L 58.496 168.872 L 58.761 168.946 L 59.016 169.049 L 59.455 169.254 L 59.642 169.351 L 59.783 169.440 L 59.816 169.457 L 59.824 169.462 L 60.024 169.557 L 60.243 169.675 L 60.448 169.813 L 60.639 169.972 L 60.653 169.984 L 60.800 170.130 L 60.934 170.288 L 61.055 170.457 L 61.370 170.938 L 61.496 171.152 L 61.599 171.377 L 61.680 171.612 L 61.737 171.853 L 61.922 172.852 L 61.957 173.125 L 61.962 173.400 L 61.937 173.674 L 61.882 173.943 L 61.735 174.504 L 61.653 174.759 L 61.544 175.004 L 61.409 175.236 L 61.291 175.417 L 61.290 175.419 L 61.165 175.620 L 61.117 175.683 L 61.008 175.849 L 60.842 176.076 L 60.650 176.282 L 60.464 176.442 L 60.345 176.550 L 60.163 176.687 L 60.088 176.733 L 59.866 176.904 L 59.655 177.048 L 59.432 177.171 L 59.197 177.270 L 58.653 177.467 L 58.413 177.541 L 58.167 177.590 L 57.917 177.614 L 57.666 177.613 L 56.985 177.577 L 56.721 177.548 L 56.460 177.492 L 56.207 177.408 L 55.965 177.298 L 55.718 177.169 L 55.700 177.161 L 55.659 177.139 L 55.252 176.926 L 55.039 176.802 L 54.840 176.657 L 54.655 176.493 L 54.488 176.312 L 54.364 176.164 L 54.267 176.066 L 54.128 175.899 L 54.056 175.795 L 53.882 175.587 L 53.730 175.385 L 53.599 175.169 L 53.491 174.941 L 53.453 174.834 L 53.392 174.727 L 53.288 174.482 L 53.210 174.228 L 53.170 174.068 L 53.114 173.771 L 53.101 173.551 L 53.094 173.511 L 53.082 173.274 L 53.091 173.037 Z M 48.633 104.202 L 48.723 103.278 L 48.762 103.016 L 48.829 102.761 L 48.923 102.513 L 49.140 102.018 L 49.237 101.822 L 49.351 101.635 L 49.480 101.459 L 49.813 101.045 L 50.017 100.820 L 50.248 100.622 L 50.758 100.233 L 51.010 100.065 L 51.280 99.928 L 51.773 99.715 L 51.986 99.634 L 52.206 99.573 L 52.431 99.532 L 52.943 99.463 L 53.247 99.441 L 53.552 99.456 L 53.749 99.478 L 53.807 99.478 L 54.030 99.489 L 54.252 99.520 L 54.426 99.561 L 54.481 99.569 L 54.700 99.624 L 54.914 99.700 L 55.500 99.935 L 55.768 100.062 L 56.020 100.220 L 56.492 100.557 L 56.720 100.741 L 56.924 100.950 L 57.267 101.344 L 57.450 101.580 L 57.602 101.836 L 57.807 102.232 L 57.921 102.487 L 58.006 102.752 L 58.107 103.141 L 58.155 103.365 L 58.181 103.593 L 58.187 103.821 L 58.172 104.050 L 58.033 105.287 L 57.984 105.568 L 57.904 105.843 L 57.794 106.106 L 57.646 106.407 L 57.504 106.660 L 57.332 106.895 L 56.961 107.347 L 56.815 107.510 L 56.655 107.659 L 56.482 107.794 L 55.623 108.408 L 55.415 108.541 L 55.196 108.653 L 54.966 108.743 L 54.729 108.810 L 54.067 108.962 L 53.820 109.006 L 53.570 109.025 L 53.319 109.018 L 53.071 108.987 L 52.383 108.865 L 52.147 108.811 L 51.917 108.735 L 51.696 108.637 L 51.486 108.518 L 51.177 108.323 L 51.096 108.285 L 50.909 108.177 L 50.731 108.052 L 50.683 108.011 L 50.629 107.977 L 50.396 107.811 L 50.184 107.620 L 49.996 107.406 L 49.920 107.310 L 49.864 107.253 L 49.706 107.057 L 49.630 106.940 L 49.307 106.528 L 49.166 106.330 L 49.046 106.119 L 48.946 105.897 L 48.869 105.667 L 48.715 105.126 L 48.662 104.899 L 48.631 104.668 L 48.621 104.435 Z M 42.691 269.961 L 42.470 269.856 L 42.260 269.731 L 42.063 269.585 L 41.881 269.421 L 41.717 269.240 L 41.570 269.044 L 41.444 268.835 L 41.339 268.614 L 41.255 268.384 L 41.195 268.147 L 41.158 267.905 L 41.145 267.660 L 41.156 267.416 L 41.191 267.174 L 41.249 266.936 L 41.331 266.705 L 41.434 266.484 L 41.559 266.273 L 41.703 266.076 L 41.867 265.893 L 42.047 265.728 L 42.242 265.581 L 42.451 265.454 L 42.672 265.347 L 42.762 265.309 L 42.990 265.226 L 43.226 265.165 L 43.466 265.127 L 43.708 265.112 L 43.952 265.121 L 44.192 265.154 L 44.429 265.210 L 44.659 265.289 L 44.881 265.390 L 45.091 265.512 L 45.150 265.550 L 45.350 265.694 L 45.536 265.857 L 45.704 266.037 L 45.854 266.233 L 45.984 266.443 L 46.092 266.665 L 46.178 266.897 L 46.241 267.135 L 46.279 267.379 L 46.294 267.626 L 46.284 267.872 L 46.250 268.117 L 46.192 268.357 L 46.111 268.590 L 46.007 268.814 L 45.881 269.026 L 45.735 269.225 L 45.570 269.409 L 45.388 269.576 L 45.191 269.724 L 44.979 269.851 L 44.756 269.957 L 44.524 270.041 L 44.285 270.101 L 44.041 270.138 L 43.794 270.150 L 43.645 270.150 L 43.401 270.138 L 43.159 270.102 L 42.921 270.043 Z M 29.850 187.316 L 29.850 187.245 L 29.859 187.038 L 29.884 186.833 L 29.927 186.630 L 29.969 186.463 L 29.970 186.460 L 30.032 186.210 L 30.037 186.197 L 30.054 186.127 L 30.134 185.870 L 30.242 185.623 L 30.675 184.757 L 30.808 184.523 L 30.966 184.304 L 31.528 183.607 L 31.699 183.417 L 31.888 183.245 L 32.650 182.619 L 32.877 182.454 L 33.120 182.315 L 33.972 181.890 L 34.229 181.779 L 34.427 181.719 L 34.512 181.683 L 34.723 181.613 L 34.939 181.563 L 35.158 181.532 L 35.200 181.528 L 35.360 181.495 L 35.551 181.472 L 36.392 181.400 L 36.653 181.391 L 36.685 181.394 L 36.732 181.391 L 36.966 181.402 L 37.197 181.434 L 37.303 181.459 L 37.936 181.538 L 38.159 181.575 L 38.376 181.633 L 38.588 181.710 L 38.792 181.806 L 39.090 181.964 L 39.336 182.048 L 39.582 182.165 L 39.814 182.308 L 40.040 182.464 L 40.334 182.618 L 40.592 182.775 L 40.829 182.961 L 41.097 183.200 L 41.275 183.373 L 41.358 183.473 L 41.420 183.542 L 41.794 183.998 L 41.939 184.194 L 41.979 184.261 L 42.220 184.569 L 42.365 184.774 L 42.488 184.992 L 42.589 185.222 L 42.840 185.879 L 42.842 185.884 L 42.849 185.903 L 42.866 185.947 L 43.039 186.366 L 43.120 186.595 L 43.179 186.831 L 43.298 187.429 L 43.328 187.612 L 43.343 187.796 L 43.368 188.314 L 43.370 188.530 L 43.352 188.745 L 43.316 188.958 L 43.204 189.482 L 43.072 190.229 L 43.025 190.440 L 42.960 190.646 L 42.878 190.846 L 42.359 191.964 L 42.244 192.181 L 42.109 192.387 L 41.955 192.578 L 41.108 193.525 L 40.939 193.697 L 40.754 193.852 L 40.555 193.988 L 39.375 194.714 L 39.176 194.824 L 38.968 194.916 L 38.753 194.989 L 38.382 195.095 L 38.090 195.160 L 37.791 195.189 L 37.122 195.215 L 37.063 195.224 L 36.850 195.247 L 36.637 195.251 L 36.364 195.245 L 36.304 195.247 L 36.009 195.241 L 35.970 195.236 L 35.853 195.233 L 35.603 195.215 L 35.356 195.172 L 34.761 195.037 L 34.521 194.969 L 34.289 194.878 L 34.066 194.764 L 34.059 194.760 L 33.836 194.673 L 33.589 194.544 L 32.276 193.761 L 32.103 193.648 L 31.940 193.520 L 31.788 193.380 L 31.482 193.074 L 31.332 192.909 L 31.196 192.732 L 31.077 192.542 L 30.203 191.002 L 30.102 190.804 L 30.019 190.598 L 29.954 190.385 L 29.909 190.168 L 29.882 190.004 L 29.858 189.804 L 29.850 189.604 L 29.850 189.443 Z" fill-rule="evenodd" fill="none" stroke="#000" stroke-width="0.3"/>
</svg>
