0
SECTION
2
HEADER
9
$ACADVER
1
AC1009
9
$INSUNITS
70
4
0
ENDSEC
0
SECTION
2
TABLES
0
TABLE
2
LAYER
70
1
0
LAYER
2
CUT
70
0
62
7
6
CONTINUOUS
0
ENDTAB
0
ENDSEC
0
SECTION
2
ENTITIES
0
POLYLINE
8
CUT
66
1
70
1
10
0.0
20
0.0
30
0.0
0
VERTEX
8
CUT
10
199.1301
20
111.8156
0
VERTEX
8
CUT
10
200.9542
20
113.6996
0
VERTEX
8
CUT
10
201.1611
20
113.8103
0
VERTEX
8
CUT
10
201.3201
20
113.8728
0
VERTEX
8
CUT
10
201.3584
20
113.8879
0
VERTEX
8
CUT
10
201.4591
20
113.9274
0
VERTEX
8
CUT
10
201.7939
20
114.0590
0
VERTEX
8
CUT
10
202.3904
20
114.1254
0
VERTEX
8
CUT
10
203.7149
20
114.0490
0
VERTEX
8
CUT
10
204.0386
20
114.0012
0
VERTEX
8
CUT
10
204.9879
20
113.6850
0
VERTEX
8
CUT
10
205.0064
20
113.6770
0
VERTEX
8
CUT
10
206.0200
20
113.0929
0
VERTEX
8
CUT
10
206.9027
20
112.2693
0
VERTEX
8
CUT
10
208.2134
20
110.1186
0
VERTEX
8
CUT
10
208.6069
20
108.8022
0
VERTEX
8
CUT
10
208.6115
20
108.7568
0
VERTEX
8
CUT
10
208.6377
20
106.6900
0
VERTEX
8
CUT
10
208.6398
20
106.5227
0
VERTEX
8
CUT
10
208.6428
20
106.2860
0
VERTEX
8
CUT
10
208.6625
20
104.7336
0
VERTEX
8
CUT
10
208.6605
20
104.7141
0
VERTEX
8
CUT
10
208.2035
20
103.0458
0
VERTEX
8
CUT
10
207.4869
20
101.4330
0
VERTEX
8
CUT
10
206.4293
20
99.8261
0
VERTEX
8
CUT
10
205.1552
20
98.8772
0
VERTEX
8
CUT
10
202.0725
20
98.2132
0
VERTEX
8
CUT
10
200.2641
20
98.3708
0
VERTEX
8
CUT
10
198.9685
20
98.9565
0
VERTEX
8
CUT
10
196.0956
20
102.2882
0
VERTEX
8
CUT
10
196.0105
20
102.5439
0
VERTEX
8
CUT
10
195.9013
20
102.6167
0
VERTEX
8
CUT
10
196.3977
20
106.5870
0
VERTEX
8
CUT
10
197.7689
20
109.7822
0
VERTEX
8
CUT
10
197.8326
20
109.8891
0
VERTEX
8
CUT
10
197.8333
20
109.8902
0
VERTEX
8
CUT
10
197.8998
20
110.0018
0
SEQEND
0
POLYLINE
8
CUT
66
1
70
1
10
0.0
20
0.0
30
0.0
0
VERTEX
8
CUT
10
202.3974
20
107.9377
0
VERTEX
8
CUT
10
202.3703
20
107.9746
0
VERTEX
8
CUT
10
202.3639
20
108.0734
0
VERTEX
8
CUT
10
202.1196
20
108.3522
0
VERTEX
8
CUT
10
202.0989
20
108.3493
0
VERTEX
8
CUT
10
202.0249
20
108.4426
0
VERTEX
8
CUT
10
201.6358
20
108.3540
0
VERTEX
8
CUT
10
201.1645
20
107.6950
0
VERTEX
8
CUT
10
200.0851
20
105.1895
0
VERTEX
8
CUT
10
199.5616
20
103.0844
0
VERTEX
8
CUT
10
199.5465
20
103.0348
0
VERTEX
8
CUT
10
199.5453
20
103.0189
0
VERTEX
8
CUT
10
199.4095
20
102.4727
0
VERTEX
8
CUT
10
199.4320
20
101.1810
0
VERTEX
8
CUT
10
199.8724
20
100.9595
0
VERTEX
8
CUT
10
200.4219
20
101.4068
0
VERTEX
8
CUT
10
201.1464
20
102.4099
0
VERTEX
8
CUT
10
201.7731
20
103.7823
0
VERTEX
8
CUT
10
202.2928
20
106.0583
0
VERTEX
8
CUT
10
202.2928
20
106.3707
0
VERTEX
8
CUT
10
202.4352
20
106.9765
0
VERTEX
8
CUT
10
202.4251
20
107.1305
0
VERTEX
8
CUT
10
202.4374
20
107.1867
0
SEQEND
0
POLYLINE
8
CUT
66
1
70
1
10
0.0
20
0.0
30
0.0
0
VERTEX
8
CUT
10
160.7378
20
121.9336
0
VERTEX
8
CUT
10
161.0566
20
121.8143
0
VERTEX
8
CUT
10
161.0751
20
121.8065
0
VERTEX
8
CUT
10
161.8713
20
121.4577
0
VERTEX
8
CUT
10
163.0109
20
120.7285
0
VERTEX
8
CUT
10
164.6596
20
118.9901
0
VERTEX
8
CUT
10
165.5051
20
117.0146
0
VERTEX
8
CUT
10
165.6398
20
116.5500
0
VERTEX
8
CUT
10
165.7566
20
114.5736
0
VERTEX
8
CUT
10
165.7430
20
114.3770
0
VERTEX
8
CUT
10
165.7203
20
114.0513
0
VERTEX
8
CUT
10
165.7076
20
113.8683
0
VERTEX
8
CUT
10
165.3312
20
112.1873
0
VERTEX
8
CUT
10
164.7564
20
110.8795
0
VERTEX
8
CUT
10
163.6100
20
109.3277
0
VERTEX
8
CUT
10
162.0627
20
108.3957
0
VERTEX
8
CUT
10
159.3678
20
106.2975
0
VERTEX
8
CUT
10
156.4533
20
106.2509
0
VERTEX
8
CUT
10
154.9046
20
105.9253
0
VERTEX
8
CUT
10
153.8671
20
106.2149
0
VERTEX
8
CUT
10
152.3399
20
106.9695
0
VERTEX
8
CUT
10
150.4571
20
107.3311
0
VERTEX
8
CUT
10
149.4335
20
107.7323
0
VERTEX
8
CUT
10
146.6495
20
109.8755
0
VERTEX
8
CUT
10
145.8500
20
110.9577
0
VERTEX
8
CUT
10
144.9381
20
112.8945
0
VERTEX
8
CUT
10
144.9061
20
114.1226
0
VERTEX
8
CUT
10
145.4132
20
115.6243
0
VERTEX
8
CUT
10
146.7083
20
117.6626
0
VERTEX
8
CUT
10
148.7790
20
119.5655
0
VERTEX
8
CUT
10
150.4467
20
120.6971
0
VERTEX
8
CUT
10
152.6801
20
121.7096
0
VERTEX
8
CUT
10
154.9926
20
122.2754
0
VERTEX
8
CUT
10
158.6782
20
122.3360
0
VERTEX
8
CUT
10
159.2642
20
122.2518
0
SEQEND
0
POLYLINE
8
CUT
66
1
70
1
10
0.0
20
0.0
30
0.0
0
VERTEX
8
CUT
10
154.9742
20
113.0462
0
VERTEX
8
CUT
10
154.8239
20
112.6779
0
VERTEX
8
CUT
10
154.3775
20
110.3778
0
VERTEX
8
CUT
10
154.4144
20
110.0092
0
VERTEX
8
CUT
10
154.3852
20
109.8733
0
VERTEX
8
CUT
10
154.4691
20
109.1528
0
VERTEX
8
CUT
10
154.5039
20
109.1142
0
VERTEX
8
CUT
10
154.5434
20
108.7193
0
VERTEX
8
CUT
10
155.0245
20
108.6271
0
VERTEX
8
CUT
10
155.7501
20
109.3472
0
VERTEX
8
CUT
10
156.7669
20
111.0281
0
VERTEX
8
CUT
10
157.2069
20
112.1906
0
VERTEX
8
CUT
10
157.5321
20
114.9055
0
VERTEX
8
CUT
10
157.4391
20
116.1005
0
VERTEX
8
CUT
10
157.0946
20
116.7211
0
VERTEX
8
CUT
10
156.7078
20
116.6444
0
VERTEX
8
CUT
10
156.5751
20
116.4664
0
VERTEX
8
CUT
10
156.5678
20
116.4643
0
VERTEX
8
CUT
10
156.3806
20
116.2053
0
VERTEX
8
CUT
10
156.1231
20
115.8597
0
VERTEX
8
CUT
10
156.1130
20
115.8351
0
VERTEX
8
CUT
10
156.0195
20
115.7057
0
VERTEX
8
CUT
10
155.0010
20
113.1785
0
SEQEND
0
POLYLINE
8
CUT
66
1
70
1
10
0.0
20
0.0
30
0.0
0
VERTEX
8
CUT
10
198.0956
20
130.3262
0
VERTEX
8
CUT
10
198.1967
20
130.3328
0
VERTEX
8
CUT
10
198.3166
20
130.2773
0
VERTEX
8
CUT
10
198.6573
20
130.3087
0
VERTEX
8
CUT
10
198.7081
20
130.3747
0
VERTEX
8
CUT
10
198.8242
20
130.4868
0
VERTEX
8
CUT
10
198.9125
20
130.4890
0
VERTEX
8
CUT
10
199.4444
20
130.9510
0
VERTEX
8
CUT
10
199.5998
20
131.2355
0
VERTEX
8
CUT
10
199.8873
20
131.5131
0
VERTEX
8
CUT
10
199.9483
20
131.9838
0
VERTEX
8
CUT
10
199.9749
20
132.0183
0
VERTEX
8
CUT
10
200.0191
20
132.5301
0
VERTEX
8
CUT
10
200.1799
20
133.7711
0
VERTEX
8
CUT
10
200.2911
20
134.2752
0
VERTEX
8
CUT
10
200.3780
20
134.6692
0
VERTEX
8
CUT
10
200.4133
20
134.8295
0
VERTEX
8
CUT
10
200.4750
20
135.1089
0
VERTEX
8
CUT
10
200.6451
20
135.4266
0
VERTEX
8
CUT
10
201.7817
20
136.6827
0
VERTEX
8
CUT
10
202.2659
20
137.0282
0
VERTEX
8
CUT
10
202.7571
20
137.0770
0
VERTEX
8
CUT
10
203.9686
20
136.7112
0
VERTEX
8
CUT
10
204.0917
20
136.7054
0
VERTEX
8
CUT
10
204.1904
20
136.6642
0
VERTEX
8
CUT
10
205.0740
20
136.5441
0
VERTEX
8
CUT
10
205.3489
20
136.2842
0
VERTEX
8
CUT
10
205.6595
20
135.9311
0
VERTEX
8
CUT
10
206.2200
20
134.6498
0
VERTEX
8
CUT
10
206.7847
20
131.7434
0
VERTEX
8
CUT
10
206.8748
20
130.9412
0
VERTEX
8
CUT
10
206.9517
20
130.6915
0
VERTEX
8
CUT
10
206.9382
20
130.4349
0
VERTEX
8
CUT
10
207.1288
20
129.9719
0
VERTEX
8
CUT
10
207.1798
20
129.7096
0
VERTEX
8
CUT
10
207.3099
20
129.5321
0
VERTEX
8
CUT
10
207.3551
20
129.4224
0
VERTEX
8
CUT
10
207.4153
20
129.3884
0
VERTEX
8
CUT
10
207.6207
20
129.1083
0
VERTEX
8
CUT
10
207.6922
20
129.0663
0
VERTEX
8
CUT
10
207.7769
20
128.9517
0
VERTEX
8
CUT
10
208.3446
20
128.6822
0
VERTEX
8
CUT
10
208.5566
20
128.5574
0
VERTEX
8
CUT
10
208.6359
20
128.4896
0
VERTEX
8
CUT
10
209.1244
20
128.0716
0
VERTEX
8
CUT
10
209.1550
20
128.0454
0
VERTEX
8
CUT
10
209.5014
20
127.3763
0
VERTEX
8
CUT
10
209.6392
20
127.0257
0
VERTEX
8
CUT
10
209.4149
20
125.5985
0
VERTEX
8
CUT
10
208.6721
20
124.3700
0
VERTEX
8
CUT
10
208.3671
20
124.1012
0
VERTEX
8
CUT
10
208.3645
20
124.0989
0
VERTEX
8
CUT
10
208.1365
20
123.8979
0
VERTEX
8
CUT
10
207.9717
20
123.7526
0
VERTEX
8
CUT
10
206.6807
20
123.2019
0
VERTEX
8
CUT
10
205.0821
20
123.2088
0
VERTEX
8
CUT
10
202.9173
20
123.7355
0
VERTEX
8
CUT
10
199.9482
20
123.9840
0
VERTEX
8
CUT
10
199.1116
20
124.0765
0
VERTEX
8
CUT
10
198.9156
20
124.0981
0
VERTEX
8
CUT
10
198.7417
20
124.1173
0
VERTEX
8
CUT
10
198.6202
20
124.1308
0
VERTEX
8
CUT
10
198.4912
20
124.1450
0
VERTEX
8
CUT
10
198.3183
20
124.1641
0
VERTEX
8
CUT
10
197.1607
20
124.4323
0
VERTEX
8
CUT
10
197.1522
20
124.4348
0
VERTEX
8
CUT
10
197.1516
20
124.4350
0
VERTEX
8
CUT
10
197.1431
20
124.4376
0
VERTEX
8
CUT
10
197.1388
20
124.4389
0
VERTEX
8
CUT
10
197.1373
20
124.4394
0
VERTEX
8
CUT
10
197.1366
20
124.4396
0
VERTEX
8
CUT
10
195.9269
20
124.9568
0
VERTEX
8
CUT
10
194.4966
20
126.0143
0
VERTEX
8
CUT
10
194.1268
20
126.3785
0
VERTEX
8
CUT
10
194.1160
20
126.3907
0
VERTEX
8
CUT
10
192.9802
20
127.8106
0
VERTEX
8
CUT
10
192.4352
20
128.9250
0
VERTEX
8
CUT
10
192.5756
20
130.1402
0
VERTEX
8
CUT
10
193.4247
20
131.0876
0
VERTEX
8
CUT
10
194.6765
20
131.4487
0
VERTEX
8
CUT
10
196.0187
20
131.1690
0
SEQEND
0
ENDSEC
0
EOF
