0
SECTION
2
HEADER
9
$ACADVER
1
AC1009
9
$INSUNITS
70
4
0
ENDSEC
0
SECTION
2
TABLES
0
TABLE
2
LAYER
70
1
0
LAYER
2
CUT
70
0
62
7
6
CONTINUOUS
0
ENDTAB
0
ENDSEC
0
SECTION
2
ENTITIES
0
POLYLINE
8
CUT
66
1
70
1
10
0.0
20
0.0
30
0.0
0
VERTEX
8
CUT
10
170.8930
20
121.2198
0
VERTEX
8
CUT
10
170.4753
20
120.4501
0
VERTEX
8
CUT
10
169.8024
20
119.9118
0
VERTEX
8
CUT
10
169.4291
20
119.8177
0
VERTEX
8
CUT
10
168.9023
20
119.7517
0
VERTEX
8
CUT
10
167.7009
20
120.1447
0
VERTEX
8
CUT
10
163.2729
20
122.3567
0
VERTEX
8
CUT
10
163.1501
20
122.3982
0
VERTEX
8
CUT
10
163.1327
20
122.4243
0
VERTEX
8
CUT
10
162.2095
20
122.8710
0
VERTEX
8
CUT
10
160.7268
20
123.2152
0
VERTEX
8
CUT
10
160.4285
20
123.3158
0
VERTEX
8
CUT
10
160.2030
20
123.3368
0
VERTEX
8
CUT
10
158.8743
20
123.6452
0
VERTEX
8
CUT
10
156.0154
20
123.7048
0
VERTEX
8
CUT
10
153.2460
20
123.1688
0
VERTEX
8
CUT
10
152.0748
20
122.6881
0
VERTEX
8
CUT
10
151.0626
20
122.3895
0
VERTEX
8
CUT
10
150.3327
20
121.9731
0
VERTEX
8
CUT
10
149.2555
20
121.5309
0
VERTEX
8
CUT
10
147.0518
20
120.0419
0
VERTEX
8
CUT
10
146.0591
20
118.8876
0
VERTEX
8
CUT
10
142.7626
20
116.0267
0
VERTEX
8
CUT
10
142.1504
20
115.8432
0
VERTEX
8
CUT
10
141.1460
20
116.1511
0
VERTEX
8
CUT
10
138.5076
20
117.6937
0
VERTEX
8
CUT
10
137.6789
20
118.7325
0
VERTEX
8
CUT
10
137.7146
20
119.1652
0
VERTEX
8
CUT
10
138.5128
20
120.3538
0
VERTEX
8
CUT
10
138.8764
20
121.8762
0
VERTEX
8
CUT
10
139.2199
20
122.3631
0
VERTEX
8
CUT
10
139.7598
20
122.6559
0
VERTEX
8
CUT
10
140.7441
20
122.6289
0
VERTEX
8
CUT
10
141.6379
20
122.9443
0
VERTEX
8
CUT
10
144.7041
20
124.6115
0
VERTEX
8
CUT
10
148.1877
20
126.1301
0
VERTEX
8
CUT
10
151.8513
20
127.1294
0
VERTEX
8
CUT
10
155.6927
20
127.6058
0
VERTEX
8
CUT
10
157.7588
20
127.6662
0
VERTEX
8
CUT
10
160.5148
20
127.5452
0
VERTEX
8
CUT
10
165.2215
20
126.7708
0
VERTEX
8
CUT
10
167.2235
20
126.1225
0
VERTEX
8
CUT
10
168.7831
20
125.3411
0
VERTEX
8
CUT
10
169.9837
20
124.4125
0
VERTEX
8
CUT
10
170.7681
20
123.3149
0
VERTEX
8
CUT
10
171.0470
20
122.1858
0
SEQEND
0
POLYLINE
8
CUT
66
1
70
1
10
0.0
20
0.0
30
0.0
0
VERTEX
8
CUT
10
130.0657
20
145.4693
0
VERTEX
8
CUT
10
131.6595
20
145.0044
0
VERTEX
8
CUT
10
132.0781
20
144.8481
0
VERTEX
8
CUT
10
133.3518
20
144.1281
0
VERTEX
8
CUT
10
134.6170
20
143.1057
0
VERTEX
8
CUT
10
135.6215
20
141.9719
0
VERTEX
8
CUT
10
136.8794
20
139.4565
0
VERTEX
8
CUT
10
137.0763
20
138.1252
0
VERTEX
8
CUT
10
136.9879
20
136.8926
0
VERTEX
8
CUT
10
136.4974
20
135.7200
0
VERTEX
8
CUT
10
135.4827
20
134.4731
0
VERTEX
8
CUT
10
134.2624
20
133.8420
0
VERTEX
8
CUT
10
133.1561
20
133.7995
0
VERTEX
8
CUT
10
132.5564
20
134.1217
0
VERTEX
8
CUT
10
132.2182
20
135.5083
0
VERTEX
8
CUT
10
132.1917
20
135.7506
0
VERTEX
8
CUT
10
132.1011
20
135.9883
0
VERTEX
8
CUT
10
132.0240
20
136.3044
0
VERTEX
8
CUT
10
131.6851
20
136.9901
0
VERTEX
8
CUT
10
131.1728
20
137.6077
0
VERTEX
8
CUT
10
130.0344
20
138.2538
0
VERTEX
8
CUT
10
129.2213
20
138.3805
0
VERTEX
8
CUT
10
127.6831
20
138.1066
0
VERTEX
8
CUT
10
126.7228
20
137.4924
0
VERTEX
8
CUT
10
126.0752
20
136.7225
0
VERTEX
8
CUT
10
125.6784
20
135.7109
0
VERTEX
8
CUT
10
125.6159
20
134.6409
0
VERTEX
8
CUT
10
125.8716
20
133.5127
0
VERTEX
8
CUT
10
126.3618
20
132.4727
0
VERTEX
8
CUT
10
127.2173
20
131.4517
0
VERTEX
8
CUT
10
128.2894
20
130.6030
0
VERTEX
8
CUT
10
129.4729
20
130.0447
0
VERTEX
8
CUT
10
130.4305
20
129.9384
0
VERTEX
8
CUT
10
130.9131
20
129.7864
0
VERTEX
8
CUT
10
132.1584
20
129.6932
0
VERTEX
8
CUT
10
133.5087
20
129.8327
0
VERTEX
8
CUT
10
134.0904
20
129.8393
0
VERTEX
8
CUT
10
135.3729
20
130.0407
0
VERTEX
8
CUT
10
144.3546
20
133.4983
0
VERTEX
8
CUT
10
146.7393
20
134.0349
0
VERTEX
8
CUT
10
149.3014
20
134.2178
0
VERTEX
8
CUT
10
153.6080
20
134.1261
0
VERTEX
8
CUT
10
156.8437
20
133.5430
0
VERTEX
8
CUT
10
157.2221
20
133.4098
0
VERTEX
8
CUT
10
161.0626
20
131.8823
0
VERTEX
8
CUT
10
161.9534
20
131.3129
0
VERTEX
8
CUT
10
162.3225
20
130.7860
0
VERTEX
8
CUT
10
162.1993
20
130.4568
0
VERTEX
8
CUT
10
161.8288
20
130.3450
0
VERTEX
8
CUT
10
155.9780
20
130.6716
0
VERTEX
8
CUT
10
154.1686
20
130.6109
0
VERTEX
8
CUT
10
150.6605
20
130.0554
0
VERTEX
8
CUT
10
146.8533
20
128.8073
0
VERTEX
8
CUT
10
138.7183
20
125.0955
0
VERTEX
8
CUT
10
136.9977
20
124.4901
0
VERTEX
8
CUT
10
134.6713
20
124.0344
0
VERTEX
8
CUT
10
130.5919
20
123.7631
0
VERTEX
8
CUT
10
126.9971
20
124.4610
0
VERTEX
8
CUT
10
124.6753
20
125.3836
0
VERTEX
8
CUT
10
123.1570
20
126.2805
0
VERTEX
8
CUT
10
121.6454
20
127.4029
0
VERTEX
8
CUT
10
119.2614
20
129.9362
0
VERTEX
8
CUT
10
117.7298
20
132.8977
0
VERTEX
8
CUT
10
117.4285
20
134.1024
0
VERTEX
8
CUT
10
117.2726
20
135.4255
0
VERTEX
8
CUT
10
117.2542
20
135.5822
0
VERTEX
8
CUT
10
117.2457
20
135.6541
0
VERTEX
8
CUT
10
117.2448
20
135.6618
0
VERTEX
8
CUT
10
117.2128
20
136.0864
0
VERTEX
8
CUT
10
117.2716
20
136.8421
0
VERTEX
8
CUT
10
117.4058
20
137.8485
0
VERTEX
8
CUT
10
117.4159
20
137.9240
0
VERTEX
8
CUT
10
117.4230
20
137.9777
0
VERTEX
8
CUT
10
117.4238
20
137.9836
0
VERTEX
8
CUT
10
118.0761
20
140.1637
0
VERTEX
8
CUT
10
119.3616
20
142.2256
0
VERTEX
8
CUT
10
120.2429
20
143.1122
0
VERTEX
8
CUT
10
121.2890
20
143.9348
0
VERTEX
8
CUT
10
123.6633
20
145.1641
0
VERTEX
8
CUT
10
125.6235
20
145.5933
0
VERTEX
8
CUT
10
127.8607
20
145.7124
0
SEQEND
0
POLYLINE
8
CUT
66
1
70
1
10
0.0
20
0.0
30
0.0
0
VERTEX
8
CUT
10
0.0715
20
1.8750
0
VERTEX
8
CUT
10
0.0700
20
7.8718
0
VERTEX
8
CUT
10
0.0686
20
13.8848
0
VERTEX
8
CUT
10
0.0526
20
79.9120
0
VERTEX
8
CUT
10
0.0454
20
109.8495
0
VERTEX
8
CUT
10
0.1191
20
284.9896
0
VERTEX
8
CUT
10
0.2976
20
296.9865
0
VERTEX
8
CUT
10
0.4558
20
298.3313
0
VERTEX
8
CUT
10
0.8782
20
298.9577
0
VERTEX
8
CUT
10
1.0720
20
299.1638
0
VERTEX
8
CUT
10
1.5572
20
299.5236
0
VERTEX
8
CUT
10
27.2191
20
299.6129
0
VERTEX
8
CUT
10
245.5886
20
299.6272
0
VERTEX
8
CUT
10
298.3489
20
299.6264
0
VERTEX
8
CUT
10
298.6672
20
299.4413
0
VERTEX
8
CUT
10
299.5771
20
298.4734
0
VERTEX
8
CUT
10
299.6094
20
298.3957
0
VERTEX
8
CUT
10
299.7618
20
296.0960
0
VERTEX
8
CUT
10
299.9360
20
267.3332
0
VERTEX
8
CUT
10
299.9759
20
101.7682
0
VERTEX
8
CUT
10
299.9702
20
55.9573
0
VERTEX
8
CUT
10
299.7618
20
3.7248
0
VERTEX
8
CUT
10
299.6696
20
1.5786
0
VERTEX
8
CUT
10
299.3056
20
0.9770
0
VERTEX
8
CUT
10
298.3893
20
0.3273
0
VERTEX
8
CUT
10
279.5720
20
0.1191
0
VERTEX
8
CUT
10
2.5999
20
0.0003
0
VERTEX
8
CUT
10
1.9464
20
0.0001
0
SEQEND
0
POLYLINE
8
CUT
66
1
70
1
10
0.0
20
0.0
30
0.0
0
VERTEX
8
CUT
10
287.7594
20
173.5555
0
VERTEX
8
CUT
10
288.2359
20
173.5555
0
VERTEX
8
CUT
10
289.7546
20
174.3893
0
VERTEX
8
CUT
10
290.0524
20
174.8360
0
VERTEX
8
CUT
10
289.9929
20
175.1338
0
VERTEX
8
CUT
10
289.6057
20
175.2231
0
VERTEX
8
CUT
10
288.9804
20
175.0445
0
VERTEX
8
CUT
10
287.9083
20
174.3000
0
VERTEX
8
CUT
10
287.5807
20
173.7639
0
SEQEND
0
POLYLINE
8
CUT
66
1
70
1
10
0.0
20
0.0
30
0.0
0
VERTEX
8
CUT
10
289.2479
20
12.3299
0
VERTEX
8
CUT
10
289.2588
20
13.0045
0
VERTEX
8
CUT
10
289.2772
20
13.1785
0
VERTEX
8
CUT
10
289.3190
20
16.7128
0
VERTEX
8
CUT
10
289.4258
20
23.2917
0
VERTEX
8
CUT
10
289.4258
20
25.7838
0
VERTEX
8
CUT
10
289.4556
20
75.7306
0
VERTEX
8
CUT
10
289.4258
20
78.9360
0
VERTEX
8
CUT
10
289.4258
20
84.5418
0
VERTEX
8
CUT
10
289.3407
20
88.1086
0
VERTEX
8
CUT
10
289.3066
20
91.7800
0
VERTEX
8
CUT
10
289.2150
20
93.3720
0
VERTEX
8
CUT
10
289.1899
20
94.4202
0
VERTEX
8
CUT
10
289.1396
20
94.6826
0
VERTEX
8
CUT
10
289.1334
20
94.7893
0
VERTEX
8
CUT
10
289.1122
20
94.8252
0
VERTEX
8
CUT
10
289.0462
20
95.1688
0
VERTEX
8
CUT
10
288.4257
20
95.7842
0
VERTEX
8
CUT
10
287.7721
20
95.6922
0
VERTEX
8
CUT
10
287.5674
20
95.4302
0
VERTEX
8
CUT
10
287.1541
20
95.2188
0
VERTEX
8
CUT
10
286.8384
20
94.4974
0
VERTEX
8
CUT
10
286.8287
20
94.4849
0
VERTEX
8
CUT
10
282.0133
20
83.5543
0
VERTEX
8
CUT
10
282.0246
20
83.4943
0
VERTEX
8
CUT
10
281.8735
20
83.1488
0
VERTEX
8
CUT
10
282.1964
20
82.4755
0
VERTEX
8
CUT
10
282.9806
20
81.4741
0
VERTEX
8
CUT
10
284.7708
20
78.9077
0
VERTEX
8
CUT
10
285.2335
20
78.0680
0
VERTEX
8
CUT
10
286.2573
20
75.7769
0
VERTEX
8
CUT
10
287.2227
20
72.1558
0
VERTEX
8
CUT
10
287.7224
20
67.9491
0
VERTEX
8
CUT
10
287.6967
20
65.2796
0
VERTEX
8
CUT
10
287.5522
20
61.9933
0
VERTEX
8
CUT
10
287.1006
20
58.9189
0
VERTEX
8
CUT
10
285.5515
20
51.9783
0
VERTEX
8
CUT
10
282.7862
20
41.6611
0
VERTEX
8
CUT
10
282.1952
20
37.4893
0
VERTEX
8
CUT
10
282.2816
20
35.9483
0
VERTEX
8
CUT
10
282.6281
20
34.6224
0
VERTEX
8
CUT
10
283.2494
20
33.4423
0
VERTEX
8
CUT
10
285.8076
20
29.8349
0
VERTEX
8
CUT
10
286.4275
20
28.3300
0
VERTEX
8
CUT
10
286.4407
20
28.2780
0
VERTEX
8
CUT
10
286.4416
20
28.2744
0
VERTEX
8
CUT
10
286.4417
20
28.2742
0
VERTEX
8
CUT
10
286.4417
20
28.2741
0
VERTEX
8
CUT
10
286.7477
20
26.5194
0
VERTEX
8
CUT
10
286.8377
20
23.4412
0
VERTEX
8
CUT
10
286.5295
20
21.5857
0
VERTEX
8
CUT
10
285.9457
20
19.8777
0
VERTEX
8
CUT
10
284.3044
20
17.1917
0
VERTEX
8
CUT
10
284.0283
20
16.8856
0
VERTEX
8
CUT
10
282.8378
20
15.7292
0
VERTEX
8
CUT
10
281.7688
20
14.8410
0
VERTEX
8
CUT
10
280.7715
20
14.2345
0
VERTEX
8
CUT
10
279.5182
20
13.5787
0
VERTEX
8
CUT
10
278.3509
20
13.3045
0
VERTEX
8
CUT
10
277.3908
20
13.1181
0
VERTEX
8
CUT
10
276.8863
20
13.1873
0
VERTEX
8
CUT
10
276.1550
20
13.3277
0
VERTEX
8
CUT
10
275.1762
20
13.9871
0
VERTEX
8
CUT
10
274.3686
20
15.0611
0
VERTEX
8
CUT
10
273.8301
20
16.4408
0
VERTEX
8
CUT
10
273.6288
20
17.4800
0
VERTEX
8
CUT
10
273.5236
20
21.1112
0
VERTEX
8
CUT
10
273.6448
20
23.6137
0
VERTEX
8
CUT
10
273.9926
20
26.1364
0
VERTEX
8
CUT
10
273.8422
20
26.4336
0
VERTEX
8
CUT
10
273.5547
20
26.5125
0
VERTEX
8
CUT
10
273.2737
20
26.3336
0
VERTEX
8
CUT
10
271.7045
20
23.4302
0
VERTEX
8
CUT
10
271.6787
20
23.3858
0
VERTEX
8
CUT
10
271.6557
20
23.3464
0
VERTEX
8
CUT
10
271.6519
20
23.3399
0
VERTEX
8
CUT
10
271.6282
20
23.2993
0
VERTEX
8
CUT
10
270.6037
20
21.7607
0
VERTEX
8
CUT
10
267.9637
20
18.6735
0
VERTEX
8
CUT
10
267.8312
20
18.5185
0
VERTEX
8
CUT
10
267.8230
20
18.5089
0
VERTEX
8
CUT
10
267.8227
20
18.5085
0
VERTEX
8
CUT
10
266.8914
20
17.6087
0
VERTEX
8
CUT
10
266.8430
20
17.5674
0
VERTEX
8
CUT
10
266.7958
20
17.5272
0
VERTEX
8
CUT
10
266.6872
20
17.4347
0
VERTEX
8
CUT
10
266.5226
20
17.2945
0
VERTEX
8
CUT
10
264.7815
20
15.9576
0
VERTEX
8
CUT
10
262.6759
20
14.6670
0
VERTEX
8
CUT
10
260.4921
20
13.6341
0
VERTEX
8
CUT
10
258.1706
20
12.8474
0
VERTEX
8
CUT
10
255.5718
20
12.3313
0
VERTEX
8
CUT
10
250.3756
20
12.2396
0
VERTEX
8
CUT
10
246.4007
20
12.6279
0
VERTEX
8
CUT
10
244.2330
20
13.1680
0
VERTEX
8
CUT
10
242.2427
20
14.0233
0
VERTEX
8
CUT
10
240.5163
20
15.0257
0
VERTEX
8
CUT
10
238.5425
20
16.7366
0
VERTEX
8
CUT
10
238.4875
20
16.8014
0
VERTEX
8
CUT
10
237.0759
20
18.9187
0
VERTEX
8
CUT
10
236.4245
20
20.4990
0
VERTEX
8
CUT
10
236.1802
20
22.0343
0
VERTEX
8
CUT
10
236.0711
20
25.2146
0
VERTEX
8
CUT
10
235.8122
20
25.4190
0
VERTEX
8
CUT
10
235.5207
20
25.3726
0
VERTEX
8
CUT
10
229.3351
20
20.7284
0
VERTEX
8
CUT
10
228.7673
20
20.3415
0
VERTEX
8
CUT
10
225.0997
20
17.9318
0
VERTEX
8
CUT
10
219.6436
20
15.1577
0
VERTEX
8
CUT
10
217.6441
20
13.9155
0
VERTEX
8
CUT
10
216.7845
20
12.8572
0
VERTEX
8
CUT
10
216.7825
20
12.8277
0
VERTEX
8
CUT
10
216.6769
20
12.6978
0
VERTEX
8
CUT
10
216.7091
20
12.3648
0
VERTEX
8
CUT
10
216.8314
20
12.2229
0
VERTEX
8
CUT
10
217.0783
20
11.5687
0
VERTEX
8
CUT
10
217.5782
20
11.2076
0
VERTEX
8
CUT
10
218.1738
20
11.0712
0
VERTEX
8
CUT
10
218.4723
20
10.8422
0
VERTEX
8
CUT
10
220.0691
20
10.8430
0
VERTEX
8
CUT
10
221.3236
20
10.7532
0
VERTEX
8
CUT
10
232.1605
20
10.5742
0
VERTEX
8
CUT
10
278.6779
20
10.5742
0
VERTEX
8
CUT
10
287.8728
20
10.7518
0
VERTEX
8
CUT
10
289.0268
20
11.0236
0
VERTEX
8
CUT
10
289.0643
20
11.2450
0
VERTEX
8
CUT
10
289.0734
20
11.2463
0
VERTEX
8
CUT
10
289.0880
20
11.3852
0
SEQEND
0
POLYLINE
8
CUT
66
1
70
1
10
0.0
20
0.0
30
0.0
0
VERTEX
8
CUT
10
271.6175
20
276.7187
0
VERTEX
8
CUT
10
271.6327
20
276.6941
0
VERTEX
8
CUT
10
271.6351
20
276.6901
0
VERTEX
8
CUT
10
271.6352
20
276.6899
0
VERTEX
8
CUT
10
273.1435
20
273.9607
0
VERTEX
8
CUT
10
273.4159
20
273.7760
0
VERTEX
8
CUT
10
273.7325
20
273.8658
0
VERTEX
8
CUT
10
273.8672
20
274.1661
0
VERTEX
8
CUT
10
273.5322
20
278.2032
0
VERTEX
8
CUT
10
273.4521
20
279.7390
0
VERTEX
8
CUT
10
273.5876
20
282.5323
0
VERTEX
8
CUT
10
274.0516
20
284.6330
0
VERTEX
8
CUT
10
274.0608
20
284.6595
0
VERTEX
8
CUT
10
274.0742
20
284.6977
0
VERTEX
8
CUT
10
274.0751
20
284.7005
0
VERTEX
8
CUT
10
274.1022
20
284.7778
0
VERTEX
8
CUT
10
274.6351
20
285.5216
0
VERTEX
8
CUT
10
275.1032
20
286.0444
0
VERTEX
8
CUT
10
275.1170
20
286.0597
0
VERTEX
8
CUT
10
275.1291
20
286.0732
0
VERTEX
8
CUT
10
275.3438
20
286.3129
0
VERTEX
8
CUT
10
275.9237
20
286.7508
0
VERTEX
8
CUT
10
276.8716
20
287.1293
0
VERTEX
8
CUT
10
277.6781
20
287.0970
0
VERTEX
8
CUT
10
278.0229
20
287.0502
0
VERTEX
8
CUT
10
279.2802
20
286.8240
0
VERTEX
8
CUT
10
279.6224
20
286.7176
0
VERTEX
8
CUT
10
279.7403
20
286.6700
0
VERTEX
8
CUT
10
281.9976
20
285.3805
0
VERTEX
8
CUT
10
284.1198
20
283.3531
0
VERTEX
8
CUT
10
285.2627
20
281.6387
0
VERTEX
8
CUT
10
286.0931
20
280.0846
0
VERTEX
8
CUT
10
286.2407
20
279.7365
0
VERTEX
8
CUT
10
286.4736
20
278.9942
0
VERTEX
8
CUT
10
286.4937
20
278.9302
0
VERTEX
8
CUT
10
286.5010
20
278.9068
0
VERTEX
8
CUT
10
286.5021
20
278.9032
0
VERTEX
8
CUT
10
286.8064
20
276.9737
0
VERTEX
8
CUT
10
286.8079
20
273.8798
0
VERTEX
8
CUT
10
286.6469
20
272.8287
0
VERTEX
8
CUT
10
286.0072
20
270.9512
0
VERTEX
8
CUT
10
283.9591
20
267.5554
0
VERTEX
8
CUT
10
283.3402
20
266.6210
0
VERTEX
8
CUT
10
283.0669
20
266.0762
0
VERTEX
8
CUT
10
282.6286
20
265.3494
0
VERTEX
8
CUT
10
282.2816
20
263.9929
0
VERTEX
8
CUT
10
282.1959
20
262.3912
0
VERTEX
8
CUT
10
282.8745
20
258.0152
0
VERTEX
8
CUT
10
286.2346
20
245.5278
0
VERTEX
8
CUT
10
287.1012
20
241.5248
0
VERTEX
8
CUT
10
287.5224
20
238.0645
0
VERTEX
8
CUT
10
287.6110
20
231.7854
0
VERTEX
8
CUT
10
287.2992
20
228.6216
0
VERTEX
8
CUT
10
287.1895
20
227.7330
0
VERTEX
8
CUT
10
286.3440
20
224.9312
0
VERTEX
8
CUT
10
284.8945
20
221.7679
0
VERTEX
8
CUT
10
282.3330
20
218.0755
0
VERTEX
8
CUT
10
281.8598
20
217.4343
0
VERTEX
8
CUT
10
281.8709
20
217.4094
0
VERTEX
8
CUT
10
281.8552
20
217.3867
0
VERTEX
8
CUT
10
286.7380
20
206.0921
0
VERTEX
8
CUT
10
287.8695
20
204.8289
0
VERTEX
8
CUT
10
288.2405
20
204.7325
0
VERTEX
8
CUT
10
288.6716
20
204.9958
0
VERTEX
8
CUT
10
289.0857
20
205.5244
0
VERTEX
8
CUT
10
289.1142
20
205.8224
0
VERTEX
8
CUT
10
289.2190
20
206.4701
0
VERTEX
8
CUT
10
289.2306
20
207.0407
0
VERTEX
8
CUT
10
289.3061
20
207.8310
0
VERTEX
8
CUT
10
289.4258
20
215.9645
0
VERTEX
8
CUT
10
289.4258
20
259.9123
0
VERTEX
8
CUT
10
289.4258
20
274.3555
0
VERTEX
8
CUT
10
289.2772
20
286.8216
0
VERTEX
8
CUT
10
289.0967
20
288.7249
0
VERTEX
8
CUT
10
288.6780
20
288.7883
0
VERTEX
8
CUT
10
288.5247
20
288.8758
0
VERTEX
8
CUT
10
287.8243
20
288.9175
0
VERTEX
8
CUT
10
287.4146
20
288.9795
0
VERTEX
8
CUT
10
286.5909
20
288.9910
0
VERTEX
8
CUT
10
285.7953
20
289.0384
0
VERTEX
8
CUT
10
278.2260
20
289.1280
0
VERTEX
8
CUT
10
276.8245
20
289.1272
0
VERTEX
8
CUT
10
276.7671
20
289.1280
0
VERTEX
8
CUT
10
276.6813
20
289.1280
0
VERTEX
8
CUT
10
276.6778
20
289.1280
0
VERTEX
8
CUT
10
218.1226
20
289.1578
0
VERTEX
8
CUT
10
217.5096
20
288.6182
0
VERTEX
8
CUT
10
217.3614
20
288.5871
0
VERTEX
8
CUT
10
216.9261
20
288.2506
0
VERTEX
8
CUT
10
216.8359
20
287.6403
0
VERTEX
8
CUT
10
216.6694
20
287.0816
0
VERTEX
8
CUT
10
217.2358
20
286.1947
0
VERTEX
8
CUT
10
226.9810
20
280.0396
0
VERTEX
8
CUT
10
235.7153
20
273.7191
0
VERTEX
8
CUT
10
236.0403
20
273.7797
0
VERTEX
8
CUT
10
236.1970
20
274.0306
0
VERTEX
8
CUT
10
236.4275
20
279.5121
0
VERTEX
8
CUT
10
236.6052
20
280.0712
0
VERTEX
8
CUT
10
236.7665
20
280.5110
0
VERTEX
8
CUT
10
237.8216
20
282.3596
0
VERTEX
8
CUT
10
237.9380
20
282.5213
0
VERTEX
8
CUT
10
239.2806
20
283.9550
0
VERTEX
8
CUT
10
239.9275
20
284.5166
0
VERTEX
8
CUT
10
241.6915
20
285.7589
0
VERTEX
8
CUT
10
244.3087
20
286.9357
0
VERTEX
8
CUT
10
244.3249
20
286.9411
0
VERTEX
8
CUT
10
246.9748
20
287.6364
0
VERTEX
8
CUT
10
249.3816
20
287.8555
0
VERTEX
8
CUT
10
250.2171
20
287.9095
0
VERTEX
8
CUT
10
253.1180
20
287.9090
0
VERTEX
8
CUT
10
253.7759
20
287.9008
0
VERTEX
8
CUT
10
256.5067
20
287.6709
0
VERTEX
8
CUT
10
259.0006
20
287.0924
0
VERTEX
8
CUT
10
259.0444
20
287.0763
0
VERTEX
8
CUT
10
262.3967
20
285.6246
0
VERTEX
8
CUT
10
263.3909
20
285.0421
0
VERTEX
8
CUT
10
265.8370
20
283.3557
0
VERTEX
8
CUT
10
268.7876
20
280.5243
0
VERTEX
8
CUT
10
271.1725
20
277.4411
0
SEQEND
0
POLYLINE
8
CUT
66
1
70
1
10
0.0
20
0.0
30
0.0
0
VERTEX
8
CUT
10
283.0076
20
145.7879
0
VERTEX
8
CUT
10
282.7550
20
146.2804
0
VERTEX
8
CUT
10
282.2193
20
159.6094
0
VERTEX
8
CUT
10
282.0084
20
161.5112
0
VERTEX
8
CUT
10
281.9810
20
161.8991
0
VERTEX
8
CUT
10
281.9187
20
162.3202
0
VERTEX
8
CUT
10
281.5865
20
165.3154
0
VERTEX
8
CUT
10
281.1965
20
165.5554
0
VERTEX
8
CUT
10
280.4931
20
165.2351
0
VERTEX
8
CUT
10
271.8477
20
159.8866
0
VERTEX
8
CUT
10
265.7801
20
156.6883
0
VERTEX
8
CUT
10
261.0448
20
154.4365
0
VERTEX
8
CUT
10
260.8343
20
154.3402
0
VERTEX
8
CUT
10
250.6173
20
150.2181
0
VERTEX
8
CUT
10
250.5043
20
150.1768
0
VERTEX
8
CUT
10
241.6293
20
147.3432
0
VERTEX
8
CUT
10
241.1362
20
147.1919
0
VERTEX
8
CUT
10
240.8334
20
147.0989
0
VERTEX
8
CUT
10
240.1864
20
146.9003
0
VERTEX
8
CUT
10
239.5819
20
146.7148
0
VERTEX
8
CUT
10
236.8740
20
146.0143
0
VERTEX
8
CUT
10
230.1281
20
144.4990
0
VERTEX
8
CUT
10
229.8085
20
144.4321
0
VERTEX
8
CUT
10
222.6900
20
143.3052
0
VERTEX
8
CUT
10
222.4800
20
143.2294
0
VERTEX
8
CUT
10
222.3917
20
143.2159
0
VERTEX
8
CUT
10
220.9585
20
142.6912
0
VERTEX
8
CUT
10
220.9588
20
142.6808
0
VERTEX
8
CUT
10
220.9256
20
142.6688
0
VERTEX
8
CUT
10
220.8430
20
142.3763
0
VERTEX
8
CUT
10
220.8612
20
142.3432
0
VERTEX
8
CUT
10
220.8401
20
142.2704
0
VERTEX
8
CUT
10
220.9730
20
142.1236
0
VERTEX
8
CUT
10
220.9732
20
142.1137
0
VERTEX
8
CUT
10
220.9856
20
142.1097
0
VERTEX
8
CUT
10
220.9966
20
142.0975
0
VERTEX
8
CUT
10
221.0217
20
142.0519
0
VERTEX
8
CUT
10
221.0431
20
142.0461
0
VERTEX
8
CUT
10
221.2170
20
141.8542
0
VERTEX
8
CUT
10
223.9684
20
141.6038
0
VERTEX
8
CUT
10
226.1364
20
141.6135
0
VERTEX
8
CUT
10
229.9872
20
141.4547
0
VERTEX
8
CUT
10
235.0756
20
141.4369
0
VERTEX
8
CUT
10
239.8043
20
141.3355
0
VERTEX
8
CUT
10
248.6389
20
141.6209
0
VERTEX
8
CUT
10
255.4130
20
141.7523
0
VERTEX
8
CUT
10
261.5984
20
142.1689
0
VERTEX
8
CUT
10
266.3651
20
142.7232
0
VERTEX
8
CUT
10
268.4983
20
142.9422
0
VERTEX
8
CUT
10
269.4524
20
143.0822
0
VERTEX
8
CUT
10
273.1045
20
143.5068
0
VERTEX
8
CUT
10
279.2543
20
144.4870
0
VERTEX
8
CUT
10
282.4388
20
145.2825
0
VERTEX
8
CUT
10
282.8909
20
145.5115
0
SEQEND
0
POLYLINE
8
CUT
66
1
70
1
10
0.0
20
0.0
30
0.0
0
VERTEX
8
CUT
10
166.5572
20
63.1740
0
VERTEX
8
CUT
10
166.5609
20
63.2935
0
VERTEX
8
CUT
10
166.5737
20
63.4523
0
VERTEX
8
CUT
10
166.5871
20
63.5550
0
VERTEX
8
CUT
10
166.2380
20
63.4333
0
VERTEX
8
CUT
10
163.2206
20
62.7233
0
VERTEX
8
CUT
10
160.1000
20
62.3309
0
VERTEX
8
CUT
10
157.4284
20
62.2989
0
VERTEX
8
CUT
10
157.1115
20
62.4258
0
VERTEX
8
CUT
10
156.9401
20
62.7455
0
VERTEX
8
CUT
10
157.4307
20
63.5628
0
VERTEX
8
CUT
10
158.3016
20
64.1799
0
VERTEX
8
CUT
10
158.9338
20
64.5332
0
VERTEX
8
CUT
10
160.3930
20
65.6052
0
VERTEX
8
CUT
10
160.5230
20
65.7538
0
VERTEX
8
CUT
10
162.4545
20
67.1224
0
VERTEX
8
CUT
10
164.6677
20
68.4036
0
VERTEX
8
CUT
10
168.1952
20
69.8935
0
VERTEX
8
CUT
10
169.8059
20
70.7704
0
VERTEX
8
CUT
10
170.2098
20
70.9558
0
VERTEX
8
CUT
10
170.4524
20
71.1224
0
VERTEX
8
CUT
10
170.8753
20
71.3527
0
VERTEX
8
CUT
10
171.4915
20
71.8358
0
VERTEX
8
CUT
10
172.0064
20
72.1893
0
VERTEX
8
CUT
10
172.4974
20
72.6245
0
VERTEX
8
CUT
10
173.4959
20
73.4074
0
VERTEX
8
CUT
10
173.6830
20
73.7068
0
VERTEX
8
CUT
10
174.9465
20
75.2488
0
VERTEX
8
CUT
10
175.7003
20
76.4696
0
VERTEX
8
CUT
10
175.8118
20
76.6321
0
VERTEX
8
CUT
10
175.8444
20
76.7030
0
VERTEX
8
CUT
10
176.0903
20
77.1012
0
VERTEX
8
CUT
10
177.0903
20
79.2236
0
VERTEX
8
CUT
10
178.2534
20
82.5359
0
VERTEX
8
CUT
10
178.1664
20
82.9271
0
VERTEX
8
CUT
10
177.8555
20
83.0475
0
VERTEX
8
CUT
10
177.5890
20
82.9134
0
VERTEX
8
CUT
10
175.7604
20
80.1695
0
VERTEX
8
CUT
10
173.0202
20
77.3698
0
VERTEX
8
CUT
10
168.7505
20
74.3298
0
VERTEX
8
CUT
10
166.0095
20
73.1232
0
VERTEX
8
CUT
10
159.9907
20
71.0059
0
VERTEX
8
CUT
10
154.0741
20
67.3941
0
VERTEX
8
CUT
10
151.3408
20
66.1304
0
VERTEX
8
CUT
10
149.1487
20
65.5152
0
VERTEX
8
CUT
10
148.3741
20
65.5736
0
VERTEX
8
CUT
10
147.9321
20
65.8302
0
VERTEX
8
CUT
10
147.8844
20
66.1322
0
VERTEX
8
CUT
10
152.9290
20
72.6398
0
VERTEX
8
CUT
10
155.1025
20
74.6370
0
VERTEX
8
CUT
10
157.6710
20
76.1657
0
VERTEX
8
CUT
10
160.9857
20
77.3767
0
VERTEX
8
CUT
10
161.1077
20
77.3979
0
VERTEX
8
CUT
10
161.2216
20
77.4629
0
VERTEX
8
CUT
10
163.8531
20
78.4243
0
VERTEX
8
CUT
10
166.1086
20
79.4636
0
VERTEX
8
CUT
10
167.3401
20
80.3089
0
VERTEX
8
CUT
10
167.4260
20
80.3545
0
VERTEX
8
CUT
10
167.4901
20
80.4119
0
VERTEX
8
CUT
10
168.7218
20
81.2573
0
VERTEX
8
CUT
10
170.5186
20
83.0829
0
VERTEX
8
CUT
10
171.3728
20
84.2564
0
VERTEX
8
CUT
10
172.7550
20
86.9532
0
VERTEX
8
CUT
10
173.3191
20
88.6969
0
VERTEX
8
CUT
10
174.9328
20
97.0235
0
VERTEX
8
CUT
10
175.4682
20
98.8674
0
VERTEX
8
CUT
10
178.5419
20
105.3192
0
VERTEX
8
CUT
10
179.4320
20
107.6966
0
VERTEX
8
CUT
10
179.8666
20
110.8584
0
VERTEX
8
CUT
10
179.8678
20
117.3146
0
VERTEX
8
CUT
10
180.2386
20
119.1928
0
VERTEX
8
CUT
10
180.8132
20
120.2705
0
VERTEX
8
CUT
10
182.2121
20
121.8160
0
VERTEX
8
CUT
10
183.3274
20
122.6162
0
VERTEX
8
CUT
10
184.6212
20
123.1730
0
VERTEX
8
CUT
10
184.7045
20
123.1732
0
VERTEX
8
CUT
10
185.4803
20
123.5438
0
VERTEX
8
CUT
10
185.7634
20
123.8375
0
VERTEX
8
CUT
10
186.3439
20
124.2825
0
VERTEX
8
CUT
10
187.4261
20
125.5689
0
VERTEX
8
CUT
10
187.5691
20
125.9721
0
VERTEX
8
CUT
10
187.4368
20
126.3569
0
VERTEX
8
CUT
10
186.4905
20
126.9779
0
VERTEX
8
CUT
10
184.5585
20
127.6868
0
VERTEX
8
CUT
10
182.4404
20
126.8935
0
VERTEX
8
CUT
10
181.0968
20
126.6250
0
VERTEX
8
CUT
10
178.7543
20
126.9833
0
VERTEX
8
CUT
10
176.8983
20
127.7557
0
VERTEX
8
CUT
10
173.3209
20
130.0513
0
VERTEX
8
CUT
10
169.5165
20
133.3739
0
VERTEX
8
CUT
10
167.7212
20
135.2281
0
VERTEX
8
CUT
10
164.8757
20
138.8193
0
VERTEX
8
CUT
10
163.5227
20
141.5905
0
VERTEX
8
CUT
10
163.5065
20
142.3704
0
VERTEX
8
CUT
10
164.1209
20
143.0089
0
VERTEX
8
CUT
10
163.7954
20
143.4572
0
VERTEX
8
CUT
10
158.1312
20
143.9554
0
VERTEX
8
CUT
10
151.4382
20
144.8491
0
VERTEX
8
CUT
10
151.1980
20
144.6750
0
VERTEX
8
CUT
10
151.1605
20
144.3458
0
VERTEX
8
CUT
10
152.1469
20
143.4335
0
VERTEX
8
CUT
10
152.2310
20
142.3989
0
VERTEX
8
CUT
10
151.9655
20
141.6110
0
VERTEX
8
CUT
10
151.3438
20
140.6552
0
VERTEX
8
CUT
10
150.8572
20
140.3268
0
VERTEX
8
CUT
10
150.4212
20
140.2920
0
VERTEX
8
CUT
10
145.6278
20
143.6577
0
VERTEX
8
CUT
10
145.3893
20
144.5103
0
VERTEX
8
CUT
10
145.6305
20
144.8468
0
VERTEX
8
CUT
10
146.3613
20
145.1523
0
VERTEX
8
CUT
10
146.3984
20
145.4812
0
VERTEX
8
CUT
10
146.1691
20
145.7198
0
VERTEX
8
CUT
10
135.3059
20
147.6506
0
VERTEX
8
CUT
10
120.1044
20
150.8765
0
VERTEX
8
CUT
10
119.7982
20
150.6820
0
VERTEX
8
CUT
10
119.8031
20
150.2864
0
VERTEX
8
CUT
10
121.6640
20
148.9698
0
VERTEX
8
CUT
10
121.8588
20
148.4365
0
VERTEX
8
CUT
10
121.6927
20
148.1104
0
VERTEX
8
CUT
10
118.6113
20
146.7262
0
VERTEX
8
CUT
10
117.4739
20
146.0014
0
VERTEX
8
CUT
10
116.3986
20
145.0451
0
VERTEX
8
CUT
10
113.7141
20
142.0069
0
VERTEX
8
CUT
10
112.8344
20
141.3532
0
VERTEX
8
CUT
10
112.0570
20
141.1945
0
VERTEX
8
CUT
10
111.6606
20
141.4988
0
VERTEX
8
CUT
10
111.4157
20
142.1009
0
VERTEX
8
CUT
10
109.9520
20
147.0562
0
VERTEX
8
CUT
10
108.2455
20
151.3807
0
VERTEX
8
CUT
10
107.0418
20
152.8425
0
VERTEX
8
CUT
10
107.0222
20
154.0508
0
VERTEX
8
CUT
10
102.0633
20
155.6332
0
VERTEX
8
CUT
10
98.1298
20
156.6047
0
VERTEX
8
CUT
10
97.8970
20
156.6700
0
VERTEX
8
CUT
10
97.8883
20
156.6643
0
VERTEX
8
CUT
10
97.4721
20
156.7671
0
VERTEX
8
CUT
10
97.2366
20
156.5365
0
VERTEX
8
CUT
10
97.2623
20
156.2078
0
VERTEX
8
CUT
10
100.2705
20
152.5188
0
VERTEX
8
CUT
10
102.8668
20
147.8035
0
VERTEX
8
CUT
10
106.8885
20
137.0239
0
VERTEX
8
CUT
10
108.5422
20
133.5063
0
VERTEX
8
CUT
10
110.4438
20
130.5018
0
VERTEX
8
CUT
10
112.6563
20
127.9647
0
VERTEX
8
CUT
10
115.2227
20
125.7820
0
VERTEX
8
CUT
10
118.2850
20
123.9104
0
VERTEX
8
CUT
10
121.8958
20
122.2252
0
VERTEX
8
CUT
10
131.4592
20
118.7503
0
VERTEX
8
CUT
10
135.5948
20
116.5758
0
VERTEX
8
CUT
10
139.0187
20
113.9323
0
VERTEX
8
CUT
10
140.5564
20
112.3359
0
VERTEX
8
CUT
10
145.5986
20
106.9926
0
VERTEX
8
CUT
10
148.1386
20
104.8316
0
VERTEX
8
CUT
10
149.4340
20
104.0167
0
VERTEX
8
CUT
10
150.6999
20
103.3712
0
VERTEX
8
CUT
10
153.4533
20
102.4146
0
VERTEX
8
CUT
10
156.5874
20
101.9993
0
VERTEX
8
CUT
10
157.6392
20
102.1173
0
VERTEX
8
CUT
10
157.9028
20
102.1175
0
VERTEX
8
CUT
10
158.3605
20
102.1982
0
VERTEX
8
CUT
10
159.6629
20
102.3444
0
VERTEX
8
CUT
10
162.5958
20
103.4521
0
VERTEX
8
CUT
10
163.5708
20
104.1482
0
VERTEX
8
CUT
10
164.4188
20
104.6824
0
VERTEX
8
CUT
10
164.7579
20
104.9956
0
VERTEX
8
CUT
10
165.5078
20
105.5309
0
VERTEX
8
CUT
10
172.1810
20
113.7822
0
VERTEX
8
CUT
10
172.4499
20
114.0645
0
VERTEX
8
CUT
10
172.9233
20
114.5449
0
VERTEX
8
CUT
10
173.3436
20
114.9715
0
VERTEX
8
CUT
10
173.7284
20
115.3620
0
VERTEX
8
CUT
10
173.7356
20
115.3693
0
VERTEX
8
CUT
10
173.7998
20
115.4344
0
VERTEX
8
CUT
10
173.8314
20
115.4665
0
VERTEX
8
CUT
10
173.9757
20
115.6130
0
VERTEX
8
CUT
10
174.0334
20
115.6715
0
VERTEX
8
CUT
10
174.1454
20
115.7852
0
VERTEX
8
CUT
10
174.1577
20
115.7976
0
VERTEX
8
CUT
10
176.0757
20
117.2402
0
VERTEX
8
CUT
10
176.8506
20
117.3333
0
VERTEX
8
CUT
10
177.3245
20
117.1858
0
VERTEX
8
CUT
10
178.3472
20
116.2543
0
VERTEX
8
CUT
10
178.9413
20
114.4621
0
VERTEX
8
CUT
10
178.8870
20
112.9696
0
VERTEX
8
CUT
10
178.5895
20
112.1014
0
VERTEX
8
CUT
10
177.4591
20
110.1091
0
VERTEX
8
CUT
10
173.5014
20
104.5138
0
VERTEX
8
CUT
10
172.4210
20
102.4194
0
VERTEX
8
CUT
10
171.8906
20
100.1702
0
VERTEX
8
CUT
10
171.4998
20
94.5499
0
VERTEX
8
CUT
10
170.9040
20
90.8550
0
VERTEX
8
CUT
10
170.4059
20
89.2711
0
VERTEX
8
CUT
10
169.0068
20
86.6215
0
VERTEX
8
CUT
10
166.8136
20
84.0585
0
VERTEX
8
CUT
10
164.3905
20
82.0843
0
VERTEX
8
CUT
10
161.0156
20
80.3931
0
VERTEX
8
CUT
10
158.8074
20
79.8385
0
VERTEX
8
CUT
10
157.9911
20
79.9809
0
VERTEX
8
CUT
10
157.9358
20
80.4851
0
VERTEX
8
CUT
10
157.9437
20
80.5462
0
VERTEX
8
CUT
10
157.9437
20
80.5464
0
VERTEX
8
CUT
10
157.9446
20
80.5533
0
VERTEX
8
CUT
10
157.9567
20
80.6470
0
VERTEX
8
CUT
10
159.8041
20
86.8236
0
VERTEX
8
CUT
10
159.8570
20
86.8677
0
VERTEX
8
CUT
10
160.1845
20
88.0589
0
VERTEX
8
CUT
10
160.1941
20
88.1277
0
VERTEX
8
CUT
10
160.8807
20
90.4233
0
VERTEX
8
CUT
10
161.2903
20
91.5606
0
VERTEX
8
CUT
10
163.5496
20
96.7247
0
VERTEX
8
CUT
10
164.0559
20
98.0350
0
VERTEX
8
CUT
10
164.0856
20
98.3030
0
VERTEX
8
CUT
10
163.9070
20
98.4221
0
VERTEX
8
CUT
10
163.5198
20
98.4817
0
VERTEX
8
CUT
10
163.1878
20
98.2020
0
VERTEX
8
CUT
10
162.9303
20
98.1609
0
VERTEX
8
CUT
10
161.9376
20
97.5805
0
VERTEX
8
CUT
10
161.4121
20
97.3417
0
VERTEX
8
CUT
10
160.8854
20
96.9654
0
VERTEX
8
CUT
10
159.7632
20
96.3094
0
VERTEX
8
CUT
10
157.9585
20
94.4999
0
VERTEX
8
CUT
10
154.8260
20
90.4144
0
VERTEX
8
CUT
10
152.6476
20
88.2360
0
VERTEX
8
CUT
10
148.9593
20
85.5644
0
VERTEX
8
CUT
10
146.2599
20
84.2286
0
VERTEX
8
CUT
10
142.4980
20
82.9975
0
VERTEX
8
CUT
10
138.4625
20
82.5193
0
VERTEX
8
CUT
10
133.7134
20
82.6693
0
VERTEX
8
CUT
10
129.3152
20
83.5365
0
VERTEX
8
CUT
10
121.3975
20
86.8257
0
VERTEX
8
CUT
10
120.7353
20
87.8750
0
VERTEX
8
CUT
10
117.3916
20
91.5820
0
VERTEX
8
CUT
10
116.2477
20
93.3916
0
VERTEX
8
CUT
10
114.9636
20
96.3183
0
VERTEX
8
CUT
10
114.4473
20
98.5835
0
VERTEX
8
CUT
10
114.3528
20
101.0330
0
VERTEX
8
CUT
10
114.9678
20
104.5262
0
VERTEX
8
CUT
10
115.7814
20
106.2093
0
VERTEX
8
CUT
10
115.8913
20
106.3930
0
VERTEX
8
CUT
10
117.1065
20
107.9610
0
VERTEX
8
CUT
10
118.6776
20
109.4086
0
VERTEX
8
CUT
10
120.4102
20
110.4987
0
VERTEX
8
CUT
10
123.6178
20
111.4968
0
VERTEX
8
CUT
10
125.8914
20
111.5850
0
VERTEX
8
CUT
10
128.1355
20
111.2212
0
VERTEX
8
CUT
10
130.1993
20
110.4622
0
VERTEX
8
CUT
10
132.0531
20
109.3071
0
VERTEX
8
CUT
10
133.5462
20
107.8440
0
VERTEX
8
CUT
10
134.6427
20
106.0788
0
VERTEX
8
CUT
10
135.1980
20
104.0511
0
VERTEX
8
CUT
10
135.0330
20
101.6994
0
VERTEX
8
CUT
10
134.0434
20
99.7203
0
VERTEX
8
CUT
10
133.2757
20
98.8825
0
VERTEX
8
CUT
10
132.3820
20
98.2390
0
VERTEX
8
CUT
10
131.3837
20
97.8334
0
VERTEX
8
CUT
10
130.3159
20
97.6782
0
VERTEX
8
CUT
10
128.9327
20
97.9281
0
VERTEX
8
CUT
10
127.7084
20
98.6498
0
VERTEX
8
CUT
10
126.8828
20
99.6687
0
VERTEX
8
CUT
10
126.5631
20
100.9127
0
VERTEX
8
CUT
10
126.7238
20
101.6213
0
VERTEX
8
CUT
10
128.4876
20
103.5441
0
VERTEX
8
CUT
10
128.6572
20
103.6590
0
VERTEX
8
CUT
10
128.6911
20
103.7659
0
VERTEX
8
CUT
10
128.8305
20
103.9179
0
VERTEX
8
CUT
10
128.7700
20
104.0152
0
VERTEX
8
CUT
10
128.7751
20
104.0313
0
VERTEX
8
CUT
10
128.4452
20
104.6360
0
VERTEX
8
CUT
10
128.3417
20
104.7036
0
VERTEX
8
CUT
10
128.3258
20
104.7291
0
VERTEX
8
CUT
10
127.4861
20
105.4488
0
VERTEX
8
CUT
10
126.3600
20
105.7168
0
VERTEX
8
CUT
10
124.5482
20
105.4924
0
VERTEX
8
CUT
10
123.4180
20
104.9586
0
VERTEX
8
CUT
10
122.6145
20
104.1712
0
VERTEX
8
CUT
10
122.0248
20
103.0930
0
VERTEX
8
CUT
10
121.7437
20
101.7962
0
VERTEX
8
CUT
10
121.7718
20
100.3231
0
VERTEX
8
CUT
10
122.1204
20
98.7237
0
VERTEX
8
CUT
10
122.8199
20
97.0349
0
VERTEX
8
CUT
10
124.6695
20
94.3619
0
VERTEX
8
CUT
10
127.0217
20
92.1571
0
VERTEX
8
CUT
10
129.7908
20
90.3772
0
VERTEX
8
CUT
10
131.2905
20
89.7406
0
VERTEX
8
CUT
10
132.1251
20
89.3670
0
VERTEX
8
CUT
10
132.2928
20
89.3152
0
VERTEX
8
CUT
10
132.9750
20
89.0256
0
VERTEX
8
CUT
10
133.9937
20
88.7896
0
VERTEX
8
CUT
10
134.4214
20
88.6575
0
VERTEX
8
CUT
10
135.0186
20
88.5522
0
VERTEX
8
CUT
10
136.2419
20
88.2688
0
VERTEX
8
CUT
10
139.6044
20
88.0951
0
VERTEX
8
CUT
10
142.7719
20
88.5045
0
VERTEX
8
CUT
10
143.9035
20
88.9266
0
VERTEX
8
CUT
10
144.1953
20
88.9966
0
VERTEX
8
CUT
10
144.4839
20
89.1432
0
VERTEX
8
CUT
10
145.7978
20
89.6333
0
VERTEX
8
CUT
10
146.7510
20
90.2947
0
VERTEX
8
CUT
10
147.1918
20
90.5186
0
VERTEX
8
CUT
10
147.9225
20
91.1075
0
VERTEX
8
CUT
10
148.4209
20
91.4534
0
VERTEX
8
CUT
10
149.3250
20
92.3514
0
VERTEX
8
CUT
10
149.3714
20
92.7485
0
VERTEX
8
CUT
10
148.9298
20
92.9685
0
VERTEX
8
CUT
10
146.5284
20
92.2093
0
VERTEX
8
CUT
10
145.0917
20
91.9884
0
VERTEX
8
CUT
10
142.3293
20
91.9936
0
VERTEX
8
CUT
10
140.9628
20
92.2397
0
VERTEX
8
CUT
10
138.5214
20
93.1626
0
VERTEX
8
CUT
10
136.4148
20
94.6778
0
VERTEX
8
CUT
10
136.0975
20
95.4313
0
VERTEX
8
CUT
10
136.6445
20
95.8948
0
VERTEX
8
CUT
10
139.3594
20
96.1016
0
VERTEX
8
CUT
10
141.4078
20
96.5143
0
VERTEX
8
CUT
10
144.1607
20
97.7017
0
VERTEX
8
CUT
10
144.6911
20
98.0627
0
VERTEX
8
CUT
10
144.7694
20
98.4192
0
VERTEX
8
CUT
10
144.5024
20
98.7015
0
VERTEX
8
CUT
10
141.9212
20
99.9041
0
VERTEX
8
CUT
10
140.1842
20
101.3309
0
VERTEX
8
CUT
10
138.5965
20
103.2227
0
VERTEX
8
CUT
10
136.0767
20
107.3726
0
VERTEX
8
CUT
10
134.8713
20
108.9350
0
VERTEX
8
CUT
10
133.1168
20
110.6598
0
VERTEX
8
CUT
10
130.7331
20
112.3927
0
VERTEX
8
CUT
10
129.1309
20
113.1655
0
VERTEX
8
CUT
10
127.1500
20
113.7663
0
VERTEX
8
CUT
10
124.4278
20
114.2627
0
VERTEX
8
CUT
10
121.7831
20
114.3212
0
VERTEX
8
CUT
10
119.3167
20
113.9397
0
VERTEX
8
CUT
10
117.0950
20
113.2197
0
VERTEX
8
CUT
10
114.9813
20
112.0426
0
VERTEX
8
CUT
10
113.2260
20
110.5724
0
VERTEX
8
CUT
10
111.7856
20
108.7608
0
VERTEX
8
CUT
10
110.2911
20
105.6114
0
VERTEX
8
CUT
10
109.8305
20
103.9466
0
VERTEX
8
CUT
10
109.7395
20
102.3134
0
VERTEX
8
CUT
10
110.3893
20
98.5305
0
VERTEX
8
CUT
10
111.1886
20
96.2278
0
VERTEX
8
CUT
10
113.7768
20
91.3074
0
VERTEX
8
CUT
10
114.0568
20
91.1325
0
VERTEX
8
CUT
10
115.0733
20
91.1765
0
VERTEX
8
CUT
10
115.8564
20
90.5545
0
VERTEX
8
CUT
10
115.9328
20
89.8842
0
VERTEX
8
CUT
10
115.6557
20
89.4594
0
VERTEX
8
CUT
10
115.0130
20
89.3991
0
VERTEX
8
CUT
10
114.3450
20
89.7168
0
VERTEX
8
CUT
10
113.9878
20
89.3767
0
VERTEX
8
CUT
10
115.2577
20
86.9630
0
VERTEX
8
CUT
10
115.7667
20
86.8658
0
VERTEX
8
CUT
10
116.7229
20
87.9229
0
VERTEX
8
CUT
10
116.7511
20
87.9380
0
VERTEX
8
CUT
10
117.2480
20
87.9788
0
VERTEX
8
CUT
10
117.5391
20
88.0026
0
VERTEX
8
CUT
10
117.6305
20
88.0101
0
VERTEX
8
CUT
10
118.0097
20
88.0412
0
VERTEX
8
CUT
10
118.3083
20
87.9671
0
VERTEX
8
CUT
10
118.8902
20
87.4072
0
VERTEX
8
CUT
10
119.2094
20
86.4122
0
VERTEX
8
CUT
10
119.0969
20
85.6992
0
VERTEX
8
CUT
10
118.4235
20
84.4848
0
VERTEX
8
CUT
10
119.4880
20
83.1852
0
VERTEX
8
CUT
10
119.9745
20
83.1319
0
VERTEX
8
CUT
10
120.7497
20
84.0901
0
VERTEX
8
CUT
10
121.5373
20
84.5398
0
VERTEX
8
CUT
10
122.2771
20
84.6935
0
VERTEX
8
CUT
10
123.0301
20
84.5932
0
VERTEX
8
CUT
10
123.6761
20
84.2749
0
VERTEX
8
CUT
10
124.4099
20
83.3295
0
VERTEX
8
CUT
10
124.4802
20
82.1216
0
VERTEX
8
CUT
10
124.2141
20
81.4637
0
VERTEX
8
CUT
10
123.2941
20
80.4569
0
VERTEX
8
CUT
10
121.7744
20
80.0570
0
VERTEX
8
CUT
10
121.6768
20
79.6684
0
VERTEX
8
CUT
10
122.2076
20
78.5582
0
VERTEX
8
CUT
10
120.5509
20
76.5680
0
VERTEX
8
CUT
10
112.0297
20
68.0466
0
VERTEX
8
CUT
10
110.8958
20
67.2301
0
VERTEX
8
CUT
10
109.5832
20
66.8969
0
VERTEX
8
CUT
10
109.0339
20
66.5068
0
VERTEX
8
CUT
10
108.2247
20
65.4138
0
VERTEX
8
CUT
10
108.7390
20
64.7060
0
VERTEX
8
CUT
10
108.7432
20
64.3415
0
VERTEX
8
CUT
10
107.7132
20
62.9261
0
VERTEX
8
CUT
10
100.5921
20
55.6265
0
VERTEX
8
CUT
10
94.4693
20
49.9828
0
VERTEX
8
CUT
10
92.3664
20
48.4218
0
VERTEX
8
CUT
10
89.4773
20
46.7389
0
VERTEX
8
CUT
10
85.9183
20
45.4826
0
VERTEX
8
CUT
10
83.9224
20
45.3263
0
VERTEX
8
CUT
10
82.1134
20
45.9053
0
VERTEX
8
CUT
10
80.9005
20
46.7084
0
VERTEX
8
CUT
10
78.9275
20
49.1600
0
VERTEX
8
CUT
10
77.8762
20
51.4238
0
VERTEX
8
CUT
10
77.4297
20
51.5533
0
VERTEX
8
CUT
10
77.1867
20
51.2771
0
VERTEX
8
CUT
10
77.2483
20
50.8798
0
VERTEX
8
CUT
10
78.3323
20
48.1582
0
VERTEX
8
CUT
10
79.5827
20
46.0358
0
VERTEX
8
CUT
10
79.6022
20
46.0163
0
VERTEX
8
CUT
10
79.6015
20
46.0104
0
VERTEX
8
CUT
10
80.0780
20
45.3255
0
VERTEX
8
CUT
10
81.5968
20
44.1045
0
VERTEX
8
CUT
10
83.6515
20
43.5089
0
VERTEX
8
CUT
10
86.0041
20
43.5983
0
VERTEX
8
CUT
10
87.4368
20
44.0470
0
VERTEX
8
CUT
10
87.4852
20
44.0563
0
VERTEX
8
CUT
10
87.5297
20
44.0762
0
VERTEX
8
CUT
10
88.4758
20
44.3725
0
VERTEX
8
CUT
10
89.3786
20
44.9470
0
VERTEX
8
CUT
10
91.3335
20
45.9459
0
VERTEX
8
CUT
10
93.1622
20
47.1146
0
VERTEX
8
CUT
10
96.0912
20
49.4355
0
VERTEX
8
CUT
10
97.4394
20
50.4177
0
VERTEX
8
CUT
10
98.8688
20
51.7876
0
VERTEX
8
CUT
10
98.9972
20
51.9956
0
VERTEX
8
CUT
10
99.2652
20
52.2424
0
VERTEX
8
CUT
10
116.5883
20
70.5481
0
VERTEX
8
CUT
10
120.5545
20
74.4269
0
VERTEX
8
CUT
10
120.7269
20
74.5093
0
VERTEX
8
CUT
10
122.3350
20
76.0578
0
VERTEX
8
CUT
10
122.3419
20
76.0748
0
VERTEX
8
CUT
10
123.5697
20
76.9379
0
VERTEX
8
CUT
10
124.2802
20
76.7788
0
VERTEX
8
CUT
10
127.8076
20
74.8812
0
VERTEX
8
CUT
10
130.3088
20
73.8092
0
VERTEX
8
CUT
10
132.7328
20
73.0119
0
VERTEX
8
CUT
10
135.8181
20
72.4084
0
VERTEX
8
CUT
10
136.2840
20
71.9756
0
VERTEX
8
CUT
10
136.6473
20
70.5411
0
VERTEX
8
CUT
10
136.9329
20
70.3038
0
VERTEX
8
CUT
10
139.1168
20
70.3145
0
VERTEX
8
CUT
10
139.6833
20
72.4785
0
VERTEX
8
CUT
10
140.2462
20
73.2699
0
VERTEX
8
CUT
10
141.5387
20
73.9351
0
VERTEX
8
CUT
10
142.7179
20
73.9018
0
VERTEX
8
CUT
10
143.7886
20
73.2137
0
VERTEX
8
CUT
10
144.9640
20
71.8252
0
VERTEX
8
CUT
10
145.6999
20
70.5625
0
VERTEX
8
CUT
10
145.5814
20
69.9407
0
VERTEX
8
CUT
10
144.4141
20
68.9357
0
VERTEX
8
CUT
10
141.6074
20
67.4429
0
VERTEX
8
CUT
10
136.2128
20
65.6040
0
VERTEX
8
CUT
10
133.3723
20
63.5414
0
VERTEX
8
CUT
10
131.2854
20
61.5964
0
VERTEX
8
CUT
10
131.0461
20
61.3943
0
VERTEX
8
CUT
10
130.1817
20
60.9340
0
VERTEX
8
CUT
10
129.9954
20
60.9567
0
VERTEX
8
CUT
10
129.8386
20
61.0405
0
VERTEX
8
CUT
10
129.7275
20
61.1843
0
VERTEX
8
CUT
10
129.6816
20
61.3738
0
VERTEX
8
CUT
10
129.6702
20
61.5068
0
VERTEX
8
CUT
10
129.6778
20
62.1290
0
VERTEX
8
CUT
10
130.0553
20
64.2655
0
VERTEX
8
CUT
10
129.7466
20
64.6627
0
VERTEX
8
CUT
10
126.6749
20
62.8775
0
VERTEX
8
CUT
10
126.2161
20
62.6276
0
VERTEX
8
CUT
10
126.0777
20
62.5521
0
VERTEX
8
CUT
10
125.8285
20
62.4164
0
VERTEX
8
CUT
10
125.5864
20
62.2844
0
VERTEX
8
CUT
10
123.1306
20
61.8228
0
VERTEX
8
CUT
10
122.2066
20
61.9531
0
VERTEX
8
CUT
10
121.9108
20
62.2336
0
VERTEX
8
CUT
10
121.9456
20
62.5538
0
VERTEX
8
CUT
10
122.6099
20
63.4627
0
VERTEX
8
CUT
10
126.6858
20
67.8675
0
VERTEX
8
CUT
10
127.4015
20
68.8921
0
VERTEX
8
CUT
10
127.3596
20
69.1829
0
VERTEX
8
CUT
10
127.0898
20
69.3699
0
VERTEX
8
CUT
10
126.3545
20
69.1207
0
VERTEX
8
CUT
10
124.0567
20
67.6617
0
VERTEX
8
CUT
10
122.9478
20
66.7950
0
VERTEX
8
CUT
10
122.1657
20
66.2135
0
VERTEX
8
CUT
10
121.9059
20
65.9808
0
VERTEX
8
CUT
10
121.2128
20
65.4390
0
VERTEX
8
CUT
10
119.7765
20
64.0917
0
VERTEX
8
CUT
10
119.4028
20
63.7768
0
VERTEX
8
CUT
10
118.6703
20
63.0828
0
VERTEX
8
CUT
10
116.7644
20
61.3758
0
VERTEX
8
CUT
10
109.1108
20
54.0868
0
VERTEX
8
CUT
10
103.5890
20
48.9071
0
VERTEX
8
CUT
10
102.7409
20
48.2005
0
VERTEX
8
CUT
10
101.6731
20
47.3109
0
VERTEX
8
CUT
10
101.6186
20
47.2654
0
VERTEX
8
CUT
10
99.5340
20
45.5286
0
VERTEX
8
CUT
10
96.4360
20
43.2680
0
VERTEX
8
CUT
10
95.8880
20
42.8961
0
VERTEX
8
CUT
10
90.7174
20
40.0474
0
VERTEX
8
CUT
10
87.4586
20
38.8539
0
VERTEX
8
CUT
10
87.4336
20
38.8457
0
VERTEX
8
CUT
10
87.4120
20
38.8386
0
VERTEX
8
CUT
10
87.3717
20
38.8254
0
VERTEX
8
CUT
10
87.2825
20
38.7960
0
VERTEX
8
CUT
10
85.4868
20
38.3660
0
VERTEX
8
CUT
10
83.3541
20
38.2700
0
VERTEX
8
CUT
10
82.8484
20
38.2473
0
VERTEX
8
CUT
10
82.7136
20
38.2412
0
VERTEX
8
CUT
10
82.6342
20
38.2376
0
VERTEX
8
CUT
10
81.9178
20
38.3395
0
VERTEX
8
CUT
10
79.5171
20
39.1582
0
VERTEX
8
CUT
10
78.8918
20
39.4685
0
VERTEX
8
CUT
10
77.5359
20
40.6257
0
VERTEX
8
CUT
10
76.2382
20
41.8771
0
VERTEX
8
CUT
10
75.8609
20
42.4479
0
VERTEX
8
CUT
10
75.6597
20
42.7731
0
VERTEX
8
CUT
10
75.5874
20
42.8899
0
VERTEX
8
CUT
10
75.1195
20
43.6460
0
VERTEX
8
CUT
10
74.3049
20
44.9625
0
VERTEX
8
CUT
10
74.1748
20
45.2341
0
VERTEX
8
CUT
10
73.5065
20
46.9368
0
VERTEX
8
CUT
10
72.5801
20
49.5014
0
VERTEX
8
CUT
10
71.7135
20
52.9690
0
VERTEX
8
CUT
10
71.3995
20
54.3768
0
VERTEX
8
CUT
10
70.9347
20
57.8813
0
VERTEX
8
CUT
10
70.6070
20
65.8368
0
VERTEX
8
CUT
10
70.6971
20
70.9252
0
VERTEX
8
CUT
10
71.4423
20
76.9473
0
VERTEX
8
CUT
10
72.2181
20
80.8289
0
VERTEX
8
CUT
10
73.1729
20
84.5906
0
VERTEX
8
CUT
10
74.3466
20
88.2319
0
VERTEX
8
CUT
10
77.1900
20
94.7809
0
VERTEX
8
CUT
10
78.8379
20
97.6545
0
VERTEX
8
CUT
10
80.0455
20
99.3204
0
VERTEX
8
CUT
10
82.6093
20
102.4423
0
VERTEX
8
CUT
10
82.7910
20
103.0713
0
VERTEX
8
CUT
10
83.0771
20
103.4434
0
VERTEX
8
CUT
10
83.0512
20
105.1202
0
VERTEX
8
CUT
10
83.1533
20
107.0895
0
VERTEX
8
CUT
10
82.7506
20
107.4632
0
VERTEX
8
CUT
10
82.1518
20
106.9901
0
VERTEX
8
CUT
10
81.1101
20
105.6225
0
VERTEX
8
CUT
10
78.6000
20
101.3832
0
VERTEX
8
CUT
10
78.0483
20
100.7781
0
VERTEX
8
CUT
10
77.7252
20
100.7816
0
VERTEX
8
CUT
10
77.2577
20
101.4869
0
VERTEX
8
CUT
10
76.9800
20
103.6817
0
VERTEX
8
CUT
10
77.0126
20
105.5171
0
VERTEX
8
CUT
10
77.5339
20
108.2168
0
VERTEX
8
CUT
10
78.9620
20
111.4193
0
VERTEX
8
CUT
10
79.5439
20
112.2366
0
VERTEX
8
CUT
10
79.5455
20
112.2386
0
VERTEX
8
CUT
10
79.5586
20
112.2543
0
VERTEX
8
CUT
10
79.6949
20
112.4185
0
VERTEX
8
CUT
10
80.3395
20
113.1949
0
VERTEX
8
CUT
10
80.4672
20
113.3261
0
VERTEX
8
CUT
10
83.2346
20
115.3070
0
VERTEX
8
CUT
10
86.2721
20
116.3791
0
VERTEX
8
CUT
10
86.5104
20
116.7067
0
VERTEX
8
CUT
10
86.3912
20
117.2129
0
VERTEX
8
CUT
10
86.3684
20
117.2123
0
VERTEX
8
CUT
10
86.1968
20
117.7582
0
VERTEX
8
CUT
10
85.2200
20
119.4338
0
VERTEX
8
CUT
10
84.4048
20
120.3894
0
VERTEX
8
CUT
10
82.4884
20
121.9338
0
VERTEX
8
CUT
10
80.0814
20
123.0335
0
VERTEX
8
CUT
10
75.4002
20
123.8624
0
VERTEX
8
CUT
10
74.8761
20
124.1761
0
VERTEX
8
CUT
10
74.8500
20
124.7032
0
VERTEX
8
CUT
10
75.5295
20
125.6470
0
VERTEX
8
CUT
10
76.6551
20
126.6780
0
VERTEX
8
CUT
10
78.8557
20
127.8761
0
VERTEX
8
CUT
10
79.3833
20
128.1007
0
VERTEX
8
CUT
10
81.5621
20
128.4112
0
VERTEX
8
CUT
10
86.0354
20
128.0740
0
VERTEX
8
CUT
10
87.5975
20
126.9632
0
VERTEX
8
CUT
10
89.1217
20
125.2281
0
VERTEX
8
CUT
10
91.9221
20
121.4148
0
VERTEX
8
CUT
10
93.5471
20
118.5877
0
VERTEX
8
CUT
10
94.1036
20
116.3191
0
VERTEX
8
CUT
10
93.7966
20
114.1079
0
VERTEX
8
CUT
10
93.2674
20
112.6314
0
VERTEX
8
CUT
10
90.5882
20
108.5776
0
VERTEX
8
CUT
10
89.9622
20
106.9500
0
VERTEX
8
CUT
10
89.8201
20
105.5149
0
VERTEX
8
CUT
10
89.9359
20
105.1092
0
VERTEX
8
CUT
10
89.8456
20
104.9438
0
VERTEX
8
CUT
10
90.0541
20
104.1100
0
VERTEX
8
CUT
10
90.9773
20
103.1570
0
VERTEX
8
CUT
10
91.3896
20
103.0998
0
VERTEX
8
CUT
10
91.7273
20
102.9854
0
VERTEX
8
CUT
10
91.9034
20
103.0284
0
VERTEX
8
CUT
10
92.0493
20
103.0081
0
VERTEX
8
CUT
10
92.1007
20
103.0766
0
VERTEX
8
CUT
10
93.2827
20
103.3656
0
VERTEX
8
CUT
10
93.9321
20
103.1479
0
VERTEX
8
CUT
10
94.1649
20
102.4923
0
VERTEX
8
CUT
10
93.9670
20
101.0731
0
VERTEX
8
CUT
10
92.7911
20
98.9861
0
VERTEX
8
CUT
10
90.8273
20
97.3848
0
VERTEX
8
CUT
10
89.3968
20
97.1120
0
VERTEX
8
CUT
10
86.7398
20
97.2576
0
VERTEX
8
CUT
10
86.1889
20
97.0241
0
VERTEX
8
CUT
10
85.4564
20
95.6392
0
VERTEX
8
CUT
10
84.8917
20
93.8820
0
VERTEX
8
CUT
10
84.4279
20
90.8820
0
VERTEX
8
CUT
10
84.5983
20
89.4325
0
VERTEX
8
CUT
10
85.2206
20
87.0900
0
VERTEX
8
CUT
10
85.4681
20
86.5726
0
VERTEX
8
CUT
10
85.4681
20
86.2126
0
VERTEX
8
CUT
10
86.4210
20
84.5747
0
VERTEX
8
CUT
10
87.8802
20
82.7582
0
VERTEX
8
CUT
10
88.9523
20
81.7754
0
VERTEX
8
CUT
10
90.8284
20
80.5843
0
VERTEX
8
CUT
10
92.2578
20
79.9887
0
VERTEX
8
CUT
10
95.4144
20
79.2740
0
VERTEX
8
CUT
10
96.7545
20
79.1548
0
VERTEX
8
CUT
10
99.4346
20
79.4526
0
VERTEX
8
CUT
10
101.3107
20
80.0482
0
VERTEX
8
CUT
10
104.0802
20
81.4776
0
VERTEX
8
CUT
10
105.5989
20
82.6688
0
VERTEX
8
CUT
10
106.7603
20
83.9791
0
VERTEX
8
CUT
10
108.0409
20
85.8254
0
VERTEX
8
CUT
10
108.4578
20
86.7486
0
VERTEX
8
CUT
10
108.4875
20
87.3442
0
VERTEX
8
CUT
10
108.1004
20
87.5824
0
VERTEX
8
CUT
10
107.2070
20
86.8975
0
VERTEX
8
CUT
10
107.1094
20
86.7348
0
VERTEX
8
CUT
10
104.9678
20
85.5144
0
VERTEX
8
CUT
10
103.2601
20
84.9439
0
VERTEX
8
CUT
10
101.4793
20
84.6342
0
VERTEX
8
CUT
10
99.6913
20
84.6071
0
VERTEX
8
CUT
10
97.9854
20
84.8775
0
VERTEX
8
CUT
10
96.3145
20
85.4397
0
VERTEX
8
CUT
10
94.8491
20
86.2783
0
VERTEX
8
CUT
10
93.5347
20
87.3523
0
VERTEX
8
CUT
10
92.5326
20
88.6261
0
VERTEX
8
CUT
10
92.4887
20
89.2267
0
VERTEX
8
CUT
10
93.0365
20
89.5420
0
VERTEX
8
CUT
10
94.3691
20
89.5035
0
VERTEX
8
CUT
10
95.7717
20
89.2798
0
VERTEX
8
CUT
10
97.6869
20
89.4075
0
VERTEX
8
CUT
10
98.0410
20
89.3973
0
VERTEX
8
CUT
10
98.1686
20
89.4396
0
VERTEX
8
CUT
10
98.8986
20
89.4883
0
VERTEX
8
CUT
10
100.1195
20
89.9648
0
VERTEX
8
CUT
10
101.1023
20
90.5008
0
VERTEX
8
CUT
10
102.8295
20
91.9898
0
VERTEX
8
CUT
10
104.1993
20
93.8361
0
VERTEX
8
CUT
10
104.7056
20
94.8486
0
VERTEX
8
CUT
10
105.2714
20
96.9034
0
VERTEX
8
CUT
10
105.2326
20
97.3005
0
VERTEX
8
CUT
10
105.3336
20
97.7275
0
VERTEX
8
CUT
10
105.1722
20
97.9199
0
VERTEX
8
CUT
10
105.1523
20
98.1243
0
VERTEX
8
CUT
10
105.0034
20
98.1839
0
VERTEX
8
CUT
10
104.9779
20
98.1515
0
VERTEX
8
CUT
10
104.9753
20
98.1546
0
VERTEX
8
CUT
10
104.6607
20
98.0313
0
VERTEX
8
CUT
10
103.0358
20
96.2227
0
VERTEX
8
CUT
10
101.0216
20
95.0202
0
VERTEX
8
CUT
10
98.5713
20
94.4600
0
VERTEX
8
CUT
10
97.4484
20
94.4364
0
VERTEX
8
CUT
10
96.8512
20
94.7908
0
VERTEX
8
CUT
10
97.0464
20
95.5429
0
VERTEX
8
CUT
10
98.1056
20
97.0722
0
VERTEX
8
CUT
10
98.5114
20
97.5287
0
VERTEX
8
CUT
10
99.1206
20
98.8301
0
VERTEX
8
CUT
10
99.2333
20
99.0542
0
VERTEX
8
CUT
10
99.2488
20
99.1041
0
VERTEX
8
CUT
10
99.8217
20
100.3280
0
VERTEX
8
CUT
10
100.0737
20
101.7499
0
VERTEX
8
CUT
10
100.0949
20
101.8179
0
VERTEX
8
CUT
10
100.1021
20
101.9099
0
VERTEX
8
CUT
10
100.2387
20
102.6806
0
VERTEX
8
CUT
10
100.1784
20
102.8914
0
VERTEX
8
CUT
10
100.3251
20
104.7780
0
VERTEX
8
CUT
10
99.6084
20
110.0784
0
VERTEX
8
CUT
10
99.9729
20
110.2750
0
VERTEX
8
CUT
10
100.7458
20
110.0468
0
VERTEX
8
CUT
10
106.2166
20
106.9838
0
VERTEX
8
CUT
10
107.5508
20
106.4846
0
VERTEX
8
CUT
10
107.8726
20
106.5341
0
VERTEX
8
CUT
10
108.0443
20
106.8107
0
VERTEX
8
CUT
10
108.3088
20
109.3759
0
VERTEX
8
CUT
10
108.7687
20
111.0924
0
VERTEX
8
CUT
10
108.2855
20
111.3709
0
VERTEX
8
CUT
10
106.1835
20
110.1294
0
VERTEX
8
CUT
10
105.4285
20
110.0067
0
VERTEX
8
CUT
10
105.0770
20
110.2344
0
VERTEX
8
CUT
10
104.9126
20
110.6565
0
VERTEX
8
CUT
10
104.9507
20
111.6733
0
VERTEX
8
CUT
10
105.1687
20
112.5925
0
VERTEX
8
CUT
10
105.9732
20
114.3508
0
VERTEX
8
CUT
10
107.2198
20
116.0328
0
VERTEX
8
CUT
10
109.5056
20
117.7841
0
VERTEX
8
CUT
10
109.5812
20
117.8210
0
VERTEX
8
CUT
10
111.3679
20
118.4317
0
VERTEX
8
CUT
10
114.8117
20
118.9466
0
VERTEX
8
CUT
10
115.0499
20
119.1217
0
VERTEX
8
CUT
10
115.0860
20
119.4501
0
VERTEX
8
CUT
10
110.4482
20
121.7901
0
VERTEX
8
CUT
10
108.3723
20
123.1721
0
VERTEX
8
CUT
10
105.3373
20
125.8737
0
VERTEX
8
CUT
10
103.0412
20
128.4734
0
VERTEX
8
CUT
10
102.0777
20
129.8313
0
VERTEX
8
CUT
10
100.3697
20
133.0118
0
VERTEX
8
CUT
10
98.7931
20
137.0279
0
VERTEX
8
CUT
10
97.0309
20
142.3124
0
VERTEX
8
CUT
10
95.0115
20
147.1193
0
VERTEX
8
CUT
10
92.6592
20
151.0889
0
VERTEX
8
CUT
10
89.7436
20
154.6595
0
VERTEX
8
CUT
10
84.9559
20
159.1815
0
VERTEX
8
CUT
10
82.3061
20
161.1160
0
VERTEX
8
CUT
10
77.4950
20
163.4159
0
VERTEX
8
CUT
10
70.4027
20
165.9118
0
VERTEX
8
CUT
10
70.1055
20
166.1391
0
VERTEX
8
CUT
10
69.9483
20
166.0717
0
VERTEX
8
CUT
10
69.8679
20
166.1000
0
VERTEX
8
CUT
10
69.5691
20
165.8905
0
VERTEX
8
CUT
10
69.5749
20
165.5256
0
VERTEX
8
CUT
10
70.7540
20
164.3558
0
VERTEX
8
CUT
10
73.4538
20
162.0721
0
VERTEX
8
CUT
10
81.3365
20
156.1825
0
VERTEX
8
CUT
10
84.6810
20
152.9873
0
VERTEX
8
CUT
10
86.0049
20
151.3894
0
VERTEX
8
CUT
10
88.0163
20
148.0510
0
VERTEX
8
CUT
10
89.1798
20
145.1267
0
VERTEX
8
CUT
10
89.5477
20
142.8186
0
VERTEX
8
CUT
10
89.5171
20
138.9504
0
VERTEX
8
CUT
10
89.3555
20
137.9200
0
VERTEX
8
CUT
10
88.8227
20
136.5293
0
VERTEX
8
CUT
10
87.9346
20
134.9040
0
VERTEX
8
CUT
10
86.8396
20
133.5652
0
VERTEX
8
CUT
10
85.5920
20
132.4699
0
VERTEX
8
CUT
10
84.2142
20
131.6299
0
VERTEX
8
CUT
10
82.6372
20
131.0011
0
VERTEX
8
CUT
10
80.9647
20
130.7013
0
VERTEX
8
CUT
10
79.2346
20
130.6457
0
VERTEX
8
CUT
10
75.6498
20
131.4026
0
VERTEX
8
CUT
10
74.4095
20
131.9730
0
VERTEX
8
CUT
10
73.8704
20
132.2901
0
VERTEX
8
CUT
10
72.7791
20
133.0635
0
VERTEX
8
CUT
10
71.4480
20
134.3607
0
VERTEX
8
CUT
10
70.1782
20
136.0784
0
VERTEX
8
CUT
10
69.3657
20
137.9978
0
VERTEX
8
CUT
10
69.0035
20
139.8708
0
VERTEX
8
CUT
10
69.0027
20
139.8852
0
VERTEX
8
CUT
10
69.0020
20
139.8999
0
VERTEX
8
CUT
10
69.0017
20
139.9055
0
VERTEX
8
CUT
10
69.0010
20
139.9180
0
VERTEX
8
CUT
10
69.0582
20
141.7202
0
VERTEX
8
CUT
10
69.5683
20
143.5029
0
VERTEX
8
CUT
10
70.4517
20
144.9872
0
VERTEX
8
CUT
10
71.7087
20
146.1563
0
VERTEX
8
CUT
10
73.3981
20
146.9516
0
VERTEX
8
CUT
10
74.7982
20
147.1365
0
VERTEX
8
CUT
10
76.0269
20
146.8955
0
VERTEX
8
CUT
10
77.1494
20
146.3373
0
VERTEX
8
CUT
10
78.0842
20
145.5299
0
VERTEX
8
CUT
10
78.7541
20
144.5368
0
VERTEX
8
CUT
10
79.0360
20
143.4633
0
VERTEX
8
CUT
10
78.9127
20
142.3918
0
VERTEX
8
CUT
10
77.8629
20
141.0348
0
VERTEX
8
CUT
10
75.7314
20
140.1602
0
VERTEX
8
CUT
10
75.5337
20
139.6427
0
VERTEX
8
CUT
10
75.5884
20
139.0445
0
VERTEX
8
CUT
10
76.0304
20
138.3000
0
VERTEX
8
CUT
10
76.1386
20
138.0912
0
VERTEX
8
CUT
10
76.1689
20
138.0668
0
VERTEX
8
CUT
10
76.3325
20
137.7912
0
VERTEX
8
CUT
10
77.0508
20
137.1888
0
VERTEX
8
CUT
10
78.9038
20
136.5843
0
VERTEX
8
CUT
10
80.0220
20
136.6748
0
VERTEX
8
CUT
10
80.9461
20
137.0267
0
VERTEX
8
CUT
10
82.3745
20
138.3500
0
VERTEX
8
CUT
10
82.9182
20
139.3880
0
VERTEX
8
CUT
10
82.9924
20
139.6458
0
VERTEX
8
CUT
10
83.1210
20
139.8447
0
VERTEX
8
CUT
10
83.1628
20
140.2383
0
VERTEX
8
CUT
10
83.2691
20
140.6076
0
VERTEX
8
CUT
10
83.2691
20
141.2363
0
VERTEX
8
CUT
10
83.3215
20
141.7285
0
VERTEX
8
CUT
10
83.2691
20
141.9966
0
VERTEX
8
CUT
10
83.2690
20
143.2502
0
VERTEX
8
CUT
10
82.8707
20
144.6165
0
VERTEX
8
CUT
10
82.1905
20
145.9591
0
VERTEX
8
CUT
10
81.2075
20
147.3246
0
VERTEX
8
CUT
10
80.5820
20
147.9112
0
VERTEX
8
CUT
10
79.5925
20
148.9686
0
VERTEX
8
CUT
10
78.4740
20
149.8880
0
VERTEX
8
CUT
10
78.2989
20
150.0522
0
VERTEX
8
CUT
10
68.8258
20
156.4949
0
VERTEX
8
CUT
10
64.9699
20
159.8092
0
VERTEX
8
CUT
10
61.9722
20
163.3204
0
VERTEX
8
CUT
10
58.9908
20
168.2342
0
VERTEX
8
CUT
10
58.8867
20
168.5374
0
VERTEX
8
CUT
10
57.4090
20
171.3494
0
VERTEX
8
CUT
10
57.2924
20
171.4045
0
VERTEX
8
CUT
10
57.2893
20
171.4105
0
VERTEX
8
CUT
10
56.9749
20
171.5567
0
VERTEX
8
CUT
10
56.9438
20
171.6080
0
VERTEX
8
CUT
10
47.2524
20
176.1694
0
VERTEX
8
CUT
10
38.9169
20
180.5976
0
VERTEX
8
CUT
10
34.0785
20
183.4922
0
VERTEX
8
CUT
10
32.5237
20
184.4566
0
VERTEX
8
CUT
10
32.1868
20
184.6882
0
VERTEX
8
CUT
10
31.9520
20
184.8496
0
VERTEX
8
CUT
10
31.1594
20
185.3944
0
VERTEX
8
CUT
10
30.8175
20
185.6294
0
VERTEX
8
CUT
10
25.2420
20
189.5708
0
VERTEX
8
CUT
10
24.5124
20
189.9635
0
VERTEX
8
CUT
10
24.2784
20
190.1243
0
VERTEX
8
CUT
10
24.2291
20
190.1160
0
VERTEX
8
CUT
10
24.0710
20
190.2011
0
VERTEX
8
CUT
10
23.5407
20
189.6957
0
VERTEX
8
CUT
10
22.9490
20
188.0412
0
VERTEX
8
CUT
10
22.8184
20
187.5327
0
VERTEX
8
CUT
10
22.0312
20
184.6646
0
VERTEX
8
CUT
10
21.7042
20
183.1957
0
VERTEX
8
CUT
10
20.7547
20
179.4997
0
VERTEX
8
CUT
10
19.4146
20
172.8885
0
VERTEX
8
CUT
10
18.2258
20
164.8325
0
VERTEX
8
CUT
10
17.6914
20
158.0343
0
VERTEX
8
CUT
10
17.5426
20
149.7077
0
VERTEX
8
CUT
10
17.6608
20
143.9642
0
VERTEX
8
CUT
10
17.6615
20
143.6970
0
VERTEX
8
CUT
10
17.6697
20
143.5311
0
VERTEX
8
CUT
10
17.6915
20
142.4694
0
VERTEX
8
CUT
10
17.8359
20
140.1483
0
VERTEX
8
CUT
10
17.9283
20
138.2660
0
VERTEX
8
CUT
10
17.9818
20
137.8012
0
VERTEX
8
CUT
10
18.0770
20
136.2703
0
VERTEX
8
CUT
10
18.8516
20
130.1920
0
VERTEX
8
CUT
10
20.0715
20
123.3517
0
VERTEX
8
CUT
10
21.7380
20
116.0934
0
VERTEX
8
CUT
10
23.8428
20
108.9194
0
VERTEX
8
CUT
10
24.8098
20
106.1778
0
VERTEX
8
CUT
10
25.1516
20
105.0809
0
VERTEX
8
CUT
10
25.8857
20
103.1274
0
VERTEX
8
CUT
10
26.3775
20
101.7331
0
VERTEX
8
CUT
10
26.6808
20
101.0114
0
VERTEX
8
CUT
10
26.8165
20
100.6502
0
VERTEX
8
CUT
10
27.0330
20
100.1733
0
VERTEX
8
CUT
10
29.3510
20
94.6576
0
VERTEX
8
CUT
10
32.7114
20
87.7297
0
VERTEX
8
CUT
10
36.4296
20
80.9489
0
VERTEX
8
CUT
10
40.5211
20
74.3967
0
VERTEX
8
CUT
10
44.9923
20
68.0767
0
VERTEX
8
CUT
10
47.9625
20
64.2453
0
VERTEX
8
CUT
10
52.7199
20
58.7153
0
VERTEX
8
CUT
10
53.3673
20
58.0366
0
VERTEX
8
CUT
10
53.9318
20
57.3855
0
VERTEX
8
CUT
10
58.9850
20
52.0939
0
VERTEX
8
CUT
10
64.2767
20
47.1580
0
VERTEX
8
CUT
10
64.8396
20
46.6893
0
VERTEX
8
CUT
10
65.2917
20
46.2621
0
VERTEX
8
CUT
10
68.7993
20
43.2892
0
VERTEX
8
CUT
10
76.0643
20
37.8406
0
VERTEX
8
CUT
10
83.9600
20
32.8539
0
VERTEX
8
CUT
10
88.3147
20
30.4084
0
VERTEX
8
CUT
10
90.1662
20
29.4898
0
VERTEX
8
CUT
10
90.2813
20
29.4255
0
VERTEX
8
CUT
10
90.6004
20
29.2744
0
VERTEX
8
CUT
10
96.2880
20
26.4526
0
VERTEX
8
CUT
10
104.5863
20
23.0443
0
VERTEX
8
CUT
10
113.2094
20
20.2184
0
VERTEX
8
CUT
10
122.0655
20
17.9523
0
VERTEX
8
CUT
10
131.0493
20
16.2919
0
VERTEX
8
CUT
10
140.1462
20
15.2208
0
VERTEX
8
CUT
10
149.3010
20
14.8033
0
VERTEX
8
CUT
10
161.5589
20
15.2186
0
VERTEX
8
CUT
10
167.8173
20
15.9040
0
VERTEX
8
CUT
10
174.0479
20
16.9128
0
VERTEX
8
CUT
10
183.4330
20
19.0207
0
VERTEX
8
CUT
10
184.7736
20
19.4476
0
VERTEX
8
CUT
10
186.4751
20
19.9150
0
VERTEX
8
CUT
10
190.2646
20
21.0793
0
VERTEX
8
CUT
10
192.3688
20
21.8660
0
VERTEX
8
CUT
10
195.9835
20
23.0169
0
VERTEX
8
CUT
10
199.0932
20
24.3799
0
VERTEX
8
CUT
10
200.0235
20
24.7277
0
VERTEX
8
CUT
10
202.2662
20
25.7707
0
VERTEX
8
CUT
10
203.4520
20
26.2905
0
VERTEX
8
CUT
10
203.7729
20
26.4233
0
VERTEX
8
CUT
10
203.9208
20
26.4960
0
VERTEX
8
CUT
10
207.9934
20
28.2810
0
VERTEX
8
CUT
10
210.6027
20
29.7697
0
VERTEX
8
CUT
10
210.7299
20
29.8419
0
VERTEX
8
CUT
10
210.7903
20
29.8716
0
VERTEX
8
CUT
10
217.5980
20
33.7355
0
VERTEX
8
CUT
10
217.6920
20
33.7971
0
VERTEX
8
CUT
10
218.3946
20
34.1963
0
VERTEX
8
CUT
10
218.5662
20
34.3129
0
VERTEX
8
CUT
10
219.4079
20
34.7931
0
VERTEX
8
CUT
10
221.7991
20
36.4912
0
VERTEX
8
CUT
10
224.1721
20
38.0478
0
VERTEX
8
CUT
10
225.1451
20
38.7840
0
VERTEX
8
CUT
10
226.9265
20
39.9947
0
VERTEX
8
CUT
10
228.4483
20
41.2132
0
VERTEX
8
CUT
10
230.1699
20
42.4358
0
VERTEX
8
CUT
10
232.4317
20
44.4028
0
VERTEX
8
CUT
10
234.9597
20
46.4271
0
VERTEX
8
CUT
10
237.3909
20
48.7158
0
VERTEX
8
CUT
10
240.1886
20
51.1489
0
VERTEX
8
CUT
10
241.9002
20
52.9607
0
VERTEX
8
CUT
10
242.5933
20
53.6132
0
VERTEX
8
CUT
10
245.0291
20
56.2728
0
VERTEX
8
CUT
10
247.2002
20
58.5711
0
VERTEX
8
CUT
10
247.3353
20
58.7108
0
VERTEX
8
CUT
10
247.3666
20
58.7472
0
VERTEX
8
CUT
10
249.3750
20
60.8732
0
VERTEX
8
CUT
10
253.7284
20
66.5169
0
VERTEX
8
CUT
10
256.3588
20
69.8792
0
VERTEX
8
CUT
10
256.6201
20
70.2658
0
VERTEX
8
CUT
10
257.6094
20
71.5482
0
VERTEX
8
CUT
10
259.2264
20
74.1199
0
VERTEX
8
CUT
10
261.2038
20
77.0442
0
VERTEX
8
CUT
10
263.0583
20
80.2145
0
VERTEX
8
CUT
10
264.8629
20
83.0845
0
VERTEX
8
CUT
10
268.1808
20
89.3648
0
VERTEX
8
CUT
10
271.1625
20
95.7458
0
VERTEX
8
CUT
10
273.8012
20
102.2388
0
VERTEX
8
CUT
10
276.0912
20
108.8396
0
VERTEX
8
CUT
10
278.0592
20
115.6085
0
VERTEX
8
CUT
10
279.6643
20
122.4469
0
VERTEX
8
CUT
10
280.9395
20
129.4161
0
VERTEX
8
CUT
10
281.7650
20
135.9778
0
VERTEX
8
CUT
10
281.8042
20
136.2418
0
VERTEX
8
CUT
10
281.8219
20
136.4303
0
VERTEX
8
CUT
10
282.1312
20
138.8894
0
VERTEX
8
CUT
10
282.1838
20
140.2939
0
VERTEX
8
CUT
10
282.1887
20
140.3461
0
VERTEX
8
CUT
10
282.1877
20
140.3967
0
VERTEX
8
CUT
10
282.2192
20
141.2386
0
VERTEX
8
CUT
10
281.9902
20
141.6755
0
VERTEX
8
CUT
10
280.4567
20
141.5474
0
VERTEX
8
CUT
10
270.6865
20
139.2842
0
VERTEX
8
CUT
10
264.1073
20
138.1534
0
VERTEX
8
CUT
10
260.5461
20
137.6921
0
VERTEX
8
CUT
10
256.8630
20
137.2239
0
VERTEX
8
CUT
10
249.7535
20
136.5992
0
VERTEX
8
CUT
10
245.0192
20
136.3783
0
VERTEX
8
CUT
10
240.6464
20
136.2618
0
VERTEX
8
CUT
10
235.9581
20
136.2411
0
VERTEX
8
CUT
10
231.5080
20
136.4521
0
VERTEX
8
CUT
10
229.2889
20
136.6630
0
VERTEX
8
CUT
10
228.2889
20
136.7580
0
VERTEX
8
CUT
10
225.9162
20
136.9835
0
VERTEX
8
CUT
10
224.8961
20
137.0805
0
VERTEX
8
CUT
10
222.0561
20
137.4019
0
VERTEX
8
CUT
10
221.1502
20
137.3158
0
VERTEX
8
CUT
10
221.0470
20
136.9602
0
VERTEX
8
CUT
10
221.2526
20
136.6945
0
VERTEX
8
CUT
10
221.5189
20
136.6147
0
VERTEX
8
CUT
10
221.8824
20
136.4383
0
VERTEX
8
CUT
10
223.1103
20
136.1378
0
VERTEX
8
CUT
10
224.4618
20
135.7329
0
VERTEX
8
CUT
10
251.9268
20
128.9706
0
VERTEX
8
CUT
10
262.3129
20
126.6196
0
VERTEX
8
CUT
10
266.0544
20
125.8963
0
VERTEX
8
CUT
10
266.4142
20
125.8173
0
VERTEX
8
CUT
10
266.9520
20
125.7228
0
VERTEX
8
CUT
10
271.2455
20
124.8927
0
VERTEX
8
CUT
10
272.0584
20
124.5672
0
VERTEX
8
CUT
10
272.2964
20
124.1529
0
VERTEX
8
CUT
10
271.8320
20
123.7438
0
VERTEX
8
CUT
10
271.1071
20
123.6502
0
VERTEX
8
CUT
10
270.9518
20
123.6452
0
VERTEX
8
CUT
10
270.8475
20
123.6419
0
VERTEX
8
CUT
10
270.5790
20
123.6334
0
VERTEX
8
CUT
10
270.2212
20
123.6220
0
VERTEX
8
CUT
10
270.2142
20
123.6218
0
VERTEX
8
CUT
10
268.1344
20
123.6379
0
VERTEX
8
CUT
10
267.8832
20
123.6526
0
VERTEX
8
CUT
10
267.5997
20
123.6691
0
VERTEX
8
CUT
10
267.2635
20
123.6887
0
VERTEX
8
CUT
10
266.4649
20
123.7353
0
VERTEX
8
CUT
10
266.0409
20
123.7601
0
VERTEX
8
CUT
10
265.8513
20
123.7711
0
VERTEX
8
CUT
10
261.1566
20
124.1853
0
VERTEX
8
CUT
10
259.2484
20
124.3783
0
VERTEX
8
CUT
10
258.7963
20
124.4240
0
VERTEX
8
CUT
10
258.6771
20
124.4361
0
VERTEX
8
CUT
10
258.6539
20
124.4384
0
VERTEX
8
CUT
10
253.7737
20
125.1682
0
VERTEX
8
CUT
10
251.6929
20
125.5055
0
VERTEX
8
CUT
10
238.2454
20
128.2064
0
VERTEX
8
CUT
10
229.0388
20
130.4411
0
VERTEX
8
CUT
10
220.3764
20
132.9329
0
VERTEX
8
CUT
10
219.4467
20
133.0500
0
VERTEX
8
CUT
10
219.0647
20
132.8317
0
VERTEX
8
CUT
10
218.7622
20
131.5481
0
VERTEX
8
CUT
10
217.4327
20
129.2879
0
VERTEX
8
CUT
10
215.3199
20
126.6990
0
VERTEX
8
CUT
10
212.8917
20
124.3045
0
VERTEX
8
CUT
10
211.3229
20
123.1500
0
VERTEX
8
CUT
10
209.6413
20
122.2155
0
VERTEX
8
CUT
10
209.2981
20
122.2020
0
VERTEX
8
CUT
10
209.1446
20
122.4155
0
VERTEX
8
CUT
10
209.5219
20
123.9253
0
VERTEX
8
CUT
10
209.5035
20
123.9516
0
VERTEX
8
CUT
10
209.6481
20
124.2408
0
VERTEX
8
CUT
10
209.7374
20
124.8960
0
VERTEX
8
CUT
10
209.2908
20
124.7769
0
VERTEX
8
CUT
10
208.5165
20
124.1813
0
VERTEX
8
CUT
10
208.2098
20
123.8152
0
VERTEX
8
CUT
10
206.6734
20
123.0405
0
VERTEX
8
CUT
10
206.6219
20
122.5847
0
VERTEX
8
CUT
10
207.4276
20
122.0804
0
VERTEX
8
CUT
10
207.3730
20
121.6657
0
VERTEX
8
CUT
10
205.1161
20
119.0773
0
VERTEX
8
CUT
10
205.1403
20
119.0607
0
VERTEX
8
CUT
10
205.2310
20
118.9842
0
VERTEX
8
CUT
10
205.3138
20
118.8991
0
VERTEX
8
CUT
10
205.3878
20
118.8062
0
VERTEX
8
CUT
10
205.4229
20
118.7518
0
VERTEX
8
CUT
10
205.4618
20
118.7270
0
VERTEX
8
CUT
10
205.4252
20
118.7330
0
VERTEX
8
CUT
10
205.3031
20
118.7409
0
VERTEX
8
CUT
10
205.1807
20
118.7367
0
VERTEX
8
CUT
10
205.0593
20
118.7207
0
VERTEX
8
CUT
10
204.9401
20
118.6928
0
VERTEX
8
CUT
10
204.8242
20
118.6534
0
VERTEX
8
CUT
10
204.7126
20
118.6028
0
VERTEX
8
CUT
10
204.6066
20
118.5416
0
VERTEX
8
CUT
10
204.5071
20
118.4703
0
VERTEX
8
CUT
10
204.4150
20
118.3896
0
VERTEX
8
CUT
10
204.3312
20
118.3002
0
VERTEX
8
CUT
10
204.2566
20
118.2032
0
VERTEX
8
CUT
10
204.1919
20
118.0992
0
VERTEX
8
CUT
10
204.1376
20
117.9895
0
VERTEX
8
CUT
10
204.0944
20
117.8749
0
VERTEX
8
CUT
10
204.0625
20
117.7567
0
VERTEX
8
CUT
10
204.0424
20
117.6359
0
VERTEX
8
CUT
10
204.0355
20
117.5343
0
VERTEX
8
CUT
10
203.7437
20
117.5310
0
VERTEX
8
CUT
10
203.0851
20
116.8648
0
VERTEX
8
CUT
10
202.4304
20
116.2024
0
VERTEX
8
CUT
10
202.2953
20
116.0657
0
VERTEX
8
CUT
10
201.7879
20
115.5523
0
VERTEX
8
CUT
10
201.6495
20
115.4123
0
VERTEX
8
CUT
10
200.9857
20
114.7571
0
VERTEX
8
CUT
10
200.8827
20
114.4018
0
VERTEX
8
CUT
10
201.2739
20
114.0946
0
VERTEX
8
CUT
10
202.2056
20
114.3602
0
VERTEX
8
CUT
10
202.9042
20
114.4013
0
VERTEX
8
CUT
10
203.1070
20
114.3869
0
VERTEX
8
CUT
10
203.8904
20
114.1653
0
VERTEX
8
CUT
10
204.8817
20
113.8299
0
VERTEX
8
CUT
10
206.2322
20
113.0078
0
VERTEX
8
CUT
10
206.8524
20
112.5891
0
VERTEX
8
CUT
10
207.1492
20
112.2165
0
VERTEX
8
CUT
10
207.8726
20
111.2571
0
VERTEX
8
CUT
10
208.8738
20
108.6606
0
VERTEX
8
CUT
10
208.8896
20
108.4521
0
VERTEX
8
CUT
10
208.9027
20
108.2803
0
VERTEX
8
CUT
10
208.9140
20
108.1306
0
VERTEX
8
CUT
10
208.9569
20
107.5651
0
VERTEX
8
CUT
10
209.0139
20
106.5575
0
VERTEX
8
CUT
10
209.0068
20
106.4651
0
VERTEX
8
CUT
10
208.9987
20
106.3601
0
VERTEX
8
CUT
10
208.9861
20
106.1975
0
VERTEX
8
CUT
10
208.9804
20
106.1236
0
VERTEX
8
CUT
10
208.6598
20
104.0882
0
VERTEX
8
CUT
10
207.9178
20
101.9815
0
VERTEX
8
CUT
10
207.8615
20
101.8840
0
VERTEX
8
CUT
10
207.7373
20
101.6688
0
VERTEX
8
CUT
10
207.5444
20
101.3347
0
VERTEX
8
CUT
10
207.3304
20
100.9642
0
VERTEX
8
CUT
10
206.7780
20
100.0240
0
VERTEX
8
CUT
10
205.3696
20
98.5229
0
VERTEX
8
CUT
10
203.6057
20
97.4405
0
VERTEX
8
CUT
10
202.1534
20
97.1546
0
VERTEX
8
CUT
10
201.4060
20
97.1673
0
VERTEX
8
CUT
10
199.8893
20
97.5141
0
VERTEX
8
CUT
10
198.1674
20
98.5597
0
VERTEX
8
CUT
10
196.5227
20
100.6248
0
VERTEX
8
CUT
10
196.2230
20
100.7671
0
VERTEX
8
CUT
10
195.8323
20
100.3814
0
VERTEX
8
CUT
10
196.1788
20
99.3845
0
VERTEX
8
CUT
10
197.3762
20
97.3162
0
VERTEX
8
CUT
10
198.8080
20
95.7701
0
VERTEX
8
CUT
10
198.8473
20
95.7455
0
VERTEX
8
CUT
10
198.9718
20
95.6088
0
VERTEX
8
CUT
10
199.9888
20
95.0296
0
VERTEX
8
CUT
10
200.9309
20
94.4387
0
VERTEX
8
CUT
10
202.1546
20
94.1096
0
VERTEX
8
CUT
10
203.0441
20
94.0090
0
VERTEX
8
CUT
10
203.4317
20
93.9286
0
VERTEX
8
CUT
10
203.9073
20
93.9852
0
VERTEX
8
CUT
10
204.9109
20
94.0491
0
VERTEX
8
CUT
10
205.3188
20
94.1533
0
VERTEX
8
CUT
10
205.8684
20
94.2188
0
VERTEX
8
CUT
10
206.3673
20
94.4213
0
VERTEX
8
CUT
10
210.5951
20
95.5020
0
VERTEX
8
CUT
10
214.1557
20
95.9510
0
VERTEX
8
CUT
10
217.1918
20
95.6424
0
VERTEX
8
CUT
10
218.5225
20
95.1705
0
VERTEX
8
CUT
10
218.8912
20
94.7533
0
VERTEX
8
CUT
10
218.8964
20
94.7130
0
VERTEX
8
CUT
10
218.0405
20
93.5639
0
VERTEX
8
CUT
10
214.8501
20
90.6122
0
VERTEX
8
CUT
10
213.0521
20
89.1400
0
VERTEX
8
CUT
10
211.4741
20
88.1360
0
VERTEX
8
CUT
10
210.5096
20
87.6596
0
VERTEX
8
CUT
10
208.7000
20
87.0848
0
VERTEX
8
CUT
10
206.4929
20
86.8088
0
VERTEX
8
CUT
10
204.5311
20
87.0166
0
VERTEX
8
CUT
10
203.5824
20
87.3605
0
VERTEX
8
CUT
10
203.2399
20
87.2159
0
VERTEX
8
CUT
10
203.1644
20
86.8871
0
VERTEX
8
CUT
10
203.4864
20
86.0534
0
VERTEX
8
CUT
10
204.5611
20
84.3905
0
VERTEX
8
CUT
10
205.8665
20
83.0228
0
VERTEX
8
CUT
10
206.9838
20
82.1358
0
VERTEX
8
CUT
10
207.6011
20
81.5470
0
VERTEX
8
CUT
10
207.6158
20
81.4314
0
VERTEX
8
CUT
10
207.5949
20
81.1988
0
VERTEX
8
CUT
10
207.2361
20
80.7696
0
VERTEX
8
CUT
10
205.6855
20
80.2768
0
VERTEX
8
CUT
10
205.1391
20
80.2409
0
VERTEX
8
CUT
10
205.0747
20
80.2367
0
VERTEX
8
CUT
10
204.4845
20
80.1979
0
VERTEX
8
CUT
10
203.2197
20
80.1147
0
VERTEX
8
CUT
10
201.0522
20
80.5885
0
VERTEX
8
CUT
10
200.1972
20
80.9608
0
VERTEX
8
CUT
10
199.2819
20
81.3906
0
VERTEX
8
CUT
10
198.8766
20
81.2283
0
VERTEX
8
CUT
10
198.8119
20
80.7857
0
VERTEX
8
CUT
10
198.9804
20
80.1027
0
VERTEX
8
CUT
10
199.0165
20
79.6675
0
VERTEX
8
CUT
10
199.1858
20
79.2701
0
VERTEX
8
CUT
10
199.1961
20
79.2281
0
VERTEX
8
CUT
10
199.2317
20
79.1622
0
VERTEX
8
CUT
10
199.9815
20
77.4023
0
VERTEX
8
CUT
10
201.9667
20
75.1636
0
VERTEX
8
CUT
10
204.8462
20
73.1754
0
VERTEX
8
CUT
10
205.0020
20
72.8476
0
VERTEX
8
CUT
10
204.7890
20
72.4269
0
VERTEX
8
CUT
10
203.3676
20
71.8968
0
VERTEX
8
CUT
10
202.3516
20
71.7980
0
VERTEX
8
CUT
10
200.1712
20
71.8310
0
VERTEX
8
CUT
10
198.1733
20
72.2183
0
VERTEX
8
CUT
10
196.9382
20
72.7243
0
VERTEX
8
CUT
10
195.1452
20
73.8900
0
VERTEX
8
CUT
10
193.9182
20
75.4241
0
VERTEX
8
CUT
10
193.3299
20
77.3405
0
VERTEX
8
CUT
10
193.4196
20
79.9621
0
VERTEX
8
CUT
10
194.0261
20
81.6708
0
VERTEX
8
CUT
10
194.3033
20
82.2465
0
VERTEX
8
CUT
10
195.5327
20
84.6045
0
VERTEX
8
CUT
10
195.7680
20
85.2883
0
VERTEX
8
CUT
10
195.9521
20
85.6708
0
VERTEX
8
CUT
10
196.0580
20
86.1313
0
VERTEX
8
CUT
10
196.4856
20
87.3740
0
VERTEX
8
CUT
10
196.6941
20
89.5181
0
VERTEX
8
CUT
10
196.4558
20
90.6497
0
VERTEX
8
CUT
10
196.1627
20
91.0601
0
VERTEX
8
CUT
10
195.5299
20
92.2685
0
VERTEX
8
CUT
10
195.2391
20
92.6114
0
VERTEX
8
CUT
10
194.9110
20
92.6673
0
VERTEX
8
CUT
10
194.6357
20
92.3767
0
VERTEX
8
CUT
10
194.3057
20
90.3262
0
VERTEX
8
CUT
10
193.4112
20
86.9578
0
VERTEX
8
CUT
10
192.1455
20
83.4660
0
VERTEX
8
CUT
10
190.6411
20
80.6413
0
VERTEX
8
CUT
10
187.2646
20
76.0704
0
VERTEX
8
CUT
10
185.6390
20
74.5411
0
VERTEX
8
CUT
10
185.1728
20
74.4208
0
VERTEX
8
CUT
10
184.8103
20
74.6417
0
VERTEX
8
CUT
10
184.7181
20
75.2291
0
VERTEX
8
CUT
10
185.4077
20
81.6563
0
VERTEX
8
CUT
10
186.1071
20
84.3542
0
VERTEX
8
CUT
10
187.3341
20
87.4152
0
VERTEX
8
CUT
10
187.2743
20
87.7422
0
VERTEX
8
CUT
10
187.2268
20
87.7657
0
VERTEX
8
CUT
10
187.1647
20
87.9398
0
VERTEX
8
CUT
10
187.0255
20
87.8652
0
VERTEX
8
CUT
10
186.9457
20
87.9046
0
VERTEX
8
CUT
10
186.6743
20
87.7825
0
VERTEX
8
CUT
10
186.5357
20
87.6028
0
VERTEX
8
CUT
10
186.3308
20
87.4931
0
VERTEX
8
CUT
10
185.4077
20
86.2126
0
VERTEX
8
CUT
10
185.3792
20
86.1041
0
VERTEX
8
CUT
10
185.1549
20
85.8134
0
VERTEX
8
CUT
10
183.2252
20
82.7455
0
VERTEX
8
CUT
10
182.3567
20
80.5648
0
VERTEX
8
CUT
10
181.0532
20
75.9111
0
VERTEX
8
CUT
10
180.1871
20
73.5797
0
VERTEX
8
CUT
10
178.4832
20
71.0424
0
VERTEX
8
CUT
10
176.5937
20
69.0358
0
VERTEX
8
CUT
10
174.4102
20
67.2950
0
VERTEX
8
CUT
10
173.1778
20
66.5360
0
VERTEX
8
CUT
10
173.1977
20
66.5261
0
VERTEX
8
CUT
10
173.2980
20
66.4628
0
VERTEX
8
CUT
10
173.3325
20
66.4360
0
VERTEX
8
CUT
10
172.3643
20
65.7839
0
VERTEX
8
CUT
10
170.0117
20
64.8012
0
VERTEX
8
CUT
10
169.6544
20
64.3843
0
VERTEX
8
CUT
10
169.8331
20
64.0269
0
VERTEX
8
CUT
10
170.6669
20
64.0269
0
VERTEX
8
CUT
10
173.1088
20
65.1288
0
VERTEX
8
CUT
10
173.7816
20
65.2323
0
VERTEX
8
CUT
10
173.8831
20
65.2479
0
VERTEX
8
CUT
10
173.9376
20
65.3611
0
VERTEX
8
CUT
10
177.2140
20
66.6570
0
VERTEX
8
CUT
10
179.9169
20
67.9337
0
VERTEX
8
CUT
10
184.6513
20
70.5547
0
VERTEX
8
CUT
10
188.8175
20
73.6757
0
VERTEX
8
CUT
10
189.8849
20
72.7692
0
VERTEX
8
CUT
10
192.0945
20
70.1148
0
VERTEX
8
CUT
10
193.8218
20
68.6863
0
VERTEX
8
CUT
10
195.7570
20
67.5751
0
VERTEX
8
CUT
10
200.1077
20
66.1366
0
VERTEX
8
CUT
10
200.1373
20
66.1260
0
VERTEX
8
CUT
10
200.2008
20
66.1030
0
VERTEX
8
CUT
10
200.2183
20
66.0967
0
VERTEX
8
CUT
10
200.2322
20
66.0917
0
VERTEX
8
CUT
10
200.7573
20
65.6590
0
VERTEX
8
CUT
10
200.8330
20
65.2856
0
VERTEX
8
CUT
10
200.6385
20
64.8767
0
VERTEX
8
CUT
10
199.1559
20
64.1007
0
VERTEX
8
CUT
10
197.4255
20
63.6986
0
VERTEX
8
CUT
10
193.3604
20
63.3173
0
VERTEX
8
CUT
10
193.2002
20
63.2783
0
VERTEX
8
CUT
10
193.0094
20
63.2779
0
VERTEX
8
CUT
10
192.8783
20
63.2000
0
VERTEX
8
CUT
10
192.6408
20
63.1422
0
VERTEX
8
CUT
10
192.4751
20
62.9606
0
VERTEX
8
CUT
10
192.3513
20
62.8871
0
VERTEX
8
CUT
10
192.5268
20
62.2170
0
VERTEX
8
CUT
10
193.0352
20
58.8262
0
VERTEX
8
CUT
10
193.3718
20
57.7125
0
VERTEX
8
CUT
10
193.7797
20
57.4005
0
VERTEX
8
CUT
10
194.4757
20
57.7096
0
VERTEX
8
CUT
10
195.0318
20
57.6744
0
VERTEX
8
CUT
10
195.7503
20
57.2268
0
VERTEX
8
CUT
10
196.0700
20
56.7512
0
VERTEX
8
CUT
10
195.9269
20
56.4449
0
VERTEX
8
CUT
10
195.4218
20
56.2862
0
VERTEX
8
CUT
10
193.9763
20
56.5498
0
VERTEX
8
CUT
10
193.6519
20
56.1198
0
VERTEX
8
CUT
10
193.6781
20
55.7065
0
VERTEX
8
CUT
10
193.6204
20
55.6407
0
VERTEX
8
CUT
10
194.1002
20
49.0478
0
VERTEX
8
CUT
10
194.1345
20
48.5064
0
VERTEX
8
CUT
10
194.1377
20
48.0991
0
VERTEX
8
CUT
10
194.1520
20
46.2664
0
VERTEX
8
CUT
10
194.1634
20
44.7970
0
VERTEX
8
CUT
10
194.1844
20
42.1082
0
VERTEX
8
CUT
10
194.1632
20
40.7198
0
VERTEX
8
CUT
10
193.6541
20
35.2503
0
VERTEX
8
CUT
10
192.7515
20
30.9288
0
VERTEX
8
CUT
10
192.3321
20
29.7122
0
VERTEX
8
CUT
10
192.2729
20
29.5878
0
VERTEX
8
CUT
10
192.1534
20
29.3369
0
VERTEX
8
CUT
10
191.5839
20
28.1410
0
VERTEX
8
CUT
10
191.0446
20
27.0085
0
VERTEX
8
CUT
10
190.0848
20
25.8910
0
VERTEX
8
CUT
10
189.6328
20
25.5882
0
VERTEX
8
CUT
10
189.0845
20
25.2500
0
VERTEX
8
CUT
10
188.0319
20
25.0456
0
VERTEX
8
CUT
10
188.0311
20
25.0455
0
VERTEX
8
CUT
10
188.0308
20
25.0454
0
VERTEX
8
CUT
10
188.0307
20
25.0454
0
VERTEX
8
CUT
10
188.0291
20
25.0452
0
VERTEX
8
CUT
10
187.2467
20
25.1745
0
VERTEX
8
CUT
10
186.5935
20
25.3721
0
VERTEX
8
CUT
10
185.6225
20
25.8217
0
VERTEX
8
CUT
10
183.9901
20
26.9417
0
VERTEX
8
CUT
10
181.6304
20
29.3058
0
VERTEX
8
CUT
10
180.0759
20
31.4000
0
VERTEX
8
CUT
10
176.8310
20
36.6991
0
VERTEX
8
CUT
10
173.7851
20
42.7296
0
VERTEX
8
CUT
10
171.4189
20
48.7197
0
VERTEX
8
CUT
10
169.3912
20
56.2341
0
VERTEX
8
CUT
10
168.9396
20
58.4947
0
VERTEX
8
CUT
10
168.7058
20
60.5984
0
VERTEX
8
CUT
10
168.5746
20
60.6186
0
VERTEX
8
CUT
10
168.4576
20
60.6427
0
VERTEX
8
CUT
10
168.3035
20
60.6824
0
VERTEX
8
CUT
10
168.1895
20
60.7179
0
VERTEX
8
CUT
10
168.0400
20
60.7728
0
VERTEX
8
CUT
10
167.9301
20
60.8195
0
VERTEX
8
CUT
10
167.8703
20
60.8485
0
VERTEX
8
CUT
10
167.7355
20
60.9055
0
VERTEX
8
CUT
10
167.6809
20
60.9302
0
VERTEX
8
CUT
10
167.6631
20
60.9388
0
VERTEX
8
CUT
10
167.6098
20
60.9662
0
VERTEX
8
CUT
10
167.4697
20
61.0427
0
VERTEX
8
CUT
10
167.4179
20
61.0727
0
VERTEX
8
CUT
10
167.4010
20
61.0831
0
VERTEX
8
CUT
10
167.3507
20
61.1157
0
VERTEX
8
CUT
10
167.2879
20
61.1586
0
VERTEX
8
CUT
10
167.1959
20
61.2283
0
VERTEX
8
CUT
10
167.1110
20
61.3065
0
VERTEX
8
CUT
10
167.0339
20
61.3925
0
VERTEX
8
CUT
10
166.9655
20
61.4855
0
VERTEX
8
CUT
10
166.9064
20
61.5846
0
VERTEX
8
CUT
10
166.8570
20
61.6890
0
VERTEX
8
CUT
10
166.8179
20
61.7976
0
VERTEX
8
CUT
10
166.7895
20
61.9095
0
VERTEX
8
CUT
10
166.7719
20
62.0236
0
VERTEX
8
CUT
10
166.7686
20
62.0812
0
VERTEX
8
CUT
10
166.7667
20
62.0855
0
VERTEX
8
CUT
10
166.7237
20
62.1970
0
VERTEX
8
CUT
10
166.6738
20
62.3484
0
VERTEX
8
CUT
10
166.6421
20
62.4637
0
VERTEX
8
CUT
10
166.6075
20
62.6192
0
VERTEX
8
CUT
10
166.5875
20
62.7371
0
VERTEX
8
CUT
10
166.5686
20
62.8954
0
VERTEX
8
CUT
10
166.5603
20
63.0146
0
SEQEND
0
POLYLINE
8
CUT
66
1
70
1
10
0.0
20
0.0
30
0.0
0
VERTEX
8
CUT
10
276.6075
20
231.7854
0
VERTEX
8
CUT
10
276.2260
20
231.7134
0
VERTEX
8
CUT
10
273.6814
20
231.8470
0
VERTEX
8
CUT
10
273.3451
20
231.4492
0
VERTEX
8
CUT
10
275.4870
20
227.7798
0
VERTEX
8
CUT
10
277.2214
20
225.2833
0
VERTEX
8
CUT
10
278.0078
20
225.0939
0
VERTEX
8
CUT
10
278.1853
20
224.9857
0
VERTEX
8
CUT
10
278.3271
20
225.0170
0
VERTEX
8
CUT
10
278.4521
20
224.9869
0
VERTEX
8
CUT
10
278.4753
20
224.9962
0
VERTEX
8
CUT
10
278.4980
20
224.9882
0
VERTEX
8
CUT
10
279.6451
20
225.3891
0
VERTEX
8
CUT
10
279.7725
20
225.5195
0
VERTEX
8
CUT
10
279.8212
20
225.5392
0
VERTEX
8
CUT
10
279.9287
20
225.6795
0
VERTEX
8
CUT
10
280.4102
20
226.1725
0
VERTEX
8
CUT
10
280.5532
20
226.4946
0
VERTEX
8
CUT
10
280.9311
20
226.9880
0
VERTEX
8
CUT
10
281.7219
20
229.2224
0
VERTEX
8
CUT
10
282.1001
20
231.9542
0
VERTEX
8
CUT
10
282.0130
20
234.9163
0
VERTEX
8
CUT
10
281.3368
20
238.4022
0
VERTEX
8
CUT
10
280.8080
20
240.0525
0
VERTEX
8
CUT
10
280.1468
20
241.6156
0
VERTEX
8
CUT
10
278.5236
20
244.3829
0
VERTEX
8
CUT
10
277.5818
20
245.5563
0
VERTEX
8
CUT
10
275.4679
20
247.4673
0
VERTEX
8
CUT
10
273.3066
20
248.7858
0
VERTEX
8
CUT
10
272.1416
20
249.2546
0
VERTEX
8
CUT
10
269.4681
20
249.7916
0
VERTEX
8
CUT
10
261.9974
20
250.0600
0
VERTEX
8
CUT
10
261.2507
20
250.1911
0
VERTEX
8
CUT
10
261.2447
20
250.1929
0
VERTEX
8
CUT
10
261.2413
20
250.1939
0
VERTEX
8
CUT
10
261.2353
20
250.1956
0
VERTEX
8
CUT
10
261.2164
20
250.2011
0
VERTEX
8
CUT
10
259.8897
20
250.8439
0
VERTEX
8
CUT
10
259.4823
20
250.7020
0
VERTEX
8
CUT
10
259.4764
20
250.2394
0
VERTEX
8
CUT
10
266.1551
20
241.9102
0
VERTEX
8
CUT
10
270.4045
20
235.8873
0
VERTEX
8
CUT
10
270.9405
20
236.0390
0
VERTEX
8
CUT
10
271.3890
20
237.7937
0
VERTEX
8
CUT
10
272.3737
20
239.3144
0
VERTEX
8
CUT
10
272.8616
20
239.7065
0
VERTEX
8
CUT
10
273.7988
20
240.1858
0
VERTEX
8
CUT
10
275.2675
20
240.4020
0
VERTEX
8
CUT
10
276.6186
20
240.2544
0
VERTEX
8
CUT
10
278.1496
20
239.5236
0
VERTEX
8
CUT
10
278.2149
20
239.4682
0
VERTEX
8
CUT
10
278.9007
20
238.7843
0
VERTEX
8
CUT
10
278.9187
20
238.7541
0
VERTEX
8
CUT
10
279.4975
20
237.6455
0
VERTEX
8
CUT
10
279.7487
20
236.0275
0
VERTEX
8
CUT
10
279.7490
20
236.0251
0
VERTEX
8
CUT
10
279.7480
20
236.0171
0
VERTEX
8
CUT
10
279.7477
20
236.0147
0
VERTEX
8
CUT
10
279.7477
20
236.0145
0
VERTEX
8
CUT
10
279.7475
20
236.0132
0
VERTEX
8
CUT
10
279.3844
20
234.5145
0
VERTEX
8
CUT
10
278.9863
20
233.7535
0
VERTEX
8
CUT
10
277.8406
20
232.4878
0
VERTEX
8
CUT
10
277.4306
20
232.1971
0
SEQEND
0
POLYLINE
8
CUT
66
1
70
1
10
0.0
20
0.0
30
0.0
0
VERTEX
8
CUT
10
249.9361
20
23.2481
0
VERTEX
8
CUT
10
249.3815
20
23.7984
0
VERTEX
8
CUT
10
249.2654
20
23.9387
0
VERTEX
8
CUT
10
249.2372
20
23.9804
0
VERTEX
8
CUT
10
249.2193
20
24.0070
0
VERTEX
8
CUT
10
249.1040
20
24.1775
0
VERTEX
8
CUT
10
248.9084
20
24.4670
0
VERTEX
8
CUT
10
248.4525
20
25.9308
0
VERTEX
8
CUT
10
248.7118
20
29.0816
0
VERTEX
8
CUT
10
248.6763
20
29.1934
0
VERTEX
8
CUT
10
248.7103
20
29.3185
0
VERTEX
8
CUT
10
248.5955
20
29.6441
0
VERTEX
8
CUT
10
248.2752
20
29.7736
0
VERTEX
8
CUT
10
248.1017
20
29.7254
0
VERTEX
8
CUT
10
248.0289
20
29.7438
0
VERTEX
8
CUT
10
247.3743
20
29.6353
0
VERTEX
8
CUT
10
246.8094
20
29.3666
0
VERTEX
8
CUT
10
246.6148
20
29.3125
0
VERTEX
8
CUT
10
245.8868
20
28.9276
0
VERTEX
8
CUT
10
245.7769
20
28.8753
0
VERTEX
8
CUT
10
245.7591
20
28.8601
0
VERTEX
8
CUT
10
245.5322
20
28.7402
0
VERTEX
8
CUT
10
244.6349
20
27.9860
0
VERTEX
8
CUT
10
244.3712
20
27.6705
0
VERTEX
8
CUT
10
244.1889
20
27.5142
0
VERTEX
8
CUT
10
243.5348
20
26.6858
0
VERTEX
8
CUT
10
243.0635
20
25.8208
0
VERTEX
8
CUT
10
242.6763
20
24.1380
0
VERTEX
8
CUT
10
242.7158
20
23.2761
0
VERTEX
8
CUT
10
243.3248
20
21.6351
0
VERTEX
8
CUT
10
243.9913
20
20.9061
0
VERTEX
8
CUT
10
244.0650
20
20.8014
0
VERTEX
8
CUT
10
244.1542
20
20.7279
0
VERTEX
8
CUT
10
244.7650
20
20.0599
0
VERTEX
8
CUT
10
246.0112
20
19.3108
0
VERTEX
8
CUT
10
248.9936
20
18.4394
0
VERTEX
8
CUT
10
250.7411
20
18.2875
0
VERTEX
8
CUT
10
251.9159
20
18.3734
0
VERTEX
8
CUT
10
252.7262
20
18.3459
0
VERTEX
8
CUT
10
253.8945
20
18.5180
0
VERTEX
8
CUT
10
254.3129
20
18.5486
0
VERTEX
8
CUT
10
256.1770
20
19.0277
0
VERTEX
8
CUT
10
258.5323
20
19.9134
0
VERTEX
8
CUT
10
261.6882
20
21.7839
0
VERTEX
8
CUT
10
263.8284
20
23.5666
0
VERTEX
8
CUT
10
264.3562
20
24.1012
0
VERTEX
8
CUT
10
264.3772
20
24.1177
0
VERTEX
8
CUT
10
265.8463
20
25.5865
0
VERTEX
8
CUT
10
265.9463
20
25.7118
0
VERTEX
8
CUT
10
266.1287
20
25.8966
0
VERTEX
8
CUT
10
269.6242
20
30.3089
0
VERTEX
8
CUT
10
270.9923
20
32.4829
0
VERTEX
8
CUT
10
271.0213
20
32.8180
0
VERTEX
8
CUT
10
270.5134
20
33.0428
0
VERTEX
8
CUT
10
269.0743
20
31.9790
0
VERTEX
8
CUT
10
269.0674
20
31.9749
0
VERTEX
8
CUT
10
268.9170
20
31.8857
0
VERTEX
8
CUT
10
268.8561
20
31.8495
0
VERTEX
8
CUT
10
268.7839
20
31.8067
0
VERTEX
8
CUT
10
267.4232
20
31.1111
0
VERTEX
8
CUT
10
266.1150
20
30.6387
0
VERTEX
8
CUT
10
265.6105
20
30.5459
0
VERTEX
8
CUT
10
264.6845
20
30.4088
0
VERTEX
8
CUT
10
264.0150
20
30.4246
0
VERTEX
8
CUT
10
263.7715
20
30.4487
0
VERTEX
8
CUT
10
263.5510
20
30.4955
0
VERTEX
8
CUT
10
263.3228
20
30.5439
0
VERTEX
8
CUT
10
261.8606
20
31.0756
0
VERTEX
8
CUT
10
260.5251
20
32.2128
0
VERTEX
8
CUT
10
259.8169
20
33.5909
0
VERTEX
8
CUT
10
259.6850
20
34.5285
0
VERTEX
8
CUT
10
259.8693
20
35.5472
0
VERTEX
8
CUT
10
259.9275
20
35.8430
0
VERTEX
8
CUT
10
259.9525
20
35.9700
0
VERTEX
8
CUT
10
259.9769
20
36.0943
0
VERTEX
8
CUT
10
260.0280
20
36.3536
0
VERTEX
8
CUT
10
260.4900
20
37.1686
0
VERTEX
8
CUT
10
261.0127
20
37.7625
0
VERTEX
8
CUT
10
261.0128
20
37.7626
0
VERTEX
8
CUT
10
261.0157
20
37.7654
0
VERTEX
8
CUT
10
261.0302
20
37.7794
0
VERTEX
8
CUT
10
261.2599
20
38.0001
0
VERTEX
8
CUT
10
262.9820
20
39.2143
0
VERTEX
8
CUT
10
266.6130
20
40.6509
0
VERTEX
8
CUT
10
266.8351
20
41.0510
0
VERTEX
8
CUT
10
266.5233
20
41.3861
0
VERTEX
8
CUT
10
263.8952
20
41.5126
0
VERTEX
8
CUT
10
262.1964
20
41.8737
0
VERTEX
8
CUT
10
260.1583
20
43.0053
0
VERTEX
8
CUT
10
259.0354
20
44.3330
0
VERTEX
8
CUT
10
258.6128
20
45.1780
0
VERTEX
8
CUT
10
258.4553
20
46.7460
0
VERTEX
8
CUT
10
258.6692
20
47.5478
0
VERTEX
8
CUT
10
259.6910
20
48.9095
0
VERTEX
8
CUT
10
261.1443
20
49.7271
0
VERTEX
8
CUT
10
262.6061
20
49.9127
0
VERTEX
8
CUT
10
269.3591
20
50.0601
0
VERTEX
8
CUT
10
270.2319
20
50.2788
0
VERTEX
8
CUT
10
271.0011
20
50.3067
0
VERTEX
8
CUT
10
271.7179
20
50.6436
0
VERTEX
8
CUT
10
271.8578
20
50.6711
0
VERTEX
8
CUT
10
271.9622
20
50.7124
0
VERTEX
8
CUT
10
272.5231
20
50.8530
0
VERTEX
8
CUT
10
273.2378
20
51.2175
0
VERTEX
8
CUT
10
273.3083
20
51.2454
0
VERTEX
8
CUT
10
273.3741
20
51.2870
0
VERTEX
8
CUT
10
274.6328
20
51.9290
0
VERTEX
8
CUT
10
275.6841
20
52.7474
0
VERTEX
8
CUT
10
275.8141
20
52.8296
0
VERTEX
8
CUT
10
275.8829
20
52.9022
0
VERTEX
8
CUT
10
276.4502
20
53.3439
0
VERTEX
8
CUT
10
278.0953
20
55.0773
0
VERTEX
8
CUT
10
279.5058
20
57.1343
0
VERTEX
8
CUT
10
280.6334
20
59.5124
0
VERTEX
8
CUT
10
281.4857
20
62.1094
0
VERTEX
8
CUT
10
282.0133
20
64.9116
0
VERTEX
8
CUT
10
282.0714
20
68.8405
0
VERTEX
8
CUT
10
281.8095
20
70.6623
0
VERTEX
8
CUT
10
281.4518
20
71.7334
0
VERTEX
8
CUT
10
281.3683
20
72.1434
0
VERTEX
8
CUT
10
281.1884
20
72.5223
0
VERTEX
8
CUT
10
280.7985
20
73.6901
0
VERTEX
8
CUT
10
280.0558
20
74.7910
0
VERTEX
8
CUT
10
279.3316
20
75.4035
0
VERTEX
8
CUT
10
278.5295
20
75.6293
0
VERTEX
8
CUT
10
278.3398
20
75.5647
0
VERTEX
8
CUT
10
278.2463
20
75.5844
0
VERTEX
8
CUT
10
278.2380
20
75.5773
0
VERTEX
8
CUT
10
278.2070
20
75.5880
0
VERTEX
8
CUT
10
277.9485
20
75.4314
0
VERTEX
8
CUT
10
277.5059
20
75.2806
0
VERTEX
8
CUT
10
276.7996
20
74.5923
0
VERTEX
8
CUT
10
274.2939
20
70.6688
0
VERTEX
8
CUT
10
272.1493
20
68.3680
0
VERTEX
8
CUT
10
272.2524
20
68.0472
0
VERTEX
8
CUT
10
272.5670
20
67.9269
0
VERTEX
8
CUT
10
274.1914
20
68.5783
0
VERTEX
8
CUT
10
276.0448
20
68.7023
0
VERTEX
8
CUT
10
276.9541
20
68.5299
0
VERTEX
8
CUT
10
276.9659
20
68.5260
0
VERTEX
8
CUT
10
278.2483
20
67.7020
0
VERTEX
8
CUT
10
278.4138
20
67.5426
0
VERTEX
8
CUT
10
278.4463
20
67.5113
0
VERTEX
8
CUT
10
278.4815
20
67.4774
0
VERTEX
8
CUT
10
278.4897
20
67.4695
0
VERTEX
8
CUT
10
279.3150
20
66.2256
0
VERTEX
8
CUT
10
279.7198
20
64.5462
0
VERTEX
8
CUT
10
279.4994
20
62.9155
0
VERTEX
8
CUT
10
278.4264
20
61.2189
0
VERTEX
8
CUT
10
277.6157
20
60.5801
0
VERTEX
8
CUT
10
277.5322
20
60.5340
0
VERTEX
8
CUT
10
276.5257
20
60.1553
0
VERTEX
8
CUT
10
275.0131
20
60.0372
0
VERTEX
8
CUT
10
273.8887
20
60.2688
0
VERTEX
8
CUT
10
273.5776
20
60.3951
0
VERTEX
8
CUT
10
273.1654
20
60.6523
0
VERTEX
8
CUT
10
273.0462
20
60.7267
0
VERTEX
8
CUT
10
273.0004
20
60.7553
0
VERTEX
8
CUT
10
272.9597
20
60.7806
0
VERTEX
8
CUT
10
272.1914
20
61.3767
0
VERTEX
8
CUT
10
271.3672
20
62.6327
0
VERTEX
8
CUT
10
270.9447
20
64.0270
0
VERTEX
8
CUT
10
270.6695
20
64.2057
0
VERTEX
8
CUT
10
270.3847
20
64.1343
0
VERTEX
8
CUT
10
263.6222
20
54.8120
0
VERTEX
8
CUT
10
260.3390
20
50.9319
0
VERTEX
8
CUT
10
258.8378
20
49.8439
0
VERTEX
8
CUT
10
257.7445
20
47.8701
0
VERTEX
8
CUT
10
255.9313
20
45.7201
0
VERTEX
8
CUT
10
248.4159
20
38.1747
0
VERTEX
8
CUT
10
247.0287
20
37.0987
0
VERTEX
8
CUT
10
244.8794
20
35.9048
0
VERTEX
8
CUT
10
244.8311
20
35.4738
0
VERTEX
8
CUT
10
245.2115
20
35.2654
0
VERTEX
8
CUT
10
247.2098
20
35.9159
0
VERTEX
8
CUT
10
250.9521
20
36.1845
0
VERTEX
8
CUT
10
252.8895
20
35.9142
0
VERTEX
8
CUT
10
254.5895
20
35.3282
0
VERTEX
8
CUT
10
256.7456
20
33.7527
0
VERTEX
8
CUT
10
258.0926
20
32.0727
0
VERTEX
8
CUT
10
258.1056
20
32.0413
0
VERTEX
8
CUT
10
258.1062
20
32.0397
0
VERTEX
8
CUT
10
258.1099
20
32.0308
0
VERTEX
8
CUT
10
258.1318
20
31.9780
0
VERTEX
8
CUT
10
258.8359
20
30.1973
0
VERTEX
8
CUT
10
259.0529
20
28.2970
0
VERTEX
8
CUT
10
258.7640
20
26.4244
0
VERTEX
8
CUT
10
258.7406
20
26.3635
0
VERTEX
8
CUT
10
258.1532
20
25.1271
0
VERTEX
8
CUT
10
258.0808
20
25.0201
0
VERTEX
8
CUT
10
258.0670
20
24.9997
0
VERTEX
8
CUT
10
257.9742
20
24.8625
0
VERTEX
8
CUT
10
257.7550
20
24.5388
0
VERTEX
8
CUT
10
257.1423
20
23.8789
0
VERTEX
8
CUT
10
256.9641
20
23.7105
0
VERTEX
8
CUT
10
256.8219
20
23.5760
0
VERTEX
8
CUT
10
256.7901
20
23.5460
0
VERTEX
8
CUT
10
256.6827
20
23.4444
0
VERTEX
8
CUT
10
255.1498
20
22.5817
0
VERTEX
8
CUT
10
253.1655
20
22.2459
0
VERTEX
8
CUT
10
251.8865
20
22.3648
0
VERTEX
8
CUT
10
250.6813
20
22.7435
0
SEQEND
0
POLYLINE
8
CUT
66
1
70
1
10
0.0
20
0.0
30
0.0
0
VERTEX
8
CUT
10
201.9826
20
137.0896
0
VERTEX
8
CUT
10
202.0950
20
137.1559
0
VERTEX
8
CUT
10
202.4230
20
137.3128
0
VERTEX
8
CUT
10
202.9746
20
137.3733
0
VERTEX
8
CUT
10
203.9730
20
137.2177
0
VERTEX
8
CUT
10
204.5522
20
137.0583
0
VERTEX
8
CUT
10
205.4907
20
136.3724
0
VERTEX
8
CUT
10
206.5329
20
134.1208
0
VERTEX
8
CUT
10
206.6700
20
133.3542
0
VERTEX
8
CUT
10
206.9048
20
131.0499
0
VERTEX
8
CUT
10
206.9603
20
130.8548
0
VERTEX
8
CUT
10
206.9382
20
130.4349
0
VERTEX
8
CUT
10
207.3551
20
129.4224
0
VERTEX
8
CUT
10
208.0400
20
129.0353
0
VERTEX
8
CUT
10
208.0860
20
129.0495
0
VERTEX
8
CUT
10
208.4317
20
128.8468
0
VERTEX
8
CUT
10
209.1445
20
128.3692
0
VERTEX
8
CUT
10
209.4139
20
127.9195
0
VERTEX
8
CUT
10
209.7939
20
127.0445
0
VERTEX
8
CUT
10
210.3117
20
127.0083
0
VERTEX
8
CUT
10
210.4775
20
127.7979
0
VERTEX
8
CUT
10
210.0802
20
129.2747
0
VERTEX
8
CUT
10
208.3204
20
132.1089
0
VERTEX
8
CUT
10
208.0943
20
132.5078
0
VERTEX
8
CUT
10
208.0576
20
132.5995
0
VERTEX
8
CUT
10
206.9637
20
135.7185
0
VERTEX
8
CUT
10
204.8075
20
139.5594
0
VERTEX
8
CUT
10
204.2276
20
141.4959
0
VERTEX
8
CUT
10
204.1947
20
141.9839
0
VERTEX
8
CUT
10
204.1921
20
142.1939
0
VERTEX
8
CUT
10
204.1902
20
142.3476
0
VERTEX
8
CUT
10
204.1840
20
142.8468
0
VERTEX
8
CUT
10
204.1728
20
143.7528
0
VERTEX
8
CUT
10
204.3923
20
145.4367
0
VERTEX
8
CUT
10
205.3211
20
147.4734
0
VERTEX
8
CUT
10
207.0839
20
149.7872
0
VERTEX
8
CUT
10
209.4725
20
152.1716
0
VERTEX
8
CUT
10
209.8053
20
152.4697
0
VERTEX
8
CUT
10
209.8612
20
152.5198
0
VERTEX
8
CUT
10
210.0472
20
152.6865
0
VERTEX
8
CUT
10
210.4211
20
153.0214
0
VERTEX
8
CUT
10
210.6904
20
153.2164
0
VERTEX
8
CUT
10
211.2986
20
153.4862
0
VERTEX
8
CUT
10
211.3001
20
153.4868
0
VERTEX
8
CUT
10
211.3317
20
153.5009
0
VERTEX
8
CUT
10
212.0688
20
153.8278
0
VERTEX
8
CUT
10
212.3179
20
153.9277
0
VERTEX
8
CUT
10
213.0558
20
153.9875
0
VERTEX
8
CUT
10
214.6986
20
153.5585
0
VERTEX
8
CUT
10
216.4930
20
152.4535
0
VERTEX
8
CUT
10
217.0848
20
152.0719
0
VERTEX
8
CUT
10
217.1076
20
152.0751
0
VERTEX
8
CUT
10
217.2130
20
152.0101
0
VERTEX
8
CUT
10
217.6245
20
152.1465
0
VERTEX
8
CUT
10
218.0219
20
152.2015
0
VERTEX
8
CUT
10
218.4477
20
152.4195
0
VERTEX
8
CUT
10
218.4730
20
152.4278
0
VERTEX
8
CUT
10
222.6864
20
154.5351
0
VERTEX
8
CUT
10
223.7836
20
155.1508
0
VERTEX
8
CUT
10
225.6613
20
156.1119
0
VERTEX
8
CUT
10
233.1790
20
160.4204
0
VERTEX
8
CUT
10
238.3067
20
163.6404
0
VERTEX
8
CUT
10
243.2289
20
167.0504
0
VERTEX
8
CUT
10
247.9562
20
170.6177
0
VERTEX
8
CUT
10
249.4603
20
171.8626
0
VERTEX
8
CUT
10
250.4249
20
172.6102
0
VERTEX
8
CUT
10
251.1893
20
173.2938
0
VERTEX
8
CUT
10
252.4464
20
174.3343
0
VERTEX
8
CUT
10
256.6965
20
178.1678
0
VERTEX
8
CUT
10
260.6809
20
182.1514
0
VERTEX
8
CUT
10
264.3966
20
186.2232
0
VERTEX
8
CUT
10
270.0456
20
193.0016
0
VERTEX
8
CUT
10
270.1738
20
193.1177
0
VERTEX
8
CUT
10
270.2028
20
193.1439
0
VERTEX
8
CUT
10
270.2128
20
193.1529
0
VERTEX
8
CUT
10
270.7059
20
193.5993
0
VERTEX
8
CUT
10
271.0093
20
193.5774
0
VERTEX
8
CUT
10
271.1086
20
192.9569
0
VERTEX
8
CUT
10
269.8949
20
190.3061
0
VERTEX
8
CUT
10
266.5586
20
184.9438
0
VERTEX
8
CUT
10
263.8823
20
181.3330
0
VERTEX
8
CUT
10
263.0472
20
180.2501
0
VERTEX
8
CUT
10
260.1298
20
176.8108
0
VERTEX
8
CUT
10
258.3241
20
174.8660
0
VERTEX
8
CUT
10
255.5575
20
171.9983
0
VERTEX
8
CUT
10
251.1285
20
167.8962
0
VERTEX
8
CUT
10
246.7427
20
164.2777
0
VERTEX
8
CUT
10
246.0716
20
163.7437
0
VERTEX
8
CUT
10
241.8616
20
160.5800
0
VERTEX
8
CUT
10
239.9690
20
159.2718
0
VERTEX
8
CUT
10
235.9305
20
156.5791
0
VERTEX
8
CUT
10
228.5297
20
152.4911
0
VERTEX
8
CUT
10
225.9091
20
151.2195
0
VERTEX
8
CUT
10
223.7691
20
150.2225
0
VERTEX
8
CUT
10
219.4238
20
148.3699
0
VERTEX
8
CUT
10
219.1710
20
148.0687
0
VERTEX
8
CUT
10
219.2001
20
147.5351
0
VERTEX
8
CUT
10
219.5532
20
147.2730
0
VERTEX
8
CUT
10
220.0219
20
147.3383
0
VERTEX
8
CUT
10
220.1195
20
147.2783
0
VERTEX
8
CUT
10
220.8472
20
147.4533
0
VERTEX
8
CUT
10
221.3800
20
147.5276
0
VERTEX
8
CUT
10
235.5609
20
150.8874
0
VERTEX
8
CUT
10
244.0166
20
153.2693
0
VERTEX
8
CUT
10
250.5785
20
155.4438
0
VERTEX
8
CUT
10
250.8604
20
155.5311
0
VERTEX
8
CUT
10
250.9904
20
155.5803
0
VERTEX
8
CUT
10
254.1498
20
156.6273
0
VERTEX
8
CUT
10
259.0391
20
158.5054
0
VERTEX
8
CUT
10
260.9812
20
159.3598
0
VERTEX
8
CUT
10
260.9898
20
159.3630
0
VERTEX
8
CUT
10
265.8202
20
161.4801
0
VERTEX
8
CUT
10
265.9474
20
161.5444
0
VERTEX
8
CUT
10
268.4366
20
162.6395
0
VERTEX
8
CUT
10
277.6271
20
167.3392
0
VERTEX
8
CUT
10
280.7748
20
169.2209
0
VERTEX
8
CUT
10
281.5698
20
169.9720
0
VERTEX
8
CUT
10
281.6126
20
170.3331
0
VERTEX
8
CUT
10
281.1643
20
171.1495
0
VERTEX
8
CUT
10
280.7072
20
172.7283
0
VERTEX
8
CUT
10
279.9279
20
175.9900
0
VERTEX
8
CUT
10
278.8609
20
181.0361
0
VERTEX
8
CUT
10
277.4523
20
186.3513
0
VERTEX
8
CUT
10
276.6942
20
189.5240
0
VERTEX
8
CUT
10
275.7036
20
192.2242
0
VERTEX
8
CUT
10
275.2890
20
193.5371
0
VERTEX
8
CUT
10
273.3352
20
198.6803
0
VERTEX
8
CUT
10
271.4763
20
203.7473
0
VERTEX
8
CUT
10
269.1905
20
208.3784
0
VERTEX
8
CUT
10
268.1506
20
210.6362
0
VERTEX
8
CUT
10
267.7251
20
211.4542
0
VERTEX
8
CUT
10
266.8142
20
213.3685
0
VERTEX
8
CUT
10
266.1520
20
214.5345
0
VERTEX
8
CUT
10
264.8137
20
217.2460
0
VERTEX
8
CUT
10
263.0094
20
220.0851
0
VERTEX
8
CUT
10
262.8253
20
220.3919
0
VERTEX
8
CUT
10
261.3425
20
223.0027
0
VERTEX
8
CUT
10
258.2563
20
227.7507
0
VERTEX
8
CUT
10
257.2428
20
229.1589
0
VERTEX
8
CUT
10
256.7487
20
229.9364
0
VERTEX
8
CUT
10
256.1128
20
230.7290
0
VERTEX
8
CUT
10
254.8956
20
232.4203
0
VERTEX
8
CUT
10
252.1136
20
235.9725
0
VERTEX
8
CUT
10
251.2927
20
236.7371
0
VERTEX
8
CUT
10
247.3238
20
241.6841
0
VERTEX
8
CUT
10
236.7412
20
252.3886
0
VERTEX
8
CUT
10
235.3102
20
253.5410
0
VERTEX
8
CUT
10
234.9847
20
253.9052
0
VERTEX
8
CUT
10
226.7702
20
260.4881
0
VERTEX
8
CUT
10
225.9964
20
261.0418
0
VERTEX
8
CUT
10
224.9978
20
261.8460
0
VERTEX
8
CUT
10
223.8392
20
262.5853
0
VERTEX
8
CUT
10
223.3115
20
262.9628
0
VERTEX
8
CUT
10
216.2423
20
267.5667
0
VERTEX
8
CUT
10
214.1546
20
268.7647
0
VERTEX
8
CUT
10
212.2587
20
269.9744
0
VERTEX
8
CUT
10
209.7049
20
271.3412
0
VERTEX
8
CUT
10
209.0959
20
271.5488
0
VERTEX
8
CUT
10
208.7901
20
271.1661
0
VERTEX
8
CUT
10
209.6941
20
268.7492
0
VERTEX
8
CUT
10
209.9769
20
267.0519
0
VERTEX
8
CUT
10
209.9858
20
266.9850
0
VERTEX
8
CUT
10
209.9901
20
266.9523
0
VERTEX
8
CUT
10
209.9959
20
266.9085
0
VERTEX
8
CUT
10
210.0031
20
266.8551
0
VERTEX
8
CUT
10
209.9858
20
265.6779
0
VERTEX
8
CUT
10
209.8651
20
264.6057
0
VERTEX
8
CUT
10
209.6051
20
263.4734
0
VERTEX
8
CUT
10
208.9015
20
262.0668
0
VERTEX
8
CUT
10
207.9580
20
260.8797
0
VERTEX
8
CUT
10
206.8774
20
259.9811
0
VERTEX
8
CUT
10
205.6792
20
259.3205
0
VERTEX
8
CUT
10
204.3209
20
258.9350
0
VERTEX
8
CUT
10
203.0179
20
258.8817
0
VERTEX
8
CUT
10
202.9917
20
258.8834
0
VERTEX
8
CUT
10
202.9831
20
258.8840
0
VERTEX
8
CUT
10
202.9476
20
258.8863
0
VERTEX
8
CUT
10
202.8601
20
258.8919
0
VERTEX
8
CUT
10
201.7467
20
259.1213
0
VERTEX
8
CUT
10
201.6962
20
259.1440
0
VERTEX
8
CUT
10
201.4136
20
259.2706
0
VERTEX
8
CUT
10
201.2887
20
259.3266
0
VERTEX
8
CUT
10
200.2389
20
259.7972
0
VERTEX
8
CUT
10
199.2804
20
260.6172
0
VERTEX
8
CUT
10
198.6809
20
261.5788
0
VERTEX
8
CUT
10
198.3713
20
262.6477
0
VERTEX
8
CUT
10
198.4057
20
263.8071
0
VERTEX
8
CUT
10
198.7493
20
264.7601
0
VERTEX
8
CUT
10
199.3827
20
265.5801
0
VERTEX
8
CUT
10
200.3138
20
266.1570
0
VERTEX
8
CUT
10
202.2951
20
266.4470
0
VERTEX
8
CUT
10
202.6922
20
266.7354
0
VERTEX
8
CUT
10
202.6323
20
267.1549
0
VERTEX
8
CUT
10
202.6499
20
267.4201
0
VERTEX
8
CUT
10
202.5865
20
267.4749
0
VERTEX
8
CUT
10
202.5642
20
267.6309
0
VERTEX
8
CUT
10
202.3140
20
268.0071
0
VERTEX
8
CUT
10
202.1687
20
268.4026
0
VERTEX
8
CUT
10
201.6511
20
269.0039
0
VERTEX
8
CUT
10
201.5878
20
269.0991
0
VERTEX
8
CUT
10
201.5379
20
269.1355
0
VERTEX
8
CUT
10
201.2907
20
269.4226
0
VERTEX
8
CUT
10
200.7487
20
269.7102
0
VERTEX
8
CUT
10
200.5645
20
269.8442
0
VERTEX
8
CUT
10
200.3145
20
269.9405
0
VERTEX
8
CUT
10
200.0189
20
270.0973
0
VERTEX
8
CUT
10
199.6619
20
270.1917
0
VERTEX
8
CUT
10
199.4253
20
270.2827
0
VERTEX
8
CUT
10
199.2337
20
270.3048
0
VERTEX
8
CUT
10
199.2176
20
270.3091
0
VERTEX
8
CUT
10
199.1992
20
270.3088
0
VERTEX
8
CUT
10
198.2125
20
270.4226
0
VERTEX
8
CUT
10
196.9500
20
270.2793
0
VERTEX
8
CUT
10
195.7611
20
269.8671
0
VERTEX
8
CUT
10
194.6444
20
269.1447
0
VERTEX
8
CUT
10
193.7188
20
268.0941
0
VERTEX
8
CUT
10
193.0777
20
266.9196
0
VERTEX
8
CUT
10
192.6684
20
265.6086
0
VERTEX
8
CUT
10
192.5596
20
264.3575
0
VERTEX
8
CUT
10
192.7319
20
263.0599
0
VERTEX
8
CUT
10
193.1669
20
261.7250
0
VERTEX
8
CUT
10
193.8653
20
260.3863
0
VERTEX
8
CUT
10
194.1978
20
259.9974
0
VERTEX
8
CUT
10
194.2914
20
259.8185
0
VERTEX
8
CUT
10
195.6891
20
258.2095
0
VERTEX
8
CUT
10
195.8419
20
258.0746
0
VERTEX
8
CUT
10
196.1207
20
257.7486
0
VERTEX
8
CUT
10
197.3461
20
256.7465
0
VERTEX
8
CUT
10
197.4881
20
256.6211
0
VERTEX
8
CUT
10
197.5219
20
256.6027
0
VERTEX
8
CUT
10
197.8777
20
256.3117
0
VERTEX
8
CUT
10
200.2691
20
254.8936
0
VERTEX
8
CUT
10
205.3932
20
252.3070
0
VERTEX
8
CUT
10
205.8339
20
252.0789
0
VERTEX
8
CUT
10
207.1672
20
251.3533
0
VERTEX
8
CUT
10
209.3353
20
250.0622
0
VERTEX
8
CUT
10
211.5503
20
248.3935
0
VERTEX
8
CUT
10
213.3700
20
246.6317
0
VERTEX
8
CUT
10
213.3892
20
246.6082
0
VERTEX
8
CUT
10
213.4015
20
246.5932
0
VERTEX
8
CUT
10
213.4189
20
246.5719
0
VERTEX
8
CUT
10
213.5825
20
246.3717
0
VERTEX
8
CUT
10
215.5946
20
243.7206
0
VERTEX
8
CUT
10
217.3821
20
240.3256
0
VERTEX
8
CUT
10
218.6610
20
236.5483
0
VERTEX
8
CUT
10
219.4949
20
232.6355
0
VERTEX
8
CUT
10
219.3860
20
232.1315
0
VERTEX
8
CUT
10
219.6242
20
231.3573
0
VERTEX
8
CUT
10
220.0709
20
231.4168
0
VERTEX
8
CUT
10
220.4878
20
232.6080
0
VERTEX
8
CUT
10
220.4624
20
232.8537
0
VERTEX
8
CUT
10
221.3804
20
235.8561
0
VERTEX
8
CUT
10
221.7109
20
237.6500
0
VERTEX
8
CUT
10
221.8862
20
241.8605
0
VERTEX
8
CUT
10
221.6803
20
245.7593
0
VERTEX
8
CUT
10
221.3808
20
247.6189
0
VERTEX
8
CUT
10
220.4332
20
251.1953
0
VERTEX
8
CUT
10
219.9509
20
252.3912
0
VERTEX
8
CUT
10
219.9073
20
252.5363
0
VERTEX
8
CUT
10
219.7478
20
252.8949
0
VERTEX
8
CUT
10
218.9619
20
254.8438
0
VERTEX
8
CUT
10
216.9574
20
258.7965
0
VERTEX
8
CUT
10
216.6206
20
259.6627
0
VERTEX
8
CUT
10
216.7126
20
259.9731
0
VERTEX
8
CUT
10
217.0789
20
260.0223
0
VERTEX
8
CUT
10
217.9084
20
259.6233
0
VERTEX
8
CUT
10
219.8322
20
258.0389
0
VERTEX
8
CUT
10
223.1996
20
254.4335
0
VERTEX
8
CUT
10
224.7915
20
252.2441
0
VERTEX
8
CUT
10
226.1617
20
249.9293
0
VERTEX
8
CUT
10
227.2711
20
247.5250
0
VERTEX
8
CUT
10
228.1096
20
245.0330
0
VERTEX
8
CUT
10
228.7010
20
242.4309
0
VERTEX
8
CUT
10
229.0657
20
239.6657
0
VERTEX
8
CUT
10
229.1846
20
236.8028
0
VERTEX
8
CUT
10
229.1242
20
234.2265
0
VERTEX
8
CUT
10
228.7360
20
230.9712
0
VERTEX
8
CUT
10
227.8576
20
227.6419
0
VERTEX
8
CUT
10
226.7770
20
224.8624
0
VERTEX
8
CUT
10
226.7733
20
224.8543
0
VERTEX
8
CUT
10
226.7262
20
224.7525
0
VERTEX
8
CUT
10
226.7174
20
224.7334
0
VERTEX
8
CUT
10
226.6221
20
224.5271
0
VERTEX
8
CUT
10
225.2113
20
221.8796
0
VERTEX
8
CUT
10
223.4129
20
219.2451
0
VERTEX
8
CUT
10
221.3696
20
216.7852
0
VERTEX
8
CUT
10
219.1226
20
214.6269
0
VERTEX
8
CUT
10
216.6623
20
212.7631
0
VERTEX
8
CUT
10
214.0838
20
211.2311
0
VERTEX
8
CUT
10
211.3894
20
210.0680
0
VERTEX
8
CUT
10
208.4131
20
209.3835
0
VERTEX
8
CUT
10
206.8978
20
209.4047
0
VERTEX
8
CUT
10
206.6735
20
209.6958
0
VERTEX
8
CUT
10
206.7750
20
209.9991
0
VERTEX
8
CUT
10
208.9947
20
213.5138
0
VERTEX
8
CUT
10
210.4127
20
216.2931
0
VERTEX
8
CUT
10
211.1816
20
218.2185
0
VERTEX
8
CUT
10
211.9760
20
221.0549
0
VERTEX
8
CUT
10
212.1483
20
223.2084
0
VERTEX
8
CUT
10
212.1402
20
223.8948
0
VERTEX
8
CUT
10
212.2359
20
224.6721
0
VERTEX
8
CUT
10
212.1791
20
226.9687
0
VERTEX
8
CUT
10
212.0990
20
227.3741
0
VERTEX
8
CUT
10
212.0871
20
228.3797
0
VERTEX
8
CUT
10
211.7652
20
230.3317
0
VERTEX
8
CUT
10
210.7104
20
233.4359
0
VERTEX
8
CUT
10
209.0739
20
236.5585
0
VERTEX
8
CUT
10
206.7161
20
239.4718
0
VERTEX
8
CUT
10
203.1757
20
242.7462
0
VERTEX
8
CUT
10
195.5956
20
249.1334
0
VERTEX
8
CUT
10
192.7586
20
251.8813
0
VERTEX
8
CUT
10
190.6457
20
254.2304
0
VERTEX
8
CUT
10
190.5657
20
254.3329
0
VERTEX
8
CUT
10
188.3911
20
257.6528
0
VERTEX
8
CUT
10
187.3060
20
260.0271
0
VERTEX
8
CUT
10
186.5442
20
262.3681
0
VERTEX
8
CUT
10
186.1856
20
264.6036
0
VERTEX
8
CUT
10
186.1520
20
266.8115
0
VERTEX
8
CUT
10
186.5161
20
268.8749
0
VERTEX
8
CUT
10
187.2452
20
270.8184
0
VERTEX
8
CUT
10
188.3826
20
272.6278
0
VERTEX
8
CUT
10
189.7206
20
274.0549
0
VERTEX
8
CUT
10
191.4188
20
275.2433
0
VERTEX
8
CUT
10
193.4840
20
276.1891
0
VERTEX
8
CUT
10
196.0937
20
276.9564
0
VERTEX
8
CUT
10
196.3035
20
277.1676
0
VERTEX
8
CUT
10
196.2864
20
277.4998
0
VERTEX
8
CUT
10
195.7042
20
277.8629
0
VERTEX
8
CUT
10
191.3041
20
279.3985
0
VERTEX
8
CUT
10
186.8128
20
280.7967
0
VERTEX
8
CUT
10
177.9981
20
283.1493
0
VERTEX
8
CUT
10
173.8634
20
284.0710
0
VERTEX
8
CUT
10
166.6371
20
285.1966
0
VERTEX
8
CUT
10
164.7635
20
285.2964
0
VERTEX
8
CUT
10
163.7372
20
285.4334
0
VERTEX
8
CUT
10
163.2210
20
285.3786
0
VERTEX
8
CUT
10
162.3152
20
285.4269
0
VERTEX
8
CUT
10
161.9655
20
285.2206
0
VERTEX
8
CUT
10
161.9494
20
285.0002
0
VERTEX
8
CUT
10
161.9096
20
284.9497
0
VERTEX
8
CUT
10
161.8607
20
284.4138
0
VERTEX
8
CUT
10
161.8958
20
284.2680
0
VERTEX
8
CUT
10
161.8846
20
284.1140
0
VERTEX
8
CUT
10
162.4153
20
281.5828
0
VERTEX
8
CUT
10
164.0556
20
277.5401
0
VERTEX
8
CUT
10
164.9670
20
275.9731
0
VERTEX
8
CUT
10
165.0386
20
275.7583
0
VERTEX
8
CUT
10
165.5248
20
275.0936
0
VERTEX
8
CUT
10
166.5868
20
273.5487
0
VERTEX
8
CUT
10
167.0036
20
273.0719
0
VERTEX
8
CUT
10
167.3912
20
272.5422
0
VERTEX
8
CUT
10
168.5824
20
271.2435
0
VERTEX
8
CUT
10
168.7173
20
271.0653
0
VERTEX
8
CUT
10
169.0380
20
270.7448
0
VERTEX
8
CUT
10
170.0641
20
269.5709
0
VERTEX
8
CUT
10
170.3774
20
269.2867
0
VERTEX
8
CUT
10
171.0242
20
268.5815
0
VERTEX
8
CUT
10
174.8658
20
265.0973
0
VERTEX
8
CUT
10
175.0056
20
265.0873
0
VERTEX
8
CUT
10
178.4119
20
261.9967
0
VERTEX
8
CUT
10
181.6065
20
258.7119
0
VERTEX
8
CUT
10
184.1084
20
255.7335
0
VERTEX
8
CUT
10
186.4382
20
252.0333
0
VERTEX
8
CUT
10
188.3828
20
249.4584
0
VERTEX
8
CUT
10
190.2588
20
246.5402
0
VERTEX
8
CUT
10
191.8862
20
243.1971
0
VERTEX
8
CUT
10
193.2271
20
239.6814
0
VERTEX
8
CUT
10
193.9542
20
237.0714
0
VERTEX
8
CUT
10
194.3428
20
234.1596
0
VERTEX
8
CUT
10
194.3423
20
229.1695
0
VERTEX
8
CUT
10
193.8476
20
224.8643
0
VERTEX
8
CUT
10
193.6820
20
224.2120
0
VERTEX
8
CUT
10
193.3081
20
222.9970
0
VERTEX
8
CUT
10
193.0301
20
222.2207
0
VERTEX
8
CUT
10
192.9452
20
221.9838
0
VERTEX
8
CUT
10
192.8552
20
221.7324
0
VERTEX
8
CUT
10
192.8272
20
221.6541
0
VERTEX
8
CUT
10
190.8113
20
217.5005
0
VERTEX
8
CUT
10
190.4737
20
216.8726
0
VERTEX
8
CUT
10
189.0503
20
214.7816
0
VERTEX
8
CUT
10
185.6340
20
211.0797
0
VERTEX
8
CUT
10
185.6685
20
210.5798
0
VERTEX
8
CUT
10
186.0985
20
210.4907
0
VERTEX
8
CUT
10
186.4557
20
210.6718
0
VERTEX
8
CUT
10
186.4794
20
210.6599
0
VERTEX
8
CUT
10
187.5600
20
211.1967
0
VERTEX
8
CUT
10
187.7957
20
211.3511
0
VERTEX
8
CUT
10
189.0301
20
211.9769
0
VERTEX
8
CUT
10
190.8394
20
213.1054
0
VERTEX
8
CUT
10
192.4732
20
214.4152
0
VERTEX
8
CUT
10
192.6420
20
214.5258
0
VERTEX
8
CUT
10
192.7810
20
214.6620
0
VERTEX
8
CUT
10
194.0940
20
215.7146
0
VERTEX
8
CUT
10
196.7214
20
218.6914
0
VERTEX
8
CUT
10
197.5618
20
220.0892
0
VERTEX
8
CUT
10
198.4527
20
221.4669
0
VERTEX
8
CUT
10
198.5762
20
221.7765
0
VERTEX
8
CUT
10
198.7579
20
222.0787
0
VERTEX
8
CUT
10
199.4098
20
223.8663
0
VERTEX
8
CUT
10
199.8028
20
224.8514
0
VERTEX
8
CUT
10
199.8477
20
225.0668
0
VERTEX
8
CUT
10
200.1581
20
225.9179
0
VERTEX
8
CUT
10
200.7418
20
229.4844
0
VERTEX
8
CUT
10
200.7437
20
233.4770
0
VERTEX
8
CUT
10
200.2366
20
237.2346
0
VERTEX
8
CUT
10
200.4466
20
238.0809
0
VERTEX
8
CUT
10
200.9319
20
238.0934
0
VERTEX
8
CUT
10
202.0138
20
237.2032
0
VERTEX
8
CUT
10
204.0689
20
234.5499
0
VERTEX
8
CUT
10
205.7846
20
231.3342
0
VERTEX
8
CUT
10
206.5668
20
229.2327
0
VERTEX
8
CUT
10
206.9983
20
227.1763
0
VERTEX
8
CUT
10
207.2066
20
223.6834
0
VERTEX
8
CUT
10
207.0844
20
221.6672
0
VERTEX
8
CUT
10
206.3809
20
218.2573
0
VERTEX
8
CUT
10
206.2518
20
217.7887
0
VERTEX
8
CUT
10
204.6869
20
214.3845
0
VERTEX
8
CUT
10
203.5752
20
212.6683
0
VERTEX
8
CUT
10
200.6186
20
209.2262
0
VERTEX
8
CUT
10
197.5750
20
206.4811
0
VERTEX
8
CUT
10
195.2373
20
204.8018
0
VERTEX
8
CUT
10
186.9826
20
199.9138
0
VERTEX
8
CUT
10
183.4580
20
197.5456
0
VERTEX
8
CUT
10
178.9226
20
193.4559
0
VERTEX
8
CUT
10
176.3578
20
190.4154
0
VERTEX
8
CUT
10
175.8751
20
190.0893
0
VERTEX
8
CUT
10
175.3806
20
190.1436
0
VERTEX
8
CUT
10
175.1143
20
190.5223
0
VERTEX
8
CUT
10
174.9545
20
192.8633
0
VERTEX
8
CUT
10
175.2232
20
195.7961
0
VERTEX
8
CUT
10
175.8912
20
198.2819
0
VERTEX
8
CUT
10
175.6145
20
198.5331
0
VERTEX
8
CUT
10
174.7132
20
198.5315
0
VERTEX
8
CUT
10
173.4717
20
199.5159
0
VERTEX
8
CUT
10
172.2989
20
199.0308
0
VERTEX
8
CUT
10
170.7826
20
198.0363
0
VERTEX
8
CUT
10
169.0959
20
196.5822
0
VERTEX
8
CUT
10
166.9244
20
194.1401
0
VERTEX
8
CUT
10
165.7971
20
191.9000
0
VERTEX
8
CUT
10
165.3610
20
190.2606
0
VERTEX
8
CUT
10
165.1609
20
188.5732
0
VERTEX
8
CUT
10
165.1875
20
186.7300
0
VERTEX
8
CUT
10
165.1933
20
186.6914
0
VERTEX
8
CUT
10
165.1896
20
186.6348
0
VERTEX
8
CUT
10
165.2296
20
186.4480
0
VERTEX
8
CUT
10
165.4532
20
184.9503
0
VERTEX
8
CUT
10
165.6693
20
184.3948
0
VERTEX
8
CUT
10
165.6877
20
184.3091
0
VERTEX
8
CUT
10
166.0275
20
183.4747
0
VERTEX
8
CUT
10
166.7870
20
181.5231
0
VERTEX
8
CUT
10
168.9616
20
178.4795
0
VERTEX
8
CUT
10
170.3110
20
177.1555
0
VERTEX
8
CUT
10
171.8052
20
176.0093
0
VERTEX
8
CUT
10
173.4012
20
175.0892
0
VERTEX
8
CUT
10
175.5424
20
174.1771
0
VERTEX
8
CUT
10
176.0606
20
174.0495
0
VERTEX
8
CUT
10
176.1204
20
174.0253
0
VERTEX
8
CUT
10
176.2478
20
174.0034
0
VERTEX
8
CUT
10
177.7173
20
173.6416
0
VERTEX
8
CUT
10
180.6865
20
173.4075
0
VERTEX
8
CUT
10
190.0703
20
173.1689
0
VERTEX
8
CUT
10
194.5529
20
172.6015
0
VERTEX
8
CUT
10
196.8295
20
171.7880
0
VERTEX
8
CUT
10
196.9117
20
171.7483
0
VERTEX
8
CUT
10
196.9698
20
171.7202
0
VERTEX
8
CUT
10
197.0855
20
171.6643
0
VERTEX
8
CUT
10
197.5758
20
171.4273
0
VERTEX
8
CUT
10
199.6373
20
170.3360
0
VERTEX
8
CUT
10
202.1263
20
168.4615
0
VERTEX
8
CUT
10
203.2633
20
167.3718
0
VERTEX
8
CUT
10
205.8258
20
163.9434
0
VERTEX
8
CUT
10
206.8414
20
162.0622
0
VERTEX
8
CUT
10
207.8202
20
158.9298
0
VERTEX
8
CUT
10
207.8987
20
158.6488
0
VERTEX
8
CUT
10
207.9640
20
158.4155
0
VERTEX
8
CUT
10
207.9759
20
158.3730
0
VERTEX
8
CUT
10
208.0432
20
158.1320
0
VERTEX
8
CUT
10
208.1680
20
156.7645
0
VERTEX
8
CUT
10
208.1682
20
156.7534
0
VERTEX
8
CUT
10
208.1708
20
156.5733
0
VERTEX
8
CUT
10
208.1735
20
156.3830
0
VERTEX
8
CUT
10
208.1779
20
156.0761
0
VERTEX
8
CUT
10
207.7142
20
154.5981
0
VERTEX
8
CUT
10
207.2205
20
153.7104
0
VERTEX
8
CUT
10
206.5365
20
152.9964
0
VERTEX
8
CUT
10
204.7596
20
152.0615
0
VERTEX
8
CUT
10
202.6248
20
151.9363
0
VERTEX
8
CUT
10
201.4637
20
152.1902
0
VERTEX
8
CUT
10
199.3906
20
153.1724
0
VERTEX
8
CUT
10
190.1507
20
160.6903
0
VERTEX
8
CUT
10
185.3855
20
163.6077
0
VERTEX
8
CUT
10
183.0222
20
164.6398
0
VERTEX
8
CUT
10
180.6001
20
165.4360
0
VERTEX
8
CUT
10
178.0540
20
166.0562
0
VERTEX
8
CUT
10
171.6257
20
166.9742
0
VERTEX
8
CUT
10
170.8763
20
167.2184
0
VERTEX
8
CUT
10
170.3811
20
167.8847
0
VERTEX
8
CUT
10
167.0446
20
170.1297
0
VERTEX
8
CUT
10
165.1803
20
171.6903
0
VERTEX
8
CUT
10
163.4094
20
173.5515
0
VERTEX
8
CUT
10
160.4124
20
177.7229
0
VERTEX
8
CUT
10
159.2300
20
179.9399
0
VERTEX
8
CUT
10
158.2972
20
182.2211
0
VERTEX
8
CUT
10
157.4438
20
185.7236
0
VERTEX
8
CUT
10
157.2949
20
188.3353
0
VERTEX
8
CUT
10
157.4438
20
190.9879
0
VERTEX
8
CUT
10
158.2532
20
194.6884
0
VERTEX
8
CUT
10
159.7264
20
197.9145
0
VERTEX
8
CUT
10
161.6401
20
200.5993
0
VERTEX
8
CUT
10
163.3949
20
202.4611
0
VERTEX
8
CUT
10
166.5433
20
205.0753
0
VERTEX
8
CUT
10
169.1783
20
206.9928
0
VERTEX
8
CUT
10
174.2514
20
210.6704
0
VERTEX
8
CUT
10
174.3883
20
210.7842
0
VERTEX
8
CUT
10
174.8596
20
211.1272
0
VERTEX
8
CUT
10
177.3846
20
213.2978
0
VERTEX
8
CUT
10
179.4925
20
215.4642
0
VERTEX
8
CUT
10
179.8873
20
215.9449
0
VERTEX
8
CUT
10
180.1419
20
216.2015
0
VERTEX
8
CUT
10
180.3749
20
216.5385
0
VERTEX
8
CUT
10
181.2893
20
217.6517
0
VERTEX
8
CUT
10
182.7430
20
219.8613
0
VERTEX
8
CUT
10
183.9266
20
222.1644
0
VERTEX
8
CUT
10
184.1335
20
222.7597
0
VERTEX
8
CUT
10
184.3258
20
223.1444
0
VERTEX
8
CUT
10
185.1217
20
225.3888
0
VERTEX
8
CUT
10
185.2800
20
226.0592
0
VERTEX
8
CUT
10
185.4687
20
226.6021
0
VERTEX
8
CUT
10
185.6229
20
227.5111
0
VERTEX
8
CUT
10
185.6496
20
227.6241
0
VERTEX
8
CUT
10
185.6556
20
227.7039
0
VERTEX
8
CUT
10
186.1503
20
230.6199
0
VERTEX
8
CUT
10
186.2113
20
234.6611
0
VERTEX
8
CUT
10
185.9721
20
236.7590
0
VERTEX
8
CUT
10
185.0520
20
241.0822
0
VERTEX
8
CUT
10
183.5792
20
244.9979
0
VERTEX
8
CUT
10
181.8717
20
248.5579
0
VERTEX
8
CUT
10
181.4923
20
248.6898
0
VERTEX
8
CUT
10
181.1981
20
248.4163
0
VERTEX
8
CUT
10
180.8809
20
244.8503
0
VERTEX
8
CUT
10
179.9156
20
241.8835
0
VERTEX
8
CUT
10
179.3086
20
240.6565
0
VERTEX
8
CUT
10
178.9864
20
240.3919
0
VERTEX
8
CUT
10
178.5940
20
240.4268
0
VERTEX
8
CUT
10
177.9787
20
241.5482
0
VERTEX
8
CUT
10
175.8454
20
247.3300
0
VERTEX
8
CUT
10
173.7924
20
250.7833
0
VERTEX
8
CUT
10
170.8579
20
254.5758
0
VERTEX
8
CUT
10
162.2594
20
264.0965
0
VERTEX
8
CUT
10
159.1489
20
268.3424
0
VERTEX
8
CUT
10
156.8722
20
272.4442
0
VERTEX
8
CUT
10
155.1359
20
276.5734
0
VERTEX
8
CUT
10
153.9960
20
280.6486
0
VERTEX
8
CUT
10
153.4198
20
283.6930
0
VERTEX
8
CUT
10
153.2757
20
284.9304
0
VERTEX
8
CUT
10
153.0879
20
285.4470
0
VERTEX
8
CUT
10
153.0564
20
285.6134
0
VERTEX
8
CUT
10
152.9278
20
285.6623
0
VERTEX
8
CUT
10
152.7639
20
285.7770
0
VERTEX
8
CUT
10
152.7403
20
285.8772
0
VERTEX
8
CUT
10
151.7382
20
286.1471
0
VERTEX
8
CUT
10
149.2001
20
286.1203
0
VERTEX
8
CUT
10
146.6880
20
286.0010
0
VERTEX
8
CUT
10
145.2468
20
286.0013
0
VERTEX
8
CUT
10
139.9386
20
285.7053
0
VERTEX
8
CUT
10
139.2914
20
285.5787
0
VERTEX
8
CUT
10
138.6659
20
285.5236
0
VERTEX
8
CUT
10
138.2805
20
285.3810
0
VERTEX
8
CUT
10
138.0577
20
285.3374
0
VERTEX
8
CUT
10
138.0473
20
284.8764
0
VERTEX
8
CUT
10
140.6670
20
281.9309
0
VERTEX
8
CUT
10
142.9180
20
278.6282
0
VERTEX
8
CUT
10
143.8223
20
276.6394
0
VERTEX
8
CUT
10
144.7281
20
273.6750
0
VERTEX
8
CUT
10
145.2905
20
270.5671
0
VERTEX
8
CUT
10
145.4441
20
267.4432
0
VERTEX
8
CUT
10
145.2058
20
264.6514
0
VERTEX
8
CUT
10
145.1427
20
264.1726
0
VERTEX
8
CUT
10
144.4454
20
261.2322
0
VERTEX
8
CUT
10
143.3588
20
258.2857
0
VERTEX
8
CUT
10
141.8270
20
255.4382
0
VERTEX
8
CUT
10
139.9343
20
252.7394
0
VERTEX
8
CUT
10
137.6594
20
250.1975
0
VERTEX
8
CUT
10
134.8144
20
247.6837
0
VERTEX
8
CUT
10
133.3332
20
246.5812
0
VERTEX
8
CUT
10
133.0413
20
246.3984
0
VERTEX
8
CUT
10
129.7485
20
244.4186
0
VERTEX
8
CUT
10
118.0531
20
238.9427
0
VERTEX
8
CUT
10
115.7519
20
237.4663
0
VERTEX
8
CUT
10
115.0530
20
236.8647
0
VERTEX
8
CUT
10
114.5882
20
236.5341
0
VERTEX
8
CUT
10
113.1447
20
235.2221
0
VERTEX
8
CUT
10
112.5878
20
234.7427
0
VERTEX
8
CUT
10
110.0781
20
231.7562
0
VERTEX
8
CUT
10
108.2256
20
228.5151
0
VERTEX
8
CUT
10
106.9684
20
224.9480
0
VERTEX
8
CUT
10
106.1057
20
219.6628
0
VERTEX
8
CUT
10
105.8853
20
218.7497
0
VERTEX
8
CUT
10
105.5946
20
218.3801
0
VERTEX
8
CUT
10
105.0316
20
218.4531
0
VERTEX
8
CUT
10
104.4171
20
219.0238
0
VERTEX
8
CUT
10
102.3088
20
222.3712
0
VERTEX
8
CUT
10
101.0775
20
225.2603
0
VERTEX
8
CUT
10
100.2221
20
229.1653
0
VERTEX
8
CUT
10
100.1715
20
229.8435
0
VERTEX
8
CUT
10
100.1588
20
230.0140
0
VERTEX
8
CUT
10
100.1564
20
230.0466
0
VERTEX
8
CUT
10
100.1547
20
230.0692
0
VERTEX
8
CUT
10
100.0997
20
231.7587
0
VERTEX
8
CUT
10
100.2251
20
233.0396
0
VERTEX
8
CUT
10
100.4160
20
234.4972
0
VERTEX
8
CUT
10
101.1069
20
236.9460
0
VERTEX
8
CUT
10
102.1710
20
239.2332
0
VERTEX
8
CUT
10
103.5749
20
241.2960
0
VERTEX
8
CUT
10
105.3600
20
243.1733
0
VERTEX
8
CUT
10
106.7694
20
244.2331
0
VERTEX
8
CUT
10
107.9126
20
245.0043
0
VERTEX
8
CUT
10
109.0049
20
245.6219
0
VERTEX
8
CUT
10
112.6716
20
247.0556
0
VERTEX
8
CUT
10
120.8688
20
249.2455
0
VERTEX
8
CUT
10
125.0430
20
250.6357
0
VERTEX
8
CUT
10
128.1062
20
252.1528
0
VERTEX
8
CUT
10
129.6068
20
253.1546
0
VERTEX
8
CUT
10
130.3368
20
253.8685
0
VERTEX
8
CUT
10
130.2361
20
254.1831
0
VERTEX
8
CUT
10
129.8922
20
254.3033
0
VERTEX
8
CUT
10
127.7547
20
253.5458
0
VERTEX
8
CUT
10
127.3399
20
253.4322
0
VERTEX
8
CUT
10
127.2903
20
253.4186
0
VERTEX
8
CUT
10
127.1459
20
253.3790
0
VERTEX
8
CUT
10
126.8943
20
253.3101
0
VERTEX
8
CUT
10
124.7032
20
252.9702
0
VERTEX
8
CUT
10
124.3288
20
252.9495
0
VERTEX
8
CUT
10
121.9267
20
252.9773
0
VERTEX
8
CUT
10
119.3948
20
253.4709
0
VERTEX
8
CUT
10
119.3806
20
253.4747
0
VERTEX
8
CUT
10
117.1141
20
254.4305
0
VERTEX
8
CUT
10
115.0549
20
255.7936
0
VERTEX
8
CUT
10
113.2785
20
257.6077
0
VERTEX
8
CUT
10
111.9218
20
259.7313
0
VERTEX
8
CUT
10
111.4090
20
260.9125
0
VERTEX
8
CUT
10
111.3448
20
261.0947
0
VERTEX
8
CUT
10
111.3094
20
261.1955
0
VERTEX
8
CUT
10
111.2862
20
261.2613
0
VERTEX
8
CUT
10
111.1673
20
261.5991
0
VERTEX
8
CUT
10
110.9579
20
262.9202
0
VERTEX
8
CUT
10
110.9579
20
265.6670
0
VERTEX
8
CUT
10
111.1389
20
266.9439
0
VERTEX
8
CUT
10
111.1618
20
267.0182
0
VERTEX
8
CUT
10
111.2007
20
267.1449
0
VERTEX
8
CUT
10
111.2893
20
267.4330
0
VERTEX
8
CUT
10
111.4337
20
267.9028
0
VERTEX
8
CUT
10
111.6272
20
268.4489
0
VERTEX
8
CUT
10
112.9588
20
270.5447
0
VERTEX
8
CUT
10
114.1707
20
271.8216
0
VERTEX
8
CUT
10
115.0751
20
272.5511
0
VERTEX
8
CUT
10
116.1068
20
273.1889
0
VERTEX
8
CUT
10
117.4730
20
273.6944
0
VERTEX
8
CUT
10
118.5105
20
273.9388
0
VERTEX
8
CUT
10
120.3634
20
274.0610
0
VERTEX
8
CUT
10
122.0831
20
273.8781
0
VERTEX
8
CUT
10
123.4292
20
273.3609
0
VERTEX
8
CUT
10
124.6630
20
272.4761
0
VERTEX
8
CUT
10
126.0435
20
270.8047
0
VERTEX
8
CUT
10
126.5645
20
269.0935
0
VERTEX
8
CUT
10
126.2510
20
267.4303
0
VERTEX
8
CUT
10
125.4624
20
266.3063
0
VERTEX
8
CUT
10
125.4021
20
266.2297
0
VERTEX
8
CUT
10
124.6432
20
265.8530
0
VERTEX
8
CUT
10
124.3454
20
265.7260
0
VERTEX
8
CUT
10
122.0938
20
266.6615
0
VERTEX
8
CUT
10
121.9060
20
266.7695
0
VERTEX
8
CUT
10
121.7928
20
266.7611
0
VERTEX
8
CUT
10
120.9967
20
266.7654
0
VERTEX
8
CUT
10
120.8196
20
266.6888
0
VERTEX
8
CUT
10
120.6007
20
266.6726
0
VERTEX
8
CUT
10
120.4712
20
266.5380
0
VERTEX
8
CUT
10
120.2688
20
266.4504
0
VERTEX
8
CUT
10
119.8863
20
265.9305
0
VERTEX
8
CUT
10
119.6508
20
265.6860
0
VERTEX
8
CUT
10
119.5847
20
265.5207
0
VERTEX
8
CUT
10
119.3385
20
265.1860
0
VERTEX
8
CUT
10
119.1822
20
264.0844
0
VERTEX
8
CUT
10
119.3981
20
262.8751
0
VERTEX
8
CUT
10
119.9713
20
261.8142
0
VERTEX
8
CUT
10
120.6253
20
261.1757
0
VERTEX
8
CUT
10
121.1043
20
260.8997
0
VERTEX
8
CUT
10
121.6772
20
260.4523
0
VERTEX
8
CUT
10
122.0264
20
260.3684
0
VERTEX
8
CUT
10
122.2604
20
260.2336
0
VERTEX
8
CUT
10
124.1986
20
259.8315
0
VERTEX
8
CUT
10
125.2428
20
259.8276
0
VERTEX
8
CUT
10
127.4148
20
260.2638
0
VERTEX
8
CUT
10
128.7598
20
261.0479
0
VERTEX
8
CUT
10
128.8718
20
261.0958
0
VERTEX
8
CUT
10
129.0221
20
261.2009
0
VERTEX
8
CUT
10
129.6271
20
261.5536
0
VERTEX
8
CUT
10
129.9205
20
261.8291
0
VERTEX
8
CUT
10
129.9725
20
261.8655
0
VERTEX
8
CUT
10
130.3361
20
262.2193
0
VERTEX
8
CUT
10
131.1287
20
262.9635
0
VERTEX
8
CUT
10
132.3219
20
264.5123
0
VERTEX
8
CUT
10
133.3213
20
266.6470
0
VERTEX
8
CUT
10
133.5605
20
268.8625
0
VERTEX
8
CUT
10
133.5321
20
269.5561
0
VERTEX
8
CUT
10
133.5866
20
270.3687
0
VERTEX
8
CUT
10
133.4744
20
270.9658
0
VERTEX
8
CUT
10
133.4174
20
272.3598
0
VERTEX
8
CUT
10
132.9163
20
273.8417
0
VERTEX
8
CUT
10
131.7040
20
276.0629
0
VERTEX
8
CUT
10
130.7209
20
277.1717
0
VERTEX
8
CUT
10
130.2792
20
277.7570
0
VERTEX
8
CUT
10
129.9430
20
278.0489
0
VERTEX
8
CUT
10
129.1425
20
278.9516
0
VERTEX
8
CUT
10
128.1831
20
279.5764
0
VERTEX
8
CUT
10
128.1122
20
279.6379
0
VERTEX
8
CUT
10
127.9557
20
279.7246
0
VERTEX
8
CUT
10
125.9879
20
281.0061
0
VERTEX
8
CUT
10
124.2617
20
281.7120
0
VERTEX
8
CUT
10
122.4498
20
282.1605
0
VERTEX
8
CUT
10
120.6671
20
282.3066
0
VERTEX
8
CUT
10
119.0666
20
282.0263
0
VERTEX
8
CUT
10
118.9010
20
282.0158
0
VERTEX
8
CUT
10
118.6855
20
281.9596
0
VERTEX
8
CUT
10
117.6461
20
281.7776
0
VERTEX
8
CUT
10
115.2508
20
281.0636
0
VERTEX
8
CUT
10
114.2399
20
280.7998
0
VERTEX
8
CUT
10
112.5367
20
280.2545
0
VERTEX
8
CUT
10
108.6690
20
279.1016
0
VERTEX
8
CUT
10
101.4894
20
276.3424
0
VERTEX
8
CUT
10
97.7615
20
274.6726
0
VERTEX
8
CUT
10
94.0131
20
272.8874
0
VERTEX
8
CUT
10
92.8498
20
272.2657
0
VERTEX
8
CUT
10
92.3278
20
272.0299
0
VERTEX
8
CUT
10
91.1072
20
271.3343
0
VERTEX
8
CUT
10
86.6692
20
268.9624
0
VERTEX
8
CUT
10
79.6881
20
264.6846
0
VERTEX
8
CUT
10
76.5611
20
262.4742
0
VERTEX
8
CUT
10
75.7983
20
261.5602
0
VERTEX
8
CUT
10
75.9397
20
260.7274
0
VERTEX
8
CUT
10
77.1782
20
257.4269
0
VERTEX
8
CUT
10
81.6988
20
247.2859
0
VERTEX
8
CUT
10
82.6937
20
245.3335
0
VERTEX
8
CUT
10
82.7335
20
245.2470
0
VERTEX
8
CUT
10
82.8425
20
245.0415
0
VERTEX
8
CUT
10
85.6503
20
239.5316
0
VERTEX
8
CUT
10
88.4760
20
234.4451
0
VERTEX
8
CUT
10
94.5497
20
224.6795
0
VERTEX
8
CUT
10
99.0447
20
218.4102
0
VERTEX
8
CUT
10
99.1341
20
218.2802
0
VERTEX
8
CUT
10
99.1869
20
218.2119
0
VERTEX
8
CUT
10
101.3252
20
215.2294
0
VERTEX
8
CUT
10
101.7658
20
214.6855
0
VERTEX
8
CUT
10
102.3530
20
213.7874
0
VERTEX
8
CUT
10
106.7306
20
208.3974
0
VERTEX
8
CUT
10
107.0099
20
208.2111
0
VERTEX
8
CUT
10
109.0677
20
205.6706
0
VERTEX
8
CUT
10
115.0789
20
198.9457
0
VERTEX
8
CUT
10
121.5536
20
192.2631
0
VERTEX
8
CUT
10
128.4573
20
185.7160
0
VERTEX
8
CUT
10
135.6284
20
179.3777
0
VERTEX
8
CUT
10
137.8104
20
177.5827
0
VERTEX
8
CUT
10
138.5268
20
176.9573
0
VERTEX
8
CUT
10
139.4164
20
176.2616
0
VERTEX
8
CUT
10
143.0073
20
173.3076
0
VERTEX
8
CUT
10
150.5173
20
167.5858
0
VERTEX
8
CUT
10
154.4179
20
164.8523
0
VERTEX
8
CUT
10
156.1378
20
163.6008
0
VERTEX
8
CUT
10
156.8763
20
163.1295
0
VERTEX
8
CUT
10
157.7070
20
162.5473
0
VERTEX
8
CUT
10
157.7129
20
162.5371
0
VERTEX
8
CUT
10
159.1125
20
161.4353
0
VERTEX
8
CUT
10
164.8897
20
157.8320
0
VERTEX
8
CUT
10
165.6479
20
157.4694
0
VERTEX
8
CUT
10
169.6691
20
155.1562
0
VERTEX
8
CUT
10
170.0706
20
155.0245
0
VERTEX
8
CUT
10
170.3622
20
155.1871
0
VERTEX
8
CUT
10
170.3615
20
155.6510
0
VERTEX
8
CUT
10
169.6814
20
156.4066
0
VERTEX
8
CUT
10
165.1449
20
159.9620
0
VERTEX
8
CUT
10
160.1660
20
164.3145
0
VERTEX
8
CUT
10
157.0229
20
167.2784
0
VERTEX
8
CUT
10
150.8365
20
173.6730
0
VERTEX
8
CUT
10
145.2581
20
180.2643
0
VERTEX
8
CUT
10
140.3191
20
186.9696
0
VERTEX
8
CUT
10
136.1281
20
193.6277
0
VERTEX
8
CUT
10
132.6656
20
200.2217
0
VERTEX
8
CUT
10
130.0069
20
206.6696
0
VERTEX
8
CUT
10
128.2117
20
212.9140
0
VERTEX
8
CUT
10
127.2808
20
218.8100
0
VERTEX
8
CUT
10
127.1900
20
221.0196
0
VERTEX
8
CUT
10
127.3541
20
221.5130
0
VERTEX
8
CUT
10
127.7148
20
221.6795
0
VERTEX
8
CUT
10
128.1047
20
221.4767
0
VERTEX
8
CUT
10
128.4228
20
220.9592
0
VERTEX
8
CUT
10
130.3890
20
214.8277
0
VERTEX
8
CUT
10
132.2995
20
210.1994
0
VERTEX
8
CUT
10
134.7051
20
205.3299
0
VERTEX
8
CUT
10
135.6226
20
203.6784
0
VERTEX
8
CUT
10
135.6873
20
203.5448
0
VERTEX
8
CUT
10
135.8677
20
203.2372
0
VERTEX
8
CUT
10
137.5192
20
200.2645
0
VERTEX
8
CUT
10
140.7993
20
195.0457
0
VERTEX
8
CUT
10
144.3980
20
189.8119
0
VERTEX
8
CUT
10
148.3137
20
184.5909
0
VERTEX
8
CUT
10
152.5083
20
179.4735
0
VERTEX
8
CUT
10
157.4174
20
173.9986
0
VERTEX
8
CUT
10
162.7488
20
168.4290
0
VERTEX
8
CUT
10
167.8360
20
163.4610
0
VERTEX
8
CUT
10
169.8670
20
161.6446
0
VERTEX
8
CUT
10
169.9820
20
161.4948
0
VERTEX
8
CUT
10
170.5071
20
161.0721
0
VERTEX
8
CUT
10
171.6285
20
160.0693
0
VERTEX
8
CUT
10
171.7260
20
160.0911
0
VERTEX
8
CUT
10
172.4239
20
159.5294
0
VERTEX
8
CUT
10
172.4834
20
159.7676
0
VERTEX
8
CUT
10
172.1474
20
160.2650
0
VERTEX
8
CUT
10
172.2352
20
161.0489
0
VERTEX
8
CUT
10
172.7190
20
161.5935
0
VERTEX
8
CUT
10
173.6682
20
161.8836
0
VERTEX
8
CUT
10
175.6582
20
162.0802
0
VERTEX
8
CUT
10
175.7280
20
162.0825
0
VERTEX
8
CUT
10
176.0207
20
162.0921
0
VERTEX
8
CUT
10
176.2539
20
162.0998
0
VERTEX
8
CUT
10
176.3801
20
162.1040
0
VERTEX
8
CUT
10
177.9411
20
162.0323
0
VERTEX
8
CUT
10
178.2742
20
162.0045
0
VERTEX
8
CUT
10
178.4709
20
161.9881
0
VERTEX
8
CUT
10
178.6175
20
161.9759
0
VERTEX
8
CUT
10
178.8546
20
161.9562
0
VERTEX
8
CUT
10
180.7016
20
161.6363
0
VERTEX
8
CUT
10
181.9695
20
161.3132
0
VERTEX
8
CUT
10
183.8943
20
160.7293
0
VERTEX
8
CUT
10
186.5586
20
159.5601
0
VERTEX
8
CUT
10
189.2538
20
158.0792
0
VERTEX
8
CUT
10
192.0336
20
156.2364
0
VERTEX
8
CUT
10
196.6187
20
152.5147
0
VERTEX
8
CUT
10
199.2479
20
149.7802
0
VERTEX
8
CUT
10
199.7281
20
149.2360
0
VERTEX
8
CUT
10
200.6881
20
147.9897
0
VERTEX
8
CUT
10
202.2192
20
145.2531
0
VERTEX
8
CUT
10
202.8553
20
142.5986
0
VERTEX
8
CUT
10
202.8884
20
141.9747
0
VERTEX
8
CUT
10
202.8894
20
141.1765
0
VERTEX
8
CUT
10
202.6872
20
140.4718
0
VERTEX
8
CUT
10
202.5916
20
140.2923
0
VERTEX
8
CUT
10
201.4516
20
138.8046
0
VERTEX
8
CUT
10
199.1881
20
136.2843
0
VERTEX
8
CUT
10
198.8413
20
135.9509
0
VERTEX
8
CUT
10
197.6606
20
134.9773
0
VERTEX
8
CUT
10
196.0056
20
134.1744
0
VERTEX
8
CUT
10
191.7389
20
132.6647
0
VERTEX
8
CUT
10
190.2251
20
131.8235
0
VERTEX
8
CUT
10
189.2644
20
130.9873
0
VERTEX
8
CUT
10
188.9300
20
130.2245
0
VERTEX
8
CUT
10
189.0220
20
130.0214
0
VERTEX
8
CUT
10
189.1850
20
129.6360
0
VERTEX
8
CUT
10
189.2019
20
129.6243
0
VERTEX
8
CUT
10
189.2075
20
129.6118
0
VERTEX
8
CUT
10
189.8384
20
129.1722
0
VERTEX
8
CUT
10
191.0166
20
128.8918
0
VERTEX
8
CUT
10
191.7465
20
128.3052
0
VERTEX
8
CUT
10
192.0460
20
128.3080
0
VERTEX
8
CUT
10
192.2674
20
128.5590
0
VERTEX
8
CUT
10
192.1915
20
128.9469
0
VERTEX
8
CUT
10
192.1719
20
129.8104
0
VERTEX
8
CUT
10
192.2845
20
130.1518
0
VERTEX
8
CUT
10
192.4430
20
130.4140
0
VERTEX
8
CUT
10
192.9655
20
130.9535
0
VERTEX
8
CUT
10
193.7133
20
131.4874
0
VERTEX
8
CUT
10
193.7527
20
131.5066
0
VERTEX
8
CUT
10
193.8862
20
131.5203
0
VERTEX
8
CUT
10
194.0859
20
131.5409
0
VERTEX
8
CUT
10
194.6335
20
131.5974
0
VERTEX
8
CUT
10
194.8548
20
131.6203
0
VERTEX
8
CUT
10
195.3731
20
131.5843
0
VERTEX
8
CUT
10
197.5860
20
130.7639
0
VERTEX
8
CUT
10
197.9524
20
130.5988
0
VERTEX
8
CUT
10
198.0060
20
130.6082
0
VERTEX
8
CUT
10
198.0603
20
130.5880
0
VERTEX
8
CUT
10
199.0737
20
130.7911
0
VERTEX
8
CUT
10
199.7272
20
131.7189
0
VERTEX
8
CUT
10
199.7947
20
132.0251
0
VERTEX
8
CUT
10
199.8689
20
132.1486
0
VERTEX
8
CUT
10
199.9862
20
132.8931
0
VERTEX
8
CUT
10
200.5642
20
135.5134
0
VERTEX
8
CUT
10
200.6232
20
135.5790
0
VERTEX
8
CUT
10
200.6606
20
135.6205
0
VERTEX
8
CUT
10
200.9940
20
135.9910
0
SEQEND
0
POLYLINE
8
CUT
66
1
70
1
10
0.0
20
0.0
30
0.0
0
VERTEX
8
CUT
10
253.3378
20
264.0932
0
VERTEX
8
CUT
10
252.4166
20
263.8925
0
VERTEX
8
CUT
10
251.2044
20
263.8147
0
VERTEX
8
CUT
10
251.0747
20
263.8064
0
VERTEX
8
CUT
10
250.9573
20
263.7989
0
VERTEX
8
CUT
10
250.3631
20
263.7608
0
VERTEX
8
CUT
10
247.3785
20
263.7708
0
VERTEX
8
CUT
10
247.0242
20
263.3799
0
VERTEX
8
CUT
10
249.1373
20
261.2610
0
VERTEX
8
CUT
10
257.8140
20
252.1448
0
VERTEX
8
CUT
10
257.8995
20
252.1222
0
VERTEX
8
CUT
10
258.4882
20
251.4951
0
VERTEX
8
CUT
10
258.8087
20
251.5878
0
VERTEX
8
CUT
10
258.9394
20
251.8563
0
VERTEX
8
CUT
10
258.6048
20
252.7197
0
VERTEX
8
CUT
10
258.5512
20
254.5167
0
VERTEX
8
CUT
10
258.8822
20
255.4529
0
VERTEX
8
CUT
10
259.9739
20
256.7865
0
VERTEX
8
CUT
10
262.0205
20
257.9483
0
VERTEX
8
CUT
10
263.7162
20
258.3087
0
VERTEX
8
CUT
10
266.3963
20
258.4354
0
VERTEX
8
CUT
10
266.7079
20
258.7784
0
VERTEX
8
CUT
10
266.5055
20
259.1601
0
VERTEX
8
CUT
10
263.0397
20
260.6381
0
VERTEX
8
CUT
10
261.1623
20
261.9495
0
VERTEX
8
CUT
10
260.4914
20
262.6808
0
VERTEX
8
CUT
10
260.2900
20
263.0354
0
VERTEX
8
CUT
10
259.9493
20
263.8447
0
VERTEX
8
CUT
10
259.6871
20
265.2226
0
VERTEX
8
CUT
10
259.6829
20
265.2681
0
VERTEX
8
CUT
10
259.6805
20
265.2939
0
VERTEX
8
CUT
10
259.6799
20
265.3002
0
VERTEX
8
CUT
10
259.6798
20
265.3020
0
VERTEX
8
CUT
10
259.7444
20
265.8389
0
VERTEX
8
CUT
10
259.7890
20
266.1767
0
VERTEX
8
CUT
10
260.5212
20
267.6628
0
VERTEX
8
CUT
10
261.8544
20
268.8622
0
VERTEX
8
CUT
10
263.4382
20
269.5075
0
VERTEX
8
CUT
10
263.8842
20
269.5359
0
VERTEX
8
CUT
10
264.0387
20
269.5457
0
VERTEX
8
CUT
10
264.1711
20
269.5541
0
VERTEX
8
CUT
10
264.6926
20
269.5873
0
VERTEX
8
CUT
10
265.8563
20
269.4333
0
VERTEX
8
CUT
10
267.4286
20
268.8863
0
VERTEX
8
CUT
10
268.9497
20
268.1211
0
VERTEX
8
CUT
10
270.4287
20
267.0237
0
VERTEX
8
CUT
10
270.7640
20
267.0452
0
VERTEX
8
CUT
10
270.9578
20
267.3196
0
VERTEX
8
CUT
10
270.3033
20
268.6289
0
VERTEX
8
CUT
10
268.0180
20
271.9795
0
VERTEX
8
CUT
10
264.9603
20
275.4194
0
VERTEX
8
CUT
10
263.3280
20
276.9061
0
VERTEX
8
CUT
10
263.2174
20
277.0106
0
VERTEX
8
CUT
10
263.0900
20
277.0991
0
VERTEX
8
CUT
10
261.5945
20
278.2778
0
VERTEX
8
CUT
10
260.3284
20
279.0182
0
VERTEX
8
CUT
10
259.7695
20
279.4065
0
VERTEX
8
CUT
10
259.0475
20
279.7672
0
VERTEX
8
CUT
10
258.1466
20
280.2940
0
VERTEX
8
CUT
10
256.3722
20
281.0152
0
VERTEX
8
CUT
10
254.0533
20
281.5990
0
VERTEX
8
CUT
10
250.3794
20
281.8309
0
VERTEX
8
CUT
10
247.1804
20
281.3061
0
VERTEX
8
CUT
10
246.2464
20
280.7915
0
VERTEX
8
CUT
10
246.2433
20
280.7905
0
VERTEX
8
CUT
10
246.2070
20
280.7698
0
VERTEX
8
CUT
10
245.0446
20
280.1294
0
VERTEX
8
CUT
10
244.5515
20
279.6715
0
VERTEX
8
CUT
10
244.3148
20
279.4802
0
VERTEX
8
CUT
10
244.2589
20
279.3997
0
VERTEX
8
CUT
10
243.8733
20
279.0417
0
VERTEX
8
CUT
10
243.0810
20
277.8579
0
VERTEX
8
CUT
10
242.6510
20
276.1302
0
VERTEX
8
CUT
10
242.7844
20
274.9844
0
VERTEX
8
CUT
10
243.1938
20
273.7935
0
VERTEX
8
CUT
10
243.8279
20
272.7263
0
VERTEX
8
CUT
10
245.6250
20
271.0353
0
VERTEX
8
CUT
10
246.6538
20
270.5702
0
VERTEX
8
CUT
10
247.1280
20
270.5328
0
VERTEX
8
CUT
10
247.4640
20
270.3849
0
VERTEX
8
CUT
10
248.1541
20
270.3217
0
VERTEX
8
CUT
10
248.4444
20
270.4292
0
VERTEX
8
CUT
10
248.4472
20
270.4289
0
VERTEX
8
CUT
10
248.4483
20
270.4306
0
VERTEX
8
CUT
10
248.5851
20
270.4813
0
VERTEX
8
CUT
10
248.7455
20
270.8565
0
VERTEX
8
CUT
10
248.6352
20
271.2138
0
VERTEX
8
CUT
10
248.4497
20
272.7162
0
VERTEX
8
CUT
10
248.5576
20
274.4166
0
VERTEX
8
CUT
10
249.0999
20
275.7674
0
VERTEX
8
CUT
10
250.0129
20
276.8411
0
VERTEX
8
CUT
10
251.2863
20
277.5586
0
VERTEX
8
CUT
10
252.5260
20
277.8202
0
VERTEX
8
CUT
10
252.6926
20
277.8415
0
VERTEX
8
CUT
10
252.7940
20
277.8545
0
VERTEX
8
CUT
10
252.8038
20
277.8558
0
VERTEX
8
CUT
10
252.8578
20
277.8627
0
VERTEX
8
CUT
10
254.2551
20
277.7167
0
VERTEX
8
CUT
10
255.7523
20
277.1490
0
VERTEX
8
CUT
10
257.2292
20
276.0010
0
VERTEX
8
CUT
10
258.2844
20
274.6349
0
VERTEX
8
CUT
10
258.9088
20
273.1408
0
VERTEX
8
CUT
10
258.9198
20
273.0615
0
VERTEX
8
CUT
10
258.9545
20
272.8126
0
VERTEX
8
CUT
10
258.9833
20
272.6056
0
VERTEX
8
CUT
10
259.1101
20
271.4645
0
VERTEX
8
CUT
10
258.8976
20
269.8711
0
VERTEX
8
CUT
10
258.3294
20
268.3402
0
VERTEX
8
CUT
10
257.3129
20
266.8142
0
VERTEX
8
CUT
10
255.9990
20
265.5698
0
SEQEND
0
POLYLINE
8
CUT
66
1
70
1
10
0.0
20
0.0
30
0.0
0
VERTEX
8
CUT
10
242.7032
20
257.3547
0
VERTEX
8
CUT
10
247.8253
20
252.5602
0
VERTEX
8
CUT
10
242.7926
20
257.5631
0
VERTEX
8
CUT
10
237.9683
20
262.0300
0
VERTEX
8
CUT
10
234.2757
20
265.1271
0
VERTEX
8
CUT
10
227.5455
20
270.0407
0
VERTEX
8
CUT
10
220.1602
20
274.9245
0
VERTEX
8
CUT
10
214.2043
20
278.3491
0
VERTEX
8
CUT
10
210.1544
20
280.4337
0
VERTEX
8
CUT
10
200.1783
20
284.9304
0
VERTEX
8
CUT
10
189.9342
20
288.5932
0
VERTEX
8
CUT
10
179.5114
20
291.4223
0
VERTEX
8
CUT
10
168.9397
20
293.3579
0
VERTEX
8
CUT
10
158.2489
20
294.4002
0
VERTEX
8
CUT
10
147.4688
20
294.6087
0
VERTEX
8
CUT
10
136.6588
20
293.8940
0
VERTEX
8
CUT
10
125.8787
20
292.3157
0
VERTEX
8
CUT
10
119.0592
20
290.8863
0
VERTEX
8
CUT
10
112.4184
20
289.1293
0
VERTEX
8
CUT
10
105.9563
20
287.0447
0
VERTEX
8
CUT
10
99.6431
20
284.6326
0
VERTEX
8
CUT
10
93.3894
20
281.8631
0
VERTEX
8
CUT
10
87.2251
20
278.7660
0
VERTEX
8
CUT
10
81.0905
20
275.2819
0
VERTEX
8
CUT
10
73.0203
20
270.1002
0
VERTEX
8
CUT
10
65.1585
20
264.3826
0
VERTEX
8
CUT
10
62.1806
20
261.9705
0
VERTEX
8
CUT
10
57.8626
20
258.0396
0
VERTEX
8
CUT
10
50.9538
20
251.1606
0
VERTEX
8
CUT
10
47.3207
20
247.2595
0
VERTEX
8
CUT
10
57.8328
20
257.4142
0
VERTEX
8
CUT
10
63.7887
20
262.4469
0
VERTEX
8
CUT
10
70.6975
20
267.7179
0
VERTEX
8
CUT
10
74.2413
20
270.1300
0
VERTEX
8
CUT
10
81.5372
20
274.6863
0
VERTEX
8
CUT
10
85.3787
20
276.8602
0
VERTEX
8
CUT
10
89.3990
20
278.9447
0
VERTEX
8
CUT
10
98.5114
20
283.1734
0
VERTEX
8
CUT
10
107.8920
20
286.6874
0
VERTEX
8
CUT
10
117.4511
20
289.5164
0
VERTEX
8
CUT
10
127.1592
20
291.6010
0
VERTEX
8
CUT
10
136.9864
20
293.0006
0
VERTEX
8
CUT
10
146.8136
20
293.6855
0
VERTEX
8
CUT
10
156.6408
20
293.5962
0
VERTEX
8
CUT
10
166.4084
20
292.7921
0
VERTEX
8
CUT
10
173.9128
20
291.6307
0
VERTEX
8
CUT
10
181.3279
20
290.0822
0
VERTEX
8
CUT
10
188.6536
20
288.0870
0
VERTEX
8
CUT
10
195.8900
20
285.6749
0
VERTEX
8
CUT
10
203.0371
20
282.8160
0
VERTEX
8
CUT
10
210.1246
20
279.5403
0
VERTEX
8
CUT
10
217.1525
20
275.8179
0
VERTEX
8
CUT
10
225.6396
20
270.6661
0
VERTEX
8
CUT
10
231.6551
20
266.3778
0
VERTEX
8
CUT
10
237.4323
20
261.9407
0
SEQEND
0
POLYLINE
8
CUT
66
1
70
1
10
0.0
20
0.0
30
0.0
0
VERTEX
8
CUT
10
215.6040
20
139.1901
0
VERTEX
8
CUT
10
216.3485
20
139.0114
0
VERTEX
8
CUT
10
217.7183
20
139.5772
0
VERTEX
8
CUT
10
217.8672
20
139.8452
0
VERTEX
8
CUT
10
217.8374
20
140.1430
0
VERTEX
8
CUT
10
217.3610
20
140.5302
0
VERTEX
8
CUT
10
215.9316
20
140.4110
0
VERTEX
8
CUT
10
215.2466
20
139.7559
0
VERTEX
8
CUT
10
215.3657
20
139.3390
0
SEQEND
0
POLYLINE
8
CUT
66
1
70
1
10
0.0
20
0.0
30
0.0
0
VERTEX
8
CUT
10
201.0514
20
102.5415
0
VERTEX
8
CUT
10
201.5202
20
103.5890
0
VERTEX
8
CUT
10
201.7454
20
103.9670
0
VERTEX
8
CUT
10
202.0106
20
105.7618
0
VERTEX
8
CUT
10
202.1410
20
106.3655
0
VERTEX
8
CUT
10
202.1316
20
106.5800
0
VERTEX
8
CUT
10
202.2017
20
107.0544
0
VERTEX
8
CUT
10
202.1678
20
107.7600
0
VERTEX
8
CUT
10
201.9128
20
108.0212
0
VERTEX
8
CUT
10
201.4551
20
107.8418
0
VERTEX
8
CUT
10
201.3871
20
107.6944
0
VERTEX
8
CUT
10
201.3701
20
107.6880
0
VERTEX
8
CUT
10
201.1287
20
107.1338
0
VERTEX
8
CUT
10
200.3810
20
105.5120
0
VERTEX
8
CUT
10
200.1213
20
104.6024
0
VERTEX
8
CUT
10
199.9608
20
104.0940
0
VERTEX
8
CUT
10
199.9516
20
104.0082
0
VERTEX
8
CUT
10
199.8447
20
103.6338
0
VERTEX
8
CUT
10
199.6691
20
101.8478
0
VERTEX
8
CUT
10
200.0441
20
101.5802
0
VERTEX
8
CUT
10
200.1547
20
101.6495
0
VERTEX
8
CUT
10
200.3948
20
101.7171
0
SEQEND
0
POLYLINE
8
CUT
66
1
70
1
10
0.0
20
0.0
30
0.0
0
VERTEX
8
CUT
10
196.5577
20
108.8960
0
VERTEX
8
CUT
10
197.0992
20
108.9488
0
VERTEX
8
CUT
10
198.3617
20
111.0684
0
VERTEX
8
CUT
10
198.2273
20
111.4477
0
VERTEX
8
CUT
10
197.8290
20
111.5055
0
VERTEX
8
CUT
10
196.7782
20
110.4772
0
VERTEX
8
CUT
10
196.4175
20
109.2651
0
SEQEND
0
POLYLINE
8
CUT
66
1
70
1
10
0.0
20
0.0
30
0.0
0
VERTEX
8
CUT
10
190.0514
20
94.4845
0
VERTEX
8
CUT
10
189.0806
20
91.6183
0
VERTEX
8
CUT
10
189.3299
20
91.2301
0
VERTEX
8
CUT
10
189.7748
20
91.3522
0
VERTEX
8
CUT
10
191.3086
20
94.4583
0
VERTEX
8
CUT
10
191.8984
20
99.4126
0
VERTEX
8
CUT
10
191.8965
20
100.0370
0
VERTEX
8
CUT
10
191.6226
20
100.2823
0
VERTEX
8
CUT
10
191.1519
20
99.9953
0
SEQEND
0
POLYLINE
8
CUT
66
1
70
1
10
0.0
20
0.0
30
0.0
0
VERTEX
8
CUT
10
190.9467
20
43.7472
0
VERTEX
8
CUT
10
190.8796
20
43.8008
0
VERTEX
8
CUT
10
190.8811
20
44.0599
0
VERTEX
8
CUT
10
190.3926
20
44.1172
0
VERTEX
8
CUT
10
189.3379
20
42.8294
0
VERTEX
8
CUT
10
187.4902
20
41.8782
0
VERTEX
8
CUT
10
186.1030
20
41.7222
0
VERTEX
8
CUT
10
184.2893
20
42.2620
0
VERTEX
8
CUT
10
184.1867
20
42.3475
0
VERTEX
8
CUT
10
183.8889
20
42.2582
0
VERTEX
8
CUT
10
183.8049
20
42.0397
0
VERTEX
8
CUT
10
183.7999
20
42.0365
0
VERTEX
8
CUT
10
183.8020
20
42.0321
0
VERTEX
8
CUT
10
183.7400
20
41.8711
0
VERTEX
8
CUT
10
184.2463
20
40.7990
0
VERTEX
8
CUT
10
185.1286
20
39.8449
0
VERTEX
8
CUT
10
185.8128
20
39.0248
0
VERTEX
8
CUT
10
186.1516
20
38.7386
0
VERTEX
8
CUT
10
186.8073
20
38.0295
0
VERTEX
8
CUT
10
187.2260
20
37.8312
0
VERTEX
8
CUT
10
187.2518
20
37.8094
0
VERTEX
8
CUT
10
188.3680
20
37.2100
0
VERTEX
8
CUT
10
188.5936
20
36.7802
0
VERTEX
8
CUT
10
188.3018
20
36.0121
0
VERTEX
8
CUT
10
187.3656
20
35.3952
0
VERTEX
8
CUT
10
186.0008
20
35.1402
0
VERTEX
8
CUT
10
184.4793
20
35.5071
0
VERTEX
8
CUT
10
183.1571
20
36.2354
0
VERTEX
8
CUT
10
182.7830
20
36.1060
0
VERTEX
8
CUT
10
182.7304
20
35.6813
0
VERTEX
8
CUT
10
183.0701
20
35.2264
0
VERTEX
8
CUT
10
183.4720
20
34.4560
0
VERTEX
8
CUT
10
184.4845
20
33.1159
0
VERTEX
8
CUT
10
185.5268
20
31.8652
0
VERTEX
8
CUT
10
186.8371
20
30.7038
0
VERTEX
8
CUT
10
187.3594
20
30.4916
0
VERTEX
8
CUT
10
187.4621
20
30.4182
0
VERTEX
8
CUT
10
187.9825
20
30.2385
0
VERTEX
8
CUT
10
188.4506
20
30.4453
0
VERTEX
8
CUT
10
188.4974
20
30.5084
0
VERTEX
8
CUT
10
188.9812
20
30.8229
0
VERTEX
8
CUT
10
189.6364
20
32.0736
0
VERTEX
8
CUT
10
189.8150
20
32.9968
0
VERTEX
8
CUT
10
189.8044
20
33.0501
0
VERTEX
8
CUT
10
190.4100
20
35.5516
0
VERTEX
8
CUT
10
190.4510
20
35.9364
0
VERTEX
8
CUT
10
190.6191
20
36.2725
0
VERTEX
8
CUT
10
190.7978
20
37.5531
0
VERTEX
8
CUT
10
190.6630
20
37.9273
0
VERTEX
8
CUT
10
190.8093
20
39.3013
0
VERTEX
8
CUT
10
190.8573
20
39.3100
0
VERTEX
8
CUT
10
191.0360
20
39.9950
0
VERTEX
8
CUT
10
191.0955
20
42.2582
0
SEQEND
0
POLYLINE
8
CUT
66
1
70
1
10
0.0
20
0.0
30
0.0
0
VERTEX
8
CUT
10
185.1099
20
49.3007
0
VERTEX
8
CUT
10
185.0803
20
49.2563
0
VERTEX
8
CUT
10
184.8419
20
49.2563
0
VERTEX
8
CUT
10
184.7228
20
48.9586
0
VERTEX
8
CUT
10
184.8717
20
48.5119
0
VERTEX
8
CUT
10
186.7775
20
46.6358
0
VERTEX
8
CUT
10
188.3856
20
45.7722
0
VERTEX
8
CUT
10
188.4327
20
45.7895
0
VERTEX
8
CUT
10
189.5530
20
45.3626
0
VERTEX
8
CUT
10
190.6789
20
44.6425
0
VERTEX
8
CUT
10
191.0049
20
45.0804
0
VERTEX
8
CUT
10
190.7423
20
51.0956
0
VERTEX
8
CUT
10
190.2319
20
51.3178
0
VERTEX
8
CUT
10
188.7275
20
49.9578
0
VERTEX
8
CUT
10
187.7073
20
49.4449
0
VERTEX
8
CUT
10
186.1135
20
49.1964
0
VERTEX
8
CUT
10
185.6254
20
49.2471
0
VERTEX
8
CUT
10
185.6161
20
49.2563
0
VERTEX
8
CUT
10
185.5364
20
49.2563
0
SEQEND
0
POLYLINE
8
CUT
66
1
70
1
10
0.0
20
0.0
30
0.0
0
VERTEX
8
CUT
10
190.0030
20
56.6289
0
VERTEX
8
CUT
10
189.6030
20
57.5100
0
VERTEX
8
CUT
10
189.2849
20
57.5645
0
VERTEX
8
CUT
10
186.7736
20
56.7592
0
VERTEX
8
CUT
10
185.2756
20
56.7636
0
VERTEX
8
CUT
10
183.5754
20
57.1230
0
VERTEX
8
CUT
10
183.2474
20
56.9599
0
VERTEX
8
CUT
10
183.2798
20
56.4679
0
VERTEX
8
CUT
10
185.3574
20
54.6342
0
VERTEX
8
CUT
10
186.8441
20
53.7290
0
VERTEX
8
CUT
10
187.5816
20
53.2468
0
VERTEX
8
CUT
10
187.9792
20
53.1651
0
VERTEX
8
CUT
10
189.9751
20
52.4663
0
VERTEX
8
CUT
10
190.4311
20
52.7054
0
VERTEX
8
CUT
10
190.4507
20
53.2134
0
VERTEX
8
CUT
10
190.4702
20
53.2468
0
VERTEX
8
CUT
10
190.4702
20
54.5273
0
VERTEX
8
CUT
10
190.1426
20
56.3141
0
VERTEX
8
CUT
10
190.0264
20
56.4768
0
SEQEND
0
POLYLINE
8
CUT
66
1
70
1
10
0.0
20
0.0
30
0.0
0
VERTEX
8
CUT
10
188.9849
20
60.7615
0
VERTEX
8
CUT
10
189.1858
20
61.3510
0
VERTEX
8
CUT
10
189.0748
20
62.3388
0
VERTEX
8
CUT
10
188.4430
20
63.9531
0
VERTEX
8
CUT
10
183.0893
20
66.0824
0
VERTEX
8
CUT
10
182.7420
20
65.8751
0
VERTEX
8
CUT
10
182.7661
20
65.4713
0
VERTEX
8
CUT
10
183.7287
20
64.2219
0
VERTEX
8
CUT
10
183.8592
20
63.8780
0
VERTEX
8
CUT
10
185.2588
20
62.3891
0
VERTEX
8
CUT
10
186.9562
20
61.3170
0
VERTEX
8
CUT
10
187.3731
20
61.1979
0
VERTEX
8
CUT
10
187.3926
20
61.2114
0
VERTEX
8
CUT
10
188.2189
20
60.7712
0
VERTEX
8
CUT
10
188.6697
20
60.6217
0
SEQEND
0
POLYLINE
8
CUT
66
1
70
1
10
0.0
20
0.0
30
0.0
0
VERTEX
8
CUT
10
183.0322
20
90.0619
0
VERTEX
8
CUT
10
184.0113
20
93.4043
0
VERTEX
8
CUT
10
184.2406
20
95.2830
0
VERTEX
8
CUT
10
184.0166
20
95.6519
0
VERTEX
8
CUT
10
183.5387
20
95.5313
0
VERTEX
8
CUT
10
180.4360
20
90.9877
0
VERTEX
8
CUT
10
179.8844
20
89.7905
0
VERTEX
8
CUT
10
178.5564
20
84.9042
0
VERTEX
8
CUT
10
178.8104
20
84.5503
0
VERTEX
8
CUT
10
179.2337
20
84.6534
0
VERTEX
8
CUT
10
181.8600
20
88.0458
0
SEQEND
0
POLYLINE
8
CUT
66
1
70
1
10
0.0
20
0.0
30
0.0
0
VERTEX
8
CUT
10
180.2138
20
155.2021
0
VERTEX
8
CUT
10
179.6286
20
155.3469
0
VERTEX
8
CUT
10
177.4140
20
154.9423
0
VERTEX
8
CUT
10
177.1810
20
154.6584
0
VERTEX
8
CUT
10
177.2876
20
154.3071
0
VERTEX
8
CUT
10
179.5423
20
152.7072
0
VERTEX
8
CUT
10
181.8510
20
152.1168
0
VERTEX
8
CUT
10
182.2631
20
152.3128
0
VERTEX
8
CUT
10
182.2852
20
152.6392
0
VERTEX
8
CUT
10
181.9800
20
153.1394
0
VERTEX
8
CUT
10
181.4526
20
153.7553
0
VERTEX
8
CUT
10
181.2983
20
154.1995
0
VERTEX
8
CUT
10
180.8274
20
154.5232
0
VERTEX
8
CUT
10
180.8052
20
154.5114
0
SEQEND
0
POLYLINE
8
CUT
66
1
70
1
10
0.0
20
0.0
30
0.0
0
VERTEX
8
CUT
10
181.5425
20
145.1683
0
VERTEX
8
CUT
10
181.6161
20
145.5436
0
VERTEX
8
CUT
10
181.4286
20
146.0446
0
VERTEX
8
CUT
10
180.8336
20
146.6145
0
VERTEX
8
CUT
10
180.7961
20
146.6661
0
VERTEX
8
CUT
10
180.7721
20
146.6734
0
VERTEX
8
CUT
10
180.4778
20
146.9554
0
VERTEX
8
CUT
10
179.2989
20
147.2575
0
VERTEX
8
CUT
10
177.2092
20
147.2883
0
VERTEX
8
CUT
10
176.9768
20
146.9989
0
VERTEX
8
CUT
10
177.0656
20
146.6741
0
VERTEX
8
CUT
10
178.4089
20
145.6579
0
VERTEX
8
CUT
10
178.4663
20
145.5395
0
VERTEX
8
CUT
10
178.8251
20
145.3430
0
VERTEX
8
CUT
10
179.5967
20
144.7594
0
VERTEX
8
CUT
10
180.5393
20
144.5903
0
VERTEX
8
CUT
10
181.2093
20
144.8373
0
SEQEND
0
POLYLINE
8
CUT
66
1
70
1
10
0.0
20
0.0
30
0.0
0
VERTEX
8
CUT
10
178.4338
20
137.7646
0
VERTEX
8
CUT
10
178.7385
20
137.7759
0
VERTEX
8
CUT
10
179.4533
20
138.2137
0
VERTEX
8
CUT
10
179.6574
20
138.5799
0
VERTEX
8
CUT
10
179.8175
20
138.7377
0
VERTEX
8
CUT
10
179.6958
20
139.0274
0
VERTEX
8
CUT
10
179.6445
20
139.4108
0
VERTEX
8
CUT
10
179.4353
20
139.6472
0
VERTEX
8
CUT
10
179.4189
20
139.6863
0
VERTEX
8
CUT
10
179.3781
20
139.7119
0
VERTEX
8
CUT
10
179.3208
20
139.7766
0
VERTEX
8
CUT
10
179.1638
20
139.8461
0
VERTEX
8
CUT
10
178.6688
20
140.1561
0
VERTEX
8
CUT
10
178.5084
20
140.1362
0
VERTEX
8
CUT
10
178.4271
20
140.1722
0
VERTEX
8
CUT
10
177.8076
20
140.2228
0
VERTEX
8
CUT
10
176.8850
20
139.9334
0
VERTEX
8
CUT
10
176.4933
20
139.3827
0
VERTEX
8
CUT
10
176.6100
20
138.8331
0
VERTEX
8
CUT
10
177.4125
20
138.0559
0
VERTEX
8
CUT
10
178.1702
20
137.7548
0
VERTEX
8
CUT
10
178.3402
20
137.7611
0
VERTEX
8
CUT
10
178.3702
20
137.7418
0
SEQEND
0
POLYLINE
8
CUT
66
1
70
1
10
0.0
20
0.0
30
0.0
0
VERTEX
8
CUT
10
65.6297
20
211.1581
0
VERTEX
8
CUT
10
68.7456
20
208.3516
0
VERTEX
8
CUT
10
72.9185
20
204.8642
0
VERTEX
8
CUT
10
77.2023
20
201.4730
0
VERTEX
8
CUT
10
79.8977
20
199.4896
0
VERTEX
8
CUT
10
79.9291
20
199.4338
0
VERTEX
8
CUT
10
81.7754
20
197.8852
0
VERTEX
8
CUT
10
82.6093
20
197.3492
0
VERTEX
8
CUT
10
82.7077
20
197.4218
0
VERTEX
8
CUT
10
86.6572
20
194.5156
0
VERTEX
8
CUT
10
89.9043
20
192.3410
0
VERTEX
8
CUT
10
89.9160
20
192.3178
0
VERTEX
8
CUT
10
90.0700
20
192.2161
0
VERTEX
8
CUT
10
90.1137
20
192.1676
0
VERTEX
8
CUT
10
93.0023
20
189.9937
0
VERTEX
8
CUT
10
96.1589
20
187.9985
0
VERTEX
8
CUT
10
96.4475
20
187.9591
0
VERTEX
8
CUT
10
98.5639
20
186.5417
0
VERTEX
8
CUT
10
98.5710
20
186.4500
0
VERTEX
8
CUT
10
100.0302
20
185.3183
0
VERTEX
8
CUT
10
101.1816
20
184.7887
0
VERTEX
8
CUT
10
102.1059
20
184.1697
0
VERTEX
8
CUT
10
103.3655
20
183.1742
0
VERTEX
8
CUT
10
108.5765
20
180.1042
0
VERTEX
8
CUT
10
112.6481
20
177.5752
0
VERTEX
8
CUT
10
122.1664
20
172.0130
0
VERTEX
8
CUT
10
127.5383
20
169.1472
0
VERTEX
8
CUT
10
127.5463
20
169.0588
0
VERTEX
8
CUT
10
128.0824
20
168.6419
0
VERTEX
8
CUT
10
131.2688
20
166.8849
0
VERTEX
8
CUT
10
134.4849
20
165.3662
0
VERTEX
8
CUT
10
134.6901
20
165.3320
0
VERTEX
8
CUT
10
136.8464
20
164.1816
0
VERTEX
8
CUT
10
138.2810
20
163.5018
0
VERTEX
8
CUT
10
138.7136
20
163.1625
0
VERTEX
8
CUT
10
141.3044
20
161.8224
0
VERTEX
8
CUT
10
141.9893
20
161.6437
0
VERTEX
8
CUT
10
142.0718
20
161.6953
0
VERTEX
8
CUT
10
147.1126
20
159.2422
0
VERTEX
8
CUT
10
147.2075
20
159.2019
0
VERTEX
8
CUT
10
147.5581
20
158.9338
0
VERTEX
8
CUT
10
149.3746
20
158.0404
0
VERTEX
8
CUT
10
160.8099
20
153.2757
0
VERTEX
8
CUT
10
163.3412
20
152.2930
0
VERTEX
8
CUT
10
163.5981
20
152.2563
0
VERTEX
8
CUT
10
168.8675
20
150.0762
0
VERTEX
8
CUT
10
170.0147
20
149.4552
0
VERTEX
8
CUT
10
171.1951
20
148.4661
0
VERTEX
8
CUT
10
171.7839
20
147.9164
0
VERTEX
8
CUT
10
171.9305
20
147.8500
0
VERTEX
8
CUT
10
172.1566
20
147.6606
0
VERTEX
8
CUT
10
173.1919
20
147.3866
0
VERTEX
8
CUT
10
174.4193
20
147.7764
0
VERTEX
8
CUT
10
174.5067
20
148.7848
0
VERTEX
8
CUT
10
173.9525
20
149.9633
0
VERTEX
8
CUT
10
170.3661
20
150.6037
0
VERTEX
8
CUT
10
168.1194
20
151.3827
0
VERTEX
8
CUT
10
164.3631
20
153.2045
0
VERTEX
8
CUT
10
163.0731
20
153.9011
0
VERTEX
8
CUT
10
163.0131
20
153.9228
0
VERTEX
8
CUT
10
155.4834
20
158.0140
0
VERTEX
8
CUT
10
146.8674
20
163.3513
0
VERTEX
8
CUT
10
138.4030
20
169.2829
0
VERTEX
8
CUT
10
130.1322
20
175.6794
0
VERTEX
8
CUT
10
122.2015
20
182.5359
0
VERTEX
8
CUT
10
114.6746
20
189.7343
0
VERTEX
8
CUT
10
107.6839
20
197.1414
0
VERTEX
8
CUT
10
99.9793
20
206.2518
0
VERTEX
8
CUT
10
99.4519
20
206.0909
0
VERTEX
8
CUT
10
98.1139
20
201.8656
0
VERTEX
8
CUT
10
96.4597
20
198.9416
0
VERTEX
8
CUT
10
94.3865
20
196.3235
0
VERTEX
8
CUT
10
92.1496
20
194.4746
0
VERTEX
8
CUT
10
90.8748
20
193.7880
0
VERTEX
8
CUT
10
89.0478
20
195.6727
0
VERTEX
8
CUT
10
88.1590
20
196.1569
0
VERTEX
8
CUT
10
87.2156
20
196.3469
0
VERTEX
8
CUT
10
86.7977
20
196.6774
0
VERTEX
8
CUT
10
85.3863
20
199.2244
0
VERTEX
8
CUT
10
86.7956
20
200.7899
0
VERTEX
8
CUT
10
87.2251
20
201.1908
0
VERTEX
8
CUT
10
88.7140
20
202.7988
0
VERTEX
8
CUT
10
88.8336
20
203.0540
0
VERTEX
8
CUT
10
88.9393
20
203.1713
0
VERTEX
8
CUT
10
89.8768
20
204.6106
0
VERTEX
8
CUT
10
90.9834
20
207.0566
0
VERTEX
8
CUT
10
91.5491
20
209.0217
0
VERTEX
8
CUT
10
92.0477
20
212.5132
0
VERTEX
8
CUT
10
92.1071
20
214.8643
0
VERTEX
8
CUT
10
91.8770
20
217.1831
0
VERTEX
8
CUT
10
91.7997
20
217.3681
0
VERTEX
8
CUT
10
91.7766
20
218.0531
0
VERTEX
8
CUT
10
90.8142
20
219.7255
0
VERTEX
8
CUT
10
90.6773
20
220.0531
0
VERTEX
8
CUT
10
84.1169
20
232.1614
0
VERTEX
8
CUT
10
80.0359
20
241.0680
0
VERTEX
8
CUT
10
76.9868
20
249.4385
0
VERTEX
8
CUT
10
74.0741
20
260.2774
0
VERTEX
8
CUT
10
73.5458
20
260.3103
0
VERTEX
8
CUT
10
70.6726
20
258.2573
0
VERTEX
8
CUT
10
65.9182
20
254.1509
0
VERTEX
8
CUT
10
65.2285
20
253.7386
0
VERTEX
8
CUT
10
62.7048
20
251.3754
0
VERTEX
8
CUT
10
61.5165
20
250.3491
0
VERTEX
8
CUT
10
59.8013
20
248.6566
0
VERTEX
8
CUT
10
59.2288
20
248.1205
0
VERTEX
8
CUT
10
58.8364
20
247.7045
0
VERTEX
8
CUT
10
57.0330
20
245.9249
0
VERTEX
8
CUT
10
52.3921
20
240.9867
0
VERTEX
8
CUT
10
48.2600
20
236.2900
0
VERTEX
8
CUT
10
45.7128
20
233.0603
0
VERTEX
8
CUT
10
45.4652
20
232.4908
0
VERTEX
8
CUT
10
45.7708
20
231.8307
0
VERTEX
8
CUT
10
47.2248
20
230.0957
0
VERTEX
8
CUT
10
47.4348
20
229.8091
0
VERTEX
8
CUT
10
47.8740
20
229.3210
0
VERTEX
8
CUT
10
50.8372
20
225.7851
0
VERTEX
8
CUT
10
54.1206
20
222.3786
0
VERTEX
8
CUT
10
54.8900
20
221.5234
0
VERTEX
8
CUT
10
55.8445
20
220.5900
0
VERTEX
8
CUT
10
60.3650
20
215.9000
0
VERTEX
8
CUT
10
63.8517
20
212.7595
0
VERTEX
8
CUT
10
64.3133
20
212.3081
0
SEQEND
0
POLYLINE
8
CUT
66
1
70
1
10
0.0
20
0.0
30
0.0
0
VERTEX
8
CUT
10
173.0172
20
141.5359
0
VERTEX
8
CUT
10
172.8150
20
141.9270
0
VERTEX
8
CUT
10
172.3595
20
142.1713
0
VERTEX
8
CUT
10
171.9427
20
142.5740
0
VERTEX
8
CUT
10
167.6897
20
143.0683
0
VERTEX
8
CUT
10
167.4916
20
142.8021
0
VERTEX
8
CUT
10
167.5959
20
142.4514
0
VERTEX
8
CUT
10
170.3575
20
140.3071
0
VERTEX
8
CUT
10
170.3545
20
140.2757
0
VERTEX
8
CUT
10
170.6392
20
140.0069
0
VERTEX
8
CUT
10
170.7633
20
139.9919
0
VERTEX
8
CUT
10
171.1967
20
139.6554
0
VERTEX
8
CUT
10
173.7577
20
139.9733
0
VERTEX
8
CUT
10
174.0273
20
140.1780
0
VERTEX
8
CUT
10
173.9715
20
140.6138
0
SEQEND
0
POLYLINE
8
CUT
66
1
70
1
10
0.0
20
0.0
30
0.0
0
VERTEX
8
CUT
10
110.8317
20
158.9587
0
VERTEX
8
CUT
10
123.7306
20
155.5626
0
VERTEX
8
CUT
10
136.6405
20
152.4988
0
VERTEX
8
CUT
10
149.5984
20
149.7582
0
VERTEX
8
CUT
10
162.0777
20
147.4106
0
VERTEX
8
CUT
10
162.4085
20
147.3770
0
VERTEX
8
CUT
10
163.0904
20
147.3021
0
VERTEX
8
CUT
10
163.0965
20
147.3071
0
VERTEX
8
CUT
10
163.1613
20
147.3005
0
VERTEX
8
CUT
10
163.4998
20
147.5808
0
VERTEX
8
CUT
10
163.3913
20
147.9728
0
VERTEX
8
CUT
10
162.5703
20
148.3787
0
VERTEX
8
CUT
10
153.1573
20
151.3770
0
VERTEX
8
CUT
10
146.2839
20
153.9467
0
VERTEX
8
CUT
10
139.1298
20
156.8981
0
VERTEX
8
CUT
10
131.7985
20
160.2361
0
VERTEX
8
CUT
10
117.0167
20
167.8063
0
VERTEX
8
CUT
10
99.9329
20
177.8388
0
VERTEX
8
CUT
10
99.7465
20
178.0962
0
VERTEX
8
CUT
10
98.6940
20
178.7453
0
VERTEX
8
CUT
10
98.4252
20
178.7242
0
VERTEX
8
CUT
10
98.3358
20
178.7767
0
VERTEX
8
CUT
10
97.8686
20
178.5936
0
VERTEX
8
CUT
10
97.3633
20
176.4795
0
VERTEX
8
CUT
10
96.2493
20
174.5995
0
VERTEX
8
CUT
10
93.7692
20
172.2090
0
VERTEX
8
CUT
10
91.9766
20
171.2225
0
VERTEX
8
CUT
10
91.7071
20
171.1249
0
VERTEX
8
CUT
10
90.3842
20
170.8442
0
VERTEX
8
CUT
10
85.3509
20
170.8440
0
VERTEX
8
CUT
10
84.5593
20
170.9979
0
VERTEX
8
CUT
10
84.0767
20
171.1653
0
VERTEX
8
CUT
10
84.0198
20
171.1851
0
VERTEX
8
CUT
10
84.0048
20
171.1903
0
VERTEX
8
CUT
10
83.5386
20
171.3521
0
VERTEX
8
CUT
10
82.4651
20
171.8148
0
VERTEX
8
CUT
10
79.7688
20
173.5410
0
VERTEX
8
CUT
10
77.6004
20
175.6797
0
VERTEX
8
CUT
10
77.5810
20
175.7057
0
VERTEX
8
CUT
10
75.9899
20
178.2264
0
VERTEX
8
CUT
10
74.9326
20
180.9761
0
VERTEX
8
CUT
10
74.5047
20
183.7158
0
VERTEX
8
CUT
10
74.4898
20
184.0293
0
VERTEX
8
CUT
10
74.6904
20
186.8141
0
VERTEX
8
CUT
10
75.5113
20
189.6666
0
VERTEX
8
CUT
10
77.5546
20
193.0690
0
VERTEX
8
CUT
10
77.6187
20
193.5003
0
VERTEX
8
CUT
10
77.4161
20
193.6784
0
VERTEX
8
CUT
10
77.1687
20
194.0955
0
VERTEX
8
CUT
10
76.3754
20
194.5932
0
VERTEX
8
CUT
10
73.7084
20
196.9377
0
VERTEX
8
CUT
10
72.9607
20
197.7364
0
VERTEX
8
CUT
10
71.7696
20
198.6595
0
VERTEX
8
CUT
10
71.1442
20
198.6893
0
VERTEX
8
CUT
10
70.9060
20
198.4511
0
VERTEX
8
CUT
10
70.9062
20
198.4483
0
VERTEX
8
CUT
10
70.8500
20
198.4378
0
VERTEX
8
CUT
10
69.8540
20
197.7926
0
VERTEX
8
CUT
10
67.8419
20
195.7522
0
VERTEX
8
CUT
10
65.9572
20
192.4915
0
VERTEX
8
CUT
10
65.3065
20
190.7247
0
VERTEX
8
CUT
10
64.8257
20
188.8299
0
VERTEX
8
CUT
10
64.4760
20
184.9225
0
VERTEX
8
CUT
10
65.1884
20
178.2421
0
VERTEX
8
CUT
10
65.0677
20
177.8218
0
VERTEX
8
CUT
10
64.7940
20
177.6364
0
VERTEX
8
CUT
10
64.2842
20
177.7681
0
VERTEX
8
CUT
10
63.3558
20
178.6074
0
VERTEX
8
CUT
10
62.1480
20
180.2401
0
VERTEX
8
CUT
10
60.0532
20
184.4886
0
VERTEX
8
CUT
10
59.4469
20
186.6331
0
VERTEX
8
CUT
10
59.0866
20
188.9075
0
VERTEX
8
CUT
10
59.0283
20
190.3506
0
VERTEX
8
CUT
10
59.2135
20
193.7713
0
VERTEX
8
CUT
10
60.1012
20
197.4074
0
VERTEX
8
CUT
10
60.1721
20
197.5804
0
VERTEX
8
CUT
10
61.9524
20
201.0282
0
VERTEX
8
CUT
10
62.6604
20
201.9066
0
VERTEX
8
CUT
10
64.5019
20
204.1127
0
VERTEX
8
CUT
10
64.5585
20
204.2618
0
VERTEX
8
CUT
10
64.5972
20
204.3098
0
VERTEX
8
CUT
10
64.8310
20
204.5558
0
VERTEX
8
CUT
10
64.7396
20
204.7385
0
VERTEX
8
CUT
10
64.7570
20
204.7842
0
VERTEX
8
CUT
10
64.7074
20
204.8368
0
VERTEX
8
CUT
10
64.7144
20
204.9517
0
VERTEX
8
CUT
10
64.2173
20
205.5561
0
VERTEX
8
CUT
10
63.8140
20
205.7842
0
VERTEX
8
CUT
10
57.9204
20
212.0335
0
VERTEX
8
CUT
10
53.9431
20
216.5793
0
VERTEX
8
CUT
10
48.9342
20
223.4666
0
VERTEX
8
CUT
10
45.8653
20
228.2634
0
VERTEX
8
CUT
10
44.9814
20
229.9915
0
VERTEX
8
CUT
10
44.4194
20
230.6469
0
VERTEX
8
CUT
10
44.0659
20
230.5728
0
VERTEX
8
CUT
10
43.2786
20
229.6977
0
VERTEX
8
CUT
10
40.0253
20
224.9943
0
VERTEX
8
CUT
10
37.9639
20
221.5183
0
VERTEX
8
CUT
10
36.5740
20
219.2822
0
VERTEX
8
CUT
10
35.2507
20
216.9429
0
VERTEX
8
CUT
10
33.9527
20
214.7542
0
VERTEX
8
CUT
10
33.4917
20
213.8054
0
VERTEX
8
CUT
10
31.0101
20
208.8982
0
VERTEX
8
CUT
10
29.6470
20
205.8926
0
VERTEX
8
CUT
10
28.8445
20
204.2408
0
VERTEX
8
CUT
10
25.5376
20
196.1083
0
VERTEX
8
CUT
10
24.6464
20
193.4187
0
VERTEX
8
CUT
10
26.1316
20
192.1733
0
VERTEX
8
CUT
10
28.3299
20
190.8348
0
VERTEX
8
CUT
10
34.7895
20
187.3515
0
VERTEX
8
CUT
10
39.5237
20
184.9844
0
VERTEX
8
CUT
10
40.5372
20
184.4628
0
VERTEX
8
CUT
10
40.9609
20
184.2657
0
VERTEX
8
CUT
10
42.5256
20
183.4834
0
VERTEX
8
CUT
10
49.7204
20
180.1831
0
VERTEX
8
CUT
10
58.4652
20
176.6088
0
VERTEX
8
CUT
10
58.4880
20
176.5632
0
VERTEX
8
CUT
10
60.0067
20
175.9676
0
VERTEX
8
CUT
10
60.0379
20
175.9659
0
VERTEX
8
CUT
10
61.3093
20
175.4463
0
VERTEX
8
CUT
10
62.7222
20
174.9120
0
VERTEX
8
CUT
10
62.8953
20
174.8062
0
VERTEX
8
CUT
10
63.5604
20
174.5951
0
VERTEX
8
CUT
10
68.0896
20
172.8825
0
VERTEX
8
CUT
10
68.5236
20
172.6026
0
VERTEX
8
CUT
10
75.0751
20
170.1606
0
VERTEX
8
CUT
10
75.8029
20
170.0469
0
VERTEX
8
CUT
10
78.8197
20
169.0023
0
VERTEX
8
CUT
10
79.0357
20
168.8503
0
VERTEX
8
CUT
10
81.0905
20
168.0761
0
VERTEX
8
CUT
10
98.8986
20
162.2691
0
VERTEX
8
CUT
10
103.3238
20
161.1514
0
SEQEND
0
POLYLINE
8
CUT
66
1
70
1
10
0.0
20
0.0
30
0.0
0
VERTEX
8
CUT
10
107.0141
20
76.1001
0
VERTEX
8
CUT
10
108.9045
20
76.4151
0
VERTEX
8
CUT
10
109.8872
20
76.8321
0
VERTEX
8
CUT
10
110.0090
20
76.9974
0
VERTEX
8
CUT
10
110.2107
20
77.0641
0
VERTEX
8
CUT
10
112.5000
20
78.2815
0
VERTEX
8
CUT
10
114.2377
20
79.6080
0
VERTEX
8
CUT
10
114.7878
20
80.2669
0
VERTEX
8
CUT
10
115.1254
20
81.0788
0
VERTEX
8
CUT
10
114.9729
20
81.7279
0
VERTEX
8
CUT
10
113.5834
20
83.1169
0
VERTEX
8
CUT
10
112.7673
20
83.2545
0
VERTEX
8
CUT
10
112.3815
20
82.8861
0
VERTEX
8
CUT
10
111.9445
20
81.9291
0
VERTEX
8
CUT
10
112.3006
20
80.2668
0
VERTEX
8
CUT
10
111.9390
20
79.6897
0
VERTEX
8
CUT
10
109.2337
20
78.4296
0
VERTEX
8
CUT
10
107.4447
20
77.3455
0
VERTEX
8
CUT
10
107.4155
20
77.3383
0
VERTEX
8
CUT
10
105.7181
20
76.2960
0
VERTEX
8
CUT
10
105.6287
20
76.0876
0
VERTEX
8
CUT
10
106.0456
20
75.9387
0
VERTEX
8
CUT
10
106.4229
20
76.0016
0
VERTEX
8
CUT
10
106.4268
20
75.9975
0
SEQEND
0
POLYLINE
8
CUT
66
1
70
1
10
0.0
20
0.0
30
0.0
0
VERTEX
8
CUT
10
107.3431
20
70.1602
0
VERTEX
8
CUT
10
104.5137
20
69.4209
0
VERTEX
8
CUT
10
101.8396
20
69.0337
0
VERTEX
8
CUT
10
101.6530
20
68.6424
0
VERTEX
8
CUT
10
101.9439
20
68.3209
0
VERTEX
8
CUT
10
101.9935
20
68.3173
0
VERTEX
8
CUT
10
102.0254
20
68.2854
0
VERTEX
8
CUT
10
104.7949
20
67.8387
0
VERTEX
8
CUT
10
107.0284
20
67.8685
0
VERTEX
8
CUT
10
108.1431
20
68.2055
0
VERTEX
8
CUT
10
108.5352
20
68.2305
0
VERTEX
8
CUT
10
108.9188
20
68.4596
0
VERTEX
8
CUT
10
109.1756
20
68.9333
0
VERTEX
8
CUT
10
108.6498
20
69.5626
0
SEQEND
0
POLYLINE
8
CUT
66
1
70
1
10
0.0
20
0.0
30
0.0
0
VERTEX
8
CUT
10
92.2209
20
182.9438
0
VERTEX
8
CUT
10
91.1350
20
183.9096
0
VERTEX
8
CUT
10
89.5312
20
184.9640
0
VERTEX
8
CUT
10
89.2460
20
185.1782
0
VERTEX
8
CUT
10
88.6369
20
185.5519
0
VERTEX
8
CUT
10
84.6487
20
188.1739
0
VERTEX
8
CUT
10
83.9544
20
187.7921
0
VERTEX
8
CUT
10
83.1664
20
186.6428
0
VERTEX
8
CUT
10
82.3687
20
184.2493
0
VERTEX
8
CUT
10
82.4089
20
182.5534
0
VERTEX
8
CUT
10
82.6691
20
181.6420
0
VERTEX
8
CUT
10
83.5411
20
179.9252
0
VERTEX
8
CUT
10
84.1016
20
179.3129
0
VERTEX
8
CUT
10
84.3042
20
179.0719
0
VERTEX
8
CUT
10
84.3598
20
179.0309
0
VERTEX
8
CUT
10
84.8855
20
178.4566
0
VERTEX
8
CUT
10
86.4344
20
177.6181
0
VERTEX
8
CUT
10
86.8938
20
177.5915
0
VERTEX
8
CUT
10
87.3144
20
177.4864
0
VERTEX
8
CUT
10
87.4832
20
177.5574
0
VERTEX
8
CUT
10
88.6534
20
177.4898
0
VERTEX
8
CUT
10
90.7496
20
178.1145
0
VERTEX
8
CUT
10
91.6806
20
178.8472
0
VERTEX
8
CUT
10
92.6002
20
180.1918
0
VERTEX
8
CUT
10
92.8521
20
181.1988
0
VERTEX
8
CUT
10
92.8147
20
181.4185
0
VERTEX
8
CUT
10
92.8730
20
181.8699
0
VERTEX
8
CUT
10
92.6262
20
182.5238
0
VERTEX
8
CUT
10
92.6143
20
182.5939
0
VERTEX
8
CUT
10
92.5925
20
182.6133
0
VERTEX
8
CUT
10
92.5654
20
182.6850
0
SEQEND
0
POLYLINE
8
CUT
66
1
70
1
10
0.0
20
0.0
30
0.0
0
VERTEX
8
CUT
10
83.3211
20
74.0622
0
VERTEX
8
CUT
10
84.1365
20
73.7254
0
VERTEX
8
CUT
10
84.3067
20
73.5861
0
VERTEX
8
CUT
10
87.6420
20
72.0674
0
VERTEX
8
CUT
10
89.2798
20
71.7398
0
VERTEX
8
CUT
10
89.5479
20
71.9780
0
VERTEX
8
CUT
10
88.7736
20
72.7523
0
VERTEX
8
CUT
10
87.1953
20
73.7946
0
VERTEX
8
CUT
10
87.1791
20
73.8022
0
VERTEX
8
CUT
10
86.8241
20
74.0497
0
VERTEX
8
CUT
10
85.0414
20
75.7724
0
VERTEX
8
CUT
10
83.6210
20
77.7664
0
VERTEX
8
CUT
10
82.5243
20
79.9695
0
VERTEX
8
CUT
10
81.8679
20
82.2707
0
VERTEX
8
CUT
10
81.5960
20
84.6587
0
VERTEX
8
CUT
10
81.7473
20
87.0787
0
VERTEX
8
CUT
10
82.5033
20
89.7903
0
VERTEX
8
CUT
10
82.5199
20
89.8159
0
VERTEX
8
CUT
10
82.5258
20
89.8708
0
VERTEX
8
CUT
10
82.9237
20
91.2981
0
VERTEX
8
CUT
10
82.6136
20
91.7262
0
VERTEX
8
CUT
10
82.2586
20
91.6167
0
VERTEX
8
CUT
10
82.2456
20
91.5969
0
VERTEX
8
CUT
10
81.9243
20
91.4240
0
VERTEX
8
CUT
10
81.4181
20
90.5306
0
VERTEX
8
CUT
10
81.3178
20
89.9861
0
VERTEX
8
CUT
10
78.7589
20
84.6866
0
VERTEX
8
CUT
10
77.2163
20
80.1221
0
VERTEX
8
CUT
10
76.6226
20
77.7206
0
VERTEX
8
CUT
10
75.4324
20
69.7150
0
VERTEX
8
CUT
10
75.2258
20
65.6172
0
VERTEX
8
CUT
10
75.3764
20
61.5032
0
VERTEX
8
CUT
10
75.8908
20
61.3072
0
VERTEX
8
CUT
10
76.3864
20
62.3287
0
VERTEX
8
CUT
10
76.8934
20
62.2364
0
VERTEX
8
CUT
10
77.3835
20
61.2178
0
VERTEX
8
CUT
10
78.2861
20
58.2762
0
VERTEX
8
CUT
10
79.1844
20
56.5000
0
VERTEX
8
CUT
10
80.2084
20
55.6685
0
VERTEX
8
CUT
10
81.1684
20
55.3920
0
VERTEX
8
CUT
10
81.2394
20
55.3016
0
VERTEX
8
CUT
10
82.0732
20
55.0931
0
VERTEX
8
CUT
10
83.8898
20
55.1527
0
VERTEX
8
CUT
10
85.0809
20
55.5100
0
VERTEX
8
CUT
10
86.5401
20
56.3736
0
VERTEX
8
CUT
10
87.3740
20
57.2074
0
VERTEX
8
CUT
10
88.3865
20
58.6964
0
VERTEX
8
CUT
10
88.9523
20
60.1556
0
VERTEX
8
CUT
10
88.9523
20
61.1085
0
VERTEX
8
CUT
10
88.8699
20
61.1497
0
VERTEX
8
CUT
10
89.0106
20
63.1313
0
VERTEX
8
CUT
10
88.5986
20
65.2958
0
VERTEX
8
CUT
10
86.8981
20
67.5981
0
VERTEX
8
CUT
10
83.8472
20
71.0701
0
VERTEX
8
CUT
10
82.9650
20
72.4960
0
VERTEX
8
CUT
10
82.6148
20
73.5024
0
VERTEX
8
CUT
10
82.8085
20
73.9896
0
SEQEND
0
POLYLINE
8
CUT
66
1
70
1
10
0.0
20
0.0
30
0.0
0
VERTEX
8
CUT
10
13.0957
20
242.4801
0
VERTEX
8
CUT
10
13.1438
20
242.6897
0
VERTEX
8
CUT
10
13.9184
20
246.0694
0
VERTEX
8
CUT
10
17.1250
20
258.0436
0
VERTEX
8
CUT
10
17.8042
20
262.4806
0
VERTEX
8
CUT
10
17.7183
20
264.0817
0
VERTEX
8
CUT
10
17.3717
20
265.4095
0
VERTEX
8
CUT
10
16.7643
20
266.6267
0
VERTEX
8
CUT
10
14.1504
20
270.5068
0
VERTEX
8
CUT
10
13.7663
20
271.4351
0
VERTEX
8
CUT
10
13.4710
20
272.2373
0
VERTEX
8
CUT
10
13.3411
20
273.1628
0
VERTEX
8
CUT
10
13.2815
20
276.7380
0
VERTEX
8
CUT
10
13.5922
20
279.1073
0
VERTEX
8
CUT
10
14.5591
20
281.4129
0
VERTEX
8
CUT
10
15.6271
20
283.0045
0
VERTEX
8
CUT
10
16.1834
20
283.7178
0
VERTEX
8
CUT
10
18.4895
20
285.7138
0
VERTEX
8
CUT
10
20.8529
20
286.8005
0
VERTEX
8
CUT
10
23.3987
20
287.0147
0
VERTEX
8
CUT
10
24.0483
20
286.8696
0
VERTEX
8
CUT
10
24.8114
20
286.3248
0
VERTEX
8
CUT
10
25.6915
20
285.1160
0
VERTEX
8
CUT
10
26.4166
20
282.6514
0
VERTEX
8
CUT
10
26.4891
20
281.4856
0
VERTEX
8
CUT
10
26.5345
20
278.4478
0
VERTEX
8
CUT
10
26.0698
20
273.9859
0
VERTEX
8
CUT
10
26.1932
20
273.7130
0
VERTEX
8
CUT
10
26.5121
20
273.6117
0
VERTEX
8
CUT
10
26.7919
20
273.7953
0
VERTEX
8
CUT
10
28.1902
20
276.4714
0
VERTEX
8
CUT
10
29.5244
20
278.4640
0
VERTEX
8
CUT
10
29.6254
20
278.5945
0
VERTEX
8
CUT
10
29.7437
20
278.7473
0
VERTEX
8
CUT
10
29.8985
20
278.9472
0
VERTEX
8
CUT
10
30.4042
20
279.6005
0
VERTEX
8
CUT
10
31.6974
20
281.1259
0
VERTEX
8
CUT
10
33.8364
20
283.0822
0
VERTEX
8
CUT
10
36.0518
20
284.6773
0
VERTEX
8
CUT
10
38.4507
20
286.0295
0
VERTEX
8
CUT
10
41.0602
20
287.0432
0
VERTEX
8
CUT
10
44.8098
20
287.8197
0
VERTEX
8
CUT
10
45.8090
20
287.8800
0
VERTEX
8
CUT
10
49.1503
20
287.9985
0
VERTEX
8
CUT
10
53.1846
20
287.6041
0
VERTEX
8
CUT
10
56.3804
20
286.6357
0
VERTEX
8
CUT
10
56.6444
20
286.5256
0
VERTEX
8
CUT
10
56.8173
20
286.4535
0
VERTEX
8
CUT
10
56.9900
20
286.3814
0
VERTEX
8
CUT
10
57.1624
20
286.3095
0
VERTEX
8
CUT
10
58.8980
20
285.4049
0
VERTEX
8
CUT
10
60.0215
20
284.5478
0
VERTEX
8
CUT
10
61.0072
20
283.6782
0
VERTEX
8
CUT
10
62.1125
20
282.4314
0
VERTEX
8
CUT
10
63.1469
20
280.6058
0
VERTEX
8
CUT
10
63.7556
20
278.6286
0
VERTEX
8
CUT
10
63.9682
20
276.4736
0
VERTEX
8
CUT
10
63.7191
20
273.9265
0
VERTEX
8
CUT
10
64.1497
20
273.5781
0
VERTEX
8
CUT
10
72.5405
20
279.6510
0
VERTEX
8
CUT
10
80.4229
20
284.6934
0
VERTEX
8
CUT
10
82.0546
20
285.6784
0
VERTEX
8
CUT
10
82.2835
20
285.8835
0
VERTEX
8
CUT
10
82.8548
20
286.2490
0
VERTEX
8
CUT
10
82.8949
20
286.2986
0
VERTEX
8
CUT
10
82.9369
20
286.3251
0
VERTEX
8
CUT
10
83.0049
20
286.4346
0
VERTEX
8
CUT
10
83.5667
20
287.1295
0
VERTEX
8
CUT
10
83.6138
20
287.5707
0
VERTEX
8
CUT
10
82.4276
20
289.0649
0
VERTEX
8
CUT
10
74.6265
20
289.0733
0
VERTEX
8
CUT
10
67.0928
20
289.1578
0
VERTEX
8
CUT
10
21.4757
20
289.1280
0
VERTEX
8
CUT
10
16.4827
20
289.0328
0
VERTEX
8
CUT
10
12.6148
20
288.9795
0
VERTEX
8
CUT
10
12.4370
20
288.9557
0
VERTEX
8
CUT
10
12.1558
20
288.9503
0
VERTEX
8
CUT
10
11.8202
20
288.8732
0
VERTEX
8
CUT
10
10.9266
20
288.7537
0
VERTEX
8
CUT
10
10.8337
20
287.8727
0
VERTEX
8
CUT
10
10.7521
20
287.4012
0
VERTEX
8
CUT
10
10.7462
20
287.0434
0
VERTEX
8
CUT
10
10.7228
20
286.8216
0
VERTEX
8
CUT
10
10.6708
20
282.4449
0
VERTEX
8
CUT
10
10.5742
20
276.5593
0
VERTEX
8
CUT
10
10.5761
20
274.4857
0
VERTEX
8
CUT
10
10.5742
20
274.3257
0
VERTEX
8
CUT
10
10.5742
20
215.9615
0
VERTEX
8
CUT
10
10.6323
20
213.5502
0
VERTEX
8
CUT
10
10.6337
20
212.0347
0
VERTEX
8
CUT
10
10.7166
20
210.0533
0
VERTEX
8
CUT
10
10.8100
20
206.1753
0
VERTEX
8
CUT
10
10.9538
20
205.4268
0
VERTEX
8
CUT
10
11.6411
20
204.7794
0
VERTEX
8
CUT
10
12.4916
20
205.1034
0
VERTEX
8
CUT
10
12.6914
20
205.3976
0
VERTEX
8
CUT
10
12.6941
20
205.3992
0
VERTEX
8
CUT
10
13.2290
20
206.1101
0
VERTEX
8
CUT
10
13.3228
20
206.3271
0
VERTEX
8
CUT
10
13.4916
20
206.5756
0
VERTEX
8
CUT
10
18.1495
20
217.3282
0
VERTEX
8
CUT
10
18.1119
20
217.4115
0
VERTEX
8
CUT
10
18.1145
20
217.4173
0
VERTEX
8
CUT
10
18.1007
20
217.4365
0
VERTEX
8
CUT
10
17.8116
20
218.0782
0
VERTEX
8
CUT
10
15.6951
20
220.7947
0
VERTEX
8
CUT
10
14.1881
20
223.4818
0
VERTEX
8
CUT
10
13.2886
20
226.1001
0
VERTEX
8
CUT
10
13.1291
20
226.7014
0
VERTEX
8
CUT
10
13.0577
20
226.9702
0
VERTEX
8
CUT
10
12.8511
20
227.7487
0
VERTEX
8
CUT
10
12.7294
20
228.2073
0
VERTEX
8
CUT
10
12.4180
20
230.4020
0
VERTEX
8
CUT
10
12.3886
20
236.1654
0
VERTEX
8
CUT
10
12.8272
20
241.0186
0
VERTEX
8
CUT
10
12.9066
20
241.5426
0
VERTEX
8
CUT
10
12.9202
20
241.6319
0
VERTEX
8
CUT
10
12.9328
20
241.7156
0
VERTEX
8
CUT
10
12.9479
20
241.8150
0
VERTEX
8
CUT
10
13.0898
20
242.4543
0
VERTEX
8
CUT
10
13.0918
20
242.4628
0
SEQEND
0
POLYLINE
8
CUT
66
1
70
1
10
0.0
20
0.0
30
0.0
0
VERTEX
8
CUT
10
83.3205
20
12.6913
0
VERTEX
8
CUT
10
82.9357
20
13.4014
0
VERTEX
8
CUT
10
82.2111
20
14.1531
0
VERTEX
8
CUT
10
80.7401
20
15.0975
0
VERTEX
8
CUT
10
78.3222
20
15.8206
0
VERTEX
8
CUT
10
76.6199
20
16.7757
0
VERTEX
8
CUT
10
70.5407
20
21.5519
0
VERTEX
8
CUT
10
68.1677
20
22.8173
0
VERTEX
8
CUT
10
64.4546
20
25.4367
0
VERTEX
8
CUT
10
64.0341
20
25.1187
0
VERTEX
8
CUT
10
63.9056
20
22.2340
0
VERTEX
8
CUT
10
63.5506
20
20.4210
0
VERTEX
8
CUT
10
63.5472
20
20.4033
0
VERTEX
8
CUT
10
63.5447
20
20.3904
0
VERTEX
8
CUT
10
63.5446
20
20.3902
0
VERTEX
8
CUT
10
63.5303
20
20.3364
0
VERTEX
8
CUT
10
63.5264
20
20.3270
0
VERTEX
8
CUT
10
63.5146
20
20.2988
0
VERTEX
8
CUT
10
63.4961
20
20.2548
0
VERTEX
8
CUT
10
63.3932
20
20.0093
0
VERTEX
8
CUT
10
61.7029
20
17.0716
0
VERTEX
8
CUT
10
60.8509
20
16.1551
0
VERTEX
8
CUT
10
58.9100
20
14.6439
0
VERTEX
8
CUT
10
57.2521
20
13.8066
0
VERTEX
8
CUT
10
56.5107
20
13.4456
0
VERTEX
8
CUT
10
53.9778
20
12.6519
0
VERTEX
8
CUT
10
49.1621
20
12.2691
0
VERTEX
8
CUT
10
44.0352
20
12.4479
0
VERTEX
8
CUT
10
40.4301
20
13.2555
0
VERTEX
8
CUT
10
38.1257
20
14.2370
0
VERTEX
8
CUT
10
36.2135
20
15.3169
0
VERTEX
8
CUT
10
35.5797
20
15.7391
0
VERTEX
8
CUT
10
33.9855
20
16.8879
0
VERTEX
8
CUT
10
32.0580
20
18.6616
0
VERTEX
8
CUT
10
30.3502
20
20.6117
0
VERTEX
8
CUT
10
28.7832
20
22.7700
0
VERTEX
8
CUT
10
26.7514
20
26.3977
0
VERTEX
8
CUT
10
26.4674
20
26.5700
0
VERTEX
8
CUT
10
26.1822
20
26.4858
0
VERTEX
8
CUT
10
26.0373
20
26.1868
0
VERTEX
8
CUT
10
26.4502
20
23.2970
0
VERTEX
8
CUT
10
26.5059
20
22.5439
0
VERTEX
8
CUT
10
26.5026
20
18.6492
0
VERTEX
8
CUT
10
26.4987
20
18.5772
0
VERTEX
8
CUT
10
26.4901
20
18.4174
0
VERTEX
8
CUT
10
26.4765
20
18.1641
0
VERTEX
8
CUT
10
26.4650
20
17.9506
0
VERTEX
8
CUT
10
25.7693
20
15.2450
0
VERTEX
8
CUT
10
24.6010
20
13.7921
0
VERTEX
8
CUT
10
23.8172
20
13.3582
0
VERTEX
8
CUT
10
22.9266
20
13.1644
0
VERTEX
8
CUT
10
20.8118
20
13.4710
0
VERTEX
8
CUT
10
18.3181
20
14.7170
0
VERTEX
8
CUT
10
16.1274
20
16.7090
0
VERTEX
8
CUT
10
15.7967
20
17.1152
0
VERTEX
8
CUT
10
15.1174
20
18.0482
0
VERTEX
8
CUT
10
13.7611
20
20.8981
0
VERTEX
8
CUT
10
13.1656
20
23.9956
0
VERTEX
8
CUT
10
13.1947
20
26.2396
0
VERTEX
8
CUT
10
13.8858
20
29.0373
0
VERTEX
8
CUT
10
16.4662
20
33.1578
0
VERTEX
8
CUT
10
16.9526
20
33.8394
0
VERTEX
8
CUT
10
17.0452
20
34.0823
0
VERTEX
8
CUT
10
17.3390
20
34.5516
0
VERTEX
8
CUT
10
17.4962
20
35.2653
0
VERTEX
8
CUT
10
17.5794
20
35.4836
0
VERTEX
8
CUT
10
17.6060
20
35.7641
0
VERTEX
8
CUT
10
17.8638
20
36.9352
0
VERTEX
8
CUT
10
17.5115
20
39.7596
0
VERTEX
8
CUT
10
16.6242
20
43.9888
0
VERTEX
8
CUT
10
15.0347
20
49.7448
0
VERTEX
8
CUT
10
14.0485
20
53.5761
0
VERTEX
8
CUT
10
13.5999
20
55.3188
0
VERTEX
8
CUT
10
13.5801
20
55.3957
0
VERTEX
8
CUT
10
13.5494
20
55.5150
0
VERTEX
8
CUT
10
13.1761
20
57.1694
0
VERTEX
8
CUT
10
13.1608
20
57.2566
0
VERTEX
8
CUT
10
13.1162
20
57.5110
0
VERTEX
8
CUT
10
13.0669
20
57.7919
0
VERTEX
8
CUT
10
12.8593
20
58.9746
0
VERTEX
8
CUT
10
12.4775
20
61.8796
0
VERTEX
8
CUT
10
12.4180
20
69.8658
0
VERTEX
8
CUT
10
12.8391
20
72.8834
0
VERTEX
8
CUT
10
14.1576
20
76.8438
0
VERTEX
8
CUT
10
15.5731
20
79.4686
0
VERTEX
8
CUT
10
15.6216
20
79.5394
0
VERTEX
8
CUT
10
18.1012
20
82.9190
0
VERTEX
8
CUT
10
18.0450
20
83.0814
0
VERTEX
8
CUT
10
18.1342
20
83.2117
0
VERTEX
8
CUT
10
13.5766
20
93.6728
0
VERTEX
8
CUT
10
13.4902
20
93.8153
0
VERTEX
8
CUT
10
13.0729
20
94.7697
0
VERTEX
8
CUT
10
12.4758
20
95.5011
0
VERTEX
8
CUT
10
12.3636
20
95.5071
0
VERTEX
8
CUT
10
11.9195
20
95.8485
0
VERTEX
8
CUT
10
11.0927
20
95.3675
0
VERTEX
8
CUT
10
10.8140
20
94.4549
0
VERTEX
8
CUT
10
10.7489
20
91.7636
0
VERTEX
8
CUT
10
10.7234
20
91.3629
0
VERTEX
8
CUT
10
10.7010
20
89.7863
0
VERTEX
8
CUT
10
10.5742
20
84.5448
0
VERTEX
8
CUT
10
10.5742
20
80.8390
0
VERTEX
8
CUT
10
10.5444
20
78.7386
0
VERTEX
8
CUT
10
10.5742
20
25.7556
0
VERTEX
8
CUT
10
10.5742
20
23.2917
0
VERTEX
8
CUT
10
10.6806
20
16.7356
0
VERTEX
8
CUT
10
10.7228
20
13.1785
0
VERTEX
8
CUT
10
10.7412
20
13.0045
0
VERTEX
8
CUT
10
10.7521
20
12.3299
0
VERTEX
8
CUT
10
10.9120
20
11.3852
0
VERTEX
8
CUT
10
10.9266
20
11.2463
0
VERTEX
8
CUT
10
10.9357
20
11.2450
0
VERTEX
8
CUT
10
10.9732
20
11.0236
0
VERTEX
8
CUT
10
12.1272
20
10.7518
0
VERTEX
8
CUT
10
21.2971
20
10.5742
0
VERTEX
8
CUT
10
70.2767
20
10.5742
0
VERTEX
8
CUT
10
80.1611
20
10.7530
0
VERTEX
8
CUT
10
81.8676
20
10.9492
0
VERTEX
8
CUT
10
82.6328
20
11.4313
0
VERTEX
8
CUT
10
83.1203
20
11.9746
0
SEQEND
0
POLYLINE
8
CUT
66
1
70
1
10
0.0
20
0.0
30
0.0
0
VERTEX
8
CUT
10
22.4956
20
239.8732
0
VERTEX
8
CUT
10
23.2889
20
240.2175
0
VERTEX
8
CUT
10
23.7918
20
240.3428
0
VERTEX
8
CUT
10
24.8304
20
240.4401
0
VERTEX
8
CUT
10
26.0418
20
240.2473
0
VERTEX
8
CUT
10
26.8021
20
239.9744
0
VERTEX
8
CUT
10
28.0609
20
238.8396
0
VERTEX
8
CUT
10
28.7628
20
237.2749
0
VERTEX
8
CUT
10
28.9789
20
235.4527
0
VERTEX
8
CUT
10
29.2373
20
235.2375
0
VERTEX
8
CUT
10
29.5669
20
235.3037
0
VERTEX
8
CUT
10
34.3455
20
242.2196
0
VERTEX
8
CUT
10
34.4902
20
242.4151
0
VERTEX
8
CUT
10
34.5216
20
242.4574
0
VERTEX
8
CUT
10
34.5308
20
242.4700
0
VERTEX
8
CUT
10
34.5334
20
242.4734
0
VERTEX
8
CUT
10
40.9035
20
250.4581
0
VERTEX
8
CUT
10
53.0482
20
263.3343
0
VERTEX
8
CUT
10
53.0191
20
263.6718
0
VERTEX
8
CUT
10
52.7366
20
263.8589
0
VERTEX
8
CUT
10
49.9562
20
263.7158
0
VERTEX
8
CUT
10
49.2469
20
263.7450
0
VERTEX
8
CUT
10
49.0198
20
263.7544
0
VERTEX
8
CUT
10
48.9669
20
263.7566
0
VERTEX
8
CUT
10
48.5437
20
263.7740
0
VERTEX
8
CUT
10
46.0718
20
264.3595
0
VERTEX
8
CUT
10
43.6621
20
265.8150
0
VERTEX
8
CUT
10
43.2984
20
266.1765
0
VERTEX
8
CUT
10
42.6330
20
266.8466
0
VERTEX
8
CUT
10
42.2995
20
267.3282
0
VERTEX
8
CUT
10
41.7679
20
268.1359
0
VERTEX
8
CUT
10
41.0360
20
270.2407
0
VERTEX
8
CUT
10
41.0395
20
272.5481
0
VERTEX
8
CUT
10
41.8193
20
274.7485
0
VERTEX
8
CUT
10
43.1930
20
276.4439
0
VERTEX
8
CUT
10
43.2666
20
276.5098
0
VERTEX
8
CUT
10
43.2986
20
276.5384
0
VERTEX
8
CUT
10
44.3197
20
277.2255
0
VERTEX
8
CUT
10
44.3491
20
277.2418
0
VERTEX
8
CUT
10
46.6547
20
277.8433
0
VERTEX
8
CUT
10
47.8316
20
277.7811
0
VERTEX
8
CUT
10
48.9040
20
277.4750
0
VERTEX
8
CUT
10
48.9287
20
277.4651
0
VERTEX
8
CUT
10
49.5370
20
277.1361
0
VERTEX
8
CUT
10
50.1522
20
276.7146
0
VERTEX
8
CUT
10
50.2683
20
276.6022
0
VERTEX
8
CUT
10
50.9311
20
275.8289
0
VERTEX
8
CUT
10
51.3282
20
275.1771
0
VERTEX
8
CUT
10
51.5795
20
273.3683
0
VERTEX
8
CUT
10
51.3836
20
270.5774
0
VERTEX
8
CUT
10
51.4910
20
270.5537
0
VERTEX
8
CUT
10
51.5016
20
270.4959
0
VERTEX
8
CUT
10
51.7001
20
270.4728
0
VERTEX
8
CUT
10
51.7143
20
270.4079
0
VERTEX
8
CUT
10
51.9861
20
270.2919
0
VERTEX
8
CUT
10
52.6674
20
270.4264
0
VERTEX
8
CUT
10
52.8240
20
270.5002
0
VERTEX
8
CUT
10
53.4151
20
270.5943
0
VERTEX
8
CUT
10
54.4535
20
271.0833
0
VERTEX
8
CUT
10
55.6778
20
272.2148
0
VERTEX
8
CUT
10
55.9183
20
272.4154
0
VERTEX
8
CUT
10
55.9521
20
272.4684
0
VERTEX
8
CUT
10
56.2013
20
272.6987
0
VERTEX
8
CUT
10
56.4702
20
273.2785
0
VERTEX
8
CUT
10
56.7049
20
273.6454
0
VERTEX
8
CUT
10
56.7982
20
273.9855
0
VERTEX
8
CUT
10
57.1958
20
274.8428
0
VERTEX
8
CUT
10
57.3476
20
276.0071
0
VERTEX
8
CUT
10
57.2019
20
277.1768
0
VERTEX
8
CUT
10
56.6482
20
278.3954
0
VERTEX
8
CUT
10
56.0365
20
279.1079
0
VERTEX
8
CUT
10
55.9047
20
279.2930
0
VERTEX
8
CUT
10
55.8217
20
279.3582
0
VERTEX
8
CUT
10
55.7209
20
279.4756
0
VERTEX
8
CUT
10
54.5335
20
280.4021
0
VERTEX
8
CUT
10
53.1097
20
281.1004
0
VERTEX
8
CUT
10
51.4733
20
281.5973
0
VERTEX
8
CUT
10
49.6591
20
281.8619
0
VERTEX
8
CUT
10
47.8074
20
281.8619
0
VERTEX
8
CUT
10
44.2723
20
281.1905
0
VERTEX
8
CUT
10
41.1753
20
279.9545
0
VERTEX
8
CUT
10
38.1985
20
278.1687
0
VERTEX
8
CUT
10
35.3954
20
275.8346
0
VERTEX
8
CUT
10
32.0401
20
272.0378
0
VERTEX
8
CUT
10
29.5245
20
268.2527
0
VERTEX
8
CUT
10
29.2184
20
267.5225
0
VERTEX
8
CUT
10
29.6351
20
267.1742
0
VERTEX
8
CUT
10
32.7692
20
268.9943
0
VERTEX
8
CUT
10
33.8683
20
269.3265
0
VERTEX
8
CUT
10
35.9781
20
269.5652
0
VERTEX
8
CUT
10
37.2536
20
269.3311
0
VERTEX
8
CUT
10
37.4475
20
269.2626
0
VERTEX
8
CUT
10
37.6327
20
269.1972
0
VERTEX
8
CUT
10
37.9390
20
269.0890
0
VERTEX
8
CUT
10
38.2799
20
268.9685
0
VERTEX
8
CUT
10
38.8443
20
268.6157
0
VERTEX
8
CUT
10
38.9344
20
268.5242
0
VERTEX
8
CUT
10
38.9511
20
268.5073
0
VERTEX
8
CUT
10
38.9627
20
268.4955
0
VERTEX
8
CUT
10
38.9742
20
268.4838
0
VERTEX
8
CUT
10
39.6280
20
267.7519
0
VERTEX
8
CUT
10
40.1139
20
266.7013
0
VERTEX
8
CUT
10
40.2348
20
264.5018
0
VERTEX
8
CUT
10
39.9206
20
263.4216
0
VERTEX
8
CUT
10
39.8474
20
263.2496
0
VERTEX
8
CUT
10
39.4024
20
262.5137
0
VERTEX
8
CUT
10
39.3034
20
262.4126
0
VERTEX
8
CUT
10
39.1988
20
262.3057
0
VERTEX
8
CUT
10
39.1313
20
262.2368
0
VERTEX
8
CUT
10
38.2437
20
261.3301
0
VERTEX
8
CUT
10
38.0878
20
261.1841
0
VERTEX
8
CUT
10
36.5293
20
260.4050
0
VERTEX
8
CUT
10
35.8025
20
260.0848
0
VERTEX
8
CUT
10
33.2906
20
259.1595
0
VERTEX
8
CUT
10
33.0809
20
258.7452
0
VERTEX
8
CUT
10
33.4168
20
258.4246
0
VERTEX
8
CUT
10
36.5800
20
258.3094
0
VERTEX
8
CUT
10
36.9893
20
258.2484
0
VERTEX
8
CUT
10
37.1138
20
258.2219
0
VERTEX
8
CUT
10
38.1265
20
257.8982
0
VERTEX
8
CUT
10
39.5540
20
257.1056
0
VERTEX
8
CUT
10
40.8972
20
255.6767
0
VERTEX
8
CUT
10
41.3107
20
254.8352
0
VERTEX
8
CUT
10
41.4790
20
253.0477
0
VERTEX
8
CUT
10
40.6787
20
251.4284
0
VERTEX
8
CUT
10
39.8287
20
250.6694
0
VERTEX
8
CUT
10
39.3208
20
250.4281
0
VERTEX
8
CUT
10
39.2875
20
250.4203
0
VERTEX
8
CUT
10
39.1233
20
250.3815
0
VERTEX
8
CUT
10
38.7239
20
250.2873
0
VERTEX
8
CUT
10
38.6856
20
250.2783
0
VERTEX
8
CUT
10
36.9439
20
249.9879
0
VERTEX
8
CUT
10
35.7425
20
249.9173
0
VERTEX
8
CUT
10
30.5396
20
249.7894
0
VERTEX
8
CUT
10
28.3749
20
249.3282
0
VERTEX
8
CUT
10
26.7628
20
248.7145
0
VERTEX
8
CUT
10
23.9150
20
246.9599
0
VERTEX
8
CUT
10
21.5686
20
244.5246
0
VERTEX
8
CUT
10
19.7365
20
241.4125
0
VERTEX
8
CUT
10
18.9855
20
239.5213
0
VERTEX
8
CUT
10
18.3120
20
236.8475
0
VERTEX
8
CUT
10
18.1578
20
235.2830
0
VERTEX
8
CUT
10
18.1119
20
235.0217
0
VERTEX
8
CUT
10
18.0933
20
234.6287
0
VERTEX
8
CUT
10
18.0188
20
233.8727
0
VERTEX
8
CUT
10
18.0305
20
233.2999
0
VERTEX
8
CUT
10
17.9910
20
232.4630
0
VERTEX
8
CUT
10
18.0629
20
231.7258
0
VERTEX
8
CUT
10
18.0796
20
230.9171
0
VERTEX
8
CUT
10
18.1947
20
230.3746
0
VERTEX
8
CUT
10
18.2260
20
230.0540
0
VERTEX
8
CUT
10
18.4357
20
229.2397
0
VERTEX
8
CUT
10
18.7259
20
227.8723
0
VERTEX
8
CUT
10
19.6394
20
226.0439
0
VERTEX
8
CUT
10
20.4073
20
225.4142
0
VERTEX
8
CUT
10
20.4545
20
225.3608
0
VERTEX
8
CUT
10
20.4898
20
225.3466
0
VERTEX
8
CUT
10
21.1632
20
224.7944
0
VERTEX
8
CUT
10
21.8666
20
224.7939
0
VERTEX
8
CUT
10
22.4673
20
225.2090
0
VERTEX
8
CUT
10
22.7275
20
225.2648
0
VERTEX
8
CUT
10
22.9214
20
225.5228
0
VERTEX
8
CUT
10
23.0554
20
225.6154
0
VERTEX
8
CUT
10
24.4887
20
227.5501
0
VERTEX
8
CUT
10
27.0522
20
231.6611
0
VERTEX
8
CUT
10
26.6928
20
232.0501
0
VERTEX
8
CUT
10
24.9430
20
231.6836
0
VERTEX
8
CUT
10
23.1995
20
231.8417
0
VERTEX
8
CUT
10
22.0467
20
232.4292
0
VERTEX
8
CUT
10
22.0360
20
232.4391
0
VERTEX
8
CUT
10
22.0309
20
232.4439
0
VERTEX
8
CUT
10
21.9816
20
232.4901
0
VERTEX
8
CUT
10
21.8612
20
232.6028
0
VERTEX
8
CUT
10
21.1410
20
233.4849
0
VERTEX
8
CUT
10
20.4465
20
234.9641
0
VERTEX
8
CUT
10
20.3620
20
235.4678
0
VERTEX
8
CUT
10
20.3422
20
236.7683
0
VERTEX
8
CUT
10
20.3855
20
237.0690
0
VERTEX
8
CUT
10
20.6546
20
237.8305
0
VERTEX
8
CUT
10
20.8728
20
238.3092
0
VERTEX
8
CUT
10
21.5410
20
239.1347
0
VERTEX
8
CUT
10
22.4361
20
239.8363
0
VERTEX
8
CUT
10
22.4393
20
239.8383
0
VERTEX
8
CUT
10
22.4434
20
239.8409
0
VERTEX
8
CUT
10
22.4538
20
239.8473
0
SEQEND
0
POLYLINE
8
CUT
66
1
70
1
10
0.0
20
0.0
30
0.0
0
VERTEX
8
CUT
10
34.3232
20
30.5785
0
VERTEX
8
CUT
10
32.9431
20
30.9579
0
VERTEX
8
CUT
10
31.7394
20
31.4946
0
VERTEX
8
CUT
10
31.2503
20
31.7839
0
VERTEX
8
CUT
10
29.7567
20
32.7750
0
VERTEX
8
CUT
10
29.3450
20
32.6414
0
VERTEX
8
CUT
10
29.2939
20
32.2442
0
VERTEX
8
CUT
10
32.1716
20
27.8659
0
VERTEX
8
CUT
10
34.9510
20
24.6995
0
VERTEX
8
CUT
10
37.9920
20
22.0687
0
VERTEX
8
CUT
10
41.2358
20
20.0307
0
VERTEX
8
CUT
10
44.5054
20
18.7212
0
VERTEX
8
CUT
10
46.3726
20
18.4366
0
VERTEX
8
CUT
10
46.6513
20
18.4383
0
VERTEX
8
CUT
10
46.6767
20
18.4338
0
VERTEX
8
CUT
10
46.9405
20
18.4338
0
VERTEX
8
CUT
10
46.9420
20
18.4335
0
VERTEX
8
CUT
10
48.3620
20
18.3183
0
VERTEX
8
CUT
10
49.5049
20
18.4339
0
VERTEX
8
CUT
10
50.5652
20
18.4339
0
VERTEX
8
CUT
10
50.7546
20
18.4639
0
VERTEX
8
CUT
10
50.9300
20
18.4650
0
VERTEX
8
CUT
10
52.0159
20
18.6634
0
VERTEX
8
CUT
10
52.2384
20
18.6986
0
VERTEX
8
CUT
10
52.2691
20
18.7096
0
VERTEX
8
CUT
10
53.0066
20
18.8444
0
VERTEX
8
CUT
10
55.0637
20
19.9593
0
VERTEX
8
CUT
10
56.0410
20
20.7855
0
VERTEX
8
CUT
10
56.7474
20
21.7132
0
VERTEX
8
CUT
10
57.3432
20
23.6053
0
VERTEX
8
CUT
10
57.2661
20
24.7085
0
VERTEX
8
CUT
10
56.9056
20
25.8927
0
VERTEX
8
CUT
10
56.5896
20
26.4857
0
VERTEX
8
CUT
10
56.5497
20
26.6010
0
VERTEX
8
CUT
10
56.4938
20
26.6654
0
VERTEX
8
CUT
10
56.2917
20
27.0446
0
VERTEX
8
CUT
10
54.8744
20
28.5163
0
VERTEX
8
CUT
10
53.0551
20
29.5209
0
VERTEX
8
CUT
10
52.5097
20
29.6508
0
VERTEX
8
CUT
10
52.4785
20
29.6647
0
VERTEX
8
CUT
10
52.3971
20
29.6777
0
VERTEX
8
CUT
10
52.2201
20
29.7198
0
VERTEX
8
CUT
10
52.1771
20
29.7127
0
VERTEX
8
CUT
10
51.7936
20
29.7738
0
VERTEX
8
CUT
10
51.3948
20
29.6436
0
VERTEX
8
CUT
10
51.3182
20
29.1280
0
VERTEX
8
CUT
10
51.2921
20
29.0545
0
VERTEX
8
CUT
10
51.5475
20
25.9308
0
VERTEX
8
CUT
10
51.0469
20
24.3315
0
VERTEX
8
CUT
10
51.0451
20
24.3293
0
VERTEX
8
CUT
10
51.0336
20
24.3158
0
VERTEX
8
CUT
10
50.8750
20
24.1272
0
VERTEX
8
CUT
10
50.7702
20
24.0025
0
VERTEX
8
CUT
10
50.3444
20
23.4964
0
VERTEX
8
CUT
10
50.1308
20
23.3208
0
VERTEX
8
CUT
10
49.3614
20
22.7801
0
VERTEX
8
CUT
10
48.2648
20
22.3712
0
VERTEX
8
CUT
10
47.0925
20
22.2162
0
VERTEX
8
CUT
10
45.9180
20
22.2781
0
VERTEX
8
CUT
10
45.0069
20
22.5243
0
VERTEX
8
CUT
10
44.8980
20
22.5602
0
VERTEX
8
CUT
10
44.8047
20
22.5910
0
VERTEX
8
CUT
10
44.8018
20
22.5919
0
VERTEX
8
CUT
10
44.6989
20
22.6258
0
VERTEX
8
CUT
10
44.2708
20
22.8461
0
VERTEX
8
CUT
10
43.2385
20
23.5259
0
VERTEX
8
CUT
10
43.0024
20
23.7249
0
VERTEX
8
CUT
10
42.7129
20
24.0415
0
VERTEX
8
CUT
10
42.6199
20
24.1433
0
VERTEX
8
CUT
10
42.5207
20
24.2518
0
VERTEX
8
CUT
10
42.4635
20
24.3143
0
VERTEX
8
CUT
10
41.8895
20
25.1054
0
VERTEX
8
CUT
10
41.2822
20
26.4473
0
VERTEX
8
CUT
10
40.9202
20
27.8245
0
VERTEX
8
CUT
10
40.9158
20
27.8830
0
VERTEX
8
CUT
10
40.8934
20
29.0226
0
VERTEX
8
CUT
10
40.9854
20
29.4764
0
VERTEX
8
CUT
10
41.5323
20
31.3016
0
VERTEX
8
CUT
10
41.6614
20
31.5781
0
VERTEX
8
CUT
10
41.6997
20
31.6600
0
VERTEX
8
CUT
10
41.7541
20
31.7765
0
VERTEX
8
CUT
10
41.8949
20
32.0778
0
VERTEX
8
CUT
10
42.7890
20
33.2703
0
VERTEX
8
CUT
10
43.1430
20
33.7386
0
VERTEX
8
CUT
10
43.1928
20
33.8043
0
VERTEX
8
CUT
10
43.1993
20
33.8130
0
VERTEX
8
CUT
10
43.2012
20
33.8155
0
VERTEX
8
CUT
10
45.3023
20
35.2438
0
VERTEX
8
CUT
10
47.8573
20
36.0629
0
VERTEX
8
CUT
10
50.6033
20
36.2133
0
VERTEX
8
CUT
10
53.5757
20
35.6685
0
VERTEX
8
CUT
10
55.1020
20
35.0300
0
VERTEX
8
CUT
10
55.4654
20
35.1933
0
VERTEX
8
CUT
10
55.5103
20
35.5559
0
VERTEX
8
CUT
10
52.9955
20
37.0922
0
VERTEX
8
CUT
10
50.6975
20
38.9726
0
VERTEX
8
CUT
10
41.7570
20
48.2747
0
VERTEX
8
CUT
10
41.3925
20
48.2678
0
VERTEX
8
CUT
10
41.1935
20
47.9624
0
VERTEX
8
CUT
10
41.5143
20
46.1763
0
VERTEX
8
CUT
10
41.3001
20
44.8554
0
VERTEX
8
CUT
10
39.8498
20
43.0370
0
VERTEX
8
CUT
10
38.5856
20
42.2279
0
VERTEX
8
CUT
10
37.0613
20
41.6744
0
VERTEX
8
CUT
10
33.6872
20
41.3786
0
VERTEX
8
CUT
10
33.3533
20
41.0479
0
VERTEX
8
CUT
10
33.5460
20
40.6542
0
VERTEX
8
CUT
10
36.2624
20
39.6087
0
VERTEX
8
CUT
10
38.2200
20
38.4817
0
VERTEX
8
CUT
10
39.5737
20
37.1033
0
VERTEX
8
CUT
10
40.0209
20
36.2895
0
VERTEX
8
CUT
10
40.3119
20
34.6692
0
VERTEX
8
CUT
10
40.2762
20
34.4124
0
VERTEX
8
CUT
10
40.2633
20
34.3194
0
VERTEX
8
CUT
10
40.2356
20
34.1200
0
VERTEX
8
CUT
10
40.1420
20
33.4460
0
VERTEX
8
CUT
10
39.4817
20
32.1080
0
VERTEX
8
CUT
10
39.3557
20
31.9633
0
VERTEX
8
CUT
10
38.0594
20
30.9316
0
VERTEX
8
CUT
10
36.1666
20
30.4349
0
VERTEX
8
CUT
10
34.5243
20
30.5462
0
VERTEX
8
CUT
10
34.4743
20
30.5542
0
VERTEX
8
CUT
10
34.3888
20
30.5679
0
SEQEND
0
POLYLINE
8
CUT
66
1
70
1
10
0.0
20
0.0
30
0.0
0
VERTEX
8
CUT
10
17.9307
20
67.2654
0
VERTEX
8
CUT
10
18.0762
20
64.9356
0
VERTEX
8
CUT
10
18.3696
20
63.5955
0
VERTEX
8
CUT
10
18.3715
20
63.5779
0
VERTEX
8
CUT
10
18.4245
20
63.3447
0
VERTEX
8
CUT
10
19.0445
20
60.5135
0
VERTEX
8
CUT
10
19.4677
20
59.6060
0
VERTEX
8
CUT
10
19.8607
20
58.5502
0
VERTEX
8
CUT
10
20.5122
20
57.3656
0
VERTEX
8
CUT
10
20.8912
20
56.5529
0
VERTEX
8
CUT
10
22.0993
20
54.8494
0
VERTEX
8
CUT
10
23.4540
20
53.3823
0
VERTEX
8
CUT
10
25.8234
20
51.5902
0
VERTEX
8
CUT
10
27.5713
20
50.7710
0
VERTEX
8
CUT
10
29.0576
20
50.4776
0
VERTEX
8
CUT
10
30.2980
20
50.1792
0
VERTEX
8
CUT
10
30.6000
20
50.1732
0
VERTEX
8
CUT
10
30.8604
20
50.1218
0
VERTEX
8
CUT
10
38.3135
20
49.7931
0
VERTEX
8
CUT
10
39.2146
20
49.5680
0
VERTEX
8
CUT
10
40.1730
20
49.0616
0
VERTEX
8
CUT
10
40.5003
20
49.1202
0
VERTEX
8
CUT
10
40.5926
20
49.6623
0
VERTEX
8
CUT
10
35.4784
20
55.9215
0
VERTEX
8
CUT
10
29.6025
20
64.1763
0
VERTEX
8
CUT
10
29.2712
20
64.2306
0
VERTEX
8
CUT
10
29.0375
20
64.0419
0
VERTEX
8
CUT
10
28.7552
20
62.7904
0
VERTEX
8
CUT
10
28.3660
20
62.1414
0
VERTEX
8
CUT
10
27.8165
20
61.4089
0
VERTEX
8
CUT
10
26.9103
20
60.6558
0
VERTEX
8
CUT
10
25.8094
20
60.1605
0
VERTEX
8
CUT
10
23.8228
20
60.0647
0
VERTEX
8
CUT
10
22.8501
20
60.3500
0
VERTEX
8
CUT
10
21.9776
20
60.8422
0
VERTEX
8
CUT
10
20.7441
20
62.1964
0
VERTEX
8
CUT
10
20.3828
20
63.1424
0
VERTEX
8
CUT
10
20.3779
20
63.1857
0
VERTEX
8
CUT
10
20.3737
20
63.2226
0
VERTEX
8
CUT
10
20.3735
20
63.2248
0
VERTEX
8
CUT
10
20.3658
20
63.2930
0
VERTEX
8
CUT
10
20.3151
20
64.9164
0
VERTEX
8
CUT
10
20.3305
20
65.0680
0
VERTEX
8
CUT
10
20.5269
20
65.6805
0
VERTEX
8
CUT
10
21.0077
20
66.7506
0
VERTEX
8
CUT
10
21.0563
20
66.8587
0
VERTEX
8
CUT
10
21.0646
20
66.8771
0
VERTEX
8
CUT
10
21.0658
20
66.8798
0
VERTEX
8
CUT
10
21.7513
20
67.7207
0
VERTEX
8
CUT
10
23.2726
20
68.5637
0
VERTEX
8
CUT
10
24.4705
20
68.7872
0
VERTEX
8
CUT
10
24.9171
20
68.7753
0
VERTEX
8
CUT
10
26.0403
20
68.5719
0
VERTEX
8
CUT
10
27.3684
20
67.9936
0
VERTEX
8
CUT
10
27.7543
20
68.1764
0
VERTEX
8
CUT
10
27.7407
20
68.6031
0
VERTEX
8
CUT
10
25.6675
20
70.7914
0
VERTEX
8
CUT
10
23.8456
20
73.6360
0
VERTEX
8
CUT
10
22.7969
20
74.8926
0
VERTEX
8
CUT
10
22.7496
20
74.9577
0
VERTEX
8
CUT
10
22.7311
20
74.9715
0
VERTEX
8
CUT
10
22.5299
20
75.2125
0
VERTEX
8
CUT
10
22.2017
20
75.3665
0
VERTEX
8
CUT
10
21.9636
20
75.5441
0
VERTEX
8
CUT
10
21.7694
20
75.5693
0
VERTEX
8
CUT
10
21.7588
20
75.5742
0
VERTEX
8
CUT
10
21.7415
20
75.5729
0
VERTEX
8
CUT
10
21.5301
20
75.6002
0
VERTEX
8
CUT
10
21.5243
20
75.5975
0
VERTEX
8
CUT
10
21.5182
20
75.6001
0
VERTEX
8
CUT
10
21.4569
20
75.5660
0
VERTEX
8
CUT
10
21.4169
20
75.5474
0
VERTEX
8
CUT
10
20.9891
20
75.5138
0
VERTEX
8
CUT
10
19.7313
20
74.5814
0
VERTEX
8
CUT
10
18.7736
20
72.7777
0
VERTEX
8
CUT
10
18.3356
20
71.0846
0
VERTEX
8
CUT
10
18.2612
20
70.8351
0
VERTEX
8
CUT
10
18.2563
20
70.7780
0
VERTEX
8
CUT
10
18.1398
20
70.3278
0
SEQEND
0
POLYLINE
8
CUT
66
1
70
1
10
0.0
20
0.0
30
0.0
0
VERTEX
8
CUT
10
63.7981
20
238.2923
0
VERTEX
8
CUT
10
64.5508
20
238.6429
0
VERTEX
8
CUT
10
64.9493
20
238.8132
0
VERTEX
8
CUT
10
68.2450
20
239.1903
0
VERTEX
8
CUT
10
71.6563
20
239.0420
0
VERTEX
8
CUT
10
74.6838
20
238.1596
0
VERTEX
8
CUT
10
77.4494
20
236.4490
0
VERTEX
8
CUT
10
80.3080
20
233.7764
0
VERTEX
8
CUT
10
82.3800
20
231.1838
0
VERTEX
8
CUT
10
84.0583
20
228.3297
0
VERTEX
8
CUT
10
85.3468
20
225.2630
0
VERTEX
8
CUT
10
86.1741
20
222.1309
0
VERTEX
8
CUT
10
86.6277
20
218.9160
0
VERTEX
8
CUT
10
86.5972
20
215.7126
0
VERTEX
8
CUT
10
86.1088
20
212.6948
0
VERTEX
8
CUT
10
85.1335
20
210.0055
0
VERTEX
8
CUT
10
84.2230
20
208.3566
0
VERTEX
8
CUT
10
81.8346
20
205.3795
0
VERTEX
8
CUT
10
81.7344
20
205.2675
0
VERTEX
8
CUT
10
79.7524
20
203.7292
0
VERTEX
8
CUT
10
78.8079
20
203.4527
0
VERTEX
8
CUT
10
75.3310
20
204.7205
0
VERTEX
8
CUT
10
74.8361
20
205.2816
0
VERTEX
8
CUT
10
73.3783
20
207.8609
0
VERTEX
8
CUT
10
73.6050
20
208.5327
0
VERTEX
8
CUT
10
75.3086
20
210.1485
0
VERTEX
8
CUT
10
75.8942
20
210.9591
0
VERTEX
8
CUT
10
76.6558
20
212.7341
0
VERTEX
8
CUT
10
76.6742
20
212.9695
0
VERTEX
8
CUT
10
76.6855
20
213.0013
0
VERTEX
8
CUT
10
76.7992
20
214.1095
0
VERTEX
8
CUT
10
76.7711
20
214.2133
0
VERTEX
8
CUT
10
76.8010
20
214.5970
0
VERTEX
8
CUT
10
76.6348
20
215.5463
0
VERTEX
8
CUT
10
75.7409
20
217.4072
0
VERTEX
8
CUT
10
74.1498
20
218.7278
0
VERTEX
8
CUT
10
73.0477
20
219.1609
0
VERTEX
8
CUT
10
70.6738
20
219.4403
0
VERTEX
8
CUT
10
66.4180
20
218.6104
0
VERTEX
8
CUT
10
66.0005
20
218.7882
0
VERTEX
8
CUT
10
65.8128
20
219.4759
0
VERTEX
8
CUT
10
66.3504
20
221.3140
0
VERTEX
8
CUT
10
67.6142
20
223.1489
0
VERTEX
8
CUT
10
69.3375
20
224.6568
0
VERTEX
8
CUT
10
71.0096
20
225.3293
0
VERTEX
8
CUT
10
72.2482
20
225.5517
0
VERTEX
8
CUT
10
74.7460
20
225.4544
0
VERTEX
8
CUT
10
77.0710
20
224.7689
0
VERTEX
8
CUT
10
78.9408
20
223.6374
0
VERTEX
8
CUT
10
79.2652
20
223.7308
0
VERTEX
8
CUT
10
79.3950
20
224.0037
0
VERTEX
8
CUT
10
79.0245
20
224.8646
0
VERTEX
8
CUT
10
78.2180
20
226.2903
0
VERTEX
8
CUT
10
76.1938
20
228.6579
0
VERTEX
8
CUT
10
75.0201
20
229.6220
0
VERTEX
8
CUT
10
72.4935
20
231.0004
0
VERTEX
8
CUT
10
69.7708
20
231.6222
0
VERTEX
8
CUT
10
68.0374
20
231.5683
0
VERTEX
8
CUT
10
65.7560
20
230.5382
0
VERTEX
8
CUT
10
64.7307
20
229.7069
0
VERTEX
8
CUT
10
63.9719
20
228.7491
0
VERTEX
8
CUT
10
63.6091
20
227.7727
0
VERTEX
8
CUT
10
63.4758
20
226.6003
0
VERTEX
8
CUT
10
62.9472
20
225.7234
0
VERTEX
8
CUT
10
61.9916
20
225.4306
0
VERTEX
8
CUT
10
60.8567
20
225.8148
0
VERTEX
8
CUT
10
59.3798
20
227.1309
0
VERTEX
8
CUT
10
58.5777
20
228.7074
0
VERTEX
8
CUT
10
58.3682
20
230.6822
0
VERTEX
8
CUT
10
58.4565
20
231.8372
0
VERTEX
8
CUT
10
59.1035
20
234.0392
0
VERTEX
8
CUT
10
60.3999
20
235.9143
0
VERTEX
8
CUT
10
61.3210
20
236.7741
0
VERTEX
8
CUT
10
63.3153
20
238.0675
0
VERTEX
8
CUT
10
63.4803
20
238.1443
0
VERTEX
8
CUT
10
63.7112
20
238.2519
0
SEQEND
0
POLYLINE
8
CUT
66
1
70
1
10
0.0
20
0.0
30
0.0
0
VERTEX
8
CUT
10
157.2711
20
252.4575
0
VERTEX
8
CUT
10
157.3555
20
252.6198
0
VERTEX
8
CUT
10
157.6533
20
254.4363
0
VERTEX
8
CUT
10
157.6106
20
254.5157
0
VERTEX
8
CUT
10
157.8729
20
256.1760
0
VERTEX
8
CUT
10
158.1456
20
256.9201
0
VERTEX
8
CUT
10
158.5554
20
257.1058
0
VERTEX
8
CUT
10
159.1534
20
256.5217
0
VERTEX
8
CUT
10
160.1459
20
254.5011
0
VERTEX
8
CUT
10
160.5920
20
253.1772
0
VERTEX
8
CUT
10
161.4149
20
249.7905
0
VERTEX
8
CUT
10
161.4954
20
249.3319
0
VERTEX
8
CUT
10
161.7344
20
246.2473
0
VERTEX
8
CUT
10
161.6746
20
241.7999
0
VERTEX
8
CUT
10
161.2436
20
239.3067
0
VERTEX
8
CUT
10
161.1042
20
238.7301
0
VERTEX
8
CUT
10
161.0957
20
238.6949
0
VERTEX
8
CUT
10
161.0654
20
238.5695
0
VERTEX
8
CUT
10
161.0181
20
238.3739
0
VERTEX
8
CUT
10
160.5864
20
236.9638
0
VERTEX
8
CUT
10
159.8943
20
235.1617
0
VERTEX
8
CUT
10
158.1091
20
231.6804
0
VERTEX
8
CUT
10
155.8092
20
228.4720
0
VERTEX
8
CUT
10
153.5041
20
226.0484
0
VERTEX
8
CUT
10
145.1608
20
218.7459
0
VERTEX
8
CUT
10
143.4952
20
216.6343
0
VERTEX
8
CUT
10
142.0553
20
214.0448
0
VERTEX
8
CUT
10
141.0061
20
211.3943
0
VERTEX
8
CUT
10
140.4458
20
208.7563
0
VERTEX
8
CUT
10
140.3467
20
206.8268
0
VERTEX
8
CUT
10
140.0675
20
205.9428
0
VERTEX
8
CUT
10
139.6952
20
205.7843
0
VERTEX
8
CUT
10
139.0972
20
206.1396
0
VERTEX
8
CUT
10
137.7158
20
208.4362
0
VERTEX
8
CUT
10
136.1028
20
212.7373
0
VERTEX
8
CUT
10
135.4410
20
215.7098
0
VERTEX
8
CUT
10
135.2012
20
218.4187
0
VERTEX
8
CUT
10
135.5661
20
221.5075
0
VERTEX
8
CUT
10
135.9176
20
223.4497
0
VERTEX
8
CUT
10
136.7867
20
226.2401
0
VERTEX
8
CUT
10
138.2884
20
229.3084
0
VERTEX
8
CUT
10
140.3207
20
232.1593
0
VERTEX
8
CUT
10
142.4286
20
234.3356
0
VERTEX
8
CUT
10
145.5629
20
237.0401
0
VERTEX
8
CUT
10
149.0782
20
239.9350
0
VERTEX
8
CUT
10
151.2354
20
241.9435
0
VERTEX
8
CUT
10
151.9308
20
242.7990
0
VERTEX
8
CUT
10
152.4847
20
243.4003
0
VERTEX
8
CUT
10
152.6362
20
243.5502
0
VERTEX
8
CUT
10
152.7091
20
243.6439
0
VERTEX
8
CUT
10
153.5336
20
244.5390
0
VERTEX
8
CUT
10
154.0746
20
245.3978
0
VERTEX
8
CUT
10
154.0773
20
245.4013
0
VERTEX
8
CUT
10
154.0895
20
245.4215
0
VERTEX
8
CUT
10
154.1833
20
245.5703
0
VERTEX
8
CUT
10
154.5462
20
246.0168
0
VERTEX
8
CUT
10
155.7542
20
248.1038
0
VERTEX
8
CUT
10
156.6426
20
250.2564
0
SEQEND
0
POLYLINE
8
CUT
66
1
70
1
10
0.0
20
0.0
30
0.0
0
VERTEX
8
CUT
10
106.4875
20
271.4105
0
VERTEX
8
CUT
10
105.9482
20
270.2491
0
VERTEX
8
CUT
10
105.6299
20
269.7194
0
VERTEX
8
CUT
10
105.3453
20
268.9506
0
VERTEX
8
CUT
10
105.1446
20
268.5184
0
VERTEX
8
CUT
10
104.8652
20
267.6540
0
VERTEX
8
CUT
10
104.7653
20
267.3841
0
VERTEX
8
CUT
10
104.7507
20
267.2999
0
VERTEX
8
CUT
10
104.4885
20
266.4886
0
VERTEX
8
CUT
10
104.1403
20
264.2614
0
VERTEX
8
CUT
10
104.2274
20
261.7435
0
VERTEX
8
CUT
10
104.7779
20
259.2942
0
VERTEX
8
CUT
10
105.8594
20
257.0033
0
VERTEX
8
CUT
10
107.1022
20
255.1148
0
VERTEX
8
CUT
10
107.2795
20
254.2925
0
VERTEX
8
CUT
10
106.6973
20
253.7560
0
VERTEX
8
CUT
10
102.4380
20
251.4019
0
VERTEX
8
CUT
10
100.5628
20
250.0253
0
VERTEX
8
CUT
10
98.9541
20
248.5062
0
VERTEX
8
CUT
10
97.7242
20
246.9806
0
VERTEX
8
CUT
10
96.1147
20
244.1411
0
VERTEX
8
CUT
10
95.2815
20
242.1175
0
VERTEX
8
CUT
10
94.1282
20
238.2958
0
VERTEX
8
CUT
10
93.7307
20
238.0024
0
VERTEX
8
CUT
10
93.0940
20
238.5395
0
VERTEX
8
CUT
10
91.4606
20
242.1091
0
VERTEX
8
CUT
10
90.8593
20
244.2495
0
VERTEX
8
CUT
10
90.4996
20
246.5964
0
VERTEX
8
CUT
10
90.2617
20
251.0876
0
VERTEX
8
CUT
10
90.3521
20
253.8661
0
VERTEX
8
CUT
10
90.8898
20
257.3915
0
VERTEX
8
CUT
10
91.5536
20
259.5747
0
VERTEX
8
CUT
10
92.6590
20
262.2118
0
VERTEX
8
CUT
10
93.0540
20
262.9391
0
VERTEX
8
CUT
10
93.4156
20
263.5164
0
VERTEX
8
CUT
10
93.5319
20
263.7021
0
VERTEX
8
CUT
10
93.7206
20
264.0033
0
VERTEX
8
CUT
10
94.6403
20
265.4716
0
VERTEX
8
CUT
10
95.1721
20
266.2237
0
VERTEX
8
CUT
10
98.6273
20
269.8875
0
VERTEX
8
CUT
10
100.4294
20
271.3419
0
VERTEX
8
CUT
10
100.7185
20
271.5619
0
VERTEX
8
CUT
10
102.8020
20
272.9119
0
VERTEX
8
CUT
10
106.3840
20
274.6128
0
VERTEX
8
CUT
10
107.4238
20
274.9249
0
VERTEX
8
CUT
10
108.1882
20
274.9357
0
VERTEX
8
CUT
10
108.5002
20
274.5940
0
VERTEX
8
CUT
10
108.4384
20
274.2394
0
SEQEND
0
POLYLINE
8
CUT
66
1
70
1
10
0.0
20
0.0
30
0.0
0
VERTEX
8
CUT
10
165.3351
20
117.9932
0
VERTEX
8
CUT
10
165.4026
20
117.8403
0
VERTEX
8
CUT
10
165.8709
20
116.0802
0
VERTEX
8
CUT
10
165.9012
20
114.1403
0
VERTEX
8
CUT
10
165.9006
20
114.1109
0
VERTEX
8
CUT
10
165.9004
20
114.1005
0
VERTEX
8
CUT
10
165.9004
20
114.0979
0
VERTEX
8
CUT
10
165.9002
20
114.0877
0
VERTEX
8
CUT
10
165.8400
20
113.7984
0
VERTEX
8
CUT
10
165.4619
20
112.0414
0
VERTEX
8
CUT
10
164.5589
20
110.1323
0
VERTEX
8
CUT
10
164.4500
20
109.9772
0
VERTEX
8
CUT
10
162.4192
20
107.5369
0
VERTEX
8
CUT
10
162.3943
20
107.5182
0
VERTEX
8
CUT
10
160.6428
20
106.2867
0
VERTEX
8
CUT
10
160.1056
20
106.0265
0
VERTEX
8
CUT
10
157.3047
20
105.2999
0
VERTEX
8
CUT
10
155.3805
20
105.1964
0
VERTEX
8
CUT
10
154.7297
20
105.2306
0
VERTEX
8
CUT
10
153.5898
20
105.3802
0
VERTEX
8
CUT
10
152.8124
20
105.6000
0
VERTEX
8
CUT
10
151.2043
20
106.2283
0
VERTEX
8
CUT
10
149.8347
20
106.9559
0
VERTEX
8
CUT
10
149.4162
20
107.1968
0
VERTEX
8
CUT
10
147.0406
20
109.1566
0
VERTEX
8
CUT
10
146.0647
20
110.2904
0
VERTEX
8
CUT
10
144.9340
20
112.4079
0
VERTEX
8
CUT
10
144.9163
20
112.4721
0
VERTEX
8
CUT
10
144.8955
20
112.5473
0
VERTEX
8
CUT
10
144.8890
20
112.5709
0
VERTEX
8
CUT
10
144.8742
20
112.6244
0
VERTEX
8
CUT
10
144.8215
20
112.9765
0
VERTEX
8
CUT
10
144.8448
20
113.7123
0
VERTEX
8
CUT
10
144.8556
20
114.0530
0
VERTEX
8
CUT
10
144.8629
20
114.2818
0
VERTEX
8
CUT
10
144.8725
20
114.5859
0
VERTEX
8
CUT
10
145.4938
20
116.0314
0
VERTEX
8
CUT
10
146.5754
20
117.5405
0
VERTEX
8
CUT
10
148.7790
20
119.5655
0
VERTEX
8
CUT
10
150.4467
20
120.6971
0
VERTEX
8
CUT
10
152.6801
20
121.7096
0
VERTEX
8
CUT
10
155.4794
20
122.3945
0
VERTEX
8
CUT
10
158.1893
20
122.4839
0
VERTEX
8
CUT
10
160.8099
20
121.9180
0
VERTEX
8
CUT
10
162.4034
20
121.2481
0
VERTEX
8
CUT
10
162.7311
20
121.0680
0
VERTEX
8
CUT
10
162.9816
20
120.8482
0
VERTEX
8
CUT
10
163.5844
20
120.3193
0
VERTEX
8
CUT
10
163.7534
20
120.1711
0
VERTEX
8
CUT
10
163.9402
20
120.0071
0
VERTEX
8
CUT
10
164.2170
20
119.7406
0
VERTEX
8
CUT
10
164.5094
20
119.3505
0
VERTEX
8
CUT
10
164.5319
20
119.3205
0
VERTEX
8
CUT
10
164.5863
20
119.2480
0
VERTEX
8
CUT
10
164.6273
20
119.1932
0
SEQEND
0
POLYLINE
8
CUT
66
1
70
1
10
0.0
20
0.0
30
0.0
0
VERTEX
8
CUT
10
157.3531
20
115.1222
0
VERTEX
8
CUT
10
157.2542
20
115.9571
0
VERTEX
8
CUT
10
156.9020
20
116.4201
0
VERTEX
8
CUT
10
156.5415
20
116.3212
0
VERTEX
8
CUT
10
156.1259
20
115.6780
0
VERTEX
8
CUT
10
155.4555
20
113.9784
0
VERTEX
8
CUT
10
155.3131
20
113.6954
0
VERTEX
8
CUT
10
155.2676
20
113.5020
0
VERTEX
8
CUT
10
155.0810
20
113.0289
0
VERTEX
8
CUT
10
154.7351
20
111.3362
0
VERTEX
8
CUT
10
154.7387
20
111.2558
0
VERTEX
8
CUT
10
154.7375
20
111.2508
0
VERTEX
8
CUT
10
154.7687
20
109.2974
0
VERTEX
8
CUT
10
154.8276
20
109.2677
0
VERTEX
8
CUT
10
154.8298
20
109.2181
0
VERTEX
8
CUT
10
155.0242
20
109.1684
0
VERTEX
8
CUT
10
155.2340
20
109.0625
0
VERTEX
8
CUT
10
155.7851
20
109.5957
0
VERTEX
8
CUT
10
156.0295
20
110.1233
0
VERTEX
8
CUT
10
156.5854
20
111.0792
0
VERTEX
8
CUT
10
156.9505
20
112.1096
0
SEQEND
0
POLYLINE
8
CUT
66
1
70
1
10
0.0
20
0.0
30
0.0
0
VERTEX
8
CUT
10
229.1900
20
120.4863
0
VERTEX
8
CUT
10
230.0061
20
120.1624
0
VERTEX
8
CUT
10
230.2808
20
119.7011
0
VERTEX
8
CUT
10
230.2240
20
118.9637
0
VERTEX
8
CUT
10
229.4660
20
117.4979
0
VERTEX
8
CUT
10
228.1918
20
115.7498
0
VERTEX
8
CUT
10
224.2590
20
111.2500
0
VERTEX
8
CUT
10
222.6494
20
109.0007
0
VERTEX
8
CUT
10
222.1087
20
107.6813
0
VERTEX
8
CUT
10
223.1300
20
106.7340
0
VERTEX
8
CUT
10
223.3762
20
106.1739
0
VERTEX
8
CUT
10
223.0040
20
105.3199
0
VERTEX
8
CUT
10
222.3035
20
104.8623
0
VERTEX
8
CUT
10
221.8233
20
104.8758
0
VERTEX
8
CUT
10
221.3292
20
105.4483
0
VERTEX
8
CUT
10
219.3302
20
106.4063
0
VERTEX
8
CUT
10
218.7868
20
107.0435
0
VERTEX
8
CUT
10
218.4423
20
107.8257
0
VERTEX
8
CUT
10
218.7740
20
109.2498
0
VERTEX
8
CUT
10
220.4800
20
112.3583
0
VERTEX
8
CUT
10
219.2689
20
116.3293
0
VERTEX
8
CUT
10
219.1179
20
116.9449
0
VERTEX
8
CUT
10
218.9949
20
117.2280
0
VERTEX
8
CUT
10
218.6717
20
118.2875
0
VERTEX
8
CUT
10
216.4465
20
121.1090
0
VERTEX
8
CUT
10
216.3180
20
121.6798
0
VERTEX
8
CUT
10
216.5027
20
122.8338
0
VERTEX
8
CUT
10
216.9880
20
124.1714
0
VERTEX
8
CUT
10
217.6436
20
125.1161
0
VERTEX
8
CUT
10
218.3078
20
125.2824
0
VERTEX
8
CUT
10
219.2641
20
124.9517
0
VERTEX
8
CUT
10
220.3309
20
124.2773
0
VERTEX
8
CUT
10
221.6944
20
122.9709
0
VERTEX
8
CUT
10
222.7968
20
121.1628
0
VERTEX
8
CUT
10
223.7688
20
118.4558
0
VERTEX
8
CUT
10
224.0488
20
118.2699
0
VERTEX
8
CUT
10
224.3398
20
118.3462
0
VERTEX
8
CUT
10
224.9785
20
121.9194
0
VERTEX
8
CUT
10
224.6368
20
123.6947
0
VERTEX
8
CUT
10
223.5353
20
126.7052
0
VERTEX
8
CUT
10
223.3454
20
127.8055
0
VERTEX
8
CUT
10
223.5705
20
128.5413
0
VERTEX
8
CUT
10
224.4769
20
128.7301
0
VERTEX
8
CUT
10
227.5649
20
126.3319
0
VERTEX
8
CUT
10
227.7850
20
125.2464
0
VERTEX
8
CUT
10
227.6052
20
120.8040
0
VERTEX
8
CUT
10
227.8807
20
120.5706
0
SEQEND
0
POLYLINE
8
CUT
66
1
70
1
10
0.0
20
0.0
30
0.0
0
VERTEX
8
CUT
10
202.5097
20
186.9590
0
VERTEX
8
CUT
10
203.2699
20
188.8125
0
VERTEX
8
CUT
10
204.4159
20
190.4778
0
VERTEX
8
CUT
10
205.8257
20
191.8552
0
VERTEX
8
CUT
10
208.2783
20
193.2510
0
VERTEX
8
CUT
10
209.9601
20
193.6574
0
VERTEX
8
CUT
10
212.4552
20
193.7174
0
VERTEX
8
CUT
10
213.8319
20
193.4052
0
VERTEX
8
CUT
10
213.9475
20
193.3691
0
VERTEX
8
CUT
10
213.9675
20
193.3629
0
VERTEX
8
CUT
10
213.9701
20
193.3621
0
VERTEX
8
CUT
10
213.9803
20
193.3589
0
VERTEX
8
CUT
10
214.7974
20
192.9543
0
VERTEX
8
CUT
10
216.2266
20
191.7226
0
VERTEX
8
CUT
10
217.1136
20
190.1170
0
VERTEX
8
CUT
10
217.3015
20
188.4269
0
VERTEX
8
CUT
10
216.8844
20
187.1751
0
VERTEX
8
CUT
10
216.0802
20
186.4874
0
VERTEX
8
CUT
10
215.3909
20
186.5190
0
VERTEX
8
CUT
10
214.2978
20
187.1181
0
VERTEX
8
CUT
10
213.3693
20
187.3384
0
VERTEX
8
CUT
10
212.0084
20
187.0764
0
VERTEX
8
CUT
10
211.1650
20
186.5049
0
VERTEX
8
CUT
10
210.6049
20
185.6865
0
VERTEX
8
CUT
10
210.3938
20
184.8068
0
VERTEX
8
CUT
10
210.5054
20
183.8640
0
VERTEX
8
CUT
10
211.0226
20
182.7139
0
VERTEX
8
CUT
10
212.1141
20
181.4863
0
VERTEX
8
CUT
10
212.1175
20
181.4818
0
VERTEX
8
CUT
10
212.1189
20
181.4809
0
VERTEX
8
CUT
10
212.3319
20
181.2414
0
VERTEX
8
CUT
10
213.2501
20
180.7652
0
VERTEX
8
CUT
10
213.5077
20
180.6021
0
VERTEX
8
CUT
10
214.1654
20
180.4873
0
VERTEX
8
CUT
10
214.7487
20
180.3479
0
VERTEX
8
CUT
10
215.1279
20
180.3192
0
VERTEX
8
CUT
10
215.1319
20
180.3185
0
VERTEX
8
CUT
10
215.1340
20
180.3188
0
VERTEX
8
CUT
10
215.5073
20
180.2905
0
VERTEX
8
CUT
10
217.4582
20
180.5769
0
VERTEX
8
CUT
10
219.1931
20
181.3991
0
VERTEX
8
CUT
10
219.7114
20
181.8550
0
VERTEX
8
CUT
10
220.1191
20
182.1805
0
VERTEX
8
CUT
10
220.2347
20
182.3154
0
VERTEX
8
CUT
10
220.5746
20
182.6144
0
VERTEX
8
CUT
10
220.8329
20
183.0135
0
VERTEX
8
CUT
10
220.8660
20
183.0522
0
VERTEX
8
CUT
10
220.8998
20
183.1170
0
VERTEX
8
CUT
10
221.5761
20
184.1618
0
VERTEX
8
CUT
10
221.8370
20
184.9121
0
VERTEX
8
CUT
10
221.8875
20
185.0088
0
VERTEX
8
CUT
10
221.9738
20
185.3056
0
VERTEX
8
CUT
10
222.2169
20
186.0046
0
VERTEX
8
CUT
10
222.3887
20
187.9930
0
VERTEX
8
CUT
10
222.0973
20
190.0874
0
VERTEX
8
CUT
10
221.8848
20
190.6161
0
VERTEX
8
CUT
10
221.8585
20
190.7804
0
VERTEX
8
CUT
10
221.6217
20
191.2706
0
VERTEX
8
CUT
10
221.2515
20
192.1917
0
VERTEX
8
CUT
10
220.5053
20
193.4080
0
VERTEX
8
CUT
10
218.5518
20
195.3492
0
VERTEX
8
CUT
10
216.0570
20
196.6963
0
VERTEX
8
CUT
10
214.5190
20
197.1796
0
VERTEX
8
CUT
10
211.1794
20
197.6732
0
VERTEX
8
CUT
10
208.7594
20
197.6462
0
VERTEX
8
CUT
10
206.2834
20
197.3536
0
VERTEX
8
CUT
10
203.8247
20
196.7639
0
VERTEX
8
CUT
10
201.4053
20
195.9687
0
VERTEX
8
CUT
10
199.0403
20
194.9068
0
VERTEX
8
CUT
10
196.8243
20
193.6384
0
VERTEX
8
CUT
10
194.7250
20
192.1386
0
VERTEX
8
CUT
10
192.8677
20
190.4853
0
VERTEX
8
CUT
10
191.3044
20
188.7195
0
VERTEX
8
CUT
10
190.9031
20
188.0537
0
VERTEX
8
CUT
10
190.7737
20
187.8945
0
VERTEX
8
CUT
10
190.0694
20
186.6965
0
VERTEX
8
CUT
10
190.0347
20
186.6130
0
VERTEX
8
CUT
10
189.5544
20
185.8161
0
VERTEX
8
CUT
10
189.1118
20
184.8060
0
VERTEX
8
CUT
10
188.1621
20
181.2776
0
VERTEX
8
CUT
10
187.5366
20
180.6725
0
VERTEX
8
CUT
10
186.7762
20
181.0932
0
VERTEX
8
CUT
10
185.9174
20
182.3441
0
VERTEX
8
CUT
10
185.0886
20
183.9142
0
VERTEX
8
CUT
10
184.6052
20
185.3724
0
VERTEX
8
CUT
10
184.5904
20
185.6001
0
VERTEX
8
CUT
10
184.5601
20
187.1547
0
VERTEX
8
CUT
10
184.5474
20
187.8032
0
VERTEX
8
CUT
10
184.5380
20
188.2850
0
VERTEX
8
CUT
10
184.5191
20
189.2526
0
VERTEX
8
CUT
10
184.9684
20
191.5114
0
VERTEX
8
CUT
10
186.3232
20
194.2730
0
VERTEX
8
CUT
10
187.8729
20
196.1968
0
VERTEX
8
CUT
10
188.1072
20
196.4732
0
VERTEX
8
CUT
10
189.1470
20
197.4510
0
VERTEX
8
CUT
10
190.3820
20
198.5096
0
VERTEX
8
CUT
10
190.4840
20
198.5807
0
VERTEX
8
CUT
10
190.7018
20
198.7325
0
VERTEX
8
CUT
10
190.8711
20
198.8505
0
VERTEX
8
CUT
10
191.6514
20
199.3944
0
VERTEX
8
CUT
10
191.8614
20
199.5192
0
VERTEX
8
CUT
10
196.3665
20
201.7863
0
VERTEX
8
CUT
10
198.9149
20
202.6944
0
VERTEX
8
CUT
10
199.1638
20
202.7640
0
VERTEX
8
CUT
10
201.6672
20
203.4242
0
VERTEX
8
CUT
10
202.8031
20
203.6196
0
VERTEX
8
CUT
10
204.8719
20
203.9357
0
VERTEX
8
CUT
10
207.0275
20
204.1091
0
VERTEX
8
CUT
10
211.3499
20
204.0215
0
VERTEX
8
CUT
10
211.5128
20
204.0080
0
VERTEX
8
CUT
10
214.1344
20
203.6094
0
VERTEX
8
CUT
10
215.6220
20
203.3216
0
VERTEX
8
CUT
10
218.4866
20
202.3766
0
VERTEX
8
CUT
10
221.1883
20
201.0742
0
VERTEX
8
CUT
10
223.5666
20
199.4486
0
VERTEX
8
CUT
10
225.5931
20
197.5748
0
VERTEX
8
CUT
10
226.0868
20
197.5935
0
VERTEX
8
CUT
10
226.1649
20
198.0813
0
VERTEX
8
CUT
10
224.2794
20
200.5891
0
VERTEX
8
CUT
10
222.4302
20
202.5849
0
VERTEX
8
CUT
10
221.1120
20
203.5541
0
VERTEX
8
CUT
10
220.9630
20
203.8869
0
VERTEX
8
CUT
10
221.1718
20
204.4041
0
VERTEX
8
CUT
10
221.7428
20
204.6143
0
VERTEX
8
CUT
10
222.3958
20
204.5479
0
VERTEX
8
CUT
10
225.2868
20
203.5050
0
VERTEX
8
CUT
10
226.8731
20
202.6905
0
VERTEX
8
CUT
10
227.6002
20
202.7811
0
VERTEX
8
CUT
10
228.4312
20
203.4758
0
VERTEX
8
CUT
10
228.6347
20
206.2981
0
VERTEX
8
CUT
10
233.9825
20
211.2612
0
VERTEX
8
CUT
10
237.0325
20
215.4389
0
VERTEX
8
CUT
10
240.5739
20
214.4603
0
VERTEX
8
CUT
10
240.5845
20
214.5511
0
VERTEX
8
CUT
10
240.6090
20
214.6646
0
VERTEX
8
CUT
10
240.6443
20
214.7752
0
VERTEX
8
CUT
10
240.6902
20
214.8819
0
VERTEX
8
CUT
10
240.7462
20
214.9837
0
VERTEX
8
CUT
10
240.7831
20
215.0376
0
VERTEX
8
CUT
10
240.7837
20
215.0451
0
VERTEX
8
CUT
10
240.8047
20
215.1610
0
VERTEX
8
CUT
10
240.8369
20
215.2743
0
VERTEX
8
CUT
10
240.8801
20
215.3838
0
VERTEX
8
CUT
10
240.9339
20
215.4887
0
VERTEX
8
CUT
10
240.9976
20
215.5877
0
VERTEX
8
CUT
10
241.0567
20
215.6622
0
VERTEX
8
CUT
10
240.9648
20
215.7347
0
VERTEX
8
CUT
10
238.6097
20
216.5433
0
VERTEX
8
CUT
10
238.1702
20
216.9658
0
VERTEX
8
CUT
10
238.1159
20
217.4407
0
VERTEX
8
CUT
10
239.4790
20
221.5877
0
VERTEX
8
CUT
10
239.5168
20
221.6790
0
VERTEX
8
CUT
10
239.5324
20
221.7500
0
VERTEX
8
CUT
10
241.3389
20
227.2462
0
VERTEX
8
CUT
10
241.5404
20
230.4610
0
VERTEX
8
CUT
10
241.5702
20
236.8677
0
VERTEX
8
CUT
10
241.7088
20
237.7271
0
VERTEX
8
CUT
10
242.1720
20
238.0483
0
VERTEX
8
CUT
10
242.8838
20
237.3903
0
VERTEX
8
CUT
10
244.0226
20
235.2925
0
VERTEX
8
CUT
10
244.5118
20
233.8018
0
VERTEX
8
CUT
10
244.7883
20
232.1350
0
VERTEX
8
CUT
10
245.5320
20
230.1348
0
VERTEX
8
CUT
10
246.0392
20
225.9535
0
VERTEX
8
CUT
10
245.9564
20
223.7889
0
VERTEX
8
CUT
10
245.9342
20
223.4233
0
VERTEX
8
CUT
10
245.9049
20
222.9410
0
VERTEX
8
CUT
10
245.8600
20
222.2021
0
VERTEX
8
CUT
10
245.8374
20
221.8307
0
VERTEX
8
CUT
10
245.3751
20
220.8679
0
VERTEX
8
CUT
10
244.1618
20
220.1130
0
VERTEX
8
CUT
10
244.5197
20
218.9289
0
VERTEX
8
CUT
10
244.1955
20
218.1191
0
VERTEX
8
CUT
10
244.5157
20
216.9591
0
VERTEX
8
CUT
10
243.7959
20
215.6023
0
VERTEX
8
CUT
10
243.8356
20
215.5560
0
VERTEX
8
CUT
10
243.9022
20
215.4611
0
VERTEX
8
CUT
10
243.9594
20
215.3602
0
VERTEX
8
CUT
10
244.0066
20
215.2543
0
VERTEX
8
CUT
10
244.0433
20
215.1443
0
VERTEX
8
CUT
10
244.0692
20
215.0313
0
VERTEX
8
CUT
10
244.0841
20
214.9163
0
VERTEX
8
CUT
10
244.0849
20
214.8920
0
VERTEX
8
CUT
10
242.8723
20
212.4461
0
VERTEX
8
CUT
10
242.7706
20
212.4417
0
VERTEX
8
CUT
10
242.6513
20
212.4485
0
VERTEX
8
CUT
10
242.5593
20
212.4630
0
VERTEX
8
CUT
10
242.0270
20
210.9535
0
VERTEX
8
CUT
10
241.4038
20
209.9892
0
VERTEX
8
CUT
10
240.4401
20
209.2092
0
VERTEX
8
CUT
10
239.7999
20
209.2640
0
VERTEX
8
CUT
10
238.5502
20
209.8481
0
VERTEX
8
CUT
10
238.1751
20
209.6991
0
VERTEX
8
CUT
10
238.1077
20
209.3702
0
VERTEX
8
CUT
10
238.8273
20
206.9884
0
VERTEX
8
CUT
10
238.7500
20
206.6321
0
VERTEX
8
CUT
10
238.2120
20
205.8258
0
VERTEX
8
CUT
10
237.9855
20
205.5642
0
VERTEX
8
CUT
10
237.7931
20
205.3420
0
VERTEX
8
CUT
10
237.6078
20
205.1280
0
VERTEX
8
CUT
10
237.4485
20
204.9439
0
VERTEX
8
CUT
10
235.5620
20
202.9135
0
VERTEX
8
CUT
10
235.5470
20
202.4846
0
VERTEX
8
CUT
10
236.0090
20
202.3204
0
VERTEX
8
CUT
10
237.9279
20
203.3708
0
VERTEX
8
CUT
10
239.4403
20
204.3212
0
VERTEX
8
CUT
10
242.3049
20
206.5674
0
VERTEX
8
CUT
10
244.8465
20
209.1116
0
VERTEX
8
CUT
10
246.2677
20
211.0539
0
VERTEX
8
CUT
10
246.5713
20
211.4239
0
VERTEX
8
CUT
10
247.0283
20
212.0935
0
VERTEX
8
CUT
10
248.1642
20
213.6458
0
VERTEX
8
CUT
10
248.9913
20
214.4120
0
VERTEX
8
CUT
10
249.3679
20
214.1438
0
VERTEX
8
CUT
10
249.5239
20
213.6798
0
VERTEX
8
CUT
10
249.4639
20
210.7642
0
VERTEX
8
CUT
10
248.4158
20
206.6779
0
VERTEX
8
CUT
10
247.5164
20
204.4843
0
VERTEX
8
CUT
10
245.1485
20
200.3715
0
VERTEX
8
CUT
10
241.8609
20
196.4786
0
VERTEX
8
CUT
10
235.9547
20
191.2909
0
VERTEX
8
CUT
10
235.8197
20
190.9457
0
VERTEX
8
CUT
10
236.1450
20
190.6090
0
VERTEX
8
CUT
10
240.8784
20
190.5048
0
VERTEX
8
CUT
10
241.3074
20
190.4069
0
VERTEX
8
CUT
10
241.9605
20
190.2579
0
VERTEX
8
CUT
10
242.1527
20
190.2140
0
VERTEX
8
CUT
10
242.7106
20
190.0867
0
VERTEX
8
CUT
10
244.2021
20
189.3447
0
VERTEX
8
CUT
10
245.7740
20
188.2285
0
VERTEX
8
CUT
10
246.4523
20
187.4868
0
VERTEX
8
CUT
10
246.6175
20
186.9429
0
VERTEX
8
CUT
10
246.6009
20
186.7217
0
VERTEX
8
CUT
10
246.3544
20
186.4390
0
VERTEX
8
CUT
10
245.9278
20
186.0559
0
VERTEX
8
CUT
10
243.4049
20
185.1525
0
VERTEX
8
CUT
10
241.7592
20
184.3205
0
VERTEX
8
CUT
10
241.6826
20
184.2893
0
VERTEX
8
CUT
10
241.6180
20
184.2491
0
VERTEX
8
CUT
10
240.7309
20
183.8006
0
VERTEX
8
CUT
10
237.5434
20
181.7174
0
VERTEX
8
CUT
10
235.3714
20
180.3677
0
VERTEX
8
CUT
10
232.4959
20
178.7753
0
VERTEX
8
CUT
10
232.3532
20
178.4741
0
VERTEX
8
CUT
10
232.4959
20
178.1728
0
VERTEX
8
CUT
10
234.1098
20
177.4113
0
VERTEX
8
CUT
10
235.5450
20
176.1214
0
VERTEX
8
CUT
10
235.5564
20
176.1097
0
VERTEX
8
CUT
10
235.8157
20
175.8423
0
VERTEX
8
CUT
10
235.8600
20
175.7967
0
VERTEX
8
CUT
10
235.9570
20
175.6967
0
VERTEX
8
CUT
10
236.8018
20
174.2638
0
VERTEX
8
CUT
10
236.8725
20
173.4138
0
VERTEX
8
CUT
10
236.3321
20
173.0941
0
VERTEX
8
CUT
10
236.0233
20
173.0328
0
VERTEX
8
CUT
10
233.2327
20
172.8474
0
VERTEX
8
CUT
10
232.5991
20
172.8376
0
VERTEX
8
CUT
10
232.2884
20
172.7847
0
VERTEX
8
CUT
10
231.3746
20
172.7240
0
VERTEX
8
CUT
10
231.1925
20
172.6579
0
VERTEX
8
CUT
10
230.9597
20
172.6422
0
VERTEX
8
CUT
10
230.3594
20
172.3558
0
VERTEX
8
CUT
10
228.8277
20
171.8004
0
VERTEX
8
CUT
10
227.6523
20
171.0999
0
VERTEX
8
CUT
10
225.5149
20
169.2303
0
VERTEX
8
CUT
10
220.2332
20
162.8531
0
VERTEX
8
CUT
10
219.7778
20
162.3918
0
VERTEX
8
CUT
10
218.7440
20
161.7032
0
VERTEX
8
CUT
10
218.3322
20
162.0034
0
VERTEX
8
CUT
10
218.2244
20
162.7697
0
VERTEX
8
CUT
10
218.3458
20
164.4211
0
VERTEX
8
CUT
10
219.0290
20
168.1162
0
VERTEX
8
CUT
10
218.5852
20
168.6011
0
VERTEX
8
CUT
10
218.8216
20
169.3502
0
VERTEX
8
CUT
10
221.1361
20
170.7059
0
VERTEX
8
CUT
10
222.6174
20
171.8734
0
VERTEX
8
CUT
10
224.7854
20
174.6041
0
VERTEX
8
CUT
10
225.0886
20
175.1671
0
VERTEX
8
CUT
10
224.9651
20
175.5129
0
VERTEX
8
CUT
10
224.5033
20
175.5585
0
VERTEX
8
CUT
10
222.8016
20
174.3006
0
VERTEX
8
CUT
10
220.8361
20
173.3025
0
VERTEX
8
CUT
10
218.7498
20
172.6161
0
VERTEX
8
CUT
10
216.5419
20
172.2188
0
VERTEX
8
CUT
10
214.3096
20
172.1846
0
VERTEX
8
CUT
10
212.0721
20
172.4530
0
VERTEX
8
CUT
10
209.9271
20
173.0535
0
VERTEX
8
CUT
10
207.8828
20
174.0435
0
VERTEX
8
CUT
10
206.6060
20
174.9644
0
VERTEX
8
CUT
10
204.0406
20
177.6460
0
VERTEX
8
CUT
10
203.1755
20
178.9749
0
VERTEX
8
CUT
10
202.4278
20
180.9164
0
VERTEX
8
CUT
10
202.0533
20
183.0080
0
VERTEX
8
CUT
10
202.0848
20
185.0148
0
SEQEND
0
POLYLINE
8
CUT
66
1
70
1
10
0.0
20
0.0
30
0.0
0
VERTEX
8
CUT
10
173.3965
20
225.4504
0
VERTEX
8
CUT
10
173.9341
20
226.0571
0
VERTEX
8
CUT
10
174.0915
20
226.1161
0
VERTEX
8
CUT
10
174.9551
20
227.0690
0
VERTEX
8
CUT
10
175.9974
20
228.5282
0
VERTEX
8
CUT
10
176.1615
20
229.1026
0
VERTEX
8
CUT
10
176.3366
20
229.3532
0
VERTEX
8
CUT
10
176.4693
20
229.6370
0
VERTEX
8
CUT
10
176.5903
20
229.8255
0
VERTEX
8
CUT
10
178.5355
20
234.2477
0
VERTEX
8
CUT
10
178.9105
20
234.8310
0
VERTEX
8
CUT
10
179.4691
20
235.0010
0
VERTEX
8
CUT
10
179.8000
20
234.6992
0
VERTEX
8
CUT
10
180.1679
20
233.2100
0
VERTEX
8
CUT
10
180.2867
20
230.4166
0
VERTEX
8
CUT
10
180.1318
20
228.1189
0
VERTEX
8
CUT
10
179.7063
20
225.9485
0
VERTEX
8
CUT
10
179.0114
20
223.8725
0
VERTEX
8
CUT
10
178.0724
20
221.8819
0
VERTEX
8
CUT
10
176.8945
20
220.0561
0
VERTEX
8
CUT
10
175.4831
20
218.3401
0
VERTEX
8
CUT
10
173.7933
20
216.7956
0
VERTEX
8
CUT
10
171.1427
20
214.9075
0
VERTEX
8
CUT
10
168.5030
20
213.6491
0
VERTEX
8
CUT
10
161.6386
20
211.3014
0
VERTEX
8
CUT
10
159.2498
20
210.3000
0
VERTEX
8
CUT
10
157.2253
20
209.1099
0
VERTEX
8
CUT
10
155.5264
20
207.7309
0
VERTEX
8
CUT
10
153.7908
20
205.7845
0
VERTEX
8
CUT
10
152.2067
20
203.1664
0
VERTEX
8
CUT
10
151.1322
20
200.2041
0
VERTEX
8
CUT
10
150.8046
20
198.6052
0
VERTEX
8
CUT
10
150.3232
20
193.2801
0
VERTEX
8
CUT
10
149.9467
20
192.9778
0
VERTEX
8
CUT
10
149.3239
20
193.5937
0
VERTEX
8
CUT
10
148.0591
20
195.8189
0
VERTEX
8
CUT
10
147.2946
20
197.7468
0
VERTEX
8
CUT
10
146.6381
20
200.8194
0
VERTEX
8
CUT
10
146.5709
20
202.0207
0
VERTEX
8
CUT
10
146.6261
20
204.1573
0
VERTEX
8
CUT
10
146.8130
20
206.0637
0
VERTEX
8
CUT
10
147.1259
20
207.3130
0
VERTEX
8
CUT
10
147.1270
20
207.3161
0
VERTEX
8
CUT
10
147.1327
20
207.3318
0
VERTEX
8
CUT
10
147.1375
20
207.3450
0
VERTEX
8
CUT
10
147.3497
20
207.9286
0
VERTEX
8
CUT
10
148.0600
20
209.5443
0
VERTEX
8
CUT
10
149.2555
20
211.5838
0
VERTEX
8
CUT
10
151.3852
20
213.9796
0
VERTEX
8
CUT
10
154.2244
20
216.1193
0
VERTEX
8
CUT
10
157.9284
20
217.8486
0
VERTEX
8
CUT
10
164.7110
20
220.2198
0
VERTEX
8
CUT
10
165.8732
20
220.7040
0
VERTEX
8
CUT
10
166.1612
20
220.8059
0
VERTEX
8
CUT
10
166.4764
20
220.9554
0
VERTEX
8
CUT
10
167.9272
20
221.5599
0
VERTEX
8
CUT
10
168.6090
20
221.9666
0
VERTEX
8
CUT
10
169.0077
20
222.1557
0
VERTEX
8
CUT
10
169.7766
20
222.6428
0
VERTEX
8
CUT
10
169.9426
20
222.7293
0
VERTEX
8
CUT
10
170.1051
20
222.8509
0
VERTEX
8
CUT
10
170.3329
20
222.9952
0
VERTEX
8
CUT
10
171.4709
20
223.6742
0
VERTEX
8
CUT
10
172.3941
20
224.4485
0
VERTEX
8
CUT
10
172.4647
20
224.6249
0
SEQEND
0
POLYLINE
8
CUT
66
1
70
1
10
0.0
20
0.0
30
0.0
0
VERTEX
8
CUT
10
172.4439
20
240.8930
0
VERTEX
8
CUT
10
173.1671
20
237.8491
0
VERTEX
8
CUT
10
173.3177
20
234.9514
0
VERTEX
8
CUT
10
172.8995
20
232.2076
0
VERTEX
8
CUT
10
172.8743
20
232.1207
0
VERTEX
8
CUT
10
172.8599
20
232.0711
0
VERTEX
8
CUT
10
172.8500
20
232.0373
0
VERTEX
8
CUT
10
172.8257
20
231.9535
0
VERTEX
8
CUT
10
172.0082
20
229.8119
0
VERTEX
8
CUT
10
171.7513
20
229.3280
0
VERTEX
8
CUT
10
170.6317
20
227.6119
0
VERTEX
8
CUT
10
170.1802
20
227.0821
0
VERTEX
8
CUT
10
168.4153
20
225.3960
0
VERTEX
8
CUT
10
165.9160
20
223.8644
0
VERTEX
8
CUT
10
163.8574
20
223.1187
0
VERTEX
8
CUT
10
161.2948
20
222.8095
0
VERTEX
8
CUT
10
158.7655
20
222.8456
0
VERTEX
8
CUT
10
158.4281
20
223.1444
0
VERTEX
8
CUT
10
158.6840
20
223.6307
0
VERTEX
8
CUT
10
160.9058
20
226.0711
0
VERTEX
8
CUT
10
161.7185
20
226.8737
0
VERTEX
8
CUT
10
162.2574
20
227.5558
0
VERTEX
8
CUT
10
162.6046
20
227.9372
0
VERTEX
8
CUT
10
163.9236
20
229.6478
0
VERTEX
8
CUT
10
165.0121
20
231.4172
0
VERTEX
8
CUT
10
165.3119
20
232.1379
0
VERTEX
8
CUT
10
165.4623
20
232.4065
0
VERTEX
8
CUT
10
165.9202
20
233.6000
0
VERTEX
8
CUT
10
166.5271
20
235.0589
0
VERTEX
8
CUT
10
167.0084
20
237.1027
0
VERTEX
8
CUT
10
167.1168
20
238.4347
0
VERTEX
8
CUT
10
167.1790
20
238.7169
0
VERTEX
8
CUT
10
167.3293
20
240.9962
0
VERTEX
8
CUT
10
167.3288
20
241.0376
0
VERTEX
8
CUT
10
167.3598
20
241.4192
0
VERTEX
8
CUT
10
167.3161
20
242.0214
0
VERTEX
8
CUT
10
167.2985
20
243.3944
0
VERTEX
8
CUT
10
167.1395
20
244.4566
0
VERTEX
8
CUT
10
166.8877
20
247.9282
0
VERTEX
8
CUT
10
167.0629
20
248.4779
0
VERTEX
8
CUT
10
167.4901
20
248.5588
0
VERTEX
8
CUT
10
168.3865
20
247.8699
0
VERTEX
8
CUT
10
170.0729
20
245.7288
0
VERTEX
8
CUT
10
171.1316
20
243.9380
0
SEQEND
0
ENDSEC
0
EOF
