0
SECTION
2
HEADER
9
$ACADVER
1
AC1009
9
$INSUNITS
70
4
0
ENDSEC
0
SECTION
2
TABLES
0
TABLE
2
LAYER
70
1
0
LAYER
2
CUT
70
0
62
7
6
CONTINUOUS
0
ENDTAB
0
ENDSEC
0
SECTION
2
ENTITIES
0
POLYLINE
8
CUT
66
1
70
1
10
0.0
20
0.0
30
0.0
0
VERTEX
8
CUT
10
286.0027
20
299.9107
0
VERTEX
8
CUT
10
297.9653
20
299.8496
0
VERTEX
8
CUT
10
299.3189
20
299.0622
0
VERTEX
8
CUT
10
299.3400
20
299.0423
0
VERTEX
8
CUT
10
299.6094
20
298.3957
0
VERTEX
8
CUT
10
299.7618
20
296.0960
0
VERTEX
8
CUT
10
299.9360
20
267.3332
0
VERTEX
8
CUT
10
300.0000
20
1.6787
0
VERTEX
8
CUT
10
298.4931
20
0.0757
0
VERTEX
8
CUT
10
1.6787
20
0.0000
0
VERTEX
8
CUT
10
0.0000
20
1.6787
0
VERTEX
8
CUT
10
0.0748
20
298.3729
0
VERTEX
8
CUT
10
1.7672
20
299.8511
0
SEQEND
0
POLYLINE
8
CUT
66
1
70
1
10
0.0
20
0.0
30
0.0
0
VERTEX
8
CUT
10
236.2568
20
279.6540
0
VERTEX
8
CUT
10
236.8432
20
281.0006
0
VERTEX
8
CUT
10
238.4524
20
283.2358
0
VERTEX
8
CUT
10
240.6882
20
285.1772
0
VERTEX
8
CUT
10
242.0247
20
286.0166
0
VERTEX
8
CUT
10
243.4424
20
286.7083
0
VERTEX
8
CUT
10
246.4322
20
287.6703
0
VERTEX
8
CUT
10
248.8437
20
287.9678
0
VERTEX
8
CUT
10
251.8675
20
288.0584
0
VERTEX
8
CUT
10
256.2350
20
287.8200
0
VERTEX
8
CUT
10
259.6050
20
287.0112
0
VERTEX
8
CUT
10
261.8013
20
286.1115
0
VERTEX
8
CUT
10
263.9472
20
284.9163
0
VERTEX
8
CUT
10
265.9292
20
283.5020
0
VERTEX
8
CUT
10
267.7896
20
281.8488
0
VERTEX
8
CUT
10
271.0350
20
277.9782
0
VERTEX
8
CUT
10
272.7820
20
275.0578
0
VERTEX
8
CUT
10
273.0578
20
274.8765
0
VERTEX
8
CUT
10
273.3443
20
274.9481
0
VERTEX
8
CUT
10
273.5024
20
275.2378
0
VERTEX
8
CUT
10
273.2854
20
280.4877
0
VERTEX
8
CUT
10
273.5299
20
283.4035
0
VERTEX
8
CUT
10
274.0340
20
284.9854
0
VERTEX
8
CUT
10
274.7232
20
286.0636
0
VERTEX
8
CUT
10
275.4174
20
286.7311
0
VERTEX
8
CUT
10
275.9564
20
287.0332
0
VERTEX
8
CUT
10
276.9576
20
287.1949
0
VERTEX
8
CUT
10
279.5085
20
286.8484
0
VERTEX
8
CUT
10
281.5388
20
285.8633
0
VERTEX
8
CUT
10
282.5127
20
285.1666
0
VERTEX
8
CUT
10
284.3291
20
283.3220
0
VERTEX
8
CUT
10
286.0318
20
280.5450
0
VERTEX
8
CUT
10
286.7032
20
278.6960
0
VERTEX
8
CUT
10
287.0401
20
276.8518
0
VERTEX
8
CUT
10
287.1027
20
274.9192
0
VERTEX
8
CUT
10
286.8619
20
273.0924
0
VERTEX
8
CUT
10
286.2768
20
271.2520
0
VERTEX
8
CUT
10
285.4381
20
269.5468
0
VERTEX
8
CUT
10
283.4452
20
266.6880
0
VERTEX
8
CUT
10
282.8378
20
265.4417
0
VERTEX
8
CUT
10
282.4909
20
264.0258
0
VERTEX
8
CUT
10
282.4325
20
262.3394
0
VERTEX
8
CUT
10
283.0834
20
257.8051
0
VERTEX
8
CUT
10
286.9243
20
242.9745
0
VERTEX
8
CUT
10
287.5519
20
239.5014
0
VERTEX
8
CUT
10
287.9684
20
233.4220
0
VERTEX
8
CUT
10
287.8205
20
230.7306
0
VERTEX
8
CUT
10
287.4023
20
228.1181
0
VERTEX
8
CUT
10
286.3802
20
224.6505
0
VERTEX
8
CUT
10
285.5732
20
222.7357
0
VERTEX
8
CUT
10
284.5492
20
220.9244
0
VERTEX
8
CUT
10
282.6267
20
218.3955
0
VERTEX
8
CUT
10
282.1410
20
217.3031
0
VERTEX
8
CUT
10
283.0445
20
214.7207
0
VERTEX
8
CUT
10
286.4974
20
206.9845
0
VERTEX
8
CUT
10
287.6705
20
205.2146
0
VERTEX
8
CUT
10
288.1176
20
204.9920
0
VERTEX
8
CUT
10
288.6264
20
205.1212
0
VERTEX
8
CUT
10
288.8683
20
205.4593
0
VERTEX
8
CUT
10
289.0388
20
209.0061
0
VERTEX
8
CUT
10
289.2471
20
231.8356
0
VERTEX
8
CUT
10
289.1578
20
275.6658
0
VERTEX
8
CUT
10
289.0388
20
285.1555
0
VERTEX
8
CUT
10
288.8071
20
288.7146
0
VERTEX
8
CUT
10
288.5247
20
288.8758
0
VERTEX
8
CUT
10
285.7953
20
289.0384
0
VERTEX
8
CUT
10
278.2260
20
289.1280
0
VERTEX
8
CUT
10
226.1517
20
289.0983
0
VERTEX
8
CUT
10
219.2392
20
288.8574
0
VERTEX
8
CUT
10
217.8855
20
288.6203
0
VERTEX
8
CUT
10
217.0928
20
288.0425
0
VERTEX
8
CUT
10
216.9072
20
287.6056
0
VERTEX
8
CUT
10
217.0004
20
286.9678
0
VERTEX
8
CUT
10
218.2475
20
285.7049
0
VERTEX
8
CUT
10
226.1774
20
280.7838
0
VERTEX
8
CUT
10
235.4242
20
274.0994
0
VERTEX
8
CUT
10
235.7935
20
274.0959
0
VERTEX
8
CUT
10
235.9940
20
274.3641
0
VERTEX
8
CUT
10
236.0317
20
278.0330
0
SEQEND
0
POLYLINE
8
CUT
66
1
70
1
10
0.0
20
0.0
30
0.0
0
VERTEX
8
CUT
10
226.4619
20
18.6120
0
VERTEX
8
CUT
10
223.2280
20
16.6370
0
VERTEX
8
CUT
10
218.8237
20
14.5511
0
VERTEX
8
CUT
10
217.1707
20
13.1902
0
VERTEX
8
CUT
10
217.0103
20
12.6307
0
VERTEX
8
CUT
10
217.2098
20
11.9105
0
VERTEX
8
CUT
10
217.9656
20
11.2833
0
VERTEX
8
CUT
10
221.2024
20
11.0808
0
VERTEX
8
CUT
10
240.7378
20
10.8422
0
VERTEX
8
CUT
10
277.8678
20
10.9017
0
VERTEX
8
CUT
10
285.8837
20
11.0511
0
VERTEX
8
CUT
10
288.5412
20
11.2266
0
VERTEX
8
CUT
10
288.8305
20
11.3862
0
VERTEX
8
CUT
10
289.0983
20
20.5527
0
VERTEX
8
CUT
10
289.1876
20
52.9799
0
VERTEX
8
CUT
10
289.0685
20
91.5419
0
VERTEX
8
CUT
10
288.9863
20
94.8769
0
VERTEX
8
CUT
10
288.7507
20
95.2848
0
VERTEX
8
CUT
10
287.8558
20
95.4208
0
VERTEX
8
CUT
10
287.4245
20
95.1589
0
VERTEX
8
CUT
10
287.1052
20
94.6502
0
VERTEX
8
CUT
10
282.4241
20
84.3972
0
VERTEX
8
CUT
10
282.1657
20
83.4138
0
VERTEX
8
CUT
10
282.5650
20
82.1485
0
VERTEX
8
CUT
10
284.6663
20
79.3474
0
VERTEX
8
CUT
10
286.1415
20
76.4827
0
VERTEX
8
CUT
10
287.1625
20
73.1726
0
VERTEX
8
CUT
10
287.9097
20
68.1628
0
VERTEX
8
CUT
10
287.8203
20
62.8317
0
VERTEX
8
CUT
10
287.4284
20
59.8133
0
VERTEX
8
CUT
10
285.9393
20
52.8447
0
VERTEX
8
CUT
10
283.2308
20
42.8144
0
VERTEX
8
CUT
10
282.4592
20
38.1533
0
VERTEX
8
CUT
10
282.5164
20
35.7828
0
VERTEX
8
CUT
10
282.8049
20
34.5616
0
VERTEX
8
CUT
10
283.3963
20
33.4164
0
VERTEX
8
CUT
10
286.0599
20
29.6561
0
VERTEX
8
CUT
10
286.8965
20
26.9094
0
VERTEX
8
CUT
10
287.0460
20
23.9481
0
VERTEX
8
CUT
10
286.8591
20
22.0987
0
VERTEX
8
CUT
10
286.2800
20
20.4565
0
VERTEX
8
CUT
10
284.9421
20
18.0018
0
VERTEX
8
CUT
10
283.7632
20
16.4988
0
VERTEX
8
CUT
10
282.3844
20
15.1471
0
VERTEX
8
CUT
10
280.9262
20
14.1145
0
VERTEX
8
CUT
10
279.4582
20
13.4241
0
VERTEX
8
CUT
10
277.9978
20
13.0171
0
VERTEX
8
CUT
10
276.6858
20
13.0432
0
VERTEX
8
CUT
10
275.4477
20
13.5471
0
VERTEX
8
CUT
10
274.7605
20
14.1653
0
VERTEX
8
CUT
10
274.2023
20
15.0044
0
VERTEX
8
CUT
10
273.5017
20
17.3646
0
VERTEX
8
CUT
10
273.2559
20
20.5624
0
VERTEX
8
CUT
10
273.5170
20
24.7983
0
VERTEX
8
CUT
10
273.3908
20
25.0713
0
VERTEX
8
CUT
10
273.0693
20
25.1690
0
VERTEX
8
CUT
10
272.8125
20
25.0126
0
VERTEX
8
CUT
10
270.3182
20
21.1261
0
VERTEX
8
CUT
10
267.8420
20
18.3517
0
VERTEX
8
CUT
10
265.0258
20
15.9910
0
VERTEX
8
CUT
10
261.9250
20
14.1724
0
VERTEX
8
CUT
10
258.3193
20
12.7579
0
VERTEX
8
CUT
10
255.8242
20
12.2102
0
VERTEX
8
CUT
10
251.9458
20
11.9119
0
VERTEX
8
CUT
10
247.8710
20
12.2098
0
VERTEX
8
CUT
10
244.2932
20
13.0487
0
VERTEX
8
CUT
10
242.6836
20
13.6691
0
VERTEX
8
CUT
10
240.0341
20
15.2766
0
VERTEX
8
CUT
10
238.9072
20
16.3071
0
VERTEX
8
CUT
10
237.5179
20
17.9435
0
VERTEX
8
CUT
10
236.3477
20
20.2237
0
VERTEX
8
CUT
10
236.0037
20
22.0973
0
VERTEX
8
CUT
10
235.8089
20
24.8095
0
VERTEX
8
CUT
10
235.5860
20
25.0968
0
VERTEX
8
CUT
10
235.2229
20
25.0748
0
VERTEX
8
CUT
10
230.1451
20
21.1571
0
SEQEND
0
POLYLINE
8
CUT
66
1
70
1
10
0.0
20
0.0
30
0.0
0
VERTEX
8
CUT
10
243.8045
20
141.6928
0
VERTEX
8
CUT
10
256.6304
20
141.9606
0
VERTEX
8
CUT
10
261.9468
20
142.2872
0
VERTEX
8
CUT
10
268.7887
20
143.0307
0
VERTEX
8
CUT
10
274.9567
20
143.8948
0
VERTEX
8
CUT
10
281.0239
20
145.0290
0
VERTEX
8
CUT
10
281.7774
20
145.3146
0
VERTEX
8
CUT
10
282.0526
20
145.6184
0
VERTEX
8
CUT
10
282.3084
20
148.0618
0
VERTEX
8
CUT
10
282.1304
20
158.7072
0
VERTEX
8
CUT
10
281.8321
20
162.5534
0
VERTEX
8
CUT
10
281.4400
20
164.9198
0
VERTEX
8
CUT
10
281.1311
20
165.3063
0
VERTEX
8
CUT
10
280.5299
20
165.1640
0
VERTEX
8
CUT
10
271.0413
20
159.3491
0
VERTEX
8
CUT
10
264.1099
20
155.7938
0
VERTEX
8
CUT
10
259.2178
20
153.5569
0
VERTEX
8
CUT
10
249.0335
20
149.5665
0
VERTEX
8
CUT
10
238.7286
20
146.3706
0
VERTEX
8
CUT
10
228.8721
20
144.1671
0
VERTEX
8
CUT
10
222.1843
20
143.1272
0
VERTEX
8
CUT
10
220.9593
20
142.6806
0
VERTEX
8
CUT
10
220.8401
20
142.2704
0
VERTEX
8
CUT
10
221.2170
20
141.8542
0
VERTEX
8
CUT
10
223.9684
20
141.6038
0
SEQEND
0
POLYLINE
8
CUT
66
1
70
1
10
0.0
20
0.0
30
0.0
0
VERTEX
8
CUT
10
19.4448
20
172.1163
0
VERTEX
8
CUT
10
18.2569
20
163.5642
0
VERTEX
8
CUT
10
17.8696
20
158.7362
0
VERTEX
8
CUT
10
17.7213
20
153.5363
0
VERTEX
8
CUT
10
17.7809
20
147.1410
0
VERTEX
8
CUT
10
18.1670
20
137.8726
0
VERTEX
8
CUT
10
19.0580
20
129.5809
0
VERTEX
8
CUT
10
19.7416
20
125.5663
0
VERTEX
8
CUT
10
21.5845
20
117.2715
0
VERTEX
8
CUT
10
22.8016
20
112.8475
0
VERTEX
8
CUT
10
26.5289
20
101.7577
0
VERTEX
8
CUT
10
31.2277
20
90.9954
0
VERTEX
8
CUT
10
36.8191
20
80.6184
0
VERTEX
8
CUT
10
43.2247
20
70.7431
0
VERTEX
8
CUT
10
50.4194
20
61.4354
0
VERTEX
8
CUT
10
58.2977
20
52.8416
0
VERTEX
8
CUT
10
66.7688
20
45.0522
0
VERTEX
8
CUT
10
75.8081
20
38.1813
0
VERTEX
8
CUT
10
83.2638
20
33.4092
0
VERTEX
8
CUT
10
90.9119
20
29.1998
0
VERTEX
8
CUT
10
98.8197
20
25.5124
0
VERTEX
8
CUT
10
107.0203
20
22.3514
0
VERTEX
8
CUT
10
115.4351
20
19.7358
0
VERTEX
8
CUT
10
124.1161
20
17.6853
0
VERTEX
8
CUT
10
133.0070
20
16.1695
0
VERTEX
8
CUT
10
144.0228
20
15.1304
0
VERTEX
8
CUT
10
153.9580
20
15.1900
0
VERTEX
8
CUT
10
163.7788
20
15.5771
0
VERTEX
8
CUT
10
173.6179
20
16.9758
0
VERTEX
8
CUT
10
181.4152
20
18.6954
0
VERTEX
8
CUT
10
189.0561
20
20.8354
0
VERTEX
8
CUT
10
196.5194
20
23.4215
0
VERTEX
8
CUT
10
203.7729
20
26.4233
0
VERTEX
8
CUT
10
210.7903
20
29.8716
0
VERTEX
8
CUT
10
217.5980
20
33.7355
0
VERTEX
8
CUT
10
224.1721
20
38.0478
0
VERTEX
8
CUT
10
230.9029
20
43.1403
0
VERTEX
8
CUT
10
234.3507
20
46.0533
0
VERTEX
8
CUT
10
241.1613
20
52.3291
0
VERTEX
8
CUT
10
247.3353
20
58.7108
0
VERTEX
8
CUT
10
250.0095
20
61.8300
0
VERTEX
8
CUT
10
255.7926
20
69.2533
0
VERTEX
8
CUT
10
260.9820
20
76.9040
0
VERTEX
8
CUT
10
265.6632
20
84.8650
0
VERTEX
8
CUT
10
269.7959
20
93.0432
0
VERTEX
8
CUT
10
273.3240
20
101.4037
0
VERTEX
8
CUT
10
276.2983
20
109.9969
0
VERTEX
8
CUT
10
278.7135
20
118.7936
0
VERTEX
8
CUT
10
280.4964
20
127.7396
0
VERTEX
8
CUT
10
281.9504
20
138.7436
0
VERTEX
8
CUT
10
281.9267
20
141.0049
0
VERTEX
8
CUT
10
281.6774
20
141.4510
0
VERTEX
8
CUT
10
279.6564
20
141.2806
0
VERTEX
8
CUT
10
271.8789
20
139.4037
0
VERTEX
8
CUT
10
267.0310
20
138.4760
0
VERTEX
8
CUT
10
261.9325
20
137.7009
0
VERTEX
8
CUT
10
251.3015
20
136.5991
0
VERTEX
8
CUT
10
240.6875
20
136.1515
0
VERTEX
8
CUT
10
235.6181
20
136.1811
0
VERTEX
8
CUT
10
230.1481
20
136.4201
0
VERTEX
8
CUT
10
222.7594
20
137.1026
0
VERTEX
8
CUT
10
222.3830
20
136.9911
0
VERTEX
8
CUT
10
222.2840
20
136.6045
0
VERTEX
8
CUT
10
222.6140
20
136.3219
0
VERTEX
8
CUT
10
259.3029
20
127.3945
0
VERTEX
8
CUT
10
271.8411
20
124.8927
0
VERTEX
8
CUT
10
272.7792
20
124.4741
0
VERTEX
8
CUT
10
272.8670
20
124.0504
0
VERTEX
8
CUT
10
271.9909
20
123.6783
0
VERTEX
8
CUT
10
269.0471
20
123.5847
0
VERTEX
8
CUT
10
261.8979
20
124.0017
0
VERTEX
8
CUT
10
257.7089
20
124.4804
0
VERTEX
8
CUT
10
248.3485
20
125.9711
0
VERTEX
8
CUT
10
238.1345
20
128.0854
0
VERTEX
8
CUT
10
229.6940
20
130.1425
0
VERTEX
8
CUT
10
228.1320
20
130.3973
0
VERTEX
8
CUT
10
227.8292
20
130.2707
0
VERTEX
8
CUT
10
228.1424
20
124.5415
0
VERTEX
8
CUT
10
227.8078
20
121.1299
0
VERTEX
8
CUT
10
228.2391
20
120.8435
0
VERTEX
8
CUT
10
229.8649
20
121.3510
0
VERTEX
8
CUT
10
230.7316
20
121.4040
0
VERTEX
8
CUT
10
231.0294
20
121.0454
0
VERTEX
8
CUT
10
230.9094
20
120.1563
0
VERTEX
8
CUT
10
229.9068
20
117.9823
0
VERTEX
8
CUT
10
228.7198
20
116.1561
0
VERTEX
8
CUT
10
224.0212
20
110.6550
0
VERTEX
8
CUT
10
222.7450
20
108.8054
0
VERTEX
8
CUT
10
222.5252
20
107.8531
0
VERTEX
8
CUT
10
223.6836
20
107.4317
0
VERTEX
8
CUT
10
223.9121
20
106.8115
0
VERTEX
8
CUT
10
223.6512
20
105.9188
0
VERTEX
8
CUT
10
222.9917
20
104.8972
0
VERTEX
8
CUT
10
220.5427
20
102.0816
0
VERTEX
8
CUT
10
214.9248
20
96.7108
0
VERTEX
8
CUT
10
214.9090
20
96.4165
0
VERTEX
8
CUT
10
215.1385
20
96.1802
0
VERTEX
8
CUT
10
218.5600
20
95.3135
0
VERTEX
8
CUT
10
219.0816
20
94.7547
0
VERTEX
8
CUT
10
218.8887
20
94.0995
0
VERTEX
8
CUT
10
213.6048
20
89.4916
0
VERTEX
8
CUT
10
210.9726
20
87.8169
0
VERTEX
8
CUT
10
208.4867
20
86.7476
0
VERTEX
8
CUT
10
208.4299
20
86.2540
0
VERTEX
8
CUT
10
209.3933
20
85.4623
0
VERTEX
8
CUT
10
209.4669
20
85.1633
0
VERTEX
8
CUT
10
209.2651
20
84.8819
0
VERTEX
8
CUT
10
207.8574
20
84.3427
0
VERTEX
8
CUT
10
205.5901
20
83.9157
0
VERTEX
8
CUT
10
205.5997
20
83.3846
0
VERTEX
8
CUT
10
207.8289
20
81.6204
0
VERTEX
8
CUT
10
207.8870
20
81.0423
0
VERTEX
8
CUT
10
207.5386
20
80.7424
0
VERTEX
8
CUT
10
205.9248
20
80.1978
0
VERTEX
8
CUT
10
203.2251
20
79.9883
0
VERTEX
8
CUT
10
201.6014
20
80.2366
0
VERTEX
8
CUT
10
199.3147
20
81.3141
0
VERTEX
8
CUT
10
198.9069
20
81.1534
0
VERTEX
8
CUT
10
199.1287
20
79.4579
0
VERTEX
8
CUT
10
200.0115
20
77.6104
0
VERTEX
8
CUT
10
202.0553
20
75.2505
0
VERTEX
8
CUT
10
205.1058
20
73.1217
0
VERTEX
8
CUT
10
205.2033
20
72.7231
0
VERTEX
8
CUT
10
204.8269
20
72.2213
0
VERTEX
8
CUT
10
203.2080
20
71.6852
0
VERTEX
8
CUT
10
200.9646
20
71.5896
0
VERTEX
8
CUT
10
198.5366
20
71.9793
0
VERTEX
8
CUT
10
197.0702
20
72.4364
0
VERTEX
8
CUT
10
196.8260
20
72.2120
0
VERTEX
8
CUT
10
196.8630
20
71.8481
0
VERTEX
8
CUT
10
198.8172
20
70.2393
0
VERTEX
8
CUT
10
199.0715
20
69.8527
0
VERTEX
8
CUT
10
198.9811
20
69.4428
0
VERTEX
8
CUT
10
198.1428
20
69.1490
0
VERTEX
8
CUT
10
194.2283
20
69.4448
0
VERTEX
8
CUT
10
193.8389
20
69.1807
0
VERTEX
8
CUT
10
193.9569
20
68.7579
0
VERTEX
8
CUT
10
195.7077
20
67.7328
0
VERTEX
8
CUT
10
197.2820
20
67.0798
0
VERTEX
8
CUT
10
200.7782
20
66.1029
0
VERTEX
8
CUT
10
201.2343
20
65.7963
0
VERTEX
8
CUT
10
201.3683
20
65.3983
0
VERTEX
8
CUT
10
200.6307
20
64.6622
0
VERTEX
8
CUT
10
199.0995
20
64.0026
0
VERTEX
8
CUT
10
196.0891
20
63.2870
0
VERTEX
8
CUT
10
192.9612
20
62.9456
0
VERTEX
8
CUT
10
192.5797
20
62.6406
0
VERTEX
8
CUT
10
192.6349
20
61.8048
0
VERTEX
8
CUT
10
193.0438
20
60.8423
0
VERTEX
8
CUT
10
195.9005
20
57.3441
0
VERTEX
8
CUT
10
196.2472
20
56.5020
0
VERTEX
8
CUT
10
195.5808
20
56.0806
0
VERTEX
8
CUT
10
193.9392
20
55.9684
0
VERTEX
8
CUT
10
193.6703
20
55.6704
0
VERTEX
8
CUT
10
194.4614
20
44.8941
0
VERTEX
8
CUT
10
194.1611
20
38.1424
0
VERTEX
8
CUT
10
193.1192
20
32.0994
0
VERTEX
8
CUT
10
192.3572
20
29.5714
0
VERTEX
8
CUT
10
191.5009
20
27.5392
0
VERTEX
8
CUT
10
190.5082
20
26.0990
0
VERTEX
8
CUT
10
189.3939
20
25.2005
0
VERTEX
8
CUT
10
187.7712
20
25.0159
0
VERTEX
8
CUT
10
185.6523
20
25.6568
0
VERTEX
8
CUT
10
182.8263
20
27.7777
0
VERTEX
8
CUT
10
179.6003
20
30.7352
0
VERTEX
8
CUT
10
175.0600
20
35.7834
0
VERTEX
8
CUT
10
161.8432
20
52.2451
0
VERTEX
8
CUT
10
159.2580
20
55.0978
0
VERTEX
8
CUT
10
157.2997
20
56.9430
0
VERTEX
8
CUT
10
156.9303
20
56.9769
0
VERTEX
8
CUT
10
156.7001
20
56.6861
0
VERTEX
8
CUT
10
156.9966
20
54.8609
0
VERTEX
8
CUT
10
156.9155
20
54.4004
0
VERTEX
8
CUT
10
156.5832
20
54.1113
0
VERTEX
8
CUT
10
155.7546
20
54.1256
0
VERTEX
8
CUT
10
153.5698
20
55.1911
0
VERTEX
8
CUT
10
150.8759
20
57.3757
0
VERTEX
8
CUT
10
148.6736
20
60.0853
0
VERTEX
8
CUT
10
147.0824
20
62.8864
0
VERTEX
8
CUT
10
140.2343
20
63.6999
0
VERTEX
8
CUT
10
135.5224
20
64.8836
0
VERTEX
8
CUT
10
134.9098
20
64.5746
0
VERTEX
8
CUT
10
131.4955
20
61.4862
0
VERTEX
8
CUT
10
130.2295
20
60.6111
0
VERTEX
8
CUT
10
129.9225
20
60.6692
0
VERTEX
8
CUT
10
129.7031
20
61.1220
0
VERTEX
8
CUT
10
129.4757
20
63.7761
0
VERTEX
8
CUT
10
129.1390
20
64.0831
0
VERTEX
8
CUT
10
125.0428
20
61.9302
0
VERTEX
8
CUT
10
122.9215
20
61.3813
0
VERTEX
8
CUT
10
122.2808
20
61.3828
0
VERTEX
8
CUT
10
121.8157
20
61.6186
0
VERTEX
8
CUT
10
121.7450
20
62.3811
0
VERTEX
8
CUT
10
124.1924
20
66.3941
0
VERTEX
8
CUT
10
124.4094
20
67.0364
0
VERTEX
8
CUT
10
124.0676
20
67.3864
0
VERTEX
8
CUT
10
122.6193
20
66.4869
0
VERTEX
8
CUT
10
119.4028
20
63.7768
0
VERTEX
8
CUT
10
104.0646
20
49.2433
0
VERTEX
8
CUT
10
97.8714
20
44.1517
0
VERTEX
8
CUT
10
95.1532
20
42.2690
0
VERTEX
8
CUT
10
90.1844
20
39.6319
0
VERTEX
8
CUT
10
85.6444
20
38.2445
0
VERTEX
8
CUT
10
83.6553
20
38.0595
0
VERTEX
8
CUT
10
81.8565
20
38.2109
0
VERTEX
8
CUT
10
80.2069
20
38.6892
0
VERTEX
8
CUT
10
78.6241
20
39.4919
0
VERTEX
8
CUT
10
77.1941
20
40.6472
0
VERTEX
8
CUT
10
75.8618
20
42.1308
0
VERTEX
8
CUT
10
74.6762
20
43.9566
0
VERTEX
8
CUT
10
72.4950
20
49.5139
0
VERTEX
8
CUT
10
71.2348
20
54.6139
0
VERTEX
8
CUT
10
70.2802
20
61.2386
0
VERTEX
8
CUT
10
69.3859
20
71.3550
0
VERTEX
8
CUT
10
69.5057
20
80.6309
0
VERTEX
8
CUT
10
70.3209
20
88.7551
0
VERTEX
8
CUT
10
68.5959
20
92.8371
0
VERTEX
8
CUT
10
68.0203
20
95.6399
0
VERTEX
8
CUT
10
67.8983
20
98.6550
0
VERTEX
8
CUT
10
68.4873
20
103.2308
0
VERTEX
8
CUT
10
66.0198
20
105.3941
0
VERTEX
8
CUT
10
64.0394
20
107.5555
0
VERTEX
8
CUT
10
62.5886
20
109.7041
0
VERTEX
8
CUT
10
61.9121
20
111.4856
0
VERTEX
8
CUT
10
62.0888
20
111.9376
0
VERTEX
8
CUT
10
62.5368
20
112.1489
0
VERTEX
8
CUT
10
66.7874
20
111.8870
0
VERTEX
8
CUT
10
67.1494
20
112.0353
0
VERTEX
8
CUT
10
67.2266
20
112.3871
0
VERTEX
8
CUT
10
64.4709
20
114.8940
0
VERTEX
8
CUT
10
61.8299
20
117.7480
0
VERTEX
8
CUT
10
60.0247
20
120.4900
0
VERTEX
8
CUT
10
59.0241
20
123.1566
0
VERTEX
8
CUT
10
59.2203
20
123.6596
0
VERTEX
8
CUT
10
59.6327
20
123.8243
0
VERTEX
8
CUT
10
63.9576
20
122.5098
0
VERTEX
8
CUT
10
65.2566
20
122.3596
0
VERTEX
8
CUT
10
65.5317
20
122.5455
0
VERTEX
8
CUT
10
65.5745
20
122.8396
0
VERTEX
8
CUT
10
64.6685
20
123.9879
0
VERTEX
8
CUT
10
59.0804
20
129.6651
0
VERTEX
8
CUT
10
57.2244
20
131.9092
0
VERTEX
8
CUT
10
56.0238
20
134.0662
0
VERTEX
8
CUT
10
54.8884
20
137.9826
0
VERTEX
8
CUT
10
55.0543
20
138.8374
0
VERTEX
8
CUT
10
55.5202
20
139.0715
0
VERTEX
8
CUT
10
60.0496
20
137.5744
0
VERTEX
8
CUT
10
61.0120
20
137.4537
0
VERTEX
8
CUT
10
61.3356
20
137.8259
0
VERTEX
8
CUT
10
56.7784
20
143.2842
0
VERTEX
8
CUT
10
54.9278
20
146.2300
0
VERTEX
8
CUT
10
54.2929
20
147.6593
0
VERTEX
8
CUT
10
53.6083
20
150.4874
0
VERTEX
8
CUT
10
53.4838
20
152.9702
0
VERTEX
8
CUT
10
53.6756
20
154.2704
0
VERTEX
8
CUT
10
54.0492
20
154.6745
0
VERTEX
8
CUT
10
54.8692
20
154.5443
0
VERTEX
8
CUT
10
57.6321
20
152.5209
0
VERTEX
8
CUT
10
59.9749
20
151.3304
0
VERTEX
8
CUT
10
60.3959
20
151.3099
0
VERTEX
8
CUT
10
60.6446
20
151.5685
0
VERTEX
8
CUT
10
60.4660
20
152.9267
0
VERTEX
8
CUT
10
59.5901
20
155.1250
0
VERTEX
8
CUT
10
58.8338
20
156.4247
0
VERTEX
8
CUT
10
56.9343
20
158.6119
0
VERTEX
8
CUT
10
55.7631
20
159.5527
0
VERTEX
8
CUT
10
53.1140
20
161.0098
0
VERTEX
8
CUT
10
51.7407
20
161.4441
0
VERTEX
8
CUT
10
49.1051
20
161.8828
0
VERTEX
8
CUT
10
48.3364
20
162.3475
0
VERTEX
8
CUT
10
48.5335
20
163.2569
0
VERTEX
8
CUT
10
49.3919
20
164.3081
0
VERTEX
8
CUT
10
50.6667
20
165.4268
0
VERTEX
8
CUT
10
52.1262
20
166.3203
0
VERTEX
8
CUT
10
54.2733
20
167.1784
0
VERTEX
8
CUT
10
58.7389
20
167.4624
0
VERTEX
8
CUT
10
59.0050
20
167.7280
0
VERTEX
8
CUT
10
58.9541
20
168.0991
0
VERTEX
8
CUT
10
57.2893
20
171.4105
0
VERTEX
8
CUT
10
47.3145
20
176.0489
0
VERTEX
8
CUT
10
37.6317
20
181.1734
0
VERTEX
8
CUT
10
31.9522
20
184.7006
0
VERTEX
8
CUT
10
24.2706
20
190.0186
0
VERTEX
8
CUT
10
23.7848
20
189.8630
0
VERTEX
8
CUT
10
23.0374
20
188.0080
0
VERTEX
8
CUT
10
20.8441
20
179.2917
0
SEQEND
0
POLYLINE
8
CUT
66
1
70
1
10
0.0
20
0.0
30
0.0
0
VERTEX
8
CUT
10
270.1389
20
236.6839
0
VERTEX
8
CUT
10
270.6540
20
236.7575
0
VERTEX
8
CUT
10
271.6583
20
238.5976
0
VERTEX
8
CUT
10
272.4942
20
239.5255
0
VERTEX
8
CUT
10
273.4525
20
240.1760
0
VERTEX
8
CUT
10
274.5359
20
240.5576
0
VERTEX
8
CUT
10
275.6628
20
240.6182
0
VERTEX
8
CUT
10
276.7581
20
240.3965
0
VERTEX
8
CUT
10
277.8177
20
239.8644
0
VERTEX
8
CUT
10
279.1929
20
238.4928
0
VERTEX
8
CUT
10
279.7989
20
237.3477
0
VERTEX
8
CUT
10
279.9543
20
236.1386
0
VERTEX
8
CUT
10
279.4104
20
234.2939
0
VERTEX
8
CUT
10
278.6157
20
233.0317
0
VERTEX
8
CUT
10
277.1636
20
231.8725
0
VERTEX
8
CUT
10
275.9425
20
231.5674
0
VERTEX
8
CUT
10
274.1304
20
231.4565
0
VERTEX
8
CUT
10
273.8225
20
231.0624
0
VERTEX
8
CUT
10
275.8979
20
227.3133
0
VERTEX
8
CUT
10
277.1610
20
225.6099
0
VERTEX
8
CUT
10
278.1853
20
224.9857
0
VERTEX
8
CUT
10
278.9534
20
225.1549
0
VERTEX
8
CUT
10
279.4989
20
225.5181
0
VERTEX
8
CUT
10
280.7613
20
227.0766
0
VERTEX
8
CUT
10
281.5668
20
229.2062
0
VERTEX
8
CUT
10
281.9193
20
231.7842
0
VERTEX
8
CUT
10
281.7989
20
234.6950
0
VERTEX
8
CUT
10
281.2934
20
237.6768
0
VERTEX
8
CUT
10
280.3863
20
240.5697
0
VERTEX
8
CUT
10
279.0617
20
243.2472
0
VERTEX
8
CUT
10
277.4029
20
245.4617
0
VERTEX
8
CUT
10
275.1645
20
247.5207
0
VERTEX
8
CUT
10
272.8804
20
248.7484
0
VERTEX
8
CUT
10
271.5004
20
249.1637
0
VERTEX
8
CUT
10
268.0432
20
249.6693
0
VERTEX
8
CUT
10
261.9297
20
249.9981
0
VERTEX
8
CUT
10
260.5313
20
250.2928
0
VERTEX
8
CUT
10
260.1052
20
250.1198
0
VERTEX
8
CUT
10
260.1178
20
249.6912
0
VERTEX
8
CUT
10
264.3133
20
244.5547
0
SEQEND
0
POLYLINE
8
CUT
66
1
70
1
10
0.0
20
0.0
30
0.0
0
VERTEX
8
CUT
10
271.0011
20
50.3067
0
VERTEX
8
CUT
10
273.2314
20
51.3549
0
VERTEX
8
CUT
10
275.8433
20
52.9787
0
VERTEX
8
CUT
10
278.0475
20
55.2411
0
VERTEX
8
CUT
10
278.9543
20
56.5615
0
VERTEX
8
CUT
10
280.5114
20
59.7702
0
VERTEX
8
CUT
10
281.4749
20
62.8629
0
VERTEX
8
CUT
10
281.8623
20
65.8115
0
VERTEX
8
CUT
10
281.8317
20
68.8769
0
VERTEX
8
CUT
10
281.4744
20
71.5309
0
VERTEX
8
CUT
10
280.5778
20
73.7221
0
VERTEX
8
CUT
10
279.0928
20
75.4053
0
VERTEX
8
CUT
10
278.2463
20
75.5844
0
VERTEX
8
CUT
10
277.1596
20
74.6603
0
VERTEX
8
CUT
10
275.6752
20
72.5625
0
VERTEX
8
CUT
10
273.8922
20
69.3907
0
VERTEX
8
CUT
10
274.1769
20
68.9981
0
VERTEX
8
CUT
10
276.1779
20
68.7838
0
VERTEX
8
CUT
10
277.7367
20
68.2739
0
VERTEX
8
CUT
10
278.9197
20
67.2856
0
VERTEX
8
CUT
10
279.6116
20
65.9024
0
VERTEX
8
CUT
10
279.9281
20
64.4153
0
VERTEX
8
CUT
10
279.5034
20
62.5975
0
VERTEX
8
CUT
10
278.8577
20
61.4487
0
VERTEX
8
CUT
10
278.0516
20
60.6389
0
VERTEX
8
CUT
10
276.9952
20
60.1592
0
VERTEX
8
CUT
10
275.2410
20
59.9168
0
VERTEX
8
CUT
10
274.0929
20
60.0735
0
VERTEX
8
CUT
10
272.3286
20
61.1744
0
VERTEX
8
CUT
10
271.4136
20
62.3339
0
VERTEX
8
CUT
10
270.9038
20
63.5128
0
VERTEX
8
CUT
10
270.3925
20
63.5839
0
VERTEX
8
CUT
10
260.3005
20
50.3274
0
VERTEX
8
CUT
10
260.2873
20
49.9558
0
VERTEX
8
CUT
10
260.6305
20
49.7400
0
VERTEX
8
CUT
10
263.4200
20
50.0316
0
SEQEND
0
POLYLINE
8
CUT
66
1
70
1
10
0.0
20
0.0
30
0.0
0
VERTEX
8
CUT
10
229.3204
20
158.2838
0
VERTEX
8
CUT
10
237.1443
20
163.0439
0
VERTEX
8
CUT
10
244.4502
20
168.0927
0
VERTEX
8
CUT
10
247.9001
20
170.7096
0
VERTEX
8
CUT
10
253.1002
20
175.0177
0
VERTEX
8
CUT
10
257.4214
20
179.0708
0
VERTEX
8
CUT
10
263.9245
20
185.8709
0
VERTEX
8
CUT
10
269.6426
20
192.7202
0
VERTEX
8
CUT
10
270.8800
20
193.9779
0
VERTEX
8
CUT
10
271.0961
20
193.9081
0
VERTEX
8
CUT
10
271.3483
20
193.3507
0
VERTEX
8
CUT
10
271.0395
20
192.2697
0
VERTEX
8
CUT
10
270.2202
20
190.6595
0
VERTEX
8
CUT
10
267.5700
20
186.2822
0
VERTEX
8
CUT
10
263.8983
20
181.1765
0
VERTEX
8
CUT
10
258.9585
20
175.2797
0
VERTEX
8
CUT
10
251.9924
20
168.5220
0
VERTEX
8
CUT
10
244.0126
20
162.0363
0
VERTEX
8
CUT
10
235.6754
20
156.3194
0
VERTEX
8
CUT
10
228.5338
20
152.3443
0
VERTEX
8
CUT
10
223.1889
20
149.8361
0
VERTEX
8
CUT
10
219.9057
20
148.5434
0
VERTEX
8
CUT
10
219.5796
20
148.1461
0
VERTEX
8
CUT
10
219.5491
20
147.6290
0
VERTEX
8
CUT
10
220.1195
20
147.2783
0
VERTEX
8
CUT
10
234.1379
20
150.6508
0
VERTEX
8
CUT
10
241.1922
20
152.5560
0
VERTEX
8
CUT
10
253.7915
20
156.5973
0
VERTEX
8
CUT
10
259.6054
20
158.8333
0
VERTEX
8
CUT
10
270.6852
20
163.8534
0
VERTEX
8
CUT
10
277.1475
20
167.2481
0
VERTEX
8
CUT
10
280.8702
20
169.5663
0
VERTEX
8
CUT
10
280.0805
20
174.8166
0
VERTEX
8
CUT
10
278.4157
20
182.3398
0
VERTEX
8
CUT
10
276.3941
20
189.6848
0
VERTEX
8
CUT
10
274.0157
20
196.8513
0
VERTEX
8
CUT
10
271.2723
20
203.8586
0
VERTEX
8
CUT
10
268.1506
20
210.6362
0
VERTEX
8
CUT
10
264.7112
20
217.2480
0
VERTEX
8
CUT
10
260.8757
20
223.6420
0
VERTEX
8
CUT
10
254.4240
20
232.9795
0
VERTEX
8
CUT
10
251.9089
20
236.0291
0
VERTEX
8
CUT
10
250.8474
20
236.9711
0
VERTEX
8
CUT
10
250.4999
20
236.9635
0
VERTEX
8
CUT
10
249.9914
20
236.6251
0
VERTEX
8
CUT
10
248.2010
20
234.8327
0
VERTEX
8
CUT
10
246.9724
20
233.3022
0
VERTEX
8
CUT
10
245.7445
20
231.2367
0
VERTEX
8
CUT
10
246.2770
20
225.0075
0
VERTEX
8
CUT
10
246.0997
20
221.9173
0
VERTEX
8
CUT
10
245.5207
20
218.8068
0
VERTEX
8
CUT
10
244.5865
20
215.8038
0
VERTEX
8
CUT
10
243.2364
20
212.8389
0
VERTEX
8
CUT
10
241.4976
20
209.8748
0
VERTEX
8
CUT
10
239.3936
20
206.9705
0
VERTEX
8
CUT
10
236.3245
20
203.3044
0
VERTEX
8
CUT
10
236.5203
20
202.9158
0
VERTEX
8
CUT
10
236.9580
20
202.9447
0
VERTEX
8
CUT
10
239.7600
20
204.7619
0
VERTEX
8
CUT
10
241.7884
20
206.3792
0
VERTEX
8
CUT
10
244.8747
20
209.4668
0
VERTEX
8
CUT
10
248.7666
20
214.6670
0
VERTEX
8
CUT
10
249.3681
20
215.1253
0
VERTEX
8
CUT
10
249.7750
20
214.8717
0
VERTEX
8
CUT
10
249.9409
20
214.1937
0
VERTEX
8
CUT
10
249.8815
20
212.3843
0
VERTEX
8
CUT
10
249.4563
20
209.8881
0
VERTEX
8
CUT
10
248.7635
20
207.3341
0
VERTEX
8
CUT
10
247.1401
20
203.4328
0
VERTEX
8
CUT
10
244.9976
20
199.9214
0
VERTEX
8
CUT
10
243.6577
20
198.2155
0
VERTEX
8
CUT
10
240.4700
20
194.9384
0
VERTEX
8
CUT
10
236.4828
20
191.3441
0
VERTEX
8
CUT
10
236.8030
20
190.9037
0
VERTEX
8
CUT
10
241.1351
20
190.6800
0
VERTEX
8
CUT
10
243.1743
20
189.9774
0
VERTEX
8
CUT
10
245.5312
20
188.5645
0
VERTEX
8
CUT
10
246.4853
20
187.6318
0
VERTEX
8
CUT
10
246.8219
20
186.7432
0
VERTEX
8
CUT
10
246.6607
20
186.4189
0
VERTEX
8
CUT
10
245.8506
20
185.8840
0
VERTEX
8
CUT
10
243.6339
20
185.0883
0
VERTEX
8
CUT
10
241.0726
20
183.7917
0
VERTEX
8
CUT
10
232.9675
20
178.7442
0
VERTEX
8
CUT
10
232.9927
20
178.2253
0
VERTEX
8
CUT
10
235.1222
20
176.7859
0
VERTEX
8
CUT
10
236.5509
20
175.2387
0
VERTEX
8
CUT
10
237.0999
20
174.1397
0
VERTEX
8
CUT
10
237.0709
20
173.2021
0
VERTEX
8
CUT
10
236.5775
20
172.8990
0
VERTEX
8
CUT
10
232.5991
20
172.8376
0
VERTEX
8
CUT
10
231.0407
20
172.5721
0
VERTEX
8
CUT
10
227.9469
20
171.0371
0
VERTEX
8
CUT
10
225.7176
20
169.2255
0
VERTEX
8
CUT
10
223.9905
20
166.9808
0
VERTEX
8
CUT
10
223.3244
20
165.6229
0
VERTEX
8
CUT
10
221.5178
20
159.4551
0
VERTEX
8
CUT
10
220.4001
20
156.7121
0
VERTEX
8
CUT
10
219.0885
20
154.5871
0
VERTEX
8
CUT
10
218.3983
20
153.8087
0
VERTEX
8
CUT
10
217.0603
20
152.8130
0
VERTEX
8
CUT
10
216.9317
20
152.4398
0
VERTEX
8
CUT
10
217.2186
20
152.1334
0
VERTEX
8
CUT
10
218.2682
20
152.4000
0
SEQEND
0
POLYLINE
8
CUT
66
1
70
1
10
0.0
20
0.0
30
0.0
0
VERTEX
8
CUT
10
257.9800
20
252.4783
0
VERTEX
8
CUT
10
258.2620
20
252.7614
0
VERTEX
8
CUT
10
258.2797
20
254.1711
0
VERTEX
8
CUT
10
258.5414
20
255.1345
0
VERTEX
8
CUT
10
258.9570
20
255.9482
0
VERTEX
8
CUT
10
260.2170
20
257.2381
0
VERTEX
8
CUT
10
262.1270
20
258.1139
0
VERTEX
8
CUT
10
265.3701
20
258.6284
0
VERTEX
8
CUT
10
265.6622
20
258.9443
0
VERTEX
8
CUT
10
265.4850
20
259.3364
0
VERTEX
8
CUT
10
263.0631
20
260.3861
0
VERTEX
8
CUT
10
261.8991
20
261.1311
0
VERTEX
8
CUT
10
260.1702
20
262.9282
0
VERTEX
8
CUT
10
259.6914
20
263.8883
0
VERTEX
8
CUT
10
259.4741
20
264.8964
0
VERTEX
8
CUT
10
259.5271
20
265.9638
0
VERTEX
8
CUT
10
259.9072
20
267.0367
0
VERTEX
8
CUT
10
260.5862
20
268.0869
0
VERTEX
8
CUT
10
261.5229
20
268.8722
0
VERTEX
8
CUT
10
262.6181
20
269.3931
0
VERTEX
8
CUT
10
263.9512
20
269.6545
0
VERTEX
8
CUT
10
265.2705
20
269.6232
0
VERTEX
8
CUT
10
266.7064
20
269.3180
0
VERTEX
8
CUT
10
268.1668
20
268.7401
0
VERTEX
8
CUT
10
269.8584
20
267.7591
0
VERTEX
8
CUT
10
270.2387
20
267.8806
0
VERTEX
8
CUT
10
270.3236
20
268.2367
0
VERTEX
8
CUT
10
268.7623
20
270.6708
0
VERTEX
8
CUT
10
265.2349
20
274.9072
0
VERTEX
8
CUT
10
262.9624
20
277.0308
0
VERTEX
8
CUT
10
259.6173
20
279.3494
0
VERTEX
8
CUT
10
257.1756
20
280.5113
0
VERTEX
8
CUT
10
253.8822
20
281.4743
0
VERTEX
8
CUT
10
250.7281
20
281.6239
0
VERTEX
8
CUT
10
247.6930
20
281.2469
0
VERTEX
8
CUT
10
246.3385
20
280.7791
0
VERTEX
8
CUT
10
244.7596
20
279.7193
0
VERTEX
8
CUT
10
243.5123
20
278.3633
0
VERTEX
8
CUT
10
243.0043
20
277.3054
0
VERTEX
8
CUT
10
242.8534
20
275.8918
0
VERTEX
8
CUT
10
243.1656
20
274.3540
0
VERTEX
8
CUT
10
243.8599
20
272.9005
0
VERTEX
8
CUT
10
244.7170
20
271.9284
0
VERTEX
8
CUT
10
246.6496
20
270.8042
0
VERTEX
8
CUT
10
247.5484
20
270.5799
0
VERTEX
8
CUT
10
248.2375
20
270.6551
0
VERTEX
8
CUT
10
248.4138
20
271.0037
0
VERTEX
8
CUT
10
248.1851
20
274.0385
0
VERTEX
8
CUT
10
248.9934
20
275.9671
0
VERTEX
8
CUT
10
250.5339
20
277.3168
0
VERTEX
8
CUT
10
251.9704
20
277.8367
0
VERTEX
8
CUT
10
253.4254
20
277.9628
0
VERTEX
8
CUT
10
254.8572
20
277.6847
0
VERTEX
8
CUT
10
256.1202
20
277.1156
0
VERTEX
8
CUT
10
257.3185
20
276.1762
0
VERTEX
8
CUT
10
258.1880
20
275.0637
0
VERTEX
8
CUT
10
258.8339
20
273.6790
0
VERTEX
8
CUT
10
259.1720
20
271.2496
0
VERTEX
8
CUT
10
258.7494
20
268.9175
0
VERTEX
8
CUT
10
258.0206
20
267.5078
0
VERTEX
8
CUT
10
256.8857
20
266.1784
0
VERTEX
8
CUT
10
255.4351
20
264.9664
0
VERTEX
8
CUT
10
254.5956
20
264.4826
0
VERTEX
8
CUT
10
252.7947
20
263.8765
0
VERTEX
8
CUT
10
250.6849
20
263.5794
0
VERTEX
8
CUT
10
247.9383
20
263.5128
0
VERTEX
8
CUT
10
247.6143
20
263.1107
0
VERTEX
8
CUT
10
248.0297
20
262.5104
0
VERTEX
8
CUT
10
257.5970
20
252.5926
0
SEQEND
0
POLYLINE
8
CUT
66
1
70
1
10
0.0
20
0.0
30
0.0
0
VERTEX
8
CUT
10
252.1401
20
36.2366
0
VERTEX
8
CUT
10
253.5090
20
35.9283
0
VERTEX
8
CUT
10
255.8365
20
34.8064
0
VERTEX
8
CUT
10
257.6268
20
33.0511
0
VERTEX
8
CUT
10
258.3464
20
31.8980
0
VERTEX
8
CUT
10
258.9856
20
30.1948
0
VERTEX
8
CUT
10
259.1701
20
28.5041
0
VERTEX
8
CUT
10
258.9456
20
26.7755
0
VERTEX
8
CUT
10
258.3730
20
25.3048
0
VERTEX
8
CUT
10
257.4424
20
23.9738
0
VERTEX
8
CUT
10
256.2227
20
22.9674
0
VERTEX
8
CUT
10
254.7703
20
22.2979
0
VERTEX
8
CUT
10
253.0481
20
22.0374
0
VERTEX
8
CUT
10
252.0083
20
22.1697
0
VERTEX
8
CUT
10
250.2662
20
22.9205
0
VERTEX
8
CUT
10
248.8729
20
24.3032
0
VERTEX
8
CUT
10
248.1827
20
26.0090
0
VERTEX
8
CUT
10
248.4420
20
28.9839
0
VERTEX
8
CUT
10
248.2763
20
29.3285
0
VERTEX
8
CUT
10
247.0790
20
29.3644
0
VERTEX
8
CUT
10
246.2635
20
29.0986
0
VERTEX
8
CUT
10
244.5518
20
27.8453
0
VERTEX
8
CUT
10
243.3291
20
26.1186
0
VERTEX
8
CUT
10
242.9691
20
25.1425
0
VERTEX
8
CUT
10
242.8308
20
24.1284
0
VERTEX
8
CUT
10
243.2544
20
22.2165
0
VERTEX
8
CUT
10
243.7927
20
21.3309
0
VERTEX
8
CUT
10
245.3789
20
19.8935
0
VERTEX
8
CUT
10
247.7141
20
18.8239
0
VERTEX
8
CUT
10
249.1834
20
18.4673
0
VERTEX
8
CUT
10
251.6355
20
18.4068
0
VERTEX
8
CUT
10
255.6172
20
19.0212
0
VERTEX
8
CUT
10
257.6790
20
19.7083
0
VERTEX
8
CUT
10
260.6789
20
21.2514
0
VERTEX
8
CUT
10
263.6928
20
23.6713
0
VERTEX
8
CUT
10
266.0348
20
26.0412
0
VERTEX
8
CUT
10
268.3315
20
28.8148
0
VERTEX
8
CUT
10
270.2324
20
31.6875
0
VERTEX
8
CUT
10
270.1255
20
32.0382
0
VERTEX
8
CUT
10
269.7745
20
32.1446
0
VERTEX
8
CUT
10
266.7919
20
30.7208
0
VERTEX
8
CUT
10
264.2574
20
30.3456
0
VERTEX
8
CUT
10
262.0626
20
30.8113
0
VERTEX
8
CUT
10
261.1288
20
31.3715
0
VERTEX
8
CUT
10
260.3526
20
32.1159
0
VERTEX
8
CUT
10
259.7244
20
33.2099
0
VERTEX
8
CUT
10
259.4695
20
34.3741
0
VERTEX
8
CUT
10
259.5961
20
35.5882
0
VERTEX
8
CUT
10
260.0601
20
36.7306
0
VERTEX
8
CUT
10
260.8324
20
37.8121
0
VERTEX
8
CUT
10
261.9045
20
38.7629
0
VERTEX
8
CUT
10
263.2147
20
39.5855
0
VERTEX
8
CUT
10
265.2760
20
40.4029
0
VERTEX
8
CUT
10
265.4672
20
40.7982
0
VERTEX
8
CUT
10
265.2060
20
41.1098
0
VERTEX
8
CUT
10
262.1029
20
41.7653
0
VERTEX
8
CUT
10
260.0799
20
42.9605
0
VERTEX
8
CUT
10
258.6887
20
44.6020
0
VERTEX
8
CUT
10
258.3113
20
45.5499
0
VERTEX
8
CUT
10
258.1706
20
46.7671
0
VERTEX
8
CUT
10
257.8763
20
47.0360
0
VERTEX
8
CUT
10
257.5540
20
46.9583
0
VERTEX
8
CUT
10
256.4583
20
45.8895
0
VERTEX
8
CUT
10
247.7279
20
36.9471
0
VERTEX
8
CUT
10
247.6717
20
36.5782
0
VERTEX
8
CUT
10
247.9516
20
36.3313
0
VERTEX
8
CUT
10
250.6382
20
36.3926
0
SEQEND
0
POLYLINE
8
CUT
66
1
70
1
10
0.0
20
0.0
30
0.0
0
VERTEX
8
CUT
10
239.5168
20
221.6790
0
VERTEX
8
CUT
10
239.9337
20
223.5849
0
VERTEX
8
CUT
10
239.7551
20
224.2996
0
VERTEX
8
CUT
10
239.4573
20
224.0613
0
VERTEX
8
CUT
10
239.0999
20
223.2573
0
VERTEX
8
CUT
10
238.5639
20
221.6194
0
VERTEX
8
CUT
10
237.1643
20
218.7308
0
VERTEX
8
CUT
10
236.5091
20
216.8845
0
VERTEX
8
CUT
10
234.7819
20
214.7106
0
VERTEX
8
CUT
10
233.6801
20
212.8941
0
VERTEX
8
CUT
10
233.3823
20
212.1198
0
VERTEX
8
CUT
10
233.5312
20
211.6731
0
VERTEX
8
CUT
10
234.2459
20
211.9709
0
VERTEX
8
CUT
10
235.3775
20
213.3705
0
VERTEX
8
CUT
10
237.7896
20
217.5099
0
SEQEND
0
POLYLINE
8
CUT
66
1
70
1
10
0.0
20
0.0
30
0.0
0
VERTEX
8
CUT
10
236.9856
20
230.1959
0
VERTEX
8
CUT
10
237.2536
20
230.5235
0
VERTEX
8
CUT
10
236.4793
20
231.5657
0
VERTEX
8
CUT
10
235.5562
20
232.0124
0
VERTEX
8
CUT
10
233.7694
20
232.1911
0
VERTEX
8
CUT
10
232.6676
20
231.9529
0
VERTEX
8
CUT
10
231.9826
20
231.5062
0
VERTEX
8
CUT
10
230.9999
20
230.1065
0
VERTEX
8
CUT
10
230.7021
20
229.0643
0
VERTEX
8
CUT
10
230.7617
20
228.7069
0
VERTEX
8
CUT
10
230.9404
20
228.6771
0
VERTEX
8
CUT
10
232.6973
20
230.2554
0
VERTEX
8
CUT
10
233.6205
20
230.8212
0
VERTEX
8
CUT
10
234.6330
20
230.9701
0
SEQEND
0
POLYLINE
8
CUT
66
1
70
1
10
0.0
20
0.0
30
0.0
0
VERTEX
8
CUT
10
236.7473
20
240.0231
0
VERTEX
8
CUT
10
236.8962
20
240.0826
0
VERTEX
8
CUT
10
236.8665
20
240.3804
0
VERTEX
8
CUT
10
236.4495
20
240.8867
0
VERTEX
8
CUT
10
235.7348
20
241.3036
0
VERTEX
8
CUT
10
234.1565
20
241.3929
0
VERTEX
8
CUT
10
233.1143
20
241.0951
0
VERTEX
8
CUT
10
232.4293
20
240.5591
0
VERTEX
8
CUT
10
231.7146
20
239.4870
0
VERTEX
8
CUT
10
231.4466
20
238.5043
0
VERTEX
8
CUT
10
231.8933
20
238.1470
0
VERTEX
8
CUT
10
233.0249
20
239.3977
0
VERTEX
8
CUT
10
233.8290
20
239.8444
0
VERTEX
8
CUT
10
234.7819
20
240.1124
0
SEQEND
0
POLYLINE
8
CUT
66
1
70
1
10
0.0
20
0.0
30
0.0
0
VERTEX
8
CUT
10
234.6926
20
249.3738
0
VERTEX
8
CUT
10
234.1863
20
249.7907
0
VERTEX
8
CUT
10
233.4121
20
249.9694
0
VERTEX
8
CUT
10
232.5187
20
249.8503
0
VERTEX
8
CUT
10
231.6253
20
249.4334
0
VERTEX
8
CUT
10
230.8808
20
248.8378
0
VERTEX
8
CUT
10
230.2257
20
247.8253
0
VERTEX
8
CUT
10
230.2257
20
247.2297
0
VERTEX
8
CUT
10
230.4639
20
246.8426
0
VERTEX
8
CUT
10
232.7867
20
248.7187
0
VERTEX
8
CUT
10
234.7223
20
248.6591
0
VERTEX
8
CUT
10
234.8415
20
248.9271
0
SEQEND
0
POLYLINE
8
CUT
66
1
70
1
10
0.0
20
0.0
30
0.0
0
VERTEX
8
CUT
10
229.7492
20
221.2025
0
VERTEX
8
CUT
10
231.2977
20
221.4110
0
VERTEX
8
CUT
10
233.2632
20
220.9643
0
VERTEX
8
CUT
10
233.3823
20
221.2621
0
VERTEX
8
CUT
10
233.2334
20
221.7385
0
VERTEX
8
CUT
10
232.7867
20
222.1554
0
VERTEX
8
CUT
10
231.3573
20
222.6021
0
VERTEX
8
CUT
10
229.6301
20
222.6021
0
VERTEX
8
CUT
10
228.8558
20
222.3937
0
VERTEX
8
CUT
10
227.8731
20
221.7385
0
VERTEX
8
CUT
10
227.0393
20
220.6367
0
VERTEX
8
CUT
10
226.5628
20
219.4455
0
VERTEX
8
CUT
10
226.5628
20
218.8202
0
VERTEX
8
CUT
10
226.7712
20
218.5224
0
VERTEX
8
CUT
10
227.3073
20
218.7904
0
VERTEX
8
CUT
10
227.9624
20
219.9815
0
VERTEX
8
CUT
10
229.0345
20
220.9047
0
SEQEND
0
POLYLINE
8
CUT
66
1
70
1
10
0.0
20
0.0
30
0.0
0
VERTEX
8
CUT
10
223.9124
20
213.6088
0
VERTEX
8
CUT
10
226.1459
20
213.2514
0
VERTEX
8
CUT
10
226.1757
20
213.7577
0
VERTEX
8
CUT
10
225.3716
20
214.5915
0
VERTEX
8
CUT
10
224.5378
20
215.0084
0
VERTEX
8
CUT
10
223.7933
20
215.0680
0
VERTEX
8
CUT
10
222.6617
20
214.7404
0
VERTEX
8
CUT
10
221.5599
20
214.2639
0
VERTEX
8
CUT
10
220.3985
20
213.2514
0
VERTEX
8
CUT
10
219.9815
20
212.0602
0
VERTEX
8
CUT
10
220.1900
20
211.4051
0
VERTEX
8
CUT
10
220.5176
20
211.4349
0
VERTEX
8
CUT
10
222.1257
20
212.9834
0
VERTEX
8
CUT
10
222.9893
20
213.4301
0
SEQEND
0
POLYLINE
8
CUT
66
1
70
1
10
0.0
20
0.0
30
0.0
0
VERTEX
8
CUT
10
225.2525
20
206.3724
0
VERTEX
8
CUT
10
224.1209
20
206.3128
0
VERTEX
8
CUT
10
221.7981
20
205.8066
0
VERTEX
8
CUT
10
219.5051
20
206.2533
0
VERTEX
8
CUT
10
219.1179
20
206.1341
0
VERTEX
8
CUT
10
219.1477
20
205.6577
0
VERTEX
8
CUT
10
219.4455
20
205.3897
0
VERTEX
8
CUT
10
221.0238
20
204.9430
0
VERTEX
8
CUT
10
222.3341
20
204.8238
0
VERTEX
8
CUT
10
225.0440
20
205.1812
0
VERTEX
8
CUT
10
225.9970
20
205.7768
0
VERTEX
8
CUT
10
226.0268
20
206.1937
0
SEQEND
0
POLYLINE
8
CUT
66
1
70
1
10
0.0
20
0.0
30
0.0
0
VERTEX
8
CUT
10
219.6242
20
233.2334
0
VERTEX
8
CUT
10
219.3860
20
232.1315
0
VERTEX
8
CUT
10
219.6242
20
231.3573
0
VERTEX
8
CUT
10
220.0709
20
231.4168
0
VERTEX
8
CUT
10
220.4878
20
232.6080
0
VERTEX
8
CUT
10
220.3985
20
233.4716
0
VERTEX
8
CUT
10
220.1602
20
233.9183
0
SEQEND
0
POLYLINE
8
CUT
66
1
70
1
10
0.0
20
0.0
30
0.0
0
VERTEX
8
CUT
10
196.3665
20
201.7863
0
VERTEX
8
CUT
10
198.9573
20
202.7095
0
VERTEX
8
CUT
10
201.6672
20
203.4242
0
VERTEX
8
CUT
10
204.4367
20
203.9007
0
VERTEX
8
CUT
10
207.0275
20
204.1091
0
VERTEX
8
CUT
10
211.4349
20
204.0198
0
VERTEX
8
CUT
10
216.5271
20
203.2455
0
VERTEX
8
CUT
10
217.1227
20
203.2158
0
VERTEX
8
CUT
10
217.2716
20
203.3647
0
VERTEX
8
CUT
10
216.6760
20
204.0496
0
VERTEX
8
CUT
10
216.1698
20
204.3176
0
VERTEX
8
CUT
10
214.6213
20
204.6749
0
VERTEX
8
CUT
10
208.3676
20
204.9132
0
VERTEX
8
CUT
10
202.4713
20
204.7047
0
VERTEX
8
CUT
10
197.3492
20
203.3944
0
VERTEX
8
CUT
10
192.4952
20
200.9227
0
VERTEX
8
CUT
10
188.2069
20
198.1235
0
VERTEX
8
CUT
10
185.5268
20
194.3713
0
VERTEX
8
CUT
10
185.5268
20
193.8055
0
VERTEX
8
CUT
10
185.9735
20
193.9841
0
VERTEX
8
CUT
10
188.1474
20
196.6345
0
VERTEX
8
CUT
10
189.7853
20
198.0937
0
VERTEX
8
CUT
10
191.7507
20
199.4636
0
SEQEND
0
POLYLINE
8
CUT
66
1
70
1
10
0.0
20
0.0
30
0.0
0
VERTEX
8
CUT
10
210.2518
20
104.4267
0
VERTEX
8
CUT
10
210.5569
20
104.6396
0
VERTEX
8
CUT
10
210.7765
20
105.4581
0
VERTEX
8
CUT
10
210.8206
20
107.5779
0
VERTEX
8
CUT
10
210.5395
20
107.9391
0
VERTEX
8
CUT
10
209.9879
20
107.8097
0
VERTEX
8
CUT
10
209.3722
20
106.8437
0
VERTEX
8
CUT
10
209.1781
20
105.9440
0
VERTEX
8
CUT
10
209.6274
20
104.8951
0
SEQEND
0
POLYLINE
8
CUT
66
1
70
1
10
0.0
20
0.0
30
0.0
0
VERTEX
8
CUT
10
209.5435
20
111.8753
0
VERTEX
8
CUT
10
208.6917
20
111.8294
0
VERTEX
8
CUT
10
208.3391
20
111.2861
0
VERTEX
8
CUT
10
208.6271
20
109.9983
0
VERTEX
8
CUT
10
209.2616
20
109.1762
0
VERTEX
8
CUT
10
210.1032
20
108.6684
0
VERTEX
8
CUT
10
210.4994
20
108.6512
0
VERTEX
8
CUT
10
210.7030
20
108.9525
0
VERTEX
8
CUT
10
210.2586
20
110.8441
0
SEQEND
0
POLYLINE
8
CUT
66
1
70
1
10
0.0
20
0.0
30
0.0
0
VERTEX
8
CUT
10
209.7374
20
124.8960
0
VERTEX
8
CUT
10
209.2908
20
124.7769
0
VERTEX
8
CUT
10
208.5165
20
124.1813
0
VERTEX
8
CUT
10
207.5933
20
123.0794
0
VERTEX
8
CUT
10
207.5338
20
122.4839
0
VERTEX
8
CUT
10
207.9209
20
122.2754
0
VERTEX
8
CUT
10
208.4867
20
122.5136
0
VERTEX
8
CUT
10
209.1121
20
123.1688
0
VERTEX
8
CUT
10
209.6481
20
124.2408
0
SEQEND
0
POLYLINE
8
CUT
66
1
70
1
10
0.0
20
0.0
30
0.0
0
VERTEX
8
CUT
10
209.1776
20
103.0232
0
VERTEX
8
CUT
10
208.5251
20
102.6670
0
VERTEX
8
CUT
10
207.5136
20
100.7375
0
VERTEX
8
CUT
10
208.6443
20
99.1462
0
VERTEX
8
CUT
10
209.0535
20
98.9935
0
VERTEX
8
CUT
10
209.3483
20
99.3253
0
VERTEX
8
CUT
10
209.5261
20
102.5695
0
SEQEND
0
POLYLINE
8
CUT
66
1
70
1
10
0.0
20
0.0
30
0.0
0
VERTEX
8
CUT
10
200.2377
20
94.9220
0
VERTEX
8
CUT
10
202.5040
20
94.0797
0
VERTEX
8
CUT
10
204.6966
20
94.0466
0
VERTEX
8
CUT
10
207.1268
20
94.6751
0
VERTEX
8
CUT
10
208.4067
20
95.9711
0
VERTEX
8
CUT
10
209.0030
20
97.4719
0
VERTEX
8
CUT
10
208.7343
20
97.8911
0
VERTEX
8
CUT
10
207.4468
20
97.8864
0
VERTEX
8
CUT
10
205.6941
20
98.4654
0
VERTEX
8
CUT
10
204.4076
20
97.5876
0
VERTEX
8
CUT
10
203.3138
20
96.0520
0
VERTEX
8
CUT
10
202.5807
20
95.7746
0
VERTEX
8
CUT
10
201.2986
20
96.7661
0
VERTEX
8
CUT
10
198.6693
20
98.0940
0
VERTEX
8
CUT
10
197.1286
20
99.4949
0
VERTEX
8
CUT
10
196.6605
20
99.5268
0
VERTEX
8
CUT
10
196.5146
20
99.0491
0
VERTEX
8
CUT
10
198.1708
20
96.6464
0
SEQEND
0
POLYLINE
8
CUT
66
1
70
1
10
0.0
20
0.0
30
0.0
0
VERTEX
8
CUT
10
208.5463
20
151.9745
0
VERTEX
8
CUT
10
208.0900
20
152.0835
0
VERTEX
8
CUT
10
206.9297
20
151.2700
0
VERTEX
8
CUT
10
205.8116
20
149.6856
0
VERTEX
8
CUT
10
205.9161
20
149.1958
0
VERTEX
8
CUT
10
206.4167
20
149.2140
0
VERTEX
8
CUT
10
208.5432
20
151.4750
0
SEQEND
0
POLYLINE
8
CUT
66
1
70
1
10
0.0
20
0.0
30
0.0
0
VERTEX
8
CUT
10
207.8613
20
132.4897
0
VERTEX
8
CUT
10
207.5040
20
132.6684
0
VERTEX
8
CUT
10
207.0275
20
132.1324
0
VERTEX
8
CUT
10
206.9382
20
130.4349
0
VERTEX
8
CUT
10
207.3551
20
129.4224
0
VERTEX
8
CUT
10
208.0400
20
129.0353
0
VERTEX
8
CUT
10
208.4271
20
129.1544
0
VERTEX
8
CUT
10
208.5463
20
129.4820
0
VERTEX
8
CUT
10
208.1294
20
131.9537
0
SEQEND
0
POLYLINE
8
CUT
66
1
70
1
10
0.0
20
0.0
30
0.0
0
VERTEX
8
CUT
10
204.7415
20
113.9872
0
VERTEX
8
CUT
10
205.8453
20
113.4485
0
VERTEX
8
CUT
10
207.3072
20
112.3188
0
VERTEX
8
CUT
10
207.6572
20
112.3943
0
VERTEX
8
CUT
10
208.0997
20
112.9936
0
VERTEX
8
CUT
10
207.9926
20
113.3972
0
VERTEX
8
CUT
10
207.0848
20
114.1803
0
VERTEX
8
CUT
10
204.0360
20
115.1750
0
VERTEX
8
CUT
10
203.6579
20
115.6215
0
VERTEX
8
CUT
10
203.6491
20
116.2908
0
VERTEX
8
CUT
10
203.3913
20
116.5571
0
VERTEX
8
CUT
10
203.0274
20
116.4870
0
VERTEX
8
CUT
10
201.6043
20
115.0844
0
VERTEX
8
CUT
10
201.5162
20
114.7578
0
VERTEX
8
CUT
10
201.7167
20
114.4855
0
VERTEX
8
CUT
10
203.5663
20
114.3543
0
SEQEND
0
POLYLINE
8
CUT
66
1
70
1
10
0.0
20
0.0
30
0.0
0
VERTEX
8
CUT
10
202.4415
20
254.7639
0
VERTEX
8
CUT
10
200.9525
20
255.0617
0
VERTEX
8
CUT
10
201.0716
20
254.7043
0
VERTEX
8
CUT
10
202.0841
20
254.0194
0
VERTEX
8
CUT
10
206.3426
20
251.8157
0
VERTEX
8
CUT
10
206.9977
20
251.6370
0
VERTEX
8
CUT
10
207.1169
20
252.0837
0
VERTEX
8
CUT
10
205.8066
20
253.1260
0
SEQEND
0
POLYLINE
8
CUT
66
1
70
1
10
0.0
20
0.0
30
0.0
0
VERTEX
8
CUT
10
202.3560
20
137.4760
0
VERTEX
8
CUT
10
203.8867
20
137.4586
0
VERTEX
8
CUT
10
205.2065
20
136.8621
0
VERTEX
8
CUT
10
205.6313
20
137.1097
0
VERTEX
8
CUT
10
205.6222
20
137.4060
0
VERTEX
8
CUT
10
204.5292
20
139.3843
0
VERTEX
8
CUT
10
204.0185
20
142.4177
0
VERTEX
8
CUT
10
204.1975
20
145.2215
0
VERTEX
8
CUT
10
204.6828
20
146.7866
0
VERTEX
8
CUT
10
205.3540
20
147.9284
0
VERTEX
8
CUT
10
205.1141
20
148.3942
0
VERTEX
8
CUT
10
203.4535
20
147.7736
0
VERTEX
8
CUT
10
201.7120
20
147.8747
0
VERTEX
8
CUT
10
201.3884
20
147.6288
0
VERTEX
8
CUT
10
202.9955
20
143.3439
0
VERTEX
8
CUT
10
203.1267
20
142.2332
0
VERTEX
8
CUT
10
203.0075
20
141.0727
0
VERTEX
8
CUT
10
202.0259
20
139.2310
0
VERTEX
8
CUT
10
199.7102
20
136.5390
0
VERTEX
8
CUT
10
199.4499
20
135.9682
0
VERTEX
8
CUT
10
199.3404
20
134.8794
0
VERTEX
8
CUT
10
199.5987
20
134.5304
0
VERTEX
8
CUT
10
199.9925
20
134.6100
0
VERTEX
8
CUT
10
201.1096
20
136.6325
0
SEQEND
0
POLYLINE
8
CUT
66
1
70
1
10
0.0
20
0.0
30
0.0
0
VERTEX
8
CUT
10
201.9948
20
267.9859
0
VERTEX
8
CUT
10
201.4588
20
267.8072
0
VERTEX
8
CUT
10
199.7316
20
266.4969
0
VERTEX
8
CUT
10
200.5356
20
266.2885
0
VERTEX
8
CUT
10
202.3224
20
266.6756
0
VERTEX
8
CUT
10
202.6202
20
266.9734
0
VERTEX
8
CUT
10
202.6499
20
267.4201
0
SEQEND
0
POLYLINE
8
CUT
66
1
70
1
10
0.0
20
0.0
30
0.0
0
VERTEX
8
CUT
10
201.9614
20
105.8997
0
VERTEX
8
CUT
10
202.0215
20
107.0205
0
VERTEX
8
CUT
10
201.7836
20
107.3419
0
VERTEX
8
CUT
10
201.2912
20
107.1674
0
VERTEX
8
CUT
10
200.5254
20
105.2621
0
VERTEX
8
CUT
10
199.6922
20
101.9722
0
VERTEX
8
CUT
10
199.9953
20
101.6709
0
VERTEX
8
CUT
10
200.3693
20
101.7993
0
VERTEX
8
CUT
10
201.3473
20
103.7569
0
SEQEND
0
POLYLINE
8
CUT
66
1
70
1
10
0.0
20
0.0
30
0.0
0
VERTEX
8
CUT
10
193.7381
20
131.5050
0
VERTEX
8
CUT
10
195.1968
20
131.6555
0
VERTEX
8
CUT
10
195.9672
20
131.4931
0
VERTEX
8
CUT
10
197.9524
20
130.5988
0
VERTEX
8
CUT
10
198.9283
20
130.7686
0
VERTEX
8
CUT
10
199.5788
20
131.6302
0
VERTEX
8
CUT
10
199.7719
20
133.5459
0
VERTEX
8
CUT
10
199.2955
20
133.7031
0
VERTEX
8
CUT
10
198.6704
20
133.0991
0
VERTEX
8
CUT
10
198.2753
20
133.0250
0
VERTEX
8
CUT
10
196.9554
20
133.4860
0
VERTEX
8
CUT
10
196.4737
20
133.4701
0
VERTEX
8
CUT
10
194.8154
20
132.9508
0
VERTEX
8
CUT
10
193.6567
20
132.3487
0
VERTEX
8
CUT
10
191.7018
20
132.1102
0
VERTEX
8
CUT
10
190.3076
20
131.5913
0
VERTEX
8
CUT
10
189.4919
20
130.8268
0
VERTEX
8
CUT
10
189.3194
20
130.2678
0
VERTEX
8
CUT
10
189.3987
20
129.7796
0
VERTEX
8
CUT
10
189.9028
20
129.2874
0
VERTEX
8
CUT
10
191.6715
20
128.8095
0
VERTEX
8
CUT
10
192.0458
20
129.0459
0
VERTEX
8
CUT
10
192.2051
20
130.0468
0
VERTEX
8
CUT
10
192.5323
20
130.6442
0
SEQEND
0
POLYLINE
8
CUT
66
1
70
1
10
0.0
20
0.0
30
0.0
0
VERTEX
8
CUT
10
196.4558
20
90.6497
0
VERTEX
8
CUT
10
196.1580
20
91.0666
0
VERTEX
8
CUT
10
195.7709
20
90.2923
0
VERTEX
8
CUT
10
195.6220
20
87.7909
0
VERTEX
8
CUT
10
195.3540
20
86.5699
0
VERTEX
8
CUT
10
193.7161
20
83.5026
0
VERTEX
8
CUT
10
193.0312
20
81.7754
0
VERTEX
8
CUT
10
192.8823
20
80.9118
0
VERTEX
8
CUT
10
193.2397
20
80.6140
0
VERTEX
8
CUT
10
193.7161
20
81.1203
0
VERTEX
8
CUT
10
195.5327
20
84.6045
0
VERTEX
8
CUT
10
196.4856
20
87.3740
0
VERTEX
8
CUT
10
196.6941
20
89.5181
0
SEQEND
0
POLYLINE
8
CUT
66
1
70
1
10
0.0
20
0.0
30
0.0
0
VERTEX
8
CUT
10
187.4601
20
271.5157
0
VERTEX
8
CUT
10
188.4618
20
272.9429
0
VERTEX
8
CUT
10
189.6456
20
274.1871
0
VERTEX
8
CUT
10
191.0431
20
275.2503
0
VERTEX
8
CUT
10
192.5948
20
276.0572
0
VERTEX
8
CUT
10
195.5800
20
277.0653
0
VERTEX
8
CUT
10
195.7817
20
277.3309
0
VERTEX
8
CUT
10
195.6784
20
277.6838
0
VERTEX
8
CUT
10
194.2439
20
278.0496
0
VERTEX
8
CUT
10
193.1787
20
277.9368
0
VERTEX
8
CUT
10
191.4943
20
276.8450
0
VERTEX
8
CUT
10
188.7466
20
274.5710
0
VERTEX
8
CUT
10
187.5167
20
273.1679
0
VERTEX
8
CUT
10
186.3300
20
271.3578
0
VERTEX
8
CUT
10
185.7330
20
269.9962
0
VERTEX
8
CUT
10
185.4781
20
268.4484
0
VERTEX
8
CUT
10
185.7576
20
268.0777
0
VERTEX
8
CUT
10
186.1933
20
268.2379
0
VERTEX
8
CUT
10
186.7009
20
269.9066
0
SEQEND
0
POLYLINE
8
CUT
66
1
70
1
10
0.0
20
0.0
30
0.0
0
VERTEX
8
CUT
10
174.5252
20
277.7794
0
VERTEX
8
CUT
10
175.2512
20
278.8440
0
VERTEX
8
CUT
10
177.1556
20
280.6930
0
VERTEX
8
CUT
10
179.5040
20
282.1247
0
VERTEX
8
CUT
10
179.6323
20
282.4629
0
VERTEX
8
CUT
10
179.4595
20
282.7416
0
VERTEX
8
CUT
10
178.7372
20
282.8982
0
VERTEX
8
CUT
10
177.9581
20
282.6685
0
VERTEX
8
CUT
10
174.8709
20
280.6692
0
VERTEX
8
CUT
10
174.1839
20
279.8969
0
VERTEX
8
CUT
10
173.5765
20
278.9909
0
VERTEX
8
CUT
10
172.6806
20
276.7496
0
VERTEX
8
CUT
10
172.3092
20
274.3520
0
VERTEX
8
CUT
10
172.4398
20
272.5915
0
VERTEX
8
CUT
10
172.7568
20
272.2971
0
VERTEX
8
CUT
10
173.1686
20
272.5105
0
VERTEX
8
CUT
10
173.5375
20
275.3551
0
SEQEND
0
POLYLINE
8
CUT
66
1
70
1
10
0.0
20
0.0
30
0.0
0
VERTEX
8
CUT
10
151.6684
20
103.1093
0
VERTEX
8
CUT
10
154.2132
20
102.3847
0
VERTEX
8
CUT
10
159.4286
20
102.4705
0
VERTEX
8
CUT
10
161.9340
20
103.2101
0
VERTEX
8
CUT
10
163.5895
20
104.2018
0
VERTEX
8
CUT
10
166.1923
20
106.5725
0
VERTEX
8
CUT
10
171.4571
20
113.0570
0
VERTEX
8
CUT
10
175.7045
20
117.3674
0
VERTEX
8
CUT
10
176.4018
20
118.2456
0
VERTEX
8
CUT
10
176.4154
20
118.5827
0
VERTEX
8
CUT
10
176.1360
20
118.8138
0
VERTEX
8
CUT
10
175.6962
20
118.7709
0
VERTEX
8
CUT
10
174.4208
20
118.0146
0
VERTEX
8
CUT
10
169.7223
20
113.3809
0
VERTEX
8
CUT
10
168.5313
20
112.5701
0
VERTEX
8
CUT
10
167.8978
20
112.7053
0
VERTEX
8
CUT
10
167.4179
20
113.1175
0
VERTEX
8
CUT
10
166.7354
20
116.0565
0
VERTEX
8
CUT
10
166.4272
20
116.3754
0
VERTEX
8
CUT
10
166.0437
20
116.2731
0
VERTEX
8
CUT
10
165.9000
20
112.2452
0
VERTEX
8
CUT
10
167.1916
20
110.7247
0
VERTEX
8
CUT
10
167.3622
20
110.0370
0
VERTEX
8
CUT
10
167.2277
20
109.3028
0
VERTEX
8
CUT
10
166.5645
20
108.4066
0
VERTEX
8
CUT
10
165.9944
20
108.1381
0
VERTEX
8
CUT
10
165.3117
20
108.2364
0
VERTEX
8
CUT
10
164.4032
20
108.8344
0
VERTEX
8
CUT
10
163.8567
20
108.5831
0
VERTEX
8
CUT
10
162.0507
20
106.6726
0
VERTEX
8
CUT
10
162.0230
20
104.8544
0
VERTEX
8
CUT
10
161.4524
20
104.2718
0
VERTEX
8
CUT
10
160.2180
20
103.9671
0
VERTEX
8
CUT
10
158.3337
20
104.9709
0
VERTEX
8
CUT
10
157.1123
20
105.1206
0
VERTEX
8
CUT
10
155.1358
20
104.8241
0
VERTEX
8
CUT
10
154.4912
20
104.5054
0
VERTEX
8
CUT
10
154.2090
20
104.0144
0
VERTEX
8
CUT
10
153.7481
20
103.9027
0
VERTEX
8
CUT
10
152.9167
20
104.2660
0
VERTEX
8
CUT
10
151.9294
20
105.5148
0
VERTEX
8
CUT
10
150.9193
20
106.0840
0
VERTEX
8
CUT
10
148.2491
20
105.3231
0
VERTEX
8
CUT
10
148.2494
20
104.9250
0
VERTEX
8
CUT
10
149.3375
20
104.1858
0
SEQEND
0
POLYLINE
8
CUT
66
1
70
1
10
0.0
20
0.0
30
0.0
0
VERTEX
8
CUT
10
175.9974
20
228.5282
0
VERTEX
8
CUT
10
176.2952
20
229.5705
0
VERTEX
8
CUT
10
175.7592
20
229.6598
0
VERTEX
8
CUT
10
174.9253
20
228.9451
0
VERTEX
8
CUT
10
174.0915
20
227.6646
0
VERTEX
8
CUT
10
173.6151
20
225.9374
0
VERTEX
8
CUT
10
174.0915
20
226.1161
0
VERTEX
8
CUT
10
174.9551
20
227.0690
0
SEQEND
0
POLYLINE
8
CUT
66
1
70
1
10
0.0
20
0.0
30
0.0
0
VERTEX
8
CUT
10
173.4662
20
268.4028
0
VERTEX
8
CUT
10
172.4834
20
268.9984
0
VERTEX
8
CUT
10
171.0838
20
270.2789
0
VERTEX
8
CUT
10
165.6640
20
276.1455
0
VERTEX
8
CUT
10
164.6515
20
276.9197
0
VERTEX
8
CUT
10
165.0386
20
275.7583
0
VERTEX
8
CUT
10
167.3912
20
272.5422
0
VERTEX
8
CUT
10
171.0242
20
268.5815
0
VERTEX
8
CUT
10
174.8658
20
265.0973
0
VERTEX
8
CUT
10
175.2827
20
265.0675
0
VERTEX
8
CUT
10
175.0147
20
266.1992
0
SEQEND
0
POLYLINE
8
CUT
66
1
70
1
10
0.0
20
0.0
30
0.0
0
VERTEX
8
CUT
10
173.7937
20
73.8839
0
VERTEX
8
CUT
10
173.7342
20
74.2413
0
VERTEX
8
CUT
10
170.1309
20
71.6504
0
VERTEX
8
CUT
10
163.5794
20
68.7618
0
VERTEX
8
CUT
10
163.1327
20
68.2556
0
VERTEX
8
CUT
10
163.1029
20
67.9578
0
VERTEX
8
CUT
10
163.4007
20
67.8685
0
VERTEX
8
CUT
10
168.1952
20
69.8935
0
VERTEX
8
CUT
10
170.8753
20
71.3527
0
VERTEX
8
CUT
10
173.4959
20
73.4074
0
SEQEND
0
POLYLINE
8
CUT
66
1
70
1
10
0.0
20
0.0
30
0.0
0
VERTEX
8
CUT
10
154.0202
20
216.0209
0
VERTEX
8
CUT
10
157.3853
20
217.6588
0
VERTEX
8
CUT
10
164.7110
20
220.2198
0
VERTEX
8
CUT
10
167.9272
20
221.5599
0
VERTEX
8
CUT
10
171.4709
20
223.6742
0
VERTEX
8
CUT
10
172.3941
20
224.4485
0
VERTEX
8
CUT
10
172.5728
20
224.8951
0
VERTEX
8
CUT
10
171.4114
20
224.5974
0
VERTEX
8
CUT
10
166.9445
20
222.2448
0
VERTEX
8
CUT
10
165.4257
20
221.6492
0
VERTEX
8
CUT
10
160.7801
20
220.3687
0
VERTEX
8
CUT
10
156.1941
20
218.7010
0
VERTEX
8
CUT
10
154.3478
20
217.8077
0
VERTEX
8
CUT
10
152.4121
20
216.5271
0
VERTEX
8
CUT
10
149.7320
20
214.1150
0
VERTEX
8
CUT
10
147.8559
20
211.8518
0
VERTEX
8
CUT
10
146.8732
20
209.5290
0
VERTEX
8
CUT
10
146.1585
20
206.9084
0
VERTEX
8
CUT
10
146.3371
20
206.3128
0
VERTEX
8
CUT
10
146.6052
20
206.3128
0
VERTEX
8
CUT
10
146.9029
20
206.6999
0
VERTEX
8
CUT
10
147.7368
20
208.9930
0
VERTEX
8
CUT
10
149.2555
20
211.5838
0
VERTEX
8
CUT
10
151.3996
20
213.9959
0
SEQEND
0
POLYLINE
8
CUT
66
1
70
1
10
0.0
20
0.0
30
0.0
0
VERTEX
8
CUT
10
170.2500
20
162.1798
0
VERTEX
8
CUT
10
168.9992
20
162.7754
0
VERTEX
8
CUT
10
169.9820
20
161.4948
0
VERTEX
8
CUT
10
172.4239
20
159.5294
0
VERTEX
8
CUT
10
172.4834
20
159.7676
0
VERTEX
8
CUT
10
171.7389
20
160.8695
0
SEQEND
0
POLYLINE
8
CUT
66
1
70
1
10
0.0
20
0.0
30
0.0
0
VERTEX
8
CUT
10
166.7956
20
158.3084
0
VERTEX
8
CUT
10
166.4084
20
158.6956
0
VERTEX
8
CUT
10
163.7879
20
159.5592
0
VERTEX
8
CUT
10
161.1970
20
160.9886
0
VERTEX
8
CUT
10
158.7551
20
162.6860
0
VERTEX
8
CUT
10
157.8320
20
163.1029
0
VERTEX
8
CUT
10
157.4746
20
162.9540
0
VERTEX
8
CUT
10
157.7129
20
162.5371
0
VERTEX
8
CUT
10
159.1125
20
161.4353
0
VERTEX
8
CUT
10
164.8897
20
157.8320
0
VERTEX
8
CUT
10
166.2595
20
157.1768
0
VERTEX
8
CUT
10
166.7360
20
157.3257
0
VERTEX
8
CUT
10
166.9147
20
157.8320
0
SEQEND
0
POLYLINE
8
CUT
66
1
70
1
10
0.0
20
0.0
30
0.0
0
VERTEX
8
CUT
10
152.0250
20
157.8915
0
VERTEX
8
CUT
10
148.3621
20
159.5294
0
VERTEX
8
CUT
10
147.3199
20
159.7974
0
VERTEX
8
CUT
10
147.0518
20
159.6187
0
VERTEX
8
CUT
10
147.0518
20
159.3209
0
VERTEX
8
CUT
10
147.5581
20
158.9338
0
VERTEX
8
CUT
10
149.3746
20
158.0404
0
VERTEX
8
CUT
10
160.8099
20
153.2757
0
VERTEX
8
CUT
10
163.3412
20
152.2930
0
VERTEX
8
CUT
10
164.3834
20
152.1441
0
VERTEX
8
CUT
10
164.8004
20
152.4717
0
VERTEX
8
CUT
10
164.5621
20
153.0971
0
VERTEX
8
CUT
10
163.0731
20
153.9011
0
SEQEND
0
POLYLINE
8
CUT
66
1
70
1
10
0.0
20
0.0
30
0.0
0
VERTEX
8
CUT
10
164.0559
20
98.0350
0
VERTEX
8
CUT
10
164.0856
20
98.3030
0
VERTEX
8
CUT
10
163.9070
20
98.4221
0
VERTEX
8
CUT
10
163.5198
20
98.4817
0
VERTEX
8
CUT
10
162.9540
20
98.0052
0
VERTEX
8
CUT
10
161.1375
20
94.6997
0
VERTEX
8
CUT
10
160.6312
20
93.0320
0
VERTEX
8
CUT
10
160.1845
20
90.4115
0
VERTEX
8
CUT
10
160.2441
20
89.8754
0
VERTEX
8
CUT
10
160.5717
20
90.0839
0
VERTEX
8
CUT
10
161.0482
20
91.0070
0
VERTEX
8
CUT
10
163.5496
20
96.7247
0
SEQEND
0
POLYLINE
8
CUT
66
1
70
1
10
0.0
20
0.0
30
0.0
0
VERTEX
8
CUT
10
150.4467
20
120.6971
0
VERTEX
8
CUT
10
152.6801
20
121.7096
0
VERTEX
8
CUT
10
155.4794
20
122.3945
0
VERTEX
8
CUT
10
158.1893
20
122.4839
0
VERTEX
8
CUT
10
160.8099
20
121.9180
0
VERTEX
8
CUT
10
163.4305
20
120.8162
0
VERTEX
8
CUT
10
163.6985
20
120.9949
0
VERTEX
8
CUT
10
163.6092
20
121.7096
0
VERTEX
8
CUT
10
163.1327
20
122.4243
0
VERTEX
8
CUT
10
162.2095
20
122.8710
0
VERTEX
8
CUT
10
158.8743
20
123.6452
0
VERTEX
8
CUT
10
156.0154
20
123.7048
0
VERTEX
8
CUT
10
153.2460
20
123.1688
0
VERTEX
8
CUT
10
149.2555
20
121.5309
0
VERTEX
8
CUT
10
147.0518
20
120.0419
0
VERTEX
8
CUT
10
145.7713
20
118.5530
0
VERTEX
8
CUT
10
145.0864
20
117.3618
0
VERTEX
8
CUT
10
144.6397
20
115.8728
0
VERTEX
8
CUT
10
144.8482
20
115.4559
0
VERTEX
8
CUT
10
145.2949
20
115.7537
0
VERTEX
8
CUT
10
146.5754
20
117.5405
0
VERTEX
8
CUT
10
148.7790
20
119.5655
0
SEQEND
0
POLYLINE
8
CUT
66
1
70
1
10
0.0
20
0.0
30
0.0
0
VERTEX
8
CUT
10
162.1566
20
147.6258
0
VERTEX
8
CUT
10
162.4683
20
147.9245
0
VERTEX
8
CUT
10
162.2469
20
148.3649
0
VERTEX
8
CUT
10
158.7936
20
149.3795
0
VERTEX
8
CUT
10
156.9157
20
149.6998
0
VERTEX
8
CUT
10
154.5957
20
149.6588
0
VERTEX
8
CUT
10
154.2305
20
149.2771
0
VERTEX
8
CUT
10
154.5436
20
148.8882
0
VERTEX
8
CUT
10
161.0869
20
147.7349
0
SEQEND
0
POLYLINE
8
CUT
66
1
70
1
10
0.0
20
0.0
30
0.0
0
VERTEX
8
CUT
10
160.8397
20
78.2317
0
VERTEX
8
CUT
10
159.5592
20
77.9339
0
VERTEX
8
CUT
10
158.9338
20
77.3085
0
VERTEX
8
CUT
10
159.5592
20
77.1299
0
VERTEX
8
CUT
10
161.1077
20
77.3979
0
VERTEX
8
CUT
10
161.5246
20
77.6361
0
VERTEX
8
CUT
10
161.5842
20
77.9935
0
SEQEND
0
POLYLINE
8
CUT
66
1
70
1
10
0.0
20
0.0
30
0.0
0
VERTEX
8
CUT
10
161.2268
20
66.5582
0
VERTEX
8
CUT
10
160.7504
20
66.5284
0
VERTEX
8
CUT
10
159.3209
20
65.9030
0
VERTEX
8
CUT
10
156.4323
20
64.2354
0
VERTEX
8
CUT
10
156.3132
20
63.8185
0
VERTEX
8
CUT
10
156.7301
20
63.6398
0
VERTEX
8
CUT
10
157.9213
20
63.9674
0
VERTEX
8
CUT
10
158.9338
20
64.5332
0
VERTEX
8
CUT
10
160.3930
20
65.6052
0
SEQEND
0
POLYLINE
8
CUT
66
1
70
1
10
0.0
20
0.0
30
0.0
0
VERTEX
8
CUT
10
160.2143
20
89.5479
0
VERTEX
8
CUT
10
159.7676
20
88.9523
0
VERTEX
8
CUT
10
159.2614
20
87.4037
0
VERTEX
8
CUT
10
159.2614
20
86.8677
0
VERTEX
8
CUT
10
159.4996
20
86.5699
0
VERTEX
8
CUT
10
159.8570
20
86.8677
0
VERTEX
8
CUT
10
160.1845
20
88.0589
0
VERTEX
8
CUT
10
160.3334
20
89.1309
0
SEQEND
0
POLYLINE
8
CUT
66
1
70
1
10
0.0
20
0.0
30
0.0
0
VERTEX
8
CUT
10
157.0577
20
254.7341
0
VERTEX
8
CUT
10
156.6408
20
254.2278
0
VERTEX
8
CUT
10
156.1346
20
252.6793
0
VERTEX
8
CUT
10
156.0750
20
251.3690
0
VERTEX
8
CUT
10
156.2239
20
251.1308
0
VERTEX
8
CUT
10
156.5812
20
251.1308
0
VERTEX
8
CUT
10
157.3555
20
252.6198
0
VERTEX
8
CUT
10
157.6533
20
254.4363
0
VERTEX
8
CUT
10
157.4448
20
254.8234
0
SEQEND
0
POLYLINE
8
CUT
66
1
70
1
10
0.0
20
0.0
30
0.0
0
VERTEX
8
CUT
10
157.0571
20
115.1053
0
VERTEX
8
CUT
10
156.9934
20
115.6475
0
VERTEX
8
CUT
10
156.7085
20
115.8836
0
VERTEX
8
CUT
10
156.3065
20
115.7151
0
VERTEX
8
CUT
10
155.1991
20
113.3125
0
VERTEX
8
CUT
10
155.1276
20
112.3006
0
VERTEX
8
CUT
10
156.0233
20
111.1564
0
VERTEX
8
CUT
10
156.3175
20
111.1907
0
VERTEX
8
CUT
10
156.8976
20
112.0618
0
SEQEND
0
POLYLINE
8
CUT
66
1
70
1
10
0.0
20
0.0
30
0.0
0
VERTEX
8
CUT
10
140.6855
20
232.7919
0
VERTEX
8
CUT
10
143.2546
20
235.2407
0
VERTEX
8
CUT
10
149.6887
20
240.6328
0
VERTEX
8
CUT
10
152.6362
20
243.5502
0
VERTEX
8
CUT
10
154.0773
20
245.4013
0
VERTEX
8
CUT
10
155.1107
20
247.1112
0
VERTEX
8
CUT
10
155.6152
20
248.1948
0
VERTEX
8
CUT
10
155.5581
20
248.8322
0
VERTEX
8
CUT
10
155.1729
20
248.9135
0
VERTEX
8
CUT
10
154.5493
20
248.4747
0
VERTEX
8
CUT
10
153.3282
20
246.3049
0
VERTEX
8
CUT
10
151.2171
20
244.4268
0
VERTEX
8
CUT
10
149.5580
20
242.2326
0
VERTEX
8
CUT
10
145.9392
20
239.8636
0
VERTEX
8
CUT
10
144.3673
20
238.5898
0
VERTEX
8
CUT
10
139.9863
20
234.2409
0
VERTEX
8
CUT
10
137.9222
20
231.4149
0
VERTEX
8
CUT
10
137.1850
20
230.0333
0
VERTEX
8
CUT
10
135.7704
20
226.2044
0
VERTEX
8
CUT
10
136.0020
20
225.7696
0
VERTEX
8
CUT
10
136.4744
20
225.9097
0
VERTEX
8
CUT
10
138.2888
20
229.5475
0
SEQEND
0
POLYLINE
8
CUT
66
1
70
1
10
0.0
20
0.0
30
0.0
0
VERTEX
8
CUT
10
152.4717
20
285.6153
0
VERTEX
8
CUT
10
152.3824
20
285.1984
0
VERTEX
8
CUT
10
152.6504
20
282.4587
0
VERTEX
8
CUT
10
153.2460
20
280.6719
0
VERTEX
8
CUT
10
153.6033
20
280.4337
0
VERTEX
8
CUT
10
153.7820
20
280.5826
0
VERTEX
8
CUT
10
153.2757
20
284.9304
0
VERTEX
8
CUT
10
153.0375
20
285.5855
0
VERTEX
8
CUT
10
152.7397
20
285.7940
0
SEQEND
0
POLYLINE
8
CUT
66
1
70
1
10
0.0
20
0.0
30
0.0
0
VERTEX
8
CUT
10
153.5140
20
264.8591
0
VERTEX
8
CUT
10
153.5140
20
265.3951
0
VERTEX
8
CUT
10
153.2162
20
265.7822
0
VERTEX
8
CUT
10
152.3824
20
266.0800
0
VERTEX
8
CUT
10
151.1614
20
266.2289
0
VERTEX
8
CUT
10
149.4640
20
266.0800
0
VERTEX
8
CUT
10
148.8386
20
265.7227
0
VERTEX
8
CUT
10
148.2132
20
264.9484
0
VERTEX
8
CUT
10
148.0048
20
264.2337
0
VERTEX
8
CUT
10
148.3919
20
263.7870
0
VERTEX
8
CUT
10
150.8040
20
265.3951
0
VERTEX
8
CUT
10
151.3996
20
265.4249
0
VERTEX
8
CUT
10
153.2460
20
264.7400
0
SEQEND
0
POLYLINE
8
CUT
66
1
70
1
10
0.0
20
0.0
30
0.0
0
VERTEX
8
CUT
10
149.7618
20
274.4183
0
VERTEX
8
CUT
10
149.0173
20
274.0311
0
VERTEX
8
CUT
10
148.1239
20
273.0782
0
VERTEX
8
CUT
10
147.9154
20
272.3933
0
VERTEX
8
CUT
10
148.1239
20
271.8275
0
VERTEX
8
CUT
10
150.0893
20
273.1080
0
VERTEX
8
CUT
10
152.2335
20
273.3164
0
VERTEX
8
CUT
10
150.8338
20
274.2991
0
SEQEND
0
POLYLINE
8
CUT
66
1
70
1
10
0.0
20
0.0
30
0.0
0
VERTEX
8
CUT
10
148.5408
20
256.8484
0
VERTEX
8
CUT
10
148.3324
20
257.4440
0
VERTEX
8
CUT
10
147.9154
20
257.7120
0
VERTEX
8
CUT
10
147.2901
20
257.6227
0
VERTEX
8
CUT
10
145.2651
20
256.6400
0
VERTEX
8
CUT
10
144.6695
20
256.0444
0
VERTEX
8
CUT
10
144.3717
20
255.3892
0
VERTEX
8
CUT
10
144.3717
20
254.8234
0
VERTEX
8
CUT
10
144.5802
20
254.5554
0
VERTEX
8
CUT
10
144.9971
20
254.6447
0
VERTEX
8
CUT
10
147.1114
20
256.1635
0
VERTEX
8
CUT
10
148.3324
20
256.5209
0
SEQEND
0
POLYLINE
8
CUT
66
1
70
1
10
0.0
20
0.0
30
0.0
0
VERTEX
8
CUT
10
148.4515
20
280.8506
0
VERTEX
8
CUT
10
147.5581
20
281.1186
0
VERTEX
8
CUT
10
146.4265
20
280.4933
0
VERTEX
8
CUT
10
145.5927
20
279.4510
0
VERTEX
8
CUT
10
145.5629
20
278.8852
0
VERTEX
8
CUT
10
145.7713
20
278.6767
0
VERTEX
8
CUT
10
146.5158
20
278.9745
0
VERTEX
8
CUT
10
147.3199
20
279.5999
0
VERTEX
8
CUT
10
148.1239
20
280.2848
0
SEQEND
0
POLYLINE
8
CUT
66
1
70
1
10
0.0
20
0.0
30
0.0
0
VERTEX
8
CUT
10
142.8827
20
248.0635
0
VERTEX
8
CUT
10
143.1507
20
248.2124
0
VERTEX
8
CUT
10
143.0912
20
248.5995
0
VERTEX
8
CUT
10
142.4956
20
249.2845
0
VERTEX
8
CUT
10
141.5724
20
249.7312
0
VERTEX
8
CUT
10
140.0835
20
249.9396
0
VERTEX
8
CUT
10
138.7434
20
249.6418
0
VERTEX
8
CUT
10
137.6118
20
248.8378
0
VERTEX
8
CUT
10
136.4802
20
247.2892
0
VERTEX
8
CUT
10
136.3313
20
246.3959
0
VERTEX
8
CUT
10
136.8673
20
245.8896
0
VERTEX
8
CUT
10
138.0882
20
247.4977
0
VERTEX
8
CUT
10
139.2199
20
248.3613
0
VERTEX
8
CUT
10
140.7386
20
248.5102
0
SEQEND
0
POLYLINE
8
CUT
66
1
70
1
10
0.0
20
0.0
30
0.0
0
VERTEX
8
CUT
10
140.0239
20
163.4007
0
VERTEX
8
CUT
10
137.9989
20
164.2643
0
VERTEX
8
CUT
10
137.1949
20
164.3537
0
VERTEX
8
CUT
10
138.7136
20
163.1625
0
VERTEX
8
CUT
10
141.3044
20
161.8224
0
VERTEX
8
CUT
10
141.9893
20
161.6437
0
VERTEX
8
CUT
10
142.2276
20
161.7926
0
VERTEX
8
CUT
10
142.0489
20
162.1798
0
SEQEND
0
POLYLINE
8
CUT
66
1
70
1
10
0.0
20
0.0
30
0.0
0
VERTEX
8
CUT
10
127.9930
20
169.4162
0
VERTEX
8
CUT
10
127.5166
20
169.3864
0
VERTEX
8
CUT
10
127.5463
20
169.0588
0
VERTEX
8
CUT
10
128.0824
20
168.6419
0
VERTEX
8
CUT
10
131.2688
20
166.8849
0
VERTEX
8
CUT
10
134.4849
20
165.3662
0
VERTEX
8
CUT
10
135.3783
20
165.2173
0
VERTEX
8
CUT
10
134.9614
20
165.7533
0
VERTEX
8
CUT
10
132.3408
20
167.3316
0
VERTEX
8
CUT
10
128.7673
20
169.0886
0
SEQEND
0
POLYLINE
8
CUT
66
1
70
1
10
0.0
20
0.0
30
0.0
0
VERTEX
8
CUT
10
132.0133
20
242.5841
0
VERTEX
8
CUT
10
134.2765
20
241.8396
0
VERTEX
8
CUT
10
134.4254
20
242.1374
0
VERTEX
8
CUT
10
133.2640
20
243.3584
0
VERTEX
8
CUT
10
132.4599
20
243.7753
0
VERTEX
8
CUT
10
131.5963
20
243.9242
0
VERTEX
8
CUT
10
130.6732
20
243.8051
0
VERTEX
8
CUT
10
129.1544
20
242.9712
0
VERTEX
8
CUT
10
128.2611
20
242.0779
0
VERTEX
8
CUT
10
127.7548
20
241.2142
0
VERTEX
8
CUT
10
127.6655
20
240.8271
0
VERTEX
8
CUT
10
127.8441
20
240.2911
0
VERTEX
8
CUT
10
128.2611
20
240.4102
0
VERTEX
8
CUT
10
129.4820
20
241.7801
0
VERTEX
8
CUT
10
130.7923
20
242.4650
0
SEQEND
0
POLYLINE
8
CUT
66
1
70
1
10
0.0
20
0.0
30
0.0
0
VERTEX
8
CUT
10
123.6832
20
222.5759
0
VERTEX
8
CUT
10
125.4564
20
225.3355
0
VERTEX
8
CUT
10
127.5861
20
227.9114
0
VERTEX
8
CUT
10
129.9821
20
230.2482
0
VERTEX
8
CUT
10
133.8025
20
233.1242
0
VERTEX
8
CUT
10
133.9251
20
233.4298
0
VERTEX
8
CUT
10
133.7697
20
233.7202
0
VERTEX
8
CUT
10
133.3759
20
233.7633
0
VERTEX
8
CUT
10
132.2529
20
233.1203
0
VERTEX
8
CUT
10
129.3061
20
231.0364
0
VERTEX
8
CUT
10
126.6453
20
228.6103
0
VERTEX
8
CUT
10
124.6341
20
226.2796
0
VERTEX
8
CUT
10
122.0866
20
222.0480
0
VERTEX
8
CUT
10
121.5231
20
220.8097
0
VERTEX
8
CUT
10
120.6072
20
217.8922
0
VERTEX
8
CUT
10
120.2219
20
215.7920
0
VERTEX
8
CUT
10
120.5257
20
215.3981
0
VERTEX
8
CUT
10
120.9519
20
215.5895
0
VERTEX
8
CUT
10
122.2412
20
219.6378
0
SEQEND
0
POLYLINE
8
CUT
66
1
70
1
10
0.0
20
0.0
30
0.0
0
VERTEX
8
CUT
10
122.4110
20
260.2939
0
VERTEX
8
CUT
10
124.4500
20
259.9486
0
VERTEX
8
CUT
10
126.7914
20
260.3329
0
VERTEX
8
CUT
10
129.3852
20
261.5139
0
VERTEX
8
CUT
10
130.9442
20
262.8343
0
VERTEX
8
CUT
10
132.5439
20
265.3774
0
VERTEX
8
CUT
10
133.1361
20
267.2763
0
VERTEX
8
CUT
10
132.8772
20
267.5306
0
VERTEX
8
CUT
10
132.4929
20
267.4361
0
VERTEX
8
CUT
10
131.6523
20
265.7866
0
VERTEX
8
CUT
10
130.4581
20
264.3177
0
VERTEX
8
CUT
10
128.3758
20
262.3542
0
VERTEX
8
CUT
10
126.6568
20
261.3841
0
VERTEX
8
CUT
10
124.5790
20
261.1659
0
VERTEX
8
CUT
10
122.8663
20
261.4061
0
VERTEX
8
CUT
10
121.7355
20
261.9194
0
VERTEX
8
CUT
10
120.4896
20
262.7914
0
VERTEX
8
CUT
10
119.9473
20
262.7266
0
VERTEX
8
CUT
10
119.9845
20
262.1815
0
VERTEX
8
CUT
10
120.7515
20
261.3282
0
SEQEND
0
POLYLINE
8
CUT
66
1
70
1
10
0.0
20
0.0
30
0.0
0
VERTEX
8
CUT
10
102.9377
20
240.6357
0
VERTEX
8
CUT
10
104.7249
20
242.7207
0
VERTEX
8
CUT
10
105.9584
20
243.8006
0
VERTEX
8
CUT
10
108.4567
20
245.4959
0
VERTEX
8
CUT
10
111.4363
20
246.8540
0
VERTEX
8
CUT
10
113.2409
20
247.4569
0
VERTEX
8
CUT
10
119.7554
20
249.1017
0
VERTEX
8
CUT
10
123.6430
20
250.3194
0
VERTEX
8
CUT
10
128.1704
20
252.3760
0
VERTEX
8
CUT
10
128.9786
20
252.9187
0
VERTEX
8
CUT
10
129.0093
20
253.3801
0
VERTEX
8
CUT
10
128.6147
20
253.5540
0
VERTEX
8
CUT
10
124.8707
20
252.6795
0
VERTEX
8
CUT
10
123.7279
20
252.3344
0
VERTEX
8
CUT
10
121.3319
20
251.1708
0
VERTEX
8
CUT
10
118.2152
20
250.6885
0
VERTEX
8
CUT
10
114.6777
20
249.8267
0
VERTEX
8
CUT
10
111.1064
20
248.8147
0
VERTEX
8
CUT
10
108.5975
20
247.8826
0
VERTEX
8
CUT
10
103.4889
20
243.8337
0
VERTEX
8
CUT
10
102.9741
20
243.2111
0
VERTEX
8
CUT
10
100.9147
20
239.8354
0
VERTEX
8
CUT
10
99.9832
20
236.6688
0
VERTEX
8
CUT
10
100.2303
20
236.2704
0
VERTEX
8
CUT
10
100.6814
20
236.3982
0
VERTEX
8
CUT
10
102.1508
20
239.4280
0
SEQEND
0
POLYLINE
8
CUT
66
1
70
1
10
0.0
20
0.0
30
0.0
0
VERTEX
8
CUT
10
123.0199
20
236.7176
0
VERTEX
8
CUT
10
124.6280
20
236.1815
0
VERTEX
8
CUT
10
124.8960
20
236.2411
0
VERTEX
8
CUT
10
124.8960
20
236.5389
0
VERTEX
8
CUT
10
124.3897
20
237.3131
0
VERTEX
8
CUT
10
123.6452
20
237.7598
0
VERTEX
8
CUT
10
122.1265
20
238.1172
0
VERTEX
8
CUT
10
120.4886
20
238.0576
0
VERTEX
8
CUT
10
119.7144
20
237.6705
0
VERTEX
8
CUT
10
118.5530
20
236.4198
0
VERTEX
8
CUT
10
118.1956
20
235.7348
0
VERTEX
8
CUT
10
118.2254
20
234.6628
0
VERTEX
8
CUT
10
118.6721
20
234.8415
0
VERTEX
8
CUT
10
120.1313
20
236.2411
0
VERTEX
8
CUT
10
121.2331
20
236.6878
0
SEQEND
0
POLYLINE
8
CUT
66
1
70
1
10
0.0
20
0.0
30
0.0
0
VERTEX
8
CUT
10
113.2922
20
271.2083
0
VERTEX
8
CUT
10
115.0808
20
272.7607
0
VERTEX
8
CUT
10
116.3804
20
273.5064
0
VERTEX
8
CUT
10
117.7448
20
274.0000
0
VERTEX
8
CUT
10
120.4397
20
274.3295
0
VERTEX
8
CUT
10
121.8430
20
274.1084
0
VERTEX
8
CUT
10
124.1643
20
273.1390
0
VERTEX
8
CUT
10
124.5057
20
273.2766
0
VERTEX
8
CUT
10
124.5673
20
273.6732
0
VERTEX
8
CUT
10
123.9318
20
274.3399
0
VERTEX
8
CUT
10
122.6213
20
275.1116
0
VERTEX
8
CUT
10
120.2430
20
275.8146
0
VERTEX
8
CUT
10
117.7183
20
275.7035
0
VERTEX
8
CUT
10
116.0882
20
275.1840
0
VERTEX
8
CUT
10
113.8167
20
273.7317
0
VERTEX
8
CUT
10
111.7681
20
271.5425
0
VERTEX
8
CUT
10
110.6357
20
269.3540
0
VERTEX
8
CUT
10
110.3319
20
267.4897
0
VERTEX
8
CUT
10
110.5892
20
267.1489
0
VERTEX
8
CUT
10
111.0044
20
267.2490
0
VERTEX
8
CUT
10
112.2317
20
269.7493
0
SEQEND
0
POLYLINE
8
CUT
66
1
70
1
10
0.0
20
0.0
30
0.0
0
VERTEX
8
CUT
10
119.0294
20
227.6944
0
VERTEX
8
CUT
10
119.2081
20
227.9624
0
VERTEX
8
CUT
10
118.8805
20
228.4985
0
VERTEX
8
CUT
10
117.8383
20
229.3025
0
VERTEX
8
CUT
10
114.7710
20
229.7194
0
VERTEX
8
CUT
10
114.0861
20
229.3621
0
VERTEX
8
CUT
10
112.7758
20
227.9624
0
VERTEX
8
CUT
10
112.4780
20
227.3073
0
VERTEX
8
CUT
10
112.5971
20
226.8904
0
VERTEX
8
CUT
10
114.6519
20
228.1709
0
VERTEX
8
CUT
10
115.6942
20
228.4687
0
VERTEX
8
CUT
10
116.7960
20
228.4389
0
SEQEND
0
POLYLINE
8
CUT
66
1
70
1
10
0.0
20
0.0
30
0.0
0
VERTEX
8
CUT
10
113.5798
20
218.4032
0
VERTEX
8
CUT
10
115.5155
20
217.6290
0
VERTEX
8
CUT
10
115.7537
20
217.8374
0
VERTEX
8
CUT
10
115.7239
20
218.2543
0
VERTEX
8
CUT
10
115.0986
20
218.9393
0
VERTEX
8
CUT
10
113.8478
20
219.5349
0
VERTEX
8
CUT
10
112.2397
20
219.8922
0
VERTEX
8
CUT
10
111.4357
20
219.7731
0
VERTEX
8
CUT
10
110.2147
20
219.1179
0
VERTEX
8
CUT
10
109.1427
20
217.9863
0
VERTEX
8
CUT
10
108.3386
20
216.2889
0
VERTEX
8
CUT
10
108.3982
20
215.9316
0
VERTEX
8
CUT
10
108.9938
20
215.9316
0
VERTEX
8
CUT
10
110.0063
20
217.2121
0
VERTEX
8
CUT
10
112.0015
20
218.3139
0
VERTEX
8
CUT
10
112.9842
20
218.4926
0
SEQEND
0
POLYLINE
8
CUT
66
1
70
1
10
0.0
20
0.0
30
0.0
0
VERTEX
8
CUT
10
110.3041
20
179.6900
0
VERTEX
8
CUT
10
103.6931
20
184.1272
0
VERTEX
8
CUT
10
102.0254
20
184.9014
0
VERTEX
8
CUT
10
100.0898
20
186.4500
0
VERTEX
8
CUT
10
99.2857
20
186.8669
0
VERTEX
8
CUT
10
98.5412
20
186.8371
0
VERTEX
8
CUT
10
98.5710
20
186.4500
0
VERTEX
8
CUT
10
100.0302
20
185.3183
0
VERTEX
8
CUT
10
101.5192
20
184.6334
0
VERTEX
8
CUT
10
103.3655
20
183.1742
0
VERTEX
8
CUT
10
111.0486
20
178.6478
0
VERTEX
8
CUT
10
111.2570
20
178.7371
0
VERTEX
8
CUT
10
111.1677
20
179.0051
0
SEQEND
0
POLYLINE
8
CUT
66
1
70
1
10
0.0
20
0.0
30
0.0
0
VERTEX
8
CUT
10
108.1897
20
195.1158
0
VERTEX
8
CUT
10
107.9217
20
195.2647
0
VERTEX
8
CUT
10
107.4453
20
194.9073
0
VERTEX
8
CUT
10
106.4625
20
193.0908
0
VERTEX
8
CUT
10
104.6162
20
190.6191
0
VERTEX
8
CUT
10
104.6460
20
190.2617
0
VERTEX
8
CUT
10
105.2714
20
189.9342
0
VERTEX
8
CUT
10
106.3136
20
190.5000
0
VERTEX
8
CUT
10
107.7431
20
192.4952
0
VERTEX
8
CUT
10
108.3089
20
194.6691
0
SEQEND
0
POLYLINE
8
CUT
66
1
70
1
10
0.0
20
0.0
30
0.0
0
VERTEX
8
CUT
10
102.7103
20
214.5319
0
VERTEX
8
CUT
10
100.3280
20
216.8845
0
VERTEX
8
CUT
10
102.3530
20
213.7874
0
VERTEX
8
CUT
10
106.7306
20
208.3974
0
VERTEX
8
CUT
10
107.1772
20
208.0996
0
VERTEX
8
CUT
10
107.4155
20
208.4867
0
VERTEX
8
CUT
10
106.3434
20
210.1246
0
SEQEND
0
POLYLINE
8
CUT
66
1
70
1
10
0.0
20
0.0
30
0.0
0
VERTEX
8
CUT
10
92.9873
20
263.1235
0
VERTEX
8
CUT
10
94.2120
20
265.1736
0
VERTEX
8
CUT
10
95.6528
20
267.0619
0
VERTEX
8
CUT
10
98.0899
20
269.6477
0
VERTEX
8
CUT
10
99.7645
20
271.0786
0
VERTEX
8
CUT
10
101.5686
20
272.3099
0
VERTEX
8
CUT
10
106.7183
20
275.1111
0
VERTEX
8
CUT
10
106.8952
20
275.3881
0
VERTEX
8
CUT
10
106.7705
20
275.7285
0
VERTEX
8
CUT
10
106.4194
20
275.8187
0
VERTEX
8
CUT
10
103.6850
20
274.9986
0
VERTEX
8
CUT
10
100.8362
20
273.7094
0
VERTEX
8
CUT
10
98.4735
20
272.0871
0
VERTEX
8
CUT
10
96.6814
20
270.5904
0
VERTEX
8
CUT
10
95.0821
20
268.8481
0
VERTEX
8
CUT
10
93.6123
20
266.8968
0
VERTEX
8
CUT
10
92.3765
20
264.7744
0
VERTEX
8
CUT
10
91.3608
20
262.5397
0
VERTEX
8
CUT
10
90.5503
20
260.0513
0
VERTEX
8
CUT
10
89.8757
20
256.8732
0
VERTEX
8
CUT
10
90.1348
20
256.4890
0
VERTEX
8
CUT
10
90.5990
20
256.6562
0
VERTEX
8
CUT
10
91.1420
20
258.7486
0
SEQEND
0
POLYLINE
8
CUT
66
1
70
1
10
0.0
20
0.0
30
0.0
0
VERTEX
8
CUT
10
104.0504
20
161.6735
0
VERTEX
8
CUT
10
89.9350
20
166.0809
0
VERTEX
8
CUT
10
82.2221
20
168.8206
0
VERTEX
8
CUT
10
78.9762
20
169.5948
0
VERTEX
8
CUT
10
78.2317
20
169.4162
0
VERTEX
8
CUT
10
79.0357
20
168.8503
0
VERTEX
8
CUT
10
81.0905
20
168.0761
0
VERTEX
8
CUT
10
98.8986
20
162.2691
0
VERTEX
8
CUT
10
104.6758
20
160.8099
0
VERTEX
8
CUT
10
105.3905
20
160.7801
0
VERTEX
8
CUT
10
105.5096
20
160.9886
0
SEQEND
0
POLYLINE
8
CUT
66
1
70
1
10
0.0
20
0.0
30
0.0
0
VERTEX
8
CUT
10
101.6978
20
199.0466
0
VERTEX
8
CUT
10
101.2214
20
199.4933
0
VERTEX
8
CUT
10
100.7449
20
199.5529
0
VERTEX
8
CUT
10
99.6431
20
199.2849
0
VERTEX
8
CUT
10
98.3328
20
198.6595
0
VERTEX
8
CUT
10
97.7074
20
197.8257
0
VERTEX
8
CUT
10
97.5883
20
197.1408
0
VERTEX
8
CUT
10
97.7372
20
196.5154
0
VERTEX
8
CUT
10
98.2137
20
196.6643
0
VERTEX
8
CUT
10
99.6133
20
197.8257
0
VERTEX
8
CUT
10
101.5489
20
198.6297
0
SEQEND
0
POLYLINE
8
CUT
66
1
70
1
10
0.0
20
0.0
30
0.0
0
VERTEX
8
CUT
10
90.8284
20
192.7930
0
VERTEX
8
CUT
10
90.1137
20
192.8823
0
VERTEX
8
CUT
10
89.9052
20
192.7334
0
VERTEX
8
CUT
10
89.8456
20
192.4654
0
VERTEX
8
CUT
10
90.1137
20
192.1676
0
VERTEX
8
CUT
10
93.0023
20
189.9937
0
VERTEX
8
CUT
10
96.1589
20
187.9985
0
VERTEX
8
CUT
10
96.8140
20
187.9092
0
VERTEX
8
CUT
10
96.9629
20
188.3856
0
VERTEX
8
CUT
10
96.5758
20
188.8323
0
VERTEX
8
CUT
10
92.4960
20
191.8103
0
SEQEND
0
POLYLINE
8
CUT
66
1
70
1
10
0.0
20
0.0
30
0.0
0
VERTEX
8
CUT
10
89.8172
20
252.7648
0
VERTEX
8
CUT
10
89.2702
20
252.7080
0
VERTEX
8
CUT
10
88.7036
20
251.3993
0
VERTEX
8
CUT
10
89.1218
20
250.3113
0
VERTEX
8
CUT
10
89.6672
20
250.2630
0
VERTEX
8
CUT
10
89.9601
20
252.4272
0
SEQEND
0
POLYLINE
8
CUT
66
1
70
1
10
0.0
20
0.0
30
0.0
0
VERTEX
8
CUT
10
89.1607
20
203.7518
0
VERTEX
8
CUT
10
88.3567
20
203.3647
0
VERTEX
8
CUT
10
85.0214
20
200.4165
0
VERTEX
8
CUT
10
82.9368
20
198.8977
0
VERTEX
8
CUT
10
82.6093
20
198.8382
0
VERTEX
8
CUT
10
80.1078
20
199.9102
0
VERTEX
8
CUT
10
79.6611
20
199.9102
0
VERTEX
8
CUT
10
79.9291
20
199.4338
0
VERTEX
8
CUT
10
81.7754
20
197.8852
0
VERTEX
8
CUT
10
82.6093
20
197.3492
0
VERTEX
8
CUT
10
84.9916
20
199.1062
0
VERTEX
8
CUT
10
87.2251
20
201.1908
0
VERTEX
8
CUT
10
88.7140
20
202.7988
0
SEQEND
0
POLYLINE
8
CUT
66
1
70
1
10
0.0
20
0.0
30
0.0
0
VERTEX
8
CUT
10
83.9196
20
179.6603
0
VERTEX
8
CUT
10
84.8427
20
178.5286
0
VERTEX
8
CUT
10
86.2423
20
177.7544
0
VERTEX
8
CUT
10
87.3144
20
177.4864
0
VERTEX
8
CUT
10
87.8802
20
177.7246
0
VERTEX
8
CUT
10
87.8802
20
178.2606
0
VERTEX
8
CUT
10
84.5151
20
179.6007
0
SEQEND
0
POLYLINE
8
CUT
66
1
70
1
10
0.0
20
0.0
30
0.0
0
VERTEX
8
CUT
10
86.2721
20
116.3791
0
VERTEX
8
CUT
10
86.5104
20
116.7067
0
VERTEX
8
CUT
10
86.3912
20
117.2129
0
VERTEX
8
CUT
10
85.2894
20
117.1831
0
VERTEX
8
CUT
10
83.8898
20
116.6173
0
VERTEX
8
CUT
10
80.4354
20
114.6817
0
VERTEX
8
CUT
10
77.4872
20
110.6317
0
VERTEX
8
CUT
10
77.3979
20
109.9467
0
VERTEX
8
CUT
10
77.7552
20
109.7978
0
VERTEX
8
CUT
10
78.0530
20
109.9765
0
VERTEX
8
CUT
10
79.0060
20
111.6144
0
VERTEX
8
CUT
10
80.4056
20
113.2820
0
VERTEX
8
CUT
10
83.2346
20
115.3070
0
SEQEND
0
POLYLINE
8
CUT
66
1
70
1
10
0.0
20
0.0
30
0.0
0
VERTEX
8
CUT
10
14.8609
20
221.9566
0
VERTEX
8
CUT
10
13.5093
20
224.8664
0
VERTEX
8
CUT
10
12.8376
20
227.1238
0
VERTEX
8
CUT
10
12.0605
20
231.8683
0
VERTEX
8
CUT
10
12.1499
20
237.0792
0
VERTEX
8
CUT
10
12.5424
20
240.1000
0
VERTEX
8
CUT
10
14.0605
20
247.1248
0
VERTEX
8
CUT
10
16.7990
20
257.3047
0
VERTEX
8
CUT
10
17.4823
20
260.9938
0
VERTEX
8
CUT
10
17.5692
20
262.9063
0
VERTEX
8
CUT
10
17.3597
20
265.0107
0
VERTEX
8
CUT
10
16.6293
20
266.6365
0
VERTEX
8
CUT
10
14.3802
20
269.8501
0
VERTEX
8
CUT
10
13.5114
20
271.8241
0
VERTEX
8
CUT
10
13.0161
20
273.9418
0
VERTEX
8
CUT
10
12.8954
20
276.0346
0
VERTEX
8
CUT
10
13.1979
20
278.2170
0
VERTEX
8
CUT
10
13.8642
20
280.3064
0
VERTEX
8
CUT
10
14.9229
20
282.3033
0
VERTEX
8
CUT
10
16.3430
20
284.1766
0
VERTEX
8
CUT
10
18.4606
20
285.8450
0
VERTEX
8
CUT
10
21.0483
20
286.9536
0
VERTEX
8
CUT
10
22.5780
20
287.1934
0
VERTEX
8
CUT
10
23.6237
20
287.1018
0
VERTEX
8
CUT
10
24.4843
20
286.7849
0
VERTEX
8
CUT
10
25.1719
20
286.2297
0
VERTEX
8
CUT
10
26.1882
20
284.4250
0
VERTEX
8
CUT
10
26.4760
20
283.1295
0
VERTEX
8
CUT
10
26.7146
20
279.8349
0
VERTEX
8
CUT
10
26.5033
20
275.2423
0
VERTEX
8
CUT
10
26.6197
20
274.9723
0
VERTEX
8
CUT
10
26.9293
20
274.8623
0
VERTEX
8
CUT
10
27.2743
20
275.1172
0
VERTEX
8
CUT
10
29.2027
20
278.2157
0
VERTEX
8
CUT
10
32.2990
20
281.9076
0
VERTEX
8
CUT
10
35.8708
20
284.7945
0
VERTEX
8
CUT
10
37.8646
20
285.9303
0
VERTEX
8
CUT
10
39.9138
20
286.8314
0
VERTEX
8
CUT
10
42.0079
20
287.4803
0
VERTEX
8
CUT
10
44.6085
20
287.9072
0
VERTEX
8
CUT
10
49.3630
20
288.0876
0
VERTEX
8
CUT
10
53.6311
20
287.6339
0
VERTEX
8
CUT
10
55.2352
20
287.2378
0
VERTEX
8
CUT
10
58.0627
20
286.0473
0
VERTEX
8
CUT
10
59.3711
20
285.2370
0
VERTEX
8
CUT
10
61.5473
20
283.3255
0
VERTEX
8
CUT
10
63.1290
20
281.0869
0
VERTEX
8
CUT
10
63.7432
20
279.7135
0
VERTEX
8
CUT
10
63.9392
20
278.6759
0
VERTEX
8
CUT
10
64.0947
20
274.4564
0
VERTEX
8
CUT
10
64.5220
20
274.1404
0
VERTEX
8
CUT
10
74.8384
20
281.3220
0
VERTEX
8
CUT
10
82.0546
20
285.6784
0
VERTEX
8
CUT
10
82.8335
20
286.3766
0
VERTEX
8
CUT
10
83.2428
20
287.0707
0
VERTEX
8
CUT
10
83.1624
20
288.0557
0
VERTEX
8
CUT
10
82.8215
20
288.4693
0
VERTEX
8
CUT
10
81.6236
20
288.8009
0
VERTEX
8
CUT
10
79.1360
20
288.9796
0
VERTEX
8
CUT
10
68.3146
20
289.1280
0
VERTEX
8
CUT
10
23.4663
20
289.1280
0
VERTEX
8
CUT
10
12.8832
20
288.9795
0
VERTEX
8
CUT
10
11.2244
20
288.7537
0
VERTEX
8
CUT
10
11.0206
20
286.8216
0
VERTEX
8
CUT
10
10.8720
20
274.3555
0
VERTEX
8
CUT
10
10.9910
20
208.8808
0
VERTEX
8
CUT
10
11.2756
20
205.4273
0
VERTEX
8
CUT
10
11.9910
20
205.0401
0
VERTEX
8
CUT
10
12.6627
20
205.4852
0
VERTEX
8
CUT
10
14.5184
20
209.1627
0
VERTEX
8
CUT
10
17.9570
20
216.9759
0
VERTEX
8
CUT
10
17.6089
20
218.0418
0
SEQEND
0
POLYLINE
8
CUT
66
1
70
1
10
0.0
20
0.0
30
0.0
0
VERTEX
8
CUT
10
26.2052
20
15.8355
0
VERTEX
8
CUT
10
25.5771
20
14.5895
0
VERTEX
8
CUT
10
24.7815
20
13.7686
0
VERTEX
8
CUT
10
23.7242
20
13.2581
0
VERTEX
8
CUT
10
22.4870
20
13.1036
0
VERTEX
8
CUT
10
21.2525
20
13.2341
0
VERTEX
8
CUT
10
18.9480
20
14.1321
0
VERTEX
8
CUT
10
17.7843
20
14.9467
0
VERTEX
8
CUT
10
16.6910
20
15.8934
0
VERTEX
8
CUT
10
14.8728
20
18.2778
0
VERTEX
8
CUT
10
13.7516
20
20.3932
0
VERTEX
8
CUT
10
13.1704
20
22.0400
0
VERTEX
8
CUT
10
12.9543
20
24.4928
0
VERTEX
8
CUT
10
13.0465
20
26.4527
0
VERTEX
8
CUT
10
13.3450
20
28.0346
0
VERTEX
8
CUT
10
14.2879
20
30.1754
0
VERTEX
8
CUT
10
17.1220
20
34.3883
0
VERTEX
8
CUT
10
17.4257
20
35.3755
0
VERTEX
8
CUT
10
17.5396
20
37.5653
0
VERTEX
8
CUT
10
17.4197
20
39.5079
0
VERTEX
8
CUT
10
16.8909
20
42.1783
0
VERTEX
8
CUT
10
13.5277
20
55.0064
0
VERTEX
8
CUT
10
12.6604
20
59.1608
0
VERTEX
8
CUT
10
12.1208
20
64.3086
0
VERTEX
8
CUT
10
12.1814
20
68.5504
0
VERTEX
8
CUT
10
12.7241
20
72.7814
0
VERTEX
8
CUT
10
13.8268
20
76.4473
0
VERTEX
8
CUT
10
15.4792
20
79.5800
0
VERTEX
8
CUT
10
17.4350
20
82.1485
0
VERTEX
8
CUT
10
17.8343
20
83.4138
0
VERTEX
8
CUT
10
17.5759
20
84.3972
0
VERTEX
8
CUT
10
13.4753
20
93.5770
0
VERTEX
8
CUT
10
12.4967
20
95.2148
0
VERTEX
8
CUT
10
11.8378
20
95.5769
0
VERTEX
8
CUT
10
11.2659
20
95.1437
0
VERTEX
8
CUT
10
11.0520
20
93.8374
0
VERTEX
8
CUT
10
10.8720
20
82.8742
0
VERTEX
8
CUT
10
10.8720
20
25.7636
0
VERTEX
8
CUT
10
11.0206
20
13.1785
0
VERTEX
8
CUT
10
11.2244
20
11.2463
0
VERTEX
8
CUT
10
12.8832
20
11.0205
0
VERTEX
8
CUT
10
23.4414
20
10.8720
0
VERTEX
8
CUT
10
75.4004
20
10.9315
0
VERTEX
8
CUT
10
81.6165
20
11.1737
0
VERTEX
8
CUT
10
82.4890
20
11.6163
0
VERTEX
8
CUT
10
83.0133
20
12.5475
0
VERTEX
8
CUT
10
82.8525
20
13.2201
0
VERTEX
8
CUT
10
81.7637
20
14.2579
0
VERTEX
8
CUT
10
80.9001
20
14.7650
0
VERTEX
8
CUT
10
78.0026
20
15.8584
0
VERTEX
8
CUT
10
76.0035
20
17.0674
0
VERTEX
8
CUT
10
64.5645
20
25.2493
0
VERTEX
8
CUT
10
64.1831
20
24.9331
0
VERTEX
8
CUT
10
63.8129
20
21.0644
0
VERTEX
8
CUT
10
62.9050
20
18.6710
0
VERTEX
8
CUT
10
61.3811
20
16.5656
0
VERTEX
8
CUT
10
59.3225
20
14.8204
0
VERTEX
8
CUT
10
56.8728
20
13.5073
0
VERTEX
8
CUT
10
53.9452
20
12.5501
0
VERTEX
8
CUT
10
50.6389
20
12.0646
0
VERTEX
8
CUT
10
45.5853
20
12.0905
0
VERTEX
8
CUT
10
42.1283
20
12.6601
0
VERTEX
8
CUT
10
39.9708
20
13.3288
0
VERTEX
8
CUT
10
37.7224
20
14.3486
0
VERTEX
8
CUT
10
36.3845
20
15.0507
0
VERTEX
8
CUT
10
33.8237
20
16.9269
0
VERTEX
8
CUT
10
32.5438
20
18.0553
0
VERTEX
8
CUT
10
30.2221
20
20.5853
0
VERTEX
8
CUT
10
27.1887
20
25.0072
0
VERTEX
8
CUT
10
26.7794
20
25.1400
0
VERTEX
8
CUT
10
26.4977
20
24.8147
0
VERTEX
8
CUT
10
26.7444
20
19.2480
0
SEQEND
0
POLYLINE
8
CUT
66
1
70
1
10
0.0
20
0.0
30
0.0
0
VERTEX
8
CUT
10
82.7582
20
105.5692
0
VERTEX
8
CUT
10
82.4306
20
105.5989
0
VERTEX
8
CUT
10
82.2221
20
105.3905
0
VERTEX
8
CUT
10
82.0434
20
103.9611
0
VERTEX
8
CUT
10
81.6265
20
103.0975
0
VERTEX
8
CUT
10
78.8868
20
99.7324
0
VERTEX
8
CUT
10
78.2615
20
98.3923
0
VERTEX
8
CUT
10
78.2615
20
97.7967
0
VERTEX
8
CUT
10
78.4699
20
97.6181
0
VERTEX
8
CUT
10
78.9166
20
97.9456
0
VERTEX
8
CUT
10
82.6093
20
102.4423
0
VERTEX
8
CUT
10
82.9964
20
103.7824
0
SEQEND
0
POLYLINE
8
CUT
66
1
70
1
10
0.0
20
0.0
30
0.0
0
VERTEX
8
CUT
10
69.8647
20
225.1880
0
VERTEX
8
CUT
10
71.6533
20
225.7526
0
VERTEX
8
CUT
10
74.6946
20
225.7304
0
VERTEX
8
CUT
10
77.2871
20
224.9663
0
VERTEX
8
CUT
10
77.5934
20
225.1028
0
VERTEX
8
CUT
10
77.6800
20
225.4267
0
VERTEX
8
CUT
10
76.9407
20
226.0792
0
VERTEX
8
CUT
10
75.7033
20
226.6875
0
VERTEX
8
CUT
10
73.5397
20
226.8891
0
VERTEX
8
CUT
10
70.3786
20
226.7717
0
VERTEX
8
CUT
10
69.5205
20
226.5290
0
VERTEX
8
CUT
10
68.2034
20
225.7399
0
VERTEX
8
CUT
10
64.8163
20
222.9877
0
VERTEX
8
CUT
10
64.7575
20
222.4709
0
VERTEX
8
CUT
10
65.2310
20
222.3397
0
VERTEX
8
CUT
10
67.3865
20
223.4866
0
SEQEND
0
POLYLINE
8
CUT
66
1
70
1
10
0.0
20
0.0
30
0.0
0
VERTEX
8
CUT
10
75.4324
20
191.2444
0
VERTEX
8
CUT
10
75.3431
20
190.6191
0
VERTEX
8
CUT
10
75.9387
20
190.5297
0
VERTEX
8
CUT
10
77.4276
20
193.0312
0
VERTEX
8
CUT
10
77.4574
20
193.3886
0
VERTEX
8
CUT
10
76.7129
20
192.8823
0
SEQEND
0
POLYLINE
8
CUT
66
1
70
1
10
0.0
20
0.0
30
0.0
0
VERTEX
8
CUT
10
75.6111
20
93.7170
0
VERTEX
8
CUT
10
74.0328
20
89.7563
0
VERTEX
8
CUT
10
74.0626
20
89.0416
0
VERTEX
8
CUT
10
74.3901
20
88.9523
0
VERTEX
8
CUT
10
76.5343
20
93.5681
0
VERTEX
8
CUT
10
76.7427
20
94.4019
0
VERTEX
8
CUT
10
76.6534
20
94.8486
0
SEQEND
0
POLYLINE
8
CUT
66
1
70
1
10
0.0
20
0.0
30
0.0
0
VERTEX
8
CUT
10
74.5688
20
171.3816
0
VERTEX
8
CUT
10
68.7916
20
173.5257
0
VERTEX
8
CUT
10
67.6004
20
173.7342
0
VERTEX
8
CUT
10
67.6004
20
173.1981
0
VERTEX
8
CUT
10
68.5236
20
172.6026
0
VERTEX
8
CUT
10
75.0751
20
170.1606
0
VERTEX
8
CUT
10
76.0280
20
170.0117
0
VERTEX
8
CUT
10
76.1471
20
170.2500
0
VERTEX
8
CUT
10
75.7004
20
170.8158
0
SEQEND
0
POLYLINE
8
CUT
66
1
70
1
10
0.0
20
0.0
30
0.0
0
VERTEX
8
CUT
10
60.8616
20
236.6775
0
VERTEX
8
CUT
10
63.8119
20
238.6015
0
VERTEX
8
CUT
10
65.8651
20
239.2801
0
VERTEX
8
CUT
10
71.4725
20
239.4840
0
VERTEX
8
CUT
10
71.7510
20
239.6766
0
VERTEX
8
CUT
10
71.7571
20
240.0497
0
VERTEX
8
CUT
10
70.4931
20
240.8861
0
VERTEX
8
CUT
10
69.4042
20
241.1832
0
VERTEX
8
CUT
10
66.1795
20
241.0628
0
VERTEX
8
CUT
10
63.0403
20
240.2929
0
VERTEX
8
CUT
10
60.6366
20
238.8044
0
VERTEX
8
CUT
10
58.9066
20
236.9061
0
VERTEX
8
CUT
10
58.0057
20
235.1088
0
VERTEX
8
CUT
10
57.6959
20
233.2084
0
VERTEX
8
CUT
10
57.9385
20
232.8461
0
VERTEX
8
CUT
10
58.3370
20
232.9096
0
VERTEX
8
CUT
10
59.8243
20
235.5115
0
SEQEND
0
POLYLINE
8
CUT
66
1
70
1
10
0.0
20
0.0
30
0.0
0
VERTEX
8
CUT
10
65.9489
20
211.3823
0
VERTEX
8
CUT
10
66.0512
20
211.8053
0
VERTEX
8
CUT
10
65.5353
20
212.4155
0
VERTEX
8
CUT
10
65.4030
20
212.9207
0
VERTEX
8
CUT
10
65.6941
20
213.2743
0
VERTEX
8
CUT
10
67.0356
20
214.0155
0
VERTEX
8
CUT
10
67.0457
20
214.5640
0
VERTEX
8
CUT
10
64.0195
20
214.7092
0
VERTEX
8
CUT
10
62.4147
20
215.1925
0
VERTEX
8
CUT
10
61.9419
20
215.0450
0
VERTEX
8
CUT
10
61.9700
20
214.5808
0
VERTEX
8
CUT
10
65.4526
20
211.3581
0
SEQEND
0
POLYLINE
8
CUT
66
1
70
1
10
0.0
20
0.0
30
0.0
0
VERTEX
8
CUT
10
62.9251
20
203.6327
0
VERTEX
8
CUT
10
62.3295
20
202.7988
0
VERTEX
8
CUT
10
62.2104
20
202.0544
0
VERTEX
8
CUT
10
62.5677
20
202.1735
0
VERTEX
8
CUT
10
64.8310
20
204.5558
0
VERTEX
8
CUT
10
64.7118
20
204.7941
0
VERTEX
8
CUT
10
64.0865
20
204.6154
0
SEQEND
0
POLYLINE
8
CUT
66
1
70
1
10
0.0
20
0.0
30
0.0
0
VERTEX
8
CUT
10
62.7464
20
175.5805
0
VERTEX
8
CUT
10
62.1508
20
175.5209
0
VERTEX
8
CUT
10
62.3593
20
175.1338
0
VERTEX
8
CUT
10
62.8953
20
174.8062
0
VERTEX
8
CUT
10
64.7714
20
174.2106
0
VERTEX
8
CUT
10
64.8310
20
174.4489
0
VERTEX
8
CUT
10
64.2354
20
174.9551
0
SEQEND
0
POLYLINE
8
CUT
66
1
70
1
10
0.0
20
0.0
30
0.0
0
VERTEX
8
CUT
10
61.1979
20
200.5654
0
VERTEX
8
CUT
10
60.9299
20
200.5654
0
VERTEX
8
CUT
10
60.3938
20
200.0889
0
VERTEX
8
CUT
10
59.5600
20
198.6000
0
VERTEX
8
CUT
10
58.9942
20
196.8132
0
VERTEX
8
CUT
10
58.9942
20
195.6220
0
VERTEX
8
CUT
10
59.3218
20
195.8305
0
VERTEX
8
CUT
10
59.8578
20
196.8132
0
VERTEX
8
CUT
10
60.8703
20
199.2849
0
SEQEND
0
POLYLINE
8
CUT
66
1
70
1
10
0.0
20
0.0
30
0.0
0
VERTEX
8
CUT
10
59.2324
20
177.0992
0
VERTEX
8
CUT
10
58.4582
20
177.0397
0
VERTEX
8
CUT
10
58.3391
20
176.8610
0
VERTEX
8
CUT
10
58.4880
20
176.5632
0
VERTEX
8
CUT
10
60.0067
20
175.9676
0
VERTEX
8
CUT
10
61.1085
20
175.9081
0
VERTEX
8
CUT
10
59.7387
20
176.9206
0
SEQEND
0
POLYLINE
8
CUT
66
1
70
1
10
0.0
20
0.0
30
0.0
0
VERTEX
8
CUT
10
47.6254
20
229.6824
0
VERTEX
8
CUT
10
56.2771
20
220.2492
0
VERTEX
8
CUT
10
56.7940
20
220.2640
0
VERTEX
8
CUT
10
56.9369
20
220.9498
0
VERTEX
8
CUT
10
57.3393
20
221.1896
0
VERTEX
8
CUT
10
60.2119
20
221.4623
0
VERTEX
8
CUT
10
60.2967
20
221.7807
0
VERTEX
8
CUT
10
60.1071
20
222.0501
0
VERTEX
8
CUT
10
56.9137
20
223.0218
0
VERTEX
8
CUT
10
54.4494
20
224.5362
0
VERTEX
8
CUT
10
53.1780
20
225.5927
0
VERTEX
8
CUT
10
50.4653
20
228.3937
0
VERTEX
8
CUT
10
46.4807
20
233.1785
0
VERTEX
8
CUT
10
45.9854
20
233.1773
0
VERTEX
8
CUT
10
45.7155
20
232.5245
0
VERTEX
8
CUT
10
46.1899
20
231.5890
0
SEQEND
0
POLYLINE
8
CUT
66
1
70
1
10
0.0
20
0.0
30
0.0
0
VERTEX
8
CUT
10
52.3337
20
263.6351
0
VERTEX
8
CUT
10
48.4499
20
263.6665
0
VERTEX
8
CUT
10
46.4746
20
264.0578
0
VERTEX
8
CUT
10
44.7651
20
264.8153
0
VERTEX
8
CUT
10
43.2603
20
266.0040
0
VERTEX
8
CUT
10
41.7185
20
267.9723
0
VERTEX
8
CUT
10
40.9272
20
270.0646
0
VERTEX
8
CUT
10
40.7993
20
271.2289
0
VERTEX
8
CUT
10
41.1449
20
273.4648
0
VERTEX
8
CUT
10
42.2710
20
275.6179
0
VERTEX
8
CUT
10
44.0589
20
277.2196
0
VERTEX
8
CUT
10
46.2013
20
277.9622
0
VERTEX
8
CUT
10
48.4504
20
277.7532
0
VERTEX
8
CUT
10
50.3158
20
276.7509
0
VERTEX
8
CUT
10
50.9258
20
276.1037
0
VERTEX
8
CUT
10
51.7077
20
274.6603
0
VERTEX
8
CUT
10
51.9351
20
272.9228
0
VERTEX
8
CUT
10
51.4274
20
270.8971
0
VERTEX
8
CUT
10
51.5016
20
270.4959
0
VERTEX
8
CUT
10
52.3304
20
270.3993
0
VERTEX
8
CUT
10
53.9848
20
270.9941
0
VERTEX
8
CUT
10
54.9844
20
271.6891
0
VERTEX
8
CUT
10
56.4835
20
273.5644
0
VERTEX
8
CUT
10
57.1653
20
275.7550
0
VERTEX
8
CUT
10
57.1214
20
276.8277
0
VERTEX
8
CUT
10
56.7536
20
277.9411
0
VERTEX
8
CUT
10
55.7277
20
279.2635
0
VERTEX
8
CUT
10
54.2283
20
280.4504
0
VERTEX
8
CUT
10
53.1640
20
280.9723
0
VERTEX
8
CUT
10
50.3206
20
281.5658
0
VERTEX
8
CUT
10
48.1414
20
281.6523
0
VERTEX
8
CUT
10
46.1460
20
281.4788
0
VERTEX
8
CUT
10
43.9775
20
280.9440
0
VERTEX
8
CUT
10
40.4082
20
279.3933
0
VERTEX
8
CUT
10
37.0999
20
277.0928
0
VERTEX
8
CUT
10
34.4092
20
274.5216
0
VERTEX
8
CUT
10
31.5036
20
271.0252
0
VERTEX
8
CUT
10
29.7761
20
268.3885
0
VERTEX
8
CUT
10
29.8463
20
267.9604
0
VERTEX
8
CUT
10
30.2327
20
267.8510
0
VERTEX
8
CUT
10
32.3447
20
268.9923
0
VERTEX
8
CUT
10
33.5013
20
269.3847
0
VERTEX
8
CUT
10
35.7575
20
269.7433
0
VERTEX
8
CUT
10
37.6564
20
269.4492
0
VERTEX
8
CUT
10
38.4133
20
269.0605
0
VERTEX
8
CUT
10
39.6376
20
267.8282
0
VERTEX
8
CUT
10
40.2535
20
266.8316
0
VERTEX
8
CUT
10
40.6212
20
265.4526
0
VERTEX
8
CUT
10
40.5180
20
264.4548
0
VERTEX
8
CUT
10
39.7498
20
262.6851
0
VERTEX
8
CUT
10
38.2231
20
261.1629
0
VERTEX
8
CUT
10
36.1386
20
260.0014
0
VERTEX
8
CUT
10
34.3031
20
259.3545
0
VERTEX
8
CUT
10
34.1049
20
258.9717
0
VERTEX
8
CUT
10
34.4180
20
258.6316
0
VERTEX
8
CUT
10
37.9091
20
258.1114
0
VERTEX
8
CUT
10
39.8422
20
257.1789
0
VERTEX
8
CUT
10
41.1108
20
255.8194
0
VERTEX
8
CUT
10
41.4957
20
254.9116
0
VERTEX
8
CUT
10
41.7812
20
253.1845
0
VERTEX
8
CUT
10
41.6802
20
252.5621
0
VERTEX
8
CUT
10
41.9022
20
252.1518
0
VERTEX
8
CUT
10
42.3319
20
252.2212
0
VERTEX
8
CUT
10
52.6854
20
263.2570
0
SEQEND
0
POLYLINE
8
CUT
66
1
70
1
10
0.0
20
0.0
30
0.0
0
VERTEX
8
CUT
10
32.3809
20
27.8943
0
VERTEX
8
CUT
10
34.6793
20
25.1785
0
VERTEX
8
CUT
10
38.1670
20
22.0791
0
VERTEX
8
CUT
10
40.5044
20
20.5436
0
VERTEX
8
CUT
10
42.8548
20
19.4704
0
VERTEX
8
CUT
10
46.9420
20
18.4335
0
VERTEX
8
CUT
10
48.3620
20
18.3183
0
VERTEX
8
CUT
10
51.2286
20
18.6083
0
VERTEX
8
CUT
10
52.6124
20
18.9419
0
VERTEX
8
CUT
10
54.7695
20
19.9224
0
VERTEX
8
CUT
10
55.6593
20
20.6122
0
VERTEX
8
CUT
10
56.7895
20
22.1956
0
VERTEX
8
CUT
10
57.0653
20
23.1006
0
VERTEX
8
CUT
10
57.1211
20
24.7439
0
VERTEX
8
CUT
10
56.3314
20
26.8109
0
VERTEX
8
CUT
10
54.6609
20
28.4947
0
VERTEX
8
CUT
10
52.6942
20
29.4240
0
VERTEX
8
CUT
10
51.9023
20
29.4298
0
VERTEX
8
CUT
10
51.5521
20
29.1209
0
VERTEX
8
CUT
10
51.9372
20
26.8879
0
VERTEX
8
CUT
10
51.8378
20
26.0811
0
VERTEX
8
CUT
10
51.2833
20
24.6125
0
VERTEX
8
CUT
10
50.1487
20
23.2637
0
VERTEX
8
CUT
10
48.5785
20
22.2385
0
VERTEX
8
CUT
10
46.6022
20
22.0962
0
VERTEX
8
CUT
10
44.5177
20
22.5953
0
VERTEX
8
CUT
10
42.8702
20
23.6630
0
VERTEX
8
CUT
10
41.6641
20
25.2025
0
VERTEX
8
CUT
10
40.9799
20
27.0353
0
VERTEX
8
CUT
10
40.8291
20
29.0285
0
VERTEX
8
CUT
10
41.2303
20
31.0203
0
VERTEX
8
CUT
10
42.2361
20
32.9437
0
VERTEX
8
CUT
10
43.8368
20
34.5396
0
VERTEX
8
CUT
10
46.1162
20
35.8137
0
VERTEX
8
CUT
10
48.8341
20
36.3604
0
VERTEX
8
CUT
10
52.0101
20
36.3246
0
VERTEX
8
CUT
10
52.3513
20
36.6922
0
VERTEX
8
CUT
10
49.6124
20
39.7295
0
VERTEX
8
CUT
10
42.3479
20
47.0158
0
VERTEX
8
CUT
10
41.8421
20
46.8029
0
VERTEX
8
CUT
10
41.6866
20
45.5424
0
VERTEX
8
CUT
10
41.3118
20
44.5733
0
VERTEX
8
CUT
10
39.9480
20
42.9590
0
VERTEX
8
CUT
10
37.8898
20
41.8047
0
VERTEX
8
CUT
10
36.6182
20
41.3992
0
VERTEX
8
CUT
10
34.7505
20
41.1310
0
VERTEX
8
CUT
10
34.4747
20
40.8052
0
VERTEX
8
CUT
10
34.6631
20
40.4223
0
VERTEX
8
CUT
10
38.0556
20
38.8890
0
VERTEX
8
CUT
10
39.6659
20
37.2478
0
VERTEX
8
CUT
10
40.2801
20
36.0193
0
VERTEX
8
CUT
10
40.5322
20
34.9240
0
VERTEX
8
CUT
10
40.3507
20
33.4064
0
VERTEX
8
CUT
10
39.8172
20
32.3137
0
VERTEX
8
CUT
10
39.0816
20
31.4918
0
VERTEX
8
CUT
10
38.1279
20
30.8763
0
VERTEX
8
CUT
10
37.0037
20
30.4997
0
VERTEX
8
CUT
10
35.7720
20
30.3457
0
VERTEX
8
CUT
10
33.0551
20
30.7822
0
VERTEX
8
CUT
10
30.3976
20
32.0941
0
VERTEX
8
CUT
10
29.9996
20
32.0526
0
VERTEX
8
CUT
10
29.8444
20
31.7201
0
VERTEX
8
CUT
10
30.4579
20
30.6178
0
SEQEND
0
POLYLINE
8
CUT
66
1
70
1
10
0.0
20
0.0
30
0.0
0
VERTEX
8
CUT
10
52.7869
20
178.9625
0
VERTEX
8
CUT
10
54.2528
20
178.3766
0
VERTEX
8
CUT
10
54.6775
20
178.5635
0
VERTEX
8
CUT
10
54.7029
20
178.8956
0
VERTEX
8
CUT
10
50.8008
20
187.6261
0
VERTEX
8
CUT
10
49.0964
20
190.5689
0
VERTEX
8
CUT
10
47.2194
20
192.7440
0
VERTEX
8
CUT
10
43.7769
20
195.2704
0
VERTEX
8
CUT
10
43.1886
20
196.0089
0
VERTEX
8
CUT
10
43.3704
20
196.4352
0
VERTEX
8
CUT
10
44.1198
20
197.0246
0
VERTEX
8
CUT
10
45.9084
20
197.7035
0
VERTEX
8
CUT
10
47.3062
20
197.8264
0
VERTEX
8
CUT
10
51.1522
20
197.5174
0
VERTEX
8
CUT
10
51.5341
20
197.8651
0
VERTEX
8
CUT
10
47.3587
20
203.4509
0
VERTEX
8
CUT
10
45.6632
20
206.4524
0
VERTEX
8
CUT
10
44.9424
20
208.4095
0
VERTEX
8
CUT
10
44.3743
20
211.2799
0
VERTEX
8
CUT
10
44.2817
20
213.9925
0
VERTEX
8
CUT
10
44.5487
20
214.9939
0
VERTEX
8
CUT
10
44.8705
20
215.1570
0
VERTEX
8
CUT
10
45.5667
20
214.8513
0
VERTEX
8
CUT
10
48.7405
20
212.0687
0
VERTEX
8
CUT
10
50.9224
20
210.5549
0
VERTEX
8
CUT
10
51.5241
20
210.3514
0
VERTEX
8
CUT
10
51.8270
20
210.7420
0
VERTEX
8
CUT
10
51.0209
20
213.2755
0
VERTEX
8
CUT
10
48.0264
20
219.3515
0
VERTEX
8
CUT
10
44.5345
20
225.2411
0
VERTEX
8
CUT
10
43.1303
20
227.1413
0
VERTEX
8
CUT
10
42.4886
20
227.6221
0
VERTEX
8
CUT
10
41.9742
20
227.4935
0
VERTEX
8
CUT
10
41.1249
20
226.4189
0
VERTEX
8
CUT
10
38.5981
20
222.5265
0
VERTEX
8
CUT
10
35.4466
20
217.1455
0
VERTEX
8
CUT
10
32.2349
20
211.1093
0
VERTEX
8
CUT
10
26.8459
20
199.0813
0
VERTEX
8
CUT
10
25.3614
20
195.1608
0
VERTEX
8
CUT
10
24.9852
20
193.8929
0
VERTEX
8
CUT
10
24.9862
20
193.2199
0
VERTEX
8
CUT
10
25.4654
20
192.7572
0
VERTEX
8
CUT
10
28.3137
20
191.0353
0
VERTEX
8
CUT
10
39.4690
20
185.0268
0
SEQEND
0
POLYLINE
8
CUT
66
1
70
1
10
0.0
20
0.0
30
0.0
0
VERTEX
8
CUT
10
24.2813
20
231.5063
0
VERTEX
8
CUT
10
23.2859
20
231.7047
0
VERTEX
8
CUT
10
22.4091
20
232.0899
0
VERTEX
8
CUT
10
21.0914
20
233.3234
0
VERTEX
8
CUT
10
20.3503
20
235.1311
0
VERTEX
8
CUT
10
20.2500
20
236.2494
0
VERTEX
8
CUT
10
20.3513
20
237.5029
0
VERTEX
8
CUT
10
20.9388
20
238.6782
0
VERTEX
8
CUT
10
22.2125
20
239.8944
0
VERTEX
8
CUT
10
23.3036
20
240.4272
0
VERTEX
8
CUT
10
24.4614
20
240.6484
0
VERTEX
8
CUT
10
25.6395
20
240.5221
0
VERTEX
8
CUT
10
26.7014
20
240.1136
0
VERTEX
8
CUT
10
27.6992
20
239.3927
0
VERTEX
8
CUT
10
28.4696
20
238.4058
0
VERTEX
8
CUT
10
29.3243
20
236.5372
0
VERTEX
8
CUT
10
29.8334
20
236.4416
0
VERTEX
8
CUT
10
36.4330
20
245.1229
0
VERTEX
8
CUT
10
40.3543
20
249.9330
0
VERTEX
8
CUT
10
40.2549
20
250.4715
0
VERTEX
8
CUT
10
37.0475
20
249.8809
0
VERTEX
8
CUT
10
30.0703
20
249.4659
0
VERTEX
8
CUT
10
27.0870
20
248.7297
0
VERTEX
8
CUT
10
24.7450
20
247.4315
0
VERTEX
8
CUT
10
23.6221
20
246.4902
0
VERTEX
8
CUT
10
22.4782
20
245.3436
0
VERTEX
8
CUT
10
21.0546
20
243.4821
0
VERTEX
8
CUT
10
19.8680
20
241.2519
0
VERTEX
8
CUT
10
18.9880
20
238.8378
0
VERTEX
8
CUT
10
18.4083
20
236.3160
0
VERTEX
8
CUT
10
18.1117
20
233.7568
0
VERTEX
8
CUT
10
18.1721
20
231.2009
0
VERTEX
8
CUT
10
18.5619
20
228.9049
0
VERTEX
8
CUT
10
19.3112
20
226.8917
0
VERTEX
8
CUT
10
20.1196
20
225.6862
0
VERTEX
8
CUT
10
20.8923
20
225.0707
0
VERTEX
8
CUT
10
21.3666
20
224.9600
0
VERTEX
8
CUT
10
21.8723
20
225.0081
0
VERTEX
8
CUT
10
22.7630
20
225.5047
0
VERTEX
8
CUT
10
24.9258
20
228.4880
0
VERTEX
8
CUT
10
26.3837
20
231.2208
0
VERTEX
8
CUT
10
26.0710
20
231.5572
0
SEQEND
0
POLYLINE
8
CUT
66
1
70
1
10
0.0
20
0.0
30
0.0
0
VERTEX
8
CUT
10
22.2141
20
75.2995
0
VERTEX
8
CUT
10
21.5182
20
75.6001
0
VERTEX
8
CUT
10
20.3124
20
74.9291
0
VERTEX
8
CUT
10
19.0241
20
73.1036
0
VERTEX
8
CUT
10
18.4674
20
71.3046
0
VERTEX
8
CUT
10
18.1972
20
68.8849
0
VERTEX
8
CUT
10
18.2267
20
65.5464
0
VERTEX
8
CUT
10
18.7838
20
61.8919
0
VERTEX
8
CUT
10
19.2819
20
60.2155
0
VERTEX
8
CUT
10
20.6902
20
57.1552
0
VERTEX
8
CUT
10
21.6282
20
55.7434
0
VERTEX
8
CUT
10
22.7406
20
54.4191
0
VERTEX
8
CUT
10
24.9374
20
52.3944
0
VERTEX
8
CUT
10
27.4415
20
51.0628
0
VERTEX
8
CUT
10
30.4833
20
50.3563
0
VERTEX
8
CUT
10
37.2880
20
50.0915
0
VERTEX
8
CUT
10
39.5296
20
49.8295
0
VERTEX
8
CUT
10
39.6232
20
50.3749
0
VERTEX
8
CUT
10
34.5536
20
56.9959
0
VERTEX
8
CUT
10
29.7569
20
63.7412
0
VERTEX
8
CUT
10
29.2403
20
63.6516
0
VERTEX
8
CUT
10
28.4755
20
62.1684
0
VERTEX
8
CUT
10
27.6481
20
61.2123
0
VERTEX
8
CUT
10
26.6561
20
60.4133
0
VERTEX
8
CUT
10
25.6905
20
59.9819
0
VERTEX
8
CUT
10
24.2942
20
59.9161
0
VERTEX
8
CUT
10
22.7886
20
60.2310
0
VERTEX
8
CUT
10
21.6127
20
60.9120
0
VERTEX
8
CUT
10
20.8657
20
61.8357
0
VERTEX
8
CUT
10
20.1664
20
63.5331
0
VERTEX
8
CUT
10
20.1017
20
64.6902
0
VERTEX
8
CUT
10
20.3523
20
65.7949
0
VERTEX
8
CUT
10
20.8577
20
66.8024
0
VERTEX
8
CUT
10
21.6387
20
67.6742
0
VERTEX
8
CUT
10
22.5977
20
68.3224
0
VERTEX
8
CUT
10
23.7759
20
68.7566
0
VERTEX
8
CUT
10
25.7630
20
68.9680
0
VERTEX
8
CUT
10
26.0653
20
69.3325
0
VERTEX
8
CUT
10
25.7581
20
70.0546
0
VERTEX
8
CUT
10
22.8401
20
74.7232
0
SEQEND
0
ENDSEC
0
EOF
