0
SECTION
2
HEADER
9
$ACADVER
1
AC1009
9
$INSUNITS
70
4
0
ENDSEC
0
SECTION
2
TABLES
0
TABLE
2
LAYER
70
1
0
LAYER
2
CUT
70
0
62
7
6
CONTINUOUS
0
ENDTAB
0
ENDSEC
0
SECTION
2
ENTITIES
0
POLYLINE
8
CUT
66
1
70
1
10
0.0
20
0.0
30
0.0
0
VERTEX
8
CUT
10
300.0000
20
0.0000
0
VERTEX
8
CUT
10
0.0000
20
0.0000
0
VERTEX
8
CUT
10
0.0000
20
300.0000
0
VERTEX
8
CUT
10
300.0000
20
300.0000
0
SEQEND
0
POLYLINE
8
CUT
66
1
70
1
10
0.0
20
0.0
30
0.0
0
VERTEX
8
CUT
10
242.6000
20
170.4200
0
VERTEX
8
CUT
10
240.4200
20
171.3900
0
VERTEX
8
CUT
10
238.8200
20
171.4000
0
VERTEX
8
CUT
10
237.0500
20
170.6500
0
VERTEX
8
CUT
10
236.1400
20
169.9200
0
VERTEX
8
CUT
10
235.4600
20
169.0600
0
VERTEX
8
CUT
10
234.4700
20
166.6200
0
VERTEX
8
CUT
10
234.4500
20
165.6800
0
VERTEX
8
CUT
10
235.1700
20
163.5100
0
VERTEX
8
CUT
10
236.4400
20
162.0500
0
VERTEX
8
CUT
10
238.0700
20
161.1000
0
VERTEX
8
CUT
10
238.7700
20
160.9300
0
VERTEX
8
CUT
10
240.1500
20
161.0700
0
VERTEX
8
CUT
10
240.8600
20
160.8500
0
VERTEX
8
CUT
10
243.1200
20
162.0900
0
VERTEX
8
CUT
10
244.0200
20
163.2500
0
VERTEX
8
CUT
10
244.7400
20
164.9400
0
VERTEX
8
CUT
10
244.7500
20
167.2700
0
VERTEX
8
CUT
10
244.2400
20
168.5700
0
SEQEND
0
POLYLINE
8
CUT
66
1
70
1
10
0.0
20
0.0
30
0.0
0
VERTEX
8
CUT
10
224.8700
20
208.8700
0
VERTEX
8
CUT
10
223.9800
20
207.9900
0
VERTEX
8
CUT
10
223.2100
20
206.0800
0
VERTEX
8
CUT
10
223.9600
20
204.5900
0
VERTEX
8
CUT
10
224.9800
20
203.5100
0
VERTEX
8
CUT
10
226.5200
20
203.1400
0
VERTEX
8
CUT
10
227.7800
20
203.6400
0
VERTEX
8
CUT
10
228.9600
20
204.8200
0
VERTEX
8
CUT
10
229.2200
20
205.3600
0
VERTEX
8
CUT
10
229.2100
20
207.2000
0
VERTEX
8
CUT
10
228.7300
20
208.2000
0
VERTEX
8
CUT
10
228.2800
20
208.6500
0
VERTEX
8
CUT
10
226.8400
20
209.3700
0
VERTEX
8
CUT
10
225.8900
20
209.3800
0
SEQEND
0
POLYLINE
8
CUT
66
1
70
1
10
0.0
20
0.0
30
0.0
0
VERTEX
8
CUT
10
211.7800
20
61.2600
0
VERTEX
8
CUT
10
210.7700
20
60.7500
0
VERTEX
8
CUT
10
210.1000
20
60.0700
0
VERTEX
8
CUT
10
209.1200
20
57.9600
0
VERTEX
8
CUT
10
209.9500
20
55.8600
0
VERTEX
8
CUT
10
210.5600
20
55.2800
0
VERTEX
8
CUT
10
212.0400
20
54.5500
0
VERTEX
8
CUT
10
213.4100
20
54.5500
0
VERTEX
8
CUT
10
214.3800
20
55.0300
0
VERTEX
8
CUT
10
215.4900
20
56.1000
0
VERTEX
8
CUT
10
215.8300
20
56.7400
0
VERTEX
8
CUT
10
215.8400
20
58.7700
0
VERTEX
8
CUT
10
215.6000
20
59.3700
0
VERTEX
8
CUT
10
214.5600
20
60.6500
0
VERTEX
8
CUT
10
213.4200
20
61.2600
0
SEQEND
0
POLYLINE
8
CUT
66
1
70
1
10
0.0
20
0.0
30
0.0
0
VERTEX
8
CUT
10
163.4700
20
199.2400
0
VERTEX
8
CUT
10
168.7600
20
196.1100
0
VERTEX
8
CUT
10
171.6600
20
194.1800
0
VERTEX
8
CUT
10
175.5200
20
191.2700
0
VERTEX
8
CUT
10
177.9000
20
189.1600
0
VERTEX
8
CUT
10
180.5500
20
186.4900
0
VERTEX
8
CUT
10
183.2100
20
183.3300
0
VERTEX
8
CUT
10
185.6200
20
179.7300
0
VERTEX
8
CUT
10
187.3000
20
176.6200
0
VERTEX
8
CUT
10
189.2300
20
171.8100
0
VERTEX
8
CUT
10
190.2100
20
167.8600
0
VERTEX
8
CUT
10
190.4900
20
164.5200
0
VERTEX
8
CUT
10
190.7000
20
163.9000
0
VERTEX
8
CUT
10
190.7000
20
161.4000
0
VERTEX
8
CUT
10
190.5000
20
160.8100
0
VERTEX
8
CUT
10
190.4600
20
158.7800
0
VERTEX
8
CUT
10
190.2000
20
157.1800
0
VERTEX
8
CUT
10
189.2400
20
153.3400
0
VERTEX
8
CUT
10
188.0900
20
150.3000
0
VERTEX
8
CUT
10
188.1500
20
149.7400
0
VERTEX
8
CUT
10
188.6700
20
149.6700
0
VERTEX
8
CUT
10
193.0300
20
154.5400
0
VERTEX
8
CUT
10
194.6500
20
156.5500
0
VERTEX
8
CUT
10
195.2300
20
157.2200
0
VERTEX
8
CUT
10
195.5100
20
157.6300
0
VERTEX
8
CUT
10
195.5500
20
157.6800
0
VERTEX
8
CUT
10
195.5600
20
157.6900
0
VERTEX
8
CUT
10
195.9600
20
158.1800
0
VERTEX
8
CUT
10
197.4200
20
160.3400
0
VERTEX
8
CUT
10
197.4200
20
160.3500
0
VERTEX
8
CUT
10
197.4400
20
160.3800
0
VERTEX
8
CUT
10
199.1100
20
163.4900
0
VERTEX
8
CUT
10
199.4300
20
164.8700
0
VERTEX
8
CUT
10
200.5500
20
167.8100
0
VERTEX
8
CUT
10
201.0800
20
170.3200
0
VERTEX
8
CUT
10
201.5000
20
171.4000
0
VERTEX
8
CUT
10
201.9800
20
174.7900
0
VERTEX
8
CUT
10
201.9800
20
177.9900
0
VERTEX
8
CUT
10
201.7900
20
178.5400
0
VERTEX
8
CUT
10
201.7400
20
180.6400
0
VERTEX
8
CUT
10
201.2700
20
183.5500
0
VERTEX
8
CUT
10
199.8200
20
188.6000
0
VERTEX
8
CUT
10
198.6200
20
191.5000
0
VERTEX
8
CUT
10
196.7200
20
195.2900
0
VERTEX
8
CUT
10
193.1200
20
200.7900
0
VERTEX
8
CUT
10
189.1400
20
205.4900
0
VERTEX
8
CUT
10
184.2500
20
210.1500
0
VERTEX
8
CUT
10
180.5000
20
213.1700
0
VERTEX
8
CUT
10
173.1000
20
218.4300
0
VERTEX
8
CUT
10
165.1600
20
223.6100
0
VERTEX
8
CUT
10
159.7400
20
227.8400
0
VERTEX
8
CUT
10
155.0100
20
232.5500
0
VERTEX
8
CUT
10
152.7000
20
235.3300
0
VERTEX
8
CUT
10
150.4600
20
238.8100
0
VERTEX
8
CUT
10
148.5600
20
242.6000
0
VERTEX
8
CUT
10
147.3300
20
246.0300
0
VERTEX
8
CUT
10
146.6100
20
248.9300
0
VERTEX
8
CUT
10
146.1300
20
251.9200
0
VERTEX
8
CUT
10
146.1300
20
256.8600
0
VERTEX
8
CUT
10
146.8600
20
261.3500
0
VERTEX
8
CUT
10
148.3200
20
265.4900
0
VERTEX
8
CUT
10
149.5100
20
267.8600
0
VERTEX
8
CUT
10
150.7600
20
269.8500
0
VERTEX
8
CUT
10
154.0400
20
273.8900
0
VERTEX
8
CUT
10
156.9500
20
276.5200
0
VERTEX
8
CUT
10
159.3700
20
278.2400
0
VERTEX
8
CUT
10
159.3900
20
278.7900
0
VERTEX
8
CUT
10
157.6300
20
279.1500
0
VERTEX
8
CUT
10
156.1300
20
278.7100
0
VERTEX
8
CUT
10
153.0300
20
278.4100
0
VERTEX
8
CUT
10
146.8100
20
276.9900
0
VERTEX
8
CUT
10
143.5800
20
275.8600
0
VERTEX
8
CUT
10
142.9500
20
275.7800
0
VERTEX
8
CUT
10
141.7400
20
275.1500
0
VERTEX
8
CUT
10
140.6000
20
274.8500
0
VERTEX
8
CUT
10
139.8100
20
274.2100
0
VERTEX
8
CUT
10
136.4700
20
272.4200
0
VERTEX
8
CUT
10
134.3300
20
270.9900
0
VERTEX
8
CUT
10
131.9200
20
269.0500
0
VERTEX
8
CUT
10
128.3900
20
265.5000
0
VERTEX
8
CUT
10
125.5400
20
261.5000
0
VERTEX
8
CUT
10
124.3400
20
259.3500
0
VERTEX
8
CUT
10
124.0100
20
257.9200
0
VERTEX
8
CUT
10
123.3700
20
256.6900
0
VERTEX
8
CUT
10
122.4100
20
253.8000
0
VERTEX
8
CUT
10
121.9300
20
251.6200
0
VERTEX
8
CUT
10
121.8600
20
250.8000
0
VERTEX
8
CUT
10
121.6900
20
249.9300
0
VERTEX
8
CUT
10
121.6500
20
248.3400
0
VERTEX
8
CUT
10
121.5800
20
248.0600
0
VERTEX
8
CUT
10
121.5800
20
248.0500
0
VERTEX
8
CUT
10
121.5700
20
248.0400
0
VERTEX
8
CUT
10
121.5700
20
248.0300
0
VERTEX
8
CUT
10
121.4500
20
247.6500
0
VERTEX
8
CUT
10
121.4500
20
247.5600
0
VERTEX
8
CUT
10
121.4700
20
243.7800
0
VERTEX
8
CUT
10
121.6500
20
243.2800
0
VERTEX
8
CUT
10
121.9300
20
239.9800
0
VERTEX
8
CUT
10
122.6400
20
236.8600
0
VERTEX
8
CUT
10
124.8200
20
230.8300
0
VERTEX
8
CUT
10
126.0000
20
228.4700
0
VERTEX
8
CUT
10
128.1700
20
224.8600
0
VERTEX
8
CUT
10
131.0600
20
221.0300
0
VERTEX
8
CUT
10
133.9800
20
217.8200
0
VERTEX
8
CUT
10
139.3200
20
213.2400
0
VERTEX
8
CUT
10
145.5500
20
208.9100
0
VERTEX
8
CUT
10
152.2700
20
205.0700
0
SEQEND
0
POLYLINE
8
CUT
66
1
70
1
10
0.0
20
0.0
30
0.0
0
VERTEX
8
CUT
10
183.0800
20
69.6600
0
VERTEX
8
CUT
10
183.5100
20
69.3500
0
VERTEX
8
CUT
10
183.8200
20
69.5800
0
VERTEX
8
CUT
10
185.6000
20
73.1700
0
VERTEX
8
CUT
10
189.7900
20
78.9200
0
VERTEX
8
CUT
10
191.4500
20
82.2300
0
VERTEX
8
CUT
10
192.4200
20
85.1300
0
VERTEX
8
CUT
10
192.9100
20
87.5800
0
VERTEX
8
CUT
10
193.1600
20
90.8900
0
VERTEX
8
CUT
10
192.9100
20
95.5800
0
VERTEX
8
CUT
10
192.7100
20
96.0800
0
VERTEX
8
CUT
10
192.6700
20
97.9600
0
VERTEX
8
CUT
10
192.4700
20
98.7500
0
VERTEX
8
CUT
10
192.5000
20
106.4900
0
VERTEX
8
CUT
10
193.1900
20
110.3200
0
VERTEX
8
CUT
10
193.9200
20
112.9800
0
VERTEX
8
CUT
10
197.6800
20
122.4000
0
VERTEX
8
CUT
10
198.6400
20
125.3000
0
VERTEX
8
CUT
10
198.6000
20
125.8900
0
VERTEX
8
CUT
10
198.2900
20
126.0300
0
VERTEX
8
CUT
10
198.0200
20
125.9100
0
VERTEX
8
CUT
10
194.7800
20
121.3000
0
VERTEX
8
CUT
10
192.3900
20
118.6200
0
VERTEX
8
CUT
10
189.9400
20
116.4500
0
VERTEX
8
CUT
10
185.9500
20
113.6800
0
VERTEX
8
CUT
10
179.9700
20
110.7000
0
VERTEX
8
CUT
10
179.6300
20
110.1900
0
VERTEX
8
CUT
10
179.6400
20
109.8700
0
VERTEX
8
CUT
10
179.9800
20
109.4700
0
VERTEX
8
CUT
10
183.7700
20
105.8700
0
VERTEX
8
CUT
10
185.6400
20
103.2400
0
VERTEX
8
CUT
10
187.0900
20
99.6100
0
VERTEX
8
CUT
10
187.8200
20
95.6500
0
VERTEX
8
CUT
10
187.8300
20
93.0700
0
VERTEX
8
CUT
10
187.3400
20
89.5700
0
VERTEX
8
CUT
10
184.7600
20
81.5500
0
VERTEX
8
CUT
10
183.5700
20
76.2600
0
VERTEX
8
CUT
10
183.0700
20
71.4200
0
SEQEND
0
POLYLINE
8
CUT
66
1
70
1
10
0.0
20
0.0
30
0.0
0
VERTEX
8
CUT
10
183.8100
20
144.3900
0
VERTEX
8
CUT
10
183.3800
20
144.4800
0
VERTEX
8
CUT
10
182.4400
20
143.7800
0
VERTEX
8
CUT
10
181.6700
20
142.9700
0
VERTEX
8
CUT
10
181.4000
20
142.1000
0
VERTEX
8
CUT
10
181.6700
20
141.7700
0
VERTEX
8
CUT
10
182.0600
20
141.8500
0
VERTEX
8
CUT
10
183.8600
20
143.9000
0
SEQEND
0
POLYLINE
8
CUT
66
1
70
1
10
0.0
20
0.0
30
0.0
0
VERTEX
8
CUT
10
179.9100
20
140.8400
0
VERTEX
8
CUT
10
178.9800
20
140.7900
0
VERTEX
8
CUT
10
177.3600
20
139.7200
0
VERTEX
8
CUT
10
176.6300
20
139.6000
0
VERTEX
8
CUT
10
175.6700
20
139.1300
0
VERTEX
8
CUT
10
174.8900
20
138.1700
0
VERTEX
8
CUT
10
174.1500
20
137.7700
0
VERTEX
8
CUT
10
172.6200
20
137.7100
0
VERTEX
8
CUT
10
169.8900
20
137.0200
0
VERTEX
8
CUT
10
167.2900
20
137.2400
0
VERTEX
8
CUT
10
166.4100
20
137.0300
0
VERTEX
8
CUT
10
161.4600
20
136.9900
0
VERTEX
8
CUT
10
159.4800
20
136.5600
0
VERTEX
8
CUT
10
157.8000
20
136.5100
0
VERTEX
8
CUT
10
153.9300
20
135.5400
0
VERTEX
8
CUT
10
150.6600
20
133.5500
0
VERTEX
8
CUT
10
150.5700
20
133.1000
0
VERTEX
8
CUT
10
151.0000
20
132.8800
0
VERTEX
8
CUT
10
154.5400
20
134.2900
0
VERTEX
8
CUT
10
158.7400
20
135.0000
0
VERTEX
8
CUT
10
168.3200
20
135.0600
0
VERTEX
8
CUT
10
170.1700
20
135.3000
0
VERTEX
8
CUT
10
173.5600
20
136.2600
0
VERTEX
8
CUT
10
176.1800
20
137.4600
0
VERTEX
8
CUT
10
178.8900
20
139.1900
0
VERTEX
8
CUT
10
180.1200
20
140.1600
0
VERTEX
8
CUT
10
180.2300
20
140.5500
0
SEQEND
0
POLYLINE
8
CUT
66
1
70
1
10
0.0
20
0.0
30
0.0
0
VERTEX
8
CUT
10
148.3600
20
48.1300
0
VERTEX
8
CUT
10
148.4000
20
47.9700
0
VERTEX
8
CUT
10
148.7500
20
46.0300
0
VERTEX
8
CUT
10
148.7300
20
45.9900
0
VERTEX
8
CUT
10
148.7300
20
44.9700
0
VERTEX
8
CUT
10
149.2400
20
43.4000
0
VERTEX
8
CUT
10
149.3300
20
43.4200
0
VERTEX
8
CUT
10
150.1200
20
40.2500
0
VERTEX
8
CUT
10
151.3200
20
36.3900
0
VERTEX
8
CUT
10
152.5300
20
33.2500
0
VERTEX
8
CUT
10
152.9900
20
32.4000
0
VERTEX
8
CUT
10
152.9800
20
32.3900
0
VERTEX
8
CUT
10
154.1900
20
29.9400
0
VERTEX
8
CUT
10
154.5700
20
29.4400
0
VERTEX
8
CUT
10
154.6600
20
29.2700
0
VERTEX
8
CUT
10
154.8200
20
29.1100
0
VERTEX
8
CUT
10
154.8400
20
29.0900
0
VERTEX
8
CUT
10
154.9800
20
28.9000
0
VERTEX
8
CUT
10
155.7900
20
28.1100
0
VERTEX
8
CUT
10
155.8700
20
28.0300
0
VERTEX
8
CUT
10
155.9200
20
27.9800
0
VERTEX
8
CUT
10
155.9500
20
27.9500
0
VERTEX
8
CUT
10
156.6300
20
27.2400
0
VERTEX
8
CUT
10
156.8300
20
27.0800
0
VERTEX
8
CUT
10
156.8400
20
27.0700
0
VERTEX
8
CUT
10
156.8500
20
27.0700
0
VERTEX
8
CUT
10
156.8700
20
27.0500
0
VERTEX
8
CUT
10
157.0600
20
26.8600
0
VERTEX
8
CUT
10
157.9000
20
26.2100
0
VERTEX
8
CUT
10
157.9800
20
26.1500
0
VERTEX
8
CUT
10
157.9900
20
26.1500
0
VERTEX
8
CUT
10
158.0100
20
26.1300
0
VERTEX
8
CUT
10
161.1100
20
24.7000
0
VERTEX
8
CUT
10
162.3800
20
24.4500
0
VERTEX
8
CUT
10
162.5500
20
24.4500
0
VERTEX
8
CUT
10
162.6700
20
24.4300
0
VERTEX
8
CUT
10
163.7200
20
24.4500
0
VERTEX
8
CUT
10
165.6700
20
24.9300
0
VERTEX
8
CUT
10
167.0800
20
25.6500
0
VERTEX
8
CUT
10
169.2800
20
27.8000
0
VERTEX
8
CUT
10
170.4100
20
29.1800
0
VERTEX
8
CUT
10
171.8600
20
32.0600
0
VERTEX
8
CUT
10
173.5500
20
37.3600
0
VERTEX
8
CUT
10
174.5100
20
42.8200
0
VERTEX
8
CUT
10
174.5000
20
49.2200
0
VERTEX
8
CUT
10
173.5500
20
53.6200
0
VERTEX
8
CUT
10
171.4000
20
58.8900
0
VERTEX
8
CUT
10
167.4200
20
65.6000
0
VERTEX
8
CUT
10
165.5200
20
69.3900
0
VERTEX
8
CUT
10
164.7700
20
71.3900
0
VERTEX
8
CUT
10
164.0400
20
74.4700
0
VERTEX
8
CUT
10
164.0500
20
79.4400
0
VERTEX
8
CUT
10
165.0200
20
82.4300
0
VERTEX
8
CUT
10
166.5800
20
85.0100
0
VERTEX
8
CUT
10
170.6600
20
89.4300
0
VERTEX
8
CUT
10
171.4000
20
90.8700
0
VERTEX
8
CUT
10
171.6500
20
92.2300
0
VERTEX
8
CUT
10
171.6400
20
94.8100
0
VERTEX
8
CUT
10
171.6500
20
94.8800
0
VERTEX
8
CUT
10
171.4000
20
95.6700
0
VERTEX
8
CUT
10
171.0000
20
96.3400
0
VERTEX
8
CUT
10
170.9900
20
96.3600
0
VERTEX
8
CUT
10
170.9900
20
96.3700
0
VERTEX
8
CUT
10
170.6800
20
97.0800
0
VERTEX
8
CUT
10
170.4100
20
97.3500
0
VERTEX
8
CUT
10
170.3500
20
97.4500
0
VERTEX
8
CUT
10
169.0000
20
98.7600
0
VERTEX
8
CUT
10
166.3200
20
99.9600
0
VERTEX
8
CUT
10
163.7000
20
99.9700
0
VERTEX
8
CUT
10
162.1000
20
99.7200
0
VERTEX
8
CUT
10
158.9600
20
98.7600
0
VERTEX
8
CUT
10
155.1400
20
96.8500
0
VERTEX
8
CUT
10
152.9600
20
95.4000
0
VERTEX
8
CUT
10
149.3100
20
92.4500
0
VERTEX
8
CUT
10
144.2700
20
87.7600
0
VERTEX
8
CUT
10
140.5600
20
85.0000
0
VERTEX
8
CUT
10
136.9200
20
83.3100
0
VERTEX
8
CUT
10
134.4700
20
82.5700
0
VERTEX
8
CUT
10
131.6400
20
82.0900
0
VERTEX
8
CUT
10
126.5600
20
82.0700
0
VERTEX
8
CUT
10
126.2200
20
81.7700
0
VERTEX
8
CUT
10
126.3600
20
81.3700
0
VERTEX
8
CUT
10
132.0000
20
77.8300
0
VERTEX
8
CUT
10
132.0200
20
77.8200
0
VERTEX
8
CUT
10
132.2100
20
77.6600
0
VERTEX
8
CUT
10
132.3400
20
77.5500
0
VERTEX
8
CUT
10
132.4100
20
77.4800
0
VERTEX
8
CUT
10
132.4200
20
77.4800
0
VERTEX
8
CUT
10
135.7500
20
74.5800
0
VERTEX
8
CUT
10
136.4000
20
73.9200
0
VERTEX
8
CUT
10
136.5100
20
73.8100
0
VERTEX
8
CUT
10
136.5200
20
73.8000
0
VERTEX
8
CUT
10
139.1900
20
70.9300
0
VERTEX
8
CUT
10
140.4500
20
69.2300
0
VERTEX
8
CUT
10
141.7700
20
67.2700
0
VERTEX
8
CUT
10
142.7300
20
65.4800
0
VERTEX
8
CUT
10
143.9800
20
62.8500
0
VERTEX
8
CUT
10
144.4900
20
61.6400
0
VERTEX
8
CUT
10
145.3400
20
59.2000
0
VERTEX
8
CUT
10
145.3500
20
59.1800
0
VERTEX
8
CUT
10
145.3600
20
59.1700
0
VERTEX
8
CUT
10
145.3600
20
59.1600
0
VERTEX
8
CUT
10
146.2200
20
56.4700
0
VERTEX
8
CUT
10
146.2300
20
56.4400
0
VERTEX
8
CUT
10
146.2400
20
56.4100
0
VERTEX
8
CUT
10
146.2400
20
56.4000
0
VERTEX
8
CUT
10
147.1200
20
52.9500
0
VERTEX
8
CUT
10
148.2100
20
48.3700
0
VERTEX
8
CUT
10
148.3600
20
48.1400
0
SEQEND
0
POLYLINE
8
CUT
66
1
70
1
10
0.0
20
0.0
30
0.0
0
VERTEX
8
CUT
10
152.2800
20
197.8800
0
VERTEX
8
CUT
10
152.7800
20
198.0100
0
VERTEX
8
CUT
10
152.7800
20
198.4700
0
VERTEX
8
CUT
10
152.0500
20
199.1000
0
VERTEX
8
CUT
10
148.7100
20
200.6300
0
VERTEX
8
CUT
10
146.5900
20
201.9600
0
VERTEX
8
CUT
10
145.3500
20
202.4500
0
VERTEX
8
CUT
10
144.4000
20
202.5500
0
VERTEX
8
CUT
10
142.5200
20
203.6400
0
VERTEX
8
CUT
10
139.4000
20
204.9300
0
VERTEX
8
CUT
10
137.0200
20
206.2700
0
VERTEX
8
CUT
10
132.7100
20
208.2900
0
VERTEX
8
CUT
10
122.6600
20
214.2800
0
VERTEX
8
CUT
10
120.7600
20
216.0400
0
VERTEX
8
CUT
10
118.0100
20
217.9500
0
VERTEX
8
CUT
10
116.1700
20
219.9600
0
VERTEX
8
CUT
10
114.7300
20
220.9500
0
VERTEX
8
CUT
10
113.2100
20
223.1600
0
VERTEX
8
CUT
10
110.8800
20
225.3300
0
VERTEX
8
CUT
10
107.9300
20
229.2500
0
VERTEX
8
CUT
10
106.8900
20
231.6200
0
VERTEX
8
CUT
10
105.9900
20
233.0300
0
VERTEX
8
CUT
10
105.7000
20
235.1900
0
VERTEX
8
CUT
10
105.2100
20
236.6500
0
VERTEX
8
CUT
10
104.8000
20
236.8700
0
VERTEX
8
CUT
10
104.4900
20
236.6100
0
VERTEX
8
CUT
10
104.4800
20
235.9600
0
VERTEX
8
CUT
10
105.2200
20
233.0000
0
VERTEX
8
CUT
10
106.6500
20
229.1700
0
VERTEX
8
CUT
10
108.3200
20
225.8400
0
VERTEX
8
CUT
10
110.9700
20
221.7700
0
VERTEX
8
CUT
10
113.5300
20
218.7200
0
VERTEX
8
CUT
10
115.5600
20
216.6600
0
VERTEX
8
CUT
10
120.9300
20
212.2700
0
VERTEX
8
CUT
10
125.0300
20
209.6100
0
VERTEX
8
CUT
10
131.6900
20
206.2700
0
VERTEX
8
CUT
10
136.2600
20
204.3500
0
VERTEX
8
CUT
10
146.7200
20
200.4500
0
SEQEND
0
POLYLINE
8
CUT
66
1
70
1
10
0.0
20
0.0
30
0.0
0
VERTEX
8
CUT
10
132.2000
20
122.4000
0
VERTEX
8
CUT
10
136.3200
20
123.6100
0
VERTEX
8
CUT
10
140.1100
20
125.5100
0
VERTEX
8
CUT
10
142.1000
20
127.0100
0
VERTEX
8
CUT
10
142.0600
20
127.3100
0
VERTEX
8
CUT
10
141.7800
20
127.4900
0
VERTEX
8
CUT
10
140.5600
20
127.1900
0
VERTEX
8
CUT
10
136.7800
20
125.1600
0
VERTEX
8
CUT
10
135.9200
20
124.8700
0
VERTEX
8
CUT
10
131.5600
20
124.5700
0
VERTEX
8
CUT
10
129.0500
20
124.1200
0
VERTEX
8
CUT
10
126.4200
20
124.3800
0
VERTEX
8
CUT
10
123.1200
20
125.2900
0
VERTEX
8
CUT
10
122.0700
20
125.3400
0
VERTEX
8
CUT
10
121.0200
20
125.6100
0
VERTEX
8
CUT
10
118.6200
20
126.8200
0
VERTEX
8
CUT
10
117.2100
20
127.8900
0
VERTEX
8
CUT
10
114.5400
20
129.4700
0
VERTEX
8
CUT
10
112.6600
20
130.9900
0
VERTEX
8
CUT
10
106.7100
20
135.0400
0
VERTEX
8
CUT
10
105.4500
20
135.5500
0
VERTEX
8
CUT
10
103.4100
20
135.8200
0
VERTEX
8
CUT
10
103.0500
20
135.5300
0
VERTEX
8
CUT
10
103.2100
20
135.1000
0
VERTEX
8
CUT
10
105.9000
20
133.7800
0
VERTEX
8
CUT
10
108.6200
20
132.0500
0
VERTEX
8
CUT
10
114.0000
20
127.9300
0
VERTEX
8
CUT
10
117.8400
20
125.2900
0
VERTEX
8
CUT
10
121.1800
20
123.6100
0
VERTEX
8
CUT
10
124.1200
20
122.6400
0
VERTEX
8
CUT
10
127.5400
20
122.1500
0
VERTEX
8
CUT
10
129.8700
20
122.1500
0
VERTEX
8
CUT
10
130.5800
20
122.3600
0
SEQEND
0
POLYLINE
8
CUT
66
1
70
1
10
0.0
20
0.0
30
0.0
0
VERTEX
8
CUT
10
126.0100
20
173.0500
0
VERTEX
8
CUT
10
127.4600
20
174.0400
0
VERTEX
8
CUT
10
128.1900
20
174.8300
0
VERTEX
8
CUT
10
128.0600
20
175.1800
0
VERTEX
8
CUT
10
127.7400
20
175.2600
0
VERTEX
8
CUT
10
126.3800
20
174.5600
0
VERTEX
8
CUT
10
125.2700
20
174.6800
0
VERTEX
8
CUT
10
124.3500
20
174.5000
0
VERTEX
8
CUT
10
123.5300
20
174.0900
0
VERTEX
8
CUT
10
121.7200
20
173.7900
0
VERTEX
8
CUT
10
120.5800
20
173.3500
0
VERTEX
8
CUT
10
118.9200
20
173.1000
0
VERTEX
8
CUT
10
116.4400
20
173.1100
0
VERTEX
8
CUT
10
109.8200
20
174.3300
0
VERTEX
8
CUT
10
108.3400
20
174.9700
0
VERTEX
8
CUT
10
105.4900
20
175.7800
0
VERTEX
8
CUT
10
101.9000
20
178.0700
0
VERTEX
8
CUT
10
100.1600
20
178.5600
0
VERTEX
8
CUT
10
98.8600
20
178.6300
0
VERTEX
8
CUT
10
97.7700
20
179.2800
0
VERTEX
8
CUT
10
96.6500
20
179.2800
0
VERTEX
8
CUT
10
95.8900
20
178.9200
0
VERTEX
8
CUT
10
95.1600
20
178.8200
0
VERTEX
8
CUT
10
94.8500
20
178.5300
0
VERTEX
8
CUT
10
95.0300
20
178.1000
0
VERTEX
8
CUT
10
96.6200
20
177.9600
0
VERTEX
8
CUT
10
99.2400
20
176.1600
0
VERTEX
8
CUT
10
103.7400
20
174.0200
0
VERTEX
8
CUT
10
109.5300
20
172.0900
0
VERTEX
8
CUT
10
113.1500
20
171.1400
0
VERTEX
8
CUT
10
118.1000
20
170.8800
0
VERTEX
8
CUT
10
119.9100
20
170.9000
0
VERTEX
8
CUT
10
121.4400
20
171.1400
0
VERTEX
8
CUT
10
122.4700
20
171.4000
0
SEQEND
0
POLYLINE
8
CUT
66
1
70
1
10
0.0
20
0.0
30
0.0
0
VERTEX
8
CUT
10
105.1000
20
112.6000
0
VERTEX
8
CUT
10
111.1700
20
113.5600
0
VERTEX
8
CUT
10
116.4600
20
115.0000
0
VERTEX
8
CUT
10
119.4900
20
116.1300
0
VERTEX
8
CUT
10
119.3500
20
116.6600
0
VERTEX
8
CUT
10
116.9400
20
117.2600
0
VERTEX
8
CUT
10
115.0700
20
118.2000
0
VERTEX
8
CUT
10
113.9800
20
119.0100
0
VERTEX
8
CUT
10
112.5600
20
120.6700
0
VERTEX
8
CUT
10
111.3500
20
122.5400
0
VERTEX
8
CUT
10
110.8500
20
122.9300
0
VERTEX
8
CUT
10
110.5400
20
122.8000
0
VERTEX
8
CUT
10
110.4500
20
122.4700
0
VERTEX
8
CUT
10
110.8800
20
121.5900
0
VERTEX
8
CUT
10
111.3900
20
119.5000
0
VERTEX
8
CUT
10
111.3600
20
117.8900
0
VERTEX
8
CUT
10
110.9700
20
117.2400
0
VERTEX
8
CUT
10
110.3700
20
116.7400
0
VERTEX
8
CUT
10
107.8700
20
116.2500
0
VERTEX
8
CUT
10
106.2400
20
116.2100
0
VERTEX
8
CUT
10
105.2200
20
115.9900
0
VERTEX
8
CUT
10
104.2700
20
116.3100
0
VERTEX
8
CUT
10
103.6700
20
116.9100
0
VERTEX
8
CUT
10
103.3500
20
117.6500
0
VERTEX
8
CUT
10
103.8100
20
121.3600
0
VERTEX
8
CUT
10
103.3200
20
124.3000
0
VERTEX
8
CUT
10
102.3400
20
126.2700
0
VERTEX
8
CUT
10
101.3100
20
127.4500
0
VERTEX
8
CUT
10
100.6700
20
127.2400
0
VERTEX
8
CUT
10
99.2400
20
125.5300
0
VERTEX
8
CUT
10
98.2800
20
123.3600
0
VERTEX
8
CUT
10
97.7200
20
119.5800
0
VERTEX
8
CUT
10
96.9500
20
118.5400
0
VERTEX
8
CUT
10
96.1800
20
118.4300
0
VERTEX
8
CUT
10
95.4900
20
118.8500
0
VERTEX
8
CUT
10
94.4400
20
119.9200
0
VERTEX
8
CUT
10
92.8700
20
122.4700
0
VERTEX
8
CUT
10
92.6100
20
123.1800
0
VERTEX
8
CUT
10
92.6000
20
125.8200
0
VERTEX
8
CUT
10
92.9000
20
126.9300
0
VERTEX
8
CUT
10
94.1000
20
129.0800
0
VERTEX
8
CUT
10
95.2500
20
130.2700
0
VERTEX
8
CUT
10
96.7800
20
131.3400
0
VERTEX
8
CUT
10
96.7900
20
131.8400
0
VERTEX
8
CUT
10
96.4900
20
131.9900
0
VERTEX
8
CUT
10
93.2100
20
132.0300
0
VERTEX
8
CUT
10
90.5500
20
132.5000
0
VERTEX
8
CUT
10
88.9900
20
133.0200
0
VERTEX
8
CUT
10
86.1400
20
134.7100
0
VERTEX
8
CUT
10
83.2600
20
137.4300
0
VERTEX
8
CUT
10
82.3700
20
137.8700
0
VERTEX
8
CUT
10
81.8900
20
137.7200
0
VERTEX
8
CUT
10
81.5900
20
137.2900
0
VERTEX
8
CUT
10
81.5600
20
136.0600
0
VERTEX
8
CUT
10
82.0600
20
135.0300
0
VERTEX
8
CUT
10
84.7700
20
131.5100
0
VERTEX
8
CUT
10
86.7400
20
128.3300
0
VERTEX
8
CUT
10
88.6300
20
124.0600
0
VERTEX
8
CUT
10
89.7000
20
121.1700
0
VERTEX
8
CUT
10
91.1400
20
118.5400
0
VERTEX
8
CUT
10
93.4500
20
115.9700
0
VERTEX
8
CUT
10
95.3900
20
114.5200
0
VERTEX
8
CUT
10
97.3200
20
113.5700
0
VERTEX
8
CUT
10
100.0000
20
112.8400
0
VERTEX
8
CUT
10
101.8700
20
112.6000
0
SEQEND
0
POLYLINE
8
CUT
66
1
70
1
10
0.0
20
0.0
30
0.0
0
VERTEX
8
CUT
10
83.3700
20
98.0800
0
VERTEX
8
CUT
10
82.2300
20
100.0600
0
VERTEX
8
CUT
10
81.1200
20
101.3200
0
VERTEX
8
CUT
10
78.7500
20
106.5200
0
VERTEX
8
CUT
10
78.4200
20
108.4000
0
VERTEX
8
CUT
10
77.8300
20
108.4800
0
VERTEX
8
CUT
10
77.7500
20
107.8900
0
VERTEX
8
CUT
10
77.9600
20
107.4000
0
VERTEX
8
CUT
10
78.0300
20
106.0500
0
VERTEX
8
CUT
10
80.4000
20
100.6000
0
VERTEX
8
CUT
10
81.2700
20
99.5900
0
VERTEX
8
CUT
10
83.3700
20
96.4100
0
VERTEX
8
CUT
10
85.9700
20
93.3300
0
VERTEX
8
CUT
10
88.6400
20
90.6300
0
VERTEX
8
CUT
10
93.3600
20
86.6600
0
VERTEX
8
CUT
10
96.9800
20
84.4600
0
VERTEX
8
CUT
10
101.3200
20
82.7800
0
VERTEX
8
CUT
10
104.0800
20
82.3100
0
VERTEX
8
CUT
10
105.2000
20
82.2900
0
VERTEX
8
CUT
10
105.4500
20
82.4600
0
VERTEX
8
CUT
10
105.3800
20
82.8700
0
VERTEX
8
CUT
10
104.6400
20
83.4100
0
VERTEX
8
CUT
10
102.4600
20
83.5200
0
VERTEX
8
CUT
10
100.3400
20
84.6100
0
VERTEX
8
CUT
10
99.3700
20
84.7100
0
VERTEX
8
CUT
10
97.4100
20
85.8300
0
VERTEX
8
CUT
10
95.5500
20
86.6200
0
VERTEX
8
CUT
10
92.9000
20
88.5700
0
VERTEX
8
CUT
10
89.9300
20
91.4100
0
VERTEX
8
CUT
10
88.5500
20
92.3800
0
SEQEND
0
POLYLINE
8
CUT
66
1
70
1
10
0.0
20
0.0
30
0.0
0
VERTEX
8
CUT
10
93.1800
20
188.4700
0
VERTEX
8
CUT
10
90.6900
20
188.6800
0
VERTEX
8
CUT
10
89.2400
20
189.4100
0
VERTEX
8
CUT
10
88.4900
20
190.0100
0
VERTEX
8
CUT
10
85.0900
20
190.3100
0
VERTEX
8
CUT
10
82.2200
20
191.0000
0
VERTEX
8
CUT
10
80.9100
20
190.9900
0
VERTEX
8
CUT
10
80.2000
20
190.7800
0
VERTEX
8
CUT
10
77.0800
20
190.7400
0
VERTEX
8
CUT
10
75.8300
20
190.1200
0
VERTEX
8
CUT
10
75.7100
20
189.6300
0
VERTEX
8
CUT
10
76.5100
20
188.8500
0
VERTEX
8
CUT
10
78.9000
20
187.7700
0
VERTEX
8
CUT
10
81.3300
20
185.9600
0
VERTEX
8
CUT
10
83.3300
20
184.8200
0
VERTEX
8
CUT
10
85.8200
20
181.6800
0
VERTEX
8
CUT
10
88.4800
20
180.7000
0
VERTEX
8
CUT
10
89.3300
20
180.5400
0
VERTEX
8
CUT
10
91.2800
20
181.7700
0
VERTEX
8
CUT
10
93.0300
20
184.7400
0
VERTEX
8
CUT
10
93.2900
20
186.4400
0
SEQEND
0
POLYLINE
8
CUT
66
1
70
1
10
0.0
20
0.0
30
0.0
0
VERTEX
8
CUT
10
63.3900
20
166.2000
0
VERTEX
8
CUT
10
63.6200
20
165.5600
0
VERTEX
8
CUT
10
63.4000
20
164.9000
0
VERTEX
8
CUT
10
63.3700
20
163.8400
0
VERTEX
8
CUT
10
63.6000
20
163.5000
0
VERTEX
8
CUT
10
63.9700
20
163.5300
0
VERTEX
8
CUT
10
66.9300
20
165.9600
0
VERTEX
8
CUT
10
68.8000
20
167.1600
0
VERTEX
8
CUT
10
68.8700
20
167.6500
0
VERTEX
8
CUT
10
67.6700
20
168.0500
0
VERTEX
8
CUT
10
65.1800
20
168.3500
0
VERTEX
8
CUT
10
63.6000
20
169.0200
0
VERTEX
8
CUT
10
63.0500
20
168.9800
0
VERTEX
8
CUT
10
62.8800
20
168.5800
0
VERTEX
8
CUT
10
63.3400
20
167.6900
0
SEQEND
0
POLYLINE
8
CUT
66
1
70
1
10
0.0
20
0.0
30
0.0
0
VERTEX
8
CUT
10
64.1300
20
152.6300
0
VERTEX
8
CUT
10
63.0500
20
153.7100
0
VERTEX
8
CUT
10
62.5300
20
155.0000
0
VERTEX
8
CUT
10
62.4600
20
156.3100
0
VERTEX
8
CUT
10
61.9800
20
157.7800
0
VERTEX
8
CUT
10
61.4900
20
158.8400
0
VERTEX
8
CUT
10
61.1300
20
159.0100
0
VERTEX
8
CUT
10
60.1300
20
158.3400
0
VERTEX
8
CUT
10
58.8800
20
157.0700
0
VERTEX
8
CUT
10
57.9100
20
155.6300
0
VERTEX
8
CUT
10
56.6800
20
153.0300
0
VERTEX
8
CUT
10
55.1500
20
151.9200
0
VERTEX
8
CUT
10
53.6700
20
150.4400
0
VERTEX
8
CUT
10
53.3600
20
149.6000
0
VERTEX
8
CUT
10
53.3700
20
148.4800
0
VERTEX
8
CUT
10
53.9000
20
147.3800
0
VERTEX
8
CUT
10
55.0600
20
146.7800
0
VERTEX
8
CUT
10
57.8000
20
146.7300
0
VERTEX
8
CUT
10
58.7300
20
146.5200
0
VERTEX
8
CUT
10
63.2200
20
146.5300
0
VERTEX
8
CUT
10
64.6200
20
146.7800
0
VERTEX
8
CUT
10
67.2400
20
147.9700
0
VERTEX
8
CUT
10
67.9100
20
148.6200
0
VERTEX
8
CUT
10
67.9700
20
149.2500
0
VERTEX
8
CUT
10
67.7000
20
149.9300
0
VERTEX
8
CUT
10
66.7200
20
151.1600
0
SEQEND
0
POLYLINE
8
CUT
66
1
70
1
10
0.0
20
0.0
30
0.0
0
VERTEX
8
CUT
10
65.0800
20
130.3100
0
VERTEX
8
CUT
10
64.3200
20
131.7200
0
VERTEX
8
CUT
10
63.9500
20
131.7800
0
VERTEX
8
CUT
10
63.6500
20
131.5100
0
VERTEX
8
CUT
10
62.6800
20
129.3300
0
VERTEX
8
CUT
10
62.1900
20
126.5900
0
VERTEX
8
CUT
10
62.4100
20
125.4200
0
VERTEX
8
CUT
10
62.3600
20
123.8900
0
VERTEX
8
CUT
10
61.7900
20
122.7900
0
VERTEX
8
CUT
10
60.8200
20
122.4400
0
VERTEX
8
CUT
10
60.0800
20
122.7600
0
VERTEX
8
CUT
10
59.5000
20
123.3100
0
VERTEX
8
CUT
10
58.9400
20
124.9500
0
VERTEX
8
CUT
10
58.9400
20
129.1700
0
VERTEX
8
CUT
10
59.4300
20
130.9400
0
VERTEX
8
CUT
10
60.1100
20
132.4300
0
VERTEX
8
CUT
10
59.6700
20
132.7500
0
VERTEX
8
CUT
10
59.1600
20
132.3000
0
VERTEX
8
CUT
10
58.6300
20
131.2600
0
VERTEX
8
CUT
10
57.9100
20
129.0900
0
VERTEX
8
CUT
10
57.5900
20
125.1100
0
VERTEX
8
CUT
10
57.1100
20
123.9000
0
VERTEX
8
CUT
10
56.2400
20
122.6700
0
VERTEX
8
CUT
10
55.9300
20
120.5600
0
VERTEX
8
CUT
10
56.0200
20
120.2400
0
VERTEX
8
CUT
10
56.3000
20
120.1200
0
VERTEX
8
CUT
10
57.9800
20
120.7000
0
VERTEX
8
CUT
10
58.7700
20
120.6700
0
VERTEX
8
CUT
10
59.7100
20
120.2300
0
VERTEX
8
CUT
10
61.2300
20
120.4900
0
VERTEX
8
CUT
10
63.4200
20
121.4600
0
VERTEX
8
CUT
10
64.5800
20
122.6100
0
VERTEX
8
CUT
10
65.0900
20
123.5900
0
VERTEX
8
CUT
10
65.5600
20
125.5300
0
VERTEX
8
CUT
10
65.5800
20
128.0600
0
SEQEND
0
ENDSEC
0
EOF
