<svg xmlns="http://www.w3.org/2000/svg" width="300.0mm" height="300.0mm" viewBox="0 0 300.0 300.0">
  <path d="M 300.000 0.000 L 0.000 0.000 L 0.000 300.000 L 300.000 300.000 Z M 243.950 120.870 L 245.460 122.640 L 246.180 124.070 L 246.660 125.840 L 246.660 128.480 L 246.420 129.560 L 245.450 131.500 L 244.670 132.540 L 243.810 133.390 L 241.920 134.590 L 238.910 135.340 L 238.350 135.130 L 237.080 135.070 L 235.140 134.350 L 233.240 132.710 L 231.860 131.260 L 231.370 130.340 L 230.870 128.580 L 230.870 125.350 L 231.110 124.550 L 231.850 123.080 L 232.660 122.020 L 235.150 119.790 L 238.650 118.800 L 241.880 119.540 Z M 244.020 163.250 L 244.740 164.940 L 244.750 167.270 L 244.240 168.570 L 242.600 170.420 L 240.420 171.390 L 238.820 171.400 L 237.050 170.650 L 236.140 169.920 L 235.460 169.060 L 234.470 166.620 L 234.450 165.720 L 234.450 165.680 L 235.170 163.510 L 236.440 162.050 L 238.070 161.100 L 238.770 160.930 L 240.150 161.070 L 240.860 160.850 L 243.120 162.090 Z M 228.730 208.200 L 228.280 208.650 L 226.840 209.370 L 225.890 209.380 L 224.870 208.870 L 224.020 208.030 L 223.980 207.990 L 223.660 207.170 L 223.600 207.030 L 223.540 206.890 L 223.480 206.750 L 223.210 206.120 L 223.220 206.100 L 223.210 206.080 L 223.960 204.590 L 224.980 203.510 L 226.520 203.140 L 227.780 203.640 L 228.960 204.820 L 229.220 205.360 L 229.210 207.200 Z M 227.060 91.090 L 227.300 92.090 L 227.300 93.720 L 227.060 94.720 L 226.340 96.130 L 224.770 97.720 L 223.230 98.530 L 221.350 98.770 L 219.640 98.290 L 218.720 97.820 L 217.260 96.360 L 216.550 95.220 L 216.310 94.450 L 216.300 91.640 L 217.020 89.910 L 218.180 88.500 L 220.120 87.530 L 222.250 87.280 L 223.490 87.530 L 224.880 88.230 L 226.320 89.650 Z M 215.840 58.770 L 215.600 59.370 L 214.560 60.650 L 213.420 61.260 L 211.780 61.260 L 210.770 60.750 L 210.100 60.070 L 209.110 58.000 L 209.120 57.970 L 209.120 57.960 L 209.950 55.870 L 209.950 55.860 L 210.560 55.280 L 212.040 54.550 L 213.410 54.550 L 214.380 55.030 L 215.490 56.100 L 215.830 56.740 Z M 91.820 139.370 L 93.980 138.410 L 100.620 136.250 L 100.920 136.140 L 100.990 136.110 L 101.000 136.110 L 101.010 136.100 L 105.900 133.780 L 108.850 131.870 L 114.000 127.930 L 117.840 125.290 L 118.210 125.100 L 118.320 125.030 L 121.180 123.610 L 124.120 122.640 L 127.250 122.160 L 127.270 122.160 L 127.470 122.160 L 127.480 122.160 L 127.490 122.160 L 127.540 122.150 L 127.670 122.150 L 129.590 122.150 L 129.870 122.150 L 130.000 122.190 L 130.010 122.190 L 132.200 122.400 L 136.290 123.600 L 136.300 123.600 L 136.320 123.610 L 140.110 125.510 L 140.120 125.520 L 140.130 125.530 L 140.140 125.530 L 148.730 131.690 L 148.740 131.700 L 148.750 131.710 L 148.770 131.720 L 149.100 131.910 L 149.160 131.950 L 149.290 132.020 L 149.330 132.040 L 149.350 132.050 L 149.430 132.100 L 149.620 132.190 L 149.660 132.210 L 151.680 133.150 L 152.180 133.350 L 154.030 134.090 L 154.060 134.100 L 154.070 134.100 L 154.300 134.170 L 154.910 134.350 L 154.920 134.350 L 154.930 134.360 L 154.940 134.360 L 158.770 134.990 L 158.820 135.000 L 168.320 135.060 L 168.450 135.080 L 168.460 135.080 L 168.480 135.080 L 168.720 135.080 L 169.900 135.260 L 169.920 135.260 L 169.960 135.270 L 169.970 135.270 L 169.980 135.270 L 170.130 135.290 L 170.140 135.300 L 170.150 135.300 L 170.160 135.300 L 170.170 135.300 L 173.560 136.260 L 173.570 136.260 L 173.590 136.270 L 176.180 137.460 L 178.890 139.190 L 179.590 139.740 L 179.610 139.760 L 179.620 139.770 L 179.650 139.790 L 179.790 139.880 L 179.920 140.000 L 179.930 140.010 L 179.950 140.030 L 179.990 140.060 L 180.120 140.160 L 180.130 140.190 L 181.020 140.990 L 181.940 141.820 L 182.060 141.850 L 182.400 142.240 L 182.410 142.250 L 182.420 142.260 L 182.430 142.270 L 182.800 142.600 L 182.870 142.690 L 184.280 144.350 L 184.300 144.400 L 184.390 144.570 L 184.410 144.600 L 184.420 144.630 L 184.460 144.700 L 184.490 144.750 L 184.770 145.270 L 185.430 145.500 L 185.660 145.240 L 185.700 144.470 L 185.240 142.700 L 185.180 141.620 L 182.520 135.080 L 179.750 130.850 L 178.330 129.200 L 175.710 126.620 L 172.100 124.180 L 170.130 123.210 L 167.230 122.240 L 162.990 121.520 L 156.020 121.470 L 156.000 121.470 L 155.940 121.470 L 155.780 121.470 L 155.660 121.470 L 155.270 121.480 L 155.070 121.320 L 155.000 121.270 L 154.960 121.240 L 154.940 121.230 L 154.920 121.220 L 154.900 121.200 L 155.080 120.750 L 158.450 119.210 L 161.110 117.390 L 164.430 115.720 L 165.350 115.370 L 165.380 115.360 L 165.410 115.350 L 165.440 115.330 L 165.450 115.330 L 166.130 115.000 L 166.650 114.870 L 167.600 114.510 L 169.940 114.060 L 170.000 114.050 L 170.020 114.050 L 170.070 114.040 L 174.210 114.050 L 175.670 114.280 L 176.340 114.500 L 176.360 114.510 L 176.370 114.510 L 176.380 114.510 L 176.420 114.520 L 176.490 114.550 L 176.500 114.550 L 177.860 115.000 L 179.200 115.680 L 179.260 115.710 L 179.290 115.720 L 179.320 115.730 L 181.360 117.280 L 184.740 120.930 L 186.930 125.020 L 187.890 127.910 L 190.100 137.590 L 191.330 140.790 L 192.530 143.190 L 194.320 145.690 L 197.580 148.940 L 199.580 150.480 L 204.160 153.250 L 206.700 155.280 L 208.170 156.800 L 210.580 160.140 L 212.010 163.250 L 213.210 167.590 L 213.460 169.970 L 213.440 176.820 L 212.740 181.160 L 211.300 186.210 L 209.370 191.020 L 207.470 194.570 L 205.060 198.420 L 202.880 201.310 L 200.610 204.060 L 196.320 208.630 L 189.950 214.490 L 175.650 226.470 L 172.280 229.590 L 166.180 235.750 L 163.700 238.670 L 160.050 243.770 L 158.110 247.130 L 156.680 250.240 L 155.930 252.240 L 154.730 257.090 L 154.480 259.110 L 154.500 264.110 L 154.970 267.030 L 156.190 271.170 L 157.390 273.840 L 160.130 278.350 L 159.950 278.870 L 159.080 278.910 L 157.680 279.140 L 157.630 279.150 L 157.620 279.150 L 157.420 279.090 L 156.130 278.710 L 156.090 278.710 L 154.700 278.650 L 153.740 278.480 L 153.690 278.470 L 153.670 278.470 L 153.660 278.470 L 153.030 278.410 L 152.190 278.220 L 150.630 277.950 L 149.070 277.510 L 149.060 277.500 L 149.050 277.500 L 149.010 277.490 L 146.810 276.990 L 145.040 276.370 L 145.030 276.370 L 142.950 275.780 L 141.630 275.130 L 137.500 274.600 L 133.430 273.650 L 129.570 272.450 L 124.760 270.520 L 120.260 268.150 L 117.590 266.450 L 114.330 263.760 L 113.470 263.280 L 111.950 261.570 L 111.010 260.840 L 108.580 257.670 L 107.380 255.740 L 107.040 254.820 L 106.420 254.070 L 106.080 252.910 L 105.210 251.430 L 104.030 246.870 L 103.980 242.310 L 103.760 241.070 L 103.970 240.460 L 104.250 237.120 L 104.480 236.120 L 104.480 235.960 L 105.060 233.620 L 105.200 233.040 L 105.220 233.000 L 106.420 229.630 L 106.650 229.170 L 108.320 225.840 L 110.970 221.770 L 112.010 220.480 L 112.470 219.990 L 112.510 219.940 L 112.570 219.870 L 112.610 219.820 L 112.640 219.790 L 112.650 219.770 L 113.530 218.720 L 114.360 217.880 L 114.390 217.850 L 114.420 217.820 L 114.450 217.790 L 114.480 217.760 L 114.740 217.460 L 115.040 217.180 L 115.560 216.660 L 116.150 216.170 L 116.160 216.170 L 116.170 216.170 L 116.260 216.090 L 116.280 216.070 L 117.700 214.770 L 120.930 212.270 L 123.810 210.340 L 124.440 209.990 L 124.460 209.980 L 124.500 209.960 L 124.550 209.920 L 124.560 209.920 L 125.030 209.610 L 125.860 209.190 L 128.120 207.930 L 130.990 206.620 L 131.010 206.610 L 131.020 206.600 L 131.080 206.580 L 131.160 206.540 L 131.170 206.540 L 131.690 206.270 L 132.420 205.960 L 133.870 205.300 L 135.140 204.820 L 136.260 204.350 L 146.370 200.580 L 146.440 200.550 L 146.480 200.540 L 146.720 200.450 L 146.730 200.440 L 146.760 200.430 L 146.770 200.430 L 148.000 199.860 L 148.500 199.630 L 148.570 199.590 L 148.580 199.590 L 153.440 197.330 L 156.340 195.640 L 158.800 193.900 L 160.450 192.510 L 162.600 190.320 L 164.360 187.850 L 165.800 184.980 L 165.810 184.950 L 165.820 184.930 L 166.790 182.000 L 167.270 178.850 L 167.280 175.750 L 166.790 172.480 L 165.820 169.540 L 164.610 167.120 L 163.160 165.400 L 162.810 165.200 L 162.460 165.350 L 162.370 165.750 L 163.280 168.280 L 163.330 169.530 L 163.530 170.030 L 163.270 173.060 L 162.560 175.460 L 161.360 177.850 L 160.080 179.610 L 158.720 180.990 L 156.860 182.360 L 154.940 183.330 L 152.040 184.290 L 148.960 184.550 L 148.930 184.550 L 148.890 184.550 L 146.530 184.190 L 146.330 184.160 L 146.230 184.150 L 146.100 184.130 L 145.620 184.060 L 145.610 184.050 L 145.600 184.050 L 145.580 184.050 L 145.060 183.880 L 143.430 183.340 L 143.400 183.320 L 141.520 182.380 L 138.880 180.690 L 137.060 179.150 L 133.900 175.720 L 129.460 168.760 L 127.430 166.240 L 125.890 164.700 L 122.660 162.190 L 119.290 160.500 L 116.290 159.500 L 112.370 158.720 L 109.580 158.500 L 109.160 158.350 L 108.360 158.280 L 107.190 158.260 L 106.270 158.110 L 106.260 158.100 L 106.250 158.100 L 106.240 158.100 L 105.250 158.020 L 103.560 157.660 L 102.850 157.540 L 102.240 157.380 L 101.890 157.300 L 101.610 157.200 L 101.550 157.180 L 101.520 157.170 L 101.500 157.170 L 100.190 156.820 L 98.420 155.930 L 96.090 155.370 L 92.510 153.450 L 90.190 151.630 L 88.490 149.660 L 87.540 147.760 L 87.260 145.750 L 87.530 143.820 L 87.530 143.730 L 87.550 143.700 L 87.550 143.690 L 87.550 143.670 L 87.560 143.600 L 87.690 143.380 L 87.700 143.370 L 88.030 142.670 L 88.400 142.200 L 88.420 142.180 L 88.590 141.890 L 88.790 141.720 L 88.810 141.700 L 88.830 141.680 L 89.060 141.380 L 89.910 140.580 L 90.440 140.240 L 90.460 140.230 L 90.600 140.100 L 90.620 140.090 L 90.630 140.080 L 90.950 139.920 Z M 59.840 144.600 L 63.190 140.050 L 66.130 136.520 L 66.510 135.280 L 67.370 133.970 L 67.370 133.950 L 68.090 132.580 L 69.110 130.400 L 69.110 130.390 L 69.130 130.360 L 69.140 130.330 L 69.380 129.690 L 69.390 129.670 L 69.400 129.640 L 69.400 129.620 L 70.280 126.310 L 70.780 121.950 L 70.780 121.940 L 70.780 121.920 L 70.040 115.190 L 69.370 113.070 L 69.160 111.420 L 69.120 106.950 L 69.370 104.750 L 70.570 100.900 L 72.480 97.070 L 74.430 94.430 L 76.530 92.040 L 76.530 92.030 L 80.770 88.310 L 89.180 81.810 L 93.260 79.160 L 98.480 76.550 L 104.030 74.620 L 108.690 73.610 L 109.510 73.190 L 109.550 73.190 L 109.570 73.190 L 111.930 72.930 L 111.940 72.930 L 111.950 72.920 L 112.890 72.710 L 114.330 72.660 L 114.350 72.660 L 115.990 72.230 L 116.580 72.200 L 118.950 71.710 L 122.810 70.790 L 125.460 70.010 L 128.330 68.700 L 128.440 68.730 L 128.850 68.550 L 131.770 66.840 L 135.640 62.250 L 138.580 57.850 L 142.620 50.240 L 146.680 41.160 L 147.270 39.460 L 149.890 33.980 L 151.830 30.620 L 154.330 27.380 L 156.820 24.950 L 158.800 23.660 L 158.910 23.530 L 159.750 23.040 L 160.150 22.780 L 160.430 22.640 L 160.440 22.640 L 160.480 22.620 L 160.610 22.540 L 160.840 22.440 L 160.910 22.410 L 160.960 22.380 L 161.000 22.360 L 162.540 21.590 L 163.000 21.460 L 163.280 21.340 L 165.200 20.870 L 165.240 20.860 L 166.020 20.860 L 166.800 20.860 L 166.840 20.870 L 169.020 21.350 L 170.960 22.320 L 171.380 22.650 L 171.690 22.820 L 172.930 23.860 L 173.210 24.080 L 173.260 24.130 L 173.370 24.230 L 174.490 25.590 L 174.520 25.630 L 174.570 25.690 L 174.600 25.720 L 174.720 25.860 L 174.730 25.880 L 176.160 28.000 L 176.180 28.030 L 177.000 29.670 L 177.840 31.340 L 177.850 31.370 L 179.050 34.500 L 180.490 39.780 L 181.200 43.610 L 181.660 47.500 L 181.660 47.550 L 181.670 47.640 L 181.680 56.740 L 181.650 57.030 L 181.650 57.400 L 181.550 58.010 L 181.550 58.020 L 181.470 58.800 L 181.680 59.410 L 182.200 64.650 L 182.690 66.870 L 183.440 68.880 L 183.760 69.530 L 183.760 69.540 L 183.770 69.550 L 183.820 69.580 L 185.580 73.140 L 185.590 73.150 L 185.600 73.160 L 185.600 73.170 L 189.790 78.920 L 191.450 82.230 L 192.420 85.130 L 192.420 85.150 L 192.430 85.150 L 192.430 85.160 L 192.430 85.170 L 192.910 87.580 L 193.160 90.890 L 192.910 95.580 L 192.710 96.080 L 192.670 97.960 L 192.470 98.750 L 192.500 106.490 L 193.190 110.320 L 193.920 112.980 L 197.680 122.400 L 198.640 125.300 L 198.600 125.890 L 198.570 125.900 L 198.570 125.920 L 198.530 125.920 L 198.290 126.030 L 198.020 125.910 L 194.780 121.300 L 192.390 118.620 L 189.940 116.450 L 185.950 113.680 L 180.440 110.950 L 180.350 110.890 L 179.970 110.700 L 179.880 110.570 L 179.150 110.070 L 177.880 110.000 L 175.830 109.340 L 170.680 108.120 L 168.680 107.880 L 164.010 107.890 L 162.600 108.030 L 159.270 108.640 L 155.700 109.830 L 151.100 111.900 L 147.000 113.340 L 144.570 113.810 L 144.560 113.810 L 144.510 113.820 L 143.800 113.820 L 142.250 113.840 L 140.690 113.820 L 139.980 113.820 L 139.920 113.810 L 139.910 113.810 L 137.250 113.340 L 132.880 111.890 L 126.230 108.560 L 120.730 105.550 L 115.350 103.600 L 115.310 103.590 L 115.280 103.590 L 110.480 102.870 L 110.260 102.870 L 109.920 102.870 L 109.490 102.870 L 108.350 102.860 L 107.670 102.860 L 107.320 102.860 L 107.100 102.860 L 106.200 102.870 L 105.350 103.070 L 104.650 103.040 L 104.640 103.040 L 104.630 103.040 L 104.620 103.040 L 100.380 103.570 L 98.790 103.540 L 98.760 103.550 L 98.470 103.530 L 98.230 103.520 L 97.900 103.340 L 97.780 103.300 L 97.650 103.210 L 97.180 102.950 L 97.060 102.770 L 97.050 102.760 L 96.880 102.640 L 96.770 102.360 L 96.770 102.350 L 96.610 102.120 L 96.440 101.480 L 96.430 101.450 L 96.420 101.440 L 96.420 101.430 L 96.370 101.310 L 96.370 101.240 L 96.340 99.950 L 96.370 99.820 L 96.370 99.500 L 97.040 96.820 L 97.040 96.420 L 97.000 94.370 L 97.000 94.350 L 96.920 94.040 L 96.140 93.170 L 95.970 93.160 L 95.870 93.150 L 95.410 93.120 L 94.870 93.090 L 93.270 93.860 L 91.190 95.470 L 91.180 95.480 L 91.170 95.480 L 91.160 95.490 L 90.050 96.590 L 90.040 96.600 L 90.030 96.610 L 90.020 96.620 L 89.140 97.530 L 89.110 97.560 L 88.700 98.110 L 88.650 98.180 L 88.240 98.730 L 88.150 98.840 L 86.730 100.850 L 86.720 100.860 L 86.710 100.870 L 86.560 101.170 L 86.550 101.190 L 86.540 101.230 L 86.530 101.240 L 84.820 104.870 L 84.810 104.880 L 83.990 107.530 L 83.990 107.540 L 83.690 108.920 L 83.690 108.940 L 83.290 112.510 L 83.290 112.520 L 83.300 112.730 L 83.300 112.780 L 83.310 112.860 L 83.310 112.920 L 83.390 114.680 L 83.390 114.700 L 83.400 114.740 L 83.400 114.790 L 83.510 116.360 L 83.500 116.960 L 83.530 117.600 L 83.500 118.050 L 83.510 118.400 L 83.470 118.890 L 83.460 119.380 L 83.250 121.420 L 82.290 124.570 L 82.270 124.610 L 81.550 126.060 L 81.540 126.070 L 81.090 126.960 L 80.680 127.550 L 80.600 127.690 L 80.250 128.160 L 80.240 128.170 L 80.220 128.190 L 80.180 128.250 L 77.720 131.760 L 75.480 134.590 L 74.620 136.050 L 74.620 136.060 L 74.570 136.110 L 72.850 138.180 L 69.600 143.490 L 66.840 147.080 L 66.870 147.470 L 67.650 148.360 L 67.660 148.380 L 67.680 148.400 L 67.700 148.420 L 67.910 148.620 L 67.910 148.660 L 67.940 148.690 L 67.940 148.910 L 67.970 149.250 L 67.930 149.350 L 67.930 149.460 L 67.840 149.580 L 67.830 149.590 L 67.700 149.930 L 66.720 151.160 L 66.680 151.190 L 66.650 151.220 L 64.130 152.630 L 63.050 153.710 L 62.530 155.000 L 62.530 155.020 L 62.460 156.310 L 62.450 156.340 L 62.450 156.350 L 62.440 156.370 L 62.430 156.390 L 61.980 157.780 L 61.490 158.840 L 61.440 158.860 L 61.420 158.920 L 61.310 158.930 L 61.130 159.010 L 61.030 158.940 L 60.950 158.950 L 60.680 158.710 L 60.130 158.340 L 59.150 157.350 L 59.010 157.220 L 58.970 157.160 L 58.880 157.070 L 57.910 155.630 L 56.710 153.100 L 56.320 152.770 L 55.150 151.920 L 54.370 151.140 L 54.130 150.940 L 53.670 150.440 L 53.640 150.410 L 53.630 150.330 L 53.360 149.600 L 53.360 148.520 L 53.370 148.500 L 53.370 148.480 L 53.380 148.470 L 53.390 148.450 L 53.390 148.440 L 53.390 148.430 L 53.640 147.710 L 53.840 147.480 L 53.880 147.390 L 53.900 147.380 L 53.940 147.360 L 54.010 147.280 L 54.880 146.870 L 55.060 146.780 L 55.080 146.780 L 55.100 146.770 L 57.960 146.690 L 58.110 146.660 L 59.140 145.940 Z M 69.410 193.410 L 71.020 192.180 L 71.910 191.610 L 72.440 191.230 L 72.870 191.000 L 73.670 190.490 L 75.650 189.510 L 75.770 189.450 L 76.330 189.000 L 76.510 188.850 L 76.540 188.820 L 78.900 187.770 L 81.330 185.960 L 83.310 184.830 L 83.320 184.830 L 83.330 184.820 L 85.030 182.510 L 84.650 181.940 L 84.000 181.670 L 83.180 181.910 L 81.150 181.940 L 80.510 182.150 L 78.290 182.160 L 74.660 181.430 L 72.240 180.470 L 69.190 178.390 L 67.520 176.700 L 65.810 174.300 L 64.600 171.880 L 63.950 169.640 L 63.120 168.990 L 63.050 168.980 L 63.020 168.900 L 63.010 168.900 L 62.900 168.810 L 62.940 168.720 L 62.940 168.710 L 62.880 168.580 L 63.270 167.820 L 63.340 167.640 L 63.390 166.200 L 63.620 165.560 L 63.400 164.900 L 63.370 163.880 L 63.370 163.840 L 63.450 163.730 L 63.470 163.700 L 63.480 163.680 L 63.480 163.670 L 63.560 163.520 L 63.590 163.520 L 63.600 163.500 L 63.620 163.500 L 63.630 163.490 L 63.970 163.530 L 66.500 165.600 L 67.730 166.470 L 68.800 167.160 L 68.800 167.170 L 70.360 168.170 L 70.390 168.190 L 75.130 170.570 L 78.090 171.550 L 81.260 172.280 L 83.160 172.540 L 85.520 172.530 L 89.550 171.800 L 92.410 170.780 L 94.280 169.920 L 94.290 169.920 L 94.310 169.910 L 94.370 169.880 L 94.390 169.870 L 94.410 169.860 L 94.440 169.840 L 94.880 169.500 L 95.090 169.350 L 95.230 169.250 L 95.480 169.060 L 95.500 169.040 L 95.510 169.030 L 97.620 167.210 L 98.660 165.630 L 99.650 163.140 L 99.710 161.390 L 100.160 161.120 L 100.430 161.330 L 100.700 162.170 L 100.450 164.900 L 100.050 165.710 L 99.490 167.810 L 98.620 169.280 L 98.300 170.320 L 97.390 171.270 L 97.430 171.600 L 97.780 171.980 L 101.160 172.530 L 103.770 172.580 L 105.300 173.220 L 106.020 173.260 L 106.030 173.260 L 109.530 172.090 L 111.570 171.550 L 111.910 171.380 L 113.150 171.140 L 118.100 170.880 L 119.910 170.900 L 121.440 171.140 L 122.470 171.400 L 123.500 171.880 L 124.140 172.110 L 126.010 173.050 L 127.460 174.040 L 127.480 174.060 L 127.520 174.090 L 129.840 176.430 L 131.500 179.730 L 132.230 183.210 L 132.230 185.090 L 132.020 185.720 L 131.990 186.880 L 131.020 190.510 L 129.090 194.360 L 126.410 197.980 L 123.420 201.000 L 121.030 203.120 L 112.550 209.820 L 107.340 215.030 L 104.640 218.430 L 102.460 221.810 L 100.300 226.110 L 99.330 228.550 L 98.110 232.920 L 97.630 235.840 L 97.590 237.720 L 97.380 238.570 L 97.390 242.780 L 97.590 243.400 L 97.630 245.490 L 98.300 248.810 L 98.150 250.920 L 99.710 253.280 L 100.210 254.540 L 100.290 255.680 L 102.340 259.750 L 102.520 260.980 L 102.100 261.440 L 101.390 261.210 L 100.310 260.390 L 93.150 253.740 L 91.420 251.330 L 90.880 250.900 L 89.470 249.070 L 89.100 247.850 L 88.250 246.880 L 87.250 245.050 L 87.010 244.870 L 86.920 244.800 L 86.800 244.710 L 86.700 244.640 L 85.600 243.990 L 84.360 242.980 L 76.600 235.960 L 71.220 230.390 L 70.270 229.660 L 69.430 228.410 L 67.960 226.820 L 65.110 222.810 L 64.280 220.900 L 63.660 220.150 L 63.650 220.130 L 63.640 220.110 L 63.090 218.040 L 62.460 216.800 L 62.440 216.770 L 61.490 212.940 L 61.350 211.780 L 61.290 211.500 L 61.290 211.260 L 61.230 210.760 L 61.290 207.910 L 61.960 204.380 L 62.160 203.830 L 62.210 203.620 L 62.370 203.280 L 62.700 202.400 L 63.520 200.850 L 64.360 199.080 L 64.740 198.540 L 65.080 197.910 L 65.860 196.990 L 65.890 196.950 L 65.910 196.920 L 65.940 196.880 L 66.100 196.650 L 66.250 196.500 L 66.450 196.260 L 69.000 193.730 L 69.090 193.660 L 69.140 193.610 Z M 95.390 114.520 L 97.320 113.570 L 100.000 112.840 L 101.870 112.600 L 105.100 112.600 L 111.170 113.560 L 116.460 115.000 L 119.490 116.130 L 119.350 116.660 L 116.940 117.260 L 115.070 118.200 L 113.960 119.040 L 113.530 119.540 L 112.020 121.600 L 111.930 121.720 L 111.910 121.750 L 111.770 121.930 L 111.540 122.250 L 111.530 122.260 L 111.520 122.270 L 111.350 122.540 L 111.300 122.570 L 111.290 122.580 L 111.280 122.590 L 111.280 122.600 L 108.670 126.160 L 104.510 129.580 L 102.160 130.760 L 99.940 131.500 L 98.930 131.550 L 97.220 131.970 L 96.510 131.980 L 96.490 131.990 L 93.210 132.030 L 90.550 132.500 L 89.040 133.000 L 89.030 133.010 L 86.140 134.710 L 83.260 137.430 L 82.370 137.870 L 81.890 137.720 L 81.590 137.290 L 81.550 136.090 L 81.560 136.070 L 81.560 136.060 L 82.060 135.030 L 84.770 131.510 L 86.740 128.330 L 88.630 124.060 L 89.700 121.170 L 91.140 118.540 L 93.450 115.970 Z M 72.620 49.050 L 76.080 51.220 L 81.370 54.820 L 91.640 62.220 L 104.590 72.290 L 104.680 72.810 L 103.230 73.200 L 99.910 73.220 L 98.980 73.000 L 97.160 72.970 L 96.590 72.770 L 94.770 72.730 L 94.190 72.520 L 92.730 72.520 L 92.400 72.560 L 92.320 72.570 L 92.270 72.580 L 92.230 72.590 L 90.230 72.950 L 89.950 73.030 L 89.920 73.040 L 89.700 73.100 L 89.240 73.240 L 89.190 73.260 L 87.670 73.880 L 86.940 74.290 L 84.120 76.240 L 78.620 83.600 L 78.600 83.620 L 78.590 83.630 L 76.100 85.660 L 75.200 86.760 L 72.530 88.710 L 71.080 89.530 L 67.790 92.820 L 65.220 96.100 L 64.720 96.180 L 64.540 95.900 L 64.590 95.440 L 65.490 93.400 L 66.460 89.500 L 66.710 87.570 L 66.690 83.910 L 66.210 80.730 L 65.240 77.080 L 63.810 73.030 L 59.340 61.980 L 57.660 56.200 L 57.190 53.430 L 57.180 48.830 L 57.670 46.900 L 58.110 46.050 L 59.080 44.990 L 59.770 44.540 L 61.100 44.270 L 62.090 44.280 L 62.100 44.280 L 62.130 44.280 L 62.230 44.280 L 62.610 44.270 L 62.630 44.280 L 63.630 44.510 L 66.320 45.490 L 70.350 47.630 L 71.140 48.120 L 71.570 48.360 Z M 56.440 125.520 L 56.440 125.510 L 56.230 124.730 L 56.230 124.670 L 56.230 124.600 L 56.230 124.470 L 56.230 124.230 L 56.220 123.860 L 56.190 122.310 L 56.140 121.970 L 55.990 120.950 L 55.990 120.940 L 55.980 120.920 L 55.980 120.910 L 55.520 119.270 L 55.480 117.880 L 55.270 117.290 L 55.510 114.320 L 56.000 112.360 L 56.950 109.950 L 59.100 105.670 L 60.910 102.800 L 61.750 101.100 L 62.190 100.880 L 62.480 101.110 L 62.470 101.600 L 61.100 105.530 L 60.370 108.970 L 60.360 113.580 L 61.600 117.370 L 63.040 119.990 L 63.650 120.730 L 64.480 122.510 L 64.580 122.610 L 64.740 122.920 L 64.750 122.930 L 64.850 123.090 L 64.880 123.180 L 65.090 123.590 L 65.200 124.060 L 65.210 124.080 L 65.320 124.310 L 65.370 124.740 L 65.560 125.530 L 65.560 125.560 L 65.570 125.590 L 65.570 126.420 L 65.570 126.530 L 65.570 126.540 L 65.570 126.550 L 65.570 126.560 L 65.610 126.880 L 65.570 127.100 L 65.570 127.130 L 65.570 127.160 L 65.570 127.190 L 65.580 128.060 L 65.560 128.150 L 65.560 128.370 L 65.330 129.280 L 65.330 129.300 L 65.330 129.320 L 65.320 129.340 L 65.310 129.360 L 65.080 130.310 L 64.640 131.190 L 64.630 131.210 L 64.630 131.220 L 64.610 131.280 L 64.580 131.320 L 64.570 131.330 L 64.370 131.740 L 63.770 132.460 L 63.740 132.490 L 63.730 132.510 L 63.730 132.520 L 63.390 133.200 L 62.700 134.580 L 62.680 134.620 L 59.950 137.710 L 55.020 144.890 L 54.630 144.790 L 54.320 144.140 L 53.800 140.970 L 53.370 140.090 L 53.570 138.760 L 53.610 135.350 L 54.080 132.950 L 54.800 130.770 L 55.460 129.470 L 55.990 126.730 L 56.440 125.530 Z" fill-rule="evenodd" fill="none" stroke="#000" stroke-width="0.3"/>
</svg>
