0
SECTION
2
HEADER
9
$ACADVER
1
AC1009
9
$INSUNITS
70
4
0
ENDSEC
0
SECTION
2
TABLES
0
TABLE
2
LAYER
70
1
0
LAYER
2
CUT
70
0
62
7
6
CONTINUOUS
0
ENDTAB
0
ENDSEC
0
SECTION
2
ENTITIES
0
POLYLINE
8
CUT
66
1
70
1
10
0.0
20
0.0
30
0.0
0
VERTEX
8
CUT
10
300.0000
20
0.0000
0
VERTEX
8
CUT
10
0.0000
20
0.0000
0
VERTEX
8
CUT
10
0.0000
20
300.0000
0
VERTEX
8
CUT
10
300.0000
20
300.0000
0
SEQEND
0
POLYLINE
8
CUT
66
1
70
1
10
0.0
20
0.0
30
0.0
0
VERTEX
8
CUT
10
246.6600
20
128.4800
0
VERTEX
8
CUT
10
246.4200
20
129.5600
0
VERTEX
8
CUT
10
245.4500
20
131.5000
0
VERTEX
8
CUT
10
244.6700
20
132.5400
0
VERTEX
8
CUT
10
243.8100
20
133.3900
0
VERTEX
8
CUT
10
241.9200
20
134.5900
0
VERTEX
8
CUT
10
238.9100
20
135.3400
0
VERTEX
8
CUT
10
238.3500
20
135.1300
0
VERTEX
8
CUT
10
237.0800
20
135.0700
0
VERTEX
8
CUT
10
235.1400
20
134.3500
0
VERTEX
8
CUT
10
233.2400
20
132.7100
0
VERTEX
8
CUT
10
231.8600
20
131.2600
0
VERTEX
8
CUT
10
231.3700
20
130.3400
0
VERTEX
8
CUT
10
230.8700
20
128.5800
0
VERTEX
8
CUT
10
230.8700
20
125.3500
0
VERTEX
8
CUT
10
231.1100
20
124.5500
0
VERTEX
8
CUT
10
231.8500
20
123.0800
0
VERTEX
8
CUT
10
232.6600
20
122.0200
0
VERTEX
8
CUT
10
235.1500
20
119.7900
0
VERTEX
8
CUT
10
238.6500
20
118.8000
0
VERTEX
8
CUT
10
241.8800
20
119.5400
0
VERTEX
8
CUT
10
243.9500
20
120.8700
0
VERTEX
8
CUT
10
245.4600
20
122.6400
0
VERTEX
8
CUT
10
246.1800
20
124.0700
0
VERTEX
8
CUT
10
246.6600
20
125.8400
0
SEQEND
0
POLYLINE
8
CUT
66
1
70
1
10
0.0
20
0.0
30
0.0
0
VERTEX
8
CUT
10
242.6000
20
170.4200
0
VERTEX
8
CUT
10
240.4200
20
171.3900
0
VERTEX
8
CUT
10
238.8200
20
171.4000
0
VERTEX
8
CUT
10
237.0500
20
170.6500
0
VERTEX
8
CUT
10
236.1400
20
169.9200
0
VERTEX
8
CUT
10
235.4600
20
169.0600
0
VERTEX
8
CUT
10
234.4700
20
166.6200
0
VERTEX
8
CUT
10
234.4500
20
165.7200
0
VERTEX
8
CUT
10
234.4500
20
165.6800
0
VERTEX
8
CUT
10
235.1700
20
163.5100
0
VERTEX
8
CUT
10
236.4400
20
162.0500
0
VERTEX
8
CUT
10
238.0700
20
161.1000
0
VERTEX
8
CUT
10
238.7700
20
160.9300
0
VERTEX
8
CUT
10
240.1500
20
161.0700
0
VERTEX
8
CUT
10
240.8600
20
160.8500
0
VERTEX
8
CUT
10
243.1200
20
162.0900
0
VERTEX
8
CUT
10
244.0200
20
163.2500
0
VERTEX
8
CUT
10
244.7400
20
164.9400
0
VERTEX
8
CUT
10
244.7500
20
167.2700
0
VERTEX
8
CUT
10
244.2400
20
168.5700
0
SEQEND
0
POLYLINE
8
CUT
66
1
70
1
10
0.0
20
0.0
30
0.0
0
VERTEX
8
CUT
10
224.8700
20
208.8700
0
VERTEX
8
CUT
10
224.0200
20
208.0300
0
VERTEX
8
CUT
10
223.9800
20
207.9900
0
VERTEX
8
CUT
10
223.6000
20
207.0300
0
VERTEX
8
CUT
10
223.5400
20
206.8900
0
VERTEX
8
CUT
10
223.4800
20
206.7500
0
VERTEX
8
CUT
10
223.2100
20
206.1200
0
VERTEX
8
CUT
10
223.2200
20
206.1000
0
VERTEX
8
CUT
10
223.2100
20
206.0800
0
VERTEX
8
CUT
10
223.9600
20
204.5900
0
VERTEX
8
CUT
10
224.9800
20
203.5100
0
VERTEX
8
CUT
10
226.5200
20
203.1400
0
VERTEX
8
CUT
10
227.7800
20
203.6400
0
VERTEX
8
CUT
10
228.9600
20
204.8200
0
VERTEX
8
CUT
10
229.2200
20
205.3600
0
VERTEX
8
CUT
10
229.2100
20
207.2000
0
VERTEX
8
CUT
10
228.7300
20
208.2000
0
VERTEX
8
CUT
10
228.2800
20
208.6500
0
VERTEX
8
CUT
10
226.8400
20
209.3700
0
VERTEX
8
CUT
10
225.8900
20
209.3800
0
SEQEND
0
POLYLINE
8
CUT
66
1
70
1
10
0.0
20
0.0
30
0.0
0
VERTEX
8
CUT
10
226.3400
20
96.1300
0
VERTEX
8
CUT
10
224.7700
20
97.7200
0
VERTEX
8
CUT
10
223.2300
20
98.5300
0
VERTEX
8
CUT
10
221.3500
20
98.7700
0
VERTEX
8
CUT
10
219.6400
20
98.2900
0
VERTEX
8
CUT
10
218.7200
20
97.8200
0
VERTEX
8
CUT
10
217.2600
20
96.3600
0
VERTEX
8
CUT
10
216.5500
20
95.2200
0
VERTEX
8
CUT
10
216.3100
20
94.4500
0
VERTEX
8
CUT
10
216.3000
20
91.6400
0
VERTEX
8
CUT
10
217.0200
20
89.9100
0
VERTEX
8
CUT
10
218.1800
20
88.5000
0
VERTEX
8
CUT
10
220.1200
20
87.5300
0
VERTEX
8
CUT
10
222.2500
20
87.2800
0
VERTEX
8
CUT
10
223.4900
20
87.5300
0
VERTEX
8
CUT
10
224.8800
20
88.2300
0
VERTEX
8
CUT
10
226.3200
20
89.6500
0
VERTEX
8
CUT
10
227.0600
20
91.0900
0
VERTEX
8
CUT
10
227.3000
20
92.0900
0
VERTEX
8
CUT
10
227.3000
20
93.7200
0
VERTEX
8
CUT
10
227.0600
20
94.7200
0
SEQEND
0
POLYLINE
8
CUT
66
1
70
1
10
0.0
20
0.0
30
0.0
0
VERTEX
8
CUT
10
211.7800
20
61.2600
0
VERTEX
8
CUT
10
210.7700
20
60.7500
0
VERTEX
8
CUT
10
210.1000
20
60.0700
0
VERTEX
8
CUT
10
209.1100
20
58.0000
0
VERTEX
8
CUT
10
209.1200
20
57.9700
0
VERTEX
8
CUT
10
209.1200
20
57.9600
0
VERTEX
8
CUT
10
209.9500
20
55.8700
0
VERTEX
8
CUT
10
209.9500
20
55.8600
0
VERTEX
8
CUT
10
210.5600
20
55.2800
0
VERTEX
8
CUT
10
212.0400
20
54.5500
0
VERTEX
8
CUT
10
213.4100
20
54.5500
0
VERTEX
8
CUT
10
214.3800
20
55.0300
0
VERTEX
8
CUT
10
215.4900
20
56.1000
0
VERTEX
8
CUT
10
215.8300
20
56.7400
0
VERTEX
8
CUT
10
215.8400
20
58.7700
0
VERTEX
8
CUT
10
215.6000
20
59.3700
0
VERTEX
8
CUT
10
214.5600
20
60.6500
0
VERTEX
8
CUT
10
213.4200
20
61.2600
0
SEQEND
0
POLYLINE
8
CUT
66
1
70
1
10
0.0
20
0.0
30
0.0
0
VERTEX
8
CUT
10
127.2500
20
122.1600
0
VERTEX
8
CUT
10
127.2700
20
122.1600
0
VERTEX
8
CUT
10
127.4700
20
122.1600
0
VERTEX
8
CUT
10
127.4800
20
122.1600
0
VERTEX
8
CUT
10
127.4900
20
122.1600
0
VERTEX
8
CUT
10
127.5400
20
122.1500
0
VERTEX
8
CUT
10
129.5900
20
122.1500
0
VERTEX
8
CUT
10
129.8700
20
122.1500
0
VERTEX
8
CUT
10
130.0000
20
122.1900
0
VERTEX
8
CUT
10
130.0100
20
122.1900
0
VERTEX
8
CUT
10
132.2000
20
122.4000
0
VERTEX
8
CUT
10
136.2900
20
123.6000
0
VERTEX
8
CUT
10
136.3000
20
123.6000
0
VERTEX
8
CUT
10
136.3200
20
123.6100
0
VERTEX
8
CUT
10
140.1100
20
125.5100
0
VERTEX
8
CUT
10
140.1300
20
125.5300
0
VERTEX
8
CUT
10
140.1400
20
125.5300
0
VERTEX
8
CUT
10
148.7300
20
131.6900
0
VERTEX
8
CUT
10
148.7400
20
131.7000
0
VERTEX
8
CUT
10
148.7500
20
131.7100
0
VERTEX
8
CUT
10
149.1000
20
131.9100
0
VERTEX
8
CUT
10
149.1600
20
131.9500
0
VERTEX
8
CUT
10
149.2900
20
132.0200
0
VERTEX
8
CUT
10
149.3300
20
132.0400
0
VERTEX
8
CUT
10
149.4300
20
132.1000
0
VERTEX
8
CUT
10
149.6200
20
132.1900
0
VERTEX
8
CUT
10
151.6800
20
133.1500
0
VERTEX
8
CUT
10
152.1800
20
133.3500
0
VERTEX
8
CUT
10
154.0300
20
134.0900
0
VERTEX
8
CUT
10
154.0600
20
134.1000
0
VERTEX
8
CUT
10
154.0700
20
134.1000
0
VERTEX
8
CUT
10
154.3000
20
134.1700
0
VERTEX
8
CUT
10
154.9100
20
134.3500
0
VERTEX
8
CUT
10
154.9200
20
134.3500
0
VERTEX
8
CUT
10
154.9300
20
134.3600
0
VERTEX
8
CUT
10
154.9400
20
134.3600
0
VERTEX
8
CUT
10
158.8200
20
135.0000
0
VERTEX
8
CUT
10
168.3200
20
135.0600
0
VERTEX
8
CUT
10
168.4600
20
135.0800
0
VERTEX
8
CUT
10
168.4800
20
135.0800
0
VERTEX
8
CUT
10
168.7200
20
135.0800
0
VERTEX
8
CUT
10
169.9000
20
135.2600
0
VERTEX
8
CUT
10
169.9200
20
135.2600
0
VERTEX
8
CUT
10
169.9600
20
135.2700
0
VERTEX
8
CUT
10
169.9700
20
135.2700
0
VERTEX
8
CUT
10
170.1300
20
135.2900
0
VERTEX
8
CUT
10
170.1400
20
135.3000
0
VERTEX
8
CUT
10
170.1500
20
135.3000
0
VERTEX
8
CUT
10
170.1600
20
135.3000
0
VERTEX
8
CUT
10
170.1700
20
135.3000
0
VERTEX
8
CUT
10
173.5600
20
136.2600
0
VERTEX
8
CUT
10
173.5700
20
136.2600
0
VERTEX
8
CUT
10
173.5900
20
136.2700
0
VERTEX
8
CUT
10
176.1800
20
137.4600
0
VERTEX
8
CUT
10
178.8900
20
139.1900
0
VERTEX
8
CUT
10
179.5900
20
139.7400
0
VERTEX
8
CUT
10
179.6200
20
139.7700
0
VERTEX
8
CUT
10
179.6500
20
139.7900
0
VERTEX
8
CUT
10
179.7900
20
139.8800
0
VERTEX
8
CUT
10
179.9200
20
140.0000
0
VERTEX
8
CUT
10
179.9300
20
140.0100
0
VERTEX
8
CUT
10
179.9500
20
140.0300
0
VERTEX
8
CUT
10
179.9900
20
140.0600
0
VERTEX
8
CUT
10
180.1200
20
140.1600
0
VERTEX
8
CUT
10
180.1300
20
140.1900
0
VERTEX
8
CUT
10
181.9400
20
141.8200
0
VERTEX
8
CUT
10
182.0600
20
141.8500
0
VERTEX
8
CUT
10
182.4100
20
142.2500
0
VERTEX
8
CUT
10
182.4200
20
142.2600
0
VERTEX
8
CUT
10
182.4300
20
142.2700
0
VERTEX
8
CUT
10
182.8000
20
142.6000
0
VERTEX
8
CUT
10
182.8700
20
142.6900
0
VERTEX
8
CUT
10
184.2800
20
144.3500
0
VERTEX
8
CUT
10
184.3000
20
144.4000
0
VERTEX
8
CUT
10
184.3900
20
144.5700
0
VERTEX
8
CUT
10
184.4200
20
144.6300
0
VERTEX
8
CUT
10
184.4600
20
144.7000
0
VERTEX
8
CUT
10
184.4900
20
144.7500
0
VERTEX
8
CUT
10
184.7700
20
145.2700
0
VERTEX
8
CUT
10
185.4300
20
145.5000
0
VERTEX
8
CUT
10
185.6600
20
145.2400
0
VERTEX
8
CUT
10
185.7000
20
144.4700
0
VERTEX
8
CUT
10
185.2400
20
142.7000
0
VERTEX
8
CUT
10
185.1800
20
141.6200
0
VERTEX
8
CUT
10
182.5200
20
135.0800
0
VERTEX
8
CUT
10
179.7500
20
130.8500
0
VERTEX
8
CUT
10
178.3300
20
129.2000
0
VERTEX
8
CUT
10
175.7100
20
126.6200
0
VERTEX
8
CUT
10
172.1000
20
124.1800
0
VERTEX
8
CUT
10
170.1300
20
123.2100
0
VERTEX
8
CUT
10
167.2300
20
122.2400
0
VERTEX
8
CUT
10
162.9900
20
121.5200
0
VERTEX
8
CUT
10
156.0200
20
121.4700
0
VERTEX
8
CUT
10
156.0000
20
121.4700
0
VERTEX
8
CUT
10
155.9400
20
121.4700
0
VERTEX
8
CUT
10
155.7800
20
121.4700
0
VERTEX
8
CUT
10
155.2700
20
121.4800
0
VERTEX
8
CUT
10
155.0000
20
121.2700
0
VERTEX
8
CUT
10
154.9600
20
121.2400
0
VERTEX
8
CUT
10
154.9400
20
121.2300
0
VERTEX
8
CUT
10
154.9200
20
121.2200
0
VERTEX
8
CUT
10
154.9000
20
121.2000
0
VERTEX
8
CUT
10
155.0800
20
120.7500
0
VERTEX
8
CUT
10
158.4500
20
119.2100
0
VERTEX
8
CUT
10
161.1100
20
117.3900
0
VERTEX
8
CUT
10
164.4300
20
115.7200
0
VERTEX
8
CUT
10
165.3800
20
115.3600
0
VERTEX
8
CUT
10
165.4100
20
115.3500
0
VERTEX
8
CUT
10
165.4400
20
115.3300
0
VERTEX
8
CUT
10
165.4500
20
115.3300
0
VERTEX
8
CUT
10
166.1300
20
115.0000
0
VERTEX
8
CUT
10
166.6500
20
114.8700
0
VERTEX
8
CUT
10
167.6000
20
114.5100
0
VERTEX
8
CUT
10
169.9400
20
114.0600
0
VERTEX
8
CUT
10
170.0000
20
114.0500
0
VERTEX
8
CUT
10
170.0200
20
114.0500
0
VERTEX
8
CUT
10
170.0700
20
114.0400
0
VERTEX
8
CUT
10
174.2100
20
114.0500
0
VERTEX
8
CUT
10
175.6700
20
114.2800
0
VERTEX
8
CUT
10
176.3600
20
114.5100
0
VERTEX
8
CUT
10
176.3700
20
114.5100
0
VERTEX
8
CUT
10
176.3800
20
114.5100
0
VERTEX
8
CUT
10
176.4200
20
114.5200
0
VERTEX
8
CUT
10
176.4900
20
114.5500
0
VERTEX
8
CUT
10
177.8600
20
115.0000
0
VERTEX
8
CUT
10
179.2600
20
115.7100
0
VERTEX
8
CUT
10
179.2900
20
115.7200
0
VERTEX
8
CUT
10
179.3200
20
115.7300
0
VERTEX
8
CUT
10
181.3600
20
117.2800
0
VERTEX
8
CUT
10
184.7400
20
120.9300
0
VERTEX
8
CUT
10
186.9300
20
125.0200
0
VERTEX
8
CUT
10
187.8900
20
127.9100
0
VERTEX
8
CUT
10
190.1000
20
137.5900
0
VERTEX
8
CUT
10
191.3300
20
140.7900
0
VERTEX
8
CUT
10
192.5300
20
143.1900
0
VERTEX
8
CUT
10
194.3200
20
145.6900
0
VERTEX
8
CUT
10
197.5800
20
148.9400
0
VERTEX
8
CUT
10
199.5800
20
150.4800
0
VERTEX
8
CUT
10
204.1600
20
153.2500
0
VERTEX
8
CUT
10
206.7000
20
155.2800
0
VERTEX
8
CUT
10
208.1700
20
156.8000
0
VERTEX
8
CUT
10
210.5800
20
160.1400
0
VERTEX
8
CUT
10
212.0100
20
163.2500
0
VERTEX
8
CUT
10
213.2100
20
167.5900
0
VERTEX
8
CUT
10
213.4600
20
169.9700
0
VERTEX
8
CUT
10
213.4400
20
176.8200
0
VERTEX
8
CUT
10
212.7400
20
181.1600
0
VERTEX
8
CUT
10
211.3000
20
186.2100
0
VERTEX
8
CUT
10
209.3700
20
191.0200
0
VERTEX
8
CUT
10
207.4700
20
194.5700
0
VERTEX
8
CUT
10
205.0600
20
198.4200
0
VERTEX
8
CUT
10
202.8800
20
201.3100
0
VERTEX
8
CUT
10
200.6100
20
204.0600
0
VERTEX
8
CUT
10
196.3200
20
208.6300
0
VERTEX
8
CUT
10
189.9500
20
214.4900
0
VERTEX
8
CUT
10
175.6500
20
226.4700
0
VERTEX
8
CUT
10
172.2800
20
229.5900
0
VERTEX
8
CUT
10
166.1800
20
235.7500
0
VERTEX
8
CUT
10
163.7000
20
238.6700
0
VERTEX
8
CUT
10
160.0500
20
243.7700
0
VERTEX
8
CUT
10
158.1100
20
247.1300
0
VERTEX
8
CUT
10
156.6800
20
250.2400
0
VERTEX
8
CUT
10
155.9300
20
252.2400
0
VERTEX
8
CUT
10
154.7300
20
257.0900
0
VERTEX
8
CUT
10
154.4800
20
259.1100
0
VERTEX
8
CUT
10
154.5000
20
264.1100
0
VERTEX
8
CUT
10
154.9700
20
267.0300
0
VERTEX
8
CUT
10
156.1900
20
271.1700
0
VERTEX
8
CUT
10
157.3900
20
273.8400
0
VERTEX
8
CUT
10
160.1300
20
278.3500
0
VERTEX
8
CUT
10
159.9500
20
278.8700
0
VERTEX
8
CUT
10
159.0800
20
278.9100
0
VERTEX
8
CUT
10
157.6800
20
279.1400
0
VERTEX
8
CUT
10
157.6300
20
279.1500
0
VERTEX
8
CUT
10
157.6200
20
279.1500
0
VERTEX
8
CUT
10
157.4200
20
279.0900
0
VERTEX
8
CUT
10
156.1300
20
278.7100
0
VERTEX
8
CUT
10
156.0900
20
278.7100
0
VERTEX
8
CUT
10
154.7000
20
278.6500
0
VERTEX
8
CUT
10
153.7400
20
278.4800
0
VERTEX
8
CUT
10
153.6900
20
278.4700
0
VERTEX
8
CUT
10
153.6700
20
278.4700
0
VERTEX
8
CUT
10
153.6600
20
278.4700
0
VERTEX
8
CUT
10
153.0300
20
278.4100
0
VERTEX
8
CUT
10
152.1900
20
278.2200
0
VERTEX
8
CUT
10
150.6300
20
277.9500
0
VERTEX
8
CUT
10
149.0700
20
277.5100
0
VERTEX
8
CUT
10
149.0600
20
277.5000
0
VERTEX
8
CUT
10
149.0500
20
277.5000
0
VERTEX
8
CUT
10
149.0100
20
277.4900
0
VERTEX
8
CUT
10
146.8100
20
276.9900
0
VERTEX
8
CUT
10
145.0400
20
276.3700
0
VERTEX
8
CUT
10
145.0300
20
276.3700
0
VERTEX
8
CUT
10
142.9500
20
275.7800
0
VERTEX
8
CUT
10
141.6300
20
275.1300
0
VERTEX
8
CUT
10
137.5000
20
274.6000
0
VERTEX
8
CUT
10
133.4300
20
273.6500
0
VERTEX
8
CUT
10
129.5700
20
272.4500
0
VERTEX
8
CUT
10
124.7600
20
270.5200
0
VERTEX
8
CUT
10
120.2600
20
268.1500
0
VERTEX
8
CUT
10
117.5900
20
266.4500
0
VERTEX
8
CUT
10
114.3300
20
263.7600
0
VERTEX
8
CUT
10
113.4700
20
263.2800
0
VERTEX
8
CUT
10
111.9500
20
261.5700
0
VERTEX
8
CUT
10
111.0100
20
260.8400
0
VERTEX
8
CUT
10
108.5800
20
257.6700
0
VERTEX
8
CUT
10
107.3800
20
255.7400
0
VERTEX
8
CUT
10
107.0400
20
254.8200
0
VERTEX
8
CUT
10
106.4200
20
254.0700
0
VERTEX
8
CUT
10
106.0800
20
252.9100
0
VERTEX
8
CUT
10
105.2100
20
251.4300
0
VERTEX
8
CUT
10
104.0300
20
246.8700
0
VERTEX
8
CUT
10
103.9800
20
242.3100
0
VERTEX
8
CUT
10
103.7600
20
241.0700
0
VERTEX
8
CUT
10
103.9700
20
240.4600
0
VERTEX
8
CUT
10
104.2500
20
237.1200
0
VERTEX
8
CUT
10
104.4800
20
236.1200
0
VERTEX
8
CUT
10
104.4800
20
235.9600
0
VERTEX
8
CUT
10
105.0600
20
233.6200
0
VERTEX
8
CUT
10
105.2000
20
233.0400
0
VERTEX
8
CUT
10
105.2200
20
233.0000
0
VERTEX
8
CUT
10
106.4200
20
229.6300
0
VERTEX
8
CUT
10
106.6500
20
229.1700
0
VERTEX
8
CUT
10
108.3200
20
225.8400
0
VERTEX
8
CUT
10
110.9700
20
221.7700
0
VERTEX
8
CUT
10
112.0100
20
220.4800
0
VERTEX
8
CUT
10
112.4700
20
219.9900
0
VERTEX
8
CUT
10
112.5100
20
219.9400
0
VERTEX
8
CUT
10
112.5700
20
219.8700
0
VERTEX
8
CUT
10
112.6100
20
219.8200
0
VERTEX
8
CUT
10
112.6500
20
219.7700
0
VERTEX
8
CUT
10
113.5300
20
218.7200
0
VERTEX
8
CUT
10
114.3600
20
217.8800
0
VERTEX
8
CUT
10
114.3900
20
217.8500
0
VERTEX
8
CUT
10
114.4200
20
217.8200
0
VERTEX
8
CUT
10
114.4500
20
217.7900
0
VERTEX
8
CUT
10
114.4800
20
217.7600
0
VERTEX
8
CUT
10
114.7400
20
217.4600
0
VERTEX
8
CUT
10
115.0400
20
217.1800
0
VERTEX
8
CUT
10
115.5600
20
216.6600
0
VERTEX
8
CUT
10
116.1500
20
216.1700
0
VERTEX
8
CUT
10
116.1600
20
216.1700
0
VERTEX
8
CUT
10
116.1700
20
216.1700
0
VERTEX
8
CUT
10
116.2600
20
216.0900
0
VERTEX
8
CUT
10
116.2800
20
216.0700
0
VERTEX
8
CUT
10
117.7000
20
214.7700
0
VERTEX
8
CUT
10
120.9300
20
212.2700
0
VERTEX
8
CUT
10
123.8100
20
210.3400
0
VERTEX
8
CUT
10
124.4400
20
209.9900
0
VERTEX
8
CUT
10
124.4600
20
209.9800
0
VERTEX
8
CUT
10
124.5000
20
209.9600
0
VERTEX
8
CUT
10
124.5600
20
209.9200
0
VERTEX
8
CUT
10
125.0300
20
209.6100
0
VERTEX
8
CUT
10
125.8600
20
209.1900
0
VERTEX
8
CUT
10
128.1200
20
207.9300
0
VERTEX
8
CUT
10
130.9900
20
206.6200
0
VERTEX
8
CUT
10
131.0100
20
206.6100
0
VERTEX
8
CUT
10
131.0200
20
206.6000
0
VERTEX
8
CUT
10
131.0800
20
206.5800
0
VERTEX
8
CUT
10
131.1600
20
206.5400
0
VERTEX
8
CUT
10
131.6900
20
206.2700
0
VERTEX
8
CUT
10
132.4200
20
205.9600
0
VERTEX
8
CUT
10
133.8700
20
205.3000
0
VERTEX
8
CUT
10
135.1400
20
204.8200
0
VERTEX
8
CUT
10
136.2600
20
204.3500
0
VERTEX
8
CUT
10
146.3700
20
200.5800
0
VERTEX
8
CUT
10
146.4800
20
200.5400
0
VERTEX
8
CUT
10
146.7200
20
200.4500
0
VERTEX
8
CUT
10
146.7300
20
200.4400
0
VERTEX
8
CUT
10
146.7600
20
200.4300
0
VERTEX
8
CUT
10
146.7700
20
200.4300
0
VERTEX
8
CUT
10
148.0000
20
199.8600
0
VERTEX
8
CUT
10
148.5000
20
199.6300
0
VERTEX
8
CUT
10
148.5700
20
199.5900
0
VERTEX
8
CUT
10
148.5800
20
199.5900
0
VERTEX
8
CUT
10
153.4400
20
197.3300
0
VERTEX
8
CUT
10
156.3400
20
195.6400
0
VERTEX
8
CUT
10
158.8000
20
193.9000
0
VERTEX
8
CUT
10
160.4500
20
192.5100
0
VERTEX
8
CUT
10
162.6000
20
190.3200
0
VERTEX
8
CUT
10
164.3600
20
187.8500
0
VERTEX
8
CUT
10
165.8000
20
184.9800
0
VERTEX
8
CUT
10
165.8100
20
184.9500
0
VERTEX
8
CUT
10
165.8200
20
184.9300
0
VERTEX
8
CUT
10
166.7900
20
182.0000
0
VERTEX
8
CUT
10
167.2700
20
178.8500
0
VERTEX
8
CUT
10
167.2800
20
175.7500
0
VERTEX
8
CUT
10
166.7900
20
172.4800
0
VERTEX
8
CUT
10
165.8200
20
169.5400
0
VERTEX
8
CUT
10
164.6100
20
167.1200
0
VERTEX
8
CUT
10
163.1600
20
165.4000
0
VERTEX
8
CUT
10
162.8100
20
165.2000
0
VERTEX
8
CUT
10
162.4600
20
165.3500
0
VERTEX
8
CUT
10
162.3700
20
165.7500
0
VERTEX
8
CUT
10
163.2800
20
168.2800
0
VERTEX
8
CUT
10
163.3300
20
169.5300
0
VERTEX
8
CUT
10
163.5300
20
170.0300
0
VERTEX
8
CUT
10
163.2700
20
173.0600
0
VERTEX
8
CUT
10
162.5600
20
175.4600
0
VERTEX
8
CUT
10
161.3600
20
177.8500
0
VERTEX
8
CUT
10
160.0800
20
179.6100
0
VERTEX
8
CUT
10
158.7200
20
180.9900
0
VERTEX
8
CUT
10
156.8600
20
182.3600
0
VERTEX
8
CUT
10
154.9400
20
183.3300
0
VERTEX
8
CUT
10
152.0400
20
184.2900
0
VERTEX
8
CUT
10
148.8900
20
184.5500
0
VERTEX
8
CUT
10
145.5800
20
184.0500
0
VERTEX
8
CUT
10
143.4000
20
183.3200
0
VERTEX
8
CUT
10
141.5200
20
182.3800
0
VERTEX
8
CUT
10
138.8800
20
180.6900
0
VERTEX
8
CUT
10
137.0600
20
179.1500
0
VERTEX
8
CUT
10
133.9000
20
175.7200
0
VERTEX
8
CUT
10
129.4600
20
168.7600
0
VERTEX
8
CUT
10
127.4300
20
166.2300
0
VERTEX
8
CUT
10
125.8900
20
164.7000
0
VERTEX
8
CUT
10
122.6400
20
162.1700
0
VERTEX
8
CUT
10
119.2900
20
160.5000
0
VERTEX
8
CUT
10
116.2900
20
159.5000
0
VERTEX
8
CUT
10
111.4800
20
158.5400
0
VERTEX
8
CUT
10
105.2500
20
158.0200
0
VERTEX
8
CUT
10
101.8900
20
157.3000
0
VERTEX
8
CUT
10
101.1000
20
157.0300
0
VERTEX
8
CUT
10
100.9200
20
156.7400
0
VERTEX
8
CUT
10
100.9400
20
156.7200
0
VERTEX
8
CUT
10
100.9200
20
156.7000
0
VERTEX
8
CUT
10
101.2300
20
156.3100
0
VERTEX
8
CUT
10
104.3500
20
156.2800
0
VERTEX
8
CUT
10
106.2300
20
156.0400
0
VERTEX
8
CUT
10
109.0800
20
155.3700
0
VERTEX
8
CUT
10
110.3500
20
155.3100
0
VERTEX
8
CUT
10
116.0000
20
153.9400
0
VERTEX
8
CUT
10
116.0300
20
153.9300
0
VERTEX
8
CUT
10
117.3900
20
153.9000
0
VERTEX
8
CUT
10
118.0700
20
153.6900
0
VERTEX
8
CUT
10
121.8800
20
153.6500
0
VERTEX
8
CUT
10
122.5200
20
153.4400
0
VERTEX
8
CUT
10
123.1100
20
153.6500
0
VERTEX
8
CUT
10
124.7500
20
153.6900
0
VERTEX
8
CUT
10
127.2100
20
154.1800
0
VERTEX
8
CUT
10
129.4200
20
155.0600
0
VERTEX
8
CUT
10
130.8100
20
155.3900
0
VERTEX
8
CUT
10
131.9900
20
156.2300
0
VERTEX
8
CUT
10
132.7500
20
156.3500
0
VERTEX
8
CUT
10
135.8100
20
158.0000
0
VERTEX
8
CUT
10
137.7300
20
159.3300
0
VERTEX
8
CUT
10
139.2000
20
160.0800
0
VERTEX
8
CUT
10
140.3900
20
160.4100
0
VERTEX
8
CUT
10
141.8400
20
161.2700
0
VERTEX
8
CUT
10
144.7200
20
162.2300
0
VERTEX
8
CUT
10
148.6000
20
162.9600
0
VERTEX
8
CUT
10
148.9700
20
162.9600
0
VERTEX
8
CUT
10
154.7900
20
163.0000
0
VERTEX
8
CUT
10
154.7900
20
163.0100
0
VERTEX
8
CUT
10
154.8000
20
163.0100
0
VERTEX
8
CUT
10
158.2300
20
163.0300
0
VERTEX
8
CUT
10
159.4800
20
163.5000
0
VERTEX
8
CUT
10
161.3900
20
164.6000
0
VERTEX
8
CUT
10
161.9200
20
164.5200
0
VERTEX
8
CUT
10
161.9500
20
164.1900
0
VERTEX
8
CUT
10
161.7500
20
163.8400
0
VERTEX
8
CUT
10
161.7500
20
163.8300
0
VERTEX
8
CUT
10
160.7200
20
162.9000
0
VERTEX
8
CUT
10
160.6100
20
162.8000
0
VERTEX
8
CUT
10
160.4500
20
162.6600
0
VERTEX
8
CUT
10
160.0300
20
162.2800
0
VERTEX
8
CUT
10
160.0000
20
162.2500
0
VERTEX
8
CUT
10
159.9900
20
162.2500
0
VERTEX
8
CUT
10
153.4700
20
158.7200
0
VERTEX
8
CUT
10
150.5500
20
156.5100
0
VERTEX
8
CUT
10
150.5400
20
156.5000
0
VERTEX
8
CUT
10
147.5000
20
153.4800
0
VERTEX
8
CUT
10
143.0900
20
148.4300
0
VERTEX
8
CUT
10
140.8400
20
146.2400
0
VERTEX
8
CUT
10
140.6200
20
146.0800
0
VERTEX
8
CUT
10
140.6100
20
146.0700
0
VERTEX
8
CUT
10
140.6000
20
146.0600
0
VERTEX
8
CUT
10
138.8500
20
144.9100
0
VERTEX
8
CUT
10
138.4200
20
144.6300
0
VERTEX
8
CUT
10
137.8600
20
144.2700
0
VERTEX
8
CUT
10
137.5000
20
144.0300
0
VERTEX
8
CUT
10
136.5000
20
143.4400
0
VERTEX
8
CUT
10
132.9400
20
142.1100
0
VERTEX
8
CUT
10
132.8500
20
142.0800
0
VERTEX
8
CUT
10
132.8400
20
142.0800
0
VERTEX
8
CUT
10
131.0000
20
141.7900
0
VERTEX
8
CUT
10
130.1000
20
141.6400
0
VERTEX
8
CUT
10
129.9100
20
141.6100
0
VERTEX
8
CUT
10
129.6600
20
141.5700
0
VERTEX
8
CUT
10
129.6500
20
141.5700
0
VERTEX
8
CUT
10
124.2400
20
141.5900
0
VERTEX
8
CUT
10
122.5500
20
141.8200
0
VERTEX
8
CUT
10
118.1900
20
143.0400
0
VERTEX
8
CUT
10
107.6200
20
147.5000
0
VERTEX
8
CUT
10
104.0100
20
148.7000
0
VERTEX
8
CUT
10
100.6600
20
149.4100
0
VERTEX
8
CUT
10
100.6200
20
149.4200
0
VERTEX
8
CUT
10
98.6900
20
149.5500
0
VERTEX
8
CUT
10
98.2800
20
149.6700
0
VERTEX
8
CUT
10
97.0100
20
149.6600
0
VERTEX
8
CUT
10
96.9900
20
149.6600
0
VERTEX
8
CUT
10
96.9700
20
149.6600
0
VERTEX
8
CUT
10
96.9600
20
149.6600
0
VERTEX
8
CUT
10
96.8900
20
149.6700
0
VERTEX
8
CUT
10
96.8500
20
149.6600
0
VERTEX
8
CUT
10
96.8400
20
149.6600
0
VERTEX
8
CUT
10
96.8300
20
149.6600
0
VERTEX
8
CUT
10
96.6800
20
149.6600
0
VERTEX
8
CUT
10
93.5400
20
149.1800
0
VERTEX
8
CUT
10
93.5200
20
149.1700
0
VERTEX
8
CUT
10
93.5100
20
149.1700
0
VERTEX
8
CUT
10
93.5000
20
149.1700
0
VERTEX
8
CUT
10
91.3500
20
148.4600
0
VERTEX
8
CUT
10
89.9100
20
147.7400
0
VERTEX
8
CUT
10
89.8900
20
147.7200
0
VERTEX
8
CUT
10
88.9700
20
147.0500
0
VERTEX
8
CUT
10
87.7600
20
145.8000
0
VERTEX
8
CUT
10
87.5300
20
145.2900
0
VERTEX
8
CUT
10
87.5300
20
145.1200
0
VERTEX
8
CUT
10
87.5200
20
145.0900
0
VERTEX
8
CUT
10
87.5300
20
144.6200
0
VERTEX
8
CUT
10
87.5300
20
143.7300
0
VERTEX
8
CUT
10
87.5500
20
143.6900
0
VERTEX
8
CUT
10
87.5500
20
143.6700
0
VERTEX
8
CUT
10
87.5900
20
143.6000
0
VERTEX
8
CUT
10
88.0300
20
142.6700
0
VERTEX
8
CUT
10
88.4200
20
142.1800
0
VERTEX
8
CUT
10
88.5900
20
141.8900
0
VERTEX
8
CUT
10
88.7900
20
141.7200
0
VERTEX
8
CUT
10
88.8100
20
141.7000
0
VERTEX
8
CUT
10
89.0600
20
141.3800
0
VERTEX
8
CUT
10
89.9100
20
140.5800
0
VERTEX
8
CUT
10
90.4600
20
140.2300
0
VERTEX
8
CUT
10
90.6300
20
140.0800
0
VERTEX
8
CUT
10
90.9500
20
139.9200
0
VERTEX
8
CUT
10
91.8200
20
139.3700
0
VERTEX
8
CUT
10
93.9800
20
138.4100
0
VERTEX
8
CUT
10
100.6200
20
136.2500
0
VERTEX
8
CUT
10
100.9900
20
136.1100
0
VERTEX
8
CUT
10
101.0000
20
136.1100
0
VERTEX
8
CUT
10
105.9000
20
133.7800
0
VERTEX
8
CUT
10
108.8500
20
131.8700
0
VERTEX
8
CUT
10
114.0000
20
127.9300
0
VERTEX
8
CUT
10
117.8400
20
125.2900
0
VERTEX
8
CUT
10
118.2100
20
125.1000
0
VERTEX
8
CUT
10
118.3200
20
125.0300
0
VERTEX
8
CUT
10
121.1800
20
123.6100
0
VERTEX
8
CUT
10
124.1200
20
122.6400
0
SEQEND
0
POLYLINE
8
CUT
66
1
70
1
10
0.0
20
0.0
30
0.0
0
VERTEX
8
CUT
10
183.0800
20
69.6600
0
VERTEX
8
CUT
10
183.5100
20
69.3500
0
VERTEX
8
CUT
10
183.8200
20
69.5800
0
VERTEX
8
CUT
10
185.6000
20
73.1700
0
VERTEX
8
CUT
10
189.7900
20
78.9200
0
VERTEX
8
CUT
10
191.4500
20
82.2300
0
VERTEX
8
CUT
10
192.4200
20
85.1300
0
VERTEX
8
CUT
10
192.9100
20
87.5800
0
VERTEX
8
CUT
10
193.1600
20
90.8900
0
VERTEX
8
CUT
10
192.9100
20
95.5800
0
VERTEX
8
CUT
10
192.7100
20
96.0800
0
VERTEX
8
CUT
10
192.6700
20
97.9600
0
VERTEX
8
CUT
10
192.4700
20
98.7500
0
VERTEX
8
CUT
10
192.5000
20
106.4900
0
VERTEX
8
CUT
10
193.1900
20
110.3200
0
VERTEX
8
CUT
10
193.9200
20
112.9800
0
VERTEX
8
CUT
10
197.6800
20
122.4000
0
VERTEX
8
CUT
10
198.6400
20
125.3000
0
VERTEX
8
CUT
10
198.6000
20
125.8900
0
VERTEX
8
CUT
10
198.2900
20
126.0300
0
VERTEX
8
CUT
10
198.0200
20
125.9100
0
VERTEX
8
CUT
10
194.7800
20
121.3000
0
VERTEX
8
CUT
10
192.3900
20
118.6200
0
VERTEX
8
CUT
10
189.9400
20
116.4500
0
VERTEX
8
CUT
10
185.9500
20
113.6800
0
VERTEX
8
CUT
10
179.9700
20
110.7000
0
VERTEX
8
CUT
10
179.6300
20
110.1900
0
VERTEX
8
CUT
10
179.6400
20
109.9500
0
VERTEX
8
CUT
10
179.6400
20
109.9400
0
VERTEX
8
CUT
10
179.6200
20
109.9000
0
VERTEX
8
CUT
10
179.6400
20
109.8800
0
VERTEX
8
CUT
10
179.6400
20
109.8700
0
VERTEX
8
CUT
10
179.7900
20
109.6900
0
VERTEX
8
CUT
10
179.9000
20
109.5600
0
VERTEX
8
CUT
10
179.9200
20
109.5400
0
VERTEX
8
CUT
10
179.9800
20
109.4700
0
VERTEX
8
CUT
10
181.7100
20
107.8200
0
VERTEX
8
CUT
10
181.9400
20
107.6100
0
VERTEX
8
CUT
10
182.1500
20
107.4100
0
VERTEX
8
CUT
10
182.1700
20
107.3900
0
VERTEX
8
CUT
10
182.1800
20
107.3800
0
VERTEX
8
CUT
10
183.8000
20
105.8300
0
VERTEX
8
CUT
10
185.6400
20
103.2400
0
VERTEX
8
CUT
10
187.0900
20
99.6100
0
VERTEX
8
CUT
10
187.8200
20
95.6500
0
VERTEX
8
CUT
10
187.8300
20
93.0700
0
VERTEX
8
CUT
10
187.3400
20
89.5700
0
VERTEX
8
CUT
10
184.7600
20
81.5500
0
VERTEX
8
CUT
10
183.5700
20
76.2600
0
VERTEX
8
CUT
10
183.0700
20
71.4200
0
SEQEND
0
POLYLINE
8
CUT
66
1
70
1
10
0.0
20
0.0
30
0.0
0
VERTEX
8
CUT
10
146.2400
20
56.4100
0
VERTEX
8
CUT
10
146.2400
20
56.4000
0
VERTEX
8
CUT
10
146.2500
20
56.3500
0
VERTEX
8
CUT
10
146.3200
20
56.0800
0
VERTEX
8
CUT
10
146.3500
20
55.9700
0
VERTEX
8
CUT
10
146.4000
20
55.7500
0
VERTEX
8
CUT
10
146.6800
20
54.6600
0
VERTEX
8
CUT
10
147.1200
20
52.9500
0
VERTEX
8
CUT
10
148.2100
20
48.3700
0
VERTEX
8
CUT
10
148.3500
20
48.1500
0
VERTEX
8
CUT
10
148.3600
20
48.1400
0
VERTEX
8
CUT
10
148.3600
20
48.1300
0
VERTEX
8
CUT
10
148.4000
20
47.9700
0
VERTEX
8
CUT
10
148.7500
20
46.0300
0
VERTEX
8
CUT
10
148.7300
20
45.9900
0
VERTEX
8
CUT
10
148.7300
20
44.9700
0
VERTEX
8
CUT
10
149.2400
20
43.4000
0
VERTEX
8
CUT
10
149.3300
20
43.4200
0
VERTEX
8
CUT
10
150.1200
20
40.2500
0
VERTEX
8
CUT
10
151.3200
20
36.3900
0
VERTEX
8
CUT
10
152.5300
20
33.2500
0
VERTEX
8
CUT
10
153.9500
20
30.4000
0
VERTEX
8
CUT
10
153.9900
20
30.3400
0
VERTEX
8
CUT
10
154.0000
20
30.3300
0
VERTEX
8
CUT
10
154.0100
20
30.3100
0
VERTEX
8
CUT
10
154.0200
20
30.2900
0
VERTEX
8
CUT
10
154.0300
20
30.2600
0
VERTEX
8
CUT
10
154.1900
20
29.9400
0
VERTEX
8
CUT
10
154.3800
20
29.6900
0
VERTEX
8
CUT
10
156.1400
20
26.7900
0
VERTEX
8
CUT
10
158.9100
20
23.5300
0
VERTEX
8
CUT
10
160.6100
20
22.5400
0
VERTEX
8
CUT
10
163.2800
20
21.3400
0
VERTEX
8
CUT
10
165.2400
20
20.8600
0
VERTEX
8
CUT
10
166.8400
20
20.8700
0
VERTEX
8
CUT
10
168.1900
20
21.2900
0
VERTEX
8
CUT
10
169.0200
20
21.3500
0
VERTEX
8
CUT
10
171.6900
20
22.8200
0
VERTEX
8
CUT
10
173.3700
20
24.2300
0
VERTEX
8
CUT
10
174.7300
20
25.8800
0
VERTEX
8
CUT
10
176.1800
20
28.0300
0
VERTEX
8
CUT
10
177.8500
20
31.3700
0
VERTEX
8
CUT
10
179.0500
20
34.5000
0
VERTEX
8
CUT
10
180.4900
20
39.7800
0
VERTEX
8
CUT
10
181.2000
20
43.6100
0
VERTEX
8
CUT
10
181.6600
20
47.5000
0
VERTEX
8
CUT
10
181.6500
20
57.4000
0
VERTEX
8
CUT
10
180.4800
20
64.5600
0
VERTEX
8
CUT
10
180.0500
20
66.2300
0
VERTEX
8
CUT
10
180.0000
20
67.2000
0
VERTEX
8
CUT
10
179.5800
20
68.5500
0
VERTEX
8
CUT
10
178.8600
20
72.6300
0
VERTEX
8
CUT
10
178.5700
20
76.7200
0
VERTEX
8
CUT
10
178.3700
20
77.4200
0
VERTEX
8
CUT
10
178.3700
20
81.1500
0
VERTEX
8
CUT
10
178.5700
20
81.8600
0
VERTEX
8
CUT
10
178.8500
20
86.8100
0
VERTEX
8
CUT
10
179.0500
20
87.4200
0
VERTEX
8
CUT
10
179.0500
20
90.3300
0
VERTEX
8
CUT
10
178.8100
20
91.8000
0
VERTEX
8
CUT
10
178.3300
20
93.2800
0
VERTEX
8
CUT
10
176.8700
20
95.9100
0
VERTEX
8
CUT
10
175.5600
20
97.2400
0
VERTEX
8
CUT
10
173.8000
20
98.5200
0
VERTEX
8
CUT
10
171.4200
20
99.4700
0
VERTEX
8
CUT
10
169.4800
20
99.9400
0
VERTEX
8
CUT
10
166.3400
20
99.9500
0
VERTEX
8
CUT
10
166.3200
20
99.9600
0
VERTEX
8
CUT
10
163.7000
20
99.9700
0
VERTEX
8
CUT
10
162.1000
20
99.7200
0
VERTEX
8
CUT
10
161.6700
20
99.5900
0
VERTEX
8
CUT
10
161.1400
20
99.4900
0
VERTEX
8
CUT
10
158.9600
20
98.7600
0
VERTEX
8
CUT
10
158.9200
20
98.7500
0
VERTEX
8
CUT
10
155.5900
20
97.0900
0
VERTEX
8
CUT
10
155.4800
20
97.0200
0
VERTEX
8
CUT
10
155.1400
20
96.8500
0
VERTEX
8
CUT
10
152.9600
20
95.4000
0
VERTEX
8
CUT
10
149.3100
20
92.4500
0
VERTEX
8
CUT
10
144.2700
20
87.7600
0
VERTEX
8
CUT
10
140.5600
20
85.0000
0
VERTEX
8
CUT
10
136.9200
20
83.3100
0
VERTEX
8
CUT
10
134.4700
20
82.5700
0
VERTEX
8
CUT
10
131.6400
20
82.0900
0
VERTEX
8
CUT
10
126.6000
20
82.0700
0
VERTEX
8
CUT
10
126.5600
20
82.0700
0
VERTEX
8
CUT
10
126.4000
20
81.9300
0
VERTEX
8
CUT
10
126.2300
20
81.8100
0
VERTEX
8
CUT
10
126.2400
20
81.7900
0
VERTEX
8
CUT
10
126.2200
20
81.7700
0
VERTEX
8
CUT
10
126.3600
20
81.3700
0
VERTEX
8
CUT
10
132.0000
20
77.8300
0
VERTEX
8
CUT
10
132.0200
20
77.8200
0
VERTEX
8
CUT
10
132.2100
20
77.6600
0
VERTEX
8
CUT
10
132.3400
20
77.5500
0
VERTEX
8
CUT
10
132.4100
20
77.4800
0
VERTEX
8
CUT
10
132.4200
20
77.4800
0
VERTEX
8
CUT
10
135.7500
20
74.5800
0
VERTEX
8
CUT
10
136.4000
20
73.9200
0
VERTEX
8
CUT
10
136.5100
20
73.8100
0
VERTEX
8
CUT
10
136.5200
20
73.8000
0
VERTEX
8
CUT
10
136.6000
20
73.7200
0
VERTEX
8
CUT
10
138.5700
20
71.6000
0
VERTEX
8
CUT
10
139.1900
20
70.9300
0
VERTEX
8
CUT
10
140.4500
20
69.2300
0
VERTEX
8
CUT
10
141.7700
20
67.2700
0
VERTEX
8
CUT
10
142.7300
20
65.4800
0
VERTEX
8
CUT
10
143.9800
20
62.8500
0
VERTEX
8
CUT
10
144.4900
20
61.6400
0
VERTEX
8
CUT
10
145.1500
20
59.7500
0
VERTEX
8
CUT
10
145.3400
20
59.2000
0
VERTEX
8
CUT
10
145.3500
20
59.1800
0
VERTEX
8
CUT
10
145.3600
20
59.1700
0
VERTEX
8
CUT
10
145.3600
20
59.1600
0
VERTEX
8
CUT
10
145.3600
20
59.1500
0
VERTEX
8
CUT
10
145.3700
20
59.1100
0
VERTEX
8
CUT
10
146.2100
20
56.5000
0
VERTEX
8
CUT
10
146.2100
20
56.4900
0
VERTEX
8
CUT
10
146.2200
20
56.4700
0
VERTEX
8
CUT
10
146.2300
20
56.4400
0
SEQEND
0
POLYLINE
8
CUT
66
1
70
1
10
0.0
20
0.0
30
0.0
0
VERTEX
8
CUT
10
134.6300
20
94.6900
0
VERTEX
8
CUT
10
138.4400
20
96.8400
0
VERTEX
8
CUT
10
141.0500
20
98.6400
0
VERTEX
8
CUT
10
143.9700
20
100.3400
0
VERTEX
8
CUT
10
150.6800
20
103.6900
0
VERTEX
8
CUT
10
154.0600
20
104.9000
0
VERTEX
8
CUT
10
156.7200
20
105.6200
0
VERTEX
8
CUT
10
163.5100
20
106.8800
0
VERTEX
8
CUT
10
164.4200
20
107.1400
0
VERTEX
8
CUT
10
164.6100
20
107.5200
0
VERTEX
8
CUT
10
164.3000
20
107.8600
0
VERTEX
8
CUT
10
161.5400
20
108.1300
0
VERTEX
8
CUT
10
159.2700
20
108.6400
0
VERTEX
8
CUT
10
155.7000
20
109.8300
0
VERTEX
8
CUT
10
151.1000
20
111.9000
0
VERTEX
8
CUT
10
147.0000
20
113.3400
0
VERTEX
8
CUT
10
144.5100
20
113.8200
0
VERTEX
8
CUT
10
139.9800
20
113.8200
0
VERTEX
8
CUT
10
137.2500
20
113.3400
0
VERTEX
8
CUT
10
132.8800
20
111.8900
0
VERTEX
8
CUT
10
126.2300
20
108.5600
0
VERTEX
8
CUT
10
120.7300
20
105.5500
0
VERTEX
8
CUT
10
115.4100
20
103.6100
0
VERTEX
8
CUT
10
110.7200
20
102.8700
0
VERTEX
8
CUT
10
106.2400
20
102.8600
0
VERTEX
8
CUT
10
105.3500
20
103.0700
0
VERTEX
8
CUT
10
103.1100
20
102.9800
0
VERTEX
8
CUT
10
103.0000
20
102.7000
0
VERTEX
8
CUT
10
103.4300
20
102.1700
0
VERTEX
8
CUT
10
109.7500
20
98.0400
0
VERTEX
8
CUT
10
114.4900
20
95.4200
0
VERTEX
8
CUT
10
118.1000
20
93.9800
0
VERTEX
8
CUT
10
119.1500
20
93.9200
0
VERTEX
8
CUT
10
120.2900
20
93.4900
0
VERTEX
8
CUT
10
121.3000
20
93.4400
0
VERTEX
8
CUT
10
123.0500
20
93.0100
0
VERTEX
8
CUT
10
129.7200
20
93.2500
0
SEQEND
0
POLYLINE
8
CUT
66
1
70
1
10
0.0
20
0.0
30
0.0
0
VERTEX
8
CUT
10
83.3300
20
184.8200
0
VERTEX
8
CUT
10
84.0800
20
183.8800
0
VERTEX
8
CUT
10
84.5100
20
183.3400
0
VERTEX
8
CUT
10
85.8200
20
181.6800
0
VERTEX
8
CUT
10
85.8400
20
181.6700
0
VERTEX
8
CUT
10
85.8500
20
181.6600
0
VERTEX
8
CUT
10
90.3800
20
179.9900
0
VERTEX
8
CUT
10
91.0900
20
179.8900
0
VERTEX
8
CUT
10
94.9100
20
178.0800
0
VERTEX
8
CUT
10
96.0400
20
178.0100
0
VERTEX
8
CUT
10
96.0500
20
178.0100
0
VERTEX
8
CUT
10
96.0700
20
178.0100
0
VERTEX
8
CUT
10
96.2200
20
178.0000
0
VERTEX
8
CUT
10
96.3600
20
177.9900
0
VERTEX
8
CUT
10
96.6200
20
177.9600
0
VERTEX
8
CUT
10
99.2400
20
176.1600
0
VERTEX
8
CUT
10
103.7400
20
174.0200
0
VERTEX
8
CUT
10
103.7700
20
174.0100
0
VERTEX
8
CUT
10
109.5300
20
172.0900
0
VERTEX
8
CUT
10
113.1500
20
171.1400
0
VERTEX
8
CUT
10
118.1000
20
170.8800
0
VERTEX
8
CUT
10
119.9100
20
170.9000
0
VERTEX
8
CUT
10
121.4400
20
171.1400
0
VERTEX
8
CUT
10
122.4700
20
171.4000
0
VERTEX
8
CUT
10
123.5000
20
171.8800
0
VERTEX
8
CUT
10
124.1400
20
172.1100
0
VERTEX
8
CUT
10
126.0100
20
173.0500
0
VERTEX
8
CUT
10
127.4600
20
174.0400
0
VERTEX
8
CUT
10
127.4800
20
174.0600
0
VERTEX
8
CUT
10
127.5200
20
174.0900
0
VERTEX
8
CUT
10
129.8400
20
176.4300
0
VERTEX
8
CUT
10
131.5000
20
179.7300
0
VERTEX
8
CUT
10
132.2300
20
183.2100
0
VERTEX
8
CUT
10
132.2300
20
185.0900
0
VERTEX
8
CUT
10
132.0200
20
185.7200
0
VERTEX
8
CUT
10
131.9900
20
186.8800
0
VERTEX
8
CUT
10
131.0200
20
190.5100
0
VERTEX
8
CUT
10
129.0900
20
194.3600
0
VERTEX
8
CUT
10
126.4100
20
197.9800
0
VERTEX
8
CUT
10
123.4200
20
201.0000
0
VERTEX
8
CUT
10
121.0300
20
203.1200
0
VERTEX
8
CUT
10
112.5500
20
209.8200
0
VERTEX
8
CUT
10
107.3400
20
215.0300
0
VERTEX
8
CUT
10
104.6400
20
218.4300
0
VERTEX
8
CUT
10
102.4600
20
221.8100
0
VERTEX
8
CUT
10
100.3000
20
226.1100
0
VERTEX
8
CUT
10
99.3300
20
228.5500
0
VERTEX
8
CUT
10
98.1100
20
232.9200
0
VERTEX
8
CUT
10
97.6300
20
235.8400
0
VERTEX
8
CUT
10
97.5900
20
237.7200
0
VERTEX
8
CUT
10
97.3800
20
238.5700
0
VERTEX
8
CUT
10
97.3900
20
242.7800
0
VERTEX
8
CUT
10
97.5900
20
243.4000
0
VERTEX
8
CUT
10
97.6300
20
245.4900
0
VERTEX
8
CUT
10
98.3000
20
248.8100
0
VERTEX
8
CUT
10
98.1500
20
250.9200
0
VERTEX
8
CUT
10
99.7100
20
253.2800
0
VERTEX
8
CUT
10
100.2100
20
254.5400
0
VERTEX
8
CUT
10
100.2900
20
255.6800
0
VERTEX
8
CUT
10
102.3400
20
259.7500
0
VERTEX
8
CUT
10
102.5200
20
260.9800
0
VERTEX
8
CUT
10
102.1000
20
261.4400
0
VERTEX
8
CUT
10
101.3900
20
261.2100
0
VERTEX
8
CUT
10
100.3100
20
260.3900
0
VERTEX
8
CUT
10
93.1500
20
253.7400
0
VERTEX
8
CUT
10
91.4200
20
251.3300
0
VERTEX
8
CUT
10
90.8800
20
250.9000
0
VERTEX
8
CUT
10
89.4700
20
249.0700
0
VERTEX
8
CUT
10
89.1000
20
247.8500
0
VERTEX
8
CUT
10
88.2500
20
246.8800
0
VERTEX
8
CUT
10
87.3800
20
245.1500
0
VERTEX
8
CUT
10
86.0800
20
244.1700
0
VERTEX
8
CUT
10
84.4300
20
240.6800
0
VERTEX
8
CUT
10
84.6000
20
239.7700
0
VERTEX
8
CUT
10
83.4900
20
238.3000
0
VERTEX
8
CUT
10
82.9900
20
236.8400
0
VERTEX
8
CUT
10
82.2700
20
233.4600
0
VERTEX
8
CUT
10
82.0100
20
230.5400
0
VERTEX
8
CUT
10
82.0100
20
230.5300
0
VERTEX
8
CUT
10
82.5100
20
227.3100
0
VERTEX
8
CUT
10
83.9500
20
222.5000
0
VERTEX
8
CUT
10
84.6900
20
220.7900
0
VERTEX
8
CUT
10
86.6400
20
217.8800
0
VERTEX
8
CUT
10
89.2700
20
214.5600
0
VERTEX
8
CUT
10
90.8600
20
212.9500
0
VERTEX
8
CUT
10
97.6700
20
207.4800
0
VERTEX
8
CUT
10
99.4600
20
205.8100
0
VERTEX
8
CUT
10
100.4900
20
205.1900
0
VERTEX
8
CUT
10
101.6400
20
203.8100
0
VERTEX
8
CUT
10
103.5300
20
202.1300
0
VERTEX
8
CUT
10
105.0800
20
200.2900
0
VERTEX
8
CUT
10
106.5400
20
198.1200
0
VERTEX
8
CUT
10
106.5600
20
198.0900
0
VERTEX
8
CUT
10
107.2600
20
196.6900
0
VERTEX
8
CUT
10
107.9800
20
195.2600
0
VERTEX
8
CUT
10
107.9900
20
195.2300
0
VERTEX
8
CUT
10
108.0000
20
195.2100
0
VERTEX
8
CUT
10
108.0800
20
194.9600
0
VERTEX
8
CUT
10
108.1700
20
194.6400
0
VERTEX
8
CUT
10
108.2000
20
194.5400
0
VERTEX
8
CUT
10
108.3000
20
194.2000
0
VERTEX
8
CUT
10
108.5100
20
193.5000
0
VERTEX
8
CUT
10
108.7500
20
188.9000
0
VERTEX
8
CUT
10
107.9600
20
186.9200
0
VERTEX
8
CUT
10
104.3000
20
183.4800
0
VERTEX
8
CUT
10
102.3500
20
182.9000
0
VERTEX
8
CUT
10
100.9300
20
182.9000
0
VERTEX
8
CUT
10
97.6800
20
183.4000
0
VERTEX
8
CUT
10
95.7400
20
184.1300
0
VERTEX
8
CUT
10
95.1800
20
184.5300
0
VERTEX
8
CUT
10
94.0600
20
184.8400
0
VERTEX
8
CUT
10
93.5800
20
185.2400
0
VERTEX
8
CUT
10
93.3300
20
185.8700
0
VERTEX
8
CUT
10
93.2700
20
188.8000
0
VERTEX
8
CUT
10
93.2700
20
188.8200
0
VERTEX
8
CUT
10
92.5600
20
191.2300
0
VERTEX
8
CUT
10
92.5600
20
191.2400
0
VERTEX
8
CUT
10
92.5500
20
191.2600
0
VERTEX
8
CUT
10
92.0800
20
192.2000
0
VERTEX
8
CUT
10
91.6000
20
193.1400
0
VERTEX
8
CUT
10
91.5900
20
193.1700
0
VERTEX
8
CUT
10
91.5400
20
193.2300
0
VERTEX
8
CUT
10
91.5300
20
193.2400
0
VERTEX
8
CUT
10
91.5000
20
193.2800
0
VERTEX
8
CUT
10
91.4600
20
193.3400
0
VERTEX
8
CUT
10
90.6300
20
194.5800
0
VERTEX
8
CUT
10
89.9800
20
195.3700
0
VERTEX
8
CUT
10
89.6400
20
195.8300
0
VERTEX
8
CUT
10
89.4900
20
195.9600
0
VERTEX
8
CUT
10
89.2500
20
196.2500
0
VERTEX
8
CUT
10
86.1800
20
198.8100
0
VERTEX
8
CUT
10
86.1600
20
198.8200
0
VERTEX
8
CUT
10
86.1500
20
198.8300
0
VERTEX
8
CUT
10
86.1400
20
198.8400
0
VERTEX
8
CUT
10
81.3300
20
201.8500
0
VERTEX
8
CUT
10
78.6000
20
204.0800
0
VERTEX
8
CUT
10
78.5900
20
204.0900
0
VERTEX
8
CUT
10
76.0100
20
206.6900
0
VERTEX
8
CUT
10
73.5800
20
209.8200
0
VERTEX
8
CUT
10
72.8100
20
211.1000
0
VERTEX
8
CUT
10
70.6600
20
215.6500
0
VERTEX
8
CUT
10
69.6800
20
219.0600
0
VERTEX
8
CUT
10
69.4100
20
221.8800
0
VERTEX
8
CUT
10
69.4300
20
226.5700
0
VERTEX
8
CUT
10
69.6500
20
227.6600
0
VERTEX
8
CUT
10
69.4000
20
228.0100
0
VERTEX
8
CUT
10
69.0100
20
227.9400
0
VERTEX
8
CUT
10
67.9600
20
226.8200
0
VERTEX
8
CUT
10
65.1100
20
222.8100
0
VERTEX
8
CUT
10
64.2800
20
220.9000
0
VERTEX
8
CUT
10
63.6400
20
220.1100
0
VERTEX
8
CUT
10
63.0900
20
218.0400
0
VERTEX
8
CUT
10
62.4400
20
216.7700
0
VERTEX
8
CUT
10
61.4900
20
212.9400
0
VERTEX
8
CUT
10
61.2300
20
210.7600
0
VERTEX
8
CUT
10
61.2900
20
207.9100
0
VERTEX
8
CUT
10
62.2100
20
203.6200
0
VERTEX
8
CUT
10
64.3600
20
199.0800
0
VERTEX
8
CUT
10
66.1000
20
196.6500
0
VERTEX
8
CUT
10
69.1400
20
193.6100
0
VERTEX
8
CUT
10
72.4400
20
191.2300
0
VERTEX
8
CUT
10
75.7700
20
189.4500
0
VERTEX
8
CUT
10
76.5100
20
188.8500
0
VERTEX
8
CUT
10
76.5400
20
188.8200
0
VERTEX
8
CUT
10
78.9000
20
187.7700
0
VERTEX
8
CUT
10
81.3300
20
185.9600
0
VERTEX
8
CUT
10
83.3100
20
184.8300
0
VERTEX
8
CUT
10
83.3200
20
184.8300
0
SEQEND
0
POLYLINE
8
CUT
66
1
70
1
10
0.0
20
0.0
30
0.0
0
VERTEX
8
CUT
10
72.4800
20
97.0700
0
VERTEX
8
CUT
10
74.4300
20
94.4300
0
VERTEX
8
CUT
10
76.5300
20
92.0400
0
VERTEX
8
CUT
10
80.7700
20
88.3100
0
VERTEX
8
CUT
10
89.1800
20
81.8100
0
VERTEX
8
CUT
10
93.2600
20
79.1600
0
VERTEX
8
CUT
10
98.4800
20
76.5500
0
VERTEX
8
CUT
10
104.0300
20
74.6200
0
VERTEX
8
CUT
10
108.6900
20
73.6100
0
VERTEX
8
CUT
10
109.5500
20
73.1900
0
VERTEX
8
CUT
10
114.3500
20
72.6600
0
VERTEX
8
CUT
10
121.3500
20
71.2200
0
VERTEX
8
CUT
10
125.4600
20
70.0100
0
VERTEX
8
CUT
10
128.3300
20
68.7000
0
VERTEX
8
CUT
10
128.7200
20
68.8000
0
VERTEX
8
CUT
10
128.7100
20
69.3500
0
VERTEX
8
CUT
10
122.1500
20
75.4400
0
VERTEX
8
CUT
10
115.5100
20
82.3600
0
VERTEX
8
CUT
10
112.5600
20
86.0300
0
VERTEX
8
CUT
10
107.5900
20
93.0600
0
VERTEX
8
CUT
10
102.5600
20
99.7500
0
VERTEX
8
CUT
10
99.9500
20
102.7900
0
VERTEX
8
CUT
10
99.3100
20
103.2700
0
VERTEX
8
CUT
10
98.7600
20
103.5500
0
VERTEX
8
CUT
10
98.2300
20
103.5200
0
VERTEX
8
CUT
10
97.1800
20
102.9500
0
VERTEX
8
CUT
10
96.6100
20
102.1200
0
VERTEX
8
CUT
10
96.3700
20
101.2400
0
VERTEX
8
CUT
10
96.3400
20
99.9500
0
VERTEX
8
CUT
10
97.0400
20
96.8600
0
VERTEX
8
CUT
10
97.0500
20
94.5700
0
VERTEX
8
CUT
10
96.8800
20
93.8800
0
VERTEX
8
CUT
10
96.1800
20
93.1700
0
VERTEX
8
CUT
10
94.8400
20
93.0900
0
VERTEX
8
CUT
10
93.2700
20
93.8600
0
VERTEX
8
CUT
10
91.4600
20
95.2000
0
VERTEX
8
CUT
10
89.2800
20
97.3500
0
VERTEX
8
CUT
10
89.2500
20
97.3800
0
VERTEX
8
CUT
10
89.2400
20
97.3900
0
VERTEX
8
CUT
10
89.2400
20
97.4000
0
VERTEX
8
CUT
10
89.2300
20
97.4100
0
VERTEX
8
CUT
10
86.9100
20
100.4800
0
VERTEX
8
CUT
10
85.0100
20
104.2700
0
VERTEX
8
CUT
10
85.0100
20
104.2800
0
VERTEX
8
CUT
10
85.0100
20
104.2900
0
VERTEX
8
CUT
10
85.0000
20
104.3100
0
VERTEX
8
CUT
10
84.9900
20
104.3200
0
VERTEX
8
CUT
10
84.9800
20
104.3400
0
VERTEX
8
CUT
10
83.9900
20
107.5300
0
VERTEX
8
CUT
10
83.9900
20
107.5400
0
VERTEX
8
CUT
10
83.6800
20
108.9500
0
VERTEX
8
CUT
10
83.6700
20
109.0000
0
VERTEX
8
CUT
10
83.6700
20
109.0200
0
VERTEX
8
CUT
10
83.6700
20
109.0300
0
VERTEX
8
CUT
10
83.6600
20
109.0800
0
VERTEX
8
CUT
10
83.6500
20
109.2200
0
VERTEX
8
CUT
10
83.6400
20
109.2900
0
VERTEX
8
CUT
10
83.3400
20
111.6900
0
VERTEX
8
CUT
10
83.2800
20
112.1700
0
VERTEX
8
CUT
10
83.2800
20
112.1800
0
VERTEX
8
CUT
10
83.2800
20
112.2000
0
VERTEX
8
CUT
10
83.2800
20
112.2200
0
VERTEX
8
CUT
10
83.2800
20
112.2600
0
VERTEX
8
CUT
10
83.3000
20
112.7300
0
VERTEX
8
CUT
10
83.3000
20
112.7800
0
VERTEX
8
CUT
10
83.3100
20
112.8600
0
VERTEX
8
CUT
10
83.3100
20
112.9200
0
VERTEX
8
CUT
10
83.5300
20
117.6000
0
VERTEX
8
CUT
10
83.5000
20
118.0500
0
VERTEX
8
CUT
10
83.5100
20
118.4000
0
VERTEX
8
CUT
10
83.2500
20
121.4200
0
VERTEX
8
CUT
10
82.2900
20
124.5700
0
VERTEX
8
CUT
10
81.5500
20
126.0600
0
VERTEX
8
CUT
10
81.5400
20
126.0700
0
VERTEX
8
CUT
10
81.0900
20
126.9600
0
VERTEX
8
CUT
10
77.7200
20
131.7600
0
VERTEX
8
CUT
10
75.4800
20
134.5900
0
VERTEX
8
CUT
10
74.6200
20
136.0600
0
VERTEX
8
CUT
10
73.9700
20
136.7200
0
VERTEX
8
CUT
10
72.8600
20
136.8100
0
VERTEX
8
CUT
10
72.2400
20
137.2300
0
VERTEX
8
CUT
10
71.7800
20
137.2300
0
VERTEX
8
CUT
10
68.6400
20
135.5500
0
VERTEX
8
CUT
10
68.0200
20
134.7500
0
VERTEX
8
CUT
10
67.4500
20
134.3800
0
VERTEX
8
CUT
10
67.3700
20
133.9500
0
VERTEX
8
CUT
10
68.8000
20
131.2300
0
VERTEX
8
CUT
10
69.5500
20
129.2300
0
VERTEX
8
CUT
10
70.2800
20
126.3100
0
VERTEX
8
CUT
10
70.7900
20
122.0500
0
VERTEX
8
CUT
10
70.0400
20
115.1900
0
VERTEX
8
CUT
10
69.3700
20
113.0700
0
VERTEX
8
CUT
10
69.1600
20
111.4200
0
VERTEX
8
CUT
10
69.1200
20
106.9500
0
VERTEX
8
CUT
10
69.3700
20
104.7500
0
VERTEX
8
CUT
10
70.5700
20
100.9000
0
SEQEND
0
POLYLINE
8
CUT
66
1
70
1
10
0.0
20
0.0
30
0.0
0
VERTEX
8
CUT
10
105.1000
20
112.6000
0
VERTEX
8
CUT
10
111.1700
20
113.5600
0
VERTEX
8
CUT
10
116.4600
20
115.0000
0
VERTEX
8
CUT
10
119.4900
20
116.1300
0
VERTEX
8
CUT
10
119.3500
20
116.6600
0
VERTEX
8
CUT
10
116.9400
20
117.2600
0
VERTEX
8
CUT
10
115.0700
20
118.2000
0
VERTEX
8
CUT
10
113.9600
20
119.0400
0
VERTEX
8
CUT
10
113.5300
20
119.5400
0
VERTEX
8
CUT
10
111.5400
20
122.2500
0
VERTEX
8
CUT
10
111.5300
20
122.2600
0
VERTEX
8
CUT
10
111.3500
20
122.5400
0
VERTEX
8
CUT
10
111.2900
20
122.5800
0
VERTEX
8
CUT
10
111.2800
20
122.5900
0
VERTEX
8
CUT
10
111.2800
20
122.6000
0
VERTEX
8
CUT
10
108.6700
20
126.1600
0
VERTEX
8
CUT
10
104.5100
20
129.5800
0
VERTEX
8
CUT
10
102.1600
20
130.7600
0
VERTEX
8
CUT
10
99.9400
20
131.5000
0
VERTEX
8
CUT
10
98.9300
20
131.5500
0
VERTEX
8
CUT
10
97.2200
20
131.9700
0
VERTEX
8
CUT
10
96.5100
20
131.9800
0
VERTEX
8
CUT
10
96.4900
20
131.9900
0
VERTEX
8
CUT
10
93.2100
20
132.0300
0
VERTEX
8
CUT
10
90.5500
20
132.5000
0
VERTEX
8
CUT
10
89.0400
20
133.0000
0
VERTEX
8
CUT
10
89.0300
20
133.0100
0
VERTEX
8
CUT
10
86.1400
20
134.7100
0
VERTEX
8
CUT
10
83.2600
20
137.4300
0
VERTEX
8
CUT
10
82.3700
20
137.8700
0
VERTEX
8
CUT
10
81.8900
20
137.7200
0
VERTEX
8
CUT
10
81.5900
20
137.2900
0
VERTEX
8
CUT
10
81.5500
20
136.0900
0
VERTEX
8
CUT
10
81.5600
20
136.0700
0
VERTEX
8
CUT
10
81.5600
20
136.0600
0
VERTEX
8
CUT
10
82.0600
20
135.0300
0
VERTEX
8
CUT
10
84.7700
20
131.5100
0
VERTEX
8
CUT
10
86.7400
20
128.3300
0
VERTEX
8
CUT
10
88.6300
20
124.0600
0
VERTEX
8
CUT
10
89.7000
20
121.1700
0
VERTEX
8
CUT
10
91.1400
20
118.5400
0
VERTEX
8
CUT
10
93.4500
20
115.9700
0
VERTEX
8
CUT
10
95.3900
20
114.5200
0
VERTEX
8
CUT
10
97.3200
20
113.5700
0
VERTEX
8
CUT
10
100.0000
20
112.8400
0
VERTEX
8
CUT
10
101.8700
20
112.6000
0
SEQEND
0
POLYLINE
8
CUT
66
1
70
1
10
0.0
20
0.0
30
0.0
0
VERTEX
8
CUT
10
99.9100
20
73.2200
0
VERTEX
8
CUT
10
98.9800
20
73.0000
0
VERTEX
8
CUT
10
97.1600
20
72.9700
0
VERTEX
8
CUT
10
96.5900
20
72.7700
0
VERTEX
8
CUT
10
94.7700
20
72.7300
0
VERTEX
8
CUT
10
94.1900
20
72.5200
0
VERTEX
8
CUT
10
92.7300
20
72.5200
0
VERTEX
8
CUT
10
90.7700
20
72.7800
0
VERTEX
8
CUT
10
88.2700
20
73.5400
0
VERTEX
8
CUT
10
86.1500
20
74.7300
0
VERTEX
8
CUT
10
84.1400
20
76.2100
0
VERTEX
8
CUT
10
78.6200
20
83.6000
0
VERTEX
8
CUT
10
76.1000
20
85.6600
0
VERTEX
8
CUT
10
75.2000
20
86.7600
0
VERTEX
8
CUT
10
73.7200
20
87.7900
0
VERTEX
8
CUT
10
73.3500
20
87.7800
0
VERTEX
8
CUT
10
73.2000
20
87.2600
0
VERTEX
8
CUT
10
74.5000
20
85.6400
0
VERTEX
8
CUT
10
76.2200
20
82.9400
0
VERTEX
8
CUT
10
77.1800
20
81.0100
0
VERTEX
8
CUT
10
77.9200
20
78.7900
0
VERTEX
8
CUT
10
78.1800
20
77.2900
0
VERTEX
8
CUT
10
78.1800
20
73.2900
0
VERTEX
8
CUT
10
77.6800
20
70.6800
0
VERTEX
8
CUT
10
75.7400
20
66.5400
0
VERTEX
8
CUT
10
73.2900
20
63.1500
0
VERTEX
8
CUT
10
65.5200
20
54.7800
0
VERTEX
8
CUT
10
62.4700
20
51.0100
0
VERTEX
8
CUT
10
60.5500
20
47.6800
0
VERTEX
8
CUT
10
60.0500
20
46.1700
0
VERTEX
8
CUT
10
60.0500
20
45.5500
0
VERTEX
8
CUT
10
60.3600
20
44.9200
0
VERTEX
8
CUT
10
61.0400
20
44.3000
0
VERTEX
8
CUT
10
62.6100
20
44.2700
0
VERTEX
8
CUT
10
63.6300
20
44.5100
0
VERTEX
8
CUT
10
66.3200
20
45.4900
0
VERTEX
8
CUT
10
71.5700
20
48.3600
0
VERTEX
8
CUT
10
81.3700
20
54.8200
0
VERTEX
8
CUT
10
91.6400
20
62.2200
0
VERTEX
8
CUT
10
104.5900
20
72.2900
0
VERTEX
8
CUT
10
104.6800
20
72.8100
0
VERTEX
8
CUT
10
103.2300
20
73.2000
0
SEQEND
0
POLYLINE
8
CUT
66
1
70
1
10
0.0
20
0.0
30
0.0
0
VERTEX
8
CUT
10
93.0100
20
170.5700
0
VERTEX
8
CUT
10
94.4400
20
169.8400
0
VERTEX
8
CUT
10
95.8200
20
168.8000
0
VERTEX
8
CUT
10
96.2100
20
168.8800
0
VERTEX
8
CUT
10
96.3400
20
169.2300
0
VERTEX
8
CUT
10
95.4800
20
170.4000
0
VERTEX
8
CUT
10
92.4000
20
171.9400
0
VERTEX
8
CUT
10
90.6400
20
173.3100
0
VERTEX
8
CUT
10
88.7100
20
173.7800
0
VERTEX
8
CUT
10
86.6400
20
173.8200
0
VERTEX
8
CUT
10
85.8600
20
174.0300
0
VERTEX
8
CUT
10
82.0700
20
174.0300
0
VERTEX
8
CUT
10
80.1600
20
173.7800
0
VERTEX
8
CUT
10
77.7300
20
173.3000
0
VERTEX
8
CUT
10
72.9200
20
171.3800
0
VERTEX
8
CUT
10
71.0500
20
170.1800
0
VERTEX
8
CUT
10
69.5800
20
168.8600
0
VERTEX
8
CUT
10
68.5600
20
168.3500
0
VERTEX
8
CUT
10
67.5100
20
168.0900
0
VERTEX
8
CUT
10
67.3400
20
168.0900
0
VERTEX
8
CUT
10
67.3300
20
168.0900
0
VERTEX
8
CUT
10
67.2200
20
168.1000
0
VERTEX
8
CUT
10
65.2300
20
168.3400
0
VERTEX
8
CUT
10
65.1800
20
168.3500
0
VERTEX
8
CUT
10
65.1600
20
168.3600
0
VERTEX
8
CUT
10
65.1500
20
168.3600
0
VERTEX
8
CUT
10
65.0800
20
168.3900
0
VERTEX
8
CUT
10
65.0200
20
168.4200
0
VERTEX
8
CUT
10
64.8800
20
168.4800
0
VERTEX
8
CUT
10
64.3900
20
168.6900
0
VERTEX
8
CUT
10
63.6300
20
169.0100
0
VERTEX
8
CUT
10
63.6200
20
169.0100
0
VERTEX
8
CUT
10
63.6000
20
169.0200
0
VERTEX
8
CUT
10
63.0500
20
168.9800
0
VERTEX
8
CUT
10
62.8800
20
168.5800
0
VERTEX
8
CUT
10
63.3400
20
167.6900
0
VERTEX
8
CUT
10
63.3900
20
166.2000
0
VERTEX
8
CUT
10
63.6200
20
165.5600
0
VERTEX
8
CUT
10
63.4000
20
164.9000
0
VERTEX
8
CUT
10
63.3700
20
163.8800
0
VERTEX
8
CUT
10
63.3700
20
163.8400
0
VERTEX
8
CUT
10
63.4500
20
163.7300
0
VERTEX
8
CUT
10
63.4700
20
163.7000
0
VERTEX
8
CUT
10
63.4800
20
163.6800
0
VERTEX
8
CUT
10
63.4800
20
163.6700
0
VERTEX
8
CUT
10
63.5600
20
163.5200
0
VERTEX
8
CUT
10
63.5900
20
163.5200
0
VERTEX
8
CUT
10
63.6000
20
163.5000
0
VERTEX
8
CUT
10
63.9700
20
163.5300
0
VERTEX
8
CUT
10
66.5000
20
165.6000
0
VERTEX
8
CUT
10
67.7300
20
166.4700
0
VERTEX
8
CUT
10
68.8000
20
167.1600
0
VERTEX
8
CUT
10
68.8100
20
167.2000
0
VERTEX
8
CUT
10
70.3900
20
168.1900
0
VERTEX
8
CUT
10
75.1300
20
170.5700
0
VERTEX
8
CUT
10
78.0900
20
171.5500
0
VERTEX
8
CUT
10
81.2600
20
172.2800
0
VERTEX
8
CUT
10
83.1600
20
172.5400
0
VERTEX
8
CUT
10
85.4700
20
172.5400
0
VERTEX
8
CUT
10
89.5500
20
171.8000
0
SEQEND
0
POLYLINE
8
CUT
66
1
70
1
10
0.0
20
0.0
30
0.0
0
VERTEX
8
CUT
10
64.1300
20
152.6300
0
VERTEX
8
CUT
10
63.0500
20
153.7100
0
VERTEX
8
CUT
10
62.5300
20
155.0000
0
VERTEX
8
CUT
10
62.4600
20
156.3100
0
VERTEX
8
CUT
10
61.9800
20
157.7800
0
VERTEX
8
CUT
10
61.4900
20
158.8400
0
VERTEX
8
CUT
10
61.1300
20
159.0100
0
VERTEX
8
CUT
10
60.1300
20
158.3400
0
VERTEX
8
CUT
10
58.8800
20
157.0700
0
VERTEX
8
CUT
10
57.9100
20
155.6300
0
VERTEX
8
CUT
10
56.6800
20
153.0300
0
VERTEX
8
CUT
10
55.1500
20
151.9200
0
VERTEX
8
CUT
10
53.6700
20
150.4400
0
VERTEX
8
CUT
10
53.3600
20
149.6000
0
VERTEX
8
CUT
10
53.3600
20
148.5200
0
VERTEX
8
CUT
10
53.3700
20
148.5000
0
VERTEX
8
CUT
10
53.3700
20
148.4800
0
VERTEX
8
CUT
10
53.5200
20
148.1700
0
VERTEX
8
CUT
10
53.5600
20
148.0900
0
VERTEX
8
CUT
10
53.6000
20
148.0100
0
VERTEX
8
CUT
10
53.6200
20
147.9600
0
VERTEX
8
CUT
10
53.6500
20
147.8900
0
VERTEX
8
CUT
10
53.8800
20
147.3900
0
VERTEX
8
CUT
10
53.9000
20
147.3800
0
VERTEX
8
CUT
10
55.0600
20
146.7800
0
VERTEX
8
CUT
10
57.8000
20
146.7300
0
VERTEX
8
CUT
10
58.7300
20
146.5200
0
VERTEX
8
CUT
10
63.2200
20
146.5300
0
VERTEX
8
CUT
10
64.6200
20
146.7800
0
VERTEX
8
CUT
10
67.2400
20
147.9700
0
VERTEX
8
CUT
10
67.9100
20
148.6200
0
VERTEX
8
CUT
10
67.9700
20
149.2500
0
VERTEX
8
CUT
10
67.7000
20
149.9300
0
VERTEX
8
CUT
10
66.7200
20
151.1600
0
SEQEND
0
POLYLINE
8
CUT
66
1
70
1
10
0.0
20
0.0
30
0.0
0
VERTEX
8
CUT
10
55.9900
20
120.3400
0
VERTEX
8
CUT
10
55.9800
20
120.3000
0
VERTEX
8
CUT
10
56.0000
20
120.2900
0
VERTEX
8
CUT
10
56.0000
20
120.2700
0
VERTEX
8
CUT
10
56.0100
20
120.2600
0
VERTEX
8
CUT
10
56.0200
20
120.2400
0
VERTEX
8
CUT
10
56.3000
20
120.1200
0
VERTEX
8
CUT
10
56.3400
20
120.1300
0
VERTEX
8
CUT
10
56.3700
20
120.1200
0
VERTEX
8
CUT
10
56.8800
20
120.3200
0
VERTEX
8
CUT
10
56.9300
20
120.3400
0
VERTEX
8
CUT
10
57.1400
20
120.4100
0
VERTEX
8
CUT
10
57.4100
20
120.5000
0
VERTEX
8
CUT
10
57.4300
20
120.5100
0
VERTEX
8
CUT
10
57.9000
20
120.6700
0
VERTEX
8
CUT
10
58.1700
20
120.6900
0
VERTEX
8
CUT
10
58.4900
20
120.6800
0
VERTEX
8
CUT
10
59.1500
20
120.4900
0
VERTEX
8
CUT
10
59.1600
20
120.4900
0
VERTEX
8
CUT
10
59.7100
20
120.2300
0
VERTEX
8
CUT
10
59.9200
20
120.2700
0
VERTEX
8
CUT
10
59.9300
20
120.2700
0
VERTEX
8
CUT
10
60.0100
20
120.2400
0
VERTEX
8
CUT
10
60.5500
20
120.3700
0
VERTEX
8
CUT
10
61.2300
20
120.4900
0
VERTEX
8
CUT
10
61.5000
20
120.6100
0
VERTEX
8
CUT
10
61.9900
20
120.7300
0
VERTEX
8
CUT
10
63.3900
20
121.4400
0
VERTEX
8
CUT
10
63.4000
20
121.4500
0
VERTEX
8
CUT
10
63.4200
20
121.4600
0
VERTEX
8
CUT
10
63.7200
20
121.7600
0
VERTEX
8
CUT
10
63.8000
20
121.8400
0
VERTEX
8
CUT
10
63.8300
20
121.8700
0
VERTEX
8
CUT
10
63.8900
20
121.9200
0
VERTEX
8
CUT
10
64.4400
20
122.4500
0
VERTEX
8
CUT
10
64.4800
20
122.5100
0
VERTEX
8
CUT
10
64.5800
20
122.6100
0
VERTEX
8
CUT
10
64.7400
20
122.9200
0
VERTEX
8
CUT
10
64.7500
20
122.9300
0
VERTEX
8
CUT
10
64.8500
20
123.0900
0
VERTEX
8
CUT
10
64.8800
20
123.1800
0
VERTEX
8
CUT
10
65.0900
20
123.5900
0
VERTEX
8
CUT
10
65.5600
20
125.5300
0
VERTEX
8
CUT
10
65.5600
20
125.5600
0
VERTEX
8
CUT
10
65.5700
20
125.5900
0
VERTEX
8
CUT
10
65.5700
20
126.4200
0
VERTEX
8
CUT
10
65.5800
20
128.0600
0
VERTEX
8
CUT
10
65.5600
20
128.1500
0
VERTEX
8
CUT
10
65.5600
20
128.3700
0
VERTEX
8
CUT
10
65.0800
20
130.3100
0
VERTEX
8
CUT
10
64.3700
20
131.7400
0
VERTEX
8
CUT
10
63.7400
20
132.4900
0
VERTEX
8
CUT
10
62.6800
20
134.6200
0
VERTEX
8
CUT
10
59.9500
20
137.7100
0
VERTEX
8
CUT
10
55.0200
20
144.8900
0
VERTEX
8
CUT
10
54.6300
20
144.7900
0
VERTEX
8
CUT
10
54.3200
20
144.1400
0
VERTEX
8
CUT
10
53.8000
20
140.9700
0
VERTEX
8
CUT
10
53.3700
20
140.0900
0
VERTEX
8
CUT
10
53.5700
20
138.7600
0
VERTEX
8
CUT
10
53.6100
20
135.3500
0
VERTEX
8
CUT
10
54.0800
20
132.9500
0
VERTEX
8
CUT
10
54.8000
20
130.7700
0
VERTEX
8
CUT
10
55.4600
20
129.4700
0
VERTEX
8
CUT
10
55.9900
20
126.7300
0
VERTEX
8
CUT
10
56.4400
20
125.5300
0
VERTEX
8
CUT
10
56.2300
20
124.7300
0
VERTEX
8
CUT
10
56.2100
20
122.4700
0
VERTEX
8
CUT
10
56.2100
20
122.4400
0
VERTEX
8
CUT
10
55.9300
20
120.5600
0
VERTEX
8
CUT
10
55.9900
20
120.3500
0
SEQEND
0
ENDSEC
0
EOF
