0
SECTION
2
HEADER
9
$ACADVER
1
AC1009
9
$INSUNITS
70
4
0
ENDSEC
0
SECTION
2
TABLES
0
TABLE
2
LAYER
70
1
0
LAYER
2
CUT
70
0
62
7
6
CONTINUOUS
0
ENDTAB
0
ENDSEC
0
SECTION
2
ENTITIES
0
POLYLINE
8
CUT
66
1
70
1
10
0.0
20
0.0
30
0.0
0
VERTEX
8
CUT
10
299.9605
20
299.9971
0
VERTEX
8
CUT
10
299.9634
20
299.9386
0
VERTEX
8
CUT
10
299.9634
20
0.0614
0
VERTEX
8
CUT
10
299.9605
20
0.0029
0
VERTEX
8
CUT
10
299.9020
20
-0.0000
0
VERTEX
8
CUT
10
0.0614
20
-0.0000
0
VERTEX
8
CUT
10
0.0029
20
0.0029
0
VERTEX
8
CUT
10
0.0000
20
0.0614
0
VERTEX
8
CUT
10
0.0000
20
299.9386
0
VERTEX
8
CUT
10
0.0029
20
299.9971
0
VERTEX
8
CUT
10
0.0614
20
300.0000
0
VERTEX
8
CUT
10
299.9020
20
300.0000
0
SEQEND
0
POLYLINE
8
CUT
66
1
70
1
10
0.0
20
0.0
30
0.0
0
VERTEX
8
CUT
10
236.8575
20
132.9637
0
VERTEX
8
CUT
10
236.8363
20
132.7158
0
VERTEX
8
CUT
10
236.8399
20
132.4670
0
VERTEX
8
CUT
10
236.8682
20
132.2198
0
VERTEX
8
CUT
10
236.9209
20
131.9767
0
VERTEX
8
CUT
10
236.9976
20
131.7400
0
VERTEX
8
CUT
10
237.0973
20
131.5121
0
VERTEX
8
CUT
10
237.2193
20
131.2952
0
VERTEX
8
CUT
10
237.3621
20
131.0915
0
VERTEX
8
CUT
10
237.5246
20
130.9030
0
VERTEX
8
CUT
10
237.7049
20
130.7317
0
VERTEX
8
CUT
10
237.9014
20
130.5790
0
VERTEX
8
CUT
10
238.1121
20
130.4467
0
VERTEX
8
CUT
10
238.3349
20
130.3360
0
VERTEX
8
CUT
10
238.5676
20
130.2479
0
VERTEX
8
CUT
10
238.8079
20
130.1835
0
VERTEX
8
CUT
10
239.0534
20
130.1432
0
VERTEX
8
CUT
10
239.3017
20
130.1275
0
VERTEX
8
CUT
10
239.5503
20
130.1366
0
VERTEX
8
CUT
10
239.7968
20
130.1704
0
VERTEX
8
CUT
10
240.0388
20
130.2285
0
VERTEX
8
CUT
10
240.2737
20
130.3103
0
VERTEX
8
CUT
10
240.4994
20
130.4151
0
VERTEX
8
CUT
10
240.7135
20
130.5418
0
VERTEX
8
CUT
10
244.7568
20
133.2149
0
VERTEX
8
CUT
10
244.9347
20
133.3440
0
VERTEX
8
CUT
10
250.3553
20
137.6570
0
VERTEX
8
CUT
10
250.5069
20
137.7879
0
VERTEX
8
CUT
10
250.6475
20
137.9305
0
VERTEX
8
CUT
10
253.8538
20
141.4529
0
VERTEX
8
CUT
10
253.9467
20
141.5611
0
VERTEX
8
CUT
10
256.1148
20
144.2346
0
VERTEX
8
CUT
10
256.2882
20
144.4765
0
VERTEX
8
CUT
10
257.5918
20
146.5452
0
VERTEX
8
CUT
10
257.7113
20
146.7572
0
VERTEX
8
CUT
10
258.6781
20
148.6846
0
VERTEX
8
CUT
10
258.7974
20
148.9637
0
VERTEX
8
CUT
10
260.1209
20
152.6651
0
VERTEX
8
CUT
10
260.1933
20
152.9048
0
VERTEX
8
CUT
10
260.6546
20
154.7639
0
VERTEX
8
CUT
10
260.7036
20
155.0163
0
VERTEX
8
CUT
10
260.7264
20
155.2724
0
VERTEX
8
CUT
10
260.7676
20
156.3710
0
VERTEX
8
CUT
10
260.7688
20
156.3906
0
VERTEX
8
CUT
10
260.7748
20
156.4324
0
VERTEX
8
CUT
10
260.7851
20
156.4734
0
VERTEX
8
CUT
10
260.7914
20
156.4920
0
VERTEX
8
CUT
10
260.8684
20
156.7027
0
VERTEX
8
CUT
10
260.9479
20
156.9637
0
VERTEX
8
CUT
10
260.9986
20
157.2319
0
VERTEX
8
CUT
10
261.0197
20
157.5039
0
VERTEX
8
CUT
10
261.0513
20
158.8915
0
VERTEX
8
CUT
10
261.0523
20
158.9107
0
VERTEX
8
CUT
10
261.0626
20
158.9928
0
VERTEX
8
CUT
10
261.0664
20
159.0117
0
VERTEX
8
CUT
10
261.1880
20
159.5394
0
VERTEX
8
CUT
10
261.2293
20
159.7662
0
VERTEX
8
CUT
10
261.2495
20
159.9958
0
VERTEX
8
CUT
10
261.2486
20
160.2263
0
VERTEX
8
CUT
10
261.2264
20
160.4557
0
VERTEX
8
CUT
10
261.1832
20
160.6821
0
VERTEX
8
CUT
10
261.0597
20
161.1981
0
VERTEX
8
CUT
10
261.0555
20
161.2181
0
VERTEX
8
CUT
10
261.0444
20
161.3050
0
VERTEX
8
CUT
10
261.0435
20
161.3253
0
VERTEX
8
CUT
10
261.0044
20
163.3548
0
VERTEX
8
CUT
10
260.9812
20
163.6502
0
VERTEX
8
CUT
10
260.9232
20
163.9407
0
VERTEX
8
CUT
10
260.5090
20
165.5207
0
VERTEX
8
CUT
10
260.5046
20
165.5394
0
VERTEX
8
CUT
10
260.4918
20
165.6211
0
VERTEX
8
CUT
10
260.4903
20
165.6402
0
VERTEX
8
CUT
10
260.4615
20
166.1811
0
VERTEX
8
CUT
10
260.4318
20
166.4545
0
VERTEX
8
CUT
10
260.3723
20
166.7230
0
VERTEX
8
CUT
10
258.2788
20
174.1924
0
VERTEX
8
CUT
10
258.2775
20
174.1974
0
VERTEX
8
CUT
10
258.2680
20
174.2453
0
VERTEX
8
CUT
10
258.2653
20
174.2703
0
VERTEX
8
CUT
10
258.2641
20
174.2931
0
VERTEX
8
CUT
10
258.2301
20
175.5142
0
VERTEX
8
CUT
10
258.2116
20
175.7559
0
VERTEX
8
CUT
10
258.1698
20
175.9947
0
VERTEX
8
CUT
10
258.1051
20
176.2283
0
VERTEX
8
CUT
10
258.0028
20
176.5382
0
VERTEX
8
CUT
10
257.9972
20
176.5567
0
VERTEX
8
CUT
10
257.9883
20
176.5972
0
VERTEX
8
CUT
10
257.9836
20
176.6384
0
VERTEX
8
CUT
10
257.9829
20
176.6577
0
VERTEX
8
CUT
10
257.9610
20
178.5760
0
VERTEX
8
CUT
10
257.9616
20
178.6316
0
VERTEX
8
CUT
10
257.9648
20
178.6871
0
VERTEX
8
CUT
10
258.2649
20
182.3591
0
VERTEX
8
CUT
10
258.2655
20
182.3643
0
VERTEX
8
CUT
10
258.2780
20
182.4426
0
VERTEX
8
CUT
10
258.2820
20
182.4603
0
VERTEX
8
CUT
10
259.4142
20
186.9787
0
VERTEX
8
CUT
10
259.4193
20
186.9969
0
VERTEX
8
CUT
10
259.4468
20
187.0733
0
VERTEX
8
CUT
10
259.4545
20
187.0905
0
VERTEX
8
CUT
10
262.4688
20
193.4081
0
VERTEX
8
CUT
10
262.4952
20
193.4600
0
VERTEX
8
CUT
10
262.5240
20
193.5106
0
VERTEX
8
CUT
10
264.0566
20
196.0523
0
VERTEX
8
CUT
10
264.1807
20
196.2851
0
VERTEX
8
CUT
10
264.2796
20
196.5297
0
VERTEX
8
CUT
10
264.3522
20
196.7833
0
VERTEX
8
CUT
10
264.3976
20
197.0432
0
VERTEX
8
CUT
10
264.4217
20
197.2429
0
VERTEX
8
CUT
10
264.4248
20
197.2633
0
VERTEX
8
CUT
10
264.4449
20
197.3495
0
VERTEX
8
CUT
10
264.4512
20
197.3691
0
VERTEX
8
CUT
10
267.5889
20
206.2937
0
VERTEX
8
CUT
10
267.6711
20
206.5818
0
VERTEX
8
CUT
10
267.7183
20
206.8776
0
VERTEX
8
CUT
10
267.7542
20
207.2411
0
VERTEX
8
CUT
10
267.7563
20
207.2581
0
VERTEX
8
CUT
10
267.7633
20
207.2946
0
VERTEX
8
CUT
10
267.7736
20
207.3304
0
VERTEX
8
CUT
10
267.7793
20
207.3461
0
VERTEX
8
CUT
10
268.1051
20
208.1808
0
VERTEX
8
CUT
10
268.1881
20
208.4318
0
VERTEX
8
CUT
10
268.2441
20
208.6901
0
VERTEX
8
CUT
10
268.2725
20
208.9529
0
VERTEX
8
CUT
10
268.2959
20
209.3797
0
VERTEX
8
CUT
10
268.2975
20
209.3990
0
VERTEX
8
CUT
10
268.3105
20
209.4812
0
VERTEX
8
CUT
10
268.3150
20
209.5001
0
VERTEX
8
CUT
10
268.7415
20
211.1056
0
VERTEX
8
CUT
10
268.7963
20
211.3680
0
VERTEX
8
CUT
10
268.8227
20
211.6347
0
VERTEX
8
CUT
10
268.8608
20
212.4783
0
VERTEX
8
CUT
10
268.8620
20
212.4958
0
VERTEX
8
CUT
10
268.8672
20
212.5330
0
VERTEX
8
CUT
10
268.8791
20
212.5686
0
VERTEX
8
CUT
10
268.8859
20
212.5848
0
VERTEX
8
CUT
10
268.9068
20
212.6319
0
VERTEX
8
CUT
10
269.0075
20
212.8994
0
VERTEX
8
CUT
10
269.0771
20
213.1766
0
VERTEX
8
CUT
10
269.1145
20
213.4599
0
VERTEX
8
CUT
10
269.3996
20
217.2888
0
VERTEX
8
CUT
10
269.4050
20
217.5601
0
VERTEX
8
CUT
10
269.3570
20
218.9580
0
VERTEX
8
CUT
10
269.3338
20
219.2230
0
VERTEX
8
CUT
10
269.2825
20
219.4840
0
VERTEX
8
CUT
10
269.1439
20
220.0331
0
VERTEX
8
CUT
10
269.1392
20
220.0545
0
VERTEX
8
CUT
10
269.1268
20
220.1479
0
VERTEX
8
CUT
10
269.1259
20
220.1698
0
VERTEX
8
CUT
10
269.0943
20
222.2376
0
VERTEX
8
CUT
10
269.0811
20
222.4585
0
VERTEX
8
CUT
10
269.0484
20
222.6773
0
VERTEX
8
CUT
10
268.9966
20
222.8924
0
VERTEX
8
CUT
10
268.9259
20
223.1020
0
VERTEX
8
CUT
10
268.8800
20
223.2205
0
VERTEX
8
CUT
10
268.8731
20
223.2400
0
VERTEX
8
CUT
10
268.8617
20
223.2828
0
VERTEX
8
CUT
10
268.8551
20
223.3266
0
VERTEX
8
CUT
10
268.8537
20
223.3472
0
VERTEX
8
CUT
10
268.8195
20
224.1900
0
VERTEX
8
CUT
10
268.8007
20
224.4111
0
VERTEX
8
CUT
10
268.7623
20
224.6297
0
VERTEX
8
CUT
10
268.2887
20
226.7656
0
VERTEX
8
CUT
10
268.2285
20
226.9882
0
VERTEX
8
CUT
10
268.1480
20
227.2043
0
VERTEX
8
CUT
10
267.5013
20
228.7222
0
VERTEX
8
CUT
10
267.4937
20
228.7417
0
VERTEX
8
CUT
10
267.4808
20
228.7846
0
VERTEX
8
CUT
10
267.4727
20
228.8287
0
VERTEX
8
CUT
10
267.4707
20
228.8495
0
VERTEX
8
CUT
10
267.4417
20
229.2638
0
VERTEX
8
CUT
10
267.4124
20
229.5083
0
VERTEX
8
CUT
10
267.3592
20
229.7487
0
VERTEX
8
CUT
10
267.2826
20
229.9828
0
VERTEX
8
CUT
10
267.1834
20
230.2081
0
VERTEX
8
CUT
10
264.7219
20
235.1265
0
VERTEX
8
CUT
10
264.6194
20
235.3114
0
VERTEX
8
CUT
10
264.5016
20
235.4869
0
VERTEX
8
CUT
10
262.4388
20
238.2973
0
VERTEX
8
CUT
10
262.3220
20
238.4445
0
VERTEX
8
CUT
10
262.1944
20
238.5825
0
VERTEX
8
CUT
10
259.5498
20
241.2367
0
VERTEX
8
CUT
10
259.2935
20
241.4611
0
VERTEX
8
CUT
10
256.4202
20
243.6493
0
VERTEX
8
CUT
10
256.2080
20
243.7943
0
VERTEX
8
CUT
10
255.9821
20
243.9168
0
VERTEX
8
CUT
10
255.7447
20
244.0154
0
VERTEX
8
CUT
10
255.4985
20
244.0891
0
VERTEX
8
CUT
10
255.4647
20
244.0974
0
VERTEX
8
CUT
10
255.3744
20
244.1281
0
VERTEX
8
CUT
10
255.3540
20
244.1370
0
VERTEX
8
CUT
10
254.4987
20
244.5450
0
VERTEX
8
CUT
10
254.2701
20
244.6404
0
VERTEX
8
CUT
10
254.0332
20
244.7128
0
VERTEX
8
CUT
10
253.7903
20
244.7613
0
VERTEX
8
CUT
10
253.5438
20
244.7856
0
VERTEX
8
CUT
10
253.2961
20
244.7853
0
VERTEX
8
CUT
10
253.0496
20
244.7606
0
VERTEX
8
CUT
10
252.8068
20
244.7116
0
VERTEX
8
CUT
10
252.5701
20
244.6387
0
VERTEX
8
CUT
10
252.3417
20
244.5429
0
VERTEX
8
CUT
10
252.1239
20
244.4248
0
VERTEX
8
CUT
10
251.9189
20
244.2859
0
VERTEX
8
CUT
10
251.7286
20
244.1273
0
VERTEX
8
CUT
10
251.5549
20
243.9506
0
VERTEX
8
CUT
10
251.3996
20
243.7576
0
VERTEX
8
CUT
10
251.2642
20
243.5503
0
VERTEX
8
CUT
10
251.1499
20
243.3305
0
VERTEX
8
CUT
10
251.0579
20
243.1005
0
VERTEX
8
CUT
10
250.9892
20
242.8625
0
VERTEX
8
CUT
10
250.9443
20
242.6189
0
VERTEX
8
CUT
10
250.9238
20
242.3721
0
VERTEX
8
CUT
10
250.9278
20
242.1244
0
VERTEX
8
CUT
10
250.9563
20
241.8783
0
VERTEX
8
CUT
10
251.0090
20
241.6363
0
VERTEX
8
CUT
10
251.0854
20
241.4007
0
VERTEX
8
CUT
10
251.1847
20
241.1738
0
VERTEX
8
CUT
10
251.3060
20
240.9578
0
VERTEX
8
CUT
10
251.4481
20
240.7549
0
VERTEX
8
CUT
10
251.6096
20
240.5670
0
VERTEX
8
CUT
10
251.6811
20
240.4918
0
VERTEX
8
CUT
10
251.7212
20
240.4445
0
VERTEX
8
CUT
10
253.9765
20
237.6440
0
VERTEX
8
CUT
10
254.0182
20
237.5890
0
VERTEX
8
CUT
10
254.0567
20
237.5317
0
VERTEX
8
CUT
10
255.4722
20
235.2861
0
VERTEX
8
CUT
10
255.5105
20
235.2210
0
VERTEX
8
CUT
10
255.5445
20
235.1535
0
VERTEX
8
CUT
10
257.4440
20
231.0763
0
VERTEX
8
CUT
10
257.4460
20
231.0717
0
VERTEX
8
CUT
10
257.4729
20
231.0005
0
VERTEX
8
CUT
10
257.4781
20
230.9839
0
VERTEX
8
CUT
10
258.5804
20
227.1280
0
VERTEX
8
CUT
10
258.5817
20
227.1232
0
VERTEX
8
CUT
10
258.5971
20
227.0484
0
VERTEX
8
CUT
10
258.5996
20
227.0311
0
VERTEX
8
CUT
10
258.9000
20
224.5505
0
VERTEX
8
CUT
10
258.9067
20
224.4754
0
VERTEX
8
CUT
10
258.9087
20
224.3999
0
VERTEX
8
CUT
10
258.8893
20
221.0514
0
VERTEX
8
CUT
10
258.8858
20
220.9670
0
VERTEX
8
CUT
10
258.8764
20
220.8831
0
VERTEX
8
CUT
10
258.6136
20
219.1116
0
VERTEX
8
CUT
10
258.5996
20
219.0342
0
VERTEX
8
CUT
10
258.5804
20
218.9580
0
VERTEX
8
CUT
10
258.0366
20
217.0579
0
VERTEX
8
CUT
10
258.0313
20
217.0411
0
VERTEX
8
CUT
10
258.0040
20
216.9709
0
VERTEX
8
CUT
10
257.9965
20
216.9550
0
VERTEX
8
CUT
10
256.6153
20
214.1954
0
VERTEX
8
CUT
10
256.6130
20
214.1910
0
VERTEX
8
CUT
10
256.5741
20
214.1259
0
VERTEX
8
CUT
10
256.5644
20
214.1116
0
VERTEX
8
CUT
10
255.8901
20
213.1689
0
VERTEX
8
CUT
10
255.8871
20
213.1649
0
VERTEX
8
CUT
10
255.8393
20
213.1074
0
VERTEX
8
CUT
10
255.8276
20
213.0949
0
VERTEX
8
CUT
10
254.2614
20
211.4977
0
VERTEX
8
CUT
10
254.2485
20
211.4852
0
VERTEX
8
CUT
10
254.1894
20
211.4354
0
VERTEX
8
CUT
10
254.1748
20
211.4248
0
VERTEX
8
CUT
10
252.3177
20
210.1404
0
VERTEX
8
CUT
10
252.2999
20
210.1288
0
VERTEX
8
CUT
10
252.2195
20
210.0856
0
VERTEX
8
CUT
10
252.2000
20
210.0771
0
VERTEX
8
CUT
10
250.8564
20
209.5399
0
VERTEX
8
CUT
10
250.8380
20
209.5330
0
VERTEX
8
CUT
10
250.7566
20
209.5100
0
VERTEX
8
CUT
10
250.7373
20
209.5061
0
VERTEX
8
CUT
10
249.0449
20
209.2114
0
VERTEX
8
CUT
10
249.0397
20
209.2106
0
VERTEX
8
CUT
10
248.9603
20
209.2032
0
VERTEX
8
CUT
10
248.9421
20
209.2026
0
VERTEX
8
CUT
10
247.4425
20
209.1917
0
VERTEX
8
CUT
10
247.4371
20
209.1917
0
VERTEX
8
CUT
10
247.3549
20
209.1978
0
VERTEX
8
CUT
10
247.3363
20
209.2004
0
VERTEX
8
CUT
10
245.5595
20
209.4930
0
VERTEX
8
CUT
10
245.5543
20
209.4940
0
VERTEX
8
CUT
10
245.5054
20
209.5062
0
VERTEX
8
CUT
10
245.4809
20
209.5146
0
VERTEX
8
CUT
10
245.4592
20
209.5236
0
VERTEX
8
CUT
10
242.9391
20
210.6387
0
VERTEX
8
CUT
10
242.9233
20
210.6461
0
VERTEX
8
CUT
10
242.8905
20
210.6644
0
VERTEX
8
CUT
10
242.8593
20
210.6858
0
VERTEX
8
CUT
10
242.8461
20
210.6963
0
VERTEX
8
CUT
10
241.3569
20
211.9354
0
VERTEX
8
CUT
10
241.1600
20
212.0834
0
VERTEX
8
CUT
10
240.9495
20
212.2113
0
VERTEX
8
CUT
10
240.7275
20
212.3179
0
VERTEX
8
CUT
10
240.4960
20
212.4021
0
VERTEX
8
CUT
10
240.2573
20
212.4632
0
VERTEX
8
CUT
10
240.0138
20
212.5004
0
VERTEX
8
CUT
10
239.7679
20
212.5135
0
VERTEX
8
CUT
10
239.5218
20
212.5024
0
VERTEX
8
CUT
10
239.2780
20
212.4671
0
VERTEX
8
CUT
10
239.0389
20
212.4079
0
VERTEX
8
CUT
10
238.8068
20
212.3255
0
VERTEX
8
CUT
10
238.5838
20
212.2207
0
VERTEX
8
CUT
10
238.3723
20
212.0945
0
VERTEX
8
CUT
10
238.1743
20
211.9480
0
VERTEX
8
CUT
10
237.9916
20
211.7828
0
VERTEX
8
CUT
10
237.8261
20
211.6003
0
VERTEX
8
CUT
10
237.6793
20
211.4025
0
VERTEX
8
CUT
10
237.5527
20
211.1912
0
VERTEX
8
CUT
10
237.4475
20
210.9685
0
VERTEX
8
CUT
10
237.3647
20
210.7365
0
VERTEX
8
CUT
10
237.3052
20
210.4974
0
VERTEX
8
CUT
10
237.2695
20
210.2537
0
VERTEX
8
CUT
10
237.2579
20
210.0077
0
VERTEX
8
CUT
10
237.2707
20
209.7617
0
VERTEX
8
CUT
10
237.3075
20
209.5181
0
VERTEX
8
CUT
10
237.3682
20
209.2794
0
VERTEX
8
CUT
10
237.4520
20
209.0478
0
VERTEX
8
CUT
10
238.6761
20
206.1253
0
VERTEX
8
CUT
10
238.6959
20
206.0747
0
VERTEX
8
CUT
10
238.7134
20
206.0233
0
VERTEX
8
CUT
10
240.3510
20
200.8363
0
VERTEX
8
CUT
10
240.3738
20
200.7539
0
VERTEX
8
CUT
10
240.3907
20
200.6701
0
VERTEX
8
CUT
10
240.6882
20
198.8579
0
VERTEX
8
CUT
10
240.7715
20
198.5092
0
VERTEX
8
CUT
10
241.1984
20
197.1590
0
VERTEX
8
CUT
10
241.2031
20
197.1430
0
VERTEX
8
CUT
10
241.2108
20
197.1080
0
VERTEX
8
CUT
10
241.2155
20
197.0724
0
VERTEX
8
CUT
10
241.2165
20
197.0562
0
VERTEX
8
CUT
10
241.2508
20
196.2384
0
VERTEX
8
CUT
10
241.2768
20
195.9684
0
VERTEX
8
CUT
10
241.3320
20
195.7029
0
VERTEX
8
CUT
10
241.7555
20
194.1042
0
VERTEX
8
CUT
10
241.7601
20
194.0846
0
VERTEX
8
CUT
10
241.7733
20
193.9990
0
VERTEX
8
CUT
10
241.7747
20
193.9789
0
VERTEX
8
CUT
10
241.8044
20
193.3324
0
VERTEX
8
CUT
10
241.8258
20
193.1014
0
VERTEX
8
CUT
10
241.8685
20
192.8734
0
VERTEX
8
CUT
10
241.9322
20
192.6503
0
VERTEX
8
CUT
10
242.0163
20
192.4340
0
VERTEX
8
CUT
10
242.0234
20
192.4180
0
VERTEX
8
CUT
10
242.0311
20
192.3993
0
VERTEX
8
CUT
10
242.0443
20
192.3581
0
VERTEX
8
CUT
10
242.0531
20
192.3157
0
VERTEX
8
CUT
10
242.0555
20
192.2956
0
VERTEX
8
CUT
10
242.5584
20
187.0777
0
VERTEX
8
CUT
10
242.5621
20
187.0291
0
VERTEX
8
CUT
10
242.5638
20
186.9804
0
VERTEX
8
CUT
10
242.6540
20
180.8203
0
VERTEX
8
CUT
10
242.6540
20
180.8051
0
VERTEX
8
CUT
10
242.6537
20
180.7724
0
VERTEX
8
CUT
10
242.5329
20
175.3698
0
VERTEX
8
CUT
10
242.5321
20
175.3531
0
VERTEX
8
CUT
10
242.5281
20
175.3172
0
VERTEX
8
CUT
10
242.5209
20
175.2817
0
VERTEX
8
CUT
10
242.5166
20
175.2660
0
VERTEX
8
CUT
10
242.3265
20
174.6263
0
VERTEX
8
CUT
10
242.3197
20
174.6052
0
VERTEX
8
CUT
10
242.3064
20
174.5722
0
VERTEX
8
CUT
10
242.2702
20
174.5017
0
VERTEX
8
CUT
10
242.2224
20
174.4173
0
VERTEX
8
CUT
10
242.1233
20
174.1940
0
VERTEX
8
CUT
10
242.0464
20
173.9620
0
VERTEX
8
CUT
10
241.9925
20
173.7237
0
VERTEX
8
CUT
10
241.9622
20
173.4813
0
VERTEX
8
CUT
10
241.9557
20
173.2371
0
VERTEX
8
CUT
10
241.9730
20
172.9934
0
VERTEX
8
CUT
10
242.0140
20
172.7525
0
VERTEX
8
CUT
10
242.1452
20
172.1595
0
VERTEX
8
CUT
10
242.1462
20
172.1545
0
VERTEX
8
CUT
10
242.1571
20
172.0781
0
VERTEX
8
CUT
10
242.1586
20
172.0605
0
VERTEX
8
CUT
10
242.7576
20
161.7540
0
VERTEX
8
CUT
10
242.7592
20
161.7166
0
VERTEX
8
CUT
10
242.7596
20
161.6791
0
VERTEX
8
CUT
10
242.7240
20
153.9591
0
VERTEX
8
CUT
10
242.7232
20
153.9218
0
VERTEX
8
CUT
10
242.7213
20
153.8845
0
VERTEX
8
CUT
10
242.4428
20
149.7352
0
VERTEX
8
CUT
10
242.4423
20
149.7297
0
VERTEX
8
CUT
10
242.4350
20
149.6813
0
VERTEX
8
CUT
10
242.4256
20
149.6537
0
VERTEX
8
CUT
10
242.4162
20
149.6308
0
VERTEX
8
CUT
10
242.4101
20
149.6171
0
VERTEX
8
CUT
10
242.3260
20
149.3999
0
VERTEX
8
CUT
10
242.2625
20
149.1759
0
VERTEX
8
CUT
10
242.2201
20
148.9469
0
VERTEX
8
CUT
10
242.1992
20
148.7150
0
VERTEX
8
CUT
10
242.1722
20
148.0911
0
VERTEX
8
CUT
10
242.1710
20
148.0737
0
VERTEX
8
CUT
10
242.1660
20
148.0367
0
VERTEX
8
CUT
10
242.1543
20
148.0016
0
VERTEX
8
CUT
10
242.1476
20
147.9853
0
VERTEX
8
CUT
10
242.0838
20
147.8395
0
VERTEX
8
CUT
10
241.9994
20
147.6191
0
VERTEX
8
CUT
10
241.9362
20
147.3916
0
VERTEX
8
CUT
10
241.8947
20
147.1592
0
VERTEX
8
CUT
10
241.6090
20
144.9637
0
VERTEX
8
CUT
10
241.6053
20
144.9411
0
VERTEX
8
CUT
10
241.5809
20
144.8458
0
VERTEX
8
CUT
10
241.5733
20
144.8242
0
VERTEX
8
CUT
10
241.2480
20
143.9899
0
VERTEX
8
CUT
10
241.1683
20
143.7507
0
VERTEX
8
CUT
10
241.1132
20
143.5046
0
VERTEX
8
CUT
10
241.0831
20
143.2542
0
VERTEX
8
CUT
10
241.0456
20
142.7119
0
VERTEX
8
CUT
10
241.0452
20
142.7067
0
VERTEX
8
CUT
10
241.0378
20
142.6573
0
VERTEX
8
CUT
10
241.0317
20
142.6322
0
VERTEX
8
CUT
10
241.0249
20
142.6099
0
VERTEX
8
CUT
10
240.4742
20
140.9501
0
VERTEX
8
CUT
10
240.4607
20
140.9118
0
VERTEX
8
CUT
10
240.4460
20
140.8739
0
VERTEX
8
CUT
10
238.5514
20
136.2431
0
VERTEX
8
CUT
10
238.5157
20
136.1643
0
VERTEX
8
CUT
10
238.4745
20
136.0882
0
VERTEX
8
CUT
10
237.1818
20
133.8980
0
VERTEX
8
CUT
10
237.0662
20
133.6777
0
VERTEX
8
CUT
10
236.9730
20
133.4471
0
VERTEX
8
CUT
10
236.9032
20
133.2082
0
SEQEND
0
POLYLINE
8
CUT
66
1
70
1
10
0.0
20
0.0
30
0.0
0
VERTEX
8
CUT
10
185.7997
20
276.0021
0
VERTEX
8
CUT
10
185.7865
20
275.7678
0
VERTEX
8
CUT
10
185.7704
20
273.9883
0
VERTEX
8
CUT
10
185.7766
20
273.7888
0
VERTEX
8
CUT
10
186.0471
20
269.9751
0
VERTEX
8
CUT
10
186.0813
20
269.7041
0
VERTEX
8
CUT
10
186.1449
20
269.4383
0
VERTEX
8
CUT
10
186.2371
20
269.1811
0
VERTEX
8
CUT
10
186.2838
20
269.0702
0
VERTEX
8
CUT
10
186.2901
20
269.0544
0
VERTEX
8
CUT
10
186.3012
20
269.0196
0
VERTEX
8
CUT
10
186.3091
20
268.9838
0
VERTEX
8
CUT
10
186.3116
20
268.9675
0
VERTEX
8
CUT
10
186.6166
20
266.6218
0
VERTEX
8
CUT
10
186.6526
20
266.4136
0
VERTEX
8
CUT
10
186.7062
20
266.2092
0
VERTEX
8
CUT
10
187.7291
20
262.8830
0
VERTEX
8
CUT
10
187.8544
20
262.5580
0
VERTEX
8
CUT
10
189.9782
20
258.0208
0
VERTEX
8
CUT
10
190.0789
20
257.8280
0
VERTEX
8
CUT
10
191.0907
20
256.0803
0
VERTEX
8
CUT
10
191.2519
20
255.8361
0
VERTEX
8
CUT
10
194.3151
20
251.7381
0
VERTEX
8
CUT
10
194.5542
20
251.4627
0
VERTEX
8
CUT
10
199.8318
20
246.2112
0
VERTEX
8
CUT
10
200.0862
20
245.9902
0
VERTEX
8
CUT
10
205.3580
20
241.9991
0
VERTEX
8
CUT
10
205.5141
20
241.8900
0
VERTEX
8
CUT
10
209.3571
20
239.4172
0
VERTEX
8
CUT
10
209.4683
20
239.3496
0
VERTEX
8
CUT
10
213.0256
20
237.3141
0
VERTEX
8
CUT
10
213.0615
20
237.2928
0
VERTEX
8
CUT
10
213.0965
20
237.2702
0
VERTEX
8
CUT
10
217.2036
20
234.5235
0
VERTEX
8
CUT
10
217.2378
20
234.4998
0
VERTEX
8
CUT
10
217.2712
20
234.4748
0
VERTEX
8
CUT
10
220.9034
20
231.6608
0
VERTEX
8
CUT
10
220.9386
20
231.6324
0
VERTEX
8
CUT
10
220.9728
20
231.6027
0
VERTEX
8
CUT
10
224.3509
20
228.5502
0
VERTEX
8
CUT
10
224.3892
20
228.5140
0
VERTEX
8
CUT
10
224.4259
20
228.4761
0
VERTEX
8
CUT
10
228.4594
20
224.1272
0
VERTEX
8
CUT
10
228.4986
20
224.0829
0
VERTEX
8
CUT
10
228.5355
20
224.0366
0
VERTEX
8
CUT
10
230.8467
20
220.9889
0
VERTEX
8
CUT
10
231.0016
20
220.8039
0
VERTEX
8
CUT
10
231.1735
20
220.6348
0
VERTEX
8
CUT
10
231.3610
20
220.4830
0
VERTEX
8
CUT
10
231.5622
20
220.3500
0
VERTEX
8
CUT
10
231.7753
20
220.2370
0
VERTEX
8
CUT
10
231.9983
20
220.1450
0
VERTEX
8
CUT
10
232.2291
20
220.0750
0
VERTEX
8
CUT
10
232.4656
20
220.0275
0
VERTEX
8
CUT
10
232.7055
20
220.0031
0
VERTEX
8
CUT
10
232.9467
20
220.0018
0
VERTEX
8
CUT
10
233.1869
20
220.0239
0
VERTEX
8
CUT
10
233.4239
20
220.0689
0
VERTEX
8
CUT
10
233.6554
20
220.1366
0
VERTEX
8
CUT
10
233.8793
20
220.2263
0
VERTEX
8
CUT
10
234.0935
20
220.3372
0
VERTEX
8
CUT
10
234.2960
20
220.4682
0
VERTEX
8
CUT
10
234.4850
20
220.6181
0
VERTEX
8
CUT
10
234.6586
20
220.7855
0
VERTEX
8
CUT
10
234.8154
20
220.9688
0
VERTEX
8
CUT
10
234.9537
20
221.1665
0
VERTEX
8
CUT
10
235.0723
20
221.3765
0
VERTEX
8
CUT
10
235.1701
20
221.5969
0
VERTEX
8
CUT
10
235.2462
20
221.8258
0
VERTEX
8
CUT
10
235.3000
20
222.0610
0
VERTEX
8
CUT
10
235.3308
20
222.3002
0
VERTEX
8
CUT
10
235.3384
20
222.5413
0
VERTEX
8
CUT
10
235.3227
20
222.7820
0
VERTEX
8
CUT
10
235.2839
20
223.0200
0
VERTEX
8
CUT
10
234.8313
20
225.1461
0
VERTEX
8
CUT
10
234.7581
20
225.4154
0
VERTEX
8
CUT
10
234.0042
20
227.6794
0
VERTEX
8
CUT
10
233.8978
20
227.9464
0
VERTEX
8
CUT
10
232.0951
20
231.8109
0
VERTEX
8
CUT
10
232.0075
20
231.9814
0
VERTEX
8
CUT
10
231.9070
20
232.1446
0
VERTEX
8
CUT
10
230.3787
20
234.4280
0
VERTEX
8
CUT
10
230.2188
20
234.6413
0
VERTEX
8
CUT
10
228.8586
20
236.2674
0
VERTEX
8
CUT
10
228.6997
20
236.4402
0
VERTEX
8
CUT
10
224.6924
20
240.4068
0
VERTEX
8
CUT
10
224.4701
20
240.6022
0
VERTEX
8
CUT
10
217.7163
20
245.8637
0
VERTEX
8
CUT
10
217.6846
20
245.8893
0
VERTEX
8
CUT
10
217.6538
20
245.9159
0
VERTEX
8
CUT
10
214.4913
20
248.7457
0
VERTEX
8
CUT
10
214.4300
20
248.8046
0
VERTEX
8
CUT
10
214.3730
20
248.8678
0
VERTEX
8
CUT
10
211.3412
20
252.4786
0
VERTEX
8
CUT
10
211.2948
20
252.5375
0
VERTEX
8
CUT
10
211.2522
20
252.5992
0
VERTEX
8
CUT
10
209.2932
20
255.6358
0
VERTEX
8
CUT
10
209.2583
20
255.6933
0
VERTEX
8
CUT
10
209.2268
20
255.7527
0
VERTEX
8
CUT
10
207.6070
20
259.0184
0
VERTEX
8
CUT
10
207.5728
20
259.0937
0
VERTEX
8
CUT
10
207.5439
20
259.1713
0
VERTEX
8
CUT
10
206.7369
20
261.5911
0
VERTEX
8
CUT
10
206.7197
20
261.6471
0
VERTEX
8
CUT
10
206.7053
20
261.7039
0
VERTEX
8
CUT
10
205.8743
20
265.3522
0
VERTEX
8
CUT
10
205.8706
20
265.3707
0
VERTEX
8
CUT
10
205.8606
20
265.4507
0
VERTEX
8
CUT
10
205.8596
20
265.4695
0
VERTEX
8
CUT
10
205.8256
20
266.8059
0
VERTEX
8
CUT
10
205.8121
20
267.0095
0
VERTEX
8
CUT
10
205.7820
20
267.2112
0
VERTEX
8
CUT
10
205.5785
20
268.2766
0
VERTEX
8
CUT
10
205.5756
20
268.2946
0
VERTEX
8
CUT
10
205.5683
20
268.3723
0
VERTEX
8
CUT
10
205.5680
20
268.3905
0
VERTEX
8
CUT
10
205.5774
20
271.2435
0
VERTEX
8
CUT
10
205.5780
20
271.2626
0
VERTEX
8
CUT
10
205.5866
20
271.3445
0
VERTEX
8
CUT
10
205.5900
20
271.3633
0
VERTEX
8
CUT
10
205.7747
20
272.2485
0
VERTEX
8
CUT
10
205.8105
20
272.4686
0
VERTEX
8
CUT
10
205.8265
20
272.6910
0
VERTEX
8
CUT
10
205.8717
20
274.3482
0
VERTEX
8
CUT
10
205.8726
20
274.3663
0
VERTEX
8
CUT
10
205.8774
20
274.4048
0
VERTEX
8
CUT
10
205.8895
20
274.4418
0
VERTEX
8
CUT
10
205.8963
20
274.4586
0
VERTEX
8
CUT
10
205.9126
20
274.4958
0
VERTEX
8
CUT
10
205.9941
20
274.7076
0
VERTEX
8
CUT
10
206.0559
20
274.9259
0
VERTEX
8
CUT
10
206.0978
20
275.1489
0
VERTEX
8
CUT
10
206.1192
20
275.3747
0
VERTEX
8
CUT
10
206.1532
20
276.0636
0
VERTEX
8
CUT
10
206.1536
20
276.0689
0
VERTEX
8
CUT
10
206.1602
20
276.1197
0
VERTEX
8
CUT
10
206.1661
20
276.1456
0
VERTEX
8
CUT
10
206.1727
20
276.1685
0
VERTEX
8
CUT
10
206.5651
20
277.4058
0
VERTEX
8
CUT
10
206.6355
20
277.6814
0
VERTEX
8
CUT
10
206.6742
20
277.9632
0
VERTEX
8
CUT
10
206.7279
20
278.6388
0
VERTEX
8
CUT
10
206.7298
20
278.6567
0
VERTEX
8
CUT
10
206.7365
20
278.6946
0
VERTEX
8
CUT
10
206.7467
20
278.7317
0
VERTEX
8
CUT
10
206.7527
20
278.7486
0
VERTEX
8
CUT
10
208.9668
20
284.5536
0
VERTEX
8
CUT
10
208.9727
20
284.5680
0
VERTEX
8
CUT
10
208.9785
20
284.5806
0
VERTEX
8
CUT
10
209.0718
20
284.8130
0
VERTEX
8
CUT
10
209.1414
20
285.0535
0
VERTEX
8
CUT
10
209.1866
20
285.2998
0
VERTEX
8
CUT
10
209.2069
20
285.5494
0
VERTEX
8
CUT
10
209.2021
20
285.7998
0
VERTEX
8
CUT
10
209.1723
20
286.0484
0
VERTEX
8
CUT
10
209.1178
20
286.2929
0
VERTEX
8
CUT
10
209.0392
20
286.5306
0
VERTEX
8
CUT
10
208.9371
20
286.7593
0
VERTEX
8
CUT
10
208.8126
20
286.9766
0
VERTEX
8
CUT
10
208.6671
20
287.1803
0
VERTEX
8
CUT
10
208.5019
20
287.3685
0
VERTEX
8
CUT
10
208.3187
20
287.5392
0
VERTEX
8
CUT
10
208.1193
20
287.6908
0
VERTEX
8
CUT
10
207.9058
20
287.8216
0
VERTEX
8
CUT
10
207.6803
20
287.9304
0
VERTEX
8
CUT
10
207.4450
20
288.0161
0
VERTEX
8
CUT
10
207.2023
20
288.0779
0
VERTEX
8
CUT
10
206.9547
20
288.1150
0
VERTEX
8
CUT
10
206.7045
20
288.1272
0
VERTEX
8
CUT
10
190.5967
20
288.1044
0
VERTEX
8
CUT
10
190.3555
20
288.0924
0
VERTEX
8
CUT
10
190.1167
20
288.0572
0
VERTEX
8
CUT
10
189.8823
20
287.9991
0
VERTEX
8
CUT
10
189.6546
20
287.9187
0
VERTEX
8
CUT
10
189.4358
20
287.8167
0
VERTEX
8
CUT
10
189.2278
20
287.6940
0
VERTEX
8
CUT
10
189.0326
20
287.5519
0
VERTEX
8
CUT
10
188.8521
20
287.3916
0
VERTEX
8
CUT
10
188.6878
20
287.2146
0
VERTEX
8
CUT
10
188.5414
20
287.0226
0
VERTEX
8
CUT
10
188.4142
20
286.8174
0
VERTEX
8
CUT
10
188.3074
20
286.6009
0
VERTEX
8
CUT
10
187.8433
20
285.5331
0
VERTEX
8
CUT
10
187.7663
20
285.3326
0
VERTEX
8
CUT
10
187.2453
20
283.7816
0
VERTEX
8
CUT
10
187.1796
20
283.5496
0
VERTEX
8
CUT
10
186.1272
20
279.0050
0
VERTEX
8
CUT
10
186.0820
20
278.7507
0
VERTEX
8
CUT
10
186.0633
20
278.4931
0
VERTEX
8
CUT
10
186.0317
20
276.9809
0
VERTEX
8
CUT
10
186.0310
20
276.9640
0
VERTEX
8
CUT
10
186.0270
20
276.9276
0
VERTEX
8
CUT
10
186.0196
20
276.8916
0
VERTEX
8
CUT
10
186.0152
20
276.8757
0
VERTEX
8
CUT
10
185.8914
20
276.4620
0
VERTEX
8
CUT
10
185.8347
20
276.2342
0
SEQEND
0
POLYLINE
8
CUT
66
1
70
1
10
0.0
20
0.0
30
0.0
0
VERTEX
8
CUT
10
174.2032
20
59.3148
0
VERTEX
8
CUT
10
174.2638
20
59.0513
0
VERTEX
8
CUT
10
174.7268
20
57.4411
0
VERTEX
8
CUT
10
174.8177
20
57.1804
0
VERTEX
8
CUT
10
174.9367
20
56.9313
0
VERTEX
8
CUT
10
176.4770
20
54.1186
0
VERTEX
8
CUT
10
176.5959
20
53.9232
0
VERTEX
8
CUT
10
177.6592
20
52.3439
0
VERTEX
8
CUT
10
177.7975
20
52.1577
0
VERTEX
8
CUT
10
179.0947
20
50.5710
0
VERTEX
8
CUT
10
179.2711
20
50.3770
0
VERTEX
8
CUT
10
180.9609
20
48.7035
0
VERTEX
8
CUT
10
181.0967
20
48.5786
0
VERTEX
8
CUT
10
181.2412
20
48.4641
0
VERTEX
8
CUT
10
183.0908
20
47.1071
0
VERTEX
8
CUT
10
183.2639
20
46.9909
0
VERTEX
8
CUT
10
183.4460
20
46.8896
0
VERTEX
8
CUT
10
185.2977
20
45.9578
0
VERTEX
8
CUT
10
185.3715
20
45.9206
0
VERTEX
8
CUT
10
185.4005
20
45.9063
0
VERTEX
8
CUT
10
185.4950
20
45.8602
0
VERTEX
8
CUT
10
185.4564
20
45.8670
0
VERTEX
8
CUT
10
184.9429
20
45.9838
0
VERTEX
8
CUT
10
184.8696
20
46.0028
0
VERTEX
8
CUT
10
184.8457
20
46.0098
0
VERTEX
8
CUT
10
184.7032
20
46.0610
0
VERTEX
8
CUT
10
184.6804
20
46.0708
0
VERTEX
8
CUT
10
184.6117
20
46.1028
0
VERTEX
8
CUT
10
182.6773
20
47.0762
0
VERTEX
8
CUT
10
182.6312
20
47.1006
0
VERTEX
8
CUT
10
182.6163
20
47.1089
0
VERTEX
8
CUT
10
182.5274
20
47.1633
0
VERTEX
8
CUT
10
182.5132
20
47.1728
0
VERTEX
8
CUT
10
182.4706
20
47.2028
0
VERTEX
8
CUT
10
182.2348
20
47.3757
0
VERTEX
8
CUT
10
182.0281
20
47.5122
0
VERTEX
8
CUT
10
181.8089
20
47.6275
0
VERTEX
8
CUT
10
181.5794
20
47.7206
0
VERTEX
8
CUT
10
181.3418
20
47.7905
0
VERTEX
8
CUT
10
181.0984
20
47.8365
0
VERTEX
8
CUT
10
180.8517
20
47.8582
0
VERTEX
8
CUT
10
180.6041
20
47.8554
0
VERTEX
8
CUT
10
180.3579
20
47.8282
0
VERTEX
8
CUT
10
180.1156
20
47.7767
0
VERTEX
8
CUT
10
179.8797
20
47.7014
0
VERTEX
8
CUT
10
179.6523
20
47.6032
0
VERTEX
8
CUT
10
179.4357
20
47.4830
0
VERTEX
8
CUT
10
179.2321
20
47.3420
0
VERTEX
8
CUT
10
179.0435
20
47.1815
0
VERTEX
8
CUT
10
178.8717
20
47.0031
0
VERTEX
8
CUT
10
178.7184
20
46.8086
0
VERTEX
8
CUT
10
178.5850
20
46.5998
0
VERTEX
8
CUT
10
178.4730
20
46.3789
0
VERTEX
8
CUT
10
178.3834
20
46.1481
0
VERTEX
8
CUT
10
178.3171
20
45.9094
0
VERTEX
8
CUT
10
178.2747
20
45.6654
0
VERTEX
8
CUT
10
178.2566
20
45.4184
0
VERTEX
8
CUT
10
178.2631
20
45.1708
0
VERTEX
8
CUT
10
178.2941
20
44.9251
0
VERTEX
8
CUT
10
178.3492
20
44.6836
0
VERTEX
8
CUT
10
178.4280
20
44.4488
0
VERTEX
8
CUT
10
179.2057
20
42.4619
0
VERTEX
8
CUT
10
179.3077
20
42.2353
0
VERTEX
8
CUT
10
180.4913
20
39.9197
0
VERTEX
8
CUT
10
180.4936
20
39.9149
0
VERTEX
8
CUT
10
180.5131
20
39.8678
0
VERTEX
8
CUT
10
180.5209
20
39.8428
0
VERTEX
8
CUT
10
180.5266
20
39.8197
0
VERTEX
8
CUT
10
180.5705
20
39.6200
0
VERTEX
8
CUT
10
180.6307
20
39.3962
0
VERTEX
8
CUT
10
180.7114
20
39.1789
0
VERTEX
8
CUT
10
180.8119
20
38.9701
0
VERTEX
8
CUT
10
183.0257
20
34.8665
0
VERTEX
8
CUT
10
183.0504
20
34.8181
0
VERTEX
8
CUT
10
183.0728
20
34.7686
0
VERTEX
8
CUT
10
183.8841
20
32.8704
0
VERTEX
8
CUT
10
183.9746
20
32.6811
0
VERTEX
8
CUT
10
184.0807
20
32.5000
0
VERTEX
8
CUT
10
184.2016
20
32.3284
0
VERTEX
8
CUT
10
189.4297
20
25.5337
0
VERTEX
8
CUT
10
189.6434
20
25.2904
0
VERTEX
8
CUT
10
192.5420
20
22.3920
0
VERTEX
8
CUT
10
192.7527
20
22.2038
0
VERTEX
8
CUT
10
195.2112
20
20.2469
0
VERTEX
8
CUT
10
195.4159
20
20.1002
0
VERTEX
8
CUT
10
195.6343
20
19.9748
0
VERTEX
8
CUT
10
196.0996
20
19.7380
0
VERTEX
8
CUT
10
196.3059
20
19.6445
0
VERTEX
8
CUT
10
196.5198
20
19.5701
0
VERTEX
8
CUT
10
196.7396
20
19.5153
0
VERTEX
8
CUT
10
196.9634
20
19.4807
0
VERTEX
8
CUT
10
197.1883
20
19.4562
0
VERTEX
8
CUT
10
197.2102
20
19.4532
0
VERTEX
8
CUT
10
197.3028
20
19.4320
0
VERTEX
8
CUT
10
197.3238
20
19.4252
0
VERTEX
8
CUT
10
199.0100
20
18.8247
0
VERTEX
8
CUT
10
199.2846
20
18.7443
0
VERTEX
8
CUT
10
199.5665
20
18.6958
0
VERTEX
8
CUT
10
199.8521
20
18.6799
0
VERTEX
8
CUT
10
201.7861
20
18.6825
0
VERTEX
8
CUT
10
201.9940
20
18.6915
0
VERTEX
8
CUT
10
202.2004
20
18.7177
0
VERTEX
8
CUT
10
202.4039
20
18.7609
0
VERTEX
8
CUT
10
203.9619
20
19.1606
0
VERTEX
8
CUT
10
204.2103
20
19.2383
0
VERTEX
8
CUT
10
204.4493
20
19.3414
0
VERTEX
8
CUT
10
204.6763
20
19.4688
0
VERTEX
8
CUT
10
204.8888
20
19.6192
0
VERTEX
8
CUT
10
205.6625
20
20.2293
0
VERTEX
8
CUT
10
205.9029
20
20.4455
0
VERTEX
8
CUT
10
208.0770
20
22.6716
0
VERTEX
8
CUT
10
208.2270
20
22.8397
0
VERTEX
8
CUT
10
208.3613
20
23.0206
0
VERTEX
8
CUT
10
208.4787
20
23.2129
0
VERTEX
8
CUT
10
209.7920
20
25.5989
0
VERTEX
8
CUT
10
209.8359
20
25.6724
0
VERTEX
8
CUT
10
209.8851
20
25.7426
0
VERTEX
8
CUT
10
210.9291
20
27.1256
0
VERTEX
8
CUT
10
211.0955
20
27.3761
0
VERTEX
8
CUT
10
211.2306
20
27.6446
0
VERTEX
8
CUT
10
211.8924
20
29.1842
0
VERTEX
8
CUT
10
211.9753
20
29.4053
0
VERTEX
8
CUT
10
212.1276
20
29.8781
0
VERTEX
8
CUT
10
212.1854
20
30.0888
0
VERTEX
8
CUT
10
212.2246
20
30.3037
0
VERTEX
8
CUT
10
212.2448
20
30.5212
0
VERTEX
8
CUT
10
212.2846
20
31.3271
0
VERTEX
8
CUT
10
212.2861
20
31.3472
0
VERTEX
8
CUT
10
212.2928
20
31.3898
0
VERTEX
8
CUT
10
212.3040
20
31.4314
0
VERTEX
8
CUT
10
212.3108
20
31.4503
0
VERTEX
8
CUT
10
212.6312
20
32.2789
0
VERTEX
8
CUT
10
212.7151
20
32.5363
0
VERTEX
8
CUT
10
212.7706
20
32.8012
0
VERTEX
8
CUT
10
212.7971
20
33.0707
0
VERTEX
8
CUT
10
212.8276
20
33.7618
0
VERTEX
8
CUT
10
212.8287
20
33.7790
0
VERTEX
8
CUT
10
212.8387
20
33.8521
0
VERTEX
8
CUT
10
212.8421
20
33.8689
0
VERTEX
8
CUT
10
213.2847
20
35.7996
0
VERTEX
8
CUT
10
213.3280
20
36.0431
0
VERTEX
8
CUT
10
213.3470
20
36.2897
0
VERTEX
8
CUT
10
213.3833
20
37.6143
0
VERTEX
8
CUT
10
213.3843
20
37.6328
0
VERTEX
8
CUT
10
213.3892
20
37.6721
0
VERTEX
8
CUT
10
213.3980
20
37.7108
0
VERTEX
8
CUT
10
213.4034
20
37.7286
0
VERTEX
8
CUT
10
213.5041
20
38.0309
0
VERTEX
8
CUT
10
213.5722
20
38.2762
0
VERTEX
8
CUT
10
213.6149
20
38.5272
0
VERTEX
8
CUT
10
213.6319
20
38.7812
0
VERTEX
8
CUT
10
213.6662
20
40.9413
0
VERTEX
8
CUT
10
213.6670
20
40.9603
0
VERTEX
8
CUT
10
213.6717
20
41.0007
0
VERTEX
8
CUT
10
213.6805
20
41.0405
0
VERTEX
8
CUT
10
213.6859
20
41.0587
0
VERTEX
8
CUT
10
213.7825
20
41.3525
0
VERTEX
8
CUT
10
213.8490
20
41.5955
0
VERTEX
8
CUT
10
213.8908
20
41.8440
0
VERTEX
8
CUT
10
213.9072
20
42.0954
0
VERTEX
8
CUT
10
213.9443
20
44.5511
0
VERTEX
8
CUT
10
213.9450
20
44.5680
0
VERTEX
8
CUT
10
213.9487
20
44.6041
0
VERTEX
8
CUT
10
213.9558
20
44.6398
0
VERTEX
8
CUT
10
213.9600
20
44.6556
0
VERTEX
8
CUT
10
214.0131
20
44.8382
0
VERTEX
8
CUT
10
214.0724
20
45.0905
0
VERTEX
8
CUT
10
214.1053
20
45.3476
0
VERTEX
8
CUT
10
214.1114
20
45.6067
0
VERTEX
8
CUT
10
214.0907
20
45.8651
0
VERTEX
8
CUT
10
214.0433
20
46.1199
0
VERTEX
8
CUT
10
213.6823
20
47.6231
0
VERTEX
8
CUT
10
213.6695
20
47.6826
0
VERTEX
8
CUT
10
213.6599
20
47.7428
0
VERTEX
8
CUT
10
213.0814
20
52.0409
0
VERTEX
8
CUT
10
213.0294
20
52.3124
0
VERTEX
8
CUT
10
212.2647
20
55.3782
0
VERTEX
8
CUT
10
212.1653
20
55.6889
0
VERTEX
8
CUT
10
211.7559
20
56.7290
0
VERTEX
8
CUT
10
211.7498
20
56.7456
0
VERTEX
8
CUT
10
211.7393
20
56.7818
0
VERTEX
8
CUT
10
211.7322
20
56.8189
0
VERTEX
8
CUT
10
211.7301
20
56.8364
0
VERTEX
8
CUT
10
211.6948
20
57.2055
0
VERTEX
8
CUT
10
211.6520
20
57.4846
0
VERTEX
8
CUT
10
211.5781
20
57.7571
0
VERTEX
8
CUT
10
210.5745
20
60.7701
0
VERTEX
8
CUT
10
210.5101
20
60.9421
0
VERTEX
8
CUT
10
209.2646
20
63.9293
0
VERTEX
8
CUT
10
209.2438
20
63.9828
0
VERTEX
8
CUT
10
209.2256
20
64.0372
0
VERTEX
8
CUT
10
208.3510
20
66.8746
0
VERTEX
8
CUT
10
208.2694
20
67.1002
0
VERTEX
8
CUT
10
207.0295
20
70.0740
0
VERTEX
8
CUT
10
207.0135
20
70.1146
0
VERTEX
8
CUT
10
206.9989
20
70.1559
0
VERTEX
8
CUT
10
206.1755
20
72.6247
0
VERTEX
8
CUT
10
206.1617
20
72.6687
0
VERTEX
8
CUT
10
206.1497
20
72.7132
0
VERTEX
8
CUT
10
205.3341
20
75.9784
0
VERTEX
8
CUT
10
205.3204
20
76.0401
0
VERTEX
8
CUT
10
205.3100
20
76.1025
0
VERTEX
8
CUT
10
204.7162
20
80.3464
0
VERTEX
8
CUT
10
204.7142
20
80.3641
0
VERTEX
8
CUT
10
204.7125
20
80.4021
0
VERTEX
8
CUT
10
204.7179
20
80.4398
0
VERTEX
8
CUT
10
204.7217
20
80.4572
0
VERTEX
8
CUT
10
204.9209
20
81.2772
0
VERTEX
8
CUT
10
204.9700
20
81.5399
0
VERTEX
8
CUT
10
204.9907
20
81.8063
0
VERTEX
8
CUT
10
205.0288
20
83.3692
0
VERTEX
8
CUT
10
205.0299
20
83.3894
0
VERTEX
8
CUT
10
205.0413
20
83.4758
0
VERTEX
8
CUT
10
205.0456
20
83.4956
0
VERTEX
8
CUT
10
205.3272
20
84.6525
0
VERTEX
8
CUT
10
205.3400
20
84.7008
0
VERTEX
8
CUT
10
205.3548
20
84.7485
0
VERTEX
8
CUT
10
206.1496
20
87.1288
0
VERTEX
8
CUT
10
206.1793
20
87.2083
0
VERTEX
8
CUT
10
206.2146
20
87.2854
0
VERTEX
8
CUT
10
207.0211
20
88.8958
0
VERTEX
8
CUT
10
207.0294
20
88.9114
0
VERTEX
8
CUT
10
207.0694
20
88.9756
0
VERTEX
8
CUT
10
207.0798
20
88.9899
0
VERTEX
8
CUT
10
208.8207
20
91.2783
0
VERTEX
8
CUT
10
208.8701
20
91.3390
0
VERTEX
8
CUT
10
208.9234
20
91.3964
0
VERTEX
8
CUT
10
210.2470
20
92.7308
0
VERTEX
8
CUT
10
210.2508
20
92.7345
0
VERTEX
8
CUT
10
210.3126
20
92.7875
0
VERTEX
8
CUT
10
210.3274
20
92.7987
0
VERTEX
8
CUT
10
213.2553
20
94.8938
0
VERTEX
8
CUT
10
213.3055
20
94.9279
0
VERTEX
8
CUT
10
213.3574
20
94.9593
0
VERTEX
8
CUT
10
215.2698
20
96.0534
0
VERTEX
8
CUT
10
215.3220
20
96.0816
0
VERTEX
8
CUT
10
215.3755
20
96.1071
0
VERTEX
8
CUT
10
218.5290
20
97.5173
0
VERTEX
8
CUT
10
218.7001
20
97.6019
0
VERTEX
8
CUT
10
222.1373
20
99.4659
0
VERTEX
8
CUT
10
222.3719
20
99.6103
0
VERTEX
8
CUT
10
223.8460
20
100.6344
0
VERTEX
8
CUT
10
224.0251
20
100.7712
0
VERTEX
8
CUT
10
224.1911
20
100.9235
0
VERTEX
8
CUT
10
226.6922
20
103.4350
0
VERTEX
8
CUT
10
226.8453
20
103.6034
0
VERTEX
8
CUT
10
226.9824
20
103.7850
0
VERTEX
8
CUT
10
227.1024
20
103.9784
0
VERTEX
8
CUT
10
228.5022
20
106.4799
0
VERTEX
8
CUT
10
228.6281
20
106.7389
0
VERTEX
8
CUT
10
228.7234
20
107.0106
0
VERTEX
8
CUT
10
229.1424
20
108.4699
0
VERTEX
8
CUT
10
229.2069
20
108.7571
0
VERTEX
8
CUT
10
229.2372
20
109.0499
0
VERTEX
8
CUT
10
229.2726
20
109.8556
0
VERTEX
8
CUT
10
229.2738
20
109.8724
0
VERTEX
8
CUT
10
229.2786
20
109.9085
0
VERTEX
8
CUT
10
229.2867
20
109.9441
0
VERTEX
8
CUT
10
229.2914
20
109.9598
0
VERTEX
8
CUT
10
229.3915
20
110.2698
0
VERTEX
8
CUT
10
229.4567
20
110.5129
0
VERTEX
8
CUT
10
229.4971
20
110.7612
0
VERTEX
8
CUT
10
229.5124
20
111.0123
0
VERTEX
8
CUT
10
229.5568
20
115.2998
0
VERTEX
8
CUT
10
229.5575
20
115.3198
0
VERTEX
8
CUT
10
229.5625
20
115.3624
0
VERTEX
8
CUT
10
229.5720
20
115.4043
0
VERTEX
8
CUT
10
229.5779
20
115.4234
0
VERTEX
8
CUT
10
229.6808
20
115.7249
0
VERTEX
8
CUT
10
229.7429
20
115.9373
0
VERTEX
8
CUT
10
229.7860
20
116.1544
0
VERTEX
8
CUT
10
229.8097
20
116.3744
0
VERTEX
8
CUT
10
229.8654
20
117.2561
0
VERTEX
8
CUT
10
229.8671
20
117.2751
0
VERTEX
8
CUT
10
229.8737
20
117.3154
0
VERTEX
8
CUT
10
229.8844
20
117.3548
0
VERTEX
8
CUT
10
229.8908
20
117.3727
0
VERTEX
8
CUT
10
231.2539
20
120.9328
0
VERTEX
8
CUT
10
231.2866
20
121.0119
0
VERTEX
8
CUT
10
231.3414
20
121.1340
0
VERTEX
8
CUT
10
231.4184
20
121.3621
0
VERTEX
8
CUT
10
231.4732
20
121.5967
0
VERTEX
8
CUT
10
231.5051
20
121.8354
0
VERTEX
8
CUT
10
231.5139
20
122.0760
0
VERTEX
8
CUT
10
231.4995
20
122.3164
0
VERTEX
8
CUT
10
231.4620
20
122.5543
0
VERTEX
8
CUT
10
231.4018
20
122.7875
0
VERTEX
8
CUT
10
231.3195
20
123.0138
0
VERTEX
8
CUT
10
231.2157
20
123.2311
0
VERTEX
8
CUT
10
231.0916
20
123.4375
0
VERTEX
8
CUT
10
230.9481
20
123.6309
0
VERTEX
8
CUT
10
230.7867
20
123.8096
0
VERTEX
8
CUT
10
230.6089
20
123.9720
0
VERTEX
8
CUT
10
230.4163
20
124.1166
0
VERTEX
8
CUT
10
230.2106
20
124.2419
0
VERTEX
8
CUT
10
229.9939
20
124.3468
0
VERTEX
8
CUT
10
229.7680
20
124.4304
0
VERTEX
8
CUT
10
229.5352
20
124.4919
0
VERTEX
8
CUT
10
229.2975
20
124.5307
0
VERTEX
8
CUT
10
229.0572
20
124.5465
0
VERTEX
8
CUT
10
228.8165
20
124.5390
0
VERTEX
8
CUT
10
228.5776
20
124.5084
0
VERTEX
8
CUT
10
228.3428
20
124.4550
0
VERTEX
8
CUT
10
228.1142
20
124.3793
0
VERTEX
8
CUT
10
227.8940
20
124.2819
0
VERTEX
8
CUT
10
227.6841
20
124.1637
0
VERTEX
8
CUT
10
226.0690
20
123.1491
0
VERTEX
8
CUT
10
226.0201
20
123.1199
0
VERTEX
8
CUT
10
225.9698
20
123.0932
0
VERTEX
8
CUT
10
222.2127
20
121.2049
0
VERTEX
8
CUT
10
222.1660
20
121.1826
0
VERTEX
8
CUT
10
222.1184
20
121.1624
0
VERTEX
8
CUT
10
219.1562
20
119.9820
0
VERTEX
8
CUT
10
218.9615
20
119.8946
0
VERTEX
8
CUT
10
215.9167
20
118.3687
0
VERTEX
8
CUT
10
215.6363
20
118.2046
0
VERTEX
8
CUT
10
213.3970
20
116.6903
0
VERTEX
8
CUT
10
213.2121
20
116.5524
0
VERTEX
8
CUT
10
213.0407
20
116.3981
0
VERTEX
8
CUT
10
211.6761
20
115.0503
0
VERTEX
8
CUT
10
211.5366
20
114.9007
0
VERTEX
8
CUT
10
211.4098
20
114.7402
0
VERTEX
8
CUT
10
211.2965
20
114.5699
0
VERTEX
8
CUT
10
210.3905
20
113.0791
0
VERTEX
8
CUT
10
210.2699
20
112.8558
0
VERTEX
8
CUT
10
210.1725
20
112.6215
0
VERTEX
8
CUT
10
210.0994
20
112.3785
0
VERTEX
8
CUT
10
210.0124
20
112.0251
0
VERTEX
8
CUT
10
209.9652
20
111.7820
0
VERTEX
8
CUT
10
209.9422
20
111.5354
0
VERTEX
8
CUT
10
209.9438
20
111.2878
0
VERTEX
8
CUT
10
209.9698
20
111.0416
0
VERTEX
8
CUT
10
210.0201
20
110.7991
0
VERTEX
8
CUT
10
210.0934
20
110.5168
0
VERTEX
8
CUT
10
210.0984
20
110.4952
0
VERTEX
8
CUT
10
210.1113
20
110.4009
0
VERTEX
8
CUT
10
210.1124
20
110.3788
0
VERTEX
8
CUT
10
210.1534
20
108.2872
0
VERTEX
8
CUT
10
210.1707
20
108.0383
0
VERTEX
8
CUT
10
210.2128
20
107.7923
0
VERTEX
8
CUT
10
210.3965
20
106.9680
0
VERTEX
8
CUT
10
210.3976
20
106.9628
0
VERTEX
8
CUT
10
210.4045
20
106.9134
0
VERTEX
8
CUT
10
210.4059
20
106.8876
0
VERTEX
8
CUT
10
210.4057
20
106.8643
0
VERTEX
8
CUT
10
210.3184
20
104.1335
0
VERTEX
8
CUT
10
210.3174
20
104.1156
0
VERTEX
8
CUT
10
210.3126
20
104.0775
0
VERTEX
8
CUT
10
210.3006
20
104.0410
0
VERTEX
8
CUT
10
210.2938
20
104.0244
0
VERTEX
8
CUT
10
209.2530
20
101.6468
0
VERTEX
8
CUT
10
209.2452
20
101.6302
0
VERTEX
8
CUT
10
209.2261
20
101.5959
0
VERTEX
8
CUT
10
209.2036
20
101.5636
0
VERTEX
8
CUT
10
209.1921
20
101.5494
0
VERTEX
8
CUT
10
207.3489
20
99.3779
0
VERTEX
8
CUT
10
207.3366
20
99.3641
0
VERTEX
8
CUT
10
207.3081
20
99.3365
0
VERTEX
8
CUT
10
207.2770
20
99.3119
0
VERTEX
8
CUT
10
207.2617
20
99.3014
0
VERTEX
8
CUT
10
204.9279
20
97.7959
0
VERTEX
8
CUT
10
204.9233
20
97.7930
0
VERTEX
8
CUT
10
204.8511
20
97.7543
0
VERTEX
8
CUT
10
204.8341
20
97.7465
0
VERTEX
8
CUT
10
203.5154
20
97.1838
0
VERTEX
8
CUT
10
203.4347
20
97.1540
0
VERTEX
8
CUT
10
203.2114
20
97.0591
0
VERTEX
8
CUT
10
202.9984
20
96.9430
0
VERTEX
8
CUT
10
202.7977
20
96.8068
0
VERTEX
8
CUT
10
202.6111
20
96.6518
0
VERTEX
8
CUT
10
202.4404
20
96.4795
0
VERTEX
8
CUT
10
202.2872
20
96.2914
0
VERTEX
8
CUT
10
202.1530
20
96.0894
0
VERTEX
8
CUT
10
202.0389
20
95.8753
0
VERTEX
8
CUT
10
201.9462
20
95.6511
0
VERTEX
8
CUT
10
201.8756
20
95.4190
0
VERTEX
8
CUT
10
201.8279
20
95.1812
0
VERTEX
8
CUT
10
201.8034
20
94.9399
0
VERTEX
8
CUT
10
201.8029
20
94.8133
0
VERTEX
8
CUT
10
201.7995
20
94.7502
0
VERTEX
8
CUT
10
201.7887
20
94.6765
0
VERTEX
8
CUT
10
201.7625
20
94.5724
0
VERTEX
8
CUT
10
201.7254
20
94.4687
0
VERTEX
8
CUT
10
201.6784
20
94.3690
0
VERTEX
8
CUT
10
201.6221
20
94.2742
0
VERTEX
8
CUT
10
201.5539
20
94.1812
0
VERTEX
8
CUT
10
201.5414
20
94.1658
0
VERTEX
8
CUT
10
201.5023
20
94.1199
0
VERTEX
8
CUT
10
200.8954
20
93.4411
0
VERTEX
8
CUT
10
200.8717
20
93.4171
0
VERTEX
8
CUT
10
200.9220
20
93.4973
0
VERTEX
8
CUT
10
200.9207
20
93.4981
0
VERTEX
8
CUT
10
201.0048
20
93.6326
0
VERTEX
8
CUT
10
201.1153
20
93.8562
0
VERTEX
8
CUT
10
201.2030
20
94.0896
0
VERTEX
8
CUT
10
201.2669
20
94.3306
0
VERTEX
8
CUT
10
201.3066
20
94.5768
0
VERTEX
8
CUT
10
201.3215
20
94.8257
0
VERTEX
8
CUT
10
201.3116
20
95.0749
0
VERTEX
8
CUT
10
201.2769
20
95.3219
0
VERTEX
8
CUT
10
201.2178
20
95.5641
0
VERTEX
8
CUT
10
201.1348
20
95.7993
0
VERTEX
8
CUT
10
201.0288
20
96.0250
0
VERTEX
8
CUT
10
200.9008
20
96.2390
0
VERTEX
8
CUT
10
200.7522
20
96.4393
0
VERTEX
8
CUT
10
200.5843
20
96.6237
0
VERTEX
8
CUT
10
200.3989
20
96.7905
0
VERTEX
8
CUT
10
200.1979
20
96.9380
0
VERTEX
8
CUT
10
199.9831
20
97.0647
0
VERTEX
8
CUT
10
199.7568
20
97.1694
0
VERTEX
8
CUT
10
199.5211
20
97.2510
0
VERTEX
8
CUT
10
199.2785
20
97.3087
0
VERTEX
8
CUT
10
199.0314
20
97.3420
0
VERTEX
8
CUT
10
198.7822
20
97.3505
0
VERTEX
8
CUT
10
198.5333
20
97.3341
0
VERTEX
8
CUT
10
198.2874
20
97.2931
0
VERTEX
8
CUT
10
192.2159
20
95.9648
0
VERTEX
8
CUT
10
191.9578
20
95.8937
0
VERTEX
8
CUT
10
188.6697
20
94.7949
0
VERTEX
8
CUT
10
188.3383
20
94.6570
0
VERTEX
8
CUT
10
186.3618
20
93.6625
0
VERTEX
8
CUT
10
186.1903
20
93.5676
0
VERTEX
8
CUT
10
186.0268
20
93.4595
0
VERTEX
8
CUT
10
184.2161
20
92.1585
0
VERTEX
8
CUT
10
184.0431
20
92.0223
0
VERTEX
8
CUT
10
183.8827
20
91.8713
0
VERTEX
8
CUT
10
182.3316
20
90.2765
0
VERTEX
8
CUT
10
182.1886
20
90.1162
0
VERTEX
8
CUT
10
182.0598
20
89.9443
0
VERTEX
8
CUT
10
181.9463
20
89.7619
0
VERTEX
8
CUT
10
180.8228
20
87.7704
0
VERTEX
8
CUT
10
180.7135
20
87.5524
0
VERTEX
8
CUT
10
180.6259
20
87.3248
0
VERTEX
8
CUT
10
180.5609
20
87.0897
0
VERTEX
8
CUT
10
180.3913
20
86.3341
0
VERTEX
8
CUT
10
180.3454
20
86.0584
0
VERTEX
8
CUT
10
180.3306
20
85.7793
0
VERTEX
8
CUT
10
180.3388
20
82.9291
0
VERTEX
8
CUT
10
180.3500
20
82.6991
0
VERTEX
8
CUT
10
180.3824
20
82.4711
0
VERTEX
8
CUT
10
180.4356
20
82.2471
0
VERTEX
8
CUT
10
180.5093
20
82.0289
0
VERTEX
8
CUT
10
181.3830
20
79.7858
0
VERTEX
8
CUT
10
181.4734
20
79.5812
0
VERTEX
8
CUT
10
181.5817
20
79.3856
0
VERTEX
8
CUT
10
181.7071
20
79.2004
0
VERTEX
8
CUT
10
183.1775
20
77.2251
0
VERTEX
8
CUT
10
183.3038
20
77.0689
0
VERTEX
8
CUT
10
183.4424
20
76.9233
0
VERTEX
8
CUT
10
189.7140
20
70.8407
0
VERTEX
8
CUT
10
189.7260
20
70.8286
0
VERTEX
8
CUT
10
189.7722
20
70.7753
0
VERTEX
8
CUT
10
189.7826
20
70.7617
0
VERTEX
8
CUT
10
191.3083
20
68.6657
0
VERTEX
8
CUT
10
191.3114
20
68.6613
0
VERTEX
8
CUT
10
191.3535
20
68.5929
0
VERTEX
8
CUT
10
191.3624
20
68.5762
0
VERTEX
8
CUT
10
192.4883
20
66.3366
0
VERTEX
8
CUT
10
192.4982
20
66.3153
0
VERTEX
8
CUT
10
192.5314
20
66.2234
0
VERTEX
8
CUT
10
192.5374
20
66.2006
0
VERTEX
8
CUT
10
192.8540
20
64.8369
0
VERTEX
8
CUT
10
192.8586
20
64.8139
0
VERTEX
8
CUT
10
192.8693
20
64.7174
0
VERTEX
8
CUT
10
192.8698
20
64.6939
0
VERTEX
8
CUT
10
192.8488
20
62.2107
0
VERTEX
8
CUT
10
192.8481
20
62.1890
0
VERTEX
8
CUT
10
192.8428
20
62.1445
0
VERTEX
8
CUT
10
192.8279
20
62.1022
0
VERTEX
8
CUT
10
192.8190
20
62.0824
0
VERTEX
8
CUT
10
191.9775
20
60.3361
0
VERTEX
8
CUT
10
191.9696
20
60.3208
0
VERTEX
8
CUT
10
191.9514
20
60.2900
0
VERTEX
8
CUT
10
191.9304
20
60.2609
0
VERTEX
8
CUT
10
191.9198
20
60.2479
0
VERTEX
8
CUT
10
191.4237
20
59.6707
0
VERTEX
8
CUT
10
191.4120
20
59.6576
0
VERTEX
8
CUT
10
191.3858
20
59.6321
0
VERTEX
8
CUT
10
191.3574
20
59.6090
0
VERTEX
8
CUT
10
191.3434
20
59.5991
0
VERTEX
8
CUT
10
190.3279
20
58.9125
0
VERTEX
8
CUT
10
190.3128
20
58.9028
0
VERTEX
8
CUT
10
190.2803
20
58.8849
0
VERTEX
8
CUT
10
190.2456
20
58.8733
0
VERTEX
8
CUT
10
190.2280
20
58.8687
0
VERTEX
8
CUT
10
188.8725
20
58.5479
0
VERTEX
8
CUT
10
188.8494
20
58.5431
0
VERTEX
8
CUT
10
188.7522
20
58.5320
0
VERTEX
8
CUT
10
188.7286
20
58.5315
0
VERTEX
8
CUT
10
186.8492
20
58.5424
0
VERTEX
8
CUT
10
186.8314
20
58.5429
0
VERTEX
8
CUT
10
186.7946
20
58.5465
0
VERTEX
8
CUT
10
186.7581
20
58.5533
0
VERTEX
8
CUT
10
186.7413
20
58.5577
0
VERTEX
8
CUT
10
184.5876
20
59.1668
0
VERTEX
8
CUT
10
184.5706
20
59.1720
0
VERTEX
8
CUT
10
184.5362
20
59.1852
0
VERTEX
8
CUT
10
184.5029
20
59.2015
0
VERTEX
8
CUT
10
184.4879
20
59.2101
0
VERTEX
8
CUT
10
181.5848
20
60.9690
0
VERTEX
8
CUT
10
181.5802
20
60.9720
0
VERTEX
8
CUT
10
181.5137
20
61.0198
0
VERTEX
8
CUT
10
181.4988
20
61.0320
0
VERTEX
8
CUT
10
177.7150
20
64.2927
0
VERTEX
8
CUT
10
177.5233
20
64.4423
0
VERTEX
8
CUT
10
177.3180
20
64.5726
0
VERTEX
8
CUT
10
177.1010
20
64.6823
0
VERTEX
8
CUT
10
176.8744
20
64.7704
0
VERTEX
8
CUT
10
176.6402
20
64.8360
0
VERTEX
8
CUT
10
176.4008
20
64.8786
0
VERTEX
8
CUT
10
176.1584
20
64.8978
0
VERTEX
8
CUT
10
175.9153
20
64.8933
0
VERTEX
8
CUT
10
175.6738
20
64.8652
0
VERTEX
8
CUT
10
175.4361
20
64.8138
0
VERTEX
8
CUT
10
175.2046
20
64.7395
0
VERTEX
8
CUT
10
174.9814
20
64.6431
0
VERTEX
8
CUT
10
174.7686
20
64.5255
0
VERTEX
8
CUT
10
174.5682
20
64.3877
0
VERTEX
8
CUT
10
174.3821
20
64.2312
0
VERTEX
8
CUT
10
174.2122
20
64.0573
0
VERTEX
8
CUT
10
174.0599
20
63.8677
0
VERTEX
8
CUT
10
173.9268
20
63.6642
0
VERTEX
8
CUT
10
173.8141
20
63.4487
0
VERTEX
8
CUT
10
173.7228
20
63.2233
0
VERTEX
8
CUT
10
173.6539
20
62.9902
0
VERTEX
8
CUT
10
173.6080
20
62.7514
0
VERTEX
8
CUT
10
173.5854
20
62.5093
0
VERTEX
8
CUT
10
173.5865
20
62.2661
0
VERTEX
8
CUT
10
173.5866
20
62.2651
0
VERTEX
8
CUT
10
173.6068
20
62.0539
0
VERTEX
8
CUT
10
173.6450
20
61.8450
0
VERTEX
8
CUT
10
173.7007
20
61.6402
0
VERTEX
8
CUT
10
174.1028
20
60.3758
0
VERTEX
8
CUT
10
174.1095
20
60.3525
0
VERTEX
8
CUT
10
174.1280
20
60.2539
0
VERTEX
8
CUT
10
174.1303
20
60.2297
0
VERTEX
8
CUT
10
174.1715
20
59.5833
0
SEQEND
0
POLYLINE
8
CUT
66
1
70
1
10
0.0
20
0.0
30
0.0
0
VERTEX
8
CUT
10
92.2939
20
255.3455
0
VERTEX
8
CUT
10
92.7819
20
251.4768
0
VERTEX
8
CUT
10
92.8319
20
251.2033
0
VERTEX
8
CUT
10
92.9121
20
250.9371
0
VERTEX
8
CUT
10
93.8710
20
248.2933
0
VERTEX
8
CUT
10
93.9722
20
248.0540
0
VERTEX
8
CUT
10
94.0977
20
247.8265
0
VERTEX
8
CUT
10
96.0840
20
244.6294
0
VERTEX
8
CUT
10
96.2827
20
244.3534
0
VERTEX
8
CUT
10
97.5827
20
242.7850
0
VERTEX
8
CUT
10
97.7460
20
242.6063
0
VERTEX
8
CUT
10
100.6743
20
239.6989
0
VERTEX
8
CUT
10
100.8791
20
239.5167
0
VERTEX
8
CUT
10
104.6680
20
236.5020
0
VERTEX
8
CUT
10
104.8746
20
236.3541
0
VERTEX
8
CUT
10
111.7255
20
231.9591
0
VERTEX
8
CUT
10
111.8858
20
231.8644
0
VERTEX
8
CUT
10
124.8405
20
224.8557
0
VERTEX
8
CUT
10
124.8638
20
224.8428
0
VERTEX
8
CUT
10
124.8867
20
224.8294
0
VERTEX
8
CUT
10
130.4358
20
221.5000
0
VERTEX
8
CUT
10
130.4725
20
221.4771
0
VERTEX
8
CUT
10
130.5083
20
221.4529
0
VERTEX
8
CUT
10
136.0888
20
217.5300
0
VERTEX
8
CUT
10
136.1314
20
217.4987
0
VERTEX
8
CUT
10
136.1725
20
217.4655
0
VERTEX
8
CUT
10
139.8839
20
214.3324
0
VERTEX
8
CUT
10
139.9456
20
214.2765
0
VERTEX
8
CUT
10
140.0033
20
214.2164
0
VERTEX
8
CUT
10
142.7548
20
211.1434
0
VERTEX
8
CUT
10
142.7928
20
211.0987
0
VERTEX
8
CUT
10
142.8286
20
211.0523
0
VERTEX
8
CUT
10
145.0903
20
207.9645
0
VERTEX
8
CUT
10
145.1009
20
207.9493
0
VERTEX
8
CUT
10
145.1413
20
207.8811
0
VERTEX
8
CUT
10
145.1495
20
207.8645
0
VERTEX
8
CUT
10
147.0594
20
203.7775
0
VERTEX
8
CUT
10
147.0677
20
203.7585
0
VERTEX
8
CUT
10
147.0963
20
203.6743
0
VERTEX
8
CUT
10
147.1013
20
203.6542
0
VERTEX
8
CUT
10
147.6715
20
201.0843
0
VERTEX
8
CUT
10
147.6757
20
201.0624
0
VERTEX
8
CUT
10
147.6853
20
200.9674
0
VERTEX
8
CUT
10
147.6856
20
200.9452
0
VERTEX
8
CUT
10
147.6196
20
197.0487
0
VERTEX
8
CUT
10
147.6189
20
197.0310
0
VERTEX
8
CUT
10
147.6147
20
196.9933
0
VERTEX
8
CUT
10
147.6070
20
196.9561
0
VERTEX
8
CUT
10
147.6022
20
196.9390
0
VERTEX
8
CUT
10
147.1016
20
195.3106
0
VERTEX
8
CUT
10
147.0999
20
195.3057
0
VERTEX
8
CUT
10
147.0708
20
195.2319
0
VERTEX
8
CUT
10
147.0631
20
195.2155
0
VERTEX
8
CUT
10
146.5370
20
194.1597
0
VERTEX
8
CUT
10
146.5348
20
194.1555
0
VERTEX
8
CUT
10
146.4977
20
194.0928
0
VERTEX
8
CUT
10
146.4885
20
194.0790
0
VERTEX
8
CUT
10
145.7922
20
193.0889
0
VERTEX
8
CUT
10
145.7822
20
193.0754
0
VERTEX
8
CUT
10
145.7355
20
193.0201
0
VERTEX
8
CUT
10
145.7238
20
193.0079
0
VERTEX
8
CUT
10
144.5911
20
191.8876
0
VERTEX
8
CUT
10
144.5326
20
191.8335
0
VERTEX
8
CUT
10
144.4707
20
191.7834
0
VERTEX
8
CUT
10
143.2932
20
190.8944
0
VERTEX
8
CUT
10
143.2790
20
190.8841
0
VERTEX
8
CUT
10
143.2148
20
190.8445
0
VERTEX
8
CUT
10
143.1993
20
190.8363
0
VERTEX
8
CUT
10
141.5593
20
190.0211
0
VERTEX
8
CUT
10
141.5544
20
190.0188
0
VERTEX
8
CUT
10
141.5062
20
189.9996
0
VERTEX
8
CUT
10
141.4806
20
189.9920
0
VERTEX
8
CUT
10
141.4570
20
189.9866
0
VERTEX
8
CUT
10
137.4772
20
189.1780
0
VERTEX
8
CUT
10
137.4608
20
189.1751
0
VERTEX
8
CUT
10
137.3898
20
189.1670
0
VERTEX
8
CUT
10
137.3731
20
189.1663
0
VERTEX
8
CUT
10
135.2146
20
189.1127
0
VERTEX
8
CUT
10
135.2095
20
189.1127
0
VERTEX
8
CUT
10
135.1321
20
189.1167
0
VERTEX
8
CUT
10
135.1146
20
189.1186
0
VERTEX
8
CUT
10
134.4750
20
189.2058
0
VERTEX
8
CUT
10
134.2323
20
189.2269
0
VERTEX
8
CUT
10
133.9887
20
189.2243
0
VERTEX
8
CUT
10
133.7466
20
189.1979
0
VERTEX
8
CUT
10
133.5081
20
189.1482
0
VERTEX
8
CUT
10
133.2757
20
189.0755
0
VERTEX
8
CUT
10
133.0514
20
188.9805
0
VERTEX
8
CUT
10
132.8374
20
188.8641
0
VERTEX
8
CUT
10
132.6357
20
188.7274
0
VERTEX
8
CUT
10
132.4483
20
188.5718
0
VERTEX
8
CUT
10
132.2770
20
188.3987
0
VERTEX
8
CUT
10
132.1233
20
188.2097
0
VERTEX
8
CUT
10
131.9887
20
188.0067
0
VERTEX
8
CUT
10
131.8746
20
187.7915
0
VERTEX
8
CUT
10
131.7819
20
187.5662
0
VERTEX
8
CUT
10
131.7115
20
187.3330
0
VERTEX
8
CUT
10
131.6643
20
187.0941
0
VERTEX
8
CUT
10
131.6404
20
186.8517
0
VERTEX
8
CUT
10
131.6403
20
186.6081
0
VERTEX
8
CUT
10
131.6639
20
186.3656
0
VERTEX
8
CUT
10
131.7110
20
186.1266
0
VERTEX
8
CUT
10
131.7811
20
185.8934
0
VERTEX
8
CUT
10
131.8736
20
185.6680
0
VERTEX
8
CUT
10
131.9875
20
185.4527
0
VERTEX
8
CUT
10
132.1219
20
185.2496
0
VERTEX
8
CUT
10
132.2754
20
185.0604
0
VERTEX
8
CUT
10
132.4466
20
184.8872
0
VERTEX
8
CUT
10
132.6339
20
184.7314
0
VERTEX
8
CUT
10
132.8354
20
184.5945
0
VERTEX
8
CUT
10
133.0492
20
184.4779
0
VERTEX
8
CUT
10
135.9701
20
183.0658
0
VERTEX
8
CUT
10
136.0380
20
183.0302
0
VERTEX
8
CUT
10
136.1035
20
182.9904
0
VERTEX
8
CUT
10
137.0499
20
182.3723
0
VERTEX
8
CUT
10
137.2945
20
182.2316
0
VERTEX
8
CUT
10
141.5450
20
180.0957
0
VERTEX
8
CUT
10
141.6886
20
180.0291
0
VERTEX
8
CUT
10
145.4042
20
178.4479
0
VERTEX
8
CUT
10
145.6392
20
178.3616
0
VERTEX
8
CUT
10
149.7203
20
177.0895
0
VERTEX
8
CUT
10
149.9194
20
177.0363
0
VERTEX
8
CUT
10
150.1223
20
176.9997
0
VERTEX
8
CUT
10
150.3274
20
176.9799
0
VERTEX
8
CUT
10
150.8444
20
176.9516
0
VERTEX
8
CUT
10
150.8633
20
176.9501
0
VERTEX
8
CUT
10
150.9441
20
176.9374
0
VERTEX
8
CUT
10
150.9627
20
176.9331
0
VERTEX
8
CUT
10
152.5480
20
176.5182
0
VERTEX
8
CUT
10
152.8381
20
176.4604
0
VERTEX
8
CUT
10
153.1331
20
176.4372
0
VERTEX
8
CUT
10
155.1744
20
176.3982
0
VERTEX
8
CUT
10
155.1928
20
176.3974
0
VERTEX
8
CUT
10
155.2712
20
176.3882
0
VERTEX
8
CUT
10
155.2892
20
176.3848
0
VERTEX
8
CUT
10
155.8045
20
176.2732
0
VERTEX
8
CUT
10
156.0614
20
176.2315
0
VERTEX
8
CUT
10
156.3213
20
176.2166
0
VERTEX
8
CUT
10
156.5813
20
176.2289
0
VERTEX
8
CUT
10
156.8386
20
176.2682
0
VERTEX
8
CUT
10
157.0904
20
176.3339
0
VERTEX
8
CUT
10
157.2143
20
176.3733
0
VERTEX
8
CUT
10
157.2315
20
176.3783
0
VERTEX
8
CUT
10
157.2691
20
176.3864
0
VERTEX
8
CUT
10
157.3073
20
176.3910
0
VERTEX
8
CUT
10
157.3253
20
176.3918
0
VERTEX
8
CUT
10
159.4441
20
176.4397
0
VERTEX
8
CUT
10
159.6558
20
176.4535
0
VERTEX
8
CUT
10
159.8657
20
176.4852
0
VERTEX
8
CUT
10
160.0720
20
176.5346
0
VERTEX
8
CUT
10
163.4644
20
177.5001
0
VERTEX
8
CUT
10
163.7451
20
177.5985
0
VERTEX
8
CUT
10
164.0122
20
177.7294
0
VERTEX
8
CUT
10
165.9026
20
178.8002
0
VERTEX
8
CUT
10
166.0932
20
178.9198
0
VERTEX
8
CUT
10
166.2722
20
179.0561
0
VERTEX
8
CUT
10
166.4383
20
179.2079
0
VERTEX
8
CUT
10
168.4724
20
181.2424
0
VERTEX
8
CUT
10
168.6326
20
181.4187
0
VERTEX
8
CUT
10
168.7753
20
181.6094
0
VERTEX
8
CUT
10
168.8991
20
181.8128
0
VERTEX
8
CUT
10
170.5159
20
184.7768
0
VERTEX
8
CUT
10
170.6088
20
184.9655
0
VERTEX
8
CUT
10
170.6855
20
185.1614
0
VERTEX
8
CUT
10
170.7454
20
185.3630
0
VERTEX
8
CUT
10
171.1575
20
186.9980
0
VERTEX
8
CUT
10
171.2005
20
187.2050
0
VERTEX
8
CUT
10
171.2258
20
187.4149
0
VERTEX
8
CUT
10
171.2333
20
187.6262
0
VERTEX
8
CUT
10
171.2126
20
190.6510
0
VERTEX
8
CUT
10
171.2017
20
190.8675
0
VERTEX
8
CUT
10
171.1720
20
191.0824
0
VERTEX
8
CUT
10
171.1239
20
191.2938
0
VERTEX
8
CUT
10
170.1796
20
194.7439
0
VERTEX
8
CUT
10
170.1230
20
194.9236
0
VERTEX
8
CUT
10
170.0531
20
195.0985
0
VERTEX
8
CUT
10
169.0955
20
197.2551
0
VERTEX
8
CUT
10
168.9232
20
197.5774
0
VERTEX
8
CUT
10
167.6420
20
199.6020
0
VERTEX
8
CUT
10
167.4780
20
199.8314
0
VERTEX
8
CUT
10
165.2846
20
202.5602
0
VERTEX
8
CUT
10
165.1430
20
202.7216
0
VERTEX
8
CUT
10
164.9881
20
202.8703
0
VERTEX
8
CUT
10
163.0603
20
204.5676
0
VERTEX
8
CUT
10
162.9977
20
204.6268
0
VERTEX
8
CUT
10
162.9395
20
204.6905
0
VERTEX
8
CUT
10
161.5954
20
206.2716
0
VERTEX
8
CUT
10
161.4531
20
206.4255
0
VERTEX
8
CUT
10
161.2983
20
206.5669
0
VERTEX
8
CUT
10
156.0243
20
210.9955
0
VERTEX
8
CUT
10
155.9265
20
211.0735
0
VERTEX
8
CUT
10
146.0782
20
218.5363
0
VERTEX
8
CUT
10
146.0454
20
218.5621
0
VERTEX
8
CUT
10
146.0136
20
218.5889
0
VERTEX
8
CUT
10
142.9790
20
221.2406
0
VERTEX
8
CUT
10
142.7855
20
221.3935
0
VERTEX
8
CUT
10
142.5779
20
221.5266
0
VERTEX
8
CUT
10
141.8060
20
221.9693
0
VERTEX
8
CUT
10
141.7896
20
221.9793
0
VERTEX
8
CUT
10
141.7561
20
222.0034
0
VERTEX
8
CUT
10
141.7252
20
222.0307
0
VERTEX
8
CUT
10
141.7118
20
222.0446
0
VERTEX
8
CUT
10
134.9522
20
229.3852
0
VERTEX
8
CUT
10
134.9489
20
229.3889
0
VERTEX
8
CUT
10
134.9027
20
229.4471
0
VERTEX
8
CUT
10
134.8930
20
229.4610
0
VERTEX
8
CUT
10
131.5020
20
234.5201
0
VERTEX
8
CUT
10
131.4994
20
234.5241
0
VERTEX
8
CUT
10
131.4638
20
234.5862
0
VERTEX
8
CUT
10
131.4565
20
234.6009
0
VERTEX
8
CUT
10
128.9983
20
239.7909
0
VERTEX
8
CUT
10
128.9907
20
239.8080
0
VERTEX
8
CUT
10
128.9637
20
239.8834
0
VERTEX
8
CUT
10
128.9587
20
239.9014
0
VERTEX
8
CUT
10
127.8414
20
244.3659
0
VERTEX
8
CUT
10
127.8275
20
244.4285
0
VERTEX
8
CUT
10
127.8170
20
244.4918
0
VERTEX
8
CUT
10
127.5963
20
246.0817
0
VERTEX
8
CUT
10
127.5883
20
246.1561
0
VERTEX
8
CUT
10
127.5850
20
246.2308
0
VERTEX
8
CUT
10
127.5337
20
250.2535
0
VERTEX
8
CUT
10
127.5339
20
250.2716
0
VERTEX
8
CUT
10
127.5403
20
250.3488
0
VERTEX
8
CUT
10
127.5431
20
250.3667
0
VERTEX
8
CUT
10
128.1083
20
253.5127
0
VERTEX
8
CUT
10
128.1121
20
253.5311
0
VERTEX
8
CUT
10
128.1341
20
253.6086
0
VERTEX
8
CUT
10
128.1406
20
253.6262
0
VERTEX
8
CUT
10
128.4810
20
254.4887
0
VERTEX
8
CUT
10
128.5527
20
254.6970
0
VERTEX
8
CUT
10
128.6059
20
254.9107
0
VERTEX
8
CUT
10
128.6400
20
255.1283
0
VERTEX
8
CUT
10
128.6826
20
255.5090
0
VERTEX
8
CUT
10
128.6848
20
255.5256
0
VERTEX
8
CUT
10
128.6920
20
255.5611
0
VERTEX
8
CUT
10
128.7025
20
255.5960
0
VERTEX
8
CUT
10
128.7082
20
255.6113
0
VERTEX
8
CUT
10
129.7638
20
258.2623
0
VERTEX
8
CUT
10
129.7717
20
258.2807
0
VERTEX
8
CUT
10
129.8118
20
258.3567
0
VERTEX
8
CUT
10
129.8225
20
258.3736
0
VERTEX
8
CUT
10
132.0656
20
261.7211
0
VERTEX
8
CUT
10
132.1134
20
261.7873
0
VERTEX
8
CUT
10
132.1655
20
261.8502
0
VERTEX
8
CUT
10
135.4134
20
265.5006
0
VERTEX
8
CUT
10
135.5610
20
265.6831
0
VERTEX
8
CUT
10
137.6671
20
268.5524
0
VERTEX
8
CUT
10
137.7803
20
268.7206
0
VERTEX
8
CUT
10
137.8795
20
268.8973
0
VERTEX
8
CUT
10
138.1468
20
269.4223
0
VERTEX
8
CUT
10
138.2376
20
269.6217
0
VERTEX
8
CUT
10
138.3105
20
269.8283
0
VERTEX
8
CUT
10
138.3651
20
270.0405
0
VERTEX
8
CUT
10
138.4009
20
270.2566
0
VERTEX
8
CUT
10
138.4373
20
270.5580
0
VERTEX
8
CUT
10
138.4399
20
270.5755
0
VERTEX
8
CUT
10
138.4478
20
270.6123
0
VERTEX
8
CUT
10
138.4592
20
270.6483
0
VERTEX
8
CUT
10
138.4657
20
270.6647
0
VERTEX
8
CUT
10
139.0702
20
272.0962
0
VERTEX
8
CUT
10
139.1479
20
272.3061
0
VERTEX
8
CUT
10
139.2066
20
272.5221
0
VERTEX
8
CUT
10
139.2457
20
272.7424
0
VERTEX
8
CUT
10
139.4666
20
274.4210
0
VERTEX
8
CUT
10
139.4871
20
274.6829
0
VERTEX
8
CUT
10
139.4801
20
274.9455
0
VERTEX
8
CUT
10
139.4455
20
275.2060
0
VERTEX
8
CUT
10
139.2536
20
276.2340
0
VERTEX
8
CUT
10
139.2528
20
276.2390
0
VERTEX
8
CUT
10
139.2444
20
276.3151
0
VERTEX
8
CUT
10
139.2436
20
276.3325
0
VERTEX
8
CUT
10
139.2114
20
277.5580
0
VERTEX
8
CUT
10
139.1956
20
277.7810
0
VERTEX
8
CUT
10
139.1599
20
278.0016
0
VERTEX
8
CUT
10
139.1047
20
278.2181
0
VERTEX
8
CUT
10
138.1374
20
281.4080
0
VERTEX
8
CUT
10
138.0676
20
281.6074
0
VERTEX
8
CUT
10
137.9812
20
281.8002
0
VERTEX
8
CUT
10
137.3197
20
283.1236
0
VERTEX
8
CUT
10
137.1536
20
283.4077
0
VERTEX
8
CUT
10
136.1864
20
284.8360
0
VERTEX
8
CUT
10
136.0343
20
285.0378
0
VERTEX
8
CUT
10
134.1931
20
287.2402
0
VERTEX
8
CUT
10
134.0287
20
287.4185
0
VERTEX
8
CUT
10
133.8477
20
287.5801
0
VERTEX
8
CUT
10
133.6520
20
287.7233
0
VERTEX
8
CUT
10
133.4433
20
287.8469
0
VERTEX
8
CUT
10
133.2236
20
287.9498
0
VERTEX
8
CUT
10
132.9949
20
288.0308
0
VERTEX
8
CUT
10
132.7595
20
288.0893
0
VERTEX
8
CUT
10
132.5195
20
288.1247
0
VERTEX
8
CUT
10
132.2772
20
288.1366
0
VERTEX
8
CUT
10
111.4750
20
288.1545
0
VERTEX
8
CUT
10
111.2253
20
288.1422
0
VERTEX
8
CUT
10
110.9781
20
288.1051
0
VERTEX
8
CUT
10
110.7359
20
288.0434
0
VERTEX
8
CUT
10
110.5010
20
287.9579
0
VERTEX
8
CUT
10
110.2758
20
287.8493
0
VERTEX
8
CUT
10
110.0626
20
287.7188
0
VERTEX
8
CUT
10
109.8635
20
287.5676
0
VERTEX
8
CUT
10
109.6805
20
287.3974
0
VERTEX
8
CUT
10
109.5154
20
287.2097
0
VERTEX
8
CUT
10
109.3699
20
287.0064
0
VERTEX
8
CUT
10
109.2454
20
286.7896
0
VERTEX
8
CUT
10
109.1432
20
286.5615
0
VERTEX
8
CUT
10
109.0643
20
286.3243
0
VERTEX
8
CUT
10
109.0094
20
286.0805
0
VERTEX
8
CUT
10
108.9792
20
285.8323
0
VERTEX
8
CUT
10
108.9739
20
285.5824
0
VERTEX
8
CUT
10
108.9858
20
285.1708
0
VERTEX
8
CUT
10
109.0047
20
284.9279
0
VERTEX
8
CUT
10
109.0471
20
284.6880
0
VERTEX
8
CUT
10
109.7654
20
281.5321
0
VERTEX
8
CUT
10
109.8327
20
281.2924
0
VERTEX
8
CUT
10
109.9234
20
281.0606
0
VERTEX
8
CUT
10
111.1609
20
278.3117
0
VERTEX
8
CUT
10
111.3183
20
278.0166
0
VERTEX
8
CUT
10
113.4068
20
274.6624
0
VERTEX
8
CUT
10
113.5715
20
274.4289
0
VERTEX
8
CUT
10
117.1852
20
269.8794
0
VERTEX
8
CUT
10
117.2247
20
269.8268
0
VERTEX
8
CUT
10
117.2612
20
269.7720
0
VERTEX
8
CUT
10
119.9953
20
265.4218
0
VERTEX
8
CUT
10
120.0059
20
265.4039
0
VERTEX
8
CUT
10
120.0449
20
265.3234
0
VERTEX
8
CUT
10
120.0524
20
265.3040
0
VERTEX
8
CUT
10
121.1836
20
262.1162
0
VERTEX
8
CUT
10
121.1897
20
262.0976
0
VERTEX
8
CUT
10
121.1995
20
262.0568
0
VERTEX
8
CUT
10
121.2051
20
262.0153
0
VERTEX
8
CUT
10
121.2062
20
261.9957
0
VERTEX
8
CUT
10
121.2377
20
260.9513
0
VERTEX
8
CUT
10
121.2560
20
260.7147
0
VERTEX
8
CUT
10
121.2968
20
260.4810
0
VERTEX
8
CUT
10
121.5059
20
259.5457
0
VERTEX
8
CUT
10
121.5094
20
259.5277
0
VERTEX
8
CUT
10
121.5142
20
259.4889
0
VERTEX
8
CUT
10
121.5115
20
259.4498
0
VERTEX
8
CUT
10
121.5088
20
259.4317
0
VERTEX
8
CUT
10
121.1780
20
257.4862
0
VERTEX
8
CUT
10
121.1739
20
257.4658
0
VERTEX
8
CUT
10
121.1616
20
257.4229
0
VERTEX
8
CUT
10
121.1447
20
257.3815
0
VERTEX
8
CUT
10
121.1352
20
257.3630
0
VERTEX
8
CUT
10
120.4445
20
256.0988
0
VERTEX
8
CUT
10
120.4349
20
256.0822
0
VERTEX
8
CUT
10
120.4117
20
256.0485
0
VERTEX
8
CUT
10
120.3822
20
256.0201
0
VERTEX
8
CUT
10
120.3674
20
256.0079
0
VERTEX
8
CUT
10
119.1594
20
255.0631
0
VERTEX
8
CUT
10
119.1446
20
255.0521
0
VERTEX
8
CUT
10
119.1114
20
255.0311
0
VERTEX
8
CUT
10
119.0727
20
255.0244
0
VERTEX
8
CUT
10
119.0544
20
255.0225
0
VERTEX
8
CUT
10
117.4747
20
254.9051
0
VERTEX
8
CUT
10
117.4566
20
254.9042
0
VERTEX
8
CUT
10
117.4179
20
254.9050
0
VERTEX
8
CUT
10
117.3801
20
254.9132
0
VERTEX
8
CUT
10
117.3628
20
254.9183
0
VERTEX
8
CUT
10
116.3763
20
255.2337
0
VERTEX
8
CUT
10
116.3600
20
255.2393
0
VERTEX
8
CUT
10
116.2920
20
255.2681
0
VERTEX
8
CUT
10
116.2767
20
255.2759
0
VERTEX
8
CUT
10
115.2108
20
255.8457
0
VERTEX
8
CUT
10
115.1954
20
255.8544
0
VERTEX
8
CUT
10
115.1638
20
255.8753
0
VERTEX
8
CUT
10
115.1343
20
255.8991
0
VERTEX
8
CUT
10
115.1213
20
255.9111
0
VERTEX
8
CUT
10
113.7236
20
257.2714
0
VERTEX
8
CUT
10
113.7197
20
257.2753
0
VERTEX
8
CUT
10
113.6649
20
257.3381
0
VERTEX
8
CUT
10
113.6533
20
257.3533
0
VERTEX
8
CUT
10
109.7082
20
262.8053
0
VERTEX
8
CUT
10
109.5835
20
262.9638
0
VERTEX
8
CUT
10
109.4464
20
263.1117
0
VERTEX
8
CUT
10
106.6844
20
265.8605
0
VERTEX
8
CUT
10
106.5120
20
266.0169
0
VERTEX
8
CUT
10
106.3257
20
266.1565
0
VERTEX
8
CUT
10
105.0207
20
267.0430
0
VERTEX
8
CUT
10
104.7332
20
267.2114
0
VERTEX
8
CUT
10
103.4375
20
267.8587
0
VERTEX
8
CUT
10
103.2166
20
267.9560
0
VERTEX
8
CUT
10
102.9873
20
268.0316
0
VERTEX
8
CUT
10
101.9441
20
268.3204
0
VERTEX
8
CUT
10
101.9259
20
268.3259
0
VERTEX
8
CUT
10
101.8498
20
268.3555
0
VERTEX
8
CUT
10
101.8326
20
268.3636
0
VERTEX
8
CUT
10
101.3352
20
268.6168
0
VERTEX
8
CUT
10
101.0762
20
268.7307
0
VERTEX
8
CUT
10
100.8059
20
268.8146
0
VERTEX
8
CUT
10
100.5279
20
268.8674
0
VERTEX
8
CUT
10
98.3602
20
269.1532
0
VERTEX
8
CUT
10
98.2737
20
269.1670
0
VERTEX
8
CUT
10
98.1418
20
269.1923
0
VERTEX
8
CUT
10
97.8979
20
269.2147
0
VERTEX
8
CUT
10
97.6530
20
269.2132
0
VERTEX
8
CUT
10
97.4094
20
269.1877
0
VERTEX
8
CUT
10
97.1695
20
269.1384
0
VERTEX
8
CUT
10
96.9355
20
269.0660
0
VERTEX
8
CUT
10
96.7098
20
268.9710
0
VERTEX
8
CUT
10
96.4944
20
268.8543
0
VERTEX
8
CUT
10
96.2915
20
268.7172
0
VERTEX
8
CUT
10
96.1030
20
268.5608
0
VERTEX
8
CUT
10
95.9307
20
268.3868
0
VERTEX
8
CUT
10
95.7762
20
268.1967
0
VERTEX
8
CUT
10
95.6411
20
267.9924
0
VERTEX
8
CUT
10
95.5266
20
267.7759
0
VERTEX
8
CUT
10
95.4339
20
267.5492
0
VERTEX
8
CUT
10
95.3638
20
267.3145
0
VERTEX
8
CUT
10
95.3169
20
267.0741
0
VERTEX
8
CUT
10
95.2939
20
266.8303
0
VERTEX
8
CUT
10
95.2948
20
266.5854
0
VERTEX
8
CUT
10
95.2971
20
266.5420
0
VERTEX
8
CUT
10
95.2936
20
266.4465
0
VERTEX
8
CUT
10
95.2909
20
266.4244
0
VERTEX
8
CUT
10
94.9967
20
264.5218
0
VERTEX
8
CUT
10
94.9869
20
264.4668
0
VERTEX
8
CUT
10
94.9745
20
264.4123
0
VERTEX
8
CUT
10
94.7013
20
263.3282
0
VERTEX
8
CUT
10
94.6965
20
263.3109
0
VERTEX
8
CUT
10
94.6707
20
263.2385
0
VERTEX
8
CUT
10
94.6636
20
263.2221
0
VERTEX
8
CUT
10
93.2792
20
260.2493
0
VERTEX
8
CUT
10
93.1810
20
260.0056
0
VERTEX
8
CUT
10
93.1088
20
259.7529
0
VERTEX
8
CUT
10
93.0636
20
259.4940
0
VERTEX
8
CUT
10
93.0216
20
259.1462
0
VERTEX
8
CUT
10
93.0191
20
259.1292
0
VERTEX
8
CUT
10
93.0115
20
259.0934
0
VERTEX
8
CUT
10
92.9976
20
259.0600
0
VERTEX
8
CUT
10
92.9900
20
259.0445
0
VERTEX
8
CUT
10
92.8159
20
258.7118
0
VERTEX
8
CUT
10
92.7025
20
258.4628
0
VERTEX
8
CUT
10
92.6170
20
258.2029
0
VERTEX
8
CUT
10
92.5604
20
257.9352
0
VERTEX
8
CUT
10
92.5334
20
257.6629
0
VERTEX
8
CUT
10
92.4970
20
256.8362
0
VERTEX
8
CUT
10
92.4953
20
256.8133
0
VERTEX
8
CUT
10
92.4790
20
256.7162
0
VERTEX
8
CUT
10
92.4732
20
256.6940
0
VERTEX
8
CUT
10
92.3763
20
256.3651
0
VERTEX
8
CUT
10
92.3163
20
256.1148
0
VERTEX
8
CUT
10
92.2824
20
255.8596
0
VERTEX
8
CUT
10
92.2749
20
255.6022
0
SEQEND
0
POLYLINE
8
CUT
66
1
70
1
10
0.0
20
0.0
30
0.0
0
VERTEX
8
CUT
10
122.5436
20
118.0435
0
VERTEX
8
CUT
10
122.4356
20
117.8255
0
VERTEX
8
CUT
10
122.3494
20
117.5981
0
VERTEX
8
CUT
10
122.2857
20
117.3634
0
VERTEX
8
CUT
10
122.2451
20
117.1236
0
VERTEX
8
CUT
10
122.2280
20
116.8810
0
VERTEX
8
CUT
10
122.2345
20
116.6379
0
VERTEX
8
CUT
10
122.2646
20
116.3965
0
VERTEX
8
CUT
10
122.3181
20
116.1593
0
VERTEX
8
CUT
10
122.3943
20
115.9283
0
VERTEX
8
CUT
10
122.4926
20
115.7059
0
VERTEX
8
CUT
10
122.6121
20
115.4940
0
VERTEX
8
CUT
10
122.7515
20
115.2948
0
VERTEX
8
CUT
10
122.9097
20
115.1101
0
VERTEX
8
CUT
10
123.0851
20
114.9416
0
VERTEX
8
CUT
10
123.2760
20
114.7909
0
VERTEX
8
CUT
10
123.4807
20
114.6595
0
VERTEX
8
CUT
10
123.6971
20
114.5487
0
VERTEX
8
CUT
10
128.7122
20
112.2805
0
VERTEX
8
CUT
10
129.0265
20
112.1630
0
VERTEX
8
CUT
10
131.5472
20
111.4096
0
VERTEX
8
CUT
10
131.8338
20
111.3420
0
VERTEX
8
CUT
10
132.1263
20
111.3086
0
VERTEX
8
CUT
10
132.6999
20
111.2772
0
VERTEX
8
CUT
10
132.7201
20
111.2755
0
VERTEX
8
CUT
10
132.8029
20
111.2625
0
VERTEX
8
CUT
10
132.8226
20
111.2578
0
VERTEX
8
CUT
10
133.7766
20
111.0055
0
VERTEX
8
CUT
10
134.0163
20
110.9546
0
VERTEX
8
CUT
10
134.2598
20
110.9273
0
VERTEX
8
CUT
10
134.5048
20
110.9240
0
VERTEX
8
CUT
10
134.7489
20
110.9448
0
VERTEX
8
CUT
10
134.9898
20
110.9893
0
VERTEX
8
CUT
10
135.2253
20
111.0572
0
VERTEX
8
CUT
10
135.4529
20
111.1478
0
VERTEX
8
CUT
10
135.5830
20
111.2150
0
VERTEX
8
CUT
10
135.7173
20
111.1013
0
VERTEX
8
CUT
10
135.9220
20
110.9602
0
VERTEX
8
CUT
10
136.1397
20
110.8401
0
VERTEX
8
CUT
10
136.3683
20
110.7423
0
VERTEX
8
CUT
10
136.6055
20
110.6677
0
VERTEX
8
CUT
10
136.6111
20
110.6662
0
VERTEX
8
CUT
10
136.6319
20
110.6589
0
VERTEX
8
CUT
10
136.7471
20
110.6147
0
VERTEX
8
CUT
10
136.9626
20
110.5429
0
VERTEX
8
CUT
10
137.1836
20
110.4911
0
VERTEX
8
CUT
10
137.4085
20
110.4595
0
VERTEX
8
CUT
10
137.6353
20
110.4484
0
VERTEX
8
CUT
10
140.3014
20
110.4397
0
VERTEX
8
CUT
10
140.5275
20
110.4492
0
VERTEX
8
CUT
10
140.7517
20
110.4791
0
VERTEX
8
CUT
10
140.9723
20
110.5292
0
VERTEX
8
CUT
10
141.5324
20
110.6831
0
VERTEX
8
CUT
10
141.5376
20
110.6845
0
VERTEX
8
CUT
10
141.5873
20
110.6940
0
VERTEX
8
CUT
10
141.6126
20
110.6966
0
VERTEX
8
CUT
10
141.6368
20
110.6977
0
VERTEX
8
CUT
10
143.6011
20
110.7369
0
VERTEX
8
CUT
10
143.8498
20
110.7543
0
VERTEX
8
CUT
10
144.0955
20
110.7964
0
VERTEX
8
CUT
10
144.3359
20
110.8627
0
VERTEX
8
CUT
10
144.5385
20
110.9411
0
VERTEX
8
CUT
10
144.5389
20
110.9403
0
VERTEX
8
CUT
10
144.5830
20
110.9587
0
VERTEX
8
CUT
10
144.6192
20
110.9709
0
VERTEX
8
CUT
10
144.6570
20
110.9762
0
VERTEX
8
CUT
10
144.6755
20
110.9775
0
VERTEX
8
CUT
10
145.5745
20
111.0177
0
VERTEX
8
CUT
10
145.8416
20
111.0441
0
VERTEX
8
CUT
10
146.1043
20
111.0989
0
VERTEX
8
CUT
10
147.8106
20
111.5520
0
VERTEX
8
CUT
10
147.8299
20
111.5566
0
VERTEX
8
CUT
10
147.9109
20
111.5697
0
VERTEX
8
CUT
10
147.9307
20
111.5714
0
VERTEX
8
CUT
10
148.4769
20
111.6042
0
VERTEX
8
CUT
10
148.7063
20
111.6286
0
VERTEX
8
CUT
10
148.9324
20
111.6741
0
VERTEX
8
CUT
10
149.1534
20
111.7402
0
VERTEX
8
CUT
10
154.5210
20
113.6204
0
VERTEX
8
CUT
10
154.7277
20
113.7034
0
VERTEX
8
CUT
10
154.9262
20
113.8043
0
VERTEX
8
CUT
10
156.6749
20
114.7944
0
VERTEX
8
CUT
10
156.8868
20
114.9288
0
VERTEX
8
CUT
10
157.0841
20
115.0837
0
VERTEX
8
CUT
10
157.2649
20
115.2577
0
VERTEX
8
CUT
10
157.4273
20
115.4489
0
VERTEX
8
CUT
10
157.5698
20
115.6554
0
VERTEX
8
CUT
10
157.6908
20
115.8751
0
VERTEX
8
CUT
10
157.7892
20
116.1059
0
VERTEX
8
CUT
10
157.8640
20
116.3454
0
VERTEX
8
CUT
10
157.9144
20
116.5912
0
VERTEX
8
CUT
10
157.9399
20
116.8408
0
VERTEX
8
CUT
10
157.9403
20
117.0917
0
VERTEX
8
CUT
10
157.9155
20
117.3413
0
VERTEX
8
CUT
10
157.8658
20
117.5872
0
VERTEX
8
CUT
10
157.7918
20
117.8269
0
VERTEX
8
CUT
10
157.6940
20
118.0580
0
VERTEX
8
CUT
10
157.5736
20
118.2781
0
VERTEX
8
CUT
10
157.4318
20
118.4851
0
VERTEX
8
CUT
10
157.2699
20
118.6767
0
VERTEX
8
CUT
10
157.0896
20
118.8512
0
VERTEX
8
CUT
10
156.8928
20
119.0068
0
VERTEX
8
CUT
10
156.6813
20
119.1418
0
VERTEX
8
CUT
10
156.4574
20
119.2550
0
VERTEX
8
CUT
10
152.1359
20
121.1730
0
VERTEX
8
CUT
10
152.1181
20
121.1814
0
VERTEX
8
CUT
10
152.0474
20
121.2216
0
VERTEX
8
CUT
10
152.0310
20
121.2325
0
VERTEX
8
CUT
10
149.0538
20
123.3378
0
VERTEX
8
CUT
10
149.0404
20
123.3477
0
VERTEX
8
CUT
10
148.9877
20
123.3919
0
VERTEX
8
CUT
10
148.9757
20
123.4034
0
VERTEX
8
CUT
10
147.4233
20
124.9472
0
VERTEX
8
CUT
10
147.3776
20
124.9950
0
VERTEX
8
CUT
10
147.1990
20
125.1646
0
VERTEX
8
CUT
10
147.0045
20
125.3158
0
VERTEX
8
CUT
10
146.7962
20
125.4472
0
VERTEX
8
CUT
10
146.5758
20
125.5574
0
VERTEX
8
CUT
10
146.3458
20
125.6454
0
VERTEX
8
CUT
10
146.1081
20
125.7103
0
VERTEX
8
CUT
10
145.8653
20
125.7515
0
VERTEX
8
CUT
10
145.6195
20
125.7686
0
VERTEX
8
CUT
10
145.3733
20
125.7614
0
VERTEX
8
CUT
10
145.1290
20
125.7301
0
VERTEX
8
CUT
10
144.8889
20
125.6748
0
VERTEX
8
CUT
10
144.6555
20
125.5962
0
VERTEX
8
CUT
10
144.4309
20
125.4950
0
VERTEX
8
CUT
10
144.2173
20
125.3722
0
VERTEX
8
CUT
10
144.0169
20
125.2290
0
VERTEX
8
CUT
10
143.8316
20
125.0668
0
VERTEX
8
CUT
10
143.6631
20
124.8870
0
VERTEX
8
CUT
10
143.5131
20
124.6916
0
VERTEX
8
CUT
10
143.3831
20
124.4824
0
VERTEX
8
CUT
10
143.2743
20
124.2614
0
VERTEX
8
CUT
10
143.1878
20
124.0308
0
VERTEX
8
CUT
10
143.1244
20
123.7927
0
VERTEX
8
CUT
10
143.0847
20
123.5496
0
VERTEX
8
CUT
10
143.0692
20
123.3038
0
VERTEX
8
CUT
10
143.0779
20
123.0576
0
VERTEX
8
CUT
10
143.1108
20
122.8135
0
VERTEX
8
CUT
10
143.1241
20
122.7416
0
VERTEX
8
CUT
10
143.1273
20
122.7215
0
VERTEX
8
CUT
10
143.1341
20
122.6374
0
VERTEX
8
CUT
10
143.1342
20
122.6170
0
VERTEX
8
CUT
10
143.0766
20
119.9852
0
VERTEX
8
CUT
10
143.0758
20
119.9668
0
VERTEX
8
CUT
10
143.0714
20
119.9291
0
VERTEX
8
CUT
10
143.0569
20
119.8942
0
VERTEX
8
CUT
10
143.0486
20
119.8777
0
VERTEX
8
CUT
10
142.0736
20
118.0392
0
VERTEX
8
CUT
10
142.0639
20
118.0221
0
VERTEX
8
CUT
10
142.0414
20
117.9882
0
VERTEX
8
CUT
10
142.0157
20
117.9568
0
VERTEX
8
CUT
10
142.0021
20
117.9425
0
VERTEX
8
CUT
10
141.0597
20
117.0001
0
VERTEX
8
CUT
10
141.0557
20
116.9963
0
VERTEX
8
CUT
10
141.0170
20
116.9633
0
VERTEX
8
CUT
10
140.9962
20
116.9484
0
VERTEX
8
CUT
10
140.9755
20
116.9355
0
VERTEX
8
CUT
10
140.3306
20
116.5529
0
VERTEX
8
CUT
10
140.3112
20
116.5421
0
VERTEX
8
CUT
10
140.2275
20
116.5043
0
VERTEX
8
CUT
10
140.2065
20
116.4970
0
VERTEX
8
CUT
10
137.4447
20
115.6064
0
VERTEX
8
CUT
10
137.4250
20
115.6006
0
VERTEX
8
CUT
10
137.3835
20
115.5919
0
VERTEX
8
CUT
10
137.3414
20
115.5875
0
VERTEX
8
CUT
10
137.3209
20
115.5869
0
VERTEX
8
CUT
10
137.2334
20
115.5868
0
VERTEX
8
CUT
10
136.9851
20
115.5741
0
VERTEX
8
CUT
10
136.7393
20
115.5369
0
VERTEX
8
CUT
10
136.4984
20
115.4754
0
VERTEX
8
CUT
10
136.2648
20
115.3903
0
VERTEX
8
CUT
10
136.0678
20
115.2954
0
VERTEX
8
CUT
10
135.9383
20
115.4053
0
VERTEX
8
CUT
10
135.7368
20
115.5449
0
VERTEX
8
CUT
10
135.5227
20
115.6640
0
VERTEX
8
CUT
10
135.1440
20
115.8510
0
VERTEX
8
CUT
10
135.1273
20
115.8598
0
VERTEX
8
CUT
10
135.0944
20
115.8801
0
VERTEX
8
CUT
10
135.0686
20
115.9090
0
VERTEX
8
CUT
10
135.0570
20
115.9238
0
VERTEX
8
CUT
10
134.6280
20
116.5053
0
VERTEX
8
CUT
10
134.6168
20
116.5213
0
VERTEX
8
CUT
10
134.5963
20
116.5558
0
VERTEX
8
CUT
10
134.5907
20
116.5954
0
VERTEX
8
CUT
10
134.5895
20
116.6149
0
VERTEX
8
CUT
10
134.5365
20
117.9244
0
VERTEX
8
CUT
10
134.5172
20
118.1491
0
VERTEX
8
CUT
10
134.4777
20
118.3712
0
VERTEX
8
CUT
10
134.4184
20
118.5888
0
VERTEX
8
CUT
10
134.3397
20
118.8002
0
VERTEX
8
CUT
10
134.2982
20
118.8980
0
VERTEX
8
CUT
10
134.2917
20
118.9143
0
VERTEX
8
CUT
10
134.2806
20
118.9488
0
VERTEX
8
CUT
10
134.2757
20
118.9844
0
VERTEX
8
CUT
10
134.2745
20
119.0021
0
VERTEX
8
CUT
10
134.2425
20
119.6789
0
VERTEX
8
CUT
10
134.2182
20
119.9275
0
VERTEX
8
CUT
10
134.1693
20
120.1724
0
VERTEX
8
CUT
10
134.0962
20
120.4112
0
VERTEX
8
CUT
10
133.9996
20
120.6415
0
VERTEX
8
CUT
10
133.9854
20
120.6712
0
VERTEX
8
CUT
10
133.9774
20
120.6890
0
VERTEX
8
CUT
10
133.9638
20
120.7267
0
VERTEX
8
CUT
10
133.9738
20
120.7655
0
VERTEX
8
CUT
10
133.9802
20
120.7840
0
VERTEX
8
CUT
10
134.3627
20
121.8180
0
VERTEX
8
CUT
10
134.4289
20
122.0236
0
VERTEX
8
CUT
10
134.4770
20
122.2341
0
VERTEX
8
CUT
10
134.5068
20
122.4480
0
VERTEX
8
CUT
10
134.5180
20
122.6636
0
VERTEX
8
CUT
10
134.5288
20
123.8991
0
VERTEX
8
CUT
10
134.5167
20
124.1680
0
VERTEX
8
CUT
10
134.4757
20
124.4342
0
VERTEX
8
CUT
10
134.4063
20
124.6943
0
VERTEX
8
CUT
10
134.2939
20
125.0398
0
VERTEX
8
CUT
10
134.2888
20
125.0567
0
VERTEX
8
CUT
10
134.2807
20
125.0925
0
VERTEX
8
CUT
10
134.2757
20
125.1289
0
VERTEX
8
CUT
10
134.2745
20
125.1461
0
VERTEX
8
CUT
10
134.2350
20
125.9847
0
VERTEX
8
CUT
10
134.2139
20
126.2112
0
VERTEX
8
CUT
10
134.1724
20
126.4349
0
VERTEX
8
CUT
10
134.1107
20
126.6539
0
VERTEX
8
CUT
10
133.7010
20
127.8895
0
VERTEX
8
CUT
10
133.6239
20
128.0920
0
VERTEX
8
CUT
10
133.5296
20
128.2872
0
VERTEX
8
CUT
10
131.5523
20
131.9622
0
VERTEX
8
CUT
10
131.4294
20
132.1666
0
VERTEX
8
CUT
10
131.2876
20
132.3584
0
VERTEX
8
CUT
10
131.1281
20
132.5357
0
VERTEX
8
CUT
10
130.9525
20
132.6971
0
VERTEX
8
CUT
10
130.7623
20
132.8410
0
VERTEX
8
CUT
10
130.5592
20
132.9661
0
VERTEX
8
CUT
10
130.4721
20
133.0143
0
VERTEX
8
CUT
10
130.2539
20
133.1213
0
VERTEX
8
CUT
10
130.0264
20
133.2066
0
VERTEX
8
CUT
10
129.7917
20
133.2694
0
VERTEX
8
CUT
10
129.5520
20
133.3091
0
VERTEX
8
CUT
10
129.3095
20
133.3254
0
VERTEX
8
CUT
10
129.0667
20
133.3180
0
VERTEX
8
CUT
10
128.8257
20
133.2872
0
VERTEX
8
CUT
10
128.5888
20
133.2330
0
VERTEX
8
CUT
10
128.3583
20
133.1562
0
VERTEX
8
CUT
10
128.1364
20
133.0573
0
VERTEX
8
CUT
10
127.9251
20
132.9373
0
VERTEX
8
CUT
10
127.7264
20
132.7974
0
VERTEX
8
CUT
10
127.5423
20
132.6389
0
VERTEX
8
CUT
10
126.6105
20
131.7543
0
VERTEX
8
CUT
10
126.4931
20
131.6351
0
VERTEX
8
CUT
10
125.8012
20
130.8841
0
VERTEX
8
CUT
10
125.6497
20
130.7031
0
VERTEX
8
CUT
10
125.5158
20
130.5087
0
VERTEX
8
CUT
10
124.9479
20
129.5937
0
VERTEX
8
CUT
10
124.8415
20
129.4044
0
VERTEX
8
CUT
10
124.7520
20
129.2066
0
VERTEX
8
CUT
10
124.6799
20
129.0018
0
VERTEX
8
CUT
10
123.6748
20
125.6929
0
VERTEX
8
CUT
10
123.6187
20
125.4724
0
VERTEX
8
CUT
10
123.5828
20
125.2477
0
VERTEX
8
CUT
10
123.5675
20
125.0207
0
VERTEX
8
CUT
10
123.5270
20
123.1582
0
VERTEX
8
CUT
10
123.5259
20
123.1362
0
VERTEX
8
CUT
10
123.5198
20
123.0910
0
VERTEX
8
CUT
10
123.4861
20
122.9561
0
VERTEX
8
CUT
10
123.4869
20
122.9559
0
VERTEX
8
CUT
10
123.4610
20
122.8645
0
VERTEX
8
CUT
10
123.4165
20
122.6077
0
VERTEX
8
CUT
10
123.3989
20
122.3478
0
VERTEX
8
CUT
10
123.4084
20
122.0874
0
VERTEX
8
CUT
10
123.4450
20
121.8294
0
VERTEX
8
CUT
10
123.5082
20
121.5767
0
VERTEX
8
CUT
10
123.5184
20
121.5434
0
VERTEX
8
CUT
10
123.5240
20
121.5235
0
VERTEX
8
CUT
10
123.5321
20
121.4817
0
VERTEX
8
CUT
10
123.5359
20
121.4393
0
VERTEX
8
CUT
10
123.5362
20
121.4187
0
VERTEX
8
CUT
10
123.5047
20
119.2729
0
VERTEX
8
CUT
10
123.5039
20
119.2534
0
VERTEX
8
CUT
10
123.4994
20
119.2135
0
VERTEX
8
CUT
10
123.4797
20
119.1784
0
VERTEX
8
CUT
10
123.4689
20
119.1621
0
VERTEX
8
CUT
10
123.2688
20
118.8766
0
VERTEX
8
CUT
10
123.2578
20
118.8616
0
VERTEX
8
CUT
10
123.2325
20
118.8320
0
VERTEX
8
CUT
10
123.1688
20
118.7812
0
VERTEX
8
CUT
10
122.9862
20
118.6205
0
VERTEX
8
CUT
10
122.8202
20
118.4429
0
VERTEX
8
CUT
10
122.6721
20
118.2499
0
SEQEND
0
POLYLINE
8
CUT
66
1
70
1
10
0.0
20
0.0
30
0.0
0
VERTEX
8
CUT
10
108.9709
20
135.6443
0
VERTEX
8
CUT
10
108.9574
20
135.4118
0
VERTEX
8
CUT
10
108.9656
20
135.1790
0
VERTEX
8
CUT
10
108.9954
20
134.9480
0
VERTEX
8
CUT
10
109.0465
20
134.7208
0
VERTEX
8
CUT
10
109.7377
20
132.2046
0
VERTEX
8
CUT
10
109.8052
20
131.9955
0
VERTEX
8
CUT
10
109.8907
20
131.7931
0
VERTEX
8
CUT
10
109.9937
20
131.5990
0
VERTEX
8
CUT
10
110.1134
20
131.4147
0
VERTEX
8
CUT
10
110.8876
20
130.3297
0
VERTEX
8
CUT
10
110.8906
20
130.3253
0
VERTEX
8
CUT
10
110.9313
20
130.2580
0
VERTEX
8
CUT
10
110.9399
20
130.2416
0
VERTEX
8
CUT
10
112.9652
20
126.1513
0
VERTEX
8
CUT
10
113.1487
20
125.8397
0
VERTEX
8
CUT
10
113.9058
20
124.7436
0
VERTEX
8
CUT
10
114.0539
20
124.5501
0
VERTEX
8
CUT
10
114.2201
20
124.3720
0
VERTEX
8
CUT
10
114.4029
20
124.2108
0
VERTEX
8
CUT
10
114.6005
20
124.0683
0
VERTEX
8
CUT
10
114.8110
20
123.9456
0
VERTEX
8
CUT
10
115.0325
20
123.8440
0
VERTEX
8
CUT
10
115.2628
20
123.7645
0
VERTEX
8
CUT
10
115.4998
20
123.7078
0
VERTEX
8
CUT
10
115.7411
20
123.6744
0
VERTEX
8
CUT
10
115.9846
20
123.6646
0
VERTEX
8
CUT
10
116.2279
20
123.6786
0
VERTEX
8
CUT
10
116.4686
20
123.7162
0
VERTEX
8
CUT
10
116.7045
20
123.7771
0
VERTEX
8
CUT
10
116.9334
20
123.8606
0
VERTEX
8
CUT
10
117.1531
20
123.9661
0
VERTEX
8
CUT
10
117.3614
20
124.0924
0
VERTEX
8
CUT
10
117.5565
20
124.2384
0
VERTEX
8
CUT
10
117.7364
20
124.4027
0
VERTEX
8
CUT
10
117.8995
20
124.5837
0
VERTEX
8
CUT
10
118.0442
20
124.7798
0
VERTEX
8
CUT
10
118.1691
20
124.9890
0
VERTEX
8
CUT
10
118.2731
20
125.2093
0
VERTEX
8
CUT
10
118.3551
20
125.4388
0
VERTEX
8
CUT
10
118.4144
20
125.6751
0
VERTEX
8
CUT
10
118.4504
20
125.9161
0
VERTEX
8
CUT
10
118.4628
20
126.1594
0
VERTEX
8
CUT
10
118.4678
20
128.6333
0
VERTEX
8
CUT
10
118.4683
20
128.6519
0
VERTEX
8
CUT
10
118.4719
20
128.6900
0
VERTEX
8
CUT
10
118.4791
20
128.7277
0
VERTEX
8
CUT
10
118.4839
20
128.7456
0
VERTEX
8
CUT
10
119.1053
20
130.8860
0
VERTEX
8
CUT
10
119.1106
20
130.9030
0
VERTEX
8
CUT
10
119.1242
20
130.9376
0
VERTEX
8
CUT
10
119.1408
20
130.9710
0
VERTEX
8
CUT
10
119.1497
20
130.9860
0
VERTEX
8
CUT
10
119.9949
20
132.3538
0
VERTEX
8
CUT
10
120.0069
20
132.3720
0
VERTEX
8
CUT
10
120.0625
20
132.4432
0
VERTEX
8
CUT
10
120.0759
20
132.4578
0
VERTEX
8
CUT
10
120.2314
20
132.6434
0
VERTEX
8
CUT
10
120.3682
20
132.8432
0
VERTEX
8
CUT
10
120.4851
20
133.0554
0
VERTEX
8
CUT
10
120.5808
20
133.2778
0
VERTEX
8
CUT
10
120.6546
20
133.5084
0
VERTEX
8
CUT
10
120.7057
20
133.7452
0
VERTEX
8
CUT
10
120.7337
20
133.9857
0
VERTEX
8
CUT
10
120.7383
20
134.2278
0
VERTEX
8
CUT
10
120.7194
20
134.4692
0
VERTEX
8
CUT
10
120.6773
20
134.7077
0
VERTEX
8
CUT
10
120.6122
20
134.9410
0
VERTEX
8
CUT
10
120.5250
20
135.1669
0
VERTEX
8
CUT
10
120.4162
20
135.3833
0
VERTEX
8
CUT
10
120.2871
20
135.5881
0
VERTEX
8
CUT
10
120.1387
20
135.7795
0
VERTEX
8
CUT
10
119.9725
20
135.9556
0
VERTEX
8
CUT
10
119.7901
20
136.1149
0
VERTEX
8
CUT
10
119.5931
20
136.2557
0
VERTEX
8
CUT
10
119.3833
20
136.3768
0
VERTEX
8
CUT
10
119.1629
20
136.4771
0
VERTEX
8
CUT
10
118.9338
20
136.5555
0
VERTEX
8
CUT
10
118.6982
20
136.6115
0
VERTEX
8
CUT
10
118.4583
20
136.6443
0
VERTEX
8
CUT
10
118.2163
20
136.6538
0
VERTEX
8
CUT
10
116.6518
20
136.6394
0
VERTEX
8
CUT
10
116.6289
20
136.6398
0
VERTEX
8
CUT
10
116.5345
20
136.6499
0
VERTEX
8
CUT
10
116.5120
20
136.6543
0
VERTEX
8
CUT
10
113.8802
20
137.2478
0
VERTEX
8
CUT
10
113.8752
20
137.2490
0
VERTEX
8
CUT
10
113.8025
20
137.2712
0
VERTEX
8
CUT
10
113.7856
20
137.2774
0
VERTEX
8
CUT
10
112.4821
20
137.7927
0
VERTEX
8
CUT
10
112.2380
20
137.8750
0
VERTEX
8
CUT
10
111.9867
20
137.9317
0
VERTEX
8
CUT
10
111.7309
20
137.9622
0
VERTEX
8
CUT
10
111.4733
20
137.9662
0
VERTEX
8
CUT
10
111.2167
20
137.9438
0
VERTEX
8
CUT
10
110.9638
20
137.8950
0
VERTEX
8
CUT
10
110.8929
20
137.8775
0
VERTEX
8
CUT
10
110.6663
20
137.8100
0
VERTEX
8
CUT
10
110.4471
20
137.7215
0
VERTEX
8
CUT
10
110.2373
20
137.6127
0
VERTEX
8
CUT
10
110.0387
20
137.4845
0
VERTEX
8
CUT
10
109.8530
20
137.3381
0
VERTEX
8
CUT
10
109.6821
20
137.1749
0
VERTEX
8
CUT
10
109.5273
20
136.9962
0
VERTEX
8
CUT
10
109.3901
20
136.8037
0
VERTEX
8
CUT
10
109.2716
20
136.5991
0
VERTEX
8
CUT
10
109.2368
20
136.5318
0
VERTEX
8
CUT
10
109.1395
20
136.3202
0
VERTEX
8
CUT
10
109.0624
20
136.1005
0
VERTEX
8
CUT
10
109.0060
20
135.8745
0
SEQEND
0
POLYLINE
8
CUT
66
1
70
1
10
0.0
20
0.0
30
0.0
0
VERTEX
8
CUT
10
77.6380
20
151.0067
0
VERTEX
8
CUT
10
77.6325
20
150.7604
0
VERTEX
8
CUT
10
77.6513
20
150.5147
0
VERTEX
8
CUT
10
77.6942
20
150.2720
0
VERTEX
8
CUT
10
77.7607
20
150.0347
0
VERTEX
8
CUT
10
77.8503
20
149.8052
0
VERTEX
8
CUT
10
77.9620
20
149.5856
0
VERTEX
8
CUT
10
78.0948
20
149.3780
0
VERTEX
8
CUT
10
78.2474
20
149.1845
0
VERTEX
8
CUT
10
78.4183
20
149.0070
0
VERTEX
8
CUT
10
78.6059
20
148.8472
0
VERTEX
8
CUT
10
78.8083
20
148.7066
0
VERTEX
8
CUT
10
79.0235
20
148.5867
0
VERTEX
8
CUT
10
79.2495
20
148.4885
0
VERTEX
8
CUT
10
79.4840
20
148.4130
0
VERTEX
8
CUT
10
79.7249
20
148.3610
0
VERTEX
8
CUT
10
79.9697
20
148.3329
0
VERTEX
8
CUT
10
80.2161
20
148.3291
0
VERTEX
8
CUT
10
86.4960
20
148.5414
0
VERTEX
8
CUT
10
86.5577
20
148.5419
0
VERTEX
8
CUT
10
86.6193
20
148.5392
0
VERTEX
8
CUT
10
90.1268
20
148.2954
0
VERTEX
8
CUT
10
90.3822
20
148.2908
0
VERTEX
8
CUT
10
90.6368
20
148.3122
0
VERTEX
8
CUT
10
90.8879
20
148.3595
0
VERTEX
8
CUT
10
91.5914
20
148.5296
0
VERTEX
8
CUT
10
91.6084
20
148.5333
0
VERTEX
8
CUT
10
91.6451
20
148.5387
0
VERTEX
8
CUT
10
91.6810
20
148.5304
0
VERTEX
8
CUT
10
91.6944
20
148.5264
0
VERTEX
8
CUT
10
91.9247
20
148.4681
0
VERTEX
8
CUT
10
92.1595
20
148.4320
0
VERTEX
8
CUT
10
92.3966
20
148.4183
0
VERTEX
8
CUT
10
92.6340
20
148.4272
0
VERTEX
8
CUT
10
92.8695
20
148.4586
0
VERTEX
8
CUT
10
93.1010
20
148.5122
0
VERTEX
8
CUT
10
93.1078
20
148.5141
0
VERTEX
8
CUT
10
93.1506
20
148.5214
0
VERTEX
8
CUT
10
93.1708
20
148.5231
0
VERTEX
8
CUT
10
93.6098
20
148.5496
0
VERTEX
8
CUT
10
93.8778
20
148.5803
0
VERTEX
8
CUT
10
94.1408
20
148.6398
0
VERTEX
8
CUT
10
94.3960
20
148.7272
0
VERTEX
8
CUT
10
94.7667
20
148.8770
0
VERTEX
8
CUT
10
94.9907
20
148.9807
0
VERTEX
8
CUT
10
95.2034
20
149.1059
0
VERTEX
8
CUT
10
95.4027
20
149.2515
0
VERTEX
8
CUT
10
95.5867
20
149.4161
0
VERTEX
8
CUT
10
95.7536
20
149.5980
0
VERTEX
8
CUT
10
95.9017
20
149.7955
0
VERTEX
8
CUT
10
96.0296
20
150.0066
0
VERTEX
8
CUT
10
96.1360
20
150.2293
0
VERTEX
8
CUT
10
96.2200
20
150.4614
0
VERTEX
8
CUT
10
96.2807
20
150.7007
0
VERTEX
8
CUT
10
96.3175
20
150.9448
0
VERTEX
8
CUT
10
96.3300
20
151.1913
0
VERTEX
8
CUT
10
96.3182
20
151.4379
0
VERTEX
8
CUT
10
96.2821
20
151.6821
0
VERTEX
8
CUT
10
96.2221
20
151.9215
0
VERTEX
8
CUT
10
96.1388
20
152.1539
0
VERTEX
8
CUT
10
96.0330
20
152.3769
0
VERTEX
8
CUT
10
95.9057
20
152.5884
0
VERTEX
8
CUT
10
95.7581
20
152.7863
0
VERTEX
8
CUT
10
95.5918
20
152.9686
0
VERTEX
8
CUT
10
94.7236
20
153.8310
0
VERTEX
8
CUT
10
94.5525
20
153.9859
0
VERTEX
8
CUT
10
94.3679
20
154.1243
0
VERTEX
8
CUT
10
94.1712
20
154.2452
0
VERTEX
8
CUT
10
93.9643
20
154.3474
0
VERTEX
8
CUT
10
93.7488
20
154.4301
0
VERTEX
8
CUT
10
93.5267
20
154.4926
0
VERTEX
8
CUT
10
93.2997
20
154.5343
0
VERTEX
8
CUT
10
93.0698
20
154.5549
0
VERTEX
8
CUT
10
91.3025
20
154.6313
0
VERTEX
8
CUT
10
91.2850
20
154.6324
0
VERTEX
8
CUT
10
91.2479
20
154.6375
0
VERTEX
8
CUT
10
91.2136
20
154.6526
0
VERTEX
8
CUT
10
91.1981
20
154.6608
0
VERTEX
8
CUT
10
90.6110
20
154.9884
0
VERTEX
8
CUT
10
90.5954
20
154.9976
0
VERTEX
8
CUT
10
90.5636
20
155.0197
0
VERTEX
8
CUT
10
90.5339
20
155.0446
0
VERTEX
8
CUT
10
90.5210
20
155.0572
0
VERTEX
8
CUT
10
89.7679
20
155.8265
0
VERTEX
8
CUT
10
89.7565
20
155.8386
0
VERTEX
8
CUT
10
89.7339
20
155.8662
0
VERTEX
8
CUT
10
89.7166
20
155.8970
0
VERTEX
8
CUT
10
89.7094
20
155.9122
0
VERTEX
8
CUT
10
89.3820
20
156.6405
0
VERTEX
8
CUT
10
89.3748
20
156.6576
0
VERTEX
8
CUT
10
89.3622
20
156.6951
0
VERTEX
8
CUT
10
89.3572
20
156.7344
0
VERTEX
8
CUT
10
89.3562
20
156.7528
0
VERTEX
8
CUT
10
89.3000
20
158.6388
0
VERTEX
8
CUT
10
89.2799
20
158.8889
0
VERTEX
8
CUT
10
89.2349
20
159.1358
0
VERTEX
8
CUT
10
89.1653
20
159.3769
0
VERTEX
8
CUT
10
89.0719
20
159.6099
0
VERTEX
8
CUT
10
88.9556
20
159.8323
0
VERTEX
8
CUT
10
88.7717
20
160.1448
0
VERTEX
8
CUT
10
88.6351
20
160.3526
0
VERTEX
8
CUT
10
88.4784
20
160.5458
0
VERTEX
8
CUT
10
88.3033
20
160.7225
0
VERTEX
8
CUT
10
88.1115
20
160.8810
0
VERTEX
8
CUT
10
87.9050
20
161.0196
0
VERTEX
8
CUT
10
87.6857
20
161.1369
0
VERTEX
8
CUT
10
87.4558
20
161.2319
0
VERTEX
8
CUT
10
87.2176
20
161.3036
0
VERTEX
8
CUT
10
86.9734
20
161.3513
0
VERTEX
8
CUT
10
86.7258
20
161.3744
0
VERTEX
8
CUT
10
86.4770
20
161.3728
0
VERTEX
8
CUT
10
86.2297
20
161.3466
0
VERTEX
8
CUT
10
85.9861
20
161.2958
0
VERTEX
8
CUT
10
85.7489
20
161.2211
0
VERTEX
8
CUT
10
85.5202
20
161.1233
0
VERTEX
8
CUT
10
85.3024
20
161.0031
0
VERTEX
8
CUT
10
85.0976
20
160.8619
0
VERTEX
8
CUT
10
84.9078
20
160.7011
0
VERTEX
8
CUT
10
83.9434
20
159.7974
0
VERTEX
8
CUT
10
83.7906
20
159.6412
0
VERTEX
8
CUT
10
83.6520
20
159.4722
0
VERTEX
8
CUT
10
83.5288
20
159.2918
0
VERTEX
8
CUT
10
83.4217
20
159.1013
0
VERTEX
8
CUT
10
82.9298
20
158.1284
0
VERTEX
8
CUT
10
82.8091
20
157.8487
0
VERTEX
8
CUT
10
82.7233
20
157.5563
0
VERTEX
8
CUT
10
82.4390
20
156.3101
0
VERTEX
8
CUT
10
82.4335
20
156.2886
0
VERTEX
8
CUT
10
82.4014
20
156.1985
0
VERTEX
8
CUT
10
82.3921
20
156.1782
0
VERTEX
8
CUT
10
81.8475
20
155.0789
0
VERTEX
8
CUT
10
81.8390
20
155.0626
0
VERTEX
8
CUT
10
81.8183
20
155.0295
0
VERTEX
8
CUT
10
81.7845
20
155.0100
0
VERTEX
8
CUT
10
81.7679
20
155.0021
0
VERTEX
8
CUT
10
79.8916
20
154.1553
0
VERTEX
8
CUT
10
79.6927
20
154.0547
0
VERTEX
8
CUT
10
79.5035
20
153.9367
0
VERTEX
8
CUT
10
79.3256
20
153.8023
0
VERTEX
8
CUT
10
79.1604
20
153.6526
0
VERTEX
8
CUT
10
78.6408
20
153.1377
0
VERTEX
8
CUT
10
78.4596
20
152.9378
0
VERTEX
8
CUT
10
78.3011
20
152.7194
0
VERTEX
8
CUT
10
78.1670
20
152.4853
0
VERTEX
8
CUT
10
77.8983
20
151.9512
0
VERTEX
8
CUT
10
77.7985
20
151.7259
0
VERTEX
8
CUT
10
77.7215
20
151.4918
0
VERTEX
8
CUT
10
77.6678
20
151.2513
0
SEQEND
0
POLYLINE
8
CUT
66
1
70
1
10
0.0
20
0.0
30
0.0
0
VERTEX
8
CUT
10
75.4571
20
124.0481
0
VERTEX
8
CUT
10
75.5074
20
123.7868
0
VERTEX
8
CUT
10
75.5415
20
123.6491
0
VERTEX
8
CUT
10
75.5472
20
123.6067
0
VERTEX
8
CUT
10
75.5483
20
123.5851
0
VERTEX
8
CUT
10
75.5942
20
121.6053
0
VERTEX
8
CUT
10
75.6133
20
121.3492
0
VERTEX
8
CUT
10
75.6586
20
121.0964
0
VERTEX
8
CUT
10
76.1437
20
119.0126
0
VERTEX
8
CUT
10
76.1477
20
118.9931
0
VERTEX
8
CUT
10
76.1529
20
118.9526
0
VERTEX
8
CUT
10
76.1459
20
118.9124
0
VERTEX
8
CUT
10
76.1410
20
118.8932
0
VERTEX
8
CUT
10
76.0383
20
118.5288
0
VERTEX
8
CUT
10
75.9841
20
118.2935
0
VERTEX
8
CUT
10
75.9529
20
118.0540
0
VERTEX
8
CUT
10
75.9449
20
117.8127
0
VERTEX
8
CUT
10
75.9603
20
117.5718
0
VERTEX
8
CUT
10
75.9988
20
117.3334
0
VERTEX
8
CUT
10
76.0601
20
117.0999
0
VERTEX
8
CUT
10
76.1437
20
116.8733
0
VERTEX
8
CUT
10
76.2487
20
116.6559
0
VERTEX
8
CUT
10
76.3742
20
116.4496
0
VERTEX
8
CUT
10
76.5190
20
116.2564
0
VERTEX
8
CUT
10
76.6818
20
116.0781
0
VERTEX
8
CUT
10
76.8610
20
115.9163
0
VERTEX
8
CUT
10
77.0550
20
115.7726
0
VERTEX
8
CUT
10
77.2620
20
115.6482
0
VERTEX
8
CUT
10
77.4800
20
115.5444
0
VERTEX
8
CUT
10
77.7070
20
115.4621
0
VERTEX
8
CUT
10
77.9409
20
115.4021
0
VERTEX
8
CUT
10
78.1795
20
115.3649
0
VERTEX
8
CUT
10
78.4205
20
115.3509
0
VERTEX
8
CUT
10
78.6618
20
115.3603
0
VERTEX
8
CUT
10
78.9010
20
115.3928
0
VERTEX
8
CUT
10
79.1360
20
115.4483
0
VERTEX
8
CUT
10
79.3646
20
115.5262
0
VERTEX
8
CUT
10
79.5845
20
115.6258
0
VERTEX
8
CUT
10
80.1368
20
115.9088
0
VERTEX
8
CUT
10
80.3712
20
116.0454
0
VERTEX
8
CUT
10
80.5893
20
116.2065
0
VERTEX
8
CUT
10
82.1806
20
117.5213
0
VERTEX
8
CUT
10
82.3924
20
117.7180
0
VERTEX
8
CUT
10
82.5801
20
117.9379
0
VERTEX
8
CUT
10
83.5252
20
119.1840
0
VERTEX
8
CUT
10
83.6673
20
119.3924
0
VERTEX
8
CUT
10
83.7876
20
119.6141
0
VERTEX
8
CUT
10
83.8850
20
119.8467
0
VERTEX
8
CUT
10
83.9585
20
120.0880
0
VERTEX
8
CUT
10
84.0073
20
120.3355
0
VERTEX
8
CUT
10
84.0309
20
120.5866
0
VERTEX
8
CUT
10
84.0291
20
120.8389
0
VERTEX
8
CUT
10
84.0018
20
121.0896
0
VERTEX
8
CUT
10
83.9495
20
121.3364
0
VERTEX
8
CUT
10
83.8725
20
121.5766
0
VERTEX
8
CUT
10
83.7717
20
121.8078
0
VERTEX
8
CUT
10
83.6482
20
122.0277
0
VERTEX
8
CUT
10
83.5031
20
122.2340
0
VERTEX
8
CUT
10
83.3379
20
122.4247
0
VERTEX
8
CUT
10
83.1544
20
122.5977
0
VERTEX
8
CUT
10
82.8859
20
122.8265
0
VERTEX
8
CUT
10
82.8712
20
122.8396
0
VERTEX
8
CUT
10
82.8434
20
122.8686
0
VERTEX
8
CUT
10
82.8369
20
122.9083
0
VERTEX
8
CUT
10
82.8352
20
122.9279
0
VERTEX
8
CUT
10
82.7686
20
124.0175
0
VERTEX
8
CUT
10
82.7679
20
124.0349
0
VERTEX
8
CUT
10
82.7689
20
124.0707
0
VERTEX
8
CUT
10
82.7760
20
124.1055
0
VERTEX
8
CUT
10
82.7806
20
124.1224
0
VERTEX
8
CUT
10
82.9295
20
124.6236
0
VERTEX
8
CUT
10
82.9869
20
124.8577
0
VERTEX
8
CUT
10
83.0216
20
125.0962
0
VERTEX
8
CUT
10
83.0331
20
125.3369
0
VERTEX
8
CUT
10
83.0323
20
126.8179
0
VERTEX
8
CUT
10
83.0179
20
127.0849
0
VERTEX
8
CUT
10
82.9750
20
127.3487
0
VERTEX
8
CUT
10
82.9042
20
127.6065
0
VERTEX
8
CUT
10
82.8063
20
127.8553
0
VERTEX
8
CUT
10
82.5351
20
128.4491
0
VERTEX
8
CUT
10
82.5282
20
128.4651
0
VERTEX
8
CUT
10
82.5161
20
128.4992
0
VERTEX
8
CUT
10
82.5071
20
128.5343
0
VERTEX
8
CUT
10
82.5039
20
128.5509
0
VERTEX
8
CUT
10
82.2050
20
130.3450
0
VERTEX
8
CUT
10
82.1508
20
130.5927
0
VERTEX
8
CUT
10
82.0717
20
130.8336
0
VERTEX
8
CUT
10
81.9686
20
131.0652
0
VERTEX
8
CUT
10
81.6853
20
131.6236
0
VERTEX
8
CUT
10
81.5609
20
131.8410
0
VERTEX
8
CUT
10
81.4154
20
132.0450
0
VERTEX
8
CUT
10
81.2502
20
132.2333
0
VERTEX
8
CUT
10
81.0669
20
132.4042
0
VERTEX
8
CUT
10
80.8675
20
132.5558
0
VERTEX
8
CUT
10
80.6539
20
132.6868
0
VERTEX
8
CUT
10
80.4283
20
132.7957
0
VERTEX
8
CUT
10
80.1929
20
132.8815
0
VERTEX
8
CUT
10
79.9501
20
132.9432
0
VERTEX
8
CUT
10
79.7023
20
132.9804
0
VERTEX
8
CUT
10
79.4521
20
132.9926
0
VERTEX
8
CUT
10
79.2019
20
132.9797
0
VERTEX
8
CUT
10
78.9542
20
132.9418
0
VERTEX
8
CUT
10
78.7116
20
132.8792
0
VERTEX
8
CUT
10
78.4764
20
132.7928
0
VERTEX
8
CUT
10
78.2511
20
132.6832
0
VERTEX
8
CUT
10
78.0379
20
132.5516
0
VERTEX
8
CUT
10
77.8390
20
132.3994
0
VERTEX
8
CUT
10
77.6562
20
132.2280
0
VERTEX
8
CUT
10
77.4916
20
132.0391
0
VERTEX
8
CUT
10
77.3466
20
131.8348
0
VERTEX
8
CUT
10
77.2229
20
131.6169
0
VERTEX
8
CUT
10
76.3223
20
129.8285
0
VERTEX
8
CUT
10
76.2111
20
129.5731
0
VERTEX
8
CUT
10
76.1290
20
129.3069
0
VERTEX
8
CUT
10
75.6742
20
127.4761
0
VERTEX
8
CUT
10
75.6240
20
127.2160
0
VERTEX
8
CUT
10
75.6017
20
126.9520
0
VERTEX
8
CUT
10
75.5459
20
125.1802
0
VERTEX
8
CUT
10
75.5448
20
125.1598
0
VERTEX
8
CUT
10
75.5391
20
125.1180
0
VERTEX
8
CUT
10
75.5088
20
124.9928
0
VERTEX
8
CUT
10
75.5114
20
124.9922
0
VERTEX
8
CUT
10
75.4756
20
124.8433
0
VERTEX
8
CUT
10
75.4411
20
124.5794
0
VERTEX
8
CUT
10
75.4350
20
124.3133
0
SEQEND
0
POLYLINE
8
CUT
66
1
70
1
10
0.0
20
0.0
30
0.0
0
VERTEX
8
CUT
10
48.8249
20
16.5051
0
VERTEX
8
CUT
10
49.0154
20
16.3310
0
VERTEX
8
CUT
10
49.2228
20
16.1775
0
VERTEX
8
CUT
10
49.4450
20
16.0462
0
VERTEX
8
CUT
10
49.6794
20
15.9385
0
VERTEX
8
CUT
10
50.0211
20
15.8025
0
VERTEX
8
CUT
10
50.2408
20
15.7266
0
VERTEX
8
CUT
10
50.4666
20
15.6715
0
VERTEX
8
CUT
10
50.6966
20
15.6376
0
VERTEX
8
CUT
10
50.9287
20
15.6252
0
VERTEX
8
CUT
10
51.0469
20
15.6244
0
VERTEX
8
CUT
10
51.2814
20
15.6338
0
VERTEX
8
CUT
10
51.5139
20
15.6651
0
VERTEX
8
CUT
10
51.7425
20
15.7181
0
VERTEX
8
CUT
10
51.9651
20
15.7923
0
VERTEX
8
CUT
10
52.1798
20
15.8871
0
VERTEX
8
CUT
10
52.4037
20
15.9987
0
VERTEX
8
CUT
10
52.6040
20
16.1103
0
VERTEX
8
CUT
10
52.7932
20
16.2399
0
VERTEX
8
CUT
10
52.9698
20
16.3862
0
VERTEX
8
CUT
10
53.1322
20
16.5481
0
VERTEX
8
CUT
10
53.2791
20
16.7241
0
VERTEX
8
CUT
10
53.4093
20
16.9129
0
VERTEX
8
CUT
10
53.5216
20
17.1129
0
VERTEX
8
CUT
10
53.6295
20
17.3274
0
VERTEX
8
CUT
10
53.7244
20
17.5405
0
VERTEX
8
CUT
10
53.7991
20
17.7615
0
VERTEX
8
CUT
10
53.8529
20
17.9885
0
VERTEX
8
CUT
10
53.8853
20
18.2195
0
VERTEX
8
CUT
10
53.8960
20
18.4526
0
VERTEX
8
CUT
10
53.8849
20
18.6856
0
VERTEX
8
CUT
10
53.8521
20
18.9166
0
VERTEX
8
CUT
10
53.7980
20
19.1435
0
VERTEX
8
CUT
10
53.7229
20
19.3644
0
VERTEX
8
CUT
10
53.6276
20
19.5773
0
VERTEX
8
CUT
10
53.5041
20
19.8219
0
VERTEX
8
CUT
10
53.3697
20
20.0559
0
VERTEX
8
CUT
10
53.2107
20
20.2740
0
VERTEX
8
CUT
10
53.0293
20
20.4738
0
VERTEX
8
CUT
10
52.8412
20
20.6595
0
VERTEX
8
CUT
10
52.6563
20
20.8248
0
VERTEX
8
CUT
10
52.4558
20
20.9711
0
VERTEX
8
CUT
10
52.2419
20
21.0967
0
VERTEX
8
CUT
10
52.0166
20
21.2005
0
VERTEX
8
CUT
10
51.9483
20
21.2279
0
VERTEX
8
CUT
10
51.7256
20
21.3054
0
VERTEX
8
CUT
10
51.4966
20
21.3616
0
VERTEX
8
CUT
10
51.2633
20
21.3960
0
VERTEX
8
CUT
10
51.0277
20
21.4082
0
VERTEX
8
CUT
10
50.7921
20
21.3981
0
VERTEX
8
CUT
10
50.5585
20
21.3660
0
VERTEX
8
CUT
10
50.3290
20
21.3119
0
VERTEX
8
CUT
10
50.1055
20
21.2364
0
VERTEX
8
CUT
10
49.8902
20
21.1403
0
VERTEX
8
CUT
10
49.5699
20
20.9787
0
VERTEX
8
CUT
10
49.3737
20
20.8684
0
VERTEX
8
CUT
10
49.1883
20
20.7409
0
VERTEX
8
CUT
10
49.0151
20
20.5973
0
VERTEX
8
CUT
10
48.8555
20
20.4387
0
VERTEX
8
CUT
10
48.7108
20
20.2664
0
VERTEX
8
CUT
10
48.5862
20
20.1036
0
VERTEX
8
CUT
10
48.4394
20
19.8897
0
VERTEX
8
CUT
10
48.3156
20
19.6619
0
VERTEX
8
CUT
10
48.2161
20
19.4224
0
VERTEX
8
CUT
10
48.1418
20
19.1739
0
VERTEX
8
CUT
10
48.1067
20
19.0293
0
VERTEX
8
CUT
10
48.0597
20
18.7821
0
VERTEX
8
CUT
10
48.0378
20
18.5315
0
VERTEX
8
CUT
10
48.0412
20
18.2799
0
VERTEX
8
CUT
10
48.0698
20
18.0300
0
VERTEX
8
CUT
10
48.1234
20
17.7842
0
VERTEX
8
CUT
10
48.2015
20
17.5450
0
VERTEX
8
CUT
10
48.2697
20
17.3670
0
VERTEX
8
CUT
10
48.3743
20
17.1311
0
VERTEX
8
CUT
10
48.5026
20
16.9073
0
VERTEX
8
CUT
10
48.6534
20
16.6979
0
SEQEND
0
ENDSEC
0
EOF
