0
SECTION
2
HEADER
9
$ACADVER
1
AC1009
9
$INSUNITS
70
4
0
ENDSEC
0
SECTION
2
TABLES
0
TABLE
2
LAYER
70
1
0
LAYER
2
CUT
70
0
62
7
6
CONTINUOUS
0
ENDTAB
0
ENDSEC
0
SECTION
2
ENTITIES
0
POLYLINE
8
CUT
66
1
70
1
10
0.0
20
0.0
30
0.0
0
VERTEX
8
CUT
10
299.9954
20
0.0614
0
VERTEX
8
CUT
10
299.9926
20
0.0029
0
VERTEX
8
CUT
10
299.9341
20
-0.0000
0
VERTEX
8
CUT
10
0.0614
20
-0.0000
0
VERTEX
8
CUT
10
0.0029
20
0.0029
0
VERTEX
8
CUT
10
0.0000
20
0.0614
0
VERTEX
8
CUT
10
0.0000
20
299.9386
0
VERTEX
8
CUT
10
0.0029
20
299.9971
0
VERTEX
8
CUT
10
0.0614
20
300.0000
0
VERTEX
8
CUT
10
299.9341
20
300.0000
0
VERTEX
8
CUT
10
299.9926
20
299.9971
0
VERTEX
8
CUT
10
299.9954
20
299.9386
0
SEQEND
0
POLYLINE
8
CUT
66
1
70
1
10
0.0
20
0.0
30
0.0
0
VERTEX
8
CUT
10
168.6626
20
159.3906
0
VERTEX
8
CUT
10
168.6961
20
159.1753
0
VERTEX
8
CUT
10
168.7482
20
158.9638
0
VERTEX
8
CUT
10
168.8186
20
158.7576
0
VERTEX
8
CUT
10
168.8819
20
158.5954
0
VERTEX
8
CUT
10
168.8890
20
158.5756
0
VERTEX
8
CUT
10
168.9005
20
158.5336
0
VERTEX
8
CUT
10
168.9074
20
158.4907
0
VERTEX
8
CUT
10
168.9090
20
158.4697
0
VERTEX
8
CUT
10
168.9377
20
157.9301
0
VERTEX
8
CUT
10
168.9577
20
157.7210
0
VERTEX
8
CUT
10
168.9952
20
157.5143
0
VERTEX
8
CUT
10
169.0498
20
157.3114
0
VERTEX
8
CUT
10
170.6597
20
152.2036
0
VERTEX
8
CUT
10
170.7266
20
152.0174
0
VERTEX
8
CUT
10
170.8080
20
151.8371
0
VERTEX
8
CUT
10
170.8412
20
151.7708
0
VERTEX
8
CUT
10
170.9636
20
151.5537
0
VERTEX
8
CUT
10
171.1070
20
151.3498
0
VERTEX
8
CUT
10
171.2700
20
151.1613
0
VERTEX
8
CUT
10
171.4510
20
150.9900
0
VERTEX
8
CUT
10
171.6481
20
150.8375
0
VERTEX
8
CUT
10
171.8594
20
150.7054
0
VERTEX
8
CUT
10
172.0829
20
150.5950
0
VERTEX
8
CUT
10
172.3162
20
150.5073
0
VERTEX
8
CUT
10
172.5571
20
150.4434
0
VERTEX
8
CUT
10
172.8031
20
150.4037
0
VERTEX
8
CUT
10
173.0519
20
150.3888
0
VERTEX
8
CUT
10
173.3009
20
150.3987
0
VERTEX
8
CUT
10
173.5477
20
150.4333
0
VERTEX
8
CUT
10
173.7898
20
150.4924
0
VERTEX
8
CUT
10
174.0249
20
150.5752
0
VERTEX
8
CUT
10
174.2505
20
150.6811
0
VERTEX
8
CUT
10
174.4645
20
150.8088
0
VERTEX
8
CUT
10
174.6647
20
150.9573
0
VERTEX
8
CUT
10
174.8491
20
151.1249
0
VERTEX
8
CUT
10
175.0159
20
151.3101
0
VERTEX
8
CUT
10
175.1634
20
151.5110
0
VERTEX
8
CUT
10
175.2902
20
151.7255
0
VERTEX
8
CUT
10
175.3950
20
151.9516
0
VERTEX
8
CUT
10
175.4768
20
152.1871
0
VERTEX
8
CUT
10
175.5348
20
152.4295
0
VERTEX
8
CUT
10
175.5683
20
152.6764
0
VERTEX
8
CUT
10
175.5770
20
152.9255
0
VERTEX
8
CUT
10
175.5494
20
154.7992
0
VERTEX
8
CUT
10
175.5496
20
154.8177
0
VERTEX
8
CUT
10
175.5526
20
154.8558
0
VERTEX
8
CUT
10
175.5591
20
154.8934
0
VERTEX
8
CUT
10
175.5635
20
154.9113
0
VERTEX
8
CUT
10
176.1892
20
157.2206
0
VERTEX
8
CUT
10
176.1908
20
157.2258
0
VERTEX
8
CUT
10
176.2079
20
157.2737
0
VERTEX
8
CUT
10
176.2187
20
157.2970
0
VERTEX
8
CUT
10
176.2301
20
157.3185
0
VERTEX
8
CUT
10
177.6918
20
159.9023
0
VERTEX
8
CUT
10
177.7005
20
159.9171
0
VERTEX
8
CUT
10
177.7207
20
159.9465
0
VERTEX
8
CUT
10
177.7434
20
159.9741
0
VERTEX
8
CUT
10
177.7549
20
159.9863
0
VERTEX
8
CUT
10
177.9544
20
160.1902
0
VERTEX
8
CUT
10
179.2639
20
161.5279
0
VERTEX
8
CUT
10
179.3260
20
161.5871
0
VERTEX
8
CUT
10
179.3920
20
161.6417
0
VERTEX
8
CUT
10
181.3293
20
163.1326
0
VERTEX
8
CUT
10
181.5306
20
163.3053
0
VERTEX
8
CUT
10
181.5753
20
163.3480
0
VERTEX
8
CUT
10
181.6221
20
163.3738
0
VERTEX
8
CUT
10
182.3755
20
163.7481
0
VERTEX
8
CUT
10
182.3948
20
163.7570
0
VERTEX
8
CUT
10
182.4378
20
163.7726
0
VERTEX
8
CUT
10
182.4823
20
163.7832
0
VERTEX
8
CUT
10
182.5033
20
163.7863
0
VERTEX
8
CUT
10
182.9326
20
163.8385
0
VERTEX
8
CUT
10
183.2181
20
163.8902
0
VERTEX
8
CUT
10
183.4956
20
163.9745
0
VERTEX
8
CUT
10
184.5453
20
164.3614
0
VERTEX
8
CUT
10
184.5644
20
164.3679
0
VERTEX
8
CUT
10
184.6066
20
164.3784
0
VERTEX
8
CUT
10
184.6496
20
164.3844
0
VERTEX
8
CUT
10
184.6698
20
164.3855
0
VERTEX
8
CUT
10
185.5805
20
164.4129
0
VERTEX
8
CUT
10
185.8189
20
164.4316
0
VERTEX
8
CUT
10
186.0545
20
164.4729
0
VERTEX
8
CUT
10
186.2851
20
164.5366
0
VERTEX
8
CUT
10
186.6063
20
164.6420
0
VERTEX
8
CUT
10
186.6249
20
164.6476
0
VERTEX
8
CUT
10
186.6656
20
164.6564
0
VERTEX
8
CUT
10
186.7071
20
164.6611
0
VERTEX
8
CUT
10
186.7264
20
164.6617
0
VERTEX
8
CUT
10
189.0604
20
164.6795
0
VERTEX
8
CUT
10
189.1347
20
164.6778
0
VERTEX
8
CUT
10
189.2088
20
164.6714
0
VERTEX
8
CUT
10
191.9276
20
164.3514
0
VERTEX
8
CUT
10
191.9468
20
164.3486
0
VERTEX
8
CUT
10
192.0286
20
164.3303
0
VERTEX
8
CUT
10
192.0471
20
164.3246
0
VERTEX
8
CUT
10
193.5908
20
163.8067
0
VERTEX
8
CUT
10
193.6095
20
163.7998
0
VERTEX
8
CUT
10
193.6876
20
163.7641
0
VERTEX
8
CUT
10
193.7050
20
163.7544
0
VERTEX
8
CUT
10
194.9106
20
163.0394
0
VERTEX
8
CUT
10
195.1327
20
162.9224
0
VERTEX
8
CUT
10
195.3653
20
162.8282
0
VERTEX
8
CUT
10
195.6062
20
162.7579
0
VERTEX
8
CUT
10
195.8530
20
162.7120
0
VERTEX
8
CUT
10
196.1212
20
162.6760
0
VERTEX
8
CUT
10
196.1401
20
162.6730
0
VERTEX
8
CUT
10
196.1801
20
162.6634
0
VERTEX
8
CUT
10
196.2173
20
162.6458
0
VERTEX
8
CUT
10
196.2339
20
162.6363
0
VERTEX
8
CUT
10
197.6101
20
161.8062
0
VERTEX
8
CUT
10
197.6269
20
161.7955
0
VERTEX
8
CUT
10
197.6609
20
161.7697
0
VERTEX
8
CUT
10
197.6886
20
161.7373
0
VERTEX
8
CUT
10
197.7003
20
161.7213
0
VERTEX
8
CUT
10
198.4289
20
160.6636
0
VERTEX
8
CUT
10
198.5761
20
160.4707
0
VERTEX
8
CUT
10
198.7413
20
160.2929
0
VERTEX
8
CUT
10
198.9230
20
160.1320
0
VERTEX
8
CUT
10
199.1195
20
159.9895
0
VERTEX
8
CUT
10
199.3288
20
159.8667
0
VERTEX
8
CUT
10
200.3011
20
159.3580
0
VERTEX
8
CUT
10
200.3056
20
159.3555
0
VERTEX
8
CUT
10
200.3476
20
159.3292
0
VERTEX
8
CUT
10
200.3680
20
159.3137
0
VERTEX
8
CUT
10
200.3855
20
159.2987
0
VERTEX
8
CUT
10
200.8081
20
158.9192
0
VERTEX
8
CUT
10
200.8233
20
158.9048
0
VERTEX
8
CUT
10
200.8835
20
158.8372
0
VERTEX
8
CUT
10
200.8961
20
158.8205
0
VERTEX
8
CUT
10
201.6955
20
157.6912
0
VERTEX
8
CUT
10
201.8514
20
157.4930
0
VERTEX
8
CUT
10
202.0265
20
157.3116
0
VERTEX
8
CUT
10
202.2189
20
157.1486
0
VERTEX
8
CUT
10
202.4268
20
157.0059
0
VERTEX
8
CUT
10
202.6480
20
156.8849
0
VERTEX
8
CUT
10
202.8803
20
156.7867
0
VERTEX
8
CUT
10
203.1213
20
156.7125
0
VERTEX
8
CUT
10
203.3685
20
156.6629
0
VERTEX
8
CUT
10
203.6195
20
156.6385
0
VERTEX
8
CUT
10
203.8717
20
156.6394
0
VERTEX
8
CUT
10
204.1225
20
156.6658
0
VERTEX
8
CUT
10
204.2545
20
156.6865
0
VERTEX
8
CUT
10
204.3644
20
156.6929
0
VERTEX
8
CUT
10
204.4745
20
156.6886
0
VERTEX
8
CUT
10
204.5835
20
156.6736
0
VERTEX
8
CUT
10
204.6907
20
156.6482
0
VERTEX
8
CUT
10
204.7948
20
156.6125
0
VERTEX
8
CUT
10
204.8950
20
156.5669
0
VERTEX
8
CUT
10
204.9903
20
156.5118
0
VERTEX
8
CUT
10
205.0799
20
156.4477
0
VERTEX
8
CUT
10
205.1627
20
156.3752
0
VERTEX
8
CUT
10
205.2382
20
156.2950
0
VERTEX
8
CUT
10
205.3090
20
156.2035
0
VERTEX
8
CUT
10
205.3200
20
156.1878
0
VERTEX
8
CUT
10
205.3535
20
156.1372
0
VERTEX
8
CUT
10
207.0946
20
153.3668
0
VERTEX
8
CUT
10
207.2307
20
153.1715
0
VERTEX
8
CUT
10
207.3849
20
152.9900
0
VERTEX
8
CUT
10
207.5096
20
152.8565
0
VERTEX
8
CUT
10
207.5521
20
152.8059
0
VERTEX
8
CUT
10
207.5697
20
152.7422
0
VERTEX
8
CUT
10
208.0811
20
150.4141
0
VERTEX
8
CUT
10
208.0851
20
150.3935
0
VERTEX
8
CUT
10
208.0947
20
150.3075
0
VERTEX
8
CUT
10
208.0953
20
150.2865
0
VERTEX
8
CUT
10
208.0978
20
149.8390
0
VERTEX
8
CUT
10
208.1154
20
146.7141
0
VERTEX
8
CUT
10
208.1150
20
146.6955
0
VERTEX
8
CUT
10
208.1083
20
146.6188
0
VERTEX
8
CUT
10
208.1054
20
146.6004
0
VERTEX
8
CUT
10
207.7919
20
144.8926
0
VERTEX
8
CUT
10
207.7880
20
144.8739
0
VERTEX
8
CUT
10
207.7772
20
144.8360
0
VERTEX
8
CUT
10
207.7628
20
144.7993
0
VERTEX
8
CUT
10
207.7546
20
144.7821
0
VERTEX
8
CUT
10
206.8779
20
143.0574
0
VERTEX
8
CUT
10
206.8675
20
143.0384
0
VERTEX
8
CUT
10
206.8431
20
143.0011
0
VERTEX
8
CUT
10
206.8147
20
142.9666
0
VERTEX
8
CUT
10
206.7997
20
142.9511
0
VERTEX
8
CUT
10
205.5173
20
141.7003
0
VERTEX
8
CUT
10
205.5014
20
141.6857
0
VERTEX
8
CUT
10
205.4665
20
141.6584
0
VERTEX
8
CUT
10
205.4264
20
141.6392
0
VERTEX
8
CUT
10
205.4063
20
141.6316
0
VERTEX
8
CUT
10
204.6700
20
141.3742
0
VERTEX
8
CUT
10
204.4474
20
141.2842
0
VERTEX
8
CUT
10
204.2344
20
141.1732
0
VERTEX
8
CUT
10
204.0331
20
141.0423
0
VERTEX
8
CUT
10
202.9627
20
140.2708
0
VERTEX
8
CUT
10
202.9470
20
140.2601
0
VERTEX
8
CUT
10
202.9131
20
140.2402
0
VERTEX
8
CUT
10
202.8774
20
140.2238
0
VERTEX
8
CUT
10
202.8596
20
140.2170
0
VERTEX
8
CUT
10
202.0045
20
139.9177
0
VERTEX
8
CUT
10
201.9880
20
139.9123
0
VERTEX
8
CUT
10
201.9531
20
139.9035
0
VERTEX
8
CUT
10
201.9174
20
139.8977
0
VERTEX
8
CUT
10
201.9006
20
139.8960
0
VERTEX
8
CUT
10
201.3018
20
139.8515
0
VERTEX
8
CUT
10
201.0432
20
139.8187
0
VERTEX
8
CUT
10
200.7895
20
139.7591
0
VERTEX
8
CUT
10
200.5433
20
139.6734
0
VERTEX
8
CUT
10
200.2515
20
139.5545
0
VERTEX
8
CUT
10
200.2340
20
139.5478
0
VERTEX
8
CUT
10
200.1974
20
139.5369
0
VERTEX
8
CUT
10
200.1619
20
139.5510
0
VERTEX
8
CUT
10
200.1451
20
139.5591
0
VERTEX
8
CUT
10
199.5037
20
139.8885
0
VERTEX
8
CUT
10
199.4845
20
139.8991
0
VERTEX
8
CUT
10
199.4467
20
139.9241
0
VERTEX
8
CUT
10
199.4119
20
139.9532
0
VERTEX
8
CUT
10
199.3963
20
139.9686
0
VERTEX
8
CUT
10
198.8647
20
140.5237
0
VERTEX
8
CUT
10
198.8509
20
140.5388
0
VERTEX
8
CUT
10
198.8251
20
140.5722
0
VERTEX
8
CUT
10
198.8066
20
140.6101
0
VERTEX
8
CUT
10
198.7991
20
140.6292
0
VERTEX
8
CUT
10
198.6841
20
140.9448
0
VERTEX
8
CUT
10
198.6782
20
140.9623
0
VERTEX
8
CUT
10
198.6687
20
140.9987
0
VERTEX
8
CUT
10
198.6801
20
141.0346
0
VERTEX
8
CUT
10
198.6869
20
141.0517
0
VERTEX
8
CUT
10
199.3245
20
142.5563
0
VERTEX
8
CUT
10
199.4198
20
142.8222
0
VERTEX
8
CUT
10
199.4846
20
143.0972
0
VERTEX
8
CUT
10
199.5179
20
143.3778
0
VERTEX
8
CUT
10
199.5468
20
143.8465
0
VERTEX
8
CUT
10
199.5488
20
143.8690
0
VERTEX
8
CUT
10
199.5570
20
143.9148
0
VERTEX
8
CUT
10
199.5703
20
143.9595
0
VERTEX
8
CUT
10
199.5786
20
143.9805
0
VERTEX
8
CUT
10
199.5848
20
143.9950
0
VERTEX
8
CUT
10
199.6695
20
144.2234
0
VERTEX
8
CUT
10
199.7315
20
144.4590
0
VERTEX
8
CUT
10
199.7704
20
144.6994
0
VERTEX
8
CUT
10
199.7857
20
144.9425
0
VERTEX
8
CUT
10
199.8368
20
148.6057
0
VERTEX
8
CUT
10
199.8376
20
148.6252
0
VERTEX
8
CUT
10
199.8466
20
148.7053
0
VERTEX
8
CUT
10
199.8502
20
148.7244
0
VERTEX
8
CUT
10
199.9608
20
149.2441
0
VERTEX
8
CUT
10
200.0020
20
149.5041
0
VERTEX
8
CUT
10
200.0157
20
149.7669
0
VERTEX
8
CUT
10
200.0016
20
150.0297
0
VERTEX
8
CUT
10
199.9600
20
150.2895
0
VERTEX
8
CUT
10
199.8913
20
150.5436
0
VERTEX
8
CUT
10
198.9716
20
153.3496
0
VERTEX
8
CUT
10
198.8982
20
153.5454
0
VERTEX
8
CUT
10
198.8087
20
153.7344
0
VERTEX
8
CUT
10
198.4453
20
154.4254
0
VERTEX
8
CUT
10
198.4378
20
154.4405
0
VERTEX
8
CUT
10
198.4242
20
154.4727
0
VERTEX
8
CUT
10
198.4134
20
154.5061
0
VERTEX
8
CUT
10
198.4093
20
154.5220
0
VERTEX
8
CUT
10
198.1994
20
155.4219
0
VERTEX
8
CUT
10
198.1305
20
155.6622
0
VERTEX
8
CUT
10
198.0379
20
155.8945
0
VERTEX
8
CUT
10
197.9226
20
156.1163
0
VERTEX
8
CUT
10
197.7857
20
156.3255
0
VERTEX
8
CUT
10
197.6286
20
156.5200
0
VERTEX
8
CUT
10
197.4529
20
156.6979
0
VERTEX
8
CUT
10
194.5409
20
159.3637
0
VERTEX
8
CUT
10
194.3367
20
159.5317
0
VERTEX
8
CUT
10
194.1159
20
159.6772
0
VERTEX
8
CUT
10
193.8810
20
159.7985
0
VERTEX
8
CUT
10
193.6346
20
159.8944
0
VERTEX
8
CUT
10
192.7944
20
160.1710
0
VERTEX
8
CUT
10
192.5408
20
160.2400
0
VERTEX
8
CUT
10
192.2815
20
160.2819
0
VERTEX
8
CUT
10
192.0191
20
160.2964
0
VERTEX
8
CUT
10
191.0556
20
160.2990
0
VERTEX
8
CUT
10
190.8029
20
160.2868
0
VERTEX
8
CUT
10
190.5528
20
160.2492
0
VERTEX
8
CUT
10
190.3078
20
160.1865
0
VERTEX
8
CUT
10
190.0703
20
160.0994
0
VERTEX
8
CUT
10
189.8428
20
159.9887
0
VERTEX
8
CUT
10
188.0174
20
158.9833
0
VERTEX
8
CUT
10
187.8206
20
158.8627
0
VERTEX
8
CUT
10
187.6358
20
158.7246
0
VERTEX
8
CUT
10
187.4645
20
158.5700
0
VERTEX
8
CUT
10
185.8975
20
157.0184
0
VERTEX
8
CUT
10
185.7464
20
156.8549
0
VERTEX
8
CUT
10
185.6104
20
156.6785
0
VERTEX
8
CUT
10
185.1545
20
156.0291
0
VERTEX
8
CUT
10
184.9659
20
155.7134
0
VERTEX
8
CUT
10
183.9844
20
153.7565
0
VERTEX
8
CUT
10
183.8487
20
153.4301
0
VERTEX
8
CUT
10
183.4643
20
152.2832
0
VERTEX
8
CUT
10
183.3969
20
152.0427
0
VERTEX
8
CUT
10
183.3538
20
151.7966
0
VERTEX
8
CUT
10
183.3354
20
151.5475
0
VERTEX
8
CUT
10
183.3420
20
151.2978
0
VERTEX
8
CUT
10
183.3735
20
151.0500
0
VERTEX
8
CUT
10
183.4296
20
150.8066
0
VERTEX
8
CUT
10
183.5097
20
150.5700
0
VERTEX
8
CUT
10
183.6130
20
150.3426
0
VERTEX
8
CUT
10
183.7384
20
150.1266
0
VERTEX
8
CUT
10
183.8848
20
149.9242
0
VERTEX
8
CUT
10
184.0507
20
149.7374
0
VERTEX
8
CUT
10
184.2344
20
149.5681
0
VERTEX
8
CUT
10
184.4340
20
149.4180
0
VERTEX
8
CUT
10
184.6477
20
149.2886
0
VERTEX
8
CUT
10
184.8731
20
149.1811
0
VERTEX
8
CUT
10
185.1082
20
149.0967
0
VERTEX
8
CUT
10
185.3506
20
149.0361
0
VERTEX
8
CUT
10
185.5977
20
149.0000
0
VERTEX
8
CUT
10
185.8473
20
148.9888
0
VERTEX
8
CUT
10
186.6645
20
148.9929
0
VERTEX
8
CUT
10
186.6829
20
148.9926
0
VERTEX
8
CUT
10
186.7206
20
148.9892
0
VERTEX
8
CUT
10
186.7559
20
148.9756
0
VERTEX
8
CUT
10
186.7725
20
148.9679
0
VERTEX
8
CUT
10
187.9173
20
148.4005
0
VERTEX
8
CUT
10
187.9325
20
148.3925
0
VERTEX
8
CUT
10
187.9629
20
148.3741
0
VERTEX
8
CUT
10
187.9916
20
148.3530
0
VERTEX
8
CUT
10
188.0044
20
148.3422
0
VERTEX
8
CUT
10
188.5563
20
147.8588
0
VERTEX
8
CUT
10
188.5602
20
147.8553
0
VERTEX
8
CUT
10
188.6139
20
147.8008
0
VERTEX
8
CUT
10
188.6258
20
147.7872
0
VERTEX
8
CUT
10
189.0269
20
147.3068
0
VERTEX
8
CUT
10
189.0375
20
147.2935
0
VERTEX
8
CUT
10
189.0578
20
147.2644
0
VERTEX
8
CUT
10
189.0756
20
147.2336
0
VERTEX
8
CUT
10
189.0830
20
147.2187
0
VERTEX
8
CUT
10
189.6522
20
146.0012
0
VERTEX
8
CUT
10
189.6597
20
145.9842
0
VERTEX
8
CUT
10
189.6725
20
145.9482
0
VERTEX
8
CUT
10
189.6749
20
145.9100
0
VERTEX
8
CUT
10
189.6747
20
145.8914
0
VERTEX
8
CUT
10
189.6312
20
144.5741
0
VERTEX
8
CUT
10
189.6298
20
144.5524
0
VERTEX
8
CUT
10
189.6234
20
144.5080
0
VERTEX
8
CUT
10
189.6075
20
144.4661
0
VERTEX
8
CUT
10
189.5981
20
144.4465
0
VERTEX
8
CUT
10
189.0303
20
143.3395
0
VERTEX
8
CUT
10
189.0212
20
143.3228
0
VERTEX
8
CUT
10
188.9999
20
143.2896
0
VERTEX
8
CUT
10
188.9756
20
143.2586
0
VERTEX
8
CUT
10
188.9627
20
143.2445
0
VERTEX
8
CUT
10
188.2431
20
142.4912
0
VERTEX
8
CUT
10
188.2278
20
142.4761
0
VERTEX
8
CUT
10
188.1938
20
142.4475
0
VERTEX
8
CUT
10
188.1570
20
142.4228
0
VERTEX
8
CUT
10
188.1382
20
142.4123
0
VERTEX
8
CUT
10
187.2661
20
141.9554
0
VERTEX
8
CUT
10
187.2486
20
141.9467
0
VERTEX
8
CUT
10
187.2113
20
141.9317
0
VERTEX
8
CUT
10
187.1712
20
141.9282
0
VERTEX
8
CUT
10
187.1517
20
141.9280
0
VERTEX
8
CUT
10
184.9751
20
141.9557
0
VERTEX
8
CUT
10
184.9554
20
141.9565
0
VERTEX
8
CUT
10
184.9150
20
141.9610
0
VERTEX
8
CUT
10
184.8778
20
141.9773
0
VERTEX
8
CUT
10
184.8604
20
141.9866
0
VERTEX
8
CUT
10
184.2270
20
142.3433
0
VERTEX
8
CUT
10
184.0063
20
142.4537
0
VERTEX
8
CUT
10
183.9177
20
142.4875
0
VERTEX
8
CUT
10
183.8317
20
142.6198
0
VERTEX
8
CUT
10
183.6758
20
142.8139
0
VERTEX
8
CUT
10
183.5014
20
142.9916
0
VERTEX
8
CUT
10
182.3812
20
144.0244
0
VERTEX
8
CUT
10
182.1990
20
144.1770
0
VERTEX
8
CUT
10
182.0032
20
144.3116
0
VERTEX
8
CUT
10
181.6982
20
144.5005
0
VERTEX
8
CUT
10
181.4860
20
144.6182
0
VERTEX
8
CUT
10
181.2634
20
144.7147
0
VERTEX
8
CUT
10
181.0324
20
144.7891
0
VERTEX
8
CUT
10
180.7954
20
144.8408
0
VERTEX
8
CUT
10
180.5544
20
144.8693
0
VERTEX
8
CUT
10
180.3118
20
144.8743
0
VERTEX
8
CUT
10
180.0699
20
144.8558
0
VERTEX
8
CUT
10
179.8309
20
144.8139
0
VERTEX
8
CUT
10
179.5971
20
144.7490
0
VERTEX
8
CUT
10
179.3706
20
144.6618
0
VERTEX
8
CUT
10
179.1537
20
144.5530
0
VERTEX
8
CUT
10
178.9484
20
144.4237
0
VERTEX
8
CUT
10
178.7566
20
144.2751
0
VERTEX
8
CUT
10
178.5801
20
144.1087
0
VERTEX
8
CUT
10
178.4205
20
143.9258
0
VERTEX
8
CUT
10
178.2794
20
143.7284
0
VERTEX
8
CUT
10
178.1582
20
143.5183
0
VERTEX
8
CUT
10
178.0578
20
143.2973
0
VERTEX
8
CUT
10
177.9794
20
143.0677
0
VERTEX
8
CUT
10
177.9236
20
142.8316
0
VERTEX
8
CUT
10
177.8909
20
142.5911
0
VERTEX
8
CUT
10
177.8818
20
142.3487
0
VERTEX
8
CUT
10
177.8961
20
142.1065
0
VERTEX
8
CUT
10
177.9339
20
141.8668
0
VERTEX
8
CUT
10
177.9947
20
141.6319
0
VERTEX
8
CUT
10
178.0780
20
141.4040
0
VERTEX
8
CUT
10
178.1830
20
141.1852
0
VERTEX
8
CUT
10
178.3088
20
140.9777
0
VERTEX
8
CUT
10
178.4540
20
140.7833
0
VERTEX
8
CUT
10
178.6174
20
140.6040
0
VERTEX
8
CUT
10
178.8639
20
140.3585
0
VERTEX
8
CUT
10
179.0333
20
140.2046
0
VERTEX
8
CUT
10
180.2120
20
139.2283
0
VERTEX
8
CUT
10
180.4114
20
139.0792
0
VERTEX
8
CUT
10
180.6247
20
138.9507
0
VERTEX
8
CUT
10
180.8496
20
138.8441
0
VERTEX
8
CUT
10
180.8886
20
138.8301
0
VERTEX
8
CUT
10
180.9128
20
138.7893
0
VERTEX
8
CUT
10
181.0586
20
138.5902
0
VERTEX
8
CUT
10
181.2233
20
138.4064
0
VERTEX
8
CUT
10
181.4054
20
138.2398
0
VERTEX
8
CUT
10
182.2392
20
137.5492
0
VERTEX
8
CUT
10
182.3966
20
137.4290
0
VERTEX
8
CUT
10
182.5631
20
137.3216
0
VERTEX
8
CUT
10
185.8275
20
135.3946
0
VERTEX
8
CUT
10
186.0977
20
135.2565
0
VERTEX
8
CUT
10
190.2803
20
133.4298
0
VERTEX
8
CUT
10
190.5247
20
133.3379
0
VERTEX
8
CUT
10
190.7774
20
133.2721
0
VERTEX
8
CUT
10
191.0356
20
133.2329
0
VERTEX
8
CUT
10
191.3436
20
133.2025
0
VERTEX
8
CUT
10
191.3604
20
133.2005
0
VERTEX
8
CUT
10
191.3948
20
133.1941
0
VERTEX
8
CUT
10
191.4288
20
133.1848
0
VERTEX
8
CUT
10
191.4443
20
133.1794
0
VERTEX
8
CUT
10
193.2142
20
132.5255
0
VERTEX
8
CUT
10
193.4464
20
132.4523
0
VERTEX
8
CUT
10
193.6846
20
132.4021
0
VERTEX
8
CUT
10
193.9267
20
132.3752
0
VERTEX
8
CUT
10
194.4653
20
132.3420
0
VERTEX
8
CUT
10
194.4847
20
132.3403
0
VERTEX
8
CUT
10
194.5643
20
132.3275
0
VERTEX
8
CUT
10
194.5832
20
132.3230
0
VERTEX
8
CUT
10
196.2483
20
131.8843
0
VERTEX
8
CUT
10
196.5370
20
131.8262
0
VERTEX
8
CUT
10
196.8306
20
131.8025
0
VERTEX
8
CUT
10
198.7432
20
131.7606
0
VERTEX
8
CUT
10
198.7602
20
131.7599
0
VERTEX
8
CUT
10
198.7955
20
131.7561
0
VERTEX
8
CUT
10
198.8305
20
131.7492
0
VERTEX
8
CUT
10
198.8466
20
131.7449
0
VERTEX
8
CUT
10
199.3375
20
131.6033
0
VERTEX
8
CUT
10
199.5583
20
131.5504
0
VERTEX
8
CUT
10
199.7830
20
131.5177
0
VERTEX
8
CUT
10
200.0098
20
131.5055
0
VERTEX
8
CUT
10
202.1195
20
131.4882
0
VERTEX
8
CUT
10
202.1682
20
131.4883
0
VERTEX
8
CUT
10
203.8674
20
131.5076
0
VERTEX
8
CUT
10
204.1198
20
131.5232
0
VERTEX
8
CUT
10
204.3693
20
131.5643
0
VERTEX
8
CUT
10
204.6135
20
131.6304
0
VERTEX
8
CUT
10
204.9443
20
131.7382
0
VERTEX
8
CUT
10
204.9623
20
131.7436
0
VERTEX
8
CUT
10
205.0002
20
131.7521
0
VERTEX
8
CUT
10
205.0387
20
131.7569
0
VERTEX
8
CUT
10
205.0574
20
131.7579
0
VERTEX
8
CUT
10
206.4974
20
131.8026
0
VERTEX
8
CUT
10
206.7628
20
131.8251
0
VERTEX
8
CUT
10
207.0244
20
131.8756
0
VERTEX
8
CUT
10
211.2419
20
132.9267
0
VERTEX
8
CUT
10
211.4799
20
132.9988
0
VERTEX
8
CUT
10
211.7096
20
133.0941
0
VERTEX
8
CUT
10
216.8319
20
135.5261
0
VERTEX
8
CUT
10
217.0001
20
135.6139
0
VERTEX
8
CUT
10
217.1611
20
135.7143
0
VERTEX
8
CUT
10
218.6274
20
136.7069
0
VERTEX
8
CUT
10
218.7864
20
136.8240
0
VERTEX
8
CUT
10
218.9357
20
136.9533
0
VERTEX
8
CUT
10
221.2786
20
139.1497
0
VERTEX
8
CUT
10
221.2910
20
139.1609
0
VERTEX
8
CUT
10
221.3449
20
139.2036
0
VERTEX
8
CUT
10
221.3586
20
139.2131
0
VERTEX
8
CUT
10
223.2985
20
140.5009
0
VERTEX
8
CUT
10
223.4557
20
140.6143
0
VERTEX
8
CUT
10
223.6037
20
140.7396
0
VERTEX
8
CUT
10
225.4772
20
142.4545
0
VERTEX
8
CUT
10
225.4913
20
142.4668
0
VERTEX
8
CUT
10
225.5221
20
142.4900
0
VERTEX
8
CUT
10
225.5574
20
142.5074
0
VERTEX
8
CUT
10
225.7679
20
142.6048
0
VERTEX
8
CUT
10
225.9694
20
142.7219
0
VERTEX
8
CUT
10
226.1591
20
142.8573
0
VERTEX
8
CUT
10
226.3354
20
143.0098
0
VERTEX
8
CUT
10
226.4968
20
143.1780
0
VERTEX
8
CUT
10
226.6417
20
143.3606
0
VERTEX
8
CUT
10
226.7690
20
143.5558
0
VERTEX
8
CUT
10
226.8776
20
143.7620
0
VERTEX
8
CUT
10
226.9665
20
143.9775
0
VERTEX
8
CUT
10
227.0335
20
144.1953
0
VERTEX
8
CUT
10
227.0478
20
144.2348
0
VERTEX
8
CUT
10
227.0555
20
144.2521
0
VERTEX
8
CUT
10
227.2020
20
144.5596
0
VERTEX
8
CUT
10
227.2964
20
144.7858
0
VERTEX
8
CUT
10
227.3682
20
145.0201
0
VERTEX
8
CUT
10
227.4168
20
145.2604
0
VERTEX
8
CUT
10
227.4415
20
145.5043
0
VERTEX
8
CUT
10
227.4423
20
145.7494
0
VERTEX
8
CUT
10
227.4191
20
145.9934
0
VERTEX
8
CUT
10
227.3720
20
146.2340
0
VERTEX
8
CUT
10
227.3017
20
146.4688
0
VERTEX
8
CUT
10
227.2087
20
146.6956
0
VERTEX
8
CUT
10
227.0939
20
146.9122
0
VERTEX
8
CUT
10
226.9584
20
147.1165
0
VERTEX
8
CUT
10
226.8036
20
147.3065
0
VERTEX
8
CUT
10
226.6310
20
147.4805
0
VERTEX
8
CUT
10
226.4421
20
147.6368
0
VERTEX
8
CUT
10
226.2388
20
147.7737
0
VERTEX
8
CUT
10
226.0231
20
147.8902
0
VERTEX
8
CUT
10
225.7971
20
147.9849
0
VERTEX
8
CUT
10
225.5628
20
148.0571
0
VERTEX
8
CUT
10
225.3226
20
148.1059
0
VERTEX
8
CUT
10
225.0788
20
148.1310
0
VERTEX
8
CUT
10
224.8337
20
148.1322
0
VERTEX
8
CUT
10
224.5896
20
148.1093
0
VERTEX
8
CUT
10
224.3490
20
148.0626
0
VERTEX
8
CUT
10
223.3408
20
147.8151
0
VERTEX
8
CUT
10
223.3180
20
147.8102
0
VERTEX
8
CUT
10
223.2224
20
147.7983
0
VERTEX
8
CUT
10
223.1992
20
147.7975
0
VERTEX
8
CUT
10
219.6584
20
147.7753
0
VERTEX
8
CUT
10
219.6155
20
147.7771
0
VERTEX
8
CUT
10
219.6567
20
147.7894
0
VERTEX
8
CUT
10
220.3651
20
147.9633
0
VERTEX
8
CUT
10
220.6932
20
148.0683
0
VERTEX
8
CUT
10
223.2302
20
149.0776
0
VERTEX
8
CUT
10
223.4492
20
149.1771
0
VERTEX
8
CUT
10
223.7843
20
149.3495
0
VERTEX
8
CUT
10
223.8404
20
149.3766
0
VERTEX
8
CUT
10
223.8584
20
149.3847
0
VERTEX
8
CUT
10
223.9688
20
149.4282
0
VERTEX
8
CUT
10
224.0776
20
149.4590
0
VERTEX
8
CUT
10
224.1888
20
149.4788
0
VERTEX
8
CUT
10
224.3015
20
149.4874
0
VERTEX
8
CUT
10
224.4145
20
149.4847
0
VERTEX
8
CUT
10
224.5266
20
149.4709
0
VERTEX
8
CUT
10
224.5470
20
149.4663
0
VERTEX
8
CUT
10
224.7806
20
149.4249
0
VERTEX
8
CUT
10
225.0171
20
149.4059
0
VERTEX
8
CUT
10
225.2543
20
149.4094
0
VERTEX
8
CUT
10
225.4902
20
149.4354
0
VERTEX
8
CUT
10
225.7225
20
149.4835
0
VERTEX
8
CUT
10
225.9491
20
149.5535
0
VERTEX
8
CUT
10
226.1682
20
149.6447
0
VERTEX
8
CUT
10
226.3776
20
149.7562
0
VERTEX
8
CUT
10
226.5755
20
149.8871
0
VERTEX
8
CUT
10
226.7600
20
150.0362
0
VERTEX
8
CUT
10
226.9297
20
150.2020
0
VERTEX
8
CUT
10
227.0828
20
150.3832
0
VERTEX
8
CUT
10
227.2181
20
150.5781
0
VERTEX
8
CUT
10
230.3043
20
155.5086
0
VERTEX
8
CUT
10
230.4053
20
155.6857
0
VERTEX
8
CUT
10
233.7546
20
162.1554
0
VERTEX
8
CUT
10
233.7628
20
162.1704
0
VERTEX
8
CUT
10
233.8023
20
162.2323
0
VERTEX
8
CUT
10
233.8125
20
162.2461
0
VERTEX
8
CUT
10
233.9729
20
162.4534
0
VERTEX
8
CUT
10
234.1258
20
162.6745
0
VERTEX
8
CUT
10
234.2541
20
162.9108
0
VERTEX
8
CUT
10
234.3562
20
163.1595
0
VERTEX
8
CUT
10
234.5915
20
163.8333
0
VERTEX
8
CUT
10
234.5984
20
163.8515
0
VERTEX
8
CUT
10
234.6340
20
163.9273
0
VERTEX
8
CUT
10
234.6436
20
163.9441
0
VERTEX
8
CUT
10
235.5685
20
165.4793
0
VERTEX
8
CUT
10
235.6673
20
165.6598
0
VERTEX
8
CUT
10
237.9186
20
170.2045
0
VERTEX
8
CUT
10
237.9351
20
170.2364
0
VERTEX
8
CUT
10
237.9525
20
170.2679
0
VERTEX
8
CUT
10
242.3995
20
178.0318
0
VERTEX
8
CUT
10
242.5073
20
178.2426
0
VERTEX
8
CUT
10
242.5947
20
178.4626
0
VERTEX
8
CUT
10
242.6609
20
178.6899
0
VERTEX
8
CUT
10
242.7052
20
178.9224
0
VERTEX
8
CUT
10
242.7274
20
179.1581
0
VERTEX
8
CUT
10
242.7272
20
179.3948
0
VERTEX
8
CUT
10
242.7047
20
179.6305
0
VERTEX
8
CUT
10
242.6599
20
179.8629
0
VERTEX
8
CUT
10
242.5933
20
180.0901
0
VERTEX
8
CUT
10
240.9807
20
184.7619
0
VERTEX
8
CUT
10
240.9750
20
184.7798
0
VERTEX
8
CUT
10
240.9563
20
184.8590
0
VERTEX
8
CUT
10
240.9534
20
184.8777
0
VERTEX
8
CUT
10
240.6522
20
187.1471
0
VERTEX
8
CUT
10
240.6158
20
187.3541
0
VERTEX
8
CUT
10
240.5622
20
187.5573
0
VERTEX
8
CUT
10
240.4917
20
187.7552
0
VERTEX
8
CUT
10
240.4088
20
187.9603
0
VERTEX
8
CUT
10
240.4025
20
187.9770
0
VERTEX
8
CUT
10
240.3916
20
188.0135
0
VERTEX
8
CUT
10
240.3878
20
188.0515
0
VERTEX
8
CUT
10
240.3873
20
188.0692
0
VERTEX
8
CUT
10
240.3709
20
191.0938
0
VERTEX
8
CUT
10
240.3712
20
191.1126
0
VERTEX
8
CUT
10
240.3750
20
191.1527
0
VERTEX
8
CUT
10
240.3828
20
191.1922
0
VERTEX
8
CUT
10
240.3878
20
191.2102
0
VERTEX
8
CUT
10
240.5198
20
191.6471
0
VERTEX
8
CUT
10
240.5733
20
191.8561
0
VERTEX
8
CUT
10
240.6086
20
192.0690
0
VERTEX
8
CUT
10
240.6253
20
192.2841
0
VERTEX
8
CUT
10
240.6605
20
193.2985
0
VERTEX
8
CUT
10
240.6608
20
193.3039
0
VERTEX
8
CUT
10
240.6668
20
193.3555
0
VERTEX
8
CUT
10
240.6724
20
193.3817
0
VERTEX
8
CUT
10
240.6789
20
193.4049
0
VERTEX
8
CUT
10
241.7821
20
197.0188
0
VERTEX
8
CUT
10
241.8015
20
197.0771
0
VERTEX
8
CUT
10
241.8240
20
197.1343
0
VERTEX
8
CUT
10
242.6001
20
198.9730
0
VERTEX
8
CUT
10
242.6241
20
199.0263
0
VERTEX
8
CUT
10
242.6508
20
199.0783
0
VERTEX
8
CUT
10
244.5701
20
202.6126
0
VERTEX
8
CUT
10
244.5725
20
202.6168
0
VERTEX
8
CUT
10
244.6117
20
202.6782
0
VERTEX
8
CUT
10
244.6215
20
202.6916
0
VERTEX
8
CUT
10
246.3676
20
204.9955
0
VERTEX
8
CUT
10
246.4059
20
205.0433
0
VERTEX
8
CUT
10
246.4465
20
205.0891
0
VERTEX
8
CUT
10
250.7266
20
209.6719
0
VERTEX
8
CUT
10
250.7764
20
209.7221
0
VERTEX
8
CUT
10
250.8290
20
209.7692
0
VERTEX
8
CUT
10
256.2266
20
214.3244
0
VERTEX
8
CUT
10
256.2674
20
214.3573
0
VERTEX
8
CUT
10
256.3096
20
214.3884
0
VERTEX
8
CUT
10
261.8641
20
218.2955
0
VERTEX
8
CUT
10
261.9043
20
218.3225
0
VERTEX
8
CUT
10
261.9456
20
218.3479
0
VERTEX
8
CUT
10
266.6432
20
221.1115
0
VERTEX
8
CUT
10
266.6785
20
221.1314
0
VERTEX
8
CUT
10
266.7144
20
221.1502
0
VERTEX
8
CUT
10
271.0248
20
223.3061
0
VERTEX
8
CUT
10
271.0698
20
223.3274
0
VERTEX
8
CUT
10
271.1157
20
223.3468
0
VERTEX
8
CUT
10
278.0358
20
226.1129
0
VERTEX
8
CUT
10
278.0525
20
226.1192
0
VERTEX
8
CUT
10
278.0893
20
226.1300
0
VERTEX
8
CUT
10
278.1270
20
226.1372
0
VERTEX
8
CUT
10
278.1448
20
226.1394
0
VERTEX
8
CUT
10
278.4793
20
226.1714
0
VERTEX
8
CUT
10
278.6850
20
226.1998
0
VERTEX
8
CUT
10
278.8876
20
226.2451
0
VERTEX
8
CUT
10
279.0858
20
226.3071
0
VERTEX
8
CUT
10
281.6330
20
227.2217
0
VERTEX
8
CUT
10
281.6900
20
227.2406
0
VERTEX
8
CUT
10
281.7478
20
227.2565
0
VERTEX
8
CUT
10
285.0186
20
228.0709
0
VERTEX
8
CUT
10
285.0368
20
228.0749
0
VERTEX
8
CUT
10
285.1164
20
228.0866
0
VERTEX
8
CUT
10
285.1350
20
228.0879
0
VERTEX
8
CUT
10
285.9870
20
228.1271
0
VERTEX
8
CUT
10
286.2460
20
228.1525
0
VERTEX
8
CUT
10
286.5009
20
228.2047
0
VERTEX
8
CUT
10
287.9763
20
228.5881
0
VERTEX
8
CUT
10
288.2164
20
228.6636
0
VERTEX
8
CUT
10
288.4477
20
228.7628
0
VERTEX
8
CUT
10
288.6679
20
228.8848
0
VERTEX
8
CUT
10
288.8746
20
229.0283
0
VERTEX
8
CUT
10
289.0659
20
229.1919
0
VERTEX
8
CUT
10
289.2398
20
229.3739
0
VERTEX
8
CUT
10
289.3945
20
229.5725
0
VERTEX
8
CUT
10
289.5285
20
229.7856
0
VERTEX
8
CUT
10
289.6403
20
230.0111
0
VERTEX
8
CUT
10
289.7289
20
230.2467
0
VERTEX
8
CUT
10
289.7934
20
230.4900
0
VERTEX
8
CUT
10
289.8331
20
230.7385
0
VERTEX
8
CUT
10
289.8475
20
230.9898
0
VERTEX
8
CUT
10
289.8367
20
231.2413
0
VERTEX
8
CUT
10
289.7874
20
231.7661
0
VERTEX
8
CUT
10
289.7772
20
231.8572
0
VERTEX
8
CUT
10
288.8481
20
238.9502
0
VERTEX
8
CUT
10
288.8304
20
239.0646
0
VERTEX
8
CUT
10
287.6820
20
245.5018
0
VERTEX
8
CUT
10
287.6525
20
245.6431
0
VERTEX
8
CUT
10
286.2482
20
251.5265
0
VERTEX
8
CUT
10
286.2011
20
251.6968
0
VERTEX
8
CUT
10
286.0246
20
252.2574
0
VERTEX
8
CUT
10
285.9421
20
252.4816
0
VERTEX
8
CUT
10
285.8385
20
252.6968
0
VERTEX
8
CUT
10
285.7149
20
252.9012
0
VERTEX
8
CUT
10
285.5724
20
253.0928
0
VERTEX
8
CUT
10
285.4122
20
253.2700
0
VERTEX
8
CUT
10
285.2358
20
253.4311
0
VERTEX
8
CUT
10
285.0449
20
253.5746
0
VERTEX
8
CUT
10
284.8411
20
253.6992
0
VERTEX
8
CUT
10
284.6263
20
253.8039
0
VERTEX
8
CUT
10
284.4026
20
253.8875
0
VERTEX
8
CUT
10
284.1719
20
253.9494
0
VERTEX
8
CUT
10
283.9364
20
253.9890
0
VERTEX
8
CUT
10
283.6981
20
254.0060
0
VERTEX
8
CUT
10
283.4593
20
254.0001
0
VERTEX
8
CUT
10
283.2222
20
253.9715
0
VERTEX
8
CUT
10
282.9888
20
253.9204
0
VERTEX
8
CUT
10
282.7615
20
253.8472
0
VERTEX
8
CUT
10
281.0404
20
253.2012
0
VERTEX
8
CUT
10
280.7996
20
253.0960
0
VERTEX
8
CUT
10
276.1149
20
250.7501
0
VERTEX
8
CUT
10
275.8721
20
250.6110
0
VERTEX
8
CUT
10
274.0487
20
249.4262
0
VERTEX
8
CUT
10
273.9864
20
249.3883
0
VERTEX
8
CUT
10
273.9218
20
249.3544
0
VERTEX
8
CUT
10
272.2795
20
248.5533
0
VERTEX
8
CUT
10
272.1149
20
248.4652
0
VERTEX
8
CUT
10
271.9574
20
248.3652
0
VERTEX
8
CUT
10
267.6986
20
245.4317
0
VERTEX
8
CUT
10
267.5725
20
245.3388
0
VERTEX
8
CUT
10
261.2331
20
240.3592
0
VERTEX
8
CUT
10
261.1004
20
240.2473
0
VERTEX
8
CUT
10
256.0034
20
235.6371
0
VERTEX
8
CUT
10
255.9189
20
235.5570
0
VERTEX
8
CUT
10
231.8128
20
211.6213
0
VERTEX
8
CUT
10
231.8019
20
211.6107
0
VERTEX
8
CUT
10
231.7783
20
211.5883
0
VERTEX
8
CUT
10
224.9566
20
205.2987
0
VERTEX
8
CUT
10
224.9226
20
205.2686
0
VERTEX
8
CUT
10
224.8876
20
205.2398
0
VERTEX
8
CUT
10
220.9337
20
202.1154
0
VERTEX
8
CUT
10
220.8861
20
202.0796
0
VERTEX
8
CUT
10
220.8367
20
202.0463
0
VERTEX
8
CUT
10
217.8497
20
200.1367
0
VERTEX
8
CUT
10
217.7964
20
200.1045
0
VERTEX
8
CUT
10
217.7415
20
200.0752
0
VERTEX
8
CUT
10
213.4171
20
197.9091
0
VERTEX
8
CUT
10
213.3623
20
197.8834
0
VERTEX
8
CUT
10
213.3063
20
197.8605
0
VERTEX
8
CUT
10
210.9552
20
196.9679
0
VERTEX
8
CUT
10
210.7169
20
196.8629
0
VERTEX
8
CUT
10
209.3501
20
196.1737
0
VERTEX
8
CUT
10
209.0569
20
195.9999
0
VERTEX
8
CUT
10
207.6360
20
195.0204
0
VERTEX
8
CUT
10
207.4374
20
194.8684
0
VERTEX
8
CUT
10
207.2550
20
194.6972
0
VERTEX
8
CUT
10
207.0906
20
194.5087
0
VERTEX
8
CUT
10
206.3779
20
193.6036
0
VERTEX
8
CUT
10
206.2371
20
193.4057
0
VERTEX
8
CUT
10
206.1162
20
193.1952
0
VERTEX
8
CUT
10
206.0163
20
192.9739
0
VERTEX
8
CUT
10
205.2111
20
190.9318
0
VERTEX
8
CUT
10
205.1358
20
190.7113
0
VERTEX
8
CUT
10
205.0814
20
190.4849
0
VERTEX
8
CUT
10
205.0483
20
190.2543
0
VERTEX
8
CUT
10
205.0368
20
190.0217
0
VERTEX
8
CUT
10
205.0361
20
189.7660
0
VERTEX
8
CUT
10
205.0538
20
189.4627
0
VERTEX
8
CUT
10
205.1080
20
189.1637
0
VERTEX
8
CUT
10
205.2459
20
188.6017
0
VERTEX
8
CUT
10
205.3117
20
188.3785
0
VERTEX
8
CUT
10
205.3981
20
188.1624
0
VERTEX
8
CUT
10
205.5041
20
187.9553
0
VERTEX
8
CUT
10
206.6577
20
185.9394
0
VERTEX
8
CUT
10
206.7852
20
185.7393
0
VERTEX
8
CUT
10
206.9312
20
185.5521
0
VERTEX
8
CUT
10
207.0942
20
185.3796
0
VERTEX
8
CUT
10
207.3815
20
185.1031
0
VERTEX
8
CUT
10
207.5456
20
184.9585
0
VERTEX
8
CUT
10
207.7217
20
184.8288
0
VERTEX
8
CUT
10
208.9556
20
184.0006
0
VERTEX
8
CUT
10
209.2039
20
183.8540
0
VERTEX
8
CUT
10
209.4674
20
183.7369
0
VERTEX
8
CUT
10
211.2425
20
183.0681
0
VERTEX
8
CUT
10
211.4499
20
183.0001
0
VERTEX
8
CUT
10
211.6624
20
182.9505
0
VERTEX
8
CUT
10
212.5753
20
182.7790
0
VERTEX
8
CUT
10
212.7891
20
182.7483
0
VERTEX
8
CUT
10
213.0049
20
182.7362
0
VERTEX
8
CUT
10
216.7961
20
182.6877
0
VERTEX
8
CUT
10
217.0272
20
182.6954
0
VERTEX
8
CUT
10
220.5973
20
182.9807
0
VERTEX
8
CUT
10
220.6160
20
182.9817
0
VERTEX
8
CUT
10
220.6966
20
182.9802
0
VERTEX
8
CUT
10
220.7152
20
182.9784
0
VERTEX
8
CUT
10
223.4585
20
182.6507
0
VERTEX
8
CUT
10
223.4772
20
182.6480
0
VERTEX
8
CUT
10
223.5167
20
182.6392
0
VERTEX
8
CUT
10
223.5552
20
182.6265
0
VERTEX
8
CUT
10
223.5726
20
182.6192
0
VERTEX
8
CUT
10
226.0146
20
181.5294
0
VERTEX
8
CUT
10
226.0299
20
181.5221
0
VERTEX
8
CUT
10
226.0617
20
181.5043
0
VERTEX
8
CUT
10
226.0895
20
181.4814
0
VERTEX
8
CUT
10
226.1019
20
181.4696
0
VERTEX
8
CUT
10
228.6387
20
178.9585
0
VERTEX
8
CUT
10
228.6518
20
178.9449
0
VERTEX
8
CUT
10
228.6777
20
178.9136
0
VERTEX
8
CUT
10
228.7002
20
178.8798
0
VERTEX
8
CUT
10
228.7095
20
178.8634
0
VERTEX
8
CUT
10
229.3096
20
177.7359
0
VERTEX
8
CUT
10
229.3175
20
177.7202
0
VERTEX
8
CUT
10
229.3467
20
177.6504
0
VERTEX
8
CUT
10
229.3523
20
177.6338
0
VERTEX
8
CUT
10
229.8470
20
176.0504
0
VERTEX
8
CUT
10
229.8520
20
176.0327
0
VERTEX
8
CUT
10
229.8601
20
175.9940
0
VERTEX
8
CUT
10
229.8643
20
175.9547
0
VERTEX
8
CUT
10
229.8649
20
175.9363
0
VERTEX
8
CUT
10
229.8960
20
172.6103
0
VERTEX
8
CUT
10
229.8957
20
172.5933
0
VERTEX
8
CUT
10
229.8927
20
172.5566
0
VERTEX
8
CUT
10
229.8864
20
172.5202
0
VERTEX
8
CUT
10
229.8825
20
172.5042
0
VERTEX
8
CUT
10
229.6282
20
171.5582
0
VERTEX
8
CUT
10
229.6229
20
171.5402
0
VERTEX
8
CUT
10
229.5940
20
171.4642
0
VERTEX
8
CUT
10
229.5861
20
171.4471
0
VERTEX
8
CUT
10
228.7977
20
169.8669
0
VERTEX
8
CUT
10
228.7882
20
169.8490
0
VERTEX
8
CUT
10
228.7409
20
169.7753
0
VERTEX
8
CUT
10
228.7286
20
169.7592
0
VERTEX
8
CUT
10
227.3641
20
168.0666
0
VERTEX
8
CUT
10
227.3495
20
168.0497
0
VERTEX
8
CUT
10
227.2804
20
167.9822
0
VERTEX
8
CUT
10
227.2630
20
167.9681
0
VERTEX
8
CUT
10
225.8325
20
166.8714
0
VERTEX
8
CUT
10
225.8180
20
166.8609
0
VERTEX
8
CUT
10
225.7526
20
166.8200
0
VERTEX
8
CUT
10
225.7368
20
166.8116
0
VERTEX
8
CUT
10
224.2416
20
166.0633
0
VERTEX
8
CUT
10
224.1652
20
166.0284
0
VERTEX
8
CUT
10
224.0866
20
165.9990
0
VERTEX
8
CUT
10
222.4797
20
165.4611
0
VERTEX
8
CUT
10
222.4634
20
165.4560
0
VERTEX
8
CUT
10
222.4273
20
165.4475
0
VERTEX
8
CUT
10
222.3903
20
165.4423
0
VERTEX
8
CUT
10
222.3738
20
165.4411
0
VERTEX
8
CUT
10
221.2728
20
165.3874
0
VERTEX
8
CUT
10
221.0301
20
165.3637
0
VERTEX
8
CUT
10
220.7909
20
165.3164
0
VERTEX
8
CUT
10
220.5574
20
165.2461
0
VERTEX
8
CUT
10
220.2473
20
165.1359
0
VERTEX
8
CUT
10
220.2304
20
165.1304
0
VERTEX
8
CUT
10
220.1937
20
165.1211
0
VERTEX
8
CUT
10
220.1568
20
165.1298
0
VERTEX
8
CUT
10
220.1399
20
165.1350
0
VERTEX
8
CUT
10
219.8038
20
165.2483
0
VERTEX
8
CUT
10
219.5641
20
165.3160
0
VERTEX
8
CUT
10
219.3188
20
165.3595
0
VERTEX
8
CUT
10
219.0703
20
165.3784
0
VERTEX
8
CUT
10
216.9613
20
165.4334
0
VERTEX
8
CUT
10
216.9435
20
165.4343
0
VERTEX
8
CUT
10
216.9054
20
165.4389
0
VERTEX
8
CUT
10
216.8678
20
165.4471
0
VERTEX
8
CUT
10
216.8507
20
165.4522
0
VERTEX
8
CUT
10
214.7738
20
166.1198
0
VERTEX
8
CUT
10
214.5329
20
166.1842
0
VERTEX
8
CUT
10
214.2868
20
166.2243
0
VERTEX
8
CUT
10
213.8333
20
166.2750
0
VERTEX
8
CUT
10
213.8154
20
166.2775
0
VERTEX
8
CUT
10
213.7773
20
166.2855
0
VERTEX
8
CUT
10
213.7402
20
166.2971
0
VERTEX
8
CUT
10
213.7234
20
166.3038
0
VERTEX
8
CUT
10
211.8639
20
167.0900
0
VERTEX
8
CUT
10
211.8275
20
167.1062
0
VERTEX
8
CUT
10
211.7916
20
167.1235
0
VERTEX
8
CUT
10
209.0859
20
168.4874
0
VERTEX
8
CUT
10
209.0387
20
168.5126
0
VERTEX
8
CUT
10
208.9926
20
168.5399
0
VERTEX
8
CUT
10
202.1972
20
172.7694
0
VERTEX
8
CUT
10
201.9402
20
172.9092
0
VERTEX
8
CUT
10
197.5094
20
174.9933
0
VERTEX
8
CUT
10
197.2322
20
175.1040
0
VERTEX
8
CUT
10
195.1601
20
175.7911
0
VERTEX
8
CUT
10
194.9474
20
175.8514
0
VERTEX
8
CUT
10
194.7302
20
175.8926
0
VERTEX
8
CUT
10
194.5101
20
175.9144
0
VERTEX
8
CUT
10
194.0109
20
175.9418
0
VERTEX
8
CUT
10
194.0058
20
175.9422
0
VERTEX
8
CUT
10
193.9568
20
175.9488
0
VERTEX
8
CUT
10
193.9318
20
175.9544
0
VERTEX
8
CUT
10
193.9097
20
175.9608
0
VERTEX
8
CUT
10
192.5700
20
176.3812
0
VERTEX
8
CUT
10
192.3623
20
176.4367
0
VERTEX
8
CUT
10
192.1506
20
176.4742
0
VERTEX
8
CUT
10
190.8465
20
176.6475
0
VERTEX
8
CUT
10
190.5274
20
176.6692
0
VERTEX
8
CUT
10
183.8228
20
176.6965
0
VERTEX
8
CUT
10
183.5491
20
176.6826
0
VERTEX
8
CUT
10
183.2785
20
176.6388
0
VERTEX
8
CUT
10
180.0418
20
175.9309
0
VERTEX
8
CUT
10
179.7227
20
175.8385
0
VERTEX
8
CUT
10
176.9431
20
174.8291
0
VERTEX
8
CUT
10
176.6786
20
174.7155
0
VERTEX
8
CUT
10
174.7501
20
173.7515
0
VERTEX
8
CUT
10
174.4675
20
173.5863
0
VERTEX
8
CUT
10
172.2775
20
172.1054
0
VERTEX
8
CUT
10
172.1255
20
171.9941
0
VERTEX
8
CUT
10
171.9823
20
171.8716
0
VERTEX
8
CUT
10
169.5123
20
169.5919
0
VERTEX
8
CUT
10
169.3454
20
169.4225
0
VERTEX
8
CUT
10
169.1953
20
169.2379
0
VERTEX
8
CUT
10
169.0635
20
169.0400
0
VERTEX
8
CUT
10
168.9510
20
168.8303
0
VERTEX
8
CUT
10
168.8590
20
168.6110
0
VERTEX
8
CUT
10
168.7883
20
168.3839
0
VERTEX
8
CUT
10
168.7395
20
168.1511
0
VERTEX
8
CUT
10
168.7130
20
167.9147
0
VERTEX
8
CUT
10
168.7091
20
167.6769
0
VERTEX
8
CUT
10
168.7278
20
167.4398
0
VERTEX
8
CUT
10
168.7378
20
167.3826
0
VERTEX
8
CUT
10
168.7490
20
167.2943
0
VERTEX
8
CUT
10
168.7451
20
167.2349
0
VERTEX
8
CUT
10
168.6140
20
166.0877
0
VERTEX
8
CUT
10
168.6115
20
166.0695
0
VERTEX
8
CUT
10
168.6037
20
166.0323
0
VERTEX
8
CUT
10
168.5924
20
165.9959
0
VERTEX
8
CUT
10
168.5860
20
165.9793
0
VERTEX
8
CUT
10
168.5674
20
165.9341
0
VERTEX
8
CUT
10
168.4848
20
165.7020
0
VERTEX
8
CUT
10
168.4255
20
165.4628
0
VERTEX
8
CUT
10
168.3900
20
165.2189
0
VERTEX
8
CUT
10
168.3787
20
164.9727
0
VERTEX
8
CUT
10
168.3806
20
164.4162
0
VERTEX
8
CUT
10
168.3872
20
162.4794
0
VERTEX
8
CUT
10
168.3995
20
162.2403
0
VERTEX
8
CUT
10
168.4346
20
162.0034
0
VERTEX
8
CUT
10
168.4921
20
161.7710
0
VERTEX
8
CUT
10
168.5717
20
161.5452
0
VERTEX
8
CUT
10
168.5877
20
161.5060
0
VERTEX
8
CUT
10
168.5999
20
161.4684
0
VERTEX
8
CUT
10
168.6046
20
161.4292
0
VERTEX
8
CUT
10
168.6055
20
161.4100
0
VERTEX
8
CUT
10
168.6480
20
159.6080
0
SEQEND
0
POLYLINE
8
CUT
66
1
70
1
10
0.0
20
0.0
30
0.0
0
VERTEX
8
CUT
10
265.6026
20
103.7451
0
VERTEX
8
CUT
10
265.5453
20
103.5071
0
VERTEX
8
CUT
10
265.5117
20
103.2646
0
VERTEX
8
CUT
10
265.5018
20
103.0200
0
VERTEX
8
CUT
10
265.5084
20
102.2828
0
VERTEX
8
CUT
10
265.5209
20
102.0547
0
VERTEX
8
CUT
10
265.5541
20
101.8287
0
VERTEX
8
CUT
10
265.6078
20
101.6067
0
VERTEX
8
CUT
10
265.6816
20
101.3905
0
VERTEX
8
CUT
10
265.7747
20
101.1819
0
VERTEX
8
CUT
10
265.9340
20
100.8653
0
VERTEX
8
CUT
10
266.0688
20
100.6299
0
VERTEX
8
CUT
10
266.2283
20
100.4105
0
VERTEX
8
CUT
10
266.4107
20
100.2097
0
VERTEX
8
CUT
10
266.6324
20
99.9908
0
VERTEX
8
CUT
10
266.8207
20
99.8227
0
VERTEX
8
CUT
10
267.0249
20
99.6745
0
VERTEX
8
CUT
10
267.2431
20
99.5476
0
VERTEX
8
CUT
10
267.4730
20
99.4434
0
VERTEX
8
CUT
10
268.0556
20
99.2139
0
VERTEX
8
CUT
10
268.2765
20
99.1386
0
VERTEX
8
CUT
10
268.5034
20
99.0843
0
VERTEX
8
CUT
10
268.7344
20
99.0513
0
VERTEX
8
CUT
10
268.9675
20
99.0400
0
VERTEX
8
CUT
10
269.5299
20
99.0391
0
VERTEX
8
CUT
10
269.7750
20
99.0507
0
VERTEX
8
CUT
10
270.0178
20
99.0863
0
VERTEX
8
CUT
10
270.2559
20
99.1455
0
VERTEX
8
CUT
10
270.4870
20
99.2278
0
VERTEX
8
CUT
10
270.7090
20
99.3323
0
VERTEX
8
CUT
10
270.9196
20
99.4581
0
VERTEX
8
CUT
10
271.1169
20
99.6039
0
VERTEX
8
CUT
10
271.2990
20
99.7684
0
VERTEX
8
CUT
10
272.4309
20
100.8965
0
VERTEX
8
CUT
10
272.5999
20
101.0829
0
VERTEX
8
CUT
10
272.7494
20
101.2853
0
VERTEX
8
CUT
10
272.8777
20
101.5017
0
VERTEX
8
CUT
10
272.9837
20
101.7299
0
VERTEX
8
CUT
10
273.0662
20
101.9676
0
VERTEX
8
CUT
10
273.1243
20
102.2124
0
VERTEX
8
CUT
10
273.1576
20
102.4617
0
VERTEX
8
CUT
10
273.1656
20
102.7132
0
VERTEX
8
CUT
10
273.1484
20
102.9642
0
VERTEX
8
CUT
10
273.1059
20
103.2122
0
VERTEX
8
CUT
10
273.0388
20
103.4547
0
VERTEX
8
CUT
10
272.8201
20
104.1137
0
VERTEX
8
CUT
10
272.7376
20
104.3285
0
VERTEX
8
CUT
10
272.6358
20
104.5349
0
VERTEX
8
CUT
10
272.5154
20
104.7309
0
VERTEX
8
CUT
10
272.3775
20
104.9151
0
VERTEX
8
CUT
10
272.2233
20
105.0858
0
VERTEX
8
CUT
10
271.7514
20
105.5621
0
VERTEX
8
CUT
10
271.5489
20
105.7453
0
VERTEX
8
CUT
10
271.3276
20
105.9054
0
VERTEX
8
CUT
10
271.0902
20
106.0403
0
VERTEX
8
CUT
10
270.7657
20
106.2019
0
VERTEX
8
CUT
10
270.5552
20
106.2949
0
VERTEX
8
CUT
10
270.3371
20
106.3682
0
VERTEX
8
CUT
10
270.1131
20
106.4211
0
VERTEX
8
CUT
10
269.8853
20
106.4532
0
VERTEX
8
CUT
10
269.6554
20
106.4642
0
VERTEX
8
CUT
10
268.9100
20
106.4655
0
VERTEX
8
CUT
10
268.6610
20
106.4535
0
VERTEX
8
CUT
10
268.4145
20
106.4168
0
VERTEX
8
CUT
10
268.1729
20
106.3558
0
VERTEX
8
CUT
10
267.9386
20
106.2709
0
VERTEX
8
CUT
10
267.7139
20
106.1632
0
VERTEX
8
CUT
10
267.5010
20
106.0337
0
VERTEX
8
CUT
10
267.3020
20
105.8835
0
VERTEX
8
CUT
10
267.1191
20
105.7144
0
VERTEX
8
CUT
10
266.2153
20
104.7911
0
VERTEX
8
CUT
10
266.0528
20
104.6080
0
VERTEX
8
CUT
10
265.9090
20
104.4099
0
VERTEX
8
CUT
10
265.7853
20
104.1987
0
VERTEX
8
CUT
10
265.6828
20
103.9764
0
SEQEND
0
POLYLINE
8
CUT
66
1
70
1
10
0.0
20
0.0
30
0.0
0
VERTEX
8
CUT
10
204.5517
20
223.5368
0
VERTEX
8
CUT
10
204.7056
20
222.8993
0
VERTEX
8
CUT
10
204.7921
20
222.6159
0
VERTEX
8
CUT
10
204.9115
20
222.3447
0
VERTEX
8
CUT
10
205.4515
20
221.2923
0
VERTEX
8
CUT
10
205.5769
20
221.0754
0
VERTEX
8
CUT
10
205.7234
20
220.8722
0
VERTEX
8
CUT
10
205.8894
20
220.6846
0
VERTEX
8
CUT
10
207.0656
20
219.4832
0
VERTEX
8
CUT
10
207.2255
20
219.3336
0
VERTEX
8
CUT
10
207.3979
20
219.1985
0
VERTEX
8
CUT
10
207.5815
20
219.0791
0
VERTEX
8
CUT
10
208.4856
20
218.5456
0
VERTEX
8
CUT
10
208.6660
20
218.4488
0
VERTEX
8
CUT
10
208.8538
20
218.3672
0
VERTEX
8
CUT
10
209.8660
20
217.9755
0
VERTEX
8
CUT
10
210.0897
20
217.9008
0
VERTEX
8
CUT
10
210.3194
20
217.8476
0
VERTEX
8
CUT
10
211.4058
20
217.6493
0
VERTEX
8
CUT
10
211.6234
20
217.6194
0
VERTEX
8
CUT
10
211.8428
20
217.6087
0
VERTEX
8
CUT
10
214.2564
20
217.5973
0
VERTEX
8
CUT
10
214.5158
20
217.6095
0
VERTEX
8
CUT
10
214.7725
20
217.6486
0
VERTEX
8
CUT
10
217.1496
20
218.1381
0
VERTEX
8
CUT
10
217.4349
20
218.2147
0
VERTEX
8
CUT
10
218.8879
20
218.6983
0
VERTEX
8
CUT
10
219.0715
20
218.7675
0
VERTEX
8
CUT
10
220.7782
20
219.4887
0
VERTEX
8
CUT
10
221.0565
20
219.6273
0
VERTEX
8
CUT
10
222.8078
20
220.6399
0
VERTEX
8
CUT
10
222.9483
20
220.7275
0
VERTEX
8
CUT
10
225.3064
20
222.3080
0
VERTEX
8
CUT
10
225.4604
20
222.4199
0
VERTEX
8
CUT
10
227.8185
20
224.2753
0
VERTEX
8
CUT
10
227.9666
20
224.4015
0
VERTEX
8
CUT
10
232.0923
20
228.2030
0
VERTEX
8
CUT
10
232.2781
20
228.3934
0
VERTEX
8
CUT
10
236.6781
20
233.4121
0
VERTEX
8
CUT
10
236.7570
20
233.5066
0
VERTEX
8
CUT
10
239.6479
20
237.1513
0
VERTEX
8
CUT
10
239.7883
20
237.3470
0
VERTEX
8
CUT
10
244.0281
20
243.9009
0
VERTEX
8
CUT
10
244.0308
20
243.9049
0
VERTEX
8
CUT
10
244.0752
20
243.9638
0
VERTEX
8
CUT
10
244.0861
20
243.9765
0
VERTEX
8
CUT
10
245.1337
20
245.1544
0
VERTEX
8
CUT
10
245.2841
20
245.3407
0
VERTEX
8
CUT
10
245.4159
20
245.5406
0
VERTEX
8
CUT
10
247.0438
20
248.2855
0
VERTEX
8
CUT
10
247.0787
20
248.3408
0
VERTEX
8
CUT
10
247.1165
20
248.3940
0
VERTEX
8
CUT
10
249.0386
20
250.9493
0
VERTEX
8
CUT
10
249.1670
20
251.1373
0
VERTEX
8
CUT
10
249.2778
20
251.3362
0
VERTEX
8
CUT
10
249.8669
20
252.5172
0
VERTEX
8
CUT
10
249.8767
20
252.5355
0
VERTEX
8
CUT
10
249.9252
20
252.6108
0
VERTEX
8
CUT
10
249.9379
20
252.6272
0
VERTEX
8
CUT
10
251.4903
20
254.5333
0
VERTEX
8
CUT
10
251.6551
20
254.7605
0
VERTEX
8
CUT
10
251.7933
20
255.0048
0
VERTEX
8
CUT
10
252.0619
20
255.5484
0
VERTEX
8
CUT
10
252.0641
20
255.5528
0
VERTEX
8
CUT
10
252.1027
20
255.6181
0
VERTEX
8
CUT
10
252.1123
20
255.6324
0
VERTEX
8
CUT
10
254.0447
20
258.3625
0
VERTEX
8
CUT
10
254.0716
20
258.3990
0
VERTEX
8
CUT
10
254.0998
20
258.4344
0
VERTEX
8
CUT
10
259.5057
20
264.9592
0
VERTEX
8
CUT
10
259.5414
20
265.0003
0
VERTEX
8
CUT
10
259.5790
20
265.0399
0
VERTEX
8
CUT
10
264.2464
20
269.7265
0
VERTEX
8
CUT
10
264.2714
20
269.7509
0
VERTEX
8
CUT
10
264.2971
20
269.7745
0
VERTEX
8
CUT
10
266.8953
20
272.0945
0
VERTEX
8
CUT
10
266.9264
20
272.1214
0
VERTEX
8
CUT
10
266.9584
20
272.1471
0
VERTEX
8
CUT
10
269.4320
20
274.0671
0
VERTEX
8
CUT
10
269.6196
20
274.2282
0
VERTEX
8
CUT
10
269.7903
20
274.4070
0
VERTEX
8
CUT
10
269.9426
20
274.6018
0
VERTEX
8
CUT
10
270.0749
20
274.8107
0
VERTEX
8
CUT
10
270.1859
20
275.0316
0
VERTEX
8
CUT
10
270.2745
20
275.2625
0
VERTEX
8
CUT
10
270.3399
20
275.5009
0
VERTEX
8
CUT
10
270.3814
20
275.7446
0
VERTEX
8
CUT
10
270.3986
20
275.9913
0
VERTEX
8
CUT
10
270.3914
20
276.2384
0
VERTEX
8
CUT
10
270.3598
20
276.4837
0
VERTEX
8
CUT
10
270.3041
20
276.7246
0
VERTEX
8
CUT
10
270.2249
20
276.9588
0
VERTEX
8
CUT
10
270.1230
20
277.1840
0
VERTEX
8
CUT
10
269.9993
20
277.3981
0
VERTEX
8
CUT
10
269.8551
20
277.5989
0
VERTEX
8
CUT
10
269.6917
20
277.7845
0
VERTEX
8
CUT
10
269.5109
20
277.9531
0
VERTEX
8
CUT
10
269.3142
20
278.1030
0
VERTEX
8
CUT
10
266.7952
20
279.8325
0
VERTEX
8
CUT
10
266.5556
20
279.9780
0
VERTEX
8
CUT
10
262.2905
20
282.2502
0
VERTEX
8
CUT
10
262.0649
20
282.3563
0
VERTEX
8
CUT
10
257.3251
20
284.3031
0
VERTEX
8
CUT
10
257.1256
20
284.3754
0
VERTEX
8
CUT
10
251.8408
20
286.0382
0
VERTEX
8
CUT
10
251.6705
20
286.0852
0
VERTEX
8
CUT
10
245.8132
20
287.4824
0
VERTEX
8
CUT
10
245.6721
20
287.5118
0
VERTEX
8
CUT
10
239.2173
20
288.6630
0
VERTEX
8
CUT
10
239.1029
20
288.6807
0
VERTEX
8
CUT
10
232.0273
20
289.6070
0
VERTEX
8
CUT
10
231.9363
20
289.6172
0
VERTEX
8
CUT
10
224.2172
20
290.3414
0
VERTEX
8
CUT
10
224.1461
20
290.3471
0
VERTEX
8
CUT
10
222.0597
20
290.4829
0
VERTEX
8
CUT
10
221.8265
20
290.4872
0
VERTEX
8
CUT
10
221.5939
20
290.4697
0
VERTEX
8
CUT
10
221.3639
20
290.4306
0
VERTEX
8
CUT
10
221.1386
20
290.3703
0
VERTEX
8
CUT
10
220.9199
20
290.2892
0
VERTEX
8
CUT
10
220.7097
20
290.1881
0
VERTEX
8
CUT
10
220.5098
20
290.0678
0
VERTEX
8
CUT
10
220.3221
20
289.9294
0
VERTEX
8
CUT
10
220.1480
20
289.7742
0
VERTEX
8
CUT
10
219.9891
20
289.6034
0
VERTEX
8
CUT
10
217.6336
20
286.8206
0
VERTEX
8
CUT
10
217.5123
20
286.6653
0
VERTEX
8
CUT
10
216.2146
20
284.8614
0
VERTEX
8
CUT
10
216.0808
20
284.6546
0
VERTEX
8
CUT
10
215.0922
20
282.9482
0
VERTEX
8
CUT
10
214.9772
20
282.7245
0
VERTEX
8
CUT
10
213.8008
20
280.1214
0
VERTEX
8
CUT
10
213.7083
20
279.8856
0
VERTEX
8
CUT
10
213.6402
20
279.6415
0
VERTEX
8
CUT
10
213.5971
20
279.3919
0
VERTEX
8
CUT
10
213.5542
20
279.0373
0
VERTEX
8
CUT
10
213.5516
20
279.0195
0
VERTEX
8
CUT
10
213.5434
20
278.9819
0
VERTEX
8
CUT
10
213.5316
20
278.9452
0
VERTEX
8
CUT
10
213.5249
20
278.9286
0
VERTEX
8
CUT
10
212.9256
20
277.5354
0
VERTEX
8
CUT
10
212.8228
20
277.2499
0
VERTEX
8
CUT
10
212.7554
20
276.9541
0
VERTEX
8
CUT
10
212.3175
20
274.2980
0
VERTEX
8
CUT
10
212.2943
20
274.1151
0
VERTEX
8
CUT
10
212.2845
20
273.9310
0
VERTEX
8
CUT
10
212.2222
20
270.0052
0
VERTEX
8
CUT
10
212.2386
20
269.6776
0
VERTEX
8
CUT
10
212.4907
20
267.5021
0
VERTEX
8
CUT
10
212.5298
20
267.2651
0
VERTEX
8
CUT
10
212.5915
20
267.0329
0
VERTEX
8
CUT
10
212.9920
20
265.7725
0
VERTEX
8
CUT
10
212.9981
20
265.7510
0
VERTEX
8
CUT
10
213.0162
20
265.6562
0
VERTEX
8
CUT
10
213.0184
20
265.6340
0
VERTEX
8
CUT
10
213.0567
20
265.0863
0
VERTEX
8
CUT
10
213.0839
20
264.8536
0
VERTEX
8
CUT
10
213.1328
20
264.6245
0
VERTEX
8
CUT
10
213.2029
20
264.4010
0
VERTEX
8
CUT
10
214.9247
20
259.6969
0
VERTEX
8
CUT
10
214.9450
20
259.6365
0
VERTEX
8
CUT
10
214.9621
20
259.5750
0
VERTEX
8
CUT
10
216.0461
20
255.2192
0
VERTEX
8
CUT
10
216.0504
20
255.1998
0
VERTEX
8
CUT
10
216.0622
20
255.1151
0
VERTEX
8
CUT
10
216.0634
20
255.0953
0
VERTEX
8
CUT
10
216.1038
20
253.8764
0
VERTEX
8
CUT
10
216.1280
20
253.6030
0
VERTEX
8
CUT
10
216.1819
20
253.3339
0
VERTEX
8
CUT
10
216.2650
20
253.0724
0
VERTEX
8
CUT
10
216.3244
20
252.9159
0
VERTEX
8
CUT
10
216.3301
20
252.8999
0
VERTEX
8
CUT
10
216.3399
20
252.8647
0
VERTEX
8
CUT
10
216.3432
20
252.8287
0
VERTEX
8
CUT
10
216.3436
20
252.8115
0
VERTEX
8
CUT
10
216.3471
20
249.6031
0
VERTEX
8
CUT
10
216.3466
20
249.5835
0
VERTEX
8
CUT
10
216.3380
20
249.4996
0
VERTEX
8
CUT
10
216.3345
20
249.4803
0
VERTEX
8
CUT
10
215.5150
20
245.5747
0
VERTEX
8
CUT
10
215.5100
20
245.5540
0
VERTEX
8
CUT
10
215.4811
20
245.4668
0
VERTEX
8
CUT
10
215.4728
20
245.4472
0
VERTEX
8
CUT
10
213.5620
20
241.3171
0
VERTEX
8
CUT
10
213.5301
20
241.2533
0
VERTEX
8
CUT
10
213.4945
20
241.1915
0
VERTEX
8
CUT
10
212.6981
20
239.9015
0
VERTEX
8
CUT
10
212.6498
20
239.8292
0
VERTEX
8
CUT
10
212.5963
20
239.7606
0
VERTEX
8
CUT
10
207.6625
20
233.8922
0
VERTEX
8
CUT
10
207.5547
20
233.7545
0
VERTEX
8
CUT
10
206.2911
20
232.0182
0
VERTEX
8
CUT
10
206.1774
20
231.8477
0
VERTEX
8
CUT
10
206.0780
20
231.6684
0
VERTEX
8
CUT
10
204.9809
20
229.4821
0
VERTEX
8
CUT
10
204.8899
20
229.2786
0
VERTEX
8
CUT
10
204.8174
20
229.0678
0
VERTEX
8
CUT
10
204.7639
20
228.8513
0
VERTEX
8
CUT
10
204.7300
20
228.6309
0
VERTEX
8
CUT
10
204.7056
20
228.4063
0
VERTEX
8
CUT
10
204.7024
20
228.3836
0
VERTEX
8
CUT
10
204.6797
20
228.2872
0
VERTEX
8
CUT
10
204.6725
20
228.2654
0
VERTEX
8
CUT
10
204.4550
20
227.6746
0
VERTEX
8
CUT
10
204.3804
20
227.4356
0
VERTEX
8
CUT
10
204.3301
20
227.1904
0
VERTEX
8
CUT
10
204.3045
20
226.9413
0
VERTEX
8
CUT
10
204.3040
20
226.6909
0
VERTEX
8
CUT
10
204.3285
20
226.4418
0
VERTEX
8
CUT
10
204.3779
20
226.1963
0
VERTEX
8
CUT
10
204.4258
20
226.0074
0
VERTEX
8
CUT
10
204.4304
20
225.9866
0
VERTEX
8
CUT
10
204.4428
20
225.8953
0
VERTEX
8
CUT
10
204.4439
20
225.8740
0
VERTEX
8
CUT
10
204.4825
20
224.0701
0
VERTEX
8
CUT
10
204.5027
20
223.8016
0
SEQEND
0
POLYLINE
8
CUT
66
1
70
1
10
0.0
20
0.0
30
0.0
0
VERTEX
8
CUT
10
201.7179
20
88.6543
0
VERTEX
8
CUT
10
201.5284
20
88.7332
0
VERTEX
8
CUT
10
199.6157
20
89.4396
0
VERTEX
8
CUT
10
199.3036
20
89.5323
0
VERTEX
8
CUT
10
198.4105
20
89.7352
0
VERTEX
8
CUT
10
198.1244
20
89.7829
0
VERTEX
8
CUT
10
197.8347
20
89.7972
0
VERTEX
8
CUT
10
195.9016
20
89.7803
0
VERTEX
8
CUT
10
195.6079
20
89.7604
0
VERTEX
8
CUT
10
195.3185
20
89.7061
0
VERTEX
8
CUT
10
194.7285
20
89.5590
0
VERTEX
8
CUT
10
194.5025
20
89.4911
0
VERTEX
8
CUT
10
194.2839
20
89.4023
0
VERTEX
8
CUT
10
194.0747
20
89.2933
0
VERTEX
8
CUT
10
191.9714
20
88.0675
0
VERTEX
8
CUT
10
191.7746
20
87.9401
0
VERTEX
8
CUT
10
191.5905
20
87.7948
0
VERTEX
8
CUT
10
191.4209
20
87.6328
0
VERTEX
8
CUT
10
191.2672
20
87.4557
0
VERTEX
8
CUT
10
190.5242
20
86.5137
0
VERTEX
8
CUT
10
190.3935
20
86.3317
0
VERTEX
8
CUT
10
190.2795
20
86.1387
0
VERTEX
8
CUT
10
190.1833
20
85.9363
0
VERTEX
8
CUT
10
189.6918
20
84.7698
0
VERTEX
8
CUT
10
189.6097
20
84.5456
0
VERTEX
8
CUT
10
189.5494
20
84.3146
0
VERTEX
8
CUT
10
189.5114
20
84.0789
0
VERTEX
8
CUT
10
189.4960
20
83.8407
0
VERTEX
8
CUT
10
189.4288
20
79.8027
0
VERTEX
8
CUT
10
189.4353
20
79.5762
0
VERTEX
8
CUT
10
189.4623
20
79.3513
0
VERTEX
8
CUT
10
189.7028
20
77.9036
0
VERTEX
8
CUT
10
189.7425
20
77.7117
0
VERTEX
8
CUT
10
189.7970
20
77.5235
0
VERTEX
8
CUT
10
190.4765
20
75.4831
0
VERTEX
8
CUT
10
190.5750
20
75.2331
0
VERTEX
8
CUT
10
190.6998
20
74.9951
0
VERTEX
8
CUT
10
190.8493
20
74.7718
0
VERTEX
8
CUT
10
192.3996
20
72.7073
0
VERTEX
8
CUT
10
192.4553
20
72.6360
0
VERTEX
8
CUT
10
198.6148
20
65.0236
0
VERTEX
8
CUT
10
198.6819
20
64.9441
0
VERTEX
8
CUT
10
203.7863
20
59.1467
0
VERTEX
8
CUT
10
203.7991
20
59.1314
0
VERTEX
8
CUT
10
203.8470
20
59.0646
0
VERTEX
8
CUT
10
203.8573
20
59.0476
0
VERTEX
8
CUT
10
204.2798
20
58.3131
0
VERTEX
8
CUT
10
204.4307
20
58.0813
0
VERTEX
8
CUT
10
204.6063
20
57.8676
0
VERTEX
8
CUT
10
207.8372
20
54.3528
0
VERTEX
8
CUT
10
207.8818
20
54.3055
0
VERTEX
8
CUT
10
219.0835
20
42.7379
0
VERTEX
8
CUT
10
219.1487
20
42.6731
0
VERTEX
8
CUT
10
227.7486
20
34.4221
0
VERTEX
8
CUT
10
227.8453
20
34.3340
0
VERTEX
8
CUT
10
232.0286
20
30.7212
0
VERTEX
8
CUT
10
232.1339
20
30.6350
0
VERTEX
8
CUT
10
235.8731
20
27.7455
0
VERTEX
8
CUT
10
236.0472
20
27.6225
0
VERTEX
8
CUT
10
239.9679
20
25.0948
0
VERTEX
8
CUT
10
240.2048
20
24.9598
0
VERTEX
8
CUT
10
243.9380
20
23.0939
0
VERTEX
8
CUT
10
244.1721
20
22.9915
0
VERTEX
8
CUT
10
244.4154
20
22.9136
0
VERTEX
8
CUT
10
248.2673
20
21.8929
0
VERTEX
8
CUT
10
248.4743
20
21.8473
0
VERTEX
8
CUT
10
248.6844
20
21.8195
0
VERTEX
8
CUT
10
248.8962
20
21.8095
0
VERTEX
8
CUT
10
250.4822
20
21.8022
0
VERTEX
8
CUT
10
250.7446
20
21.8148
0
VERTEX
8
CUT
10
251.0043
20
21.8549
0
VERTEX
8
CUT
10
251.2583
20
21.9220
0
VERTEX
8
CUT
10
253.3158
20
22.5829
0
VERTEX
8
CUT
10
253.5950
20
22.6915
0
VERTEX
8
CUT
10
253.8593
20
22.8327
0
VERTEX
8
CUT
10
254.8637
20
23.4494
0
VERTEX
8
CUT
10
255.0754
20
23.5949
0
VERTEX
8
CUT
10
255.2710
20
23.7614
0
VERTEX
8
CUT
10
255.5661
20
24.0398
0
VERTEX
8
CUT
10
255.7397
20
24.2207
0
VERTEX
8
CUT
10
255.8942
20
24.4182
0
VERTEX
8
CUT
10
256.4400
20
25.1928
0
VERTEX
8
CUT
10
256.5417
20
25.3491
0
VERTEX
8
CUT
10
256.6314
20
25.5126
0
VERTEX
8
CUT
10
257.8605
20
27.9647
0
VERTEX
8
CUT
10
257.9696
20
28.2160
0
VERTEX
8
CUT
10
258.0506
20
28.4778
0
VERTEX
8
CUT
10
258.8300
20
31.5908
0
VERTEX
8
CUT
10
258.8747
20
31.8109
0
VERTEX
8
CUT
10
258.8995
20
32.0341
0
VERTEX
8
CUT
10
259.2008
20
36.6222
0
VERTEX
8
CUT
10
259.2061
20
36.8010
0
VERTEX
8
CUT
10
259.1887
20
39.6977
0
VERTEX
8
CUT
10
259.1681
20
40.0035
0
VERTEX
8
CUT
10
259.1102
20
40.3045
0
VERTEX
8
CUT
10
258.9513
20
40.9234
0
VERTEX
8
CUT
10
258.9462
20
40.9462
0
VERTEX
8
CUT
10
258.9333
20
41.0421
0
VERTEX
8
CUT
10
258.9322
20
41.0654
0
VERTEX
8
CUT
10
258.8971
20
43.2880
0
VERTEX
8
CUT
10
258.8842
20
43.5052
0
VERTEX
8
CUT
10
258.8524
20
43.7205
0
VERTEX
8
CUT
10
258.8021
20
43.9322
0
VERTEX
8
CUT
10
258.7335
20
44.1387
0
VERTEX
8
CUT
10
258.6695
20
44.3069
0
VERTEX
8
CUT
10
258.6634
20
44.3239
0
VERTEX
8
CUT
10
258.6533
20
44.3601
0
VERTEX
8
CUT
10
258.6465
20
44.3972
0
VERTEX
8
CUT
10
258.6445
20
44.4146
0
VERTEX
8
CUT
10
258.3242
20
47.9599
0
VERTEX
8
CUT
10
258.2964
20
48.1685
0
VERTEX
8
CUT
10
258.2512
20
48.3740
0
VERTEX
8
CUT
10
257.7931
20
50.1065
0
VERTEX
8
CUT
10
257.7177
20
50.3434
0
VERTEX
8
CUT
10
257.6191
20
50.5716
0
VERTEX
8
CUT
10
257.4983
20
50.7889
0
VERTEX
8
CUT
10
257.3566
20
50.9932
0
VERTEX
8
CUT
10
257.1953
20
51.1823
0
VERTEX
8
CUT
10
257.0159
20
51.3545
0
VERTEX
8
CUT
10
256.8204
20
51.5080
0
VERTEX
8
CUT
10
256.6106
20
51.6414
0
VERTEX
8
CUT
10
256.3886
20
51.7532
0
VERTEX
8
CUT
10
256.1565
20
51.8425
0
VERTEX
8
CUT
10
255.9168
20
51.9082
0
VERTEX
8
CUT
10
255.6717
20
51.9499
0
VERTEX
8
CUT
10
255.4237
20
51.9669
0
VERTEX
8
CUT
10
255.1752
20
51.9593
0
VERTEX
8
CUT
10
254.9287
20
51.9270
0
VERTEX
8
CUT
10
254.6866
20
51.8704
0
VERTEX
8
CUT
10
254.4513
20
51.7900
0
VERTEX
8
CUT
10
254.2252
20
51.6867
0
VERTEX
8
CUT
10
254.0105
20
51.5614
0
VERTEX
8
CUT
10
253.8093
20
51.4154
0
VERTEX
8
CUT
10
253.6235
20
51.2501
0
VERTEX
8
CUT
10
253.4551
20
51.0672
0
VERTEX
8
CUT
10
253.3057
20
50.8685
0
VERTEX
8
CUT
10
253.1768
20
50.6560
0
VERTEX
8
CUT
10
253.0696
20
50.4317
0
VERTEX
8
CUT
10
252.9853
20
50.1978
0
VERTEX
8
CUT
10
252.9245
20
49.9567
0
VERTEX
8
CUT
10
252.8881
20
49.7108
0
VERTEX
8
CUT
10
252.8762
20
49.4625
0
VERTEX
8
CUT
10
252.8798
20
47.6468
0
VERTEX
8
CUT
10
252.8794
20
47.6288
0
VERTEX
8
CUT
10
252.8760
20
47.5914
0
VERTEX
8
CUT
10
252.8693
20
47.5544
0
VERTEX
8
CUT
10
252.8649
20
47.5374
0
VERTEX
8
CUT
10
252.7040
20
46.9592
0
VERTEX
8
CUT
10
252.6416
20
46.6699
0
VERTEX
8
CUT
10
252.6139
20
46.3753
0
VERTEX
8
CUT
10
252.5758
20
45.2764
0
VERTEX
8
CUT
10
252.5743
20
45.2525
0
VERTEX
8
CUT
10
252.5590
20
45.1548
0
VERTEX
8
CUT
10
252.5532
20
45.1316
0
VERTEX
8
CUT
10
251.9725
20
43.0773
0
VERTEX
8
CUT
10
251.9669
20
43.0593
0
VERTEX
8
CUT
10
251.9389
20
42.9870
0
VERTEX
8
CUT
10
251.9309
20
42.9701
0
VERTEX
8
CUT
10
250.8327
20
40.7758
0
VERTEX
8
CUT
10
250.8229
20
40.7574
0
VERTEX
8
CUT
10
250.7997
20
40.7211
0
VERTEX
8
CUT
10
250.7728
20
40.6875
0
VERTEX
8
CUT
10
250.7585
20
40.6723
0
VERTEX
8
CUT
10
248.5738
20
38.4627
0
VERTEX
8
CUT
10
248.5613
20
38.4506
0
VERTEX
8
CUT
10
248.5336
20
38.4271
0
VERTEX
8
CUT
10
248.5038
20
38.4061
0
VERTEX
8
CUT
10
248.4893
20
38.3973
0
VERTEX
8
CUT
10
246.5487
20
37.2694
0
VERTEX
8
CUT
10
246.5318
20
37.2601
0
VERTEX
8
CUT
10
246.4956
20
37.2435
0
VERTEX
8
CUT
10
246.4579
20
37.2305
0
VERTEX
8
CUT
10
246.4392
20
37.2256
0
VERTEX
8
CUT
10
245.0409
20
36.8916
0
VERTEX
8
CUT
10
245.0173
20
36.8867
0
VERTEX
8
CUT
10
244.9179
20
36.8755
0
VERTEX
8
CUT
10
244.8938
20
36.8750
0
VERTEX
8
CUT
10
240.9561
20
36.9107
0
VERTEX
8
CUT
10
240.9340
20
36.9115
0
VERTEX
8
CUT
10
240.8887
20
36.9170
0
VERTEX
8
CUT
10
240.8443
20
36.9275
0
VERTEX
8
CUT
10
240.8233
20
36.9343
0
VERTEX
8
CUT
10
237.5690
20
38.0999
0
VERTEX
8
CUT
10
237.5534
20
38.1058
0
VERTEX
8
CUT
10
237.4908
20
38.1344
0
VERTEX
8
CUT
10
237.4761
20
38.1422
0
VERTEX
8
CUT
10
234.8663
20
39.6059
0
VERTEX
8
CUT
10
234.7931
20
39.6504
0
VERTEX
8
CUT
10
234.7231
20
39.6999
0
VERTEX
8
CUT
10
231.4382
20
42.2038
0
VERTEX
8
CUT
10
231.3763
20
42.2543
0
VERTEX
8
CUT
10
231.3178
20
42.3087
0
VERTEX
8
CUT
10
225.4874
20
48.0986
0
VERTEX
8
CUT
10
225.4427
20
48.1453
0
VERTEX
8
CUT
10
225.4006
20
48.1943
0
VERTEX
8
CUT
10
221.6366
20
52.8175
0
VERTEX
8
CUT
10
221.5950
20
52.8716
0
VERTEX
8
CUT
10
221.5565
20
52.9279
0
VERTEX
8
CUT
10
220.8425
20
54.0372
0
VERTEX
8
CUT
10
220.8263
20
54.0655
0
VERTEX
8
CUT
10
220.8480
20
54.0412
0
VERTEX
8
CUT
10
221.3212
20
53.4600
0
VERTEX
8
CUT
10
221.4984
20
53.2645
0
VERTEX
8
CUT
10
226.9063
20
47.8942
0
VERTEX
8
CUT
10
227.1524
20
47.6798
0
VERTEX
8
CUT
10
230.1180
20
45.4193
0
VERTEX
8
CUT
10
230.4106
20
45.2271
0
VERTEX
8
CUT
10
232.6591
20
43.9661
0
VERTEX
8
CUT
10
232.8454
20
43.8716
0
VERTEX
8
CUT
10
233.0390
20
43.7930
0
VERTEX
8
CUT
10
235.6320
20
42.8643
0
VERTEX
8
CUT
10
235.8994
20
42.7851
0
VERTEX
8
CUT
10
236.1740
20
42.7361
0
VERTEX
8
CUT
10
236.4523
20
42.7180
0
VERTEX
8
CUT
10
239.5876
20
42.6896
0
VERTEX
8
CUT
10
239.8914
20
42.7054
0
VERTEX
8
CUT
10
240.1911
20
42.7579
0
VERTEX
8
CUT
10
240.9835
20
42.9472
0
VERTEX
8
CUT
10
241.2171
20
43.0151
0
VERTEX
8
CUT
10
241.4429
20
43.1055
0
VERTEX
8
CUT
10
241.6589
20
43.2173
0
VERTEX
8
CUT
10
242.9837
20
43.9873
0
VERTEX
8
CUT
10
243.1692
20
44.1063
0
VERTEX
8
CUT
10
243.3435
20
44.2412
0
VERTEX
8
CUT
10
243.5053
20
44.3910
0
VERTEX
8
CUT
10
245.1390
20
46.0433
0
VERTEX
8
CUT
10
245.3138
20
46.2398
0
VERTEX
8
CUT
10
245.4670
20
46.4535
0
VERTEX
8
CUT
10
245.5969
20
46.6822
0
VERTEX
8
CUT
10
246.4046
20
48.2961
0
VERTEX
8
CUT
10
246.5000
20
48.5115
0
VERTEX
8
CUT
10
246.5747
20
48.7349
0
VERTEX
8
CUT
10
247.0119
20
50.2813
0
VERTEX
8
CUT
10
247.0762
20
50.5753
0
VERTEX
8
CUT
10
247.1046
20
50.8748
0
VERTEX
8
CUT
10
247.1364
20
51.7921
0
VERTEX
8
CUT
10
247.1412
20
51.8660
0
VERTEX
8
CUT
10
247.1434
20
51.8893
0
VERTEX
8
CUT
10
247.1659
20
52.0355
0
VERTEX
8
CUT
10
247.1708
20
52.0584
0
VERTEX
8
CUT
10
247.1886
20
52.1302
0
VERTEX
8
CUT
10
247.2922
20
52.5024
0
VERTEX
8
CUT
10
247.3432
20
52.7245
0
VERTEX
8
CUT
10
247.3738
20
52.9502
0
VERTEX
8
CUT
10
247.3838
20
53.1778
0
VERTEX
8
CUT
10
247.3767
20
56.7673
0
VERTEX
8
CUT
10
247.3621
20
57.0327
0
VERTEX
8
CUT
10
247.3193
20
57.2951
0
VERTEX
8
CUT
10
247.2489
20
57.5515
0
VERTEX
8
CUT
10
247.2092
20
57.6709
0
VERTEX
8
CUT
10
247.1915
20
57.7289
0
VERTEX
8
CUT
10
247.1863
20
57.7475
0
VERTEX
8
CUT
10
247.1606
20
57.8603
0
VERTEX
8
CUT
10
247.1459
20
57.9751
0
VERTEX
8
CUT
10
247.1444
20
57.9943
0
VERTEX
8
CUT
10
247.1412
20
58.0549
0
VERTEX
8
CUT
10
247.1060
20
59.2368
0
VERTEX
8
CUT
10
247.0815
20
59.5193
0
VERTEX
8
CUT
10
247.0252
20
59.7972
0
VERTEX
8
CUT
10
246.6205
20
61.3388
0
VERTEX
8
CUT
10
246.6027
20
61.4165
0
VERTEX
8
CUT
10
246.5903
20
61.4803
0
VERTEX
8
CUT
10
246.5775
20
61.5589
0
VERTEX
8
CUT
10
246.2812
20
63.8380
0
VERTEX
8
CUT
10
246.2467
20
64.0387
0
VERTEX
8
CUT
10
246.1961
20
64.2359
0
VERTEX
8
CUT
10
245.2494
20
67.3825
0
VERTEX
8
CUT
10
245.2331
20
67.4418
0
VERTEX
8
CUT
10
245.2284
20
67.4607
0
VERTEX
8
CUT
10
245.2048
20
67.5813
0
VERTEX
8
CUT
10
245.2020
20
67.6006
0
VERTEX
8
CUT
10
245.1946
20
67.6616
0
VERTEX
8
CUT
10
245.1680
20
67.9392
0
VERTEX
8
CUT
10
245.1252
20
68.2187
0
VERTEX
8
CUT
10
245.0510
20
68.4915
0
VERTEX
8
CUT
10
243.2095
20
74.0148
0
VERTEX
8
CUT
10
243.1590
20
74.1527
0
VERTEX
8
CUT
10
239.8808
20
82.3467
0
VERTEX
8
CUT
10
239.7957
20
82.5363
0
VERTEX
8
CUT
10
236.0207
20
90.0848
0
VERTEX
8
CUT
10
235.9421
20
90.2300
0
VERTEX
8
CUT
10
229.2230
20
101.7038
0
VERTEX
8
CUT
10
229.2001
20
101.7447
0
VERTEX
8
CUT
10
229.1931
20
101.7578
0
VERTEX
8
CUT
10
229.1520
20
101.8418
0
VERTEX
8
CUT
10
229.1460
20
101.8554
0
VERTEX
8
CUT
10
229.1278
20
101.8986
0
VERTEX
8
CUT
10
228.0824
20
104.5165
0
VERTEX
8
CUT
10
228.0626
20
104.5696
0
VERTEX
8
CUT
10
228.0566
20
104.5866
0
VERTEX
8
CUT
10
228.0243
20
104.6953
0
VERTEX
8
CUT
10
228.0200
20
104.7128
0
VERTEX
8
CUT
10
228.0075
20
104.7681
0
VERTEX
8
CUT
10
227.2160
20
108.7063
0
VERTEX
8
CUT
10
227.2049
20
108.7697
0
VERTEX
8
CUT
10
227.2019
20
108.7899
0
VERTEX
8
CUT
10
227.1897
20
108.9179
0
VERTEX
8
CUT
10
227.1888
20
108.9383
0
VERTEX
8
CUT
10
227.1876
20
109.0027
0
VERTEX
8
CUT
10
227.2007
20
110.7106
0
VERTEX
8
CUT
10
227.2027
20
110.7714
0
VERTEX
8
CUT
10
227.2038
20
110.7907
0
VERTEX
8
CUT
10
227.2159
20
110.9061
0
VERTEX
8
CUT
10
227.2382
20
111.0143
0
VERTEX
8
CUT
10
227.2724
20
111.1252
0
VERTEX
8
CUT
10
227.2894
20
111.1719
0
VERTEX
8
CUT
10
227.2879
20
111.1725
0
VERTEX
8
CUT
10
227.3596
20
111.3901
0
VERTEX
8
CUT
10
227.4162
20
111.6573
0
VERTEX
8
CUT
10
227.4434
20
111.9290
0
VERTEX
8
CUT
10
227.4697
20
112.5111
0
VERTEX
8
CUT
10
227.4739
20
112.5720
0
VERTEX
8
CUT
10
227.4757
20
112.5913
0
VERTEX
8
CUT
10
227.4931
20
112.7121
0
VERTEX
8
CUT
10
227.4968
20
112.7311
0
VERTEX
8
CUT
10
227.5099
20
112.7908
0
VERTEX
8
CUT
10
227.7426
20
113.7393
0
VERTEX
8
CUT
10
227.7559
20
113.7893
0
VERTEX
8
CUT
10
227.7677
20
113.8300
0
VERTEX
8
CUT
10
227.7831
20
113.8794
0
VERTEX
8
CUT
10
228.2988
20
115.4182
0
VERTEX
8
CUT
10
228.3287
20
115.4981
0
VERTEX
8
CUT
10
228.3552
20
115.5624
0
VERTEX
8
CUT
10
228.3905
20
115.6401
0
VERTEX
8
CUT
10
229.0952
20
117.0631
0
VERTEX
8
CUT
10
229.1271
20
117.1233
0
VERTEX
8
CUT
10
229.1545
20
117.1717
0
VERTEX
8
CUT
10
229.1896
20
117.2301
0
VERTEX
8
CUT
10
230.4725
20
119.2369
0
VERTEX
8
CUT
10
230.5230
20
119.3101
0
VERTEX
8
CUT
10
230.5664
20
119.3684
0
VERTEX
8
CUT
10
230.6221
20
119.4378
0
VERTEX
8
CUT
10
232.6220
20
121.7589
0
VERTEX
8
CUT
10
232.6563
20
121.7971
0
VERTEX
8
CUT
10
232.6675
20
121.8090
0
VERTEX
8
CUT
10
232.7406
20
121.8810
0
VERTEX
8
CUT
10
232.7527
20
121.8919
0
VERTEX
8
CUT
10
232.7915
20
121.9256
0
VERTEX
8
CUT
10
234.5616
20
123.4021
0
VERTEX
8
CUT
10
234.5947
20
123.4288
0
VERTEX
8
CUT
10
234.6221
20
123.4501
0
VERTEX
8
CUT
10
234.6561
20
123.4756
0
VERTEX
8
CUT
10
237.7218
20
125.6980
0
VERTEX
8
CUT
10
237.7724
20
125.7328
0
VERTEX
8
CUT
10
237.7887
20
125.7434
0
VERTEX
8
CUT
10
237.8898
20
125.8025
0
VERTEX
8
CUT
10
237.9910
20
125.8490
0
VERTEX
8
CUT
10
238.0964
20
125.8854
0
VERTEX
8
CUT
10
238.2048
20
125.9113
0
VERTEX
8
CUT
10
238.3152
20
125.9264
0
VERTEX
8
CUT
10
238.4322
20
125.9308
0
VERTEX
8
CUT
10
238.4824
20
125.9302
0
VERTEX
8
CUT
10
238.4824
20
125.9322
0
VERTEX
8
CUT
10
238.6297
20
125.9306
0
VERTEX
8
CUT
10
238.8773
20
125.9526
0
VERTEX
8
CUT
10
239.1215
20
125.9990
0
VERTEX
8
CUT
10
239.3599
20
126.0695
0
VERTEX
8
CUT
10
239.5901
20
126.1633
0
VERTEX
8
CUT
10
239.8098
20
126.2795
0
VERTEX
8
CUT
10
240.0169
20
126.4170
0
VERTEX
8
CUT
10
240.2093
20
126.5743
0
VERTEX
8
CUT
10
240.3852
20
126.7500
0
VERTEX
8
CUT
10
240.5427
20
126.9423
0
VERTEX
8
CUT
10
240.6804
20
127.1492
0
VERTEX
8
CUT
10
240.7969
20
127.3689
0
VERTEX
8
CUT
10
241.7926
20
129.4961
0
VERTEX
8
CUT
10
241.8150
20
129.5415
0
VERTEX
8
CUT
10
241.8394
20
129.5859
0
VERTEX
8
CUT
10
244.0577
20
133.4353
0
VERTEX
8
CUT
10
244.1721
20
133.6591
0
VERTEX
8
CUT
10
244.2635
20
133.8933
0
VERTEX
8
CUT
10
245.7704
20
138.4159
0
VERTEX
8
CUT
10
245.8297
20
138.6232
0
VERTEX
8
CUT
10
245.8709
20
138.8348
0
VERTEX
8
CUT
10
245.8937
20
139.0491
0
VERTEX
8
CUT
10
245.9275
20
139.5874
0
VERTEX
8
CUT
10
245.9296
20
139.6098
0
VERTEX
8
CUT
10
245.9473
20
139.7053
0
VERTEX
8
CUT
10
245.9533
20
139.7269
0
VERTEX
8
CUT
10
246.3146
20
140.8848
0
VERTEX
8
CUT
10
246.3739
20
141.1121
0
VERTEX
8
CUT
10
246.4116
20
141.3439
0
VERTEX
8
CUT
10
246.4275
20
141.5783
0
VERTEX
8
CUT
10
246.4684
20
143.5785
0
VERTEX
8
CUT
10
246.4686
20
143.5840
0
VERTEX
8
CUT
10
246.4740
20
143.6358
0
VERTEX
8
CUT
10
246.4792
20
143.6622
0
VERTEX
8
CUT
10
246.4854
20
143.6856
0
VERTEX
8
CUT
10
246.5999
20
144.0791
0
VERTEX
8
CUT
10
246.6539
20
144.3027
0
VERTEX
8
CUT
10
246.6872
20
144.5303
0
VERTEX
8
CUT
10
246.6994
20
144.7600
0
VERTEX
8
CUT
10
246.7103
20
146.3210
0
VERTEX
8
CUT
10
246.7000
20
146.5658
0
VERTEX
8
CUT
10
246.6658
20
146.8083
0
VERTEX
8
CUT
10
246.6080
20
147.0464
0
VERTEX
8
CUT
10
246.5272
20
147.2777
0
VERTEX
8
CUT
10
246.4242
20
147.4999
0
VERTEX
8
CUT
10
246.2999
20
147.7110
0
VERTEX
8
CUT
10
246.1555
20
147.9089
0
VERTEX
8
CUT
10
245.9925
20
148.0917
0
VERTEX
8
CUT
10
245.8124
20
148.2577
0
VERTEX
8
CUT
10
245.6169
20
148.4053
0
VERTEX
8
CUT
10
245.4078
20
148.5330
0
VERTEX
8
CUT
10
245.1873
20
148.6397
0
VERTEX
8
CUT
10
244.9574
20
148.7243
0
VERTEX
8
CUT
10
244.7203
20
148.7859
0
VERTEX
8
CUT
10
244.4783
20
148.8241
0
VERTEX
8
CUT
10
244.2338
20
148.8384
0
VERTEX
8
CUT
10
243.9890
20
148.8287
0
VERTEX
8
CUT
10
243.7464
20
148.7951
0
VERTEX
8
CUT
10
243.5082
20
148.7379
0
VERTEX
8
CUT
10
243.2767
20
148.6576
0
VERTEX
8
CUT
10
243.0542
20
148.5551
0
VERTEX
8
CUT
10
242.8429
20
148.4313
0
VERTEX
8
CUT
10
242.6446
20
148.2875
0
VERTEX
8
CUT
10
242.4614
20
148.1249
0
VERTEX
8
CUT
10
242.2949
20
147.9451
0
VERTEX
8
CUT
10
240.6534
20
145.9882
0
VERTEX
8
CUT
10
240.6218
20
145.9520
0
VERTEX
8
CUT
10
240.5887
20
145.9171
0
VERTEX
8
CUT
10
234.9803
20
140.2316
0
VERTEX
8
CUT
10
234.9609
20
140.2124
0
VERTEX
8
CUT
10
234.9411
20
140.1937
0
VERTEX
8
CUT
10
223.6189
20
129.7192
0
VERTEX
8
CUT
10
223.5767
20
129.6819
0
VERTEX
8
CUT
10
223.5327
20
129.6466
0
VERTEX
8
CUT
10
220.5959
20
127.4047
0
VERTEX
8
CUT
10
220.4306
20
127.2668
0
VERTEX
8
CUT
10
218.9558
20
125.9251
0
VERTEX
8
CUT
10
218.9521
20
125.9219
0
VERTEX
8
CUT
10
218.8933
20
125.8759
0
VERTEX
8
CUT
10
218.8794
20
125.8662
0
VERTEX
8
CUT
10
216.2780
20
124.1489
0
VERTEX
8
CUT
10
216.1281
20
124.0418
0
VERTEX
8
CUT
10
215.9864
20
123.9239
0
VERTEX
8
CUT
10
212.9286
20
121.1821
0
VERTEX
8
CUT
10
212.7947
20
121.0528
0
VERTEX
8
CUT
10
212.6708
20
120.9139
0
VERTEX
8
CUT
10
211.3177
20
119.2774
0
VERTEX
8
CUT
10
211.1504
20
119.0500
0
VERTEX
8
CUT
10
211.0098
20
118.8053
0
VERTEX
8
CUT
10
209.6422
20
116.0789
0
VERTEX
8
CUT
10
209.5457
20
115.8613
0
VERTEX
8
CUT
10
209.4703
20
115.6354
0
VERTEX
8
CUT
10
209.4168
20
115.4035
0
VERTEX
8
CUT
10
209.2294
20
114.3687
0
VERTEX
8
CUT
10
209.1986
20
114.1369
0
VERTEX
8
CUT
10
209.1895
20
113.9031
0
VERTEX
8
CUT
10
209.2079
20
111.6103
0
VERTEX
8
CUT
10
209.2197
20
111.3868
0
VERTEX
8
CUT
10
209.2515
20
111.1653
0
VERTEX
8
CUT
10
209.3029
20
110.9475
0
VERTEX
8
CUT
10
209.6942
20
109.5695
0
VERTEX
8
CUT
10
209.7943
20
109.2841
0
VERTEX
8
CUT
10
209.9281
20
109.0128
0
VERTEX
8
CUT
10
211.0265
20
107.0889
0
VERTEX
8
CUT
10
211.1411
20
106.9069
0
VERTEX
8
CUT
10
211.2709
20
106.7354
0
VERTEX
8
CUT
10
211.4150
20
106.5757
0
VERTEX
8
CUT
10
213.4142
20
104.5425
0
VERTEX
8
CUT
10
213.6825
20
104.3060
0
VERTEX
8
CUT
10
214.6467
20
103.5721
0
VERTEX
8
CUT
10
214.7755
20
103.4803
0
VERTEX
8
CUT
10
216.2980
20
102.4668
0
VERTEX
8
CUT
10
216.5737
20
102.3076
0
VERTEX
8
CUT
10
221.0582
20
100.0861
0
VERTEX
8
CUT
10
221.0626
20
100.0839
0
VERTEX
8
CUT
10
221.1275
20
100.0455
0
VERTEX
8
CUT
10
221.1417
20
100.0359
0
VERTEX
8
CUT
10
223.9519
20
98.0465
0
VERTEX
8
CUT
10
223.9563
20
98.0432
0
VERTEX
8
CUT
10
224.0202
20
97.9896
0
VERTEX
8
CUT
10
224.0339
20
97.9765
0
VERTEX
8
CUT
10
225.8890
20
96.1076
0
VERTEX
8
CUT
10
225.9436
20
96.0488
0
VERTEX
8
CUT
10
225.9940
20
95.9866
0
VERTEX
8
CUT
10
226.7998
20
94.9204
0
VERTEX
8
CUT
10
226.8030
20
94.9159
0
VERTEX
8
CUT
10
226.8483
20
94.8442
0
VERTEX
8
CUT
10
226.8575
20
94.8273
0
VERTEX
8
CUT
10
227.6343
20
93.3030
0
VERTEX
8
CUT
10
227.6419
20
93.2872
0
VERTEX
8
CUT
10
227.6699
20
93.2169
0
VERTEX
8
CUT
10
227.6752
20
93.2001
0
VERTEX
8
CUT
10
228.5253
20
90.2978
0
VERTEX
8
CUT
10
228.5299
20
90.2807
0
VERTEX
8
CUT
10
228.5371
20
90.2433
0
VERTEX
8
CUT
10
228.5407
20
90.2053
0
VERTEX
8
CUT
10
228.5412
20
90.1876
0
VERTEX
8
CUT
10
228.5445
20
88.6688
0
VERTEX
8
CUT
10
228.5441
20
88.6510
0
VERTEX
8
CUT
10
228.5405
20
88.6130
0
VERTEX
8
CUT
10
228.5299
20
88.5764
0
VERTEX
8
CUT
10
228.5238
20
88.5597
0
VERTEX
8
CUT
10
228.4538
20
88.3829
0
VERTEX
8
CUT
10
228.3701
20
88.1338
0
VERTEX
8
CUT
10
228.3130
20
87.8773
0
VERTEX
8
CUT
10
228.2832
20
87.6162
0
VERTEX
8
CUT
10
228.2545
20
87.1493
0
VERTEX
8
CUT
10
228.2529
20
87.1306
0
VERTEX
8
CUT
10
228.2464
20
87.0908
0
VERTEX
8
CUT
10
228.2321
20
87.0530
0
VERTEX
8
CUT
10
228.2241
20
87.0360
0
VERTEX
8
CUT
10
227.3900
20
85.3634
0
VERTEX
8
CUT
10
227.3809
20
85.3463
0
VERTEX
8
CUT
10
227.3587
20
85.3113
0
VERTEX
8
CUT
10
227.3330
20
85.2787
0
VERTEX
8
CUT
10
227.3199
20
85.2645
0
VERTEX
8
CUT
10
225.6438
20
83.5386
0
VERTEX
8
CUT
10
225.6288
20
83.5241
0
VERTEX
8
CUT
10
225.5592
20
83.4668
0
VERTEX
8
CUT
10
225.5421
20
83.4549
0
VERTEX
8
CUT
10
224.7337
20
82.9277
0
VERTEX
8
CUT
10
224.7171
20
82.9175
0
VERTEX
8
CUT
10
224.6427
20
82.8792
0
VERTEX
8
CUT
10
224.6248
20
82.8717
0
VERTEX
8
CUT
10
223.3214
20
82.3638
0
VERTEX
8
CUT
10
223.2407
20
82.3356
0
VERTEX
8
CUT
10
223.1582
20
82.3133
0
VERTEX
8
CUT
10
222.0073
20
82.0461
0
VERTEX
8
CUT
10
221.9863
20
82.0418
0
VERTEX
8
CUT
10
221.8943
20
82.0313
0
VERTEX
8
CUT
10
221.8728
20
82.0307
0
VERTEX
8
CUT
10
220.1559
20
82.0310
0
VERTEX
8
CUT
10
220.1506
20
82.0311
0
VERTEX
8
CUT
10
220.0993
20
82.0353
0
VERTEX
8
CUT
10
220.0731
20
82.0399
0
VERTEX
8
CUT
10
220.0499
20
82.0454
0
VERTEX
8
CUT
10
216.8823
20
82.8867
0
VERTEX
8
CUT
10
216.8639
20
82.8921
0
VERTEX
8
CUT
10
216.7866
20
82.9213
0
VERTEX
8
CUT
10
216.7693
20
82.9294
0
VERTEX
8
CUT
10
213.5236
20
84.5504
0
VERTEX
8
CUT
10
213.5070
20
84.5592
0
VERTEX
8
CUT
10
213.4383
20
84.6026
0
VERTEX
8
CUT
10
213.4232
20
84.6138
0
VERTEX
8
CUT
10
209.7800
20
87.4602
0
VERTEX
8
CUT
10
209.7281
20
87.5031
0
VERTEX
8
CUT
10
209.6788
20
87.5489
0
VERTEX
8
CUT
10
207.5958
20
89.5939
0
VERTEX
8
CUT
10
207.4118
20
89.7576
0
VERTEX
8
CUT
10
207.2125
20
89.9023
0
VERTEX
8
CUT
10
207.0000
20
90.0268
0
VERTEX
8
CUT
10
206.7763
20
90.1297
0
VERTEX
8
CUT
10
206.5435
20
90.2102
0
VERTEX
8
CUT
10
206.3040
20
90.2673
0
VERTEX
8
CUT
10
206.0600
20
90.3006
0
VERTEX
8
CUT
10
205.8139
20
90.3098
0
VERTEX
8
CUT
10
205.5681
20
90.2946
0
VERTEX
8
CUT
10
205.3250
20
90.2554
0
VERTEX
8
CUT
10
205.0869
20
90.1924
0
VERTEX
8
CUT
10
204.8561
20
90.1063
0
VERTEX
8
CUT
10
204.6350
20
89.9980
0
VERTEX
8
CUT
10
204.4256
20
89.8683
0
VERTEX
8
CUT
10
204.2299
20
89.7188
0
VERTEX
8
CUT
10
204.0500
20
89.5507
0
VERTEX
8
CUT
10
203.8874
20
89.3657
0
VERTEX
8
CUT
10
203.7438
20
89.1656
0
VERTEX
8
CUT
10
203.6207
20
88.9523
0
VERTEX
8
CUT
10
203.5190
20
88.7280
0
VERTEX
8
CUT
10
203.4400
20
88.4948
0
VERTEX
8
CUT
10
203.3843
20
88.2549
0
VERTEX
8
CUT
10
203.3524
20
88.0107
0
VERTEX
8
CUT
10
203.3448
20
87.7645
0
VERTEX
8
CUT
10
203.3541
20
87.6273
0
VERTEX
8
CUT
10
203.3550
20
87.5778
0
VERTEX
8
CUT
10
203.3079
20
87.6068
0
VERTEX
8
CUT
10
202.0744
20
88.4511
0
VERTEX
8
CUT
10
201.9003
20
88.5600
0
SEQEND
0
POLYLINE
8
CUT
66
1
70
1
10
0.0
20
0.0
30
0.0
0
VERTEX
8
CUT
10
231.5750
20
108.7358
0
VERTEX
8
CUT
10
231.5613
20
108.4928
0
VERTEX
8
CUT
10
231.5499
20
107.0136
0
VERTEX
8
CUT
10
231.5612
20
106.7565
0
VERTEX
8
CUT
10
231.5989
20
106.5018
0
VERTEX
8
CUT
10
232.3977
20
102.5276
0
VERTEX
8
CUT
10
232.4524
20
102.3075
0
VERTEX
8
CUT
10
232.5269
20
102.0931
0
VERTEX
8
CUT
10
233.5712
20
99.4780
0
VERTEX
8
CUT
10
233.6471
20
99.3068
0
VERTEX
8
CUT
10
233.7356
20
99.1418
0
VERTEX
8
CUT
10
240.8187
20
87.0463
0
VERTEX
8
CUT
10
240.8386
20
87.0110
0
VERTEX
8
CUT
10
240.8572
20
86.9752
0
VERTEX
8
CUT
10
244.8914
20
78.9084
0
VERTEX
8
CUT
10
244.9132
20
78.8624
0
VERTEX
8
CUT
10
244.9331
20
78.8155
0
VERTEX
8
CUT
10
245.8147
20
76.6117
0
VERTEX
8
CUT
10
245.9179
20
76.3868
0
VERTEX
8
CUT
10
246.0428
20
76.1732
0
VERTEX
8
CUT
10
246.1882
20
75.9730
0
VERTEX
8
CUT
10
246.3527
20
75.7881
0
VERTEX
8
CUT
10
246.5347
20
75.6204
0
VERTEX
8
CUT
10
246.7323
20
75.4715
0
VERTEX
8
CUT
10
246.9437
20
75.3429
0
VERTEX
8
CUT
10
247.1668
20
75.2358
0
VERTEX
8
CUT
10
247.3994
20
75.1513
0
VERTEX
8
CUT
10
247.6392
20
75.0902
0
VERTEX
8
CUT
10
247.8838
20
75.0531
0
VERTEX
8
CUT
10
248.1310
20
75.0404
0
VERTEX
8
CUT
10
248.3782
20
75.0521
0
VERTEX
8
CUT
10
248.6230
20
75.0883
0
VERTEX
8
CUT
10
248.8630
20
75.1484
0
VERTEX
8
CUT
10
249.0959
20
75.2320
0
VERTEX
8
CUT
10
249.3194
20
75.3382
0
VERTEX
8
CUT
10
249.5313
20
75.4660
0
VERTEX
8
CUT
10
249.7295
20
75.6141
0
VERTEX
8
CUT
10
249.9121
20
75.7811
0
VERTEX
8
CUT
10
250.0774
20
75.9653
0
VERTEX
8
CUT
10
250.2236
20
76.1650
0
VERTEX
8
CUT
10
250.3493
20
76.3781
0
VERTEX
8
CUT
10
250.4534
20
76.6026
0
VERTEX
8
CUT
10
250.5347
20
76.8363
0
VERTEX
8
CUT
10
250.5926
20
77.0769
0
VERTEX
8
CUT
10
250.6263
20
77.3221
0
VERTEX
8
CUT
10
250.6357
20
77.5694
0
VERTEX
8
CUT
10
250.6206
20
77.8163
0
VERTEX
8
CUT
10
250.5811
20
78.0606
0
VERTEX
8
CUT
10
250.5177
20
78.2998
0
VERTEX
8
CUT
10
250.1957
20
79.3096
0
VERTEX
8
CUT
10
250.1843
20
79.3475
0
VERTEX
8
CUT
10
250.1741
20
79.3858
0
VERTEX
8
CUT
10
249.3080
20
82.8647
0
VERTEX
8
CUT
10
249.3037
20
82.8840
0
VERTEX
8
CUT
10
249.2919
20
82.9651
0
VERTEX
8
CUT
10
249.2905
20
82.9849
0
VERTEX
8
CUT
10
249.2487
20
83.9191
0
VERTEX
8
CUT
10
249.2279
20
84.1480
0
VERTEX
8
CUT
10
249.1861
20
84.3740
0
VERTEX
8
CUT
10
248.7269
20
86.3470
0
VERTEX
8
CUT
10
248.7225
20
86.3688
0
VERTEX
8
CUT
10
248.7118
20
86.4602
0
VERTEX
8
CUT
10
248.7111
20
86.4824
0
VERTEX
8
CUT
10
248.6561
20
97.9594
0
VERTEX
8
CUT
10
248.6379
20
98.2493
0
VERTEX
8
CUT
10
248.3834
20
100.3414
0
VERTEX
8
CUT
10
248.3504
20
100.5437
0
VERTEX
8
CUT
10
248.3008
20
100.7426
0
VERTEX
8
CUT
10
246.9518
20
105.3462
0
VERTEX
8
CUT
10
246.8767
20
105.5644
0
VERTEX
8
CUT
10
246.7819
20
105.7748
0
VERTEX
8
CUT
10
245.2721
20
108.7490
0
VERTEX
8
CUT
10
245.2487
20
108.7978
0
VERTEX
8
CUT
10
245.2275
20
108.8476
0
VERTEX
8
CUT
10
244.0798
20
111.7102
0
VERTEX
8
CUT
10
244.0779
20
111.7154
0
VERTEX
8
CUT
10
244.0536
20
111.7929
0
VERTEX
8
CUT
10
244.0491
20
111.8115
0
VERTEX
8
CUT
10
243.4670
20
114.4645
0
VERTEX
8
CUT
10
243.4629
20
114.4857
0
VERTEX
8
CUT
10
243.4534
20
114.5748
0
VERTEX
8
CUT
10
243.4528
20
114.5964
0
VERTEX
8
CUT
10
243.4615
20
119.0624
0
VERTEX
8
CUT
10
243.4619
20
119.0794
0
VERTEX
8
CUT
10
243.4649
20
119.1144
0
VERTEX
8
CUT
10
243.4710
20
119.1492
0
VERTEX
8
CUT
10
243.4749
20
119.1653
0
VERTEX
8
CUT
10
243.6325
20
119.7610
0
VERTEX
8
CUT
10
243.6836
20
120.0012
0
VERTEX
8
CUT
10
243.7109
20
120.2453
0
VERTEX
8
CUT
10
243.7141
20
120.4908
0
VERTEX
8
CUT
10
243.6932
20
120.7355
0
VERTEX
8
CUT
10
243.6483
20
120.9769
0
VERTEX
8
CUT
10
243.5801
20
121.2128
0
VERTEX
8
CUT
10
243.4890
20
121.4409
0
VERTEX
8
CUT
10
243.3759
20
121.6589
0
VERTEX
8
CUT
10
243.2420
20
121.8647
0
VERTEX
8
CUT
10
243.0886
20
122.0565
0
VERTEX
8
CUT
10
242.9171
20
122.2322
0
VERTEX
8
CUT
10
242.7292
20
122.3903
0
VERTEX
8
CUT
10
242.5266
20
122.5292
0
VERTEX
8
CUT
10
242.3115
20
122.6476
0
VERTEX
8
CUT
10
242.0857
20
122.7442
0
VERTEX
8
CUT
10
241.8516
20
122.8183
0
VERTEX
8
CUT
10
241.6113
20
122.8690
0
VERTEX
8
CUT
10
241.3672
20
122.8959
0
VERTEX
8
CUT
10
241.1217
20
122.8987
0
VERTEX
8
CUT
10
240.8770
20
122.8775
0
VERTEX
8
CUT
10
240.6356
20
122.8323
0
VERTEX
8
CUT
10
240.3998
20
122.7636
0
VERTEX
8
CUT
10
240.1719
20
122.6722
0
VERTEX
8
CUT
10
239.9541
20
122.5588
0
VERTEX
8
CUT
10
239.7484
20
122.4246
0
VERTEX
8
CUT
10
239.4545
20
122.2115
0
VERTEX
8
CUT
10
239.3204
20
122.1072
0
VERTEX
8
CUT
10
238.8225
20
121.6919
0
VERTEX
8
CUT
10
238.8206
20
121.6903
0
VERTEX
8
CUT
10
238.8174
20
121.6876
0
VERTEX
8
CUT
10
238.8070
20
121.6789
0
VERTEX
8
CUT
10
238.7519
20
121.6330
0
VERTEX
8
CUT
10
237.5290
20
120.6130
0
VERTEX
8
CUT
10
237.3768
20
120.4750
0
VERTEX
8
CUT
10
237.2364
20
120.3251
0
VERTEX
8
CUT
10
235.2063
20
117.9689
0
VERTEX
8
CUT
10
234.9938
20
117.6836
0
VERTEX
8
CUT
10
233.6823
20
115.6320
0
VERTEX
8
CUT
10
233.5484
20
115.3950
0
VERTEX
8
CUT
10
232.8389
20
113.9626
0
VERTEX
8
CUT
10
232.7088
20
113.6474
0
VERTEX
8
CUT
10
232.1865
20
112.0889
0
VERTEX
8
CUT
10
232.1289
20
111.8901
0
VERTEX
8
CUT
10
231.9122
20
111.0065
0
VERTEX
8
CUT
10
231.8657
20
110.7667
0
VERTEX
8
CUT
10
231.8427
20
110.5236
0
VERTEX
8
CUT
10
231.8009
20
109.5962
0
VERTEX
8
CUT
10
231.7997
20
109.5788
0
VERTEX
8
CUT
10
231.7949
20
109.5430
0
VERTEX
8
CUT
10
231.7841
20
109.5090
0
VERTEX
8
CUT
10
231.7776
20
109.4926
0
VERTEX
8
CUT
10
231.7559
20
109.4409
0
VERTEX
8
CUT
10
231.6728
20
109.2121
0
VERTEX
8
CUT
10
231.6123
20
108.9763
0
SEQEND
0
POLYLINE
8
CUT
66
1
70
1
10
0.0
20
0.0
30
0.0
0
VERTEX
8
CUT
10
180.7732
20
90.2849
0
VERTEX
8
CUT
10
182.6944
20
86.6543
0
VERTEX
8
CUT
10
182.8191
20
86.4442
0
VERTEX
8
CUT
10
182.9638
20
86.2472
0
VERTEX
8
CUT
10
183.1270
20
86.0653
0
VERTEX
8
CUT
10
183.3072
20
85.9002
0
VERTEX
8
CUT
10
183.5026
20
85.7534
0
VERTEX
8
CUT
10
183.7114
20
85.6265
0
VERTEX
8
CUT
10
183.9317
20
85.5205
0
VERTEX
8
CUT
10
184.1612
20
85.4366
0
VERTEX
8
CUT
10
184.3978
20
85.3754
0
VERTEX
8
CUT
10
184.6393
20
85.3377
0
VERTEX
8
CUT
10
184.8833
20
85.3237
0
VERTEX
8
CUT
10
185.1275
20
85.3336
0
VERTEX
8
CUT
10
185.3695
20
85.3673
0
VERTEX
8
CUT
10
185.6071
20
85.4245
0
VERTEX
8
CUT
10
185.8380
20
85.5046
0
VERTEX
8
CUT
10
186.0600
20
85.6069
0
VERTEX
8
CUT
10
186.2709
20
85.7304
0
VERTEX
8
CUT
10
186.4688
20
85.8738
0
VERTEX
8
CUT
10
186.6517
20
86.0359
0
VERTEX
8
CUT
10
186.8179
20
86.2151
0
VERTEX
8
CUT
10
186.9658
20
86.4096
0
VERTEX
8
CUT
10
187.0940
20
86.6177
0
VERTEX
8
CUT
10
187.2013
20
86.8373
0
VERTEX
8
CUT
10
187.2866
20
87.0663
0
VERTEX
8
CUT
10
187.3492
20
87.3025
0
VERTEX
8
CUT
10
187.3884
20
87.5438
0
VERTEX
8
CUT
10
187.3898
20
87.5564
0
VERTEX
8
CUT
10
187.4122
20
87.6624
0
VERTEX
8
CUT
10
187.4461
20
87.7711
0
VERTEX
8
CUT
10
187.4527
20
87.7889
0
VERTEX
8
CUT
10
187.4745
20
87.8444
0
VERTEX
8
CUT
10
188.0746
20
89.2684
0
VERTEX
8
CUT
10
188.0975
20
89.3196
0
VERTEX
8
CUT
10
188.1051
20
89.3356
0
VERTEX
8
CUT
10
188.1552
20
89.4300
0
VERTEX
8
CUT
10
188.2136
20
89.5195
0
VERTEX
8
CUT
10
188.2240
20
89.5339
0
VERTEX
8
CUT
10
188.2577
20
89.5787
0
VERTEX
8
CUT
10
189.1736
20
90.7400
0
VERTEX
8
CUT
10
189.2110
20
90.7851
0
VERTEX
8
CUT
10
189.2232
20
90.7992
0
VERTEX
8
CUT
10
189.3003
20
90.8801
0
VERTEX
8
CUT
10
189.3807
20
90.9499
0
VERTEX
8
CUT
10
189.4716
20
91.0150
0
VERTEX
8
CUT
10
189.4872
20
91.0251
0
VERTEX
8
CUT
10
189.5371
20
91.0558
0
VERTEX
8
CUT
10
191.8314
20
92.3928
0
VERTEX
8
CUT
10
191.8831
20
92.4213
0
VERTEX
8
CUT
10
191.8996
20
92.4299
0
VERTEX
8
CUT
10
192.0018
20
92.4772
0
VERTEX
8
CUT
10
192.1079
20
92.5146
0
VERTEX
8
CUT
10
192.1258
20
92.5199
0
VERTEX
8
CUT
10
192.1827
20
92.5356
0
VERTEX
8
CUT
10
192.9886
20
92.7365
0
VERTEX
8
CUT
10
193.0605
20
92.7522
0
VERTEX
8
CUT
10
193.0834
20
92.7565
0
VERTEX
8
CUT
10
193.2293
20
92.7751
0
VERTEX
8
CUT
10
193.2526
20
92.7767
0
VERTEX
8
CUT
10
193.3261
20
92.7795
0
VERTEX
8
CUT
10
195.3726
20
92.7974
0
VERTEX
8
CUT
10
195.4451
20
92.7960
0
VERTEX
8
CUT
10
195.4681
20
92.7948
0
VERTEX
8
CUT
10
195.6122
20
92.7793
0
VERTEX
8
CUT
10
195.6348
20
92.7755
0
VERTEX
8
CUT
10
195.7060
20
92.7615
0
VERTEX
8
CUT
10
196.6948
20
92.5368
0
VERTEX
8
CUT
10
196.7735
20
92.5162
0
VERTEX
8
CUT
10
196.8373
20
92.4973
0
VERTEX
8
CUT
10
196.9146
20
92.4716
0
VERTEX
8
CUT
10
198.3540
20
91.9400
0
VERTEX
8
CUT
10
198.5844
20
91.8673
0
VERTEX
8
CUT
10
198.8208
20
91.8173
0
VERTEX
8
CUT
10
199.0608
20
91.7903
0
VERTEX
8
CUT
10
199.3024
20
91.7865
0
VERTEX
8
CUT
10
199.5432
20
91.8062
0
VERTEX
8
CUT
10
199.7810
20
91.8489
0
VERTEX
8
CUT
10
200.0136
20
91.9145
0
VERTEX
8
CUT
10
200.2387
20
92.0021
0
VERTEX
8
CUT
10
200.4543
20
92.1111
0
VERTEX
8
CUT
10
200.6584
20
92.2404
0
VERTEX
8
CUT
10
200.8491
20
92.3888
0
VERTEX
8
CUT
10
201.0245
20
92.5549
0
VERTEX
8
CUT
10
201.1831
20
92.7372
0
VERTEX
8
CUT
10
201.3234
20
92.9339
0
VERTEX
8
CUT
10
201.4440
20
93.1432
0
VERTEX
8
CUT
10
201.5438
20
93.3632
0
VERTEX
8
CUT
10
201.6220
20
93.5918
0
VERTEX
8
CUT
10
201.6777
20
93.8269
0
VERTEX
8
CUT
10
201.7105
20
94.0663
0
VERTEX
8
CUT
10
201.7200
20
94.3077
0
VERTEX
8
CUT
10
201.7061
20
94.5489
0
VERTEX
8
CUT
10
201.6690
20
94.7877
0
VERTEX
8
CUT
10
201.6091
20
95.0217
0
VERTEX
8
CUT
10
201.5268
20
95.2489
0
VERTEX
8
CUT
10
201.4231
20
95.4670
0
VERTEX
8
CUT
10
201.2987
20
95.6742
0
VERTEX
8
CUT
10
201.1549
20
95.8683
0
VERTEX
8
CUT
10
200.9930
20
96.0477
0
VERTEX
8
CUT
10
200.8146
20
96.2106
0
VERTEX
8
CUT
10
198.0829
20
98.4729
0
VERTEX
8
CUT
10
197.8801
20
98.6243
0
VERTEX
8
CUT
10
195.5536
20
100.1834
0
VERTEX
8
CUT
10
195.2858
20
100.3397
0
VERTEX
8
CUT
10
192.2563
20
101.8645
0
VERTEX
8
CUT
10
191.9605
20
101.9903
0
VERTEX
8
CUT
10
188.6310
20
103.1592
0
VERTEX
8
CUT
10
188.3607
20
103.2373
0
VERTEX
8
CUT
10
188.0833
20
103.2846
0
VERTEX
8
CUT
10
187.8024
20
103.3004
0
VERTEX
8
CUT
10
184.8155
20
103.2998
0
VERTEX
8
CUT
10
184.5559
20
103.2863
0
VERTEX
8
CUT
10
184.2991
20
103.2459
0
VERTEX
8
CUT
10
184.0479
20
103.1790
0
VERTEX
8
CUT
10
183.8051
20
103.0864
0
VERTEX
8
CUT
10
182.2147
20
102.3833
0
VERTEX
8
CUT
10
182.0203
20
102.2871
0
VERTEX
8
CUT
10
181.8349
20
102.1743
0
VERTEX
8
CUT
10
181.6600
20
102.0459
0
VERTEX
8
CUT
10
181.4968
20
101.9028
0
VERTEX
8
CUT
10
181.1750
20
101.5947
0
VERTEX
8
CUT
10
181.0162
20
101.4280
0
VERTEX
8
CUT
10
180.8734
20
101.2474
0
VERTEX
8
CUT
10
180.7478
20
101.0544
0
VERTEX
8
CUT
10
180.6405
20
100.8506
0
VERTEX
8
CUT
10
179.9564
20
99.3927
0
VERTEX
8
CUT
10
179.8600
20
99.1564
0
VERTEX
8
CUT
10
179.7881
20
98.9116
0
VERTEX
8
CUT
10
179.6400
20
98.2915
0
VERTEX
8
CUT
10
179.5882
20
97.9986
0
VERTEX
8
CUT
10
179.5716
20
97.7016
0
VERTEX
8
CUT
10
179.5853
20
93.9319
0
VERTEX
8
CUT
10
179.6026
20
93.6469
0
VERTEX
8
CUT
10
179.6523
20
93.3657
0
VERTEX
8
CUT
10
179.7338
20
93.0921
0
VERTEX
8
CUT
10
180.6314
20
90.6053
0
SEQEND
0
POLYLINE
8
CUT
66
1
70
1
10
0.0
20
0.0
30
0.0
0
VERTEX
8
CUT
10
180.9553
20
261.9694
0
VERTEX
8
CUT
10
180.9610
20
260.8537
0
VERTEX
8
CUT
10
180.9728
20
260.6239
0
VERTEX
8
CUT
10
181.0056
20
260.3961
0
VERTEX
8
CUT
10
181.0593
20
260.1723
0
VERTEX
8
CUT
10
181.1333
20
259.9544
0
VERTEX
8
CUT
10
181.2270
20
259.7443
0
VERTEX
8
CUT
10
181.8728
20
258.4590
0
VERTEX
8
CUT
10
182.0049
20
258.2276
0
VERTEX
8
CUT
10
182.1609
20
258.0117
0
VERTEX
8
CUT
10
182.3389
20
257.8135
0
VERTEX
8
CUT
10
182.8526
20
257.2998
0
VERTEX
8
CUT
10
183.0315
20
257.1375
0
VERTEX
8
CUT
10
183.2252
20
256.9931
0
VERTEX
8
CUT
10
183.4319
20
256.8682
0
VERTEX
8
CUT
10
183.6497
20
256.7637
0
VERTEX
8
CUT
10
184.6932
20
256.3241
0
VERTEX
8
CUT
10
184.9312
20
256.2377
0
VERTEX
8
CUT
10
185.1767
20
256.1759
0
VERTEX
8
CUT
10
185.4272
20
256.1392
0
VERTEX
8
CUT
10
185.6802
20
256.1280
0
VERTEX
8
CUT
10
187.3970
20
256.1392
0
VERTEX
8
CUT
10
187.6274
20
256.1513
0
VERTEX
8
CUT
10
187.8556
20
256.1846
0
VERTEX
8
CUT
10
188.0799
20
256.2389
0
VERTEX
8
CUT
10
188.2981
20
256.3135
0
VERTEX
8
CUT
10
188.5086
20
256.4080
0
VERTEX
8
CUT
10
188.7381
20
256.5240
0
VERTEX
8
CUT
10
188.9310
20
256.6325
0
VERTEX
8
CUT
10
189.1135
20
256.7576
0
VERTEX
8
CUT
10
189.2842
20
256.8983
0
VERTEX
8
CUT
10
189.6543
20
257.2319
0
VERTEX
8
CUT
10
189.8215
20
257.3976
0
VERTEX
8
CUT
10
190.2915
20
257.9093
0
VERTEX
8
CUT
10
190.4439
20
258.0919
0
VERTEX
8
CUT
10
190.5782
20
258.2881
0
VERTEX
8
CUT
10
191.1189
20
259.1648
0
VERTEX
8
CUT
10
191.2586
20
259.4245
0
VERTEX
8
CUT
10
191.3668
20
259.6989
0
VERTEX
8
CUT
10
191.4643
20
259.9965
0
VERTEX
8
CUT
10
191.5260
20
260.2194
0
VERTEX
8
CUT
10
191.5669
20
260.4470
0
VERTEX
8
CUT
10
191.5866
20
260.6774
0
VERTEX
8
CUT
10
191.5983
20
260.9774
0
VERTEX
8
CUT
10
191.5997
20
261.1223
0
VERTEX
8
CUT
10
191.5838
20
261.9598
0
VERTEX
8
CUT
10
191.5639
20
262.2303
0
VERTEX
8
CUT
10
191.5148
20
262.4971
0
VERTEX
8
CUT
10
191.4100
20
262.9328
0
VERTEX
8
CUT
10
191.3459
20
263.1537
0
VERTEX
8
CUT
10
191.2619
20
263.3677
0
VERTEX
8
CUT
10
191.1585
20
263.5732
0
VERTEX
8
CUT
10
191.0367
20
263.7682
0
VERTEX
8
CUT
10
190.4187
20
264.6634
0
VERTEX
8
CUT
10
190.2691
20
264.8586
0
VERTEX
8
CUT
10
190.1012
20
265.0383
0
VERTEX
8
CUT
10
189.9163
20
265.2006
0
VERTEX
8
CUT
10
189.7165
20
265.3439
0
VERTEX
8
CUT
10
188.6336
20
266.0424
0
VERTEX
8
CUT
10
188.4289
20
266.1611
0
VERTEX
8
CUT
10
188.2139
20
266.2599
0
VERTEX
8
CUT
10
187.9906
20
266.3379
0
VERTEX
8
CUT
10
187.7608
20
266.3945
0
VERTEX
8
CUT
10
187.5268
20
266.4291
0
VERTEX
8
CUT
10
187.2905
20
266.4415
0
VERTEX
8
CUT
10
185.4171
20
266.4505
0
VERTEX
8
CUT
10
185.1805
20
266.4404
0
VERTEX
8
CUT
10
184.9460
20
266.4080
0
VERTEX
8
CUT
10
184.7156
20
266.3536
0
VERTEX
8
CUT
10
184.4914
20
266.2776
0
VERTEX
8
CUT
10
184.2754
20
266.1808
0
VERTEX
8
CUT
10
183.5352
20
265.8058
0
VERTEX
8
CUT
10
183.3039
20
265.6728
0
VERTEX
8
CUT
10
183.0882
20
265.5158
0
VERTEX
8
CUT
10
182.8904
20
265.3368
0
VERTEX
8
CUT
10
182.0576
20
264.4978
0
VERTEX
8
CUT
10
181.8809
20
264.2998
0
VERTEX
8
CUT
10
181.7262
20
264.0842
0
VERTEX
8
CUT
10
181.5953
20
263.8534
0
VERTEX
8
CUT
10
181.2186
20
263.0991
0
VERTEX
8
CUT
10
181.1239
20
262.8850
0
VERTEX
8
CUT
10
181.0497
20
262.6630
0
VERTEX
8
CUT
10
180.9966
20
262.4351
0
VERTEX
8
CUT
10
180.9650
20
262.2032
0
SEQEND
0
POLYLINE
8
CUT
66
1
70
1
10
0.0
20
0.0
30
0.0
0
VERTEX
8
CUT
10
186.5216
20
56.5188
0
VERTEX
8
CUT
10
186.6511
20
56.3090
0
VERTEX
8
CUT
10
186.8008
20
56.1130
0
VERTEX
8
CUT
10
186.9690
20
55.9326
0
VERTEX
8
CUT
10
187.0158
20
55.8871
0
VERTEX
8
CUT
10
187.1975
20
55.7270
0
VERTEX
8
CUT
10
187.3939
20
55.5851
0
VERTEX
8
CUT
10
187.6031
20
55.4630
0
VERTEX
8
CUT
10
187.8231
20
55.3617
0
VERTEX
8
CUT
10
188.0519
20
55.2821
0
VERTEX
8
CUT
10
188.2873
20
55.2250
0
VERTEX
8
CUT
10
188.5272
20
55.1910
0
VERTEX
8
CUT
10
188.7692
20
55.1804
0
VERTEX
8
CUT
10
189.0111
20
55.1933
0
VERTEX
8
CUT
10
189.2506
20
55.2295
0
VERTEX
8
CUT
10
189.4855
20
55.2887
0
VERTEX
8
CUT
10
189.7135
20
55.3703
0
VERTEX
8
CUT
10
189.9326
20
55.4737
0
VERTEX
8
CUT
10
190.1407
20
55.5978
0
VERTEX
8
CUT
10
190.3357
20
55.7414
0
VERTEX
8
CUT
10
190.5160
20
55.9032
0
VERTEX
8
CUT
10
190.7618
20
56.1464
0
VERTEX
8
CUT
10
190.9260
20
56.3254
0
VERTEX
8
CUT
10
191.0720
20
56.5195
0
VERTEX
8
CUT
10
191.1985
20
56.7269
0
VERTEX
8
CUT
10
191.3042
20
56.9455
0
VERTEX
8
CUT
10
191.3883
20
57.1734
0
VERTEX
8
CUT
10
191.4498
20
57.4084
0
VERTEX
8
CUT
10
191.4883
20
57.6483
0
VERTEX
8
CUT
10
191.5033
20
57.8907
0
VERTEX
8
CUT
10
191.4947
20
58.1335
0
VERTEX
8
CUT
10
191.4625
20
58.3742
0
VERTEX
8
CUT
10
191.4072
20
58.6107
0
VERTEX
8
CUT
10
191.3292
20
58.8408
0
VERTEX
8
CUT
10
191.2292
20
59.0621
0
VERTEX
8
CUT
10
191.1082
20
59.2728
0
VERTEX
8
CUT
10
191.0273
20
59.3989
0
VERTEX
8
CUT
10
190.8928
20
59.5887
0
VERTEX
8
CUT
10
190.7412
20
59.7651
0
VERTEX
8
CUT
10
190.5739
20
59.9268
0
VERTEX
8
CUT
10
190.3923
20
60.0721
0
VERTEX
8
CUT
10
190.3642
20
60.0925
0
VERTEX
8
CUT
10
190.1571
20
60.2279
0
VERTEX
8
CUT
10
189.9377
20
60.3421
0
VERTEX
8
CUT
10
189.7080
20
60.4341
0
VERTEX
8
CUT
10
189.4704
20
60.5029
0
VERTEX
8
CUT
10
189.2271
20
60.5479
0
VERTEX
8
CUT
10
188.9806
20
60.5687
0
VERTEX
8
CUT
10
188.7332
20
60.5649
0
VERTEX
8
CUT
10
188.4874
20
60.5368
0
VERTEX
8
CUT
10
188.2456
20
60.4845
0
VERTEX
8
CUT
10
188.0101
20
60.4085
0
VERTEX
8
CUT
10
187.7834
20
60.3096
0
VERTEX
8
CUT
10
187.6845
20
60.2606
0
VERTEX
8
CUT
10
187.4446
20
60.1246
0
VERTEX
8
CUT
10
187.2212
20
59.9630
0
VERTEX
8
CUT
10
187.0169
20
59.7779
0
VERTEX
8
CUT
10
186.9300
20
59.6899
0
VERTEX
8
CUT
10
186.7656
20
59.5060
0
VERTEX
8
CUT
10
186.6200
20
59.3069
0
VERTEX
8
CUT
10
186.4948
20
59.0944
0
VERTEX
8
CUT
10
186.3911
20
58.8705
0
VERTEX
8
CUT
10
186.3100
20
58.6376
0
VERTEX
8
CUT
10
186.2523
20
58.3978
0
VERTEX
8
CUT
10
186.2184
20
58.1534
0
VERTEX
8
CUT
10
186.2088
20
57.9069
0
VERTEX
8
CUT
10
186.2110
20
57.6997
0
VERTEX
8
CUT
10
186.2257
20
57.4536
0
VERTEX
8
CUT
10
186.2647
20
57.2101
0
VERTEX
8
CUT
10
186.3274
20
56.9716
0
VERTEX
8
CUT
10
186.4133
20
56.7404
0
SEQEND
0
POLYLINE
8
CUT
66
1
70
1
10
0.0
20
0.0
30
0.0
0
VERTEX
8
CUT
10
166.6844
20
18.5728
0
VERTEX
8
CUT
10
166.7926
20
18.3515
0
VERTEX
8
CUT
10
166.9220
20
18.1419
0
VERTEX
8
CUT
10
167.0714
20
17.9461
0
VERTEX
8
CUT
10
167.2393
20
17.7660
0
VERTEX
8
CUT
10
167.4242
20
17.6032
0
VERTEX
8
CUT
10
168.0809
20
17.0802
0
VERTEX
8
CUT
10
168.2762
20
16.9394
0
VERTEX
8
CUT
10
168.4843
20
16.8181
0
VERTEX
8
CUT
10
168.7030
20
16.7173
0
VERTEX
8
CUT
10
168.9304
20
16.6381
0
VERTEX
8
CUT
10
169.1643
20
16.5811
0
VERTEX
8
CUT
10
169.4027
20
16.5468
0
VERTEX
8
CUT
10
169.6432
20
16.5357
0
VERTEX
8
CUT
10
171.3415
20
16.5390
0
VERTEX
8
CUT
10
171.5668
20
16.5496
0
VERTEX
8
CUT
10
171.7901
20
16.5804
0
VERTEX
8
CUT
10
172.0098
20
16.6313
0
VERTEX
8
CUT
10
172.2240
20
16.7017
0
VERTEX
8
CUT
10
172.4310
20
16.7912
0
VERTEX
8
CUT
10
172.7868
20
16.9644
0
VERTEX
8
CUT
10
173.0330
20
17.1019
0
VERTEX
8
CUT
10
173.2621
20
17.2663
0
VERTEX
8
CUT
10
173.4712
20
17.4554
0
VERTEX
8
CUT
10
173.7046
20
17.6917
0
VERTEX
8
CUT
10
173.8614
20
17.8661
0
VERTEX
8
CUT
10
174.0012
20
18.0545
0
VERTEX
8
CUT
10
174.1227
20
18.2551
0
VERTEX
8
CUT
10
174.2249
20
18.4662
0
VERTEX
8
CUT
10
174.7236
20
19.6334
0
VERTEX
8
CUT
10
174.8092
20
19.8647
0
VERTEX
8
CUT
10
174.8716
20
20.1032
0
VERTEX
8
CUT
10
174.9102
20
20.3468
0
VERTEX
8
CUT
10
174.9246
20
20.5929
0
VERTEX
8
CUT
10
174.9257
20
20.7094
0
VERTEX
8
CUT
10
174.9151
20
20.9633
0
VERTEX
8
CUT
10
174.8787
20
21.2149
0
VERTEX
8
CUT
10
174.8171
20
21.4614
0
VERTEX
8
CUT
10
174.7307
20
21.7004
0
VERTEX
8
CUT
10
174.2253
20
22.9037
0
VERTEX
8
CUT
10
174.1226
20
23.1188
0
VERTEX
8
CUT
10
173.9999
20
23.3231
0
VERTEX
8
CUT
10
173.8583
20
23.5149
0
VERTEX
8
CUT
10
173.6990
20
23.6923
0
VERTEX
8
CUT
10
173.4600
20
23.9343
0
VERTEX
8
CUT
10
173.2589
20
24.1169
0
VERTEX
8
CUT
10
173.0392
20
24.2766
0
VERTEX
8
CUT
10
172.8035
20
24.4115
0
VERTEX
8
CUT
10
171.9054
20
24.8626
0
VERTEX
8
CUT
10
171.6958
20
24.9561
0
VERTEX
8
CUT
10
171.4785
20
25.0300
0
VERTEX
8
CUT
10
171.2553
20
25.0837
0
VERTEX
8
CUT
10
171.0281
20
25.1166
0
VERTEX
8
CUT
10
170.7989
20
25.1286
0
VERTEX
8
CUT
10
170.2063
20
25.1323
0
VERTEX
8
CUT
10
169.9779
20
25.1233
0
VERTEX
8
CUT
10
169.7512
20
25.0934
0
VERTEX
8
CUT
10
169.5282
20
25.0430
0
VERTEX
8
CUT
10
169.3108
20
24.9724
0
VERTEX
8
CUT
10
169.1007
20
24.8822
0
VERTEX
8
CUT
10
168.6217
20
24.6501
0
VERTEX
8
CUT
10
168.3801
20
24.5162
0
VERTEX
8
CUT
10
168.1549
20
24.3564
0
VERTEX
8
CUT
10
167.4257
20
23.7760
0
VERTEX
8
CUT
10
167.2403
20
23.6129
0
VERTEX
8
CUT
10
167.0719
20
23.4322
0
VERTEX
8
CUT
10
166.9222
20
23.2359
0
VERTEX
8
CUT
10
166.7925
20
23.0257
0
VERTEX
8
CUT
10
166.6843
20
22.8037
0
VERTEX
8
CUT
10
166.2372
20
21.7593
0
VERTEX
8
CUT
10
166.1492
20
21.5209
0
VERTEX
8
CUT
10
166.0859
20
21.2747
0
VERTEX
8
CUT
10
166.0478
20
21.0234
0
VERTEX
8
CUT
10
166.0355
20
20.7696
0
VERTEX
8
CUT
10
166.0360
20
20.5915
0
VERTEX
8
CUT
10
166.0492
20
20.3401
0
VERTEX
8
CUT
10
166.0877
20
20.0913
0
VERTEX
8
CUT
10
166.1511
20
19.8476
0
VERTEX
8
CUT
10
166.2386
20
19.6115
0
SEQEND
0
POLYLINE
8
CUT
66
1
70
1
10
0.0
20
0.0
30
0.0
0
VERTEX
8
CUT
10
151.5987
20
191.3594
0
VERTEX
8
CUT
10
151.5840
20
191.1057
0
VERTEX
8
CUT
10
151.5951
20
190.8517
0
VERTEX
8
CUT
10
151.6320
20
190.6002
0
VERTEX
8
CUT
10
151.6942
20
190.3537
0
VERTEX
8
CUT
10
151.7811
20
190.1148
0
VERTEX
8
CUT
10
151.8919
20
189.8860
0
VERTEX
8
CUT
10
152.0253
20
189.6696
0
VERTEX
8
CUT
10
152.1800
20
189.4679
0
VERTEX
8
CUT
10
152.4220
20
189.1834
0
VERTEX
8
CUT
10
152.4370
20
189.1647
0
VERTEX
8
CUT
10
152.4917
20
189.0820
0
VERTEX
8
CUT
10
152.5031
20
189.0609
0
VERTEX
8
CUT
10
153.0118
20
188.0428
0
VERTEX
8
CUT
10
153.1242
20
187.8416
0
VERTEX
8
CUT
10
153.2547
20
187.6516
0
VERTEX
8
CUT
10
153.4021
20
187.4745
0
VERTEX
8
CUT
10
153.9032
20
186.9257
0
VERTEX
8
CUT
10
154.0314
20
186.7953
0
VERTEX
8
CUT
10
154.9676
20
185.9098
0
VERTEX
8
CUT
10
155.1446
20
185.7574
0
VERTEX
8
CUT
10
155.3351
20
185.6222
0
VERTEX
8
CUT
10
155.5373
20
185.5054
0
VERTEX
8
CUT
10
156.0413
20
185.2448
0
VERTEX
8
CUT
10
156.0579
20
185.2357
0
VERTEX
8
CUT
10
156.1237
20
185.1933
0
VERTEX
8
CUT
10
156.1389
20
185.1819
0
VERTEX
8
CUT
10
157.0919
20
184.4307
0
VERTEX
8
CUT
10
157.2832
20
184.2940
0
VERTEX
8
CUT
10
157.4865
20
184.1759
0
VERTEX
8
CUT
10
157.7000
20
184.0773
0
VERTEX
8
CUT
10
157.9219
20
183.9993
0
VERTEX
8
CUT
10
158.1501
20
183.9425
0
VERTEX
8
CUT
10
158.3826
20
183.9073
0
VERTEX
8
CUT
10
158.6174
20
183.8942
0
VERTEX
8
CUT
10
159.4628
20
183.8867
0
VERTEX
8
CUT
10
159.7140
20
183.8971
0
VERTEX
8
CUT
10
159.9629
20
183.9327
0
VERTEX
8
CUT
10
160.2069
20
183.9931
0
VERTEX
8
CUT
10
160.4437
20
184.0777
0
VERTEX
8
CUT
10
160.6707
20
184.1857
0
VERTEX
8
CUT
10
160.8858
20
184.3159
0
VERTEX
8
CUT
10
161.0867
20
184.4671
0
VERTEX
8
CUT
10
161.2713
20
184.6376
0
VERTEX
8
CUT
10
161.4380
20
184.8259
0
VERTEX
8
CUT
10
161.5848
20
185.0299
0
VERTEX
8
CUT
10
161.7105
20
185.2477
0
VERTEX
8
CUT
10
161.8136
20
185.4770
0
VERTEX
8
CUT
10
161.8932
20
185.7155
0
VERTEX
8
CUT
10
161.9484
20
185.9607
0
VERTEX
8
CUT
10
161.9504
20
185.9721
0
VERTEX
8
CUT
10
161.9540
20
185.9902
0
VERTEX
8
CUT
10
161.9638
20
186.0266
0
VERTEX
8
CUT
10
161.9862
20
186.0569
0
VERTEX
8
CUT
10
161.9982
20
186.0709
0
VERTEX
8
CUT
10
162.4517
20
186.5777
0
VERTEX
8
CUT
10
162.6031
20
186.7643
0
VERTEX
8
CUT
10
162.7360
20
186.9645
0
VERTEX
8
CUT
10
162.8490
20
187.1766
0
VERTEX
8
CUT
10
162.9411
20
187.3985
0
VERTEX
8
CUT
10
163.0114
20
187.6282
0
VERTEX
8
CUT
10
163.0595
20
187.8637
0
VERTEX
8
CUT
10
163.0846
20
188.1026
0
VERTEX
8
CUT
10
163.0868
20
188.3429
0
VERTEX
8
CUT
10
163.0658
20
188.5822
0
VERTEX
8
CUT
10
163.0220
20
188.8185
0
VERTEX
8
CUT
10
162.9556
20
189.0494
0
VERTEX
8
CUT
10
162.8675
20
189.2729
0
VERTEX
8
CUT
10
162.7582
20
189.4870
0
VERTEX
8
CUT
10
162.6290
20
189.6895
0
VERTEX
8
CUT
10
162.4809
20
189.8787
0
VERTEX
8
CUT
10
162.3153
20
190.0528
0
VERTEX
8
CUT
10
162.1337
20
190.2102
0
VERTEX
8
CUT
10
161.9379
20
190.3495
0
VERTEX
8
CUT
10
157.9987
20
192.8747
0
VERTEX
8
CUT
10
157.9844
20
192.8843
0
VERTEX
8
CUT
10
157.9281
20
192.9278
0
VERTEX
8
CUT
10
157.9151
20
192.9392
0
VERTEX
8
CUT
10
157.2514
20
193.5488
0
VERTEX
8
CUT
10
157.0990
20
193.6888
0
VERTEX
8
CUT
10
156.9148
20
193.8424
0
VERTEX
8
CUT
10
156.7168
20
193.9776
0
VERTEX
8
CUT
10
156.5067
20
194.0933
0
VERTEX
8
CUT
10
156.2864
20
194.1882
0
VERTEX
8
CUT
10
156.0581
20
194.2617
0
VERTEX
8
CUT
10
155.8238
20
194.3129
0
VERTEX
8
CUT
10
155.5857
20
194.3414
0
VERTEX
8
CUT
10
155.3459
20
194.3470
0
VERTEX
8
CUT
10
155.1068
20
194.3295
0
VERTEX
8
CUT
10
154.8703
20
194.2893
0
VERTEX
8
CUT
10
154.6389
20
194.2265
0
VERTEX
8
CUT
10
154.4145
20
194.1419
0
VERTEX
8
CUT
10
154.1992
20
194.0362
0
VERTEX
8
CUT
10
154.1383
20
194.0025
0
VERTEX
8
CUT
10
154.0950
20
193.9975
0
VERTEX
8
CUT
10
153.8659
20
193.9597
0
VERTEX
8
CUT
10
153.6412
20
193.9008
0
VERTEX
8
CUT
10
153.4229
20
193.8213
0
VERTEX
8
CUT
10
153.2130
20
193.7219
0
VERTEX
8
CUT
10
153.0132
20
193.6034
0
VERTEX
8
CUT
10
152.8253
20
193.4670
0
VERTEX
8
CUT
10
152.6508
20
193.3136
0
VERTEX
8
CUT
10
152.4914
20
193.1448
0
VERTEX
8
CUT
10
152.3482
20
192.9618
0
VERTEX
8
CUT
10
152.0455
20
192.5354
0
VERTEX
8
CUT
10
151.9090
20
192.3209
0
VERTEX
8
CUT
10
151.7951
20
192.0936
0
VERTEX
8
CUT
10
151.7048
20
191.8560
0
VERTEX
8
CUT
10
151.6391
20
191.6104
0
SEQEND
0
POLYLINE
8
CUT
66
1
70
1
10
0.0
20
0.0
30
0.0
0
VERTEX
8
CUT
10
146.4098
20
198.3297
0
VERTEX
8
CUT
10
146.3913
20
198.0880
0
VERTEX
8
CUT
10
146.3963
20
197.8456
0
VERTEX
8
CUT
10
146.4247
20
197.6048
0
VERTEX
8
CUT
10
146.4764
20
197.3679
0
VERTEX
8
CUT
10
146.5507
20
197.1371
0
VERTEX
8
CUT
10
146.6470
20
196.9146
0
VERTEX
8
CUT
10
146.7645
20
196.7025
0
VERTEX
8
CUT
10
146.9019
20
196.5028
0
VERTEX
8
CUT
10
147.0581
20
196.3173
0
VERTEX
8
CUT
10
147.2314
20
196.1478
0
VERTEX
8
CUT
10
147.2690
20
196.1176
0
VERTEX
8
CUT
10
147.2689
20
196.1174
0
VERTEX
8
CUT
10
147.3767
20
196.0239
0
VERTEX
8
CUT
10
147.3885
20
196.0123
0
VERTEX
8
CUT
10
147.9774
20
195.4063
0
VERTEX
8
CUT
10
147.9890
20
195.3938
0
VERTEX
8
CUT
10
148.0337
20
195.3392
0
VERTEX
8
CUT
10
148.0436
20
195.3254
0
VERTEX
8
CUT
10
148.1180
20
195.2165
0
VERTEX
8
CUT
10
148.2631
20
195.0248
0
VERTEX
8
CUT
10
148.4260
20
194.8479
0
VERTEX
8
CUT
10
148.6051
20
194.6875
0
VERTEX
8
CUT
10
148.7988
20
194.5450
0
VERTEX
8
CUT
10
149.0053
20
194.4218
0
VERTEX
8
CUT
10
149.2227
20
194.3190
0
VERTEX
8
CUT
10
149.4489
20
194.2375
0
VERTEX
8
CUT
10
149.6819
20
194.1782
0
VERTEX
8
CUT
10
149.9196
20
194.1415
0
VERTEX
8
CUT
10
150.1596
20
194.1278
0
VERTEX
8
CUT
10
150.3999
20
194.1373
0
VERTEX
8
CUT
10
150.6381
20
194.1698
0
VERTEX
8
CUT
10
150.8722
20
194.2250
0
VERTEX
8
CUT
10
151.0998
20
194.3025
0
VERTEX
8
CUT
10
151.3190
20
194.4014
0
VERTEX
8
CUT
10
151.5276
20
194.5210
0
VERTEX
8
CUT
10
151.7238
20
194.6601
0
VERTEX
8
CUT
10
151.9057
20
194.8173
0
VERTEX
8
CUT
10
152.0716
20
194.9913
0
VERTEX
8
CUT
10
152.2201
20
195.1805
0
VERTEX
8
CUT
10
152.9947
20
196.2715
0
VERTEX
8
CUT
10
153.1289
20
196.4821
0
VERTEX
8
CUT
10
153.2415
20
196.7051
0
VERTEX
8
CUT
10
153.3313
20
196.9382
0
VERTEX
8
CUT
10
153.3973
20
197.1791
0
VERTEX
8
CUT
10
153.4390
20
197.4254
0
VERTEX
8
CUT
10
153.4558
20
197.6746
0
VERTEX
8
CUT
10
153.4478
20
197.9243
0
VERTEX
8
CUT
10
153.4148
20
198.1719
0
VERTEX
8
CUT
10
153.3574
20
198.4149
0
VERTEX
8
CUT
10
153.2759
20
198.6511
0
VERTEX
8
CUT
10
153.1713
20
198.8779
0
VERTEX
8
CUT
10
153.0446
20
199.0931
0
VERTEX
8
CUT
10
151.9044
20
200.8257
0
VERTEX
8
CUT
10
151.7603
20
201.0228
0
VERTEX
8
CUT
10
151.5978
20
201.2050
0
VERTEX
8
CUT
10
151.4182
20
201.3704
0
VERTEX
8
CUT
10
151.2234
20
201.5176
0
VERTEX
8
CUT
10
151.0151
20
201.6450
0
VERTEX
8
CUT
10
150.7954
20
201.7515
0
VERTEX
8
CUT
10
150.5664
20
201.8360
0
VERTEX
8
CUT
10
150.3302
20
201.8979
0
VERTEX
8
CUT
10
150.0891
20
201.9363
0
VERTEX
8
CUT
10
149.8453
20
201.9511
0
VERTEX
8
CUT
10
149.6014
20
201.9421
0
VERTEX
8
CUT
10
149.3594
20
201.9093
0
VERTEX
8
CUT
10
149.1218
20
201.8530
0
VERTEX
8
CUT
10
148.8909
20
201.7738
0
VERTEX
8
CUT
10
148.6687
20
201.6725
0
VERTEX
8
CUT
10
148.4575
20
201.5500
0
VERTEX
8
CUT
10
148.2593
20
201.4075
0
VERTEX
8
CUT
10
148.0759
20
201.2463
0
VERTEX
8
CUT
10
147.9091
20
201.0680
0
VERTEX
8
CUT
10
147.7605
20
200.8743
0
VERTEX
8
CUT
10
147.6315
20
200.6670
0
VERTEX
8
CUT
10
147.5233
20
200.4481
0
VERTEX
8
CUT
10
147.5225
20
200.4462
0
VERTEX
8
CUT
10
147.5142
20
200.4282
0
VERTEX
8
CUT
10
147.4740
20
200.3565
0
VERTEX
8
CUT
10
147.4630
20
200.3399
0
VERTEX
8
CUT
10
146.8413
20
199.4504
0
VERTEX
8
CUT
10
146.7122
20
199.2452
0
VERTEX
8
CUT
10
146.6035
20
199.0284
0
VERTEX
8
CUT
10
146.5164
20
198.8022
0
VERTEX
8
CUT
10
146.4516
20
198.5685
0
SEQEND
0
POLYLINE
8
CUT
66
1
70
1
10
0.0
20
0.0
30
0.0
0
VERTEX
8
CUT
10
136.6744
20
185.4020
0
VERTEX
8
CUT
10
136.6586
20
185.1500
0
VERTEX
8
CUT
10
136.6683
20
184.8976
0
VERTEX
8
CUT
10
136.7034
20
184.6475
0
VERTEX
8
CUT
10
136.7636
20
184.4023
0
VERTEX
8
CUT
10
136.8482
20
184.1643
0
VERTEX
8
CUT
10
136.9564
20
183.9361
0
VERTEX
8
CUT
10
137.0870
20
183.7200
0
VERTEX
8
CUT
10
137.2388
20
183.5182
0
VERTEX
8
CUT
10
137.4102
20
183.3327
0
VERTEX
8
CUT
10
137.6821
20
183.0666
0
VERTEX
8
CUT
10
137.8575
20
182.9104
0
VERTEX
8
CUT
10
138.0468
20
182.7714
0
VERTEX
8
CUT
10
138.2483
20
182.6508
0
VERTEX
8
CUT
10
138.4603
20
182.5496
0
VERTEX
8
CUT
10
139.5650
20
182.0844
0
VERTEX
8
CUT
10
139.7980
20
181.9997
0
VERTEX
8
CUT
10
140.0382
20
181.9384
0
VERTEX
8
CUT
10
140.2834
20
181.9013
0
VERTEX
8
CUT
10
140.5310
20
181.8886
0
VERTEX
8
CUT
10
143.8770
20
181.8831
0
VERTEX
8
CUT
10
144.1017
20
181.8928
0
VERTEX
8
CUT
10
144.3247
20
181.9227
0
VERTEX
8
CUT
10
144.5440
20
181.9726
0
VERTEX
8
CUT
10
144.7580
20
182.0419
0
VERTEX
8
CUT
10
144.8701
20
182.0839
0
VERTEX
8
CUT
10
144.8750
20
182.0856
0
VERTEX
8
CUT
10
144.9231
20
182.0994
0
VERTEX
8
CUT
10
144.9485
20
182.1043
0
VERTEX
8
CUT
10
144.9715
20
182.1073
0
VERTEX
8
CUT
10
147.6468
20
182.3924
0
VERTEX
8
CUT
10
147.8914
20
182.4308
0
VERTEX
8
CUT
10
148.1309
20
182.4932
0
VERTEX
8
CUT
10
148.3631
20
182.5789
0
VERTEX
8
CUT
10
148.4828
20
182.6300
0
VERTEX
8
CUT
10
148.4994
20
182.6367
0
VERTEX
8
CUT
10
148.5361
20
182.6483
0
VERTEX
8
CUT
10
148.5743
20
182.6528
0
VERTEX
8
CUT
10
148.5922
20
182.6536
0
VERTEX
8
CUT
10
150.0719
20
182.6854
0
VERTEX
8
CUT
10
150.1469
20
182.6847
0
VERTEX
8
CUT
10
150.1697
20
182.6830
0
VERTEX
8
CUT
10
150.4204
20
182.6773
0
VERTEX
8
CUT
10
150.6704
20
182.6967
0
VERTEX
8
CUT
10
150.9172
20
182.7411
0
VERTEX
8
CUT
10
151.1583
20
182.8100
0
VERTEX
8
CUT
10
151.3912
20
182.9027
0
VERTEX
8
CUT
10
151.6138
20
183.0182
0
VERTEX
8
CUT
10
151.8236
20
183.1555
0
VERTEX
8
CUT
10
152.0186
20
183.3131
0
VERTEX
8
CUT
10
152.1969
20
183.4894
0
VERTEX
8
CUT
10
152.3566
20
183.6827
0
VERTEX
8
CUT
10
152.4961
20
183.8911
0
VERTEX
8
CUT
10
152.6141
20
184.1123
0
VERTEX
8
CUT
10
152.7093
20
184.3443
0
VERTEX
8
CUT
10
152.7808
20
184.5846
0
VERTEX
8
CUT
10
152.8278
20
184.8309
0
VERTEX
8
CUT
10
152.8500
20
185.0807
0
VERTEX
8
CUT
10
152.8470
20
185.3314
0
VERTEX
8
CUT
10
152.8189
20
185.5806
0
VERTEX
8
CUT
10
152.7660
20
185.8257
0
VERTEX
8
CUT
10
152.6888
20
186.0642
0
VERTEX
8
CUT
10
152.5881
20
186.2939
0
VERTEX
8
CUT
10
152.4478
20
186.5747
0
VERTEX
8
CUT
10
152.2968
20
186.8360
0
VERTEX
8
CUT
10
152.1155
20
187.0773
0
VERTEX
8
CUT
10
151.5969
20
187.6867
0
VERTEX
8
CUT
10
151.5580
20
187.7347
0
VERTEX
8
CUT
10
151.5461
20
187.7503
0
VERTEX
8
CUT
10
151.4790
20
187.8471
0
VERTEX
8
CUT
10
151.4245
20
187.9451
0
VERTEX
8
CUT
10
151.3799
20
188.0480
0
VERTEX
8
CUT
10
151.3458
20
188.1548
0
VERTEX
8
CUT
10
151.3223
20
188.2644
0
VERTEX
8
CUT
10
151.3023
20
188.4429
0
VERTEX
8
CUT
10
151.3008
20
188.4427
0
VERTEX
8
CUT
10
151.2855
20
188.5822
0
VERTEX
8
CUT
10
151.2377
20
188.8133
0
VERTEX
8
CUT
10
151.1682
20
189.0389
0
VERTEX
8
CUT
10
151.0779
20
189.2569
0
VERTEX
8
CUT
10
150.9673
20
189.4655
0
VERTEX
8
CUT
10
150.8376
20
189.6627
0
VERTEX
8
CUT
10
150.6898
20
189.8468
0
VERTEX
8
CUT
10
150.5254
20
190.0161
0
VERTEX
8
CUT
10
150.3457
20
190.1692
0
VERTEX
8
CUT
10
150.1524
20
190.3046
0
VERTEX
8
CUT
10
149.9472
20
190.4212
0
VERTEX
8
CUT
10
149.7319
20
190.5179
0
VERTEX
8
CUT
10
149.5180
20
190.5907
0
VERTEX
8
CUT
10
149.4107
20
190.6333
0
VERTEX
8
CUT
10
149.3124
20
190.6839
0
VERTEX
8
CUT
10
149.1636
20
190.7799
0
VERTEX
8
CUT
10
149.1621
20
190.7775
0
VERTEX
8
CUT
10
149.0560
20
190.8459
0
VERTEX
8
CUT
10
148.8382
20
190.9578
0
VERTEX
8
CUT
10
148.6106
20
191.0479
0
VERTEX
8
CUT
10
148.3752
20
191.1153
0
VERTEX
8
CUT
10
148.1343
20
191.1593
0
VERTEX
8
CUT
10
147.8903
20
191.1796
0
VERTEX
8
CUT
10
147.6454
20
191.1759
0
VERTEX
8
CUT
10
147.4022
20
191.1482
0
VERTEX
8
CUT
10
147.1627
20
191.0969
0
VERTEX
8
CUT
10
146.9295
20
191.0224
0
VERTEX
8
CUT
10
146.7046
20
190.9255
0
VERTEX
8
CUT
10
146.4904
20
190.8070
0
VERTEX
8
CUT
10
146.2887
20
190.6682
0
VERTEX
8
CUT
10
146.1016
20
190.5102
0
VERTEX
8
CUT
10
145.9308
20
190.3347
0
VERTEX
8
CUT
10
145.7780
20
190.1434
0
VERTEX
8
CUT
10
145.6447
20
189.9380
0
VERTEX
8
CUT
10
145.5321
20
189.7206
0
VERTEX
8
CUT
10
145.4658
20
189.5546
0
VERTEX
8
CUT
10
145.4655
20
189.5548
0
VERTEX
8
CUT
10
145.4009
20
189.3927
0
VERTEX
8
CUT
10
145.3511
20
189.2958
0
VERTEX
8
CUT
10
145.2923
20
189.2041
0
VERTEX
8
CUT
10
145.2249
20
189.1186
0
VERTEX
8
CUT
10
145.1496
20
189.0398
0
VERTEX
8
CUT
10
145.0671
20
188.9687
0
VERTEX
8
CUT
10
144.9782
20
188.9058
0
VERTEX
8
CUT
10
144.8836
20
188.8517
0
VERTEX
8
CUT
10
144.7843
20
188.8069
0
VERTEX
8
CUT
10
144.6760
20
188.7701
0
VERTEX
8
CUT
10
144.6307
20
188.7571
0
VERTEX
8
CUT
10
144.3710
20
188.6669
0
VERTEX
8
CUT
10
144.1229
20
188.5487
0
VERTEX
8
CUT
10
143.8892
20
188.4039
0
VERTEX
8
CUT
10
143.6728
20
188.2344
0
VERTEX
8
CUT
10
143.2223
20
187.8396
0
VERTEX
8
CUT
10
143.1799
20
187.8042
0
VERTEX
8
CUT
10
143.1662
20
187.7932
0
VERTEX
8
CUT
10
143.0811
20
187.7310
0
VERTEX
8
CUT
10
142.9909
20
187.6766
0
VERTEX
8
CUT
10
142.9755
20
187.6682
0
VERTEX
8
CUT
10
142.9264
20
187.6429
0
VERTEX
8
CUT
10
142.7381
20
187.5509
0
VERTEX
8
CUT
10
142.6865
20
187.5272
0
VERTEX
8
CUT
10
142.6700
20
187.5200
0
VERTEX
8
CUT
10
142.5688
20
187.4815
0
VERTEX
8
CUT
10
142.4695
20
187.4538
0
VERTEX
8
CUT
10
142.3682
20
187.4352
0
VERTEX
8
CUT
10
142.2604
20
187.4254
0
VERTEX
8
CUT
10
142.2424
20
187.4245
0
VERTEX
8
CUT
10
142.1856
20
187.4232
0
VERTEX
8
CUT
10
141.1939
20
187.4232
0
VERTEX
8
CUT
10
141.1318
20
187.4248
0
VERTEX
8
CUT
10
141.1121
20
187.4258
0
VERTEX
8
CUT
10
140.9944
20
187.4375
0
VERTEX
8
CUT
10
140.8839
20
187.4597
0
VERTEX
8
CUT
10
140.7762
20
187.4928
0
VERTEX
8
CUT
10
140.6723
20
187.5364
0
VERTEX
8
CUT
10
140.5520
20
187.6016
0
VERTEX
8
CUT
10
140.3344
20
187.7063
0
VERTEX
8
CUT
10
140.1078
20
187.7895
0
VERTEX
8
CUT
10
139.8742
20
187.8505
0
VERTEX
8
CUT
10
139.6358
20
187.8886
0
VERTEX
8
CUT
10
139.3948
20
187.9036
0
VERTEX
8
CUT
10
139.1536
20
187.8952
0
VERTEX
8
CUT
10
138.9142
20
187.8636
0
VERTEX
8
CUT
10
138.6790
20
187.8091
0
VERTEX
8
CUT
10
138.4502
20
187.7322
0
VERTEX
8
CUT
10
138.2299
20
187.6335
0
VERTEX
8
CUT
10
138.0201
20
187.5140
0
VERTEX
8
CUT
10
137.8228
20
187.3749
0
VERTEX
8
CUT
10
137.6398
20
187.2174
0
VERTEX
8
CUT
10
137.4729
20
187.0429
0
VERTEX
8
CUT
10
137.3236
20
186.8532
0
VERTEX
8
CUT
10
137.1215
20
186.5691
0
VERTEX
8
CUT
10
136.9857
20
186.3562
0
VERTEX
8
CUT
10
136.8720
20
186.1307
0
VERTEX
8
CUT
10
136.7817
20
185.8949
0
VERTEX
8
CUT
10
136.7156
20
185.6512
0
SEQEND
0
POLYLINE
8
CUT
66
1
70
1
10
0.0
20
0.0
30
0.0
0
VERTEX
8
CUT
10
124.1988
20
122.3137
0
VERTEX
8
CUT
10
124.2515
20
122.0255
0
VERTEX
8
CUT
10
124.6579
20
120.3628
0
VERTEX
8
CUT
10
124.7266
20
120.1309
0
VERTEX
8
CUT
10
124.8174
20
119.9068
0
VERTEX
8
CUT
10
126.2771
20
116.7510
0
VERTEX
8
CUT
10
126.4031
20
116.5131
0
VERTEX
8
CUT
10
126.5540
20
116.2901
0
VERTEX
8
CUT
10
129.6802
20
112.1665
0
VERTEX
8
CUT
10
129.8616
20
111.9533
0
VERTEX
8
CUT
10
133.1241
20
108.5257
0
VERTEX
8
CUT
10
133.1273
20
108.5222
0
VERTEX
8
CUT
10
133.1737
20
108.4659
0
VERTEX
8
CUT
10
133.1835
20
108.4525
0
VERTEX
8
CUT
10
135.6760
20
104.8828
0
VERTEX
8
CUT
10
135.6790
20
104.8782
0
VERTEX
8
CUT
10
135.7211
20
104.8059
0
VERTEX
8
CUT
10
135.7296
20
104.7888
0
VERTEX
8
CUT
10
137.6202
20
100.7307
0
VERTEX
8
CUT
10
137.6276
20
100.7137
0
VERTEX
8
CUT
10
137.6540
20
100.6386
0
VERTEX
8
CUT
10
137.6588
20
100.6207
0
VERTEX
8
CUT
10
138.4777
20
97.2706
0
VERTEX
8
CUT
10
138.4824
20
97.2486
0
VERTEX
8
CUT
10
138.4940
20
97.1523
0
VERTEX
8
CUT
10
138.4947
20
97.1299
0
VERTEX
8
CUT
10
138.4977
20
91.6770
0
VERTEX
8
CUT
10
138.4973
20
91.6599
0
VERTEX
8
CUT
10
138.4940
20
91.6231
0
VERTEX
8
CUT
10
138.4872
20
91.5865
0
VERTEX
8
CUT
10
138.4831
20
91.5704
0
VERTEX
8
CUT
10
137.3635
20
87.5731
0
VERTEX
8
CUT
10
137.3581
20
87.5557
0
VERTEX
8
CUT
10
137.3298
20
87.4826
0
VERTEX
8
CUT
10
137.3220
20
87.4661
0
VERTEX
8
CUT
10
136.5259
20
85.8847
0
VERTEX
8
CUT
10
136.5235
20
85.8801
0
VERTEX
8
CUT
10
136.4820
20
85.8118
0
VERTEX
8
CUT
10
136.4717
20
85.7969
0
VERTEX
8
CUT
10
134.1763
20
82.6619
0
VERTEX
8
CUT
10
134.1635
20
82.6454
0
VERTEX
8
CUT
10
134.0634
20
82.5365
0
VERTEX
8
CUT
10
133.9560
20
82.4273
0
VERTEX
8
CUT
10
133.7997
20
82.2328
0
VERTEX
8
CUT
10
133.6636
20
82.0237
0
VERTEX
8
CUT
10
133.5490
20
81.8021
0
VERTEX
8
CUT
10
133.4571
20
81.5702
0
VERTEX
8
CUT
10
133.3887
20
81.3303
0
VERTEX
8
CUT
10
133.3446
20
81.0847
0
VERTEX
8
CUT
10
133.3251
20
80.8360
0
VERTEX
8
CUT
10
133.3306
20
80.5865
0
VERTEX
8
CUT
10
133.3609
20
80.3389
0
VERTEX
8
CUT
10
133.4157
20
80.0955
0
VERTEX
8
CUT
10
133.4945
20
79.8588
0
VERTEX
8
CUT
10
133.5965
20
79.6311
0
VERTEX
8
CUT
10
133.7207
20
79.4147
0
VERTEX
8
CUT
10
133.8659
20
79.2118
0
VERTEX
8
CUT
10
134.0305
20
79.0244
0
VERTEX
8
CUT
10
134.2130
20
78.8543
0
VERTEX
8
CUT
10
134.4116
20
78.7032
0
VERTEX
8
CUT
10
134.6242
20
78.5727
0
VERTEX
8
CUT
10
134.8488
20
78.4640
0
VERTEX
8
CUT
10
135.0831
20
78.3783
0
VERTEX
8
CUT
10
135.3248
20
78.3163
0
VERTEX
8
CUT
10
135.5714
20
78.2787
0
VERTEX
8
CUT
10
135.8206
20
78.2659
0
VERTEX
8
CUT
10
141.8806
20
78.2572
0
VERTEX
8
CUT
10
141.9270
20
78.2576
0
VERTEX
8
CUT
10
144.2127
20
78.2968
0
VERTEX
8
CUT
10
144.4416
20
78.3113
0
VERTEX
8
CUT
10
144.6683
20
78.3467
0
VERTEX
8
CUT
10
144.8908
20
78.4027
0
VERTEX
8
CUT
10
145.1072
20
78.4789
0
VERTEX
8
CUT
10
145.3157
20
78.5745
0
VERTEX
8
CUT
10
145.5146
20
78.6890
0
VERTEX
8
CUT
10
147.3090
20
79.8340
0
VERTEX
8
CUT
10
147.4940
20
79.9642
0
VERTEX
8
CUT
10
147.6664
20
80.1105
0
VERTEX
8
CUT
10
148.4046
20
80.7968
0
VERTEX
8
CUT
10
148.6117
20
81.0139
0
VERTEX
8
CUT
10
150.1231
20
82.8020
0
VERTEX
8
CUT
10
150.2421
20
82.9544
0
VERTEX
8
CUT
10
150.3490
20
83.1156
0
VERTEX
8
CUT
10
150.9832
20
84.1569
0
VERTEX
8
CUT
10
151.1181
20
84.4100
0
VERTEX
8
CUT
10
151.2231
20
84.6770
0
VERTEX
8
CUT
10
152.3825
20
88.2065
0
VERTEX
8
CUT
10
152.4515
20
88.4613
0
VERTEX
8
CUT
10
152.4933
20
88.7221
0
VERTEX
8
CUT
10
152.5073
20
88.9857
0
VERTEX
8
CUT
10
152.5086
20
92.3912
0
VERTEX
8
CUT
10
152.4990
20
92.6107
0
VERTEX
8
CUT
10
152.4702
20
92.8284
0
VERTEX
8
CUT
10
152.4224
20
93.0428
0
VERTEX
8
CUT
10
151.7384
20
95.5807
0
VERTEX
8
CUT
10
151.6459
20
95.8581
0
VERTEX
8
CUT
10
151.5217
20
96.1228
0
VERTEX
8
CUT
10
149.8538
20
99.1952
0
VERTEX
8
CUT
10
149.7113
20
99.4267
0
VERTEX
8
CUT
10
149.5445
20
99.6413
0
VERTEX
8
CUT
10
147.6373
20
101.8382
0
VERTEX
8
CUT
10
147.4583
20
102.0241
0
VERTEX
8
CUT
10
143.3854
20
105.8382
0
VERTEX
8
CUT
10
143.3646
20
105.8582
0
VERTEX
8
CUT
10
143.3442
20
105.8787
0
VERTEX
8
CUT
10
140.4898
20
108.8241
0
VERTEX
8
CUT
10
140.4774
20
108.8375
0
VERTEX
8
CUT
10
140.4282
20
108.8992
0
VERTEX
8
CUT
10
140.4179
20
108.9143
0
VERTEX
8
CUT
10
138.5282
20
111.8272
0
VERTEX
8
CUT
10
138.4907
20
111.8890
0
VERTEX
8
CUT
10
138.4571
20
111.9529
0
VERTEX
8
CUT
10
137.9437
20
113.0041
0
VERTEX
8
CUT
10
137.9414
20
113.0091
0
VERTEX
8
CUT
10
137.9107
20
113.0880
0
VERTEX
8
CUT
10
137.9049
20
113.1063
0
VERTEX
8
CUT
10
137.3487
20
115.0496
0
VERTEX
8
CUT
10
137.3391
20
115.0849
0
VERTEX
8
CUT
10
137.3307
20
115.1206
0
VERTEX
8
CUT
10
137.0674
20
116.3126
0
VERTEX
8
CUT
10
137.0637
20
116.3317
0
VERTEX
8
CUT
10
137.0542
20
116.4150
0
VERTEX
8
CUT
10
137.0535
20
116.4344
0
VERTEX
8
CUT
10
137.0305
20
118.5612
0
VERTEX
8
CUT
10
137.0305
20
118.5728
0
VERTEX
8
CUT
10
137.0307
20
118.5976
0
VERTEX
8
CUT
10
137.0558
20
120.0404
0
VERTEX
8
CUT
10
137.0567
20
120.0609
0
VERTEX
8
CUT
10
137.0623
20
120.1048
0
VERTEX
8
CUT
10
137.0727
20
120.1478
0
VERTEX
8
CUT
10
137.0791
20
120.1673
0
VERTEX
8
CUT
10
137.1604
20
120.3925
0
VERTEX
8
CUT
10
137.2327
20
120.6290
0
VERTEX
8
CUT
10
137.2813
20
120.8716
0
VERTEX
8
CUT
10
137.3057
20
121.1178
0
VERTEX
8
CUT
10
137.3433
20
121.8810
0
VERTEX
8
CUT
10
137.3446
20
121.8980
0
VERTEX
8
CUT
10
137.3497
20
121.9345
0
VERTEX
8
CUT
10
137.3582
20
121.9706
0
VERTEX
8
CUT
10
137.3631
20
121.9864
0
VERTEX
8
CUT
10
138.1903
20
124.4670
0
VERTEX
8
CUT
10
138.2206
20
124.5479
0
VERTEX
8
CUT
10
138.2566
20
124.6263
0
VERTEX
8
CUT
10
141.6200
20
131.2999
0
VERTEX
8
CUT
10
141.7415
20
131.5833
0
VERTEX
8
CUT
10
143.0285
20
135.1827
0
VERTEX
8
CUT
10
143.0895
20
135.3782
0
VERTEX
8
CUT
10
143.1343
20
135.5780
0
VERTEX
8
CUT
10
143.8858
20
139.7185
0
VERTEX
8
CUT
10
143.9158
20
139.9399
0
VERTEX
8
CUT
10
143.9260
20
140.1632
0
VERTEX
8
CUT
10
143.9295
20
145.4976
0
VERTEX
8
CUT
10
143.9162
20
145.7569
0
VERTEX
8
CUT
10
143.8761
20
146.0134
0
VERTEX
8
CUT
10
143.4388
20
148.0942
0
VERTEX
8
CUT
10
143.4357
20
148.1111
0
VERTEX
8
CUT
10
143.4271
20
148.1844
0
VERTEX
8
CUT
10
143.4263
20
148.2016
0
VERTEX
8
CUT
10
143.3784
20
150.1003
0
VERTEX
8
CUT
10
143.3630
20
150.3210
0
VERTEX
8
CUT
10
143.3282
20
150.5395
0
VERTEX
8
CUT
10
143.2742
20
150.7541
0
VERTEX
8
CUT
10
143.2014
20
150.9631
0
VERTEX
8
CUT
10
143.1104
20
151.1648
0
VERTEX
8
CUT
10
142.3908
20
152.5887
0
VERTEX
8
CUT
10
142.3556
20
152.6649
0
VERTEX
8
CUT
10
142.3259
20
152.7434
0
VERTEX
8
CUT
10
141.6457
20
154.7486
0
VERTEX
8
CUT
10
141.5548
20
154.9787
0
VERTEX
8
CUT
10
141.4415
20
155.1987
0
VERTEX
8
CUT
10
141.3070
20
155.4064
0
VERTEX
8
CUT
10
141.1527
20
155.5997
0
VERTEX
8
CUT
10
140.9800
20
155.7769
0
VERTEX
8
CUT
10
140.7906
20
155.9362
0
VERTEX
8
CUT
10
140.5864
20
156.0759
0
VERTEX
8
CUT
10
140.3694
20
156.1948
0
VERTEX
8
CUT
10
140.1417
20
156.2917
0
VERTEX
8
CUT
10
139.9056
20
156.3655
0
VERTEX
8
CUT
10
139.6633
20
156.4157
0
VERTEX
8
CUT
10
139.4172
20
156.4417
0
VERTEX
8
CUT
10
139.1698
20
156.4432
0
VERTEX
8
CUT
10
138.9235
20
156.4202
0
VERTEX
8
CUT
10
138.6806
20
156.3730
0
VERTEX
8
CUT
10
138.4435
20
156.3021
0
VERTEX
8
CUT
10
138.2147
20
156.2080
0
VERTEX
8
CUT
10
137.9962
20
156.0918
0
VERTEX
8
CUT
10
137.7904
20
155.9546
0
VERTEX
8
CUT
10
137.5991
20
155.7977
0
VERTEX
8
CUT
10
137.4242
20
155.6226
0
VERTEX
8
CUT
10
137.2675
20
155.4311
0
VERTEX
8
CUT
10
137.1305
20
155.2251
0
VERTEX
8
CUT
10
137.0145
20
155.0065
0
VERTEX
8
CUT
10
136.9207
20
154.7776
0
VERTEX
8
CUT
10
136.8500
20
154.5404
0
VERTEX
8
CUT
10
136.8031
20
154.2975
0
VERTEX
8
CUT
10
136.7805
20
154.0511
0
VERTEX
8
CUT
10
136.7823
20
153.8037
0
VERTEX
8
CUT
10
136.8628
20
152.3861
0
VERTEX
8
CUT
10
136.8634
20
152.3655
0
VERTEX
8
CUT
10
136.8611
20
152.3212
0
VERTEX
8
CUT
10
136.8539
20
152.2775
0
VERTEX
8
CUT
10
136.8489
20
152.2575
0
VERTEX
8
CUT
10
136.7027
20
151.7351
0
VERTEX
8
CUT
10
136.6557
20
151.5361
0
VERTEX
8
CUT
10
136.6251
20
151.3339
0
VERTEX
8
CUT
10
136.6112
20
151.1299
0
VERTEX
8
CUT
10
136.5766
20
149.8699
0
VERTEX
8
CUT
10
136.5758
20
149.8532
0
VERTEX
8
CUT
10
136.5716
20
149.8175
0
VERTEX
8
CUT
10
136.5613
20
149.7835
0
VERTEX
8
CUT
10
136.5553
20
149.7677
0
VERTEX
8
CUT
10
136.4914
20
149.6091
0
VERTEX
8
CUT
10
136.4047
20
149.3554
0
VERTEX
8
CUT
10
136.3456
20
149.0939
0
VERTEX
8
CUT
10
136.3148
20
148.8276
0
VERTEX
8
CUT
10
136.2862
20
148.3609
0
VERTEX
8
CUT
10
136.2857
20
148.3555
0
VERTEX
8
CUT
10
136.2783
20
148.3044
0
VERTEX
8
CUT
10
136.2721
20
148.2783
0
VERTEX
8
CUT
10
136.2651
20
148.2554
0
VERTEX
8
CUT
10
134.8717
20
144.0787
0
VERTEX
8
CUT
10
134.8660
20
144.0628
0
VERTEX
8
CUT
10
134.8369
20
143.9961
0
VERTEX
8
CUT
10
134.8291
20
143.9811
0
VERTEX
8
CUT
10
133.2511
20
141.1009
0
VERTEX
8
CUT
10
133.2073
20
141.0274
0
VERTEX
8
CUT
10
133.1583
20
140.9572
0
VERTEX
8
CUT
10
130.6068
20
137.5656
0
VERTEX
8
CUT
10
130.5886
20
137.5421
0
VERTEX
8
CUT
10
130.5699
20
137.5191
0
VERTEX
8
CUT
10
127.3897
20
133.7030
0
VERTEX
8
CUT
10
127.2382
20
133.5013
0
VERTEX
8
CUT
10
127.1078
20
133.2854
0
VERTEX
8
CUT
10
125.1603
20
129.6593
0
VERTEX
8
CUT
10
125.0695
20
129.4721
0
VERTEX
8
CUT
10
124.9947
20
129.2779
0
VERTEX
8
CUT
10
124.9362
20
129.0782
0
VERTEX
8
CUT
10
124.2377
20
126.2619
0
VERTEX
8
CUT
10
124.1963
20
126.0592
0
VERTEX
8
CUT
10
124.1717
20
125.8538
0
VERTEX
8
CUT
10
124.1642
20
125.6471
0
VERTEX
8
CUT
10
124.1801
20
122.6060
0
SEQEND
0
POLYLINE
8
CUT
66
1
70
1
10
0.0
20
0.0
30
0.0
0
VERTEX
8
CUT
10
44.0729
20
170.5418
0
VERTEX
8
CUT
10
44.1268
20
170.3013
0
VERTEX
8
CUT
10
44.2042
20
170.0673
0
VERTEX
8
CUT
10
44.3043
20
169.8421
0
VERTEX
8
CUT
10
44.4260
20
169.6278
0
VERTEX
8
CUT
10
44.5682
20
169.4266
0
VERTEX
8
CUT
10
44.7296
20
169.2403
0
VERTEX
8
CUT
10
44.9085
20
169.0708
0
VERTEX
8
CUT
10
45.1033
20
168.9198
0
VERTEX
8
CUT
10
45.3119
20
168.7887
0
VERTEX
8
CUT
10
45.5325
20
168.6787
0
VERTEX
8
CUT
10
45.7628
20
168.5910
0
VERTEX
8
CUT
10
46.0007
20
168.5264
0
VERTEX
8
CUT
10
46.2437
20
168.4856
0
VERTEX
8
CUT
10
46.4896
20
168.4688
0
VERTEX
8
CUT
10
46.7359
20
168.4764
0
VERTEX
8
CUT
10
46.9803
20
168.5081
0
VERTEX
8
CUT
10
47.2204
20
168.5638
0
VERTEX
8
CUT
10
47.4538
20
168.6429
0
VERTEX
8
CUT
10
48.8215
20
169.1826
0
VERTEX
8
CUT
10
48.8394
20
169.1891
0
VERTEX
8
CUT
10
48.8771
20
169.2000
0
VERTEX
8
CUT
10
48.9161
20
169.2034
0
VERTEX
8
CUT
10
48.9351
20
169.2037
0
VERTEX
8
CUT
10
52.9596
20
169.1698
0
VERTEX
8
CUT
10
52.9801
20
169.1691
0
VERTEX
8
CUT
10
53.0223
20
169.1643
0
VERTEX
8
CUT
10
53.0637
20
169.1553
0
VERTEX
8
CUT
10
53.0833
20
169.1493
0
VERTEX
8
CUT
10
54.7830
20
168.5877
0
VERTEX
8
CUT
10
54.8668
20
168.5566
0
VERTEX
8
CUT
10
54.9480
20
168.5194
0
VERTEX
8
CUT
10
56.0481
20
167.9671
0
VERTEX
8
CUT
10
56.0490
20
167.9667
0
VERTEX
8
CUT
10
57.7507
20
167.1124
0
VERTEX
8
CUT
10
57.7695
20
167.1023
0
VERTEX
8
CUT
10
57.8436
20
167.0545
0
VERTEX
8
CUT
10
57.8606
20
167.0415
0
VERTEX
8
CUT
10
61.1195
20
164.4063
0
VERTEX
8
CUT
10
61.1357
20
164.3925
0
VERTEX
8
CUT
10
61.1980
20
164.3299
0
VERTEX
8
CUT
10
61.2118
20
164.3137
0
VERTEX
8
CUT
10
63.7234
20
161.1832
0
VERTEX
8
CUT
10
63.7716
20
161.1189
0
VERTEX
8
CUT
10
63.8155
20
161.0515
0
VERTEX
8
CUT
10
66.4302
20
156.7355
0
VERTEX
8
CUT
10
66.4557
20
156.6913
0
VERTEX
8
CUT
10
66.4793
20
156.6462
0
VERTEX
8
CUT
10
68.1840
20
153.2177
0
VERTEX
8
CUT
10
68.2048
20
153.1736
0
VERTEX
8
CUT
10
68.2239
20
153.1286
0
VERTEX
8
CUT
10
69.4614
20
150.0448
0
VERTEX
8
CUT
10
69.5775
20
149.7961
0
VERTEX
8
CUT
10
71.7750
20
145.6903
0
VERTEX
8
CUT
10
71.9338
20
145.4325
0
VERTEX
8
CUT
10
74.3914
20
141.9355
0
VERTEX
8
CUT
10
74.5197
20
141.7684
0
VERTEX
8
CUT
10
74.6617
20
141.6126
0
VERTEX
8
CUT
10
78.9178
20
137.3210
0
VERTEX
8
CUT
10
79.0773
20
137.1736
0
VERTEX
8
CUT
10
79.2490
20
137.0406
0
VERTEX
8
CUT
10
81.9426
20
135.1349
0
VERTEX
8
CUT
10
82.1020
20
135.0310
0
VERTEX
8
CUT
10
82.2689
20
134.9395
0
VERTEX
8
CUT
10
85.3984
20
133.3755
0
VERTEX
8
CUT
10
85.6016
20
133.2850
0
VERTEX
8
CUT
10
85.8120
20
133.2129
0
VERTEX
8
CUT
10
90.3055
20
131.8943
0
VERTEX
8
CUT
10
90.5995
20
131.8270
0
VERTEX
8
CUT
10
90.8994
20
131.7956
0
VERTEX
8
CUT
10
91.7468
20
131.7582
0
VERTEX
8
CUT
10
91.7668
20
131.7568
0
VERTEX
8
CUT
10
91.8076
20
131.7509
0
VERTEX
8
CUT
10
91.8477
20
131.7408
0
VERTEX
8
CUT
10
91.8667
20
131.7345
0
VERTEX
8
CUT
10
92.1005
20
131.6500
0
VERTEX
8
CUT
10
92.3640
20
131.5710
0
VERTEX
8
CUT
10
92.6345
20
131.5213
0
VERTEX
8
CUT
10
92.9088
20
131.5017
0
VERTEX
8
CUT
10
95.5245
20
131.4587
0
VERTEX
8
CUT
10
95.5299
20
131.4585
0
VERTEX
8
CUT
10
95.5798
20
131.4537
0
VERTEX
8
CUT
10
95.6046
20
131.4492
0
VERTEX
8
CUT
10
95.6280
20
131.4435
0
VERTEX
8
CUT
10
96.1812
20
131.2946
0
VERTEX
8
CUT
10
96.4383
20
131.2398
0
VERTEX
8
CUT
10
96.6997
20
131.2122
0
VERTEX
8
CUT
10
96.9625
20
131.2122
0
VERTEX
8
CUT
10
97.2239
20
131.2398
0
VERTEX
8
CUT
10
97.4810
20
131.2947
0
VERTEX
8
CUT
10
97.7308
20
131.3763
0
VERTEX
8
CUT
10
97.9016
20
131.4422
0
VERTEX
8
CUT
10
97.9180
20
131.4481
0
VERTEX
8
CUT
10
97.9526
20
131.4581
0
VERTEX
8
CUT
10
97.9881
20
131.4618
0
VERTEX
8
CUT
10
98.0057
20
131.4624
0
VERTEX
8
CUT
10
100.3108
20
131.5001
0
VERTEX
8
CUT
10
100.5726
20
131.5181
0
VERTEX
8
CUT
10
100.8312
20
131.5635
0
VERTEX
8
CUT
10
101.0835
20
131.6358
0
VERTEX
8
CUT
10
101.3826
20
131.7387
0
VERTEX
8
CUT
10
101.4015
20
131.7447
0
VERTEX
8
CUT
10
101.4413
20
131.7541
0
VERTEX
8
CUT
10
101.4818
20
131.7594
0
VERTEX
8
CUT
10
101.5015
20
131.7606
0
VERTEX
8
CUT
10
102.6326
20
131.7967
0
VERTEX
8
CUT
10
102.8734
20
131.8161
0
VERTEX
8
CUT
10
103.1112
20
131.8586
0
VERTEX
8
CUT
10
106.5908
20
132.6560
0
VERTEX
8
CUT
10
106.8224
20
132.7209
0
VERTEX
8
CUT
10
110.0523
20
133.7967
0
VERTEX
8
CUT
10
110.2416
20
133.8684
0
VERTEX
8
CUT
10
110.4245
20
133.9552
0
VERTEX
8
CUT
10
116.1669
20
136.9706
0
VERTEX
8
CUT
10
116.3845
20
137.0993
0
VERTEX
8
CUT
10
116.5881
20
137.2494
0
VERTEX
8
CUT
10
119.7553
20
139.8418
0
VERTEX
8
CUT
10
119.9484
20
140.0175
0
VERTEX
8
CUT
10
120.8489
20
140.9270
0
VERTEX
8
CUT
10
121.0104
20
141.1067
0
VERTEX
8
CUT
10
121.1538
20
141.3012
0
VERTEX
8
CUT
10
121.2777
20
141.5086
0
VERTEX
8
CUT
10
121.3811
20
141.7269
0
VERTEX
8
CUT
10
121.4629
20
141.9543
0
VERTEX
8
CUT
10
121.5223
20
142.1885
0
VERTEX
8
CUT
10
121.5589
20
142.4273
0
VERTEX
8
CUT
10
121.5723
20
142.6685
0
VERTEX
8
CUT
10
121.5623
20
142.9099
0
VERTEX
8
CUT
10
121.5290
20
143.1492
0
VERTEX
8
CUT
10
121.4728
20
143.3842
0
VERTEX
8
CUT
10
121.3942
20
143.6127
0
VERTEX
8
CUT
10
121.2939
20
143.8325
0
VERTEX
8
CUT
10
121.1729
20
144.0416
0
VERTEX
8
CUT
10
121.0322
20
144.2380
0
VERTEX
8
CUT
10
120.8732
20
144.4199
0
VERTEX
8
CUT
10
120.6974
20
144.5857
0
VERTEX
8
CUT
10
120.5065
20
144.7337
0
VERTEX
8
CUT
10
120.3021
20
144.8626
0
VERTEX
8
CUT
10
120.0863
20
144.9711
0
VERTEX
8
CUT
10
119.8609
20
145.0583
0
VERTEX
8
CUT
10
119.6283
20
145.1234
0
VERTEX
8
CUT
10
119.3904
20
145.1656
0
VERTEX
8
CUT
10
119.1495
20
145.1848
0
VERTEX
8
CUT
10
118.9080
20
145.1805
0
VERTEX
8
CUT
10
118.6679
20
145.1530
0
VERTEX
8
CUT
10
118.4317
20
145.1025
0
VERTEX
8
CUT
10
118.2014
20
145.0293
0
VERTEX
8
CUT
10
117.7602
20
144.8654
0
VERTEX
8
CUT
10
117.7423
20
144.8592
0
VERTEX
8
CUT
10
117.7052
20
144.8494
0
VERTEX
8
CUT
10
117.6764
20
144.8747
0
VERTEX
8
CUT
10
117.6631
20
144.8882
0
VERTEX
8
CUT
10
117.1204
20
145.4674
0
VERTEX
8
CUT
10
117.1068
20
145.4827
0
VERTEX
8
CUT
10
117.0815
20
145.5161
0
VERTEX
8
CUT
10
117.0762
20
145.5577
0
VERTEX
8
CUT
10
117.0752
20
145.5781
0
VERTEX
8
CUT
10
116.9923
20
149.4140
0
VERTEX
8
CUT
10
116.9715
20
149.6864
0
VERTEX
8
CUT
10
116.9211
20
149.9549
0
VERTEX
8
CUT
10
116.1970
20
152.9099
0
VERTEX
8
CUT
10
116.1357
20
153.1198
0
VERTEX
8
CUT
10
116.0563
20
153.3235
0
VERTEX
8
CUT
10
115.9595
20
153.5195
0
VERTEX
8
CUT
10
114.5112
20
156.1532
0
VERTEX
8
CUT
10
114.3909
20
156.3499
0
VERTEX
8
CUT
10
114.2530
20
156.5346
0
VERTEX
8
CUT
10
114.0987
20
156.7059
0
VERTEX
8
CUT
10
112.0669
20
158.7617
0
VERTEX
8
CUT
10
111.8667
20
158.9435
0
VERTEX
8
CUT
10
111.6479
20
159.1026
0
VERTEX
8
CUT
10
110.5698
20
159.8010
0
VERTEX
8
CUT
10
110.3821
20
159.9113
0
VERTEX
8
CUT
10
110.1856
20
160.0048
0
VERTEX
8
CUT
10
109.9817
20
160.0809
0
VERTEX
8
CUT
10
109.6563
20
160.1863
0
VERTEX
8
CUT
10
109.4204
20
160.2503
0
VERTEX
8
CUT
10
109.1794
20
160.2908
0
VERTEX
8
CUT
10
108.9356
20
160.3077
0
VERTEX
8
CUT
10
108.3891
20
160.3187
0
VERTEX
8
CUT
10
108.1360
20
160.3110
0
VERTEX
8
CUT
10
107.8849
20
160.2776
0
VERTEX
8
CUT
10
106.6788
20
160.0550
0
VERTEX
8
CUT
10
106.4594
20
160.0041
0
VERTEX
8
CUT
10
106.2454
20
159.9338
0
VERTEX
8
CUT
10
106.0387
20
159.8444
0
VERTEX
8
CUT
10
105.8408
20
159.7369
0
VERTEX
8
CUT
10
105.6534
20
159.6119
0
VERTEX
8
CUT
10
105.4780
20
159.4706
0
VERTEX
8
CUT
10
103.4172
20
157.6511
0
VERTEX
8
CUT
10
103.2382
20
157.4764
0
VERTEX
8
CUT
10
103.0776
20
157.2847
0
VERTEX
8
CUT
10
101.6571
20
155.4058
0
VERTEX
8
CUT
10
101.5327
20
155.2254
0
VERTEX
8
CUT
10
101.4247
20
155.0348
0
VERTEX
8
CUT
10
101.3337
20
154.8354
0
VERTEX
8
CUT
10
101.2605
20
154.6289
0
VERTEX
8
CUT
10
100.5371
20
152.2621
0
VERTEX
8
CUT
10
100.4761
20
152.0201
0
VERTEX
8
CUT
10
100.4396
20
151.7733
0
VERTEX
8
CUT
10
100.4279
20
151.5240
0
VERTEX
8
CUT
10
100.4411
20
151.2749
0
VERTEX
8
CUT
10
100.4790
20
151.0283
0
VERTEX
8
CUT
10
100.5414
20
150.7867
0
VERTEX
8
CUT
10
100.6275
20
150.5525
0
VERTEX
8
CUT
10
100.7365
20
150.3280
0
VERTEX
8
CUT
10
100.8674
20
150.1156
0
VERTEX
8
CUT
10
101.0188
20
149.9173
0
VERTEX
8
CUT
10
101.1892
20
149.7350
0
VERTEX
8
CUT
10
101.3769
20
149.5706
0
VERTEX
8
CUT
10
101.5800
20
149.4258
0
VERTEX
8
CUT
10
101.7966
20
149.3019
0
VERTEX
8
CUT
10
102.0245
20
149.2002
0
VERTEX
8
CUT
10
102.2614
20
149.1218
0
VERTEX
8
CUT
10
102.5049
20
149.0674
0
VERTEX
8
CUT
10
102.7526
20
149.0375
0
VERTEX
8
CUT
10
102.8080
20
149.0336
0
VERTEX
8
CUT
10
103.3260
20
148.9856
0
VERTEX
8
CUT
10
103.3443
20
148.9835
0
VERTEX
8
CUT
10
103.3815
20
148.9765
0
VERTEX
8
CUT
10
103.4169
20
148.9627
0
VERTEX
8
CUT
10
103.4335
20
148.9549
0
VERTEX
8
CUT
10
104.4763
20
148.4331
0
VERTEX
8
CUT
10
104.4950
20
148.4231
0
VERTEX
8
CUT
10
104.5318
20
148.3995
0
VERTEX
8
CUT
10
104.5660
20
148.3720
0
VERTEX
8
CUT
10
104.5814
20
148.3574
0
VERTEX
8
CUT
10
105.9398
20
146.9989
0
VERTEX
8
CUT
10
105.9517
20
146.9865
0
VERTEX
8
CUT
10
105.9747
20
146.9592
0
VERTEX
8
CUT
10
105.9923
20
146.9286
0
VERTEX
8
CUT
10
106.0000
20
146.9130
0
VERTEX
8
CUT
10
106.2664
20
146.3439
0
VERTEX
8
CUT
10
106.2736
20
146.3276
0
VERTEX
8
CUT
10
106.2862
20
146.2928
0
VERTEX
8
CUT
10
106.2956
20
146.2568
0
VERTEX
8
CUT
10
106.2989
20
146.2398
0
VERTEX
8
CUT
10
106.5655
20
144.6637
0
VERTEX
8
CUT
10
106.5682
20
144.6458
0
VERTEX
8
CUT
10
106.5710
20
144.6087
0
VERTEX
8
CUT
10
106.5569
20
144.5741
0
VERTEX
8
CUT
10
106.5492
20
144.5583
0
VERTEX
8
CUT
10
105.8923
20
143.2849
0
VERTEX
8
CUT
10
105.8820
20
143.2662
0
VERTEX
8
CUT
10
105.8578
20
143.2296
0
VERTEX
8
CUT
10
105.8298
20
143.1957
0
VERTEX
8
CUT
10
105.8150
20
143.1805
0
VERTEX
8
CUT
10
104.6162
20
142.0126
0
VERTEX
8
CUT
10
104.6018
20
141.9993
0
VERTEX
8
CUT
10
104.5702
20
141.9741
0
VERTEX
8
CUT
10
104.5326
20
141.9593
0
VERTEX
8
CUT
10
104.5138
20
141.9536
0
VERTEX
8
CUT
10
103.3371
20
141.6220
0
VERTEX
8
CUT
10
103.3195
20
141.6175
0
VERTEX
8
CUT
10
103.2367
20
141.6022
0
VERTEX
8
CUT
10
102.9996
20
141.5462
0
VERTEX
8
CUT
10
102.7690
20
141.4675
0
VERTEX
8
CUT
10
102.5472
20
141.3666
0
VERTEX
8
CUT
10
102.3363
20
141.2447
0
VERTEX
8
CUT
10
102.1382
20
141.1028
0
VERTEX
8
CUT
10
101.9549
20
140.9423
0
VERTEX
8
CUT
10
101.7881
20
140.7647
0
VERTEX
8
CUT
10
101.6393
20
140.5717
0
VERTEX
8
CUT
10
101.5604
20
140.4456
0
VERTEX
8
CUT
10
101.5106
20
140.3738
0
VERTEX
8
CUT
10
101.4987
20
140.3591
0
VERTEX
8
CUT
10
101.0641
20
139.8467
0
VERTEX
8
CUT
10
101.0503
20
139.8313
0
VERTEX
8
CUT
10
101.0195
20
139.8019
0
VERTEX
8
CUT
10
100.9833
20
139.7795
0
VERTEX
8
CUT
10
100.9649
20
139.7700
0
VERTEX
8
CUT
10
100.6171
20
139.6026
0
VERTEX
8
CUT
10
100.6008
20
139.5952
0
VERTEX
8
CUT
10
100.5663
20
139.5823
0
VERTEX
8
CUT
10
100.5294
20
139.5791
0
VERTEX
8
CUT
10
100.5120
20
139.5787
0
VERTEX
8
CUT
10
99.0859
20
139.5840
0
VERTEX
8
CUT
10
99.0678
20
139.5845
0
VERTEX
8
CUT
10
99.0303
20
139.5881
0
VERTEX
8
CUT
10
98.9932
20
139.5951
0
VERTEX
8
CUT
10
98.9762
20
139.5996
0
VERTEX
8
CUT
10
96.8537
20
140.2058
0
VERTEX
8
CUT
10
96.8356
20
140.2115
0
VERTEX
8
CUT
10
96.7627
20
140.2400
0
VERTEX
8
CUT
10
96.7456
20
140.2482
0
VERTEX
8
CUT
10
94.5189
20
141.3755
0
VERTEX
8
CUT
10
94.5012
20
141.3850
0
VERTEX
8
CUT
10
94.4661
20
141.4076
0
VERTEX
8
CUT
10
94.4334
20
141.4335
0
VERTEX
8
CUT
10
94.4187
20
141.4473
0
VERTEX
8
CUT
10
92.9932
20
142.8413
0
VERTEX
8
CUT
10
92.9790
20
142.8559
0
VERTEX
8
CUT
10
92.9520
20
142.8884
0
VERTEX
8
CUT
10
92.9285
20
142.9234
0
VERTEX
8
CUT
10
92.9185
20
142.9412
0
VERTEX
8
CUT
10
91.9601
20
144.7493
0
VERTEX
8
CUT
10
91.9576
20
144.7541
0
VERTEX
8
CUT
10
91.9377
20
144.8000
0
VERTEX
8
CUT
10
91.9297
20
144.8238
0
VERTEX
8
CUT
10
91.9234
20
144.8470
0
VERTEX
8
CUT
10
91.6296
20
146.0387
0
VERTEX
8
CUT
10
91.6247
20
146.0613
0
VERTEX
8
CUT
10
91.6127
20
146.1563
0
VERTEX
8
CUT
10
91.6119
20
146.1794
0
VERTEX
8
CUT
10
91.5840
20
149.4319
0
VERTEX
8
CUT
10
91.5843
20
149.4520
0
VERTEX
8
CUT
10
91.5882
20
149.4933
0
VERTEX
8
CUT
10
91.5962
20
149.5340
0
VERTEX
8
CUT
10
91.6015
20
149.5533
0
VERTEX
8
CUT
10
91.6046
20
149.5634
0
VERTEX
8
CUT
10
91.7105
20
149.9113
0
VERTEX
8
CUT
10
91.7788
20
150.1940
0
VERTEX
8
CUT
10
91.8139
20
150.4826
0
VERTEX
8
CUT
10
91.9212
20
152.1942
0
VERTEX
8
CUT
10
91.9226
20
152.2114
0
VERTEX
8
CUT
10
91.9280
20
152.2467
0
VERTEX
8
CUT
10
91.9364
20
152.2816
0
VERTEX
8
CUT
10
91.9414
20
152.2977
0
VERTEX
8
CUT
10
92.2459
20
153.2060
0
VERTEX
8
CUT
10
92.2667
20
153.2596
0
VERTEX
8
CUT
10
92.3055
20
153.3020
0
VERTEX
8
CUT
10
92.4738
20
153.4694
0
VERTEX
8
CUT
10
92.6284
20
153.6380
0
VERTEX
8
CUT
10
92.7669
20
153.8200
0
VERTEX
8
CUT
10
92.8883
20
154.0139
0
VERTEX
8
CUT
10
93.9286
20
155.8589
0
VERTEX
8
CUT
10
93.9674
20
155.9230
0
VERTEX
8
CUT
10
94.0006
20
155.9744
0
VERTEX
8
CUT
10
94.0431
20
156.0361
0
VERTEX
8
CUT
10
94.6082
20
156.8058
0
VERTEX
8
CUT
10
94.6460
20
156.8547
0
VERTEX
8
CUT
10
94.6584
20
156.8699
0
VERTEX
8
CUT
10
94.7372
20
156.9576
0
VERTEX
8
CUT
10
94.8202
20
157.0332
0
VERTEX
8
CUT
10
94.9102
20
157.1003
0
VERTEX
8
CUT
10
95.0063
20
157.1582
0
VERTEX
8
CUT
10
95.1078
20
157.2063
0
VERTEX
8
CUT
10
95.2135
20
157.2441
0
VERTEX
8
CUT
10
95.3224
20
157.2713
0
VERTEX
8
CUT
10
95.4334
20
157.2875
0
VERTEX
8
CUT
10
95.5455
20
157.2928
0
VERTEX
8
CUT
10
95.6576
20
157.2869
0
VERTEX
8
CUT
10
95.8339
20
157.2600
0
VERTEX
8
CUT
10
96.0677
20
157.2356
0
VERTEX
8
CUT
10
96.3028
20
157.2332
0
VERTEX
8
CUT
10
96.5371
20
157.2529
0
VERTEX
8
CUT
10
96.7684
20
157.2945
0
VERTEX
8
CUT
10
96.9949
20
157.3577
0
VERTEX
8
CUT
10
97.2144
20
157.4418
0
VERTEX
8
CUT
10
97.4250
20
157.5463
0
VERTEX
8
CUT
10
97.6249
20
157.6700
0
VERTEX
8
CUT
10
97.8123
20
157.8119
0
VERTEX
8
CUT
10
97.9855
20
157.9709
0
VERTEX
8
CUT
10
98.1430
20
158.1454
0
VERTEX
8
CUT
10
98.1648
20
158.1719
0
VERTEX
8
CUT
10
98.1803
20
158.1887
0
VERTEX
8
CUT
10
100.0015
20
160.0747
0
VERTEX
8
CUT
10
100.0048
20
160.0780
0
VERTEX
8
CUT
10
100.0584
20
160.1262
0
VERTEX
8
CUT
10
100.0712
20
160.1364
0
VERTEX
8
CUT
10
102.5758
20
162.0545
0
VERTEX
8
CUT
10
102.5907
20
162.0654
0
VERTEX
8
CUT
10
102.6582
20
162.1073
0
VERTEX
8
CUT
10
102.6746
20
162.1158
0
VERTEX
8
CUT
10
103.2484
20
162.3985
0
VERTEX
8
CUT
10
103.2533
20
162.4008
0
VERTEX
8
CUT
10
103.2985
20
162.4186
0
VERTEX
8
CUT
10
103.3268
20
162.4243
0
VERTEX
8
CUT
10
103.3510
20
162.4277
0
VERTEX
8
CUT
10
103.3954
20
162.4326
0
VERTEX
8
CUT
10
103.6441
20
162.4732
0
VERTEX
8
CUT
10
103.8874
20
162.5387
0
VERTEX
8
CUT
10
104.1229
20
162.6282
0
VERTEX
8
CUT
10
104.3481
20
162.7411
0
VERTEX
8
CUT
10
104.5609
20
162.8760
0
VERTEX
8
CUT
10
105.4021
20
163.4709
0
VERTEX
8
CUT
10
105.4173
20
163.4811
0
VERTEX
8
CUT
10
105.4516
20
163.5007
0
VERTEX
8
CUT
10
105.4877
20
163.5168
0
VERTEX
8
CUT
10
105.5049
20
163.5230
0
VERTEX
8
CUT
10
107.1497
20
164.0729
0
VERTEX
8
CUT
10
107.1549
20
164.0745
0
VERTEX
8
CUT
10
107.2048
20
164.0868
0
VERTEX
8
CUT
10
107.2312
20
164.0908
0
VERTEX
8
CUT
10
107.2550
20
164.0929
0
VERTEX
8
CUT
10
107.8900
20
164.1329
0
VERTEX
8
CUT
10
108.1321
20
164.1601
0
VERTEX
8
CUT
10
108.3704
20
164.2107
0
VERTEX
8
CUT
10
109.9325
20
164.6229
0
VERTEX
8
CUT
10
109.9375
20
164.6241
0
VERTEX
8
CUT
10
109.9862
20
164.6329
0
VERTEX
8
CUT
10
110.0116
20
164.6353
0
VERTEX
8
CUT
10
110.0346
20
164.6360
0
VERTEX
8
CUT
10
113.4118
20
164.6657
0
VERTEX
8
CUT
10
113.4289
20
164.6655
0
VERTEX
8
CUT
10
113.5024
20
164.6595
0
VERTEX
8
CUT
10
113.5193
20
164.6569
0
VERTEX
8
CUT
10
115.1313
20
164.3756
0
VERTEX
8
CUT
10
115.1747
20
164.3672
0
VERTEX
8
CUT
10
115.2177
20
164.3572
0
VERTEX
8
CUT
10
116.2975
20
164.0851
0
VERTEX
8
CUT
10
116.3121
20
164.0810
0
VERTEX
8
CUT
10
116.3521
20
164.0667
0
VERTEX
8
CUT
10
116.4245
20
164.0031
0
VERTEX
8
CUT
10
116.4603
20
163.9687
0
VERTEX
8
CUT
10
116.6485
20
163.8198
0
VERTEX
8
CUT
10
116.8502
20
163.6896
0
VERTEX
8
CUT
10
117.0634
20
163.5793
0
VERTEX
8
CUT
10
117.2863
20
163.4900
0
VERTEX
8
CUT
10
117.5166
20
163.4225
0
VERTEX
8
CUT
10
117.7524
20
163.3774
0
VERTEX
8
CUT
10
117.9915
20
163.3551
0
VERTEX
8
CUT
10
118.2315
20
163.3558
0
VERTEX
8
CUT
10
118.3174
20
163.3602
0
VERTEX
8
CUT
10
118.3209
20
163.3557
0
VERTEX
8
CUT
10
118.5175
20
163.1321
0
VERTEX
8
CUT
10
118.7392
20
162.9334
0
VERTEX
8
CUT
10
119.4992
20
162.3299
0
VERTEX
8
CUT
10
119.4995
20
162.3303
0
VERTEX
8
CUT
10
119.5809
20
162.2659
0
VERTEX
8
CUT
10
119.5805
20
162.2653
0
VERTEX
8
CUT
10
120.1994
20
161.7739
0
VERTEX
8
CUT
10
120.2636
20
161.7191
0
VERTEX
8
CUT
10
120.3239
20
161.6601
0
VERTEX
8
CUT
10
121.3992
20
160.5326
0
VERTEX
8
CUT
10
121.7045
20
160.2125
0
VERTEX
8
CUT
10
121.7160
20
160.2000
0
VERTEX
8
CUT
10
121.7381
20
160.1723
0
VERTEX
8
CUT
10
121.7579
20
160.1428
0
VERTEX
8
CUT
10
121.7662
20
160.1284
0
VERTEX
8
CUT
10
123.4802
20
157.0168
0
VERTEX
8
CUT
10
123.4888
20
157.0002
0
VERTEX
8
CUT
10
123.5041
20
156.9649
0
VERTEX
8
CUT
10
123.5161
20
156.9282
0
VERTEX
8
CUT
10
123.5206
20
156.9101
0
VERTEX
8
CUT
10
123.7956
20
155.6876
0
VERTEX
8
CUT
10
123.8000
20
155.6654
0
VERTEX
8
CUT
10
123.8100
20
155.5721
0
VERTEX
8
CUT
10
123.8105
20
155.5495
0
VERTEX
8
CUT
10
123.7968
20
153.5931
0
VERTEX
8
CUT
10
123.8074
20
153.3451
0
VERTEX
8
CUT
10
123.8426
20
153.0994
0
VERTEX
8
CUT
10
123.9019
20
152.8583
0
VERTEX
8
CUT
10
123.9848
20
152.6244
0
VERTEX
8
CUT
10
124.0906
20
152.3998
0
VERTEX
8
CUT
10
124.2180
20
152.1868
0
VERTEX
8
CUT
10
124.3660
20
151.9875
0
VERTEX
8
CUT
10
124.5330
20
151.8038
0
VERTEX
8
CUT
10
124.7174
20
151.6377
0
VERTEX
8
CUT
10
124.9174
20
151.4906
0
VERTEX
8
CUT
10
125.1310
20
151.3641
0
VERTEX
8
CUT
10
125.3560
20
151.2594
0
VERTEX
8
CUT
10
125.5904
20
151.1775
0
VERTEX
8
CUT
10
125.8317
20
151.1193
0
VERTEX
8
CUT
10
126.0775
20
151.0853
0
VERTEX
8
CUT
10
126.3256
20
151.0758
0
VERTEX
8
CUT
10
126.5734
20
151.0910
0
VERTEX
8
CUT
10
126.8184
20
151.1306
0
VERTEX
8
CUT
10
127.0583
20
151.1944
0
VERTEX
8
CUT
10
127.2907
20
151.2817
0
VERTEX
8
CUT
10
127.5133
20
151.3916
0
VERTEX
8
CUT
10
127.7238
20
151.5230
0
VERTEX
8
CUT
10
127.9204
20
151.6746
0
VERTEX
8
CUT
10
128.1009
20
151.8450
0
VERTEX
8
CUT
10
128.2636
20
152.0324
0
VERTEX
8
CUT
10
128.4070
20
152.2351
0
VERTEX
8
CUT
10
128.5295
20
152.4509
0
VERTEX
8
CUT
10
128.6300
20
152.6779
0
VERTEX
8
CUT
10
129.2357
20
154.2520
0
VERTEX
8
CUT
10
129.3149
20
154.4941
0
VERTEX
8
CUT
10
130.1175
20
157.4475
0
VERTEX
8
CUT
10
130.1844
20
157.7830
0
VERTEX
8
CUT
10
130.5057
20
160.2718
0
VERTEX
8
CUT
10
130.5085
20
160.2900
0
VERTEX
8
CUT
10
130.5169
20
160.3271
0
VERTEX
8
CUT
10
130.5286
20
160.3633
0
VERTEX
8
CUT
10
130.5355
20
160.3804
0
VERTEX
8
CUT
10
130.5496
20
160.4132
0
VERTEX
8
CUT
10
130.6347
20
160.6401
0
VERTEX
8
CUT
10
130.6973
20
160.8742
0
VERTEX
8
CUT
10
130.7370
20
161.1133
0
VERTEX
8
CUT
10
130.7534
20
161.3550
0
VERTEX
8
CUT
10
130.7910
20
163.3192
0
VERTEX
8
CUT
10
130.7918
20
163.3388
0
VERTEX
8
CUT
10
130.8014
20
163.4197
0
VERTEX
8
CUT
10
130.8052
20
163.4390
0
VERTEX
8
CUT
10
130.8667
20
163.7175
0
VERTEX
8
CUT
10
130.9846
20
164.2522
0
VERTEX
8
CUT
10
131.0239
20
164.4796
0
VERTEX
8
CUT
10
131.0420
20
164.7096
0
VERTEX
8
CUT
10
131.0389
20
164.9404
0
VERTEX
8
CUT
10
130.8544
20
168.0186
0
VERTEX
8
CUT
10
130.8538
20
168.0810
0
VERTEX
8
CUT
10
130.8682
20
168.1285
0
VERTEX
8
CUT
10
130.9273
20
168.3659
0
VERTEX
8
CUT
10
130.9629
20
168.6079
0
VERTEX
8
CUT
10
130.9747
20
168.8522
0
VERTEX
8
CUT
10
130.9626
20
169.0964
0
VERTEX
8
CUT
10
130.9267
20
169.3384
0
VERTEX
8
CUT
10
130.8673
20
169.5756
0
VERTEX
8
CUT
10
130.7850
20
169.8059
0
VERTEX
8
CUT
10
130.6806
20
170.0271
0
VERTEX
8
CUT
10
130.5551
20
170.2370
0
VERTEX
8
CUT
10
130.4097
20
170.4337
0
VERTEX
8
CUT
10
130.2457
20
170.6152
0
VERTEX
8
CUT
10
130.0648
20
170.7798
0
VERTEX
8
CUT
10
129.8687
20
170.9259
0
VERTEX
8
CUT
10
127.9658
20
172.2041
0
VERTEX
8
CUT
10
127.6914
20
172.3641
0
VERTEX
8
CUT
10
124.1491
20
174.1384
0
VERTEX
8
CUT
10
123.8691
20
174.2579
0
VERTEX
8
CUT
10
121.1615
20
175.2233
0
VERTEX
8
CUT
10
120.9357
20
175.2919
0
VERTEX
8
CUT
10
120.7044
20
175.3390
0
VERTEX
8
CUT
10
120.4698
20
175.3641
0
VERTEX
8
CUT
10
115.4518
20
175.6615
0
VERTEX
8
CUT
10
115.4312
20
175.6633
0
VERTEX
8
CUT
10
115.3435
20
175.6782
0
VERTEX
8
CUT
10
115.3236
20
175.6833
0
VERTEX
8
CUT
10
115.1669
20
175.7281
0
VERTEX
8
CUT
10
114.9403
20
175.7816
0
VERTEX
8
CUT
10
114.7096
20
175.8139
0
VERTEX
8
CUT
10
114.4770
20
175.8245
0
VERTEX
8
CUT
10
114.2444
20
175.8134
0
VERTEX
8
CUT
10
114.0138
20
175.7807
0
VERTEX
8
CUT
10
113.7873
20
175.7267
0
VERTEX
8
CUT
10
113.6150
20
175.6770
0
VERTEX
8
CUT
10
113.5990
20
175.6728
0
VERTEX
8
CUT
10
113.5636
20
175.6659
0
VERTEX
8
CUT
10
113.5277
20
175.6622
0
VERTEX
8
CUT
10
113.5116
20
175.6616
0
VERTEX
8
CUT
10
110.5933
20
175.6186
0
VERTEX
8
CUT
10
110.3566
20
175.6039
0
VERTEX
8
CUT
10
110.1223
20
175.5668
0
VERTEX
8
CUT
10
109.8926
20
175.5076
0
VERTEX
8
CUT
10
109.6696
20
175.4270
0
VERTEX
8
CUT
10
109.6448
20
175.4167
0
VERTEX
8
CUT
10
109.6292
20
175.4106
0
VERTEX
8
CUT
10
109.5948
20
175.3997
0
VERTEX
8
CUT
10
109.5595
20
175.3952
0
VERTEX
8
CUT
10
109.5425
20
175.3942
0
VERTEX
8
CUT
10
108.4391
20
175.3525
0
VERTEX
8
CUT
10
108.1639
20
175.3268
0
VERTEX
8
CUT
10
107.8932
20
175.2709
0
VERTEX
8
CUT
10
106.3084
20
174.8509
0
VERTEX
8
CUT
10
106.2896
20
174.8464
0
VERTEX
8
CUT
10
106.2070
20
174.8334
0
VERTEX
8
CUT
10
106.1877
20
174.8319
0
VERTEX
8
CUT
10
105.6895
20
174.8054
0
VERTEX
8
CUT
10
105.4829
20
174.7858
0
VERTEX
8
CUT
10
105.2787
20
174.7491
0
VERTEX
8
CUT
10
105.0781
20
174.6956
0
VERTEX
8
CUT
10
101.0295
20
173.4332
0
VERTEX
8
CUT
10
100.7880
20
173.3440
0
VERTEX
8
CUT
10
93.4411
20
170.1920
0
VERTEX
8
CUT
10
93.3676
20
170.1634
0
VERTEX
8
CUT
10
93.2924
20
170.1396
0
VERTEX
8
CUT
10
89.4057
20
169.0518
0
VERTEX
8
CUT
10
89.3893
20
169.0476
0
VERTEX
8
CUT
10
89.3531
20
169.0410
0
VERTEX
8
CUT
10
89.3164
20
169.0376
0
VERTEX
8
CUT
10
89.2999
20
169.0372
0
VERTEX
8
CUT
10
83.2860
20
169.0297
0
VERTEX
8
CUT
10
83.2684
20
169.0301
0
VERTEX
8
CUT
10
83.2307
20
169.0336
0
VERTEX
8
CUT
10
83.1935
20
169.0406
0
VERTEX
8
CUT
10
83.1764
20
169.0451
0
VERTEX
8
CUT
10
80.3099
20
169.8687
0
VERTEX
8
CUT
10
80.2933
20
169.8739
0
VERTEX
8
CUT
10
80.2234
20
169.9012
0
VERTEX
8
CUT
10
80.2076
20
169.9086
0
VERTEX
8
CUT
10
79.1305
20
170.4485
0
VERTEX
8
CUT
10
79.1258
20
170.4510
0
VERTEX
8
CUT
10
79.0561
20
170.4932
0
VERTEX
8
CUT
10
79.0409
20
170.5038
0
VERTEX
8
CUT
10
76.2929
20
172.5221
0
VERTEX
8
CUT
10
76.0920
20
172.6552
0
VERTEX
8
CUT
10
75.8793
20
172.7684
0
VERTEX
8
CUT
10
75.6566
20
172.8605
0
VERTEX
8
CUT
10
75.4261
20
172.9308
0
VERTEX
8
CUT
10
75.1899
20
172.9786
0
VERTEX
8
CUT
10
74.9502
20
173.0034
0
VERTEX
8
CUT
10
74.7093
20
173.0050
0
VERTEX
8
CUT
10
74.4693
20
172.9834
0
VERTEX
8
CUT
10
74.2325
20
172.9388
0
VERTEX
8
CUT
10
74.0010
20
172.8716
0
VERTEX
8
CUT
10
73.7772
20
172.7825
0
VERTEX
8
CUT
10
73.5629
20
172.6722
0
VERTEX
8
CUT
10
73.3603
20
172.5418
0
VERTEX
8
CUT
10
73.1711
20
172.3925
0
VERTEX
8
CUT
10
72.9973
20
172.2256
0
VERTEX
8
CUT
10
72.8402
20
172.0428
0
VERTEX
8
CUT
10
72.7016
20
171.8458
0
VERTEX
8
CUT
10
72.5825
20
171.6363
0
VERTEX
8
CUT
10
72.4842
20
171.4163
0
VERTEX
8
CUT
10
72.4074
20
171.1878
0
VERTEX
8
CUT
10
72.3531
20
170.9531
0
VERTEX
8
CUT
10
72.3216
20
170.7142
0
VERTEX
8
CUT
10
72.3132
20
170.4733
0
VERTEX
8
CUT
10
72.3281
20
170.2328
0
VERTEX
8
CUT
10
72.3661
20
169.9949
0
VERTEX
8
CUT
10
72.4268
20
169.7616
0
VERTEX
8
CUT
10
73.2767
20
167.0410
0
VERTEX
8
CUT
10
73.2885
20
167.0013
0
VERTEX
8
CUT
10
73.2975
20
166.9686
0
VERTEX
8
CUT
10
73.3079
20
166.9284
0
VERTEX
8
CUT
10
74.1875
20
163.2781
0
VERTEX
8
CUT
10
74.2464
20
163.0728
0
VERTEX
8
CUT
10
75.5375
20
159.2018
0
VERTEX
8
CUT
10
75.6715
20
158.8777
0
VERTEX
8
CUT
10
76.6280
20
156.9586
0
VERTEX
8
CUT
10
76.7934
20
156.6751
0
VERTEX
8
CUT
10
78.3216
20
154.4110
0
VERTEX
8
CUT
10
78.4583
20
154.2272
0
VERTEX
8
CUT
10
78.6114
20
154.0566
0
VERTEX
8
CUT
10
80.3307
20
152.3086
0
VERTEX
8
CUT
10
80.4897
20
152.1605
0
VERTEX
8
CUT
10
80.6608
20
152.0267
0
VERTEX
8
CUT
10
81.4580
20
151.4578
0
VERTEX
8
CUT
10
81.6764
20
151.3184
0
VERTEX
8
CUT
10
81.9081
20
151.2024
0
VERTEX
8
CUT
10
83.6367
20
150.4460
0
VERTEX
8
CUT
10
83.6810
20
150.4240
0
VERTEX
8
CUT
10
83.6316
20
150.4218
0
VERTEX
8
CUT
10
80.5663
20
150.4359
0
VERTEX
8
CUT
10
80.5462
20
150.4365
0
VERTEX
8
CUT
10
80.5049
20
150.4409
0
VERTEX
8
CUT
10
80.4653
20
150.4536
0
VERTEX
8
CUT
10
80.4466
20
150.4612
0
VERTEX
8
CUT
10
77.9197
20
151.5669
0
VERTEX
8
CUT
10
77.9011
20
151.5756
0
VERTEX
8
CUT
10
77.8269
20
151.6177
0
VERTEX
8
CUT
10
77.8098
20
151.6293
0
VERTEX
8
CUT
10
76.6520
20
152.4555
0
VERTEX
8
CUT
10
76.6382
20
152.4659
0
VERTEX
8
CUT
10
76.5837
20
152.5123
0
VERTEX
8
CUT
10
76.5713
20
152.5244
0
VERTEX
8
CUT
10
74.5006
20
154.6297
0
VERTEX
8
CUT
10
74.4881
20
154.6430
0
VERTEX
8
CUT
10
74.4403
20
154.7014
0
VERTEX
8
CUT
10
74.4298
20
154.7163
0
VERTEX
8
CUT
10
72.6592
20
157.3394
0
VERTEX
8
CUT
10
72.6165
20
157.4075
0
VERTEX
8
CUT
10
72.5783
20
157.4782
0
VERTEX
8
CUT
10
71.4821
20
159.6776
0
VERTEX
8
CUT
10
71.4465
20
159.7557
0
VERTEX
8
CUT
10
71.4165
20
159.8362
0
VERTEX
8
CUT
10
70.0022
20
164.0764
0
VERTEX
8
CUT
10
69.9867
20
164.1264
0
VERTEX
8
CUT
10
69.9734
20
164.1770
0
VERTEX
8
CUT
10
69.0352
20
168.0705
0
VERTEX
8
CUT
10
68.9910
20
168.2303
0
VERTEX
8
CUT
10
67.5938
20
172.7023
0
VERTEX
8
CUT
10
67.4767
20
173.0061
0
VERTEX
8
CUT
10
66.2521
20
175.6545
0
VERTEX
8
CUT
10
66.1317
20
175.8830
0
VERTEX
8
CUT
10
65.9884
20
176.0979
0
VERTEX
8
CUT
10
65.8236
20
176.2969
0
VERTEX
8
CUT
10
65.6392
20
176.4778
0
VERTEX
8
CUT
10
63.6170
20
178.2664
0
VERTEX
8
CUT
10
63.4020
20
178.4365
0
VERTEX
8
CUT
10
60.9069
20
180.1971
0
VERTEX
8
CUT
10
60.8665
20
180.2287
0
VERTEX
8
CUT
10
60.9176
20
180.2240
0
VERTEX
8
CUT
10
61.9970
20
180.0704
0
VERTEX
8
CUT
10
62.0554
20
180.0606
0
VERTEX
8
CUT
10
62.0739
20
180.0571
0
VERTEX
8
CUT
10
62.1837
20
180.0307
0
VERTEX
8
CUT
10
62.2905
20
179.9940
0
VERTEX
8
CUT
10
62.3079
20
179.9871
0
VERTEX
8
CUT
10
62.3624
20
179.9639
0
VERTEX
8
CUT
10
65.1043
20
178.7207
0
VERTEX
8
CUT
10
65.1574
20
178.6951
0
VERTEX
8
CUT
10
65.2266
20
178.6597
0
VERTEX
8
CUT
10
65.2275
20
178.6615
0
VERTEX
8
CUT
10
65.3647
20
178.5918
0
VERTEX
8
CUT
10
65.5974
20
178.5014
0
VERTEX
8
CUT
10
65.8379
20
178.4348
0
VERTEX
8
CUT
10
66.0838
20
178.3924
0
VERTEX
8
CUT
10
66.3328
20
178.3748
0
VERTEX
8
CUT
10
66.5823
20
178.3821
0
VERTEX
8
CUT
10
66.8298
20
178.4142
0
VERTEX
8
CUT
10
67.0728
20
178.4709
0
VERTEX
8
CUT
10
67.3090
20
178.5515
0
VERTEX
8
CUT
10
67.5360
20
178.6552
0
VERTEX
8
CUT
10
67.7515
20
178.7811
0
VERTEX
8
CUT
10
67.9534
20
178.9278
0
VERTEX
8
CUT
10
68.1397
20
179.0939
0
VERTEX
8
CUT
10
68.3084
20
179.2778
0
VERTEX
8
CUT
10
68.4580
20
179.4776
0
VERTEX
8
CUT
10
68.5870
20
179.6913
0
VERTEX
8
CUT
10
68.6939
20
179.9167
0
VERTEX
8
CUT
10
68.7779
20
180.1518
0
VERTEX
8
CUT
10
68.8380
20
180.3940
0
VERTEX
8
CUT
10
68.8737
20
180.6410
0
VERTEX
8
CUT
10
68.8845
20
180.8904
0
VERTEX
8
CUT
10
68.8705
20
181.1395
0
VERTEX
8
CUT
10
68.8316
20
181.3861
0
VERTEX
8
CUT
10
68.7684
20
181.6275
0
VERTEX
8
CUT
10
68.6814
20
181.8614
0
VERTEX
8
CUT
10
68.5715
20
182.0855
0
VERTEX
8
CUT
10
68.4399
20
182.2976
0
VERTEX
8
CUT
10
68.3155
20
182.4772
0
VERTEX
8
CUT
10
68.1494
20
182.6912
0
VERTEX
8
CUT
10
64.5252
20
186.8733
0
VERTEX
8
CUT
10
64.3857
20
187.0216
0
VERTEX
8
CUT
10
64.2347
20
187.1580
0
VERTEX
8
CUT
10
61.7287
20
189.2427
0
VERTEX
8
CUT
10
61.5321
20
189.3905
0
VERTEX
8
CUT
10
61.3218
20
189.5183
0
VERTEX
8
CUT
10
61.1000
20
189.6249
0
VERTEX
8
CUT
10
60.8688
20
189.7091
0
VERTEX
8
CUT
10
60.6305
20
189.7701
0
VERTEX
8
CUT
10
60.3873
20
189.8075
0
VERTEX
8
CUT
10
60.1416
20
189.8207
0
VERTEX
8
CUT
10
59.8958
20
189.8098
0
VERTEX
8
CUT
10
59.6522
20
189.7747
0
VERTEX
8
CUT
10
59.4133
20
189.7159
0
VERTEX
8
CUT
10
59.1814
20
189.6338
0
VERTEX
8
CUT
10
58.9586
20
189.5294
0
VERTEX
8
CUT
10
58.7471
20
189.4035
0
VERTEX
8
CUT
10
58.5491
20
189.2575
0
VERTEX
8
CUT
10
58.3664
20
189.0928
0
VERTEX
8
CUT
10
58.2007
20
188.9108
0
VERTEX
8
CUT
10
58.0538
20
188.7135
0
VERTEX
8
CUT
10
57.9269
20
188.5026
0
VERTEX
8
CUT
10
57.8214
20
188.2804
0
VERTEX
8
CUT
10
57.7383
20
188.0488
0
VERTEX
8
CUT
10
57.6783
20
187.8102
0
VERTEX
8
CUT
10
57.6421
20
187.5668
0
VERTEX
8
CUT
10
57.6299
20
187.3210
0
VERTEX
8
CUT
10
57.6297
20
185.2355
0
VERTEX
8
CUT
10
57.6292
20
185.2161
0
VERTEX
8
CUT
10
57.6206
20
185.1330
0
VERTEX
8
CUT
10
57.6171
20
185.1140
0
VERTEX
8
CUT
10
57.3461
20
183.8165
0
VERTEX
8
CUT
10
57.3413
20
183.7964
0
VERTEX
8
CUT
10
57.3136
20
183.7117
0
VERTEX
8
CUT
10
57.3056
20
183.6926
0
VERTEX
8
CUT
10
57.1257
20
183.2959
0
VERTEX
8
CUT
10
57.0341
20
183.0637
0
VERTEX
8
CUT
10
56.9661
20
182.8236
0
VERTEX
8
CUT
10
56.9223
20
182.5779
0
VERTEX
8
CUT
10
56.9047
20
182.3462
0
VERTEX
8
CUT
10
56.7460
20
182.2253
0
VERTEX
8
CUT
10
56.5667
20
182.0583
0
VERTEX
8
CUT
10
56.5575
20
182.0489
0
VERTEX
8
CUT
10
56.4975
20
182.0544
0
VERTEX
8
CUT
10
55.2555
20
182.2311
0
VERTEX
8
CUT
10
55.0436
20
182.2521
0
VERTEX
8
CUT
10
54.8306
20
182.2550
0
VERTEX
8
CUT
10
51.6571
20
182.1627
0
VERTEX
8
CUT
10
51.4151
20
182.1439
0
VERTEX
8
CUT
10
51.1761
20
182.1017
0
VERTEX
8
CUT
10
50.9424
20
182.0365
0
VERTEX
8
CUT
10
50.7160
20
181.9490
0
VERTEX
8
CUT
10
50.4992
20
181.8400
0
VERTEX
8
CUT
10
50.2940
20
181.7104
0
VERTEX
8
CUT
10
50.1024
20
181.5616
0
VERTEX
8
CUT
10
50.0759
20
181.5388
0
VERTEX
8
CUT
10
49.8927
20
181.3650
0
VERTEX
8
CUT
10
49.7280
20
181.1735
0
VERTEX
8
CUT
10
48.8249
20
180.0094
0
VERTEX
8
CUT
10
48.7221
20
179.8668
0
VERTEX
8
CUT
10
45.9015
20
175.6493
0
VERTEX
8
CUT
10
45.7955
20
175.4759
0
VERTEX
8
CUT
10
45.7039
20
175.2945
0
VERTEX
8
CUT
10
44.4066
20
172.4420
0
VERTEX
8
CUT
10
44.3105
20
172.1973
0
VERTEX
8
CUT
10
44.1644
20
171.7586
0
VERTEX
8
CUT
10
44.0981
20
171.5213
0
VERTEX
8
CUT
10
44.0555
20
171.2785
0
VERTEX
8
CUT
10
44.0370
20
171.0328
0
VERTEX
8
CUT
10
44.0428
20
170.7864
0
SEQEND
0
POLYLINE
8
CUT
66
1
70
1
10
0.0
20
0.0
30
0.0
0
VERTEX
8
CUT
10
39.2879
20
32.4718
0
VERTEX
8
CUT
10
39.2970
20
32.4323
0
VERTEX
8
CUT
10
39.3000
20
32.4130
0
VERTEX
8
CUT
10
39.5922
20
30.1459
0
VERTEX
8
CUT
10
39.6376
20
29.8950
0
VERTEX
8
CUT
10
39.7084
20
29.6500
0
VERTEX
8
CUT
10
39.8038
20
29.4135
0
VERTEX
8
CUT
10
39.8527
20
29.3081
0
VERTEX
8
CUT
10
39.8602
20
29.2907
0
VERTEX
8
CUT
10
39.8732
20
29.2538
0
VERTEX
8
CUT
10
39.8789
20
29.2151
0
VERTEX
8
CUT
10
39.8803
20
29.1962
0
VERTEX
8
CUT
10
39.9155
20
28.5073
0
VERTEX
8
CUT
10
39.9423
20
28.2483
0
VERTEX
8
CUT
10
39.9960
20
27.9934
0
VERTEX
8
CUT
10
40.0758
20
27.7455
0
VERTEX
8
CUT
10
40.1810
20
27.5073
0
VERTEX
8
CUT
10
41.2457
20
25.4002
0
VERTEX
8
CUT
10
41.3794
20
25.1676
0
VERTEX
8
CUT
10
41.5373
20
24.9506
0
VERTEX
8
CUT
10
41.7176
20
24.7517
0
VERTEX
8
CUT
10
43.1998
20
23.2833
0
VERTEX
8
CUT
10
43.3667
20
23.1323
0
VERTEX
8
CUT
10
43.5464
20
22.9969
0
VERTEX
8
CUT
10
43.7376
20
22.8782
0
VERTEX
8
CUT
10
43.9387
20
22.7772
0
VERTEX
8
CUT
10
45.6668
20
22.0044
0
VERTEX
8
CUT
10
45.8782
20
21.9211
0
VERTEX
8
CUT
10
46.0964
20
21.8574
0
VERTEX
8
CUT
10
46.3194
20
21.8138
0
VERTEX
8
CUT
10
46.5454
20
21.7906
0
VERTEX
8
CUT
10
47.3407
20
21.7454
0
VERTEX
8
CUT
10
47.3579
20
21.7440
0
VERTEX
8
CUT
10
47.3933
20
21.7389
0
VERTEX
8
CUT
10
47.4269
20
21.7278
0
VERTEX
8
CUT
10
47.4432
20
21.7213
0
VERTEX
8
CUT
10
47.4709
20
21.7094
0
VERTEX
8
CUT
10
47.7098
20
21.6208
0
VERTEX
8
CUT
10
47.9565
20
21.5570
0
VERTEX
8
CUT
10
48.2085
20
21.5187
0
VERTEX
8
CUT
10
48.4630
20
21.5062
0
VERTEX
8
CUT
10
49.2436
20
21.5078
0
VERTEX
8
CUT
10
49.4945
20
21.5209
0
VERTEX
8
CUT
10
49.7428
20
21.5592
0
VERTEX
8
CUT
10
49.9861
20
21.6221
0
VERTEX
8
CUT
10
51.2144
20
22.0070
0
VERTEX
8
CUT
10
51.2373
20
22.0135
0
VERTEX
8
CUT
10
51.3343
20
22.0315
0
VERTEX
8
CUT
10
51.3580
20
22.0337
0
VERTEX
8
CUT
10
51.8852
20
22.0673
0
VERTEX
8
CUT
10
52.1428
20
22.0972
0
VERTEX
8
CUT
10
52.3959
20
22.1536
0
VERTEX
8
CUT
10
52.6418
20
22.2359
0
VERTEX
8
CUT
10
55.0725
20
23.1925
0
VERTEX
8
CUT
10
55.2415
20
23.2663
0
VERTEX
8
CUT
10
55.4046
20
23.3524
0
VERTEX
8
CUT
10
59.2730
20
25.5800
0
VERTEX
8
CUT
10
59.5167
20
25.7399
0
VERTEX
8
CUT
10
64.9399
20
29.7705
0
VERTEX
8
CUT
10
65.1274
20
29.9244
0
VERTEX
8
CUT
10
71.6358
20
35.8219
0
VERTEX
8
CUT
10
71.7539
20
35.9362
0
VERTEX
8
CUT
10
81.3378
20
45.8434
0
VERTEX
8
CUT
10
81.3811
20
45.8893
0
VERTEX
8
CUT
10
101.4955
20
67.7615
0
VERTEX
8
CUT
10
101.5512
20
67.8241
0
VERTEX
8
CUT
10
108.6734
20
76.1093
0
VERTEX
8
CUT
10
108.8504
20
76.3412
0
VERTEX
8
CUT
10
111.6214
20
80.4507
0
VERTEX
8
CUT
10
111.7878
20
80.7365
0
VERTEX
8
CUT
10
112.4972
20
82.1653
0
VERTEX
8
CUT
10
112.5128
20
82.1915
0
VERTEX
8
CUT
10
112.6517
20
82.4628
0
VERTEX
8
CUT
10
112.7016
20
82.5769
0
VERTEX
8
CUT
10
113.3827
20
83.9484
0
VERTEX
8
CUT
10
113.4692
20
84.1431
0
VERTEX
8
CUT
10
113.5388
20
84.3444
0
VERTEX
8
CUT
10
114.3130
20
86.9345
0
VERTEX
8
CUT
10
114.3903
20
87.2812
0
VERTEX
8
CUT
10
114.6503
20
89.0223
0
VERTEX
8
CUT
10
114.6736
20
89.2477
0
VERTEX
8
CUT
10
114.6764
20
89.4743
0
VERTEX
8
CUT
10
114.6312
20
90.8387
0
VERTEX
8
CUT
10
114.6130
20
91.0674
0
VERTEX
8
CUT
10
114.5741
20
91.2935
0
VERTEX
8
CUT
10
114.5145
20
91.5150
0
VERTEX
8
CUT
10
114.4349
20
91.7301
0
VERTEX
8
CUT
10
114.3359
20
91.9371
0
VERTEX
8
CUT
10
114.2184
20
92.1341
0
VERTEX
8
CUT
10
113.0683
20
93.8748
0
VERTEX
8
CUT
10
112.9285
20
94.0660
0
VERTEX
8
CUT
10
112.7712
20
94.2432
0
VERTEX
8
CUT
10
112.5979
20
94.4047
0
VERTEX
8
CUT
10
112.4100
20
94.5490
0
VERTEX
8
CUT
10
112.3338
20
94.6021
0
VERTEX
8
CUT
10
112.1201
20
94.7352
0
VERTEX
8
CUT
10
111.8941
20
94.8463
0
VERTEX
8
CUT
10
111.6580
20
94.9340
0
VERTEX
8
CUT
10
111.4144
20
94.9975
0
VERTEX
8
CUT
10
111.1656
20
95.0362
0
VERTEX
8
CUT
10
110.9141
20
95.0497
0
VERTEX
8
CUT
10
109.8783
20
95.0530
0
VERTEX
8
CUT
10
109.6173
20
95.0402
0
VERTEX
8
CUT
10
109.3591
20
95.0002
0
VERTEX
8
CUT
10
109.1065
20
94.9335
0
VERTEX
8
CUT
10
108.8622
20
94.8407
0
VERTEX
8
CUT
10
106.9560
20
94.0007
0
VERTEX
8
CUT
10
106.9510
20
93.9986
0
VERTEX
8
CUT
10
106.9038
20
93.9820
0
VERTEX
8
CUT
10
106.8795
20
93.9758
0
VERTEX
8
CUT
10
106.8560
20
93.9712
0
VERTEX
8
CUT
10
104.8352
20
93.6255
0
VERTEX
8
CUT
10
104.6235
20
93.5798
0
VERTEX
8
CUT
10
104.4166
20
93.5159
0
VERTEX
8
CUT
10
100.6611
20
92.1759
0
VERTEX
8
CUT
10
100.3834
20
92.0575
0
VERTEX
8
CUT
10
97.7238
20
90.7280
0
VERTEX
8
CUT
10
97.4943
20
90.5977
0
VERTEX
8
CUT
10
94.5277
20
88.6998
0
VERTEX
8
CUT
10
94.2623
20
88.5042
0
VERTEX
8
CUT
10
90.3376
20
85.1910
0
VERTEX
8
CUT
10
90.1934
20
85.0592
0
VERTEX
8
CUT
10
90.0599
20
84.9166
0
VERTEX
8
CUT
10
88.1324
20
82.6894
0
VERTEX
8
CUT
10
87.9483
20
82.4487
0
VERTEX
8
CUT
10
87.7947
20
82.1874
0
VERTEX
8
CUT
10
87.4821
20
81.5733
0
VERTEX
8
CUT
10
87.3628
20
81.2993
0
VERTEX
8
CUT
10
87.2769
20
81.0131
0
VERTEX
8
CUT
10
86.9431
20
79.5973
0
VERTEX
8
CUT
10
86.9384
20
79.5792
0
VERTEX
8
CUT
10
86.9260
20
79.5427
0
VERTEX
8
CUT
10
86.9070
20
79.5091
0
VERTEX
8
CUT
10
86.8966
20
79.4935
0
VERTEX
8
CUT
10
86.3189
20
78.6665
0
VERTEX
8
CUT
10
86.1960
20
78.4722
0
VERTEX
8
CUT
10
86.0916
20
78.2675
0
VERTEX
8
CUT
10
86.0063
20
78.0540
0
VERTEX
8
CUT
10
85.9411
20
77.8337
0
VERTEX
8
CUT
10
85.8963
20
77.6082
0
VERTEX
8
CUT
10
85.8725
20
77.3796
0
VERTEX
8
CUT
10
85.7841
20
75.8571
0
VERTEX
8
CUT
10
85.7823
20
75.8363
0
VERTEX
8
CUT
10
85.7753
20
75.7938
0
VERTEX
8
CUT
10
85.7595
20
75.7537
0
VERTEX
8
CUT
10
85.7503
20
75.7349
0
VERTEX
8
CUT
10
85.5165
20
75.2875
0
VERTEX
8
CUT
10
85.4183
20
75.0760
0
VERTEX
8
CUT
10
85.3402
20
74.8563
0
VERTEX
8
CUT
10
85.2829
20
74.6303
0
VERTEX
8
CUT
10
85.2469
20
74.3999
0
VERTEX
8
CUT
10
85.2195
20
74.1471
0
VERTEX
8
CUT
10
85.2166
20
74.1260
0
VERTEX
8
CUT
10
85.1978
20
74.0401
0
VERTEX
8
CUT
10
85.1917
20
74.0198
0
VERTEX
8
CUT
10
84.3428
20
71.4767
0
VERTEX
8
CUT
10
84.3359
20
71.4576
0
VERTEX
8
CUT
10
84.3186
20
71.4194
0
VERTEX
8
CUT
10
84.2975
20
71.3832
0
VERTEX
8
CUT
10
84.2860
20
71.3664
0
VERTEX
8
CUT
10
84.0526
20
71.0461
0
VERTEX
8
CUT
10
83.9104
20
70.8278
0
VERTEX
8
CUT
10
83.7917
20
70.5960
0
VERTEX
8
CUT
10
83.6977
20
70.3530
0
VERTEX
8
CUT
10
83.6215
20
70.1206
0
VERTEX
8
CUT
10
83.5653
20
69.9218
0
VERTEX
8
CUT
10
83.5257
20
69.7191
0
VERTEX
8
CUT
10
83.5030
20
69.5138
0
VERTEX
8
CUT
10
83.4579
20
68.8604
0
VERTEX
8
CUT
10
83.4564
20
68.8437
0
VERTEX
8
CUT
10
83.4511
20
68.8095
0
VERTEX
8
CUT
10
83.4429
20
68.7756
0
VERTEX
8
CUT
10
83.4381
20
68.7600
0
VERTEX
8
CUT
10
82.5809
20
66.1897
0
VERTEX
8
CUT
10
82.5611
20
66.1347
0
VERTEX
8
CUT
10
82.5387
20
66.0808
0
VERTEX
8
CUT
10
81.4373
20
63.5962
0
VERTEX
8
CUT
10
81.4289
20
63.5784
0
VERTEX
8
CUT
10
81.3889
20
63.5079
0
VERTEX
8
CUT
10
81.3780
20
63.4916
0
VERTEX
8
CUT
10
80.6983
20
62.5283
0
VERTEX
8
CUT
10
80.5641
20
62.3163
0
VERTEX
8
CUT
10
80.4518
20
62.0918
0
VERTEX
8
CUT
10
80.3626
20
61.8573
0
VERTEX
8
CUT
10
80.2973
20
61.6150
0
VERTEX
8
CUT
10
80.2567
20
61.3673
0
VERTEX
8
CUT
10
80.1982
20
60.8490
0
VERTEX
8
CUT
10
80.1956
20
60.8301
0
VERTEX
8
CUT
10
80.1875
20
60.7919
0
VERTEX
8
CUT
10
80.1723
20
60.7558
0
VERTEX
8
CUT
10
80.1636
20
60.7389
0
VERTEX
8
CUT
10
78.1639
20
57.0438
0
VERTEX
8
CUT
10
78.1554
20
57.0290
0
VERTEX
8
CUT
10
78.1168
20
56.9703
0
VERTEX
8
CUT
10
78.1066
20
56.9567
0
VERTEX
8
CUT
10
77.7055
20
56.4472
0
VERTEX
8
CUT
10
77.6664
20
56.4023
0
VERTEX
8
CUT
10
77.5852
20
56.4042
0
VERTEX
8
CUT
10
77.3497
20
56.3986
0
VERTEX
8
CUT
10
77.1157
20
56.3709
0
VERTEX
8
CUT
10
76.8853
20
56.3213
0
VERTEX
8
CUT
10
76.6607
20
56.2502
0
VERTEX
8
CUT
10
76.4437
20
56.1583
0
VERTEX
8
CUT
10
76.2364
20
56.0464
0
VERTEX
8
CUT
10
76.0405
20
55.9154
0
VERTEX
8
CUT
10
75.8578
20
55.7666
0
VERTEX
8
CUT
10
75.6900
20
55.6012
0
VERTEX
8
CUT
10
74.6319
20
54.4559
0
VERTEX
8
CUT
10
74.6192
20
54.4427
0
VERTEX
8
CUT
10
74.5898
20
54.4166
0
VERTEX
8
CUT
10
74.5540
20
54.4001
0
VERTEX
8
CUT
10
74.5369
20
54.3937
0
VERTEX
8
CUT
10
74.3671
20
54.3347
0
VERTEX
8
CUT
10
74.3496
20
54.3291
0
VERTEX
8
CUT
10
74.3111
20
54.3199
0
VERTEX
8
CUT
10
74.2928
20
54.3173
0
VERTEX
8
CUT
10
74.0805
20
54.2984
0
VERTEX
8
CUT
10
73.8350
20
54.2514
0
VERTEX
8
CUT
10
73.5953
20
54.1801
0
VERTEX
8
CUT
10
73.3640
20
54.0853
0
VERTEX
8
CUT
10
73.1434
20
53.9678
0
VERTEX
8
CUT
10
72.9355
20
53.8289
0
VERTEX
8
CUT
10
72.7426
20
53.6699
0
VERTEX
8
CUT
10
72.5665
20
53.4925
0
VERTEX
8
CUT
10
72.2428
20
53.1318
0
VERTEX
8
CUT
10
72.2308
20
53.1191
0
VERTEX
8
CUT
10
72.2033
20
53.0936
0
VERTEX
8
CUT
10
72.1697
20
53.0768
0
VERTEX
8
CUT
10
72.1536
20
53.0701
0
VERTEX
8
CUT
10
71.3481
20
52.7560
0
VERTEX
8
CUT
10
71.1317
20
52.6596
0
VERTEX
8
CUT
10
70.9254
20
52.5431
0
VERTEX
8
CUT
10
70.7310
20
52.4076
0
VERTEX
8
CUT
10
70.4394
20
52.1831
0
VERTEX
8
CUT
10
70.2552
20
52.0265
0
VERTEX
8
CUT
10
70.0994
20
51.8656
0
VERTEX
8
CUT
10
70.0460
20
51.8723
0
VERTEX
8
CUT
10
69.8021
20
51.8790
0
VERTEX
8
CUT
10
68.2715
20
51.8464
0
VERTEX
8
CUT
10
68.2542
20
51.8465
0
VERTEX
8
CUT
10
68.2170
20
51.8491
0
VERTEX
8
CUT
10
68.1814
20
51.8584
0
VERTEX
8
CUT
10
68.1648
20
51.8640
0
VERTEX
8
CUT
10
67.5534
20
52.0855
0
VERTEX
8
CUT
10
67.3212
20
52.1570
0
VERTEX
8
CUT
10
67.0832
20
52.2057
0
VERTEX
8
CUT
10
66.8416
20
52.2310
0
VERTEX
8
CUT
10
66.5987
20
52.2328
0
VERTEX
8
CUT
10
66.3568
20
52.2110
0
VERTEX
8
CUT
10
66.1181
20
52.1658
0
VERTEX
8
CUT
10
65.8849
20
52.0976
0
VERTEX
8
CUT
10
65.6595
20
52.0072
0
VERTEX
8
CUT
10
65.4439
20
51.8953
0
VERTEX
8
CUT
10
64.4317
20
51.3058
0
VERTEX
8
CUT
10
64.4155
20
51.2969
0
VERTEX
8
CUT
10
64.3796
20
51.2806
0
VERTEX
8
CUT
10
64.3408
20
51.2873
0
VERTEX
8
CUT
10
64.3229
20
51.2917
0
VERTEX
8
CUT
10
63.7358
20
51.4546
0
VERTEX
8
CUT
10
63.4896
20
51.5097
0
VERTEX
8
CUT
10
63.2391
20
51.5396
0
VERTEX
8
CUT
10
62.9129
20
51.5621
0
VERTEX
8
CUT
10
62.6701
20
51.5669
0
VERTEX
8
CUT
10
62.4279
20
51.5482
0
VERTEX
8
CUT
10
62.1887
20
51.5061
0
VERTEX
8
CUT
10
61.9547
20
51.4409
0
VERTEX
8
CUT
10
61.7282
20
51.3534
0
VERTEX
8
CUT
10
61.5112
20
51.2443
0
VERTEX
8
CUT
10
61.3058
20
51.1146
0
VERTEX
8
CUT
10
61.1140
20
50.9656
0
VERTEX
8
CUT
10
60.9375
20
50.7987
0
VERTEX
8
CUT
10
60.1400
20
49.9675
0
VERTEX
8
CUT
10
60.1280
20
49.9556
0
VERTEX
8
CUT
10
60.1007
20
49.9318
0
VERTEX
8
CUT
10
60.0670
20
49.9193
0
VERTEX
8
CUT
10
60.0505
20
49.9145
0
VERTEX
8
CUT
10
58.9617
20
49.6209
0
VERTEX
8
CUT
10
58.9446
20
49.6167
0
VERTEX
8
CUT
10
58.9074
20
49.6103
0
VERTEX
8
CUT
10
58.8698
20
49.6074
0
VERTEX
8
CUT
10
58.8522
20
49.6073
0
VERTEX
8
CUT
10
58.0595
20
49.6205
0
VERTEX
8
CUT
10
58.0392
20
49.6214
0
VERTEX
8
CUT
10
57.9960
20
49.6268
0
VERTEX
8
CUT
10
57.9550
20
49.6415
0
VERTEX
8
CUT
10
57.9365
20
49.6498
0
VERTEX
8
CUT
10
57.6252
20
49.8004
0
VERTEX
8
CUT
10
57.6085
20
49.8090
0
VERTEX
8
CUT
10
57.5741
20
49.8301
0
VERTEX
8
CUT
10
57.5446
20
49.8577
0
VERTEX
8
CUT
10
57.5319
20
49.8715
0
VERTEX
8
CUT
10
57.0791
20
50.3888
0
VERTEX
8
CUT
10
57.0664
20
50.4041
0
VERTEX
8
CUT
10
57.0418
20
50.4392
0
VERTEX
8
CUT
10
57.0251
20
50.4787
0
VERTEX
8
CUT
10
57.0189
20
50.4977
0
VERTEX
8
CUT
10
56.9388
20
50.7639
0
VERTEX
8
CUT
10
56.8559
20
50.9973
0
VERTEX
8
CUT
10
56.7502
20
51.2214
0
VERTEX
8
CUT
10
56.6229
20
51.4339
0
VERTEX
8
CUT
10
56.4752
20
51.6327
0
VERTEX
8
CUT
10
56.3085
20
51.8160
0
VERTEX
8
CUT
10
56.1245
20
51.9818
0
VERTEX
8
CUT
10
55.9250
20
52.1287
0
VERTEX
8
CUT
10
55.7120
20
52.2550
0
VERTEX
8
CUT
10
55.4874
20
52.3597
0
VERTEX
8
CUT
10
55.2537
20
52.4417
0
VERTEX
8
CUT
10
55.0129
20
52.5001
0
VERTEX
8
CUT
10
54.7676
20
52.5343
0
VERTEX
8
CUT
10
54.5201
20
52.5442
0
VERTEX
8
CUT
10
54.2728
20
52.5295
0
VERTEX
8
CUT
10
54.0282
20
52.4904
0
VERTEX
8
CUT
10
53.7887
20
52.4273
0
VERTEX
8
CUT
10
53.5566
20
52.3408
0
VERTEX
8
CUT
10
53.3341
20
52.2317
0
VERTEX
8
CUT
10
53.1236
20
52.1012
0
VERTEX
8
CUT
10
52.9270
20
51.9504
0
VERTEX
8
CUT
10
52.7463
20
51.7810
0
VERTEX
8
CUT
10
52.5833
20
51.5945
0
VERTEX
8
CUT
10
52.4395
20
51.3928
0
VERTEX
8
CUT
10
52.3164
20
51.1778
0
VERTEX
8
CUT
10
52.2151
20
50.9518
0
VERTEX
8
CUT
10
52.1658
20
50.8252
0
VERTEX
8
CUT
10
52.0846
20
50.5799
0
VERTEX
8
CUT
10
52.0292
20
50.3276
0
VERTEX
8
CUT
10
52.0000
20
50.0709
0
VERTEX
8
CUT
10
51.9750
20
49.6632
0
VERTEX
8
CUT
10
51.9705
20
49.6092
0
VERTEX
8
CUT
10
51.9687
20
49.5921
0
VERTEX
8
CUT
10
51.9527
20
49.4848
0
VERTEX
8
CUT
10
51.9494
20
49.4679
0
VERTEX
8
CUT
10
51.9380
20
49.4149
0
VERTEX
8
CUT
10
51.5139
20
47.6432
0
VERTEX
8
CUT
10
51.4620
20
47.3498
0
VERTEX
8
CUT
10
51.4453
20
47.0524
0
VERTEX
8
CUT
10
51.4511
20
45.4150
0
VERTEX
8
CUT
10
51.4624
20
45.1864
0
VERTEX
8
CUT
10
51.4946
20
44.9598
0
VERTEX
8
CUT
10
51.7066
20
43.8375
0
VERTEX
8
CUT
10
51.7795
20
43.5479
0
VERTEX
8
CUT
10
51.8863
20
43.2691
0
VERTEX
8
CUT
10
52.5355
20
41.8375
0
VERTEX
8
CUT
10
52.6349
20
41.6418
0
VERTEX
8
CUT
10
52.7511
20
41.4555
0
VERTEX
8
CUT
10
52.8831
20
41.2801
0
VERTEX
8
CUT
10
53.0301
20
41.1169
0
VERTEX
8
CUT
10
54.2564
20
39.8701
0
VERTEX
8
CUT
10
54.4068
20
39.7294
0
VERTEX
8
CUT
10
54.5682
20
39.6015
0
VERTEX
8
CUT
10
55.3845
20
39.0077
0
VERTEX
8
CUT
10
55.5793
20
38.8796
0
VERTEX
8
CUT
10
55.7851
20
38.7701
0
VERTEX
8
CUT
10
55.8735
20
38.7282
0
VERTEX
8
CUT
10
56.1176
20
38.6280
0
VERTEX
8
CUT
10
56.3710
20
38.5541
0
VERTEX
8
CUT
10
56.6307
20
38.5073
0
VERTEX
8
CUT
10
58.1351
20
38.3176
0
VERTEX
8
CUT
10
58.3499
20
38.2998
0
VERTEX
8
CUT
10
58.5654
20
38.3007
0
VERTEX
8
CUT
10
58.7801
20
38.3201
0
VERTEX
8
CUT
10
58.9923
20
38.3579
0
VERTEX
8
CUT
10
60.9484
20
38.7944
0
VERTEX
8
CUT
10
61.1471
20
38.8474
0
VERTEX
8
CUT
10
61.3408
20
38.9165
0
VERTEX
8
CUT
10
61.5282
20
39.0014
0
VERTEX
8
CUT
10
62.7999
20
39.6416
0
VERTEX
8
CUT
10
62.9661
20
39.7334
0
VERTEX
8
CUT
10
63.1250
20
39.8376
0
VERTEX
8
CUT
10
65.5659
20
41.5743
0
VERTEX
8
CUT
10
65.8273
20
41.7882
0
VERTEX
8
CUT
10
67.0783
20
42.9622
0
VERTEX
8
CUT
10
67.1450
20
43.0271
0
VERTEX
8
CUT
10
71.2670
20
47.1941
0
VERTEX
8
CUT
10
71.3987
20
47.3381
0
VERTEX
8
CUT
10
71.6787
20
47.6692
0
VERTEX
8
CUT
10
71.6825
20
47.6733
0
VERTEX
8
CUT
10
71.7031
20
47.6976
0
VERTEX
8
CUT
10
71.6830
20
47.6659
0
VERTEX
8
CUT
10
70.2107
20
45.5747
0
VERTEX
8
CUT
10
70.1785
20
45.5311
0
VERTEX
8
CUT
10
70.1445
20
45.4889
0
VERTEX
8
CUT
10
66.9781
20
41.7444
0
VERTEX
8
CUT
10
66.9466
20
41.7086
0
VERTEX
8
CUT
10
66.9137
20
41.6740
0
VERTEX
8
CUT
10
62.5110
20
37.2226
0
VERTEX
8
CUT
10
62.5000
20
37.2117
0
VERTEX
8
CUT
10
62.4755
20
37.1882
0
VERTEX
8
CUT
10
61.0597
20
35.8596
0
VERTEX
8
CUT
10
60.9975
20
35.8051
0
VERTEX
8
CUT
10
60.9318
20
35.7549
0
VERTEX
8
CUT
10
58.1497
20
33.7755
0
VERTEX
8
CUT
10
58.1456
20
33.7727
0
VERTEX
8
CUT
10
58.0817
20
33.7338
0
VERTEX
8
CUT
10
58.0661
20
33.7255
0
VERTEX
8
CUT
10
56.3416
20
32.8573
0
VERTEX
8
CUT
10
56.3367
20
32.8550
0
VERTEX
8
CUT
10
56.2902
20
32.8359
0
VERTEX
8
CUT
10
56.2661
20
32.8284
0
VERTEX
8
CUT
10
56.2427
20
32.8226
0
VERTEX
8
CUT
10
53.5135
20
32.2137
0
VERTEX
8
CUT
10
53.4967
20
32.2103
0
VERTEX
8
CUT
10
53.4617
20
32.2056
0
VERTEX
8
CUT
10
53.4267
20
32.2070
0
VERTEX
8
CUT
10
53.4095
20
32.2088
0
VERTEX
8
CUT
10
51.0624
20
32.5048
0
VERTEX
8
CUT
10
51.0417
20
32.5080
0
VERTEX
8
CUT
10
50.9997
20
32.5178
0
VERTEX
8
CUT
10
50.9589
20
32.5321
0
VERTEX
8
CUT
10
50.9398
20
32.5406
0
VERTEX
8
CUT
10
50.3520
20
32.8189
0
VERTEX
8
CUT
10
50.3354
20
32.8272
0
VERTEX
8
CUT
10
50.2694
20
32.8664
0
VERTEX
8
CUT
10
50.2542
20
32.8770
0
VERTEX
8
CUT
10
49.1029
20
33.7143
0
VERTEX
8
CUT
10
49.0986
20
33.7176
0
VERTEX
8
CUT
10
49.0369
20
33.7702
0
VERTEX
8
CUT
10
49.0232
20
33.7835
0
VERTEX
8
CUT
10
47.3230
20
35.5121
0
VERTEX
8
CUT
10
47.3110
20
35.5248
0
VERTEX
8
CUT
10
47.2881
20
35.5526
0
VERTEX
8
CUT
10
47.2706
20
35.5836
0
VERTEX
8
CUT
10
47.2630
20
35.5995
0
VERTEX
8
CUT
10
46.3053
20
37.7113
0
VERTEX
8
CUT
10
46.2962
20
37.7332
0
VERTEX
8
CUT
10
46.2666
20
37.8268
0
VERTEX
8
CUT
10
46.2615
20
37.8500
0
VERTEX
8
CUT
10
45.9577
20
39.4580
0
VERTEX
8
CUT
10
45.9547
20
39.4760
0
VERTEX
8
CUT
10
45.9475
20
39.5510
0
VERTEX
8
CUT
10
45.9470
20
39.5692
0
VERTEX
8
CUT
10
45.9393
20
41.7282
0
VERTEX
8
CUT
10
45.9399
20
41.7519
0
VERTEX
8
CUT
10
45.9512
20
41.8492
0
VERTEX
8
CUT
10
45.9561
20
41.8723
0
VERTEX
8
CUT
10
46.4409
20
43.8979
0
VERTEX
8
CUT
10
46.4822
20
44.1109
0
VERTEX
8
CUT
10
46.5048
20
44.3267
0
VERTEX
8
CUT
10
46.5475
20
45.0217
0
VERTEX
8
CUT
10
46.5493
20
45.0421
0
VERTEX
8
CUT
10
46.5562
20
45.0838
0
VERTEX
8
CUT
10
46.5674
20
45.1247
0
VERTEX
8
CUT
10
46.5744
20
45.1439
0
VERTEX
8
CUT
10
47.1476
20
46.6155
0
VERTEX
8
CUT
10
47.1780
20
46.6869
0
VERTEX
8
CUT
10
47.2130
20
46.7562
0
VERTEX
8
CUT
10
49.1924
20
50.3934
0
VERTEX
8
CUT
10
49.2030
20
50.4118
0
VERTEX
8
CUT
10
49.2530
20
50.4840
0
VERTEX
8
CUT
10
49.2664
20
50.5005
0
VERTEX
8
CUT
10
50.0645
20
51.4251
0
VERTEX
8
CUT
10
50.1936
20
51.5879
0
VERTEX
8
CUT
10
50.3088
20
51.7608
0
VERTEX
8
CUT
10
50.4092
20
51.9427
0
VERTEX
8
CUT
10
51.2516
20
53.6316
0
VERTEX
8
CUT
10
51.2611
20
53.6495
0
VERTEX
8
CUT
10
51.3060
20
53.7203
0
VERTEX
8
CUT
10
51.3182
20
53.7366
0
VERTEX
8
CUT
10
52.8368
20
55.6664
0
VERTEX
8
CUT
10
52.9510
20
55.8238
0
VERTEX
8
CUT
10
56.3469
20
60.9077
0
VERTEX
8
CUT
10
56.5044
20
61.1789
0
VERTEX
8
CUT
10
57.5184
20
63.2084
0
VERTEX
8
CUT
10
57.6542
20
63.5366
0
VERTEX
8
CUT
10
58.4129
20
65.8169
0
VERTEX
8
CUT
10
58.4681
20
66.0081
0
VERTEX
8
CUT
10
58.5080
20
66.2031
0
VERTEX
8
CUT
10
58.7480
20
67.6724
0
VERTEX
8
CUT
10
58.7727
20
67.8747
0
VERTEX
8
CUT
10
58.7807
20
68.0784
0
VERTEX
8
CUT
10
58.7734
20
74.3526
0
VERTEX
8
CUT
10
58.7600
20
74.6078
0
VERTEX
8
CUT
10
58.7207
20
74.8603
0
VERTEX
8
CUT
10
57.0997
20
82.6296
0
VERTEX
8
CUT
10
57.0960
20
82.6498
0
VERTEX
8
CUT
10
57.0874
20
82.7347
0
VERTEX
8
CUT
10
57.0869
20
82.7553
0
VERTEX
8
CUT
10
57.0969
20
88.6011
0
VERTEX
8
CUT
10
57.0973
20
88.6197
0
VERTEX
8
CUT
10
57.1010
20
88.6581
0
VERTEX
8
CUT
10
57.1083
20
88.6959
0
VERTEX
8
CUT
10
57.1131
20
88.7140
0
VERTEX
8
CUT
10
58.5765
20
93.7305
0
VERTEX
8
CUT
10
58.5820
20
93.7476
0
VERTEX
8
CUT
10
58.6091
20
93.8167
0
VERTEX
8
CUT
10
58.6168
20
93.8330
0
VERTEX
8
CUT
10
60.0179
20
96.6304
0
VERTEX
8
CUT
10
60.0487
20
96.6880
0
VERTEX
8
CUT
10
60.0825
20
96.7438
0
VERTEX
8
CUT
10
63.3635
20
101.8514
0
VERTEX
8
CUT
10
63.4948
20
102.0820
0
VERTEX
8
CUT
10
64.2459
20
103.5798
0
VERTEX
8
CUT
10
64.3839
20
103.9132
0
VERTEX
8
CUT
10
65.3801
20
106.9159
0
VERTEX
8
CUT
10
65.4446
20
107.1466
0
VERTEX
8
CUT
10
65.4866
20
107.3824
0
VERTEX
8
CUT
10
65.5059
20
107.6212
0
VERTEX
8
CUT
10
65.5498
20
108.9603
0
VERTEX
8
CUT
10
65.5511
20
108.9818
0
VERTEX
8
CUT
10
65.5637
20
109.0702
0
VERTEX
8
CUT
10
65.5684
20
109.0912
0
VERTEX
8
CUT
10
65.7235
20
109.6988
0
VERTEX
8
CUT
10
65.7676
20
109.9089
0
VERTEX
8
CUT
10
65.7935
20
110.1221
0
VERTEX
8
CUT
10
65.8010
20
110.3367
0
VERTEX
8
CUT
10
65.7901
20
110.5511
0
VERTEX
8
CUT
10
65.5131
20
113.4954
0
VERTEX
8
CUT
10
65.4703
20
113.7768
0
VERTEX
8
CUT
10
65.3959
20
114.0514
0
VERTEX
8
CUT
10
64.6687
20
116.2342
0
VERTEX
8
CUT
10
64.5904
20
116.4387
0
VERTEX
8
CUT
10
64.4945
20
116.6356
0
VERTEX
8
CUT
10
62.6711
20
119.9984
0
VERTEX
8
CUT
10
62.5534
20
120.1937
0
VERTEX
8
CUT
10
62.4183
20
120.3775
0
VERTEX
8
CUT
10
61.3029
20
121.7586
0
VERTEX
8
CUT
10
61.1193
20
121.9620
0
VERTEX
8
CUT
10
60.7859
20
122.2930
0
VERTEX
8
CUT
10
60.6051
20
122.4558
0
VERTEX
8
CUT
10
60.4093
20
122.6002
0
VERTEX
8
CUT
10
60.2005
20
122.7250
0
VERTEX
8
CUT
10
59.9805
20
122.8288
0
VERTEX
8
CUT
10
59.7514
20
122.9108
0
VERTEX
8
CUT
10
59.5155
20
122.9701
0
VERTEX
8
CUT
10
59.2749
20
123.0062
0
VERTEX
8
CUT
10
59.0320
20
123.0188
0
VERTEX
8
CUT
10
58.7889
20
123.0076
0
VERTEX
8
CUT
10
58.5481
20
122.9730
0
VERTEX
8
CUT
10
58.3119
20
122.9150
0
VERTEX
8
CUT
10
58.0823
20
122.8344
0
VERTEX
8
CUT
10
57.8617
20
122.7319
0
VERTEX
8
CUT
10
57.6521
20
122.6084
0
VERTEX
8
CUT
10
57.4555
20
122.4651
0
VERTEX
8
CUT
10
57.2738
20
122.3034
0
VERTEX
8
CUT
10
57.1086
20
122.1248
0
VERTEX
8
CUT
10
56.9616
20
121.9309
0
VERTEX
8
CUT
10
56.8341
20
121.7237
0
VERTEX
8
CUT
10
56.7274
20
121.5051
0
VERTEX
8
CUT
10
56.6424
20
121.2772
0
VERTEX
8
CUT
10
56.5799
20
121.0421
0
VERTEX
8
CUT
10
56.5407
20
120.8020
0
VERTEX
8
CUT
10
56.5249
20
120.5592
0
VERTEX
8
CUT
10
56.5328
20
120.3161
0
VERTEX
8
CUT
10
56.5414
20
120.2499
0
VERTEX
8
CUT
10
56.5530
20
120.1185
0
VERTEX
8
CUT
10
56.5534
20
120.1005
0
VERTEX
8
CUT
10
56.5409
20
116.0263
0
VERTEX
8
CUT
10
56.5405
20
116.0095
0
VERTEX
8
CUT
10
56.5374
20
115.9749
0
VERTEX
8
CUT
10
56.5314
20
115.9406
0
VERTEX
8
CUT
10
56.5276
20
115.9247
0
VERTEX
8
CUT
10
56.0855
20
114.2383
0
VERTEX
8
CUT
10
56.0353
20
113.9998
0
VERTEX
8
CUT
10
56.0085
20
113.7575
0
VERTEX
8
CUT
10
55.9669
20
113.0791
0
VERTEX
8
CUT
10
55.9654
20
113.0621
0
VERTEX
8
CUT
10
55.9602
20
113.0269
0
VERTEX
8
CUT
10
55.9519
20
112.9922
0
VERTEX
8
CUT
10
55.9470
20
112.9763
0
VERTEX
8
CUT
10
55.3754
20
111.2534
0
VERTEX
8
CUT
10
55.3523
20
111.1897
0
VERTEX
8
CUT
10
55.3257
20
111.1274
0
VERTEX
8
CUT
10
52.3077
20
104.5648
0
VERTEX
8
CUT
10
52.1796
20
104.2220
0
VERTEX
8
CUT
10
50.8340
20
99.6214
0
VERTEX
8
CUT
10
50.7757
20
99.3770
0
VERTEX
8
CUT
10
50.7422
20
99.1279
0
VERTEX
8
CUT
10
50.4540
20
95.6814
0
VERTEX
8
CUT
10
50.4454
20
95.4620
0
VERTEX
8
CUT
10
50.4616
20
91.8261
0
VERTEX
8
CUT
10
50.4730
20
91.5985
0
VERTEX
8
CUT
10
50.5051
20
91.3729
0
VERTEX
8
CUT
10
50.5576
20
91.1511
0
VERTEX
8
CUT
10
50.6962
20
90.6654
0
VERTEX
8
CUT
10
50.7007
20
90.6481
0
VERTEX
8
CUT
10
50.7077
20
90.6115
0
VERTEX
8
CUT
10
50.7113
20
90.5743
0
VERTEX
8
CUT
10
50.7118
20
90.5568
0
VERTEX
8
CUT
10
50.7214
20
89.0355
0
VERTEX
8
CUT
10
50.7210
20
89.0141
0
VERTEX
8
CUT
10
50.7165
20
88.9700
0
VERTEX
8
CUT
10
50.7072
20
88.9267
0
VERTEX
8
CUT
10
50.7011
20
88.9062
0
VERTEX
8
CUT
10
50.5845
20
88.5527
0
VERTEX
8
CUT
10
50.5188
20
88.3143
0
VERTEX
8
CUT
10
50.4769
20
88.0705
0
VERTEX
8
CUT
10
50.4594
20
87.8237
0
VERTEX
8
CUT
10
50.4059
20
85.3382
0
VERTEX
8
CUT
10
50.4050
20
85.3186
0
VERTEX
8
CUT
10
50.4001
20
85.2786
0
VERTEX
8
CUT
10
50.3875
20
85.2403
0
VERTEX
8
CUT
10
50.3800
20
85.2222
0
VERTEX
8
CUT
10
50.3697
20
85.1990
0
VERTEX
8
CUT
10
50.2851
20
84.9812
0
VERTEX
8
CUT
10
50.2212
20
84.7565
0
VERTEX
8
CUT
10
50.1786
20
84.5268
0
VERTEX
8
CUT
10
50.1575
20
84.2941
0
VERTEX
8
CUT
10
50.1280
20
83.6125
0
VERTEX
8
CUT
10
50.1269
20
83.5952
0
VERTEX
8
CUT
10
50.1176
20
83.5244
0
VERTEX
8
CUT
10
50.1142
20
83.5074
0
VERTEX
8
CUT
10
49.5300
20
80.8579
0
VERTEX
8
CUT
10
49.5187
20
80.8111
0
VERTEX
8
CUT
10
49.5056
20
80.7649
0
VERTEX
8
CUT
10
45.4254
20
67.3653
0
VERTEX
8
CUT
10
45.4188
20
67.3457
0
VERTEX
8
CUT
10
45.3857
20
67.2671
0
VERTEX
8
CUT
10
45.3762
20
67.2488
0
VERTEX
8
CUT
10
42.6102
20
62.2221
0
VERTEX
8
CUT
10
42.5025
20
62.0013
0
VERTEX
8
CUT
10
42.4169
20
61.7710
0
VERTEX
8
CUT
10
42.3544
20
61.5335
0
VERTEX
8
CUT
10
42.3155
20
61.2910
0
VERTEX
8
CUT
10
42.3006
20
61.0458
0
VERTEX
8
CUT
10
42.3098
20
60.8003
0
VERTEX
8
CUT
10
42.3431
20
60.5569
0
VERTEX
8
CUT
10
42.4001
20
60.3180
0
VERTEX
8
CUT
10
42.4803
20
60.0858
0
VERTEX
8
CUT
10
42.5828
20
59.8626
0
VERTEX
8
CUT
10
42.7509
20
59.5396
0
VERTEX
8
CUT
10
42.7604
20
59.5201
0
VERTEX
8
CUT
10
42.7766
20
59.4785
0
VERTEX
8
CUT
10
42.7833
20
59.4344
0
VERTEX
8
CUT
10
42.7847
20
59.4128
0
VERTEX
8
CUT
10
42.8209
20
58.5285
0
VERTEX
8
CUT
10
42.8212
20
58.5115
0
VERTEX
8
CUT
10
42.8196
20
58.4762
0
VERTEX
8
CUT
10
42.8120
20
58.4421
0
VERTEX
8
CUT
10
42.8072
20
58.4255
0
VERTEX
8
CUT
10
42.0790
20
56.1003
0
VERTEX
8
CUT
10
42.0057
20
55.8042
0
VERTEX
8
CUT
10
41.9691
20
55.5015
0
VERTEX
8
CUT
10
41.9113
20
54.5295
0
VERTEX
8
CUT
10
41.9096
20
54.5093
0
VERTEX
8
CUT
10
41.9029
20
54.4683
0
VERTEX
8
CUT
10
41.8880
20
54.4294
0
VERTEX
8
CUT
10
41.8793
20
54.4112
0
VERTEX
8
CUT
10
41.6418
20
53.9412
0
VERTEX
8
CUT
10
41.5362
20
53.7020
0
VERTEX
8
CUT
10
41.4561
20
53.4530
0
VERTEX
8
CUT
10
41.4025
20
53.1970
0
VERTEX
8
CUT
10
41.3760
20
52.9368
0
VERTEX
8
CUT
10
41.3427
20
52.2642
0
VERTEX
8
CUT
10
41.3412
20
52.2435
0
VERTEX
8
CUT
10
41.3345
20
52.2009
0
VERTEX
8
CUT
10
41.3235
20
52.1593
0
VERTEX
8
CUT
10
41.3165
20
52.1396
0
VERTEX
8
CUT
10
40.9655
20
51.2212
0
VERTEX
8
CUT
10
40.8834
20
50.9661
0
VERTEX
8
CUT
10
40.8290
20
50.7036
0
VERTEX
8
CUT
10
40.8031
20
50.4368
0
VERTEX
8
CUT
10
40.7550
20
49.3259
0
VERTEX
8
CUT
10
40.7538
20
49.3087
0
VERTEX
8
CUT
10
40.7492
20
49.2731
0
VERTEX
8
CUT
10
40.7414
20
49.2380
0
VERTEX
8
CUT
10
40.7367
20
49.2219
0
VERTEX
8
CUT
10
40.3281
20
47.9218
0
VERTEX
8
CUT
10
40.2730
20
47.7165
0
VERTEX
8
CUT
10
40.2356
20
47.5072
0
VERTEX
8
CUT
10
40.2161
20
47.2955
0
VERTEX
8
CUT
10
40.1725
20
46.4129
0
VERTEX
8
CUT
10
40.1709
20
46.3921
0
VERTEX
8
CUT
10
40.1576
20
46.3067
0
VERTEX
8
CUT
10
40.1528
20
46.2863
0
VERTEX
8
CUT
10
39.7160
20
44.6423
0
VERTEX
8
CUT
10
39.6589
20
44.3650
0
VERTEX
8
CUT
10
39.6335
20
44.0831
0
VERTEX
8
CUT
10
39.5970
20
42.9802
0
VERTEX
8
CUT
10
39.5958
20
42.9600
0
VERTEX
8
CUT
10
39.5902
20
42.9185
0
VERTEX
8
CUT
10
39.5803
20
42.8778
0
VERTEX
8
CUT
10
39.5740
20
42.8586
0
VERTEX
8
CUT
10
39.4794
20
42.5907
0
VERTEX
8
CUT
10
39.4037
20
42.3335
0
VERTEX
8
CUT
10
39.3560
20
42.0695
0
VERTEX
8
CUT
10
39.3368
20
41.8020
0
VERTEX
8
CUT
10
39.3008
20
39.7802
0
VERTEX
8
CUT
10
39.3006
20
39.7748
0
VERTEX
8
CUT
10
39.2958
20
39.7247
0
VERTEX
8
CUT
10
39.2911
20
39.6998
0
VERTEX
8
CUT
10
39.2854
20
39.6764
0
VERTEX
8
CUT
10
39.1425
20
39.1504
0
VERTEX
8
CUT
10
39.0933
20
38.9305
0
VERTEX
8
CUT
10
39.0641
20
38.7070
0
VERTEX
8
CUT
10
39.0552
20
38.4818
0
VERTEX
8
CUT
10
39.0820
20
33.4599
0
VERTEX
8
CUT
10
39.0955
20
33.2136
0
VERTEX
8
CUT
10
39.1332
20
32.9699
0
VERTEX
8
CUT
10
39.1947
20
32.7311
0
VERTEX
8
CUT
10
39.2675
20
32.5320
0
SEQEND
0
POLYLINE
8
CUT
66
1
70
1
10
0.0
20
0.0
30
0.0
0
VERTEX
8
CUT
10
58.3092
20
131.3454
0
VERTEX
8
CUT
10
58.3975
20
131.1520
0
VERTEX
8
CUT
10
59.7647
20
128.4665
0
VERTEX
8
CUT
10
59.7668
20
128.4623
0
VERTEX
8
CUT
10
59.7946
20
128.3967
0
VERTEX
8
CUT
10
59.8001
20
128.3814
0
VERTEX
8
CUT
10
59.8268
20
128.3017
0
VERTEX
8
CUT
10
59.9143
20
128.0771
0
VERTEX
8
CUT
10
60.0230
20
127.8619
0
VERTEX
8
CUT
10
60.1519
20
127.6583
0
VERTEX
8
CUT
10
60.2998
20
127.4680
0
VERTEX
8
CUT
10
60.4654
20
127.2928
0
VERTEX
8
CUT
10
60.6471
20
127.1344
0
VERTEX
8
CUT
10
60.8432
20
126.9942
0
VERTEX
8
CUT
10
61.0518
20
126.8736
0
VERTEX
8
CUT
10
61.2712
20
126.7736
0
VERTEX
8
CUT
10
61.4991
20
126.6952
0
VERTEX
8
CUT
10
61.7335
20
126.6391
0
VERTEX
8
CUT
10
61.9722
20
126.6059
0
VERTEX
8
CUT
10
61.9871
20
126.6045
0
VERTEX
8
CUT
10
62.0959
20
126.5839
0
VERTEX
8
CUT
10
62.2021
20
126.5527
0
VERTEX
8
CUT
10
62.3048
20
126.5114
0
VERTEX
8
CUT
10
62.4029
20
126.4602
0
VERTEX
8
CUT
10
62.5003
20
126.3966
0
VERTEX
8
CUT
10
62.5160
20
126.3853
0
VERTEX
8
CUT
10
62.5645
20
126.3483
0
VERTEX
8
CUT
10
63.1848
20
125.8510
0
VERTEX
8
CUT
10
63.2353
20
125.8082
0
VERTEX
8
CUT
10
63.2757
20
125.7722
0
VERTEX
8
CUT
10
63.3239
20
125.7268
0
VERTEX
8
CUT
10
65.8411
20
123.2280
0
VERTEX
8
CUT
10
65.8884
20
123.1784
0
VERTEX
8
CUT
10
65.9259
20
123.1368
0
VERTEX
8
CUT
10
65.9704
20
123.0847
0
VERTEX
8
CUT
10
67.1003
20
121.6857
0
VERTEX
8
CUT
10
67.1351
20
121.6405
0
VERTEX
8
CUT
10
67.1458
20
121.6260
0
VERTEX
8
CUT
10
67.2091
20
121.5311
0
VERTEX
8
CUT
10
67.2184
20
121.5157
0
VERTEX
8
CUT
10
67.2467
20
121.4662
0
VERTEX
8
CUT
10
69.0518
20
118.1372
0
VERTEX
8
CUT
10
69.0769
20
118.0885
0
VERTEX
8
CUT
10
69.0845
20
118.0729
0
VERTEX
8
CUT
10
69.1280
20
117.9725
0
VERTEX
8
CUT
10
69.1342
20
117.9562
0
VERTEX
8
CUT
10
69.1527
20
117.9047
0
VERTEX
8
CUT
10
69.9000
20
115.6616
0
VERTEX
8
CUT
10
69.9206
20
115.5934
0
VERTEX
8
CUT
10
69.9265
20
115.5717
0
VERTEX
8
CUT
10
69.9558
20
115.4326
0
VERTEX
8
CUT
10
69.9592
20
115.4103
0
VERTEX
8
CUT
10
69.9679
20
115.3396
0
VERTEX
8
CUT
10
70.2575
20
112.2612
0
VERTEX
8
CUT
10
70.2614
20
112.2076
0
VERTEX
8
CUT
10
70.2623
20
112.1906
0
VERTEX
8
CUT
10
70.2631
20
112.0882
0
VERTEX
8
CUT
10
70.2555
20
111.9911
0
VERTEX
8
CUT
10
70.2388
20
111.8900
0
VERTEX
8
CUT
10
70.2353
20
111.8734
0
VERTEX
8
CUT
10
70.2231
20
111.8211
0
VERTEX
8
CUT
10
70.0819
20
111.2678
0
VERTEX
8
CUT
10
70.0292
20
111.0017
0
VERTEX
8
CUT
10
70.0056
20
110.7315
0
VERTEX
8
CUT
10
69.9661
20
109.5248
0
VERTEX
8
CUT
10
69.9627
20
109.4650
0
VERTEX
8
CUT
10
69.9612
20
109.4460
0
VERTEX
8
CUT
10
69.9465
20
109.3328
0
VERTEX
8
CUT
10
69.9211
20
109.2214
0
VERTEX
8
CUT
10
69.9160
20
109.2031
0
VERTEX
8
CUT
10
69.8985
20
109.1458
0
VERTEX
8
CUT
10
68.8948
20
106.1204
0
VERTEX
8
CUT
10
68.8633
20
106.0358
0
VERTEX
8
CUT
10
68.8351
20
105.9677
0
VERTEX
8
CUT
10
68.7976
20
105.8856
0
VERTEX
8
CUT
10
68.0523
20
104.3994
0
VERTEX
8
CUT
10
68.0210
20
104.3409
0
VERTEX
8
CUT
10
67.9942
20
104.2938
0
VERTEX
8
CUT
10
67.9598
20
104.2370
0
VERTEX
8
CUT
10
64.8745
20
99.4340
0
VERTEX
8
CUT
10
64.7426
20
99.2024
0
VERTEX
8
CUT
10
63.5259
20
96.7732
0
VERTEX
8
CUT
10
63.4341
20
96.5672
0
VERTEX
8
CUT
10
63.3612
20
96.3537
0
VERTEX
8
CUT
10
62.1084
20
92.0593
0
VERTEX
8
CUT
10
62.0533
20
91.8308
0
VERTEX
8
CUT
10
62.0198
20
91.5982
0
VERTEX
8
CUT
10
62.0084
20
91.3634
0
VERTEX
8
CUT
10
62.0038
20
88.7040
0
VERTEX
8
CUT
10
62.0155
20
88.4589
0
VERTEX
8
CUT
10
62.0511
20
88.2160
0
VERTEX
8
CUT
10
62.1103
20
87.9779
0
VERTEX
8
CUT
10
62.1926
20
87.7467
0
VERTEX
8
CUT
10
62.2972
20
87.5246
0
VERTEX
8
CUT
10
62.4231
20
87.3139
0
VERTEX
8
CUT
10
62.5690
20
87.1166
0
VERTEX
8
CUT
10
62.7335
20
86.9345
0
VERTEX
8
CUT
10
62.9152
20
86.7694
0
VERTEX
8
CUT
10
63.1121
20
86.6230
0
VERTEX
8
CUT
10
63.3224
20
86.4965
0
VERTEX
8
CUT
10
63.5442
20
86.3913
0
VERTEX
8
CUT
10
63.7751
20
86.3083
0
VERTEX
8
CUT
10
64.0131
20
86.2484
0
VERTEX
8
CUT
10
64.2559
20
86.2121
0
VERTEX
8
CUT
10
64.5010
20
86.1998
0
VERTEX
8
CUT
10
64.7461
20
86.2115
0
VERTEX
8
CUT
10
64.9889
20
86.2473
0
VERTEX
8
CUT
10
65.2271
20
86.3067
0
VERTEX
8
CUT
10
65.4582
20
86.3891
0
VERTEX
8
CUT
10
65.6802
20
86.4938
0
VERTEX
8
CUT
10
65.8908
20
86.6198
0
VERTEX
8
CUT
10
66.0881
20
86.7658
0
VERTEX
8
CUT
10
66.2701
20
86.9305
0
VERTEX
8
CUT
10
66.4351
20
87.1122
0
VERTEX
8
CUT
10
66.5814
20
87.3092
0
VERTEX
8
CUT
10
66.7078
20
87.5196
0
VERTEX
8
CUT
10
68.1091
20
90.1367
0
VERTEX
8
CUT
10
68.1177
20
90.1519
0
VERTEX
8
CUT
10
68.1594
20
90.2149
0
VERTEX
8
CUT
10
68.1700
20
90.2288
0
VERTEX
8
CUT
10
70.6844
20
93.3546
0
VERTEX
8
CUT
10
70.6983
20
93.3709
0
VERTEX
8
CUT
10
70.7640
20
93.4358
0
VERTEX
8
CUT
10
70.7805
20
93.4495
0
VERTEX
8
CUT
10
73.4291
20
95.5291
0
VERTEX
8
CUT
10
73.4832
20
95.5692
0
VERTEX
8
CUT
10
73.5396
20
95.6062
0
VERTEX
8
CUT
10
78.1871
20
98.4720
0
VERTEX
8
CUT
10
78.3908
20
98.6119
0
VERTEX
8
CUT
10
80.5157
20
100.2320
0
VERTEX
8
CUT
10
80.7784
20
100.4631
0
VERTEX
8
CUT
10
82.2815
20
101.9847
0
VERTEX
8
CUT
10
82.4527
20
102.1767
0
VERTEX
8
CUT
10
83.3771
20
103.3284
0
VERTEX
8
CUT
10
83.5307
20
103.5418
0
VERTEX
8
CUT
10
83.6610
20
103.7702
0
VERTEX
8
CUT
10
84.8374
20
106.1096
0
VERTEX
8
CUT
10
84.9149
20
106.2791
0
VERTEX
8
CUT
10
84.9795
20
106.4540
0
VERTEX
8
CUT
10
85.3672
20
107.6366
0
VERTEX
8
CUT
10
85.4309
20
107.8679
0
VERTEX
8
CUT
10
85.4721
20
108.1042
0
VERTEX
8
CUT
10
85.4905
20
108.3434
0
VERTEX
8
CUT
10
85.5256
20
109.5631
0
VERTEX
8
CUT
10
85.5265
20
109.5806
0
VERTEX
8
CUT
10
85.5311
20
109.6181
0
VERTEX
8
CUT
10
85.5392
20
109.6550
0
VERTEX
8
CUT
10
85.5441
20
109.6718
0
VERTEX
8
CUT
10
85.6184
20
109.9045
0
VERTEX
8
CUT
10
85.6843
20
110.1551
0
VERTEX
8
CUT
10
85.7239
20
110.4111
0
VERTEX
8
CUT
10
85.7368
20
110.6698
0
VERTEX
8
CUT
10
85.7228
20
110.9285
0
VERTEX
8
CUT
10
85.5006
20
113.0223
0
VERTEX
8
CUT
10
85.4653
20
113.2522
0
VERTEX
8
CUT
10
85.4088
20
113.4779
0
VERTEX
8
CUT
10
84.6880
20
115.8771
0
VERTEX
8
CUT
10
84.6163
20
116.0828
0
VERTEX
8
CUT
10
84.5269
20
116.2814
0
VERTEX
8
CUT
10
83.6181
20
118.0876
0
VERTEX
8
CUT
10
83.5157
20
118.2714
0
VERTEX
8
CUT
10
83.3982
20
118.4459
0
VERTEX
8
CUT
10
81.3299
20
121.2559
0
VERTEX
8
CUT
10
81.1905
20
121.4287
0
VERTEX
8
CUT
10
76.7591
20
126.4474
0
VERTEX
8
CUT
10
76.5503
20
126.6573
0
VERTEX
8
CUT
10
71.7723
20
130.9244
0
VERTEX
8
CUT
10
71.7211
20
130.9728
0
VERTEX
8
CUT
10
71.6729
20
131.0243
0
VERTEX
8
CUT
10
65.7092
20
137.7757
0
VERTEX
8
CUT
10
65.4542
20
138.0258
0
VERTEX
8
CUT
10
63.5175
20
139.6712
0
VERTEX
8
CUT
10
63.3481
20
139.8030
0
VERTEX
8
CUT
10
63.1680
20
139.9199
0
VERTEX
8
CUT
10
62.9786
20
140.0208
0
VERTEX
8
CUT
10
61.5573
20
140.7014
0
VERTEX
8
CUT
10
61.3506
20
140.7892
0
VERTEX
8
CUT
10
61.1368
20
140.8581
0
VERTEX
8
CUT
10
60.9178
20
140.9075
0
VERTEX
8
CUT
10
60.6951
20
140.9371
0
VERTEX
8
CUT
10
60.4707
20
140.9466
0
VERTEX
8
CUT
10
58.2582
20
140.9405
0
VERTEX
8
CUT
10
58.0144
20
140.9279
0
VERTEX
8
CUT
10
57.7729
20
140.8916
0
VERTEX
8
CUT
10
57.5361
20
140.8319
0
VERTEX
8
CUT
10
57.3063
20
140.7494
0
VERTEX
8
CUT
10
57.0856
20
140.6448
0
VERTEX
8
CUT
10
56.8762
20
140.5193
0
VERTEX
8
CUT
10
56.6801
20
140.3738
0
VERTEX
8
CUT
10
56.4990
20
140.2100
0
VERTEX
8
CUT
10
56.3348
20
140.0293
0
VERTEX
8
CUT
10
56.1890
20
139.8334
0
VERTEX
8
CUT
10
56.0631
20
139.6242
0
VERTEX
8
CUT
10
55.9581
20
139.4037
0
VERTEX
8
CUT
10
55.8751
20
139.1741
0
VERTEX
8
CUT
10
55.8150
20
138.9374
0
VERTEX
8
CUT
10
55.7782
20
138.6960
0
VERTEX
8
CUT
10
55.7651
20
138.4522
0
VERTEX
8
CUT
10
55.7759
20
138.2082
0
VERTEX
8
CUT
10
55.8104
20
137.9665
0
VERTEX
8
CUT
10
55.8684
20
137.7293
0
VERTEX
8
CUT
10
56.5183
20
135.5393
0
VERTEX
8
CUT
10
56.6485
20
135.1956
0
VERTEX
8
CUT
10
58.0949
20
132.0879
0
VERTEX
8
CUT
10
58.1032
20
132.0689
0
VERTEX
8
CUT
10
58.1317
20
131.9843
0
VERTEX
8
CUT
10
58.1367
20
131.9643
0
VERTEX
8
CUT
10
58.1833
20
131.7512
0
VERTEX
8
CUT
10
58.2376
20
131.5456
0
SEQEND
0
POLYLINE
8
CUT
66
1
70
1
10
0.0
20
0.0
30
0.0
0
VERTEX
8
CUT
10
37.2697
20
242.4903
0
VERTEX
8
CUT
10
37.3706
20
242.2712
0
VERTEX
8
CUT
10
37.4923
20
242.0627
0
VERTEX
8
CUT
10
37.6335
20
241.8670
0
VERTEX
8
CUT
10
37.7929
20
241.6858
0
VERTEX
8
CUT
10
38.1612
20
241.3057
0
VERTEX
8
CUT
10
38.3502
20
241.1299
0
VERTEX
8
CUT
10
38.5564
20
240.9744
0
VERTEX
8
CUT
10
38.7774
20
240.8411
0
VERTEX
8
CUT
10
39.0111
20
240.7312
0
VERTEX
8
CUT
10
39.5382
20
240.5159
0
VERTEX
8
CUT
10
39.7640
20
240.4360
0
VERTEX
8
CUT
10
39.9965
20
240.3782
0
VERTEX
8
CUT
10
40.2334
20
240.3428
0
VERTEX
8
CUT
10
40.4726
20
240.3303
0
VERTEX
8
CUT
10
40.7759
20
240.3289
0
VERTEX
8
CUT
10
40.9859
20
240.3369
0
VERTEX
8
CUT
10
41.1944
20
240.3624
0
VERTEX
8
CUT
10
41.4001
20
240.4053
0
VERTEX
8
CUT
10
41.8021
20
240.5070
0
VERTEX
8
CUT
10
42.0413
20
240.5804
0
VERTEX
8
CUT
10
42.2720
20
240.6774
0
VERTEX
8
CUT
10
42.4918
20
240.7970
0
VERTEX
8
CUT
10
42.6985
20
240.9379
0
VERTEX
8
CUT
10
42.8875
20
241.0811
0
VERTEX
8
CUT
10
43.0642
20
241.2282
0
VERTEX
8
CUT
10
43.2266
20
241.3910
0
VERTEX
8
CUT
10
43.3734
20
241.5680
0
VERTEX
8
CUT
10
43.5033
20
241.7577
0
VERTEX
8
CUT
10
43.6153
20
241.9585
0
VERTEX
8
CUT
10
43.9369
20
242.6038
0
VERTEX
8
CUT
10
44.0298
20
242.8139
0
VERTEX
8
CUT
10
44.1030
20
243.0316
0
VERTEX
8
CUT
10
44.1560
20
243.2551
0
VERTEX
8
CUT
10
44.1882
20
243.4825
0
VERTEX
8
CUT
10
44.1994
20
243.7120
0
VERTEX
8
CUT
10
44.2006
20
244.1368
0
VERTEX
8
CUT
10
44.1869
20
244.4051
0
VERTEX
8
CUT
10
44.1445
20
244.6703
0
VERTEX
8
CUT
10
44.0739
20
244.9295
0
VERTEX
8
CUT
10
43.9759
20
245.1796
0
VERTEX
8
CUT
10
43.8516
20
245.4178
0
VERTEX
8
CUT
10
43.5166
20
245.9835
0
VERTEX
8
CUT
10
43.4012
20
246.1608
0
VERTEX
8
CUT
10
43.2712
20
246.3277
0
VERTEX
8
CUT
10
43.1275
20
246.4830
0
VERTEX
8
CUT
10
42.9871
20
246.6226
0
VERTEX
8
CUT
10
42.8064
20
246.7854
0
VERTEX
8
CUT
10
42.6108
20
246.9299
0
VERTEX
8
CUT
10
42.2579
20
247.1649
0
VERTEX
8
CUT
10
42.0701
20
247.2784
0
VERTEX
8
CUT
10
41.8731
20
247.3750
0
VERTEX
8
CUT
10
41.6684
20
247.4539
0
VERTEX
8
CUT
10
41.5248
20
247.5021
0
VERTEX
8
CUT
10
41.2759
20
247.5717
0
VERTEX
8
CUT
10
41.0212
20
247.6151
0
VERTEX
8
CUT
10
40.7634
20
247.6321
0
VERTEX
8
CUT
10
40.5059
20
247.6357
0
VERTEX
8
CUT
10
40.2616
20
247.6271
0
VERTEX
8
CUT
10
40.0193
20
247.5947
0
VERTEX
8
CUT
10
39.7814
20
247.5389
0
VERTEX
8
CUT
10
39.5500
20
247.4601
0
VERTEX
8
CUT
10
39.0740
20
247.2714
0
VERTEX
8
CUT
10
38.8447
20
247.1668
0
VERTEX
8
CUT
10
38.6270
20
247.0397
0
VERTEX
8
CUT
10
38.4233
20
246.8913
0
VERTEX
8
CUT
10
38.2355
20
246.7232
0
VERTEX
8
CUT
10
37.8398
20
246.3312
0
VERTEX
8
CUT
10
37.6695
20
246.1444
0
VERTEX
8
CUT
10
37.5189
20
245.9414
0
VERTEX
8
CUT
10
37.3895
20
245.7242
0
VERTEX
8
CUT
10
37.2828
20
245.4951
0
VERTEX
8
CUT
10
37.0882
20
245.0154
0
VERTEX
8
CUT
10
37.0064
20
244.7813
0
VERTEX
8
CUT
10
36.9483
20
244.5401
0
VERTEX
8
CUT
10
36.9144
20
244.2945
0
VERTEX
8
CUT
10
36.9049
20
244.0466
0
VERTEX
8
CUT
10
36.9072
20
243.8454
0
VERTEX
8
CUT
10
36.9207
20
243.6135
0
VERTEX
8
CUT
10
36.9557
20
243.3838
0
VERTEX
8
CUT
10
37.0118
20
243.1583
0
VERTEX
8
CUT
10
37.0886
20
242.9391
0
SEQEND
0
POLYLINE
8
CUT
66
1
70
1
10
0.0
20
0.0
30
0.0
0
VERTEX
8
CUT
10
37.5051
20
94.6234
0
VERTEX
8
CUT
10
37.7029
20
94.4790
0
VERTEX
8
CUT
10
37.9138
20
94.3546
0
VERTEX
8
CUT
10
38.1359
20
94.2515
0
VERTEX
8
CUT
10
38.3670
20
94.1706
0
VERTEX
8
CUT
10
38.6049
20
94.1127
0
VERTEX
8
CUT
10
38.8473
20
94.0783
0
VERTEX
8
CUT
10
39.0920
20
94.0678
0
VERTEX
8
CUT
10
39.5633
20
94.0708
0
VERTEX
8
CUT
10
39.8116
20
94.0847
0
VERTEX
8
CUT
10
40.0572
20
94.1232
0
VERTEX
8
CUT
10
40.2977
20
94.1859
0
VERTEX
8
CUT
10
40.5309
20
94.2721
0
VERTEX
8
CUT
10
40.7543
20
94.3811
0
VERTEX
8
CUT
10
40.9658
20
94.5118
0
VERTEX
8
CUT
10
41.1633
20
94.6628
0
VERTEX
8
CUT
10
41.3448
20
94.8327
0
VERTEX
8
CUT
10
41.5661
20
95.0614
0
VERTEX
8
CUT
10
41.7262
20
95.2440
0
VERTEX
8
CUT
10
41.8679
20
95.4412
0
VERTEX
8
CUT
10
41.9898
20
95.6513
0
VERTEX
8
CUT
10
42.0907
20
95.8722
0
VERTEX
8
CUT
10
42.1697
20
96.1018
0
VERTEX
8
CUT
10
42.2261
20
96.3380
0
VERTEX
8
CUT
10
42.2593
20
96.5786
0
VERTEX
8
CUT
10
42.2690
20
96.8212
0
VERTEX
8
CUT
10
42.2637
20
97.4285
0
VERTEX
8
CUT
10
42.2507
20
97.6623
0
VERTEX
8
CUT
10
42.2159
20
97.8937
0
VERTEX
8
CUT
10
42.1596
20
98.1210
0
VERTEX
8
CUT
10
42.0823
20
98.3419
0
VERTEX
8
CUT
10
41.9847
20
98.5547
0
VERTEX
8
CUT
10
41.9533
20
98.6153
0
VERTEX
8
CUT
10
41.8298
20
98.8280
0
VERTEX
8
CUT
10
41.6860
20
99.0275
0
VERTEX
8
CUT
10
41.5233
20
99.2119
0
VERTEX
8
CUT
10
41.3432
20
99.3794
0
VERTEX
8
CUT
10
41.1476
20
99.5284
0
VERTEX
8
CUT
10
40.9383
20
99.6574
0
VERTEX
8
CUT
10
40.7173
20
99.7653
0
VERTEX
8
CUT
10
40.4868
20
99.8510
0
VERTEX
8
CUT
10
40.2489
20
99.9135
0
VERTEX
8
CUT
10
40.0061
20
99.9524
0
VERTEX
8
CUT
10
39.7607
20
99.9673
0
VERTEX
8
CUT
10
39.0747
20
99.9750
0
VERTEX
8
CUT
10
38.8214
20
99.9651
0
VERTEX
8
CUT
10
38.5705
20
99.9295
0
VERTEX
8
CUT
10
38.3245
20
99.8687
0
VERTEX
8
CUT
10
38.0859
20
99.7833
0
VERTEX
8
CUT
10
37.8572
20
99.6742
0
VERTEX
8
CUT
10
37.6407
20
99.5425
0
VERTEX
8
CUT
10
37.4386
20
99.3896
0
VERTEX
8
CUT
10
37.2531
20
99.2170
0
VERTEX
8
CUT
10
36.8895
20
98.8427
0
VERTEX
8
CUT
10
36.7226
20
98.6524
0
VERTEX
8
CUT
10
36.5757
20
98.4461
0
VERTEX
8
CUT
10
36.4504
20
98.2261
0
VERTEX
8
CUT
10
36.4174
20
98.1606
0
VERTEX
8
CUT
10
36.3211
20
97.9446
0
VERTEX
8
CUT
10
36.2456
20
97.7205
0
VERTEX
8
CUT
10
36.1916
20
97.4902
0
VERTEX
8
CUT
10
36.1596
20
97.2559
0
VERTEX
8
CUT
10
36.1499
20
97.0195
0
VERTEX
8
CUT
10
36.1626
20
96.7834
0
VERTEX
8
CUT
10
36.1976
20
96.5495
0
VERTEX
8
CUT
10
36.2545
20
96.3199
0
VERTEX
8
CUT
10
36.3328
20
96.0967
0
VERTEX
8
CUT
10
36.4319
20
95.8820
0
VERTEX
8
CUT
10
36.4826
20
95.7844
0
VERTEX
8
CUT
10
36.6151
20
95.5593
0
VERTEX
8
CUT
10
36.7703
20
95.3492
0
VERTEX
8
CUT
10
36.9466
20
95.1564
0
VERTEX
8
CUT
10
37.3224
20
94.7864
0
SEQEND
0
ENDSEC
0
EOF
