0
SECTION
2
HEADER
9
$ACADVER
1
AC1009
9
$INSUNITS
70
4
0
ENDSEC
0
SECTION
2
TABLES
0
TABLE
2
LAYER
70
1
0
LAYER
2
CUT
70
0
62
7
6
CONTINUOUS
0
ENDTAB
0
ENDSEC
0
SECTION
2
ENTITIES
0
POLYLINE
8
CUT
66
1
70
1
10
0.0
20
0.0
30
0.0
0
VERTEX
8
CUT
10
0.0000
20
299.9386
0
VERTEX
8
CUT
10
0.0029
20
299.9971
0
VERTEX
8
CUT
10
0.0614
20
300.0000
0
VERTEX
8
CUT
10
299.9341
20
300.0000
0
VERTEX
8
CUT
10
299.9926
20
299.9971
0
VERTEX
8
CUT
10
299.9954
20
299.9386
0
VERTEX
8
CUT
10
299.9954
20
0.0614
0
VERTEX
8
CUT
10
299.9926
20
0.0029
0
VERTEX
8
CUT
10
299.9341
20
-0.0000
0
VERTEX
8
CUT
10
0.0614
20
-0.0000
0
VERTEX
8
CUT
10
0.0029
20
0.0029
0
VERTEX
8
CUT
10
0.0000
20
0.0614
0
SEQEND
0
POLYLINE
8
CUT
66
1
70
1
10
0.0
20
0.0
30
0.0
0
VERTEX
8
CUT
10
266.2153
20
104.7911
0
VERTEX
8
CUT
10
266.0528
20
104.6080
0
VERTEX
8
CUT
10
265.9090
20
104.4099
0
VERTEX
8
CUT
10
265.7853
20
104.1987
0
VERTEX
8
CUT
10
265.6828
20
103.9764
0
VERTEX
8
CUT
10
265.6026
20
103.7451
0
VERTEX
8
CUT
10
265.5453
20
103.5071
0
VERTEX
8
CUT
10
265.5117
20
103.2646
0
VERTEX
8
CUT
10
265.5018
20
103.0200
0
VERTEX
8
CUT
10
265.5084
20
102.2828
0
VERTEX
8
CUT
10
265.5209
20
102.0547
0
VERTEX
8
CUT
10
265.5541
20
101.8287
0
VERTEX
8
CUT
10
265.6078
20
101.6067
0
VERTEX
8
CUT
10
265.6816
20
101.3905
0
VERTEX
8
CUT
10
265.7747
20
101.1819
0
VERTEX
8
CUT
10
265.9340
20
100.8653
0
VERTEX
8
CUT
10
266.0688
20
100.6299
0
VERTEX
8
CUT
10
266.2283
20
100.4105
0
VERTEX
8
CUT
10
266.4107
20
100.2097
0
VERTEX
8
CUT
10
266.6324
20
99.9908
0
VERTEX
8
CUT
10
266.8207
20
99.8227
0
VERTEX
8
CUT
10
267.0249
20
99.6745
0
VERTEX
8
CUT
10
267.2431
20
99.5476
0
VERTEX
8
CUT
10
267.4730
20
99.4434
0
VERTEX
8
CUT
10
268.0556
20
99.2139
0
VERTEX
8
CUT
10
268.2765
20
99.1386
0
VERTEX
8
CUT
10
268.5034
20
99.0843
0
VERTEX
8
CUT
10
268.7344
20
99.0513
0
VERTEX
8
CUT
10
268.9675
20
99.0400
0
VERTEX
8
CUT
10
269.5299
20
99.0391
0
VERTEX
8
CUT
10
269.7750
20
99.0507
0
VERTEX
8
CUT
10
270.0178
20
99.0863
0
VERTEX
8
CUT
10
270.2559
20
99.1455
0
VERTEX
8
CUT
10
270.4870
20
99.2278
0
VERTEX
8
CUT
10
270.7090
20
99.3323
0
VERTEX
8
CUT
10
270.9196
20
99.4581
0
VERTEX
8
CUT
10
271.1169
20
99.6039
0
VERTEX
8
CUT
10
271.2990
20
99.7684
0
VERTEX
8
CUT
10
272.4309
20
100.8965
0
VERTEX
8
CUT
10
272.5999
20
101.0829
0
VERTEX
8
CUT
10
272.7494
20
101.2853
0
VERTEX
8
CUT
10
272.8777
20
101.5017
0
VERTEX
8
CUT
10
272.9837
20
101.7299
0
VERTEX
8
CUT
10
273.0662
20
101.9676
0
VERTEX
8
CUT
10
273.1243
20
102.2124
0
VERTEX
8
CUT
10
273.1576
20
102.4617
0
VERTEX
8
CUT
10
273.1656
20
102.7132
0
VERTEX
8
CUT
10
273.1484
20
102.9642
0
VERTEX
8
CUT
10
273.1059
20
103.2122
0
VERTEX
8
CUT
10
273.0388
20
103.4547
0
VERTEX
8
CUT
10
272.8201
20
104.1137
0
VERTEX
8
CUT
10
272.7376
20
104.3285
0
VERTEX
8
CUT
10
272.6358
20
104.5349
0
VERTEX
8
CUT
10
272.5154
20
104.7309
0
VERTEX
8
CUT
10
272.3775
20
104.9151
0
VERTEX
8
CUT
10
272.2233
20
105.0858
0
VERTEX
8
CUT
10
271.7514
20
105.5621
0
VERTEX
8
CUT
10
271.5489
20
105.7453
0
VERTEX
8
CUT
10
271.3276
20
105.9054
0
VERTEX
8
CUT
10
271.0902
20
106.0403
0
VERTEX
8
CUT
10
270.7657
20
106.2019
0
VERTEX
8
CUT
10
270.5552
20
106.2949
0
VERTEX
8
CUT
10
270.3371
20
106.3682
0
VERTEX
8
CUT
10
270.1131
20
106.4211
0
VERTEX
8
CUT
10
269.8853
20
106.4532
0
VERTEX
8
CUT
10
269.6554
20
106.4642
0
VERTEX
8
CUT
10
268.9100
20
106.4655
0
VERTEX
8
CUT
10
268.6610
20
106.4535
0
VERTEX
8
CUT
10
268.4145
20
106.4168
0
VERTEX
8
CUT
10
268.1729
20
106.3558
0
VERTEX
8
CUT
10
267.9386
20
106.2709
0
VERTEX
8
CUT
10
267.7139
20
106.1632
0
VERTEX
8
CUT
10
267.5010
20
106.0337
0
VERTEX
8
CUT
10
267.3020
20
105.8835
0
VERTEX
8
CUT
10
267.1191
20
105.7144
0
SEQEND
0
POLYLINE
8
CUT
66
1
70
1
10
0.0
20
0.0
30
0.0
0
VERTEX
8
CUT
10
189.6918
20
84.7698
0
VERTEX
8
CUT
10
189.6097
20
84.5456
0
VERTEX
8
CUT
10
189.5494
20
84.3146
0
VERTEX
8
CUT
10
189.5114
20
84.0789
0
VERTEX
8
CUT
10
189.4960
20
83.8407
0
VERTEX
8
CUT
10
189.4288
20
79.8027
0
VERTEX
8
CUT
10
189.4353
20
79.5762
0
VERTEX
8
CUT
10
189.4623
20
79.3513
0
VERTEX
8
CUT
10
189.7028
20
77.9036
0
VERTEX
8
CUT
10
189.7425
20
77.7117
0
VERTEX
8
CUT
10
189.7970
20
77.5235
0
VERTEX
8
CUT
10
190.4765
20
75.4831
0
VERTEX
8
CUT
10
190.5750
20
75.2331
0
VERTEX
8
CUT
10
190.6998
20
74.9951
0
VERTEX
8
CUT
10
190.8493
20
74.7718
0
VERTEX
8
CUT
10
192.3996
20
72.7073
0
VERTEX
8
CUT
10
192.4553
20
72.6360
0
VERTEX
8
CUT
10
198.6148
20
65.0236
0
VERTEX
8
CUT
10
198.6819
20
64.9441
0
VERTEX
8
CUT
10
203.7863
20
59.1467
0
VERTEX
8
CUT
10
203.7991
20
59.1314
0
VERTEX
8
CUT
10
203.8470
20
59.0646
0
VERTEX
8
CUT
10
203.8573
20
59.0476
0
VERTEX
8
CUT
10
204.2798
20
58.3131
0
VERTEX
8
CUT
10
204.4307
20
58.0813
0
VERTEX
8
CUT
10
204.6063
20
57.8676
0
VERTEX
8
CUT
10
207.8372
20
54.3528
0
VERTEX
8
CUT
10
207.8818
20
54.3055
0
VERTEX
8
CUT
10
219.0835
20
42.7379
0
VERTEX
8
CUT
10
219.1487
20
42.6731
0
VERTEX
8
CUT
10
227.7486
20
34.4221
0
VERTEX
8
CUT
10
227.8453
20
34.3340
0
VERTEX
8
CUT
10
232.0286
20
30.7212
0
VERTEX
8
CUT
10
232.1339
20
30.6350
0
VERTEX
8
CUT
10
235.8731
20
27.7455
0
VERTEX
8
CUT
10
236.0472
20
27.6225
0
VERTEX
8
CUT
10
239.9679
20
25.0948
0
VERTEX
8
CUT
10
240.2048
20
24.9598
0
VERTEX
8
CUT
10
243.9380
20
23.0939
0
VERTEX
8
CUT
10
244.1721
20
22.9915
0
VERTEX
8
CUT
10
244.4154
20
22.9136
0
VERTEX
8
CUT
10
248.2673
20
21.8929
0
VERTEX
8
CUT
10
248.4743
20
21.8473
0
VERTEX
8
CUT
10
248.6844
20
21.8195
0
VERTEX
8
CUT
10
248.8962
20
21.8095
0
VERTEX
8
CUT
10
250.4822
20
21.8022
0
VERTEX
8
CUT
10
250.7446
20
21.8148
0
VERTEX
8
CUT
10
251.0043
20
21.8549
0
VERTEX
8
CUT
10
251.2583
20
21.9220
0
VERTEX
8
CUT
10
253.3158
20
22.5829
0
VERTEX
8
CUT
10
253.5950
20
22.6915
0
VERTEX
8
CUT
10
253.8593
20
22.8327
0
VERTEX
8
CUT
10
254.8637
20
23.4494
0
VERTEX
8
CUT
10
255.0754
20
23.5949
0
VERTEX
8
CUT
10
255.2710
20
23.7614
0
VERTEX
8
CUT
10
255.5661
20
24.0398
0
VERTEX
8
CUT
10
255.7397
20
24.2207
0
VERTEX
8
CUT
10
255.8942
20
24.4182
0
VERTEX
8
CUT
10
256.4400
20
25.1928
0
VERTEX
8
CUT
10
256.5417
20
25.3491
0
VERTEX
8
CUT
10
256.6314
20
25.5126
0
VERTEX
8
CUT
10
257.8605
20
27.9647
0
VERTEX
8
CUT
10
257.9696
20
28.2160
0
VERTEX
8
CUT
10
258.0506
20
28.4778
0
VERTEX
8
CUT
10
258.8300
20
31.5908
0
VERTEX
8
CUT
10
258.8747
20
31.8109
0
VERTEX
8
CUT
10
258.8995
20
32.0341
0
VERTEX
8
CUT
10
259.2008
20
36.6222
0
VERTEX
8
CUT
10
259.2061
20
36.8010
0
VERTEX
8
CUT
10
259.1887
20
39.6977
0
VERTEX
8
CUT
10
259.1681
20
40.0035
0
VERTEX
8
CUT
10
259.1102
20
40.3045
0
VERTEX
8
CUT
10
258.9513
20
40.9234
0
VERTEX
8
CUT
10
258.9462
20
40.9462
0
VERTEX
8
CUT
10
258.9333
20
41.0421
0
VERTEX
8
CUT
10
258.9322
20
41.0654
0
VERTEX
8
CUT
10
258.8971
20
43.2880
0
VERTEX
8
CUT
10
258.8842
20
43.5052
0
VERTEX
8
CUT
10
258.8524
20
43.7205
0
VERTEX
8
CUT
10
258.8021
20
43.9322
0
VERTEX
8
CUT
10
258.7335
20
44.1387
0
VERTEX
8
CUT
10
258.6695
20
44.3069
0
VERTEX
8
CUT
10
258.6634
20
44.3239
0
VERTEX
8
CUT
10
258.6533
20
44.3601
0
VERTEX
8
CUT
10
258.6465
20
44.3972
0
VERTEX
8
CUT
10
258.6445
20
44.4146
0
VERTEX
8
CUT
10
258.3242
20
47.9599
0
VERTEX
8
CUT
10
258.2964
20
48.1685
0
VERTEX
8
CUT
10
258.2512
20
48.3740
0
VERTEX
8
CUT
10
257.7931
20
50.1065
0
VERTEX
8
CUT
10
257.7177
20
50.3434
0
VERTEX
8
CUT
10
257.6191
20
50.5716
0
VERTEX
8
CUT
10
257.4983
20
50.7889
0
VERTEX
8
CUT
10
257.3566
20
50.9932
0
VERTEX
8
CUT
10
257.1953
20
51.1823
0
VERTEX
8
CUT
10
257.0159
20
51.3545
0
VERTEX
8
CUT
10
256.8204
20
51.5080
0
VERTEX
8
CUT
10
256.6106
20
51.6414
0
VERTEX
8
CUT
10
256.3886
20
51.7532
0
VERTEX
8
CUT
10
256.1565
20
51.8425
0
VERTEX
8
CUT
10
255.9168
20
51.9082
0
VERTEX
8
CUT
10
255.6717
20
51.9499
0
VERTEX
8
CUT
10
255.4237
20
51.9669
0
VERTEX
8
CUT
10
255.1752
20
51.9593
0
VERTEX
8
CUT
10
254.9287
20
51.9270
0
VERTEX
8
CUT
10
254.6866
20
51.8704
0
VERTEX
8
CUT
10
254.4513
20
51.7900
0
VERTEX
8
CUT
10
254.2252
20
51.6867
0
VERTEX
8
CUT
10
254.0105
20
51.5614
0
VERTEX
8
CUT
10
253.8093
20
51.4154
0
VERTEX
8
CUT
10
253.6235
20
51.2501
0
VERTEX
8
CUT
10
253.4551
20
51.0672
0
VERTEX
8
CUT
10
253.3057
20
50.8685
0
VERTEX
8
CUT
10
253.1768
20
50.6560
0
VERTEX
8
CUT
10
253.0696
20
50.4317
0
VERTEX
8
CUT
10
252.9853
20
50.1978
0
VERTEX
8
CUT
10
252.9245
20
49.9567
0
VERTEX
8
CUT
10
252.8881
20
49.7108
0
VERTEX
8
CUT
10
252.8762
20
49.4625
0
VERTEX
8
CUT
10
252.8798
20
47.6468
0
VERTEX
8
CUT
10
252.8794
20
47.6288
0
VERTEX
8
CUT
10
252.8760
20
47.5914
0
VERTEX
8
CUT
10
252.8693
20
47.5544
0
VERTEX
8
CUT
10
252.8649
20
47.5374
0
VERTEX
8
CUT
10
252.7040
20
46.9592
0
VERTEX
8
CUT
10
252.6416
20
46.6699
0
VERTEX
8
CUT
10
252.6139
20
46.3753
0
VERTEX
8
CUT
10
252.5758
20
45.2764
0
VERTEX
8
CUT
10
252.5743
20
45.2525
0
VERTEX
8
CUT
10
252.5590
20
45.1548
0
VERTEX
8
CUT
10
252.5532
20
45.1316
0
VERTEX
8
CUT
10
251.9725
20
43.0773
0
VERTEX
8
CUT
10
251.9669
20
43.0593
0
VERTEX
8
CUT
10
251.9389
20
42.9870
0
VERTEX
8
CUT
10
251.9309
20
42.9701
0
VERTEX
8
CUT
10
250.8327
20
40.7758
0
VERTEX
8
CUT
10
250.8229
20
40.7574
0
VERTEX
8
CUT
10
250.7997
20
40.7211
0
VERTEX
8
CUT
10
250.7728
20
40.6875
0
VERTEX
8
CUT
10
250.7585
20
40.6723
0
VERTEX
8
CUT
10
248.5738
20
38.4627
0
VERTEX
8
CUT
10
248.5613
20
38.4506
0
VERTEX
8
CUT
10
248.5336
20
38.4271
0
VERTEX
8
CUT
10
248.5038
20
38.4061
0
VERTEX
8
CUT
10
248.4893
20
38.3973
0
VERTEX
8
CUT
10
246.5487
20
37.2694
0
VERTEX
8
CUT
10
246.5318
20
37.2601
0
VERTEX
8
CUT
10
246.4956
20
37.2435
0
VERTEX
8
CUT
10
246.4579
20
37.2305
0
VERTEX
8
CUT
10
246.4392
20
37.2256
0
VERTEX
8
CUT
10
245.0409
20
36.8916
0
VERTEX
8
CUT
10
245.0173
20
36.8867
0
VERTEX
8
CUT
10
244.9179
20
36.8755
0
VERTEX
8
CUT
10
244.8938
20
36.8750
0
VERTEX
8
CUT
10
240.9561
20
36.9107
0
VERTEX
8
CUT
10
240.9340
20
36.9115
0
VERTEX
8
CUT
10
240.8887
20
36.9170
0
VERTEX
8
CUT
10
240.8443
20
36.9275
0
VERTEX
8
CUT
10
240.8233
20
36.9343
0
VERTEX
8
CUT
10
237.5690
20
38.0999
0
VERTEX
8
CUT
10
237.5534
20
38.1058
0
VERTEX
8
CUT
10
237.4908
20
38.1344
0
VERTEX
8
CUT
10
237.4761
20
38.1422
0
VERTEX
8
CUT
10
234.8663
20
39.6059
0
VERTEX
8
CUT
10
234.7931
20
39.6504
0
VERTEX
8
CUT
10
234.7231
20
39.6999
0
VERTEX
8
CUT
10
231.4382
20
42.2038
0
VERTEX
8
CUT
10
231.3763
20
42.2543
0
VERTEX
8
CUT
10
231.3178
20
42.3087
0
VERTEX
8
CUT
10
225.4874
20
48.0986
0
VERTEX
8
CUT
10
225.4427
20
48.1453
0
VERTEX
8
CUT
10
225.4006
20
48.1943
0
VERTEX
8
CUT
10
221.6366
20
52.8175
0
VERTEX
8
CUT
10
221.5950
20
52.8716
0
VERTEX
8
CUT
10
221.5565
20
52.9279
0
VERTEX
8
CUT
10
216.2988
20
61.0970
0
VERTEX
8
CUT
10
216.2645
20
61.1536
0
VERTEX
8
CUT
10
216.2333
20
61.2119
0
VERTEX
8
CUT
10
213.9660
20
65.7452
0
VERTEX
8
CUT
10
213.9637
20
65.7501
0
VERTEX
8
CUT
10
213.9447
20
65.7969
0
VERTEX
8
CUT
10
213.9372
20
65.8212
0
VERTEX
8
CUT
10
213.9314
20
65.8447
0
VERTEX
8
CUT
10
213.8658
20
66.1445
0
VERTEX
8
CUT
10
213.7923
20
66.4093
0
VERTEX
8
CUT
10
213.6902
20
66.6644
0
VERTEX
8
CUT
10
212.1982
20
69.8703
0
VERTEX
8
CUT
10
212.1689
20
69.9384
0
VERTEX
8
CUT
10
212.1439
20
70.0081
0
VERTEX
8
CUT
10
209.1845
20
79.1060
0
VERTEX
8
CUT
10
209.1190
20
79.2842
0
VERTEX
8
CUT
10
209.0401
20
79.4569
0
VERTEX
8
CUT
10
207.1624
20
83.1866
0
VERTEX
8
CUT
10
207.0486
20
83.3889
0
VERTEX
8
CUT
10
206.9164
20
83.5797
0
VERTEX
8
CUT
10
205.3216
20
85.6682
0
VERTEX
8
CUT
10
205.0907
20
85.9304
0
VERTEX
8
CUT
10
203.7418
20
87.2616
0
VERTEX
8
CUT
10
203.5762
20
87.4111
0
VERTEX
8
CUT
10
203.3978
20
87.5452
0
VERTEX
8
CUT
10
202.0744
20
88.4511
0
VERTEX
8
CUT
10
201.9003
20
88.5600
0
VERTEX
8
CUT
10
201.7179
20
88.6543
0
VERTEX
8
CUT
10
201.5284
20
88.7332
0
VERTEX
8
CUT
10
199.6157
20
89.4396
0
VERTEX
8
CUT
10
199.3036
20
89.5323
0
VERTEX
8
CUT
10
198.4105
20
89.7352
0
VERTEX
8
CUT
10
198.1244
20
89.7829
0
VERTEX
8
CUT
10
197.8347
20
89.7972
0
VERTEX
8
CUT
10
195.9016
20
89.7803
0
VERTEX
8
CUT
10
195.6079
20
89.7604
0
VERTEX
8
CUT
10
195.3185
20
89.7061
0
VERTEX
8
CUT
10
194.7285
20
89.5590
0
VERTEX
8
CUT
10
194.5025
20
89.4911
0
VERTEX
8
CUT
10
194.2839
20
89.4023
0
VERTEX
8
CUT
10
194.0747
20
89.2933
0
VERTEX
8
CUT
10
191.9714
20
88.0675
0
VERTEX
8
CUT
10
191.7746
20
87.9401
0
VERTEX
8
CUT
10
191.5905
20
87.7948
0
VERTEX
8
CUT
10
191.4209
20
87.6328
0
VERTEX
8
CUT
10
191.2672
20
87.4557
0
VERTEX
8
CUT
10
190.5242
20
86.5137
0
VERTEX
8
CUT
10
190.3935
20
86.3317
0
VERTEX
8
CUT
10
190.2795
20
86.1387
0
VERTEX
8
CUT
10
190.1833
20
85.9363
0
SEQEND
0
POLYLINE
8
CUT
66
1
70
1
10
0.0
20
0.0
30
0.0
0
VERTEX
8
CUT
10
231.7841
20
109.5090
0
VERTEX
8
CUT
10
231.7776
20
109.4926
0
VERTEX
8
CUT
10
231.7559
20
109.4409
0
VERTEX
8
CUT
10
231.6728
20
109.2121
0
VERTEX
8
CUT
10
231.6123
20
108.9763
0
VERTEX
8
CUT
10
231.5750
20
108.7358
0
VERTEX
8
CUT
10
231.5613
20
108.4928
0
VERTEX
8
CUT
10
231.5499
20
107.0136
0
VERTEX
8
CUT
10
231.5612
20
106.7565
0
VERTEX
8
CUT
10
231.5989
20
106.5018
0
VERTEX
8
CUT
10
232.3977
20
102.5276
0
VERTEX
8
CUT
10
232.4524
20
102.3075
0
VERTEX
8
CUT
10
232.5269
20
102.0931
0
VERTEX
8
CUT
10
233.5712
20
99.4780
0
VERTEX
8
CUT
10
233.6471
20
99.3068
0
VERTEX
8
CUT
10
233.7356
20
99.1418
0
VERTEX
8
CUT
10
240.8187
20
87.0463
0
VERTEX
8
CUT
10
240.8386
20
87.0110
0
VERTEX
8
CUT
10
240.8572
20
86.9752
0
VERTEX
8
CUT
10
244.8914
20
78.9084
0
VERTEX
8
CUT
10
244.9132
20
78.8624
0
VERTEX
8
CUT
10
244.9331
20
78.8155
0
VERTEX
8
CUT
10
245.8147
20
76.6117
0
VERTEX
8
CUT
10
245.9179
20
76.3868
0
VERTEX
8
CUT
10
246.0428
20
76.1732
0
VERTEX
8
CUT
10
246.1882
20
75.9730
0
VERTEX
8
CUT
10
246.3527
20
75.7881
0
VERTEX
8
CUT
10
246.5347
20
75.6204
0
VERTEX
8
CUT
10
246.7323
20
75.4715
0
VERTEX
8
CUT
10
246.9437
20
75.3429
0
VERTEX
8
CUT
10
247.1668
20
75.2358
0
VERTEX
8
CUT
10
247.3994
20
75.1513
0
VERTEX
8
CUT
10
247.6392
20
75.0902
0
VERTEX
8
CUT
10
247.8838
20
75.0531
0
VERTEX
8
CUT
10
248.1310
20
75.0404
0
VERTEX
8
CUT
10
248.3782
20
75.0521
0
VERTEX
8
CUT
10
248.6230
20
75.0883
0
VERTEX
8
CUT
10
248.8630
20
75.1484
0
VERTEX
8
CUT
10
249.0959
20
75.2320
0
VERTEX
8
CUT
10
249.3194
20
75.3382
0
VERTEX
8
CUT
10
249.5313
20
75.4660
0
VERTEX
8
CUT
10
249.7295
20
75.6141
0
VERTEX
8
CUT
10
249.9121
20
75.7811
0
VERTEX
8
CUT
10
250.0774
20
75.9653
0
VERTEX
8
CUT
10
250.2236
20
76.1650
0
VERTEX
8
CUT
10
250.3493
20
76.3781
0
VERTEX
8
CUT
10
250.4534
20
76.6026
0
VERTEX
8
CUT
10
250.5347
20
76.8363
0
VERTEX
8
CUT
10
250.5926
20
77.0769
0
VERTEX
8
CUT
10
250.6263
20
77.3221
0
VERTEX
8
CUT
10
250.6357
20
77.5694
0
VERTEX
8
CUT
10
250.6206
20
77.8163
0
VERTEX
8
CUT
10
250.5811
20
78.0606
0
VERTEX
8
CUT
10
250.5177
20
78.2998
0
VERTEX
8
CUT
10
250.1957
20
79.3096
0
VERTEX
8
CUT
10
250.1843
20
79.3475
0
VERTEX
8
CUT
10
250.1741
20
79.3858
0
VERTEX
8
CUT
10
249.3080
20
82.8647
0
VERTEX
8
CUT
10
249.3037
20
82.8840
0
VERTEX
8
CUT
10
249.2919
20
82.9651
0
VERTEX
8
CUT
10
249.2905
20
82.9849
0
VERTEX
8
CUT
10
249.2487
20
83.9191
0
VERTEX
8
CUT
10
249.2279
20
84.1480
0
VERTEX
8
CUT
10
249.1861
20
84.3740
0
VERTEX
8
CUT
10
248.7269
20
86.3470
0
VERTEX
8
CUT
10
248.7225
20
86.3688
0
VERTEX
8
CUT
10
248.7118
20
86.4602
0
VERTEX
8
CUT
10
248.7111
20
86.4824
0
VERTEX
8
CUT
10
248.6561
20
97.9594
0
VERTEX
8
CUT
10
248.6379
20
98.2493
0
VERTEX
8
CUT
10
248.3834
20
100.3414
0
VERTEX
8
CUT
10
248.3504
20
100.5437
0
VERTEX
8
CUT
10
248.3008
20
100.7426
0
VERTEX
8
CUT
10
246.9518
20
105.3462
0
VERTEX
8
CUT
10
246.8767
20
105.5644
0
VERTEX
8
CUT
10
246.7819
20
105.7748
0
VERTEX
8
CUT
10
245.2721
20
108.7490
0
VERTEX
8
CUT
10
245.2487
20
108.7978
0
VERTEX
8
CUT
10
245.2275
20
108.8476
0
VERTEX
8
CUT
10
244.0798
20
111.7102
0
VERTEX
8
CUT
10
244.0779
20
111.7154
0
VERTEX
8
CUT
10
244.0536
20
111.7929
0
VERTEX
8
CUT
10
244.0491
20
111.8115
0
VERTEX
8
CUT
10
243.4670
20
114.4645
0
VERTEX
8
CUT
10
243.4629
20
114.4857
0
VERTEX
8
CUT
10
243.4534
20
114.5748
0
VERTEX
8
CUT
10
243.4528
20
114.5964
0
VERTEX
8
CUT
10
243.4615
20
119.0624
0
VERTEX
8
CUT
10
243.4619
20
119.0794
0
VERTEX
8
CUT
10
243.4649
20
119.1144
0
VERTEX
8
CUT
10
243.4710
20
119.1492
0
VERTEX
8
CUT
10
243.4749
20
119.1653
0
VERTEX
8
CUT
10
243.6325
20
119.7610
0
VERTEX
8
CUT
10
243.6836
20
120.0012
0
VERTEX
8
CUT
10
243.7109
20
120.2453
0
VERTEX
8
CUT
10
243.7141
20
120.4908
0
VERTEX
8
CUT
10
243.6932
20
120.7355
0
VERTEX
8
CUT
10
243.6483
20
120.9769
0
VERTEX
8
CUT
10
243.5801
20
121.2128
0
VERTEX
8
CUT
10
243.4890
20
121.4409
0
VERTEX
8
CUT
10
243.3759
20
121.6589
0
VERTEX
8
CUT
10
243.2420
20
121.8647
0
VERTEX
8
CUT
10
243.0886
20
122.0565
0
VERTEX
8
CUT
10
242.9171
20
122.2322
0
VERTEX
8
CUT
10
242.7292
20
122.3903
0
VERTEX
8
CUT
10
242.5266
20
122.5292
0
VERTEX
8
CUT
10
242.3115
20
122.6476
0
VERTEX
8
CUT
10
242.0857
20
122.7442
0
VERTEX
8
CUT
10
241.8516
20
122.8183
0
VERTEX
8
CUT
10
241.6113
20
122.8690
0
VERTEX
8
CUT
10
241.3672
20
122.8959
0
VERTEX
8
CUT
10
241.1217
20
122.8987
0
VERTEX
8
CUT
10
240.8770
20
122.8775
0
VERTEX
8
CUT
10
240.6356
20
122.8323
0
VERTEX
8
CUT
10
240.3998
20
122.7636
0
VERTEX
8
CUT
10
240.1719
20
122.6722
0
VERTEX
8
CUT
10
239.9541
20
122.5588
0
VERTEX
8
CUT
10
239.7484
20
122.4246
0
VERTEX
8
CUT
10
239.4545
20
122.2115
0
VERTEX
8
CUT
10
239.3204
20
122.1072
0
VERTEX
8
CUT
10
237.5290
20
120.6130
0
VERTEX
8
CUT
10
237.3768
20
120.4750
0
VERTEX
8
CUT
10
237.2364
20
120.3251
0
VERTEX
8
CUT
10
235.2063
20
117.9689
0
VERTEX
8
CUT
10
234.9938
20
117.6836
0
VERTEX
8
CUT
10
233.6823
20
115.6320
0
VERTEX
8
CUT
10
233.5484
20
115.3950
0
VERTEX
8
CUT
10
232.8389
20
113.9626
0
VERTEX
8
CUT
10
232.7088
20
113.6474
0
VERTEX
8
CUT
10
232.1865
20
112.0889
0
VERTEX
8
CUT
10
232.1289
20
111.8901
0
VERTEX
8
CUT
10
231.9122
20
111.0065
0
VERTEX
8
CUT
10
231.8657
20
110.7667
0
VERTEX
8
CUT
10
231.8427
20
110.5236
0
VERTEX
8
CUT
10
231.8009
20
109.5962
0
VERTEX
8
CUT
10
231.7997
20
109.5788
0
VERTEX
8
CUT
10
231.7949
20
109.5430
0
SEQEND
0
POLYLINE
8
CUT
66
1
70
1
10
0.0
20
0.0
30
0.0
0
VERTEX
8
CUT
10
180.8886
20
138.8301
0
VERTEX
8
CUT
10
180.9128
20
138.7893
0
VERTEX
8
CUT
10
181.0586
20
138.5902
0
VERTEX
8
CUT
10
181.2233
20
138.4064
0
VERTEX
8
CUT
10
181.4054
20
138.2398
0
VERTEX
8
CUT
10
182.2392
20
137.5492
0
VERTEX
8
CUT
10
182.3966
20
137.4290
0
VERTEX
8
CUT
10
182.5631
20
137.3216
0
VERTEX
8
CUT
10
185.8275
20
135.3946
0
VERTEX
8
CUT
10
186.0977
20
135.2565
0
VERTEX
8
CUT
10
190.2803
20
133.4298
0
VERTEX
8
CUT
10
190.5247
20
133.3379
0
VERTEX
8
CUT
10
190.7774
20
133.2721
0
VERTEX
8
CUT
10
191.0356
20
133.2329
0
VERTEX
8
CUT
10
191.3436
20
133.2025
0
VERTEX
8
CUT
10
191.3604
20
133.2005
0
VERTEX
8
CUT
10
191.3948
20
133.1941
0
VERTEX
8
CUT
10
191.4288
20
133.1848
0
VERTEX
8
CUT
10
191.4443
20
133.1794
0
VERTEX
8
CUT
10
193.2142
20
132.5255
0
VERTEX
8
CUT
10
193.4464
20
132.4523
0
VERTEX
8
CUT
10
193.6846
20
132.4021
0
VERTEX
8
CUT
10
193.9267
20
132.3752
0
VERTEX
8
CUT
10
194.4653
20
132.3420
0
VERTEX
8
CUT
10
194.4847
20
132.3403
0
VERTEX
8
CUT
10
194.5643
20
132.3275
0
VERTEX
8
CUT
10
194.5832
20
132.3230
0
VERTEX
8
CUT
10
196.2483
20
131.8843
0
VERTEX
8
CUT
10
196.5370
20
131.8262
0
VERTEX
8
CUT
10
196.8306
20
131.8025
0
VERTEX
8
CUT
10
198.7432
20
131.7606
0
VERTEX
8
CUT
10
198.7602
20
131.7599
0
VERTEX
8
CUT
10
198.7955
20
131.7561
0
VERTEX
8
CUT
10
198.8305
20
131.7492
0
VERTEX
8
CUT
10
198.8466
20
131.7449
0
VERTEX
8
CUT
10
199.3375
20
131.6033
0
VERTEX
8
CUT
10
199.5583
20
131.5504
0
VERTEX
8
CUT
10
199.7830
20
131.5177
0
VERTEX
8
CUT
10
200.0098
20
131.5055
0
VERTEX
8
CUT
10
202.1195
20
131.4882
0
VERTEX
8
CUT
10
202.1682
20
131.4883
0
VERTEX
8
CUT
10
203.8674
20
131.5076
0
VERTEX
8
CUT
10
204.1198
20
131.5232
0
VERTEX
8
CUT
10
204.3693
20
131.5643
0
VERTEX
8
CUT
10
204.6135
20
131.6304
0
VERTEX
8
CUT
10
204.9443
20
131.7382
0
VERTEX
8
CUT
10
204.9623
20
131.7436
0
VERTEX
8
CUT
10
205.0002
20
131.7521
0
VERTEX
8
CUT
10
205.0387
20
131.7569
0
VERTEX
8
CUT
10
205.0574
20
131.7579
0
VERTEX
8
CUT
10
206.4974
20
131.8026
0
VERTEX
8
CUT
10
206.7628
20
131.8251
0
VERTEX
8
CUT
10
207.0244
20
131.8756
0
VERTEX
8
CUT
10
211.2419
20
132.9267
0
VERTEX
8
CUT
10
211.4799
20
132.9988
0
VERTEX
8
CUT
10
211.7096
20
133.0941
0
VERTEX
8
CUT
10
216.8319
20
135.5261
0
VERTEX
8
CUT
10
217.0001
20
135.6139
0
VERTEX
8
CUT
10
217.1611
20
135.7143
0
VERTEX
8
CUT
10
218.6274
20
136.7069
0
VERTEX
8
CUT
10
218.7864
20
136.8240
0
VERTEX
8
CUT
10
218.9357
20
136.9533
0
VERTEX
8
CUT
10
221.2786
20
139.1497
0
VERTEX
8
CUT
10
221.2910
20
139.1609
0
VERTEX
8
CUT
10
221.3449
20
139.2036
0
VERTEX
8
CUT
10
221.3586
20
139.2131
0
VERTEX
8
CUT
10
223.2985
20
140.5009
0
VERTEX
8
CUT
10
223.4557
20
140.6143
0
VERTEX
8
CUT
10
223.6037
20
140.7396
0
VERTEX
8
CUT
10
225.4772
20
142.4545
0
VERTEX
8
CUT
10
225.4913
20
142.4668
0
VERTEX
8
CUT
10
225.5221
20
142.4900
0
VERTEX
8
CUT
10
225.5574
20
142.5074
0
VERTEX
8
CUT
10
225.7679
20
142.6048
0
VERTEX
8
CUT
10
225.9694
20
142.7219
0
VERTEX
8
CUT
10
226.1591
20
142.8573
0
VERTEX
8
CUT
10
226.3354
20
143.0098
0
VERTEX
8
CUT
10
226.4968
20
143.1780
0
VERTEX
8
CUT
10
226.6417
20
143.3606
0
VERTEX
8
CUT
10
226.7690
20
143.5558
0
VERTEX
8
CUT
10
226.8776
20
143.7620
0
VERTEX
8
CUT
10
226.9665
20
143.9775
0
VERTEX
8
CUT
10
227.0335
20
144.1953
0
VERTEX
8
CUT
10
227.0478
20
144.2348
0
VERTEX
8
CUT
10
227.0555
20
144.2521
0
VERTEX
8
CUT
10
227.2020
20
144.5596
0
VERTEX
8
CUT
10
227.2964
20
144.7858
0
VERTEX
8
CUT
10
227.3682
20
145.0201
0
VERTEX
8
CUT
10
227.4168
20
145.2604
0
VERTEX
8
CUT
10
227.4415
20
145.5043
0
VERTEX
8
CUT
10
227.4423
20
145.7494
0
VERTEX
8
CUT
10
227.4191
20
145.9934
0
VERTEX
8
CUT
10
227.3720
20
146.2340
0
VERTEX
8
CUT
10
227.3017
20
146.4688
0
VERTEX
8
CUT
10
227.2087
20
146.6956
0
VERTEX
8
CUT
10
227.0939
20
146.9122
0
VERTEX
8
CUT
10
226.9584
20
147.1165
0
VERTEX
8
CUT
10
226.8036
20
147.3065
0
VERTEX
8
CUT
10
226.6310
20
147.4805
0
VERTEX
8
CUT
10
226.4421
20
147.6368
0
VERTEX
8
CUT
10
226.2388
20
147.7737
0
VERTEX
8
CUT
10
226.0231
20
147.8902
0
VERTEX
8
CUT
10
225.7971
20
147.9849
0
VERTEX
8
CUT
10
225.5628
20
148.0571
0
VERTEX
8
CUT
10
225.3226
20
148.1059
0
VERTEX
8
CUT
10
225.0788
20
148.1310
0
VERTEX
8
CUT
10
224.8337
20
148.1322
0
VERTEX
8
CUT
10
224.5896
20
148.1093
0
VERTEX
8
CUT
10
224.3490
20
148.0626
0
VERTEX
8
CUT
10
223.3408
20
147.8151
0
VERTEX
8
CUT
10
223.3180
20
147.8102
0
VERTEX
8
CUT
10
223.2224
20
147.7983
0
VERTEX
8
CUT
10
223.1992
20
147.7975
0
VERTEX
8
CUT
10
219.4285
20
147.7739
0
VERTEX
8
CUT
10
219.4106
20
147.7742
0
VERTEX
8
CUT
10
219.3735
20
147.7773
0
VERTEX
8
CUT
10
219.3368
20
147.7838
0
VERTEX
8
CUT
10
219.3199
20
147.7880
0
VERTEX
8
CUT
10
217.1527
20
148.3762
0
VERTEX
8
CUT
10
217.1333
20
148.3820
0
VERTEX
8
CUT
10
217.0551
20
148.4121
0
VERTEX
8
CUT
10
217.0368
20
148.4208
0
VERTEX
8
CUT
10
214.6959
20
149.6062
0
VERTEX
8
CUT
10
214.6911
20
149.6088
0
VERTEX
8
CUT
10
214.6476
20
149.6353
0
VERTEX
8
CUT
10
214.6270
20
149.6505
0
VERTEX
8
CUT
10
214.6083
20
149.6661
0
VERTEX
8
CUT
10
212.2439
20
151.7346
0
VERTEX
8
CUT
10
212.0483
20
151.8892
0
VERTEX
8
CUT
10
211.8382
20
152.0236
0
VERTEX
8
CUT
10
211.6158
20
152.1364
0
VERTEX
8
CUT
10
211.3833
20
152.2264
0
VERTEX
8
CUT
10
211.1429
20
152.2929
0
VERTEX
8
CUT
10
210.8971
20
152.3351
0
VERTEX
8
CUT
10
210.6484
20
152.3525
0
VERTEX
8
CUT
10
210.3991
20
152.3451
0
VERTEX
8
CUT
10
210.1518
20
152.3129
0
VERTEX
8
CUT
10
209.9090
20
152.2563
0
VERTEX
8
CUT
10
209.6730
20
152.1757
0
VERTEX
8
CUT
10
209.4462
20
152.0720
0
VERTEX
8
CUT
10
209.2309
20
151.9462
0
VERTEX
8
CUT
10
209.0291
20
151.7996
0
VERTEX
8
CUT
10
208.8430
20
151.6337
0
VERTEX
8
CUT
10
208.6743
20
151.4500
0
VERTEX
8
CUT
10
208.5248
20
151.2504
0
VERTEX
8
CUT
10
208.3959
20
151.0370
0
VERTEX
8
CUT
10
208.2889
20
150.8117
0
VERTEX
8
CUT
10
208.2049
20
150.5769
0
VERTEX
8
CUT
10
208.1447
20
150.3349
0
VERTEX
8
CUT
10
208.1089
20
150.0881
0
VERTEX
8
CUT
10
208.0978
20
149.8390
0
VERTEX
8
CUT
10
208.1154
20
146.7141
0
VERTEX
8
CUT
10
208.1150
20
146.6955
0
VERTEX
8
CUT
10
208.1083
20
146.6188
0
VERTEX
8
CUT
10
208.1054
20
146.6004
0
VERTEX
8
CUT
10
207.7919
20
144.8926
0
VERTEX
8
CUT
10
207.7880
20
144.8739
0
VERTEX
8
CUT
10
207.7772
20
144.8360
0
VERTEX
8
CUT
10
207.7628
20
144.7993
0
VERTEX
8
CUT
10
207.7546
20
144.7821
0
VERTEX
8
CUT
10
206.8779
20
143.0574
0
VERTEX
8
CUT
10
206.8675
20
143.0384
0
VERTEX
8
CUT
10
206.8431
20
143.0011
0
VERTEX
8
CUT
10
206.8147
20
142.9666
0
VERTEX
8
CUT
10
206.7997
20
142.9511
0
VERTEX
8
CUT
10
205.5173
20
141.7003
0
VERTEX
8
CUT
10
205.5014
20
141.6857
0
VERTEX
8
CUT
10
205.4665
20
141.6584
0
VERTEX
8
CUT
10
205.4264
20
141.6392
0
VERTEX
8
CUT
10
205.4063
20
141.6316
0
VERTEX
8
CUT
10
204.6700
20
141.3742
0
VERTEX
8
CUT
10
204.4474
20
141.2842
0
VERTEX
8
CUT
10
204.2344
20
141.1732
0
VERTEX
8
CUT
10
204.0331
20
141.0423
0
VERTEX
8
CUT
10
202.9627
20
140.2708
0
VERTEX
8
CUT
10
202.9470
20
140.2601
0
VERTEX
8
CUT
10
202.9131
20
140.2402
0
VERTEX
8
CUT
10
202.8774
20
140.2238
0
VERTEX
8
CUT
10
202.8596
20
140.2170
0
VERTEX
8
CUT
10
202.0045
20
139.9177
0
VERTEX
8
CUT
10
201.9880
20
139.9123
0
VERTEX
8
CUT
10
201.9531
20
139.9035
0
VERTEX
8
CUT
10
201.9174
20
139.8977
0
VERTEX
8
CUT
10
201.9006
20
139.8960
0
VERTEX
8
CUT
10
201.3018
20
139.8515
0
VERTEX
8
CUT
10
201.0432
20
139.8187
0
VERTEX
8
CUT
10
200.7895
20
139.7591
0
VERTEX
8
CUT
10
200.5433
20
139.6734
0
VERTEX
8
CUT
10
200.2515
20
139.5545
0
VERTEX
8
CUT
10
200.2340
20
139.5478
0
VERTEX
8
CUT
10
200.1974
20
139.5369
0
VERTEX
8
CUT
10
200.1619
20
139.5510
0
VERTEX
8
CUT
10
200.1451
20
139.5591
0
VERTEX
8
CUT
10
199.5037
20
139.8885
0
VERTEX
8
CUT
10
199.4845
20
139.8991
0
VERTEX
8
CUT
10
199.4467
20
139.9241
0
VERTEX
8
CUT
10
199.4119
20
139.9532
0
VERTEX
8
CUT
10
199.3963
20
139.9686
0
VERTEX
8
CUT
10
198.8647
20
140.5237
0
VERTEX
8
CUT
10
198.8509
20
140.5388
0
VERTEX
8
CUT
10
198.8251
20
140.5722
0
VERTEX
8
CUT
10
198.8066
20
140.6101
0
VERTEX
8
CUT
10
198.7991
20
140.6292
0
VERTEX
8
CUT
10
198.6841
20
140.9448
0
VERTEX
8
CUT
10
198.6782
20
140.9623
0
VERTEX
8
CUT
10
198.6687
20
140.9987
0
VERTEX
8
CUT
10
198.6801
20
141.0346
0
VERTEX
8
CUT
10
198.6869
20
141.0517
0
VERTEX
8
CUT
10
199.3245
20
142.5563
0
VERTEX
8
CUT
10
199.4198
20
142.8222
0
VERTEX
8
CUT
10
199.4846
20
143.0972
0
VERTEX
8
CUT
10
199.5179
20
143.3778
0
VERTEX
8
CUT
10
199.5468
20
143.8465
0
VERTEX
8
CUT
10
199.5488
20
143.8690
0
VERTEX
8
CUT
10
199.5570
20
143.9148
0
VERTEX
8
CUT
10
199.5703
20
143.9595
0
VERTEX
8
CUT
10
199.5786
20
143.9805
0
VERTEX
8
CUT
10
199.5848
20
143.9950
0
VERTEX
8
CUT
10
199.6695
20
144.2234
0
VERTEX
8
CUT
10
199.7315
20
144.4590
0
VERTEX
8
CUT
10
199.7704
20
144.6994
0
VERTEX
8
CUT
10
199.7857
20
144.9425
0
VERTEX
8
CUT
10
199.8368
20
148.6057
0
VERTEX
8
CUT
10
199.8376
20
148.6252
0
VERTEX
8
CUT
10
199.8466
20
148.7053
0
VERTEX
8
CUT
10
199.8502
20
148.7244
0
VERTEX
8
CUT
10
199.9608
20
149.2441
0
VERTEX
8
CUT
10
200.0020
20
149.5041
0
VERTEX
8
CUT
10
200.0157
20
149.7669
0
VERTEX
8
CUT
10
200.0016
20
150.0297
0
VERTEX
8
CUT
10
199.9600
20
150.2895
0
VERTEX
8
CUT
10
199.8913
20
150.5436
0
VERTEX
8
CUT
10
198.9716
20
153.3496
0
VERTEX
8
CUT
10
198.8982
20
153.5454
0
VERTEX
8
CUT
10
198.8087
20
153.7344
0
VERTEX
8
CUT
10
198.4453
20
154.4254
0
VERTEX
8
CUT
10
198.4378
20
154.4405
0
VERTEX
8
CUT
10
198.4242
20
154.4727
0
VERTEX
8
CUT
10
198.4134
20
154.5061
0
VERTEX
8
CUT
10
198.4093
20
154.5220
0
VERTEX
8
CUT
10
198.1994
20
155.4219
0
VERTEX
8
CUT
10
198.1305
20
155.6622
0
VERTEX
8
CUT
10
198.0379
20
155.8945
0
VERTEX
8
CUT
10
197.9226
20
156.1163
0
VERTEX
8
CUT
10
197.7857
20
156.3255
0
VERTEX
8
CUT
10
197.6286
20
156.5200
0
VERTEX
8
CUT
10
197.4529
20
156.6979
0
VERTEX
8
CUT
10
194.5409
20
159.3637
0
VERTEX
8
CUT
10
194.3367
20
159.5317
0
VERTEX
8
CUT
10
194.1159
20
159.6772
0
VERTEX
8
CUT
10
193.8810
20
159.7985
0
VERTEX
8
CUT
10
193.6346
20
159.8944
0
VERTEX
8
CUT
10
192.7944
20
160.1710
0
VERTEX
8
CUT
10
192.5408
20
160.2400
0
VERTEX
8
CUT
10
192.2815
20
160.2819
0
VERTEX
8
CUT
10
192.0191
20
160.2964
0
VERTEX
8
CUT
10
191.0556
20
160.2990
0
VERTEX
8
CUT
10
190.8029
20
160.2868
0
VERTEX
8
CUT
10
190.5528
20
160.2492
0
VERTEX
8
CUT
10
190.3078
20
160.1865
0
VERTEX
8
CUT
10
190.0703
20
160.0994
0
VERTEX
8
CUT
10
189.8428
20
159.9887
0
VERTEX
8
CUT
10
188.0174
20
158.9833
0
VERTEX
8
CUT
10
187.8206
20
158.8627
0
VERTEX
8
CUT
10
187.6358
20
158.7246
0
VERTEX
8
CUT
10
187.4645
20
158.5700
0
VERTEX
8
CUT
10
185.8975
20
157.0184
0
VERTEX
8
CUT
10
185.7464
20
156.8549
0
VERTEX
8
CUT
10
185.6104
20
156.6785
0
VERTEX
8
CUT
10
185.1545
20
156.0291
0
VERTEX
8
CUT
10
184.9659
20
155.7134
0
VERTEX
8
CUT
10
183.9844
20
153.7565
0
VERTEX
8
CUT
10
183.8487
20
153.4301
0
VERTEX
8
CUT
10
183.4643
20
152.2832
0
VERTEX
8
CUT
10
183.3969
20
152.0427
0
VERTEX
8
CUT
10
183.3538
20
151.7966
0
VERTEX
8
CUT
10
183.3354
20
151.5475
0
VERTEX
8
CUT
10
183.3420
20
151.2978
0
VERTEX
8
CUT
10
183.3735
20
151.0500
0
VERTEX
8
CUT
10
183.4296
20
150.8066
0
VERTEX
8
CUT
10
183.5097
20
150.5700
0
VERTEX
8
CUT
10
183.6130
20
150.3426
0
VERTEX
8
CUT
10
183.7384
20
150.1266
0
VERTEX
8
CUT
10
183.8848
20
149.9242
0
VERTEX
8
CUT
10
184.0507
20
149.7374
0
VERTEX
8
CUT
10
184.2344
20
149.5681
0
VERTEX
8
CUT
10
184.4340
20
149.4180
0
VERTEX
8
CUT
10
184.6477
20
149.2886
0
VERTEX
8
CUT
10
184.8731
20
149.1811
0
VERTEX
8
CUT
10
185.1082
20
149.0967
0
VERTEX
8
CUT
10
185.3506
20
149.0361
0
VERTEX
8
CUT
10
185.5977
20
149.0000
0
VERTEX
8
CUT
10
185.8473
20
148.9888
0
VERTEX
8
CUT
10
186.6645
20
148.9929
0
VERTEX
8
CUT
10
186.6829
20
148.9926
0
VERTEX
8
CUT
10
186.7206
20
148.9892
0
VERTEX
8
CUT
10
186.7559
20
148.9756
0
VERTEX
8
CUT
10
186.7725
20
148.9679
0
VERTEX
8
CUT
10
187.9173
20
148.4005
0
VERTEX
8
CUT
10
187.9325
20
148.3925
0
VERTEX
8
CUT
10
187.9629
20
148.3741
0
VERTEX
8
CUT
10
187.9916
20
148.3530
0
VERTEX
8
CUT
10
188.0044
20
148.3422
0
VERTEX
8
CUT
10
188.5563
20
147.8588
0
VERTEX
8
CUT
10
188.5602
20
147.8553
0
VERTEX
8
CUT
10
188.6139
20
147.8008
0
VERTEX
8
CUT
10
188.6258
20
147.7872
0
VERTEX
8
CUT
10
189.0269
20
147.3068
0
VERTEX
8
CUT
10
189.0375
20
147.2935
0
VERTEX
8
CUT
10
189.0578
20
147.2644
0
VERTEX
8
CUT
10
189.0756
20
147.2336
0
VERTEX
8
CUT
10
189.0830
20
147.2187
0
VERTEX
8
CUT
10
189.6522
20
146.0012
0
VERTEX
8
CUT
10
189.6597
20
145.9842
0
VERTEX
8
CUT
10
189.6725
20
145.9482
0
VERTEX
8
CUT
10
189.6749
20
145.9100
0
VERTEX
8
CUT
10
189.6747
20
145.8914
0
VERTEX
8
CUT
10
189.6312
20
144.5741
0
VERTEX
8
CUT
10
189.6298
20
144.5524
0
VERTEX
8
CUT
10
189.6234
20
144.5080
0
VERTEX
8
CUT
10
189.6075
20
144.4661
0
VERTEX
8
CUT
10
189.5981
20
144.4465
0
VERTEX
8
CUT
10
189.0303
20
143.3395
0
VERTEX
8
CUT
10
189.0212
20
143.3228
0
VERTEX
8
CUT
10
188.9999
20
143.2896
0
VERTEX
8
CUT
10
188.9756
20
143.2586
0
VERTEX
8
CUT
10
188.9627
20
143.2445
0
VERTEX
8
CUT
10
188.2431
20
142.4912
0
VERTEX
8
CUT
10
188.2278
20
142.4761
0
VERTEX
8
CUT
10
188.1938
20
142.4475
0
VERTEX
8
CUT
10
188.1570
20
142.4228
0
VERTEX
8
CUT
10
188.1382
20
142.4123
0
VERTEX
8
CUT
10
187.2661
20
141.9554
0
VERTEX
8
CUT
10
187.2486
20
141.9467
0
VERTEX
8
CUT
10
187.2113
20
141.9317
0
VERTEX
8
CUT
10
187.1712
20
141.9282
0
VERTEX
8
CUT
10
187.1517
20
141.9280
0
VERTEX
8
CUT
10
184.9751
20
141.9557
0
VERTEX
8
CUT
10
184.9554
20
141.9565
0
VERTEX
8
CUT
10
184.9150
20
141.9610
0
VERTEX
8
CUT
10
184.8778
20
141.9773
0
VERTEX
8
CUT
10
184.8604
20
141.9866
0
VERTEX
8
CUT
10
184.2270
20
142.3433
0
VERTEX
8
CUT
10
184.0063
20
142.4537
0
VERTEX
8
CUT
10
183.9177
20
142.4875
0
VERTEX
8
CUT
10
183.8317
20
142.6198
0
VERTEX
8
CUT
10
183.6758
20
142.8139
0
VERTEX
8
CUT
10
183.5014
20
142.9916
0
VERTEX
8
CUT
10
182.3812
20
144.0244
0
VERTEX
8
CUT
10
182.1990
20
144.1770
0
VERTEX
8
CUT
10
182.0032
20
144.3116
0
VERTEX
8
CUT
10
181.6982
20
144.5005
0
VERTEX
8
CUT
10
181.4860
20
144.6182
0
VERTEX
8
CUT
10
181.2634
20
144.7147
0
VERTEX
8
CUT
10
181.0324
20
144.7891
0
VERTEX
8
CUT
10
180.7954
20
144.8408
0
VERTEX
8
CUT
10
180.5544
20
144.8693
0
VERTEX
8
CUT
10
180.3118
20
144.8743
0
VERTEX
8
CUT
10
180.0699
20
144.8558
0
VERTEX
8
CUT
10
179.8309
20
144.8139
0
VERTEX
8
CUT
10
179.5971
20
144.7490
0
VERTEX
8
CUT
10
179.3706
20
144.6618
0
VERTEX
8
CUT
10
179.1537
20
144.5530
0
VERTEX
8
CUT
10
178.9484
20
144.4237
0
VERTEX
8
CUT
10
178.7566
20
144.2751
0
VERTEX
8
CUT
10
178.5801
20
144.1087
0
VERTEX
8
CUT
10
178.4205
20
143.9258
0
VERTEX
8
CUT
10
178.2794
20
143.7284
0
VERTEX
8
CUT
10
178.1582
20
143.5183
0
VERTEX
8
CUT
10
178.0578
20
143.2973
0
VERTEX
8
CUT
10
177.9794
20
143.0677
0
VERTEX
8
CUT
10
177.9236
20
142.8316
0
VERTEX
8
CUT
10
177.8909
20
142.5911
0
VERTEX
8
CUT
10
177.8818
20
142.3487
0
VERTEX
8
CUT
10
177.8961
20
142.1065
0
VERTEX
8
CUT
10
177.9339
20
141.8668
0
VERTEX
8
CUT
10
177.9947
20
141.6319
0
VERTEX
8
CUT
10
178.0780
20
141.4040
0
VERTEX
8
CUT
10
178.1830
20
141.1852
0
VERTEX
8
CUT
10
178.3088
20
140.9777
0
VERTEX
8
CUT
10
178.4540
20
140.7833
0
VERTEX
8
CUT
10
178.6174
20
140.6040
0
VERTEX
8
CUT
10
178.8639
20
140.3585
0
VERTEX
8
CUT
10
179.0333
20
140.2046
0
VERTEX
8
CUT
10
180.2120
20
139.2283
0
VERTEX
8
CUT
10
180.4114
20
139.0792
0
VERTEX
8
CUT
10
180.6247
20
138.9507
0
VERTEX
8
CUT
10
180.8496
20
138.8441
0
SEQEND
0
POLYLINE
8
CUT
66
1
70
1
10
0.0
20
0.0
30
0.0
0
VERTEX
8
CUT
10
168.5877
20
161.5060
0
VERTEX
8
CUT
10
168.5999
20
161.4684
0
VERTEX
8
CUT
10
168.6046
20
161.4292
0
VERTEX
8
CUT
10
168.6055
20
161.4100
0
VERTEX
8
CUT
10
168.6480
20
159.6080
0
VERTEX
8
CUT
10
168.6626
20
159.3906
0
VERTEX
8
CUT
10
168.6961
20
159.1753
0
VERTEX
8
CUT
10
168.7482
20
158.9638
0
VERTEX
8
CUT
10
168.8186
20
158.7576
0
VERTEX
8
CUT
10
168.8819
20
158.5954
0
VERTEX
8
CUT
10
168.8890
20
158.5756
0
VERTEX
8
CUT
10
168.9005
20
158.5336
0
VERTEX
8
CUT
10
168.9074
20
158.4907
0
VERTEX
8
CUT
10
168.9090
20
158.4697
0
VERTEX
8
CUT
10
168.9377
20
157.9301
0
VERTEX
8
CUT
10
168.9577
20
157.7210
0
VERTEX
8
CUT
10
168.9952
20
157.5143
0
VERTEX
8
CUT
10
169.0498
20
157.3114
0
VERTEX
8
CUT
10
170.6597
20
152.2036
0
VERTEX
8
CUT
10
170.7266
20
152.0174
0
VERTEX
8
CUT
10
170.8080
20
151.8371
0
VERTEX
8
CUT
10
170.8412
20
151.7708
0
VERTEX
8
CUT
10
170.9636
20
151.5537
0
VERTEX
8
CUT
10
171.1070
20
151.3498
0
VERTEX
8
CUT
10
171.2700
20
151.1613
0
VERTEX
8
CUT
10
171.4510
20
150.9900
0
VERTEX
8
CUT
10
171.6481
20
150.8375
0
VERTEX
8
CUT
10
171.8594
20
150.7054
0
VERTEX
8
CUT
10
172.0829
20
150.5950
0
VERTEX
8
CUT
10
172.3162
20
150.5073
0
VERTEX
8
CUT
10
172.5571
20
150.4434
0
VERTEX
8
CUT
10
172.8031
20
150.4037
0
VERTEX
8
CUT
10
173.0519
20
150.3888
0
VERTEX
8
CUT
10
173.3009
20
150.3987
0
VERTEX
8
CUT
10
173.5477
20
150.4333
0
VERTEX
8
CUT
10
173.7898
20
150.4924
0
VERTEX
8
CUT
10
174.0249
20
150.5752
0
VERTEX
8
CUT
10
174.2505
20
150.6811
0
VERTEX
8
CUT
10
174.4645
20
150.8088
0
VERTEX
8
CUT
10
174.6647
20
150.9573
0
VERTEX
8
CUT
10
174.8491
20
151.1249
0
VERTEX
8
CUT
10
175.0159
20
151.3101
0
VERTEX
8
CUT
10
175.1634
20
151.5110
0
VERTEX
8
CUT
10
175.2902
20
151.7255
0
VERTEX
8
CUT
10
175.3950
20
151.9516
0
VERTEX
8
CUT
10
175.4768
20
152.1871
0
VERTEX
8
CUT
10
175.5348
20
152.4295
0
VERTEX
8
CUT
10
175.5683
20
152.6764
0
VERTEX
8
CUT
10
175.5770
20
152.9255
0
VERTEX
8
CUT
10
175.5494
20
154.7992
0
VERTEX
8
CUT
10
175.5496
20
154.8177
0
VERTEX
8
CUT
10
175.5526
20
154.8558
0
VERTEX
8
CUT
10
175.5591
20
154.8934
0
VERTEX
8
CUT
10
175.5635
20
154.9113
0
VERTEX
8
CUT
10
176.1892
20
157.2206
0
VERTEX
8
CUT
10
176.1908
20
157.2258
0
VERTEX
8
CUT
10
176.2079
20
157.2737
0
VERTEX
8
CUT
10
176.2187
20
157.2970
0
VERTEX
8
CUT
10
176.2301
20
157.3185
0
VERTEX
8
CUT
10
177.6918
20
159.9023
0
VERTEX
8
CUT
10
177.7005
20
159.9171
0
VERTEX
8
CUT
10
177.7207
20
159.9465
0
VERTEX
8
CUT
10
177.7434
20
159.9741
0
VERTEX
8
CUT
10
177.7549
20
159.9863
0
VERTEX
8
CUT
10
177.9544
20
160.1902
0
VERTEX
8
CUT
10
178.1157
20
160.3718
0
VERTEX
8
CUT
10
178.2586
20
160.5682
0
VERTEX
8
CUT
10
178.3817
20
160.7776
0
VERTEX
8
CUT
10
178.4840
20
160.9979
0
VERTEX
8
CUT
10
178.5644
20
161.2271
0
VERTEX
8
CUT
10
178.6222
20
161.4630
0
VERTEX
8
CUT
10
178.6568
20
161.7034
0
VERTEX
8
CUT
10
178.6679
20
161.9461
0
VERTEX
8
CUT
10
178.6554
20
162.1887
0
VERTEX
8
CUT
10
178.6194
20
162.4289
0
VERTEX
8
CUT
10
178.5603
20
162.6645
0
VERTEX
8
CUT
10
178.4786
20
162.8932
0
VERTEX
8
CUT
10
178.3751
20
163.1129
0
VERTEX
8
CUT
10
178.2507
20
163.3216
0
VERTEX
8
CUT
10
178.1067
20
163.5172
0
VERTEX
8
CUT
10
177.9444
20
163.6979
0
VERTEX
8
CUT
10
177.7653
20
163.8620
0
VERTEX
8
CUT
10
177.5712
20
164.0080
0
VERTEX
8
CUT
10
177.3638
20
164.1344
0
VERTEX
8
CUT
10
177.1451
20
164.2401
0
VERTEX
8
CUT
10
176.9171
20
164.3240
0
VERTEX
8
CUT
10
176.6822
20
164.3855
0
VERTEX
8
CUT
10
176.4423
20
164.4238
0
VERTEX
8
CUT
10
176.1999
20
164.4387
0
VERTEX
8
CUT
10
176.0516
20
164.4406
0
VERTEX
8
CUT
10
176.0168
20
164.4452
0
VERTEX
8
CUT
10
175.9956
20
164.4498
0
VERTEX
8
CUT
10
174.7407
20
164.7575
0
VERTEX
8
CUT
10
174.7181
20
164.7638
0
VERTEX
8
CUT
10
174.6274
20
164.7977
0
VERTEX
8
CUT
10
174.6063
20
164.8078
0
VERTEX
8
CUT
10
173.5017
20
165.3776
0
VERTEX
8
CUT
10
173.4842
20
165.3872
0
VERTEX
8
CUT
10
173.4497
20
165.4096
0
VERTEX
8
CUT
10
173.4176
20
165.4354
0
VERTEX
8
CUT
10
173.4031
20
165.4491
0
VERTEX
8
CUT
10
172.6350
20
166.2057
0
VERTEX
8
CUT
10
172.4523
20
166.3688
0
VERTEX
8
CUT
10
172.2546
20
166.5133
0
VERTEX
8
CUT
10
172.0436
20
166.6377
0
VERTEX
8
CUT
10
171.8215
20
166.7408
0
VERTEX
8
CUT
10
171.5903
20
166.8218
0
VERTEX
8
CUT
10
171.3524
20
166.8797
0
VERTEX
8
CUT
10
171.1099
20
166.9141
0
VERTEX
8
CUT
10
170.8652
20
166.9246
0
VERTEX
8
CUT
10
170.6207
20
166.9111
0
VERTEX
8
CUT
10
170.3786
20
166.8738
0
VERTEX
8
CUT
10
170.1414
20
166.8129
0
VERTEX
8
CUT
10
169.9113
20
166.7291
0
VERTEX
8
CUT
10
169.6905
20
166.6232
0
VERTEX
8
CUT
10
169.4811
20
166.4962
0
VERTEX
8
CUT
10
169.2851
20
166.3493
0
VERTEX
8
CUT
10
169.1044
20
166.1840
0
VERTEX
8
CUT
10
168.9408
20
166.0017
0
VERTEX
8
CUT
10
168.7958
20
165.8044
0
VERTEX
8
CUT
10
168.6708
20
165.5938
0
VERTEX
8
CUT
10
168.5670
20
165.3719
0
VERTEX
8
CUT
10
168.4854
20
165.1410
0
VERTEX
8
CUT
10
168.4268
20
164.9032
0
VERTEX
8
CUT
10
168.3918
20
164.6608
0
VERTEX
8
CUT
10
168.3806
20
164.4162
0
VERTEX
8
CUT
10
168.3872
20
162.4794
0
VERTEX
8
CUT
10
168.3995
20
162.2403
0
VERTEX
8
CUT
10
168.4346
20
162.0034
0
VERTEX
8
CUT
10
168.4921
20
161.7710
0
VERTEX
8
CUT
10
168.5717
20
161.5452
0
SEQEND
0
POLYLINE
8
CUT
66
1
70
1
10
0.0
20
0.0
30
0.0
0
VERTEX
8
CUT
10
166.0360
20
20.5915
0
VERTEX
8
CUT
10
166.0492
20
20.3401
0
VERTEX
8
CUT
10
166.0877
20
20.0913
0
VERTEX
8
CUT
10
166.1511
20
19.8476
0
VERTEX
8
CUT
10
166.2386
20
19.6115
0
VERTEX
8
CUT
10
166.6844
20
18.5728
0
VERTEX
8
CUT
10
166.7926
20
18.3515
0
VERTEX
8
CUT
10
166.9220
20
18.1419
0
VERTEX
8
CUT
10
167.0714
20
17.9461
0
VERTEX
8
CUT
10
167.2393
20
17.7660
0
VERTEX
8
CUT
10
167.4242
20
17.6032
0
VERTEX
8
CUT
10
168.0809
20
17.0802
0
VERTEX
8
CUT
10
168.2762
20
16.9394
0
VERTEX
8
CUT
10
168.4843
20
16.8181
0
VERTEX
8
CUT
10
168.7030
20
16.7173
0
VERTEX
8
CUT
10
168.9304
20
16.6381
0
VERTEX
8
CUT
10
169.1643
20
16.5811
0
VERTEX
8
CUT
10
169.4027
20
16.5468
0
VERTEX
8
CUT
10
169.6432
20
16.5357
0
VERTEX
8
CUT
10
171.3415
20
16.5390
0
VERTEX
8
CUT
10
171.5668
20
16.5496
0
VERTEX
8
CUT
10
171.7901
20
16.5804
0
VERTEX
8
CUT
10
172.0098
20
16.6313
0
VERTEX
8
CUT
10
172.2240
20
16.7017
0
VERTEX
8
CUT
10
172.4310
20
16.7912
0
VERTEX
8
CUT
10
172.7868
20
16.9644
0
VERTEX
8
CUT
10
173.0330
20
17.1019
0
VERTEX
8
CUT
10
173.2621
20
17.2663
0
VERTEX
8
CUT
10
173.4712
20
17.4554
0
VERTEX
8
CUT
10
173.7046
20
17.6917
0
VERTEX
8
CUT
10
173.8614
20
17.8661
0
VERTEX
8
CUT
10
174.0012
20
18.0545
0
VERTEX
8
CUT
10
174.1227
20
18.2551
0
VERTEX
8
CUT
10
174.2249
20
18.4662
0
VERTEX
8
CUT
10
174.7236
20
19.6334
0
VERTEX
8
CUT
10
174.8092
20
19.8647
0
VERTEX
8
CUT
10
174.8716
20
20.1032
0
VERTEX
8
CUT
10
174.9102
20
20.3468
0
VERTEX
8
CUT
10
174.9246
20
20.5929
0
VERTEX
8
CUT
10
174.9257
20
20.7094
0
VERTEX
8
CUT
10
174.9151
20
20.9633
0
VERTEX
8
CUT
10
174.8787
20
21.2149
0
VERTEX
8
CUT
10
174.8171
20
21.4614
0
VERTEX
8
CUT
10
174.7307
20
21.7004
0
VERTEX
8
CUT
10
174.2253
20
22.9037
0
VERTEX
8
CUT
10
174.1226
20
23.1188
0
VERTEX
8
CUT
10
173.9999
20
23.3231
0
VERTEX
8
CUT
10
173.8583
20
23.5149
0
VERTEX
8
CUT
10
173.6990
20
23.6923
0
VERTEX
8
CUT
10
173.4600
20
23.9343
0
VERTEX
8
CUT
10
173.2589
20
24.1169
0
VERTEX
8
CUT
10
173.0392
20
24.2766
0
VERTEX
8
CUT
10
172.8035
20
24.4115
0
VERTEX
8
CUT
10
171.9054
20
24.8626
0
VERTEX
8
CUT
10
171.6958
20
24.9561
0
VERTEX
8
CUT
10
171.4785
20
25.0300
0
VERTEX
8
CUT
10
171.2553
20
25.0837
0
VERTEX
8
CUT
10
171.0281
20
25.1166
0
VERTEX
8
CUT
10
170.7989
20
25.1286
0
VERTEX
8
CUT
10
170.2063
20
25.1323
0
VERTEX
8
CUT
10
169.9779
20
25.1233
0
VERTEX
8
CUT
10
169.7512
20
25.0934
0
VERTEX
8
CUT
10
169.5282
20
25.0430
0
VERTEX
8
CUT
10
169.3108
20
24.9724
0
VERTEX
8
CUT
10
169.1007
20
24.8822
0
VERTEX
8
CUT
10
168.6217
20
24.6501
0
VERTEX
8
CUT
10
168.3801
20
24.5162
0
VERTEX
8
CUT
10
168.1549
20
24.3564
0
VERTEX
8
CUT
10
167.4257
20
23.7760
0
VERTEX
8
CUT
10
167.2403
20
23.6129
0
VERTEX
8
CUT
10
167.0719
20
23.4322
0
VERTEX
8
CUT
10
166.9222
20
23.2359
0
VERTEX
8
CUT
10
166.7925
20
23.0257
0
VERTEX
8
CUT
10
166.6843
20
22.8037
0
VERTEX
8
CUT
10
166.2372
20
21.7593
0
VERTEX
8
CUT
10
166.1492
20
21.5209
0
VERTEX
8
CUT
10
166.0859
20
21.2747
0
VERTEX
8
CUT
10
166.0478
20
21.0234
0
VERTEX
8
CUT
10
166.0355
20
20.7696
0
SEQEND
0
POLYLINE
8
CUT
66
1
70
1
10
0.0
20
0.0
30
0.0
0
VERTEX
8
CUT
10
152.4370
20
189.1647
0
VERTEX
8
CUT
10
152.4917
20
189.0820
0
VERTEX
8
CUT
10
152.5031
20
189.0609
0
VERTEX
8
CUT
10
153.0118
20
188.0428
0
VERTEX
8
CUT
10
153.1242
20
187.8416
0
VERTEX
8
CUT
10
153.2547
20
187.6516
0
VERTEX
8
CUT
10
153.4021
20
187.4745
0
VERTEX
8
CUT
10
153.9032
20
186.9257
0
VERTEX
8
CUT
10
154.0314
20
186.7953
0
VERTEX
8
CUT
10
154.9676
20
185.9098
0
VERTEX
8
CUT
10
155.1446
20
185.7574
0
VERTEX
8
CUT
10
155.3351
20
185.6222
0
VERTEX
8
CUT
10
155.5373
20
185.5054
0
VERTEX
8
CUT
10
156.0413
20
185.2448
0
VERTEX
8
CUT
10
156.0579
20
185.2357
0
VERTEX
8
CUT
10
156.1237
20
185.1933
0
VERTEX
8
CUT
10
156.1389
20
185.1819
0
VERTEX
8
CUT
10
157.0919
20
184.4307
0
VERTEX
8
CUT
10
157.2832
20
184.2940
0
VERTEX
8
CUT
10
157.4865
20
184.1759
0
VERTEX
8
CUT
10
157.7000
20
184.0773
0
VERTEX
8
CUT
10
157.9219
20
183.9993
0
VERTEX
8
CUT
10
158.1501
20
183.9425
0
VERTEX
8
CUT
10
158.3826
20
183.9073
0
VERTEX
8
CUT
10
158.6174
20
183.8942
0
VERTEX
8
CUT
10
159.4628
20
183.8867
0
VERTEX
8
CUT
10
159.7140
20
183.8971
0
VERTEX
8
CUT
10
159.9629
20
183.9327
0
VERTEX
8
CUT
10
160.2069
20
183.9931
0
VERTEX
8
CUT
10
160.4437
20
184.0777
0
VERTEX
8
CUT
10
160.6707
20
184.1857
0
VERTEX
8
CUT
10
160.8858
20
184.3159
0
VERTEX
8
CUT
10
161.0867
20
184.4671
0
VERTEX
8
CUT
10
161.2713
20
184.6376
0
VERTEX
8
CUT
10
161.4380
20
184.8259
0
VERTEX
8
CUT
10
161.5848
20
185.0299
0
VERTEX
8
CUT
10
161.7105
20
185.2477
0
VERTEX
8
CUT
10
161.8136
20
185.4770
0
VERTEX
8
CUT
10
161.8932
20
185.7155
0
VERTEX
8
CUT
10
161.9484
20
185.9607
0
VERTEX
8
CUT
10
161.9504
20
185.9721
0
VERTEX
8
CUT
10
161.9540
20
185.9902
0
VERTEX
8
CUT
10
161.9638
20
186.0266
0
VERTEX
8
CUT
10
161.9862
20
186.0569
0
VERTEX
8
CUT
10
161.9982
20
186.0709
0
VERTEX
8
CUT
10
162.4517
20
186.5777
0
VERTEX
8
CUT
10
162.6031
20
186.7643
0
VERTEX
8
CUT
10
162.7360
20
186.9645
0
VERTEX
8
CUT
10
162.8490
20
187.1766
0
VERTEX
8
CUT
10
162.9411
20
187.3985
0
VERTEX
8
CUT
10
163.0114
20
187.6282
0
VERTEX
8
CUT
10
163.0595
20
187.8637
0
VERTEX
8
CUT
10
163.0846
20
188.1026
0
VERTEX
8
CUT
10
163.0868
20
188.3429
0
VERTEX
8
CUT
10
163.0658
20
188.5822
0
VERTEX
8
CUT
10
163.0220
20
188.8185
0
VERTEX
8
CUT
10
162.9556
20
189.0494
0
VERTEX
8
CUT
10
162.8675
20
189.2729
0
VERTEX
8
CUT
10
162.7582
20
189.4870
0
VERTEX
8
CUT
10
162.6290
20
189.6895
0
VERTEX
8
CUT
10
162.4809
20
189.8787
0
VERTEX
8
CUT
10
162.3153
20
190.0528
0
VERTEX
8
CUT
10
162.1337
20
190.2102
0
VERTEX
8
CUT
10
161.9379
20
190.3495
0
VERTEX
8
CUT
10
157.9987
20
192.8747
0
VERTEX
8
CUT
10
157.9844
20
192.8843
0
VERTEX
8
CUT
10
157.9281
20
192.9278
0
VERTEX
8
CUT
10
157.9151
20
192.9392
0
VERTEX
8
CUT
10
157.2514
20
193.5488
0
VERTEX
8
CUT
10
157.0693
20
193.7009
0
VERTEX
8
CUT
10
156.8735
20
193.8350
0
VERTEX
8
CUT
10
156.6659
20
193.9499
0
VERTEX
8
CUT
10
156.4483
20
194.0446
0
VERTEX
8
CUT
10
156.2227
20
194.1183
0
VERTEX
8
CUT
10
155.9912
20
194.1703
0
VERTEX
8
CUT
10
155.7557
20
194.2000
0
VERTEX
8
CUT
10
155.5185
20
194.2074
0
VERTEX
8
CUT
10
155.2817
20
194.1922
0
VERTEX
8
CUT
10
155.0474
20
194.1546
0
VERTEX
8
CUT
10
154.8177
20
194.0949
0
VERTEX
8
CUT
10
154.5947
20
194.0138
0
VERTEX
8
CUT
10
154.3804
20
193.9118
0
VERTEX
8
CUT
10
154.1768
20
193.7900
0
VERTEX
8
CUT
10
153.9855
20
193.6495
0
VERTEX
8
CUT
10
153.9803
20
193.6452
0
VERTEX
8
CUT
10
152.8238
20
192.7524
0
VERTEX
8
CUT
10
152.6352
20
192.5912
0
VERTEX
8
CUT
10
152.4635
20
192.4122
0
VERTEX
8
CUT
10
152.3104
20
192.2170
0
VERTEX
8
CUT
10
152.1774
20
192.0076
0
VERTEX
8
CUT
10
152.0658
20
191.7861
0
VERTEX
8
CUT
10
151.9767
20
191.5546
0
VERTEX
8
CUT
10
151.9110
20
191.3154
0
VERTEX
8
CUT
10
151.8693
20
191.0709
0
VERTEX
8
CUT
10
151.8520
20
190.8234
0
VERTEX
8
CUT
10
151.8594
20
190.5755
0
VERTEX
8
CUT
10
151.8913
20
190.3295
0
VERTEX
8
CUT
10
151.9474
20
190.0879
0
VERTEX
8
CUT
10
152.0272
20
189.8530
0
VERTEX
8
CUT
10
152.1298
20
189.6272
0
VERTEX
8
CUT
10
152.2543
20
189.4127
0
VERTEX
8
CUT
10
152.3995
20
189.2115
0
SEQEND
0
POLYLINE
8
CUT
66
1
70
1
10
0.0
20
0.0
30
0.0
0
VERTEX
8
CUT
10
146.8413
20
199.4504
0
VERTEX
8
CUT
10
146.7122
20
199.2452
0
VERTEX
8
CUT
10
146.6035
20
199.0284
0
VERTEX
8
CUT
10
146.5164
20
198.8022
0
VERTEX
8
CUT
10
146.4516
20
198.5685
0
VERTEX
8
CUT
10
146.4098
20
198.3297
0
VERTEX
8
CUT
10
146.3913
20
198.0880
0
VERTEX
8
CUT
10
146.3963
20
197.8456
0
VERTEX
8
CUT
10
146.4247
20
197.6048
0
VERTEX
8
CUT
10
146.4764
20
197.3679
0
VERTEX
8
CUT
10
146.5507
20
197.1371
0
VERTEX
8
CUT
10
146.6470
20
196.9146
0
VERTEX
8
CUT
10
146.7645
20
196.7025
0
VERTEX
8
CUT
10
146.9019
20
196.5028
0
VERTEX
8
CUT
10
147.0581
20
196.3173
0
VERTEX
8
CUT
10
147.2314
20
196.1478
0
VERTEX
8
CUT
10
147.2690
20
196.1176
0
VERTEX
8
CUT
10
147.2689
20
196.1174
0
VERTEX
8
CUT
10
147.3767
20
196.0239
0
VERTEX
8
CUT
10
147.3885
20
196.0123
0
VERTEX
8
CUT
10
147.9774
20
195.4063
0
VERTEX
8
CUT
10
147.9890
20
195.3938
0
VERTEX
8
CUT
10
148.0337
20
195.3392
0
VERTEX
8
CUT
10
148.0436
20
195.3254
0
VERTEX
8
CUT
10
148.1180
20
195.2165
0
VERTEX
8
CUT
10
148.2631
20
195.0248
0
VERTEX
8
CUT
10
148.4260
20
194.8479
0
VERTEX
8
CUT
10
148.6051
20
194.6875
0
VERTEX
8
CUT
10
148.7988
20
194.5450
0
VERTEX
8
CUT
10
149.0053
20
194.4218
0
VERTEX
8
CUT
10
149.2227
20
194.3190
0
VERTEX
8
CUT
10
149.4489
20
194.2375
0
VERTEX
8
CUT
10
149.6819
20
194.1782
0
VERTEX
8
CUT
10
149.9196
20
194.1415
0
VERTEX
8
CUT
10
150.1596
20
194.1278
0
VERTEX
8
CUT
10
150.3999
20
194.1373
0
VERTEX
8
CUT
10
150.6381
20
194.1698
0
VERTEX
8
CUT
10
150.8722
20
194.2250
0
VERTEX
8
CUT
10
151.0998
20
194.3025
0
VERTEX
8
CUT
10
151.3190
20
194.4014
0
VERTEX
8
CUT
10
151.5276
20
194.5210
0
VERTEX
8
CUT
10
151.7238
20
194.6601
0
VERTEX
8
CUT
10
151.9057
20
194.8173
0
VERTEX
8
CUT
10
152.0716
20
194.9913
0
VERTEX
8
CUT
10
152.2201
20
195.1805
0
VERTEX
8
CUT
10
152.9947
20
196.2715
0
VERTEX
8
CUT
10
153.1289
20
196.4821
0
VERTEX
8
CUT
10
153.2415
20
196.7051
0
VERTEX
8
CUT
10
153.3313
20
196.9382
0
VERTEX
8
CUT
10
153.3973
20
197.1791
0
VERTEX
8
CUT
10
153.4390
20
197.4254
0
VERTEX
8
CUT
10
153.4558
20
197.6746
0
VERTEX
8
CUT
10
153.4478
20
197.9243
0
VERTEX
8
CUT
10
153.4148
20
198.1719
0
VERTEX
8
CUT
10
153.3574
20
198.4149
0
VERTEX
8
CUT
10
153.2759
20
198.6511
0
VERTEX
8
CUT
10
153.1713
20
198.8779
0
VERTEX
8
CUT
10
153.0446
20
199.0931
0
VERTEX
8
CUT
10
151.9044
20
200.8257
0
VERTEX
8
CUT
10
151.7603
20
201.0228
0
VERTEX
8
CUT
10
151.5978
20
201.2050
0
VERTEX
8
CUT
10
151.4182
20
201.3704
0
VERTEX
8
CUT
10
151.2234
20
201.5176
0
VERTEX
8
CUT
10
151.0151
20
201.6450
0
VERTEX
8
CUT
10
150.7954
20
201.7515
0
VERTEX
8
CUT
10
150.5664
20
201.8360
0
VERTEX
8
CUT
10
150.3302
20
201.8979
0
VERTEX
8
CUT
10
150.0891
20
201.9363
0
VERTEX
8
CUT
10
149.8453
20
201.9511
0
VERTEX
8
CUT
10
149.6014
20
201.9421
0
VERTEX
8
CUT
10
149.3594
20
201.9093
0
VERTEX
8
CUT
10
149.1218
20
201.8530
0
VERTEX
8
CUT
10
148.8909
20
201.7738
0
VERTEX
8
CUT
10
148.6687
20
201.6725
0
VERTEX
8
CUT
10
148.4575
20
201.5500
0
VERTEX
8
CUT
10
148.2593
20
201.4075
0
VERTEX
8
CUT
10
148.0759
20
201.2463
0
VERTEX
8
CUT
10
147.9091
20
201.0680
0
VERTEX
8
CUT
10
147.7605
20
200.8743
0
VERTEX
8
CUT
10
147.6315
20
200.6670
0
VERTEX
8
CUT
10
147.5233
20
200.4481
0
VERTEX
8
CUT
10
147.5225
20
200.4462
0
VERTEX
8
CUT
10
147.5142
20
200.4282
0
VERTEX
8
CUT
10
147.4740
20
200.3565
0
VERTEX
8
CUT
10
147.4630
20
200.3399
0
SEQEND
0
POLYLINE
8
CUT
66
1
70
1
10
0.0
20
0.0
30
0.0
0
VERTEX
8
CUT
10
121.7160
20
160.2000
0
VERTEX
8
CUT
10
121.7381
20
160.1723
0
VERTEX
8
CUT
10
121.7579
20
160.1428
0
VERTEX
8
CUT
10
121.7662
20
160.1284
0
VERTEX
8
CUT
10
123.4802
20
157.0168
0
VERTEX
8
CUT
10
123.4888
20
157.0002
0
VERTEX
8
CUT
10
123.5041
20
156.9649
0
VERTEX
8
CUT
10
123.5161
20
156.9282
0
VERTEX
8
CUT
10
123.5206
20
156.9101
0
VERTEX
8
CUT
10
123.7956
20
155.6876
0
VERTEX
8
CUT
10
123.8000
20
155.6654
0
VERTEX
8
CUT
10
123.8100
20
155.5721
0
VERTEX
8
CUT
10
123.8105
20
155.5495
0
VERTEX
8
CUT
10
123.7968
20
153.5931
0
VERTEX
8
CUT
10
123.8074
20
153.3451
0
VERTEX
8
CUT
10
123.8426
20
153.0994
0
VERTEX
8
CUT
10
123.9019
20
152.8583
0
VERTEX
8
CUT
10
123.9848
20
152.6244
0
VERTEX
8
CUT
10
124.0906
20
152.3998
0
VERTEX
8
CUT
10
124.2180
20
152.1868
0
VERTEX
8
CUT
10
124.3660
20
151.9875
0
VERTEX
8
CUT
10
124.5330
20
151.8038
0
VERTEX
8
CUT
10
124.7174
20
151.6377
0
VERTEX
8
CUT
10
124.9174
20
151.4906
0
VERTEX
8
CUT
10
125.1310
20
151.3641
0
VERTEX
8
CUT
10
125.3560
20
151.2594
0
VERTEX
8
CUT
10
125.5904
20
151.1775
0
VERTEX
8
CUT
10
125.8317
20
151.1193
0
VERTEX
8
CUT
10
126.0775
20
151.0853
0
VERTEX
8
CUT
10
126.3256
20
151.0758
0
VERTEX
8
CUT
10
126.5734
20
151.0910
0
VERTEX
8
CUT
10
126.8184
20
151.1306
0
VERTEX
8
CUT
10
127.0583
20
151.1944
0
VERTEX
8
CUT
10
127.2907
20
151.2817
0
VERTEX
8
CUT
10
127.5133
20
151.3916
0
VERTEX
8
CUT
10
127.7238
20
151.5230
0
VERTEX
8
CUT
10
127.9204
20
151.6746
0
VERTEX
8
CUT
10
128.1009
20
151.8450
0
VERTEX
8
CUT
10
128.2636
20
152.0324
0
VERTEX
8
CUT
10
128.4070
20
152.2351
0
VERTEX
8
CUT
10
128.5295
20
152.4509
0
VERTEX
8
CUT
10
128.6300
20
152.6779
0
VERTEX
8
CUT
10
129.2357
20
154.2520
0
VERTEX
8
CUT
10
129.3149
20
154.4941
0
VERTEX
8
CUT
10
130.1175
20
157.4475
0
VERTEX
8
CUT
10
130.1844
20
157.7830
0
VERTEX
8
CUT
10
130.5057
20
160.2718
0
VERTEX
8
CUT
10
130.5085
20
160.2900
0
VERTEX
8
CUT
10
130.5169
20
160.3271
0
VERTEX
8
CUT
10
130.5286
20
160.3633
0
VERTEX
8
CUT
10
130.5355
20
160.3804
0
VERTEX
8
CUT
10
130.5496
20
160.4132
0
VERTEX
8
CUT
10
130.6347
20
160.6401
0
VERTEX
8
CUT
10
130.6973
20
160.8742
0
VERTEX
8
CUT
10
130.7370
20
161.1133
0
VERTEX
8
CUT
10
130.7534
20
161.3550
0
VERTEX
8
CUT
10
130.7910
20
163.3192
0
VERTEX
8
CUT
10
130.7918
20
163.3388
0
VERTEX
8
CUT
10
130.8014
20
163.4197
0
VERTEX
8
CUT
10
130.8052
20
163.4390
0
VERTEX
8
CUT
10
130.8667
20
163.7175
0
VERTEX
8
CUT
10
130.9079
20
163.9611
0
VERTEX
8
CUT
10
130.9249
20
164.2076
0
VERTEX
8
CUT
10
130.9175
20
164.4546
0
VERTEX
8
CUT
10
130.8857
20
164.6997
0
VERTEX
8
CUT
10
130.8299
20
164.9404
0
VERTEX
8
CUT
10
130.7506
20
165.1744
0
VERTEX
8
CUT
10
130.6486
20
165.3994
0
VERTEX
8
CUT
10
130.5249
20
165.6133
0
VERTEX
8
CUT
10
130.3807
20
165.8140
0
VERTEX
8
CUT
10
130.2174
20
165.9994
0
VERTEX
8
CUT
10
130.0365
20
166.1678
0
VERTEX
8
CUT
10
129.8400
20
166.3175
0
VERTEX
8
CUT
10
129.6296
20
166.4470
0
VERTEX
8
CUT
10
129.4074
20
166.5552
0
VERTEX
8
CUT
10
129.1757
20
166.6409
0
VERTEX
8
CUT
10
128.9366
20
166.7033
0
VERTEX
8
CUT
10
128.6925
20
166.7419
0
VERTEX
8
CUT
10
128.4459
20
166.7561
0
VERTEX
8
CUT
10
128.1990
20
166.7459
0
VERTEX
8
CUT
10
127.9543
20
166.7114
0
VERTEX
8
CUT
10
127.7142
20
166.6529
0
VERTEX
8
CUT
10
127.4811
20
166.5710
0
VERTEX
8
CUT
10
127.2572
20
166.4665
0
VERTEX
8
CUT
10
127.0447
20
166.3404
0
VERTEX
8
CUT
10
126.8457
20
166.1939
0
VERTEX
8
CUT
10
126.7372
20
166.0961
0
VERTEX
8
CUT
10
126.7367
20
166.0966
0
VERTEX
8
CUT
10
126.6634
20
166.0317
0
VERTEX
8
CUT
10
126.2545
20
165.6878
0
VERTEX
8
CUT
10
126.2416
20
165.6774
0
VERTEX
8
CUT
10
126.2134
20
165.6575
0
VERTEX
8
CUT
10
126.1864
20
165.6416
0
VERTEX
8
CUT
10
126.1646
20
165.6305
0
VERTEX
8
CUT
10
124.3994
20
164.7820
0
VERTEX
8
CUT
10
124.3832
20
164.7747
0
VERTEX
8
CUT
10
124.3490
20
164.7619
0
VERTEX
8
CUT
10
124.3125
20
164.7586
0
VERTEX
8
CUT
10
124.2953
20
164.7582
0
VERTEX
8
CUT
10
123.2079
20
164.7580
0
VERTEX
8
CUT
10
122.9653
20
164.7462
0
VERTEX
8
CUT
10
122.7251
20
164.7109
0
VERTEX
8
CUT
10
122.4894
20
164.6524
0
VERTEX
8
CUT
10
122.2604
20
164.5713
0
VERTEX
8
CUT
10
122.0404
20
164.4684
0
VERTEX
8
CUT
10
121.8315
20
164.3447
0
VERTEX
8
CUT
10
121.6355
20
164.2013
0
VERTEX
8
CUT
10
121.4544
20
164.0395
0
VERTEX
8
CUT
10
121.2898
20
163.8609
0
VERTEX
8
CUT
10
121.1433
20
163.6672
0
VERTEX
8
CUT
10
121.0164
20
163.4602
0
VERTEX
8
CUT
10
120.9101
20
163.2418
0
VERTEX
8
CUT
10
120.8255
20
163.0142
0
VERTEX
8
CUT
10
120.7633
20
162.7794
0
VERTEX
8
CUT
10
120.7243
20
162.5397
0
VERTEX
8
CUT
10
120.7087
20
162.2974
0
VERTEX
8
CUT
10
120.7166
20
162.0546
0
VERTEX
8
CUT
10
120.7481
20
161.8138
0
VERTEX
8
CUT
10
120.8028
20
161.5772
0
VERTEX
8
CUT
10
120.8802
20
161.3470
0
VERTEX
8
CUT
10
120.9796
20
161.1255
0
VERTEX
8
CUT
10
121.1000
20
160.9145
0
VERTEX
8
CUT
10
121.2403
20
160.7163
0
VERTEX
8
CUT
10
121.3992
20
160.5326
0
VERTEX
8
CUT
10
121.7045
20
160.2125
0
SEQEND
0
POLYLINE
8
CUT
66
1
70
1
10
0.0
20
0.0
30
0.0
0
VERTEX
8
CUT
10
44.1644
20
171.7586
0
VERTEX
8
CUT
10
44.0981
20
171.5213
0
VERTEX
8
CUT
10
44.0555
20
171.2785
0
VERTEX
8
CUT
10
44.0370
20
171.0328
0
VERTEX
8
CUT
10
44.0428
20
170.7864
0
VERTEX
8
CUT
10
44.0729
20
170.5418
0
VERTEX
8
CUT
10
44.1268
20
170.3013
0
VERTEX
8
CUT
10
44.2042
20
170.0673
0
VERTEX
8
CUT
10
44.3043
20
169.8421
0
VERTEX
8
CUT
10
44.4260
20
169.6278
0
VERTEX
8
CUT
10
44.5682
20
169.4266
0
VERTEX
8
CUT
10
44.7296
20
169.2403
0
VERTEX
8
CUT
10
44.9085
20
169.0708
0
VERTEX
8
CUT
10
45.1033
20
168.9198
0
VERTEX
8
CUT
10
45.3119
20
168.7887
0
VERTEX
8
CUT
10
45.5325
20
168.6787
0
VERTEX
8
CUT
10
45.7628
20
168.5910
0
VERTEX
8
CUT
10
46.0007
20
168.5264
0
VERTEX
8
CUT
10
46.2437
20
168.4856
0
VERTEX
8
CUT
10
46.4896
20
168.4688
0
VERTEX
8
CUT
10
46.7359
20
168.4764
0
VERTEX
8
CUT
10
46.9803
20
168.5081
0
VERTEX
8
CUT
10
47.2204
20
168.5638
0
VERTEX
8
CUT
10
47.4538
20
168.6429
0
VERTEX
8
CUT
10
48.8215
20
169.1826
0
VERTEX
8
CUT
10
48.8394
20
169.1891
0
VERTEX
8
CUT
10
48.8771
20
169.2000
0
VERTEX
8
CUT
10
48.9161
20
169.2034
0
VERTEX
8
CUT
10
48.9351
20
169.2037
0
VERTEX
8
CUT
10
52.9596
20
169.1698
0
VERTEX
8
CUT
10
52.9801
20
169.1691
0
VERTEX
8
CUT
10
53.0223
20
169.1643
0
VERTEX
8
CUT
10
53.0637
20
169.1553
0
VERTEX
8
CUT
10
53.0833
20
169.1493
0
VERTEX
8
CUT
10
54.7830
20
168.5877
0
VERTEX
8
CUT
10
54.8668
20
168.5566
0
VERTEX
8
CUT
10
54.9480
20
168.5194
0
VERTEX
8
CUT
10
57.7507
20
167.1124
0
VERTEX
8
CUT
10
57.7695
20
167.1023
0
VERTEX
8
CUT
10
57.8436
20
167.0545
0
VERTEX
8
CUT
10
57.8606
20
167.0415
0
VERTEX
8
CUT
10
61.1195
20
164.4063
0
VERTEX
8
CUT
10
61.1357
20
164.3925
0
VERTEX
8
CUT
10
61.1980
20
164.3299
0
VERTEX
8
CUT
10
61.2118
20
164.3137
0
VERTEX
8
CUT
10
63.7234
20
161.1832
0
VERTEX
8
CUT
10
63.7716
20
161.1189
0
VERTEX
8
CUT
10
63.8155
20
161.0515
0
VERTEX
8
CUT
10
66.4302
20
156.7355
0
VERTEX
8
CUT
10
66.4557
20
156.6913
0
VERTEX
8
CUT
10
66.4793
20
156.6462
0
VERTEX
8
CUT
10
68.1840
20
153.2177
0
VERTEX
8
CUT
10
68.2048
20
153.1736
0
VERTEX
8
CUT
10
68.2239
20
153.1286
0
VERTEX
8
CUT
10
69.4614
20
150.0448
0
VERTEX
8
CUT
10
69.5775
20
149.7961
0
VERTEX
8
CUT
10
71.7750
20
145.6903
0
VERTEX
8
CUT
10
71.9338
20
145.4325
0
VERTEX
8
CUT
10
74.3914
20
141.9355
0
VERTEX
8
CUT
10
74.5197
20
141.7684
0
VERTEX
8
CUT
10
74.6617
20
141.6126
0
VERTEX
8
CUT
10
78.9178
20
137.3210
0
VERTEX
8
CUT
10
79.0773
20
137.1736
0
VERTEX
8
CUT
10
79.2490
20
137.0406
0
VERTEX
8
CUT
10
81.9426
20
135.1349
0
VERTEX
8
CUT
10
82.1020
20
135.0310
0
VERTEX
8
CUT
10
82.2689
20
134.9395
0
VERTEX
8
CUT
10
85.3984
20
133.3755
0
VERTEX
8
CUT
10
85.6016
20
133.2850
0
VERTEX
8
CUT
10
85.8120
20
133.2129
0
VERTEX
8
CUT
10
90.3055
20
131.8943
0
VERTEX
8
CUT
10
90.5995
20
131.8270
0
VERTEX
8
CUT
10
90.8994
20
131.7956
0
VERTEX
8
CUT
10
91.7468
20
131.7582
0
VERTEX
8
CUT
10
91.7668
20
131.7568
0
VERTEX
8
CUT
10
91.8076
20
131.7509
0
VERTEX
8
CUT
10
91.8477
20
131.7408
0
VERTEX
8
CUT
10
91.8667
20
131.7345
0
VERTEX
8
CUT
10
92.1005
20
131.6500
0
VERTEX
8
CUT
10
92.3640
20
131.5710
0
VERTEX
8
CUT
10
92.6345
20
131.5213
0
VERTEX
8
CUT
10
92.9088
20
131.5017
0
VERTEX
8
CUT
10
95.5245
20
131.4587
0
VERTEX
8
CUT
10
95.5299
20
131.4585
0
VERTEX
8
CUT
10
95.5798
20
131.4537
0
VERTEX
8
CUT
10
95.6046
20
131.4492
0
VERTEX
8
CUT
10
95.6280
20
131.4435
0
VERTEX
8
CUT
10
96.1812
20
131.2946
0
VERTEX
8
CUT
10
96.4383
20
131.2398
0
VERTEX
8
CUT
10
96.6997
20
131.2122
0
VERTEX
8
CUT
10
96.9625
20
131.2122
0
VERTEX
8
CUT
10
97.2239
20
131.2398
0
VERTEX
8
CUT
10
97.4810
20
131.2947
0
VERTEX
8
CUT
10
97.7308
20
131.3763
0
VERTEX
8
CUT
10
97.9016
20
131.4422
0
VERTEX
8
CUT
10
97.9180
20
131.4481
0
VERTEX
8
CUT
10
97.9526
20
131.4581
0
VERTEX
8
CUT
10
97.9881
20
131.4618
0
VERTEX
8
CUT
10
98.0057
20
131.4624
0
VERTEX
8
CUT
10
100.3108
20
131.5001
0
VERTEX
8
CUT
10
100.5726
20
131.5181
0
VERTEX
8
CUT
10
100.8312
20
131.5635
0
VERTEX
8
CUT
10
101.0835
20
131.6358
0
VERTEX
8
CUT
10
101.3826
20
131.7387
0
VERTEX
8
CUT
10
101.4015
20
131.7447
0
VERTEX
8
CUT
10
101.4413
20
131.7541
0
VERTEX
8
CUT
10
101.4818
20
131.7594
0
VERTEX
8
CUT
10
101.5015
20
131.7606
0
VERTEX
8
CUT
10
102.6326
20
131.7967
0
VERTEX
8
CUT
10
102.8734
20
131.8161
0
VERTEX
8
CUT
10
103.1112
20
131.8586
0
VERTEX
8
CUT
10
106.5908
20
132.6560
0
VERTEX
8
CUT
10
106.8224
20
132.7209
0
VERTEX
8
CUT
10
110.0523
20
133.7967
0
VERTEX
8
CUT
10
110.2416
20
133.8684
0
VERTEX
8
CUT
10
110.4245
20
133.9552
0
VERTEX
8
CUT
10
116.1669
20
136.9706
0
VERTEX
8
CUT
10
116.3845
20
137.0993
0
VERTEX
8
CUT
10
116.5881
20
137.2494
0
VERTEX
8
CUT
10
119.7553
20
139.8418
0
VERTEX
8
CUT
10
119.9484
20
140.0175
0
VERTEX
8
CUT
10
120.8489
20
140.9270
0
VERTEX
8
CUT
10
121.0104
20
141.1067
0
VERTEX
8
CUT
10
121.1538
20
141.3012
0
VERTEX
8
CUT
10
121.2777
20
141.5086
0
VERTEX
8
CUT
10
121.3811
20
141.7269
0
VERTEX
8
CUT
10
121.4629
20
141.9543
0
VERTEX
8
CUT
10
121.5223
20
142.1885
0
VERTEX
8
CUT
10
121.5589
20
142.4273
0
VERTEX
8
CUT
10
121.5723
20
142.6685
0
VERTEX
8
CUT
10
121.5623
20
142.9099
0
VERTEX
8
CUT
10
121.5290
20
143.1492
0
VERTEX
8
CUT
10
121.4728
20
143.3842
0
VERTEX
8
CUT
10
121.3942
20
143.6127
0
VERTEX
8
CUT
10
121.2939
20
143.8325
0
VERTEX
8
CUT
10
121.1729
20
144.0416
0
VERTEX
8
CUT
10
121.0322
20
144.2380
0
VERTEX
8
CUT
10
120.8732
20
144.4199
0
VERTEX
8
CUT
10
120.6974
20
144.5857
0
VERTEX
8
CUT
10
120.5065
20
144.7337
0
VERTEX
8
CUT
10
120.3021
20
144.8626
0
VERTEX
8
CUT
10
120.0863
20
144.9711
0
VERTEX
8
CUT
10
119.8609
20
145.0583
0
VERTEX
8
CUT
10
119.6283
20
145.1234
0
VERTEX
8
CUT
10
119.3904
20
145.1656
0
VERTEX
8
CUT
10
119.1495
20
145.1848
0
VERTEX
8
CUT
10
118.9080
20
145.1805
0
VERTEX
8
CUT
10
118.6679
20
145.1530
0
VERTEX
8
CUT
10
118.4317
20
145.1025
0
VERTEX
8
CUT
10
118.2014
20
145.0293
0
VERTEX
8
CUT
10
117.7602
20
144.8654
0
VERTEX
8
CUT
10
117.7423
20
144.8592
0
VERTEX
8
CUT
10
117.7052
20
144.8494
0
VERTEX
8
CUT
10
117.6764
20
144.8747
0
VERTEX
8
CUT
10
117.6631
20
144.8882
0
VERTEX
8
CUT
10
117.1204
20
145.4674
0
VERTEX
8
CUT
10
117.1068
20
145.4827
0
VERTEX
8
CUT
10
117.0815
20
145.5161
0
VERTEX
8
CUT
10
117.0762
20
145.5577
0
VERTEX
8
CUT
10
117.0752
20
145.5781
0
VERTEX
8
CUT
10
116.9923
20
149.4140
0
VERTEX
8
CUT
10
116.9715
20
149.6864
0
VERTEX
8
CUT
10
116.9211
20
149.9549
0
VERTEX
8
CUT
10
116.1970
20
152.9099
0
VERTEX
8
CUT
10
116.1357
20
153.1198
0
VERTEX
8
CUT
10
116.0563
20
153.3235
0
VERTEX
8
CUT
10
115.9595
20
153.5195
0
VERTEX
8
CUT
10
114.5112
20
156.1532
0
VERTEX
8
CUT
10
114.3909
20
156.3499
0
VERTEX
8
CUT
10
114.2530
20
156.5346
0
VERTEX
8
CUT
10
114.0987
20
156.7059
0
VERTEX
8
CUT
10
112.0669
20
158.7617
0
VERTEX
8
CUT
10
111.8667
20
158.9435
0
VERTEX
8
CUT
10
111.6479
20
159.1026
0
VERTEX
8
CUT
10
110.5698
20
159.8010
0
VERTEX
8
CUT
10
110.3821
20
159.9113
0
VERTEX
8
CUT
10
110.1856
20
160.0048
0
VERTEX
8
CUT
10
109.9817
20
160.0809
0
VERTEX
8
CUT
10
109.6563
20
160.1863
0
VERTEX
8
CUT
10
109.4204
20
160.2503
0
VERTEX
8
CUT
10
109.1794
20
160.2908
0
VERTEX
8
CUT
10
108.9356
20
160.3077
0
VERTEX
8
CUT
10
108.3891
20
160.3187
0
VERTEX
8
CUT
10
108.1360
20
160.3110
0
VERTEX
8
CUT
10
107.8849
20
160.2776
0
VERTEX
8
CUT
10
106.6788
20
160.0550
0
VERTEX
8
CUT
10
106.4594
20
160.0041
0
VERTEX
8
CUT
10
106.2454
20
159.9338
0
VERTEX
8
CUT
10
106.0387
20
159.8444
0
VERTEX
8
CUT
10
105.8408
20
159.7369
0
VERTEX
8
CUT
10
105.6534
20
159.6119
0
VERTEX
8
CUT
10
105.4780
20
159.4706
0
VERTEX
8
CUT
10
103.4172
20
157.6511
0
VERTEX
8
CUT
10
103.2382
20
157.4764
0
VERTEX
8
CUT
10
103.0776
20
157.2847
0
VERTEX
8
CUT
10
101.6571
20
155.4058
0
VERTEX
8
CUT
10
101.5327
20
155.2254
0
VERTEX
8
CUT
10
101.4247
20
155.0348
0
VERTEX
8
CUT
10
101.3337
20
154.8354
0
VERTEX
8
CUT
10
101.2605
20
154.6289
0
VERTEX
8
CUT
10
100.5371
20
152.2621
0
VERTEX
8
CUT
10
100.4761
20
152.0201
0
VERTEX
8
CUT
10
100.4396
20
151.7733
0
VERTEX
8
CUT
10
100.4279
20
151.5240
0
VERTEX
8
CUT
10
100.4411
20
151.2749
0
VERTEX
8
CUT
10
100.4790
20
151.0283
0
VERTEX
8
CUT
10
100.5414
20
150.7867
0
VERTEX
8
CUT
10
100.6275
20
150.5525
0
VERTEX
8
CUT
10
100.7365
20
150.3280
0
VERTEX
8
CUT
10
100.8674
20
150.1156
0
VERTEX
8
CUT
10
101.0188
20
149.9173
0
VERTEX
8
CUT
10
101.1892
20
149.7350
0
VERTEX
8
CUT
10
101.3769
20
149.5706
0
VERTEX
8
CUT
10
101.5800
20
149.4258
0
VERTEX
8
CUT
10
101.7966
20
149.3019
0
VERTEX
8
CUT
10
102.0245
20
149.2002
0
VERTEX
8
CUT
10
102.2614
20
149.1218
0
VERTEX
8
CUT
10
102.5049
20
149.0674
0
VERTEX
8
CUT
10
102.7526
20
149.0375
0
VERTEX
8
CUT
10
102.8080
20
149.0336
0
VERTEX
8
CUT
10
103.3260
20
148.9856
0
VERTEX
8
CUT
10
103.3443
20
148.9835
0
VERTEX
8
CUT
10
103.3815
20
148.9765
0
VERTEX
8
CUT
10
103.4169
20
148.9627
0
VERTEX
8
CUT
10
103.4335
20
148.9549
0
VERTEX
8
CUT
10
104.4763
20
148.4331
0
VERTEX
8
CUT
10
104.4950
20
148.4231
0
VERTEX
8
CUT
10
104.5318
20
148.3995
0
VERTEX
8
CUT
10
104.5660
20
148.3720
0
VERTEX
8
CUT
10
104.5814
20
148.3574
0
VERTEX
8
CUT
10
105.9398
20
146.9989
0
VERTEX
8
CUT
10
105.9517
20
146.9865
0
VERTEX
8
CUT
10
105.9747
20
146.9592
0
VERTEX
8
CUT
10
105.9923
20
146.9286
0
VERTEX
8
CUT
10
106.0000
20
146.9130
0
VERTEX
8
CUT
10
106.2664
20
146.3439
0
VERTEX
8
CUT
10
106.2736
20
146.3276
0
VERTEX
8
CUT
10
106.2862
20
146.2928
0
VERTEX
8
CUT
10
106.2956
20
146.2568
0
VERTEX
8
CUT
10
106.2989
20
146.2398
0
VERTEX
8
CUT
10
106.5655
20
144.6637
0
VERTEX
8
CUT
10
106.5682
20
144.6458
0
VERTEX
8
CUT
10
106.5710
20
144.6087
0
VERTEX
8
CUT
10
106.5569
20
144.5741
0
VERTEX
8
CUT
10
106.5492
20
144.5583
0
VERTEX
8
CUT
10
105.8923
20
143.2849
0
VERTEX
8
CUT
10
105.8820
20
143.2662
0
VERTEX
8
CUT
10
105.8578
20
143.2296
0
VERTEX
8
CUT
10
105.8298
20
143.1957
0
VERTEX
8
CUT
10
105.8150
20
143.1805
0
VERTEX
8
CUT
10
104.6162
20
142.0126
0
VERTEX
8
CUT
10
104.6018
20
141.9993
0
VERTEX
8
CUT
10
104.5702
20
141.9741
0
VERTEX
8
CUT
10
104.5326
20
141.9593
0
VERTEX
8
CUT
10
104.5138
20
141.9536
0
VERTEX
8
CUT
10
103.3371
20
141.6220
0
VERTEX
8
CUT
10
103.3195
20
141.6175
0
VERTEX
8
CUT
10
103.2367
20
141.6022
0
VERTEX
8
CUT
10
102.9996
20
141.5462
0
VERTEX
8
CUT
10
102.7690
20
141.4675
0
VERTEX
8
CUT
10
102.5472
20
141.3666
0
VERTEX
8
CUT
10
102.3363
20
141.2447
0
VERTEX
8
CUT
10
102.1382
20
141.1028
0
VERTEX
8
CUT
10
101.9549
20
140.9423
0
VERTEX
8
CUT
10
101.7881
20
140.7647
0
VERTEX
8
CUT
10
101.6393
20
140.5717
0
VERTEX
8
CUT
10
101.5604
20
140.4456
0
VERTEX
8
CUT
10
101.5106
20
140.3738
0
VERTEX
8
CUT
10
101.4987
20
140.3591
0
VERTEX
8
CUT
10
101.0641
20
139.8467
0
VERTEX
8
CUT
10
101.0503
20
139.8313
0
VERTEX
8
CUT
10
101.0195
20
139.8019
0
VERTEX
8
CUT
10
100.9833
20
139.7795
0
VERTEX
8
CUT
10
100.9649
20
139.7700
0
VERTEX
8
CUT
10
100.6171
20
139.6026
0
VERTEX
8
CUT
10
100.6008
20
139.5952
0
VERTEX
8
CUT
10
100.5663
20
139.5823
0
VERTEX
8
CUT
10
100.5294
20
139.5791
0
VERTEX
8
CUT
10
100.5120
20
139.5787
0
VERTEX
8
CUT
10
99.0859
20
139.5840
0
VERTEX
8
CUT
10
99.0678
20
139.5845
0
VERTEX
8
CUT
10
99.0303
20
139.5881
0
VERTEX
8
CUT
10
98.9932
20
139.5951
0
VERTEX
8
CUT
10
98.9762
20
139.5996
0
VERTEX
8
CUT
10
96.8537
20
140.2058
0
VERTEX
8
CUT
10
96.8356
20
140.2115
0
VERTEX
8
CUT
10
96.7627
20
140.2400
0
VERTEX
8
CUT
10
96.7456
20
140.2482
0
VERTEX
8
CUT
10
94.5189
20
141.3755
0
VERTEX
8
CUT
10
94.5012
20
141.3850
0
VERTEX
8
CUT
10
94.4661
20
141.4076
0
VERTEX
8
CUT
10
94.4334
20
141.4335
0
VERTEX
8
CUT
10
94.4187
20
141.4473
0
VERTEX
8
CUT
10
92.9932
20
142.8413
0
VERTEX
8
CUT
10
92.9790
20
142.8559
0
VERTEX
8
CUT
10
92.9520
20
142.8884
0
VERTEX
8
CUT
10
92.9285
20
142.9234
0
VERTEX
8
CUT
10
92.9185
20
142.9412
0
VERTEX
8
CUT
10
91.9601
20
144.7493
0
VERTEX
8
CUT
10
91.9576
20
144.7541
0
VERTEX
8
CUT
10
91.9377
20
144.8000
0
VERTEX
8
CUT
10
91.9297
20
144.8238
0
VERTEX
8
CUT
10
91.9234
20
144.8470
0
VERTEX
8
CUT
10
91.6296
20
146.0387
0
VERTEX
8
CUT
10
91.6247
20
146.0613
0
VERTEX
8
CUT
10
91.6127
20
146.1563
0
VERTEX
8
CUT
10
91.6119
20
146.1794
0
VERTEX
8
CUT
10
91.5840
20
149.4319
0
VERTEX
8
CUT
10
91.5843
20
149.4520
0
VERTEX
8
CUT
10
91.5882
20
149.4933
0
VERTEX
8
CUT
10
91.5962
20
149.5340
0
VERTEX
8
CUT
10
91.6015
20
149.5533
0
VERTEX
8
CUT
10
91.6046
20
149.5634
0
VERTEX
8
CUT
10
91.6644
20
149.8012
0
VERTEX
8
CUT
10
91.7006
20
150.0437
0
VERTEX
8
CUT
10
91.7129
20
150.2885
0
VERTEX
8
CUT
10
91.7011
20
150.5334
0
VERTEX
8
CUT
10
91.6654
20
150.7760
0
VERTEX
8
CUT
10
91.6061
20
151.0139
0
VERTEX
8
CUT
10
91.5238
20
151.2448
0
VERTEX
8
CUT
10
91.4193
20
151.4666
0
VERTEX
8
CUT
10
91.2936
20
151.6771
0
VERTEX
8
CUT
10
91.1478
20
151.8742
0
VERTEX
8
CUT
10
90.9834
20
152.0562
0
VERTEX
8
CUT
10
90.8020
20
152.2211
0
VERTEX
8
CUT
10
90.6053
20
152.3675
0
VERTEX
8
CUT
10
90.3953
20
152.4939
0
VERTEX
8
CUT
10
90.1738
20
152.5991
0
VERTEX
8
CUT
10
89.9431
20
152.6821
0
VERTEX
8
CUT
10
89.7054
20
152.7422
0
VERTEX
8
CUT
10
89.4630
20
152.7786
0
VERTEX
8
CUT
10
89.2181
20
152.7912
0
VERTEX
8
CUT
10
88.9732
20
152.7797
0
VERTEX
8
CUT
10
88.7306
20
152.7442
0
VERTEX
8
CUT
10
88.4926
20
152.6852
0
VERTEX
8
CUT
10
88.2616
20
152.6031
0
VERTEX
8
CUT
10
88.0397
20
152.4988
0
VERTEX
8
CUT
10
87.8291
20
152.3733
0
VERTEX
8
CUT
10
87.6318
20
152.2277
0
VERTEX
8
CUT
10
87.4497
20
152.0635
0
VERTEX
8
CUT
10
86.7555
20
151.3729
0
VERTEX
8
CUT
10
86.7416
20
151.3597
0
VERTEX
8
CUT
10
86.7109
20
151.3346
0
VERTEX
8
CUT
10
86.6760
20
151.3160
0
VERTEX
8
CUT
10
86.6585
20
151.3081
0
VERTEX
8
CUT
10
84.5761
20
150.4412
0
VERTEX
8
CUT
10
84.5577
20
150.4341
0
VERTEX
8
CUT
10
84.5188
20
150.4223
0
VERTEX
8
CUT
10
84.4783
20
150.4184
0
VERTEX
8
CUT
10
84.4586
20
150.4180
0
VERTEX
8
CUT
10
80.5663
20
150.4359
0
VERTEX
8
CUT
10
80.5462
20
150.4365
0
VERTEX
8
CUT
10
80.5049
20
150.4409
0
VERTEX
8
CUT
10
80.4653
20
150.4536
0
VERTEX
8
CUT
10
80.4466
20
150.4612
0
VERTEX
8
CUT
10
77.9197
20
151.5669
0
VERTEX
8
CUT
10
77.9011
20
151.5756
0
VERTEX
8
CUT
10
77.8269
20
151.6177
0
VERTEX
8
CUT
10
77.8098
20
151.6293
0
VERTEX
8
CUT
10
76.6520
20
152.4555
0
VERTEX
8
CUT
10
76.6382
20
152.4659
0
VERTEX
8
CUT
10
76.5837
20
152.5123
0
VERTEX
8
CUT
10
76.5713
20
152.5244
0
VERTEX
8
CUT
10
74.5006
20
154.6297
0
VERTEX
8
CUT
10
74.4881
20
154.6430
0
VERTEX
8
CUT
10
74.4403
20
154.7014
0
VERTEX
8
CUT
10
74.4298
20
154.7163
0
VERTEX
8
CUT
10
72.6592
20
157.3394
0
VERTEX
8
CUT
10
72.6165
20
157.4075
0
VERTEX
8
CUT
10
72.5783
20
157.4782
0
VERTEX
8
CUT
10
71.4821
20
159.6776
0
VERTEX
8
CUT
10
71.4465
20
159.7557
0
VERTEX
8
CUT
10
71.4165
20
159.8362
0
VERTEX
8
CUT
10
70.0022
20
164.0764
0
VERTEX
8
CUT
10
69.9867
20
164.1264
0
VERTEX
8
CUT
10
69.9734
20
164.1770
0
VERTEX
8
CUT
10
69.0352
20
168.0705
0
VERTEX
8
CUT
10
68.9910
20
168.2303
0
VERTEX
8
CUT
10
67.5938
20
172.7023
0
VERTEX
8
CUT
10
67.4767
20
173.0061
0
VERTEX
8
CUT
10
66.2521
20
175.6545
0
VERTEX
8
CUT
10
66.1317
20
175.8830
0
VERTEX
8
CUT
10
65.9884
20
176.0979
0
VERTEX
8
CUT
10
65.8236
20
176.2969
0
VERTEX
8
CUT
10
65.6392
20
176.4778
0
VERTEX
8
CUT
10
63.6170
20
178.2664
0
VERTEX
8
CUT
10
63.4020
20
178.4365
0
VERTEX
8
CUT
10
60.6913
20
180.3492
0
VERTEX
8
CUT
10
60.4923
20
180.4760
0
VERTEX
8
CUT
10
60.2823
20
180.5834
0
VERTEX
8
CUT
10
57.6112
20
181.7945
0
VERTEX
8
CUT
10
57.3911
20
181.8820
0
VERTEX
8
CUT
10
57.1637
20
181.9483
0
VERTEX
8
CUT
10
56.9311
20
181.9927
0
VERTEX
8
CUT
10
55.2555
20
182.2311
0
VERTEX
8
CUT
10
55.0436
20
182.2521
0
VERTEX
8
CUT
10
54.8306
20
182.2550
0
VERTEX
8
CUT
10
51.6571
20
182.1627
0
VERTEX
8
CUT
10
51.4151
20
182.1439
0
VERTEX
8
CUT
10
51.1761
20
182.1017
0
VERTEX
8
CUT
10
50.9424
20
182.0365
0
VERTEX
8
CUT
10
50.7160
20
181.9490
0
VERTEX
8
CUT
10
50.4992
20
181.8400
0
VERTEX
8
CUT
10
50.2940
20
181.7104
0
VERTEX
8
CUT
10
50.1024
20
181.5616
0
VERTEX
8
CUT
10
50.0759
20
181.5388
0
VERTEX
8
CUT
10
49.8927
20
181.3650
0
VERTEX
8
CUT
10
49.7280
20
181.1735
0
VERTEX
8
CUT
10
48.8249
20
180.0094
0
VERTEX
8
CUT
10
48.7221
20
179.8668
0
VERTEX
8
CUT
10
45.9015
20
175.6493
0
VERTEX
8
CUT
10
45.7955
20
175.4759
0
VERTEX
8
CUT
10
45.7039
20
175.2945
0
VERTEX
8
CUT
10
44.4066
20
172.4420
0
VERTEX
8
CUT
10
44.3105
20
172.1973
0
SEQEND
0
POLYLINE
8
CUT
66
1
70
1
10
0.0
20
0.0
30
0.0
0
VERTEX
8
CUT
10
39.0820
20
33.4599
0
VERTEX
8
CUT
10
39.0955
20
33.2136
0
VERTEX
8
CUT
10
39.1332
20
32.9699
0
VERTEX
8
CUT
10
39.1947
20
32.7311
0
VERTEX
8
CUT
10
39.2675
20
32.5320
0
VERTEX
8
CUT
10
39.2879
20
32.4718
0
VERTEX
8
CUT
10
39.2970
20
32.4323
0
VERTEX
8
CUT
10
39.3000
20
32.4130
0
VERTEX
8
CUT
10
39.5922
20
30.1459
0
VERTEX
8
CUT
10
39.6376
20
29.8950
0
VERTEX
8
CUT
10
39.7084
20
29.6500
0
VERTEX
8
CUT
10
39.8038
20
29.4135
0
VERTEX
8
CUT
10
39.8527
20
29.3081
0
VERTEX
8
CUT
10
39.8602
20
29.2907
0
VERTEX
8
CUT
10
39.8732
20
29.2538
0
VERTEX
8
CUT
10
39.8789
20
29.2151
0
VERTEX
8
CUT
10
39.8803
20
29.1962
0
VERTEX
8
CUT
10
39.9155
20
28.5073
0
VERTEX
8
CUT
10
39.9423
20
28.2483
0
VERTEX
8
CUT
10
39.9960
20
27.9934
0
VERTEX
8
CUT
10
40.0758
20
27.7455
0
VERTEX
8
CUT
10
40.1810
20
27.5073
0
VERTEX
8
CUT
10
41.2457
20
25.4002
0
VERTEX
8
CUT
10
41.3794
20
25.1676
0
VERTEX
8
CUT
10
41.5373
20
24.9506
0
VERTEX
8
CUT
10
41.7176
20
24.7517
0
VERTEX
8
CUT
10
43.1998
20
23.2833
0
VERTEX
8
CUT
10
43.3667
20
23.1323
0
VERTEX
8
CUT
10
43.5464
20
22.9969
0
VERTEX
8
CUT
10
43.7376
20
22.8782
0
VERTEX
8
CUT
10
43.9387
20
22.7772
0
VERTEX
8
CUT
10
45.6668
20
22.0044
0
VERTEX
8
CUT
10
45.8782
20
21.9211
0
VERTEX
8
CUT
10
46.0964
20
21.8574
0
VERTEX
8
CUT
10
46.3194
20
21.8138
0
VERTEX
8
CUT
10
46.5454
20
21.7906
0
VERTEX
8
CUT
10
47.3407
20
21.7454
0
VERTEX
8
CUT
10
47.3579
20
21.7440
0
VERTEX
8
CUT
10
47.3933
20
21.7389
0
VERTEX
8
CUT
10
47.4269
20
21.7278
0
VERTEX
8
CUT
10
47.4432
20
21.7213
0
VERTEX
8
CUT
10
47.4709
20
21.7094
0
VERTEX
8
CUT
10
47.7098
20
21.6208
0
VERTEX
8
CUT
10
47.9565
20
21.5570
0
VERTEX
8
CUT
10
48.2085
20
21.5187
0
VERTEX
8
CUT
10
48.4630
20
21.5062
0
VERTEX
8
CUT
10
49.2436
20
21.5078
0
VERTEX
8
CUT
10
49.4945
20
21.5209
0
VERTEX
8
CUT
10
49.7428
20
21.5592
0
VERTEX
8
CUT
10
49.9861
20
21.6221
0
VERTEX
8
CUT
10
51.2144
20
22.0070
0
VERTEX
8
CUT
10
51.2373
20
22.0135
0
VERTEX
8
CUT
10
51.3343
20
22.0315
0
VERTEX
8
CUT
10
51.3580
20
22.0337
0
VERTEX
8
CUT
10
51.8852
20
22.0673
0
VERTEX
8
CUT
10
52.1428
20
22.0972
0
VERTEX
8
CUT
10
52.3959
20
22.1536
0
VERTEX
8
CUT
10
52.6418
20
22.2359
0
VERTEX
8
CUT
10
55.0725
20
23.1925
0
VERTEX
8
CUT
10
55.2415
20
23.2663
0
VERTEX
8
CUT
10
55.4046
20
23.3524
0
VERTEX
8
CUT
10
59.2730
20
25.5800
0
VERTEX
8
CUT
10
59.5167
20
25.7399
0
VERTEX
8
CUT
10
64.9399
20
29.7705
0
VERTEX
8
CUT
10
65.1274
20
29.9244
0
VERTEX
8
CUT
10
71.6358
20
35.8219
0
VERTEX
8
CUT
10
71.7539
20
35.9362
0
VERTEX
8
CUT
10
81.3378
20
45.8434
0
VERTEX
8
CUT
10
81.3811
20
45.8893
0
VERTEX
8
CUT
10
101.4955
20
67.7615
0
VERTEX
8
CUT
10
101.5512
20
67.8241
0
VERTEX
8
CUT
10
108.6734
20
76.1093
0
VERTEX
8
CUT
10
108.8504
20
76.3412
0
VERTEX
8
CUT
10
111.6214
20
80.4507
0
VERTEX
8
CUT
10
111.7878
20
80.7365
0
VERTEX
8
CUT
10
113.3827
20
83.9484
0
VERTEX
8
CUT
10
113.4692
20
84.1431
0
VERTEX
8
CUT
10
113.5388
20
84.3444
0
VERTEX
8
CUT
10
114.3130
20
86.9345
0
VERTEX
8
CUT
10
114.3903
20
87.2812
0
VERTEX
8
CUT
10
114.6503
20
89.0223
0
VERTEX
8
CUT
10
114.6736
20
89.2477
0
VERTEX
8
CUT
10
114.6764
20
89.4743
0
VERTEX
8
CUT
10
114.6312
20
90.8387
0
VERTEX
8
CUT
10
114.6130
20
91.0674
0
VERTEX
8
CUT
10
114.5741
20
91.2935
0
VERTEX
8
CUT
10
114.5145
20
91.5150
0
VERTEX
8
CUT
10
114.4349
20
91.7301
0
VERTEX
8
CUT
10
114.3359
20
91.9371
0
VERTEX
8
CUT
10
114.2184
20
92.1341
0
VERTEX
8
CUT
10
113.0683
20
93.8748
0
VERTEX
8
CUT
10
112.9285
20
94.0660
0
VERTEX
8
CUT
10
112.7712
20
94.2432
0
VERTEX
8
CUT
10
112.5979
20
94.4047
0
VERTEX
8
CUT
10
112.4100
20
94.5490
0
VERTEX
8
CUT
10
112.3338
20
94.6021
0
VERTEX
8
CUT
10
112.1201
20
94.7352
0
VERTEX
8
CUT
10
111.8941
20
94.8463
0
VERTEX
8
CUT
10
111.6580
20
94.9340
0
VERTEX
8
CUT
10
111.4144
20
94.9975
0
VERTEX
8
CUT
10
111.1656
20
95.0362
0
VERTEX
8
CUT
10
110.9141
20
95.0497
0
VERTEX
8
CUT
10
109.8783
20
95.0530
0
VERTEX
8
CUT
10
109.6173
20
95.0402
0
VERTEX
8
CUT
10
109.3591
20
95.0002
0
VERTEX
8
CUT
10
109.1065
20
94.9335
0
VERTEX
8
CUT
10
108.8622
20
94.8407
0
VERTEX
8
CUT
10
106.9560
20
94.0007
0
VERTEX
8
CUT
10
106.9510
20
93.9986
0
VERTEX
8
CUT
10
106.9038
20
93.9820
0
VERTEX
8
CUT
10
106.8795
20
93.9758
0
VERTEX
8
CUT
10
106.8560
20
93.9712
0
VERTEX
8
CUT
10
104.8352
20
93.6255
0
VERTEX
8
CUT
10
104.6235
20
93.5798
0
VERTEX
8
CUT
10
104.4166
20
93.5159
0
VERTEX
8
CUT
10
100.6611
20
92.1759
0
VERTEX
8
CUT
10
100.3834
20
92.0575
0
VERTEX
8
CUT
10
97.7238
20
90.7280
0
VERTEX
8
CUT
10
97.4943
20
90.5977
0
VERTEX
8
CUT
10
94.5277
20
88.6998
0
VERTEX
8
CUT
10
94.2623
20
88.5042
0
VERTEX
8
CUT
10
90.3376
20
85.1910
0
VERTEX
8
CUT
10
90.1934
20
85.0592
0
VERTEX
8
CUT
10
90.0599
20
84.9166
0
VERTEX
8
CUT
10
88.1324
20
82.6894
0
VERTEX
8
CUT
10
87.9483
20
82.4487
0
VERTEX
8
CUT
10
87.7947
20
82.1874
0
VERTEX
8
CUT
10
87.4821
20
81.5733
0
VERTEX
8
CUT
10
87.3628
20
81.2993
0
VERTEX
8
CUT
10
87.2769
20
81.0131
0
VERTEX
8
CUT
10
86.9431
20
79.5973
0
VERTEX
8
CUT
10
86.9384
20
79.5792
0
VERTEX
8
CUT
10
86.9260
20
79.5427
0
VERTEX
8
CUT
10
86.9070
20
79.5091
0
VERTEX
8
CUT
10
86.8966
20
79.4935
0
VERTEX
8
CUT
10
86.3189
20
78.6665
0
VERTEX
8
CUT
10
86.1960
20
78.4722
0
VERTEX
8
CUT
10
86.0916
20
78.2675
0
VERTEX
8
CUT
10
86.0063
20
78.0540
0
VERTEX
8
CUT
10
85.9411
20
77.8337
0
VERTEX
8
CUT
10
85.8963
20
77.6082
0
VERTEX
8
CUT
10
85.8725
20
77.3796
0
VERTEX
8
CUT
10
85.7841
20
75.8571
0
VERTEX
8
CUT
10
85.7823
20
75.8363
0
VERTEX
8
CUT
10
85.7753
20
75.7938
0
VERTEX
8
CUT
10
85.7595
20
75.7537
0
VERTEX
8
CUT
10
85.7503
20
75.7349
0
VERTEX
8
CUT
10
85.5165
20
75.2875
0
VERTEX
8
CUT
10
85.4183
20
75.0760
0
VERTEX
8
CUT
10
85.3402
20
74.8563
0
VERTEX
8
CUT
10
85.2829
20
74.6303
0
VERTEX
8
CUT
10
85.2469
20
74.3999
0
VERTEX
8
CUT
10
85.2195
20
74.1471
0
VERTEX
8
CUT
10
85.2166
20
74.1260
0
VERTEX
8
CUT
10
85.1978
20
74.0401
0
VERTEX
8
CUT
10
85.1917
20
74.0198
0
VERTEX
8
CUT
10
84.3428
20
71.4767
0
VERTEX
8
CUT
10
84.3359
20
71.4576
0
VERTEX
8
CUT
10
84.3186
20
71.4194
0
VERTEX
8
CUT
10
84.2975
20
71.3832
0
VERTEX
8
CUT
10
84.2860
20
71.3664
0
VERTEX
8
CUT
10
84.0526
20
71.0461
0
VERTEX
8
CUT
10
83.9104
20
70.8278
0
VERTEX
8
CUT
10
83.7917
20
70.5960
0
VERTEX
8
CUT
10
83.6977
20
70.3530
0
VERTEX
8
CUT
10
83.6215
20
70.1206
0
VERTEX
8
CUT
10
83.5653
20
69.9218
0
VERTEX
8
CUT
10
83.5257
20
69.7191
0
VERTEX
8
CUT
10
83.5030
20
69.5138
0
VERTEX
8
CUT
10
83.4579
20
68.8604
0
VERTEX
8
CUT
10
83.4564
20
68.8437
0
VERTEX
8
CUT
10
83.4511
20
68.8095
0
VERTEX
8
CUT
10
83.4429
20
68.7756
0
VERTEX
8
CUT
10
83.4381
20
68.7600
0
VERTEX
8
CUT
10
82.5809
20
66.1897
0
VERTEX
8
CUT
10
82.5611
20
66.1347
0
VERTEX
8
CUT
10
82.5387
20
66.0808
0
VERTEX
8
CUT
10
81.4373
20
63.5962
0
VERTEX
8
CUT
10
81.4289
20
63.5784
0
VERTEX
8
CUT
10
81.3889
20
63.5079
0
VERTEX
8
CUT
10
81.3780
20
63.4916
0
VERTEX
8
CUT
10
80.6983
20
62.5283
0
VERTEX
8
CUT
10
80.5641
20
62.3163
0
VERTEX
8
CUT
10
80.4518
20
62.0918
0
VERTEX
8
CUT
10
80.3626
20
61.8573
0
VERTEX
8
CUT
10
80.2973
20
61.6150
0
VERTEX
8
CUT
10
80.2567
20
61.3673
0
VERTEX
8
CUT
10
80.1982
20
60.8490
0
VERTEX
8
CUT
10
80.1956
20
60.8301
0
VERTEX
8
CUT
10
80.1875
20
60.7919
0
VERTEX
8
CUT
10
80.1723
20
60.7558
0
VERTEX
8
CUT
10
80.1636
20
60.7389
0
VERTEX
8
CUT
10
78.1639
20
57.0438
0
VERTEX
8
CUT
10
78.1554
20
57.0290
0
VERTEX
8
CUT
10
78.1168
20
56.9703
0
VERTEX
8
CUT
10
78.1066
20
56.9567
0
VERTEX
8
CUT
10
76.7084
20
55.1806
0
VERTEX
8
CUT
10
76.5826
20
55.0059
0
VERTEX
8
CUT
10
76.4723
20
54.8209
0
VERTEX
8
CUT
10
76.3783
20
54.6272
0
VERTEX
8
CUT
10
75.5413
20
52.6932
0
VERTEX
8
CUT
10
75.5334
20
52.6761
0
VERTEX
8
CUT
10
75.5147
20
52.6421
0
VERTEX
8
CUT
10
75.4929
20
52.6101
0
VERTEX
8
CUT
10
75.4812
20
52.5953
0
VERTEX
8
CUT
10
73.3768
20
50.0582
0
VERTEX
8
CUT
10
73.2569
20
49.9014
0
VERTEX
8
CUT
10
70.2107
20
45.5747
0
VERTEX
8
CUT
10
70.1785
20
45.5311
0
VERTEX
8
CUT
10
70.1445
20
45.4889
0
VERTEX
8
CUT
10
66.9781
20
41.7444
0
VERTEX
8
CUT
10
66.9466
20
41.7086
0
VERTEX
8
CUT
10
66.9137
20
41.6740
0
VERTEX
8
CUT
10
62.5110
20
37.2226
0
VERTEX
8
CUT
10
62.5000
20
37.2117
0
VERTEX
8
CUT
10
62.4755
20
37.1882
0
VERTEX
8
CUT
10
61.0597
20
35.8596
0
VERTEX
8
CUT
10
60.9975
20
35.8051
0
VERTEX
8
CUT
10
60.9318
20
35.7549
0
VERTEX
8
CUT
10
58.1497
20
33.7755
0
VERTEX
8
CUT
10
58.1456
20
33.7727
0
VERTEX
8
CUT
10
58.0817
20
33.7338
0
VERTEX
8
CUT
10
58.0661
20
33.7255
0
VERTEX
8
CUT
10
56.3416
20
32.8573
0
VERTEX
8
CUT
10
56.3367
20
32.8550
0
VERTEX
8
CUT
10
56.2902
20
32.8359
0
VERTEX
8
CUT
10
56.2661
20
32.8284
0
VERTEX
8
CUT
10
56.2427
20
32.8226
0
VERTEX
8
CUT
10
53.5135
20
32.2137
0
VERTEX
8
CUT
10
53.4967
20
32.2103
0
VERTEX
8
CUT
10
53.4617
20
32.2056
0
VERTEX
8
CUT
10
53.4267
20
32.2070
0
VERTEX
8
CUT
10
53.4095
20
32.2088
0
VERTEX
8
CUT
10
51.0624
20
32.5048
0
VERTEX
8
CUT
10
51.0417
20
32.5080
0
VERTEX
8
CUT
10
50.9997
20
32.5178
0
VERTEX
8
CUT
10
50.9589
20
32.5321
0
VERTEX
8
CUT
10
50.9398
20
32.5406
0
VERTEX
8
CUT
10
50.3520
20
32.8189
0
VERTEX
8
CUT
10
50.3354
20
32.8272
0
VERTEX
8
CUT
10
50.2694
20
32.8664
0
VERTEX
8
CUT
10
50.2542
20
32.8770
0
VERTEX
8
CUT
10
49.1029
20
33.7143
0
VERTEX
8
CUT
10
49.0986
20
33.7176
0
VERTEX
8
CUT
10
49.0369
20
33.7702
0
VERTEX
8
CUT
10
49.0232
20
33.7835
0
VERTEX
8
CUT
10
47.3230
20
35.5121
0
VERTEX
8
CUT
10
47.3110
20
35.5248
0
VERTEX
8
CUT
10
47.2881
20
35.5526
0
VERTEX
8
CUT
10
47.2706
20
35.5836
0
VERTEX
8
CUT
10
47.2630
20
35.5995
0
VERTEX
8
CUT
10
46.3053
20
37.7113
0
VERTEX
8
CUT
10
46.2962
20
37.7332
0
VERTEX
8
CUT
10
46.2666
20
37.8268
0
VERTEX
8
CUT
10
46.2615
20
37.8500
0
VERTEX
8
CUT
10
45.9577
20
39.4580
0
VERTEX
8
CUT
10
45.9547
20
39.4760
0
VERTEX
8
CUT
10
45.9475
20
39.5510
0
VERTEX
8
CUT
10
45.9470
20
39.5692
0
VERTEX
8
CUT
10
45.9393
20
41.7282
0
VERTEX
8
CUT
10
45.9399
20
41.7519
0
VERTEX
8
CUT
10
45.9512
20
41.8492
0
VERTEX
8
CUT
10
45.9561
20
41.8723
0
VERTEX
8
CUT
10
46.4409
20
43.8979
0
VERTEX
8
CUT
10
46.4822
20
44.1109
0
VERTEX
8
CUT
10
46.5048
20
44.3267
0
VERTEX
8
CUT
10
46.5475
20
45.0217
0
VERTEX
8
CUT
10
46.5493
20
45.0421
0
VERTEX
8
CUT
10
46.5562
20
45.0838
0
VERTEX
8
CUT
10
46.5674
20
45.1247
0
VERTEX
8
CUT
10
46.5744
20
45.1439
0
VERTEX
8
CUT
10
47.1476
20
46.6155
0
VERTEX
8
CUT
10
47.1780
20
46.6869
0
VERTEX
8
CUT
10
47.2130
20
46.7562
0
VERTEX
8
CUT
10
49.1924
20
50.3934
0
VERTEX
8
CUT
10
49.2030
20
50.4118
0
VERTEX
8
CUT
10
49.2530
20
50.4840
0
VERTEX
8
CUT
10
49.2664
20
50.5005
0
VERTEX
8
CUT
10
50.0645
20
51.4251
0
VERTEX
8
CUT
10
50.1936
20
51.5879
0
VERTEX
8
CUT
10
50.3088
20
51.7608
0
VERTEX
8
CUT
10
50.4092
20
51.9427
0
VERTEX
8
CUT
10
51.2516
20
53.6316
0
VERTEX
8
CUT
10
51.2611
20
53.6495
0
VERTEX
8
CUT
10
51.3060
20
53.7203
0
VERTEX
8
CUT
10
51.3182
20
53.7366
0
VERTEX
8
CUT
10
52.8368
20
55.6664
0
VERTEX
8
CUT
10
52.9510
20
55.8238
0
VERTEX
8
CUT
10
56.3469
20
60.9077
0
VERTEX
8
CUT
10
56.5044
20
61.1789
0
VERTEX
8
CUT
10
57.5184
20
63.2084
0
VERTEX
8
CUT
10
57.6542
20
63.5366
0
VERTEX
8
CUT
10
58.4129
20
65.8169
0
VERTEX
8
CUT
10
58.4681
20
66.0081
0
VERTEX
8
CUT
10
58.5080
20
66.2031
0
VERTEX
8
CUT
10
58.7480
20
67.6724
0
VERTEX
8
CUT
10
58.7727
20
67.8747
0
VERTEX
8
CUT
10
58.7807
20
68.0784
0
VERTEX
8
CUT
10
58.7734
20
74.3526
0
VERTEX
8
CUT
10
58.7600
20
74.6078
0
VERTEX
8
CUT
10
58.7207
20
74.8603
0
VERTEX
8
CUT
10
57.0997
20
82.6296
0
VERTEX
8
CUT
10
57.0960
20
82.6498
0
VERTEX
8
CUT
10
57.0874
20
82.7347
0
VERTEX
8
CUT
10
57.0869
20
82.7553
0
VERTEX
8
CUT
10
57.0969
20
88.6011
0
VERTEX
8
CUT
10
57.0973
20
88.6197
0
VERTEX
8
CUT
10
57.1010
20
88.6581
0
VERTEX
8
CUT
10
57.1083
20
88.6959
0
VERTEX
8
CUT
10
57.1131
20
88.7140
0
VERTEX
8
CUT
10
58.5765
20
93.7305
0
VERTEX
8
CUT
10
58.5820
20
93.7476
0
VERTEX
8
CUT
10
58.6091
20
93.8167
0
VERTEX
8
CUT
10
58.6168
20
93.8330
0
VERTEX
8
CUT
10
60.0179
20
96.6304
0
VERTEX
8
CUT
10
60.0487
20
96.6880
0
VERTEX
8
CUT
10
60.0825
20
96.7438
0
VERTEX
8
CUT
10
63.3635
20
101.8514
0
VERTEX
8
CUT
10
63.4948
20
102.0820
0
VERTEX
8
CUT
10
64.2459
20
103.5798
0
VERTEX
8
CUT
10
64.3839
20
103.9132
0
VERTEX
8
CUT
10
65.3801
20
106.9159
0
VERTEX
8
CUT
10
65.4446
20
107.1466
0
VERTEX
8
CUT
10
65.4866
20
107.3824
0
VERTEX
8
CUT
10
65.5059
20
107.6212
0
VERTEX
8
CUT
10
65.5498
20
108.9603
0
VERTEX
8
CUT
10
65.5511
20
108.9818
0
VERTEX
8
CUT
10
65.5637
20
109.0702
0
VERTEX
8
CUT
10
65.5684
20
109.0912
0
VERTEX
8
CUT
10
65.7235
20
109.6988
0
VERTEX
8
CUT
10
65.7676
20
109.9089
0
VERTEX
8
CUT
10
65.7935
20
110.1221
0
VERTEX
8
CUT
10
65.8010
20
110.3367
0
VERTEX
8
CUT
10
65.7901
20
110.5511
0
VERTEX
8
CUT
10
65.5131
20
113.4954
0
VERTEX
8
CUT
10
65.4703
20
113.7768
0
VERTEX
8
CUT
10
65.3959
20
114.0514
0
VERTEX
8
CUT
10
64.6687
20
116.2342
0
VERTEX
8
CUT
10
64.5904
20
116.4387
0
VERTEX
8
CUT
10
64.4945
20
116.6356
0
VERTEX
8
CUT
10
62.6711
20
119.9984
0
VERTEX
8
CUT
10
62.5534
20
120.1937
0
VERTEX
8
CUT
10
62.4183
20
120.3775
0
VERTEX
8
CUT
10
61.3029
20
121.7586
0
VERTEX
8
CUT
10
61.1193
20
121.9620
0
VERTEX
8
CUT
10
60.7859
20
122.2930
0
VERTEX
8
CUT
10
60.6051
20
122.4558
0
VERTEX
8
CUT
10
60.4093
20
122.6002
0
VERTEX
8
CUT
10
60.2005
20
122.7250
0
VERTEX
8
CUT
10
59.9805
20
122.8288
0
VERTEX
8
CUT
10
59.7514
20
122.9108
0
VERTEX
8
CUT
10
59.5155
20
122.9701
0
VERTEX
8
CUT
10
59.2749
20
123.0062
0
VERTEX
8
CUT
10
59.0320
20
123.0188
0
VERTEX
8
CUT
10
58.7889
20
123.0076
0
VERTEX
8
CUT
10
58.5481
20
122.9730
0
VERTEX
8
CUT
10
58.3119
20
122.9150
0
VERTEX
8
CUT
10
58.0823
20
122.8344
0
VERTEX
8
CUT
10
57.8617
20
122.7319
0
VERTEX
8
CUT
10
57.6521
20
122.6084
0
VERTEX
8
CUT
10
57.4555
20
122.4651
0
VERTEX
8
CUT
10
57.2738
20
122.3034
0
VERTEX
8
CUT
10
57.1086
20
122.1248
0
VERTEX
8
CUT
10
56.9616
20
121.9309
0
VERTEX
8
CUT
10
56.8341
20
121.7237
0
VERTEX
8
CUT
10
56.7274
20
121.5051
0
VERTEX
8
CUT
10
56.6424
20
121.2772
0
VERTEX
8
CUT
10
56.5799
20
121.0421
0
VERTEX
8
CUT
10
56.5407
20
120.8020
0
VERTEX
8
CUT
10
56.5249
20
120.5592
0
VERTEX
8
CUT
10
56.5328
20
120.3161
0
VERTEX
8
CUT
10
56.5414
20
120.2499
0
VERTEX
8
CUT
10
56.5530
20
120.1185
0
VERTEX
8
CUT
10
56.5534
20
120.1005
0
VERTEX
8
CUT
10
56.5409
20
116.0263
0
VERTEX
8
CUT
10
56.5405
20
116.0095
0
VERTEX
8
CUT
10
56.5374
20
115.9749
0
VERTEX
8
CUT
10
56.5314
20
115.9406
0
VERTEX
8
CUT
10
56.5276
20
115.9247
0
VERTEX
8
CUT
10
56.0855
20
114.2383
0
VERTEX
8
CUT
10
56.0353
20
113.9998
0
VERTEX
8
CUT
10
56.0085
20
113.7575
0
VERTEX
8
CUT
10
55.9669
20
113.0791
0
VERTEX
8
CUT
10
55.9654
20
113.0621
0
VERTEX
8
CUT
10
55.9602
20
113.0269
0
VERTEX
8
CUT
10
55.9519
20
112.9922
0
VERTEX
8
CUT
10
55.9470
20
112.9763
0
VERTEX
8
CUT
10
55.3754
20
111.2534
0
VERTEX
8
CUT
10
55.3523
20
111.1897
0
VERTEX
8
CUT
10
55.3257
20
111.1274
0
VERTEX
8
CUT
10
52.3077
20
104.5648
0
VERTEX
8
CUT
10
52.1796
20
104.2220
0
VERTEX
8
CUT
10
50.8340
20
99.6214
0
VERTEX
8
CUT
10
50.7757
20
99.3770
0
VERTEX
8
CUT
10
50.7422
20
99.1279
0
VERTEX
8
CUT
10
50.4540
20
95.6814
0
VERTEX
8
CUT
10
50.4454
20
95.4620
0
VERTEX
8
CUT
10
50.4616
20
91.8261
0
VERTEX
8
CUT
10
50.4730
20
91.5985
0
VERTEX
8
CUT
10
50.5051
20
91.3729
0
VERTEX
8
CUT
10
50.5576
20
91.1511
0
VERTEX
8
CUT
10
50.6962
20
90.6654
0
VERTEX
8
CUT
10
50.7007
20
90.6481
0
VERTEX
8
CUT
10
50.7077
20
90.6115
0
VERTEX
8
CUT
10
50.7113
20
90.5743
0
VERTEX
8
CUT
10
50.7118
20
90.5568
0
VERTEX
8
CUT
10
50.7214
20
89.0355
0
VERTEX
8
CUT
10
50.7210
20
89.0141
0
VERTEX
8
CUT
10
50.7165
20
88.9700
0
VERTEX
8
CUT
10
50.7072
20
88.9267
0
VERTEX
8
CUT
10
50.7011
20
88.9062
0
VERTEX
8
CUT
10
50.5845
20
88.5527
0
VERTEX
8
CUT
10
50.5188
20
88.3143
0
VERTEX
8
CUT
10
50.4769
20
88.0705
0
VERTEX
8
CUT
10
50.4594
20
87.8237
0
VERTEX
8
CUT
10
50.4059
20
85.3382
0
VERTEX
8
CUT
10
50.4050
20
85.3186
0
VERTEX
8
CUT
10
50.4001
20
85.2786
0
VERTEX
8
CUT
10
50.3875
20
85.2403
0
VERTEX
8
CUT
10
50.3800
20
85.2222
0
VERTEX
8
CUT
10
50.3697
20
85.1990
0
VERTEX
8
CUT
10
50.2851
20
84.9812
0
VERTEX
8
CUT
10
50.2212
20
84.7565
0
VERTEX
8
CUT
10
50.1786
20
84.5268
0
VERTEX
8
CUT
10
50.1575
20
84.2941
0
VERTEX
8
CUT
10
50.1280
20
83.6125
0
VERTEX
8
CUT
10
50.1269
20
83.5952
0
VERTEX
8
CUT
10
50.1176
20
83.5244
0
VERTEX
8
CUT
10
50.1142
20
83.5074
0
VERTEX
8
CUT
10
49.5300
20
80.8579
0
VERTEX
8
CUT
10
49.5187
20
80.8111
0
VERTEX
8
CUT
10
49.5056
20
80.7649
0
VERTEX
8
CUT
10
45.4254
20
67.3653
0
VERTEX
8
CUT
10
45.4188
20
67.3457
0
VERTEX
8
CUT
10
45.3857
20
67.2671
0
VERTEX
8
CUT
10
45.3762
20
67.2488
0
VERTEX
8
CUT
10
42.6102
20
62.2221
0
VERTEX
8
CUT
10
42.5025
20
62.0013
0
VERTEX
8
CUT
10
42.4169
20
61.7710
0
VERTEX
8
CUT
10
42.3544
20
61.5335
0
VERTEX
8
CUT
10
42.3155
20
61.2910
0
VERTEX
8
CUT
10
42.3006
20
61.0458
0
VERTEX
8
CUT
10
42.3098
20
60.8003
0
VERTEX
8
CUT
10
42.3431
20
60.5569
0
VERTEX
8
CUT
10
42.4001
20
60.3180
0
VERTEX
8
CUT
10
42.4803
20
60.0858
0
VERTEX
8
CUT
10
42.5828
20
59.8626
0
VERTEX
8
CUT
10
42.7509
20
59.5396
0
VERTEX
8
CUT
10
42.7604
20
59.5201
0
VERTEX
8
CUT
10
42.7766
20
59.4785
0
VERTEX
8
CUT
10
42.7833
20
59.4344
0
VERTEX
8
CUT
10
42.7847
20
59.4128
0
VERTEX
8
CUT
10
42.8209
20
58.5285
0
VERTEX
8
CUT
10
42.8212
20
58.5115
0
VERTEX
8
CUT
10
42.8196
20
58.4762
0
VERTEX
8
CUT
10
42.8120
20
58.4421
0
VERTEX
8
CUT
10
42.8072
20
58.4255
0
VERTEX
8
CUT
10
42.0790
20
56.1003
0
VERTEX
8
CUT
10
42.0057
20
55.8042
0
VERTEX
8
CUT
10
41.9691
20
55.5015
0
VERTEX
8
CUT
10
41.9113
20
54.5295
0
VERTEX
8
CUT
10
41.9096
20
54.5093
0
VERTEX
8
CUT
10
41.9029
20
54.4683
0
VERTEX
8
CUT
10
41.8880
20
54.4294
0
VERTEX
8
CUT
10
41.8793
20
54.4112
0
VERTEX
8
CUT
10
41.6418
20
53.9412
0
VERTEX
8
CUT
10
41.5362
20
53.7020
0
VERTEX
8
CUT
10
41.4561
20
53.4530
0
VERTEX
8
CUT
10
41.4025
20
53.1970
0
VERTEX
8
CUT
10
41.3760
20
52.9368
0
VERTEX
8
CUT
10
41.3427
20
52.2642
0
VERTEX
8
CUT
10
41.3412
20
52.2435
0
VERTEX
8
CUT
10
41.3345
20
52.2009
0
VERTEX
8
CUT
10
41.3235
20
52.1593
0
VERTEX
8
CUT
10
41.3165
20
52.1396
0
VERTEX
8
CUT
10
40.9655
20
51.2212
0
VERTEX
8
CUT
10
40.8834
20
50.9661
0
VERTEX
8
CUT
10
40.8290
20
50.7036
0
VERTEX
8
CUT
10
40.8031
20
50.4368
0
VERTEX
8
CUT
10
40.7550
20
49.3259
0
VERTEX
8
CUT
10
40.7538
20
49.3087
0
VERTEX
8
CUT
10
40.7492
20
49.2731
0
VERTEX
8
CUT
10
40.7414
20
49.2380
0
VERTEX
8
CUT
10
40.7367
20
49.2219
0
VERTEX
8
CUT
10
40.3281
20
47.9218
0
VERTEX
8
CUT
10
40.2730
20
47.7165
0
VERTEX
8
CUT
10
40.2356
20
47.5072
0
VERTEX
8
CUT
10
40.2161
20
47.2955
0
VERTEX
8
CUT
10
40.1725
20
46.4129
0
VERTEX
8
CUT
10
40.1709
20
46.3921
0
VERTEX
8
CUT
10
40.1576
20
46.3067
0
VERTEX
8
CUT
10
40.1528
20
46.2863
0
VERTEX
8
CUT
10
39.7160
20
44.6423
0
VERTEX
8
CUT
10
39.6589
20
44.3650
0
VERTEX
8
CUT
10
39.6335
20
44.0831
0
VERTEX
8
CUT
10
39.5970
20
42.9802
0
VERTEX
8
CUT
10
39.5958
20
42.9600
0
VERTEX
8
CUT
10
39.5902
20
42.9185
0
VERTEX
8
CUT
10
39.5803
20
42.8778
0
VERTEX
8
CUT
10
39.5740
20
42.8586
0
VERTEX
8
CUT
10
39.4794
20
42.5907
0
VERTEX
8
CUT
10
39.4037
20
42.3335
0
VERTEX
8
CUT
10
39.3560
20
42.0695
0
VERTEX
8
CUT
10
39.3368
20
41.8020
0
VERTEX
8
CUT
10
39.3008
20
39.7802
0
VERTEX
8
CUT
10
39.3006
20
39.7748
0
VERTEX
8
CUT
10
39.2958
20
39.7247
0
VERTEX
8
CUT
10
39.2911
20
39.6998
0
VERTEX
8
CUT
10
39.2854
20
39.6764
0
VERTEX
8
CUT
10
39.1425
20
39.1504
0
VERTEX
8
CUT
10
39.0933
20
38.9305
0
VERTEX
8
CUT
10
39.0641
20
38.7070
0
VERTEX
8
CUT
10
39.0552
20
38.4818
0
SEQEND
0
ENDSEC
0
EOF
