0
SECTION
2
HEADER
9
$ACADVER
1
AC1009
9
$INSUNITS
70
4
0
ENDSEC
0
SECTION
2
TABLES
0
TABLE
2
LAYER
70
1
0
LAYER
2
CUT
70
0
62
7
6
CONTINUOUS
0
ENDTAB
0
ENDSEC
0
SECTION
2
ENTITIES
0
POLYLINE
8
CUT
66
1
70
1
10
0.0
20
0.0
30
0.0
0
VERTEX
8
CUT
10
158.1906
20
97.2961
0
VERTEX
8
CUT
10
158.9851
20
97.4373
0
VERTEX
8
CUT
10
159.0685
20
97.7966
0
VERTEX
8
CUT
10
158.7570
20
98.4196
0
VERTEX
8
CUT
10
157.6867
20
99.3378
0
VERTEX
8
CUT
10
157.6538
20
100.3180
0
VERTEX
8
CUT
10
158.5738
20
101.2174
0
VERTEX
8
CUT
10
160.5283
20
101.2786
0
VERTEX
8
CUT
10
160.6787
20
102.7415
0
VERTEX
8
CUT
10
161.0113
20
103.7122
0
VERTEX
8
CUT
10
161.3877
20
104.1029
0
VERTEX
8
CUT
10
162.2831
20
104.2894
0
VERTEX
8
CUT
10
162.9098
20
104.0003
0
VERTEX
8
CUT
10
164.2097
20
103.9364
0
VERTEX
8
CUT
10
166.9094
20
103.2391
0
VERTEX
8
CUT
10
167.4434
20
103.5083
0
VERTEX
8
CUT
10
167.1888
20
104.3868
0
VERTEX
8
CUT
10
166.6893
20
104.9053
0
VERTEX
8
CUT
10
166.3921
20
104.9241
0
VERTEX
8
CUT
10
165.5730
20
104.4660
0
VERTEX
8
CUT
10
164.7178
20
104.8624
0
VERTEX
8
CUT
10
164.1044
20
105.6974
0
VERTEX
8
CUT
10
162.1981
20
105.3812
0
VERTEX
8
CUT
10
161.8644
20
105.6584
0
VERTEX
8
CUT
10
161.8669
20
106.3250
0
VERTEX
8
CUT
10
162.3114
20
107.1534
0
VERTEX
8
CUT
10
163.3469
20
107.4980
0
VERTEX
8
CUT
10
164.9063
20
106.1578
0
VERTEX
8
CUT
10
165.3262
20
106.1054
0
VERTEX
8
CUT
10
165.9473
20
106.4491
0
VERTEX
8
CUT
10
166.0558
20
107.5051
0
VERTEX
8
CUT
10
166.5022
20
108.0983
0
VERTEX
8
CUT
10
166.5161
20
108.4256
0
VERTEX
8
CUT
10
166.2392
20
108.6575
0
VERTEX
8
CUT
10
165.0388
20
108.7773
0
VERTEX
8
CUT
10
164.8133
20
109.0313
0
VERTEX
8
CUT
10
164.8546
20
109.3695
0
VERTEX
8
CUT
10
165.3194
20
110.1669
0
VERTEX
8
CUT
10
167.4406
20
111.5836
0
VERTEX
8
CUT
10
167.4669
20
112.0992
0
VERTEX
8
CUT
10
166.7552
20
112.9739
0
VERTEX
8
CUT
10
166.7966
20
113.3885
0
VERTEX
8
CUT
10
169.2384
20
116.0057
0
VERTEX
8
CUT
10
170.6441
20
117.9093
0
VERTEX
8
CUT
10
171.0759
20
118.4412
0
VERTEX
8
CUT
10
171.3066
20
118.8064
0
VERTEX
8
CUT
10
172.5918
20
120.5468
0
VERTEX
8
CUT
10
172.7938
20
121.3082
0
VERTEX
8
CUT
10
171.6008
20
122.2902
0
VERTEX
8
CUT
10
171.4197
20
122.7896
0
VERTEX
8
CUT
10
171.5128
20
123.2256
0
VERTEX
8
CUT
10
175.8294
20
129.3927
0
VERTEX
8
CUT
10
176.5277
20
130.0256
0
VERTEX
8
CUT
10
176.9436
20
130.0181
0
VERTEX
8
CUT
10
177.6513
20
129.3516
0
VERTEX
8
CUT
10
177.8232
20
128.5209
0
VERTEX
8
CUT
10
177.8152
20
124.6658
0
VERTEX
8
CUT
10
177.7953
20
124.5061
0
VERTEX
8
CUT
10
177.2350
20
122.2719
0
VERTEX
8
CUT
10
177.2949
20
121.7399
0
VERTEX
8
CUT
10
177.5455
20
121.4391
0
VERTEX
8
CUT
10
177.8822
20
121.3980
0
VERTEX
8
CUT
10
179.5826
20
122.5042
0
VERTEX
8
CUT
10
180.3309
20
122.1850
0
VERTEX
8
CUT
10
180.3313
20
122.1847
0
VERTEX
8
CUT
10
180.3325
20
122.1840
0
VERTEX
8
CUT
10
180.3329
20
122.1837
0
VERTEX
8
CUT
10
180.3334
20
122.1834
0
VERTEX
8
CUT
10
180.5088
20
121.7045
0
VERTEX
8
CUT
10
180.4944
20
118.3579
0
VERTEX
8
CUT
10
179.5780
20
115.2713
0
VERTEX
8
CUT
10
178.7754
20
113.4032
0
VERTEX
8
CUT
10
178.7750
20
112.4324
0
VERTEX
8
CUT
10
179.3699
20
111.4874
0
VERTEX
8
CUT
10
183.3087
20
107.8341
0
VERTEX
8
CUT
10
185.5410
20
105.2381
0
VERTEX
8
CUT
10
187.0832
20
102.1590
0
VERTEX
8
CUT
10
187.7348
20
99.0324
0
VERTEX
8
CUT
10
187.7137
20
93.3261
0
VERTEX
8
CUT
10
187.0787
20
90.6526
0
VERTEX
8
CUT
10
186.7495
20
90.2311
0
VERTEX
8
CUT
10
186.3327
20
90.0665
0
VERTEX
8
CUT
10
186.2276
20
90.0601
0
VERTEX
8
CUT
10
185.8373
20
90.1291
0
VERTEX
8
CUT
10
185.7988
20
90.1442
0
VERTEX
8
CUT
10
185.7821
20
90.1508
0
VERTEX
8
CUT
10
185.7792
20
90.1519
0
VERTEX
8
CUT
10
185.7574
20
90.1605
0
VERTEX
8
CUT
10
184.9095
20
90.8127
0
VERTEX
8
CUT
10
184.5861
20
90.7085
0
VERTEX
8
CUT
10
184.4393
20
90.3579
0
VERTEX
8
CUT
10
185.6151
20
85.6421
0
VERTEX
8
CUT
10
185.6256
20
79.7370
0
VERTEX
8
CUT
10
185.2992
20
78.0949
0
VERTEX
8
CUT
10
184.8082
20
77.1829
0
VERTEX
8
CUT
10
184.0980
20
76.6094
0
VERTEX
8
CUT
10
183.3501
20
76.9606
0
VERTEX
8
CUT
10
182.1081
20
78.0257
0
VERTEX
8
CUT
10
181.5915
20
78.1231
0
VERTEX
8
CUT
10
181.3329
20
77.7706
0
VERTEX
8
CUT
10
181.7979
20
76.3541
0
VERTEX
8
CUT
10
182.8092
20
74.3882
0
VERTEX
8
CUT
10
182.9079
20
74.1669
0
VERTEX
8
CUT
10
182.9119
20
74.1580
0
VERTEX
8
CUT
10
182.9161
20
74.1485
0
VERTEX
8
CUT
10
182.9168
20
74.1470
0
VERTEX
8
CUT
10
184.0811
20
71.2377
0
VERTEX
8
CUT
10
185.2990
20
67.5855
0
VERTEX
8
CUT
10
185.9202
20
65.0830
0
VERTEX
8
CUT
10
185.9712
20
64.1345
0
VERTEX
8
CUT
10
186.4384
20
62.6512
0
VERTEX
8
CUT
10
186.5306
20
62.0152
0
VERTEX
8
CUT
10
186.5689
20
61.1585
0
VERTEX
8
CUT
10
186.8223
20
60.5317
0
VERTEX
8
CUT
10
186.8727
20
58.7535
0
VERTEX
8
CUT
10
187.0869
20
58.1872
0
VERTEX
8
CUT
10
187.0930
20
58.1210
0
VERTEX
8
CUT
10
187.1001
20
58.0440
0
VERTEX
8
CUT
10
187.1122
20
57.9122
0
VERTEX
8
CUT
10
187.1324
20
57.6923
0
VERTEX
8
CUT
10
187.1736
20
55.7676
0
VERTEX
8
CUT
10
187.4141
20
55.0427
0
VERTEX
8
CUT
10
187.4298
20
51.3273
0
VERTEX
8
CUT
10
187.4343
20
49.2456
0
VERTEX
8
CUT
10
187.1664
20
47.8277
0
VERTEX
8
CUT
10
187.1167
20
45.7871
0
VERTEX
8
CUT
10
186.8673
20
45.1654
0
VERTEX
8
CUT
10
186.8105
20
43.6314
0
VERTEX
8
CUT
10
186.5689
20
43.0666
0
VERTEX
8
CUT
10
186.5170
20
41.2788
0
VERTEX
8
CUT
10
186.2654
20
40.5299
0
VERTEX
8
CUT
10
186.2626
20
37.3531
0
VERTEX
8
CUT
10
186.5167
20
36.5459
0
VERTEX
8
CUT
10
186.5316
20
35.8328
0
VERTEX
8
CUT
10
186.5252
20
35.0123
0
VERTEX
8
CUT
10
186.2677
20
33.6463
0
VERTEX
8
CUT
10
186.2180
20
29.9585
0
VERTEX
8
CUT
10
185.9724
20
29.2946
0
VERTEX
8
CUT
10
185.9287
20
27.9858
0
VERTEX
8
CUT
10
185.9045
20
27.7593
0
VERTEX
8
CUT
10
185.6722
20
27.1936
0
VERTEX
8
CUT
10
185.3866
20
24.5240
0
VERTEX
8
CUT
10
185.3721
20
24.4919
0
VERTEX
8
CUT
10
185.2966
20
23.7867
0
VERTEX
8
CUT
10
185.0718
20
23.2910
0
VERTEX
8
CUT
10
184.7884
20
20.6418
0
VERTEX
8
CUT
10
184.7710
20
20.6047
0
VERTEX
8
CUT
10
184.7567
20
20.3451
0
VERTEX
8
CUT
10
184.7108
20
19.9161
0
VERTEX
8
CUT
10
183.7982
20
15.9520
0
VERTEX
8
CUT
10
182.8592
20
13.1495
0
VERTEX
8
CUT
10
181.9337
20
11.3400
0
VERTEX
8
CUT
10
180.3240
20
9.7217
0
VERTEX
8
CUT
10
179.4632
20
9.3172
0
VERTEX
8
CUT
10
177.1636
20
9.3435
0
VERTEX
8
CUT
10
174.7001
20
10.5654
0
VERTEX
8
CUT
10
172.7591
20
11.8785
0
VERTEX
8
CUT
10
170.1745
20
14.1388
0
VERTEX
8
CUT
10
164.1692
20
20.1789
0
VERTEX
8
CUT
10
157.7606
20
27.7902
0
VERTEX
8
CUT
10
155.3260
20
31.1282
0
VERTEX
8
CUT
10
151.3943
20
37.1637
0
VERTEX
8
CUT
10
150.2261
20
39.4145
0
VERTEX
8
CUT
10
150.2261
20
39.4187
0
VERTEX
8
CUT
10
149.0656
20
41.7283
0
VERTEX
8
CUT
10
148.9590
20
41.8557
0
VERTEX
8
CUT
10
148.1905
20
43.3364
0
VERTEX
8
CUT
10
148.1672
20
43.5297
0
VERTEX
8
CUT
10
147.8996
20
44.0691
0
VERTEX
8
CUT
10
147.6004
20
44.4732
0
VERTEX
8
CUT
10
147.3645
20
44.9276
0
VERTEX
8
CUT
10
147.3466
20
45.0098
0
VERTEX
8
CUT
10
147.0908
20
45.5094
0
VERTEX
8
CUT
10
145.3636
20
49.8260
0
VERTEX
8
CUT
10
144.1457
20
53.4782
0
VERTEX
8
CUT
10
144.0722
20
54.2421
0
VERTEX
8
CUT
10
143.9780
20
54.5322
0
VERTEX
8
CUT
10
143.9802
20
54.5655
0
VERTEX
8
CUT
10
143.4142
20
56.2683
0
VERTEX
8
CUT
10
143.2390
20
56.8078
0
VERTEX
8
CUT
10
143.1751
20
57.8211
0
VERTEX
8
CUT
10
142.6461
20
59.4847
0
VERTEX
8
CUT
10
142.5757
20
60.8058
0
VERTEX
8
CUT
10
142.2455
20
61.9827
0
VERTEX
8
CUT
10
141.6664
20
62.2045
0
VERTEX
8
CUT
10
139.7600
20
60.7271
0
VERTEX
8
CUT
10
139.3225
20
60.6101
0
VERTEX
8
CUT
10
138.8611
20
60.7685
0
VERTEX
8
CUT
10
138.5143
20
61.1304
0
VERTEX
8
CUT
10
138.4182
20
64.0613
0
VERTEX
8
CUT
10
139.0420
20
66.9854
0
VERTEX
8
CUT
10
139.8450
20
69.0738
0
VERTEX
8
CUT
10
140.0442
20
69.3798
0
VERTEX
8
CUT
10
140.0815
20
69.6886
0
VERTEX
8
CUT
10
140.5814
20
70.9886
0
VERTEX
8
CUT
10
142.0964
20
73.7062
0
VERTEX
8
CUT
10
145.5584
20
79.0657
0
VERTEX
8
CUT
10
147.0667
20
82.1074
0
VERTEX
8
CUT
10
147.3787
20
83.0627
0
VERTEX
8
CUT
10
147.4634
20
84.1459
0
VERTEX
8
CUT
10
148.6464
20
86.8170
0
VERTEX
8
CUT
10
149.4480
20
88.0622
0
VERTEX
8
CUT
10
149.8878
20
89.6015
0
VERTEX
8
CUT
10
150.7700
20
91.3544
0
VERTEX
8
CUT
10
151.5617
20
92.3132
0
VERTEX
8
CUT
10
152.9493
20
94.7740
0
VERTEX
8
CUT
10
154.1235
20
96.2909
0
VERTEX
8
CUT
10
155.2263
20
97.3006
0
VERTEX
8
CUT
10
156.1921
20
97.2742
0
VERTEX
8
CUT
10
157.3113
20
96.4773
0
SEQEND
0
POLYLINE
8
CUT
66
1
70
1
10
0.0
20
0.0
30
0.0
0
VERTEX
8
CUT
10
178.8892
20
49.7597
0
VERTEX
8
CUT
10
177.6675
20
53.4156
0
VERTEX
8
CUT
10
176.3017
20
56.0345
0
VERTEX
8
CUT
10
176.1979
20
57.2207
0
VERTEX
8
CUT
10
175.8663
20
58.2189
0
VERTEX
8
CUT
10
175.4740
20
58.9234
0
VERTEX
8
CUT
10
174.9019
20
59.2266
0
VERTEX
8
CUT
10
174.4688
20
59.0477
0
VERTEX
8
CUT
10
174.5107
20
58.5101
0
VERTEX
8
CUT
10
177.4766
20
51.1238
0
VERTEX
8
CUT
10
178.1867
20
48.7556
0
VERTEX
8
CUT
10
178.7047
20
48.5607
0
VERTEX
8
CUT
10
178.9272
20
48.8554
0
SEQEND
0
POLYLINE
8
CUT
66
1
70
1
10
0.0
20
0.0
30
0.0
0
VERTEX
8
CUT
10
178.3049
20
33.3218
0
VERTEX
8
CUT
10
178.6027
20
33.5862
0
VERTEX
8
CUT
10
178.6546
20
34.7769
0
VERTEX
8
CUT
10
178.8974
20
35.3412
0
VERTEX
8
CUT
10
178.8935
20
37.1159
0
VERTEX
8
CUT
10
178.1021
20
38.9279
0
VERTEX
8
CUT
10
177.6431
20
40.5400
0
VERTEX
8
CUT
10
177.1394
20
40.6588
0
VERTEX
8
CUT
10
176.9403
20
40.1231
0
VERTEX
8
CUT
10
177.4596
20
38.6095
0
VERTEX
8
CUT
10
177.5626
20
37.1419
0
VERTEX
8
CUT
10
177.7956
20
36.5891
0
VERTEX
8
CUT
10
177.8498
20
33.6273
0
SEQEND
0
POLYLINE
8
CUT
66
1
70
1
10
0.0
20
0.0
30
0.0
0
VERTEX
8
CUT
10
171.3806
20
107.5169
0
VERTEX
8
CUT
10
171.0130
20
107.2808
0
VERTEX
8
CUT
10
171.0699
20
106.8805
0
VERTEX
8
CUT
10
172.8904
20
105.5769
0
VERTEX
8
CUT
10
174.4463
20
104.0861
0
VERTEX
8
CUT
10
174.8757
20
104.0723
0
VERTEX
8
CUT
10
174.8444
20
103.6532
0
VERTEX
8
CUT
10
177.4354
20
100.1346
0
VERTEX
8
CUT
10
178.2126
20
98.5326
0
VERTEX
8
CUT
10
178.4892
20
98.3594
0
VERTEX
8
CUT
10
178.7799
20
98.4389
0
VERTEX
8
CUT
10
178.8963
20
99.2732
0
VERTEX
8
CUT
10
177.8797
20
101.8246
0
VERTEX
8
CUT
10
175.5763
20
104.0890
0
VERTEX
8
CUT
10
174.9834
20
104.1706
0
VERTEX
8
CUT
10
174.9723
20
104.7242
0
VERTEX
8
CUT
10
173.3704
20
106.6442
0
VERTEX
8
CUT
10
172.0161
20
107.4005
0
SEQEND
0
POLYLINE
8
CUT
66
1
70
1
10
0.0
20
0.0
30
0.0
0
VERTEX
8
CUT
10
170.9439
20
80.0405
0
VERTEX
8
CUT
10
174.4903
20
72.8316
0
VERTEX
8
CUT
10
175.9755
20
69.1362
0
VERTEX
8
CUT
10
176.9823
20
65.5781
0
VERTEX
8
CUT
10
177.5023
20
65.3842
0
VERTEX
8
CUT
10
177.7047
20
65.6067
0
VERTEX
8
CUT
10
177.7188
20
66.0633
0
VERTEX
8
CUT
10
177.4480
20
66.7881
0
VERTEX
8
CUT
10
177.3970
20
67.7367
0
VERTEX
8
CUT
10
176.7872
20
69.8777
0
VERTEX
8
CUT
10
176.2678
20
70.8913
0
VERTEX
8
CUT
10
176.1887
20
71.6670
0
VERTEX
8
CUT
10
175.0684
20
73.1493
0
VERTEX
8
CUT
10
174.6858
20
74.3732
0
VERTEX
8
CUT
10
174.1987
20
74.9670
0
VERTEX
8
CUT
10
173.7852
20
76.4823
0
VERTEX
8
CUT
10
172.8923
20
78.2692
0
VERTEX
8
CUT
10
171.4142
20
80.3309
0
SEQEND
0
POLYLINE
8
CUT
66
1
70
1
10
0.0
20
0.0
30
0.0
0
VERTEX
8
CUT
10
177.1293
20
40.7417
0
VERTEX
8
CUT
10
177.4265
20
41.1415
0
VERTEX
8
CUT
10
177.0968
20
43.1197
0
VERTEX
8
CUT
10
176.3165
20
44.2737
0
VERTEX
8
CUT
10
175.8620
20
44.2267
0
VERTEX
8
CUT
10
175.7534
20
43.7542
0
VERTEX
8
CUT
10
176.6821
20
40.9610
0
SEQEND
0
POLYLINE
8
CUT
66
1
70
1
10
0.0
20
0.0
30
0.0
0
VERTEX
8
CUT
10
175.5105
20
26.8632
0
VERTEX
8
CUT
10
175.4327
20
25.1781
0
VERTEX
8
CUT
10
175.2543
20
24.7940
0
VERTEX
8
CUT
10
175.1904
20
22.9302
0
VERTEX
8
CUT
10
174.7106
20
21.6982
0
VERTEX
8
CUT
10
175.2051
20
21.2197
0
VERTEX
8
CUT
10
175.8985
20
21.7411
0
VERTEX
8
CUT
10
176.3693
20
22.5475
0
VERTEX
8
CUT
10
176.7113
20
23.9519
0
VERTEX
8
CUT
10
176.7616
20
25.4470
0
VERTEX
8
CUT
10
177.0254
20
26.2268
0
VERTEX
8
CUT
10
176.9974
20
27.2699
0
VERTEX
8
CUT
10
176.4587
20
28.7185
0
VERTEX
8
CUT
10
176.3690
20
31.1902
0
VERTEX
8
CUT
10
175.4959
20
31.9933
0
VERTEX
8
CUT
10
175.0480
20
31.6163
0
VERTEX
8
CUT
10
174.9052
20
30.8642
0
VERTEX
8
CUT
10
175.2064
20
29.8583
0
VERTEX
8
CUT
10
175.2638
20
27.4746
0
SEQEND
0
POLYLINE
8
CUT
66
1
70
1
10
0.0
20
0.0
30
0.0
0
VERTEX
8
CUT
10
174.7052
20
87.6600
0
VERTEX
8
CUT
10
174.9108
20
87.1641
0
VERTEX
8
CUT
10
174.9258
20
85.5886
0
VERTEX
8
CUT
10
174.6567
20
84.3291
0
VERTEX
8
CUT
10
174.8873
20
83.8203
0
VERTEX
8
CUT
10
175.2800
20
83.6436
0
VERTEX
8
CUT
10
175.7689
20
84.3902
0
VERTEX
8
CUT
10
176.0968
20
85.6961
0
VERTEX
8
CUT
10
176.1166
20
87.1416
0
VERTEX
8
CUT
10
175.8573
20
87.8235
0
VERTEX
8
CUT
10
175.4927
20
90.6364
0
VERTEX
8
CUT
10
175.2435
20
91.1841
0
VERTEX
8
CUT
10
175.5066
20
92.3802
0
VERTEX
8
CUT
10
174.8733
20
93.1731
0
VERTEX
8
CUT
10
174.4025
20
93.4667
0
VERTEX
8
CUT
10
173.8525
20
93.1769
0
VERTEX
8
CUT
10
173.7264
20
92.7264
0
VERTEX
8
CUT
10
174.5958
20
89.4049
0
SEQEND
0
POLYLINE
8
CUT
66
1
70
1
10
0.0
20
0.0
30
0.0
0
VERTEX
8
CUT
10
166.5929
20
108.7838
0
VERTEX
8
CUT
10
166.5425
20
108.4190
0
VERTEX
8
CUT
10
166.8186
20
108.1753
0
VERTEX
8
CUT
10
168.4128
20
108.1380
0
VERTEX
8
CUT
10
169.9922
20
107.5442
0
VERTEX
8
CUT
10
170.4246
20
107.8355
0
VERTEX
8
CUT
10
170.1526
20
108.3289
0
VERTEX
8
CUT
10
168.0506
20
109.2263
0
VERTEX
8
CUT
10
167.4096
20
109.2296
0
SEQEND
0
POLYLINE
8
CUT
66
1
70
1
10
0.0
20
0.0
30
0.0
0
VERTEX
8
CUT
10
159.2811
20
96.7267
0
VERTEX
8
CUT
10
160.8046
20
95.3050
0
VERTEX
8
CUT
10
161.5693
20
94.8082
0
VERTEX
8
CUT
10
161.9657
20
94.8917
0
VERTEX
8
CUT
10
162.0963
20
95.6458
0
VERTEX
8
CUT
10
161.4443
20
96.8930
0
VERTEX
8
CUT
10
159.6345
20
97.3672
0
VERTEX
8
CUT
10
159.2435
20
97.1868
0
SEQEND
0
POLYLINE
8
CUT
66
1
70
1
10
0.0
20
0.0
30
0.0
0
VERTEX
8
CUT
10
157.7782
20
93.3502
0
VERTEX
8
CUT
10
157.0618
20
94.6429
0
VERTEX
8
CUT
10
156.9249
20
93.8411
0
VERTEX
8
CUT
10
157.7005
20
91.5515
0
SEQEND
0
POLYLINE
8
CUT
66
1
70
1
10
0.0
20
0.0
30
0.0
0
VERTEX
8
CUT
10
27.3389
20
126.0654
0
VERTEX
8
CUT
10
27.3398
20
126.0644
0
VERTEX
8
CUT
10
28.4946
20
124.2302
0
VERTEX
8
CUT
10
28.5436
20
123.9416
0
VERTEX
8
CUT
10
28.9511
20
123.5051
0
VERTEX
8
CUT
10
29.1686
20
123.1596
0
VERTEX
8
CUT
10
29.1530
20
122.4305
0
VERTEX
8
CUT
10
28.2057
20
121.7226
0
VERTEX
8
CUT
10
28.0797
20
121.1319
0
VERTEX
8
CUT
10
28.0786
20
121.1287
0
VERTEX
8
CUT
10
28.0789
20
121.1281
0
VERTEX
8
CUT
10
28.0782
20
121.1249
0
VERTEX
8
CUT
10
29.8933
20
117.8138
0
VERTEX
8
CUT
10
33.3711
20
113.5574
0
VERTEX
8
CUT
10
33.3600
20
112.8244
0
VERTEX
8
CUT
10
32.6676
20
112.3370
0
VERTEX
8
CUT
10
32.6154
20
111.9130
0
VERTEX
8
CUT
10
34.5467
20
110.6668
0
VERTEX
8
CUT
10
35.2420
20
109.7612
0
VERTEX
8
CUT
10
34.9865
20
109.2905
0
VERTEX
8
CUT
10
34.4632
20
108.9577
0
VERTEX
8
CUT
10
33.2997
20
109.5108
0
VERTEX
8
CUT
10
32.7773
20
109.5561
0
VERTEX
8
CUT
10
32.2609
20
109.5106
0
VERTEX
8
CUT
10
30.7926
20
108.7472
0
VERTEX
8
CUT
10
29.9172
20
108.9266
0
VERTEX
8
CUT
10
27.1759
20
107.5394
0
VERTEX
8
CUT
10
26.4712
20
107.3530
0
VERTEX
8
CUT
10
25.8121
20
105.5580
0
VERTEX
8
CUT
10
24.5480
20
103.7139
0
VERTEX
8
CUT
10
22.6819
20
101.6878
0
VERTEX
8
CUT
10
22.3632
20
101.0858
0
VERTEX
8
CUT
10
22.3784
20
100.6341
0
VERTEX
8
CUT
10
22.6877
20
100.4252
0
VERTEX
8
CUT
10
23.0052
20
100.5430
0
VERTEX
8
CUT
10
25.5799
20
103.7136
0
VERTEX
8
CUT
10
27.8162
20
105.9157
0
VERTEX
8
CUT
10
29.9772
20
107.4831
0
VERTEX
8
CUT
10
31.5815
20
108.1272
0
VERTEX
8
CUT
10
33.1190
20
108.4906
0
VERTEX
8
CUT
10
33.9229
20
108.2848
0
VERTEX
8
CUT
10
34.3941
20
107.5485
0
VERTEX
8
CUT
10
34.4876
20
107.5400
0
VERTEX
8
CUT
10
34.4925
20
107.5391
0
VERTEX
8
CUT
10
34.6780
20
107.7120
0
VERTEX
8
CUT
10
35.4801
20
109.0427
0
VERTEX
8
CUT
10
35.5421
20
109.1355
0
VERTEX
8
CUT
10
35.6124
20
109.2221
0
VERTEX
8
CUT
10
35.6904
20
109.3018
0
VERTEX
8
CUT
10
35.7755
20
109.3739
0
VERTEX
8
CUT
10
35.8670
20
109.4378
0
VERTEX
8
CUT
10
35.9639
20
109.4929
0
VERTEX
8
CUT
10
36.0656
20
109.5388
0
VERTEX
8
CUT
10
36.3534
20
109.6529
0
VERTEX
8
CUT
10
38.0925
20
108.5934
0
VERTEX
8
CUT
10
39.9875
20
107.0298
0
VERTEX
8
CUT
10
41.9308
20
105.0454
0
VERTEX
8
CUT
10
42.1222
20
104.5542
0
VERTEX
8
CUT
10
41.1404
20
103.3741
0
VERTEX
8
CUT
10
41.1409
20
103.3264
0
VERTEX
8
CUT
10
39.5684
20
103.3453
0
VERTEX
8
CUT
10
39.4551
20
103.3520
0
VERTEX
8
CUT
10
39.3429
20
103.3694
0
VERTEX
8
CUT
10
39.2541
20
103.3920
0
VERTEX
8
CUT
10
39.4233
20
103.1032
0
VERTEX
8
CUT
10
39.1531
20
101.7754
0
VERTEX
8
CUT
10
39.3790
20
101.3980
0
VERTEX
8
CUT
10
39.7178
20
101.4042
0
VERTEX
8
CUT
10
41.0174
20
102.1689
0
VERTEX
8
CUT
10
42.0016
20
101.6631
0
VERTEX
8
CUT
10
45.6074
20
98.0394
0
VERTEX
8
CUT
10
46.8133
20
96.5520
0
VERTEX
8
CUT
10
46.8580
20
96.4918
0
VERTEX
8
CUT
10
49.2468
20
92.9296
0
VERTEX
8
CUT
10
50.4743
20
90.8093
0
VERTEX
8
CUT
10
51.6813
20
88.0682
0
VERTEX
8
CUT
10
51.6908
20
88.0444
0
VERTEX
8
CUT
10
52.3806
20
85.1342
0
VERTEX
8
CUT
10
52.8526
20
83.9360
0
VERTEX
8
CUT
10
52.9810
20
83.3330
0
VERTEX
8
CUT
10
53.0151
20
83.2312
0
VERTEX
8
CUT
10
53.2812
20
81.8320
0
VERTEX
8
CUT
10
53.9095
20
80.2568
0
VERTEX
8
CUT
10
54.8025
20
78.4852
0
VERTEX
8
CUT
10
58.5678
20
72.7923
0
VERTEX
8
CUT
10
59.9710
20
69.9939
0
VERTEX
8
CUT
10
60.3033
20
69.1013
0
VERTEX
8
CUT
10
61.0263
20
66.9330
0
VERTEX
8
CUT
10
61.3381
20
65.6260
0
VERTEX
8
CUT
10
61.3857
20
64.1502
0
VERTEX
8
CUT
10
61.6211
20
63.5262
0
VERTEX
8
CUT
10
61.6207
20
63.4393
0
VERTEX
8
CUT
10
61.6196
20
63.1593
0
VERTEX
8
CUT
10
61.6176
20
62.6416
0
VERTEX
8
CUT
10
61.6160
20
62.2450
0
VERTEX
8
CUT
10
61.5961
20
61.2372
0
VERTEX
8
CUT
10
61.2302
20
60.5041
0
VERTEX
8
CUT
10
60.5649
20
60.1379
0
VERTEX
8
CUT
10
60.5381
20
60.1353
0
VERTEX
8
CUT
10
60.5263
20
60.1342
0
VERTEX
8
CUT
10
60.5146
20
60.1331
0
VERTEX
8
CUT
10
60.4920
20
60.1310
0
VERTEX
8
CUT
10
60.0239
20
60.3915
0
VERTEX
8
CUT
10
59.6066
20
60.7739
0
VERTEX
8
CUT
10
59.5991
20
60.7807
0
VERTEX
8
CUT
10
59.5988
20
60.7811
0
VERTEX
8
CUT
10
59.5407
20
60.8343
0
VERTEX
8
CUT
10
58.2516
20
62.3474
0
VERTEX
8
CUT
10
57.8354
20
62.4017
0
VERTEX
8
CUT
10
57.5510
20
62.1732
0
VERTEX
8
CUT
10
56.2100
20
55.8796
0
VERTEX
8
CUT
10
53.4698
20
47.3732
0
VERTEX
8
CUT
10
52.7087
20
45.9104
0
VERTEX
8
CUT
10
51.6685
20
43.1703
0
VERTEX
8
CUT
10
49.5747
20
38.9878
0
VERTEX
8
CUT
10
44.4042
20
30.7928
0
VERTEX
8
CUT
10
42.4234
20
28.3516
0
VERTEX
8
CUT
10
42.3272
20
28.3144
0
VERTEX
8
CUT
10
39.9204
20
25.2667
0
VERTEX
8
CUT
10
39.2489
20
24.4391
0
VERTEX
8
CUT
10
29.2436
20
14.1074
0
VERTEX
8
CUT
10
26.3100
20
11.7360
0
VERTEX
8
CUT
10
26.1752
20
11.5478
0
VERTEX
8
CUT
10
25.3638
20
10.8768
0
VERTEX
8
CUT
10
22.9633
20
9.6647
0
VERTEX
8
CUT
10
21.5515
20
9.3261
0
VERTEX
8
CUT
10
20.3993
20
9.3682
0
VERTEX
8
CUT
10
19.1171
20
9.9691
0
VERTEX
8
CUT
10
17.7834
20
11.3948
0
VERTEX
8
CUT
10
16.8882
20
13.4604
0
VERTEX
8
CUT
10
14.7433
20
21.7231
0
VERTEX
8
CUT
10
14.6873
20
22.9796
0
VERTEX
8
CUT
10
14.1336
20
25.4077
0
VERTEX
8
CUT
10
14.0832
20
27.1859
0
VERTEX
8
CUT
10
13.8334
20
27.8093
0
VERTEX
8
CUT
10
13.7830
20
29.5876
0
VERTEX
8
CUT
10
13.5352
20
30.2682
0
VERTEX
8
CUT
10
13.4887
20
33.6423
0
VERTEX
8
CUT
10
13.3841
20
34.0719
0
VERTEX
8
CUT
10
13.4062
20
34.8808
0
VERTEX
8
CUT
10
13.2579
20
35.3029
0
VERTEX
8
CUT
10
13.2159
20
35.3381
0
VERTEX
8
CUT
10
13.1852
20
38.4619
0
VERTEX
8
CUT
10
12.9348
20
39.2744
0
VERTEX
8
CUT
10
12.8883
20
42.6485
0
VERTEX
8
CUT
10
12.6273
20
44.1001
0
VERTEX
8
CUT
10
12.6273
20
44.5982
0
VERTEX
8
CUT
10
12.6273
20
45.8632
0
VERTEX
8
CUT
10
12.6273
20
46.1230
0
VERTEX
8
CUT
10
12.6273
20
53.2440
0
VERTEX
8
CUT
10
12.8892
20
54.6774
0
VERTEX
8
CUT
10
12.9399
20
57.5443
0
VERTEX
8
CUT
10
13.1828
20
58.1570
0
VERTEX
8
CUT
10
13.2292
20
59.8978
0
VERTEX
8
CUT
10
13.4861
20
60.5591
0
VERTEX
8
CUT
10
13.5433
20
61.8204
0
VERTEX
8
CUT
10
14.0834
20
63.5335
0
VERTEX
8
CUT
10
14.1289
20
64.3554
0
VERTEX
8
CUT
10
14.7587
20
66.9931
0
VERTEX
8
CUT
10
15.3825
20
68.8635
0
VERTEX
8
CUT
10
16.3553
20
71.2183
0
VERTEX
8
CUT
10
16.3349
20
71.6679
0
VERTEX
8
CUT
10
17.9571
20
75.1533
0
VERTEX
8
CUT
10
18.9542
20
77.9157
0
VERTEX
8
CUT
10
18.7937
20
78.2103
0
VERTEX
8
CUT
10
18.4270
20
78.2589
0
VERTEX
8
CUT
10
16.2902
20
76.8139
0
VERTEX
8
CUT
10
15.7129
20
77.0360
0
VERTEX
8
CUT
10
15.0432
20
77.8229
0
VERTEX
8
CUT
10
14.4546
20
80.8116
0
VERTEX
8
CUT
10
14.4284
20
82.5329
0
VERTEX
8
CUT
10
14.4274
20
83.8866
0
VERTEX
8
CUT
10
14.4274
20
83.8921
0
VERTEX
8
CUT
10
14.4274
20
83.8925
0
VERTEX
8
CUT
10
14.7441
20
86.4374
0
VERTEX
8
CUT
10
15.2874
20
88.4665
0
VERTEX
8
CUT
10
15.3488
20
89.4669
0
VERTEX
8
CUT
10
15.6354
20
90.1308
0
VERTEX
8
CUT
10
15.4524
20
90.4707
0
VERTEX
8
CUT
10
15.0729
20
90.6254
0
VERTEX
8
CUT
10
14.3403
20
90.1725
0
VERTEX
8
CUT
10
13.9771
20
90.1569
0
VERTEX
8
CUT
10
13.5503
20
90.4095
0
VERTEX
8
CUT
10
13.3785
20
90.5757
0
VERTEX
8
CUT
10
13.3019
20
90.6498
0
VERTEX
8
CUT
10
13.2848
20
90.6663
0
VERTEX
8
CUT
10
13.2413
20
90.7084
0
VERTEX
8
CUT
10
12.9565
20
91.3067
0
VERTEX
8
CUT
10
12.6153
20
94.2448
0
VERTEX
8
CUT
10
12.6245
20
100.5669
0
VERTEX
8
CUT
10
13.2934
20
103.4111
0
VERTEX
8
CUT
10
14.1101
20
105.0365
0
VERTEX
8
CUT
10
14.2514
20
105.1270
0
VERTEX
8
CUT
10
14.6955
20
105.9882
0
VERTEX
8
CUT
10
18.0841
20
109.5406
0
VERTEX
8
CUT
10
19.9266
20
111.0264
0
VERTEX
8
CUT
10
21.2127
20
112.3683
0
VERTEX
8
CUT
10
21.5717
20
113.0069
0
VERTEX
8
CUT
10
20.1586
20
118.0794
0
VERTEX
8
CUT
10
20.1578
20
121.8320
0
VERTEX
8
CUT
10
20.5380
20
122.4031
0
VERTEX
8
CUT
10
21.1598
20
122.5878
0
VERTEX
8
CUT
10
22.0576
20
122.1975
0
VERTEX
8
CUT
10
22.8754
20
121.5327
0
VERTEX
8
CUT
10
23.3460
20
121.7107
0
VERTEX
8
CUT
10
23.4261
20
122.2311
0
VERTEX
8
CUT
10
23.1261
20
123.5516
0
VERTEX
8
CUT
10
23.1608
20
129.0280
0
VERTEX
8
CUT
10
23.5943
20
129.9509
0
VERTEX
8
CUT
10
24.3779
20
130.0425
0
VERTEX
8
CUT
10
25.0629
20
129.3916
0
SEQEND
0
POLYLINE
8
CUT
66
1
70
1
10
0.0
20
0.0
30
0.0
0
VERTEX
8
CUT
10
37.9663
20
95.2210
0
VERTEX
8
CUT
10
38.4035
20
94.8587
0
VERTEX
8
CUT
10
39.6539
20
95.6696
0
VERTEX
8
CUT
10
40.2060
20
96.2996
0
VERTEX
8
CUT
10
40.1029
20
96.6114
0
VERTEX
8
CUT
10
38.8247
20
97.7856
0
VERTEX
8
CUT
10
38.3301
20
97.8001
0
VERTEX
8
CUT
10
37.9705
20
97.1277
0
SEQEND
0
POLYLINE
8
CUT
66
1
70
1
10
0.0
20
0.0
30
0.0
0
VERTEX
8
CUT
10
37.9513
20
104.2140
0
VERTEX
8
CUT
10
37.9158
20
104.1880
0
VERTEX
8
CUT
10
37.9615
20
104.2002
0
SEQEND
0
POLYLINE
8
CUT
66
1
70
1
10
0.0
20
0.0
30
0.0
0
VERTEX
8
CUT
10
33.5586
20
104.4589
0
VERTEX
8
CUT
10
33.5164
20
104.5732
0
VERTEX
8
CUT
10
33.4860
20
104.6911
0
VERTEX
8
CUT
10
33.4677
20
104.8115
0
VERTEX
8
CUT
10
33.4307
20
105.1807
0
VERTEX
8
CUT
10
32.7455
20
103.7398
0
VERTEX
8
CUT
10
32.8549
20
103.3800
0
VERTEX
8
CUT
10
33.2875
20
103.1592
0
VERTEX
8
CUT
10
34.5965
20
103.4598
0
VERTEX
8
CUT
10
34.5730
20
103.5377
0
VERTEX
8
CUT
10
34.5509
20
103.6492
0
VERTEX
8
CUT
10
34.1339
20
103.8535
0
VERTEX
8
CUT
10
34.0273
20
103.9126
0
VERTEX
8
CUT
10
33.9274
20
103.9821
0
VERTEX
8
CUT
10
33.8349
20
104.0615
0
VERTEX
8
CUT
10
33.7510
20
104.1497
0
VERTEX
8
CUT
10
33.6765
20
104.2461
0
VERTEX
8
CUT
10
33.6121
20
104.3495
0
SEQEND
0
POLYLINE
8
CUT
66
1
70
1
10
0.0
20
0.0
30
0.0
0
VERTEX
8
CUT
10
28.7288
20
79.0104
0
VERTEX
8
CUT
10
28.6053
20
79.6468
0
VERTEX
8
CUT
10
27.9462
20
79.0887
0
VERTEX
8
CUT
10
26.9693
20
77.1474
0
VERTEX
8
CUT
10
26.7695
20
75.9175
0
VERTEX
8
CUT
10
27.7059
20
76.8146
0
VERTEX
8
CUT
10
28.3841
20
78.1036
0
SEQEND
0
POLYLINE
8
CUT
66
1
70
1
10
0.0
20
0.0
30
0.0
0
VERTEX
8
CUT
10
23.2503
20
55.4839
0
VERTEX
8
CUT
10
22.5741
20
54.5277
0
VERTEX
8
CUT
10
21.8567
20
52.7984
0
VERTEX
8
CUT
10
21.8483
20
52.1275
0
VERTEX
8
CUT
10
22.0355
20
51.8307
0
VERTEX
8
CUT
10
22.5661
20
52.1365
0
VERTEX
8
CUT
10
22.9667
20
52.8818
0
VERTEX
8
CUT
10
23.5914
20
54.4542
0
VERTEX
8
CUT
10
23.8014
20
55.6474
0
VERTEX
8
CUT
10
23.5790
20
55.7165
0
SEQEND
0
POLYLINE
8
CUT
66
1
70
1
10
0.0
20
0.0
30
0.0
0
VERTEX
8
CUT
10
74.5204
20
121.9699
0
VERTEX
8
CUT
10
74.7754
20
121.3221
0
VERTEX
8
CUT
10
73.7025
20
120.0032
0
VERTEX
8
CUT
10
73.7119
20
119.5991
0
VERTEX
8
CUT
10
73.9587
20
119.3558
0
VERTEX
8
CUT
10
75.3560
20
119.0008
0
VERTEX
8
CUT
10
75.9626
20
119.0008
0
VERTEX
8
CUT
10
76.6591
20
118.9949
0
VERTEX
8
CUT
10
76.6740
20
119.0008
0
VERTEX
8
CUT
10
77.2692
20
119.0008
0
VERTEX
8
CUT
10
78.2560
20
119.3129
0
VERTEX
8
CUT
10
78.2980
20
119.3154
0
VERTEX
8
CUT
10
78.4883
20
119.3863
0
VERTEX
8
CUT
10
79.9648
20
119.8532
0
VERTEX
8
CUT
10
80.2450
20
119.6775
0
VERTEX
8
CUT
10
80.6875
20
119.4001
0
VERTEX
8
CUT
10
80.7634
20
119.3525
0
VERTEX
8
CUT
10
80.7863
20
119.3381
0
VERTEX
8
CUT
10
81.1614
20
118.7531
0
VERTEX
8
CUT
10
81.5655
20
118.7100
0
VERTEX
8
CUT
10
83.1049
20
119.9078
0
VERTEX
8
CUT
10
83.5778
20
120.7248
0
VERTEX
8
CUT
10
83.7248
20
120.8673
0
VERTEX
8
CUT
10
84.2238
20
121.8408
0
VERTEX
8
CUT
10
84.3360
20
122.0346
0
VERTEX
8
CUT
10
84.9151
20
123.5647
0
VERTEX
8
CUT
10
84.9172
20
124.0282
0
VERTEX
8
CUT
10
84.9391
20
124.1018
0
VERTEX
8
CUT
10
84.9389
20
124.8402
0
VERTEX
8
CUT
10
84.9538
20
124.8769
0
VERTEX
8
CUT
10
84.9389
20
124.9238
0
VERTEX
8
CUT
10
84.9384
20
126.8178
0
VERTEX
8
CUT
10
84.9455
20
127.3908
0
VERTEX
8
CUT
10
84.9382
20
127.4081
0
VERTEX
8
CUT
10
84.9381
20
127.8710
0
VERTEX
8
CUT
10
84.9345
20
127.8860
0
VERTEX
8
CUT
10
84.9370
20
128.4419
0
VERTEX
8
CUT
10
84.3904
20
130.7460
0
VERTEX
8
CUT
10
84.3946
20
131.2381
0
VERTEX
8
CUT
10
84.3988
20
131.4637
0
VERTEX
8
CUT
10
84.4314
20
132.8077
0
VERTEX
8
CUT
10
84.8787
20
133.6099
0
VERTEX
8
CUT
10
85.5942
20
134.2297
0
VERTEX
8
CUT
10
85.6384
20
134.2513
0
VERTEX
8
CUT
10
85.6750
20
134.2499
0
VERTEX
8
CUT
10
87.0817
20
133.6678
0
VERTEX
8
CUT
10
87.2671
20
133.7223
0
VERTEX
8
CUT
10
87.3673
20
133.6716
0
VERTEX
8
CUT
10
87.5816
20
133.8148
0
VERTEX
8
CUT
10
87.7803
20
133.8732
0
VERTEX
8
CUT
10
87.8229
20
133.9760
0
VERTEX
8
CUT
10
87.8830
20
134.0162
0
VERTEX
8
CUT
10
87.9345
20
134.2451
0
VERTEX
8
CUT
10
88.2262
20
134.9485
0
VERTEX
8
CUT
10
88.2771
20
135.7695
0
VERTEX
8
CUT
10
88.3541
20
136.1119
0
VERTEX
8
CUT
10
88.5233
20
136.5459
0
VERTEX
8
CUT
10
88.5212
20
136.8556
0
VERTEX
8
CUT
10
88.5292
20
136.8911
0
VERTEX
8
CUT
10
88.5286
20
137.4537
0
VERTEX
8
CUT
10
88.5511
20
137.5097
0
VERTEX
8
CUT
10
88.5283
20
137.6525
0
VERTEX
8
CUT
10
88.5246
20
141.0186
0
VERTEX
8
CUT
10
88.5499
20
141.1794
0
VERTEX
8
CUT
10
88.5243
20
141.2443
0
VERTEX
8
CUT
10
88.5230
20
142.4469
0
VERTEX
8
CUT
10
88.4827
20
142.5776
0
VERTEX
8
CUT
10
88.4805
20
142.9122
0
VERTEX
8
CUT
10
88.2243
20
143.4173
0
VERTEX
8
CUT
10
88.2057
20
143.4779
0
VERTEX
8
CUT
10
88.1047
20
143.6533
0
VERTEX
8
CUT
10
87.2821
20
145.2751
0
VERTEX
8
CUT
10
87.0412
20
145.4996
0
VERTEX
8
CUT
10
87.0076
20
145.5580
0
VERTEX
8
CUT
10
84.9870
20
147.4533
0
VERTEX
8
CUT
10
84.4044
20
148.6439
0
VERTEX
8
CUT
10
83.7073
20
151.8621
0
VERTEX
8
CUT
10
83.7035
20
151.8844
0
VERTEX
8
CUT
10
83.6662
20
151.9386
0
VERTEX
8
CUT
10
79.3175
20
158.4945
0
VERTEX
8
CUT
10
76.9374
20
163.5535
0
VERTEX
8
CUT
10
75.7203
20
166.8897
0
VERTEX
8
CUT
10
75.3247
20
168.9214
0
VERTEX
8
CUT
10
74.4915
20
171.4871
0
VERTEX
8
CUT
10
74.4276
20
172.5004
0
VERTEX
8
CUT
10
73.8841
20
174.5375
0
VERTEX
8
CUT
10
73.5243
20
178.4905
0
VERTEX
8
CUT
10
73.2745
20
179.1139
0
VERTEX
8
CUT
10
73.2120
20
180.9520
0
VERTEX
8
CUT
10
72.6112
20
183.3694
0
VERTEX
8
CUT
10
71.2124
20
186.7206
0
VERTEX
8
CUT
10
70.5949
20
188.5715
0
VERTEX
8
CUT
10
70.5098
20
189.3736
0
VERTEX
8
CUT
10
69.6943
20
191.5736
0
VERTEX
8
CUT
10
68.1802
20
198.2539
0
VERTEX
8
CUT
10
68.1249
20
199.7840
0
VERTEX
8
CUT
10
67.8650
20
200.5916
0
VERTEX
8
CUT
10
67.8557
20
203.6484
0
VERTEX
8
CUT
10
67.9293
20
204.2729
0
VERTEX
8
CUT
10
68.4210
20
205.2314
0
VERTEX
8
CUT
10
68.4297
20
205.6889
0
VERTEX
8
CUT
10
68.4533
20
205.7326
0
VERTEX
8
CUT
10
68.4313
20
205.7770
0
VERTEX
8
CUT
10
68.4360
20
206.0242
0
VERTEX
8
CUT
10
67.9101
20
207.1348
0
VERTEX
8
CUT
10
67.2646
20
209.3976
0
VERTEX
8
CUT
10
67.2658
20
209.6425
0
VERTEX
8
CUT
10
67.2660
20
209.6874
0
VERTEX
8
CUT
10
67.2661
20
209.7068
0
VERTEX
8
CUT
10
67.2692
20
210.3606
0
VERTEX
8
CUT
10
67.2909
20
211.6514
0
VERTEX
8
CUT
10
68.1438
20
213.7617
0
VERTEX
8
CUT
10
67.5739
20
216.3488
0
VERTEX
8
CUT
10
67.5709
20
217.3515
0
VERTEX
8
CUT
10
67.5787
20
218.9940
0
VERTEX
8
CUT
10
68.2636
20
221.4578
0
VERTEX
8
CUT
10
70.0723
20
223.9076
0
VERTEX
8
CUT
10
69.9245
20
225.3366
0
VERTEX
8
CUT
10
69.6699
20
225.9984
0
VERTEX
8
CUT
10
69.6804
20
227.9435
0
VERTEX
8
CUT
10
69.6810
20
228.0448
0
VERTEX
8
CUT
10
69.6810
20
228.0496
0
VERTEX
8
CUT
10
69.6810
20
228.0499
0
VERTEX
8
CUT
10
69.9722
20
229.2870
0
VERTEX
8
CUT
10
70.3939
20
230.1673
0
VERTEX
8
CUT
10
70.4498
20
230.2840
0
VERTEX
8
CUT
10
70.5713
20
230.5376
0
VERTEX
8
CUT
10
70.6701
20
230.7439
0
VERTEX
8
CUT
10
71.6151
20
231.9365
0
VERTEX
8
CUT
10
71.8270
20
232.1484
0
VERTEX
8
CUT
10
71.9086
20
232.2299
0
VERTEX
8
CUT
10
72.0922
20
232.4136
0
VERTEX
8
CUT
10
72.2581
20
232.5795
0
VERTEX
8
CUT
10
73.7334
20
233.5250
0
VERTEX
8
CUT
10
73.7477
20
233.5320
0
VERTEX
8
CUT
10
75.7122
20
233.6629
0
VERTEX
8
CUT
10
77.2155
20
233.3073
0
VERTEX
8
CUT
10
77.2536
20
233.2924
0
VERTEX
8
CUT
10
77.2649
20
233.2880
0
VERTEX
8
CUT
10
77.2650
20
233.2879
0
VERTEX
8
CUT
10
77.3004
20
233.2742
0
VERTEX
8
CUT
10
80.0077
20
231.7531
0
VERTEX
8
CUT
10
82.1408
20
229.7039
0
VERTEX
8
CUT
10
82.9317
20
228.8009
0
VERTEX
8
CUT
10
84.1207
20
226.1210
0
VERTEX
8
CUT
10
84.4361
20
224.3874
0
VERTEX
8
CUT
10
84.4412
20
224.0055
0
VERTEX
8
CUT
10
84.1943
20
222.7469
0
VERTEX
8
CUT
10
84.2001
20
219.4540
0
VERTEX
8
CUT
10
85.0358
20
216.4611
0
VERTEX
8
CUT
10
85.0490
20
215.3809
0
VERTEX
8
CUT
10
83.3309
20
212.2294
0
VERTEX
8
CUT
10
83.2286
20
211.3871
0
VERTEX
8
CUT
10
82.9085
20
210.7344
0
VERTEX
8
CUT
10
80.6039
20
207.6576
0
VERTEX
8
CUT
10
80.2111
20
205.9346
0
VERTEX
8
CUT
10
79.6947
20
204.9227
0
VERTEX
8
CUT
10
79.6979
20
204.3231
0
VERTEX
8
CUT
10
79.9721
20
203.7114
0
VERTEX
8
CUT
10
79.3766
20
201.5947
0
VERTEX
8
CUT
10
79.4060
20
200.4043
0
VERTEX
8
CUT
10
79.9091
20
199.4263
0
VERTEX
8
CUT
10
80.5482
20
197.1053
0
VERTEX
8
CUT
10
80.5587
20
194.8748
0
VERTEX
8
CUT
10
80.2936
20
194.0683
0
VERTEX
8
CUT
10
80.3067
20
192.5989
0
VERTEX
8
CUT
10
81.8288
20
188.6317
0
VERTEX
8
CUT
10
83.3302
20
185.9350
0
VERTEX
8
CUT
10
84.2190
20
185.2947
0
VERTEX
8
CUT
10
85.1772
20
184.0738
0
VERTEX
8
CUT
10
87.2480
20
182.3640
0
VERTEX
8
CUT
10
91.7325
20
179.9579
0
VERTEX
8
CUT
10
95.9852
20
178.8113
0
VERTEX
8
CUT
10
103.4910
20
178.7527
0
VERTEX
8
CUT
10
106.1726
20
179.0480
0
VERTEX
8
CUT
10
107.2362
20
179.5751
0
VERTEX
8
CUT
10
108.6111
20
179.6564
0
VERTEX
8
CUT
10
111.9109
20
181.1510
0
VERTEX
8
CUT
10
113.7150
20
182.6047
0
VERTEX
8
CUT
10
116.8598
20
185.9039
0
VERTEX
8
CUT
10
117.2419
20
185.8421
0
VERTEX
8
CUT
10
117.7015
20
185.4045
0
VERTEX
8
CUT
10
117.8647
20
183.4182
0
VERTEX
8
CUT
10
118.2247
20
183.2460
0
VERTEX
8
CUT
10
118.5473
20
183.4810
0
VERTEX
8
CUT
10
118.5666
20
185.2423
0
VERTEX
8
CUT
10
118.2968
20
186.0690
0
VERTEX
8
CUT
10
118.3225
20
187.3395
0
VERTEX
8
CUT
10
120.0523
20
191.6966
0
VERTEX
8
CUT
10
120.3587
20
192.9875
0
VERTEX
8
CUT
10
120.4549
20
195.5432
0
VERTEX
8
CUT
10
121.3511
20
197.9284
0
VERTEX
8
CUT
10
122.1546
20
199.2164
0
VERTEX
8
CUT
10
122.4876
20
202.2381
0
VERTEX
8
CUT
10
122.2592
20
202.9698
0
VERTEX
8
CUT
10
122.3984
20
203.4614
0
VERTEX
8
CUT
10
122.1916
20
203.9986
0
VERTEX
8
CUT
10
122.3176
20
204.5042
0
VERTEX
8
CUT
10
122.1232
20
206.2327
0
VERTEX
8
CUT
10
120.7933
20
207.9617
0
VERTEX
8
CUT
10
120.0394
20
209.7755
0
VERTEX
8
CUT
10
118.3962
20
211.8501
0
VERTEX
8
CUT
10
118.2272
20
213.1163
0
VERTEX
8
CUT
10
117.3286
20
214.5839
0
VERTEX
8
CUT
10
116.3025
20
215.7469
0
VERTEX
8
CUT
10
115.9707
20
216.6770
0
VERTEX
8
CUT
10
116.7057
20
218.7255
0
VERTEX
8
CUT
10
116.2063
20
220.6616
0
VERTEX
8
CUT
10
116.2330
20
225.7603
0
VERTEX
8
CUT
10
116.5598
20
227.0906
0
VERTEX
8
CUT
10
118.0899
20
229.7880
0
VERTEX
8
CUT
10
118.2964
20
229.9952
0
VERTEX
8
CUT
10
118.4174
20
230.1165
0
VERTEX
8
CUT
10
118.5520
20
230.2516
0
VERTEX
8
CUT
10
119.2291
20
230.9309
0
VERTEX
8
CUT
10
121.5393
20
232.6567
0
VERTEX
8
CUT
10
123.1448
20
233.3137
0
VERTEX
8
CUT
10
124.6599
20
233.6421
0
VERTEX
8
CUT
10
126.2707
20
233.6226
0
VERTEX
8
CUT
10
127.0997
20
233.2906
0
VERTEX
8
CUT
10
128.8369
20
231.5534
0
VERTEX
8
CUT
10
130.3280
20
228.2883
0
VERTEX
8
CUT
10
130.3675
20
227.2714
0
VERTEX
8
CUT
10
130.3767
20
226.6312
0
VERTEX
8
CUT
10
130.3788
20
226.4870
0
VERTEX
8
CUT
10
130.3790
20
226.4723
0
VERTEX
8
CUT
10
130.3801
20
226.3949
0
VERTEX
8
CUT
10
130.1280
20
225.5901
0
VERTEX
8
CUT
10
130.1392
20
224.3277
0
VERTEX
8
CUT
10
130.1166
20
224.2182
0
VERTEX
8
CUT
10
130.1405
20
224.1899
0
VERTEX
8
CUT
10
130.1411
20
224.1208
0
VERTEX
8
CUT
10
130.2786
20
223.9224
0
VERTEX
8
CUT
10
130.2442
20
223.7453
0
VERTEX
8
CUT
10
131.2106
20
222.5778
0
VERTEX
8
CUT
10
131.4471
20
222.2365
0
VERTEX
8
CUT
10
132.0384
20
220.8351
0
VERTEX
8
CUT
10
132.2708
20
219.9059
0
VERTEX
8
CUT
10
132.3721
20
217.1234
0
VERTEX
8
CUT
10
132.3867
20
217.1086
0
VERTEX
8
CUT
10
132.3209
20
215.7147
0
VERTEX
8
CUT
10
132.2295
20
215.3831
0
VERTEX
8
CUT
10
132.2261
20
214.7740
0
VERTEX
8
CUT
10
132.1461
20
214.7834
0
VERTEX
8
CUT
10
132.0861
20
214.0365
0
VERTEX
8
CUT
10
132.3136
20
213.5762
0
VERTEX
8
CUT
10
132.7627
20
212.5858
0
VERTEX
8
CUT
10
133.0998
20
210.8508
0
VERTEX
8
CUT
10
133.0992
20
210.8080
0
VERTEX
8
CUT
10
133.0991
20
210.7949
0
VERTEX
8
CUT
10
133.0989
20
210.7811
0
VERTEX
8
CUT
10
133.0988
20
210.7675
0
VERTEX
8
CUT
10
132.4627
20
207.7846
0
VERTEX
8
CUT
10
131.6129
20
206.0318
0
VERTEX
8
CUT
10
132.1990
20
203.9988
0
VERTEX
8
CUT
10
132.1894
20
201.1603
0
VERTEX
8
CUT
10
131.9311
20
200.3753
0
VERTEX
8
CUT
10
131.8761
20
198.5665
0
VERTEX
8
CUT
10
131.6376
20
198.0370
0
VERTEX
8
CUT
10
131.5740
20
196.7383
0
VERTEX
8
CUT
10
130.7337
20
193.8244
0
VERTEX
8
CUT
10
130.3612
20
191.5734
0
VERTEX
8
CUT
10
128.6150
20
186.3370
0
VERTEX
8
CUT
10
128.4976
20
186.0338
0
VERTEX
8
CUT
10
128.0405
20
185.1574
0
VERTEX
8
CUT
10
127.1312
20
182.1164
0
VERTEX
8
CUT
10
125.5771
20
172.1510
0
VERTEX
8
CUT
10
125.0342
20
170.7339
0
VERTEX
8
CUT
10
124.0414
20
166.6074
0
VERTEX
8
CUT
10
123.5374
20
165.6439
0
VERTEX
8
CUT
10
122.2384
20
161.8034
0
VERTEX
8
CUT
10
120.7568
20
158.5326
0
VERTEX
8
CUT
10
116.6455
20
152.4559
0
VERTEX
8
CUT
10
116.0536
20
151.2873
0
VERTEX
8
CUT
10
116.0467
20
151.2457
0
VERTEX
8
CUT
10
116.0268
20
151.2046
0
VERTEX
8
CUT
10
116.0221
20
151.0976
0
VERTEX
8
CUT
10
115.5978
20
148.5358
0
VERTEX
8
CUT
10
115.5221
20
148.3824
0
VERTEX
8
CUT
10
115.1913
20
147.8594
0
VERTEX
8
CUT
10
114.2877
20
146.8609
0
VERTEX
8
CUT
10
114.1110
20
146.6657
0
VERTEX
8
CUT
10
114.0148
20
146.5593
0
VERTEX
8
CUT
10
113.8814
20
146.4120
0
VERTEX
8
CUT
10
113.7611
20
146.2832
0
VERTEX
8
CUT
10
113.7103
20
146.2380
0
VERTEX
8
CUT
10
113.6960
20
146.2134
0
VERTEX
8
CUT
10
113.0477
20
145.5193
0
VERTEX
8
CUT
10
112.4367
20
144.3497
0
VERTEX
8
CUT
10
112.1141
20
142.7869
0
VERTEX
8
CUT
10
112.1164
20
142.2864
0
VERTEX
8
CUT
10
112.1163
20
142.2862
0
VERTEX
8
CUT
10
112.1164
20
141.6750
0
VERTEX
8
CUT
10
112.1106
20
141.6568
0
VERTEX
8
CUT
10
112.1164
20
141.3289
0
VERTEX
8
CUT
10
112.1167
20
138.1813
0
VERTEX
8
CUT
10
112.1358
20
138.0893
0
VERTEX
8
CUT
10
112.1377
20
137.6828
0
VERTEX
8
CUT
10
112.7223
20
134.9687
0
VERTEX
8
CUT
10
113.1459
20
134.1847
0
VERTEX
8
CUT
10
113.8846
20
133.9866
0
VERTEX
8
CUT
10
115.1176
20
134.5079
0
VERTEX
8
CUT
10
115.7226
20
134.2074
0
VERTEX
8
CUT
10
115.9794
20
133.9916
0
VERTEX
8
CUT
10
116.2161
20
133.6616
0
VERTEX
8
CUT
10
116.2329
20
133.6314
0
VERTEX
8
CUT
10
116.2384
20
133.6213
0
VERTEX
8
CUT
10
116.2400
20
133.6185
0
VERTEX
8
CUT
10
116.2421
20
133.6148
0
VERTEX
8
CUT
10
116.5430
20
132.3542
0
VERTEX
8
CUT
10
116.5438
20
132.3204
0
VERTEX
8
CUT
10
116.5488
20
132.0978
0
VERTEX
8
CUT
10
116.5505
20
132.0234
0
VERTEX
8
CUT
10
116.5523
20
131.9457
0
VERTEX
8
CUT
10
115.7296
20
128.3429
0
VERTEX
8
CUT
10
115.7306
20
128.0338
0
VERTEX
8
CUT
10
115.7230
20
128.0036
0
VERTEX
8
CUT
10
115.7188
20
125.7827
0
VERTEX
8
CUT
10
115.7171
20
125.4695
0
VERTEX
8
CUT
10
115.7182
20
125.4647
0
VERTEX
8
CUT
10
115.7178
20
125.2108
0
VERTEX
8
CUT
10
115.7404
20
125.1272
0
VERTEX
8
CUT
10
115.7416
20
124.7392
0
VERTEX
8
CUT
10
116.2993
20
123.0582
0
VERTEX
8
CUT
10
116.3324
20
122.9356
0
VERTEX
8
CUT
10
116.3512
20
122.9017
0
VERTEX
8
CUT
10
116.6452
20
122.0153
0
VERTEX
8
CUT
10
117.9977
20
120.0288
0
VERTEX
8
CUT
10
119.3720
20
119.0183
0
VERTEX
8
CUT
10
119.4707
20
119.0275
0
VERTEX
8
CUT
10
119.5151
20
118.9864
0
VERTEX
8
CUT
10
119.6521
20
119.0445
0
VERTEX
8
CUT
10
119.8023
20
119.0585
0
VERTEX
8
CUT
10
119.8457
20
119.1265
0
VERTEX
8
CUT
10
119.9164
20
119.1565
0
VERTEX
8
CUT
10
120.3801
20
119.8975
0
VERTEX
8
CUT
10
121.0647
20
120.1645
0
VERTEX
8
CUT
10
123.2589
20
119.3158
0
VERTEX
8
CUT
10
124.3095
20
119.2428
0
VERTEX
8
CUT
10
124.8460
20
118.9921
0
VERTEX
8
CUT
10
126.6523
20
119.3246
0
VERTEX
8
CUT
10
126.6691
20
119.3503
0
VERTEX
8
CUT
10
126.6861
20
119.3505
0
VERTEX
8
CUT
10
126.7791
20
119.5184
0
VERTEX
8
CUT
10
126.9930
20
119.8451
0
VERTEX
8
CUT
10
126.9760
20
119.8736
0
VERTEX
8
CUT
10
126.9829
20
119.8861
0
VERTEX
8
CUT
10
126.8997
20
120.0017
0
VERTEX
8
CUT
10
126.1501
20
121.2593
0
VERTEX
8
CUT
10
126.1567
20
121.3052
0
VERTEX
8
CUT
10
126.1602
20
121.3300
0
VERTEX
8
CUT
10
126.1681
20
121.3843
0
VERTEX
8
CUT
10
126.1942
20
121.5655
0
VERTEX
8
CUT
10
126.2721
20
121.8534
0
VERTEX
8
CUT
10
126.5990
20
122.1083
0
VERTEX
8
CUT
10
126.7961
20
122.2465
0
VERTEX
8
CUT
10
126.8442
20
122.2495
0
VERTEX
8
CUT
10
128.4973
20
122.3448
0
VERTEX
8
CUT
10
128.5133
20
122.3529
0
VERTEX
8
CUT
10
128.7318
20
122.3664
0
VERTEX
8
CUT
10
129.0481
20
122.6237
0
VERTEX
8
CUT
10
129.1984
20
122.6998
0
VERTEX
8
CUT
10
129.2200
20
122.7635
0
VERTEX
8
CUT
10
130.4464
20
123.7609
0
VERTEX
8
CUT
10
131.9682
20
123.5003
0
VERTEX
8
CUT
10
135.6091
20
123.5231
0
VERTEX
8
CUT
10
137.7431
20
124.1193
0
VERTEX
8
CUT
10
141.4394
20
125.8835
0
VERTEX
8
CUT
10
141.9247
20
125.7668
0
VERTEX
8
CUT
10
142.1031
20
125.4324
0
VERTEX
8
CUT
10
141.7168
20
124.2106
0
VERTEX
8
CUT
10
140.6653
20
122.8329
0
VERTEX
8
CUT
10
137.4070
20
119.5869
0
VERTEX
8
CUT
10
133.3057
20
116.6086
0
VERTEX
8
CUT
10
133.2869
20
116.1661
0
VERTEX
8
CUT
10
133.9803
20
115.7203
0
VERTEX
8
CUT
10
134.3100
20
115.1517
0
VERTEX
8
CUT
10
133.1616
20
113.7941
0
VERTEX
8
CUT
10
131.2828
20
112.3145
0
VERTEX
8
CUT
10
127.1990
20
110.3775
0
VERTEX
8
CUT
10
127.2232
20
109.7280
0
VERTEX
8
CUT
10
128.4097
20
109.2522
0
VERTEX
8
CUT
10
128.8394
20
108.7595
0
VERTEX
8
CUT
10
128.8557
20
108.1732
0
VERTEX
8
CUT
10
128.3790
20
107.4856
0
VERTEX
8
CUT
10
126.8351
20
106.6318
0
VERTEX
8
CUT
10
125.5131
20
106.3042
0
VERTEX
8
CUT
10
121.8118
20
106.1664
0
VERTEX
8
CUT
10
121.5755
20
105.6545
0
VERTEX
8
CUT
10
122.2559
20
104.2088
0
VERTEX
8
CUT
10
122.2316
20
103.2381
0
VERTEX
8
CUT
10
121.3798
20
102.4182
0
VERTEX
8
CUT
10
119.9052
20
102.3858
0
VERTEX
8
CUT
10
117.0242
20
103.6513
0
VERTEX
8
CUT
10
113.7828
20
106.1366
0
VERTEX
8
CUT
10
113.3517
20
105.9459
0
VERTEX
8
CUT
10
113.2236
20
105.0860
0
VERTEX
8
CUT
10
112.9039
20
104.6306
0
VERTEX
8
CUT
10
112.3274
20
104.4530
0
VERTEX
8
CUT
10
111.7941
20
104.6638
0
VERTEX
8
CUT
10
110.5661
20
106.2114
0
VERTEX
8
CUT
10
108.7594
20
109.8163
0
VERTEX
8
CUT
10
107.8206
20
112.6190
0
VERTEX
8
CUT
10
106.9147
20
116.2575
0
VERTEX
8
CUT
10
106.5471
20
120.2503
0
VERTEX
8
CUT
10
106.2990
20
121.0227
0
VERTEX
8
CUT
10
106.3016
20
126.4662
0
VERTEX
8
CUT
10
106.5507
20
127.2312
0
VERTEX
8
CUT
10
106.6139
20
129.0853
0
VERTEX
8
CUT
10
107.1468
20
131.1101
0
VERTEX
8
CUT
10
107.0794
20
132.7285
0
VERTEX
8
CUT
10
106.6300
20
132.8375
0
VERTEX
8
CUT
10
106.1679
20
132.3843
0
VERTEX
8
CUT
10
105.7059
20
130.8309
0
VERTEX
8
CUT
10
104.9522
20
129.7826
0
VERTEX
8
CUT
10
104.2081
20
129.7105
0
VERTEX
8
CUT
10
103.5267
20
130.5797
0
VERTEX
8
CUT
10
102.9940
20
130.4517
0
VERTEX
8
CUT
10
101.6180
20
126.9036
0
VERTEX
8
CUT
10
101.5413
20
126.1281
0
VERTEX
8
CUT
10
101.0132
20
124.7765
0
VERTEX
8
CUT
10
100.9224
20
123.6636
0
VERTEX
8
CUT
10
100.5663
20
123.2489
0
VERTEX
8
CUT
10
100.1458
20
123.0994
0
VERTEX
8
CUT
10
99.7541
20
123.2279
0
VERTEX
8
CUT
10
99.4640
20
123.6239
0
VERTEX
8
CUT
10
99.0411
20
125.6915
0
VERTEX
8
CUT
10
98.1329
20
128.4182
0
VERTEX
8
CUT
10
97.2758
20
130.0586
0
VERTEX
8
CUT
10
96.7701
20
130.1841
0
VERTEX
8
CUT
10
96.1431
20
129.4182
0
VERTEX
8
CUT
10
95.3804
20
129.4798
0
VERTEX
8
CUT
10
94.2101
20
131.7382
0
VERTEX
8
CUT
10
93.8213
20
132.1811
0
VERTEX
8
CUT
10
93.4584
20
132.2316
0
VERTEX
8
CUT
10
93.2074
20
131.8069
0
VERTEX
8
CUT
10
94.3370
20
127.0006
0
VERTEX
8
CUT
10
94.4035
20
124.8564
0
VERTEX
8
CUT
10
94.6503
20
124.1147
0
VERTEX
8
CUT
10
94.6692
20
118.8981
0
VERTEX
8
CUT
10
94.4095
20
117.8414
0
VERTEX
8
CUT
10
94.3613
20
115.8105
0
VERTEX
8
CUT
10
94.1052
20
115.1543
0
VERTEX
8
CUT
10
94.0553
20
114.2110
0
VERTEX
8
CUT
10
93.8081
20
113.6690
0
VERTEX
8
CUT
10
93.4357
20
111.4179
0
VERTEX
8
CUT
10
92.8180
20
109.5673
0
VERTEX
8
CUT
10
91.2820
20
106.4984
0
VERTEX
8
CUT
10
89.7080
20
104.5990
0
VERTEX
8
CUT
10
89.3985
20
104.5450
0
VERTEX
8
CUT
10
88.7811
20
104.8479
0
VERTEX
8
CUT
10
88.4287
20
105.7569
0
VERTEX
8
CUT
10
87.8895
20
105.9350
0
VERTEX
8
CUT
10
84.4719
20
103.3156
0
VERTEX
8
CUT
10
83.2645
20
102.7156
0
VERTEX
8
CUT
10
81.0875
20
102.0523
0
VERTEX
8
CUT
10
80.0593
20
102.4608
0
VERTEX
8
CUT
10
79.5819
20
103.3818
0
VERTEX
8
CUT
10
79.6182
20
103.9603
0
VERTEX
8
CUT
10
80.4395
20
105.5908
0
VERTEX
8
CUT
10
80.2810
20
106.0947
0
VERTEX
8
CUT
10
79.8701
20
106.2560
0
VERTEX
8
CUT
10
79.0306
20
105.9725
0
VERTEX
8
CUT
10
76.0756
20
105.9959
0
VERTEX
8
CUT
10
73.1534
20
107.2646
0
VERTEX
8
CUT
10
72.7544
20
108.2288
0
VERTEX
8
CUT
10
74.4203
20
109.6716
0
VERTEX
8
CUT
10
74.4077
20
110.1736
0
VERTEX
8
CUT
10
74.0613
20
110.4342
0
VERTEX
8
CUT
10
73.3105
20
110.5038
0
VERTEX
8
CUT
10
71.7490
20
111.1124
0
VERTEX
8
CUT
10
69.8916
20
112.0571
0
VERTEX
8
CUT
10
68.5392
20
113.0628
0
VERTEX
8
CUT
10
66.9634
20
114.8211
0
VERTEX
8
CUT
10
67.0914
20
115.5184
0
VERTEX
8
CUT
10
67.8334
20
116.1350
0
VERTEX
8
CUT
10
67.7663
20
116.5630
0
VERTEX
8
CUT
10
64.1677
20
118.9896
0
VERTEX
8
CUT
10
62.4029
20
120.4240
0
VERTEX
8
CUT
10
60.3221
20
122.5145
0
VERTEX
8
CUT
10
58.8702
20
124.6329
0
VERTEX
8
CUT
10
58.9139
20
125.0116
0
VERTEX
8
CUT
10
59.3326
20
125.4641
0
VERTEX
8
CUT
10
59.6995
20
125.5732
0
VERTEX
8
CUT
10
62.0120
20
124.4195
0
VERTEX
8
CUT
10
64.7683
20
123.5108
0
VERTEX
8
CUT
10
66.2406
20
123.4633
0
VERTEX
8
CUT
10
66.8543
20
123.2100
0
VERTEX
8
CUT
10
67.5559
20
123.1892
0
VERTEX
8
CUT
10
70.4851
20
123.7718
0
VERTEX
8
CUT
10
70.8591
20
123.5657
0
VERTEX
8
CUT
10
71.6086
20
122.3319
0
VERTEX
8
CUT
10
73.8997
20
122.2598
0
VERTEX
8
CUT
10
73.9317
20
122.2585
0
VERTEX
8
CUT
10
73.9330
20
122.2584
0
VERTEX
8
CUT
10
73.9384
20
122.2582
0
VERTEX
8
CUT
10
73.9659
20
122.2570
0
VERTEX
8
CUT
10
74.2979
20
122.1273
0
SEQEND
0
POLYLINE
8
CUT
66
1
70
1
10
0.0
20
0.0
30
0.0
0
VERTEX
8
CUT
10
116.7327
20
169.8267
0
VERTEX
8
CUT
10
116.5069
20
170.1193
0
VERTEX
8
CUT
10
116.1678
20
170.1578
0
VERTEX
8
CUT
10
116.1739
20
170.4724
0
VERTEX
8
CUT
10
115.3701
20
172.1091
0
VERTEX
8
CUT
10
114.8518
20
171.9438
0
VERTEX
8
CUT
10
114.6115
20
170.5577
0
VERTEX
8
CUT
10
114.8186
20
170.0818
0
VERTEX
8
CUT
10
115.9445
20
169.9544
0
VERTEX
8
CUT
10
116.0439
20
168.5394
0
VERTEX
8
CUT
10
116.3470
20
168.3351
0
VERTEX
8
CUT
10
116.6600
20
168.4441
0
SEQEND
0
POLYLINE
8
CUT
66
1
70
1
10
0.0
20
0.0
30
0.0
0
VERTEX
8
CUT
10
108.5686
20
140.4755
0
VERTEX
8
CUT
10
108.6400
20
139.4163
0
VERTEX
8
CUT
10
108.9586
20
138.9903
0
VERTEX
8
CUT
10
109.9113
20
139.7892
0
VERTEX
8
CUT
10
110.1046
20
140.5008
0
VERTEX
8
CUT
10
109.6963
20
143.2369
0
VERTEX
8
CUT
10
109.4398
20
143.3788
0
VERTEX
8
CUT
10
108.9328
20
142.6221
0
SEQEND
0
POLYLINE
8
CUT
66
1
70
1
10
0.0
20
0.0
30
0.0
0
VERTEX
8
CUT
10
15.1754
20
212.8107
0
VERTEX
8
CUT
10
15.6187
20
213.1885
0
VERTEX
8
CUT
10
15.7000
20
213.1954
0
VERTEX
8
CUT
10
16.0162
20
213.1459
0
VERTEX
8
CUT
10
19.7139
20
209.6853
0
VERTEX
8
CUT
10
20.4804
20
209.1664
0
VERTEX
8
CUT
10
20.5203
20
209.1304
0
VERTEX
8
CUT
10
20.5582
20
209.1137
0
VERTEX
8
CUT
10
21.4281
20
208.5247
0
VERTEX
8
CUT
10
21.9385
20
208.7219
0
VERTEX
8
CUT
10
21.8864
20
209.4556
0
VERTEX
8
CUT
10
20.8628
20
212.5842
0
VERTEX
8
CUT
10
20.6887
20
213.6375
0
VERTEX
8
CUT
10
20.6608
20
213.6958
0
VERTEX
8
CUT
10
20.4212
20
215.6929
0
VERTEX
8
CUT
10
20.4869
20
221.0837
0
VERTEX
8
CUT
10
20.7343
20
222.9112
0
VERTEX
8
CUT
10
21.4737
20
224.9339
0
VERTEX
8
CUT
10
21.4745
20
225.0213
0
VERTEX
8
CUT
10
21.9483
20
225.2506
0
VERTEX
8
CUT
10
22.7505
20
225.1001
0
VERTEX
8
CUT
10
22.7782
20
225.0600
0
VERTEX
8
CUT
10
22.7949
20
225.0358
0
VERTEX
8
CUT
10
22.8195
20
225.0001
0
VERTEX
8
CUT
10
22.9202
20
224.8540
0
VERTEX
8
CUT
10
23.8811
20
223.1852
0
VERTEX
8
CUT
10
25.4884
20
220.9840
0
VERTEX
8
CUT
10
26.1065
20
220.3544
0
VERTEX
8
CUT
10
26.6487
20
219.7929
0
VERTEX
8
CUT
10
26.7290
20
219.6954
0
VERTEX
8
CUT
10
26.7803
20
219.6566
0
VERTEX
8
CUT
10
27.0237
20
219.4046
0
VERTEX
8
CUT
10
27.0374
20
219.4061
0
VERTEX
8
CUT
10
27.0575
20
219.3856
0
VERTEX
8
CUT
10
27.5829
20
219.4374
0
VERTEX
8
CUT
10
27.5886
20
220.0080
0
VERTEX
8
CUT
10
27.6325
20
220.3169
0
VERTEX
8
CUT
10
27.5935
20
220.4944
0
VERTEX
8
CUT
10
27.6047
20
221.5979
0
VERTEX
8
CUT
10
27.3700
20
222.4046
0
VERTEX
8
CUT
10
27.3341
20
223.2089
0
VERTEX
8
CUT
10
27.3299
20
224.4878
0
VERTEX
8
CUT
10
27.5503
20
226.9716
0
VERTEX
8
CUT
10
27.5980
20
227.2029
0
VERTEX
8
CUT
10
27.6153
20
227.7042
0
VERTEX
8
CUT
10
27.6512
20
228.1084
0
VERTEX
8
CUT
10
27.8897
20
228.6380
0
VERTEX
8
CUT
10
27.9243
20
229.4338
0
VERTEX
8
CUT
10
28.0348
20
230.0886
0
VERTEX
8
CUT
10
28.0910
20
230.4222
0
VERTEX
8
CUT
10
28.1073
20
230.5188
0
VERTEX
8
CUT
10
28.1205
20
230.5967
0
VERTEX
8
CUT
10
28.2809
20
231.2476
0
VERTEX
8
CUT
10
28.9042
20
233.1007
0
VERTEX
8
CUT
10
30.0610
20
235.4185
0
VERTEX
8
CUT
10
30.9272
20
236.2769
0
VERTEX
8
CUT
10
30.9889
20
236.3019
0
VERTEX
8
CUT
10
31.0054
20
236.3086
0
VERTEX
8
CUT
10
31.0080
20
236.3096
0
VERTEX
8
CUT
10
31.0119
20
236.3112
0
VERTEX
8
CUT
10
31.5011
20
236.1669
0
VERTEX
8
CUT
10
32.1465
20
235.5093
0
VERTEX
8
CUT
10
32.1513
20
235.5042
0
VERTEX
8
CUT
10
32.1668
20
235.4726
0
VERTEX
8
CUT
10
32.8873
20
233.9927
0
VERTEX
8
CUT
10
32.8970
20
233.9790
0
VERTEX
8
CUT
10
33.1672
20
233.4263
0
VERTEX
8
CUT
10
34.4361
20
231.5380
0
VERTEX
8
CUT
10
35.1396
20
230.8410
0
VERTEX
8
CUT
10
35.2637
20
230.8667
0
VERTEX
8
CUT
10
35.3205
20
230.8397
0
VERTEX
8
CUT
10
35.4262
20
230.9005
0
VERTEX
8
CUT
10
35.6004
20
230.9367
0
VERTEX
8
CUT
10
35.6029
20
231.0021
0
VERTEX
8
CUT
10
35.6340
20
231.0200
0
VERTEX
8
CUT
10
35.6919
20
233.3246
0
VERTEX
8
CUT
10
35.7524
20
234.9040
0
VERTEX
8
CUT
10
35.9976
20
235.5829
0
VERTEX
8
CUT
10
36.0446
20
237.6007
0
VERTEX
8
CUT
10
36.3019
20
238.2819
0
VERTEX
8
CUT
10
36.3591
20
239.5433
0
VERTEX
8
CUT
10
37.2716
20
243.5074
0
VERTEX
8
CUT
10
38.5108
20
246.9103
0
VERTEX
8
CUT
10
40.0156
20
249.9139
0
VERTEX
8
CUT
10
41.0042
20
250.7703
0
VERTEX
8
CUT
10
41.7747
20
250.1982
0
VERTEX
8
CUT
10
42.1000
20
249.5113
0
VERTEX
8
CUT
10
42.1851
20
248.7092
0
VERTEX
8
CUT
10
42.7608
20
247.6521
0
VERTEX
8
CUT
10
43.0990
20
247.5132
0
VERTEX
8
CUT
10
43.4545
20
247.7475
0
VERTEX
8
CUT
10
43.8105
20
249.4900
0
VERTEX
8
CUT
10
43.9146
20
249.9173
0
VERTEX
8
CUT
10
45.1154
20
253.2146
0
VERTEX
8
CUT
10
46.9306
20
256.8328
0
VERTEX
8
CUT
10
52.1939
20
264.2937
0
VERTEX
8
CUT
10
52.8058
20
265.5477
0
VERTEX
8
CUT
10
53.4829
20
268.7248
0
VERTEX
8
CUT
10
54.1005
20
270.5755
0
VERTEX
8
CUT
10
55.6150
20
273.6083
0
VERTEX
8
CUT
10
56.3189
20
274.6224
0
VERTEX
8
CUT
10
58.1626
20
276.5199
0
VERTEX
8
CUT
10
58.8152
20
276.8889
0
VERTEX
8
CUT
10
59.4937
20
276.6263
0
VERTEX
8
CUT
10
59.8180
20
275.9032
0
VERTEX
8
CUT
10
59.9185
20
275.1948
0
VERTEX
8
CUT
10
59.9298
20
275.0731
0
VERTEX
8
CUT
10
59.9364
20
275.0682
0
VERTEX
8
CUT
10
59.9570
20
274.9233
0
VERTEX
8
CUT
10
60.2232
20
274.7908
0
VERTEX
8
CUT
10
60.5882
20
274.9068
0
VERTEX
8
CUT
10
63.8016
20
279.6736
0
VERTEX
8
CUT
10
70.6806
20
286.7582
0
VERTEX
8
CUT
10
70.8245
20
286.8986
0
VERTEX
8
CUT
10
70.8357
20
286.9180
0
VERTEX
8
CUT
10
71.1305
20
287.2215
0
VERTEX
8
CUT
10
72.3193
20
289.2641
0
VERTEX
8
CUT
10
72.6235
20
290.5066
0
VERTEX
8
CUT
10
72.7529
20
292.2236
0
VERTEX
8
CUT
10
73.8727
20
293.3451
0
VERTEX
8
CUT
10
77.1012
20
294.3369
0
VERTEX
8
CUT
10
80.2425
20
295.7630
0
VERTEX
8
CUT
10
82.0929
20
296.1003
0
VERTEX
8
CUT
10
83.2333
20
295.5901
0
VERTEX
8
CUT
10
84.4160
20
297.0630
0
VERTEX
8
CUT
10
86.5468
20
297.8644
0
VERTEX
8
CUT
10
87.5689
20
297.9301
0
VERTEX
8
CUT
10
90.4246
20
298.7575
0
VERTEX
8
CUT
10
91.7626
20
298.8308
0
VERTEX
8
CUT
10
93.8001
20
299.3724
0
VERTEX
8
CUT
10
95.3303
20
299.4277
0
VERTEX
8
CUT
10
95.6460
20
299.5372
0
VERTEX
8
CUT
10
97.6260
20
299.7140
0
VERTEX
8
CUT
10
98.6076
20
299.7311
0
VERTEX
8
CUT
10
99.1960
20
299.8541
0
VERTEX
8
CUT
10
100.7876
20
299.9962
0
VERTEX
8
CUT
10
100.8151
20
299.9961
0
VERTEX
8
CUT
10
100.8578
20
299.9959
0
VERTEX
8
CUT
10
101.0357
20
299.9952
0
VERTEX
8
CUT
10
101.3022
20
299.9941
0
VERTEX
8
CUT
10
102.3884
20
299.9192
0
VERTEX
8
CUT
10
102.9532
20
299.8675
0
VERTEX
8
CUT
10
103.5442
20
299.7302
0
VERTEX
8
CUT
10
104.6941
20
299.7079
0
VERTEX
8
CUT
10
106.1145
20
299.5777
0
VERTEX
8
CUT
10
106.2961
20
299.5133
0
VERTEX
8
CUT
10
106.4877
20
299.4353
0
VERTEX
8
CUT
10
106.5188
20
299.4343
0
VERTEX
8
CUT
10
106.5353
20
299.4284
0
VERTEX
8
CUT
10
108.3340
20
299.3736
0
VERTEX
8
CUT
10
110.4001
20
298.8282
0
VERTEX
8
CUT
10
110.8836
20
298.7986
0
VERTEX
8
CUT
10
113.0697
20
298.3038
0
VERTEX
8
CUT
10
115.8748
20
297.5256
0
VERTEX
8
CUT
10
116.6918
20
297.2008
0
VERTEX
8
CUT
10
116.8224
20
297.1489
0
VERTEX
8
CUT
10
116.9997
20
297.0785
0
VERTEX
8
CUT
10
117.0720
20
297.0497
0
VERTEX
8
CUT
10
117.6578
20
296.5777
0
VERTEX
8
CUT
10
118.0062
20
296.0551
0
VERTEX
8
CUT
10
117.8042
20
294.9182
0
VERTEX
8
CUT
10
118.0655
20
294.1665
0
VERTEX
8
CUT
10
118.1209
20
292.6364
0
VERTEX
8
CUT
10
118.4262
20
291.3768
0
VERTEX
8
CUT
10
119.0546
20
289.5014
0
VERTEX
8
CUT
10
119.9475
20
287.7298
0
VERTEX
8
CUT
10
121.7609
20
285.0438
0
VERTEX
8
CUT
10
124.0278
20
282.4339
0
VERTEX
8
CUT
10
126.6439
20
279.8187
0
VERTEX
8
CUT
10
132.8228
20
274.2035
0
VERTEX
8
CUT
10
137.1348
20
269.2396
0
VERTEX
8
CUT
10
139.6238
20
265.5255
0
VERTEX
8
CUT
10
141.4372
20
261.9276
0
VERTEX
8
CUT
10
142.9697
20
257.6169
0
VERTEX
8
CUT
10
143.0473
20
256.8946
0
VERTEX
8
CUT
10
143.4063
20
256.6452
0
VERTEX
8
CUT
10
143.7986
20
256.9984
0
VERTEX
8
CUT
10
143.7463
20
259.3396
0
VERTEX
8
CUT
10
142.6752
20
261.1316
0
VERTEX
8
CUT
10
142.2431
20
262.9605
0
VERTEX
8
CUT
10
141.4604
20
264.1676
0
VERTEX
8
CUT
10
139.5529
20
268.0157
0
VERTEX
8
CUT
10
136.5433
20
272.1949
0
VERTEX
8
CUT
10
135.8903
20
272.8333
0
VERTEX
8
CUT
10
134.9197
20
273.3429
0
VERTEX
8
CUT
10
134.1330
20
274.3898
0
VERTEX
8
CUT
10
133.0911
20
275.1542
0
VERTEX
8
CUT
10
132.1703
20
276.6459
0
VERTEX
8
CUT
10
130.4437
20
277.5715
0
VERTEX
8
CUT
10
126.9193
20
281.2077
0
VERTEX
8
CUT
10
126.2499
20
281.6920
0
VERTEX
8
CUT
10
124.8757
20
283.3503
0
VERTEX
8
CUT
10
124.0938
20
283.8824
0
VERTEX
8
CUT
10
122.7253
20
286.0319
0
VERTEX
8
CUT
10
121.1499
20
287.7426
0
VERTEX
8
CUT
10
120.9333
20
288.4533
0
VERTEX
8
CUT
10
119.8211
20
290.0624
0
VERTEX
8
CUT
10
118.9133
20
294.4726
0
VERTEX
8
CUT
10
119.0137
20
295.9304
0
VERTEX
8
CUT
10
119.6044
20
296.1108
0
VERTEX
8
CUT
10
120.4867
20
296.0217
0
VERTEX
8
CUT
10
121.4666
20
295.5335
0
VERTEX
8
CUT
10
123.1921
20
295.1394
0
VERTEX
8
CUT
10
124.1684
20
294.6329
0
VERTEX
8
CUT
10
124.8101
20
294.5612
0
VERTEX
8
CUT
10
125.3512
20
294.3237
0
VERTEX
8
CUT
10
125.6232
20
294.2043
0
VERTEX
8
CUT
10
126.0272
20
294.0271
0
VERTEX
8
CUT
10
127.4333
20
293.4101
0
VERTEX
8
CUT
10
127.5820
20
293.3412
0
VERTEX
8
CUT
10
127.7489
20
293.2484
0
VERTEX
8
CUT
10
127.7674
20
293.2381
0
VERTEX
8
CUT
10
127.8174
20
293.2103
0
VERTEX
8
CUT
10
127.9471
20
293.1382
0
VERTEX
8
CUT
10
128.8084
20
292.1976
0
VERTEX
8
CUT
10
128.9447
20
290.1542
0
VERTEX
8
CUT
10
129.7362
20
288.3839
0
VERTEX
8
CUT
10
129.8544
20
288.0300
0
VERTEX
8
CUT
10
129.9535
20
287.8977
0
VERTEX
8
CUT
10
130.1624
20
287.4305
0
VERTEX
8
CUT
10
131.4969
20
285.7917
0
VERTEX
8
CUT
10
136.8789
20
280.2476
0
VERTEX
8
CUT
10
139.0089
20
277.2570
0
VERTEX
8
CUT
10
140.0133
20
275.5410
0
VERTEX
8
CUT
10
140.1105
20
275.3447
0
VERTEX
8
CUT
10
140.1358
20
275.3316
0
VERTEX
8
CUT
10
140.1650
20
275.2818
0
VERTEX
8
CUT
10
140.4395
20
275.1314
0
VERTEX
8
CUT
10
140.7557
20
275.2407
0
VERTEX
8
CUT
10
141.0666
20
275.7542
0
VERTEX
8
CUT
10
141.1935
20
276.5713
0
VERTEX
8
CUT
10
141.2033
20
276.5949
0
VERTEX
8
CUT
10
141.2103
20
276.6119
0
VERTEX
8
CUT
10
141.2253
20
276.6482
0
VERTEX
8
CUT
10
141.2423
20
276.6892
0
VERTEX
8
CUT
10
141.8720
20
277.0744
0
VERTEX
8
CUT
10
142.7153
20
276.8264
0
VERTEX
8
CUT
10
143.2592
20
276.3315
0
VERTEX
8
CUT
10
143.3051
20
276.2849
0
VERTEX
8
CUT
10
143.3338
20
276.2558
0
VERTEX
8
CUT
10
143.3712
20
276.2179
0
VERTEX
8
CUT
10
143.4424
20
276.1457
0
VERTEX
8
CUT
10
145.3132
20
273.6545
0
VERTEX
8
CUT
10
146.5341
20
271.2271
0
VERTEX
8
CUT
10
147.4714
20
268.4220
0
VERTEX
8
CUT
10
147.5419
20
267.1009
0
VERTEX
8
CUT
10
147.8582
20
265.8211
0
VERTEX
8
CUT
10
148.7471
20
264.0475
0
VERTEX
8
CUT
10
152.2180
20
259.2446
0
VERTEX
8
CUT
10
154.6247
20
254.7437
0
VERTEX
8
CUT
10
154.6435
20
254.7061
0
VERTEX
8
CUT
10
155.8411
20
251.7189
0
VERTEX
8
CUT
10
155.8445
20
251.7087
0
VERTEX
8
CUT
10
155.8506
20
251.6905
0
VERTEX
8
CUT
10
155.8507
20
251.6901
0
VERTEX
8
CUT
10
155.8582
20
251.6678
0
VERTEX
8
CUT
10
155.9522
20
250.8488
0
VERTEX
8
CUT
10
156.4710
20
249.5307
0
VERTEX
8
CUT
10
156.6002
20
247.7493
0
VERTEX
8
CUT
10
156.9510
20
247.5123
0
VERTEX
8
CUT
10
157.2931
20
247.6499
0
VERTEX
8
CUT
10
158.2952
20
250.2187
0
VERTEX
8
CUT
10
158.7475
20
250.6609
0
VERTEX
8
CUT
10
159.2342
20
250.7798
0
VERTEX
8
CUT
10
159.6998
20
250.5661
0
VERTEX
8
CUT
10
159.7273
20
250.5450
0
VERTEX
8
CUT
10
159.8320
20
250.3563
0
VERTEX
8
CUT
10
161.2443
20
247.5107
0
VERTEX
8
CUT
10
162.4832
20
244.1076
0
VERTEX
8
CUT
10
162.8552
20
241.8573
0
VERTEX
8
CUT
10
163.0966
20
241.3388
0
VERTEX
8
CUT
10
163.1427
20
240.9074
0
VERTEX
8
CUT
10
163.1527
20
240.6826
0
VERTEX
8
CUT
10
163.1793
20
240.5643
0
VERTEX
8
CUT
10
163.4562
20
237.9705
0
VERTEX
8
CUT
10
163.7042
20
237.3225
0
VERTEX
8
CUT
10
163.7504
20
234.4942
0
VERTEX
8
CUT
10
164.0003
20
233.7657
0
VERTEX
8
CUT
10
164.0028
20
233.7270
0
VERTEX
8
CUT
10
164.0063
20
233.6747
0
VERTEX
8
CUT
10
164.0063
20
233.6739
0
VERTEX
8
CUT
10
164.0102
20
233.6154
0
VERTEX
8
CUT
10
164.0494
20
232.8602
0
VERTEX
8
CUT
10
164.0657
20
231.7388
0
VERTEX
8
CUT
10
164.1114
20
231.6654
0
VERTEX
8
CUT
10
164.1332
20
231.2465
0
VERTEX
8
CUT
10
164.4314
20
231.1000
0
VERTEX
8
CUT
10
164.7341
20
231.2369
0
VERTEX
8
CUT
10
168.1998
20
236.1428
0
VERTEX
8
CUT
10
168.6616
20
236.3069
0
VERTEX
8
CUT
10
168.8685
20
236.1585
0
VERTEX
8
CUT
10
168.9724
20
236.0840
0
VERTEX
8
CUT
10
168.9939
20
236.0686
0
VERTEX
8
CUT
10
169.1650
20
235.9459
0
VERTEX
8
CUT
10
169.3935
20
235.7287
0
VERTEX
8
CUT
10
170.5888
20
232.6997
0
VERTEX
8
CUT
10
171.5063
20
228.6787
0
VERTEX
8
CUT
10
171.5569
20
226.6268
0
VERTEX
8
CUT
10
171.8297
20
225.3255
0
VERTEX
8
CUT
10
171.8303
20
225.2554
0
VERTEX
8
CUT
10
171.8130
20
221.8688
0
VERTEX
8
CUT
10
171.5435
20
220.8631
0
VERTEX
8
CUT
10
171.6379
20
219.2367
0
VERTEX
8
CUT
10
172.1656
20
219.1710
0
VERTEX
8
CUT
10
173.5906
20
220.5922
0
VERTEX
8
CUT
10
174.9786
20
222.3130
0
VERTEX
8
CUT
10
176.5495
20
224.7414
0
VERTEX
8
CUT
10
176.7509
20
225.0157
0
VERTEX
8
CUT
10
176.8667
20
225.1733
0
VERTEX
8
CUT
10
176.9054
20
225.2260
0
VERTEX
8
CUT
10
177.0407
20
225.4103
0
VERTEX
8
CUT
10
177.7904
20
225.4943
0
VERTEX
8
CUT
10
178.3817
20
224.9532
0
VERTEX
8
CUT
10
178.9863
20
223.4191
0
VERTEX
8
CUT
10
179.0647
20
222.3525
0
VERTEX
8
CUT
10
179.3075
20
221.8027
0
VERTEX
8
CUT
10
179.6172
20
218.0910
0
VERTEX
8
CUT
10
179.6192
20
217.7775
0
VERTEX
8
CUT
10
179.3639
20
216.8867
0
VERTEX
8
CUT
10
179.3007
20
215.0326
0
VERTEX
8
CUT
10
178.3944
20
211.0868
0
VERTEX
8
CUT
10
177.8839
20
209.7226
0
VERTEX
8
CUT
10
177.8866
20
209.5087
0
VERTEX
8
CUT
10
177.8482
20
209.4121
0
VERTEX
8
CUT
10
177.8908
20
209.1632
0
VERTEX
8
CUT
10
177.8929
20
208.9931
0
VERTEX
8
CUT
10
178.3919
20
208.8506
0
VERTEX
8
CUT
10
180.6460
20
210.2869
0
VERTEX
8
CUT
10
183.7402
20
213.1668
0
VERTEX
8
CUT
10
184.4217
20
213.1898
0
VERTEX
8
CUT
10
184.9355
20
212.7172
0
VERTEX
8
CUT
10
184.9356
20
212.7087
0
VERTEX
8
CUT
10
184.9369
20
212.6135
0
VERTEX
8
CUT
10
184.9494
20
211.7018
0
VERTEX
8
CUT
10
184.9577
20
211.0953
0
VERTEX
8
CUT
10
184.9594
20
210.9677
0
VERTEX
8
CUT
10
184.9619
20
210.7870
0
VERTEX
8
CUT
10
184.9668
20
210.4281
0
VERTEX
8
CUT
10
184.9725
20
210.0061
0
VERTEX
8
CUT
10
184.9774
20
209.6477
0
VERTEX
8
CUT
10
184.7743
20
209.1446
0
VERTEX
8
CUT
10
184.7203
20
207.9030
0
VERTEX
8
CUT
10
184.4708
20
207.3338
0
VERTEX
8
CUT
10
184.0984
20
205.0827
0
VERTEX
8
CUT
10
182.8803
20
201.4308
0
VERTEX
8
CUT
10
182.0982
20
199.9169
0
VERTEX
8
CUT
10
181.9593
20
199.2813
0
VERTEX
8
CUT
10
181.9500
20
199.2628
0
VERTEX
8
CUT
10
180.4436
20
196.5606
0
VERTEX
8
CUT
10
179.3685
20
195.0513
0
VERTEX
8
CUT
10
179.0536
20
194.4387
0
VERTEX
8
CUT
10
179.0280
20
193.9317
0
VERTEX
8
CUT
10
179.5758
20
193.7304
0
VERTEX
8
CUT
10
180.7221
20
194.0879
0
VERTEX
8
CUT
10
181.2143
20
194.3495
0
VERTEX
8
CUT
10
181.2732
20
194.3678
0
VERTEX
8
CUT
10
184.2958
20
195.9802
0
VERTEX
8
CUT
10
184.6144
20
195.9582
0
VERTEX
8
CUT
10
185.8624
20
196.6639
0
VERTEX
8
CUT
10
186.3730
20
196.5536
0
VERTEX
8
CUT
10
186.3970
20
196.5378
0
VERTEX
8
CUT
10
186.4362
20
196.5119
0
VERTEX
8
CUT
10
186.4497
20
196.5030
0
VERTEX
8
CUT
10
186.4898
20
196.4766
0
VERTEX
8
CUT
10
186.6541
20
196.1425
0
VERTEX
8
CUT
10
186.8155
20
195.5821
0
VERTEX
8
CUT
10
186.3529
20
193.4721
0
VERTEX
8
CUT
10
186.0109
20
192.2082
0
VERTEX
8
CUT
10
185.5822
20
190.9236
0
VERTEX
8
CUT
10
184.4970
20
188.4591
0
VERTEX
8
CUT
10
184.2388
20
187.9442
0
VERTEX
8
CUT
10
183.1720
20
186.1165
0
VERTEX
8
CUT
10
181.2046
20
183.7978
0
VERTEX
8
CUT
10
177.4555
20
179.9402
0
VERTEX
8
CUT
10
177.1975
20
179.7035
0
VERTEX
8
CUT
10
177.0957
20
179.5700
0
VERTEX
8
CUT
10
176.5258
20
178.9836
0
VERTEX
8
CUT
10
174.2740
20
176.1483
0
VERTEX
8
CUT
10
174.2678
20
175.6678
0
VERTEX
8
CUT
10
174.5424
20
175.4358
0
VERTEX
8
CUT
10
174.6976
20
175.4366
0
VERTEX
8
CUT
10
174.7179
20
175.4253
0
VERTEX
8
CUT
10
174.7547
20
175.4369
0
VERTEX
8
CUT
10
175.7864
20
175.4420
0
VERTEX
8
CUT
10
176.2642
20
175.6376
0
VERTEX
8
CUT
10
176.6056
20
175.5984
0
VERTEX
8
CUT
10
176.6177
20
175.5970
0
VERTEX
8
CUT
10
176.6322
20
175.5954
0
VERTEX
8
CUT
10
176.6412
20
175.5943
0
VERTEX
8
CUT
10
176.8171
20
175.5291
0
VERTEX
8
CUT
10
176.8391
20
175.5044
0
VERTEX
8
CUT
10
176.8497
20
175.4924
0
VERTEX
8
CUT
10
176.8907
20
175.4463
0
VERTEX
8
CUT
10
176.9474
20
175.3827
0
VERTEX
8
CUT
10
177.2447
20
174.7071
0
VERTEX
8
CUT
10
176.8411
20
173.7449
0
VERTEX
8
CUT
10
176.0255
20
172.6143
0
VERTEX
8
CUT
10
175.6670
20
172.2498
0
VERTEX
8
CUT
10
174.0031
20
170.5693
0
VERTEX
8
CUT
10
169.9142
20
167.2899
0
VERTEX
8
CUT
10
169.5211
20
166.8988
0
VERTEX
8
CUT
10
168.0099
20
165.4140
0
VERTEX
8
CUT
10
167.9423
20
165.3281
0
VERTEX
8
CUT
10
167.6246
20
165.0120
0
VERTEX
8
CUT
10
166.4573
20
163.5141
0
VERTEX
8
CUT
10
165.3367
20
161.2795
0
VERTEX
8
CUT
10
165.2865
20
161.1901
0
VERTEX
8
CUT
10
165.2768
20
161.1602
0
VERTEX
8
CUT
10
164.9660
20
160.5404
0
VERTEX
8
CUT
10
164.0386
20
157.4762
0
VERTEX
8
CUT
10
164.2349
20
156.9771
0
VERTEX
8
CUT
10
164.6013
20
156.9588
0
VERTEX
8
CUT
10
165.9712
20
157.9180
0
VERTEX
8
CUT
10
167.8978
20
158.8839
0
VERTEX
8
CUT
10
168.4714
20
158.6777
0
VERTEX
8
CUT
10
169.0879
20
157.8616
0
VERTEX
8
CUT
10
169.1111
20
156.0017
0
VERTEX
8
CUT
10
169.0563
20
155.6704
0
VERTEX
8
CUT
10
169.0372
20
155.5551
0
VERTEX
8
CUT
10
168.9941
20
155.2942
0
VERTEX
8
CUT
10
168.9603
20
155.0899
0
VERTEX
8
CUT
10
168.7878
20
154.3476
0
VERTEX
8
CUT
10
167.6679
20
151.5342
0
VERTEX
8
CUT
10
166.3620
20
147.3155
0
VERTEX
8
CUT
10
166.1626
20
146.7173
0
VERTEX
8
CUT
10
166.1345
20
146.5809
0
VERTEX
8
CUT
10
165.8158
20
145.5512
0
VERTEX
8
CUT
10
165.9270
20
145.0848
0
VERTEX
8
CUT
10
166.2986
20
144.9244
0
VERTEX
8
CUT
10
166.4582
20
145.0239
0
VERTEX
8
CUT
10
166.4848
20
145.0203
0
VERTEX
8
CUT
10
166.6490
20
145.1428
0
VERTEX
8
CUT
10
168.4374
20
146.2572
0
VERTEX
8
CUT
10
168.7657
20
146.1743
0
VERTEX
8
CUT
10
169.0858
20
145.9871
0
VERTEX
8
CUT
10
169.1059
20
145.9754
0
VERTEX
8
CUT
10
169.1095
20
145.9733
0
VERTEX
8
CUT
10
169.1100
20
145.9730
0
VERTEX
8
CUT
10
169.3088
20
145.6140
0
VERTEX
8
CUT
10
169.3819
20
145.3386
0
VERTEX
8
CUT
10
169.1647
20
144.9161
0
VERTEX
8
CUT
10
168.8281
20
143.1514
0
VERTEX
8
CUT
10
168.7279
20
142.8412
0
VERTEX
8
CUT
10
168.6628
20
142.6402
0
VERTEX
8
CUT
10
168.6386
20
142.5652
0
VERTEX
8
CUT
10
168.5844
20
142.3978
0
VERTEX
8
CUT
10
167.8488
20
140.4375
0
VERTEX
8
CUT
10
166.0552
20
136.8555
0
VERTEX
8
CUT
10
161.4609
20
130.0133
0
VERTEX
8
CUT
10
161.4960
20
129.6867
0
VERTEX
8
CUT
10
161.7684
20
129.5031
0
VERTEX
8
CUT
10
162.8679
20
129.7902
0
VERTEX
8
CUT
10
163.5874
20
129.6292
0
VERTEX
8
CUT
10
163.7251
20
128.8382
0
VERTEX
8
CUT
10
163.3523
20
127.8218
0
VERTEX
8
CUT
10
161.4851
20
124.7577
0
VERTEX
8
CUT
10
155.6498
20
117.2821
0
VERTEX
8
CUT
10
155.5088
20
116.8344
0
VERTEX
8
CUT
10
155.6578
20
116.5401
0
VERTEX
8
CUT
10
156.5100
20
116.5161
0
VERTEX
8
CUT
10
156.9488
20
116.1696
0
VERTEX
8
CUT
10
157.0982
20
115.7543
0
VERTEX
8
CUT
10
157.0974
20
115.6482
0
VERTEX
8
CUT
10
157.0973
20
115.6361
0
VERTEX
8
CUT
10
157.0971
20
115.6120
0
VERTEX
8
CUT
10
157.0965
20
115.5241
0
VERTEX
8
CUT
10
157.0704
20
115.3946
0
VERTEX
8
CUT
10
156.9623
20
115.1291
0
VERTEX
8
CUT
10
156.9298
20
115.0493
0
VERTEX
8
CUT
10
156.9042
20
114.9865
0
VERTEX
8
CUT
10
156.8919
20
114.9563
0
VERTEX
8
CUT
10
153.2652
20
108.9443
0
VERTEX
8
CUT
10
152.9738
20
108.3586
0
VERTEX
8
CUT
10
152.9649
20
108.3439
0
VERTEX
8
CUT
10
152.9495
20
108.3097
0
VERTEX
8
CUT
10
151.4637
20
105.3227
0
VERTEX
8
CUT
10
151.0583
20
103.5632
0
VERTEX
8
CUT
10
150.4800
20
102.4095
0
VERTEX
8
CUT
10
150.4679
20
102.3854
0
VERTEX
8
CUT
10
150.4549
20
102.3599
0
VERTEX
8
CUT
10
150.4472
20
102.3445
0
VERTEX
8
CUT
10
150.4216
20
102.2937
0
VERTEX
8
CUT
10
148.8045
20
100.0581
0
VERTEX
8
CUT
10
148.7279
20
99.9777
0
VERTEX
8
CUT
10
148.6819
20
99.9294
0
VERTEX
8
CUT
10
148.6760
20
99.9233
0
VERTEX
8
CUT
10
148.6670
20
99.9138
0
VERTEX
8
CUT
10
147.2007
20
98.6908
0
VERTEX
8
CUT
10
145.8206
20
96.9891
0
VERTEX
8
CUT
10
145.9972
20
96.4639
0
VERTEX
8
CUT
10
146.8470
20
96.4561
0
VERTEX
8
CUT
10
147.0193
20
96.4354
0
VERTEX
8
CUT
10
147.6137
20
96.0761
0
VERTEX
8
CUT
10
147.6146
20
96.0742
0
VERTEX
8
CUT
10
147.6157
20
96.0720
0
VERTEX
8
CUT
10
147.6160
20
96.0713
0
VERTEX
8
CUT
10
147.6172
20
96.0688
0
VERTEX
8
CUT
10
147.7842
20
95.5891
0
VERTEX
8
CUT
10
147.4689
20
94.8930
0
VERTEX
8
CUT
10
143.7667
20
91.1498
0
VERTEX
8
CUT
10
138.7053
20
87.4686
0
VERTEX
8
CUT
10
138.6627
20
87.1395
0
VERTEX
8
CUT
10
138.8893
20
86.8969
0
VERTEX
8
CUT
10
139.2579
20
86.8800
0
VERTEX
8
CUT
10
139.2632
20
86.8758
0
VERTEX
8
CUT
10
139.4624
20
86.8706
0
VERTEX
8
CUT
10
140.5227
20
86.8220
0
VERTEX
8
CUT
10
141.0744
20
86.3964
0
VERTEX
8
CUT
10
141.2055
20
85.7261
0
VERTEX
8
CUT
10
140.6416
20
84.9583
0
VERTEX
8
CUT
10
140.5186
20
84.8406
0
VERTEX
8
CUT
10
137.6557
20
82.6283
0
VERTEX
8
CUT
10
133.8126
20
80.8015
0
VERTEX
8
CUT
10
133.8787
20
80.2742
0
VERTEX
8
CUT
10
135.4153
20
79.4319
0
VERTEX
8
CUT
10
135.7359
20
78.7256
0
VERTEX
8
CUT
10
135.5491
20
78.3961
0
VERTEX
8
CUT
10
135.2552
20
78.1090
0
VERTEX
8
CUT
10
134.0532
20
77.2246
0
VERTEX
8
CUT
10
131.6435
20
76.0161
0
VERTEX
8
CUT
10
131.6305
20
76.0119
0
VERTEX
8
CUT
10
131.6211
20
76.0088
0
VERTEX
8
CUT
10
131.6107
20
76.0054
0
VERTEX
8
CUT
10
131.5534
20
75.9865
0
VERTEX
8
CUT
10
129.0967
20
75.3728
0
VERTEX
8
CUT
10
127.0966
20
75.2559
0
VERTEX
8
CUT
10
126.9426
20
74.7955
0
VERTEX
8
CUT
10
127.7098
20
73.3774
0
VERTEX
8
CUT
10
127.6000
20
72.8766
0
VERTEX
8
CUT
10
127.2023
20
72.4425
0
VERTEX
8
CUT
10
125.9877
20
72.3577
0
VERTEX
8
CUT
10
125.7481
20
72.3558
0
VERTEX
8
CUT
10
125.0796
20
72.6085
0
VERTEX
8
CUT
10
124.0389
20
72.6801
0
VERTEX
8
CUT
10
119.8030
20
74.4658
0
VERTEX
8
CUT
10
119.1801
20
74.2494
0
VERTEX
8
CUT
10
118.8314
20
73.3687
0
VERTEX
8
CUT
10
117.9035
20
72.6635
0
VERTEX
8
CUT
10
115.9837
20
72.6719
0
VERTEX
8
CUT
10
114.6900
20
72.9933
0
VERTEX
8
CUT
10
113.5344
20
73.5271
0
VERTEX
8
CUT
10
111.9357
20
73.0482
0
VERTEX
8
CUT
10
111.6937
20
73.3839
0
VERTEX
8
CUT
10
111.7138
20
73.8782
0
VERTEX
8
CUT
10
111.9310
20
74.1651
0
VERTEX
8
CUT
10
112.4865
20
74.3852
0
VERTEX
8
CUT
10
112.5518
20
74.9502
0
VERTEX
8
CUT
10
111.4402
20
77.1449
0
VERTEX
8
CUT
10
110.8166
20
79.0231
0
VERTEX
8
CUT
10
110.7510
20
80.0452
0
VERTEX
8
CUT
10
110.2223
20
81.3975
0
VERTEX
8
CUT
10
110.1488
20
82.1614
0
VERTEX
8
CUT
10
108.9583
20
85.3366
0
VERTEX
8
CUT
10
109.1641
20
86.1405
0
VERTEX
8
CUT
10
109.7302
20
86.5411
0
VERTEX
8
CUT
10
111.9027
20
85.3622
0
VERTEX
8
CUT
10
112.6554
20
85.7950
0
VERTEX
8
CUT
10
112.5431
20
86.6888
0
VERTEX
8
CUT
10
112.0406
20
87.6522
0
VERTEX
8
CUT
10
111.1053
20
90.4090
0
VERTEX
8
CUT
10
111.2891
20
90.9772
0
VERTEX
8
CUT
10
111.8740
20
91.5336
0
VERTEX
8
CUT
10
112.2818
20
91.6433
0
VERTEX
8
CUT
10
115.5209
20
89.8928
0
VERTEX
8
CUT
10
117.6709
20
89.8238
0
VERTEX
8
CUT
10
119.0560
20
89.2950
0
VERTEX
8
CUT
10
120.0495
20
89.2334
0
VERTEX
8
CUT
10
120.7227
20
88.9858
0
VERTEX
8
CUT
10
124.2171
20
88.9726
0
VERTEX
8
CUT
10
125.0166
20
89.1357
0
VERTEX
8
CUT
10
125.3213
20
89.4682
0
VERTEX
8
CUT
10
125.3233
20
89.7964
0
VERTEX
8
CUT
10
123.4904
20
91.8318
0
VERTEX
8
CUT
10
123.3563
20
92.2723
0
VERTEX
8
CUT
10
123.5255
20
92.6944
0
VERTEX
8
CUT
10
124.0685
20
93.2433
0
VERTEX
8
CUT
10
124.5027
20
93.4123
0
VERTEX
8
CUT
10
127.9764
20
93.4874
0
VERTEX
8
CUT
10
129.3125
20
93.7907
0
VERTEX
8
CUT
10
130.8387
20
94.3861
0
VERTEX
8
CUT
10
132.3946
20
95.2956
0
VERTEX
8
CUT
10
132.3573
20
95.9096
0
VERTEX
8
CUT
10
130.9424
20
96.5851
0
VERTEX
8
CUT
10
130.6134
20
97.0285
0
VERTEX
8
CUT
10
130.6891
20
97.4347
0
VERTEX
8
CUT
10
131.1641
20
97.8949
0
VERTEX
8
CUT
10
135.4046
20
100.1449
0
VERTEX
8
CUT
10
136.4381
20
100.8954
0
VERTEX
8
CUT
10
138.1108
20
102.5384
0
VERTEX
8
CUT
10
138.0159
20
103.1565
0
VERTEX
8
CUT
10
137.2391
20
103.3062
0
VERTEX
8
CUT
10
136.9739
20
103.5373
0
VERTEX
8
CUT
10
137.0072
20
104.6525
0
VERTEX
8
CUT
10
139.8904
20
107.0058
0
VERTEX
8
CUT
10
142.8035
20
110.2540
0
VERTEX
8
CUT
10
143.0000
20
110.8457
0
VERTEX
8
CUT
10
142.3642
20
111.9350
0
VERTEX
8
CUT
10
142.4441
20
112.4282
0
VERTEX
8
CUT
10
147.0135
20
117.4872
0
VERTEX
8
CUT
10
148.8566
20
119.9284
0
VERTEX
8
CUT
10
150.9769
20
123.2487
0
VERTEX
8
CUT
10
153.3772
20
128.3577
0
VERTEX
8
CUT
10
153.6687
20
129.4508
0
VERTEX
8
CUT
10
152.9531
20
130.1311
0
VERTEX
8
CUT
10
152.8252
20
130.5979
0
VERTEX
8
CUT
10
154.5516
20
133.9939
0
VERTEX
8
CUT
10
155.7727
20
137.0453
0
VERTEX
8
CUT
10
156.9737
20
140.6524
0
VERTEX
8
CUT
10
157.0467
20
141.7030
0
VERTEX
8
CUT
10
157.2859
20
142.1975
0
VERTEX
8
CUT
10
157.1801
20
142.9975
0
VERTEX
8
CUT
10
155.9858
20
143.3082
0
VERTEX
8
CUT
10
155.8018
20
143.9266
0
VERTEX
8
CUT
10
155.9132
20
144.5661
0
VERTEX
8
CUT
10
156.6530
20
146.0022
0
VERTEX
8
CUT
10
157.2739
20
147.8574
0
VERTEX
8
CUT
10
157.3113
20
148.4598
0
VERTEX
8
CUT
10
157.3343
20
148.6751
0
VERTEX
8
CUT
10
157.3345
20
148.6765
0
VERTEX
8
CUT
10
157.3348
20
148.6800
0
VERTEX
8
CUT
10
157.3591
20
148.9067
0
VERTEX
8
CUT
10
157.5733
20
149.4130
0
VERTEX
8
CUT
10
157.5814
20
150.9816
0
VERTEX
8
CUT
10
157.6068
20
151.2189
0
VERTEX
8
CUT
10
157.5831
20
151.3272
0
VERTEX
8
CUT
10
157.5920
20
153.0407
0
VERTEX
8
CUT
10
157.3326
20
153.8961
0
VERTEX
8
CUT
10
157.2676
20
155.7119
0
VERTEX
8
CUT
10
157.2354
20
155.7443
0
VERTEX
8
CUT
10
157.2339
20
155.7955
0
VERTEX
8
CUT
10
157.1321
20
155.8481
0
VERTEX
8
CUT
10
156.7812
20
156.2006
0
VERTEX
8
CUT
10
155.3854
20
156.0487
0
VERTEX
8
CUT
10
153.9293
20
154.3763
0
VERTEX
8
CUT
10
152.5776
20
153.3496
0
VERTEX
8
CUT
10
152.5398
20
153.3254
0
VERTEX
8
CUT
10
152.4043
20
153.2386
0
VERTEX
8
CUT
10
152.1825
20
153.0965
0
VERTEX
8
CUT
10
152.1550
20
153.0788
0
VERTEX
8
CUT
10
150.9589
20
152.5121
0
VERTEX
8
CUT
10
149.6412
20
152.6494
0
VERTEX
8
CUT
10
149.0482
20
153.2650
0
VERTEX
8
CUT
10
148.6639
20
154.0079
0
VERTEX
8
CUT
10
148.5810
20
155.9359
0
VERTEX
8
CUT
10
148.3279
20
156.5502
0
VERTEX
8
CUT
10
148.2769
20
157.4987
0
VERTEX
8
CUT
10
147.3466
20
160.5897
0
VERTEX
8
CUT
10
146.7211
20
161.6992
0
VERTEX
8
CUT
10
145.9111
20
161.8551
0
VERTEX
8
CUT
10
145.1080
20
162.2988
0
VERTEX
8
CUT
10
144.1773
20
163.8467
0
VERTEX
8
CUT
10
143.2622
20
166.0063
0
VERTEX
8
CUT
10
142.6386
20
167.8846
0
VERTEX
8
CUT
10
142.5747
20
168.8979
0
VERTEX
8
CUT
10
142.3374
20
169.5200
0
VERTEX
8
CUT
10
142.3044
20
175.2319
0
VERTEX
8
CUT
10
142.5175
20
177.0301
0
VERTEX
8
CUT
10
142.7607
20
177.4992
0
VERTEX
8
CUT
10
142.8319
20
178.7540
0
VERTEX
8
CUT
10
142.8840
20
178.9507
0
VERTEX
8
CUT
10
143.0292
20
179.2658
0
VERTEX
8
CUT
10
142.9892
20
179.3482
0
VERTEX
8
CUT
10
143.1727
20
180.0412
0
VERTEX
8
CUT
10
143.1819
20
180.3867
0
VERTEX
8
CUT
10
143.3885
20
180.9615
0
VERTEX
8
CUT
10
143.3702
20
182.1592
0
VERTEX
8
CUT
10
143.4729
20
182.4156
0
VERTEX
8
CUT
10
143.4930
20
183.1312
0
VERTEX
8
CUT
10
143.2255
20
183.8738
0
VERTEX
8
CUT
10
143.1653
20
185.1455
0
VERTEX
8
CUT
10
141.7391
20
188.9818
0
VERTEX
8
CUT
10
141.7115
20
193.7553
0
VERTEX
8
CUT
10
141.9718
20
194.7514
0
VERTEX
8
CUT
10
141.9960
20
195.9498
0
VERTEX
8
CUT
10
141.6722
20
198.3179
0
VERTEX
8
CUT
10
140.2370
20
201.9316
0
VERTEX
8
CUT
10
140.1717
20
208.2899
0
VERTEX
8
CUT
10
139.9148
20
209.2976
0
VERTEX
8
CUT
10
139.8670
20
212.6762
0
VERTEX
8
CUT
10
139.5992
20
213.6612
0
VERTEX
8
CUT
10
139.6276
20
214.9014
0
VERTEX
8
CUT
10
139.8783
20
215.5525
0
VERTEX
8
CUT
10
139.8663
20
217.5336
0
VERTEX
8
CUT
10
138.0682
20
221.1680
0
VERTEX
8
CUT
10
134.8774
20
225.9966
0
VERTEX
8
CUT
10
134.1538
20
229.0010
0
VERTEX
8
CUT
10
133.6385
20
230.0002
0
VERTEX
8
CUT
10
133.5533
20
230.8022
0
VERTEX
8
CUT
10
132.3615
20
233.4636
0
VERTEX
8
CUT
10
129.5550
20
236.6281
0
VERTEX
8
CUT
10
127.5361
20
237.7108
0
VERTEX
8
CUT
10
126.6332
20
238.0097
0
VERTEX
8
CUT
10
126.6219
20
238.0153
0
VERTEX
8
CUT
10
126.6102
20
238.0173
0
VERTEX
8
CUT
10
125.7067
20
238.3164
0
VERTEX
8
CUT
10
124.4638
20
238.3707
0
VERTEX
8
CUT
10
123.6287
20
238.6516
0
VERTEX
8
CUT
10
121.2015
20
238.3205
0
VERTEX
8
CUT
10
118.5832
20
237.4713
0
VERTEX
8
CUT
10
117.8813
20
237.4698
0
VERTEX
8
CUT
10
117.1815
20
237.9673
0
VERTEX
8
CUT
10
117.0518
20
239.1744
0
VERTEX
8
CUT
10
116.7452
20
239.4998
0
VERTEX
8
CUT
10
114.7557
20
239.5931
0
VERTEX
8
CUT
10
112.8213
20
240.4129
0
VERTEX
8
CUT
10
111.7304
20
240.4961
0
VERTEX
8
CUT
10
108.2086
20
241.6113
0
VERTEX
8
CUT
10
106.8357
20
241.6455
0
VERTEX
8
CUT
10
104.7457
20
241.3266
0
VERTEX
8
CUT
10
102.9534
20
241.6289
0
VERTEX
8
CUT
10
99.4687
20
241.6353
0
VERTEX
8
CUT
10
98.8969
20
241.5679
0
VERTEX
8
CUT
10
97.9546
20
241.0748
0
VERTEX
8
CUT
10
94.8768
20
241.0235
0
VERTEX
8
CUT
10
94.0505
20
240.7482
0
VERTEX
8
CUT
10
93.2576
20
241.0250
0
VERTEX
8
CUT
10
92.3725
20
241.0225
0
VERTEX
8
CUT
10
90.5207
20
239.9316
0
VERTEX
8
CUT
10
88.1377
20
239.2119
0
VERTEX
8
CUT
10
87.3192
20
238.6845
0
VERTEX
8
CUT
10
85.2213
20
238.6662
0
VERTEX
8
CUT
10
84.3176
20
238.9320
0
VERTEX
8
CUT
10
83.9432
20
238.6554
0
VERTEX
8
CUT
10
83.5649
20
237.6703
0
VERTEX
8
CUT
10
82.9051
20
237.2581
0
VERTEX
8
CUT
10
80.1411
20
237.9974
0
VERTEX
8
CUT
10
80.0898
20
238.0153
0
VERTEX
8
CUT
10
80.0562
20
238.0202
0
VERTEX
8
CUT
10
79.0551
20
238.2879
0
VERTEX
8
CUT
10
78.2421
20
238.2816
0
VERTEX
8
CUT
10
77.6752
20
238.3633
0
VERTEX
8
CUT
10
75.4930
20
238.2664
0
VERTEX
8
CUT
10
75.4725
20
238.2600
0
VERTEX
8
CUT
10
74.8622
20
238.2552
0
VERTEX
8
CUT
10
73.0703
20
237.6905
0
VERTEX
8
CUT
10
71.0439
20
236.5091
0
VERTEX
8
CUT
10
70.4021
20
235.8690
0
VERTEX
8
CUT
10
70.2536
20
235.7735
0
VERTEX
8
CUT
10
69.9985
20
235.4665
0
VERTEX
8
CUT
10
68.9208
20
234.3916
0
VERTEX
8
CUT
10
67.4189
20
231.7389
0
VERTEX
8
CUT
10
66.7939
20
229.8748
0
VERTEX
8
CUT
10
66.1897
20
227.4322
0
VERTEX
8
CUT
10
66.0760
20
225.6852
0
VERTEX
8
CUT
10
63.2481
20
222.1459
0
VERTEX
8
CUT
10
62.2876
20
220.5690
0
VERTEX
8
CUT
10
60.7889
20
216.3349
0
VERTEX
8
CUT
10
60.7373
20
214.5561
0
VERTEX
8
CUT
10
60.4886
20
213.9325
0
VERTEX
8
CUT
10
60.4370
20
212.1545
0
VERTEX
8
CUT
10
60.1784
20
211.4021
0
VERTEX
8
CUT
10
60.1318
20
208.8472
0
VERTEX
8
CUT
10
59.8887
20
208.0625
0
VERTEX
8
CUT
10
59.8072
20
201.2495
0
VERTEX
8
CUT
10
58.4037
20
198.3953
0
VERTEX
8
CUT
10
58.0691
20
196.4112
0
VERTEX
8
CUT
10
58.0691
20
195.8416
0
VERTEX
8
CUT
10
58.0620
20
195.8248
0
VERTEX
8
CUT
10
58.0691
20
195.8081
0
VERTEX
8
CUT
10
58.0691
20
194.5390
0
VERTEX
8
CUT
10
58.3462
20
193.0738
0
VERTEX
8
CUT
10
58.3181
20
188.3967
0
VERTEX
8
CUT
10
57.9729
20
187.2699
0
VERTEX
8
CUT
10
57.1915
20
185.7578
0
VERTEX
8
CUT
10
56.8764
20
184.3216
0
VERTEX
8
CUT
10
56.8766
20
184.2985
0
VERTEX
8
CUT
10
56.8724
20
184.2862
0
VERTEX
8
CUT
10
56.8869
20
181.2582
0
VERTEX
8
CUT
10
56.9114
20
181.2000
0
VERTEX
8
CUT
10
56.9134
20
181.0155
0
VERTEX
8
CUT
10
58.0472
20
174.2336
0
VERTEX
8
CUT
10
58.0264
20
170.7478
0
VERTEX
8
CUT
10
57.7838
20
170.0919
0
VERTEX
8
CUT
10
57.7481
20
169.0218
0
VERTEX
8
CUT
10
57.7292
20
168.7528
0
VERTEX
8
CUT
10
57.7292
20
168.7523
0
VERTEX
8
CUT
10
57.7284
20
168.7408
0
VERTEX
8
CUT
10
57.7123
20
168.5105
0
VERTEX
8
CUT
10
57.4108
20
167.2565
0
VERTEX
8
CUT
10
56.5497
20
164.9618
0
VERTEX
8
CUT
10
56.5302
20
164.9203
0
VERTEX
8
CUT
10
56.5190
20
164.8965
0
VERTEX
8
CUT
10
56.4819
20
164.8175
0
VERTEX
8
CUT
10
56.3563
20
164.5502
0
VERTEX
8
CUT
10
55.2422
20
162.5823
0
VERTEX
8
CUT
10
54.5692
20
161.9592
0
VERTEX
8
CUT
10
53.3392
20
161.4346
0
VERTEX
8
CUT
10
52.7087
20
160.2895
0
VERTEX
8
CUT
10
51.7791
20
157.4993
0
VERTEX
8
CUT
10
51.7260
20
156.5402
0
VERTEX
8
CUT
10
51.4755
20
155.9446
0
VERTEX
8
CUT
10
51.4123
20
154.0905
0
VERTEX
8
CUT
10
50.8526
20
152.7316
0
VERTEX
8
CUT
10
50.3300
20
152.5265
0
VERTEX
8
CUT
10
49.3322
20
152.4924
0
VERTEX
8
CUT
10
48.0433
20
152.8503
0
VERTEX
8
CUT
10
47.2648
20
153.2927
0
VERTEX
8
CUT
10
45.5724
20
154.8379
0
VERTEX
8
CUT
10
43.4691
20
156.0587
0
VERTEX
8
CUT
10
42.9670
20
156.2188
0
VERTEX
8
CUT
10
42.5160
20
155.9708
0
VERTEX
8
CUT
10
42.4683
20
155.6739
0
VERTEX
8
CUT
10
42.4663
20
155.6713
0
VERTEX
8
CUT
10
42.4660
20
155.6596
0
VERTEX
8
CUT
10
42.1559
20
153.7290
0
VERTEX
8
CUT
10
42.1623
20
153.3429
0
VERTEX
8
CUT
10
42.1597
20
153.3342
0
VERTEX
8
CUT
10
42.1736
20
152.6163
0
VERTEX
8
CUT
10
42.1563
20
152.5709
0
VERTEX
8
CUT
10
42.1765
20
152.4671
0
VERTEX
8
CUT
10
42.1800
20
152.2882
0
VERTEX
8
CUT
10
42.2179
20
150.0161
0
VERTEX
8
CUT
10
42.7856
20
147.5393
0
VERTEX
8
CUT
10
43.7401
20
145.0200
0
VERTEX
8
CUT
10
43.9741
20
144.3287
0
VERTEX
8
CUT
10
44.0356
20
144.2400
0
VERTEX
8
CUT
10
44.2482
20
143.6790
0
VERTEX
8
CUT
10
43.9168
20
143.1372
0
VERTEX
8
CUT
10
42.9116
20
142.5582
0
VERTEX
8
CUT
10
42.7733
20
142.2180
0
VERTEX
8
CUT
10
43.3744
20
139.7720
0
VERTEX
8
CUT
10
44.5828
20
136.1447
0
VERTEX
8
CUT
10
46.0712
20
132.8421
0
VERTEX
8
CUT
10
47.5160
20
130.3403
0
VERTEX
8
CUT
10
47.4200
20
129.8756
0
VERTEX
8
CUT
10
46.6858
20
129.0156
0
VERTEX
8
CUT
10
46.6884
20
128.3262
0
VERTEX
8
CUT
10
49.0782
20
123.5503
0
VERTEX
8
CUT
10
53.3571
20
117.4601
0
VERTEX
8
CUT
10
58.0009
20
112.3356
0
VERTEX
8
CUT
10
57.9727
20
111.9402
0
VERTEX
8
CUT
10
57.1912
20
110.9927
0
VERTEX
8
CUT
10
57.2651
20
110.5247
0
VERTEX
8
CUT
10
59.3986
20
108.0648
0
VERTEX
8
CUT
10
63.3276
20
104.3756
0
VERTEX
8
CUT
10
63.1996
20
103.8611
0
VERTEX
8
CUT
10
62.1512
20
103.0782
0
VERTEX
8
CUT
10
62.1859
20
102.6150
0
VERTEX
8
CUT
10
63.6797
20
101.1301
0
VERTEX
8
CUT
10
65.8935
20
99.5152
0
VERTEX
8
CUT
10
69.6672
20
97.7214
0
VERTEX
8
CUT
10
69.6409
20
96.5527
0
VERTEX
8
CUT
10
68.2028
20
95.9378
0
VERTEX
8
CUT
10
68.0027
20
95.6214
0
VERTEX
8
CUT
10
68.1037
20
95.3088
0
VERTEX
8
CUT
10
69.4775
20
94.4060
0
VERTEX
8
CUT
10
71.0317
20
93.7941
0
VERTEX
8
CUT
10
72.2885
20
93.4904
0
VERTEX
8
CUT
10
74.3194
20
93.4422
0
VERTEX
8
CUT
10
74.9867
20
93.1892
0
VERTEX
8
CUT
10
77.1243
20
93.0007
0
VERTEX
8
CUT
10
77.4787
20
92.3318
0
VERTEX
8
CUT
10
77.4252
20
92.0225
0
VERTEX
8
CUT
10
74.9445
20
89.7238
0
VERTEX
8
CUT
10
75.0009
20
89.3276
0
VERTEX
8
CUT
10
75.5574
20
89.0040
0
VERTEX
8
CUT
10
81.2777
20
89.0053
0
VERTEX
8
CUT
10
85.5070
20
90.1958
0
VERTEX
8
CUT
10
88.6186
20
91.6100
0
VERTEX
8
CUT
10
89.1654
20
91.6423
0
VERTEX
8
CUT
10
89.4646
20
91.4637
0
VERTEX
8
CUT
10
89.4947
20
89.7638
0
VERTEX
8
CUT
10
88.1126
20
86.3886
0
VERTEX
8
CUT
10
87.9951
20
85.5076
0
VERTEX
8
CUT
10
88.3881
20
85.1359
0
VERTEX
8
CUT
10
88.7523
20
85.0615
0
VERTEX
8
CUT
10
91.2910
20
86.2631
0
VERTEX
8
CUT
10
91.9720
20
86.0034
0
VERTEX
8
CUT
10
92.2491
20
85.4066
0
VERTEX
8
CUT
10
91.4109
20
83.0733
0
VERTEX
8
CUT
10
90.1179
20
78.0462
0
VERTEX
8
CUT
10
88.9962
20
75.1890
0
VERTEX
8
CUT
10
89.0584
20
74.2375
0
VERTEX
8
CUT
10
90.5440
20
72.9951
0
VERTEX
8
CUT
10
90.7583
20
72.3867
0
VERTEX
8
CUT
10
90.1771
20
71.8248
0
VERTEX
8
CUT
10
89.6745
20
71.7218
0
VERTEX
8
CUT
10
89.3704
20
71.7055
0
VERTEX
8
CUT
10
89.3487
20
71.6974
0
VERTEX
8
CUT
10
89.3349
20
71.6966
0
VERTEX
8
CUT
10
89.0435
20
71.5992
0
VERTEX
8
CUT
10
88.0642
20
71.4369
0
VERTEX
8
CUT
10
87.9294
20
71.4414
0
VERTEX
8
CUT
10
87.1349
20
71.5423
0
VERTEX
8
CUT
10
87.1197
20
71.5442
0
VERTEX
8
CUT
10
87.0748
20
71.5499
0
VERTEX
8
CUT
10
86.8066
20
71.5839
0
VERTEX
8
CUT
10
85.4789
20
72.0014
0
VERTEX
8
CUT
10
84.1801
20
72.0652
0
VERTEX
8
CUT
10
84.1762
20
72.0662
0
VERTEX
8
CUT
10
83.1676
20
72.3947
0
VERTEX
8
CUT
10
81.2709
20
73.7633
0
VERTEX
8
CUT
10
80.8343
20
74.1286
0
VERTEX
8
CUT
10
80.7705
20
74.1243
0
VERTEX
8
CUT
10
80.7653
20
74.1281
0
VERTEX
8
CUT
10
80.0286
20
74.0982
0
VERTEX
8
CUT
10
78.0265
20
73.2989
0
VERTEX
8
CUT
10
77.7718
20
73.2103
0
VERTEX
8
CUT
10
77.5930
20
73.1481
0
VERTEX
8
CUT
10
77.5137
20
73.1205
0
VERTEX
8
CUT
10
76.8785
20
72.8996
0
VERTEX
8
CUT
10
74.8555
20
72.3914
0
VERTEX
8
CUT
10
74.1896
20
72.4163
0
VERTEX
8
CUT
10
74.1392
20
72.4181
0
VERTEX
8
CUT
10
73.4357
20
72.4444
0
VERTEX
8
CUT
10
73.2313
20
72.4520
0
VERTEX
8
CUT
10
72.7262
20
72.8201
0
VERTEX
8
CUT
10
72.4360
20
73.2887
0
VERTEX
8
CUT
10
72.8480
20
74.0125
0
VERTEX
8
CUT
10
73.4404
20
74.6755
0
VERTEX
8
CUT
10
73.0441
20
75.1653
0
VERTEX
8
CUT
10
73.0255
20
75.1656
0
VERTEX
8
CUT
10
72.9866
20
75.2458
0
VERTEX
8
CUT
10
70.7408
20
75.3609
0
VERTEX
8
CUT
10
69.4074
20
75.6797
0
VERTEX
8
CUT
10
67.5387
20
76.3073
0
VERTEX
8
CUT
10
67.4204
20
76.3667
0
VERTEX
8
CUT
10
65.4144
20
77.5015
0
VERTEX
8
CUT
10
65.3858
20
77.5278
0
VERTEX
8
CUT
10
65.3798
20
77.5333
0
VERTEX
8
CUT
10
65.2468
20
77.6552
0
VERTEX
8
CUT
10
65.2074
20
77.6913
0
VERTEX
8
CUT
10
64.6715
20
78.3061
0
VERTEX
8
CUT
10
64.6651
20
78.3170
0
VERTEX
8
CUT
10
64.6619
20
78.3225
0
VERTEX
8
CUT
10
64.6578
20
78.3296
0
VERTEX
8
CUT
10
64.6478
20
78.3467
0
VERTEX
8
CUT
10
64.6052
20
78.8285
0
VERTEX
8
CUT
10
64.6310
20
79.0146
0
VERTEX
8
CUT
10
64.8770
20
79.3600
0
VERTEX
8
CUT
10
64.9103
20
79.4001
0
VERTEX
8
CUT
10
64.9243
20
79.4170
0
VERTEX
8
CUT
10
64.9639
20
79.4647
0
VERTEX
8
CUT
10
65.0176
20
79.5293
0
VERTEX
8
CUT
10
65.2411
20
79.6465
0
VERTEX
8
CUT
10
66.1437
20
80.0825
0
VERTEX
8
CUT
10
66.1712
20
80.1340
0
VERTEX
8
CUT
10
66.3579
20
80.2318
0
VERTEX
8
CUT
10
66.3826
20
80.7298
0
VERTEX
8
CUT
10
62.0862
20
82.9370
0
VERTEX
8
CUT
10
61.1644
20
83.5891
0
VERTEX
8
CUT
10
61.0830
20
83.6526
0
VERTEX
8
CUT
10
61.0219
20
83.7002
0
VERTEX
8
CUT
10
60.9606
20
83.7480
0
VERTEX
8
CUT
10
60.9460
20
83.7593
0
VERTEX
8
CUT
10
59.6254
20
85.0376
0
VERTEX
8
CUT
10
59.1635
20
85.6788
0
VERTEX
8
CUT
10
59.2589
20
86.3479
0
VERTEX
8
CUT
10
61.2903
20
86.9085
0
VERTEX
8
CUT
10
61.4743
20
87.1424
0
VERTEX
8
CUT
10
61.4193
20
87.4703
0
VERTEX
8
CUT
10
55.5877
20
91.8282
0
VERTEX
8
CUT
10
54.6371
20
92.7657
0
VERTEX
8
CUT
10
54.5380
20
92.8635
0
VERTEX
8
CUT
10
54.3170
20
93.0814
0
VERTEX
8
CUT
10
53.9084
20
93.4844
0
VERTEX
8
CUT
10
53.8360
20
93.5564
0
VERTEX
8
CUT
10
52.6627
20
95.0809
0
VERTEX
8
CUT
10
52.5971
20
95.3917
0
VERTEX
8
CUT
10
52.5777
20
95.5153
0
VERTEX
8
CUT
10
52.5742
20
95.5376
0
VERTEX
8
CUT
10
52.5679
20
95.5778
0
VERTEX
8
CUT
10
52.5466
20
95.7131
0
VERTEX
8
CUT
10
52.9545
20
96.2886
0
VERTEX
8
CUT
10
53.0874
20
96.3348
0
VERTEX
8
CUT
10
53.2794
20
96.3620
0
VERTEX
8
CUT
10
53.2837
20
96.3626
0
VERTEX
8
CUT
10
53.3078
20
96.3660
0
VERTEX
8
CUT
10
53.5291
20
96.3974
0
VERTEX
8
CUT
10
53.9561
20
96.1807
0
VERTEX
8
CUT
10
54.4493
20
96.1783
0
VERTEX
8
CUT
10
54.7456
20
96.3899
0
VERTEX
8
CUT
10
54.7576
20
96.7232
0
VERTEX
8
CUT
10
49.6221
20
102.6231
0
VERTEX
8
CUT
10
49.4940
20
102.8947
0
VERTEX
8
CUT
10
49.2730
20
103.3671
0
VERTEX
8
CUT
10
49.2403
20
103.9052
0
VERTEX
8
CUT
10
49.2000
20
104.6908
0
VERTEX
8
CUT
10
49.1914
20
104.7082
0
VERTEX
8
CUT
10
49.1525
20
105.3485
0
VERTEX
8
CUT
10
44.5084
20
112.2110
0
VERTEX
8
CUT
10
43.1312
20
115.1045
0
VERTEX
8
CUT
10
43.0294
20
115.5664
0
VERTEX
8
CUT
10
43.4072
20
116.1446
0
VERTEX
8
CUT
10
44.5415
20
116.3290
0
VERTEX
8
CUT
10
44.6117
20
116.8258
0
VERTEX
8
CUT
10
38.8787
20
123.8551
0
VERTEX
8
CUT
10
36.4028
20
127.8218
0
VERTEX
8
CUT
10
36.0567
20
128.6166
0
VERTEX
8
CUT
10
36.0622
20
128.6797
0
VERTEX
8
CUT
10
36.0682
20
128.7501
0
VERTEX
8
CUT
10
36.0686
20
128.7539
0
VERTEX
8
CUT
10
36.0761
20
128.8410
0
VERTEX
8
CUT
10
36.2284
20
129.3675
0
VERTEX
8
CUT
10
36.9858
20
129.7095
0
VERTEX
8
CUT
10
37.0339
20
129.6976
0
VERTEX
8
CUT
10
38.1703
20
129.2396
0
VERTEX
8
CUT
10
38.4448
20
129.4798
0
VERTEX
8
CUT
10
38.4249
20
129.8404
0
VERTEX
8
CUT
10
33.6859
20
136.5794
0
VERTEX
8
CUT
10
31.9062
20
140.1373
0
VERTEX
8
CUT
10
30.9675
20
142.9400
0
VERTEX
8
CUT
10
30.6379
20
144.3874
0
VERTEX
8
CUT
10
30.6303
20
144.7406
0
VERTEX
8
CUT
10
30.7798
20
145.2193
0
VERTEX
8
CUT
10
31.1341
20
145.5813
0
VERTEX
8
CUT
10
31.7242
20
145.5960
0
VERTEX
8
CUT
10
33.5584
20
144.3946
0
VERTEX
8
CUT
10
33.8891
20
144.4587
0
VERTEX
8
CUT
10
34.0461
20
144.7568
0
VERTEX
8
CUT
10
31.8620
20
151.3732
0
VERTEX
8
CUT
10
31.7981
20
152.3865
0
VERTEX
8
CUT
10
31.2438
20
154.5850
0
VERTEX
8
CUT
10
31.2524
20
155.6385
0
VERTEX
8
CUT
10
31.2764
20
157.9040
0
VERTEX
8
CUT
10
31.7178
20
158.4754
0
VERTEX
8
CUT
10
32.3608
20
158.5863
0
VERTEX
8
CUT
10
32.8448
20
158.3125
0
VERTEX
8
CUT
10
34.4934
20
157.2691
0
VERTEX
8
CUT
10
35.0222
20
156.8328
0
VERTEX
8
CUT
10
35.5822
20
156.8361
0
VERTEX
8
CUT
10
35.6279
20
157.1964
0
VERTEX
8
CUT
10
35.6992
20
157.4367
0
VERTEX
8
CUT
10
35.6707
20
157.5337
0
VERTEX
8
CUT
10
35.6992
20
157.7584
0
VERTEX
8
CUT
10
34.7891
20
160.8406
0
VERTEX
8
CUT
10
33.2754
20
163.5621
0
VERTEX
8
CUT
10
32.3362
20
164.8163
0
VERTEX
8
CUT
10
31.7932
20
165.3513
0
VERTEX
8
CUT
10
31.7349
20
165.4295
0
VERTEX
8
CUT
10
30.3379
20
166.7884
0
VERTEX
8
CUT
10
30.3225
20
166.8006
0
VERTEX
8
CUT
10
30.0605
20
167.0587
0
VERTEX
8
CUT
10
26.2301
20
170.0800
0
VERTEX
8
CUT
10
24.0581
20
172.2859
0
VERTEX
8
CUT
10
23.2671
20
173.3704
0
VERTEX
8
CUT
10
23.0176
20
173.9027
0
VERTEX
8
CUT
10
23.0019
20
173.9363
0
VERTEX
8
CUT
10
23.0006
20
173.9388
0
VERTEX
8
CUT
10
23.0006
20
173.9390
0
VERTEX
8
CUT
10
22.8568
20
174.2692
0
VERTEX
8
CUT
10
22.8787
20
174.5453
0
VERTEX
8
CUT
10
23.1088
20
175.1294
0
VERTEX
8
CUT
10
23.9073
20
175.4065
0
VERTEX
8
CUT
10
24.2375
20
175.3832
0
VERTEX
8
CUT
10
25.3291
20
175.1329
0
VERTEX
8
CUT
10
25.7538
20
175.4128
0
VERTEX
8
CUT
10
25.7765
20
175.8122
0
VERTEX
8
CUT
10
22.8901
20
179.3342
0
VERTEX
8
CUT
10
19.1502
20
183.2232
0
VERTEX
8
CUT
10
16.6304
20
186.3342
0
VERTEX
8
CUT
10
14.7897
20
189.6929
0
VERTEX
8
CUT
10
14.7696
20
189.7329
0
VERTEX
8
CUT
10
13.5638
20
193.0488
0
VERTEX
8
CUT
10
13.2239
20
194.7770
0
VERTEX
8
CUT
10
13.2507
20
196.0685
0
VERTEX
8
CUT
10
13.6273
20
196.5580
0
VERTEX
8
CUT
10
14.0680
20
196.7224
0
VERTEX
8
CUT
10
18.1323
20
194.3881
0
VERTEX
8
CUT
10
20.3786
20
193.6147
0
VERTEX
8
CUT
10
20.8194
20
193.9068
0
VERTEX
8
CUT
10
20.6871
20
194.4495
0
VERTEX
8
CUT
10
18.4402
20
197.9918
0
VERTEX
8
CUT
10
18.1865
20
198.4990
0
VERTEX
8
CUT
10
18.0012
20
198.8694
0
VERTEX
8
CUT
10
17.6871
20
199.4975
0
VERTEX
8
CUT
10
17.1958
20
200.4797
0
VERTEX
8
CUT
10
16.2573
20
202.9815
0
VERTEX
8
CUT
10
16.1838
20
203.7454
0
VERTEX
8
CUT
10
15.3581
20
206.2862
0
VERTEX
8
CUT
10
15.2877
20
207.6072
0
VERTEX
8
CUT
10
15.0515
20
208.1774
0
VERTEX
8
CUT
10
15.1204
20
212.4819
0
SEQEND
0
POLYLINE
8
CUT
66
1
70
1
10
0.0
20
0.0
30
0.0
0
VERTEX
8
CUT
10
164.0845
20
197.3420
0
VERTEX
8
CUT
10
163.0015
20
194.5861
0
VERTEX
8
CUT
10
163.3358
20
194.2100
0
VERTEX
8
CUT
10
163.8816
20
194.6350
0
VERTEX
8
CUT
10
164.3756
20
195.5112
0
VERTEX
8
CUT
10
164.4557
20
196.8871
0
VERTEX
8
CUT
10
164.9729
20
197.9152
0
VERTEX
8
CUT
10
164.9325
20
198.5372
0
VERTEX
8
CUT
10
164.2008
20
198.4953
0
SEQEND
0
POLYLINE
8
CUT
66
1
70
1
10
0.0
20
0.0
30
0.0
0
VERTEX
8
CUT
10
158.0450
20
164.8195
0
VERTEX
8
CUT
10
158.1395
20
166.1953
0
VERTEX
8
CUT
10
158.4496
20
167.2593
0
VERTEX
8
CUT
10
159.2346
20
168.3670
0
VERTEX
8
CUT
10
159.5154
20
168.9450
0
VERTEX
8
CUT
10
159.4396
20
169.1591
0
VERTEX
8
CUT
10
158.7571
20
169.0506
0
VERTEX
8
CUT
10
158.4497
20
168.3715
0
VERTEX
8
CUT
10
158.3682
20
167.5093
0
VERTEX
8
CUT
10
157.2310
20
165.5236
0
VERTEX
8
CUT
10
157.2406
20
164.4461
0
VERTEX
8
CUT
10
157.4601
20
164.1072
0
VERTEX
8
CUT
10
157.7275
20
164.1935
0
SEQEND
0
POLYLINE
8
CUT
66
1
70
1
10
0.0
20
0.0
30
0.0
0
VERTEX
8
CUT
10
155.9541
20
240.1344
0
VERTEX
8
CUT
10
155.4242
20
240.6606
0
VERTEX
8
CUT
10
155.1736
20
240.5138
0
VERTEX
8
CUT
10
155.1039
20
239.8882
0
VERTEX
8
CUT
10
155.4100
20
237.5238
0
VERTEX
8
CUT
10
155.4425
20
232.0434
0
VERTEX
8
CUT
10
155.5155
20
231.4767
0
VERTEX
8
CUT
10
155.7161
20
231.3499
0
VERTEX
8
CUT
10
155.9613
20
231.4965
0
VERTEX
8
CUT
10
156.2855
20
232.6697
0
VERTEX
8
CUT
10
156.2993
20
238.4677
0
SEQEND
0
POLYLINE
8
CUT
66
1
70
1
10
0.0
20
0.0
30
0.0
0
VERTEX
8
CUT
10
148.4637
20
255.8302
0
VERTEX
8
CUT
10
148.0651
20
256.1859
0
VERTEX
8
CUT
10
147.6384
20
256.2567
0
VERTEX
8
CUT
10
147.2295
20
256.0550
0
VERTEX
8
CUT
10
147.1046
20
255.7366
0
VERTEX
8
CUT
10
148.4534
20
253.4099
0
VERTEX
8
CUT
10
148.8691
20
251.9194
0
VERTEX
8
CUT
10
149.3789
20
250.9349
0
VERTEX
8
CUT
10
149.9787
20
248.5149
0
VERTEX
8
CUT
10
150.0334
20
246.9894
0
VERTEX
8
CUT
10
150.2958
20
245.9512
0
VERTEX
8
CUT
10
150.2878
20
240.2760
0
VERTEX
8
CUT
10
149.7965
20
237.5294
0
VERTEX
8
CUT
10
150.4237
20
236.8568
0
VERTEX
8
CUT
10
151.2056
20
237.5005
0
VERTEX
8
CUT
10
151.5089
20
238.0434
0
VERTEX
8
CUT
10
151.4797
20
238.6352
0
VERTEX
8
CUT
10
150.8885
20
239.8083
0
VERTEX
8
CUT
10
151.1909
20
240.7664
0
VERTEX
8
CUT
10
151.2493
20
243.9828
0
VERTEX
8
CUT
10
151.5069
20
244.5505
0
VERTEX
8
CUT
10
151.2913
20
245.0112
0
VERTEX
8
CUT
10
151.4350
20
245.3077
0
VERTEX
8
CUT
10
151.2416
20
245.7628
0
VERTEX
8
CUT
10
151.1840
20
247.5797
0
VERTEX
8
CUT
10
150.9400
20
248.1343
0
VERTEX
8
CUT
10
150.8911
20
249.3528
0
VERTEX
8
CUT
10
150.2696
20
252.1653
0
VERTEX
8
CUT
10
149.1557
20
254.0252
0
SEQEND
0
POLYLINE
8
CUT
66
1
70
1
10
0.0
20
0.0
30
0.0
0
VERTEX
8
CUT
10
145.2666
20
205.6875
0
VERTEX
8
CUT
10
144.9585
20
206.6214
0
VERTEX
8
CUT
10
144.8553
20
209.2595
0
VERTEX
8
CUT
10
144.4692
20
210.2921
0
VERTEX
8
CUT
10
143.3242
20
211.2310
0
VERTEX
8
CUT
10
143.1356
20
210.9888
0
VERTEX
8
CUT
10
143.1313
20
210.3050
0
VERTEX
8
CUT
10
144.5838
20
205.8181
0
VERTEX
8
CUT
10
144.6649
20
203.8904
0
VERTEX
8
CUT
10
145.1173
20
203.4656
0
VERTEX
8
CUT
10
145.6353
20
203.4795
0
VERTEX
8
CUT
10
146.1210
20
204.1947
0
SEQEND
0
POLYLINE
8
CUT
66
1
70
1
10
0.0
20
0.0
30
0.0
0
VERTEX
8
CUT
10
143.9324
20
250.8768
0
VERTEX
8
CUT
10
144.3265
20
250.5759
0
VERTEX
8
CUT
10
144.6340
20
250.7435
0
VERTEX
8
CUT
10
144.9652
20
251.4244
0
VERTEX
8
CUT
10
145.5709
20
253.2547
0
VERTEX
8
CUT
10
145.5995
20
253.8839
0
VERTEX
8
CUT
10
145.4479
20
254.1885
0
VERTEX
8
CUT
10
144.8789
20
254.3959
0
VERTEX
8
CUT
10
144.2205
20
255.0253
0
VERTEX
8
CUT
10
143.8876
20
255.0755
0
VERTEX
8
CUT
10
143.6400
20
254.8475
0
VERTEX
8
CUT
10
143.6235
20
253.3008
0
VERTEX
8
CUT
10
143.8926
20
252.3649
0
SEQEND
0
POLYLINE
8
CUT
66
1
70
1
10
0.0
20
0.0
30
0.0
0
VERTEX
8
CUT
10
67.2747
20
273.9583
0
VERTEX
8
CUT
10
66.0708
20
273.0171
0
VERTEX
8
CUT
10
65.7012
20
272.2703
0
VERTEX
8
CUT
10
65.7042
20
271.7031
0
VERTEX
8
CUT
10
66.6350
20
272.1255
0
VERTEX
8
CUT
10
68.4315
20
274.2046
0
VERTEX
8
CUT
10
71.0797
20
276.5625
0
VERTEX
8
CUT
10
72.0836
20
277.8464
0
VERTEX
8
CUT
10
73.6378
20
278.8999
0
VERTEX
8
CUT
10
75.4849
20
280.6598
0
VERTEX
8
CUT
10
77.2660
20
282.5269
0
VERTEX
8
CUT
10
77.2650
20
283.2527
0
VERTEX
8
CUT
10
76.6816
20
282.9980
0
VERTEX
8
CUT
10
74.1678
20
280.7766
0
VERTEX
8
CUT
10
71.9283
20
278.3176
0
VERTEX
8
CUT
10
69.9649
20
276.8739
0
VERTEX
8
CUT
10
68.2190
20
275.1759
0
SEQEND
0
POLYLINE
8
CUT
66
1
70
1
10
0.0
20
0.0
30
0.0
0
VERTEX
8
CUT
10
64.6299
20
270.9817
0
VERTEX
8
CUT
10
62.9961
20
268.7275
0
VERTEX
8
CUT
10
62.7582
20
268.2101
0
VERTEX
8
CUT
10
62.8374
20
268.0022
0
VERTEX
8
CUT
10
63.2004
20
268.1629
0
VERTEX
8
CUT
10
63.6851
20
269.0928
0
VERTEX
8
CUT
10
64.7842
20
269.9883
0
VERTEX
8
CUT
10
65.2299
20
271.1966
0
VERTEX
8
CUT
10
65.0170
20
271.2675
0
SEQEND
0
POLYLINE
8
CUT
66
1
70
1
10
0.0
20
0.0
30
0.0
0
VERTEX
8
CUT
10
54.9003
20
255.2743
0
VERTEX
8
CUT
10
54.6144
20
255.4972
0
VERTEX
8
CUT
10
54.2965
20
255.4135
0
VERTEX
8
CUT
10
54.1580
20
255.1540
0
VERTEX
8
CUT
10
54.1801
20
254.4750
0
VERTEX
8
CUT
10
54.7899
20
252.6252
0
VERTEX
8
CUT
10
55.6977
20
250.7844
0
VERTEX
8
CUT
10
56.2182
20
250.6158
0
VERTEX
8
CUT
10
56.4315
20
250.9182
0
VERTEX
8
CUT
10
56.3972
20
252.6948
0
VERTEX
8
CUT
10
55.3979
20
253.5159
0
SEQEND
0
POLYLINE
8
CUT
66
1
70
1
10
0.0
20
0.0
30
0.0
0
VERTEX
8
CUT
10
51.8432
20
205.8115
0
VERTEX
8
CUT
10
50.7286
20
205.7174
0
VERTEX
8
CUT
10
50.7414
20
205.0288
0
VERTEX
8
CUT
10
52.8855
20
204.2872
0
VERTEX
8
CUT
10
54.2393
20
203.4570
0
VERTEX
8
CUT
10
54.6394
20
203.4453
0
VERTEX
8
CUT
10
54.8474
20
203.6656
0
VERTEX
8
CUT
10
54.5589
20
204.4420
0
VERTEX
8
CUT
10
53.7687
20
204.7120
0
VERTEX
8
CUT
10
52.5853
20
205.4880
0
SEQEND
0
POLYLINE
8
CUT
66
1
70
1
10
0.0
20
0.0
30
0.0
0
VERTEX
8
CUT
10
46.1629
20
240.0317
0
VERTEX
8
CUT
10
49.3546
20
236.7983
0
VERTEX
8
CUT
10
49.8890
20
237.0730
0
VERTEX
8
CUT
10
50.0326
20
237.6784
0
VERTEX
8
CUT
10
49.6138
20
238.4940
0
VERTEX
8
CUT
10
48.9905
20
238.7769
0
VERTEX
8
CUT
10
48.6255
20
238.6983
0
VERTEX
8
CUT
10
46.8013
20
240.3928
0
VERTEX
8
CUT
10
46.2799
20
240.6454
0
SEQEND
0
POLYLINE
8
CUT
66
1
70
1
10
0.0
20
0.0
30
0.0
0
VERTEX
8
CUT
10
41.6674
20
226.0704
0
VERTEX
8
CUT
10
41.6338
20
225.7275
0
VERTEX
8
CUT
10
41.7762
20
225.4226
0
VERTEX
8
CUT
10
43.3670
20
224.7782
0
VERTEX
8
CUT
10
44.8835
20
224.4360
0
VERTEX
8
CUT
10
45.6927
20
224.5222
0
VERTEX
8
CUT
10
46.0549
20
224.9089
0
VERTEX
8
CUT
10
45.6627
20
225.2777
0
VERTEX
8
CUT
10
44.5555
20
225.3829
0
VERTEX
8
CUT
10
41.8871
20
226.2311
0
SEQEND
0
POLYLINE
8
CUT
66
1
70
1
10
0.0
20
0.0
30
0.0
0
VERTEX
8
CUT
10
38.2449
20
190.6118
0
VERTEX
8
CUT
10
38.5539
20
191.2290
0
VERTEX
8
CUT
10
38.1348
20
191.6794
0
VERTEX
8
CUT
10
36.4943
20
191.7535
0
VERTEX
8
CUT
10
34.8812
20
192.3196
0
VERTEX
8
CUT
10
34.1691
20
192.1327
0
VERTEX
8
CUT
10
34.1849
20
191.5801
0
VERTEX
8
CUT
10
37.8588
20
190.5250
0
SEQEND
0
ENDSEC
0
EOF
