0
SECTION
2
HEADER
9
$ACADVER
1
AC1009
9
$INSUNITS
70
4
0
ENDSEC
0
SECTION
2
TABLES
0
TABLE
2
LAYER
70
1
0
LAYER
2
CUT
70
0
62
7
6
CONTINUOUS
0
ENDTAB
0
ENDSEC
0
SECTION
2
ENTITIES
0
POLYLINE
8
CUT
66
1
70
1
10
0.0
20
0.0
30
0.0
0
VERTEX
8
CUT
10
0.2657
20
201.6648
0
VERTEX
8
CUT
10
0.0328
20
202.1495
0
VERTEX
8
CUT
10
0.0000
20
203.1116
0
VERTEX
8
CUT
10
0.2906
20
203.9492
0
VERTEX
8
CUT
10
1.0591
20
204.5185
0
VERTEX
8
CUT
10
2.7466
20
204.3406
0
VERTEX
8
CUT
10
3.2437
20
204.6253
0
VERTEX
8
CUT
10
3.5856
20
205.2591
0
VERTEX
8
CUT
10
2.9764
20
208.8342
0
VERTEX
8
CUT
10
2.7350
20
209.3615
0
VERTEX
8
CUT
10
2.3751
20
213.3146
0
VERTEX
8
CUT
10
2.1376
20
214.0114
0
VERTEX
8
CUT
10
2.1520
20
221.8069
0
VERTEX
8
CUT
10
2.5056
20
223.2399
0
VERTEX
8
CUT
10
3.4279
20
224.4597
0
VERTEX
8
CUT
10
4.1404
20
224.6577
0
VERTEX
8
CUT
10
5.6429
20
224.0396
0
VERTEX
8
CUT
10
5.9553
20
224.1695
0
VERTEX
8
CUT
10
6.2398
20
224.6572
0
VERTEX
8
CUT
10
6.3247
20
229.9191
0
VERTEX
8
CUT
10
6.5835
20
230.8054
0
VERTEX
8
CUT
10
6.6275
20
232.2562
0
VERTEX
8
CUT
10
7.1818
20
234.3673
0
VERTEX
8
CUT
10
7.2431
20
235.3677
0
VERTEX
8
CUT
10
8.1688
20
238.4533
0
VERTEX
8
CUT
10
8.8366
20
239.7685
0
VERTEX
8
CUT
10
9.6498
20
240.5243
0
VERTEX
8
CUT
10
10.0682
20
240.4881
0
VERTEX
8
CUT
10
11.2815
20
239.6989
0
VERTEX
8
CUT
10
11.7171
20
239.6656
0
VERTEX
8
CUT
10
12.0590
20
239.7666
0
VERTEX
8
CUT
10
12.8313
20
240.5535
0
VERTEX
8
CUT
10
13.5553
20
243.5074
0
VERTEX
8
CUT
10
14.7733
20
247.1593
0
VERTEX
8
CUT
10
16.8893
20
251.7206
0
VERTEX
8
CUT
10
19.9441
20
256.5672
0
VERTEX
8
CUT
10
23.0253
20
260.5505
0
VERTEX
8
CUT
10
25.7441
20
263.6059
0
VERTEX
8
CUT
10
30.9614
20
268.7712
0
VERTEX
8
CUT
10
31.5340
20
269.0756
0
VERTEX
8
CUT
10
32.2832
20
268.9599
0
VERTEX
8
CUT
10
32.9282
20
268.4360
0
VERTEX
8
CUT
10
33.2575
20
267.5422
0
VERTEX
8
CUT
10
33.7708
20
267.4949
0
VERTEX
8
CUT
10
36.6462
20
270.8805
0
VERTEX
8
CUT
10
41.9140
20
276.1354
0
VERTEX
8
CUT
10
44.0043
20
277.9217
0
VERTEX
8
CUT
10
49.4673
20
281.8891
0
VERTEX
8
CUT
10
54.0408
20
284.6326
0
VERTEX
8
CUT
10
61.2012
20
288.2135
0
VERTEX
8
CUT
10
76.5630
20
294.5390
0
VERTEX
8
CUT
10
86.5468
20
297.8644
0
VERTEX
8
CUT
10
87.5689
20
297.9301
0
VERTEX
8
CUT
10
90.4246
20
298.7575
0
VERTEX
8
CUT
10
91.7626
20
298.8308
0
VERTEX
8
CUT
10
93.8001
20
299.3724
0
VERTEX
8
CUT
10
95.3303
20
299.4277
0
VERTEX
8
CUT
10
96.0779
20
299.6870
0
VERTEX
8
CUT
10
98.6076
20
299.7311
0
VERTEX
8
CUT
10
99.8934
20
300.0000
0
VERTEX
8
CUT
10
102.4282
20
299.9893
0
VERTEX
8
CUT
10
103.5442
20
299.7302
0
VERTEX
8
CUT
10
105.8087
20
299.6862
0
VERTEX
8
CUT
10
106.5353
20
299.4284
0
VERTEX
8
CUT
10
108.3441
20
299.3733
0
VERTEX
8
CUT
10
110.4001
20
298.8282
0
VERTEX
8
CUT
10
111.4005
20
298.7669
0
VERTEX
8
CUT
10
115.0371
20
297.8585
0
VERTEX
8
CUT
10
117.2637
20
297.0346
0
VERTEX
8
CUT
10
118.0392
20
296.9579
0
VERTEX
8
CUT
10
123.4923
20
295.1394
0
VERTEX
8
CUT
10
128.0576
20
293.1361
0
VERTEX
8
CUT
10
130.1480
20
292.4164
0
VERTEX
8
CUT
10
131.6108
20
291.6554
0
VERTEX
8
CUT
10
136.4524
20
289.7146
0
VERTEX
8
CUT
10
138.5156
20
288.6533
0
VERTEX
8
CUT
10
139.1543
20
288.5137
0
VERTEX
8
CUT
10
146.3388
20
284.9189
0
VERTEX
8
CUT
10
151.4785
20
281.8952
0
VERTEX
8
CUT
10
157.1181
20
277.7855
0
VERTEX
8
CUT
10
159.4911
20
275.7099
0
VERTEX
8
CUT
10
163.6323
20
271.6015
0
VERTEX
8
CUT
10
167.2315
20
267.4477
0
VERTEX
8
CUT
10
167.5639
20
267.2922
0
VERTEX
8
CUT
10
167.8801
20
267.3857
0
VERTEX
8
CUT
10
168.5528
20
268.6424
0
VERTEX
8
CUT
10
169.0679
20
269.0444
0
VERTEX
8
CUT
10
169.5667
20
269.0724
0
VERTEX
8
CUT
10
171.5745
20
267.5175
0
VERTEX
8
CUT
10
174.1204
20
264.9994
0
VERTEX
8
CUT
10
179.4895
20
258.6878
0
VERTEX
8
CUT
10
181.9385
20
255.3419
0
VERTEX
8
CUT
10
183.7814
20
252.2694
0
VERTEX
8
CUT
10
185.8824
20
247.7597
0
VERTEX
8
CUT
10
187.1002
20
244.1076
0
VERTEX
8
CUT
10
187.4856
20
242.1047
0
VERTEX
8
CUT
10
188.1095
20
240.5637
0
VERTEX
8
CUT
10
189.0588
20
240.0409
0
VERTEX
8
CUT
10
190.4882
20
240.7429
0
VERTEX
8
CUT
10
190.8750
20
240.7493
0
VERTEX
8
CUT
10
191.6920
20
240.2346
0
VERTEX
8
CUT
10
192.1656
20
239.4051
0
VERTEX
8
CUT
10
193.4107
20
235.0740
0
VERTEX
8
CUT
10
193.7767
20
232.2599
0
VERTEX
8
CUT
10
194.0166
20
231.7082
0
VERTEX
8
CUT
10
194.4401
20
224.9642
0
VERTEX
8
CUT
10
195.2048
20
224.3476
0
VERTEX
8
CUT
10
196.6449
20
225.1893
0
VERTEX
8
CUT
10
197.5528
20
225.0675
0
VERTEX
8
CUT
10
198.1793
20
224.0778
0
VERTEX
8
CUT
10
198.2797
20
222.9443
0
VERTEX
8
CUT
10
198.5212
20
222.4169
0
VERTEX
8
CUT
10
198.5765
20
220.8868
0
VERTEX
8
CUT
10
198.8370
20
219.8383
0
VERTEX
8
CUT
10
198.8311
20
213.2961
0
VERTEX
8
CUT
10
198.5753
20
212.3810
0
VERTEX
8
CUT
10
198.5186
20
210.8470
0
VERTEX
8
CUT
10
198.2773
20
210.3082
0
VERTEX
8
CUT
10
198.2201
20
209.0468
0
VERTEX
8
CUT
10
197.6800
20
207.0051
0
VERTEX
8
CUT
10
197.6915
20
205.2414
0
VERTEX
8
CUT
10
198.3361
20
204.5830
0
VERTEX
8
CUT
10
200.4043
20
204.4521
0
VERTEX
8
CUT
10
200.8330
20
204.0496
0
VERTEX
8
CUT
10
200.9464
20
203.5713
0
VERTEX
8
CUT
10
200.9150
20
201.5264
0
VERTEX
8
CUT
10
200.3096
20
199.0785
0
VERTEX
8
CUT
10
199.7858
20
197.7526
0
VERTEX
8
CUT
10
199.6937
20
196.9283
0
VERTEX
8
CUT
10
197.8696
20
192.0732
0
VERTEX
8
CUT
10
196.0522
20
188.3596
0
VERTEX
8
CUT
10
196.2021
20
188.0051
0
VERTEX
8
CUT
10
196.7120
20
187.7224
0
VERTEX
8
CUT
10
198.0916
20
188.3321
0
VERTEX
8
CUT
10
199.0371
20
188.1400
0
VERTEX
8
CUT
10
199.4244
20
187.6155
0
VERTEX
8
CUT
10
199.4038
20
186.1571
0
VERTEX
8
CUT
10
198.7702
20
184.2678
0
VERTEX
8
CUT
10
197.2552
20
181.2501
0
VERTEX
8
CUT
10
195.4262
20
178.5283
0
VERTEX
8
CUT
10
192.9382
20
175.5963
0
VERTEX
8
CUT
10
192.2471
20
174.5036
0
VERTEX
8
CUT
10
192.6038
20
174.0158
0
VERTEX
8
CUT
10
193.3624
20
174.2117
0
VERTEX
8
CUT
10
194.3970
20
174.1298
0
VERTEX
8
CUT
10
195.1237
20
173.4218
0
VERTEX
8
CUT
10
195.2076
20
172.9167
0
VERTEX
8
CUT
10
192.4197
20
167.7061
0
VERTEX
8
CUT
10
189.6596
20
164.0523
0
VERTEX
8
CUT
10
186.3288
20
160.2783
0
VERTEX
8
CUT
10
184.4908
20
157.8437
0
VERTEX
8
CUT
10
183.5655
20
156.2316
0
VERTEX
8
CUT
10
183.8760
20
155.8428
0
VERTEX
8
CUT
10
185.6904
20
155.8235
0
VERTEX
8
CUT
10
186.1041
20
155.4112
0
VERTEX
8
CUT
10
186.2624
20
154.8268
0
VERTEX
8
CUT
10
184.1496
20
148.6401
0
VERTEX
8
CUT
10
184.1833
20
148.1397
0
VERTEX
8
CUT
10
184.4819
20
147.6089
0
VERTEX
8
CUT
10
185.5557
20
146.6467
0
VERTEX
8
CUT
10
185.6416
20
145.6740
0
VERTEX
8
CUT
10
183.8827
20
140.4309
0
VERTEX
8
CUT
10
183.8661
20
139.2195
0
VERTEX
8
CUT
10
184.4333
20
138.5670
0
VERTEX
8
CUT
10
185.0684
20
138.4125
0
VERTEX
8
CUT
10
185.5227
20
138.0400
0
VERTEX
8
CUT
10
186.1111
20
137.3641
0
VERTEX
8
CUT
10
186.2685
20
136.8889
0
VERTEX
8
CUT
10
184.7827
20
133.2141
0
VERTEX
8
CUT
10
184.7840
20
131.4634
0
VERTEX
8
CUT
10
185.8635
20
130.2423
0
VERTEX
8
CUT
10
187.3495
20
129.3029
0
VERTEX
8
CUT
10
188.0201
20
128.1582
0
VERTEX
8
CUT
10
187.1741
20
124.7177
0
VERTEX
8
CUT
10
187.2146
20
121.6674
0
VERTEX
8
CUT
10
188.1347
20
120.1447
0
VERTEX
8
CUT
10
192.1855
20
116.2632
0
VERTEX
8
CUT
10
192.8353
20
114.8190
0
VERTEX
8
CUT
10
192.5891
20
112.4150
0
VERTEX
8
CUT
10
193.5016
20
110.9243
0
VERTEX
8
CUT
10
194.5737
20
109.6819
0
VERTEX
8
CUT
10
195.1887
20
108.4647
0
VERTEX
8
CUT
10
195.2005
20
106.9014
0
VERTEX
8
CUT
10
193.7925
20
104.4148
0
VERTEX
8
CUT
10
193.7739
20
103.1876
0
VERTEX
8
CUT
10
196.0894
20
98.8568
0
VERTEX
8
CUT
10
196.7130
20
96.9785
0
VERTEX
8
CUT
10
197.0422
20
94.9022
0
VERTEX
8
CUT
10
197.0077
20
90.1816
0
VERTEX
8
CUT
10
195.5585
20
84.3136
0
VERTEX
8
CUT
10
196.4438
20
77.3999
0
VERTEX
8
CUT
10
196.1795
20
76.7280
0
VERTEX
8
CUT
10
196.1297
20
75.2363
0
VERTEX
8
CUT
10
195.8065
20
73.8920
0
VERTEX
8
CUT
10
194.6936
20
71.3992
0
VERTEX
8
CUT
10
194.3618
20
69.6604
0
VERTEX
8
CUT
10
194.3798
20
66.0323
0
VERTEX
8
CUT
10
194.6241
20
65.3625
0
VERTEX
8
CUT
10
194.6732
20
63.5959
0
VERTEX
8
CUT
10
194.9110
20
63.0464
0
VERTEX
8
CUT
10
194.9781
20
61.4483
0
VERTEX
8
CUT
10
195.2307
20
60.8226
0
VERTEX
8
CUT
10
195.2783
20
59.3469
0
VERTEX
8
CUT
10
195.5229
20
58.7613
0
VERTEX
8
CUT
10
195.5804
20
56.6501
0
VERTEX
8
CUT
10
195.8251
20
56.0194
0
VERTEX
8
CUT
10
195.8735
20
53.4433
0
VERTEX
8
CUT
10
196.1350
20
52.4375
0
VERTEX
8
CUT
10
196.1784
20
47.5066
0
VERTEX
8
CUT
10
196.4436
20
46.3839
0
VERTEX
8
CUT
10
196.4338
20
43.5513
0
VERTEX
8
CUT
10
196.1719
20
42.3643
0
VERTEX
8
CUT
10
196.1294
20
35.3004
0
VERTEX
8
CUT
10
195.8778
20
34.3068
0
VERTEX
8
CUT
10
195.8372
20
31.0279
0
VERTEX
8
CUT
10
195.5748
20
30.1274
0
VERTEX
8
CUT
10
195.5260
20
27.8133
0
VERTEX
8
CUT
10
195.2793
20
27.1787
0
VERTEX
8
CUT
10
195.2246
20
25.0901
0
VERTEX
8
CUT
10
194.6785
20
22.6906
0
VERTEX
8
CUT
10
194.3174
20
19.3157
0
VERTEX
8
CUT
10
194.0775
20
18.8035
0
VERTEX
8
CUT
10
193.7170
20
16.0134
0
VERTEX
8
CUT
10
193.1768
20
14.3003
0
VERTEX
8
CUT
10
192.7889
20
12.0005
0
VERTEX
8
CUT
10
191.8654
20
9.2468
0
VERTEX
8
CUT
10
190.0718
20
5.6648
0
VERTEX
8
CUT
10
189.2631
20
4.5280
0
VERTEX
8
CUT
10
187.4973
20
2.7271
0
VERTEX
8
CUT
10
185.9421
20
1.5452
0
VERTEX
8
CUT
10
183.2098
20
0.3362
0
VERTEX
8
CUT
10
181.4132
20
0.0000
0
VERTEX
8
CUT
10
178.5173
20
0.0125
0
VERTEX
8
CUT
10
177.9416
20
0.2521
0
VERTEX
8
CUT
10
176.6999
20
0.3061
0
VERTEX
8
CUT
10
175.3807
20
0.6278
0
VERTEX
8
CUT
10
172.5782
20
1.5668
0
VERTEX
8
CUT
10
170.7613
20
2.4814
0
VERTEX
8
CUT
10
166.8164
20
5.2504
0
VERTEX
8
CUT
10
162.0763
20
9.9774
0
VERTEX
8
CUT
10
148.1714
20
26.2735
0
VERTEX
8
CUT
10
141.2165
20
35.9303
0
VERTEX
8
CUT
10
136.6987
20
42.8443
0
VERTEX
8
CUT
10
133.0546
20
48.9188
0
VERTEX
8
CUT
10
129.6250
20
55.2084
0
VERTEX
8
CUT
10
129.0054
20
55.7885
0
VERTEX
8
CUT
10
127.4947
20
55.9265
0
VERTEX
8
CUT
10
126.0801
20
57.0259
0
VERTEX
8
CUT
10
124.6704
20
59.3815
0
VERTEX
8
CUT
10
123.3280
20
62.7168
0
VERTEX
8
CUT
10
122.9671
20
63.0050
0
VERTEX
8
CUT
10
121.3030
20
63.1100
0
VERTEX
8
CUT
10
120.4437
20
63.8536
0
VERTEX
8
CUT
10
119.5668
20
65.3856
0
VERTEX
8
CUT
10
119.4273
20
66.0243
0
VERTEX
8
CUT
10
118.5397
20
67.8159
0
VERTEX
8
CUT
10
117.8101
20
68.8613
0
VERTEX
8
CUT
10
117.0061
20
69.5989
0
VERTEX
8
CUT
10
114.6765
20
70.7751
0
VERTEX
8
CUT
10
110.9965
20
72.0014
0
VERTEX
8
CUT
10
109.7536
20
72.0557
0
VERTEX
8
CUT
10
107.3269
20
72.6106
0
VERTEX
8
CUT
10
105.8188
20
72.6628
0
VERTEX
8
CUT
10
105.2545
20
72.9056
0
VERTEX
8
CUT
10
101.8683
20
73.2288
0
VERTEX
8
CUT
10
98.8843
20
73.2115
0
VERTEX
8
CUT
10
98.0762
20
72.9558
0
VERTEX
8
CUT
10
96.3370
20
72.9102
0
VERTEX
8
CUT
10
95.7567
20
72.6649
0
VERTEX
8
CUT
10
92.3881
20
72.3052
0
VERTEX
8
CUT
10
90.3190
20
71.7564
0
VERTEX
8
CUT
10
89.3349
20
71.6966
0
VERTEX
8
CUT
10
86.5797
20
70.7751
0
VERTEX
8
CUT
10
84.5480
20
69.5985
0
VERTEX
8
CUT
10
82.1567
20
67.0607
0
VERTEX
8
CUT
10
80.4065
20
66.9016
0
VERTEX
8
CUT
10
80.0550
20
66.6732
0
VERTEX
8
CUT
10
79.6941
20
66.2025
0
VERTEX
8
CUT
10
79.6480
20
65.0062
0
VERTEX
8
CUT
10
79.3917
20
64.3004
0
VERTEX
8
CUT
10
79.3391
20
61.6966
0
VERTEX
8
CUT
10
78.9626
20
60.8264
0
VERTEX
8
CUT
10
78.1229
20
60.3979
0
VERTEX
8
CUT
10
77.0525
20
60.9008
0
VERTEX
8
CUT
10
76.2523
20
60.7952
0
VERTEX
8
CUT
10
75.7990
20
59.3411
0
VERTEX
8
CUT
10
75.7179
20
57.9676
0
VERTEX
8
CUT
10
75.2059
20
56.7469
0
VERTEX
8
CUT
10
74.1382
20
55.8434
0
VERTEX
8
CUT
10
72.4699
20
56.0650
0
VERTEX
8
CUT
10
71.1293
20
55.0218
0
VERTEX
8
CUT
10
63.0625
20
42.2540
0
VERTEX
8
CUT
10
57.6265
20
34.1137
0
VERTEX
8
CUT
10
52.1731
20
26.5520
0
VERTEX
8
CUT
10
46.6693
20
19.8463
0
VERTEX
8
CUT
10
38.8399
20
10.8380
0
VERTEX
8
CUT
10
34.1035
20
6.0532
0
VERTEX
8
CUT
10
32.0949
20
4.3617
0
VERTEX
8
CUT
10
30.1344
20
3.0462
0
VERTEX
8
CUT
10
27.1769
20
1.5668
0
VERTEX
8
CUT
10
25.5750
20
0.9282
0
VERTEX
8
CUT
10
22.3128
20
0.2923
0
VERTEX
8
CUT
10
18.3921
20
0.3024
0
VERTEX
8
CUT
10
16.8223
20
0.6433
0
VERTEX
8
CUT
10
14.6534
20
1.5807
0
VERTEX
8
CUT
10
12.7767
20
2.8484
0
VERTEX
8
CUT
10
11.9015
20
3.6767
0
VERTEX
8
CUT
10
9.9695
20
6.2893
0
VERTEX
8
CUT
10
8.4901
20
9.2468
0
VERTEX
8
CUT
10
8.0706
20
10.7368
0
VERTEX
8
CUT
10
7.5513
20
11.7493
0
VERTEX
8
CUT
10
6.6377
20
15.4187
0
VERTEX
8
CUT
10
6.2787
20
18.2024
0
VERTEX
8
CUT
10
6.0307
20
18.7597
0
VERTEX
8
CUT
10
5.6777
20
22.0894
0
VERTEX
8
CUT
10
5.4276
20
22.7058
0
VERTEX
8
CUT
10
5.3772
20
24.4841
0
VERTEX
8
CUT
10
5.1248
20
25.1168
0
VERTEX
8
CUT
10
5.0813
20
26.5643
0
VERTEX
8
CUT
10
4.8272
20
27.2089
0
VERTEX
8
CUT
10
4.7768
20
28.9872
0
VERTEX
8
CUT
10
4.5304
20
29.6197
0
VERTEX
8
CUT
10
4.4820
20
32.1959
0
VERTEX
8
CUT
10
4.2178
20
33.1138
0
VERTEX
8
CUT
10
4.1783
20
36.1124
0
VERTEX
8
CUT
10
3.9205
20
37.0991
0
VERTEX
8
CUT
10
3.8841
20
41.8928
0
VERTEX
8
CUT
10
3.6092
20
44.3200
0
VERTEX
8
CUT
10
3.6001
20
49.3747
0
VERTEX
8
CUT
10
3.8834
20
52.0593
0
VERTEX
8
CUT
10
3.9305
20
55.9684
0
VERTEX
8
CUT
10
4.1722
20
56.6449
0
VERTEX
8
CUT
10
4.5304
20
61.7500
0
VERTEX
8
CUT
10
4.7770
20
62.3599
0
VERTEX
8
CUT
10
4.8251
20
64.1165
0
VERTEX
8
CUT
10
5.0766
20
64.7500
0
VERTEX
8
CUT
10
5.1264
20
66.2415
0
VERTEX
8
CUT
10
5.3464
20
66.9728
0
VERTEX
8
CUT
10
5.4209
20
69.7579
0
VERTEX
8
CUT
10
5.0796
20
72.8315
0
VERTEX
8
CUT
10
3.9220
20
77.4020
0
VERTEX
8
CUT
10
3.9236
20
79.4045
0
VERTEX
8
CUT
10
4.7573
20
83.4695
0
VERTEX
8
CUT
10
4.8134
20
85.4796
0
VERTEX
8
CUT
10
4.4773
20
87.5587
0
VERTEX
8
CUT
10
3.6477
20
90.4297
0
VERTEX
8
CUT
10
3.5765
20
92.6164
0
VERTEX
8
CUT
10
3.2939
20
93.6119
0
VERTEX
8
CUT
10
3.5752
20
94.4854
0
VERTEX
8
CUT
10
3.6434
20
96.6603
0
VERTEX
8
CUT
10
4.5663
20
99.7574
0
VERTEX
8
CUT
10
6.2768
20
102.5344
0
VERTEX
8
CUT
10
6.8879
20
103.8919
0
VERTEX
8
CUT
10
6.8472
20
105.0213
0
VERTEX
8
CUT
10
5.7650
20
107.2632
0
VERTEX
8
CUT
10
5.8067
20
109.4184
0
VERTEX
8
CUT
10
7.7208
20
112.1217
0
VERTEX
8
CUT
10
7.8351
20
115.4627
0
VERTEX
8
CUT
10
8.1531
20
116.2299
0
VERTEX
8
CUT
10
10.5449
20
118.7362
0
VERTEX
8
CUT
10
12.6600
20
120.5802
0
VERTEX
8
CUT
10
13.4399
20
121.9646
0
VERTEX
8
CUT
10
13.4784
20
124.7539
0
VERTEX
8
CUT
10
12.6331
20
127.7378
0
VERTEX
8
CUT
10
12.6425
20
128.4607
0
VERTEX
8
CUT
10
13.3534
20
129.6541
0
VERTEX
8
CUT
10
15.3406
20
130.7738
0
VERTEX
8
CUT
10
15.8659
20
131.6882
0
VERTEX
8
CUT
10
15.8594
20
133.2028
0
VERTEX
8
CUT
10
14.4174
20
137.0962
0
VERTEX
8
CUT
10
14.8385
20
138.0118
0
VERTEX
8
CUT
10
16.3968
20
138.8289
0
VERTEX
8
CUT
10
16.7820
20
139.4764
0
VERTEX
8
CUT
10
16.7779
20
140.7148
0
VERTEX
8
CUT
10
15.0115
20
145.7507
0
VERTEX
8
CUT
10
15.1435
20
146.6790
0
VERTEX
8
CUT
10
16.5152
20
148.4229
0
VERTEX
8
CUT
10
14.4556
20
154.3500
0
VERTEX
8
CUT
10
14.4128
20
155.0178
0
VERTEX
8
CUT
10
14.5796
20
155.4787
0
VERTEX
8
CUT
10
15.2408
20
156.1074
0
VERTEX
8
CUT
10
15.9604
20
156.2044
0
VERTEX
8
CUT
10
16.7876
20
156.0051
0
VERTEX
8
CUT
10
17.1136
20
156.4892
0
VERTEX
8
CUT
10
14.9433
20
159.9533
0
VERTEX
8
CUT
10
8.8175
20
167.1407
0
VERTEX
8
CUT
10
7.5679
20
169.0018
0
VERTEX
8
CUT
10
6.3675
20
171.4101
0
VERTEX
8
CUT
10
6.0189
20
172.5616
0
VERTEX
8
CUT
10
6.1131
20
174.0119
0
VERTEX
8
CUT
10
6.6707
20
174.4727
0
VERTEX
8
CUT
10
8.3609
20
174.5596
0
VERTEX
8
CUT
10
8.5769
20
175.0091
0
VERTEX
8
CUT
10
5.8954
20
178.1552
0
VERTEX
8
CUT
10
4.3072
20
180.3393
0
VERTEX
8
CUT
10
2.7795
20
183.0600
0
VERTEX
8
CUT
10
1.8474
20
185.2693
0
VERTEX
8
CUT
10
1.5006
20
186.9457
0
VERTEX
8
CUT
10
1.9439
20
187.9387
0
VERTEX
8
CUT
10
2.8217
20
188.3277
0
VERTEX
8
CUT
10
4.4531
20
187.8195
0
VERTEX
8
CUT
10
4.9040
20
188.3591
0
VERTEX
8
CUT
10
2.1646
20
194.5260
0
VERTEX
8
CUT
10
0.9467
20
198.1782
0
VERTEX
8
CUT
10
0.3255
20
200.6807
0
SEQEND
0
POLYLINE
8
CUT
66
1
70
1
10
0.0
20
0.0
30
0.0
0
VERTEX
8
CUT
10
125.8999
20
136.7588
0
VERTEX
8
CUT
10
125.3779
20
136.7600
0
VERTEX
8
CUT
10
125.3011
20
136.2375
0
VERTEX
8
CUT
10
126.8086
20
134.3599
0
VERTEX
8
CUT
10
129.5299
20
132.8367
0
VERTEX
8
CUT
10
131.5072
20
132.4933
0
VERTEX
8
CUT
10
132.3094
20
132.7690
0
VERTEX
8
CUT
10
133.8252
20
132.8245
0
VERTEX
8
CUT
10
135.9275
20
133.7182
0
VERTEX
8
CUT
10
138.2430
20
135.6779
0
VERTEX
8
CUT
10
138.9602
20
136.4706
0
VERTEX
8
CUT
10
139.2079
20
137.0865
0
VERTEX
8
CUT
10
138.7177
20
137.8087
0
VERTEX
8
CUT
10
138.2904
20
137.8649
0
VERTEX
8
CUT
10
137.4976
20
136.7652
0
VERTEX
8
CUT
10
135.7973
20
135.1407
0
VERTEX
8
CUT
10
133.9758
20
134.2288
0
VERTEX
8
CUT
10
131.9762
20
133.8767
0
VERTEX
8
CUT
10
130.7360
20
133.9051
0
VERTEX
8
CUT
10
129.6485
20
134.2585
0
VERTEX
8
CUT
10
127.2932
20
135.4443
0
SEQEND
0
POLYLINE
8
CUT
66
1
70
1
10
0.0
20
0.0
30
0.0
0
VERTEX
8
CUT
10
137.9078
20
141.3228
0
VERTEX
8
CUT
10
138.5143
20
141.3777
0
VERTEX
8
CUT
10
138.5597
20
142.2979
0
VERTEX
8
CUT
10
137.2265
20
144.0044
0
VERTEX
8
CUT
10
136.3033
20
144.5153
0
VERTEX
8
CUT
10
136.3203
20
143.7978
0
SEQEND
0
POLYLINE
8
CUT
66
1
70
1
10
0.0
20
0.0
30
0.0
0
VERTEX
8
CUT
10
132.8855
20
145.7573
0
VERTEX
8
CUT
10
134.7067
20
145.1960
0
VERTEX
8
CUT
10
134.9028
20
145.3104
0
VERTEX
8
CUT
10
134.0769
20
146.2059
0
VERTEX
8
CUT
10
132.8789
20
146.6609
0
VERTEX
8
CUT
10
129.6477
20
146.6505
0
VERTEX
8
CUT
10
128.7684
20
145.9871
0
VERTEX
8
CUT
10
129.3374
20
145.8084
0
SEQEND
0
POLYLINE
8
CUT
66
1
70
1
10
0.0
20
0.0
30
0.0
0
VERTEX
8
CUT
10
124.5757
20
145.5209
0
VERTEX
8
CUT
10
122.1905
20
146.4703
0
VERTEX
8
CUT
10
121.9494
20
146.2414
0
VERTEX
8
CUT
10
122.0271
20
145.1822
0
VERTEX
8
CUT
10
123.8376
20
139.4470
0
VERTEX
8
CUT
10
124.3063
20
139.1866
0
VERTEX
8
CUT
10
124.5972
20
139.5165
0
VERTEX
8
CUT
10
124.5723
20
140.8560
0
VERTEX
8
CUT
10
124.0763
20
142.4513
0
VERTEX
8
CUT
10
124.4858
20
143.1784
0
VERTEX
8
CUT
10
125.4853
20
143.5992
0
VERTEX
8
CUT
10
125.7394
20
144.1841
0
SEQEND
0
POLYLINE
8
CUT
66
1
70
1
10
0.0
20
0.0
30
0.0
0
VERTEX
8
CUT
10
105.2237
20
206.7094
0
VERTEX
8
CUT
10
106.1188
20
204.6236
0
VERTEX
8
CUT
10
107.4734
20
203.2278
0
VERTEX
8
CUT
10
108.2485
20
202.7735
0
VERTEX
8
CUT
10
110.1056
20
202.4673
0
VERTEX
8
CUT
10
111.6144
20
203.0730
0
VERTEX
8
CUT
10
112.5437
20
204.0022
0
VERTEX
8
CUT
10
112.8718
20
204.8663
0
VERTEX
8
CUT
10
112.8523
20
205.8230
0
VERTEX
8
CUT
10
112.5868
20
206.5263
0
VERTEX
8
CUT
10
112.6394
20
207.5312
0
VERTEX
8
CUT
10
113.1350
20
208.4120
0
VERTEX
8
CUT
10
114.4102
20
209.1285
0
VERTEX
8
CUT
10
114.5293
20
209.5385
0
VERTEX
8
CUT
10
114.3108
20
209.7822
0
VERTEX
8
CUT
10
111.3114
20
210.9966
0
VERTEX
8
CUT
10
109.9955
20
211.3120
0
VERTEX
8
CUT
10
108.8563
20
211.2938
0
VERTEX
8
CUT
10
106.7535
20
210.3928
0
VERTEX
8
CUT
10
105.8852
20
209.5469
0
VERTEX
8
CUT
10
105.2245
20
208.2589
0
SEQEND
0
POLYLINE
8
CUT
66
1
70
1
10
0.0
20
0.0
30
0.0
0
VERTEX
8
CUT
10
99.8403
20
212.1401
0
VERTEX
8
CUT
10
100.3316
20
212.1917
0
VERTEX
8
CUT
10
100.4242
20
212.4048
0
VERTEX
8
CUT
10
100.4981
20
220.1304
0
VERTEX
8
CUT
10
100.7607
20
221.2138
0
VERTEX
8
CUT
10
100.5722
20
221.8151
0
VERTEX
8
CUT
10
100.1777
20
222.0435
0
VERTEX
8
CUT
10
99.7013
20
221.6750
0
VERTEX
8
CUT
10
99.6011
20
220.9110
0
VERTEX
8
CUT
10
99.5951
20
213.2053
0
SEQEND
0
POLYLINE
8
CUT
66
1
70
1
10
0.0
20
0.0
30
0.0
0
VERTEX
8
CUT
10
88.1300
20
210.6922
0
VERTEX
8
CUT
10
86.0833
20
209.6136
0
VERTEX
8
CUT
10
86.1059
20
209.2536
0
VERTEX
8
CUT
10
87.1832
20
208.4473
0
VERTEX
8
CUT
10
87.7523
20
207.3814
0
VERTEX
8
CUT
10
87.7395
20
206.3176
0
VERTEX
8
CUT
10
87.2123
20
205.2713
0
VERTEX
8
CUT
10
87.2123
20
204.8922
0
VERTEX
8
CUT
10
87.6232
20
204.1652
0
VERTEX
8
CUT
10
88.7531
20
203.0696
0
VERTEX
8
CUT
10
90.6718
20
202.4433
0
VERTEX
8
CUT
10
92.0868
20
202.7660
0
VERTEX
8
CUT
10
92.8883
20
203.2348
0
VERTEX
8
CUT
10
94.2358
20
204.6250
0
VERTEX
8
CUT
10
94.8342
20
206.1349
0
VERTEX
8
CUT
10
94.8351
20
208.2272
0
VERTEX
8
CUT
10
94.2190
20
209.4789
0
VERTEX
8
CUT
10
93.2943
20
210.3957
0
VERTEX
8
CUT
10
91.2064
20
211.2928
0
VERTEX
8
CUT
10
90.3792
20
211.3163
0
SEQEND
0
POLYLINE
8
CUT
66
1
70
1
10
0.0
20
0.0
30
0.0
0
VERTEX
8
CUT
10
60.0041
20
138.9766
0
VERTEX
8
CUT
10
59.6436
20
138.6284
0
VERTEX
8
CUT
10
59.9019
20
137.9449
0
VERTEX
8
CUT
10
61.0179
20
136.5109
0
VERTEX
8
CUT
10
62.8869
20
134.6315
0
VERTEX
8
CUT
10
64.7135
20
133.4131
0
VERTEX
8
CUT
10
67.0812
20
132.5452
0
VERTEX
8
CUT
10
70.2975
20
132.5103
0
VERTEX
8
CUT
10
71.3788
20
132.8191
0
VERTEX
8
CUT
10
72.6415
20
133.4688
0
VERTEX
8
CUT
10
73.8550
20
134.7405
0
VERTEX
8
CUT
10
73.8417
20
135.1521
0
VERTEX
8
CUT
10
73.4494
20
135.3325
0
VERTEX
8
CUT
10
70.6028
20
133.9283
0
VERTEX
8
CUT
10
66.9454
20
133.9450
0
VERTEX
8
CUT
10
64.1916
20
135.1835
0
VERTEX
8
CUT
10
62.6623
20
136.6842
0
VERTEX
8
CUT
10
61.2923
20
138.6671
0
SEQEND
0
POLYLINE
8
CUT
66
1
70
1
10
0.0
20
0.0
30
0.0
0
VERTEX
8
CUT
10
71.4611
20
145.8419
0
VERTEX
8
CUT
10
71.4746
20
146.1323
0
VERTEX
8
CUT
10
70.7261
20
146.6573
0
VERTEX
8
CUT
10
68.5512
20
146.6743
0
VERTEX
8
CUT
10
68.0680
20
146.4401
0
VERTEX
8
CUT
10
68.0973
20
145.9621
0
VERTEX
8
CUT
10
68.3742
20
145.8315
0
SEQEND
0
POLYLINE
8
CUT
66
1
70
1
10
0.0
20
0.0
30
0.0
0
VERTEX
8
CUT
10
61.8015
20
141.4130
0
VERTEX
8
CUT
10
62.5006
20
141.6430
0
VERTEX
8
CUT
10
62.8967
20
142.0377
0
VERTEX
8
CUT
10
63.5345
20
143.3342
0
VERTEX
8
CUT
10
63.4422
20
143.8587
0
VERTEX
8
CUT
10
62.7740
20
143.6197
0
VERTEX
8
CUT
10
62.4197
20
143.2575
0
VERTEX
8
CUT
10
61.7985
20
141.9802
0
SEQEND
0
ENDSEC
0
EOF
