0
SECTION
2
HEADER
9
$ACADVER
1
AC1009
9
$INSUNITS
70
4
0
ENDSEC
0
SECTION
2
TABLES
0
TABLE
2
LAYER
70
1
0
LAYER
2
CUT
70
0
62
7
6
CONTINUOUS
0
ENDTAB
0
ENDSEC
0
SECTION
2
ENTITIES
0
POLYLINE
8
CUT
66
1
70
1
10
0.0
20
0.0
30
0.0
0
VERTEX
8
CUT
10
160.5181
20
84.8199
0
VERTEX
8
CUT
10
159.9756
20
86.6893
0
VERTEX
8
CUT
10
158.8777
20
89.1359
0
VERTEX
8
CUT
10
158.7824
20
89.9668
0
VERTEX
8
CUT
10
158.2494
20
91.3316
0
VERTEX
8
CUT
10
157.9209
20
93.1990
0
VERTEX
8
CUT
10
157.9948
20
96.1888
0
VERTEX
8
CUT
10
158.5010
20
96.7173
0
VERTEX
8
CUT
10
159.0263
20
96.7610
0
VERTEX
8
CUT
10
161.3486
20
94.7593
0
VERTEX
8
CUT
10
161.8978
20
94.7922
0
VERTEX
8
CUT
10
161.9512
20
94.8886
0
VERTEX
8
CUT
10
161.9657
20
94.8917
0
VERTEX
8
CUT
10
161.9716
20
94.9255
0
VERTEX
8
CUT
10
162.0975
20
95.1527
0
VERTEX
8
CUT
10
162.0958
20
95.6428
0
VERTEX
8
CUT
10
162.0963
20
95.6458
0
VERTEX
8
CUT
10
162.0958
20
95.6468
0
VERTEX
8
CUT
10
162.0920
20
96.7787
0
VERTEX
8
CUT
10
161.5517
20
98.5366
0
VERTEX
8
CUT
10
161.1857
20
101.3508
0
VERTEX
8
CUT
10
160.9365
20
101.9144
0
VERTEX
8
CUT
10
161.0254
20
103.1605
0
VERTEX
8
CUT
10
161.8429
20
103.8971
0
VERTEX
8
CUT
10
163.2433
20
103.9704
0
VERTEX
8
CUT
10
167.1453
20
103.1173
0
VERTEX
8
CUT
10
167.5504
20
103.4386
0
VERTEX
8
CUT
10
167.6103
20
103.7395
0
VERTEX
8
CUT
10
166.0661
20
106.5897
0
VERTEX
8
CUT
10
166.0192
20
107.1489
0
VERTEX
8
CUT
10
166.0288
20
107.2424
0
VERTEX
8
CUT
10
166.0323
20
107.2764
0
VERTEX
8
CUT
10
166.0330
20
107.2827
0
VERTEX
8
CUT
10
166.0343
20
107.2953
0
VERTEX
8
CUT
10
166.1645
20
107.6496
0
VERTEX
8
CUT
10
166.2106
20
107.7107
0
VERTEX
8
CUT
10
166.2414
20
107.7517
0
VERTEX
8
CUT
10
166.2759
20
107.7976
0
VERTEX
8
CUT
10
166.2952
20
107.8232
0
VERTEX
8
CUT
10
166.7279
20
108.1428
0
VERTEX
8
CUT
10
167.6185
20
108.1566
0
VERTEX
8
CUT
10
167.9818
20
108.1481
0
VERTEX
8
CUT
10
170.0245
20
107.5097
0
VERTEX
8
CUT
10
171.1276
20
106.8392
0
VERTEX
8
CUT
10
171.6528
20
106.4631
0
VERTEX
8
CUT
10
171.8520
20
106.3204
0
VERTEX
8
CUT
10
171.8847
20
106.2970
0
VERTEX
8
CUT
10
172.0294
20
106.1934
0
VERTEX
8
CUT
10
173.6506
20
104.8485
0
VERTEX
8
CUT
10
173.8728
20
104.6356
0
VERTEX
8
CUT
10
176.2414
20
101.7562
0
VERTEX
8
CUT
10
176.9741
20
100.7610
0
VERTEX
8
CUT
10
177.9438
20
99.0867
0
VERTEX
8
CUT
10
178.1777
20
98.6046
0
VERTEX
8
CUT
10
178.6861
20
97.3320
0
VERTEX
8
CUT
10
178.7644
20
96.2654
0
VERTEX
8
CUT
10
179.0386
20
95.5010
0
VERTEX
8
CUT
10
178.6885
20
93.3870
0
VERTEX
8
CUT
10
177.8868
20
92.5350
0
VERTEX
8
CUT
10
176.6745
20
92.4721
0
VERTEX
8
CUT
10
174.9895
20
93.0276
0
VERTEX
8
CUT
10
174.8733
20
93.1731
0
VERTEX
8
CUT
10
174.4025
20
93.4667
0
VERTEX
8
CUT
10
173.8525
20
93.1769
0
VERTEX
8
CUT
10
173.7264
20
92.7264
0
VERTEX
8
CUT
10
174.5958
20
89.4049
0
VERTEX
8
CUT
10
174.7052
20
87.6600
0
VERTEX
8
CUT
10
174.8552
20
87.2983
0
VERTEX
8
CUT
10
174.8639
20
86.9878
0
VERTEX
8
CUT
10
174.9136
20
86.8610
0
VERTEX
8
CUT
10
174.9258
20
85.5886
0
VERTEX
8
CUT
10
174.6567
20
84.3291
0
VERTEX
8
CUT
10
174.7502
20
84.1227
0
VERTEX
8
CUT
10
174.6472
20
83.5352
0
VERTEX
8
CUT
10
174.0890
20
83.1646
0
VERTEX
8
CUT
10
173.5281
20
83.1945
0
VERTEX
8
CUT
10
169.9404
20
85.4296
0
VERTEX
8
CUT
10
169.5653
20
85.2956
0
VERTEX
8
CUT
10
169.4145
20
84.7383
0
VERTEX
8
CUT
10
169.7733
20
82.9947
0
VERTEX
8
CUT
10
171.2907
20
78.7558
0
VERTEX
8
CUT
10
173.5829
20
74.5506
0
VERTEX
8
CUT
10
175.6753
20
69.7366
0
VERTEX
8
CUT
10
176.5355
20
67.1571
0
VERTEX
8
CUT
10
176.9823
20
65.5781
0
VERTEX
8
CUT
10
176.9998
20
65.5715
0
VERTEX
8
CUT
10
177.8187
20
61.6332
0
VERTEX
8
CUT
10
177.8202
20
58.6641
0
VERTEX
8
CUT
10
177.6044
20
57.9982
0
VERTEX
8
CUT
10
176.8125
20
57.7392
0
VERTEX
8
CUT
10
175.4824
20
58.9082
0
VERTEX
8
CUT
10
175.4740
20
58.9234
0
VERTEX
8
CUT
10
175.4517
20
58.9352
0
VERTEX
8
CUT
10
174.9178
20
59.4044
0
VERTEX
8
CUT
10
174.5049
20
59.4336
0
VERTEX
8
CUT
10
174.2779
20
59.1064
0
VERTEX
8
CUT
10
174.8729
20
57.1901
0
VERTEX
8
CUT
10
176.8491
20
52.6865
0
VERTEX
8
CUT
10
176.8540
20
52.6742
0
VERTEX
8
CUT
10
176.8590
20
52.6618
0
VERTEX
8
CUT
10
176.8651
20
52.6465
0
VERTEX
8
CUT
10
176.8985
20
52.5634
0
VERTEX
8
CUT
10
177.7283
20
50.2842
0
VERTEX
8
CUT
10
177.7292
20
50.2812
0
VERTEX
8
CUT
10
177.7367
20
50.2564
0
VERTEX
8
CUT
10
177.7741
20
50.1317
0
VERTEX
8
CUT
10
178.1098
20
49.0122
0
VERTEX
8
CUT
10
178.1675
20
48.5089
0
VERTEX
8
CUT
10
178.6997
20
47.1354
0
VERTEX
8
CUT
10
178.7628
20
45.5656
0
VERTEX
8
CUT
10
179.0659
20
44.5574
0
VERTEX
8
CUT
10
178.8335
20
43.6058
0
VERTEX
8
CUT
10
178.1897
20
43.1951
0
VERTEX
8
CUT
10
177.6399
20
43.3480
0
VERTEX
8
CUT
10
176.1871
20
44.3951
0
VERTEX
8
CUT
10
175.8552
20
44.3693
0
VERTEX
8
CUT
10
175.6645
20
44.0964
0
VERTEX
8
CUT
10
175.7603
20
43.7843
0
VERTEX
8
CUT
10
175.7534
20
43.7542
0
VERTEX
8
CUT
10
175.9656
20
43.1158
0
VERTEX
8
CUT
10
177.4922
20
38.1449
0
VERTEX
8
CUT
10
177.5258
20
37.6663
0
VERTEX
8
CUT
10
177.5626
20
36.8417
0
VERTEX
8
CUT
10
177.8046
20
36.0973
0
VERTEX
8
CUT
10
177.8220
20
35.1451
0
VERTEX
8
CUT
10
177.8211
20
32.7631
0
VERTEX
8
CUT
10
177.4539
20
31.7562
0
VERTEX
8
CUT
10
176.9246
20
31.2617
0
VERTEX
8
CUT
10
176.3307
20
31.2379
0
VERTEX
8
CUT
10
176.2896
20
31.2632
0
VERTEX
8
CUT
10
175.4959
20
31.9933
0
VERTEX
8
CUT
10
175.0480
20
31.6163
0
VERTEX
8
CUT
10
174.9052
20
30.8642
0
VERTEX
8
CUT
10
175.2064
20
29.8583
0
VERTEX
8
CUT
10
175.2638
20
27.4746
0
VERTEX
8
CUT
10
175.4162
20
27.0970
0
VERTEX
8
CUT
10
175.4101
20
25.1294
0
VERTEX
8
CUT
10
175.2543
20
24.7940
0
VERTEX
8
CUT
10
175.1904
20
22.9302
0
VERTEX
8
CUT
10
174.7106
20
21.6982
0
VERTEX
8
CUT
10
174.7584
20
21.6518
0
VERTEX
8
CUT
10
174.2243
20
20.7406
0
VERTEX
8
CUT
10
173.4338
20
20.4965
0
VERTEX
8
CUT
10
172.3350
20
21.0606
0
VERTEX
8
CUT
10
171.5349
20
21.7618
0
VERTEX
8
CUT
10
164.1329
20
30.4130
0
VERTEX
8
CUT
10
159.8147
20
36.2397
0
VERTEX
8
CUT
10
155.2700
20
43.8153
0
VERTEX
8
CUT
10
153.7905
20
46.7728
0
VERTEX
8
CUT
10
153.1421
20
48.3535
0
VERTEX
8
CUT
10
153.2098
20
48.8135
0
VERTEX
8
CUT
10
153.6180
20
49.2254
0
VERTEX
8
CUT
10
153.9925
20
49.3186
0
VERTEX
8
CUT
10
157.1222
20
47.6043
0
VERTEX
8
CUT
10
157.9465
20
47.5452
0
VERTEX
8
CUT
10
158.2036
20
48.0244
0
VERTEX
8
CUT
10
157.2815
20
50.0497
0
VERTEX
8
CUT
10
155.5702
20
52.8215
0
VERTEX
8
CUT
10
153.1690
20
57.6314
0
VERTEX
8
CUT
10
152.5057
20
60.0113
0
VERTEX
8
CUT
10
152.5915
20
61.0692
0
VERTEX
8
CUT
10
153.3662
20
61.5526
0
VERTEX
8
CUT
10
153.7199
20
61.4671
0
VERTEX
8
CUT
10
157.1566
20
58.9871
0
VERTEX
8
CUT
10
158.3845
20
58.3605
0
VERTEX
8
CUT
10
158.7592
20
58.3880
0
VERTEX
8
CUT
10
159.0718
20
58.7131
0
VERTEX
8
CUT
10
158.7874
20
59.6710
0
VERTEX
8
CUT
10
155.8920
20
65.0854
0
VERTEX
8
CUT
10
154.9532
20
67.8881
0
VERTEX
8
CUT
10
154.6144
20
69.4957
0
VERTEX
8
CUT
10
154.6550
20
71.4769
0
VERTEX
8
CUT
10
155.2319
20
72.0682
0
VERTEX
8
CUT
10
156.1092
20
72.1227
0
VERTEX
8
CUT
10
157.7479
20
71.2977
0
VERTEX
8
CUT
10
158.2657
20
71.2515
0
VERTEX
8
CUT
10
159.6465
20
71.2960
0
VERTEX
8
CUT
10
160.3002
20
71.9845
0
VERTEX
8
CUT
10
160.2566
20
72.6290
0
VERTEX
8
CUT
10
157.9723
20
77.1449
0
VERTEX
8
CUT
10
156.4318
20
81.8916
0
VERTEX
8
CUT
10
156.4368
20
84.5505
0
VERTEX
8
CUT
10
156.8225
20
85.1711
0
VERTEX
8
CUT
10
157.8262
20
85.3384
0
VERTEX
8
CUT
10
159.8673
20
84.2491
0
SEQEND
0
POLYLINE
8
CUT
66
1
70
1
10
0.0
20
0.0
30
0.0
0
VERTEX
8
CUT
10
25.6519
20
83.4620
0
VERTEX
8
CUT
10
25.0738
20
83.8852
0
VERTEX
8
CUT
10
24.9277
20
84.5802
0
VERTEX
8
CUT
10
24.9361
20
87.6993
0
VERTEX
8
CUT
10
25.4969
20
90.8444
0
VERTEX
8
CUT
10
24.7391
20
91.7564
0
VERTEX
8
CUT
10
24.5353
20
92.3535
0
VERTEX
8
CUT
10
24.0454
20
92.6733
0
VERTEX
8
CUT
10
22.3690
20
92.4634
0
VERTEX
8
CUT
10
21.4458
20
93.2283
0
VERTEX
8
CUT
10
21.0166
20
95.2109
0
VERTEX
8
CUT
10
21.3529
20
97.2723
0
VERTEX
8
CUT
10
21.9918
20
98.8875
0
VERTEX
8
CUT
10
23.2420
20
100.7448
0
VERTEX
8
CUT
10
27.0245
20
105.1361
0
VERTEX
8
CUT
10
27.0998
20
105.2103
0
VERTEX
8
CUT
10
27.1131
20
105.2234
0
VERTEX
8
CUT
10
27.1872
20
105.2963
0
VERTEX
8
CUT
10
27.4262
20
105.5317
0
VERTEX
8
CUT
10
29.6536
20
107.1684
0
VERTEX
8
CUT
10
30.8803
20
107.7888
0
VERTEX
8
CUT
10
32.0414
20
108.1523
0
VERTEX
8
CUT
10
33.6143
20
108.1441
0
VERTEX
8
CUT
10
34.2080
20
107.6770
0
VERTEX
8
CUT
10
34.3303
20
107.0174
0
VERTEX
8
CUT
10
32.5682
20
103.8045
0
VERTEX
8
CUT
10
32.7322
20
103.2231
0
VERTEX
8
CUT
10
33.4289
20
103.0652
0
VERTEX
8
CUT
10
35.5935
20
103.6887
0
VERTEX
8
CUT
10
35.6635
20
103.7048
0
VERTEX
8
CUT
10
35.6665
20
103.7097
0
VERTEX
8
CUT
10
36.4350
20
103.9311
0
VERTEX
8
CUT
10
38.0048
20
103.9671
0
VERTEX
8
CUT
10
38.7068
20
103.7985
0
VERTEX
8
CUT
10
39.3995
20
102.9861
0
VERTEX
8
CUT
10
39.3824
20
102.9021
0
VERTEX
8
CUT
10
39.3705
20
102.8436
0
VERTEX
8
CUT
10
39.3591
20
102.7877
0
VERTEX
8
CUT
10
39.3350
20
102.6695
0
VERTEX
8
CUT
10
37.9729
20
97.4674
0
VERTEX
8
CUT
10
37.9093
20
96.1688
0
VERTEX
8
CUT
10
37.6284
20
95.4543
0
VERTEX
8
CUT
10
37.7691
20
94.8908
0
VERTEX
8
CUT
10
38.0541
20
94.6745
0
VERTEX
8
CUT
10
38.4037
20
94.7274
0
VERTEX
8
CUT
10
39.4823
20
95.5583
0
VERTEX
8
CUT
10
39.6539
20
95.6696
0
VERTEX
8
CUT
10
39.7103
20
95.7340
0
VERTEX
8
CUT
10
41.6771
20
97.2492
0
VERTEX
8
CUT
10
42.1941
20
97.0773
0
VERTEX
8
CUT
10
42.4247
20
96.4161
0
VERTEX
8
CUT
10
42.4103
20
94.7821
0
VERTEX
8
CUT
10
41.8000
20
92.2047
0
VERTEX
8
CUT
10
39.7793
20
86.9849
0
VERTEX
8
CUT
10
39.4513
20
84.9203
0
VERTEX
8
CUT
10
39.8938
20
84.3498
0
VERTEX
8
CUT
10
40.2250
20
84.2538
0
VERTEX
8
CUT
10
42.9576
20
85.6627
0
VERTEX
8
CUT
10
43.6778
20
85.3665
0
VERTEX
8
CUT
10
43.9115
20
84.7718
0
VERTEX
8
CUT
10
43.6704
20
84.2210
0
VERTEX
8
CUT
10
43.6065
20
82.9274
0
VERTEX
8
CUT
10
43.0699
20
81.2308
0
VERTEX
8
CUT
10
43.0086
20
80.2304
0
VERTEX
8
CUT
10
42.0830
20
77.4451
0
VERTEX
8
CUT
10
39.3179
20
72.0328
0
VERTEX
8
CUT
10
39.8153
20
71.2823
0
VERTEX
8
CUT
10
41.5742
20
71.2694
0
VERTEX
8
CUT
10
44.8000
20
72.6741
0
VERTEX
8
CUT
10
45.5701
20
72.3038
0
VERTEX
8
CUT
10
45.7520
20
71.7185
0
VERTEX
8
CUT
10
45.4747
20
71.0396
0
VERTEX
8
CUT
10
45.3869
20
69.9407
0
VERTEX
8
CUT
10
43.8842
20
65.7370
0
VERTEX
8
CUT
10
40.6715
20
59.3789
0
VERTEX
8
CUT
10
40.5282
20
58.7820
0
VERTEX
8
CUT
10
40.8239
20
58.3637
0
VERTEX
8
CUT
10
41.3972
20
58.3813
0
VERTEX
8
CUT
10
43.1974
20
59.2871
0
VERTEX
8
CUT
10
45.8648
20
61.2366
0
VERTEX
8
CUT
10
46.6796
20
61.6017
0
VERTEX
8
CUT
10
47.6945
20
61.4951
0
VERTEX
8
CUT
10
47.8515
20
60.5449
0
VERTEX
8
CUT
10
47.4656
20
59.0813
0
VERTEX
8
CUT
10
44.4701
20
53.0701
0
VERTEX
8
CUT
10
42.4739
20
50.0511
0
VERTEX
8
CUT
10
41.2517
20
47.5868
0
VERTEX
8
CUT
10
41.3642
20
47.1528
0
VERTEX
8
CUT
10
41.7709
20
47.0384
0
VERTEX
8
CUT
10
42.8972
20
47.5790
0
VERTEX
8
CUT
10
45.6329
20
49.5353
0
VERTEX
8
CUT
10
46.1210
20
49.6562
0
VERTEX
8
CUT
10
46.5031
20
49.4773
0
VERTEX
8
CUT
10
46.6516
20
49.0180
0
VERTEX
8
CUT
10
46.5438
20
48.2471
0
VERTEX
8
CUT
10
44.4712
20
44.0913
0
VERTEX
8
CUT
10
42.0479
20
39.8523
0
VERTEX
8
CUT
10
37.7545
20
33.4455
0
VERTEX
8
CUT
10
32.6308
20
27.5859
0
VERTEX
8
CUT
10
29.8244
20
23.7132
0
VERTEX
8
CUT
10
27.4187
20
21.3061
0
VERTEX
8
CUT
10
26.4064
20
20.7227
0
VERTEX
8
CUT
10
25.8279
20
20.7590
0
VERTEX
8
CUT
10
24.9478
20
21.2530
0
VERTEX
8
CUT
10
24.0498
20
22.9239
0
VERTEX
8
CUT
10
23.7157
20
25.7241
0
VERTEX
8
CUT
10
23.9969
20
27.1351
0
VERTEX
8
CUT
10
24.0788
20
31.5722
0
VERTEX
8
CUT
10
23.6764
20
31.8131
0
VERTEX
8
CUT
10
22.9140
20
31.2663
0
VERTEX
8
CUT
10
22.3764
20
31.3561
0
VERTEX
8
CUT
10
21.6966
20
32.0658
0
VERTEX
8
CUT
10
21.3386
20
33.5133
0
VERTEX
8
CUT
10
21.3288
20
35.2101
0
VERTEX
8
CUT
10
21.5917
20
35.9420
0
VERTEX
8
CUT
10
21.6556
20
37.2357
0
VERTEX
8
CUT
10
22.2768
20
39.7152
0
VERTEX
8
CUT
10
24.0037
20
44.5802
0
VERTEX
8
CUT
10
23.7983
20
44.8467
0
VERTEX
8
CUT
10
23.4619
20
44.8538
0
VERTEX
8
CUT
10
21.7890
20
43.3393
0
VERTEX
8
CUT
10
21.4103
20
43.2481
0
VERTEX
8
CUT
10
21.0919
20
43.4205
0
VERTEX
8
CUT
10
20.7969
20
43.7915
0
VERTEX
8
CUT
10
20.7203
20
44.3535
0
VERTEX
8
CUT
10
20.7345
20
46.6383
0
VERTEX
8
CUT
10
21.3607
20
49.2731
0
VERTEX
8
CUT
10
21.9783
20
51.1238
0
VERTEX
8
CUT
10
22.4696
20
52.0809
0
VERTEX
8
CUT
10
22.5661
20
52.1365
0
VERTEX
8
CUT
10
22.9667
20
52.8818
0
VERTEX
8
CUT
10
23.5914
20
54.4542
0
VERTEX
8
CUT
10
23.7069
20
55.1104
0
VERTEX
8
CUT
10
24.9038
20
58.2422
0
VERTEX
8
CUT
10
24.8712
20
58.8060
0
VERTEX
8
CUT
10
24.5322
20
59.0149
0
VERTEX
8
CUT
10
22.6867
20
57.6121
0
VERTEX
8
CUT
10
22.1738
20
57.6911
0
VERTEX
8
CUT
10
21.6975
20
58.2015
0
VERTEX
8
CUT
10
21.6351
20
61.0483
0
VERTEX
8
CUT
10
21.8855
20
61.7226
0
VERTEX
8
CUT
10
22.2638
20
64.5900
0
VERTEX
8
CUT
10
23.8006
20
69.1874
0
VERTEX
8
CUT
10
27.3731
20
76.4958
0
VERTEX
8
CUT
10
27.7059
20
76.8146
0
VERTEX
8
CUT
10
28.3841
20
78.1036
0
VERTEX
8
CUT
10
28.7288
20
79.0104
0
VERTEX
8
CUT
10
28.6928
20
79.1956
0
VERTEX
8
CUT
10
29.0648
20
79.9566
0
VERTEX
8
CUT
10
30.3187
20
84.0485
0
VERTEX
8
CUT
10
30.2818
20
84.8926
0
VERTEX
8
CUT
10
29.9104
20
85.1493
0
VERTEX
8
CUT
10
28.3394
20
84.5847
0
VERTEX
8
CUT
10
26.3398
20
83.4595
0
SEQEND
0
POLYLINE
8
CUT
66
1
70
1
10
0.0
20
0.0
30
0.0
0
VERTEX
8
CUT
10
126.6485
20
92.9018
0
VERTEX
8
CUT
10
127.6280
20
93.4085
0
VERTEX
8
CUT
10
129.3610
20
93.5092
0
VERTEX
8
CUT
10
132.1468
20
95.0790
0
VERTEX
8
CUT
10
132.3044
20
95.2429
0
VERTEX
8
CUT
10
132.3946
20
95.2956
0
VERTEX
8
CUT
10
132.3922
20
95.3343
0
VERTEX
8
CUT
10
132.5494
20
95.4977
0
VERTEX
8
CUT
10
132.5595
20
95.8218
0
VERTEX
8
CUT
10
131.0742
20
96.7387
0
VERTEX
8
CUT
10
130.8901
20
97.1463
0
VERTEX
8
CUT
10
131.0601
20
97.5336
0
VERTEX
8
CUT
10
132.0616
20
98.1899
0
VERTEX
8
CUT
10
132.9624
20
98.3154
0
VERTEX
8
CUT
10
133.8164
20
99.0481
0
VERTEX
8
CUT
10
135.6205
20
100.1121
0
VERTEX
8
CUT
10
136.3455
20
100.8281
0
VERTEX
8
CUT
10
136.4381
20
100.8954
0
VERTEX
8
CUT
10
138.1108
20
102.5384
0
VERTEX
8
CUT
10
138.1064
20
102.5673
0
VERTEX
8
CUT
10
138.2943
20
102.7529
0
VERTEX
8
CUT
10
138.3165
20
103.2550
0
VERTEX
8
CUT
10
137.3649
20
103.9851
0
VERTEX
8
CUT
10
137.2580
20
104.5669
0
VERTEX
8
CUT
10
137.9671
20
105.3241
0
VERTEX
8
CUT
10
139.1510
20
105.9717
0
VERTEX
8
CUT
10
141.1767
20
108.2788
0
VERTEX
8
CUT
10
143.7998
20
110.7017
0
VERTEX
8
CUT
10
143.5113
20
112.1721
0
VERTEX
8
CUT
10
144.2285
20
113.7428
0
VERTEX
8
CUT
10
144.6579
20
114.1069
0
VERTEX
8
CUT
10
145.5752
20
114.4581
0
VERTEX
8
CUT
10
146.1427
20
113.9881
0
VERTEX
8
CUT
10
146.3649
20
113.3253
0
VERTEX
8
CUT
10
146.7304
20
113.1993
0
VERTEX
8
CUT
10
147.0258
20
113.3617
0
VERTEX
8
CUT
10
147.2258
20
114.5066
0
VERTEX
8
CUT
10
146.3521
20
115.7419
0
VERTEX
8
CUT
10
146.3086
20
116.1009
0
VERTEX
8
CUT
10
147.5491
20
117.8878
0
VERTEX
8
CUT
10
147.9787
20
118.1892
0
VERTEX
8
CUT
10
149.6504
20
120.9209
0
VERTEX
8
CUT
10
150.3505
20
121.5129
0
VERTEX
8
CUT
10
150.8014
20
122.9362
0
VERTEX
8
CUT
10
152.7492
20
125.8843
0
VERTEX
8
CUT
10
152.8670
20
126.7754
0
VERTEX
8
CUT
10
153.6642
20
128.3188
0
VERTEX
8
CUT
10
153.9142
20
129.5267
0
VERTEX
8
CUT
10
153.1610
20
130.6065
0
VERTEX
8
CUT
10
153.1433
20
131.1943
0
VERTEX
8
CUT
10
154.4307
20
132.9029
0
VERTEX
8
CUT
10
155.2137
20
133.1654
0
VERTEX
8
CUT
10
155.9817
20
133.9494
0
VERTEX
8
CUT
10
155.5077
20
135.4606
0
VERTEX
8
CUT
10
156.0548
20
137.2754
0
VERTEX
8
CUT
10
156.5809
20
137.7572
0
VERTEX
8
CUT
10
157.2855
20
137.6948
0
VERTEX
8
CUT
10
157.5872
20
137.9574
0
VERTEX
8
CUT
10
157.8893
20
139.2797
0
VERTEX
8
CUT
10
157.4458
20
139.8190
0
VERTEX
8
CUT
10
157.4140
20
140.6653
0
VERTEX
8
CUT
10
158.3826
20
141.4176
0
VERTEX
8
CUT
10
158.7345
20
142.2019
0
VERTEX
8
CUT
10
158.5916
20
142.5064
0
VERTEX
8
CUT
10
157.9796
20
142.8378
0
VERTEX
8
CUT
10
157.3498
20
144.1372
0
VERTEX
8
CUT
10
157.3661
20
144.7647
0
VERTEX
8
CUT
10
158.5293
20
145.6285
0
VERTEX
8
CUT
10
160.1963
20
145.7146
0
VERTEX
8
CUT
10
160.1860
20
145.7534
0
VERTEX
8
CUT
10
160.1669
20
145.8696
0
VERTEX
8
CUT
10
160.1593
20
145.9872
0
VERTEX
8
CUT
10
160.1633
20
146.1049
0
VERTEX
8
CUT
10
160.1788
20
146.2217
0
VERTEX
8
CUT
10
160.2057
20
146.3364
0
VERTEX
8
CUT
10
160.2425
20
146.4446
0
VERTEX
8
CUT
10
160.0425
20
147.3514
0
VERTEX
8
CUT
10
160.0215
20
147.4783
0
VERTEX
8
CUT
10
160.0143
20
147.6067
0
VERTEX
8
CUT
10
160.0208
20
147.7351
0
VERTEX
8
CUT
10
160.1193
20
148.6742
0
VERTEX
8
CUT
10
160.0572
20
148.6848
0
VERTEX
8
CUT
10
159.9502
20
148.7134
0
VERTEX
8
CUT
10
159.8462
20
148.7518
0
VERTEX
8
CUT
10
159.7463
20
148.7997
0
VERTEX
8
CUT
10
159.6512
20
148.8565
0
VERTEX
8
CUT
10
159.5617
20
148.9219
0
VERTEX
8
CUT
10
159.4786
20
148.9952
0
VERTEX
8
CUT
10
159.4027
20
149.0759
0
VERTEX
8
CUT
10
159.1834
20
149.3317
0
VERTEX
8
CUT
10
159.1122
20
149.4234
0
VERTEX
8
CUT
10
159.0501
20
149.5216
0
VERTEX
8
CUT
10
158.9979
20
149.6253
0
VERTEX
8
CUT
10
158.9559
20
149.7336
0
VERTEX
8
CUT
10
158.9245
20
149.8455
0
VERTEX
8
CUT
10
158.9042
20
149.9598
0
VERTEX
8
CUT
10
158.8950
20
150.0756
0
VERTEX
8
CUT
10
158.8970
20
150.1918
0
VERTEX
8
CUT
10
158.9103
20
150.3072
0
VERTEX
8
CUT
10
158.9346
20
150.4208
0
VERTEX
8
CUT
10
158.9698
20
150.5314
0
VERTEX
8
CUT
10
159.9011
20
153.0331
0
VERTEX
8
CUT
10
159.9474
20
153.1409
0
VERTEX
8
CUT
10
160.0039
20
153.2436
0
VERTEX
8
CUT
10
160.0246
20
153.2738
0
VERTEX
8
CUT
10
158.9053
20
153.9352
0
VERTEX
8
CUT
10
158.5635
20
154.6445
0
VERTEX
8
CUT
10
158.5240
20
155.4107
0
VERTEX
8
CUT
10
158.9216
20
156.2593
0
VERTEX
8
CUT
10
159.4001
20
156.6358
0
VERTEX
8
CUT
10
159.4718
20
157.0117
0
VERTEX
8
CUT
10
159.2501
20
157.2590
0
VERTEX
8
CUT
10
157.8970
20
157.6529
0
VERTEX
8
CUT
10
157.6270
20
158.1031
0
VERTEX
8
CUT
10
157.7035
20
158.6419
0
VERTEX
8
CUT
10
158.1614
20
159.0853
0
VERTEX
8
CUT
10
158.2827
20
160.3432
0
VERTEX
8
CUT
10
158.7418
20
160.8327
0
VERTEX
8
CUT
10
158.8827
20
161.6070
0
VERTEX
8
CUT
10
159.8434
20
163.2660
0
VERTEX
8
CUT
10
160.5231
20
163.7016
0
VERTEX
8
CUT
10
161.2919
20
163.5770
0
VERTEX
8
CUT
10
161.7147
20
163.7766
0
VERTEX
8
CUT
10
161.6279
20
164.7370
0
VERTEX
8
CUT
10
162.6169
20
165.9882
0
VERTEX
8
CUT
10
163.7730
20
166.1006
0
VERTEX
8
CUT
10
165.3444
20
165.6823
0
VERTEX
8
CUT
10
166.3137
20
164.6855
0
VERTEX
8
CUT
10
166.6220
20
163.8460
0
VERTEX
8
CUT
10
164.9874
20
161.1941
0
VERTEX
8
CUT
10
164.8696
20
160.3030
0
VERTEX
8
CUT
10
164.2215
20
158.9942
0
VERTEX
8
CUT
10
163.5406
20
158.6074
0
VERTEX
8
CUT
10
162.5731
20
158.4647
0
VERTEX
8
CUT
10
162.0837
20
158.1732
0
VERTEX
8
CUT
10
161.9572
20
157.8724
0
VERTEX
8
CUT
10
162.4822
20
156.7437
0
VERTEX
8
CUT
10
162.5619
20
155.7662
0
VERTEX
8
CUT
10
163.1095
20
155.2170
0
VERTEX
8
CUT
10
162.9352
20
154.7370
0
VERTEX
8
CUT
10
163.0182
20
154.7299
0
VERTEX
8
CUT
10
163.1337
20
154.7086
0
VERTEX
8
CUT
10
163.2465
20
154.6760
0
VERTEX
8
CUT
10
163.3556
20
154.6326
0
VERTEX
8
CUT
10
163.4599
20
154.5787
0
VERTEX
8
CUT
10
163.4670
20
154.5741
0
VERTEX
8
CUT
10
164.0993
20
154.5759
0
VERTEX
8
CUT
10
164.2120
20
154.5709
0
VERTEX
8
CUT
10
164.3237
20
154.5553
0
VERTEX
8
CUT
10
164.4335
20
154.5294
0
VERTEX
8
CUT
10
164.5403
20
154.4932
0
VERTEX
8
CUT
10
164.6433
20
154.4472
0
VERTEX
8
CUT
10
164.7415
20
154.3917
0
VERTEX
8
CUT
10
164.8340
20
154.3272
0
VERTEX
8
CUT
10
164.9201
20
154.2543
0
VERTEX
8
CUT
10
164.9990
20
154.1737
0
VERTEX
8
CUT
10
165.0699
20
154.0860
0
VERTEX
8
CUT
10
165.1323
20
153.9921
0
VERTEX
8
CUT
10
165.6312
20
153.1583
0
VERTEX
8
CUT
10
165.6890
20
153.0494
0
VERTEX
8
CUT
10
165.7353
20
152.9351
0
VERTEX
8
CUT
10
165.7697
20
152.8167
0
VERTEX
8
CUT
10
165.7917
20
152.6954
0
VERTEX
8
CUT
10
165.8011
20
152.5724
0
VERTEX
8
CUT
10
165.7979
20
152.4492
0
VERTEX
8
CUT
10
165.7820
20
152.3269
0
VERTEX
8
CUT
10
165.7537
20
152.2069
0
VERTEX
8
CUT
10
165.7132
20
152.0904
0
VERTEX
8
CUT
10
165.4121
20
151.3493
0
VERTEX
8
CUT
10
165.4079
20
151.3402
0
VERTEX
8
CUT
10
165.4446
20
151.3299
0
VERTEX
8
CUT
10
166.5379
20
150.9661
0
VERTEX
8
CUT
10
166.6496
20
150.9226
0
VERTEX
8
CUT
10
166.7564
20
150.8682
0
VERTEX
8
CUT
10
166.8573
20
150.8034
0
VERTEX
8
CUT
10
166.9512
20
150.7289
0
VERTEX
8
CUT
10
167.0371
20
150.6454
0
VERTEX
8
CUT
10
167.1144
20
150.5537
0
VERTEX
8
CUT
10
167.2920
20
150.3200
0
VERTEX
8
CUT
10
166.3620
20
147.3155
0
VERTEX
8
CUT
10
166.1626
20
146.7173
0
VERTEX
8
CUT
10
166.1345
20
146.5809
0
VERTEX
8
CUT
10
166.0675
20
146.3643
0
VERTEX
8
CUT
10
165.9886
20
146.3293
0
VERTEX
8
CUT
10
165.8788
20
146.2929
0
VERTEX
8
CUT
10
165.7661
20
146.2672
0
VERTEX
8
CUT
10
165.6514
20
146.2525
0
VERTEX
8
CUT
10
165.5358
20
146.2489
0
VERTEX
8
CUT
10
165.0832
20
146.2566
0
VERTEX
8
CUT
10
164.9659
20
146.2644
0
VERTEX
8
CUT
10
164.8499
20
146.2836
0
VERTEX
8
CUT
10
164.8051
20
146.2956
0
VERTEX
8
CUT
10
164.7272
20
146.0144
0
VERTEX
8
CUT
10
164.6891
20
145.8995
0
VERTEX
8
CUT
10
164.6723
20
145.8622
0
VERTEX
8
CUT
10
164.7827
20
145.9136
0
VERTEX
8
CUT
10
165.2379
20
145.7493
0
VERTEX
8
CUT
10
165.5018
20
145.2828
0
VERTEX
8
CUT
10
165.4726
20
144.6985
0
VERTEX
8
CUT
10
165.1259
20
143.9869
0
VERTEX
8
CUT
10
164.3999
20
143.4659
0
VERTEX
8
CUT
10
164.8909
20
142.6398
0
VERTEX
8
CUT
10
165.8797
20
142.7955
0
VERTEX
8
CUT
10
166.2083
20
143.7753
0
VERTEX
8
CUT
10
168.1434
20
145.2900
0
VERTEX
8
CUT
10
168.4778
20
145.2103
0
VERTEX
8
CUT
10
168.7424
20
144.8350
0
VERTEX
8
CUT
10
168.7861
20
143.5368
0
VERTEX
8
CUT
10
168.4295
20
142.8333
0
VERTEX
8
CUT
10
167.9781
20
142.4271
0
VERTEX
8
CUT
10
167.5716
20
140.4904
0
VERTEX
8
CUT
10
166.6355
20
138.3252
0
VERTEX
8
CUT
10
164.8485
20
135.6111
0
VERTEX
8
CUT
10
164.3772
20
135.2686
0
VERTEX
8
CUT
10
164.2946
20
134.5274
0
VERTEX
8
CUT
10
163.6845
20
133.3248
0
VERTEX
8
CUT
10
163.6674
20
133.2994
0
VERTEX
8
CUT
10
162.2754
20
131.7123
0
VERTEX
8
CUT
10
161.3471
20
129.9381
0
VERTEX
8
CUT
10
161.3746
20
129.6032
0
VERTEX
8
CUT
10
161.6524
20
129.4143
0
VERTEX
8
CUT
10
162.9814
20
129.7024
0
VERTEX
8
CUT
10
163.4367
20
129.5381
0
VERTEX
8
CUT
10
163.7048
20
128.9546
0
VERTEX
8
CUT
10
163.7071
20
128.9414
0
VERTEX
8
CUT
10
163.7077
20
128.9378
0
VERTEX
8
CUT
10
163.7079
20
128.9367
0
VERTEX
8
CUT
10
163.7134
20
128.9051
0
VERTEX
8
CUT
10
163.3627
20
127.8768
0
VERTEX
8
CUT
10
159.4013
20
122.0893
0
VERTEX
8
CUT
10
155.9523
20
117.8980
0
VERTEX
8
CUT
10
155.8207
20
117.5011
0
VERTEX
8
CUT
10
155.6498
20
117.2821
0
VERTEX
8
CUT
10
155.5088
20
116.8344
0
VERTEX
8
CUT
10
155.5638
20
116.7259
0
VERTEX
8
CUT
10
155.5537
20
116.6954
0
VERTEX
8
CUT
10
155.5969
20
116.6605
0
VERTEX
8
CUT
10
155.6578
20
116.5401
0
VERTEX
8
CUT
10
155.7490
20
116.5376
0
VERTEX
8
CUT
10
155.8174
20
116.4823
0
VERTEX
8
CUT
10
156.0924
20
116.5279
0
VERTEX
8
CUT
10
156.2182
20
116.5244
0
VERTEX
8
CUT
10
156.2268
20
116.5241
0
VERTEX
8
CUT
10
156.2643
20
116.5231
0
VERTEX
8
CUT
10
156.4498
20
116.5178
0
VERTEX
8
CUT
10
156.5737
20
116.4658
0
VERTEX
8
CUT
10
156.7904
20
116.2947
0
VERTEX
8
CUT
10
156.9897
20
116.0558
0
VERTEX
8
CUT
10
156.9959
20
116.0387
0
VERTEX
8
CUT
10
157.0008
20
116.0250
0
VERTEX
8
CUT
10
157.0193
20
115.9736
0
VERTEX
8
CUT
10
157.0771
20
115.8129
0
VERTEX
8
CUT
10
157.0722
20
115.5555
0
VERTEX
8
CUT
10
156.1476
20
113.7536
0
VERTEX
8
CUT
10
155.0517
20
112.4757
0
VERTEX
8
CUT
10
153.6931
20
109.7632
0
VERTEX
8
CUT
10
152.7168
20
108.7868
0
VERTEX
8
CUT
10
151.5067
20
108.1544
0
VERTEX
8
CUT
10
151.4850
20
107.8592
0
VERTEX
8
CUT
10
151.9474
20
106.9243
0
VERTEX
8
CUT
10
151.6902
20
105.7781
0
VERTEX
8
CUT
10
151.4637
20
105.3227
0
VERTEX
8
CUT
10
151.3888
20
104.9976
0
VERTEX
8
CUT
10
151.0216
20
104.0808
0
VERTEX
8
CUT
10
150.2146
20
103.3663
0
VERTEX
8
CUT
10
150.0959
20
102.5153
0
VERTEX
8
CUT
10
149.2735
20
100.8989
0
VERTEX
8
CUT
10
147.4549
20
98.9913
0
VERTEX
8
CUT
10
146.4508
20
98.5526
0
VERTEX
8
CUT
10
146.2345
20
97.8090
0
VERTEX
8
CUT
10
145.5809
20
96.7483
0
VERTEX
8
CUT
10
145.5851
20
96.4097
0
VERTEX
8
CUT
10
145.8665
20
96.1959
0
VERTEX
8
CUT
10
146.3543
20
96.1622
0
VERTEX
8
CUT
10
146.8278
20
96.3813
0
VERTEX
8
CUT
10
147.1499
20
96.2647
0
VERTEX
8
CUT
10
147.6731
20
95.7024
0
VERTEX
8
CUT
10
147.6742
20
95.3464
0
VERTEX
8
CUT
10
147.6585
20
95.3116
0
VERTEX
8
CUT
10
147.6503
20
95.2935
0
VERTEX
8
CUT
10
147.6409
20
95.2728
0
VERTEX
8
CUT
10
147.6253
20
95.2383
0
VERTEX
8
CUT
10
147.0513
20
94.4708
0
VERTEX
8
CUT
10
146.2670
20
93.6778
0
VERTEX
8
CUT
10
146.1087
20
93.5177
0
VERTEX
8
CUT
10
145.3868
20
92.7878
0
VERTEX
8
CUT
10
143.9528
20
91.3379
0
VERTEX
8
CUT
10
143.2087
20
90.7439
0
VERTEX
8
CUT
10
142.0852
20
89.9268
0
VERTEX
8
CUT
10
140.6301
20
89.0747
0
VERTEX
8
CUT
10
138.9925
20
87.6775
0
VERTEX
8
CUT
10
138.7053
20
87.4686
0
VERTEX
8
CUT
10
138.7000
20
87.4280
0
VERTEX
8
CUT
10
138.4524
20
87.2168
0
VERTEX
8
CUT
10
138.4789
20
86.8173
0
VERTEX
8
CUT
10
138.7323
20
86.5888
0
VERTEX
8
CUT
10
140.7242
20
86.4375
0
VERTEX
8
CUT
10
141.1730
20
85.8922
0
VERTEX
8
CUT
10
141.1846
20
85.8333
0
VERTEX
8
CUT
10
141.1846
20
85.8331
0
VERTEX
8
CUT
10
141.1846
20
85.8330
0
VERTEX
8
CUT
10
141.1378
20
85.6339
0
VERTEX
8
CUT
10
141.1136
20
85.6010
0
VERTEX
8
CUT
10
140.8704
20
85.2699
0
VERTEX
8
CUT
10
140.8232
20
85.2057
0
VERTEX
8
CUT
10
140.8031
20
85.1783
0
VERTEX
8
CUT
10
140.2556
20
84.6374
0
VERTEX
8
CUT
10
140.0952
20
84.5135
0
VERTEX
8
CUT
10
139.9773
20
84.4223
0
VERTEX
8
CUT
10
139.9153
20
84.3744
0
VERTEX
8
CUT
10
139.8877
20
84.3531
0
VERTEX
8
CUT
10
137.8608
20
83.4410
0
VERTEX
8
CUT
10
136.4753
20
82.0672
0
VERTEX
8
CUT
10
136.3930
20
82.0281
0
VERTEX
8
CUT
10
136.3809
20
82.0224
0
VERTEX
8
CUT
10
136.2876
20
81.9780
0
VERTEX
8
CUT
10
136.1941
20
81.9335
0
VERTEX
8
CUT
10
134.3127
20
81.2824
0
VERTEX
8
CUT
10
133.5418
20
80.8204
0
VERTEX
8
CUT
10
133.5613
20
80.2956
0
VERTEX
8
CUT
10
134.9863
20
79.5525
0
VERTEX
8
CUT
10
135.4878
20
78.9702
0
VERTEX
8
CUT
10
135.3276
20
78.4753
0
VERTEX
8
CUT
10
134.4053
20
77.5654
0
VERTEX
8
CUT
10
130.0981
20
75.6971
0
VERTEX
8
CUT
10
128.7238
20
75.6109
0
VERTEX
8
CUT
10
127.1984
20
75.2619
0
VERTEX
8
CUT
10
127.0966
20
75.2559
0
VERTEX
8
CUT
10
127.0903
20
75.2371
0
VERTEX
8
CUT
10
127.0408
20
75.2258
0
VERTEX
8
CUT
10
126.8051
20
74.7311
0
VERTEX
8
CUT
10
127.3555
20
73.8049
0
VERTEX
8
CUT
10
127.3831
20
73.0214
0
VERTEX
8
CUT
10
127.1506
20
72.7045
0
VERTEX
8
CUT
10
126.2975
20
72.3793
0
VERTEX
8
CUT
10
126.0577
20
72.3626
0
VERTEX
8
CUT
10
123.6956
20
72.9951
0
VERTEX
8
CUT
10
122.7192
20
73.5016
0
VERTEX
8
CUT
10
121.8950
20
73.5937
0
VERTEX
8
CUT
10
120.3804
20
74.3778
0
VERTEX
8
CUT
10
119.6423
20
74.5440
0
VERTEX
8
CUT
10
119.3456
20
74.3069
0
VERTEX
8
CUT
10
119.1801
20
74.2494
0
VERTEX
8
CUT
10
119.1369
20
74.1401
0
VERTEX
8
CUT
10
118.8052
20
73.8751
0
VERTEX
8
CUT
10
118.5611
20
73.1632
0
VERTEX
8
CUT
10
118.3831
20
73.0280
0
VERTEX
8
CUT
10
117.4111
20
72.6717
0
VERTEX
8
CUT
10
116.4034
20
72.6701
0
VERTEX
8
CUT
10
116.2716
20
72.6707
0
VERTEX
8
CUT
10
114.3266
20
73.3408
0
VERTEX
8
CUT
10
112.6865
20
74.9809
0
VERTEX
8
CUT
10
111.7615
20
76.7935
0
VERTEX
8
CUT
10
111.1168
20
78.4227
0
VERTEX
8
CUT
10
111.0512
20
79.4448
0
VERTEX
8
CUT
10
110.5092
20
80.8492
0
VERTEX
8
CUT
10
110.1417
20
83.0828
0
VERTEX
8
CUT
10
109.2900
20
84.7632
0
VERTEX
8
CUT
10
109.2990
20
85.2041
0
VERTEX
8
CUT
10
109.6008
20
85.6894
0
VERTEX
8
CUT
10
110.0294
20
85.9345
0
VERTEX
8
CUT
10
110.5766
20
85.9094
0
VERTEX
8
CUT
10
112.2087
20
85.0655
0
VERTEX
8
CUT
10
112.7678
20
85.3169
0
VERTEX
8
CUT
10
112.8660
20
86.3028
0
VERTEX
8
CUT
10
112.0592
20
87.9011
0
VERTEX
8
CUT
10
111.9775
20
88.5454
0
VERTEX
8
CUT
10
112.0602
20
89.6054
0
VERTEX
8
CUT
10
112.7384
20
90.1263
0
VERTEX
8
CUT
10
113.4327
20
90.1469
0
VERTEX
8
CUT
10
115.6222
20
89.4222
0
VERTEX
8
CUT
10
117.2191
20
89.7770
0
VERTEX
8
CUT
10
118.7656
20
88.9948
0
VERTEX
8
CUT
10
120.2973
20
88.9371
0
VERTEX
8
CUT
10
120.9990
20
88.6852
0
VERTEX
8
CUT
10
124.3747
20
88.6841
0
VERTEX
8
CUT
10
125.2404
20
89.0281
0
VERTEX
8
CUT
10
125.4659
20
89.5254
0
VERTEX
8
CUT
10
125.1883
20
90.6861
0
VERTEX
8
CUT
10
125.2053
20
92.0425
0
VERTEX
8
CUT
10
125.4016
20
92.4931
0
VERTEX
8
CUT
10
125.7987
20
92.8039
0
SEQEND
0
POLYLINE
8
CUT
66
1
70
1
10
0.0
20
0.0
30
0.0
0
VERTEX
8
CUT
10
163.7041
20
145.0253
0
VERTEX
8
CUT
10
163.6822
20
144.9503
0
VERTEX
8
CUT
10
163.8200
20
145.0218
0
VERTEX
8
CUT
10
163.9025
20
145.1506
0
VERTEX
8
CUT
10
163.7080
20
145.0460
0
SEQEND
0
POLYLINE
8
CUT
66
1
70
1
10
0.0
20
0.0
30
0.0
0
VERTEX
8
CUT
10
115.9382
20
134.0262
0
VERTEX
8
CUT
10
115.9585
20
134.0092
0
VERTEX
8
CUT
10
115.9744
20
133.9958
0
VERTEX
8
CUT
10
115.9875
20
133.9803
0
VERTEX
8
CUT
10
116.0430
20
133.9030
0
VERTEX
8
CUT
10
116.1141
20
133.8038
0
VERTEX
8
CUT
10
116.1226
20
133.7919
0
VERTEX
8
CUT
10
116.2158
20
133.6620
0
VERTEX
8
CUT
10
116.2719
20
130.8061
0
VERTEX
8
CUT
10
115.7162
20
128.4455
0
VERTEX
8
CUT
10
115.7222
20
127.5933
0
VERTEX
8
CUT
10
115.7188
20
125.7827
0
VERTEX
8
CUT
10
115.7171
20
125.4695
0
VERTEX
8
CUT
10
115.7182
20
125.4647
0
VERTEX
8
CUT
10
115.7178
20
125.2108
0
VERTEX
8
CUT
10
115.7394
20
125.1307
0
VERTEX
8
CUT
10
115.7412
20
124.8767
0
VERTEX
8
CUT
10
115.7416
20
124.7392
0
VERTEX
8
CUT
10
115.7422
20
124.7376
0
VERTEX
8
CUT
10
115.7443
20
124.4353
0
VERTEX
8
CUT
10
116.0362
20
123.2225
0
VERTEX
8
CUT
10
116.9454
20
121.4149
0
VERTEX
8
CUT
10
117.9216
20
120.1405
0
VERTEX
8
CUT
10
117.9977
20
120.0288
0
VERTEX
8
CUT
10
118.0195
20
120.0128
0
VERTEX
8
CUT
10
118.0694
20
119.9477
0
VERTEX
8
CUT
10
119.3247
20
119.0140
0
VERTEX
8
CUT
10
119.4724
20
119.0260
0
VERTEX
8
CUT
10
119.5151
20
118.9864
0
VERTEX
8
CUT
10
119.6407
20
119.0396
0
VERTEX
8
CUT
10
119.7385
20
119.0475
0
VERTEX
8
CUT
10
119.7457
20
119.0532
0
VERTEX
8
CUT
10
119.8023
20
119.0585
0
VERTEX
8
CUT
10
119.8457
20
119.1265
0
VERTEX
8
CUT
10
119.9164
20
119.1565
0
VERTEX
8
CUT
10
119.9534
20
119.2156
0
VERTEX
8
CUT
10
121.0760
20
120.0934
0
VERTEX
8
CUT
10
122.9336
20
119.3230
0
VERTEX
8
CUT
10
124.2502
20
119.0018
0
VERTEX
8
CUT
10
124.8242
20
119.0023
0
VERTEX
8
CUT
10
124.8460
20
118.9921
0
VERTEX
8
CUT
10
124.9016
20
119.0024
0
VERTEX
8
CUT
10
125.6513
20
119.0030
0
VERTEX
8
CUT
10
126.6390
20
119.3219
0
VERTEX
8
CUT
10
126.6391
20
119.3221
0
VERTEX
8
CUT
10
126.6523
20
119.3246
0
VERTEX
8
CUT
10
126.6691
20
119.3503
0
VERTEX
8
CUT
10
126.6861
20
119.3505
0
VERTEX
8
CUT
10
126.7791
20
119.5184
0
VERTEX
8
CUT
10
126.9930
20
119.8451
0
VERTEX
8
CUT
10
126.9844
20
119.8596
0
VERTEX
8
CUT
10
126.9888
20
119.8665
0
VERTEX
8
CUT
10
126.9812
20
119.8830
0
VERTEX
8
CUT
10
126.9829
20
119.8861
0
VERTEX
8
CUT
10
126.9742
20
119.8983
0
VERTEX
8
CUT
10
126.4155
20
121.1131
0
VERTEX
8
CUT
10
126.5256
20
121.8183
0
VERTEX
8
CUT
10
127.6753
20
122.2430
0
VERTEX
8
CUT
10
128.8006
20
122.3450
0
VERTEX
8
CUT
10
130.4848
20
123.7543
0
VERTEX
8
CUT
10
130.6547
20
123.7252
0
VERTEX
8
CUT
10
130.6659
20
123.7233
0
VERTEX
8
CUT
10
130.7264
20
123.7130
0
VERTEX
8
CUT
10
130.8030
20
123.6998
0
VERTEX
8
CUT
10
132.6152
20
123.2106
0
VERTEX
8
CUT
10
134.0385
20
123.2037
0
VERTEX
8
CUT
10
135.4308
20
123.5220
0
VERTEX
8
CUT
10
135.6091
20
123.5231
0
VERTEX
8
CUT
10
136.3905
20
123.7414
0
VERTEX
8
CUT
10
138.0433
20
124.1193
0
VERTEX
8
CUT
10
140.9453
20
125.5572
0
VERTEX
8
CUT
10
141.6245
20
125.4666
0
VERTEX
8
CUT
10
141.8139
20
124.9389
0
VERTEX
8
CUT
10
141.4382
20
123.9465
0
VERTEX
8
CUT
10
140.7911
20
123.0111
0
VERTEX
8
CUT
10
139.6403
20
121.8117
0
VERTEX
8
CUT
10
138.4871
20
120.6630
0
VERTEX
8
CUT
10
138.2688
20
120.4455
0
VERTEX
8
CUT
10
138.1787
20
120.3557
0
VERTEX
8
CUT
10
137.9720
20
120.1498
0
VERTEX
8
CUT
10
137.3651
20
119.5873
0
VERTEX
8
CUT
10
136.4265
20
118.8749
0
VERTEX
8
CUT
10
135.4306
20
118.1517
0
VERTEX
8
CUT
10
134.8438
20
117.7255
0
VERTEX
8
CUT
10
134.8009
20
117.6944
0
VERTEX
8
CUT
10
134.7729
20
117.6740
0
VERTEX
8
CUT
10
134.0397
20
117.3039
0
VERTEX
8
CUT
10
133.3851
20
116.6662
0
VERTEX
8
CUT
10
133.3057
20
116.6086
0
VERTEX
8
CUT
10
133.3041
20
116.5709
0
VERTEX
8
CUT
10
133.2693
20
116.1595
0
VERTEX
8
CUT
10
133.8225
20
115.8218
0
VERTEX
8
CUT
10
133.8650
20
115.7944
0
VERTEX
8
CUT
10
133.8681
20
115.7924
0
VERTEX
8
CUT
10
133.8762
20
115.7872
0
VERTEX
8
CUT
10
133.9071
20
115.7673
0
VERTEX
8
CUT
10
134.2332
20
115.0608
0
VERTEX
8
CUT
10
133.3448
20
114.0106
0
VERTEX
8
CUT
10
130.7989
20
112.0850
0
VERTEX
8
CUT
10
129.3610
20
111.4029
0
VERTEX
8
CUT
10
129.2632
20
111.3566
0
VERTEX
8
CUT
10
129.2454
20
111.3481
0
VERTEX
8
CUT
10
129.2399
20
111.3455
0
VERTEX
8
CUT
10
127.0093
20
110.3075
0
VERTEX
8
CUT
10
127.0337
20
109.7966
0
VERTEX
8
CUT
10
128.1342
20
109.2267
0
VERTEX
8
CUT
10
128.8433
20
108.4677
0
VERTEX
8
CUT
10
128.8488
20
108.4206
0
VERTEX
8
CUT
10
128.8557
20
108.1732
0
VERTEX
8
CUT
10
128.4746
20
107.6235
0
VERTEX
8
CUT
10
127.6238
20
107.0679
0
VERTEX
8
CUT
10
127.3104
20
106.8946
0
VERTEX
8
CUT
10
125.2403
20
106.3092
0
VERTEX
8
CUT
10
121.6609
20
106.1606
0
VERTEX
8
CUT
10
121.4091
20
105.5857
0
VERTEX
8
CUT
10
122.2497
20
103.9596
0
VERTEX
8
CUT
10
122.2473
20
103.8662
0
VERTEX
8
CUT
10
122.2443
20
103.7461
0
VERTEX
8
CUT
10
122.2376
20
103.4790
0
VERTEX
8
CUT
10
122.2348
20
103.3648
0
VERTEX
8
CUT
10
121.7153
20
102.7411
0
VERTEX
8
CUT
10
121.6192
20
102.6487
0
VERTEX
8
CUT
10
121.5417
20
102.5741
0
VERTEX
8
CUT
10
121.5045
20
102.5382
0
VERTEX
8
CUT
10
121.4163
20
102.4534
0
VERTEX
8
CUT
10
120.9948
20
102.4098
0
VERTEX
8
CUT
10
120.3044
20
102.3946
0
VERTEX
8
CUT
10
119.4402
20
102.5901
0
VERTEX
8
CUT
10
117.4844
20
103.4491
0
VERTEX
8
CUT
10
115.7796
20
104.6060
0
VERTEX
8
CUT
10
113.9309
20
106.2428
0
VERTEX
8
CUT
10
113.3994
20
106.0203
0
VERTEX
8
CUT
10
113.3801
20
105.9585
0
VERTEX
8
CUT
10
113.3517
20
105.9459
0
VERTEX
8
CUT
10
113.3292
20
105.7951
0
VERTEX
8
CUT
10
113.0166
20
104.7911
0
VERTEX
8
CUT
10
112.9433
20
104.6866
0
VERTEX
8
CUT
10
112.3738
20
104.4759
0
VERTEX
8
CUT
10
111.1751
20
105.5487
0
VERTEX
8
CUT
10
110.2659
20
106.8118
0
VERTEX
8
CUT
10
109.3387
20
108.6667
0
VERTEX
8
CUT
10
107.8425
20
112.8523
0
VERTEX
8
CUT
10
106.9071
20
116.8888
0
VERTEX
8
CUT
10
106.8510
20
118.1454
0
VERTEX
8
CUT
10
106.7059
20
118.5254
0
VERTEX
8
CUT
10
106.6494
20
119.1394
0
VERTEX
8
CUT
10
106.6078
20
119.5906
0
VERTEX
8
CUT
10
106.5864
20
119.8232
0
VERTEX
8
CUT
10
106.5709
20
119.9921
0
VERTEX
8
CUT
10
106.5464
20
121.1347
0
VERTEX
8
CUT
10
106.2995
20
121.9843
0
VERTEX
8
CUT
10
106.3010
20
125.1294
0
VERTEX
8
CUT
10
106.3011
20
125.3620
0
VERTEX
8
CUT
10
106.3011
20
125.4456
0
VERTEX
8
CUT
10
106.3012
20
125.5344
0
VERTEX
8
CUT
10
106.5272
20
126.2228
0
VERTEX
8
CUT
10
106.6081
20
128.7372
0
VERTEX
8
CUT
10
107.4511
20
132.2968
0
VERTEX
8
CUT
10
107.5358
20
133.3799
0
VERTEX
8
CUT
10
108.0397
20
134.3435
0
VERTEX
8
CUT
10
108.7594
20
136.7341
0
VERTEX
8
CUT
10
110.5580
20
140.3514
0
VERTEX
8
CUT
10
111.0000
20
140.5962
0
VERTEX
8
CUT
10
111.6237
20
140.1654
0
VERTEX
8
CUT
10
112.0333
20
139.3749
0
VERTEX
8
CUT
10
112.1246
20
137.3851
0
VERTEX
8
CUT
10
112.7082
20
135.0340
0
VERTEX
8
CUT
10
112.7223
20
134.9687
0
VERTEX
8
CUT
10
112.7263
20
134.9613
0
VERTEX
8
CUT
10
112.7339
20
134.9306
0
VERTEX
8
CUT
10
113.0789
20
134.2625
0
VERTEX
8
CUT
10
113.1100
20
134.2511
0
VERTEX
8
CUT
10
113.1459
20
134.1847
0
VERTEX
8
CUT
10
113.6794
20
134.0416
0
VERTEX
8
CUT
10
113.8438
20
133.9812
0
VERTEX
8
CUT
10
113.8679
20
133.9911
0
VERTEX
8
CUT
10
113.8846
20
133.9866
0
VERTEX
8
CUT
10
115.1176
20
134.5079
0
VERTEX
8
CUT
10
115.7614
20
134.1748
0
VERTEX
8
CUT
10
115.9116
20
134.0486
0
SEQEND
0
POLYLINE
8
CUT
66
1
70
1
10
0.0
20
0.0
30
0.0
0
VERTEX
8
CUT
10
73.7042
20
119.9305
0
VERTEX
8
CUT
10
73.6724
20
119.8885
0
VERTEX
8
CUT
10
73.7065
20
119.8336
0
VERTEX
8
CUT
10
73.7119
20
119.5991
0
VERTEX
8
CUT
10
73.9587
20
119.3558
0
VERTEX
8
CUT
10
74.0113
20
119.3424
0
VERTEX
8
CUT
10
74.0272
20
119.3168
0
VERTEX
8
CUT
10
75.0944
20
119.0006
0
VERTEX
8
CUT
10
75.5024
20
119.0008
0
VERTEX
8
CUT
10
75.9626
20
119.0008
0
VERTEX
8
CUT
10
76.6591
20
118.9949
0
VERTEX
8
CUT
10
76.6740
20
119.0008
0
VERTEX
8
CUT
10
77.2692
20
119.0008
0
VERTEX
8
CUT
10
77.2719
20
119.0017
0
VERTEX
8
CUT
10
77.5458
20
119.0018
0
VERTEX
8
CUT
10
79.9021
20
119.7916
0
VERTEX
8
CUT
10
81.1193
20
118.8188
0
VERTEX
8
CUT
10
81.1614
20
118.7531
0
VERTEX
8
CUT
10
81.3729
20
118.7305
0
VERTEX
8
CUT
10
81.5666
20
118.6874
0
VERTEX
8
CUT
10
82.3316
20
119.1266
0
VERTEX
8
CUT
10
83.0582
20
119.8714
0
VERTEX
8
CUT
10
83.1049
20
119.9078
0
VERTEX
8
CUT
10
83.1213
20
119.9361
0
VERTEX
8
CUT
10
83.4102
20
120.2322
0
VERTEX
8
CUT
10
84.3360
20
121.7344
0
VERTEX
8
CUT
10
84.9324
20
123.2748
0
VERTEX
8
CUT
10
84.9855
20
124.2339
0
VERTEX
8
CUT
10
85.2367
20
124.9087
0
VERTEX
8
CUT
10
85.2511
20
127.6032
0
VERTEX
8
CUT
10
84.7061
20
129.4330
0
VERTEX
8
CUT
10
84.6356
20
130.7541
0
VERTEX
8
CUT
10
84.3975
20
131.3933
0
VERTEX
8
CUT
10
84.3988
20
131.4637
0
VERTEX
8
CUT
10
84.4228
20
132.4523
0
VERTEX
8
CUT
10
84.7072
20
133.3023
0
VERTEX
8
CUT
10
84.7083
20
133.3042
0
VERTEX
8
CUT
10
84.7103
20
133.3078
0
VERTEX
8
CUT
10
84.7110
20
133.3091
0
VERTEX
8
CUT
10
84.7119
20
133.3108
0
VERTEX
8
CUT
10
85.0125
20
133.7258
0
VERTEX
8
CUT
10
85.2302
20
133.9144
0
VERTEX
8
CUT
10
85.8000
20
134.1982
0
VERTEX
8
CUT
10
87.0817
20
133.6678
0
VERTEX
8
CUT
10
87.1386
20
133.6845
0
VERTEX
8
CUT
10
87.2995
20
133.7059
0
VERTEX
8
CUT
10
87.3673
20
133.6716
0
VERTEX
8
CUT
10
87.4482
20
133.7256
0
VERTEX
8
CUT
10
87.6034
20
133.7463
0
VERTEX
8
CUT
10
87.7368
20
133.8604
0
VERTEX
8
CUT
10
87.7803
20
133.8732
0
VERTEX
8
CUT
10
87.7959
20
133.9111
0
VERTEX
8
CUT
10
87.9124
20
134.0107
0
VERTEX
8
CUT
10
88.2262
20
134.6483
0
VERTEX
8
CUT
10
88.2992
20
135.6988
0
VERTEX
8
CUT
10
88.5316
20
136.1741
0
VERTEX
8
CUT
10
88.5857
20
137.4157
0
VERTEX
8
CUT
10
88.8385
20
138.0383
0
VERTEX
8
CUT
10
88.8947
20
139.8044
0
VERTEX
8
CUT
10
89.0856
20
140.1921
0
VERTEX
8
CUT
10
89.6858
20
140.2851
0
VERTEX
8
CUT
10
90.0855
20
140.0756
0
VERTEX
8
CUT
10
91.0168
20
138.1839
0
VERTEX
8
CUT
10
92.0411
20
135.1918
0
VERTEX
8
CUT
10
92.4329
20
134.9997
0
VERTEX
8
CUT
10
92.7460
20
135.2549
0
VERTEX
8
CUT
10
92.7383
20
135.8921
0
VERTEX
8
CUT
10
91.6033
20
139.3649
0
VERTEX
8
CUT
10
91.5394
20
140.3782
0
VERTEX
8
CUT
10
90.9841
20
142.4979
0
VERTEX
8
CUT
10
90.9406
20
143.9454
0
VERTEX
8
CUT
10
90.6849
20
144.8129
0
VERTEX
8
CUT
10
90.6090
20
150.6443
0
VERTEX
8
CUT
10
88.3237
20
153.9914
0
VERTEX
8
CUT
10
86.2559
20
158.4128
0
VERTEX
8
CUT
10
87.2478
20
159.9677
0
VERTEX
8
CUT
10
86.5440
20
161.1518
0
VERTEX
8
CUT
10
85.9055
20
162.7537
0
VERTEX
8
CUT
10
85.8320
20
163.5176
0
VERTEX
8
CUT
10
85.2990
20
164.8825
0
VERTEX
8
CUT
10
84.6576
20
168.6030
0
VERTEX
8
CUT
10
84.9519
20
169.4593
0
VERTEX
8
CUT
10
86.0874
20
169.8844
0
VERTEX
8
CUT
10
86.1461
20
170.6217
0
VERTEX
8
CUT
10
83.4977
20
178.6920
0
VERTEX
8
CUT
10
83.4338
20
179.7054
0
VERTEX
8
CUT
10
83.1788
20
180.3241
0
VERTEX
8
CUT
10
83.1312
20
181.7998
0
VERTEX
8
CUT
10
82.8712
20
182.5452
0
VERTEX
8
CUT
10
82.8709
20
184.4219
0
VERTEX
8
CUT
10
83.0799
20
184.9649
0
VERTEX
8
CUT
10
83.5156
20
185.2923
0
VERTEX
8
CUT
10
83.8348
20
185.2708
0
VERTEX
8
CUT
10
85.1305
20
184.1333
0
VERTEX
8
CUT
10
85.1772
20
184.0738
0
VERTEX
8
CUT
10
85.5308
20
183.7818
0
VERTEX
8
CUT
10
87.8110
20
181.7799
0
VERTEX
8
CUT
10
91.7120
20
179.6647
0
VERTEX
8
CUT
10
95.4045
20
178.7493
0
VERTEX
8
CUT
10
97.4354
20
178.7011
0
VERTEX
8
CUT
10
98.3024
20
178.4415
0
VERTEX
8
CUT
10
101.4530
20
178.4266
0
VERTEX
8
CUT
10
102.9206
20
178.6996
0
VERTEX
8
CUT
10
105.2693
20
178.7530
0
VERTEX
8
CUT
10
108.9725
20
179.6780
0
VERTEX
8
CUT
10
111.9109
20
181.1510
0
VERTEX
8
CUT
10
113.7110
20
182.3701
0
VERTEX
8
CUT
10
116.7090
20
185.5270
0
VERTEX
8
CUT
10
117.0493
20
185.6194
0
VERTEX
8
CUT
10
117.4943
20
185.3470
0
VERTEX
8
CUT
10
117.7425
20
184.9054
0
VERTEX
8
CUT
10
117.7775
20
184.4792
0
VERTEX
8
CUT
10
117.7988
20
183.4312
0
VERTEX
8
CUT
10
117.4643
20
180.8273
0
VERTEX
8
CUT
10
116.5517
20
177.1634
0
VERTEX
8
CUT
10
114.5064
20
170.8849
0
VERTEX
8
CUT
10
114.6158
20
170.1285
0
VERTEX
8
CUT
10
115.4717
20
169.9272
0
VERTEX
8
CUT
10
115.8452
20
169.5822
0
VERTEX
8
CUT
10
115.9569
20
167.8872
0
VERTEX
8
CUT
10
114.7332
20
163.6047
0
VERTEX
8
CUT
10
112.8972
20
159.5742
0
VERTEX
8
CUT
10
113.5902
20
158.0526
0
VERTEX
8
CUT
10
113.2321
20
156.6999
0
VERTEX
8
CUT
10
112.2965
20
154.8318
0
VERTEX
8
CUT
10
109.4274
20
150.6191
0
VERTEX
8
CUT
10
109.6913
20
146.1829
0
VERTEX
8
CUT
10
109.3587
20
143.6016
0
VERTEX
8
CUT
10
109.1187
20
143.0894
0
VERTEX
8
CUT
10
109.0723
20
142.8303
0
VERTEX
8
CUT
10
108.9328
20
142.6221
0
VERTEX
8
CUT
10
108.5686
20
140.4755
0
VERTEX
8
CUT
10
108.5909
20
140.1450
0
VERTEX
8
CUT
10
108.4461
20
139.3372
0
VERTEX
8
CUT
10
107.6221
20
137.1107
0
VERTEX
8
CUT
10
107.5455
20
136.3352
0
VERTEX
8
CUT
10
106.9278
20
134.4845
0
VERTEX
8
CUT
10
106.4213
20
133.5082
0
VERTEX
8
CUT
10
106.3291
20
132.6839
0
VERTEX
8
CUT
10
106.2072
20
132.4228
0
VERTEX
8
CUT
10
106.1679
20
132.3843
0
VERTEX
8
CUT
10
106.1306
20
132.2588
0
VERTEX
8
CUT
10
105.0153
20
129.8704
0
VERTEX
8
CUT
10
104.9522
20
129.7826
0
VERTEX
8
CUT
10
104.5024
20
129.7390
0
VERTEX
8
CUT
10
104.3276
20
129.8204
0
VERTEX
8
CUT
10
103.5571
20
130.7999
0
VERTEX
8
CUT
10
103.0807
20
130.6610
0
VERTEX
8
CUT
10
102.2226
20
129.0186
0
VERTEX
8
CUT
10
101.3178
20
126.3032
0
VERTEX
8
CUT
10
100.8939
20
124.2713
0
VERTEX
8
CUT
10
100.6055
20
123.8421
0
VERTEX
8
CUT
10
100.1810
20
123.6663
0
VERTEX
8
CUT
10
99.4275
20
124.2792
0
VERTEX
8
CUT
10
99.3411
20
125.0909
0
VERTEX
8
CUT
10
98.4331
20
127.8178
0
VERTEX
8
CUT
10
97.4527
20
130.0274
0
VERTEX
8
CUT
10
96.8182
20
130.4498
0
VERTEX
8
CUT
10
96.1753
20
129.7321
0
VERTEX
8
CUT
10
95.3804
20
129.7800
0
VERTEX
8
CUT
10
94.0655
20
132.2235
0
VERTEX
8
CUT
10
93.6538
20
132.5687
0
VERTEX
8
CUT
10
93.2275
20
132.3720
0
VERTEX
8
CUT
10
93.2161
20
131.8216
0
VERTEX
8
CUT
10
93.2074
20
131.8069
0
VERTEX
8
CUT
10
93.2151
20
131.7742
0
VERTEX
8
CUT
10
93.2072
20
131.3901
0
VERTEX
8
CUT
10
93.5886
20
130.1851
0
VERTEX
8
CUT
10
93.7907
20
129.3253
0
VERTEX
8
CUT
10
94.1078
20
126.8871
0
VERTEX
8
CUT
10
94.3477
20
126.3353
0
VERTEX
8
CUT
10
94.4033
20
123.9738
0
VERTEX
8
CUT
10
94.6537
20
123.1699
0
VERTEX
8
CUT
10
94.6574
20
122.1536
0
VERTEX
8
CUT
10
94.6589
20
121.7425
0
VERTEX
8
CUT
10
94.6606
20
121.2841
0
VERTEX
8
CUT
10
94.6666
20
119.6097
0
VERTEX
8
CUT
10
94.4048
20
118.6887
0
VERTEX
8
CUT
10
94.3560
20
116.3745
0
VERTEX
8
CUT
10
94.1117
20
115.7801
0
VERTEX
8
CUT
10
93.8483
20
113.7572
0
VERTEX
8
CUT
10
93.8081
20
113.6690
0
VERTEX
8
CUT
10
93.6268
20
112.5731
0
VERTEX
8
CUT
10
92.5183
20
108.9685
0
VERTEX
8
CUT
10
91.8503
20
107.6338
0
VERTEX
8
CUT
10
91.7240
20
107.3815
0
VERTEX
8
CUT
10
91.6906
20
107.3148
0
VERTEX
8
CUT
10
91.5907
20
107.1151
0
VERTEX
8
CUT
10
90.7880
20
105.9023
0
VERTEX
8
CUT
10
90.6787
20
105.7705
0
VERTEX
8
CUT
10
90.5464
20
105.6108
0
VERTEX
8
CUT
10
90.3334
20
105.3537
0
VERTEX
8
CUT
10
90.0078
20
104.9608
0
VERTEX
8
CUT
10
89.6820
20
104.7722
0
VERTEX
8
CUT
10
89.1251
20
104.8417
0
VERTEX
8
CUT
10
88.6818
20
105.2536
0
VERTEX
8
CUT
10
88.4289
20
106.0574
0
VERTEX
8
CUT
10
87.9327
20
106.2427
0
VERTEX
8
CUT
10
85.7288
20
104.2789
0
VERTEX
8
CUT
10
85.6549
20
104.2223
0
VERTEX
8
CUT
10
82.9749
20
102.7066
0
VERTEX
8
CUT
10
82.1279
20
102.3704
0
VERTEX
8
CUT
10
80.3237
20
102.5005
0
VERTEX
8
CUT
10
79.5852
20
103.4336
0
VERTEX
8
CUT
10
79.5852
20
103.4344
0
VERTEX
8
CUT
10
79.5853
20
103.4349
0
VERTEX
8
CUT
10
79.5892
20
103.4976
0
VERTEX
8
CUT
10
80.4399
20
105.2731
0
VERTEX
8
CUT
10
80.3980
20
105.5085
0
VERTEX
8
CUT
10
80.4395
20
105.5908
0
VERTEX
8
CUT
10
80.3105
20
106.0010
0
VERTEX
8
CUT
10
80.2991
20
106.0652
0
VERTEX
8
CUT
10
80.2895
20
106.0678
0
VERTEX
8
CUT
10
80.2810
20
106.0947
0
VERTEX
8
CUT
10
79.8701
20
106.2560
0
VERTEX
8
CUT
10
79.7446
20
106.2136
0
VERTEX
8
CUT
10
79.5063
20
106.2774
0
VERTEX
8
CUT
10
78.5125
20
105.9766
0
VERTEX
8
CUT
10
76.3895
20
105.9934
0
VERTEX
8
CUT
10
75.6883
20
106.1641
0
VERTEX
8
CUT
10
75.5401
20
106.2284
0
VERTEX
8
CUT
10
75.2044
20
106.3742
0
VERTEX
8
CUT
10
74.4170
20
106.7160
0
VERTEX
8
CUT
10
73.6067
20
107.0678
0
VERTEX
8
CUT
10
73.0395
20
107.7839
0
VERTEX
8
CUT
10
72.9992
20
108.3822
0
VERTEX
8
CUT
10
73.1082
20
108.5352
0
VERTEX
8
CUT
10
73.1666
20
108.5858
0
VERTEX
8
CUT
10
73.3408
20
108.7367
0
VERTEX
8
CUT
10
73.4046
20
108.7920
0
VERTEX
8
CUT
10
73.8339
20
109.1637
0
VERTEX
8
CUT
10
74.5944
20
109.5604
0
VERTEX
8
CUT
10
74.7634
20
109.8912
0
VERTEX
8
CUT
10
74.6639
20
110.2152
0
VERTEX
8
CUT
10
74.0948
20
110.4090
0
VERTEX
8
CUT
10
74.0613
20
110.4342
0
VERTEX
8
CUT
10
74.0057
20
110.4394
0
VERTEX
8
CUT
10
71.1793
20
111.4022
0
VERTEX
8
CUT
10
70.9636
20
111.5119
0
VERTEX
8
CUT
10
70.8585
20
111.5653
0
VERTEX
8
CUT
10
70.7987
20
111.5958
0
VERTEX
8
CUT
10
70.4025
20
111.7973
0
VERTEX
8
CUT
10
69.9230
20
112.0444
0
VERTEX
8
CUT
10
68.3759
20
113.2450
0
VERTEX
8
CUT
10
67.0290
20
114.7479
0
VERTEX
8
CUT
10
66.9711
20
114.8626
0
VERTEX
8
CUT
10
66.9804
20
114.9136
0
VERTEX
8
CUT
10
66.9886
20
114.9581
0
VERTEX
8
CUT
10
67.0079
20
115.0637
0
VERTEX
8
CUT
10
67.0252
20
115.1580
0
VERTEX
8
CUT
10
67.1461
20
115.5638
0
VERTEX
8
CUT
10
67.2473
20
115.6479
0
VERTEX
8
CUT
10
67.2564
20
115.6555
0
VERTEX
8
CUT
10
67.2823
20
115.6770
0
VERTEX
8
CUT
10
67.3675
20
115.7478
0
VERTEX
8
CUT
10
68.0113
20
116.1535
0
VERTEX
8
CUT
10
67.9498
20
116.6298
0
VERTEX
8
CUT
10
63.8907
20
119.2774
0
VERTEX
8
CUT
10
61.9085
20
120.9206
0
VERTEX
8
CUT
10
61.0177
20
121.8156
0
VERTEX
8
CUT
10
60.7751
20
122.0594
0
VERTEX
8
CUT
10
60.6922
20
122.1427
0
VERTEX
8
CUT
10
60.5574
20
122.2781
0
VERTEX
8
CUT
10
59.3944
20
123.9618
0
VERTEX
8
CUT
10
59.1677
20
124.8989
0
VERTEX
8
CUT
10
59.3988
20
125.2089
0
VERTEX
8
CUT
10
59.7873
20
125.2840
0
VERTEX
8
CUT
10
62.6124
20
124.1193
0
VERTEX
8
CUT
10
64.3419
20
123.6514
0
VERTEX
8
CUT
10
64.7683
20
123.5108
0
VERTEX
8
CUT
10
64.8741
20
123.5074
0
VERTEX
8
CUT
10
65.9344
20
123.2205
0
VERTEX
8
CUT
10
66.8499
20
123.2118
0
VERTEX
8
CUT
10
66.8543
20
123.2100
0
VERTEX
8
CUT
10
67.5559
20
123.1892
0
VERTEX
8
CUT
10
67.6319
20
123.2043
0
VERTEX
8
CUT
10
68.1799
20
123.1991
0
VERTEX
8
CUT
10
68.9142
20
123.4576
0
VERTEX
8
CUT
10
70.1800
20
123.4511
0
VERTEX
8
CUT
10
71.5962
20
122.3523
0
VERTEX
8
CUT
10
71.6086
20
122.3319
0
VERTEX
8
CUT
10
71.6231
20
122.3314
0
VERTEX
8
CUT
10
71.6442
20
122.3151
0
VERTEX
8
CUT
10
72.5866
20
122.0058
0
VERTEX
8
CUT
10
73.9026
20
121.9412
0
VERTEX
8
CUT
10
74.3486
20
121.6164
0
VERTEX
8
CUT
10
74.4996
20
120.9830
0
VERTEX
8
CUT
10
73.7025
20
120.0032
0
SEQEND
0
POLYLINE
8
CUT
66
1
70
1
10
0.0
20
0.0
30
0.0
0
VERTEX
8
CUT
10
163.0015
20
194.5861
0
VERTEX
8
CUT
10
163.0629
20
194.5171
0
VERTEX
8
CUT
10
162.1525
20
192.6941
0
VERTEX
8
CUT
10
161.2618
20
191.4049
0
VERTEX
8
CUT
10
161.4027
20
190.8464
0
VERTEX
8
CUT
10
161.6904
20
190.7582
0
VERTEX
8
CUT
10
162.2727
20
191.0052
0
VERTEX
8
CUT
10
163.2212
20
191.0562
0
VERTEX
8
CUT
10
164.5735
20
191.5848
0
VERTEX
8
CUT
10
165.3755
20
191.6700
0
VERTEX
8
CUT
10
168.3954
20
193.0484
0
VERTEX
8
CUT
10
169.1994
20
192.7181
0
VERTEX
8
CUT
10
169.4316
20
192.2334
0
VERTEX
8
CUT
10
169.4019
20
191.6097
0
VERTEX
8
CUT
10
168.7705
20
189.7227
0
VERTEX
8
CUT
10
167.5347
20
187.2542
0
VERTEX
8
CUT
10
164.8842
20
183.9538
0
VERTEX
8
CUT
10
163.4392
20
182.7745
0
VERTEX
8
CUT
10
162.9656
20
182.1401
0
VERTEX
8
CUT
10
163.2430
20
181.7591
0
VERTEX
8
CUT
10
165.7377
20
181.6797
0
VERTEX
8
CUT
10
167.0217
20
181.3625
0
VERTEX
8
CUT
10
168.2224
20
180.7779
0
VERTEX
8
CUT
10
168.7936
20
179.8436
0
VERTEX
8
CUT
10
168.7495
20
179.1643
0
VERTEX
8
CUT
10
168.3228
20
178.4328
0
VERTEX
8
CUT
10
166.9500
20
176.9975
0
VERTEX
8
CUT
10
162.1203
20
173.0400
0
VERTEX
8
CUT
10
159.5734
20
170.1527
0
VERTEX
8
CUT
10
158.9507
20
169.0814
0
VERTEX
8
CUT
10
158.7571
20
169.0506
0
VERTEX
8
CUT
10
158.4497
20
168.3715
0
VERTEX
8
CUT
10
158.4326
20
168.1901
0
VERTEX
8
CUT
10
158.3488
20
168.0459
0
VERTEX
8
CUT
10
157.4678
20
165.9646
0
VERTEX
8
CUT
10
157.4595
20
165.9226
0
VERTEX
8
CUT
10
157.2310
20
165.5236
0
VERTEX
8
CUT
10
157.2375
20
164.8003
0
VERTEX
8
CUT
10
156.1791
20
159.4511
0
VERTEX
8
CUT
10
155.5403
20
157.5493
0
VERTEX
8
CUT
10
154.3461
20
155.1407
0
VERTEX
8
CUT
10
153.7170
20
154.2151
0
VERTEX
8
CUT
10
153.4895
20
154.0422
0
VERTEX
8
CUT
10
150.6913
20
152.5400
0
VERTEX
8
CUT
10
149.7082
20
152.6424
0
VERTEX
8
CUT
10
149.6967
20
152.6436
0
VERTEX
8
CUT
10
149.6913
20
152.6442
0
VERTEX
8
CUT
10
149.6911
20
152.6442
0
VERTEX
8
CUT
10
149.0257
20
153.3086
0
VERTEX
8
CUT
10
148.9985
20
153.3612
0
VERTEX
8
CUT
10
148.9742
20
153.4081
0
VERTEX
8
CUT
10
148.9686
20
153.4190
0
VERTEX
8
CUT
10
148.9655
20
153.4250
0
VERTEX
8
CUT
10
148.6358
20
154.7238
0
VERTEX
8
CUT
10
148.5827
20
156.2353
0
VERTEX
8
CUT
10
148.3279
20
156.8504
0
VERTEX
8
CUT
10
148.2769
20
157.7989
0
VERTEX
8
CUT
10
147.8843
20
158.8032
0
VERTEX
8
CUT
10
147.7312
20
159.3119
0
VERTEX
8
CUT
10
147.6631
20
159.9533
0
VERTEX
8
CUT
10
147.3698
20
160.5126
0
VERTEX
8
CUT
10
147.3466
20
160.5897
0
VERTEX
8
CUT
10
147.0998
20
161.0274
0
VERTEX
8
CUT
10
146.7429
20
161.7080
0
VERTEX
8
CUT
10
145.4342
20
162.2922
0
VERTEX
8
CUT
10
144.7705
20
162.9521
0
VERTEX
8
CUT
10
143.2622
20
166.0063
0
VERTEX
8
CUT
10
142.5827
20
168.7714
0
VERTEX
8
CUT
10
142.5747
20
168.8979
0
VERTEX
8
CUT
10
142.5098
20
169.0681
0
VERTEX
8
CUT
10
142.3453
20
169.7373
0
VERTEX
8
CUT
10
142.3270
20
175.4064
0
VERTEX
8
CUT
10
142.5754
20
176.1390
0
VERTEX
8
CUT
10
142.6301
20
177.2473
0
VERTEX
8
CUT
10
142.7607
20
177.4992
0
VERTEX
8
CUT
10
142.7732
20
177.7204
0
VERTEX
8
CUT
10
142.8756
20
177.9402
0
VERTEX
8
CUT
10
142.9254
20
179.0406
0
VERTEX
8
CUT
10
143.0292
20
179.2658
0
VERTEX
8
CUT
10
142.9942
20
179.3380
0
VERTEX
8
CUT
10
143.1758
20
179.7414
0
VERTEX
8
CUT
10
143.2084
20
180.4604
0
VERTEX
8
CUT
10
143.3885
20
180.9615
0
VERTEX
8
CUT
10
143.3827
20
181.3386
0
VERTEX
8
CUT
10
143.4684
20
181.5305
0
VERTEX
8
CUT
10
143.4751
20
182.4939
0
VERTEX
8
CUT
10
143.4930
20
183.1312
0
VERTEX
8
CUT
10
143.4798
20
183.1679
0
VERTEX
8
CUT
10
143.4838
20
183.7412
0
VERTEX
8
CUT
10
143.2243
20
184.4695
0
VERTEX
8
CUT
10
143.1645
20
185.4535
0
VERTEX
8
CUT
10
141.7374
20
189.2774
0
VERTEX
8
CUT
10
141.7278
20
190.9468
0
VERTEX
8
CUT
10
141.7237
20
191.6474
0
VERTEX
8
CUT
10
141.7202
20
192.2619
0
VERTEX
8
CUT
10
141.7167
20
192.8675
0
VERTEX
8
CUT
10
141.9791
20
194.0212
0
VERTEX
8
CUT
10
141.9773
20
195.0237
0
VERTEX
8
CUT
10
141.9960
20
195.9498
0
VERTEX
8
CUT
10
141.9754
20
196.1003
0
VERTEX
8
CUT
10
141.9733
20
197.3141
0
VERTEX
8
CUT
10
141.3627
20
199.5674
0
VERTEX
8
CUT
10
140.5432
20
201.1803
0
VERTEX
8
CUT
10
140.2567
20
202.5931
0
VERTEX
8
CUT
10
140.2176
20
203.8248
0
VERTEX
8
CUT
10
140.2043
20
205.1133
0
VERTEX
8
CUT
10
140.3427
20
206.2791
0
VERTEX
8
CUT
10
140.1805
20
209.8095
0
VERTEX
8
CUT
10
139.9244
20
210.6503
0
VERTEX
8
CUT
10
139.8765
20
213.4955
0
VERTEX
8
CUT
10
139.6122
20
214.2309
0
VERTEX
8
CUT
10
139.6164
20
214.4138
0
VERTEX
8
CUT
10
139.6197
20
214.5563
0
VERTEX
8
CUT
10
139.6229
20
214.6979
0
VERTEX
8
CUT
10
139.6251
20
214.7933
0
VERTEX
8
CUT
10
139.6310
20
214.8866
0
VERTEX
8
CUT
10
140.0180
20
215.4689
0
VERTEX
8
CUT
10
140.5776
20
215.6191
0
VERTEX
8
CUT
10
140.8729
20
215.4269
0
VERTEX
8
CUT
10
142.9527
20
211.4346
0
VERTEX
8
CUT
10
143.1349
20
210.8880
0
VERTEX
8
CUT
10
143.1313
20
210.3050
0
VERTEX
8
CUT
10
144.5089
20
206.0494
0
VERTEX
8
CUT
10
144.5920
20
205.6241
0
VERTEX
8
CUT
10
144.6649
20
203.8904
0
VERTEX
8
CUT
10
145.1173
20
203.4656
0
VERTEX
8
CUT
10
145.6353
20
203.4795
0
VERTEX
8
CUT
10
145.8513
20
203.7976
0
VERTEX
8
CUT
10
147.3608
20
204.7558
0
VERTEX
8
CUT
10
149.3022
20
205.3892
0
VERTEX
8
CUT
10
154.5140
20
205.3327
0
VERTEX
8
CUT
10
155.3676
20
204.8095
0
VERTEX
8
CUT
10
155.6050
20
204.2135
0
VERTEX
8
CUT
10
153.2504
20
200.7553
0
VERTEX
8
CUT
10
152.8707
20
199.8945
0
VERTEX
8
CUT
10
153.0226
20
199.5144
0
VERTEX
8
CUT
10
153.7626
20
199.4395
0
VERTEX
8
CUT
10
154.7251
20
199.7221
0
VERTEX
8
CUT
10
157.6141
20
199.7218
0
VERTEX
8
CUT
10
159.6238
20
199.1661
0
VERTEX
8
CUT
10
160.9812
20
199.1400
0
VERTEX
8
CUT
10
163.2168
20
199.7237
0
VERTEX
8
CUT
10
163.6681
20
199.5059
0
VERTEX
8
CUT
10
164.2526
20
198.8144
0
VERTEX
8
CUT
10
164.3023
20
198.5011
0
VERTEX
8
CUT
10
164.2008
20
198.4953
0
VERTEX
8
CUT
10
164.1423
20
197.9150
0
VERTEX
8
CUT
10
164.0652
20
197.7615
0
VERTEX
8
CUT
10
164.0307
20
197.2052
0
SEQEND
0
POLYLINE
8
CUT
66
1
70
1
10
0.0
20
0.0
30
0.0
0
VERTEX
8
CUT
10
15.9901
20
212.8547
0
VERTEX
8
CUT
10
16.2462
20
212.6728
0
VERTEX
8
CUT
10
16.3813
20
212.0971
0
VERTEX
8
CUT
10
16.7111
20
211.6739
0
VERTEX
8
CUT
10
17.6298
20
211.3083
0
VERTEX
8
CUT
10
19.9297
20
209.4131
0
VERTEX
8
CUT
10
21.4426
20
208.5054
0
VERTEX
8
CUT
10
21.8293
20
208.4567
0
VERTEX
8
CUT
10
22.0969
20
208.6658
0
VERTEX
8
CUT
10
21.8935
20
209.3553
0
VERTEX
8
CUT
10
21.8864
20
209.4556
0
VERTEX
8
CUT
10
21.6575
20
210.1553
0
VERTEX
8
CUT
10
20.7634
20
213.1859
0
VERTEX
8
CUT
10
20.7615
20
213.1968
0
VERTEX
8
CUT
10
20.6914
20
214.5120
0
VERTEX
8
CUT
10
20.4513
20
215.4418
0
VERTEX
8
CUT
10
20.4212
20
215.6929
0
VERTEX
8
CUT
10
20.4223
20
215.7832
0
VERTEX
8
CUT
10
20.7198
20
217.3842
0
VERTEX
8
CUT
10
20.4932
20
218.5911
0
VERTEX
8
CUT
10
20.6891
20
219.0994
0
VERTEX
8
CUT
10
20.8612
20
221.2894
0
VERTEX
8
CUT
10
20.7229
20
222.6002
0
VERTEX
8
CUT
10
20.9301
20
223.4469
0
VERTEX
8
CUT
10
21.3133
20
224.4950
0
VERTEX
8
CUT
10
21.4884
20
224.8286
0
VERTEX
8
CUT
10
22.1168
20
225.2190
0
VERTEX
8
CUT
10
22.1995
20
225.2035
0
VERTEX
8
CUT
10
22.2847
20
225.1875
0
VERTEX
8
CUT
10
22.4148
20
225.1631
0
VERTEX
8
CUT
10
22.6231
20
225.1240
0
VERTEX
8
CUT
10
22.7601
20
225.0861
0
VERTEX
8
CUT
10
22.7782
20
225.0600
0
VERTEX
8
CUT
10
22.7880
20
225.0457
0
VERTEX
8
CUT
10
22.7949
20
225.0358
0
VERTEX
8
CUT
10
22.8195
20
225.0001
0
VERTEX
8
CUT
10
22.8760
20
224.9181
0
VERTEX
8
CUT
10
23.9173
20
222.6237
0
VERTEX
8
CUT
10
24.9222
20
221.7157
0
VERTEX
8
CUT
10
26.6993
20
219.1202
0
VERTEX
8
CUT
10
27.2847
20
218.6623
0
VERTEX
8
CUT
10
27.7017
20
218.7760
0
VERTEX
8
CUT
10
27.8999
20
219.0942
0
VERTEX
8
CUT
10
28.0585
20
221.3122
0
VERTEX
8
CUT
10
27.6092
20
224.0954
0
VERTEX
8
CUT
10
28.3277
20
227.1003
0
VERTEX
8
CUT
10
28.6257
20
227.2693
0
VERTEX
8
CUT
10
29.1586
20
226.8853
0
VERTEX
8
CUT
10
30.1346
20
227.0493
0
VERTEX
8
CUT
10
30.6796
20
227.7236
0
VERTEX
8
CUT
10
31.4437
20
228.1949
0
VERTEX
8
CUT
10
31.8066
20
228.7682
0
VERTEX
8
CUT
10
31.5395
20
229.2831
0
VERTEX
8
CUT
10
30.1679
20
229.8018
0
VERTEX
8
CUT
10
29.8369
20
230.4302
0
VERTEX
8
CUT
10
29.7639
20
231.0586
0
VERTEX
8
CUT
10
28.9279
20
231.7306
0
VERTEX
8
CUT
10
29.3940
20
233.1507
0
VERTEX
8
CUT
10
29.4819
20
234.2496
0
VERTEX
8
CUT
10
30.0675
20
235.4249
0
VERTEX
8
CUT
10
30.1785
20
235.5349
0
VERTEX
8
CUT
10
30.2647
20
235.6204
0
VERTEX
8
CUT
10
30.5196
20
235.8730
0
VERTEX
8
CUT
10
30.9065
20
236.2564
0
VERTEX
8
CUT
10
31.6965
20
235.9678
0
VERTEX
8
CUT
10
31.7455
20
235.9179
0
VERTEX
8
CUT
10
31.7457
20
235.9177
0
VERTEX
8
CUT
10
31.7458
20
235.9176
0
VERTEX
8
CUT
10
31.7566
20
235.9066
0
VERTEX
8
CUT
10
32.2265
20
234.9279
0
VERTEX
8
CUT
10
32.0572
20
233.5092
0
VERTEX
8
CUT
10
33.1523
20
233.0656
0
VERTEX
8
CUT
10
34.7531
20
230.9926
0
VERTEX
8
CUT
10
35.3556
20
230.6662
0
VERTEX
8
CUT
10
35.7647
20
230.7562
0
VERTEX
8
CUT
10
36.0477
20
231.5815
0
VERTEX
8
CUT
10
35.7534
20
232.5955
0
VERTEX
8
CUT
10
35.7340
20
233.8629
0
VERTEX
8
CUT
10
36.2955
20
235.8430
0
VERTEX
8
CUT
10
36.3808
20
237.2163
0
VERTEX
8
CUT
10
37.0769
20
238.0004
0
VERTEX
8
CUT
10
37.9628
20
238.0377
0
VERTEX
8
CUT
10
38.5520
20
238.9345
0
VERTEX
8
CUT
10
38.2288
20
239.5463
0
VERTEX
8
CUT
10
38.4599
20
240.2911
0
VERTEX
8
CUT
10
38.2216
20
241.1070
0
VERTEX
8
CUT
10
37.6064
20
241.6117
0
VERTEX
8
CUT
10
37.5823
20
242.0583
0
VERTEX
8
CUT
10
38.6624
20
242.3610
0
VERTEX
8
CUT
10
40.9116
20
242.2002
0
VERTEX
8
CUT
10
41.1135
20
242.4569
0
VERTEX
8
CUT
10
41.2374
20
243.6603
0
VERTEX
8
CUT
10
41.9809
20
244.1697
0
VERTEX
8
CUT
10
42.3403
20
243.9311
0
VERTEX
8
CUT
10
42.5876
20
243.0613
0
VERTEX
8
CUT
10
43.9825
20
242.8869
0
VERTEX
8
CUT
10
44.2458
20
242.3801
0
VERTEX
8
CUT
10
44.1785
20
241.4052
0
VERTEX
8
CUT
10
43.6820
20
240.3910
0
VERTEX
8
CUT
10
43.6090
20
239.3404
0
VERTEX
8
CUT
10
43.0697
20
237.9476
0
VERTEX
8
CUT
10
42.9399
20
236.5291
0
VERTEX
8
CUT
10
42.3138
20
235.7900
0
VERTEX
8
CUT
10
42.3243
20
234.7390
0
VERTEX
8
CUT
10
42.1277
20
234.4962
0
VERTEX
8
CUT
10
41.4674
20
234.4727
0
VERTEX
8
CUT
10
41.2658
20
234.1601
0
VERTEX
8
CUT
10
41.3887
20
233.8458
0
VERTEX
8
CUT
10
42.2522
20
233.2152
0
VERTEX
8
CUT
10
42.4525
20
232.7036
0
VERTEX
8
CUT
10
43.2216
20
232.2213
0
VERTEX
8
CUT
10
43.2227
20
230.8227
0
VERTEX
8
CUT
10
43.5694
20
229.3578
0
VERTEX
8
CUT
10
43.0306
20
228.4024
0
VERTEX
8
CUT
10
41.7937
20
227.8704
0
VERTEX
8
CUT
10
41.4047
20
227.8946
0
VERTEX
8
CUT
10
40.9039
20
228.4551
0
VERTEX
8
CUT
10
40.1560
20
228.3237
0
VERTEX
8
CUT
10
39.9240
20
227.7314
0
VERTEX
8
CUT
10
39.1573
20
226.9956
0
VERTEX
8
CUT
10
39.0045
20
226.0987
0
VERTEX
8
CUT
10
39.1728
20
224.4559
0
VERTEX
8
CUT
10
40.1000
20
221.6545
0
VERTEX
8
CUT
10
40.4293
20
221.0015
0
VERTEX
8
CUT
10
40.7639
20
220.8472
0
VERTEX
8
CUT
10
41.0566
20
221.0087
0
VERTEX
8
CUT
10
41.1170
20
221.3918
0
VERTEX
8
CUT
10
40.6079
20
222.6496
0
VERTEX
8
CUT
10
40.5024
20
223.8446
0
VERTEX
8
CUT
10
40.2204
20
224.5816
0
VERTEX
8
CUT
10
40.3944
20
225.0961
0
VERTEX
8
CUT
10
40.8950
20
225.6479
0
VERTEX
8
CUT
10
41.3070
20
225.7643
0
VERTEX
8
CUT
10
41.6949
20
225.5968
0
VERTEX
8
CUT
10
41.7762
20
225.4226
0
VERTEX
8
CUT
10
43.3670
20
224.7782
0
VERTEX
8
CUT
10
44.8835
20
224.4360
0
VERTEX
8
CUT
10
45.3062
20
224.4810
0
VERTEX
8
CUT
10
45.4537
20
224.4472
0
VERTEX
8
CUT
10
45.5779
20
224.5100
0
VERTEX
8
CUT
10
45.6927
20
224.5222
0
VERTEX
8
CUT
10
45.7742
20
224.6092
0
VERTEX
8
CUT
10
45.9501
20
224.6982
0
VERTEX
8
CUT
10
45.9821
20
224.8312
0
VERTEX
8
CUT
10
46.0549
20
224.9089
0
VERTEX
8
CUT
10
46.0108
20
224.9504
0
VERTEX
8
CUT
10
46.0331
20
225.0432
0
VERTEX
8
CUT
10
45.3714
20
227.0255
0
VERTEX
8
CUT
10
44.4722
20
231.9470
0
VERTEX
8
CUT
10
44.4927
20
238.9979
0
VERTEX
8
CUT
10
44.9564
20
240.2011
0
VERTEX
8
CUT
10
45.3041
20
240.5048
0
VERTEX
8
CUT
10
45.6577
20
240.5417
0
VERTEX
8
CUT
10
48.4819
20
237.6272
0
VERTEX
8
CUT
10
48.6300
20
237.5324
0
VERTEX
8
CUT
10
49.3546
20
236.7983
0
VERTEX
8
CUT
10
49.8890
20
237.0730
0
VERTEX
8
CUT
10
49.9115
20
237.1682
0
VERTEX
8
CUT
10
50.0085
20
237.2172
0
VERTEX
8
CUT
10
49.9737
20
237.4301
0
VERTEX
8
CUT
10
50.0326
20
237.6784
0
VERTEX
8
CUT
10
49.8864
20
237.9631
0
VERTEX
8
CUT
10
49.5564
20
239.9787
0
VERTEX
8
CUT
10
49.5739
20
245.7658
0
VERTEX
8
CUT
10
49.8048
20
246.3502
0
VERTEX
8
CUT
10
50.1831
20
249.2176
0
VERTEX
8
CUT
10
52.0341
20
254.1309
0
VERTEX
8
CUT
10
52.7588
20
255.1646
0
VERTEX
8
CUT
10
53.4762
20
255.2740
0
VERTEX
8
CUT
10
53.9525
20
255.1443
0
VERTEX
8
CUT
10
54.4896
20
253.2256
0
VERTEX
8
CUT
10
55.6778
20
250.5234
0
VERTEX
8
CUT
10
55.9988
20
250.2712
0
VERTEX
8
CUT
10
56.3450
20
250.4028
0
VERTEX
8
CUT
10
56.7147
20
251.5279
0
VERTEX
8
CUT
10
56.7837
20
253.9806
0
VERTEX
8
CUT
10
57.3133
20
255.6663
0
VERTEX
8
CUT
10
57.3881
20
256.7228
0
VERTEX
8
CUT
10
58.0032
20
258.5672
0
VERTEX
8
CUT
10
59.8179
20
262.8008
0
VERTEX
8
CUT
10
63.4742
20
268.5755
0
VERTEX
8
CUT
10
64.3489
20
269.6337
0
VERTEX
8
CUT
10
64.7842
20
269.9883
0
VERTEX
8
CUT
10
64.8987
20
270.2988
0
VERTEX
8
CUT
10
66.2728
20
271.9611
0
VERTEX
8
CUT
10
66.6350
20
272.1255
0
VERTEX
8
CUT
10
67.9541
20
273.6522
0
VERTEX
8
CUT
10
69.4958
20
275.1523
0
VERTEX
8
CUT
10
71.0797
20
276.5625
0
VERTEX
8
CUT
10
71.5080
20
277.1102
0
VERTEX
8
CUT
10
72.6800
20
278.2506
0
VERTEX
8
CUT
10
73.6378
20
278.8999
0
VERTEX
8
CUT
10
75.4849
20
280.6598
0
VERTEX
8
CUT
10
77.2660
20
282.5269
0
VERTEX
8
CUT
10
77.2656
20
282.8105
0
VERTEX
8
CUT
10
80.3913
20
286.2269
0
VERTEX
8
CUT
10
82.5221
20
290.1512
0
VERTEX
8
CUT
10
83.1312
20
291.9914
0
VERTEX
8
CUT
10
83.1842
20
292.9505
0
VERTEX
8
CUT
10
83.7349
20
295.0221
0
VERTEX
8
CUT
10
83.7882
20
296.2576
0
VERTEX
8
CUT
10
83.8240
20
296.3258
0
VERTEX
8
CUT
10
84.3117
20
296.9332
0
VERTEX
8
CUT
10
84.4931
20
297.0920
0
VERTEX
8
CUT
10
85.0412
20
297.2982
0
VERTEX
8
CUT
10
85.5198
20
297.4781
0
VERTEX
8
CUT
10
85.9243
20
297.6303
0
VERTEX
8
CUT
10
86.5120
20
297.8513
0
VERTEX
8
CUT
10
87.5689
20
297.9301
0
VERTEX
8
CUT
10
90.4427
20
298.7585
0
VERTEX
8
CUT
10
90.7181
20
298.7736
0
VERTEX
8
CUT
10
90.7341
20
298.7745
0
VERTEX
8
CUT
10
90.8989
20
298.7835
0
VERTEX
8
CUT
10
91.5577
20
298.8196
0
VERTEX
8
CUT
10
91.7457
20
298.8280
0
VERTEX
8
CUT
10
91.7502
20
298.8301
0
VERTEX
8
CUT
10
91.7626
20
298.8308
0
VERTEX
8
CUT
10
92.7672
20
299.0978
0
VERTEX
8
CUT
10
93.2641
20
299.1292
0
VERTEX
8
CUT
10
93.8593
20
299.3745
0
VERTEX
8
CUT
10
95.3303
20
299.4277
0
VERTEX
8
CUT
10
95.3402
20
299.4312
0
VERTEX
8
CUT
10
95.3585
20
299.4317
0
VERTEX
8
CUT
10
95.4794
20
299.4794
0
VERTEX
8
CUT
10
95.6460
20
299.5372
0
VERTEX
8
CUT
10
97.5590
20
299.7080
0
VERTEX
8
CUT
10
98.5603
20
299.7268
0
VERTEX
8
CUT
10
98.5807
20
299.7306
0
VERTEX
8
CUT
10
98.6076
20
299.7311
0
VERTEX
8
CUT
10
98.8281
20
299.7772
0
VERTEX
8
CUT
10
99.2735
20
299.8611
0
VERTEX
8
CUT
10
100.7876
20
299.9962
0
VERTEX
8
CUT
10
100.8151
20
299.9961
0
VERTEX
8
CUT
10
100.8578
20
299.9959
0
VERTEX
8
CUT
10
101.0357
20
299.9952
0
VERTEX
8
CUT
10
101.3022
20
299.9941
0
VERTEX
8
CUT
10
102.3884
20
299.9192
0
VERTEX
8
CUT
10
102.9532
20
299.8675
0
VERTEX
8
CUT
10
103.5442
20
299.7302
0
VERTEX
8
CUT
10
104.6941
20
299.7079
0
VERTEX
8
CUT
10
106.1145
20
299.5777
0
VERTEX
8
CUT
10
106.2961
20
299.5133
0
VERTEX
8
CUT
10
106.4877
20
299.4353
0
VERTEX
8
CUT
10
106.5188
20
299.4343
0
VERTEX
8
CUT
10
106.5353
20
299.4284
0
VERTEX
8
CUT
10
108.3340
20
299.3736
0
VERTEX
8
CUT
10
110.4001
20
298.8282
0
VERTEX
8
CUT
10
110.8836
20
298.7986
0
VERTEX
8
CUT
10
113.0697
20
298.3038
0
VERTEX
8
CUT
10
115.8748
20
297.5256
0
VERTEX
8
CUT
10
116.3546
20
297.3349
0
VERTEX
8
CUT
10
117.5518
20
296.6631
0
VERTEX
8
CUT
10
117.5620
20
296.6549
0
VERTEX
8
CUT
10
117.7699
20
296.2337
0
VERTEX
8
CUT
10
117.8185
20
294.1869
0
VERTEX
8
CUT
10
118.0721
20
293.5362
0
VERTEX
8
CUT
10
118.1244
20
292.3013
0
VERTEX
8
CUT
10
118.7341
20
290.1512
0
VERTEX
8
CUT
10
119.6269
20
288.0641
0
VERTEX
8
CUT
10
121.4402
20
285.3613
0
VERTEX
8
CUT
10
122.9201
20
283.7092
0
VERTEX
8
CUT
10
124.0278
20
282.4339
0
VERTEX
8
CUT
10
124.3604
20
282.1014
0
VERTEX
8
CUT
10
124.6514
20
281.7765
0
VERTEX
8
CUT
10
126.3608
20
280.1017
0
VERTEX
8
CUT
10
126.6439
20
279.8187
0
VERTEX
8
CUT
10
126.7230
20
279.7467
0
VERTEX
8
CUT
10
135.3508
20
271.2933
0
VERTEX
8
CUT
10
135.6372
20
270.9636
0
VERTEX
8
CUT
10
137.7764
20
268.2821
0
VERTEX
8
CUT
10
137.8083
20
268.2347
0
VERTEX
8
CUT
10
139.9240
20
264.9251
0
VERTEX
8
CUT
10
141.4306
20
261.9206
0
VERTEX
8
CUT
10
141.6042
20
261.4578
0
VERTEX
8
CUT
10
142.3842
20
259.2640
0
VERTEX
8
CUT
10
142.4428
20
258.6542
0
VERTEX
8
CUT
10
142.9697
20
257.3167
0
VERTEX
8
CUT
10
143.0269
20
257.0849
0
VERTEX
8
CUT
10
143.0473
20
256.8946
0
VERTEX
8
CUT
10
143.0793
20
256.8724
0
VERTEX
8
CUT
10
143.5664
20
254.8963
0
VERTEX
8
CUT
10
143.6462
20
251.8016
0
VERTEX
8
CUT
10
143.9283
20
251.0285
0
VERTEX
8
CUT
10
143.9324
20
250.8768
0
VERTEX
8
CUT
10
144.0034
20
250.8225
0
VERTEX
8
CUT
10
144.0668
20
250.6490
0
VERTEX
8
CUT
10
144.2957
20
250.5994
0
VERTEX
8
CUT
10
144.3265
20
250.5759
0
VERTEX
8
CUT
10
144.3487
20
250.5880
0
VERTEX
8
CUT
10
144.3947
20
250.5780
0
VERTEX
8
CUT
10
144.5411
20
250.6929
0
VERTEX
8
CUT
10
144.6340
20
250.7435
0
VERTEX
8
CUT
10
144.6515
20
250.7794
0
VERTEX
8
CUT
10
144.6578
20
250.7844
0
VERTEX
8
CUT
10
144.6742
20
250.8261
0
VERTEX
8
CUT
10
144.9652
20
251.4244
0
VERTEX
8
CUT
10
145.2618
20
252.3207
0
VERTEX
8
CUT
10
146.3734
20
255.1479
0
VERTEX
8
CUT
10
147.0325
20
255.5745
0
VERTEX
8
CUT
10
147.3426
20
255.3260
0
VERTEX
8
CUT
10
148.4534
20
253.4099
0
VERTEX
8
CUT
10
148.8691
20
251.9194
0
VERTEX
8
CUT
10
149.3789
20
250.9349
0
VERTEX
8
CUT
10
149.8549
20
249.0145
0
VERTEX
8
CUT
10
149.9463
20
248.4619
0
VERTEX
8
CUT
10
149.9836
20
248.3805
0
VERTEX
8
CUT
10
150.0334
20
246.9894
0
VERTEX
8
CUT
10
150.2958
20
245.9512
0
VERTEX
8
CUT
10
150.2881
20
240.4536
0
VERTEX
8
CUT
10
150.2472
20
240.3294
0
VERTEX
8
CUT
10
150.2384
20
239.9997
0
VERTEX
8
CUT
10
149.7965
20
237.5294
0
VERTEX
8
CUT
10
150.4237
20
236.8568
0
VERTEX
8
CUT
10
151.2056
20
237.5005
0
VERTEX
8
CUT
10
151.2902
20
237.6519
0
VERTEX
8
CUT
10
153.1299
20
239.7116
0
VERTEX
8
CUT
10
154.1164
20
240.5270
0
VERTEX
8
CUT
10
154.7684
20
240.4889
0
VERTEX
8
CUT
10
155.1220
20
240.0507
0
VERTEX
8
CUT
10
155.1039
20
239.8882
0
VERTEX
8
CUT
10
155.4100
20
237.5238
0
VERTEX
8
CUT
10
155.4417
20
232.1778
0
VERTEX
8
CUT
10
155.3512
20
231.9346
0
VERTEX
8
CUT
10
155.3038
20
230.4630
0
VERTEX
8
CUT
10
155.0473
20
229.8335
0
VERTEX
8
CUT
10
154.9860
20
228.8332
0
VERTEX
8
CUT
10
154.1543
20
226.2723
0
VERTEX
8
CUT
10
153.9554
20
224.9368
0
VERTEX
8
CUT
10
154.2725
20
224.6904
0
VERTEX
8
CUT
10
155.0046
20
224.6527
0
VERTEX
8
CUT
10
156.3693
20
224.9930
0
VERTEX
8
CUT
10
158.4813
20
225.8592
0
VERTEX
8
CUT
10
159.1032
20
225.6745
0
VERTEX
8
CUT
10
159.4968
20
225.1415
0
VERTEX
8
CUT
10
159.5064
20
223.8396
0
VERTEX
8
CUT
10
159.2502
20
223.2290
0
VERTEX
8
CUT
10
159.1889
20
222.2286
0
VERTEX
8
CUT
10
158.2422
20
219.6923
0
VERTEX
8
CUT
10
157.2720
20
217.7924
0
VERTEX
8
CUT
10
155.3653
20
215.5458
0
VERTEX
8
CUT
10
153.2263
20
213.5133
0
VERTEX
8
CUT
10
149.6615
20
211.4118
0
VERTEX
8
CUT
10
148.1792
20
210.9924
0
VERTEX
8
CUT
10
147.3842
20
210.4478
0
VERTEX
8
CUT
10
146.6827
20
210.7040
0
VERTEX
8
CUT
10
145.3067
20
210.7908
0
VERTEX
8
CUT
10
144.5728
20
211.1743
0
VERTEX
8
CUT
10
143.9458
20
211.8028
0
VERTEX
8
CUT
10
142.5509
20
214.2972
0
VERTEX
8
CUT
10
141.4515
20
215.7673
0
VERTEX
8
CUT
10
141.0585
20
217.2929
0
VERTEX
8
CUT
10
139.9810
20
219.3921
0
VERTEX
8
CUT
10
139.2690
20
221.4682
0
VERTEX
8
CUT
10
136.0706
20
226.0073
0
VERTEX
8
CUT
10
135.0660
20
230.4639
0
VERTEX
8
CUT
10
134.4706
20
231.9901
0
VERTEX
8
CUT
10
133.5447
20
233.8107
0
VERTEX
8
CUT
10
130.7467
20
237.5909
0
VERTEX
8
CUT
10
130.3443
20
237.6231
0
VERTEX
8
CUT
10
129.5932
20
236.9771
0
VERTEX
8
CUT
10
129.1878
20
236.8696
0
VERTEX
8
CUT
10
128.6278
20
237.1253
0
VERTEX
8
CUT
10
127.5361
20
237.7108
0
VERTEX
8
CUT
10
126.8440
20
237.9399
0
VERTEX
8
CUT
10
126.0304
20
238.3114
0
VERTEX
8
CUT
10
123.5325
20
238.6659
0
VERTEX
8
CUT
10
120.8922
20
238.3206
0
VERTEX
8
CUT
10
119.0598
20
237.7280
0
VERTEX
8
CUT
10
118.5040
20
237.7599
0
VERTEX
8
CUT
10
117.9907
20
238.0401
0
VERTEX
8
CUT
10
117.7287
20
238.4248
0
VERTEX
8
CUT
10
116.7533
20
243.0726
0
VERTEX
8
CUT
10
115.9379
20
244.9120
0
VERTEX
8
CUT
10
114.7689
20
244.4131
0
VERTEX
8
CUT
10
114.0656
20
244.3386
0
VERTEX
8
CUT
10
110.9197
20
245.3642
0
VERTEX
8
CUT
10
110.6305
20
245.2715
0
VERTEX
8
CUT
10
110.4187
20
244.8020
0
VERTEX
8
CUT
10
110.1024
20
244.6500
0
VERTEX
8
CUT
10
109.6574
20
244.7787
0
VERTEX
8
CUT
10
109.1364
20
244.6609
0
VERTEX
8
CUT
10
108.6036
20
244.8706
0
VERTEX
8
CUT
10
108.1116
20
244.7506
0
VERTEX
8
CUT
10
107.5948
20
245.2141
0
VERTEX
8
CUT
10
106.6436
20
245.4024
0
VERTEX
8
CUT
10
105.9586
20
245.3838
0
VERTEX
8
CUT
10
104.8314
20
244.9604
0
VERTEX
8
CUT
10
104.4031
20
245.0752
0
VERTEX
8
CUT
10
103.8894
20
245.5317
0
VERTEX
8
CUT
10
103.0102
20
245.2636
0
VERTEX
8
CUT
10
101.8693
20
245.2596
0
VERTEX
8
CUT
10
100.0958
20
245.9856
0
VERTEX
8
CUT
10
99.6057
20
245.9454
0
VERTEX
8
CUT
10
99.2313
20
246.2444
0
VERTEX
8
CUT
10
98.4007
20
246.2517
0
VERTEX
8
CUT
10
97.3082
20
246.9132
0
VERTEX
8
CUT
10
96.6909
20
246.4997
0
VERTEX
8
CUT
10
95.4411
20
246.3705
0
VERTEX
8
CUT
10
95.2354
20
245.3289
0
VERTEX
8
CUT
10
94.9723
20
245.0331
0
VERTEX
8
CUT
10
93.6438
20
244.8932
0
VERTEX
8
CUT
10
93.1880
20
244.4435
0
VERTEX
8
CUT
10
92.0929
20
244.0617
0
VERTEX
8
CUT
10
91.0723
20
244.2628
0
VERTEX
8
CUT
10
89.4633
20
243.4902
0
VERTEX
8
CUT
10
86.7933
20
243.5112
0
VERTEX
8
CUT
10
85.3916
20
244.7812
0
VERTEX
8
CUT
10
84.9639
20
244.7857
0
VERTEX
8
CUT
10
84.2048
20
243.0681
0
VERTEX
8
CUT
10
84.1507
20
241.8264
0
VERTEX
8
CUT
10
83.8950
20
241.1613
0
VERTEX
8
CUT
10
83.8114
20
238.9601
0
VERTEX
8
CUT
10
83.4190
20
237.9148
0
VERTEX
8
CUT
10
82.8635
20
237.4966
0
VERTEX
8
CUT
10
82.1904
20
237.4493
0
VERTEX
8
CUT
10
82.1888
20
237.4497
0
VERTEX
8
CUT
10
82.1799
20
237.4521
0
VERTEX
8
CUT
10
82.1762
20
237.4531
0
VERTEX
8
CUT
10
81.8874
20
237.5303
0
VERTEX
8
CUT
10
79.7486
20
238.3193
0
VERTEX
8
CUT
10
78.2763
20
238.3669
0
VERTEX
8
CUT
10
77.6626
20
238.6202
0
VERTEX
8
CUT
10
76.9610
20
238.6409
0
VERTEX
8
CUT
10
74.9859
20
238.2562
0
VERTEX
8
CUT
10
74.8622
20
238.2552
0
VERTEX
8
CUT
10
74.6701
20
238.1947
0
VERTEX
8
CUT
10
73.7068
20
238.0071
0
VERTEX
8
CUT
10
73.1256
20
237.7079
0
VERTEX
8
CUT
10
73.0703
20
237.6905
0
VERTEX
8
CUT
10
72.9091
20
237.5965
0
VERTEX
8
CUT
10
71.5071
20
236.8750
0
VERTEX
8
CUT
10
70.5415
20
236.9695
0
VERTEX
8
CUT
10
69.9517
20
235.8897
0
VERTEX
8
CUT
10
68.5896
20
234.3510
0
VERTEX
8
CUT
10
67.1197
20
231.4427
0
VERTEX
8
CUT
10
66.6789
20
229.5991
0
VERTEX
8
CUT
10
65.3000
20
227.1716
0
VERTEX
8
CUT
10
65.1216
20
225.3407
0
VERTEX
8
CUT
10
63.8166
20
224.1506
0
VERTEX
8
CUT
10
63.0132
20
222.5951
0
VERTEX
8
CUT
10
62.3077
20
222.0416
0
VERTEX
8
CUT
10
61.7292
20
221.2358
0
VERTEX
8
CUT
10
60.7176
20
218.8851
0
VERTEX
8
CUT
10
59.6135
20
217.3289
0
VERTEX
8
CUT
10
59.1816
20
215.7539
0
VERTEX
8
CUT
10
59.4827
20
215.5335
0
VERTEX
8
CUT
10
60.1791
20
215.5775
0
VERTEX
8
CUT
10
60.7462
20
214.8654
0
VERTEX
8
CUT
10
60.7459
20
214.8524
0
VERTEX
8
CUT
10
60.7451
20
214.8256
0
VERTEX
8
CUT
10
60.7450
20
214.8229
0
VERTEX
8
CUT
10
60.7448
20
214.8149
0
VERTEX
8
CUT
10
60.4857
20
214.2231
0
VERTEX
8
CUT
10
60.4359
20
212.7314
0
VERTEX
8
CUT
10
60.1812
20
212.0532
0
VERTEX
8
CUT
10
60.1324
20
209.7390
0
VERTEX
8
CUT
10
59.8930
20
209.0024
0
VERTEX
8
CUT
10
59.8592
20
205.5917
0
VERTEX
8
CUT
10
59.8549
20
205.2324
0
VERTEX
8
CUT
10
59.8519
20
204.9845
0
VERTEX
8
CUT
10
59.8448
20
204.3930
0
VERTEX
8
CUT
10
59.8121
20
201.6583
0
VERTEX
8
CUT
10
58.6926
20
199.2671
0
VERTEX
8
CUT
10
58.5298
20
198.6517
0
VERTEX
8
CUT
10
58.4037
20
198.3953
0
VERTEX
8
CUT
10
58.3012
20
197.7871
0
VERTEX
8
CUT
10
58.1261
20
197.1251
0
VERTEX
8
CUT
10
58.1074
20
196.6383
0
VERTEX
8
CUT
10
58.0691
20
196.4112
0
VERTEX
8
CUT
10
58.0691
20
195.8416
0
VERTEX
8
CUT
10
58.0620
20
195.8248
0
VERTEX
8
CUT
10
58.0691
20
195.8081
0
VERTEX
8
CUT
10
58.0691
20
195.6414
0
VERTEX
8
CUT
10
58.0389
20
194.8550
0
VERTEX
8
CUT
10
58.0691
20
194.5834
0
VERTEX
8
CUT
10
58.0691
20
194.5390
0
VERTEX
8
CUT
10
58.0811
20
194.4757
0
VERTEX
8
CUT
10
58.3406
20
192.1418
0
VERTEX
8
CUT
10
58.3399
20
192.0237
0
VERTEX
8
CUT
10
58.3382
20
191.7411
0
VERTEX
8
CUT
10
58.3338
20
190.9978
0
VERTEX
8
CUT
10
58.3247
20
189.4941
0
VERTEX
8
CUT
10
58.3134
20
188.6446
0
VERTEX
8
CUT
10
58.0140
20
187.4040
0
VERTEX
8
CUT
10
57.9805
20
187.2947
0
VERTEX
8
CUT
10
57.4972
20
186.3493
0
VERTEX
8
CUT
10
57.1915
20
185.7578
0
VERTEX
8
CUT
10
57.1891
20
185.7466
0
VERTEX
8
CUT
10
57.1854
20
185.7394
0
VERTEX
8
CUT
10
57.1785
20
185.6984
0
VERTEX
8
CUT
10
56.8764
20
184.3216
0
VERTEX
8
CUT
10
56.8766
20
184.2985
0
VERTEX
8
CUT
10
56.8724
20
184.2862
0
VERTEX
8
CUT
10
56.8743
20
183.8880
0
VERTEX
8
CUT
10
56.8500
20
183.7430
0
VERTEX
8
CUT
10
56.8823
20
182.2075
0
VERTEX
8
CUT
10
56.8869
20
181.2582
0
VERTEX
8
CUT
10
56.9032
20
181.2196
0
VERTEX
8
CUT
10
56.9134
20
180.7332
0
VERTEX
8
CUT
10
57.0121
20
180.4255
0
VERTEX
8
CUT
10
57.0768
20
180.0381
0
VERTEX
8
CUT
10
57.1223
20
179.7665
0
VERTEX
8
CUT
10
57.1355
20
179.6874
0
VERTEX
8
CUT
10
57.1491
20
179.6057
0
VERTEX
8
CUT
10
57.1823
20
178.8229
0
VERTEX
8
CUT
10
57.3404
20
178.4617
0
VERTEX
8
CUT
10
57.3877
20
178.1789
0
VERTEX
8
CUT
10
57.4273
20
177.9418
0
VERTEX
8
CUT
10
57.4344
20
177.8995
0
VERTEX
8
CUT
10
57.4490
20
177.8118
0
VERTEX
8
CUT
10
57.4825
20
177.0217
0
VERTEX
8
CUT
10
57.6453
20
176.6379
0
VERTEX
8
CUT
10
57.7412
20
176.0639
0
VERTEX
8
CUT
10
57.7866
20
174.6133
0
VERTEX
8
CUT
10
58.0437
20
173.8511
0
VERTEX
8
CUT
10
58.0435
20
173.6169
0
VERTEX
8
CUT
10
58.0418
20
173.3292
0
VERTEX
8
CUT
10
58.0401
20
173.0332
0
VERTEX
8
CUT
10
58.0369
20
172.4998
0
VERTEX
8
CUT
10
58.0322
20
171.7193
0
VERTEX
8
CUT
10
57.7842
20
170.9781
0
VERTEX
8
CUT
10
57.7082
20
168.7667
0
VERTEX
8
CUT
10
56.7931
20
165.7061
0
VERTEX
8
CUT
10
55.2838
20
162.6831
0
VERTEX
8
CUT
10
54.7394
20
162.1168
0
VERTEX
8
CUT
10
54.5692
20
161.9592
0
VERTEX
8
CUT
10
54.2330
20
161.8158
0
VERTEX
8
CUT
10
53.3623
20
161.5877
0
VERTEX
8
CUT
10
52.7247
20
160.3186
0
VERTEX
8
CUT
10
52.7087
20
160.2895
0
VERTEX
8
CUT
10
52.7059
20
160.2812
0
VERTEX
8
CUT
10
52.4085
20
159.6891
0
VERTEX
8
CUT
10
51.7791
20
157.7995
0
VERTEX
8
CUT
10
51.5092
20
156.0247
0
VERTEX
8
CUT
10
51.4755
20
155.9446
0
VERTEX
8
CUT
10
51.4693
20
155.7623
0
VERTEX
8
CUT
10
51.1245
20
153.4953
0
VERTEX
8
CUT
10
50.4806
20
152.7031
0
VERTEX
8
CUT
10
50.0796
20
152.5179
0
VERTEX
8
CUT
10
49.9615
20
152.5139
0
VERTEX
8
CUT
10
49.9098
20
152.5121
0
VERTEX
8
CUT
10
49.8522
20
152.5102
0
VERTEX
8
CUT
10
49.6648
20
152.5038
0
VERTEX
8
CUT
10
49.2788
20
152.5073
0
VERTEX
8
CUT
10
49.0533
20
152.5699
0
VERTEX
8
CUT
10
48.9974
20
152.5854
0
VERTEX
8
CUT
10
48.9390
20
152.6016
0
VERTEX
8
CUT
10
48.7149
20
152.6638
0
VERTEX
8
CUT
10
47.6453
20
153.0764
0
VERTEX
8
CUT
10
47.5738
20
153.1171
0
VERTEX
8
CUT
10
47.5684
20
153.1202
0
VERTEX
8
CUT
10
47.5044
20
153.1565
0
VERTEX
8
CUT
10
47.3413
20
153.2492
0
VERTEX
8
CUT
10
45.9202
20
154.6147
0
VERTEX
8
CUT
10
44.7201
20
156.2837
0
VERTEX
8
CUT
10
43.8888
20
156.0901
0
VERTEX
8
CUT
10
43.0689
20
156.4006
0
VERTEX
8
CUT
10
42.6046
20
156.3605
0
VERTEX
8
CUT
10
41.3173
20
155.0770
0
VERTEX
8
CUT
10
41.5795
20
152.9682
0
VERTEX
8
CUT
10
42.1390
20
151.5272
0
VERTEX
8
CUT
10
41.8767
20
149.4488
0
VERTEX
8
CUT
10
42.6834
20
147.7906
0
VERTEX
8
CUT
10
43.6342
20
144.2688
0
VERTEX
8
CUT
10
43.5387
20
143.4102
0
VERTEX
8
CUT
10
42.8012
20
143.0659
0
VERTEX
8
CUT
10
42.5316
20
142.3982
0
VERTEX
8
CUT
10
43.6011
20
139.0349
0
VERTEX
8
CUT
10
43.6862
20
138.2329
0
VERTEX
8
CUT
10
44.9033
20
135.1948
0
VERTEX
8
CUT
10
45.8643
20
133.3012
0
VERTEX
8
CUT
10
46.0712
20
132.8421
0
VERTEX
8
CUT
10
46.2864
20
132.4694
0
VERTEX
8
CUT
10
47.2321
20
130.6060
0
VERTEX
8
CUT
10
47.1703
20
130.0014
0
VERTEX
8
CUT
10
46.4423
20
129.0010
0
VERTEX
8
CUT
10
46.9844
20
127.1461
0
VERTEX
8
CUT
10
48.8461
20
124.0141
0
VERTEX
8
CUT
10
49.0782
20
123.5503
0
VERTEX
8
CUT
10
49.0839
20
123.5422
0
VERTEX
8
CUT
10
49.9505
20
121.2678
0
VERTEX
8
CUT
10
50.7479
20
120.8747
0
VERTEX
8
CUT
10
51.3813
20
119.8842
0
VERTEX
8
CUT
10
51.5230
20
119.2982
0
VERTEX
8
CUT
10
53.0611
20
117.6312
0
VERTEX
8
CUT
10
53.9690
20
116.2231
0
VERTEX
8
CUT
10
55.8255
20
114.5718
0
VERTEX
8
CUT
10
56.7399
20
113.0873
0
VERTEX
8
CUT
10
56.8486
20
112.1871
0
VERTEX
8
CUT
10
56.6319
20
111.5452
0
VERTEX
8
CUT
10
56.9039
20
110.9076
0
VERTEX
8
CUT
10
60.9462
20
106.1529
0
VERTEX
8
CUT
10
61.2847
20
105.1231
0
VERTEX
8
CUT
10
61.0681
20
104.5015
0
VERTEX
8
CUT
10
61.0908
20
103.2916
0
VERTEX
8
CUT
10
61.4180
20
102.5547
0
VERTEX
8
CUT
10
63.2412
20
101.4293
0
VERTEX
8
CUT
10
66.4959
20
98.6221
0
VERTEX
8
CUT
10
67.4755
20
98.1478
0
VERTEX
8
CUT
10
67.7261
20
95.6421
0
VERTEX
8
CUT
10
68.6170
20
94.7072
0
VERTEX
8
CUT
10
69.5010
20
94.1093
0
VERTEX
8
CUT
10
70.4224
20
93.7981
0
VERTEX
8
CUT
10
71.2539
20
93.7404
0
VERTEX
8
CUT
10
71.9890
20
93.5628
0
VERTEX
8
CUT
10
73.1741
20
93.1898
0
VERTEX
8
CUT
10
74.7489
20
93.1272
0
VERTEX
8
CUT
10
75.6037
20
92.7382
0
VERTEX
8
CUT
10
75.7400
20
92.2375
0
VERTEX
8
CUT
10
74.6214
20
90.3317
0
VERTEX
8
CUT
10
74.5737
20
89.5486
0
VERTEX
8
CUT
10
74.8191
20
89.0598
0
VERTEX
8
CUT
10
76.3018
20
88.1940
0
VERTEX
8
CUT
10
77.4283
20
88.1477
0
VERTEX
8
CUT
10
78.7632
20
88.6205
0
VERTEX
8
CUT
10
80.5871
20
88.6799
0
VERTEX
8
CUT
10
81.2214
20
88.9335
0
VERTEX
8
CUT
10
82.4562
20
88.9857
0
VERTEX
8
CUT
10
82.9444
20
89.2202
0
VERTEX
8
CUT
10
85.1820
20
89.5878
0
VERTEX
8
CUT
10
86.5034
20
90.0826
0
VERTEX
8
CUT
10
87.6714
20
90.1244
0
VERTEX
8
CUT
10
88.5887
20
89.5958
0
VERTEX
8
CUT
10
88.6800
20
89.1025
0
VERTEX
8
CUT
10
88.4077
20
88.4612
0
VERTEX
8
CUT
10
88.3374
20
87.1303
0
VERTEX
8
CUT
10
87.7766
20
85.9384
0
VERTEX
8
CUT
10
87.8478
20
85.1043
0
VERTEX
8
CUT
10
88.3780
20
84.7552
0
VERTEX
8
CUT
10
89.6093
20
85.3181
0
VERTEX
8
CUT
10
90.5148
20
85.2848
0
VERTEX
8
CUT
10
90.7378
20
84.9343
0
VERTEX
8
CUT
10
90.7983
20
83.6938
0
VERTEX
8
CUT
10
90.6826
20
81.6768
0
VERTEX
8
CUT
10
90.0498
20
80.2557
0
VERTEX
8
CUT
10
90.1165
20
78.7025
0
VERTEX
8
CUT
10
88.9928
20
75.9941
0
VERTEX
8
CUT
10
89.0041
20
75.2090
0
VERTEX
8
CUT
10
88.9962
20
75.1890
0
VERTEX
8
CUT
10
89.0067
20
75.0291
0
VERTEX
8
CUT
10
89.0171
20
74.3044
0
VERTEX
8
CUT
10
89.0584
20
74.2380
0
VERTEX
8
CUT
10
89.0584
20
74.2375
0
VERTEX
8
CUT
10
89.0590
20
74.2371
0
VERTEX
8
CUT
10
90.0891
20
72.5796
0
VERTEX
8
CUT
10
89.6813
20
71.8516
0
VERTEX
8
CUT
10
88.8539
20
71.5677
0
VERTEX
8
CUT
10
88.6942
20
71.5413
0
VERTEX
8
CUT
10
88.6381
20
71.5320
0
VERTEX
8
CUT
10
88.4725
20
71.5046
0
VERTEX
8
CUT
10
88.2291
20
71.4642
0
VERTEX
8
CUT
10
87.7476
20
71.4645
0
VERTEX
8
CUT
10
87.2880
20
71.5228
0
VERTEX
8
CUT
10
87.1349
20
71.5423
0
VERTEX
8
CUT
10
87.1197
20
71.5442
0
VERTEX
8
CUT
10
87.0748
20
71.5499
0
VERTEX
8
CUT
10
86.9823
20
71.5616
0
VERTEX
8
CUT
10
86.0793
20
72.0014
0
VERTEX
8
CUT
10
84.8364
20
72.0557
0
VERTEX
8
CUT
10
83.4684
20
72.3929
0
VERTEX
8
CUT
10
82.7301
20
72.7999
0
VERTEX
8
CUT
10
81.2960
20
74.0865
0
VERTEX
8
CUT
10
80.6864
20
74.3574
0
VERTEX
8
CUT
10
76.9105
20
72.9780
0
VERTEX
8
CUT
10
74.5840
20
72.4015
0
VERTEX
8
CUT
10
74.1896
20
72.4163
0
VERTEX
8
CUT
10
74.1392
20
72.4181
0
VERTEX
8
CUT
10
73.4648
20
72.4433
0
VERTEX
8
CUT
10
72.6820
20
73.3836
0
VERTEX
8
CUT
10
73.5393
20
74.7030
0
VERTEX
8
CUT
10
73.2812
20
75.2507
0
VERTEX
8
CUT
10
71.2981
20
75.3657
0
VERTEX
8
CUT
10
68.4856
20
75.9893
0
VERTEX
8
CUT
10
68.4393
20
76.0049
0
VERTEX
8
CUT
10
66.0406
20
77.2133
0
VERTEX
8
CUT
10
64.8963
20
78.2615
0
VERTEX
8
CUT
10
64.6352
20
78.6173
0
VERTEX
8
CUT
10
64.6827
20
78.8969
0
VERTEX
8
CUT
10
66.5622
20
80.0298
0
VERTEX
8
CUT
10
66.5369
20
80.7851
0
VERTEX
8
CUT
10
62.7506
20
82.6044
0
VERTEX
8
CUT
10
59.8796
20
84.7916
0
VERTEX
8
CUT
10
59.7881
20
84.8801
0
VERTEX
8
CUT
10
59.4032
20
85.3461
0
VERTEX
8
CUT
10
59.2990
20
85.4906
0
VERTEX
8
CUT
10
59.2791
20
85.5183
0
VERTEX
8
CUT
10
59.1743
20
85.6637
0
VERTEX
8
CUT
10
59.1722
20
85.6668
0
VERTEX
8
CUT
10
59.3131
20
86.1297
0
VERTEX
8
CUT
10
59.7974
20
86.4965
0
VERTEX
8
CUT
10
59.8998
20
86.5247
0
VERTEX
8
CUT
10
61.5312
20
86.6150
0
VERTEX
8
CUT
10
61.8303
20
86.9751
0
VERTEX
8
CUT
10
61.7685
20
87.3519
0
VERTEX
8
CUT
10
60.2953
20
88.4966
0
VERTEX
8
CUT
10
59.0902
20
89.2108
0
VERTEX
8
CUT
10
58.6449
20
89.5436
0
VERTEX
8
CUT
10
58.2656
20
89.8270
0
VERTEX
8
CUT
10
57.9823
20
90.0387
0
VERTEX
8
CUT
10
57.1420
20
90.6667
0
VERTEX
8
CUT
10
54.7736
20
92.6311
0
VERTEX
8
CUT
10
54.6371
20
92.7657
0
VERTEX
8
CUT
10
54.5380
20
92.8635
0
VERTEX
8
CUT
10
54.4709
20
92.9297
0
VERTEX
8
CUT
10
53.8167
20
93.6249
0
VERTEX
8
CUT
10
53.4497
20
94.3814
0
VERTEX
8
CUT
10
53.5441
20
95.2820
0
VERTEX
8
CUT
10
54.7510
20
95.9943
0
VERTEX
8
CUT
10
54.8950
20
96.9104
0
VERTEX
8
CUT
10
54.1376
20
98.0036
0
VERTEX
8
CUT
10
52.1113
20
99.7633
0
VERTEX
8
CUT
10
51.2156
20
100.7924
0
VERTEX
8
CUT
10
49.9371
20
102.3075
0
VERTEX
8
CUT
10
49.2741
20
103.6324
0
VERTEX
8
CUT
10
49.4543
20
104.7226
0
VERTEX
8
CUT
10
48.9038
20
105.8754
0
VERTEX
8
CUT
10
48.4055
20
106.4523
0
VERTEX
8
CUT
10
47.1143
20
108.3602
0
VERTEX
8
CUT
10
46.1969
20
109.7159
0
VERTEX
8
CUT
10
45.4953
20
110.7527
0
VERTEX
8
CUT
10
44.9577
20
111.5470
0
VERTEX
8
CUT
10
44.4934
20
112.2626
0
VERTEX
8
CUT
10
43.2365
20
115.4213
0
VERTEX
8
CUT
10
43.6488
20
116.1233
0
VERTEX
8
CUT
10
44.6637
20
115.9976
0
VERTEX
8
CUT
10
44.9049
20
116.2292
0
VERTEX
8
CUT
10
44.8952
20
116.5284
0
VERTEX
8
CUT
10
43.3944
20
118.6155
0
VERTEX
8
CUT
10
39.5200
20
123.2013
0
VERTEX
8
CUT
10
37.3989
20
126.2259
0
VERTEX
8
CUT
10
37.3897
20
126.2406
0
VERTEX
8
CUT
10
37.3735
20
126.2666
0
VERTEX
8
CUT
10
37.3567
20
126.2934
0
VERTEX
8
CUT
10
37.2343
20
126.4896
0
VERTEX
8
CUT
10
36.3904
20
128.2157
0
VERTEX
8
CUT
10
36.3900
20
129.2064
0
VERTEX
8
CUT
10
36.6291
20
129.4355
0
VERTEX
8
CUT
10
37.1358
20
129.4709
0
VERTEX
8
CUT
10
38.4399
20
128.8988
0
VERTEX
8
CUT
10
38.7557
20
129.1382
0
VERTEX
8
CUT
10
38.7167
20
129.5588
0
VERTEX
8
CUT
10
36.5017
20
132.5753
0
VERTEX
8
CUT
10
34.3966
20
135.5688
0
VERTEX
8
CUT
10
33.4128
20
137.1328
0
VERTEX
8
CUT
10
31.5786
20
141.1156
0
VERTEX
8
CUT
10
31.5628
20
141.1625
0
VERTEX
8
CUT
10
30.8940
20
144.3044
0
VERTEX
8
CUT
10
30.6473
20
144.7951
0
VERTEX
8
CUT
10
30.7798
20
145.2193
0
VERTEX
8
CUT
10
31.0042
20
145.4486
0
VERTEX
8
CUT
10
31.1621
20
145.5820
0
VERTEX
8
CUT
10
31.3360
20
145.5863
0
VERTEX
8
CUT
10
31.4090
20
145.5882
0
VERTEX
8
CUT
10
31.5026
20
145.5905
0
VERTEX
8
CUT
10
31.6882
20
145.5951
0
VERTEX
8
CUT
10
33.7709
20
144.1430
0
VERTEX
8
CUT
10
34.1182
20
144.2558
0
VERTEX
8
CUT
10
34.2299
20
144.6287
0
VERTEX
8
CUT
10
31.8695
20
151.6484
0
VERTEX
8
CUT
10
31.7991
20
152.9695
0
VERTEX
8
CUT
10
31.2507
20
155.4309
0
VERTEX
8
CUT
10
31.2524
20
155.6385
0
VERTEX
8
CUT
10
31.2764
20
157.9040
0
VERTEX
8
CUT
10
31.6972
20
158.4486
0
VERTEX
8
CUT
10
31.8838
20
158.5040
0
VERTEX
8
CUT
10
32.0071
20
158.5253
0
VERTEX
8
CUT
10
32.0986
20
158.5411
0
VERTEX
8
CUT
10
32.1262
20
158.5458
0
VERTEX
8
CUT
10
32.2023
20
158.5589
0
VERTEX
8
CUT
10
33.6461
20
157.7994
0
VERTEX
8
CUT
10
34.6514
20
156.5788
0
VERTEX
8
CUT
10
35.4659
20
156.3721
0
VERTEX
8
CUT
10
35.8445
20
156.5132
0
VERTEX
8
CUT
10
36.0126
20
156.7721
0
VERTEX
8
CUT
10
35.9990
20
157.4995
0
VERTEX
8
CUT
10
35.4925
20
158.4839
0
VERTEX
8
CUT
10
35.0893
20
160.2402
0
VERTEX
8
CUT
10
33.8962
20
162.6275
0
VERTEX
8
CUT
10
32.7612
20
164.3729
0
VERTEX
8
CUT
10
32.3967
20
164.7356
0
VERTEX
8
CUT
10
32.3362
20
164.8163
0
VERTEX
8
CUT
10
31.7932
20
165.3513
0
VERTEX
8
CUT
10
31.7349
20
165.4295
0
VERTEX
8
CUT
10
30.3379
20
166.7884
0
VERTEX
8
CUT
10
30.3225
20
166.8006
0
VERTEX
8
CUT
10
30.2185
20
166.9030
0
VERTEX
8
CUT
10
29.7977
20
167.3217
0
VERTEX
8
CUT
10
25.7962
20
170.5207
0
VERTEX
8
CUT
10
24.6219
20
171.7133
0
VERTEX
8
CUT
10
24.2730
20
172.0715
0
VERTEX
8
CUT
10
23.5205
20
173.1343
0
VERTEX
8
CUT
10
22.9083
20
174.3462
0
VERTEX
8
CUT
10
23.0464
20
174.7819
0
VERTEX
8
CUT
10
23.5995
20
175.0923
0
VERTEX
8
CUT
10
25.2515
20
175.1507
0
VERTEX
8
CUT
10
25.3291
20
175.1329
0
VERTEX
8
CUT
10
25.3621
20
175.1546
0
VERTEX
8
CUT
10
25.6363
20
175.1643
0
VERTEX
8
CUT
10
25.8848
20
175.4527
0
VERTEX
8
CUT
10
25.8810
20
175.7799
0
VERTEX
8
CUT
10
23.1840
20
179.0476
0
VERTEX
8
CUT
10
17.9522
20
184.7082
0
VERTEX
8
CUT
10
17.3595
20
185.7640
0
VERTEX
8
CUT
10
16.2891
20
187.0031
0
VERTEX
8
CUT
10
14.1731
20
191.5227
0
VERTEX
8
CUT
10
14.0840
20
192.9141
0
VERTEX
8
CUT
10
13.2349
20
195.3083
0
VERTEX
8
CUT
10
13.2442
20
195.7558
0
VERTEX
8
CUT
10
13.2832
20
196.0866
0
VERTEX
8
CUT
10
13.5300
20
196.3829
0
VERTEX
8
CUT
10
14.1886
20
196.6531
0
VERTEX
8
CUT
10
14.2161
20
196.6373
0
VERTEX
8
CUT
10
15.8084
20
195.5589
0
VERTEX
8
CUT
10
17.9096
20
194.5104
0
VERTEX
8
CUT
10
19.2036
20
193.0737
0
VERTEX
8
CUT
10
20.5520
20
193.1618
0
VERTEX
8
CUT
10
21.0211
20
193.5714
0
VERTEX
8
CUT
10
20.7457
20
194.2089
0
VERTEX
8
CUT
10
20.6871
20
194.4495
0
VERTEX
8
CUT
10
20.5452
20
194.6732
0
VERTEX
8
CUT
10
20.3887
20
195.0354
0
VERTEX
8
CUT
10
20.0739
20
195.4161
0
VERTEX
8
CUT
10
18.5454
20
197.8258
0
VERTEX
8
CUT
10
18.3753
20
198.1219
0
VERTEX
8
CUT
10
16.8748
20
201.4308
0
VERTEX
8
CUT
10
15.3438
20
206.6509
0
VERTEX
8
CUT
10
15.3326
20
206.7655
0
VERTEX
8
CUT
10
15.2877
20
207.6072
0
VERTEX
8
CUT
10
15.2388
20
207.7252
0
VERTEX
8
CUT
10
15.0716
20
209.4361
0
VERTEX
8
CUT
10
15.1187
20
212.3736
0
SEQEND
0
POLYLINE
8
CUT
66
1
70
1
10
0.0
20
0.0
30
0.0
0
VERTEX
8
CUT
10
134.9391
20
249.5159
0
VERTEX
8
CUT
10
134.9943
20
250.3412
0
VERTEX
8
CUT
10
134.8371
20
253.2186
0
VERTEX
8
CUT
10
134.2046
20
253.1489
0
VERTEX
8
CUT
10
134.1581
20
249.6083
0
VERTEX
8
CUT
10
134.3202
20
249.3821
0
VERTEX
8
CUT
10
134.7688
20
249.3888
0
SEQEND
0
POLYLINE
8
CUT
66
1
70
1
10
0.0
20
0.0
30
0.0
0
VERTEX
8
CUT
10
133.1833
20
259.5694
0
VERTEX
8
CUT
10
133.0069
20
259.3291
0
VERTEX
8
CUT
10
133.4611
20
257.8617
0
VERTEX
8
CUT
10
133.8347
20
255.2791
0
VERTEX
8
CUT
10
134.4926
20
254.7812
0
VERTEX
8
CUT
10
134.6838
20
255.0865
0
VERTEX
8
CUT
10
134.7047
20
256.0177
0
VERTEX
8
CUT
10
134.3576
20
257.8786
0
VERTEX
8
CUT
10
133.4385
20
259.4427
0
SEQEND
0
POLYLINE
8
CUT
66
1
70
1
10
0.0
20
0.0
30
0.0
0
VERTEX
8
CUT
10
129.2008
20
257.9705
0
VERTEX
8
CUT
10
128.6942
20
258.0629
0
VERTEX
8
CUT
10
128.4707
20
257.9009
0
VERTEX
8
CUT
10
128.4222
20
255.4839
0
VERTEX
8
CUT
10
128.5019
20
255.1531
0
VERTEX
8
CUT
10
128.7065
20
255.0663
0
VERTEX
8
CUT
10
129.2533
20
255.5379
0
VERTEX
8
CUT
10
129.5653
20
256.1957
0
VERTEX
8
CUT
10
129.5880
20
256.8036
0
SEQEND
0
POLYLINE
8
CUT
66
1
70
1
10
0.0
20
0.0
30
0.0
0
VERTEX
8
CUT
10
125.9565
20
271.3802
0
VERTEX
8
CUT
10
125.1319
20
272.2617
0
VERTEX
8
CUT
10
124.7055
20
272.4579
0
VERTEX
8
CUT
10
124.5162
20
271.8191
0
VERTEX
8
CUT
10
126.2494
20
268.6852
0
VERTEX
8
CUT
10
127.4638
20
265.3449
0
VERTEX
8
CUT
10
128.0636
20
262.6250
0
VERTEX
8
CUT
10
128.1657
20
260.9313
0
VERTEX
8
CUT
10
128.8513
20
260.8254
0
VERTEX
8
CUT
10
128.9748
20
262.3473
0
VERTEX
8
CUT
10
128.4245
20
264.6458
0
VERTEX
8
CUT
10
128.3486
20
265.9948
0
VERTEX
8
CUT
10
127.4813
20
268.0346
0
VERTEX
8
CUT
10
126.3570
20
269.9185
0
VERTEX
8
CUT
10
126.2520
20
270.7875
0
SEQEND
0
POLYLINE
8
CUT
66
1
70
1
10
0.0
20
0.0
30
0.0
0
VERTEX
8
CUT
10
122.3643
20
269.7827
0
VERTEX
8
CUT
10
121.5488
20
270.8561
0
VERTEX
8
CUT
10
121.4553
20
271.9614
0
VERTEX
8
CUT
10
120.2339
20
275.3251
0
VERTEX
8
CUT
10
118.7325
20
278.3225
0
VERTEX
8
CUT
10
118.0485
20
279.3180
0
VERTEX
8
CUT
10
116.8613
20
280.8227
0
VERTEX
8
CUT
10
115.8872
20
281.4475
0
VERTEX
8
CUT
10
115.6147
20
281.4245
0
VERTEX
8
CUT
10
115.3321
20
280.9581
0
VERTEX
8
CUT
10
117.5236
20
278.3355
0
VERTEX
8
CUT
10
120.5590
20
271.9494
0
VERTEX
8
CUT
10
120.6356
20
271.1672
0
VERTEX
8
CUT
10
121.1651
20
270.1039
0
VERTEX
8
CUT
10
121.2409
20
268.7548
0
VERTEX
8
CUT
10
121.5697
20
268.0548
0
VERTEX
8
CUT
10
121.8904
20
268.0200
0
VERTEX
8
CUT
10
122.3538
20
268.4720
0
SEQEND
0
POLYLINE
8
CUT
66
1
70
1
10
0.0
20
0.0
30
0.0
0
VERTEX
8
CUT
10
111.8154
20
281.4093
0
VERTEX
8
CUT
10
111.8013
20
280.8856
0
VERTEX
8
CUT
10
112.7674
20
278.9573
0
VERTEX
8
CUT
10
113.2433
20
278.7830
0
VERTEX
8
CUT
10
113.7552
20
279.9303
0
VERTEX
8
CUT
10
112.2960
20
281.5274
0
SEQEND
0
POLYLINE
8
CUT
66
1
70
1
10
0.0
20
0.0
30
0.0
0
VERTEX
8
CUT
10
107.9070
20
287.6782
0
VERTEX
8
CUT
10
107.9154
20
287.1715
0
VERTEX
8
CUT
10
110.4113
20
283.4291
0
VERTEX
8
CUT
10
110.9214
20
283.3349
0
VERTEX
8
CUT
10
111.1049
20
283.7225
0
VERTEX
8
CUT
10
110.7493
20
284.5117
0
VERTEX
8
CUT
10
109.5273
20
286.6173
0
VERTEX
8
CUT
10
108.3828
20
287.8120
0
SEQEND
0
POLYLINE
8
CUT
66
1
70
1
10
0.0
20
0.0
30
0.0
0
VERTEX
8
CUT
10
104.2803
20
292.4966
0
VERTEX
8
CUT
10
104.3278
20
291.9605
0
VERTEX
8
CUT
10
106.9356
20
288.4064
0
VERTEX
8
CUT
10
107.2790
20
288.0802
0
VERTEX
8
CUT
10
107.6454
20
288.1097
0
VERTEX
8
CUT
10
107.7676
20
288.6689
0
VERTEX
8
CUT
10
106.8303
20
290.2311
0
VERTEX
8
CUT
10
104.7814
20
292.6398
0
SEQEND
0
POLYLINE
8
CUT
66
1
70
1
10
0.0
20
0.0
30
0.0
0
VERTEX
8
CUT
10
87.6793
20
249.1670
0
VERTEX
8
CUT
10
87.8608
20
249.6973
0
VERTEX
8
CUT
10
87.5277
20
250.1591
0
VERTEX
8
CUT
10
87.3171
20
250.0717
0
VERTEX
8
CUT
10
87.1846
20
249.1801
0
VERTEX
8
CUT
10
86.8148
20
249.2873
0
VERTEX
8
CUT
10
86.2536
20
248.7830
0
VERTEX
8
CUT
10
85.8293
20
248.0197
0
VERTEX
8
CUT
10
85.7792
20
247.3121
0
VERTEX
8
CUT
10
85.9580
20
246.9977
0
VERTEX
8
CUT
10
86.5783
20
247.0508
0
VERTEX
8
CUT
10
87.2220
20
248.0512
0
VERTEX
8
CUT
10
87.3589
20
248.6719
0
VERTEX
8
CUT
10
88.4448
20
248.6085
0
VERTEX
8
CUT
10
88.3241
20
249.0013
0
SEQEND
0
POLYLINE
8
CUT
66
1
70
1
10
0.0
20
0.0
30
0.0
0
VERTEX
8
CUT
10
71.8247
20
255.6805
0
VERTEX
8
CUT
10
72.4334
20
255.1128
0
VERTEX
8
CUT
10
72.7688
20
255.1564
0
VERTEX
8
CUT
10
72.8352
20
255.9246
0
VERTEX
8
CUT
10
72.5032
20
256.7189
0
VERTEX
8
CUT
10
71.4133
20
257.6166
0
VERTEX
8
CUT
10
71.0905
20
258.2971
0
VERTEX
8
CUT
10
70.9865
20
259.1497
0
VERTEX
8
CUT
10
70.6418
20
259.8053
0
VERTEX
8
CUT
10
70.1660
20
260.1698
0
VERTEX
8
CUT
10
69.8941
20
259.8946
0
VERTEX
8
CUT
10
69.8536
20
259.3351
0
SEQEND
0
POLYLINE
8
CUT
66
1
70
1
10
0.0
20
0.0
30
0.0
0
VERTEX
8
CUT
10
55.1385
20
210.6813
0
VERTEX
8
CUT
10
54.7697
20
210.1822
0
VERTEX
8
CUT
10
54.7069
20
208.1654
0
VERTEX
8
CUT
10
54.2682
20
207.5236
0
VERTEX
8
CUT
10
53.4162
20
207.2082
0
VERTEX
8
CUT
10
52.4974
20
207.6836
0
VERTEX
8
CUT
10
51.1562
20
207.7590
0
VERTEX
8
CUT
10
50.1740
20
208.1550
0
VERTEX
8
CUT
10
48.6176
20
207.4566
0
VERTEX
8
CUT
10
46.0878
20
207.0856
0
VERTEX
8
CUT
10
44.3143
20
206.1953
0
VERTEX
8
CUT
10
43.7810
20
205.7104
0
VERTEX
8
CUT
10
43.6520
20
204.0686
0
VERTEX
8
CUT
10
43.7755
20
203.5518
0
VERTEX
8
CUT
10
44.2420
20
203.3571
0
VERTEX
8
CUT
10
44.5180
20
203.6525
0
VERTEX
8
CUT
10
44.5057
20
204.6023
0
VERTEX
8
CUT
10
45.0043
20
205.0472
0
VERTEX
8
CUT
10
46.6104
20
205.3993
0
VERTEX
8
CUT
10
49.0839
20
205.4507
0
VERTEX
8
CUT
10
50.7383
20
205.1954
0
VERTEX
8
CUT
10
50.7414
20
205.0288
0
VERTEX
8
CUT
10
52.8855
20
204.2872
0
VERTEX
8
CUT
10
54.2393
20
203.4570
0
VERTEX
8
CUT
10
54.6394
20
203.4453
0
VERTEX
8
CUT
10
54.8474
20
203.6656
0
VERTEX
8
CUT
10
54.8328
20
203.7050
0
VERTEX
8
CUT
10
55.2034
20
204.3063
0
VERTEX
8
CUT
10
55.2738
20
205.9211
0
VERTEX
8
CUT
10
55.9018
20
207.8321
0
VERTEX
8
CUT
10
56.4040
20
208.7949
0
VERTEX
8
CUT
10
56.8235
20
210.2849
0
VERTEX
8
CUT
10
58.2179
20
212.9975
0
VERTEX
8
CUT
10
58.2119
20
213.4340
0
VERTEX
8
CUT
10
57.9391
20
213.6188
0
VERTEX
8
CUT
10
57.6222
20
213.5285
0
VERTEX
8
CUT
10
56.8099
20
211.8752
0
SEQEND
0
POLYLINE
8
CUT
66
1
70
1
10
0.0
20
0.0
30
0.0
0
VERTEX
8
CUT
10
46.9660
20
200.0225
0
VERTEX
8
CUT
10
45.5543
20
202.3323
0
VERTEX
8
CUT
10
45.2657
20
202.5144
0
VERTEX
8
CUT
10
44.8973
20
202.3431
0
VERTEX
8
CUT
10
44.8480
20
201.7646
0
VERTEX
8
CUT
10
44.6047
20
201.5329
0
VERTEX
8
CUT
10
42.5376
20
201.3906
0
VERTEX
8
CUT
10
40.9637
20
200.8472
0
VERTEX
8
CUT
10
39.3897
20
200.9619
0
VERTEX
8
CUT
10
38.2123
20
200.8263
0
VERTEX
8
CUT
10
36.8722
20
201.1989
0
VERTEX
8
CUT
10
36.1369
20
200.5804
0
VERTEX
8
CUT
10
34.8704
20
200.1045
0
VERTEX
8
CUT
10
34.0724
20
199.1048
0
VERTEX
8
CUT
10
34.5505
20
197.9893
0
VERTEX
8
CUT
10
34.4658
20
197.2437
0
VERTEX
8
CUT
10
35.4430
20
195.9819
0
VERTEX
8
CUT
10
35.2876
20
195.3966
0
VERTEX
8
CUT
10
34.8090
20
195.2000
0
VERTEX
8
CUT
10
34.0333
20
195.5475
0
VERTEX
8
CUT
10
33.3816
20
195.4186
0
VERTEX
8
CUT
10
32.7677
20
195.5301
0
VERTEX
8
CUT
10
31.7485
20
195.0466
0
VERTEX
8
CUT
10
31.3685
20
194.6285
0
VERTEX
8
CUT
10
30.4382
20
194.7332
0
VERTEX
8
CUT
10
30.1731
20
194.5091
0
VERTEX
8
CUT
10
29.3347
20
192.7360
0
VERTEX
8
CUT
10
29.5503
20
191.4080
0
VERTEX
8
CUT
10
30.1424
20
190.5362
0
VERTEX
8
CUT
10
30.4694
20
190.6055
0
VERTEX
8
CUT
10
30.6192
20
190.8645
0
VERTEX
8
CUT
10
30.3142
20
191.7976
0
VERTEX
8
CUT
10
30.4040
20
192.5059
0
VERTEX
8
CUT
10
31.2696
20
193.0573
0
VERTEX
8
CUT
10
34.1805
20
191.7365
0
VERTEX
8
CUT
10
34.1849
20
191.5801
0
VERTEX
8
CUT
10
37.8588
20
190.5250
0
VERTEX
8
CUT
10
38.2449
20
190.6118
0
VERTEX
8
CUT
10
38.5539
20
191.2290
0
VERTEX
8
CUT
10
38.1348
20
191.6794
0
VERTEX
8
CUT
10
38.0548
20
191.6830
0
VERTEX
8
CUT
10
36.7019
20
193.8851
0
VERTEX
8
CUT
10
35.7647
20
197.6045
0
VERTEX
8
CUT
10
35.7572
20
198.7230
0
VERTEX
8
CUT
10
36.1797
20
199.3398
0
VERTEX
8
CUT
10
36.7538
20
199.6523
0
VERTEX
8
CUT
10
38.3771
20
199.1907
0
VERTEX
8
CUT
10
40.3033
20
199.1286
0
VERTEX
8
CUT
10
44.2569
20
199.7571
0
VERTEX
8
CUT
10
46.3303
20
199.4168
0
VERTEX
8
CUT
10
46.8924
20
199.5879
0
SEQEND
0
POLYLINE
8
CUT
66
1
70
1
10
0.0
20
0.0
30
0.0
0
VERTEX
8
CUT
10
42.9023
20
164.4183
0
VERTEX
8
CUT
10
41.9737
20
167.1943
0
VERTEX
8
CUT
10
41.1285
20
168.5858
0
VERTEX
8
CUT
10
40.6585
20
168.2950
0
VERTEX
8
CUT
10
41.2123
20
166.8873
0
VERTEX
8
CUT
10
41.2914
20
165.5394
0
VERTEX
8
CUT
10
42.1069
20
164.2195
0
VERTEX
8
CUT
10
42.1720
20
162.9119
0
VERTEX
8
CUT
10
43.0748
20
159.2841
0
VERTEX
8
CUT
10
43.3057
20
159.0017
0
VERTEX
8
CUT
10
43.6329
20
158.9694
0
VERTEX
8
CUT
10
43.8880
20
159.2717
0
VERTEX
8
CUT
10
43.8181
20
160.1286
0
VERTEX
8
CUT
10
43.5701
20
160.6796
0
SEQEND
0
POLYLINE
8
CUT
66
1
70
1
10
0.0
20
0.0
30
0.0
0
VERTEX
8
CUT
10
31.1727
20
179.3629
0
VERTEX
8
CUT
10
31.2746
20
180.1599
0
VERTEX
8
CUT
10
31.5102
20
180.4748
0
VERTEX
8
CUT
10
33.6830
20
181.3778
0
VERTEX
8
CUT
10
35.0435
20
181.7032
0
VERTEX
8
CUT
10
36.5166
20
181.7510
0
VERTEX
8
CUT
10
36.7933
20
182.1209
0
VERTEX
8
CUT
10
36.6546
20
182.4218
0
VERTEX
8
CUT
10
34.4450
20
184.2091
0
VERTEX
8
CUT
10
34.0969
20
183.9977
0
VERTEX
8
CUT
10
33.8576
20
183.1635
0
VERTEX
8
CUT
10
33.1966
20
182.8416
0
VERTEX
8
CUT
10
32.0931
20
182.9016
0
VERTEX
8
CUT
10
31.4260
20
183.6601
0
VERTEX
8
CUT
10
31.0263
20
183.6808
0
VERTEX
8
CUT
10
30.6565
20
183.2459
0
VERTEX
8
CUT
10
30.6226
20
181.8196
0
VERTEX
8
CUT
10
30.0061
20
181.0238
0
VERTEX
8
CUT
10
30.4670
20
179.4111
0
VERTEX
8
CUT
10
30.8237
20
179.1603
0
SEQEND
0
POLYLINE
8
CUT
66
1
70
1
10
0.0
20
0.0
30
0.0
0
VERTEX
8
CUT
10
31.8064
20
186.3273
0
VERTEX
8
CUT
10
32.3614
20
185.1272
0
VERTEX
8
CUT
10
33.3751
20
185.0143
0
VERTEX
8
CUT
10
33.5379
20
185.5357
0
VERTEX
8
CUT
10
32.1849
20
187.3145
0
VERTEX
8
CUT
10
30.7176
20
190.4754
0
VERTEX
8
CUT
10
30.3448
20
190.4947
0
VERTEX
8
CUT
10
30.1269
20
190.1917
0
VERTEX
8
CUT
10
30.1631
20
188.7395
0
VERTEX
8
CUT
10
30.4780
20
187.8671
0
SEQEND
0
POLYLINE
8
CUT
66
1
70
1
10
0.0
20
0.0
30
0.0
0
VERTEX
8
CUT
10
31.2463
20
178.5081
0
VERTEX
8
CUT
10
31.0324
20
178.2032
0
VERTEX
8
CUT
10
31.0659
20
177.5982
0
VERTEX
8
CUT
10
31.4012
20
176.9197
0
VERTEX
8
CUT
10
32.8915
20
176.0425
0
VERTEX
8
CUT
10
33.4126
20
176.0512
0
VERTEX
8
CUT
10
33.5061
20
176.5872
0
VERTEX
8
CUT
10
31.5843
20
178.5121
0
SEQEND
0
POLYLINE
8
CUT
66
1
70
1
10
0.0
20
0.0
30
0.0
0
VERTEX
8
CUT
10
164.2932
20
215.3660
0
VERTEX
8
CUT
10
165.3440
20
216.1466
0
VERTEX
8
CUT
10
166.4998
20
216.1518
0
VERTEX
8
CUT
10
167.0875
20
215.7028
0
VERTEX
8
CUT
10
167.7552
20
215.7743
0
VERTEX
8
CUT
10
168.1289
20
215.3734
0
VERTEX
8
CUT
10
169.4108
20
215.2617
0
VERTEX
8
CUT
10
169.6092
20
215.0729
0
VERTEX
8
CUT
10
169.6490
20
214.3066
0
VERTEX
8
CUT
10
169.3414
20
213.8921
0
VERTEX
8
CUT
10
169.3521
20
213.1368
0
VERTEX
8
CUT
10
168.9707
20
212.3601
0
VERTEX
8
CUT
10
168.9970
20
211.8943
0
VERTEX
8
CUT
10
168.5714
20
211.4274
0
VERTEX
8
CUT
10
168.6034
20
209.8278
0
VERTEX
8
CUT
10
168.8423
20
209.6422
0
VERTEX
8
CUT
10
170.5258
20
209.3729
0
VERTEX
8
CUT
10
170.7900
20
209.5806
0
VERTEX
8
CUT
10
170.9055
20
210.2299
0
VERTEX
8
CUT
10
171.1788
20
210.4321
0
VERTEX
8
CUT
10
173.2512
20
209.4324
0
VERTEX
8
CUT
10
173.2183
20
208.8252
0
VERTEX
8
CUT
10
172.1932
20
208.5160
0
VERTEX
8
CUT
10
171.5066
20
207.8758
0
VERTEX
8
CUT
10
171.3511
20
207.1980
0
VERTEX
8
CUT
10
171.5564
20
206.9753
0
VERTEX
8
CUT
10
172.2624
20
206.7984
0
VERTEX
8
CUT
10
172.5833
20
206.2400
0
VERTEX
8
CUT
10
173.1985
20
205.8620
0
VERTEX
8
CUT
10
173.3671
20
203.5478
0
VERTEX
8
CUT
10
174.0513
20
202.8894
0
VERTEX
8
CUT
10
174.3838
20
202.9524
0
VERTEX
8
CUT
10
174.8833
20
203.4872
0
VERTEX
8
CUT
10
174.4515
20
204.2050
0
VERTEX
8
CUT
10
174.5780
20
205.6026
0
VERTEX
8
CUT
10
175.1673
20
206.0276
0
VERTEX
8
CUT
10
176.2087
20
205.8310
0
VERTEX
8
CUT
10
176.3119
20
204.6438
0
VERTEX
8
CUT
10
175.8548
20
203.7510
0
VERTEX
8
CUT
10
176.2409
20
203.0048
0
VERTEX
8
CUT
10
176.0135
20
202.0801
0
VERTEX
8
CUT
10
175.6351
20
201.3785
0
VERTEX
8
CUT
10
175.2801
20
201.2165
0
VERTEX
8
CUT
10
174.6474
20
201.5367
0
VERTEX
8
CUT
10
173.8206
20
202.5295
0
VERTEX
8
CUT
10
173.5039
20
202.6200
0
VERTEX
8
CUT
10
171.9913
20
202.2474
0
VERTEX
8
CUT
10
171.5102
20
201.1485
0
VERTEX
8
CUT
10
170.6420
20
201.4023
0
VERTEX
8
CUT
10
170.1524
20
201.3556
0
VERTEX
8
CUT
10
169.9774
20
201.0730
0
VERTEX
8
CUT
10
170.0425
20
200.0474
0
VERTEX
8
CUT
10
170.3616
20
199.7999
0
VERTEX
8
CUT
10
171.7118
20
199.6781
0
VERTEX
8
CUT
10
172.0105
20
199.4630
0
VERTEX
8
CUT
10
171.4110
20
197.4735
0
VERTEX
8
CUT
10
170.5122
20
197.3238
0
VERTEX
8
CUT
10
169.5404
20
197.9302
0
VERTEX
8
CUT
10
169.1305
20
197.6711
0
VERTEX
8
CUT
10
168.8675
20
196.7192
0
VERTEX
8
CUT
10
167.4846
20
196.7274
0
VERTEX
8
CUT
10
166.9799
20
197.4706
0
VERTEX
8
CUT
10
166.3562
20
197.7935
0
VERTEX
8
CUT
10
166.3310
20
198.3783
0
VERTEX
8
CUT
10
165.7148
20
199.8087
0
VERTEX
8
CUT
10
165.9863
20
200.6059
0
VERTEX
8
CUT
10
165.4140
20
201.4123
0
VERTEX
8
CUT
10
163.9007
20
201.7616
0
VERTEX
8
CUT
10
163.4064
20
201.5407
0
VERTEX
8
CUT
10
162.7219
20
201.5438
0
VERTEX
8
CUT
10
162.3015
20
201.9893
0
VERTEX
8
CUT
10
161.3936
20
202.4324
0
VERTEX
8
CUT
10
161.2330
20
202.8989
0
VERTEX
8
CUT
10
161.4889
20
203.4397
0
VERTEX
8
CUT
10
161.5643
20
204.4700
0
VERTEX
8
CUT
10
160.5960
20
204.9812
0
VERTEX
8
CUT
10
160.0167
20
206.1415
0
VERTEX
8
CUT
10
158.4253
20
206.3447
0
VERTEX
8
CUT
10
158.2365
20
206.6076
0
VERTEX
8
CUT
10
158.2009
20
207.2845
0
VERTEX
8
CUT
10
157.7406
20
207.5723
0
VERTEX
8
CUT
10
155.5372
20
207.5041
0
VERTEX
8
CUT
10
154.5686
20
207.8066
0
VERTEX
8
CUT
10
153.8041
20
208.9103
0
VERTEX
8
CUT
10
154.2094
20
210.9981
0
VERTEX
8
CUT
10
154.8625
20
211.6324
0
VERTEX
8
CUT
10
155.7809
20
211.7259
0
VERTEX
8
CUT
10
156.4140
20
212.1200
0
VERTEX
8
CUT
10
156.5843
20
212.7780
0
VERTEX
8
CUT
10
157.2391
20
213.4484
0
VERTEX
8
CUT
10
157.7726
20
213.4331
0
VERTEX
8
CUT
10
157.7402
20
212.5441
0
VERTEX
8
CUT
10
158.2102
20
211.9878
0
VERTEX
8
CUT
10
157.6639
20
210.7312
0
VERTEX
8
CUT
10
157.2876
20
210.3480
0
VERTEX
8
CUT
10
157.2854
20
210.0181
0
VERTEX
8
CUT
10
157.5371
20
209.8049
0
VERTEX
8
CUT
10
157.9996
20
209.8422
0
VERTEX
8
CUT
10
159.3706
20
209.3466
0
VERTEX
8
CUT
10
160.1978
20
210.4104
0
VERTEX
8
CUT
10
161.0403
20
210.5819
0
VERTEX
8
CUT
10
161.4736
20
211.0300
0
VERTEX
8
CUT
10
162.4932
20
210.9870
0
VERTEX
8
CUT
10
162.8844
20
211.1825
0
VERTEX
8
CUT
10
163.0883
20
212.3250
0
VERTEX
8
CUT
10
163.5954
20
213.0294
0
VERTEX
8
CUT
10
163.7388
20
213.9214
0
VERTEX
8
CUT
10
164.1878
20
214.5255
0
SEQEND
0
ENDSEC
0
EOF
