0
SECTION
2
HEADER
9
$ACADVER
1
AC1009
9
$INSUNITS
70
4
0
ENDSEC
0
SECTION
2
TABLES
0
TABLE
2
LAYER
70
1
0
LAYER
2
CUT
70
0
62
7
6
CONTINUOUS
0
ENDTAB
0
ENDSEC
0
SECTION
2
ENTITIES
0
POLYLINE
8
CUT
66
1
70
1
10
0.0
20
0.0
30
0.0
0
VERTEX
8
CUT
10
68.5314
20
259.1482
0
VERTEX
8
CUT
10
69.0663
20
259.8529
0
VERTEX
8
CUT
10
69.4627
20
259.9983
0
VERTEX
8
CUT
10
69.8703
20
259.7147
0
VERTEX
8
CUT
10
69.8793
20
259.6906
0
VERTEX
8
CUT
10
69.8536
20
259.3351
0
VERTEX
8
CUT
10
70.3693
20
258.3790
0
VERTEX
8
CUT
10
70.3880
20
258.3288
0
VERTEX
8
CUT
10
70.5505
20
258.0430
0
VERTEX
8
CUT
10
71.8247
20
255.6805
0
VERTEX
8
CUT
10
71.9710
20
255.5441
0
VERTEX
8
CUT
10
71.9935
20
255.5045
0
VERTEX
8
CUT
10
72.1353
20
255.3909
0
VERTEX
8
CUT
10
72.4334
20
255.1128
0
VERTEX
8
CUT
10
72.7688
20
255.1564
0
VERTEX
8
CUT
10
72.7801
20
255.2865
0
VERTEX
8
CUT
10
72.8079
20
255.3017
0
VERTEX
8
CUT
10
72.8345
20
255.3133
0
VERTEX
8
CUT
10
72.8345
20
255.3164
0
VERTEX
8
CUT
10
72.8879
20
255.3457
0
VERTEX
8
CUT
10
72.9782
20
259.2208
0
VERTEX
8
CUT
10
73.2234
20
259.8997
0
VERTEX
8
CUT
10
73.2716
20
261.9306
0
VERTEX
8
CUT
10
73.5277
20
262.5868
0
VERTEX
8
CUT
10
73.5890
20
263.5872
0
VERTEX
8
CUT
10
74.5146
20
266.9730
0
VERTEX
8
CUT
10
76.3883
20
270.6839
0
VERTEX
8
CUT
10
77.4272
20
271.6662
0
VERTEX
8
CUT
10
78.1409
20
271.7369
0
VERTEX
8
CUT
10
78.1619
20
271.7050
0
VERTEX
8
CUT
10
78.1713
20
271.6907
0
VERTEX
8
CUT
10
78.2197
20
271.6174
0
VERTEX
8
CUT
10
78.3299
20
271.4503
0
VERTEX
8
CUT
10
78.7239
20
270.5235
0
VERTEX
8
CUT
10
78.7698
20
269.9140
0
VERTEX
8
CUT
10
78.7972
20
269.4855
0
VERTEX
8
CUT
10
78.8034
20
269.4677
0
VERTEX
8
CUT
10
78.8329
20
269.0755
0
VERTEX
8
CUT
10
79.1038
20
268.5987
0
VERTEX
8
CUT
10
79.1188
20
268.5553
0
VERTEX
8
CUT
10
79.1356
20
268.5427
0
VERTEX
8
CUT
10
79.2562
20
268.3304
0
VERTEX
8
CUT
10
79.7577
20
268.3696
0
VERTEX
8
CUT
10
80.4249
20
270.0508
0
VERTEX
8
CUT
10
80.5015
20
270.8263
0
VERTEX
8
CUT
10
81.4405
20
273.6287
0
VERTEX
8
CUT
10
83.2341
20
277.2108
0
VERTEX
8
CUT
10
84.8284
20
279.4254
0
VERTEX
8
CUT
10
86.0544
20
280.6577
0
VERTEX
8
CUT
10
86.8107
20
280.7523
0
VERTEX
8
CUT
10
87.1016
20
280.5468
0
VERTEX
8
CUT
10
87.4145
20
279.8824
0
VERTEX
8
CUT
10
87.5313
20
278.4061
0
VERTEX
8
CUT
10
87.8653
20
278.1396
0
VERTEX
8
CUT
10
88.2194
20
278.2428
0
VERTEX
8
CUT
10
89.8387
20
281.4137
0
VERTEX
8
CUT
10
93.2080
20
286.6066
0
VERTEX
8
CUT
10
99.1980
20
294.6757
0
VERTEX
8
CUT
10
99.8165
20
295.2374
0
VERTEX
8
CUT
10
100.4895
20
295.4998
0
VERTEX
8
CUT
10
101.3170
20
295.3893
0
VERTEX
8
CUT
10
101.3300
20
295.3832
0
VERTEX
8
CUT
10
101.3610
20
295.3687
0
VERTEX
8
CUT
10
101.3671
20
295.3659
0
VERTEX
8
CUT
10
101.3741
20
295.3626
0
VERTEX
8
CUT
10
101.6974
20
295.0564
0
VERTEX
8
CUT
10
101.8621
20
294.8947
0
VERTEX
8
CUT
10
102.4958
20
294.2728
0
VERTEX
8
CUT
10
108.0466
20
286.9006
0
VERTEX
8
CUT
10
110.8039
20
282.6374
0
VERTEX
8
CUT
10
112.9730
20
278.3789
0
VERTEX
8
CUT
10
113.3693
20
278.2993
0
VERTEX
8
CUT
10
113.7177
20
278.6822
0
VERTEX
8
CUT
10
113.8402
20
279.8812
0
VERTEX
8
CUT
10
114.1663
20
280.7944
0
VERTEX
8
CUT
10
114.2935
20
280.9131
0
VERTEX
8
CUT
10
114.3603
20
280.9756
0
VERTEX
8
CUT
10
114.6260
20
281.2237
0
VERTEX
8
CUT
10
114.6999
20
281.2927
0
VERTEX
8
CUT
10
114.9407
20
281.3053
0
VERTEX
8
CUT
10
115.2792
20
281.1488
0
VERTEX
8
CUT
10
115.2878
20
281.1449
0
VERTEX
8
CUT
10
115.2897
20
281.1440
0
VERTEX
8
CUT
10
115.2901
20
281.1438
0
VERTEX
8
CUT
10
115.3879
20
281.0501
0
VERTEX
8
CUT
10
115.3321
20
280.9581
0
VERTEX
8
CUT
10
117.5236
20
278.3355
0
VERTEX
8
CUT
10
120.5590
20
271.9494
0
VERTEX
8
CUT
10
120.6356
20
271.1672
0
VERTEX
8
CUT
10
121.1232
20
270.1879
0
VERTEX
8
CUT
10
121.1745
20
269.9354
0
VERTEX
8
CUT
10
121.2409
20
268.7548
0
VERTEX
8
CUT
10
121.5697
20
268.0548
0
VERTEX
8
CUT
10
121.8904
20
268.0200
0
VERTEX
8
CUT
10
121.9665
20
268.0942
0
VERTEX
8
CUT
10
122.0673
20
268.0888
0
VERTEX
8
CUT
10
122.1762
20
268.2988
0
VERTEX
8
CUT
10
122.3538
20
268.4720
0
VERTEX
8
CUT
10
122.3551
20
268.6440
0
VERTEX
8
CUT
10
122.4294
20
268.7871
0
VERTEX
8
CUT
10
123.2283
20
271.8849
0
VERTEX
8
CUT
10
123.2340
20
271.8955
0
VERTEX
8
CUT
10
123.2360
20
271.8991
0
VERTEX
8
CUT
10
123.2390
20
271.9047
0
VERTEX
8
CUT
10
123.2494
20
271.9240
0
VERTEX
8
CUT
10
123.2498
20
271.9247
0
VERTEX
8
CUT
10
123.6134
20
271.9866
0
VERTEX
8
CUT
10
123.8690
20
272.0141
0
VERTEX
8
CUT
10
123.9224
20
272.0198
0
VERTEX
8
CUT
10
123.9546
20
272.0233
0
VERTEX
8
CUT
10
123.9888
20
272.0269
0
VERTEX
8
CUT
10
124.3174
20
271.7780
0
VERTEX
8
CUT
10
124.7200
20
271.4506
0
VERTEX
8
CUT
10
125.4922
20
270.0544
0
VERTEX
8
CUT
10
126.4288
20
268.1917
0
VERTEX
8
CUT
10
127.4638
20
265.3449
0
VERTEX
8
CUT
10
127.9941
20
262.9399
0
VERTEX
8
CUT
10
128.0284
20
262.2976
0
VERTEX
8
CUT
10
128.0967
20
262.0755
0
VERTEX
8
CUT
10
128.1657
20
260.9313
0
VERTEX
8
CUT
10
128.2909
20
260.9120
0
VERTEX
8
CUT
10
128.3674
20
256.5212
0
VERTEX
8
CUT
10
128.3126
20
256.3480
0
VERTEX
8
CUT
10
128.3812
20
255.7278
0
VERTEX
8
CUT
10
128.3873
20
255.3786
0
VERTEX
8
CUT
10
128.4589
20
255.3317
0
VERTEX
8
CUT
10
128.5019
20
255.1531
0
VERTEX
8
CUT
10
128.7065
20
255.0663
0
VERTEX
8
CUT
10
128.9720
20
255.2954
0
VERTEX
8
CUT
10
129.0397
20
255.3254
0
VERTEX
8
CUT
10
129.0789
20
255.3876
0
VERTEX
8
CUT
10
129.2533
20
255.5379
0
VERTEX
8
CUT
10
129.4952
20
256.0481
0
VERTEX
8
CUT
10
130.5628
20
257.7417
0
VERTEX
8
CUT
10
131.3535
20
259.6625
0
VERTEX
8
CUT
10
131.9008
20
260.0371
0
VERTEX
8
CUT
10
132.4432
20
260.0404
0
VERTEX
8
CUT
10
132.7461
20
259.7790
0
VERTEX
8
CUT
10
133.5217
20
257.4430
0
VERTEX
8
CUT
10
133.8347
20
255.2791
0
VERTEX
8
CUT
10
133.9686
20
255.1778
0
VERTEX
8
CUT
10
134.2747
20
253.3340
0
VERTEX
8
CUT
10
134.2749
20
253.1566
0
VERTEX
8
CUT
10
134.2046
20
253.1489
0
VERTEX
8
CUT
10
134.1581
20
249.6083
0
VERTEX
8
CUT
10
134.2801
20
249.4380
0
VERTEX
8
CUT
10
134.2810
20
248.8443
0
VERTEX
8
CUT
10
134.2809
20
248.8333
0
VERTEX
8
CUT
10
134.0365
20
248.1459
0
VERTEX
8
CUT
10
133.9890
20
246.6742
0
VERTEX
8
CUT
10
133.7326
20
246.0448
0
VERTEX
8
CUT
10
133.6713
20
245.0444
0
VERTEX
8
CUT
10
132.4454
20
241.3584
0
VERTEX
8
CUT
10
131.6089
20
239.8161
0
VERTEX
8
CUT
10
131.0756
20
239.5737
0
VERTEX
8
CUT
10
130.5511
20
239.6179
0
VERTEX
8
CUT
10
129.8846
20
239.9928
0
VERTEX
8
CUT
10
129.5724
20
240.3995
0
VERTEX
8
CUT
10
125.7480
20
242.2074
0
VERTEX
8
CUT
10
124.3319
20
242.3004
0
VERTEX
8
CUT
10
122.8831
20
242.9583
0
VERTEX
8
CUT
10
121.5214
20
242.9507
0
VERTEX
8
CUT
10
119.4104
20
243.8596
0
VERTEX
8
CUT
10
118.5133
20
244.7292
0
VERTEX
8
CUT
10
115.5552
20
250.2726
0
VERTEX
8
CUT
10
114.7758
20
251.1113
0
VERTEX
8
CUT
10
113.6972
20
251.2313
0
VERTEX
8
CUT
10
112.6241
20
250.7297
0
VERTEX
8
CUT
10
111.9935
20
251.2076
0
VERTEX
8
CUT
10
109.6299
20
255.7577
0
VERTEX
8
CUT
10
108.9481
20
257.4931
0
VERTEX
8
CUT
10
107.8643
20
259.0171
0
VERTEX
8
CUT
10
107.1094
20
260.5503
0
VERTEX
8
CUT
10
106.3668
20
261.1647
0
VERTEX
8
CUT
10
105.3545
20
260.8435
0
VERTEX
8
CUT
10
104.4490
20
261.1689
0
VERTEX
8
CUT
10
103.9350
20
262.0727
0
VERTEX
8
CUT
10
103.2441
20
264.0976
0
VERTEX
8
CUT
10
101.7268
20
266.5144
0
VERTEX
8
CUT
10
100.8708
20
267.3938
0
VERTEX
8
CUT
10
100.2292
20
267.4626
0
VERTEX
8
CUT
10
99.5165
20
267.1572
0
VERTEX
8
CUT
10
99.2119
20
266.4747
0
VERTEX
8
CUT
10
98.8239
20
264.1748
0
VERTEX
8
CUT
10
98.2090
20
262.9532
0
VERTEX
8
CUT
10
97.4456
20
262.0719
0
VERTEX
8
CUT
10
97.2498
20
261.0534
0
VERTEX
8
CUT
10
96.2042
20
260.6451
0
VERTEX
8
CUT
10
95.5704
20
260.7664
0
VERTEX
8
CUT
10
94.4626
20
260.3092
0
VERTEX
8
CUT
10
93.2272
20
258.1239
0
VERTEX
8
CUT
10
92.8046
20
256.9385
0
VERTEX
8
CUT
10
92.3162
20
256.3045
0
VERTEX
8
CUT
10
92.2559
20
255.3590
0
VERTEX
8
CUT
10
92.0384
20
254.9225
0
VERTEX
8
CUT
10
89.3642
20
251.9771
0
VERTEX
8
CUT
10
87.7146
20
251.3023
0
VERTEX
8
CUT
10
86.4277
20
251.2417
0
VERTEX
8
CUT
10
86.1437
20
251.0802
0
VERTEX
8
CUT
10
85.1106
20
249.6887
0
VERTEX
8
CUT
10
84.7142
20
247.9636
0
VERTEX
8
CUT
10
83.7440
20
245.7620
0
VERTEX
8
CUT
10
82.1841
20
244.1646
0
VERTEX
8
CUT
10
81.3278
20
243.5822
0
VERTEX
8
CUT
10
80.0430
20
243.4210
0
VERTEX
8
CUT
10
78.4741
20
242.7941
0
VERTEX
8
CUT
10
76.1640
20
241.3599
0
VERTEX
8
CUT
10
74.6706
20
241.7544
0
VERTEX
8
CUT
10
73.9307
20
241.1019
0
VERTEX
8
CUT
10
72.2522
20
240.3892
0
VERTEX
8
CUT
10
71.3157
20
238.7503
0
VERTEX
8
CUT
10
70.8113
20
238.6256
0
VERTEX
8
CUT
10
70.2292
20
238.7433
0
VERTEX
8
CUT
10
69.1204
20
240.1423
0
VERTEX
8
CUT
10
67.5867
20
244.7377
0
VERTEX
8
CUT
10
67.5228
20
245.7510
0
VERTEX
8
CUT
10
67.2650
20
246.4811
0
VERTEX
8
CUT
10
67.2165
20
249.3248
0
VERTEX
8
CUT
10
66.9655
20
249.9736
0
VERTEX
8
CUT
10
66.9656
20
250.0037
0
VERTEX
8
CUT
10
66.9656
20
250.0058
0
VERTEX
8
CUT
10
66.9657
20
250.0145
0
VERTEX
8
CUT
10
66.9658
20
250.0623
0
VERTEX
8
CUT
10
67.1325
20
250.6823
0
VERTEX
8
CUT
10
67.2699
20
254.3798
0
VERTEX
8
CUT
10
67.5235
20
255.0935
0
VERTEX
8
CUT
10
67.5874
20
256.3872
0
SEQEND
0
ENDSEC
0
EOF
