0
SECTION
2
HEADER
9
$ACADVER
1
AC1009
9
$INSUNITS
70
4
0
ENDSEC
0
SECTION
2
TABLES
0
TABLE
2
LAYER
70
1
0
LAYER
2
CUT
70
0
62
7
6
CONTINUOUS
0
ENDTAB
0
ENDSEC
0
SECTION
2
ENTITIES
0
POLYLINE
8
CUT
66
1
70
1
10
0.0
20
0.0
30
0.0
0
VERTEX
8
CUT
10
0.0000
20
299.9386
0
VERTEX
8
CUT
10
0.0029
20
299.9971
0
VERTEX
8
CUT
10
0.0614
20
300.0000
0
VERTEX
8
CUT
10
299.9386
20
300.0000
0
VERTEX
8
CUT
10
299.9971
20
299.9971
0
VERTEX
8
CUT
10
300.0000
20
299.9386
0
VERTEX
8
CUT
10
300.0000
20
0.0614
0
VERTEX
8
CUT
10
299.9971
20
0.0029
0
VERTEX
8
CUT
10
299.9386
20
-0.0000
0
VERTEX
8
CUT
10
0.0614
20
-0.0000
0
VERTEX
8
CUT
10
0.0029
20
0.0029
0
VERTEX
8
CUT
10
0.0000
20
0.0614
0
SEQEND
0
POLYLINE
8
CUT
66
1
70
1
10
0.0
20
0.0
30
0.0
0
VERTEX
8
CUT
10
185.0556
20
85.7345
0
VERTEX
8
CUT
10
185.0652
20
85.4785
0
VERTEX
8
CUT
10
185.1011
20
85.2247
0
VERTEX
8
CUT
10
185.9006
20
81.1023
0
VERTEX
8
CUT
10
185.9458
20
80.9101
0
VERTEX
8
CUT
10
186.0060
20
80.7221
0
VERTEX
8
CUT
10
187.0756
20
77.7880
0
VERTEX
8
CUT
10
187.1894
20
77.5242
0
VERTEX
8
CUT
10
188.7591
20
74.3920
0
VERTEX
8
CUT
10
188.8609
20
74.2086
0
VERTEX
8
CUT
10
188.9777
20
74.0343
0
VERTEX
8
CUT
10
191.1782
20
71.0320
0
VERTEX
8
CUT
10
191.2934
20
70.8864
0
VERTEX
8
CUT
10
191.4191
20
70.7498
0
VERTEX
8
CUT
10
192.3964
20
69.7641
0
VERTEX
8
CUT
10
192.6571
20
69.5352
0
VERTEX
8
CUT
10
194.7226
20
67.9623
0
VERTEX
8
CUT
10
194.9094
20
67.8330
0
VERTEX
8
CUT
10
195.1071
20
67.7212
0
VERTEX
8
CUT
10
195.3142
20
67.6278
0
VERTEX
8
CUT
10
197.5055
20
66.7572
0
VERTEX
8
CUT
10
197.7280
20
66.6807
0
VERTEX
8
CUT
10
197.9567
20
66.6255
0
VERTEX
8
CUT
10
198.1896
20
66.5920
0
VERTEX
8
CUT
10
198.4247
20
66.5806
0
VERTEX
8
CUT
10
201.4755
20
66.5758
0
VERTEX
8
CUT
10
201.7099
20
66.5865
0
VERTEX
8
CUT
10
201.9424
20
66.6191
0
VERTEX
8
CUT
10
202.1707
20
66.6733
0
VERTEX
8
CUT
10
202.3930
20
66.7487
0
VERTEX
8
CUT
10
202.6072
20
66.8447
0
VERTEX
8
CUT
10
204.1618
20
67.6305
0
VERTEX
8
CUT
10
204.3915
20
67.7623
0
VERTEX
8
CUT
10
204.6059
20
67.9177
0
VERTEX
8
CUT
10
204.8027
20
68.0949
0
VERTEX
8
CUT
10
205.9547
20
69.2482
0
VERTEX
8
CUT
10
206.1390
20
69.4542
0
VERTEX
8
CUT
10
206.2993
20
69.6794
0
VERTEX
8
CUT
10
206.9914
20
70.7745
0
VERTEX
8
CUT
10
207.0851
20
70.9357
0
VERTEX
8
CUT
10
207.1664
20
71.1034
0
VERTEX
8
CUT
10
208.1722
20
73.3894
0
VERTEX
8
CUT
10
208.2617
20
73.6243
0
VERTEX
8
CUT
10
208.3272
20
73.8669
0
VERTEX
8
CUT
10
208.8037
20
76.0669
0
VERTEX
8
CUT
10
208.8442
20
76.3124
0
VERTEX
8
CUT
10
208.8602
20
76.5606
0
VERTEX
8
CUT
10
208.9023
20
79.5183
0
VERTEX
8
CUT
10
208.9030
20
79.5366
0
VERTEX
8
CUT
10
208.9071
20
79.5745
0
VERTEX
8
CUT
10
208.9147
20
79.6120
0
VERTEX
8
CUT
10
208.9194
20
79.6292
0
VERTEX
8
CUT
10
209.0518
20
80.0689
0
VERTEX
8
CUT
10
209.1109
20
80.3069
0
VERTEX
8
CUT
10
209.1463
20
80.5495
0
VERTEX
8
CUT
10
209.1579
20
80.7945
0
VERTEX
8
CUT
10
209.1559
20
81.7931
0
VERTEX
8
CUT
10
209.1365
20
82.0990
0
VERTEX
8
CUT
10
209.0798
20
82.4003
0
VERTEX
8
CUT
10
206.3030
20
93.3946
0
VERTEX
8
CUT
10
206.2986
20
93.4142
0
VERTEX
8
CUT
10
206.2864
20
93.4967
0
VERTEX
8
CUT
10
206.2850
20
93.5168
0
VERTEX
8
CUT
10
206.2496
20
94.3082
0
VERTEX
8
CUT
10
206.2265
20
94.5535
0
VERTEX
8
CUT
10
206.1793
20
94.7953
0
VERTEX
8
CUT
10
206.1085
20
95.0314
0
VERTEX
8
CUT
10
206.0030
20
95.3292
0
VERTEX
8
CUT
10
205.9964
20
95.3495
0
VERTEX
8
CUT
10
205.9863
20
95.3923
0
VERTEX
8
CUT
10
205.9808
20
95.4359
0
VERTEX
8
CUT
10
205.9798
20
95.4572
0
VERTEX
8
CUT
10
205.9438
20
97.4759
0
VERTEX
8
CUT
10
205.9257
20
97.7345
0
VERTEX
8
CUT
10
205.8809
20
97.9900
0
VERTEX
8
CUT
10
205.8100
20
98.2394
0
VERTEX
8
CUT
10
205.7057
20
98.5447
0
VERTEX
8
CUT
10
205.6993
20
98.5652
0
VERTEX
8
CUT
10
205.6896
20
98.6084
0
VERTEX
8
CUT
10
205.6846
20
98.6525
0
VERTEX
8
CUT
10
205.6839
20
98.6739
0
VERTEX
8
CUT
10
205.6786
20
100.0065
0
VERTEX
8
CUT
10
205.6791
20
100.0269
0
VERTEX
8
CUT
10
205.6832
20
100.0688
0
VERTEX
8
CUT
10
205.6917
20
100.1101
0
VERTEX
8
CUT
10
205.6973
20
100.1297
0
VERTEX
8
CUT
10
205.8383
20
100.5783
0
VERTEX
8
CUT
10
205.8962
20
100.7962
0
VERTEX
8
CUT
10
205.9342
20
101.0184
0
VERTEX
8
CUT
10
205.9520
20
101.2431
0
VERTEX
8
CUT
10
205.9998
20
102.6450
0
VERTEX
8
CUT
10
206.0011
20
102.6659
0
VERTEX
8
CUT
10
206.0131
20
102.7518
0
VERTEX
8
CUT
10
206.0177
20
102.7722
0
VERTEX
8
CUT
10
206.8895
20
106.2605
0
VERTEX
8
CUT
10
206.8940
20
106.2768
0
VERTEX
8
CUT
10
206.9166
20
106.3430
0
VERTEX
8
CUT
10
206.9231
20
106.3586
0
VERTEX
8
CUT
10
208.0559
20
108.9313
0
VERTEX
8
CUT
10
208.0894
20
109.0012
0
VERTEX
8
CUT
10
208.1272
20
109.0688
0
VERTEX
8
CUT
10
209.9819
20
112.1529
0
VERTEX
8
CUT
10
210.0744
20
112.3211
0
VERTEX
8
CUT
10
211.3733
20
114.9123
0
VERTEX
8
CUT
10
211.4593
20
115.1037
0
VERTEX
8
CUT
10
211.5290
20
115.3016
0
VERTEX
8
CUT
10
212.5377
20
118.6004
0
VERTEX
8
CUT
10
212.5983
20
118.8403
0
VERTEX
8
CUT
10
212.6348
20
119.0850
0
VERTEX
8
CUT
10
212.6470
20
119.3321
0
VERTEX
8
CUT
10
212.6460
20
122.7313
0
VERTEX
8
CUT
10
212.6327
20
122.9883
0
VERTEX
8
CUT
10
212.5930
20
123.2426
0
VERTEX
8
CUT
10
212.5274
20
123.4915
0
VERTEX
8
CUT
10
212.2117
20
124.4795
0
VERTEX
8
CUT
10
212.1134
20
124.7371
0
VERTEX
8
CUT
10
211.9874
20
124.9823
0
VERTEX
8
CUT
10
211.8351
20
125.2122
0
VERTEX
8
CUT
10
211.7233
20
125.3622
0
VERTEX
8
CUT
10
211.5602
20
125.5592
0
VERTEX
8
CUT
10
211.3779
20
125.7385
0
VERTEX
8
CUT
10
211.1781
20
125.8983
0
VERTEX
8
CUT
10
210.9631
20
126.0368
0
VERTEX
8
CUT
10
210.7350
20
126.1526
0
VERTEX
8
CUT
10
210.4964
20
126.2445
0
VERTEX
8
CUT
10
210.2495
20
126.3115
0
VERTEX
8
CUT
10
209.9971
20
126.3530
0
VERTEX
8
CUT
10
209.7418
20
126.3684
0
VERTEX
8
CUT
10
209.6862
20
126.3689
0
VERTEX
8
CUT
10
209.4587
20
126.3607
0
VERTEX
8
CUT
10
209.2329
20
126.3318
0
VERTEX
8
CUT
10
209.0107
20
126.2825
0
VERTEX
8
CUT
10
208.7939
20
126.2132
0
VERTEX
8
CUT
10
207.9216
20
125.8898
0
VERTEX
8
CUT
10
207.7193
20
125.8045
0
VERTEX
8
CUT
10
207.5253
20
125.7018
0
VERTEX
8
CUT
10
207.3410
20
125.5825
0
VERTEX
8
CUT
10
205.6644
20
124.3894
0
VERTEX
8
CUT
10
205.4324
20
124.2025
0
VERTEX
8
CUT
10
205.2243
20
123.9893
0
VERTEX
8
CUT
10
203.3479
20
121.8231
0
VERTEX
8
CUT
10
203.1330
20
121.5355
0
VERTEX
8
CUT
10
201.2246
20
118.5586
0
VERTEX
8
CUT
10
201.0743
20
118.2886
0
VERTEX
8
CUT
10
198.0099
20
111.8858
0
VERTEX
8
CUT
10
197.9037
20
111.6279
0
VERTEX
8
CUT
10
197.5442
20
110.5944
0
VERTEX
8
CUT
10
197.5382
20
110.5781
0
VERTEX
8
CUT
10
197.5087
20
110.5126
0
VERTEX
8
CUT
10
197.5006
20
110.4972
0
VERTEX
8
CUT
10
194.6213
20
105.3416
0
VERTEX
8
CUT
10
194.5785
20
105.2707
0
VERTEX
8
CUT
10
194.5310
20
105.2029
0
VERTEX
8
CUT
10
190.9129
20
100.3915
0
VERTEX
8
CUT
10
190.9017
20
100.3773
0
VERTEX
8
CUT
10
190.8765
20
100.3495
0
VERTEX
8
CUT
10
190.8487
20
100.3240
0
VERTEX
8
CUT
10
190.8350
20
100.3130
0
VERTEX
8
CUT
10
190.0081
20
99.6818
0
VERTEX
8
CUT
10
189.7826
20
99.4872
0
VERTEX
8
CUT
10
189.5818
20
99.2673
0
VERTEX
8
CUT
10
188.6253
20
98.0853
0
VERTEX
8
CUT
10
188.6221
20
98.0814
0
VERTEX
8
CUT
10
188.5707
20
98.0266
0
VERTEX
8
CUT
10
188.5578
20
98.0143
0
VERTEX
8
CUT
10
186.6517
20
96.2824
0
VERTEX
8
CUT
10
186.4908
20
96.1223
0
VERTEX
8
CUT
10
186.3450
20
95.9481
0
VERTEX
8
CUT
10
186.2157
20
95.7615
0
VERTEX
8
CUT
10
186.1038
20
95.5639
0
VERTEX
8
CUT
10
186.0103
20
95.3569
0
VERTEX
8
CUT
10
185.7395
20
94.6767
0
VERTEX
8
CUT
10
185.6490
20
94.4054
0
VERTEX
8
CUT
10
185.5902
20
94.1255
0
VERTEX
8
CUT
10
185.1534
20
91.2349
0
VERTEX
8
CUT
10
185.1255
20
90.8952
0
SEQEND
0
POLYLINE
8
CUT
66
1
70
1
10
0.0
20
0.0
30
0.0
0
VERTEX
8
CUT
10
144.9678
20
130.4680
0
VERTEX
8
CUT
10
144.7600
20
130.3370
0
VERTEX
8
CUT
10
144.5660
20
130.1862
0
VERTEX
8
CUT
10
144.3878
20
130.0171
0
VERTEX
8
CUT
10
144.2270
20
129.8314
0
VERTEX
8
CUT
10
144.0852
20
129.6307
0
VERTEX
8
CUT
10
143.9638
20
129.4171
0
VERTEX
8
CUT
10
143.8640
20
129.1926
0
VERTEX
8
CUT
10
143.7867
20
128.9595
0
VERTEX
8
CUT
10
143.7326
20
128.7198
0
VERTEX
8
CUT
10
143.7023
20
128.4760
0
VERTEX
8
CUT
10
143.6961
20
128.2304
0
VERTEX
8
CUT
10
143.7140
20
127.9854
0
VERTEX
8
CUT
10
143.7559
20
127.7433
0
VERTEX
8
CUT
10
143.8214
20
127.5065
0
VERTEX
8
CUT
10
143.9098
20
127.2772
0
VERTEX
8
CUT
10
144.0202
20
127.0578
0
VERTEX
8
CUT
10
144.1517
20
126.8502
0
VERTEX
8
CUT
10
144.3029
20
126.6566
0
VERTEX
8
CUT
10
144.4724
20
126.4787
0
VERTEX
8
CUT
10
144.6585
20
126.3184
0
VERTEX
8
CUT
10
144.8595
20
126.1770
0
VERTEX
8
CUT
10
145.0733
20
126.0561
0
VERTEX
8
CUT
10
145.2980
20
125.9567
0
VERTEX
8
CUT
10
145.5314
20
125.8799
0
VERTEX
8
CUT
10
145.7712
20
125.8264
0
VERTEX
8
CUT
10
146.0150
20
125.7967
0
VERTEX
8
CUT
10
146.2607
20
125.7910
0
VERTEX
8
CUT
10
146.5056
20
125.8095
0
VERTEX
8
CUT
10
146.7476
20
125.8519
0
VERTEX
8
CUT
10
146.9843
20
125.9179
0
VERTEX
8
CUT
10
146.9900
20
125.9198
0
VERTEX
8
CUT
10
147.2256
20
126.0116
0
VERTEX
8
CUT
10
155.3077
20
129.6426
0
VERTEX
8
CUT
10
155.3643
20
129.6663
0
VERTEX
8
CUT
10
155.4221
20
129.6872
0
VERTEX
8
CUT
10
157.0428
20
130.2276
0
VERTEX
8
CUT
10
157.2751
20
130.3182
0
VERTEX
8
CUT
10
157.4972
20
130.4314
0
VERTEX
8
CUT
10
157.7070
20
130.5662
0
VERTEX
8
CUT
10
157.9022
20
130.7213
0
VERTEX
8
CUT
10
158.0811
20
130.8950
0
VERTEX
8
CUT
10
158.2418
20
131.0857
0
VERTEX
8
CUT
10
158.3826
20
131.2914
0
VERTEX
8
CUT
10
158.5023
20
131.5101
0
VERTEX
8
CUT
10
158.5996
20
131.7397
0
VERTEX
8
CUT
10
158.6736
20
131.9778
0
VERTEX
8
CUT
10
158.7234
20
132.2221
0
VERTEX
8
CUT
10
158.7487
20
132.4702
0
VERTEX
8
CUT
10
158.7491
20
132.7195
0
VERTEX
8
CUT
10
158.7247
20
132.9676
0
VERTEX
8
CUT
10
158.6757
20
133.2121
0
VERTEX
8
CUT
10
158.6026
20
133.4505
0
VERTEX
8
CUT
10
158.5062
20
133.6804
0
VERTEX
8
CUT
10
158.3873
20
133.8995
0
VERTEX
8
CUT
10
158.2471
20
134.1058
0
VERTEX
8
CUT
10
158.0871
20
134.2970
0
VERTEX
8
CUT
10
157.9089
20
134.4714
0
VERTEX
8
CUT
10
157.7142
20
134.6271
0
VERTEX
8
CUT
10
157.5049
20
134.7626
0
VERTEX
8
CUT
10
156.9834
20
135.0647
0
VERTEX
8
CUT
10
156.9687
20
135.0736
0
VERTEX
8
CUT
10
156.9394
20
135.0941
0
VERTEX
8
CUT
10
156.9120
20
135.1172
0
VERTEX
8
CUT
10
156.8999
20
135.1288
0
VERTEX
8
CUT
10
154.7354
20
137.2942
0
VERTEX
8
CUT
10
154.5544
20
137.4583
0
VERTEX
8
CUT
10
154.3583
20
137.6040
0
VERTEX
8
CUT
10
154.1490
20
137.7299
0
VERTEX
8
CUT
10
153.9283
20
137.8347
0
VERTEX
8
CUT
10
153.6985
20
137.9175
0
VERTEX
8
CUT
10
153.4617
20
137.9774
0
VERTEX
8
CUT
10
153.2202
20
138.0140
0
VERTEX
8
CUT
10
152.9762
20
138.0268
0
VERTEX
8
CUT
10
152.7322
20
138.0157
0
VERTEX
8
CUT
10
152.4904
20
137.9809
0
VERTEX
8
CUT
10
152.2532
20
137.9227
0
VERTEX
8
CUT
10
152.0228
20
137.8415
0
VERTEX
8
CUT
10
151.8014
20
137.7383
0
VERTEX
8
CUT
10
151.5911
20
137.6140
0
VERTEX
8
CUT
10
151.3940
20
137.4697
0
VERTEX
8
CUT
10
151.2119
20
137.3069
0
VERTEX
8
CUT
10
151.0465
20
137.1271
0
VERTEX
8
CUT
10
150.8995
20
136.9320
0
VERTEX
8
CUT
10
150.7722
20
136.7235
0
VERTEX
8
CUT
10
150.6659
20
136.5035
0
VERTEX
8
CUT
10
150.5816
20
136.2743
0
VERTEX
8
CUT
10
150.5200
20
136.0379
0
VERTEX
8
CUT
10
150.4818
20
135.7966
0
VERTEX
8
CUT
10
150.4674
20
135.5528
0
VERTEX
8
CUT
10
150.4527
20
134.1400
0
VERTEX
8
CUT
10
150.4521
20
134.1216
0
VERTEX
8
CUT
10
150.4481
20
134.0840
0
VERTEX
8
CUT
10
150.4277
20
134.0523
0
VERTEX
8
CUT
10
150.4166
20
134.0375
0
VERTEX
8
CUT
10
149.9502
20
133.4445
0
VERTEX
8
CUT
10
149.9376
20
133.4293
0
VERTEX
8
CUT
10
149.9093
20
133.3999
0
VERTEX
8
CUT
10
149.8782
20
133.3734
0
VERTEX
8
CUT
10
149.8622
20
133.3617
0
VERTEX
8
CUT
10
148.8552
20
132.6651
0
VERTEX
8
CUT
10
148.8081
20
132.6341
0
VERTEX
8
CUT
10
148.7598
20
132.6054
0
SEQEND
0
POLYLINE
8
CUT
66
1
70
1
10
0.0
20
0.0
30
0.0
0
VERTEX
8
CUT
10
127.6346
20
135.1919
0
VERTEX
8
CUT
10
127.6453
20
135.1598
0
VERTEX
8
CUT
10
127.6503
20
135.1229
0
VERTEX
8
CUT
10
127.6516
20
135.1045
0
VERTEX
8
CUT
10
127.6929
20
134.1807
0
VERTEX
8
CUT
10
127.7158
20
133.9370
0
VERTEX
8
CUT
10
127.7625
20
133.6967
0
VERTEX
8
CUT
10
127.9695
20
132.8531
0
VERTEX
8
CUT
10
128.0428
20
132.6089
0
VERTEX
8
CUT
10
128.5377
20
131.2218
0
VERTEX
8
CUT
10
128.5434
20
131.2043
0
VERTEX
8
CUT
10
128.5527
20
131.1677
0
VERTEX
8
CUT
10
128.5446
20
131.1309
0
VERTEX
8
CUT
10
128.5393
20
131.1133
0
VERTEX
8
CUT
10
128.3640
20
130.5700
0
VERTEX
8
CUT
10
128.3578
20
130.5522
0
VERTEX
8
CUT
10
128.3425
20
130.5170
0
VERTEX
8
CUT
10
128.3086
20
130.4989
0
VERTEX
8
CUT
10
128.2914
20
130.4913
0
VERTEX
8
CUT
10
127.8432
20
130.3055
0
VERTEX
8
CUT
10
127.8246
20
130.2984
0
VERTEX
8
CUT
10
127.7846
20
130.2864
0
VERTEX
8
CUT
10
127.7662
20
130.2829
0
VERTEX
8
CUT
10
127.5271
20
130.2251
0
VERTEX
8
CUT
10
127.2948
20
130.1440
0
VERTEX
8
CUT
10
127.0717
20
130.0405
0
VERTEX
8
CUT
10
126.8598
20
129.9155
0
VERTEX
8
CUT
10
126.6612
20
129.7704
0
VERTEX
8
CUT
10
126.4778
20
129.6064
0
VERTEX
8
CUT
10
126.3115
20
129.4252
0
VERTEX
8
CUT
10
126.1637
20
129.2285
0
VERTEX
8
CUT
10
126.0360
20
129.0183
0
VERTEX
8
CUT
10
125.9296
20
128.7965
0
VERTEX
8
CUT
10
125.8455
20
128.5653
0
VERTEX
8
CUT
10
125.7845
20
128.3270
0
VERTEX
8
CUT
10
125.7472
20
128.0839
0
VERTEX
8
CUT
10
125.7340
20
127.8383
0
VERTEX
8
CUT
10
125.7450
20
127.5925
0
VERTEX
8
CUT
10
125.7801
20
127.3491
0
VERTEX
8
CUT
10
125.8389
20
127.1102
0
VERTEX
8
CUT
10
125.9210
20
126.8783
0
VERTEX
8
CUT
10
126.0254
20
126.6556
0
VERTEX
8
CUT
10
126.1512
20
126.4442
0
VERTEX
8
CUT
10
126.2972
20
126.2462
0
VERTEX
8
CUT
10
126.4620
20
126.0635
0
VERTEX
8
CUT
10
126.6439
20
125.8979
0
VERTEX
8
CUT
10
126.8411
20
125.7510
0
VERTEX
8
CUT
10
127.0519
20
125.6242
0
VERTEX
8
CUT
10
128.4163
20
124.8920
0
VERTEX
8
CUT
10
128.6111
20
124.7981
0
VERTEX
8
CUT
10
128.8133
20
124.7214
0
VERTEX
8
CUT
10
130.2388
20
124.2499
0
VERTEX
8
CUT
10
130.5722
20
124.1646
0
VERTEX
8
CUT
10
133.3921
20
123.6465
0
VERTEX
8
CUT
10
133.6195
20
123.6154
0
VERTEX
8
CUT
10
133.8488
20
123.6053
0
VERTEX
8
CUT
10
138.0215
20
123.6136
0
VERTEX
8
CUT
10
138.2395
20
123.6235
0
VERTEX
8
CUT
10
138.4558
20
123.6525
0
VERTEX
8
CUT
10
138.6687
20
123.7001
0
VERTEX
8
CUT
10
138.8767
20
123.7662
0
VERTEX
8
CUT
10
139.0298
20
123.8223
0
VERTEX
8
CUT
10
139.0508
20
123.8293
0
VERTEX
8
CUT
10
139.1590
20
123.8558
0
VERTEX
8
CUT
10
139.3648
20
123.8985
0
VERTEX
8
CUT
10
139.5977
20
123.9712
0
VERTEX
8
CUT
10
139.8223
20
124.0662
0
VERTEX
8
CUT
10
140.0367
20
124.1826
0
VERTEX
8
CUT
10
140.2386
20
124.3194
0
VERTEX
8
CUT
10
140.4263
20
124.4752
0
VERTEX
8
CUT
10
140.5979
20
124.6485
0
VERTEX
8
CUT
10
140.7518
20
124.8378
0
VERTEX
8
CUT
10
140.8865
20
125.0411
0
VERTEX
8
CUT
10
141.0007
20
125.2566
0
VERTEX
8
CUT
10
141.0934
20
125.4822
0
VERTEX
8
CUT
10
141.1637
20
125.7158
0
VERTEX
8
CUT
10
141.2109
20
125.9551
0
VERTEX
8
CUT
10
141.2346
20
126.1979
0
VERTEX
8
CUT
10
141.2344
20
126.4418
0
VERTEX
8
CUT
10
141.2105
20
126.6845
0
VERTEX
8
CUT
10
141.1631
20
126.9238
0
VERTEX
8
CUT
10
141.0926
20
127.1573
0
VERTEX
8
CUT
10
140.9996
20
127.3828
0
VERTEX
8
CUT
10
140.8852
20
127.5982
0
VERTEX
8
CUT
10
140.7502
20
127.8014
0
VERTEX
8
CUT
10
140.5962
20
127.9904
0
VERTEX
8
CUT
10
140.4244
20
128.1636
0
VERTEX
8
CUT
10
140.2366
20
128.3192
0
VERTEX
8
CUT
10
140.0345
20
128.4558
0
VERTEX
8
CUT
10
139.8200
20
128.5720
0
VERTEX
8
CUT
10
139.5953
20
128.6668
0
VERTEX
8
CUT
10
139.3623
20
128.7392
0
VERTEX
8
CUT
10
139.1235
20
128.7886
0
VERTEX
8
CUT
10
138.8809
20
128.8144
0
VERTEX
8
CUT
10
138.3275
20
128.8462
0
VERTEX
8
CUT
10
138.3088
20
128.8478
0
VERTEX
8
CUT
10
138.2710
20
128.8536
0
VERTEX
8
CUT
10
138.2479
20
128.8841
0
VERTEX
8
CUT
10
138.2377
20
128.8999
0
VERTEX
8
CUT
10
137.8423
20
129.5446
0
VERTEX
8
CUT
10
137.8325
20
129.5616
0
VERTEX
8
CUT
10
137.8151
20
129.5976
0
VERTEX
8
CUT
10
137.8252
20
129.6363
0
VERTEX
8
CUT
10
137.8315
20
129.6549
0
VERTEX
8
CUT
10
138.5408
20
131.5700
0
VERTEX
8
CUT
10
138.6273
20
131.8545
0
VERTEX
8
CUT
10
138.6794
20
132.1474
0
VERTEX
8
CUT
10
138.9457
20
134.4207
0
VERTEX
8
CUT
10
138.9625
20
134.7381
0
VERTEX
8
CUT
10
138.9402
20
136.8387
0
VERTEX
8
CUT
10
138.9274
20
137.0666
0
VERTEX
8
CUT
10
138.8938
20
137.2923
0
VERTEX
8
CUT
10
138.3829
20
139.9028
0
VERTEX
8
CUT
10
138.3363
20
140.0988
0
VERTEX
8
CUT
10
138.2741
20
140.2903
0
VERTEX
8
CUT
10
137.5658
20
142.2043
0
VERTEX
8
CUT
10
137.4715
20
142.4258
0
VERTEX
8
CUT
10
137.3564
20
142.6371
0
VERTEX
8
CUT
10
136.2760
20
144.4110
0
VERTEX
8
CUT
10
136.1592
20
144.5858
0
VERTEX
8
CUT
10
136.0282
20
144.7501
0
VERTEX
8
CUT
10
135.8838
20
144.9029
0
VERTEX
8
CUT
10
134.7669
20
145.9891
0
VERTEX
8
CUT
10
134.5780
20
146.1552
0
VERTEX
8
CUT
10
134.3732
20
146.3014
0
VERTEX
8
CUT
10
134.1549
20
146.4264
0
VERTEX
8
CUT
10
134.0258
20
146.4919
0
VERTEX
8
CUT
10
133.8118
20
146.5881
0
VERTEX
8
CUT
10
133.5898
20
146.6638
0
VERTEX
8
CUT
10
133.3617
20
146.7183
0
VERTEX
8
CUT
10
133.1295
20
146.7513
0
VERTEX
8
CUT
10
132.8952
20
146.7623
0
VERTEX
8
CUT
10
132.6608
20
146.7513
0
VERTEX
8
CUT
10
132.4286
20
146.7184
0
VERTEX
8
CUT
10
132.2005
20
146.6639
0
VERTEX
8
CUT
10
131.9784
20
146.5883
0
VERTEX
8
CUT
10
131.7645
20
146.4922
0
VERTEX
8
CUT
10
131.5829
20
146.4001
0
VERTEX
8
CUT
10
131.3600
20
146.2723
0
VERTEX
8
CUT
10
131.1514
20
146.1223
0
VERTEX
8
CUT
10
130.9593
20
145.9517
0
VERTEX
8
CUT
10
129.6749
20
144.6871
0
VERTEX
8
CUT
10
129.5248
20
144.5257
0
VERTEX
8
CUT
10
129.3896
20
144.3517
0
VERTEX
8
CUT
10
129.2701
20
144.1665
0
VERTEX
8
CUT
10
129.1675
20
143.9715
0
VERTEX
8
CUT
10
128.4311
20
142.4090
0
VERTEX
8
CUT
10
128.3497
20
142.2155
0
VERTEX
8
CUT
10
128.2848
20
142.0159
0
VERTEX
8
CUT
10
128.2368
20
141.8116
0
VERTEX
8
CUT
10
127.9453
20
140.2831
0
VERTEX
8
CUT
10
127.9264
20
140.1999
0
VERTEX
8
CUT
10
127.9018
20
140.1183
0
VERTEX
8
CUT
10
127.5403
20
139.0556
0
VERTEX
8
CUT
10
127.4656
20
138.7879
0
VERTEX
8
CUT
10
127.4210
20
138.5135
0
VERTEX
8
CUT
10
127.4072
20
138.2358
0
VERTEX
8
CUT
10
127.4193
20
136.1943
0
VERTEX
8
CUT
10
127.4324
20
135.9526
0
VERTEX
8
CUT
10
127.4689
20
135.7134
0
VERTEX
8
CUT
10
127.5283
20
135.4788
0
VERTEX
8
CUT
10
127.6101
20
135.2510
0
SEQEND
0
POLYLINE
8
CUT
66
1
70
1
10
0.0
20
0.0
30
0.0
0
VERTEX
8
CUT
10
109.9796
20
146.7910
0
VERTEX
8
CUT
10
110.0026
20
146.7600
0
VERTEX
8
CUT
10
112.8866
20
142.7577
0
VERTEX
8
CUT
10
112.9118
20
142.7215
0
VERTEX
8
CUT
10
112.9356
20
142.6843
0
VERTEX
8
CUT
10
115.2868
20
138.8697
0
VERTEX
8
CUT
10
115.3055
20
138.8382
0
VERTEX
8
CUT
10
115.3233
20
138.8061
0
VERTEX
8
CUT
10
115.8669
20
137.7932
0
VERTEX
8
CUT
10
115.9936
20
137.5826
0
VERTEX
8
CUT
10
116.1403
20
137.3855
0
VERTEX
8
CUT
10
116.3057
20
137.2037
0
VERTEX
8
CUT
10
116.4882
20
137.0391
0
VERTEX
8
CUT
10
116.6859
20
136.8932
0
VERTEX
8
CUT
10
116.8971
20
136.7673
0
VERTEX
8
CUT
10
117.1195
20
136.6629
0
VERTEX
8
CUT
10
117.3511
20
136.5807
0
VERTEX
8
CUT
10
117.5897
20
136.5218
0
VERTEX
8
CUT
10
117.8329
20
136.4865
0
VERTEX
8
CUT
10
118.0784
20
136.4752
0
VERTEX
8
CUT
10
118.3239
20
136.4882
0
VERTEX
8
CUT
10
118.5668
20
136.5251
0
VERTEX
8
CUT
10
118.8050
20
136.5858
0
VERTEX
8
CUT
10
119.0361
20
136.6695
0
VERTEX
8
CUT
10
119.2578
20
136.7755
0
VERTEX
8
CUT
10
119.4680
20
136.9028
0
VERTEX
8
CUT
10
119.6647
20
137.0501
0
VERTEX
8
CUT
10
119.8461
20
137.2160
0
VERTEX
8
CUT
10
120.0102
20
137.3989
0
VERTEX
8
CUT
10
120.1556
20
137.5971
0
VERTEX
8
CUT
10
120.2808
20
137.8085
0
VERTEX
8
CUT
10
120.3847
20
138.0313
0
VERTEX
8
CUT
10
120.4662
20
138.2631
0
VERTEX
8
CUT
10
120.5245
20
138.5018
0
VERTEX
8
CUT
10
120.5592
20
138.7452
0
VERTEX
8
CUT
10
120.5697
20
138.9907
0
VERTEX
8
CUT
10
120.5504
20
142.1212
0
VERTEX
8
CUT
10
120.5507
20
142.1394
0
VERTEX
8
CUT
10
120.5539
20
142.1772
0
VERTEX
8
CUT
10
120.5607
20
142.2147
0
VERTEX
8
CUT
10
120.5650
20
142.2319
0
VERTEX
8
CUT
10
121.4583
20
145.4542
0
VERTEX
8
CUT
10
121.4642
20
145.4734
0
VERTEX
8
CUT
10
121.4944
20
145.5510
0
VERTEX
8
CUT
10
121.5031
20
145.5691
0
VERTEX
8
CUT
10
122.1158
20
146.7669
0
VERTEX
8
CUT
10
122.1272
20
146.7875
0
VERTEX
8
CUT
10
122.1815
20
146.8684
0
VERTEX
8
CUT
10
122.1963
20
146.8867
0
VERTEX
8
CUT
10
122.6143
20
147.3729
0
VERTEX
8
CUT
10
122.7667
20
147.5691
0
VERTEX
8
CUT
10
122.8988
20
147.7794
0
VERTEX
8
CUT
10
123.0094
20
148.0018
0
VERTEX
8
CUT
10
123.0975
20
148.2341
0
VERTEX
8
CUT
10
123.1620
20
148.4739
0
VERTEX
8
CUT
10
123.2024
20
148.7190
0
VERTEX
8
CUT
10
123.2183
20
148.9669
0
VERTEX
8
CUT
10
123.2095
20
149.2152
0
VERTEX
8
CUT
10
123.1761
20
149.4613
0
VERTEX
8
CUT
10
123.1184
20
149.7029
0
VERTEX
8
CUT
10
123.0371
20
149.9376
0
VERTEX
8
CUT
10
122.9329
20
150.1631
0
VERTEX
8
CUT
10
122.8068
20
150.3771
0
VERTEX
8
CUT
10
122.6601
20
150.5775
0
VERTEX
8
CUT
10
122.4942
20
150.7624
0
VERTEX
8
CUT
10
122.3108
20
150.9300
0
VERTEX
8
CUT
10
122.1117
20
151.0785
0
VERTEX
8
CUT
10
121.8989
20
151.2065
0
VERTEX
8
CUT
10
121.6743
20
151.3127
0
VERTEX
8
CUT
10
121.4404
20
151.3962
0
VERTEX
8
CUT
10
121.1993
20
151.4560
0
VERTEX
8
CUT
10
120.9535
20
151.4916
0
VERTEX
8
CUT
10
120.7053
20
151.5026
0
VERTEX
8
CUT
10
120.4573
20
151.4890
0
VERTEX
8
CUT
10
120.2119
20
151.4508
0
VERTEX
8
CUT
10
119.9714
20
151.3884
0
VERTEX
8
CUT
10
119.7414
20
151.3164
0
VERTEX
8
CUT
10
119.7230
20
151.3111
0
VERTEX
8
CUT
10
119.6842
20
151.3030
0
VERTEX
8
CUT
10
119.6449
20
151.2986
0
VERTEX
8
CUT
10
119.6258
20
151.2979
0
VERTEX
8
CUT
10
117.2438
20
151.2650
0
VERTEX
8
CUT
10
117.2250
20
151.2652
0
VERTEX
8
CUT
10
117.1474
20
151.2715
0
VERTEX
8
CUT
10
117.1288
20
151.2743
0
VERTEX
8
CUT
10
115.3839
20
151.5837
0
VERTEX
8
CUT
10
115.3648
20
151.5876
0
VERTEX
8
CUT
10
115.2871
20
151.6094
0
VERTEX
8
CUT
10
115.2687
20
151.6160
0
VERTEX
8
CUT
10
113.8644
20
152.1635
0
VERTEX
8
CUT
10
113.8102
20
152.1862
0
VERTEX
8
CUT
10
113.7571
20
152.2114
0
VERTEX
8
CUT
10
111.5226
20
153.3401
0
VERTEX
8
CUT
10
111.4505
20
153.3796
0
VERTEX
8
CUT
10
111.3811
20
153.4239
0
VERTEX
8
CUT
10
110.2234
20
154.2198
0
VERTEX
8
CUT
10
110.0136
20
154.3492
0
VERTEX
8
CUT
10
109.7921
20
154.4574
0
VERTEX
8
CUT
10
109.5610
20
154.5432
0
VERTEX
8
CUT
10
109.3226
20
154.6058
0
VERTEX
8
CUT
10
109.0792
20
154.6447
0
VERTEX
8
CUT
10
108.8332
20
154.6594
0
VERTEX
8
CUT
10
108.5869
20
154.6498
0
VERTEX
8
CUT
10
108.3427
20
154.6160
0
VERTEX
8
CUT
10
108.1031
20
154.5584
0
VERTEX
8
CUT
10
107.8703
20
154.4774
0
VERTEX
8
CUT
10
107.6466
20
154.3738
0
VERTEX
8
CUT
10
107.4342
20
154.2488
0
VERTEX
8
CUT
10
107.2351
20
154.1034
0
VERTEX
8
CUT
10
107.0513
20
153.9391
0
VERTEX
8
CUT
10
106.8846
20
153.7576
0
VERTEX
8
CUT
10
106.7366
20
153.5605
0
VERTEX
8
CUT
10
106.6087
20
153.3498
0
VERTEX
8
CUT
10
106.5022
20
153.1275
0
VERTEX
8
CUT
10
106.4180
20
152.8958
0
VERTEX
8
CUT
10
106.3572
20
152.6569
0
VERTEX
8
CUT
10
106.3201
20
152.4132
0
VERTEX
8
CUT
10
106.3072
20
152.1671
0
VERTEX
8
CUT
10
106.3186
20
151.9209
0
VERTEX
8
CUT
10
106.3542
20
151.6770
0
VERTEX
8
CUT
10
106.4137
20
151.4377
0
VERTEX
8
CUT
10
106.4964
20
151.2055
0
VERTEX
8
CUT
10
106.6016
20
150.9826
0
VERTEX
8
CUT
10
106.7282
20
150.7711
0
VERTEX
8
CUT
10
106.8750
20
150.5732
0
VERTEX
8
CUT
10
109.9555
20
146.8212
0
SEQEND
0
POLYLINE
8
CUT
66
1
70
1
10
0.0
20
0.0
30
0.0
0
VERTEX
8
CUT
10
72.9061
20
134.9107
0
VERTEX
8
CUT
10
72.8330
20
134.7208
0
VERTEX
8
CUT
10
72.7656
20
134.4720
0
VERTEX
8
CUT
10
72.7242
20
134.2176
0
VERTEX
8
CUT
10
72.7092
20
133.9602
0
VERTEX
8
CUT
10
72.6992
20
132.4717
0
VERTEX
8
CUT
10
72.7134
20
132.1884
0
VERTEX
8
CUT
10
72.7596
20
131.9086
0
VERTEX
8
CUT
10
72.8372
20
131.6358
0
VERTEX
8
CUT
10
72.9276
20
131.3752
0
VERTEX
8
CUT
10
72.9335
20
131.3568
0
VERTEX
8
CUT
10
72.9429
20
131.3180
0
VERTEX
8
CUT
10
72.9484
20
131.2785
0
VERTEX
8
CUT
10
72.9497
20
131.2593
0
VERTEX
8
CUT
10
72.9868
20
130.3726
0
VERTEX
8
CUT
10
73.0101
20
130.1215
0
VERTEX
8
CUT
10
73.0585
20
129.8741
0
VERTEX
8
CUT
10
73.5232
20
128.0051
0
VERTEX
8
CUT
10
73.6067
20
127.7354
0
VERTEX
8
CUT
10
73.7201
20
127.4767
0
VERTEX
8
CUT
10
74.3617
20
126.2129
0
VERTEX
8
CUT
10
74.3706
20
126.1941
0
VERTEX
8
CUT
10
74.3858
20
126.1541
0
VERTEX
8
CUT
10
74.3859
20
126.1528
0
VERTEX
8
CUT
10
74.4097
20
125.9075
0
VERTEX
8
CUT
10
74.4575
20
125.6658
0
VERTEX
8
CUT
10
74.5289
20
125.4299
0
VERTEX
8
CUT
10
74.6232
20
125.2022
0
VERTEX
8
CUT
10
74.7395
20
124.9849
0
VERTEX
8
CUT
10
74.8765
20
124.7801
0
VERTEX
8
CUT
10
75.0331
20
124.5898
0
VERTEX
8
CUT
10
75.2076
20
124.4158
0
VERTEX
8
CUT
10
75.3984
20
124.2599
0
VERTEX
8
CUT
10
75.6037
20
124.1235
0
VERTEX
8
CUT
10
75.8214
20
124.0080
0
VERTEX
8
CUT
10
76.0493
20
123.9144
0
VERTEX
8
CUT
10
76.2854
20
123.8438
0
VERTEX
8
CUT
10
76.5273
20
123.7968
0
VERTEX
8
CUT
10
76.7727
20
123.7738
0
VERTEX
8
CUT
10
77.0191
20
123.7750
0
VERTEX
8
CUT
10
77.2642
20
123.8005
0
VERTEX
8
CUT
10
77.5056
20
123.8501
0
VERTEX
8
CUT
10
77.7410
20
123.9231
0
VERTEX
8
CUT
10
77.9680
20
124.0190
0
VERTEX
8
CUT
10
78.1845
20
124.1367
0
VERTEX
8
CUT
10
78.3883
20
124.2752
0
VERTEX
8
CUT
10
78.5775
20
124.4331
0
VERTEX
8
CUT
10
78.7503
20
124.6089
0
VERTEX
8
CUT
10
78.9049
20
124.8008
0
VERTEX
8
CUT
10
79.0398
20
125.0070
0
VERTEX
8
CUT
10
79.1538
20
125.2255
0
VERTEX
8
CUT
10
80.6160
20
128.4001
0
VERTEX
8
CUT
10
80.7068
20
128.6254
0
VERTEX
8
CUT
10
80.7753
20
128.8584
0
VERTEX
8
CUT
10
80.9491
20
129.5775
0
VERTEX
8
CUT
10
81.0017
20
129.8702
0
VERTEX
8
CUT
10
81.0192
20
130.1671
0
VERTEX
8
CUT
10
81.0187
20
130.7829
0
VERTEX
8
CUT
10
81.0086
20
131.0052
0
VERTEX
8
CUT
10
80.9788
20
131.2257
0
VERTEX
8
CUT
10
80.9295
20
131.4426
0
VERTEX
8
CUT
10
80.8611
20
131.6544
0
VERTEX
8
CUT
10
80.5159
20
132.5802
0
VERTEX
8
CUT
10
80.5091
20
132.6001
0
VERTEX
8
CUT
10
80.4983
20
132.6422
0
VERTEX
8
CUT
10
80.4920
20
132.6852
0
VERTEX
8
CUT
10
80.4907
20
132.7062
0
VERTEX
8
CUT
10
80.4343
20
134.1850
0
VERTEX
8
CUT
10
80.4168
20
134.4002
0
VERTEX
8
CUT
10
80.3808
20
134.6130
0
VERTEX
8
CUT
10
80.3265
20
134.8219
0
VERTEX
8
CUT
10
79.3131
20
138.1310
0
VERTEX
8
CUT
10
79.2428
20
138.3301
0
VERTEX
8
CUT
10
79.1560
20
138.5225
0
VERTEX
8
CUT
10
78.5616
20
139.7038
0
VERTEX
8
CUT
10
78.4387
20
139.9206
0
VERTEX
8
CUT
10
78.2947
20
140.1241
0
VERTEX
8
CUT
10
78.1312
20
140.3122
0
VERTEX
8
CUT
10
77.9498
20
140.4831
0
VERTEX
8
CUT
10
77.7522
20
140.6351
0
VERTEX
8
CUT
10
77.5405
20
140.7667
0
VERTEX
8
CUT
10
77.3168
20
140.8765
0
VERTEX
8
CUT
10
77.0832
20
140.9635
0
VERTEX
8
CUT
10
76.8422
20
141.0269
0
VERTEX
8
CUT
10
76.5960
20
141.0659
0
VERTEX
8
CUT
10
76.3471
20
141.0802
0
VERTEX
8
CUT
10
76.0981
20
141.0696
0
VERTEX
8
CUT
10
75.8514
20
141.0343
0
VERTEX
8
CUT
10
75.6094
20
140.9746
0
VERTEX
8
CUT
10
75.3745
20
140.8911
0
VERTEX
8
CUT
10
75.1492
20
140.7847
0
VERTEX
8
CUT
10
74.9355
20
140.6563
0
VERTEX
8
CUT
10
74.7357
20
140.5073
0
VERTEX
8
CUT
10
74.5517
20
140.3391
0
VERTEX
8
CUT
10
74.3854
20
140.1535
0
VERTEX
8
CUT
10
74.2384
20
139.9522
0
VERTEX
8
CUT
10
74.1122
20
139.7372
0
VERTEX
8
CUT
10
74.0080
20
139.5108
0
VERTEX
8
CUT
10
73.4166
20
138.0363
0
VERTEX
8
CUT
10
73.3468
20
137.8387
0
VERTEX
8
CUT
10
73.2938
20
137.6359
0
VERTEX
8
CUT
10
73.2580
20
137.4294
0
VERTEX
8
CUT
10
72.9475
20
135.0519
0
VERTEX
8
CUT
10
72.9446
20
135.0330
0
VERTEX
8
CUT
10
72.9357
20
134.9945
0
VERTEX
8
CUT
10
72.9232
20
134.9570
0
VERTEX
8
CUT
10
72.9042
20
134.9115
0
SEQEND
0
POLYLINE
8
CUT
66
1
70
1
10
0.0
20
0.0
30
0.0
0
VERTEX
8
CUT
10
69.3010
20
119.7508
0
VERTEX
8
CUT
10
69.3390
20
119.7454
0
VERTEX
8
CUT
10
69.4326
20
119.7228
0
VERTEX
8
CUT
10
69.6707
20
119.6773
0
VERTEX
8
CUT
10
69.9120
20
119.6552
0
VERTEX
8
CUT
10
70.1544
20
119.6565
0
VERTEX
8
CUT
10
70.3955
20
119.6813
0
VERTEX
8
CUT
10
70.6331
20
119.7293
0
VERTEX
8
CUT
10
70.8649
20
119.8001
0
VERTEX
8
CUT
10
71.0888
20
119.8930
0
VERTEX
8
CUT
10
71.3026
20
120.0072
0
VERTEX
8
CUT
10
71.5044
20
120.1415
0
VERTEX
8
CUT
10
71.6922
20
120.2947
0
VERTEX
8
CUT
10
71.8643
20
120.4654
0
VERTEX
8
CUT
10
72.0190
20
120.6520
0
VERTEX
8
CUT
10
72.1549
20
120.8527
0
VERTEX
8
CUT
10
72.2708
20
121.0656
0
VERTEX
8
CUT
10
72.3655
20
121.2887
0
VERTEX
8
CUT
10
72.4382
20
121.5199
0
VERTEX
8
CUT
10
72.4881
20
121.7571
0
VERTEX
8
CUT
10
72.5148
20
121.9980
0
VERTEX
8
CUT
10
72.5181
20
122.2404
0
VERTEX
8
CUT
10
72.4979
20
122.4819
0
VERTEX
8
CUT
10
72.4544
20
122.7204
0
VERTEX
8
CUT
10
72.3880
20
122.9535
0
VERTEX
8
CUT
10
72.2993
20
123.1791
0
VERTEX
8
CUT
10
72.1892
20
123.3950
0
VERTEX
8
CUT
10
72.0587
20
123.5993
0
VERTEX
8
CUT
10
71.9091
20
123.7899
0
VERTEX
8
CUT
10
71.7417
20
123.9652
0
VERTEX
8
CUT
10
71.5581
20
124.1235
0
VERTEX
8
CUT
10
71.3600
20
124.2632
0
VERTEX
8
CUT
10
71.1493
20
124.3831
0
VERTEX
8
CUT
10
71.0541
20
124.4313
0
VERTEX
8
CUT
10
69.7286
20
125.1497
0
VERTEX
8
CUT
10
69.7107
20
125.1599
0
VERTEX
8
CUT
10
69.6623
20
125.1931
0
VERTEX
8
CUT
10
69.4515
20
125.3227
0
VERTEX
8
CUT
10
69.2288
20
125.4307
0
VERTEX
8
CUT
10
68.9966
20
125.5163
0
VERTEX
8
CUT
10
68.7570
20
125.5784
0
VERTEX
8
CUT
10
68.5125
20
125.6166
0
VERTEX
8
CUT
10
68.2654
20
125.6304
0
VERTEX
8
CUT
10
68.0181
20
125.6197
0
VERTEX
8
CUT
10
67.7731
20
125.5846
0
VERTEX
8
CUT
10
67.5328
20
125.5255
0
VERTEX
8
CUT
10
67.2995
20
125.4429
0
VERTEX
8
CUT
10
67.0755
20
125.3376
0
VERTEX
8
CUT
10
66.8631
20
125.2107
0
VERTEX
8
CUT
10
66.6642
20
125.0634
0
VERTEX
8
CUT
10
66.4808
20
124.8971
0
VERTEX
8
CUT
10
66.3148
20
124.7136
0
VERTEX
8
CUT
10
66.1678
20
124.5145
0
VERTEX
8
CUT
10
66.0411
20
124.3019
0
VERTEX
8
CUT
10
65.7055
20
123.6692
0
VERTEX
8
CUT
10
65.6028
20
123.4507
0
VERTEX
8
CUT
10
65.5217
20
123.2233
0
VERTEX
8
CUT
10
65.4629
20
122.9892
0
VERTEX
8
CUT
10
65.4269
20
122.7505
0
VERTEX
8
CUT
10
65.4141
20
122.5094
0
VERTEX
8
CUT
10
65.4246
20
122.2682
0
VERTEX
8
CUT
10
65.4584
20
122.0292
0
VERTEX
8
CUT
10
65.5150
20
121.7945
0
VERTEX
8
CUT
10
65.5941
20
121.5664
0
VERTEX
8
CUT
10
65.6947
20
121.3469
0
VERTEX
8
CUT
10
65.8161
20
121.1382
0
VERTEX
8
CUT
10
65.9570
20
120.9422
0
VERTEX
8
CUT
10
66.1162
20
120.7607
0
VERTEX
8
CUT
10
66.2921
20
120.5954
0
VERTEX
8
CUT
10
66.4831
20
120.4478
0
VERTEX
8
CUT
10
66.6875
20
120.3193
0
VERTEX
8
CUT
10
66.9034
20
120.2112
0
VERTEX
8
CUT
10
67.1286
20
120.1243
0
VERTEX
8
CUT
10
67.7499
20
119.9188
0
VERTEX
8
CUT
10
67.9665
20
119.8577
0
VERTEX
8
CUT
10
68.1878
20
119.8164
0
VERTEX
8
CUT
10
68.4119
20
119.7952
0
VERTEX
8
CUT
10
69.2824
20
119.7522
0
SEQEND
0
ENDSEC
0
EOF
