0
SECTION
2
HEADER
9
$ACADVER
1
AC1009
9
$INSUNITS
70
4
0
ENDSEC
0
SECTION
2
TABLES
0
TABLE
2
LAYER
70
1
0
LAYER
2
CUT
70
0
62
7
6
CONTINUOUS
0
ENDTAB
0
ENDSEC
0
SECTION
2
ENTITIES
0
POLYLINE
8
CUT
66
1
70
1
10
0.0
20
0.0
30
0.0
0
VERTEX
8
CUT
10
-0.0500
20
299.2304
0
VERTEX
8
CUT
10
-0.0452
20
299.3283
0
VERTEX
8
CUT
10
-0.0337
20
299.4059
0
VERTEX
8
CUT
10
-0.0146
20
299.4819
0
VERTEX
8
CUT
10
0.0118
20
299.5558
0
VERTEX
8
CUT
10
0.0453
20
299.6267
0
VERTEX
8
CUT
10
0.0856
20
299.6939
0
VERTEX
8
CUT
10
0.1323
20
299.7569
0
VERTEX
8
CUT
10
0.1850
20
299.8150
0
VERTEX
8
CUT
10
0.2431
20
299.8677
0
VERTEX
8
CUT
10
0.3061
20
299.9144
0
VERTEX
8
CUT
10
0.3733
20
299.9547
0
VERTEX
8
CUT
10
0.4442
20
299.9882
0
VERTEX
8
CUT
10
0.5181
20
300.0146
0
VERTEX
8
CUT
10
0.5941
20
300.0337
0
VERTEX
8
CUT
10
0.6717
20
300.0452
0
VERTEX
8
CUT
10
0.7696
20
300.0500
0
VERTEX
8
CUT
10
299.2289
20
300.0500
0
VERTEX
8
CUT
10
299.3268
20
300.0452
0
VERTEX
8
CUT
10
299.4044
20
300.0337
0
VERTEX
8
CUT
10
299.4805
20
300.0146
0
VERTEX
8
CUT
10
299.5543
20
299.9882
0
VERTEX
8
CUT
10
299.6252
20
299.9547
0
VERTEX
8
CUT
10
299.6924
20
299.9144
0
VERTEX
8
CUT
10
299.7554
20
299.8677
0
VERTEX
8
CUT
10
299.8135
20
299.8150
0
VERTEX
8
CUT
10
299.8662
20
299.7569
0
VERTEX
8
CUT
10
299.9129
20
299.6939
0
VERTEX
8
CUT
10
299.9532
20
299.6267
0
VERTEX
8
CUT
10
299.9867
20
299.5558
0
VERTEX
8
CUT
10
300.0132
20
299.4819
0
VERTEX
8
CUT
10
300.0322
20
299.4059
0
VERTEX
8
CUT
10
300.0437
20
299.3283
0
VERTEX
8
CUT
10
300.0485
20
299.2304
0
VERTEX
8
CUT
10
300.0485
20
0.7696
0
VERTEX
8
CUT
10
300.0437
20
0.6717
0
VERTEX
8
CUT
10
300.0322
20
0.5941
0
VERTEX
8
CUT
10
300.0132
20
0.5181
0
VERTEX
8
CUT
10
299.9867
20
0.4442
0
VERTEX
8
CUT
10
299.9532
20
0.3733
0
VERTEX
8
CUT
10
299.9129
20
0.3061
0
VERTEX
8
CUT
10
299.8662
20
0.2431
0
VERTEX
8
CUT
10
299.8135
20
0.1850
0
VERTEX
8
CUT
10
299.7554
20
0.1323
0
VERTEX
8
CUT
10
299.6924
20
0.0856
0
VERTEX
8
CUT
10
299.6252
20
0.0453
0
VERTEX
8
CUT
10
299.5543
20
0.0118
0
VERTEX
8
CUT
10
299.4805
20
-0.0146
0
VERTEX
8
CUT
10
299.4044
20
-0.0337
0
VERTEX
8
CUT
10
299.3268
20
-0.0452
0
VERTEX
8
CUT
10
299.2289
20
-0.0500
0
VERTEX
8
CUT
10
0.7696
20
-0.0500
0
VERTEX
8
CUT
10
0.6717
20
-0.0452
0
VERTEX
8
CUT
10
0.5941
20
-0.0337
0
VERTEX
8
CUT
10
0.5181
20
-0.0146
0
VERTEX
8
CUT
10
0.4442
20
0.0118
0
VERTEX
8
CUT
10
0.3733
20
0.0453
0
VERTEX
8
CUT
10
0.3061
20
0.0856
0
VERTEX
8
CUT
10
0.2431
20
0.1323
0
VERTEX
8
CUT
10
0.1850
20
0.1850
0
VERTEX
8
CUT
10
0.1323
20
0.2431
0
VERTEX
8
CUT
10
0.0856
20
0.3061
0
VERTEX
8
CUT
10
0.0453
20
0.3733
0
VERTEX
8
CUT
10
0.0118
20
0.4442
0
VERTEX
8
CUT
10
-0.0146
20
0.5181
0
VERTEX
8
CUT
10
-0.0337
20
0.5941
0
VERTEX
8
CUT
10
-0.0452
20
0.6717
0
VERTEX
8
CUT
10
-0.0500
20
0.7696
0
SEQEND
0
POLYLINE
8
CUT
66
1
70
1
10
0.0
20
0.0
30
0.0
0
VERTEX
8
CUT
10
165.4894
20
197.5537
0
VERTEX
8
CUT
10
165.4864
20
197.4948
0
VERTEX
8
CUT
10
165.4778
20
197.3817
0
VERTEX
8
CUT
10
165.4757
20
197.3011
0
VERTEX
8
CUT
10
165.4825
20
197.0299
0
VERTEX
8
CUT
10
165.4886
20
196.9495
0
VERTEX
8
CUT
10
165.5226
20
196.6803
0
VERTEX
8
CUT
10
165.5367
20
196.6010
0
VERTEX
8
CUT
10
165.5976
20
196.3365
0
VERTEX
8
CUT
10
165.6196
20
196.2590
0
VERTEX
8
CUT
10
165.7068
20
196.0021
0
VERTEX
8
CUT
10
165.7365
20
195.9272
0
VERTEX
8
CUT
10
165.8491
20
195.6803
0
VERTEX
8
CUT
10
165.8862
20
195.6088
0
VERTEX
8
CUT
10
166.0231
20
195.3745
0
VERTEX
8
CUT
10
166.0672
20
195.3070
0
VERTEX
8
CUT
10
166.2269
20
195.0877
0
VERTEX
8
CUT
10
166.2776
20
195.0250
0
VERTEX
8
CUT
10
166.4586
20
194.8228
0
VERTEX
8
CUT
10
166.5153
20
194.7656
0
VERTEX
8
CUT
10
166.7157
20
194.5826
0
VERTEX
8
CUT
10
166.7779
20
194.5314
0
VERTEX
8
CUT
10
166.9957
20
194.3695
0
VERTEX
8
CUT
10
167.0627
20
194.3248
0
VERTEX
8
CUT
10
167.2956
20
194.1856
0
VERTEX
8
CUT
10
167.3668
20
194.1479
0
VERTEX
8
CUT
10
167.6126
20
194.0329
0
VERTEX
8
CUT
10
167.6872
20
194.0024
0
VERTEX
8
CUT
10
167.9433
20
193.9127
0
VERTEX
8
CUT
10
168.0206
20
193.8900
0
VERTEX
8
CUT
10
168.3899
20
193.8011
0
VERTEX
8
CUT
10
168.4293
20
193.7927
0
VERTEX
8
CUT
10
168.8374
20
193.7160
0
VERTEX
8
CUT
10
168.8533
20
193.7129
0
VERTEX
8
CUT
10
168.8613
20
193.7113
0
VERTEX
8
CUT
10
168.8891
20
193.7062
0
VERTEX
8
CUT
10
169.2757
20
193.6422
0
VERTEX
8
CUT
10
169.3534
20
193.6333
0
VERTEX
8
CUT
10
169.6162
20
193.6159
0
VERTEX
8
CUT
10
169.6944
20
193.6145
0
VERTEX
8
CUT
10
169.9577
20
193.6229
0
VERTEX
8
CUT
10
170.0356
20
193.6292
0
VERTEX
8
CUT
10
170.2968
20
193.6632
0
VERTEX
8
CUT
10
170.3738
20
193.6771
0
VERTEX
8
CUT
10
170.6304
20
193.7364
0
VERTEX
8
CUT
10
170.7056
20
193.7577
0
VERTEX
8
CUT
10
170.9552
20
193.8418
0
VERTEX
8
CUT
10
171.0280
20
193.8704
0
VERTEX
8
CUT
10
171.2682
20
193.9785
0
VERTEX
8
CUT
10
171.3379
20
194.0140
0
VERTEX
8
CUT
10
171.5664
20
194.1450
0
VERTEX
8
CUT
10
171.6322
20
194.1872
0
VERTEX
8
CUT
10
171.8469
20
194.3399
0
VERTEX
8
CUT
10
171.9083
20
194.3883
0
VERTEX
8
CUT
10
172.1070
20
194.5612
0
VERTEX
8
CUT
10
172.1634
20
194.6153
0
VERTEX
8
CUT
10
172.3442
20
194.8068
0
VERTEX
8
CUT
10
172.3951
20
194.8662
0
VERTEX
8
CUT
10
172.5564
20
195.0745
0
VERTEX
8
CUT
10
172.6012
20
195.1385
0
VERTEX
8
CUT
10
172.7414
20
195.3615
0
VERTEX
8
CUT
10
172.7797
20
195.4297
0
VERTEX
8
CUT
10
172.8975
20
195.6653
0
VERTEX
8
CUT
10
172.9290
20
195.7369
0
VERTEX
8
CUT
10
173.0232
20
195.9828
0
VERTEX
8
CUT
10
173.0476
20
196.0571
0
VERTEX
8
CUT
10
173.1173
20
196.3111
0
VERTEX
8
CUT
10
173.1343
20
196.3875
0
VERTEX
8
CUT
10
173.1789
20
196.6471
0
VERTEX
8
CUT
10
173.1884
20
196.7247
0
VERTEX
8
CUT
10
173.2074
20
196.9874
0
VERTEX
8
CUT
10
173.2093
20
197.0656
0
VERTEX
8
CUT
10
173.2026
20
197.3289
0
VERTEX
8
CUT
10
173.1968
20
197.4069
0
VERTEX
8
CUT
10
173.1644
20
197.6683
0
VERTEX
8
CUT
10
173.1510
20
197.7453
0
VERTEX
8
CUT
10
173.0933
20
198.0023
0
VERTEX
8
CUT
10
173.0725
20
198.0777
0
VERTEX
8
CUT
10
172.9899
20
198.3278
0
VERTEX
8
CUT
10
172.9618
20
198.4008
0
VERTEX
8
CUT
10
172.8553
20
198.6416
0
VERTEX
8
CUT
10
172.8202
20
198.7115
0
VERTEX
8
CUT
10
172.6906
20
198.9409
0
VERTEX
8
CUT
10
172.6488
20
199.0070
0
VERTEX
8
CUT
10
172.4975
20
199.2226
0
VERTEX
8
CUT
10
172.4495
20
199.2843
0
VERTEX
8
CUT
10
172.2778
20
199.4841
0
VERTEX
8
CUT
10
172.2240
20
199.5408
0
VERTEX
8
CUT
10
172.0337
20
199.7229
0
VERTEX
8
CUT
10
171.9746
20
199.7741
0
VERTEX
8
CUT
10
171.6846
20
200.0017
0
VERTEX
8
CUT
10
171.6533
20
200.0251
0
VERTEX
8
CUT
10
171.1068
20
200.4123
0
VERTEX
8
CUT
10
171.0742
20
200.4342
0
VERTEX
8
CUT
10
170.7617
20
200.6333
0
VERTEX
8
CUT
10
170.6935
20
200.6723
0
VERTEX
8
CUT
10
170.4574
20
200.7919
0
VERTEX
8
CUT
10
170.3856
20
200.8240
0
VERTEX
8
CUT
10
170.1389
20
200.9199
0
VERTEX
8
CUT
10
170.0643
20
200.9447
0
VERTEX
8
CUT
10
169.8094
20
201.0160
0
VERTEX
8
CUT
10
169.7327
20
201.0334
0
VERTEX
8
CUT
10
169.4720
20
201.0793
0
VERTEX
8
CUT
10
169.3941
20
201.0891
0
VERTEX
8
CUT
10
169.1301
20
201.1092
0
VERTEX
8
CUT
10
169.0516
20
201.1113
0
VERTEX
8
CUT
10
168.7869
20
201.1054
0
VERTEX
8
CUT
10
168.7085
20
201.0998
0
VERTEX
8
CUT
10
168.4457
20
201.0680
0
VERTEX
8
CUT
10
168.3683
20
201.0547
0
VERTEX
8
CUT
10
168.1099
20
200.9973
0
VERTEX
8
CUT
10
168.0341
20
200.9765
0
VERTEX
8
CUT
10
167.7826
20
200.8939
0
VERTEX
8
CUT
10
167.7092
20
200.8658
0
VERTEX
8
CUT
10
167.4670
20
200.7590
0
VERTEX
8
CUT
10
167.3967
20
200.7238
0
VERTEX
8
CUT
10
167.1662
20
200.5937
0
VERTEX
8
CUT
10
167.0997
20
200.5518
0
VERTEX
8
CUT
10
166.8830
20
200.3997
0
VERTEX
8
CUT
10
166.8210
20
200.3515
0
VERTEX
8
CUT
10
166.6203
20
200.1789
0
VERTEX
8
CUT
10
166.5633
20
200.1248
0
VERTEX
8
CUT
10
166.3804
20
199.9333
0
VERTEX
8
CUT
10
166.3290
20
199.8739
0
VERTEX
8
CUT
10
166.1659
20
199.6654
0
VERTEX
8
CUT
10
166.1205
20
199.6013
0
VERTEX
8
CUT
10
165.9786
20
199.3778
0
VERTEX
8
CUT
10
165.9398
20
199.3095
0
VERTEX
8
CUT
10
165.8205
20
199.0732
0
VERTEX
8
CUT
10
165.7886
20
199.0014
0
VERTEX
8
CUT
10
165.6930
20
198.7545
0
VERTEX
8
CUT
10
165.6683
20
198.6799
0
VERTEX
8
CUT
10
165.5974
20
198.4248
0
VERTEX
8
CUT
10
165.5801
20
198.3482
0
VERTEX
8
CUT
10
165.5346
20
198.0874
0
VERTEX
8
CUT
10
165.5250
20
198.0094
0
VERTEX
8
CUT
10
165.5159
20
197.8883
0
VERTEX
8
CUT
10
165.5147
20
197.8737
0
VERTEX
8
CUT
10
165.5086
20
197.8031
0
VERTEX
8
CUT
10
165.5072
20
197.7885
0
VERTEX
8
CUT
10
165.4943
20
197.6578
0
VERTEX
8
CUT
10
165.4907
20
197.6001
0
SEQEND
0
ENDSEC
0
EOF
