0
SECTION
2
HEADER
9
$ACADVER
1
AC1009
9
$INSUNITS
70
4
0
ENDSEC
0
SECTION
2
TABLES
0
TABLE
2
LAYER
70
1
0
LAYER
2
CUT
70
0
62
7
6
CONTINUOUS
0
ENDTAB
0
ENDSEC
0
SECTION
2
ENTITIES
0
POLYLINE
8
CUT
66
1
70
1
10
0.0
20
0.0
30
0.0
0
VERTEX
8
CUT
10
-0.1500
20
297.5886
0
VERTEX
8
CUT
10
-0.1350
20
297.8947
0
VERTEX
8
CUT
10
-0.0990
20
298.1371
0
VERTEX
8
CUT
10
-0.0395
20
298.3748
0
VERTEX
8
CUT
10
0.0431
20
298.6056
0
VERTEX
8
CUT
10
0.1479
20
298.8271
0
VERTEX
8
CUT
10
0.2738
20
299.0373
0
VERTEX
8
CUT
10
0.4198
20
299.2341
0
VERTEX
8
CUT
10
0.5844
20
299.4156
0
VERTEX
8
CUT
10
0.7659
20
299.5802
0
VERTEX
8
CUT
10
0.9627
20
299.7262
0
VERTEX
8
CUT
10
1.1729
20
299.8521
0
VERTEX
8
CUT
10
1.3944
20
299.9569
0
VERTEX
8
CUT
10
1.6252
20
300.0395
0
VERTEX
8
CUT
10
1.8629
20
300.0990
0
VERTEX
8
CUT
10
2.1053
20
300.1350
0
VERTEX
8
CUT
10
2.4114
20
300.1500
0
VERTEX
8
CUT
10
297.5872
20
300.1500
0
VERTEX
8
CUT
10
297.8933
20
300.1350
0
VERTEX
8
CUT
10
298.1357
20
300.0990
0
VERTEX
8
CUT
10
298.3734
20
300.0395
0
VERTEX
8
CUT
10
298.6041
20
299.9569
0
VERTEX
8
CUT
10
298.8256
20
299.8521
0
VERTEX
8
CUT
10
299.0358
20
299.7262
0
VERTEX
8
CUT
10
299.2326
20
299.5802
0
VERTEX
8
CUT
10
299.4142
20
299.4156
0
VERTEX
8
CUT
10
299.5787
20
299.2341
0
VERTEX
8
CUT
10
299.7247
20
299.0373
0
VERTEX
8
CUT
10
299.8507
20
298.8271
0
VERTEX
8
CUT
10
299.9554
20
298.6056
0
VERTEX
8
CUT
10
300.0380
20
298.3748
0
VERTEX
8
CUT
10
300.0975
20
298.1371
0
VERTEX
8
CUT
10
300.1335
20
297.8947
0
VERTEX
8
CUT
10
300.1485
20
297.5886
0
VERTEX
8
CUT
10
300.1485
20
2.4114
0
VERTEX
8
CUT
10
300.1335
20
2.1053
0
VERTEX
8
CUT
10
300.0975
20
1.8629
0
VERTEX
8
CUT
10
300.0380
20
1.6252
0
VERTEX
8
CUT
10
299.9554
20
1.3944
0
VERTEX
8
CUT
10
299.8507
20
1.1729
0
VERTEX
8
CUT
10
299.7247
20
0.9627
0
VERTEX
8
CUT
10
299.5787
20
0.7659
0
VERTEX
8
CUT
10
299.4142
20
0.5844
0
VERTEX
8
CUT
10
299.2326
20
0.4198
0
VERTEX
8
CUT
10
299.0358
20
0.2738
0
VERTEX
8
CUT
10
298.8256
20
0.1479
0
VERTEX
8
CUT
10
298.6041
20
0.0431
0
VERTEX
8
CUT
10
298.3734
20
-0.0395
0
VERTEX
8
CUT
10
298.1357
20
-0.0990
0
VERTEX
8
CUT
10
297.8933
20
-0.1350
0
VERTEX
8
CUT
10
297.5872
20
-0.1500
0
VERTEX
8
CUT
10
2.4114
20
-0.1500
0
VERTEX
8
CUT
10
2.1053
20
-0.1350
0
VERTEX
8
CUT
10
1.8629
20
-0.0990
0
VERTEX
8
CUT
10
1.6252
20
-0.0395
0
VERTEX
8
CUT
10
1.3944
20
0.0431
0
VERTEX
8
CUT
10
1.1729
20
0.1479
0
VERTEX
8
CUT
10
0.9627
20
0.2738
0
VERTEX
8
CUT
10
0.7659
20
0.4198
0
VERTEX
8
CUT
10
0.5844
20
0.5844
0
VERTEX
8
CUT
10
0.4198
20
0.7659
0
VERTEX
8
CUT
10
0.2738
20
0.9627
0
VERTEX
8
CUT
10
0.1479
20
1.1729
0
VERTEX
8
CUT
10
0.0431
20
1.3944
0
VERTEX
8
CUT
10
-0.0395
20
1.6252
0
VERTEX
8
CUT
10
-0.0990
20
1.8629
0
VERTEX
8
CUT
10
-0.1350
20
2.1053
0
VERTEX
8
CUT
10
-0.1500
20
2.4114
0
SEQEND
0
POLYLINE
8
CUT
66
1
70
1
10
0.0
20
0.0
30
0.0
0
VERTEX
8
CUT
10
215.5381
20
261.1655
0
VERTEX
8
CUT
10
215.4859
20
260.9169
0
VERTEX
8
CUT
10
215.4591
20
260.6643
0
VERTEX
8
CUT
10
215.4582
20
260.4102
0
VERTEX
8
CUT
10
215.5187
20
259.1248
0
VERTEX
8
CUT
10
215.5391
20
258.9021
0
VERTEX
8
CUT
10
215.5795
20
258.6821
0
VERTEX
8
CUT
10
215.6393
20
258.4667
0
VERTEX
8
CUT
10
215.7181
20
258.2574
0
VERTEX
8
CUT
10
215.8461
20
257.9587
0
VERTEX
8
CUT
10
215.9602
20
257.7265
0
VERTEX
8
CUT
10
216.0977
20
257.5073
0
VERTEX
8
CUT
10
216.2572
20
257.3035
0
VERTEX
8
CUT
10
217.3537
20
256.0420
0
VERTEX
8
CUT
10
217.5204
20
255.8681
0
VERTEX
8
CUT
10
217.7030
20
255.7109
0
VERTEX
8
CUT
10
217.8999
20
255.5721
0
VERTEX
8
CUT
10
218.1821
20
255.3928
0
VERTEX
8
CUT
10
218.3833
20
255.2777
0
VERTEX
8
CUT
10
218.5944
20
255.1817
0
VERTEX
8
CUT
10
218.8135
20
255.1057
0
VERTEX
8
CUT
10
219.1608
20
255.0029
0
VERTEX
8
CUT
10
219.3854
20
254.9476
0
VERTEX
8
CUT
10
219.6143
20
254.9134
0
VERTEX
8
CUT
10
219.8453
20
254.9004
0
VERTEX
8
CUT
10
221.2237
20
254.8868
0
VERTEX
8
CUT
10
221.4923
20
254.8986
0
VERTEX
8
CUT
10
221.7580
20
254.9391
0
VERTEX
8
CUT
10
222.0178
20
255.0080
0
VERTEX
8
CUT
10
222.2688
20
255.1044
0
VERTEX
8
CUT
10
222.9287
20
255.3994
0
VERTEX
8
CUT
10
223.1773
20
255.5277
0
VERTEX
8
CUT
10
223.4100
20
255.6830
0
VERTEX
8
CUT
10
223.6239
20
255.8633
0
VERTEX
8
CUT
10
224.4712
20
256.6626
0
VERTEX
8
CUT
10
224.6577
20
256.8588
0
VERTEX
8
CUT
10
224.8220
20
257.0739
0
VERTEX
8
CUT
10
224.9620
20
257.3056
0
VERTEX
8
CUT
10
225.0762
20
257.5511
0
VERTEX
8
CUT
10
225.4745
20
258.5450
0
VERTEX
8
CUT
10
225.5654
20
258.8156
0
VERTEX
8
CUT
10
225.6248
20
259.0949
0
VERTEX
8
CUT
10
225.6520
20
259.3791
0
VERTEX
8
CUT
10
225.6821
20
260.1632
0
VERTEX
8
CUT
10
225.6793
20
260.4116
0
VERTEX
8
CUT
10
225.6519
20
260.6585
0
VERTEX
8
CUT
10
225.5698
20
261.1654
0
VERTEX
8
CUT
10
225.5154
20
261.4183
0
VERTEX
8
CUT
10
225.4350
20
261.6643
0
VERTEX
8
CUT
10
225.3297
20
261.9006
0
VERTEX
8
CUT
10
225.0613
20
262.4276
0
VERTEX
8
CUT
10
224.9302
20
262.6547
0
VERTEX
8
CUT
10
224.7760
20
262.8668
0
VERTEX
8
CUT
10
224.6004
20
263.0617
0
VERTEX
8
CUT
10
224.4054
20
263.2370
0
VERTEX
8
CUT
10
223.3012
20
264.1298
0
VERTEX
8
CUT
10
223.1032
20
264.2744
0
VERTEX
8
CUT
10
222.8920
20
264.3989
0
VERTEX
8
CUT
10
222.6697
20
264.5022
0
VERTEX
8
CUT
10
222.4383
20
264.5831
0
VERTEX
8
CUT
10
222.2000
20
264.6411
0
VERTEX
8
CUT
10
221.9573
20
264.6754
0
VERTEX
8
CUT
10
221.7124
20
264.6857
0
VERTEX
8
CUT
10
221.4676
20
264.6720
0
VERTEX
8
CUT
10
221.2253
20
264.6344
0
VERTEX
8
CUT
10
221.0643
20
264.5930
0
VERTEX
8
CUT
10
221.0641
20
264.5934
0
VERTEX
8
CUT
10
221.0620
20
264.5929
0
VERTEX
8
CUT
10
220.7110
20
264.5228
0
VERTEX
8
CUT
10
220.3859
20
264.4923
0
VERTEX
8
CUT
10
220.0594
20
264.4958
0
VERTEX
8
CUT
10
219.7350
20
264.5331
0
VERTEX
8
CUT
10
219.6155
20
264.5596
0
VERTEX
8
CUT
10
219.3757
20
264.6007
0
VERTEX
8
CUT
10
219.1330
20
264.6183
0
VERTEX
8
CUT
10
218.8898
20
264.6122
0
VERTEX
8
CUT
10
218.6483
20
264.5826
0
VERTEX
8
CUT
10
218.4109
20
264.5295
0
VERTEX
8
CUT
10
218.1797
20
264.4537
0
VERTEX
8
CUT
10
217.9570
20
264.3557
0
VERTEX
8
CUT
10
217.7449
20
264.2366
0
VERTEX
8
CUT
10
217.5453
20
264.0974
0
VERTEX
8
CUT
10
217.1796
20
263.8148
0
VERTEX
8
CUT
10
216.9789
20
263.6420
0
VERTEX
8
CUT
10
216.7975
20
263.4489
0
VERTEX
8
CUT
10
216.3930
20
262.9696
0
VERTEX
8
CUT
10
216.2385
20
262.7663
0
VERTEX
8
CUT
10
216.1055
20
262.5483
0
VERTEX
8
CUT
10
215.8536
20
262.0836
0
VERTEX
8
CUT
10
215.7274
20
261.8134
0
VERTEX
8
CUT
10
215.6343
20
261.5302
0
SEQEND
0
POLYLINE
8
CUT
66
1
70
1
10
0.0
20
0.0
30
0.0
0
VERTEX
8
CUT
10
32.5025
20
178.9757
0
VERTEX
8
CUT
10
32.2626
20
178.9788
0
VERTEX
8
CUT
10
32.0235
20
178.9589
0
VERTEX
8
CUT
10
31.7875
20
178.9162
0
VERTEX
8
CUT
10
31.5566
20
178.8511
0
VERTEX
8
CUT
10
31.3331
20
178.7641
0
VERTEX
8
CUT
10
31.1189
20
178.6562
0
VERTEX
8
CUT
10
30.9160
20
178.5281
0
VERTEX
8
CUT
10
30.7263
20
178.3813
0
VERTEX
8
CUT
10
30.5516
20
178.2169
0
VERTEX
8
CUT
10
30.3934
20
178.0366
0
VERTEX
8
CUT
10
30.2533
20
177.8419
0
VERTEX
8
CUT
10
30.1325
20
177.6346
0
VERTEX
8
CUT
10
30.0320
20
177.4168
0
VERTEX
8
CUT
10
29.9529
20
177.1903
0
VERTEX
8
CUT
10
29.8959
20
176.9573
0
VERTEX
8
CUT
10
29.8615
20
176.7199
0
VERTEX
8
CUT
10
29.8500
20
176.4803
0
VERTEX
8
CUT
10
29.8500
20
167.5194
0
VERTEX
8
CUT
10
29.8623
20
167.2717
0
VERTEX
8
CUT
10
29.8991
20
167.0264
0
VERTEX
8
CUT
10
29.9600
20
166.7859
0
VERTEX
8
CUT
10
30.0445
20
166.5527
0
VERTEX
8
CUT
10
30.1516
20
166.3290
0
VERTEX
8
CUT
10
30.2804
20
166.1170
0
VERTEX
8
CUT
10
30.4295
20
165.9188
0
VERTEX
8
CUT
10
30.5976
20
165.7364
0
VERTEX
8
CUT
10
30.7829
20
165.5715
0
VERTEX
8
CUT
10
30.9837
20
165.4258
0
VERTEX
8
CUT
10
31.1978
20
165.3007
0
VERTEX
8
CUT
10
31.4234
20
165.1975
0
VERTEX
8
CUT
10
31.6580
20
165.1171
0
VERTEX
8
CUT
10
31.8995
20
165.0603
0
VERTEX
8
CUT
10
32.1454
20
165.0278
0
VERTEX
8
CUT
10
32.3933
20
165.0198
0
VERTEX
8
CUT
10
32.6408
20
165.0364
0
VERTEX
8
CUT
10
33.4393
20
165.1299
0
VERTEX
8
CUT
10
33.7077
20
165.1762
0
VERTEX
8
CUT
10
33.9694
20
165.2515
0
VERTEX
8
CUT
10
34.8159
20
165.5458
0
VERTEX
8
CUT
10
35.0167
20
165.6255
0
VERTEX
8
CUT
10
35.2098
20
165.7222
0
VERTEX
8
CUT
10
35.3938
20
165.8352
0
VERTEX
8
CUT
10
36.4055
20
166.5182
0
VERTEX
8
CUT
10
36.5746
20
166.6430
0
VERTEX
8
CUT
10
36.7326
20
166.7816
0
VERTEX
8
CUT
10
36.8784
20
166.9330
0
VERTEX
8
CUT
10
37.5685
20
167.7124
0
VERTEX
8
CUT
10
37.7019
20
167.8766
0
VERTEX
8
CUT
10
37.8210
20
168.0515
0
VERTEX
8
CUT
10
37.9248
20
168.2358
0
VERTEX
8
CUT
10
38.3980
20
169.1657
0
VERTEX
8
CUT
10
38.5087
20
169.4166
0
VERTEX
8
CUT
10
38.5914
20
169.6781
0
VERTEX
8
CUT
10
38.8636
20
170.7389
0
VERTEX
8
CUT
10
38.9072
20
170.9447
0
VERTEX
8
CUT
10
38.9335
20
171.1534
0
VERTEX
8
CUT
10
38.9420
20
171.3636
0
VERTEX
8
CUT
10
38.9406
20
172.3933
0
VERTEX
8
CUT
10
38.9255
20
172.6647
0
VERTEX
8
CUT
10
38.8810
20
172.9329
0
VERTEX
8
CUT
10
38.6253
20
174.0824
0
VERTEX
8
CUT
10
38.5726
20
174.2806
0
VERTEX
8
CUT
10
38.5038
20
174.4738
0
VERTEX
8
CUT
10
38.4194
20
174.6607
0
VERTEX
8
CUT
10
37.9221
20
175.6518
0
VERTEX
8
CUT
10
37.7838
20
175.8929
0
VERTEX
8
CUT
10
37.6196
20
176.1172
0
VERTEX
8
CUT
10
36.8479
20
177.0568
0
VERTEX
8
CUT
10
36.7025
20
177.2190
0
VERTEX
8
CUT
10
36.5435
20
177.3678
0
VERTEX
8
CUT
10
36.3721
20
177.5022
0
VERTEX
8
CUT
10
35.4115
20
178.1906
0
VERTEX
8
CUT
10
35.1928
20
178.3308
0
VERTEX
8
CUT
10
34.9607
20
178.4474
0
VERTEX
8
CUT
10
34.7178
20
178.5394
0
VERTEX
8
CUT
10
34.4667
20
178.6057
0
VERTEX
8
CUT
10
32.9540
20
178.9218
0
VERTEX
8
CUT
10
32.5950
20
178.9700
0
SEQEND
0
ENDSEC
0
EOF
