0
SECTION
2
HEADER
9
$ACADVER
1
AC1009
9
$INSUNITS
70
4
0
ENDSEC
0
SECTION
2
TABLES
0
TABLE
2
LAYER
70
1
0
LAYER
2
CUT
70
0
62
7
6
CONTINUOUS
0
ENDTAB
0
ENDSEC
0
SECTION
2
ENTITIES
0
POLYLINE
8
CUT
66
1
70
1
10
0.0
20
0.0
30
0.0
0
VERTEX
8
CUT
10
-0.1000
20
297.9985
0
VERTEX
8
CUT
10
-0.0899
20
298.2044
0
VERTEX
8
CUT
10
-0.0596
20
298.4082
0
VERTEX
8
CUT
10
-0.0096
20
298.6081
0
VERTEX
8
CUT
10
0.0599
20
298.8022
0
VERTEX
8
CUT
10
0.1480
20
298.9885
0
VERTEX
8
CUT
10
0.2539
20
299.1652
0
VERTEX
8
CUT
10
0.3767
20
299.3307
0
VERTEX
8
CUT
10
0.5151
20
299.4834
0
VERTEX
8
CUT
10
0.6678
20
299.6218
0
VERTEX
8
CUT
10
0.8333
20
299.7446
0
VERTEX
8
CUT
10
1.0101
20
299.8506
0
VERTEX
8
CUT
10
1.1964
20
299.9387
0
VERTEX
8
CUT
10
1.3904
20
300.0081
0
VERTEX
8
CUT
10
1.5903
20
300.0582
0
VERTEX
8
CUT
10
1.7942
20
300.0884
0
VERTEX
8
CUT
10
2.0000
20
300.0985
0
VERTEX
8
CUT
10
298.0000
20
300.0985
0
VERTEX
8
CUT
10
298.2058
20
300.0884
0
VERTEX
8
CUT
10
298.4097
20
300.0582
0
VERTEX
8
CUT
10
298.6096
20
300.0081
0
VERTEX
8
CUT
10
298.8036
20
299.9387
0
VERTEX
8
CUT
10
298.9899
20
299.8506
0
VERTEX
8
CUT
10
299.1667
20
299.7446
0
VERTEX
8
CUT
10
299.3322
20
299.6218
0
VERTEX
8
CUT
10
299.4849
20
299.4834
0
VERTEX
8
CUT
10
299.6233
20
299.3307
0
VERTEX
8
CUT
10
299.7461
20
299.1652
0
VERTEX
8
CUT
10
299.8520
20
298.9885
0
VERTEX
8
CUT
10
299.9401
20
298.8022
0
VERTEX
8
CUT
10
300.0096
20
298.6081
0
VERTEX
8
CUT
10
300.0596
20
298.4082
0
VERTEX
8
CUT
10
300.0899
20
298.2044
0
VERTEX
8
CUT
10
300.1000
20
297.9985
0
VERTEX
8
CUT
10
300.1000
20
2.0000
0
VERTEX
8
CUT
10
300.0899
20
1.7942
0
VERTEX
8
CUT
10
300.0596
20
1.5903
0
VERTEX
8
CUT
10
300.0096
20
1.3904
0
VERTEX
8
CUT
10
299.9401
20
1.1964
0
VERTEX
8
CUT
10
299.8520
20
1.0101
0
VERTEX
8
CUT
10
299.7461
20
0.8333
0
VERTEX
8
CUT
10
299.6233
20
0.6678
0
VERTEX
8
CUT
10
299.4849
20
0.5151
0
VERTEX
8
CUT
10
299.3322
20
0.3767
0
VERTEX
8
CUT
10
299.1667
20
0.2539
0
VERTEX
8
CUT
10
298.9899
20
0.1480
0
VERTEX
8
CUT
10
298.8036
20
0.0599
0
VERTEX
8
CUT
10
298.6096
20
-0.0096
0
VERTEX
8
CUT
10
298.4097
20
-0.0596
0
VERTEX
8
CUT
10
298.2058
20
-0.0899
0
VERTEX
8
CUT
10
298.0000
20
-0.1000
0
VERTEX
8
CUT
10
2.0000
20
-0.1000
0
VERTEX
8
CUT
10
1.7942
20
-0.0899
0
VERTEX
8
CUT
10
1.5903
20
-0.0596
0
VERTEX
8
CUT
10
1.3904
20
-0.0096
0
VERTEX
8
CUT
10
1.1964
20
0.0599
0
VERTEX
8
CUT
10
1.0101
20
0.1480
0
VERTEX
8
CUT
10
0.8333
20
0.2539
0
VERTEX
8
CUT
10
0.6678
20
0.3767
0
VERTEX
8
CUT
10
0.5151
20
0.5151
0
VERTEX
8
CUT
10
0.3767
20
0.6678
0
VERTEX
8
CUT
10
0.2539
20
0.8333
0
VERTEX
8
CUT
10
0.1480
20
1.0101
0
VERTEX
8
CUT
10
0.0599
20
1.1964
0
VERTEX
8
CUT
10
-0.0096
20
1.3904
0
VERTEX
8
CUT
10
-0.0596
20
1.5903
0
VERTEX
8
CUT
10
-0.0899
20
1.7942
0
VERTEX
8
CUT
10
-0.1000
20
2.0000
0
SEQEND
0
POLYLINE
8
CUT
66
1
70
1
10
0.0
20
0.0
30
0.0
0
VERTEX
8
CUT
10
200.0337
20
46.1086
0
VERTEX
8
CUT
10
200.0003
20
46.1412
0
VERTEX
8
CUT
10
199.9707
20
46.1688
0
VERTEX
8
CUT
10
199.8993
20
46.2288
0
VERTEX
8
CUT
10
199.8877
20
46.2377
0
VERTEX
8
CUT
10
199.8108
20
46.2905
0
VERTEX
8
CUT
10
199.7983
20
46.2982
0
VERTEX
8
CUT
10
199.7166
20
46.3431
0
VERTEX
8
CUT
10
199.7034
20
46.3496
0
VERTEX
8
CUT
10
199.6178
20
46.3863
0
VERTEX
8
CUT
10
199.6040
20
46.3914
0
VERTEX
8
CUT
10
199.5151
20
46.4196
0
VERTEX
8
CUT
10
199.5009
20
46.4233
0
VERTEX
8
CUT
10
199.4097
20
46.4426
0
VERTEX
8
CUT
10
199.3952
20
46.4449
0
VERTEX
8
CUT
10
199.3026
20
46.4552
0
VERTEX
8
CUT
10
199.2879
20
46.4561
0
VERTEX
8
CUT
10
199.1947
20
46.4572
0
VERTEX
8
CUT
10
199.1800
20
46.4567
0
VERTEX
8
CUT
10
199.0872
20
46.4486
0
VERTEX
8
CUT
10
199.0726
20
46.4467
0
VERTEX
8
CUT
10
198.9810
20
46.4296
0
VERTEX
8
CUT
10
198.9667
20
46.4262
0
VERTEX
8
CUT
10
198.8772
20
46.4002
0
VERTEX
8
CUT
10
198.8633
20
46.3954
0
VERTEX
8
CUT
10
198.7768
20
46.3607
0
VERTEX
8
CUT
10
198.7634
20
46.3546
0
VERTEX
8
CUT
10
198.6807
20
46.3116
0
VERTEX
8
CUT
10
198.6680
20
46.3042
0
VERTEX
8
CUT
10
198.5899
20
46.2533
0
VERTEX
8
CUT
10
198.5780
20
46.2447
0
VERTEX
8
CUT
10
198.5053
20
46.1864
0
VERTEX
8
CUT
10
198.4943
20
46.1767
0
VERTEX
8
CUT
10
198.4276
20
46.1115
0
VERTEX
8
CUT
10
198.4176
20
46.1008
0
VERTEX
8
CUT
10
198.3577
20
46.0294
0
VERTEX
8
CUT
10
198.3488
20
46.0177
0
VERTEX
8
CUT
10
198.2961
20
45.9408
0
VERTEX
8
CUT
10
198.2884
20
45.9283
0
VERTEX
8
CUT
10
198.2436
20
45.8465
0
VERTEX
8
CUT
10
198.2372
20
45.8333
0
VERTEX
8
CUT
10
198.2005
20
45.7476
0
VERTEX
8
CUT
10
198.1954
20
45.7339
0
VERTEX
8
CUT
10
198.1674
20
45.6449
0
VERTEX
8
CUT
10
198.1636
20
45.6307
0
VERTEX
8
CUT
10
198.1444
20
45.5395
0
VERTEX
8
CUT
10
198.1421
20
45.5250
0
VERTEX
8
CUT
10
198.1320
20
45.4323
0
VERTEX
8
CUT
10
198.1311
20
45.4177
0
VERTEX
8
CUT
10
198.1301
20
45.3245
0
VERTEX
8
CUT
10
198.1306
20
45.3098
0
VERTEX
8
CUT
10
198.1388
20
45.2169
0
VERTEX
8
CUT
10
198.1408
20
45.2024
0
VERTEX
8
CUT
10
198.1580
20
45.1108
0
VERTEX
8
CUT
10
198.1614
20
45.0965
0
VERTEX
8
CUT
10
198.1875
20
45.0070
0
VERTEX
8
CUT
10
198.1923
20
44.9931
0
VERTEX
8
CUT
10
198.2271
20
44.9066
0
VERTEX
8
CUT
10
198.2332
20
44.8933
0
VERTEX
8
CUT
10
198.2763
20
44.8106
0
VERTEX
8
CUT
10
198.2837
20
44.7980
0
VERTEX
8
CUT
10
198.3347
20
44.7199
0
VERTEX
8
CUT
10
198.3584
20
44.6871
0
VERTEX
8
CUT
10
198.3867
20
44.6501
0
VERTEX
8
CUT
10
200.7195
20
41.7466
0
VERTEX
8
CUT
10
200.7510
20
41.7094
0
VERTEX
8
CUT
10
200.7790
20
41.6779
0
VERTEX
8
CUT
10
200.8474
20
41.6087
0
VERTEX
8
CUT
10
200.8786
20
41.5803
0
VERTEX
8
CUT
10
200.9153
20
41.5484
0
VERTEX
8
CUT
10
204.1087
20
38.9184
0
VERTEX
8
CUT
10
204.1417
20
38.8924
0
VERTEX
8
CUT
10
204.1708
20
38.8705
0
VERTEX
8
CUT
10
204.2401
20
38.8231
0
VERTEX
8
CUT
10
204.2710
20
38.8039
0
VERTEX
8
CUT
10
204.3071
20
38.7825
0
VERTEX
8
CUT
10
205.2394
20
38.2585
0
VERTEX
8
CUT
10
205.2770
20
38.2384
0
VERTEX
8
CUT
10
205.3100
20
38.2218
0
VERTEX
8
CUT
10
205.3877
20
38.1869
0
VERTEX
8
CUT
10
205.4221
20
38.1732
0
VERTEX
8
CUT
10
205.4621
20
38.1584
0
VERTEX
8
CUT
10
206.8528
20
37.6781
0
VERTEX
8
CUT
10
206.8912
20
37.6657
0
VERTEX
8
CUT
10
206.9248
20
37.6557
0
VERTEX
8
CUT
10
207.0032
20
37.6359
0
VERTEX
8
CUT
10
207.0156
20
37.6333
0
VERTEX
8
CUT
10
207.0953
20
37.6203
0
VERTEX
8
CUT
10
207.1301
20
37.6161
0
VERTEX
8
CUT
10
207.1704
20
37.6121
0
VERTEX
8
CUT
10
208.4228
20
37.5151
0
VERTEX
8
CUT
10
208.4633
20
37.5128
0
VERTEX
8
CUT
10
208.4984
20
37.5116
0
VERTEX
8
CUT
10
208.5794
20
37.5123
0
VERTEX
8
CUT
10
208.6146
20
37.5141
0
VERTEX
8
CUT
10
208.6550
20
37.5170
0
VERTEX
8
CUT
10
209.9575
20
37.6390
0
VERTEX
8
CUT
10
210.0050
20
37.6447
0
VERTEX
8
CUT
10
210.0461
20
37.6506
0
VERTEX
8
CUT
10
210.1399
20
37.6691
0
VERTEX
8
CUT
10
210.1802
20
37.6791
0
VERTEX
8
CUT
10
210.2263
20
37.6919
0
VERTEX
8
CUT
10
211.3234
20
38.0253
0
VERTEX
8
CUT
10
211.3665
20
38.0395
0
VERTEX
8
CUT
10
211.4036
20
38.0527
0
VERTEX
8
CUT
10
211.4875
20
38.0873
0
VERTEX
8
CUT
10
211.5004
20
38.0933
0
VERTEX
8
CUT
10
211.5807
20
38.1357
0
VERTEX
8
CUT
10
211.6146
20
38.1558
0
VERTEX
8
CUT
10
211.6531
20
38.1798
0
VERTEX
8
CUT
10
212.9246
20
39.0161
0
VERTEX
8
CUT
10
212.9628
20
39.0426
0
VERTEX
8
CUT
10
212.9953
20
39.0663
0
VERTEX
8
CUT
10
213.0675
20
39.1247
0
VERTEX
8
CUT
10
213.0784
20
39.1344
0
VERTEX
8
CUT
10
213.1446
20
39.1995
0
VERTEX
8
CUT
10
213.1719
20
39.2292
0
VERTEX
8
CUT
10
213.2025
20
39.2641
0
VERTEX
8
CUT
10
214.8228
20
41.2053
0
VERTEX
8
CUT
10
214.8562
20
41.2477
0
VERTEX
8
CUT
10
214.8841
20
41.2852
0
VERTEX
8
CUT
10
214.9433
20
41.3752
0
VERTEX
8
CUT
10
214.9667
20
41.4157
0
VERTEX
8
CUT
10
214.9924
20
41.4631
0
VERTEX
8
CUT
10
215.2684
20
42.0085
0
VERTEX
8
CUT
10
215.2883
20
42.0505
0
VERTEX
8
CUT
10
215.3048
20
42.0873
0
VERTEX
8
CUT
10
215.3384
20
42.1739
0
VERTEX
8
CUT
10
215.3430
20
42.1878
0
VERTEX
8
CUT
10
215.3680
20
42.2772
0
VERTEX
8
CUT
10
215.3713
20
42.2915
0
VERTEX
8
CUT
10
215.3874
20
42.3829
0
VERTEX
8
CUT
10
215.3892
20
42.3974
0
VERTEX
8
CUT
10
215.3964
20
42.4901
0
VERTEX
8
CUT
10
215.3968
20
42.5047
0
VERTEX
8
CUT
10
215.3948
20
42.5975
0
VERTEX
8
CUT
10
215.3938
20
42.6121
0
VERTEX
8
CUT
10
215.3828
20
42.7043
0
VERTEX
8
CUT
10
215.3803
20
42.7188
0
VERTEX
8
CUT
10
215.3604
20
42.8095
0
VERTEX
8
CUT
10
215.3565
20
42.8236
0
VERTEX
8
CUT
10
215.3278
20
42.9119
0
VERTEX
8
CUT
10
215.3226
20
42.9256
0
VERTEX
8
CUT
10
215.2853
20
43.0107
0
VERTEX
8
CUT
10
215.2788
20
43.0237
0
VERTEX
8
CUT
10
215.2335
20
43.1048
0
VERTEX
8
CUT
10
215.2257
20
43.1172
0
VERTEX
8
CUT
10
215.1726
20
43.1934
0
VERTEX
8
CUT
10
215.1637
20
43.2050
0
VERTEX
8
CUT
10
215.1034
20
43.2756
0
VERTEX
8
CUT
10
215.0934
20
43.2863
0
VERTEX
8
CUT
10
215.0265
20
43.3507
0
VERTEX
8
CUT
10
215.0155
20
43.3603
0
VERTEX
8
CUT
10
214.9426
20
43.4179
0
VERTEX
8
CUT
10
214.9307
20
43.4264
0
VERTEX
8
CUT
10
214.8526
20
43.4766
0
VERTEX
8
CUT
10
214.8399
20
43.4839
0
VERTEX
8
CUT
10
214.7572
20
43.5262
0
VERTEX
8
CUT
10
214.7439
20
43.5323
0
VERTEX
8
CUT
10
214.6575
20
43.5663
0
VERTEX
8
CUT
10
214.6436
20
43.5710
0
VERTEX
8
CUT
10
214.5543
20
43.5964
0
VERTEX
8
CUT
10
214.5400
20
43.5997
0
VERTEX
8
CUT
10
214.4486
20
43.6163
0
VERTEX
8
CUT
10
214.4342
20
43.6182
0
VERTEX
8
CUT
10
214.3416
20
43.6258
0
VERTEX
8
CUT
10
214.3270
20
43.6262
0
VERTEX
8
CUT
10
214.2341
20
43.6247
0
VERTEX
8
CUT
10
214.2195
20
43.6238
0
VERTEX
8
CUT
10
214.1272
20
43.6132
0
VERTEX
8
CUT
10
214.1128
20
43.6108
0
VERTEX
8
CUT
10
214.0220
20
43.5913
0
VERTEX
8
CUT
10
214.0079
20
43.5875
0
VERTEX
8
CUT
10
213.9194
20
43.5592
0
VERTEX
8
CUT
10
213.9057
20
43.5540
0
VERTEX
8
CUT
10
213.8205
20
43.5172
0
VERTEX
8
CUT
10
213.8073
20
43.5107
0
VERTEX
8
CUT
10
213.7261
20
43.4657
0
VERTEX
8
CUT
10
213.7137
20
43.4580
0
VERTEX
8
CUT
10
213.6372
20
43.4053
0
VERTEX
8
CUT
10
213.6256
20
43.3964
0
VERTEX
8
CUT
10
213.5255
20
43.3119
0
VERTEX
8
CUT
10
213.4096
20
43.2207
0
VERTEX
8
CUT
10
212.5274
20
42.5758
0
VERTEX
8
CUT
10
212.3519
20
42.4606
0
VERTEX
8
CUT
10
212.1659
20
42.3634
0
VERTEX
8
CUT
10
210.5740
20
41.6310
0
VERTEX
8
CUT
10
210.4073
20
41.5628
0
VERTEX
8
CUT
10
210.2354
20
41.5091
0
VERTEX
8
CUT
10
210.0595
20
41.4704
0
VERTEX
8
CUT
10
208.7166
20
41.2346
0
VERTEX
8
CUT
10
208.4936
20
41.2076
0
VERTEX
8
CUT
10
208.2690
20
41.2046
0
VERTEX
8
CUT
10
208.0454
20
41.2256
0
VERTEX
8
CUT
10
207.8253
20
41.2704
0
VERTEX
8
CUT
10
205.5866
20
41.8520
0
VERTEX
8
CUT
10
205.3911
20
41.9131
0
VERTEX
8
CUT
10
205.2025
20
41.9930
0
VERTEX
8
CUT
10
204.1125
20
42.5186
0
VERTEX
8
CUT
10
203.8954
20
42.6396
0
VERTEX
8
CUT
10
203.6942
20
42.7854
0
VERTEX
8
CUT
10
201.7013
20
44.4172
0
VERTEX
8
CUT
10
201.5282
20
44.5760
0
SEQEND
0
POLYLINE
8
CUT
66
1
70
1
10
0.0
20
0.0
30
0.0
0
VERTEX
8
CUT
10
199.6878
20
177.7998
0
VERTEX
8
CUT
10
199.6422
20
177.8107
0
VERTEX
8
CUT
10
199.6023
20
177.8192
0
VERTEX
8
CUT
10
199.5097
20
177.8343
0
VERTEX
8
CUT
10
199.4951
20
177.8359
0
VERTEX
8
CUT
10
199.4014
20
177.8418
0
VERTEX
8
CUT
10
199.3867
20
177.8420
0
VERTEX
8
CUT
10
199.2929
20
177.8386
0
VERTEX
8
CUT
10
199.2782
20
177.8373
0
VERTEX
8
CUT
10
199.1852
20
177.8246
0
VERTEX
8
CUT
10
199.1707
20
177.8219
0
VERTEX
8
CUT
10
199.0794
20
177.8001
0
VERTEX
8
CUT
10
199.0653
20
177.7960
0
VERTEX
8
CUT
10
198.9766
20
177.7653
0
VERTEX
8
CUT
10
198.9629
20
177.7598
0
VERTEX
8
CUT
10
198.8777
20
177.7205
0
VERTEX
8
CUT
10
198.8646
20
177.7137
0
VERTEX
8
CUT
10
198.7837
20
177.6662
0
VERTEX
8
CUT
10
198.7713
20
177.6581
0
VERTEX
8
CUT
10
198.6955
20
177.6028
0
VERTEX
8
CUT
10
198.6840
20
177.5935
0
VERTEX
8
CUT
10
198.6140
20
177.5310
0
VERTEX
8
CUT
10
198.6035
20
177.5207
0
VERTEX
8
CUT
10
198.5400
20
177.4516
0
VERTEX
8
CUT
10
198.5306
20
177.4402
0
VERTEX
8
CUT
10
198.4742
20
177.3652
0
VERTEX
8
CUT
10
198.4659
20
177.3530
0
VERTEX
8
CUT
10
198.4172
20
177.2728
0
VERTEX
8
CUT
10
198.4102
20
177.2598
0
VERTEX
8
CUT
10
198.3697
20
177.1752
0
VERTEX
8
CUT
10
198.3640
20
177.1616
0
VERTEX
8
CUT
10
198.3320
20
177.0733
0
VERTEX
8
CUT
10
198.3277
20
177.0592
0
VERTEX
8
CUT
10
198.3046
20
176.9683
0
VERTEX
8
CUT
10
198.3016
20
176.9538
0
VERTEX
8
CUT
10
198.2876
20
176.8610
0
VERTEX
8
CUT
10
198.2861
20
176.8464
0
VERTEX
8
CUT
10
198.2813
20
176.7526
0
VERTEX
8
CUT
10
198.2813
20
176.7379
0
VERTEX
8
CUT
10
198.2858
20
176.6442
0
VERTEX
8
CUT
10
198.2872
20
176.6295
0
VERTEX
8
CUT
10
198.3009
20
176.5366
0
VERTEX
8
CUT
10
198.3038
20
176.5222
0
VERTEX
8
CUT
10
198.3266
20
176.4311
0
VERTEX
8
CUT
10
198.3309
20
176.4170
0
VERTEX
8
CUT
10
198.3626
20
176.3287
0
VERTEX
8
CUT
10
198.3683
20
176.3151
0
VERTEX
8
CUT
10
198.4085
20
176.2303
0
VERTEX
8
CUT
10
198.4155
20
176.2173
0
VERTEX
8
CUT
10
198.4639
20
176.1369
0
VERTEX
8
CUT
10
198.4722
20
176.1247
0
VERTEX
8
CUT
10
198.5283
20
176.0495
0
VERTEX
8
CUT
10
198.5377
20
176.0381
0
VERTEX
8
CUT
10
198.6009
20
175.9688
0
VERTEX
8
CUT
10
198.6114
20
175.9584
0
VERTEX
8
CUT
10
198.6812
20
175.8957
0
VERTEX
8
CUT
10
198.7128
20
175.8700
0
VERTEX
8
CUT
10
198.7500
20
175.8413
0
VERTEX
8
CUT
10
199.3598
20
175.3938
0
VERTEX
8
CUT
10
199.4025
20
175.3641
0
VERTEX
8
CUT
10
199.4403
20
175.3395
0
VERTEX
8
CUT
10
199.5304
20
175.2875
0
VERTEX
8
CUT
10
199.5449
20
175.2801
0
VERTEX
8
CUT
10
199.6401
20
175.2383
0
VERTEX
8
CUT
10
199.6554
20
175.2325
0
VERTEX
8
CUT
10
199.7546
20
175.2014
0
VERTEX
8
CUT
10
199.7983
20
175.1902
0
VERTEX
8
CUT
10
199.8491
20
175.1788
0
VERTEX
8
CUT
10
200.8572
20
174.9799
0
VERTEX
8
CUT
10
200.9086
20
174.9712
0
VERTEX
8
CUT
10
200.9533
20
174.9649
0
VERTEX
8
CUT
10
201.0571
20
174.9560
0
VERTEX
8
CUT
10
201.1023
20
174.9547
0
VERTEX
8
CUT
10
201.1544
20
174.9545
0
VERTEX
8
CUT
10
202.0176
20
174.9759
0
VERTEX
8
CUT
10
202.0673
20
174.9785
0
VERTEX
8
CUT
10
202.1104
20
174.9818
0
VERTEX
8
CUT
10
202.2091
20
174.9947
0
VERTEX
8
CUT
10
202.2516
20
175.0025
0
VERTEX
8
CUT
10
202.3003
20
175.0128
0
VERTEX
8
CUT
10
203.5149
20
175.3031
0
VERTEX
8
CUT
10
203.5566
20
175.3141
0
VERTEX
8
CUT
10
203.5926
20
175.3244
0
VERTEX
8
CUT
10
203.6744
20
175.3520
0
VERTEX
8
CUT
10
203.6871
20
175.3569
0
VERTEX
8
CUT
10
203.7660
20
175.3918
0
VERTEX
8
CUT
10
203.7995
20
175.4085
0
VERTEX
8
CUT
10
203.8377
20
175.4287
0
VERTEX
8
CUT
10
204.3066
20
175.6893
0
VERTEX
8
CUT
10
204.3463
20
175.7126
0
VERTEX
8
CUT
10
204.3803
20
175.7337
0
VERTEX
8
CUT
10
204.4561
20
175.7861
0
VERTEX
8
CUT
10
204.4676
20
175.7949
0
VERTEX
8
CUT
10
204.5379
20
175.8543
0
VERTEX
8
CUT
10
204.5485
20
175.8642
0
VERTEX
8
CUT
10
204.6128
20
175.9302
0
VERTEX
8
CUT
10
204.6224
20
175.9411
0
VERTEX
8
CUT
10
204.6800
20
176.0130
0
VERTEX
8
CUT
10
204.6885
20
176.0247
0
VERTEX
8
CUT
10
204.7388
20
176.1019
0
VERTEX
8
CUT
10
204.7462
20
176.1144
0
VERTEX
8
CUT
10
204.7888
20
176.1960
0
VERTEX
8
CUT
10
204.7949
20
176.2092
0
VERTEX
8
CUT
10
204.8294
20
176.2946
0
VERTEX
8
CUT
10
204.8341
20
176.3083
0
VERTEX
8
CUT
10
204.8602
20
176.3966
0
VERTEX
8
CUT
10
204.8636
20
176.4107
0
VERTEX
8
CUT
10
204.8810
20
176.5012
0
VERTEX
8
CUT
10
204.8831
20
176.5155
0
VERTEX
8
CUT
10
204.8916
20
176.6072
0
VERTEX
8
CUT
10
204.8922
20
176.6217
0
VERTEX
8
CUT
10
204.8918
20
176.7138
0
VERTEX
8
CUT
10
204.8911
20
176.7283
0
VERTEX
8
CUT
10
204.8818
20
176.8200
0
VERTEX
8
CUT
10
204.8796
20
176.8343
0
VERTEX
8
CUT
10
204.8614
20
176.9246
0
VERTEX
8
CUT
10
204.8579
20
176.9387
0
VERTEX
8
CUT
10
204.8311
20
177.0268
0
VERTEX
8
CUT
10
204.8262
20
177.0404
0
VERTEX
8
CUT
10
204.7909
20
177.1255
0
VERTEX
8
CUT
10
204.7848
20
177.1387
0
VERTEX
8
CUT
10
204.7414
20
177.2199
0
VERTEX
8
CUT
10
204.7340
20
177.2324
0
VERTEX
8
CUT
10
204.6830
20
177.3091
0
VERTEX
8
CUT
10
204.6744
20
177.3208
0
VERTEX
8
CUT
10
204.6162
20
177.3922
0
VERTEX
8
CUT
10
204.6065
20
177.4030
0
VERTEX
8
CUT
10
204.5417
20
177.4684
0
VERTEX
8
CUT
10
204.5310
20
177.4782
0
VERTEX
8
CUT
10
204.4601
20
177.5370
0
VERTEX
8
CUT
10
204.4485
20
177.5457
0
VERTEX
8
CUT
10
204.3723
20
177.5974
0
VERTEX
8
CUT
10
204.3599
20
177.6050
0
VERTEX
8
CUT
10
204.2790
20
177.6490
0
VERTEX
8
CUT
10
204.2660
20
177.6554
0
VERTEX
8
CUT
10
204.1812
20
177.6914
0
VERTEX
8
CUT
10
204.1676
20
177.6964
0
VERTEX
8
CUT
10
204.0797
20
177.7240
0
VERTEX
8
CUT
10
204.0657
20
177.7277
0
VERTEX
8
CUT
10
203.9756
20
177.7467
0
VERTEX
8
CUT
10
203.9612
20
177.7490
0
VERTEX
8
CUT
10
203.8697
20
177.7591
0
VERTEX
8
CUT
10
203.8552
20
177.7600
0
VERTEX
8
CUT
10
203.7631
20
177.7613
0
VERTEX
8
CUT
10
203.7486
20
177.7608
0
VERTEX
8
CUT
10
203.6568
20
177.7531
0
VERTEX
8
CUT
10
203.6172
20
177.7478
0
VERTEX
8
CUT
10
203.5717
20
177.7406
0
VERTEX
8
CUT
10
201.8633
20
177.4285
0
VERTEX
8
CUT
10
201.6339
20
177.3996
0
VERTEX
8
CUT
10
201.4026
20
177.3960
0
VERTEX
8
CUT
10
201.1723
20
177.4179
0
VERTEX
8
CUT
10
200.9459
20
177.4650
0
SEQEND
0
POLYLINE
8
CUT
66
1
70
1
10
0.0
20
0.0
30
0.0
0
VERTEX
8
CUT
10
193.2762
20
134.6320
0
VERTEX
8
CUT
10
193.2335
20
134.6153
0
VERTEX
8
CUT
10
193.1969
20
134.5999
0
VERTEX
8
CUT
10
193.1143
20
134.5605
0
VERTEX
8
CUT
10
193.1016
20
134.5537
0
VERTEX
8
CUT
10
193.0231
20
134.5065
0
VERTEX
8
CUT
10
193.0112
20
134.4985
0
VERTEX
8
CUT
10
192.9376
20
134.4439
0
VERTEX
8
CUT
10
192.9265
20
134.4348
0
VERTEX
8
CUT
10
192.8585
20
134.3735
0
VERTEX
8
CUT
10
192.8483
20
134.3633
0
VERTEX
8
CUT
10
192.7866
20
134.2957
0
VERTEX
8
CUT
10
192.7774
20
134.2846
0
VERTEX
8
CUT
10
192.7225
20
134.2113
0
VERTEX
8
CUT
10
192.7144
20
134.1994
0
VERTEX
8
CUT
10
192.6668
20
134.1212
0
VERTEX
8
CUT
10
192.6599
20
134.1086
0
VERTEX
8
CUT
10
192.6201
20
134.0261
0
VERTEX
8
CUT
10
192.6144
20
134.0129
0
VERTEX
8
CUT
10
192.5827
20
133.9270
0
VERTEX
8
CUT
10
192.5784
20
133.9133
0
VERTEX
8
CUT
10
192.5551
20
133.8247
0
VERTEX
8
CUT
10
192.5521
20
133.8107
0
VERTEX
8
CUT
10
192.5374
20
133.7203
0
VERTEX
8
CUT
10
192.5358
20
133.7060
0
VERTEX
8
CUT
10
192.5299
20
133.6146
0
VERTEX
8
CUT
10
192.5296
20
133.6002
0
VERTEX
8
CUT
10
192.5326
20
133.5087
0
VERTEX
8
CUT
10
192.5337
20
133.4944
0
VERTEX
8
CUT
10
192.5454
20
133.4036
0
VERTEX
8
CUT
10
192.5480
20
133.3894
0
VERTEX
8
CUT
10
192.5684
20
133.3001
0
VERTEX
8
CUT
10
192.5723
20
133.2863
0
VERTEX
8
CUT
10
192.6012
20
133.1994
0
VERTEX
8
CUT
10
192.6064
20
133.1860
0
VERTEX
8
CUT
10
192.6435
20
133.1023
0
VERTEX
8
CUT
10
192.6500
20
133.0894
0
VERTEX
8
CUT
10
192.6950
20
133.0097
0
VERTEX
8
CUT
10
192.7027
20
132.9975
0
VERTEX
8
CUT
10
192.7552
20
132.9225
0
VERTEX
8
CUT
10
192.7640
20
132.9112
0
VERTEX
8
CUT
10
192.8235
20
132.8416
0
VERTEX
8
CUT
10
192.8334
20
132.8311
0
VERTEX
8
CUT
10
192.8993
20
132.7675
0
VERTEX
8
CUT
10
192.9101
20
132.7580
0
VERTEX
8
CUT
10
192.9819
20
132.7011
0
VERTEX
8
CUT
10
192.9936
20
132.6927
0
VERTEX
8
CUT
10
193.0704
20
132.6430
0
VERTEX
8
CUT
10
193.1048
20
132.6231
0
VERTEX
8
CUT
10
193.1449
20
132.6010
0
VERTEX
8
CUT
10
194.3381
20
131.9833
0
VERTEX
8
CUT
10
194.3792
20
131.9632
0
VERTEX
8
CUT
10
194.4153
20
131.9467
0
VERTEX
8
CUT
10
194.5001
20
131.9127
0
VERTEX
8
CUT
10
194.5376
20
131.8997
0
VERTEX
8
CUT
10
194.5812
20
131.8858
0
VERTEX
8
CUT
10
196.0261
20
131.4623
0
VERTEX
8
CUT
10
196.0694
20
131.4507
0
VERTEX
8
CUT
10
196.1072
20
131.4415
0
VERTEX
8
CUT
10
196.1952
20
131.4245
0
VERTEX
8
CUT
10
196.2091
20
131.4225
0
VERTEX
8
CUT
10
196.2983
20
131.4139
0
VERTEX
8
CUT
10
196.3371
20
131.4120
0
VERTEX
8
CUT
10
196.3820
20
131.4109
0
VERTEX
8
CUT
10
197.7796
20
131.4082
0
VERTEX
8
CUT
10
197.8191
20
131.4089
0
VERTEX
8
CUT
10
197.8533
20
131.4103
0
VERTEX
8
CUT
10
197.9320
20
131.4167
0
VERTEX
8
CUT
10
197.9444
20
131.4182
0
VERTEX
8
CUT
10
198.0222
20
131.4311
0
VERTEX
8
CUT
10
198.0558
20
131.4382
0
VERTEX
8
CUT
10
198.0942
20
131.4470
0
VERTEX
8
CUT
10
200.6106
20
132.0829
0
VERTEX
8
CUT
10
200.6546
20
132.0952
0
VERTEX
8
CUT
10
200.6925
20
132.1067
0
VERTEX
8
CUT
10
200.7784
20
132.1375
0
VERTEX
8
CUT
10
200.8150
20
132.1526
0
VERTEX
8
CUT
10
200.8568
20
132.1711
0
VERTEX
8
CUT
10
202.0974
20
132.7549
0
VERTEX
8
CUT
10
202.1491
20
132.7812
0
VERTEX
8
CUT
10
202.1932
20
132.8054
0
VERTEX
8
CUT
10
202.2912
20
132.8671
0
VERTEX
8
CUT
10
202.3320
20
132.8964
0
VERTEX
8
CUT
10
202.3781
20
132.9317
0
VERTEX
8
CUT
10
202.8246
20
133.2958
0
VERTEX
8
CUT
10
202.8600
20
133.3262
0
VERTEX
8
CUT
10
202.8900
20
133.3532
0
VERTEX
8
CUT
10
202.9561
20
133.4189
0
VERTEX
8
CUT
10
202.9660
20
133.4297
0
VERTEX
8
CUT
10
203.0253
20
133.5015
0
VERTEX
8
CUT
10
203.0341
20
133.5133
0
VERTEX
8
CUT
10
203.0861
20
133.5905
0
VERTEX
8
CUT
10
203.0936
20
133.6031
0
VERTEX
8
CUT
10
203.1378
20
133.6851
0
VERTEX
8
CUT
10
203.1441
20
133.6983
0
VERTEX
8
CUT
10
203.1800
20
133.7842
0
VERTEX
8
CUT
10
203.1850
20
133.7980
0
VERTEX
8
CUT
10
203.2123
20
133.8871
0
VERTEX
8
CUT
10
203.2159
20
133.9013
0
VERTEX
8
CUT
10
203.2344
20
133.9926
0
VERTEX
8
CUT
10
203.2366
20
134.0070
0
VERTEX
8
CUT
10
203.2461
20
134.0997
0
VERTEX
8
CUT
10
203.2468
20
134.1143
0
VERTEX
8
CUT
10
203.2471
20
134.2075
0
VERTEX
8
CUT
10
203.2465
20
134.2221
0
VERTEX
8
CUT
10
203.2377
20
134.3148
0
VERTEX
8
CUT
10
203.2356
20
134.3293
0
VERTEX
8
CUT
10
203.2177
20
134.4207
0
VERTEX
8
CUT
10
203.2142
20
134.4350
0
VERTEX
8
CUT
10
203.1875
20
134.5242
0
VERTEX
8
CUT
10
203.1826
20
134.5380
0
VERTEX
8
CUT
10
203.1472
20
134.6242
0
VERTEX
8
CUT
10
203.1410
20
134.6375
0
VERTEX
8
CUT
10
203.0974
20
134.7197
0
VERTEX
8
CUT
10
203.0899
20
134.7323
0
VERTEX
8
CUT
10
203.0384
20
134.8100
0
VERTEX
8
CUT
10
203.0297
20
134.8218
0
VERTEX
8
CUT
10
202.9709
20
134.8940
0
VERTEX
8
CUT
10
202.9611
20
134.9049
0
VERTEX
8
CUT
10
202.8955
20
134.9710
0
VERTEX
8
CUT
10
202.8847
20
134.9808
0
VERTEX
8
CUT
10
202.8129
20
135.0402
0
VERTEX
8
CUT
10
202.8011
20
135.0490
0
VERTEX
8
CUT
10
202.7239
20
135.1010
0
VERTEX
8
CUT
10
202.7113
20
135.1086
0
VERTEX
8
CUT
10
202.6294
20
135.1528
0
VERTEX
8
CUT
10
202.6161
20
135.1591
0
VERTEX
8
CUT
10
202.5302
20
135.1951
0
VERTEX
8
CUT
10
202.5164
20
135.2000
0
VERTEX
8
CUT
10
202.4274
20
135.2274
0
VERTEX
8
CUT
10
202.4132
20
135.2310
0
VERTEX
8
CUT
10
202.3219
20
135.2495
0
VERTEX
8
CUT
10
202.3074
20
135.2517
0
VERTEX
8
CUT
10
202.2148
20
135.2612
0
VERTEX
8
CUT
10
202.2001
20
135.2620
0
VERTEX
8
CUT
10
202.1070
20
135.2624
0
VERTEX
8
CUT
10
202.0924
20
135.2617
0
VERTEX
8
CUT
10
201.9996
20
135.2529
0
VERTEX
8
CUT
10
201.9851
20
135.2508
0
VERTEX
8
CUT
10
201.8937
20
135.2330
0
VERTEX
8
CUT
10
201.8795
20
135.2295
0
VERTEX
8
CUT
10
201.7903
20
135.2028
0
VERTEX
8
CUT
10
201.7764
20
135.1979
0
VERTEX
8
CUT
10
201.6903
20
135.1626
0
VERTEX
8
CUT
10
201.6832
20
135.1593
0
VERTEX
8
CUT
10
201.4170
20
135.0561
0
VERTEX
8
CUT
10
198.9574
20
134.2905
0
VERTEX
8
CUT
10
198.7910
20
134.2461
0
VERTEX
8
CUT
10
198.6215
20
134.2155
0
VERTEX
8
CUT
10
198.4501
20
134.1989
0
VERTEX
8
CUT
10
196.8740
20
134.1110
0
VERTEX
8
CUT
10
196.6554
20
134.1102
0
VERTEX
8
CUT
10
196.4379
20
134.1322
0
VERTEX
8
CUT
10
196.2238
20
134.1766
0
VERTEX
8
CUT
10
194.1428
20
134.7229
0
VERTEX
8
CUT
10
194.0962
20
134.7339
0
VERTEX
8
CUT
10
194.0555
20
134.7425
0
VERTEX
8
CUT
10
193.9609
20
134.7573
0
VERTEX
8
CUT
10
193.9460
20
134.7589
0
VERTEX
8
CUT
10
193.8503
20
134.7642
0
VERTEX
8
CUT
10
193.8353
20
134.7642
0
VERTEX
8
CUT
10
193.7396
20
134.7598
0
VERTEX
8
CUT
10
193.7246
20
134.7584
0
VERTEX
8
CUT
10
193.6299
20
134.7444
0
VERTEX
8
CUT
10
193.6152
20
134.7414
0
VERTEX
8
CUT
10
193.5223
20
134.7179
0
VERTEX
8
CUT
10
193.4826
20
134.7057
0
VERTEX
8
CUT
10
193.4372
20
134.6905
0
SEQEND
0
POLYLINE
8
CUT
66
1
70
1
10
0.0
20
0.0
30
0.0
0
VERTEX
8
CUT
10
168.3416
20
140.9075
0
VERTEX
8
CUT
10
168.3866
20
140.8049
0
VERTEX
8
CUT
10
169.3328
20
138.4824
0
VERTEX
8
CUT
10
169.3511
20
138.4405
0
VERTEX
8
CUT
10
169.3679
20
138.4044
0
VERTEX
8
CUT
10
169.4104
20
138.3234
0
VERTEX
8
CUT
10
169.4177
20
138.3110
0
VERTEX
8
CUT
10
169.4678
20
138.2344
0
VERTEX
8
CUT
10
169.4763
20
138.2228
0
VERTEX
8
CUT
10
169.5335
20
138.1514
0
VERTEX
8
CUT
10
169.5431
20
138.1406
0
VERTEX
8
CUT
10
169.6070
20
138.0751
0
VERTEX
8
CUT
10
169.6175
20
138.0653
0
VERTEX
8
CUT
10
169.6874
20
138.0062
0
VERTEX
8
CUT
10
169.6988
20
137.9975
0
VERTEX
8
CUT
10
169.7741
20
137.9454
0
VERTEX
8
CUT
10
169.7863
20
137.9378
0
VERTEX
8
CUT
10
169.8662
20
137.8932
0
VERTEX
8
CUT
10
169.8791
20
137.8868
0
VERTEX
8
CUT
10
169.9629
20
137.8501
0
VERTEX
8
CUT
10
169.9764
20
137.8450
0
VERTEX
8
CUT
10
170.0634
20
137.8165
0
VERTEX
8
CUT
10
170.0773
20
137.8127
0
VERTEX
8
CUT
10
170.1666
20
137.7928
0
VERTEX
8
CUT
10
170.1808
20
137.7903
0
VERTEX
8
CUT
10
170.2716
20
137.7791
0
VERTEX
8
CUT
10
170.2859
20
137.7780
0
VERTEX
8
CUT
10
170.3774
20
137.7755
0
VERTEX
8
CUT
10
170.3918
20
137.7758
0
VERTEX
8
CUT
10
170.4831
20
137.7822
0
VERTEX
8
CUT
10
170.4974
20
137.7839
0
VERTEX
8
CUT
10
170.5877
20
137.7990
0
VERTEX
8
CUT
10
170.6017
20
137.8021
0
VERTEX
8
CUT
10
170.6901
20
137.8259
0
VERTEX
8
CUT
10
170.7038
20
137.8303
0
VERTEX
8
CUT
10
170.7895
20
137.8624
0
VERTEX
8
CUT
10
170.8027
20
137.8681
0
VERTEX
8
CUT
10
170.8935
20
137.9125
0
VERTEX
8
CUT
10
171.0833
20
137.9942
0
VERTEX
8
CUT
10
171.2802
20
138.0568
0
VERTEX
8
CUT
10
171.4822
20
138.0997
0
VERTEX
8
CUT
10
171.6876
20
138.1226
0
VERTEX
8
CUT
10
171.8942
20
138.1251
0
VERTEX
8
CUT
10
172.1000
20
138.1074
0
VERTEX
8
CUT
10
172.3031
20
138.0695
0
VERTEX
8
CUT
10
172.5015
20
138.0119
0
VERTEX
8
CUT
10
172.6932
20
137.9350
0
VERTEX
8
CUT
10
172.8765
20
137.8397
0
VERTEX
8
CUT
10
173.0496
20
137.7268
0
VERTEX
8
CUT
10
173.2107
20
137.5975
0
VERTEX
8
CUT
10
173.3583
20
137.4529
0
VERTEX
8
CUT
10
173.4910
20
137.2946
0
VERTEX
8
CUT
10
173.6075
20
137.1240
0
VERTEX
8
CUT
10
173.7067
20
136.9427
0
VERTEX
8
CUT
10
173.7875
20
136.7526
0
VERTEX
8
CUT
10
173.8494
20
136.5555
0
VERTEX
8
CUT
10
173.8915
20
136.3532
0
VERTEX
8
CUT
10
173.9136
20
136.1478
0
VERTEX
8
CUT
10
173.9153
20
135.9412
0
VERTEX
8
CUT
10
173.8968
20
135.7355
0
VERTEX
8
CUT
10
173.8581
20
135.5325
0
VERTEX
8
CUT
10
173.7674
20
135.1577
0
VERTEX
8
CUT
10
173.7139
20
134.9738
0
VERTEX
8
CUT
10
173.6439
20
134.7955
0
VERTEX
8
CUT
10
173.5579
20
134.6244
0
VERTEX
8
CUT
10
173.4567
20
134.4618
0
VERTEX
8
CUT
10
173.3410
20
134.3091
0
VERTEX
8
CUT
10
173.2120
20
134.1675
0
VERTEX
8
CUT
10
173.1155
20
134.0710
0
VERTEX
8
CUT
10
173.1055
20
134.0599
0
VERTEX
8
CUT
10
173.0454
20
133.9863
0
VERTEX
8
CUT
10
173.0366
20
133.9743
0
VERTEX
8
CUT
10
172.9841
20
133.8951
0
VERTEX
8
CUT
10
172.9765
20
133.8822
0
VERTEX
8
CUT
10
172.9323
20
133.7982
0
VERTEX
8
CUT
10
172.9260
20
133.7846
0
VERTEX
8
CUT
10
172.8904
20
133.6966
0
VERTEX
8
CUT
10
172.8854
20
133.6824
0
VERTEX
8
CUT
10
172.8588
20
133.5913
0
VERTEX
8
CUT
10
172.8553
20
133.5767
0
VERTEX
8
CUT
10
172.8379
20
133.4833
0
VERTEX
8
CUT
10
172.8359
20
133.4685
0
VERTEX
8
CUT
10
172.8279
20
133.3739
0
VERTEX
8
CUT
10
172.8274
20
133.3589
0
VERTEX
8
CUT
10
172.8289
20
133.2640
0
VERTEX
8
CUT
10
172.8299
20
133.2490
0
VERTEX
8
CUT
10
172.8409
20
133.1547
0
VERTEX
8
CUT
10
172.8434
20
133.1399
0
VERTEX
8
CUT
10
172.8638
20
133.0472
0
VERTEX
8
CUT
10
172.8677
20
133.0327
0
VERTEX
8
CUT
10
172.8972
20
132.9425
0
VERTEX
8
CUT
10
172.9026
20
132.9285
0
VERTEX
8
CUT
10
172.9410
20
132.8416
0
VERTEX
8
CUT
10
172.9477
20
132.8283
0
VERTEX
8
CUT
10
172.9946
20
132.7457
0
VERTEX
8
CUT
10
173.0027
20
132.7331
0
VERTEX
8
CUT
10
173.0576
20
132.6556
0
VERTEX
8
CUT
10
173.0668
20
132.6438
0
VERTEX
8
CUT
10
173.1292
20
132.5722
0
VERTEX
8
CUT
10
173.1396
20
132.5614
0
VERTEX
8
CUT
10
173.2089
20
132.4964
0
VERTEX
8
CUT
10
173.2202
20
132.4867
0
VERTEX
8
CUT
10
173.2956
20
132.4289
0
VERTEX
8
CUT
10
173.3296
20
132.4055
0
VERTEX
8
CUT
10
173.3694
20
132.3795
0
VERTEX
8
CUT
10
174.0547
20
131.9558
0
VERTEX
8
CUT
10
174.0934
20
131.9331
0
VERTEX
8
CUT
10
174.1275
20
131.9142
0
VERTEX
8
CUT
10
174.2080
20
131.8744
0
VERTEX
8
CUT
10
174.2437
20
131.8588
0
VERTEX
8
CUT
10
174.2853
20
131.8418
0
VERTEX
8
CUT
10
175.0327
20
131.5565
0
VERTEX
8
CUT
10
175.0788
20
131.5403
0
VERTEX
8
CUT
10
175.1192
20
131.5272
0
VERTEX
8
CUT
10
175.2137
20
131.5019
0
VERTEX
8
CUT
10
175.2553
20
131.4931
0
VERTEX
8
CUT
10
175.3034
20
131.4841
0
VERTEX
8
CUT
10
176.8483
20
131.2373
0
VERTEX
8
CUT
10
176.8948
20
131.2311
0
VERTEX
8
CUT
10
176.9353
20
131.2266
0
VERTEX
8
CUT
10
177.0290
20
131.2210
0
VERTEX
8
CUT
10
177.0438
20
131.2209
0
VERTEX
8
CUT
10
177.1376
20
131.2246
0
VERTEX
8
CUT
10
177.1523
20
131.2259
0
VERTEX
8
CUT
10
177.2453
20
131.2389
0
VERTEX
8
CUT
10
177.2598
20
131.2416
0
VERTEX
8
CUT
10
177.3510
20
131.2637
0
VERTEX
8
CUT
10
177.3652
20
131.2679
0
VERTEX
8
CUT
10
177.4538
20
131.2988
0
VERTEX
8
CUT
10
177.4675
20
131.3044
0
VERTEX
8
CUT
10
177.5526
20
131.3440
0
VERTEX
8
CUT
10
177.5657
20
131.3508
0
VERTEX
8
CUT
10
177.6465
20
131.3986
0
VERTEX
8
CUT
10
177.6588
20
131.4067
0
VERTEX
8
CUT
10
177.7345
20
131.4623
0
VERTEX
8
CUT
10
177.7460
20
131.4716
0
VERTEX
8
CUT
10
177.8158
20
131.5343
0
VERTEX
8
CUT
10
177.8263
20
131.5447
0
VERTEX
8
CUT
10
177.8896
20
131.6140
0
VERTEX
8
CUT
10
177.8990
20
131.6254
0
VERTEX
8
CUT
10
177.9551
20
131.7007
0
VERTEX
8
CUT
10
177.9634
20
131.7129
0
VERTEX
8
CUT
10
178.0118
20
131.7933
0
VERTEX
8
CUT
10
178.0188
20
131.8063
0
VERTEX
8
CUT
10
178.0344
20
131.8393
0
VERTEX
8
CUT
10
178.1300
20
132.0178
0
VERTEX
8
CUT
10
178.2423
20
132.1863
0
VERTEX
8
CUT
10
178.3703
20
132.3432
0
VERTEX
8
CUT
10
178.5129
20
132.4871
0
VERTEX
8
CUT
10
178.6686
20
132.6165
0
VERTEX
8
CUT
10
178.8361
20
132.7303
0
VERTEX
8
CUT
10
179.0138
20
132.8275
0
VERTEX
8
CUT
10
179.2000
20
132.9071
0
VERTEX
8
CUT
10
179.3930
20
132.9684
0
VERTEX
8
CUT
10
179.5910
20
133.0109
0
VERTEX
8
CUT
10
179.7922
20
133.0340
0
VERTEX
8
CUT
10
179.9946
20
133.0377
0
VERTEX
8
CUT
10
180.1965
20
133.0219
0
VERTEX
8
CUT
10
180.3960
20
132.9867
0
VERTEX
8
CUT
10
180.5911
20
132.9324
0
VERTEX
8
CUT
10
180.7800
20
132.8596
0
VERTEX
8
CUT
10
180.9611
20
132.7689
0
VERTEX
8
CUT
10
181.1326
20
132.6612
0
VERTEX
8
CUT
10
181.2930
20
132.5375
0
VERTEX
8
CUT
10
181.4406
20
132.3990
0
VERTEX
8
CUT
10
181.5315
20
132.3051
0
VERTEX
8
CUT
10
181.5424
20
132.2949
0
VERTEX
8
CUT
10
181.6150
20
132.2335
0
VERTEX
8
CUT
10
181.6269
20
132.2245
0
VERTEX
8
CUT
10
181.7052
20
132.1707
0
VERTEX
8
CUT
10
181.7179
20
132.1629
0
VERTEX
8
CUT
10
181.8012
20
132.1172
0
VERTEX
8
CUT
10
181.8146
20
132.1107
0
VERTEX
8
CUT
10
181.9021
20
132.0736
0
VERTEX
8
CUT
10
181.9161
20
132.0684
0
VERTEX
8
CUT
10
182.0068
20
132.0402
0
VERTEX
8
CUT
10
182.0213
20
132.0365
0
VERTEX
8
CUT
10
182.1143
20
132.0175
0
VERTEX
8
CUT
10
182.1291
20
132.0153
0
VERTEX
8
CUT
10
182.2236
20
132.0057
0
VERTEX
8
CUT
10
182.2385
20
132.0049
0
VERTEX
8
CUT
10
182.3335
20
132.0048
0
VERTEX
8
CUT
10
182.3485
20
132.0056
0
VERTEX
8
CUT
10
182.4430
20
132.0150
0
VERTEX
8
CUT
10
182.4838
20
132.0211
0
VERTEX
8
CUT
10
182.5306
20
132.0293
0
VERTEX
8
CUT
10
182.7802
20
132.0797
0
VERTEX
8
CUT
10
182.8271
20
132.0904
0
VERTEX
8
CUT
10
182.8933
20
132.1073
0
VERTEX
8
CUT
10
182.9395
20
132.1204
0
VERTEX
8
CUT
10
184.7151
20
132.6704
0
VERTEX
8
CUT
10
184.7606
20
132.6858
0
VERTEX
8
CUT
10
184.7998
20
132.7001
0
VERTEX
8
CUT
10
184.8881
20
132.7376
0
VERTEX
8
CUT
10
184.9256
20
132.7558
0
VERTEX
8
CUT
10
184.9595
20
132.7734
0
VERTEX
8
CUT
10
184.9909
20
132.7916
0
VERTEX
8
CUT
10
185.0252
20
132.8128
0
VERTEX
8
CUT
10
185.1019
20
132.8653
0
VERTEX
8
CUT
10
185.1135
20
132.8741
0
VERTEX
8
CUT
10
185.1847
20
132.9339
0
VERTEX
8
CUT
10
185.1954
20
132.9439
0
VERTEX
8
CUT
10
185.2604
20
133.0103
0
VERTEX
8
CUT
10
185.2701
20
133.0212
0
VERTEX
8
CUT
10
185.3283
20
133.0937
0
VERTEX
8
CUT
10
185.3369
20
133.1056
0
VERTEX
8
CUT
10
185.3877
20
133.1834
0
VERTEX
8
CUT
10
185.3951
20
133.1960
0
VERTEX
8
CUT
10
185.4380
20
133.2784
0
VERTEX
8
CUT
10
185.4442
20
133.2917
0
VERTEX
8
CUT
10
185.4789
20
133.3779
0
VERTEX
8
CUT
10
185.4836
20
133.3917
0
VERTEX
8
CUT
10
185.5097
20
133.4809
0
VERTEX
8
CUT
10
185.5131
20
133.4952
0
VERTEX
8
CUT
10
185.5304
20
133.5865
0
VERTEX
8
CUT
10
185.5324
20
133.6010
0
VERTEX
8
CUT
10
185.5406
20
133.6936
0
VERTEX
8
CUT
10
185.5412
20
133.7082
0
VERTEX
8
CUT
10
185.5404
20
133.8011
0
VERTEX
8
CUT
10
185.5395
20
133.8157
0
VERTEX
8
CUT
10
185.5296
20
133.9081
0
VERTEX
8
CUT
10
185.5273
20
133.9226
0
VERTEX
8
CUT
10
185.5084
20
134.0135
0
VERTEX
8
CUT
10
185.5047
20
134.0277
0
VERTEX
8
CUT
10
185.4770
20
134.1164
0
VERTEX
8
CUT
10
185.4719
20
134.1301
0
VERTEX
8
CUT
10
185.4357
20
134.2157
0
VERTEX
8
CUT
10
185.4293
20
134.2289
0
VERTEX
8
CUT
10
185.3848
20
134.3105
0
VERTEX
8
CUT
10
185.3638
20
134.3449
0
VERTEX
8
CUT
10
185.3386
20
134.3840
0
VERTEX
8
CUT
10
183.5504
20
137.0158
0
VERTEX
8
CUT
10
183.5236
20
137.0532
0
VERTEX
8
CUT
10
183.4996
20
137.0852
0
VERTEX
8
CUT
10
183.4407
20
137.1559
0
VERTEX
8
CUT
10
183.4310
20
137.1666
0
VERTEX
8
CUT
10
183.3655
20
137.2313
0
VERTEX
8
CUT
10
183.3548
20
137.2410
0
VERTEX
8
CUT
10
183.2834
20
137.2991
0
VERTEX
8
CUT
10
183.2717
20
137.3077
0
VERTEX
8
CUT
10
183.1950
20
137.3586
0
VERTEX
8
CUT
10
183.1826
20
137.3660
0
VERTEX
8
CUT
10
183.1013
20
137.4092
0
VERTEX
8
CUT
10
183.0882
20
137.4154
0
VERTEX
8
CUT
10
183.0032
20
137.4506
0
VERTEX
8
CUT
10
182.9896
20
137.4554
0
VERTEX
8
CUT
10
182.9015
20
137.4822
0
VERTEX
8
CUT
10
182.8875
20
137.4857
0
VERTEX
8
CUT
10
182.7972
20
137.5039
0
VERTEX
8
CUT
10
182.7829
20
137.5060
0
VERTEX
8
CUT
10
182.6913
20
137.5153
0
VERTEX
8
CUT
10
182.6769
20
137.5161
0
VERTEX
8
CUT
10
182.5848
20
137.5165
0
VERTEX
8
CUT
10
182.5704
20
137.5158
0
VERTEX
8
CUT
10
182.4787
20
137.5073
0
VERTEX
8
CUT
10
182.4644
20
137.5053
0
VERTEX
8
CUT
10
182.3740
20
137.4879
0
VERTEX
8
CUT
10
182.3599
20
137.4845
0
VERTEX
8
CUT
10
182.2717
20
137.4584
0
VERTEX
8
CUT
10
182.2580
20
137.4537
0
VERTEX
8
CUT
10
182.1726
20
137.4192
0
VERTEX
8
CUT
10
182.1595
20
137.4131
0
VERTEX
8
CUT
10
182.0779
20
137.3706
0
VERTEX
8
CUT
10
182.0654
20
137.3633
0
VERTEX
8
CUT
10
181.9883
20
137.3130
0
VERTEX
8
CUT
10
181.9766
20
137.3045
0
VERTEX
8
CUT
10
181.9047
20
137.2470
0
VERTEX
8
CUT
10
181.8938
20
137.2375
0
VERTEX
8
CUT
10
181.8279
20
137.1733
0
VERTEX
8
CUT
10
181.8180
20
137.1627
0
VERTEX
8
CUT
10
181.7585
20
137.0924
0
VERTEX
8
CUT
10
181.7497
20
137.0809
0
VERTEX
8
CUT
10
181.6974
20
137.0052
0
VERTEX
8
CUT
10
181.6897
20
136.9929
0
VERTEX
8
CUT
10
181.6449
20
136.9125
0
VERTEX
8
CUT
10
181.6385
20
136.8995
0
VERTEX
8
CUT
10
181.6017
20
136.8152
0
VERTEX
8
CUT
10
181.5966
20
136.8016
0
VERTEX
8
CUT
10
181.5681
20
136.7141
0
VERTEX
8
CUT
10
181.5643
20
136.7001
0
VERTEX
8
CUT
10
181.5463
20
136.6182
0
VERTEX
8
CUT
10
181.4928
20
136.4217
0
VERTEX
8
CUT
10
181.4205
20
136.2312
0
VERTEX
8
CUT
10
181.3301
20
136.0487
0
VERTEX
8
CUT
10
181.2224
20
135.8758
0
VERTEX
8
CUT
10
181.0985
20
135.7141
0
VERTEX
8
CUT
10
180.9595
20
135.5652
0
VERTEX
8
CUT
10
180.8067
20
135.4304
0
VERTEX
8
CUT
10
180.6416
20
135.3111
0
VERTEX
8
CUT
10
180.4658
20
135.2084
0
VERTEX
8
CUT
10
180.2807
20
135.1231
0
VERTEX
8
CUT
10
180.0883
20
135.0562
0
VERTEX
8
CUT
10
179.8904
20
135.0083
0
VERTEX
8
CUT
10
179.6887
20
134.9797
0
VERTEX
8
CUT
10
179.4852
20
134.9709
0
VERTEX
8
CUT
10
179.2818
20
134.9817
0
VERTEX
8
CUT
10
179.0804
20
135.0123
0
VERTEX
8
CUT
10
178.8829
20
135.0622
0
VERTEX
8
CUT
10
178.6912
20
135.1310
0
VERTEX
8
CUT
10
178.5070
20
135.2181
0
VERTEX
8
CUT
10
178.3321
20
135.3226
0
VERTEX
8
CUT
10
178.1682
20
135.4435
0
VERTEX
8
CUT
10
178.0168
20
135.5798
0
VERTEX
8
CUT
10
177.8793
20
135.7301
0
VERTEX
8
CUT
10
177.7570
20
135.8930
0
VERTEX
8
CUT
10
177.6511
20
136.0670
0
VERTEX
8
CUT
10
177.6288
20
136.1080
0
VERTEX
8
CUT
10
177.6045
20
136.1471
0
VERTEX
8
CUT
10
177.5754
20
136.1915
0
VERTEX
8
CUT
10
177.2281
20
136.6881
0
VERTEX
8
CUT
10
177.2011
20
136.7248
0
VERTEX
8
CUT
10
177.1769
20
136.7561
0
VERTEX
8
CUT
10
177.1178
20
136.8254
0
VERTEX
8
CUT
10
177.1080
20
136.8358
0
VERTEX
8
CUT
10
177.0425
20
136.8991
0
VERTEX
8
CUT
10
177.0317
20
136.9086
0
VERTEX
8
CUT
10
176.9605
20
136.9654
0
VERTEX
8
CUT
10
176.9489
20
136.9737
0
VERTEX
8
CUT
10
176.8725
20
137.0234
0
VERTEX
8
CUT
10
176.8384
20
137.0433
0
VERTEX
8
CUT
10
176.7985
20
137.0654
0
VERTEX
8
CUT
10
176.4561
20
137.2439
0
VERTEX
8
CUT
10
176.4170
20
137.2632
0
VERTEX
8
CUT
10
176.3828
20
137.2791
0
VERTEX
8
CUT
10
176.3022
20
137.3121
0
VERTEX
8
CUT
10
176.2893
20
137.3167
0
VERTEX
8
CUT
10
176.2060
20
137.3422
0
VERTEX
8
CUT
10
176.1927
20
137.3456
0
VERTEX
8
CUT
10
176.1075
20
137.3634
0
VERTEX
8
CUT
10
176.0939
20
137.3656
0
VERTEX
8
CUT
10
176.0074
20
137.3754
0
VERTEX
8
CUT
10
175.9937
20
137.3764
0
VERTEX
8
CUT
10
175.9067
20
137.3783
0
VERTEX
8
CUT
10
175.8689
20
137.3774
0
VERTEX
8
CUT
10
175.8471
20
137.3764
0
VERTEX
8
CUT
10
175.8204
20
137.3739
0
VERTEX
8
CUT
10
175.7854
20
137.3699
0
VERTEX
8
CUT
10
175.7008
20
137.3562
0
VERTEX
8
CUT
10
175.6876
20
137.3535
0
VERTEX
8
CUT
10
175.6045
20
137.3322
0
VERTEX
8
CUT
10
175.5916
20
137.3283
0
VERTEX
8
CUT
10
175.5109
20
137.2997
0
VERTEX
8
CUT
10
175.4544
20
137.2767
0
VERTEX
8
CUT
10
175.4539
20
137.2781
0
VERTEX
8
CUT
10
175.3281
20
137.2276
0
VERTEX
8
CUT
10
175.1283
20
137.1696
0
VERTEX
8
CUT
10
174.9238
20
137.1317
0
VERTEX
8
CUT
10
174.7166
20
137.1142
0
VERTEX
8
CUT
10
174.5086
20
137.1173
0
VERTEX
8
CUT
10
174.3019
20
137.1410
0
VERTEX
8
CUT
10
174.0987
20
137.1849
0
VERTEX
8
CUT
10
173.9007
20
137.2488
0
VERTEX
8
CUT
10
173.7101
20
137.3319
0
VERTEX
8
CUT
10
173.5286
20
137.4335
0
VERTEX
8
CUT
10
173.3580
20
137.5525
0
VERTEX
8
CUT
10
173.2001
20
137.6879
0
VERTEX
8
CUT
10
173.0563
20
137.8381
0
VERTEX
8
CUT
10
172.9281
20
138.0019
0
VERTEX
8
CUT
10
172.8167
20
138.1776
0
VERTEX
8
CUT
10
172.7232
20
138.3634
0
VERTEX
8
CUT
10
172.6486
20
138.5575
0
VERTEX
8
CUT
10
172.5936
20
138.7581
0
VERTEX
8
CUT
10
172.5586
20
138.9631
0
VERTEX
8
CUT
10
172.5441
20
139.1706
0
VERTEX
8
CUT
10
172.5502
20
139.3785
0
VERTEX
8
CUT
10
172.5769
20
139.5848
0
VERTEX
8
CUT
10
172.6238
20
139.7874
0
VERTEX
8
CUT
10
172.6905
20
139.9844
0
VERTEX
8
CUT
10
172.7764
20
140.1738
0
VERTEX
8
CUT
10
172.8153
20
140.2494
0
VERTEX
8
CUT
10
172.8214
20
140.2629
0
VERTEX
8
CUT
10
172.8560
20
140.3506
0
VERTEX
8
CUT
10
172.8608
20
140.3647
0
VERTEX
8
CUT
10
172.8865
20
140.4554
0
VERTEX
8
CUT
10
172.8899
20
140.4698
0
VERTEX
8
CUT
10
172.9065
20
140.5627
0
VERTEX
8
CUT
10
172.9084
20
140.5774
0
VERTEX
8
CUT
10
172.9157
20
140.6714
0
VERTEX
8
CUT
10
172.9161
20
140.6862
0
VERTEX
8
CUT
10
172.9141
20
140.7805
0
VERTEX
8
CUT
10
172.9130
20
140.7953
0
VERTEX
8
CUT
10
172.9017
20
140.8889
0
VERTEX
8
CUT
10
172.8991
20
140.9035
0
VERTEX
8
CUT
10
172.8785
20
140.9955
0
VERTEX
8
CUT
10
172.8746
20
141.0098
0
VERTEX
8
CUT
10
172.8449
20
141.0993
0
VERTEX
8
CUT
10
172.8396
20
141.1131
0
VERTEX
8
CUT
10
172.8012
20
141.1993
0
VERTEX
8
CUT
10
172.7945
20
141.2125
0
VERTEX
8
CUT
10
172.7478
20
141.2944
0
VERTEX
8
CUT
10
172.7398
20
141.3069
0
VERTEX
8
CUT
10
172.6852
20
141.3838
0
VERTEX
8
CUT
10
172.6760
20
141.3954
0
VERTEX
8
CUT
10
172.6141
20
141.4665
0
VERTEX
8
CUT
10
172.6038
20
141.4772
0
VERTEX
8
CUT
10
172.5351
20
141.5417
0
VERTEX
8
CUT
10
172.5238
20
141.5514
0
VERTEX
8
CUT
10
172.4490
20
141.6088
0
VERTEX
8
CUT
10
172.4368
20
141.6172
0
VERTEX
8
CUT
10
172.3567
20
141.6670
0
VERTEX
8
CUT
10
172.3437
20
141.6742
0
VERTEX
8
CUT
10
172.2591
20
141.7157
0
VERTEX
8
CUT
10
172.2215
20
141.7319
0
VERTEX
8
CUT
10
172.1777
20
141.7495
0
VERTEX
8
CUT
10
171.4045
20
142.0378
0
VERTEX
8
CUT
10
171.1901
20
142.1316
0
VERTEX
8
CUT
10
170.9875
20
142.2488
0
VERTEX
8
CUT
10
169.5261
20
143.2060
0
VERTEX
8
CUT
10
169.4859
20
143.2310
0
VERTEX
8
CUT
10
169.4504
20
143.2517
0
VERTEX
8
CUT
10
169.3666
20
143.2954
0
VERTEX
8
CUT
10
169.3531
20
143.3016
0
VERTEX
8
CUT
10
169.2653
20
143.3367
0
VERTEX
8
CUT
10
169.2512
20
143.3416
0
VERTEX
8
CUT
10
169.1603
20
143.3678
0
VERTEX
8
CUT
10
169.1459
20
143.3712
0
VERTEX
8
CUT
10
169.0528
20
143.3882
0
VERTEX
8
CUT
10
169.0381
20
143.3902
0
VERTEX
8
CUT
10
168.9438
20
143.3979
0
VERTEX
8
CUT
10
168.9290
20
143.3984
0
VERTEX
8
CUT
10
168.8344
20
143.3967
0
VERTEX
8
CUT
10
168.8196
20
143.3957
0
VERTEX
8
CUT
10
168.7257
20
143.3846
0
VERTEX
8
CUT
10
168.7110
20
143.3821
0
VERTEX
8
CUT
10
168.6187
20
143.3617
0
VERTEX
8
CUT
10
168.6043
20
143.3578
0
VERTEX
8
CUT
10
168.5145
20
143.3283
0
VERTEX
8
CUT
10
168.5006
20
143.3230
0
VERTEX
8
CUT
10
168.4141
20
143.2847
0
VERTEX
8
CUT
10
168.4008
20
143.2780
0
VERTEX
8
CUT
10
168.3186
20
143.2313
0
VERTEX
8
CUT
10
168.3060
20
143.2234
0
VERTEX
8
CUT
10
168.2288
20
143.1687
0
VERTEX
8
CUT
10
168.2171
20
143.1595
0
VERTEX
8
CUT
10
168.1458
20
143.0975
0
VERTEX
8
CUT
10
168.1350
20
143.0872
0
VERTEX
8
CUT
10
168.0702
20
143.0184
0
VERTEX
8
CUT
10
168.0605
20
143.0070
0
VERTEX
8
CUT
10
168.0029
20
142.9321
0
VERTEX
8
CUT
10
167.9944
20
142.9199
0
VERTEX
8
CUT
10
167.9444
20
142.8396
0
VERTEX
8
CUT
10
167.9372
20
142.8266
0
VERTEX
8
CUT
10
167.8955
20
142.7417
0
VERTEX
8
CUT
10
167.8896
20
142.7280
0
VERTEX
8
CUT
10
167.8566
20
142.6394
0
VERTEX
8
CUT
10
167.8521
20
142.6252
0
VERTEX
8
CUT
10
167.8280
20
142.5338
0
VERTEX
8
CUT
10
167.8250
20
142.5192
0
VERTEX
8
CUT
10
167.8101
20
142.4258
0
VERTEX
8
CUT
10
167.8085
20
142.4111
0
VERTEX
8
CUT
10
167.8030
20
142.3166
0
VERTEX
8
CUT
10
167.8029
20
142.3018
0
VERTEX
8
CUT
10
167.8068
20
142.2073
0
VERTEX
8
CUT
10
167.8082
20
142.1925
0
VERTEX
8
CUT
10
167.8215
20
142.0988
0
VERTEX
8
CUT
10
167.8243
20
142.0842
0
VERTEX
8
CUT
10
167.8469
20
141.9924
0
VERTEX
8
CUT
10
167.8512
20
141.9782
0
VERTEX
8
CUT
10
167.8828
20
141.8890
0
VERTEX
8
CUT
10
167.8984
20
141.8511
0
VERTEX
8
CUT
10
167.9175
20
141.8078
0
SEQEND
0
POLYLINE
8
CUT
66
1
70
1
10
0.0
20
0.0
30
0.0
0
VERTEX
8
CUT
10
159.3101
20
199.6429
0
VERTEX
8
CUT
10
159.1137
20
199.6640
0
VERTEX
8
CUT
10
158.9201
20
199.7035
0
VERTEX
8
CUT
10
158.7310
20
199.7610
0
VERTEX
8
CUT
10
158.5482
20
199.8361
0
VERTEX
8
CUT
10
156.6897
20
200.7033
0
VERTEX
8
CUT
10
156.6480
20
200.7215
0
VERTEX
8
CUT
10
156.6115
20
200.7365
0
VERTEX
8
CUT
10
156.5257
20
200.7669
0
VERTEX
8
CUT
10
156.5120
20
200.7710
0
VERTEX
8
CUT
10
156.4238
20
200.7931
0
VERTEX
8
CUT
10
156.4098
20
200.7959
0
VERTEX
8
CUT
10
156.3198
20
200.8094
0
VERTEX
8
CUT
10
156.3056
20
200.8108
0
VERTEX
8
CUT
10
156.2147
20
200.8156
0
VERTEX
8
CUT
10
156.2004
20
200.8157
0
VERTEX
8
CUT
10
156.1095
20
200.8118
0
VERTEX
8
CUT
10
156.0953
20
200.8105
0
VERTEX
8
CUT
10
156.0052
20
200.7980
0
VERTEX
8
CUT
10
155.9911
20
200.7953
0
VERTEX
8
CUT
10
155.9026
20
200.7742
0
VERTEX
8
CUT
10
155.8889
20
200.7702
0
VERTEX
8
CUT
10
155.8028
20
200.7407
0
VERTEX
8
CUT
10
155.7661
20
200.7261
0
VERTEX
8
CUT
10
155.7242
20
200.7083
0
VERTEX
8
CUT
10
154.7266
20
200.2555
0
VERTEX
8
CUT
10
154.6793
20
200.2324
0
VERTEX
8
CUT
10
154.6388
20
200.2113
0
VERTEX
8
CUT
10
154.5485
20
200.1575
0
VERTEX
8
CUT
10
154.5348
20
200.1483
0
VERTEX
8
CUT
10
154.4510
20
200.0849
0
VERTEX
8
CUT
10
154.4162
20
200.0554
0
VERTEX
8
CUT
10
154.3770
20
200.0203
0
VERTEX
8
CUT
10
153.6909
20
199.3701
0
VERTEX
8
CUT
10
153.6566
20
199.3360
0
VERTEX
8
CUT
10
153.6277
20
199.3057
0
VERTEX
8
CUT
10
153.5648
20
199.2325
0
VERTEX
8
CUT
10
153.5554
20
199.2205
0
VERTEX
8
CUT
10
153.5002
20
199.1413
0
VERTEX
8
CUT
10
153.4922
20
199.1284
0
VERTEX
8
CUT
10
153.4453
20
199.0440
0
VERTEX
8
CUT
10
153.4268
20
199.0064
0
VERTEX
8
CUT
10
153.4067
20
198.9625
0
VERTEX
8
CUT
10
153.1934
20
198.4655
0
VERTEX
8
CUT
10
153.1778
20
198.4267
0
VERTEX
8
CUT
10
153.1649
20
198.3927
0
VERTEX
8
CUT
10
153.1388
20
198.3132
0
VERTEX
8
CUT
10
153.1353
20
198.3005
0
VERTEX
8
CUT
10
153.1163
20
198.2191
0
VERTEX
8
CUT
10
153.1139
20
198.2061
0
VERTEX
8
CUT
10
153.1021
20
198.1232
0
VERTEX
8
CUT
10
153.0986
20
198.0871
0
VERTEX
8
CUT
10
153.0955
20
198.0453
0
VERTEX
8
CUT
10
153.0463
20
197.1125
0
VERTEX
8
CUT
10
153.0450
20
197.0676
0
VERTEX
8
CUT
10
153.0447
20
197.0287
0
VERTEX
8
CUT
10
153.0485
20
196.9392
0
VERTEX
8
CUT
10
153.0497
20
196.9251
0
VERTEX
8
CUT
10
153.0619
20
196.8363
0
VERTEX
8
CUT
10
153.0645
20
196.8225
0
VERTEX
8
CUT
10
153.0850
20
196.7352
0
VERTEX
8
CUT
10
153.0888
20
196.7216
0
VERTEX
8
CUT
10
153.1174
20
196.6367
0
VERTEX
8
CUT
10
153.1316
20
196.6005
0
VERTEX
8
CUT
10
153.1489
20
196.5591
0
VERTEX
8
CUT
10
153.5171
20
195.7334
0
VERTEX
8
CUT
10
153.5357
20
195.6941
0
VERTEX
8
CUT
10
153.5527
20
195.6604
0
VERTEX
8
CUT
10
153.5952
20
195.5845
0
VERTEX
8
CUT
10
153.6024
20
195.5729
0
VERTEX
8
CUT
10
153.6517
20
195.5012
0
VERTEX
8
CUT
10
153.6600
20
195.4903
0
VERTEX
8
CUT
10
153.7157
20
195.4235
0
VERTEX
8
CUT
10
153.7411
20
195.3956
0
VERTEX
8
CUT
10
153.7712
20
195.3642
0
VERTEX
8
CUT
10
154.6124
20
194.5240
0
VERTEX
8
CUT
10
154.6426
20
194.4952
0
VERTEX
8
CUT
10
154.6693
20
194.4707
0
VERTEX
8
CUT
10
154.7333
20
194.4172
0
VERTEX
8
CUT
10
154.7438
20
194.4092
0
VERTEX
8
CUT
10
154.8123
20
194.3614
0
VERTEX
8
CUT
10
154.8234
20
194.3544
0
VERTEX
8
CUT
10
154.8958
20
194.3129
0
VERTEX
8
CUT
10
154.9279
20
194.2962
0
VERTEX
8
CUT
10
154.9655
20
194.2779
0
VERTEX
8
CUT
10
155.8416
20
193.8729
0
VERTEX
8
CUT
10
155.8879
20
193.8529
0
VERTEX
8
CUT
10
155.9285
20
193.8367
0
VERTEX
8
CUT
10
156.0240
20
193.8044
0
VERTEX
8
CUT
10
156.0392
20
193.8001
0
VERTEX
8
CUT
10
156.1376
20
193.7780
0
VERTEX
8
CUT
10
156.1532
20
193.7754
0
VERTEX
8
CUT
10
156.2533
20
193.7639
0
VERTEX
8
CUT
10
156.2691
20
193.7629
0
VERTEX
8
CUT
10
156.3699
20
193.7621
0
VERTEX
8
CUT
10
156.3857
20
193.7628
0
VERTEX
8
CUT
10
156.4860
20
193.7727
0
VERTEX
8
CUT
10
156.5293
20
193.7793
0
VERTEX
8
CUT
10
156.5789
20
193.7882
0
VERTEX
8
CUT
10
157.3596
20
193.9499
0
VERTEX
8
CUT
10
157.4093
20
193.9616
0
VERTEX
8
CUT
10
157.4522
20
193.9730
0
VERTEX
8
CUT
10
157.5495
20
194.0043
0
VERTEX
8
CUT
10
157.5909
20
194.0202
0
VERTEX
8
CUT
10
157.6381
20
194.0398
0
VERTEX
8
CUT
10
158.3010
20
194.3355
0
VERTEX
8
CUT
10
158.3414
20
194.3547
0
VERTEX
8
CUT
10
158.3761
20
194.3722
0
VERTEX
8
CUT
10
158.4539
20
194.4161
0
VERTEX
8
CUT
10
158.4659
20
194.4236
0
VERTEX
8
CUT
10
158.5393
20
194.4747
0
VERTEX
8
CUT
10
158.5701
20
194.4984
0
VERTEX
8
CUT
10
158.6049
20
194.5265
0
VERTEX
8
CUT
10
159.0161
20
194.8746
0
VERTEX
8
CUT
10
159.0514
20
194.9060
0
VERTEX
8
CUT
10
159.0813
20
194.9339
0
VERTEX
8
CUT
10
159.1469
20
195.0017
0
VERTEX
8
CUT
10
159.1567
20
195.0129
0
VERTEX
8
CUT
10
159.2152
20
195.0869
0
VERTEX
8
CUT
10
159.2239
20
195.0990
0
VERTEX
8
CUT
10
159.2748
20
195.1784
0
VERTEX
8
CUT
10
159.2822
20
195.1913
0
VERTEX
8
CUT
10
159.3250
20
195.2754
0
VERTEX
8
CUT
10
159.3310
20
195.2890
0
VERTEX
8
CUT
10
159.3653
20
195.3769
0
VERTEX
8
CUT
10
159.3782
20
195.4157
0
VERTEX
8
CUT
10
159.3920
20
195.4609
0
VERTEX
8
CUT
10
159.8926
20
197.2573
0
VERTEX
8
CUT
10
159.9517
20
197.4374
0
VERTEX
8
CUT
10
160.0268
20
197.6115
0
VERTEX
8
CUT
10
160.1173
20
197.7781
0
VERTEX
8
CUT
10
160.1910
20
197.8887
0
VERTEX
8
CUT
10
160.1909
20
197.8887
0
VERTEX
8
CUT
10
160.2272
20
197.9435
0
VERTEX
8
CUT
10
160.2744
20
198.0231
0
VERTEX
8
CUT
10
160.2812
20
198.0359
0
VERTEX
8
CUT
10
160.3204
20
198.1197
0
VERTEX
8
CUT
10
160.3259
20
198.1331
0
VERTEX
8
CUT
10
160.3568
20
198.2203
0
VERTEX
8
CUT
10
160.3610
20
198.2342
0
VERTEX
8
CUT
10
160.3833
20
198.3240
0
VERTEX
8
CUT
10
160.3861
20
198.3382
0
VERTEX
8
CUT
10
160.3995
20
198.4297
0
VERTEX
8
CUT
10
160.4009
20
198.4442
0
VERTEX
8
CUT
10
160.4054
20
198.5366
0
VERTEX
8
CUT
10
160.4054
20
198.5511
0
VERTEX
8
CUT
10
160.4009
20
198.6435
0
VERTEX
8
CUT
10
160.3995
20
198.6580
0
VERTEX
8
CUT
10
160.3860
20
198.7495
0
VERTEX
8
CUT
10
160.3831
20
198.7637
0
VERTEX
8
CUT
10
160.3608
20
198.8535
0
VERTEX
8
CUT
10
160.3566
20
198.8674
0
VERTEX
8
CUT
10
160.3256
20
198.9545
0
VERTEX
8
CUT
10
160.3201
20
198.9680
0
VERTEX
8
CUT
10
160.2808
20
199.0517
0
VERTEX
8
CUT
10
160.2740
20
199.0646
0
VERTEX
8
CUT
10
160.2267
20
199.1441
0
VERTEX
8
CUT
10
160.2187
20
199.1562
0
VERTEX
8
CUT
10
160.1640
20
199.2307
0
VERTEX
8
CUT
10
160.1548
20
199.2420
0
VERTEX
8
CUT
10
160.0930
20
199.3108
0
VERTEX
8
CUT
10
160.0828
20
199.3212
0
VERTEX
8
CUT
10
160.0146
20
199.3837
0
VERTEX
8
CUT
10
160.0035
20
199.3930
0
VERTEX
8
CUT
10
159.9295
20
199.4486
0
VERTEX
8
CUT
10
159.9175
20
199.4567
0
VERTEX
8
CUT
10
159.8385
20
199.5048
0
VERTEX
8
CUT
10
159.8258
20
199.5118
0
VERTEX
8
CUT
10
159.7425
20
199.5520
0
VERTEX
8
CUT
10
159.7291
20
199.5577
0
VERTEX
8
CUT
10
159.6423
20
199.5896
0
VERTEX
8
CUT
10
159.6284
20
199.5940
0
VERTEX
8
CUT
10
159.5389
20
199.6173
0
VERTEX
8
CUT
10
159.5247
20
199.6203
0
VERTEX
8
CUT
10
159.4334
20
199.6348
0
VERTEX
8
CUT
10
159.4189
20
199.6363
0
SEQEND
0
POLYLINE
8
CUT
66
1
70
1
10
0.0
20
0.0
30
0.0
0
VERTEX
8
CUT
10
144.2817
20
211.7039
0
VERTEX
8
CUT
10
144.2375
20
211.6885
0
VERTEX
8
CUT
10
144.1996
20
211.6743
0
VERTEX
8
CUT
10
144.1138
20
211.6372
0
VERTEX
8
CUT
10
144.1006
20
211.6307
0
VERTEX
8
CUT
10
144.0189
20
211.5854
0
VERTEX
8
CUT
10
144.0064
20
211.5776
0
VERTEX
8
CUT
10
143.9296
20
211.5245
0
VERTEX
8
CUT
10
143.9179
20
211.5155
0
VERTEX
8
CUT
10
143.8467
20
211.4551
0
VERTEX
8
CUT
10
143.8360
20
211.4450
0
VERTEX
8
CUT
10
143.7710
20
211.3779
0
VERTEX
8
CUT
10
143.7613
20
211.3668
0
VERTEX
8
CUT
10
143.7033
20
211.2936
0
VERTEX
8
CUT
10
143.6947
20
211.2816
0
VERTEX
8
CUT
10
143.6442
20
211.2031
0
VERTEX
8
CUT
10
143.6368
20
211.1903
0
VERTEX
8
CUT
10
143.5942
20
211.1072
0
VERTEX
8
CUT
10
143.5882
20
211.0938
0
VERTEX
8
CUT
10
143.5540
20
211.0068
0
VERTEX
8
CUT
10
143.5492
20
210.9929
0
VERTEX
8
CUT
10
143.5237
20
210.9030
0
VERTEX
8
CUT
10
143.5204
20
210.8887
0
VERTEX
8
CUT
10
143.5039
20
210.7968
0
VERTEX
8
CUT
10
143.5020
20
210.7822
0
VERTEX
8
CUT
10
143.4946
20
210.6890
0
VERTEX
8
CUT
10
143.4941
20
210.6743
0
VERTEX
8
CUT
10
143.4959
20
210.5809
0
VERTEX
8
CUT
10
143.4969
20
210.5663
0
VERTEX
8
CUT
10
143.5078
20
210.4735
0
VERTEX
8
CUT
10
143.5103
20
210.4590
0
VERTEX
8
CUT
10
143.5303
20
210.3677
0
VERTEX
8
CUT
10
143.5341
20
210.3535
0
VERTEX
8
CUT
10
143.5630
20
210.2647
0
VERTEX
8
CUT
10
143.5682
20
210.2509
0
VERTEX
8
CUT
10
143.6057
20
210.1653
0
VERTEX
8
CUT
10
143.6123
20
210.1522
0
VERTEX
8
CUT
10
143.6580
20
210.0707
0
VERTEX
8
CUT
10
143.6658
20
210.0582
0
VERTEX
8
CUT
10
143.7193
20
209.9816
0
VERTEX
8
CUT
10
143.7283
20
209.9700
0
VERTEX
8
CUT
10
143.7890
20
209.8990
0
VERTEX
8
CUT
10
143.7991
20
209.8884
0
VERTEX
8
CUT
10
143.8666
20
209.8237
0
VERTEX
8
CUT
10
143.8777
20
209.8141
0
VERTEX
8
CUT
10
143.9511
20
209.7564
0
VERTEX
8
CUT
10
143.9631
20
209.7479
0
VERTEX
8
CUT
10
144.0419
20
209.6976
0
VERTEX
8
CUT
10
144.0547
20
209.6904
0
VERTEX
8
CUT
10
144.1380
20
209.6481
0
VERTEX
8
CUT
10
144.1515
20
209.6422
0
VERTEX
8
CUT
10
144.2386
20
209.6083
0
VERTEX
8
CUT
10
144.2525
20
209.6037
0
VERTEX
8
CUT
10
144.3425
20
209.5786
0
VERTEX
8
CUT
10
144.3568
20
209.5753
0
VERTEX
8
CUT
10
144.4489
20
209.5592
0
VERTEX
8
CUT
10
144.4891
20
209.5542
0
VERTEX
8
CUT
10
144.5356
20
209.5495
0
VERTEX
8
CUT
10
144.8466
20
209.5261
0
VERTEX
8
CUT
10
145.0283
20
209.5045
0
VERTEX
8
CUT
10
145.2075
20
209.4671
0
VERTEX
8
CUT
10
145.3827
20
209.4142
0
VERTEX
8
CUT
10
146.8618
20
208.8966
0
VERTEX
8
CUT
10
147.0955
20
208.7986
0
VERTEX
8
CUT
10
147.3156
20
208.6733
0
VERTEX
8
CUT
10
148.3802
20
207.9788
0
VERTEX
8
CUT
10
148.5439
20
207.8604
0
VERTEX
8
CUT
10
148.6954
20
207.7268
0
VERTEX
8
CUT
10
148.8335
20
207.5793
0
VERTEX
8
CUT
10
148.9567
20
207.4192
0
VERTEX
8
CUT
10
149.1401
20
207.1554
0
VERTEX
8
CUT
10
149.1673
20
207.1183
0
VERTEX
8
CUT
10
149.1917
20
207.0866
0
VERTEX
8
CUT
10
149.2513
20
207.0165
0
VERTEX
8
CUT
10
149.2612
20
207.0060
0
VERTEX
8
CUT
10
149.3273
20
206.9420
0
VERTEX
8
CUT
10
149.3382
20
206.9324
0
VERTEX
8
CUT
10
149.4102
20
206.8751
0
VERTEX
8
CUT
10
149.4220
20
206.8667
0
VERTEX
8
CUT
10
149.4992
20
206.8166
0
VERTEX
8
CUT
10
149.5117
20
206.8094
0
VERTEX
8
CUT
10
149.5934
20
206.7670
0
VERTEX
8
CUT
10
149.6066
20
206.7610
0
VERTEX
8
CUT
10
149.6920
20
206.7267
0
VERTEX
8
CUT
10
149.7056
20
206.7220
0
VERTEX
8
CUT
10
149.7940
20
206.6962
0
VERTEX
8
CUT
10
149.8080
20
206.6928
0
VERTEX
8
CUT
10
149.8985
20
206.6757
0
VERTEX
8
CUT
10
149.9128
20
206.6737
0
VERTEX
8
CUT
10
150.0044
20
206.6654
0
VERTEX
8
CUT
10
150.0189
20
206.6648
0
VERTEX
8
CUT
10
150.1109
20
206.6654
0
VERTEX
8
CUT
10
150.1254
20
206.6662
0
VERTEX
8
CUT
10
150.2169
20
206.6757
0
VERTEX
8
CUT
10
150.2312
20
206.6779
0
VERTEX
8
CUT
10
150.3214
20
206.6962
0
VERTEX
8
CUT
10
150.3354
20
206.6998
0
VERTEX
8
CUT
10
150.4234
20
206.7267
0
VERTEX
8
CUT
10
150.4370
20
206.7316
0
VERTEX
8
CUT
10
150.5219
20
206.7670
0
VERTEX
8
CUT
10
150.5350
20
206.7732
0
VERTEX
8
CUT
10
150.6161
20
206.8166
0
VERTEX
8
CUT
10
150.6286
20
206.8241
0
VERTEX
8
CUT
10
150.7051
20
206.8751
0
VERTEX
8
CUT
10
150.7168
20
206.8837
0
VERTEX
8
CUT
10
150.7880
20
206.9420
0
VERTEX
8
CUT
10
150.7987
20
206.9517
0
VERTEX
8
CUT
10
150.8640
20
207.0165
0
VERTEX
8
CUT
10
150.8738
20
207.0272
0
VERTEX
8
CUT
10
150.9325
20
207.0981
0
VERTEX
8
CUT
10
150.9564
20
207.1300
0
VERTEX
8
CUT
10
150.9831
20
207.1676
0
VERTEX
8
CUT
10
151.2676
20
207.5882
0
VERTEX
8
CUT
10
151.3785
20
207.7375
0
VERTEX
8
CUT
10
151.5022
20
207.8764
0
VERTEX
8
CUT
10
151.6378
20
208.0039
0
VERTEX
8
CUT
10
151.7840
20
208.1188
0
VERTEX
8
CUT
10
151.9399
20
208.2203
0
VERTEX
8
CUT
10
152.7959
20
208.7254
0
VERTEX
8
CUT
10
152.9556
20
208.8106
0
VERTEX
8
CUT
10
153.1220
20
208.8817
0
VERTEX
8
CUT
10
153.2940
20
208.9382
0
VERTEX
8
CUT
10
155.5699
20
209.5790
0
VERTEX
8
CUT
10
155.6141
20
209.5926
0
VERTEX
8
CUT
10
155.6521
20
209.6053
0
VERTEX
8
CUT
10
155.7382
20
209.6389
0
VERTEX
8
CUT
10
155.7515
20
209.6448
0
VERTEX
8
CUT
10
155.8339
20
209.6866
0
VERTEX
8
CUT
10
155.8465
20
209.6938
0
VERTEX
8
CUT
10
155.9245
20
209.7434
0
VERTEX
8
CUT
10
155.9364
20
209.7518
0
VERTEX
8
CUT
10
156.0092
20
209.8088
0
VERTEX
8
CUT
10
156.0202
20
209.8183
0
VERTEX
8
CUT
10
156.0871
20
209.8820
0
VERTEX
8
CUT
10
156.0971
20
209.8926
0
VERTEX
8
CUT
10
156.1575
20
209.9625
0
VERTEX
8
CUT
10
156.1665
20
209.9740
0
VERTEX
8
CUT
10
156.2197
20
210.0495
0
VERTEX
8
CUT
10
156.2275
20
210.0618
0
VERTEX
8
CUT
10
156.2732
20
210.1421
0
VERTEX
8
CUT
10
156.2798
20
210.1551
0
VERTEX
8
CUT
10
156.3175
20
210.2395
0
VERTEX
8
CUT
10
156.3228
20
210.2530
0
VERTEX
8
CUT
10
156.3521
20
210.3407
0
VERTEX
8
CUT
10
156.3560
20
210.3547
0
VERTEX
8
CUT
10
156.3766
20
210.4447
0
VERTEX
8
CUT
10
156.3792
20
210.4591
0
VERTEX
8
CUT
10
156.3909
20
210.5507
0
VERTEX
8
CUT
10
156.3921
20
210.5652
0
VERTEX
8
CUT
10
156.3949
20
210.6576
0
VERTEX
8
CUT
10
156.3946
20
210.6721
0
VERTEX
8
CUT
10
156.3884
20
210.7643
0
VERTEX
8
CUT
10
156.3868
20
210.7788
0
VERTEX
8
CUT
10
156.3716
20
210.8700
0
VERTEX
8
CUT
10
156.3686
20
210.8842
0
VERTEX
8
CUT
10
156.3446
20
210.9734
0
VERTEX
8
CUT
10
156.3402
20
210.9873
0
VERTEX
8
CUT
10
156.3077
20
211.0738
0
VERTEX
8
CUT
10
156.3020
20
211.0872
0
VERTEX
8
CUT
10
156.2612
20
211.1701
0
VERTEX
8
CUT
10
156.2542
20
211.1828
0
VERTEX
8
CUT
10
156.2056
20
211.2614
0
VERTEX
8
CUT
10
156.1973
20
211.2734
0
VERTEX
8
CUT
10
156.1413
20
211.3469
0
VERTEX
8
CUT
10
156.1319
20
211.3580
0
VERTEX
8
CUT
10
156.0690
20
211.4257
0
VERTEX
8
CUT
10
156.0586
20
211.4359
0
VERTEX
8
CUT
10
155.9894
20
211.4972
0
VERTEX
8
CUT
10
155.9781
20
211.5063
0
VERTEX
8
CUT
10
155.9032
20
211.5605
0
VERTEX
8
CUT
10
155.8911
20
211.5685
0
VERTEX
8
CUT
10
155.8113
20
211.6152
0
VERTEX
8
CUT
10
155.7984
20
211.6219
0
VERTEX
8
CUT
10
155.7145
20
211.6606
0
VERTEX
8
CUT
10
155.6773
20
211.6757
0
VERTEX
8
CUT
10
155.6340
20
211.6919
0
VERTEX
8
CUT
10
154.8628
20
211.9606
0
VERTEX
8
CUT
10
154.8017
20
211.9795
0
VERTEX
8
CUT
10
154.7141
20
212.0036
0
VERTEX
8
CUT
10
154.6519
20
212.0184
0
VERTEX
8
CUT
10
153.0033
20
212.3533
0
VERTEX
8
CUT
10
152.9454
20
212.3632
0
VERTEX
8
CUT
10
152.8628
20
212.3748
0
VERTEX
8
CUT
10
152.8044
20
212.3811
0
VERTEX
8
CUT
10
150.0175
20
212.5953
0
VERTEX
8
CUT
10
149.9822
20
212.5974
0
VERTEX
8
CUT
10
149.9515
20
212.5986
0
VERTEX
8
CUT
10
149.8808
20
212.5988
0
VERTEX
8
CUT
10
149.8501
20
212.5977
0
VERTEX
8
CUT
10
149.8148
20
212.5958
0
VERTEX
8
CUT
10
146.4285
20
212.3509
0
VERTEX
8
CUT
10
146.3723
20
212.3451
0
VERTEX
8
CUT
10
146.3239
20
212.3387
0
VERTEX
8
CUT
10
146.2133
20
212.3173
0
VERTEX
8
CUT
10
146.1659
20
212.3052
0
VERTEX
8
CUT
10
146.1117
20
212.2896
0
SEQEND
0
POLYLINE
8
CUT
66
1
70
1
10
0.0
20
0.0
30
0.0
0
VERTEX
8
CUT
10
141.2431
20
197.4896
0
VERTEX
8
CUT
10
141.2432
20
197.4893
0
VERTEX
8
CUT
10
141.1813
20
197.4669
0
VERTEX
8
CUT
10
141.0959
20
197.4311
0
VERTEX
8
CUT
10
141.0827
20
197.4249
0
VERTEX
8
CUT
10
141.0012
20
197.3809
0
VERTEX
8
CUT
10
140.9887
20
197.3734
0
VERTEX
8
CUT
10
140.9118
20
197.3218
0
VERTEX
8
CUT
10
140.9001
20
197.3130
0
VERTEX
8
CUT
10
140.8287
20
197.2541
0
VERTEX
8
CUT
10
140.8179
20
197.2443
0
VERTEX
8
CUT
10
140.7525
20
197.1788
0
VERTEX
8
CUT
10
140.7427
20
197.1679
0
VERTEX
8
CUT
10
140.6840
20
197.0963
0
VERTEX
8
CUT
10
140.6754
20
197.0846
0
VERTEX
8
CUT
10
140.6239
20
197.0076
0
VERTEX
8
CUT
10
140.6164
20
196.9951
0
VERTEX
8
CUT
10
140.5727
20
196.9134
0
VERTEX
8
CUT
10
140.5665
20
196.9002
0
VERTEX
8
CUT
10
140.5310
20
196.8147
0
VERTEX
8
CUT
10
140.5261
20
196.8010
0
VERTEX
8
CUT
10
140.4991
20
196.7124
0
VERTEX
8
CUT
10
140.4955
20
196.6983
0
VERTEX
8
CUT
10
140.4772
20
196.6075
0
VERTEX
8
CUT
10
140.4751
20
196.5931
0
VERTEX
8
CUT
10
140.4657
20
196.5009
0
VERTEX
8
CUT
10
140.4650
20
196.4864
0
VERTEX
8
CUT
10
140.4647
20
196.3937
0
VERTEX
8
CUT
10
140.4665
20
196.3536
0
VERTEX
8
CUT
10
140.4698
20
196.3074
0
VERTEX
8
CUT
10
140.4731
20
196.2720
0
VERTEX
8
CUT
10
140.4789
20
196.2236
0
VERTEX
8
CUT
10
140.4851
20
196.1818
0
VERTEX
8
CUT
10
140.5041
20
196.0864
0
VERTEX
8
CUT
10
140.5079
20
196.0715
0
VERTEX
8
CUT
10
140.5366
20
195.9785
0
VERTEX
8
CUT
10
140.5419
20
195.9641
0
VERTEX
8
CUT
10
140.5800
20
195.8745
0
VERTEX
8
CUT
10
140.5985
20
195.8365
0
VERTEX
8
CUT
10
140.6210
20
195.7933
0
VERTEX
8
CUT
10
140.8282
20
195.4183
0
VERTEX
8
CUT
10
140.8525
20
195.3768
0
VERTEX
8
CUT
10
140.8745
20
195.3414
0
VERTEX
8
CUT
10
140.9292
20
195.2625
0
VERTEX
8
CUT
10
140.9384
20
195.2505
0
VERTEX
8
CUT
10
141.0008
20
195.1775
0
VERTEX
8
CUT
10
141.0112
20
195.1666
0
VERTEX
8
CUT
10
141.0806
20
195.1002
0
VERTEX
8
CUT
10
141.1122
20
195.0730
0
VERTEX
8
CUT
10
141.1494
20
195.0426
0
VERTEX
8
CUT
10
142.2662
20
194.1736
0
VERTEX
8
CUT
10
142.3049
20
194.1451
0
VERTEX
8
CUT
10
142.3390
20
194.1212
0
VERTEX
8
CUT
10
142.4204
20
194.0701
0
VERTEX
8
CUT
10
142.4336
20
194.0628
0
VERTEX
8
CUT
10
142.5198
20
194.0202
0
VERTEX
8
CUT
10
142.5336
20
194.0142
0
VERTEX
8
CUT
10
142.6236
20
193.9806
0
VERTEX
8
CUT
10
142.6634
20
193.9680
0
VERTEX
8
CUT
10
142.7096
20
193.9547
0
VERTEX
8
CUT
10
143.3863
20
193.7774
0
VERTEX
8
CUT
10
143.4323
20
193.7665
0
VERTEX
8
CUT
10
143.4724
20
193.7581
0
VERTEX
8
CUT
10
143.5657
20
193.7434
0
VERTEX
8
CUT
10
143.5805
20
193.7418
0
VERTEX
8
CUT
10
143.6747
20
193.7364
0
VERTEX
8
CUT
10
143.6896
20
193.7363
0
VERTEX
8
CUT
10
143.7839
20
193.7403
0
VERTEX
8
CUT
10
143.7987
20
193.7416
0
VERTEX
8
CUT
10
143.8922
20
193.7550
0
VERTEX
8
CUT
10
143.9068
20
193.7578
0
VERTEX
8
CUT
10
143.9985
20
193.7804
0
VERTEX
8
CUT
10
144.0377
20
193.7921
0
VERTEX
8
CUT
10
144.0826
20
193.8068
0
VERTEX
8
CUT
10
144.9383
20
194.1103
0
VERTEX
8
CUT
10
144.9835
20
194.1276
0
VERTEX
8
CUT
10
145.0224
20
194.1436
0
VERTEX
8
CUT
10
145.1098
20
194.1851
0
VERTEX
8
CUT
10
145.1232
20
194.1923
0
VERTEX
8
CUT
10
145.2059
20
194.2425
0
VERTEX
8
CUT
10
145.2407
20
194.2660
0
VERTEX
8
CUT
10
145.2801
20
194.2942
0
VERTEX
8
CUT
10
146.0740
20
194.8936
0
VERTEX
8
CUT
10
146.1121
20
194.9239
0
VERTEX
8
CUT
10
146.1444
20
194.9510
0
VERTEX
8
CUT
10
146.2155
20
195.0172
0
VERTEX
8
CUT
10
146.2262
20
195.0282
0
VERTEX
8
CUT
10
146.2902
20
195.1013
0
VERTEX
8
CUT
10
146.3163
20
195.1344
0
VERTEX
8
CUT
10
146.3455
20
195.1733
0
VERTEX
8
CUT
10
146.5577
20
195.4725
0
VERTEX
8
CUT
10
146.5846
20
195.5127
0
VERTEX
8
CUT
10
146.6071
20
195.5481
0
VERTEX
8
CUT
10
146.6547
20
195.6322
0
VERTEX
8
CUT
10
146.6615
20
195.6458
0
VERTEX
8
CUT
10
146.7003
20
195.7343
0
VERTEX
8
CUT
10
146.7152
20
195.7736
0
VERTEX
8
CUT
10
146.7312
20
195.8192
0
VERTEX
8
CUT
10
147.0061
20
196.6736
0
VERTEX
8
CUT
10
147.0196
20
196.7198
0
VERTEX
8
CUT
10
147.0304
20
196.7601
0
VERTEX
8
CUT
10
147.0504
20
196.8541
0
VERTEX
8
CUT
10
147.0528
20
196.8690
0
VERTEX
8
CUT
10
147.0632
20
196.9645
0
VERTEX
8
CUT
10
147.0641
20
196.9796
0
VERTEX
8
CUT
10
147.0648
20
197.0757
0
VERTEX
8
CUT
10
147.0630
20
197.1174
0
VERTEX
8
CUT
10
147.0597
20
197.1654
0
VERTEX
8
CUT
10
146.9716
20
198.1012
0
VERTEX
8
CUT
10
146.9662
20
198.1470
0
VERTEX
8
CUT
10
146.9605
20
198.1866
0
VERTEX
8
CUT
10
146.9430
20
198.2771
0
VERTEX
8
CUT
10
146.9396
20
198.2912
0
VERTEX
8
CUT
10
146.9134
20
198.3795
0
VERTEX
8
CUT
10
146.9086
20
198.3932
0
VERTEX
8
CUT
10
146.8740
20
198.4786
0
VERTEX
8
CUT
10
146.8572
20
198.5149
0
VERTEX
8
CUT
10
146.8368
20
198.5563
0
VERTEX
8
CUT
10
146.4223
20
199.3479
0
VERTEX
8
CUT
10
146.4004
20
199.3875
0
VERTEX
8
CUT
10
146.3805
20
199.4214
0
VERTEX
8
CUT
10
146.3311
20
199.4972
0
VERTEX
8
CUT
10
146.3228
20
199.5088
0
VERTEX
8
CUT
10
146.2663
20
199.5796
0
VERTEX
8
CUT
10
146.2569
20
199.5903
0
VERTEX
8
CUT
10
146.1940
20
199.6553
0
VERTEX
8
CUT
10
146.1654
20
199.6823
0
VERTEX
8
CUT
10
146.1317
20
199.7125
0
VERTEX
8
CUT
10
145.8836
20
199.9244
0
VERTEX
8
CUT
10
145.8437
20
199.9567
0
VERTEX
8
CUT
10
145.8083
20
199.9838
0
VERTEX
8
CUT
10
145.7234
20
200.0417
0
VERTEX
8
CUT
10
145.7096
20
200.0501
0
VERTEX
8
CUT
10
145.6190
20
200.0984
0
VERTEX
8
CUT
10
145.5786
20
200.1173
0
VERTEX
8
CUT
10
145.5315
20
200.1377
0
VERTEX
8
CUT
10
144.6508
20
200.4918
0
VERTEX
8
CUT
10
144.6073
20
200.5081
0
VERTEX
8
CUT
10
144.5692
20
200.5213
0
VERTEX
8
CUT
10
144.4801
20
200.5473
0
VERTEX
8
CUT
10
144.4659
20
200.5507
0
VERTEX
8
CUT
10
144.3747
20
200.5680
0
VERTEX
8
CUT
10
144.3602
20
200.5700
0
VERTEX
8
CUT
10
144.2678
20
200.5782
0
VERTEX
8
CUT
10
144.2275
20
200.5798
0
VERTEX
8
CUT
10
144.1810
20
200.5805
0
VERTEX
8
CUT
10
143.7834
20
200.5769
0
VERTEX
8
CUT
10
143.7373
20
200.5754
0
VERTEX
8
CUT
10
143.6973
20
200.5731
0
VERTEX
8
CUT
10
143.6056
20
200.5633
0
VERTEX
8
CUT
10
143.5913
20
200.5611
0
VERTEX
8
CUT
10
143.5009
20
200.5425
0
VERTEX
8
CUT
10
143.4869
20
200.5388
0
VERTEX
8
CUT
10
143.3988
20
200.5115
0
VERTEX
8
CUT
10
143.3852
20
200.5066
0
VERTEX
8
CUT
10
143.3001
20
200.4708
0
VERTEX
8
CUT
10
143.2871
20
200.4646
0
VERTEX
8
CUT
10
143.2059
20
200.4208
0
VERTEX
8
CUT
10
143.1935
20
200.4133
0
VERTEX
8
CUT
10
143.1170
20
200.3618
0
VERTEX
8
CUT
10
143.1053
20
200.3531
0
VERTEX
8
CUT
10
143.0342
20
200.2945
0
VERTEX
8
CUT
10
143.0234
20
200.2847
0
VERTEX
8
CUT
10
142.9583
20
200.2194
0
VERTEX
8
CUT
10
142.9485
20
200.2087
0
VERTEX
8
CUT
10
142.8900
20
200.1374
0
VERTEX
8
CUT
10
142.8814
20
200.1257
0
VERTEX
8
CUT
10
142.8301
20
200.0491
0
VERTEX
8
CUT
10
142.8226
20
200.0367
0
VERTEX
8
CUT
10
142.7790
20
199.9554
0
VERTEX
8
CUT
10
142.7727
20
199.9423
0
VERTEX
8
CUT
10
142.7372
20
199.8572
0
VERTEX
8
CUT
10
142.7323
20
199.8436
0
VERTEX
8
CUT
10
142.7051
20
199.7554
0
VERTEX
8
CUT
10
142.7016
20
199.7414
0
VERTEX
8
CUT
10
142.6831
20
199.6510
0
VERTEX
8
CUT
10
142.6809
20
199.6367
0
VERTEX
8
CUT
10
142.6713
20
199.5449
0
VERTEX
8
CUT
10
142.6705
20
199.5304
0
VERTEX
8
CUT
10
142.6701
20
199.4622
0
VERTEX
8
CUT
10
142.6587
20
199.2583
0
VERTEX
8
CUT
10
142.6276
20
199.0564
0
VERTEX
8
CUT
10
142.5770
20
198.8585
0
VERTEX
8
CUT
10
142.5075
20
198.6664
0
VERTEX
8
CUT
10
142.4196
20
198.4821
0
VERTEX
8
CUT
10
142.3142
20
198.3071
0
VERTEX
8
CUT
10
142.1923
20
198.1432
0
VERTEX
8
CUT
10
142.0551
20
197.9919
0
VERTEX
8
CUT
10
141.9038
20
197.8546
0
VERTEX
8
CUT
10
141.7399
20
197.7327
0
VERTEX
8
CUT
10
141.5649
20
197.6273
0
VERTEX
8
CUT
10
141.3805
20
197.5394
0
SEQEND
0
POLYLINE
8
CUT
66
1
70
1
10
0.0
20
0.0
30
0.0
0
VERTEX
8
CUT
10
114.9068
20
134.4366
0
VERTEX
8
CUT
10
114.8832
20
134.3975
0
VERTEX
8
CUT
10
114.8636
20
134.3631
0
VERTEX
8
CUT
10
114.8222
20
134.2817
0
VERTEX
8
CUT
10
114.8163
20
134.2686
0
VERTEX
8
CUT
10
114.7829
20
134.1836
0
VERTEX
8
CUT
10
114.7783
20
134.1700
0
VERTEX
8
CUT
10
114.7533
20
134.0821
0
VERTEX
8
CUT
10
114.7500
20
134.0682
0
VERTEX
8
CUT
10
114.7335
20
133.9783
0
VERTEX
8
CUT
10
114.7316
20
133.9641
0
VERTEX
8
CUT
10
114.7238
20
133.8731
0
VERTEX
8
CUT
10
114.7233
20
133.8588
0
VERTEX
8
CUT
10
114.7242
20
133.7674
0
VERTEX
8
CUT
10
114.7251
20
133.7531
0
VERTEX
8
CUT
10
114.7348
20
133.6623
0
VERTEX
8
CUT
10
114.7371
20
133.6481
0
VERTEX
8
CUT
10
114.7555
20
133.5587
0
VERTEX
8
CUT
10
114.7591
20
133.5448
0
VERTEX
8
CUT
10
114.7860
20
133.4575
0
VERTEX
8
CUT
10
114.7909
20
133.4440
0
VERTEX
8
CUT
10
114.8261
20
133.3597
0
VERTEX
8
CUT
10
114.8322
20
133.3468
0
VERTEX
8
CUT
10
114.8754
20
133.2663
0
VERTEX
8
CUT
10
114.8828
20
133.2540
0
VERTEX
8
CUT
10
114.9334
20
133.1780
0
VERTEX
8
CUT
10
114.9419
20
133.1664
0
VERTEX
8
CUT
10
114.9997
20
133.0957
0
VERTEX
8
CUT
10
115.0093
20
133.0850
0
VERTEX
8
CUT
10
115.0735
20
133.0201
0
VERTEX
8
CUT
10
115.0841
20
133.0104
0
VERTEX
8
CUT
10
115.1543
20
132.9520
0
VERTEX
8
CUT
10
115.1658
20
132.9433
0
VERTEX
8
CUT
10
115.2413
20
132.8919
0
VERTEX
8
CUT
10
115.2535
20
132.8844
0
VERTEX
8
CUT
10
115.3336
20
132.8405
0
VERTEX
8
CUT
10
115.3465
20
132.8342
0
VERTEX
8
CUT
10
115.4304
20
132.7982
0
VERTEX
8
CUT
10
115.4675
20
132.7843
0
VERTEX
8
CUT
10
115.5107
20
132.7694
0
VERTEX
8
CUT
10
117.6150
20
132.0972
0
VERTEX
8
CUT
10
117.6599
20
132.0841
0
VERTEX
8
CUT
10
117.6992
20
132.0736
0
VERTEX
8
CUT
10
117.7907
20
132.0541
0
VERTEX
8
CUT
10
117.8052
20
132.0517
0
VERTEX
8
CUT
10
117.8982
20
132.0413
0
VERTEX
8
CUT
10
117.9129
20
132.0403
0
VERTEX
8
CUT
10
118.0064
20
132.0391
0
VERTEX
8
CUT
10
118.0211
20
132.0396
0
VERTEX
8
CUT
10
118.1144
20
132.0476
0
VERTEX
8
CUT
10
118.1290
20
132.0495
0
VERTEX
8
CUT
10
118.2209
20
132.0666
0
VERTEX
8
CUT
10
118.2353
20
132.0700
0
VERTEX
8
CUT
10
118.3251
20
132.0961
0
VERTEX
8
CUT
10
118.3390
20
132.1009
0
VERTEX
8
CUT
10
118.4259
20
132.1357
0
VERTEX
8
CUT
10
118.4393
20
132.1418
0
VERTEX
8
CUT
10
118.5223
20
132.1850
0
VERTEX
8
CUT
10
118.5350
20
132.1924
0
VERTEX
8
CUT
10
118.6133
20
132.2435
0
VERTEX
8
CUT
10
118.6253
20
132.2522
0
VERTEX
8
CUT
10
118.6982
20
132.3108
0
VERTEX
8
CUT
10
118.7092
20
132.3206
0
VERTEX
8
CUT
10
118.7328
20
132.3437
0
VERTEX
8
CUT
10
118.8880
20
132.4815
0
VERTEX
8
CUT
10
119.0562
20
132.6033
0
VERTEX
8
CUT
10
119.2355
20
132.7079
0
VERTEX
8
CUT
10
119.4242
20
132.7942
0
VERTEX
8
CUT
10
119.6206
20
132.8616
0
VERTEX
8
CUT
10
119.8227
20
132.9092
0
VERTEX
8
CUT
10
120.0284
20
132.9366
0
VERTEX
8
CUT
10
120.2359
20
132.9436
0
VERTEX
8
CUT
10
120.4431
20
132.9300
0
VERTEX
8
CUT
10
120.6479
20
132.8961
0
VERTEX
8
CUT
10
120.8483
20
132.8421
0
VERTEX
8
CUT
10
121.0424
20
132.7686
0
VERTEX
8
CUT
10
121.2284
20
132.6763
0
VERTEX
8
CUT
10
121.4043
20
132.5661
0
VERTEX
8
CUT
10
121.5685
20
132.4390
0
VERTEX
8
CUT
10
121.7193
20
132.2964
0
VERTEX
8
CUT
10
121.8553
20
132.1396
0
VERTEX
8
CUT
10
121.9751
20
131.9701
0
VERTEX
8
CUT
10
122.0777
20
131.7896
0
VERTEX
8
CUT
10
122.0922
20
131.7607
0
VERTEX
8
CUT
10
122.1387
20
131.6789
0
VERTEX
8
CUT
10
122.1467
20
131.6664
0
VERTEX
8
CUT
10
122.2011
20
131.5895
0
VERTEX
8
CUT
10
122.2102
20
131.5779
0
VERTEX
8
CUT
10
122.2719
20
131.5068
0
VERTEX
8
CUT
10
122.2822
20
131.4961
0
VERTEX
8
CUT
10
122.3506
20
131.4315
0
VERTEX
8
CUT
10
122.3619
20
131.4219
0
VERTEX
8
CUT
10
122.4364
20
131.3644
0
VERTEX
8
CUT
10
122.4486
20
131.3559
0
VERTEX
8
CUT
10
122.5284
20
131.3061
0
VERTEX
8
CUT
10
122.5413
20
131.2989
0
VERTEX
8
CUT
10
122.5794
20
131.2801
0
VERTEX
8
CUT
10
122.7612
20
131.1787
0
VERTEX
8
CUT
10
122.9322
20
131.0598
0
VERTEX
8
CUT
10
123.0905
20
130.9246
0
VERTEX
8
CUT
10
123.2347
20
130.7744
0
VERTEX
8
CUT
10
123.3632
20
130.6106
0
VERTEX
8
CUT
10
123.4749
20
130.4349
0
VERTEX
8
CUT
10
123.5687
20
130.2490
0
VERTEX
8
CUT
10
123.6436
20
130.0547
0
VERTEX
8
CUT
10
123.6989
20
129.8540
0
VERTEX
8
CUT
10
123.7340
20
129.6487
0
VERTEX
8
CUT
10
123.7487
20
129.4410
0
VERTEX
8
CUT
10
123.7427
20
129.2329
0
VERTEX
8
CUT
10
123.7161
20
129.0264
0
VERTEX
8
CUT
10
123.6692
20
128.8235
0
VERTEX
8
CUT
10
123.6025
20
128.6263
0
VERTEX
8
CUT
10
123.5165
20
128.4367
0
VERTEX
8
CUT
10
123.4122
20
128.2565
0
VERTEX
8
CUT
10
123.2905
20
128.0875
0
VERTEX
8
CUT
10
123.1528
20
127.9314
0
VERTEX
8
CUT
10
123.0002
20
127.7897
0
VERTEX
8
CUT
10
122.8344
20
127.6638
0
VERTEX
8
CUT
10
122.6569
20
127.5549
0
VERTEX
8
CUT
10
122.4695
20
127.4642
0
VERTEX
8
CUT
10
122.2740
20
127.3925
0
VERTEX
8
CUT
10
122.0724
20
127.3405
0
VERTEX
8
CUT
10
121.8666
20
127.3087
0
VERTEX
8
CUT
10
121.6587
20
127.2974
0
VERTEX
8
CUT
10
118.2576
20
127.2819
0
VERTEX
8
CUT
10
118.2115
20
127.2806
0
VERTEX
8
CUT
10
118.1715
20
127.2785
0
VERTEX
8
CUT
10
118.0798
20
127.2691
0
VERTEX
8
CUT
10
118.0655
20
127.2669
0
VERTEX
8
CUT
10
117.9751
20
127.2487
0
VERTEX
8
CUT
10
117.9611
20
127.2452
0
VERTEX
8
CUT
10
117.8729
20
127.2183
0
VERTEX
8
CUT
10
117.8593
20
127.2134
0
VERTEX
8
CUT
10
117.7741
20
127.1781
0
VERTEX
8
CUT
10
117.7610
20
127.1719
0
VERTEX
8
CUT
10
117.6797
20
127.1285
0
VERTEX
8
CUT
10
117.6672
20
127.1211
0
VERTEX
8
CUT
10
117.5905
20
127.0700
0
VERTEX
8
CUT
10
117.5788
20
127.0614
0
VERTEX
8
CUT
10
117.5074
20
127.0031
0
VERTEX
8
CUT
10
117.4966
20
126.9934
0
VERTEX
8
CUT
10
117.4312
20
126.9285
0
VERTEX
8
CUT
10
117.4214
20
126.9177
0
VERTEX
8
CUT
10
117.3626
20
126.8468
0
VERTEX
8
CUT
10
117.3539
20
126.8352
0
VERTEX
8
CUT
10
117.3022
20
126.7588
0
VERTEX
8
CUT
10
117.2947
20
126.7465
0
VERTEX
8
CUT
10
117.2507
20
126.6655
0
VERTEX
8
CUT
10
117.2444
20
126.6524
0
VERTEX
8
CUT
10
117.2084
20
126.5675
0
VERTEX
8
CUT
10
117.2034
20
126.5539
0
VERTEX
8
CUT
10
117.1759
20
126.4660
0
VERTEX
8
CUT
10
117.1722
20
126.4519
0
VERTEX
8
CUT
10
117.1533
20
126.3617
0
VERTEX
8
CUT
10
117.1510
20
126.3474
0
VERTEX
8
CUT
10
117.1410
20
126.2558
0
VERTEX
8
CUT
10
117.1401
20
126.2413
0
VERTEX
8
CUT
10
117.1390
20
126.1491
0
VERTEX
8
CUT
10
117.1395
20
126.1346
0
VERTEX
8
CUT
10
117.1473
20
126.0428
0
VERTEX
8
CUT
10
117.1493
20
126.0284
0
VERTEX
8
CUT
10
117.1659
20
125.9377
0
VERTEX
8
CUT
10
117.1693
20
125.9236
0
VERTEX
8
CUT
10
117.1947
20
125.8350
0
VERTEX
8
CUT
10
117.1993
20
125.8213
0
VERTEX
8
CUT
10
117.2332
20
125.7356
0
VERTEX
8
CUT
10
117.2392
20
125.7223
0
VERTEX
8
CUT
10
117.2812
20
125.6403
0
VERTEX
8
CUT
10
117.2884
20
125.6277
0
VERTEX
8
CUT
10
117.3382
20
125.5502
0
VERTEX
8
CUT
10
117.3466
20
125.5384
0
VERTEX
8
CUT
10
117.4037
20
125.4660
0
VERTEX
8
CUT
10
117.4132
20
125.4550
0
VERTEX
8
CUT
10
117.4771
20
125.3885
0
VERTEX
8
CUT
10
117.4876
20
125.3786
0
VERTEX
8
CUT
10
117.5576
20
125.3186
0
VERTEX
8
CUT
10
117.5690
20
125.3097
0
VERTEX
8
CUT
10
117.6445
20
125.2567
0
VERTEX
8
CUT
10
117.6568
20
125.2490
0
VERTEX
8
CUT
10
117.7370
20
125.2036
0
VERTEX
8
CUT
10
117.7500
20
125.1971
0
VERTEX
8
CUT
10
117.8342
20
125.1597
0
VERTEX
8
CUT
10
117.8477
20
125.1545
0
VERTEX
8
CUT
10
117.9352
20
125.1255
0
VERTEX
8
CUT
10
117.9492
20
125.1216
0
VERTEX
8
CUT
10
118.0391
20
125.1012
0
VERTEX
8
CUT
10
118.0785
20
125.0942
0
VERTEX
8
CUT
10
118.1241
20
125.0873
0
VERTEX
8
CUT
10
123.0928
20
124.4576
0
VERTEX
8
CUT
10
123.1339
20
124.4533
0
VERTEX
8
CUT
10
123.1696
20
124.4503
0
VERTEX
8
CUT
10
123.2522
20
124.4471
0
VERTEX
8
CUT
10
123.2880
20
124.4473
0
VERTEX
8
CUT
10
123.3294
20
124.4483
0
VERTEX
8
CUT
10
124.8423
20
124.5210
0
VERTEX
8
CUT
10
124.8820
20
124.5237
0
VERTEX
8
CUT
10
124.9163
20
124.5268
0
VERTEX
8
CUT
10
124.9950
20
124.5373
0
VERTEX
8
CUT
10
125.0290
20
124.5432
0
VERTEX
8
CUT
10
125.0679
20
124.5509
0
VERTEX
8
CUT
10
126.3855
20
124.8390
0
VERTEX
8
CUT
10
126.4238
20
124.8482
0
VERTEX
8
CUT
10
126.4568
20
124.8569
0
VERTEX
8
CUT
10
126.5320
20
124.8800
0
VERTEX
8
CUT
10
126.5437
20
124.8841
0
VERTEX
8
CUT
10
126.6167
20
124.9134
0
VERTEX
8
CUT
10
126.6478
20
124.9273
0
VERTEX
8
CUT
10
126.6833
20
124.9442
0
VERTEX
8
CUT
10
128.3935
20
125.7997
0
VERTEX
8
CUT
10
128.4424
20
125.8260
0
VERTEX
8
CUT
10
128.4841
20
125.8500
0
VERTEX
8
CUT
10
128.5769
20
125.9108
0
VERTEX
8
CUT
10
128.6155
20
125.9395
0
VERTEX
8
CUT
10
128.6591
20
125.9740
0
VERTEX
8
CUT
10
129.6579
20
126.8113
0
VERTEX
8
CUT
10
129.6988
20
126.8477
0
VERTEX
8
CUT
10
129.7334
20
126.8802
0
VERTEX
8
CUT
10
129.8085
20
126.9597
0
VERTEX
8
CUT
10
129.8391
20
126.9960
0
VERTEX
8
CUT
10
129.8732
20
127.0388
0
VERTEX
8
CUT
10
130.3254
20
127.6430
0
VERTEX
8
CUT
10
130.3526
20
127.6813
0
VERTEX
8
CUT
10
130.3753
20
127.7151
0
VERTEX
8
CUT
10
130.4239
20
127.7954
0
VERTEX
8
CUT
10
130.4309
20
127.8084
0
VERTEX
8
CUT
10
130.4712
20
127.8931
0
VERTEX
8
CUT
10
130.4769
20
127.9067
0
VERTEX
8
CUT
10
130.5087
20
127.9950
0
VERTEX
8
CUT
10
130.5130
20
128.0091
0
VERTEX
8
CUT
10
130.5360
20
128.1001
0
VERTEX
8
CUT
10
130.5389
20
128.1145
0
VERTEX
8
CUT
10
130.5527
20
128.2073
0
VERTEX
8
CUT
10
130.5542
20
128.2220
0
VERTEX
8
CUT
10
130.5588
20
128.3158
0
VERTEX
8
CUT
10
130.5588
20
128.3305
0
VERTEX
8
CUT
10
130.5541
20
128.4242
0
VERTEX
8
CUT
10
130.5527
20
128.4389
0
VERTEX
8
CUT
10
130.5388
20
128.5317
0
VERTEX
8
CUT
10
130.5359
20
128.5462
0
VERTEX
8
CUT
10
130.5129
20
128.6372
0
VERTEX
8
CUT
10
130.5086
20
128.6513
0
VERTEX
8
CUT
10
130.4767
20
128.7395
0
VERTEX
8
CUT
10
130.4711
20
128.7532
0
VERTEX
8
CUT
10
130.4307
20
128.8378
0
VERTEX
8
CUT
10
130.4236
20
128.8508
0
VERTEX
8
CUT
10
130.3751
20
128.9311
0
VERTEX
8
CUT
10
130.3668
20
128.9433
0
VERTEX
8
CUT
10
130.3106
20
129.0184
0
VERTEX
8
CUT
10
130.3012
20
129.0298
0
VERTEX
8
CUT
10
130.2378
20
129.0990
0
VERTEX
8
CUT
10
130.2273
20
129.1094
0
VERTEX
8
CUT
10
130.1574
20
129.1719
0
VERTEX
8
CUT
10
130.1459
20
129.1812
0
VERTEX
8
CUT
10
130.0701
20
129.2366
0
VERTEX
8
CUT
10
130.0578
20
129.2447
0
VERTEX
8
CUT
10
129.9770
20
129.2924
0
VERTEX
8
CUT
10
129.9639
20
129.2992
0
VERTEX
8
CUT
10
129.8788
20
129.3386
0
VERTEX
8
CUT
10
129.8651
20
129.3442
0
VERTEX
8
CUT
10
129.7764
20
129.3750
0
VERTEX
8
CUT
10
129.7623
20
129.3791
0
VERTEX
8
CUT
10
129.6711
20
129.4011
0
VERTEX
8
CUT
10
129.6565
20
129.4038
0
VERTEX
8
CUT
10
129.5636
20
129.4166
0
VERTEX
8
CUT
10
129.5489
20
129.4179
0
VERTEX
8
CUT
10
129.4551
20
129.4215
0
VERTEX
8
CUT
10
129.4404
20
129.4213
0
VERTEX
8
CUT
10
129.3467
20
129.4156
0
VERTEX
8
CUT
10
129.2804
20
129.4083
0
VERTEX
8
CUT
10
129.2804
20
129.4091
0
VERTEX
8
CUT
10
129.1484
20
129.3943
0
VERTEX
8
CUT
10
128.9456
20
129.3913
0
VERTEX
8
CUT
10
128.7435
20
129.4079
0
VERTEX
8
CUT
10
128.5439
20
129.4439
0
VERTEX
8
CUT
10
128.3487
20
129.4990
0
VERTEX
8
CUT
10
128.1597
20
129.5727
0
VERTEX
8
CUT
10
127.9788
20
129.6642
0
VERTEX
8
CUT
10
127.8075
20
129.7728
0
VERTEX
8
CUT
10
127.6474
20
129.8974
0
VERTEX
8
CUT
10
127.5002
20
130.0369
0
VERTEX
8
CUT
10
127.3670
20
130.1899
0
VERTEX
8
CUT
10
127.2493
20
130.3550
0
VERTEX
8
CUT
10
127.1480
20
130.5308
0
VERTEX
8
CUT
10
127.0642
20
130.7154
0
VERTEX
8
CUT
10
126.9986
20
130.9073
0
VERTEX
8
CUT
10
126.9518
20
131.1047
0
VERTEX
8
CUT
10
126.9242
20
131.3056
0
VERTEX
8
CUT
10
126.9162
20
131.5083
0
VERTEX
8
CUT
10
126.9277
20
131.7108
0
VERTEX
8
CUT
10
126.9587
20
131.9112
0
VERTEX
8
CUT
10
127.0089
20
132.1077
0
VERTEX
8
CUT
10
127.0779
20
132.2985
0
VERTEX
8
CUT
10
127.1649
20
132.4817
0
VERTEX
8
CUT
10
127.2692
20
132.6556
0
VERTEX
8
CUT
10
127.3003
20
132.7023
0
VERTEX
8
CUT
10
127.3080
20
132.7151
0
VERTEX
8
CUT
10
127.3524
20
132.7988
0
VERTEX
8
CUT
10
127.3588
20
132.8123
0
VERTEX
8
CUT
10
127.3947
20
132.9000
0
VERTEX
8
CUT
10
127.3996
20
132.9141
0
VERTEX
8
CUT
10
127.4266
20
133.0050
0
VERTEX
8
CUT
10
127.4302
20
133.0195
0
VERTEX
8
CUT
10
127.4479
20
133.1126
0
VERTEX
8
CUT
10
127.4500
20
133.1274
0
VERTEX
8
CUT
10
127.4584
20
133.2218
0
VERTEX
8
CUT
10
127.4590
20
133.2367
0
VERTEX
8
CUT
10
127.4579
20
133.3315
0
VERTEX
8
CUT
10
127.4570
20
133.3464
0
VERTEX
8
CUT
10
127.4465
20
133.4406
0
VERTEX
8
CUT
10
127.4441
20
133.4553
0
VERTEX
8
CUT
10
127.4243
20
133.5481
0
VERTEX
8
CUT
10
127.4204
20
133.5625
0
VERTEX
8
CUT
10
127.3915
20
133.6527
0
VERTEX
8
CUT
10
127.3862
20
133.6667
0
VERTEX
8
CUT
10
127.3483
20
133.7536
0
VERTEX
8
CUT
10
127.3417
20
133.7670
0
VERTEX
8
CUT
10
127.2954
20
133.8497
0
VERTEX
8
CUT
10
127.2874
20
133.8623
0
VERTEX
8
CUT
10
127.2331
20
133.9400
0
VERTEX
8
CUT
10
127.2239
20
133.9518
0
VERTEX
8
CUT
10
127.1621
20
134.0236
0
VERTEX
8
CUT
10
127.1412
20
134.0456
0
VERTEX
8
CUT
10
127.0086
20
134.1992
0
VERTEX
8
CUT
10
126.9980
20
134.2128
0
VERTEX
8
CUT
10
126.8684
20
134.3983
0
VERTEX
8
CUT
10
126.7595
20
134.5967
0
VERTEX
8
CUT
10
126.6726
20
134.8057
0
VERTEX
8
CUT
10
126.6087
20
135.0228
0
VERTEX
8
CUT
10
126.4630
20
135.6386
0
VERTEX
8
CUT
10
126.4639
20
135.6388
0
VERTEX
8
CUT
10
126.4282
20
135.8084
0
VERTEX
8
CUT
10
126.4057
20
136.0122
0
VERTEX
8
CUT
10
126.4033
20
136.2173
0
VERTEX
8
CUT
10
126.4208
20
136.4215
0
VERTEX
8
CUT
10
126.4582
20
136.6231
0
VERTEX
8
CUT
10
126.5150
20
136.8201
0
VERTEX
8
CUT
10
126.5908
20
137.0106
0
VERTEX
8
CUT
10
126.6848
20
137.1929
0
VERTEX
8
CUT
10
126.7961
20
137.3650
0
VERTEX
8
CUT
10
126.9237
20
137.5255
0
VERTEX
8
CUT
10
127.0664
20
137.6728
0
VERTEX
8
CUT
10
127.2227
20
137.8055
0
VERTEX
8
CUT
10
127.3912
20
137.9223
0
VERTEX
8
CUT
10
127.5703
20
138.0221
0
VERTEX
8
CUT
10
127.7583
20
138.1040
0
VERTEX
8
CUT
10
127.9533
20
138.1672
0
VERTEX
8
CUT
10
128.1536
20
138.2110
0
VERTEX
8
CUT
10
128.3572
20
138.2351
0
VERTEX
8
CUT
10
128.5622
20
138.2392
0
VERTEX
8
CUT
10
128.7666
20
138.2233
0
VERTEX
8
CUT
10
128.9685
20
138.1875
0
VERTEX
8
CUT
10
129.1660
20
138.1323
0
VERTEX
8
CUT
10
129.3571
20
138.0580
0
VERTEX
8
CUT
10
129.5400
20
137.9655
0
VERTEX
8
CUT
10
129.5523
20
137.9585
0
VERTEX
8
CUT
10
129.5657
20
137.9518
0
VERTEX
8
CUT
10
129.6527
20
137.9132
0
VERTEX
8
CUT
10
129.6667
20
137.9078
0
VERTEX
8
CUT
10
129.7571
20
137.8782
0
VERTEX
8
CUT
10
129.7716
20
137.8743
0
VERTEX
8
CUT
10
129.8645
20
137.8539
0
VERTEX
8
CUT
10
129.8793
20
137.8514
0
VERTEX
8
CUT
10
129.9739
20
137.8404
0
VERTEX
8
CUT
10
129.9888
20
137.8394
0
VERTEX
8
CUT
10
130.0840
20
137.8379
0
VERTEX
8
CUT
10
130.0989
20
137.8384
0
VERTEX
8
CUT
10
130.1938
20
137.8465
0
VERTEX
8
CUT
10
130.2086
20
137.8485
0
VERTEX
8
CUT
10
130.3022
20
137.8660
0
VERTEX
8
CUT
10
130.3167
20
137.8695
0
VERTEX
8
CUT
10
130.4081
20
137.8963
0
VERTEX
8
CUT
10
130.4222
20
137.9012
0
VERTEX
8
CUT
10
130.5104
20
137.9370
0
VERTEX
8
CUT
10
130.5240
20
137.9433
0
VERTEX
8
CUT
10
130.6081
20
137.9878
0
VERTEX
8
CUT
10
130.6210
20
137.9954
0
VERTEX
8
CUT
10
130.7003
20
138.0481
0
VERTEX
8
CUT
10
130.7123
20
138.0570
0
VERTEX
8
CUT
10
130.7860
20
138.1173
0
VERTEX
8
CUT
10
130.7971
20
138.1274
0
VERTEX
8
CUT
10
130.8643
20
138.1948
0
VERTEX
8
CUT
10
130.8743
20
138.2059
0
VERTEX
8
CUT
10
130.9344
20
138.2797
0
VERTEX
8
CUT
10
130.9433
20
138.2917
0
VERTEX
8
CUT
10
130.9957
20
138.3712
0
VERTEX
8
CUT
10
131.0033
20
138.3841
0
VERTEX
8
CUT
10
131.0475
20
138.4684
0
VERTEX
8
CUT
10
131.0649
20
138.5059
0
VERTEX
8
CUT
10
131.0837
20
138.5496
0
VERTEX
8
CUT
10
132.3328
20
141.6520
0
VERTEX
8
CUT
10
132.3491
20
141.6954
0
VERTEX
8
CUT
10
132.3622
20
141.7333
0
VERTEX
8
CUT
10
132.3882
20
141.8220
0
VERTEX
8
CUT
10
132.3916
20
141.8361
0
VERTEX
8
CUT
10
132.4089
20
141.9269
0
VERTEX
8
CUT
10
132.4109
20
141.9413
0
VERTEX
8
CUT
10
132.4193
20
142.0333
0
VERTEX
8
CUT
10
132.4199
20
142.0479
0
VERTEX
8
CUT
10
132.4193
20
142.1403
0
VERTEX
8
CUT
10
132.4185
20
142.1548
0
VERTEX
8
CUT
10
132.4089
20
142.2468
0
VERTEX
8
CUT
10
132.4066
20
142.2611
0
VERTEX
8
CUT
10
132.3881
20
142.3517
0
VERTEX
8
CUT
10
132.3845
20
142.3658
0
VERTEX
8
CUT
10
132.3573
20
142.4541
0
VERTEX
8
CUT
10
132.3523
20
142.4678
0
VERTEX
8
CUT
10
132.3166
20
142.5530
0
VERTEX
8
CUT
10
132.3104
20
142.5662
0
VERTEX
8
CUT
10
132.2666
20
142.6476
0
VERTEX
8
CUT
10
132.2591
20
142.6600
0
VERTEX
8
CUT
10
132.2075
20
142.7368
0
VERTEX
8
CUT
10
132.1989
20
142.7484
0
VERTEX
8
CUT
10
132.1401
20
142.8198
0
VERTEX
8
CUT
10
132.1304
20
142.8306
0
VERTEX
8
CUT
10
132.0650
20
142.8959
0
VERTEX
8
CUT
10
132.0542
20
142.9056
0
VERTEX
8
CUT
10
131.9827
20
142.9643
0
VERTEX
8
CUT
10
131.9711
20
142.9730
0
VERTEX
8
CUT
10
131.8943
20
143.0244
0
VERTEX
8
CUT
10
131.8818
20
143.0319
0
VERTEX
8
CUT
10
131.8003
20
143.0756
0
VERTEX
8
CUT
10
131.7872
20
143.0818
0
VERTEX
8
CUT
10
131.7019
20
143.1174
0
VERTEX
8
CUT
10
131.6882
20
143.1224
0
VERTEX
8
CUT
10
131.5999
20
143.1495
0
VERTEX
8
CUT
10
131.5858
20
143.1531
0
VERTEX
8
CUT
10
131.4952
20
143.1715
0
VERTEX
8
CUT
10
131.4808
20
143.1737
0
VERTEX
8
CUT
10
131.3889
20
143.1832
0
VERTEX
8
CUT
10
131.3744
20
143.1839
0
VERTEX
8
CUT
10
131.2819
20
143.1845
0
VERTEX
8
CUT
10
131.2674
20
143.1838
0
VERTEX
8
CUT
10
131.1754
20
143.1754
0
VERTEX
8
CUT
10
131.1610
20
143.1733
0
VERTEX
8
CUT
10
131.0702
20
143.1559
0
VERTEX
8
CUT
10
131.0560
20
143.1525
0
VERTEX
8
CUT
10
130.9674
20
143.1264
0
VERTEX
8
CUT
10
130.9536
20
143.1216
0
VERTEX
8
CUT
10
130.8679
20
143.0870
0
VERTEX
8
CUT
10
130.8315
20
143.0702
0
VERTEX
8
CUT
10
130.7900
20
143.0497
0
VERTEX
8
CUT
10
128.9034
20
142.0643
0
VERTEX
8
CUT
10
128.7054
20
141.9735
0
VERTEX
8
CUT
10
128.4990
20
141.9038
0
VERTEX
8
CUT
10
128.2034
20
141.8208
0
VERTEX
8
CUT
10
128.1596
20
141.8074
0
VERTEX
8
CUT
10
128.1220
20
141.7948
0
VERTEX
8
CUT
10
128.0368
20
141.7618
0
VERTEX
8
CUT
10
128.0236
20
141.7559
0
VERTEX
8
CUT
10
127.9420
20
141.7148
0
VERTEX
8
CUT
10
127.9295
20
141.7077
0
VERTEX
8
CUT
10
127.8521
20
141.6589
0
VERTEX
8
CUT
10
127.8404
20
141.6507
0
VERTEX
8
CUT
10
127.7681
20
141.5947
0
VERTEX
8
CUT
10
127.7571
20
141.5854
0
VERTEX
8
CUT
10
127.6906
20
141.5227
0
VERTEX
8
CUT
10
127.6806
20
141.5123
0
VERTEX
8
CUT
10
127.6204
20
141.4435
0
VERTEX
8
CUT
10
127.6115
20
141.4323
0
VERTEX
8
CUT
10
127.5581
20
141.3580
0
VERTEX
8
CUT
10
127.5503
20
141.3459
0
VERTEX
8
CUT
10
127.5044
20
141.2669
0
VERTEX
8
CUT
10
127.4978
20
141.2541
0
VERTEX
8
CUT
10
127.4597
20
141.1710
0
VERTEX
8
CUT
10
127.4543
20
141.1577
0
VERTEX
8
CUT
10
127.4244
20
141.0713
0
VERTEX
8
CUT
10
127.4203
20
141.0575
0
VERTEX
8
CUT
10
127.3988
20
140.9687
0
VERTEX
8
CUT
10
127.3961
20
140.9545
0
VERTEX
8
CUT
10
127.3833
20
140.8640
0
VERTEX
8
CUT
10
127.3819
20
140.8497
0
VERTEX
8
CUT
10
127.3778
20
140.7584
0
VERTEX
8
CUT
10
127.3779
20
140.7440
0
VERTEX
8
CUT
10
127.3826
20
140.6527
0
VERTEX
8
CUT
10
127.3840
20
140.6384
0
VERTEX
8
CUT
10
127.3975
20
140.5480
0
VERTEX
8
CUT
10
127.4003
20
140.5338
0
VERTEX
8
CUT
10
127.4224
20
140.4451
0
VERTEX
8
CUT
10
127.4266
20
140.4314
0
VERTEX
8
CUT
10
127.4571
20
140.3452
0
VERTEX
8
CUT
10
127.4626
20
140.3319
0
VERTEX
8
CUT
10
127.5012
20
140.2491
0
VERTEX
8
CUT
10
127.5058
20
140.2403
0
VERTEX
8
CUT
10
127.5933
20
140.0525
0
VERTEX
8
CUT
10
127.6618
20
139.8570
0
VERTEX
8
CUT
10
127.7107
20
139.6556
0
VERTEX
8
CUT
10
127.7396
20
139.4504
0
VERTEX
8
CUT
10
127.7480
20
139.2434
0
VERTEX
8
CUT
10
127.7361
20
139.0366
0
VERTEX
8
CUT
10
127.7038
20
138.8319
0
VERTEX
8
CUT
10
127.6515
20
138.6314
0
VERTEX
8
CUT
10
127.5797
20
138.4371
0
VERTEX
8
CUT
10
127.4891
20
138.2507
0
VERTEX
8
CUT
10
127.3805
20
138.0742
0
VERTEX
8
CUT
10
127.2551
20
137.9093
0
VERTEX
8
CUT
10
127.1141
20
137.7575
0
VERTEX
8
CUT
10
126.9588
20
137.6204
0
VERTEX
8
CUT
10
126.7907
20
137.4992
0
VERTEX
8
CUT
10
126.6115
20
137.3952
0
VERTEX
8
CUT
10
126.4230
20
137.3093
0
VERTEX
8
CUT
10
126.2269
20
137.2425
0
VERTEX
8
CUT
10
126.0251
20
137.1953
0
VERTEX
8
CUT
10
125.8197
20
137.1682
0
VERTEX
8
CUT
10
125.6126
20
137.1614
0
VERTEX
8
CUT
10
125.4059
20
137.1752
0
VERTEX
8
CUT
10
125.2015
20
137.2092
0
VERTEX
8
CUT
10
125.0015
20
137.2632
0
VERTEX
8
CUT
10
124.8954
20
137.2975
0
VERTEX
8
CUT
10
124.8816
20
137.3012
0
VERTEX
8
CUT
10
124.7930
20
137.3208
0
VERTEX
8
CUT
10
124.7790
20
137.3232
0
VERTEX
8
CUT
10
124.6889
20
137.3342
0
VERTEX
8
CUT
10
124.6747
20
137.3353
0
VERTEX
8
CUT
10
124.5840
20
137.3377
0
VERTEX
8
CUT
10
124.5697
20
137.3374
0
VERTEX
8
CUT
10
124.4792
20
137.3311
0
VERTEX
8
CUT
10
124.4650
20
137.3294
0
VERTEX
8
CUT
10
124.3756
20
137.3145
0
VERTEX
8
CUT
10
124.3616
20
137.3115
0
VERTEX
8
CUT
10
124.2739
20
137.2881
0
VERTEX
8
CUT
10
124.2603
20
137.2838
0
VERTEX
8
CUT
10
124.1753
20
137.2522
0
VERTEX
8
CUT
10
124.1391
20
137.2367
0
VERTEX
8
CUT
10
124.0978
20
137.2179
0
VERTEX
8
CUT
10
123.3582
20
136.8590
0
VERTEX
8
CUT
10
123.3190
20
136.8389
0
VERTEX
8
CUT
10
123.2855
20
136.8206
0
VERTEX
8
CUT
10
123.2102
20
136.7751
0
VERTEX
8
CUT
10
123.1987
20
136.7673
0
VERTEX
8
CUT
10
123.1280
20
136.7150
0
VERTEX
8
CUT
10
123.1172
20
136.7063
0
VERTEX
8
CUT
10
123.0517
20
136.6476
0
VERTEX
8
CUT
10
123.0244
20
136.6208
0
VERTEX
8
CUT
10
122.9937
20
136.5893
0
VERTEX
8
CUT
10
122.7092
20
136.2828
0
VERTEX
8
CUT
10
122.6780
20
136.2475
0
VERTEX
8
CUT
10
122.6518
20
136.2163
0
VERTEX
8
CUT
10
122.5949
20
136.1414
0
VERTEX
8
CUT
10
122.5866
20
136.1292
0
VERTEX
8
CUT
10
122.5374
20
136.0490
0
VERTEX
8
CUT
10
122.5303
20
136.0360
0
VERTEX
8
CUT
10
122.4710
20
135.9135
0
VERTEX
8
CUT
10
122.3715
20
135.7316
0
VERTEX
8
CUT
10
122.2546
20
135.5604
0
VERTEX
8
CUT
10
122.1214
20
135.4016
0
VERTEX
8
CUT
10
121.9732
20
135.2567
0
VERTEX
8
CUT
10
121.8115
20
135.1271
0
VERTEX
8
CUT
10
121.6377
20
135.0140
0
VERTEX
8
CUT
10
121.4537
20
134.9187
0
VERTEX
8
CUT
10
121.2611
20
134.8420
0
VERTEX
8
CUT
10
121.0619
20
134.7846
0
VERTEX
8
CUT
10
120.8581
20
134.7471
0
VERTEX
8
CUT
10
120.6515
20
134.7300
0
VERTEX
8
CUT
10
120.4442
20
134.7332
0
VERTEX
8
CUT
10
120.2383
20
134.7569
0
VERTEX
8
CUT
10
120.0357
20
134.8008
0
VERTEX
8
CUT
10
119.8385
20
134.8644
0
VERTEX
8
CUT
10
119.6484
20
134.9472
0
VERTEX
8
CUT
10
119.4675
20
135.0483
0
VERTEX
8
CUT
10
119.2974
20
135.1667
0
VERTEX
8
CUT
10
119.1398
20
135.3014
0
VERTEX
8
CUT
10
118.9962
20
135.4509
0
VERTEX
8
CUT
10
118.8681
20
135.6138
0
VERTEX
8
CUT
10
118.7567
20
135.7886
0
VERTEX
8
CUT
10
118.6630
20
135.9735
0
VERTEX
8
CUT
10
118.5880
20
136.1668
0
VERTEX
8
CUT
10
118.5641
20
136.2389
0
VERTEX
8
CUT
10
118.5310
20
136.3226
0
VERTEX
8
CUT
10
118.5248
20
136.3363
0
VERTEX
8
CUT
10
118.4811
20
136.4210
0
VERTEX
8
CUT
10
118.4735
20
136.4340
0
VERTEX
8
CUT
10
118.4215
20
136.5139
0
VERTEX
8
CUT
10
118.4127
20
136.5261
0
VERTEX
8
CUT
10
118.3529
20
136.6004
0
VERTEX
8
CUT
10
118.3429
20
136.6116
0
VERTEX
8
CUT
10
118.2759
20
136.6795
0
VERTEX
8
CUT
10
118.2649
20
136.6897
0
VERTEX
8
CUT
10
118.1915
20
136.7505
0
VERTEX
8
CUT
10
118.1583
20
136.7753
0
VERTEX
8
CUT
10
118.1194
20
136.8029
0
VERTEX
8
CUT
10
117.6512
20
137.1175
0
VERTEX
8
CUT
10
117.6115
20
137.1428
0
VERTEX
8
CUT
10
117.5765
20
137.1639
0
VERTEX
8
CUT
10
117.4936
20
137.2084
0
VERTEX
8
CUT
10
117.4802
20
137.2147
0
VERTEX
8
CUT
10
117.3933
20
137.2508
0
VERTEX
8
CUT
10
117.3794
20
137.2558
0
VERTEX
8
CUT
10
117.2893
20
137.2831
0
VERTEX
8
CUT
10
117.2750
20
137.2867
0
VERTEX
8
CUT
10
117.1826
20
137.3049
0
VERTEX
8
CUT
10
117.1680
20
137.3070
0
VERTEX
8
CUT
10
117.0743
20
137.3160
0
VERTEX
8
CUT
10
117.0596
20
137.3167
0
VERTEX
8
CUT
10
116.9655
20
137.3164
0
VERTEX
8
CUT
10
116.9507
20
137.3156
0
VERTEX
8
CUT
10
116.8571
20
137.3060
0
VERTEX
8
CUT
10
116.8424
20
137.3038
0
VERTEX
8
CUT
10
116.7502
20
137.2849
0
VERTEX
8
CUT
10
116.7359
20
137.2813
0
VERTEX
8
CUT
10
116.6460
20
137.2534
0
VERTEX
8
CUT
10
116.6321
20
137.2483
0
VERTEX
8
CUT
10
116.5455
20
137.2117
0
VERTEX
8
CUT
10
116.5321
20
137.2052
0
VERTEX
8
CUT
10
116.4495
20
137.1602
0
VERTEX
8
CUT
10
116.4369
20
137.1525
0
VERTEX
8
CUT
10
116.3591
20
137.0995
0
VERTEX
8
CUT
10
116.3473
20
137.0906
0
VERTEX
8
CUT
10
116.2752
20
137.0301
0
VERTEX
8
CUT
10
116.2643
20
137.0201
0
VERTEX
8
CUT
10
116.1985
20
136.9528
0
VERTEX
8
CUT
10
116.1887
20
136.9417
0
VERTEX
8
CUT
10
116.1299
20
136.8683
0
VERTEX
8
CUT
10
116.1212
20
136.8563
0
VERTEX
8
CUT
10
116.0700
20
136.7774
0
VERTEX
8
CUT
10
116.0626
20
136.7646
0
VERTEX
8
CUT
10
116.0194
20
136.6810
0
VERTEX
8
CUT
10
116.0024
20
136.6438
0
VERTEX
8
CUT
10
115.9840
20
136.6005
0
VERTEX
8
CUT
10
115.5615
20
135.5354
0
VERTEX
8
CUT
10
115.4798
20
135.3548
0
VERTEX
8
CUT
10
115.3814
20
135.1827
0
SEQEND
0
POLYLINE
8
CUT
66
1
70
1
10
0.0
20
0.0
30
0.0
0
VERTEX
8
CUT
10
97.2661
20
136.3795
0
VERTEX
8
CUT
10
97.2277
20
136.4061
0
VERTEX
8
CUT
10
97.1938
20
136.4283
0
VERTEX
8
CUT
10
97.1132
20
136.4756
0
VERTEX
8
CUT
10
97.1002
20
136.4824
0
VERTEX
8
CUT
10
97.0154
20
136.5215
0
VERTEX
8
CUT
10
97.0018
20
136.5270
0
VERTEX
8
CUT
10
96.9136
20
136.5576
0
VERTEX
8
CUT
10
96.8995
20
136.5617
0
VERTEX
8
CUT
10
96.8087
20
136.5835
0
VERTEX
8
CUT
10
96.7942
20
136.5862
0
VERTEX
8
CUT
10
96.7017
20
136.5990
0
VERTEX
8
CUT
10
96.6871
20
136.6003
0
VERTEX
8
CUT
10
96.5938
20
136.6039
0
VERTEX
8
CUT
10
96.5791
20
136.6038
0
VERTEX
8
CUT
10
96.4859
20
136.5982
0
VERTEX
8
CUT
10
96.4713
20
136.5966
0
VERTEX
8
CUT
10
96.3791
20
136.5819
0
VERTEX
8
CUT
10
96.3647
20
136.5789
0
VERTEX
8
CUT
10
96.2744
20
136.5552
0
VERTEX
8
CUT
10
96.2604
20
136.5508
0
VERTEX
8
CUT
10
96.1728
20
136.5183
0
VERTEX
8
CUT
10
96.1593
20
136.5125
0
VERTEX
8
CUT
10
96.0753
20
136.4716
0
VERTEX
8
CUT
10
96.0625
20
136.4646
0
VERTEX
8
CUT
10
95.9829
20
136.4156
0
VERTEX
8
CUT
10
95.9708
20
136.4073
0
VERTEX
8
CUT
10
95.8965
20
136.3508
0
VERTEX
8
CUT
10
95.8852
20
136.3413
0
VERTEX
8
CUT
10
95.8168
20
136.2778
0
VERTEX
8
CUT
10
95.8065
20
136.2673
0
VERTEX
8
CUT
10
95.7447
20
136.1973
0
VERTEX
8
CUT
10
95.7355
20
136.1858
0
VERTEX
8
CUT
10
95.6808
20
136.1101
0
VERTEX
8
CUT
10
95.6728
20
136.0978
0
VERTEX
8
CUT
10
95.6259
20
136.0171
0
VERTEX
8
CUT
10
95.6191
20
136.0041
0
VERTEX
8
CUT
10
95.5803
20
135.9191
0
VERTEX
8
CUT
10
95.5748
20
135.9055
0
VERTEX
8
CUT
10
95.5446
20
135.8172
0
VERTEX
8
CUT
10
95.5405
20
135.8030
0
VERTEX
8
CUT
10
95.5190
20
135.7122
0
VERTEX
8
CUT
10
95.5164
20
135.6977
0
VERTEX
8
CUT
10
95.5039
20
135.6052
0
VERTEX
8
CUT
10
95.5027
20
135.5905
0
VERTEX
8
CUT
10
95.4994
20
135.4972
0
VERTEX
8
CUT
10
95.4996
20
135.4825
0
VERTEX
8
CUT
10
95.5055
20
135.3893
0
VERTEX
8
CUT
10
95.5072
20
135.3747
0
VERTEX
8
CUT
10
95.5222
20
135.2826
0
VERTEX
8
CUT
10
95.5253
20
135.2682
0
VERTEX
8
CUT
10
95.5493
20
135.1780
0
VERTEX
8
CUT
10
95.5538
20
135.1640
0
VERTEX
8
CUT
10
95.5865
20
135.0765
0
VERTEX
8
CUT
10
95.5924
20
135.0630
0
VERTEX
8
CUT
10
95.6336
20
134.9792
0
VERTEX
8
CUT
10
95.6407
20
134.9664
0
VERTEX
8
CUT
10
95.6899
20
134.8870
0
VERTEX
8
CUT
10
95.6983
20
134.8749
0
VERTEX
8
CUT
10
95.7550
20
134.8008
0
VERTEX
8
CUT
10
95.7645
20
134.7896
0
VERTEX
8
CUT
10
95.8283
20
134.7214
0
VERTEX
8
CUT
10
95.8575
20
134.6932
0
VERTEX
8
CUT
10
95.8918
20
134.6615
0
VERTEX
8
CUT
10
97.0788
20
133.6198
0
VERTEX
8
CUT
10
97.1158
20
133.5890
0
VERTEX
8
CUT
10
97.1486
20
133.5630
0
VERTEX
8
CUT
10
97.2270
20
133.5072
0
VERTEX
8
CUT
10
97.2622
20
133.4847
0
VERTEX
8
CUT
10
97.3034
20
133.4599
0
VERTEX
8
CUT
10
99.4631
20
132.2306
0
VERTEX
8
CUT
10
99.5035
20
132.2089
0
VERTEX
8
CUT
10
99.5390
20
132.1909
0
VERTEX
8
CUT
10
99.6226
20
132.1534
0
VERTEX
8
CUT
10
99.6596
20
132.1390
0
VERTEX
8
CUT
10
99.7027
20
132.1233
0
VERTEX
8
CUT
10
101.1854
20
131.6247
0
VERTEX
8
CUT
10
101.2244
20
131.6125
0
VERTEX
8
CUT
10
101.2584
20
131.6027
0
VERTEX
8
CUT
10
101.3378
20
131.5834
0
VERTEX
8
CUT
10
101.3504
20
131.5809
0
VERTEX
8
CUT
10
101.4312
20
131.5685
0
VERTEX
8
CUT
10
101.4664
20
131.5646
0
VERTEX
8
CUT
10
101.5072
20
131.5610
0
VERTEX
8
CUT
10
103.5453
20
131.4259
0
VERTEX
8
CUT
10
103.5987
20
131.4238
0
VERTEX
8
CUT
10
103.6451
20
131.4234
0
VERTEX
8
CUT
10
103.7518
20
131.4283
0
VERTEX
8
CUT
10
103.7685
20
131.4300
0
VERTEX
8
CUT
10
103.8740
20
131.4470
0
VERTEX
8
CUT
10
103.9194
20
131.4569
0
VERTEX
8
CUT
10
103.9713
20
131.4698
0
VERTEX
8
CUT
10
106.2523
20
132.1053
0
VERTEX
8
CUT
10
106.2897
20
132.1165
0
VERTEX
8
CUT
10
106.3219
20
132.1269
0
VERTEX
8
CUT
10
106.3950
20
132.1539
0
VERTEX
8
CUT
10
106.4063
20
132.1586
0
VERTEX
8
CUT
10
106.4770
20
132.1915
0
VERTEX
8
CUT
10
106.5070
20
132.2071
0
VERTEX
8
CUT
10
106.5413
20
132.2257
0
VERTEX
8
CUT
10
107.2094
20
132.6064
0
VERTEX
8
CUT
10
107.2491
20
132.6303
0
VERTEX
8
CUT
10
107.2830
20
132.6519
0
VERTEX
8
CUT
10
107.3586
20
132.7054
0
VERTEX
8
CUT
10
107.3701
20
132.7144
0
VERTEX
8
CUT
10
107.4401
20
132.7750
0
VERTEX
8
CUT
10
107.4507
20
132.7851
0
VERTEX
8
CUT
10
107.5145
20
132.8523
0
VERTEX
8
CUT
10
107.5240
20
132.8633
0
VERTEX
8
CUT
10
107.5810
20
132.9364
0
VERTEX
8
CUT
10
107.5894
20
132.9483
0
VERTEX
8
CUT
10
107.6390
20
133.0265
0
VERTEX
8
CUT
10
107.6462
20
133.0392
0
VERTEX
8
CUT
10
107.6879
20
133.1219
0
VERTEX
8
CUT
10
107.6938
20
133.1353
0
VERTEX
8
CUT
10
107.7272
20
133.2216
0
VERTEX
8
CUT
10
107.7318
20
133.2355
0
VERTEX
8
CUT
10
107.7567
20
133.3247
0
VERTEX
8
CUT
10
107.7599
20
133.3389
0
VERTEX
8
CUT
10
107.7760
20
133.4302
0
VERTEX
8
CUT
10
107.7778
20
133.4446
0
VERTEX
8
CUT
10
107.7849
20
133.5370
0
VERTEX
8
CUT
10
107.7853
20
133.5516
0
VERTEX
8
CUT
10
107.7834
20
133.6442
0
VERTEX
8
CUT
10
107.7823
20
133.6587
0
VERTEX
8
CUT
10
107.7714
20
133.7507
0
VERTEX
8
CUT
10
107.7689
20
133.7651
0
VERTEX
8
CUT
10
107.7491
20
133.8556
0
VERTEX
8
CUT
10
107.7452
20
133.8697
0
VERTEX
8
CUT
10
107.7166
20
133.9578
0
VERTEX
8
CUT
10
107.7115
20
133.9714
0
VERTEX
8
CUT
10
107.6744
20
134.0563
0
VERTEX
8
CUT
10
107.6679
20
134.0694
0
VERTEX
8
CUT
10
107.6228
20
134.1503
0
VERTEX
8
CUT
10
107.6151
20
134.1626
0
VERTEX
8
CUT
10
107.5622
20
134.2387
0
VERTEX
8
CUT
10
107.5533
20
134.2503
0
VERTEX
8
CUT
10
107.4934
20
134.3209
0
VERTEX
8
CUT
10
107.4834
20
134.3315
0
VERTEX
8
CUT
10
107.4168
20
134.3959
0
VERTEX
8
CUT
10
107.3866
20
134.4224
0
VERTEX
8
CUT
10
107.3510
20
134.4521
0
VERTEX
8
CUT
10
107.2126
20
134.5620
0
VERTEX
8
CUT
10
107.1753
20
134.5902
0
VERTEX
8
CUT
10
107.1424
20
134.6138
0
VERTEX
8
CUT
10
107.0640
20
134.6643
0
VERTEX
8
CUT
10
107.0513
20
134.6717
0
VERTEX
8
CUT
10
106.9683
20
134.7143
0
VERTEX
8
CUT
10
106.9550
20
134.7204
0
VERTEX
8
CUT
10
106.8682
20
134.7546
0
VERTEX
8
CUT
10
106.8543
20
134.7593
0
VERTEX
8
CUT
10
106.7646
20
134.7849
0
VERTEX
8
CUT
10
106.7503
20
134.7883
0
VERTEX
8
CUT
10
106.6585
20
134.8049
0
VERTEX
8
CUT
10
106.6440
20
134.8069
0
VERTEX
8
CUT
10
106.5510
20
134.8144
0
VERTEX
8
CUT
10
106.5363
20
134.8149
0
VERTEX
8
CUT
10
106.4430
20
134.8133
0
VERTEX
8
CUT
10
106.4284
20
134.8124
0
VERTEX
8
CUT
10
106.3357
20
134.8016
0
VERTEX
8
CUT
10
106.3213
20
134.7992
0
VERTEX
8
CUT
10
106.2301
20
134.7795
0
VERTEX
8
CUT
10
106.2159
20
134.7756
0
VERTEX
8
CUT
10
106.1271
20
134.7470
0
VERTEX
8
CUT
10
106.0892
20
134.7327
0
VERTEX
8
CUT
10
106.0460
20
134.7152
0
VERTEX
8
CUT
10
105.0023
20
134.2614
0
VERTEX
8
CUT
10
104.8188
20
134.1916
0
VERTEX
8
CUT
10
104.6296
20
134.1392
0
VERTEX
8
CUT
10
104.4363
20
134.1048
0
VERTEX
8
CUT
10
104.2407
20
134.0885
0
VERTEX
8
CUT
10
103.8404
20
134.0741
0
VERTEX
8
CUT
10
103.6621
20
134.0752
0
VERTEX
8
CUT
10
103.4845
20
134.0915
0
VERTEX
8
CUT
10
103.3089
20
134.1228
0
VERTEX
8
CUT
10
100.4409
20
134.7604
0
VERTEX
8
CUT
10
100.2354
20
134.8171
0
VERTEX
8
CUT
10
100.0367
20
134.8944
0
VERTEX
8
CUT
10
98.3315
20
135.6598
0
VERTEX
8
CUT
10
98.1379
20
135.7590
0
VERTEX
8
CUT
10
97.9556
20
135.8777
0
SEQEND
0
POLYLINE
8
CUT
66
1
70
1
10
0.0
20
0.0
30
0.0
0
VERTEX
8
CUT
10
96.4826
20
177.7816
0
VERTEX
8
CUT
10
96.4379
20
177.7924
0
VERTEX
8
CUT
10
96.3990
20
177.8008
0
VERTEX
8
CUT
10
96.3084
20
177.8159
0
VERTEX
8
CUT
10
96.2940
20
177.8175
0
VERTEX
8
CUT
10
96.2024
20
177.8238
0
VERTEX
8
CUT
10
96.1880
20
177.8241
0
VERTEX
8
CUT
10
96.0962
20
177.8214
0
VERTEX
8
CUT
10
96.0818
20
177.8203
0
VERTEX
8
CUT
10
95.9907
20
177.8088
0
VERTEX
8
CUT
10
95.9765
20
177.8063
0
VERTEX
8
CUT
10
95.8869
20
177.7861
0
VERTEX
8
CUT
10
95.8730
20
177.7822
0
VERTEX
8
CUT
10
95.7858
20
177.7534
0
VERTEX
8
CUT
10
95.7723
20
177.7482
0
VERTEX
8
CUT
10
95.6883
20
177.7111
0
VERTEX
8
CUT
10
95.6754
20
177.7047
0
VERTEX
8
CUT
10
95.5954
20
177.6596
0
VERTEX
8
CUT
10
95.5831
20
177.6519
0
VERTEX
8
CUT
10
95.5078
20
177.5994
0
VERTEX
8
CUT
10
95.4964
20
177.5906
0
VERTEX
8
CUT
10
95.4265
20
177.5310
0
VERTEX
8
CUT
10
95.4160
20
177.5211
0
VERTEX
8
CUT
10
95.3522
20
177.4550
0
VERTEX
8
CUT
10
95.3427
20
177.4442
0
VERTEX
8
CUT
10
95.2856
20
177.3723
0
VERTEX
8
CUT
10
95.2771
20
177.3605
0
VERTEX
8
CUT
10
95.2272
20
177.2834
0
VERTEX
8
CUT
10
95.2200
20
177.2709
0
VERTEX
8
CUT
10
95.1778
20
177.1894
0
VERTEX
8
CUT
10
95.1718
20
177.1763
0
VERTEX
8
CUT
10
95.1376
20
177.0910
0
VERTEX
8
CUT
10
95.1329
20
177.0774
0
VERTEX
8
CUT
10
95.1072
20
176.9892
0
VERTEX
8
CUT
10
95.1038
20
176.9752
0
VERTEX
8
CUT
10
95.0867
20
176.8850
0
VERTEX
8
CUT
10
95.0847
20
176.8707
0
VERTEX
8
CUT
10
95.0763
20
176.7792
0
VERTEX
8
CUT
10
95.0757
20
176.7648
0
VERTEX
8
CUT
10
95.0763
20
176.6730
0
VERTEX
8
CUT
10
95.0771
20
176.6585
0
VERTEX
8
CUT
10
95.0865
20
176.5672
0
VERTEX
8
CUT
10
95.0887
20
176.5529
0
VERTEX
8
CUT
10
95.1069
20
176.4629
0
VERTEX
8
CUT
10
95.1104
20
176.4489
0
VERTEX
8
CUT
10
95.1372
20
176.3611
0
VERTEX
8
CUT
10
95.1421
20
176.3475
0
VERTEX
8
CUT
10
95.1773
20
176.2627
0
VERTEX
8
CUT
10
95.1835
20
176.2496
0
VERTEX
8
CUT
10
95.2267
20
176.1686
0
VERTEX
8
CUT
10
95.2341
20
176.1562
0
VERTEX
8
CUT
10
95.2849
20
176.0797
0
VERTEX
8
CUT
10
95.2935
20
176.0681
0
VERTEX
8
CUT
10
95.3515
20
175.9969
0
VERTEX
8
CUT
10
95.3611
20
175.9861
0
VERTEX
8
CUT
10
95.4257
20
175.9208
0
VERTEX
8
CUT
10
95.4363
20
175.9111
0
VERTEX
8
CUT
10
95.5069
20
175.8523
0
VERTEX
8
CUT
10
95.5185
20
175.8437
0
VERTEX
8
CUT
10
95.5944
20
175.7920
0
VERTEX
8
CUT
10
95.6284
20
175.7712
0
VERTEX
8
CUT
10
95.6682
20
175.7482
0
VERTEX
8
CUT
10
95.6767
20
175.7436
0
VERTEX
8
CUT
10
95.7211
20
175.7208
0
VERTEX
8
CUT
10
95.7850
20
175.6901
0
VERTEX
8
CUT
10
95.8305
20
175.6697
0
VERTEX
8
CUT
10
96.7033
20
175.3054
0
VERTEX
8
CUT
10
96.7507
20
175.2871
0
VERTEX
8
CUT
10
96.7923
20
175.2723
0
VERTEX
8
CUT
10
96.8898
20
175.2434
0
VERTEX
8
CUT
10
96.9327
20
175.2332
0
VERTEX
8
CUT
10
96.9825
20
175.2227
0
VERTEX
8
CUT
10
98.4083
20
174.9617
0
VERTEX
8
CUT
10
98.4492
20
174.9552
0
VERTEX
8
CUT
10
98.4848
20
174.9502
0
VERTEX
8
CUT
10
98.5672
20
174.9425
0
VERTEX
8
CUT
10
98.5802
20
174.9418
0
VERTEX
8
CUT
10
98.6630
20
174.9413
0
VERTEX
8
CUT
10
98.6760
20
174.9418
0
VERTEX
8
CUT
10
98.7586
20
174.9484
0
VERTEX
8
CUT
10
98.7942
20
174.9529
0
VERTEX
8
CUT
10
98.8352
20
174.9589
0
VERTEX
8
CUT
10
99.9278
20
175.1441
0
VERTEX
8
CUT
10
99.9739
20
175.1531
0
VERTEX
8
CUT
10
100.0137
20
175.1619
0
VERTEX
8
CUT
10
100.1043
20
175.1866
0
VERTEX
8
CUT
10
100.1183
20
175.1912
0
VERTEX
8
CUT
10
100.2060
20
175.2248
0
VERTEX
8
CUT
10
100.2195
20
175.2307
0
VERTEX
8
CUT
10
100.3034
20
175.2728
0
VERTEX
8
CUT
10
100.3162
20
175.2800
0
VERTEX
8
CUT
10
100.3956
20
175.3302
0
VERTEX
8
CUT
10
100.4077
20
175.3387
0
VERTEX
8
CUT
10
100.4817
20
175.3964
0
VERTEX
8
CUT
10
100.4929
20
175.4060
0
VERTEX
8
CUT
10
100.5608
20
175.4708
0
VERTEX
8
CUT
10
100.5710
20
175.4815
0
VERTEX
8
CUT
10
100.6322
20
175.5526
0
VERTEX
8
CUT
10
100.6413
20
175.5643
0
VERTEX
8
CUT
10
100.6952
20
175.6412
0
VERTEX
8
CUT
10
100.7030
20
175.6536
0
VERTEX
8
CUT
10
100.7491
20
175.7354
0
VERTEX
8
CUT
10
100.7557
20
175.7486
0
VERTEX
8
CUT
10
100.7934
20
175.8346
0
VERTEX
8
CUT
10
100.7987
20
175.8484
0
VERTEX
8
CUT
10
100.8278
20
175.9376
0
VERTEX
8
CUT
10
100.8316
20
175.9519
0
VERTEX
8
CUT
10
100.8518
20
176.0436
0
VERTEX
8
CUT
10
100.8542
20
176.0581
0
VERTEX
8
CUT
10
100.8652
20
176.1514
0
VERTEX
8
CUT
10
100.8662
20
176.1661
0
VERTEX
8
CUT
10
100.8679
20
176.2599
0
VERTEX
8
CUT
10
100.8674
20
176.2747
0
VERTEX
8
CUT
10
100.8598
20
176.3683
0
VERTEX
8
CUT
10
100.8579
20
176.3829
0
VERTEX
8
CUT
10
100.8412
20
176.4752
0
VERTEX
8
CUT
10
100.8378
20
176.4896
0
VERTEX
8
CUT
10
100.8120
20
176.5799
0
VERTEX
8
CUT
10
100.8072
20
176.5939
0
VERTEX
8
CUT
10
100.7726
20
176.6811
0
VERTEX
8
CUT
10
100.7665
20
176.6946
0
VERTEX
8
CUT
10
100.7235
20
176.7780
0
VERTEX
8
CUT
10
100.7161
20
176.7907
0
VERTEX
8
CUT
10
100.6650
20
176.8695
0
VERTEX
8
CUT
10
100.6564
20
176.8815
0
VERTEX
8
CUT
10
100.5978
20
176.9548
0
VERTEX
8
CUT
10
100.5880
20
176.9659
0
VERTEX
8
CUT
10
100.5224
20
177.0330
0
VERTEX
8
CUT
10
100.5116
20
177.0431
0
VERTEX
8
CUT
10
100.4397
20
177.1035
0
VERTEX
8
CUT
10
100.4280
20
177.1124
0
VERTEX
8
CUT
10
100.3505
20
177.1654
0
VERTEX
8
CUT
10
100.3379
20
177.1731
0
VERTEX
8
CUT
10
100.2556
20
177.2182
0
VERTEX
8
CUT
10
100.2423
20
177.2246
0
VERTEX
8
CUT
10
100.1559
20
177.2614
0
VERTEX
8
CUT
10
100.1421
20
177.2665
0
VERTEX
8
CUT
10
100.0525
20
177.2945
0
VERTEX
8
CUT
10
100.0382
20
177.2982
0
VERTEX
8
CUT
10
99.9463
20
177.3172
0
VERTEX
8
CUT
10
99.9317
20
177.3195
0
VERTEX
8
CUT
10
99.8383
20
177.3294
0
VERTEX
8
CUT
10
99.7977
20
177.3316
0
VERTEX
8
CUT
10
99.7507
20
177.3331
0
VERTEX
8
CUT
10
98.3887
20
177.3418
0
VERTEX
8
CUT
10
98.2103
20
177.3505
0
VERTEX
8
CUT
10
98.0334
20
177.3744
0
VERTEX
8
CUT
10
97.8591
20
177.4131
0
SEQEND
0
POLYLINE
8
CUT
66
1
70
1
10
0.0
20
0.0
30
0.0
0
VERTEX
8
CUT
10
85.2002
20
47.1584
0
VERTEX
8
CUT
10
85.1787
20
47.1989
0
VERTEX
8
CUT
10
85.1592
20
47.2336
0
VERTEX
8
CUT
10
85.1104
20
47.3114
0
VERTEX
8
CUT
10
85.1021
20
47.3232
0
VERTEX
8
CUT
10
85.0461
20
47.3959
0
VERTEX
8
CUT
10
85.0367
20
47.4069
0
VERTEX
8
CUT
10
84.9739
20
47.4738
0
VERTEX
8
CUT
10
84.9636
20
47.4838
0
VERTEX
8
CUT
10
84.8946
20
47.5443
0
VERTEX
8
CUT
10
84.8833
20
47.5533
0
VERTEX
8
CUT
10
84.8088
20
47.6069
0
VERTEX
8
CUT
10
84.7967
20
47.6147
0
VERTEX
8
CUT
10
84.7174
20
47.6609
0
VERTEX
8
CUT
10
84.7045
20
47.6675
0
VERTEX
8
CUT
10
84.6211
20
47.7058
0
VERTEX
8
CUT
10
84.6077
20
47.7112
0
VERTEX
8
CUT
10
84.5210
20
47.7412
0
VERTEX
8
CUT
10
84.5072
20
47.7453
0
VERTEX
8
CUT
10
84.4180
20
47.7668
0
VERTEX
8
CUT
10
84.4038
20
47.7695
0
VERTEX
8
CUT
10
84.3129
20
47.7824
0
VERTEX
8
CUT
10
84.2986
20
47.7837
0
VERTEX
8
CUT
10
84.2069
20
47.7877
0
VERTEX
8
CUT
10
84.1924
20
47.7876
0
VERTEX
8
CUT
10
84.1008
20
47.7827
0
VERTEX
8
CUT
10
84.0864
20
47.7812
0
VERTEX
8
CUT
10
83.9957
20
47.7675
0
VERTEX
8
CUT
10
83.9816
20
47.7647
0
VERTEX
8
CUT
10
83.8926
20
47.7423
0
VERTEX
8
CUT
10
83.8788
20
47.7381
0
VERTEX
8
CUT
10
83.7923
20
47.7072
0
VERTEX
8
CUT
10
83.7790
20
47.7017
0
VERTEX
8
CUT
10
83.6960
20
47.6626
0
VERTEX
8
CUT
10
83.6832
20
47.6558
0
VERTEX
8
CUT
10
83.6044
20
47.6089
0
VERTEX
8
CUT
10
83.5923
20
47.6009
0
VERTEX
8
CUT
10
83.5184
20
47.5466
0
VERTEX
8
CUT
10
83.5072
20
47.5375
0
VERTEX
8
CUT
10
83.4388
20
47.4763
0
VERTEX
8
CUT
10
83.4285
20
47.4662
0
VERTEX
8
CUT
10
83.3664
20
47.3987
0
VERTEX
8
CUT
10
83.3571
20
47.3876
0
VERTEX
8
CUT
10
83.3018
20
47.3144
0
VERTEX
8
CUT
10
83.2936
20
47.3025
0
VERTEX
8
CUT
10
83.2456
20
47.2243
0
VERTEX
8
CUT
10
83.2387
20
47.2116
0
VERTEX
8
CUT
10
83.1984
20
47.1291
0
VERTEX
8
CUT
10
83.1927
20
47.1159
0
VERTEX
8
CUT
10
83.1606
20
47.0299
0
VERTEX
8
CUT
10
83.1562
20
47.0162
0
VERTEX
8
CUT
10
83.1326
20
46.9275
0
VERTEX
8
CUT
10
83.1296
20
46.9134
0
VERTEX
8
CUT
10
83.1146
20
46.8228
0
VERTEX
8
CUT
10
83.1129
20
46.8085
0
VERTEX
8
CUT
10
83.1068
20
46.7169
0
VERTEX
8
CUT
10
83.1065
20
46.7025
0
VERTEX
8
CUT
10
83.1092
20
46.6108
0
VERTEX
8
CUT
10
83.1103
20
46.5964
0
VERTEX
8
CUT
10
83.1219
20
46.5054
0
VERTEX
8
CUT
10
83.1244
20
46.4911
0
VERTEX
8
CUT
10
83.1447
20
46.4016
0
VERTEX
8
CUT
10
83.1553
20
46.3633
0
VERTEX
8
CUT
10
83.1687
20
46.3193
0
VERTEX
8
CUT
10
83.9653
20
43.9123
0
VERTEX
8
CUT
10
83.9779
20
43.8767
0
VERTEX
8
CUT
10
83.9894
20
43.8460
0
VERTEX
8
CUT
10
84.0188
20
43.7763
0
VERTEX
8
CUT
10
84.0328
20
43.7466
0
VERTEX
8
CUT
10
84.0495
20
43.7127
0
VERTEX
8
CUT
10
85.0760
20
41.7353
0
VERTEX
8
CUT
10
85.0951
20
41.7004
0
VERTEX
8
CUT
10
85.1122
20
41.6705
0
VERTEX
8
CUT
10
85.1546
20
41.6033
0
VERTEX
8
CUT
10
85.1742
20
41.5749
0
VERTEX
8
CUT
10
85.1975
20
41.5427
0
VERTEX
8
CUT
10
86.3596
20
40.0020
0
VERTEX
8
CUT
10
86.3881
20
39.9661
0
VERTEX
8
CUT
10
86.4136
20
39.9355
0
VERTEX
8
CUT
10
86.4756
20
39.8679
0
VERTEX
8
CUT
10
86.5039
20
39.8400
0
VERTEX
8
CUT
10
86.5373
20
39.8085
0
VERTEX
8
CUT
10
87.7043
20
38.7614
0
VERTEX
8
CUT
10
87.7474
20
38.7249
0
VERTEX
8
CUT
10
87.7858
20
38.6945
0
VERTEX
8
CUT
10
87.8781
20
38.6296
0
VERTEX
8
CUT
10
87.9197
20
38.6039
0
VERTEX
8
CUT
10
87.9687
20
38.5757
0
VERTEX
8
CUT
10
89.2031
20
37.9118
0
VERTEX
8
CUT
10
89.2394
20
37.8933
0
VERTEX
8
CUT
10
89.2712
20
37.8779
0
VERTEX
8
CUT
10
89.3460
20
37.8456
0
VERTEX
8
CUT
10
89.3580
20
37.8410
0
VERTEX
8
CUT
10
89.4353
20
37.8153
0
VERTEX
8
CUT
10
89.4693
20
37.8055
0
VERTEX
8
CUT
10
89.5087
20
37.7952
0
VERTEX
8
CUT
10
90.8883
20
37.4635
0
VERTEX
8
CUT
10
90.9293
20
37.4546
0
VERTEX
8
CUT
10
90.9651
20
37.4477
0
VERTEX
8
CUT
10
91.0482
20
37.4353
0
VERTEX
8
CUT
10
91.0614
20
37.4340
0
VERTEX
8
CUT
10
91.1452
20
37.4290
0
VERTEX
8
CUT
10
91.1816
20
37.4285
0
VERTEX
8
CUT
10
91.2237
20
37.4288
0
VERTEX
8
CUT
10
92.6995
20
37.4724
0
VERTEX
8
CUT
10
92.7401
20
37.4745
0
VERTEX
8
CUT
10
92.7752
20
37.4770
0
VERTEX
8
CUT
10
92.8558
20
37.4863
0
VERTEX
8
CUT
10
92.8685
20
37.4884
0
VERTEX
8
CUT
10
92.9480
20
37.5045
0
VERTEX
8
CUT
10
92.9822
20
37.5130
0
VERTEX
8
CUT
10
93.0214
20
37.5236
0
VERTEX
8
CUT
10
95.1108
20
38.1382
0
VERTEX
8
CUT
10
95.1549
20
38.1523
0
VERTEX
8
CUT
10
95.1928
20
38.1655
0
VERTEX
8
CUT
10
95.2786
20
38.2001
0
VERTEX
8
CUT
10
95.2919
20
38.2062
0
VERTEX
8
CUT
10
95.3739
20
38.2490
0
VERTEX
8
CUT
10
95.4085
20
38.2693
0
VERTEX
8
CUT
10
95.4479
20
38.2937
0
VERTEX
8
CUT
10
97.0225
20
39.3221
0
VERTEX
8
CUT
10
97.0570
20
39.3457
0
VERTEX
8
CUT
10
97.0864
20
39.3668
0
VERTEX
8
CUT
10
97.1520
20
39.4184
0
VERTEX
8
CUT
10
97.1794
20
39.4420
0
VERTEX
8
CUT
10
97.2105
20
39.4699
0
VERTEX
8
CUT
10
99.0375
20
41.1868
0
VERTEX
8
CUT
10
99.0599
20
41.2086
0
VERTEX
8
CUT
10
99.0912
20
41.2400
0
VERTEX
8
CUT
10
99.1129
20
41.2625
0
VERTEX
8
CUT
10
99.9918
20
42.2047
0
VERTEX
8
CUT
10
100.0232
20
42.2401
0
VERTEX
8
CUT
10
100.0497
20
42.2715
0
VERTEX
8
CUT
10
100.1071
20
42.3469
0
VERTEX
8
CUT
10
100.1155
20
42.3591
0
VERTEX
8
CUT
10
100.1651
20
42.4398
0
VERTEX
8
CUT
10
100.1723
20
42.4529
0
VERTEX
8
CUT
10
100.2136
20
42.5381
0
VERTEX
8
CUT
10
100.2194
20
42.5518
0
VERTEX
8
CUT
10
100.2520
20
42.6407
0
VERTEX
8
CUT
10
100.2564
20
42.6549
0
VERTEX
8
CUT
10
100.2800
20
42.7466
0
VERTEX
8
CUT
10
100.2830
20
42.7612
0
VERTEX
8
CUT
10
100.2973
20
42.8548
0
VERTEX
8
CUT
10
100.2989
20
42.8696
0
VERTEX
8
CUT
10
100.3038
20
42.9641
0
VERTEX
8
CUT
10
100.3038
20
42.9790
0
VERTEX
8
CUT
10
100.2993
20
43.0736
0
VERTEX
8
CUT
10
100.2979
20
43.0884
0
VERTEX
8
CUT
10
100.2840
20
43.1821
0
VERTEX
8
CUT
10
100.2811
20
43.1967
0
VERTEX
8
CUT
10
100.2579
20
43.2885
0
VERTEX
8
CUT
10
100.2536
20
43.3027
0
VERTEX
8
CUT
10
100.2214
20
43.3918
0
VERTEX
8
CUT
10
100.2156
20
43.4055
0
VERTEX
8
CUT
10
100.1747
20
43.4909
0
VERTEX
8
CUT
10
100.1676
20
43.5040
0
VERTEX
8
CUT
10
100.1185
20
43.5849
0
VERTEX
8
CUT
10
100.1101
20
43.5972
0
VERTEX
8
CUT
10
100.0531
20
43.6728
0
VERTEX
8
CUT
10
100.0435
20
43.6843
0
VERTEX
8
CUT
10
99.9793
20
43.7538
0
VERTEX
8
CUT
10
99.9686
20
43.7642
0
VERTEX
8
CUT
10
99.8978
20
43.8270
0
VERTEX
8
CUT
10
99.8861
20
43.8363
0
VERTEX
8
CUT
10
99.8094
20
43.8917
0
VERTEX
8
CUT
10
99.7969
20
43.8998
0
VERTEX
8
CUT
10
99.7150
20
43.9473
0
VERTEX
8
CUT
10
99.7017
20
43.9542
0
VERTEX
8
CUT
10
99.6155
20
43.9933
0
VERTEX
8
CUT
10
99.6017
20
43.9987
0
VERTEX
8
CUT
10
99.5120
20
44.0291
0
VERTEX
8
CUT
10
99.4976
20
44.0331
0
VERTEX
8
CUT
10
99.4054
20
44.0544
0
VERTEX
8
CUT
10
99.3907
20
44.0570
0
VERTEX
8
CUT
10
99.2968
20
44.0689
0
VERTEX
8
CUT
10
99.2819
20
44.0701
0
VERTEX
8
CUT
10
99.1873
20
44.0726
0
VERTEX
8
CUT
10
99.1724
20
44.0722
0
VERTEX
8
CUT
10
99.0780
20
44.0653
0
VERTEX
8
CUT
10
99.0632
20
44.0635
0
VERTEX
8
CUT
10
98.9699
20
44.0472
0
VERTEX
8
CUT
10
98.9554
20
44.0439
0
VERTEX
8
CUT
10
98.8642
20
44.0184
0
VERTEX
8
CUT
10
98.8501
20
44.0137
0
VERTEX
8
CUT
10
98.7619
20
43.9792
0
VERTEX
8
CUT
10
98.7483
20
43.9731
0
VERTEX
8
CUT
10
98.6640
20
43.9301
0
VERTEX
8
CUT
10
98.6284
20
43.9096
0
VERTEX
8
CUT
10
98.5879
20
43.8849
0
VERTEX
8
CUT
10
97.6079
20
43.2541
0
VERTEX
8
CUT
10
97.4543
20
43.1642
0
VERTEX
8
CUT
10
97.2936
20
43.0876
0
VERTEX
8
CUT
10
97.1269
20
43.0249
0
VERTEX
8
CUT
10
95.2606
20
42.4115
0
VERTEX
8
CUT
10
94.9924
20
42.3426
0
VERTEX
8
CUT
10
93.2589
20
42.0171
0
VERTEX
8
CUT
10
93.0451
20
41.9882
0
VERTEX
8
CUT
10
92.8294
20
41.9815
0
VERTEX
8
CUT
10
91.6980
20
42.0041
0
VERTEX
8
CUT
10
91.4765
20
42.0203
0
VERTEX
8
CUT
10
91.2578
20
42.0597
0
VERTEX
8
CUT
10
91.0446
20
42.1221
0
VERTEX
8
CUT
10
90.0484
20
42.4717
0
VERTEX
8
CUT
10
89.8154
20
42.5696
0
VERTEX
8
CUT
10
89.5957
20
42.6948
0
VERTEX
8
CUT
10
88.2637
20
43.5645
0
VERTEX
8
CUT
10
88.1193
20
43.6677
0
VERTEX
8
CUT
10
87.9841
20
43.7829
0
VERTEX
8
CUT
10
86.6935
20
44.9793
0
VERTEX
8
CUT
10
86.5340
20
45.1442
0
VERTEX
8
CUT
10
86.3936
20
45.3254
0
VERTEX
8
CUT
10
85.4766
20
46.6522
0
VERTEX
8
CUT
10
85.3260
20
46.9069
0
SEQEND
0
ENDSEC
0
EOF
