0
SECTION
2
HEADER
9
$ACADVER
1
AC1009
9
$INSUNITS
70
4
0
ENDSEC
0
SECTION
2
TABLES
0
TABLE
2
LAYER
70
1
0
LAYER
2
CUT
70
0
62
7
6
CONTINUOUS
0
ENDTAB
0
ENDSEC
0
SECTION
2
ENTITIES
0
POLYLINE
8
CUT
66
1
70
1
10
0.0
20
0.0
30
0.0
0
VERTEX
8
CUT
10
-0.1500
20
297.5872
0
VERTEX
8
CUT
10
-0.1350
20
297.8933
0
VERTEX
8
CUT
10
-0.0990
20
298.1357
0
VERTEX
8
CUT
10
-0.0395
20
298.3734
0
VERTEX
8
CUT
10
0.0431
20
298.6041
0
VERTEX
8
CUT
10
0.1479
20
298.8256
0
VERTEX
8
CUT
10
0.2738
20
299.0358
0
VERTEX
8
CUT
10
0.4198
20
299.2326
0
VERTEX
8
CUT
10
0.5844
20
299.4142
0
VERTEX
8
CUT
10
0.7659
20
299.5787
0
VERTEX
8
CUT
10
0.9627
20
299.7247
0
VERTEX
8
CUT
10
1.1729
20
299.8507
0
VERTEX
8
CUT
10
1.3944
20
299.9554
0
VERTEX
8
CUT
10
1.6252
20
300.0380
0
VERTEX
8
CUT
10
1.8629
20
300.0975
0
VERTEX
8
CUT
10
2.1053
20
300.1335
0
VERTEX
8
CUT
10
2.4114
20
300.1485
0
VERTEX
8
CUT
10
297.5886
20
300.1485
0
VERTEX
8
CUT
10
297.8947
20
300.1335
0
VERTEX
8
CUT
10
298.1371
20
300.0975
0
VERTEX
8
CUT
10
298.3748
20
300.0380
0
VERTEX
8
CUT
10
298.6056
20
299.9554
0
VERTEX
8
CUT
10
298.8271
20
299.8507
0
VERTEX
8
CUT
10
299.0373
20
299.7247
0
VERTEX
8
CUT
10
299.2341
20
299.5787
0
VERTEX
8
CUT
10
299.4156
20
299.4142
0
VERTEX
8
CUT
10
299.5802
20
299.2326
0
VERTEX
8
CUT
10
299.7262
20
299.0358
0
VERTEX
8
CUT
10
299.8521
20
298.8256
0
VERTEX
8
CUT
10
299.9569
20
298.6041
0
VERTEX
8
CUT
10
300.0395
20
298.3734
0
VERTEX
8
CUT
10
300.0990
20
298.1357
0
VERTEX
8
CUT
10
300.1350
20
297.8933
0
VERTEX
8
CUT
10
300.1500
20
297.5872
0
VERTEX
8
CUT
10
300.1500
20
2.4114
0
VERTEX
8
CUT
10
300.1350
20
2.1053
0
VERTEX
8
CUT
10
300.0990
20
1.8629
0
VERTEX
8
CUT
10
300.0395
20
1.6252
0
VERTEX
8
CUT
10
299.9569
20
1.3944
0
VERTEX
8
CUT
10
299.8521
20
1.1729
0
VERTEX
8
CUT
10
299.7262
20
0.9627
0
VERTEX
8
CUT
10
299.5802
20
0.7659
0
VERTEX
8
CUT
10
299.4156
20
0.5844
0
VERTEX
8
CUT
10
299.2341
20
0.4198
0
VERTEX
8
CUT
10
299.0373
20
0.2738
0
VERTEX
8
CUT
10
298.8271
20
0.1479
0
VERTEX
8
CUT
10
298.6056
20
0.0431
0
VERTEX
8
CUT
10
298.3748
20
-0.0395
0
VERTEX
8
CUT
10
298.1371
20
-0.0990
0
VERTEX
8
CUT
10
297.8947
20
-0.1350
0
VERTEX
8
CUT
10
297.5886
20
-0.1500
0
VERTEX
8
CUT
10
2.4114
20
-0.1500
0
VERTEX
8
CUT
10
2.1053
20
-0.1350
0
VERTEX
8
CUT
10
1.8629
20
-0.0990
0
VERTEX
8
CUT
10
1.6252
20
-0.0395
0
VERTEX
8
CUT
10
1.3944
20
0.0431
0
VERTEX
8
CUT
10
1.1729
20
0.1479
0
VERTEX
8
CUT
10
0.9627
20
0.2738
0
VERTEX
8
CUT
10
0.7659
20
0.4198
0
VERTEX
8
CUT
10
0.5844
20
0.5844
0
VERTEX
8
CUT
10
0.4198
20
0.7659
0
VERTEX
8
CUT
10
0.2738
20
0.9627
0
VERTEX
8
CUT
10
0.1479
20
1.1729
0
VERTEX
8
CUT
10
0.0431
20
1.3944
0
VERTEX
8
CUT
10
-0.0395
20
1.6252
0
VERTEX
8
CUT
10
-0.0990
20
1.8629
0
VERTEX
8
CUT
10
-0.1350
20
2.1053
0
VERTEX
8
CUT
10
-0.1500
20
2.4114
0
SEQEND
0
POLYLINE
8
CUT
66
1
70
1
10
0.0
20
0.0
30
0.0
0
VERTEX
8
CUT
10
237.3407
20
188.4141
0
VERTEX
8
CUT
10
237.3394
20
188.2007
0
VERTEX
8
CUT
10
237.3564
20
187.9879
0
VERTEX
8
CUT
10
237.4351
20
187.3476
0
VERTEX
8
CUT
10
237.4840
20
187.0750
0
VERTEX
8
CUT
10
237.5629
20
186.8094
0
VERTEX
8
CUT
10
237.7750
20
186.2171
0
VERTEX
8
CUT
10
237.8627
20
186.0039
0
VERTEX
8
CUT
10
237.9696
20
185.7997
0
VERTEX
8
CUT
10
238.3020
20
185.2303
0
VERTEX
8
CUT
10
238.4430
20
185.0151
0
VERTEX
8
CUT
10
238.6052
20
184.8156
0
VERTEX
8
CUT
10
239.0445
20
184.3290
0
VERTEX
8
CUT
10
239.2109
20
184.1613
0
VERTEX
8
CUT
10
239.3924
20
184.0101
0
VERTEX
8
CUT
10
239.8737
20
183.6461
0
VERTEX
8
CUT
10
240.1168
20
183.4837
0
VERTEX
8
CUT
10
240.3772
20
183.3508
0
VERTEX
8
CUT
10
240.7809
20
183.1737
0
VERTEX
8
CUT
10
241.0177
20
183.0838
0
VERTEX
8
CUT
10
241.2624
20
183.0184
0
VERTEX
8
CUT
10
241.5124
20
182.9780
0
VERTEX
8
CUT
10
242.8840
20
182.8274
0
VERTEX
8
CUT
10
243.1472
20
182.8125
0
VERTEX
8
CUT
10
243.4106
20
182.8254
0
VERTEX
8
CUT
10
243.6711
20
182.8659
0
VERTEX
8
CUT
10
244.4876
20
183.0376
0
VERTEX
8
CUT
10
244.7390
20
183.1042
0
VERTEX
8
CUT
10
244.9822
20
183.1967
0
VERTEX
8
CUT
10
245.2144
20
183.3139
0
VERTEX
8
CUT
10
245.7041
20
183.5939
0
VERTEX
8
CUT
10
245.9531
20
183.7567
0
VERTEX
8
CUT
10
246.1811
20
183.9479
0
VERTEX
8
CUT
10
246.4519
20
184.2042
0
VERTEX
8
CUT
10
246.6084
20
184.3661
0
VERTEX
8
CUT
10
246.7496
20
184.5415
0
VERTEX
8
CUT
10
247.0117
20
184.8987
0
VERTEX
8
CUT
10
247.1643
20
185.1331
0
VERTEX
8
CUT
10
247.2898
20
185.3831
0
VERTEX
8
CUT
10
247.8140
20
186.5923
0
VERTEX
8
CUT
10
247.9039
20
186.8326
0
VERTEX
8
CUT
10
247.9686
20
187.0808
0
VERTEX
8
CUT
10
248.0463
20
187.4566
0
VERTEX
8
CUT
10
248.0797
20
187.6604
0
VERTEX
8
CUT
10
248.0961
20
187.8663
0
VERTEX
8
CUT
10
248.0955
20
188.0729
0
VERTEX
8
CUT
10
248.0519
20
189.0606
0
VERTEX
8
CUT
10
248.0239
20
189.3393
0
VERTEX
8
CUT
10
247.9649
20
189.6131
0
VERTEX
8
CUT
10
247.8756
20
189.8785
0
VERTEX
8
CUT
10
247.4723
20
190.8871
0
VERTEX
8
CUT
10
247.3538
20
191.1411
0
VERTEX
8
CUT
10
247.2077
20
191.3801
0
VERTEX
8
CUT
10
247.0357
20
191.6014
0
VERTEX
8
CUT
10
246.4369
20
192.2885
0
VERTEX
8
CUT
10
246.2481
20
192.4828
0
VERTEX
8
CUT
10
246.0395
20
192.6555
0
VERTEX
8
CUT
10
245.8134
20
192.8046
0
VERTEX
8
CUT
10
245.0226
20
193.2666
0
VERTEX
8
CUT
10
244.8061
20
193.3793
0
VERTEX
8
CUT
10
244.5796
20
193.4704
0
VERTEX
8
CUT
10
244.3453
20
193.5389
0
VERTEX
8
CUT
10
243.5303
20
193.7347
0
VERTEX
8
CUT
10
243.2994
20
193.7788
0
VERTEX
8
CUT
10
243.0654
20
193.8010
0
VERTEX
8
CUT
10
242.8304
20
193.8011
0
VERTEX
8
CUT
10
241.9892
20
193.7621
0
VERTEX
8
CUT
10
241.7379
20
193.7376
0
VERTEX
8
CUT
10
241.4904
20
193.6880
0
VERTEX
8
CUT
10
241.2491
20
193.6136
0
VERTEX
8
CUT
10
240.4492
20
193.3221
0
VERTEX
8
CUT
10
240.2503
20
193.2397
0
VERTEX
8
CUT
10
240.0593
20
193.1406
0
VERTEX
8
CUT
10
239.8775
20
193.0253
0
VERTEX
8
CUT
10
239.7062
20
192.8949
0
VERTEX
8
CUT
10
239.0067
20
192.3128
0
VERTEX
8
CUT
10
238.8109
20
192.1314
0
VERTEX
8
CUT
10
238.6356
20
191.9301
0
VERTEX
8
CUT
10
238.4827
20
191.7113
0
VERTEX
8
CUT
10
237.8806
20
190.7429
0
VERTEX
8
CUT
10
237.7667
20
190.5391
0
VERTEX
8
CUT
10
237.6723
20
190.3256
0
VERTEX
8
CUT
10
237.5983
20
190.1042
0
VERTEX
8
CUT
10
237.4644
20
189.6317
0
VERTEX
8
CUT
10
237.4026
20
189.3543
0
VERTEX
8
CUT
10
237.3727
20
189.0716
0
SEQEND
0
POLYLINE
8
CUT
66
1
70
1
10
0.0
20
0.0
30
0.0
0
VERTEX
8
CUT
10
187.3264
20
86.4852
0
VERTEX
8
CUT
10
187.1230
20
86.3539
0
VERTEX
8
CUT
10
186.9332
20
86.2035
0
VERTEX
8
CUT
10
186.7588
20
86.0355
0
VERTEX
8
CUT
10
186.6015
20
85.8514
0
VERTEX
8
CUT
10
186.4628
20
85.6530
0
VERTEX
8
CUT
10
186.3439
20
85.4421
0
VERTEX
8
CUT
10
186.2460
20
85.2207
0
VERTEX
8
CUT
10
186.1699
20
84.9908
0
VERTEX
8
CUT
10
186.1165
20
84.7546
0
VERTEX
8
CUT
10
186.0861
20
84.5144
0
VERTEX
8
CUT
10
186.0791
20
84.2724
0
VERTEX
8
CUT
10
186.0956
20
84.0308
0
VERTEX
8
CUT
10
186.1354
20
83.7920
0
VERTEX
8
CUT
10
186.1980
20
83.5581
0
VERTEX
8
CUT
10
186.2830
20
83.3314
0
VERTEX
8
CUT
10
186.3896
20
83.1140
0
VERTEX
8
CUT
10
186.5166
20
82.9079
0
VERTEX
8
CUT
10
186.6630
20
82.7150
0
VERTEX
8
CUT
10
190.0653
20
78.6578
0
VERTEX
8
CUT
10
190.1941
20
78.4953
0
VERTEX
8
CUT
10
190.2162
20
78.4657
0
VERTEX
8
CUT
10
190.4459
20
78.1206
0
VERTEX
8
CUT
10
190.4646
20
78.0888
0
VERTEX
8
CUT
10
190.5648
20
77.9072
0
VERTEX
8
CUT
10
191.1563
20
76.7614
0
VERTEX
8
CUT
10
191.2306
20
76.6091
0
VERTEX
8
CUT
10
191.2433
20
76.5816
0
VERTEX
8
CUT
10
191.3606
20
76.2931
0
VERTEX
8
CUT
10
191.4514
20
75.9952
0
VERTEX
8
CUT
10
191.4589
20
75.9658
0
VERTEX
8
CUT
10
191.4972
20
75.8008
0
VERTEX
8
CUT
10
191.7174
20
74.7445
0
VERTEX
8
CUT
10
191.7633
20
74.4754
0
VERTEX
8
CUT
10
191.7878
20
74.2918
0
VERTEX
8
CUT
10
191.8140
20
74.0201
0
VERTEX
8
CUT
10
191.8538
20
73.3565
0
VERTEX
8
CUT
10
191.8801
20
73.1147
0
VERTEX
8
CUT
10
191.9298
20
72.8766
0
VERTEX
8
CUT
10
192.0024
20
72.6445
0
VERTEX
8
CUT
10
192.0972
20
72.4205
0
VERTEX
8
CUT
10
192.2133
20
72.2068
0
VERTEX
8
CUT
10
192.3497
20
72.0054
0
VERTEX
8
CUT
10
192.5049
20
71.8182
0
VERTEX
8
CUT
10
192.6776
20
71.6470
0
VERTEX
8
CUT
10
192.8661
20
71.4934
0
VERTEX
8
CUT
10
193.0687
20
71.3588
0
VERTEX
8
CUT
10
193.2834
20
71.2445
0
VERTEX
8
CUT
10
193.5082
20
71.1517
0
VERTEX
8
CUT
10
193.7409
20
71.0811
0
VERTEX
8
CUT
10
193.9794
20
71.0334
0
VERTEX
8
CUT
10
194.2214
20
71.0092
0
VERTEX
8
CUT
10
194.4646
20
71.0086
0
VERTEX
8
CUT
10
194.7067
20
71.0316
0
VERTEX
8
CUT
10
194.9454
20
71.0780
0
VERTEX
8
CUT
10
195.1785
20
71.1474
0
VERTEX
8
CUT
10
195.4038
20
71.2392
0
VERTEX
8
CUT
10
195.6190
20
71.3524
0
VERTEX
8
CUT
10
195.8223
20
71.4859
0
VERTEX
8
CUT
10
196.0116
20
71.6386
0
VERTEX
8
CUT
10
196.1851
20
71.8090
0
VERTEX
8
CUT
10
196.3413
20
71.9954
0
VERTEX
8
CUT
10
196.4787
20
72.1961
0
VERTEX
8
CUT
10
196.5959
20
72.4092
0
VERTEX
8
CUT
10
196.6918
20
72.6326
0
VERTEX
8
CUT
10
196.7656
20
72.8644
0
VERTEX
8
CUT
10
196.8165
20
73.1022
0
VERTEX
8
CUT
10
197.0351
20
74.4384
0
VERTEX
8
CUT
10
197.0638
20
74.6982
0
VERTEX
8
CUT
10
197.0652
20
74.9595
0
VERTEX
8
CUT
10
197.0393
20
75.2196
0
VERTEX
8
CUT
10
196.7796
20
76.9194
0
VERTEX
8
CUT
10
196.7332
20
77.1498
0
VERTEX
8
CUT
10
196.6654
20
77.3749
0
VERTEX
8
CUT
10
196.5767
20
77.5926
0
VERTEX
8
CUT
10
194.6157
20
81.8261
0
VERTEX
8
CUT
10
194.5396
20
82.0022
0
VERTEX
8
CUT
10
194.5268
20
82.0339
0
VERTEX
8
CUT
10
194.4121
20
82.3673
0
VERTEX
8
CUT
10
194.3390
20
82.6806
0
VERTEX
8
CUT
10
194.2944
20
83.0303
0
VERTEX
8
CUT
10
194.2918
20
83.0645
0
VERTEX
8
CUT
10
194.2823
20
83.2561
0
VERTEX
8
CUT
10
194.2036
20
86.4757
0
VERTEX
8
CUT
10
194.1860
20
86.7171
0
VERTEX
8
CUT
10
194.1451
20
86.9557
0
VERTEX
8
CUT
10
194.0814
20
87.1891
0
VERTEX
8
CUT
10
193.9953
20
87.4153
0
VERTEX
8
CUT
10
193.8878
20
87.6322
0
VERTEX
8
CUT
10
193.7599
20
87.8376
0
VERTEX
8
CUT
10
193.6127
20
88.0297
0
VERTEX
8
CUT
10
193.4476
20
88.2066
0
VERTEX
8
CUT
10
193.2661
20
88.3668
0
VERTEX
8
CUT
10
193.0700
20
88.5087
0
VERTEX
8
CUT
10
192.8612
20
88.6309
0
VERTEX
8
CUT
10
192.6414
20
88.7324
0
VERTEX
8
CUT
10
192.4129
20
88.8121
0
VERTEX
8
CUT
10
192.1778
20
88.8694
0
VERTEX
8
CUT
10
191.9382
20
88.9037
0
VERTEX
8
CUT
10
191.6965
20
88.9147
0
VERTEX
8
CUT
10
191.4548
20
88.9022
0
VERTEX
8
CUT
10
191.2154
20
88.8664
0
VERTEX
8
CUT
10
190.9806
20
88.8076
0
VERTEX
8
CUT
10
190.7526
20
88.7264
0
VERTEX
8
CUT
10
190.5336
20
88.6236
0
VERTEX
8
CUT
10
190.3255
20
88.5000
0
VERTEX
8
CUT
10
190.1303
20
88.3569
0
VERTEX
8
CUT
10
189.3041
20
87.6874
0
VERTEX
8
CUT
10
189.1884
20
87.5973
0
VERTEX
8
CUT
10
189.1674
20
87.5816
0
VERTEX
8
CUT
10
188.9259
20
87.4153
0
VERTEX
8
CUT
10
188.9037
20
87.4013
0
VERTEX
8
CUT
10
188.7782
20
87.3254
0
SEQEND
0
POLYLINE
8
CUT
66
1
70
1
10
0.0
20
0.0
30
0.0
0
VERTEX
8
CUT
10
102.6207
20
74.9066
0
VERTEX
8
CUT
10
102.6581
20
74.7605
0
VERTEX
8
CUT
10
102.7406
20
74.5324
0
VERTEX
8
CUT
10
102.8449
20
74.3135
0
VERTEX
8
CUT
10
102.9699
20
74.1056
0
VERTEX
8
CUT
10
103.1144
20
73.9108
0
VERTEX
8
CUT
10
103.2771
20
73.7310
0
VERTEX
8
CUT
10
103.4565
20
73.5678
0
VERTEX
8
CUT
10
103.6509
20
73.4227
0
VERTEX
8
CUT
10
103.8584
20
73.2972
0
VERTEX
8
CUT
10
104.0771
20
73.1923
0
VERTEX
8
CUT
10
104.3049
20
73.1091
0
VERTEX
8
CUT
10
104.5398
20
73.0484
0
VERTEX
8
CUT
10
104.7794
20
73.0108
0
VERTEX
8
CUT
10
105.0215
20
72.9965
0
VERTEX
8
CUT
10
105.2638
20
73.0058
0
VERTEX
8
CUT
10
105.5042
20
73.0385
0
VERTEX
8
CUT
10
105.7402
20
73.0943
0
VERTEX
8
CUT
10
105.9697
20
73.1727
0
VERTEX
8
CUT
10
106.1905
20
73.2731
0
VERTEX
8
CUT
10
106.4006
20
73.3943
0
VERTEX
8
CUT
10
106.5979
20
73.5353
0
VERTEX
8
CUT
10
106.7806
20
73.6948
0
VERTEX
8
CUT
10
106.9470
20
73.8712
0
VERTEX
8
CUT
10
107.0956
20
74.0630
0
VERTEX
8
CUT
10
107.2248
20
74.2682
0
VERTEX
8
CUT
10
107.3336
20
74.4850
0
VERTEX
8
CUT
10
107.4208
20
74.7113
0
VERTEX
8
CUT
10
107.4857
20
74.9450
0
VERTEX
8
CUT
10
107.4898
20
74.9629
0
VERTEX
8
CUT
10
107.7128
20
75.8450
0
VERTEX
8
CUT
10
107.7607
20
76.0817
0
VERTEX
8
CUT
10
107.7854
20
76.3219
0
VERTEX
8
CUT
10
107.7869
20
76.5634
0
VERTEX
8
CUT
10
107.7650
20
76.8039
0
VERTEX
8
CUT
10
107.7201
20
77.0412
0
VERTEX
8
CUT
10
107.6525
20
77.2730
0
VERTEX
8
CUT
10
107.6184
20
77.3583
0
VERTEX
8
CUT
10
107.6457
20
77.3683
0
VERTEX
8
CUT
10
107.8678
20
77.4750
0
VERTEX
8
CUT
10
108.0784
20
77.6031
0
VERTEX
8
CUT
10
108.2753
20
77.7513
0
VERTEX
8
CUT
10
108.4567
20
77.9182
0
VERTEX
8
CUT
10
108.6208
20
78.1022
0
VERTEX
8
CUT
10
108.7659
20
78.3014
0
VERTEX
8
CUT
10
109.2977
20
79.1124
0
VERTEX
8
CUT
10
109.4572
20
79.3372
0
VERTEX
8
CUT
10
109.5710
20
79.4856
0
VERTEX
8
CUT
10
109.7465
20
79.6980
0
VERTEX
8
CUT
10
112.7633
20
83.0866
0
VERTEX
8
CUT
10
112.9203
20
83.2818
0
VERTEX
8
CUT
10
113.0570
20
83.4918
0
VERTEX
8
CUT
10
113.1720
20
83.7144
0
VERTEX
8
CUT
10
113.2641
20
83.9474
0
VERTEX
8
CUT
10
113.3324
20
84.1884
0
VERTEX
8
CUT
10
113.3763
20
84.4350
0
VERTEX
8
CUT
10
113.3953
20
84.6848
0
VERTEX
8
CUT
10
113.3892
20
84.9353
0
VERTEX
8
CUT
10
113.3580
20
85.1839
0
VERTEX
8
CUT
10
113.3021
20
85.4281
0
VERTEX
8
CUT
10
113.2221
20
85.6655
0
VERTEX
8
CUT
10
113.1186
20
85.8937
0
VERTEX
8
CUT
10
112.9929
20
86.1104
0
VERTEX
8
CUT
10
112.8461
20
86.3134
0
VERTEX
8
CUT
10
112.6798
20
86.5007
0
VERTEX
8
CUT
10
112.4955
20
86.6704
0
VERTEX
8
CUT
10
112.2952
20
86.8208
0
VERTEX
8
CUT
10
112.0808
20
86.9505
0
VERTEX
8
CUT
10
109.8074
20
88.1738
0
VERTEX
8
CUT
10
109.6450
20
88.2665
0
VERTEX
8
CUT
10
109.6165
20
88.2838
0
VERTEX
8
CUT
10
109.3414
20
88.4693
0
VERTEX
8
CUT
10
109.1271
20
88.5987
0
VERTEX
8
CUT
10
108.9009
20
88.7061
0
VERTEX
8
CUT
10
108.6651
20
88.7903
0
VERTEX
8
CUT
10
108.4221
20
88.8505
0
VERTEX
8
CUT
10
108.1743
20
88.8860
0
VERTEX
8
CUT
10
107.9242
20
88.8967
0
VERTEX
8
CUT
10
107.6743
20
88.8822
0
VERTEX
8
CUT
10
107.4271
20
88.8428
0
VERTEX
8
CUT
10
107.1850
20
88.7789
0
VERTEX
8
CUT
10
106.9506
20
88.6911
0
VERTEX
8
CUT
10
106.7261
20
88.5803
0
VERTEX
8
CUT
10
106.5138
20
88.4477
0
VERTEX
8
CUT
10
106.3158
20
88.2944
0
VERTEX
8
CUT
10
106.1342
20
88.1221
0
VERTEX
8
CUT
10
105.9707
20
87.9325
0
VERTEX
8
CUT
10
105.8270
20
87.7275
0
VERTEX
8
CUT
10
105.7045
20
87.5092
0
VERTEX
8
CUT
10
105.6045
20
87.2797
0
VERTEX
8
CUT
10
105.5279
20
87.0414
0
VERTEX
8
CUT
10
105.4755
20
86.7965
0
VERTEX
8
CUT
10
105.4479
20
86.5477
0
VERTEX
8
CUT
10
105.4453
20
86.2974
0
VERTEX
8
CUT
10
105.4678
20
86.0481
0
VERTEX
8
CUT
10
105.4857
20
85.9208
0
VERTEX
8
CUT
10
105.5067
20
85.7407
0
VERTEX
8
CUT
10
105.5096
20
85.7085
0
VERTEX
8
CUT
10
105.5240
20
85.3756
0
VERTEX
8
CUT
10
105.5062
20
85.0429
0
VERTEX
8
CUT
10
105.5029
20
85.0107
0
VERTEX
8
CUT
10
105.4801
20
84.8308
0
VERTEX
8
CUT
10
105.1842
20
82.8744
0
VERTEX
8
CUT
10
105.1579
20
82.7220
0
VERTEX
8
CUT
10
105.1526
20
82.6948
0
VERTEX
8
CUT
10
105.0870
20
82.4181
0
VERTEX
8
CUT
10
104.9988
20
82.1476
0
VERTEX
8
CUT
10
104.9892
20
82.1217
0
VERTEX
8
CUT
10
104.9322
20
81.9779
0
VERTEX
8
CUT
10
104.3704
20
80.6405
0
VERTEX
8
CUT
10
104.2863
20
80.4088
0
VERTEX
8
CUT
10
104.2253
20
80.1700
0
VERTEX
8
CUT
10
104.1882
20
79.9263
0
VERTEX
8
CUT
10
104.1753
20
79.6802
0
VERTEX
8
CUT
10
104.1867
20
79.4340
0
VERTEX
8
CUT
10
104.2222
20
79.1901
0
VERTEX
8
CUT
10
104.2816
20
78.9509
0
VERTEX
8
CUT
10
104.3456
20
78.7711
0
VERTEX
8
CUT
10
104.3060
20
78.7564
0
VERTEX
8
CUT
10
104.0888
20
78.6508
0
VERTEX
8
CUT
10
103.8828
20
78.5248
0
VERTEX
8
CUT
10
103.6899
20
78.3794
0
VERTEX
8
CUT
10
103.5120
20
78.2162
0
VERTEX
8
CUT
10
103.3506
20
78.0365
0
VERTEX
8
CUT
10
103.2073
20
77.8421
0
VERTEX
8
CUT
10
103.0835
20
77.6348
0
VERTEX
8
CUT
10
103.0197
20
77.5153
0
VERTEX
8
CUT
10
102.8483
20
77.2551
0
VERTEX
8
CUT
10
102.7239
20
77.0447
0
VERTEX
8
CUT
10
102.6207
20
76.8231
0
VERTEX
8
CUT
10
102.5396
20
76.5926
0
VERTEX
8
CUT
10
102.4814
20
76.3552
0
VERTEX
8
CUT
10
102.4467
20
76.1133
0
VERTEX
8
CUT
10
102.4358
20
75.8691
0
VERTEX
8
CUT
10
102.4487
20
75.6251
0
VERTEX
8
CUT
10
102.4855
20
75.3835
0
VERTEX
8
CUT
10
102.5456
20
75.1466
0
VERTEX
8
CUT
10
102.6187
20
74.9082
0
VERTEX
8
CUT
10
102.6192
20
74.9062
0
SEQEND
0
POLYLINE
8
CUT
66
1
70
1
10
0.0
20
0.0
30
0.0
0
VERTEX
8
CUT
10
103.0042
20
225.4364
0
VERTEX
8
CUT
10
102.9984
20
225.1974
0
VERTEX
8
CUT
10
103.0155
20
224.9588
0
VERTEX
8
CUT
10
103.0553
20
224.7230
0
VERTEX
8
CUT
10
103.1175
20
224.4921
0
VERTEX
8
CUT
10
103.2014
20
224.2682
0
VERTEX
8
CUT
10
103.3064
20
224.0533
0
VERTEX
8
CUT
10
103.4314
20
223.8494
0
VERTEX
8
CUT
10
103.5753
20
223.6584
0
VERTEX
8
CUT
10
103.7368
20
223.4820
0
VERTEX
8
CUT
10
103.9145
20
223.3219
0
VERTEX
8
CUT
10
104.1066
20
223.1795
0
VERTEX
8
CUT
10
104.3114
20
223.0561
0
VERTEX
8
CUT
10
104.5271
20
222.9528
0
VERTEX
8
CUT
10
104.7517
20
222.8706
0
VERTEX
8
CUT
10
104.9831
20
222.8102
0
VERTEX
8
CUT
10
105.2192
20
222.7722
0
VERTEX
8
CUT
10
105.4579
20
222.7570
0
VERTEX
8
CUT
10
105.6969
20
222.7646
0
VERTEX
8
CUT
10
105.8207
20
222.7745
0
VERTEX
8
CUT
10
105.8505
20
222.7762
0
VERTEX
8
CUT
10
106.1570
20
222.7803
0
VERTEX
8
CUT
10
106.4627
20
222.7570
0
VERTEX
8
CUT
10
106.4923
20
222.7534
0
VERTEX
8
CUT
10
106.6574
20
222.7297
0
VERTEX
8
CUT
10
106.7225
20
222.7189
0
VERTEX
8
CUT
10
106.9273
20
222.6789
0
VERTEX
8
CUT
10
106.9636
20
222.6708
0
VERTEX
8
CUT
10
107.3324
20
222.5663
0
VERTEX
8
CUT
10
107.6873
20
222.4215
0
VERTEX
8
CUT
10
107.7209
20
222.4055
0
VERTEX
8
CUT
10
107.9378
20
222.2951
0
VERTEX
8
CUT
10
107.9384
20
222.2963
0
VERTEX
8
CUT
10
108.1146
20
222.2112
0
VERTEX
8
CUT
10
108.3432
20
222.1271
0
VERTEX
8
CUT
10
108.5789
20
222.0657
0
VERTEX
8
CUT
10
108.8194
20
222.0274
0
VERTEX
8
CUT
10
109.0625
20
222.0128
0
VERTEX
8
CUT
10
109.3059
20
222.0219
0
VERTEX
8
CUT
10
109.5472
20
222.0546
0
VERTEX
8
CUT
10
109.7842
20
222.1106
0
VERTEX
8
CUT
10
110.0146
20
222.1895
0
VERTEX
8
CUT
10
110.2363
20
222.2903
0
VERTEX
8
CUT
10
110.4471
20
222.4123
0
VERTEX
8
CUT
10
110.6450
20
222.5542
0
VERTEX
8
CUT
10
110.8282
20
222.7147
0
VERTEX
8
CUT
10
110.9949
20
222.8923
0
VERTEX
8
CUT
10
111.1435
20
223.0852
0
VERTEX
8
CUT
10
111.2727
20
223.2917
0
VERTEX
8
CUT
10
111.3811
20
223.5097
0
VERTEX
8
CUT
10
111.4678
20
223.7373
0
VERTEX
8
CUT
10
111.6134
20
224.1835
0
VERTEX
8
CUT
10
111.6839
20
224.4482
0
VERTEX
8
CUT
10
111.7251
20
224.7191
0
VERTEX
8
CUT
10
111.8858
20
226.3878
0
VERTEX
8
CUT
10
111.8974
20
226.6282
0
VERTEX
8
CUT
10
111.8857
20
226.8686
0
VERTEX
8
CUT
10
111.8510
20
227.1067
0
VERTEX
8
CUT
10
111.6447
20
228.1634
0
VERTEX
8
CUT
10
111.5838
20
228.4085
0
VERTEX
8
CUT
10
111.4985
20
228.6462
0
VERTEX
8
CUT
10
111.3897
20
228.8741
0
VERTEX
8
CUT
10
111.2584
20
229.0898
0
VERTEX
8
CUT
10
110.8990
20
229.6185
0
VERTEX
8
CUT
10
110.7282
20
229.8416
0
VERTEX
8
CUT
10
110.5335
20
230.0441
0
VERTEX
8
CUT
10
110.3173
20
230.2235
0
VERTEX
8
CUT
10
109.2924
20
230.9809
0
VERTEX
8
CUT
10
109.1072
20
231.1053
0
VERTEX
8
CUT
10
108.9117
20
231.2128
0
VERTEX
8
CUT
10
108.7074
20
231.3024
0
VERTEX
8
CUT
10
108.4959
20
231.3734
0
VERTEX
8
CUT
10
108.2789
20
231.4253
0
VERTEX
8
CUT
10
107.9616
20
231.4864
0
VERTEX
8
CUT
10
107.6691
20
231.5249
0
VERTEX
8
CUT
10
107.3741
20
231.5287
0
VERTEX
8
CUT
10
107.2779
20
231.5243
0
VERTEX
8
CUT
10
107.0592
20
231.5045
0
VERTEX
8
CUT
10
106.8430
20
231.4657
0
VERTEX
8
CUT
10
106.6311
20
231.4080
0
VERTEX
8
CUT
10
106.0722
20
231.2292
0
VERTEX
8
CUT
10
105.8097
20
231.1286
0
VERTEX
8
CUT
10
105.5601
20
230.9991
0
VERTEX
8
CUT
10
105.3266
20
230.8425
0
VERTEX
8
CUT
10
104.8033
20
230.4469
0
VERTEX
8
CUT
10
104.6042
20
230.2794
0
VERTEX
8
CUT
10
104.4235
20
230.0921
0
VERTEX
8
CUT
10
104.2633
20
229.8871
0
VERTEX
8
CUT
10
103.7157
20
229.1055
0
VERTEX
8
CUT
10
103.5575
20
228.8479
0
VERTEX
8
CUT
10
103.4316
20
228.5731
0
VERTEX
8
CUT
10
103.3193
20
228.2828
0
VERTEX
8
CUT
10
103.2414
20
228.0477
0
VERTEX
8
CUT
10
103.1873
20
227.8061
0
VERTEX
8
CUT
10
103.1573
20
227.5604
0
SEQEND
0
ENDSEC
0
EOF
