0
SECTION
2
HEADER
9
$ACADVER
1
AC1009
9
$INSUNITS
70
4
0
ENDSEC
0
SECTION
2
TABLES
0
TABLE
2
LAYER
70
1
0
LAYER
2
CUT
70
0
62
7
6
CONTINUOUS
0
ENDTAB
0
ENDSEC
0
SECTION
2
ENTITIES
0
POLYLINE
8
CUT
66
1
70
1
10
0.0
20
0.0
30
0.0
0
VERTEX
8
CUT
10
1.6252
20
-0.0395
0
VERTEX
8
CUT
10
1.3944
20
0.0431
0
VERTEX
8
CUT
10
1.1729
20
0.1479
0
VERTEX
8
CUT
10
0.9627
20
0.2738
0
VERTEX
8
CUT
10
0.7659
20
0.4198
0
VERTEX
8
CUT
10
0.5844
20
0.5844
0
VERTEX
8
CUT
10
0.4198
20
0.7659
0
VERTEX
8
CUT
10
0.2738
20
0.9627
0
VERTEX
8
CUT
10
0.1479
20
1.1729
0
VERTEX
8
CUT
10
0.0431
20
1.3944
0
VERTEX
8
CUT
10
-0.0395
20
1.6252
0
VERTEX
8
CUT
10
-0.0990
20
1.8629
0
VERTEX
8
CUT
10
-0.1350
20
2.1053
0
VERTEX
8
CUT
10
-0.1500
20
2.4114
0
VERTEX
8
CUT
10
-0.1500
20
297.5872
0
VERTEX
8
CUT
10
-0.1350
20
297.8933
0
VERTEX
8
CUT
10
-0.0990
20
298.1357
0
VERTEX
8
CUT
10
-0.0395
20
298.3734
0
VERTEX
8
CUT
10
0.0431
20
298.6041
0
VERTEX
8
CUT
10
0.1479
20
298.8256
0
VERTEX
8
CUT
10
0.2738
20
299.0358
0
VERTEX
8
CUT
10
0.4198
20
299.2326
0
VERTEX
8
CUT
10
0.5844
20
299.4142
0
VERTEX
8
CUT
10
0.7659
20
299.5787
0
VERTEX
8
CUT
10
0.9627
20
299.7247
0
VERTEX
8
CUT
10
1.1729
20
299.8507
0
VERTEX
8
CUT
10
1.3944
20
299.9554
0
VERTEX
8
CUT
10
1.6252
20
300.0380
0
VERTEX
8
CUT
10
1.8629
20
300.0975
0
VERTEX
8
CUT
10
2.1053
20
300.1335
0
VERTEX
8
CUT
10
2.1055
20
300.1335
0
VERTEX
8
CUT
10
2.1994
20
300.1381
0
VERTEX
8
CUT
10
2.4114
20
300.1485
0
VERTEX
8
CUT
10
297.5886
20
300.1485
0
VERTEX
8
CUT
10
297.7814
20
300.1391
0
VERTEX
8
CUT
10
297.8958
20
300.1333
0
VERTEX
8
CUT
10
297.9051
20
300.1320
0
VERTEX
8
CUT
10
297.9194
20
300.1298
0
VERTEX
8
CUT
10
297.9503
20
300.1252
0
VERTEX
8
CUT
10
298.0254
20
300.1141
0
VERTEX
8
CUT
10
298.1381
20
300.0973
0
VERTEX
8
CUT
10
298.2658
20
300.0653
0
VERTEX
8
CUT
10
298.3757
20
300.0377
0
VERTEX
8
CUT
10
298.4011
20
300.0286
0
VERTEX
8
CUT
10
298.4049
20
300.0272
0
VERTEX
8
CUT
10
298.4480
20
300.0118
0
VERTEX
8
CUT
10
298.5003
20
299.9931
0
VERTEX
8
CUT
10
298.6063
20
299.9551
0
VERTEX
8
CUT
10
298.7267
20
299.8981
0
VERTEX
8
CUT
10
298.8277
20
299.8503
0
VERTEX
8
CUT
10
298.9428
20
299.7813
0
VERTEX
8
CUT
10
299.0378
20
299.7243
0
VERTEX
8
CUT
10
299.1466
20
299.6436
0
VERTEX
8
CUT
10
299.2345
20
299.5783
0
VERTEX
8
CUT
10
299.3360
20
299.4863
0
VERTEX
8
CUT
10
299.4160
20
299.4138
0
VERTEX
8
CUT
10
299.5093
20
299.3109
0
VERTEX
8
CUT
10
299.5805
20
299.2322
0
VERTEX
8
CUT
10
299.6647
20
299.1186
0
VERTEX
8
CUT
10
299.7264
20
299.0354
0
VERTEX
8
CUT
10
299.8008
20
298.9112
0
VERTEX
8
CUT
10
299.8523
20
298.8253
0
VERTEX
8
CUT
10
299.9151
20
298.6924
0
VERTEX
8
CUT
10
299.9163
20
298.6899
0
VERTEX
8
CUT
10
299.9570
20
298.6038
0
VERTEX
8
CUT
10
299.9871
20
298.5196
0
VERTEX
8
CUT
10
299.9889
20
298.5146
0
VERTEX
8
CUT
10
299.9891
20
298.5141
0
VERTEX
8
CUT
10
300.0101
20
298.4555
0
VERTEX
8
CUT
10
300.0395
20
298.3732
0
VERTEX
8
CUT
10
300.0585
20
298.2972
0
VERTEX
8
CUT
10
300.0602
20
298.2906
0
VERTEX
8
CUT
10
300.0604
20
298.2898
0
VERTEX
8
CUT
10
300.0812
20
298.2067
0
VERTEX
8
CUT
10
300.0990
20
298.1356
0
VERTEX
8
CUT
10
300.1290
20
297.9335
0
VERTEX
8
CUT
10
300.1350
20
297.8932
0
VERTEX
8
CUT
10
300.1500
20
297.5872
0
VERTEX
8
CUT
10
300.1500
20
297.0119
0
VERTEX
8
CUT
10
300.1500
20
2.4114
0
VERTEX
8
CUT
10
300.1369
20
2.1453
0
VERTEX
8
CUT
10
300.1350
20
2.1053
0
VERTEX
8
CUT
10
300.0990
20
1.8629
0
VERTEX
8
CUT
10
300.0395
20
1.6252
0
VERTEX
8
CUT
10
299.9569
20
1.3944
0
VERTEX
8
CUT
10
299.8521
20
1.1729
0
VERTEX
8
CUT
10
299.7262
20
0.9627
0
VERTEX
8
CUT
10
299.5802
20
0.7659
0
VERTEX
8
CUT
10
299.4156
20
0.5844
0
VERTEX
8
CUT
10
299.2341
20
0.4198
0
VERTEX
8
CUT
10
299.0373
20
0.2738
0
VERTEX
8
CUT
10
298.8271
20
0.1479
0
VERTEX
8
CUT
10
298.6056
20
0.0431
0
VERTEX
8
CUT
10
298.3748
20
-0.0395
0
VERTEX
8
CUT
10
298.1371
20
-0.0990
0
VERTEX
8
CUT
10
297.8947
20
-0.1350
0
VERTEX
8
CUT
10
297.5886
20
-0.1500
0
VERTEX
8
CUT
10
297.0775
20
-0.1500
0
VERTEX
8
CUT
10
3.0000
20
-0.1500
0
VERTEX
8
CUT
10
2.4114
20
-0.1500
0
VERTEX
8
CUT
10
2.1053
20
-0.1350
0
VERTEX
8
CUT
10
1.8629
20
-0.0990
0
SEQEND
0
POLYLINE
8
CUT
66
1
70
1
10
0.0
20
0.0
30
0.0
0
VERTEX
8
CUT
10
217.8239
20
109.0370
0
VERTEX
8
CUT
10
218.4694
20
108.1078
0
VERTEX
8
CUT
10
218.5941
20
107.9162
0
VERTEX
8
CUT
10
218.6152
20
107.8814
0
VERTEX
8
CUT
10
218.8283
20
107.4773
0
VERTEX
8
CUT
10
218.8450
20
107.4403
0
VERTEX
8
CUT
10
218.9327
20
107.2292
0
VERTEX
8
CUT
10
219.2607
20
106.3665
0
VERTEX
8
CUT
10
219.3268
20
106.1776
0
VERTEX
8
CUT
10
219.3377
20
106.1436
0
VERTEX
8
CUT
10
219.4310
20
105.7879
0
VERTEX
8
CUT
10
219.4859
20
105.4242
0
VERTEX
8
CUT
10
219.4893
20
105.3887
0
VERTEX
8
CUT
10
219.5033
20
105.1890
0
VERTEX
8
CUT
10
219.5814
20
103.3754
0
VERTEX
8
CUT
10
219.5840
20
103.1348
0
VERTEX
8
CUT
10
219.5806
20
102.9716
0
VERTEX
8
CUT
10
219.5678
20
102.7313
0
VERTEX
8
CUT
10
219.4559
20
101.4231
0
VERTEX
8
CUT
10
219.4470
20
101.1803
0
VERTEX
8
CUT
10
219.4617
20
100.9377
0
VERTEX
8
CUT
10
219.4999
20
100.6977
0
VERTEX
8
CUT
10
219.5612
20
100.4625
0
VERTEX
8
CUT
10
219.6450
20
100.2344
0
VERTEX
8
CUT
10
219.7507
20
100.0155
0
VERTEX
8
CUT
10
219.8770
20
99.8080
0
VERTEX
8
CUT
10
220.0229
20
99.6136
0
VERTEX
8
CUT
10
220.1870
20
99.4344
0
VERTEX
8
CUT
10
220.3678
20
99.2719
0
VERTEX
8
CUT
10
220.5634
20
99.1277
0
VERTEX
8
CUT
10
220.7721
20
99.0033
0
VERTEX
8
CUT
10
220.9920
20
98.8996
0
VERTEX
8
CUT
10
221.2208
20
98.8178
0
VERTEX
8
CUT
10
221.4565
20
98.7587
0
VERTEX
8
CUT
10
221.6968
20
98.7226
0
VERTEX
8
CUT
10
221.9396
20
98.7101
0
VERTEX
8
CUT
10
222.1823
20
98.7212
0
VERTEX
8
CUT
10
222.4229
20
98.7559
0
VERTEX
8
CUT
10
222.6589
20
98.8137
0
VERTEX
8
CUT
10
222.8882
20
98.8941
0
VERTEX
8
CUT
10
223.1086
20
98.9965
0
VERTEX
8
CUT
10
223.3181
20
99.1198
0
VERTEX
8
CUT
10
223.5146
20
99.2628
0
VERTEX
8
CUT
10
223.6962
20
99.4242
0
VERTEX
8
CUT
10
223.8614
20
99.6025
0
VERTEX
8
CUT
10
224.6942
20
100.5944
0
VERTEX
8
CUT
10
224.7908
20
100.7049
0
VERTEX
8
CUT
10
224.8085
20
100.7244
0
VERTEX
8
CUT
10
225.0143
20
100.9338
0
VERTEX
8
CUT
10
225.0334
20
100.9518
0
VERTEX
8
CUT
10
225.1423
20
101.0503
0
VERTEX
8
CUT
10
227.2486
20
102.8817
0
VERTEX
8
CUT
10
227.4229
20
103.0243
0
VERTEX
8
CUT
10
227.4546
20
103.0487
0
VERTEX
8
CUT
10
227.8271
20
103.3012
0
VERTEX
8
CUT
10
227.8616
20
103.3216
0
VERTEX
8
CUT
10
228.0586
20
103.4307
0
VERTEX
8
CUT
10
229.1816
20
104.0089
0
VERTEX
8
CUT
10
229.3244
20
104.0786
0
VERTEX
8
CUT
10
229.3502
20
104.0906
0
VERTEX
8
CUT
10
229.6203
20
104.2019
0
VERTEX
8
CUT
10
229.8989
20
104.2899
0
VERTEX
8
CUT
10
229.9264
20
104.2973
0
VERTEX
8
CUT
10
230.0807
20
104.3354
0
VERTEX
8
CUT
10
231.6904
20
104.6974
0
VERTEX
8
CUT
10
231.8284
20
104.7257
0
VERTEX
8
CUT
10
231.8532
20
104.7304
0
VERTEX
8
CUT
10
232.1317
20
104.7713
0
VERTEX
8
CUT
10
232.1568
20
104.7741
0
VERTEX
8
CUT
10
232.2971
20
104.7867
0
VERTEX
8
CUT
10
237.8756
20
105.1834
0
VERTEX
8
CUT
10
238.1189
20
105.2127
0
VERTEX
8
CUT
10
238.3582
20
105.2657
0
VERTEX
8
CUT
10
238.5911
20
105.3419
0
VERTEX
8
CUT
10
238.8155
20
105.4406
0
VERTEX
8
CUT
10
239.0291
20
105.5607
0
VERTEX
8
CUT
10
239.2299
20
105.7012
0
VERTEX
8
CUT
10
239.4161
20
105.8607
0
VERTEX
8
CUT
10
239.5857
20
106.0376
0
VERTEX
8
CUT
10
239.7371
20
106.2303
0
VERTEX
8
CUT
10
239.8690
20
106.4368
0
VERTEX
8
CUT
10
239.9800
20
106.6553
0
VERTEX
8
CUT
10
240.0691
20
106.8837
0
VERTEX
8
CUT
10
240.1354
20
107.1196
0
VERTEX
8
CUT
10
240.1782
20
107.3609
0
VERTEX
8
CUT
10
240.1973
20
107.6052
0
VERTEX
8
CUT
10
240.1923
20
107.8503
0
VERTEX
8
CUT
10
240.1634
20
108.0936
0
VERTEX
8
CUT
10
240.1107
20
108.3330
0
VERTEX
8
CUT
10
240.0349
20
108.5661
0
VERTEX
8
CUT
10
239.9366
20
108.7906
0
VERTEX
8
CUT
10
239.8169
20
109.0044
0
VERTEX
8
CUT
10
239.6767
20
109.2054
0
VERTEX
8
CUT
10
239.5176
20
109.3918
0
VERTEX
8
CUT
10
239.3409
20
109.5617
0
VERTEX
8
CUT
10
239.1471
20
109.7306
0
VERTEX
8
CUT
10
238.9396
20
109.9499
0
VERTEX
8
CUT
10
238.7541
20
110.1880
0
VERTEX
8
CUT
10
238.5922
20
110.4428
0
VERTEX
8
CUT
10
238.4556
20
110.7120
0
VERTEX
8
CUT
10
238.3453
20
110.9930
0
VERTEX
8
CUT
10
238.2546
20
111.3112
0
VERTEX
8
CUT
10
238.2473
20
111.3426
0
VERTEX
8
CUT
10
238.2105
20
111.5188
0
VERTEX
8
CUT
10
238.0361
20
112.4681
0
VERTEX
8
CUT
10
237.9923
20
112.6623
0
VERTEX
8
CUT
10
237.9332
20
112.8524
0
VERTEX
8
CUT
10
237.4374
20
114.2495
0
VERTEX
8
CUT
10
237.3526
20
114.4581
0
VERTEX
8
CUT
10
237.2493
20
114.6583
0
VERTEX
8
CUT
10
236.4640
20
116.0259
0
VERTEX
8
CUT
10
236.2811
20
116.3006
0
VERTEX
8
CUT
10
234.1048
20
119.1432
0
VERTEX
8
CUT
10
233.9565
20
119.3513
0
VERTEX
8
CUT
10
233.8607
20
119.4958
0
VERTEX
8
CUT
10
233.7269
20
119.7135
0
VERTEX
8
CUT
10
233.2713
20
120.5148
0
VERTEX
8
CUT
10
233.1659
20
120.7136
0
VERTEX
8
CUT
10
233.1483
20
120.7496
0
VERTEX
8
CUT
10
232.9743
20
121.1643
0
VERTEX
8
CUT
10
232.9611
20
121.2021
0
VERTEX
8
CUT
10
232.8931
20
121.4166
0
VERTEX
8
CUT
10
232.5050
20
122.7819
0
VERTEX
8
CUT
10
232.4489
20
123.0048
0
VERTEX
8
CUT
10
232.4402
20
123.0447
0
VERTEX
8
CUT
10
232.3695
20
123.4985
0
VERTEX
8
CUT
10
232.3657
20
123.5393
0
VERTEX
8
CUT
10
232.3514
20
123.7686
0
VERTEX
8
CUT
10
232.2996
20
125.3967
0
VERTEX
8
CUT
10
232.2993
20
125.6251
0
VERTEX
8
CUT
10
232.3005
20
125.6658
0
VERTEX
8
CUT
10
232.3416
20
126.1206
0
VERTEX
8
CUT
10
232.3477
20
126.1608
0
VERTEX
8
CUT
10
232.3889
20
126.3855
0
VERTEX
8
CUT
10
232.5614
20
127.1870
0
VERTEX
8
CUT
10
232.6043
20
127.3649
0
VERTEX
8
CUT
10
232.6127
20
127.3965
0
VERTEX
8
CUT
10
232.7242
20
127.7450
0
VERTEX
8
CUT
10
232.7356
20
127.7756
0
VERTEX
8
CUT
10
232.8040
20
127.9453
0
VERTEX
8
CUT
10
233.1623
20
128.7761
0
VERTEX
8
CUT
10
233.2369
20
128.9382
0
VERTEX
8
CUT
10
233.2509
20
128.9669
0
VERTEX
8
CUT
10
233.4226
20
129.2795
0
VERTEX
8
CUT
10
233.4393
20
129.3067
0
VERTEX
8
CUT
10
233.5361
20
129.4565
0
VERTEX
8
CUT
10
234.1002
20
130.2854
0
VERTEX
8
CUT
10
234.1890
20
130.4104
0
VERTEX
8
CUT
10
234.2054
20
130.4324
0
VERTEX
8
CUT
10
234.3980
20
130.6709
0
VERTEX
8
CUT
10
234.4161
20
130.6916
0
VERTEX
8
CUT
10
234.5196
20
130.8047
0
VERTEX
8
CUT
10
235.2528
20
131.5745
0
VERTEX
8
CUT
10
235.3692
20
131.6914
0
VERTEX
8
CUT
10
235.3904
20
131.7118
0
VERTEX
8
CUT
10
235.6379
20
131.9296
0
VERTEX
8
CUT
10
235.6609
20
131.9481
0
VERTEX
8
CUT
10
235.7916
20
132.0487
0
VERTEX
8
CUT
10
236.7258
20
132.7353
0
VERTEX
8
CUT
10
236.8453
20
132.8195
0
VERTEX
8
CUT
10
236.8670
20
132.8342
0
VERTEX
8
CUT
10
237.1153
20
132.9884
0
VERTEX
8
CUT
10
237.1380
20
133.0013
0
VERTEX
8
CUT
10
237.2665
20
133.0711
0
VERTEX
8
CUT
10
238.3376
20
133.6258
0
VERTEX
8
CUT
10
238.4931
20
133.7018
0
VERTEX
8
CUT
10
238.5212
20
133.7147
0
VERTEX
8
CUT
10
238.8418
20
133.8448
0
VERTEX
8
CUT
10
238.8710
20
133.8551
0
VERTEX
8
CUT
10
239.0355
20
133.9090
0
VERTEX
8
CUT
10
244.0951
20
135.4365
0
VERTEX
8
CUT
10
244.3596
20
135.5329
0
VERTEX
8
CUT
10
245.9493
20
136.2160
0
VERTEX
8
CUT
10
246.1391
20
136.3073
0
VERTEX
8
CUT
10
246.3206
20
136.4142
0
VERTEX
8
CUT
10
246.4925
20
136.5360
0
VERTEX
8
CUT
10
246.8302
20
136.7974
0
VERTEX
8
CUT
10
246.9970
20
136.9386
0
VERTEX
8
CUT
10
247.1508
20
137.0938
0
VERTEX
8
CUT
10
247.2905
20
137.2619
0
VERTEX
8
CUT
10
247.6812
20
137.7761
0
VERTEX
8
CUT
10
247.8455
20
138.0212
0
VERTEX
8
CUT
10
247.9798
20
138.2838
0
VERTEX
8
CUT
10
248.1622
20
138.6995
0
VERTEX
8
CUT
10
248.2443
20
138.9125
0
VERTEX
8
CUT
10
248.3067
20
139.1321
0
VERTEX
8
CUT
10
248.3487
20
139.3565
0
VERTEX
8
CUT
10
248.3940
20
139.6796
0
VERTEX
8
CUT
10
248.4170
20
139.9454
0
VERTEX
8
CUT
10
248.4115
20
140.2122
0
VERTEX
8
CUT
10
248.3775
20
140.4769
0
VERTEX
8
CUT
10
248.3462
20
140.6482
0
VERTEX
8
CUT
10
248.2839
20
140.9088
0
VERTEX
8
CUT
10
248.1941
20
141.1613
0
VERTEX
8
CUT
10
248.0778
20
141.4027
0
VERTEX
8
CUT
10
247.9326
20
141.6669
0
VERTEX
8
CUT
10
247.8191
20
141.8536
0
VERTEX
8
CUT
10
247.6897
20
142.0296
0
VERTEX
8
CUT
10
247.5455
20
142.1936
0
VERTEX
8
CUT
10
247.2314
20
142.5210
0
VERTEX
8
CUT
10
247.0683
20
142.6763
0
VERTEX
8
CUT
10
246.8918
20
142.8163
0
VERTEX
8
CUT
10
246.7035
20
142.9399
0
VERTEX
8
CUT
10
246.1980
20
143.2399
0
VERTEX
8
CUT
10
246.0108
20
143.3405
0
VERTEX
8
CUT
10
245.8158
20
143.4248
0
VERTEX
8
CUT
10
245.6143
20
143.4923
0
VERTEX
8
CUT
10
243.3195
20
144.1535
0
VERTEX
8
CUT
10
243.0780
20
144.2320
0
VERTEX
8
CUT
10
242.9160
20
144.2909
0
VERTEX
8
CUT
10
242.6803
20
144.3856
0
VERTEX
8
CUT
10
241.9715
20
144.6988
0
VERTEX
8
CUT
10
241.8413
20
144.7593
0
VERTEX
8
CUT
10
241.8182
20
144.7706
0
VERTEX
8
CUT
10
241.5652
20
144.9064
0
VERTEX
8
CUT
10
241.5430
20
144.9194
0
VERTEX
8
CUT
10
241.4206
20
144.9945
0
VERTEX
8
CUT
10
240.9575
20
145.2909
0
VERTEX
8
CUT
10
240.7860
20
145.4074
0
VERTEX
8
CUT
10
240.7560
20
145.4290
0
VERTEX
8
CUT
10
240.4338
20
145.6895
0
VERTEX
8
CUT
10
240.4063
20
145.7143
0
VERTEX
8
CUT
10
240.2565
20
145.8575
0
VERTEX
8
CUT
10
239.9811
20
146.1356
0
VERTEX
8
CUT
10
239.8341
20
146.2929
0
VERTEX
8
CUT
10
239.8087
20
146.3217
0
VERTEX
8
CUT
10
239.5430
20
146.6603
0
VERTEX
8
CUT
10
239.5210
20
146.6917
0
VERTEX
8
CUT
10
239.4031
20
146.8719
0
VERTEX
8
CUT
10
239.2507
20
147.1202
0
VERTEX
8
CUT
10
239.1731
20
147.2527
0
VERTEX
8
CUT
10
239.1596
20
147.2767
0
VERTEX
8
CUT
10
239.0321
20
147.5285
0
VERTEX
8
CUT
10
238.9256
20
147.7899
0
VERTEX
8
CUT
10
238.9163
20
147.8157
0
VERTEX
8
CUT
10
238.8672
20
147.9612
0
VERTEX
8
CUT
10
238.6990
20
148.4955
0
VERTEX
8
CUT
10
238.6577
20
148.6363
0
VERTEX
8
CUT
10
238.6508
20
148.6616
0
VERTEX
8
CUT
10
238.5848
20
148.9474
0
VERTEX
8
CUT
10
238.5799
20
148.9732
0
VERTEX
8
CUT
10
238.5554
20
149.1179
0
VERTEX
8
CUT
10
238.4558
20
149.7837
0
VERTEX
8
CUT
10
238.4320
20
149.9774
0
VERTEX
8
CUT
10
238.4286
20
150.0120
0
VERTEX
8
CUT
10
238.4113
20
150.4017
0
VERTEX
8
CUT
10
238.4115
20
150.4365
0
VERTEX
8
CUT
10
238.4181
20
150.6315
0
VERTEX
8
CUT
10
238.5410
20
152.6898
0
VERTEX
8
CUT
10
238.5571
20
152.8784
0
VERTEX
8
CUT
10
238.5608
20
152.9120
0
VERTEX
8
CUT
10
238.6164
20
153.2554
0
VERTEX
8
CUT
10
238.7064
20
153.5914
0
VERTEX
8
CUT
10
238.7167
20
153.6236
0
VERTEX
8
CUT
10
238.7794
20
153.8022
0
VERTEX
8
CUT
10
239.5962
20
155.9559
0
VERTEX
8
CUT
10
239.6768
20
156.1513
0
VERTEX
8
CUT
10
239.6921
20
156.1857
0
VERTEX
8
CUT
10
239.8854
20
156.5614
0
VERTEX
8
CUT
10
239.9045
20
156.5939
0
VERTEX
8
CUT
10
240.0168
20
156.7730
0
VERTEX
8
CUT
10
241.8731
20
159.5572
0
VERTEX
8
CUT
10
242.0199
20
159.7621
0
VERTEX
8
CUT
10
242.1241
20
159.8977
0
VERTEX
8
CUT
10
242.2844
20
160.0923
0
VERTEX
8
CUT
10
245.7145
20
163.9834
0
VERTEX
8
CUT
10
245.7734
20
164.0487
0
VERTEX
8
CUT
10
245.8140
20
164.0927
0
VERTEX
8
CUT
10
245.8745
20
164.1566
0
VERTEX
8
CUT
10
253.8857
20
172.4277
0
VERTEX
8
CUT
10
254.0421
20
172.6053
0
VERTEX
8
CUT
10
256.3001
20
175.4278
0
VERTEX
8
CUT
10
256.4665
20
175.6622
0
VERTEX
8
CUT
10
257.8308
20
177.8399
0
VERTEX
8
CUT
10
257.9625
20
178.0781
0
VERTEX
8
CUT
10
259.2060
20
180.6473
0
VERTEX
8
CUT
10
259.3413
20
180.9889
0
VERTEX
8
CUT
10
260.1216
20
183.4794
0
VERTEX
8
CUT
10
260.1961
20
183.7823
0
VERTEX
8
CUT
10
260.4114
20
184.9737
0
VERTEX
8
CUT
10
260.4422
20
185.2059
0
VERTEX
8
CUT
10
260.6722
20
187.9025
0
VERTEX
8
CUT
10
260.6811
20
188.0912
0
VERTEX
8
CUT
10
260.6758
20
188.2801
0
VERTEX
8
CUT
10
260.5300
20
190.4823
0
VERTEX
8
CUT
10
260.5095
20
190.6763
0
VERTEX
8
CUT
10
260.4739
20
190.8683
0
VERTEX
8
CUT
10
260.0192
20
192.8802
0
VERTEX
8
CUT
10
259.9655
20
193.0793
0
VERTEX
8
CUT
10
259.8955
20
193.2733
0
VERTEX
8
CUT
10
259.1689
20
195.0547
0
VERTEX
8
CUT
10
259.0812
20
195.2463
0
VERTEX
8
CUT
10
258.9776
20
195.4297
0
VERTEX
8
CUT
10
257.9979
20
197.0068
0
VERTEX
8
CUT
10
257.8603
20
197.2061
0
VERTEX
8
CUT
10
257.7040
20
197.3911
0
VERTEX
8
CUT
10
256.5356
20
198.6460
0
VERTEX
8
CUT
10
256.3827
20
198.7966
0
VERTEX
8
CUT
10
256.2175
20
198.9337
0
VERTEX
8
CUT
10
254.8486
20
199.9728
0
VERTEX
8
CUT
10
254.6516
20
200.1080
0
VERTEX
8
CUT
10
254.4425
20
200.2238
0
VERTEX
8
CUT
10
252.7909
20
201.0381
0
VERTEX
8
CUT
10
252.5722
20
201.1332
0
VERTEX
8
CUT
10
252.3455
20
201.2071
0
VERTEX
8
CUT
10
250.5418
20
201.7007
0
VERTEX
8
CUT
10
250.3051
20
201.7533
0
VERTEX
8
CUT
10
250.0644
20
201.7828
0
VERTEX
8
CUT
10
248.2655
20
201.9145
0
VERTEX
8
CUT
10
248.0541
20
201.9211
0
VERTEX
8
CUT
10
247.8429
20
201.9097
0
VERTEX
8
CUT
10
246.3877
20
201.7694
0
VERTEX
8
CUT
10
246.1232
20
201.7295
0
VERTEX
8
CUT
10
238.8109
20
200.2230
0
VERTEX
8
CUT
10
238.6512
20
200.1937
0
VERTEX
8
CUT
10
238.6225
20
200.1891
0
VERTEX
8
CUT
10
238.3002
20
200.1513
0
VERTEX
8
CUT
10
238.2712
20
200.1492
0
VERTEX
8
CUT
10
238.1091
20
200.1408
0
VERTEX
8
CUT
10
235.6923
20
200.0683
0
VERTEX
8
CUT
10
235.5390
20
200.0668
0
VERTEX
8
CUT
10
235.5116
20
200.0671
0
VERTEX
8
CUT
10
235.2055
20
200.0830
0
VERTEX
8
CUT
10
235.1782
20
200.0855
0
VERTEX
8
CUT
10
235.0259
20
200.1028
0
VERTEX
8
CUT
10
234.3416
20
200.1947
0
VERTEX
8
CUT
10
234.1575
20
200.2241
0
VERTEX
8
CUT
10
234.1247
20
200.2302
0
VERTEX
8
CUT
10
233.7620
20
200.3163
0
VERTEX
8
CUT
10
233.7300
20
200.3256
0
VERTEX
8
CUT
10
233.5523
20
200.3820
0
VERTEX
8
CUT
10
231.9067
20
200.9503
0
VERTEX
8
CUT
10
231.7564
20
201.0058
0
VERTEX
8
CUT
10
231.7297
20
201.0163
0
VERTEX
8
CUT
10
231.6283
20
201.0613
0
VERTEX
8
CUT
10
231.4014
20
201.1491
0
VERTEX
8
CUT
10
231.1670
20
201.2144
0
VERTEX
8
CUT
10
230.9274
20
201.2567
0
VERTEX
8
CUT
10
230.6848
20
201.2754
0
VERTEX
8
CUT
10
230.4416
20
201.2705
0
VERTEX
8
CUT
10
230.2000
20
201.2420
0
VERTEX
8
CUT
10
229.9622
20
201.1901
0
VERTEX
8
CUT
10
229.7307
20
201.1153
0
VERTEX
8
CUT
10
229.5075
20
201.0184
0
VERTEX
8
CUT
10
229.2948
20
200.9003
0
VERTEX
8
CUT
10
229.0946
20
200.7620
0
VERTEX
8
CUT
10
228.9088
20
200.6049
0
VERTEX
8
CUT
10
228.7391
20
200.4305
0
VERTEX
8
CUT
10
228.5872
20
200.2405
0
VERTEX
8
CUT
10
228.4545
20
200.0366
0
VERTEX
8
CUT
10
228.3422
20
199.8207
0
VERTEX
8
CUT
10
228.2515
20
199.5949
0
VERTEX
8
CUT
10
228.1831
20
199.3614
0
VERTEX
8
CUT
10
228.1377
20
199.1224
0
VERTEX
8
CUT
10
228.1158
20
198.8801
0
VERTEX
8
CUT
10
228.1176
20
198.6368
0
VERTEX
8
CUT
10
228.1430
20
198.3948
0
VERTEX
8
CUT
10
228.4967
20
196.1054
0
VERTEX
8
CUT
10
228.5262
20
195.8613
0
VERTEX
8
CUT
10
228.5408
20
195.6951
0
VERTEX
8
CUT
10
228.5543
20
195.4496
0
VERTEX
8
CUT
10
228.6307
20
191.9972
0
VERTEX
8
CUT
10
228.6290
20
191.7756
0
VERTEX
8
CUT
10
228.6234
20
191.6253
0
VERTEX
8
CUT
10
228.6087
20
191.4042
0
VERTEX
8
CUT
10
228.3674
20
188.9009
0
VERTEX
8
CUT
10
228.3502
20
188.7528
0
VERTEX
8
CUT
10
228.3466
20
188.7263
0
VERTEX
8
CUT
10
228.2944
20
188.4325
0
VERTEX
8
CUT
10
228.2887
20
188.4064
0
VERTEX
8
CUT
10
228.2539
20
188.2614
0
VERTEX
8
CUT
10
227.6494
20
185.9447
0
VERTEX
8
CUT
10
227.6033
20
185.7830
0
VERTEX
8
CUT
10
227.5695
20
185.6738
0
VERTEX
8
CUT
10
227.5162
20
185.5143
0
VERTEX
8
CUT
10
227.1013
20
184.3596
0
VERTEX
8
CUT
10
227.0403
20
184.2012
0
VERTEX
8
CUT
10
226.9964
20
184.0945
0
VERTEX
8
CUT
10
226.9283
20
183.9390
0
VERTEX
8
CUT
10
223.9511
20
177.5405
0
VERTEX
8
CUT
10
223.8637
20
177.3274
0
VERTEX
8
CUT
10
223.3310
20
175.8375
0
VERTEX
8
CUT
10
223.2623
20
175.6125
0
VERTEX
8
CUT
10
223.2394
20
175.5009
0
VERTEX
8
CUT
10
223.2214
20
175.4532
0
VERTEX
8
CUT
10
223.1562
20
175.2078
0
VERTEX
8
CUT
10
223.1163
20
174.9570
0
VERTEX
8
CUT
10
223.0658
20
174.4875
0
VERTEX
8
CUT
10
223.0516
20
174.2372
0
VERTEX
8
CUT
10
223.0624
20
173.9868
0
VERTEX
8
CUT
10
223.0983
20
173.7387
0
VERTEX
8
CUT
10
223.1066
20
173.6964
0
VERTEX
8
CUT
10
223.1050
20
173.5811
0
VERTEX
8
CUT
10
223.1235
20
173.3482
0
VERTEX
8
CUT
10
223.1637
20
173.1180
0
VERTEX
8
CUT
10
223.2252
20
172.8926
0
VERTEX
8
CUT
10
223.2697
20
172.7550
0
VERTEX
8
CUT
10
223.3639
20
172.5090
0
VERTEX
8
CUT
10
223.4835
20
172.2743
0
VERTEX
8
CUT
10
223.6271
20
172.0535
0
VERTEX
8
CUT
10
223.7259
20
171.9177
0
VERTEX
8
CUT
10
223.8846
20
171.7214
0
VERTEX
8
CUT
10
224.0622
20
171.5421
0
VERTEX
8
CUT
10
224.2570
20
171.3817
0
VERTEX
8
CUT
10
224.3715
20
171.2967
0
VERTEX
8
CUT
10
224.5837
20
171.1554
0
VERTEX
8
CUT
10
224.8091
20
171.0365
0
VERTEX
8
CUT
10
225.0454
20
170.9411
0
VERTEX
8
CUT
10
225.2902
20
170.8703
0
VERTEX
8
CUT
10
225.5410
20
170.8248
0
VERTEX
8
CUT
10
225.7951
20
170.8050
0
VERTEX
8
CUT
10
226.0499
20
170.8112
0
VERTEX
8
CUT
10
226.3027
20
170.8434
0
VERTEX
8
CUT
10
226.5509
20
170.9011
0
VERTEX
8
CUT
10
226.7920
20
170.9837
0
VERTEX
8
CUT
10
226.9794
20
171.0589
0
VERTEX
8
CUT
10
227.1877
20
171.1537
0
VERTEX
8
CUT
10
227.3865
20
171.2672
0
VERTEX
8
CUT
10
227.5741
20
171.3984
0
VERTEX
8
CUT
10
227.7489
20
171.5461
0
VERTEX
8
CUT
10
227.8141
20
171.6066
0
VERTEX
8
CUT
10
227.9546
20
171.7203
0
VERTEX
8
CUT
10
228.4395
20
172.1467
0
VERTEX
8
CUT
10
228.6303
20
172.3336
0
VERTEX
8
CUT
10
228.7349
20
172.4606
0
VERTEX
8
CUT
10
228.7597
20
172.4835
0
VERTEX
8
CUT
10
228.9154
20
172.6414
0
VERTEX
8
CUT
10
229.0566
20
172.8124
0
VERTEX
8
CUT
10
231.4496
20
175.9891
0
VERTEX
8
CUT
10
232.1715
20
176.6785
0
VERTEX
8
CUT
10
232.3257
20
176.8178
0
VERTEX
8
CUT
10
232.3538
20
176.8418
0
VERTEX
8
CUT
10
232.6666
20
177.0803
0
VERTEX
8
CUT
10
232.8513
20
177.2359
0
VERTEX
8
CUT
10
232.8674
20
177.2523
0
VERTEX
8
CUT
10
232.8845
20
177.2619
0
VERTEX
8
CUT
10
233.1309
20
177.3742
0
VERTEX
8
CUT
10
233.4106
20
177.4735
0
VERTEX
8
CUT
10
233.4382
20
177.4820
0
VERTEX
8
CUT
10
233.5935
20
177.5260
0
VERTEX
8
CUT
10
233.6243
20
177.5341
0
VERTEX
8
CUT
10
233.7800
20
177.5711
0
VERTEX
8
CUT
10
233.8080
20
177.5772
0
VERTEX
8
CUT
10
234.0981
20
177.6269
0
VERTEX
8
CUT
10
234.3913
20
177.6516
0
VERTEX
8
CUT
10
234.4199
20
177.6528
0
VERTEX
8
CUT
10
234.5800
20
177.6561
0
VERTEX
8
CUT
10
234.7904
20
177.6559
0
VERTEX
8
CUT
10
234.9562
20
177.6520
0
VERTEX
8
CUT
10
234.9859
20
177.6507
0
VERTEX
8
CUT
10
235.2895
20
177.6234
0
VERTEX
8
CUT
10
235.5633
20
177.5742
0
VERTEX
8
CUT
10
235.8573
20
177.4939
0
VERTEX
8
CUT
10
235.8856
20
177.4848
0
VERTEX
8
CUT
10
236.0423
20
177.4306
0
VERTEX
8
CUT
10
236.2429
20
177.3563
0
VERTEX
8
CUT
10
236.4184
20
177.2862
0
VERTEX
8
CUT
10
236.4494
20
177.2729
0
VERTEX
8
CUT
10
236.7612
20
177.1201
0
VERTEX
8
CUT
10
237.0302
20
176.9528
0
VERTEX
8
CUT
10
237.2810
20
176.7592
0
VERTEX
8
CUT
10
237.5331
20
176.5205
0
VERTEX
8
CUT
10
237.5564
20
176.4961
0
VERTEX
8
CUT
10
237.6834
20
176.3562
0
VERTEX
8
CUT
10
238.0865
20
175.8892
0
VERTEX
8
CUT
10
238.2243
20
175.7197
0
VERTEX
8
CUT
10
238.2480
20
175.6888
0
VERTEX
8
CUT
10
238.4930
20
175.3272
0
VERTEX
8
CUT
10
238.5129
20
175.2937
0
VERTEX
8
CUT
10
238.6192
20
175.1028
0
VERTEX
8
CUT
10
239.0246
20
174.3219
0
VERTEX
8
CUT
10
239.1096
20
174.1471
0
VERTEX
8
CUT
10
239.1240
20
174.1155
0
VERTEX
8
CUT
10
239.2549
20
173.7831
0
VERTEX
8
CUT
10
239.3507
20
173.4389
0
VERTEX
8
CUT
10
239.3583
20
173.4050
0
VERTEX
8
CUT
10
239.3957
20
173.2142
0
VERTEX
8
CUT
10
239.5321
20
172.4087
0
VERTEX
8
CUT
10
239.5617
20
172.1971
0
VERTEX
8
CUT
10
239.5659
20
172.1593
0
VERTEX
8
CUT
10
239.5889
20
171.7330
0
VERTEX
8
CUT
10
239.5888
20
171.6949
0
VERTEX
8
CUT
10
239.5820
20
171.4814
0
VERTEX
8
CUT
10
239.4536
20
169.3501
0
VERTEX
8
CUT
10
239.4312
20
169.1083
0
VERTEX
8
CUT
10
239.4106
20
168.9447
0
VERTEX
8
CUT
10
239.3726
20
168.7048
0
VERTEX
8
CUT
10
239.2192
20
167.9061
0
VERTEX
8
CUT
10
239.1850
20
167.7468
0
VERTEX
8
CUT
10
239.1783
20
167.7184
0
VERTEX
8
CUT
10
239.0893
20
167.4050
0
VERTEX
8
CUT
10
239.0801
20
167.3774
0
VERTEX
8
CUT
10
239.0255
20
167.2238
0
VERTEX
8
CUT
10
238.2579
20
165.2065
0
VERTEX
8
CUT
10
238.1903
20
165.0408
0
VERTEX
8
CUT
10
238.1775
20
165.0115
0
VERTEX
8
CUT
10
238.0190
20
164.6908
0
VERTEX
8
CUT
10
238.0035
20
164.6629
0
VERTEX
8
CUT
10
237.9130
20
164.5085
0
VERTEX
8
CUT
10
236.4175
20
162.0936
0
VERTEX
8
CUT
10
236.2930
20
161.9054
0
VERTEX
8
CUT
10
236.2046
20
161.7802
0
VERTEX
8
CUT
10
236.0690
20
161.5999
0
VERTEX
8
CUT
10
229.9091
20
153.9012
0
VERTEX
8
CUT
10
229.7638
20
153.6999
0
VERTEX
8
CUT
10
229.6392
20
153.4851
0
VERTEX
8
CUT
10
229.5365
20
153.2591
0
VERTEX
8
CUT
10
229.4567
20
153.0239
0
VERTEX
8
CUT
10
229.4006
20
152.7821
0
VERTEX
8
CUT
10
229.3689
20
152.5358
0
VERTEX
8
CUT
10
229.3616
20
152.2876
0
VERTEX
8
CUT
10
229.3791
20
152.0400
0
VERTEX
8
CUT
10
229.4210
20
151.7953
0
VERTEX
8
CUT
10
229.4870
20
151.5559
0
VERTEX
8
CUT
10
229.5764
20
151.3243
0
VERTEX
8
CUT
10
229.6884
20
151.1027
0
VERTEX
8
CUT
10
229.8218
20
150.8932
0
VERTEX
8
CUT
10
229.9753
20
150.6981
0
VERTEX
8
CUT
10
230.1474
20
150.5191
0
VERTEX
8
CUT
10
230.3364
20
150.3581
0
VERTEX
8
CUT
10
230.5404
20
150.2166
0
VERTEX
8
CUT
10
230.7575
20
150.0961
0
VERTEX
8
CUT
10
230.8858
20
150.0407
0
VERTEX
8
CUT
10
230.8852
20
150.0392
0
VERTEX
8
CUT
10
231.2961
20
149.8592
0
VERTEX
8
CUT
10
231.6250
20
149.6694
0
VERTEX
8
CUT
10
231.6559
20
149.6493
0
VERTEX
8
CUT
10
231.8257
20
149.5316
0
VERTEX
8
CUT
10
232.1644
20
149.2829
0
VERTEX
8
CUT
10
232.3070
20
149.1728
0
VERTEX
8
CUT
10
232.3320
20
149.1525
0
VERTEX
8
CUT
10
232.5788
20
148.9318
0
VERTEX
8
CUT
10
232.7837
20
148.7097
0
VERTEX
8
CUT
10
232.9838
20
148.4459
0
VERTEX
8
CUT
10
233.0021
20
148.4193
0
VERTEX
8
CUT
10
233.1003
20
148.2683
0
VERTEX
8
CUT
10
233.5733
20
147.5019
0
VERTEX
8
CUT
10
233.6631
20
147.3484
0
VERTEX
8
CUT
10
233.6785
20
147.3206
0
VERTEX
8
CUT
10
233.8230
20
147.0274
0
VERTEX
8
CUT
10
233.9392
20
146.7219
0
VERTEX
8
CUT
10
233.9490
20
146.6917
0
VERTEX
8
CUT
10
234.0002
20
146.5214
0
VERTEX
8
CUT
10
234.3907
20
145.1015
0
VERTEX
8
CUT
10
234.4397
20
144.9020
0
VERTEX
8
CUT
10
234.4475
20
144.8662
0
VERTEX
8
CUT
10
234.5124
20
144.4605
0
VERTEX
8
CUT
10
234.5162
20
144.4241
0
VERTEX
8
CUT
10
234.5309
20
144.2322
0
VERTEX
8
CUT
10
234.5346
20
143.9833
0
VERTEX
8
CUT
10
234.5310
20
143.8074
0
VERTEX
8
CUT
10
234.5169
20
143.5486
0
VERTEX
8
CUT
10
234.4273
20
142.5471
0
VERTEX
8
CUT
10
234.4077
20
142.3730
0
VERTEX
8
CUT
10
234.4034
20
142.3419
0
VERTEX
8
CUT
10
234.3398
20
141.9974
0
VERTEX
8
CUT
10
234.3327
20
141.9669
0
VERTEX
8
CUT
10
234.2888
20
141.7972
0
VERTEX
8
CUT
10
233.6567
20
139.5663
0
VERTEX
8
CUT
10
233.5737
20
139.3091
0
VERTEX
8
CUT
10
233.5111
20
139.1368
0
VERTEX
8
CUT
10
233.4098
20
138.8862
0
VERTEX
8
CUT
10
232.8355
20
137.6013
0
VERTEX
8
CUT
10
232.7156
20
137.3571
0
VERTEX
8
CUT
10
232.6283
20
137.1945
0
VERTEX
8
CUT
10
232.4909
20
136.9596
0
VERTEX
8
CUT
10
230.9299
20
134.4996
0
VERTEX
8
CUT
10
230.8390
20
134.3631
0
VERTEX
8
CUT
10
230.8222
20
134.3391
0
VERTEX
8
CUT
10
230.6231
20
134.0787
0
VERTEX
8
CUT
10
230.6042
20
134.0562
0
VERTEX
8
CUT
10
230.4963
20
133.9327
0
VERTEX
8
CUT
10
228.1013
20
131.3117
0
VERTEX
8
CUT
10
227.9263
20
131.1326
0
VERTEX
8
CUT
10
227.8035
20
131.0150
0
VERTEX
8
CUT
10
227.6169
20
130.8480
0
VERTEX
8
CUT
10
223.9260
20
127.7592
0
VERTEX
8
CUT
10
223.7447
20
127.5916
0
VERTEX
8
CUT
10
223.5807
20
127.4068
0
VERTEX
8
CUT
10
223.4359
20
127.2068
0
VERTEX
8
CUT
10
223.3114
20
126.9935
0
VERTEX
8
CUT
10
223.2086
20
126.7690
0
VERTEX
8
CUT
10
223.1285
20
126.5354
0
VERTEX
8
CUT
10
223.0718
20
126.2950
0
VERTEX
8
CUT
10
223.0391
20
126.0502
0
VERTEX
8
CUT
10
223.0307
20
125.8034
0
VERTEX
8
CUT
10
223.0467
20
125.5569
0
VERTEX
8
CUT
10
223.0870
20
125.3132
0
VERTEX
8
CUT
10
223.1511
20
125.0747
0
VERTEX
8
CUT
10
223.2340
20
124.8175
0
VERTEX
8
CUT
10
223.3053
20
124.4960
0
VERTEX
8
CUT
10
223.3532
20
124.0450
0
VERTEX
8
CUT
10
223.3548
20
124.0097
0
VERTEX
8
CUT
10
223.3579
20
123.7828
0
VERTEX
8
CUT
10
223.3435
20
122.9183
0
VERTEX
8
CUT
10
223.3373
20
122.7557
0
VERTEX
8
CUT
10
223.3355
20
122.7266
0
VERTEX
8
CUT
10
223.3047
20
122.4291
0
VERTEX
8
CUT
10
223.2481
20
122.1353
0
VERTEX
8
CUT
10
223.2414
20
122.1070
0
VERTEX
8
CUT
10
223.2003
20
121.9495
0
VERTEX
8
CUT
10
222.7313
20
120.3001
0
VERTEX
8
CUT
10
222.6791
20
120.1316
0
VERTEX
8
CUT
10
222.6690
20
120.1017
0
VERTEX
8
CUT
10
222.5515
20
119.7996
0
VERTEX
8
CUT
10
222.4061
20
119.5099
0
VERTEX
8
CUT
10
222.3906
20
119.4824
0
VERTEX
8
CUT
10
222.3006
20
119.3307
0
VERTEX
8
CUT
10
221.0284
20
117.2981
0
VERTEX
8
CUT
10
220.9478
20
117.1748
0
VERTEX
8
CUT
10
220.9329
20
117.1530
0
VERTEX
8
CUT
10
220.7576
20
116.9163
0
VERTEX
8
CUT
10
220.7410
20
116.8958
0
VERTEX
8
CUT
10
220.6465
20
116.7828
0
VERTEX
8
CUT
10
219.1553
20
115.0701
0
VERTEX
8
CUT
10
219.0280
20
114.9312
0
VERTEX
8
CUT
10
219.0047
20
114.9069
0
VERTEX
8
CUT
10
218.7522
20
114.6699
0
VERTEX
8
CUT
10
218.5014
20
114.4778
0
VERTEX
8
CUT
10
218.2325
20
114.3119
0
VERTEX
8
CUT
10
217.9484
20
114.1739
0
VERTEX
8
CUT
10
217.7896
20
114.1156
0
VERTEX
8
CUT
10
217.5587
20
114.0174
0
VERTEX
8
CUT
10
217.3388
20
113.8966
0
VERTEX
8
CUT
10
217.1322
20
113.7543
0
VERTEX
8
CUT
10
216.9408
20
113.5920
0
VERTEX
8
CUT
10
216.7667
20
113.4114
0
VERTEX
8
CUT
10
216.6115
20
113.2142
0
VERTEX
8
CUT
10
216.4769
20
113.0025
0
VERTEX
8
CUT
10
216.3642
20
112.7783
0
VERTEX
8
CUT
10
216.2745
20
112.5440
0
VERTEX
8
CUT
10
216.2087
20
112.3019
0
VERTEX
8
CUT
10
216.1676
20
112.0543
0
VERTEX
8
CUT
10
216.1515
20
111.8040
0
VERTEX
8
CUT
10
216.1605
20
111.5532
0
VERTEX
8
CUT
10
216.1947
20
111.3046
0
VERTEX
8
CUT
10
216.2536
20
111.0608
0
VERTEX
8
CUT
10
216.3366
20
110.8240
0
VERTEX
8
CUT
10
216.4430
20
110.5967
0
VERTEX
8
CUT
10
216.5716
20
110.3813
0
VERTEX
8
CUT
10
216.7211
20
110.1798
0
VERTEX
8
CUT
10
216.8901
20
109.9944
0
VERTEX
8
CUT
10
217.0768
20
109.8268
0
VERTEX
8
CUT
10
217.2673
20
109.6723
0
VERTEX
8
CUT
10
217.4951
20
109.4482
0
VERTEX
8
CUT
10
217.7019
20
109.2028
0
VERTEX
8
CUT
10
217.7209
20
109.1780
0
SEQEND
0
POLYLINE
8
CUT
66
1
70
1
10
0.0
20
0.0
30
0.0
0
VERTEX
8
CUT
10
202.4724
20
228.8002
0
VERTEX
8
CUT
10
202.2263
20
228.8300
0
VERTEX
8
CUT
10
201.9784
20
228.8353
0
VERTEX
8
CUT
10
201.7312
20
228.8159
0
VERTEX
8
CUT
10
201.4872
20
228.7723
0
VERTEX
8
CUT
10
201.2487
20
228.7046
0
VERTEX
8
CUT
10
201.0181
20
228.6137
0
VERTEX
8
CUT
10
200.7976
20
228.5003
0
VERTEX
8
CUT
10
200.5894
20
228.3657
0
VERTEX
8
CUT
10
200.3956
20
228.2111
0
VERTEX
8
CUT
10
200.2180
20
228.0381
0
VERTEX
8
CUT
10
200.0585
20
227.8484
0
VERTEX
8
CUT
10
199.9185
20
227.6438
0
VERTEX
8
CUT
10
199.7995
20
227.4263
0
VERTEX
8
CUT
10
199.7026
20
227.1981
0
VERTEX
8
CUT
10
199.6287
20
226.9614
0
VERTEX
8
CUT
10
199.5787
20
226.7186
0
VERTEX
8
CUT
10
199.5530
20
226.4720
0
VERTEX
8
CUT
10
199.5518
20
226.2241
0
VERTEX
8
CUT
10
199.5752
20
225.9773
0
VERTEX
8
CUT
10
199.6229
20
225.7340
0
VERTEX
8
CUT
10
200.3970
20
222.6155
0
VERTEX
8
CUT
10
200.4527
20
222.3504
0
VERTEX
8
CUT
10
200.4839
20
222.1692
0
VERTEX
8
CUT
10
200.5204
20
221.9008
0
VERTEX
8
CUT
10
200.6643
20
220.4484
0
VERTEX
8
CUT
10
200.6791
20
220.2391
0
VERTEX
8
CUT
10
200.6852
20
220.0968
0
VERTEX
8
CUT
10
200.6883
20
219.8870
0
VERTEX
8
CUT
10
200.6648
20
218.1081
0
VERTEX
8
CUT
10
200.6610
20
217.9814
0
VERTEX
8
CUT
10
200.6570
20
217.8954
0
VERTEX
8
CUT
10
200.6489
20
217.7689
0
VERTEX
8
CUT
10
200.0377
20
210.2197
0
VERTEX
8
CUT
10
200.0295
20
210.0020
0
VERTEX
8
CUT
10
200.0404
20
209.7844
0
VERTEX
8
CUT
10
200.2672
20
207.3678
0
VERTEX
8
CUT
10
200.2986
20
207.1430
0
VERTEX
8
CUT
10
200.3503
20
206.9219
0
VERTEX
8
CUT
10
200.4219
20
206.7065
0
VERTEX
8
CUT
10
201.0594
20
205.0434
0
VERTEX
8
CUT
10
201.1659
20
204.8045
0
VERTEX
8
CUT
10
201.1742
20
204.7832
0
VERTEX
8
CUT
10
201.2658
20
204.5947
0
VERTEX
8
CUT
10
201.3730
20
204.4145
0
VERTEX
8
CUT
10
201.5865
20
204.0876
0
VERTEX
8
CUT
10
201.7627
20
203.8498
0
VERTEX
8
CUT
10
201.9659
20
203.6344
0
VERTEX
8
CUT
10
202.3093
20
203.3111
0
VERTEX
8
CUT
10
202.3411
20
203.2702
0
VERTEX
8
CUT
10
202.3605
20
203.2440
0
VERTEX
8
CUT
10
202.4654
20
203.0869
0
VERTEX
8
CUT
10
202.6141
20
202.8865
0
VERTEX
8
CUT
10
202.7821
20
202.7020
0
VERTEX
8
CUT
10
202.9676
20
202.5351
0
VERTEX
8
CUT
10
203.1689
20
202.3875
0
VERTEX
8
CUT
10
203.3838
20
202.2607
0
VERTEX
8
CUT
10
203.6103
20
202.1560
0
VERTEX
8
CUT
10
203.8462
20
202.0744
0
VERTEX
8
CUT
10
204.0889
20
202.0168
0
VERTEX
8
CUT
10
204.3363
20
201.9836
0
VERTEX
8
CUT
10
204.5857
20
201.9752
0
VERTEX
8
CUT
10
204.8347
20
201.9917
0
VERTEX
8
CUT
10
205.0808
20
202.0330
0
VERTEX
8
CUT
10
205.1548
20
202.0493
0
VERTEX
8
CUT
10
205.3880
20
202.1124
0
VERTEX
8
CUT
10
205.6140
20
202.1978
0
VERTEX
8
CUT
10
205.8308
20
202.3046
0
VERTEX
8
CUT
10
206.0362
20
202.4318
0
VERTEX
8
CUT
10
206.2284
20
202.5783
0
VERTEX
8
CUT
10
206.4055
20
202.7426
0
VERTEX
8
CUT
10
206.5660
20
202.9233
0
VERTEX
8
CUT
10
206.6521
20
203.0416
0
VERTEX
8
CUT
10
206.7239
20
203.1207
0
VERTEX
8
CUT
10
206.8751
20
203.3258
0
VERTEX
8
CUT
10
207.0046
20
203.5454
0
VERTEX
8
CUT
10
207.0597
20
203.6651
0
VERTEX
8
CUT
10
207.1062
20
203.7434
0
VERTEX
8
CUT
10
207.2043
20
203.9497
0
VERTEX
8
CUT
10
207.2832
20
204.1640
0
VERTEX
8
CUT
10
207.3422
20
204.3847
0
VERTEX
8
CUT
10
207.3859
20
204.5839
0
VERTEX
8
CUT
10
207.4251
20
204.8138
0
VERTEX
8
CUT
10
207.4427
20
205.0464
0
VERTEX
8
CUT
10
207.4386
20
205.2796
0
VERTEX
8
CUT
10
207.4127
20
205.5114
0
VERTEX
8
CUT
10
207.0413
20
207.8478
0
VERTEX
8
CUT
10
207.0176
20
208.0234
0
VERTEX
8
CUT
10
207.0141
20
208.0549
0
VERTEX
8
CUT
10
206.9935
20
208.3800
0
VERTEX
8
CUT
10
207.0028
20
208.6771
0
VERTEX
8
CUT
10
207.0402
20
208.9720
0
VERTEX
8
CUT
10
207.1052
20
209.2620
0
VERTEX
8
CUT
10
207.1972
20
209.5446
0
VERTEX
8
CUT
10
207.3156
20
209.8172
0
VERTEX
8
CUT
10
207.4591
20
210.0774
0
VERTEX
8
CUT
10
207.6266
20
210.3230
0
VERTEX
8
CUT
10
207.8165
20
210.5516
0
VERTEX
8
CUT
10
208.0271
20
210.7613
0
VERTEX
8
CUT
10
208.2566
20
210.9501
0
VERTEX
8
CUT
10
208.5265
20
211.1325
0
VERTEX
8
CUT
10
208.5556
20
211.1502
0
VERTEX
8
CUT
10
208.7720
20
211.2980
0
VERTEX
8
CUT
10
208.9717
20
211.4676
0
VERTEX
8
CUT
10
209.1526
20
211.6572
0
VERTEX
8
CUT
10
209.3126
20
211.8647
0
VERTEX
8
CUT
10
209.4500
20
212.0878
0
VERTEX
8
CUT
10
209.8874
20
212.8891
0
VERTEX
8
CUT
10
209.9681
20
213.0296
0
VERTEX
8
CUT
10
209.9831
20
213.0544
0
VERTEX
8
CUT
10
210.1478
20
213.3025
0
VERTEX
8
CUT
10
210.3171
20
213.5151
0
VERTEX
8
CUT
10
210.5221
20
213.7312
0
VERTEX
8
CUT
10
210.5429
20
213.7514
0
VERTEX
8
CUT
10
210.6618
20
213.8615
0
VERTEX
8
CUT
10
211.0161
20
214.1757
0
VERTEX
8
CUT
10
211.1647
20
214.3007
0
VERTEX
8
CUT
10
211.1918
20
214.3223
0
VERTEX
8
CUT
10
211.4818
20
214.5302
0
VERTEX
8
CUT
10
211.7917
20
214.7069
0
VERTEX
8
CUT
10
211.8226
20
214.7225
0
VERTEX
8
CUT
10
211.9983
20
214.8053
0
VERTEX
8
CUT
10
212.3650
20
214.9668
0
VERTEX
8
CUT
10
212.5614
20
215.0467
0
VERTEX
8
CUT
10
212.5968
20
215.0600
0
VERTEX
8
CUT
10
212.9687
20
215.1757
0
VERTEX
8
CUT
10
213.3512
20
215.2487
0
VERTEX
8
CUT
10
213.3887
20
215.2537
0
VERTEX
8
CUT
10
213.5995
20
215.2757
0
VERTEX
8
CUT
10
214.0699
20
215.3113
0
VERTEX
8
CUT
10
214.2397
20
215.3202
0
VERTEX
8
CUT
10
214.2702
20
215.3211
0
VERTEX
8
CUT
10
214.5827
20
215.3164
0
VERTEX
8
CUT
10
214.8936
20
215.2834
0
VERTEX
8
CUT
10
214.9237
20
215.2788
0
VERTEX
8
CUT
10
215.0911
20
215.2493
0
VERTEX
8
CUT
10
215.7901
20
215.1101
0
VERTEX
8
CUT
10
215.9941
20
215.0635
0
VERTEX
8
CUT
10
216.0303
20
215.0542
0
VERTEX
8
CUT
10
216.4289
20
214.9273
0
VERTEX
8
CUT
10
216.4637
20
214.9140
0
VERTEX
8
CUT
10
216.6571
20
214.8341
0
VERTEX
8
CUT
10
217.7254
20
214.3571
0
VERTEX
8
CUT
10
217.8762
20
214.2858
0
VERTEX
8
CUT
10
217.9029
20
214.2724
0
VERTEX
8
CUT
10
218.1940
20
214.1100
0
VERTEX
8
CUT
10
218.2194
20
214.0943
0
VERTEX
8
CUT
10
218.3593
20
214.0035
0
VERTEX
8
CUT
10
219.4603
20
213.2539
0
VERTEX
8
CUT
10
219.6712
20
213.1251
0
VERTEX
8
CUT
10
219.8937
20
213.0177
0
VERTEX
8
CUT
10
220.1258
20
212.9328
0
VERTEX
8
CUT
10
220.3651
20
212.8713
0
VERTEX
8
CUT
10
220.6093
20
212.8337
0
VERTEX
8
CUT
10
220.8560
20
212.8203
0
VERTEX
8
CUT
10
221.1029
20
212.8314
0
VERTEX
8
CUT
10
221.3474
20
212.8668
0
VERTEX
8
CUT
10
221.5873
20
212.9262
0
VERTEX
8
CUT
10
221.8201
20
213.0090
0
VERTEX
8
CUT
10
222.0436
20
213.1143
0
VERTEX
8
CUT
10
222.2556
20
213.2412
0
VERTEX
8
CUT
10
222.4541
20
213.3884
0
VERTEX
8
CUT
10
222.6371
20
213.5545
0
VERTEX
8
CUT
10
222.8027
20
213.7378
0
VERTEX
8
CUT
10
222.9495
20
213.9366
0
VERTEX
8
CUT
10
223.0759
20
214.1489
0
VERTEX
8
CUT
10
223.1808
20
214.3727
0
VERTEX
8
CUT
10
223.2630
20
214.6057
0
VERTEX
8
CUT
10
223.3219
20
214.8457
0
VERTEX
8
CUT
10
223.3567
20
215.0903
0
VERTEX
8
CUT
10
223.3673
20
215.3372
0
VERTEX
8
CUT
10
223.3650
20
215.6808
0
VERTEX
8
CUT
10
223.3661
20
215.7109
0
VERTEX
8
CUT
10
223.3764
20
215.8793
0
VERTEX
8
CUT
10
223.5523
20
217.9875
0
VERTEX
8
CUT
10
223.5752
20
218.1935
0
VERTEX
8
CUT
10
223.5803
20
218.2301
0
VERTEX
8
CUT
10
223.6601
20
218.6367
0
VERTEX
8
CUT
10
223.6692
20
218.6725
0
VERTEX
8
CUT
10
223.7259
20
218.8719
0
VERTEX
8
CUT
10
224.2102
20
220.4136
0
VERTEX
8
CUT
10
224.2917
20
220.6461
0
VERTEX
8
CUT
10
224.3522
20
220.8019
0
VERTEX
8
CUT
10
224.4488
20
221.0286
0
VERTEX
8
CUT
10
225.4433
20
223.1639
0
VERTEX
8
CUT
10
225.5145
20
223.3086
0
VERTEX
8
CUT
10
225.5650
20
223.4058
0
VERTEX
8
CUT
10
225.6423
20
223.5473
0
VERTEX
8
CUT
10
228.0294
20
227.6987
0
VERTEX
8
CUT
10
228.1698
20
227.9832
0
VERTEX
8
CUT
10
228.5525
20
228.9016
0
VERTEX
8
CUT
10
228.6339
20
229.1267
0
VERTEX
8
CUT
10
228.6934
20
229.3585
0
VERTEX
8
CUT
10
228.7305
20
229.5950
0
VERTEX
8
CUT
10
228.9115
20
231.2721
0
VERTEX
8
CUT
10
228.9259
20
231.5381
0
VERTEX
8
CUT
10
228.9120
20
231.8042
0
VERTEX
8
CUT
10
228.8331
20
232.5474
0
VERTEX
8
CUT
10
228.7979
20
232.7769
0
VERTEX
8
CUT
10
228.7416
20
233.0021
0
VERTEX
8
CUT
10
228.6646
20
233.2211
0
VERTEX
8
CUT
10
228.6206
20
233.3301
0
VERTEX
8
CUT
10
228.5037
20
233.5787
0
VERTEX
8
CUT
10
228.3603
20
233.8130
0
VERTEX
8
CUT
10
228.1921
20
234.0301
0
VERTEX
8
CUT
10
228.0010
20
234.2275
0
VERTEX
8
CUT
10
227.6982
20
234.5077
0
VERTEX
8
CUT
10
227.5071
20
234.6676
0
VERTEX
8
CUT
10
227.3011
20
234.8077
0
VERTEX
8
CUT
10
227.0821
20
234.9266
0
VERTEX
8
CUT
10
226.8524
20
235.0231
0
VERTEX
8
CUT
10
226.3891
20
235.1911
0
VERTEX
8
CUT
10
226.1588
20
235.2622
0
VERTEX
8
CUT
10
225.9226
20
235.3108
0
VERTEX
8
CUT
10
225.6829
20
235.3365
0
VERTEX
8
CUT
10
225.4418
20
235.3390
0
VERTEX
8
CUT
10
225.2016
20
235.3182
0
VERTEX
8
CUT
10
224.6535
20
235.2440
0
VERTEX
8
CUT
10
224.4206
20
235.2011
0
VERTEX
8
CUT
10
224.1928
20
235.1364
0
VERTEX
8
CUT
10
223.9721
20
235.0505
0
VERTEX
8
CUT
10
223.5739
20
234.8732
0
VERTEX
8
CUT
10
223.3830
20
234.7782
0
VERTEX
8
CUT
10
223.2008
20
234.6674
0
VERTEX
8
CUT
10
221.2961
20
233.3934
0
VERTEX
8
CUT
10
221.0954
20
233.2442
0
VERTEX
8
CUT
10
216.2580
20
229.2550
0
VERTEX
8
CUT
10
216.1365
20
229.1590
0
VERTEX
8
CUT
10
216.1144
20
229.1422
0
VERTEX
8
CUT
10
215.8600
20
228.9656
0
VERTEX
8
CUT
10
215.8366
20
228.9507
0
VERTEX
8
CUT
10
215.7042
20
228.8704
0
VERTEX
8
CUT
10
214.7072
20
228.2938
0
VERTEX
8
CUT
10
214.5831
20
228.2251
0
VERTEX
8
CUT
10
214.5606
20
228.2132
0
VERTEX
8
CUT
10
214.3051
20
228.0902
0
VERTEX
8
CUT
10
214.2818
20
228.0801
0
VERTEX
8
CUT
10
214.1507
20
228.0259
0
VERTEX
8
CUT
10
213.1277
20
227.6255
0
VERTEX
8
CUT
10
212.9772
20
227.5702
0
VERTEX
8
CUT
10
212.9500
20
227.5609
0
VERTEX
8
CUT
10
212.6426
20
227.4700
0
VERTEX
8
CUT
10
212.6148
20
227.4631
0
VERTEX
8
CUT
10
212.4584
20
227.4275
0
VERTEX
8
CUT
10
210.1012
20
226.9448
0
VERTEX
8
CUT
10
209.9232
20
226.9128
0
VERTEX
8
CUT
10
209.8913
20
226.9078
0
VERTEX
8
CUT
10
209.5608
20
226.8728
0
VERTEX
8
CUT
10
209.2284
20
226.8698
0
VERTEX
8
CUT
10
209.1962
20
226.8710
0
VERTEX
8
CUT
10
209.0157
20
226.8825
0
VERTEX
8
CUT
10
206.8976
20
227.0679
0
VERTEX
8
CUT
10
206.6726
20
227.0945
0
VERTEX
8
CUT
10
206.6328
20
227.1004
0
VERTEX
8
CUT
10
206.1899
20
227.1940
0
VERTEX
8
CUT
10
206.1510
20
227.2047
0
VERTEX
8
CUT
10
205.9345
20
227.2713
0
VERTEX
8
CUT
10
204.8898
20
227.6280
0
VERTEX
8
CUT
10
204.6810
20
227.7063
0
VERTEX
8
CUT
10
204.6442
20
227.7213
0
VERTEX
8
CUT
10
204.2426
20
227.9143
0
VERTEX
8
CUT
10
204.2079
20
227.9336
0
VERTEX
8
CUT
10
204.0163
20
228.0477
0
VERTEX
8
CUT
10
203.3918
20
228.4452
0
VERTEX
8
CUT
10
203.1763
20
228.5678
0
VERTEX
8
CUT
10
202.9498
20
228.6685
0
VERTEX
8
CUT
10
202.7143
20
228.7462
0
SEQEND
0
POLYLINE
8
CUT
66
1
70
1
10
0.0
20
0.0
30
0.0
0
VERTEX
8
CUT
10
221.8782
20
96.5403
0
VERTEX
8
CUT
10
221.7243
20
96.7297
0
VERTEX
8
CUT
10
221.5526
20
96.9031
0
VERTEX
8
CUT
10
221.3648
20
97.0589
0
VERTEX
8
CUT
10
221.1628
20
97.1957
0
VERTEX
8
CUT
10
220.9484
20
97.3122
0
VERTEX
8
CUT
10
220.7236
20
97.4072
0
VERTEX
8
CUT
10
220.4906
20
97.4798
0
VERTEX
8
CUT
10
220.2517
20
97.5294
0
VERTEX
8
CUT
10
220.0091
20
97.5555
0
VERTEX
8
CUT
10
219.7651
20
97.5577
0
VERTEX
8
CUT
10
219.5220
20
97.5362
0
VERTEX
8
CUT
10
219.2822
20
97.4911
0
VERTEX
8
CUT
10
219.0479
20
97.4228
0
VERTEX
8
CUT
10
218.8214
20
97.3320
0
VERTEX
8
CUT
10
218.6049
20
97.2195
0
VERTEX
8
CUT
10
218.4003
20
97.0865
0
VERTEX
8
CUT
10
218.2097
20
96.9342
0
VERTEX
8
CUT
10
218.0348
20
96.7640
0
VERTEX
8
CUT
10
217.8774
20
96.5776
0
VERTEX
8
CUT
10
217.7389
20
96.3767
0
VERTEX
8
CUT
10
215.3995
20
92.6022
0
VERTEX
8
CUT
10
215.2760
20
92.3780
0
VERTEX
8
CUT
10
214.6894
20
91.1710
0
VERTEX
8
CUT
10
214.5912
20
90.9402
0
VERTEX
8
CUT
10
214.5166
20
90.7007
0
VERTEX
8
CUT
10
214.4664
20
90.4549
0
VERTEX
8
CUT
10
214.4411
20
90.2053
0
VERTEX
8
CUT
10
214.4409
20
89.9545
0
VERTEX
8
CUT
10
214.4659
20
89.7049
0
VERTEX
8
CUT
10
214.5157
20
89.4590
0
VERTEX
8
CUT
10
214.5900
20
89.2194
0
VERTEX
8
CUT
10
214.6878
20
88.9884
0
VERTEX
8
CUT
10
214.8084
20
88.7684
0
VERTEX
8
CUT
10
214.9372
20
88.5590
0
VERTEX
8
CUT
10
215.0395
20
88.3820
0
VERTEX
8
CUT
10
215.0569
20
88.3500
0
VERTEX
8
CUT
10
215.2318
20
87.9806
0
VERTEX
8
CUT
10
215.2456
20
87.9469
0
VERTEX
8
CUT
10
215.3177
20
87.7555
0
VERTEX
8
CUT
10
215.6355
20
86.8375
0
VERTEX
8
CUT
10
215.6955
20
86.6482
0
VERTEX
8
CUT
10
215.7328
20
86.5185
0
VERTEX
8
CUT
10
215.7480
20
86.4600
0
VERTEX
8
CUT
10
215.8222
20
86.2231
0
VERTEX
8
CUT
10
215.9195
20
85.9947
0
VERTEX
8
CUT
10
216.0391
20
85.7770
0
VERTEX
8
CUT
10
216.1796
20
85.5723
0
VERTEX
8
CUT
10
216.3397
20
85.3826
0
VERTEX
8
CUT
10
216.5178
20
85.2096
0
VERTEX
8
CUT
10
216.7123
20
85.0552
0
VERTEX
8
CUT
10
216.9211
20
84.9208
0
VERTEX
8
CUT
10
217.1422
20
84.8079
0
VERTEX
8
CUT
10
217.3734
20
84.7173
0
VERTEX
8
CUT
10
217.6124
20
84.6502
0
VERTEX
8
CUT
10
217.8569
20
84.6071
0
VERTEX
8
CUT
10
218.1045
20
84.5885
0
VERTEX
8
CUT
10
218.3527
20
84.5946
0
VERTEX
8
CUT
10
218.5991
20
84.6252
0
VERTEX
8
CUT
10
218.8413
20
84.6801
0
VERTEX
8
CUT
10
219.0768
20
84.7588
0
VERTEX
8
CUT
10
219.3033
20
84.8604
0
VERTEX
8
CUT
10
219.5186
20
84.9840
0
VERTEX
8
CUT
10
219.7206
20
85.1284
0
VERTEX
8
CUT
10
219.9073
20
85.2921
0
VERTEX
8
CUT
10
220.0769
20
85.4735
0
VERTEX
8
CUT
10
220.2276
20
85.6708
0
VERTEX
8
CUT
10
220.3580
20
85.8821
0
VERTEX
8
CUT
10
220.4668
20
86.1053
0
VERTEX
8
CUT
10
220.5529
20
86.3381
0
VERTEX
8
CUT
10
220.6155
20
86.5784
0
VERTEX
8
CUT
10
220.9906
20
88.3809
0
VERTEX
8
CUT
10
221.0377
20
88.5799
0
VERTEX
8
CUT
10
221.0470
20
88.6151
0
VERTEX
8
CUT
10
221.1734
20
89.0038
0
VERTEX
8
CUT
10
221.1865
20
89.0378
0
VERTEX
8
CUT
10
221.2654
20
89.2264
0
VERTEX
8
CUT
10
222.0623
20
90.9954
0
VERTEX
8
CUT
10
222.1377
20
91.1527
0
VERTEX
8
CUT
10
222.1518
20
91.1806
0
VERTEX
8
CUT
10
222.3240
20
91.4839
0
VERTEX
8
CUT
10
222.3406
20
91.5103
0
VERTEX
8
CUT
10
222.4372
20
91.6556
0
VERTEX
8
CUT
10
222.6098
20
91.9030
0
VERTEX
8
CUT
10
222.7382
20
92.1072
0
VERTEX
8
CUT
10
222.8463
20
92.3228
0
VERTEX
8
CUT
10
222.9331
20
92.5478
0
VERTEX
8
CUT
10
222.9978
20
92.7802
0
VERTEX
8
CUT
10
223.0398
20
93.0177
0
VERTEX
8
CUT
10
223.0587
20
93.2581
0
VERTEX
8
CUT
10
223.0544
20
93.4993
0
VERTEX
8
CUT
10
223.0269
20
93.7389
0
VERTEX
8
CUT
10
222.9764
20
93.9747
0
VERTEX
8
CUT
10
222.9034
20
94.2046
0
VERTEX
8
CUT
10
222.8086
20
94.4264
0
VERTEX
8
CUT
10
222.6928
20
94.6380
0
VERTEX
8
CUT
10
222.6116
20
94.7709
0
VERTEX
8
CUT
10
222.4733
20
95.0595
0
VERTEX
8
CUT
10
222.3650
20
95.3606
0
VERTEX
8
CUT
10
222.2902
20
95.6619
0
VERTEX
8
CUT
10
222.2200
20
95.8956
0
VERTEX
8
CUT
10
222.1272
20
96.1213
0
VERTEX
8
CUT
10
222.0130
20
96.3369
0
SEQEND
0
POLYLINE
8
CUT
66
1
70
1
10
0.0
20
0.0
30
0.0
0
VERTEX
8
CUT
10
207.2148
20
107.4145
0
VERTEX
8
CUT
10
207.3621
20
107.2236
0
VERTEX
8
CUT
10
207.5270
20
107.0478
0
VERTEX
8
CUT
10
207.7082
20
106.8887
0
VERTEX
8
CUT
10
207.9038
20
106.7477
0
VERTEX
8
CUT
10
208.1121
20
106.6263
0
VERTEX
8
CUT
10
208.3311
20
106.5255
0
VERTEX
8
CUT
10
208.5588
20
106.4462
0
VERTEX
8
CUT
10
208.7931
20
106.3893
0
VERTEX
8
CUT
10
209.0318
20
106.3552
0
VERTEX
8
CUT
10
209.2726
20
106.3442
0
VERTEX
8
CUT
10
209.5134
20
106.3565
0
VERTEX
8
CUT
10
209.7519
20
106.3920
0
VERTEX
8
CUT
10
209.9859
20
106.4502
0
VERTEX
8
CUT
10
210.2131
20
106.5307
0
VERTEX
8
CUT
10
210.4316
20
106.6327
0
VERTEX
8
CUT
10
210.6392
20
106.7553
0
VERTEX
8
CUT
10
210.8340
20
106.8974
0
VERTEX
8
CUT
10
211.0143
20
107.0575
0
VERTEX
8
CUT
10
211.1782
20
107.2343
0
VERTEX
8
CUT
10
211.3244
20
107.4260
0
VERTEX
8
CUT
10
211.4515
20
107.6309
0
VERTEX
8
CUT
10
211.4831
20
107.6878
0
VERTEX
8
CUT
10
211.5522
20
107.8059
0
VERTEX
8
CUT
10
211.5708
20
107.8380
0
VERTEX
8
CUT
10
211.5727
20
107.8415
0
VERTEX
8
CUT
10
211.6416
20
107.9720
0
VERTEX
8
CUT
10
211.9473
20
108.5953
0
VERTEX
8
CUT
10
212.0286
20
108.7517
0
VERTEX
8
CUT
10
212.0438
20
108.7793
0
VERTEX
8
CUT
10
212.2131
20
109.0554
0
VERTEX
8
CUT
10
212.3906
20
109.2918
0
VERTEX
8
CUT
10
212.5894
20
109.5104
0
VERTEX
8
CUT
10
212.8080
20
109.7094
0
VERTEX
8
CUT
10
213.0442
20
109.8871
0
VERTEX
8
CUT
10
213.3202
20
110.0566
0
VERTEX
8
CUT
10
213.3478
20
110.0718
0
VERTEX
8
CUT
10
213.5041
20
110.1532
0
VERTEX
8
CUT
10
213.5129
20
110.1575
0
VERTEX
8
CUT
10
213.7269
20
110.2760
0
VERTEX
8
CUT
10
213.9283
20
110.4149
0
VERTEX
8
CUT
10
214.1151
20
110.5727
0
VERTEX
8
CUT
10
214.2857
20
110.7481
0
VERTEX
8
CUT
10
214.4382
20
110.9393
0
VERTEX
8
CUT
10
214.5714
20
111.1444
0
VERTEX
8
CUT
10
214.6839
20
111.3616
0
VERTEX
8
CUT
10
214.7746
20
111.5888
0
VERTEX
8
CUT
10
214.8427
20
111.8237
0
VERTEX
8
CUT
10
214.8875
20
112.0642
0
VERTEX
8
CUT
10
214.9086
20
112.3079
0
VERTEX
8
CUT
10
214.9057
20
112.5525
0
VERTEX
8
CUT
10
214.8790
20
112.7956
0
VERTEX
8
CUT
10
214.8286
20
113.0350
0
VERTEX
8
CUT
10
214.7551
20
113.2683
0
VERTEX
8
CUT
10
214.6592
20
113.4933
0
VERTEX
8
CUT
10
214.5417
20
113.7078
0
VERTEX
8
CUT
10
214.4038
20
113.9099
0
VERTEX
8
CUT
10
214.2468
20
114.0975
0
VERTEX
8
CUT
10
214.0723
20
114.2688
0
VERTEX
8
CUT
10
213.8818
20
114.4223
0
VERTEX
8
CUT
10
213.6863
20
114.5647
0
VERTEX
8
CUT
10
213.4582
20
114.7674
0
VERTEX
8
CUT
10
213.2507
20
114.9913
0
VERTEX
8
CUT
10
213.1864
20
115.0759
0
VERTEX
8
CUT
10
213.0315
20
115.2604
0
VERTEX
8
CUT
10
212.8595
20
115.4291
0
VERTEX
8
CUT
10
212.6722
20
115.5805
0
VERTEX
8
CUT
10
212.4711
20
115.7132
0
VERTEX
8
CUT
10
212.2582
20
115.8259
0
VERTEX
8
CUT
10
212.0354
20
115.9176
0
VERTEX
8
CUT
10
211.8049
20
115.9874
0
VERTEX
8
CUT
10
211.5687
20
116.0347
0
VERTEX
8
CUT
10
211.3290
20
116.0591
0
VERTEX
8
CUT
10
211.0881
20
116.0602
0
VERTEX
8
CUT
10
210.8482
20
116.0382
0
VERTEX
8
CUT
10
210.6116
20
115.9932
0
VERTEX
8
CUT
10
210.3804
20
115.9256
0
VERTEX
8
CUT
10
210.1567
20
115.8361
0
VERTEX
8
CUT
10
209.9427
20
115.7255
0
VERTEX
8
CUT
10
209.7404
20
115.5948
0
VERTEX
8
CUT
10
209.5515
20
115.4452
0
VERTEX
8
CUT
10
209.3780
20
115.2782
0
VERTEX
8
CUT
10
209.2213
20
115.0952
0
VERTEX
8
CUT
10
208.6355
20
114.3402
0
VERTEX
8
CUT
10
208.4833
20
114.1209
0
VERTEX
8
CUT
10
206.5139
20
110.9307
0
VERTEX
8
CUT
10
206.3966
20
110.7183
0
VERTEX
8
CUT
10
206.3005
20
110.4956
0
VERTEX
8
CUT
10
206.2264
20
110.2645
0
VERTEX
8
CUT
10
206.1750
20
110.0274
0
VERTEX
8
CUT
10
206.1469
20
109.7864
0
VERTEX
8
CUT
10
206.1423
20
109.5438
0
VERTEX
8
CUT
10
206.1612
20
109.3019
0
VERTEX
8
CUT
10
206.2035
20
109.0630
0
VERTEX
8
CUT
10
206.2687
20
108.8293
0
VERTEX
8
CUT
10
206.3563
20
108.6030
0
VERTEX
8
CUT
10
206.4654
20
108.3863
0
VERTEX
8
CUT
10
206.5950
20
108.1812
0
VERTEX
8
CUT
10
206.7439
20
107.9896
0
VERTEX
8
CUT
10
206.8569
20
107.8701
0
VERTEX
8
CUT
10
206.8563
20
107.8696
0
VERTEX
8
CUT
10
206.8578
20
107.8680
0
VERTEX
8
CUT
10
207.0788
20
107.6096
0
SEQEND
0
POLYLINE
8
CUT
66
1
70
1
10
0.0
20
0.0
30
0.0
0
VERTEX
8
CUT
10
202.0373
20
45.0526
0
VERTEX
8
CUT
10
201.7991
20
45.0037
0
VERTEX
8
CUT
10
201.5668
20
44.9320
0
VERTEX
8
CUT
10
201.3425
20
44.8380
0
VERTEX
8
CUT
10
201.1284
20
44.7226
0
VERTEX
8
CUT
10
200.9266
20
44.5870
0
VERTEX
8
CUT
10
200.7388
20
44.4325
0
VERTEX
8
CUT
10
200.5670
20
44.2604
0
VERTEX
8
CUT
10
200.4127
20
44.0725
0
VERTEX
8
CUT
10
200.2774
20
43.8704
0
VERTEX
8
CUT
10
200.1624
20
43.6562
0
VERTEX
8
CUT
10
200.0687
20
43.4318
0
VERTEX
8
CUT
10
199.9973
20
43.1993
0
VERTEX
8
CUT
10
199.9488
20
42.9611
0
VERTEX
8
CUT
10
199.9236
20
42.7192
0
VERTEX
8
CUT
10
199.9221
20
42.4760
0
VERTEX
8
CUT
10
199.9442
20
42.2339
0
VERTEX
8
CUT
10
199.9898
20
41.9950
0
VERTEX
8
CUT
10
200.0583
20
41.7617
0
VERTEX
8
CUT
10
200.1492
20
41.5361
0
VERTEX
8
CUT
10
200.2615
20
41.3205
0
VERTEX
8
CUT
10
200.3943
20
41.1167
0
VERTEX
8
CUT
10
200.5462
20
40.9269
0
VERTEX
8
CUT
10
200.7159
20
40.7527
0
VERTEX
8
CUT
10
200.9017
20
40.5958
0
VERTEX
8
CUT
10
201.1018
20
40.4577
0
VERTEX
8
CUT
10
201.3144
20
40.3397
0
VERTEX
8
CUT
10
201.6194
20
40.1894
0
VERTEX
8
CUT
10
201.8137
20
40.1036
0
VERTEX
8
CUT
10
202.0146
20
40.0347
0
VERTEX
8
CUT
10
202.2205
20
39.9831
0
VERTEX
8
CUT
10
202.6404
20
39.8966
0
VERTEX
8
CUT
10
202.9348
20
39.8540
0
VERTEX
8
CUT
10
203.2321
20
39.8467
0
VERTEX
8
CUT
10
204.3588
20
39.8862
0
VERTEX
8
CUT
10
204.6238
20
39.9096
0
VERTEX
8
CUT
10
204.8848
20
39.9611
0
VERTEX
8
CUT
10
205.3103
20
40.0688
0
VERTEX
8
CUT
10
205.5920
20
40.1581
0
VERTEX
8
CUT
10
205.8612
20
40.2800
0
VERTEX
8
CUT
10
205.8783
20
40.2890
0
VERTEX
8
CUT
10
206.0862
20
40.4116
0
VERTEX
8
CUT
10
206.2813
20
40.5537
0
VERTEX
8
CUT
10
206.4619
20
40.7139
0
VERTEX
8
CUT
10
206.6261
20
40.8908
0
VERTEX
8
CUT
10
206.7725
20
41.0827
0
VERTEX
8
CUT
10
206.8997
20
41.2878
0
VERTEX
8
CUT
10
207.0065
20
41.5043
0
VERTEX
8
CUT
10
207.0920
20
41.7300
0
VERTEX
8
CUT
10
207.1553
20
41.9630
0
VERTEX
8
CUT
10
207.1959
20
42.2009
0
VERTEX
8
CUT
10
207.2133
20
42.4416
0
VERTEX
8
CUT
10
207.2074
20
42.6829
0
VERTEX
8
CUT
10
207.1782
20
42.9226
0
VERTEX
8
CUT
10
207.1261
20
43.1582
0
VERTEX
8
CUT
10
207.0515
20
43.3878
0
VERTEX
8
CUT
10
206.9552
20
43.6091
0
VERTEX
8
CUT
10
206.8379
20
43.8201
0
VERTEX
8
CUT
10
206.7008
20
44.0187
0
VERTEX
8
CUT
10
206.5452
20
44.2033
0
VERTEX
8
CUT
10
206.3726
20
44.3719
0
VERTEX
8
CUT
10
206.1844
20
44.5232
0
VERTEX
8
CUT
10
205.9826
20
44.6556
0
VERTEX
8
CUT
10
205.7689
20
44.7679
0
VERTEX
8
CUT
10
205.5454
20
44.8590
0
VERTEX
8
CUT
10
205.3142
20
44.9282
0
VERTEX
8
CUT
10
205.0774
20
44.9748
0
VERTEX
8
CUT
10
204.8371
20
44.9983
0
VERTEX
8
CUT
10
204.5958
20
44.9986
0
VERTEX
8
CUT
10
204.3555
20
44.9755
0
VERTEX
8
CUT
10
204.0657
20
44.9335
0
VERTEX
8
CUT
10
203.7479
20
44.9199
0
VERTEX
8
CUT
10
203.4303
20
44.9385
0
VERTEX
8
CUT
10
203.0861
20
44.9940
0
VERTEX
8
CUT
10
203.0530
20
45.0011
0
VERTEX
8
CUT
10
203.0034
20
45.0130
0
VERTEX
8
CUT
10
202.7645
20
45.0582
0
VERTEX
8
CUT
10
202.5223
20
45.0799
0
VERTEX
8
CUT
10
202.2792
20
45.0781
0
SEQEND
0
POLYLINE
8
CUT
66
1
70
1
10
0.0
20
0.0
30
0.0
0
VERTEX
8
CUT
10
186.5581
20
85.9967
0
VERTEX
8
CUT
10
186.4126
20
85.7975
0
VERTEX
8
CUT
10
186.2874
20
85.5850
0
VERTEX
8
CUT
10
186.1838
20
85.3612
0
VERTEX
8
CUT
10
186.1027
20
85.1283
0
VERTEX
8
CUT
10
186.0449
20
84.8885
0
VERTEX
8
CUT
10
186.0111
20
84.6442
0
VERTEX
8
CUT
10
186.0015
20
84.3977
0
VERTEX
8
CUT
10
186.0163
20
84.1515
0
VERTEX
8
CUT
10
186.0552
20
83.9080
0
VERTEX
8
CUT
10
186.1179
20
83.6694
0
VERTEX
8
CUT
10
186.2039
20
83.4382
0
VERTEX
8
CUT
10
186.3122
20
83.2167
0
VERTEX
8
CUT
10
186.4418
20
83.0068
0
VERTEX
8
CUT
10
186.5139
20
82.9123
0
VERTEX
8
CUT
10
186.5166
20
82.9079
0
VERTEX
8
CUT
10
186.6630
20
82.7150
0
VERTEX
8
CUT
10
189.6665
20
79.1334
0
VERTEX
8
CUT
10
189.7424
20
79.0241
0
VERTEX
8
CUT
10
189.7587
20
78.9982
0
VERTEX
8
CUT
10
189.8464
20
78.8514
0
VERTEX
8
CUT
10
191.0098
20
76.7997
0
VERTEX
8
CUT
10
191.0162
20
76.7881
0
VERTEX
8
CUT
10
191.0880
20
76.6549
0
VERTEX
8
CUT
10
191.1011
20
76.6292
0
VERTEX
8
CUT
10
191.2247
20
76.3596
0
VERTEX
8
CUT
10
191.3246
20
76.0805
0
VERTEX
8
CUT
10
191.3332
20
76.0529
0
VERTEX
8
CUT
10
191.3776
20
75.8979
0
VERTEX
8
CUT
10
191.5127
20
75.3857
0
VERTEX
8
CUT
10
191.6916
20
74.4429
0
VERTEX
8
CUT
10
191.7217
20
74.2595
0
VERTEX
8
CUT
10
191.7263
20
74.2266
0
VERTEX
8
CUT
10
191.7591
20
73.8565
0
VERTEX
8
CUT
10
191.7604
20
73.8233
0
VERTEX
8
CUT
10
191.7630
20
73.6375
0
VERTEX
8
CUT
10
191.7421
20
71.6767
0
VERTEX
8
CUT
10
191.7353
20
71.4877
0
VERTEX
8
CUT
10
191.7332
20
71.4540
0
VERTEX
8
CUT
10
191.6912
20
71.0784
0
VERTEX
8
CUT
10
191.6857
20
71.0451
0
VERTEX
8
CUT
10
191.6505
20
70.8594
0
VERTEX
8
CUT
10
191.5848
20
70.5543
0
VERTEX
8
CUT
10
191.5475
20
70.3980
0
VERTEX
8
CUT
10
191.5402
20
70.3701
0
VERTEX
8
CUT
10
191.4893
20
70.2042
0
VERTEX
8
CUT
10
191.4543
20
70.1142
0
VERTEX
8
CUT
10
191.3466
20
69.8364
0
VERTEX
8
CUT
10
191.3333
20
69.8023
0
VERTEX
8
CUT
10
191.3137
20
69.7518
0
VERTEX
8
CUT
10
191.2832
20
69.6883
0
VERTEX
8
CUT
10
191.1846
20
69.4532
0
VERTEX
8
CUT
10
191.1104
20
69.2093
0
VERTEX
8
CUT
10
191.0615
20
68.9591
0
VERTEX
8
CUT
10
191.0383
20
68.7053
0
VERTEX
8
CUT
10
191.0411
20
68.4504
0
VERTEX
8
CUT
10
191.0698
20
68.1971
0
VERTEX
8
CUT
10
191.1242
20
67.9480
0
VERTEX
8
CUT
10
191.2036
20
67.7058
0
VERTEX
8
CUT
10
191.3073
20
67.4729
0
VERTEX
8
CUT
10
191.8182
20
66.4671
0
VERTEX
8
CUT
10
191.9204
20
66.2851
0
VERTEX
8
CUT
10
193.4734
20
63.7718
0
VERTEX
8
CUT
10
193.5953
20
63.5924
0
VERTEX
8
CUT
10
193.7323
20
63.4243
0
VERTEX
8
CUT
10
194.5536
20
62.5011
0
VERTEX
8
CUT
10
194.6075
20
62.4249
0
VERTEX
8
CUT
10
194.7553
20
62.2358
0
VERTEX
8
CUT
10
194.9207
20
62.0617
0
VERTEX
8
CUT
10
195.0252
20
61.9709
0
VERTEX
8
CUT
10
195.2815
20
61.6828
0
VERTEX
8
CUT
10
195.4785
20
61.4849
0
VERTEX
8
CUT
10
195.6964
20
61.3101
0
VERTEX
8
CUT
10
196.9571
20
60.4097
0
VERTEX
8
CUT
10
197.1476
20
60.2863
0
VERTEX
8
CUT
10
197.3485
20
60.1807
0
VERTEX
8
CUT
10
197.5581
20
60.0937
0
VERTEX
8
CUT
10
197.7748
20
60.0261
0
VERTEX
8
CUT
10
198.4557
20
59.8472
0
VERTEX
8
CUT
10
198.6961
20
59.7965
0
VERTEX
8
CUT
10
198.9404
20
59.7697
0
VERTEX
8
CUT
10
199.1862
20
59.7670
0
VERTEX
8
CUT
10
199.4310
20
59.7884
0
VERTEX
8
CUT
10
199.6726
20
59.8337
0
VERTEX
8
CUT
10
199.8596
20
59.8785
0
VERTEX
8
CUT
10
200.1333
20
59.9608
0
VERTEX
8
CUT
10
200.3958
20
60.0737
0
VERTEX
8
CUT
10
200.6868
20
60.2191
0
VERTEX
8
CUT
10
200.8942
20
60.3354
0
VERTEX
8
CUT
10
201.0896
20
60.4709
0
VERTEX
8
CUT
10
201.2712
20
60.6243
0
VERTEX
8
CUT
10
201.4374
20
60.7943
0
VERTEX
8
CUT
10
202.3839
20
61.8590
0
VERTEX
8
CUT
10
202.5309
20
62.0408
0
VERTEX
8
CUT
10
202.6603
20
62.2356
0
VERTEX
8
CUT
10
202.7709
20
62.4416
0
VERTEX
8
CUT
10
202.8433
20
62.5929
0
VERTEX
8
CUT
10
202.9282
20
62.7924
0
VERTEX
8
CUT
10
202.9956
20
62.9985
0
VERTEX
8
CUT
10
203.0448
20
63.2097
0
VERTEX
8
CUT
10
203.1379
20
63.7053
0
VERTEX
8
CUT
10
203.1733
20
63.9719
0
VERTEX
8
CUT
10
203.1798
20
64.2409
0
VERTEX
8
CUT
10
203.1078
20
66.6694
0
VERTEX
8
CUT
10
203.0807
20
66.9701
0
VERTEX
8
CUT
10
202.8061
20
68.7810
0
VERTEX
8
CUT
10
202.7653
20
68.9895
0
VERTEX
8
CUT
10
202.7070
20
69.1939
0
VERTEX
8
CUT
10
202.6315
20
69.3925
0
VERTEX
8
CUT
10
201.8104
20
71.3050
0
VERTEX
8
CUT
10
201.6494
20
71.6175
0
VERTEX
8
CUT
10
199.7123
20
74.8034
0
VERTEX
8
CUT
10
199.5409
20
75.0506
0
VERTEX
8
CUT
10
196.3908
20
79.0539
0
VERTEX
8
CUT
10
196.2811
20
79.2006
0
VERTEX
8
CUT
10
196.2621
20
79.2273
0
VERTEX
8
CUT
10
196.0807
20
79.5110
0
VERTEX
8
CUT
10
195.9327
20
79.8014
0
VERTEX
8
CUT
10
195.7985
20
80.1466
0
VERTEX
8
CUT
10
195.6934
20
80.5342
0
VERTEX
8
CUT
10
195.6858
20
80.5697
0
VERTEX
8
CUT
10
195.6487
20
80.7702
0
VERTEX
8
CUT
10
195.5162
20
81.6129
0
VERTEX
8
CUT
10
195.4593
20
81.8790
0
VERTEX
8
CUT
10
195.3739
20
82.1374
0
VERTEX
8
CUT
10
195.2608
20
82.3849
0
VERTEX
8
CUT
10
194.9458
20
82.9860
0
VERTEX
8
CUT
10
194.8632
20
83.1536
0
VERTEX
8
CUT
10
194.8492
20
83.1839
0
VERTEX
8
CUT
10
194.7208
20
83.5026
0
VERTEX
8
CUT
10
194.6332
20
83.8034
0
VERTEX
8
CUT
10
194.5760
20
84.1116
0
VERTEX
8
CUT
10
194.5472
20
84.4539
0
VERTEX
8
CUT
10
194.5461
20
84.4872
0
VERTEX
8
CUT
10
194.5443
20
84.6741
0
VERTEX
8
CUT
10
194.5818
20
87.0522
0
VERTEX
8
CUT
10
194.5738
20
87.2950
0
VERTEX
8
CUT
10
194.5423
20
87.5359
0
VERTEX
8
CUT
10
194.4876
20
87.7726
0
VERTEX
8
CUT
10
194.4102
20
88.0028
0
VERTEX
8
CUT
10
194.3107
20
88.2245
0
VERTEX
8
CUT
10
194.1903
20
88.4354
0
VERTEX
8
CUT
10
194.0499
20
88.6337
0
VERTEX
8
CUT
10
193.8909
20
88.8174
0
VERTEX
8
CUT
10
193.7149
20
88.9848
0
VERTEX
8
CUT
10
193.5235
20
89.1343
0
VERTEX
8
CUT
10
193.3184
20
89.2646
0
VERTEX
8
CUT
10
193.1017
20
89.3743
0
VERTEX
8
CUT
10
192.8753
20
89.4625
0
VERTEX
8
CUT
10
192.6415
20
89.5283
0
VERTEX
8
CUT
10
192.4023
20
89.5710
0
VERTEX
8
CUT
10
192.1602
20
89.5904
0
VERTEX
8
CUT
10
191.9173
20
89.5862
0
VERTEX
8
CUT
10
191.6760
20
89.5584
0
VERTEX
8
CUT
10
191.4385
20
89.5074
0
VERTEX
8
CUT
10
191.2071
20
89.4335
0
VERTEX
8
CUT
10
190.9839
20
89.3375
0
VERTEX
8
CUT
10
190.7711
20
89.2203
0
VERTEX
8
CUT
10
190.5707
20
89.0830
0
VERTEX
8
CUT
10
190.3846
20
88.9269
0
VERTEX
8
CUT
10
190.2145
20
88.7535
0
VERTEX
8
CUT
10
190.0268
20
88.5426
0
VERTEX
8
CUT
10
189.8882
20
88.3951
0
VERTEX
8
CUT
10
189.8628
20
88.3695
0
VERTEX
8
CUT
10
189.5629
20
88.0980
0
VERTEX
8
CUT
10
189.5348
20
88.0752
0
VERTEX
8
CUT
10
189.3743
20
87.9520
0
VERTEX
8
CUT
10
188.4849
20
87.3066
0
VERTEX
8
CUT
10
188.2798
20
87.1679
0
VERTEX
8
CUT
10
188.1375
20
87.0783
0
VERTEX
8
CUT
10
187.9236
20
86.9534
0
VERTEX
8
CUT
10
187.3126
20
86.6231
0
VERTEX
8
CUT
10
187.1016
20
86.4953
0
VERTEX
8
CUT
10
186.9043
20
86.3472
0
VERTEX
8
CUT
10
186.7226
20
86.1805
0
SEQEND
0
POLYLINE
8
CUT
66
1
70
1
10
0.0
20
0.0
30
0.0
0
VERTEX
8
CUT
10
119.1959
20
195.2572
0
VERTEX
8
CUT
10
119.2384
20
195.0527
0
VERTEX
8
CUT
10
119.2991
20
194.8186
0
VERTEX
8
CUT
10
119.3821
20
194.5914
0
VERTEX
8
CUT
10
119.4866
20
194.3733
0
VERTEX
8
CUT
10
119.6118
20
194.1663
0
VERTEX
8
CUT
10
119.7563
20
193.9724
0
VERTEX
8
CUT
10
119.9190
20
193.7934
0
VERTEX
8
CUT
10
120.0981
20
193.6309
0
VERTEX
8
CUT
10
120.2922
20
193.4865
0
VERTEX
8
CUT
10
120.4992
20
193.3615
0
VERTEX
8
CUT
10
120.7174
20
193.2571
0
VERTEX
8
CUT
10
120.9447
20
193.1743
0
VERTEX
8
CUT
10
121.1788
20
193.1138
0
VERTEX
8
CUT
10
121.4178
20
193.0763
0
VERTEX
8
CUT
10
121.6592
20
193.0620
0
VERTEX
8
CUT
10
121.9009
20
193.0711
0
VERTEX
8
CUT
10
122.1406
20
193.1035
0
VERTEX
8
CUT
10
122.3760
20
193.1590
0
VERTEX
8
CUT
10
122.6050
20
193.2369
0
VERTEX
8
CUT
10
122.8254
20
193.3366
0
VERTEX
8
CUT
10
123.0351
20
193.4571
0
VERTEX
8
CUT
10
123.2322
20
193.5973
0
VERTEX
8
CUT
10
123.4148
20
193.7559
0
VERTEX
8
CUT
10
123.5812
20
193.9314
0
VERTEX
8
CUT
10
123.7299
20
194.1222
0
VERTEX
8
CUT
10
123.8594
20
194.3264
0
VERTEX
8
CUT
10
123.9686
20
194.5422
0
VERTEX
8
CUT
10
123.9929
20
194.5966
0
VERTEX
8
CUT
10
124.6899
20
196.0826
0
VERTEX
8
CUT
10
124.8042
20
196.3066
0
VERTEX
8
CUT
10
124.8869
20
196.4559
0
VERTEX
8
CUT
10
125.0161
20
196.6718
0
VERTEX
8
CUT
10
126.8119
20
199.4568
0
VERTEX
8
CUT
10
126.8998
20
199.5871
0
VERTEX
8
CUT
10
126.9160
20
199.6101
0
VERTEX
8
CUT
10
127.1078
20
199.8589
0
VERTEX
8
CUT
10
127.1259
20
199.8805
0
VERTEX
8
CUT
10
127.2294
20
199.9987
0
VERTEX
8
CUT
10
128.1549
20
201.0115
0
VERTEX
8
CUT
10
128.2747
20
201.1367
0
VERTEX
8
CUT
10
128.3580
20
201.2198
0
VERTEX
8
CUT
10
128.4835
20
201.3394
0
VERTEX
8
CUT
10
129.4500
20
202.2183
0
VERTEX
8
CUT
10
129.6391
20
202.3792
0
VERTEX
8
CUT
10
129.7710
20
202.4841
0
VERTEX
8
CUT
10
129.9704
20
202.6321
0
VERTEX
8
CUT
10
130.9498
20
203.3102
0
VERTEX
8
CUT
10
131.0734
20
203.3922
0
VERTEX
8
CUT
10
131.0959
20
203.4065
0
VERTEX
8
CUT
10
131.3523
20
203.5555
0
VERTEX
8
CUT
10
131.3758
20
203.5679
0
VERTEX
8
CUT
10
131.5083
20
203.6347
0
VERTEX
8
CUT
10
134.2830
20
204.9658
0
VERTEX
8
CUT
10
134.4874
20
205.0564
0
VERTEX
8
CUT
10
134.5243
20
205.0715
0
VERTEX
8
CUT
10
134.9474
20
205.2155
0
VERTEX
8
CUT
10
134.9857
20
205.2260
0
VERTEX
8
CUT
10
135.2030
20
205.2789
0
VERTEX
8
CUT
10
136.1478
20
205.4790
0
VERTEX
8
CUT
10
136.2879
20
205.5059
0
VERTEX
8
CUT
10
136.3131
20
205.5102
0
VERTEX
8
CUT
10
136.5960
20
205.5479
0
VERTEX
8
CUT
10
136.6215
20
205.5504
0
VERTEX
8
CUT
10
136.7638
20
205.5611
0
VERTEX
8
CUT
10
137.8083
20
205.6202
0
VERTEX
8
CUT
10
138.0044
20
205.6261
0
VERTEX
8
CUT
10
138.1376
20
205.6267
0
VERTEX
8
CUT
10
138.3338
20
205.6223
0
VERTEX
8
CUT
10
140.7634
20
205.5052
0
VERTEX
8
CUT
10
140.9813
20
205.4883
0
VERTEX
8
CUT
10
141.0200
20
205.4841
0
VERTEX
8
CUT
10
141.4509
20
205.4125
0
VERTEX
8
CUT
10
141.4889
20
205.4039
0
VERTEX
8
CUT
10
141.7005
20
205.3493
0
VERTEX
8
CUT
10
143.2622
20
204.8980
0
VERTEX
8
CUT
10
143.4667
20
204.8325
0
VERTEX
8
CUT
10
143.5028
20
204.8198
0
VERTEX
8
CUT
10
143.8988
20
204.6542
0
VERTEX
8
CUT
10
143.9333
20
204.6374
0
VERTEX
8
CUT
10
144.1236
20
204.5379
0
VERTEX
8
CUT
10
144.3244
20
204.4255
0
VERTEX
8
CUT
10
144.5117
20
204.3133
0
VERTEX
8
CUT
10
144.5445
20
204.2923
0
VERTEX
8
CUT
10
144.8979
20
204.0363
0
VERTEX
8
CUT
10
144.9280
20
204.0117
0
VERTEX
8
CUT
10
145.0930
20
203.8686
0
VERTEX
8
CUT
10
145.2575
20
203.7174
0
VERTEX
8
CUT
10
145.3830
20
203.5965
0
VERTEX
8
CUT
10
145.4049
20
203.5744
0
VERTEX
8
CUT
10
145.6384
20
203.3157
0
VERTEX
8
CUT
10
145.6582
20
203.2917
0
VERTEX
8
CUT
10
145.7657
20
203.1545
0
VERTEX
8
CUT
10
145.8710
20
203.0135
0
VERTEX
8
CUT
10
145.9720
20
202.8715
0
VERTEX
8
CUT
10
145.9757
20
202.8659
0
VERTEX
8
CUT
10
146.0573
20
202.6697
0
VERTEX
8
CUT
10
146.1610
20
202.4766
0
VERTEX
8
CUT
10
146.1896
20
202.4223
0
VERTEX
8
CUT
10
146.2835
20
202.2312
0
VERTEX
8
CUT
10
146.4232
20
201.9252
0
VERTEX
8
CUT
10
146.4771
20
201.7995
0
VERTEX
8
CUT
10
146.5382
20
201.5875
0
VERTEX
8
CUT
10
146.5940
20
201.3091
0
VERTEX
8
CUT
10
146.5983
20
201.2818
0
VERTEX
8
CUT
10
146.6193
20
201.1288
0
VERTEX
8
CUT
10
146.6619
20
200.7615
0
VERTEX
8
CUT
10
146.6787
20
200.5772
0
VERTEX
8
CUT
10
146.6809
20
200.5442
0
VERTEX
8
CUT
10
146.6866
20
200.2040
0
VERTEX
8
CUT
10
146.6612
20
199.8946
0
VERTEX
8
CUT
10
146.6054
20
199.5892
0
VERTEX
8
CUT
10
146.5154
20
199.2756
0
VERTEX
8
CUT
10
146.4041
20
199.0172
0
VERTEX
8
CUT
10
146.3900
20
198.9883
0
VERTEX
8
CUT
10
146.3072
20
198.8288
0
VERTEX
8
CUT
10
146.1688
20
198.5769
0
VERTEX
8
CUT
10
146.0812
20
198.4260
0
VERTEX
8
CUT
10
146.0649
20
198.3994
0
VERTEX
8
CUT
10
145.8849
20
198.1339
0
VERTEX
8
CUT
10
145.6811
20
197.8863
0
VERTEX
8
CUT
10
145.6601
20
197.8631
0
VERTEX
8
CUT
10
145.5401
20
197.7365
0
VERTEX
8
CUT
10
145.3704
20
197.5655
0
VERTEX
8
CUT
10
145.2591
20
197.4580
0
VERTEX
8
CUT
10
145.2388
20
197.4392
0
VERTEX
8
CUT
10
145.1200
20
197.3378
0
VERTEX
8
CUT
10
140.3299
20
193.8846
0
VERTEX
8
CUT
10
140.1170
20
193.7126
0
VERTEX
8
CUT
10
139.9242
20
193.5184
0
VERTEX
8
CUT
10
139.7537
20
193.3043
0
VERTEX
8
CUT
10
138.5110
20
191.5546
0
VERTEX
8
CUT
10
138.3966
20
191.3784
0
VERTEX
8
CUT
10
138.2974
20
191.1931
0
VERTEX
8
CUT
10
138.2142
20
191.0002
0
VERTEX
8
CUT
10
137.6807
20
189.6057
0
VERTEX
8
CUT
10
137.6050
20
189.3748
0
VERTEX
8
CUT
10
137.5520
20
189.1376
0
VERTEX
8
CUT
10
137.3016
20
187.6867
0
VERTEX
8
CUT
10
137.2701
20
187.4178
0
VERTEX
8
CUT
10
137.2678
20
187.1470
0
VERTEX
8
CUT
10
137.3284
20
185.8248
0
VERTEX
8
CUT
10
137.3519
20
185.5784
0
VERTEX
8
CUT
10
137.3998
20
185.3355
0
VERTEX
8
CUT
10
137.7039
20
184.1134
0
VERTEX
8
CUT
10
137.7919
20
183.8319
0
VERTEX
8
CUT
10
137.9124
20
183.5627
0
VERTEX
8
CUT
10
138.4866
20
182.4599
0
VERTEX
8
CUT
10
138.6422
20
182.2005
0
VERTEX
8
CUT
10
138.8280
20
181.9619
0
VERTEX
8
CUT
10
139.6184
20
181.0645
0
VERTEX
8
CUT
10
139.7713
20
180.9056
0
VERTEX
8
CUT
10
139.9377
20
180.7608
0
VERTEX
8
CUT
10
140.1161
20
180.6313
0
VERTEX
8
CUT
10
141.2050
20
179.9116
0
VERTEX
8
CUT
10
141.4010
20
179.7946
0
VERTEX
8
CUT
10
141.6067
20
179.6960
0
VERTEX
8
CUT
10
142.7243
20
179.2217
0
VERTEX
8
CUT
10
142.9428
20
179.1408
0
VERTEX
8
CUT
10
143.1679
20
179.0805
0
VERTEX
8
CUT
10
144.5546
20
178.7779
0
VERTEX
8
CUT
10
144.8770
20
178.7293
0
VERTEX
8
CUT
10
147.0201
20
178.5481
0
VERTEX
8
CUT
10
147.0577
20
178.5452
0
VERTEX
8
CUT
10
147.0645
20
178.5447
0
VERTEX
8
CUT
10
147.2230
20
178.5387
0
VERTEX
8
CUT
10
152.0831
20
178.5104
0
VERTEX
8
CUT
10
152.1104
20
178.5104
0
VERTEX
8
CUT
10
152.1151
20
178.5105
0
VERTEX
8
CUT
10
152.2289
20
178.5136
0
VERTEX
8
CUT
10
154.8769
20
178.6478
0
VERTEX
8
CUT
10
155.1966
20
178.6848
0
VERTEX
8
CUT
10
157.8963
20
179.1746
0
VERTEX
8
CUT
10
158.1508
20
179.2347
0
VERTEX
8
CUT
10
158.3977
20
179.3210
0
VERTEX
8
CUT
10
159.4503
20
179.7522
0
VERTEX
8
CUT
10
159.6387
20
179.8386
0
VERTEX
8
CUT
10
159.8193
20
179.9404
0
VERTEX
8
CUT
10
159.9908
20
180.0568
0
VERTEX
8
CUT
10
161.2171
20
180.9652
0
VERTEX
8
CUT
10
161.4216
20
181.1343
0
VERTEX
8
CUT
10
161.6070
20
181.3240
0
VERTEX
8
CUT
10
161.7713
20
181.5323
0
VERTEX
8
CUT
10
162.6034
20
182.7111
0
VERTEX
8
CUT
10
162.7326
20
182.9142
0
VERTEX
8
CUT
10
162.8417
20
183.1288
0
VERTEX
8
CUT
10
162.9296
20
183.3529
0
VERTEX
8
CUT
10
163.4304
20
184.8359
0
VERTEX
8
CUT
10
163.4948
20
185.0606
0
VERTEX
8
CUT
10
163.5379
20
185.2902
0
VERTEX
8
CUT
10
163.5593
20
185.5229
0
VERTEX
8
CUT
10
163.6340
20
187.1757
0
VERTEX
8
CUT
10
163.6297
20
187.4742
0
VERTEX
8
CUT
10
163.5898
20
187.7701
0
VERTEX
8
CUT
10
163.2572
20
189.4651
0
VERTEX
8
CUT
10
163.1869
20
189.7397
0
VERTEX
8
CUT
10
163.0859
20
190.0047
0
VERTEX
8
CUT
10
162.3664
20
191.6127
0
VERTEX
8
CUT
10
162.2725
20
191.8009
0
VERTEX
8
CUT
10
162.1632
20
191.9805
0
VERTEX
8
CUT
10
162.0391
20
192.1503
0
VERTEX
8
CUT
10
160.9678
20
193.4936
0
VERTEX
8
CUT
10
160.8003
20
193.6832
0
VERTEX
8
CUT
10
160.6145
20
193.8548
0
VERTEX
8
CUT
10
160.4123
20
194.0068
0
VERTEX
8
CUT
10
160.4105
20
194.0080
0
VERTEX
8
CUT
10
160.1998
20
194.2216
0
VERTEX
8
CUT
10
159.9736
20
194.4246
0
VERTEX
8
CUT
10
159.7244
20
194.5987
0
VERTEX
8
CUT
10
157.7237
20
195.8223
0
VERTEX
8
CUT
10
156.7680
20
196.4676
0
VERTEX
8
CUT
10
156.7629
20
196.4719
0
VERTEX
8
CUT
10
156.7399
20
196.4912
0
VERTEX
8
CUT
10
156.6519
20
196.5647
0
VERTEX
8
CUT
10
156.0270
20
197.0872
0
VERTEX
8
CUT
10
155.4318
20
197.6484
0
VERTEX
8
CUT
10
155.2819
20
197.7979
0
VERTEX
8
CUT
10
155.2559
20
197.8253
0
VERTEX
8
CUT
10
155.1100
20
197.9979
0
VERTEX
8
CUT
10
154.9977
20
198.1592
0
VERTEX
8
CUT
10
154.9818
20
198.1844
0
VERTEX
8
CUT
10
154.8960
20
198.3272
0
VERTEX
8
CUT
10
154.5803
20
198.8797
0
VERTEX
8
CUT
10
154.4952
20
199.0373
0
VERTEX
8
CUT
10
154.4807
20
199.0659
0
VERTEX
8
CUT
10
154.3583
20
199.3373
0
VERTEX
8
CUT
10
154.3340
20
199.3996
0
VERTEX
8
CUT
10
154.3291
20
199.4140
0
VERTEX
8
CUT
10
154.3263
20
199.4221
0
VERTEX
8
CUT
10
154.3242
20
199.4282
0
VERTEX
8
CUT
10
154.3212
20
199.4370
0
VERTEX
8
CUT
10
154.2395
20
199.7323
0
VERTEX
8
CUT
10
154.1857
20
200.0516
0
VERTEX
8
CUT
10
154.1650
20
200.3747
0
VERTEX
8
CUT
10
154.1789
20
200.7293
0
VERTEX
8
CUT
10
154.1820
20
200.7636
0
VERTEX
8
CUT
10
154.2045
20
200.9554
0
VERTEX
8
CUT
10
154.2141
20
201.0231
0
VERTEX
8
CUT
10
154.2490
20
201.2266
0
VERTEX
8
CUT
10
154.2562
20
201.2627
0
VERTEX
8
CUT
10
154.3509
20
201.6300
0
VERTEX
8
CUT
10
154.4853
20
201.9847
0
VERTEX
8
CUT
10
154.5002
20
202.0183
0
VERTEX
8
CUT
10
154.5891
20
202.2047
0
VERTEX
8
CUT
10
154.6085
20
202.2427
0
VERTEX
8
CUT
10
154.7172
20
202.4404
0
VERTEX
8
CUT
10
154.7376
20
202.4750
0
VERTEX
8
CUT
10
154.9897
20
202.8491
0
VERTEX
8
CUT
10
155.0141
20
202.8810
0
VERTEX
8
CUT
10
155.1565
20
203.0561
0
VERTEX
8
CUT
10
155.3190
20
203.2438
0
VERTEX
8
CUT
10
155.4499
20
203.3875
0
VERTEX
8
CUT
10
155.4740
20
203.4125
0
VERTEX
8
CUT
10
155.7572
20
203.6784
0
VERTEX
8
CUT
10
155.7837
20
203.7008
0
VERTEX
8
CUT
10
155.9354
20
203.8225
0
VERTEX
8
CUT
10
156.3282
20
204.1212
0
VERTEX
8
CUT
10
156.4760
20
204.2280
0
VERTEX
8
CUT
10
156.5028
20
204.2465
0
VERTEX
8
CUT
10
156.8131
20
204.4379
0
VERTEX
8
CUT
10
156.8416
20
204.4536
0
VERTEX
8
CUT
10
157.0034
20
204.5378
0
VERTEX
8
CUT
10
158.0465
20
205.0490
0
VERTEX
8
CUT
10
158.1534
20
205.0993
0
VERTEX
8
CUT
10
158.2182
20
205.1285
0
VERTEX
8
CUT
10
158.5300
20
205.2514
0
VERTEX
8
CUT
10
158.8463
20
205.3406
0
VERTEX
8
CUT
10
159.1983
20
205.4014
0
VERTEX
8
CUT
10
159.2328
20
205.4055
0
VERTEX
8
CUT
10
159.4263
20
205.4236
0
VERTEX
8
CUT
10
161.0139
20
205.5308
0
VERTEX
8
CUT
10
161.2044
20
205.5388
0
VERTEX
8
CUT
10
161.3339
20
205.5410
0
VERTEX
8
CUT
10
161.5245
20
205.5393
0
VERTEX
8
CUT
10
164.9481
20
205.4219
0
VERTEX
8
CUT
10
165.1593
20
205.4087
0
VERTEX
8
CUT
10
165.1969
20
205.4053
0
VERTEX
8
CUT
10
165.5815
20
205.3482
0
VERTEX
8
CUT
10
165.9573
20
205.2482
0
VERTEX
8
CUT
10
165.9932
20
205.2365
0
VERTEX
8
CUT
10
166.1923
20
205.1650
0
VERTEX
8
CUT
10
166.4586
20
205.0608
0
VERTEX
8
CUT
10
166.5874
20
205.0005
0
VERTEX
8
CUT
10
167.8718
20
204.4709
0
VERTEX
8
CUT
10
168.0873
20
204.3740
0
VERTEX
8
CUT
10
168.2315
20
204.3036
0
VERTEX
8
CUT
10
168.4405
20
204.1933
0
VERTEX
8
CUT
10
168.7490
20
204.0178
0
VERTEX
8
CUT
10
170.8731
20
202.6399
0
VERTEX
8
CUT
10
171.0311
20
202.5315
0
VERTEX
8
CUT
10
171.0588
20
202.5115
0
VERTEX
8
CUT
10
171.3570
20
202.2714
0
VERTEX
8
CUT
10
171.3825
20
202.2487
0
VERTEX
8
CUT
10
171.5221
20
202.1175
0
VERTEX
8
CUT
10
173.6014
20
200.0613
0
VERTEX
8
CUT
10
173.7259
20
199.9322
0
VERTEX
8
CUT
10
173.7475
20
199.9086
0
VERTEX
8
CUT
10
173.9772
20
199.6334
0
VERTEX
8
CUT
10
173.9965
20
199.6078
0
VERTEX
8
CUT
10
174.1012
20
199.4622
0
VERTEX
8
CUT
10
175.8751
20
196.8677
0
VERTEX
8
CUT
10
175.9552
20
196.7453
0
VERTEX
8
CUT
10
175.9692
20
196.7232
0
VERTEX
8
CUT
10
176.1149
20
196.4696
0
VERTEX
8
CUT
10
176.1271
20
196.4464
0
VERTEX
8
CUT
10
176.1924
20
196.3155
0
VERTEX
8
CUT
10
176.8160
20
195.0035
0
VERTEX
8
CUT
10
176.8821
20
194.8564
0
VERTEX
8
CUT
10
176.9248
20
194.7554
0
VERTEX
8
CUT
10
176.9845
20
194.6055
0
VERTEX
8
CUT
10
180.0402
20
186.4280
0
VERTEX
8
CUT
10
180.0617
20
186.3690
0
VERTEX
8
CUT
10
180.0759
20
186.3288
0
VERTEX
8
CUT
10
180.0964
20
186.2695
0
VERTEX
8
CUT
10
181.2638
20
182.7950
0
VERTEX
8
CUT
10
181.2915
20
182.7093
0
VERTEX
8
CUT
10
181.3096
20
182.6508
0
VERTEX
8
CUT
10
181.3352
20
182.5644
0
VERTEX
8
CUT
10
181.3715
20
182.4360
0
VERTEX
8
CUT
10
181.4508
20
182.2013
0
VERTEX
8
CUT
10
181.5529
20
181.9756
0
VERTEX
8
CUT
10
181.6769
20
181.7611
0
VERTEX
8
CUT
10
181.8214
20
181.5599
0
VERTEX
8
CUT
10
181.9852
20
181.3740
0
VERTEX
8
CUT
10
182.1665
20
181.2053
0
VERTEX
8
CUT
10
182.3637
20
181.0553
0
VERTEX
8
CUT
10
182.5748
20
180.9255
0
VERTEX
8
CUT
10
182.7976
20
180.8173
0
VERTEX
8
CUT
10
183.0301
20
180.7317
0
VERTEX
8
CUT
10
183.2699
20
180.6695
0
VERTEX
8
CUT
10
183.5147
20
180.6313
0
VERTEX
8
CUT
10
183.7620
20
180.6176
0
VERTEX
8
CUT
10
184.0095
20
180.6284
0
VERTEX
8
CUT
10
184.3937
20
180.6643
0
VERTEX
8
CUT
10
184.7106
20
180.6619
0
VERTEX
8
CUT
10
185.0560
20
180.6243
0
VERTEX
8
CUT
10
185.0893
20
180.6189
0
VERTEX
8
CUT
10
185.2752
20
180.5843
0
VERTEX
8
CUT
10
185.9956
20
180.4313
0
VERTEX
8
CUT
10
186.2419
20
180.3917
0
VERTEX
8
CUT
10
186.4910
20
180.3769
0
VERTEX
8
CUT
10
186.5683
20
180.3800
0
VERTEX
8
CUT
10
186.6601
20
180.3678
0
VERTEX
8
CUT
10
186.9286
20
180.3612
0
VERTEX
8
CUT
10
187.1963
20
180.3834
0
VERTEX
8
CUT
10
187.4707
20
180.4212
0
VERTEX
8
CUT
10
187.7344
20
180.4720
0
VERTEX
8
CUT
10
187.7566
20
180.4789
0
VERTEX
8
CUT
10
187.8253
20
180.4851
0
VERTEX
8
CUT
10
188.0765
20
180.5207
0
VERTEX
8
CUT
10
188.3228
20
180.5817
0
VERTEX
8
CUT
10
188.5616
20
180.6672
0
VERTEX
8
CUT
10
188.7028
20
180.7261
0
VERTEX
8
CUT
10
188.9559
20
180.8486
0
VERTEX
8
CUT
10
189.1936
20
180.9988
0
VERTEX
8
CUT
10
189.4129
20
181.1748
0
VERTEX
8
CUT
10
190.1405
20
181.8292
0
VERTEX
8
CUT
10
190.3075
20
181.9941
0
VERTEX
8
CUT
10
190.4583
20
182.1740
0
VERTEX
8
CUT
10
190.5915
20
182.3673
0
VERTEX
8
CUT
10
190.7060
20
182.5721
0
VERTEX
8
CUT
10
190.7366
20
182.6336
0
VERTEX
8
CUT
10
190.9652
20
183.0327
0
VERTEX
8
CUT
10
191.0961
20
183.2962
0
VERTEX
8
CUT
10
191.1691
20
183.5005
0
VERTEX
8
CUT
10
191.3002
20
183.7632
0
VERTEX
8
CUT
10
191.4184
20
184.0413
0
VERTEX
8
CUT
10
191.5023
20
184.3315
0
VERTEX
8
CUT
10
191.6330
20
184.9134
0
VERTEX
8
CUT
10
191.6773
20
185.1753
0
VERTEX
8
CUT
10
191.6936
20
185.4404
0
VERTEX
8
CUT
10
191.6817
20
185.7057
0
VERTEX
8
CUT
10
191.2862
20
189.7272
0
VERTEX
8
CUT
10
191.2745
20
189.8779
0
VERTEX
8
CUT
10
191.2729
20
189.9050
0
VERTEX
8
CUT
10
191.2676
20
190.2073
0
VERTEX
8
CUT
10
191.2683
20
190.2344
0
VERTEX
8
CUT
10
191.2748
20
190.3855
0
VERTEX
8
CUT
10
191.3445
20
191.4844
0
VERTEX
8
CUT
10
191.3612
20
191.6728
0
VERTEX
8
CUT
10
191.3650
20
191.7063
0
VERTEX
8
CUT
10
191.4218
20
192.0492
0
VERTEX
8
CUT
10
191.5128
20
192.3846
0
VERTEX
8
CUT
10
191.5233
20
192.4167
0
VERTEX
8
CUT
10
191.5865
20
192.5950
0
VERTEX
8
CUT
10
191.7478
20
193.0160
0
VERTEX
8
CUT
10
191.8101
20
193.1684
0
VERTEX
8
CUT
10
191.8219
20
193.1955
0
VERTEX
8
CUT
10
191.8534
20
193.2601
0
VERTEX
8
CUT
10
191.9497
20
193.4847
0
VERTEX
8
CUT
10
192.0235
20
193.7177
0
VERTEX
8
CUT
10
192.0743
20
193.9568
0
VERTEX
8
CUT
10
192.1015
20
194.1998
0
VERTEX
8
CUT
10
192.1048
20
194.4442
0
VERTEX
8
CUT
10
192.0842
20
194.6878
0
VERTEX
8
CUT
10
192.0400
20
194.9282
0
VERTEX
8
CUT
10
191.9725
20
195.1631
0
VERTEX
8
CUT
10
191.8823
20
195.3903
0
VERTEX
8
CUT
10
191.7705
20
195.6076
0
VERTEX
8
CUT
10
191.6379
20
195.8130
0
VERTEX
8
CUT
10
191.4859
20
196.0044
0
VERTEX
8
CUT
10
191.3159
20
196.1801
0
VERTEX
8
CUT
10
191.1296
20
196.3383
0
VERTEX
8
CUT
10
190.9287
20
196.4776
0
VERTEX
8
CUT
10
190.7152
20
196.5966
0
VERTEX
8
CUT
10
190.4911
20
196.6942
0
VERTEX
8
CUT
10
190.3791
20
196.7365
0
VERTEX
8
CUT
10
190.2097
20
196.8077
0
VERTEX
8
CUT
10
189.9640
20
196.9216
0
VERTEX
8
CUT
10
188.6444
20
197.5920
0
VERTEX
8
CUT
10
188.5076
20
197.6651
0
VERTEX
8
CUT
10
188.4834
20
197.6787
0
VERTEX
8
CUT
10
188.2407
20
197.8284
0
VERTEX
8
CUT
10
188.0113
20
197.9977
0
VERTEX
8
CUT
10
187.9896
20
198.0151
0
VERTEX
8
CUT
10
187.8708
20
198.1147
0
VERTEX
8
CUT
10
186.3973
20
199.4024
0
VERTEX
8
CUT
10
186.2599
20
199.5287
0
VERTEX
8
CUT
10
186.2360
20
199.5518
0
VERTEX
8
CUT
10
185.9810
20
199.8239
0
VERTEX
8
CUT
10
185.9594
20
199.8493
0
VERTEX
8
CUT
10
185.8423
20
199.9945
0
VERTEX
8
CUT
10
185.3990
20
200.5734
0
VERTEX
8
CUT
10
185.3026
20
200.7051
0
VERTEX
8
CUT
10
185.2859
20
200.7291
0
VERTEX
8
CUT
10
185.1108
20
201.0044
0
VERTEX
8
CUT
10
185.0962
20
201.0297
0
VERTEX
8
CUT
10
185.0178
20
201.1728
0
VERTEX
8
CUT
10
183.8015
20
203.5121
0
VERTEX
8
CUT
10
183.7345
20
203.6477
0
VERTEX
8
CUT
10
183.7229
20
203.6722
0
VERTEX
8
CUT
10
183.6055
20
203.9509
0
VERTEX
8
CUT
10
183.5960
20
203.9763
0
VERTEX
8
CUT
10
183.5458
20
204.1190
0
VERTEX
8
CUT
10
181.4710
20
210.4200
0
VERTEX
8
CUT
10
181.3497
20
210.7208
0
VERTEX
8
CUT
10
180.3926
20
212.7127
0
VERTEX
8
CUT
10
180.2988
20
212.8895
0
VERTEX
8
CUT
10
180.1912
20
213.0582
0
VERTEX
8
CUT
10
178.7880
20
215.0741
0
VERTEX
8
CUT
10
178.6198
20
215.2896
0
VERTEX
8
CUT
10
174.2405
20
220.3083
0
VERTEX
8
CUT
10
174.1280
20
220.4435
0
VERTEX
8
CUT
10
174.0537
20
220.5372
0
VERTEX
8
CUT
10
173.9477
20
220.6775
0
VERTEX
8
CUT
10
173.3380
20
221.5249
0
VERTEX
8
CUT
10
173.2096
20
221.7155
0
VERTEX
8
CUT
10
173.1264
20
221.8475
0
VERTEX
8
CUT
10
173.0099
20
222.0456
0
VERTEX
8
CUT
10
172.6437
20
222.7142
0
VERTEX
8
CUT
10
172.5584
20
222.8794
0
VERTEX
8
CUT
10
172.5440
20
222.9093
0
VERTEX
8
CUT
10
172.4103
20
223.2239
0
VERTEX
8
CUT
10
172.3173
20
223.5216
0
VERTEX
8
CUT
10
172.2543
20
223.8269
0
VERTEX
8
CUT
10
172.2219
20
224.1371
0
VERTEX
8
CUT
10
172.2203
20
224.4489
0
VERTEX
8
CUT
10
172.2496
20
224.7593
0
VERTEX
8
CUT
10
172.3095
20
225.0653
0
VERTEX
8
CUT
10
172.3995
20
225.3639
0
VERTEX
8
CUT
10
172.5185
20
225.6521
0
VERTEX
8
CUT
10
172.6655
20
225.9271
0
VERTEX
8
CUT
10
172.8391
20
226.1862
0
VERTEX
8
CUT
10
173.0374
20
226.4268
0
VERTEX
8
CUT
10
173.2586
20
226.6466
0
VERTEX
8
CUT
10
173.5005
20
226.8434
0
VERTEX
8
CUT
10
173.7606
20
227.0153
0
VERTEX
8
CUT
10
174.0365
20
227.1606
0
VERTEX
8
CUT
10
174.3255
20
227.2778
0
VERTEX
8
CUT
10
174.6246
20
227.3658
0
VERTEX
8
CUT
10
174.9310
20
227.4238
0
VERTEX
8
CUT
10
175.2416
20
227.4512
0
VERTEX
8
CUT
10
175.5534
20
227.4476
0
VERTEX
8
CUT
10
175.8633
20
227.4132
0
VERTEX
8
CUT
10
176.1683
20
227.3483
0
VERTEX
8
CUT
10
176.4654
20
227.2535
0
VERTEX
8
CUT
10
176.7516
20
227.1297
0
VERTEX
8
CUT
10
177.0241
20
226.9782
0
VERTEX
8
CUT
10
177.2803
20
226.8004
0
VERTEX
8
CUT
10
177.5177
20
226.5982
0
VERTEX
8
CUT
10
177.7546
20
226.3518
0
VERTEX
8
CUT
10
177.7823
20
226.3199
0
VERTEX
8
CUT
10
177.8346
20
226.2575
0
VERTEX
8
CUT
10
178.0692
20
226.0132
0
VERTEX
8
CUT
10
179.2568
20
224.9336
0
VERTEX
8
CUT
10
179.4349
20
224.7861
0
VERTEX
8
CUT
10
179.6259
20
224.6557
0
VERTEX
8
CUT
10
180.0378
20
224.4016
0
VERTEX
8
CUT
10
180.2795
20
224.2703
0
VERTEX
8
CUT
10
180.5342
20
224.1663
0
VERTEX
8
CUT
10
181.3962
20
223.8686
0
VERTEX
8
CUT
10
181.6695
20
223.7913
0
VERTEX
8
CUT
10
181.9498
20
223.7454
0
VERTEX
8
CUT
10
182.2335
20
223.7317
0
VERTEX
8
CUT
10
182.8508
20
223.7369
0
VERTEX
8
CUT
10
183.0890
20
223.7503
0
VERTEX
8
CUT
10
183.3248
20
223.7864
0
VERTEX
8
CUT
10
183.4853
20
223.8269
0
VERTEX
8
CUT
10
183.5123
20
223.8316
0
VERTEX
8
CUT
10
183.7547
20
223.8996
0
VERTEX
8
CUT
10
184.1684
20
224.0385
0
VERTEX
8
CUT
10
184.3909
20
224.1252
0
VERTEX
8
CUT
10
184.6042
20
224.2328
0
VERTEX
8
CUT
10
184.8062
20
224.3602
0
VERTEX
8
CUT
10
184.9951
20
224.5063
0
VERTEX
8
CUT
10
185.1692
20
224.6698
0
VERTEX
8
CUT
10
185.2301
20
224.7391
0
VERTEX
8
CUT
10
185.5651
20
225.0729
0
VERTEX
8
CUT
10
185.7151
20
225.2363
0
VERTEX
8
CUT
10
185.8501
20
225.4124
0
VERTEX
8
CUT
10
185.9689
20
225.5998
0
VERTEX
8
CUT
10
186.0706
20
225.7969
0
VERTEX
8
CUT
10
186.1545
20
226.0023
0
VERTEX
8
CUT
10
186.4320
20
226.7787
0
VERTEX
8
CUT
10
186.5099
20
227.0413
0
VERTEX
8
CUT
10
186.5586
20
227.3108
0
VERTEX
8
CUT
10
186.5775
20
227.5840
0
VERTEX
8
CUT
10
186.5971
20
228.9428
0
VERTEX
8
CUT
10
186.5912
20
229.1541
0
VERTEX
8
CUT
10
186.5675
20
229.3642
0
VERTEX
8
CUT
10
186.5261
20
229.5715
0
VERTEX
8
CUT
10
185.6376
20
233.2130
0
VERTEX
8
CUT
10
185.6022
20
233.3734
0
VERTEX
8
CUT
10
185.5965
20
233.4022
0
VERTEX
8
CUT
10
185.5468
20
233.7268
0
VERTEX
8
CUT
10
185.5437
20
233.7560
0
VERTEX
8
CUT
10
185.5296
20
233.9196
0
VERTEX
8
CUT
10
185.4599
20
235.0043
0
VERTEX
8
CUT
10
185.4525
20
235.1945
0
VERTEX
8
CUT
10
185.4521
20
235.2285
0
VERTEX
8
CUT
10
185.4652
20
235.5780
0
VERTEX
8
CUT
10
185.5094
20
235.8941
0
VERTEX
8
CUT
10
185.5854
20
236.2040
0
VERTEX
8
CUT
10
185.6924
20
236.5046
0
VERTEX
8
CUT
10
185.8293
20
236.7929
0
VERTEX
8
CUT
10
185.9948
20
237.0658
0
VERTEX
8
CUT
10
186.1870
20
237.3205
0
VERTEX
8
CUT
10
186.4250
20
237.5769
0
VERTEX
8
CUT
10
186.4494
20
237.6006
0
VERTEX
8
CUT
10
186.5891
20
237.7298
0
VERTEX
8
CUT
10
186.7783
20
237.8962
0
VERTEX
8
CUT
10
186.9298
20
238.0225
0
VERTEX
8
CUT
10
186.9575
20
238.0443
0
VERTEX
8
CUT
10
187.2534
20
238.2537
0
VERTEX
8
CUT
10
187.5523
20
238.4212
0
VERTEX
8
CUT
10
187.8250
20
238.5401
0
VERTEX
8
CUT
10
188.0659
20
238.6206
0
VERTEX
8
CUT
10
188.3099
20
238.6799
0
VERTEX
8
CUT
10
188.6030
20
238.7243
0
VERTEX
8
CUT
10
188.9477
20
238.7419
0
VERTEX
8
CUT
10
189.2742
20
238.7244
0
VERTEX
8
CUT
10
189.5982
20
238.6727
0
VERTEX
8
CUT
10
189.9150
20
238.5875
0
VERTEX
8
CUT
10
190.2508
20
238.4585
0
VERTEX
8
CUT
10
190.2827
20
238.4443
0
VERTEX
8
CUT
10
190.4593
20
238.3600
0
VERTEX
8
CUT
10
191.4978
20
237.8308
0
VERTEX
8
CUT
10
191.6476
20
237.7501
0
VERTEX
8
CUT
10
191.7234
20
237.7070
0
VERTEX
8
CUT
10
191.7245
20
237.7089
0
VERTEX
8
CUT
10
191.8558
20
237.6350
0
VERTEX
8
CUT
10
192.0814
20
237.5358
0
VERTEX
8
CUT
10
192.3157
20
237.4593
0
VERTEX
8
CUT
10
192.5564
20
237.4062
0
VERTEX
8
CUT
10
192.8012
20
237.3772
0
VERTEX
8
CUT
10
193.0476
20
237.3723
0
VERTEX
8
CUT
10
193.2933
20
237.3918
0
VERTEX
8
CUT
10
193.5359
20
237.4353
0
VERTEX
8
CUT
10
193.7730
20
237.5026
0
VERTEX
8
CUT
10
194.0024
20
237.5928
0
VERTEX
8
CUT
10
194.2217
20
237.7052
0
VERTEX
8
CUT
10
194.4290
20
237.8387
0
VERTEX
8
CUT
10
194.6220
20
237.9919
0
VERTEX
8
CUT
10
194.7991
20
238.1633
0
VERTEX
8
CUT
10
194.9584
20
238.3514
0
VERTEX
8
CUT
10
195.0984
20
238.5543
0
VERTEX
8
CUT
10
195.2177
20
238.7699
0
VERTEX
8
CUT
10
195.3153
20
238.9963
0
VERTEX
8
CUT
10
195.3901
20
239.2311
0
VERTEX
8
CUT
10
195.4413
20
239.4722
0
VERTEX
8
CUT
10
195.4686
20
239.7172
0
VERTEX
8
CUT
10
195.4717
20
239.9636
0
VERTEX
8
CUT
10
195.4504
20
240.2092
0
VERTEX
8
CUT
10
195.4051
20
240.4515
0
VERTEX
8
CUT
10
195.3362
20
240.6881
0
VERTEX
8
CUT
10
195.2443
20
240.9168
0
VERTEX
8
CUT
10
195.1303
20
241.1353
0
VERTEX
8
CUT
10
194.9953
20
241.3416
0
VERTEX
8
CUT
10
194.8407
20
241.5335
0
VERTEX
8
CUT
10
194.7770
20
241.6051
0
VERTEX
8
CUT
10
194.6494
20
241.7563
0
VERTEX
8
CUT
10
194.6273
20
241.7838
0
VERTEX
8
CUT
10
194.4156
20
242.0793
0
VERTEX
8
CUT
10
194.2519
20
242.3677
0
VERTEX
8
CUT
10
194.1067
20
242.7009
0
VERTEX
8
CUT
10
194.0943
20
242.7340
0
VERTEX
8
CUT
10
194.0299
20
242.9210
0
VERTEX
8
CUT
10
193.9048
20
243.3179
0
VERTEX
8
CUT
10
193.8489
20
243.5136
0
VERTEX
8
CUT
10
193.8399
20
243.5488
0
VERTEX
8
CUT
10
193.7604
20
243.9477
0
VERTEX
8
CUT
10
193.7552
20
243.9837
0
VERTEX
8
CUT
10
193.7318
20
244.1858
0
VERTEX
8
CUT
10
193.2041
20
250.1554
0
VERTEX
8
CUT
10
193.1491
20
250.5005
0
VERTEX
8
CUT
10
192.6676
20
252.5749
0
VERTEX
8
CUT
10
192.6098
20
252.7830
0
VERTEX
8
CUT
10
192.5342
20
252.9852
0
VERTEX
8
CUT
10
192.4414
20
253.1802
0
VERTEX
8
CUT
10
191.7192
20
254.5432
0
VERTEX
8
CUT
10
191.6127
20
254.7253
0
VERTEX
8
CUT
10
191.4911
20
254.8978
0
VERTEX
8
CUT
10
191.3555
20
255.0594
0
VERTEX
8
CUT
10
191.2324
20
255.1941
0
VERTEX
8
CUT
10
191.0547
20
255.3700
0
VERTEX
8
CUT
10
190.8604
20
255.5272
0
VERTEX
8
CUT
10
190.6513
20
255.6642
0
VERTEX
8
CUT
10
190.4297
20
255.7797
0
VERTEX
8
CUT
10
190.1976
20
255.8724
0
VERTEX
8
CUT
10
189.9573
20
255.9415
0
VERTEX
8
CUT
10
189.7114
20
255.9863
0
VERTEX
8
CUT
10
189.4623
20
256.0063
0
VERTEX
8
CUT
10
189.2124
20
256.0014
0
VERTEX
8
CUT
10
188.9642
20
255.9714
0
VERTEX
8
CUT
10
188.7203
20
255.9169
0
VERTEX
8
CUT
10
188.4830
20
255.8383
0
VERTEX
8
CUT
10
188.2548
20
255.7364
0
VERTEX
8
CUT
10
188.0379
20
255.6122
0
VERTEX
8
CUT
10
187.8345
20
255.4669
0
VERTEX
8
CUT
10
187.6466
20
255.3021
0
VERTEX
8
CUT
10
187.4761
20
255.1193
0
VERTEX
8
CUT
10
187.3246
20
254.9205
0
VERTEX
8
CUT
10
187.1939
20
254.7075
0
VERTEX
8
CUT
10
185.7198
20
252.0134
0
VERTEX
8
CUT
10
185.6327
20
251.8382
0
VERTEX
8
CUT
10
185.5595
20
251.6567
0
VERTEX
8
CUT
10
184.1916
20
247.8390
0
VERTEX
8
CUT
10
184.1345
20
247.6898
0
VERTEX
8
CUT
10
184.1237
20
247.6632
0
VERTEX
8
CUT
10
183.9903
20
247.3720
0
VERTEX
8
CUT
10
183.9773
20
247.3465
0
VERTEX
8
CUT
10
183.9014
20
247.2054
0
VERTEX
8
CUT
10
183.1673
20
245.9077
0
VERTEX
8
CUT
10
183.0868
20
245.7722
0
VERTEX
8
CUT
10
183.0719
20
245.7482
0
VERTEX
8
CUT
10
182.9085
20
245.5089
0
VERTEX
8
CUT
10
182.7256
20
245.2841
0
VERTEX
8
CUT
10
182.7069
20
245.2630
0
VERTEX
8
CUT
10
182.5999
20
245.1472
0
VERTEX
8
CUT
10
181.6369
20
244.1483
0
VERTEX
8
CUT
10
181.4982
20
244.0117
0
VERTEX
8
CUT
10
181.4729
20
243.9880
0
VERTEX
8
CUT
10
181.1993
20
243.7577
0
VERTEX
8
CUT
10
180.9034
20
243.5569
0
VERTEX
8
CUT
10
180.8737
20
243.5389
0
VERTEX
8
CUT
10
180.7047
20
243.4425
0
VERTEX
8
CUT
10
179.9017
20
243.0119
0
VERTEX
8
CUT
10
179.7343
20
242.9274
0
VERTEX
8
CUT
10
179.7040
20
242.9131
0
VERTEX
8
CUT
10
179.3856
20
242.7813
0
VERTEX
8
CUT
10
179.0845
20
242.6907
0
VERTEX
8
CUT
10
178.7759
20
242.6307
0
VERTEX
8
CUT
10
178.4629
20
242.6017
0
VERTEX
8
CUT
10
178.1485
20
242.6042
0
VERTEX
8
CUT
10
177.8359
20
242.6380
0
VERTEX
8
CUT
10
177.5283
20
242.7029
0
VERTEX
8
CUT
10
177.1403
20
242.8262
0
VERTEX
8
CUT
10
177.1397
20
242.8244
0
VERTEX
8
CUT
10
177.0107
20
242.8657
0
VERTEX
8
CUT
10
176.7760
20
242.9167
0
VERTEX
8
CUT
10
176.5375
20
242.9448
0
VERTEX
8
CUT
10
176.2973
20
242.9500
0
VERTEX
8
CUT
10
176.0578
20
242.9321
0
VERTEX
8
CUT
10
175.8211
20
242.8913
0
VERTEX
8
CUT
10
175.5895
20
242.8280
0
VERTEX
8
CUT
10
175.3649
20
242.7427
0
VERTEX
8
CUT
10
175.1496
20
242.6363
0
VERTEX
8
CUT
10
174.9455
20
242.5097
0
VERTEX
8
CUT
10
174.7545
20
242.3641
0
VERTEX
8
CUT
10
174.5783
20
242.2009
0
VERTEX
8
CUT
10
174.4186
20
242.0214
0
VERTEX
8
CUT
10
174.2769
20
241.8275
0
VERTEX
8
CUT
10
174.1544
20
241.6209
0
VERTEX
8
CUT
10
174.0523
20
241.4035
0
VERTEX
8
CUT
10
173.9716
20
241.1773
0
VERTEX
8
CUT
10
173.9129
20
240.9444
0
VERTEX
8
CUT
10
173.8769
20
240.7070
0
VERTEX
8
CUT
10
173.8638
20
240.4672
0
VERTEX
8
CUT
10
173.8737
20
240.2272
0
VERTEX
8
CUT
10
173.9067
20
239.9893
0
VERTEX
8
CUT
10
173.9985
20
239.5008
0
VERTEX
8
CUT
10
174.0280
20
239.3194
0
VERTEX
8
CUT
10
174.0324
20
239.2869
0
VERTEX
8
CUT
10
174.0620
20
238.9503
0
VERTEX
8
CUT
10
174.0588
20
238.6421
0
VERTEX
8
CUT
10
174.0255
20
238.3358
0
VERTEX
8
CUT
10
173.9623
20
238.0341
0
VERTEX
8
CUT
10
173.8699
20
237.7401
0
VERTEX
8
CUT
10
173.7491
20
237.4565
0
VERTEX
8
CUT
10
173.6012
20
237.1861
0
VERTEX
8
CUT
10
173.4275
20
236.9315
0
VERTEX
8
CUT
10
173.2298
20
236.6951
0
VERTEX
8
CUT
10
173.0098
20
236.4792
0
VERTEX
8
CUT
10
172.7698
20
236.2859
0
VERTEX
8
CUT
10
172.5120
20
236.1170
0
VERTEX
8
CUT
10
172.2389
20
235.9742
0
VERTEX
8
CUT
10
171.9531
20
235.8587
0
VERTEX
8
CUT
10
171.6574
20
235.7718
0
VERTEX
8
CUT
10
171.3546
20
235.7143
0
VERTEX
8
CUT
10
171.0477
20
235.6867
0
VERTEX
8
CUT
10
170.7395
20
235.6892
0
VERTEX
8
CUT
10
170.4330
20
235.7219
0
VERTEX
8
CUT
10
170.1312
20
235.7845
0
VERTEX
8
CUT
10
169.8370
20
235.8763
0
VERTEX
8
CUT
10
169.5532
20
235.9964
0
VERTEX
8
CUT
10
169.2825
20
236.1438
0
VERTEX
8
CUT
10
169.0275
20
236.3169
0
VERTEX
8
CUT
10
168.7907
20
236.5142
0
VERTEX
8
CUT
10
168.5744
20
236.7337
0
VERTEX
8
CUT
10
168.3806
20
236.9734
0
VERTEX
8
CUT
10
168.1948
20
237.2555
0
VERTEX
8
CUT
10
168.1782
20
237.2838
0
VERTEX
8
CUT
10
168.0887
20
237.4444
0
VERTEX
8
CUT
10
167.0244
20
239.4688
0
VERTEX
8
CUT
10
166.8394
20
239.7676
0
VERTEX
8
CUT
10
166.1341
20
240.7458
0
VERTEX
8
CUT
10
165.9238
20
241.0003
0
VERTEX
8
CUT
10
164.2154
20
242.8092
0
VERTEX
8
CUT
10
164.0148
20
242.9994
0
VERTEX
8
CUT
10
162.6800
20
244.1313
0
VERTEX
8
CUT
10
162.4873
20
244.2792
0
VERTEX
8
CUT
10
158.8761
20
246.7827
0
VERTEX
8
CUT
10
158.6727
20
246.9341
0
VERTEX
8
CUT
10
158.5381
20
247.0415
0
VERTEX
8
CUT
10
158.3454
20
247.2064
0
VERTEX
8
CUT
10
157.7617
20
247.7410
0
VERTEX
8
CUT
10
157.6477
20
247.8499
0
VERTEX
8
CUT
10
157.6277
20
247.8698
0
VERTEX
8
CUT
10
157.4139
20
248.1016
0
VERTEX
8
CUT
10
157.3956
20
248.1231
0
VERTEX
8
CUT
10
157.2962
20
248.2455
0
VERTEX
8
CUT
10
156.0759
20
249.8144
0
VERTEX
8
CUT
10
155.9780
20
249.9462
0
VERTEX
8
CUT
10
155.9610
20
249.9701
0
VERTEX
8
CUT
10
155.7829
20
250.2458
0
VERTEX
8
CUT
10
155.7681
20
250.2712
0
VERTEX
8
CUT
10
155.6883
20
250.4146
0
VERTEX
8
CUT
10
155.3669
20
251.0230
0
VERTEX
8
CUT
10
155.2991
20
251.1580
0
VERTEX
8
CUT
10
155.2874
20
251.1824
0
VERTEX
8
CUT
10
155.1682
20
251.4601
0
VERTEX
8
CUT
10
155.1586
20
251.4854
0
VERTEX
8
CUT
10
155.1075
20
251.6277
0
VERTEX
8
CUT
10
153.7832
20
255.5618
0
VERTEX
8
CUT
10
153.6607
20
255.8603
0
VERTEX
8
CUT
10
152.8798
20
257.4612
0
VERTEX
8
CUT
10
152.7480
20
257.6979
0
VERTEX
8
CUT
10
152.5914
20
257.9189
0
VERTEX
8
CUT
10
152.4381
20
258.1122
0
VERTEX
8
CUT
10
152.2505
20
258.3230
0
VERTEX
8
CUT
10
152.0403
20
258.5113
0
VERTEX
8
CUT
10
151.1448
20
259.2270
0
VERTEX
8
CUT
10
150.9864
20
259.3437
0
VERTEX
8
CUT
10
150.8193
20
259.4476
0
VERTEX
8
CUT
10
150.5046
20
259.6264
0
VERTEX
8
CUT
10
150.2540
20
259.7508
0
VERTEX
8
CUT
10
149.9909
20
259.8465
0
VERTEX
8
CUT
10
149.1315
20
260.1055
0
VERTEX
8
CUT
10
148.8746
20
260.1684
0
VERTEX
8
CUT
10
148.6124
20
260.2037
0
VERTEX
8
CUT
10
148.3480
20
260.2112
0
VERTEX
8
CUT
10
147.8683
20
260.1993
0
VERTEX
8
CUT
10
147.6028
20
260.1785
0
VERTEX
8
CUT
10
147.3410
20
260.1296
0
VERTEX
8
CUT
10
147.0858
20
260.0531
0
VERTEX
8
CUT
10
146.8403
20
259.9499
0
VERTEX
8
CUT
10
145.7028
20
259.3989
0
VERTEX
8
CUT
10
145.5068
20
259.2929
0
VERTEX
8
CUT
10
145.3211
20
259.1699
0
VERTEX
8
CUT
10
145.1470
20
259.0309
0
VERTEX
8
CUT
10
144.9861
20
258.8769
0
VERTEX
8
CUT
10
144.0149
20
257.8616
0
VERTEX
8
CUT
10
143.8607
20
257.6843
0
VERTEX
8
CUT
10
143.7237
20
257.4934
0
VERTEX
8
CUT
10
143.6053
20
257.2904
0
VERTEX
8
CUT
10
143.5065
20
257.0773
0
VERTEX
8
CUT
10
143.3223
20
256.6253
0
VERTEX
8
CUT
10
143.2405
20
256.3922
0
VERTEX
8
CUT
10
143.1820
20
256.1521
0
VERTEX
8
CUT
10
143.1476
20
255.9074
0
VERTEX
8
CUT
10
143.0737
20
255.0935
0
VERTEX
8
CUT
10
143.0640
20
254.8214
0
VERTEX
8
CUT
10
143.0838
20
254.5499
0
VERTEX
8
CUT
10
143.3575
20
252.4142
0
VERTEX
8
CUT
10
143.3965
20
252.1907
0
VERTEX
8
CUT
10
143.4557
20
251.9717
0
VERTEX
8
CUT
10
145.3084
20
246.1680
0
VERTEX
8
CUT
10
145.3492
20
246.0312
0
VERTEX
8
CUT
10
145.3561
20
246.0066
0
VERTEX
8
CUT
10
145.4219
20
245.7289
0
VERTEX
8
CUT
10
145.4269
20
245.7038
0
VERTEX
8
CUT
10
145.4518
20
245.5632
0
VERTEX
8
CUT
10
145.8528
20
243.0262
0
VERTEX
8
CUT
10
145.8761
20
242.8522
0
VERTEX
8
CUT
10
145.8796
20
242.8210
0
VERTEX
8
CUT
10
145.9017
20
242.4707
0
VERTEX
8
CUT
10
145.9022
20
242.4394
0
VERTEX
8
CUT
10
145.9009
20
242.2638
0
VERTEX
8
CUT
10
145.7820
20
238.3716
0
VERTEX
8
CUT
10
145.7682
20
238.1445
0
VERTEX
8
CUT
10
145.7645
20
238.1042
0
VERTEX
8
CUT
10
145.6957
20
237.6547
0
VERTEX
8
CUT
10
145.6871
20
237.6151
0
VERTEX
8
CUT
10
145.6324
20
237.3943
0
VERTEX
8
CUT
10
145.0576
20
235.3437
0
VERTEX
8
CUT
10
145.0022
20
235.1635
0
VERTEX
8
CUT
10
144.9915
20
235.1316
0
VERTEX
8
CUT
10
144.8538
20
234.7808
0
VERTEX
8
CUT
10
144.8400
20
234.7501
0
VERTEX
8
CUT
10
144.7581
20
234.5803
0
VERTEX
8
CUT
10
143.2922
20
231.7257
0
VERTEX
8
CUT
10
143.2136
20
231.5807
0
VERTEX
8
CUT
10
143.1990
20
231.5550
0
VERTEX
8
CUT
10
143.0232
20
231.2761
0
VERTEX
8
CUT
10
143.0064
20
231.2518
0
VERTEX
8
CUT
10
142.9094
20
231.1184
0
VERTEX
8
CUT
10
140.8985
20
228.4752
0
VERTEX
8
CUT
10
140.7977
20
228.3484
0
VERTEX
8
CUT
10
140.7791
20
228.3261
0
VERTEX
8
CUT
10
140.5615
20
228.0862
0
VERTEX
8
CUT
10
140.5411
20
228.0656
0
VERTEX
8
CUT
10
140.4247
20
227.9529
0
VERTEX
8
CUT
10
140.2423
20
227.7838
0
VERTEX
8
CUT
10
140.1042
20
227.6619
0
VERTEX
8
CUT
10
140.0790
20
227.6407
0
VERTEX
8
CUT
10
139.8094
20
227.4360
0
VERTEX
8
CUT
10
139.5462
20
227.2743
0
VERTEX
8
CUT
10
139.2685
20
227.1392
0
VERTEX
8
CUT
10
138.9789
20
227.0319
0
VERTEX
8
CUT
10
138.6801
20
226.9536
0
VERTEX
8
CUT
10
138.3751
20
226.9050
0
VERTEX
8
CUT
10
138.0668
20
226.8865
0
VERTEX
8
CUT
10
137.8946
20
226.8931
0
VERTEX
8
CUT
10
137.6522
20
226.8907
0
VERTEX
8
CUT
10
137.4112
20
226.8648
0
VERTEX
8
CUT
10
137.1739
20
226.8157
0
VERTEX
8
CUT
10
136.9424
20
226.7438
0
VERTEX
8
CUT
10
136.7190
20
226.6498
0
VERTEX
8
CUT
10
136.5057
20
226.5347
0
VERTEX
8
CUT
10
136.3045
20
226.3994
0
VERTEX
8
CUT
10
136.1175
20
226.2453
0
VERTEX
8
CUT
10
135.9462
20
226.0738
0
VERTEX
8
CUT
10
135.7923
20
225.8865
0
VERTEX
8
CUT
10
135.6573
20
225.6852
0
VERTEX
8
CUT
10
135.5424
20
225.4717
0
VERTEX
8
CUT
10
135.4488
20
225.2482
0
VERTEX
8
CUT
10
135.3772
20
225.0166
0
VERTEX
8
CUT
10
135.3284
20
224.7792
0
VERTEX
8
CUT
10
135.3032
20
224.6176
0
VERTEX
8
CUT
10
135.2265
20
224.3198
0
VERTEX
8
CUT
10
135.1211
20
224.0310
0
VERTEX
8
CUT
10
134.9880
20
223.7539
0
VERTEX
8
CUT
10
134.8285
20
223.4910
0
VERTEX
8
CUT
10
134.6441
20
223.2450
0
VERTEX
8
CUT
10
134.4365
20
223.0182
0
VERTEX
8
CUT
10
134.1858
20
222.7930
0
VERTEX
8
CUT
10
134.1604
20
222.7723
0
VERTEX
8
CUT
10
134.0153
20
222.6601
0
VERTEX
8
CUT
10
128.7469
20
218.7861
0
VERTEX
8
CUT
10
128.5785
20
218.6507
0
VERTEX
8
CUT
10
128.4225
20
218.5013
0
VERTEX
8
CUT
10
125.4849
20
215.4345
0
VERTEX
8
CUT
10
125.3468
20
215.2777
0
VERTEX
8
CUT
10
125.2223
20
215.1099
0
VERTEX
8
CUT
10
124.2257
20
213.6427
0
VERTEX
8
CUT
10
124.0646
20
213.3698
0
VERTEX
8
CUT
10
123.2055
20
211.6779
0
VERTEX
8
CUT
10
123.0893
20
211.4118
0
VERTEX
8
CUT
10
122.4089
20
209.5684
0
VERTEX
8
CUT
10
122.3347
20
209.3320
0
VERTEX
8
CUT
10
120.0117
20
200.4027
0
VERTEX
8
CUT
10
119.9590
20
200.2194
0
VERTEX
8
CUT
10
119.9488
20
200.1869
0
VERTEX
8
CUT
10
119.8158
20
199.8296
0
VERTEX
8
CUT
10
119.8024
20
199.7983
0
VERTEX
8
CUT
10
119.7224
20
199.6252
0
VERTEX
8
CUT
10
118.9638
20
198.0861
0
VERTEX
8
CUT
10
118.8686
20
197.8671
0
VERTEX
8
CUT
10
118.7947
20
197.6400
0
VERTEX
8
CUT
10
118.7428
20
197.4069
0
VERTEX
8
CUT
10
118.7133
20
197.1699
0
VERTEX
8
CUT
10
118.7067
20
196.9312
0
VERTEX
8
CUT
10
118.7228
20
196.6929
0
VERTEX
8
CUT
10
118.7616
20
196.4573
0
VERTEX
8
CUT
10
118.8227
20
196.2264
0
VERTEX
8
CUT
10
118.9056
20
196.0024
0
VERTEX
8
CUT
10
118.9736
20
195.8616
0
VERTEX
8
CUT
10
118.9727
20
195.8612
0
VERTEX
8
CUT
10
118.9736
20
195.8593
0
VERTEX
8
CUT
10
119.1045
20
195.5498
0
SEQEND
0
POLYLINE
8
CUT
66
1
70
1
10
0.0
20
0.0
30
0.0
0
VERTEX
8
CUT
10
168.6211
20
143.7085
0
VERTEX
8
CUT
10
168.3789
20
143.7532
0
VERTEX
8
CUT
10
168.1334
20
143.7737
0
VERTEX
8
CUT
10
167.8871
20
143.7701
0
VERTEX
8
CUT
10
167.6424
20
143.7422
0
VERTEX
8
CUT
10
167.4016
20
143.6904
0
VERTEX
8
CUT
10
167.1670
20
143.6151
0
VERTEX
8
CUT
10
166.9410
20
143.5171
0
VERTEX
8
CUT
10
166.7258
20
143.3973
0
VERTEX
8
CUT
10
166.5234
20
143.2570
0
VERTEX
8
CUT
10
166.3357
20
143.0974
0
VERTEX
8
CUT
10
166.1647
20
142.9201
0
VERTEX
8
CUT
10
166.0120
20
142.7268
0
VERTEX
8
CUT
10
165.8790
20
142.5195
0
VERTEX
8
CUT
10
165.7671
20
142.3000
0
VERTEX
8
CUT
10
165.6773
20
142.0706
0
VERTEX
8
CUT
10
165.6105
20
141.8335
0
VERTEX
8
CUT
10
165.5674
20
141.5910
0
VERTEX
8
CUT
10
165.5484
20
141.3454
0
VERTEX
8
CUT
10
165.5536
20
141.0992
0
VERTEX
8
CUT
10
165.5830
20
140.8546
0
VERTEX
8
CUT
10
165.6364
20
140.6141
0
VERTEX
8
CUT
10
165.7132
20
140.3801
0
VERTEX
8
CUT
10
166.8788
20
137.3405
0
VERTEX
8
CUT
10
167.0221
20
137.0316
0
VERTEX
8
CUT
10
167.9595
20
135.3260
0
VERTEX
8
CUT
10
168.1119
20
135.0828
0
VERTEX
8
CUT
10
169.1201
20
133.6628
0
VERTEX
8
CUT
10
169.3499
20
133.3843
0
VERTEX
8
CUT
10
170.3908
20
132.2934
0
VERTEX
8
CUT
10
170.5316
20
132.1570
0
VERTEX
8
CUT
10
170.6826
20
132.0321
0
VERTEX
8
CUT
10
171.7929
20
131.1845
0
VERTEX
8
CUT
10
171.9713
20
131.0602
0
VERTEX
8
CUT
10
172.1599
20
130.9519
0
VERTEX
8
CUT
10
173.2534
20
130.3854
0
VERTEX
8
CUT
10
173.4905
20
130.2779
0
VERTEX
8
CUT
10
173.7375
20
130.1956
0
VERTEX
8
CUT
10
174.9099
20
129.8716
0
VERTEX
8
CUT
10
175.1178
20
129.8236
0
VERTEX
8
CUT
10
175.3290
20
129.7935
0
VERTEX
8
CUT
10
176.5756
20
129.6699
0
VERTEX
8
CUT
10
176.8259
20
129.6577
0
VERTEX
8
CUT
10
177.0761
20
129.6706
0
VERTEX
8
CUT
10
179.7911
20
129.9476
0
VERTEX
8
CUT
10
179.8288
20
129.9518
0
VERTEX
8
CUT
10
179.8357
20
129.9526
0
VERTEX
8
CUT
10
179.9937
20
129.9763
0
VERTEX
8
CUT
10
181.3792
20
130.2296
0
VERTEX
8
CUT
10
181.6148
20
130.2845
0
VERTEX
8
CUT
10
181.8440
20
130.3620
0
VERTEX
8
CUT
10
182.0647
20
130.4613
0
VERTEX
8
CUT
10
182.2747
20
130.5815
0
VERTEX
8
CUT
10
182.4721
20
130.7214
0
VERTEX
8
CUT
10
182.6551
20
130.8797
0
VERTEX
8
CUT
10
182.8219
20
131.0550
0
VERTEX
8
CUT
10
182.9710
20
131.2455
0
VERTEX
8
CUT
10
183.1009
20
131.4496
0
VERTEX
8
CUT
10
183.2105
20
131.6653
0
VERTEX
8
CUT
10
183.2988
20
131.8906
0
VERTEX
8
CUT
10
183.3649
20
132.1234
0
VERTEX
8
CUT
10
183.4081
20
132.3614
0
VERTEX
8
CUT
10
183.4281
20
132.6026
0
VERTEX
8
CUT
10
183.4248
20
132.8445
0
VERTEX
8
CUT
10
183.3980
20
133.0850
0
VERTEX
8
CUT
10
183.3482
20
133.3217
0
VERTEX
8
CUT
10
183.2757
20
133.5526
0
VERTEX
8
CUT
10
183.1812
20
133.7753
0
VERTEX
8
CUT
10
181.5698
20
137.1145
0
VERTEX
8
CUT
10
181.4691
20
137.3024
0
VERTEX
8
CUT
10
181.3527
20
137.4810
0
VERTEX
8
CUT
10
181.2215
20
137.6491
0
VERTEX
8
CUT
10
180.2179
20
138.8273
0
VERTEX
8
CUT
10
180.0208
20
139.0335
0
VERTEX
8
CUT
10
179.8016
20
139.2160
0
VERTEX
8
CUT
10
179.5630
20
139.3722
0
VERTEX
8
CUT
10
178.3207
20
140.0882
0
VERTEX
8
CUT
10
178.0960
20
140.2030
0
VERTEX
8
CUT
10
177.8609
20
140.2946
0
VERTEX
8
CUT
10
177.6177
20
140.3620
0
VERTEX
8
CUT
10
173.7284
20
141.2313
0
VERTEX
8
CUT
10
173.5508
20
141.2755
0
VERTEX
8
CUT
10
173.4310
20
141.3085
0
VERTEX
8
CUT
10
173.2559
20
141.3614
0
VERTEX
8
CUT
10
171.8692
20
141.8170
0
VERTEX
8
CUT
10
171.6877
20
141.8819
0
VERTEX
8
CUT
10
171.6557
20
141.8943
0
VERTEX
8
CUT
10
171.3324
20
142.0387
0
VERTEX
8
CUT
10
171.0256
20
142.2156
0
VERTEX
8
CUT
10
170.9967
20
142.2343
0
VERTEX
8
CUT
10
170.8377
20
142.3431
0
VERTEX
8
CUT
10
169.5118
20
143.3014
0
VERTEX
8
CUT
10
169.3053
20
143.4357
0
VERTEX
8
CUT
10
169.0866
20
143.5490
0
VERTEX
8
CUT
10
168.8578
20
143.6402
0
SEQEND
0
POLYLINE
8
CUT
66
1
70
1
10
0.0
20
0.0
30
0.0
0
VERTEX
8
CUT
10
154.8111
20
113.1955
0
VERTEX
8
CUT
10
154.6499
20
113.3845
0
VERTEX
8
CUT
10
154.4708
20
113.5565
0
VERTEX
8
CUT
10
154.2755
20
113.7099
0
VERTEX
8
CUT
10
154.0660
20
113.8432
0
VERTEX
8
CUT
10
153.8442
20
113.9551
0
VERTEX
8
CUT
10
153.6125
20
114.0444
0
VERTEX
8
CUT
10
153.3730
20
114.1102
0
VERTEX
8
CUT
10
153.1282
20
114.1520
0
VERTEX
8
CUT
10
152.8805
20
114.1693
0
VERTEX
8
CUT
10
152.6322
20
114.1619
0
VERTEX
8
CUT
10
152.3859
20
114.1299
0
VERTEX
8
CUT
10
152.1441
20
114.0736
0
VERTEX
8
CUT
10
151.9089
20
113.9936
0
VERTEX
8
CUT
10
151.6829
20
113.8907
0
VERTEX
8
CUT
10
151.4682
20
113.7659
0
VERTEX
8
CUT
10
151.2670
20
113.6204
0
VERTEX
8
CUT
10
151.0812
20
113.4556
0
VERTEX
8
CUT
10
150.9126
20
113.2732
0
VERTEX
8
CUT
10
150.7630
20
113.0750
0
VERTEX
8
CUT
10
150.6338
20
112.8629
0
VERTEX
8
CUT
10
150.5262
20
112.6391
0
VERTEX
8
CUT
10
150.4414
20
112.4056
0
VERTEX
8
CUT
10
150.3802
20
112.1650
0
VERTEX
8
CUT
10
150.3431
20
111.9194
0
VERTEX
8
CUT
10
150.3306
20
111.6714
0
VERTEX
8
CUT
10
150.3295
20
109.8301
0
VERTEX
8
CUT
10
150.3260
20
109.6711
0
VERTEX
8
CUT
10
150.3248
20
109.6427
0
VERTEX
8
CUT
10
150.2976
20
109.3258
0
VERTEX
8
CUT
10
150.2940
20
109.2976
0
VERTEX
8
CUT
10
150.2704
20
109.1403
0
VERTEX
8
CUT
10
148.9481
20
101.4515
0
VERTEX
8
CUT
10
148.9153
20
101.1579
0
VERTEX
8
CUT
10
148.7526
20
98.0353
0
VERTEX
8
CUT
10
148.7514
20
97.8000
0
VERTEX
8
CUT
10
148.7724
20
97.5655
0
VERTEX
8
CUT
10
148.8153
20
97.3341
0
VERTEX
8
CUT
10
148.8798
20
97.1078
0
VERTEX
8
CUT
10
149.1556
20
96.2882
0
VERTEX
8
CUT
10
149.2464
20
96.0571
0
VERTEX
8
CUT
10
149.3596
20
95.8361
0
VERTEX
8
CUT
10
149.4943
20
95.6275
0
VERTEX
8
CUT
10
149.9002
20
95.0622
0
VERTEX
8
CUT
10
150.0379
20
94.8874
0
VERTEX
8
CUT
10
150.1907
20
94.7255
0
VERTEX
8
CUT
10
150.3573
20
94.5778
0
VERTEX
8
CUT
10
150.5363
20
94.4455
0
VERTEX
8
CUT
10
150.7264
20
94.3297
0
VERTEX
8
CUT
10
151.1406
20
94.1020
0
VERTEX
8
CUT
10
151.3853
20
93.9843
0
VERTEX
8
CUT
10
151.6413
20
93.8938
0
VERTEX
8
CUT
10
151.9056
20
93.8316
0
VERTEX
8
CUT
10
152.1751
20
93.7985
0
VERTEX
8
CUT
10
152.4403
20
93.7804
0
VERTEX
8
CUT
10
152.7161
20
93.7769
0
VERTEX
8
CUT
10
152.9906
20
93.8037
0
VERTEX
8
CUT
10
153.2605
20
93.8607
0
VERTEX
8
CUT
10
153.5225
20
93.9470
0
VERTEX
8
CUT
10
153.9786
20
94.1257
0
VERTEX
8
CUT
10
154.1686
20
94.2095
0
VERTEX
8
CUT
10
154.3510
20
94.3086
0
VERTEX
8
CUT
10
154.5245
20
94.4226
0
VERTEX
8
CUT
10
154.9433
20
94.7233
0
VERTEX
8
CUT
10
155.1062
20
94.8509
0
VERTEX
8
CUT
10
155.2581
20
94.9915
0
VERTEX
8
CUT
10
155.3978
20
95.1441
0
VERTEX
8
CUT
10
155.8199
20
95.6456
0
VERTEX
8
CUT
10
155.9969
20
95.8832
0
VERTEX
8
CUT
10
156.1446
20
96.1402
0
VERTEX
8
CUT
10
156.4973
20
96.8476
0
VERTEX
8
CUT
10
156.5891
20
97.0546
0
VERTEX
8
CUT
10
156.6617
20
97.2692
0
VERTEX
8
CUT
10
156.9466
20
98.2557
0
VERTEX
8
CUT
10
157.0063
20
98.5126
0
VERTEX
8
CUT
10
157.0387
20
98.7743
0
VERTEX
8
CUT
10
157.2614
20
101.9475
0
VERTEX
8
CUT
10
157.2668
20
102.1860
0
VERTEX
8
CUT
10
157.2493
20
102.4240
0
VERTEX
8
CUT
10
156.7480
20
106.5511
0
VERTEX
8
CUT
10
156.6829
20
106.8897
0
VERTEX
8
CUT
10
155.2473
20
112.3099
0
VERTEX
8
CUT
10
155.1719
20
112.5465
0
VERTEX
8
CUT
10
155.0733
20
112.7744
0
VERTEX
8
CUT
10
154.9527
20
112.9915
0
SEQEND
0
POLYLINE
8
CUT
66
1
70
1
10
0.0
20
0.0
30
0.0
0
VERTEX
8
CUT
10
146.2504
20
136.5648
0
VERTEX
8
CUT
10
146.1799
20
132.4276
0
VERTEX
8
CUT
10
146.1940
20
132.1166
0
VERTEX
8
CUT
10
146.5224
20
129.0747
0
VERTEX
8
CUT
10
146.5579
20
128.8460
0
VERTEX
8
CUT
10
146.6143
20
128.6215
0
VERTEX
8
CUT
10
148.0586
20
123.8304
0
VERTEX
8
CUT
10
148.1396
20
123.6023
0
VERTEX
8
CUT
10
148.2423
20
123.3831
0
VERTEX
8
CUT
10
148.3658
20
123.1748
0
VERTEX
8
CUT
10
148.5087
20
122.9794
0
VERTEX
8
CUT
10
148.6700
20
122.7988
0
VERTEX
8
CUT
10
148.8479
20
122.6347
0
VERTEX
8
CUT
10
149.0409
20
122.4885
0
VERTEX
8
CUT
10
149.2471
20
122.3616
0
VERTEX
8
CUT
10
149.4646
20
122.2554
0
VERTEX
8
CUT
10
149.6914
20
122.1706
0
VERTEX
8
CUT
10
149.9253
20
122.1082
0
VERTEX
8
CUT
10
150.1641
20
122.0687
0
VERTEX
8
CUT
10
150.4057
20
122.0524
0
VERTEX
8
CUT
10
150.6477
20
122.0597
0
VERTEX
8
CUT
10
150.8878
20
122.0903
0
VERTEX
8
CUT
10
151.1239
20
122.1439
0
VERTEX
8
CUT
10
151.3537
20
122.2202
0
VERTEX
8
CUT
10
151.5750
20
122.3183
0
VERTEX
8
CUT
10
151.7858
20
122.4374
0
VERTEX
8
CUT
10
151.9841
20
122.5763
0
VERTEX
8
CUT
10
152.1680
20
122.7337
0
VERTEX
8
CUT
10
152.3358
20
122.9082
0
VERTEX
8
CUT
10
152.4860
20
123.0981
0
VERTEX
8
CUT
10
152.6171
20
123.3017
0
VERTEX
8
CUT
10
152.7279
20
123.5169
0
VERTEX
8
CUT
10
152.8173
20
123.7419
0
VERTEX
8
CUT
10
152.8846
20
123.9744
0
VERTEX
8
CUT
10
152.9290
20
124.2124
0
VERTEX
8
CUT
10
152.9503
20
124.4536
0
VERTEX
8
CUT
10
153.0830
20
127.8230
0
VERTEX
8
CUT
10
153.0982
20
128.0430
0
VERTEX
8
CUT
10
153.1020
20
128.0821
0
VERTEX
8
CUT
10
153.1709
20
128.5173
0
VERTEX
8
CUT
10
153.1793
20
128.5557
0
VERTEX
8
CUT
10
153.2329
20
128.7696
0
VERTEX
8
CUT
10
153.8807
20
131.0690
0
VERTEX
8
CUT
10
153.9487
20
131.2851
0
VERTEX
8
CUT
10
153.9992
20
131.4304
0
VERTEX
8
CUT
10
154.0802
20
131.6420
0
VERTEX
8
CUT
10
155.7621
20
135.6710
0
VERTEX
8
CUT
10
155.8329
20
135.8624
0
VERTEX
8
CUT
10
155.8880
20
136.0589
0
VERTEX
8
CUT
10
156.1022
20
136.9648
0
VERTEX
8
CUT
10
156.1527
20
137.2530
0
VERTEX
8
CUT
10
156.1692
20
137.5451
0
VERTEX
8
CUT
10
156.1669
20
138.7076
0
VERTEX
8
CUT
10
156.1574
20
138.9206
0
VERTEX
8
CUT
10
156.1297
20
139.1320
0
VERTEX
8
CUT
10
156.0842
20
139.3403
0
VERTEX
8
CUT
10
155.7682
20
140.5381
0
VERTEX
8
CUT
10
155.6897
20
140.7836
0
VERTEX
8
CUT
10
155.5863
20
141.0196
0
VERTEX
8
CUT
10
155.4593
20
141.2438
0
VERTEX
8
CUT
10
155.3098
20
141.4537
0
VERTEX
8
CUT
10
155.0990
20
141.7195
0
VERTEX
8
CUT
10
154.9225
20
141.9192
0
VERTEX
8
CUT
10
154.7257
20
142.0990
0
VERTEX
8
CUT
10
154.5109
20
142.2569
0
VERTEX
8
CUT
10
154.1721
20
142.4790
0
VERTEX
8
CUT
10
153.9673
20
142.5998
0
VERTEX
8
CUT
10
153.7519
20
142.7005
0
VERTEX
8
CUT
10
153.5280
20
142.7804
0
VERTEX
8
CUT
10
153.2975
20
142.8386
0
VERTEX
8
CUT
10
152.5299
20
142.9940
0
VERTEX
8
CUT
10
152.3087
20
143.0286
0
VERTEX
8
CUT
10
152.0853
20
143.0432
0
VERTEX
8
CUT
10
151.8615
20
143.0378
0
VERTEX
8
CUT
10
151.6391
20
143.0124
0
VERTEX
8
CUT
10
151.4198
20
142.9672
0
VERTEX
8
CUT
10
150.6360
20
142.7686
0
VERTEX
8
CUT
10
150.3723
20
142.6861
0
VERTEX
8
CUT
10
150.1194
20
142.5750
0
VERTEX
8
CUT
10
149.8802
20
142.4366
0
VERTEX
8
CUT
10
149.6526
20
142.2875
0
VERTEX
8
CUT
10
149.4799
20
142.1636
0
VERTEX
8
CUT
10
149.3184
20
142.0255
0
VERTEX
8
CUT
10
149.1692
20
141.8741
0
VERTEX
8
CUT
10
147.9981
20
140.5808
0
VERTEX
8
CUT
10
147.8370
20
140.3836
0
VERTEX
8
CUT
10
147.6968
20
140.1710
0
VERTEX
8
CUT
10
147.2250
20
139.3695
0
VERTEX
8
CUT
10
147.1345
20
139.2014
0
VERTEX
8
CUT
10
147.0571
20
139.0268
0
VERTEX
8
CUT
10
146.4277
20
137.4478
0
VERTEX
8
CUT
10
146.3536
20
137.2340
0
VERTEX
8
CUT
10
146.2990
20
137.0143
0
VERTEX
8
CUT
10
146.2645
20
136.7907
0
SEQEND
0
POLYLINE
8
CUT
66
1
70
1
10
0.0
20
0.0
30
0.0
0
VERTEX
8
CUT
10
125.9322
20
235.6306
0
VERTEX
8
CUT
10
125.9756
20
235.4623
0
VERTEX
8
CUT
10
125.9827
20
235.4320
0
VERTEX
8
CUT
10
126.0461
20
235.0903
0
VERTEX
8
CUT
10
126.0503
20
235.0595
0
VERTEX
8
CUT
10
126.0700
20
234.8868
0
VERTEX
8
CUT
10
126.2996
20
232.3588
0
VERTEX
8
CUT
10
126.3302
20
232.1346
0
VERTEX
8
CUT
10
126.3810
20
231.9141
0
VERTEX
8
CUT
10
126.4515
20
231.6991
0
VERTEX
8
CUT
10
126.6603
20
231.1478
0
VERTEX
8
CUT
10
126.7691
20
230.9017
0
VERTEX
8
CUT
10
126.9036
20
230.6687
0
VERTEX
8
CUT
10
127.3090
20
230.0467
0
VERTEX
8
CUT
10
127.4334
20
229.8760
0
VERTEX
8
CUT
10
127.4635
20
229.8295
0
VERTEX
8
CUT
10
127.6017
20
229.6530
0
VERTEX
8
CUT
10
127.7552
20
229.4895
0
VERTEX
8
CUT
10
127.9227
20
229.3405
0
VERTEX
8
CUT
10
128.0185
20
229.2626
0
VERTEX
8
CUT
10
128.2553
20
229.0268
0
VERTEX
8
CUT
10
128.4257
20
228.8721
0
VERTEX
8
CUT
10
128.6096
20
228.7337
0
VERTEX
8
CUT
10
128.8055
20
228.6127
0
VERTEX
8
CUT
10
129.0117
20
228.5104
0
VERTEX
8
CUT
10
129.0846
20
228.4782
0
VERTEX
8
CUT
10
129.3363
20
228.3832
0
VERTEX
8
CUT
10
129.5968
20
228.3158
0
VERTEX
8
CUT
10
129.8630
20
228.2767
0
VERTEX
8
CUT
10
130.1318
20
228.2665
0
VERTEX
8
CUT
10
131.1116
20
228.2820
0
VERTEX
8
CUT
10
131.3298
20
228.2950
0
VERTEX
8
CUT
10
131.5460
20
228.3270
0
VERTEX
8
CUT
10
131.5711
20
228.3319
0
VERTEX
8
CUT
10
131.6388
20
228.3440
0
VERTEX
8
CUT
10
131.9560
20
228.3857
0
VERTEX
8
CUT
10
132.2655
20
228.3967
0
VERTEX
8
CUT
10
132.3014
20
228.3945
0
VERTEX
8
CUT
10
132.5505
20
228.3914
0
VERTEX
8
CUT
10
132.7987
20
228.4130
0
VERTEX
8
CUT
10
133.0435
20
228.4593
0
VERTEX
8
CUT
10
133.2824
20
228.5297
0
VERTEX
8
CUT
10
133.5132
20
228.6236
0
VERTEX
8
CUT
10
133.7335
20
228.7399
0
VERTEX
8
CUT
10
133.9411
20
228.8776
0
VERTEX
8
CUT
10
134.1339
20
229.0353
0
VERTEX
8
CUT
10
134.3102
20
229.2113
0
VERTEX
8
CUT
10
134.4680
20
229.4041
0
VERTEX
8
CUT
10
134.6059
20
229.6116
0
VERTEX
8
CUT
10
134.7224
20
229.8318
0
VERTEX
8
CUT
10
134.8164
20
230.0624
0
VERTEX
8
CUT
10
134.8870
20
230.3013
0
VERTEX
8
CUT
10
134.9335
20
230.5461
0
VERTEX
8
CUT
10
134.9432
20
230.6157
0
VERTEX
8
CUT
10
135.0154
20
230.9159
0
VERTEX
8
CUT
10
135.1168
20
231.2077
0
VERTEX
8
CUT
10
135.2587
20
231.5150
0
VERTEX
8
CUT
10
135.2739
20
231.5442
0
VERTEX
8
CUT
10
135.3633
20
231.7053
0
VERTEX
8
CUT
10
135.5264
20
231.9831
0
VERTEX
8
CUT
10
135.6585
20
232.2414
0
VERTEX
8
CUT
10
135.7598
20
232.5133
0
VERTEX
8
CUT
10
136.1168
20
233.6730
0
VERTEX
8
CUT
10
136.1728
20
233.8887
0
VERTEX
8
CUT
10
136.2094
20
234.1086
0
VERTEX
8
CUT
10
136.4296
20
235.9317
0
VERTEX
8
CUT
10
136.4475
20
236.2018
0
VERTEX
8
CUT
10
136.4711
20
238.1857
0
VERTEX
8
CUT
10
136.4505
20
238.5372
0
VERTEX
8
CUT
10
136.3204
20
239.5401
0
VERTEX
8
CUT
10
136.2770
20
239.7809
0
VERTEX
8
CUT
10
136.2104
20
240.0163
0
VERTEX
8
CUT
10
136.1210
20
240.2441
0
VERTEX
8
CUT
10
136.0099
20
240.4621
0
VERTEX
8
CUT
10
135.8779
20
240.6681
0
VERTEX
8
CUT
10
135.7264
20
240.8603
0
VERTEX
8
CUT
10
135.5569
20
241.0367
0
VERTEX
8
CUT
10
135.3709
20
241.1957
0
VERTEX
8
CUT
10
135.1703
20
241.3358
0
VERTEX
8
CUT
10
134.9570
20
241.4556
0
VERTEX
8
CUT
10
134.7329
20
241.5539
0
VERTEX
8
CUT
10
134.5003
20
241.6299
0
VERTEX
8
CUT
10
134.2614
20
241.6828
0
VERTEX
8
CUT
10
134.0185
20
241.7121
0
VERTEX
8
CUT
10
133.7739
20
241.7175
0
VERTEX
8
CUT
10
133.5299
20
241.6989
0
VERTEX
8
CUT
10
133.2889
20
241.6566
0
VERTEX
8
CUT
10
133.0532
20
241.5910
0
VERTEX
8
CUT
10
132.8251
20
241.5026
0
VERTEX
8
CUT
10
132.6066
20
241.3923
0
VERTEX
8
CUT
10
132.4000
20
241.2612
0
VERTEX
8
CUT
10
132.2073
20
241.1106
0
VERTEX
8
CUT
10
132.0301
20
240.9418
0
VERTEX
8
CUT
10
131.9918
20
240.9016
0
VERTEX
8
CUT
10
131.7586
20
240.7002
0
VERTEX
8
CUT
10
131.5069
20
240.5227
0
VERTEX
8
CUT
10
131.2389
20
240.3706
0
VERTEX
8
CUT
10
130.9574
20
240.2455
0
VERTEX
8
CUT
10
130.6650
20
240.1486
0
VERTEX
8
CUT
10
130.3645
20
240.0807
0
VERTEX
8
CUT
10
130.0588
20
240.0425
0
VERTEX
8
CUT
10
129.7508
20
240.0345
0
VERTEX
8
CUT
10
129.4435
20
240.0566
0
VERTEX
8
CUT
10
129.1399
20
240.1087
0
VERTEX
8
CUT
10
128.8428
20
240.1902
0
VERTEX
8
CUT
10
128.6641
20
240.2587
0
VERTEX
8
CUT
10
128.4353
20
240.3339
0
VERTEX
8
CUT
10
128.2004
20
240.3867
0
VERTEX
8
CUT
10
127.9615
20
240.4168
0
VERTEX
8
CUT
10
127.7208
20
240.4237
0
VERTEX
8
CUT
10
127.4806
20
240.4074
0
VERTEX
8
CUT
10
127.2430
20
240.3680
0
VERTEX
8
CUT
10
127.0103
20
240.3060
0
VERTEX
8
CUT
10
126.7847
20
240.2219
0
VERTEX
8
CUT
10
126.5682
20
240.1165
0
VERTEX
8
CUT
10
126.3629
20
239.9907
0
VERTEX
8
CUT
10
126.1706
20
239.8458
0
VERTEX
8
CUT
10
125.9931
20
239.6831
0
VERTEX
8
CUT
10
125.8322
20
239.5040
0
VERTEX
8
CUT
10
125.6891
20
239.3103
0
VERTEX
8
CUT
10
125.5654
20
239.1037
0
VERTEX
8
CUT
10
125.4622
20
238.8861
0
VERTEX
8
CUT
10
125.3803
20
238.6597
0
VERTEX
8
CUT
10
125.3207
20
238.4264
0
VERTEX
8
CUT
10
125.2837
20
238.1885
0
VERTEX
8
CUT
10
125.2698
20
237.9481
0
VERTEX
8
CUT
10
125.2791
20
237.7075
0
VERTEX
8
CUT
10
125.3115
20
237.4689
0
VERTEX
8
CUT
10
125.3667
20
237.2345
0
VERTEX
8
CUT
10
125.4442
20
237.0065
0
VERTEX
8
CUT
10
125.5432
20
236.7870
0
VERTEX
8
CUT
10
125.5896
20
236.6964
0
VERTEX
8
CUT
10
125.7131
20
236.3817
0
VERTEX
8
CUT
10
125.7236
20
236.3506
0
VERTEX
8
CUT
10
125.7780
20
236.1749
0
SEQEND
0
POLYLINE
8
CUT
66
1
70
1
10
0.0
20
0.0
30
0.0
0
VERTEX
8
CUT
10
117.4650
20
132.8146
0
VERTEX
8
CUT
10
117.4641
20
132.5718
0
VERTEX
8
CUT
10
117.4867
20
132.3301
0
VERTEX
8
CUT
10
117.5327
20
132.0917
0
VERTEX
8
CUT
10
117.6016
20
131.8589
0
VERTEX
8
CUT
10
117.6927
20
131.6339
0
VERTEX
8
CUT
10
117.8052
20
131.4187
0
VERTEX
8
CUT
10
117.9381
20
131.2155
0
VERTEX
8
CUT
10
118.0900
20
131.0262
0
VERTEX
8
CUT
10
118.2596
20
130.8525
0
VERTEX
8
CUT
10
118.4453
20
130.6960
0
VERTEX
8
CUT
10
118.6452
20
130.5583
0
VERTEX
8
CUT
10
118.8576
20
130.4407
0
VERTEX
8
CUT
10
119.0803
20
130.3441
0
VERTEX
8
CUT
10
119.3114
20
130.2697
0
VERTEX
8
CUT
10
119.5486
20
130.2180
0
VERTEX
8
CUT
10
121.0016
20
129.9746
0
VERTEX
8
CUT
10
121.0329
20
129.9696
0
VERTEX
8
CUT
10
121.0386
20
129.9687
0
VERTEX
8
CUT
10
121.1709
20
129.9519
0
VERTEX
8
CUT
10
123.1978
20
129.7486
0
VERTEX
8
CUT
10
123.5489
20
129.7382
0
VERTEX
8
CUT
10
125.1196
20
129.8021
0
VERTEX
8
CUT
10
125.4063
20
129.8304
0
VERTEX
8
CUT
10
125.6879
20
129.8915
0
VERTEX
8
CUT
10
127.6958
20
130.4500
0
VERTEX
8
CUT
10
127.9231
20
130.5251
0
VERTEX
8
CUT
10
128.1423
20
130.6217
0
VERTEX
8
CUT
10
128.3512
20
130.7388
0
VERTEX
8
CUT
10
129.6394
20
131.5442
0
VERTEX
8
CUT
10
129.8440
20
131.6869
0
VERTEX
8
CUT
10
130.0335
20
131.8492
0
VERTEX
8
CUT
10
131.3505
20
133.0972
0
VERTEX
8
CUT
10
131.4993
20
133.2508
0
VERTEX
8
CUT
10
131.6345
20
133.4165
0
VERTEX
8
CUT
10
132.8964
20
135.1073
0
VERTEX
8
CUT
10
133.0870
20
135.4043
0
VERTEX
8
CUT
10
134.1578
20
137.3645
0
VERTEX
8
CUT
10
134.3013
20
137.6764
0
VERTEX
8
CUT
10
135.1452
20
139.9015
0
VERTEX
8
CUT
10
135.2456
20
140.2346
0
VERTEX
8
CUT
10
135.3079
20
140.5088
0
VERTEX
8
CUT
10
135.3508
20
140.7538
0
VERTEX
8
CUT
10
135.3692
20
141.0018
0
VERTEX
8
CUT
10
135.3628
20
141.2505
0
VERTEX
8
CUT
10
135.3318
20
141.4973
0
VERTEX
8
CUT
10
135.2763
20
141.7398
0
VERTEX
8
CUT
10
135.1971
20
141.9755
0
VERTEX
8
CUT
10
135.0948
20
142.2023
0
VERTEX
8
CUT
10
134.9705
20
142.4177
0
VERTEX
8
CUT
10
134.8255
20
142.6198
0
VERTEX
8
CUT
10
134.6610
20
142.8064
0
VERTEX
8
CUT
10
134.4788
20
142.9757
0
VERTEX
8
CUT
10
134.2807
20
143.1261
0
VERTEX
8
CUT
10
134.0686
20
143.2561
0
VERTEX
8
CUT
10
133.8447
20
143.3644
0
VERTEX
8
CUT
10
133.6111
20
143.4499
0
VERTEX
8
CUT
10
133.3702
20
143.5117
0
VERTEX
8
CUT
10
133.1243
20
143.5493
0
VERTEX
8
CUT
10
132.8759
20
143.5623
0
VERTEX
8
CUT
10
132.6275
20
143.5505
0
VERTEX
8
CUT
10
132.3814
20
143.5141
0
VERTEX
8
CUT
10
132.1402
20
143.4534
0
VERTEX
8
CUT
10
131.9062
20
143.3691
0
VERTEX
8
CUT
10
131.6817
20
143.2619
0
VERTEX
8
CUT
10
131.4690
20
143.1329
0
VERTEX
8
CUT
10
131.2702
20
142.9835
0
VERTEX
8
CUT
10
131.2331
20
142.9526
0
VERTEX
8
CUT
10
131.0567
20
142.8144
0
VERTEX
8
CUT
10
131.0246
20
142.7908
0
VERTEX
8
CUT
10
130.6488
20
142.5473
0
VERTEX
8
CUT
10
130.6140
20
142.5277
0
VERTEX
8
CUT
10
130.4158
20
142.4232
0
VERTEX
8
CUT
10
129.2559
20
141.8553
0
VERTEX
8
CUT
10
129.0557
20
141.7644
0
VERTEX
8
CUT
10
129.0195
20
141.7493
0
VERTEX
8
CUT
10
128.6049
20
141.6036
0
VERTEX
8
CUT
10
128.5672
20
141.5928
0
VERTEX
8
CUT
10
128.3542
20
141.5384
0
VERTEX
8
CUT
10
123.5467
20
140.4599
0
VERTEX
8
CUT
10
123.3235
20
140.3988
0
VERTEX
8
CUT
10
123.1069
20
140.3174
0
VERTEX
8
CUT
10
122.8988
20
140.2164
0
VERTEX
8
CUT
10
121.4283
20
139.4160
0
VERTEX
8
CUT
10
121.2402
20
139.3027
0
VERTEX
8
CUT
10
121.0628
20
139.1733
0
VERTEX
8
CUT
10
120.8974
20
139.0288
0
VERTEX
8
CUT
10
120.5378
20
138.6857
0
VERTEX
8
CUT
10
120.3439
20
138.4783
0
VERTEX
8
CUT
10
120.1747
20
138.2504
0
VERTEX
8
CUT
10
119.0300
20
136.5091
0
VERTEX
8
CUT
10
118.8581
20
136.2028
0
VERTEX
8
CUT
10
117.7008
20
133.7507
0
VERTEX
8
CUT
10
117.6079
20
133.5264
0
VERTEX
8
CUT
10
117.5373
20
133.2941
0
VERTEX
8
CUT
10
117.4895
20
133.0561
0
SEQEND
0
POLYLINE
8
CUT
66
1
70
1
10
0.0
20
0.0
30
0.0
0
VERTEX
8
CUT
10
106.3438
20
187.6048
0
VERTEX
8
CUT
10
106.5247
20
187.4714
0
VERTEX
8
CUT
10
106.5477
20
187.4527
0
VERTEX
8
CUT
10
106.6742
20
187.3458
0
VERTEX
8
CUT
10
107.2074
20
186.8744
0
VERTEX
8
CUT
10
107.3335
20
186.7577
0
VERTEX
8
CUT
10
107.3556
20
186.7363
0
VERTEX
8
CUT
10
107.5720
20
186.5063
0
VERTEX
8
CUT
10
107.7666
20
186.2575
0
VERTEX
8
CUT
10
107.7844
20
186.2325
0
VERTEX
8
CUT
10
107.8806
20
186.0902
0
VERTEX
8
CUT
10
110.1168
20
182.6162
0
VERTEX
8
CUT
10
110.2468
20
182.4328
0
VERTEX
8
CUT
10
110.3928
20
182.2619
0
VERTEX
8
CUT
10
110.7331
20
181.8979
0
VERTEX
8
CUT
10
110.9498
20
181.6924
0
VERTEX
8
CUT
10
111.1894
20
181.5141
0
VERTEX
8
CUT
10
112.0136
20
180.9742
0
VERTEX
8
CUT
10
112.2081
20
180.8590
0
VERTEX
8
CUT
10
112.4124
20
180.7618
0
VERTEX
8
CUT
10
112.6245
20
180.6835
0
VERTEX
8
CUT
10
112.8429
20
180.6247
0
VERTEX
8
CUT
10
113.5212
20
180.4744
0
VERTEX
8
CUT
10
113.7810
20
180.4311
0
VERTEX
8
CUT
10
114.0439
20
180.4154
0
VERTEX
8
CUT
10
114.3070
20
180.4274
0
VERTEX
8
CUT
10
114.5674
20
180.4670
0
VERTEX
8
CUT
10
115.6550
20
180.6916
0
VERTEX
8
CUT
10
115.9046
20
180.7567
0
VERTEX
8
CUT
10
116.1462
20
180.8472
0
VERTEX
8
CUT
10
116.3772
20
180.9622
0
VERTEX
8
CUT
10
116.8891
20
181.2508
0
VERTEX
8
CUT
10
117.0997
20
181.3838
0
VERTEX
8
CUT
10
117.2960
20
181.5371
0
VERTEX
8
CUT
10
117.9025
20
182.0613
0
VERTEX
8
CUT
10
118.1207
20
182.2744
0
VERTEX
8
CUT
10
118.3112
20
182.5125
0
VERTEX
8
CUT
10
119.9862
20
184.8890
0
VERTEX
8
CUT
10
120.0883
20
185.0460
0
VERTEX
8
CUT
10
120.1783
20
185.2103
0
VERTEX
8
CUT
10
121.0339
20
186.9196
0
VERTEX
8
CUT
10
121.1339
20
187.1469
0
VERTEX
8
CUT
10
121.4745
20
188.0388
0
VERTEX
8
CUT
10
121.5501
20
188.2700
0
VERTEX
8
CUT
10
121.6028
20
188.5074
0
VERTEX
8
CUT
10
121.6323
20
188.7488
0
VERTEX
8
CUT
10
121.6381
20
188.9920
0
VERTEX
8
CUT
10
121.6204
20
189.2345
0
VERTEX
8
CUT
10
121.5791
20
189.4742
0
VERTEX
8
CUT
10
121.5147
20
189.7088
0
VERTEX
8
CUT
10
121.4278
20
189.9359
0
VERTEX
8
CUT
10
121.3193
20
190.1536
0
VERTEX
8
CUT
10
121.1901
20
190.3597
0
VERTEX
8
CUT
10
121.0416
20
190.5522
0
VERTEX
8
CUT
10
120.8750
20
190.7294
0
VERTEX
8
CUT
10
120.6920
20
190.8896
0
VERTEX
8
CUT
10
120.4942
20
191.0313
0
VERTEX
8
CUT
10
120.2837
20
191.1530
0
VERTEX
8
CUT
10
120.0623
20
191.2537
0
VERTEX
8
CUT
10
119.8322
20
191.3325
0
VERTEX
8
CUT
10
119.5955
20
191.3885
0
VERTEX
8
CUT
10
119.3545
20
191.4212
0
VERTEX
8
CUT
10
119.1115
20
191.4304
0
VERTEX
8
CUT
10
118.8687
20
191.4159
0
VERTEX
8
CUT
10
118.6285
20
191.3779
0
VERTEX
8
CUT
10
118.3931
20
191.3167
0
VERTEX
8
CUT
10
118.1647
20
191.2329
0
VERTEX
8
CUT
10
117.9456
20
191.1274
0
VERTEX
8
CUT
10
117.7378
20
191.0010
0
VERTEX
8
CUT
10
117.5432
20
190.8551
0
VERTEX
8
CUT
10
117.3638
20
190.6909
0
VERTEX
8
CUT
10
117.2011
20
190.5101
0
VERTEX
8
CUT
10
117.0651
20
190.3432
0
VERTEX
8
CUT
10
116.9466
20
190.2049
0
VERTEX
8
CUT
10
116.9249
20
190.1807
0
VERTEX
8
CUT
10
116.6892
20
189.9430
0
VERTEX
8
CUT
10
116.4542
20
189.7480
0
VERTEX
8
CUT
10
116.1780
20
189.5609
0
VERTEX
8
CUT
10
115.8633
20
189.3895
0
VERTEX
8
CUT
10
115.5618
20
189.2611
0
VERTEX
8
CUT
10
115.2753
20
189.1702
0
VERTEX
8
CUT
10
114.9814
20
189.1071
0
VERTEX
8
CUT
10
114.6828
20
189.0724
0
VERTEX
8
CUT
10
114.3823
20
189.0663
0
VERTEX
8
CUT
10
114.0825
20
189.0889
0
VERTEX
8
CUT
10
113.7863
20
189.1401
0
VERTEX
8
CUT
10
113.4964
20
189.2193
0
VERTEX
8
CUT
10
113.1883
20
189.3360
0
VERTEX
8
CUT
10
113.1589
20
189.3488
0
VERTEX
8
CUT
10
112.9963
20
189.4241
0
VERTEX
8
CUT
10
112.5940
20
189.6223
0
VERTEX
8
CUT
10
112.4471
20
189.6988
0
VERTEX
8
CUT
10
112.4211
20
189.7131
0
VERTEX
8
CUT
10
112.1382
20
189.8850
0
VERTEX
8
CUT
10
112.1136
20
189.9015
0
VERTEX
8
CUT
10
111.9781
20
189.9967
0
VERTEX
8
CUT
10
110.2104
20
191.2978
0
VERTEX
8
CUT
10
110.0147
20
191.4280
0
VERTEX
8
CUT
10
109.8077
20
191.5394
0
VERTEX
8
CUT
10
109.5911
20
191.6308
0
VERTEX
8
CUT
10
108.7648
20
191.9346
0
VERTEX
8
CUT
10
108.7416
20
191.9437
0
VERTEX
8
CUT
10
108.5063
20
192.0228
0
VERTEX
8
CUT
10
108.2802
20
192.0746
0
VERTEX
8
CUT
10
108.1209
20
192.2257
0
VERTEX
8
CUT
10
107.9306
20
192.3742
0
VERTEX
8
CUT
10
107.8297
20
192.4454
0
VERTEX
8
CUT
10
107.8065
20
192.4633
0
VERTEX
8
CUT
10
107.7829
20
192.4824
0
VERTEX
8
CUT
10
107.5831
20
192.6281
0
VERTEX
8
CUT
10
107.3700
20
192.7534
0
VERTEX
8
CUT
10
107.1455
20
192.8570
0
VERTEX
8
CUT
10
106.9119
20
192.9379
0
VERTEX
8
CUT
10
106.6715
20
192.9954
0
VERTEX
8
CUT
10
106.4265
20
193.0288
0
VERTEX
8
CUT
10
106.1795
20
193.0379
0
VERTEX
8
CUT
10
105.9327
20
193.0226
0
VERTEX
8
CUT
10
105.6887
20
192.9829
0
VERTEX
8
CUT
10
105.4498
20
192.9193
0
VERTEX
8
CUT
10
105.2183
20
192.8325
0
VERTEX
8
CUT
10
104.9965
20
192.7232
0
VERTEX
8
CUT
10
104.7867
20
192.5925
0
VERTEX
8
CUT
10
104.5907
20
192.4417
0
VERTEX
8
CUT
10
104.4106
20
192.2724
0
VERTEX
8
CUT
10
104.3312
20
192.1898
0
VERTEX
8
CUT
10
104.1719
20
192.0076
0
VERTEX
8
CUT
10
104.0311
20
191.8109
0
VERTEX
8
CUT
10
103.9099
20
191.6015
0
VERTEX
8
CUT
10
103.8095
20
191.3813
0
VERTEX
8
CUT
10
103.7309
20
191.1525
0
VERTEX
8
CUT
10
103.6748
20
190.9171
0
VERTEX
8
CUT
10
103.6417
20
190.6775
0
VERTEX
8
CUT
10
103.6319
20
190.4357
0
VERTEX
8
CUT
10
103.6456
20
190.1941
0
VERTEX
8
CUT
10
103.6825
20
189.9550
0
VERTEX
8
CUT
10
103.7423
20
189.7206
0
VERTEX
8
CUT
10
103.8246
20
189.4930
0
VERTEX
8
CUT
10
103.9285
20
189.2745
0
VERTEX
8
CUT
10
104.0530
20
189.0670
0
VERTEX
8
CUT
10
104.1969
20
188.8725
0
VERTEX
8
CUT
10
104.3590
20
188.6929
0
VERTEX
8
CUT
10
104.5377
20
188.5298
0
VERTEX
8
CUT
10
104.7314
20
188.3847
0
VERTEX
8
CUT
10
104.9381
20
188.2590
0
VERTEX
8
CUT
10
105.1561
20
188.1539
0
VERTEX
8
CUT
10
105.3831
20
188.0704
0
VERTEX
8
CUT
10
105.4810
20
188.0396
0
VERTEX
8
CUT
10
105.5091
20
188.0301
0
VERTEX
8
CUT
10
105.5846
20
188.0008
0
VERTEX
8
CUT
10
105.8136
20
187.9244
0
VERTEX
8
CUT
10
106.0411
20
187.8722
0
VERTEX
8
CUT
10
106.1516
20
187.7618
0
SEQEND
0
POLYLINE
8
CUT
66
1
70
1
10
0.0
20
0.0
30
0.0
0
VERTEX
8
CUT
10
94.1097
20
219.1514
0
VERTEX
8
CUT
10
94.1229
20
218.9091
0
VERTEX
8
CUT
10
94.1594
20
218.6692
0
VERTEX
8
CUT
10
94.2190
20
218.4340
0
VERTEX
8
CUT
10
94.3012
20
218.2057
0
VERTEX
8
CUT
10
94.4050
20
217.9865
0
VERTEX
8
CUT
10
94.5297
20
217.7783
0
VERTEX
8
CUT
10
94.6739
20
217.5832
0
VERTEX
8
CUT
10
94.8364
20
217.4030
0
VERTEX
8
CUT
10
95.0156
20
217.2394
0
VERTEX
8
CUT
10
95.2098
20
217.0939
0
VERTEX
8
CUT
10
95.4171
20
216.9680
0
VERTEX
8
CUT
10
95.6357
20
216.8627
0
VERTEX
8
CUT
10
95.8635
20
216.7791
0
VERTEX
8
CUT
10
96.0983
20
216.7181
0
VERTEX
8
CUT
10
96.3380
20
216.6800
0
VERTEX
8
CUT
10
96.5801
20
216.6654
0
VERTEX
8
CUT
10
96.8226
20
216.6743
0
VERTEX
8
CUT
10
97.0631
20
216.7066
0
VERTEX
8
CUT
10
97.2993
20
216.7622
0
VERTEX
8
CUT
10
97.5290
20
216.8403
0
VERTEX
8
CUT
10
97.7500
20
216.9404
0
VERTEX
8
CUT
10
97.9603
20
217.0614
0
VERTEX
8
CUT
10
98.1579
20
217.2022
0
VERTEX
8
CUT
10
98.3409
20
217.3616
0
VERTEX
8
CUT
10
98.5075
20
217.5379
0
VERTEX
8
CUT
10
99.9524
20
219.2229
0
VERTEX
8
CUT
10
100.1393
20
219.4253
0
VERTEX
8
CUT
10
100.2710
20
219.5578
0
VERTEX
8
CUT
10
100.4721
20
219.7459
0
VERTEX
8
CUT
10
101.9458
20
221.0255
0
VERTEX
8
CUT
10
102.0842
20
221.1400
0
VERTEX
8
CUT
10
102.1094
20
221.1598
0
VERTEX
8
CUT
10
102.4017
20
221.3682
0
VERTEX
8
CUT
10
102.4287
20
221.3855
0
VERTEX
8
CUT
10
102.5820
20
221.4790
0
VERTEX
8
CUT
10
103.4817
20
221.9983
0
VERTEX
8
CUT
10
103.6574
20
222.0936
0
VERTEX
8
CUT
10
103.6892
20
222.1098
0
VERTEX
8
CUT
10
104.0250
20
222.2585
0
VERTEX
8
CUT
10
104.3748
20
222.3706
0
VERTEX
8
CUT
10
104.4093
20
222.3797
0
VERTEX
8
CUT
10
104.6038
20
222.4253
0
VERTEX
8
CUT
10
105.1084
20
222.5295
0
VERTEX
8
CUT
10
105.2816
20
222.5610
0
VERTEX
8
CUT
10
105.3126
20
222.5659
0
VERTEX
8
CUT
10
105.6343
20
222.6014
0
VERTEX
8
CUT
10
105.9295
20
222.6061
0
VERTEX
8
CUT
10
106.2521
20
222.5808
0
VERTEX
8
CUT
10
106.2833
20
222.5769
0
VERTEX
8
CUT
10
106.4574
20
222.5508
0
VERTEX
8
CUT
10
106.7876
20
222.4935
0
VERTEX
8
CUT
10
106.9682
20
222.4576
0
VERTEX
8
CUT
10
107.0002
20
222.4503
0
VERTEX
8
CUT
10
107.0652
20
222.4324
0
VERTEX
8
CUT
10
107.4736
20
222.2879
0
VERTEX
8
CUT
10
107.6490
20
222.2209
0
VERTEX
8
CUT
10
107.6800
20
222.2081
0
VERTEX
8
CUT
10
107.8951
20
222.1068
0
VERTEX
8
CUT
10
108.1508
20
221.9448
0
VERTEX
8
CUT
10
108.4175
20
221.7365
0
VERTEX
8
CUT
10
108.4424
20
221.7150
0
VERTEX
8
CUT
10
108.5788
20
221.5913
0
VERTEX
8
CUT
10
108.9272
20
221.2594
0
VERTEX
8
CUT
10
109.0733
20
221.1123
0
VERTEX
8
CUT
10
109.0986
20
221.0853
0
VERTEX
8
CUT
10
109.3439
20
220.7936
0
VERTEX
8
CUT
10
109.5554
20
220.4765
0
VERTEX
8
CUT
10
109.5742
20
220.4446
0
VERTEX
8
CUT
10
109.6746
20
220.2631
0
VERTEX
8
CUT
10
109.8409
20
219.9419
0
VERTEX
8
CUT
10
109.9269
20
219.7643
0
VERTEX
8
CUT
10
109.9415
20
219.7323
0
VERTEX
8
CUT
10
110.0734
20
219.3945
0
VERTEX
8
CUT
10
110.1691
20
219.0448
0
VERTEX
8
CUT
10
110.1766
20
219.0104
0
VERTEX
8
CUT
10
110.2135
20
218.8166
0
VERTEX
8
CUT
10
110.2953
20
218.3162
0
VERTEX
8
CUT
10
110.3207
20
218.1321
0
VERTEX
8
CUT
10
110.3244
20
218.0992
0
VERTEX
8
CUT
10
110.3477
20
217.7285
0
VERTEX
8
CUT
10
110.3481
20
217.6953
0
VERTEX
8
CUT
10
110.3460
20
217.5095
0
VERTEX
8
CUT
10
110.3118
20
216.5665
0
VERTEX
8
CUT
10
110.3017
20
216.3965
0
VERTEX
8
CUT
10
110.2992
20
216.3661
0
VERTEX
8
CUT
10
110.2561
20
216.0284
0
VERTEX
8
CUT
10
110.2508
20
215.9984
0
VERTEX
8
CUT
10
110.2178
20
215.8313
0
VERTEX
8
CUT
10
109.2654
20
211.5317
0
VERTEX
8
CUT
10
109.2242
20
211.2903
0
VERTEX
8
CUT
10
109.2068
20
211.0460
0
VERTEX
8
CUT
10
109.2135
20
210.8011
0
VERTEX
8
CUT
10
109.2440
20
210.5581
0
VERTEX
8
CUT
10
109.2982
20
210.3193
0
VERTEX
8
CUT
10
109.3754
20
210.0869
0
VERTEX
8
CUT
10
109.4751
20
209.8632
0
VERTEX
8
CUT
10
109.5962
20
209.6503
0
VERTEX
8
CUT
10
109.7375
20
209.4502
0
VERTEX
8
CUT
10
109.8977
20
209.2650
0
VERTEX
8
CUT
10
110.0753
20
209.0963
0
VERTEX
8
CUT
10
110.2685
20
208.9458
0
VERTEX
8
CUT
10
110.4755
20
208.8150
0
VERTEX
8
CUT
10
110.6943
20
208.7050
0
VERTEX
8
CUT
10
110.9229
20
208.6169
0
VERTEX
8
CUT
10
111.1589
20
208.5517
0
VERTEX
8
CUT
10
111.4002
20
208.5098
0
VERTEX
8
CUT
10
111.6445
20
208.4918
0
VERTEX
8
CUT
10
111.8893
20
208.4977
0
VERTEX
8
CUT
10
112.1324
20
208.5276
0
VERTEX
8
CUT
10
112.3714
20
208.5811
0
VERTEX
8
CUT
10
112.6040
20
208.6578
0
VERTEX
8
CUT
10
112.8280
20
208.7568
0
VERTEX
8
CUT
10
113.0412
20
208.8773
0
VERTEX
8
CUT
10
113.2416
20
209.0181
0
VERTEX
8
CUT
10
113.4273
20
209.1778
0
VERTEX
8
CUT
10
113.5965
20
209.3549
0
VERTEX
8
CUT
10
114.2392
20
210.0974
0
VERTEX
8
CUT
10
114.4086
20
210.3166
0
VERTEX
8
CUT
10
114.5528
20
210.5532
0
VERTEX
8
CUT
10
115.0123
20
211.4111
0
VERTEX
8
CUT
10
115.1183
20
211.6352
0
VERTEX
8
CUT
10
115.2017
20
211.8686
0
VERTEX
8
CUT
10
115.5366
20
212.9774
0
VERTEX
8
CUT
10
115.5373
20
212.9793
0
VERTEX
8
CUT
10
115.6095
20
213.1816
0
VERTEX
8
CUT
10
115.6640
20
213.3894
0
VERTEX
8
CUT
10
115.6716
20
213.4244
0
VERTEX
8
CUT
10
116.3073
20
215.5291
0
VERTEX
8
CUT
10
116.3637
20
215.7523
0
VERTEX
8
CUT
10
116.3992
20
215.9797
0
VERTEX
8
CUT
10
116.7887
20
219.5352
0
VERTEX
8
CUT
10
116.8022
20
219.7231
0
VERTEX
8
CUT
10
116.8014
20
219.9116
0
VERTEX
8
CUT
10
116.5230
20
226.5863
0
VERTEX
8
CUT
10
116.5201
20
226.6894
0
VERTEX
8
CUT
10
116.5191
20
226.7598
0
VERTEX
8
CUT
10
116.5191
20
226.8632
0
VERTEX
8
CUT
10
116.5708
20
230.7196
0
VERTEX
8
CUT
10
116.5774
20
230.8972
0
VERTEX
8
CUT
10
116.5793
20
230.9289
0
VERTEX
8
CUT
10
116.6177
20
231.2820
0
VERTEX
8
CUT
10
116.6226
20
231.3134
0
VERTEX
8
CUT
10
116.6543
20
231.4883
0
VERTEX
8
CUT
10
116.9437
20
232.8945
0
VERTEX
8
CUT
10
116.9923
20
233.1008
0
VERTEX
8
CUT
10
117.0020
20
233.1373
0
VERTEX
8
CUT
10
117.1336
20
233.5399
0
VERTEX
8
CUT
10
117.1474
20
233.5750
0
VERTEX
8
CUT
10
117.2300
20
233.7701
0
VERTEX
8
CUT
10
118.1371
20
235.7529
0
VERTEX
8
CUT
10
118.1836
20
235.8480
0
VERTEX
8
CUT
10
118.2812
20
236.0753
0
VERTEX
8
CUT
10
118.3559
20
236.3112
0
VERTEX
8
CUT
10
118.4069
20
236.5533
0
VERTEX
8
CUT
10
118.4337
20
236.7992
0
VERTEX
8
CUT
10
118.4361
20
237.0466
0
VERTEX
8
CUT
10
118.4141
20
237.2930
0
VERTEX
8
CUT
10
118.3677
20
237.5361
0
VERTEX
8
CUT
10
118.2976
20
237.7733
0
VERTEX
8
CUT
10
118.2044
20
238.0025
0
VERTEX
8
CUT
10
118.0889
20
238.2214
0
VERTEX
8
CUT
10
117.9524
20
238.4277
0
VERTEX
8
CUT
10
117.7962
20
238.6196
0
VERTEX
8
CUT
10
117.6218
20
238.7950
0
VERTEX
8
CUT
10
117.4309
20
238.9524
0
VERTEX
8
CUT
10
117.2254
20
239.0901
0
VERTEX
8
CUT
10
117.0072
20
239.2069
0
VERTEX
8
CUT
10
116.7786
20
239.3015
0
VERTEX
8
CUT
10
116.5418
20
239.3730
0
VERTEX
8
CUT
10
116.3170
20
239.4290
0
VERTEX
8
CUT
10
116.0068
20
239.5385
0
VERTEX
8
CUT
10
115.9772
20
239.5505
0
VERTEX
8
CUT
10
115.8131
20
239.6220
0
VERTEX
8
CUT
10
109.6143
20
242.5011
0
VERTEX
8
CUT
10
109.3827
20
242.5949
0
VERTEX
8
CUT
10
109.1429
20
242.6651
0
VERTEX
8
CUT
10
108.8973
20
242.7110
0
VERTEX
8
CUT
10
108.6483
20
242.7322
0
VERTEX
8
CUT
10
108.3984
20
242.7284
0
VERTEX
8
CUT
10
105.8196
20
242.5602
0
VERTEX
8
CUT
10
105.6138
20
242.5382
0
VERTEX
8
CUT
10
105.4105
20
242.4992
0
VERTEX
8
CUT
10
103.0756
20
241.9506
0
VERTEX
8
CUT
10
102.8609
20
241.8899
0
VERTEX
8
CUT
10
102.6525
20
241.8103
0
VERTEX
8
CUT
10
102.4520
20
241.7125
0
VERTEX
8
CUT
10
100.6468
20
240.7295
0
VERTEX
8
CUT
10
100.4686
20
240.6226
0
VERTEX
8
CUT
10
100.2998
20
240.5013
0
VERTEX
8
CUT
10
100.1417
20
240.3664
0
VERTEX
8
CUT
10
98.9080
20
239.2214
0
VERTEX
8
CUT
10
98.7307
20
239.0392
0
VERTEX
8
CUT
10
98.5729
20
238.8401
0
VERTEX
8
CUT
10
97.5042
20
237.3408
0
VERTEX
8
CUT
10
97.3730
20
237.1364
0
VERTEX
8
CUT
10
97.2623
20
236.9203
0
VERTEX
8
CUT
10
97.1730
20
236.6945
0
VERTEX
8
CUT
10
96.5003
20
234.7160
0
VERTEX
8
CUT
10
96.4369
20
234.4973
0
VERTEX
8
CUT
10
96.3937
20
234.2739
0
VERTEX
8
CUT
10
95.8884
20
230.8273
0
VERTEX
8
CUT
10
95.8839
20
230.7956
0
VERTEX
8
CUT
10
95.8832
20
230.7899
0
VERTEX
8
CUT
10
95.8689
20
230.6560
0
VERTEX
8
CUT
10
95.4269
20
225.0666
0
VERTEX
8
CUT
10
95.4025
20
224.8430
0
VERTEX
8
CUT
10
95.3813
20
224.6916
0
VERTEX
8
CUT
10
95.3435
20
224.4697
0
VERTEX
8
CUT
10
94.7087
20
221.3216
0
VERTEX
8
CUT
10
94.6708
20
221.1534
0
VERTEX
8
CUT
10
94.6633
20
221.1235
0
VERTEX
8
CUT
10
94.5645
20
220.7934
0
VERTEX
8
CUT
10
94.5543
20
220.7643
0
VERTEX
8
CUT
10
94.4936
20
220.6030
0
VERTEX
8
CUT
10
94.2907
20
220.0991
0
VERTEX
8
CUT
10
94.2111
20
219.8699
0
VERTEX
8
CUT
10
94.1541
20
219.6340
0
VERTEX
8
CUT
10
94.1202
20
219.3938
0
SEQEND
0
POLYLINE
8
CUT
66
1
70
1
10
0.0
20
0.0
30
0.0
0
VERTEX
8
CUT
10
97.2552
20
85.8030
0
VERTEX
8
CUT
10
97.1797
20
85.6257
0
VERTEX
8
CUT
10
97.1654
20
85.5944
0
VERTEX
8
CUT
10
96.9874
20
85.2526
0
VERTEX
8
CUT
10
96.9700
20
85.2230
0
VERTEX
8
CUT
10
96.8681
20
85.0594
0
VERTEX
8
CUT
10
92.3626
20
78.2245
0
VERTEX
8
CUT
10
92.2536
20
78.0427
0
VERTEX
8
CUT
10
90.7476
20
75.2728
0
VERTEX
8
CUT
10
90.6545
20
75.0829
0
VERTEX
8
CUT
10
89.4090
20
72.2431
0
VERTEX
8
CUT
10
89.3267
20
72.0293
0
VERTEX
8
CUT
10
88.3488
20
69.0946
0
VERTEX
8
CUT
10
88.2814
20
68.8524
0
VERTEX
8
CUT
10
87.6117
20
65.8723
0
VERTEX
8
CUT
10
87.5723
20
65.6503
0
VERTEX
8
CUT
10
87.1712
20
62.6021
0
VERTEX
8
CUT
10
87.1521
20
62.3826
0
VERTEX
8
CUT
10
87.0155
20
59.1822
0
VERTEX
8
CUT
10
87.0163
20
58.9510
0
VERTEX
8
CUT
10
87.1805
20
55.6600
0
VERTEX
8
CUT
10
87.1824
20
55.6256
0
VERTEX
8
CUT
10
87.1828
20
55.6193
0
VERTEX
8
CUT
10
87.1963
20
55.4747
0
VERTEX
8
CUT
10
87.6915
20
51.4269
0
VERTEX
8
CUT
10
87.7278
20
51.2098
0
VERTEX
8
CUT
10
88.4654
20
47.7466
0
VERTEX
8
CUT
10
88.5460
20
47.4556
0
VERTEX
8
CUT
10
89.4613
20
44.7895
0
VERTEX
8
CUT
10
89.5348
20
44.6005
0
VERTEX
8
CUT
10
89.6235
20
44.4182
0
VERTEX
8
CUT
10
90.6468
20
42.5132
0
VERTEX
8
CUT
10
90.7958
20
42.2702
0
VERTEX
8
CUT
10
90.9715
20
42.0457
0
VERTEX
8
CUT
10
91.9320
20
40.9530
0
VERTEX
8
CUT
10
92.1159
20
40.7648
0
VERTEX
8
CUT
10
92.3185
20
40.5970
0
VERTEX
8
CUT
10
92.5376
20
40.4514
0
VERTEX
8
CUT
10
93.3190
20
39.9895
0
VERTEX
8
CUT
10
93.5413
20
39.8727
0
VERTEX
8
CUT
10
93.7743
20
39.7788
0
VERTEX
8
CUT
10
94.0155
20
39.7088
0
VERTEX
8
CUT
10
94.2625
20
39.6633
0
VERTEX
8
CUT
10
94.9847
20
39.5675
0
VERTEX
8
CUT
10
95.2348
20
39.5471
0
VERTEX
8
CUT
10
95.4856
20
39.5518
0
VERTEX
8
CUT
10
95.7347
20
39.5816
0
VERTEX
8
CUT
10
95.9796
20
39.6362
0
VERTEX
8
CUT
10
97.0971
20
39.9452
0
VERTEX
8
CUT
10
97.3640
20
40.0355
0
VERTEX
8
CUT
10
97.6191
20
40.1553
0
VERTEX
8
CUT
10
97.9168
20
40.3161
0
VERTEX
8
CUT
10
98.1047
20
40.4285
0
VERTEX
8
CUT
10
98.2821
20
40.5570
0
VERTEX
8
CUT
10
98.4476
20
40.7005
0
VERTEX
8
CUT
10
99.4864
20
41.6843
0
VERTEX
8
CUT
10
99.6847
20
41.8952
0
VERTEX
8
CUT
10
99.8573
20
42.1276
0
VERTEX
8
CUT
10
101.2566
20
44.2596
0
VERTEX
8
CUT
10
101.4272
20
44.5639
0
VERTEX
8
CUT
10
105.2206
20
52.5968
0
VERTEX
8
CUT
10
105.3048
20
52.7643
0
VERTEX
8
CUT
10
105.3649
20
52.8766
0
VERTEX
8
CUT
10
105.4575
20
53.0397
0
VERTEX
8
CUT
10
107.3693
20
56.2204
0
VERTEX
8
CUT
10
107.4579
20
56.3607
0
VERTEX
8
CUT
10
107.4744
20
56.3854
0
VERTEX
8
CUT
10
107.6697
20
56.6536
0
VERTEX
8
CUT
10
107.6882
20
56.6767
0
VERTEX
8
CUT
10
107.7946
20
56.8041
0
VERTEX
8
CUT
10
110.2253
20
59.5854
0
VERTEX
8
CUT
10
110.3664
20
59.7382
0
VERTEX
8
CUT
10
110.4651
20
59.8392
0
VERTEX
8
CUT
10
110.6146
20
59.9839
0
VERTEX
8
CUT
10
111.9765
20
61.2316
0
VERTEX
8
CUT
10
112.1140
20
61.3515
0
VERTEX
8
CUT
10
112.2094
20
61.4307
0
VERTEX
8
CUT
10
112.3525
20
61.5438
0
VERTEX
8
CUT
10
116.8594
20
64.9296
0
VERTEX
8
CUT
10
117.0451
20
65.0837
0
VERTEX
8
CUT
10
117.2152
20
65.2551
0
VERTEX
8
CUT
10
117.3679
20
65.4420
0
VERTEX
8
CUT
10
117.5019
20
65.6428
0
VERTEX
8
CUT
10
117.6159
20
65.8556
0
VERTEX
8
CUT
10
117.7088
20
66.0784
0
VERTEX
8
CUT
10
117.7798
20
66.3091
0
VERTEX
8
CUT
10
117.8283
20
66.5456
0
VERTEX
8
CUT
10
117.8537
20
66.7856
0
VERTEX
8
CUT
10
117.8558
20
67.0270
0
VERTEX
8
CUT
10
117.8346
20
67.2675
0
VERTEX
8
CUT
10
117.7904
20
67.5048
0
VERTEX
8
CUT
10
117.7234
20
67.7367
0
VERTEX
8
CUT
10
117.6345
20
67.9611
0
VERTEX
8
CUT
10
117.5242
20
68.1759
0
VERTEX
8
CUT
10
117.3938
20
68.3790
0
VERTEX
8
CUT
10
117.2444
20
68.5686
0
VERTEX
8
CUT
10
117.0774
20
68.7430
0
VERTEX
8
CUT
10
116.8944
20
68.9003
0
VERTEX
8
CUT
10
116.6970
20
69.0394
0
VERTEX
8
CUT
10
116.4872
20
69.1587
0
VERTEX
8
CUT
10
116.2668
20
69.2572
0
VERTEX
8
CUT
10
116.0380
20
69.3340
0
VERTEX
8
CUT
10
115.8028
20
69.3884
0
VERTEX
8
CUT
10
115.5634
20
69.4199
0
VERTEX
8
CUT
10
115.3222
20
69.4281
0
VERTEX
8
CUT
10
115.0812
20
69.4130
0
VERTEX
8
CUT
10
114.6879
20
69.3692
0
VERTEX
8
CUT
10
114.3715
20
69.3660
0
VERTEX
8
CUT
10
114.0563
20
69.3947
0
VERTEX
8
CUT
10
113.7456
20
69.4548
0
VERTEX
8
CUT
10
113.4426
20
69.5459
0
VERTEX
8
CUT
10
113.1502
20
69.6669
0
VERTEX
8
CUT
10
112.8714
20
69.8168
0
VERTEX
8
CUT
10
112.5840
20
70.0109
0
VERTEX
8
CUT
10
112.5822
20
70.0122
0
VERTEX
8
CUT
10
112.5813
20
70.0110
0
VERTEX
8
CUT
10
112.4743
20
70.0920
0
VERTEX
8
CUT
10
112.2751
20
70.2152
0
VERTEX
8
CUT
10
112.0653
20
70.3193
0
VERTEX
8
CUT
10
111.8466
20
70.4032
0
VERTEX
8
CUT
10
111.6211
20
70.4664
0
VERTEX
8
CUT
10
111.3907
20
70.5081
0
VERTEX
8
CUT
10
111.1573
20
70.5281
0
VERTEX
8
CUT
10
110.9231
20
70.5262
0
VERTEX
8
CUT
10
110.6191
20
70.5094
0
VERTEX
8
CUT
10
110.3188
20
70.5216
0
VERTEX
8
CUT
10
110.0210
20
70.5624
0
VERTEX
8
CUT
10
109.7284
20
70.6314
0
VERTEX
8
CUT
10
109.4438
20
70.7280
0
VERTEX
8
CUT
10
109.1697
20
70.8514
0
VERTEX
8
CUT
10
108.9087
20
71.0004
0
VERTEX
8
CUT
10
108.6630
20
71.1736
0
VERTEX
8
CUT
10
108.4350
20
71.3695
0
VERTEX
8
CUT
10
108.2268
20
71.5862
0
VERTEX
8
CUT
10
108.0402
20
71.8218
0
VERTEX
8
CUT
10
107.8769
20
72.0742
0
VERTEX
8
CUT
10
107.7385
20
72.3410
0
VERTEX
8
CUT
10
107.6262
20
72.6198
0
VERTEX
8
CUT
10
107.5410
20
72.9081
0
VERTEX
8
CUT
10
107.4837
20
73.2031
0
VERTEX
8
CUT
10
107.4521
20
73.5311
0
VERTEX
8
CUT
10
107.4505
20
73.5631
0
VERTEX
8
CUT
10
107.4461
20
73.7423
0
VERTEX
8
CUT
10
107.4461
20
73.8261
0
VERTEX
8
CUT
10
107.4517
20
74.0327
0
VERTEX
8
CUT
10
107.4537
20
74.0696
0
VERTEX
8
CUT
10
107.4989
20
74.4803
0
VERTEX
8
CUT
10
107.5050
20
74.5167
0
VERTEX
8
CUT
10
107.5445
20
74.7196
0
VERTEX
8
CUT
10
107.7979
20
75.8528
0
VERTEX
8
CUT
10
107.8489
20
76.0545
0
VERTEX
8
CUT
10
107.8590
20
76.0902
0
VERTEX
8
CUT
10
107.9941
20
76.4834
0
VERTEX
8
CUT
10
108.0081
20
76.5178
0
VERTEX
8
CUT
10
108.0918
20
76.7082
0
VERTEX
8
CUT
10
108.4920
20
77.5540
0
VERTEX
8
CUT
10
108.8007
20
78.0980
0
VERTEX
8
CUT
10
108.8497
20
78.1844
0
VERTEX
8
CUT
10
108.8591
20
78.2010
0
VERTEX
8
CUT
10
109.1037
20
78.6321
0
VERTEX
8
CUT
10
109.3622
20
78.9937
0
VERTEX
8
CUT
10
109.4716
20
79.1390
0
VERTEX
8
CUT
10
109.5482
20
79.2359
0
VERTEX
8
CUT
10
109.6644
20
79.3757
0
VERTEX
8
CUT
10
112.9105
20
83.0943
0
VERTEX
8
CUT
10
113.0646
20
83.2896
0
VERTEX
8
CUT
10
113.1985
20
83.4992
0
VERTEX
8
CUT
10
113.3109
20
83.7211
0
VERTEX
8
CUT
10
113.4006
20
83.9531
0
VERTEX
8
CUT
10
113.4669
20
84.1929
0
VERTEX
8
CUT
10
113.5091
20
84.4380
0
VERTEX
8
CUT
10
113.5266
20
84.6862
0
VERTEX
8
CUT
10
113.5194
20
84.9348
0
VERTEX
8
CUT
10
113.4876
20
85.1815
0
VERTEX
8
CUT
10
113.4313
20
85.4238
0
VERTEX
8
CUT
10
113.3513
20
85.6594
0
VERTEX
8
CUT
10
113.2483
20
85.8858
0
VERTEX
8
CUT
10
113.1233
20
86.1008
0
VERTEX
8
CUT
10
112.9775
20
86.3024
0
VERTEX
8
CUT
10
112.8124
20
86.4885
0
VERTEX
8
CUT
10
112.6296
20
86.6572
0
VERTEX
8
CUT
10
112.4310
20
86.8070
0
VERTEX
8
CUT
10
112.2185
20
86.9362
0
VERTEX
8
CUT
10
112.0232
20
87.0298
0
VERTEX
8
CUT
10
110.9856
20
87.6170
0
VERTEX
8
CUT
10
110.5559
20
87.8601
0
VERTEX
8
CUT
10
110.5383
20
87.8701
0
VERTEX
8
CUT
10
110.3710
20
87.9647
0
VERTEX
8
CUT
10
109.3759
20
88.6515
0
VERTEX
8
CUT
10
109.2394
20
88.7503
0
VERTEX
8
CUT
10
109.2154
20
88.7685
0
VERTEX
8
CUT
10
108.9772
20
88.9667
0
VERTEX
8
CUT
10
108.7578
20
89.1854
0
VERTEX
8
CUT
10
108.7374
20
89.2076
0
VERTEX
8
CUT
10
108.6263
20
89.3344
0
VERTEX
8
CUT
10
104.4216
20
94.3566
0
VERTEX
8
CUT
10
104.1785
20
94.6088
0
VERTEX
8
CUT
10
103.1150
20
95.5673
0
VERTEX
8
CUT
10
102.9574
20
95.6981
0
VERTEX
8
CUT
10
102.7896
20
95.8155
0
VERTEX
8
CUT
10
102.6127
20
95.9188
0
VERTEX
8
CUT
10
101.9258
20
96.2831
0
VERTEX
8
CUT
10
101.6668
20
96.4021
0
VERTEX
8
CUT
10
101.3958
20
96.4909
0
VERTEX
8
CUT
10
101.1165
20
96.5482
0
VERTEX
8
CUT
10
100.5010
20
96.6383
0
VERTEX
8
CUT
10
100.2573
20
96.6619
0
VERTEX
8
CUT
10
100.0124
20
96.6615
0
VERTEX
8
CUT
10
99.7688
20
96.6371
0
VERTEX
8
CUT
10
99.5287
20
96.5890
0
VERTEX
8
CUT
10
99.2944
20
96.5177
0
VERTEX
8
CUT
10
99.0683
20
96.4238
0
VERTEX
8
CUT
10
98.8524
20
96.3082
0
VERTEX
8
CUT
10
98.6489
20
96.1721
0
VERTEX
8
CUT
10
98.4596
20
96.0167
0
VERTEX
8
CUT
10
98.2865
20
95.8435
0
VERTEX
8
CUT
10
98.1311
20
95.6543
0
VERTEX
8
CUT
10
97.9950
20
95.4507
0
VERTEX
8
CUT
10
97.8795
20
95.2348
0
VERTEX
8
CUT
10
97.7857
20
95.0086
0
VERTEX
8
CUT
10
97.7144
20
94.7744
0
VERTEX
8
CUT
10
97.6664
20
94.5342
0
VERTEX
8
CUT
10
97.6421
20
94.2906
0
VERTEX
8
CUT
10
97.6417
20
94.0457
0
VERTEX
8
CUT
10
97.6653
20
93.8020
0
VERTEX
8
CUT
10
97.7127
20
93.5617
0
VERTEX
8
CUT
10
97.7833
20
93.3273
0
VERTEX
8
CUT
10
97.8911
20
93.0240
0
VERTEX
8
CUT
10
97.9006
20
92.9923
0
VERTEX
8
CUT
10
97.9496
20
92.8137
0
VERTEX
8
CUT
10
98.2882
20
91.4462
0
VERTEX
8
CUT
10
98.3256
20
91.2788
0
VERTEX
8
CUT
10
98.3316
20
91.2488
0
VERTEX
8
CUT
10
98.3791
20
90.9371
0
VERTEX
8
CUT
10
98.3963
20
90.6499
0
VERTEX
8
CUT
10
98.3863
20
90.3348
0
VERTEX
8
CUT
10
98.3839
20
90.3043
0
VERTEX
8
CUT
10
98.3667
20
90.1336
0
VERTEX
8
CUT
10
98.1512
20
88.3932
0
VERTEX
8
CUT
10
98.1284
20
88.2361
0
VERTEX
8
CUT
10
98.1237
20
88.2081
0
VERTEX
8
CUT
10
98.0635
20
87.9226
0
VERTEX
8
CUT
10
97.9793
20
87.6432
0
VERTEX
8
CUT
10
97.9700
20
87.6164
0
VERTEX
8
CUT
10
97.9147
20
87.4676
0
SEQEND
0
POLYLINE
8
CUT
66
1
70
1
10
0.0
20
0.0
30
0.0
0
VERTEX
8
CUT
10
78.2589
20
184.8283
0
VERTEX
8
CUT
10
78.1428
20
184.6153
0
VERTEX
8
CUT
10
78.0480
20
184.3920
0
VERTEX
8
CUT
10
77.9752
20
184.1605
0
VERTEX
8
CUT
10
77.9252
20
183.9231
0
VERTEX
8
CUT
10
77.8985
20
183.6819
0
VERTEX
8
CUT
10
77.8953
20
183.4393
0
VERTEX
8
CUT
10
77.9156
20
183.1976
0
VERTEX
8
CUT
10
77.9592
20
182.9589
0
VERTEX
8
CUT
10
78.0258
20
182.7256
0
VERTEX
8
CUT
10
78.1147
20
182.4998
0
VERTEX
8
CUT
10
78.2250
20
182.2838
0
VERTEX
8
CUT
10
78.3558
20
182.0794
0
VERTEX
8
CUT
10
78.5057
20
181.8887
0
VERTEX
8
CUT
10
78.6735
20
181.7134
0
VERTEX
8
CUT
10
78.8574
20
181.5552
0
VERTEX
8
CUT
10
79.0558
20
181.4155
0
VERTEX
8
CUT
10
79.2668
20
181.2958
0
VERTEX
8
CUT
10
79.4884
20
181.1971
0
VERTEX
8
CUT
10
79.5990
20
181.1541
0
VERTEX
8
CUT
10
79.6345
20
181.1379
0
VERTEX
8
CUT
10
79.8311
20
181.0409
0
VERTEX
8
CUT
10
80.6740
20
180.5941
0
VERTEX
8
CUT
10
80.7709
20
180.5335
0
VERTEX
8
CUT
10
81.4818
20
180.1367
0
VERTEX
8
CUT
10
81.6152
20
180.0484
0
VERTEX
8
CUT
10
81.6414
20
180.0292
0
VERTEX
8
CUT
10
81.7855
20
179.9179
0
VERTEX
8
CUT
10
84.4978
20
177.7171
0
VERTEX
8
CUT
10
84.6920
20
177.5745
0
VERTEX
8
CUT
10
84.8991
20
177.4512
0
VERTEX
8
CUT
10
85.1170
20
177.3484
0
VERTEX
8
CUT
10
85.3439
20
177.2671
0
VERTEX
8
CUT
10
85.5775
20
177.2080
0
VERTEX
8
CUT
10
85.8157
20
177.1717
0
VERTEX
8
CUT
10
86.0563
20
177.1585
0
VERTEX
8
CUT
10
86.2971
20
177.1685
0
VERTEX
8
CUT
10
86.5358
20
177.2017
0
VERTEX
8
CUT
10
86.7702
20
177.2576
0
VERTEX
8
CUT
10
86.9981
20
177.3359
0
VERTEX
8
CUT
10
87.2174
20
177.4358
0
VERTEX
8
CUT
10
87.4261
20
177.5563
0
VERTEX
8
CUT
10
87.6222
20
177.6963
0
VERTEX
8
CUT
10
87.8039
20
177.8546
0
VERTEX
8
CUT
10
87.9696
20
178.0296
0
VERTEX
8
CUT
10
88.1176
20
178.2198
0
VERTEX
8
CUT
10
88.2466
20
178.4233
0
VERTEX
8
CUT
10
88.3554
20
178.6383
0
VERTEX
8
CUT
10
88.4430
20
178.8628
0
VERTEX
8
CUT
10
88.5086
20
179.0947
0
VERTEX
8
CUT
10
88.5516
20
179.3318
0
VERTEX
8
CUT
10
88.5715
20
179.5720
0
VERTEX
8
CUT
10
88.5682
20
179.8129
0
VERTEX
8
CUT
10
88.5418
20
180.0525
0
VERTEX
8
CUT
10
88.4923
20
180.2883
0
VERTEX
8
CUT
10
88.4205
20
180.5183
0
VERTEX
8
CUT
10
88.3309
20
180.7306
0
VERTEX
8
CUT
10
88.2220
20
181.0312
0
VERTEX
8
CUT
10
88.1450
20
181.3363
0
VERTEX
8
CUT
10
88.0988
20
181.6475
0
VERTEX
8
CUT
10
88.0826
20
181.9920
0
VERTEX
8
CUT
10
88.0826
20
182.0255
0
VERTEX
8
CUT
10
88.0879
20
182.2130
0
VERTEX
8
CUT
10
88.1416
20
183.2273
0
VERTEX
8
CUT
10
88.1435
20
183.4489
0
VERTEX
8
CUT
10
88.1258
20
183.6698
0
VERTEX
8
CUT
10
88.0886
20
183.8882
0
VERTEX
8
CUT
10
87.1708
20
188.1300
0
VERTEX
8
CUT
10
87.1328
20
188.3327
0
VERTEX
8
CUT
10
87.1107
20
188.4710
0
VERTEX
8
CUT
10
87.0839
20
188.6755
0
VERTEX
8
CUT
10
86.6167
20
193.1921
0
VERTEX
8
CUT
10
86.5994
20
193.4377
0
VERTEX
8
CUT
10
86.5932
20
193.6047
0
VERTEX
8
CUT
10
86.5920
20
193.8509
0
VERTEX
8
CUT
10
86.6634
20
196.3710
0
VERTEX
8
CUT
10
86.6727
20
196.5494
0
VERTEX
8
CUT
10
86.6751
20
196.5813
0
VERTEX
8
CUT
10
86.7191
20
196.9357
0
VERTEX
8
CUT
10
86.7246
20
196.9672
0
VERTEX
8
CUT
10
86.7592
20
197.1425
0
VERTEX
8
CUT
10
87.1338
20
198.8266
0
VERTEX
8
CUT
10
87.1755
20
198.9955
0
VERTEX
8
CUT
10
87.1837
20
199.0255
0
VERTEX
8
CUT
10
87.2817
20
199.3298
0
VERTEX
8
CUT
10
87.3965
20
199.5980
0
VERTEX
8
CUT
10
87.5356
20
199.8543
0
VERTEX
8
CUT
10
87.6979
20
200.0967
0
VERTEX
8
CUT
10
87.8820
20
200.3230
0
VERTEX
8
CUT
10
88.0862
20
200.5313
0
VERTEX
8
CUT
10
88.3088
20
200.7198
0
VERTEX
8
CUT
10
88.4019
20
200.7848
0
VERTEX
8
CUT
10
88.6039
20
200.9419
0
VERTEX
8
CUT
10
88.7888
20
201.1188
0
VERTEX
8
CUT
10
88.9546
20
201.3136
0
VERTEX
8
CUT
10
89.0996
20
201.5244
0
VERTEX
8
CUT
10
89.2224
20
201.7489
0
VERTEX
8
CUT
10
89.3215
20
201.9848
0
VERTEX
8
CUT
10
90.5707
20
205.4419
0
VERTEX
8
CUT
10
90.6508
20
205.6449
0
VERTEX
8
CUT
10
90.7091
20
205.7810
0
VERTEX
8
CUT
10
90.8009
20
205.9789
0
VERTEX
8
CUT
10
91.4065
20
207.1918
0
VERTEX
8
CUT
10
91.5043
20
207.4142
0
VERTEX
8
CUT
10
91.5801
20
207.6451
0
VERTEX
8
CUT
10
91.6332
20
207.8822
0
VERTEX
8
CUT
10
91.6629
20
208.1234
0
VERTEX
8
CUT
10
91.6691
20
208.3663
0
VERTEX
8
CUT
10
91.6517
20
208.6087
0
VERTEX
8
CUT
10
91.6109
20
208.8483
0
VERTEX
8
CUT
10
91.5469
20
209.0827
0
VERTEX
8
CUT
10
91.4605
20
209.3099
0
VERTEX
8
CUT
10
91.3525
20
209.5275
0
VERTEX
8
CUT
10
91.2238
20
209.7337
0
VERTEX
8
CUT
10
91.0758
20
209.9264
0
VERTEX
8
CUT
10
90.9097
20
210.1038
0
VERTEX
8
CUT
10
90.7272
20
210.2642
0
VERTEX
8
CUT
10
90.5300
20
210.4062
0
VERTEX
8
CUT
10
90.3199
20
210.5283
0
VERTEX
8
CUT
10
90.0989
20
210.6295
0
VERTEX
8
CUT
10
89.8692
20
210.7088
0
VERTEX
8
CUT
10
89.6329
20
210.7653
0
VERTEX
8
CUT
10
89.3922
20
210.7987
0
VERTEX
8
CUT
10
89.1494
20
210.8085
0
VERTEX
8
CUT
10
88.9067
20
210.7947
0
VERTEX
8
CUT
10
88.6666
20
210.7574
0
VERTEX
8
CUT
10
88.4312
20
210.6970
0
VERTEX
8
CUT
10
88.2028
20
210.6140
0
VERTEX
8
CUT
10
87.9836
20
210.5092
0
VERTEX
8
CUT
10
87.7755
20
210.3837
0
VERTEX
8
CUT
10
87.5806
20
210.2385
0
VERTEX
8
CUT
10
87.4468
20
210.1283
0
VERTEX
8
CUT
10
87.4209
20
210.1090
0
VERTEX
8
CUT
10
87.2732
20
210.0043
0
VERTEX
8
CUT
10
85.3524
20
208.7117
0
VERTEX
8
CUT
10
85.1680
20
208.5953
0
VERTEX
8
CUT
10
85.1345
20
208.5755
0
VERTEX
8
CUT
10
84.7470
20
208.3757
0
VERTEX
8
CUT
10
84.7115
20
208.3600
0
VERTEX
8
CUT
10
84.5097
20
208.2773
0
VERTEX
8
CUT
10
83.3101
20
207.8263
0
VERTEX
8
CUT
10
83.1628
20
207.7744
0
VERTEX
8
CUT
10
83.1362
20
207.7656
0
VERTEX
8
CUT
10
82.8356
20
207.6804
0
VERTEX
8
CUT
10
82.8084
20
207.6739
0
VERTEX
8
CUT
10
82.6557
20
207.6407
0
VERTEX
8
CUT
10
80.9260
20
207.3028
0
VERTEX
8
CUT
10
80.7520
20
207.2730
0
VERTEX
8
CUT
10
80.7207
20
207.2684
0
VERTEX
8
CUT
10
80.3978
20
207.2364
0
VERTEX
8
CUT
10
80.0732
20
207.2349
0
VERTEX
8
CUT
10
80.0417
20
207.2363
0
VERTEX
8
CUT
10
79.8655
20
207.2479
0
VERTEX
8
CUT
10
78.2650
20
207.3917
0
VERTEX
8
CUT
10
78.0215
20
207.4016
0
VERTEX
8
CUT
10
77.7782
20
207.3878
0
VERTEX
8
CUT
10
77.5373
20
207.3504
0
VERTEX
8
CUT
10
77.3013
20
207.2897
0
VERTEX
8
CUT
10
77.0723
20
207.2063
0
VERTEX
8
CUT
10
76.8525
20
207.1010
0
VERTEX
8
CUT
10
76.6440
20
206.9748
0
VERTEX
8
CUT
10
76.4488
20
206.8289
0
VERTEX
8
CUT
10
76.2687
20
206.6647
0
VERTEX
8
CUT
10
76.1055
20
206.4837
0
VERTEX
8
CUT
10
75.9607
20
206.2877
0
VERTEX
8
CUT
10
75.8356
20
206.0785
0
VERTEX
8
CUT
10
75.7315
20
205.8582
0
VERTEX
8
CUT
10
75.6494
20
205.6287
0
VERTEX
8
CUT
10
75.4580
20
204.9993
0
VERTEX
8
CUT
10
75.3972
20
204.7555
0
VERTEX
8
CUT
10
75.3610
20
204.5069
0
VERTEX
8
CUT
10
75.3501
20
204.2559
0
VERTEX
8
CUT
10
75.3643
20
204.0051
0
VERTEX
8
CUT
10
75.5289
20
202.4743
0
VERTEX
8
CUT
10
75.5709
20
202.2139
0
VERTEX
8
CUT
10
75.6401
20
201.9594
0
VERTEX
8
CUT
10
76.5484
20
199.2016
0
VERTEX
8
CUT
10
76.6467
20
198.9499
0
VERTEX
8
CUT
10
78.1300
20
195.6840
0
VERTEX
8
CUT
10
78.1845
20
195.5578
0
VERTEX
8
CUT
10
78.2200
20
195.4713
0
VERTEX
8
CUT
10
78.2699
20
195.3432
0
VERTEX
8
CUT
10
79.5393
20
191.8977
0
VERTEX
8
CUT
10
79.5866
20
191.7610
0
VERTEX
8
CUT
10
79.5947
20
191.7363
0
VERTEX
8
CUT
10
79.6734
20
191.4579
0
VERTEX
8
CUT
10
79.6795
20
191.4327
0
VERTEX
8
CUT
10
79.7108
20
191.2915
0
VERTEX
8
CUT
10
79.9798
20
189.9548
0
VERTEX
8
CUT
10
80.0170
20
189.7376
0
VERTEX
8
CUT
10
80.0224
20
189.6987
0
VERTEX
8
CUT
10
80.0581
20
189.2596
0
VERTEX
8
CUT
10
80.0590
20
189.2204
0
VERTEX
8
CUT
10
80.0574
20
189.0000
0
VERTEX
8
CUT
10
80.0176
20
187.9133
0
VERTEX
8
CUT
10
80.0061
20
187.7263
0
VERTEX
8
CUT
10
80.0032
20
187.6930
0
VERTEX
8
CUT
10
79.9564
20
187.3520
0
VERTEX
8
CUT
10
79.8829
20
187.0467
0
VERTEX
8
CUT
10
79.7793
20
186.7503
0
VERTEX
8
CUT
10
79.6466
20
186.4657
0
VERTEX
8
CUT
10
79.4863
20
186.1957
0
VERTEX
8
CUT
10
79.2998
20
185.9431
0
VERTEX
8
CUT
10
79.0890
20
185.7104
0
VERTEX
8
CUT
10
78.8337
20
185.4795
0
VERTEX
8
CUT
10
78.8320
20
185.4782
0
VERTEX
8
CUT
10
78.8331
20
185.4768
0
VERTEX
8
CUT
10
78.7224
20
185.3866
0
VERTEX
8
CUT
10
78.5500
20
185.2158
0
VERTEX
8
CUT
10
78.3950
20
185.0291
0
SEQEND
0
POLYLINE
8
CUT
66
1
70
1
10
0.0
20
0.0
30
0.0
0
VERTEX
8
CUT
10
81.2536
20
96.4307
0
VERTEX
8
CUT
10
81.0553
20
96.5726
0
VERTEX
8
CUT
10
80.8440
20
96.6946
0
VERTEX
8
CUT
10
80.6220
20
96.7954
0
VERTEX
8
CUT
10
80.3911
20
96.8740
0
VERTEX
8
CUT
10
80.1537
20
96.9298
0
VERTEX
8
CUT
10
79.9119
20
96.9622
0
VERTEX
8
CUT
10
79.6682
20
96.9709
0
VERTEX
8
CUT
10
79.4248
20
96.9558
0
VERTEX
8
CUT
10
79.1840
20
96.9171
0
VERTEX
8
CUT
10
78.9481
20
96.8551
0
VERTEX
8
CUT
10
78.7194
20
96.7703
0
VERTEX
8
CUT
10
78.5000
20
96.6637
0
VERTEX
8
CUT
10
78.2921
20
96.5363
0
VERTEX
8
CUT
10
78.0976
20
96.3892
0
VERTEX
8
CUT
10
77.9183
20
96.2238
0
VERTEX
8
CUT
10
77.7560
20
96.0417
0
VERTEX
8
CUT
10
77.6122
20
95.8447
0
VERTEX
8
CUT
10
77.4883
20
95.6346
0
VERTEX
8
CUT
10
77.3855
20
95.4135
0
VERTEX
8
CUT
10
77.3047
20
95.1834
0
VERTEX
8
CUT
10
77.2467
20
94.9465
0
VERTEX
8
CUT
10
77.2120
20
94.7050
0
VERTEX
8
CUT
10
77.2011
20
94.4614
0
VERTEX
8
CUT
10
77.2139
20
94.2178
0
VERTEX
8
CUT
10
77.2505
20
93.9767
0
VERTEX
8
CUT
10
77.3913
20
93.2784
0
VERTEX
8
CUT
10
77.4201
20
93.1181
0
VERTEX
8
CUT
10
77.4372
20
93.0087
0
VERTEX
8
CUT
10
77.4590
20
92.8473
0
VERTEX
8
CUT
10
77.7009
20
90.7009
0
VERTEX
8
CUT
10
77.7185
20
90.4920
0
VERTEX
8
CUT
10
77.7265
20
90.3499
0
VERTEX
8
CUT
10
77.7325
20
90.1404
0
VERTEX
8
CUT
10
77.7330
20
88.6922
0
VERTEX
8
CUT
10
77.7449
20
88.4504
0
VERTEX
8
CUT
10
77.7800
20
88.2108
0
VERTEX
8
CUT
10
77.8382
20
87.9758
0
VERTEX
8
CUT
10
77.9188
20
87.7475
0
VERTEX
8
CUT
10
78.0211
20
87.5281
0
VERTEX
8
CUT
10
78.1442
20
87.3196
0
VERTEX
8
CUT
10
78.2868
20
87.1240
0
VERTEX
8
CUT
10
78.4478
20
86.9431
0
VERTEX
8
CUT
10
78.6254
20
86.7786
0
VERTEX
8
CUT
10
78.8182
20
86.6321
0
VERTEX
8
CUT
10
79.0242
20
86.5049
0
VERTEX
8
CUT
10
79.2415
20
86.3982
0
VERTEX
8
CUT
10
79.4681
20
86.3131
0
VERTEX
8
CUT
10
79.7020
20
86.2502
0
VERTEX
8
CUT
10
79.9408
20
86.2103
0
VERTEX
8
CUT
10
80.1823
20
86.1937
0
VERTEX
8
CUT
10
80.4243
20
86.2005
0
VERTEX
8
CUT
10
80.6645
20
86.2307
0
VERTEX
8
CUT
10
80.9007
20
86.2840
0
VERTEX
8
CUT
10
81.1306
20
86.3599
0
VERTEX
8
CUT
10
81.3521
20
86.4576
0
VERTEX
8
CUT
10
81.5631
20
86.5764
0
VERTEX
8
CUT
10
81.7616
20
86.7149
0
VERTEX
8
CUT
10
81.9458
20
86.8721
0
VERTEX
8
CUT
10
82.1139
20
87.0463
0
VERTEX
8
CUT
10
82.2644
20
87.2360
0
VERTEX
8
CUT
10
82.3958
20
87.4393
0
VERTEX
8
CUT
10
82.5070
20
87.6544
0
VERTEX
8
CUT
10
82.5348
20
87.7153
0
VERTEX
8
CUT
10
82.5483
20
87.7431
0
VERTEX
8
CUT
10
82.7002
20
88.0226
0
VERTEX
8
CUT
10
82.8772
20
88.2869
0
VERTEX
8
CUT
10
82.8956
20
88.3118
0
VERTEX
8
CUT
10
83.0016
20
88.4486
0
VERTEX
8
CUT
10
83.6450
20
89.2404
0
VERTEX
8
CUT
10
83.7897
20
89.4374
0
VERTEX
8
CUT
10
83.9144
20
89.6475
0
VERTEX
8
CUT
10
84.0180
20
89.8688
0
VERTEX
8
CUT
10
84.0996
20
90.0992
0
VERTEX
8
CUT
10
84.1582
20
90.3364
0
VERTEX
8
CUT
10
84.1934
20
90.5783
0
VERTEX
8
CUT
10
84.2048
20
90.8224
0
VERTEX
8
CUT
10
84.1924
20
91.0664
0
VERTEX
8
CUT
10
84.1561
20
91.3081
0
VERTEX
8
CUT
10
84.0965
20
91.5451
0
VERTEX
8
CUT
10
84.0464
20
91.7096
0
VERTEX
8
CUT
10
83.9545
20
91.9619
0
VERTEX
8
CUT
10
83.8361
20
92.2028
0
VERTEX
8
CUT
10
81.8825
20
95.6924
0
VERTEX
8
CUT
10
81.7531
20
95.8992
0
VERTEX
8
CUT
10
81.6042
20
96.0923
0
VERTEX
8
CUT
10
81.4371
20
96.2701
0
SEQEND
0
POLYLINE
8
CUT
66
1
70
1
10
0.0
20
0.0
30
0.0
0
VERTEX
8
CUT
10
38.5820
20
167.9163
0
VERTEX
8
CUT
10
38.6424
20
167.6776
0
VERTEX
8
CUT
10
38.7259
20
167.4460
0
VERTEX
8
CUT
10
39.4709
20
165.6621
0
VERTEX
8
CUT
10
39.5605
20
165.4706
0
VERTEX
8
CUT
10
39.6660
20
165.2873
0
VERTEX
8
CUT
10
40.2223
20
164.4094
0
VERTEX
8
CUT
10
40.4170
20
164.1429
0
VERTEX
8
CUT
10
42.5993
20
161.5357
0
VERTEX
8
CUT
10
42.6220
20
161.5089
0
VERTEX
8
CUT
10
42.6262
20
161.5041
0
VERTEX
8
CUT
10
42.7263
20
161.3946
0
VERTEX
8
CUT
10
52.0587
20
151.7766
0
VERTEX
8
CUT
10
52.2105
20
151.6105
0
VERTEX
8
CUT
10
52.3101
20
151.4946
0
VERTEX
8
CUT
10
52.4517
20
151.3197
0
VERTEX
8
CUT
10
55.3261
20
147.5409
0
VERTEX
8
CUT
10
55.4831
20
147.3181
0
VERTEX
8
CUT
10
55.5840
20
147.1633
0
VERTEX
8
CUT
10
55.7244
20
146.9297
0
VERTEX
8
CUT
10
57.0042
20
144.6142
0
VERTEX
8
CUT
10
57.0860
20
144.4576
0
VERTEX
8
CUT
10
57.1391
20
144.3499
0
VERTEX
8
CUT
10
57.2134
20
144.1895
0
VERTEX
8
CUT
10
58.0353
20
142.3019
0
VERTEX
8
CUT
10
58.1094
20
142.1187
0
VERTEX
8
CUT
10
58.1564
20
141.9930
0
VERTEX
8
CUT
10
58.2207
20
141.8061
0
VERTEX
8
CUT
10
58.7257
20
140.2035
0
VERTEX
8
CUT
10
58.7845
20
139.9961
0
VERTEX
8
CUT
10
58.8204
20
139.8542
0
VERTEX
8
CUT
10
58.8673
20
139.6437
0
VERTEX
8
CUT
10
59.1442
20
138.2054
0
VERTEX
8
CUT
10
59.1691
20
138.0609
0
VERTEX
8
CUT
10
59.1731
20
138.0349
0
VERTEX
8
CUT
10
59.2059
20
137.7435
0
VERTEX
8
CUT
10
59.2078
20
137.7172
0
VERTEX
8
CUT
10
59.2156
20
137.5708
0
VERTEX
8
CUT
10
59.2560
20
136.3745
0
VERTEX
8
CUT
10
59.2578
20
136.1986
0
VERTEX
8
CUT
10
59.2574
20
136.1672
0
VERTEX
8
CUT
10
59.2363
20
135.8161
0
VERTEX
8
CUT
10
59.2329
20
135.7849
0
VERTEX
8
CUT
10
59.2100
20
135.6105
0
VERTEX
8
CUT
10
59.0450
20
134.5467
0
VERTEX
8
CUT
10
59.0144
20
134.3757
0
VERTEX
8
CUT
10
59.0082
20
134.3453
0
VERTEX
8
CUT
10
58.9235
20
134.0085
0
VERTEX
8
CUT
10
58.9145
20
133.9788
0
VERTEX
8
CUT
10
58.8605
20
133.8137
0
VERTEX
8
CUT
10
58.5486
20
132.9296
0
VERTEX
8
CUT
10
58.4838
20
132.7594
0
VERTEX
8
CUT
10
58.4715
20
132.7292
0
VERTEX
8
CUT
10
58.3176
20
132.3992
0
VERTEX
8
CUT
10
58.3025
20
132.3704
0
VERTEX
8
CUT
10
58.2137
20
132.2114
0
VERTEX
8
CUT
10
57.7589
20
131.4415
0
VERTEX
8
CUT
10
57.6584
20
131.2808
0
VERTEX
8
CUT
10
57.6398
20
131.2526
0
VERTEX
8
CUT
10
57.4152
20
130.9476
0
VERTEX
8
CUT
10
57.3938
20
130.9214
0
VERTEX
8
CUT
10
57.2703
20
130.7777
0
VERTEX
8
CUT
10
56.5093
20
129.9370
0
VERTEX
8
CUT
10
56.4141
20
129.8357
0
VERTEX
8
CUT
10
56.3967
20
129.8178
0
VERTEX
8
CUT
10
56.1953
20
129.6261
0
VERTEX
8
CUT
10
56.1767
20
129.6096
0
VERTEX
8
CUT
10
56.0708
20
129.5194
0
VERTEX
8
CUT
10
55.1071
20
128.7292
0
VERTEX
8
CUT
10
54.8930
20
128.5662
0
VERTEX
8
CUT
10
54.7439
20
128.4609
0
VERTEX
8
CUT
10
54.5188
20
128.3136
0
VERTEX
8
CUT
10
54.4858
20
128.2937
0
VERTEX
8
CUT
10
54.2896
20
128.1831
0
VERTEX
8
CUT
10
54.2541
20
128.1645
0
VERTEX
8
CUT
10
53.8437
20
127.9797
0
VERTEX
8
CUT
10
53.8062
20
127.9654
0
VERTEX
8
CUT
10
53.5934
20
127.8918
0
VERTEX
8
CUT
10
52.7613
20
127.6317
0
VERTEX
8
CUT
10
52.5540
20
127.5734
0
VERTEX
8
CUT
10
52.5168
20
127.5640
0
VERTEX
8
CUT
10
52.0941
20
127.4835
0
VERTEX
8
CUT
10
52.0560
20
127.4785
0
VERTEX
8
CUT
10
51.8419
20
127.4566
0
VERTEX
8
CUT
10
45.3068
20
126.9767
0
VERTEX
8
CUT
10
44.9998
20
126.9349
0
VERTEX
8
CUT
10
43.9703
20
126.7291
0
VERTEX
8
CUT
10
43.7278
20
126.6679
0
VERTEX
8
CUT
10
43.4927
20
126.5828
0
VERTEX
8
CUT
10
43.2673
20
126.4746
0
VERTEX
8
CUT
10
42.5424
20
126.0809
0
VERTEX
8
CUT
10
42.3393
20
125.9578
0
VERTEX
8
CUT
10
42.1488
20
125.8159
0
VERTEX
8
CUT
10
41.9726
20
125.6566
0
VERTEX
8
CUT
10
41.3144
20
125.0020
0
VERTEX
8
CUT
10
41.1557
20
124.8286
0
VERTEX
8
CUT
10
41.0140
20
124.6411
0
VERTEX
8
CUT
10
40.8905
20
124.4410
0
VERTEX
8
CUT
10
40.7864
20
124.2303
0
VERTEX
8
CUT
10
40.6665
20
123.9560
0
VERTEX
8
CUT
10
40.5821
20
123.7349
0
VERTEX
8
CUT
10
40.5190
20
123.5068
0
VERTEX
8
CUT
10
40.4778
20
123.2738
0
VERTEX
8
CUT
10
40.4092
20
122.7401
0
VERTEX
8
CUT
10
40.3888
20
122.4405
0
VERTEX
8
CUT
10
40.4045
20
122.1407
0
VERTEX
8
CUT
10
40.4772
20
121.4980
0
VERTEX
8
CUT
10
40.5221
20
121.2307
0
VERTEX
8
CUT
10
40.5958
20
120.9699
0
VERTEX
8
CUT
10
40.7510
20
120.5160
0
VERTEX
8
CUT
10
40.8565
20
120.2560
0
VERTEX
8
CUT
10
40.9905
20
120.0094
0
VERTEX
8
CUT
10
41.1514
20
119.7794
0
VERTEX
8
CUT
10
42.0703
20
118.6109
0
VERTEX
8
CUT
10
42.2466
20
118.4099
0
VERTEX
8
CUT
10
42.4433
20
118.2289
0
VERTEX
8
CUT
10
42.6582
20
118.0699
0
VERTEX
8
CUT
10
43.1236
20
117.7626
0
VERTEX
8
CUT
10
43.3276
20
117.6415
0
VERTEX
8
CUT
10
43.5422
20
117.5402
0
VERTEX
8
CUT
10
43.7653
20
117.4597
0
VERTEX
8
CUT
10
45.7338
20
116.8538
0
VERTEX
8
CUT
10
46.0087
20
116.7859
0
VERTEX
8
CUT
10
46.2895
20
116.7496
0
VERTEX
8
CUT
10
47.4378
20
116.6668
0
VERTEX
8
CUT
10
47.6388
20
116.6604
0
VERTEX
8
CUT
10
47.8398
20
116.6702
0
VERTEX
8
CUT
10
50.0317
20
116.8658
0
VERTEX
8
CUT
10
50.3277
20
116.9102
0
VERTEX
8
CUT
10
55.7916
20
118.0678
0
VERTEX
8
CUT
10
55.9382
20
118.0958
0
VERTEX
8
CUT
10
56.0382
20
118.1129
0
VERTEX
8
CUT
10
56.1858
20
118.1351
0
VERTEX
8
CUT
10
59.7266
20
118.5949
0
VERTEX
8
CUT
10
59.8875
20
118.6123
0
VERTEX
8
CUT
10
59.9163
20
118.6148
0
VERTEX
8
CUT
10
60.2394
20
118.6287
0
VERTEX
8
CUT
10
60.2684
20
118.6287
0
VERTEX
8
CUT
10
60.4301
20
118.6251
0
VERTEX
8
CUT
10
63.0403
20
118.5117
0
VERTEX
8
CUT
10
63.2415
20
118.4975
0
VERTEX
8
CUT
10
63.2773
20
118.4941
0
VERTEX
8
CUT
10
63.6758
20
118.4334
0
VERTEX
8
CUT
10
63.7111
20
118.4261
0
VERTEX
8
CUT
10
63.9073
20
118.3798
0
VERTEX
8
CUT
10
66.2632
20
117.7567
0
VERTEX
8
CUT
10
66.4603
20
117.6988
0
VERTEX
8
CUT
10
66.4951
20
117.6875
0
VERTEX
8
CUT
10
66.8783
20
117.5397
0
VERTEX
8
CUT
10
66.9117
20
117.5246
0
VERTEX
8
CUT
10
67.0966
20
117.4352
0
VERTEX
8
CUT
10
67.7092
20
117.1180
0
VERTEX
8
CUT
10
67.8694
20
117.0301
0
VERTEX
8
CUT
10
67.8976
20
117.0137
0
VERTEX
8
CUT
10
68.1795
20
116.8309
0
VERTEX
8
CUT
10
68.4192
20
116.6399
0
VERTEX
8
CUT
10
68.6392
20
116.4265
0
VERTEX
8
CUT
10
68.8374
20
116.1927
0
VERTEX
8
CUT
10
69.0118
20
115.9407
0
VERTEX
8
CUT
10
69.1609
20
115.6729
0
VERTEX
8
CUT
10
69.2832
20
115.3919
0
VERTEX
8
CUT
10
69.3776
20
115.1003
0
VERTEX
8
CUT
10
69.4432
20
114.8009
0
VERTEX
8
CUT
10
69.4793
20
114.4966
0
VERTEX
8
CUT
10
69.4856
20
114.1902
0
VERTEX
8
CUT
10
69.4621
20
113.8846
0
VERTEX
8
CUT
10
69.4089
20
113.5828
0
VERTEX
8
CUT
10
69.3266
20
113.2875
0
VERTEX
8
CUT
10
69.2159
20
113.0017
0
VERTEX
8
CUT
10
69.0780
20
112.7280
0
VERTEX
8
CUT
10
68.9140
20
112.4691
0
VERTEX
8
CUT
10
68.7076
20
112.2041
0
VERTEX
8
CUT
10
68.7062
20
112.2025
0
VERTEX
8
CUT
10
68.7072
20
112.2016
0
VERTEX
8
CUT
10
68.6106
20
112.0895
0
VERTEX
8
CUT
10
68.4725
20
111.8944
0
VERTEX
8
CUT
10
68.3537
20
111.6870
0
VERTEX
8
CUT
10
68.2552
20
111.4693
0
VERTEX
8
CUT
10
68.1780
20
111.2431
0
VERTEX
8
CUT
10
68.1227
20
111.0106
0
VERTEX
8
CUT
10
68.0899
20
110.7739
0
VERTEX
8
CUT
10
68.0798
20
110.5351
0
VERTEX
8
CUT
10
68.0926
20
110.2965
0
VERTEX
8
CUT
10
68.1281
20
110.0602
0
VERTEX
8
CUT
10
68.1860
20
109.8283
0
VERTEX
8
CUT
10
68.2658
20
109.6030
0
VERTEX
8
CUT
10
68.3667
20
109.3864
0
VERTEX
8
CUT
10
68.4878
20
109.1804
0
VERTEX
8
CUT
10
68.6281
20
108.9869
0
VERTEX
8
CUT
10
68.7862
20
108.8077
0
VERTEX
8
CUT
10
68.9607
20
108.6444
0
VERTEX
8
CUT
10
69.1500
20
108.4985
0
VERTEX
8
CUT
10
70.0209
20
107.8913
0
VERTEX
8
CUT
10
70.1768
20
107.7765
0
VERTEX
8
CUT
10
70.2041
20
107.7553
0
VERTEX
8
CUT
10
70.4970
20
107.5025
0
VERTEX
8
CUT
10
70.5219
20
107.4786
0
VERTEX
8
CUT
10
70.6582
20
107.3412
0
VERTEX
8
CUT
10
72.5672
20
105.3143
0
VERTEX
8
CUT
10
72.7167
20
105.1457
0
VERTEX
8
CUT
10
72.8147
20
105.0283
0
VERTEX
8
CUT
10
72.9538
20
104.8510
0
VERTEX
8
CUT
10
73.5829
20
103.9976
0
VERTEX
8
CUT
10
73.7327
20
103.7785
0
VERTEX
8
CUT
10
73.8291
20
103.6264
0
VERTEX
8
CUT
10
73.9631
20
103.3972
0
VERTEX
8
CUT
10
74.9146
20
101.6288
0
VERTEX
8
CUT
10
75.0394
20
101.4217
0
VERTEX
8
CUT
10
75.1836
20
101.2275
0
VERTEX
8
CUT
10
75.3459
20
101.0482
0
VERTEX
8
CUT
10
75.5247
20
100.8854
0
VERTEX
8
CUT
10
75.7185
20
100.7406
0
VERTEX
8
CUT
10
75.9253
20
100.6153
0
VERTEX
8
CUT
10
76.1433
20
100.5105
0
VERTEX
8
CUT
10
76.3704
20
100.4273
0
VERTEX
8
CUT
10
76.6045
20
100.3664
0
VERTEX
8
CUT
10
76.8433
20
100.3284
0
VERTEX
8
CUT
10
77.0847
20
100.3137
0
VERTEX
8
CUT
10
77.3264
20
100.3223
0
VERTEX
8
CUT
10
77.5662
20
100.3543
0
VERTEX
8
CUT
10
77.8017
20
100.4093
0
VERTEX
8
CUT
10
78.0308
20
100.4868
0
VERTEX
8
CUT
10
78.2513
20
100.5861
0
VERTEX
8
CUT
10
78.4612
20
100.7062
0
VERTEX
8
CUT
10
78.6586
20
100.8460
0
VERTEX
8
CUT
10
78.8415
20
101.0043
0
VERTEX
8
CUT
10
79.0082
20
101.1794
0
VERTEX
8
CUT
10
79.1573
20
101.3699
0
VERTEX
8
CUT
10
79.2872
20
101.5739
0
VERTEX
8
CUT
10
79.3968
20
101.7895
0
VERTEX
8
CUT
10
79.4851
20
102.0147
0
VERTEX
8
CUT
10
79.5512
20
102.2473
0
VERTEX
8
CUT
10
79.5945
20
102.4853
0
VERTEX
8
CUT
10
79.6146
20
102.7263
0
VERTEX
8
CUT
10
79.6113
20
102.9681
0
VERTEX
8
CUT
10
79.6089
20
103.0067
0
VERTEX
8
CUT
10
79.6027
20
103.1567
0
VERTEX
8
CUT
10
79.6021
20
103.1835
0
VERTEX
8
CUT
10
79.6075
20
103.4835
0
VERTEX
8
CUT
10
79.6091
20
103.5103
0
VERTEX
8
CUT
10
79.6208
20
103.6599
0
VERTEX
8
CUT
10
79.7343
20
104.8124
0
VERTEX
8
CUT
10
79.7547
20
104.9801
0
VERTEX
8
CUT
10
79.7590
20
105.0100
0
VERTEX
8
CUT
10
79.8222
20
105.3417
0
VERTEX
8
CUT
10
79.8292
20
105.3711
0
VERTEX
8
CUT
10
79.8719
20
105.5346
0
VERTEX
8
CUT
10
80.1486
20
106.5024
0
VERTEX
8
CUT
10
80.1729
20
106.5802
0
VERTEX
8
CUT
10
80.3504
20
107.0536
0
VERTEX
8
CUT
10
80.3587
20
107.0721
0
VERTEX
8
CUT
10
80.4371
20
107.2353
0
VERTEX
8
CUT
10
80.8087
20
107.9642
0
VERTEX
8
CUT
10
80.8813
20
108.0997
0
VERTEX
8
CUT
10
80.8948
20
108.1237
0
VERTEX
8
CUT
10
81.0435
20
108.3642
0
VERTEX
8
CUT
10
81.2113
20
108.5917
0
VERTEX
8
CUT
10
81.2286
20
108.6132
0
VERTEX
8
CUT
10
81.3273
20
108.7311
0
VERTEX
8
CUT
10
81.6057
20
109.0501
0
VERTEX
8
CUT
10
81.7272
20
109.1827
0
VERTEX
8
CUT
10
81.7495
20
109.2059
0
VERTEX
8
CUT
10
81.9897
20
109.4330
0
VERTEX
8
CUT
10
82.0419
20
109.4736
0
VERTEX
8
CUT
10
82.2282
20
109.6339
0
VERTEX
8
CUT
10
82.3979
20
109.8117
0
VERTEX
8
CUT
10
82.5493
20
110.0054
0
VERTEX
8
CUT
10
82.6809
20
110.2129
0
VERTEX
8
CUT
10
82.7916
20
110.4324
0
VERTEX
8
CUT
10
82.8801
20
110.6617
0
VERTEX
8
CUT
10
82.9457
20
110.8986
0
VERTEX
8
CUT
10
82.9877
20
111.1408
0
VERTEX
8
CUT
10
83.0057
20
111.3860
0
VERTEX
8
CUT
10
82.9996
20
111.6317
0
VERTEX
8
CUT
10
82.9694
20
111.8756
0
VERTEX
8
CUT
10
82.9153
20
112.1154
0
VERTEX
8
CUT
10
82.8380
20
112.3487
0
VERTEX
8
CUT
10
82.7381
20
112.5733
0
VERTEX
8
CUT
10
82.6167
20
112.7870
0
VERTEX
8
CUT
10
82.4748
20
112.9878
0
VERTEX
8
CUT
10
82.3424
20
113.1407
0
VERTEX
8
CUT
10
82.1246
20
113.4175
0
VERTEX
8
CUT
10
82.1060
20
113.4436
0
VERTEX
8
CUT
10
82.0054
20
113.5921
0
VERTEX
8
CUT
10
81.0039
20
115.1503
0
VERTEX
8
CUT
10
80.9252
20
115.2783
0
VERTEX
8
CUT
10
80.9115
20
115.3016
0
VERTEX
8
CUT
10
80.7698
20
115.5666
0
VERTEX
8
CUT
10
80.7581
20
115.5908
0
VERTEX
8
CUT
10
80.6953
20
115.7274
0
VERTEX
8
CUT
10
78.3161
20
121.1881
0
VERTEX
8
CUT
10
78.1832
20
121.4499
0
VERTEX
8
CUT
10
77.3355
20
122.9020
0
VERTEX
8
CUT
10
77.2194
20
123.0826
0
VERTEX
8
CUT
10
77.0882
20
123.2525
0
VERTEX
8
CUT
10
76.9430
20
123.4106
0
VERTEX
8
CUT
10
76.0615
20
124.2908
0
VERTEX
8
CUT
10
75.8678
20
124.4650
0
VERTEX
8
CUT
10
75.6571
20
124.6181
0
VERTEX
8
CUT
10
72.5609
20
126.6298
0
VERTEX
8
CUT
10
72.3825
20
126.7531
0
VERTEX
8
CUT
10
72.2639
20
126.8404
0
VERTEX
8
CUT
10
72.0930
20
126.9738
0
VERTEX
8
CUT
10
71.0132
20
127.8684
0
VERTEX
8
CUT
10
70.8077
20
128.0517
0
VERTEX
8
CUT
10
70.6730
20
128.1811
0
VERTEX
8
CUT
10
70.4816
20
128.3791
0
VERTEX
8
CUT
10
69.5883
20
129.3731
0
VERTEX
8
CUT
10
69.4973
20
129.4783
0
VERTEX
8
CUT
10
69.4813
20
129.4974
0
VERTEX
8
CUT
10
69.3113
20
129.7175
0
VERTEX
8
CUT
10
69.2968
20
129.7378
0
VERTEX
8
CUT
10
69.2180
20
129.8524
0
VERTEX
8
CUT
10
68.5405
20
130.8783
0
VERTEX
8
CUT
10
68.4536
20
131.0164
0
VERTEX
8
CUT
10
68.4386
20
131.0414
0
VERTEX
8
CUT
10
68.2832
20
131.3280
0
VERTEX
8
CUT
10
68.2704
20
131.3543
0
VERTEX
8
CUT
10
68.2022
20
131.5024
0
VERTEX
8
CUT
10
67.6775
20
132.7108
0
VERTEX
8
CUT
10
67.6107
20
132.8753
0
VERTEX
8
CUT
10
67.5994
20
132.9050
0
VERTEX
8
CUT
10
67.4983
20
133.2155
0
VERTEX
8
CUT
10
67.4270
20
133.5341
0
VERTEX
8
CUT
10
67.4215
20
133.5654
0
VERTEX
8
CUT
10
67.3951
20
133.7411
0
VERTEX
8
CUT
10
67.3703
20
133.9381
0
VERTEX
8
CUT
10
67.3471
20
134.1898
0
VERTEX
8
CUT
10
67.3372
20
134.3610
0
VERTEX
8
CUT
10
67.3311
20
134.6137
0
VERTEX
8
CUT
10
67.3538
20
137.0218
0
VERTEX
8
CUT
10
67.3614
20
137.2273
0
VERTEX
8
CUT
10
67.3637
20
137.2639
0
VERTEX
8
CUT
10
67.4086
20
137.6390
0
VERTEX
8
CUT
10
67.4943
20
138.0069
0
VERTEX
8
CUT
10
67.5046
20
138.0421
0
VERTEX
8
CUT
10
67.5675
20
138.2379
0
VERTEX
8
CUT
10
67.7175
20
138.6638
0
VERTEX
8
CUT
10
67.7751
20
138.8167
0
VERTEX
8
CUT
10
67.7859
20
138.8438
0
VERTEX
8
CUT
10
67.9099
20
139.1172
0
VERTEX
8
CUT
10
68.0443
20
139.3560
0
VERTEX
8
CUT
10
68.2138
20
139.6038
0
VERTEX
8
CUT
10
68.2313
20
139.6272
0
VERTEX
8
CUT
10
68.3321
20
139.7557
0
VERTEX
8
CUT
10
68.7719
20
140.2919
0
VERTEX
8
CUT
10
68.8834
20
140.4217
0
VERTEX
8
CUT
10
68.9038
20
140.4444
0
VERTEX
8
CUT
10
69.1246
20
140.6683
0
VERTEX
8
CUT
10
69.3437
20
140.8535
0
VERTEX
8
CUT
10
69.6014
20
141.0336
0
VERTEX
8
CUT
10
69.6273
20
141.0500
0
VERTEX
8
CUT
10
69.7738
20
141.1382
0
VERTEX
8
CUT
10
70.4102
20
141.5016
0
VERTEX
8
CUT
10
70.5440
20
141.5734
0
VERTEX
8
CUT
10
70.7496
20
141.6967
0
VERTEX
8
CUT
10
70.9425
20
141.8392
0
VERTEX
8
CUT
10
71.1208
20
141.9995
0
VERTEX
8
CUT
10
71.2830
20
142.1761
0
VERTEX
8
CUT
10
71.4275
20
142.3675
0
VERTEX
8
CUT
10
71.5530
20
142.5719
0
VERTEX
8
CUT
10
71.6583
20
142.7873
0
VERTEX
8
CUT
10
71.7425
20
143.0118
0
VERTEX
8
CUT
10
71.8048
20
143.2434
0
VERTEX
8
CUT
10
71.8447
20
143.4798
0
VERTEX
8
CUT
10
71.8617
20
143.7190
0
VERTEX
8
CUT
10
71.8557
20
143.9587
0
VERTEX
8
CUT
10
71.8268
20
144.1968
0
VERTEX
8
CUT
10
71.7752
20
144.4310
0
VERTEX
8
CUT
10
71.7014
20
144.6591
0
VERTEX
8
CUT
10
71.6060
20
144.8792
0
VERTEX
8
CUT
10
71.4901
20
145.0891
0
VERTEX
8
CUT
10
71.3545
20
145.2869
0
VERTEX
8
CUT
10
71.2007
20
145.4708
0
VERTEX
8
CUT
10
71.0299
20
145.6391
0
VERTEX
8
CUT
10
66.2661
20
149.9038
0
VERTEX
8
CUT
10
66.1617
20
150.0010
0
VERTEX
8
CUT
10
66.0920
20
150.0683
0
VERTEX
8
CUT
10
65.9914
20
150.1693
0
VERTEX
8
CUT
10
62.9470
20
153.3433
0
VERTEX
8
CUT
10
62.8255
20
153.4763
0
VERTEX
8
CUT
10
62.8043
20
153.5006
0
VERTEX
8
CUT
10
62.5811
20
153.7832
0
VERTEX
8
CUT
10
62.5623
20
153.8094
0
VERTEX
8
CUT
10
62.4612
20
153.9585
0
VERTEX
8
CUT
10
61.0596
20
156.1339
0
VERTEX
8
CUT
10
60.9719
20
156.2769
0
VERTEX
8
CUT
10
60.9568
20
156.3028
0
VERTEX
8
CUT
10
60.8011
20
156.6000
0
VERTEX
8
CUT
10
60.7883
20
156.6271
0
VERTEX
8
CUT
10
60.7206
20
156.7806
0
VERTEX
8
CUT
10
60.3818
20
157.5970
0
VERTEX
8
CUT
10
60.3284
20
157.7332
0
VERTEX
8
CUT
10
60.3193
20
157.7577
0
VERTEX
8
CUT
10
60.2286
20
158.0356
0
VERTEX
8
CUT
10
60.2215
20
158.0608
0
VERTEX
8
CUT
10
60.1843
20
158.2023
0
VERTEX
8
CUT
10
59.6962
20
160.2201
0
VERTEX
8
CUT
10
59.6579
20
160.3967
0
VERTEX
8
CUT
10
59.6518
20
160.4284
0
VERTEX
8
CUT
10
59.6011
20
160.7861
0
VERTEX
8
CUT
10
59.5981
20
160.8183
0
VERTEX
8
CUT
10
59.5857
20
160.9985
0
VERTEX
8
CUT
10
59.5694
20
161.3641
0
VERTEX
8
CUT
10
59.5656
20
161.5317
0
VERTEX
8
CUT
10
59.5656
20
161.5616
0
VERTEX
8
CUT
10
59.5795
20
161.8695
0
VERTEX
8
CUT
10
59.6207
20
162.1749
0
VERTEX
8
CUT
10
59.6260
20
162.2044
0
VERTEX
8
CUT
10
59.6595
20
162.3686
0
VERTEX
8
CUT
10
59.9145
20
163.4896
0
VERTEX
8
CUT
10
59.9601
20
163.6693
0
VERTEX
8
CUT
10
59.9690
20
163.7012
0
VERTEX
8
CUT
10
60.0770
20
164.0243
0
VERTEX
8
CUT
10
60.2163
20
164.3351
0
VERTEX
8
CUT
10
60.2313
20
164.3646
0
VERTEX
8
CUT
10
60.3134
20
164.5165
0
VERTEX
8
CUT
10
60.4081
20
164.6723
0
VERTEX
8
CUT
10
60.4269
20
164.7014
0
VERTEX
8
CUT
10
60.6355
20
164.9913
0
VERTEX
8
CUT
10
60.8730
20
165.2579
0
VERTEX
8
CUT
10
60.8974
20
165.2826
0
VERTEX
8
CUT
10
61.0375
20
165.4173
0
VERTEX
8
CUT
10
61.4259
20
165.7717
0
VERTEX
8
CUT
10
61.5672
20
165.8943
0
VERTEX
8
CUT
10
61.5930
20
165.9155
0
VERTEX
8
CUT
10
61.8688
20
166.1208
0
VERTEX
8
CUT
10
62.1378
20
166.2821
0
VERTEX
8
CUT
10
62.4215
20
166.4157
0
VERTEX
8
CUT
10
62.6815
20
166.5078
0
VERTEX
8
CUT
10
62.9093
20
166.6014
0
VERTEX
8
CUT
10
63.1269
20
166.7170
0
VERTEX
8
CUT
10
63.3320
20
166.8535
0
VERTEX
8
CUT
10
63.5227
20
167.0094
0
VERTEX
8
CUT
10
63.6972
20
167.1834
0
VERTEX
8
CUT
10
63.8536
20
167.3737
0
VERTEX
8
CUT
10
63.9906
20
167.5785
0
VERTEX
8
CUT
10
64.1067
20
167.7957
0
VERTEX
8
CUT
10
64.1728
20
167.9554
0
VERTEX
8
CUT
10
64.1993
20
167.8033
0
VERTEX
8
CUT
10
64.2663
20
167.5635
0
VERTEX
8
CUT
10
64.3568
20
167.3316
0
VERTEX
8
CUT
10
64.4699
20
167.1098
0
VERTEX
8
CUT
10
64.6045
20
166.9004
0
VERTEX
8
CUT
10
64.7593
20
166.7054
0
VERTEX
8
CUT
10
64.9327
20
166.5267
0
VERTEX
8
CUT
10
65.1230
20
166.3662
0
VERTEX
8
CUT
10
65.3284
20
166.2254
0
VERTEX
8
CUT
10
65.4709
20
166.1473
0
VERTEX
8
CUT
10
65.4702
20
166.1459
0
VERTEX
8
CUT
10
65.4720
20
166.1449
0
VERTEX
8
CUT
10
65.7478
20
165.9776
0
VERTEX
8
CUT
10
66.0067
20
165.7853
0
VERTEX
8
CUT
10
66.0310
20
165.7655
0
VERTEX
8
CUT
10
66.1642
20
165.6512
0
VERTEX
8
CUT
10
67.2916
20
164.6375
0
VERTEX
8
CUT
10
67.4442
20
164.4923
0
VERTEX
8
CUT
10
67.5450
20
164.3908
0
VERTEX
8
CUT
10
67.6892
20
164.2373
0
VERTEX
8
CUT
10
67.8730
20
164.0303
0
VERTEX
8
CUT
10
69.6474
20
161.9444
0
VERTEX
8
CUT
10
69.8135
20
161.7673
0
VERTEX
8
CUT
10
69.9960
20
161.6072
0
VERTEX
8
CUT
10
70.1931
20
161.4655
0
VERTEX
8
CUT
10
70.4031
20
161.3437
0
VERTEX
8
CUT
10
70.6239
20
161.2427
0
VERTEX
8
CUT
10
70.8534
20
161.1637
0
VERTEX
8
CUT
10
71.0896
20
161.1073
0
VERTEX
8
CUT
10
71.3301
20
161.0740
0
VERTEX
8
CUT
10
71.5726
20
161.0643
0
VERTEX
8
CUT
10
71.8150
20
161.0781
0
VERTEX
8
CUT
10
72.0549
20
161.1154
0
VERTEX
8
CUT
10
72.2901
20
161.1757
0
VERTEX
8
CUT
10
72.5182
20
161.2586
0
VERTEX
8
CUT
10
72.6061
20
161.3006
0
VERTEX
8
CUT
10
72.6586
20
161.3219
0
VERTEX
8
CUT
10
72.8763
20
161.4361
0
VERTEX
8
CUT
10
73.0817
20
161.5712
0
VERTEX
8
CUT
10
73.2729
20
161.7258
0
VERTEX
8
CUT
10
73.4479
20
161.8984
0
VERTEX
8
CUT
10
73.6052
20
162.0874
0
VERTEX
8
CUT
10
73.7431
20
162.2909
0
VERTEX
8
CUT
10
73.8603
20
162.5069
0
VERTEX
8
CUT
10
73.9558
20
162.7335
0
VERTEX
8
CUT
10
74.0286
20
162.9683
0
VERTEX
8
CUT
10
74.0779
20
163.2091
0
VERTEX
8
CUT
10
74.1034
20
163.4536
0
VERTEX
8
CUT
10
74.1047
20
163.6995
0
VERTEX
8
CUT
10
74.0819
20
163.9442
0
VERTEX
8
CUT
10
74.0351
20
164.1856
0
VERTEX
8
CUT
10
73.9649
20
164.4212
0
VERTEX
8
CUT
10
73.8719
20
164.6487
0
VERTEX
8
CUT
10
73.7569
20
164.8660
0
VERTEX
8
CUT
10
70.8235
20
169.8080
0
VERTEX
8
CUT
10
70.6913
20
170.0082
0
VERTEX
8
CUT
10
70.5405
20
170.1948
0
VERTEX
8
CUT
10
70.3725
20
170.3661
0
VERTEX
8
CUT
10
70.1888
20
170.5205
0
VERTEX
8
CUT
10
69.9912
20
170.6566
0
VERTEX
8
CUT
10
69.7814
20
170.7731
0
VERTEX
8
CUT
10
69.5615
20
170.8690
0
VERTEX
8
CUT
10
69.3333
20
170.9433
0
VERTEX
8
CUT
10
69.0991
20
170.9954
0
VERTEX
8
CUT
10
68.8610
20
171.0249
0
VERTEX
8
CUT
10
68.6211
20
171.0313
0
VERTEX
8
CUT
10
68.3817
20
171.0148
0
VERTEX
8
CUT
10
67.3166
20
170.8895
0
VERTEX
8
CUT
10
67.0979
20
170.8703
0
VERTEX
8
CUT
10
66.9492
20
170.8616
0
VERTEX
8
CUT
10
66.7298
20
170.8551
0
VERTEX
8
CUT
10
66.6377
20
170.8551
0
VERTEX
8
CUT
10
66.3890
20
170.8427
0
VERTEX
8
CUT
10
66.1428
20
170.8057
0
VERTEX
8
CUT
10
65.9015
20
170.7443
0
VERTEX
8
CUT
10
65.6675
20
170.6592
0
VERTEX
8
CUT
10
65.4432
20
170.5513
0
VERTEX
8
CUT
10
65.2307
20
170.4216
0
VERTEX
8
CUT
10
65.0321
20
170.2714
0
VERTEX
8
CUT
10
64.8494
20
170.1022
0
VERTEX
8
CUT
10
64.6845
20
169.9157
0
VERTEX
8
CUT
10
64.5390
20
169.7137
0
VERTEX
8
CUT
10
64.4143
20
169.4982
0
VERTEX
8
CUT
10
64.3117
20
169.2716
0
VERTEX
8
CUT
10
64.2698
20
169.4790
0
VERTEX
8
CUT
10
64.1976
20
169.7146
0
VERTEX
8
CUT
10
64.1025
20
169.9418
0
VERTEX
8
CUT
10
63.9855
20
170.1586
0
VERTEX
8
CUT
10
63.8477
20
170.3629
0
VERTEX
8
CUT
10
63.6905
20
170.5525
0
VERTEX
8
CUT
10
63.5154
20
170.7258
0
VERTEX
8
CUT
10
63.3240
20
170.8810
0
VERTEX
8
CUT
10
63.1184
20
171.0166
0
VERTEX
8
CUT
10
62.9004
20
171.1314
0
VERTEX
8
CUT
10
62.6721
20
171.2241
0
VERTEX
8
CUT
10
62.4358
20
171.2939
0
VERTEX
8
CUT
10
61.8464
20
171.4368
0
VERTEX
8
CUT
10
61.6505
20
171.4900
0
VERTEX
8
CUT
10
61.6158
20
171.5004
0
VERTEX
8
CUT
10
61.2341
20
171.6381
0
VERTEX
8
CUT
10
61.2007
20
171.6523
0
VERTEX
8
CUT
10
61.0160
20
171.7364
0
VERTEX
8
CUT
10
58.6994
20
172.8684
0
VERTEX
8
CUT
10
58.4785
20
172.9857
0
VERTEX
8
CUT
10
58.3313
20
173.0702
0
VERTEX
8
CUT
10
58.1187
20
173.2019
0
VERTEX
8
CUT
10
51.7259
20
177.4633
0
VERTEX
8
CUT
10
51.5530
20
177.5687
0
VERTEX
8
CUT
10
51.3721
20
177.6598
0
VERTEX
8
CUT
10
50.0089
20
178.2782
0
VERTEX
8
CUT
10
49.7662
20
178.3734
0
VERTEX
8
CUT
10
49.5149
20
178.4428
0
VERTEX
8
CUT
10
48.2066
20
178.7316
0
VERTEX
8
CUT
10
47.9634
20
178.7728
0
VERTEX
8
CUT
10
47.7174
20
178.7898
0
VERTEX
8
CUT
10
45.3957
20
178.8360
0
VERTEX
8
CUT
10
45.1756
20
178.8307
0
VERTEX
8
CUT
10
44.9568
20
178.8060
0
VERTEX
8
CUT
10
44.7411
20
178.7622
0
VERTEX
8
CUT
10
43.1451
20
178.3642
0
VERTEX
8
CUT
10
42.8841
20
178.2838
0
VERTEX
8
CUT
10
42.6333
20
178.1753
0
VERTEX
8
CUT
10
42.3959
20
178.0401
0
VERTEX
8
CUT
10
41.0912
20
177.1994
0
VERTEX
8
CUT
10
40.8839
20
177.0503
0
VERTEX
8
CUT
10
40.6929
20
176.8809
0
VERTEX
8
CUT
10
40.5202
20
176.6929
0
VERTEX
8
CUT
10
39.6034
20
175.5864
0
VERTEX
8
CUT
10
39.4722
20
175.4131
0
VERTEX
8
CUT
10
39.3564
20
175.2291
0
VERTEX
8
CUT
10
39.2571
20
175.0357
0
VERTEX
8
CUT
10
38.6083
20
173.6246
0
VERTEX
8
CUT
10
38.5126
20
173.3846
0
VERTEX
8
CUT
10
38.4423
20
173.1360
0
VERTEX
8
CUT
10
38.3016
20
172.5190
0
VERTEX
8
CUT
10
38.2625
20
172.3051
0
VERTEX
8
CUT
10
38.2422
20
172.0885
0
VERTEX
8
CUT
10
38.1582
20
170.4124
0
VERTEX
8
CUT
10
38.1564
20
170.2053
0
VERTEX
8
CUT
10
38.1718
20
169.9988
0
VERTEX
8
CUT
10
38.2042
20
169.7943
0
SEQEND
0
ENDSEC
0
EOF
