0
SECTION
2
HEADER
9
$ACADVER
1
AC1009
9
$INSUNITS
70
4
0
ENDSEC
0
SECTION
2
TABLES
0
TABLE
2
LAYER
70
1
0
LAYER
2
CUT
70
0
62
7
6
CONTINUOUS
0
ENDTAB
0
ENDSEC
0
SECTION
2
ENTITIES
0
POLYLINE
8
CUT
66
1
70
1
10
0.0
20
0.0
30
0.0
0
VERTEX
8
CUT
10
125.1512
20
62.9463
0
VERTEX
8
CUT
10
127.0143
20
64.1951
0
VERTEX
8
CUT
10
127.1077
20
64.2539
0
VERTEX
8
CUT
10
127.6732
20
64.5526
0
VERTEX
8
CUT
10
127.8419
20
64.6220
0
VERTEX
8
CUT
10
128.5416
20
64.8870
0
VERTEX
8
CUT
10
128.7490
20
64.9587
0
VERTEX
8
CUT
10
128.7863
20
64.9703
0
VERTEX
8
CUT
10
129.2119
20
65.0767
0
VERTEX
8
CUT
10
129.2503
20
65.0839
0
VERTEX
8
CUT
10
129.4670
20
65.1183
0
VERTEX
8
CUT
10
129.8996
20
65.1739
0
VERTEX
8
CUT
10
130.0639
20
65.1913
0
VERTEX
8
CUT
10
130.0934
20
65.1938
0
VERTEX
8
CUT
10
130.3971
20
65.2059
0
VERTEX
8
CUT
10
130.7006
20
65.1911
0
VERTEX
8
CUT
10
130.7300
20
65.1884
0
VERTEX
8
CUT
10
130.8943
20
65.1695
0
VERTEX
8
CUT
10
131.1014
20
65.1410
0
VERTEX
8
CUT
10
131.2625
20
65.1152
0
VERTEX
8
CUT
10
131.2912
20
65.1100
0
VERTEX
8
CUT
10
131.5837
20
65.0435
0
VERTEX
8
CUT
10
131.8444
20
64.9598
0
VERTEX
8
CUT
10
132.1209
20
64.8436
0
VERTEX
8
CUT
10
132.1473
20
64.8311
0
VERTEX
8
CUT
10
132.2933
20
64.7582
0
VERTEX
8
CUT
10
133.5500
20
64.0962
0
VERTEX
8
CUT
10
133.7667
20
63.9950
0
VERTEX
8
CUT
10
133.9921
20
63.9149
0
VERTEX
8
CUT
10
134.2242
20
63.8568
0
VERTEX
8
CUT
10
135.0181
20
63.6978
0
VERTEX
8
CUT
10
135.2512
20
63.6624
0
VERTEX
8
CUT
10
135.4866
20
63.6492
0
VERTEX
8
CUT
10
135.7222
20
63.6582
0
VERTEX
8
CUT
10
135.9560
20
63.6893
0
VERTEX
8
CUT
10
136.1857
20
63.7424
0
VERTEX
8
CUT
10
136.9972
20
63.9705
0
VERTEX
8
CUT
10
137.2100
20
64.0408
0
VERTEX
8
CUT
10
137.4157
20
64.1298
0
VERTEX
8
CUT
10
137.6126
20
64.2370
0
VERTEX
8
CUT
10
137.7991
20
64.3613
0
VERTEX
8
CUT
10
138.3746
20
64.7834
0
VERTEX
8
CUT
10
138.5053
20
64.8562
0
VERTEX
8
CUT
10
138.7585
20
65.0180
0
VERTEX
8
CUT
10
138.9904
20
65.2089
0
VERTEX
8
CUT
10
139.1235
20
65.3327
0
VERTEX
8
CUT
10
139.2663
20
65.4374
0
VERTEX
8
CUT
10
139.4373
20
65.5748
0
VERTEX
8
CUT
10
139.5956
20
65.7266
0
VERTEX
8
CUT
10
139.9784
20
66.1274
0
VERTEX
8
CUT
10
140.5241
20
66.6345
0
VERTEX
8
CUT
10
140.6927
20
66.8073
0
VERTEX
8
CUT
10
140.8440
20
66.9954
0
VERTEX
8
CUT
10
140.9601
20
67.1551
0
VERTEX
8
CUT
10
141.2203
20
67.4276
0
VERTEX
8
CUT
10
141.3833
20
67.6162
0
VERTEX
8
CUT
10
141.5266
20
67.8201
0
VERTEX
8
CUT
10
142.0730
20
68.6857
0
VERTEX
8
CUT
10
142.4372
20
69.1867
0
VERTEX
8
CUT
10
142.5887
20
69.4216
0
VERTEX
8
CUT
10
143.0529
20
70.2384
0
VERTEX
8
CUT
10
143.3996
20
70.7878
0
VERTEX
8
CUT
10
143.5053
20
70.9722
0
VERTEX
8
CUT
10
143.5949
20
71.1648
0
VERTEX
8
CUT
10
144.5842
20
73.5517
0
VERTEX
8
CUT
10
144.6688
20
73.7888
0
VERTEX
8
CUT
10
146.6139
20
80.2560
0
VERTEX
8
CUT
10
146.6596
20
80.3976
0
VERTEX
8
CUT
10
146.6683
20
80.4228
0
VERTEX
8
CUT
10
146.7764
20
80.7001
0
VERTEX
8
CUT
10
146.7870
20
80.7245
0
VERTEX
8
CUT
10
146.8492
20
80.8598
0
VERTEX
8
CUT
10
147.0118
20
81.1956
0
VERTEX
8
CUT
10
147.0882
20
81.3448
0
VERTEX
8
CUT
10
147.1025
20
81.3711
0
VERTEX
8
CUT
10
147.2609
20
81.6353
0
VERTEX
8
CUT
10
147.4423
20
81.8842
0
VERTEX
8
CUT
10
147.4610
20
81.9076
0
VERTEX
8
CUT
10
147.5686
20
82.0361
0
VERTEX
8
CUT
10
147.6031
20
82.0756
0
VERTEX
8
CUT
10
147.7202
20
82.2033
0
VERTEX
8
CUT
10
147.7417
20
82.2256
0
VERTEX
8
CUT
10
147.9726
20
82.4449
0
VERTEX
8
CUT
10
148.2114
20
82.6328
0
VERTEX
8
CUT
10
148.4710
20
82.8012
0
VERTEX
8
CUT
10
148.7285
20
82.9370
0
VERTEX
8
CUT
10
148.9875
20
83.0452
0
VERTEX
8
CUT
10
149.2807
20
83.1381
0
VERTEX
8
CUT
10
149.3097
20
83.1459
0
VERTEX
8
CUT
10
149.4722
20
83.1856
0
VERTEX
8
CUT
10
149.5464
20
83.2020
0
VERTEX
8
CUT
10
149.7303
20
83.2379
0
VERTEX
8
CUT
10
149.7633
20
83.2434
0
VERTEX
8
CUT
10
150.1053
20
83.2838
0
VERTEX
8
CUT
10
150.3648
20
83.2884
0
VERTEX
8
CUT
10
150.3967
20
83.2849
0
VERTEX
8
CUT
10
150.5765
20
83.2609
0
VERTEX
8
CUT
10
150.8986
20
83.2100
0
VERTEX
8
CUT
10
151.0719
20
83.1784
0
VERTEX
8
CUT
10
151.1027
20
83.1720
0
VERTEX
8
CUT
10
151.4021
20
83.0954
0
VERTEX
8
CUT
10
151.6347
20
83.0018
0
VERTEX
8
CUT
10
151.9131
20
82.8562
0
VERTEX
8
CUT
10
152.1755
20
82.6834
0
VERTEX
8
CUT
10
152.4194
20
82.4854
0
VERTEX
8
CUT
10
152.6637
20
82.2427
0
VERTEX
8
CUT
10
152.6863
20
82.2180
0
VERTEX
8
CUT
10
152.8089
20
82.0763
0
VERTEX
8
CUT
10
152.9744
20
81.8754
0
VERTEX
8
CUT
10
153.0900
20
81.7275
0
VERTEX
8
CUT
10
153.1100
20
81.7006
0
VERTEX
8
CUT
10
153.3015
20
81.4138
0
VERTEX
8
CUT
10
153.4492
20
81.1360
0
VERTEX
8
CUT
10
153.5799
20
80.8169
0
VERTEX
8
CUT
10
153.5910
20
80.7852
0
VERTEX
8
CUT
10
153.6489
20
80.6067
0
VERTEX
8
CUT
10
155.3991
20
74.7082
0
VERTEX
8
CUT
10
155.4728
20
74.4955
0
VERTEX
8
CUT
10
156.3818
20
72.2097
0
VERTEX
8
CUT
10
156.5357
20
71.8908
0
VERTEX
8
CUT
10
156.7632
20
71.4936
0
VERTEX
8
CUT
10
156.9148
20
71.1189
0
VERTEX
8
CUT
10
156.9959
20
70.9391
0
VERTEX
8
CUT
10
157.0909
20
70.7663
0
VERTEX
8
CUT
10
157.8279
20
69.5425
0
VERTEX
8
CUT
10
158.3068
20
68.7046
0
VERTEX
8
CUT
10
158.4577
20
68.4717
0
VERTEX
8
CUT
10
158.5150
20
68.4017
0
VERTEX
8
CUT
10
158.7688
20
67.9802
0
VERTEX
8
CUT
10
158.8157
20
67.9112
0
VERTEX
8
CUT
10
158.8856
20
67.7892
0
VERTEX
8
CUT
10
159.0441
20
67.5463
0
VERTEX
8
CUT
10
159.2297
20
67.3235
0
VERTEX
8
CUT
10
160.5976
20
65.8622
0
VERTEX
8
CUT
10
160.7700
20
65.6949
0
VERTEX
8
CUT
10
160.9577
20
65.5450
0
VERTEX
8
CUT
10
162.4650
20
64.4548
0
VERTEX
8
CUT
10
162.6986
20
64.3049
0
VERTEX
8
CUT
10
162.9474
20
64.1818
0
VERTEX
8
CUT
10
163.2083
20
64.0870
0
VERTEX
8
CUT
10
164.1466
20
63.8041
0
VERTEX
8
CUT
10
164.3666
20
63.7485
0
VERTEX
8
CUT
10
164.5908
20
63.7131
0
VERTEX
8
CUT
10
164.8172
20
63.6982
0
VERTEX
8
CUT
10
165.0441
20
63.7039
0
VERTEX
8
CUT
10
165.2695
20
63.7301
0
VERTEX
8
CUT
10
166.0286
20
63.8535
0
VERTEX
8
CUT
10
166.2885
20
63.9101
0
VERTEX
8
CUT
10
166.5409
20
63.9940
0
VERTEX
8
CUT
10
166.7829
20
64.1042
0
VERTEX
8
CUT
10
168.0308
20
64.7547
0
VERTEX
8
CUT
10
168.1757
20
64.8264
0
VERTEX
8
CUT
10
168.2020
20
64.8386
0
VERTEX
8
CUT
10
168.4764
20
64.9528
0
VERTEX
8
CUT
10
168.7349
20
65.0350
0
VERTEX
8
CUT
10
169.0248
20
65.1004
0
VERTEX
8
CUT
10
169.0533
20
65.1056
0
VERTEX
8
CUT
10
169.2130
20
65.1309
0
VERTEX
8
CUT
10
169.3541
20
65.1501
0
VERTEX
8
CUT
10
169.5208
20
65.1691
0
VERTEX
8
CUT
10
169.5507
20
65.1718
0
VERTEX
8
CUT
10
169.8588
20
65.1860
0
VERTEX
8
CUT
10
170.1400
20
65.1738
0
VERTEX
8
CUT
10
170.4457
20
65.1329
0
VERTEX
8
CUT
10
170.4753
20
65.1276
0
VERTEX
8
CUT
10
170.6397
20
65.0942
0
VERTEX
8
CUT
10
171.9033
20
64.8084
0
VERTEX
8
CUT
10
172.0708
20
64.7664
0
VERTEX
8
CUT
10
172.1005
20
64.7583
0
VERTEX
8
CUT
10
172.4023
20
64.6601
0
VERTEX
8
CUT
10
172.6937
20
64.5346
0
VERTEX
8
CUT
10
172.7215
20
64.5211
0
VERTEX
8
CUT
10
172.8750
20
64.4420
0
VERTEX
8
CUT
10
174.1520
20
63.7466
0
VERTEX
8
CUT
10
174.3146
20
63.6527
0
VERTEX
8
CUT
10
174.3432
20
63.6352
0
VERTEX
8
CUT
10
174.6532
20
63.4236
0
VERTEX
8
CUT
10
174.6800
20
63.4033
0
VERTEX
8
CUT
10
174.8267
20
63.2861
0
VERTEX
8
CUT
10
177.2861
20
61.2188
0
VERTEX
8
CUT
10
177.4188
20
61.1018
0
VERTEX
8
CUT
10
177.5071
20
61.0202
0
VERTEX
8
CUT
10
177.6341
20
60.8970
0
VERTEX
8
CUT
10
181.0426
20
57.4338
0
VERTEX
8
CUT
10
181.1053
20
57.3685
0
VERTEX
8
CUT
10
181.1475
20
57.3235
0
VERTEX
8
CUT
10
181.2086
20
57.2567
0
VERTEX
8
CUT
10
183.8226
20
54.3304
0
VERTEX
8
CUT
10
190.1831
20
46.8066
0
VERTEX
8
CUT
10
190.2838
20
46.6593
0
VERTEX
8
CUT
10
190.4312
20
46.3903
0
VERTEX
8
CUT
10
190.5518
20
46.1082
0
VERTEX
8
CUT
10
190.6444
20
45.8158
0
VERTEX
8
CUT
10
190.7080
20
45.5157
0
VERTEX
8
CUT
10
190.7420
20
45.2108
0
VERTEX
8
CUT
10
190.7462
20
44.9041
0
VERTEX
8
CUT
10
190.7205
20
44.5984
0
VERTEX
8
CUT
10
190.6651
20
44.2967
0
VERTEX
8
CUT
10
190.5806
20
44.0018
0
VERTEX
8
CUT
10
190.4678
20
43.7166
0
VERTEX
8
CUT
10
190.3277
20
43.4437
0
VERTEX
8
CUT
10
190.1617
20
43.1857
0
VERTEX
8
CUT
10
189.9714
20
42.9452
0
VERTEX
8
CUT
10
189.7585
20
42.7243
0
VERTEX
8
CUT
10
189.5251
20
42.5252
0
VERTEX
8
CUT
10
189.2735
20
42.3498
0
VERTEX
8
CUT
10
189.0059
20
42.1998
0
VERTEX
8
CUT
10
188.7250
20
42.0765
0
VERTEX
8
CUT
10
188.4335
20
41.9812
0
VERTEX
8
CUT
10
188.1340
20
41.9148
0
VERTEX
8
CUT
10
187.8295
20
41.8778
0
VERTEX
8
CUT
10
187.5228
20
41.8707
0
VERTEX
8
CUT
10
187.2169
20
41.8935
0
VERTEX
8
CUT
10
186.9147
20
41.9460
0
VERTEX
8
CUT
10
186.6190
20
42.0277
0
VERTEX
8
CUT
10
186.3327
20
42.1378
0
VERTEX
8
CUT
10
186.0585
20
42.2753
0
VERTEX
8
CUT
10
185.7989
20
42.4389
0
VERTEX
8
CUT
10
185.5333
20
42.6450
0
VERTEX
8
CUT
10
185.5085
20
42.6662
0
VERTEX
8
CUT
10
185.3725
20
42.7887
0
VERTEX
8
CUT
10
179.9278
20
47.9375
0
VERTEX
8
CUT
10
179.7689
20
48.0755
0
VERTEX
8
CUT
10
174.5637
20
52.2270
0
VERTEX
8
CUT
10
174.3630
20
52.3714
0
VERTEX
8
CUT
10
174.1490
20
52.4953
0
VERTEX
8
CUT
10
171.8898
20
53.6581
0
VERTEX
8
CUT
10
171.6690
20
53.7586
0
VERTEX
8
CUT
10
171.4395
20
53.8371
0
VERTEX
8
CUT
10
171.2035
20
53.8930
0
VERTEX
8
CUT
10
165.7319
20
54.9122
0
VERTEX
8
CUT
10
165.5566
20
54.9492
0
VERTEX
8
CUT
10
165.4382
20
54.9772
0
VERTEX
8
CUT
10
165.2649
20
55.0225
0
VERTEX
8
CUT
10
163.6375
20
55.4899
0
VERTEX
8
CUT
10
163.4037
20
55.5654
0
VERTEX
8
CUT
10
163.2468
20
55.6219
0
VERTEX
8
CUT
10
163.0184
20
55.7125
0
VERTEX
8
CUT
10
161.1471
20
56.5276
0
VERTEX
8
CUT
10
161.0292
20
56.5814
0
VERTEX
8
CUT
10
160.9497
20
56.6193
0
VERTEX
8
CUT
10
160.8337
20
56.6772
0
VERTEX
8
CUT
10
154.7454
20
59.8461
0
VERTEX
8
CUT
10
154.4292
20
59.9838
0
VERTEX
8
CUT
10
152.8267
20
60.5540
0
VERTEX
8
CUT
10
152.5814
20
60.6274
0
VERTEX
8
CUT
10
152.3299
20
60.6753
0
VERTEX
8
CUT
10
150.3483
20
60.9484
0
VERTEX
8
CUT
10
150.0890
20
60.9704
0
VERTEX
8
CUT
10
149.8287
20
60.9654
0
VERTEX
8
CUT
10
149.5704
20
60.9333
0
VERTEX
8
CUT
10
147.8058
20
60.6204
0
VERTEX
8
CUT
10
147.5963
20
60.5739
0
VERTEX
8
CUT
10
147.3916
20
60.5095
0
VERTEX
8
CUT
10
145.7484
20
59.9148
0
VERTEX
8
CUT
10
145.4629
20
59.7909
0
VERTEX
8
CUT
10
137.7437
20
55.8520
0
VERTEX
8
CUT
10
137.5767
20
55.7719
0
VERTEX
8
CUT
10
137.5465
20
55.7583
0
VERTEX
8
CUT
10
137.2016
20
55.6234
0
VERTEX
8
CUT
10
137.1703
20
55.6129
0
VERTEX
8
CUT
10
136.9932
20
55.5583
0
VERTEX
8
CUT
10
135.3305
20
55.0906
0
VERTEX
8
CUT
10
135.1227
20
55.0385
0
VERTEX
8
CUT
10
134.9806
20
55.0072
0
VERTEX
8
CUT
10
134.7702
20
54.9670
0
VERTEX
8
CUT
10
130.4775
20
54.2747
0
VERTEX
8
CUT
10
130.1390
20
54.1957
0
VERTEX
8
CUT
10
128.6923
20
53.7496
0
VERTEX
8
CUT
10
128.3958
20
53.6371
0
VERTEX
8
CUT
10
126.9130
20
52.9642
0
VERTEX
8
CUT
10
126.7432
20
52.8793
0
VERTEX
8
CUT
10
126.5803
20
52.7817
0
VERTEX
8
CUT
10
124.8386
20
51.6456
0
VERTEX
8
CUT
10
124.6484
20
51.5084
0
VERTEX
8
CUT
10
122.4233
20
49.7391
0
VERTEX
8
CUT
10
122.4006
20
49.7209
0
VERTEX
8
CUT
10
122.3965
20
49.7175
0
VERTEX
8
CUT
10
122.3033
20
49.6377
0
VERTEX
8
CUT
10
119.4807
20
47.0987
0
VERTEX
8
CUT
10
119.4184
20
47.0407
0
VERTEX
8
CUT
10
116.0004
20
43.7486
0
VERTEX
8
CUT
10
115.8652
20
43.6247
0
VERTEX
8
CUT
10
115.8405
20
43.6031
0
VERTEX
8
CUT
10
115.5754
20
43.3937
0
VERTEX
8
CUT
10
115.3161
20
43.2272
0
VERTEX
8
CUT
10
115.0418
20
43.0869
0
VERTEX
8
CUT
10
114.7550
20
42.9742
0
VERTEX
8
CUT
10
114.4586
20
42.8900
0
VERTEX
8
CUT
10
114.1553
20
42.8353
0
VERTEX
8
CUT
10
113.8482
20
42.8105
0
VERTEX
8
CUT
10
113.5401
20
42.8159
0
VERTEX
8
CUT
10
113.2340
20
42.8514
0
VERTEX
8
CUT
10
112.9329
20
42.9167
0
VERTEX
8
CUT
10
112.6396
20
43.0111
0
VERTEX
8
CUT
10
112.3569
20
43.1338
0
VERTEX
8
CUT
10
112.0876
20
43.2836
0
VERTEX
8
CUT
10
111.8343
20
43.4590
0
VERTEX
8
CUT
10
111.5993
20
43.6584
0
VERTEX
8
CUT
10
111.3850
20
43.8798
0
VERTEX
8
CUT
10
111.1934
20
44.1211
0
VERTEX
8
CUT
10
111.0263
20
44.3800
0
VERTEX
8
CUT
10
110.8853
20
44.6540
0
VERTEX
8
CUT
10
110.7719
20
44.9405
0
VERTEX
8
CUT
10
110.6870
20
45.2367
0
VERTEX
8
CUT
10
110.6316
20
45.5399
0
VERTEX
8
CUT
10
110.6060
20
45.8469
0
VERTEX
8
CUT
10
110.6107
20
46.1550
0
VERTEX
8
CUT
10
110.6454
20
46.4612
0
VERTEX
8
CUT
10
110.7100
20
46.7625
0
VERTEX
8
CUT
10
110.8038
20
47.0561
0
VERTEX
8
CUT
10
110.9258
20
47.3390
0
VERTEX
8
CUT
10
111.0749
20
47.6087
0
VERTEX
8
CUT
10
111.2665
20
47.8868
0
VERTEX
8
CUT
10
111.2864
20
47.9129
0
VERTEX
8
CUT
10
111.4015
20
48.0562
0
VERTEX
8
CUT
10
117.9989
20
55.8692
0
VERTEX
8
CUT
10
119.6739
20
57.7414
0
VERTEX
8
CUT
10
120.4303
20
58.5018
0
VERTEX
8
CUT
10
120.5361
20
58.6082
0
VERTEX
8
CUT
10
120.5878
20
58.6602
0
VERTEX
8
CUT
10
123.3580
20
61.4452
0
VERTEX
8
CUT
10
124.7606
20
62.6445
0
VERTEX
8
CUT
10
124.9063
20
62.7629
0
VERTEX
8
CUT
10
125.0072
20
62.8408
0
SEQEND
0
POLYLINE
8
CUT
66
1
70
1
10
0.0
20
0.0
30
0.0
0
VERTEX
8
CUT
10
54.9102
20
146.5795
0
VERTEX
8
CUT
10
55.1654
20
146.6920
0
VERTEX
8
CUT
10
55.4925
20
146.8586
0
VERTEX
8
CUT
10
55.7771
20
146.9702
0
VERTEX
8
CUT
10
56.0711
20
147.0537
0
VERTEX
8
CUT
10
56.3718
20
147.1082
0
VERTEX
8
CUT
10
56.6765
20
147.1333
0
VERTEX
8
CUT
10
56.9821
20
147.1287
0
VERTEX
8
CUT
10
57.2858
20
147.0944
0
VERTEX
8
CUT
10
57.5848
20
147.0308
0
VERTEX
8
CUT
10
57.8761
20
146.9385
0
VERTEX
8
CUT
10
58.1842
20
146.8068
0
VERTEX
8
CUT
10
58.2135
20
146.7926
0
VERTEX
8
CUT
10
58.3754
20
146.7089
0
VERTEX
8
CUT
10
61.0829
20
145.2254
0
VERTEX
8
CUT
10
61.2217
20
145.1455
0
VERTEX
8
CUT
10
61.3149
20
145.0891
0
VERTEX
8
CUT
10
61.4502
20
145.0033
0
VERTEX
8
CUT
10
70.3400
20
139.0934
0
VERTEX
8
CUT
10
71.2038
20
138.4932
0
VERTEX
8
CUT
10
71.2221
20
138.4790
0
VERTEX
8
CUT
10
71.4309
20
138.3047
0
VERTEX
8
CUT
10
72.1756
20
137.6359
0
VERTEX
8
CUT
10
72.3089
20
137.5101
0
VERTEX
8
CUT
10
72.3321
20
137.4871
0
VERTEX
8
CUT
10
72.5595
20
137.2387
0
VERTEX
8
CUT
10
72.7438
20
136.9929
0
VERTEX
8
CUT
10
72.9033
20
136.7303
0
VERTEX
8
CUT
10
73.0492
20
136.4268
0
VERTEX
8
CUT
10
73.0619
20
136.3967
0
VERTEX
8
CUT
10
73.1290
20
136.2262
0
VERTEX
8
CUT
10
73.4066
20
135.4666
0
VERTEX
8
CUT
10
73.5089
20
135.2262
0
VERTEX
8
CUT
10
73.6358
20
134.9978
0
VERTEX
8
CUT
10
73.7859
20
134.7839
0
VERTEX
8
CUT
10
74.0095
20
134.4982
0
VERTEX
8
CUT
10
74.1781
20
134.2353
0
VERTEX
8
CUT
10
74.3183
20
133.9607
0
VERTEX
8
CUT
10
74.4310
20
133.6737
0
VERTEX
8
CUT
10
74.5150
20
133.3770
0
VERTEX
8
CUT
10
74.5695
20
133.0735
0
VERTEX
8
CUT
10
74.5941
20
132.7662
0
VERTEX
8
CUT
10
74.5885
20
132.4579
0
VERTEX
8
CUT
10
74.5527
20
132.1516
0
VERTEX
8
CUT
10
74.4871
20
131.8503
0
VERTEX
8
CUT
10
74.3922
20
131.5569
0
VERTEX
8
CUT
10
74.2692
20
131.2742
0
VERTEX
8
CUT
10
74.1190
20
131.0049
0
VERTEX
8
CUT
10
73.9262
20
130.7273
0
VERTEX
8
CUT
10
73.9137
20
130.7110
0
VERTEX
8
CUT
10
73.7508
20
130.5136
0
VERTEX
8
CUT
10
73.7067
20
130.4637
0
VERTEX
8
CUT
10
73.4639
20
130.2157
0
VERTEX
8
CUT
10
73.2257
20
130.0166
0
VERTEX
8
CUT
10
72.9674
20
129.8412
0
VERTEX
8
CUT
10
72.6930
20
129.6922
0
VERTEX
8
CUT
10
72.4051
20
129.5712
0
VERTEX
8
CUT
10
72.1067
20
129.4793
0
VERTEX
8
CUT
10
71.8006
20
129.4175
0
VERTEX
8
CUT
10
71.4900
20
129.3863
0
VERTEX
8
CUT
10
71.1777
20
129.3861
0
VERTEX
8
CUT
10
70.8670
20
129.4168
0
VERTEX
8
CUT
10
70.5609
20
129.4782
0
VERTEX
8
CUT
10
70.2336
20
129.5785
0
VERTEX
8
CUT
10
70.2023
20
129.5898
0
VERTEX
8
CUT
10
70.0288
20
129.6575
0
VERTEX
8
CUT
10
69.3332
20
129.9489
0
VERTEX
8
CUT
10
69.0892
20
130.0365
0
VERTEX
8
CUT
10
68.8374
20
130.0984
0
VERTEX
8
CUT
10
68.5805
20
130.1339
0
VERTEX
8
CUT
10
68.3214
20
130.1425
0
VERTEX
8
CUT
10
68.0627
20
130.1243
0
VERTEX
8
CUT
10
67.8074
20
130.0794
0
VERTEX
8
CUT
10
67.3223
20
129.9680
0
VERTEX
8
CUT
10
67.0982
20
129.9053
0
VERTEX
8
CUT
10
66.8809
20
129.8222
0
VERTEX
8
CUT
10
66.6722
20
129.7191
0
VERTEX
8
CUT
10
66.4741
20
129.5971
0
VERTEX
8
CUT
10
66.2881
20
129.4573
0
VERTEX
8
CUT
10
66.0356
20
129.2482
0
VERTEX
8
CUT
10
65.8512
20
129.0793
0
VERTEX
8
CUT
10
65.6846
20
128.8929
0
VERTEX
8
CUT
10
65.5374
20
128.6907
0
VERTEX
8
CUT
10
65.4112
20
128.4749
0
VERTEX
8
CUT
10
65.3072
20
128.2476
0
VERTEX
8
CUT
10
65.2264
20
128.0109
0
VERTEX
8
CUT
10
65.1697
20
127.7675
0
VERTEX
8
CUT
10
65.1375
20
127.5195
0
VERTEX
8
CUT
10
65.1303
20
127.2696
0
VERTEX
8
CUT
10
65.1481
20
127.0202
0
VERTEX
8
CUT
10
65.1907
20
126.7738
0
VERTEX
8
CUT
10
65.2576
20
126.5330
0
VERTEX
8
CUT
10
65.3484
20
126.3000
0
VERTEX
8
CUT
10
65.4619
20
126.0772
0
VERTEX
8
CUT
10
65.5971
20
125.8669
0
VERTEX
8
CUT
10
66.3271
20
124.8475
0
VERTEX
8
CUT
10
66.5172
20
124.6132
0
VERTEX
8
CUT
10
66.7342
20
124.4036
0
VERTEX
8
CUT
10
67.9025
20
123.4038
0
VERTEX
8
CUT
10
68.0903
20
123.2580
0
VERTEX
8
CUT
10
68.2910
20
123.1307
0
VERTEX
8
CUT
10
70.6786
20
121.7713
0
VERTEX
8
CUT
10
70.7025
20
121.7579
0
VERTEX
8
CUT
10
70.7068
20
121.7555
0
VERTEX
8
CUT
10
70.8089
20
121.7019
0
VERTEX
8
CUT
10
77.8043
20
118.2318
0
VERTEX
8
CUT
10
78.0395
20
118.1044
0
VERTEX
8
CUT
10
78.1961
20
118.0123
0
VERTEX
8
CUT
10
78.4218
20
117.8684
0
VERTEX
8
CUT
10
80.7479
20
116.2659
0
VERTEX
8
CUT
10
80.9076
20
116.1496
0
VERTEX
8
CUT
10
80.9355
20
116.1281
0
VERTEX
8
CUT
10
81.2354
20
115.8710
0
VERTEX
8
CUT
10
81.2609
20
115.8467
0
VERTEX
8
CUT
10
81.4003
20
115.7067
0
VERTEX
8
CUT
10
82.7736
20
114.2524
0
VERTEX
8
CUT
10
82.9031
20
114.1078
0
VERTEX
8
CUT
10
82.9256
20
114.0814
0
VERTEX
8
CUT
10
83.1424
20
113.7982
0
VERTEX
8
CUT
10
83.3287
20
113.4940
0
VERTEX
8
CUT
10
83.3453
20
113.4636
0
VERTEX
8
CUT
10
83.4335
20
113.2907
0
VERTEX
8
CUT
10
83.4600
20
113.2353
0
VERTEX
8
CUT
10
83.5372
20
113.0629
0
VERTEX
8
CUT
10
83.5502
20
113.0317
0
VERTEX
8
CUT
10
83.6678
20
112.7049
0
VERTEX
8
CUT
10
83.7445
20
112.3975
0
VERTEX
8
CUT
10
83.7899
20
112.0840
0
VERTEX
8
CUT
10
83.8035
20
111.7675
0
VERTEX
8
CUT
10
83.7852
20
111.4512
0
VERTEX
8
CUT
10
83.7351
20
111.1383
0
VERTEX
8
CUT
10
83.6538
20
110.8321
0
VERTEX
8
CUT
10
83.5422
20
110.5356
0
VERTEX
8
CUT
10
83.4012
20
110.2519
0
VERTEX
8
CUT
10
83.2324
20
109.9837
0
VERTEX
8
CUT
10
83.0375
20
109.7340
0
VERTEX
8
CUT
10
82.8184
20
109.5051
0
VERTEX
8
CUT
10
82.5775
20
109.2994
0
VERTEX
8
CUT
10
82.3170
20
109.1190
0
VERTEX
8
CUT
10
82.0397
20
108.9657
0
VERTEX
8
CUT
10
81.7484
20
108.8411
0
VERTEX
8
CUT
10
81.4170
20
108.7374
0
VERTEX
8
CUT
10
81.3843
20
108.7290
0
VERTEX
8
CUT
10
81.2002
20
108.6863
0
VERTEX
8
CUT
10
80.3353
20
108.5087
0
VERTEX
8
CUT
10
79.9851
20
108.4097
0
VERTEX
8
CUT
10
79.4845
20
108.2280
0
VERTEX
8
CUT
10
79.2672
20
108.1373
0
VERTEX
8
CUT
10
79.0595
20
108.0266
0
VERTEX
8
CUT
10
78.8630
20
107.8968
0
VERTEX
8
CUT
10
78.6797
20
107.7492
0
VERTEX
8
CUT
10
78.5110
20
107.5849
0
VERTEX
8
CUT
10
78.4517
20
107.5214
0
VERTEX
8
CUT
10
78.3051
20
107.3497
0
VERTEX
8
CUT
10
78.1746
20
107.1654
0
VERTEX
8
CUT
10
78.0613
20
106.9700
0
VERTEX
8
CUT
10
77.9661
20
106.7653
0
VERTEX
8
CUT
10
77.7883
20
106.3328
0
VERTEX
8
CUT
10
77.7103
20
106.1151
0
VERTEX
8
CUT
10
77.6528
20
105.8912
0
VERTEX
8
CUT
10
77.6163
20
105.6629
0
VERTEX
8
CUT
10
77.6009
20
105.4322
0
VERTEX
8
CUT
10
77.5972
20
105.2473
0
VERTEX
8
CUT
10
77.6021
20
105.0329
0
VERTEX
8
CUT
10
77.6254
20
104.8198
0
VERTEX
8
CUT
10
77.6668
20
104.6094
0
VERTEX
8
CUT
10
77.8484
20
103.8587
0
VERTEX
8
CUT
10
77.9039
20
103.6640
0
VERTEX
8
CUT
10
77.9750
20
103.4745
0
VERTEX
8
CUT
10
80.3135
20
97.9323
0
VERTEX
8
CUT
10
80.5837
20
97.2382
0
VERTEX
8
CUT
10
81.4895
20
94.5659
0
VERTEX
8
CUT
10
81.5318
20
94.4331
0
VERTEX
8
CUT
10
81.5389
20
94.4092
0
VERTEX
8
CUT
10
81.6085
20
94.1392
0
VERTEX
8
CUT
10
81.6139
20
94.1148
0
VERTEX
8
CUT
10
81.6411
20
93.9781
0
VERTEX
8
CUT
10
82.0382
20
91.7717
0
VERTEX
8
CUT
10
82.0607
20
91.6320
0
VERTEX
8
CUT
10
82.0642
20
91.6069
0
VERTEX
8
CUT
10
82.0932
20
91.3256
0
VERTEX
8
CUT
10
82.0948
20
91.3003
0
VERTEX
8
CUT
10
82.1013
20
91.1590
0
VERTEX
8
CUT
10
82.2037
20
87.3949
0
VERTEX
8
CUT
10
82.2042
20
87.2106
0
VERTEX
8
CUT
10
82.2015
20
87.0855
0
VERTEX
8
CUT
10
82.1929
20
86.9015
0
VERTEX
8
CUT
10
81.9291
20
83.1964
0
VERTEX
8
CUT
10
81.9170
20
83.0610
0
VERTEX
8
CUT
10
81.9071
20
82.9690
0
VERTEX
8
CUT
10
81.8901
20
82.8341
0
VERTEX
8
CUT
10
80.2607
20
71.5679
0
VERTEX
8
CUT
10
80.2562
20
71.5357
0
VERTEX
8
CUT
10
80.2555
20
71.5298
0
VERTEX
8
CUT
10
80.2414
20
71.3936
0
VERTEX
8
CUT
10
80.0195
20
68.4748
0
VERTEX
8
CUT
10
80.0011
20
68.2924
0
VERTEX
8
CUT
10
79.9971
20
68.2598
0
VERTEX
8
CUT
10
79.9387
20
67.9273
0
VERTEX
8
CUT
10
79.8560
20
67.6306
0
VERTEX
8
CUT
10
79.7447
20
67.3434
0
VERTEX
8
CUT
10
79.6059
20
67.0684
0
VERTEX
8
CUT
10
79.4408
20
66.8084
0
VERTEX
8
CUT
10
79.2511
20
66.5658
0
VERTEX
8
CUT
10
79.0385
20
66.3429
0
VERTEX
8
CUT
10
78.8052
20
66.1418
0
VERTEX
8
CUT
10
78.5533
20
65.9646
0
VERTEX
8
CUT
10
78.2853
20
65.8128
0
VERTEX
8
CUT
10
78.0037
20
65.6880
0
VERTEX
8
CUT
10
77.7113
20
65.5913
0
VERTEX
8
CUT
10
77.4108
20
65.5237
0
VERTEX
8
CUT
10
77.1051
20
65.4858
0
VERTEX
8
CUT
10
76.7972
20
65.4780
0
VERTEX
8
CUT
10
76.4900
20
65.5004
0
VERTEX
8
CUT
10
76.1865
20
65.5527
0
VERTEX
8
CUT
10
75.8895
20
65.6344
0
VERTEX
8
CUT
10
75.6020
20
65.7448
0
VERTEX
8
CUT
10
75.3266
20
65.8828
0
VERTEX
8
CUT
10
75.0661
20
66.0471
0
VERTEX
8
CUT
10
74.8228
20
66.2361
0
VERTEX
8
CUT
10
74.5993
20
66.4479
0
VERTEX
8
CUT
10
74.3975
20
66.6807
0
VERTEX
8
CUT
10
74.2195
20
66.9320
0
VERTEX
8
CUT
10
74.0669
20
67.1995
0
VERTEX
8
CUT
10
73.9291
20
67.5078
0
VERTEX
8
CUT
10
73.9172
20
67.5383
0
VERTEX
8
CUT
10
73.8548
20
67.7111
0
VERTEX
8
CUT
10
73.7130
20
68.1355
0
VERTEX
8
CUT
10
73.6119
20
68.3906
0
VERTEX
8
CUT
10
71.8551
20
72.1992
0
VERTEX
8
CUT
10
71.7724
20
72.3925
0
VERTEX
8
CUT
10
71.7200
20
72.5254
0
VERTEX
8
CUT
10
71.6483
20
72.7230
0
VERTEX
8
CUT
10
71.1795
20
74.1377
0
VERTEX
8
CUT
10
71.1362
20
74.2774
0
VERTEX
8
CUT
10
71.1289
20
74.3026
0
VERTEX
8
CUT
10
71.0588
20
74.5865
0
VERTEX
8
CUT
10
71.0535
20
74.6122
0
VERTEX
8
CUT
10
71.0268
20
74.7560
0
VERTEX
8
CUT
10
70.8031
20
76.1084
0
VERTEX
8
CUT
10
70.7722
20
76.3395
0
VERTEX
8
CUT
10
70.7561
20
76.4970
0
VERTEX
8
CUT
10
70.7396
20
76.7296
0
VERTEX
8
CUT
10
70.6743
20
78.3795
0
VERTEX
8
CUT
10
70.6717
20
78.5761
0
VERTEX
8
CUT
10
70.6734
20
78.7096
0
VERTEX
8
CUT
10
70.6811
20
78.9060
0
VERTEX
8
CUT
10
70.8502
20
81.4917
0
VERTEX
8
CUT
10
70.8620
20
81.6318
0
VERTEX
8
CUT
10
70.8646
20
81.6569
0
VERTEX
8
CUT
10
70.9039
20
81.9353
0
VERTEX
8
CUT
10
70.9083
20
81.9601
0
VERTEX
8
CUT
10
70.9358
20
82.0980
0
VERTEX
8
CUT
10
71.3022
20
83.7735
0
VERTEX
8
CUT
10
71.3430
20
83.9415
0
VERTEX
8
CUT
10
71.3734
20
84.0550
0
VERTEX
8
CUT
10
71.4219
20
84.2211
0
VERTEX
8
CUT
10
73.2760
20
90.0582
0
VERTEX
8
CUT
10
73.3293
20
90.2533
0
VERTEX
8
CUT
10
73.3668
20
90.4521
0
VERTEX
8
CUT
10
73.5362
20
91.6073
0
VERTEX
8
CUT
10
73.5590
20
91.8348
0
VERTEX
8
CUT
10
73.5610
20
92.0633
0
VERTEX
8
CUT
10
73.5420
20
92.2911
0
VERTEX
8
CUT
10
73.4406
20
93.0745
0
VERTEX
8
CUT
10
73.3990
20
93.3081
0
VERTEX
8
CUT
10
73.3354
20
93.5367
0
VERTEX
8
CUT
10
73.2505
20
93.7583
0
VERTEX
8
CUT
10
72.6673
20
95.0868
0
VERTEX
8
CUT
10
72.5558
20
95.3099
0
VERTEX
8
CUT
10
72.4226
20
95.5208
0
VERTEX
8
CUT
10
72.2690
20
95.7174
0
VERTEX
8
CUT
10
71.4977
20
96.6092
0
VERTEX
8
CUT
10
71.3075
20
96.8062
0
VERTEX
8
CUT
10
71.0969
20
96.9812
0
VERTEX
8
CUT
10
66.0922
20
100.6961
0
VERTEX
8
CUT
10
65.9437
20
100.8122
0
VERTEX
8
CUT
10
65.8449
20
100.8936
0
VERTEX
8
CUT
10
65.7025
20
101.0170
0
VERTEX
8
CUT
10
64.8431
20
101.8002
0
VERTEX
8
CUT
10
64.6941
20
101.9437
0
VERTEX
8
CUT
10
64.6683
20
101.9700
0
VERTEX
8
CUT
10
64.3953
20
102.2804
0
VERTEX
8
CUT
10
64.3725
20
102.3094
0
VERTEX
8
CUT
10
64.2492
20
102.4754
0
VERTEX
8
CUT
10
63.8887
20
102.9901
0
VERTEX
8
CUT
10
63.7848
20
103.1465
0
VERTEX
8
CUT
10
63.7670
20
103.1749
0
VERTEX
8
CUT
10
63.5983
20
103.4758
0
VERTEX
8
CUT
10
63.4605
20
103.7921
0
VERTEX
8
CUT
10
63.4487
20
103.8235
0
VERTEX
8
CUT
10
63.3868
20
104.0007
0
VERTEX
8
CUT
10
63.2853
20
104.3170
0
VERTEX
8
CUT
10
63.2333
20
104.4936
0
VERTEX
8
CUT
10
63.2248
20
104.5254
0
VERTEX
8
CUT
10
63.1534
20
104.8561
0
VERTEX
8
CUT
10
63.1149
20
105.1923
0
VERTEX
8
CUT
10
63.1127
20
105.2251
0
VERTEX
8
CUT
10
63.1052
20
105.4091
0
VERTEX
8
CUT
10
63.1048
20
105.4357
0
VERTEX
8
CUT
10
63.1063
20
105.6177
0
VERTEX
8
CUT
10
63.1074
20
105.6502
0
VERTEX
8
CUT
10
63.1344
20
105.9836
0
VERTEX
8
CUT
10
63.1885
20
106.2839
0
VERTEX
8
CUT
10
63.2714
20
106.5776
0
VERTEX
8
CUT
10
63.3823
20
106.8618
0
VERTEX
8
CUT
10
63.5203
20
107.1340
0
VERTEX
8
CUT
10
63.6840
20
107.3915
0
VERTEX
8
CUT
10
63.8719
20
107.6319
0
VERTEX
8
CUT
10
64.0822
20
107.8530
0
VERTEX
8
CUT
10
64.3130
20
108.0526
0
VERTEX
8
CUT
10
64.5620
20
108.2290
0
VERTEX
8
CUT
10
64.8270
20
108.3804
0
VERTEX
8
CUT
10
65.1321
20
108.5174
0
VERTEX
8
CUT
10
65.1623
20
108.5293
0
VERTEX
8
CUT
10
65.3333
20
108.5916
0
VERTEX
8
CUT
10
66.2291
20
108.8934
0
VERTEX
8
CUT
10
66.4518
20
108.9805
0
VERTEX
8
CUT
10
66.6651
20
109.0885
0
VERTEX
8
CUT
10
66.8672
20
109.2164
0
VERTEX
8
CUT
10
67.0561
20
109.3630
0
VERTEX
8
CUT
10
67.2302
20
109.5270
0
VERTEX
8
CUT
10
67.3878
20
109.7068
0
VERTEX
8
CUT
10
67.5274
20
109.9009
0
VERTEX
8
CUT
10
67.6479
20
110.1075
0
VERTEX
8
CUT
10
67.7482
20
110.3246
0
VERTEX
8
CUT
10
67.8272
20
110.5503
0
VERTEX
8
CUT
10
67.8842
20
110.7825
0
VERTEX
8
CUT
10
67.9189
20
111.0192
0
VERTEX
8
CUT
10
67.9307
20
111.2580
0
VERTEX
8
CUT
10
67.9197
20
111.4969
0
VERTEX
8
CUT
10
67.9100
20
111.5999
0
VERTEX
8
CUT
10
67.8787
20
111.8239
0
VERTEX
8
CUT
10
67.8272
20
112.0442
0
VERTEX
8
CUT
10
67.7560
20
112.2589
0
VERTEX
8
CUT
10
67.6657
20
112.4663
0
VERTEX
8
CUT
10
67.3759
20
113.0571
0
VERTEX
8
CUT
10
67.2724
20
113.2469
0
VERTEX
8
CUT
10
67.1529
20
113.4271
0
VERTEX
8
CUT
10
66.2324
20
114.6923
0
VERTEX
8
CUT
10
66.0750
20
114.8874
0
VERTEX
8
CUT
10
61.0962
20
120.4588
0
VERTEX
8
CUT
10
61.0044
20
120.5656
0
VERTEX
8
CUT
10
60.9433
20
120.6393
0
VERTEX
8
CUT
10
60.8556
20
120.7494
0
VERTEX
8
CUT
10
56.1488
20
126.8876
0
VERTEX
8
CUT
10
56.0076
20
127.0846
0
VERTEX
8
CUT
10
55.9161
20
127.2214
0
VERTEX
8
CUT
10
55.7879
20
127.4272
0
VERTEX
8
CUT
10
53.3941
20
131.5616
0
VERTEX
8
CUT
10
53.2903
20
131.7536
0
VERTEX
8
CUT
10
53.2728
20
131.7883
0
VERTEX
8
CUT
10
53.0996
20
132.1887
0
VERTEX
8
CUT
10
53.0862
20
132.2252
0
VERTEX
8
CUT
10
53.0173
20
132.4324
0
VERTEX
8
CUT
10
52.8559
20
132.9696
0
VERTEX
8
CUT
10
52.8118
20
133.1290
0
VERTEX
8
CUT
10
52.8045
20
133.1577
0
VERTEX
8
CUT
10
52.7430
20
133.4554
0
VERTEX
8
CUT
10
52.7110
20
133.7309
0
VERTEX
8
CUT
10
52.7027
20
134.0348
0
VERTEX
8
CUT
10
52.7032
20
134.0643
0
VERTEX
8
CUT
10
52.7097
20
134.2296
0
VERTEX
8
CUT
10
52.7102
20
134.2381
0
VERTEX
8
CUT
10
52.7136
20
134.4670
0
VERTEX
8
CUT
10
52.6961
20
134.6953
0
VERTEX
8
CUT
10
52.6578
20
134.9210
0
VERTEX
8
CUT
10
52.6277
20
135.0595
0
VERTEX
8
CUT
10
52.6224
20
135.0867
0
VERTEX
8
CUT
10
52.5793
20
135.3675
0
VERTEX
8
CUT
10
52.5596
20
135.6510
0
VERTEX
8
CUT
10
52.5588
20
135.6786
0
VERTEX
8
CUT
10
52.5576
20
135.8332
0
VERTEX
8
CUT
10
52.5631
20
136.2716
0
VERTEX
8
CUT
10
52.5534
20
136.5258
0
VERTEX
8
CUT
10
52.5180
20
136.7777
0
VERTEX
8
CUT
10
52.4571
20
137.0247
0
VERTEX
8
CUT
10
52.3714
20
137.2642
0
VERTEX
8
CUT
10
52.2618
20
137.4938
0
VERTEX
8
CUT
10
52.1294
20
137.7111
0
VERTEX
8
CUT
10
51.4509
20
138.7069
0
VERTEX
8
CUT
10
51.3444
20
138.8725
0
VERTEX
8
CUT
10
51.3262
20
138.9026
0
VERTEX
8
CUT
10
51.1549
20
139.2213
0
VERTEX
8
CUT
10
51.0300
20
139.5268
0
VERTEX
8
CUT
10
50.9379
20
139.8438
0
VERTEX
8
CUT
10
50.8738
20
140.1999
0
VERTEX
8
CUT
10
50.8694
20
140.2348
0
VERTEX
8
CUT
10
50.8499
20
140.4307
0
VERTEX
8
CUT
10
50.7998
20
141.1168
0
VERTEX
8
CUT
10
50.7916
20
141.2752
0
VERTEX
8
CUT
10
50.7908
20
141.3036
0
VERTEX
8
CUT
10
50.7942
20
141.5952
0
VERTEX
8
CUT
10
50.8222
20
141.8855
0
VERTEX
8
CUT
10
50.8261
20
141.9136
0
VERTEX
8
CUT
10
50.8514
20
142.0702
0
VERTEX
8
CUT
10
51.0025
20
142.8964
0
VERTEX
8
CUT
10
51.0378
20
143.0668
0
VERTEX
8
CUT
10
51.0448
20
143.0972
0
VERTEX
8
CUT
10
51.1313
20
143.4051
0
VERTEX
8
CUT
10
51.2460
20
143.7037
0
VERTEX
8
CUT
10
51.2584
20
143.7322
0
VERTEX
8
CUT
10
51.3320
20
143.8900
0
VERTEX
8
CUT
10
51.6914
20
144.6165
0
VERTEX
8
CUT
10
51.7624
20
144.7529
0
VERTEX
8
CUT
10
51.7756
20
144.7770
0
VERTEX
8
CUT
10
51.9212
20
145.0192
0
VERTEX
8
CUT
10
52.0659
20
145.2204
0
VERTEX
8
CUT
10
52.2577
20
145.4437
0
VERTEX
8
CUT
10
52.5126
20
145.6871
0
VERTEX
8
CUT
10
52.7700
20
145.8856
0
VERTEX
8
CUT
10
53.0486
20
146.0576
0
VERTEX
8
CUT
10
53.3437
20
146.1996
0
VERTEX
8
CUT
10
53.6519
20
146.3102
0
VERTEX
8
CUT
10
53.9699
20
146.3881
0
VERTEX
8
CUT
10
54.3701
20
146.4429
0
VERTEX
8
CUT
10
54.6440
20
146.4961
0
SEQEND
0
POLYLINE
8
CUT
66
1
70
1
10
0.0
20
0.0
30
0.0
0
VERTEX
8
CUT
10
224.2824
20
119.2677
0
VERTEX
8
CUT
10
224.3136
20
119.2839
0
VERTEX
8
CUT
10
224.4471
20
119.3531
0
VERTEX
8
CUT
10
224.5948
20
119.4297
0
VERTEX
8
CUT
10
231.1999
20
122.7176
0
VERTEX
8
CUT
10
231.4060
20
122.8326
0
VERTEX
8
CUT
10
231.6003
20
122.9666
0
VERTEX
8
CUT
10
233.2148
20
124.1959
0
VERTEX
8
CUT
10
233.4392
20
124.3887
0
VERTEX
8
CUT
10
233.6392
20
124.6067
0
VERTEX
8
CUT
10
234.1981
20
125.2933
0
VERTEX
8
CUT
10
234.3480
20
125.4979
0
VERTEX
8
CUT
10
234.4764
20
125.7165
0
VERTEX
8
CUT
10
234.5820
20
125.9471
0
VERTEX
8
CUT
10
234.6637
20
126.1872
0
VERTEX
8
CUT
10
234.7207
20
126.4343
0
VERTEX
8
CUT
10
234.7765
20
126.7486
0
VERTEX
8
CUT
10
234.8086
20
127.0061
0
VERTEX
8
CUT
10
234.8138
20
127.2655
0
VERTEX
8
CUT
10
234.8044
20
127.5611
0
VERTEX
8
CUT
10
234.7853
20
127.7995
0
VERTEX
8
CUT
10
234.7436
20
128.0349
0
VERTEX
8
CUT
10
234.6796
20
128.2653
0
VERTEX
8
CUT
10
234.5938
20
128.4885
0
VERTEX
8
CUT
10
234.4871
20
128.7025
0
VERTEX
8
CUT
10
234.3605
20
128.9054
0
VERTEX
8
CUT
10
234.2150
20
129.0952
0
VERTEX
8
CUT
10
234.0521
20
129.2702
0
VERTEX
8
CUT
10
233.8732
20
129.4289
0
VERTEX
8
CUT
10
233.6800
20
129.5698
0
VERTEX
8
CUT
10
233.4742
20
129.6915
0
VERTEX
8
CUT
10
233.2577
20
129.7931
0
VERTEX
8
CUT
10
233.0325
20
129.8734
0
VERTEX
8
CUT
10
232.8006
20
129.9319
0
VERTEX
8
CUT
10
232.5642
20
129.9680
0
VERTEX
8
CUT
10
232.4299
20
129.9820
0
VERTEX
8
CUT
10
232.1885
20
129.9953
0
VERTEX
8
CUT
10
231.9470
20
129.9853
0
VERTEX
8
CUT
10
231.7075
20
129.9520
0
VERTEX
8
CUT
10
231.4724
20
129.8957
0
VERTEX
8
CUT
10
229.9352
20
129.4481
0
VERTEX
8
CUT
10
229.7167
20
129.3916
0
VERTEX
8
CUT
10
229.6775
20
129.3827
0
VERTEX
8
CUT
10
229.2325
20
129.3096
0
VERTEX
8
CUT
10
229.1925
20
129.3054
0
VERTEX
8
CUT
10
228.9674
20
129.2891
0
VERTEX
8
CUT
10
228.7336
20
129.2791
0
VERTEX
8
CUT
10
228.5597
20
129.2757
0
VERTEX
8
CUT
10
228.5286
20
129.2758
0
VERTEX
8
CUT
10
228.2094
20
129.2919
0
VERTEX
8
CUT
10
227.9207
20
129.3334
0
VERTEX
8
CUT
10
227.6099
20
129.4081
0
VERTEX
8
CUT
10
227.5801
20
129.4167
0
VERTEX
8
CUT
10
227.4142
20
129.4690
0
VERTEX
8
CUT
10
227.0645
20
129.5882
0
VERTEX
8
CUT
10
226.8898
20
129.6526
0
VERTEX
8
CUT
10
226.8588
20
129.6649
0
VERTEX
8
CUT
10
226.5474
20
129.8069
0
VERTEX
8
CUT
10
226.2776
20
129.9639
0
VERTEX
8
CUT
10
226.0246
20
130.1470
0
VERTEX
8
CUT
10
225.7911
20
130.3542
0
VERTEX
8
CUT
10
225.5792
20
130.5836
0
VERTEX
8
CUT
10
225.3912
20
130.8329
0
VERTEX
8
CUT
10
225.2288
20
131.0996
0
VERTEX
8
CUT
10
225.0936
20
131.3810
0
VERTEX
8
CUT
10
224.9870
20
131.6745
0
VERTEX
8
CUT
10
224.9101
20
131.9771
0
VERTEX
8
CUT
10
224.8635
20
132.2859
0
VERTEX
8
CUT
10
224.8478
20
132.5977
0
VERTEX
8
CUT
10
224.8631
20
132.9096
0
VERTEX
8
CUT
10
224.9092
20
133.2184
0
VERTEX
8
CUT
10
224.9858
20
133.5211
0
VERTEX
8
CUT
10
225.0920
20
133.8148
0
VERTEX
8
CUT
10
225.2268
20
134.0964
0
VERTEX
8
CUT
10
225.3888
20
134.3633
0
VERTEX
8
CUT
10
225.5765
20
134.6128
0
VERTEX
8
CUT
10
225.7881
20
134.8425
0
VERTEX
8
CUT
10
225.9605
20
134.9959
0
VERTEX
8
CUT
10
226.1319
20
135.1638
0
VERTEX
8
CUT
10
226.2865
20
135.3475
0
VERTEX
8
CUT
10
226.4227
20
135.5451
0
VERTEX
8
CUT
10
226.5394
20
135.7549
0
VERTEX
8
CUT
10
226.6354
20
135.9749
0
VERTEX
8
CUT
10
226.7471
20
136.2687
0
VERTEX
8
CUT
10
226.8778
20
136.5342
0
VERTEX
8
CUT
10
227.0329
20
136.7861
0
VERTEX
8
CUT
10
227.2109
20
137.0224
0
VERTEX
8
CUT
10
227.4104
20
137.2409
0
VERTEX
8
CUT
10
227.6505
20
137.4588
0
VERTEX
8
CUT
10
227.6749
20
137.4789
0
VERTEX
8
CUT
10
227.8136
20
137.5879
0
VERTEX
8
CUT
10
229.2027
20
138.6282
0
VERTEX
8
CUT
10
229.5920
20
138.8995
0
VERTEX
8
CUT
10
229.7560
20
139.0138
0
VERTEX
8
CUT
10
229.7902
20
139.0377
0
VERTEX
8
CUT
10
230.6444
20
139.6330
0
VERTEX
8
CUT
10
234.0954
20
141.7527
0
VERTEX
8
CUT
10
234.1242
20
141.7706
0
VERTEX
8
CUT
10
234.1294
20
141.7739
0
VERTEX
8
CUT
10
234.2481
20
141.8539
0
VERTEX
8
CUT
10
241.3246
20
146.9232
0
VERTEX
8
CUT
10
241.4996
20
147.0412
0
VERTEX
8
CUT
10
241.5314
20
147.0614
0
VERTEX
8
CUT
10
241.8702
20
147.2505
0
VERTEX
8
CUT
10
242.2281
20
147.4003
0
VERTEX
8
CUT
10
242.2636
20
147.4129
0
VERTEX
8
CUT
10
242.4549
20
147.4745
0
VERTEX
8
CUT
10
242.6306
20
147.5209
0
VERTEX
8
CUT
10
242.6642
20
147.5288
0
VERTEX
8
CUT
10
243.0131
20
147.5926
0
VERTEX
8
CUT
10
243.3358
20
147.6177
0
VERTEX
8
CUT
10
243.6593
20
147.6096
0
VERTEX
8
CUT
10
244.0111
20
147.5642
0
VERTEX
8
CUT
10
244.0450
20
147.5580
0
VERTEX
8
CUT
10
244.2340
20
147.5187
0
VERTEX
8
CUT
10
244.4851
20
147.4596
0
VERTEX
8
CUT
10
244.6682
20
147.4116
0
VERTEX
8
CUT
10
244.7006
20
147.4022
0
VERTEX
8
CUT
10
245.0293
20
147.2888
0
VERTEX
8
CUT
10
245.3450
20
147.1429
0
VERTEX
8
CUT
10
245.3749
20
147.1272
0
VERTEX
8
CUT
10
245.5401
20
147.0351
0
VERTEX
8
CUT
10
246.9453
20
146.2044
0
VERTEX
8
CUT
10
247.0932
20
146.1122
0
VERTEX
8
CUT
10
247.1192
20
146.0951
0
VERTEX
8
CUT
10
247.3786
20
145.9073
0
VERTEX
8
CUT
10
247.5984
20
145.7146
0
VERTEX
8
CUT
10
247.8186
20
145.4820
0
VERTEX
8
CUT
10
247.8389
20
145.4584
0
VERTEX
8
CUT
10
247.9496
20
145.3238
0
VERTEX
8
CUT
10
248.3938
20
144.7575
0
VERTEX
8
CUT
10
248.5195
20
144.5876
0
VERTEX
8
CUT
10
248.5410
20
144.5567
0
VERTEX
8
CUT
10
248.7447
20
144.2262
0
VERTEX
8
CUT
10
248.9100
20
143.8749
0
VERTEX
8
CUT
10
248.9241
20
143.8399
0
VERTEX
8
CUT
10
248.9975
20
143.6418
0
VERTEX
8
CUT
10
249.3028
20
142.7413
0
VERTEX
8
CUT
10
249.3543
20
142.5773
0
VERTEX
8
CUT
10
249.3628
20
142.5478
0
VERTEX
8
CUT
10
249.4365
20
142.2405
0
VERTEX
8
CUT
10
249.4817
20
141.9277
0
VERTEX
8
CUT
10
249.4847
20
141.8971
0
VERTEX
8
CUT
10
249.4975
20
141.7257
0
VERTEX
8
CUT
10
249.5660
20
140.4054
0
VERTEX
8
CUT
10
249.5710
20
140.2076
0
VERTEX
8
CUT
10
249.5710
20
140.1723
0
VERTEX
8
CUT
10
249.5497
20
139.7773
0
VERTEX
8
CUT
10
249.5460
20
139.7422
0
VERTEX
8
CUT
10
249.5197
20
139.5460
0
VERTEX
8
CUT
10
249.2225
20
137.6958
0
VERTEX
8
CUT
10
249.1947
20
137.5428
0
VERTEX
8
CUT
10
249.1891
20
137.5155
0
VERTEX
8
CUT
10
249.1145
20
137.2137
0
VERTEX
8
CUT
10
249.1067
20
137.1869
0
VERTEX
8
CUT
10
249.0601
20
137.0386
0
VERTEX
8
CUT
10
248.2638
20
134.6768
0
VERTEX
8
CUT
10
248.1961
20
134.4922
0
VERTEX
8
CUT
10
248.1469
20
134.3681
0
VERTEX
8
CUT
10
248.0696
20
134.1873
0
VERTEX
8
CUT
10
246.8292
20
131.4833
0
VERTEX
8
CUT
10
246.7414
20
131.3045
0
VERTEX
8
CUT
10
246.6786
20
131.1848
0
VERTEX
8
CUT
10
246.5814
20
131.0109
0
VERTEX
8
CUT
10
244.0844
20
126.8102
0
VERTEX
8
CUT
10
243.9730
20
126.6341
0
VERTEX
8
CUT
10
243.8941
20
126.5167
0
VERTEX
8
CUT
10
243.7730
20
126.3470
0
VERTEX
8
CUT
10
240.5850
20
122.1313
0
VERTEX
8
CUT
10
240.4958
20
122.0179
0
VERTEX
8
CUT
10
240.4337
20
121.9420
0
VERTEX
8
CUT
10
240.3402
20
121.8322
0
VERTEX
8
CUT
10
233.7619
20
114.3985
0
VERTEX
8
CUT
10
233.7412
20
114.3749
0
VERTEX
8
CUT
10
233.7373
20
114.3704
0
VERTEX
8
CUT
10
233.6540
20
114.2685
0
VERTEX
8
CUT
10
233.0410
20
113.4774
0
VERTEX
8
CUT
10
232.9060
20
113.2851
0
VERTEX
8
CUT
10
232.7897
20
113.0811
0
VERTEX
8
CUT
10
232.4954
20
112.5034
0
VERTEX
8
CUT
10
232.3922
20
112.2729
0
VERTEX
8
CUT
10
232.3129
20
112.0331
0
VERTEX
8
CUT
10
232.2581
20
111.7865
0
VERTEX
8
CUT
10
232.2285
20
111.5356
0
VERTEX
8
CUT
10
232.2244
20
111.2831
0
VERTEX
8
CUT
10
232.2458
20
111.0314
0
VERTEX
8
CUT
10
232.2924
20
110.7831
0
VERTEX
8
CUT
10
232.3639
20
110.5408
0
VERTEX
8
CUT
10
232.4595
20
110.3070
0
VERTEX
8
CUT
10
232.5781
20
110.0840
0
VERTEX
8
CUT
10
232.6503
20
109.9635
0
VERTEX
8
CUT
10
232.7731
20
109.7777
0
VERTEX
8
CUT
10
232.9120
20
109.6036
0
VERTEX
8
CUT
10
233.0658
20
109.4426
0
VERTEX
8
CUT
10
233.2333
20
109.2959
0
VERTEX
8
CUT
10
233.4132
20
109.1646
0
VERTEX
8
CUT
10
233.4626
20
109.1319
0
VERTEX
8
CUT
10
233.6821
20
109.0019
0
VERTEX
8
CUT
10
233.9137
20
108.8949
0
VERTEX
8
CUT
10
235.0494
20
108.4394
0
VERTEX
8
CUT
10
235.2222
20
108.3650
0
VERTEX
8
CUT
10
235.2527
20
108.3509
0
VERTEX
8
CUT
10
235.5592
20
108.1906
0
VERTEX
8
CUT
10
235.8228
20
108.0171
0
VERTEX
8
CUT
10
236.0676
20
107.8181
0
VERTEX
8
CUT
10
236.2912
20
107.5955
0
VERTEX
8
CUT
10
236.4914
20
107.3516
0
VERTEX
8
CUT
10
236.6662
20
107.0889
0
VERTEX
8
CUT
10
236.8138
20
106.8100
0
VERTEX
8
CUT
10
236.9326
20
106.5177
0
VERTEX
8
CUT
10
237.0216
20
106.2150
0
VERTEX
8
CUT
10
237.0798
20
105.9049
0
VERTEX
8
CUT
10
237.1066
20
105.5905
0
VERTEX
8
CUT
10
237.1018
20
105.2750
0
VERTEX
8
CUT
10
237.0653
20
104.9616
0
VERTEX
8
CUT
10
236.9912
20
104.6238
0
VERTEX
8
CUT
10
236.9823
20
104.5914
0
VERTEX
8
CUT
10
236.9283
20
104.4111
0
VERTEX
8
CUT
10
236.8288
20
104.1071
0
VERTEX
8
CUT
10
236.7727
20
103.9482
0
VERTEX
8
CUT
10
236.7621
20
103.9200
0
VERTEX
8
CUT
10
236.6396
20
103.6354
0
VERTEX
8
CUT
10
236.4921
20
103.3630
0
VERTEX
8
CUT
10
236.4766
20
103.3372
0
VERTEX
8
CUT
10
236.3866
20
103.1947
0
VERTEX
8
CUT
10
235.9577
20
102.5488
0
VERTEX
8
CUT
10
235.8384
20
102.3795
0
VERTEX
8
CUT
10
235.8163
20
102.3499
0
VERTEX
8
CUT
10
235.5508
20
102.0324
0
VERTEX
8
CUT
10
235.5256
20
102.0055
0
VERTEX
8
CUT
10
235.3800
20
101.8582
0
VERTEX
8
CUT
10
234.4495
20
100.9671
0
VERTEX
8
CUT
10
234.2576
20
100.7956
0
VERTEX
8
CUT
10
234.1235
20
100.6837
0
VERTEX
8
CUT
10
233.9204
20
100.5258
0
VERTEX
8
CUT
10
230.6731
20
98.1757
0
VERTEX
8
CUT
10
230.6454
20
98.1554
0
VERTEX
8
CUT
10
230.6403
20
98.1516
0
VERTEX
8
CUT
10
230.5269
20
98.0618
0
VERTEX
8
CUT
10
228.7048
20
96.5330
0
VERTEX
8
CUT
10
228.4859
20
96.3256
0
VERTEX
8
CUT
10
228.2935
20
96.0933
0
VERTEX
8
CUT
10
227.5068
20
95.0172
0
VERTEX
8
CUT
10
227.3812
20
94.8279
0
VERTEX
8
CUT
10
227.2733
20
94.6279
0
VERTEX
8
CUT
10
227.1840
20
94.4190
0
VERTEX
8
CUT
10
227.0970
20
94.1869
0
VERTEX
8
CUT
10
227.0080
20
93.8973
0
VERTEX
8
CUT
10
226.9548
20
93.5990
0
VERTEX
8
CUT
10
226.7954
20
92.2319
0
VERTEX
8
CUT
10
226.7788
20
91.9765
0
VERTEX
8
CUT
10
226.7885
20
91.7206
0
VERTEX
8
CUT
10
226.8577
20
90.9437
0
VERTEX
8
CUT
10
226.8963
20
90.6759
0
VERTEX
8
CUT
10
226.9635
20
90.4138
0
VERTEX
8
CUT
10
228.4710
20
85.6325
0
VERTEX
8
CUT
10
228.5185
20
85.4690
0
VERTEX
8
CUT
10
228.5483
20
85.3573
0
VERTEX
8
CUT
10
228.5883
20
85.1918
0
VERTEX
8
CUT
10
229.4461
20
81.2567
0
VERTEX
8
CUT
10
229.4834
20
81.0603
0
VERTEX
8
CUT
10
229.4891
20
81.0250
0
VERTEX
8
CUT
10
229.5322
20
80.6277
0
VERTEX
8
CUT
10
229.5342
20
80.5921
0
VERTEX
8
CUT
10
229.5397
20
80.3922
0
VERTEX
8
CUT
10
229.5441
20
77.1091
0
VERTEX
8
CUT
10
229.5400
20
76.9286
0
VERTEX
8
CUT
10
229.5385
20
76.8964
0
VERTEX
8
CUT
10
229.5042
20
76.5371
0
VERTEX
8
CUT
10
229.4996
20
76.5052
0
VERTEX
8
CUT
10
229.4696
20
76.3272
0
VERTEX
8
CUT
10
229.2021
20
74.9457
0
VERTEX
8
CUT
10
229.1539
20
74.7310
0
VERTEX
8
CUT
10
229.1170
20
74.5863
0
VERTEX
8
CUT
10
229.0563
20
74.3747
0
VERTEX
8
CUT
10
228.5701
20
72.8497
0
VERTEX
8
CUT
10
228.5170
20
72.6949
0
VERTEX
8
CUT
10
228.4786
20
72.5905
0
VERTEX
8
CUT
10
228.4188
20
72.4382
0
VERTEX
8
CUT
10
226.6836
20
68.2873
0
VERTEX
8
CUT
10
226.5912
20
68.0265
0
VERTEX
8
CUT
10
226.5265
20
67.8060
0
VERTEX
8
CUT
10
226.4713
20
67.6334
0
VERTEX
8
CUT
10
226.4607
20
67.6028
0
VERTEX
8
CUT
10
226.3367
20
67.2938
0
VERTEX
8
CUT
10
226.1968
20
67.0241
0
VERTEX
8
CUT
10
226.0315
20
66.7692
0
VERTEX
8
CUT
10
225.8424
20
66.5314
0
VERTEX
8
CUT
10
225.6313
20
66.3130
0
VERTEX
8
CUT
10
225.4000
20
66.1159
0
VERTEX
8
CUT
10
225.1509
20
65.9421
0
VERTEX
8
CUT
10
224.8861
20
65.7931
0
VERTEX
8
CUT
10
224.6082
20
65.6704
0
VERTEX
8
CUT
10
224.3197
20
65.5751
0
VERTEX
8
CUT
10
224.0234
20
65.5080
0
VERTEX
8
CUT
10
223.7220
20
65.4699
0
VERTEX
8
CUT
10
223.4183
20
65.4610
0
VERTEX
8
CUT
10
223.1152
20
65.4815
0
VERTEX
8
CUT
10
222.8155
20
65.5311
0
VERTEX
8
CUT
10
222.5220
20
65.6094
0
VERTEX
8
CUT
10
222.2373
20
65.7156
0
VERTEX
8
CUT
10
221.9643
20
65.8488
0
VERTEX
8
CUT
10
221.7054
20
66.0078
0
VERTEX
8
CUT
10
221.4630
20
66.1910
0
VERTEX
8
CUT
10
221.2395
20
66.3967
0
VERTEX
8
CUT
10
221.0368
20
66.6230
0
VERTEX
8
CUT
10
220.8569
20
66.8678
0
VERTEX
8
CUT
10
220.7015
20
67.1289
0
VERTEX
8
CUT
10
220.5720
20
67.4037
0
VERTEX
8
CUT
10
220.4696
20
67.6897
0
VERTEX
8
CUT
10
220.3953
20
67.9843
0
VERTEX
8
CUT
10
220.3454
20
68.3135
0
VERTEX
8
CUT
10
220.3421
20
68.3457
0
VERTEX
8
CUT
10
220.3280
20
68.5264
0
VERTEX
8
CUT
10
220.2564
20
69.8556
0
VERTEX
8
CUT
10
220.2546
20
69.8852
0
VERTEX
8
CUT
10
220.2542
20
69.8905
0
VERTEX
8
CUT
10
220.2429
20
70.0147
0
VERTEX
8
CUT
10
219.1524
20
79.4090
0
VERTEX
8
CUT
10
219.1033
20
79.6905
0
VERTEX
8
CUT
10
218.3641
20
82.8487
0
VERTEX
8
CUT
10
218.3178
20
83.0788
0
VERTEX
8
CUT
10
218.2912
20
83.2359
0
VERTEX
8
CUT
10
218.2594
20
83.4684
0
VERTEX
8
CUT
10
218.1403
20
84.6009
0
VERTEX
8
CUT
10
218.1262
20
84.7733
0
VERTEX
8
CUT
10
218.1193
20
84.8906
0
VERTEX
8
CUT
10
218.1132
20
85.0635
0
VERTEX
8
CUT
10
218.0613
20
89.2317
0
VERTEX
8
CUT
10
218.0614
20
89.2388
0
VERTEX
8
CUT
10
218.0616
20
89.2563
0
VERTEX
8
CUT
10
218.0625
20
89.3439
0
VERTEX
8
CUT
10
218.0667
20
89.7231
0
VERTEX
8
CUT
10
218.0757
20
89.8763
0
VERTEX
8
CUT
10
218.2611
20
92.1313
0
VERTEX
8
CUT
10
218.2798
20
92.3074
0
VERTEX
8
CUT
10
218.2839
20
92.3388
0
VERTEX
8
CUT
10
218.3460
20
92.6873
0
VERTEX
8
CUT
10
218.3530
20
92.7181
0
VERTEX
8
CUT
10
218.3964
20
92.8898
0
VERTEX
8
CUT
10
219.3574
20
96.3495
0
VERTEX
8
CUT
10
219.4343
20
96.5937
0
VERTEX
8
CUT
10
219.4921
20
96.7576
0
VERTEX
8
CUT
10
219.5855
20
96.9960
0
VERTEX
8
CUT
10
222.0222
20
102.6402
0
VERTEX
8
CUT
10
222.0366
20
102.6741
0
VERTEX
8
CUT
10
222.0392
20
102.6805
0
VERTEX
8
CUT
10
222.0940
20
102.8252
0
VERTEX
8
CUT
10
222.5191
20
104.0627
0
VERTEX
8
CUT
10
222.5917
20
104.3168
0
VERTEX
8
CUT
10
222.6370
20
104.5771
0
VERTEX
8
CUT
10
222.6748
20
104.8927
0
VERTEX
8
CUT
10
222.6918
20
105.1261
0
VERTEX
8
CUT
10
222.6869
20
105.3600
0
VERTEX
8
CUT
10
222.6601
20
105.5925
0
VERTEX
8
CUT
10
222.6117
20
105.8215
0
VERTEX
8
CUT
10
222.4930
20
106.2767
0
VERTEX
8
CUT
10
222.4230
20
106.5012
0
VERTEX
8
CUT
10
222.3322
20
106.7182
0
VERTEX
8
CUT
10
222.2214
20
106.9257
0
VERTEX
8
CUT
10
222.2085
20
106.9451
0
VERTEX
8
CUT
10
222.1753
20
107.0078
0
VERTEX
8
CUT
10
222.0376
20
107.2148
0
VERTEX
8
CUT
10
221.8799
20
107.4071
0
VERTEX
8
CUT
10
221.7040
20
107.5829
0
VERTEX
8
CUT
10
221.6799
20
107.6026
0
VERTEX
8
CUT
10
221.6271
20
107.6620
0
VERTEX
8
CUT
10
221.4478
20
107.8444
0
VERTEX
8
CUT
10
221.2508
20
108.0075
0
VERTEX
8
CUT
10
221.0381
20
108.1496
0
VERTEX
8
CUT
10
220.8120
20
108.2693
0
VERTEX
8
CUT
10
220.6180
20
108.3596
0
VERTEX
8
CUT
10
220.3916
20
108.4518
0
VERTEX
8
CUT
10
220.1573
20
108.5214
0
VERTEX
8
CUT
10
219.9173
20
108.5679
0
VERTEX
8
CUT
10
219.0677
20
108.6895
0
VERTEX
8
CUT
10
218.8869
20
108.7199
0
VERTEX
8
CUT
10
218.8547
20
108.7261
0
VERTEX
8
CUT
10
218.5274
20
108.8062
0
VERTEX
8
CUT
10
218.2373
20
108.9081
0
VERTEX
8
CUT
10
217.9586
20
109.0378
0
VERTEX
8
CUT
10
217.6938
20
109.1941
0
VERTEX
8
CUT
10
217.4456
20
109.3756
0
VERTEX
8
CUT
10
217.2163
20
109.5804
0
VERTEX
8
CUT
10
217.0081
20
109.8066
0
VERTEX
8
CUT
10
216.8230
20
110.0520
0
VERTEX
8
CUT
10
216.6627
20
110.3144
0
VERTEX
8
CUT
10
216.5288
20
110.5911
0
VERTEX
8
CUT
10
216.4226
20
110.8796
0
VERTEX
8
CUT
10
216.3450
20
111.1771
0
VERTEX
8
CUT
10
216.2969
20
111.4808
0
VERTEX
8
CUT
10
216.2787
20
111.7877
0
VERTEX
8
CUT
10
216.2905
20
112.0949
0
VERTEX
8
CUT
10
216.3322
20
112.3995
0
VERTEX
8
CUT
10
216.4035
20
112.6985
0
VERTEX
8
CUT
10
216.5133
20
113.0172
0
VERTEX
8
CUT
10
216.5254
20
113.0476
0
VERTEX
8
CUT
10
216.5960
20
113.2121
0
VERTEX
8
CUT
10
216.6900
20
113.4025
0
VERTEX
8
CUT
10
216.7080
20
113.4366
0
VERTEX
8
CUT
10
216.7484
20
113.5032
0
VERTEX
8
CUT
10
217.3663
20
114.3772
0
VERTEX
8
CUT
10
217.3987
20
114.4203
0
VERTEX
8
CUT
10
217.5149
20
114.5622
0
VERTEX
8
CUT
10
217.5380
20
114.5889
0
VERTEX
8
CUT
10
217.8116
20
114.8736
0
VERTEX
8
CUT
10
217.8374
20
114.8977
0
VERTEX
8
CUT
10
217.9851
20
115.0289
0
VERTEX
8
CUT
10
220.0023
20
116.7275
0
VERTEX
8
CUT
10
220.1290
20
116.8296
0
VERTEX
8
CUT
10
220.1521
20
116.8474
0
VERTEX
8
CUT
10
220.2547
20
116.9196
0
VERTEX
8
CUT
10
220.3931
20
117.0093
0
VERTEX
8
CUT
10
220.4605
20
117.0531
0
VERTEX
8
CUT
10
220.5133
20
117.0873
0
VERTEX
8
CUT
10
220.6329
20
117.1649
0
VERTEX
8
CUT
10
224.0082
20
119.1256
0
SEQEND
0
POLYLINE
8
CUT
66
1
70
1
10
0.0
20
0.0
30
0.0
0
VERTEX
8
CUT
10
1.6252
20
-0.0395
0
VERTEX
8
CUT
10
1.5006
20
0.0051
0
VERTEX
8
CUT
10
1.3944
20
0.0431
0
VERTEX
8
CUT
10
1.2740
20
0.1000
0
VERTEX
8
CUT
10
1.1729
20
0.1479
0
VERTEX
8
CUT
10
1.0578
20
0.2169
0
VERTEX
8
CUT
10
0.9627
20
0.2738
0
VERTEX
8
CUT
10
0.8540
20
0.3545
0
VERTEX
8
CUT
10
0.7659
20
0.4198
0
VERTEX
8
CUT
10
0.6645
20
0.5118
0
VERTEX
8
CUT
10
0.5844
20
0.5844
0
VERTEX
8
CUT
10
0.4911
20
0.6873
0
VERTEX
8
CUT
10
0.4198
20
0.7659
0
VERTEX
8
CUT
10
0.3356
20
0.8795
0
VERTEX
8
CUT
10
0.2738
20
0.9627
0
VERTEX
8
CUT
10
0.1994
20
1.0870
0
VERTEX
8
CUT
10
0.1479
20
1.1729
0
VERTEX
8
CUT
10
0.0838
20
1.3083
0
VERTEX
8
CUT
10
0.0431
20
1.3944
0
VERTEX
8
CUT
10
-0.0100
20
1.5428
0
VERTEX
8
CUT
10
-0.0395
20
1.6252
0
VERTEX
8
CUT
10
-0.0812
20
1.7916
0
VERTEX
8
CUT
10
-0.0990
20
1.8629
0
VERTEX
8
CUT
10
-0.1350
20
2.1053
0
VERTEX
8
CUT
10
-0.1500
20
2.4114
0
VERTEX
8
CUT
10
-0.1500
20
297.5872
0
VERTEX
8
CUT
10
-0.1350
20
297.8933
0
VERTEX
8
CUT
10
-0.0990
20
298.1357
0
VERTEX
8
CUT
10
-0.0395
20
298.3734
0
VERTEX
8
CUT
10
0.0431
20
298.6041
0
VERTEX
8
CUT
10
0.1479
20
298.8256
0
VERTEX
8
CUT
10
0.2738
20
299.0358
0
VERTEX
8
CUT
10
0.4198
20
299.2326
0
VERTEX
8
CUT
10
0.5844
20
299.4142
0
VERTEX
8
CUT
10
0.7659
20
299.5787
0
VERTEX
8
CUT
10
0.9627
20
299.7247
0
VERTEX
8
CUT
10
1.1729
20
299.8507
0
VERTEX
8
CUT
10
1.3944
20
299.9554
0
VERTEX
8
CUT
10
1.6252
20
300.0380
0
VERTEX
8
CUT
10
1.8629
20
300.0975
0
VERTEX
8
CUT
10
2.1053
20
300.1335
0
VERTEX
8
CUT
10
2.4114
20
300.1485
0
VERTEX
8
CUT
10
297.5886
20
300.1485
0
VERTEX
8
CUT
10
297.8947
20
300.1335
0
VERTEX
8
CUT
10
298.1371
20
300.0975
0
VERTEX
8
CUT
10
298.3748
20
300.0380
0
VERTEX
8
CUT
10
298.6056
20
299.9554
0
VERTEX
8
CUT
10
298.8271
20
299.8507
0
VERTEX
8
CUT
10
299.0373
20
299.7247
0
VERTEX
8
CUT
10
299.2341
20
299.5787
0
VERTEX
8
CUT
10
299.4156
20
299.4142
0
VERTEX
8
CUT
10
299.5802
20
299.2326
0
VERTEX
8
CUT
10
299.7262
20
299.0358
0
VERTEX
8
CUT
10
299.8521
20
298.8256
0
VERTEX
8
CUT
10
299.9569
20
298.6041
0
VERTEX
8
CUT
10
300.0395
20
298.3734
0
VERTEX
8
CUT
10
300.0990
20
298.1357
0
VERTEX
8
CUT
10
300.1350
20
297.8933
0
VERTEX
8
CUT
10
300.1500
20
297.5872
0
VERTEX
8
CUT
10
300.1500
20
297.0119
0
VERTEX
8
CUT
10
300.1500
20
297.0101
0
VERTEX
8
CUT
10
300.1500
20
2.4114
0
VERTEX
8
CUT
10
300.1397
20
2.2009
0
VERTEX
8
CUT
10
300.1384
20
2.1745
0
VERTEX
8
CUT
10
300.1369
20
2.1453
0
VERTEX
8
CUT
10
300.1350
20
2.1054
0
VERTEX
8
CUT
10
300.1350
20
2.1053
0
VERTEX
8
CUT
10
300.0990
20
1.8629
0
VERTEX
8
CUT
10
300.0395
20
1.6252
0
VERTEX
8
CUT
10
299.9569
20
1.3944
0
VERTEX
8
CUT
10
299.8521
20
1.1729
0
VERTEX
8
CUT
10
299.7262
20
0.9627
0
VERTEX
8
CUT
10
299.5802
20
0.7659
0
VERTEX
8
CUT
10
299.4156
20
0.5844
0
VERTEX
8
CUT
10
299.2341
20
0.4198
0
VERTEX
8
CUT
10
299.0373
20
0.2738
0
VERTEX
8
CUT
10
298.8271
20
0.1479
0
VERTEX
8
CUT
10
298.6056
20
0.0431
0
VERTEX
8
CUT
10
298.3748
20
-0.0395
0
VERTEX
8
CUT
10
298.1371
20
-0.0990
0
VERTEX
8
CUT
10
297.8947
20
-0.1350
0
VERTEX
8
CUT
10
297.5886
20
-0.1500
0
VERTEX
8
CUT
10
297.0775
20
-0.1500
0
VERTEX
8
CUT
10
297.0696
20
-0.1500
0
VERTEX
8
CUT
10
3.0000
20
-0.1500
0
VERTEX
8
CUT
10
2.4114
20
-0.1500
0
VERTEX
8
CUT
10
2.2197
20
-0.1406
0
VERTEX
8
CUT
10
2.1053
20
-0.1350
0
VERTEX
8
CUT
10
1.9757
20
-0.1157
0
VERTEX
8
CUT
10
1.8629
20
-0.0990
0
VERTEX
8
CUT
10
1.7352
20
-0.0670
0
SEQEND
0
POLYLINE
8
CUT
66
1
70
1
10
0.0
20
0.0
30
0.0
0
VERTEX
8
CUT
10
29.9098
20
35.8450
0
VERTEX
8
CUT
10
29.9838
20
35.5814
0
VERTEX
8
CUT
10
30.0863
20
35.3275
0
VERTEX
8
CUT
10
30.3464
20
34.7725
0
VERTEX
8
CUT
10
30.4850
20
34.5167
0
VERTEX
8
CUT
10
30.6523
20
34.2788
0
VERTEX
8
CUT
10
31.7899
20
32.8462
0
VERTEX
8
CUT
10
31.9280
20
32.6867
0
VERTEX
8
CUT
10
32.0791
20
32.5393
0
VERTEX
8
CUT
10
33.6924
20
31.0933
0
VERTEX
8
CUT
10
33.8927
20
30.9316
0
VERTEX
8
CUT
10
34.1085
20
30.7913
0
VERTEX
8
CUT
10
35.1536
20
30.1863
0
VERTEX
8
CUT
10
35.3871
20
30.0671
0
VERTEX
8
CUT
10
35.6319
20
29.9729
0
VERTEX
8
CUT
10
35.8852
20
29.9049
0
VERTEX
8
CUT
10
36.1442
20
29.8638
0
VERTEX
8
CUT
10
36.4060
20
29.8500
0
VERTEX
8
CUT
10
36.5578
20
29.8500
0
VERTEX
8
CUT
10
36.7085
20
29.8500
0
VERTEX
8
CUT
10
37.1952
20
29.8500
0
VERTEX
8
CUT
10
55.9058
20
29.8500
0
VERTEX
8
CUT
10
246.5938
20
29.8500
0
VERTEX
8
CUT
10
264.0400
20
29.8500
0
VERTEX
8
CUT
10
264.2553
20
29.8500
0
VERTEX
8
CUT
10
264.5080
20
29.8628
0
VERTEX
8
CUT
10
264.7581
20
29.9011
0
VERTEX
8
CUT
10
265.0030
20
29.9644
0
VERTEX
8
CUT
10
265.2403
20
30.0522
0
VERTEX
8
CUT
10
265.3303
20
30.0908
0
VERTEX
8
CUT
10
265.5288
20
30.1865
0
VERTEX
8
CUT
10
265.7181
20
30.2992
0
VERTEX
8
CUT
10
265.8967
20
30.4283
0
VERTEX
8
CUT
10
266.7995
20
31.1428
0
VERTEX
8
CUT
10
267.0783
20
31.3201
0
VERTEX
8
CUT
10
267.3613
20
31.5296
0
VERTEX
8
CUT
10
268.0546
20
32.1227
0
VERTEX
8
CUT
10
268.1496
20
32.2112
0
VERTEX
8
CUT
10
268.1657
20
32.2240
0
VERTEX
8
CUT
10
268.3540
20
32.3890
0
VERTEX
8
CUT
10
268.5248
20
32.5720
0
VERTEX
8
CUT
10
269.3503
20
33.5502
0
VERTEX
8
CUT
10
269.5595
20
33.8372
0
VERTEX
8
CUT
10
269.7147
20
34.0855
0
VERTEX
8
CUT
10
269.7225
20
34.0958
0
VERTEX
8
CUT
10
269.7608
20
34.1592
0
VERTEX
8
CUT
10
269.7698
20
34.1736
0
VERTEX
8
CUT
10
269.7736
20
34.1804
0
VERTEX
8
CUT
10
269.8504
20
34.3074
0
VERTEX
8
CUT
10
269.8808
20
34.3710
0
VERTEX
8
CUT
10
269.8839
20
34.3765
0
VERTEX
8
CUT
10
269.8904
20
34.3912
0
VERTEX
8
CUT
10
269.9568
20
34.5305
0
VERTEX
8
CUT
10
269.9756
20
34.5824
0
VERTEX
8
CUT
10
269.9786
20
34.5891
0
VERTEX
8
CUT
10
269.9869
20
34.6138
0
VERTEX
8
CUT
10
270.0407
20
34.7630
0
VERTEX
8
CUT
10
270.0507
20
34.8027
0
VERTEX
8
CUT
10
270.0531
20
34.8095
0
VERTEX
8
CUT
10
270.0622
20
34.8479
0
VERTEX
8
CUT
10
270.1012
20
35.0027
0
VERTEX
8
CUT
10
270.1053
20
35.0298
0
VERTEX
8
CUT
10
270.1068
20
35.0360
0
VERTEX
8
CUT
10
270.1154
20
35.0975
0
VERTEX
8
CUT
10
270.1378
20
35.2471
0
VERTEX
8
CUT
10
270.1385
20
35.2617
0
VERTEX
8
CUT
10
270.1392
20
35.2664
0
VERTEX
8
CUT
10
270.1461
20
35.4153
0
VERTEX
8
CUT
10
270.1500
20
35.4940
0
VERTEX
8
CUT
10
270.1500
20
35.4989
0
VERTEX
8
CUT
10
270.1500
20
39.3121
0
VERTEX
8
CUT
10
270.1500
20
265.1466
0
VERTEX
8
CUT
10
270.1387
20
265.3837
0
VERTEX
8
CUT
10
270.1050
20
265.6187
0
VERTEX
8
CUT
10
270.0492
20
265.8494
0
VERTEX
8
CUT
10
269.9717
20
266.0737
0
VERTEX
8
CUT
10
269.8734
20
266.2897
0
VERTEX
8
CUT
10
269.7549
20
266.4954
0
VERTEX
8
CUT
10
269.6175
20
266.6890
0
VERTEX
8
CUT
10
268.5084
20
268.1039
0
VERTEX
8
CUT
10
268.3253
20
268.3125
0
VERTEX
8
CUT
10
268.1202
20
268.4995
0
VERTEX
8
CUT
10
266.7864
20
269.5865
0
VERTEX
8
CUT
10
266.5899
20
269.7313
0
VERTEX
8
CUT
10
266.3801
20
269.8562
0
VERTEX
8
CUT
10
266.1592
20
269.9601
0
VERTEX
8
CUT
10
265.9293
20
270.0419
0
VERTEX
8
CUT
10
265.6924
20
270.1010
0
VERTEX
8
CUT
10
265.4509
20
270.1366
0
VERTEX
8
CUT
10
265.2071
20
270.1485
0
VERTEX
8
CUT
10
226.0164
20
270.1485
0
VERTEX
8
CUT
10
225.8862
20
270.1485
0
VERTEX
8
CUT
10
225.8391
20
270.1485
0
VERTEX
8
CUT
10
219.4161
20
270.1485
0
VERTEX
8
CUT
10
219.3592
20
270.1485
0
VERTEX
8
CUT
10
219.3207
20
270.1485
0
VERTEX
8
CUT
10
169.0761
20
270.1485
0
VERTEX
8
CUT
10
166.9146
20
270.1485
0
VERTEX
8
CUT
10
166.0573
20
270.1485
0
VERTEX
8
CUT
10
134.7986
20
270.1485
0
VERTEX
8
CUT
10
134.0942
20
270.1485
0
VERTEX
8
CUT
10
132.6254
20
270.1485
0
VERTEX
8
CUT
10
35.1158
20
270.1485
0
VERTEX
8
CUT
10
34.8695
20
270.1364
0
VERTEX
8
CUT
10
34.6256
20
270.1000
0
VERTEX
8
CUT
10
34.3864
20
270.0398
0
VERTEX
8
CUT
10
34.1544
20
269.9563
0
VERTEX
8
CUT
10
33.9317
20
269.8503
0
VERTEX
8
CUT
10
33.7205
20
269.7229
0
VERTEX
8
CUT
10
33.5229
20
269.5754
0
VERTEX
8
CUT
10
32.1219
20
268.4172
0
VERTEX
8
CUT
10
31.9218
20
268.2325
0
VERTEX
8
CUT
10
31.7429
20
268.0272
0
VERTEX
8
CUT
10
30.3782
20
266.2762
0
VERTEX
8
CUT
10
30.2419
20
266.0831
0
VERTEX
8
CUT
10
30.1244
20
265.8780
0
VERTEX
8
CUT
10
30.0268
20
265.6627
0
VERTEX
8
CUT
10
29.9500
20
265.4392
0
VERTEX
8
CUT
10
29.8946
20
265.2094
0
VERTEX
8
CUT
10
29.8612
20
264.9754
0
VERTEX
8
CUT
10
29.8500
20
264.7393
0
VERTEX
8
CUT
10
29.8500
20
167.6705
0
VERTEX
8
CUT
10
29.8500
20
167.4930
0
VERTEX
8
CUT
10
29.8500
20
167.4773
0
VERTEX
8
CUT
10
29.8500
20
163.9849
0
VERTEX
8
CUT
10
29.8500
20
163.9341
0
VERTEX
8
CUT
10
29.8500
20
163.7237
0
VERTEX
8
CUT
10
29.8500
20
42.0195
0
VERTEX
8
CUT
10
29.8500
20
36.8614
0
VERTEX
8
CUT
10
29.8500
20
36.3885
0
VERTEX
8
CUT
10
29.8650
20
36.1151
0
SEQEND
0
POLYLINE
8
CUT
66
1
70
1
10
0.0
20
0.0
30
0.0
0
VERTEX
8
CUT
10
131.0514
20
207.6924
0
VERTEX
8
CUT
10
131.1901
20
207.7726
0
VERTEX
8
CUT
10
133.0927
20
208.8202
0
VERTEX
8
CUT
10
133.2888
20
208.9208
0
VERTEX
8
CUT
10
133.3242
20
208.9376
0
VERTEX
8
CUT
10
133.7324
20
209.1034
0
VERTEX
8
CUT
10
133.7696
20
209.1160
0
VERTEX
8
CUT
10
133.9803
20
209.1806
0
VERTEX
8
CUT
10
134.1321
20
209.2223
0
VERTEX
8
CUT
10
134.3074
20
209.2659
0
VERTEX
8
CUT
10
134.3388
20
209.2730
0
VERTEX
8
CUT
10
134.6658
20
209.3297
0
VERTEX
8
CUT
10
134.9677
20
209.3526
0
VERTEX
8
CUT
10
135.2704
20
209.3463
0
VERTEX
8
CUT
10
135.5711
20
209.3109
0
VERTEX
8
CUT
10
135.8670
20
209.2468
0
VERTEX
8
CUT
10
136.1554
20
209.1545
0
VERTEX
8
CUT
10
136.4336
20
209.0349
0
VERTEX
8
CUT
10
136.6989
20
208.8892
0
VERTEX
8
CUT
10
136.9490
20
208.7185
0
VERTEX
8
CUT
10
137.1816
20
208.5247
0
VERTEX
8
CUT
10
137.3944
20
208.3093
0
VERTEX
8
CUT
10
137.5856
20
208.0745
0
VERTEX
8
CUT
10
137.7532
20
207.8224
0
VERTEX
8
CUT
10
137.8959
20
207.5553
0
VERTEX
8
CUT
10
138.0122
20
207.2758
0
VERTEX
8
CUT
10
138.1011
20
206.9864
0
VERTEX
8
CUT
10
138.1618
20
206.6897
0
VERTEX
8
CUT
10
138.1936
20
206.3887
0
VERTEX
8
CUT
10
138.1963
20
206.0859
0
VERTEX
8
CUT
10
138.1700
20
205.7843
0
VERTEX
8
CUT
10
138.1147
20
205.4866
0
VERTEX
8
CUT
10
138.0311
20
205.1956
0
VERTEX
8
CUT
10
137.9198
20
204.9140
0
VERTEX
8
CUT
10
137.7688
20
204.6185
0
VERTEX
8
CUT
10
137.7528
20
204.5905
0
VERTEX
8
CUT
10
137.6592
20
204.4361
0
VERTEX
8
CUT
10
137.2567
20
203.8064
0
VERTEX
8
CUT
10
137.1560
20
203.6342
0
VERTEX
8
CUT
10
137.0694
20
203.4546
0
VERTEX
8
CUT
10
136.4622
20
202.0544
0
VERTEX
8
CUT
10
136.3795
20
201.8365
0
VERTEX
8
CUT
10
136.3175
20
201.6118
0
VERTEX
8
CUT
10
136.2767
20
201.3823
0
VERTEX
8
CUT
10
136.2574
20
201.1500
0
VERTEX
8
CUT
10
136.0414
20
195.1758
0
VERTEX
8
CUT
10
136.0447
20
194.9288
0
VERTEX
8
CUT
10
136.0724
20
194.6833
0
VERTEX
8
CUT
10
136.1241
20
194.4417
0
VERTEX
8
CUT
10
137.3124
20
189.9827
0
VERTEX
8
CUT
10
137.3445
20
189.8817
0
VERTEX
8
CUT
10
137.3985
20
189.6529
0
VERTEX
8
CUT
10
137.4743
20
189.4290
0
VERTEX
8
CUT
10
137.5709
20
189.2133
0
VERTEX
8
CUT
10
137.6874
20
189.0076
0
VERTEX
8
CUT
10
138.1341
20
188.2996
0
VERTEX
8
CUT
10
138.2433
20
188.1405
0
VERTEX
8
CUT
10
138.3644
20
187.9903
0
VERTEX
8
CUT
10
138.5028
20
187.8317
0
VERTEX
8
CUT
10
138.5536
20
187.7560
0
VERTEX
8
CUT
10
138.7117
20
187.5650
0
VERTEX
8
CUT
10
139.2196
20
187.0098
0
VERTEX
8
CUT
10
139.4275
20
186.7715
0
VERTEX
8
CUT
10
139.5919
20
186.6001
0
VERTEX
8
CUT
10
139.7719
20
186.4451
0
VERTEX
8
CUT
10
140.5639
20
185.8260
0
VERTEX
8
CUT
10
140.7535
20
185.6915
0
VERTEX
8
CUT
10
140.9547
20
185.5753
0
VERTEX
8
CUT
10
141.1658
20
185.4782
0
VERTEX
8
CUT
10
141.4917
20
185.3463
0
VERTEX
8
CUT
10
142.1708
20
185.0205
0
VERTEX
8
CUT
10
142.3567
20
184.9404
0
VERTEX
8
CUT
10
142.5484
20
184.8757
0
VERTEX
8
CUT
10
143.6731
20
184.5457
0
VERTEX
8
CUT
10
143.7587
20
184.5222
0
VERTEX
8
CUT
10
143.7706
20
184.5192
0
VERTEX
8
CUT
10
143.8136
20
184.5086
0
VERTEX
8
CUT
10
143.8567
20
184.4984
0
VERTEX
8
CUT
10
143.8568
20
184.4985
0
VERTEX
8
CUT
10
143.8610
20
184.4973
0
VERTEX
8
CUT
10
143.9426
20
184.4782
0
VERTEX
8
CUT
10
143.9980
20
184.4642
0
VERTEX
8
CUT
10
144.2553
20
184.3887
0
VERTEX
8
CUT
10
144.5477
20
184.2741
0
VERTEX
8
CUT
10
144.8201
20
184.1355
0
VERTEX
8
CUT
10
145.0778
20
183.9711
0
VERTEX
8
CUT
10
145.3183
20
183.7824
0
VERTEX
8
CUT
10
145.5394
20
183.5713
0
VERTEX
8
CUT
10
145.7389
20
183.3397
0
VERTEX
8
CUT
10
145.9150
20
183.0898
0
VERTEX
8
CUT
10
146.0660
20
182.8240
0
VERTEX
8
CUT
10
146.1905
20
182.5448
0
VERTEX
8
CUT
10
146.2873
20
182.2549
0
VERTEX
8
CUT
10
146.3554
20
181.9569
0
VERTEX
8
CUT
10
146.3944
20
181.6537
0
VERTEX
8
CUT
10
146.4037
20
181.3482
0
VERTEX
8
CUT
10
146.3833
20
181.0432
0
VERTEX
8
CUT
10
146.3334
20
180.7416
0
VERTEX
8
CUT
10
146.2544
20
180.4463
0
VERTEX
8
CUT
10
146.1472
20
180.1601
0
VERTEX
8
CUT
10
146.0126
20
179.8856
0
VERTEX
8
CUT
10
145.8521
20
179.6255
0
VERTEX
8
CUT
10
145.6671
20
179.3821
0
VERTEX
8
CUT
10
145.4593
20
179.1579
0
VERTEX
8
CUT
10
145.2307
20
178.9550
0
VERTEX
8
CUT
10
144.9835
20
178.7752
0
VERTEX
8
CUT
10
144.7200
20
178.6202
0
VERTEX
8
CUT
10
144.4427
20
178.4916
0
VERTEX
8
CUT
10
144.1543
20
178.3904
0
VERTEX
8
CUT
10
143.8235
20
178.3095
0
VERTEX
8
CUT
10
143.5661
20
178.2316
0
VERTEX
8
CUT
10
143.3185
20
178.1266
0
VERTEX
8
CUT
10
143.0837
20
177.9955
0
VERTEX
8
CUT
10
142.8642
20
177.8400
0
VERTEX
8
CUT
10
142.6628
20
177.6618
0
VERTEX
8
CUT
10
142.1896
20
177.1954
0
VERTEX
8
CUT
10
142.0242
20
177.0157
0
VERTEX
8
CUT
10
141.8772
20
176.8208
0
VERTEX
8
CUT
10
141.7920
20
176.6955
0
VERTEX
8
CUT
10
141.6660
20
176.4895
0
VERTEX
8
CUT
10
141.5604
20
176.2723
0
VERTEX
8
CUT
10
141.4763
20
176.0460
0
VERTEX
8
CUT
10
141.2322
20
175.2774
0
VERTEX
8
CUT
10
141.1672
20
175.0290
0
VERTEX
8
CUT
10
141.1280
20
174.7752
0
VERTEX
8
CUT
10
141.1183
20
174.5836
0
VERTEX
8
CUT
10
141.1027
20
174.4216
0
VERTEX
8
CUT
10
141.1038
20
174.1703
0
VERTEX
8
CUT
10
141.1154
20
173.9585
0
VERTEX
8
CUT
10
141.1163
20
172.9219
0
VERTEX
8
CUT
10
141.1403
20
172.5781
0
VERTEX
8
CUT
10
142.0930
20
165.7582
0
VERTEX
8
CUT
10
142.1111
20
165.6069
0
VERTEX
8
CUT
10
142.1137
20
165.5797
0
VERTEX
8
CUT
10
142.1312
20
165.2755
0
VERTEX
8
CUT
10
142.1317
20
165.2482
0
VERTEX
8
CUT
10
142.1312
20
165.0958
0
VERTEX
8
CUT
10
142.0598
20
162.0955
0
VERTEX
8
CUT
10
142.0513
20
161.9180
0
VERTEX
8
CUT
10
142.0491
20
161.8864
0
VERTEX
8
CUT
10
142.0071
20
161.5338
0
VERTEX
8
CUT
10
142.0018
20
161.5025
0
VERTEX
8
CUT
10
141.9684
20
161.3281
0
VERTEX
8
CUT
10
141.7633
20
160.3813
0
VERTEX
8
CUT
10
141.7214
20
160.2075
0
VERTEX
8
CUT
10
141.7131
20
160.1767
0
VERTEX
8
CUT
10
141.6133
20
159.8637
0
VERTEX
8
CUT
10
141.4842
20
159.5616
0
VERTEX
8
CUT
10
141.4703
20
159.5328
0
VERTEX
8
CUT
10
141.3885
20
159.3739
0
VERTEX
8
CUT
10
141.3063
20
159.2233
0
VERTEX
8
CUT
10
141.2137
20
159.0631
0
VERTEX
8
CUT
10
141.1965
20
159.0348
0
VERTEX
8
CUT
10
141.0050
20
158.7537
0
VERTEX
8
CUT
10
140.8058
20
158.5157
0
VERTEX
8
CUT
10
140.5628
20
158.2776
0
VERTEX
8
CUT
10
140.5381
20
158.2556
0
VERTEX
8
CUT
10
140.3967
20
158.1362
0
VERTEX
8
CUT
10
140.0657
20
157.8704
0
VERTEX
8
CUT
10
139.9124
20
157.7537
0
VERTEX
8
CUT
10
139.8846
20
157.7335
0
VERTEX
8
CUT
10
139.5873
20
157.5413
0
VERTEX
8
CUT
10
139.2995
20
157.3948
0
VERTEX
8
CUT
10
138.9692
20
157.2673
0
VERTEX
8
CUT
10
138.9365
20
157.2566
0
VERTEX
8
CUT
10
138.7520
20
157.2013
0
VERTEX
8
CUT
10
138.7321
20
157.1958
0
VERTEX
8
CUT
10
138.5457
20
157.1502
0
VERTEX
8
CUT
10
138.5122
20
157.1429
0
VERTEX
8
CUT
10
138.1643
20
157.0856
0
VERTEX
8
CUT
10
137.8123
20
157.0642
0
VERTEX
8
CUT
10
137.7781
20
157.0638
0
VERTEX
8
CUT
10
137.5862
20
157.0669
0
VERTEX
8
CUT
10
136.6666
20
157.1050
0
VERTEX
8
CUT
10
136.4997
20
157.1157
0
VERTEX
8
CUT
10
136.4699
20
157.1183
0
VERTEX
8
CUT
10
136.1651
20
157.1583
0
VERTEX
8
CUT
10
135.8913
20
157.2195
0
VERTEX
8
CUT
10
135.6241
20
157.3049
0
VERTEX
8
CUT
10
135.3407
20
157.4241
0
VERTEX
8
CUT
10
135.3136
20
157.4369
0
VERTEX
8
CUT
10
135.1642
20
157.5120
0
VERTEX
8
CUT
10
135.1294
20
157.5304
0
VERTEX
8
CUT
10
134.9786
20
157.6148
0
VERTEX
8
CUT
10
134.9520
20
157.6306
0
VERTEX
8
CUT
10
134.6862
20
157.8046
0
VERTEX
8
CUT
10
134.4593
20
157.9850
0
VERTEX
8
CUT
10
134.2300
20
158.2049
0
VERTEX
8
CUT
10
134.2086
20
158.2273
0
VERTEX
8
CUT
10
134.0924
20
158.3552
0
VERTEX
8
CUT
10
132.6305
20
160.0406
0
VERTEX
8
CUT
10
132.4642
20
160.2466
0
VERTEX
8
CUT
10
132.3564
20
160.3902
0
VERTEX
8
CUT
10
132.2050
20
160.6075
0
VERTEX
8
CUT
10
131.3134
20
161.9886
0
VERTEX
8
CUT
10
131.2260
20
162.1309
0
VERTEX
8
CUT
10
131.1687
20
162.2288
0
VERTEX
8
CUT
10
131.0878
20
162.3748
0
VERTEX
8
CUT
10
128.9162
20
166.5035
0
VERTEX
8
CUT
10
128.8449
20
166.6465
0
VERTEX
8
CUT
10
128.7985
20
166.7446
0
VERTEX
8
CUT
10
128.7333
20
166.8905
0
VERTEX
8
CUT
10
126.5879
20
171.9797
0
VERTEX
8
CUT
10
126.5355
20
172.1107
0
VERTEX
8
CUT
10
126.5016
20
172.2003
0
VERTEX
8
CUT
10
126.4543
20
172.3332
0
VERTEX
8
CUT
10
125.0904
20
176.3980
0
VERTEX
8
CUT
10
125.0431
20
176.5497
0
VERTEX
8
CUT
10
125.0131
20
176.6535
0
VERTEX
8
CUT
10
124.9722
20
176.8071
0
VERTEX
8
CUT
10
124.0119
20
180.7491
0
VERTEX
8
CUT
10
123.9770
20
180.9073
0
VERTEX
8
CUT
10
123.9556
20
181.0153
0
VERTEX
8
CUT
10
123.9275
20
181.1749
0
VERTEX
8
CUT
10
123.3452
20
184.9633
0
VERTEX
8
CUT
10
123.3211
20
185.1520
0
VERTEX
8
CUT
10
123.3080
20
185.2805
0
VERTEX
8
CUT
10
123.2935
20
185.4702
0
VERTEX
8
CUT
10
123.1145
20
188.9733
0
VERTEX
8
CUT
10
123.1096
20
189.1574
0
VERTEX
8
CUT
10
123.1094
20
189.2824
0
VERTEX
8
CUT
10
123.1135
20
189.4666
0
VERTEX
8
CUT
10
123.2509
20
192.3766
0
VERTEX
8
CUT
10
123.2709
20
192.6802
0
VERTEX
8
CUT
10
123.2812
20
192.8372
0
VERTEX
8
CUT
10
123.2830
20
192.8645
0
VERTEX
8
CUT
10
123.2951
20
193.0487
0
VERTEX
8
CUT
10
123.3040
20
193.1291
0
VERTEX
8
CUT
10
123.3374
20
193.3630
0
VERTEX
8
CUT
10
123.8371
20
196.2185
0
VERTEX
8
CUT
10
123.8424
20
196.2436
0
VERTEX
8
CUT
10
123.8883
20
196.4336
0
VERTEX
8
CUT
10
123.9046
20
196.5010
0
VERTEX
8
CUT
10
123.9147
20
196.5430
0
VERTEX
8
CUT
10
123.9742
20
196.7893
0
VERTEX
8
CUT
10
124.0007
20
196.8829
0
VERTEX
8
CUT
10
124.8304
20
199.4770
0
VERTEX
8
CUT
10
124.8809
20
199.6243
0
VERTEX
8
CUT
10
124.8905
20
199.6505
0
VERTEX
8
CUT
10
125.0097
20
199.9382
0
VERTEX
8
CUT
10
125.0214
20
199.9635
0
VERTEX
8
CUT
10
125.0898
20
200.1034
0
VERTEX
8
CUT
10
126.2931
20
202.4390
0
VERTEX
8
CUT
10
126.3656
20
202.5730
0
VERTEX
8
CUT
10
126.3791
20
202.5968
0
VERTEX
8
CUT
10
126.5402
20
202.8555
0
VERTEX
8
CUT
10
126.5556
20
202.8780
0
VERTEX
8
CUT
10
126.6439
20
203.0023
0
VERTEX
8
CUT
10
128.2794
20
205.2067
0
VERTEX
8
CUT
10
128.3701
20
205.3239
0
VERTEX
8
CUT
10
128.3867
20
205.3446
0
VERTEX
8
CUT
10
128.5815
20
205.5678
0
VERTEX
8
CUT
10
128.5997
20
205.5871
0
VERTEX
8
CUT
10
128.7036
20
205.6928
0
VERTEX
8
CUT
10
129.4467
20
206.4198
0
VERTEX
8
CUT
10
129.7546
20
206.6979
0
VERTEX
8
CUT
10
129.8425
20
206.7718
0
VERTEX
8
CUT
10
130.6099
20
207.3852
0
VERTEX
8
CUT
10
130.7372
20
207.4825
0
VERTEX
8
CUT
10
130.7604
20
207.4995
0
VERTEX
8
CUT
10
131.0269
20
207.6775
0
SEQEND
0
POLYLINE
8
CUT
66
1
70
1
10
0.0
20
0.0
30
0.0
0
VERTEX
8
CUT
10
160.0403
20
186.1729
0
VERTEX
8
CUT
10
160.1363
20
186.2294
0
VERTEX
8
CUT
10
160.3540
20
186.3916
0
VERTEX
8
CUT
10
160.8291
20
186.7874
0
VERTEX
8
CUT
10
160.9948
20
186.9386
0
VERTEX
8
CUT
10
161.1464
20
187.1041
0
VERTEX
8
CUT
10
161.2730
20
187.2701
0
VERTEX
8
CUT
10
161.3078
20
187.3010
0
VERTEX
8
CUT
10
161.5199
20
187.5140
0
VERTEX
8
CUT
10
161.7049
20
187.7508
0
VERTEX
8
CUT
10
164.6530
20
192.0331
0
VERTEX
8
CUT
10
164.7678
20
192.2163
0
VERTEX
8
CUT
10
164.8663
20
192.4088
0
VERTEX
8
CUT
10
165.6300
20
194.0745
0
VERTEX
8
CUT
10
165.7536
20
194.4032
0
VERTEX
8
CUT
10
166.3545
20
196.4222
0
VERTEX
8
CUT
10
166.4052
20
196.6224
0
VERTEX
8
CUT
10
166.4392
20
196.8262
0
VERTEX
8
CUT
10
167.0607
20
201.8122
0
VERTEX
8
CUT
10
167.0775
20
202.0131
0
VERTEX
8
CUT
10
167.0855
20
202.1972
0
VERTEX
8
CUT
10
167.0878
20
202.2304
0
VERTEX
8
CUT
10
167.1281
20
202.5706
0
VERTEX
8
CUT
10
167.1955
20
202.8758
0
VERTEX
8
CUT
10
167.2928
20
203.1728
0
VERTEX
8
CUT
10
167.4192
20
203.4587
0
VERTEX
8
CUT
10
167.5733
20
203.7306
0
VERTEX
8
CUT
10
167.7536
20
203.9859
0
VERTEX
8
CUT
10
167.9584
20
204.2220
0
VERTEX
8
CUT
10
168.1857
20
204.4366
0
VERTEX
8
CUT
10
168.4331
20
204.6276
0
VERTEX
8
CUT
10
168.6982
20
204.7931
0
VERTEX
8
CUT
10
168.9785
20
204.9314
0
VERTEX
8
CUT
10
169.2711
20
205.0413
0
VERTEX
8
CUT
10
169.5731
20
205.1215
0
VERTEX
8
CUT
10
169.8817
20
205.1714
0
VERTEX
8
CUT
10
170.1937
20
205.1904
0
VERTEX
8
CUT
10
170.5060
20
205.1783
0
VERTEX
8
CUT
10
170.8155
20
205.1353
0
VERTEX
8
CUT
10
171.1193
20
205.0618
0
VERTEX
8
CUT
10
171.4143
20
204.9585
0
VERTEX
8
CUT
10
171.6976
20
204.8264
0
VERTEX
8
CUT
10
171.9663
20
204.6669
0
VERTEX
8
CUT
10
172.2179
20
204.4814
0
VERTEX
8
CUT
10
172.4721
20
204.2518
0
VERTEX
8
CUT
10
172.4957
20
204.2282
0
VERTEX
8
CUT
10
172.6243
20
204.0933
0
VERTEX
8
CUT
10
172.6955
20
204.0149
0
VERTEX
8
CUT
10
172.8011
20
203.8934
0
VERTEX
8
CUT
10
172.8195
20
203.8712
0
VERTEX
8
CUT
10
172.9987
20
203.6359
0
VERTEX
8
CUT
10
173.1572
20
203.3860
0
VERTEX
8
CUT
10
173.1715
20
203.3611
0
VERTEX
8
CUT
10
173.2488
20
203.2199
0
VERTEX
8
CUT
10
174.9425
20
199.9605
0
VERTEX
8
CUT
10
175.0470
20
199.7423
0
VERTEX
8
CUT
10
175.1132
20
199.5920
0
VERTEX
8
CUT
10
175.2035
20
199.3676
0
VERTEX
8
CUT
10
175.8712
20
197.5392
0
VERTEX
8
CUT
10
175.9475
20
197.3072
0
VERTEX
8
CUT
10
175.9941
20
197.1482
0
VERTEX
8
CUT
10
176.0551
20
196.9117
0
VERTEX
8
CUT
10
176.4875
20
194.9770
0
VERTEX
8
CUT
10
176.5252
20
194.7850
0
VERTEX
8
CUT
10
176.5473
20
194.6541
0
VERTEX
8
CUT
10
176.5749
20
194.4605
0
VERTEX
8
CUT
10
176.8415
20
192.1638
0
VERTEX
8
CUT
10
176.8837
20
191.4518
0
VERTEX
8
CUT
10
176.8850
20
191.4293
0
VERTEX
8
CUT
10
176.8851
20
191.4287
0
VERTEX
8
CUT
10
176.9201
20
190.2445
0
VERTEX
8
CUT
10
176.8152
20
186.4989
0
VERTEX
8
CUT
10
176.6535
20
183.8514
0
VERTEX
8
CUT
10
176.6408
20
183.7140
0
VERTEX
8
CUT
10
176.2412
20
181.4557
0
VERTEX
8
CUT
10
175.9674
20
180.0071
0
VERTEX
8
CUT
10
175.9357
20
179.8564
0
VERTEX
8
CUT
10
175.9121
20
179.7545
0
VERTEX
8
CUT
10
175.8742
20
179.6052
0
VERTEX
8
CUT
10
175.2714
20
177.4179
0
VERTEX
8
CUT
10
175.2311
20
177.2817
0
VERTEX
8
CUT
10
175.2020
20
177.1897
0
VERTEX
8
CUT
10
175.1565
20
177.0551
0
VERTEX
8
CUT
10
172.1351
20
168.6386
0
VERTEX
8
CUT
10
172.0884
20
168.5154
0
VERTEX
8
CUT
10
172.0552
20
168.4323
0
VERTEX
8
CUT
10
172.0043
20
168.3109
0
VERTEX
8
CUT
10
170.1170
20
164.0260
0
VERTEX
8
CUT
10
170.0379
20
163.8580
0
VERTEX
8
CUT
10
170.0231
20
163.8283
0
VERTEX
8
CUT
10
169.8553
20
163.5311
0
VERTEX
8
CUT
10
169.6761
20
163.2764
0
VERTEX
8
CUT
10
169.4727
20
163.0407
0
VERTEX
8
CUT
10
169.2469
20
162.8263
0
VERTEX
8
CUT
10
169.0010
20
162.6352
0
VERTEX
8
CUT
10
168.7375
20
162.4694
0
VERTEX
8
CUT
10
168.4588
20
162.3305
0
VERTEX
8
CUT
10
168.1678
20
162.2198
0
VERTEX
8
CUT
10
167.8672
20
162.1384
0
VERTEX
8
CUT
10
167.5601
20
162.0872
0
VERTEX
8
CUT
10
167.2494
20
162.0666
0
VERTEX
8
CUT
10
166.9381
20
162.0768
0
VERTEX
8
CUT
10
166.6295
20
162.1177
0
VERTEX
8
CUT
10
166.3264
20
162.1890
0
VERTEX
8
CUT
10
166.0318
20
162.2899
0
VERTEX
8
CUT
10
165.7486
20
162.4194
0
VERTEX
8
CUT
10
165.4797
20
162.5763
0
VERTEX
8
CUT
10
165.2033
20
162.7766
0
VERTEX
8
CUT
10
165.1713
20
162.8024
0
VERTEX
8
CUT
10
165.0650
20
162.8910
0
VERTEX
8
CUT
10
165.0573
20
162.8976
0
VERTEX
8
CUT
10
165.0321
20
162.9192
0
VERTEX
8
CUT
10
165.0258
20
162.9245
0
VERTEX
8
CUT
10
164.9758
20
162.9656
0
VERTEX
8
CUT
10
164.1971
20
163.5881
0
VERTEX
8
CUT
10
163.9564
20
163.7583
0
VERTEX
8
CUT
10
163.6973
20
163.8990
0
VERTEX
8
CUT
10
163.5366
20
163.9743
0
VERTEX
8
CUT
10
163.3327
20
164.0592
0
VERTEX
8
CUT
10
163.1221
20
164.1257
0
VERTEX
8
CUT
10
162.9064
20
164.1733
0
VERTEX
8
CUT
10
162.7785
20
164.1957
0
VERTEX
8
CUT
10
162.7428
20
164.2030
0
VERTEX
8
CUT
10
162.3801
20
164.2975
0
VERTEX
8
CUT
10
162.0606
20
164.4192
0
VERTEX
8
CUT
10
161.7268
20
164.5898
0
VERTEX
8
CUT
10
161.6954
20
164.6081
0
VERTEX
8
CUT
10
161.5219
20
164.7155
0
VERTEX
8
CUT
10
161.0997
20
164.9930
0
VERTEX
8
CUT
10
160.8827
20
165.1204
0
VERTEX
8
CUT
10
160.6540
20
165.2254
0
VERTEX
8
CUT
10
160.6233
20
165.2377
0
VERTEX
8
CUT
10
160.5787
20
165.2557
0
VERTEX
8
CUT
10
160.2789
20
165.3937
0
VERTEX
8
CUT
10
160.0021
20
165.5558
0
VERTEX
8
CUT
10
159.7451
20
165.7437
0
VERTEX
8
CUT
10
159.5085
20
165.9566
0
VERTEX
8
CUT
10
159.2945
20
166.1924
0
VERTEX
8
CUT
10
159.1056
20
166.4485
0
VERTEX
8
CUT
10
158.9434
20
166.7225
0
VERTEX
8
CUT
10
158.8098
20
167.0114
0
VERTEX
8
CUT
10
158.7061
20
167.3124
0
VERTEX
8
CUT
10
158.6334
20
167.6223
0
VERTEX
8
CUT
10
158.5924
20
167.9380
0
VERTEX
8
CUT
10
158.5835
20
168.2562
0
VERTEX
8
CUT
10
158.6090
20
168.6042
0
VERTEX
8
CUT
10
158.6132
20
168.6379
0
VERTEX
8
CUT
10
158.6415
20
168.8256
0
VERTEX
8
CUT
10
159.3997
20
173.1237
0
VERTEX
8
CUT
10
159.4299
20
173.3610
0
VERTEX
8
CUT
10
159.4373
20
173.6001
0
VERTEX
8
CUT
10
159.4235
20
174.4213
0
VERTEX
8
CUT
10
159.4036
20
174.6965
0
VERTEX
8
CUT
10
159.3536
20
174.9678
0
VERTEX
8
CUT
10
159.2739
20
175.2319
0
VERTEX
8
CUT
10
159.1284
20
175.6331
0
VERTEX
8
CUT
10
159.0408
20
175.8438
0
VERTEX
8
CUT
10
158.9344
20
176.0457
0
VERTEX
8
CUT
10
158.8100
20
176.2370
0
VERTEX
8
CUT
10
158.6687
20
176.4162
0
VERTEX
8
CUT
10
157.6636
20
177.5777
0
VERTEX
8
CUT
10
157.4877
20
177.7612
0
VERTEX
8
CUT
10
157.2940
20
177.9259
0
VERTEX
8
CUT
10
157.0847
20
178.0701
0
VERTEX
8
CUT
10
156.8618
20
178.1923
0
VERTEX
8
CUT
10
156.6276
20
178.2912
0
VERTEX
8
CUT
10
156.3846
20
178.3659
0
VERTEX
8
CUT
10
156.2799
20
178.3922
0
VERTEX
8
CUT
10
155.9895
20
178.4951
0
VERTEX
8
CUT
10
155.7135
20
178.6242
0
VERTEX
8
CUT
10
155.4512
20
178.7793
0
VERTEX
8
CUT
10
155.2051
20
178.9591
0
VERTEX
8
CUT
10
154.9777
20
179.1619
0
VERTEX
8
CUT
10
154.7709
20
179.3858
0
VERTEX
8
CUT
10
154.5868
20
179.6286
0
VERTEX
8
CUT
10
154.4270
20
179.8881
0
VERTEX
8
CUT
10
154.2931
20
180.1618
0
VERTEX
8
CUT
10
154.1863
20
180.4473
0
VERTEX
8
CUT
10
154.1076
20
180.7417
0
VERTEX
8
CUT
10
154.0579
20
181.0423
0
VERTEX
8
CUT
10
154.0374
20
181.3464
0
VERTEX
8
CUT
10
154.0465
20
181.6510
0
VERTEX
8
CUT
10
154.0850
20
181.9533
0
VERTEX
8
CUT
10
154.1525
20
182.2504
0
VERTEX
8
CUT
10
154.2486
20
182.5396
0
VERTEX
8
CUT
10
154.3721
20
182.8182
0
VERTEX
8
CUT
10
154.5221
20
183.0835
0
VERTEX
8
CUT
10
154.6970
20
183.3330
0
VERTEX
8
CUT
10
154.8952
20
183.5645
0
VERTEX
8
CUT
10
155.1150
20
183.7756
0
VERTEX
8
CUT
10
155.3541
20
183.9645
0
VERTEX
8
CUT
10
155.6104
20
184.1294
0
VERTEX
8
CUT
10
155.8814
20
184.2687
0
VERTEX
8
CUT
10
156.1647
20
184.3811
0
VERTEX
8
CUT
10
156.4856
20
184.4737
0
VERTEX
8
CUT
10
156.5172
20
184.4812
0
VERTEX
8
CUT
10
156.6950
20
184.5187
0
VERTEX
8
CUT
10
156.9067
20
184.5581
0
VERTEX
8
CUT
10
157.1197
20
184.6075
0
VERTEX
8
CUT
10
157.3274
20
184.6752
0
VERTEX
8
CUT
10
157.5285
20
184.7608
0
VERTEX
8
CUT
10
159.2103
20
185.5655
0
VERTEX
8
CUT
10
159.4165
20
185.6763
0
VERTEX
8
CUT
10
159.6114
20
185.8059
0
VERTEX
8
CUT
10
159.7934
20
185.9531
0
SEQEND
0
ENDSEC
0
EOF
