0
SECTION
2
HEADER
9
$ACADVER
1
AC1009
9
$INSUNITS
70
4
0
ENDSEC
0
SECTION
2
TABLES
0
TABLE
2
LAYER
70
1
0
LAYER
2
CUT
70
0
62
7
6
CONTINUOUS
0
ENDTAB
0
ENDSEC
0
SECTION
2
ENTITIES
0
POLYLINE
8
CUT
66
1
70
1
10
0.0
20
0.0
30
0.0
0
VERTEX
8
CUT
10
-0.0625
20
298.5625
0
VERTEX
8
CUT
10
-0.0625
20
299.4478
0
VERTEX
8
CUT
10
-0.0589
20
299.5212
0
VERTEX
8
CUT
10
-0.0503
20
299.5794
0
VERTEX
8
CUT
10
-0.0360
20
299.6365
0
VERTEX
8
CUT
10
-0.0162
20
299.6918
0
VERTEX
8
CUT
10
0.0090
20
299.7450
0
VERTEX
8
CUT
10
0.0392
20
299.7954
0
VERTEX
8
CUT
10
0.0743
20
299.8427
0
VERTEX
8
CUT
10
0.1137
20
299.8863
0
VERTEX
8
CUT
10
0.1573
20
299.9257
0
VERTEX
8
CUT
10
0.2046
20
299.9608
0
VERTEX
8
CUT
10
0.2550
20
299.9910
0
VERTEX
8
CUT
10
0.3082
20
300.0162
0
VERTEX
8
CUT
10
0.3635
20
300.0360
0
VERTEX
8
CUT
10
0.4206
20
300.0503
0
VERTEX
8
CUT
10
0.4788
20
300.0589
0
VERTEX
8
CUT
10
0.5522
20
300.0625
0
VERTEX
8
CUT
10
1.4375
20
300.0625
0
VERTEX
8
CUT
10
298.5045
20
300.0625
0
VERTEX
8
CUT
10
299.3898
20
300.0625
0
VERTEX
8
CUT
10
299.4633
20
300.0589
0
VERTEX
8
CUT
10
299.5214
20
300.0503
0
VERTEX
8
CUT
10
299.5785
20
300.0360
0
VERTEX
8
CUT
10
299.6339
20
300.0162
0
VERTEX
8
CUT
10
299.6870
20
299.9910
0
VERTEX
8
CUT
10
299.7375
20
299.9608
0
VERTEX
8
CUT
10
299.7847
20
299.9257
0
VERTEX
8
CUT
10
299.8283
20
299.8863
0
VERTEX
8
CUT
10
299.8678
20
299.8427
0
VERTEX
8
CUT
10
299.9028
20
299.7954
0
VERTEX
8
CUT
10
299.9330
20
299.7450
0
VERTEX
8
CUT
10
299.9582
20
299.6918
0
VERTEX
8
CUT
10
299.9780
20
299.6365
0
VERTEX
8
CUT
10
299.9923
20
299.5794
0
VERTEX
8
CUT
10
300.0009
20
299.5212
0
VERTEX
8
CUT
10
300.0045
20
299.4478
0
VERTEX
8
CUT
10
300.0045
20
298.5625
0
VERTEX
8
CUT
10
300.0045
20
1.4375
0
VERTEX
8
CUT
10
300.0045
20
0.5522
0
VERTEX
8
CUT
10
300.0009
20
0.4788
0
VERTEX
8
CUT
10
299.9923
20
0.4206
0
VERTEX
8
CUT
10
299.9780
20
0.3635
0
VERTEX
8
CUT
10
299.9582
20
0.3082
0
VERTEX
8
CUT
10
299.9330
20
0.2550
0
VERTEX
8
CUT
10
299.9028
20
0.2046
0
VERTEX
8
CUT
10
299.8678
20
0.1573
0
VERTEX
8
CUT
10
299.8283
20
0.1137
0
VERTEX
8
CUT
10
299.7847
20
0.0743
0
VERTEX
8
CUT
10
299.7375
20
0.0392
0
VERTEX
8
CUT
10
299.6870
20
0.0090
0
VERTEX
8
CUT
10
299.6339
20
-0.0162
0
VERTEX
8
CUT
10
299.5785
20
-0.0360
0
VERTEX
8
CUT
10
299.5214
20
-0.0503
0
VERTEX
8
CUT
10
299.4633
20
-0.0589
0
VERTEX
8
CUT
10
299.3898
20
-0.0625
0
VERTEX
8
CUT
10
298.5045
20
-0.0625
0
VERTEX
8
CUT
10
1.4375
20
-0.0625
0
VERTEX
8
CUT
10
0.5522
20
-0.0625
0
VERTEX
8
CUT
10
0.4788
20
-0.0589
0
VERTEX
8
CUT
10
0.4206
20
-0.0503
0
VERTEX
8
CUT
10
0.3635
20
-0.0360
0
VERTEX
8
CUT
10
0.3082
20
-0.0162
0
VERTEX
8
CUT
10
0.2550
20
0.0090
0
VERTEX
8
CUT
10
0.2046
20
0.0392
0
VERTEX
8
CUT
10
0.1573
20
0.0743
0
VERTEX
8
CUT
10
0.1137
20
0.1137
0
VERTEX
8
CUT
10
0.0743
20
0.1573
0
VERTEX
8
CUT
10
0.0392
20
0.2046
0
VERTEX
8
CUT
10
0.0090
20
0.2550
0
VERTEX
8
CUT
10
-0.0162
20
0.3082
0
VERTEX
8
CUT
10
-0.0360
20
0.3635
0
VERTEX
8
CUT
10
-0.0503
20
0.4206
0
VERTEX
8
CUT
10
-0.0589
20
0.4788
0
VERTEX
8
CUT
10
-0.0625
20
0.5522
0
VERTEX
8
CUT
10
-0.0625
20
1.4375
0
SEQEND
0
POLYLINE
8
CUT
66
1
70
1
10
0.0
20
0.0
30
0.0
0
VERTEX
8
CUT
10
204.2963
20
67.0444
0
VERTEX
8
CUT
10
204.2972
20
67.0293
0
VERTEX
8
CUT
10
204.3011
20
66.9705
0
VERTEX
8
CUT
10
204.3039
20
66.9405
0
VERTEX
8
CUT
10
204.3265
20
66.7484
0
VERTEX
8
CUT
10
204.3366
20
66.6890
0
VERTEX
8
CUT
10
204.3779
20
66.5027
0
VERTEX
8
CUT
10
204.3939
20
66.4446
0
VERTEX
8
CUT
10
204.4544
20
66.2609
0
VERTEX
8
CUT
10
204.4646
20
66.2325
0
VERTEX
8
CUT
10
204.4858
20
66.1776
0
VERTEX
8
CUT
10
204.4915
20
66.1636
0
VERTEX
8
CUT
10
204.5291
20
66.0730
0
VERTEX
8
CUT
10
204.5351
20
66.0591
0
VERTEX
8
CUT
10
204.9699
20
65.0834
0
VERTEX
8
CUT
10
204.9765
20
65.0691
0
VERTEX
8
CUT
10
205.0206
20
64.9768
0
VERTEX
8
CUT
10
205.0276
20
64.9627
0
VERTEX
8
CUT
10
205.0555
20
64.9079
0
VERTEX
8
CUT
10
205.0705
20
64.8802
0
VERTEX
8
CUT
10
205.1729
20
64.7032
0
VERTEX
8
CUT
10
205.1894
20
64.6763
0
VERTEX
8
CUT
10
205.2229
20
64.6248
0
VERTEX
8
CUT
10
205.2317
20
64.6117
0
VERTEX
8
CUT
10
205.2897
20
64.5274
0
VERTEX
8
CUT
10
205.2988
20
64.5146
0
VERTEX
8
CUT
10
208.8070
20
59.6948
0
VERTEX
8
CUT
10
208.8138
20
59.6852
0
VERTEX
8
CUT
10
208.8251
20
59.6694
0
VERTEX
8
CUT
10
208.8512
20
59.6304
0
VERTEX
8
CUT
10
208.8936
20
59.5633
0
VERTEX
8
CUT
10
208.9118
20
59.5333
0
VERTEX
8
CUT
10
208.9137
20
59.5301
0
VERTEX
8
CUT
10
208.9307
20
59.4993
0
VERTEX
8
CUT
10
208.9678
20
59.4291
0
VERTEX
8
CUT
10
208.9886
20
59.3871
0
VERTEX
8
CUT
10
208.9967
20
59.3695
0
VERTEX
8
CUT
10
209.0016
20
59.3588
0
VERTEX
8
CUT
10
210.3734
20
56.2940
0
VERTEX
8
CUT
10
210.3795
20
56.2800
0
VERTEX
8
CUT
10
210.3936
20
56.2470
0
VERTEX
8
CUT
10
210.3995
20
56.2329
0
VERTEX
8
CUT
10
210.4065
20
56.2156
0
VERTEX
8
CUT
10
210.4122
20
56.2013
0
VERTEX
8
CUT
10
210.4251
20
56.1680
0
VERTEX
8
CUT
10
210.4305
20
56.1536
0
VERTEX
8
CUT
10
210.4399
20
56.1282
0
VERTEX
8
CUT
10
210.4451
20
56.1137
0
VERTEX
8
CUT
10
210.4569
20
56.0800
0
VERTEX
8
CUT
10
210.4618
20
56.0654
0
VERTEX
8
CUT
10
210.4676
20
56.0477
0
VERTEX
8
CUT
10
210.4723
20
56.0331
0
VERTEX
8
CUT
10
210.4829
20
55.9989
0
VERTEX
8
CUT
10
210.4874
20
55.9842
0
VERTEX
8
CUT
10
210.9579
20
54.3756
0
VERTEX
8
CUT
10
210.9604
20
54.3669
0
VERTEX
8
CUT
10
210.9644
20
54.3524
0
VERTEX
8
CUT
10
210.9735
20
54.3174
0
VERTEX
8
CUT
10
210.9877
20
54.2579
0
VERTEX
8
CUT
10
210.9936
20
54.2314
0
VERTEX
8
CUT
10
210.9942
20
54.2286
0
VERTEX
8
CUT
10
210.9993
20
54.2020
0
VERTEX
8
CUT
10
211.0099
20
54.1417
0
VERTEX
8
CUT
10
211.0155
20
54.1060
0
VERTEX
8
CUT
10
211.0175
20
54.0911
0
VERTEX
8
CUT
10
211.0186
20
54.0821
0
VERTEX
8
CUT
10
211.1692
20
52.8732
0
VERTEX
8
CUT
10
211.1704
20
52.8627
0
VERTEX
8
CUT
10
211.1732
20
52.8382
0
VERTEX
8
CUT
10
211.1743
20
52.8277
0
VERTEX
8
CUT
10
211.1756
20
52.8148
0
VERTEX
8
CUT
10
211.1766
20
52.8043
0
VERTEX
8
CUT
10
211.1788
20
52.7798
0
VERTEX
8
CUT
10
211.1797
20
52.7692
0
VERTEX
8
CUT
10
211.1811
20
52.7505
0
VERTEX
8
CUT
10
211.1818
20
52.7400
0
VERTEX
8
CUT
10
211.1834
20
52.7154
0
VERTEX
8
CUT
10
211.1841
20
52.7048
0
VERTEX
8
CUT
10
211.1848
20
52.6919
0
VERTEX
8
CUT
10
211.1853
20
52.6814
0
VERTEX
8
CUT
10
211.1863
20
52.6567
0
VERTEX
8
CUT
10
211.1867
20
52.6462
0
VERTEX
8
CUT
10
211.2560
20
50.3294
0
VERTEX
8
CUT
10
211.2567
20
50.3147
0
VERTEX
8
CUT
10
211.2619
20
50.2191
0
VERTEX
8
CUT
10
211.2629
20
50.2044
0
VERTEX
8
CUT
10
211.2674
20
50.1470
0
VERTEX
8
CUT
10
211.2705
20
50.1177
0
VERTEX
8
CUT
10
211.2946
20
49.9305
0
VERTEX
8
CUT
10
211.3050
20
49.8725
0
VERTEX
8
CUT
10
211.3468
20
49.6911
0
VERTEX
8
CUT
10
211.3628
20
49.6344
0
VERTEX
8
CUT
10
211.4221
20
49.4579
0
VERTEX
8
CUT
10
211.4436
20
49.4031
0
VERTEX
8
CUT
10
211.5200
20
49.2333
0
VERTEX
8
CUT
10
211.5468
20
49.1808
0
VERTEX
8
CUT
10
211.6395
20
49.0193
0
VERTEX
8
CUT
10
211.6713
20
48.9697
0
VERTEX
8
CUT
10
211.7793
20
48.8181
0
VERTEX
8
CUT
10
211.8158
20
48.7718
0
VERTEX
8
CUT
10
211.9383
20
48.6315
0
VERTEX
8
CUT
10
211.9791
20
48.5891
0
VERTEX
8
CUT
10
212.1147
20
48.4615
0
VERTEX
8
CUT
10
212.1595
20
48.4232
0
VERTEX
8
CUT
10
212.3069
20
48.3095
0
VERTEX
8
CUT
10
212.3553
20
48.2759
0
VERTEX
8
CUT
10
212.5132
20
48.1771
0
VERTEX
8
CUT
10
212.5646
20
48.1484
0
VERTEX
8
CUT
10
212.7314
20
48.0656
0
VERTEX
8
CUT
10
212.7854
20
48.0421
0
VERTEX
8
CUT
10
212.9595
20
47.9761
0
VERTEX
8
CUT
10
213.0155
20
47.9579
0
VERTEX
8
CUT
10
213.1953
20
47.9093
0
VERTEX
8
CUT
10
213.2528
20
47.8967
0
VERTEX
8
CUT
10
213.4365
20
47.8660
0
VERTEX
8
CUT
10
213.4950
20
47.8591
0
VERTEX
8
CUT
10
213.6807
20
47.8465
0
VERTEX
8
CUT
10
213.7396
20
47.8454
0
VERTEX
8
CUT
10
213.9257
20
47.8510
0
VERTEX
8
CUT
10
213.9845
20
47.8557
0
VERTEX
8
CUT
10
214.1691
20
47.8796
0
VERTEX
8
CUT
10
214.2271
20
47.8900
0
VERTEX
8
CUT
10
214.4085
20
47.9319
0
VERTEX
8
CUT
10
214.4652
20
47.9479
0
VERTEX
8
CUT
10
214.6417
20
48.0074
0
VERTEX
8
CUT
10
214.6965
20
48.0289
0
VERTEX
8
CUT
10
214.8663
20
48.1054
0
VERTEX
8
CUT
10
214.9187
20
48.1322
0
VERTEX
8
CUT
10
215.0802
20
48.2250
0
VERTEX
8
CUT
10
215.1297
20
48.2568
0
VERTEX
8
CUT
10
215.2813
20
48.3649
0
VERTEX
8
CUT
10
215.3275
20
48.4014
0
VERTEX
8
CUT
10
215.4678
20
48.5239
0
VERTEX
8
CUT
10
215.5102
20
48.5648
0
VERTEX
8
CUT
10
215.6395
20
48.7023
0
VERTEX
8
CUT
10
215.6592
20
48.7243
0
VERTEX
8
CUT
10
215.6965
20
48.7680
0
VERTEX
8
CUT
10
215.7059
20
48.7794
0
VERTEX
8
CUT
10
215.7656
20
48.8531
0
VERTEX
8
CUT
10
215.7848
20
48.8781
0
VERTEX
8
CUT
10
215.8485
20
48.9656
0
VERTEX
8
CUT
10
215.8581
20
48.9793
0
VERTEX
8
CUT
10
215.8951
20
49.0333
0
VERTEX
8
CUT
10
215.9133
20
49.0615
0
VERTEX
8
CUT
10
216.0261
20
49.2477
0
VERTEX
8
CUT
10
216.0427
20
49.2769
0
VERTEX
8
CUT
10
216.0734
20
49.3346
0
VERTEX
8
CUT
10
216.0811
20
49.3495
0
VERTEX
8
CUT
10
216.1295
20
49.4471
0
VERTEX
8
CUT
10
216.1368
20
49.4622
0
VERTEX
8
CUT
10
216.7917
20
50.8793
0
VERTEX
8
CUT
10
216.7990
20
50.8956
0
VERTEX
8
CUT
10
216.8447
20
51.0027
0
VERTEX
8
CUT
10
216.8515
20
51.0193
0
VERTEX
8
CUT
10
216.9047
20
51.1554
0
VERTEX
8
CUT
10
216.9110
20
51.1722
0
VERTEX
8
CUT
10
216.9502
20
51.2818
0
VERTEX
8
CUT
10
216.9560
20
51.2988
0
VERTEX
8
CUT
10
217.8627
20
54.0957
0
VERTEX
8
CUT
10
217.8659
20
54.1057
0
VERTEX
8
CUT
10
217.8871
20
54.1754
0
VERTEX
8
CUT
10
217.8903
20
54.1862
0
VERTEX
8
CUT
10
217.9152
20
54.2735
0
VERTEX
8
CUT
10
217.9181
20
54.2841
0
VERTEX
8
CUT
10
217.9365
20
54.3535
0
VERTEX
8
CUT
10
217.9394
20
54.3649
0
VERTEX
8
CUT
10
218.6868
20
57.4273
0
VERTEX
8
CUT
10
218.6892
20
57.4379
0
VERTEX
8
CUT
10
218.7058
20
57.5115
0
VERTEX
8
CUT
10
218.7082
20
57.5225
0
VERTEX
8
CUT
10
218.7181
20
57.5710
0
VERTEX
8
CUT
10
218.7225
20
57.5944
0
VERTEX
8
CUT
10
218.7466
20
57.7411
0
VERTEX
8
CUT
10
218.7499
20
57.7638
0
VERTEX
8
CUT
10
218.7548
20
57.8033
0
VERTEX
8
CUT
10
218.7560
20
57.8141
0
VERTEX
8
CUT
10
218.7640
20
57.8883
0
VERTEX
8
CUT
10
218.7652
20
57.9003
0
VERTEX
8
CUT
10
218.8682
20
59.0896
0
VERTEX
8
CUT
10
218.8691
20
59.1019
0
VERTEX
8
CUT
10
218.8744
20
59.1817
0
VERTEX
8
CUT
10
218.8750
20
59.1940
0
VERTEX
8
CUT
10
218.8772
20
59.2420
0
VERTEX
8
CUT
10
218.8778
20
59.2666
0
VERTEX
8
CUT
10
218.8785
20
59.4265
0
VERTEX
8
CUT
10
218.8781
20
59.4511
0
VERTEX
8
CUT
10
218.8763
20
59.4992
0
VERTEX
8
CUT
10
218.8758
20
59.5115
0
VERTEX
8
CUT
10
218.8712
20
59.5914
0
VERTEX
8
CUT
10
218.8704
20
59.6037
0
VERTEX
8
CUT
10
218.7968
20
60.5472
0
VERTEX
8
CUT
10
218.7952
20
60.5650
0
VERTEX
8
CUT
10
218.7828
20
60.6799
0
VERTEX
8
CUT
10
218.7806
20
60.6976
0
VERTEX
8
CUT
10
218.7607
20
60.8413
0
VERTEX
8
CUT
10
218.7581
20
60.8589
0
VERTEX
8
CUT
10
218.7389
20
60.9730
0
VERTEX
8
CUT
10
218.7356
20
60.9905
0
VERTEX
8
CUT
10
218.6103
20
61.6202
0
VERTEX
8
CUT
10
218.6070
20
61.6358
0
VERTEX
8
CUT
10
218.5842
20
61.7365
0
VERTEX
8
CUT
10
218.5805
20
61.7519
0
VERTEX
8
CUT
10
218.5652
20
61.8120
0
VERTEX
8
CUT
10
218.5565
20
61.8426
0
VERTEX
8
CUT
10
218.4959
20
62.0370
0
VERTEX
8
CUT
10
218.4737
20
62.0966
0
VERTEX
8
CUT
10
218.3940
20
62.2809
0
VERTEX
8
CUT
10
218.3657
20
62.3378
0
VERTEX
8
CUT
10
218.2669
20
62.5127
0
VERTEX
8
CUT
10
218.2328
20
62.5663
0
VERTEX
8
CUT
10
218.1144
20
62.7320
0
VERTEX
8
CUT
10
218.0953
20
62.7574
0
VERTEX
8
CUT
10
218.0566
20
62.8058
0
VERTEX
8
CUT
10
218.0465
20
62.8181
0
VERTEX
8
CUT
10
217.9800
20
62.8972
0
VERTEX
8
CUT
10
217.9696
20
62.9092
0
VERTEX
8
CUT
10
216.9686
20
64.0362
0
VERTEX
8
CUT
10
216.9584
20
64.0479
0
VERTEX
8
CUT
10
216.9348
20
64.0755
0
VERTEX
8
CUT
10
216.9248
20
64.0874
0
VERTEX
8
CUT
10
216.9127
20
64.1020
0
VERTEX
8
CUT
10
216.9028
20
64.1141
0
VERTEX
8
CUT
10
216.8802
20
64.1424
0
VERTEX
8
CUT
10
216.8706
20
64.1547
0
VERTEX
8
CUT
10
216.8538
20
64.1764
0
VERTEX
8
CUT
10
216.8444
20
64.1888
0
VERTEX
8
CUT
10
216.8227
20
64.2180
0
VERTEX
8
CUT
10
216.8135
20
64.2305
0
VERTEX
8
CUT
10
216.8024
20
64.2459
0
VERTEX
8
CUT
10
216.7935
20
64.2587
0
VERTEX
8
CUT
10
216.7728
20
64.2885
0
VERTEX
8
CUT
10
216.7641
20
64.3014
0
VERTEX
8
CUT
10
215.8222
20
65.7145
0
VERTEX
8
CUT
10
215.8150
20
65.7255
0
VERTEX
8
CUT
10
215.7983
20
65.7513
0
VERTEX
8
CUT
10
215.7913
20
65.7625
0
VERTEX
8
CUT
10
215.7827
20
65.7761
0
VERTEX
8
CUT
10
215.7759
20
65.7873
0
VERTEX
8
CUT
10
215.7600
20
65.8135
0
VERTEX
8
CUT
10
215.7532
20
65.8249
0
VERTEX
8
CUT
10
215.7415
20
65.8450
0
VERTEX
8
CUT
10
215.7349
20
65.8564
0
VERTEX
8
CUT
10
215.7198
20
65.8831
0
VERTEX
8
CUT
10
215.7134
20
65.8946
0
VERTEX
8
CUT
10
215.7057
20
65.9087
0
VERTEX
8
CUT
10
215.6995
20
65.9203
0
VERTEX
8
CUT
10
215.6851
20
65.9474
0
VERTEX
8
CUT
10
215.6791
20
65.9591
0
VERTEX
8
CUT
10
213.3086
20
70.6149
0
VERTEX
8
CUT
10
213.3012
20
70.6290
0
VERTEX
8
CUT
10
213.2520
20
70.7196
0
VERTEX
8
CUT
10
213.2443
20
70.7334
0
VERTEX
8
CUT
10
213.1796
20
70.8455
0
VERTEX
8
CUT
10
213.1714
20
70.8591
0
VERTEX
8
CUT
10
213.1175
20
70.9470
0
VERTEX
8
CUT
10
213.1091
20
70.9604
0
VERTEX
8
CUT
10
211.1937
20
73.9052
0
VERTEX
8
CUT
10
211.1863
20
73.9166
0
VERTEX
8
CUT
10
211.1694
20
73.9435
0
VERTEX
8
CUT
10
211.1622
20
73.9551
0
VERTEX
8
CUT
10
211.1536
20
73.9693
0
VERTEX
8
CUT
10
211.1466
20
73.9809
0
VERTEX
8
CUT
10
211.1306
20
74.0083
0
VERTEX
8
CUT
10
211.1237
20
74.0201
0
VERTEX
8
CUT
10
211.1115
20
74.0416
0
VERTEX
8
CUT
10
211.1061
20
74.0510
0
VERTEX
8
CUT
10
211.0720
20
74.1086
0
VERTEX
8
CUT
10
211.0538
20
74.1372
0
VERTEX
8
CUT
10
211.0256
20
74.1804
0
VERTEX
8
CUT
10
210.9715
20
74.2679
0
VERTEX
8
CUT
10
210.9379
20
74.3165
0
VERTEX
8
CUT
10
210.8245
20
74.4649
0
VERTEX
8
CUT
10
210.7864
20
74.5100
0
VERTEX
8
CUT
10
210.6589
20
74.6465
0
VERTEX
8
CUT
10
210.6165
20
74.6876
0
VERTEX
8
CUT
10
210.4762
20
74.8109
0
VERTEX
8
CUT
10
210.4300
20
74.8477
0
VERTEX
8
CUT
10
210.2783
20
74.9566
0
VERTEX
8
CUT
10
210.2286
20
74.9886
0
VERTEX
8
CUT
10
210.0669
20
75.0821
0
VERTEX
8
CUT
10
210.0144
20
75.1091
0
VERTEX
8
CUT
10
209.8443
20
75.1862
0
VERTEX
8
CUT
10
209.7893
20
75.2079
0
VERTEX
8
CUT
10
209.6125
20
75.2679
0
VERTEX
8
CUT
10
209.5557
20
75.2841
0
VERTEX
8
CUT
10
209.3737
20
75.3264
0
VERTEX
8
CUT
10
209.3156
20
75.3370
0
VERTEX
8
CUT
10
209.1304
20
75.3612
0
VERTEX
8
CUT
10
209.0715
20
75.3660
0
VERTEX
8
CUT
10
208.8849
20
75.3719
0
VERTEX
8
CUT
10
208.8258
20
75.3708
0
VERTEX
8
CUT
10
208.6395
20
75.3583
0
VERTEX
8
CUT
10
208.5808
20
75.3515
0
VERTEX
8
CUT
10
208.3966
20
75.3207
0
VERTEX
8
CUT
10
208.3388
20
75.3081
0
VERTEX
8
CUT
10
208.1585
20
75.2594
0
VERTEX
8
CUT
10
208.1023
20
75.2412
0
VERTEX
8
CUT
10
207.9277
20
75.1750
0
VERTEX
8
CUT
10
207.8736
20
75.1513
0
VERTEX
8
CUT
10
207.7063
20
75.0683
0
VERTEX
8
CUT
10
207.6547
20
75.0394
0
VERTEX
8
CUT
10
207.4964
20
74.9403
0
VERTEX
8
CUT
10
207.4480
20
74.9065
0
VERTEX
8
CUT
10
207.3002
20
74.7923
0
VERTEX
8
CUT
10
207.2553
20
74.7539
0
VERTEX
8
CUT
10
207.1195
20
74.6257
0
VERTEX
8
CUT
10
207.0785
20
74.5831
0
VERTEX
8
CUT
10
206.9560
20
74.4422
0
VERTEX
8
CUT
10
206.9194
20
74.3958
0
VERTEX
8
CUT
10
206.8113
20
74.2435
0
VERTEX
8
CUT
10
206.7795
20
74.1937
0
VERTEX
8
CUT
10
206.6869
20
74.0315
0
VERTEX
8
CUT
10
206.6602
20
73.9788
0
VERTEX
8
CUT
10
206.5829
20
73.8060
0
VERTEX
8
CUT
10
206.5715
20
73.7787
0
VERTEX
8
CUT
10
206.5506
20
73.7249
0
VERTEX
8
CUT
10
206.5454
20
73.7111
0
VERTEX
8
CUT
10
206.5128
20
73.6208
0
VERTEX
8
CUT
10
206.5080
20
73.6068
0
VERTEX
8
CUT
10
205.9512
20
71.9369
0
VERTEX
8
CUT
10
205.9465
20
71.9233
0
VERTEX
8
CUT
10
205.9354
20
71.8917
0
VERTEX
8
CUT
10
205.9306
20
71.8782
0
VERTEX
8
CUT
10
205.9245
20
71.8617
0
VERTEX
8
CUT
10
205.9194
20
71.8483
0
VERTEX
8
CUT
10
205.9073
20
71.8171
0
VERTEX
8
CUT
10
205.9020
20
71.8037
0
VERTEX
8
CUT
10
205.8924
20
71.7802
0
VERTEX
8
CUT
10
205.8869
20
71.7669
0
VERTEX
8
CUT
10
205.8738
20
71.7360
0
VERTEX
8
CUT
10
205.8681
20
71.7228
0
VERTEX
8
CUT
10
205.8610
20
71.7068
0
VERTEX
8
CUT
10
205.8550
20
71.6937
0
VERTEX
8
CUT
10
205.8410
20
71.6633
0
VERTEX
8
CUT
10
205.8348
20
71.6503
0
VERTEX
8
CUT
10
204.6344
20
69.1624
0
VERTEX
8
CUT
10
204.6290
20
69.1510
0
VERTEX
8
CUT
10
204.5948
20
69.0761
0
VERTEX
8
CUT
10
204.5897
20
69.0645
0
VERTEX
8
CUT
10
204.5701
20
69.0191
0
VERTEX
8
CUT
10
204.5606
20
68.9956
0
VERTEX
8
CUT
10
204.5018
20
68.8419
0
VERTEX
8
CUT
10
204.4933
20
68.8181
0
VERTEX
8
CUT
10
204.4776
20
68.7711
0
VERTEX
8
CUT
10
204.4737
20
68.7591
0
VERTEX
8
CUT
10
204.4492
20
68.6805
0
VERTEX
8
CUT
10
204.4456
20
68.6684
0
VERTEX
8
CUT
10
204.3975
20
68.5018
0
VERTEX
8
CUT
10
204.3936
20
68.4874
0
VERTEX
8
CUT
10
204.3691
20
68.3939
0
VERTEX
8
CUT
10
204.3655
20
68.3795
0
VERTEX
8
CUT
10
204.3522
20
68.3229
0
VERTEX
8
CUT
10
204.3461
20
68.2938
0
VERTEX
8
CUT
10
204.3117
20
68.1063
0
VERTEX
8
CUT
10
204.3039
20
68.0474
0
VERTEX
8
CUT
10
204.2882
20
67.8574
0
VERTEX
8
CUT
10
204.2865
20
67.8277
0
VERTEX
8
CUT
10
204.2846
20
67.7696
0
VERTEX
8
CUT
10
204.2843
20
67.7548
0
VERTEX
8
CUT
10
204.2835
20
67.6581
0
VERTEX
8
CUT
10
204.2836
20
67.6432
0
VERTEX
8
CUT
10
204.2918
20
67.1575
0
VERTEX
8
CUT
10
204.2922
20
67.1424
0
SEQEND
0
POLYLINE
8
CUT
66
1
70
1
10
0.0
20
0.0
30
0.0
0
VERTEX
8
CUT
10
135.4522
20
107.7110
0
VERTEX
8
CUT
10
135.4544
20
107.6552
0
VERTEX
8
CUT
10
135.4693
20
107.4792
0
VERTEX
8
CUT
10
135.4767
20
107.4238
0
VERTEX
8
CUT
10
135.5079
20
107.2500
0
VERTEX
8
CUT
10
135.5204
20
107.1956
0
VERTEX
8
CUT
10
135.5677
20
107.0254
0
VERTEX
8
CUT
10
135.5851
20
106.9724
0
VERTEX
8
CUT
10
135.6480
20
106.8074
0
VERTEX
8
CUT
10
135.6703
20
106.7562
0
VERTEX
8
CUT
10
135.7483
20
106.5977
0
VERTEX
8
CUT
10
135.7753
20
106.5488
0
VERTEX
8
CUT
10
135.8677
20
106.3983
0
VERTEX
8
CUT
10
135.8991
20
106.3521
0
VERTEX
8
CUT
10
136.0065
20
106.2089
0
VERTEX
8
CUT
10
136.0238
20
106.1869
0
VERTEX
8
CUT
10
136.0585
20
106.1449
0
VERTEX
8
CUT
10
136.0675
20
106.1342
0
VERTEX
8
CUT
10
136.1269
20
106.0656
0
VERTEX
8
CUT
10
136.1362
20
106.0551
0
VERTEX
8
CUT
10
136.1427
20
106.0479
0
VERTEX
8
CUT
10
136.1530
20
106.0369
0
VERTEX
8
CUT
10
136.2205
20
105.9661
0
VERTEX
8
CUT
10
136.2311
20
105.9553
0
VERTEX
8
CUT
10
136.2727
20
105.9138
0
VERTEX
8
CUT
10
136.2945
20
105.8931
0
VERTEX
8
CUT
10
136.4398
20
105.7621
0
VERTEX
8
CUT
10
136.4627
20
105.7426
0
VERTEX
8
CUT
10
136.5083
20
105.7054
0
VERTEX
8
CUT
10
136.5200
20
105.6961
0
VERTEX
8
CUT
10
136.5974
20
105.6362
0
VERTEX
8
CUT
10
136.6095
20
105.6271
0
VERTEX
8
CUT
10
137.8113
20
104.7448
0
VERTEX
8
CUT
10
137.8255
20
104.7347
0
VERTEX
8
CUT
10
137.9186
20
104.6704
0
VERTEX
8
CUT
10
137.9330
20
104.6607
0
VERTEX
8
CUT
10
137.9900
20
104.6238
0
VERTEX
8
CUT
10
138.0197
20
104.6057
0
VERTEX
8
CUT
10
138.2161
20
104.4940
0
VERTEX
8
CUT
10
138.2469
20
104.4776
0
VERTEX
8
CUT
10
138.3077
20
104.4476
0
VERTEX
8
CUT
10
138.3234
20
104.4401
0
VERTEX
8
CUT
10
138.4262
20
104.3929
0
VERTEX
8
CUT
10
138.4421
20
104.3859
0
VERTEX
8
CUT
10
139.5787
20
103.9036
0
VERTEX
8
CUT
10
139.5957
20
103.8967
0
VERTEX
8
CUT
10
139.7065
20
103.8536
0
VERTEX
8
CUT
10
139.7237
20
103.8473
0
VERTEX
8
CUT
10
139.7909
20
103.8235
0
VERTEX
8
CUT
10
139.8258
20
103.8123
0
VERTEX
8
CUT
10
140.0542
20
103.7468
0
VERTEX
8
CUT
10
140.0897
20
103.7378
0
VERTEX
8
CUT
10
140.1593
20
103.7224
0
VERTEX
8
CUT
10
140.1772
20
103.7187
0
VERTEX
8
CUT
10
140.2941
20
103.6965
0
VERTEX
8
CUT
10
140.3121
20
103.6933
0
VERTEX
8
CUT
10
140.4464
20
103.6720
0
VERTEX
8
CUT
10
140.4609
20
103.6699
0
VERTEX
8
CUT
10
140.5551
20
103.6573
0
VERTEX
8
CUT
10
140.5697
20
103.6556
0
VERTEX
8
CUT
10
140.6265
20
103.6494
0
VERTEX
8
CUT
10
140.6556
20
103.6469
0
VERTEX
8
CUT
10
140.8428
20
103.6357
0
VERTEX
8
CUT
10
140.9013
20
103.6351
0
VERTEX
8
CUT
10
141.0861
20
103.6421
0
VERTEX
8
CUT
10
141.1443
20
103.6471
0
VERTEX
8
CUT
10
141.3276
20
103.6721
0
VERTEX
8
CUT
10
141.3851
20
103.6828
0
VERTEX
8
CUT
10
141.5650
20
103.7254
0
VERTEX
8
CUT
10
141.6212
20
103.7417
0
VERTEX
8
CUT
10
141.7961
20
103.8017
0
VERTEX
8
CUT
10
141.8505
20
103.8233
0
VERTEX
8
CUT
10
142.0187
20
103.9001
0
VERTEX
8
CUT
10
142.0707
20
103.9269
0
VERTEX
8
CUT
10
142.2307
20
104.0197
0
VERTEX
8
CUT
10
142.2798
20
104.0515
0
VERTEX
8
CUT
10
142.4300
20
104.1594
0
VERTEX
8
CUT
10
142.4758
20
104.1958
0
VERTEX
8
CUT
10
142.6148
20
104.3178
0
VERTEX
8
CUT
10
142.6568
20
104.3585
0
VERTEX
8
CUT
10
142.7832
20
104.4934
0
VERTEX
8
CUT
10
142.8211
20
104.5380
0
VERTEX
8
CUT
10
142.9338
20
104.6847
0
VERTEX
8
CUT
10
142.9671
20
104.7327
0
VERTEX
8
CUT
10
143.0650
20
104.8896
0
VERTEX
8
CUT
10
143.0935
20
104.9407
0
VERTEX
8
CUT
10
143.1756
20
105.1064
0
VERTEX
8
CUT
10
143.1990
20
105.1600
0
VERTEX
8
CUT
10
143.2646
20
105.3329
0
VERTEX
8
CUT
10
143.2827
20
105.3886
0
VERTEX
8
CUT
10
143.3318
20
105.5695
0
VERTEX
8
CUT
10
143.3388
20
105.5979
0
VERTEX
8
CUT
10
143.3510
20
105.6537
0
VERTEX
8
CUT
10
143.3540
20
105.6680
0
VERTEX
8
CUT
10
143.3721
20
105.7614
0
VERTEX
8
CUT
10
143.3747
20
105.7758
0
VERTEX
8
CUT
10
143.6092
20
107.1617
0
VERTEX
8
CUT
10
143.6119
20
107.1791
0
VERTEX
8
CUT
10
143.6277
20
107.2931
0
VERTEX
8
CUT
10
143.6299
20
107.3106
0
VERTEX
8
CUT
10
143.6455
20
107.4542
0
VERTEX
8
CUT
10
143.6472
20
107.4718
0
VERTEX
8
CUT
10
143.6563
20
107.5864
0
VERTEX
8
CUT
10
143.6574
20
107.6041
0
VERTEX
8
CUT
10
143.8367
20
111.2178
0
VERTEX
8
CUT
10
143.8373
20
111.2365
0
VERTEX
8
CUT
10
143.8396
20
111.3585
0
VERTEX
8
CUT
10
143.8396
20
111.3773
0
VERTEX
8
CUT
10
143.8376
20
111.5304
0
VERTEX
8
CUT
10
143.8371
20
111.5492
0
VERTEX
8
CUT
10
143.8317
20
111.6711
0
VERTEX
8
CUT
10
143.8305
20
111.6898
0
VERTEX
8
CUT
10
143.6689
20
113.8230
0
VERTEX
8
CUT
10
143.6671
20
113.8427
0
VERTEX
8
CUT
10
143.6531
20
113.9709
0
VERTEX
8
CUT
10
143.6506
20
113.9906
0
VERTEX
8
CUT
10
143.6278
20
114.1508
0
VERTEX
8
CUT
10
143.6246
20
114.1704
0
VERTEX
8
CUT
10
143.6022
20
114.2974
0
VERTEX
8
CUT
10
143.5984
20
114.3169
0
VERTEX
8
CUT
10
143.1243
20
116.5641
0
VERTEX
8
CUT
10
143.1211
20
116.5784
0
VERTEX
8
CUT
10
143.0992
20
116.6709
0
VERTEX
8
CUT
10
143.0956
20
116.6851
0
VERTEX
8
CUT
10
143.0811
20
116.7403
0
VERTEX
8
CUT
10
143.0730
20
116.7684
0
VERTEX
8
CUT
10
143.0166
20
116.9472
0
VERTEX
8
CUT
10
142.9964
20
117.0021
0
VERTEX
8
CUT
10
142.9238
20
117.1722
0
VERTEX
8
CUT
10
142.8983
20
117.2248
0
VERTEX
8
CUT
10
142.8096
20
117.3870
0
VERTEX
8
CUT
10
142.7790
20
117.4369
0
VERTEX
8
CUT
10
142.6749
20
117.5897
0
VERTEX
8
CUT
10
142.6397
20
117.6364
0
VERTEX
8
CUT
10
142.5212
20
117.7784
0
VERTEX
8
CUT
10
142.4816
20
117.8214
0
VERTEX
8
CUT
10
142.3498
20
117.9511
0
VERTEX
8
CUT
10
142.3062
20
117.9901
0
VERTEX
8
CUT
10
142.1624
20
118.1064
0
VERTEX
8
CUT
10
142.1152
20
118.1409
0
VERTEX
8
CUT
10
141.9608
20
118.2427
0
VERTEX
8
CUT
10
141.9105
20
118.2724
0
VERTEX
8
CUT
10
141.7469
20
118.3587
0
VERTEX
8
CUT
10
141.6939
20
118.3834
0
VERTEX
8
CUT
10
141.5227
20
118.4533
0
VERTEX
8
CUT
10
141.4675
20
118.4727
0
VERTEX
8
CUT
10
141.2904
20
118.5256
0
VERTEX
8
CUT
10
141.2336
20
118.5396
0
VERTEX
8
CUT
10
141.0521
20
118.5750
0
VERTEX
8
CUT
10
140.9942
20
118.5834
0
VERTEX
8
CUT
10
140.8101
20
118.6010
0
VERTEX
8
CUT
10
140.7517
20
118.6037
0
VERTEX
8
CUT
10
140.5668
20
118.6032
0
VERTEX
8
CUT
10
140.5084
20
118.6002
0
VERTEX
8
CUT
10
140.3244
20
118.5818
0
VERTEX
8
CUT
10
140.2665
20
118.5731
0
VERTEX
8
CUT
10
140.0852
20
118.5368
0
VERTEX
8
CUT
10
140.0285
20
118.5226
0
VERTEX
8
CUT
10
139.8516
20
118.4688
0
VERTEX
8
CUT
10
139.7965
20
118.4491
0
VERTEX
8
CUT
10
139.6256
20
118.3784
0
VERTEX
8
CUT
10
139.5728
20
118.3534
0
VERTEX
8
CUT
10
139.4096
20
118.2664
0
VERTEX
8
CUT
10
139.3594
20
118.2364
0
VERTEX
8
CUT
10
139.2055
20
118.1339
0
VERTEX
8
CUT
10
139.1585
20
118.0991
0
VERTEX
8
CUT
10
139.0153
20
117.9821
0
VERTEX
8
CUT
10
138.9718
20
117.9429
0
VERTEX
8
CUT
10
138.8407
20
117.8126
0
VERTEX
8
CUT
10
138.8013
20
117.7693
0
VERTEX
8
CUT
10
138.6819
20
117.6248
0
VERTEX
8
CUT
10
138.6638
20
117.6018
0
VERTEX
8
CUT
10
138.6296
20
117.5561
0
VERTEX
8
CUT
10
138.6210
20
117.5443
0
VERTEX
8
CUT
10
138.5659
20
117.4668
0
VERTEX
8
CUT
10
138.5576
20
117.4547
0
VERTEX
8
CUT
10
136.8393
20
114.9059
0
VERTEX
8
CUT
10
136.8302
20
114.8921
0
VERTEX
8
CUT
10
136.7727
20
114.8014
0
VERTEX
8
CUT
10
136.7640
20
114.7873
0
VERTEX
8
CUT
10
136.7310
20
114.7320
0
VERTEX
8
CUT
10
136.7148
20
114.7031
0
VERTEX
8
CUT
10
136.6165
20
114.5157
0
VERTEX
8
CUT
10
136.5891
20
114.4556
0
VERTEX
8
CUT
10
136.5120
20
114.2584
0
VERTEX
8
CUT
10
136.5008
20
114.2273
0
VERTEX
8
CUT
10
136.4806
20
114.1661
0
VERTEX
8
CUT
10
136.4757
20
114.1503
0
VERTEX
8
CUT
10
136.4450
20
114.0474
0
VERTEX
8
CUT
10
136.4405
20
114.0315
0
VERTEX
8
CUT
10
135.9120
20
112.0663
0
VERTEX
8
CUT
10
135.9090
20
112.0545
0
VERTEX
8
CUT
10
135.8901
20
111.9782
0
VERTEX
8
CUT
10
135.8873
20
111.9664
0
VERTEX
8
CUT
10
135.8768
20
111.9203
0
VERTEX
8
CUT
10
135.8720
20
111.8966
0
VERTEX
8
CUT
10
135.8435
20
111.7419
0
VERTEX
8
CUT
10
135.8396
20
111.7180
0
VERTEX
8
CUT
10
135.8329
20
111.6712
0
VERTEX
8
CUT
10
135.8314
20
111.6592
0
VERTEX
8
CUT
10
135.8218
20
111.5811
0
VERTEX
8
CUT
10
135.8205
20
111.5691
0
VERTEX
8
CUT
10
135.4668
20
108.0907
0
VERTEX
8
CUT
10
135.4656
20
108.0768
0
VERTEX
8
CUT
10
135.4585
20
107.9863
0
VERTEX
8
CUT
10
135.4576
20
107.9724
0
VERTEX
8
CUT
10
135.4546
20
107.9179
0
VERTEX
8
CUT
10
135.4537
20
107.8900
0
SEQEND
0
ENDSEC
0
EOF
