0
SECTION
2
HEADER
9
$ACADVER
1
AC1009
9
$INSUNITS
70
4
0
ENDSEC
0
SECTION
2
TABLES
0
TABLE
2
LAYER
70
1
0
LAYER
2
CUT
70
0
62
7
6
CONTINUOUS
0
ENDTAB
0
ENDSEC
0
SECTION
2
ENTITIES
0
POLYLINE
8
CUT
66
1
70
1
10
0.0
20
0.0
30
0.0
0
VERTEX
8
CUT
10
-0.0503
20
299.5794
0
VERTEX
8
CUT
10
-0.0360
20
299.6365
0
VERTEX
8
CUT
10
-0.0162
20
299.6918
0
VERTEX
8
CUT
10
0.0090
20
299.7450
0
VERTEX
8
CUT
10
0.0392
20
299.7954
0
VERTEX
8
CUT
10
0.0743
20
299.8427
0
VERTEX
8
CUT
10
0.1137
20
299.8863
0
VERTEX
8
CUT
10
0.1573
20
299.9257
0
VERTEX
8
CUT
10
0.2046
20
299.9608
0
VERTEX
8
CUT
10
0.2550
20
299.9910
0
VERTEX
8
CUT
10
0.3082
20
300.0162
0
VERTEX
8
CUT
10
0.3635
20
300.0360
0
VERTEX
8
CUT
10
0.4206
20
300.0503
0
VERTEX
8
CUT
10
0.4788
20
300.0589
0
VERTEX
8
CUT
10
0.5522
20
300.0625
0
VERTEX
8
CUT
10
1.4375
20
300.0625
0
VERTEX
8
CUT
10
298.5045
20
300.0625
0
VERTEX
8
CUT
10
299.3898
20
300.0625
0
VERTEX
8
CUT
10
299.4633
20
300.0589
0
VERTEX
8
CUT
10
299.5214
20
300.0503
0
VERTEX
8
CUT
10
299.5785
20
300.0360
0
VERTEX
8
CUT
10
299.6339
20
300.0162
0
VERTEX
8
CUT
10
299.6870
20
299.9910
0
VERTEX
8
CUT
10
299.7375
20
299.9608
0
VERTEX
8
CUT
10
299.7847
20
299.9257
0
VERTEX
8
CUT
10
299.8283
20
299.8863
0
VERTEX
8
CUT
10
299.8678
20
299.8427
0
VERTEX
8
CUT
10
299.9028
20
299.7954
0
VERTEX
8
CUT
10
299.9330
20
299.7450
0
VERTEX
8
CUT
10
299.9582
20
299.6918
0
VERTEX
8
CUT
10
299.9780
20
299.6365
0
VERTEX
8
CUT
10
299.9923
20
299.5794
0
VERTEX
8
CUT
10
300.0009
20
299.5212
0
VERTEX
8
CUT
10
300.0045
20
299.4478
0
VERTEX
8
CUT
10
300.0045
20
298.5625
0
VERTEX
8
CUT
10
300.0045
20
1.4375
0
VERTEX
8
CUT
10
300.0045
20
0.5522
0
VERTEX
8
CUT
10
300.0009
20
0.4788
0
VERTEX
8
CUT
10
299.9923
20
0.4206
0
VERTEX
8
CUT
10
299.9780
20
0.3635
0
VERTEX
8
CUT
10
299.9582
20
0.3082
0
VERTEX
8
CUT
10
299.9330
20
0.2550
0
VERTEX
8
CUT
10
299.9028
20
0.2046
0
VERTEX
8
CUT
10
299.8678
20
0.1573
0
VERTEX
8
CUT
10
299.8283
20
0.1137
0
VERTEX
8
CUT
10
299.7847
20
0.0743
0
VERTEX
8
CUT
10
299.7375
20
0.0392
0
VERTEX
8
CUT
10
299.6870
20
0.0090
0
VERTEX
8
CUT
10
299.6339
20
-0.0162
0
VERTEX
8
CUT
10
299.5785
20
-0.0360
0
VERTEX
8
CUT
10
299.5214
20
-0.0503
0
VERTEX
8
CUT
10
299.4633
20
-0.0589
0
VERTEX
8
CUT
10
299.3898
20
-0.0625
0
VERTEX
8
CUT
10
298.5045
20
-0.0625
0
VERTEX
8
CUT
10
1.4375
20
-0.0625
0
VERTEX
8
CUT
10
0.5522
20
-0.0625
0
VERTEX
8
CUT
10
0.4788
20
-0.0589
0
VERTEX
8
CUT
10
0.4206
20
-0.0503
0
VERTEX
8
CUT
10
0.3635
20
-0.0360
0
VERTEX
8
CUT
10
0.3082
20
-0.0162
0
VERTEX
8
CUT
10
0.2550
20
0.0090
0
VERTEX
8
CUT
10
0.2046
20
0.0392
0
VERTEX
8
CUT
10
0.1573
20
0.0743
0
VERTEX
8
CUT
10
0.1137
20
0.1137
0
VERTEX
8
CUT
10
0.0743
20
0.1573
0
VERTEX
8
CUT
10
0.0392
20
0.2046
0
VERTEX
8
CUT
10
0.0090
20
0.2550
0
VERTEX
8
CUT
10
-0.0162
20
0.3082
0
VERTEX
8
CUT
10
-0.0360
20
0.3635
0
VERTEX
8
CUT
10
-0.0503
20
0.4206
0
VERTEX
8
CUT
10
-0.0589
20
0.4788
0
VERTEX
8
CUT
10
-0.0625
20
0.5522
0
VERTEX
8
CUT
10
-0.0625
20
1.4375
0
VERTEX
8
CUT
10
-0.0625
20
298.5625
0
VERTEX
8
CUT
10
-0.0625
20
299.4478
0
VERTEX
8
CUT
10
-0.0589
20
299.5212
0
SEQEND
0
POLYLINE
8
CUT
66
1
70
1
10
0.0
20
0.0
30
0.0
0
VERTEX
8
CUT
10
230.6510
20
174.0393
0
VERTEX
8
CUT
10
230.6518
20
174.0103
0
VERTEX
8
CUT
10
230.6546
20
173.9538
0
VERTEX
8
CUT
10
230.6555
20
173.9393
0
VERTEX
8
CUT
10
230.6624
20
173.8454
0
VERTEX
8
CUT
10
230.6636
20
173.8310
0
VERTEX
8
CUT
10
230.9346
20
171.0705
0
VERTEX
8
CUT
10
230.9361
20
171.0568
0
VERTEX
8
CUT
10
230.9469
20
170.9679
0
VERTEX
8
CUT
10
230.9487
20
170.9542
0
VERTEX
8
CUT
10
230.9565
20
170.9009
0
VERTEX
8
CUT
10
230.9610
20
170.8737
0
VERTEX
8
CUT
10
230.9948
20
170.6978
0
VERTEX
8
CUT
10
231.0006
20
170.6709
0
VERTEX
8
CUT
10
231.0132
20
170.6185
0
VERTEX
8
CUT
10
231.0166
20
170.6052
0
VERTEX
8
CUT
10
231.0395
20
170.5186
0
VERTEX
8
CUT
10
231.0432
20
170.5053
0
VERTEX
8
CUT
10
231.8388
20
167.7554
0
VERTEX
8
CUT
10
231.8425
20
167.7433
0
VERTEX
8
CUT
10
231.8669
20
167.6651
0
VERTEX
8
CUT
10
231.8707
20
167.6532
0
VERTEX
8
CUT
10
231.8864
20
167.6065
0
VERTEX
8
CUT
10
231.8949
20
167.5827
0
VERTEX
8
CUT
10
231.9535
20
167.4298
0
VERTEX
8
CUT
10
231.9630
20
167.4065
0
VERTEX
8
CUT
10
231.9825
20
167.3613
0
VERTEX
8
CUT
10
231.9876
20
167.3498
0
VERTEX
8
CUT
10
232.0216
20
167.2753
0
VERTEX
8
CUT
10
232.0270
20
167.2639
0
VERTEX
8
CUT
10
236.5535
20
157.8854
0
VERTEX
8
CUT
10
236.5564
20
157.8792
0
VERTEX
8
CUT
10
236.5634
20
157.8645
0
VERTEX
8
CUT
10
236.5663
20
157.8582
0
VERTEX
8
CUT
10
236.5733
20
157.8432
0
VERTEX
8
CUT
10
236.5768
20
157.8354
0
VERTEX
8
CUT
10
236.5850
20
157.8173
0
VERTEX
8
CUT
10
236.5885
20
157.8095
0
VERTEX
8
CUT
10
236.5925
20
157.8005
0
VERTEX
8
CUT
10
236.5959
20
157.7926
0
VERTEX
8
CUT
10
236.6038
20
157.7743
0
VERTEX
8
CUT
10
236.6072
20
157.7664
0
VERTEX
8
CUT
10
236.6089
20
157.7623
0
VERTEX
8
CUT
10
236.6127
20
157.7530
0
VERTEX
8
CUT
10
236.6216
20
157.7311
0
VERTEX
8
CUT
10
236.6253
20
157.7217
0
VERTEX
8
CUT
10
237.6686
20
155.0620
0
VERTEX
8
CUT
10
237.6722
20
155.0526
0
VERTEX
8
CUT
10
237.6806
20
155.0306
0
VERTEX
8
CUT
10
237.6841
20
155.0211
0
VERTEX
8
CUT
10
237.6883
20
155.0098
0
VERTEX
8
CUT
10
237.6916
20
155.0005
0
VERTEX
8
CUT
10
237.6994
20
154.9785
0
VERTEX
8
CUT
10
237.7027
20
154.9691
0
VERTEX
8
CUT
10
237.7064
20
154.9582
0
VERTEX
8
CUT
10
237.7096
20
154.9487
0
VERTEX
8
CUT
10
237.7169
20
154.9266
0
VERTEX
8
CUT
10
237.7200
20
154.9170
0
VERTEX
8
CUT
10
237.7237
20
154.9054
0
VERTEX
8
CUT
10
237.7266
20
154.8958
0
VERTEX
8
CUT
10
237.7334
20
154.8735
0
VERTEX
8
CUT
10
237.7363
20
154.8639
0
VERTEX
8
CUT
10
238.4891
20
152.2929
0
VERTEX
8
CUT
10
238.4921
20
152.2825
0
VERTEX
8
CUT
10
238.4989
20
152.2580
0
VERTEX
8
CUT
10
238.5018
20
152.2474
0
VERTEX
8
CUT
10
238.5052
20
152.2346
0
VERTEX
8
CUT
10
238.5080
20
152.2240
0
VERTEX
8
CUT
10
238.5142
20
152.1994
0
VERTEX
8
CUT
10
238.5168
20
152.1888
0
VERTEX
8
CUT
10
238.5198
20
152.1766
0
VERTEX
8
CUT
10
238.5223
20
152.1660
0
VERTEX
8
CUT
10
238.5279
20
152.1412
0
VERTEX
8
CUT
10
238.5303
20
152.1305
0
VERTEX
8
CUT
10
238.5331
20
152.1175
0
VERTEX
8
CUT
10
238.5353
20
152.1069
0
VERTEX
8
CUT
10
238.5404
20
152.0819
0
VERTEX
8
CUT
10
238.5425
20
152.0712
0
VERTEX
8
CUT
10
239.0585
20
149.3575
0
VERTEX
8
CUT
10
239.0604
20
149.3474
0
VERTEX
8
CUT
10
239.0646
20
149.3238
0
VERTEX
8
CUT
10
239.0663
20
149.3137
0
VERTEX
8
CUT
10
239.0684
20
149.3013
0
VERTEX
8
CUT
10
239.0700
20
149.2911
0
VERTEX
8
CUT
10
239.0737
20
149.2675
0
VERTEX
8
CUT
10
239.0752
20
149.2573
0
VERTEX
8
CUT
10
239.0769
20
149.2456
0
VERTEX
8
CUT
10
239.0783
20
149.2354
0
VERTEX
8
CUT
10
239.0814
20
149.2116
0
VERTEX
8
CUT
10
239.0827
20
149.2015
0
VERTEX
8
CUT
10
239.0842
20
149.1890
0
VERTEX
8
CUT
10
239.0854
20
149.1788
0
VERTEX
8
CUT
10
239.0879
20
149.1550
0
VERTEX
8
CUT
10
239.0890
20
149.1447
0
VERTEX
8
CUT
10
239.3697
20
146.2478
0
VERTEX
8
CUT
10
239.3706
20
146.2381
0
VERTEX
8
CUT
10
239.3719
20
146.2230
0
VERTEX
8
CUT
10
239.3737
20
146.1980
0
VERTEX
8
CUT
10
239.3757
20
146.1644
0
VERTEX
8
CUT
10
239.3769
20
146.1346
0
VERTEX
8
CUT
10
239.3775
20
146.1109
0
VERTEX
8
CUT
10
239.3777
20
146.0974
0
VERTEX
8
CUT
10
239.3778
20
146.0923
0
VERTEX
8
CUT
10
239.3776
20
146.0630
0
VERTEX
8
CUT
10
239.3761
20
145.9978
0
VERTEX
8
CUT
10
239.3743
20
145.9588
0
VERTEX
8
CUT
10
239.3735
20
145.9456
0
VERTEX
8
CUT
10
239.3728
20
145.9358
0
VERTEX
8
CUT
10
239.2015
20
143.7220
0
VERTEX
8
CUT
10
239.2006
20
143.7073
0
VERTEX
8
CUT
10
239.1955
20
143.6117
0
VERTEX
8
CUT
10
239.1949
20
143.5970
0
VERTEX
8
CUT
10
239.1933
20
143.5395
0
VERTEX
8
CUT
10
239.1932
20
143.5100
0
VERTEX
8
CUT
10
239.1972
20
143.3212
0
VERTEX
8
CUT
10
239.2013
20
143.2624
0
VERTEX
8
CUT
10
239.2235
20
143.0775
0
VERTEX
8
CUT
10
239.2334
20
143.0194
0
VERTEX
8
CUT
10
239.2736
20
142.8375
0
VERTEX
8
CUT
10
239.2891
20
142.7807
0
VERTEX
8
CUT
10
239.3469
20
142.6036
0
VERTEX
8
CUT
10
239.3679
20
142.5486
0
VERTEX
8
CUT
10
239.4429
20
142.3780
0
VERTEX
8
CUT
10
239.4692
20
142.3253
0
VERTEX
8
CUT
10
239.5605
20
142.1630
0
VERTEX
8
CUT
10
239.5919
20
142.1131
0
VERTEX
8
CUT
10
239.6986
20
141.9604
0
VERTEX
8
CUT
10
239.7347
20
141.9139
0
VERTEX
8
CUT
10
239.8560
20
141.7725
0
VERTEX
8
CUT
10
239.8965
20
141.7297
0
VERTEX
8
CUT
10
240.0310
20
141.6008
0
VERTEX
8
CUT
10
240.0755
20
141.5622
0
VERTEX
8
CUT
10
240.2220
20
141.4472
0
VERTEX
8
CUT
10
240.2701
20
141.4131
0
VERTEX
8
CUT
10
240.4272
20
141.3130
0
VERTEX
8
CUT
10
240.4783
20
141.2838
0
VERTEX
8
CUT
10
240.6445
20
141.1996
0
VERTEX
8
CUT
10
240.6983
20
141.1756
0
VERTEX
8
CUT
10
240.8719
20
141.1081
0
VERTEX
8
CUT
10
240.9278
20
141.0894
0
VERTEX
8
CUT
10
241.1072
20
141.0393
0
VERTEX
8
CUT
10
241.1646
20
141.0262
0
VERTEX
8
CUT
10
241.3481
20
140.9939
0
VERTEX
8
CUT
10
241.4065
20
140.9865
0
VERTEX
8
CUT
10
241.5923
20
140.9724
0
VERTEX
8
CUT
10
241.6512
20
140.9708
0
VERTEX
8
CUT
10
241.8374
20
140.9749
0
VERTEX
8
CUT
10
241.8962
20
140.9791
0
VERTEX
8
CUT
10
242.0811
20
141.0014
0
VERTEX
8
CUT
10
242.1392
20
141.0114
0
VERTEX
8
CUT
10
242.3210
20
141.0517
0
VERTEX
8
CUT
10
242.3778
20
141.0673
0
VERTEX
8
CUT
10
242.5548
20
141.1253
0
VERTEX
8
CUT
10
242.6098
20
141.1464
0
VERTEX
8
CUT
10
242.7803
20
141.2215
0
VERTEX
8
CUT
10
242.8330
20
141.2479
0
VERTEX
8
CUT
10
242.9975
20
141.3406
0
VERTEX
8
CUT
10
243.0228
20
141.3557
0
VERTEX
8
CUT
10
243.0715
20
141.3864
0
VERTEX
8
CUT
10
243.0839
20
141.3944
0
VERTEX
8
CUT
10
243.1636
20
141.4474
0
VERTEX
8
CUT
10
243.1758
20
141.4558
0
VERTEX
8
CUT
10
246.6386
20
143.8837
0
VERTEX
8
CUT
10
246.6443
20
143.8877
0
VERTEX
8
CUT
10
246.6575
20
143.8968
0
VERTEX
8
CUT
10
246.6600
20
143.8985
0
VERTEX
8
CUT
10
246.6860
20
143.9156
0
VERTEX
8
CUT
10
246.7388
20
143.9492
0
VERTEX
8
CUT
10
246.7570
20
143.9604
0
VERTEX
8
CUT
10
246.7829
20
143.9751
0
VERTEX
8
CUT
10
246.8523
20
144.0129
0
VERTEX
8
CUT
10
246.8824
20
144.0285
0
VERTEX
8
CUT
10
250.6598
20
145.9037
0
VERTEX
8
CUT
10
250.6681
20
145.9078
0
VERTEX
8
CUT
10
250.6874
20
145.9171
0
VERTEX
8
CUT
10
250.6957
20
145.9211
0
VERTEX
8
CUT
10
250.7057
20
145.9258
0
VERTEX
8
CUT
10
250.7139
20
145.9296
0
VERTEX
8
CUT
10
250.7333
20
145.9385
0
VERTEX
8
CUT
10
250.7416
20
145.9423
0
VERTEX
8
CUT
10
250.7512
20
145.9466
0
VERTEX
8
CUT
10
250.7596
20
145.9502
0
VERTEX
8
CUT
10
250.7792
20
145.9587
0
VERTEX
8
CUT
10
250.7876
20
145.9623
0
VERTEX
8
CUT
10
250.7979
20
145.9667
0
VERTEX
8
CUT
10
250.8063
20
145.9702
0
VERTEX
8
CUT
10
250.8260
20
145.9783
0
VERTEX
8
CUT
10
250.8345
20
145.9817
0
VERTEX
8
CUT
10
259.9234
20
149.6060
0
VERTEX
8
CUT
10
259.9336
20
149.6102
0
VERTEX
8
CUT
10
260.0046
20
149.6401
0
VERTEX
8
CUT
10
260.0151
20
149.6446
0
VERTEX
8
CUT
10
260.0613
20
149.6651
0
VERTEX
8
CUT
10
260.0834
20
149.6754
0
VERTEX
8
CUT
10
260.2194
20
149.7424
0
VERTEX
8
CUT
10
260.2402
20
149.7531
0
VERTEX
8
CUT
10
260.2759
20
149.7724
0
VERTEX
8
CUT
10
260.2856
20
149.7778
0
VERTEX
8
CUT
10
260.3518
20
149.8153
0
VERTEX
8
CUT
10
260.3625
20
149.8215
0
VERTEX
8
CUT
10
263.4607
20
151.6598
0
VERTEX
8
CUT
10
263.4791
20
151.6712
0
VERTEX
8
CUT
10
263.5973
20
151.7472
0
VERTEX
8
CUT
10
263.6152
20
151.7592
0
VERTEX
8
CUT
10
263.7599
20
151.8598
0
VERTEX
8
CUT
10
263.7774
20
151.8725
0
VERTEX
8
CUT
10
263.8898
20
151.9568
0
VERTEX
8
CUT
10
263.9069
20
151.9701
0
VERTEX
8
CUT
10
266.4843
20
154.0531
0
VERTEX
8
CUT
10
266.5001
20
154.0663
0
VERTEX
8
CUT
10
266.6015
20
154.1542
0
VERTEX
8
CUT
10
266.6168
20
154.1680
0
VERTEX
8
CUT
10
266.7401
20
154.2825
0
VERTEX
8
CUT
10
266.7550
20
154.2968
0
VERTEX
8
CUT
10
266.8500
20
154.3914
0
VERTEX
8
CUT
10
266.8644
20
154.4062
0
VERTEX
8
CUT
10
269.0189
20
156.7027
0
VERTEX
8
CUT
10
269.0301
20
156.7150
0
VERTEX
8
CUT
10
269.1019
20
156.7959
0
VERTEX
8
CUT
10
269.1128
20
156.8085
0
VERTEX
8
CUT
10
269.2000
20
156.9125
0
VERTEX
8
CUT
10
269.2106
20
156.9254
0
VERTEX
8
CUT
10
269.2778
20
157.0102
0
VERTEX
8
CUT
10
269.2879
20
157.0234
0
VERTEX
8
CUT
10
270.0005
20
157.9754
0
VERTEX
8
CUT
10
270.0080
20
157.9857
0
VERTEX
8
CUT
10
270.0564
20
158.0534
0
VERTEX
8
CUT
10
270.0638
20
158.0639
0
VERTEX
8
CUT
10
270.0920
20
158.1052
0
VERTEX
8
CUT
10
270.1060
20
158.1266
0
VERTEX
8
CUT
10
270.1940
20
158.2677
0
VERTEX
8
CUT
10
270.2070
20
158.2898
0
VERTEX
8
CUT
10
270.2316
20
158.3333
0
VERTEX
8
CUT
10
270.2378
20
158.3445
0
VERTEX
8
CUT
10
270.2772
20
158.4178
0
VERTEX
8
CUT
10
270.2831
20
158.4291
0
VERTEX
8
CUT
10
271.3676
20
160.5544
0
VERTEX
8
CUT
10
271.3740
20
160.5673
0
VERTEX
8
CUT
10
271.4146
20
160.6517
0
VERTEX
8
CUT
10
271.4207
20
160.6647
0
VERTEX
8
CUT
10
271.4438
20
160.7160
0
VERTEX
8
CUT
10
271.4550
20
160.7426
0
VERTEX
8
CUT
10
271.5237
20
160.9167
0
VERTEX
8
CUT
10
271.5337
20
160.9438
0
VERTEX
8
CUT
10
271.5518
20
160.9971
0
VERTEX
8
CUT
10
271.5562
20
161.0107
0
VERTEX
8
CUT
10
271.5842
20
161.1001
0
VERTEX
8
CUT
10
271.5884
20
161.1139
0
VERTEX
8
CUT
10
272.0029
20
162.5569
0
VERTEX
8
CUT
10
272.0067
20
162.5709
0
VERTEX
8
CUT
10
272.0305
20
162.6619
0
VERTEX
8
CUT
10
272.0340
20
162.6760
0
VERTEX
8
CUT
10
272.0470
20
162.7311
0
VERTEX
8
CUT
10
272.0529
20
162.7594
0
VERTEX
8
CUT
10
272.0868
20
162.9419
0
VERTEX
8
CUT
10
272.0945
20
162.9993
0
VERTEX
8
CUT
10
272.1104
20
163.1818
0
VERTEX
8
CUT
10
272.1126
20
163.2396
0
VERTEX
8
CUT
10
272.1108
20
163.4227
0
VERTEX
8
CUT
10
272.1074
20
163.4806
0
VERTEX
8
CUT
10
272.0879
20
163.6626
0
VERTEX
8
CUT
10
272.0790
20
163.7199
0
VERTEX
8
CUT
10
272.0420
20
163.8992
0
VERTEX
8
CUT
10
272.0276
20
163.9553
0
VERTEX
8
CUT
10
271.9736
20
164.1302
0
VERTEX
8
CUT
10
271.9538
20
164.1847
0
VERTEX
8
CUT
10
271.8832
20
164.3536
0
VERTEX
8
CUT
10
271.8583
20
164.4059
0
VERTEX
8
CUT
10
271.7716
20
164.5672
0
VERTEX
8
CUT
10
271.7418
20
164.6169
0
VERTEX
8
CUT
10
271.6400
20
164.7691
0
VERTEX
8
CUT
10
271.6055
20
164.8156
0
VERTEX
8
CUT
10
271.4895
20
164.9573
0
VERTEX
8
CUT
10
271.4507
20
165.0003
0
VERTEX
8
CUT
10
271.3216
20
165.1302
0
VERTEX
8
CUT
10
271.2789
20
165.1692
0
VERTEX
8
CUT
10
271.1378
20
165.2860
0
VERTEX
8
CUT
10
271.0915
20
165.3208
0
VERTEX
8
CUT
10
270.9399
20
165.4234
0
VERTEX
8
CUT
10
270.8904
20
165.4535
0
VERTEX
8
CUT
10
270.7296
20
165.5411
0
VERTEX
8
CUT
10
270.6774
20
165.5663
0
VERTEX
8
CUT
10
270.5089
20
165.6380
0
VERTEX
8
CUT
10
270.4546
20
165.6580
0
VERTEX
8
CUT
10
270.2800
20
165.7131
0
VERTEX
8
CUT
10
270.2239
20
165.7278
0
VERTEX
8
CUT
10
270.0448
20
165.7658
0
VERTEX
8
CUT
10
269.9876
20
165.7750
0
VERTEX
8
CUT
10
269.8057
20
165.7956
0
VERTEX
8
CUT
10
269.7479
20
165.7993
0
VERTEX
8
CUT
10
269.5648
20
165.8022
0
VERTEX
8
CUT
10
269.5069
20
165.8003
0
VERTEX
8
CUT
10
269.3244
20
165.7855
0
VERTEX
8
CUT
10
269.2670
20
165.7780
0
VERTEX
8
CUT
10
269.0867
20
165.7457
0
VERTEX
8
CUT
10
269.0303
20
165.7328
0
VERTEX
8
CUT
10
268.8540
20
165.6832
0
VERTEX
8
CUT
10
268.7991
20
165.6649
0
VERTEX
8
CUT
10
268.6260
20
165.5977
0
VERTEX
8
CUT
10
268.5993
20
165.5865
0
VERTEX
8
CUT
10
268.5476
20
165.5635
0
VERTEX
8
CUT
10
268.5344
20
165.5575
0
VERTEX
8
CUT
10
268.4494
20
165.5171
0
VERTEX
8
CUT
10
268.4364
20
165.5108
0
VERTEX
8
CUT
10
263.3861
20
162.9639
0
VERTEX
8
CUT
10
263.3796
20
162.9607
0
VERTEX
8
CUT
10
263.3643
20
162.9531
0
VERTEX
8
CUT
10
263.3615
20
162.9518
0
VERTEX
8
CUT
10
263.3316
20
162.9378
0
VERTEX
8
CUT
10
263.2712
20
162.9109
0
VERTEX
8
CUT
10
263.2503
20
162.9020
0
VERTEX
8
CUT
10
263.2209
20
162.8907
0
VERTEX
8
CUT
10
263.1424
20
162.8622
0
VERTEX
8
CUT
10
263.1085
20
162.8507
0
VERTEX
8
CUT
10
261.1757
20
162.2365
0
VERTEX
8
CUT
10
261.1666
20
162.2337
0
VERTEX
8
CUT
10
261.1525
20
162.2294
0
VERTEX
8
CUT
10
261.1294
20
162.2226
0
VERTEX
8
CUT
10
261.0987
20
162.2141
0
VERTEX
8
CUT
10
261.0712
20
162.2070
0
VERTEX
8
CUT
10
261.0491
20
162.2016
0
VERTEX
8
CUT
10
261.0364
20
162.1986
0
VERTEX
8
CUT
10
261.0317
20
162.1975
0
VERTEX
8
CUT
10
261.0043
20
162.1917
0
VERTEX
8
CUT
10
260.9430
20
162.1797
0
VERTEX
8
CUT
10
260.9061
20
162.1733
0
VERTEX
8
CUT
10
260.8936
20
162.1714
0
VERTEX
8
CUT
10
260.8843
20
162.1700
0
VERTEX
8
CUT
10
260.1227
20
162.0618
0
VERTEX
8
CUT
10
260.1081
20
162.0599
0
VERTEX
8
CUT
10
260.0740
20
162.0556
0
VERTEX
8
CUT
10
260.0593
20
162.0539
0
VERTEX
8
CUT
10
260.0415
20
162.0519
0
VERTEX
8
CUT
10
260.0268
20
162.0505
0
VERTEX
8
CUT
10
259.9925
20
162.0473
0
VERTEX
8
CUT
10
259.9778
20
162.0461
0
VERTEX
8
CUT
10
259.9610
20
162.0448
0
VERTEX
8
CUT
10
259.9463
20
162.0438
0
VERTEX
8
CUT
10
259.9119
20
162.0418
0
VERTEX
8
CUT
10
259.8972
20
162.0410
0
VERTEX
8
CUT
10
259.8792
20
162.0403
0
VERTEX
8
CUT
10
259.8645
20
162.0397
0
VERTEX
8
CUT
10
259.8301
20
162.0388
0
VERTEX
8
CUT
10
259.8154
20
162.0386
0
VERTEX
8
CUT
10
257.3248
20
162.0135
0
VERTEX
8
CUT
10
257.3157
20
162.0135
0
VERTEX
8
CUT
10
257.3015
20
162.0135
0
VERTEX
8
CUT
10
257.2780
20
162.0138
0
VERTEX
8
CUT
10
257.2465
20
162.0146
0
VERTEX
8
CUT
10
257.2186
20
162.0158
0
VERTEX
8
CUT
10
257.1965
20
162.0170
0
VERTEX
8
CUT
10
257.1838
20
162.0179
0
VERTEX
8
CUT
10
257.1791
20
162.0182
0
VERTEX
8
CUT
10
257.1518
20
162.0206
0
VERTEX
8
CUT
10
257.0910
20
162.0268
0
VERTEX
8
CUT
10
257.0547
20
162.0312
0
VERTEX
8
CUT
10
257.0424
20
162.0330
0
VERTEX
8
CUT
10
257.0334
20
162.0343
0
VERTEX
8
CUT
10
255.8895
20
162.2104
0
VERTEX
8
CUT
10
255.8770
20
162.2124
0
VERTEX
8
CUT
10
255.8602
20
162.2152
0
VERTEX
8
CUT
10
255.8106
20
162.2250
0
VERTEX
8
CUT
10
255.7526
20
162.2381
0
VERTEX
8
CUT
10
255.6682
20
162.2616
0
VERTEX
8
CUT
10
255.5877
20
162.2883
0
VERTEX
8
CUT
10
255.5051
20
162.3203
0
VERTEX
8
CUT
10
255.4492
20
162.3452
0
VERTEX
8
CUT
10
255.4029
20
162.3674
0
VERTEX
8
CUT
10
255.3880
20
162.3751
0
VERTEX
8
CUT
10
255.3768
20
162.3810
0
VERTEX
8
CUT
10
253.3467
20
163.4634
0
VERTEX
8
CUT
10
253.3109
20
163.4836
0
VERTEX
8
CUT
10
253.2461
20
163.5221
0
VERTEX
8
CUT
10
253.1774
20
163.5672
0
VERTEX
8
CUT
10
253.1330
20
163.5993
0
VERTEX
8
CUT
10
253.0687
20
163.6506
0
VERTEX
8
CUT
10
253.0275
20
163.6866
0
VERTEX
8
CUT
10
252.9681
20
163.7435
0
VERTEX
8
CUT
10
252.9162
20
163.7981
0
VERTEX
8
CUT
10
252.8885
20
163.8285
0
VERTEX
8
CUT
10
252.1301
20
164.7015
0
VERTEX
8
CUT
10
252.1234
20
164.7093
0
VERTEX
8
CUT
10
252.1130
20
164.7215
0
VERTEX
8
CUT
10
252.0961
20
164.7420
0
VERTEX
8
CUT
10
252.0739
20
164.7698
0
VERTEX
8
CUT
10
252.0546
20
164.7948
0
VERTEX
8
CUT
10
252.0520
20
164.7984
0
VERTEX
8
CUT
10
252.0202
20
164.8439
0
VERTEX
8
CUT
10
251.9789
20
164.9073
0
VERTEX
8
CUT
10
251.9421
20
164.9690
0
VERTEX
8
CUT
10
251.9179
20
165.0136
0
VERTEX
8
CUT
10
251.8987
20
165.0511
0
VERTEX
8
CUT
10
251.8927
20
165.0634
0
VERTEX
8
CUT
10
251.8883
20
165.0727
0
VERTEX
8
CUT
10
251.1842
20
166.5706
0
VERTEX
8
CUT
10
251.1802
20
166.5792
0
VERTEX
8
CUT
10
251.1741
20
166.5926
0
VERTEX
8
CUT
10
251.1643
20
166.6148
0
VERTEX
8
CUT
10
251.1515
20
166.6448
0
VERTEX
8
CUT
10
251.1407
20
166.6716
0
VERTEX
8
CUT
10
251.1392
20
166.6754
0
VERTEX
8
CUT
10
251.1222
20
166.7234
0
VERTEX
8
CUT
10
251.1008
20
166.7893
0
VERTEX
8
CUT
10
251.0828
20
166.8526
0
VERTEX
8
CUT
10
251.0718
20
166.8978
0
VERTEX
8
CUT
10
251.0634
20
166.9355
0
VERTEX
8
CUT
10
251.0609
20
166.9478
0
VERTEX
8
CUT
10
251.0591
20
166.9571
0
VERTEX
8
CUT
10
250.7806
20
168.4319
0
VERTEX
8
CUT
10
250.7789
20
168.4411
0
VERTEX
8
CUT
10
250.7764
20
168.4553
0
VERTEX
8
CUT
10
250.7725
20
168.4789
0
VERTEX
8
CUT
10
250.7677
20
168.5106
0
VERTEX
8
CUT
10
250.7639
20
168.5388
0
VERTEX
8
CUT
10
250.7613
20
168.5613
0
VERTEX
8
CUT
10
250.7598
20
168.5741
0
VERTEX
8
CUT
10
250.7593
20
168.5789
0
VERTEX
8
CUT
10
250.7569
20
168.6068
0
VERTEX
8
CUT
10
250.7524
20
168.6688
0
VERTEX
8
CUT
10
250.7504
20
168.7061
0
VERTEX
8
CUT
10
250.7500
20
168.7187
0
VERTEX
8
CUT
10
250.7498
20
168.7280
0
VERTEX
8
CUT
10
250.7295
20
169.6986
0
VERTEX
8
CUT
10
250.7294
20
169.7056
0
VERTEX
8
CUT
10
250.7292
20
169.7219
0
VERTEX
8
CUT
10
250.7292
20
169.7249
0
VERTEX
8
CUT
10
250.7294
20
169.7566
0
VERTEX
8
CUT
10
250.7310
20
169.8201
0
VERTEX
8
CUT
10
250.7319
20
169.8419
0
VERTEX
8
CUT
10
250.7342
20
169.8721
0
VERTEX
8
CUT
10
250.7417
20
169.9521
0
VERTEX
8
CUT
10
250.7456
20
169.9863
0
VERTEX
8
CUT
10
251.1776
20
173.2313
0
VERTEX
8
CUT
10
251.1792
20
173.2423
0
VERTEX
8
CUT
10
251.1817
20
173.2595
0
VERTEX
8
CUT
10
251.1862
20
173.2876
0
VERTEX
8
CUT
10
251.1928
20
173.3248
0
VERTEX
8
CUT
10
251.1994
20
173.3579
0
VERTEX
8
CUT
10
251.2051
20
173.3841
0
VERTEX
8
CUT
10
251.2085
20
173.3991
0
VERTEX
8
CUT
10
251.2097
20
173.4046
0
VERTEX
8
CUT
10
251.2179
20
173.4368
0
VERTEX
8
CUT
10
251.2375
20
173.5080
0
VERTEX
8
CUT
10
251.2502
20
173.5504
0
VERTEX
8
CUT
10
251.2549
20
173.5646
0
VERTEX
8
CUT
10
251.2584
20
173.5751
0
VERTEX
8
CUT
10
252.4240
20
176.9864
0
VERTEX
8
CUT
10
252.4271
20
176.9953
0
VERTEX
8
CUT
10
252.4319
20
177.0091
0
VERTEX
8
CUT
10
252.4403
20
177.0318
0
VERTEX
8
CUT
10
252.4519
20
177.0621
0
VERTEX
8
CUT
10
252.4627
20
177.0888
0
VERTEX
8
CUT
10
252.4716
20
177.1099
0
VERTEX
8
CUT
10
252.4767
20
177.1219
0
VERTEX
8
CUT
10
252.4787
20
177.1264
0
VERTEX
8
CUT
10
252.4904
20
177.1521
0
VERTEX
8
CUT
10
252.5175
20
177.2090
0
VERTEX
8
CUT
10
252.5345
20
177.2427
0
VERTEX
8
CUT
10
252.5404
20
177.2540
0
VERTEX
8
CUT
10
252.5449
20
177.2623
0
VERTEX
8
CUT
10
254.4138
20
180.7079
0
VERTEX
8
CUT
10
254.4211
20
180.7211
0
VERTEX
8
CUT
10
254.4384
20
180.7517
0
VERTEX
8
CUT
10
254.4460
20
180.7648
0
VERTEX
8
CUT
10
254.4553
20
180.7807
0
VERTEX
8
CUT
10
254.4630
20
180.7936
0
VERTEX
8
CUT
10
254.4813
20
180.8237
0
VERTEX
8
CUT
10
254.4893
20
180.8365
0
VERTEX
8
CUT
10
254.4985
20
180.8511
0
VERTEX
8
CUT
10
254.5067
20
180.8638
0
VERTEX
8
CUT
10
254.5260
20
180.8932
0
VERTEX
8
CUT
10
254.5344
20
180.9057
0
VERTEX
8
CUT
10
254.5447
20
180.9209
0
VERTEX
8
CUT
10
254.5533
20
180.9333
0
VERTEX
8
CUT
10
254.5736
20
180.9621
0
VERTEX
8
CUT
10
254.5824
20
180.9743
0
VERTEX
8
CUT
10
257.0328
20
184.3276
0
VERTEX
8
CUT
10
257.0404
20
184.3377
0
VERTEX
8
CUT
10
257.0582
20
184.3614
0
VERTEX
8
CUT
10
257.0659
20
184.3715
0
VERTEX
8
CUT
10
257.0754
20
184.3837
0
VERTEX
8
CUT
10
257.0832
20
184.3936
0
VERTEX
8
CUT
10
257.1016
20
184.4168
0
VERTEX
8
CUT
10
257.1096
20
184.4266
0
VERTEX
8
CUT
10
257.1188
20
184.4379
0
VERTEX
8
CUT
10
257.1270
20
184.4476
0
VERTEX
8
CUT
10
257.1461
20
184.4702
0
VERTEX
8
CUT
10
257.1543
20
184.4798
0
VERTEX
8
CUT
10
257.1644
20
184.4915
0
VERTEX
8
CUT
10
257.1728
20
184.5010
0
VERTEX
8
CUT
10
257.1925
20
184.5231
0
VERTEX
8
CUT
10
257.2011
20
184.5325
0
VERTEX
8
CUT
10
260.2546
20
187.8515
0
VERTEX
8
CUT
10
260.2633
20
187.8608
0
VERTEX
8
CUT
10
260.2838
20
187.8825
0
VERTEX
8
CUT
10
260.2927
20
187.8917
0
VERTEX
8
CUT
10
260.3035
20
187.9029
0
VERTEX
8
CUT
10
260.3125
20
187.9119
0
VERTEX
8
CUT
10
260.3336
20
187.9330
0
VERTEX
8
CUT
10
260.3427
20
187.9419
0
VERTEX
8
CUT
10
260.3532
20
187.9522
0
VERTEX
8
CUT
10
260.3625
20
187.9610
0
VERTEX
8
CUT
10
260.3841
20
187.9814
0
VERTEX
8
CUT
10
260.3935
20
187.9901
0
VERTEX
8
CUT
10
260.4050
20
188.0007
0
VERTEX
8
CUT
10
260.4145
20
188.0092
0
VERTEX
8
CUT
10
260.4367
20
188.0290
0
VERTEX
8
CUT
10
260.4463
20
188.0375
0
VERTEX
8
CUT
10
263.9496
20
191.0701
0
VERTEX
8
CUT
10
263.9588
20
191.0780
0
VERTEX
8
CUT
10
263.9805
20
191.0963
0
VERTEX
8
CUT
10
263.9899
20
191.1041
0
VERTEX
8
CUT
10
264.0014
20
191.1135
0
VERTEX
8
CUT
10
264.0109
20
191.1212
0
VERTEX
8
CUT
10
264.0331
20
191.1389
0
VERTEX
8
CUT
10
264.0427
20
191.1464
0
VERTEX
8
CUT
10
264.0537
20
191.1550
0
VERTEX
8
CUT
10
264.0634
20
191.1624
0
VERTEX
8
CUT
10
264.0861
20
191.1795
0
VERTEX
8
CUT
10
264.0959
20
191.1868
0
VERTEX
8
CUT
10
264.1078
20
191.1955
0
VERTEX
8
CUT
10
264.1177
20
191.2027
0
VERTEX
8
CUT
10
264.1409
20
191.2191
0
VERTEX
8
CUT
10
264.1508
20
191.2261
0
VERTEX
8
CUT
10
268.0926
20
193.9536
0
VERTEX
8
CUT
10
268.1024
20
193.9603
0
VERTEX
8
CUT
10
268.1253
20
193.9757
0
VERTEX
8
CUT
10
268.1352
20
193.9823
0
VERTEX
8
CUT
10
268.1473
20
193.9902
0
VERTEX
8
CUT
10
268.1572
20
193.9966
0
VERTEX
8
CUT
10
268.1805
20
194.0114
0
VERTEX
8
CUT
10
268.1906
20
194.0177
0
VERTEX
8
CUT
10
268.2022
20
194.0248
0
VERTEX
8
CUT
10
268.2123
20
194.0310
0
VERTEX
8
CUT
10
268.2360
20
194.0451
0
VERTEX
8
CUT
10
268.2462
20
194.0512
0
VERTEX
8
CUT
10
268.2587
20
194.0584
0
VERTEX
8
CUT
10
268.2689
20
194.0643
0
VERTEX
8
CUT
10
268.2930
20
194.0778
0
VERTEX
8
CUT
10
268.3033
20
194.0836
0
VERTEX
8
CUT
10
272.7037
20
196.4880
0
VERTEX
8
CUT
10
272.7153
20
196.4943
0
VERTEX
8
CUT
10
272.7273
20
196.5007
0
VERTEX
8
CUT
10
272.7314
20
196.5029
0
VERTEX
8
CUT
10
272.7413
20
196.5081
0
VERTEX
8
CUT
10
272.7455
20
196.5103
0
VERTEX
8
CUT
10
272.7504
20
196.5129
0
VERTEX
8
CUT
10
272.7547
20
196.5151
0
VERTEX
8
CUT
10
272.7646
20
196.5202
0
VERTEX
8
CUT
10
272.7683
20
196.5221
0
VERTEX
8
CUT
10
272.7764
20
196.5262
0
VERTEX
8
CUT
10
272.7880
20
196.5320
0
VERTEX
8
CUT
10
272.7931
20
196.5345
0
VERTEX
8
CUT
10
285.2356
20
202.6603
0
VERTEX
8
CUT
10
285.2433
20
202.6641
0
VERTEX
8
CUT
10
285.2966
20
202.6913
0
VERTEX
8
CUT
10
285.3048
20
202.6956
0
VERTEX
8
CUT
10
285.3708
20
202.7306
0
VERTEX
8
CUT
10
285.3788
20
202.7349
0
VERTEX
8
CUT
10
285.4305
20
202.7633
0
VERTEX
8
CUT
10
285.4390
20
202.7680
0
VERTEX
8
CUT
10
289.9166
20
205.3226
0
VERTEX
8
CUT
10
289.9263
20
205.3280
0
VERTEX
8
CUT
10
289.9395
20
205.3353
0
VERTEX
8
CUT
10
289.9791
20
205.3560
0
VERTEX
8
CUT
10
290.0263
20
205.3792
0
VERTEX
8
CUT
10
290.0969
20
205.4102
0
VERTEX
8
CUT
10
290.1815
20
205.4431
0
VERTEX
8
CUT
10
290.2245
20
205.4585
0
VERTEX
8
CUT
10
290.2328
20
205.4613
0
VERTEX
8
CUT
10
290.2465
20
205.4660
0
VERTEX
8
CUT
10
290.3347
20
205.4976
0
VERTEX
8
CUT
10
290.3482
20
205.5026
0
VERTEX
8
CUT
10
290.4008
20
205.5229
0
VERTEX
8
CUT
10
290.4275
20
205.5340
0
VERTEX
8
CUT
10
290.5966
20
205.6087
0
VERTEX
8
CUT
10
290.6482
20
205.6346
0
VERTEX
8
CUT
10
290.8072
20
205.7240
0
VERTEX
8
CUT
10
290.8561
20
205.7547
0
VERTEX
8
CUT
10
291.0058
20
205.8590
0
VERTEX
8
CUT
10
291.0515
20
205.8943
0
VERTEX
8
CUT
10
291.1905
20
206.0125
0
VERTEX
8
CUT
10
291.2326
20
206.0519
0
VERTEX
8
CUT
10
291.3595
20
206.1830
0
VERTEX
8
CUT
10
291.3977
20
206.2263
0
VERTEX
8
CUT
10
291.5115
20
206.3689
0
VERTEX
8
CUT
10
291.5452
20
206.4157
0
VERTEX
8
CUT
10
291.6448
20
206.5686
0
VERTEX
8
CUT
10
291.6739
20
206.6184
0
VERTEX
8
CUT
10
291.7584
20
206.7801
0
VERTEX
8
CUT
10
291.7826
20
206.8325
0
VERTEX
8
CUT
10
291.8511
20
207.0016
0
VERTEX
8
CUT
10
291.8701
20
207.0560
0
VERTEX
8
CUT
10
291.9221
20
207.2309
0
VERTEX
8
CUT
10
291.9358
20
207.2870
0
VERTEX
8
CUT
10
291.9707
20
207.4661
0
VERTEX
8
CUT
10
291.9790
20
207.5232
0
VERTEX
8
CUT
10
291.9968
20
207.7073
0
VERTEX
8
CUT
10
291.9989
20
207.7361
0
VERTEX
8
CUT
10
292.0016
20
207.7924
0
VERTEX
8
CUT
10
292.0021
20
207.8068
0
VERTEX
8
CUT
10
292.0043
20
207.9006
0
VERTEX
8
CUT
10
292.0045
20
207.9150
0
VERTEX
8
CUT
10
292.0045
20
246.1925
0
VERTEX
8
CUT
10
292.0043
20
246.2074
0
VERTEX
8
CUT
10
292.0019
20
246.3043
0
VERTEX
8
CUT
10
292.0014
20
246.3192
0
VERTEX
8
CUT
10
291.9985
20
246.3773
0
VERTEX
8
CUT
10
291.9963
20
246.4071
0
VERTEX
8
CUT
10
291.9773
20
246.5972
0
VERTEX
8
CUT
10
291.9684
20
246.6562
0
VERTEX
8
CUT
10
291.9312
20
246.8409
0
VERTEX
8
CUT
10
291.9166
20
246.8987
0
VERTEX
8
CUT
10
291.8612
20
247.0788
0
VERTEX
8
CUT
10
291.8409
20
247.1349
0
VERTEX
8
CUT
10
291.7679
20
247.3087
0
VERTEX
8
CUT
10
291.7421
20
247.3624
0
VERTEX
8
CUT
10
291.6522
20
247.5281
0
VERTEX
8
CUT
10
291.6212
20
247.5790
0
VERTEX
8
CUT
10
291.5154
20
247.7349
0
VERTEX
8
CUT
10
291.4795
20
247.7825
0
VERTEX
8
CUT
10
291.3587
20
247.9272
0
VERTEX
8
CUT
10
291.3182
20
247.9710
0
VERTEX
8
CUT
10
291.1836
20
248.1029
0
VERTEX
8
CUT
10
291.1391
20
248.1425
0
VERTEX
8
CUT
10
290.9921
20
248.2605
0
VERTEX
8
CUT
10
290.9438
20
248.2954
0
VERTEX
8
CUT
10
290.7858
20
248.3982
0
VERTEX
8
CUT
10
290.7342
20
248.4282
0
VERTEX
8
CUT
10
290.5668
20
248.5148
0
VERTEX
8
CUT
10
290.5126
20
248.5395
0
VERTEX
8
CUT
10
290.3374
20
248.6090
0
VERTEX
8
CUT
10
290.2810
20
248.6283
0
VERTEX
8
CUT
10
290.0998
20
248.6801
0
VERTEX
8
CUT
10
290.0417
20
248.6936
0
VERTEX
8
CUT
10
289.8563
20
248.7272
0
VERTEX
8
CUT
10
289.7972
20
248.7349
0
VERTEX
8
CUT
10
289.6093
20
248.7499
0
VERTEX
8
CUT
10
289.5497
20
248.7517
0
VERTEX
8
CUT
10
289.3613
20
248.7480
0
VERTEX
8
CUT
10
289.3018
20
248.7439
0
VERTEX
8
CUT
10
289.1146
20
248.7215
0
VERTEX
8
CUT
10
289.0559
20
248.7114
0
VERTEX
8
CUT
10
288.8719
20
248.6706
0
VERTEX
8
CUT
10
288.8144
20
248.6548
0
VERTEX
8
CUT
10
288.6354
20
248.5959
0
VERTEX
8
CUT
10
288.5797
20
248.5745
0
VERTEX
8
CUT
10
288.4074
20
248.4981
0
VERTEX
8
CUT
10
288.3542
20
248.4713
0
VERTEX
8
CUT
10
288.1903
20
248.3782
0
VERTEX
8
CUT
10
288.1400
20
248.3462
0
VERTEX
8
CUT
10
287.9862
20
248.2373
0
VERTEX
8
CUT
10
287.9393
20
248.2004
0
VERTEX
8
CUT
10
287.7971
20
248.0768
0
VERTEX
8
CUT
10
287.7541
20
248.0355
0
VERTEX
8
CUT
10
287.6230
20
247.8965
0
VERTEX
8
CUT
10
287.6031
20
247.8743
0
VERTEX
8
CUT
10
287.5653
20
247.8300
0
VERTEX
8
CUT
10
287.5558
20
247.8185
0
VERTEX
8
CUT
10
287.4948
20
247.7432
0
VERTEX
8
CUT
10
287.4855
20
247.7315
0
VERTEX
8
CUT
10
284.8112
20
244.2608
0
VERTEX
8
CUT
10
284.8057
20
244.2535
0
VERTEX
8
CUT
10
284.7678
20
244.2027
0
VERTEX
8
CUT
10
284.7620
20
244.1948
0
VERTEX
8
CUT
10
284.7157
20
244.1307
0
VERTEX
8
CUT
10
284.7102
20
244.1229
0
VERTEX
8
CUT
10
284.6744
20
244.0716
0
VERTEX
8
CUT
10
284.6687
20
244.0632
0
VERTEX
8
CUT
10
282.7409
20
241.1962
0
VERTEX
8
CUT
10
282.7324
20
241.1833
0
VERTEX
8
CUT
10
282.6786
20
241.0986
0
VERTEX
8
CUT
10
282.6705
20
241.0854
0
VERTEX
8
CUT
10
282.6056
20
240.9773
0
VERTEX
8
CUT
10
282.5978
20
240.9640
0
VERTEX
8
CUT
10
282.5484
20
240.8766
0
VERTEX
8
CUT
10
282.5410
20
240.8630
0
VERTEX
8
CUT
10
280.4596
20
236.9510
0
VERTEX
8
CUT
10
280.4513
20
236.9348
0
VERTEX
8
CUT
10
280.3991
20
236.8290
0
VERTEX
8
CUT
10
280.3913
20
236.8126
0
VERTEX
8
CUT
10
280.3297
20
236.6778
0
VERTEX
8
CUT
10
280.3224
20
236.6612
0
VERTEX
8
CUT
10
280.2767
20
236.5523
0
VERTEX
8
CUT
10
280.2699
20
236.5355
0
VERTEX
8
CUT
10
279.5687
20
234.7161
0
VERTEX
8
CUT
10
279.5654
20
234.7075
0
VERTEX
8
CUT
10
279.5602
20
234.6944
0
VERTEX
8
CUT
10
279.5513
20
234.6727
0
VERTEX
8
CUT
10
279.5389
20
234.6439
0
VERTEX
8
CUT
10
279.5276
20
234.6184
0
VERTEX
8
CUT
10
279.5183
20
234.5984
0
VERTEX
8
CUT
10
279.5129
20
234.5869
0
VERTEX
8
CUT
10
279.5108
20
234.5827
0
VERTEX
8
CUT
10
279.4985
20
234.5582
0
VERTEX
8
CUT
10
279.4704
20
234.5041
0
VERTEX
8
CUT
10
279.4530
20
234.4721
0
VERTEX
8
CUT
10
279.4468
20
234.4614
0
VERTEX
8
CUT
10
279.4422
20
234.4535
0
VERTEX
8
CUT
10
278.8981
20
233.5251
0
VERTEX
8
CUT
10
278.8881
20
233.5073
0
VERTEX
8
CUT
10
278.8250
20
233.3908
0
VERTEX
8
CUT
10
278.8156
20
233.3727
0
VERTEX
8
CUT
10
278.7415
20
233.2239
0
VERTEX
8
CUT
10
278.7327
20
233.2055
0
VERTEX
8
CUT
10
278.6777
20
233.0850
0
VERTEX
8
CUT
10
278.6696
20
233.0663
0
VERTEX
8
CUT
10
274.6138
20
223.3160
0
VERTEX
8
CUT
10
274.6121
20
223.3118
0
VERTEX
8
CUT
10
274.6079
20
223.3018
0
VERTEX
8
CUT
10
274.6061
20
223.2976
0
VERTEX
8
CUT
10
274.6017
20
223.2874
0
VERTEX
8
CUT
10
274.5995
20
223.2822
0
VERTEX
8
CUT
10
274.5942
20
223.2700
0
VERTEX
8
CUT
10
274.5919
20
223.2648
0
VERTEX
8
CUT
10
274.5892
20
223.2588
0
VERTEX
8
CUT
10
274.5869
20
223.2536
0
VERTEX
8
CUT
10
274.5814
20
223.2415
0
VERTEX
8
CUT
10
274.5794
20
223.2370
0
VERTEX
8
CUT
10
274.5749
20
223.2272
0
VERTEX
8
CUT
10
274.5684
20
223.2134
0
VERTEX
8
CUT
10
274.5655
20
223.2073
0
VERTEX
8
CUT
10
272.9383
20
219.7926
0
VERTEX
8
CUT
10
272.9354
20
219.7867
0
VERTEX
8
CUT
10
272.9288
20
219.7730
0
VERTEX
8
CUT
10
272.9259
20
219.7671
0
VERTEX
8
CUT
10
272.9190
20
219.7531
0
VERTEX
8
CUT
10
272.9154
20
219.7459
0
VERTEX
8
CUT
10
272.9069
20
219.7292
0
VERTEX
8
CUT
10
272.9033
20
219.7220
0
VERTEX
8
CUT
10
272.8990
20
219.7138
0
VERTEX
8
CUT
10
272.8953
20
219.7067
0
VERTEX
8
CUT
10
272.8865
20
219.6900
0
VERTEX
8
CUT
10
272.8827
20
219.6829
0
VERTEX
8
CUT
10
272.8808
20
219.6793
0
VERTEX
8
CUT
10
272.8762
20
219.6710
0
VERTEX
8
CUT
10
272.8654
20
219.6515
0
VERTEX
8
CUT
10
272.8607
20
219.6432
0
VERTEX
8
CUT
10
270.6040
20
215.6668
0
VERTEX
8
CUT
10
270.5993
20
215.6586
0
VERTEX
8
CUT
10
270.5882
20
215.6395
0
VERTEX
8
CUT
10
270.5833
20
215.6313
0
VERTEX
8
CUT
10
270.5775
20
215.6215
0
VERTEX
8
CUT
10
270.5726
20
215.6134
0
VERTEX
8
CUT
10
270.5612
20
215.5946
0
VERTEX
8
CUT
10
270.5562
20
215.5866
0
VERTEX
8
CUT
10
270.5505
20
215.5774
0
VERTEX
8
CUT
10
270.5454
20
215.5694
0
VERTEX
8
CUT
10
270.5335
20
215.5508
0
VERTEX
8
CUT
10
270.5284
20
215.5429
0
VERTEX
8
CUT
10
270.5221
20
215.5333
0
VERTEX
8
CUT
10
270.5169
20
215.5254
0
VERTEX
8
CUT
10
270.5046
20
215.5071
0
VERTEX
8
CUT
10
270.4994
20
215.4992
0
VERTEX
8
CUT
10
266.6602
20
209.8899
0
VERTEX
8
CUT
10
266.6523
20
209.8786
0
VERTEX
8
CUT
10
266.6338
20
209.8523
0
VERTEX
8
CUT
10
266.6257
20
209.8411
0
VERTEX
8
CUT
10
266.6158
20
209.8275
0
VERTEX
8
CUT
10
266.6076
20
209.8165
0
VERTEX
8
CUT
10
266.5882
20
209.7908
0
VERTEX
8
CUT
10
266.5799
20
209.7799
0
VERTEX
8
CUT
10
266.5701
20
209.7674
0
VERTEX
8
CUT
10
266.5616
20
209.7566
0
VERTEX
8
CUT
10
266.5414
20
209.7315
0
VERTEX
8
CUT
10
266.5327
20
209.7208
0
VERTEX
8
CUT
10
266.5220
20
209.7079
0
VERTEX
8
CUT
10
266.5131
20
209.6973
0
VERTEX
8
CUT
10
266.4922
20
209.6729
0
VERTEX
8
CUT
10
266.4832
20
209.6625
0
VERTEX
8
CUT
10
263.3313
20
206.0884
0
VERTEX
8
CUT
10
263.3245
20
206.0808
0
VERTEX
8
CUT
10
263.3086
20
206.0632
0
VERTEX
8
CUT
10
263.3018
20
206.0556
0
VERTEX
8
CUT
10
263.2933
20
206.0465
0
VERTEX
8
CUT
10
263.2864
20
206.0391
0
VERTEX
8
CUT
10
263.2701
20
206.0218
0
VERTEX
8
CUT
10
263.2631
20
206.0145
0
VERTEX
8
CUT
10
263.2550
20
206.0061
0
VERTEX
8
CUT
10
263.2478
20
205.9988
0
VERTEX
8
CUT
10
263.2312
20
205.9819
0
VERTEX
8
CUT
10
263.2240
20
205.9747
0
VERTEX
8
CUT
10
263.2152
20
205.9660
0
VERTEX
8
CUT
10
263.2079
20
205.9589
0
VERTEX
8
CUT
10
263.1908
20
205.9424
0
VERTEX
8
CUT
10
263.1835
20
205.9353
0
VERTEX
8
CUT
10
260.7284
20
203.6126
0
VERTEX
8
CUT
10
260.7247
20
203.6091
0
VERTEX
8
CUT
10
260.7160
20
203.6010
0
VERTEX
8
CUT
10
260.7123
20
203.5975
0
VERTEX
8
CUT
10
260.7033
20
203.5892
0
VERTEX
8
CUT
10
260.6986
20
203.5849
0
VERTEX
8
CUT
10
260.6878
20
203.5751
0
VERTEX
8
CUT
10
260.6832
20
203.5709
0
VERTEX
8
CUT
10
260.6778
20
203.5660
0
VERTEX
8
CUT
10
260.6731
20
203.5618
0
VERTEX
8
CUT
10
260.6621
20
203.5521
0
VERTEX
8
CUT
10
260.6580
20
203.5484
0
VERTEX
8
CUT
10
260.6490
20
203.5407
0
VERTEX
8
CUT
10
260.6362
20
203.5296
0
VERTEX
8
CUT
10
260.6305
20
203.5248
0
VERTEX
8
CUT
10
256.9896
20
200.4466
0
VERTEX
8
CUT
10
256.9804
20
200.4390
0
VERTEX
8
CUT
10
256.9588
20
200.4212
0
VERTEX
8
CUT
10
256.9495
20
200.4136
0
VERTEX
8
CUT
10
256.9382
20
200.4045
0
VERTEX
8
CUT
10
256.9288
20
200.3971
0
VERTEX
8
CUT
10
256.9068
20
200.3800
0
VERTEX
8
CUT
10
256.8973
20
200.3727
0
VERTEX
8
CUT
10
256.8863
20
200.3644
0
VERTEX
8
CUT
10
256.8768
20
200.3572
0
VERTEX
8
CUT
10
256.8543
20
200.3407
0
VERTEX
8
CUT
10
256.8446
20
200.3336
0
VERTEX
8
CUT
10
256.8328
20
200.3251
0
VERTEX
8
CUT
10
256.8230
20
200.3182
0
VERTEX
8
CUT
10
256.8001
20
200.3022
0
VERTEX
8
CUT
10
256.7902
20
200.2955
0
VERTEX
8
CUT
10
250.1501
20
195.7967
0
VERTEX
8
CUT
10
250.1459
20
195.7938
0
VERTEX
8
CUT
10
250.1360
20
195.7872
0
VERTEX
8
CUT
10
250.1317
20
195.7844
0
VERTEX
8
CUT
10
250.1215
20
195.7776
0
VERTEX
8
CUT
10
250.1163
20
195.7742
0
VERTEX
8
CUT
10
250.1040
20
195.7662
0
VERTEX
8
CUT
10
250.0987
20
195.7628
0
VERTEX
8
CUT
10
250.0926
20
195.7589
0
VERTEX
8
CUT
10
250.0873
20
195.7555
0
VERTEX
8
CUT
10
250.0749
20
195.7476
0
VERTEX
8
CUT
10
250.0702
20
195.7447
0
VERTEX
8
CUT
10
250.0601
20
195.7385
0
VERTEX
8
CUT
10
250.0457
20
195.7297
0
VERTEX
8
CUT
10
250.0393
20
195.7258
0
VERTEX
8
CUT
10
240.0433
20
189.7393
0
VERTEX
8
CUT
10
240.0306
20
189.7315
0
VERTEX
8
CUT
10
239.9491
20
189.6799
0
VERTEX
8
CUT
10
239.9366
20
189.6718
0
VERTEX
8
CUT
10
239.8358
20
189.6045
0
VERTEX
8
CUT
10
239.8236
20
189.5961
0
VERTEX
8
CUT
10
239.7447
20
189.5405
0
VERTEX
8
CUT
10
239.7326
20
189.5318
0
VERTEX
8
CUT
10
237.2454
20
187.6852
0
VERTEX
8
CUT
10
237.2346
20
187.6770
0
VERTEX
8
CUT
10
237.1648
20
187.6227
0
VERTEX
8
CUT
10
237.1541
20
187.6142
0
VERTEX
8
CUT
10
237.0681
20
187.5441
0
VERTEX
8
CUT
10
237.0577
20
187.5353
0
VERTEX
8
CUT
10
236.9904
20
187.4779
0
VERTEX
8
CUT
10
236.9802
20
187.4690
0
VERTEX
8
CUT
10
235.7488
20
186.3685
0
VERTEX
8
CUT
10
235.7398
20
186.3603
0
VERTEX
8
CUT
10
235.6823
20
186.3068
0
VERTEX
8
CUT
10
235.6735
20
186.2984
0
VERTEX
8
CUT
10
235.6395
20
186.2655
0
VERTEX
8
CUT
10
235.6225
20
186.2483
0
VERTEX
8
CUT
10
235.5141
20
186.1345
0
VERTEX
8
CUT
10
235.4978
20
186.1166
0
VERTEX
8
CUT
10
235.4666
20
186.0811
0
VERTEX
8
CUT
10
235.4587
20
186.0719
0
VERTEX
8
CUT
10
235.4080
20
186.0118
0
VERTEX
8
CUT
10
235.4003
20
186.0024
0
VERTEX
8
CUT
10
233.8960
20
184.1428
0
VERTEX
8
CUT
10
233.8880
20
184.1327
0
VERTEX
8
CUT
10
233.8367
20
184.0663
0
VERTEX
8
CUT
10
233.8289
20
184.0561
0
VERTEX
8
CUT
10
233.7989
20
184.0155
0
VERTEX
8
CUT
10
233.7840
20
183.9944
0
VERTEX
8
CUT
10
233.6901
20
183.8554
0
VERTEX
8
CUT
10
233.6761
20
183.8337
0
VERTEX
8
CUT
10
233.6497
20
183.7907
0
VERTEX
8
CUT
10
233.6430
20
183.7797
0
VERTEX
8
CUT
10
233.6006
20
183.7072
0
VERTEX
8
CUT
10
233.5942
20
183.6960
0
VERTEX
8
CUT
10
232.8212
20
182.3076
0
VERTEX
8
CUT
10
232.8142
20
182.2945
0
VERTEX
8
CUT
10
232.7692
20
182.2087
0
VERTEX
8
CUT
10
232.7624
20
182.1954
0
VERTEX
8
CUT
10
232.7367
20
182.1433
0
VERTEX
8
CUT
10
232.7241
20
182.1162
0
VERTEX
8
CUT
10
232.6482
20
181.9410
0
VERTEX
8
CUT
10
232.6273
20
181.8852
0
VERTEX
8
CUT
10
232.5692
20
181.7033
0
VERTEX
8
CUT
10
232.5608
20
181.6746
0
VERTEX
8
CUT
10
232.5459
20
181.6184
0
VERTEX
8
CUT
10
232.5422
20
181.6040
0
VERTEX
8
CUT
10
232.5197
20
181.5098
0
VERTEX
8
CUT
10
232.5164
20
181.4952
0
VERTEX
8
CUT
10
232.4378
20
181.1263
0
VERTEX
8
CUT
10
232.4348
20
181.1128
0
VERTEX
8
CUT
10
232.4307
20
181.0947
0
VERTEX
8
CUT
10
232.4167
20
181.0413
0
VERTEX
8
CUT
10
232.3907
20
180.9531
0
VERTEX
8
CUT
10
232.3783
20
180.9144
0
VERTEX
8
CUT
10
232.3642
20
180.8763
0
VERTEX
8
CUT
10
232.3302
20
180.7908
0
VERTEX
8
CUT
10
232.3082
20
180.7402
0
VERTEX
8
CUT
10
232.3003
20
180.7234
0
VERTEX
8
CUT
10
232.2943
20
180.7110
0
VERTEX
8
CUT
10
231.5501
20
179.1905
0
VERTEX
8
CUT
10
231.5448
20
179.1795
0
VERTEX
8
CUT
10
231.5115
20
179.1078
0
VERTEX
8
CUT
10
231.5065
20
179.0967
0
VERTEX
8
CUT
10
231.4873
20
179.0532
0
VERTEX
8
CUT
10
231.4780
20
179.0307
0
VERTEX
8
CUT
10
231.4202
20
178.8836
0
VERTEX
8
CUT
10
231.4118
20
178.8607
0
VERTEX
8
CUT
10
231.3962
20
178.8158
0
VERTEX
8
CUT
10
231.3923
20
178.8043
0
VERTEX
8
CUT
10
231.3680
20
178.7290
0
VERTEX
8
CUT
10
231.3643
20
178.7174
0
VERTEX
8
CUT
10
231.0268
20
177.5984
0
VERTEX
8
CUT
10
231.0227
20
177.5841
0
VERTEX
8
CUT
10
230.9971
20
177.4913
0
VERTEX
8
CUT
10
230.9934
20
177.4769
0
VERTEX
8
CUT
10
230.9794
20
177.4208
0
VERTEX
8
CUT
10
230.9730
20
177.3918
0
VERTEX
8
CUT
10
230.9358
20
177.2029
0
VERTEX
8
CUT
10
230.9308
20
177.1737
0
VERTEX
8
CUT
10
230.9225
20
177.1165
0
VERTEX
8
CUT
10
230.9205
20
177.1018
0
VERTEX
8
CUT
10
230.9090
20
177.0062
0
VERTEX
8
CUT
10
230.9074
20
176.9914
0
VERTEX
8
CUT
10
230.6629
20
174.4359
0
VERTEX
8
CUT
10
230.6617
20
174.4215
0
VERTEX
8
CUT
10
230.6550
20
174.3275
0
VERTEX
8
CUT
10
230.6541
20
174.3131
0
VERTEX
8
CUT
10
230.6515
20
174.2565
0
VERTEX
8
CUT
10
230.6508
20
174.2276
0
SEQEND
0
POLYLINE
8
CUT
66
1
70
1
10
0.0
20
0.0
30
0.0
0
VERTEX
8
CUT
10
197.1664
20
209.9623
0
VERTEX
8
CUT
10
197.1676
20
209.9446
0
VERTEX
8
CUT
10
197.2979
20
208.3020
0
VERTEX
8
CUT
10
197.2997
20
208.2832
0
VERTEX
8
CUT
10
197.3132
20
208.1615
0
VERTEX
8
CUT
10
197.3156
20
208.1428
0
VERTEX
8
CUT
10
197.3373
20
207.9906
0
VERTEX
8
CUT
10
197.3403
20
207.9719
0
VERTEX
8
CUT
10
197.3614
20
207.8513
0
VERTEX
8
CUT
10
197.3650
20
207.8327
0
VERTEX
8
CUT
10
197.6962
20
206.2386
0
VERTEX
8
CUT
10
197.6984
20
206.2284
0
VERTEX
8
CUT
10
197.7145
20
206.1574
0
VERTEX
8
CUT
10
197.7170
20
206.1468
0
VERTEX
8
CUT
10
197.7283
20
206.1004
0
VERTEX
8
CUT
10
197.7342
20
206.0782
0
VERTEX
8
CUT
10
197.7737
20
205.9403
0
VERTEX
8
CUT
10
197.7802
20
205.9192
0
VERTEX
8
CUT
10
197.7921
20
205.8827
0
VERTEX
8
CUT
10
197.7954
20
205.8728
0
VERTEX
8
CUT
10
197.8189
20
205.8048
0
VERTEX
8
CUT
10
197.8229
20
205.7937
0
VERTEX
8
CUT
10
199.2437
20
201.9306
0
VERTEX
8
CUT
10
199.2495
20
201.9156
0
VERTEX
8
CUT
10
199.2882
20
201.8186
0
VERTEX
8
CUT
10
199.2943
20
201.8038
0
VERTEX
8
CUT
10
199.3191
20
201.7461
0
VERTEX
8
CUT
10
199.3326
20
201.7170
0
VERTEX
8
CUT
10
199.4252
20
201.5299
0
VERTEX
8
CUT
10
199.4402
20
201.5015
0
VERTEX
8
CUT
10
199.4710
20
201.4468
0
VERTEX
8
CUT
10
199.4790
20
201.4329
0
VERTEX
8
CUT
10
199.5327
20
201.3434
0
VERTEX
8
CUT
10
199.5412
20
201.3297
0
VERTEX
8
CUT
10
201.4128
20
198.3888
0
VERTEX
8
CUT
10
201.4221
20
198.3746
0
VERTEX
8
CUT
10
201.4838
20
198.2834
0
VERTEX
8
CUT
10
201.4935
20
198.2695
0
VERTEX
8
CUT
10
201.5743
20
198.1572
0
VERTEX
8
CUT
10
201.5843
20
198.1436
0
VERTEX
8
CUT
10
201.6512
20
198.0559
0
VERTEX
8
CUT
10
201.6616
20
198.0426
0
VERTEX
8
CUT
10
204.5471
20
194.4729
0
VERTEX
8
CUT
10
204.5565
20
194.4615
0
VERTEX
8
CUT
10
204.6190
20
194.3881
0
VERTEX
8
CUT
10
204.6287
20
194.3769
0
VERTEX
8
CUT
10
204.7093
20
194.2867
0
VERTEX
8
CUT
10
204.7193
20
194.2757
0
VERTEX
8
CUT
10
204.7853
20
194.2055
0
VERTEX
8
CUT
10
204.7956
20
194.1948
0
VERTEX
8
CUT
10
206.6152
20
192.3505
0
VERTEX
8
CUT
10
206.6219
20
192.3439
0
VERTEX
8
CUT
10
206.6688
20
192.2978
0
VERTEX
8
CUT
10
206.6761
20
192.2908
0
VERTEX
8
CUT
10
206.7355
20
192.2343
0
VERTEX
8
CUT
10
206.7428
20
192.2276
0
VERTEX
8
CUT
10
206.7905
20
192.1837
0
VERTEX
8
CUT
10
206.7983
20
192.1766
0
VERTEX
8
CUT
10
207.7819
20
191.3048
0
VERTEX
8
CUT
10
207.7929
20
191.2953
0
VERTEX
8
CUT
10
207.8647
20
191.2347
0
VERTEX
8
CUT
10
207.8758
20
191.2255
0
VERTEX
8
CUT
10
207.9199
20
191.1901
0
VERTEX
8
CUT
10
207.9428
20
191.1725
0
VERTEX
8
CUT
10
208.0927
20
191.0635
0
VERTEX
8
CUT
10
208.1410
20
191.0318
0
VERTEX
8
CUT
10
208.2985
20
190.9390
0
VERTEX
8
CUT
10
208.3497
20
190.9121
0
VERTEX
8
CUT
10
208.5154
20
190.8349
0
VERTEX
8
CUT
10
208.5689
20
190.8131
0
VERTEX
8
CUT
10
208.7413
20
190.7522
0
VERTEX
8
CUT
10
208.7967
20
190.7356
0
VERTEX
8
CUT
10
208.9741
20
190.6915
0
VERTEX
8
CUT
10
209.0308
20
190.6803
0
VERTEX
8
CUT
10
209.2116
20
190.6536
0
VERTEX
8
CUT
10
209.2692
20
190.6479
0
VERTEX
8
CUT
10
209.4517
20
190.6387
0
VERTEX
8
CUT
10
209.5096
20
190.6386
0
VERTEX
8
CUT
10
209.6922
20
190.6470
0
VERTEX
8
CUT
10
209.7497
20
190.6524
0
VERTEX
8
CUT
10
209.9307
20
190.6783
0
VERTEX
8
CUT
10
209.9874
20
190.6893
0
VERTEX
8
CUT
10
210.1651
20
190.7325
0
VERTEX
8
CUT
10
210.2205
20
190.7489
0
VERTEX
8
CUT
10
210.3931
20
190.8090
0
VERTEX
8
CUT
10
210.4468
20
190.8307
0
VERTEX
8
CUT
10
210.6128
20
190.9071
0
VERTEX
8
CUT
10
210.6641
20
190.9338
0
VERTEX
8
CUT
10
210.8220
20
191.0259
0
VERTEX
8
CUT
10
210.8705
20
191.0574
0
VERTEX
8
CUT
10
211.0188
20
191.1643
0
VERTEX
8
CUT
10
211.0640
20
191.2003
0
VERTEX
8
CUT
10
211.2013
20
191.3209
0
VERTEX
8
CUT
10
211.2429
20
191.3612
0
VERTEX
8
CUT
10
211.3680
20
191.4945
0
VERTEX
8
CUT
10
211.4054
20
191.5385
0
VERTEX
8
CUT
10
211.5171
20
191.6832
0
VERTEX
8
CUT
10
211.5502
20
191.7306
0
VERTEX
8
CUT
10
211.6474
20
191.8854
0
VERTEX
8
CUT
10
211.6758
20
191.9358
0
VERTEX
8
CUT
10
211.7576
20
192.0992
0
VERTEX
8
CUT
10
211.7810
20
192.1521
0
VERTEX
8
CUT
10
211.8468
20
192.3227
0
VERTEX
8
CUT
10
211.8650
20
192.3776
0
VERTEX
8
CUT
10
211.9140
20
192.5537
0
VERTEX
8
CUT
10
211.9268
20
192.6101
0
VERTEX
8
CUT
10
211.9587
20
192.7901
0
VERTEX
8
CUT
10
211.9660
20
192.8474
0
VERTEX
8
CUT
10
211.9806
20
193.0322
0
VERTEX
8
CUT
10
211.9822
20
193.0610
0
VERTEX
8
CUT
10
211.9839
20
193.1175
0
VERTEX
8
CUT
10
211.9842
20
193.1319
0
VERTEX
8
CUT
10
211.9848
20
193.2259
0
VERTEX
8
CUT
10
211.9847
20
193.2404
0
VERTEX
8
CUT
10
211.9500
20
195.2132
0
VERTEX
8
CUT
10
211.9499
20
195.2188
0
VERTEX
8
CUT
10
211.9497
20
195.2320
0
VERTEX
8
CUT
10
211.9497
20
195.2377
0
VERTEX
8
CUT
10
211.9496
20
195.2512
0
VERTEX
8
CUT
10
211.9496
20
195.2582
0
VERTEX
8
CUT
10
211.9496
20
195.2744
0
VERTEX
8
CUT
10
211.9497
20
195.2814
0
VERTEX
8
CUT
10
211.9498
20
195.2894
0
VERTEX
8
CUT
10
211.9499
20
195.2964
0
VERTEX
8
CUT
10
211.9502
20
195.3127
0
VERTEX
8
CUT
10
211.9503
20
195.3197
0
VERTEX
8
CUT
10
211.9504
20
195.3233
0
VERTEX
8
CUT
10
211.9507
20
195.3315
0
VERTEX
8
CUT
10
211.9513
20
195.3507
0
VERTEX
8
CUT
10
211.9517
20
195.3590
0
VERTEX
8
CUT
10
212.0521
20
197.6274
0
VERTEX
8
CUT
10
212.0527
20
197.6377
0
VERTEX
8
CUT
10
212.0536
20
197.6537
0
VERTEX
8
CUT
10
212.0554
20
197.6799
0
VERTEX
8
CUT
10
212.0584
20
197.7147
0
VERTEX
8
CUT
10
212.0615
20
197.7457
0
VERTEX
8
CUT
10
212.0645
20
197.7704
0
VERTEX
8
CUT
10
212.0663
20
197.7844
0
VERTEX
8
CUT
10
212.0670
20
197.7896
0
VERTEX
8
CUT
10
212.0717
20
197.8199
0
VERTEX
8
CUT
10
212.0832
20
197.8872
0
VERTEX
8
CUT
10
212.0910
20
197.9273
0
VERTEX
8
CUT
10
212.0939
20
197.9408
0
VERTEX
8
CUT
10
212.0961
20
197.9508
0
VERTEX
8
CUT
10
212.4544
20
199.5077
0
VERTEX
8
CUT
10
212.4580
20
199.5230
0
VERTEX
8
CUT
10
212.4669
20
199.5586
0
VERTEX
8
CUT
10
212.4708
20
199.5738
0
VERTEX
8
CUT
10
212.4758
20
199.5923
0
VERTEX
8
CUT
10
212.4799
20
199.6075
0
VERTEX
8
CUT
10
212.4900
20
199.6427
0
VERTEX
8
CUT
10
212.4945
20
199.6578
0
VERTEX
8
CUT
10
212.4997
20
199.6750
0
VERTEX
8
CUT
10
212.5045
20
199.6900
0
VERTEX
8
CUT
10
212.5158
20
199.7249
0
VERTEX
8
CUT
10
212.5207
20
199.7398
0
VERTEX
8
CUT
10
212.5270
20
199.7580
0
VERTEX
8
CUT
10
212.5322
20
199.7728
0
VERTEX
8
CUT
10
212.5447
20
199.8072
0
VERTEX
8
CUT
10
212.5502
20
199.8220
0
VERTEX
8
CUT
10
213.5349
20
202.3920
0
VERTEX
8
CUT
10
213.5374
20
202.3983
0
VERTEX
8
CUT
10
213.5432
20
202.4131
0
VERTEX
8
CUT
10
213.5443
20
202.4159
0
VERTEX
8
CUT
10
213.5561
20
202.4444
0
VERTEX
8
CUT
10
213.5808
20
202.5011
0
VERTEX
8
CUT
10
213.5896
20
202.5204
0
VERTEX
8
CUT
10
213.6026
20
202.5468
0
VERTEX
8
CUT
10
213.6386
20
202.6163
0
VERTEX
8
CUT
10
213.6546
20
202.6458
0
VERTEX
8
CUT
10
215.6479
20
206.1672
0
VERTEX
8
CUT
10
215.6526
20
206.1754
0
VERTEX
8
CUT
10
215.6600
20
206.1882
0
VERTEX
8
CUT
10
215.6724
20
206.2089
0
VERTEX
8
CUT
10
215.6893
20
206.2363
0
VERTEX
8
CUT
10
215.7048
20
206.2605
0
VERTEX
8
CUT
10
215.7174
20
206.2796
0
VERTEX
8
CUT
10
215.7247
20
206.2904
0
VERTEX
8
CUT
10
215.7274
20
206.2944
0
VERTEX
8
CUT
10
215.7437
20
206.3175
0
VERTEX
8
CUT
10
215.7807
20
206.3683
0
VERTEX
8
CUT
10
215.8036
20
206.3982
0
VERTEX
8
CUT
10
215.8115
20
206.4082
0
VERTEX
8
CUT
10
215.8174
20
206.4155
0
VERTEX
8
CUT
10
217.0083
20
207.8804
0
VERTEX
8
CUT
10
217.0126
20
207.8856
0
VERTEX
8
CUT
10
217.0227
20
207.8978
0
VERTEX
8
CUT
10
217.0246
20
207.9001
0
VERTEX
8
CUT
10
217.0446
20
207.9234
0
VERTEX
8
CUT
10
217.0856
20
207.9694
0
VERTEX
8
CUT
10
217.0998
20
207.9850
0
VERTEX
8
CUT
10
217.1204
20
208.0059
0
VERTEX
8
CUT
10
217.1759
20
208.0605
0
VERTEX
8
CUT
10
217.2002
20
208.0835
0
VERTEX
8
CUT
10
220.1505
20
210.7754
0
VERTEX
8
CUT
10
220.1574
20
210.7817
0
VERTEX
8
CUT
10
220.1682
20
210.7913
0
VERTEX
8
CUT
10
220.1861
20
210.8069
0
VERTEX
8
CUT
10
220.2103
20
210.8274
0
VERTEX
8
CUT
10
220.2321
20
210.8453
0
VERTEX
8
CUT
10
220.2497
20
210.8593
0
VERTEX
8
CUT
10
220.2598
20
210.8672
0
VERTEX
8
CUT
10
220.2636
20
210.8701
0
VERTEX
8
CUT
10
220.2858
20
210.8867
0
VERTEX
8
CUT
10
220.3358
20
210.9229
0
VERTEX
8
CUT
10
220.3663
20
210.9440
0
VERTEX
8
CUT
10
220.3767
20
210.9509
0
VERTEX
8
CUT
10
220.3845
20
210.9560
0
VERTEX
8
CUT
10
222.0972
20
212.0659
0
VERTEX
8
CUT
10
222.1068
20
212.0721
0
VERTEX
8
CUT
10
222.1295
20
212.0863
0
VERTEX
8
CUT
10
222.1392
20
212.0924
0
VERTEX
8
CUT
10
222.1511
20
212.0997
0
VERTEX
8
CUT
10
222.1609
20
212.1056
0
VERTEX
8
CUT
10
222.1839
20
212.1192
0
VERTEX
8
CUT
10
222.1937
20
212.1250
0
VERTEX
8
CUT
10
222.2051
20
212.1316
0
VERTEX
8
CUT
10
222.2151
20
212.1373
0
VERTEX
8
CUT
10
222.2384
20
212.1504
0
VERTEX
8
CUT
10
222.2484
20
212.1559
0
VERTEX
8
CUT
10
222.2607
20
212.1626
0
VERTEX
8
CUT
10
222.2708
20
212.1680
0
VERTEX
8
CUT
10
222.2944
20
212.1805
0
VERTEX
8
CUT
10
222.3046
20
212.1858
0
VERTEX
8
CUT
10
225.5363
20
213.8404
0
VERTEX
8
CUT
10
225.5443
20
213.8444
0
VERTEX
8
CUT
10
225.5568
20
213.8507
0
VERTEX
8
CUT
10
225.5776
20
213.8608
0
VERTEX
8
CUT
10
225.6057
20
213.8739
0
VERTEX
8
CUT
10
225.6308
20
213.8852
0
VERTEX
8
CUT
10
225.6509
20
213.8938
0
VERTEX
8
CUT
10
225.6624
20
213.8987
0
VERTEX
8
CUT
10
225.6667
20
213.9005
0
VERTEX
8
CUT
10
225.6918
20
213.9104
0
VERTEX
8
CUT
10
225.7481
20
213.9318
0
VERTEX
8
CUT
10
225.7820
20
213.9439
0
VERTEX
8
CUT
10
225.7936
20
213.9478
0
VERTEX
8
CUT
10
225.8022
20
213.9506
0
VERTEX
8
CUT
10
230.0145
20
215.3135
0
VERTEX
8
CUT
10
230.0290
20
215.3180
0
VERTEX
8
CUT
10
230.0629
20
215.3283
0
VERTEX
8
CUT
10
230.0775
20
215.3327
0
VERTEX
8
CUT
10
230.0953
20
215.3378
0
VERTEX
8
CUT
10
230.1099
20
215.3418
0
VERTEX
8
CUT
10
230.1441
20
215.3510
0
VERTEX
8
CUT
10
230.1588
20
215.3548
0
VERTEX
8
CUT
10
230.1757
20
215.3590
0
VERTEX
8
CUT
10
230.1904
20
215.3626
0
VERTEX
8
CUT
10
230.2249
20
215.3706
0
VERTEX
8
CUT
10
230.2398
20
215.3739
0
VERTEX
8
CUT
10
230.2579
20
215.3778
0
VERTEX
8
CUT
10
230.2727
20
215.3809
0
VERTEX
8
CUT
10
230.3075
20
215.3878
0
VERTEX
8
CUT
10
230.3224
20
215.3906
0
VERTEX
8
CUT
10
233.6609
20
215.9910
0
VERTEX
8
CUT
10
233.6675
20
215.9922
0
VERTEX
8
CUT
10
233.6827
20
215.9948
0
VERTEX
8
CUT
10
233.6892
20
215.9959
0
VERTEX
8
CUT
10
233.7049
20
215.9985
0
VERTEX
8
CUT
10
233.7129
20
215.9998
0
VERTEX
8
CUT
10
233.7317
20
216.0027
0
VERTEX
8
CUT
10
233.7397
20
216.0039
0
VERTEX
8
CUT
10
233.7490
20
216.0053
0
VERTEX
8
CUT
10
233.7571
20
216.0064
0
VERTEX
8
CUT
10
233.7760
20
216.0090
0
VERTEX
8
CUT
10
233.7841
20
216.0100
0
VERTEX
8
CUT
10
233.7881
20
216.0106
0
VERTEX
8
CUT
10
233.7977
20
216.0117
0
VERTEX
8
CUT
10
233.8202
20
216.0144
0
VERTEX
8
CUT
10
233.8298
20
216.0154
0
VERTEX
8
CUT
10
244.2005
20
217.1137
0
VERTEX
8
CUT
10
244.2111
20
217.1149
0
VERTEX
8
CUT
10
244.2847
20
217.1240
0
VERTEX
8
CUT
10
244.2957
20
217.1255
0
VERTEX
8
CUT
10
244.3439
20
217.1324
0
VERTEX
8
CUT
10
244.3670
20
217.1361
0
VERTEX
8
CUT
10
244.5109
20
217.1624
0
VERTEX
8
CUT
10
244.5330
20
217.1669
0
VERTEX
8
CUT
10
244.5712
20
217.1754
0
VERTEX
8
CUT
10
244.5816
20
217.1778
0
VERTEX
8
CUT
10
244.6529
20
217.1949
0
VERTEX
8
CUT
10
244.6645
20
217.1978
0
VERTEX
8
CUT
10
248.5842
20
218.2237
0
VERTEX
8
CUT
10
248.5949
20
218.2266
0
VERTEX
8
CUT
10
248.6694
20
218.2475
0
VERTEX
8
CUT
10
248.6805
20
218.2508
0
VERTEX
8
CUT
10
248.7291
20
218.2655
0
VERTEX
8
CUT
10
248.7523
20
218.2730
0
VERTEX
8
CUT
10
248.8963
20
218.3231
0
VERTEX
8
CUT
10
248.9184
20
218.3312
0
VERTEX
8
CUT
10
248.9564
20
218.3461
0
VERTEX
8
CUT
10
248.9666
20
218.3503
0
VERTEX
8
CUT
10
249.0373
20
218.3795
0
VERTEX
8
CUT
10
249.0488
20
218.3844
0
VERTEX
8
CUT
10
251.3074
20
219.3737
0
VERTEX
8
CUT
10
251.3234
20
219.3810
0
VERTEX
8
CUT
10
251.4267
20
219.4299
0
VERTEX
8
CUT
10
251.4424
20
219.4376
0
VERTEX
8
CUT
10
251.5702
20
219.5028
0
VERTEX
8
CUT
10
251.5857
20
219.5110
0
VERTEX
8
CUT
10
251.6860
20
219.5658
0
VERTEX
8
CUT
10
251.7013
20
219.5745
0
VERTEX
8
CUT
10
253.2735
20
220.4959
0
VERTEX
8
CUT
10
253.2880
20
220.5047
0
VERTEX
8
CUT
10
253.3818
20
220.5633
0
VERTEX
8
CUT
10
253.3961
20
220.5725
0
VERTEX
8
CUT
10
253.5116
20
220.6493
0
VERTEX
8
CUT
10
253.5256
20
220.6589
0
VERTEX
8
CUT
10
253.6159
20
220.7227
0
VERTEX
8
CUT
10
253.6296
20
220.7327
0
VERTEX
8
CUT
10
255.0008
20
221.7611
0
VERTEX
8
CUT
10
255.0144
20
221.7716
0
VERTEX
8
CUT
10
255.1015
20
221.8409
0
VERTEX
8
CUT
10
255.1148
20
221.8518
0
VERTEX
8
CUT
10
255.2216
20
221.9419
0
VERTEX
8
CUT
10
255.2345
20
221.9531
0
VERTEX
8
CUT
10
255.3176
20
222.0273
0
VERTEX
8
CUT
10
255.3302
20
222.0389
0
VERTEX
8
CUT
10
256.5912
20
223.2320
0
VERTEX
8
CUT
10
256.6043
20
223.2447
0
VERTEX
8
CUT
10
256.6880
20
223.3289
0
VERTEX
8
CUT
10
256.7007
20
223.3421
0
VERTEX
8
CUT
10
256.8025
20
223.4509
0
VERTEX
8
CUT
10
256.8147
20
223.4644
0
VERTEX
8
CUT
10
256.8932
20
223.5535
0
VERTEX
8
CUT
10
256.9050
20
223.5674
0
VERTEX
8
CUT
10
258.0461
20
224.9465
0
VERTEX
8
CUT
10
258.0568
20
224.9597
0
VERTEX
8
CUT
10
258.1247
20
225.0467
0
VERTEX
8
CUT
10
258.1349
20
225.0602
0
VERTEX
8
CUT
10
258.2171
20
225.1717
0
VERTEX
8
CUT
10
258.2269
20
225.1856
0
VERTEX
8
CUT
10
258.2898
20
225.2762
0
VERTEX
8
CUT
10
258.2993
20
225.2903
0
VERTEX
8
CUT
10
259.3275
20
226.8664
0
VERTEX
8
CUT
10
259.3359
20
226.8796
0
VERTEX
8
CUT
10
259.3894
20
226.9665
0
VERTEX
8
CUT
10
259.3974
20
226.9800
0
VERTEX
8
CUT
10
259.4617
20
227.0907
0
VERTEX
8
CUT
10
259.4694
20
227.1044
0
VERTEX
8
CUT
10
259.5182
20
227.1939
0
VERTEX
8
CUT
10
259.5256
20
227.2078
0
VERTEX
8
CUT
10
260.4193
20
228.9524
0
VERTEX
8
CUT
10
260.4257
20
228.9653
0
VERTEX
8
CUT
10
260.4662
20
229.0493
0
VERTEX
8
CUT
10
260.4723
20
229.0623
0
VERTEX
8
CUT
10
260.5206
20
229.1690
0
VERTEX
8
CUT
10
260.5264
20
229.1821
0
VERTEX
8
CUT
10
260.5628
20
229.2680
0
VERTEX
8
CUT
10
260.5683
20
229.2812
0
VERTEX
8
CUT
10
261.3369
20
231.2183
0
VERTEX
8
CUT
10
261.3421
20
231.2320
0
VERTEX
8
CUT
10
261.3750
20
231.3213
0
VERTEX
8
CUT
10
261.3799
20
231.3351
0
VERTEX
8
CUT
10
261.4185
20
231.4482
0
VERTEX
8
CUT
10
261.4231
20
231.4622
0
VERTEX
8
CUT
10
261.4516
20
231.5530
0
VERTEX
8
CUT
10
261.4559
20
231.5670
0
VERTEX
8
CUT
10
262.0338
20
233.5763
0
VERTEX
8
CUT
10
262.0375
20
233.5899
0
VERTEX
8
CUT
10
262.0606
20
233.6780
0
VERTEX
8
CUT
10
262.0640
20
233.6917
0
VERTEX
8
CUT
10
262.0767
20
233.7450
0
VERTEX
8
CUT
10
262.0825
20
233.7724
0
VERTEX
8
CUT
10
262.1163
20
233.9515
0
VERTEX
8
CUT
10
262.1209
20
233.9792
0
VERTEX
8
CUT
10
262.1285
20
234.0334
0
VERTEX
8
CUT
10
262.1303
20
234.0473
0
VERTEX
8
CUT
10
262.1409
20
234.1379
0
VERTEX
8
CUT
10
262.1424
20
234.1518
0
VERTEX
8
CUT
10
262.5075
20
238.0660
0
VERTEX
8
CUT
10
262.5084
20
238.0766
0
VERTEX
8
CUT
10
262.5140
20
238.1507
0
VERTEX
8
CUT
10
262.5147
20
238.1621
0
VERTEX
8
CUT
10
262.5199
20
238.2545
0
VERTEX
8
CUT
10
262.5204
20
238.2658
0
VERTEX
8
CUT
10
262.5232
20
238.3389
0
VERTEX
8
CUT
10
262.5235
20
238.3509
0
VERTEX
8
CUT
10
262.6033
20
242.9362
0
VERTEX
8
CUT
10
262.6034
20
242.9424
0
VERTEX
8
CUT
10
262.6037
20
242.9858
0
VERTEX
8
CUT
10
262.6037
20
242.9925
0
VERTEX
8
CUT
10
262.6035
20
243.0467
0
VERTEX
8
CUT
10
262.6034
20
243.0533
0
VERTEX
8
CUT
10
262.6028
20
243.0961
0
VERTEX
8
CUT
10
262.6026
20
243.1031
0
VERTEX
8
CUT
10
262.2198
20
257.3625
0
VERTEX
8
CUT
10
262.2196
20
257.3690
0
VERTEX
8
CUT
10
262.2193
20
257.3841
0
VERTEX
8
CUT
10
262.2192
20
257.3905
0
VERTEX
8
CUT
10
262.2190
20
257.4060
0
VERTEX
8
CUT
10
262.2190
20
257.4140
0
VERTEX
8
CUT
10
262.2189
20
257.4326
0
VERTEX
8
CUT
10
262.2189
20
257.4405
0
VERTEX
8
CUT
10
262.2190
20
257.4497
0
VERTEX
8
CUT
10
262.2190
20
257.4577
0
VERTEX
8
CUT
10
262.2193
20
257.4763
0
VERTEX
8
CUT
10
262.2194
20
257.4843
0
VERTEX
8
CUT
10
262.2195
20
257.4885
0
VERTEX
8
CUT
10
262.2198
20
257.4979
0
VERTEX
8
CUT
10
262.2205
20
257.5198
0
VERTEX
8
CUT
10
262.2209
20
257.5292
0
VERTEX
8
CUT
10
262.2944
20
259.2044
0
VERTEX
8
CUT
10
262.2953
20
259.2209
0
VERTEX
8
CUT
10
262.2977
20
259.2594
0
VERTEX
8
CUT
10
262.2989
20
259.2758
0
VERTEX
8
CUT
10
262.3005
20
259.2955
0
VERTEX
8
CUT
10
262.3019
20
259.3119
0
VERTEX
8
CUT
10
262.3057
20
259.3499
0
VERTEX
8
CUT
10
262.3074
20
259.3661
0
VERTEX
8
CUT
10
262.3096
20
259.3848
0
VERTEX
8
CUT
10
262.3117
20
259.4011
0
VERTEX
8
CUT
10
262.3169
20
259.4391
0
VERTEX
8
CUT
10
262.3192
20
259.4553
0
VERTEX
8
CUT
10
262.3223
20
259.4751
0
VERTEX
8
CUT
10
262.3249
20
259.4913
0
VERTEX
8
CUT
10
262.3315
20
259.5290
0
VERTEX
8
CUT
10
262.3344
20
259.5452
0
VERTEX
8
CUT
10
263.3855
20
265.0124
0
VERTEX
8
CUT
10
263.3874
20
265.0221
0
VERTEX
8
CUT
10
263.3905
20
265.0370
0
VERTEX
8
CUT
10
263.3958
20
265.0617
0
VERTEX
8
CUT
10
263.4035
20
265.0947
0
VERTEX
8
CUT
10
263.4108
20
265.1239
0
VERTEX
8
CUT
10
263.4170
20
265.1469
0
VERTEX
8
CUT
10
263.4207
20
265.1601
0
VERTEX
8
CUT
10
263.4220
20
265.1649
0
VERTEX
8
CUT
10
263.4306
20
265.1932
0
VERTEX
8
CUT
10
263.4507
20
265.2558
0
VERTEX
8
CUT
10
263.4635
20
265.2930
0
VERTEX
8
CUT
10
263.4681
20
265.3055
0
VERTEX
8
CUT
10
263.4716
20
265.3147
0
VERTEX
8
CUT
10
265.2704
20
270.0215
0
VERTEX
8
CUT
10
265.2730
20
270.0282
0
VERTEX
8
CUT
10
265.2791
20
270.0438
0
VERTEX
8
CUT
10
265.2802
20
270.0467
0
VERTEX
8
CUT
10
265.2928
20
270.0768
0
VERTEX
8
CUT
10
265.3189
20
270.1365
0
VERTEX
8
CUT
10
265.3282
20
270.1569
0
VERTEX
8
CUT
10
265.3421
20
270.1847
0
VERTEX
8
CUT
10
265.3804
20
270.2577
0
VERTEX
8
CUT
10
265.3974
20
270.2887
0
VERTEX
8
CUT
10
267.2958
20
273.5862
0
VERTEX
8
CUT
10
267.2994
20
273.5924
0
VERTEX
8
CUT
10
267.3079
20
273.6068
0
VERTEX
8
CUT
10
267.3095
20
273.6095
0
VERTEX
8
CUT
10
267.3263
20
273.6368
0
VERTEX
8
CUT
10
267.3612
20
273.6913
0
VERTEX
8
CUT
10
267.3734
20
273.7098
0
VERTEX
8
CUT
10
267.3914
20
273.7349
0
VERTEX
8
CUT
10
267.4402
20
273.8006
0
VERTEX
8
CUT
10
267.4616
20
273.8283
0
VERTEX
8
CUT
10
270.1846
20
277.2062
0
VERTEX
8
CUT
10
270.1911
20
277.2141
0
VERTEX
8
CUT
10
270.2063
20
277.2325
0
VERTEX
8
CUT
10
270.2128
20
277.2404
0
VERTEX
8
CUT
10
270.2208
20
277.2498
0
VERTEX
8
CUT
10
270.2274
20
277.2575
0
VERTEX
8
CUT
10
270.2429
20
277.2754
0
VERTEX
8
CUT
10
270.2496
20
277.2831
0
VERTEX
8
CUT
10
270.2573
20
277.2919
0
VERTEX
8
CUT
10
270.2641
20
277.2995
0
VERTEX
8
CUT
10
270.2800
20
277.3171
0
VERTEX
8
CUT
10
270.2869
20
277.3246
0
VERTEX
8
CUT
10
270.2953
20
277.3337
0
VERTEX
8
CUT
10
270.3023
20
277.3411
0
VERTEX
8
CUT
10
270.3186
20
277.3584
0
VERTEX
8
CUT
10
270.3256
20
277.3657
0
VERTEX
8
CUT
10
271.8699
20
278.9616
0
VERTEX
8
CUT
10
271.8770
20
278.9688
0
VERTEX
8
CUT
10
271.8936
20
278.9856
0
VERTEX
8
CUT
10
271.9007
20
278.9927
0
VERTEX
8
CUT
10
271.9095
20
279.0014
0
VERTEX
8
CUT
10
271.9168
20
279.0084
0
VERTEX
8
CUT
10
271.9337
20
279.0248
0
VERTEX
8
CUT
10
271.9410
20
279.0318
0
VERTEX
8
CUT
10
271.9495
20
279.0398
0
VERTEX
8
CUT
10
271.9569
20
279.0467
0
VERTEX
8
CUT
10
271.9742
20
279.0627
0
VERTEX
8
CUT
10
271.9817
20
279.0695
0
VERTEX
8
CUT
10
271.9908
20
279.0778
0
VERTEX
8
CUT
10
271.9984
20
279.0845
0
VERTEX
8
CUT
10
272.0161
20
279.1001
0
VERTEX
8
CUT
10
272.0237
20
279.1068
0
VERTEX
8
CUT
10
275.5135
20
282.1183
0
VERTEX
8
CUT
10
275.5243
20
282.1275
0
VERTEX
8
CUT
10
275.5497
20
282.1487
0
VERTEX
8
CUT
10
275.5607
20
282.1577
0
VERTEX
8
CUT
10
275.5741
20
282.1686
0
VERTEX
8
CUT
10
275.5852
20
282.1774
0
VERTEX
8
CUT
10
275.6112
20
282.1978
0
VERTEX
8
CUT
10
275.6225
20
282.2065
0
VERTEX
8
CUT
10
275.6354
20
282.2163
0
VERTEX
8
CUT
10
275.6468
20
282.2248
0
VERTEX
8
CUT
10
275.6734
20
282.2444
0
VERTEX
8
CUT
10
275.6849
20
282.2527
0
VERTEX
8
CUT
10
275.6990
20
282.2627
0
VERTEX
8
CUT
10
275.7106
20
282.2708
0
VERTEX
8
CUT
10
275.7379
20
282.2895
0
VERTEX
8
CUT
10
275.7497
20
282.2974
0
VERTEX
8
CUT
10
279.0014
20
284.4557
0
VERTEX
8
CUT
10
279.0114
20
284.4623
0
VERTEX
8
CUT
10
279.0349
20
284.4774
0
VERTEX
8
CUT
10
279.0450
20
284.4838
0
VERTEX
8
CUT
10
279.0573
20
284.4915
0
VERTEX
8
CUT
10
279.0675
20
284.4978
0
VERTEX
8
CUT
10
279.0913
20
284.5123
0
VERTEX
8
CUT
10
279.1016
20
284.5184
0
VERTEX
8
CUT
10
279.1134
20
284.5254
0
VERTEX
8
CUT
10
279.1238
20
284.5314
0
VERTEX
8
CUT
10
279.1480
20
284.5453
0
VERTEX
8
CUT
10
279.1584
20
284.5511
0
VERTEX
8
CUT
10
279.1712
20
284.5582
0
VERTEX
8
CUT
10
279.1817
20
284.5639
0
VERTEX
8
CUT
10
279.2062
20
284.5771
0
VERTEX
8
CUT
10
279.2168
20
284.5827
0
VERTEX
8
CUT
10
284.4673
20
287.3141
0
VERTEX
8
CUT
10
284.4804
20
287.3211
0
VERTEX
8
CUT
10
284.5645
20
287.3675
0
VERTEX
8
CUT
10
284.5774
20
287.3748
0
VERTEX
8
CUT
10
284.6272
20
287.4040
0
VERTEX
8
CUT
10
284.6524
20
287.4195
0
VERTEX
8
CUT
10
284.8111
20
287.5231
0
VERTEX
8
CUT
10
284.8590
20
287.5578
0
VERTEX
8
CUT
10
285.0047
20
287.6749
0
VERTEX
8
CUT
10
285.0489
20
287.7142
0
VERTEX
8
CUT
10
285.1824
20
287.8450
0
VERTEX
8
CUT
10
285.2225
20
287.8884
0
VERTEX
8
CUT
10
285.3425
20
288.0318
0
VERTEX
8
CUT
10
285.3781
20
288.0790
0
VERTEX
8
CUT
10
285.4834
20
288.2334
0
VERTEX
8
CUT
10
285.5143
20
288.2839
0
VERTEX
8
CUT
10
285.6038
20
288.4480
0
VERTEX
8
CUT
10
285.6295
20
288.5012
0
VERTEX
8
CUT
10
285.7025
20
288.6733
0
VERTEX
8
CUT
10
285.7229
20
288.7288
0
VERTEX
8
CUT
10
285.7785
20
288.9073
0
VERTEX
8
CUT
10
285.7934
20
288.9645
0
VERTEX
8
CUT
10
285.8312
20
289.1476
0
VERTEX
8
CUT
10
285.8403
20
289.2060
0
VERTEX
8
CUT
10
285.8599
20
289.3919
0
VERTEX
8
CUT
10
285.8632
20
289.4509
0
VERTEX
8
CUT
10
285.8645
20
289.6379
0
VERTEX
8
CUT
10
285.8619
20
289.6969
0
VERTEX
8
CUT
10
285.8448
20
289.8831
0
VERTEX
8
CUT
10
285.8365
20
289.9416
0
VERTEX
8
CUT
10
285.8010
20
290.1252
0
VERTEX
8
CUT
10
285.7870
20
290.1826
0
VERTEX
8
CUT
10
285.7337
20
290.3618
0
VERTEX
8
CUT
10
285.7141
20
290.4176
0
VERTEX
8
CUT
10
285.6434
20
290.5906
0
VERTEX
8
CUT
10
285.6184
20
290.6442
0
VERTEX
8
CUT
10
285.5310
20
290.8095
0
VERTEX
8
CUT
10
285.5008
20
290.8603
0
VERTEX
8
CUT
10
285.3976
20
291.0162
0
VERTEX
8
CUT
10
285.3626
20
291.0638
0
VERTEX
8
CUT
10
285.2445
20
291.2087
0
VERTEX
8
CUT
10
285.2050
20
291.2527
0
VERTEX
8
CUT
10
285.0732
20
291.3853
0
VERTEX
8
CUT
10
285.0295
20
291.4252
0
VERTEX
8
CUT
10
284.8854
20
291.5442
0
VERTEX
8
CUT
10
284.8380
20
291.5795
0
VERTEX
8
CUT
10
284.6828
20
291.6837
0
VERTEX
8
CUT
10
284.6322
20
291.7143
0
VERTEX
8
CUT
10
284.4675
20
291.8027
0
VERTEX
8
CUT
10
284.4141
20
291.8281
0
VERTEX
8
CUT
10
284.2415
20
291.8999
0
VERTEX
8
CUT
10
284.1859
20
291.9199
0
VERTEX
8
CUT
10
284.0071
20
291.9744
0
VERTEX
8
CUT
10
283.9497
20
291.9888
0
VERTEX
8
CUT
10
283.7664
20
292.0255
0
VERTEX
8
CUT
10
283.7079
20
292.0342
0
VERTEX
8
CUT
10
283.5193
20
292.0528
0
VERTEX
8
CUT
10
283.4898
20
292.0550
0
VERTEX
8
CUT
10
283.4321
20
292.0579
0
VERTEX
8
CUT
10
283.4174
20
292.0584
0
VERTEX
8
CUT
10
283.3213
20
292.0608
0
VERTEX
8
CUT
10
283.3065
20
292.0610
0
VERTEX
8
CUT
10
262.4231
20
292.0610
0
VERTEX
8
CUT
10
262.4081
20
292.0608
0
VERTEX
8
CUT
10
262.3104
20
292.0583
0
VERTEX
8
CUT
10
262.2953
20
292.0578
0
VERTEX
8
CUT
10
262.2367
20
292.0548
0
VERTEX
8
CUT
10
262.2067
20
292.0525
0
VERTEX
8
CUT
10
262.0149
20
292.0333
0
VERTEX
8
CUT
10
261.9555
20
292.0242
0
VERTEX
8
CUT
10
261.7692
20
291.9864
0
VERTEX
8
CUT
10
261.7109
20
291.9715
0
VERTEX
8
CUT
10
261.5294
20
291.9151
0
VERTEX
8
CUT
10
261.4729
20
291.8945
0
VERTEX
8
CUT
10
261.2979
20
291.8203
0
VERTEX
8
CUT
10
261.2438
20
291.7940
0
VERTEX
8
CUT
10
261.0771
20
291.7027
0
VERTEX
8
CUT
10
261.0259
20
291.6712
0
VERTEX
8
CUT
10
260.8691
20
291.5636
0
VERTEX
8
CUT
10
260.8213
20
291.5271
0
VERTEX
8
CUT
10
260.6762
20
291.4044
0
VERTEX
8
CUT
10
260.6322
20
291.3633
0
VERTEX
8
CUT
10
260.5001
20
291.2267
0
VERTEX
8
CUT
10
260.4605
20
291.1814
0
VERTEX
8
CUT
10
260.3427
20
291.0322
0
VERTEX
8
CUT
10
260.3078
20
290.9832
0
VERTEX
8
CUT
10
260.2056
20
290.8230
0
VERTEX
8
CUT
10
260.1758
20
290.7707
0
VERTEX
8
CUT
10
260.0889
20
290.5987
0
VERTEX
8
CUT
10
260.0760
20
290.5715
0
VERTEX
8
CUT
10
260.0521
20
290.5179
0
VERTEX
8
CUT
10
260.0462
20
290.5041
0
VERTEX
8
CUT
10
260.0088
20
290.4138
0
VERTEX
8
CUT
10
260.0085
20
290.4130
0
VERTEX
8
CUT
10
259.9885
20
290.3645
0
VERTEX
8
CUT
10
259.9537
20
290.2858
0
VERTEX
8
CUT
10
259.9204
20
290.2182
0
VERTEX
8
CUT
10
259.8947
20
290.1712
0
VERTEX
8
CUT
10
259.8725
20
290.1328
0
VERTEX
8
CUT
10
259.8649
20
290.1205
0
VERTEX
8
CUT
10
259.8592
20
290.1113
0
VERTEX
8
CUT
10
257.4147
20
286.2249
0
VERTEX
8
CUT
10
257.4084
20
286.2146
0
VERTEX
8
CUT
10
257.3681
20
286.1475
0
VERTEX
8
CUT
10
257.3620
20
286.1372
0
VERTEX
8
CUT
10
257.3130
20
286.0519
0
VERTEX
8
CUT
10
257.3071
20
286.0414
0
VERTEX
8
CUT
10
257.2695
20
285.9728
0
VERTEX
8
CUT
10
257.2638
20
285.9622
0
VERTEX
8
CUT
10
256.0570
20
283.6506
0
VERTEX
8
CUT
10
256.0531
20
283.6432
0
VERTEX
8
CUT
10
256.0270
20
283.5913
0
VERTEX
8
CUT
10
256.0230
20
283.5833
0
VERTEX
8
CUT
10
255.9914
20
283.5182
0
VERTEX
8
CUT
10
255.9876
20
283.5102
0
VERTEX
8
CUT
10
255.9633
20
283.4584
0
VERTEX
8
CUT
10
255.9594
20
283.4499
0
VERTEX
8
CUT
10
255.1593
20
281.6682
0
VERTEX
8
CUT
10
255.1543
20
281.6566
0
VERTEX
8
CUT
10
255.1221
20
281.5807
0
VERTEX
8
CUT
10
255.1173
20
281.5690
0
VERTEX
8
CUT
10
255.0989
20
281.5229
0
VERTEX
8
CUT
10
255.0900
20
281.4992
0
VERTEX
8
CUT
10
255.0354
20
281.3437
0
VERTEX
8
CUT
10
255.0275
20
281.3196
0
VERTEX
8
CUT
10
255.0131
20
281.2722
0
VERTEX
8
CUT
10
255.0096
20
281.2600
0
VERTEX
8
CUT
10
254.9873
20
281.1806
0
VERTEX
8
CUT
10
254.9839
20
281.1684
0
VERTEX
8
CUT
10
254.5846
20
279.6232
0
VERTEX
8
CUT
10
254.5827
20
279.6162
0
VERTEX
8
CUT
10
254.5784
20
279.5998
0
VERTEX
8
CUT
10
254.5776
20
279.5968
0
VERTEX
8
CUT
10
254.5684
20
279.5652
0
VERTEX
8
CUT
10
254.5488
20
279.5020
0
VERTEX
8
CUT
10
254.5417
20
279.4805
0
VERTEX
8
CUT
10
254.5307
20
279.4506
0
VERTEX
8
CUT
10
254.5003
20
279.3727
0
VERTEX
8
CUT
10
254.4865
20
279.3395
0
VERTEX
8
CUT
10
253.7684
20
277.6980
0
VERTEX
8
CUT
10
253.7600
20
277.6779
0
VERTEX
8
CUT
10
253.7079
20
277.5461
0
VERTEX
8
CUT
10
253.7003
20
277.5257
0
VERTEX
8
CUT
10
253.6409
20
277.3577
0
VERTEX
8
CUT
10
253.6340
20
277.3370
0
VERTEX
8
CUT
10
253.5916
20
277.2014
0
VERTEX
8
CUT
10
253.5855
20
277.1805
0
VERTEX
8
CUT
10
251.8659
20
270.8913
0
VERTEX
8
CUT
10
251.8623
20
270.8774
0
VERTEX
8
CUT
10
251.8398
20
270.7866
0
VERTEX
8
CUT
10
251.8365
20
270.7725
0
VERTEX
8
CUT
10
251.8110
20
270.6579
0
VERTEX
8
CUT
10
251.8080
20
270.6438
0
VERTEX
8
CUT
10
251.7899
20
270.5520
0
VERTEX
8
CUT
10
251.7873
20
270.5379
0
VERTEX
8
CUT
10
250.1740
20
261.1918
0
VERTEX
8
CUT
10
250.1716
20
261.1783
0
VERTEX
8
CUT
10
250.1656
20
261.1469
0
VERTEX
8
CUT
10
250.1630
20
261.1334
0
VERTEX
8
CUT
10
250.1596
20
261.1170
0
VERTEX
8
CUT
10
250.1568
20
261.1036
0
VERTEX
8
CUT
10
250.1499
20
261.0724
0
VERTEX
8
CUT
10
250.1469
20
261.0590
0
VERTEX
8
CUT
10
250.1432
20
261.0437
0
VERTEX
8
CUT
10
250.1400
20
261.0303
0
VERTEX
8
CUT
10
250.1322
20
260.9993
0
VERTEX
8
CUT
10
250.1287
20
260.9860
0
VERTEX
8
CUT
10
250.1244
20
260.9699
0
VERTEX
8
CUT
10
250.1207
20
260.9567
0
VERTEX
8
CUT
10
250.1119
20
260.9259
0
VERTEX
8
CUT
10
250.1081
20
260.9127
0
VERTEX
8
CUT
10
248.2693
20
254.8143
0
VERTEX
8
CUT
10
248.2652
20
254.8011
0
VERTEX
8
CUT
10
248.2554
20
254.7704
0
VERTEX
8
CUT
10
248.2511
20
254.7573
0
VERTEX
8
CUT
10
248.2458
20
254.7413
0
VERTEX
8
CUT
10
248.2413
20
254.7283
0
VERTEX
8
CUT
10
248.2306
20
254.6979
0
VERTEX
8
CUT
10
248.2259
20
254.6849
0
VERTEX
8
CUT
10
248.2204
20
254.6701
0
VERTEX
8
CUT
10
248.2155
20
254.6572
0
VERTEX
8
CUT
10
248.2039
20
254.6271
0
VERTEX
8
CUT
10
248.1988
20
254.6143
0
VERTEX
8
CUT
10
248.1925
20
254.5987
0
VERTEX
8
CUT
10
248.1872
20
254.5860
0
VERTEX
8
CUT
10
248.1746
20
254.5563
0
VERTEX
8
CUT
10
248.1692
20
254.5436
0
VERTEX
8
CUT
10
245.3786
20
248.2193
0
VERTEX
8
CUT
10
245.3743
20
248.2096
0
VERTEX
8
CUT
10
245.3675
20
248.1946
0
VERTEX
8
CUT
10
245.3558
20
248.1701
0
VERTEX
8
CUT
10
245.3397
20
248.1373
0
VERTEX
8
CUT
10
245.3249
20
248.1086
0
VERTEX
8
CUT
10
245.3127
20
248.0859
0
VERTEX
8
CUT
10
245.3057
20
248.0730
0
VERTEX
8
CUT
10
245.3030
20
248.0683
0
VERTEX
8
CUT
10
245.2870
20
248.0408
0
VERTEX
8
CUT
10
245.2503
20
247.9803
0
VERTEX
8
CUT
10
245.2274
20
247.9445
0
VERTEX
8
CUT
10
245.2194
20
247.9327
0
VERTEX
8
CUT
10
245.2135
20
247.9239
0
VERTEX
8
CUT
10
241.2874
20
242.2361
0
VERTEX
8
CUT
10
241.2820
20
242.2283
0
VERTEX
8
CUT
10
241.2735
20
242.2162
0
VERTEX
8
CUT
10
241.2592
20
242.1965
0
VERTEX
8
CUT
10
241.2396
20
242.1703
0
VERTEX
8
CUT
10
241.2219
20
242.1474
0
VERTEX
8
CUT
10
241.2075
20
242.1294
0
VERTEX
8
CUT
10
241.1992
20
242.1191
0
VERTEX
8
CUT
10
241.1961
20
242.1154
0
VERTEX
8
CUT
10
241.1776
20
242.0936
0
VERTEX
8
CUT
10
241.1358
20
242.0460
0
VERTEX
8
CUT
10
241.1101
20
242.0179
0
VERTEX
8
CUT
10
241.1012
20
242.0086
0
VERTEX
8
CUT
10
241.0946
20
242.0018
0
VERTEX
8
CUT
10
239.0871
20
239.9445
0
VERTEX
8
CUT
10
239.0779
20
239.9352
0
VERTEX
8
CUT
10
239.0564
20
239.9138
0
VERTEX
8
CUT
10
239.0472
20
239.9047
0
VERTEX
8
CUT
10
239.0358
20
239.8937
0
VERTEX
8
CUT
10
239.0263
20
239.8847
0
VERTEX
8
CUT
10
239.0042
20
239.8639
0
VERTEX
8
CUT
10
238.9947
20
239.8551
0
VERTEX
8
CUT
10
238.9837
20
239.8450
0
VERTEX
8
CUT
10
238.9740
20
239.8363
0
VERTEX
8
CUT
10
238.9513
20
239.8162
0
VERTEX
8
CUT
10
238.9415
20
239.8077
0
VERTEX
8
CUT
10
238.9295
20
239.7973
0
VERTEX
8
CUT
10
238.9196
20
239.7889
0
VERTEX
8
CUT
10
238.8963
20
239.7694
0
VERTEX
8
CUT
10
238.8863
20
239.7612
0
VERTEX
8
CUT
10
234.9392
20
236.5558
0
VERTEX
8
CUT
10
234.9307
20
236.5490
0
VERTEX
8
CUT
10
234.9108
20
236.5332
0
VERTEX
8
CUT
10
234.9022
20
236.5265
0
VERTEX
8
CUT
10
234.8917
20
236.5184
0
VERTEX
8
CUT
10
234.8830
20
236.5118
0
VERTEX
8
CUT
10
234.8627
20
236.4965
0
VERTEX
8
CUT
10
234.8540
20
236.4900
0
VERTEX
8
CUT
10
234.8439
20
236.4826
0
VERTEX
8
CUT
10
234.8351
20
236.4762
0
VERTEX
8
CUT
10
234.8144
20
236.4614
0
VERTEX
8
CUT
10
234.8055
20
236.4551
0
VERTEX
8
CUT
10
234.7946
20
236.4475
0
VERTEX
8
CUT
10
234.7857
20
236.4413
0
VERTEX
8
CUT
10
234.7647
20
236.4270
0
VERTEX
8
CUT
10
234.7556
20
236.4210
0
VERTEX
8
CUT
10
232.3751
20
234.8433
0
VERTEX
8
CUT
10
232.3649
20
234.8366
0
VERTEX
8
CUT
10
232.3411
20
234.8213
0
VERTEX
8
CUT
10
232.3308
20
234.8148
0
VERTEX
8
CUT
10
232.3183
20
234.8070
0
VERTEX
8
CUT
10
232.3079
20
234.8006
0
VERTEX
8
CUT
10
232.2837
20
234.7859
0
VERTEX
8
CUT
10
232.2733
20
234.7797
0
VERTEX
8
CUT
10
232.2612
20
234.7726
0
VERTEX
8
CUT
10
232.2507
20
234.7665
0
VERTEX
8
CUT
10
232.2261
20
234.7525
0
VERTEX
8
CUT
10
232.2155
20
234.7466
0
VERTEX
8
CUT
10
232.2025
20
234.7394
0
VERTEX
8
CUT
10
232.1919
20
234.7336
0
VERTEX
8
CUT
10
232.1669
20
234.7203
0
VERTEX
8
CUT
10
232.1561
20
234.7146
0
VERTEX
8
CUT
10
229.1730
20
233.1716
0
VERTEX
8
CUT
10
229.1611
20
233.1656
0
VERTEX
8
CUT
10
229.1332
20
233.1517
0
VERTEX
8
CUT
10
229.1212
20
233.1458
0
VERTEX
8
CUT
10
229.1066
20
233.1388
0
VERTEX
8
CUT
10
229.0945
20
233.1331
0
VERTEX
8
CUT
10
229.0663
20
233.1201
0
VERTEX
8
CUT
10
229.0541
20
233.1146
0
VERTEX
8
CUT
10
229.0401
20
233.1083
0
VERTEX
8
CUT
10
229.0279
20
233.1030
0
VERTEX
8
CUT
10
228.9993
20
233.0908
0
VERTEX
8
CUT
10
228.9870
20
233.0857
0
VERTEX
8
CUT
10
228.9719
20
233.0795
0
VERTEX
8
CUT
10
228.9596
20
233.0745
0
VERTEX
8
CUT
10
228.9306
20
233.0632
0
VERTEX
8
CUT
10
228.9182
20
233.0584
0
VERTEX
8
CUT
10
223.3445
20
230.9680
0
VERTEX
8
CUT
10
223.3348
20
230.9644
0
VERTEX
8
CUT
10
223.3121
20
230.9562
0
VERTEX
8
CUT
10
223.3024
20
230.9528
0
VERTEX
8
CUT
10
223.2904
20
230.9486
0
VERTEX
8
CUT
10
223.2807
20
230.9452
0
VERTEX
8
CUT
10
223.2578
20
230.9376
0
VERTEX
8
CUT
10
223.2480
20
230.9343
0
VERTEX
8
CUT
10
223.2367
20
230.9307
0
VERTEX
8
CUT
10
223.2268
20
230.9275
0
VERTEX
8
CUT
10
223.2038
20
230.9204
0
VERTEX
8
CUT
10
223.1939
20
230.9174
0
VERTEX
8
CUT
10
223.1818
20
230.9138
0
VERTEX
8
CUT
10
223.1719
20
230.9109
0
VERTEX
8
CUT
10
223.1487
20
230.9042
0
VERTEX
8
CUT
10
223.1387
20
230.9014
0
VERTEX
8
CUT
10
210.8723
20
227.5473
0
VERTEX
8
CUT
10
210.8601
20
227.5439
0
VERTEX
8
CUT
10
210.7813
20
227.5205
0
VERTEX
8
CUT
10
210.7693
20
227.5168
0
VERTEX
8
CUT
10
210.7222
20
227.5018
0
VERTEX
8
CUT
10
210.6982
20
227.4936
0
VERTEX
8
CUT
10
210.5440
20
227.4370
0
VERTEX
8
CUT
10
210.5204
20
227.4278
0
VERTEX
8
CUT
10
210.4747
20
227.4089
0
VERTEX
8
CUT
10
210.4631
20
227.4039
0
VERTEX
8
CUT
10
210.3879
20
227.3708
0
VERTEX
8
CUT
10
210.3764
20
227.3656
0
VERTEX
8
CUT
10
206.4580
20
225.5422
0
VERTEX
8
CUT
10
206.4481
20
225.5375
0
VERTEX
8
CUT
10
206.3795
20
225.5040
0
VERTEX
8
CUT
10
206.3694
20
225.4990
0
VERTEX
8
CUT
10
206.3248
20
225.4762
0
VERTEX
8
CUT
10
206.3036
20
225.4648
0
VERTEX
8
CUT
10
206.1727
20
225.3910
0
VERTEX
8
CUT
10
206.1527
20
225.3793
0
VERTEX
8
CUT
10
206.1184
20
225.3582
0
VERTEX
8
CUT
10
206.1092
20
225.3524
0
VERTEX
8
CUT
10
206.0457
20
225.3117
0
VERTEX
8
CUT
10
206.0354
20
225.3050
0
VERTEX
8
CUT
10
203.9063
20
223.8789
0
VERTEX
8
CUT
10
203.8959
20
223.8718
0
VERTEX
8
CUT
10
203.8287
20
223.8248
0
VERTEX
8
CUT
10
203.8185
20
223.8174
0
VERTEX
8
CUT
10
203.7787
20
223.7883
0
VERTEX
8
CUT
10
203.7587
20
223.7730
0
VERTEX
8
CUT
10
203.6307
20
223.6706
0
VERTEX
8
CUT
10
203.6113
20
223.6545
0
VERTEX
8
CUT
10
203.5741
20
223.6221
0
VERTEX
8
CUT
10
203.5647
20
223.6137
0
VERTEX
8
CUT
10
203.5040
20
223.5586
0
VERTEX
8
CUT
10
203.4948
20
223.5500
0
VERTEX
8
CUT
10
201.7133
20
221.8623
0
VERTEX
8
CUT
10
201.7044
20
221.8537
0
VERTEX
8
CUT
10
201.6475
20
221.7975
0
VERTEX
8
CUT
10
201.6388
20
221.7888
0
VERTEX
8
CUT
10
201.6053
20
221.7543
0
VERTEX
8
CUT
10
201.5885
20
221.7363
0
VERTEX
8
CUT
10
201.4817
20
221.6171
0
VERTEX
8
CUT
10
201.4657
20
221.5984
0
VERTEX
8
CUT
10
201.4351
20
221.5613
0
VERTEX
8
CUT
10
201.4274
20
221.5517
0
VERTEX
8
CUT
10
201.3777
20
221.4889
0
VERTEX
8
CUT
10
201.3702
20
221.4792
0
VERTEX
8
CUT
10
199.8955
20
219.5322
0
VERTEX
8
CUT
10
199.8841
20
219.5166
0
VERTEX
8
CUT
10
199.8111
20
219.4135
0
VERTEX
8
CUT
10
199.8002
20
219.3975
0
VERTEX
8
CUT
10
199.7129
20
219.2653
0
VERTEX
8
CUT
10
199.7025
20
219.2489
0
VERTEX
8
CUT
10
199.6364
20
219.1414
0
VERTEX
8
CUT
10
199.6265
20
219.1246
0
VERTEX
8
CUT
10
199.0662
20
218.1432
0
VERTEX
8
CUT
10
199.0586
20
218.1295
0
VERTEX
8
CUT
10
199.0105
20
218.0398
0
VERTEX
8
CUT
10
199.0032
20
218.0259
0
VERTEX
8
CUT
10
198.9458
20
217.9118
0
VERTEX
8
CUT
10
198.9389
20
217.8977
0
VERTEX
8
CUT
10
198.8955
20
217.8056
0
VERTEX
8
CUT
10
198.8890
20
217.7913
0
VERTEX
8
CUT
10
198.2382
20
216.3114
0
VERTEX
8
CUT
10
198.2314
20
216.2954
0
VERTEX
8
CUT
10
198.1891
20
216.1911
0
VERTEX
8
CUT
10
198.1828
20
216.1749
0
VERTEX
8
CUT
10
198.1335
20
216.0425
0
VERTEX
8
CUT
10
198.1277
20
216.0261
0
VERTEX
8
CUT
10
198.0914
20
215.9195
0
VERTEX
8
CUT
10
198.0861
20
215.9030
0
VERTEX
8
CUT
10
197.6291
20
214.4193
0
VERTEX
8
CUT
10
197.6234
20
214.3995
0
VERTEX
8
CUT
10
197.5885
20
214.2704
0
VERTEX
8
CUT
10
197.5834
20
214.2505
0
VERTEX
8
CUT
10
197.5451
20
214.0872
0
VERTEX
8
CUT
10
197.5408
20
214.0670
0
VERTEX
8
CUT
10
197.5148
20
213.9359
0
VERTEX
8
CUT
10
197.5111
20
213.9156
0
VERTEX
8
CUT
10
197.2663
20
212.4133
0
VERTEX
8
CUT
10
197.2636
20
212.3952
0
VERTEX
8
CUT
10
197.2480
20
212.2770
0
VERTEX
8
CUT
10
197.2459
20
212.2587
0
VERTEX
8
CUT
10
197.2309
20
212.1099
0
VERTEX
8
CUT
10
197.2293
20
212.0916
0
VERTEX
8
CUT
10
197.2210
20
211.9727
0
VERTEX
8
CUT
10
197.2200
20
211.9544
0
VERTEX
8
CUT
10
197.1586
20
210.3911
0
VERTEX
8
CUT
10
197.1582
20
210.3733
0
VERTEX
8
CUT
10
197.1571
20
210.2579
0
VERTEX
8
CUT
10
197.1572
20
210.2402
0
VERTEX
8
CUT
10
197.1601
20
210.0953
0
VERTEX
8
CUT
10
197.1607
20
210.0776
0
SEQEND
0
POLYLINE
8
CUT
66
1
70
1
10
0.0
20
0.0
30
0.0
0
VERTEX
8
CUT
10
173.0616
20
55.9741
0
VERTEX
8
CUT
10
173.0743
20
55.9140
0
VERTEX
8
CUT
10
173.1247
20
55.7237
0
VERTEX
8
CUT
10
173.1333
20
55.6942
0
VERTEX
8
CUT
10
173.1516
20
55.6371
0
VERTEX
8
CUT
10
173.1565
20
55.6225
0
VERTEX
8
CUT
10
173.1894
20
55.5282
0
VERTEX
8
CUT
10
173.1947
20
55.5138
0
VERTEX
8
CUT
10
173.3648
20
55.0639
0
VERTEX
8
CUT
10
173.3702
20
55.0500
0
VERTEX
8
CUT
10
173.4065
20
54.9607
0
VERTEX
8
CUT
10
173.4123
20
54.9470
0
VERTEX
8
CUT
10
173.4354
20
54.8939
0
VERTEX
8
CUT
10
173.4479
20
54.8670
0
VERTEX
8
CUT
10
173.5319
20
54.6976
0
VERTEX
8
CUT
10
173.5612
20
54.6454
0
VERTEX
8
CUT
10
173.6629
20
54.4833
0
VERTEX
8
CUT
10
173.6979
20
54.4333
0
VERTEX
8
CUT
10
173.8187
20
54.2782
0
VERTEX
8
CUT
10
173.8591
20
54.2316
0
VERTEX
8
CUT
10
173.9937
20
54.0912
0
VERTEX
8
CUT
10
174.0386
20
54.0490
0
VERTEX
8
CUT
10
174.1871
20
53.9231
0
VERTEX
8
CUT
10
174.2360
20
53.8857
0
VERTEX
8
CUT
10
174.3966
20
53.7757
0
VERTEX
8
CUT
10
174.4491
20
53.7435
0
VERTEX
8
CUT
10
174.6201
20
53.6506
0
VERTEX
8
CUT
10
174.6757
20
53.6239
0
VERTEX
8
CUT
10
174.8578
20
53.5479
0
VERTEX
8
CUT
10
174.8865
20
53.5368
0
VERTEX
8
CUT
10
174.9431
20
53.5165
0
VERTEX
8
CUT
10
174.9577
20
53.5115
0
VERTEX
8
CUT
10
175.0528
20
53.4802
0
VERTEX
8
CUT
10
175.0674
20
53.4756
0
VERTEX
8
CUT
10
176.6762
20
52.9908
0
VERTEX
8
CUT
10
176.7226
20
52.9754
0
VERTEX
8
CUT
10
176.8068
20
52.9450
0
VERTEX
8
CUT
10
176.8967
20
52.9068
0
VERTEX
8
CUT
10
176.9552
20
52.8782
0
VERTEX
8
CUT
10
177.0404
20
52.8305
0
VERTEX
8
CUT
10
177.0954
20
52.7957
0
VERTEX
8
CUT
10
177.1750
20
52.7390
0
VERTEX
8
CUT
10
177.2450
20
52.6832
0
VERTEX
8
CUT
10
177.2824
20
52.6517
0
VERTEX
8
CUT
10
177.5306
20
52.4308
0
VERTEX
8
CUT
10
177.5382
20
52.4239
0
VERTEX
8
CUT
10
177.5500
20
52.4131
0
VERTEX
8
CUT
10
177.5693
20
52.3951
0
VERTEX
8
CUT
10
177.5947
20
52.3705
0
VERTEX
8
CUT
10
177.6169
20
52.3483
0
VERTEX
8
CUT
10
177.6359
20
52.3287
0
VERTEX
8
CUT
10
177.6426
20
52.3217
0
VERTEX
8
CUT
10
177.6473
20
52.3168
0
VERTEX
8
CUT
10
177.7135
20
52.2494
0
VERTEX
8
CUT
10
177.7238
20
52.2391
0
VERTEX
8
CUT
10
177.7646
20
52.1996
0
VERTEX
8
CUT
10
177.7859
20
52.1799
0
VERTEX
8
CUT
10
177.9258
20
52.0567
0
VERTEX
8
CUT
10
177.9712
20
52.0205
0
VERTEX
8
CUT
10
178.1203
20
51.9130
0
VERTEX
8
CUT
10
178.1690
20
51.8813
0
VERTEX
8
CUT
10
178.3300
20
51.7874
0
VERTEX
8
CUT
10
178.3555
20
51.7734
0
VERTEX
8
CUT
10
178.3914
20
51.7547
0
VERTEX
8
CUT
10
178.4502
20
51.7239
0
VERTEX
8
CUT
10
178.5221
20
51.6819
0
VERTEX
8
CUT
10
178.5707
20
51.6505
0
VERTEX
8
CUT
10
178.6406
20
51.6003
0
VERTEX
8
CUT
10
178.6856
20
51.5646
0
VERTEX
8
CUT
10
178.7504
20
51.5079
0
VERTEX
8
CUT
10
178.7918
20
51.4682
0
VERTEX
8
CUT
10
178.8509
20
51.4055
0
VERTEX
8
CUT
10
178.8882
20
51.3620
0
VERTEX
8
CUT
10
178.9411
20
51.2940
0
VERTEX
8
CUT
10
178.9741
20
51.2471
0
VERTEX
8
CUT
10
179.0203
20
51.1743
0
VERTEX
8
CUT
10
179.0486
20
51.1244
0
VERTEX
8
CUT
10
179.0876
20
51.0476
0
VERTEX
8
CUT
10
179.1111
20
50.9953
0
VERTEX
8
CUT
10
179.1425
20
50.9151
0
VERTEX
8
CUT
10
179.1608
20
50.8607
0
VERTEX
8
CUT
10
179.1845
20
50.7779
0
VERTEX
8
CUT
10
179.1975
20
50.7220
0
VERTEX
8
CUT
10
179.2131
20
50.6373
0
VERTEX
8
CUT
10
179.2208
20
50.5805
0
VERTEX
8
CUT
10
179.2282
20
50.4947
0
VERTEX
8
CUT
10
179.2304
20
50.4373
0
VERTEX
8
CUT
10
179.2296
20
50.3512
0
VERTEX
8
CUT
10
179.2251
20
50.2724
0
VERTEX
8
CUT
10
179.2216
20
50.2295
0
VERTEX
8
CUT
10
179.2173
20
50.1885
0
VERTEX
8
CUT
10
179.2140
20
50.1303
0
VERTEX
8
CUT
10
179.2125
20
49.9461
0
VERTEX
8
CUT
10
179.2148
20
49.8879
0
VERTEX
8
CUT
10
179.2312
20
49.7044
0
VERTEX
8
CUT
10
179.2392
20
49.6466
0
VERTEX
8
CUT
10
179.2733
20
49.4656
0
VERTEX
8
CUT
10
179.2869
20
49.4089
0
VERTEX
8
CUT
10
179.3384
20
49.2320
0
VERTEX
8
CUT
10
179.3574
20
49.1769
0
VERTEX
8
CUT
10
179.4267
20
49.0035
0
VERTEX
8
CUT
10
179.4382
20
48.9767
0
VERTEX
8
CUT
10
179.4619
20
48.9250
0
VERTEX
8
CUT
10
179.4681
20
48.9118
0
VERTEX
8
CUT
10
179.5096
20
48.8267
0
VERTEX
8
CUT
10
179.5161
20
48.8136
0
VERTEX
8
CUT
10
183.0257
20
42.0341
0
VERTEX
8
CUT
10
183.0316
20
42.0231
0
VERTEX
8
CUT
10
183.0704
20
41.9518
0
VERTEX
8
CUT
10
183.0765
20
41.9409
0
VERTEX
8
CUT
10
183.1271
20
41.8524
0
VERTEX
8
CUT
10
183.1334
20
41.8416
0
VERTEX
8
CUT
10
183.1751
20
41.7720
0
VERTEX
8
CUT
10
183.1817
20
41.7613
0
VERTEX
8
CUT
10
184.8189
20
39.1554
0
VERTEX
8
CUT
10
184.8263
20
39.1439
0
VERTEX
8
CUT
10
184.8752
20
39.0700
0
VERTEX
8
CUT
10
184.8828
20
39.0587
0
VERTEX
8
CUT
10
184.9462
20
38.9673
0
VERTEX
8
CUT
10
184.9541
20
38.9561
0
VERTEX
8
CUT
10
185.0063
20
38.8845
0
VERTEX
8
CUT
10
185.0144
20
38.8735
0
VERTEX
8
CUT
10
187.1745
20
36.0432
0
VERTEX
8
CUT
10
187.1813
20
36.0341
0
VERTEX
8
CUT
10
187.1972
20
36.0128
0
VERTEX
8
CUT
10
187.2039
20
36.0036
0
VERTEX
8
CUT
10
187.2120
20
35.9924
0
VERTEX
8
CUT
10
187.2187
20
35.9831
0
VERTEX
8
CUT
10
187.2340
20
35.9614
0
VERTEX
8
CUT
10
187.2405
20
35.9521
0
VERTEX
8
CUT
10
187.2479
20
35.9413
0
VERTEX
8
CUT
10
187.2542
20
35.9319
0
VERTEX
8
CUT
10
187.2690
20
35.9098
0
VERTEX
8
CUT
10
187.2752
20
35.9003
0
VERTEX
8
CUT
10
187.2828
20
35.8886
0
VERTEX
8
CUT
10
187.2889
20
35.8790
0
VERTEX
8
CUT
10
187.3031
20
35.8566
0
VERTEX
8
CUT
10
187.3091
20
35.8469
0
VERTEX
8
CUT
10
188.1165
20
34.5322
0
VERTEX
8
CUT
10
188.1231
20
34.5213
0
VERTEX
8
CUT
10
188.1318
20
34.5066
0
VERTEX
8
CUT
10
188.1565
20
34.4623
0
VERTEX
8
CUT
10
188.1957
20
34.3872
0
VERTEX
8
CUT
10
188.2122
20
34.3536
0
VERTEX
8
CUT
10
188.2274
20
34.3194
0
VERTEX
8
CUT
10
188.2600
20
34.2413
0
VERTEX
8
CUT
10
188.2782
20
34.1939
0
VERTEX
8
CUT
10
188.2839
20
34.1777
0
VERTEX
8
CUT
10
188.2881
20
34.1657
0
VERTEX
8
CUT
10
188.6536
20
33.0807
0
VERTEX
8
CUT
10
188.6566
20
33.0716
0
VERTEX
8
CUT
10
188.6612
20
33.0575
0
VERTEX
8
CUT
10
188.6685
20
33.0342
0
VERTEX
8
CUT
10
188.6778
20
33.0027
0
VERTEX
8
CUT
10
188.6856
20
32.9746
0
VERTEX
8
CUT
10
188.6866
20
32.9706
0
VERTEX
8
CUT
10
188.6981
20
32.9207
0
VERTEX
8
CUT
10
188.7148
20
32.8374
0
VERTEX
8
CUT
10
188.7202
20
32.8080
0
VERTEX
8
CUT
10
188.7216
20
32.7996
0
VERTEX
8
CUT
10
188.7235
20
32.7887
0
VERTEX
8
CUT
10
188.7344
20
32.7301
0
VERTEX
8
CUT
10
188.7360
20
32.7209
0
VERTEX
8
CUT
10
188.7390
20
32.7036
0
VERTEX
8
CUT
10
188.7401
20
32.6978
0
VERTEX
8
CUT
10
188.7424
20
32.6852
0
VERTEX
8
CUT
10
188.7458
20
32.6680
0
VERTEX
8
CUT
10
188.7854
20
32.4841
0
VERTEX
8
CUT
10
188.8008
20
32.4266
0
VERTEX
8
CUT
10
188.8584
20
32.2475
0
VERTEX
8
CUT
10
188.8794
20
32.1918
0
VERTEX
8
CUT
10
188.9545
20
32.0193
0
VERTEX
8
CUT
10
188.9809
20
31.9659
0
VERTEX
8
CUT
10
189.0727
20
31.8017
0
VERTEX
8
CUT
10
189.1043
20
31.7512
0
VERTEX
8
CUT
10
189.2119
20
31.5969
0
VERTEX
8
CUT
10
189.2484
20
31.5498
0
VERTEX
8
CUT
10
189.3708
20
31.4069
0
VERTEX
8
CUT
10
189.4117
20
31.3637
0
VERTEX
8
CUT
10
189.5476
20
31.2336
0
VERTEX
8
CUT
10
189.5926
20
31.1946
0
VERTEX
8
CUT
10
189.7428
20
31.0770
0
VERTEX
8
CUT
10
189.7667
20
31.0593
0
VERTEX
8
CUT
10
189.8142
20
31.0257
0
VERTEX
8
CUT
10
189.8265
20
31.0173
0
VERTEX
8
CUT
10
189.9069
20
30.9635
0
VERTEX
8
CUT
10
189.9193
20
30.9554
0
VERTEX
8
CUT
10
192.4780
20
29.3336
0
VERTEX
8
CUT
10
192.4890
20
29.3269
0
VERTEX
8
CUT
10
192.5605
20
29.2836
0
VERTEX
8
CUT
10
192.5716
20
29.2771
0
VERTEX
8
CUT
10
192.6152
20
29.2520
0
VERTEX
8
CUT
10
192.6378
20
29.2397
0
VERTEX
8
CUT
10
192.7861
20
29.1626
0
VERTEX
8
CUT
10
192.8092
20
29.1512
0
VERTEX
8
CUT
10
192.8548
20
29.1300
0
VERTEX
8
CUT
10
192.8665
20
29.1247
0
VERTEX
8
CUT
10
192.9430
20
29.0910
0
VERTEX
8
CUT
10
192.9549
20
29.0859
0
VERTEX
8
CUT
10
197.0397
20
27.3908
0
VERTEX
8
CUT
10
197.0530
20
27.3855
0
VERTEX
8
CUT
10
197.1392
20
27.3521
0
VERTEX
8
CUT
10
197.1525
20
27.3471
0
VERTEX
8
CUT
10
197.2048
20
27.3282
0
VERTEX
8
CUT
10
197.2318
20
27.3192
0
VERTEX
8
CUT
10
197.4062
20
27.2656
0
VERTEX
8
CUT
10
197.4613
20
27.2514
0
VERTEX
8
CUT
10
197.6375
20
27.2151
0
VERTEX
8
CUT
10
197.6937
20
27.2062
0
VERTEX
8
CUT
10
197.8726
20
27.1867
0
VERTEX
8
CUT
10
197.9294
20
27.1832
0
VERTEX
8
CUT
10
198.1093
20
27.1807
0
VERTEX
8
CUT
10
198.1662
20
27.1826
0
VERTEX
8
CUT
10
198.3455
20
27.1972
0
VERTEX
8
CUT
10
198.4019
20
27.2045
0
VERTEX
8
CUT
10
198.5791
20
27.2360
0
VERTEX
8
CUT
10
198.6346
20
27.2486
0
VERTEX
8
CUT
10
198.8104
20
27.2974
0
VERTEX
8
CUT
10
198.8376
20
27.3057
0
VERTEX
8
CUT
10
198.8904
20
27.3230
0
VERTEX
8
CUT
10
198.9038
20
27.3277
0
VERTEX
8
CUT
10
198.9910
20
27.3587
0
VERTEX
8
CUT
10
199.0043
20
27.3636
0
VERTEX
8
CUT
10
199.9499
20
27.7257
0
VERTEX
8
CUT
10
199.9601
20
27.7295
0
VERTEX
8
CUT
10
199.9760
20
27.7354
0
VERTEX
8
CUT
10
200.0023
20
27.7446
0
VERTEX
8
CUT
10
200.0379
20
27.7565
0
VERTEX
8
CUT
10
200.0696
20
27.7665
0
VERTEX
8
CUT
10
200.0741
20
27.7678
0
VERTEX
8
CUT
10
200.1308
20
27.7825
0
VERTEX
8
CUT
10
200.2086
20
27.7999
0
VERTEX
8
CUT
10
200.2831
20
27.8133
0
VERTEX
8
CUT
10
200.3360
20
27.8206
0
VERTEX
8
CUT
10
200.3800
20
27.8255
0
VERTEX
8
CUT
10
200.3944
20
27.8268
0
VERTEX
8
CUT
10
200.4053
20
27.8277
0
VERTEX
8
CUT
10
200.7067
20
27.8503
0
VERTEX
8
CUT
10
200.7214
20
27.8516
0
VERTEX
8
CUT
10
200.8169
20
27.8611
0
VERTEX
8
CUT
10
200.8316
20
27.8628
0
VERTEX
8
CUT
10
200.8888
20
27.8699
0
VERTEX
8
CUT
10
200.9180
20
27.8743
0
VERTEX
8
CUT
10
201.1045
20
27.9070
0
VERTEX
8
CUT
10
201.1621
20
27.9200
0
VERTEX
8
CUT
10
201.3419
20
27.9701
0
VERTEX
8
CUT
10
201.3979
20
27.9888
0
VERTEX
8
CUT
10
201.5719
20
28.0564
0
VERTEX
8
CUT
10
201.6259
20
28.0804
0
VERTEX
8
CUT
10
201.7924
20
28.1648
0
VERTEX
8
CUT
10
201.8437
20
28.1940
0
VERTEX
8
CUT
10
202.0012
20
28.2943
0
VERTEX
8
CUT
10
202.0494
20
28.3285
0
VERTEX
8
CUT
10
202.1962
20
28.4438
0
VERTEX
8
CUT
10
202.2408
20
28.4825
0
VERTEX
8
CUT
10
202.3755
20
28.6116
0
VERTEX
8
CUT
10
202.4161
20
28.6545
0
VERTEX
8
CUT
10
202.5375
20
28.7963
0
VERTEX
8
CUT
10
202.5737
20
28.8430
0
VERTEX
8
CUT
10
202.6806
20
28.9961
0
VERTEX
8
CUT
10
202.7120
20
29.0461
0
VERTEX
8
CUT
10
202.8033
20
29.2089
0
VERTEX
8
CUT
10
202.8296
20
29.2618
0
VERTEX
8
CUT
10
202.9045
20
29.4328
0
VERTEX
8
CUT
10
202.9255
20
29.4880
0
VERTEX
8
CUT
10
202.9841
20
29.6680
0
VERTEX
8
CUT
10
202.9925
20
29.6963
0
VERTEX
8
CUT
10
203.0123
20
29.7692
0
VERTEX
8
CUT
10
203.0189
20
29.7923
0
VERTEX
8
CUT
10
203.0258
20
29.8154
0
VERTEX
8
CUT
10
203.0277
20
29.8218
0
VERTEX
8
CUT
10
203.0288
20
29.8254
0
VERTEX
8
CUT
10
203.0293
20
29.8269
0
VERTEX
8
CUT
10
203.0338
20
29.8427
0
VERTEX
8
CUT
10
203.0451
20
29.8796
0
VERTEX
8
CUT
10
203.0643
20
29.9357
0
VERTEX
8
CUT
10
203.0897
20
30.0029
0
VERTEX
8
CUT
10
203.1084
20
30.0484
0
VERTEX
8
CUT
10
203.1148
20
30.0629
0
VERTEX
8
CUT
10
203.1198
20
30.0739
0
VERTEX
8
CUT
10
203.3073
20
30.4825
0
VERTEX
8
CUT
10
203.3125
20
30.4937
0
VERTEX
8
CUT
10
203.3197
20
30.5087
0
VERTEX
8
CUT
10
203.3421
20
30.5527
0
VERTEX
8
CUT
10
203.3814
20
30.6249
0
VERTEX
8
CUT
10
203.3995
20
30.6565
0
VERTEX
8
CUT
10
203.4188
20
30.6873
0
VERTEX
8
CUT
10
203.4639
20
30.7561
0
VERTEX
8
CUT
10
203.4921
20
30.7966
0
VERTEX
8
CUT
10
203.5020
20
30.8099
0
VERTEX
8
CUT
10
203.5094
20
30.8198
0
VERTEX
8
CUT
10
207.2982
20
35.8088
0
VERTEX
8
CUT
10
207.3101
20
35.8251
0
VERTEX
8
CUT
10
207.3857
20
35.9318
0
VERTEX
8
CUT
10
207.3970
20
35.9484
0
VERTEX
8
CUT
10
207.4873
20
36.0855
0
VERTEX
8
CUT
10
207.4981
20
36.1025
0
VERTEX
8
CUT
10
207.5663
20
36.2141
0
VERTEX
8
CUT
10
207.5765
20
36.2314
0
VERTEX
8
CUT
10
209.1178
20
38.9530
0
VERTEX
8
CUT
10
209.1244
20
38.9649
0
VERTEX
8
CUT
10
209.1665
20
39.0432
0
VERTEX
8
CUT
10
209.1728
20
39.0553
0
VERTEX
8
CUT
10
209.2233
20
39.1548
0
VERTEX
8
CUT
10
209.2293
20
39.1671
0
VERTEX
8
CUT
10
209.2677
20
39.2472
0
VERTEX
8
CUT
10
209.2735
20
39.2596
0
VERTEX
8
CUT
10
210.6770
20
42.3675
0
VERTEX
8
CUT
10
210.6827
20
42.3806
0
VERTEX
8
CUT
10
210.7189
20
42.4663
0
VERTEX
8
CUT
10
210.7244
20
42.4795
0
VERTEX
8
CUT
10
210.7673
20
42.5881
0
VERTEX
8
CUT
10
210.7724
20
42.6014
0
VERTEX
8
CUT
10
210.8045
20
42.6887
0
VERTEX
8
CUT
10
210.8093
20
42.7022
0
VERTEX
8
CUT
10
211.2685
20
44.0483
0
VERTEX
8
CUT
10
211.2835
20
44.0890
0
VERTEX
8
CUT
10
211.3128
20
44.1629
0
VERTEX
8
CUT
10
211.3485
20
44.2419
0
VERTEX
8
CUT
10
211.3749
20
44.2933
0
VERTEX
8
CUT
10
211.4181
20
44.3685
0
VERTEX
8
CUT
10
211.4492
20
44.4171
0
VERTEX
8
CUT
10
211.4995
20
44.4878
0
VERTEX
8
CUT
10
211.5352
20
44.5332
0
VERTEX
8
CUT
10
211.5920
20
44.5987
0
VERTEX
8
CUT
10
211.6319
20
44.6405
0
VERTEX
8
CUT
10
211.6948
20
44.7002
0
VERTEX
8
CUT
10
211.7385
20
44.7379
0
VERTEX
8
CUT
10
211.8068
20
44.7914
0
VERTEX
8
CUT
10
211.8540
20
44.8247
0
VERTEX
8
CUT
10
211.9271
20
44.8713
0
VERTEX
8
CUT
10
211.9773
20
44.8999
0
VERTEX
8
CUT
10
212.0546
20
44.9392
0
VERTEX
8
CUT
10
212.1072
20
44.9629
0
VERTEX
8
CUT
10
212.1880
20
44.9946
0
VERTEX
8
CUT
10
212.2427
20
45.0131
0
VERTEX
8
CUT
10
212.3261
20
45.0369
0
VERTEX
8
CUT
10
212.4035
20
45.0550
0
VERTEX
8
CUT
10
212.4459
20
45.0638
0
VERTEX
8
CUT
10
212.5074
20
45.0751
0
VERTEX
8
CUT
10
212.5634
20
45.0882
0
VERTEX
8
CUT
10
212.7384
20
45.1380
0
VERTEX
8
CUT
10
212.7929
20
45.1564
0
VERTEX
8
CUT
10
212.9623
20
45.2227
0
VERTEX
8
CUT
10
213.0148
20
45.2462
0
VERTEX
8
CUT
10
213.1770
20
45.3285
0
VERTEX
8
CUT
10
213.2270
20
45.3569
0
VERTEX
8
CUT
10
213.3807
20
45.4543
0
VERTEX
8
CUT
10
213.4277
20
45.4874
0
VERTEX
8
CUT
10
213.5713
20
45.5991
0
VERTEX
8
CUT
10
213.6150
20
45.6366
0
VERTEX
8
CUT
10
213.7472
20
45.7615
0
VERTEX
8
CUT
10
213.7871
20
45.8029
0
VERTEX
8
CUT
10
213.9068
20
45.9399
0
VERTEX
8
CUT
10
213.9425
20
45.9850
0
VERTEX
8
CUT
10
214.0485
20
46.1329
0
VERTEX
8
CUT
10
214.0797
20
46.1812
0
VERTEX
8
CUT
10
214.1723
20
46.3407
0
VERTEX
8
CUT
10
214.1862
20
46.3659
0
VERTEX
8
CUT
10
214.2120
20
46.4158
0
VERTEX
8
CUT
10
214.2185
20
46.4286
0
VERTEX
8
CUT
10
214.2595
20
46.5126
0
VERTEX
8
CUT
10
214.2657
20
46.5257
0
VERTEX
8
CUT
10
214.6087
20
47.2733
0
VERTEX
8
CUT
10
214.6141
20
47.2848
0
VERTEX
8
CUT
10
214.6232
20
47.3039
0
VERTEX
8
CUT
10
214.6463
20
47.3492
0
VERTEX
8
CUT
10
214.6877
20
47.4249
0
VERTEX
8
CUT
10
214.7068
20
47.4580
0
VERTEX
8
CUT
10
214.7088
20
47.4614
0
VERTEX
8
CUT
10
214.7293
20
47.4936
0
VERTEX
8
CUT
10
214.7769
20
47.5655
0
VERTEX
8
CUT
10
214.8063
20
47.6071
0
VERTEX
8
CUT
10
214.8189
20
47.6240
0
VERTEX
8
CUT
10
214.8266
20
47.6342
0
VERTEX
8
CUT
10
215.7743
20
48.8640
0
VERTEX
8
CUT
10
215.7844
20
48.8775
0
VERTEX
8
CUT
10
215.7848
20
48.8781
0
VERTEX
8
CUT
10
215.8485
20
48.9656
0
VERTEX
8
CUT
10
215.8581
20
48.9793
0
VERTEX
8
CUT
10
215.8951
20
49.0333
0
VERTEX
8
CUT
10
215.9133
20
49.0615
0
VERTEX
8
CUT
10
216.0261
20
49.2477
0
VERTEX
8
CUT
10
216.0427
20
49.2769
0
VERTEX
8
CUT
10
216.0734
20
49.3346
0
VERTEX
8
CUT
10
216.0811
20
49.3495
0
VERTEX
8
CUT
10
216.1295
20
49.4471
0
VERTEX
8
CUT
10
216.1368
20
49.4622
0
VERTEX
8
CUT
10
216.7917
20
50.8793
0
VERTEX
8
CUT
10
216.7990
20
50.8956
0
VERTEX
8
CUT
10
216.8447
20
51.0027
0
VERTEX
8
CUT
10
216.8515
20
51.0193
0
VERTEX
8
CUT
10
216.9047
20
51.1554
0
VERTEX
8
CUT
10
216.9110
20
51.1722
0
VERTEX
8
CUT
10
216.9502
20
51.2818
0
VERTEX
8
CUT
10
216.9560
20
51.2988
0
VERTEX
8
CUT
10
217.8627
20
54.0957
0
VERTEX
8
CUT
10
217.8659
20
54.1057
0
VERTEX
8
CUT
10
217.8871
20
54.1754
0
VERTEX
8
CUT
10
217.8903
20
54.1862
0
VERTEX
8
CUT
10
217.9152
20
54.2735
0
VERTEX
8
CUT
10
217.9181
20
54.2841
0
VERTEX
8
CUT
10
217.9365
20
54.3535
0
VERTEX
8
CUT
10
217.9394
20
54.3649
0
VERTEX
8
CUT
10
218.6868
20
57.4273
0
VERTEX
8
CUT
10
218.6892
20
57.4379
0
VERTEX
8
CUT
10
218.7058
20
57.5115
0
VERTEX
8
CUT
10
218.7082
20
57.5225
0
VERTEX
8
CUT
10
218.7181
20
57.5710
0
VERTEX
8
CUT
10
218.7225
20
57.5944
0
VERTEX
8
CUT
10
218.7466
20
57.7411
0
VERTEX
8
CUT
10
218.7499
20
57.7638
0
VERTEX
8
CUT
10
218.7548
20
57.8033
0
VERTEX
8
CUT
10
218.7560
20
57.8141
0
VERTEX
8
CUT
10
218.7640
20
57.8883
0
VERTEX
8
CUT
10
218.7652
20
57.9003
0
VERTEX
8
CUT
10
218.8682
20
59.0896
0
VERTEX
8
CUT
10
218.8691
20
59.1019
0
VERTEX
8
CUT
10
218.8744
20
59.1817
0
VERTEX
8
CUT
10
218.8750
20
59.1940
0
VERTEX
8
CUT
10
218.8772
20
59.2420
0
VERTEX
8
CUT
10
218.8778
20
59.2666
0
VERTEX
8
CUT
10
218.8785
20
59.4265
0
VERTEX
8
CUT
10
218.8781
20
59.4511
0
VERTEX
8
CUT
10
218.8763
20
59.4992
0
VERTEX
8
CUT
10
218.8758
20
59.5115
0
VERTEX
8
CUT
10
218.8712
20
59.5914
0
VERTEX
8
CUT
10
218.8704
20
59.6037
0
VERTEX
8
CUT
10
218.7968
20
60.5472
0
VERTEX
8
CUT
10
218.7952
20
60.5650
0
VERTEX
8
CUT
10
218.7828
20
60.6799
0
VERTEX
8
CUT
10
218.7806
20
60.6976
0
VERTEX
8
CUT
10
218.7607
20
60.8413
0
VERTEX
8
CUT
10
218.7581
20
60.8589
0
VERTEX
8
CUT
10
218.7389
20
60.9730
0
VERTEX
8
CUT
10
218.7356
20
60.9905
0
VERTEX
8
CUT
10
218.6103
20
61.6202
0
VERTEX
8
CUT
10
218.6070
20
61.6358
0
VERTEX
8
CUT
10
218.5842
20
61.7365
0
VERTEX
8
CUT
10
218.5805
20
61.7519
0
VERTEX
8
CUT
10
218.5652
20
61.8120
0
VERTEX
8
CUT
10
218.5565
20
61.8426
0
VERTEX
8
CUT
10
218.4959
20
62.0370
0
VERTEX
8
CUT
10
218.4737
20
62.0966
0
VERTEX
8
CUT
10
218.3940
20
62.2809
0
VERTEX
8
CUT
10
218.3657
20
62.3378
0
VERTEX
8
CUT
10
218.2669
20
62.5127
0
VERTEX
8
CUT
10
218.2328
20
62.5663
0
VERTEX
8
CUT
10
218.1144
20
62.7320
0
VERTEX
8
CUT
10
218.0953
20
62.7574
0
VERTEX
8
CUT
10
218.0566
20
62.8058
0
VERTEX
8
CUT
10
218.0465
20
62.8181
0
VERTEX
8
CUT
10
217.9800
20
62.8972
0
VERTEX
8
CUT
10
217.9696
20
62.9092
0
VERTEX
8
CUT
10
216.9686
20
64.0362
0
VERTEX
8
CUT
10
216.9584
20
64.0479
0
VERTEX
8
CUT
10
216.9348
20
64.0755
0
VERTEX
8
CUT
10
216.9248
20
64.0874
0
VERTEX
8
CUT
10
216.9127
20
64.1020
0
VERTEX
8
CUT
10
216.9028
20
64.1141
0
VERTEX
8
CUT
10
216.8802
20
64.1424
0
VERTEX
8
CUT
10
216.8706
20
64.1547
0
VERTEX
8
CUT
10
216.8538
20
64.1764
0
VERTEX
8
CUT
10
216.8444
20
64.1888
0
VERTEX
8
CUT
10
216.8227
20
64.2180
0
VERTEX
8
CUT
10
216.8135
20
64.2305
0
VERTEX
8
CUT
10
216.8024
20
64.2459
0
VERTEX
8
CUT
10
216.7935
20
64.2587
0
VERTEX
8
CUT
10
216.7728
20
64.2885
0
VERTEX
8
CUT
10
216.7641
20
64.3014
0
VERTEX
8
CUT
10
216.4244
20
64.8110
0
VERTEX
8
CUT
10
216.4000
20
64.8498
0
VERTEX
8
CUT
10
216.3570
20
64.9219
0
VERTEX
8
CUT
10
216.3142
20
65.0029
0
VERTEX
8
CUT
10
216.2885
20
65.0583
0
VERTEX
8
CUT
10
216.2542
20
65.1432
0
VERTEX
8
CUT
10
216.2342
20
65.2009
0
VERTEX
8
CUT
10
216.2087
20
65.2889
0
VERTEX
8
CUT
10
216.1947
20
65.3483
0
VERTEX
8
CUT
10
216.1783
20
65.4384
0
VERTEX
8
CUT
10
216.1704
20
65.4989
0
VERTEX
8
CUT
10
216.1632
20
65.5903
0
VERTEX
8
CUT
10
216.1609
20
65.6742
0
VERTEX
8
CUT
10
216.1608
20
65.7201
0
VERTEX
8
CUT
10
216.3221
20
72.6027
0
VERTEX
8
CUT
10
216.3222
20
72.6097
0
VERTEX
8
CUT
10
216.3228
20
72.6585
0
VERTEX
8
CUT
10
216.3228
20
72.6661
0
VERTEX
8
CUT
10
216.3228
20
72.7269
0
VERTEX
8
CUT
10
216.3227
20
72.7343
0
VERTEX
8
CUT
10
216.3221
20
72.7824
0
VERTEX
8
CUT
10
216.3219
20
72.7903
0
VERTEX
8
CUT
10
216.1921
20
77.7291
0
VERTEX
8
CUT
10
216.1916
20
77.7422
0
VERTEX
8
CUT
10
216.1876
20
77.8269
0
VERTEX
8
CUT
10
216.1868
20
77.8399
0
VERTEX
8
CUT
10
216.1832
20
77.8908
0
VERTEX
8
CUT
10
216.1809
20
77.9168
0
VERTEX
8
CUT
10
216.1617
20
78.0852
0
VERTEX
8
CUT
10
216.1582
20
78.1111
0
VERTEX
8
CUT
10
216.1502
20
78.1614
0
VERTEX
8
CUT
10
216.1480
20
78.1743
0
VERTEX
8
CUT
10
216.1330
20
78.2578
0
VERTEX
8
CUT
10
216.1305
20
78.2706
0
VERTEX
8
CUT
10
215.7574
20
80.1085
0
VERTEX
8
CUT
10
215.7544
20
80.1226
0
VERTEX
8
CUT
10
215.7334
20
80.2146
0
VERTEX
8
CUT
10
215.7300
20
80.2287
0
VERTEX
8
CUT
10
215.7009
20
80.3434
0
VERTEX
8
CUT
10
215.6971
20
80.3574
0
VERTEX
8
CUT
10
215.6717
20
80.4482
0
VERTEX
8
CUT
10
215.6677
20
80.4621
0
VERTEX
8
CUT
10
214.9794
20
82.7111
0
VERTEX
8
CUT
10
214.9760
20
82.7218
0
VERTEX
8
CUT
10
214.9517
20
82.7962
0
VERTEX
8
CUT
10
214.9479
20
82.8073
0
VERTEX
8
CUT
10
214.9310
20
82.8558
0
VERTEX
8
CUT
10
214.9224
20
82.8790
0
VERTEX
8
CUT
10
214.8657
20
83.0225
0
VERTEX
8
CUT
10
214.8565
20
83.0445
0
VERTEX
8
CUT
10
214.8398
20
83.0822
0
VERTEX
8
CUT
10
214.8352
20
83.0924
0
VERTEX
8
CUT
10
214.8026
20
83.1627
0
VERTEX
8
CUT
10
214.7972
20
83.1740
0
VERTEX
8
CUT
10
213.4763
20
85.8686
0
VERTEX
8
CUT
10
213.4691
20
85.8828
0
VERTEX
8
CUT
10
213.4209
20
85.9748
0
VERTEX
8
CUT
10
213.4133
20
85.9888
0
VERTEX
8
CUT
10
213.3829
20
86.0433
0
VERTEX
8
CUT
10
213.3666
20
86.0708
0
VERTEX
8
CUT
10
213.2560
20
86.2463
0
VERTEX
8
CUT
10
213.2383
20
86.2729
0
VERTEX
8
CUT
10
213.2023
20
86.3238
0
VERTEX
8
CUT
10
213.1929
20
86.3367
0
VERTEX
8
CUT
10
213.1307
20
86.4198
0
VERTEX
8
CUT
10
213.1209
20
86.4325
0
VERTEX
8
CUT
10
212.0202
20
87.8253
0
VERTEX
8
CUT
10
212.0079
20
87.8404
0
VERTEX
8
CUT
10
211.9262
20
87.9371
0
VERTEX
8
CUT
10
211.9133
20
87.9518
0
VERTEX
8
CUT
10
211.8069
20
88.0698
0
VERTEX
8
CUT
10
211.7936
20
88.0841
0
VERTEX
8
CUT
10
211.7058
20
88.1753
0
VERTEX
8
CUT
10
211.6921
20
88.1891
0
VERTEX
8
CUT
10
209.9357
20
89.8992
0
VERTEX
8
CUT
10
209.9247
20
89.9096
0
VERTEX
8
CUT
10
209.8523
20
89.9766
0
VERTEX
8
CUT
10
209.8411
20
89.9868
0
VERTEX
8
CUT
10
209.7481
20
90.0686
0
VERTEX
8
CUT
10
209.7366
20
90.0785
0
VERTEX
8
CUT
10
209.6609
20
90.1417
0
VERTEX
8
CUT
10
209.6491
20
90.1513
0
VERTEX
8
CUT
10
209.1647
20
90.5358
0
VERTEX
8
CUT
10
209.1511
20
90.5463
0
VERTEX
8
CUT
10
209.0617
20
90.6131
0
VERTEX
8
CUT
10
209.0478
20
90.6232
0
VERTEX
8
CUT
10
208.9931
20
90.6618
0
VERTEX
8
CUT
10
208.9644
20
90.6807
0
VERTEX
8
CUT
10
208.7750
20
90.7985
0
VERTEX
8
CUT
10
208.7454
20
90.8158
0
VERTEX
8
CUT
10
208.6866
20
90.8479
0
VERTEX
8
CUT
10
208.6714
20
90.8559
0
VERTEX
8
CUT
10
208.5719
20
90.9065
0
VERTEX
8
CUT
10
208.5565
20
90.9140
0
VERTEX
8
CUT
10
207.6088
20
91.3623
0
VERTEX
8
CUT
10
207.5924
20
91.3698
0
VERTEX
8
CUT
10
207.4845
20
91.4169
0
VERTEX
8
CUT
10
207.4678
20
91.4239
0
VERTEX
8
CUT
10
207.3307
20
91.4789
0
VERTEX
8
CUT
10
207.3138
20
91.4854
0
VERTEX
8
CUT
10
207.2033
20
91.5259
0
VERTEX
8
CUT
10
207.1862
20
91.5319
0
VERTEX
8
CUT
10
206.0717
20
91.9026
0
VERTEX
8
CUT
10
206.0617
20
91.9058
0
VERTEX
8
CUT
10
205.9917
20
91.9278
0
VERTEX
8
CUT
10
205.9813
20
91.9309
0
VERTEX
8
CUT
10
205.9351
20
91.9445
0
VERTEX
8
CUT
10
205.9128
20
91.9506
0
VERTEX
8
CUT
10
205.7727
20
91.9858
0
VERTEX
8
CUT
10
205.7510
20
91.9909
0
VERTEX
8
CUT
10
205.7132
20
91.9989
0
VERTEX
8
CUT
10
205.7029
20
92.0010
0
VERTEX
8
CUT
10
205.6317
20
92.0149
0
VERTEX
8
CUT
10
205.6202
20
92.0170
0
VERTEX
8
CUT
10
203.8241
20
92.3300
0
VERTEX
8
CUT
10
203.8086
20
92.3325
0
VERTEX
8
CUT
10
203.7077
20
92.3474
0
VERTEX
8
CUT
10
203.6922
20
92.3494
0
VERTEX
8
CUT
10
203.6314
20
92.3568
0
VERTEX
8
CUT
10
203.6001
20
92.3597
0
VERTEX
8
CUT
10
203.3995
20
92.3734
0
VERTEX
8
CUT
10
203.3368
20
92.3743
0
VERTEX
8
CUT
10
203.1359
20
92.3670
0
VERTEX
8
CUT
10
203.1046
20
92.3650
0
VERTEX
8
CUT
10
203.0436
20
92.3595
0
VERTEX
8
CUT
10
203.0280
20
92.3579
0
VERTEX
8
CUT
10
202.9267
20
92.3462
0
VERTEX
8
CUT
10
202.9111
20
92.3442
0
VERTEX
8
CUT
10
202.7308
20
92.3186
0
VERTEX
8
CUT
10
202.7160
20
92.3163
0
VERTEX
8
CUT
10
202.6199
20
92.3001
0
VERTEX
8
CUT
10
202.6052
20
92.2975
0
VERTEX
8
CUT
10
202.5477
20
92.2863
0
VERTEX
8
CUT
10
202.5185
20
92.2799
0
VERTEX
8
CUT
10
202.3319
20
92.2340
0
VERTEX
8
CUT
10
202.2745
20
92.2168
0
VERTEX
8
CUT
10
202.0960
20
92.1534
0
VERTEX
8
CUT
10
202.0406
20
92.1305
0
VERTEX
8
CUT
10
201.8692
20
92.0497
0
VERTEX
8
CUT
10
201.8164
20
92.0214
0
VERTEX
8
CUT
10
201.6540
20
91.9238
0
VERTEX
8
CUT
10
201.6042
20
91.8904
0
VERTEX
8
CUT
10
201.4524
20
91.7771
0
VERTEX
8
CUT
10
201.4062
20
91.7389
0
VERTEX
8
CUT
10
201.2664
20
91.6110
0
VERTEX
8
CUT
10
201.2242
20
91.5684
0
VERTEX
8
CUT
10
201.0979
20
91.4272
0
VERTEX
8
CUT
10
201.0602
20
91.3806
0
VERTEX
8
CUT
10
200.9486
20
91.2275
0
VERTEX
8
CUT
10
200.9157
20
91.1774
0
VERTEX
8
CUT
10
200.8200
20
91.0139
0
VERTEX
8
CUT
10
200.7923
20
90.9608
0
VERTEX
8
CUT
10
200.7133
20
90.7886
0
VERTEX
8
CUT
10
200.6910
20
90.7329
0
VERTEX
8
CUT
10
200.6296
20
90.5537
0
VERTEX
8
CUT
10
200.6130
20
90.4961
0
VERTEX
8
CUT
10
200.5698
20
90.3116
0
VERTEX
8
CUT
10
200.5590
20
90.2527
0
VERTEX
8
CUT
10
200.5344
20
90.0648
0
VERTEX
8
CUT
10
200.5296
20
90.0051
0
VERTEX
8
CUT
10
200.5238
20
89.8157
0
VERTEX
8
CUT
10
200.5250
20
89.7558
0
VERTEX
8
CUT
10
200.5381
20
89.5668
0
VERTEX
8
CUT
10
200.5453
20
89.5073
0
VERTEX
8
CUT
10
200.5772
20
89.3205
0
VERTEX
8
CUT
10
200.5903
20
89.2620
0
VERTEX
8
CUT
10
200.6407
20
89.0794
0
VERTEX
8
CUT
10
200.6595
20
89.0225
0
VERTEX
8
CUT
10
200.7279
20
88.8458
0
VERTEX
8
CUT
10
200.7523
20
88.7911
0
VERTEX
8
CUT
10
200.8380
20
88.6221
0
VERTEX
8
CUT
10
200.8677
20
88.5700
0
VERTEX
8
CUT
10
200.9712
20
88.4082
0
VERTEX
8
CUT
10
200.9880
20
88.3834
0
VERTEX
8
CUT
10
201.0220
20
88.3357
0
VERTEX
8
CUT
10
201.0308
20
88.3236
0
VERTEX
8
CUT
10
201.0893
20
88.2457
0
VERTEX
8
CUT
10
201.0985
20
88.2339
0
VERTEX
8
CUT
10
201.3147
20
87.9604
0
VERTEX
8
CUT
10
201.3216
20
87.9516
0
VERTEX
8
CUT
10
201.3374
20
87.9311
0
VERTEX
8
CUT
10
201.3441
20
87.9222
0
VERTEX
8
CUT
10
201.3523
20
87.9114
0
VERTEX
8
CUT
10
201.3589
20
87.9025
0
VERTEX
8
CUT
10
201.3742
20
87.8815
0
VERTEX
8
CUT
10
201.3807
20
87.8725
0
VERTEX
8
CUT
10
201.3882
20
87.8621
0
VERTEX
8
CUT
10
201.3946
20
87.8530
0
VERTEX
8
CUT
10
201.4093
20
87.8317
0
VERTEX
8
CUT
10
201.4156
20
87.8226
0
VERTEX
8
CUT
10
201.4232
20
87.8113
0
VERTEX
8
CUT
10
201.4294
20
87.8021
0
VERTEX
8
CUT
10
201.4437
20
87.7804
0
VERTEX
8
CUT
10
201.4497
20
87.7711
0
VERTEX
8
CUT
10
202.4564
20
86.2016
0
VERTEX
8
CUT
10
202.4602
20
86.1956
0
VERTEX
8
CUT
10
202.4691
20
86.1814
0
VERTEX
8
CUT
10
202.4708
20
86.1788
0
VERTEX
8
CUT
10
202.4874
20
86.1511
0
VERTEX
8
CUT
10
202.5198
20
86.0949
0
VERTEX
8
CUT
10
202.5306
20
86.0755
0
VERTEX
8
CUT
10
202.5447
20
86.0480
0
VERTEX
8
CUT
10
202.5805
20
85.9744
0
VERTEX
8
CUT
10
202.5953
20
85.9425
0
VERTEX
8
CUT
10
203.2665
20
84.4150
0
VERTEX
8
CUT
10
203.2705
20
84.4058
0
VERTEX
8
CUT
10
203.2766
20
84.3915
0
VERTEX
8
CUT
10
203.2862
20
84.3680
0
VERTEX
8
CUT
10
203.2985
20
84.3368
0
VERTEX
8
CUT
10
203.3090
20
84.3088
0
VERTEX
8
CUT
10
203.3170
20
84.2861
0
VERTEX
8
CUT
10
203.3215
20
84.2732
0
VERTEX
8
CUT
10
203.3231
20
84.2684
0
VERTEX
8
CUT
10
203.3321
20
84.2402
0
VERTEX
8
CUT
10
203.3512
20
84.1772
0
VERTEX
8
CUT
10
203.3617
20
84.1392
0
VERTEX
8
CUT
10
203.3650
20
84.1263
0
VERTEX
8
CUT
10
203.3674
20
84.1167
0
VERTEX
8
CUT
10
203.6360
20
83.0118
0
VERTEX
8
CUT
10
203.6397
20
82.9973
0
VERTEX
8
CUT
10
203.6651
20
82.9031
0
VERTEX
8
CUT
10
203.6692
20
82.8887
0
VERTEX
8
CUT
10
203.6859
20
82.8325
0
VERTEX
8
CUT
10
203.6951
20
82.8039
0
VERTEX
8
CUT
10
203.7590
20
82.6224
0
VERTEX
8
CUT
10
203.7818
20
82.5669
0
VERTEX
8
CUT
10
203.8624
20
82.3951
0
VERTEX
8
CUT
10
203.8905
20
82.3421
0
VERTEX
8
CUT
10
203.9879
20
82.1792
0
VERTEX
8
CUT
10
204.0212
20
82.1292
0
VERTEX
8
CUT
10
204.1344
20
81.9769
0
VERTEX
8
CUT
10
204.1725
20
81.9306
0
VERTEX
8
CUT
10
204.3003
20
81.7903
0
VERTEX
8
CUT
10
204.3429
20
81.7480
0
VERTEX
8
CUT
10
204.4841
20
81.6212
0
VERTEX
8
CUT
10
204.5307
20
81.5833
0
VERTEX
8
CUT
10
204.6839
20
81.4713
0
VERTEX
8
CUT
10
204.7340
20
81.4383
0
VERTEX
8
CUT
10
204.8976
20
81.3421
0
VERTEX
8
CUT
10
204.9508
20
81.3143
0
VERTEX
8
CUT
10
205.1232
20
81.2349
0
VERTEX
8
CUT
10
205.1789
20
81.2126
0
VERTEX
8
CUT
10
205.3608
20
81.1500
0
VERTEX
8
CUT
10
205.3895
20
81.1409
0
VERTEX
8
CUT
10
205.4458
20
81.1246
0
VERTEX
8
CUT
10
205.4602
20
81.1206
0
VERTEX
8
CUT
10
205.5546
20
81.0959
0
VERTEX
8
CUT
10
205.5692
20
81.0923
0
VERTEX
8
CUT
10
206.0205
20
80.9860
0
VERTEX
8
CUT
10
206.0649
20
80.9743
0
VERTEX
8
CUT
10
206.1455
20
80.9509
0
VERTEX
8
CUT
10
206.2320
20
80.9210
0
VERTEX
8
CUT
10
206.2886
20
80.8981
0
VERTEX
8
CUT
10
206.3716
20
80.8595
0
VERTEX
8
CUT
10
206.4256
20
80.8310
0
VERTEX
8
CUT
10
206.5043
20
80.7842
0
VERTEX
8
CUT
10
206.5550
20
80.7504
0
VERTEX
8
CUT
10
206.6286
20
80.6957
0
VERTEX
8
CUT
10
206.6933
20
80.6423
0
VERTEX
8
CUT
10
206.7279
20
80.6123
0
VERTEX
8
CUT
10
206.7616
20
80.5815
0
VERTEX
8
CUT
10
206.7937
20
80.5507
0
VERTEX
8
CUT
10
206.8512
20
80.4926
0
VERTEX
8
CUT
10
206.9107
20
80.4263
0
VERTEX
8
CUT
10
206.9481
20
80.3802
0
VERTEX
8
CUT
10
207.0007
20
80.3083
0
VERTEX
8
CUT
10
207.0333
20
80.2588
0
VERTEX
8
CUT
10
207.0786
20
80.1820
0
VERTEX
8
CUT
10
207.1062
20
80.1295
0
VERTEX
8
CUT
10
207.1437
20
80.0486
0
VERTEX
8
CUT
10
207.1743
20
79.9729
0
VERTEX
8
CUT
10
207.1900
20
79.9312
0
VERTEX
8
CUT
10
207.6869
20
78.5025
0
VERTEX
8
CUT
10
207.6931
20
78.4855
0
VERTEX
8
CUT
10
207.7352
20
78.3754
0
VERTEX
8
CUT
10
207.7419
20
78.3585
0
VERTEX
8
CUT
10
207.7668
20
78.2990
0
VERTEX
8
CUT
10
207.7823
20
78.2590
0
VERTEX
8
CUT
10
207.8091
20
78.1851
0
VERTEX
8
CUT
10
207.8344
20
78.1032
0
VERTEX
8
CUT
10
207.8487
20
78.0478
0
VERTEX
8
CUT
10
207.8661
20
77.9638
0
VERTEX
8
CUT
10
207.8750
20
77.9074
0
VERTEX
8
CUT
10
207.8844
20
77.8221
0
VERTEX
8
CUT
10
207.8879
20
77.7651
0
VERTEX
8
CUT
10
207.8891
20
77.6793
0
VERTEX
8
CUT
10
207.8871
20
77.6222
0
VERTEX
8
CUT
10
207.8801
20
77.5367
0
VERTEX
8
CUT
10
207.8727
20
77.4801
0
VERTEX
8
CUT
10
207.8576
20
77.3956
0
VERTEX
8
CUT
10
207.8449
20
77.3399
0
VERTEX
8
CUT
10
207.8218
20
77.2573
0
VERTEX
8
CUT
10
207.8038
20
77.2031
0
VERTEX
8
CUT
10
207.7730
20
77.1230
0
VERTEX
8
CUT
10
207.7499
20
77.0707
0
VERTEX
8
CUT
10
207.7116
20
76.9940
0
VERTEX
8
CUT
10
207.6837
20
76.9442
0
VERTEX
8
CUT
10
207.6382
20
76.8714
0
VERTEX
8
CUT
10
207.6056
20
76.8245
0
VERTEX
8
CUT
10
207.5534
20
76.7564
0
VERTEX
8
CUT
10
207.4907
20
76.6821
0
VERTEX
8
CUT
10
207.4898
20
76.6810
0
VERTEX
8
CUT
10
207.3517
20
76.5168
0
VERTEX
8
CUT
10
207.3147
20
76.4680
0
VERTEX
8
CUT
10
207.2065
20
76.3089
0
VERTEX
8
CUT
10
207.1749
20
76.2568
0
VERTEX
8
CUT
10
207.0834
20
76.0875
0
VERTEX
8
CUT
10
207.0572
20
76.0325
0
VERTEX
8
CUT
10
206.9833
20
75.8548
0
VERTEX
8
CUT
10
206.9628
20
75.7975
0
VERTEX
8
CUT
10
206.9073
20
75.6131
0
VERTEX
8
CUT
10
206.8927
20
75.5540
0
VERTEX
8
CUT
10
206.8557
20
75.3624
0
VERTEX
8
CUT
10
206.8507
20
75.3324
0
VERTEX
8
CUT
10
206.8424
20
75.2735
0
VERTEX
8
CUT
10
206.8404
20
75.2584
0
VERTEX
8
CUT
10
206.8291
20
75.1601
0
VERTEX
8
CUT
10
206.8275
20
75.1449
0
VERTEX
8
CUT
10
206.7759
20
74.5691
0
VERTEX
8
CUT
10
206.7747
20
74.5561
0
VERTEX
8
CUT
10
206.7724
20
74.5345
0
VERTEX
8
CUT
10
206.7655
20
74.4826
0
VERTEX
8
CUT
10
206.7512
20
74.3953
0
VERTEX
8
CUT
10
206.7440
20
74.3567
0
VERTEX
8
CUT
10
206.7432
20
74.3528
0
VERTEX
8
CUT
10
206.7344
20
74.3146
0
VERTEX
8
CUT
10
206.7125
20
74.2287
0
VERTEX
8
CUT
10
206.6982
20
74.1785
0
VERTEX
8
CUT
10
206.6916
20
74.1578
0
VERTEX
8
CUT
10
206.6875
20
74.1454
0
VERTEX
8
CUT
10
206.5080
20
73.6068
0
VERTEX
8
CUT
10
205.9512
20
71.9369
0
VERTEX
8
CUT
10
205.9465
20
71.9233
0
VERTEX
8
CUT
10
205.9354
20
71.8917
0
VERTEX
8
CUT
10
205.9306
20
71.8782
0
VERTEX
8
CUT
10
205.9245
20
71.8617
0
VERTEX
8
CUT
10
205.9194
20
71.8483
0
VERTEX
8
CUT
10
205.9073
20
71.8171
0
VERTEX
8
CUT
10
205.9020
20
71.8037
0
VERTEX
8
CUT
10
205.8924
20
71.7802
0
VERTEX
8
CUT
10
205.8869
20
71.7669
0
VERTEX
8
CUT
10
205.8738
20
71.7360
0
VERTEX
8
CUT
10
205.8681
20
71.7228
0
VERTEX
8
CUT
10
205.8610
20
71.7068
0
VERTEX
8
CUT
10
205.8550
20
71.6937
0
VERTEX
8
CUT
10
205.8410
20
71.6633
0
VERTEX
8
CUT
10
205.8348
20
71.6503
0
VERTEX
8
CUT
10
204.6344
20
69.1624
0
VERTEX
8
CUT
10
204.6290
20
69.1510
0
VERTEX
8
CUT
10
204.5948
20
69.0761
0
VERTEX
8
CUT
10
204.5897
20
69.0645
0
VERTEX
8
CUT
10
204.5701
20
69.0191
0
VERTEX
8
CUT
10
204.5606
20
68.9956
0
VERTEX
8
CUT
10
204.5018
20
68.8419
0
VERTEX
8
CUT
10
204.4933
20
68.8181
0
VERTEX
8
CUT
10
204.4776
20
68.7711
0
VERTEX
8
CUT
10
204.4737
20
68.7591
0
VERTEX
8
CUT
10
204.4492
20
68.6805
0
VERTEX
8
CUT
10
204.4456
20
68.6684
0
VERTEX
8
CUT
10
204.3975
20
68.5018
0
VERTEX
8
CUT
10
204.3936
20
68.4874
0
VERTEX
8
CUT
10
204.3691
20
68.3939
0
VERTEX
8
CUT
10
204.3655
20
68.3795
0
VERTEX
8
CUT
10
204.3522
20
68.3229
0
VERTEX
8
CUT
10
204.3461
20
68.2938
0
VERTEX
8
CUT
10
204.3117
20
68.1063
0
VERTEX
8
CUT
10
204.3039
20
68.0474
0
VERTEX
8
CUT
10
204.2882
20
67.8574
0
VERTEX
8
CUT
10
204.2865
20
67.8277
0
VERTEX
8
CUT
10
204.2846
20
67.7696
0
VERTEX
8
CUT
10
204.2843
20
67.7548
0
VERTEX
8
CUT
10
204.2835
20
67.6581
0
VERTEX
8
CUT
10
204.2836
20
67.6432
0
VERTEX
8
CUT
10
204.2918
20
67.1575
0
VERTEX
8
CUT
10
204.2922
20
67.1424
0
VERTEX
8
CUT
10
204.2963
20
67.0444
0
VERTEX
8
CUT
10
204.2972
20
67.0293
0
VERTEX
8
CUT
10
204.3011
20
66.9705
0
VERTEX
8
CUT
10
204.3039
20
66.9405
0
VERTEX
8
CUT
10
204.3265
20
66.7484
0
VERTEX
8
CUT
10
204.3366
20
66.6890
0
VERTEX
8
CUT
10
204.3779
20
66.5027
0
VERTEX
8
CUT
10
204.3939
20
66.4446
0
VERTEX
8
CUT
10
204.4544
20
66.2609
0
VERTEX
8
CUT
10
204.4646
20
66.2325
0
VERTEX
8
CUT
10
204.4858
20
66.1776
0
VERTEX
8
CUT
10
204.4915
20
66.1636
0
VERTEX
8
CUT
10
204.5291
20
66.0730
0
VERTEX
8
CUT
10
204.5351
20
66.0591
0
VERTEX
8
CUT
10
204.9699
20
65.0834
0
VERTEX
8
CUT
10
204.9765
20
65.0691
0
VERTEX
8
CUT
10
205.0206
20
64.9768
0
VERTEX
8
CUT
10
205.0276
20
64.9627
0
VERTEX
8
CUT
10
205.0555
20
64.9079
0
VERTEX
8
CUT
10
205.0705
20
64.8802
0
VERTEX
8
CUT
10
205.1729
20
64.7032
0
VERTEX
8
CUT
10
205.1894
20
64.6763
0
VERTEX
8
CUT
10
205.2229
20
64.6248
0
VERTEX
8
CUT
10
205.2317
20
64.6117
0
VERTEX
8
CUT
10
205.2897
20
64.5274
0
VERTEX
8
CUT
10
205.2988
20
64.5146
0
VERTEX
8
CUT
10
208.8070
20
59.6948
0
VERTEX
8
CUT
10
208.8138
20
59.6852
0
VERTEX
8
CUT
10
208.8251
20
59.6694
0
VERTEX
8
CUT
10
208.8512
20
59.6304
0
VERTEX
8
CUT
10
208.8936
20
59.5633
0
VERTEX
8
CUT
10
208.9118
20
59.5333
0
VERTEX
8
CUT
10
208.9137
20
59.5301
0
VERTEX
8
CUT
10
208.9307
20
59.4993
0
VERTEX
8
CUT
10
208.9678
20
59.4291
0
VERTEX
8
CUT
10
208.9886
20
59.3871
0
VERTEX
8
CUT
10
208.9967
20
59.3695
0
VERTEX
8
CUT
10
209.0016
20
59.3588
0
VERTEX
8
CUT
10
210.3734
20
56.2940
0
VERTEX
8
CUT
10
210.3795
20
56.2800
0
VERTEX
8
CUT
10
210.3936
20
56.2470
0
VERTEX
8
CUT
10
210.3995
20
56.2329
0
VERTEX
8
CUT
10
210.4065
20
56.2156
0
VERTEX
8
CUT
10
210.4122
20
56.2013
0
VERTEX
8
CUT
10
210.4251
20
56.1680
0
VERTEX
8
CUT
10
210.4305
20
56.1536
0
VERTEX
8
CUT
10
210.4399
20
56.1282
0
VERTEX
8
CUT
10
210.4451
20
56.1137
0
VERTEX
8
CUT
10
210.4569
20
56.0800
0
VERTEX
8
CUT
10
210.4618
20
56.0654
0
VERTEX
8
CUT
10
210.4676
20
56.0477
0
VERTEX
8
CUT
10
210.4723
20
56.0331
0
VERTEX
8
CUT
10
210.4829
20
55.9989
0
VERTEX
8
CUT
10
210.4874
20
55.9842
0
VERTEX
8
CUT
10
210.9579
20
54.3756
0
VERTEX
8
CUT
10
210.9604
20
54.3669
0
VERTEX
8
CUT
10
210.9644
20
54.3524
0
VERTEX
8
CUT
10
210.9735
20
54.3174
0
VERTEX
8
CUT
10
210.9877
20
54.2579
0
VERTEX
8
CUT
10
210.9936
20
54.2314
0
VERTEX
8
CUT
10
210.9942
20
54.2286
0
VERTEX
8
CUT
10
210.9993
20
54.2020
0
VERTEX
8
CUT
10
211.0099
20
54.1417
0
VERTEX
8
CUT
10
211.0155
20
54.1060
0
VERTEX
8
CUT
10
211.0175
20
54.0911
0
VERTEX
8
CUT
10
211.0186
20
54.0821
0
VERTEX
8
CUT
10
211.1244
20
53.2329
0
VERTEX
8
CUT
10
211.1286
20
53.1916
0
VERTEX
8
CUT
10
211.1345
20
53.1157
0
VERTEX
8
CUT
10
211.1371
20
53.0327
0
VERTEX
8
CUT
10
211.1363
20
52.9774
0
VERTEX
8
CUT
10
211.1312
20
52.8945
0
VERTEX
8
CUT
10
211.1253
20
52.8395
0
VERTEX
8
CUT
10
211.1127
20
52.7574
0
VERTEX
8
CUT
10
211.1017
20
52.7032
0
VERTEX
8
CUT
10
211.0815
20
52.6226
0
VERTEX
8
CUT
10
211.0656
20
52.5696
0
VERTEX
8
CUT
10
211.0381
20
52.4912
0
VERTEX
8
CUT
10
211.0096
20
52.4207
0
VERTEX
8
CUT
10
210.9931
20
52.3825
0
VERTEX
8
CUT
10
210.4324
20
51.1604
0
VERTEX
8
CUT
10
210.4049
20
51.1056
0
VERTEX
8
CUT
10
210.3597
20
51.0224
0
VERTEX
8
CUT
10
210.3046
20
50.9338
0
VERTEX
8
CUT
10
210.2505
20
50.8571
0
VERTEX
8
CUT
10
210.2196
20
50.8159
0
VERTEX
8
CUT
10
210.1255
20
50.6975
0
VERTEX
8
CUT
10
210.0960
20
50.6623
0
VERTEX
8
CUT
10
210.0403
20
50.5991
0
VERTEX
8
CUT
10
209.9761
20
50.5334
0
VERTEX
8
CUT
10
209.9311
20
50.4919
0
VERTEX
8
CUT
10
209.8605
20
50.4330
0
VERTEX
8
CUT
10
209.8116
20
50.3963
0
VERTEX
8
CUT
10
209.7353
20
50.3450
0
VERTEX
8
CUT
10
209.6829
20
50.3134
0
VERTEX
8
CUT
10
209.6018
20
50.2701
0
VERTEX
8
CUT
10
209.5256
20
50.2343
0
VERTEX
8
CUT
10
209.4835
20
50.2158
0
VERTEX
8
CUT
10
209.4714
20
50.2109
0
VERTEX
8
CUT
10
209.4464
20
50.2000
0
VERTEX
8
CUT
10
209.2870
20
50.1262
0
VERTEX
8
CUT
10
209.2377
20
50.1005
0
VERTEX
8
CUT
10
209.0821
20
50.0101
0
VERTEX
8
CUT
10
209.0345
20
49.9793
0
VERTEX
8
CUT
10
208.8888
20
49.8752
0
VERTEX
8
CUT
10
208.8444
20
49.8401
0
VERTEX
8
CUT
10
208.7092
20
49.7226
0
VERTEX
8
CUT
10
208.6682
20
49.6835
0
VERTEX
8
CUT
10
208.5447
20
49.5538
0
VERTEX
8
CUT
10
208.5076
20
49.5110
0
VERTEX
8
CUT
10
208.3969
20
49.3703
0
VERTEX
8
CUT
10
208.3640
20
49.3242
0
VERTEX
8
CUT
10
208.2670
20
49.1736
0
VERTEX
8
CUT
10
208.2386
20
49.1246
0
VERTEX
8
CUT
10
208.1563
20
48.9656
0
VERTEX
8
CUT
10
208.1327
20
48.9141
0
VERTEX
8
CUT
10
208.0647
20
48.7458
0
VERTEX
8
CUT
10
208.0548
20
48.7193
0
VERTEX
8
CUT
10
208.0365
20
48.6670
0
VERTEX
8
CUT
10
208.0320
20
48.6536
0
VERTEX
8
CUT
10
208.0037
20
48.5660
0
VERTEX
8
CUT
10
207.9995
20
48.5525
0
VERTEX
8
CUT
10
207.9990
20
48.5509
0
VERTEX
8
CUT
10
207.9849
20
48.5073
0
VERTEX
8
CUT
10
207.9569
20
48.4282
0
VERTEX
8
CUT
10
207.9220
20
48.3435
0
VERTEX
8
CUT
10
207.8861
20
48.2677
0
VERTEX
8
CUT
10
207.8655
20
48.2268
0
VERTEX
8
CUT
10
207.8598
20
48.2161
0
VERTEX
8
CUT
10
207.8529
20
48.2030
0
VERTEX
8
CUT
10
207.8097
20
48.1174
0
VERTEX
8
CUT
10
207.8032
20
48.1041
0
VERTEX
8
CUT
10
207.7784
20
48.0520
0
VERTEX
8
CUT
10
207.7664
20
48.0251
0
VERTEX
8
CUT
10
207.7455
20
47.9748
0
VERTEX
8
CUT
10
207.7272
20
47.9338
0
VERTEX
8
CUT
10
207.6919
20
47.8595
0
VERTEX
8
CUT
10
207.6493
20
47.7804
0
VERTEX
8
CUT
10
207.6184
20
47.7293
0
VERTEX
8
CUT
10
207.5681
20
47.6548
0
VERTEX
8
CUT
10
207.5323
20
47.6070
0
VERTEX
8
CUT
10
207.4748
20
47.5380
0
VERTEX
8
CUT
10
207.4191
20
47.4774
0
VERTEX
8
CUT
10
207.3879
20
47.4451
0
VERTEX
8
CUT
10
207.3823
20
47.4396
0
VERTEX
8
CUT
10
207.3418
20
47.3955
0
VERTEX
8
CUT
10
207.2205
20
47.2497
0
VERTEX
8
CUT
10
207.2021
20
47.2263
0
VERTEX
8
CUT
10
207.1672
20
47.1799
0
VERTEX
8
CUT
10
207.1585
20
47.1679
0
VERTEX
8
CUT
10
207.1023
20
47.0892
0
VERTEX
8
CUT
10
207.0939
20
47.0769
0
VERTEX
8
CUT
10
206.5127
20
46.2171
0
VERTEX
8
CUT
10
206.5052
20
46.2062
0
VERTEX
8
CUT
10
206.4877
20
46.1811
0
VERTEX
8
CUT
10
206.4801
20
46.1704
0
VERTEX
8
CUT
10
206.4707
20
46.1574
0
VERTEX
8
CUT
10
206.4630
20
46.1467
0
VERTEX
8
CUT
10
206.4447
20
46.1221
0
VERTEX
8
CUT
10
206.4368
20
46.1116
0
VERTEX
8
CUT
10
206.4276
20
46.0996
0
VERTEX
8
CUT
10
206.4196
20
46.0893
0
VERTEX
8
CUT
10
206.4006
20
46.0652
0
VERTEX
8
CUT
10
206.3924
20
46.0549
0
VERTEX
8
CUT
10
206.3823
20
46.0425
0
VERTEX
8
CUT
10
206.3739
20
46.0323
0
VERTEX
8
CUT
10
206.3543
20
46.0088
0
VERTEX
8
CUT
10
206.3458
20
45.9988
0
VERTEX
8
CUT
10
205.2548
20
44.7326
0
VERTEX
8
CUT
10
205.2508
20
44.7280
0
VERTEX
8
CUT
10
205.2414
20
44.7172
0
VERTEX
8
CUT
10
205.2374
20
44.7126
0
VERTEX
8
CUT
10
205.2277
20
44.7017
0
VERTEX
8
CUT
10
205.2227
20
44.6961
0
VERTEX
8
CUT
10
205.2109
20
44.6830
0
VERTEX
8
CUT
10
205.2059
20
44.6775
0
VERTEX
8
CUT
10
205.2000
20
44.6711
0
VERTEX
8
CUT
10
205.1949
20
44.6655
0
VERTEX
8
CUT
10
205.1829
20
44.6527
0
VERTEX
8
CUT
10
205.1778
20
44.6472
0
VERTEX
8
CUT
10
205.1751
20
44.6444
0
VERTEX
8
CUT
10
205.1690
20
44.6379
0
VERTEX
8
CUT
10
205.1545
20
44.6230
0
VERTEX
8
CUT
10
205.1483
20
44.6166
0
VERTEX
8
CUT
10
203.3617
20
42.8033
0
VERTEX
8
CUT
10
203.3531
20
42.7947
0
VERTEX
8
CUT
10
203.3330
20
42.7748
0
VERTEX
8
CUT
10
203.3243
20
42.7664
0
VERTEX
8
CUT
10
203.3138
20
42.7562
0
VERTEX
8
CUT
10
203.3050
20
42.7479
0
VERTEX
8
CUT
10
203.2845
20
42.7287
0
VERTEX
8
CUT
10
203.2757
20
42.7206
0
VERTEX
8
CUT
10
203.2654
20
42.7112
0
VERTEX
8
CUT
10
203.2564
20
42.7031
0
VERTEX
8
CUT
10
203.2354
20
42.6844
0
VERTEX
8
CUT
10
203.2263
20
42.6765
0
VERTEX
8
CUT
10
203.2151
20
42.6668
0
VERTEX
8
CUT
10
203.2059
20
42.6590
0
VERTEX
8
CUT
10
203.1844
20
42.6409
0
VERTEX
8
CUT
10
203.1751
20
42.6332
0
VERTEX
8
CUT
10
202.0091
20
41.6798
0
VERTEX
8
CUT
10
202.0010
20
41.6733
0
VERTEX
8
CUT
10
201.9884
20
41.6632
0
VERTEX
8
CUT
10
201.9673
20
41.6469
0
VERTEX
8
CUT
10
201.9388
20
41.6255
0
VERTEX
8
CUT
10
201.9131
20
41.6069
0
VERTEX
8
CUT
10
201.9094
20
41.6043
0
VERTEX
8
CUT
10
201.8627
20
41.5738
0
VERTEX
8
CUT
10
201.7978
20
41.5343
0
VERTEX
8
CUT
10
201.7347
20
41.4993
0
VERTEX
8
CUT
10
201.6892
20
41.4763
0
VERTEX
8
CUT
10
201.6510
20
41.4582
0
VERTEX
8
CUT
10
201.6384
20
41.4526
0
VERTEX
8
CUT
10
201.6289
20
41.4484
0
VERTEX
8
CUT
10
200.2816
20
40.8656
0
VERTEX
8
CUT
10
200.2706
20
40.8610
0
VERTEX
8
CUT
10
200.2557
20
40.8547
0
VERTEX
8
CUT
10
200.2110
20
40.8375
0
VERTEX
8
CUT
10
200.1580
20
40.8187
0
VERTEX
8
CUT
10
200.0787
20
40.7945
0
VERTEX
8
CUT
10
200.0009
20
40.7747
0
VERTEX
8
CUT
10
199.9188
20
40.7578
0
VERTEX
8
CUT
10
199.8615
20
40.7487
0
VERTEX
8
CUT
10
199.8133
20
40.7425
0
VERTEX
8
CUT
10
199.7975
20
40.7408
0
VERTEX
8
CUT
10
199.7856
20
40.7397
0
VERTEX
8
CUT
10
197.1810
20
40.5070
0
VERTEX
8
CUT
10
197.1399
20
40.5043
0
VERTEX
8
CUT
10
197.0645
20
40.5010
0
VERTEX
8
CUT
10
196.9822
20
40.5012
0
VERTEX
8
CUT
10
196.9274
20
40.5039
0
VERTEX
8
CUT
10
196.8454
20
40.5116
0
VERTEX
8
CUT
10
196.7911
20
40.5192
0
VERTEX
8
CUT
10
196.7102
20
40.5344
0
VERTEX
8
CUT
10
196.6367
20
40.5517
0
VERTEX
8
CUT
10
196.5968
20
40.5621
0
VERTEX
8
CUT
10
193.8557
20
41.3417
0
VERTEX
8
CUT
10
193.8455
20
41.3446
0
VERTEX
8
CUT
10
193.8297
20
41.3493
0
VERTEX
8
CUT
10
193.8037
20
41.3575
0
VERTEX
8
CUT
10
193.7689
20
41.3690
0
VERTEX
8
CUT
10
193.7382
20
41.3798
0
VERTEX
8
CUT
10
193.7340
20
41.3813
0
VERTEX
8
CUT
10
193.6810
20
41.4029
0
VERTEX
8
CUT
10
193.6099
20
41.4346
0
VERTEX
8
CUT
10
193.5436
20
41.4674
0
VERTEX
8
CUT
10
193.4979
20
41.4925
0
VERTEX
8
CUT
10
193.4604
20
41.5142
0
VERTEX
8
CUT
10
193.4484
20
41.5215
0
VERTEX
8
CUT
10
193.4394
20
41.5271
0
VERTEX
8
CUT
10
190.5489
20
43.3434
0
VERTEX
8
CUT
10
190.5389
20
43.3497
0
VERTEX
8
CUT
10
190.5255
20
43.3584
0
VERTEX
8
CUT
10
190.4865
20
43.3851
0
VERTEX
8
CUT
10
190.4225
20
43.4314
0
VERTEX
8
CUT
10
190.3947
20
43.4525
0
VERTEX
8
CUT
10
190.3677
20
43.4746
0
VERTEX
8
CUT
10
190.3076
20
43.5258
0
VERTEX
8
CUT
10
190.2724
20
43.5574
0
VERTEX
8
CUT
10
190.2608
20
43.5684
0
VERTEX
8
CUT
10
190.2523
20
43.5766
0
VERTEX
8
CUT
10
187.4152
20
46.3353
0
VERTEX
8
CUT
10
187.4101
20
46.3404
0
VERTEX
8
CUT
10
187.3981
20
46.3522
0
VERTEX
8
CUT
10
187.3960
20
46.3544
0
VERTEX
8
CUT
10
187.3733
20
46.3778
0
VERTEX
8
CUT
10
187.3287
20
46.4254
0
VERTEX
8
CUT
10
187.3136
20
46.4420
0
VERTEX
8
CUT
10
187.2936
20
46.4658
0
VERTEX
8
CUT
10
187.2416
20
46.5299
0
VERTEX
8
CUT
10
187.2198
20
46.5579
0
VERTEX
8
CUT
10
184.4847
20
50.2168
0
VERTEX
8
CUT
10
184.4759
20
50.2288
0
VERTEX
8
CUT
10
184.4556
20
50.2569
0
VERTEX
8
CUT
10
184.4470
20
50.2691
0
VERTEX
8
CUT
10
184.4367
20
50.2838
0
VERTEX
8
CUT
10
184.4283
20
50.2960
0
VERTEX
8
CUT
10
184.4091
20
50.3246
0
VERTEX
8
CUT
10
184.4009
20
50.3370
0
VERTEX
8
CUT
10
184.3916
20
50.3512
0
VERTEX
8
CUT
10
184.3837
20
50.3637
0
VERTEX
8
CUT
10
184.3653
20
50.3930
0
VERTEX
8
CUT
10
184.3576
20
50.4056
0
VERTEX
8
CUT
10
184.3482
20
50.4211
0
VERTEX
8
CUT
10
184.3407
20
50.4338
0
VERTEX
8
CUT
10
184.3233
20
50.4637
0
VERTEX
8
CUT
10
184.3160
20
50.4766
0
VERTEX
8
CUT
10
183.9197
20
51.1847
0
VERTEX
8
CUT
10
183.9125
20
51.1973
0
VERTEX
8
CUT
10
183.8642
20
51.2788
0
VERTEX
8
CUT
10
183.8566
20
51.2913
0
VERTEX
8
CUT
10
183.8265
20
51.3395
0
VERTEX
8
CUT
10
183.8104
20
51.3639
0
VERTEX
8
CUT
10
183.7038
20
51.5173
0
VERTEX
8
CUT
10
183.6683
20
51.5634
0
VERTEX
8
CUT
10
183.5490
20
51.7038
0
VERTEX
8
CUT
10
183.5091
20
51.7463
0
VERTEX
8
CUT
10
183.3767
20
51.8745
0
VERTEX
8
CUT
10
183.3330
20
51.9129
0
VERTEX
8
CUT
10
183.1888
20
52.0276
0
VERTEX
8
CUT
10
183.1415
20
52.0616
0
VERTEX
8
CUT
10
182.9868
20
52.1618
0
VERTEX
8
CUT
10
182.9365
20
52.1911
0
VERTEX
8
CUT
10
182.8128
20
52.2551
0
VERTEX
8
CUT
10
182.7747
20
52.2760
0
VERTEX
8
CUT
10
182.7061
20
52.3158
0
VERTEX
8
CUT
10
182.6333
20
52.3629
0
VERTEX
8
CUT
10
182.5864
20
52.3965
0
VERTEX
8
CUT
10
182.5185
20
52.4504
0
VERTEX
8
CUT
10
182.4750
20
52.4884
0
VERTEX
8
CUT
10
182.4126
20
52.5485
0
VERTEX
8
CUT
10
182.3730
20
52.5905
0
VERTEX
8
CUT
10
182.3167
20
52.6564
0
VERTEX
8
CUT
10
182.2813
20
52.7020
0
VERTEX
8
CUT
10
182.2316
20
52.7729
0
VERTEX
8
CUT
10
182.2008
20
52.8218
0
VERTEX
8
CUT
10
182.1581
20
52.8972
0
VERTEX
8
CUT
10
182.1321
20
52.9487
0
VERTEX
8
CUT
10
182.0969
20
53.0279
0
VERTEX
8
CUT
10
182.0760
20
53.0817
0
VERTEX
8
CUT
10
182.0485
20
53.1639
0
VERTEX
8
CUT
10
182.0329
20
53.2195
0
VERTEX
8
CUT
10
182.0135
20
53.3040
0
VERTEX
8
CUT
10
182.0033
20
53.3608
0
VERTEX
8
CUT
10
181.9921
20
53.4467
0
VERTEX
8
CUT
10
181.9874
20
53.5042
0
VERTEX
8
CUT
10
181.9845
20
53.5909
0
VERTEX
8
CUT
10
181.9857
20
53.6703
0
VERTEX
8
CUT
10
181.9874
20
53.7136
0
VERTEX
8
CUT
10
182.0008
20
53.9241
0
VERTEX
8
CUT
10
182.0016
20
53.9822
0
VERTEX
8
CUT
10
181.9954
20
54.1659
0
VERTEX
8
CUT
10
181.9907
20
54.2238
0
VERTEX
8
CUT
10
181.9667
20
54.4061
0
VERTEX
8
CUT
10
181.9564
20
54.4633
0
VERTEX
8
CUT
10
181.9149
20
54.6423
0
VERTEX
8
CUT
10
181.8991
20
54.6983
0
VERTEX
8
CUT
10
181.8396
20
54.8749
0
VERTEX
8
CUT
10
181.8297
20
54.9022
0
VERTEX
8
CUT
10
181.8091
20
54.9550
0
VERTEX
8
CUT
10
181.8050
20
54.9651
0
VERTEX
8
CUT
10
181.7752
20
55.0372
0
VERTEX
8
CUT
10
181.7712
20
55.0467
0
VERTEX
8
CUT
10
181.7627
20
55.0664
0
VERTEX
8
CUT
10
181.7604
20
55.0718
0
VERTEX
8
CUT
10
181.7519
20
55.0917
0
VERTEX
8
CUT
10
181.7485
20
55.1000
0
VERTEX
8
CUT
10
179.6546
20
60.1672
0
VERTEX
8
CUT
10
179.6503
20
60.1780
0
VERTEX
8
CUT
10
179.6402
20
60.2033
0
VERTEX
8
CUT
10
179.6360
20
60.2141
0
VERTEX
8
CUT
10
179.6309
20
60.2274
0
VERTEX
8
CUT
10
179.6268
20
60.2383
0
VERTEX
8
CUT
10
179.6174
20
60.2638
0
VERTEX
8
CUT
10
179.6134
20
60.2747
0
VERTEX
8
CUT
10
179.6090
20
60.2874
0
VERTEX
8
CUT
10
179.6052
20
60.2984
0
VERTEX
8
CUT
10
179.5964
20
60.3241
0
VERTEX
8
CUT
10
179.5928
20
60.3351
0
VERTEX
8
CUT
10
179.5884
20
60.3486
0
VERTEX
8
CUT
10
179.5848
20
60.3597
0
VERTEX
8
CUT
10
179.5768
20
60.3857
0
VERTEX
8
CUT
10
179.5734
20
60.3968
0
VERTEX
8
CUT
10
179.3155
20
61.2665
0
VERTEX
8
CUT
10
179.3111
20
61.2806
0
VERTEX
8
CUT
10
179.2815
20
61.3721
0
VERTEX
8
CUT
10
179.2768
20
61.3861
0
VERTEX
8
CUT
10
179.2576
20
61.4406
0
VERTEX
8
CUT
10
179.2471
20
61.4683
0
VERTEX
8
CUT
10
179.1756
20
61.6438
0
VERTEX
8
CUT
10
179.1506
20
61.6974
0
VERTEX
8
CUT
10
179.0634
20
61.8628
0
VERTEX
8
CUT
10
179.0332
20
61.9137
0
VERTEX
8
CUT
10
178.9301
20
62.0696
0
VERTEX
8
CUT
10
178.8951
20
62.1173
0
VERTEX
8
CUT
10
178.7771
20
62.2624
0
VERTEX
8
CUT
10
178.7376
20
62.3063
0
VERTEX
8
CUT
10
178.6059
20
62.4391
0
VERTEX
8
CUT
10
178.5622
20
62.4790
0
VERTEX
8
CUT
10
178.4181
20
62.5981
0
VERTEX
8
CUT
10
178.3707
20
62.6335
0
VERTEX
8
CUT
10
178.2156
20
62.7379
0
VERTEX
8
CUT
10
178.1649
20
62.7684
0
VERTEX
8
CUT
10
178.0003
20
62.8570
0
VERTEX
8
CUT
10
177.9469
20
62.8824
0
VERTEX
8
CUT
10
177.7743
20
62.9544
0
VERTEX
8
CUT
10
177.7186
20
62.9744
0
VERTEX
8
CUT
10
177.5398
20
63.0290
0
VERTEX
8
CUT
10
177.4825
20
63.0435
0
VERTEX
8
CUT
10
177.2991
20
63.0802
0
VERTEX
8
CUT
10
177.2406
20
63.0889
0
VERTEX
8
CUT
10
177.0546
20
63.1074
0
VERTEX
8
CUT
10
176.9955
20
63.1104
0
VERTEX
8
CUT
10
176.8085
20
63.1105
0
VERTEX
8
CUT
10
176.7495
20
63.1076
0
VERTEX
8
CUT
10
176.5634
20
63.0893
0
VERTEX
8
CUT
10
176.5049
20
63.0806
0
VERTEX
8
CUT
10
176.3215
20
63.0440
0
VERTEX
8
CUT
10
176.2641
20
63.0296
0
VERTEX
8
CUT
10
176.0853
20
62.9752
0
VERTEX
8
CUT
10
176.0296
20
62.9552
0
VERTEX
8
CUT
10
175.8569
20
62.8835
0
VERTEX
8
CUT
10
175.8035
20
62.8581
0
VERTEX
8
CUT
10
175.6388
20
62.7697
0
VERTEX
8
CUT
10
175.5881
20
62.7392
0
VERTEX
8
CUT
10
175.4329
20
62.6350
0
VERTEX
8
CUT
10
175.3854
20
62.5996
0
VERTEX
8
CUT
10
175.2412
20
62.4806
0
VERTEX
8
CUT
10
175.1975
20
62.4408
0
VERTEX
8
CUT
10
175.0657
20
62.3082
0
VERTEX
8
CUT
10
175.0261
20
62.2642
0
VERTEX
8
CUT
10
174.9080
20
62.1193
0
VERTEX
8
CUT
10
174.8729
20
62.0716
0
VERTEX
8
CUT
10
174.7682
20
61.9136
0
VERTEX
8
CUT
10
174.7602
20
61.9012
0
VERTEX
8
CUT
10
174.7563
20
61.8950
0
VERTEX
8
CUT
10
174.7537
20
61.8908
0
VERTEX
8
CUT
10
174.7351
20
61.8605
0
VERTEX
8
CUT
10
174.7277
20
61.8489
0
VERTEX
8
CUT
10
174.7225
20
61.8408
0
VERTEX
8
CUT
10
174.7127
20
61.8256
0
VERTEX
8
CUT
10
174.7083
20
61.8190
0
VERTEX
8
CUT
10
174.7040
20
61.8125
0
VERTEX
8
CUT
10
174.6775
20
61.7748
0
VERTEX
8
CUT
10
174.6274
20
61.7070
0
VERTEX
8
CUT
10
174.5690
20
61.6360
0
VERTEX
8
CUT
10
174.5122
20
61.5737
0
VERTEX
8
CUT
10
174.4803
20
61.5405
0
VERTEX
8
CUT
10
174.4473
20
61.5079
0
VERTEX
8
CUT
10
174.4453
20
61.5059
0
VERTEX
8
CUT
10
174.4313
20
61.4919
0
VERTEX
8
CUT
10
174.4290
20
61.4896
0
VERTEX
8
CUT
10
174.3885
20
61.4487
0
VERTEX
8
CUT
10
174.3707
20
61.4299
0
VERTEX
8
CUT
10
174.2575
20
61.3053
0
VERTEX
8
CUT
10
174.2405
20
61.2857
0
VERTEX
8
CUT
10
174.2399
20
61.2850
0
VERTEX
8
CUT
10
174.2216
20
61.2619
0
VERTEX
8
CUT
10
174.1082
20
61.1112
0
VERTEX
8
CUT
10
174.0752
20
61.0625
0
VERTEX
8
CUT
10
173.9784
20
60.9036
0
VERTEX
8
CUT
10
173.9503
20
60.8519
0
VERTEX
8
CUT
10
173.8696
20
60.6842
0
VERTEX
8
CUT
10
173.8467
20
60.6300
0
VERTEX
8
CUT
10
173.7828
20
60.4553
0
VERTEX
8
CUT
10
173.7653
20
60.3991
0
VERTEX
8
CUT
10
173.7188
20
60.2190
0
VERTEX
8
CUT
10
173.7069
20
60.1613
0
VERTEX
8
CUT
10
173.6783
20
59.9775
0
VERTEX
8
CUT
10
173.6721
20
59.9190
0
VERTEX
8
CUT
10
173.6615
20
59.7307
0
VERTEX
8
CUT
10
173.6606
20
59.7013
0
VERTEX
8
CUT
10
173.6602
20
59.6438
0
VERTEX
8
CUT
10
173.6602
20
59.6291
0
VERTEX
8
CUT
10
173.6619
20
59.5334
0
VERTEX
8
CUT
10
173.6623
20
59.5187
0
VERTEX
8
CUT
10
173.6929
20
58.7872
0
VERTEX
8
CUT
10
173.6937
20
58.7420
0
VERTEX
8
CUT
10
173.6930
20
58.6593
0
VERTEX
8
CUT
10
173.6877
20
58.5692
0
VERTEX
8
CUT
10
173.6812
20
58.5094
0
VERTEX
8
CUT
10
173.6669
20
58.4203
0
VERTEX
8
CUT
10
173.6544
20
58.3615
0
VERTEX
8
CUT
10
173.6313
20
58.2742
0
VERTEX
8
CUT
10
173.6130
20
58.2170
0
VERTEX
8
CUT
10
173.5812
20
58.1325
0
VERTEX
8
CUT
10
173.5572
20
58.0773
0
VERTEX
8
CUT
10
173.5171
20
57.9964
0
VERTEX
8
CUT
10
173.4767
20
57.9242
0
VERTEX
8
CUT
10
173.4537
20
57.8854
0
VERTEX
8
CUT
10
173.4273
20
57.8433
0
VERTEX
8
CUT
10
173.4193
20
57.8302
0
VERTEX
8
CUT
10
173.3684
20
57.7443
0
VERTEX
8
CUT
10
173.3607
20
57.7310
0
VERTEX
8
CUT
10
173.3314
20
57.6786
0
VERTEX
8
CUT
10
173.3172
20
57.6514
0
VERTEX
8
CUT
10
173.2301
20
57.4748
0
VERTEX
8
CUT
10
173.2058
20
57.4184
0
VERTEX
8
CUT
10
173.1382
20
57.2363
0
VERTEX
8
CUT
10
173.1198
20
57.1777
0
VERTEX
8
CUT
10
173.0711
20
56.9897
0
VERTEX
8
CUT
10
173.0588
20
56.9295
0
VERTEX
8
CUT
10
173.0296
20
56.7375
0
VERTEX
8
CUT
10
173.0235
20
56.6764
0
VERTEX
8
CUT
10
173.0141
20
56.4824
0
VERTEX
8
CUT
10
173.0143
20
56.4210
0
VERTEX
8
CUT
10
173.0248
20
56.2270
0
VERTEX
8
CUT
10
173.0313
20
56.1659
0
SEQEND
0
POLYLINE
8
CUT
66
1
70
1
10
0.0
20
0.0
30
0.0
0
VERTEX
8
CUT
10
174.3743
20
245.3687
0
VERTEX
8
CUT
10
174.3760
20
245.3555
0
VERTEX
8
CUT
10
174.3880
20
245.2693
0
VERTEX
8
CUT
10
174.3900
20
245.2561
0
VERTEX
8
CUT
10
174.4220
20
245.0580
0
VERTEX
8
CUT
10
174.4242
20
245.0452
0
VERTEX
8
CUT
10
174.4395
20
244.9622
0
VERTEX
8
CUT
10
174.4420
20
244.9495
0
VERTEX
8
CUT
10
174.4522
20
244.8998
0
VERTEX
8
CUT
10
174.4580
20
244.8744
0
VERTEX
8
CUT
10
174.4987
20
244.7130
0
VERTEX
8
CUT
10
174.5136
20
244.6632
0
VERTEX
8
CUT
10
174.5681
20
244.5059
0
VERTEX
8
CUT
10
174.5771
20
244.4816
0
VERTEX
8
CUT
10
174.5851
20
244.4612
0
VERTEX
8
CUT
10
174.5956
20
244.4363
0
VERTEX
8
CUT
10
174.6676
20
244.2761
0
VERTEX
8
CUT
10
174.6792
20
244.2517
0
VERTEX
8
CUT
10
174.6919
20
244.2265
0
VERTEX
8
CUT
10
174.7051
20
244.2017
0
VERTEX
8
CUT
10
174.7936
20
244.0448
0
VERTEX
8
CUT
10
174.8235
20
243.9972
0
VERTEX
8
CUT
10
174.9263
20
243.8493
0
VERTEX
8
CUT
10
174.9429
20
243.8266
0
VERTEX
8
CUT
10
174.9763
20
243.7831
0
VERTEX
8
CUT
10
174.9850
20
243.7720
0
VERTEX
8
CUT
10
175.0422
20
243.7009
0
VERTEX
8
CUT
10
175.0512
20
243.6900
0
VERTEX
8
CUT
10
175.7768
20
242.8304
0
VERTEX
8
CUT
10
175.7857
20
242.8202
0
VERTEX
8
CUT
10
175.8438
20
242.7544
0
VERTEX
8
CUT
10
175.8529
20
242.7443
0
VERTEX
8
CUT
10
175.8888
20
242.7055
0
VERTEX
8
CUT
10
175.9076
20
242.6861
0
VERTEX
8
CUT
10
176.0309
20
242.5643
0
VERTEX
8
CUT
10
176.0710
20
242.5280
0
VERTEX
8
CUT
10
176.2029
20
242.4193
0
VERTEX
8
CUT
10
176.2462
20
242.3868
0
VERTEX
8
CUT
10
176.3893
20
242.2890
0
VERTEX
8
CUT
10
176.4120
20
242.2743
0
VERTEX
8
CUT
10
176.4569
20
242.2465
0
VERTEX
8
CUT
10
176.4685
20
242.2395
0
VERTEX
8
CUT
10
176.5442
20
242.1949
0
VERTEX
8
CUT
10
176.5559
20
242.1882
0
VERTEX
8
CUT
10
176.9924
20
241.9446
0
VERTEX
8
CUT
10
177.0071
20
241.9367
0
VERTEX
8
CUT
10
177.1029
20
241.8866
0
VERTEX
8
CUT
10
177.1178
20
241.8791
0
VERTEX
8
CUT
10
177.1762
20
241.8506
0
VERTEX
8
CUT
10
177.2065
20
241.8369
0
VERTEX
8
CUT
10
177.4057
20
241.7531
0
VERTEX
8
CUT
10
177.4367
20
241.7410
0
VERTEX
8
CUT
10
177.4979
20
241.7192
0
VERTEX
8
CUT
10
177.5136
20
241.7139
0
VERTEX
8
CUT
10
177.6165
20
241.6804
0
VERTEX
8
CUT
10
177.6324
20
241.6754
0
VERTEX
8
CUT
10
178.1555
20
241.5209
0
VERTEX
8
CUT
10
178.1703
20
241.5167
0
VERTEX
8
CUT
10
178.2664
20
241.4910
0
VERTEX
8
CUT
10
178.2813
20
241.4872
0
VERTEX
8
CUT
10
178.3394
20
241.4732
0
VERTEX
8
CUT
10
178.3694
20
241.4668
0
VERTEX
8
CUT
10
178.5649
20
241.4302
0
VERTEX
8
CUT
10
178.5952
20
241.4254
0
VERTEX
8
CUT
10
178.6544
20
241.4174
0
VERTEX
8
CUT
10
178.6696
20
241.4155
0
VERTEX
8
CUT
10
178.7686
20
241.4047
0
VERTEX
8
CUT
10
178.7838
20
241.4033
0
VERTEX
8
CUT
10
179.5127
20
241.3427
0
VERTEX
8
CUT
10
179.5286
20
241.3415
0
VERTEX
8
CUT
10
179.6313
20
241.3357
0
VERTEX
8
CUT
10
179.6472
20
241.3350
0
VERTEX
8
CUT
10
179.7089
20
241.3332
0
VERTEX
8
CUT
10
179.7406
20
241.3331
0
VERTEX
8
CUT
10
179.9463
20
241.3377
0
VERTEX
8
CUT
10
179.9780
20
241.3393
0
VERTEX
8
CUT
10
180.0396
20
241.3439
0
VERTEX
8
CUT
10
180.0554
20
241.3453
0
VERTEX
8
CUT
10
180.1578
20
241.3558
0
VERTEX
8
CUT
10
180.1735
20
241.3576
0
VERTEX
8
CUT
10
181.3165
20
241.5050
0
VERTEX
8
CUT
10
181.3272
20
241.5065
0
VERTEX
8
CUT
10
181.4021
20
241.5175
0
VERTEX
8
CUT
10
181.4132
20
241.5193
0
VERTEX
8
CUT
10
181.4622
20
241.5274
0
VERTEX
8
CUT
10
181.4857
20
241.5318
0
VERTEX
8
CUT
10
181.6316
20
241.5621
0
VERTEX
8
CUT
10
181.6541
20
241.5673
0
VERTEX
8
CUT
10
181.6928
20
241.5769
0
VERTEX
8
CUT
10
181.7033
20
241.5796
0
VERTEX
8
CUT
10
181.7756
20
241.5989
0
VERTEX
8
CUT
10
181.7873
20
241.6022
0
VERTEX
8
CUT
10
185.1472
20
242.5743
0
VERTEX
8
CUT
10
185.1598
20
242.5781
0
VERTEX
8
CUT
10
185.2412
20
242.6036
0
VERTEX
8
CUT
10
185.2537
20
242.6077
0
VERTEX
8
CUT
10
185.3024
20
242.6241
0
VERTEX
8
CUT
10
185.3271
20
242.6331
0
VERTEX
8
CUT
10
185.4863
20
242.6947
0
VERTEX
8
CUT
10
185.5106
20
242.7047
0
VERTEX
8
CUT
10
185.5576
20
242.7253
0
VERTEX
8
CUT
10
185.5696
20
242.7307
0
VERTEX
8
CUT
10
185.6470
20
242.7667
0
VERTEX
8
CUT
10
185.6589
20
242.7724
0
VERTEX
8
CUT
10
190.4087
20
245.1073
0
VERTEX
8
CUT
10
190.4242
20
245.1152
0
VERTEX
8
CUT
10
190.5237
20
245.1677
0
VERTEX
8
CUT
10
190.5389
20
245.1760
0
VERTEX
8
CUT
10
190.6619
20
245.2456
0
VERTEX
8
CUT
10
190.6768
20
245.2543
0
VERTEX
8
CUT
10
190.7732
20
245.3125
0
VERTEX
8
CUT
10
190.7879
20
245.3217
0
VERTEX
8
CUT
10
193.4209
20
247.0182
0
VERTEX
8
CUT
10
193.4332
20
247.0263
0
VERTEX
8
CUT
10
193.5123
20
247.0800
0
VERTEX
8
CUT
10
193.5243
20
247.0885
0
VERTEX
8
CUT
10
193.6219
20
247.1583
0
VERTEX
8
CUT
10
193.6338
20
247.1670
0
VERTEX
8
CUT
10
193.7101
20
247.2246
0
VERTEX
8
CUT
10
193.7217
20
247.2336
0
VERTEX
8
CUT
10
196.1393
20
249.1505
0
VERTEX
8
CUT
10
196.1500
20
249.1592
0
VERTEX
8
CUT
10
196.2191
20
249.2167
0
VERTEX
8
CUT
10
196.2296
20
249.2256
0
VERTEX
8
CUT
10
196.3146
20
249.2997
0
VERTEX
8
CUT
10
196.3249
20
249.3089
0
VERTEX
8
CUT
10
196.3913
20
249.3694
0
VERTEX
8
CUT
10
196.4014
20
249.3788
0
VERTEX
8
CUT
10
198.6338
20
251.5115
0
VERTEX
8
CUT
10
198.6451
20
251.5226
0
VERTEX
8
CUT
10
198.7172
20
251.5952
0
VERTEX
8
CUT
10
198.7281
20
251.6065
0
VERTEX
8
CUT
10
198.8163
20
251.7000
0
VERTEX
8
CUT
10
198.8269
20
251.7116
0
VERTEX
8
CUT
10
198.8951
20
251.7879
0
VERTEX
8
CUT
10
198.9055
20
251.7998
0
VERTEX
8
CUT
10
200.8105
20
254.0468
0
VERTEX
8
CUT
10
200.8192
20
254.0573
0
VERTEX
8
CUT
10
200.8752
20
254.1265
0
VERTEX
8
CUT
10
200.8837
20
254.1373
0
VERTEX
8
CUT
10
200.9521
20
254.2257
0
VERTEX
8
CUT
10
200.9603
20
254.2367
0
VERTEX
8
CUT
10
201.0131
20
254.3084
0
VERTEX
8
CUT
10
201.0211
20
254.3195
0
VERTEX
8
CUT
10
202.6929
20
256.7018
0
VERTEX
8
CUT
10
202.7022
20
256.7155
0
VERTEX
8
CUT
10
202.7616
20
256.8053
0
VERTEX
8
CUT
10
202.7705
20
256.8192
0
VERTEX
8
CUT
10
202.8419
20
256.9339
0
VERTEX
8
CUT
10
202.8505
20
256.9481
0
VERTEX
8
CUT
10
202.9048
20
257.0410
0
VERTEX
8
CUT
10
202.9130
20
257.0555
0
VERTEX
8
CUT
10
204.3248
20
259.6308
0
VERTEX
8
CUT
10
204.3321
20
259.6444
0
VERTEX
8
CUT
10
204.3780
20
259.7336
0
VERTEX
8
CUT
10
204.3849
20
259.7474
0
VERTEX
8
CUT
10
204.4396
20
259.8607
0
VERTEX
8
CUT
10
204.4462
20
259.8747
0
VERTEX
8
CUT
10
204.4874
20
259.9661
0
VERTEX
8
CUT
10
204.4936
20
259.9802
0
VERTEX
8
CUT
10
205.6139
20
262.6403
0
VERTEX
8
CUT
10
205.6202
20
262.6560
0
VERTEX
8
CUT
10
205.6600
20
262.7584
0
VERTEX
8
CUT
10
205.6659
20
262.7743
0
VERTEX
8
CUT
10
205.7122
20
262.9042
0
VERTEX
8
CUT
10
205.7177
20
262.9202
0
VERTEX
8
CUT
10
205.7516
20
263.0247
0
VERTEX
8
CUT
10
205.7566
20
263.0409
0
VERTEX
8
CUT
10
206.5552
20
265.7580
0
VERTEX
8
CUT
10
206.5595
20
265.7735
0
VERTEX
8
CUT
10
206.5864
20
265.8748
0
VERTEX
8
CUT
10
206.5903
20
265.8905
0
VERTEX
8
CUT
10
206.6205
20
266.0185
0
VERTEX
8
CUT
10
206.6240
20
266.0342
0
VERTEX
8
CUT
10
206.6454
20
266.1368
0
VERTEX
8
CUT
10
206.6485
20
266.1526
0
VERTEX
8
CUT
10
207.1571
20
268.9741
0
VERTEX
8
CUT
10
207.1599
20
268.9906
0
VERTEX
8
CUT
10
207.1762
20
269.0983
0
VERTEX
8
CUT
10
207.1785
20
269.1149
0
VERTEX
8
CUT
10
207.1952
20
269.2506
0
VERTEX
8
CUT
10
207.1970
20
269.2672
0
VERTEX
8
CUT
10
207.2073
20
269.3757
0
VERTEX
8
CUT
10
207.2086
20
269.3924
0
VERTEX
8
CUT
10
207.4037
20
272.3158
0
VERTEX
8
CUT
10
207.4045
20
272.3295
0
VERTEX
8
CUT
10
207.4084
20
272.4185
0
VERTEX
8
CUT
10
207.4088
20
272.4322
0
VERTEX
8
CUT
10
207.4112
20
272.5441
0
VERTEX
8
CUT
10
207.4113
20
272.5578
0
VERTEX
8
CUT
10
207.4111
20
272.6469
0
VERTEX
8
CUT
10
207.4109
20
272.6607
0
VERTEX
8
CUT
10
207.3376
20
275.6182
0
VERTEX
8
CUT
10
207.3370
20
275.6339
0
VERTEX
8
CUT
10
207.3318
20
275.7355
0
VERTEX
8
CUT
10
207.3308
20
275.7512
0
VERTEX
8
CUT
10
207.3210
20
275.8786
0
VERTEX
8
CUT
10
207.3196
20
275.8942
0
VERTEX
8
CUT
10
207.3091
20
275.9954
0
VERTEX
8
CUT
10
207.3073
20
276.0110
0
VERTEX
8
CUT
10
206.9061
20
279.0984
0
VERTEX
8
CUT
10
206.9041
20
279.1123
0
VERTEX
8
CUT
10
206.8903
20
279.2021
0
VERTEX
8
CUT
10
206.8880
20
279.2159
0
VERTEX
8
CUT
10
206.8681
20
279.3282
0
VERTEX
8
CUT
10
206.8655
20
279.3420
0
VERTEX
8
CUT
10
206.8475
20
279.4311
0
VERTEX
8
CUT
10
206.8446
20
279.4447
0
VERTEX
8
CUT
10
206.1401
20
282.5592
0
VERTEX
8
CUT
10
206.1372
20
282.5712
0
VERTEX
8
CUT
10
206.1179
20
282.6494
0
VERTEX
8
CUT
10
206.1147
20
282.6614
0
VERTEX
8
CUT
10
206.0884
20
282.7590
0
VERTEX
8
CUT
10
206.0850
20
282.7709
0
VERTEX
8
CUT
10
206.0624
20
282.8482
0
VERTEX
8
CUT
10
206.0588
20
282.8601
0
VERTEX
8
CUT
10
205.0853
20
285.9516
0
VERTEX
8
CUT
10
205.0798
20
285.9684
0
VERTEX
8
CUT
10
205.0420
20
286.0770
0
VERTEX
8
CUT
10
205.0360
20
286.0937
0
VERTEX
8
CUT
10
204.9846
20
286.2285
0
VERTEX
8
CUT
10
204.9780
20
286.2450
0
VERTEX
8
CUT
10
204.9339
20
286.3512
0
VERTEX
8
CUT
10
204.9269
20
286.3674
0
VERTEX
8
CUT
10
203.1753
20
290.2578
0
VERTEX
8
CUT
10
203.1708
20
290.2680
0
VERTEX
8
CUT
10
203.1603
20
290.2920
0
VERTEX
8
CUT
10
203.1559
20
290.3023
0
VERTEX
8
CUT
10
203.1506
20
290.3149
0
VERTEX
8
CUT
10
203.1463
20
290.3253
0
VERTEX
8
CUT
10
203.1365
20
290.3496
0
VERTEX
8
CUT
10
203.1323
20
290.3600
0
VERTEX
8
CUT
10
203.1105
20
290.4157
0
VERTEX
8
CUT
10
203.1100
20
290.4169
0
VERTEX
8
CUT
10
203.0882
20
290.4724
0
VERTEX
8
CUT
10
203.0775
20
290.4979
0
VERTEX
8
CUT
10
203.0048
20
290.6599
0
VERTEX
8
CUT
10
202.9794
20
290.7102
0
VERTEX
8
CUT
10
202.8892
20
290.8695
0
VERTEX
8
CUT
10
202.8585
20
290.9182
0
VERTEX
8
CUT
10
202.7540
20
291.0672
0
VERTEX
8
CUT
10
202.7188
20
291.1127
0
VERTEX
8
CUT
10
202.6006
20
291.2510
0
VERTEX
8
CUT
10
202.5611
20
291.2929
0
VERTEX
8
CUT
10
202.4302
20
291.4193
0
VERTEX
8
CUT
10
202.3869
20
291.4572
0
VERTEX
8
CUT
10
202.2445
20
291.5704
0
VERTEX
8
CUT
10
202.1978
20
291.6040
0
VERTEX
8
CUT
10
202.0451
20
291.7031
0
VERTEX
8
CUT
10
201.9954
20
291.7321
0
VERTEX
8
CUT
10
201.8340
20
291.8161
0
VERTEX
8
CUT
10
201.7817
20
291.8402
0
VERTEX
8
CUT
10
201.6130
20
291.9083
0
VERTEX
8
CUT
10
201.5587
20
291.9273
0
VERTEX
8
CUT
10
201.3842
20
291.9789
0
VERTEX
8
CUT
10
201.3283
20
291.9926
0
VERTEX
8
CUT
10
201.1497
20
292.0273
0
VERTEX
8
CUT
10
201.0927
20
292.0356
0
VERTEX
8
CUT
10
200.9091
20
292.0533
0
VERTEX
8
CUT
10
200.8804
20
292.0553
0
VERTEX
8
CUT
10
200.8242
20
292.0580
0
VERTEX
8
CUT
10
200.8099
20
292.0585
0
VERTEX
8
CUT
10
200.7163
20
292.0608
0
VERTEX
8
CUT
10
200.7020
20
292.0610
0
VERTEX
8
CUT
10
200.2278
20
292.0610
0
VERTEX
8
CUT
10
200.2131
20
292.0608
0
VERTEX
8
CUT
10
200.1180
20
292.0585
0
VERTEX
8
CUT
10
200.1034
20
292.0579
0
VERTEX
8
CUT
10
200.0463
20
292.0551
0
VERTEX
8
CUT
10
200.0171
20
292.0530
0
VERTEX
8
CUT
10
199.8303
20
292.0347
0
VERTEX
8
CUT
10
199.7724
20
292.0262
0
VERTEX
8
CUT
10
199.5909
20
291.9903
0
VERTEX
8
CUT
10
199.5341
20
291.9761
0
VERTEX
8
CUT
10
199.3569
20
291.9227
0
VERTEX
8
CUT
10
199.3017
20
291.9031
0
VERTEX
8
CUT
10
199.1306
20
291.8327
0
VERTEX
8
CUT
10
199.0776
20
291.8078
0
VERTEX
8
CUT
10
198.9141
20
291.7210
0
VERTEX
8
CUT
10
198.8638
20
291.6911
0
VERTEX
8
CUT
10
198.7096
20
291.5888
0
VERTEX
8
CUT
10
198.6625
20
291.5541
0
VERTEX
8
CUT
10
198.5189
20
291.4373
0
VERTEX
8
CUT
10
198.4754
20
291.3981
0
VERTEX
8
CUT
10
198.3439
20
291.2679
0
VERTEX
8
CUT
10
198.3044
20
291.2247
0
VERTEX
8
CUT
10
198.1863
20
291.0822
0
VERTEX
8
CUT
10
198.1511
20
291.0354
0
VERTEX
8
CUT
10
198.0474
20
290.8821
0
VERTEX
8
CUT
10
198.0170
20
290.8321
0
VERTEX
8
CUT
10
197.9288
20
290.6694
0
VERTEX
8
CUT
10
197.9034
20
290.6167
0
VERTEX
8
CUT
10
197.8314
20
290.4462
0
VERTEX
8
CUT
10
197.8113
20
290.3912
0
VERTEX
8
CUT
10
197.7562
20
290.2145
0
VERTEX
8
CUT
10
197.7416
20
290.1578
0
VERTEX
8
CUT
10
197.7040
20
289.9766
0
VERTEX
8
CUT
10
197.6950
20
289.9188
0
VERTEX
8
CUT
10
197.6752
20
289.7348
0
VERTEX
8
CUT
10
197.6718
20
289.6763
0
VERTEX
8
CUT
10
197.6701
20
289.4887
0
VERTEX
8
CUT
10
197.6706
20
289.4595
0
VERTEX
8
CUT
10
197.6728
20
289.4023
0
VERTEX
8
CUT
10
197.6736
20
289.3877
0
VERTEX
8
CUT
10
197.6797
20
289.2928
0
VERTEX
8
CUT
10
197.6808
20
289.2782
0
VERTEX
8
CUT
10
197.9040
20
286.7613
0
VERTEX
8
CUT
10
197.9048
20
286.7515
0
VERTEX
8
CUT
10
197.9066
20
286.7284
0
VERTEX
8
CUT
10
197.9073
20
286.7186
0
VERTEX
8
CUT
10
197.9081
20
286.7065
0
VERTEX
8
CUT
10
197.9087
20
286.6966
0
VERTEX
8
CUT
10
197.9100
20
286.6735
0
VERTEX
8
CUT
10
197.9105
20
286.6637
0
VERTEX
8
CUT
10
197.9110
20
286.6523
0
VERTEX
8
CUT
10
197.9113
20
286.6424
0
VERTEX
8
CUT
10
197.9121
20
286.6193
0
VERTEX
8
CUT
10
197.9124
20
286.6094
0
VERTEX
8
CUT
10
197.9127
20
286.5973
0
VERTEX
8
CUT
10
197.9128
20
286.5874
0
VERTEX
8
CUT
10
197.9131
20
286.5643
0
VERTEX
8
CUT
10
197.9132
20
286.5544
0
VERTEX
8
CUT
10
197.9143
20
283.9551
0
VERTEX
8
CUT
10
197.9142
20
283.9447
0
VERTEX
8
CUT
10
197.9139
20
283.9203
0
VERTEX
8
CUT
10
197.9138
20
283.9099
0
VERTEX
8
CUT
10
197.9135
20
283.8972
0
VERTEX
8
CUT
10
197.9132
20
283.8868
0
VERTEX
8
CUT
10
197.9123
20
283.8624
0
VERTEX
8
CUT
10
197.9119
20
283.8520
0
VERTEX
8
CUT
10
197.9114
20
283.8400
0
VERTEX
8
CUT
10
197.9108
20
283.8296
0
VERTEX
8
CUT
10
197.9094
20
283.8053
0
VERTEX
8
CUT
10
197.9088
20
283.7949
0
VERTEX
8
CUT
10
197.9079
20
283.7822
0
VERTEX
8
CUT
10
197.9071
20
283.7718
0
VERTEX
8
CUT
10
197.9051
20
283.7476
0
VERTEX
8
CUT
10
197.9042
20
283.7372
0
VERTEX
8
CUT
10
197.6463
20
280.9496
0
VERTEX
8
CUT
10
197.6456
20
280.9424
0
VERTEX
8
CUT
10
197.6439
20
280.9254
0
VERTEX
8
CUT
10
197.6431
20
280.9181
0
VERTEX
8
CUT
10
197.6412
20
280.9008
0
VERTEX
8
CUT
10
197.6402
20
280.8918
0
VERTEX
8
CUT
10
197.6377
20
280.8710
0
VERTEX
8
CUT
10
197.6366
20
280.8621
0
VERTEX
8
CUT
10
197.6353
20
280.8519
0
VERTEX
8
CUT
10
197.6341
20
280.8429
0
VERTEX
8
CUT
10
197.6312
20
280.8221
0
VERTEX
8
CUT
10
197.6299
20
280.8132
0
VERTEX
8
CUT
10
197.6292
20
280.8086
0
VERTEX
8
CUT
10
197.6276
20
280.7981
0
VERTEX
8
CUT
10
197.6236
20
280.7736
0
VERTEX
8
CUT
10
197.6219
20
280.7631
0
VERTEX
8
CUT
10
197.1076
20
277.8042
0
VERTEX
8
CUT
10
197.1056
20
277.7931
0
VERTEX
8
CUT
10
197.1008
20
277.7674
0
VERTEX
8
CUT
10
197.0986
20
277.7564
0
VERTEX
8
CUT
10
197.0960
20
277.7433
0
VERTEX
8
CUT
10
197.0938
20
277.7324
0
VERTEX
8
CUT
10
197.0884
20
277.7071
0
VERTEX
8
CUT
10
197.0860
20
277.6962
0
VERTEX
8
CUT
10
197.0832
20
277.6837
0
VERTEX
8
CUT
10
197.0807
20
277.6729
0
VERTEX
8
CUT
10
197.0747
20
277.6476
0
VERTEX
8
CUT
10
197.0720
20
277.6368
0
VERTEX
8
CUT
10
197.0687
20
277.6236
0
VERTEX
8
CUT
10
197.0659
20
277.6128
0
VERTEX
8
CUT
10
197.0593
20
277.5877
0
VERTEX
8
CUT
10
197.0564
20
277.5770
0
VERTEX
8
CUT
10
195.7326
20
272.8150
0
VERTEX
8
CUT
10
195.7294
20
272.8040
0
VERTEX
8
CUT
10
195.7219
20
272.7781
0
VERTEX
8
CUT
10
195.7186
20
272.7671
0
VERTEX
8
CUT
10
195.7145
20
272.7536
0
VERTEX
8
CUT
10
195.7110
20
272.7426
0
VERTEX
8
CUT
10
195.7029
20
272.7170
0
VERTEX
8
CUT
10
195.6993
20
272.7060
0
VERTEX
8
CUT
10
195.6951
20
272.6935
0
VERTEX
8
CUT
10
195.6913
20
272.6825
0
VERTEX
8
CUT
10
195.6825
20
272.6571
0
VERTEX
8
CUT
10
195.6786
20
272.6463
0
VERTEX
8
CUT
10
195.6738
20
272.6331
0
VERTEX
8
CUT
10
195.6698
20
272.6222
0
VERTEX
8
CUT
10
195.6603
20
272.5971
0
VERTEX
8
CUT
10
195.6562
20
272.5863
0
VERTEX
8
CUT
10
194.5017
20
269.6414
0
VERTEX
8
CUT
10
194.4971
20
269.6301
0
VERTEX
8
CUT
10
194.4864
20
269.6037
0
VERTEX
8
CUT
10
194.4817
20
269.5924
0
VERTEX
8
CUT
10
194.4759
20
269.5786
0
VERTEX
8
CUT
10
194.4710
20
269.5674
0
VERTEX
8
CUT
10
194.4595
20
269.5413
0
VERTEX
8
CUT
10
194.4545
20
269.5302
0
VERTEX
8
CUT
10
194.4487
20
269.5174
0
VERTEX
8
CUT
10
194.4435
20
269.5063
0
VERTEX
8
CUT
10
194.4314
20
269.4805
0
VERTEX
8
CUT
10
194.4261
20
269.4695
0
VERTEX
8
CUT
10
194.4195
20
269.4561
0
VERTEX
8
CUT
10
194.4141
20
269.4451
0
VERTEX
8
CUT
10
194.4012
20
269.4197
0
VERTEX
8
CUT
10
194.3956
20
269.4088
0
VERTEX
8
CUT
10
192.9334
20
266.6158
0
VERTEX
8
CUT
10
192.9285
20
266.6066
0
VERTEX
8
CUT
10
192.9170
20
266.5852
0
VERTEX
8
CUT
10
192.9120
20
266.5761
0
VERTEX
8
CUT
10
192.9058
20
266.5650
0
VERTEX
8
CUT
10
192.9007
20
266.5559
0
VERTEX
8
CUT
10
192.8887
20
266.5348
0
VERTEX
8
CUT
10
192.8835
20
266.5258
0
VERTEX
8
CUT
10
192.8775
20
266.5154
0
VERTEX
8
CUT
10
192.8722
20
266.5065
0
VERTEX
8
CUT
10
192.8597
20
266.4856
0
VERTEX
8
CUT
10
192.8543
20
266.4767
0
VERTEX
8
CUT
10
192.8476
20
266.4659
0
VERTEX
8
CUT
10
192.8421
20
266.4571
0
VERTEX
8
CUT
10
192.8292
20
266.4366
0
VERTEX
8
CUT
10
192.8235
20
266.4278
0
VERTEX
8
CUT
10
191.1218
20
263.8007
0
VERTEX
8
CUT
10
191.1158
20
263.7917
0
VERTEX
8
CUT
10
191.1019
20
263.7707
0
VERTEX
8
CUT
10
191.0958
20
263.7617
0
VERTEX
8
CUT
10
191.0884
20
263.7508
0
VERTEX
8
CUT
10
191.0822
20
263.7419
0
VERTEX
8
CUT
10
191.0678
20
263.7212
0
VERTEX
8
CUT
10
191.0615
20
263.7124
0
VERTEX
8
CUT
10
191.0542
20
263.7023
0
VERTEX
8
CUT
10
191.0479
20
263.6936
0
VERTEX
8
CUT
10
191.0329
20
263.6732
0
VERTEX
8
CUT
10
191.0264
20
263.6646
0
VERTEX
8
CUT
10
191.0185
20
263.6540
0
VERTEX
8
CUT
10
191.0119
20
263.6454
0
VERTEX
8
CUT
10
190.9965
20
263.6255
0
VERTEX
8
CUT
10
190.9898
20
263.6170
0
VERTEX
8
CUT
10
189.0293
20
261.1473
0
VERTEX
8
CUT
10
189.0225
20
261.1388
0
VERTEX
8
CUT
10
189.0064
20
261.1191
0
VERTEX
8
CUT
10
188.9995
20
261.1106
0
VERTEX
8
CUT
10
188.9910
20
261.1004
0
VERTEX
8
CUT
10
188.9839
20
261.0921
0
VERTEX
8
CUT
10
188.9674
20
261.0727
0
VERTEX
8
CUT
10
188.9602
20
261.0645
0
VERTEX
8
CUT
10
188.9520
20
261.0550
0
VERTEX
8
CUT
10
188.9447
20
261.0469
0
VERTEX
8
CUT
10
188.9277
20
261.0279
0
VERTEX
8
CUT
10
188.9204
20
261.0198
0
VERTEX
8
CUT
10
188.9114
20
261.0100
0
VERTEX
8
CUT
10
188.9039
20
261.0021
0
VERTEX
8
CUT
10
188.8865
20
260.9835
0
VERTEX
8
CUT
10
188.8789
20
260.9756
0
VERTEX
8
CUT
10
186.6244
20
258.6410
0
VERTEX
8
CUT
10
186.6179
20
258.6344
0
VERTEX
8
CUT
10
186.6027
20
258.6189
0
VERTEX
8
CUT
10
186.5961
20
258.6123
0
VERTEX
8
CUT
10
186.5880
20
258.6043
0
VERTEX
8
CUT
10
186.5814
20
258.5978
0
VERTEX
8
CUT
10
186.5659
20
258.5826
0
VERTEX
8
CUT
10
186.5592
20
258.5762
0
VERTEX
8
CUT
10
186.5514
20
258.5688
0
VERTEX
8
CUT
10
186.5446
20
258.5624
0
VERTEX
8
CUT
10
186.5288
20
258.5476
0
VERTEX
8
CUT
10
186.5220
20
258.5413
0
VERTEX
8
CUT
10
186.5136
20
258.5336
0
VERTEX
8
CUT
10
186.5067
20
258.5274
0
VERTEX
8
CUT
10
186.4905
20
258.5129
0
VERTEX
8
CUT
10
186.4835
20
258.5067
0
VERTEX
8
CUT
10
183.9009
20
256.2407
0
VERTEX
8
CUT
10
183.8938
20
256.2346
0
VERTEX
8
CUT
10
183.8773
20
256.2205
0
VERTEX
8
CUT
10
183.8702
20
256.2144
0
VERTEX
8
CUT
10
183.8615
20
256.2071
0
VERTEX
8
CUT
10
183.8543
20
256.2011
0
VERTEX
8
CUT
10
183.8375
20
256.1873
0
VERTEX
8
CUT
10
183.8303
20
256.1814
0
VERTEX
8
CUT
10
183.8220
20
256.1746
0
VERTEX
8
CUT
10
183.8147
20
256.1688
0
VERTEX
8
CUT
10
183.7976
20
256.1553
0
VERTEX
8
CUT
10
183.7902
20
256.1496
0
VERTEX
8
CUT
10
183.7812
20
256.1426
0
VERTEX
8
CUT
10
183.7738
20
256.1370
0
VERTEX
8
CUT
10
183.7565
20
256.1238
0
VERTEX
8
CUT
10
183.7490
20
256.1183
0
VERTEX
8
CUT
10
177.9974
20
251.8602
0
VERTEX
8
CUT
10
177.9862
20
251.8517
0
VERTEX
8
CUT
10
177.9136
20
251.7953
0
VERTEX
8
CUT
10
177.9026
20
251.7865
0
VERTEX
8
CUT
10
177.8598
20
251.7515
0
VERTEX
8
CUT
10
177.8383
20
251.7331
0
VERTEX
8
CUT
10
177.7015
20
251.6104
0
VERTEX
8
CUT
10
177.6810
20
251.5910
0
VERTEX
8
CUT
10
177.6416
20
251.5522
0
VERTEX
8
CUT
10
177.6317
20
251.5422
0
VERTEX
8
CUT
10
177.5678
20
251.4761
0
VERTEX
8
CUT
10
177.5581
20
251.4658
0
VERTEX
8
CUT
10
176.0316
20
249.8106
0
VERTEX
8
CUT
10
176.0206
20
249.7982
0
VERTEX
8
CUT
10
175.9499
20
249.7172
0
VERTEX
8
CUT
10
175.9392
20
249.7046
0
VERTEX
8
CUT
10
175.8981
20
249.6549
0
VERTEX
8
CUT
10
175.8778
20
249.6288
0
VERTEX
8
CUT
10
175.7504
20
249.4558
0
VERTEX
8
CUT
10
175.7315
20
249.4286
0
VERTEX
8
CUT
10
175.6962
20
249.3746
0
VERTEX
8
CUT
10
175.6873
20
249.3606
0
VERTEX
8
CUT
10
175.6310
20
249.2691
0
VERTEX
8
CUT
10
175.6225
20
249.2549
0
VERTEX
8
CUT
10
175.1234
20
248.3921
0
VERTEX
8
CUT
10
175.1147
20
248.3765
0
VERTEX
8
CUT
10
175.0595
20
248.2741
0
VERTEX
8
CUT
10
175.0512
20
248.2582
0
VERTEX
8
CUT
10
175.0199
20
248.1958
0
VERTEX
8
CUT
10
175.0049
20
248.1634
0
VERTEX
8
CUT
10
174.9133
20
247.9498
0
VERTEX
8
CUT
10
174.9002
20
247.9165
0
VERTEX
8
CUT
10
174.8765
20
247.8508
0
VERTEX
8
CUT
10
174.8707
20
247.8339
0
VERTEX
8
CUT
10
174.8346
20
247.7233
0
VERTEX
8
CUT
10
174.8293
20
247.7063
0
VERTEX
8
CUT
10
174.4663
20
246.4706
0
VERTEX
8
CUT
10
174.4626
20
246.4577
0
VERTEX
8
CUT
10
174.4400
20
246.3737
0
VERTEX
8
CUT
10
174.4367
20
246.3608
0
VERTEX
8
CUT
10
174.4242
20
246.3100
0
VERTEX
8
CUT
10
174.4184
20
246.2839
0
VERTEX
8
CUT
10
174.3849
20
246.1156
0
VERTEX
8
CUT
10
174.3768
20
246.0627
0
VERTEX
8
CUT
10
174.3586
20
245.8945
0
VERTEX
8
CUT
10
174.3553
20
245.8411
0
VERTEX
8
CUT
10
174.3522
20
245.6719
0
VERTEX
8
CUT
10
174.3536
20
245.6184
0
VERTEX
8
CUT
10
174.3658
20
245.4473
0
VERTEX
8
CUT
10
174.3683
20
245.4207
0
SEQEND
0
POLYLINE
8
CUT
66
1
70
1
10
0.0
20
0.0
30
0.0
0
VERTEX
8
CUT
10
154.8360
20
114.5243
0
VERTEX
8
CUT
10
154.8477
20
114.4661
0
VERTEX
8
CUT
10
154.8938
20
114.2838
0
VERTEX
8
CUT
10
154.9112
20
114.2270
0
VERTEX
8
CUT
10
154.9760
20
114.0478
0
VERTEX
8
CUT
10
154.9868
20
114.0201
0
VERTEX
8
CUT
10
155.0093
20
113.9666
0
VERTEX
8
CUT
10
155.0152
20
113.9529
0
VERTEX
8
CUT
10
155.0547
20
113.8647
0
VERTEX
8
CUT
10
155.0609
20
113.8512
0
VERTEX
8
CUT
10
155.8303
20
112.2427
0
VERTEX
8
CUT
10
155.8345
20
112.2338
0
VERTEX
8
CUT
10
155.8408
20
112.2201
0
VERTEX
8
CUT
10
155.8511
20
112.1973
0
VERTEX
8
CUT
10
155.8644
20
112.1665
0
VERTEX
8
CUT
10
155.8757
20
112.1390
0
VERTEX
8
CUT
10
155.8844
20
112.1170
0
VERTEX
8
CUT
10
155.8892
20
112.1043
0
VERTEX
8
CUT
10
155.8910
20
112.0996
0
VERTEX
8
CUT
10
155.9008
20
112.0721
0
VERTEX
8
CUT
10
155.9217
20
112.0104
0
VERTEX
8
CUT
10
155.9334
20
111.9732
0
VERTEX
8
CUT
10
155.9371
20
111.9606
0
VERTEX
8
CUT
10
155.9398
20
111.9512
0
VERTEX
8
CUT
10
156.4742
20
110.0400
0
VERTEX
8
CUT
10
156.4773
20
110.0287
0
VERTEX
8
CUT
10
156.4814
20
110.0134
0
VERTEX
8
CUT
10
156.4922
20
109.9677
0
VERTEX
8
CUT
10
156.5036
20
109.9137
0
VERTEX
8
CUT
10
156.5167
20
109.8334
0
VERTEX
8
CUT
10
156.5259
20
109.7552
0
VERTEX
8
CUT
10
156.5318
20
109.6733
0
VERTEX
8
CUT
10
156.5333
20
109.6163
0
VERTEX
8
CUT
10
156.5332
20
109.5686
0
VERTEX
8
CUT
10
156.5328
20
109.5531
0
VERTEX
8
CUT
10
156.5324
20
109.5413
0
VERTEX
8
CUT
10
156.5243
20
109.3416
0
VERTEX
8
CUT
10
156.5237
20
109.3292
0
VERTEX
8
CUT
10
156.5228
20
109.3125
0
VERTEX
8
CUT
10
156.5188
20
109.2630
0
VERTEX
8
CUT
10
156.5097
20
109.1808
0
VERTEX
8
CUT
10
156.5049
20
109.1438
0
VERTEX
8
CUT
10
156.5018
20
109.1234
0
VERTEX
8
CUT
10
156.4999
20
109.1112
0
VERTEX
8
CUT
10
156.4951
20
109.0826
0
VERTEX
8
CUT
10
156.4930
20
109.0704
0
VERTEX
8
CUT
10
156.4879
20
109.0422
0
VERTEX
8
CUT
10
156.4842
20
109.0186
0
VERTEX
8
CUT
10
156.4787
20
108.9903
0
VERTEX
8
CUT
10
156.4735
20
108.9585
0
VERTEX
8
CUT
10
156.4724
20
108.9507
0
VERTEX
8
CUT
10
156.4722
20
108.9496
0
VERTEX
8
CUT
10
156.4676
20
108.9159
0
VERTEX
8
CUT
10
156.4478
20
108.7942
0
VERTEX
8
CUT
10
156.4412
20
108.7345
0
VERTEX
8
CUT
10
156.4296
20
108.5450
0
VERTEX
8
CUT
10
156.4290
20
108.4850
0
VERTEX
8
CUT
10
156.4365
20
108.2953
0
VERTEX
8
CUT
10
156.4418
20
108.2355
0
VERTEX
8
CUT
10
156.4682
20
108.0475
0
VERTEX
8
CUT
10
156.4795
20
107.9885
0
VERTEX
8
CUT
10
156.5246
20
107.8041
0
VERTEX
8
CUT
10
156.5417
20
107.7465
0
VERTEX
8
CUT
10
156.6050
20
107.5675
0
VERTEX
8
CUT
10
156.6278
20
107.5120
0
VERTEX
8
CUT
10
156.7086
20
107.3402
0
VERTEX
8
CUT
10
156.7369
20
107.2872
0
VERTEX
8
CUT
10
156.8345
20
107.1244
0
VERTEX
8
CUT
10
156.8679
20
107.0745
0
VERTEX
8
CUT
10
156.9813
20
106.9222
0
VERTEX
8
CUT
10
157.0195
20
106.8759
0
VERTEX
8
CUT
10
157.1476
20
106.7358
0
VERTEX
8
CUT
10
157.1902
20
106.6935
0
VERTEX
8
CUT
10
157.3316
20
106.5669
0
VERTEX
8
CUT
10
157.3783
20
106.5291
0
VERTEX
8
CUT
10
157.5317
20
106.4172
0
VERTEX
8
CUT
10
157.5819
20
106.3843
0
VERTEX
8
CUT
10
157.7457
20
106.2883
0
VERTEX
8
CUT
10
157.7989
20
106.2605
0
VERTEX
8
CUT
10
157.9715
20
106.1814
0
VERTEX
8
CUT
10
158.0273
20
106.1591
0
VERTEX
8
CUT
10
158.2069
20
106.0976
0
VERTEX
8
CUT
10
158.2646
20
106.0810
0
VERTEX
8
CUT
10
158.4494
20
106.0378
0
VERTEX
8
CUT
10
158.5085
20
106.0271
0
VERTEX
8
CUT
10
158.6967
20
106.0025
0
VERTEX
8
CUT
10
158.7566
20
105.9977
0
VERTEX
8
CUT
10
158.9464
20
105.9921
0
VERTEX
8
CUT
10
159.0064
20
105.9934
0
VERTEX
8
CUT
10
159.1958
20
106.0068
0
VERTEX
8
CUT
10
159.2554
20
106.0140
0
VERTEX
8
CUT
10
159.4451
20
106.0467
0
VERTEX
8
CUT
10
159.4745
20
106.0525
0
VERTEX
8
CUT
10
159.5317
20
106.0654
0
VERTEX
8
CUT
10
159.5463
20
106.0688
0
VERTEX
8
CUT
10
159.6410
20
106.0926
0
VERTEX
8
CUT
10
159.6555
20
106.0964
0
VERTEX
8
CUT
10
160.9875
20
106.4663
0
VERTEX
8
CUT
10
160.9967
20
106.4688
0
VERTEX
8
CUT
10
161.0182
20
106.4745
0
VERTEX
8
CUT
10
161.0274
20
106.4769
0
VERTEX
8
CUT
10
161.0387
20
106.4798
0
VERTEX
8
CUT
10
161.0480
20
106.4821
0
VERTEX
8
CUT
10
161.0696
20
106.4874
0
VERTEX
8
CUT
10
161.0788
20
106.4896
0
VERTEX
8
CUT
10
161.0895
20
106.4920
0
VERTEX
8
CUT
10
161.0988
20
106.4942
0
VERTEX
8
CUT
10
161.1206
20
106.4990
0
VERTEX
8
CUT
10
161.1299
20
106.5010
0
VERTEX
8
CUT
10
161.1413
20
106.5034
0
VERTEX
8
CUT
10
161.1506
20
106.5053
0
VERTEX
8
CUT
10
161.1724
20
106.5096
0
VERTEX
8
CUT
10
161.1818
20
106.5114
0
VERTEX
8
CUT
10
163.0192
20
106.8574
0
VERTEX
8
CUT
10
163.0333
20
106.8600
0
VERTEX
8
CUT
10
163.0664
20
106.8656
0
VERTEX
8
CUT
10
163.0806
20
106.8680
0
VERTEX
8
CUT
10
163.0979
20
106.8707
0
VERTEX
8
CUT
10
163.1122
20
106.8728
0
VERTEX
8
CUT
10
163.1454
20
106.8774
0
VERTEX
8
CUT
10
163.1597
20
106.8792
0
VERTEX
8
CUT
10
163.1761
20
106.8813
0
VERTEX
8
CUT
10
163.1903
20
106.8829
0
VERTEX
8
CUT
10
163.2237
20
106.8865
0
VERTEX
8
CUT
10
163.2380
20
106.8879
0
VERTEX
8
CUT
10
163.2555
20
106.8894
0
VERTEX
8
CUT
10
163.2698
20
106.8906
0
VERTEX
8
CUT
10
163.3033
20
106.8931
0
VERTEX
8
CUT
10
163.3177
20
106.8941
0
VERTEX
8
CUT
10
163.9073
20
106.9285
0
VERTEX
8
CUT
10
163.9220
20
106.9295
0
VERTEX
8
CUT
10
164.0177
20
106.9375
0
VERTEX
8
CUT
10
164.0324
20
106.9389
0
VERTEX
8
CUT
10
164.0898
20
106.9450
0
VERTEX
8
CUT
10
164.1191
20
106.9489
0
VERTEX
8
CUT
10
164.3062
20
106.9785
0
VERTEX
8
CUT
10
164.3640
20
106.9906
0
VERTEX
8
CUT
10
164.5448
20
107.0378
0
VERTEX
8
CUT
10
164.6012
20
107.0555
0
VERTEX
8
CUT
10
164.7764
20
107.1203
0
VERTEX
8
CUT
10
164.8308
20
107.1434
0
VERTEX
8
CUT
10
164.9988
20
107.2251
0
VERTEX
8
CUT
10
165.0506
20
107.2535
0
VERTEX
8
CUT
10
165.2098
20
107.3513
0
VERTEX
8
CUT
10
165.2586
20
107.3847
0
VERTEX
8
CUT
10
165.4074
20
107.4977
0
VERTEX
8
CUT
10
165.4526
20
107.5357
0
VERTEX
8
CUT
10
165.5896
20
107.6627
0
VERTEX
8
CUT
10
165.6309
20
107.7050
0
VERTEX
8
CUT
10
165.7547
20
107.8449
0
VERTEX
8
CUT
10
165.7916
20
107.8911
0
VERTEX
8
CUT
10
165.9010
20
108.0425
0
VERTEX
8
CUT
10
165.9332
20
108.0921
0
VERTEX
8
CUT
10
166.0272
20
108.2535
0
VERTEX
8
CUT
10
166.0544
20
108.3060
0
VERTEX
8
CUT
10
166.1321
20
108.4759
0
VERTEX
8
CUT
10
166.1539
20
108.5308
0
VERTEX
8
CUT
10
166.2145
20
108.7075
0
VERTEX
8
CUT
10
166.2309
20
108.7643
0
VERTEX
8
CUT
10
166.2738
20
108.9461
0
VERTEX
8
CUT
10
166.2845
20
109.0042
0
VERTEX
8
CUT
10
166.3093
20
109.1894
0
VERTEX
8
CUT
10
166.3142
20
109.2483
0
VERTEX
8
CUT
10
166.3207
20
109.4350
0
VERTEX
8
CUT
10
166.3198
20
109.4941
0
VERTEX
8
CUT
10
166.3079
20
109.6805
0
VERTEX
8
CUT
10
166.3012
20
109.7393
0
VERTEX
8
CUT
10
166.2710
20
109.9236
0
VERTEX
8
CUT
10
166.2586
20
109.9814
0
VERTEX
8
CUT
10
166.2104
20
110.1619
0
VERTEX
8
CUT
10
166.1923
20
110.2182
0
VERTEX
8
CUT
10
166.1266
20
110.3930
0
VERTEX
8
CUT
10
166.1031
20
110.4473
0
VERTEX
8
CUT
10
166.0205
20
110.6148
0
VERTEX
8
CUT
10
165.9918
20
110.6665
0
VERTEX
8
CUT
10
165.8931
20
110.8251
0
VERTEX
8
CUT
10
165.8594
20
110.8737
0
VERTEX
8
CUT
10
165.7456
20
111.0218
0
VERTEX
8
CUT
10
165.7073
20
111.0668
0
VERTEX
8
CUT
10
165.5777
20
111.2050
0
VERTEX
8
CUT
10
165.5569
20
111.2260
0
VERTEX
8
CUT
10
165.5154
20
111.2661
0
VERTEX
8
CUT
10
165.5047
20
111.2762
0
VERTEX
8
CUT
10
165.4339
20
111.3412
0
VERTEX
8
CUT
10
165.4229
20
111.3511
0
VERTEX
8
CUT
10
164.5290
20
112.1329
0
VERTEX
8
CUT
10
164.5221
20
112.1390
0
VERTEX
8
CUT
10
164.5115
20
112.1485
0
VERTEX
8
CUT
10
164.4941
20
112.1644
0
VERTEX
8
CUT
10
164.4711
20
112.1860
0
VERTEX
8
CUT
10
164.4510
20
112.2055
0
VERTEX
8
CUT
10
164.4353
20
112.2212
0
VERTEX
8
CUT
10
164.4264
20
112.2303
0
VERTEX
8
CUT
10
164.4231
20
112.2337
0
VERTEX
8
CUT
10
164.4042
20
112.2537
0
VERTEX
8
CUT
10
164.3629
20
112.2990
0
VERTEX
8
CUT
10
164.3387
20
112.3266
0
VERTEX
8
CUT
10
164.3307
20
112.3361
0
VERTEX
8
CUT
10
164.3249
20
112.3431
0
VERTEX
8
CUT
10
162.8413
20
114.1441
0
VERTEX
8
CUT
10
162.8300
20
114.1575
0
VERTEX
8
CUT
10
162.7551
20
114.2431
0
VERTEX
8
CUT
10
162.7434
20
114.2562
0
VERTEX
8
CUT
10
162.6970
20
114.3062
0
VERTEX
8
CUT
10
162.6725
20
114.3312
0
VERTEX
8
CUT
10
162.5085
20
114.4887
0
VERTEX
8
CUT
10
162.4825
20
114.5122
0
VERTEX
8
CUT
10
162.4306
20
114.5565
0
VERTEX
8
CUT
10
162.4171
20
114.5677
0
VERTEX
8
CUT
10
162.3285
20
114.6390
0
VERTEX
8
CUT
10
162.3147
20
114.6497
0
VERTEX
8
CUT
10
161.4109
20
115.3344
0
VERTEX
8
CUT
10
161.4003
20
115.3423
0
VERTEX
8
CUT
10
161.3309
20
115.3925
0
VERTEX
8
CUT
10
161.3201
20
115.4001
0
VERTEX
8
CUT
10
161.2316
20
115.4612
0
VERTEX
8
CUT
10
161.2207
20
115.4686
0
VERTEX
8
CUT
10
161.1492
20
115.5157
0
VERTEX
8
CUT
10
161.1381
20
115.5229
0
VERTEX
8
CUT
10
158.6714
20
117.0709
0
VERTEX
8
CUT
10
158.6587
20
117.0786
0
VERTEX
8
CUT
10
158.5756
20
117.1279
0
VERTEX
8
CUT
10
158.5628
20
117.1354
0
VERTEX
8
CUT
10
158.5121
20
117.1638
0
VERTEX
8
CUT
10
158.4858
20
117.1777
0
VERTEX
8
CUT
10
158.3152
20
117.2625
0
VERTEX
8
CUT
10
158.2607
20
117.2863
0
VERTEX
8
CUT
10
158.0850
20
117.3529
0
VERTEX
8
CUT
10
158.0284
20
117.3712
0
VERTEX
8
CUT
10
157.8469
20
117.4200
0
VERTEX
8
CUT
10
157.7888
20
117.4326
0
VERTEX
8
CUT
10
157.6034
20
117.4633
0
VERTEX
8
CUT
10
157.5443
20
117.4701
0
VERTEX
8
CUT
10
157.3567
20
117.4823
0
VERTEX
8
CUT
10
157.2973
20
117.4832
0
VERTEX
8
CUT
10
157.1094
20
117.4767
0
VERTEX
8
CUT
10
157.0502
20
117.4717
0
VERTEX
8
CUT
10
156.8639
20
117.4467
0
VERTEX
8
CUT
10
156.8055
20
117.4359
0
VERTEX
8
CUT
10
156.6226
20
117.3926
0
VERTEX
8
CUT
10
156.5655
20
117.3760
0
VERTEX
8
CUT
10
156.3878
20
117.3148
0
VERTEX
8
CUT
10
156.3326
20
117.2927
0
VERTEX
8
CUT
10
156.1618
20
117.2142
0
VERTEX
8
CUT
10
156.1091
20
117.1867
0
VERTEX
8
CUT
10
155.9469
20
117.0917
0
VERTEX
8
CUT
10
155.8972
20
117.0591
0
VERTEX
8
CUT
10
155.7452
20
116.9486
0
VERTEX
8
CUT
10
155.6989
20
116.9112
0
VERTEX
8
CUT
10
155.5586
20
116.7861
0
VERTEX
8
CUT
10
155.5163
20
116.7444
0
VERTEX
8
CUT
10
155.3891
20
116.6061
0
VERTEX
8
CUT
10
155.3510
20
116.5604
0
VERTEX
8
CUT
10
155.2382
20
116.4101
0
VERTEX
8
CUT
10
155.2048
20
116.3608
0
VERTEX
8
CUT
10
155.1074
20
116.2001
0
VERTEX
8
CUT
10
155.0791
20
116.1478
0
VERTEX
8
CUT
10
154.9980
20
115.9783
0
VERTEX
8
CUT
10
154.9751
20
115.9234
0
VERTEX
8
CUT
10
154.9112
20
115.7467
0
VERTEX
8
CUT
10
154.8937
20
115.6898
0
VERTEX
8
CUT
10
154.8476
20
115.5076
0
VERTEX
8
CUT
10
154.8359
20
115.4493
0
VERTEX
8
CUT
10
154.8081
20
115.2634
0
VERTEX
8
CUT
10
154.8022
20
115.2043
0
VERTEX
8
CUT
10
154.7929
20
115.0166
0
VERTEX
8
CUT
10
154.7929
20
114.9571
0
VERTEX
8
CUT
10
154.8022
20
114.7694
0
VERTEX
8
CUT
10
154.8081
20
114.7102
0
SEQEND
0
POLYLINE
8
CUT
66
1
70
1
10
0.0
20
0.0
30
0.0
0
VERTEX
8
CUT
10
122.2978
20
121.0710
0
VERTEX
8
CUT
10
122.3092
20
121.0126
0
VERTEX
8
CUT
10
122.3542
20
120.8299
0
VERTEX
8
CUT
10
122.3713
20
120.7729
0
VERTEX
8
CUT
10
122.4342
20
120.5956
0
VERTEX
8
CUT
10
122.4568
20
120.5406
0
VERTEX
8
CUT
10
122.5370
20
120.3703
0
VERTEX
8
CUT
10
122.5650
20
120.3178
0
VERTEX
8
CUT
10
122.6629
20
120.1541
0
VERTEX
8
CUT
10
122.6789
20
120.1290
0
VERTEX
8
CUT
10
122.7111
20
120.0806
0
VERTEX
8
CUT
10
122.7196
20
120.0684
0
VERTEX
8
CUT
10
122.7753
20
119.9893
0
VERTEX
8
CUT
10
122.7840
20
119.9772
0
VERTEX
8
CUT
10
124.3180
20
117.9104
0
VERTEX
8
CUT
10
124.3260
20
117.8996
0
VERTEX
8
CUT
10
124.3366
20
117.8848
0
VERTEX
8
CUT
10
124.3667
20
117.8402
0
VERTEX
8
CUT
10
124.4147
20
117.7642
0
VERTEX
8
CUT
10
124.4352
20
117.7302
0
VERTEX
8
CUT
10
124.4541
20
117.6953
0
VERTEX
8
CUT
10
124.4951
20
117.6153
0
VERTEX
8
CUT
10
124.5182
20
117.5667
0
VERTEX
8
CUT
10
124.5255
20
117.5500
0
VERTEX
8
CUT
10
124.5309
20
117.5377
0
VERTEX
8
CUT
10
125.3308
20
115.6402
0
VERTEX
8
CUT
10
125.3372
20
115.6256
0
VERTEX
8
CUT
10
125.3799
20
115.5313
0
VERTEX
8
CUT
10
125.3867
20
115.5169
0
VERTEX
8
CUT
10
125.4434
20
115.4000
0
VERTEX
8
CUT
10
125.4506
20
115.3858
0
VERTEX
8
CUT
10
125.4982
20
115.2939
0
VERTEX
8
CUT
10
125.5058
20
115.2799
0
VERTEX
8
CUT
10
126.5426
20
113.4050
0
VERTEX
8
CUT
10
126.5530
20
113.3868
0
VERTEX
8
CUT
10
126.6230
20
113.2701
0
VERTEX
8
CUT
10
126.6341
20
113.2523
0
VERTEX
8
CUT
10
126.7270
20
113.1090
0
VERTEX
8
CUT
10
126.7386
20
113.0916
0
VERTEX
8
CUT
10
126.8166
20
112.9801
0
VERTEX
8
CUT
10
126.8289
20
112.9631
0
VERTEX
8
CUT
10
128.8606
20
110.2615
0
VERTEX
8
CUT
10
128.8672
20
110.2528
0
VERTEX
8
CUT
10
128.9143
20
110.1926
0
VERTEX
8
CUT
10
128.9214
20
110.1837
0
VERTEX
8
CUT
10
128.9529
20
110.1448
0
VERTEX
8
CUT
10
128.9685
20
110.1264
0
VERTEX
8
CUT
10
129.0680
20
110.0135
0
VERTEX
8
CUT
10
129.0836
20
109.9963
0
VERTEX
8
CUT
10
129.1114
20
109.9672
0
VERTEX
8
CUT
10
129.1190
20
109.9593
0
VERTEX
8
CUT
10
129.1721
20
109.9056
0
VERTEX
8
CUT
10
129.1808
20
109.8970
0
VERTEX
8
CUT
10
131.7138
20
107.4349
0
VERTEX
8
CUT
10
131.7292
20
107.4205
0
VERTEX
8
CUT
10
131.8309
20
107.3284
0
VERTEX
8
CUT
10
131.8468
20
107.3145
0
VERTEX
8
CUT
10
131.9783
20
107.2036
0
VERTEX
8
CUT
10
131.9947
20
107.1902
0
VERTEX
8
CUT
10
132.1026
20
107.1055
0
VERTEX
8
CUT
10
132.1194
20
107.0928
0
VERTEX
8
CUT
10
133.5891
20
106.0202
0
VERTEX
8
CUT
10
133.6069
20
106.0078
0
VERTEX
8
CUT
10
133.7237
20
105.9288
0
VERTEX
8
CUT
10
133.7419
20
105.9170
0
VERTEX
8
CUT
10
133.8919
20
105.8234
0
VERTEX
8
CUT
10
133.9105
20
105.8122
0
VERTEX
8
CUT
10
134.0327
20
105.7419
0
VERTEX
8
CUT
10
134.0517
20
105.7314
0
VERTEX
8
CUT
10
135.1401
20
105.1569
0
VERTEX
8
CUT
10
135.1551
20
105.1492
0
VERTEX
8
CUT
10
135.2535
20
105.1007
0
VERTEX
8
CUT
10
135.2687
20
105.0935
0
VERTEX
8
CUT
10
135.3938
20
105.0362
0
VERTEX
8
CUT
10
135.4093
20
105.0294
0
VERTEX
8
CUT
10
135.5102
20
104.9866
0
VERTEX
8
CUT
10
135.5258
20
104.9802
0
VERTEX
8
CUT
10
137.8879
20
104.0552
0
VERTEX
8
CUT
10
137.9070
20
104.0480
0
VERTEX
8
CUT
10
138.0321
20
104.0039
0
VERTEX
8
CUT
10
138.0514
20
103.9974
0
VERTEX
8
CUT
10
138.2101
20
103.9474
0
VERTEX
8
CUT
10
138.2297
20
103.9416
0
VERTEX
8
CUT
10
138.3575
20
103.9061
0
VERTEX
8
CUT
10
138.3772
20
103.9010
0
VERTEX
8
CUT
10
140.6318
20
103.3560
0
VERTEX
8
CUT
10
140.6460
20
103.3527
0
VERTEX
8
CUT
10
140.7386
20
103.3327
0
VERTEX
8
CUT
10
140.7529
20
103.3298
0
VERTEX
8
CUT
10
140.8088
20
103.3191
0
VERTEX
8
CUT
10
140.8376
20
103.3144
0
VERTEX
8
CUT
10
141.0226
20
103.2883
0
VERTEX
8
CUT
10
141.0806
20
103.2830
0
VERTEX
8
CUT
10
141.2647
20
103.2751
0
VERTEX
8
CUT
10
141.3230
20
103.2754
0
VERTEX
8
CUT
10
141.5070
20
103.2854
0
VERTEX
8
CUT
10
141.5650
20
103.2914
0
VERTEX
8
CUT
10
141.7472
20
103.3192
0
VERTEX
8
CUT
10
141.8043
20
103.3308
0
VERTEX
8
CUT
10
141.9829
20
103.3762
0
VERTEX
8
CUT
10
142.0386
20
103.3932
0
VERTEX
8
CUT
10
142.2120
20
103.4557
0
VERTEX
8
CUT
10
142.2658
20
103.4781
0
VERTEX
8
CUT
10
142.4323
20
103.5571
0
VERTEX
8
CUT
10
142.4836
20
103.5846
0
VERTEX
8
CUT
10
142.6417
20
103.6794
0
VERTEX
8
CUT
10
142.6901
20
103.7118
0
VERTEX
8
CUT
10
142.8382
20
103.8215
0
VERTEX
8
CUT
10
142.8833
20
103.8584
0
VERTEX
8
CUT
10
143.0201
20
103.9819
0
VERTEX
8
CUT
10
143.0614
20
104.0230
0
VERTEX
8
CUT
10
143.1855
20
104.1592
0
VERTEX
8
CUT
10
143.2226
20
104.2042
0
VERTEX
8
CUT
10
143.3329
20
104.3518
0
VERTEX
8
CUT
10
143.3655
20
104.4001
0
VERTEX
8
CUT
10
143.4610
20
104.5577
0
VERTEX
8
CUT
10
143.4887
20
104.6090
0
VERTEX
8
CUT
10
143.5684
20
104.7751
0
VERTEX
8
CUT
10
143.5911
20
104.8288
0
VERTEX
8
CUT
10
143.6543
20
105.0019
0
VERTEX
8
CUT
10
143.6716
20
105.0576
0
VERTEX
8
CUT
10
143.7178
20
105.2360
0
VERTEX
8
CUT
10
143.7296
20
105.2930
0
VERTEX
8
CUT
10
143.7582
20
105.4751
0
VERTEX
8
CUT
10
143.7645
20
105.5330
0
VERTEX
8
CUT
10
143.7753
20
105.7170
0
VERTEX
8
CUT
10
143.7759
20
105.7753
0
VERTEX
8
CUT
10
143.7688
20
105.9594
0
VERTEX
8
CUT
10
143.7637
20
106.0175
0
VERTEX
8
CUT
10
143.7388
20
106.2000
0
VERTEX
8
CUT
10
143.7281
20
106.2573
0
VERTEX
8
CUT
10
143.6850
20
106.4391
0
VERTEX
8
CUT
10
143.6776
20
106.4673
0
VERTEX
8
CUT
10
143.6676
20
106.5018
0
VERTEX
8
CUT
10
143.6544
20
106.5531
0
VERTEX
8
CUT
10
143.6347
20
106.6404
0
VERTEX
8
CUT
10
143.6182
20
106.7376
0
VERTEX
8
CUT
10
143.6108
20
106.8028
0
VERTEX
8
CUT
10
143.6051
20
106.9012
0
VERTEX
8
CUT
10
143.6049
20
106.9668
0
VERTEX
8
CUT
10
143.6099
20
107.0652
0
VERTEX
8
CUT
10
143.6195
20
107.1550
0
VERTEX
8
CUT
10
143.6261
20
107.2039
0
VERTEX
8
CUT
10
143.6283
20
107.2173
0
VERTEX
8
CUT
10
143.6301
20
107.2292
0
VERTEX
8
CUT
10
143.6411
20
107.3066
0
VERTEX
8
CUT
10
143.6426
20
107.3185
0
VERTEX
8
CUT
10
143.6483
20
107.3651
0
VERTEX
8
CUT
10
143.6507
20
107.3890
0
VERTEX
8
CUT
10
143.6634
20
107.5447
0
VERTEX
8
CUT
10
143.6648
20
107.5687
0
VERTEX
8
CUT
10
143.6667
20
107.6157
0
VERTEX
8
CUT
10
143.6671
20
107.6277
0
VERTEX
8
CUT
10
143.6687
20
107.7058
0
VERTEX
8
CUT
10
143.6689
20
107.7178
0
VERTEX
8
CUT
10
143.6689
20
107.7894
0
VERTEX
8
CUT
10
143.6692
20
107.8114
0
VERTEX
8
CUT
10
143.6705
20
107.8626
0
VERTEX
8
CUT
10
143.6713
20
107.8845
0
VERTEX
8
CUT
10
143.8367
20
111.2178
0
VERTEX
8
CUT
10
143.8373
20
111.2365
0
VERTEX
8
CUT
10
143.8396
20
111.3585
0
VERTEX
8
CUT
10
143.8396
20
111.3773
0
VERTEX
8
CUT
10
143.8376
20
111.5304
0
VERTEX
8
CUT
10
143.8371
20
111.5492
0
VERTEX
8
CUT
10
143.8317
20
111.6711
0
VERTEX
8
CUT
10
143.8305
20
111.6898
0
VERTEX
8
CUT
10
143.6689
20
113.8230
0
VERTEX
8
CUT
10
143.6671
20
113.8427
0
VERTEX
8
CUT
10
143.6531
20
113.9709
0
VERTEX
8
CUT
10
143.6506
20
113.9906
0
VERTEX
8
CUT
10
143.6278
20
114.1508
0
VERTEX
8
CUT
10
143.6246
20
114.1704
0
VERTEX
8
CUT
10
143.6022
20
114.2974
0
VERTEX
8
CUT
10
143.5984
20
114.3169
0
VERTEX
8
CUT
10
143.1243
20
116.5641
0
VERTEX
8
CUT
10
143.1211
20
116.5784
0
VERTEX
8
CUT
10
143.0992
20
116.6709
0
VERTEX
8
CUT
10
143.0956
20
116.6851
0
VERTEX
8
CUT
10
143.0811
20
116.7403
0
VERTEX
8
CUT
10
143.0730
20
116.7684
0
VERTEX
8
CUT
10
143.0166
20
116.9472
0
VERTEX
8
CUT
10
142.9963
20
117.0021
0
VERTEX
8
CUT
10
142.9238
20
117.1722
0
VERTEX
8
CUT
10
142.8983
20
117.2248
0
VERTEX
8
CUT
10
142.8096
20
117.3870
0
VERTEX
8
CUT
10
142.7790
20
117.4369
0
VERTEX
8
CUT
10
142.6749
20
117.5897
0
VERTEX
8
CUT
10
142.6397
20
117.6364
0
VERTEX
8
CUT
10
142.5212
20
117.7784
0
VERTEX
8
CUT
10
142.4816
20
117.8214
0
VERTEX
8
CUT
10
142.3498
20
117.9511
0
VERTEX
8
CUT
10
142.3062
20
117.9901
0
VERTEX
8
CUT
10
142.1624
20
118.1064
0
VERTEX
8
CUT
10
142.1152
20
118.1409
0
VERTEX
8
CUT
10
141.9608
20
118.2427
0
VERTEX
8
CUT
10
141.9105
20
118.2724
0
VERTEX
8
CUT
10
141.7469
20
118.3587
0
VERTEX
8
CUT
10
141.6939
20
118.3834
0
VERTEX
8
CUT
10
141.5227
20
118.4533
0
VERTEX
8
CUT
10
141.4675
20
118.4728
0
VERTEX
8
CUT
10
141.4399
20
118.4810
0
VERTEX
8
CUT
10
141.3975
20
118.4948
0
VERTEX
8
CUT
10
141.3206
20
118.5220
0
VERTEX
8
CUT
10
141.2383
20
118.5557
0
VERTEX
8
CUT
10
141.1846
20
118.5809
0
VERTEX
8
CUT
10
141.1060
20
118.6226
0
VERTEX
8
CUT
10
141.0551
20
118.6530
0
VERTEX
8
CUT
10
140.9810
20
118.7023
0
VERTEX
8
CUT
10
140.9334
20
118.7375
0
VERTEX
8
CUT
10
140.8645
20
118.7939
0
VERTEX
8
CUT
10
140.8205
20
118.8336
0
VERTEX
8
CUT
10
140.7576
20
118.8965
0
VERTEX
8
CUT
10
140.7178
20
118.9404
0
VERTEX
8
CUT
10
140.6613
20
119.0093
0
VERTEX
8
CUT
10
140.6261
20
119.0569
0
VERTEX
8
CUT
10
140.5767
20
119.1309
0
VERTEX
8
CUT
10
140.5463
20
119.1818
0
VERTEX
8
CUT
10
140.5045
20
119.2604
0
VERTEX
8
CUT
10
140.4793
20
119.3140
0
VERTEX
8
CUT
10
140.4454
20
119.3963
0
VERTEX
8
CUT
10
140.4256
20
119.4522
0
VERTEX
8
CUT
10
140.4001
20
119.5375
0
VERTEX
8
CUT
10
140.3859
20
119.5950
0
VERTEX
8
CUT
10
140.3689
20
119.6824
0
VERTEX
8
CUT
10
140.3605
20
119.7410
0
VERTEX
8
CUT
10
140.3522
20
119.8296
0
VERTEX
8
CUT
10
140.3496
20
119.8888
0
VERTEX
8
CUT
10
140.3501
20
119.9778
0
VERTEX
8
CUT
10
140.3534
20
120.0370
0
VERTEX
8
CUT
10
140.3627
20
120.1255
0
VERTEX
8
CUT
10
140.3718
20
120.1841
0
VERTEX
8
CUT
10
140.3898
20
120.2713
0
VERTEX
8
CUT
10
140.4047
20
120.3286
0
VERTEX
8
CUT
10
140.4312
20
120.4136
0
VERTEX
8
CUT
10
140.4516
20
120.4692
0
VERTEX
8
CUT
10
140.4864
20
120.5511
0
VERTEX
8
CUT
10
140.5123
20
120.6045
0
VERTEX
8
CUT
10
140.5550
20
120.6825
0
VERTEX
8
CUT
10
140.5976
20
120.7521
0
VERTEX
8
CUT
10
140.6218
20
120.7894
0
VERTEX
8
CUT
10
140.6274
20
120.7976
0
VERTEX
8
CUT
10
140.6434
20
120.8224
0
VERTEX
8
CUT
10
140.7421
20
120.9832
0
VERTEX
8
CUT
10
140.7704
20
121.0349
0
VERTEX
8
CUT
10
140.8518
20
121.2023
0
VERTEX
8
CUT
10
140.8749
20
121.2565
0
VERTEX
8
CUT
10
140.9394
20
121.4311
0
VERTEX
8
CUT
10
140.9571
20
121.4873
0
VERTEX
8
CUT
10
141.0042
20
121.6674
0
VERTEX
8
CUT
10
141.0163
20
121.7250
0
VERTEX
8
CUT
10
141.0456
20
121.9088
0
VERTEX
8
CUT
10
141.0519
20
121.9674
0
VERTEX
8
CUT
10
141.0630
20
122.1532
0
VERTEX
8
CUT
10
141.0636
20
122.2121
0
VERTEX
8
CUT
10
141.0564
20
122.3981
0
VERTEX
8
CUT
10
141.0513
20
122.4568
0
VERTEX
8
CUT
10
141.0259
20
122.6412
0
VERTEX
8
CUT
10
141.0150
20
122.6990
0
VERTEX
8
CUT
10
140.9716
20
122.8801
0
VERTEX
8
CUT
10
140.9551
20
122.9366
0
VERTEX
8
CUT
10
140.8943
20
123.1125
0
VERTEX
8
CUT
10
140.8723
20
123.1672
0
VERTEX
8
CUT
10
140.7944
20
123.3363
0
VERTEX
8
CUT
10
140.7672
20
123.3885
0
VERTEX
8
CUT
10
140.6732
20
123.5492
0
VERTEX
8
CUT
10
140.6410
20
123.5985
0
VERTEX
8
CUT
10
140.5317
20
123.7491
0
VERTEX
8
CUT
10
140.4948
20
123.7950
0
VERTEX
8
CUT
10
140.3712
20
123.9343
0
VERTEX
8
CUT
10
140.3300
20
123.9763
0
VERTEX
8
CUT
10
140.1934
20
124.1028
0
VERTEX
8
CUT
10
140.1482
20
124.1406
0
VERTEX
8
CUT
10
139.9999
20
124.2530
0
VERTEX
8
CUT
10
139.9512
20
124.2863
0
VERTEX
8
CUT
10
139.7926
20
124.3836
0
VERTEX
8
CUT
10
139.7409
20
124.4119
0
VERTEX
8
CUT
10
139.5735
20
124.4932
0
VERTEX
8
CUT
10
139.5193
20
124.5163
0
VERTEX
8
CUT
10
139.3447
20
124.5809
0
VERTEX
8
CUT
10
139.2885
20
124.5985
0
VERTEX
8
CUT
10
139.1084
20
124.6456
0
VERTEX
8
CUT
10
139.0508
20
124.6577
0
VERTEX
8
CUT
10
138.8644
20
124.6873
0
VERTEX
8
CUT
10
138.8352
20
124.6913
0
VERTEX
8
CUT
10
138.7780
20
124.6975
0
VERTEX
8
CUT
10
138.7634
20
124.6989
0
VERTEX
8
CUT
10
138.6680
20
124.7069
0
VERTEX
8
CUT
10
138.6533
20
124.7080
0
VERTEX
8
CUT
10
136.1660
20
124.8560
0
VERTEX
8
CUT
10
136.1238
20
124.8595
0
VERTEX
8
CUT
10
136.0466
20
124.8677
0
VERTEX
8
CUT
10
135.9630
20
124.8807
0
VERTEX
8
CUT
10
135.9077
20
124.8919
0
VERTEX
8
CUT
10
135.8257
20
124.9127
0
VERTEX
8
CUT
10
135.7717
20
124.9290
0
VERTEX
8
CUT
10
135.6920
20
124.9574
0
VERTEX
8
CUT
10
135.6202
20
124.9868
0
VERTEX
8
CUT
10
135.5814
20
125.0038
0
VERTEX
8
CUT
10
133.5555
20
125.9474
0
VERTEX
8
CUT
10
133.5437
20
125.9527
0
VERTEX
8
CUT
10
133.4663
20
125.9867
0
VERTEX
8
CUT
10
133.4544
20
125.9918
0
VERTEX
8
CUT
10
133.4075
20
126.0113
0
VERTEX
8
CUT
10
133.3832
20
126.0207
0
VERTEX
8
CUT
10
133.2266
20
126.0777
0
VERTEX
8
CUT
10
133.1771
20
126.0934
0
VERTEX
8
CUT
10
133.0183
20
126.1360
0
VERTEX
8
CUT
10
132.9675
20
126.1473
0
VERTEX
8
CUT
10
132.8035
20
126.1765
0
VERTEX
8
CUT
10
132.7778
20
126.1805
0
VERTEX
8
CUT
10
132.7274
20
126.1872
0
VERTEX
8
CUT
10
132.7145
20
126.1888
0
VERTEX
8
CUT
10
132.6305
20
126.1981
0
VERTEX
8
CUT
10
132.6176
20
126.1994
0
VERTEX
8
CUT
10
129.9938
20
126.4342
0
VERTEX
8
CUT
10
129.9778
20
126.4354
0
VERTEX
8
CUT
10
129.8741
20
126.4419
0
VERTEX
8
CUT
10
129.8582
20
126.4427
0
VERTEX
8
CUT
10
129.7958
20
126.4449
0
VERTEX
8
CUT
10
129.7639
20
126.4452
0
VERTEX
8
CUT
10
129.5591
20
126.4416
0
VERTEX
8
CUT
10
129.4953
20
126.4371
0
VERTEX
8
CUT
10
129.2920
20
126.4118
0
VERTEX
8
CUT
10
129.2604
20
126.4070
0
VERTEX
8
CUT
10
129.2305
20
126.4016
0
VERTEX
8
CUT
10
129.2007
20
126.3955
0
VERTEX
8
CUT
10
129.0086
20
126.3510
0
VERTEX
8
CUT
10
128.9793
20
126.3434
0
VERTEX
8
CUT
10
128.9595
20
126.3377
0
VERTEX
8
CUT
10
128.9320
20
126.3292
0
VERTEX
8
CUT
10
128.7576
20
126.2701
0
VERTEX
8
CUT
10
128.7041
20
126.2491
0
VERTEX
8
CUT
10
128.5361
20
126.1737
0
VERTEX
8
CUT
10
128.5101
20
126.1613
0
VERTEX
8
CUT
10
128.4601
20
126.1359
0
VERTEX
8
CUT
10
128.4474
20
126.1292
0
VERTEX
8
CUT
10
128.3651
20
126.0849
0
VERTEX
8
CUT
10
128.3526
20
126.0780
0
VERTEX
8
CUT
10
127.7351
20
125.7261
0
VERTEX
8
CUT
10
127.6947
20
125.7044
0
VERTEX
8
CUT
10
127.6197
20
125.6666
0
VERTEX
8
CUT
10
127.5359
20
125.6296
0
VERTEX
8
CUT
10
127.4789
20
125.6078
0
VERTEX
8
CUT
10
127.3918
20
125.5795
0
VERTEX
8
CUT
10
127.3329
20
125.5636
0
VERTEX
8
CUT
10
127.2433
20
125.5443
0
VERTEX
8
CUT
10
127.1831
20
125.5345
0
VERTEX
8
CUT
10
127.0920
20
125.5244
0
VERTEX
8
CUT
10
127.0082
20
125.5194
0
VERTEX
8
CUT
10
126.9624
20
125.5178
0
VERTEX
8
CUT
10
126.5391
20
125.5142
0
VERTEX
8
CUT
10
126.5251
20
125.5139
0
VERTEX
8
CUT
10
126.4337
20
125.5110
0
VERTEX
8
CUT
10
126.4197
20
125.5104
0
VERTEX
8
CUT
10
126.3648
20
125.5074
0
VERTEX
8
CUT
10
126.3368
20
125.5051
0
VERTEX
8
CUT
10
126.1575
20
125.4867
0
VERTEX
8
CUT
10
126.1019
20
125.4784
0
VERTEX
8
CUT
10
125.9275
20
125.4437
0
VERTEX
8
CUT
10
125.8729
20
125.4302
0
VERTEX
8
CUT
10
125.7002
20
125.3787
0
VERTEX
8
CUT
10
125.6734
20
125.3700
0
VERTEX
8
CUT
10
125.6216
20
125.3519
0
VERTEX
8
CUT
10
125.6083
20
125.3471
0
VERTEX
8
CUT
10
125.5487
20
125.3246
0
VERTEX
8
CUT
10
125.5210
20
125.3134
0
VERTEX
8
CUT
10
125.4330
20
125.2752
0
VERTEX
8
CUT
10
125.4167
20
125.2678
0
VERTEX
8
CUT
10
125.3588
20
125.2405
0
VERTEX
8
CUT
10
125.3288
20
125.2253
0
VERTEX
8
CUT
10
125.1388
20
125.1226
0
VERTEX
8
CUT
10
125.0814
20
125.0872
0
VERTEX
8
CUT
10
124.9042
20
124.9638
0
VERTEX
8
CUT
10
124.8771
20
124.9437
0
VERTEX
8
CUT
10
124.8253
20
124.9032
0
VERTEX
8
CUT
10
124.8122
20
124.8926
0
VERTEX
8
CUT
10
124.7279
20
124.8226
0
VERTEX
8
CUT
10
124.7150
20
124.8117
0
VERTEX
8
CUT
10
123.1513
20
123.4380
0
VERTEX
8
CUT
10
123.1403
20
123.4281
0
VERTEX
8
CUT
10
123.0692
20
123.3624
0
VERTEX
8
CUT
10
123.0584
20
123.3522
0
VERTEX
8
CUT
10
123.0167
20
123.3117
0
VERTEX
8
CUT
10
122.9958
20
123.2905
0
VERTEX
8
CUT
10
122.8657
20
123.1510
0
VERTEX
8
CUT
10
122.8273
20
123.1055
0
VERTEX
8
CUT
10
122.7132
20
122.9559
0
VERTEX
8
CUT
10
122.6795
20
122.9069
0
VERTEX
8
CUT
10
122.5808
20
122.7467
0
VERTEX
8
CUT
10
122.5521
20
122.6945
0
VERTEX
8
CUT
10
122.4698
20
122.5254
0
VERTEX
8
CUT
10
122.4464
20
122.4706
0
VERTEX
8
CUT
10
122.3812
20
122.2941
0
VERTEX
8
CUT
10
122.3634
20
122.2373
0
VERTEX
8
CUT
10
122.3160
20
122.0553
0
VERTEX
8
CUT
10
122.3039
20
121.9970
0
VERTEX
8
CUT
10
122.2748
20
121.8111
0
VERTEX
8
CUT
10
122.2685
20
121.7519
0
VERTEX
8
CUT
10
122.2579
20
121.5641
0
VERTEX
8
CUT
10
122.2575
20
121.5045
0
VERTEX
8
CUT
10
122.2656
20
121.3166
0
VERTEX
8
CUT
10
122.2711
20
121.2573
0
SEQEND
0
POLYLINE
8
CUT
66
1
70
1
10
0.0
20
0.0
30
0.0
0
VERTEX
8
CUT
10
93.2346
20
138.2372
0
VERTEX
8
CUT
10
93.2468
20
138.1787
0
VERTEX
8
CUT
10
93.2944
20
137.9959
0
VERTEX
8
CUT
10
93.3123
20
137.9388
0
VERTEX
8
CUT
10
93.3779
20
137.7617
0
VERTEX
8
CUT
10
93.4014
20
137.7067
0
VERTEX
8
CUT
10
93.4842
20
137.5370
0
VERTEX
8
CUT
10
93.5131
20
137.4846
0
VERTEX
8
CUT
10
93.6124
20
137.3240
0
VERTEX
8
CUT
10
93.6463
20
137.2748
0
VERTEX
8
CUT
10
93.7611
20
137.1248
0
VERTEX
8
CUT
10
93.7998
20
137.0792
0
VERTEX
8
CUT
10
93.9289
20
136.9413
0
VERTEX
8
CUT
10
93.9719
20
136.8998
0
VERTEX
8
CUT
10
94.1141
20
136.7755
0
VERTEX
8
CUT
10
94.1610
20
136.7385
0
VERTEX
8
CUT
10
94.3149
20
136.6289
0
VERTEX
8
CUT
10
94.3653
20
136.5967
0
VERTEX
8
CUT
10
94.5293
20
136.5030
0
VERTEX
8
CUT
10
94.5826
20
136.4760
0
VERTEX
8
CUT
10
94.7552
20
136.3991
0
VERTEX
8
CUT
10
94.8109
20
136.3775
0
VERTEX
8
CUT
10
94.9902
20
136.3182
0
VERTEX
8
CUT
10
95.0478
20
136.3022
0
VERTEX
8
CUT
10
95.2321
20
136.2610
0
VERTEX
8
CUT
10
95.2910
20
136.2509
0
VERTEX
8
CUT
10
95.4786
20
136.2282
0
VERTEX
8
CUT
10
95.5382
20
136.2239
0
VERTEX
8
CUT
10
95.7271
20
136.2200
0
VERTEX
8
CUT
10
95.7868
20
136.2218
0
VERTEX
8
CUT
10
95.9777
20
136.2368
0
VERTEX
8
CUT
10
96.0074
20
136.2399
0
VERTEX
8
CUT
10
96.0500
20
136.2454
0
VERTEX
8
CUT
10
96.1680
20
136.2605
0
VERTEX
8
CUT
10
96.1914
20
136.2632
0
VERTEX
8
CUT
10
96.2462
20
136.2687
0
VERTEX
8
CUT
10
96.2683
20
136.2706
0
VERTEX
8
CUT
10
96.2751
20
136.2711
0
VERTEX
8
CUT
10
96.2968
20
136.2725
0
VERTEX
8
CUT
10
96.3061
20
136.2730
0
VERTEX
8
CUT
10
97.1386
20
136.3177
0
VERTEX
8
CUT
10
97.1492
20
136.3182
0
VERTEX
8
CUT
10
97.1657
20
136.3189
0
VERTEX
8
CUT
10
97.1928
20
136.3196
0
VERTEX
8
CUT
10
97.2292
20
136.3200
0
VERTEX
8
CUT
10
97.2616
20
136.3198
0
VERTEX
8
CUT
10
97.2873
20
136.3192
0
VERTEX
8
CUT
10
97.3019
20
136.3187
0
VERTEX
8
CUT
10
97.3074
20
136.3185
0
VERTEX
8
CUT
10
97.3391
20
136.3166
0
VERTEX
8
CUT
10
97.4096
20
136.3113
0
VERTEX
8
CUT
10
97.4518
20
136.3070
0
VERTEX
8
CUT
10
97.4660
20
136.3053
0
VERTEX
8
CUT
10
97.4765
20
136.3039
0
VERTEX
8
CUT
10
102.4745
20
135.6257
0
VERTEX
8
CUT
10
102.4884
20
135.6239
0
VERTEX
8
CUT
10
102.5792
20
135.6138
0
VERTEX
8
CUT
10
102.5932
20
135.6124
0
VERTEX
8
CUT
10
102.6479
20
135.6076
0
VERTEX
8
CUT
10
102.6760
20
135.6057
0
VERTEX
8
CUT
10
102.8561
20
135.5983
0
VERTEX
8
CUT
10
102.9123
20
135.5987
0
VERTEX
8
CUT
10
103.0898
20
135.6080
0
VERTEX
8
CUT
10
103.1458
20
135.6136
0
VERTEX
8
CUT
10
103.3217
20
135.6395
0
VERTEX
8
CUT
10
103.3769
20
135.6503
0
VERTEX
8
CUT
10
103.5495
20
135.6926
0
VERTEX
8
CUT
10
103.6035
20
135.7085
0
VERTEX
8
CUT
10
103.7738
20
135.7676
0
VERTEX
8
CUT
10
103.8001
20
135.7774
0
VERTEX
8
CUT
10
103.8511
20
135.7978
0
VERTEX
8
CUT
10
103.8641
20
135.8032
0
VERTEX
8
CUT
10
103.9481
20
135.8391
0
VERTEX
8
CUT
10
103.9610
20
135.8448
0
VERTEX
8
CUT
10
105.0696
20
136.3500
0
VERTEX
8
CUT
10
105.0830
20
136.3563
0
VERTEX
8
CUT
10
105.1702
20
136.3987
0
VERTEX
8
CUT
10
105.1836
20
136.4054
0
VERTEX
8
CUT
10
105.2353
20
136.4322
0
VERTEX
8
CUT
10
105.2614
20
136.4465
0
VERTEX
8
CUT
10
105.4266
20
136.5426
0
VERTEX
8
CUT
10
105.4766
20
136.5752
0
VERTEX
8
CUT
10
105.6293
20
136.6857
0
VERTEX
8
CUT
10
105.6758
20
136.7230
0
VERTEX
8
CUT
10
105.8168
20
136.8482
0
VERTEX
8
CUT
10
105.8594
20
136.8899
0
VERTEX
8
CUT
10
105.9873
20
137.0284
0
VERTEX
8
CUT
10
106.0255
20
137.0742
0
VERTEX
8
CUT
10
106.1390
20
137.2247
0
VERTEX
8
CUT
10
106.1725
20
137.2741
0
VERTEX
8
CUT
10
106.2705
20
137.4351
0
VERTEX
8
CUT
10
106.2989
20
137.4875
0
VERTEX
8
CUT
10
106.3805
20
137.6575
0
VERTEX
8
CUT
10
106.4035
20
137.7125
0
VERTEX
8
CUT
10
106.4678
20
137.8897
0
VERTEX
8
CUT
10
106.4853
20
137.9468
0
VERTEX
8
CUT
10
106.5316
20
138.1295
0
VERTEX
8
CUT
10
106.5434
20
138.1880
0
VERTEX
8
CUT
10
106.5714
20
138.3744
0
VERTEX
8
CUT
10
106.5773
20
138.4337
0
VERTEX
8
CUT
10
106.5866
20
138.6220
0
VERTEX
8
CUT
10
106.5866
20
138.6817
0
VERTEX
8
CUT
10
106.5772
20
138.8699
0
VERTEX
8
CUT
10
106.5712
20
138.9293
0
VERTEX
8
CUT
10
106.5432
20
139.1157
0
VERTEX
8
CUT
10
106.5314
20
139.1742
0
VERTEX
8
CUT
10
106.4849
20
139.3569
0
VERTEX
8
CUT
10
106.4674
20
139.4139
0
VERTEX
8
CUT
10
106.4031
20
139.5911
0
VERTEX
8
CUT
10
106.3799
20
139.6460
0
VERTEX
8
CUT
10
106.2983
20
139.8160
0
VERTEX
8
CUT
10
106.2699
20
139.8684
0
VERTEX
8
CUT
10
106.1718
20
140.0294
0
VERTEX
8
CUT
10
106.1383
20
140.0787
0
VERTEX
8
CUT
10
106.0247
20
140.2292
0
VERTEX
8
CUT
10
105.9865
20
140.2749
0
VERTEX
8
CUT
10
105.8585
20
140.4134
0
VERTEX
8
CUT
10
105.8159
20
140.4551
0
VERTEX
8
CUT
10
105.6729
20
140.5819
0
VERTEX
8
CUT
10
105.6501
20
140.6012
0
VERTEX
8
CUT
10
105.6047
20
140.6376
0
VERTEX
8
CUT
10
105.5929
20
140.6468
0
VERTEX
8
CUT
10
105.5243
20
140.6990
0
VERTEX
8
CUT
10
105.4987
20
140.7175
0
VERTEX
8
CUT
10
105.4173
20
140.7729
0
VERTEX
8
CUT
10
105.4035
20
140.7821
0
VERTEX
8
CUT
10
105.3489
20
140.8171
0
VERTEX
8
CUT
10
105.3204
20
140.8343
0
VERTEX
8
CUT
10
105.1351
20
140.9392
0
VERTEX
8
CUT
10
105.0756
20
140.9687
0
VERTEX
8
CUT
10
104.8798
20
141.0524
0
VERTEX
8
CUT
10
104.8489
20
141.0647
0
VERTEX
8
CUT
10
104.7880
20
141.0868
0
VERTEX
8
CUT
10
104.7723
20
141.0923
0
VERTEX
8
CUT
10
104.6698
20
141.1264
0
VERTEX
8
CUT
10
104.6539
20
141.1314
0
VERTEX
8
CUT
10
103.5884
20
141.4535
0
VERTEX
8
CUT
10
103.5426
20
141.4687
0
VERTEX
8
CUT
10
103.4596
20
141.4987
0
VERTEX
8
CUT
10
103.3707
20
141.5363
0
VERTEX
8
CUT
10
103.3131
20
141.5645
0
VERTEX
8
CUT
10
103.2288
20
141.6114
0
VERTEX
8
CUT
10
103.1745
20
141.6456
0
VERTEX
8
CUT
10
103.0957
20
141.7013
0
VERTEX
8
CUT
10
103.0453
20
141.7411
0
VERTEX
8
CUT
10
102.9730
20
141.8049
0
VERTEX
8
CUT
10
102.9211
20
141.8558
0
VERTEX
8
CUT
10
102.8590
20
141.9233
0
VERTEX
8
CUT
10
102.8193
20
141.9711
0
VERTEX
8
CUT
10
102.7671
20
142.0406
0
VERTEX
8
CUT
10
102.7346
20
142.0885
0
VERTEX
8
CUT
10
102.6893
20
142.1627
0
VERTEX
8
CUT
10
102.6616
20
142.2135
0
VERTEX
8
CUT
10
102.6237
20
142.2917
0
VERTEX
8
CUT
10
102.6010
20
142.3449
0
VERTEX
8
CUT
10
102.5709
20
142.4264
0
VERTEX
8
CUT
10
102.5534
20
142.4815
0
VERTEX
8
CUT
10
102.5312
20
142.5656
0
VERTEX
8
CUT
10
102.5147
20
142.6434
0
VERTEX
8
CUT
10
102.5066
20
142.6861
0
VERTEX
8
CUT
10
102.2369
20
144.3425
0
VERTEX
8
CUT
10
102.2335
20
144.3615
0
VERTEX
8
CUT
10
102.2093
20
144.4848
0
VERTEX
8
CUT
10
102.2053
20
144.5037
0
VERTEX
8
CUT
10
102.1819
20
144.6056
0
VERTEX
8
CUT
10
102.1732
20
144.6388
0
VERTEX
8
CUT
10
102.1123
20
144.8483
0
VERTEX
8
CUT
10
102.0911
20
144.9090
0
VERTEX
8
CUT
10
102.0201
20
145.0816
0
VERTEX
8
CUT
10
101.9945
20
145.1358
0
VERTEX
8
CUT
10
101.9054
20
145.3029
0
VERTEX
8
CUT
10
101.8746
20
145.3543
0
VERTEX
8
CUT
10
101.7693
20
145.5116
0
VERTEX
8
CUT
10
101.7335
20
145.5597
0
VERTEX
8
CUT
10
101.6130
20
145.7058
0
VERTEX
8
CUT
10
101.5726
20
145.7500
0
VERTEX
8
CUT
10
101.4381
20
145.8833
0
VERTEX
8
CUT
10
101.3935
20
145.9233
0
VERTEX
8
CUT
10
101.2464
20
146.0426
0
VERTEX
8
CUT
10
101.1981
20
146.0779
0
VERTEX
8
CUT
10
101.0398
20
146.1819
0
VERTEX
8
CUT
10
100.9882
20
146.2123
0
VERTEX
8
CUT
10
100.8203
20
146.3000
0
VERTEX
8
CUT
10
100.7659
20
146.3250
0
VERTEX
8
CUT
10
100.5902
20
146.3955
0
VERTEX
8
CUT
10
100.5336
20
146.4150
0
VERTEX
8
CUT
10
100.3517
20
146.4677
0
VERTEX
8
CUT
10
100.2934
20
146.4814
0
VERTEX
8
CUT
10
100.1071
20
146.5157
0
VERTEX
8
CUT
10
100.0477
20
146.5236
0
VERTEX
8
CUT
10
99.8590
20
146.5391
0
VERTEX
8
CUT
10
99.7991
20
146.5410
0
VERTEX
8
CUT
10
99.6098
20
146.5376
0
VERTEX
8
CUT
10
99.5500
20
146.5335
0
VERTEX
8
CUT
10
99.3620
20
146.5113
0
VERTEX
8
CUT
10
99.3029
20
146.5013
0
VERTEX
8
CUT
10
99.1180
20
146.4604
0
VERTEX
8
CUT
10
99.0603
20
146.4445
0
VERTEX
8
CUT
10
98.8804
20
146.3854
0
VERTEX
8
CUT
10
98.8245
20
146.3639
0
VERTEX
8
CUT
10
98.6514
20
146.2871
0
VERTEX
8
CUT
10
98.5979
20
146.2601
0
VERTEX
8
CUT
10
98.4333
20
146.1665
0
VERTEX
8
CUT
10
98.3828
20
146.1343
0
VERTEX
8
CUT
10
98.2283
20
146.0247
0
VERTEX
8
CUT
10
98.1813
20
145.9876
0
VERTEX
8
CUT
10
98.0386
20
145.8632
0
VERTEX
8
CUT
10
97.9954
20
145.8216
0
VERTEX
8
CUT
10
97.8640
20
145.6816
0
VERTEX
8
CUT
10
97.8441
20
145.6593
0
VERTEX
8
CUT
10
97.8062
20
145.6147
0
VERTEX
8
CUT
10
97.7967
20
145.6032
0
VERTEX
8
CUT
10
97.7355
20
145.5274
0
VERTEX
8
CUT
10
97.7263
20
145.5156
0
VERTEX
8
CUT
10
93.8183
20
140.4172
0
VERTEX
8
CUT
10
93.8083
20
140.4037
0
VERTEX
8
CUT
10
93.7445
20
140.3155
0
VERTEX
8
CUT
10
93.7349
20
140.3018
0
VERTEX
8
CUT
10
93.6580
20
140.1890
0
VERTEX
8
CUT
10
93.6488
20
140.1750
0
VERTEX
8
CUT
10
93.5900
20
140.0834
0
VERTEX
8
CUT
10
93.5812
20
140.0692
0
VERTEX
8
CUT
10
93.5760
20
140.0606
0
VERTEX
8
CUT
10
93.5685
20
140.0477
0
VERTEX
8
CUT
10
93.5204
20
139.9633
0
VERTEX
8
CUT
10
93.5132
20
139.9502
0
VERTEX
8
CUT
10
93.4856
20
139.8988
0
VERTEX
8
CUT
10
93.4721
20
139.8721
0
VERTEX
8
CUT
10
93.3901
20
139.6991
0
VERTEX
8
CUT
10
93.3672
20
139.6438
0
VERTEX
8
CUT
10
93.3037
20
139.4659
0
VERTEX
8
CUT
10
93.2864
20
139.4087
0
VERTEX
8
CUT
10
93.2409
20
139.2254
0
VERTEX
8
CUT
10
93.2294
20
139.1668
0
VERTEX
8
CUT
10
93.2023
20
138.9798
0
VERTEX
8
CUT
10
93.1967
20
138.9203
0
VERTEX
8
CUT
10
93.1883
20
138.7316
0
VERTEX
8
CUT
10
93.1887
20
138.6718
0
VERTEX
8
CUT
10
93.1992
20
138.4832
0
VERTEX
8
CUT
10
93.2054
20
138.4238
0
SEQEND
0
ENDSEC
0
EOF
