0
SECTION
2
HEADER
9
$ACADVER
1
AC1009
9
$INSUNITS
70
4
0
ENDSEC
0
SECTION
2
TABLES
0
TABLE
2
LAYER
70
1
0
LAYER
2
CUT
70
0
62
7
6
CONTINUOUS
0
ENDTAB
0
ENDSEC
0
SECTION
2
ENTITIES
0
POLYLINE
8
CUT
66
1
70
1
10
0.0
20
0.0
30
0.0
0
VERTEX
8
CUT
10
116.1571
20
52.7912
0
VERTEX
8
CUT
10
116.1081
20
52.8666
0
VERTEX
8
CUT
10
115.8074
20
53.3288
0
VERTEX
8
CUT
10
113.8429
20
56.6691
0
VERTEX
8
CUT
10
113.3102
20
57.6355
0
VERTEX
8
CUT
10
112.2814
20
59.9551
0
VERTEX
8
CUT
10
112.0855
20
60.4202
0
VERTEX
8
CUT
10
112.0340
20
60.5426
0
VERTEX
8
CUT
10
111.9322
20
60.7843
0
VERTEX
8
CUT
10
111.5336
20
61.7308
0
VERTEX
8
CUT
10
110.3080
20
65.3214
0
VERTEX
8
CUT
10
109.2153
20
69.5424
0
VERTEX
8
CUT
10
108.7597
20
73.2422
0
VERTEX
8
CUT
10
108.7517
20
73.3713
0
VERTEX
8
CUT
10
108.7443
20
73.4909
0
VERTEX
8
CUT
10
108.7291
20
73.7360
0
VERTEX
8
CUT
10
108.6574
20
74.8945
0
VERTEX
8
CUT
10
108.4937
20
79.0569
0
VERTEX
8
CUT
10
108.7872
20
86.4674
0
VERTEX
8
CUT
10
108.8881
20
87.1666
0
VERTEX
8
CUT
10
109.4364
20
89.9062
0
VERTEX
8
CUT
10
109.7955
20
91.4511
0
VERTEX
8
CUT
10
110.0462
20
92.5291
0
VERTEX
8
CUT
10
110.1432
20
92.9468
0
VERTEX
8
CUT
10
110.1930
20
93.1607
0
VERTEX
8
CUT
10
110.5648
20
94.3890
0
VERTEX
8
CUT
10
110.7301
20
94.8637
0
VERTEX
8
CUT
10
111.4467
20
96.3732
0
VERTEX
8
CUT
10
112.2586
20
96.9926
0
VERTEX
8
CUT
10
112.8902
20
96.7094
0
VERTEX
8
CUT
10
119.1291
20
91.6998
0
VERTEX
8
CUT
10
120.8505
20
89.9720
0
VERTEX
8
CUT
10
120.9444
20
89.0950
0
VERTEX
8
CUT
10
119.9579
20
83.2146
0
VERTEX
8
CUT
10
119.7778
20
79.2987
0
VERTEX
8
CUT
10
119.9261
20
75.3592
0
VERTEX
8
CUT
10
120.4000
20
71.9424
0
VERTEX
8
CUT
10
121.4130
20
68.1808
0
VERTEX
8
CUT
10
122.3438
20
65.7406
0
VERTEX
8
CUT
10
122.3662
20
65.6757
0
VERTEX
8
CUT
10
122.3782
20
65.6504
0
VERTEX
8
CUT
10
122.7703
20
64.6223
0
VERTEX
8
CUT
10
124.4434
20
61.3415
0
VERTEX
8
CUT
10
126.4432
20
58.3318
0
VERTEX
8
CUT
10
128.7696
20
55.5916
0
VERTEX
8
CUT
10
131.3658
20
53.1483
0
VERTEX
8
CUT
10
134.2283
20
51.0347
0
VERTEX
8
CUT
10
135.7429
20
50.2084
0
VERTEX
8
CUT
10
137.5903
20
49.1321
0
VERTEX
8
CUT
10
138.0715
20
48.9380
0
VERTEX
8
CUT
10
138.7885
20
48.5468
0
VERTEX
8
CUT
10
141.5522
20
47.4951
0
VERTEX
8
CUT
10
144.2311
20
46.8179
0
VERTEX
8
CUT
10
145.9036
20
46.6184
0
VERTEX
8
CUT
10
146.0881
20
46.5738
0
VERTEX
8
CUT
10
146.4019
20
46.5589
0
VERTEX
8
CUT
10
147.2461
20
46.4582
0
VERTEX
8
CUT
10
148.2847
20
46.4168
0
VERTEX
8
CUT
10
148.9709
20
46.3679
0
VERTEX
8
CUT
10
149.2672
20
46.3777
0
VERTEX
8
CUT
10
151.0069
20
46.3084
0
VERTEX
8
CUT
10
153.3772
20
46.4277
0
VERTEX
8
CUT
10
155.7329
20
46.8177
0
VERTEX
8
CUT
10
159.0486
20
47.7168
0
VERTEX
8
CUT
10
159.7902
20
48.0182
0
VERTEX
8
CUT
10
159.8785
20
48.0430
0
VERTEX
8
CUT
10
160.6327
20
48.3606
0
VERTEX
8
CUT
10
162.2040
20
48.9991
0
VERTEX
8
CUT
10
165.1739
20
50.5870
0
VERTEX
8
CUT
10
167.9483
20
52.5521
0
VERTEX
8
CUT
10
170.5439
20
54.8756
0
VERTEX
8
CUT
10
172.0922
20
56.5852
0
VERTEX
8
CUT
10
172.4213
20
56.9344
0
VERTEX
8
CUT
10
172.4912
20
57.0257
0
VERTEX
8
CUT
10
172.8688
20
57.4427
0
VERTEX
8
CUT
10
173.7520
20
58.6732
0
VERTEX
8
CUT
10
174.1771
20
59.2287
0
VERTEX
8
CUT
10
174.3586
20
59.5184
0
VERTEX
8
CUT
10
174.9236
20
60.3057
0
VERTEX
8
CUT
10
175.3222
20
61.0564
0
VERTEX
8
CUT
10
175.7089
20
61.6737
0
VERTEX
8
CUT
10
177.0664
20
64.3282
0
VERTEX
8
CUT
10
177.0917
20
64.3898
0
VERTEX
8
CUT
10
177.4757
20
65.1130
0
VERTEX
8
CUT
10
178.6976
20
68.3285
0
VERTEX
8
CUT
10
179.0948
20
69.9292
0
VERTEX
8
CUT
10
179.1450
20
70.0893
0
VERTEX
8
CUT
10
179.2173
20
70.4229
0
VERTEX
8
CUT
10
179.5021
20
71.5704
0
VERTEX
8
CUT
10
179.5443
20
71.9313
0
VERTEX
8
CUT
10
179.6862
20
72.5860
0
VERTEX
8
CUT
10
179.7930
20
74.0600
0
VERTEX
8
CUT
10
179.9233
20
75.1748
0
VERTEX
8
CUT
10
180.0723
20
80.5849
0
VERTEX
8
CUT
10
179.8049
20
84.2673
0
VERTEX
8
CUT
10
179.1303
20
88.9198
0
VERTEX
8
CUT
10
186.2447
20
94.9724
0
VERTEX
8
CUT
10
187.7207
20
96.0572
0
VERTEX
8
CUT
10
187.9776
20
96.0512
0
VERTEX
8
CUT
10
188.5825
20
95.5941
0
VERTEX
8
CUT
10
189.1100
20
94.5124
0
VERTEX
8
CUT
10
189.2804
20
93.9970
0
VERTEX
8
CUT
10
190.2394
20
90.2976
0
VERTEX
8
CUT
10
190.6648
20
87.6277
0
VERTEX
8
CUT
10
191.2228
20
81.8930
0
VERTEX
8
CUT
10
191.2447
20
81.4736
0
VERTEX
8
CUT
10
191.3261
20
78.7715
0
VERTEX
8
CUT
10
191.1161
20
73.5520
0
VERTEX
8
CUT
10
190.4507
20
68.7107
0
VERTEX
8
CUT
10
189.3333
20
64.1550
0
VERTEX
8
CUT
10
188.1409
20
60.8756
0
VERTEX
8
CUT
10
187.6998
20
59.7225
0
VERTEX
8
CUT
10
184.8287
20
54.1611
0
VERTEX
8
CUT
10
181.3148
20
49.1170
0
VERTEX
8
CUT
10
177.2025
20
44.7933
0
VERTEX
8
CUT
10
172.5598
20
41.1402
0
VERTEX
8
CUT
10
167.9038
20
38.4760
0
VERTEX
8
CUT
10
161.3642
20
36.0107
0
VERTEX
8
CUT
10
156.7881
20
35.0149
0
VERTEX
8
CUT
10
155.0917
20
34.8080
0
VERTEX
8
CUT
10
150.1161
20
34.4871
0
VERTEX
8
CUT
10
150.0778
20
34.4855
0
VERTEX
8
CUT
10
149.9523
20
34.4894
0
VERTEX
8
CUT
10
144.5078
20
34.9037
0
VERTEX
8
CUT
10
144.3434
20
34.8610
0
VERTEX
8
CUT
10
142.6267
20
35.0902
0
VERTEX
8
CUT
10
137.4370
20
36.4196
0
VERTEX
8
CUT
10
132.5810
20
38.3818
0
VERTEX
8
CUT
10
128.0165
20
40.9644
0
VERTEX
8
CUT
10
127.4820
20
41.3380
0
VERTEX
8
CUT
10
124.0148
20
43.9972
0
VERTEX
8
CUT
10
123.2843
20
44.6047
0
VERTEX
8
CUT
10
120.9183
20
46.9557
0
VERTEX
8
CUT
10
120.6022
20
47.2699
0
VERTEX
8
CUT
10
120.0816
20
47.7872
0
VERTEX
8
CUT
10
119.6744
20
48.1919
0
VERTEX
8
CUT
10
119.2756
20
48.6724
0
VERTEX
8
CUT
10
116.3405
20
52.5127
0
VERTEX
8
CUT
10
116.2876
20
52.5907
0
VERTEX
8
CUT
10
116.2597
20
52.6336
0
VERTEX
8
CUT
10
116.2047
20
52.7181
0
SEQEND
0
POLYLINE
8
CUT
66
1
70
1
10
0.0
20
0.0
30
0.0
0
VERTEX
8
CUT
10
181.1065
20
108.8646
0
VERTEX
8
CUT
10
181.4213
20
108.0562
0
VERTEX
8
CUT
10
180.3053
20
106.5392
0
VERTEX
8
CUT
10
176.6740
20
103.0881
0
VERTEX
8
CUT
10
174.5415
20
101.3834
0
VERTEX
8
CUT
10
173.9770
20
101.0892
0
VERTEX
8
CUT
10
173.6835
20
101.1455
0
VERTEX
8
CUT
10
172.9172
20
101.7874
0
VERTEX
8
CUT
10
170.0161
20
105.3797
0
VERTEX
8
CUT
10
169.9880
20
105.7022
0
VERTEX
8
CUT
10
169.5379
20
106.1524
0
VERTEX
8
CUT
10
169.3983
20
106.1446
0
VERTEX
8
CUT
10
169.1420
20
106.4620
0
VERTEX
8
CUT
10
168.5953
20
107.0665
0
VERTEX
8
CUT
10
168.1758
20
107.5791
0
VERTEX
8
CUT
10
167.0000
20
108.8308
0
VERTEX
8
CUT
10
164.0405
20
112.1037
0
VERTEX
8
CUT
10
160.3324
20
115.9292
0
VERTEX
8
CUT
10
160.2956
20
115.9684
0
VERTEX
8
CUT
10
160.2339
20
116.0308
0
VERTEX
8
CUT
10
152.6720
20
123.8321
0
VERTEX
8
CUT
10
150.5724
20
125.9583
0
VERTEX
8
CUT
10
150.2528
20
126.0718
0
VERTEX
8
CUT
10
140.3755
20
115.9708
0
VERTEX
8
CUT
10
139.7163
20
115.3273
0
VERTEX
8
CUT
10
139.6926
20
115.3268
0
VERTEX
8
CUT
10
138.4021
20
114.1611
0
VERTEX
8
CUT
10
138.3686
20
114.0118
0
VERTEX
8
CUT
10
138.3086
20
113.9532
0
VERTEX
8
CUT
10
138.3431
20
113.8980
0
VERTEX
8
CUT
10
138.3415
20
113.8906
0
VERTEX
8
CUT
10
134.3191
20
109.7772
0
VERTEX
8
CUT
10
132.8066
20
108.2605
0
VERTEX
8
CUT
10
132.5450
20
107.9628
0
VERTEX
8
CUT
10
131.4892
20
106.8831
0
VERTEX
8
CUT
10
126.5656
20
101.2089
0
VERTEX
8
CUT
10
126.1304
20
101.1365
0
VERTEX
8
CUT
10
119.0991
20
107.2548
0
VERTEX
8
CUT
10
118.6117
20
107.9715
0
VERTEX
8
CUT
10
118.7507
20
108.6175
0
VERTEX
8
CUT
10
121.8377
20
112.5206
0
VERTEX
8
CUT
10
121.9957
20
112.6958
0
VERTEX
8
CUT
10
125.5434
20
116.4676
0
VERTEX
8
CUT
10
130.4413
20
121.3355
0
VERTEX
8
CUT
10
140.5318
20
130.8671
0
VERTEX
8
CUT
10
143.2283
20
132.9741
0
VERTEX
8
CUT
10
143.2727
20
133.1270
0
VERTEX
8
CUT
10
143.3033
20
133.1522
0
VERTEX
8
CUT
10
143.3060
20
133.2415
0
VERTEX
8
CUT
10
143.3377
20
133.3507
0
VERTEX
8
CUT
10
143.3102
20
133.3832
0
VERTEX
8
CUT
10
143.3171
20
133.6170
0
VERTEX
8
CUT
10
140.5296
20
136.9862
0
VERTEX
8
CUT
10
147.3036
20
143.9652
0
VERTEX
8
CUT
10
161.8227
20
129.5002
0
VERTEX
8
CUT
10
174.1937
20
116.8289
0
VERTEX
8
CUT
10
178.7408
20
111.9041
0
VERTEX
8
CUT
10
179.1621
20
111.3946
0
SEQEND
0
POLYLINE
8
CUT
66
1
70
1
10
0.0
20
0.0
30
0.0
0
VERTEX
8
CUT
10
39.1121
20
138.0324
0
VERTEX
8
CUT
10
39.1120
20
138.0328
0
VERTEX
8
CUT
10
38.6532
20
139.5661
0
VERTEX
8
CUT
10
38.4496
20
140.8767
0
VERTEX
8
CUT
10
38.3363
20
141.8476
0
VERTEX
8
CUT
10
38.3293
20
141.9068
0
VERTEX
8
CUT
10
38.2335
20
142.7277
0
VERTEX
8
CUT
10
38.1447
20
143.4881
0
VERTEX
8
CUT
10
37.9053
20
150.1162
0
VERTEX
8
CUT
10
38.0255
20
154.1811
0
VERTEX
8
CUT
10
38.2943
20
156.2814
0
VERTEX
8
CUT
10
38.8666
20
158.8111
0
VERTEX
8
CUT
10
38.9294
20
159.0889
0
VERTEX
8
CUT
10
39.1514
20
160.0698
0
VERTEX
8
CUT
10
39.3446
20
160.9237
0
VERTEX
8
CUT
10
39.9770
20
163.2670
0
VERTEX
8
CUT
10
42.3006
20
168.9900
0
VERTEX
8
CUT
10
43.8077
20
171.6747
0
VERTEX
8
CUT
10
45.8783
20
174.9982
0
VERTEX
8
CUT
10
47.6193
20
177.3141
0
VERTEX
8
CUT
10
47.6347
20
177.3315
0
VERTEX
8
CUT
10
47.7131
20
177.4191
0
VERTEX
8
CUT
10
47.9240
20
177.6551
0
VERTEX
8
CUT
10
50.3583
20
180.3781
0
VERTEX
8
CUT
10
52.4828
20
182.5156
0
VERTEX
8
CUT
10
54.1837
20
183.8417
0
VERTEX
8
CUT
10
57.1691
20
186.1125
0
VERTEX
8
CUT
10
61.7850
20
188.7622
0
VERTEX
8
CUT
10
63.0556
20
189.3514
0
VERTEX
8
CUT
10
66.9513
20
190.9442
0
VERTEX
8
CUT
10
68.7790
20
191.5267
0
VERTEX
8
CUT
10
73.1631
20
192.6984
0
VERTEX
8
CUT
10
73.4215
20
192.7375
0
VERTEX
8
CUT
10
73.8942
20
192.8091
0
VERTEX
8
CUT
10
74.8181
20
192.9491
0
VERTEX
8
CUT
10
76.1084
20
193.1446
0
VERTEX
8
CUT
10
77.5155
20
193.3371
0
VERTEX
8
CUT
10
83.5081
20
193.4425
0
VERTEX
8
CUT
10
83.6210
20
193.4353
0
VERTEX
8
CUT
10
83.9163
20
193.4166
0
VERTEX
8
CUT
10
84.0447
20
193.4085
0
VERTEX
8
CUT
10
85.7898
20
193.2980
0
VERTEX
8
CUT
10
90.4087
20
192.8094
0
VERTEX
8
CUT
10
90.7838
20
192.7346
0
VERTEX
8
CUT
10
96.0833
20
191.4025
0
VERTEX
8
CUT
10
100.9051
20
189.5765
0
VERTEX
8
CUT
10
100.9052
20
189.5764
0
VERTEX
8
CUT
10
100.9074
20
189.5754
0
VERTEX
8
CUT
10
100.9211
20
189.5688
0
VERTEX
8
CUT
10
103.8568
20
188.1524
0
VERTEX
8
CUT
10
107.7621
20
185.8303
0
VERTEX
8
CUT
10
108.1685
20
185.5582
0
VERTEX
8
CUT
10
108.4652
20
185.3595
0
VERTEX
8
CUT
10
108.5855
20
185.2790
0
VERTEX
8
CUT
10
108.7859
20
185.1448
0
VERTEX
8
CUT
10
113.4873
20
181.5007
0
VERTEX
8
CUT
10
116.1817
20
179.0001
0
VERTEX
8
CUT
10
116.5353
20
178.6593
0
VERTEX
8
CUT
10
117.1907
20
177.7175
0
VERTEX
8
CUT
10
116.0926
20
176.3007
0
VERTEX
8
CUT
10
113.6708
20
174.2097
0
VERTEX
8
CUT
10
111.1280
20
172.2128
0
VERTEX
8
CUT
10
109.5268
20
171.3101
0
VERTEX
8
CUT
10
105.0065
20
174.3393
0
VERTEX
8
CUT
10
104.2422
20
174.9406
0
VERTEX
8
CUT
10
103.1724
20
175.6170
0
VERTEX
8
CUT
10
103.0972
20
175.6187
0
VERTEX
8
CUT
10
101.7743
20
176.5052
0
VERTEX
8
CUT
10
97.2620
20
178.8045
0
VERTEX
8
CUT
10
92.5448
20
180.5347
0
VERTEX
8
CUT
10
90.6681
20
180.9894
0
VERTEX
8
CUT
10
89.4290
20
181.3360
0
VERTEX
8
CUT
10
88.8347
20
181.4335
0
VERTEX
8
CUT
10
87.7618
20
181.6934
0
VERTEX
8
CUT
10
86.4075
20
181.8317
0
VERTEX
8
CUT
10
85.9750
20
181.9026
0
VERTEX
8
CUT
10
85.4465
20
181.9298
0
VERTEX
8
CUT
10
84.5259
20
182.0237
0
VERTEX
8
CUT
10
83.7714
20
182.0158
0
VERTEX
8
CUT
10
82.4614
20
182.0831
0
VERTEX
8
CUT
10
79.7712
20
181.9737
0
VERTEX
8
CUT
10
78.8670
20
181.9642
0
VERTEX
8
CUT
10
76.0861
20
181.5618
0
VERTEX
8
CUT
10
75.2969
20
181.4538
0
VERTEX
8
CUT
10
75.2226
20
181.4369
0
VERTEX
8
CUT
10
74.1093
20
181.2758
0
VERTEX
8
CUT
10
69.8148
20
179.8728
0
VERTEX
8
CUT
10
65.9985
20
178.0824
0
VERTEX
8
CUT
10
62.5333
20
175.8615
0
VERTEX
8
CUT
10
61.0594
20
174.5917
0
VERTEX
8
CUT
10
60.5892
20
174.2482
0
VERTEX
8
CUT
10
60.1718
20
173.8270
0
VERTEX
8
CUT
10
59.2891
20
173.0665
0
VERTEX
8
CUT
10
58.2579
20
171.8956
0
VERTEX
8
CUT
10
57.1835
20
170.8113
0
VERTEX
8
CUT
10
56.6056
20
170.0194
0
VERTEX
8
CUT
10
55.7038
20
168.9953
0
VERTEX
8
CUT
10
54.7200
20
167.4351
0
VERTEX
8
CUT
10
54.3069
20
166.8691
0
VERTEX
8
CUT
10
54.0316
20
166.3434
0
VERTEX
8
CUT
10
52.9178
20
164.5771
0
VERTEX
8
CUT
10
52.0077
20
162.4798
0
VERTEX
8
CUT
10
51.9839
20
162.4345
0
VERTEX
8
CUT
10
51.9672
20
162.3864
0
VERTEX
8
CUT
10
50.8601
20
159.8353
0
VERTEX
8
CUT
10
49.5777
20
154.8550
0
VERTEX
8
CUT
10
49.3611
20
152.6759
0
VERTEX
8
CUT
10
49.3422
20
152.5773
0
VERTEX
8
CUT
10
49.3217
20
152.2792
0
VERTEX
8
CUT
10
49.0709
20
149.7561
0
VERTEX
8
CUT
10
49.3988
20
144.5970
0
VERTEX
8
CUT
10
49.6184
20
143.5821
0
VERTEX
8
CUT
10
49.8722
20
142.1060
0
VERTEX
8
CUT
10
50.1080
20
141.3202
0
VERTEX
8
CUT
10
50.5024
20
139.4975
0
VERTEX
8
CUT
10
51.1209
20
137.9440
0
VERTEX
8
CUT
10
51.4020
20
137.0067
0
VERTEX
8
CUT
10
52.3758
20
134.7916
0
VERTEX
8
CUT
10
52.4834
20
134.5214
0
VERTEX
8
CUT
10
54.2486
20
131.4027
0
VERTEX
8
CUT
10
56.3024
20
128.5119
0
VERTEX
8
CUT
10
58.6877
20
125.8852
0
VERTEX
8
CUT
10
61.3401
20
123.5934
0
VERTEX
8
CUT
10
64.2647
20
121.5671
0
VERTEX
8
CUT
10
66.4284
20
120.4051
0
VERTEX
8
CUT
10
66.8005
20
120.1813
0
VERTEX
8
CUT
10
67.1671
20
120.0084
0
VERTEX
8
CUT
10
67.4249
20
119.8700
0
VERTEX
8
CUT
10
67.7176
20
119.7489
0
VERTEX
8
CUT
10
68.9126
20
119.1854
0
VERTEX
8
CUT
10
69.8849
20
118.8521
0
VERTEX
8
CUT
10
70.8499
20
118.4527
0
VERTEX
8
CUT
10
72.3894
20
117.9933
0
VERTEX
8
CUT
10
73.0579
20
117.7641
0
VERTEX
8
CUT
10
73.3088
20
117.7190
0
VERTEX
8
CUT
10
74.5887
20
117.3370
0
VERTEX
8
CUT
10
76.9728
20
117.0594
0
VERTEX
8
CUT
10
77.5567
20
116.9543
0
VERTEX
8
CUT
10
78.0895
20
116.9293
0
VERTEX
8
CUT
10
80.1803
20
116.6858
0
VERTEX
8
CUT
10
80.6697
20
116.6902
0
VERTEX
8
CUT
10
80.9525
20
116.6562
0
VERTEX
8
CUT
10
82.6347
20
116.7080
0
VERTEX
8
CUT
10
86.9416
20
116.7470
0
VERTEX
8
CUT
10
90.6786
20
117.2216
0
VERTEX
8
CUT
10
92.4244
20
117.5860
0
VERTEX
8
CUT
10
92.4368
20
117.5870
0
VERTEX
8
CUT
10
92.4518
20
117.5918
0
VERTEX
8
CUT
10
93.4187
20
117.7936
0
VERTEX
8
CUT
10
94.6167
20
118.1658
0
VERTEX
8
CUT
10
95.7704
20
118.4809
0
VERTEX
8
CUT
10
96.3684
20
118.5473
0
VERTEX
8
CUT
10
98.3492
20
119.1776
0
VERTEX
8
CUT
10
99.4835
20
119.6775
0
VERTEX
8
CUT
10
100.4227
20
119.9692
0
VERTEX
8
CUT
10
104.5592
20
121.9173
0
VERTEX
8
CUT
10
106.6436
20
123.2140
0
VERTEX
8
CUT
10
107.2288
20
123.5499
0
VERTEX
8
CUT
10
107.7223
20
123.8850
0
VERTEX
8
CUT
10
110.8236
20
125.8142
0
VERTEX
8
CUT
10
112.1250
20
126.4096
0
VERTEX
8
CUT
10
113.7657
20
125.5085
0
VERTEX
8
CUT
10
116.2187
20
123.5720
0
VERTEX
8
CUT
10
118.5256
20
121.4761
0
VERTEX
8
CUT
10
119.5655
20
120.1595
0
VERTEX
8
CUT
10
119.4500
20
119.6751
0
VERTEX
8
CUT
10
119.2244
20
119.4051
0
VERTEX
8
CUT
10
118.6489
20
118.8400
0
VERTEX
8
CUT
10
116.9655
20
117.3015
0
VERTEX
8
CUT
10
113.5742
20
114.7204
0
VERTEX
8
CUT
10
109.9028
20
112.3848
0
VERTEX
8
CUT
10
105.8926
20
110.3064
0
VERTEX
8
CUT
10
101.6165
20
108.5720
0
VERTEX
8
CUT
10
97.1287
20
107.1550
0
VERTEX
8
CUT
10
92.5226
20
106.0701
0
VERTEX
8
CUT
10
88.0026
20
105.3893
0
VERTEX
8
CUT
10
87.8368
20
105.3708
0
VERTEX
8
CUT
10
83.8886
20
105.1079
0
VERTEX
8
CUT
10
83.6660
20
105.1019
0
VERTEX
8
CUT
10
83.5845
20
105.0997
0
VERTEX
8
CUT
10
83.5153
20
105.0979
0
VERTEX
8
CUT
10
82.9783
20
105.0834
0
VERTEX
8
CUT
10
78.9782
20
105.1965
0
VERTEX
8
CUT
10
71.6746
20
106.3040
0
VERTEX
8
CUT
10
65.9035
20
108.1320
0
VERTEX
8
CUT
10
63.2127
20
109.2727
0
VERTEX
8
CUT
10
59.0999
20
111.3192
0
VERTEX
8
CUT
10
57.9863
20
112.0313
0
VERTEX
8
CUT
10
57.8998
20
112.0866
0
VERTEX
8
CUT
10
57.6665
20
112.2358
0
VERTEX
8
CUT
10
57.5711
20
112.2968
0
VERTEX
8
CUT
10
53.6480
20
115.1047
0
VERTEX
8
CUT
10
53.2403
20
115.4538
0
VERTEX
8
CUT
10
53.1161
20
115.5600
0
VERTEX
8
CUT
10
52.9028
20
115.7426
0
VERTEX
8
CUT
10
52.2461
20
116.3047
0
VERTEX
8
CUT
10
48.5399
20
120.0120
0
VERTEX
8
CUT
10
47.9110
20
120.7142
0
VERTEX
8
CUT
10
44.0718
20
126.0416
0
VERTEX
8
CUT
10
40.8922
20
132.3641
0
VERTEX
8
CUT
10
39.2976
20
137.4124
0
VERTEX
8
CUT
10
39.1167
20
138.0173
0
SEQEND
0
POLYLINE
8
CUT
66
1
70
1
10
0.0
20
0.0
30
0.0
0
VERTEX
8
CUT
10
187.6917
20
126.6487
0
VERTEX
8
CUT
10
188.9901
20
126.1778
0
VERTEX
8
CUT
10
194.1830
20
122.7476
0
VERTEX
8
CUT
10
194.3007
20
122.6681
0
VERTEX
8
CUT
10
194.3117
20
122.6626
0
VERTEX
8
CUT
10
194.7830
20
122.3513
0
VERTEX
8
CUT
10
199.5319
20
120.0545
0
VERTEX
8
CUT
10
201.6851
20
119.3122
0
VERTEX
8
CUT
10
201.8909
20
119.1476
0
VERTEX
8
CUT
10
204.0818
20
118.4273
0
VERTEX
8
CUT
10
204.1217
20
118.4722
0
VERTEX
8
CUT
10
204.5504
20
118.3244
0
VERTEX
8
CUT
10
208.1936
20
117.5032
0
VERTEX
8
CUT
10
208.2477
20
117.4903
0
VERTEX
8
CUT
10
208.2559
20
117.4891
0
VERTEX
8
CUT
10
209.6771
20
117.1687
0
VERTEX
8
CUT
10
214.8712
20
116.5991
0
VERTEX
8
CUT
10
218.4698
20
116.6600
0
VERTEX
8
CUT
10
218.5597
20
116.6562
0
VERTEX
8
CUT
10
218.6213
20
116.6626
0
VERTEX
8
CUT
10
219.9785
20
116.6855
0
VERTEX
8
CUT
10
223.3373
20
117.1498
0
VERTEX
8
CUT
10
224.0083
20
117.2191
0
VERTEX
8
CUT
10
224.1969
20
117.2686
0
VERTEX
8
CUT
10
224.9557
20
117.3734
0
VERTEX
8
CUT
10
229.6055
20
118.7448
0
VERTEX
8
CUT
10
230.8476
20
119.3487
0
VERTEX
8
CUT
10
231.0512
20
119.4237
0
VERTEX
8
CUT
10
234.2113
20
120.9716
0
VERTEX
8
CUT
10
234.2937
20
121.0243
0
VERTEX
8
CUT
10
235.0910
20
121.4119
0
VERTEX
8
CUT
10
236.1925
20
122.2360
0
VERTEX
8
CUT
10
237.1054
20
122.8186
0
VERTEX
8
CUT
10
239.0817
20
124.3976
0
VERTEX
8
CUT
10
239.8651
20
124.9837
0
VERTEX
8
CUT
10
240.6680
20
125.8635
0
VERTEX
8
CUT
10
242.2320
20
127.4652
0
VERTEX
8
CUT
10
242.9216
20
128.3329
0
VERTEX
8
CUT
10
243.8587
20
129.3597
0
VERTEX
8
CUT
10
244.2967
20
130.0631
0
VERTEX
8
CUT
10
244.4381
20
130.2409
0
VERTEX
8
CUT
10
246.4052
20
133.3135
0
VERTEX
8
CUT
10
246.6653
20
133.8665
0
VERTEX
8
CUT
10
246.9597
20
134.3392
0
VERTEX
8
CUT
10
247.3479
20
135.3177
0
VERTEX
8
CUT
10
248.0620
20
136.8359
0
VERTEX
8
CUT
10
248.6799
20
138.6750
0
VERTEX
8
CUT
10
249.1365
20
139.8260
0
VERTEX
8
CUT
10
249.2395
20
140.3407
0
VERTEX
8
CUT
10
249.4351
20
140.9229
0
VERTEX
8
CUT
10
250.0357
20
143.4804
0
VERTEX
8
CUT
10
250.1782
20
145.0343
0
VERTEX
8
CUT
10
250.2996
20
145.6412
0
VERTEX
8
CUT
10
250.4188
20
151.7254
0
VERTEX
8
CUT
10
250.0963
20
153.6802
0
VERTEX
8
CUT
10
250.0630
20
154.2845
0
VERTEX
8
CUT
10
249.6947
20
156.1146
0
VERTEX
8
CUT
10
249.4047
20
157.8723
0
VERTEX
8
CUT
10
248.1911
20
161.5169
0
VERTEX
8
CUT
10
247.8290
20
162.3027
0
VERTEX
8
CUT
10
247.8200
20
162.3265
0
VERTEX
8
CUT
10
247.8001
20
162.3656
0
VERTEX
8
CUT
10
246.5838
20
165.0052
0
VERTEX
8
CUT
10
245.8181
20
166.2459
0
VERTEX
8
CUT
10
245.7165
20
166.4448
0
VERTEX
8
CUT
10
245.5561
20
166.6704
0
VERTEX
8
CUT
10
244.5581
20
168.2875
0
VERTEX
8
CUT
10
243.0601
20
170.1814
0
VERTEX
8
CUT
10
242.9860
20
170.2857
0
VERTEX
8
CUT
10
242.9074
20
170.3744
0
VERTEX
8
CUT
10
242.1743
20
171.3013
0
VERTEX
8
CUT
10
241.4082
20
172.0684
0
VERTEX
8
CUT
10
241.4017
20
172.0758
0
VERTEX
8
CUT
10
241.3922
20
172.0844
0
VERTEX
8
CUT
10
239.4623
20
174.0170
0
VERTEX
8
CUT
10
236.4147
20
176.4307
0
VERTEX
8
CUT
10
233.1636
20
178.4260
0
VERTEX
8
CUT
10
229.7433
20
180.0182
0
VERTEX
8
CUT
10
225.8954
20
181.1552
0
VERTEX
8
CUT
10
223.7245
20
181.5773
0
VERTEX
8
CUT
10
222.9316
20
181.6628
0
VERTEX
8
CUT
10
221.6430
20
181.8990
0
VERTEX
8
CUT
10
220.2139
20
181.9559
0
VERTEX
8
CUT
10
219.3061
20
182.0538
0
VERTEX
8
CUT
10
217.0951
20
182.1126
0
VERTEX
8
CUT
10
213.0422
20
181.8466
0
VERTEX
8
CUT
10
207.9080
20
180.6854
0
VERTEX
8
CUT
10
207.7085
20
180.6096
0
VERTEX
8
CUT
10
207.6335
20
180.5931
0
VERTEX
8
CUT
10
206.1420
20
180.0425
0
VERTEX
8
CUT
10
206.1322
20
180.0114
0
VERTEX
8
CUT
10
202.9261
20
178.7946
0
VERTEX
8
CUT
10
198.2424
20
176.2269
0
VERTEX
8
CUT
10
196.0324
20
174.7024
0
VERTEX
8
CUT
10
192.4509
20
171.8371
0
VERTEX
8
CUT
10
191.3867
20
171.3094
0
VERTEX
8
CUT
10
190.5521
20
171.6729
0
VERTEX
8
CUT
10
188.7353
20
172.9150
0
VERTEX
8
CUT
10
184.5665
20
176.1839
0
VERTEX
8
CUT
10
183.8161
20
177.0979
0
VERTEX
8
CUT
10
183.7245
20
177.5520
0
VERTEX
8
CUT
10
184.4689
20
178.6709
0
VERTEX
8
CUT
10
187.1210
20
181.3042
0
VERTEX
8
CUT
10
189.8673
20
183.8008
0
VERTEX
8
CUT
10
191.5172
20
185.0657
0
VERTEX
8
CUT
10
196.9919
20
188.5409
0
VERTEX
8
CUT
10
203.0923
20
191.1081
0
VERTEX
8
CUT
10
203.9785
20
191.4008
0
VERTEX
8
CUT
10
210.3510
20
192.9440
0
VERTEX
8
CUT
10
216.4021
20
193.4374
0
VERTEX
8
CUT
10
219.0713
20
193.3932
0
VERTEX
8
CUT
10
224.4014
20
193.0043
0
VERTEX
8
CUT
10
231.2526
20
191.4126
0
VERTEX
8
CUT
10
237.6871
20
188.7898
0
VERTEX
8
CUT
10
237.9345
20
188.6620
0
VERTEX
8
CUT
10
237.9651
20
188.6462
0
VERTEX
8
CUT
10
237.9758
20
188.6406
0
VERTEX
8
CUT
10
237.9814
20
188.6377
0
VERTEX
8
CUT
10
243.9281
20
184.9762
0
VERTEX
8
CUT
10
243.9401
20
184.9669
0
VERTEX
8
CUT
10
244.0965
20
184.8469
0
VERTEX
8
CUT
10
244.1112
20
184.8356
0
VERTEX
8
CUT
10
244.1486
20
184.8069
0
VERTEX
8
CUT
10
246.5768
20
182.7923
0
VERTEX
8
CUT
10
246.6791
20
182.6983
0
VERTEX
8
CUT
10
246.8851
20
182.5090
0
VERTEX
8
CUT
10
247.3710
20
182.0625
0
VERTEX
8
CUT
10
248.0076
20
181.4775
0
VERTEX
8
CUT
10
250.2703
20
179.1700
0
VERTEX
8
CUT
10
250.2962
20
179.1420
0
VERTEX
8
CUT
10
250.3248
20
179.1110
0
VERTEX
8
CUT
10
250.3387
20
179.0958
0
VERTEX
8
CUT
10
250.3841
20
179.0467
0
VERTEX
8
CUT
10
253.0638
20
175.6855
0
VERTEX
8
CUT
10
253.0680
20
175.6798
0
VERTEX
8
CUT
10
253.0681
20
175.6796
0
VERTEX
8
CUT
10
253.0705
20
175.6765
0
VERTEX
8
CUT
10
253.0730
20
175.6729
0
VERTEX
8
CUT
10
255.4074
20
172.0715
0
VERTEX
8
CUT
10
255.4996
20
171.9109
0
VERTEX
8
CUT
10
257.4281
20
168.1732
0
VERTEX
8
CUT
10
257.5300
20
167.9362
0
VERTEX
8
CUT
10
257.5576
20
167.8719
0
VERTEX
8
CUT
10
257.5729
20
167.8365
0
VERTEX
8
CUT
10
257.6025
20
167.7677
0
VERTEX
8
CUT
10
259.0970
20
164.0760
0
VERTEX
8
CUT
10
259.5445
20
162.5639
0
VERTEX
8
CUT
10
260.3820
20
159.6642
0
VERTEX
8
CUT
10
260.7861
20
157.5404
0
VERTEX
8
CUT
10
261.0797
20
155.8972
0
VERTEX
8
CUT
10
261.1006
20
155.7799
0
VERTEX
8
CUT
10
261.1458
20
155.5271
0
VERTEX
8
CUT
10
261.2333
20
155.0375
0
VERTEX
8
CUT
10
261.5543
20
148.2197
0
VERTEX
8
CUT
10
261.1921
20
142.6761
0
VERTEX
8
CUT
10
260.2906
20
137.8968
0
VERTEX
8
CUT
10
259.4085
20
134.7352
0
VERTEX
8
CUT
10
257.0375
20
128.9127
0
VERTEX
8
CUT
10
253.7813
20
123.5409
0
VERTEX
8
CUT
10
252.2188
20
121.5200
0
VERTEX
8
CUT
10
252.1412
20
121.4283
0
VERTEX
8
CUT
10
251.8565
20
121.0918
0
VERTEX
8
CUT
10
251.7821
20
121.0039
0
VERTEX
8
CUT
10
251.2080
20
120.3255
0
VERTEX
8
CUT
10
249.5988
20
118.5400
0
VERTEX
8
CUT
10
246.9717
20
116.0483
0
VERTEX
8
CUT
10
246.3442
20
115.5077
0
VERTEX
8
CUT
10
243.6254
20
113.3469
0
VERTEX
8
CUT
10
242.2472
20
112.4527
0
VERTEX
8
CUT
10
241.3394
20
111.8865
0
VERTEX
8
CUT
10
240.4943
20
111.3595
0
VERTEX
8
CUT
10
240.3312
20
111.2578
0
VERTEX
8
CUT
10
239.8817
20
110.9775
0
VERTEX
8
CUT
10
237.3962
20
109.6692
0
VERTEX
8
CUT
10
237.1178
20
109.5501
0
VERTEX
8
CUT
10
236.8249
20
109.4537
0
VERTEX
8
CUT
10
235.5376
20
108.8738
0
VERTEX
8
CUT
10
233.2257
20
107.8843
0
VERTEX
8
CUT
10
230.3828
20
107.0055
0
VERTEX
8
CUT
10
229.0325
20
106.6448
0
VERTEX
8
CUT
10
228.8007
20
106.5829
0
VERTEX
8
CUT
10
228.7491
20
106.5691
0
VERTEX
8
CUT
10
228.7104
20
106.5588
0
VERTEX
8
CUT
10
225.4712
20
105.8535
0
VERTEX
8
CUT
10
219.0099
20
105.1026
0
VERTEX
8
CUT
10
218.2943
20
105.1027
0
VERTEX
8
CUT
10
215.4794
20
105.1965
0
VERTEX
8
CUT
10
215.3113
20
105.2021
0
VERTEX
8
CUT
10
214.6920
20
105.2227
0
VERTEX
8
CUT
10
213.9447
20
105.2476
0
VERTEX
8
CUT
10
209.0448
20
105.7633
0
VERTEX
8
CUT
10
205.2819
20
106.4916
0
VERTEX
8
CUT
10
201.5731
20
107.4786
0
VERTEX
8
CUT
10
197.9282
20
108.7128
0
VERTEX
8
CUT
10
194.3734
20
110.1879
0
VERTEX
8
CUT
10
190.9438
20
111.8878
0
VERTEX
8
CUT
10
188.0775
20
113.5803
0
VERTEX
8
CUT
10
185.0512
20
115.7393
0
VERTEX
8
CUT
10
184.4229
20
116.1876
0
VERTEX
8
CUT
10
184.2666
20
116.2991
0
VERTEX
8
CUT
10
184.2069
20
116.3418
0
VERTEX
8
CUT
10
181.0122
20
119.0817
0
VERTEX
8
CUT
10
180.1033
20
120.3283
0
VERTEX
8
CUT
10
180.6794
20
121.1319
0
VERTEX
8
CUT
10
183.5039
20
123.7459
0
VERTEX
8
CUT
10
186.9513
20
126.4059
0
SEQEND
0
POLYLINE
8
CUT
66
1
70
1
10
0.0
20
0.0
30
0.0
0
VERTEX
8
CUT
10
117.8613
20
190.9073
0
VERTEX
8
CUT
10
122.0794
20
194.9731
0
VERTEX
8
CUT
10
123.3342
20
196.0404
0
VERTEX
8
CUT
10
124.4520
20
196.6377
0
VERTEX
8
CUT
10
125.4427
20
195.6775
0
VERTEX
8
CUT
10
129.3565
20
190.2607
0
VERTEX
8
CUT
10
129.6323
20
189.8716
0
VERTEX
8
CUT
10
129.6719
20
189.8242
0
VERTEX
8
CUT
10
129.9708
20
189.4106
0
VERTEX
8
CUT
10
134.2833
20
184.3198
0
VERTEX
8
CUT
10
140.3693
20
177.7242
0
VERTEX
8
CUT
10
156.2489
20
161.2142
0
VERTEX
8
CUT
10
159.0351
20
158.0679
0
VERTEX
8
CUT
10
160.7755
20
156.0532
0
VERTEX
8
CUT
10
161.6138
20
154.7447
0
VERTEX
8
CUT
10
161.3196
20
154.1202
0
VERTEX
8
CUT
10
158.5607
20
150.9118
0
VERTEX
8
CUT
10
156.3519
20
148.6428
0
VERTEX
8
CUT
10
155.0109
20
147.6019
0
VERTEX
8
CUT
10
153.1012
20
149.2137
0
VERTEX
8
CUT
10
149.9007
20
152.5869
0
VERTEX
8
CUT
10
149.4388
20
152.6221
0
VERTEX
8
CUT
10
149.2700
20
152.1908
0
VERTEX
8
CUT
10
149.9075
20
151.1147
0
VERTEX
8
CUT
10
148.9817
20
149.7954
0
VERTEX
8
CUT
10
143.4268
20
143.7005
0
VERTEX
8
CUT
10
133.4307
20
133.5956
0
VERTEX
8
CUT
10
131.0849
20
131.3352
0
VERTEX
8
CUT
10
129.9220
20
130.2554
0
VERTEX
8
CUT
10
128.6271
20
129.3000
0
VERTEX
8
CUT
10
127.4447
20
129.8610
0
VERTEX
8
CUT
10
121.8759
20
134.7302
0
VERTEX
8
CUT
10
121.3928
20
135.2878
0
VERTEX
8
CUT
10
121.3192
20
135.7233
0
VERTEX
8
CUT
10
121.3551
20
135.7761
0
VERTEX
8
CUT
10
121.3755
20
135.8060
0
VERTEX
8
CUT
10
121.3767
20
135.8078
0
VERTEX
8
CUT
10
121.3879
20
135.8242
0
VERTEX
8
CUT
10
122.9490
20
137.5712
0
VERTEX
8
CUT
10
123.7124
20
138.3753
0
VERTEX
8
CUT
10
123.8306
20
138.4998
0
VERTEX
8
CUT
10
126.0694
20
140.8578
0
VERTEX
8
CUT
10
135.5850
20
150.8804
0
VERTEX
8
CUT
10
141.2713
20
156.8019
0
VERTEX
8
CUT
10
143.3538
20
158.7015
0
VERTEX
8
CUT
10
143.4599
20
158.7320
0
VERTEX
8
CUT
10
143.6334
20
159.0505
0
VERTEX
8
CUT
10
129.9198
20
173.6736
0
VERTEX
8
CUT
10
128.8072
20
174.8619
0
VERTEX
8
CUT
10
124.7540
20
179.4216
0
VERTEX
8
CUT
10
119.0730
20
186.6959
0
VERTEX
8
CUT
10
118.8961
20
186.9543
0
VERTEX
8
CUT
10
118.7700
20
187.1384
0
VERTEX
8
CUT
10
118.6318
20
187.3403
0
VERTEX
8
CUT
10
118.4192
20
187.6508
0
VERTEX
8
CUT
10
117.7315
20
188.7141
0
VERTEX
8
CUT
10
117.5614
20
189.0269
0
VERTEX
8
CUT
10
117.3516
20
189.7198
0
VERTEX
8
CUT
10
117.4525
20
190.2931
0
SEQEND
0
POLYLINE
8
CUT
66
1
70
1
10
0.0
20
0.0
30
0.0
0
VERTEX
8
CUT
10
144.1476
20
158.4634
0
VERTEX
8
CUT
10
146.6987
20
155.9424
0
VERTEX
8
CUT
10
146.3385
20
156.4226
0
SEQEND
0
POLYLINE
8
CUT
66
1
70
1
10
0.0
20
0.0
30
0.0
0
VERTEX
8
CUT
10
140.9467
20
262.4132
0
VERTEX
8
CUT
10
141.5601
20
262.5650
0
VERTEX
8
CUT
10
143.5688
20
262.9916
0
VERTEX
8
CUT
10
144.5631
20
263.0900
0
VERTEX
8
CUT
10
146.8515
20
263.2964
0
VERTEX
8
CUT
10
152.1006
20
263.3253
0
VERTEX
8
CUT
10
155.5544
20
263.0827
0
VERTEX
8
CUT
10
155.5789
20
263.0778
0
VERTEX
8
CUT
10
160.5544
20
262.0519
0
VERTEX
8
CUT
10
162.0777
20
261.5622
0
VERTEX
8
CUT
10
165.0478
20
260.4641
0
VERTEX
8
CUT
10
167.3545
20
259.4747
0
VERTEX
8
CUT
10
167.8841
20
259.1768
0
VERTEX
8
CUT
10
168.1521
20
259.0261
0
VERTEX
8
CUT
10
168.7494
20
258.6901
0
VERTEX
8
CUT
10
170.9297
20
257.4637
0
VERTEX
8
CUT
10
171.1625
20
257.3309
0
VERTEX
8
CUT
10
174.6067
20
254.7965
0
VERTEX
8
CUT
10
177.8337
20
251.9038
0
VERTEX
8
CUT
10
180.7877
20
248.6452
0
VERTEX
8
CUT
10
183.4088
20
245.0567
0
VERTEX
8
CUT
10
185.5673
20
241.3981
0
VERTEX
8
CUT
10
185.8873
20
240.7572
0
VERTEX
8
CUT
10
187.4669
20
237.3702
0
VERTEX
8
CUT
10
187.5963
20
237.0211
0
VERTEX
8
CUT
10
187.6929
20
236.7605
0
VERTEX
8
CUT
10
187.6949
20
236.7550
0
VERTEX
8
CUT
10
187.7878
20
236.5044
0
VERTEX
8
CUT
10
188.9779
20
233.0088
0
VERTEX
8
CUT
10
190.2121
20
228.2810
0
VERTEX
8
CUT
10
190.3144
20
227.6740
0
VERTEX
8
CUT
10
190.9918
20
222.8411
0
VERTEX
8
CUT
10
191.1462
20
217.0494
0
VERTEX
8
CUT
10
190.8433
20
210.3801
0
VERTEX
8
CUT
10
189.8193
20
205.2860
0
VERTEX
8
CUT
10
189.2674
20
203.4249
0
VERTEX
8
CUT
10
188.9675
20
202.6460
0
VERTEX
8
CUT
10
188.3865
20
202.0626
0
VERTEX
8
CUT
10
187.8799
20
202.1200
0
VERTEX
8
CUT
10
187.3049
20
202.4943
0
VERTEX
8
CUT
10
179.9297
20
209.0801
0
VERTEX
8
CUT
10
179.9720
20
209.6494
0
VERTEX
8
CUT
10
180.2832
20
212.5379
0
VERTEX
8
CUT
10
180.2900
20
213.9255
0
VERTEX
8
CUT
10
180.4026
20
215.4402
0
VERTEX
8
CUT
10
180.3125
20
219.5014
0
VERTEX
8
CUT
10
180.0743
20
221.9525
0
VERTEX
8
CUT
10
179.9251
20
224.0338
0
VERTEX
8
CUT
10
179.3842
20
227.0956
0
VERTEX
8
CUT
10
178.0216
20
231.3912
0
VERTEX
8
CUT
10
176.3841
20
235.0555
0
VERTEX
8
CUT
10
174.3574
20
238.4290
0
VERTEX
8
CUT
10
172.0345
20
241.4706
0
VERTEX
8
CUT
10
169.3827
20
244.1860
0
VERTEX
8
CUT
10
166.4634
20
246.5428
0
VERTEX
8
CUT
10
165.3123
20
247.2595
0
VERTEX
8
CUT
10
165.2107
20
247.3401
0
VERTEX
8
CUT
10
164.8988
20
247.5169
0
VERTEX
8
CUT
10
163.2635
20
248.5350
0
VERTEX
8
CUT
10
162.4154
20
248.9244
0
VERTEX
8
CUT
10
162.1119
20
249.0964
0
VERTEX
8
CUT
10
161.4388
20
249.3729
0
VERTEX
8
CUT
10
159.8951
20
250.0817
0
VERTEX
8
CUT
10
159.1047
20
250.3314
0
VERTEX
8
CUT
10
158.7954
20
250.4585
0
VERTEX
8
CUT
10
156.9510
20
251.0313
0
VERTEX
8
CUT
10
156.8163
20
251.0544
0
VERTEX
8
CUT
10
156.3190
20
251.2116
0
VERTEX
8
CUT
10
153.2016
20
251.7109
0
VERTEX
8
CUT
10
149.7416
20
251.8612
0
VERTEX
8
CUT
10
146.2366
20
251.6217
0
VERTEX
8
CUT
10
143.0521
20
251.0328
0
VERTEX
8
CUT
10
141.0546
20
250.3680
0
VERTEX
8
CUT
10
140.7061
20
250.2802
0
VERTEX
8
CUT
10
140.4689
20
250.1731
0
VERTEX
8
CUT
10
139.3874
20
249.8131
0
VERTEX
8
CUT
10
135.9626
20
248.1785
0
VERTEX
8
CUT
10
132.7315
20
246.0355
0
VERTEX
8
CUT
10
129.8120
20
243.5294
0
VERTEX
8
CUT
10
127.1900
20
240.6643
0
VERTEX
8
CUT
10
124.9276
20
237.4446
0
VERTEX
8
CUT
10
122.9909
20
233.8643
0
VERTEX
8
CUT
10
121.4110
20
229.9850
0
VERTEX
8
CUT
10
120.2564
20
225.6909
0
VERTEX
8
CUT
10
119.8644
20
223.3685
0
VERTEX
8
CUT
10
119.5079
20
218.4650
0
VERTEX
8
CUT
10
119.6329
20
216.1332
0
VERTEX
8
CUT
10
119.6274
20
215.9769
0
VERTEX
8
CUT
10
119.7107
20
214.6798
0
VERTEX
8
CUT
10
119.9860
20
209.5406
0
VERTEX
8
CUT
10
119.8769
20
209.0948
0
VERTEX
8
CUT
10
118.5613
20
207.6119
0
VERTEX
8
CUT
10
112.1542
20
202.3788
0
VERTEX
8
CUT
10
111.3840
20
201.9228
0
VERTEX
8
CUT
10
110.7865
20
202.5454
0
VERTEX
8
CUT
10
110.2183
20
203.7875
0
VERTEX
8
CUT
10
109.3382
20
206.9814
0
VERTEX
8
CUT
10
108.9556
20
209.3243
0
VERTEX
8
CUT
10
108.8870
20
209.7775
0
VERTEX
8
CUT
10
108.5537
20
213.2020
0
VERTEX
8
CUT
10
108.4042
20
220.4245
0
VERTEX
8
CUT
10
108.5836
20
223.8336
0
VERTEX
8
CUT
10
108.9821
20
226.9800
0
VERTEX
8
CUT
10
110.4174
20
232.9903
0
VERTEX
8
CUT
10
112.3900
20
238.2498
0
VERTEX
8
CUT
10
112.5420
20
238.6012
0
VERTEX
8
CUT
10
112.5691
20
238.6639
0
VERTEX
8
CUT
10
112.6000
20
238.7355
0
VERTEX
8
CUT
10
112.6803
20
238.9210
0
VERTEX
8
CUT
10
115.3858
20
243.9367
0
VERTEX
8
CUT
10
118.8248
20
248.7439
0
VERTEX
8
CUT
10
122.7981
20
252.9264
0
VERTEX
8
CUT
10
127.2639
20
256.5217
0
VERTEX
8
CUT
10
132.2047
20
259.4178
0
VERTEX
8
CUT
10
137.5091
20
261.5623
0
VERTEX
8
CUT
10
139.6963
20
262.1037
0
VERTEX
8
CUT
10
140.3907
20
262.2755
0
SEQEND
0
ENDSEC
0
EOF
