0
SECTION
2
HEADER
9
$ACADVER
1
AC1009
9
$INSUNITS
70
4
0
ENDSEC
0
SECTION
2
TABLES
0
TABLE
2
LAYER
70
1
0
LAYER
2
CUT
70
0
62
7
6
CONTINUOUS
0
ENDTAB
0
ENDSEC
0
SECTION
2
ENTITIES
0
POLYLINE
8
CUT
66
1
70
1
10
0.0
20
0.0
30
0.0
0
VERTEX
8
CUT
10
1.5003
20
0.0000
0
VERTEX
8
CUT
10
0.0000
20
1.5888
0
VERTEX
8
CUT
10
0.0000
20
298.3213
0
VERTEX
8
CUT
10
1.5108
20
299.9284
0
VERTEX
8
CUT
10
298.3213
20
300.0000
0
VERTEX
8
CUT
10
299.9284
20
298.4892
0
VERTEX
8
CUT
10
300.0000
20
1.5888
0
VERTEX
8
CUT
10
298.6715
20
0.0758
0
SEQEND
0
POLYLINE
8
CUT
66
1
70
1
10
0.0
20
0.0
30
0.0
0
VERTEX
8
CUT
10
278.8290
20
13.1110
0
VERTEX
8
CUT
10
278.5443
20
12.6637
0
VERTEX
8
CUT
10
278.9308
20
12.3448
0
VERTEX
8
CUT
10
287.2162
20
12.5353
0
VERTEX
8
CUT
10
287.7436
20
12.6864
0
VERTEX
8
CUT
10
287.9545
20
13.0191
0
VERTEX
8
CUT
10
288.2347
20
20.2860
0
VERTEX
8
CUT
10
288.2644
20
51.2495
0
VERTEX
8
CUT
10
288.1721
20
59.0242
0
VERTEX
8
CUT
10
287.8553
20
59.4013
0
VERTEX
8
CUT
10
287.4097
20
59.1306
0
VERTEX
8
CUT
10
286.4728
20
54.6510
0
VERTEX
8
CUT
10
283.4387
20
43.3475
0
VERTEX
8
CUT
10
282.4892
20
37.8540
0
VERTEX
8
CUT
10
282.4631
20
36.5833
0
VERTEX
8
CUT
10
282.8060
20
34.7406
0
VERTEX
8
CUT
10
285.4150
20
30.8592
0
VERTEX
8
CUT
10
286.7439
20
28.0965
0
VERTEX
8
CUT
10
287.1643
20
25.1551
0
VERTEX
8
CUT
10
286.8967
20
22.3181
0
VERTEX
8
CUT
10
286.4377
20
20.6270
0
VERTEX
8
CUT
10
285.7218
20
19.0436
0
VERTEX
8
CUT
10
283.7737
20
16.2375
0
VERTEX
8
CUT
10
281.1955
20
14.1449
0
SEQEND
0
POLYLINE
8
CUT
66
1
70
1
10
0.0
20
0.0
30
0.0
0
VERTEX
8
CUT
10
257.4834
20
288.4837
0
VERTEX
8
CUT
10
257.1164
20
288.1896
0
VERTEX
8
CUT
10
257.3001
20
287.7566
0
VERTEX
8
CUT
10
261.6537
20
286.2762
0
VERTEX
8
CUT
10
263.5221
20
285.3094
0
VERTEX
8
CUT
10
265.3524
20
284.0180
0
VERTEX
8
CUT
10
268.2941
20
281.3445
0
VERTEX
8
CUT
10
271.9656
20
276.8838
0
VERTEX
8
CUT
10
272.4224
20
277.2002
0
VERTEX
8
CUT
10
272.6600
20
282.7618
0
VERTEX
8
CUT
10
272.8522
20
283.7827
0
VERTEX
8
CUT
10
273.8597
20
285.2938
0
VERTEX
8
CUT
10
275.9287
20
287.0052
0
VERTEX
8
CUT
10
277.6143
20
287.3728
0
VERTEX
8
CUT
10
278.8768
20
287.1880
0
VERTEX
8
CUT
10
280.2445
20
286.6883
0
VERTEX
8
CUT
10
281.5921
20
285.9384
0
VERTEX
8
CUT
10
282.9154
20
284.8891
0
VERTEX
8
CUT
10
285.1484
20
282.2541
0
VERTEX
8
CUT
10
286.3353
20
280.0880
0
VERTEX
8
CUT
10
286.8900
20
278.4332
0
VERTEX
8
CUT
10
287.0460
20
276.4395
0
VERTEX
8
CUT
10
286.9811
20
273.2380
0
VERTEX
8
CUT
10
286.6719
20
271.7746
0
VERTEX
8
CUT
10
286.0666
20
270.4449
0
VERTEX
8
CUT
10
285.1835
20
268.9267
0
VERTEX
8
CUT
10
283.6198
20
266.8588
0
VERTEX
8
CUT
10
282.9845
20
265.6444
0
VERTEX
8
CUT
10
282.6039
20
264.2488
0
VERTEX
8
CUT
10
282.6064
20
260.8542
0
VERTEX
8
CUT
10
283.6128
20
255.9262
0
VERTEX
8
CUT
10
286.1752
20
246.6588
0
VERTEX
8
CUT
10
287.4004
20
241.1587
0
VERTEX
8
CUT
10
287.6537
20
240.8895
0
VERTEX
8
CUT
10
287.9865
20
240.9308
0
VERTEX
8
CUT
10
288.1662
20
241.2538
0
VERTEX
8
CUT
10
288.2346
20
245.2101
0
VERTEX
8
CUT
10
288.2644
20
276.0541
0
VERTEX
8
CUT
10
288.1157
20
285.9025
0
VERTEX
8
CUT
10
287.8681
20
288.0820
0
VERTEX
8
CUT
10
287.1635
20
288.3571
0
VERTEX
8
CUT
10
282.6299
20
288.5325
0
SEQEND
0
POLYLINE
8
CUT
66
1
70
1
10
0.0
20
0.0
30
0.0
0
VERTEX
8
CUT
10
282.1721
20
83.3197
0
VERTEX
8
CUT
10
282.4532
20
82.5790
0
VERTEX
8
CUT
10
285.5253
20
78.0153
0
VERTEX
8
CUT
10
286.7038
20
75.0927
0
VERTEX
8
CUT
10
287.4653
20
72.3083
0
VERTEX
8
CUT
10
287.9869
20
72.1162
0
VERTEX
8
CUT
10
288.1991
20
72.3776
0
VERTEX
8
CUT
10
288.2346
20
73.1503
0
VERTEX
8
CUT
10
288.2644
20
88.8641
0
VERTEX
8
CUT
10
288.1170
20
93.8633
0
VERTEX
8
CUT
10
287.9691
20
94.8454
0
VERTEX
8
CUT
10
287.7742
20
95.0740
0
VERTEX
8
CUT
10
287.3072
20
94.9875
0
VERTEX
8
CUT
10
286.8220
20
94.1426
0
SEQEND
0
POLYLINE
8
CUT
66
1
70
1
10
0.0
20
0.0
30
0.0
0
VERTEX
8
CUT
10
282.1862
20
217.4787
0
VERTEX
8
CUT
10
282.9534
20
215.1410
0
VERTEX
8
CUT
10
286.7467
20
206.7238
0
VERTEX
8
CUT
10
287.1676
20
206.0910
0
VERTEX
8
CUT
10
287.6989
20
205.9810
0
VERTEX
8
CUT
10
287.9581
20
206.2244
0
VERTEX
8
CUT
10
288.0841
20
206.8549
0
VERTEX
8
CUT
10
288.2346
20
210.7603
0
VERTEX
8
CUT
10
288.2346
20
227.2960
0
VERTEX
8
CUT
10
288.0241
20
228.1703
0
VERTEX
8
CUT
10
287.6878
20
228.2003
0
VERTEX
8
CUT
10
287.4684
20
227.9926
0
VERTEX
8
CUT
10
286.4399
20
224.5915
0
VERTEX
8
CUT
10
285.4969
20
222.3445
0
SEQEND
0
POLYLINE
8
CUT
66
1
70
1
10
0.0
20
0.0
30
0.0
0
VERTEX
8
CUT
10
230.3360
20
144.3347
0
VERTEX
8
CUT
10
230.0199
20
143.9978
0
VERTEX
8
CUT
10
230.2480
20
143.5960
0
VERTEX
8
CUT
10
232.2584
20
143.5093
0
VERTEX
8
CUT
10
244.8471
20
143.5392
0
VERTEX
8
CUT
10
257.6472
20
143.8369
0
VERTEX
8
CUT
10
263.7317
20
144.2822
0
VERTEX
8
CUT
10
270.9948
20
145.1155
0
VERTEX
8
CUT
10
276.8504
20
145.9476
0
VERTEX
8
CUT
10
280.3632
20
146.6574
0
VERTEX
8
CUT
10
280.8320
20
146.9264
0
VERTEX
8
CUT
10
280.9648
20
147.4361
0
VERTEX
8
CUT
10
281.0876
20
150.9320
0
VERTEX
8
CUT
10
280.9393
20
160.4044
0
VERTEX
8
CUT
10
280.4149
20
164.3449
0
VERTEX
8
CUT
10
280.0161
20
164.5844
0
VERTEX
8
CUT
10
279.3160
20
164.2604
0
VERTEX
8
CUT
10
273.0294
20
160.4172
0
VERTEX
8
CUT
10
264.7195
20
155.9495
0
VERTEX
8
CUT
10
255.6402
20
151.9473
0
VERTEX
8
CUT
10
250.8973
20
150.1279
0
VERTEX
8
CUT
10
241.0392
20
146.9412
0
SEQEND
0
POLYLINE
8
CUT
66
1
70
1
10
0.0
20
0.0
30
0.0
0
VERTEX
8
CUT
10
279.9363
20
64.7766
0
VERTEX
8
CUT
10
280.3129
20
64.4493
0
VERTEX
8
CUT
10
280.7083
20
64.7992
0
VERTEX
8
CUT
10
281.0261
20
67.9322
0
VERTEX
8
CUT
10
280.8164
20
71.2608
0
VERTEX
8
CUT
10
280.2764
20
73.5106
0
VERTEX
8
CUT
10
279.8652
20
74.3682
0
VERTEX
8
CUT
10
279.3703
20
74.9860
0
VERTEX
8
CUT
10
278.3895
20
75.3528
0
VERTEX
8
CUT
10
277.3621
20
74.8576
0
VERTEX
8
CUT
10
276.5058
20
73.7475
0
VERTEX
8
CUT
10
274.7285
20
70.7874
0
VERTEX
8
CUT
10
274.1119
20
69.3628
0
VERTEX
8
CUT
10
274.4099
20
69.0469
0
VERTEX
8
CUT
10
276.2684
20
68.9386
0
VERTEX
8
CUT
10
277.8937
20
68.3226
0
VERTEX
8
CUT
10
278.5446
20
67.7889
0
VERTEX
8
CUT
10
279.4790
20
66.4627
0
SEQEND
0
POLYLINE
8
CUT
66
1
70
1
10
0.0
20
0.0
30
0.0
0
VERTEX
8
CUT
10
279.9595
20
235.8173
0
VERTEX
8
CUT
10
279.7086
20
234.6553
0
VERTEX
8
CUT
10
279.2278
20
233.6290
0
VERTEX
8
CUT
10
278.4066
20
232.7017
0
VERTEX
8
CUT
10
277.4611
20
232.0044
0
VERTEX
8
CUT
10
276.3513
20
231.5533
0
VERTEX
8
CUT
10
274.2623
20
231.3323
0
VERTEX
8
CUT
10
273.9608
20
231.0280
0
VERTEX
8
CUT
10
276.5037
20
226.5528
0
VERTEX
8
CUT
10
277.2675
20
225.5640
0
VERTEX
8
CUT
10
277.8775
20
225.2827
0
VERTEX
8
CUT
10
278.4655
20
225.3566
0
VERTEX
8
CUT
10
279.1083
20
225.8707
0
VERTEX
8
CUT
10
279.7085
20
226.7770
0
VERTEX
8
CUT
10
280.4474
20
228.6244
0
VERTEX
8
CUT
10
280.8523
20
230.6950
0
VERTEX
8
CUT
10
280.9957
20
232.9616
0
VERTEX
8
CUT
10
280.7054
20
235.9027
0
VERTEX
8
CUT
10
280.3022
20
236.1445
0
SEQEND
0
POLYLINE
8
CUT
66
1
70
1
10
0.0
20
0.0
30
0.0
0
VERTEX
8
CUT
10
79.1547
20
39.0757
0
VERTEX
8
CUT
10
78.6926
20
39.0222
0
VERTEX
8
CUT
10
78.5959
20
38.5992
0
VERTEX
8
CUT
10
79.7017
20
37.7390
0
VERTEX
8
CUT
10
88.7672
20
32.4308
0
VERTEX
8
CUT
10
98.2528
20
27.8531
0
VERTEX
8
CUT
10
108.1525
20
24.0889
0
VERTEX
8
CUT
10
118.4994
20
21.0771
0
VERTEX
8
CUT
10
129.1743
20
18.8481
0
VERTEX
8
CUT
10
140.2073
20
17.3921
0
VERTEX
8
CUT
10
148.9914
20
17.1853
0
VERTEX
8
CUT
10
163.0483
20
17.6011
0
VERTEX
8
CUT
10
170.9235
20
18.6703
0
VERTEX
8
CUT
10
176.3940
20
19.6810
0
VERTEX
8
CUT
10
181.6426
20
20.8739
0
VERTEX
8
CUT
10
191.6734
20
23.8713
0
VERTEX
8
CUT
10
201.5743
20
27.7952
0
VERTEX
8
CUT
10
206.6433
20
30.1805
0
VERTEX
8
CUT
10
215.9353
20
35.1975
0
VERTEX
8
CUT
10
220.3495
20
37.9712
0
VERTEX
8
CUT
10
228.8390
20
44.0860
0
VERTEX
8
CUT
10
236.9860
20
51.0131
0
VERTEX
8
CUT
10
244.6885
20
58.6850
0
VERTEX
8
CUT
10
248.2560
20
62.6682
0
VERTEX
8
CUT
10
254.8873
20
71.0529
0
VERTEX
8
CUT
10
257.9884
20
75.4957
0
VERTEX
8
CUT
10
263.6605
20
84.6720
0
VERTEX
8
CUT
10
266.2844
20
89.5026
0
VERTEX
8
CUT
10
271.1534
20
99.8936
0
VERTEX
8
CUT
10
273.1815
20
105.1123
0
VERTEX
8
CUT
10
274.9954
20
110.3476
0
VERTEX
8
CUT
10
277.9078
20
121.2572
0
VERTEX
8
CUT
10
279.0671
20
127.0253
0
VERTEX
8
CUT
10
280.3443
20
135.0147
0
VERTEX
8
CUT
10
280.7017
20
138.0272
0
VERTEX
8
CUT
10
280.6680
20
140.9164
0
VERTEX
8
CUT
10
280.3692
20
141.1208
0
VERTEX
8
CUT
10
279.4085
20
141.0348
0
VERTEX
8
CUT
10
267.3733
20
138.4785
0
VERTEX
8
CUT
10
258.2367
20
137.1646
0
VERTEX
8
CUT
10
248.7653
20
136.3605
0
VERTEX
8
CUT
10
234.6864
20
136.0611
0
VERTEX
8
CUT
10
234.2432
20
136.0003
0
VERTEX
8
CUT
10
234.0474
20
135.7721
0
VERTEX
8
CUT
10
234.0919
20
135.4392
0
VERTEX
8
CUT
10
234.4036
20
135.2503
0
VERTEX
8
CUT
10
258.4131
20
129.2400
0
VERTEX
8
CUT
10
267.8180
20
127.1480
0
VERTEX
8
CUT
10
268.3495
20
126.7210
0
VERTEX
8
CUT
10
268.4488
20
125.8854
0
VERTEX
8
CUT
10
268.6539
20
125.6176
0
VERTEX
8
CUT
10
271.9910
20
124.8630
0
VERTEX
8
CUT
10
272.8214
20
124.4351
0
VERTEX
8
CUT
10
272.9266
20
124.0840
0
VERTEX
8
CUT
10
272.6738
20
123.7805
0
VERTEX
8
CUT
10
271.6198
20
123.4442
0
VERTEX
8
CUT
10
264.5140
20
123.6745
0
VERTEX
8
CUT
10
256.2164
20
124.5703
0
VERTEX
8
CUT
10
246.0830
20
126.3588
0
VERTEX
8
CUT
10
238.6634
20
127.9083
0
VERTEX
8
CUT
10
230.1094
20
129.9641
0
VERTEX
8
CUT
10
228.3040
20
130.2680
0
VERTEX
8
CUT
10
227.9688
20
130.1247
0
VERTEX
8
CUT
10
227.9315
20
129.2825
0
VERTEX
8
CUT
10
228.4699
20
125.7241
0
VERTEX
8
CUT
10
228.1488
20
121.3443
0
VERTEX
8
CUT
10
228.5696
20
121.0968
0
VERTEX
8
CUT
10
230.8896
20
121.5579
0
VERTEX
8
CUT
10
231.1150
20
121.3704
0
VERTEX
8
CUT
10
231.1707
20
120.6942
0
VERTEX
8
CUT
10
230.2376
20
118.3464
0
VERTEX
8
CUT
10
229.1478
20
116.5582
0
VERTEX
8
CUT
10
223.8787
20
110.2761
0
VERTEX
8
CUT
10
222.7971
20
108.6380
0
VERTEX
8
CUT
10
222.6399
20
108.0975
0
VERTEX
8
CUT
10
222.7558
20
107.7833
0
VERTEX
8
CUT
10
223.8768
20
107.4883
0
VERTEX
8
CUT
10
224.2011
20
107.1814
0
VERTEX
8
CUT
10
224.1738
20
106.6455
0
VERTEX
8
CUT
10
223.7804
20
105.8574
0
VERTEX
8
CUT
10
220.9337
20
102.4428
0
VERTEX
8
CUT
10
215.0847
20
96.8473
0
VERTEX
8
CUT
10
215.1553
20
96.4431
0
VERTEX
8
CUT
10
215.7099
20
96.1275
0
VERTEX
8
CUT
10
218.5745
20
95.4732
0
VERTEX
8
CUT
10
219.1525
20
95.1096
0
VERTEX
8
CUT
10
219.2617
20
94.7007
0
VERTEX
8
CUT
10
217.3894
20
92.6448
0
VERTEX
8
CUT
10
213.7894
20
89.4956
0
VERTEX
8
CUT
10
211.8851
20
88.1387
0
VERTEX
8
CUT
10
208.7453
20
86.7366
0
VERTEX
8
CUT
10
208.7089
20
86.2366
0
VERTEX
8
CUT
10
209.6711
20
85.4964
0
VERTEX
8
CUT
10
209.6663
20
85.0992
0
VERTEX
8
CUT
10
209.4169
20
84.7950
0
VERTEX
8
CUT
10
208.1317
20
84.2552
0
VERTEX
8
CUT
10
205.8216
20
83.7596
0
VERTEX
8
CUT
10
205.8506
20
83.2449
0
VERTEX
8
CUT
10
207.9220
20
81.5547
0
VERTEX
8
CUT
10
207.8704
20
81.0279
0
VERTEX
8
CUT
10
207.5636
20
80.7400
0
VERTEX
8
CUT
10
206.0142
20
80.1680
0
VERTEX
8
CUT
10
203.1917
20
79.9576
0
VERTEX
8
CUT
10
201.4372
20
80.2120
0
VERTEX
8
CUT
10
199.5317
20
81.1307
0
VERTEX
8
CUT
10
199.1295
20
80.9617
0
VERTEX
8
CUT
10
199.1303
20
79.7688
0
VERTEX
8
CUT
10
199.3827
20
78.9035
0
VERTEX
8
CUT
10
200.3686
20
77.1484
0
VERTEX
8
CUT
10
201.8286
20
75.4826
0
VERTEX
8
CUT
10
205.1113
20
73.0890
0
VERTEX
8
CUT
10
205.3003
20
72.7045
0
VERTEX
8
CUT
10
205.0291
20
72.1852
0
VERTEX
8
CUT
10
204.3901
20
71.8618
0
VERTEX
8
CUT
10
202.5194
20
71.5301
0
VERTEX
8
CUT
10
200.2235
20
71.5940
0
VERTEX
8
CUT
10
197.6775
20
72.1496
0
VERTEX
8
CUT
10
197.4372
20
71.9194
0
VERTEX
8
CUT
10
197.4625
20
71.5876
0
VERTEX
8
CUT
10
199.1787
20
70.0566
0
VERTEX
8
CUT
10
199.3452
20
69.7193
0
VERTEX
8
CUT
10
199.2257
20
69.3597
0
VERTEX
8
CUT
10
198.2458
20
68.9689
0
VERTEX
8
CUT
10
194.6187
20
69.2453
0
VERTEX
8
CUT
10
194.2652
20
69.0007
0
VERTEX
8
CUT
10
194.4109
20
68.5318
0
VERTEX
8
CUT
10
196.3659
20
67.5824
0
VERTEX
8
CUT
10
198.5768
20
66.7674
0
VERTEX
8
CUT
10
201.2265
20
66.1189
0
VERTEX
8
CUT
10
201.5752
20
65.8374
0
VERTEX
8
CUT
10
201.6669
20
65.4351
0
VERTEX
8
CUT
10
200.9145
20
64.6533
0
VERTEX
8
CUT
10
199.4229
20
63.9716
0
VERTEX
8
CUT
10
196.4398
20
63.2856
0
VERTEX
8
CUT
10
193.2109
20
62.9368
0
VERTEX
8
CUT
10
192.6278
20
62.5160
0
VERTEX
8
CUT
10
192.6958
20
61.7412
0
VERTEX
8
CUT
10
193.2797
20
60.5799
0
VERTEX
8
CUT
10
196.0661
20
57.3517
0
VERTEX
8
CUT
10
196.7832
20
56.1149
0
VERTEX
8
CUT
10
196.1489
20
55.7783
0
VERTEX
8
CUT
10
194.2892
20
55.8761
0
VERTEX
8
CUT
10
193.8497
20
55.2638
0
VERTEX
8
CUT
10
194.3124
20
49.1230
0
VERTEX
8
CUT
10
194.4023
20
44.2582
0
VERTEX
8
CUT
10
194.3124
20
39.4724
0
VERTEX
8
CUT
10
194.0397
20
36.0466
0
VERTEX
8
CUT
10
193.3818
20
32.7008
0
VERTEX
8
CUT
10
192.1158
20
28.6419
0
VERTEX
8
CUT
10
191.1042
20
26.7236
0
VERTEX
8
CUT
10
190.4182
20
25.8908
0
VERTEX
8
CUT
10
189.3382
20
25.1837
0
VERTEX
8
CUT
10
188.1863
20
24.8989
0
VERTEX
8
CUT
10
187.4268
20
24.9549
0
VERTEX
8
CUT
10
185.6052
20
25.6659
0
VERTEX
8
CUT
10
183.4493
20
27.1543
0
VERTEX
8
CUT
10
179.5971
20
30.6491
0
VERTEX
8
CUT
10
174.1706
20
36.7017
0
VERTEX
8
CUT
10
161.8738
20
52.0654
0
VERTEX
8
CUT
10
157.4506
20
56.9083
0
VERTEX
8
CUT
10
157.0826
20
56.9220
0
VERTEX
8
CUT
10
156.8677
20
56.6229
0
VERTEX
8
CUT
10
157.1993
20
54.1392
0
VERTEX
8
CUT
10
156.7409
20
53.8121
0
VERTEX
8
CUT
10
155.3011
20
54.1175
0
VERTEX
8
CUT
10
153.1709
20
55.4087
0
VERTEX
8
CUT
10
150.3920
20
57.8589
0
VERTEX
8
CUT
10
148.4002
20
60.3906
0
VERTEX
8
CUT
10
146.9886
20
62.9492
0
VERTEX
8
CUT
10
140.8482
20
63.4635
0
VERTEX
8
CUT
10
135.5840
20
64.6137
0
VERTEX
8
CUT
10
134.0330
20
63.6936
0
VERTEX
8
CUT
10
131.6049
20
61.5079
0
VERTEX
8
CUT
10
129.8849
20
60.3087
0
VERTEX
8
CUT
10
129.5230
20
60.4222
0
VERTEX
8
CUT
10
129.3640
20
60.6888
0
VERTEX
8
CUT
10
129.4194
20
63.4157
0
VERTEX
8
CUT
10
129.0798
20
63.7647
0
VERTEX
8
CUT
10
124.8191
20
61.7068
0
VERTEX
8
CUT
10
122.8133
20
61.3179
0
VERTEX
8
CUT
10
122.0893
20
61.4760
0
VERTEX
8
CUT
10
121.6583
20
61.9709
0
VERTEX
8
CUT
10
121.7185
20
62.6604
0
VERTEX
8
CUT
10
123.6504
20
65.6112
0
VERTEX
8
CUT
10
124.0993
20
66.6840
0
VERTEX
8
CUT
10
123.7519
20
67.1138
0
VERTEX
8
CUT
10
122.4447
20
66.3469
0
VERTEX
8
CUT
10
117.9549
20
62.4174
0
VERTEX
8
CUT
10
108.1524
20
52.8536
0
VERTEX
8
CUT
10
102.9700
20
48.1477
0
VERTEX
8
CUT
10
98.2257
20
44.3280
0
VERTEX
8
CUT
10
93.9539
20
41.4593
0
VERTEX
8
CUT
10
90.2045
20
39.5261
0
VERTEX
8
CUT
10
86.7853
20
38.4260
0
VERTEX
8
CUT
10
85.1609
20
38.1233
0
VERTEX
8
CUT
10
82.0840
20
38.1230
0
VERTEX
8
CUT
10
80.7646
20
38.3645
0
SEQEND
0
POLYLINE
8
CUT
66
1
70
1
10
0.0
20
0.0
30
0.0
0
VERTEX
8
CUT
10
261.3851
20
249.4526
0
VERTEX
8
CUT
10
261.0596
20
249.2088
0
VERTEX
8
CUT
10
261.1046
20
248.8385
0
VERTEX
8
CUT
10
269.6429
20
237.5261
0
VERTEX
8
CUT
10
270.0821
20
237.5510
0
VERTEX
8
CUT
10
271.3660
20
238.9638
0
VERTEX
8
CUT
10
272.6029
20
239.9158
0
VERTEX
8
CUT
10
273.8884
20
240.4840
0
VERTEX
8
CUT
10
275.2849
20
240.7077
0
VERTEX
8
CUT
10
276.6344
20
240.5481
0
VERTEX
8
CUT
10
277.6582
20
240.1702
0
VERTEX
8
CUT
10
278.4790
20
239.5638
0
VERTEX
8
CUT
10
279.4924
20
238.1834
0
VERTEX
8
CUT
10
279.7772
20
238.1008
0
VERTEX
8
CUT
10
280.0601
20
238.2733
0
VERTEX
8
CUT
10
279.6615
20
240.0608
0
VERTEX
8
CUT
10
278.6987
20
242.2462
0
VERTEX
8
CUT
10
277.4749
20
244.1714
0
VERTEX
8
CUT
10
275.2503
20
246.5794
0
VERTEX
8
CUT
10
273.4969
20
247.7819
0
VERTEX
8
CUT
10
271.4061
20
248.7671
0
VERTEX
8
CUT
10
269.4057
20
249.2863
0
VERTEX
8
CUT
10
266.4819
20
249.5217
0
SEQEND
0
POLYLINE
8
CUT
66
1
70
1
10
0.0
20
0.0
30
0.0
0
VERTEX
8
CUT
10
262.0728
20
52.3594
0
VERTEX
8
CUT
10
262.0645
20
51.9251
0
VERTEX
8
CUT
10
262.4921
20
51.6973
0
VERTEX
8
CUT
10
266.1106
20
51.5513
0
VERTEX
8
CUT
10
270.3102
20
52.1030
0
VERTEX
8
CUT
10
272.8612
20
53.0499
0
VERTEX
8
CUT
10
275.1154
20
54.5714
0
VERTEX
8
CUT
10
277.0527
20
56.5667
0
VERTEX
8
CUT
10
278.6700
20
58.9777
0
VERTEX
8
CUT
10
279.5979
20
61.0555
0
VERTEX
8
CUT
10
279.5779
20
61.3512
0
VERTEX
8
CUT
10
279.0599
20
61.5300
0
VERTEX
8
CUT
10
277.9847
20
60.5743
0
VERTEX
8
CUT
10
276.6229
20
60.0148
0
VERTEX
8
CUT
10
275.0767
20
59.8640
0
VERTEX
8
CUT
10
273.5833
20
60.2053
0
VERTEX
8
CUT
10
272.2669
20
61.0310
0
VERTEX
8
CUT
10
270.7588
20
63.0718
0
VERTEX
8
CUT
10
270.2479
20
63.2101
0
SEQEND
0
POLYLINE
8
CUT
66
1
70
1
10
0.0
20
0.0
30
0.0
0
VERTEX
8
CUT
10
220.4735
20
156.3529
0
VERTEX
8
CUT
10
220.5759
20
155.9282
0
VERTEX
8
CUT
10
221.0083
20
155.8658
0
VERTEX
8
CUT
10
231.0994
20
161.3763
0
VERTEX
8
CUT
10
237.6817
20
165.4272
0
VERTEX
8
CUT
10
246.5903
20
171.6929
0
VERTEX
8
CUT
10
254.7498
20
178.3934
0
VERTEX
8
CUT
10
262.0509
20
185.4570
0
VERTEX
8
CUT
10
268.5497
20
192.5217
0
VERTEX
8
CUT
10
270.0581
20
193.7903
0
VERTEX
8
CUT
10
271.0756
20
194.2725
0
VERTEX
8
CUT
10
271.6194
20
193.9336
0
VERTEX
8
CUT
10
271.5794
20
193.3224
0
VERTEX
8
CUT
10
271.0545
20
192.1192
0
VERTEX
8
CUT
10
268.9655
20
188.4794
0
VERTEX
8
CUT
10
266.0130
20
183.9762
0
VERTEX
8
CUT
10
261.5069
20
178.0676
0
VERTEX
8
CUT
10
255.7767
20
172.0979
0
VERTEX
8
CUT
10
249.3577
20
166.1568
0
VERTEX
8
CUT
10
243.3075
20
161.4179
0
VERTEX
8
CUT
10
236.4379
20
156.7585
0
VERTEX
8
CUT
10
228.0227
20
151.9494
0
VERTEX
8
CUT
10
227.8761
20
151.5062
0
VERTEX
8
CUT
10
228.2601
20
151.2407
0
VERTEX
8
CUT
10
229.5144
20
151.5127
0
VERTEX
8
CUT
10
241.2720
20
154.6079
0
VERTEX
8
CUT
10
250.9404
20
157.6124
0
VERTEX
8
CUT
10
256.6796
20
159.6640
0
VERTEX
8
CUT
10
263.4310
20
162.4595
0
VERTEX
8
CUT
10
270.8762
20
165.8843
0
VERTEX
8
CUT
10
276.9771
20
168.9206
0
VERTEX
8
CUT
10
278.8548
20
170.0074
0
VERTEX
8
CUT
10
279.5531
20
170.6520
0
VERTEX
8
CUT
10
279.3623
20
173.0801
0
VERTEX
8
CUT
10
278.3830
20
178.3623
0
VERTEX
8
CUT
10
275.6790
20
188.9118
0
VERTEX
8
CUT
10
273.6572
20
195.0978
0
VERTEX
8
CUT
10
271.3683
20
201.1926
0
VERTEX
8
CUT
10
268.7818
20
207.1695
0
VERTEX
8
CUT
10
265.8894
20
213.0735
0
VERTEX
8
CUT
10
262.7078
20
218.8413
0
VERTEX
8
CUT
10
259.2678
20
224.4757
0
VERTEX
8
CUT
10
254.3904
20
231.5849
0
VERTEX
8
CUT
10
252.2100
20
234.4211
0
VERTEX
8
CUT
10
250.2369
20
236.5973
0
VERTEX
8
CUT
10
249.8511
20
236.5299
0
VERTEX
8
CUT
10
248.1914
20
234.7621
0
VERTEX
8
CUT
10
246.7712
20
232.8214
0
VERTEX
8
CUT
10
245.9759
20
231.2089
0
VERTEX
8
CUT
10
245.9185
20
230.0882
0
VERTEX
8
CUT
10
246.3365
20
226.4060
0
VERTEX
8
CUT
10
246.3078
20
223.6441
0
VERTEX
8
CUT
10
246.0668
20
220.8710
0
VERTEX
8
CUT
10
245.6493
20
218.6032
0
VERTEX
8
CUT
10
244.7697
20
216.1414
0
VERTEX
8
CUT
10
242.6845
20
211.7624
0
VERTEX
8
CUT
10
240.0323
20
207.3938
0
VERTEX
8
CUT
10
240.2070
20
207.1142
0
VERTEX
8
CUT
10
240.5335
20
207.0687
0
VERTEX
8
CUT
10
241.6951
20
207.9843
0
VERTEX
8
CUT
10
244.3453
20
210.4851
0
VERTEX
8
CUT
10
248.3570
20
214.7944
0
VERTEX
8
CUT
10
249.3121
20
215.3665
0
VERTEX
8
CUT
10
249.6714
20
215.2152
0
VERTEX
8
CUT
10
249.8716
20
214.7721
0
VERTEX
8
CUT
10
249.9697
20
213.3191
0
VERTEX
8
CUT
10
249.6422
20
210.2220
0
VERTEX
8
CUT
10
249.2148
20
208.5374
0
VERTEX
8
CUT
10
247.9815
20
205.1140
0
VERTEX
8
CUT
10
245.1277
20
200.0141
0
VERTEX
8
CUT
10
241.5998
20
195.9790
0
VERTEX
8
CUT
10
236.5992
20
191.4163
0
VERTEX
8
CUT
10
236.9209
20
190.9975
0
VERTEX
8
CUT
10
240.8457
20
190.7937
0
VERTEX
8
CUT
10
243.2009
20
190.1425
0
VERTEX
8
CUT
10
245.7737
20
188.3514
0
VERTEX
8
CUT
10
246.6740
20
187.3457
0
VERTEX
8
CUT
10
246.8870
20
186.4891
0
VERTEX
8
CUT
10
246.1991
20
185.9384
0
VERTEX
8
CUT
10
241.7853
20
184.1483
0
VERTEX
8
CUT
10
233.0779
20
178.8176
0
VERTEX
8
CUT
10
233.0855
20
178.2726
0
VERTEX
8
CUT
10
235.0802
20
176.9442
0
VERTEX
8
CUT
10
236.3962
20
175.5434
0
VERTEX
8
CUT
10
237.2104
20
174.0185
0
VERTEX
8
CUT
10
237.3859
20
172.9640
0
VERTEX
8
CUT
10
236.9103
20
172.7804
0
VERTEX
8
CUT
10
232.2537
20
172.5709
0
VERTEX
8
CUT
10
230.6588
20
172.3377
0
VERTEX
8
CUT
10
228.4769
20
171.3437
0
VERTEX
8
CUT
10
226.2509
20
169.6117
0
VERTEX
8
CUT
10
224.3937
20
167.4933
0
VERTEX
8
CUT
10
223.7367
20
166.4189
0
VERTEX
8
CUT
10
222.8368
20
163.8601
0
VERTEX
8
CUT
10
221.6979
20
159.5782
0
SEQEND
0
POLYLINE
8
CUT
66
1
70
1
10
0.0
20
0.0
30
0.0
0
VERTEX
8
CUT
10
260.2325
20
13.2357
0
VERTEX
8
CUT
10
259.9956
20
12.9092
0
VERTEX
8
CUT
10
260.1436
20
12.5701
0
VERTEX
8
CUT
10
261.3344
20
12.4201
0
VERTEX
8
CUT
10
275.9701
20
12.3312
0
VERTEX
8
CUT
10
276.3596
20
12.7242
0
VERTEX
8
CUT
10
276.2417
20
12.9998
0
VERTEX
8
CUT
10
275.1663
20
13.7031
0
VERTEX
8
CUT
10
274.6602
20
14.2688
0
VERTEX
8
CUT
10
273.3397
20
16.5789
0
VERTEX
8
CUT
10
272.5488
20
19.1800
0
VERTEX
8
CUT
10
272.2829
20
22.1756
0
VERTEX
8
CUT
10
272.1355
20
22.5617
0
VERTEX
8
CUT
10
271.8360
20
22.7036
0
VERTEX
8
CUT
10
271.5357
20
22.5634
0
VERTEX
8
CUT
10
268.9077
20
19.2981
0
VERTEX
8
CUT
10
266.3417
20
16.8811
0
VERTEX
8
CUT
10
263.4367
20
14.8237
0
SEQEND
0
POLYLINE
8
CUT
66
1
70
1
10
0.0
20
0.0
30
0.0
0
VERTEX
8
CUT
10
247.6091
20
270.7510
0
VERTEX
8
CUT
10
247.8654
20
271.1092
0
VERTEX
8
CUT
10
247.5889
20
272.1170
0
VERTEX
8
CUT
10
247.6760
20
273.0128
0
VERTEX
8
CUT
10
248.7060
20
275.6957
0
VERTEX
8
CUT
10
249.8017
20
277.0176
0
VERTEX
8
CUT
10
251.2519
20
277.7360
0
VERTEX
8
CUT
10
253.5348
20
277.9633
0
VERTEX
8
CUT
10
255.5386
20
277.6157
0
VERTEX
8
CUT
10
256.8542
20
276.7639
0
VERTEX
8
CUT
10
257.7559
20
275.8596
0
VERTEX
8
CUT
10
258.4636
20
274.7530
0
VERTEX
8
CUT
10
258.9544
20
273.5565
0
VERTEX
8
CUT
10
259.2302
20
272.2386
0
VERTEX
8
CUT
10
259.0825
20
269.6348
0
VERTEX
8
CUT
10
258.6013
20
268.3160
0
VERTEX
8
CUT
10
257.0436
20
266.1593
0
VERTEX
8
CUT
10
254.7379
20
264.5099
0
VERTEX
8
CUT
10
253.3783
20
263.9091
0
VERTEX
8
CUT
10
250.6040
20
263.3128
0
VERTEX
8
CUT
10
248.4112
20
263.3650
0
VERTEX
8
CUT
10
248.0804
20
263.0026
0
VERTEX
8
CUT
10
248.8391
20
261.9683
0
VERTEX
8
CUT
10
252.2080
20
258.3904
0
VERTEX
8
CUT
10
257.1441
20
253.5297
0
VERTEX
8
CUT
10
257.5103
20
253.7111
0
VERTEX
8
CUT
10
259.0240
20
256.2469
0
VERTEX
8
CUT
10
260.2272
20
257.3366
0
VERTEX
8
CUT
10
261.6621
20
258.1054
0
VERTEX
8
CUT
10
263.9658
20
258.6008
0
VERTEX
8
CUT
10
264.2344
20
258.8978
0
VERTEX
8
CUT
10
264.0683
20
259.2974
0
VERTEX
8
CUT
10
261.5526
20
260.7269
0
VERTEX
8
CUT
10
260.3861
20
261.6828
0
VERTEX
8
CUT
10
259.4935
20
262.7938
0
VERTEX
8
CUT
10
259.0020
20
263.9305
0
VERTEX
8
CUT
10
258.8436
20
265.1434
0
VERTEX
8
CUT
10
259.0673
20
266.3387
0
VERTEX
8
CUT
10
259.6561
20
267.4221
0
VERTEX
8
CUT
10
261.3651
20
269.0151
0
VERTEX
8
CUT
10
263.0252
20
269.7086
0
VERTEX
8
CUT
10
264.8515
20
269.8335
0
VERTEX
8
CUT
10
265.8344
20
269.6836
0
VERTEX
8
CUT
10
268.3298
20
268.8641
0
VERTEX
8
CUT
10
268.7579
20
269.2114
0
VERTEX
8
CUT
10
267.4234
20
271.4142
0
VERTEX
8
CUT
10
265.1618
20
274.1744
0
VERTEX
8
CUT
10
263.3025
20
276.0356
0
VERTEX
8
CUT
10
261.3533
20
277.6329
0
VERTEX
8
CUT
10
259.3811
20
278.9596
0
VERTEX
8
CUT
10
257.3204
20
280.0224
0
VERTEX
8
CUT
10
255.2646
20
280.7889
0
VERTEX
8
CUT
10
253.1255
20
281.2700
0
VERTEX
8
CUT
10
249.9933
20
281.3860
0
VERTEX
8
CUT
10
247.1791
20
280.9386
0
VERTEX
8
CUT
10
245.0942
20
279.9457
0
VERTEX
8
CUT
10
243.9070
20
278.8132
0
VERTEX
8
CUT
10
243.3968
20
278.0126
0
VERTEX
8
CUT
10
243.0471
20
277.1714
0
VERTEX
8
CUT
10
242.9129
20
275.5199
0
VERTEX
8
CUT
10
243.4478
20
273.7066
0
VERTEX
8
CUT
10
244.4036
20
272.3617
0
VERTEX
8
CUT
10
245.4534
20
271.4798
0
VERTEX
8
CUT
10
246.6166
20
270.8649
0
SEQEND
0
POLYLINE
8
CUT
66
1
70
1
10
0.0
20
0.0
30
0.0
0
VERTEX
8
CUT
10
247.2750
20
28.9390
0
VERTEX
8
CUT
10
246.9519
20
29.1819
0
VERTEX
8
CUT
10
246.2543
20
29.0360
0
VERTEX
8
CUT
10
244.3466
20
27.3197
0
VERTEX
8
CUT
10
242.9515
20
24.7623
0
VERTEX
8
CUT
10
242.9343
20
23.3849
0
VERTEX
8
CUT
10
243.6111
20
22.3555
0
VERTEX
8
CUT
10
244.2087
20
21.8081
0
VERTEX
8
CUT
10
245.9000
20
20.8548
0
VERTEX
8
CUT
10
248.8297
20
20.0088
0
VERTEX
8
CUT
10
251.6315
20
19.8656
0
VERTEX
8
CUT
10
255.5752
20
20.7536
0
VERTEX
8
CUT
10
258.8746
20
22.2135
0
VERTEX
8
CUT
10
260.5004
20
23.2167
0
VERTEX
8
CUT
10
263.5454
20
25.6085
0
VERTEX
8
CUT
10
264.9948
20
27.0269
0
VERTEX
8
CUT
10
267.0101
20
29.3952
0
VERTEX
8
CUT
10
267.5617
20
30.3219
0
VERTEX
8
CUT
10
267.1743
20
30.6794
0
VERTEX
8
CUT
10
265.2496
20
30.1961
0
VERTEX
8
CUT
10
263.1398
20
30.3018
0
VERTEX
8
CUT
10
261.3666
20
31.1634
0
VERTEX
8
CUT
10
259.9606
20
32.8053
0
VERTEX
8
CUT
10
259.3856
20
33.9542
0
VERTEX
8
CUT
10
258.9362
20
35.8411
0
VERTEX
8
CUT
10
259.1794
20
37.6735
0
VERTEX
8
CUT
10
260.1147
20
39.2384
0
VERTEX
8
CUT
10
262.3081
20
40.8552
0
VERTEX
8
CUT
10
262.4466
20
41.2364
0
VERTEX
8
CUT
10
262.2387
20
41.5174
0
VERTEX
8
CUT
10
260.4925
20
42.4952
0
VERTEX
8
CUT
10
259.4815
20
43.3791
0
VERTEX
8
CUT
10
258.6275
20
44.4546
0
VERTEX
8
CUT
10
257.6715
20
46.3483
0
VERTEX
8
CUT
10
257.3364
20
46.5216
0
VERTEX
8
CUT
10
255.9266
20
45.3576
0
VERTEX
8
CUT
10
253.0132
20
42.3851
0
VERTEX
8
CUT
10
249.5280
20
38.3322
0
VERTEX
8
CUT
10
249.8042
20
37.9583
0
VERTEX
8
CUT
10
252.4928
20
37.4585
0
VERTEX
8
CUT
10
254.2100
20
36.6947
0
VERTEX
8
CUT
10
256.0570
20
35.0664
0
VERTEX
8
CUT
10
258.0586
20
32.6165
0
VERTEX
8
CUT
10
258.8702
20
30.9866
0
VERTEX
8
CUT
10
259.2913
20
28.5577
0
VERTEX
8
CUT
10
258.8403
20
25.9836
0
VERTEX
8
CUT
10
258.2751
20
24.8433
0
VERTEX
8
CUT
10
256.6029
20
23.1338
0
VERTEX
8
CUT
10
255.4714
20
22.5196
0
VERTEX
8
CUT
10
254.2983
20
22.1604
0
VERTEX
8
CUT
10
252.9805
20
22.0371
0
VERTEX
8
CUT
10
251.0606
20
22.3174
0
VERTEX
8
CUT
10
249.5523
20
23.2014
0
VERTEX
8
CUT
10
248.5124
20
24.6939
0
SEQEND
0
POLYLINE
8
CUT
66
1
70
1
10
0.0
20
0.0
30
0.0
0
VERTEX
8
CUT
10
218.4730
20
288.4848
0
VERTEX
8
CUT
10
218.3409
20
288.0169
0
VERTEX
8
CUT
10
218.9591
20
287.2058
0
VERTEX
8
CUT
10
224.0601
20
283.4664
0
VERTEX
8
CUT
10
225.2893
20
281.8576
0
VERTEX
8
CUT
10
228.1074
20
279.9539
0
VERTEX
8
CUT
10
232.0870
20
276.6941
0
VERTEX
8
CUT
10
235.2349
20
274.4846
0
VERTEX
8
CUT
10
235.6405
20
274.8038
0
VERTEX
8
CUT
10
235.9129
20
278.4852
0
VERTEX
8
CUT
10
236.2766
20
279.9521
0
VERTEX
8
CUT
10
237.2477
20
281.8734
0
VERTEX
8
CUT
10
238.1663
20
283.1609
0
VERTEX
8
CUT
10
239.1552
20
284.2067
0
VERTEX
8
CUT
10
241.2117
20
285.6672
0
VERTEX
8
CUT
10
243.8060
20
286.9074
0
VERTEX
8
CUT
10
246.3319
20
287.7262
0
VERTEX
8
CUT
10
246.5474
20
288.0634
0
VERTEX
8
CUT
10
246.1698
20
288.4640
0
VERTEX
8
CUT
10
238.7386
20
288.6516
0
VERTEX
8
CUT
10
222.4885
20
288.8005
0
VERTEX
8
CUT
10
219.6543
20
288.7402
0
SEQEND
0
POLYLINE
8
CUT
66
1
70
1
10
0.0
20
0.0
30
0.0
0
VERTEX
8
CUT
10
218.3787
20
12.9076
0
VERTEX
8
CUT
10
218.7412
20
12.6236
0
VERTEX
8
CUT
10
219.8213
20
12.4794
0
VERTEX
8
CUT
10
228.0547
20
12.3312
0
VERTEX
8
CUT
10
241.0686
20
12.3612
0
VERTEX
8
CUT
10
243.3203
20
12.4436
0
VERTEX
8
CUT
10
243.6230
20
12.8375
0
VERTEX
8
CUT
10
243.4362
20
13.1561
0
VERTEX
8
CUT
10
241.0508
20
14.4406
0
VERTEX
8
CUT
10
239.5466
20
15.5222
0
VERTEX
8
CUT
10
237.8339
20
17.3513
0
VERTEX
8
CUT
10
236.5598
20
19.5318
0
VERTEX
8
CUT
10
235.1314
20
24.1382
0
VERTEX
8
CUT
10
234.7544
20
24.4044
0
VERTEX
8
CUT
10
229.7746
20
20.7904
0
VERTEX
8
CUT
10
224.1192
20
17.0102
0
VERTEX
8
CUT
10
219.8783
20
14.7381
0
VERTEX
8
CUT
10
218.3791
20
13.4536
0
SEQEND
0
POLYLINE
8
CUT
66
1
70
1
10
0.0
20
0.0
30
0.0
0
VERTEX
8
CUT
10
56.5941
20
13.1953
0
VERTEX
8
CUT
10
56.3415
20
12.7667
0
VERTEX
8
CUT
10
56.7162
20
12.4395
0
VERTEX
8
CUT
10
76.9407
20
12.3609
0
VERTEX
8
CUT
10
81.0339
20
12.6371
0
VERTEX
8
CUT
10
81.6465
20
13.0672
0
VERTEX
8
CUT
10
81.9023
20
13.6279
0
VERTEX
8
CUT
10
81.7211
20
14.0863
0
VERTEX
8
CUT
10
81.3681
20
14.3702
0
VERTEX
8
CUT
10
78.0862
20
15.7418
0
VERTEX
8
CUT
10
75.1463
20
17.4803
0
VERTEX
8
CUT
10
64.8703
20
24.7617
0
VERTEX
8
CUT
10
64.4831
20
24.4581
0
VERTEX
8
CUT
10
64.2656
20
22.3153
0
VERTEX
8
CUT
10
63.7717
20
20.4929
0
VERTEX
8
CUT
10
63.0414
20
18.7368
0
VERTEX
8
CUT
10
62.1529
20
17.2858
0
VERTEX
8
CUT
10
60.9884
20
16.0227
0
VERTEX
8
CUT
10
59.4518
20
14.7858
0
SEQEND
0
POLYLINE
8
CUT
66
1
70
1
10
0.0
20
0.0
30
0.0
0
VERTEX
8
CUT
10
53.9518
20
288.4369
0
VERTEX
8
CUT
10
53.5859
20
288.1436
0
VERTEX
8
CUT
10
53.7349
20
287.7322
0
VERTEX
8
CUT
10
56.1947
20
286.9667
0
VERTEX
8
CUT
10
58.7210
20
285.7617
0
VERTEX
8
CUT
10
61.0615
20
283.9921
0
VERTEX
8
CUT
10
62.3136
20
282.5315
0
VERTEX
8
CUT
10
63.3133
20
280.8695
0
VERTEX
8
CUT
10
64.0236
20
279.1980
0
VERTEX
8
CUT
10
64.2639
20
277.6981
0
VERTEX
8
CUT
10
64.2981
20
274.6462
0
VERTEX
8
CUT
10
64.6945
20
274.2956
0
VERTEX
8
CUT
10
73.1132
20
280.5267
0
VERTEX
8
CUT
10
73.7352
20
281.1878
0
VERTEX
8
CUT
10
73.9199
20
281.8637
0
VERTEX
8
CUT
10
74.6590
20
282.7265
0
VERTEX
8
CUT
10
80.0999
20
286.4969
0
VERTEX
8
CUT
10
80.9541
20
287.2069
0
VERTEX
8
CUT
10
81.2977
20
287.8020
0
VERTEX
8
CUT
10
80.9179
20
288.5315
0
VERTEX
8
CUT
10
78.7349
20
288.6516
0
SEQEND
0
POLYLINE
8
CUT
66
1
70
1
10
0.0
20
0.0
30
0.0
0
VERTEX
8
CUT
10
32.6952
20
184.0763
0
VERTEX
8
CUT
10
24.6117
20
189.5877
0
VERTEX
8
CUT
10
24.3445
20
189.3919
0
VERTEX
8
CUT
10
23.5528
20
187.0569
0
VERTEX
8
CUT
10
21.6788
20
179.5925
0
VERTEX
8
CUT
10
20.7542
20
175.0294
0
VERTEX
8
CUT
10
19.4167
20
165.9905
0
VERTEX
8
CUT
10
18.7341
20
156.7000
0
VERTEX
8
CUT
10
18.6445
20
151.8199
0
VERTEX
8
CUT
10
18.9713
20
139.9225
0
VERTEX
8
CUT
10
19.9218
20
130.7106
0
VERTEX
8
CUT
10
21.7336
20
121.2027
0
VERTEX
8
CUT
10
24.3875
20
111.3350
0
VERTEX
8
CUT
10
27.8080
20
101.6422
0
VERTEX
8
CUT
10
32.0305
20
92.1589
0
VERTEX
8
CUT
10
36.9383
20
82.9705
0
VERTEX
8
CUT
10
42.5584
20
74.1705
0
VERTEX
8
CUT
10
48.8336
20
65.7558
0
VERTEX
8
CUT
10
55.6743
20
57.8462
0
VERTEX
8
CUT
10
63.1077
20
50.5334
0
VERTEX
8
CUT
10
71.1405
20
43.7752
0
VERTEX
8
CUT
10
77.1428
20
39.5427
0
VERTEX
8
CUT
10
77.5092
20
39.4984
0
VERTEX
8
CUT
10
77.7247
20
39.7067
0
VERTEX
8
CUT
10
77.7124
20
40.0413
0
VERTEX
8
CUT
10
75.3050
20
42.8773
0
VERTEX
8
CUT
10
73.6381
20
46.0626
0
VERTEX
8
CUT
10
72.9082
20
47.9768
0
VERTEX
8
CUT
10
71.4164
20
53.5566
0
VERTEX
8
CUT
10
70.1916
20
60.5168
0
VERTEX
8
CUT
10
69.3863
20
67.3209
0
VERTEX
8
CUT
10
69.1478
20
74.3854
0
VERTEX
8
CUT
10
69.3860
20
81.8409
0
VERTEX
8
CUT
10
70.1293
20
88.4895
0
VERTEX
8
CUT
10
68.4461
20
92.7800
0
VERTEX
8
CUT
10
67.8989
20
95.7133
0
VERTEX
8
CUT
10
67.7782
20
97.8729
0
VERTEX
8
CUT
10
67.8970
20
100.2151
0
VERTEX
8
CUT
10
68.3808
20
102.9414
0
VERTEX
8
CUT
10
64.0956
20
107.4110
0
VERTEX
8
CUT
10
62.2474
20
110.0041
0
VERTEX
8
CUT
10
61.7359
20
111.3137
0
VERTEX
8
CUT
10
61.8557
20
111.9954
0
VERTEX
8
CUT
10
62.2832
20
112.2651
0
VERTEX
8
CUT
10
66.1193
20
112.1536
0
VERTEX
8
CUT
10
66.4066
20
112.3278
0
VERTEX
8
CUT
10
66.4614
20
112.6235
0
VERTEX
8
CUT
10
60.8256
20
118.8984
0
VERTEX
8
CUT
10
59.2254
20
121.7608
0
VERTEX
8
CUT
10
58.7850
20
123.1349
0
VERTEX
8
CUT
10
58.8931
20
123.6005
0
VERTEX
8
CUT
10
59.3558
20
123.8247
0
VERTEX
8
CUT
10
64.4900
20
122.5492
0
VERTEX
8
CUT
10
65.1443
20
122.5916
0
VERTEX
8
CUT
10
65.3395
20
123.0169
0
VERTEX
8
CUT
10
64.8350
20
123.7914
0
VERTEX
8
CUT
10
59.4132
20
128.9748
0
VERTEX
8
CUT
10
57.1635
20
131.8512
0
VERTEX
8
CUT
10
55.6048
20
134.7883
0
VERTEX
8
CUT
10
54.8835
20
137.4817
0
VERTEX
8
CUT
10
54.9220
20
138.9209
0
VERTEX
8
CUT
10
55.5007
20
139.3395
0
VERTEX
8
CUT
10
59.6776
20
137.8135
0
VERTEX
8
CUT
10
60.5583
20
137.6535
0
VERTEX
8
CUT
10
60.8804
20
138.0565
0
VERTEX
8
CUT
10
56.6434
20
143.3358
0
VERTEX
8
CUT
10
54.6570
20
146.5049
0
VERTEX
8
CUT
10
53.6143
20
149.4837
0
VERTEX
8
CUT
10
53.3974
20
151.0661
0
VERTEX
8
CUT
10
53.3348
20
153.6348
0
VERTEX
8
CUT
10
53.5615
20
154.8192
0
VERTEX
8
CUT
10
53.9410
20
155.1516
0
VERTEX
8
CUT
10
54.7792
20
154.9467
0
VERTEX
8
CUT
10
57.5564
20
152.6804
0
VERTEX
8
CUT
10
59.6220
20
151.5535
0
VERTEX
8
CUT
10
60.4272
20
151.4964
0
VERTEX
8
CUT
10
60.6084
20
151.7658
0
VERTEX
8
CUT
10
60.5688
20
152.1879
0
VERTEX
8
CUT
10
59.6445
20
154.8971
0
VERTEX
8
CUT
10
58.9463
20
156.1829
0
VERTEX
8
CUT
10
58.1900
20
157.2405
0
VERTEX
8
CUT
10
56.3519
20
159.0500
0
VERTEX
8
CUT
10
54.0574
20
160.4811
0
VERTEX
8
CUT
10
51.6426
20
161.4015
0
VERTEX
8
CUT
10
48.9766
20
161.9234
0
VERTEX
8
CUT
10
48.5492
20
162.1745
0
VERTEX
8
CUT
10
48.3337
20
162.5740
0
VERTEX
8
CUT
10
48.6361
20
163.4877
0
VERTEX
8
CUT
10
49.6956
20
164.6723
0
VERTEX
8
CUT
10
52.0583
20
166.4343
0
VERTEX
8
CUT
10
53.8201
20
167.1381
0
VERTEX
8
CUT
10
54.8100
20
167.3281
0
VERTEX
8
CUT
10
58.6340
20
167.5113
0
VERTEX
8
CUT
10
58.9051
20
167.7195
0
VERTEX
8
CUT
10
58.9035
20
168.0955
0
VERTEX
8
CUT
10
57.5335
20
170.6633
0
VERTEX
8
CUT
10
56.6579
20
171.4541
0
VERTEX
8
CUT
10
45.0497
20
177.2111
0
VERTEX
8
CUT
10
37.8630
20
180.9986
0
SEQEND
0
POLYLINE
8
CUT
66
1
70
1
10
0.0
20
0.0
30
0.0
0
VERTEX
8
CUT
10
31.3124
20
269.4517
0
VERTEX
8
CUT
10
31.3465
20
269.0796
0
VERTEX
8
CUT
10
31.6781
20
268.9075
0
VERTEX
8
CUT
10
34.4064
20
269.7435
0
VERTEX
8
CUT
10
35.5521
20
269.8926
0
VERTEX
8
CUT
10
36.6405
20
269.7995
0
VERTEX
8
CUT
10
38.4767
20
269.0815
0
VERTEX
8
CUT
10
40.2617
20
267.5620
0
VERTEX
8
CUT
10
40.9643
20
266.3644
0
VERTEX
8
CUT
10
41.2166
20
265.0664
0
VERTEX
8
CUT
10
40.9944
20
263.8891
0
VERTEX
8
CUT
10
40.4857
20
262.6916
0
VERTEX
8
CUT
10
39.2182
20
261.1111
0
VERTEX
8
CUT
10
38.2060
20
260.4395
0
VERTEX
8
CUT
10
35.7670
20
259.2963
0
VERTEX
8
CUT
10
35.6041
20
258.8948
0
VERTEX
8
CUT
10
35.8760
20
258.6001
0
VERTEX
8
CUT
10
37.7033
20
258.3070
0
VERTEX
8
CUT
10
38.6879
20
257.9422
0
VERTEX
8
CUT
10
40.3781
20
256.9049
0
VERTEX
8
CUT
10
41.6334
20
255.5270
0
VERTEX
8
CUT
10
42.4858
20
253.4157
0
VERTEX
8
CUT
10
42.9296
20
253.2827
0
VERTEX
8
CUT
10
48.6602
20
259.0206
0
VERTEX
8
CUT
10
51.5945
20
262.2511
0
VERTEX
8
CUT
10
51.9286
20
262.8361
0
VERTEX
8
CUT
10
51.6175
20
263.1804
0
VERTEX
8
CUT
10
48.5368
20
263.4019
0
VERTEX
8
CUT
10
46.6625
20
263.8964
0
VERTEX
8
CUT
10
45.0450
20
264.6166
0
VERTEX
8
CUT
10
43.6372
20
265.5736
0
VERTEX
8
CUT
10
42.4215
20
266.8141
0
VERTEX
8
CUT
10
41.5340
20
268.2224
0
VERTEX
8
CUT
10
40.9922
20
269.7518
0
VERTEX
8
CUT
10
40.7999
20
271.4687
0
VERTEX
8
CUT
10
40.8954
20
272.7500
0
VERTEX
8
CUT
10
41.5971
20
274.8445
0
VERTEX
8
CUT
10
42.9546
20
276.5416
0
VERTEX
8
CUT
10
44.9211
20
277.7102
0
VERTEX
8
CUT
10
46.1154
20
278.0773
0
VERTEX
8
CUT
10
47.1344
20
278.1419
0
VERTEX
8
CUT
10
48.9018
20
277.6860
0
VERTEX
8
CUT
10
50.4808
20
276.7031
0
VERTEX
8
CUT
10
51.4117
20
275.6099
0
VERTEX
8
CUT
10
52.2639
20
273.6109
0
VERTEX
8
CUT
10
52.3408
20
270.8990
0
VERTEX
8
CUT
10
52.5896
20
270.6405
0
VERTEX
8
CUT
10
52.9685
20
270.6544
0
VERTEX
8
CUT
10
54.8439
20
271.6329
0
VERTEX
8
CUT
10
55.5541
20
272.2958
0
VERTEX
8
CUT
10
56.5794
20
273.8473
0
VERTEX
8
CUT
10
57.0854
20
275.7184
0
VERTEX
8
CUT
10
56.8932
20
277.4780
0
VERTEX
8
CUT
10
55.9440
20
279.0899
0
VERTEX
8
CUT
10
54.5224
20
280.1962
0
VERTEX
8
CUT
10
52.5937
20
280.9727
0
VERTEX
8
CUT
10
50.2476
20
281.3544
0
VERTEX
8
CUT
10
47.7288
20
281.2953
0
VERTEX
8
CUT
10
45.0518
20
280.8158
0
VERTEX
8
CUT
10
42.4039
20
279.8982
0
VERTEX
8
CUT
10
39.9306
20
278.5584
0
VERTEX
8
CUT
10
38.3592
20
277.3722
0
VERTEX
8
CUT
10
36.7062
20
275.8952
0
VERTEX
8
CUT
10
33.5208
20
272.5328
0
VERTEX
8
CUT
10
32.2322
20
270.9419
0
SEQEND
0
POLYLINE
8
CUT
66
1
70
1
10
0.0
20
0.0
30
0.0
0
VERTEX
8
CUT
10
32.8941
20
30.5960
0
VERTEX
8
CUT
10
32.5785
20
30.4999
0
VERTEX
8
CUT
10
32.4503
20
30.2339
0
VERTEX
8
CUT
10
32.8131
20
29.5710
0
VERTEX
8
CUT
10
34.4679
20
27.5631
0
VERTEX
8
CUT
10
37.0555
20
24.9809
0
VERTEX
8
CUT
10
39.3884
20
23.2132
0
VERTEX
8
CUT
10
41.8078
20
21.8299
0
VERTEX
8
CUT
10
44.2875
20
20.8010
0
VERTEX
8
CUT
10
46.7618
20
20.1618
0
VERTEX
8
CUT
10
49.1962
20
19.9287
0
VERTEX
8
CUT
10
51.6333
20
20.1033
0
VERTEX
8
CUT
10
53.9280
20
20.7115
0
VERTEX
8
CUT
10
54.9477
20
21.2008
0
VERTEX
8
CUT
10
56.3531
20
22.2843
0
VERTEX
8
CUT
10
57.0608
20
23.3332
0
VERTEX
8
CUT
10
56.9438
20
25.1696
0
VERTEX
8
CUT
10
56.1788
20
26.8929
0
VERTEX
8
CUT
10
54.9500
20
28.2562
0
VERTEX
8
CUT
10
53.2905
20
29.1158
0
VERTEX
8
CUT
10
52.8735
20
29.0047
0
VERTEX
8
CUT
10
52.5925
20
28.5730
0
VERTEX
8
CUT
10
51.9840
20
25.9841
0
VERTEX
8
CUT
10
51.0803
20
23.9361
0
VERTEX
8
CUT
10
50.2051
20
23.0473
0
VERTEX
8
CUT
10
49.1886
20
22.4109
0
VERTEX
8
CUT
10
47.2187
20
22.0367
0
VERTEX
8
CUT
10
44.6189
20
22.3703
0
VERTEX
8
CUT
10
43.0423
20
23.3108
0
VERTEX
8
CUT
10
41.8140
20
24.7539
0
VERTEX
8
CUT
10
41.0100
20
26.5534
0
VERTEX
8
CUT
10
40.7090
20
28.5185
0
VERTEX
8
CUT
10
40.8701
20
30.0325
0
VERTEX
8
CUT
10
41.7902
20
32.2263
0
VERTEX
8
CUT
10
43.6473
20
34.6816
0
VERTEX
8
CUT
10
45.4537
20
36.4514
0
VERTEX
8
CUT
10
47.2267
20
37.4432
0
VERTEX
8
CUT
10
50.1442
20
38.1277
0
VERTEX
8
CUT
10
50.4201
20
38.4648
0
VERTEX
8
CUT
10
50.2062
20
38.9310
0
VERTEX
8
CUT
10
48.0022
20
41.3100
0
VERTEX
8
CUT
10
42.7459
20
46.3443
0
VERTEX
8
CUT
10
42.3019
20
46.1959
0
VERTEX
8
CUT
10
41.3704
20
44.4210
0
VERTEX
8
CUT
10
40.6070
20
43.4379
0
VERTEX
8
CUT
10
37.7779
20
41.2743
0
VERTEX
8
CUT
10
37.9413
20
40.8597
0
VERTEX
8
CUT
10
39.2575
20
39.8081
0
VERTEX
8
CUT
10
40.0967
20
38.8488
0
VERTEX
8
CUT
10
40.7702
20
37.6918
0
VERTEX
8
CUT
10
41.1479
20
36.5446
0
VERTEX
8
CUT
10
41.1464
20
35.4004
0
VERTEX
8
CUT
10
40.0414
20
32.8081
0
VERTEX
8
CUT
10
38.8058
20
31.2725
0
VERTEX
8
CUT
10
37.1887
20
30.4213
0
VERTEX
8
CUT
10
35.2395
20
30.1665
0
SEQEND
0
POLYLINE
8
CUT
66
1
70
1
10
0.0
20
0.0
30
0.0
0
VERTEX
8
CUT
10
50.6272
20
197.7652
0
VERTEX
8
CUT
10
51.0028
20
197.9056
0
VERTEX
8
CUT
10
51.0386
20
198.3374
0
VERTEX
8
CUT
10
46.7309
20
204.1095
0
VERTEX
8
CUT
10
45.3648
20
206.9015
0
VERTEX
8
CUT
10
44.6804
20
208.9840
0
VERTEX
8
CUT
10
44.2230
20
211.1490
0
VERTEX
8
CUT
10
44.1030
20
213.9331
0
VERTEX
8
CUT
10
44.3644
20
215.0430
0
VERTEX
8
CUT
10
44.8507
20
215.3046
0
VERTEX
8
CUT
10
45.8030
20
214.8821
0
VERTEX
8
CUT
10
49.0078
20
212.0393
0
VERTEX
8
CUT
10
50.8829
20
210.7226
0
VERTEX
8
CUT
10
51.4561
20
210.7536
0
VERTEX
8
CUT
10
51.5401
20
211.4147
0
VERTEX
8
CUT
10
49.5697
20
216.1757
0
VERTEX
8
CUT
10
46.2816
20
222.2187
0
VERTEX
8
CUT
10
43.3339
20
226.5462
0
VERTEX
8
CUT
10
42.3630
20
227.1096
0
VERTEX
8
CUT
10
41.4509
20
226.2876
0
VERTEX
8
CUT
10
39.4804
20
223.4909
0
VERTEX
8
CUT
10
35.3568
20
216.2814
0
VERTEX
8
CUT
10
32.2942
20
210.3351
0
VERTEX
8
CUT
10
29.5886
20
204.4190
0
VERTEX
8
CUT
10
27.4195
20
199.0710
0
VERTEX
8
CUT
10
26.2137
20
195.3713
0
VERTEX
8
CUT
10
26.1148
20
194.3709
0
VERTEX
8
CUT
10
26.7118
20
193.6526
0
VERTEX
8
CUT
10
28.3424
20
192.5842
0
VERTEX
8
CUT
10
35.7150
20
188.6606
0
VERTEX
8
CUT
10
47.1949
20
183.1883
0
VERTEX
8
CUT
10
52.9241
20
180.9066
0
VERTEX
8
CUT
10
53.2399
20
181.3327
0
VERTEX
8
CUT
10
52.6365
20
183.0923
0
VERTEX
8
CUT
10
51.1760
20
186.5795
0
VERTEX
8
CUT
10
49.6672
20
189.5057
0
VERTEX
8
CUT
10
48.4482
20
191.2183
0
VERTEX
8
CUT
10
47.0106
20
192.7469
0
VERTEX
8
CUT
10
43.4477
20
195.3015
0
VERTEX
8
CUT
10
42.8851
20
196.0075
0
VERTEX
8
CUT
10
43.0185
20
196.3786
0
VERTEX
8
CUT
10
43.7602
20
196.9942
0
VERTEX
8
CUT
10
45.5612
20
197.7352
0
VERTEX
8
CUT
10
48.0512
20
198.0053
0
SEQEND
0
POLYLINE
8
CUT
66
1
70
1
10
0.0
20
0.0
30
0.0
0
VERTEX
8
CUT
10
11.8424
20
241.0883
0
VERTEX
8
CUT
10
12.1604
20
240.7104
0
VERTEX
8
CUT
10
12.6057
20
240.9843
0
VERTEX
8
CUT
10
13.4673
20
245.0499
0
VERTEX
8
CUT
10
16.5044
20
256.6924
0
VERTEX
8
CUT
10
17.5118
20
262.0927
0
VERTEX
8
CUT
10
17.3990
20
264.9065
0
VERTEX
8
CUT
10
16.8710
20
265.9938
0
VERTEX
8
CUT
10
13.8490
20
270.5850
0
VERTEX
8
CUT
10
13.4641
20
271.5178
0
VERTEX
8
CUT
10
13.0767
20
273.3667
0
VERTEX
8
CUT
10
12.9540
20
276.5285
0
VERTEX
8
CUT
10
13.1052
20
278.3802
0
VERTEX
8
CUT
10
13.6208
20
279.9372
0
VERTEX
8
CUT
10
14.5721
20
281.8077
0
VERTEX
8
CUT
10
15.3306
20
282.9567
0
VERTEX
8
CUT
10
17.0286
20
284.8333
0
VERTEX
8
CUT
10
19.0299
20
286.2645
0
VERTEX
8
CUT
10
21.8587
20
287.3118
0
VERTEX
8
CUT
10
22.8924
20
287.4018
0
VERTEX
8
CUT
10
23.7974
20
287.1559
0
VERTEX
8
CUT
10
24.7461
20
286.5934
0
VERTEX
8
CUT
10
25.8952
20
285.5678
0
VERTEX
8
CUT
10
26.8733
20
284.1548
0
VERTEX
8
CUT
10
27.3625
20
282.3656
0
VERTEX
8
CUT
10
27.4873
20
281.1451
0
VERTEX
8
CUT
10
27.5556
20
277.2261
0
VERTEX
8
CUT
10
27.7477
20
276.9609
0
VERTEX
8
CUT
10
28.0384
20
276.9245
0
VERTEX
8
CUT
10
30.5843
20
280.1344
0
VERTEX
8
CUT
10
32.5640
20
282.1725
0
VERTEX
8
CUT
10
34.7179
20
284.0266
0
VERTEX
8
CUT
10
36.7504
20
285.4614
0
VERTEX
8
CUT
10
38.5329
20
286.3695
0
VERTEX
8
CUT
10
42.7383
20
287.7524
0
VERTEX
8
CUT
10
42.9393
20
288.0921
0
VERTEX
8
CUT
10
42.7720
20
288.4130
0
VERTEX
8
CUT
10
17.3700
20
288.5325
0
VERTEX
8
CUT
10
12.8966
20
288.3288
0
VERTEX
8
CUT
10
12.1071
20
287.9725
0
VERTEX
8
CUT
10
11.8840
20
286.2799
0
VERTEX
8
CUT
10
11.7356
20
276.7119
0
SEQEND
0
POLYLINE
8
CUT
66
1
70
1
10
0.0
20
0.0
30
0.0
0
VERTEX
8
CUT
10
23.9586
20
13.0611
0
VERTEX
8
CUT
10
23.7664
20
12.6414
0
VERTEX
8
CUT
10
24.1477
20
12.3312
0
VERTEX
8
CUT
10
39.8362
20
12.4422
0
VERTEX
8
CUT
10
40.2163
20
12.8080
0
VERTEX
8
CUT
10
40.0278
20
13.1656
0
VERTEX
8
CUT
10
37.3791
20
14.3577
0
VERTEX
8
CUT
10
34.3458
20
16.3725
0
VERTEX
8
CUT
10
31.5235
20
18.8683
0
VERTEX
8
CUT
10
28.6311
20
22.5150
0
VERTEX
8
CUT
10
28.3321
20
22.6653
0
VERTEX
8
CUT
10
27.9527
20
22.3946
0
VERTEX
8
CUT
10
27.2485
20
18.3441
0
VERTEX
8
CUT
10
26.5714
20
16.3415
0
VERTEX
8
CUT
10
25.2800
20
14.1489
0
SEQEND
0
POLYLINE
8
CUT
66
1
70
1
10
0.0
20
0.0
30
0.0
0
VERTEX
8
CUT
10
19.9627
20
238.6990
0
VERTEX
8
CUT
10
20.0456
20
238.3014
0
VERTEX
8
CUT
10
20.4740
20
238.2063
0
VERTEX
8
CUT
10
21.9190
20
239.7841
0
VERTEX
8
CUT
10
22.7839
20
240.3023
0
VERTEX
8
CUT
10
23.7184
20
240.6195
0
VERTEX
8
CUT
10
25.4085
20
240.6761
0
VERTEX
8
CUT
10
27.5920
20
239.7677
0
VERTEX
8
CUT
10
28.9061
20
238.6625
0
VERTEX
8
CUT
10
29.9854
20
237.3273
0
VERTEX
8
CUT
10
30.4388
20
237.2695
0
VERTEX
8
CUT
10
39.1591
20
248.8272
0
VERTEX
8
CUT
10
39.3116
20
249.4377
0
VERTEX
8
CUT
10
39.0077
20
249.6387
0
VERTEX
8
CUT
10
36.6092
20
249.6406
0
VERTEX
8
CUT
10
30.7079
20
249.3705
0
VERTEX
8
CUT
10
28.8252
20
248.9623
0
VERTEX
8
CUT
10
26.6012
20
247.8925
0
VERTEX
8
CUT
10
24.7246
20
246.5235
0
VERTEX
8
CUT
10
22.4292
20
243.8783
0
VERTEX
8
CUT
10
21.1310
20
241.5813
0
SEQEND
0
POLYLINE
8
CUT
66
1
70
1
10
0.0
20
0.0
30
0.0
0
VERTEX
8
CUT
10
21.0810
20
61.4301
0
VERTEX
8
CUT
10
20.5866
20
61.4937
0
VERTEX
8
CUT
10
20.4219
20
61.0553
0
VERTEX
8
CUT
10
22.1542
20
57.5931
0
VERTEX
8
CUT
10
23.5634
20
55.8023
0
VERTEX
8
CUT
10
25.1805
20
54.2991
0
VERTEX
8
CUT
10
27.0514
20
53.0765
0
VERTEX
8
CUT
10
29.0440
20
52.2264
0
VERTEX
8
CUT
10
31.4520
20
51.7872
0
VERTEX
8
CUT
10
35.8959
20
51.7287
0
VERTEX
8
CUT
10
37.0407
20
51.8182
0
VERTEX
8
CUT
10
37.7058
20
52.1116
0
VERTEX
8
CUT
10
37.7216
20
52.4753
0
VERTEX
8
CUT
10
36.7619
20
53.9218
0
VERTEX
8
CUT
10
29.8715
20
63.1573
0
VERTEX
8
CUT
10
29.4092
20
63.0909
0
VERTEX
8
CUT
10
27.4780
20
60.8102
0
VERTEX
8
CUT
10
26.4666
20
60.2008
0
VERTEX
8
CUT
10
25.3050
20
59.8924
0
VERTEX
8
CUT
10
24.0063
20
59.8884
0
VERTEX
8
CUT
10
22.8740
20
60.1919
0
VERTEX
8
CUT
10
21.7944
20
60.7614
0
SEQEND
0
POLYLINE
8
CUT
66
1
70
1
10
0.0
20
0.0
30
0.0
0
VERTEX
8
CUT
10
20.0415
20
235.9102
0
VERTEX
8
CUT
10
19.8072
20
236.2675
0
VERTEX
8
CUT
10
19.3599
20
236.1678
0
VERTEX
8
CUT
10
19.1217
20
234.9515
0
VERTEX
8
CUT
10
19.0028
20
233.2977
0
VERTEX
8
CUT
10
19.2714
20
230.0644
0
VERTEX
8
CUT
10
19.6552
20
228.4492
0
VERTEX
8
CUT
10
20.3885
20
226.7066
0
VERTEX
8
CUT
10
21.3141
20
225.6248
0
VERTEX
8
CUT
10
22.3155
20
225.3055
0
VERTEX
8
CUT
10
23.0417
20
225.7244
0
VERTEX
8
CUT
10
23.9382
20
226.9925
0
VERTEX
8
CUT
10
26.1747
20
231.1214
0
VERTEX
8
CUT
10
25.8831
20
231.4324
0
VERTEX
8
CUT
10
24.1458
20
231.4751
0
VERTEX
8
CUT
10
23.2507
20
231.6952
0
VERTEX
8
CUT
10
21.7703
20
232.5542
0
VERTEX
8
CUT
10
20.6343
20
233.9351
0
VERTEX
8
CUT
10
20.2621
20
234.7430
0
SEQEND
0
POLYLINE
8
CUT
66
1
70
1
10
0.0
20
0.0
30
0.0
0
VERTEX
8
CUT
10
19.3018
20
64.8942
0
VERTEX
8
CUT
10
19.5849
20
64.5730
0
VERTEX
8
CUT
10
19.9920
20
64.7060
0
VERTEX
8
CUT
10
20.2669
20
65.8971
0
VERTEX
8
CUT
10
20.7821
20
66.9575
0
VERTEX
8
CUT
10
22.2066
20
68.2423
0
VERTEX
8
CUT
10
23.4584
20
68.8405
0
VERTEX
8
CUT
10
24.6475
20
69.0898
0
VERTEX
8
CUT
10
25.4971
20
69.0374
0
VERTEX
8
CUT
10
25.8107
20
69.3272
0
VERTEX
8
CUT
10
24.9843
20
71.2153
0
VERTEX
8
CUT
10
23.2159
20
74.1352
0
VERTEX
8
CUT
10
22.4743
20
75.0245
0
VERTEX
8
CUT
10
21.7190
20
75.2806
0
VERTEX
8
CUT
10
20.9765
20
75.1147
0
VERTEX
8
CUT
10
20.3274
20
74.6028
0
VERTEX
8
CUT
10
19.3160
20
72.4258
0
VERTEX
8
CUT
10
18.9132
20
69.1859
0
SEQEND
0
POLYLINE
8
CUT
66
1
70
1
10
0.0
20
0.0
30
0.0
0
VERTEX
8
CUT
10
12.6126
20
59.0025
0
VERTEX
8
CUT
10
12.2366
20
59.3260
0
VERTEX
8
CUT
10
11.8479
20
59.0178
0
VERTEX
8
CUT
10
11.7654
20
54.5289
0
VERTEX
8
CUT
10
11.7356
20
24.6580
0
VERTEX
8
CUT
10
12.0455
20
13.0191
0
VERTEX
8
CUT
10
12.2564
20
12.6864
0
VERTEX
8
CUT
10
12.7840
20
12.5354
0
VERTEX
8
CUT
10
21.1709
20
12.3522
0
VERTEX
8
CUT
10
21.4695
20
12.6160
0
VERTEX
8
CUT
10
21.3524
20
13.0304
0
VERTEX
8
CUT
10
18.5661
20
14.2846
0
VERTEX
8
CUT
10
16.4554
20
16.0386
0
VERTEX
8
CUT
10
15.5134
20
17.1282
0
VERTEX
8
CUT
10
13.9250
20
19.7192
0
VERTEX
8
CUT
10
13.1045
20
21.9218
0
VERTEX
8
CUT
10
12.9844
20
25.9850
0
VERTEX
8
CUT
10
13.4057
20
28.6061
0
VERTEX
8
CUT
10
14.1577
20
30.1752
0
VERTEX
8
CUT
10
17.0652
20
34.4513
0
VERTEX
8
CUT
10
17.4510
20
35.6803
0
VERTEX
8
CUT
10
17.5103
20
37.4934
0
VERTEX
8
CUT
10
17.2127
20
40.0324
0
VERTEX
8
CUT
10
16.5648
20
43.1539
0
VERTEX
8
CUT
10
13.8233
20
53.5258
0
SEQEND
0
POLYLINE
8
CUT
66
1
70
1
10
0.0
20
0.0
30
0.0
0
VERTEX
8
CUT
10
12.5611
20
227.8822
0
VERTEX
8
CUT
10
12.1616
20
228.1740
0
VERTEX
8
CUT
10
11.7948
20
227.8002
0
VERTEX
8
CUT
10
11.7356
20
214.9520
0
VERTEX
8
CUT
10
11.9386
20
206.5975
0
VERTEX
8
CUT
10
12.1358
20
206.0224
0
VERTEX
8
CUT
10
12.5682
20
205.7797
0
VERTEX
8
CUT
10
12.9746
20
206.0091
0
VERTEX
8
CUT
10
13.3648
20
206.6784
0
VERTEX
8
CUT
10
17.8577
20
217.2979
0
VERTEX
8
CUT
10
17.3524
20
218.2906
0
VERTEX
8
CUT
10
14.5210
20
222.2181
0
VERTEX
8
CUT
10
13.4118
20
225.0067
0
SEQEND
0
POLYLINE
8
CUT
66
1
70
1
10
0.0
20
0.0
30
0.0
0
VERTEX
8
CUT
10
11.7815
20
72.6989
0
VERTEX
8
CUT
10
12.0659
20
72.3380
0
VERTEX
8
CUT
10
12.5154
20
72.5317
0
VERTEX
8
CUT
10
13.6195
20
75.9444
0
VERTEX
8
CUT
10
15.0570
20
78.9731
0
VERTEX
8
CUT
10
17.8354
20
83.1219
0
VERTEX
8
CUT
10
13.5103
20
93.2399
0
VERTEX
8
CUT
10
12.7043
20
94.9092
0
VERTEX
8
CUT
10
12.3747
20
95.0780
0
VERTEX
8
CUT
10
12.0749
20
94.9265
0
VERTEX
8
CUT
10
11.9434
20
94.5446
0
VERTEX
8
CUT
10
11.7656
20
91.0400
0
SEQEND
0
ENDSEC
0
EOF
