0
SECTION
2
HEADER
9
$ACADVER
1
AC1009
9
$INSUNITS
70
4
0
ENDSEC
0
SECTION
2
TABLES
0
TABLE
2
LAYER
70
1
0
LAYER
2
CUT
70
0
62
7
6
CONTINUOUS
0
ENDTAB
0
ENDSEC
0
SECTION
2
ENTITIES
0
POLYLINE
8
CUT
66
1
70
1
10
0.0
20
0.0
30
0.0
0
VERTEX
8
CUT
10
201.1050
20
113.7883
0
VERTEX
8
CUT
10
201.3201
20
113.8728
0
VERTEX
8
CUT
10
201.3584
20
113.8879
0
VERTEX
8
CUT
10
201.4591
20
113.9274
0
VERTEX
8
CUT
10
201.7939
20
114.0590
0
VERTEX
8
CUT
10
202.3904
20
114.1254
0
VERTEX
8
CUT
10
203.7149
20
114.0490
0
VERTEX
8
CUT
10
204.3686
20
113.9524
0
VERTEX
8
CUT
10
205.4415
20
113.4891
0
VERTEX
8
CUT
10
205.5344
20
113.4326
0
VERTEX
8
CUT
10
205.5572
20
113.4187
0
VERTEX
8
CUT
10
205.6457
20
113.3648
0
VERTEX
8
CUT
10
205.9169
20
113.1997
0
VERTEX
8
CUT
10
206.9181
20
112.4052
0
VERTEX
8
CUT
10
206.9255
20
112.3977
0
VERTEX
8
CUT
10
208.0257
20
110.8579
0
VERTEX
8
CUT
10
208.1051
20
110.6074
0
VERTEX
8
CUT
10
208.2092
20
110.2788
0
VERTEX
8
CUT
10
208.3262
20
109.9095
0
VERTEX
8
CUT
10
208.6082
20
109.0199
0
VERTEX
8
CUT
10
208.6670
20
104.3804
0
VERTEX
8
CUT
10
208.6494
20
104.3086
0
VERTEX
8
CUT
10
208.1022
20
102.5153
0
VERTEX
8
CUT
10
207.6078
20
101.5755
0
VERTEX
8
CUT
10
206.8624
20
100.3441
0
VERTEX
8
CUT
10
205.8549
20
99.1273
0
VERTEX
8
CUT
10
204.9005
20
98.3136
0
VERTEX
8
CUT
10
204.7940
20
98.2255
0
VERTEX
8
CUT
10
204.7909
20
98.2229
0
VERTEX
8
CUT
10
204.7793
20
98.2133
0
VERTEX
8
CUT
10
204.7697
20
98.2053
0
VERTEX
8
CUT
10
203.0789
20
97.3526
0
VERTEX
8
CUT
10
202.8653
20
97.3127
0
VERTEX
8
CUT
10
201.8652
20
97.1595
0
VERTEX
8
CUT
10
201.5249
20
97.1653
0
VERTEX
8
CUT
10
200.4288
20
97.3932
0
VERTEX
8
CUT
10
198.9269
20
98.1428
0
VERTEX
8
CUT
10
198.3381
20
98.5959
0
VERTEX
8
CUT
10
197.8333
20
99.0603
0
VERTEX
8
CUT
10
196.7729
20
100.5216
0
VERTEX
8
CUT
10
196.5308
20
100.9809
0
VERTEX
8
CUT
10
196.0105
20
102.5439
0
VERTEX
8
CUT
10
195.6543
20
102.7812
0
VERTEX
8
CUT
10
195.2719
20
102.4766
0
VERTEX
8
CUT
10
195.3834
20
101.2828
0
VERTEX
8
CUT
10
195.1830
20
100.4100
0
VERTEX
8
CUT
10
193.1325
20
99.1951
0
VERTEX
8
CUT
10
192.7511
20
99.3313
0
VERTEX
8
CUT
10
192.4736
20
99.6990
0
VERTEX
8
CUT
10
192.3761
20
100.2872
0
VERTEX
8
CUT
10
192.7192
20
101.3931
0
VERTEX
8
CUT
10
193.7085
20
103.0895
0
VERTEX
8
CUT
10
193.4229
20
105.5005
0
VERTEX
8
CUT
10
193.6733
20
106.4865
0
VERTEX
8
CUT
10
194.5257
20
107.7170
0
VERTEX
8
CUT
10
195.0879
20
108.1119
0
VERTEX
8
CUT
10
195.4414
20
108.1416
0
VERTEX
8
CUT
10
195.6476
20
107.8775
0
VERTEX
8
CUT
10
195.7231
20
106.9640
0
VERTEX
8
CUT
10
196.0048
20
106.7962
0
VERTEX
8
CUT
10
196.3148
20
106.9030
0
VERTEX
8
CUT
10
197.1344
20
108.7172
0
VERTEX
8
CUT
10
197.2128
20
108.8486
0
VERTEX
8
CUT
10
197.3126
20
109.0162
0
VERTEX
8
CUT
10
197.5156
20
109.3570
0
VERTEX
8
CUT
10
198.1093
20
110.3534
0
VERTEX
8
CUT
10
198.9467
20
111.6317
0
VERTEX
8
CUT
10
200.9577
20
113.7151
0
SEQEND
0
POLYLINE
8
CUT
66
1
70
1
10
0.0
20
0.0
30
0.0
0
VERTEX
8
CUT
10
202.4374
20
107.1867
0
VERTEX
8
CUT
10
202.3974
20
107.9377
0
VERTEX
8
CUT
10
202.3703
20
107.9746
0
VERTEX
8
CUT
10
202.3639
20
108.0734
0
VERTEX
8
CUT
10
202.1196
20
108.3522
0
VERTEX
8
CUT
10
202.0950
20
108.3487
0
VERTEX
8
CUT
10
202.0652
20
108.3893
0
VERTEX
8
CUT
10
201.9282
20
108.3251
0
VERTEX
8
CUT
10
201.7526
20
108.3002
0
VERTEX
8
CUT
10
201.6821
20
108.2097
0
VERTEX
8
CUT
10
201.5496
20
108.1477
0
VERTEX
8
CUT
10
201.4313
20
107.8879
0
VERTEX
8
CUT
10
201.3706
20
107.8101
0
VERTEX
8
CUT
10
200.3205
20
105.5671
0
VERTEX
8
CUT
10
199.5465
20
103.0348
0
VERTEX
8
CUT
10
199.4388
20
101.5145
0
VERTEX
8
CUT
10
199.8454
20
101.2736
0
VERTEX
8
CUT
10
199.9181
20
101.3248
0
VERTEX
8
CUT
10
199.9192
20
101.3242
0
VERTEX
8
CUT
10
199.9461
20
101.3444
0
VERTEX
8
CUT
10
200.3353
20
101.6180
0
VERTEX
8
CUT
10
200.3690
20
101.6616
0
VERTEX
8
CUT
10
200.4096
20
101.6921
0
VERTEX
8
CUT
10
200.9409
20
102.3801
0
VERTEX
8
CUT
10
200.9656
20
102.4338
0
VERTEX
8
CUT
10
201.0514
20
102.5415
0
VERTEX
8
CUT
10
201.0556
20
102.5508
0
VERTEX
8
CUT
10
201.2165
20
102.7592
0
VERTEX
8
CUT
10
201.6688
20
103.7162
0
VERTEX
8
CUT
10
201.7163
20
103.9181
0
VERTEX
8
CUT
10
201.7454
20
103.9670
0
VERTEX
8
CUT
10
201.7753
20
104.1691
0
VERTEX
8
CUT
10
201.7859
20
104.2143
0
VERTEX
8
CUT
10
201.7911
20
104.2255
0
VERTEX
8
CUT
10
201.8239
20
104.3761
0
VERTEX
8
CUT
10
202.4352
20
106.9765
0
VERTEX
8
CUT
10
202.4251
20
107.1305
0
SEQEND
0
POLYLINE
8
CUT
66
1
70
1
10
0.0
20
0.0
30
0.0
0
VERTEX
8
CUT
10
148.7790
20
119.5655
0
VERTEX
8
CUT
10
150.4467
20
120.6971
0
VERTEX
8
CUT
10
152.6801
20
121.7096
0
VERTEX
8
CUT
10
155.2225
20
122.3317
0
VERTEX
8
CUT
10
155.9640
20
122.4105
0
VERTEX
8
CUT
10
156.9272
20
122.4422
0
VERTEX
8
CUT
10
157.6820
20
122.4517
0
VERTEX
8
CUT
10
157.9286
20
122.4437
0
VERTEX
8
CUT
10
159.2642
20
122.2518
0
VERTEX
8
CUT
10
160.7378
20
121.9336
0
VERTEX
8
CUT
10
161.0566
20
121.8143
0
VERTEX
8
CUT
10
161.9117
20
121.4548
0
VERTEX
8
CUT
10
162.1396
20
121.3497
0
VERTEX
8
CUT
10
163.1403
20
120.7089
0
VERTEX
8
CUT
10
163.5844
20
120.3193
0
VERTEX
8
CUT
10
163.6165
20
120.2911
0
VERTEX
8
CUT
10
164.4278
20
119.4578
0
VERTEX
8
CUT
10
165.1775
20
118.1447
0
VERTEX
8
CUT
10
165.8092
20
115.9655
0
VERTEX
8
CUT
10
165.8137
20
115.9411
0
VERTEX
8
CUT
10
165.8246
20
115.5511
0
VERTEX
8
CUT
10
165.8106
20
115.3491
0
VERTEX
8
CUT
10
165.7935
20
115.1038
0
VERTEX
8
CUT
10
165.7706
20
114.7751
0
VERTEX
8
CUT
10
165.6454
20
112.9740
0
VERTEX
8
CUT
10
165.4353
20
112.2062
0
VERTEX
8
CUT
10
164.6799
20
110.5194
0
VERTEX
8
CUT
10
163.7652
20
109.1543
0
VERTEX
8
CUT
10
162.7743
20
107.9636
0
VERTEX
8
CUT
10
162.6772
20
107.8727
0
VERTEX
8
CUT
10
161.7296
20
107.0622
0
VERTEX
8
CUT
10
159.4296
20
105.9308
0
VERTEX
8
CUT
10
158.0567
20
105.5958
0
VERTEX
8
CUT
10
157.2697
20
105.4572
0
VERTEX
8
CUT
10
157.1307
20
105.4327
0
VERTEX
8
CUT
10
156.9624
20
105.4031
0
VERTEX
8
CUT
10
156.5435
20
105.3293
0
VERTEX
8
CUT
10
154.4942
20
105.3295
0
VERTEX
8
CUT
10
153.2913
20
105.5811
0
VERTEX
8
CUT
10
151.7828
20
106.0856
0
VERTEX
8
CUT
10
151.6063
20
106.1640
0
VERTEX
8
CUT
10
151.5438
20
106.1918
0
VERTEX
8
CUT
10
151.5046
20
106.2093
0
VERTEX
8
CUT
10
151.4799
20
106.2202
0
VERTEX
8
CUT
10
150.2623
20
106.8463
0
VERTEX
8
CUT
10
148.9261
20
107.7269
0
VERTEX
8
CUT
10
147.7813
20
108.6577
0
VERTEX
8
CUT
10
147.4766
20
108.9377
0
VERTEX
8
CUT
10
146.4510
20
110.0426
0
VERTEX
8
CUT
10
145.5240
20
111.3717
0
VERTEX
8
CUT
10
144.9552
20
112.5689
0
VERTEX
8
CUT
10
144.8674
20
113.0045
0
VERTEX
8
CUT
10
144.8448
20
113.7107
0
VERTEX
8
CUT
10
144.8448
20
113.7123
0
VERTEX
8
CUT
10
144.8556
20
114.0530
0
VERTEX
8
CUT
10
144.8629
20
114.2818
0
VERTEX
8
CUT
10
144.8657
20
114.3721
0
VERTEX
8
CUT
10
145.4121
20
115.8249
0
VERTEX
8
CUT
10
145.9783
20
116.7074
0
VERTEX
8
CUT
10
146.5754
20
117.5405
0
SEQEND
0
POLYLINE
8
CUT
66
1
70
1
10
0.0
20
0.0
30
0.0
0
VERTEX
8
CUT
10
154.4404
20
110.4101
0
VERTEX
8
CUT
10
154.4648
20
110.2441
0
VERTEX
8
CUT
10
154.3852
20
109.8733
0
VERTEX
8
CUT
10
154.4691
20
109.1528
0
VERTEX
8
CUT
10
154.7191
20
108.8758
0
VERTEX
8
CUT
10
154.8958
20
108.8938
0
VERTEX
8
CUT
10
155.0754
20
108.8395
0
VERTEX
8
CUT
10
155.2814
20
109.0272
0
VERTEX
8
CUT
10
155.5836
20
109.2780
0
VERTEX
8
CUT
10
155.7304
20
109.5428
0
VERTEX
8
CUT
10
155.7851
20
109.5957
0
VERTEX
8
CUT
10
155.9143
20
109.8745
0
VERTEX
8
CUT
10
156.5105
20
110.9503
0
VERTEX
8
CUT
10
156.5854
20
111.0792
0
VERTEX
8
CUT
10
156.5917
20
111.0969
0
VERTEX
8
CUT
10
156.7200
20
111.3284
0
VERTEX
8
CUT
10
156.7390
20
111.4232
0
VERTEX
8
CUT
10
156.9255
20
111.7650
0
VERTEX
8
CUT
10
157.5020
20
114.7416
0
VERTEX
8
CUT
10
157.4674
20
115.1090
0
VERTEX
8
CUT
10
157.4071
20
116.0548
0
VERTEX
8
CUT
10
157.3737
20
116.1028
0
VERTEX
8
CUT
10
157.3641
20
116.2041
0
VERTEX
8
CUT
10
157.0437
20
116.5997
0
VERTEX
8
CUT
10
156.5678
20
116.4643
0
VERTEX
8
CUT
10
156.0195
20
115.7057
0
VERTEX
8
CUT
10
155.0010
20
113.1785
0
SEQEND
0
POLYLINE
8
CUT
66
1
70
1
10
0.0
20
0.0
30
0.0
0
VERTEX
8
CUT
10
106.6943
20
159.9707
0
VERTEX
8
CUT
10
119.1168
20
156.5746
0
VERTEX
8
CUT
10
131.6184
20
153.5088
0
VERTEX
8
CUT
10
144.2005
20
150.7128
0
VERTEX
8
CUT
10
162.7490
20
147.0733
0
VERTEX
8
CUT
10
164.5406
20
146.4763
0
VERTEX
8
CUT
10
165.0964
20
146.0988
0
VERTEX
8
CUT
10
165.6722
20
145.1824
0
VERTEX
8
CUT
10
165.7760
20
144.2851
0
VERTEX
8
CUT
10
165.1125
20
143.7293
0
VERTEX
8
CUT
10
164.0774
20
143.6289
0
VERTEX
8
CUT
10
157.4430
20
144.1953
0
VERTEX
8
CUT
10
157.1567
20
144.2225
0
VERTEX
8
CUT
10
146.0376
20
145.9213
0
VERTEX
8
CUT
10
133.0109
20
148.3657
0
VERTEX
8
CUT
10
113.7630
20
152.6565
0
VERTEX
8
CUT
10
100.0653
20
156.3489
0
VERTEX
8
CUT
10
86.9464
20
160.3741
0
VERTEX
8
CUT
10
67.5795
20
167.3762
0
VERTEX
8
CUT
10
55.5202
20
172.3785
0
VERTEX
8
CUT
10
49.9943
20
174.9771
0
VERTEX
8
CUT
10
39.7809
20
180.2177
0
VERTEX
8
CUT
10
35.5305
20
182.6426
0
VERTEX
8
CUT
10
32.1900
20
184.7710
0
VERTEX
8
CUT
10
32.1722
20
184.7828
0
VERTEX
8
CUT
10
29.8997
20
186.4857
0
VERTEX
8
CUT
10
29.2525
20
187.3695
0
VERTEX
8
CUT
10
29.1560
20
187.3010
0
VERTEX
8
CUT
10
29.0525
20
187.2421
0
VERTEX
8
CUT
10
28.9436
20
187.1937
0
VERTEX
8
CUT
10
28.8305
20
187.1563
0
VERTEX
8
CUT
10
28.7142
20
187.1304
0
VERTEX
8
CUT
10
28.6972
20
187.1283
0
VERTEX
8
CUT
10
28.3912
20
187.3446
0
VERTEX
8
CUT
10
24.8229
20
189.9297
0
VERTEX
8
CUT
10
23.9852
20
190.3428
0
VERTEX
8
CUT
10
23.5843
20
189.9618
0
VERTEX
8
CUT
10
23.5701
20
189.9765
0
VERTEX
8
CUT
10
23.4428
20
190.0004
0
VERTEX
8
CUT
10
23.3310
20
190.0269
0
VERTEX
8
CUT
10
23.2223
20
190.0640
0
VERTEX
8
CUT
10
23.1176
20
190.1113
0
VERTEX
8
CUT
10
23.0179
20
190.1684
0
VERTEX
8
CUT
10
21.9397
20
190.8568
0
VERTEX
8
CUT
10
21.8613
20
190.9113
0
VERTEX
8
CUT
10
21.7875
20
190.9720
0
VERTEX
8
CUT
10
19.8093
20
192.7331
0
VERTEX
8
CUT
10
19.7083
20
192.8345
0
VERTEX
8
CUT
10
18.6548
20
194.0258
0
VERTEX
8
CUT
10
18.5723
20
194.1303
0
VERTEX
8
CUT
10
18.5019
20
194.2432
0
VERTEX
8
CUT
10
18.4444
20
194.3633
0
VERTEX
8
CUT
10
18.3068
20
194.6971
0
VERTEX
8
CUT
10
18.2695
20
194.8006
0
VERTEX
8
CUT
10
18.2420
20
194.9071
0
VERTEX
8
CUT
10
18.2242
20
195.0156
0
VERTEX
8
CUT
10
18.2165
20
195.1254
0
VERTEX
8
CUT
10
18.2189
20
195.2353
0
VERTEX
8
CUT
10
18.2313
20
195.3446
0
VERTEX
8
CUT
10
18.2537
20
195.4523
0
VERTEX
8
CUT
10
18.3725
20
195.9162
0
VERTEX
8
CUT
10
18.4079
20
196.0304
0
VERTEX
8
CUT
10
18.4545
20
196.1405
0
VERTEX
8
CUT
10
18.5118
20
196.2454
0
VERTEX
8
CUT
10
18.5792
20
196.3441
0
VERTEX
8
CUT
10
18.6562
20
196.4356
0
VERTEX
8
CUT
10
18.7419
20
196.5190
0
VERTEX
8
CUT
10
18.8354
20
196.5935
0
VERTEX
8
CUT
10
18.9359
20
196.6583
0
VERTEX
8
CUT
10
19.0424
20
196.7127
0
VERTEX
8
CUT
10
19.1537
20
196.7563
0
VERTEX
8
CUT
10
19.2688
20
196.7886
0
VERTEX
8
CUT
10
19.3866
20
196.8093
0
VERTEX
8
CUT
10
19.5058
20
196.8181
0
VERTEX
8
CUT
10
20.0186
20
196.8306
0
VERTEX
8
CUT
10
20.1449
20
196.8270
0
VERTEX
8
CUT
10
20.2701
20
196.8101
0
VERTEX
8
CUT
10
20.3928
20
196.7802
0
VERTEX
8
CUT
10
20.5117
20
196.7376
0
VERTEX
8
CUT
10
20.6255
20
196.6827
0
VERTEX
8
CUT
10
22.2033
20
195.8159
0
VERTEX
8
CUT
10
21.2484
20
196.1401
0
VERTEX
8
CUT
10
20.9072
20
195.8832
0
VERTEX
8
CUT
10
21.0067
20
195.4680
0
VERTEX
8
CUT
10
24.9248
20
192.8183
0
VERTEX
8
CUT
10
27.1671
20
191.5428
0
VERTEX
8
CUT
10
28.3299
20
190.8348
0
VERTEX
8
CUT
10
29.9006
20
189.9878
0
VERTEX
8
CUT
10
30.7921
20
189.4807
0
VERTEX
8
CUT
10
30.7559
20
189.3817
0
VERTEX
8
CUT
10
30.7059
20
189.2772
0
VERTEX
8
CUT
10
30.6901
20
189.2512
0
VERTEX
8
CUT
10
32.5019
20
188.2123
0
VERTEX
8
CUT
10
44.4916
20
182.4111
0
VERTEX
8
CUT
10
45.6069
20
181.9342
0
VERTEX
8
CUT
10
47.7989
20
180.9215
0
VERTEX
8
CUT
10
55.0996
20
177.8749
0
VERTEX
8
CUT
10
58.0630
20
176.6077
0
VERTEX
8
CUT
10
58.9975
20
176.2483
0
VERTEX
8
CUT
10
59.1372
20
176.1900
0
VERTEX
8
CUT
10
60.6243
20
175.6226
0
VERTEX
8
CUT
10
70.0602
20
171.9935
0
VERTEX
8
CUT
10
72.2636
20
171.2086
0
VERTEX
8
CUT
10
75.0751
20
170.1606
0
VERTEX
8
CUT
10
75.3065
20
170.1245
0
VERTEX
8
CUT
10
82.1659
20
167.6807
0
VERTEX
8
CUT
10
94.3797
20
163.6889
0
VERTEX
8
CUT
10
96.6074
20
163.0162
0
VERTEX
8
CUT
10
98.8986
20
162.2691
0
VERTEX
8
CUT
10
100.0199
20
161.9859
0
SEQEND
0
POLYLINE
8
CUT
66
1
70
1
10
0.0
20
0.0
30
0.0
0
VERTEX
8
CUT
10
100.0302
20
185.3183
0
VERTEX
8
CUT
10
100.0696
20
185.3002
0
VERTEX
8
CUT
10
103.0264
20
183.3545
0
VERTEX
8
CUT
10
112.6195
20
177.4555
0
VERTEX
8
CUT
10
122.3833
20
171.7701
0
VERTEX
8
CUT
10
127.4868
20
169.0519
0
VERTEX
8
CUT
10
127.7431
20
168.9057
0
VERTEX
8
CUT
10
128.0824
20
168.6419
0
VERTEX
8
CUT
10
131.2688
20
166.8849
0
VERTEX
8
CUT
10
133.7969
20
165.6911
0
VERTEX
8
CUT
10
138.8047
20
163.0239
0
VERTEX
8
CUT
10
140.9748
20
161.9929
0
VERTEX
8
CUT
10
141.3044
20
161.8224
0
VERTEX
8
CUT
10
141.3693
20
161.8055
0
VERTEX
8
CUT
10
147.7670
20
158.7661
0
VERTEX
8
CUT
10
148.7460
20
158.3496
0
VERTEX
8
CUT
10
149.3746
20
158.0404
0
VERTEX
8
CUT
10
154.1213
20
156.0627
0
VERTEX
8
CUT
10
162.7451
20
152.3936
0
VERTEX
8
CUT
10
165.4969
20
151.1070
0
VERTEX
8
CUT
10
166.2221
20
150.5948
0
VERTEX
8
CUT
10
165.7690
20
149.9074
0
VERTEX
8
CUT
10
163.6323
20
148.8143
0
VERTEX
8
CUT
10
162.6489
20
148.6296
0
VERTEX
8
CUT
10
152.4373
20
151.7955
0
VERTEX
8
CUT
10
146.5041
20
154.0314
0
VERTEX
8
CUT
10
133.9163
20
159.4601
0
VERTEX
8
CUT
10
121.0813
20
165.7734
0
VERTEX
8
CUT
10
114.8514
20
169.1713
0
VERTEX
8
CUT
10
102.0299
20
176.8939
0
VERTEX
8
CUT
10
92.8234
20
182.8826
0
VERTEX
8
CUT
10
86.2968
20
187.4722
0
VERTEX
8
CUT
10
78.8207
20
193.0122
0
VERTEX
8
CUT
10
72.4407
20
198.2292
0
VERTEX
8
CUT
10
66.2022
20
203.9005
0
VERTEX
8
CUT
10
58.7877
20
211.3148
0
VERTEX
8
CUT
10
57.8686
20
212.7786
0
VERTEX
8
CUT
10
57.9051
20
213.4168
0
VERTEX
8
CUT
10
58.2712
20
214.2105
0
VERTEX
8
CUT
10
58.9199
20
215.0210
0
VERTEX
8
CUT
10
59.6766
20
215.6849
0
VERTEX
8
CUT
10
59.9240
20
215.6827
0
VERTEX
8
CUT
10
62.2797
20
213.8934
0
VERTEX
8
CUT
10
69.7069
20
207.3619
0
VERTEX
8
CUT
10
76.9843
20
201.5103
0
VERTEX
8
CUT
10
81.0808
20
198.4678
0
VERTEX
8
CUT
10
81.7754
20
197.8852
0
VERTEX
8
CUT
10
82.4435
20
197.4558
0
VERTEX
8
CUT
10
85.0795
20
195.4980
0
VERTEX
8
CUT
10
93.8090
20
189.4201
0
VERTEX
8
CUT
10
99.9637
20
185.3699
0
SEQEND
0
POLYLINE
8
CUT
66
1
70
1
10
0.0
20
0.0
30
0.0
0
VERTEX
8
CUT
10
132.6741
20
209.1246
0
VERTEX
8
CUT
10
132.7813
20
208.9167
0
VERTEX
8
CUT
10
133.7157
20
206.8321
0
VERTEX
8
CUT
10
135.4463
20
203.5492
0
VERTEX
8
CUT
10
137.3490
20
200.2201
0
VERTEX
8
CUT
10
141.6826
20
193.4525
0
VERTEX
8
CUT
10
146.7392
20
186.4917
0
VERTEX
8
CUT
10
148.6905
20
184.0676
0
VERTEX
8
CUT
10
148.7997
20
183.9236
0
VERTEX
8
CUT
10
149.0788
20
183.5851
0
VERTEX
8
CUT
10
152.5082
20
179.3246
0
VERTEX
8
CUT
10
156.4695
20
174.9165
0
VERTEX
8
CUT
10
160.3489
20
170.9362
0
VERTEX
8
CUT
10
162.7488
20
168.4290
0
VERTEX
8
CUT
10
163.5647
20
167.6323
0
VERTEX
8
CUT
10
164.2347
20
166.9431
0
VERTEX
8
CUT
10
164.3142
20
166.8678
0
VERTEX
8
CUT
10
164.4737
20
166.7041
0
VERTEX
8
CUT
10
165.5240
20
165.7189
0
VERTEX
8
CUT
10
167.8360
20
163.4610
0
VERTEX
8
CUT
10
169.0978
20
162.3326
0
VERTEX
8
CUT
10
174.4653
20
157.2438
0
VERTEX
8
CUT
10
175.1932
20
156.3935
0
VERTEX
8
CUT
10
174.9493
20
156.0617
0
VERTEX
8
CUT
10
174.1438
20
155.9260
0
VERTEX
8
CUT
10
171.0488
20
155.9945
0
VERTEX
8
CUT
10
170.1288
20
156.3502
0
VERTEX
8
CUT
10
168.3137
20
157.6002
0
VERTEX
8
CUT
10
163.3561
20
161.6313
0
VERTEX
8
CUT
10
157.8681
20
166.6715
0
VERTEX
8
CUT
10
152.5028
20
172.0663
0
VERTEX
8
CUT
10
148.1401
20
176.9564
0
VERTEX
8
CUT
10
147.4116
20
177.8332
0
VERTEX
8
CUT
10
147.3408
20
177.9185
0
VERTEX
8
CUT
10
147.3248
20
177.9377
0
VERTEX
8
CUT
10
147.3232
20
177.9397
0
VERTEX
8
CUT
10
144.6859
20
181.2546
0
VERTEX
8
CUT
10
139.2540
20
188.8702
0
VERTEX
8
CUT
10
139.2125
20
188.9347
0
VERTEX
8
CUT
10
139.1764
20
188.9907
0
VERTEX
8
CUT
10
139.1449
20
189.0396
0
VERTEX
8
CUT
10
139.1338
20
189.0569
0
VERTEX
8
CUT
10
134.7220
20
196.4968
0
VERTEX
8
CUT
10
131.2181
20
204.0741
0
VERTEX
8
CUT
10
129.2240
20
209.8483
0
VERTEX
8
CUT
10
128.3536
20
213.3036
0
VERTEX
8
CUT
10
128.2083
20
213.9675
0
VERTEX
8
CUT
10
127.6353
20
218.2914
0
VERTEX
8
CUT
10
127.7025
20
219.1752
0
VERTEX
8
CUT
10
128.0555
20
219.5599
0
VERTEX
8
CUT
10
128.4049
20
219.5477
0
VERTEX
8
CUT
10
128.6909
20
219.2618
0
VERTEX
8
CUT
10
129.2946
20
217.2471
0
VERTEX
8
CUT
10
130.6177
20
213.9492
0
VERTEX
8
CUT
10
130.7448
20
213.5799
0
VERTEX
8
CUT
10
131.0308
20
212.9196
0
VERTEX
8
CUT
10
131.4036
20
211.9903
0
VERTEX
8
CUT
10
132.2760
20
210.0441
0
SEQEND
0
POLYLINE
8
CUT
66
1
70
1
10
0.0
20
0.0
30
0.0
0
VERTEX
8
CUT
10
106.8652
20
208.0812
0
VERTEX
8
CUT
10
113.2338
20
200.8203
0
VERTEX
8
CUT
10
120.0363
20
193.6613
0
VERTEX
8
CUT
10
127.2373
20
186.6979
0
VERTEX
8
CUT
10
134.7470
20
179.9631
0
VERTEX
8
CUT
10
142.4421
20
173.6049
0
VERTEX
8
CUT
10
143.9469
20
172.4505
0
VERTEX
8
CUT
10
143.9992
20
172.4069
0
VERTEX
8
CUT
10
147.5593
20
169.6790
0
VERTEX
8
CUT
10
150.2365
20
167.6250
0
VERTEX
8
CUT
10
158.1049
20
162.1112
0
VERTEX
8
CUT
10
158.8482
20
161.6433
0
VERTEX
8
CUT
10
159.1125
20
161.4353
0
VERTEX
8
CUT
10
164.8897
20
157.8320
0
VERTEX
8
CUT
10
164.9465
20
157.8048
0
VERTEX
8
CUT
10
169.0296
20
155.2348
0
VERTEX
8
CUT
10
170.4922
20
154.1521
0
VERTEX
8
CUT
10
170.5309
20
153.7573
0
VERTEX
8
CUT
10
170.0935
20
153.1239
0
VERTEX
8
CUT
10
168.8592
20
152.1677
0
VERTEX
8
CUT
10
168.0153
20
151.8753
0
VERTEX
8
CUT
10
163.1508
20
153.9555
0
VERTEX
8
CUT
10
155.4094
20
158.1835
0
VERTEX
8
CUT
10
146.8116
20
163.5869
0
VERTEX
8
CUT
10
138.0577
20
169.7205
0
VERTEX
8
CUT
10
133.8166
20
172.9163
0
VERTEX
8
CUT
10
130.9179
20
175.2184
0
VERTEX
8
CUT
10
129.0683
20
176.7409
0
VERTEX
8
CUT
10
121.4143
20
183.4112
0
VERTEX
8
CUT
10
113.4837
20
191.1337
0
VERTEX
8
CUT
10
106.1886
20
199.1434
0
VERTEX
8
CUT
10
102.8107
20
203.1791
0
VERTEX
8
CUT
10
97.7775
20
209.7908
0
VERTEX
8
CUT
10
93.9572
20
215.2825
0
VERTEX
8
CUT
10
89.5188
20
222.3125
0
VERTEX
8
CUT
10
88.7304
20
223.7696
0
VERTEX
8
CUT
10
88.5131
20
224.8121
0
VERTEX
8
CUT
10
89.0705
20
225.2636
0
VERTEX
8
CUT
10
91.5126
20
226.4843
0
VERTEX
8
CUT
10
92.4479
20
226.7415
0
VERTEX
8
CUT
10
92.7410
20
226.6144
0
VERTEX
8
CUT
10
100.8841
20
215.6092
0
SEQEND
0
POLYLINE
8
CUT
66
1
70
1
10
0.0
20
0.0
30
0.0
0
VERTEX
8
CUT
10
222.3651
20
132.4967
0
VERTEX
8
CUT
10
219.3736
20
133.8248
0
VERTEX
8
CUT
10
218.9542
20
134.3162
0
VERTEX
8
CUT
10
218.9138
20
134.8286
0
VERTEX
8
CUT
10
219.1986
20
135.3373
0
VERTEX
8
CUT
10
220.0475
20
136.0608
0
VERTEX
8
CUT
10
221.0533
20
136.3539
0
VERTEX
8
CUT
10
221.5128
20
136.2425
0
VERTEX
8
CUT
10
221.5348
20
136.2284
0
VERTEX
8
CUT
10
222.0065
20
136.1227
0
VERTEX
8
CUT
10
256.0287
20
127.8706
0
VERTEX
8
CUT
10
269.5666
20
124.9773
0
VERTEX
8
CUT
10
271.3433
20
124.3069
0
VERTEX
8
CUT
10
271.3274
20
123.8919
0
VERTEX
8
CUT
10
270.8081
20
123.6804
0
VERTEX
8
CUT
10
266.6725
20
123.7872
0
VERTEX
8
CUT
10
265.8233
20
123.8577
0
VERTEX
8
CUT
10
257.2704
20
124.7771
0
VERTEX
8
CUT
10
251.9226
20
125.5839
0
VERTEX
8
CUT
10
240.6094
20
127.7870
0
VERTEX
8
CUT
10
229.3427
20
130.4991
0
SEQEND
0
POLYLINE
8
CUT
66
1
70
1
10
0.0
20
0.0
30
0.0
0
VERTEX
8
CUT
10
198.6573
20
130.3087
0
VERTEX
8
CUT
10
198.7939
20
130.4861
0
VERTEX
8
CUT
10
198.9125
20
130.4890
0
VERTEX
8
CUT
10
199.4444
20
130.9510
0
VERTEX
8
CUT
10
199.8480
20
131.6902
0
VERTEX
8
CUT
10
199.8801
20
131.8954
0
VERTEX
8
CUT
10
199.9749
20
132.0183
0
VERTEX
8
CUT
10
200.0678
20
133.0946
0
VERTEX
8
CUT
10
200.1584
20
133.6736
0
VERTEX
8
CUT
10
200.2911
20
134.2752
0
VERTEX
8
CUT
10
200.3780
20
134.6692
0
VERTEX
8
CUT
10
200.4133
20
134.8295
0
VERTEX
8
CUT
10
200.4830
20
135.1454
0
VERTEX
8
CUT
10
200.7988
20
135.7740
0
VERTEX
8
CUT
10
200.9940
20
135.9910
0
VERTEX
8
CUT
10
201.6673
20
136.7393
0
VERTEX
8
CUT
10
202.0262
20
137.0957
0
VERTEX
8
CUT
10
202.2478
20
137.2276
0
VERTEX
8
CUT
10
202.8256
20
137.2152
0
VERTEX
8
CUT
10
202.8693
20
137.2142
0
VERTEX
8
CUT
10
202.8725
20
137.2142
0
VERTEX
8
CUT
10
202.8735
20
137.2141
0
VERTEX
8
CUT
10
204.1904
20
136.6642
0
VERTEX
8
CUT
10
205.0740
20
136.5441
0
VERTEX
8
CUT
10
205.6735
20
135.9775
0
VERTEX
8
CUT
10
205.6876
20
135.9469
0
VERTEX
8
CUT
10
205.7158
20
135.8861
0
VERTEX
8
CUT
10
205.7990
20
135.7064
0
VERTEX
8
CUT
10
206.2865
20
134.6530
0
VERTEX
8
CUT
10
206.2954
20
134.6339
0
VERTEX
8
CUT
10
206.2989
20
134.6264
0
VERTEX
8
CUT
10
206.2990
20
134.6262
0
VERTEX
8
CUT
10
206.7557
20
132.0016
0
VERTEX
8
CUT
10
206.8748
20
130.9412
0
VERTEX
8
CUT
10
206.9517
20
130.6915
0
VERTEX
8
CUT
10
206.9382
20
130.4349
0
VERTEX
8
CUT
10
207.3551
20
129.4224
0
VERTEX
8
CUT
10
207.4818
20
129.3508
0
VERTEX
8
CUT
10
207.7769
20
128.9517
0
VERTEX
8
CUT
10
208.4932
20
128.6117
0
VERTEX
8
CUT
10
208.5434
20
128.5687
0
VERTEX
8
CUT
10
208.6359
20
128.4896
0
VERTEX
8
CUT
10
209.1244
20
128.0716
0
VERTEX
8
CUT
10
209.2626
20
127.9533
0
VERTEX
8
CUT
10
209.3105
20
127.8624
0
VERTEX
8
CUT
10
209.3698
20
127.7114
0
VERTEX
8
CUT
10
209.7110
20
126.8429
0
VERTEX
8
CUT
10
209.5751
20
125.8326
0
VERTEX
8
CUT
10
208.6929
20
124.3883
0
VERTEX
8
CUT
10
207.8192
20
123.6183
0
VERTEX
8
CUT
10
207.1105
20
123.2609
0
VERTEX
8
CUT
10
206.7679
20
123.1570
0
VERTEX
8
CUT
10
206.0238
20
123.0686
0
VERTEX
8
CUT
10
205.6637
20
123.0874
0
VERTEX
8
CUT
10
203.7541
20
123.4659
0
VERTEX
8
CUT
10
202.9949
20
123.6474
0
VERTEX
8
CUT
10
197.8841
20
124.2121
0
VERTEX
8
CUT
10
196.4774
20
124.6402
0
VERTEX
8
CUT
10
196.2034
20
124.7293
0
VERTEX
8
CUT
10
195.8982
20
124.9271
0
VERTEX
8
CUT
10
194.7015
20
125.8124
0
VERTEX
8
CUT
10
194.1268
20
126.3785
0
VERTEX
8
CUT
10
193.2526
20
127.3617
0
VERTEX
8
CUT
10
193.2223
20
127.4103
0
VERTEX
8
CUT
10
193.1656
20
127.5010
0
VERTEX
8
CUT
10
193.0253
20
127.7255
0
VERTEX
8
CUT
10
192.8132
20
128.0649
0
VERTEX
8
CUT
10
192.3379
20
129.0277
0
VERTEX
8
CUT
10
192.2069
20
129.6513
0
VERTEX
8
CUT
10
192.2335
20
129.9506
0
VERTEX
8
CUT
10
192.3772
20
130.2005
0
VERTEX
8
CUT
10
193.4242
20
131.2037
0
VERTEX
8
CUT
10
194.0157
20
131.4346
0
VERTEX
8
CUT
10
194.3727
20
131.5705
0
VERTEX
8
CUT
10
194.6335
20
131.5974
0
VERTEX
8
CUT
10
194.8548
20
131.6203
0
VERTEX
8
CUT
10
195.1270
20
131.6014
0
VERTEX
8
CUT
10
195.5191
20
131.5302
0
VERTEX
8
CUT
10
195.8220
20
131.4178
0
VERTEX
8
CUT
10
197.7670
20
130.4604
0
VERTEX
8
CUT
10
197.9135
20
130.4640
0
VERTEX
8
CUT
10
198.3166
20
130.2773
0
SEQEND
0
POLYLINE
8
CUT
66
1
70
1
10
0.0
20
0.0
30
0.0
0
VERTEX
8
CUT
10
276.1466
20
140.5665
0
VERTEX
8
CUT
10
275.0043
20
140.3067
0
VERTEX
8
CUT
10
274.9245
20
140.2886
0
VERTEX
8
CUT
10
274.9089
20
140.2850
0
VERTEX
8
CUT
10
274.4894
20
140.1896
0
VERTEX
8
CUT
10
270.9187
20
139.4615
0
VERTEX
8
CUT
10
260.6640
20
137.7919
0
VERTEX
8
CUT
10
255.2971
20
137.1656
0
VERTEX
8
CUT
10
249.9165
20
136.6874
0
VERTEX
8
CUT
10
244.0069
20
136.5100
0
VERTEX
8
CUT
10
242.7937
20
136.4806
0
VERTEX
8
CUT
10
232.5051
20
136.5782
0
VERTEX
8
CUT
10
229.2297
20
136.7496
0
VERTEX
8
CUT
10
221.8687
20
137.7055
0
VERTEX
8
CUT
10
220.6553
20
138.0537
0
VERTEX
8
CUT
10
220.3570
20
138.5654
0
VERTEX
8
CUT
10
220.2801
20
139.3397
0
VERTEX
8
CUT
10
220.5226
20
141.2047
0
VERTEX
8
CUT
10
220.7362
20
141.3652
0
VERTEX
8
CUT
10
238.4165
20
141.3652
0
VERTEX
8
CUT
10
239.8043
20
141.3355
0
VERTEX
8
CUT
10
240.7259
20
141.3652
0
VERTEX
8
CUT
10
246.6027
20
141.3652
0
VERTEX
8
CUT
10
259.6274
20
141.8706
0
VERTEX
8
CUT
10
271.1767
20
143.0910
0
VERTEX
8
CUT
10
279.8346
20
144.4299
0
VERTEX
8
CUT
10
288.3800
20
146.0080
0
VERTEX
8
CUT
10
289.2942
20
145.9367
0
VERTEX
8
CUT
10
289.5746
20
145.5631
0
VERTEX
8
CUT
10
289.4690
20
145.2505
0
VERTEX
8
CUT
10
288.9543
20
144.8393
0
VERTEX
8
CUT
10
283.3768
20
142.5610
0
SEQEND
0
POLYLINE
8
CUT
66
1
70
1
10
0.0
20
0.0
30
0.0
0
VERTEX
8
CUT
10
251.9128
20
150.8734
0
VERTEX
8
CUT
10
242.7392
20
147.8056
0
VERTEX
8
CUT
10
234.2909
20
145.5528
0
VERTEX
8
CUT
10
233.1478
20
145.3063
0
VERTEX
8
CUT
10
225.7363
20
144.0131
0
VERTEX
8
CUT
10
223.3747
20
143.9534
0
VERTEX
8
CUT
10
222.6065
20
144.1956
0
VERTEX
8
CUT
10
222.0980
20
144.9131
0
VERTEX
8
CUT
10
221.7991
20
145.7680
0
VERTEX
8
CUT
10
221.7089
20
146.5059
0
VERTEX
8
CUT
10
221.9014
20
146.9124
0
VERTEX
8
CUT
10
223.0354
20
147.6900
0
VERTEX
8
CUT
10
224.4736
20
148.0512
0
VERTEX
8
CUT
10
227.3511
20
148.6265
0
VERTEX
8
CUT
10
239.1049
20
151.7212
0
VERTEX
8
CUT
10
246.8749
20
153.9542
0
VERTEX
8
CUT
10
253.9514
20
156.3927
0
VERTEX
8
CUT
10
262.7144
20
159.9276
0
VERTEX
8
CUT
10
267.1557
20
161.9543
0
VERTEX
8
CUT
10
269.9420
20
163.3381
0
VERTEX
8
CUT
10
270.1039
20
163.4139
0
VERTEX
8
CUT
10
270.3200
20
163.5258
0
VERTEX
8
CUT
10
275.9617
20
166.3278
0
VERTEX
8
CUT
10
287.8312
20
172.9917
0
VERTEX
8
CUT
10
288.8472
20
173.3480
0
VERTEX
8
CUT
10
289.4707
20
173.1908
0
VERTEX
8
CUT
10
289.2785
20
172.4550
0
VERTEX
8
CUT
10
286.8607
20
170.1268
0
VERTEX
8
CUT
10
279.3548
20
164.7125
0
VERTEX
8
CUT
10
273.1022
20
160.7525
0
VERTEX
8
CUT
10
269.4031
20
158.6640
0
VERTEX
8
CUT
10
261.0206
20
154.5764
0
SEQEND
0
POLYLINE
8
CUT
66
1
70
1
10
0.0
20
0.0
30
0.0
0
VERTEX
8
CUT
10
251.8293
20
168.6283
0
VERTEX
8
CUT
10
249.3572
20
166.5522
0
VERTEX
8
CUT
10
246.0470
20
163.8813
0
VERTEX
8
CUT
10
245.6884
20
163.6788
0
VERTEX
8
CUT
10
244.6812
20
163.5891
0
VERTEX
8
CUT
10
243.9872
20
162.5716
0
VERTEX
8
CUT
10
242.6233
20
161.5774
0
VERTEX
8
CUT
10
241.9389
20
161.4355
0
VERTEX
8
CUT
10
241.1128
20
161.7384
0
VERTEX
8
CUT
10
240.8199
20
161.6694
0
VERTEX
8
CUT
10
240.6597
20
161.3353
0
VERTEX
8
CUT
10
240.8320
20
160.6187
0
VERTEX
8
CUT
10
239.7482
20
159.4941
0
VERTEX
8
CUT
10
236.0404
20
156.8608
0
VERTEX
8
CUT
10
231.1848
20
153.9822
0
VERTEX
8
CUT
10
228.5517
20
152.7986
0
VERTEX
8
CUT
10
226.1712
20
151.4460
0
VERTEX
8
CUT
10
223.7629
20
151.0887
0
VERTEX
8
CUT
10
221.2142
20
149.3857
0
VERTEX
8
CUT
10
220.2756
20
149.3361
0
VERTEX
8
CUT
10
219.4014
20
150.2744
0
VERTEX
8
CUT
10
218.9980
20
151.5792
0
VERTEX
8
CUT
10
219.0535
20
151.9778
0
VERTEX
8
CUT
10
219.4613
20
152.5318
0
VERTEX
8
CUT
10
220.3980
20
153.0677
0
VERTEX
8
CUT
10
222.4868
20
153.7493
0
VERTEX
8
CUT
10
225.6262
20
155.8707
0
VERTEX
8
CUT
10
230.8136
20
158.7033
0
VERTEX
8
CUT
10
237.6732
20
162.9500
0
VERTEX
8
CUT
10
239.7117
20
163.9224
0
VERTEX
8
CUT
10
241.1590
20
165.2444
0
VERTEX
8
CUT
10
243.0539
20
166.3008
0
VERTEX
8
CUT
10
244.7550
20
167.7701
0
VERTEX
8
CUT
10
246.7077
20
168.7468
0
VERTEX
8
CUT
10
248.5119
20
170.7569
0
VERTEX
8
CUT
10
258.8380
20
179.2931
0
VERTEX
8
CUT
10
259.9230
20
179.2631
0
VERTEX
8
CUT
10
260.6143
20
178.7508
0
VERTEX
8
CUT
10
260.6773
20
178.3932
0
VERTEX
8
CUT
10
260.1718
20
177.4186
0
VERTEX
8
CUT
10
258.2663
20
174.9475
0
VERTEX
8
CUT
10
256.9568
20
173.5360
0
VERTEX
8
CUT
10
256.4133
20
173.0117
0
VERTEX
8
CUT
10
255.9365
20
172.5517
0
VERTEX
8
CUT
10
255.6860
20
172.3101
0
VERTEX
8
CUT
10
254.6437
20
171.3045
0
SEQEND
0
ENDSEC
0
EOF
