0
SECTION
2
HEADER
9
$ACADVER
1
AC1009
9
$INSUNITS
70
4
0
ENDSEC
0
SECTION
2
TABLES
0
TABLE
2
LAYER
70
1
0
LAYER
2
CUT
70
0
62
7
6
CONTINUOUS
0
ENDTAB
0
ENDSEC
0
SECTION
2
ENTITIES
0
POLYLINE
8
CUT
66
1
70
1
10
0.0
20
0.0
30
0.0
0
VERTEX
8
CUT
10
20.9674
20
34.1910
0
VERTEX
8
CUT
10
22.5007
20
33.9440
0
VERTEX
8
CUT
10
23.9963
20
33.3783
0
VERTEX
8
CUT
10
24.8372
20
32.7429
0
VERTEX
8
CUT
10
25.6297
20
31.9668
0
VERTEX
8
CUT
10
26.3668
20
30.8086
0
VERTEX
8
CUT
10
26.6475
20
29.7420
0
VERTEX
8
CUT
10
26.6850
20
26.0568
0
VERTEX
8
CUT
10
26.5220
20
25.3251
0
VERTEX
8
CUT
10
26.2752
20
24.7826
0
VERTEX
8
CUT
10
26.1731
20
24.5859
0
VERTEX
8
CUT
10
25.7478
20
24.0125
0
VERTEX
8
CUT
10
24.5589
20
22.9075
0
VERTEX
8
CUT
10
24.1147
20
22.6221
0
VERTEX
8
CUT
10
22.5393
20
21.9466
0
VERTEX
8
CUT
10
22.5392
20
21.9466
0
VERTEX
8
CUT
10
22.5387
20
21.9465
0
VERTEX
8
CUT
10
22.5054
20
21.9396
0
VERTEX
8
CUT
10
21.1999
20
21.6676
0
VERTEX
8
CUT
10
19.1065
20
21.7755
0
VERTEX
8
CUT
10
17.2758
20
22.5962
0
VERTEX
8
CUT
10
16.6281
20
23.0960
0
VERTEX
8
CUT
10
15.7094
20
24.0472
0
VERTEX
8
CUT
10
15.1178
20
24.9501
0
VERTEX
8
CUT
10
14.9998
20
25.1717
0
VERTEX
8
CUT
10
14.9137
20
25.4434
0
VERTEX
8
CUT
10
14.8245
20
25.7247
0
VERTEX
8
CUT
10
14.7698
20
25.8972
0
VERTEX
8
CUT
10
14.4138
20
27.0201
0
VERTEX
8
CUT
10
14.3356
20
27.6750
0
VERTEX
8
CUT
10
14.3134
20
28.0316
0
VERTEX
8
CUT
10
14.4427
20
29.1477
0
VERTEX
8
CUT
10
15.0833
20
30.9402
0
VERTEX
8
CUT
10
16.5139
20
32.6153
0
VERTEX
8
CUT
10
17.6907
20
33.5482
0
VERTEX
8
CUT
10
19.4530
20
34.1856
0
SEQEND
0
POLYLINE
8
CUT
66
1
70
1
10
0.0
20
0.0
30
0.0
0
VERTEX
8
CUT
10
298.5481
20
35.5402
0
VERTEX
8
CUT
10
299.3457
20
33.9352
0
VERTEX
8
CUT
10
299.3656
20
33.8869
0
VERTEX
8
CUT
10
299.6850
20
32.0806
0
VERTEX
8
CUT
10
299.6848
20
30.2982
0
VERTEX
8
CUT
10
299.4333
20
28.9855
0
VERTEX
8
CUT
10
299.4081
20
28.8880
0
VERTEX
8
CUT
10
299.3980
20
28.8489
0
VERTEX
8
CUT
10
299.3002
20
28.4702
0
VERTEX
8
CUT
10
299.2965
20
28.4560
0
VERTEX
8
CUT
10
298.7202
20
27.0466
0
VERTEX
8
CUT
10
297.8252
20
25.6514
0
VERTEX
8
CUT
10
296.6451
20
24.4705
0
VERTEX
8
CUT
10
295.4266
20
23.6275
0
VERTEX
8
CUT
10
294.9998
20
23.4021
0
VERTEX
8
CUT
10
293.8445
20
22.9251
0
VERTEX
8
CUT
10
291.9520
20
22.4726
0
VERTEX
8
CUT
10
291.0564
20
22.4335
0
VERTEX
8
CUT
10
290.3014
20
22.4705
0
VERTEX
8
CUT
10
287.2049
20
23.4332
0
VERTEX
8
CUT
10
285.7863
20
24.4229
0
VERTEX
8
CUT
10
285.1432
20
25.0995
0
VERTEX
8
CUT
10
284.0866
20
26.6495
0
VERTEX
8
CUT
10
283.2625
20
28.3370
0
VERTEX
8
CUT
10
282.7468
20
29.8921
0
VERTEX
8
CUT
10
282.7313
20
30.0454
0
VERTEX
8
CUT
10
282.6952
20
31.5131
0
VERTEX
8
CUT
10
283.1722
20
34.1134
0
VERTEX
8
CUT
10
283.9470
20
35.7990
0
VERTEX
8
CUT
10
285.0801
20
37.2532
0
VERTEX
8
CUT
10
286.4174
20
38.3768
0
VERTEX
8
CUT
10
288.0282
20
39.2003
0
VERTEX
8
CUT
10
289.3604
20
39.5539
0
VERTEX
8
CUT
10
290.9257
20
39.7287
0
VERTEX
8
CUT
10
291.4190
20
39.7560
0
VERTEX
8
CUT
10
293.8926
20
39.3520
0
VERTEX
8
CUT
10
294.2476
20
39.2237
0
VERTEX
8
CUT
10
294.5299
20
39.1126
0
VERTEX
8
CUT
10
296.2723
20
37.9706
0
VERTEX
8
CUT
10
297.8658
20
36.4086
0
SEQEND
0
POLYLINE
8
CUT
66
1
70
1
10
0.0
20
0.0
30
0.0
0
VERTEX
8
CUT
10
59.3262
20
107.4036
0
VERTEX
8
CUT
10
58.0756
20
108.0135
0
VERTEX
8
CUT
10
56.8573
20
109.1906
0
VERTEX
8
CUT
10
55.8362
20
111.2794
0
VERTEX
8
CUT
10
55.5748
20
112.5070
0
VERTEX
8
CUT
10
55.5051
20
114.8483
0
VERTEX
8
CUT
10
55.5053
20
114.8496
0
VERTEX
8
CUT
10
56.1798
20
117.0841
0
VERTEX
8
CUT
10
57.4124
20
118.7640
0
VERTEX
8
CUT
10
61.3768
20
122.7654
0
VERTEX
8
CUT
10
62.7572
20
124.8163
0
VERTEX
8
CUT
10
63.5226
20
126.8769
0
VERTEX
8
CUT
10
63.6298
20
128.8702
0
VERTEX
8
CUT
10
63.1129
20
130.9029
0
VERTEX
8
CUT
10
61.9301
20
132.8293
0
VERTEX
8
CUT
10
60.1080
20
134.7897
0
VERTEX
8
CUT
10
55.4834
20
138.4062
0
VERTEX
8
CUT
10
53.9501
20
140.2529
0
VERTEX
8
CUT
10
53.3874
20
141.3000
0
VERTEX
8
CUT
10
52.7517
20
143.3586
0
VERTEX
8
CUT
10
52.8242
20
145.9801
0
VERTEX
8
CUT
10
53.3114
20
147.3844
0
VERTEX
8
CUT
10
54.0517
20
148.5442
0
VERTEX
8
CUT
10
55.0010
20
149.4961
0
VERTEX
8
CUT
10
56.2152
20
150.2754
0
VERTEX
8
CUT
10
57.6152
20
150.7855
0
VERTEX
8
CUT
10
59.1520
20
150.9948
0
VERTEX
8
CUT
10
61.7462
20
150.7759
0
VERTEX
8
CUT
10
63.5549
20
150.2054
0
VERTEX
8
CUT
10
65.2605
20
149.2790
0
VERTEX
8
CUT
10
66.9873
20
147.9736
0
VERTEX
8
CUT
10
69.2572
20
145.7737
0
VERTEX
8
CUT
10
71.3037
20
143.0616
0
VERTEX
8
CUT
10
72.6662
20
140.0155
0
VERTEX
8
CUT
10
73.4347
20
136.4513
0
VERTEX
8
CUT
10
74.0607
20
131.2672
0
VERTEX
8
CUT
10
74.6568
20
128.9963
0
VERTEX
8
CUT
10
76.1001
20
126.4789
0
VERTEX
8
CUT
10
77.7502
20
124.9527
0
VERTEX
8
CUT
10
77.8565
20
124.8502
0
VERTEX
8
CUT
10
77.8669
20
124.8447
0
VERTEX
8
CUT
10
78.4225
20
124.3308
0
VERTEX
8
CUT
10
79.9872
20
123.6126
0
VERTEX
8
CUT
10
80.9528
20
123.4312
0
VERTEX
8
CUT
10
83.0724
20
123.3983
0
VERTEX
8
CUT
10
86.6321
20
123.7480
0
VERTEX
8
CUT
10
88.5088
20
123.6322
0
VERTEX
8
CUT
10
90.0223
20
123.1196
0
VERTEX
8
CUT
10
92.2610
20
121.5669
0
VERTEX
8
CUT
10
94.4171
20
120.4025
0
VERTEX
8
CUT
10
96.4013
20
119.6170
0
VERTEX
8
CUT
10
97.6003
20
119.2836
0
VERTEX
8
CUT
10
97.7009
20
119.2426
0
VERTEX
8
CUT
10
98.1649
20
119.1266
0
VERTEX
8
CUT
10
101.6366
20
118.1613
0
VERTEX
8
CUT
10
105.8598
20
117.6801
0
VERTEX
8
CUT
10
108.9360
20
117.8493
0
VERTEX
8
CUT
10
111.9469
20
118.4339
0
VERTEX
8
CUT
10
114.8909
20
119.4005
0
VERTEX
8
CUT
10
117.7259
20
120.7115
0
VERTEX
8
CUT
10
120.4318
20
122.4330
0
VERTEX
8
CUT
10
122.1048
20
123.8259
0
VERTEX
8
CUT
10
122.1958
20
123.8926
0
VERTEX
8
CUT
10
122.2370
20
123.9359
0
VERTEX
8
CUT
10
122.8861
20
124.4763
0
VERTEX
8
CUT
10
125.0723
20
126.7991
0
VERTEX
8
CUT
10
127.3731
20
130.1431
0
VERTEX
8
CUT
10
128.1471
20
131.7504
0
VERTEX
8
CUT
10
128.3428
20
132.1216
0
VERTEX
8
CUT
10
128.4093
20
132.2950
0
VERTEX
8
CUT
10
129.2421
20
134.0246
0
VERTEX
8
CUT
10
130.6622
20
138.6004
0
VERTEX
8
CUT
10
131.2528
20
141.1392
0
VERTEX
8
CUT
10
131.9452
20
145.5707
0
VERTEX
8
CUT
10
132.1175
20
148.2534
0
VERTEX
8
CUT
10
131.8884
20
150.0668
0
VERTEX
8
CUT
10
131.6308
20
150.7597
0
VERTEX
8
CUT
10
130.7345
20
152.0083
0
VERTEX
8
CUT
10
130.0421
20
152.6090
0
VERTEX
8
CUT
10
128.6742
20
153.1499
0
VERTEX
8
CUT
10
127.9638
20
153.0637
0
VERTEX
8
CUT
10
126.8445
20
152.3253
0
VERTEX
8
CUT
10
124.9360
20
149.1045
0
VERTEX
8
CUT
10
123.8309
20
147.9971
0
VERTEX
8
CUT
10
122.5114
20
147.3743
0
VERTEX
8
CUT
10
119.7409
20
147.0894
0
VERTEX
8
CUT
10
118.5548
20
146.5379
0
VERTEX
8
CUT
10
118.4985
20
146.2108
0
VERTEX
8
CUT
10
118.7139
20
145.9274
0
VERTEX
8
CUT
10
121.3294
20
144.4093
0
VERTEX
8
CUT
10
121.3727
20
144.3799
0
VERTEX
8
CUT
10
121.3741
20
144.3789
0
VERTEX
8
CUT
10
121.3774
20
144.3767
0
VERTEX
8
CUT
10
121.3920
20
144.3668
0
VERTEX
8
CUT
10
123.7820
20
142.1502
0
VERTEX
8
CUT
10
124.4657
20
141.2909
0
VERTEX
8
CUT
10
125.4946
20
139.6628
0
VERTEX
8
CUT
10
125.9605
20
138.4885
0
VERTEX
8
CUT
10
126.3626
20
136.2341
0
VERTEX
8
CUT
10
125.9233
20
133.9121
0
VERTEX
8
CUT
10
124.6651
20
131.4307
0
VERTEX
8
CUT
10
123.6981
20
129.9977
0
VERTEX
8
CUT
10
120.7935
20
126.8127
0
VERTEX
8
CUT
10
119.6023
20
125.9272
0
VERTEX
8
CUT
10
118.5041
20
125.2157
0
VERTEX
8
CUT
10
118.2617
20
125.0586
0
VERTEX
8
CUT
10
118.2311
20
125.0388
0
VERTEX
8
CUT
10
118.1858
20
125.0094
0
VERTEX
8
CUT
10
117.8530
20
124.8423
0
VERTEX
8
CUT
10
117.0356
20
124.6601
0
VERTEX
8
CUT
10
116.5440
20
124.8322
0
VERTEX
8
CUT
10
116.3879
20
125.1402
0
VERTEX
8
CUT
10
116.1065
20
127.7309
0
VERTEX
8
CUT
10
115.9188
20
131.6606
0
VERTEX
8
CUT
10
115.8259
20
133.8519
0
VERTEX
8
CUT
10
115.1861
20
136.2753
0
VERTEX
8
CUT
10
115.1599
20
136.3303
0
VERTEX
8
CUT
10
115.1496
20
136.3809
0
VERTEX
8
CUT
10
115.0464
20
136.5687
0
VERTEX
8
CUT
10
114.4349
20
137.8530
0
VERTEX
8
CUT
10
113.6878
20
138.9778
0
VERTEX
8
CUT
10
112.8806
20
139.6518
0
VERTEX
8
CUT
10
112.5463
20
139.7324
0
VERTEX
8
CUT
10
112.3957
20
139.8239
0
VERTEX
8
CUT
10
112.2580
20
139.8019
0
VERTEX
8
CUT
10
112.2175
20
139.8116
0
VERTEX
8
CUT
10
111.9803
20
139.7576
0
VERTEX
8
CUT
10
111.7210
20
139.7162
0
VERTEX
8
CUT
10
111.6834
20
139.6899
0
VERTEX
8
CUT
10
111.5163
20
139.6518
0
VERTEX
8
CUT
10
110.7319
20
139.0038
0
VERTEX
8
CUT
10
110.4248
20
138.4538
0
VERTEX
8
CUT
10
110.3191
20
138.3212
0
VERTEX
8
CUT
10
110.2097
20
138.0686
0
VERTEX
8
CUT
10
109.2109
20
136.2800
0
VERTEX
8
CUT
10
108.5675
20
133.9294
0
VERTEX
8
CUT
10
108.4326
20
131.5116
0
VERTEX
8
CUT
10
108.2940
20
130.3318
0
VERTEX
8
CUT
10
108.3952
20
128.6164
0
VERTEX
8
CUT
10
108.5261
20
127.9651
0
VERTEX
8
CUT
10
108.5363
20
127.5888
0
VERTEX
8
CUT
10
108.7720
20
125.7622
0
VERTEX
8
CUT
10
109.4078
20
123.4547
0
VERTEX
8
CUT
10
109.3073
20
122.8020
0
VERTEX
8
CUT
10
108.7205
20
122.3217
0
VERTEX
8
CUT
10
107.4438
20
122.1089
0
VERTEX
8
CUT
10
105.6734
20
122.1074
0
VERTEX
8
CUT
10
102.9312
20
122.6516
0
VERTEX
8
CUT
10
99.9731
20
124.4124
0
VERTEX
8
CUT
10
98.1368
20
126.1437
0
VERTEX
8
CUT
10
98.1080
20
126.1790
0
VERTEX
8
CUT
10
98.0720
20
126.2229
0
VERTEX
8
CUT
10
98.0715
20
126.2234
0
VERTEX
8
CUT
10
98.0319
20
126.2717
0
VERTEX
8
CUT
10
97.2449
20
127.9634
0
VERTEX
8
CUT
10
96.9549
20
129.5730
0
VERTEX
8
CUT
10
96.9519
20
132.2953
0
VERTEX
8
CUT
10
97.2282
20
135.3391
0
VERTEX
8
CUT
10
96.9304
20
135.9959
0
VERTEX
8
CUT
10
96.2477
20
136.5321
0
VERTEX
8
CUT
10
95.8175
20
136.4681
0
VERTEX
8
CUT
10
95.4016
20
135.9416
0
VERTEX
8
CUT
10
94.3162
20
133.2531
0
VERTEX
8
CUT
10
93.5172
20
131.8433
0
VERTEX
8
CUT
10
92.6122
20
130.7313
0
VERTEX
8
CUT
10
91.6249
20
129.9225
0
VERTEX
8
CUT
10
90.4916
20
129.3394
0
VERTEX
8
CUT
10
89.5520
20
129.1299
0
VERTEX
8
CUT
10
88.3092
20
129.1537
0
VERTEX
8
CUT
10
88.1767
20
129.1624
0
VERTEX
8
CUT
10
86.7520
20
129.7150
0
VERTEX
8
CUT
10
84.6713
20
131.7452
0
VERTEX
8
CUT
10
82.8727
20
131.2146
0
VERTEX
8
CUT
10
81.6699
20
132.1106
0
VERTEX
8
CUT
10
79.5681
20
135.4751
0
VERTEX
8
CUT
10
78.8801
20
137.5421
0
VERTEX
8
CUT
10
79.0627
20
140.5875
0
VERTEX
8
CUT
10
79.7267
20
143.0326
0
VERTEX
8
CUT
10
81.2848
20
147.1126
0
VERTEX
8
CUT
10
81.5238
20
149.3457
0
VERTEX
8
CUT
10
80.9491
20
151.1631
0
VERTEX
8
CUT
10
78.4968
20
154.4726
0
VERTEX
8
CUT
10
77.7475
20
155.8286
0
VERTEX
8
CUT
10
77.2816
20
157.1561
0
VERTEX
8
CUT
10
77.1042
20
158.4572
0
VERTEX
8
CUT
10
77.2211
20
159.7967
0
VERTEX
8
CUT
10
77.6466
20
160.9613
0
VERTEX
8
CUT
10
78.3665
20
162.0785
0
VERTEX
8
CUT
10
80.0280
20
163.6291
0
VERTEX
8
CUT
10
81.7355
20
164.3887
0
VERTEX
8
CUT
10
83.6875
20
164.8068
0
VERTEX
8
CUT
10
85.8065
20
164.9501
0
VERTEX
8
CUT
10
88.3318
20
164.8443
0
VERTEX
8
CUT
10
90.3596
20
165.3448
0
VERTEX
8
CUT
10
91.5469
20
166.0518
0
VERTEX
8
CUT
10
92.4826
20
166.8846
0
VERTEX
8
CUT
10
93.3929
20
168.1756
0
VERTEX
8
CUT
10
93.7136
20
168.9495
0
VERTEX
8
CUT
10
93.6762
20
169.3219
0
VERTEX
8
CUT
10
92.1149
20
169.6254
0
VERTEX
8
CUT
10
78.8628
20
169.9744
0
VERTEX
8
CUT
10
75.6068
20
170.2026
0
VERTEX
8
CUT
10
73.5949
20
170.4386
0
VERTEX
8
CUT
10
68.5839
20
171.0589
0
VERTEX
8
CUT
10
61.6679
20
172.3864
0
VERTEX
8
CUT
10
54.5834
20
174.1313
0
VERTEX
8
CUT
10
51.8610
20
175.2806
0
VERTEX
8
CUT
10
51.4835
20
175.6667
0
VERTEX
8
CUT
10
51.4030
20
176.1898
0
VERTEX
8
CUT
10
51.6184
20
176.6046
0
VERTEX
8
CUT
10
52.1358
20
176.9659
0
VERTEX
8
CUT
10
52.8383
20
177.0494
0
VERTEX
8
CUT
10
57.3916
20
176.6973
0
VERTEX
8
CUT
10
63.2351
20
176.1487
0
VERTEX
8
CUT
10
72.3961
20
175.5565
0
VERTEX
8
CUT
10
80.9439
20
175.3471
0
VERTEX
8
CUT
10
88.6382
20
175.4516
0
VERTEX
8
CUT
10
94.2597
20
175.7982
0
VERTEX
8
CUT
10
96.1242
20
176.1670
0
VERTEX
8
CUT
10
97.3388
20
176.7918
0
VERTEX
8
CUT
10
98.0832
20
177.4536
0
VERTEX
8
CUT
10
98.1402
20
177.8463
0
VERTEX
8
CUT
10
95.7043
20
181.6903
0
VERTEX
8
CUT
10
95.3541
20
181.9969
0
VERTEX
8
CUT
10
93.9886
20
182.3567
0
VERTEX
8
CUT
10
93.9151
20
182.3924
0
VERTEX
8
CUT
10
93.3238
20
182.5319
0
VERTEX
8
CUT
10
82.6898
20
185.3341
0
VERTEX
8
CUT
10
79.5030
20
186.3151
0
VERTEX
8
CUT
10
73.3516
20
188.5875
0
VERTEX
8
CUT
10
68.5763
20
190.7135
0
VERTEX
8
CUT
10
66.3461
20
191.8285
0
VERTEX
8
CUT
10
61.6852
20
194.3508
0
VERTEX
8
CUT
10
59.7097
20
195.7598
0
VERTEX
8
CUT
10
59.1909
20
196.3445
0
VERTEX
8
CUT
10
58.9255
20
196.8890
0
VERTEX
8
CUT
10
59.0874
20
197.3521
0
VERTEX
8
CUT
10
59.6483
20
197.7051
0
VERTEX
8
CUT
10
60.4582
20
197.6295
0
VERTEX
8
CUT
10
74.8900
20
193.0276
0
VERTEX
8
CUT
10
83.0543
20
190.7599
0
VERTEX
8
CUT
10
91.1354
20
188.9837
0
VERTEX
8
CUT
10
99.3219
20
187.5903
0
VERTEX
8
CUT
10
105.2513
20
186.7419
0
VERTEX
8
CUT
10
106.6835
20
188.1306
0
VERTEX
8
CUT
10
108.1313
20
188.9503
0
VERTEX
8
CUT
10
108.7204
20
189.9370
0
VERTEX
8
CUT
10
108.2178
20
190.5756
0
VERTEX
8
CUT
10
106.6585
20
191.3604
0
VERTEX
8
CUT
10
105.8344
20
191.4244
0
VERTEX
8
CUT
10
104.4913
20
191.0490
0
VERTEX
8
CUT
10
103.8322
20
191.1405
0
VERTEX
8
CUT
10
103.3396
20
191.6246
0
VERTEX
8
CUT
10
102.6567
20
192.8566
0
VERTEX
8
CUT
10
101.8916
20
193.4557
0
VERTEX
8
CUT
10
100.1279
20
194.4778
0
VERTEX
8
CUT
10
100.1277
20
194.4779
0
VERTEX
8
CUT
10
100.1260
20
194.4789
0
VERTEX
8
CUT
10
93.3592
20
198.4002
0
VERTEX
8
CUT
10
88.7080
20
201.5436
0
VERTEX
8
CUT
10
87.7039
20
202.2793
0
VERTEX
8
CUT
10
83.7630
20
205.3349
0
VERTEX
8
CUT
10
78.5940
20
210.2593
0
VERTEX
8
CUT
10
77.7918
20
211.4294
0
VERTEX
8
CUT
10
77.7205
20
211.7985
0
VERTEX
8
CUT
10
77.7556
20
212.1156
0
VERTEX
8
CUT
10
78.1898
20
212.5487
0
VERTEX
8
CUT
10
78.6519
20
212.7111
0
VERTEX
8
CUT
10
79.5039
20
212.4075
0
VERTEX
8
CUT
10
87.7136
20
207.3075
0
VERTEX
8
CUT
10
97.1255
20
202.0096
0
VERTEX
8
CUT
10
102.6834
20
199.3348
0
VERTEX
8
CUT
10
111.4577
20
195.5250
0
VERTEX
8
CUT
10
112.5157
20
195.1628
0
VERTEX
8
CUT
10
113.2205
20
195.1855
0
VERTEX
8
CUT
10
117.3745
20
197.4797
0
VERTEX
8
CUT
10
121.7821
20
199.4736
0
VERTEX
8
CUT
10
124.4013
20
200.3923
0
VERTEX
8
CUT
10
128.7473
20
201.3257
0
VERTEX
8
CUT
10
129.2629
20
201.8972
0
VERTEX
8
CUT
10
130.2362
20
203.7235
0
VERTEX
8
CUT
10
131.6330
20
205.2264
0
VERTEX
8
CUT
10
133.9258
20
208.6997
0
VERTEX
8
CUT
10
135.4807
20
210.4365
0
VERTEX
8
CUT
10
137.2812
20
211.9858
0
VERTEX
8
CUT
10
139.2517
20
213.2995
0
VERTEX
8
CUT
10
141.4319
20
214.4621
0
VERTEX
8
CUT
10
143.7515
20
215.4133
0
VERTEX
8
CUT
10
146.1840
20
216.0861
0
VERTEX
8
CUT
10
148.6441
20
216.5098
0
VERTEX
8
CUT
10
151.7175
20
216.5831
0
VERTEX
8
CUT
10
156.5654
20
216.0180
0
VERTEX
8
CUT
10
159.1332
20
215.3241
0
VERTEX
8
CUT
10
161.1551
20
214.3369
0
VERTEX
8
CUT
10
161.5514
20
214.3785
0
VERTEX
8
CUT
10
161.8981
20
214.9365
0
VERTEX
8
CUT
10
162.0877
20
215.9697
0
VERTEX
8
CUT
10
161.6167
20
216.5347
0
VERTEX
8
CUT
10
161.5441
20
216.9741
0
VERTEX
8
CUT
10
162.3631
20
217.5129
0
VERTEX
8
CUT
10
163.0768
20
218.8103
0
VERTEX
8
CUT
10
163.8503
20
219.6463
0
VERTEX
8
CUT
10
163.1176
20
221.6607
0
VERTEX
8
CUT
10
161.5038
20
222.0708
0
VERTEX
8
CUT
10
161.2897
20
222.2999
0
VERTEX
8
CUT
10
161.3986
20
222.5385
0
VERTEX
8
CUT
10
162.3246
20
223.0482
0
VERTEX
8
CUT
10
162.5743
20
223.6468
0
VERTEX
8
CUT
10
162.3543
20
224.4160
0
VERTEX
8
CUT
10
161.6114
20
225.3402
0
VERTEX
8
CUT
10
161.2870
20
226.5398
0
VERTEX
8
CUT
10
161.4507
20
227.5346
0
VERTEX
8
CUT
10
162.0726
20
227.8521
0
VERTEX
8
CUT
10
162.4233
20
227.4059
0
VERTEX
8
CUT
10
162.3606
20
226.6838
0
VERTEX
8
CUT
10
162.5177
20
226.3902
0
VERTEX
8
CUT
10
163.6462
20
225.9729
0
VERTEX
8
CUT
10
164.3626
20
226.0243
0
VERTEX
8
CUT
10
165.0656
20
225.4167
0
VERTEX
8
CUT
10
166.4618
20
222.5984
0
VERTEX
8
CUT
10
167.4840
20
221.4977
0
VERTEX
8
CUT
10
168.6224
20
220.6547
0
VERTEX
8
CUT
10
170.0639
20
220.0607
0
VERTEX
8
CUT
10
171.5227
20
219.9355
0
VERTEX
8
CUT
10
172.8962
20
220.3767
0
VERTEX
8
CUT
10
174.3124
20
221.3985
0
VERTEX
8
CUT
10
176.5878
20
223.6013
0
VERTEX
8
CUT
10
176.8243
20
223.8010
0
VERTEX
8
CUT
10
176.8796
20
223.8477
0
VERTEX
8
CUT
10
176.9020
20
223.8667
0
VERTEX
8
CUT
10
176.9416
20
223.9001
0
VERTEX
8
CUT
10
179.2006
20
225.1249
0
VERTEX
8
CUT
10
180.7062
20
225.2368
0
VERTEX
8
CUT
10
181.4588
20
225.0581
0
VERTEX
8
CUT
10
182.3949
20
224.6485
0
VERTEX
8
CUT
10
183.2001
20
224.0271
0
VERTEX
8
CUT
10
184.2905
20
222.5367
0
VERTEX
8
CUT
10
184.6253
20
221.0000
0
VERTEX
8
CUT
10
184.3855
20
220.2779
0
VERTEX
8
CUT
10
183.4424
20
219.4623
0
VERTEX
8
CUT
10
183.2673
20
218.9007
0
VERTEX
8
CUT
10
184.1027
20
216.3292
0
VERTEX
8
CUT
10
183.5258
20
212.4528
0
VERTEX
8
CUT
10
183.6345
20
212.1510
0
VERTEX
8
CUT
10
186.5018
20
209.8644
0
VERTEX
8
CUT
10
188.0661
20
209.1426
0
VERTEX
8
CUT
10
189.4719
20
209.1178
0
VERTEX
8
CUT
10
193.7215
20
210.3047
0
VERTEX
8
CUT
10
195.3016
20
210.4070
0
VERTEX
8
CUT
10
196.6170
20
210.2256
0
VERTEX
8
CUT
10
196.9560
20
210.0758
0
VERTEX
8
CUT
10
197.1437
20
209.9500
0
VERTEX
8
CUT
10
197.1961
20
209.9148
0
VERTEX
8
CUT
10
197.2233
20
209.8966
0
VERTEX
8
CUT
10
197.3375
20
209.8200
0
VERTEX
8
CUT
10
197.8649
20
209.2931
0
VERTEX
8
CUT
10
198.8377
20
207.5039
0
VERTEX
8
CUT
10
199.2784
20
205.6001
0
VERTEX
8
CUT
10
199.1689
20
204.5719
0
VERTEX
8
CUT
10
198.8362
20
203.6487
0
VERTEX
8
CUT
10
198.3020
20
202.8921
0
VERTEX
8
CUT
10
196.9978
20
201.9660
0
VERTEX
8
CUT
10
195.3796
20
199.8644
0
VERTEX
8
CUT
10
193.6338
20
198.7350
0
VERTEX
8
CUT
10
193.4907
20
198.1119
0
VERTEX
8
CUT
10
193.6469
20
197.7384
0
VERTEX
8
CUT
10
193.9559
20
197.5591
0
VERTEX
8
CUT
10
194.8601
20
197.6692
0
VERTEX
8
CUT
10
196.3866
20
198.2238
0
VERTEX
8
CUT
10
202.0860
20
200.7960
0
VERTEX
8
CUT
10
209.9564
20
205.1147
0
VERTEX
8
CUT
10
211.6796
20
206.1797
0
VERTEX
8
CUT
10
211.7700
20
206.2309
0
VERTEX
8
CUT
10
212.1122
20
206.4471
0
VERTEX
8
CUT
10
221.1835
20
212.0535
0
VERTEX
8
CUT
10
222.4416
20
212.6036
0
VERTEX
8
CUT
10
223.0374
20
212.3961
0
VERTEX
8
CUT
10
223.0914
20
212.3615
0
VERTEX
8
CUT
10
223.1152
20
212.3463
0
VERTEX
8
CUT
10
223.1198
20
212.3433
0
VERTEX
8
CUT
10
223.1362
20
212.3328
0
VERTEX
8
CUT
10
223.3127
20
211.9820
0
VERTEX
8
CUT
10
223.2731
20
211.5371
0
VERTEX
8
CUT
10
222.5624
20
210.3703
0
VERTEX
8
CUT
10
220.0131
20
207.6815
0
VERTEX
8
CUT
10
216.8963
20
204.8666
0
VERTEX
8
CUT
10
214.0075
20
202.6127
0
VERTEX
8
CUT
10
211.1857
20
200.4303
0
VERTEX
8
CUT
10
202.3140
20
194.9110
0
VERTEX
8
CUT
10
200.3523
20
193.4261
0
VERTEX
8
CUT
10
200.1651
20
192.7737
0
VERTEX
8
CUT
10
200.6855
20
191.6688
0
VERTEX
8
CUT
10
202.9987
20
188.7061
0
VERTEX
8
CUT
10
203.9194
20
187.9356
0
VERTEX
8
CUT
10
206.1960
20
188.2386
0
VERTEX
8
CUT
10
206.5219
20
188.2563
0
VERTEX
8
CUT
10
206.8946
20
188.3316
0
VERTEX
8
CUT
10
209.1872
20
188.6368
0
VERTEX
8
CUT
10
214.8385
20
189.9363
0
VERTEX
8
CUT
10
217.5526
20
190.4845
0
VERTEX
8
CUT
10
219.3914
20
190.9832
0
VERTEX
8
CUT
10
222.2127
20
191.6320
0
VERTEX
8
CUT
10
231.1741
20
194.2820
0
VERTEX
8
CUT
10
236.5430
20
196.0902
0
VERTEX
8
CUT
10
241.5765
20
197.6681
0
VERTEX
8
CUT
10
242.4164
20
197.5866
0
VERTEX
8
CUT
10
242.8771
20
197.1197
0
VERTEX
8
CUT
10
242.9557
20
196.8721
0
VERTEX
8
CUT
10
242.6892
20
196.1795
0
VERTEX
8
CUT
10
241.5239
20
195.1882
0
VERTEX
8
CUT
10
238.4101
20
193.3391
0
VERTEX
8
CUT
10
238.3505
20
193.3070
0
VERTEX
8
CUT
10
237.8497
20
193.0377
0
VERTEX
8
CUT
10
237.6177
20
192.9129
0
VERTEX
8
CUT
10
237.2630
20
192.7221
0
VERTEX
8
CUT
10
234.8784
20
191.5156
0
VERTEX
8
CUT
10
234.3373
20
191.2613
0
VERTEX
8
CUT
10
233.7289
20
190.9754
0
VERTEX
8
CUT
10
231.9101
20
190.1208
0
VERTEX
8
CUT
10
230.4453
20
189.4324
0
VERTEX
8
CUT
10
225.8333
20
187.5361
0
VERTEX
8
CUT
10
219.3709
20
185.3352
0
VERTEX
8
CUT
10
212.9303
20
183.5849
0
VERTEX
8
CUT
10
206.3525
20
182.2548
0
VERTEX
8
CUT
10
205.4303
20
181.3071
0
VERTEX
8
CUT
10
205.1052
20
179.6222
0
VERTEX
8
CUT
10
205.1413
20
178.0363
0
VERTEX
8
CUT
10
205.4009
20
176.6961
0
VERTEX
8
CUT
10
205.9454
20
176.1084
0
VERTEX
8
CUT
10
206.6251
20
175.9794
0
VERTEX
8
CUT
10
206.9131
20
175.6978
0
VERTEX
8
CUT
10
217.5261
20
175.6968
0
VERTEX
8
CUT
10
217.5631
20
175.6960
0
VERTEX
8
CUT
10
217.7074
20
175.6967
0
VERTEX
8
CUT
10
224.6429
20
175.6960
0
VERTEX
8
CUT
10
227.0734
20
175.7429
0
VERTEX
8
CUT
10
231.7232
20
175.7658
0
VERTEX
8
CUT
10
238.4347
20
176.0091
0
VERTEX
8
CUT
10
248.1146
20
176.7775
0
VERTEX
8
CUT
10
249.2445
20
176.5357
0
VERTEX
8
CUT
10
249.6531
20
175.8728
0
VERTEX
8
CUT
10
249.5381
20
175.5752
0
VERTEX
8
CUT
10
249.3669
20
175.4157
0
VERTEX
8
CUT
10
249.1240
20
175.1893
0
VERTEX
8
CUT
10
249.1017
20
175.1686
0
VERTEX
8
CUT
10
248.9746
20
175.0501
0
VERTEX
8
CUT
10
248.7057
20
174.8465
0
VERTEX
8
CUT
10
246.0967
20
173.8925
0
VERTEX
8
CUT
10
242.8930
20
173.0126
0
VERTEX
8
CUT
10
235.5891
20
171.5453
0
VERTEX
8
CUT
10
234.7957
20
171.4281
0
VERTEX
8
CUT
10
234.2052
20
171.3539
0
VERTEX
8
CUT
10
233.4314
20
171.2566
0
VERTEX
8
CUT
10
233.2708
20
171.2364
0
VERTEX
8
CUT
10
228.9421
20
170.6920
0
VERTEX
8
CUT
10
223.0804
20
170.1133
0
VERTEX
8
CUT
10
208.5350
20
169.6264
0
VERTEX
8
CUT
10
207.6469
20
169.4700
0
VERTEX
8
CUT
10
207.4033
20
169.1466
0
VERTEX
8
CUT
10
207.8112
20
168.1098
0
VERTEX
8
CUT
10
209.0676
20
166.6236
0
VERTEX
8
CUT
10
210.1405
20
165.8442
0
VERTEX
8
CUT
10
211.4107
20
165.3036
0
VERTEX
8
CUT
10
213.8356
20
165.0920
0
VERTEX
8
CUT
10
219.5912
20
165.9258
0
VERTEX
8
CUT
10
221.4754
20
165.8528
0
VERTEX
8
CUT
10
223.0433
20
165.2853
0
VERTEX
8
CUT
10
223.8415
20
164.7914
0
VERTEX
8
CUT
10
225.0997
20
163.6726
0
VERTEX
8
CUT
10
225.9965
20
162.5287
0
VERTEX
8
CUT
10
226.7355
20
160.4601
0
VERTEX
8
CUT
10
226.8397
20
158.7913
0
VERTEX
8
CUT
10
226.6530
20
157.3063
0
VERTEX
8
CUT
10
225.7073
20
155.2529
0
VERTEX
8
CUT
10
222.6273
20
151.7602
0
VERTEX
8
CUT
10
222.1861
20
150.6992
0
VERTEX
8
CUT
10
221.9898
20
149.5009
0
VERTEX
8
CUT
10
221.9978
20
149.2440
0
VERTEX
8
CUT
10
221.9886
20
149.2176
0
VERTEX
8
CUT
10
221.9669
20
148.2799
0
VERTEX
8
CUT
10
222.0352
20
148.0497
0
VERTEX
8
CUT
10
222.0543
20
147.4382
0
VERTEX
8
CUT
10
222.4278
20
146.2332
0
VERTEX
8
CUT
10
223.5592
20
144.6663
0
VERTEX
8
CUT
10
224.5930
20
143.8023
0
VERTEX
8
CUT
10
226.6246
20
142.7395
0
VERTEX
8
CUT
10
229.1586
20
142.0470
0
VERTEX
8
CUT
10
236.9521
20
146.5857
0
VERTEX
8
CUT
10
238.0622
20
147.0482
0
VERTEX
8
CUT
10
240.0155
20
147.5016
0
VERTEX
8
CUT
10
242.0925
20
147.5027
0
VERTEX
8
CUT
10
243.6358
20
147.2561
0
VERTEX
8
CUT
10
244.9999
20
146.8025
0
VERTEX
8
CUT
10
246.3136
20
146.1486
0
VERTEX
8
CUT
10
247.3902
20
145.3236
0
VERTEX
8
CUT
10
248.3231
20
144.3184
0
VERTEX
8
CUT
10
249.0068
20
143.2034
0
VERTEX
8
CUT
10
249.7905
20
140.5444
0
VERTEX
8
CUT
10
249.6441
20
137.6997
0
VERTEX
8
CUT
10
248.6587
20
135.4121
0
VERTEX
8
CUT
10
247.8002
20
134.3661
0
VERTEX
8
CUT
10
246.6191
20
133.3677
0
VERTEX
8
CUT
10
241.3299
20
130.4087
0
VERTEX
8
CUT
10
240.3178
20
129.6202
0
VERTEX
8
CUT
10
239.6766
20
129.1667
0
VERTEX
8
CUT
10
239.5553
20
128.9869
0
VERTEX
8
CUT
10
238.4782
20
127.6984
0
VERTEX
8
CUT
10
237.8343
20
126.1766
0
VERTEX
8
CUT
10
237.7682
20
124.5887
0
VERTEX
8
CUT
10
238.2228
20
122.8765
0
VERTEX
8
CUT
10
239.2139
20
121.0448
0
VERTEX
8
CUT
10
242.7907
20
116.6661
0
VERTEX
8
CUT
10
243.7797
20
114.6882
0
VERTEX
8
CUT
10
244.2135
20
112.0390
0
VERTEX
8
CUT
10
244.1369
20
110.9213
0
VERTEX
8
CUT
10
243.5297
20
108.9327
0
VERTEX
8
CUT
10
242.3160
20
107.2168
0
VERTEX
8
CUT
10
241.4866
20
106.5367
0
VERTEX
8
CUT
10
239.6616
20
105.5772
0
VERTEX
8
CUT
10
237.5100
20
105.1889
0
VERTEX
8
CUT
10
233.4482
20
105.0124
0
VERTEX
8
CUT
10
230.9401
20
104.4187
0
VERTEX
8
CUT
10
229.8769
20
103.7378
0
VERTEX
8
CUT
10
229.0838
20
102.7830
0
VERTEX
8
CUT
10
228.5790
20
101.7499
0
VERTEX
8
CUT
10
228.3429
20
100.5919
0
VERTEX
8
CUT
10
228.5852
20
98.5538
0
VERTEX
8
CUT
10
229.5096
20
96.7813
0
VERTEX
8
CUT
10
230.5952
20
95.6516
0
VERTEX
8
CUT
10
230.7047
20
95.5137
0
VERTEX
8
CUT
10
231.4400
20
94.7725
0
VERTEX
8
CUT
10
234.7384
20
91.3403
0
VERTEX
8
CUT
10
235.5823
20
90.2789
0
VERTEX
8
CUT
10
235.5906
20
90.2656
0
VERTEX
8
CUT
10
235.6129
20
90.2297
0
VERTEX
8
CUT
10
235.6414
20
90.1838
0
VERTEX
8
CUT
10
235.8241
20
89.8902
0
VERTEX
8
CUT
10
236.3188
20
88.9622
0
VERTEX
8
CUT
10
237.0883
20
86.5488
0
VERTEX
8
CUT
10
237.3766
20
84.6036
0
VERTEX
8
CUT
10
237.3415
20
81.4559
0
VERTEX
8
CUT
10
236.9683
20
78.4571
0
VERTEX
8
CUT
10
239.1589
20
75.9581
0
VERTEX
8
CUT
10
240.3485
20
74.0333
0
VERTEX
8
CUT
10
241.0666
20
71.5786
0
VERTEX
8
CUT
10
241.2814
20
69.9486
0
VERTEX
8
CUT
10
241.9815
20
58.9061
0
VERTEX
8
CUT
10
244.0372
20
45.9123
0
VERTEX
8
CUT
10
244.6677
20
40.7615
0
VERTEX
8
CUT
10
244.9122
20
36.1809
0
VERTEX
8
CUT
10
244.8769
20
31.5606
0
VERTEX
8
CUT
10
244.7361
20
28.8956
0
VERTEX
8
CUT
10
244.1433
20
24.5356
0
VERTEX
8
CUT
10
243.0825
20
21.4060
0
VERTEX
8
CUT
10
242.9049
20
21.0392
0
VERTEX
8
CUT
10
242.8669
20
20.9606
0
VERTEX
8
CUT
10
242.8580
20
20.9424
0
VERTEX
8
CUT
10
242.8384
20
20.9018
0
VERTEX
8
CUT
10
242.1892
20
19.7685
0
VERTEX
8
CUT
10
241.2098
20
18.5428
0
VERTEX
8
CUT
10
238.5657
20
16.2179
0
VERTEX
8
CUT
10
237.1560
20
15.4771
0
VERTEX
8
CUT
10
235.5843
20
15.0791
0
VERTEX
8
CUT
10
232.6971
20
15.0018
0
VERTEX
8
CUT
10
229.7380
20
15.5012
0
VERTEX
8
CUT
10
226.3101
20
16.7954
0
VERTEX
8
CUT
10
221.4451
20
19.3488
0
VERTEX
8
CUT
10
217.7959
20
21.8376
0
VERTEX
8
CUT
10
213.9604
20
24.8637
0
VERTEX
8
CUT
10
209.9778
20
28.4627
0
VERTEX
8
CUT
10
205.8549
20
32.5512
0
VERTEX
8
CUT
10
201.6288
20
37.1270
0
VERTEX
8
CUT
10
197.2630
20
42.2267
0
VERTEX
8
CUT
10
189.2383
20
52.6238
0
VERTEX
8
CUT
10
188.0276
20
54.4789
0
VERTEX
8
CUT
10
186.5820
20
57.7022
0
VERTEX
8
CUT
10
185.9540
20
61.0182
0
VERTEX
8
CUT
10
185.5385
20
66.3275
0
VERTEX
8
CUT
10
184.8216
20
68.5257
0
VERTEX
8
CUT
10
183.4725
20
70.2121
0
VERTEX
8
CUT
10
178.3229
20
74.0040
0
VERTEX
8
CUT
10
177.5689
20
74.9429
0
VERTEX
8
CUT
10
175.9593
20
77.6648
0
VERTEX
8
CUT
10
174.9156
20
78.9411
0
VERTEX
8
CUT
10
173.7614
20
79.8918
0
VERTEX
8
CUT
10
172.5338
20
80.5455
0
VERTEX
8
CUT
10
171.3283
20
80.8325
0
VERTEX
8
CUT
10
170.1338
20
80.7999
0
VERTEX
8
CUT
10
168.8712
20
80.3731
0
VERTEX
8
CUT
10
167.7347
20
79.6239
0
VERTEX
8
CUT
10
167.0443
20
78.9221
0
VERTEX
8
CUT
10
166.7283
20
78.3215
0
VERTEX
8
CUT
10
166.6373
20
78.1886
0
VERTEX
8
CUT
10
166.6114
20
78.0993
0
VERTEX
8
CUT
10
166.1606
20
77.2422
0
VERTEX
8
CUT
10
165.7889
20
75.0952
0
VERTEX
8
CUT
10
165.9908
20
72.4806
0
VERTEX
8
CUT
10
166.5528
20
69.9046
0
VERTEX
8
CUT
10
166.7978
20
67.4529
0
VERTEX
8
CUT
10
166.7621
20
65.0426
0
VERTEX
8
CUT
10
166.4309
20
62.9905
0
VERTEX
8
CUT
10
165.8073
20
61.6164
0
VERTEX
8
CUT
10
164.1168
20
59.7241
0
VERTEX
8
CUT
10
163.0407
20
59.0460
0
VERTEX
8
CUT
10
161.2909
20
58.3811
0
VERTEX
8
CUT
10
160.3034
20
58.3517
0
VERTEX
8
CUT
10
160.1392
20
58.3546
0
VERTEX
8
CUT
10
160.1063
20
58.3552
0
VERTEX
8
CUT
10
159.9326
20
58.3582
0
VERTEX
8
CUT
10
159.5887
20
58.3643
0
VERTEX
8
CUT
10
156.7601
20
59.5282
0
VERTEX
8
CUT
10
155.8316
20
60.1755
0
VERTEX
8
CUT
10
154.2977
20
61.7444
0
VERTEX
8
CUT
10
153.0304
20
63.9102
0
VERTEX
8
CUT
10
150.6927
20
69.9036
0
VERTEX
8
CUT
10
149.0566
20
72.0097
0
VERTEX
8
CUT
10
147.1781
20
73.0681
0
VERTEX
8
CUT
10
145.1122
20
73.1226
0
VERTEX
8
CUT
10
143.7703
20
72.7788
0
VERTEX
8
CUT
10
142.7224
20
72.0506
0
VERTEX
8
CUT
10
141.3928
20
70.4175
0
VERTEX
8
CUT
10
138.9381
20
66.8087
0
VERTEX
8
CUT
10
138.1659
20
65.9053
0
VERTEX
8
CUT
10
137.6694
20
65.4397
0
VERTEX
8
CUT
10
137.6685
20
65.4389
0
VERTEX
8
CUT
10
137.6664
20
65.4369
0
VERTEX
8
CUT
10
136.7607
20
64.7986
0
VERTEX
8
CUT
10
135.5252
20
64.3689
0
VERTEX
8
CUT
10
133.7404
20
64.2647
0
VERTEX
8
CUT
10
132.6710
20
64.5575
0
VERTEX
8
CUT
10
131.6539
20
65.0953
0
VERTEX
8
CUT
10
130.2143
20
66.7104
0
VERTEX
8
CUT
10
129.7006
20
67.7947
0
VERTEX
8
CUT
10
129.4004
20
69.0130
0
VERTEX
8
CUT
10
129.3291
20
70.3587
0
VERTEX
8
CUT
10
129.6961
20
72.6907
0
VERTEX
8
CUT
10
132.4460
20
78.9963
0
VERTEX
8
CUT
10
132.7451
20
81.1592
0
VERTEX
8
CUT
10
132.6405
20
82.5710
0
VERTEX
8
CUT
10
132.2056
20
83.7838
0
VERTEX
8
CUT
10
131.1979
20
84.9476
0
VERTEX
8
CUT
10
129.7131
20
86.0589
0
VERTEX
8
CUT
10
128.3441
20
86.4870
0
VERTEX
8
CUT
10
127.1892
20
86.1445
0
VERTEX
8
CUT
10
125.5080
20
85.3027
0
VERTEX
8
CUT
10
124.3910
20
84.2237
0
VERTEX
8
CUT
10
123.9467
20
83.5170
0
VERTEX
8
CUT
10
123.2848
20
81.6460
0
VERTEX
8
CUT
10
122.4102
20
76.4779
0
VERTEX
8
CUT
10
122.0811
20
75.3964
0
VERTEX
8
CUT
10
121.0236
20
73.6694
0
VERTEX
8
CUT
10
119.3053
20
72.1926
0
VERTEX
8
CUT
10
115.9496
20
69.9124
0
VERTEX
8
CUT
10
115.2055
20
69.1701
0
VERTEX
8
CUT
10
114.6930
20
68.2908
0
VERTEX
8
CUT
10
114.1153
20
66.0008
0
VERTEX
8
CUT
10
113.7332
20
57.6837
0
VERTEX
8
CUT
10
113.0542
20
55.9127
0
VERTEX
8
CUT
10
112.0014
20
54.0505
0
VERTEX
8
CUT
10
105.2134
20
44.8788
0
VERTEX
8
CUT
10
96.2318
20
34.2549
0
VERTEX
8
CUT
10
88.7658
20
26.6143
0
VERTEX
8
CUT
10
84.3628
20
22.6997
0
VERTEX
8
CUT
10
80.2369
20
19.5167
0
VERTEX
8
CUT
10
76.3504
20
17.0636
0
VERTEX
8
CUT
10
72.7463
20
15.3303
0
VERTEX
8
CUT
10
69.3330
20
14.3041
0
VERTEX
8
CUT
10
66.2030
20
13.9908
0
VERTEX
8
CUT
10
63.3084
20
14.4144
0
VERTEX
8
CUT
10
61.7659
20
14.9041
0
VERTEX
8
CUT
10
60.3712
20
15.6719
0
VERTEX
8
CUT
10
60.3689
20
15.6735
0
VERTEX
8
CUT
10
60.3659
20
15.6755
0
VERTEX
8
CUT
10
60.3594
20
15.6799
0
VERTEX
8
CUT
10
60.3559
20
15.6823
0
VERTEX
8
CUT
10
58.2663
20
17.5431
0
VERTEX
8
CUT
10
58.0156
20
17.8527
0
VERTEX
8
CUT
10
56.4032
20
20.6574
0
VERTEX
8
CUT
10
55.7194
20
22.5272
0
VERTEX
8
CUT
10
54.8136
20
26.1855
0
VERTEX
8
CUT
10
54.3540
20
29.0889
0
VERTEX
8
CUT
10
54.1797
20
32.0042
0
VERTEX
8
CUT
10
54.4242
20
36.9961
0
VERTEX
8
CUT
10
55.0885
20
42.8011
0
VERTEX
8
CUT
10
58.1578
20
60.1478
0
VERTEX
8
CUT
10
58.1399
20
62.1156
0
VERTEX
8
CUT
10
58.1906
20
62.5129
0
VERTEX
8
CUT
10
58.1275
20
63.4740
0
VERTEX
8
CUT
10
58.0518
20
71.7981
0
VERTEX
8
CUT
10
58.2784
20
73.0348
0
VERTEX
8
CUT
10
59.2034
20
75.7524
0
VERTEX
8
CUT
10
58.0297
20
77.9730
0
VERTEX
8
CUT
10
57.4293
20
80.2992
0
VERTEX
8
CUT
10
57.4351
20
81.7407
0
VERTEX
8
CUT
10
58.0470
20
82.8703
0
VERTEX
8
CUT
10
58.5965
20
82.9975
0
VERTEX
8
CUT
10
58.9367
20
82.7588
0
VERTEX
8
CUT
10
60.3289
20
80.3147
0
VERTEX
8
CUT
10
61.0345
20
79.5201
0
VERTEX
8
CUT
10
61.2485
20
79.1996
0
VERTEX
8
CUT
10
61.4237
20
79.0818
0
VERTEX
8
CUT
10
61.6620
20
78.8134
0
VERTEX
8
CUT
10
62.3902
20
78.3156
0
VERTEX
8
CUT
10
63.9444
20
79.0408
0
VERTEX
8
CUT
10
64.5471
20
79.6024
0
VERTEX
8
CUT
10
65.0262
20
80.3963
0
VERTEX
8
CUT
10
65.9367
20
82.9912
0
VERTEX
8
CUT
10
65.3018
20
84.6725
0
VERTEX
8
CUT
10
62.9799
20
88.6275
0
VERTEX
8
CUT
10
62.7968
20
90.9456
0
VERTEX
8
CUT
10
63.0244
20
92.2252
0
VERTEX
8
CUT
10
63.3712
20
92.9395
0
VERTEX
8
CUT
10
64.5451
20
94.2521
0
VERTEX
8
CUT
10
68.5815
20
96.8656
0
VERTEX
8
CUT
10
69.8581
20
97.9336
0
VERTEX
8
CUT
10
70.6999
20
98.9719
0
VERTEX
8
CUT
10
71.2457
20
100.1590
0
VERTEX
8
CUT
10
71.4771
20
101.3435
0
VERTEX
8
CUT
10
71.3874
20
102.4987
0
VERTEX
8
CUT
10
70.8886
20
103.7633
0
VERTEX
8
CUT
10
70.0820
20
104.8996
0
VERTEX
8
CUT
10
69.1035
20
105.7959
0
VERTEX
8
CUT
10
67.0923
20
106.5188
0
VERTEX
8
CUT
10
61.7941
20
106.8632
0
SEQEND
0
POLYLINE
8
CUT
66
1
70
1
10
0.0
20
0.0
30
0.0
0
VERTEX
8
CUT
10
173.1465
20
130.6393
0
VERTEX
8
CUT
10
174.9385
20
127.8295
0
VERTEX
8
CUT
10
176.9822
20
125.4111
0
VERTEX
8
CUT
10
179.3315
20
123.2306
0
VERTEX
8
CUT
10
181.9662
20
121.3682
0
VERTEX
8
CUT
10
184.8080
20
119.8481
0
VERTEX
8
CUT
10
186.9480
20
119.0805
0
VERTEX
8
CUT
10
187.0562
20
119.0306
0
VERTEX
8
CUT
10
187.1881
20
118.9944
0
VERTEX
8
CUT
10
187.8816
20
118.7456
0
VERTEX
8
CUT
10
188.7986
20
118.5517
0
VERTEX
8
CUT
10
189.4617
20
118.3694
0
VERTEX
8
CUT
10
189.8554
20
118.3282
0
VERTEX
8
CUT
10
192.1117
20
117.8511
0
VERTEX
8
CUT
10
194.9559
20
117.6778
0
VERTEX
8
CUT
10
198.7620
20
118.0955
0
VERTEX
8
CUT
10
201.9851
20
118.9284
0
VERTEX
8
CUT
10
206.6838
20
120.6553
0
VERTEX
8
CUT
10
208.8210
20
121.7926
0
VERTEX
8
CUT
10
210.7110
20
123.2599
0
VERTEX
8
CUT
10
212.2450
20
124.0221
0
VERTEX
8
CUT
10
213.9626
20
124.3411
0
VERTEX
8
CUT
10
219.8237
20
124.4815
0
VERTEX
8
CUT
10
221.4158
20
124.8271
0
VERTEX
8
CUT
10
222.3644
20
125.2712
0
VERTEX
8
CUT
10
223.7454
20
126.2887
0
VERTEX
8
CUT
10
224.8348
20
127.5755
0
VERTEX
8
CUT
10
225.6648
20
129.1936
0
VERTEX
8
CUT
10
226.1829
20
131.1661
0
VERTEX
8
CUT
10
226.3830
20
133.1435
0
VERTEX
8
CUT
10
226.1056
20
133.8144
0
VERTEX
8
CUT
10
225.2755
20
134.2048
0
VERTEX
8
CUT
10
224.0225
20
134.1801
0
VERTEX
8
CUT
10
222.8119
20
133.7255
0
VERTEX
8
CUT
10
220.7350
20
131.9389
0
VERTEX
8
CUT
10
217.7542
20
130.3611
0
VERTEX
8
CUT
10
215.1307
20
129.8579
0
VERTEX
8
CUT
10
213.7271
20
129.3019
0
VERTEX
8
CUT
10
212.3534
20
129.1200
0
VERTEX
8
CUT
10
211.8913
20
129.1537
0
VERTEX
8
CUT
10
211.0857
20
129.2793
0
VERTEX
8
CUT
10
208.8385
20
130.4382
0
VERTEX
8
CUT
10
206.7638
20
132.5725
0
VERTEX
8
CUT
10
205.6761
20
134.2804
0
VERTEX
8
CUT
10
205.0909
20
134.6006
0
VERTEX
8
CUT
10
204.1760
20
134.6250
0
VERTEX
8
CUT
10
203.8616
20
134.2510
0
VERTEX
8
CUT
10
204.0998
20
130.9421
0
VERTEX
8
CUT
10
204.0992
20
130.8402
0
VERTEX
8
CUT
10
204.0988
20
130.7787
0
VERTEX
8
CUT
10
204.0978
20
130.6174
0
VERTEX
8
CUT
10
204.0952
20
130.1956
0
VERTEX
8
CUT
10
204.0090
20
129.2815
0
VERTEX
8
CUT
10
204.0070
20
129.2664
0
VERTEX
8
CUT
10
204.0005
20
129.2171
0
VERTEX
8
CUT
10
203.9890
20
129.1291
0
VERTEX
8
CUT
10
203.9602
20
128.9092
0
VERTEX
8
CUT
10
202.7112
20
126.2013
0
VERTEX
8
CUT
10
201.8730
20
125.1390
0
VERTEX
8
CUT
10
199.7276
20
123.5167
0
VERTEX
8
CUT
10
199.6756
20
123.4915
0
VERTEX
8
CUT
10
197.0264
20
122.4280
0
VERTEX
8
CUT
10
193.9342
20
122.0726
0
VERTEX
8
CUT
10
191.8699
20
122.2871
0
VERTEX
8
CUT
10
191.5053
20
122.5881
0
VERTEX
8
CUT
10
191.4296
20
122.9379
0
VERTEX
8
CUT
10
191.3815
20
123.1603
0
VERTEX
8
CUT
10
191.3690
20
123.2180
0
VERTEX
8
CUT
10
191.3550
20
123.2829
0
VERTEX
8
CUT
10
192.2276
20
127.5896
0
VERTEX
8
CUT
10
192.4030
20
130.0042
0
VERTEX
8
CUT
10
192.2681
20
132.4565
0
VERTEX
8
CUT
10
191.8558
20
134.7745
0
VERTEX
8
CUT
10
191.2657
20
136.8250
0
VERTEX
8
CUT
10
190.4714
20
138.4710
0
VERTEX
8
CUT
10
189.5723
20
139.4882
0
VERTEX
8
CUT
10
188.4835
20
139.8387
0
VERTEX
8
CUT
10
188.1309
20
139.6901
0
VERTEX
8
CUT
10
187.8747
20
139.6449
0
VERTEX
8
CUT
10
187.0405
20
138.9722
0
VERTEX
8
CUT
10
186.2439
20
137.7775
0
VERTEX
8
CUT
10
185.9615
20
137.0842
0
VERTEX
8
CUT
10
185.5785
20
136.4110
0
VERTEX
8
CUT
10
184.6610
20
132.9080
0
VERTEX
8
CUT
10
184.2041
20
125.2798
0
VERTEX
8
CUT
10
183.8150
20
124.8036
0
VERTEX
8
CUT
10
183.0673
20
124.8679
0
VERTEX
8
CUT
10
182.9504
20
124.9263
0
VERTEX
8
CUT
10
182.7856
20
125.0087
0
VERTEX
8
CUT
10
182.7341
20
125.0344
0
VERTEX
8
CUT
10
182.6590
20
125.0720
0
VERTEX
8
CUT
10
181.0480
20
126.1599
0
VERTEX
8
CUT
10
179.3186
20
127.6807
0
VERTEX
8
CUT
10
179.2988
20
127.6996
0
VERTEX
8
CUT
10
179.2798
20
127.7178
0
VERTEX
8
CUT
10
179.2759
20
127.7215
0
VERTEX
8
CUT
10
179.2742
20
127.7231
0
VERTEX
8
CUT
10
176.6835
20
130.6966
0
VERTEX
8
CUT
10
175.0604
20
133.7957
0
VERTEX
8
CUT
10
174.9659
20
134.1080
0
VERTEX
8
CUT
10
174.5424
20
136.0256
0
VERTEX
8
CUT
10
174.5907
20
138.0205
0
VERTEX
8
CUT
10
176.0712
20
141.0877
0
VERTEX
8
CUT
10
177.3672
20
142.8075
0
VERTEX
8
CUT
10
180.6192
20
145.5978
0
VERTEX
8
CUT
10
180.6192
20
145.5980
0
VERTEX
8
CUT
10
180.9212
20
145.8567
0
VERTEX
8
CUT
10
180.8668
20
146.2521
0
VERTEX
8
CUT
10
180.1498
20
146.9081
0
VERTEX
8
CUT
10
178.4651
20
147.3106
0
VERTEX
8
CUT
10
177.8473
20
147.5364
0
VERTEX
8
CUT
10
176.3674
20
148.5271
0
VERTEX
8
CUT
10
175.4605
20
149.6427
0
VERTEX
8
CUT
10
174.2900
20
151.6538
0
VERTEX
8
CUT
10
172.9992
20
152.8348
0
VERTEX
8
CUT
10
172.1504
20
153.0461
0
VERTEX
8
CUT
10
170.8931
20
152.6450
0
VERTEX
8
CUT
10
170.1482
20
152.0862
0
VERTEX
8
CUT
10
169.5582
20
151.2932
0
VERTEX
8
CUT
10
168.8959
20
149.1088
0
VERTEX
8
CUT
10
168.7881
20
147.5864
0
VERTEX
8
CUT
10
169.0633
20
143.9493
0
VERTEX
8
CUT
10
169.5495
20
140.9591
0
VERTEX
8
CUT
10
170.8038
20
136.0480
0
VERTEX
8
CUT
10
171.6953
20
133.6819
0
VERTEX
8
CUT
10
172.8202
20
131.3234
0
VERTEX
8
CUT
10
172.8911
20
131.1523
0
VERTEX
8
CUT
10
172.9341
20
131.0846
0
SEQEND
0
POLYLINE
8
CUT
66
1
70
1
10
0.0
20
0.0
30
0.0
0
VERTEX
8
CUT
10
153.5995
20
178.5122
0
VERTEX
8
CUT
10
155.5025
20
175.5695
0
VERTEX
8
CUT
10
156.6181
20
174.5267
0
VERTEX
8
CUT
10
157.7577
20
173.9720
0
VERTEX
8
CUT
10
160.4318
20
173.7010
0
VERTEX
8
CUT
10
162.7806
20
172.3649
0
VERTEX
8
CUT
10
163.1350
20
172.4421
0
VERTEX
8
CUT
10
163.2709
20
172.8110
0
VERTEX
8
CUT
10
163.1304
20
173.3415
0
VERTEX
8
CUT
10
162.2522
20
174.5364
0
VERTEX
8
CUT
10
156.7891
20
180.1340
0
VERTEX
8
CUT
10
155.2439
20
182.0369
0
VERTEX
8
CUT
10
155.0686
20
182.2207
0
VERTEX
8
CUT
10
153.8133
20
183.7780
0
VERTEX
8
CUT
10
151.5231
20
185.7991
0
VERTEX
8
CUT
10
150.5626
20
186.2333
0
VERTEX
8
CUT
10
149.4570
20
185.6621
0
VERTEX
8
CUT
10
149.2681
20
185.4989
0
VERTEX
8
CUT
10
149.0853
20
185.3913
0
VERTEX
8
CUT
10
147.9722
20
184.3789
0
VERTEX
8
CUT
10
147.7149
20
184.1565
0
VERTEX
8
CUT
10
147.6360
20
184.0732
0
VERTEX
8
CUT
10
147.5895
20
184.0309
0
VERTEX
8
CUT
10
147.3712
20
183.7931
0
VERTEX
8
CUT
10
145.8785
20
182.2144
0
VERTEX
8
CUT
10
143.8627
20
179.5412
0
VERTEX
8
CUT
10
143.1367
20
178.8522
0
VERTEX
8
CUT
10
139.8794
20
176.0052
0
VERTEX
8
CUT
10
138.5417
20
174.6024
0
VERTEX
8
CUT
10
137.5886
20
172.8262
0
VERTEX
8
CUT
10
137.5771
20
172.2681
0
VERTEX
8
CUT
10
137.5313
20
171.8161
0
VERTEX
8
CUT
10
137.5652
20
171.6932
0
VERTEX
8
CUT
10
137.5627
20
171.5703
0
VERTEX
8
CUT
10
137.8698
20
170.5312
0
VERTEX
8
CUT
10
138.1722
20
170.3822
0
VERTEX
8
CUT
10
138.4516
20
170.4963
0
VERTEX
8
CUT
10
139.4893
20
172.2649
0
VERTEX
8
CUT
10
140.3596
20
173.0905
0
VERTEX
8
CUT
10
141.3591
20
173.5993
0
VERTEX
8
CUT
10
143.3514
20
173.9089
0
VERTEX
8
CUT
10
144.4916
20
174.6894
0
VERTEX
8
CUT
10
144.5838
20
174.7950
0
VERTEX
8
CUT
10
144.6796
20
174.8466
0
VERTEX
8
CUT
10
145.0329
20
175.3096
0
VERTEX
8
CUT
10
145.8096
20
176.1996
0
VERTEX
8
CUT
10
146.3354
20
177.9094
0
VERTEX
8
CUT
10
146.4017
20
178.0630
0
VERTEX
8
CUT
10
146.4345
20
178.1391
0
VERTEX
8
CUT
10
146.4965
20
178.2826
0
VERTEX
8
CUT
10
146.5805
20
178.4773
0
VERTEX
8
CUT
10
147.4038
20
179.4139
0
VERTEX
8
CUT
10
149.0818
20
180.3473
0
VERTEX
8
CUT
10
150.5185
20
180.7182
0
VERTEX
8
CUT
10
151.6720
20
180.6434
0
VERTEX
8
CUT
10
152.4019
20
180.1653
0
VERTEX
8
CUT
10
152.6583
20
179.3541
0
SEQEND
0
POLYLINE
8
CUT
66
1
70
1
10
0.0
20
0.0
30
0.0
0
VERTEX
8
CUT
10
99.5714
20
139.7428
0
VERTEX
8
CUT
10
100.5289
20
141.5990
0
VERTEX
8
CUT
10
100.3763
20
142.0663
0
VERTEX
8
CUT
10
100.0126
20
142.0971
0
VERTEX
8
CUT
10
99.3537
20
141.6551
0
VERTEX
8
CUT
10
97.3875
20
139.5054
0
VERTEX
8
CUT
10
97.2324
20
138.4277
0
VERTEX
8
CUT
10
97.4863
20
138.0084
0
VERTEX
8
CUT
10
97.8408
20
137.8711
0
VERTEX
8
CUT
10
98.5074
20
138.3370
0
SEQEND
0
POLYLINE
8
CUT
66
1
70
1
10
0.0
20
0.0
30
0.0
0
VERTEX
8
CUT
10
15.6679
20
226.3839
0
VERTEX
8
CUT
10
18.6284
20
225.1905
0
VERTEX
8
CUT
10
20.9163
20
223.2515
0
VERTEX
8
CUT
10
21.0803
20
223.0952
0
VERTEX
8
CUT
10
21.0887
20
223.0872
0
VERTEX
8
CUT
10
21.1127
20
223.0644
0
VERTEX
8
CUT
10
21.1186
20
223.0587
0
VERTEX
8
CUT
10
22.7890
20
220.1689
0
VERTEX
8
CUT
10
22.8139
20
220.0836
0
VERTEX
8
CUT
10
23.3638
20
216.9471
0
VERTEX
8
CUT
10
23.3637
20
216.9408
0
VERTEX
8
CUT
10
23.3633
20
216.9171
0
VERTEX
8
CUT
10
23.3613
20
216.7711
0
VERTEX
8
CUT
10
23.3468
20
215.7440
0
VERTEX
8
CUT
10
23.1128
20
213.9183
0
VERTEX
8
CUT
10
22.2687
20
211.6736
0
VERTEX
8
CUT
10
20.9148
20
209.6785
0
VERTEX
8
CUT
10
19.1696
20
208.1109
0
VERTEX
8
CUT
10
17.3956
20
207.1131
0
VERTEX
8
CUT
10
16.7224
20
206.8591
0
VERTEX
8
CUT
10
15.6547
20
206.5546
0
VERTEX
8
CUT
10
14.3409
20
206.3200
0
VERTEX
8
CUT
10
13.5405
20
206.2942
0
VERTEX
8
CUT
10
13.1631
20
206.2935
0
VERTEX
8
CUT
10
13.1114
20
206.2934
0
VERTEX
8
CUT
10
13.0270
20
206.2933
0
VERTEX
8
CUT
10
12.2811
20
206.2919
0
VERTEX
8
CUT
10
10.1034
20
206.7632
0
VERTEX
8
CUT
10
10.0006
20
206.8093
0
VERTEX
8
CUT
10
9.8795
20
206.8635
0
VERTEX
8
CUT
10
9.8060
20
206.8964
0
VERTEX
8
CUT
10
9.6466
20
206.9678
0
VERTEX
8
CUT
10
7.6532
20
207.9781
0
VERTEX
8
CUT
10
7.1018
20
208.3775
0
VERTEX
8
CUT
10
5.3938
20
210.0553
0
VERTEX
8
CUT
10
4.2898
20
211.7932
0
VERTEX
8
CUT
10
3.4928
20
213.6056
0
VERTEX
8
CUT
10
3.1759
20
215.1563
0
VERTEX
8
CUT
10
3.1735
20
217.7763
0
VERTEX
8
CUT
10
3.5068
20
219.4201
0
VERTEX
8
CUT
10
3.5145
20
219.4455
0
VERTEX
8
CUT
10
4.3099
20
221.1403
0
VERTEX
8
CUT
10
6.4894
20
224.0640
0
VERTEX
8
CUT
10
9.3615
20
225.9125
0
VERTEX
8
CUT
10
11.9992
20
226.5454
0
VERTEX
8
CUT
10
12.8121
20
226.6005
0
VERTEX
8
CUT
10
12.9203
20
226.6078
0
VERTEX
8
CUT
10
12.9731
20
226.6114
0
VERTEX
8
CUT
10
13.0462
20
226.6163
0
SEQEND
0
POLYLINE
8
CUT
66
1
70
1
10
0.0
20
0.0
30
0.0
0
VERTEX
8
CUT
10
160.5359
20
228.7804
0
VERTEX
8
CUT
10
157.9426
20
227.4875
0
VERTEX
8
CUT
10
157.0444
20
226.2807
0
VERTEX
8
CUT
10
156.5788
20
226.2396
0
VERTEX
8
CUT
10
156.1610
20
227.2658
0
VERTEX
8
CUT
10
155.2694
20
227.7813
0
VERTEX
8
CUT
10
154.8520
20
228.5641
0
VERTEX
8
CUT
10
152.3554
20
230.2071
0
VERTEX
8
CUT
10
150.8968
20
231.9405
0
VERTEX
8
CUT
10
149.1949
20
232.9865
0
VERTEX
8
CUT
10
148.0926
20
234.3402
0
VERTEX
8
CUT
10
147.6754
20
235.3753
0
VERTEX
8
CUT
10
145.9427
20
236.5641
0
VERTEX
8
CUT
10
145.7951
20
236.9009
0
VERTEX
8
CUT
10
145.8648
20
240.1735
0
VERTEX
8
CUT
10
146.3532
20
248.4780
0
VERTEX
8
CUT
10
146.6970
20
249.9404
0
VERTEX
8
CUT
10
148.2765
20
252.2606
0
VERTEX
8
CUT
10
149.1340
20
253.0778
0
VERTEX
8
CUT
10
150.8606
20
254.0997
0
VERTEX
8
CUT
10
152.8334
20
254.2961
0
VERTEX
8
CUT
10
154.9061
20
253.6049
0
VERTEX
8
CUT
10
155.9648
20
252.9339
0
VERTEX
8
CUT
10
156.5483
20
252.2398
0
VERTEX
8
CUT
10
158.0868
20
249.0851
0
VERTEX
8
CUT
10
158.1201
20
248.2909
0
VERTEX
8
CUT
10
158.1338
20
247.9622
0
VERTEX
8
CUT
10
158.1358
20
247.9162
0
VERTEX
8
CUT
10
158.1394
20
247.8293
0
VERTEX
8
CUT
10
157.6228
20
240.5122
0
VERTEX
8
CUT
10
157.6539
20
237.2832
0
VERTEX
8
CUT
10
158.0947
20
235.4758
0
VERTEX
8
CUT
10
158.9518
20
233.4793
0
VERTEX
8
CUT
10
160.7434
20
230.9420
0
VERTEX
8
CUT
10
160.8305
20
229.8808
0
SEQEND
0
POLYLINE
8
CUT
66
1
70
1
10
0.0
20
0.0
30
0.0
0
VERTEX
8
CUT
10
278.3070
20
247.1046
0
VERTEX
8
CUT
10
278.3365
20
247.0921
0
VERTEX
8
CUT
10
278.4484
20
247.0448
0
VERTEX
8
CUT
10
278.6295
20
246.9680
0
VERTEX
8
CUT
10
278.6503
20
246.9543
0
VERTEX
8
CUT
10
280.1887
20
245.8674
0
VERTEX
8
CUT
10
280.2298
20
245.8251
0
VERTEX
8
CUT
10
281.2768
20
244.5165
0
VERTEX
8
CUT
10
282.0613
20
242.8210
0
VERTEX
8
CUT
10
282.3834
20
241.6523
0
VERTEX
8
CUT
10
282.3981
20
241.4937
0
VERTEX
8
CUT
10
282.4216
20
241.2402
0
VERTEX
8
CUT
10
282.4509
20
240.9244
0
VERTEX
8
CUT
10
282.5132
20
240.2514
0
VERTEX
8
CUT
10
282.2386
20
238.6857
0
VERTEX
8
CUT
10
282.1641
20
238.4232
0
VERTEX
8
CUT
10
282.1577
20
238.4008
0
VERTEX
8
CUT
10
282.1326
20
238.3124
0
VERTEX
8
CUT
10
282.0348
20
237.9675
0
VERTEX
8
CUT
10
281.1930
20
236.3419
0
VERTEX
8
CUT
10
280.8095
20
235.9280
0
VERTEX
8
CUT
10
280.5882
20
235.6893
0
VERTEX
8
CUT
10
280.4414
20
235.5308
0
VERTEX
8
CUT
10
279.8337
20
234.8749
0
VERTEX
8
CUT
10
279.5151
20
234.6107
0
VERTEX
8
CUT
10
277.4106
20
233.5585
0
VERTEX
8
CUT
10
275.0814
20
233.1571
0
VERTEX
8
CUT
10
273.5399
20
233.4032
0
VERTEX
8
CUT
10
272.2708
20
233.7921
0
VERTEX
8
CUT
10
271.6359
20
234.1097
0
VERTEX
8
CUT
10
271.5280
20
234.1799
0
VERTEX
8
CUT
10
271.5066
20
234.1938
0
VERTEX
8
CUT
10
271.5029
20
234.1962
0
VERTEX
8
CUT
10
271.2827
20
234.3394
0
VERTEX
8
CUT
10
270.3031
20
235.1348
0
VERTEX
8
CUT
10
269.3355
20
236.2817
0
VERTEX
8
CUT
10
268.6185
20
237.5722
0
VERTEX
8
CUT
10
268.1524
20
238.9708
0
VERTEX
8
CUT
10
267.9729
20
240.4073
0
VERTEX
8
CUT
10
268.0768
20
241.8295
0
VERTEX
8
CUT
10
268.0834
20
241.8623
0
VERTEX
8
CUT
10
268.0967
20
241.9289
0
VERTEX
8
CUT
10
268.1045
20
241.9679
0
VERTEX
8
CUT
10
268.3116
20
242.7398
0
VERTEX
8
CUT
10
268.6121
20
243.5689
0
VERTEX
8
CUT
10
269.5978
20
245.1594
0
VERTEX
8
CUT
10
271.0965
20
246.5002
0
VERTEX
8
CUT
10
272.7867
20
247.3428
0
VERTEX
8
CUT
10
274.6983
20
247.7738
0
VERTEX
8
CUT
10
276.6189
20
247.6673
0
VERTEX
8
CUT
10
277.9823
20
247.2421
0
SEQEND
0
POLYLINE
8
CUT
66
1
70
1
10
0.0
20
0.0
30
0.0
0
VERTEX
8
CUT
10
109.5438
20
288.8518
0
VERTEX
8
CUT
10
109.6967
20
288.8539
0
VERTEX
8
CUT
10
109.7636
20
288.8548
0
VERTEX
8
CUT
10
110.1987
20
288.8607
0
VERTEX
8
CUT
10
111.4737
20
288.7278
0
VERTEX
8
CUT
10
113.0485
20
288.2268
0
VERTEX
8
CUT
10
114.3967
20
287.4855
0
VERTEX
8
CUT
10
115.0988
20
286.9243
0
VERTEX
8
CUT
10
115.2118
20
286.8341
0
VERTEX
8
CUT
10
115.2274
20
286.8215
0
VERTEX
8
CUT
10
115.3018
20
286.7621
0
VERTEX
8
CUT
10
115.6540
20
286.4719
0
VERTEX
8
CUT
10
116.6751
20
285.1802
0
VERTEX
8
CUT
10
116.7005
20
285.1475
0
VERTEX
8
CUT
10
117.4347
20
283.7480
0
VERTEX
8
CUT
10
117.4349
20
283.7476
0
VERTEX
8
CUT
10
117.4359
20
283.7456
0
VERTEX
8
CUT
10
117.4402
20
283.7364
0
VERTEX
8
CUT
10
117.4542
20
283.7064
0
VERTEX
8
CUT
10
117.9163
20
282.0731
0
VERTEX
8
CUT
10
118.0944
20
280.3261
0
VERTEX
8
CUT
10
117.9451
20
278.6195
0
VERTEX
8
CUT
10
117.5218
20
277.1082
0
VERTEX
8
CUT
10
116.8481
20
275.7938
0
VERTEX
8
CUT
10
116.1349
20
274.8394
0
VERTEX
8
CUT
10
115.8006
20
274.4301
0
VERTEX
8
CUT
10
114.7026
20
273.4745
0
VERTEX
8
CUT
10
113.3692
20
272.7038
0
VERTEX
8
CUT
10
111.8060
20
272.1267
0
VERTEX
8
CUT
10
109.3209
20
271.8370
0
VERTEX
8
CUT
10
107.8243
20
272.0627
0
VERTEX
8
CUT
10
107.3233
20
272.2114
0
VERTEX
8
CUT
10
106.9227
20
272.3304
0
VERTEX
8
CUT
10
105.5483
20
273.0045
0
VERTEX
8
CUT
10
104.0773
20
274.1255
0
VERTEX
8
CUT
10
102.7972
20
275.4741
0
VERTEX
8
CUT
10
102.0410
20
276.5915
0
VERTEX
8
CUT
10
101.7169
20
277.2915
0
VERTEX
8
CUT
10
101.4765
20
278.0951
0
VERTEX
8
CUT
10
101.2671
20
279.0154
0
VERTEX
8
CUT
10
101.2432
20
279.3894
0
VERTEX
8
CUT
10
101.2432
20
279.8501
0
VERTEX
8
CUT
10
101.2432
20
280.0332
0
VERTEX
8
CUT
10
101.2432
20
280.1081
0
VERTEX
8
CUT
10
101.2432
20
280.1842
0
VERTEX
8
CUT
10
101.5333
20
282.4851
0
VERTEX
8
CUT
10
102.0152
20
283.8107
0
VERTEX
8
CUT
10
102.1248
20
284.0646
0
VERTEX
8
CUT
10
102.2360
20
284.3222
0
VERTEX
8
CUT
10
102.4112
20
284.7280
0
VERTEX
8
CUT
10
102.6060
20
285.1793
0
VERTEX
8
CUT
10
102.6816
20
285.3043
0
VERTEX
8
CUT
10
103.9243
20
286.7814
0
VERTEX
8
CUT
10
104.9564
20
287.5405
0
VERTEX
8
CUT
10
106.4542
20
288.2580
0
VERTEX
8
CUT
10
108.1364
20
288.7325
0
VERTEX
8
CUT
10
109.2045
20
288.8472
0
SEQEND
0
ENDSEC
0
EOF
