0
SECTION
2
HEADER
9
$ACADVER
1
AC1009
9
$INSUNITS
70
4
0
ENDSEC
0
SECTION
2
TABLES
0
TABLE
2
LAYER
70
1
0
LAYER
2
CUT
70
0
62
7
6
CONTINUOUS
0
ENDTAB
0
ENDSEC
0
SECTION
2
ENTITIES
0
POLYLINE
8
CUT
66
1
70
1
10
0.0
20
0.0
30
0.0
0
VERTEX
8
CUT
10
18.4583
20
33.9906
0
VERTEX
8
CUT
10
20.0411
20
34.3301
0
VERTEX
8
CUT
10
21.5174
20
34.2932
0
VERTEX
8
CUT
10
22.9871
20
33.9354
0
VERTEX
8
CUT
10
23.9540
20
33.4103
0
VERTEX
8
CUT
10
25.0759
20
32.5625
0
VERTEX
8
CUT
10
25.4927
20
32.1820
0
VERTEX
8
CUT
10
26.5321
20
30.5488
0
VERTEX
8
CUT
10
26.7274
20
30.0725
0
VERTEX
8
CUT
10
27.1019
20
28.3335
0
VERTEX
8
CUT
10
27.1036
20
28.2815
0
VERTEX
8
CUT
10
27.0698
20
27.0791
0
VERTEX
8
CUT
10
26.7461
20
25.8175
0
VERTEX
8
CUT
10
26.2056
20
24.6297
0
VERTEX
8
CUT
10
25.4403
20
23.5978
0
VERTEX
8
CUT
10
25.3188
20
23.4670
0
VERTEX
8
CUT
10
24.8335
20
23.0839
0
VERTEX
8
CUT
10
23.3148
20
22.1082
0
VERTEX
8
CUT
10
21.0319
20
21.6326
0
VERTEX
8
CUT
10
19.2146
20
21.7351
0
VERTEX
8
CUT
10
17.7196
20
22.2539
0
VERTEX
8
CUT
10
16.6281
20
23.0960
0
VERTEX
8
CUT
10
15.7094
20
24.0472
0
VERTEX
8
CUT
10
15.0254
20
25.0912
0
VERTEX
8
CUT
10
14.3673
20
27.1666
0
VERTEX
8
CUT
10
14.3116
20
28.0604
0
VERTEX
8
CUT
10
14.3047
20
28.1708
0
VERTEX
8
CUT
10
14.3044
20
28.1766
0
VERTEX
8
CUT
10
14.3044
20
28.1770
0
VERTEX
8
CUT
10
14.3043
20
28.2050
0
VERTEX
8
CUT
10
14.4147
20
29.0945
0
VERTEX
8
CUT
10
14.4156
20
29.1017
0
VERTEX
8
CUT
10
14.5560
20
29.7845
0
VERTEX
8
CUT
10
15.0261
20
30.9752
0
VERTEX
8
CUT
10
15.9618
20
32.3067
0
VERTEX
8
CUT
10
17.1097
20
33.3125
0
SEQEND
0
POLYLINE
8
CUT
66
1
70
1
10
0.0
20
0.0
30
0.0
0
VERTEX
8
CUT
10
293.8926
20
39.3520
0
VERTEX
8
CUT
10
295.0972
20
38.9167
0
VERTEX
8
CUT
10
296.2272
20
38.2936
0
VERTEX
8
CUT
10
297.7637
20
36.9286
0
VERTEX
8
CUT
10
298.6764
20
35.5597
0
VERTEX
8
CUT
10
299.3695
20
33.8775
0
VERTEX
8
CUT
10
299.7213
20
32.0940
0
VERTEX
8
CUT
10
299.6862
20
29.9646
0
VERTEX
8
CUT
10
299.0657
20
27.5626
0
VERTEX
8
CUT
10
297.8729
20
25.5981
0
VERTEX
8
CUT
10
297.0123
20
24.7012
0
VERTEX
8
CUT
10
296.0531
20
23.9583
0
VERTEX
8
CUT
10
294.3050
20
23.0352
0
VERTEX
8
CUT
10
291.9520
20
22.4726
0
VERTEX
8
CUT
10
290.3009
20
22.4005
0
VERTEX
8
CUT
10
288.9970
20
22.6241
0
VERTEX
8
CUT
10
287.1091
20
23.4484
0
VERTEX
8
CUT
10
285.4639
20
24.6388
0
VERTEX
8
CUT
10
284.4031
20
25.7520
0
VERTEX
8
CUT
10
284.1611
20
26.0856
0
VERTEX
8
CUT
10
284.0158
20
26.2857
0
VERTEX
8
CUT
10
283.9025
20
26.4419
0
VERTEX
8
CUT
10
283.5410
20
26.9400
0
VERTEX
8
CUT
10
283.0661
20
28.0896
0
VERTEX
8
CUT
10
282.9411
20
28.4313
0
VERTEX
8
CUT
10
282.9022
20
28.5375
0
VERTEX
8
CUT
10
282.8909
20
28.5684
0
VERTEX
8
CUT
10
282.8778
20
28.6044
0
VERTEX
8
CUT
10
282.5914
20
31.4213
0
VERTEX
8
CUT
10
283.1015
20
34.2863
0
VERTEX
8
CUT
10
284.2211
20
36.4201
0
VERTEX
8
CUT
10
285.1140
20
37.4597
0
VERTEX
8
CUT
10
285.1290
20
37.4747
0
VERTEX
8
CUT
10
285.1356
20
37.4812
0
VERTEX
8
CUT
10
285.1429
20
37.4885
0
VERTEX
8
CUT
10
285.1571
20
37.5025
0
VERTEX
8
CUT
10
285.8334
20
38.0439
0
VERTEX
8
CUT
10
285.9081
20
38.0932
0
VERTEX
8
CUT
10
286.1790
20
38.2718
0
VERTEX
8
CUT
10
286.4700
20
38.4636
0
VERTEX
8
CUT
10
286.5486
20
38.5154
0
VERTEX
8
CUT
10
287.6214
20
39.0657
0
VERTEX
8
CUT
10
288.8088
20
39.4923
0
VERTEX
8
CUT
10
291.3182
20
39.7725
0
SEQEND
0
POLYLINE
8
CUT
66
1
70
1
10
0.0
20
0.0
30
0.0
0
VERTEX
8
CUT
10
68.1812
20
96.7612
0
VERTEX
8
CUT
10
70.2829
20
98.5585
0
VERTEX
8
CUT
10
71.0485
20
99.9807
0
VERTEX
8
CUT
10
71.2761
20
102.0852
0
VERTEX
8
CUT
10
70.7931
20
103.6799
0
VERTEX
8
CUT
10
69.6197
20
105.0458
0
VERTEX
8
CUT
10
68.7098
20
105.7135
0
VERTEX
8
CUT
10
67.0057
20
106.1977
0
VERTEX
8
CUT
10
62.1001
20
106.5154
0
VERTEX
8
CUT
10
59.6040
20
107.0553
0
VERTEX
8
CUT
10
58.5908
20
107.5652
0
VERTEX
8
CUT
10
57.1365
20
108.6680
0
VERTEX
8
CUT
10
55.7740
20
110.8443
0
VERTEX
8
CUT
10
55.5056
20
111.7635
0
VERTEX
8
CUT
10
55.3312
20
113.7207
0
VERTEX
8
CUT
10
55.7736
20
116.5890
0
VERTEX
8
CUT
10
56.7125
20
118.2388
0
VERTEX
8
CUT
10
61.2739
20
122.9411
0
VERTEX
8
CUT
10
62.6183
20
124.8547
0
VERTEX
8
CUT
10
63.3839
20
126.8115
0
VERTEX
8
CUT
10
63.5242
20
128.6647
0
VERTEX
8
CUT
10
63.0777
20
130.5588
0
VERTEX
8
CUT
10
62.0036
20
132.4483
0
VERTEX
8
CUT
10
60.3490
20
134.2701
0
VERTEX
8
CUT
10
55.8788
20
137.8702
0
VERTEX
8
CUT
10
53.7477
20
140.2607
0
VERTEX
8
CUT
10
52.9446
20
141.9015
0
VERTEX
8
CUT
10
52.4713
20
143.9981
0
VERTEX
8
CUT
10
52.6105
20
146.1321
0
VERTEX
8
CUT
10
52.9207
20
147.1646
0
VERTEX
8
CUT
10
54.0446
20
148.8502
0
VERTEX
8
CUT
10
54.9066
20
149.6386
0
VERTEX
8
CUT
10
55.8558
20
150.3048
0
VERTEX
8
CUT
10
57.1904
20
150.9034
0
VERTEX
8
CUT
10
58.6262
20
151.2327
0
VERTEX
8
CUT
10
60.1576
20
151.3085
0
VERTEX
8
CUT
10
61.6974
20
151.0584
0
VERTEX
8
CUT
10
64.7965
20
149.7587
0
VERTEX
8
CUT
10
67.9753
20
147.3695
0
VERTEX
8
CUT
10
70.4182
20
144.6825
0
VERTEX
8
CUT
10
71.3951
20
143.1649
0
VERTEX
8
CUT
10
72.2088
20
141.6009
0
VERTEX
8
CUT
10
73.3575
20
138.0849
0
VERTEX
8
CUT
10
74.2067
20
131.8920
0
VERTEX
8
CUT
10
74.9557
20
128.7914
0
VERTEX
8
CUT
10
76.1533
20
126.4919
0
VERTEX
8
CUT
10
77.8565
20
124.8502
0
VERTEX
8
CUT
10
79.4412
20
124.0146
0
VERTEX
8
CUT
10
80.8033
20
123.6447
0
VERTEX
8
CUT
10
86.9080
20
123.8527
0
VERTEX
8
CUT
10
88.8918
20
123.7106
0
VERTEX
8
CUT
10
91.3156
20
122.6488
0
VERTEX
8
CUT
10
94.5516
20
120.5266
0
VERTEX
8
CUT
10
97.7009
20
119.2426
0
VERTEX
8
CUT
10
101.0520
20
118.4050
0
VERTEX
8
CUT
10
106.5191
20
117.9568
0
VERTEX
8
CUT
10
108.2940
20
117.9928
0
VERTEX
8
CUT
10
111.5763
20
118.4448
0
VERTEX
8
CUT
10
115.3111
20
119.6441
0
VERTEX
8
CUT
10
117.1493
20
120.5096
0
VERTEX
8
CUT
10
118.9756
20
121.5291
0
VERTEX
8
CUT
10
122.1958
20
123.8926
0
VERTEX
8
CUT
10
124.8643
20
126.6945
0
VERTEX
8
CUT
10
127.3760
20
130.2883
0
VERTEX
8
CUT
10
128.3428
20
132.1216
0
VERTEX
8
CUT
10
129.9244
20
136.2478
0
VERTEX
8
CUT
10
131.2524
20
141.7994
0
VERTEX
8
CUT
10
131.8784
20
145.3146
0
VERTEX
8
CUT
10
132.0829
20
147.9038
0
VERTEX
8
CUT
10
131.7842
20
150.0036
0
VERTEX
8
CUT
10
130.9963
20
151.6367
0
VERTEX
8
CUT
10
129.7571
20
152.6871
0
VERTEX
8
CUT
10
128.6336
20
152.9733
0
VERTEX
8
CUT
10
127.7548
20
152.7273
0
VERTEX
8
CUT
10
126.8222
20
151.9602
0
VERTEX
8
CUT
10
124.8312
20
148.9297
0
VERTEX
8
CUT
10
123.7383
20
147.8779
0
VERTEX
8
CUT
10
122.5490
20
147.3053
0
VERTEX
8
CUT
10
120.0248
20
146.9445
0
VERTEX
8
CUT
10
118.9210
20
146.5271
0
VERTEX
8
CUT
10
119.0302
20
145.9709
0
VERTEX
8
CUT
10
122.6822
20
143.4905
0
VERTEX
8
CUT
10
124.6687
20
141.3335
0
VERTEX
8
CUT
10
126.0012
20
138.8568
0
VERTEX
8
CUT
10
126.3593
20
137.6016
0
VERTEX
8
CUT
10
126.4657
20
136.3798
0
VERTEX
8
CUT
10
126.3230
20
135.0765
0
VERTEX
8
CUT
10
125.8521
20
133.6649
0
VERTEX
8
CUT
10
125.1757
20
132.1767
0
VERTEX
8
CUT
10
123.2262
20
129.2176
0
VERTEX
8
CUT
10
120.6525
20
126.6077
0
VERTEX
8
CUT
10
117.5996
20
124.6296
0
VERTEX
8
CUT
10
116.9785
20
124.5530
0
VERTEX
8
CUT
10
116.5524
20
124.7569
0
VERTEX
8
CUT
10
116.2155
20
125.4469
0
VERTEX
8
CUT
10
115.8606
20
132.8801
0
VERTEX
8
CUT
10
115.1496
20
136.3809
0
VERTEX
8
CUT
10
114.2136
20
138.0834
0
VERTEX
8
CUT
10
113.0222
20
139.4432
0
VERTEX
8
CUT
10
112.3957
20
139.8239
0
VERTEX
8
CUT
10
111.7210
20
139.7162
0
VERTEX
8
CUT
10
111.0656
20
139.2575
0
VERTEX
8
CUT
10
110.3191
20
138.3212
0
VERTEX
8
CUT
10
109.1272
20
135.5684
0
VERTEX
8
CUT
10
108.7102
20
133.8756
0
VERTEX
8
CUT
10
108.2940
20
130.3318
0
VERTEX
8
CUT
10
108.3952
20
128.6164
0
VERTEX
8
CUT
10
109.4768
20
123.2329
0
VERTEX
8
CUT
10
109.4080
20
122.5852
0
VERTEX
8
CUT
10
108.7349
20
121.9076
0
VERTEX
8
CUT
10
106.3335
20
121.8282
0
VERTEX
8
CUT
10
104.1311
20
122.2268
0
VERTEX
8
CUT
10
102.2075
20
122.8576
0
VERTEX
8
CUT
10
100.5246
20
123.7678
0
VERTEX
8
CUT
10
99.1059
20
124.9614
0
VERTEX
8
CUT
10
97.9622
20
126.3568
0
VERTEX
8
CUT
10
97.2088
20
127.9341
0
VERTEX
8
CUT
10
96.7799
20
129.7218
0
VERTEX
8
CUT
10
96.7759
20
133.2242
0
VERTEX
8
CUT
10
96.4685
20
133.6809
0
VERTEX
8
CUT
10
95.3502
20
133.2848
0
VERTEX
8
CUT
10
94.4326
20
132.5779
0
VERTEX
8
CUT
10
91.7840
20
129.8662
0
VERTEX
8
CUT
10
91.1130
20
129.4764
0
VERTEX
8
CUT
10
89.7790
20
129.1255
0
VERTEX
8
CUT
10
88.0894
20
129.1579
0
VERTEX
8
CUT
10
85.2963
20
129.7162
0
VERTEX
8
CUT
10
82.7948
20
130.9462
0
VERTEX
8
CUT
10
81.7240
20
131.7370
0
VERTEX
8
CUT
10
79.9958
20
133.7509
0
VERTEX
8
CUT
10
79.3422
20
134.9556
0
VERTEX
8
CUT
10
78.6389
20
137.2504
0
VERTEX
8
CUT
10
78.5323
20
138.5305
0
VERTEX
8
CUT
10
78.8473
20
141.1172
0
VERTEX
8
CUT
10
79.2478
20
142.6047
0
VERTEX
8
CUT
10
80.8536
20
146.3121
0
VERTEX
8
CUT
10
81.2840
20
149.1691
0
VERTEX
8
CUT
10
81.1173
20
150.4115
0
VERTEX
8
CUT
10
80.8421
20
151.0336
0
VERTEX
8
CUT
10
78.2052
20
154.5624
0
VERTEX
8
CUT
10
77.1535
20
156.7017
0
VERTEX
8
CUT
10
76.8913
20
157.8353
0
VERTEX
8
CUT
10
77.0384
20
159.8755
0
VERTEX
8
CUT
10
77.4102
20
160.9074
0
VERTEX
8
CUT
10
78.6400
20
162.7695
0
VERTEX
8
CUT
10
80.3472
20
164.1555
0
VERTEX
8
CUT
10
82.4366
20
164.9728
0
VERTEX
8
CUT
10
83.6915
20
165.1565
0
VERTEX
8
CUT
10
88.6102
20
165.1250
0
VERTEX
8
CUT
10
90.0803
20
165.3948
0
VERTEX
8
CUT
10
91.8638
20
166.6132
0
VERTEX
8
CUT
10
93.1321
20
168.0588
0
VERTEX
8
CUT
10
93.4152
20
168.5261
0
VERTEX
8
CUT
10
93.3672
20
168.8494
0
VERTEX
8
CUT
10
92.2700
20
169.2375
0
VERTEX
8
CUT
10
90.7012
20
169.3803
0
VERTEX
8
CUT
10
77.8467
20
169.9399
0
VERTEX
8
CUT
10
67.7110
20
171.1288
0
VERTEX
8
CUT
10
61.0730
20
172.4217
0
VERTEX
8
CUT
10
52.6613
20
174.5856
0
VERTEX
8
CUT
10
52.0147
20
174.8181
0
VERTEX
8
CUT
10
51.5139
20
175.2739
0
VERTEX
8
CUT
10
51.3288
20
176.3164
0
VERTEX
8
CUT
10
51.9040
20
177.0240
0
VERTEX
8
CUT
10
52.7451
20
177.0566
0
VERTEX
8
CUT
10
63.1300
20
176.2535
0
VERTEX
8
CUT
10
72.6456
20
175.8005
0
VERTEX
8
CUT
10
82.9337
20
175.5565
0
VERTEX
8
CUT
10
93.1379
20
175.7633
0
VERTEX
8
CUT
10
94.9060
20
176.1496
0
VERTEX
8
CUT
10
95.6479
20
176.8193
0
VERTEX
8
CUT
10
96.5686
20
178.5940
0
VERTEX
8
CUT
10
96.3511
20
179.8748
0
VERTEX
8
CUT
10
95.3462
20
181.4360
0
VERTEX
8
CUT
10
94.7692
20
181.9777
0
VERTEX
8
CUT
10
93.9151
20
182.3924
0
VERTEX
8
CUT
10
86.7803
20
184.0756
0
VERTEX
8
CUT
10
80.4963
20
185.8909
0
VERTEX
8
CUT
10
76.5674
20
187.2242
0
VERTEX
8
CUT
10
70.4575
20
189.7730
0
VERTEX
8
CUT
10
63.9603
20
193.0213
0
VERTEX
8
CUT
10
60.7781
20
194.8740
0
VERTEX
8
CUT
10
59.1057
20
196.2228
0
VERTEX
8
CUT
10
58.6985
20
196.8558
0
VERTEX
8
CUT
10
58.7300
20
197.1936
0
VERTEX
8
CUT
10
59.3354
20
197.7752
0
VERTEX
8
CUT
10
61.0803
20
197.5962
0
VERTEX
8
CUT
10
77.3674
20
192.3646
0
VERTEX
8
CUT
10
85.9425
20
190.1686
0
VERTEX
8
CUT
10
96.0222
20
188.1521
0
VERTEX
8
CUT
10
96.8231
20
188.0956
0
VERTEX
8
CUT
10
97.7444
20
188.4682
0
VERTEX
8
CUT
10
99.5650
20
190.1846
0
VERTEX
8
CUT
10
100.5243
20
191.6166
0
VERTEX
8
CUT
10
101.0252
20
193.1688
0
VERTEX
8
CUT
10
100.8242
20
193.8620
0
VERTEX
8
CUT
10
100.1277
20
194.4779
0
VERTEX
8
CUT
10
95.1831
20
197.1738
0
VERTEX
8
CUT
10
91.4718
20
199.5186
0
VERTEX
8
CUT
10
84.3933
20
204.7049
0
VERTEX
8
CUT
10
81.4720
20
207.1740
0
VERTEX
8
CUT
10
79.1971
20
209.4161
0
VERTEX
8
CUT
10
77.8491
20
211.1334
0
VERTEX
8
CUT
10
77.6246
20
212.2942
0
VERTEX
8
CUT
10
77.8413
20
212.6295
0
VERTEX
8
CUT
10
78.5502
20
212.8155
0
VERTEX
8
CUT
10
79.5090
20
212.4746
0
VERTEX
8
CUT
10
88.1232
20
207.1037
0
VERTEX
8
CUT
10
95.2310
20
203.0965
0
VERTEX
8
CUT
10
101.2711
20
200.0594
0
VERTEX
8
CUT
10
103.2630
20
199.2026
0
VERTEX
8
CUT
10
104.1839
20
198.9950
0
VERTEX
8
CUT
10
104.8414
20
199.4899
0
VERTEX
8
CUT
10
105.7022
20
201.5133
0
VERTEX
8
CUT
10
106.6892
20
202.9945
0
VERTEX
8
CUT
10
107.5277
20
203.8703
0
VERTEX
8
CUT
10
108.7082
20
204.6246
0
VERTEX
8
CUT
10
110.4798
20
205.0017
0
VERTEX
8
CUT
10
118.2395
20
205.4500
0
VERTEX
8
CUT
10
119.2361
20
205.7919
0
VERTEX
8
CUT
10
121.2135
20
207.2345
0
VERTEX
8
CUT
10
122.1306
20
208.1815
0
VERTEX
8
CUT
10
123.4900
20
210.5110
0
VERTEX
8
CUT
10
124.2735
20
213.4227
0
VERTEX
8
CUT
10
124.6529
20
219.4155
0
VERTEX
8
CUT
10
124.9686
20
221.3222
0
VERTEX
8
CUT
10
125.6483
20
223.0547
0
VERTEX
8
CUT
10
126.6895
20
224.7769
0
VERTEX
8
CUT
10
127.9730
20
226.2343
0
VERTEX
8
CUT
10
129.7458
20
227.3179
0
VERTEX
8
CUT
10
131.9480
20
228.0954
0
VERTEX
8
CUT
10
137.9447
20
229.1441
0
VERTEX
8
CUT
10
140.4198
20
230.2128
0
VERTEX
8
CUT
10
141.4896
20
231.0330
0
VERTEX
8
CUT
10
143.2206
20
233.1817
0
VERTEX
8
CUT
10
144.9368
20
236.7630
0
VERTEX
8
CUT
10
145.2393
20
238.2930
0
VERTEX
8
CUT
10
146.0052
20
247.7946
0
VERTEX
8
CUT
10
146.6407
20
250.1007
0
VERTEX
8
CUT
10
147.1038
20
250.9995
0
VERTEX
8
CUT
10
148.3944
20
252.6199
0
VERTEX
8
CUT
10
149.5868
20
253.5999
0
VERTEX
8
CUT
10
150.8076
20
254.2466
0
VERTEX
8
CUT
10
152.1316
20
254.5417
0
VERTEX
8
CUT
10
153.3449
20
254.4667
0
VERTEX
8
CUT
10
154.5055
20
254.0811
0
VERTEX
8
CUT
10
155.6650
20
253.3057
0
VERTEX
8
CUT
10
156.7068
20
252.1927
0
VERTEX
8
CUT
10
157.8030
20
250.3927
0
VERTEX
8
CUT
10
158.0676
20
249.5441
0
VERTEX
8
CUT
10
158.1810
20
246.8352
0
VERTEX
8
CUT
10
158.0066
20
238.2328
0
VERTEX
8
CUT
10
158.4307
20
234.8290
0
VERTEX
8
CUT
10
159.8355
20
232.7051
0
VERTEX
8
CUT
10
163.1270
20
229.3411
0
VERTEX
8
CUT
10
164.5198
20
227.5307
0
VERTEX
8
CUT
10
166.4652
20
223.3358
0
VERTEX
8
CUT
10
167.5687
20
221.6262
0
VERTEX
8
CUT
10
168.3780
20
220.9138
0
VERTEX
8
CUT
10
169.5956
20
220.3653
0
VERTEX
8
CUT
10
171.3060
20
220.2900
0
VERTEX
8
CUT
10
173.0305
20
220.8449
0
VERTEX
8
CUT
10
173.9582
20
221.3799
0
VERTEX
8
CUT
10
178.1396
20
224.9122
0
VERTEX
8
CUT
10
179.8989
20
225.3758
0
VERTEX
8
CUT
10
181.6234
20
225.1646
0
VERTEX
8
CUT
10
182.5230
20
224.7731
0
VERTEX
8
CUT
10
183.9132
20
223.5925
0
VERTEX
8
CUT
10
184.7991
20
221.9826
0
VERTEX
8
CUT
10
184.8702
20
220.0339
0
VERTEX
8
CUT
10
184.3147
20
213.6617
0
VERTEX
8
CUT
10
184.4463
20
212.5305
0
VERTEX
8
CUT
10
184.9424
20
211.5014
0
VERTEX
8
CUT
10
186.1358
20
210.2499
0
VERTEX
8
CUT
10
187.1134
20
209.6990
0
VERTEX
8
CUT
10
188.2163
20
209.3979
0
VERTEX
8
CUT
10
189.5760
20
209.4660
0
VERTEX
8
CUT
10
193.5247
20
210.6082
0
VERTEX
8
CUT
10
195.0715
20
210.7576
0
VERTEX
8
CUT
10
196.4362
20
210.4243
0
VERTEX
8
CUT
10
197.6573
20
209.6056
0
VERTEX
8
CUT
10
199.0744
20
207.7613
0
VERTEX
8
CUT
10
199.4525
20
206.3079
0
VERTEX
8
CUT
10
199.3477
20
204.7709
0
VERTEX
8
CUT
10
198.9934
20
203.5540
0
VERTEX
8
CUT
10
197.9178
20
201.4340
0
VERTEX
8
CUT
10
197.9487
20
200.3455
0
VERTEX
8
CUT
10
198.3167
20
199.6993
0
VERTEX
8
CUT
10
199.0739
20
199.7032
0
VERTEX
8
CUT
10
200.6423
20
200.2824
0
VERTEX
8
CUT
10
205.4985
20
202.6768
0
VERTEX
8
CUT
10
211.7700
20
206.2309
0
VERTEX
8
CUT
10
221.7102
20
212.5091
0
VERTEX
8
CUT
10
222.5508
20
212.7083
0
VERTEX
8
CUT
10
223.3745
20
212.1800
0
VERTEX
8
CUT
10
223.3930
20
211.3147
0
VERTEX
8
CUT
10
222.3253
20
209.6813
0
VERTEX
8
CUT
10
218.7376
20
206.3031
0
VERTEX
8
CUT
10
210.9439
20
200.2225
0
VERTEX
8
CUT
10
208.2809
20
198.3662
0
VERTEX
8
CUT
10
203.3205
20
195.3607
0
VERTEX
8
CUT
10
201.6802
20
194.0893
0
VERTEX
8
CUT
10
201.3765
20
193.1462
0
VERTEX
8
CUT
10
201.7745
20
191.5480
0
VERTEX
8
CUT
10
202.6834
20
189.5267
0
VERTEX
8
CUT
10
203.6125
20
188.4025
0
VERTEX
8
CUT
10
204.5817
20
188.1510
0
VERTEX
8
CUT
10
206.5219
20
188.2563
0
VERTEX
8
CUT
10
217.5526
20
190.4845
0
VERTEX
8
CUT
10
225.7723
20
192.7138
0
VERTEX
8
CUT
10
241.5765
20
197.6681
0
VERTEX
8
CUT
10
242.4164
20
197.5866
0
VERTEX
8
CUT
10
243.0497
20
196.9448
0
VERTEX
8
CUT
10
243.0834
20
196.5176
0
VERTEX
8
CUT
10
242.5973
20
195.8682
0
VERTEX
8
CUT
10
240.6262
20
194.5311
0
VERTEX
8
CUT
10
235.9989
20
192.0422
0
VERTEX
8
CUT
10
229.0091
20
188.7575
0
VERTEX
8
CUT
10
223.3436
20
186.5199
0
VERTEX
8
CUT
10
217.6595
20
184.7066
0
VERTEX
8
CUT
10
206.8078
20
182.1179
0
VERTEX
8
CUT
10
205.7425
20
181.2429
0
VERTEX
8
CUT
10
205.2507
20
179.8454
0
VERTEX
8
CUT
10
205.1788
20
178.9483
0
VERTEX
8
CUT
10
205.5775
20
177.2865
0
VERTEX
8
CUT
10
206.0268
20
176.5645
0
VERTEX
8
CUT
10
206.9131
20
175.6978
0
VERTEX
8
CUT
10
224.6429
20
175.6960
0
VERTEX
8
CUT
10
235.4792
20
175.9050
0
VERTEX
8
CUT
10
242.5603
20
176.4633
0
VERTEX
8
CUT
10
248.5335
20
177.2655
0
VERTEX
8
CUT
10
249.2070
20
177.0002
0
VERTEX
8
CUT
10
249.7886
20
176.2048
0
VERTEX
8
CUT
10
249.7446
20
175.7676
0
VERTEX
8
CUT
10
248.6150
20
174.7151
0
VERTEX
8
CUT
10
245.8306
20
173.6880
0
VERTEX
8
CUT
10
241.7005
20
172.6277
0
VERTEX
8
CUT
10
236.5823
20
171.6528
0
VERTEX
8
CUT
10
224.6191
20
170.1484
0
VERTEX
8
CUT
10
218.4340
20
169.6945
0
VERTEX
8
CUT
10
209.4367
20
169.4498
0
VERTEX
8
CUT
10
207.9272
20
169.1980
0
VERTEX
8
CUT
10
207.6734
20
168.8510
0
VERTEX
8
CUT
10
207.8353
20
168.3535
0
VERTEX
8
CUT
10
208.9002
20
167.0354
0
VERTEX
8
CUT
10
209.6575
20
166.3554
0
VERTEX
8
CUT
10
211.3121
20
165.4997
0
VERTEX
8
CUT
10
212.2858
20
165.2591
0
VERTEX
8
CUT
10
214.2641
20
165.1932
0
VERTEX
8
CUT
10
219.0242
20
165.9943
0
VERTEX
8
CUT
10
221.7274
20
165.8922
0
VERTEX
8
CUT
10
223.7946
20
165.0457
0
VERTEX
8
CUT
10
224.9471
20
164.1376
0
VERTEX
8
CUT
10
225.9049
20
163.0324
0
VERTEX
8
CUT
10
226.8230
20
161.1615
0
VERTEX
8
CUT
10
227.0438
20
160.0808
0
VERTEX
8
CUT
10
227.1196
20
158.1486
0
VERTEX
8
CUT
10
226.9063
20
157.2344
0
VERTEX
8
CUT
10
225.9198
20
155.3264
0
VERTEX
8
CUT
10
222.6790
20
151.1961
0
VERTEX
8
CUT
10
221.9886
20
149.2176
0
VERTEX
8
CUT
10
221.9669
20
148.2799
0
VERTEX
8
CUT
10
222.5310
20
146.3768
0
VERTEX
8
CUT
10
223.5644
20
144.7985
0
VERTEX
8
CUT
10
224.9765
20
143.6168
0
VERTEX
8
CUT
10
226.1937
20
143.0707
0
VERTEX
8
CUT
10
227.6898
20
142.6943
0
VERTEX
8
CUT
10
229.5194
20
142.6903
0
VERTEX
8
CUT
10
231.3708
20
143.4641
0
VERTEX
8
CUT
10
234.7656
20
145.7028
0
VERTEX
8
CUT
10
237.1761
20
146.9048
0
VERTEX
8
CUT
10
239.7332
20
147.6459
0
VERTEX
8
CUT
10
241.1362
20
147.8201
0
VERTEX
8
CUT
10
242.5423
20
147.7510
0
VERTEX
8
CUT
10
245.2433
20
146.9987
0
VERTEX
8
CUT
10
247.5144
20
145.4416
0
VERTEX
8
CUT
10
249.2487
20
143.1730
0
VERTEX
8
CUT
10
249.8561
20
141.3965
0
VERTEX
8
CUT
10
250.0058
20
139.4192
0
VERTEX
8
CUT
10
249.7234
20
137.4555
0
VERTEX
8
CUT
10
249.0123
20
135.6661
0
VERTEX
8
CUT
10
248.1581
20
134.4138
0
VERTEX
8
CUT
10
246.4011
20
132.9097
0
VERTEX
8
CUT
10
241.5078
20
130.4619
0
VERTEX
8
CUT
10
239.6766
20
129.1667
0
VERTEX
8
CUT
10
238.6619
20
127.6626
0
VERTEX
8
CUT
10
238.0471
20
125.6409
0
VERTEX
8
CUT
10
238.1742
20
123.6596
0
VERTEX
8
CUT
10
239.0454
20
121.6432
0
VERTEX
8
CUT
10
242.4385
20
117.3345
0
VERTEX
8
CUT
10
243.8597
20
114.7620
0
VERTEX
8
CUT
10
244.2836
20
112.2168
0
VERTEX
8
CUT
10
244.0740
20
110.1185
0
VERTEX
8
CUT
10
243.6690
20
108.9319
0
VERTEX
8
CUT
10
242.9701
20
107.8329
0
VERTEX
8
CUT
10
241.9591
20
106.7870
0
VERTEX
8
CUT
10
239.8059
20
105.5218
0
VERTEX
8
CUT
10
237.9470
20
105.1174
0
VERTEX
8
CUT
10
232.5306
20
104.6728
0
VERTEX
8
CUT
10
230.3188
20
103.7814
0
VERTEX
8
CUT
10
229.5491
20
103.0938
0
VERTEX
8
CUT
10
229.0145
20
102.2861
0
VERTEX
8
CUT
10
228.6890
20
101.3061
0
VERTEX
8
CUT
10
228.5873
20
100.1837
0
VERTEX
8
CUT
10
228.7539
20
98.6139
0
VERTEX
8
CUT
10
229.4084
20
97.1459
0
VERTEX
8
CUT
10
230.7047
20
95.5137
0
VERTEX
8
CUT
10
235.0520
20
91.1315
0
VERTEX
8
CUT
10
236.7915
20
88.3347
0
VERTEX
8
CUT
10
237.4099
20
85.8148
0
VERTEX
8
CUT
10
237.4973
20
78.1420
0
VERTEX
8
CUT
10
240.1718
20
75.0130
0
VERTEX
8
CUT
10
241.0583
20
72.9281
0
VERTEX
8
CUT
10
241.3468
20
71.6094
0
VERTEX
8
CUT
10
242.0158
20
60.0613
0
VERTEX
8
CUT
10
244.4214
20
44.3743
0
VERTEX
8
CUT
10
245.1564
20
37.4415
0
VERTEX
8
CUT
10
245.2959
20
34.5306
0
VERTEX
8
CUT
10
245.0847
20
29.3818
0
VERTEX
8
CUT
10
244.7983
20
26.9755
0
VERTEX
8
CUT
10
243.7479
20
22.7806
0
VERTEX
8
CUT
10
242.1260
20
19.4300
0
VERTEX
8
CUT
10
239.9596
20
16.9414
0
VERTEX
8
CUT
10
237.2650
20
15.3959
0
VERTEX
8
CUT
10
234.1033
20
14.7593
0
VERTEX
8
CUT
10
230.6019
20
15.0761
0
VERTEX
8
CUT
10
226.6315
20
16.3199
0
VERTEX
8
CUT
10
222.3536
20
18.5318
0
VERTEX
8
CUT
10
217.2995
20
22.0873
0
VERTEX
8
CUT
10
214.4989
20
24.3622
0
VERTEX
8
CUT
10
208.6960
20
29.5704
0
VERTEX
8
CUT
10
203.0013
20
35.3694
0
VERTEX
8
CUT
10
198.1745
20
40.9303
0
VERTEX
8
CUT
10
192.0600
20
48.5827
0
VERTEX
8
CUT
10
187.8702
20
54.5532
0
VERTEX
8
CUT
10
186.4122
20
57.3339
0
VERTEX
8
CUT
10
185.8819
20
59.3961
0
VERTEX
8
CUT
10
185.2872
20
66.2719
0
VERTEX
8
CUT
10
184.6908
20
68.5017
0
VERTEX
8
CUT
10
183.5215
20
69.9864
0
VERTEX
8
CUT
10
179.6864
20
72.7125
0
VERTEX
8
CUT
10
178.2693
20
73.9519
0
VERTEX
8
CUT
10
177.1551
20
75.2835
0
VERTEX
8
CUT
10
175.6580
20
77.9268
0
VERTEX
8
CUT
10
174.9005
20
78.8839
0
VERTEX
8
CUT
10
173.0522
20
80.2393
0
VERTEX
8
CUT
10
171.1288
20
80.6885
0
VERTEX
8
CUT
10
169.9745
20
80.5809
0
VERTEX
8
CUT
10
168.0018
20
79.7190
0
VERTEX
8
CUT
10
167.2140
20
79.0308
0
VERTEX
8
CUT
10
166.6373
20
78.1886
0
VERTEX
8
CUT
10
166.0016
20
75.9955
0
VERTEX
8
CUT
10
165.9619
20
74.5897
0
VERTEX
8
CUT
10
167.0076
20
68.2503
0
VERTEX
8
CUT
10
167.1467
20
66.0254
0
VERTEX
8
CUT
10
166.9374
20
64.1050
0
VERTEX
8
CUT
10
166.3196
20
62.3499
0
VERTEX
8
CUT
10
165.3008
20
60.5581
0
VERTEX
8
CUT
10
164.4293
20
59.6880
0
VERTEX
8
CUT
10
162.7477
20
58.7619
0
VERTEX
8
CUT
10
161.3700
20
58.3329
0
VERTEX
8
CUT
10
159.3426
20
58.3686
0
VERTEX
8
CUT
10
157.0831
20
59.2230
0
VERTEX
8
CUT
10
155.5512
20
60.2118
0
VERTEX
8
CUT
10
154.2372
20
61.5670
0
VERTEX
8
CUT
10
153.1867
20
63.2129
0
VERTEX
8
CUT
10
150.8842
20
69.1387
0
VERTEX
8
CUT
10
149.9945
20
70.5488
0
VERTEX
8
CUT
10
148.9122
20
71.7704
0
VERTEX
8
CUT
10
147.7879
20
72.6360
0
VERTEX
8
CUT
10
146.3594
20
73.0759
0
VERTEX
8
CUT
10
144.5112
20
72.7864
0
VERTEX
8
CUT
10
142.7233
20
71.6739
0
VERTEX
8
CUT
10
141.8209
20
70.7675
0
VERTEX
8
CUT
10
138.8119
20
66.5109
0
VERTEX
8
CUT
10
136.9599
20
64.7745
0
VERTEX
8
CUT
10
136.2451
20
64.3724
0
VERTEX
8
CUT
10
134.9672
20
64.1598
0
VERTEX
8
CUT
10
133.3330
20
64.1936
0
VERTEX
8
CUT
10
132.1580
20
64.4991
0
VERTEX
8
CUT
10
131.0881
20
65.2783
0
VERTEX
8
CUT
10
129.6427
20
67.1817
0
VERTEX
8
CUT
10
129.2267
20
68.3450
0
VERTEX
8
CUT
10
129.1190
20
69.6007
0
VERTEX
8
CUT
10
129.5531
20
72.5783
0
VERTEX
8
CUT
10
132.3278
20
79.7483
0
VERTEX
8
CUT
10
132.5682
20
81.4872
0
VERTEX
8
CUT
10
132.4766
20
82.2555
0
VERTEX
8
CUT
10
131.9087
20
83.7840
0
VERTEX
8
CUT
10
131.1066
20
84.9336
0
VERTEX
8
CUT
10
129.7163
20
85.8533
0
VERTEX
8
CUT
10
128.4200
20
86.0662
0
VERTEX
8
CUT
10
126.8443
20
85.8064
0
VERTEX
8
CUT
10
125.9761
20
85.4453
0
VERTEX
8
CUT
10
125.2284
20
84.9429
0
VERTEX
8
CUT
10
124.6173
20
84.2366
0
VERTEX
8
CUT
10
123.6974
20
82.2506
0
VERTEX
8
CUT
10
122.6629
20
76.5810
0
VERTEX
8
CUT
10
121.7231
20
74.4056
0
VERTEX
8
CUT
10
120.0287
20
72.6043
0
VERTEX
8
CUT
10
115.9556
20
69.5715
0
VERTEX
8
CUT
10
114.6998
20
67.8538
0
VERTEX
8
CUT
10
114.2230
20
65.7609
0
VERTEX
8
CUT
10
114.0090
20
58.0850
0
VERTEX
8
CUT
10
113.6047
20
56.8036
0
VERTEX
8
CUT
10
112.2757
20
54.2862
0
VERTEX
8
CUT
10
106.8510
20
46.7601
0
VERTEX
8
CUT
10
101.0603
20
39.4693
0
VERTEX
8
CUT
10
97.6621
20
35.5107
0
VERTEX
8
CUT
10
94.2034
20
31.7729
0
VERTEX
8
CUT
10
87.3656
20
25.1094
0
VERTEX
8
CUT
10
80.8984
20
19.8296
0
VERTEX
8
CUT
10
77.8604
20
17.7812
0
VERTEX
8
CUT
10
73.2875
20
15.4075
0
VERTEX
8
CUT
10
69.5896
20
14.2774
0
VERTEX
8
CUT
10
66.1372
20
13.8866
0
VERTEX
8
CUT
10
63.0195
20
14.2774
0
VERTEX
8
CUT
10
61.6893
20
14.7817
0
VERTEX
8
CUT
10
59.0701
20
16.5507
0
VERTEX
8
CUT
10
56.9717
20
19.1417
0
VERTEX
8
CUT
10
55.4814
20
22.5071
0
VERTEX
8
CUT
10
54.5279
20
26.7223
0
VERTEX
8
CUT
10
54.1451
20
31.6605
0
VERTEX
8
CUT
10
54.3213
20
37.4313
0
VERTEX
8
CUT
10
55.0559
20
44.0010
0
VERTEX
8
CUT
10
57.5332
20
57.3651
0
VERTEX
8
CUT
10
58.1906
20
62.5129
0
VERTEX
8
CUT
10
57.6683
20
70.4681
0
VERTEX
8
CUT
10
58.5355
20
75.2579
0
VERTEX
8
CUT
10
57.3225
20
78.5315
0
VERTEX
8
CUT
10
57.1447
20
81.1107
0
VERTEX
8
CUT
10
57.5880
20
82.7832
0
VERTEX
8
CUT
10
58.7994
20
84.8437
0
VERTEX
8
CUT
10
60.5276
20
86.6424
0
VERTEX
8
CUT
10
62.6047
20
87.9527
0
VERTEX
8
CUT
10
62.5205
20
91.1226
0
VERTEX
8
CUT
10
63.2492
20
93.0200
0
VERTEX
8
CUT
10
64.7589
20
94.6744
0
SEQEND
0
POLYLINE
8
CUT
66
1
70
1
10
0.0
20
0.0
30
0.0
0
VERTEX
8
CUT
10
182.6523
20
121.0606
0
VERTEX
8
CUT
10
187.0562
20
119.0306
0
VERTEX
8
CUT
10
189.4617
20
118.3694
0
VERTEX
8
CUT
10
192.0771
20
118.0958
0
VERTEX
8
CUT
10
196.6945
20
118.1313
0
VERTEX
8
CUT
10
200.9170
20
118.6528
0
VERTEX
8
CUT
10
204.7360
20
119.9953
0
VERTEX
8
CUT
10
207.4701
20
121.2403
0
VERTEX
8
CUT
10
210.8021
20
123.5297
0
VERTEX
8
CUT
10
212.4651
20
124.2686
0
VERTEX
8
CUT
10
214.3860
20
124.5854
0
VERTEX
8
CUT
10
219.5400
20
124.6902
0
VERTEX
8
CUT
10
222.0514
20
125.2545
0
VERTEX
8
CUT
10
222.7715
20
125.6518
0
VERTEX
8
CUT
10
223.9395
20
126.6926
0
VERTEX
8
CUT
10
224.7259
20
127.7403
0
VERTEX
8
CUT
10
225.4315
20
129.1867
0
VERTEX
8
CUT
10
226.0684
20
131.9497
0
VERTEX
8
CUT
10
225.8229
20
133.3492
0
VERTEX
8
CUT
10
225.1900
20
133.8762
0
VERTEX
8
CUT
10
223.6907
20
133.5201
0
VERTEX
8
CUT
10
219.4814
20
130.9986
0
VERTEX
8
CUT
10
217.5759
20
130.1151
0
VERTEX
8
CUT
10
215.5351
20
129.5413
0
VERTEX
8
CUT
10
212.3534
20
129.1200
0
VERTEX
8
CUT
10
210.9094
20
129.2255
0
VERTEX
8
CUT
10
209.6058
20
129.7063
0
VERTEX
8
CUT
10
206.1461
20
132.6722
0
VERTEX
8
CUT
10
204.4329
20
133.6388
0
VERTEX
8
CUT
10
204.1141
20
133.2943
0
VERTEX
8
CUT
10
204.0936
20
129.9280
0
VERTEX
8
CUT
10
203.9132
20
128.5501
0
VERTEX
8
CUT
10
202.9568
20
126.3087
0
VERTEX
8
CUT
10
202.1337
20
125.2956
0
VERTEX
8
CUT
10
199.9242
20
123.6120
0
VERTEX
8
CUT
10
197.4054
20
122.3913
0
VERTEX
8
CUT
10
196.3993
20
122.1077
0
VERTEX
8
CUT
10
194.3122
20
121.8992
0
VERTEX
8
CUT
10
191.9766
20
122.1471
0
VERTEX
8
CUT
10
191.5127
20
122.5537
0
VERTEX
8
CUT
10
191.2899
20
123.5842
0
VERTEX
8
CUT
10
192.0195
20
127.4543
0
VERTEX
8
CUT
10
192.1946
20
129.5316
0
VERTEX
8
CUT
10
191.9849
20
133.6076
0
VERTEX
8
CUT
10
191.6021
20
135.4374
0
VERTEX
8
CUT
10
190.4003
20
138.3155
0
VERTEX
8
CUT
10
189.5454
20
139.3441
0
VERTEX
8
CUT
10
188.5815
20
139.7695
0
VERTEX
8
CUT
10
187.8747
20
139.6449
0
VERTEX
8
CUT
10
187.0405
20
138.9722
0
VERTEX
8
CUT
10
186.2439
20
137.7775
0
VERTEX
8
CUT
10
185.5511
20
136.0769
0
VERTEX
8
CUT
10
184.6284
20
131.6654
0
VERTEX
8
CUT
10
184.2765
20
125.0192
0
VERTEX
8
CUT
10
184.0959
20
124.7142
0
VERTEX
8
CUT
10
183.5275
20
124.6378
0
VERTEX
8
CUT
10
181.9130
20
125.4449
0
VERTEX
8
CUT
10
180.8812
20
126.1894
0
VERTEX
8
CUT
10
177.7591
20
129.1692
0
VERTEX
8
CUT
10
176.0134
20
131.6128
0
VERTEX
8
CUT
10
175.3034
20
132.9922
0
VERTEX
8
CUT
10
174.5101
20
135.6154
0
VERTEX
8
CUT
10
174.5823
20
138.0595
0
VERTEX
8
CUT
10
175.5220
20
140.4393
0
VERTEX
8
CUT
10
177.0933
20
142.5725
0
VERTEX
8
CUT
10
180.6192
20
145.5978
0
VERTEX
8
CUT
10
180.4179
20
146.3151
0
VERTEX
8
CUT
10
179.7939
20
146.8249
0
VERTEX
8
CUT
10
176.8285
20
147.9088
0
VERTEX
8
CUT
10
176.1940
20
148.3516
0
VERTEX
8
CUT
10
174.3875
20
151.4241
0
VERTEX
8
CUT
10
173.3568
20
152.4832
0
VERTEX
8
CUT
10
172.4972
20
152.7424
0
VERTEX
8
CUT
10
171.3423
20
152.6655
0
VERTEX
8
CUT
10
170.7110
20
152.3523
0
VERTEX
8
CUT
10
169.7736
20
151.3068
0
VERTEX
8
CUT
10
169.1401
20
149.5170
0
VERTEX
8
CUT
10
168.9949
20
148.3471
0
VERTEX
8
CUT
10
168.9281
20
147.0316
0
VERTEX
8
CUT
10
169.2744
20
143.3772
0
VERTEX
8
CUT
10
169.6233
20
141.2545
0
VERTEX
8
CUT
10
170.7347
20
136.8467
0
VERTEX
8
CUT
10
171.3959
20
134.7610
0
VERTEX
8
CUT
10
172.8911
20
131.1523
0
VERTEX
8
CUT
10
174.9804
20
127.8648
0
VERTEX
8
CUT
10
176.2587
20
126.3079
0
VERTEX
8
CUT
10
179.2712
20
123.4305
0
SEQEND
0
POLYLINE
8
CUT
66
1
70
1
10
0.0
20
0.0
30
0.0
0
VERTEX
8
CUT
10
162.0818
20
174.6721
0
VERTEX
8
CUT
10
157.3672
20
179.4222
0
VERTEX
8
CUT
10
155.2439
20
182.0369
0
VERTEX
8
CUT
10
153.1635
20
184.2190
0
VERTEX
8
CUT
10
151.2240
20
185.7890
0
VERTEX
8
CUT
10
150.0354
20
185.9501
0
VERTEX
8
CUT
10
149.0853
20
185.3913
0
VERTEX
8
CUT
10
147.5895
20
184.0309
0
VERTEX
8
CUT
10
146.0197
20
182.3210
0
VERTEX
8
CUT
10
143.9494
20
179.6235
0
VERTEX
8
CUT
10
138.4303
20
174.3854
0
VERTEX
8
CUT
10
137.6297
20
172.7878
0
VERTEX
8
CUT
10
137.5313
20
171.8161
0
VERTEX
8
CUT
10
137.6743
20
171.2980
0
VERTEX
8
CUT
10
138.2269
20
171.2431
0
VERTEX
8
CUT
10
140.7845
20
173.8602
0
VERTEX
8
CUT
10
141.4645
20
174.0869
0
VERTEX
8
CUT
10
143.6336
20
174.2833
0
VERTEX
8
CUT
10
144.6796
20
174.8466
0
VERTEX
8
CUT
10
145.4483
20
175.8540
0
VERTEX
8
CUT
10
146.9322
20
179.2921
0
VERTEX
8
CUT
10
148.2572
20
180.4731
0
VERTEX
8
CUT
10
149.5217
20
180.9293
0
VERTEX
8
CUT
10
150.4365
20
180.9961
0
VERTEX
8
CUT
10
152.0919
20
180.6439
0
VERTEX
8
CUT
10
153.5633
20
179.6652
0
VERTEX
8
CUT
10
154.4885
20
178.3151
0
VERTEX
8
CUT
10
154.7086
20
177.1155
0
VERTEX
8
CUT
10
155.1474
20
176.3007
0
VERTEX
8
CUT
10
157.1064
20
174.3565
0
VERTEX
8
CUT
10
157.9033
20
174.1635
0
VERTEX
8
CUT
10
160.3507
20
174.2960
0
VERTEX
8
CUT
10
162.2483
20
173.2212
0
VERTEX
8
CUT
10
162.6773
20
173.2828
0
VERTEX
8
CUT
10
162.8520
20
173.6375
0
SEQEND
0
POLYLINE
8
CUT
66
1
70
1
10
0.0
20
0.0
30
0.0
0
VERTEX
8
CUT
10
64.5047
20
85.7087
0
VERTEX
8
CUT
10
63.6744
20
86.3284
0
VERTEX
8
CUT
10
63.2312
20
86.2006
0
VERTEX
8
CUT
10
62.2334
20
85.4168
0
VERTEX
8
CUT
10
60.3679
20
83.3842
0
VERTEX
8
CUT
10
59.8254
20
82.2969
0
VERTEX
8
CUT
10
59.8599
20
81.4696
0
VERTEX
8
CUT
10
60.0823
20
80.9456
0
VERTEX
8
CUT
10
61.2485
20
79.1996
0
VERTEX
8
CUT
10
62.0454
20
78.6635
0
VERTEX
8
CUT
10
62.8223
20
78.6927
0
VERTEX
8
CUT
10
64.3694
20
79.8507
0
VERTEX
8
CUT
10
65.2352
20
81.1961
0
VERTEX
8
CUT
10
65.4892
20
82.0330
0
VERTEX
8
CUT
10
65.4882
20
83.5577
0
VERTEX
8
CUT
10
65.2696
20
84.3903
0
SEQEND
0
POLYLINE
8
CUT
66
1
70
1
10
0.0
20
0.0
30
0.0
0
VERTEX
8
CUT
10
5.5929
20
223.2860
0
VERTEX
8
CUT
10
5.7493
20
223.4454
0
VERTEX
8
CUT
10
5.8690
20
223.5673
0
VERTEX
8
CUT
10
5.8697
20
223.5681
0
VERTEX
8
CUT
10
5.9032
20
223.6022
0
VERTEX
8
CUT
10
7.0445
20
224.6497
0
VERTEX
8
CUT
10
8.8846
20
225.7844
0
VERTEX
8
CUT
10
10.1774
20
226.2421
0
VERTEX
8
CUT
10
10.9445
20
226.4740
0
VERTEX
8
CUT
10
13.2740
20
226.6317
0
VERTEX
8
CUT
10
15.4477
20
226.5254
0
VERTEX
8
CUT
10
16.0558
20
226.3948
0
VERTEX
8
CUT
10
17.0880
20
226.0147
0
VERTEX
8
CUT
10
18.0840
20
225.5496
0
VERTEX
8
CUT
10
19.2277
20
224.8267
0
VERTEX
8
CUT
10
19.3558
20
224.7382
0
VERTEX
8
CUT
10
21.2381
20
222.9449
0
VERTEX
8
CUT
10
21.3822
20
222.7868
0
VERTEX
8
CUT
10
22.6853
20
220.5236
0
VERTEX
8
CUT
10
23.0927
20
219.1292
0
VERTEX
8
CUT
10
23.3744
20
217.7028
0
VERTEX
8
CUT
10
23.3323
20
214.7142
0
VERTEX
8
CUT
10
22.6349
20
212.1686
0
VERTEX
8
CUT
10
22.3517
20
211.6154
0
VERTEX
8
CUT
10
22.3189
20
211.5555
0
VERTEX
8
CUT
10
22.2521
20
211.4334
0
VERTEX
8
CUT
10
22.1380
20
211.2249
0
VERTEX
8
CUT
10
21.9277
20
210.8405
0
VERTEX
8
CUT
10
21.6145
20
210.4153
0
VERTEX
8
CUT
10
20.9072
20
209.5912
0
VERTEX
8
CUT
10
19.2196
20
208.0521
0
VERTEX
8
CUT
10
17.9311
20
207.3151
0
VERTEX
8
CUT
10
16.1496
20
206.6430
0
VERTEX
8
CUT
10
14.2034
20
206.2955
0
VERTEX
8
CUT
10
12.2117
20
206.2918
0
VERTEX
8
CUT
10
12.2050
20
206.2927
0
VERTEX
8
CUT
10
10.4111
20
206.6254
0
VERTEX
8
CUT
10
8.0792
20
207.6696
0
VERTEX
8
CUT
10
6.7604
20
208.6247
0
VERTEX
8
CUT
10
6.3096
20
209.0825
0
VERTEX
8
CUT
10
6.1628
20
209.2316
0
VERTEX
8
CUT
10
5.6583
20
209.7440
0
VERTEX
8
CUT
10
5.0724
20
210.3390
0
VERTEX
8
CUT
10
4.0773
20
211.9025
0
VERTEX
8
CUT
10
3.5958
20
213.0907
0
VERTEX
8
CUT
10
3.1761
20
214.9130
0
VERTEX
8
CUT
10
3.0352
20
216.7683
0
VERTEX
8
CUT
10
3.1333
20
217.6082
0
VERTEX
8
CUT
10
3.2463
20
218.3860
0
VERTEX
8
CUT
10
3.2484
20
218.4003
0
VERTEX
8
CUT
10
3.2485
20
218.4007
0
VERTEX
8
CUT
10
3.2956
20
218.7252
0
VERTEX
8
CUT
10
3.7815
20
220.3243
0
VERTEX
8
CUT
10
4.4350
20
221.6602
0
VERTEX
8
CUT
10
4.7101
20
222.1182
0
SEQEND
0
POLYLINE
8
CUT
66
1
70
1
10
0.0
20
0.0
30
0.0
0
VERTEX
8
CUT
10
280.1887
20
245.8674
0
VERTEX
8
CUT
10
280.2927
20
245.7602
0
VERTEX
8
CUT
10
281.2455
20
244.5841
0
VERTEX
8
CUT
10
282.3287
20
242.2430
0
VERTEX
8
CUT
10
282.5515
20
239.8380
0
VERTEX
8
CUT
10
282.5342
20
239.7584
0
VERTEX
8
CUT
10
282.5280
20
239.7300
0
VERTEX
8
CUT
10
282.5212
20
239.6987
0
VERTEX
8
CUT
10
282.5056
20
239.6267
0
VERTEX
8
CUT
10
281.9385
20
237.6284
0
VERTEX
8
CUT
10
281.8321
20
237.4294
0
VERTEX
8
CUT
10
281.8187
20
237.4042
0
VERTEX
8
CUT
10
281.8165
20
237.4001
0
VERTEX
8
CUT
10
281.5508
20
236.9032
0
VERTEX
8
CUT
10
281.2474
20
236.4007
0
VERTEX
8
CUT
10
279.5555
20
234.5746
0
VERTEX
8
CUT
10
277.5927
20
233.4791
0
VERTEX
8
CUT
10
275.3497
20
233.0638
0
VERTEX
8
CUT
10
275.1243
20
233.0844
0
VERTEX
8
CUT
10
273.8401
20
233.3112
0
VERTEX
8
CUT
10
271.9936
20
233.8771
0
VERTEX
8
CUT
10
270.5611
20
234.8087
0
VERTEX
8
CUT
10
269.4350
20
235.9671
0
VERTEX
8
CUT
10
268.5724
20
237.4272
0
VERTEX
8
CUT
10
268.1057
20
238.8656
0
VERTEX
8
CUT
10
268.0976
20
238.9035
0
VERTEX
8
CUT
10
268.0866
20
238.9543
0
VERTEX
8
CUT
10
268.0795
20
238.9877
0
VERTEX
8
CUT
10
268.0744
20
239.0111
0
VERTEX
8
CUT
10
267.9896
20
239.8064
0
VERTEX
8
CUT
10
267.9490
20
240.9186
0
VERTEX
8
CUT
10
268.0534
20
241.7125
0
VERTEX
8
CUT
10
268.0546
20
241.7186
0
VERTEX
8
CUT
10
268.0603
20
241.7467
0
VERTEX
8
CUT
10
268.0967
20
241.9289
0
VERTEX
8
CUT
10
268.1939
20
242.4150
0
VERTEX
8
CUT
10
268.6791
20
243.7538
0
VERTEX
8
CUT
10
269.6515
20
245.2829
0
VERTEX
8
CUT
10
270.9011
20
246.4260
0
VERTEX
8
CUT
10
270.9421
20
246.4558
0
VERTEX
8
CUT
10
271.8125
20
246.9643
0
VERTEX
8
CUT
10
272.7915
20
247.4199
0
VERTEX
8
CUT
10
274.0094
20
247.7709
0
VERTEX
8
CUT
10
275.6596
20
247.8433
0
VERTEX
8
CUT
10
277.1106
20
247.6113
0
VERTEX
8
CUT
10
278.6327
20
246.9667
0
SEQEND
0
POLYLINE
8
CUT
66
1
70
1
10
0.0
20
0.0
30
0.0
0
VERTEX
8
CUT
10
117.6992
20
283.1833
0
VERTEX
8
CUT
10
118.1277
20
281.2915
0
VERTEX
8
CUT
10
118.1628
20
279.3960
0
VERTEX
8
CUT
10
117.7334
20
277.4987
0
VERTEX
8
CUT
10
116.9942
20
275.9894
0
VERTEX
8
CUT
10
116.1349
20
274.8394
0
VERTEX
8
CUT
10
115.7791
20
274.4037
0
VERTEX
8
CUT
10
115.4090
20
274.0464
0
VERTEX
8
CUT
10
115.3711
20
274.0098
0
VERTEX
8
CUT
10
115.3655
20
274.0044
0
VERTEX
8
CUT
10
115.2816
20
273.9235
0
VERTEX
8
CUT
10
114.5498
20
273.3138
0
VERTEX
8
CUT
10
113.4271
20
272.6809
0
VERTEX
8
CUT
10
112.9783
20
272.4915
0
VERTEX
8
CUT
10
112.8534
20
272.4462
0
VERTEX
8
CUT
10
112.7798
20
272.4196
0
VERTEX
8
CUT
10
112.6862
20
272.3857
0
VERTEX
8
CUT
10
111.9766
20
272.1286
0
VERTEX
8
CUT
10
110.2325
20
271.8584
0
VERTEX
8
CUT
10
110.0513
20
271.8529
0
VERTEX
8
CUT
10
109.8970
20
271.8483
0
VERTEX
8
CUT
10
109.8022
20
271.8454
0
VERTEX
8
CUT
10
109.3547
20
271.8319
0
VERTEX
8
CUT
10
107.8243
20
272.0627
0
VERTEX
8
CUT
10
107.3233
20
272.2114
0
VERTEX
8
CUT
10
106.6911
20
272.3992
0
VERTEX
8
CUT
10
106.5645
20
272.4367
0
VERTEX
8
CUT
10
106.2062
20
272.5431
0
VERTEX
8
CUT
10
105.8921
20
272.6724
0
VERTEX
8
CUT
10
104.4297
20
273.6001
0
VERTEX
8
CUT
10
103.2137
20
274.7448
0
VERTEX
8
CUT
10
102.2834
20
276.0681
0
VERTEX
8
CUT
10
101.6039
20
277.5356
0
VERTEX
8
CUT
10
101.2455
20
279.1103
0
VERTEX
8
CUT
10
101.2432
20
279.1643
0
VERTEX
8
CUT
10
101.2432
20
281.2078
0
VERTEX
8
CUT
10
101.3817
20
282.1198
0
VERTEX
8
CUT
10
101.4817
20
282.5058
0
VERTEX
8
CUT
10
101.5162
20
282.6388
0
VERTEX
8
CUT
10
101.5213
20
282.6587
0
VERTEX
8
CUT
10
101.5265
20
282.6787
0
VERTEX
8
CUT
10
102.6372
20
285.2515
0
VERTEX
8
CUT
10
104.0505
20
286.9314
0
VERTEX
8
CUT
10
105.3947
20
287.8757
0
VERTEX
8
CUT
10
106.1417
20
288.2717
0
VERTEX
8
CUT
10
108.5011
20
288.8377
0
VERTEX
8
CUT
10
111.0525
20
288.8723
0
VERTEX
8
CUT
10
112.4918
20
288.5528
0
VERTEX
8
CUT
10
114.0599
20
287.7546
0
VERTEX
8
CUT
10
115.6351
20
286.4957
0
VERTEX
8
CUT
10
116.8936
20
284.9038
0
SEQEND
0
ENDSEC
0
EOF
