0
SECTION
2
HEADER
9
$ACADVER
1
AC1009
9
$INSUNITS
70
4
0
ENDSEC
0
SECTION
2
TABLES
0
TABLE
2
LAYER
70
1
0
LAYER
2
CUT
70
0
62
7
6
CONTINUOUS
0
ENDTAB
0
ENDSEC
0
SECTION
2
ENTITIES
0
POLYLINE
8
CUT
66
1
70
1
10
0.0
20
0.0
30
0.0
0
VERTEX
8
CUT
10
181.1075
20
83.2752
0
VERTEX
8
CUT
10
182.5219
20
83.7325
0
VERTEX
8
CUT
10
184.7661
20
83.7345
0
VERTEX
8
CUT
10
186.1933
20
83.3007
0
VERTEX
8
CUT
10
187.7825
20
82.5035
0
VERTEX
8
CUT
10
192.8976
20
79.1287
0
VERTEX
8
CUT
10
195.3477
20
78.1850
0
VERTEX
8
CUT
10
197.4330
20
78.2836
0
VERTEX
8
CUT
10
198.4883
20
78.7747
0
VERTEX
8
CUT
10
199.3229
20
79.4693
0
VERTEX
8
CUT
10
199.8762
20
80.3798
0
VERTEX
8
CUT
10
200.1447
20
81.4451
0
VERTEX
8
CUT
10
200.1500
20
82.9000
0
VERTEX
8
CUT
10
199.3177
20
86.2575
0
VERTEX
8
CUT
10
196.8413
20
92.4656
0
VERTEX
8
CUT
10
196.2438
20
95.9393
0
VERTEX
8
CUT
10
196.3188
20
97.5305
0
VERTEX
8
CUT
10
196.6716
20
99.0082
0
VERTEX
8
CUT
10
198.0611
20
101.7218
0
VERTEX
8
CUT
10
199.4096
20
103.1335
0
VERTEX
8
CUT
10
200.9921
20
104.1104
0
VERTEX
8
CUT
10
202.7934
20
104.6856
0
VERTEX
8
CUT
10
204.7451
20
104.8350
0
VERTEX
8
CUT
10
206.6544
20
104.5341
0
VERTEX
8
CUT
10
208.6242
20
103.8333
0
VERTEX
8
CUT
10
210.4224
20
102.7451
0
VERTEX
8
CUT
10
212.0691
20
101.2502
0
VERTEX
8
CUT
10
214.0736
20
98.5528
0
VERTEX
8
CUT
10
215.1574
20
95.8986
0
VERTEX
8
CUT
10
215.3948
20
94.4344
0
VERTEX
8
CUT
10
215.2081
20
91.5181
0
VERTEX
8
CUT
10
214.0166
20
86.2581
0
VERTEX
8
CUT
10
214.2357
20
83.1177
0
VERTEX
8
CUT
10
215.4690
20
79.9549
0
VERTEX
8
CUT
10
219.8675
20
73.3513
0
VERTEX
8
CUT
10
220.9499
20
70.4899
0
VERTEX
8
CUT
10
221.2113
20
67.9850
0
VERTEX
8
CUT
10
221.0240
20
66.8246
0
VERTEX
8
CUT
10
220.5803
20
65.6871
0
VERTEX
8
CUT
10
219.8454
20
64.5742
0
VERTEX
8
CUT
10
218.2401
20
63.6162
0
VERTEX
8
CUT
10
213.6640
20
63.1063
0
VERTEX
8
CUT
10
212.5073
20
61.8874
0
VERTEX
8
CUT
10
212.2272
20
60.9825
0
VERTEX
8
CUT
10
212.2391
20
60.0037
0
VERTEX
8
CUT
10
213.0402
20
57.7110
0
VERTEX
8
CUT
10
214.9836
20
54.8561
0
VERTEX
8
CUT
10
219.0763
20
50.0569
0
VERTEX
8
CUT
10
221.5458
20
46.8387
0
VERTEX
8
CUT
10
223.4631
20
43.2702
0
VERTEX
8
CUT
10
224.1489
20
41.2941
0
VERTEX
8
CUT
10
224.3434
20
36.7079
0
VERTEX
8
CUT
10
223.9510
20
33.6859
0
VERTEX
8
CUT
10
222.5798
20
31.9233
0
VERTEX
8
CUT
10
221.4692
20
31.0733
0
VERTEX
8
CUT
10
220.2463
20
30.4768
0
VERTEX
8
CUT
10
218.9018
20
30.1652
0
VERTEX
8
CUT
10
217.5216
20
30.1321
0
VERTEX
8
CUT
10
214.5269
20
30.8059
0
VERTEX
8
CUT
10
211.3449
20
32.5032
0
VERTEX
8
CUT
10
207.8212
20
35.4553
0
VERTEX
8
CUT
10
203.4959
20
40.0790
0
VERTEX
8
CUT
10
194.4630
20
51.2015
0
VERTEX
8
CUT
10
186.3974
20
62.1051
0
VERTEX
8
CUT
10
182.4069
20
68.1467
0
VERTEX
8
CUT
10
179.8298
20
72.7019
0
VERTEX
8
CUT
10
179.1377
20
74.3893
0
VERTEX
8
CUT
10
178.6502
20
76.3732
0
VERTEX
8
CUT
10
178.4955
20
78.2576
0
VERTEX
8
CUT
10
178.6855
20
79.8747
0
VERTEX
8
CUT
10
179.1943
20
81.3153
0
VERTEX
8
CUT
10
180.0021
20
82.4308
0
SEQEND
0
POLYLINE
8
CUT
66
1
70
1
10
0.0
20
0.0
30
0.0
0
VERTEX
8
CUT
10
58.0041
20
67.2314
0
VERTEX
8
CUT
10
56.7001
20
67.2710
0
VERTEX
8
CUT
10
55.5487
20
67.7092
0
VERTEX
8
CUT
10
54.1518
20
68.9490
0
VERTEX
8
CUT
10
53.5343
20
69.8737
0
VERTEX
8
CUT
10
53.3208
20
71.1115
0
VERTEX
8
CUT
10
53.3633
20
72.6101
0
VERTEX
8
CUT
10
53.8143
20
74.1509
0
VERTEX
8
CUT
10
54.7929
20
75.6092
0
VERTEX
8
CUT
10
60.0336
20
79.6975
0
VERTEX
8
CUT
10
60.7943
20
80.5998
0
VERTEX
8
CUT
10
61.2296
20
81.5827
0
VERTEX
8
CUT
10
61.3275
20
82.5215
0
VERTEX
8
CUT
10
61.1049
20
83.6028
0
VERTEX
8
CUT
10
58.6058
20
88.1815
0
VERTEX
8
CUT
10
57.9514
20
89.8692
0
VERTEX
8
CUT
10
57.7976
20
92.0230
0
VERTEX
8
CUT
10
58.0987
20
94.1207
0
VERTEX
8
CUT
10
58.7924
20
96.1174
0
VERTEX
8
CUT
10
59.7920
20
97.9853
0
VERTEX
8
CUT
10
61.1031
20
99.5192
0
VERTEX
8
CUT
10
62.6286
20
100.7767
0
VERTEX
8
CUT
10
64.3307
20
101.6247
0
VERTEX
8
CUT
10
66.1594
20
101.9300
0
VERTEX
8
CUT
10
67.5713
20
101.8562
0
VERTEX
8
CUT
10
69.4242
20
101.0120
0
VERTEX
8
CUT
10
70.4956
20
100.0101
0
VERTEX
8
CUT
10
71.4551
20
98.6119
0
VERTEX
8
CUT
10
71.7641
20
97.0035
0
VERTEX
8
CUT
10
71.7640
20
89.9603
0
VERTEX
8
CUT
10
72.4188
20
88.2920
0
VERTEX
8
CUT
10
73.4088
20
87.1487
0
VERTEX
8
CUT
10
75.2203
20
86.1406
0
VERTEX
8
CUT
10
77.1512
20
85.9691
0
VERTEX
8
CUT
10
79.0931
20
86.5236
0
VERTEX
8
CUT
10
84.5633
20
88.6916
0
VERTEX
8
CUT
10
87.1663
20
88.9551
0
VERTEX
8
CUT
10
89.8881
20
88.6073
0
VERTEX
8
CUT
10
91.1992
20
87.8790
0
VERTEX
8
CUT
10
91.7227
20
87.3266
0
VERTEX
8
CUT
10
92.9976
20
85.0641
0
VERTEX
8
CUT
10
93.4267
20
82.1647
0
VERTEX
8
CUT
10
93.2789
20
79.9635
0
VERTEX
8
CUT
10
92.1319
20
76.2503
0
VERTEX
8
CUT
10
91.2295
20
74.4857
0
VERTEX
8
CUT
10
88.4251
20
70.1495
0
VERTEX
8
CUT
10
81.6351
20
61.3076
0
VERTEX
8
CUT
10
72.5967
20
50.6639
0
VERTEX
8
CUT
10
70.3073
20
48.2636
0
VERTEX
8
CUT
10
66.6374
20
45.2476
0
VERTEX
8
CUT
10
65.0974
20
44.4980
0
VERTEX
8
CUT
10
63.5286
20
44.0771
0
VERTEX
8
CUT
10
61.2327
20
43.9628
0
VERTEX
8
CUT
10
59.8080
20
44.2123
0
VERTEX
8
CUT
10
58.2092
20
45.4666
0
VERTEX
8
CUT
10
57.0451
20
46.8972
0
VERTEX
8
CUT
10
56.3275
20
48.4026
0
VERTEX
8
CUT
10
56.0422
20
50.1373
0
VERTEX
8
CUT
10
56.1950
20
51.9389
0
VERTEX
8
CUT
10
56.7667
20
53.8076
0
VERTEX
8
CUT
10
57.8376
20
55.8323
0
VERTEX
8
CUT
10
59.2714
20
57.9402
0
VERTEX
8
CUT
10
62.4964
20
61.6469
0
VERTEX
8
CUT
10
63.9178
20
63.5672
0
VERTEX
8
CUT
10
64.3656
20
64.8347
0
VERTEX
8
CUT
10
64.4274
20
66.6111
0
VERTEX
8
CUT
10
63.7762
20
67.9319
0
VERTEX
8
CUT
10
62.8440
20
68.4576
0
VERTEX
8
CUT
10
61.3297
20
68.2470
0
SEQEND
0
POLYLINE
8
CUT
66
1
70
1
10
0.0
20
0.0
30
0.0
0
VERTEX
8
CUT
10
181.5868
20
149.0250
0
VERTEX
8
CUT
10
181.5774
20
149.1950
0
VERTEX
8
CUT
10
181.5869
20
149.2491
0
VERTEX
8
CUT
10
181.4410
20
152.3502
0
VERTEX
8
CUT
10
181.3847
20
152.6647
0
VERTEX
8
CUT
10
181.3677
20
152.9696
0
VERTEX
8
CUT
10
181.1375
20
154.0452
0
VERTEX
8
CUT
10
180.9943
20
154.8447
0
VERTEX
8
CUT
10
180.9093
20
155.1113
0
VERTEX
8
CUT
10
180.7458
20
155.8750
0
VERTEX
8
CUT
10
180.4267
20
156.6237
0
VERTEX
8
CUT
10
180.0931
20
157.6692
0
VERTEX
8
CUT
10
179.2680
20
158.6620
0
VERTEX
8
CUT
10
178.5796
20
158.5198
0
VERTEX
8
CUT
10
177.1785
20
156.9296
0
VERTEX
8
CUT
10
175.6455
20
154.6080
0
VERTEX
8
CUT
10
174.4703
20
152.1032
0
VERTEX
8
CUT
10
174.3508
20
151.5696
0
VERTEX
8
CUT
10
174.2489
20
151.3249
0
VERTEX
8
CUT
10
173.7845
20
149.0409
0
VERTEX
8
CUT
10
173.5964
20
148.2006
0
VERTEX
8
CUT
10
173.5944
20
148.0916
0
VERTEX
8
CUT
10
173.5934
20
148.0872
0
VERTEX
8
CUT
10
173.5936
20
148.0449
0
VERTEX
8
CUT
10
173.4828
20
141.7422
0
VERTEX
8
CUT
10
173.2610
20
140.6712
0
VERTEX
8
CUT
10
173.0704
20
140.5921
0
VERTEX
8
CUT
10
173.0153
20
140.5692
0
VERTEX
8
CUT
10
172.9994
20
140.5626
0
VERTEX
8
CUT
10
172.2963
20
140.2708
0
VERTEX
8
CUT
10
171.1511
20
140.2003
0
VERTEX
8
CUT
10
169.5656
20
140.3921
0
VERTEX
8
CUT
10
168.0613
20
140.8948
0
VERTEX
8
CUT
10
166.5094
20
141.9007
0
VERTEX
8
CUT
10
166.4907
20
141.9164
0
VERTEX
8
CUT
10
166.4694
20
141.9344
0
VERTEX
8
CUT
10
166.4551
20
141.9465
0
VERTEX
8
CUT
10
166.3501
20
142.0349
0
VERTEX
8
CUT
10
165.0783
20
143.3795
0
VERTEX
8
CUT
10
163.9755
20
145.1279
0
VERTEX
8
CUT
10
163.1417
20
147.1359
0
VERTEX
8
CUT
10
162.6169
20
149.2317
0
VERTEX
8
CUT
10
162.4236
20
151.3895
0
VERTEX
8
CUT
10
162.6132
20
153.5108
0
VERTEX
8
CUT
10
163.1852
20
155.3397
0
VERTEX
8
CUT
10
163.1960
20
155.3691
0
VERTEX
8
CUT
10
163.2065
20
155.3974
0
VERTEX
8
CUT
10
163.2181
20
155.4290
0
VERTEX
8
CUT
10
163.2243
20
155.4459
0
VERTEX
8
CUT
10
164.0065
20
156.7352
0
VERTEX
8
CUT
10
164.5814
20
157.5700
0
VERTEX
8
CUT
10
165.9441
20
159.1309
0
VERTEX
8
CUT
10
167.8674
20
160.7816
0
VERTEX
8
CUT
10
168.7702
20
161.3097
0
VERTEX
8
CUT
10
169.6534
20
161.7736
0
VERTEX
8
CUT
10
169.9074
20
161.9070
0
VERTEX
8
CUT
10
170.0324
20
161.9727
0
VERTEX
8
CUT
10
170.2286
20
162.0757
0
VERTEX
8
CUT
10
172.2171
20
162.8027
0
VERTEX
8
CUT
10
173.4708
20
163.1731
0
VERTEX
8
CUT
10
175.7634
20
163.5158
0
VERTEX
8
CUT
10
176.5466
20
163.5839
0
VERTEX
8
CUT
10
176.6095
20
163.5857
0
VERTEX
8
CUT
10
176.6849
20
163.5879
0
VERTEX
8
CUT
10
179.5169
20
163.4563
0
VERTEX
8
CUT
10
179.6458
20
163.4411
0
VERTEX
8
CUT
10
182.7335
20
162.6971
0
VERTEX
8
CUT
10
185.6413
20
161.3755
0
VERTEX
8
CUT
10
188.2493
20
159.5605
0
VERTEX
8
CUT
10
190.4426
20
157.1787
0
VERTEX
8
CUT
10
192.0500
20
154.5546
0
VERTEX
8
CUT
10
192.4390
20
153.6499
0
VERTEX
8
CUT
10
192.9119
20
152.3695
0
VERTEX
8
CUT
10
193.0232
20
151.8797
0
VERTEX
8
CUT
10
193.0720
20
151.6649
0
VERTEX
8
CUT
10
193.1319
20
151.4013
0
VERTEX
8
CUT
10
193.2030
20
151.0882
0
VERTEX
8
CUT
10
193.3743
20
148.0988
0
VERTEX
8
CUT
10
193.3683
20
148.0167
0
VERTEX
8
CUT
10
193.3529
20
147.8022
0
VERTEX
8
CUT
10
193.3324
20
147.5175
0
VERTEX
8
CUT
10
193.2312
20
146.1142
0
VERTEX
8
CUT
10
193.2018
20
145.8244
0
VERTEX
8
CUT
10
193.1386
20
145.5201
0
VERTEX
8
CUT
10
193.1310
20
145.4837
0
VERTEX
8
CUT
10
193.0690
20
145.1852
0
VERTEX
8
CUT
10
192.9826
20
144.7691
0
VERTEX
8
CUT
10
192.2024
20
142.9688
0
VERTEX
8
CUT
10
192.0737
20
142.7061
0
VERTEX
8
CUT
10
189.9888
20
140.0914
0
VERTEX
8
CUT
10
187.8116
20
138.2975
0
VERTEX
8
CUT
10
187.2777
20
137.9148
0
VERTEX
8
CUT
10
184.9702
20
137.0332
0
VERTEX
8
CUT
10
182.5838
20
136.8817
0
VERTEX
8
CUT
10
181.0359
20
137.1145
0
VERTEX
8
CUT
10
179.5480
20
137.8545
0
VERTEX
8
CUT
10
179.5394
20
137.8591
0
VERTEX
8
CUT
10
179.5221
20
137.8684
0
VERTEX
8
CUT
10
179.4314
20
137.9171
0
VERTEX
8
CUT
10
179.3382
20
137.9672
0
VERTEX
8
CUT
10
179.0812
20
138.2225
0
VERTEX
8
CUT
10
178.4008
20
139.1326
0
VERTEX
8
CUT
10
178.1573
20
139.6592
0
VERTEX
8
CUT
10
178.0464
20
140.6947
0
VERTEX
8
CUT
10
178.1989
20
141.5893
0
VERTEX
8
CUT
10
178.3100
20
142.0175
0
VERTEX
8
CUT
10
179.4825
20
144.6114
0
VERTEX
8
CUT
10
180.9907
20
146.9954
0
VERTEX
8
CUT
10
181.2334
20
147.3361
0
VERTEX
8
CUT
10
181.2468
20
147.4004
0
VERTEX
8
CUT
10
181.2657
20
147.4302
0
VERTEX
8
CUT
10
181.3339
20
147.8164
0
SEQEND
0
POLYLINE
8
CUT
66
1
70
1
10
0.0
20
0.0
30
0.0
0
VERTEX
8
CUT
10
97.2142
20
163.5983
0
VERTEX
8
CUT
10
100.1690
20
162.9988
0
VERTEX
8
CUT
10
102.0652
20
162.2784
0
VERTEX
8
CUT
10
103.9003
20
161.2439
0
VERTEX
8
CUT
10
107.0318
20
158.6704
0
VERTEX
8
CUT
10
108.2449
20
157.2368
0
VERTEX
8
CUT
10
109.1998
20
155.7170
0
VERTEX
8
CUT
10
109.8156
20
154.1543
0
VERTEX
8
CUT
10
110.0573
20
152.6273
0
VERTEX
8
CUT
10
109.9311
20
151.5253
0
VERTEX
8
CUT
10
109.5500
20
150.9745
0
VERTEX
8
CUT
10
107.4700
20
149.6424
0
VERTEX
8
CUT
10
107.1165
20
147.9139
0
VERTEX
8
CUT
10
107.2692
20
146.9047
0
VERTEX
8
CUT
10
108.8663
20
144.8991
0
VERTEX
8
CUT
10
109.0844
20
144.4113
0
VERTEX
8
CUT
10
109.0299
20
143.9787
0
VERTEX
8
CUT
10
108.2970
20
143.4157
0
VERTEX
8
CUT
10
107.0453
20
143.3526
0
VERTEX
8
CUT
10
106.2734
20
141.5966
0
VERTEX
8
CUT
10
105.9846
20
141.3648
0
VERTEX
8
CUT
10
103.9276
20
141.7709
0
VERTEX
8
CUT
10
102.0438
20
140.3414
0
VERTEX
8
CUT
10
101.9695
20
140.3234
0
VERTEX
8
CUT
10
101.8504
20
140.3101
0
VERTEX
8
CUT
10
101.7473
20
140.2985
0
VERTEX
8
CUT
10
101.6600
20
140.2887
0
VERTEX
8
CUT
10
101.3083
20
140.2493
0
VERTEX
8
CUT
10
100.0059
20
140.6575
0
VERTEX
8
CUT
10
99.5083
20
141.0097
0
VERTEX
8
CUT
10
99.1828
20
142.5509
0
VERTEX
8
CUT
10
99.4810
20
145.1638
0
VERTEX
8
CUT
10
99.7588
20
145.5917
0
VERTEX
8
CUT
10
100.6023
20
146.0686
0
VERTEX
8
CUT
10
103.0564
20
146.4589
0
VERTEX
8
CUT
10
103.5631
20
147.1651
0
VERTEX
8
CUT
10
103.5704
20
148.6342
0
VERTEX
8
CUT
10
103.1391
20
148.9597
0
VERTEX
8
CUT
10
100.5652
20
148.6645
0
VERTEX
8
CUT
10
99.6253
20
148.9840
0
VERTEX
8
CUT
10
98.9830
20
149.8647
0
VERTEX
8
CUT
10
98.5098
20
151.0424
0
VERTEX
8
CUT
10
98.4581
20
151.2816
0
VERTEX
8
CUT
10
98.2677
20
151.6449
0
VERTEX
8
CUT
10
97.3842
20
153.8432
0
VERTEX
8
CUT
10
95.9514
20
156.3090
0
VERTEX
8
CUT
10
94.4491
20
158.1439
0
VERTEX
8
CUT
10
94.2304
20
158.3157
0
VERTEX
8
CUT
10
94.1275
20
158.4382
0
VERTEX
8
CUT
10
94.0378
20
158.4669
0
VERTEX
8
CUT
10
93.7792
20
158.6700
0
VERTEX
8
CUT
10
93.6076
20
158.6726
0
VERTEX
8
CUT
10
93.5871
20
158.6881
0
VERTEX
8
CUT
10
93.5672
20
158.6732
0
VERTEX
8
CUT
10
93.3853
20
158.6759
0
VERTEX
8
CUT
10
93.3009
20
158.7029
0
VERTEX
8
CUT
10
93.2680
20
158.6776
0
VERTEX
8
CUT
10
93.1170
20
158.6799
0
VERTEX
8
CUT
10
92.8861
20
158.3837
0
VERTEX
8
CUT
10
92.6695
20
158.2170
0
VERTEX
8
CUT
10
92.3684
20
157.7198
0
VERTEX
8
CUT
10
92.1799
20
157.4780
0
VERTEX
8
CUT
10
91.4816
20
155.1924
0
VERTEX
8
CUT
10
91.1154
20
152.1759
0
VERTEX
8
CUT
10
91.1151
20
151.6053
0
VERTEX
8
CUT
10
90.9384
20
148.2862
0
VERTEX
8
CUT
10
91.2392
20
147.6841
0
VERTEX
8
CUT
10
91.3434
20
147.2021
0
VERTEX
8
CUT
10
92.6777
20
144.3409
0
VERTEX
8
CUT
10
92.7912
20
142.4357
0
VERTEX
8
CUT
10
94.1092
20
140.8209
0
VERTEX
8
CUT
10
94.3228
20
139.6583
0
VERTEX
8
CUT
10
93.8487
20
138.8089
0
VERTEX
8
CUT
10
92.7856
20
137.8735
0
VERTEX
8
CUT
10
91.3043
20
137.1175
0
VERTEX
8
CUT
10
88.7605
20
136.9247
0
VERTEX
8
CUT
10
86.8861
20
137.4121
0
VERTEX
8
CUT
10
84.5154
20
138.5288
0
VERTEX
8
CUT
10
84.0379
20
138.8770
0
VERTEX
8
CUT
10
83.1412
20
139.5904
0
VERTEX
8
CUT
10
82.0107
20
140.9073
0
VERTEX
8
CUT
10
80.4793
20
143.3213
0
VERTEX
8
CUT
10
79.3587
20
146.3461
0
VERTEX
8
CUT
10
79.3043
20
146.7269
0
VERTEX
8
CUT
10
79.2796
20
149.8575
0
VERTEX
8
CUT
10
79.3957
20
151.2307
0
VERTEX
8
CUT
10
80.5878
20
154.6205
0
VERTEX
8
CUT
10
82.0343
20
157.1369
0
VERTEX
8
CUT
10
83.9253
20
159.2931
0
VERTEX
8
CUT
10
86.0580
20
160.9919
0
VERTEX
8
CUT
10
86.1185
20
161.0314
0
VERTEX
8
CUT
10
86.2236
20
161.1001
0
VERTEX
8
CUT
10
86.2544
20
161.1202
0
VERTEX
8
CUT
10
86.2690
20
161.1298
0
VERTEX
8
CUT
10
88.6753
20
162.4025
0
VERTEX
8
CUT
10
91.3707
20
163.2997
0
VERTEX
8
CUT
10
94.2722
20
163.7156
0
SEQEND
0
POLYLINE
8
CUT
66
1
70
1
10
0.0
20
0.0
30
0.0
0
VERTEX
8
CUT
10
85.8130
20
201.7858
0
VERTEX
8
CUT
10
87.0187
20
201.7208
0
VERTEX
8
CUT
10
87.4566
20
202.1510
0
VERTEX
8
CUT
10
88.2082
20
203.5761
0
VERTEX
8
CUT
10
89.0405
20
205.8903
0
VERTEX
8
CUT
10
89.0597
20
206.6912
0
VERTEX
8
CUT
10
82.4493
20
210.3977
0
VERTEX
8
CUT
10
79.2644
20
212.4198
0
VERTEX
8
CUT
10
73.6026
20
216.6371
0
VERTEX
8
CUT
10
73.4042
20
216.8189
0
VERTEX
8
CUT
10
70.0666
20
220.1245
0
VERTEX
8
CUT
10
69.5857
20
220.6740
0
VERTEX
8
CUT
10
68.8373
20
221.9151
0
VERTEX
8
CUT
10
68.9810
20
223.0242
0
VERTEX
8
CUT
10
69.8534
20
223.2624
0
VERTEX
8
CUT
10
71.5054
20
222.7136
0
VERTEX
8
CUT
10
88.9037
20
213.3620
0
VERTEX
8
CUT
10
91.4069
20
212.1675
0
VERTEX
8
CUT
10
92.5997
20
211.8451
0
VERTEX
8
CUT
10
93.4802
20
212.3172
0
VERTEX
8
CUT
10
98.8186
20
216.4314
0
VERTEX
8
CUT
10
103.0327
20
218.9534
0
VERTEX
8
CUT
10
107.1623
20
220.9039
0
VERTEX
8
CUT
10
109.0472
20
221.5809
0
VERTEX
8
CUT
10
111.9701
20
222.2964
0
VERTEX
8
CUT
10
114.9749
20
223.6385
0
VERTEX
8
CUT
10
116.7788
20
225.4609
0
VERTEX
8
CUT
10
117.6749
20
227.7146
0
VERTEX
8
CUT
10
119.6773
20
230.8418
0
VERTEX
8
CUT
10
122.6078
20
233.9191
0
VERTEX
8
CUT
10
126.0017
20
236.5160
0
VERTEX
8
CUT
10
129.6927
20
238.3428
0
VERTEX
8
CUT
10
131.6547
20
238.9964
0
VERTEX
8
CUT
10
135.3862
20
239.5935
0
VERTEX
8
CUT
10
137.3636
20
239.5547
0
VERTEX
8
CUT
10
139.2503
20
239.2880
0
VERTEX
8
CUT
10
143.1257
20
238.0956
0
VERTEX
8
CUT
10
146.8609
20
235.9891
0
VERTEX
8
CUT
10
150.5130
20
232.8696
0
VERTEX
8
CUT
10
152.1516
20
231.1164
0
VERTEX
8
CUT
10
154.5426
20
227.7165
0
VERTEX
8
CUT
10
155.4602
20
225.4397
0
VERTEX
8
CUT
10
156.1549
20
224.5841
0
VERTEX
8
CUT
10
158.5842
20
223.0459
0
VERTEX
8
CUT
10
165.3997
20
220.6404
0
VERTEX
8
CUT
10
169.9845
20
218.4606
0
VERTEX
8
CUT
10
173.7316
20
216.1738
0
VERTEX
8
CUT
10
179.5447
20
211.4909
0
VERTEX
8
CUT
10
182.0854
20
212.5792
0
VERTEX
8
CUT
10
200.0475
20
222.1194
0
VERTEX
8
CUT
10
202.9193
20
223.1424
0
VERTEX
8
CUT
10
203.7197
20
222.9895
0
VERTEX
8
CUT
10
203.8587
20
222.2991
0
VERTEX
8
CUT
10
202.4974
20
220.0964
0
VERTEX
8
CUT
10
201.2665
20
218.7093
0
VERTEX
8
CUT
10
198.1492
20
215.8576
0
VERTEX
8
CUT
10
191.9217
20
211.5320
0
VERTEX
8
CUT
10
185.0718
20
207.7873
0
VERTEX
8
CUT
10
183.9100
20
207.0005
0
VERTEX
8
CUT
10
183.0828
20
206.5865
0
VERTEX
8
CUT
10
183.0350
20
206.2621
0
VERTEX
8
CUT
10
182.9189
20
205.7295
0
VERTEX
8
CUT
10
183.5729
20
203.8940
0
VERTEX
8
CUT
10
184.5742
20
202.0297
0
VERTEX
8
CUT
10
185.0262
20
201.7681
0
VERTEX
8
CUT
10
185.0338
20
201.7532
0
VERTEX
8
CUT
10
185.0502
20
201.7542
0
VERTEX
8
CUT
10
185.2445
20
201.6418
0
VERTEX
8
CUT
10
186.6284
20
201.7111
0
VERTEX
8
CUT
10
190.6626
20
202.5255
0
VERTEX
8
CUT
10
207.1070
20
206.5525
0
VERTEX
8
CUT
10
239.0885
20
215.4985
0
VERTEX
8
CUT
10
241.5304
20
215.8438
0
VERTEX
8
CUT
10
242.1505
20
215.4225
0
VERTEX
8
CUT
10
242.2162
20
215.1968
0
VERTEX
8
CUT
10
242.2000
20
214.8938
0
VERTEX
8
CUT
10
242.0587
20
214.6627
0
VERTEX
8
CUT
10
241.9383
20
214.4658
0
VERTEX
8
CUT
10
241.6564
20
214.0049
0
VERTEX
8
CUT
10
241.6276
20
213.9578
0
VERTEX
8
CUT
10
241.4824
20
213.7891
0
VERTEX
8
CUT
10
241.0277
20
213.4212
0
VERTEX
8
CUT
10
241.0022
20
213.4005
0
VERTEX
8
CUT
10
240.9447
20
213.3540
0
VERTEX
8
CUT
10
240.8278
20
213.2593
0
VERTEX
8
CUT
10
237.8414
20
211.0732
0
VERTEX
8
CUT
10
233.4956
20
208.5649
0
VERTEX
8
CUT
10
228.5880
20
206.2598
0
VERTEX
8
CUT
10
223.1054
20
204.1565
0
VERTEX
8
CUT
10
217.2396
20
202.2891
0
VERTEX
8
CUT
10
211.0028
20
200.6837
0
VERTEX
8
CUT
10
204.4872
20
199.3434
0
VERTEX
8
CUT
10
197.7654
20
198.2973
0
VERTEX
8
CUT
10
189.0144
20
197.3988
0
VERTEX
8
CUT
10
185.9287
20
196.8830
0
VERTEX
8
CUT
10
185.4521
20
195.8990
0
VERTEX
8
CUT
10
185.3427
20
194.2520
0
VERTEX
8
CUT
10
185.5247
20
192.5207
0
VERTEX
8
CUT
10
186.0157
20
191.5802
0
VERTEX
8
CUT
10
189.0373
20
191.2719
0
VERTEX
8
CUT
10
195.6370
20
191.1596
0
VERTEX
8
CUT
10
242.1707
20
190.9732
0
VERTEX
8
CUT
10
244.4811
20
190.7098
0
VERTEX
8
CUT
10
244.8513
20
190.3444
0
VERTEX
8
CUT
10
244.4038
20
189.6700
0
VERTEX
8
CUT
10
241.9747
20
188.3994
0
VERTEX
8
CUT
10
235.3688
20
186.3693
0
VERTEX
8
CUT
10
230.1886
20
185.2816
0
VERTEX
8
CUT
10
226.0736
20
184.7587
0
VERTEX
8
CUT
10
221.5914
20
184.4602
0
VERTEX
8
CUT
10
211.6718
20
184.4602
0
VERTEX
8
CUT
10
210.9252
20
184.5079
0
VERTEX
8
CUT
10
209.8237
20
184.5795
0
VERTEX
8
CUT
10
209.0322
20
184.6309
0
VERTEX
8
CUT
10
208.6347
20
184.6568
0
VERTEX
8
CUT
10
206.2189
20
184.8138
0
VERTEX
8
CUT
10
200.9749
20
185.3204
0
VERTEX
8
CUT
10
187.6993
20
187.2898
0
VERTEX
8
CUT
10
186.1023
20
187.5984
0
VERTEX
8
CUT
10
185.5219
20
187.6127
0
VERTEX
8
CUT
10
184.7058
20
187.7338
0
VERTEX
8
CUT
10
184.0633
20
186.9994
0
VERTEX
8
CUT
10
181.9243
20
182.9378
0
VERTEX
8
CUT
10
180.2953
20
180.5871
0
VERTEX
8
CUT
10
177.8987
20
177.8684
0
VERTEX
8
CUT
10
177.7572
20
177.7197
0
VERTEX
8
CUT
10
175.7843
20
176.2266
0
VERTEX
8
CUT
10
173.2602
20
174.8673
0
VERTEX
8
CUT
10
170.4351
20
173.8473
0
VERTEX
8
CUT
10
162.0859
20
172.0435
0
VERTEX
8
CUT
10
160.0471
20
171.0918
0
VERTEX
8
CUT
10
158.1110
20
169.6636
0
VERTEX
8
CUT
10
156.0809
20
167.6682
0
VERTEX
8
CUT
10
153.3755
20
164.4053
0
VERTEX
8
CUT
10
151.6928
20
161.6628
0
VERTEX
8
CUT
10
150.6878
20
159.3209
0
VERTEX
8
CUT
10
149.8019
20
156.9204
0
VERTEX
8
CUT
10
149.6187
20
155.6366
0
VERTEX
8
CUT
10
149.8039
20
151.4237
0
VERTEX
8
CUT
10
150.0656
20
149.8082
0
VERTEX
8
CUT
10
150.6674
20
147.4369
0
VERTEX
8
CUT
10
150.6977
20
147.2860
0
VERTEX
8
CUT
10
150.7307
20
147.1878
0
VERTEX
8
CUT
10
151.3639
20
144.6929
0
VERTEX
8
CUT
10
155.3538
20
134.4749
0
VERTEX
8
CUT
10
158.5181
20
122.1137
0
VERTEX
8
CUT
10
159.8815
20
118.6068
0
VERTEX
8
CUT
10
161.5000
20
115.9516
0
VERTEX
8
CUT
10
162.9083
20
114.3187
0
VERTEX
8
CUT
10
164.2528
20
113.3058
0
VERTEX
8
CUT
10
167.3148
20
112.1066
0
VERTEX
8
CUT
10
168.0728
20
111.4253
0
VERTEX
8
CUT
10
169.6383
20
109.3746
0
VERTEX
8
CUT
10
171.0682
20
106.8940
0
VERTEX
8
CUT
10
171.9496
20
104.5201
0
VERTEX
8
CUT
10
172.1045
20
101.8668
0
VERTEX
8
CUT
10
171.8131
20
100.6701
0
VERTEX
8
CUT
10
171.3247
20
99.7333
0
VERTEX
8
CUT
10
170.6761
20
99.0034
0
VERTEX
8
CUT
10
169.7346
20
98.4436
0
VERTEX
8
CUT
10
168.7314
20
98.1784
0
VERTEX
8
CUT
10
167.6398
20
98.2145
0
VERTEX
8
CUT
10
164.1378
20
98.6958
0
VERTEX
8
CUT
10
163.5371
20
98.5703
0
VERTEX
8
CUT
10
162.8317
20
97.8560
0
VERTEX
8
CUT
10
162.4762
20
96.9789
0
VERTEX
8
CUT
10
162.4443
20
95.8384
0
VERTEX
8
CUT
10
163.9707
20
89.2327
0
VERTEX
8
CUT
10
163.8972
20
86.0882
0
VERTEX
8
CUT
10
163.5491
20
84.7790
0
VERTEX
8
CUT
10
162.9040
20
83.6229
0
VERTEX
8
CUT
10
162.0788
20
82.7330
0
VERTEX
8
CUT
10
160.2844
20
81.7075
0
VERTEX
8
CUT
10
158.8832
20
81.3284
0
VERTEX
8
CUT
10
157.3563
20
81.3698
0
VERTEX
8
CUT
10
154.9216
20
82.2310
0
VERTEX
8
CUT
10
153.1966
20
83.3738
0
VERTEX
8
CUT
10
152.3244
20
84.1305
0
VERTEX
8
CUT
10
150.7427
20
86.0560
0
VERTEX
8
CUT
10
147.0075
20
92.5528
0
VERTEX
8
CUT
10
144.4166
20
95.9486
0
VERTEX
8
CUT
10
143.0559
20
97.1569
0
VERTEX
8
CUT
10
141.6205
20
98.1057
0
VERTEX
8
CUT
10
140.1225
20
98.7463
0
VERTEX
8
CUT
10
138.5540
20
99.1397
0
VERTEX
8
CUT
10
136.7721
20
99.2559
0
VERTEX
8
CUT
10
134.2036
20
98.8994
0
VERTEX
8
CUT
10
132.9763
20
98.4565
0
VERTEX
8
CUT
10
130.8874
20
97.0916
0
VERTEX
8
CUT
10
129.9348
20
96.1447
0
VERTEX
8
CUT
10
128.1969
20
93.4174
0
VERTEX
8
CUT
10
126.0007
20
85.8577
0
VERTEX
8
CUT
10
124.3264
20
82.4086
0
VERTEX
8
CUT
10
122.9034
20
80.7609
0
VERTEX
8
CUT
10
121.3870
20
79.6699
0
VERTEX
8
CUT
10
119.1107
20
78.9081
0
VERTEX
8
CUT
10
117.4687
20
78.7886
0
VERTEX
8
CUT
10
116.0169
20
79.0177
0
VERTEX
8
CUT
10
114.4946
20
79.6987
0
VERTEX
8
CUT
10
113.1315
20
80.7802
0
VERTEX
8
CUT
10
112.0822
20
82.0944
0
VERTEX
8
CUT
10
111.2799
20
83.6603
0
VERTEX
8
CUT
10
110.7470
20
85.4477
0
VERTEX
8
CUT
10
110.4810
20
87.4070
0
VERTEX
8
CUT
10
110.5227
20
89.4913
0
VERTEX
8
CUT
10
111.2393
20
92.9128
0
VERTEX
8
CUT
10
116.5308
20
106.1038
0
VERTEX
8
CUT
10
117.8689
20
110.4869
0
VERTEX
8
CUT
10
118.7998
20
114.8805
0
VERTEX
8
CUT
10
119.5408
20
120.8087
0
VERTEX
8
CUT
10
119.5429
20
127.0739
0
VERTEX
8
CUT
10
118.4333
20
134.2307
0
VERTEX
8
CUT
10
117.6191
20
136.3759
0
VERTEX
8
CUT
10
115.8516
20
138.4993
0
VERTEX
8
CUT
10
120.2352
20
145.4373
0
VERTEX
8
CUT
10
121.4260
20
147.8992
0
VERTEX
8
CUT
10
121.8880
20
150.2910
0
VERTEX
8
CUT
10
122.0444
20
150.9108
0
VERTEX
8
CUT
10
122.0609
20
151.1864
0
VERTEX
8
CUT
10
122.1136
20
151.4593
0
VERTEX
8
CUT
10
122.1556
20
152.7675
0
VERTEX
8
CUT
10
122.2608
20
154.5231
0
VERTEX
8
CUT
10
122.2197
20
154.7635
0
VERTEX
8
CUT
10
122.2647
20
156.1620
0
VERTEX
8
CUT
10
121.7970
20
158.2268
0
VERTEX
8
CUT
10
120.3037
20
161.6616
0
VERTEX
8
CUT
10
118.9101
20
164.1555
0
VERTEX
8
CUT
10
117.2850
20
166.4104
0
VERTEX
8
CUT
10
114.3639
20
169.4078
0
VERTEX
8
CUT
10
111.6544
20
171.4088
0
VERTEX
8
CUT
10
108.7529
20
172.4950
0
VERTEX
8
CUT
10
102.5314
20
173.6130
0
VERTEX
8
CUT
10
100.6401
20
174.1790
0
VERTEX
8
CUT
10
97.7431
20
175.4939
0
VERTEX
8
CUT
10
95.2593
20
177.0720
0
VERTEX
8
CUT
10
93.0047
20
179.1708
0
VERTEX
8
CUT
10
91.0649
20
181.5953
0
VERTEX
8
CUT
10
88.4992
20
186.3396
0
VERTEX
8
CUT
10
87.4705
20
187.7550
0
VERTEX
8
CUT
10
84.3930
20
187.4436
0
VERTEX
8
CUT
10
73.1115
20
185.6937
0
VERTEX
8
CUT
10
65.7946
20
184.9467
0
VERTEX
8
CUT
10
58.7367
20
184.6100
0
VERTEX
8
CUT
10
52.0598
20
184.7224
0
VERTEX
8
CUT
10
45.8092
20
185.2061
0
VERTEX
8
CUT
10
39.9774
20
186.1021
0
VERTEX
8
CUT
10
34.6644
20
187.4099
0
VERTEX
8
CUT
10
29.0576
20
189.5151
0
VERTEX
8
CUT
10
28.2344
20
190.1002
0
VERTEX
8
CUT
10
27.9649
20
190.8183
0
VERTEX
8
CUT
10
28.2596
20
191.3340
0
VERTEX
8
CUT
10
28.2624
20
191.3360
0
VERTEX
8
CUT
10
28.2701
20
191.3415
0
VERTEX
8
CUT
10
28.2751
20
191.3450
0
VERTEX
8
CUT
10
28.4288
20
191.4540
0
VERTEX
8
CUT
10
29.9045
20
191.6443
0
VERTEX
8
CUT
10
70.0515
20
191.2341
0
VERTEX
8
CUT
10
81.6030
20
191.4204
0
VERTEX
8
CUT
10
86.1259
20
191.6769
0
VERTEX
8
CUT
10
86.4784
20
191.9930
0
VERTEX
8
CUT
10
86.5789
20
193.4195
0
VERTEX
8
CUT
10
86.3592
20
196.1973
0
VERTEX
8
CUT
10
86.0895
20
197.1868
0
VERTEX
8
CUT
10
85.3228
20
197.4786
0
VERTEX
8
CUT
10
81.0669
20
197.7360
0
VERTEX
8
CUT
10
75.1770
20
198.4070
0
VERTEX
8
CUT
10
68.4047
20
199.4922
0
VERTEX
8
CUT
10
59.2915
20
201.5096
0
VERTEX
8
CUT
10
50.6033
20
204.1198
0
VERTEX
8
CUT
10
42.7728
20
207.1925
0
VERTEX
8
CUT
10
36.2462
20
210.5863
0
VERTEX
8
CUT
10
32.2612
20
213.3340
0
VERTEX
8
CUT
10
31.9069
20
213.6065
0
VERTEX
8
CUT
10
30.9934
20
214.5593
0
VERTEX
8
CUT
10
30.7768
20
215.2245
0
VERTEX
8
CUT
10
30.9702
20
215.7014
0
VERTEX
8
CUT
10
31.4876
20
215.9867
0
VERTEX
8
CUT
10
33.2165
20
215.9183
0
VERTEX
8
CUT
10
33.4871
20
215.8787
0
VERTEX
8
CUT
10
34.3100
20
215.6895
0
VERTEX
8
CUT
10
34.7910
20
215.5789
0
VERTEX
8
CUT
10
35.3322
20
215.4544
0
VERTEX
8
CUT
10
35.3588
20
215.4483
0
VERTEX
8
CUT
10
66.0877
20
206.5510
0
VERTEX
8
CUT
10
82.5927
20
202.4526
0
SEQEND
0
POLYLINE
8
CUT
66
1
70
1
10
0.0
20
0.0
30
0.0
0
VERTEX
8
CUT
10
148.1041
20
223.9843
0
VERTEX
8
CUT
10
146.6116
20
223.7273
0
VERTEX
8
CUT
10
139.2166
20
221.4227
0
VERTEX
8
CUT
10
135.8846
20
221.0398
0
VERTEX
8
CUT
10
132.5966
20
221.4214
0
VERTEX
8
CUT
10
125.5939
20
223.5449
0
VERTEX
8
CUT
10
123.3378
20
223.9877
0
VERTEX
8
CUT
10
119.5557
20
223.8419
0
VERTEX
8
CUT
10
118.4608
20
223.5273
0
VERTEX
8
CUT
10
117.9528
20
223.0759
0
VERTEX
8
CUT
10
117.9849
20
222.6933
0
VERTEX
8
CUT
10
118.4648
20
222.3529
0
VERTEX
8
CUT
10
123.2175
20
220.6813
0
VERTEX
8
CUT
10
125.0622
20
219.8174
0
VERTEX
8
CUT
10
128.6315
20
217.5393
0
VERTEX
8
CUT
10
131.6438
20
214.8989
0
VERTEX
8
CUT
10
132.8541
20
213.5036
0
VERTEX
8
CUT
10
135.2357
20
209.6587
0
VERTEX
8
CUT
10
136.0392
20
208.9028
0
VERTEX
8
CUT
10
136.4387
20
209.0851
0
VERTEX
8
CUT
10
137.1655
20
210.0261
0
VERTEX
8
CUT
10
138.6965
20
212.5987
0
VERTEX
8
CUT
10
140.0506
20
214.3702
0
VERTEX
8
CUT
10
143.3622
20
217.5003
0
VERTEX
8
CUT
10
147.3080
20
219.9853
0
VERTEX
8
CUT
10
149.5315
20
220.9446
0
VERTEX
8
CUT
10
152.9991
20
222.0661
0
VERTEX
8
CUT
10
153.8443
20
222.4631
0
VERTEX
8
CUT
10
154.1380
20
222.8983
0
VERTEX
8
CUT
10
153.9007
20
223.2834
0
VERTEX
8
CUT
10
152.1145
20
223.7952
0
SEQEND
0
ENDSEC
0
EOF
