0
SECTION
2
HEADER
9
$ACADVER
1
AC1009
9
$INSUNITS
70
4
0
ENDSEC
0
SECTION
2
TABLES
0
TABLE
2
LAYER
70
1
0
LAYER
2
CUT
70
0
62
7
6
CONTINUOUS
0
ENDTAB
0
ENDSEC
0
SECTION
2
ENTITIES
0
POLYLINE
8
CUT
66
1
70
1
10
0.0
20
0.0
30
0.0
0
VERTEX
8
CUT
10
174.3356
20
151.1763
0
VERTEX
8
CUT
10
173.5934
20
148.0872
0
VERTEX
8
CUT
10
173.6330
20
141.3012
0
VERTEX
8
CUT
10
173.3728
20
140.6708
0
VERTEX
8
CUT
10
172.8380
20
140.1837
0
VERTEX
8
CUT
10
172.0075
20
139.8647
0
VERTEX
8
CUT
10
170.3836
20
139.8700
0
VERTEX
8
CUT
10
169.0530
20
140.1765
0
VERTEX
8
CUT
10
167.1890
20
141.0418
0
VERTEX
8
CUT
10
165.6131
20
142.3951
0
VERTEX
8
CUT
10
164.2825
20
144.1804
0
VERTEX
8
CUT
10
163.2214
20
146.2277
0
VERTEX
8
CUT
10
162.5452
20
148.4768
0
VERTEX
8
CUT
10
162.1995
20
150.8833
0
VERTEX
8
CUT
10
162.3511
20
153.1322
0
VERTEX
8
CUT
10
162.9771
20
155.3368
0
VERTEX
8
CUT
10
164.2403
20
157.4172
0
VERTEX
8
CUT
10
165.1759
20
158.5122
0
VERTEX
8
CUT
10
167.3259
20
160.5083
0
VERTEX
8
CUT
10
169.6380
20
162.0747
0
VERTEX
8
CUT
10
170.8322
20
162.6300
0
VERTEX
8
CUT
10
174.4806
20
163.5233
0
VERTEX
8
CUT
10
178.5184
20
163.6417
0
VERTEX
8
CUT
10
182.4434
20
162.9931
0
VERTEX
8
CUT
10
184.2095
20
162.4044
0
VERTEX
8
CUT
10
185.8064
20
161.6107
0
VERTEX
8
CUT
10
188.6409
20
159.3940
0
VERTEX
8
CUT
10
190.3932
20
157.4552
0
VERTEX
8
CUT
10
191.8073
20
155.4282
0
VERTEX
8
CUT
10
193.0955
20
152.4900
0
VERTEX
8
CUT
10
193.3211
20
151.2286
0
VERTEX
8
CUT
10
193.3952
20
148.3891
0
VERTEX
8
CUT
10
193.1216
20
144.5939
0
VERTEX
8
CUT
10
192.8463
20
143.6682
0
VERTEX
8
CUT
10
191.8701
20
142.0164
0
VERTEX
8
CUT
10
189.0114
20
138.9693
0
VERTEX
8
CUT
10
187.7569
20
138.0233
0
VERTEX
8
CUT
10
185.2609
20
136.8540
0
VERTEX
8
CUT
10
182.7612
20
136.5470
0
VERTEX
8
CUT
10
180.3645
20
137.1511
0
VERTEX
8
CUT
10
178.7841
20
138.1725
0
VERTEX
8
CUT
10
177.9767
20
139.5115
0
VERTEX
8
CUT
10
177.8626
20
140.6827
0
VERTEX
8
CUT
10
178.3915
20
142.6474
0
VERTEX
8
CUT
10
179.1651
20
144.3821
0
VERTEX
8
CUT
10
180.8010
20
146.8973
0
VERTEX
8
CUT
10
180.8263
20
146.9321
0
VERTEX
8
CUT
10
180.8280
20
146.9387
0
VERTEX
8
CUT
10
181.0051
20
147.2109
0
VERTEX
8
CUT
10
181.3289
20
148.4015
0
VERTEX
8
CUT
10
181.3276
20
151.7929
0
VERTEX
8
CUT
10
181.0267
20
154.2337
0
VERTEX
8
CUT
10
180.1936
20
157.1723
0
VERTEX
8
CUT
10
179.3434
20
158.4906
0
VERTEX
8
CUT
10
178.9606
20
158.5287
0
VERTEX
8
CUT
10
178.4106
20
158.0813
0
VERTEX
8
CUT
10
177.9747
20
157.5842
0
VERTEX
8
CUT
10
177.6569
20
157.2548
0
VERTEX
8
CUT
10
177.5506
20
157.1006
0
VERTEX
8
CUT
10
176.8335
20
156.2828
0
VERTEX
8
CUT
10
176.0990
20
154.9937
0
VERTEX
8
CUT
10
175.7614
20
154.5036
0
VERTEX
8
CUT
10
175.5940
20
154.1073
0
VERTEX
8
CUT
10
175.1877
20
153.3942
0
SEQEND
0
POLYLINE
8
CUT
66
1
70
1
10
0.0
20
0.0
30
0.0
0
VERTEX
8
CUT
10
50.2025
20
212.0756
0
VERTEX
8
CUT
10
52.0528
20
212.8349
0
VERTEX
8
CUT
10
54.4375
20
214.2649
0
VERTEX
8
CUT
10
55.9918
20
216.1803
0
VERTEX
8
CUT
10
56.9442
20
218.9354
0
VERTEX
8
CUT
10
57.7955
20
225.7205
0
VERTEX
8
CUT
10
58.2949
20
227.7892
0
VERTEX
8
CUT
10
59.1822
20
229.2585
0
VERTEX
8
CUT
10
60.5256
20
230.3267
0
VERTEX
8
CUT
10
61.8293
20
230.9363
0
VERTEX
8
CUT
10
64.3417
20
231.2044
0
VERTEX
8
CUT
10
66.8080
20
230.6554
0
VERTEX
8
CUT
10
68.5069
20
229.5972
0
VERTEX
8
CUT
10
73.5442
20
225.7184
0
VERTEX
8
CUT
10
76.0553
20
224.3187
0
VERTEX
8
CUT
10
78.4388
20
223.5243
0
VERTEX
8
CUT
10
80.8805
20
223.2285
0
VERTEX
8
CUT
10
82.6568
20
223.3427
0
VERTEX
8
CUT
10
84.2698
20
223.6792
0
VERTEX
8
CUT
10
87.0690
20
225.0730
0
VERTEX
8
CUT
10
88.2441
20
226.0721
0
VERTEX
8
CUT
10
89.3195
20
227.3742
0
VERTEX
8
CUT
10
90.2315
20
228.8745
0
VERTEX
8
CUT
10
91.3250
20
231.5786
0
VERTEX
8
CUT
10
91.7253
20
234.0949
0
VERTEX
8
CUT
10
91.8743
20
237.6936
0
VERTEX
8
CUT
10
91.4270
20
248.7806
0
VERTEX
8
CUT
10
91.5396
20
251.0685
0
VERTEX
8
CUT
10
92.6329
20
253.5000
0
VERTEX
8
CUT
10
93.6194
20
254.7107
0
VERTEX
8
CUT
10
94.7941
20
255.5327
0
VERTEX
8
CUT
10
96.1070
20
255.9276
0
VERTEX
8
CUT
10
97.8459
20
255.8840
0
VERTEX
8
CUT
10
98.8553
20
255.5147
0
VERTEX
8
CUT
10
100.4257
20
254.2443
0
VERTEX
8
CUT
10
101.5873
20
252.1473
0
VERTEX
8
CUT
10
102.4895
20
248.0558
0
VERTEX
8
CUT
10
103.2256
20
245.7089
0
VERTEX
8
CUT
10
104.1843
20
243.8947
0
VERTEX
8
CUT
10
105.4969
20
242.5386
0
VERTEX
8
CUT
10
106.9051
20
241.7440
0
VERTEX
8
CUT
10
108.8027
20
241.3134
0
VERTEX
8
CUT
10
110.5655
20
241.7006
0
VERTEX
8
CUT
10
112.0969
20
242.5023
0
VERTEX
8
CUT
10
113.4607
20
243.9379
0
VERTEX
8
CUT
10
114.5119
20
246.2167
0
VERTEX
8
CUT
10
116.3084
20
253.7633
0
VERTEX
8
CUT
10
117.3974
20
256.0422
0
VERTEX
8
CUT
10
118.1422
20
256.9322
0
VERTEX
8
CUT
10
120.0484
20
258.1478
0
VERTEX
8
CUT
10
121.2638
20
258.5368
0
VERTEX
8
CUT
10
124.3518
20
259.0221
0
VERTEX
8
CUT
10
125.5236
20
259.4343
0
VERTEX
8
CUT
10
126.4042
20
260.0914
0
VERTEX
8
CUT
10
127.1508
20
261.0590
0
VERTEX
8
CUT
10
128.0235
20
262.9220
0
VERTEX
8
CUT
10
128.6072
20
265.2320
0
VERTEX
8
CUT
10
128.9012
20
268.3302
0
VERTEX
8
CUT
10
129.1258
20
276.8018
0
VERTEX
8
CUT
10
129.2792
20
278.5055
0
VERTEX
8
CUT
10
129.8842
20
281.0669
0
VERTEX
8
CUT
10
130.9079
20
282.9301
0
VERTEX
8
CUT
10
131.9776
20
284.0787
0
VERTEX
8
CUT
10
134.2511
20
285.5149
0
VERTEX
8
CUT
10
135.8918
20
285.8312
0
VERTEX
8
CUT
10
137.1865
20
285.6641
0
VERTEX
8
CUT
10
138.3188
20
285.2091
0
VERTEX
8
CUT
10
139.4381
20
284.4376
0
VERTEX
8
CUT
10
141.2957
20
282.2070
0
VERTEX
8
CUT
10
141.9996
20
280.6936
0
VERTEX
8
CUT
10
142.6454
20
277.8506
0
VERTEX
8
CUT
10
142.9832
20
266.1914
0
VERTEX
8
CUT
10
143.6095
20
260.9182
0
VERTEX
8
CUT
10
144.9340
20
256.8216
0
VERTEX
8
CUT
10
146.8785
20
253.5460
0
VERTEX
8
CUT
10
147.9207
20
252.4638
0
VERTEX
8
CUT
10
149.0735
20
251.7013
0
VERTEX
8
CUT
10
151.1988
20
251.0410
0
VERTEX
8
CUT
10
153.2791
20
251.2544
0
VERTEX
8
CUT
10
155.8256
20
252.3383
0
VERTEX
8
CUT
10
157.4042
20
252.7893
0
VERTEX
8
CUT
10
158.7503
20
252.6824
0
VERTEX
8
CUT
10
159.4608
20
252.3721
0
VERTEX
8
CUT
10
161.1814
20
250.8759
0
VERTEX
8
CUT
10
161.9830
20
249.7157
0
VERTEX
8
CUT
10
162.8103
20
247.3468
0
VERTEX
8
CUT
10
163.5906
20
243.9266
0
VERTEX
8
CUT
10
164.1901
20
242.4025
0
VERTEX
8
CUT
10
165.4910
20
240.7496
0
VERTEX
8
CUT
10
167.2122
20
239.6854
0
VERTEX
8
CUT
10
168.0629
20
239.4544
0
VERTEX
8
CUT
10
169.0463
20
239.6590
0
VERTEX
8
CUT
10
172.7378
20
241.9101
0
VERTEX
8
CUT
10
173.6273
20
242.2430
0
VERTEX
8
CUT
10
175.9326
20
242.0490
0
VERTEX
8
CUT
10
176.9000
20
241.7006
0
VERTEX
8
CUT
10
177.6696
20
241.1665
0
VERTEX
8
CUT
10
178.3853
20
240.3658
0
VERTEX
8
CUT
10
179.3590
20
238.1190
0
VERTEX
8
CUT
10
180.7528
20
231.7370
0
VERTEX
8
CUT
10
181.9505
20
228.6138
0
VERTEX
8
CUT
10
183.7695
20
226.2019
0
VERTEX
8
CUT
10
185.5867
20
224.6068
0
VERTEX
8
CUT
10
187.5569
20
223.5129
0
VERTEX
8
CUT
10
189.6705
20
222.9294
0
VERTEX
8
CUT
10
191.9356
20
222.8194
0
VERTEX
8
CUT
10
194.2793
20
223.1853
0
VERTEX
8
CUT
10
196.7430
20
224.0671
0
VERTEX
8
CUT
10
199.2662
20
225.4188
0
VERTEX
8
CUT
10
204.0438
20
228.8858
0
VERTEX
8
CUT
10
206.1814
20
230.1079
0
VERTEX
8
CUT
10
208.8452
20
231.1209
0
VERTEX
8
CUT
10
210.3062
20
231.1313
0
VERTEX
8
CUT
10
211.8592
20
230.6709
0
VERTEX
8
CUT
10
213.2790
20
229.8682
0
VERTEX
8
CUT
10
214.5007
20
228.8035
0
VERTEX
8
CUT
10
215.2988
20
227.6902
0
VERTEX
8
CUT
10
215.9525
20
225.9842
0
VERTEX
8
CUT
10
216.9571
20
218.5388
0
VERTEX
8
CUT
10
217.5920
20
215.8629
0
VERTEX
8
CUT
10
219.2676
20
213.4855
0
VERTEX
8
CUT
10
220.6258
20
212.2413
0
VERTEX
8
CUT
10
221.8991
20
211.4107
0
VERTEX
8
CUT
10
222.5673
20
211.2213
0
VERTEX
8
CUT
10
224.4660
20
211.5541
0
VERTEX
8
CUT
10
238.1323
20
215.4274
0
VERTEX
8
CUT
10
240.7297
20
216.0286
0
VERTEX
8
CUT
10
241.9917
20
216.0403
0
VERTEX
8
CUT
10
242.3801
20
215.5432
0
VERTEX
8
CUT
10
242.3406
20
214.8451
0
VERTEX
8
CUT
10
241.1189
20
213.2586
0
VERTEX
8
CUT
10
238.6722
20
211.3404
0
VERTEX
8
CUT
10
233.4011
20
208.1852
0
VERTEX
8
CUT
10
232.8315
20
207.6782
0
VERTEX
8
CUT
10
234.1029
20
204.0960
0
VERTEX
8
CUT
10
234.2249
20
202.1421
0
VERTEX
8
CUT
10
233.4351
20
198.6801
0
VERTEX
8
CUT
10
231.8638
20
194.6661
0
VERTEX
8
CUT
10
231.6894
20
193.6911
0
VERTEX
8
CUT
10
231.7630
20
191.8461
0
VERTEX
8
CUT
10
232.1710
20
191.5093
0
VERTEX
8
CUT
10
242.9998
20
191.6070
0
VERTEX
8
CUT
10
244.6292
20
191.3341
0
VERTEX
8
CUT
10
245.1398
20
190.9344
0
VERTEX
8
CUT
10
245.1621
20
190.0583
0
VERTEX
8
CUT
10
244.2019
20
189.2522
0
VERTEX
8
CUT
10
239.7535
20
187.4206
0
VERTEX
8
CUT
10
233.2795
20
185.4479
0
VERTEX
8
CUT
10
232.8772
20
184.9853
0
VERTEX
8
CUT
10
232.8424
20
184.1325
0
VERTEX
8
CUT
10
233.6546
20
181.5472
0
VERTEX
8
CUT
10
234.5361
20
180.0880
0
VERTEX
8
CUT
10
235.7650
20
178.8320
0
VERTEX
8
CUT
10
237.2390
20
177.9189
0
VERTEX
8
CUT
10
238.1879
20
177.5729
0
VERTEX
8
CUT
10
243.7012
20
176.4282
0
VERTEX
8
CUT
10
246.1506
20
175.5490
0
VERTEX
8
CUT
10
247.8472
20
174.3144
0
VERTEX
8
CUT
10
249.0523
20
172.5223
0
VERTEX
8
CUT
10
249.5761
20
171.2849
0
VERTEX
8
CUT
10
249.7729
20
169.9959
0
VERTEX
8
CUT
10
249.6931
20
168.7813
0
VERTEX
8
CUT
10
249.2908
20
167.5553
0
VERTEX
8
CUT
10
248.6491
20
166.4642
0
VERTEX
8
CUT
10
247.6688
20
165.4089
0
VERTEX
8
CUT
10
246.4735
20
164.4389
0
VERTEX
8
CUT
10
242.4486
20
161.9309
0
VERTEX
8
CUT
10
241.5192
20
161.0425
0
VERTEX
8
CUT
10
240.4523
20
159.2347
0
VERTEX
8
CUT
10
240.2680
20
157.1843
0
VERTEX
8
CUT
10
240.7647
20
155.3959
0
VERTEX
8
CUT
10
241.4722
20
154.1368
0
VERTEX
8
CUT
10
243.4293
20
152.1459
0
VERTEX
8
CUT
10
247.5087
20
148.8130
0
VERTEX
8
CUT
10
249.0978
20
146.9963
0
VERTEX
8
CUT
10
250.2366
20
145.0982
0
VERTEX
8
CUT
10
250.9493
20
143.1890
0
VERTEX
8
CUT
10
251.2265
20
141.0994
0
VERTEX
8
CUT
10
251.0741
20
139.1084
0
VERTEX
8
CUT
10
250.4265
20
137.0874
0
VERTEX
8
CUT
10
249.3133
20
135.0952
0
VERTEX
8
CUT
10
247.9365
20
133.4215
0
VERTEX
8
CUT
10
246.1881
20
132.0451
0
VERTEX
8
CUT
10
243.9142
20
130.8655
0
VERTEX
8
CUT
10
238.7694
20
129.0974
0
VERTEX
8
CUT
10
235.8289
20
127.7225
0
VERTEX
8
CUT
10
233.7737
20
125.7453
0
VERTEX
8
CUT
10
232.8674
20
123.9167
0
VERTEX
8
CUT
10
232.6579
20
122.5302
0
VERTEX
8
CUT
10
232.6925
20
120.7144
0
VERTEX
8
CUT
10
233.2305
20
118.6792
0
VERTEX
8
CUT
10
233.7473
20
117.6351
0
VERTEX
8
CUT
10
235.1972
20
115.3692
0
VERTEX
8
CUT
10
240.1182
20
109.5883
0
VERTEX
8
CUT
10
240.8799
20
108.4037
0
VERTEX
8
CUT
10
241.6650
20
106.4973
0
VERTEX
8
CUT
10
242.0548
20
103.6090
0
VERTEX
8
CUT
10
241.9012
20
102.2292
0
VERTEX
8
CUT
10
241.5030
20
100.9313
0
VERTEX
8
CUT
10
240.0876
20
98.7992
0
VERTEX
8
CUT
10
238.2050
20
97.5514
0
VERTEX
8
CUT
10
236.7350
20
97.1706
0
VERTEX
8
CUT
10
230.5606
20
96.8821
0
VERTEX
8
CUT
10
229.6113
20
96.4926
0
VERTEX
8
CUT
10
227.2898
20
94.2414
0
VERTEX
8
CUT
10
226.4316
20
92.4602
0
VERTEX
8
CUT
10
226.1268
20
91.2818
0
VERTEX
8
CUT
10
225.7972
20
88.2287
0
VERTEX
8
CUT
10
225.6861
20
83.9742
0
VERTEX
8
CUT
10
225.8356
20
79.1955
0
VERTEX
8
CUT
10
226.2424
20
75.4644
0
VERTEX
8
CUT
10
227.6222
20
67.5946
0
VERTEX
8
CUT
10
233.1388
20
41.4658
0
VERTEX
8
CUT
10
233.8863
20
36.1620
0
VERTEX
8
CUT
10
234.2235
20
31.7150
0
VERTEX
8
CUT
10
234.1134
20
27.9668
0
VERTEX
8
CUT
10
233.5829
20
24.8444
0
VERTEX
8
CUT
10
232.5974
20
22.2678
0
VERTEX
8
CUT
10
231.1707
20
20.0795
0
VERTEX
8
CUT
10
229.1452
20
18.3542
0
VERTEX
8
CUT
10
227.8972
20
17.7269
0
VERTEX
8
CUT
10
226.5715
20
17.3395
0
VERTEX
8
CUT
10
223.7236
20
17.1522
0
VERTEX
8
CUT
10
220.6328
20
17.8100
0
VERTEX
8
CUT
10
217.9642
20
18.9786
0
VERTEX
8
CUT
10
215.1064
20
20.6752
0
VERTEX
8
CUT
10
211.8908
20
23.2195
0
VERTEX
8
CUT
10
208.0085
20
26.8411
0
VERTEX
8
CUT
10
203.2411
20
31.7202
0
VERTEX
8
CUT
10
197.3014
20
38.1828
0
VERTEX
8
CUT
10
176.9516
20
61.3282
0
VERTEX
8
CUT
10
172.1275
20
66.0051
0
VERTEX
8
CUT
10
169.5949
20
67.8655
0
VERTEX
8
CUT
10
167.6885
20
68.8164
0
VERTEX
8
CUT
10
165.8783
20
69.2741
0
VERTEX
8
CUT
10
164.3391
20
68.9397
0
VERTEX
8
CUT
10
163.3283
20
68.3493
0
VERTEX
8
CUT
10
162.7920
20
67.7792
0
VERTEX
8
CUT
10
162.4427
20
66.8725
0
VERTEX
8
CUT
10
161.8486
20
62.4583
0
VERTEX
8
CUT
10
161.2811
20
61.0467
0
VERTEX
8
CUT
10
160.3803
20
59.9987
0
VERTEX
8
CUT
10
159.1404
20
59.1718
0
VERTEX
8
CUT
10
157.9201
20
58.6976
0
VERTEX
8
CUT
10
156.6690
20
58.5449
0
VERTEX
8
CUT
10
155.4125
20
58.7387
0
VERTEX
8
CUT
10
154.1501
20
59.2741
0
VERTEX
8
CUT
10
152.8526
20
60.0758
0
VERTEX
8
CUT
10
151.5394
20
61.2373
0
VERTEX
8
CUT
10
150.1208
20
62.7329
0
VERTEX
8
CUT
10
146.5780
20
67.3183
0
VERTEX
8
CUT
10
143.9560
20
69.9718
0
VERTEX
8
CUT
10
140.6167
20
71.9123
0
VERTEX
8
CUT
10
139.0066
20
72.4584
0
VERTEX
8
CUT
10
137.3032
20
72.6730
0
VERTEX
8
CUT
10
135.6355
20
72.6714
0
VERTEX
8
CUT
10
133.3966
20
72.3445
0
VERTEX
8
CUT
10
131.4799
20
71.4430
0
VERTEX
8
CUT
10
130.0650
20
70.4348
0
VERTEX
8
CUT
10
128.9753
20
69.2039
0
VERTEX
8
CUT
10
128.0017
20
67.5181
0
VERTEX
8
CUT
10
126.2296
20
62.1196
0
VERTEX
8
CUT
10
125.0104
20
59.3460
0
VERTEX
8
CUT
10
123.3009
20
57.2664
0
VERTEX
8
CUT
10
121.3146
20
55.9565
0
VERTEX
8
CUT
10
119.1296
20
55.3016
0
VERTEX
8
CUT
10
116.8088
20
55.3016
0
VERTEX
8
CUT
10
114.5599
20
55.9748
0
VERTEX
8
CUT
10
112.4261
20
57.3223
0
VERTEX
8
CUT
10
110.5576
20
59.2308
0
VERTEX
8
CUT
10
107.6210
20
64.1373
0
VERTEX
8
CUT
10
106.6870
20
65.1027
0
VERTEX
8
CUT
10
104.5734
20
66.4234
0
VERTEX
8
CUT
10
102.3044
20
66.9605
0
VERTEX
8
CUT
10
101.1110
20
66.8935
0
VERTEX
8
CUT
10
98.9900
20
66.3808
0
VERTEX
8
CUT
10
96.7152
20
65.2811
0
VERTEX
8
CUT
10
94.1865
20
63.4944
0
VERTEX
8
CUT
10
91.3383
20
60.9410
0
VERTEX
8
CUT
10
87.9192
20
57.4468
0
VERTEX
8
CUT
10
79.0626
20
47.1759
0
VERTEX
8
CUT
10
67.1213
20
32.5857
0
VERTEX
8
CUT
10
61.9663
20
26.9457
0
VERTEX
8
CUT
10
57.8397
20
23.0841
0
VERTEX
8
CUT
10
54.5548
20
20.8610
0
VERTEX
8
CUT
10
51.9396
20
19.8147
0
VERTEX
8
CUT
10
50.6726
20
19.6132
0
VERTEX
8
CUT
10
48.1358
20
19.6153
0
VERTEX
8
CUT
10
46.1476
20
19.9641
0
VERTEX
8
CUT
10
44.4584
20
20.6996
0
VERTEX
8
CUT
10
42.9331
20
21.8867
0
VERTEX
8
CUT
10
40.7446
20
24.7209
0
VERTEX
8
CUT
10
39.6753
20
27.2132
0
VERTEX
8
CUT
10
39.0379
20
30.1191
0
VERTEX
8
CUT
10
38.7789
20
33.4492
0
VERTEX
8
CUT
10
38.9263
20
37.3553
0
VERTEX
8
CUT
10
39.4903
20
41.8748
0
VERTEX
8
CUT
10
40.4207
20
46.9729
0
VERTEX
8
CUT
10
44.4115
20
64.0572
0
VERTEX
8
CUT
10
46.0519
20
72.7080
0
VERTEX
8
CUT
10
46.5350
20
76.3916
0
VERTEX
8
CUT
10
46.9427
20
83.1743
0
VERTEX
8
CUT
10
46.7938
20
89.8911
0
VERTEX
8
CUT
10
46.5008
20
92.8989
0
VERTEX
8
CUT
10
45.3570
20
96.1464
0
VERTEX
8
CUT
10
44.7956
20
97.2232
0
VERTEX
8
CUT
10
43.5324
20
98.7684
0
VERTEX
8
CUT
10
41.9216
20
99.8374
0
VERTEX
8
CUT
10
38.6205
20
100.7645
0
VERTEX
8
CUT
10
36.4961
20
101.9745
0
VERTEX
8
CUT
10
34.9090
20
103.8156
0
VERTEX
8
CUT
10
34.3679
20
104.8880
0
VERTEX
8
CUT
10
33.9321
20
107.3476
0
VERTEX
8
CUT
10
34.0510
20
108.9355
0
VERTEX
8
CUT
10
34.8060
20
111.0491
0
VERTEX
8
CUT
10
37.7739
20
115.1537
0
VERTEX
8
CUT
10
39.0798
20
117.9085
0
VERTEX
8
CUT
10
39.5221
20
120.7101
0
VERTEX
8
CUT
10
39.1935
20
123.4307
0
VERTEX
8
CUT
10
38.1190
20
125.7308
0
VERTEX
8
CUT
10
36.1426
20
128.0093
0
VERTEX
8
CUT
10
29.6545
20
132.9351
0
VERTEX
8
CUT
10
27.1002
20
135.6069
0
VERTEX
8
CUT
10
25.4944
20
138.2588
0
VERTEX
8
CUT
10
24.9958
20
139.6673
0
VERTEX
8
CUT
10
24.6461
20
142.7097
0
VERTEX
8
CUT
10
24.7226
20
144.2516
0
VERTEX
8
CUT
10
25.0660
20
145.7035
0
VERTEX
8
CUT
10
26.3256
20
148.2979
0
VERTEX
8
CUT
10
28.4754
20
150.5278
0
VERTEX
8
CUT
10
31.3080
20
152.5343
0
VERTEX
8
CUT
10
33.4056
20
154.3793
0
VERTEX
8
CUT
10
34.7372
20
156.1820
0
VERTEX
8
CUT
10
35.3475
20
158.0490
0
VERTEX
8
CUT
10
35.4178
20
159.0919
0
VERTEX
8
CUT
10
35.2084
20
160.6239
0
VERTEX
8
CUT
10
34.5766
20
162.2611
0
VERTEX
8
CUT
10
33.0770
20
164.2963
0
VERTEX
8
CUT
10
29.9043
20
166.9503
0
VERTEX
8
CUT
10
28.2545
20
168.7206
0
VERTEX
8
CUT
10
27.0518
20
171.1253
0
VERTEX
8
CUT
10
26.8462
20
172.4788
0
VERTEX
8
CUT
10
26.9726
20
173.7960
0
VERTEX
8
CUT
10
27.3894
20
174.9652
0
VERTEX
8
CUT
10
28.0848
20
176.0857
0
VERTEX
8
CUT
10
29.0479
20
177.0875
0
VERTEX
8
CUT
10
30.2741
20
177.9311
0
VERTEX
8
CUT
10
33.5846
20
179.4027
0
VERTEX
8
CUT
10
35.3958
20
180.6433
0
VERTEX
8
CUT
10
36.2245
20
181.6441
0
VERTEX
8
CUT
10
36.8367
20
182.8212
0
VERTEX
8
CUT
10
37.2485
20
184.7888
0
VERTEX
8
CUT
10
37.1772
20
185.7801
0
VERTEX
8
CUT
10
36.8675
20
186.3618
0
VERTEX
8
CUT
10
30.8394
20
188.4968
0
VERTEX
8
CUT
10
29.0424
20
189.3370
0
VERTEX
8
CUT
10
27.9526
20
190.2047
0
VERTEX
8
CUT
10
27.7031
20
190.6678
0
VERTEX
8
CUT
10
27.7766
20
191.3225
0
VERTEX
8
CUT
10
28.3915
20
191.6751
0
VERTEX
8
CUT
10
29.6341
20
191.8308
0
VERTEX
8
CUT
10
38.9821
20
192.0518
0
VERTEX
8
CUT
10
39.5174
20
192.1769
0
VERTEX
8
CUT
10
39.7218
20
192.5095
0
VERTEX
8
CUT
10
39.8959
20
194.8160
0
VERTEX
8
CUT
10
39.5778
20
196.4757
0
VERTEX
8
CUT
10
36.6746
20
202.6279
0
VERTEX
8
CUT
10
36.3219
20
203.8690
0
VERTEX
8
CUT
10
36.3163
20
206.3122
0
VERTEX
8
CUT
10
36.7859
20
209.5077
0
VERTEX
8
CUT
10
35.9722
20
210.4795
0
VERTEX
8
CUT
10
32.6846
20
212.7603
0
VERTEX
8
CUT
10
31.2683
20
213.9850
0
VERTEX
8
CUT
10
30.3207
20
215.4965
0
VERTEX
8
CUT
10
30.5679
20
216.3059
0
VERTEX
8
CUT
10
31.5115
20
216.5509
0
VERTEX
8
CUT
10
32.4212
20
216.4312
0
VERTEX
8
CUT
10
45.3879
20
212.6303
0
VERTEX
8
CUT
10
48.3013
20
211.9717
0
SEQEND
0
POLYLINE
8
CUT
66
1
70
1
10
0.0
20
0.0
30
0.0
0
VERTEX
8
CUT
10
197.1075
20
151.3215
0
VERTEX
8
CUT
10
193.7941
20
156.5696
0
VERTEX
8
CUT
10
192.2553
20
158.5218
0
VERTEX
8
CUT
10
190.6589
20
160.2270
0
VERTEX
8
CUT
10
188.8879
20
161.7069
0
VERTEX
8
CUT
10
185.0545
20
163.9976
0
VERTEX
8
CUT
10
182.9088
20
164.8257
0
VERTEX
8
CUT
10
178.3322
20
165.7416
0
VERTEX
8
CUT
10
169.2193
20
165.2579
0
VERTEX
8
CUT
10
166.6647
20
165.4104
0
VERTEX
8
CUT
10
164.7262
20
166.0909
0
VERTEX
8
CUT
10
161.0777
20
168.4315
0
VERTEX
8
CUT
10
159.6985
20
169.0038
0
VERTEX
8
CUT
10
158.4556
20
169.1224
0
VERTEX
8
CUT
10
157.4663
20
168.7467
0
VERTEX
8
CUT
10
156.7913
20
168.0009
0
VERTEX
8
CUT
10
156.2655
20
166.7207
0
VERTEX
8
CUT
10
155.9194
20
164.8274
0
VERTEX
8
CUT
10
155.8113
20
162.5459
0
VERTEX
8
CUT
10
155.9941
20
159.4392
0
VERTEX
8
CUT
10
156.4813
20
156.2900
0
VERTEX
8
CUT
10
157.2132
20
153.3625
0
VERTEX
8
CUT
10
158.2110
20
150.5117
0
VERTEX
8
CUT
10
159.4677
20
147.8089
0
VERTEX
8
CUT
10
160.9799
20
145.2599
0
VERTEX
8
CUT
10
162.7806
20
142.9317
0
VERTEX
8
CUT
10
164.7444
20
140.8220
0
VERTEX
8
CUT
10
167.0317
20
138.8689
0
VERTEX
8
CUT
10
169.3668
20
137.2778
0
VERTEX
8
CUT
10
173.0550
20
135.5472
0
VERTEX
8
CUT
10
175.2754
20
134.8454
0
VERTEX
8
CUT
10
177.6656
20
134.4070
0
VERTEX
8
CUT
10
184.5500
20
134.4080
0
VERTEX
8
CUT
10
188.0513
20
134.6702
0
VERTEX
8
CUT
10
190.7442
20
135.4359
0
VERTEX
8
CUT
10
203.9198
20
140.2906
0
VERTEX
8
CUT
10
205.7994
20
141.3987
0
VERTEX
8
CUT
10
206.2677
20
141.9802
0
VERTEX
8
CUT
10
206.4466
20
142.6427
0
VERTEX
8
CUT
10
206.0701
20
143.9717
0
VERTEX
8
CUT
10
204.5179
20
145.4476
0
VERTEX
8
CUT
10
200.4238
20
147.7933
0
VERTEX
8
CUT
10
199.5034
20
148.5131
0
SEQEND
0
POLYLINE
8
CUT
66
1
70
1
10
0.0
20
0.0
30
0.0
0
VERTEX
8
CUT
10
101.4286
20
140.1639
0
VERTEX
8
CUT
10
100.1014
20
140.3276
0
VERTEX
8
CUT
10
99.2631
20
140.7734
0
VERTEX
8
CUT
10
99.0352
20
141.3594
0
VERTEX
8
CUT
10
98.8849
20
143.0147
0
VERTEX
8
CUT
10
98.8464
20
148.8036
0
VERTEX
8
CUT
10
98.3387
20
151.3403
0
VERTEX
8
CUT
10
98.0897
20
151.8975
0
VERTEX
8
CUT
10
98.0847
20
151.9186
0
VERTEX
8
CUT
10
98.0364
20
152.0168
0
VERTEX
8
CUT
10
97.0910
20
154.1327
0
VERTEX
8
CUT
10
95.7559
20
156.3234
0
VERTEX
8
CUT
10
94.4586
20
158.0287
0
VERTEX
8
CUT
10
93.5871
20
158.6881
0
VERTEX
8
CUT
10
93.4891
20
158.6146
0
VERTEX
8
CUT
10
93.1996
20
158.6302
0
VERTEX
8
CUT
10
92.7228
20
158.1181
0
VERTEX
8
CUT
10
92.3093
20
157.0061
0
VERTEX
8
CUT
10
91.8118
20
155.8135
0
VERTEX
8
CUT
10
91.1885
20
152.7170
0
VERTEX
8
CUT
10
91.1167
20
149.3674
0
VERTEX
8
CUT
10
91.3356
20
148.3938
0
VERTEX
8
CUT
10
91.3361
20
148.3325
0
VERTEX
8
CUT
10
91.3813
20
148.1901
0
VERTEX
8
CUT
10
91.6876
20
146.8278
0
VERTEX
8
CUT
10
93.8123
20
142.9444
0
VERTEX
8
CUT
10
94.4945
20
141.3177
0
VERTEX
8
CUT
10
94.6213
20
140.0563
0
VERTEX
8
CUT
10
94.4811
20
139.4522
0
VERTEX
8
CUT
10
93.1873
20
137.8174
0
VERTEX
8
CUT
10
91.8664
20
137.0810
0
VERTEX
8
CUT
10
90.3953
20
136.6964
0
VERTEX
8
CUT
10
88.7865
20
136.6972
0
VERTEX
8
CUT
10
87.1016
20
137.0797
0
VERTEX
8
CUT
10
85.3884
20
137.8405
0
VERTEX
8
CUT
10
83.7773
20
138.8885
0
VERTEX
8
CUT
10
82.1922
20
140.3536
0
VERTEX
8
CUT
10
80.4488
20
142.5225
0
VERTEX
8
CUT
10
79.5100
20
144.6635
0
VERTEX
8
CUT
10
79.0847
20
146.5633
0
VERTEX
8
CUT
10
78.8989
20
148.8465
0
VERTEX
8
CUT
10
79.1325
20
151.1861
0
VERTEX
8
CUT
10
79.7799
20
153.4930
0
VERTEX
8
CUT
10
80.7910
20
155.6628
0
VERTEX
8
CUT
10
82.1374
20
157.6841
0
VERTEX
8
CUT
10
83.7934
20
159.4963
0
VERTEX
8
CUT
10
85.7411
20
161.1042
0
VERTEX
8
CUT
10
87.8964
20
162.3521
0
VERTEX
8
CUT
10
90.4530
20
163.3405
0
VERTEX
8
CUT
10
93.0227
20
163.8654
0
VERTEX
8
CUT
10
95.5728
20
163.9763
0
VERTEX
8
CUT
10
98.1473
20
163.7157
0
VERTEX
8
CUT
10
100.6655
20
163.0695
0
VERTEX
8
CUT
10
103.0094
20
162.0113
0
VERTEX
8
CUT
10
105.1630
20
160.6132
0
VERTEX
8
CUT
10
107.1469
20
158.8153
0
VERTEX
8
CUT
10
109.0458
20
156.2461
0
VERTEX
8
CUT
10
109.7156
20
154.8669
0
VERTEX
8
CUT
10
110.1686
20
153.4951
0
VERTEX
8
CUT
10
110.4308
20
150.6476
0
VERTEX
8
CUT
10
109.3480
20
145.0768
0
VERTEX
8
CUT
10
109.4172
20
143.5755
0
VERTEX
8
CUT
10
109.9226
20
143.3266
0
VERTEX
8
CUT
10
111.3032
20
144.9446
0
VERTEX
8
CUT
10
113.7012
20
149.6306
0
VERTEX
8
CUT
10
114.8940
20
152.8000
0
VERTEX
8
CUT
10
115.6686
20
156.0149
0
VERTEX
8
CUT
10
116.1123
20
159.5352
0
VERTEX
8
CUT
10
116.2256
20
165.4673
0
VERTEX
8
CUT
10
115.5673
20
167.5959
0
VERTEX
8
CUT
10
114.1588
20
169.0547
0
VERTEX
8
CUT
10
113.3206
20
169.1397
0
VERTEX
8
CUT
10
111.8779
20
168.6943
0
VERTEX
8
CUT
10
107.7156
20
166.0340
0
VERTEX
8
CUT
10
106.1001
20
165.5643
0
VERTEX
8
CUT
10
103.9373
20
165.4440
0
VERTEX
8
CUT
10
95.0159
20
165.7045
0
VERTEX
8
CUT
10
91.9927
20
165.5217
0
VERTEX
8
CUT
10
89.7112
20
165.0358
0
VERTEX
8
CUT
10
86.8383
20
163.8903
0
VERTEX
8
CUT
10
83.5204
20
161.8583
0
VERTEX
8
CUT
10
80.5696
20
159.1605
0
VERTEX
8
CUT
10
78.0771
20
155.8241
0
VERTEX
8
CUT
10
75.5002
20
151.4562
0
VERTEX
8
CUT
10
73.8483
20
149.4601
0
VERTEX
8
CUT
10
71.9133
20
147.8340
0
VERTEX
8
CUT
10
67.4676
20
145.2789
0
VERTEX
8
CUT
10
66.3709
20
144.3170
0
VERTEX
8
CUT
10
66.0319
20
142.9042
0
VERTEX
8
CUT
10
66.2419
20
142.1394
0
VERTEX
8
CUT
10
67.4273
20
140.9197
0
VERTEX
8
CUT
10
68.5305
20
140.3071
0
VERTEX
8
CUT
10
73.4521
20
138.6817
0
VERTEX
8
CUT
10
82.9904
20
135.1429
0
VERTEX
8
CUT
10
86.6177
20
134.4467
0
VERTEX
8
CUT
10
90.2068
20
134.2600
0
VERTEX
8
CUT
10
95.5146
20
134.7026
0
VERTEX
8
CUT
10
98.9718
20
135.5585
0
VERTEX
8
CUT
10
102.6008
20
137.0979
0
VERTEX
8
CUT
10
104.2183
20
138.0374
0
VERTEX
8
CUT
10
106.3781
20
139.6926
0
VERTEX
8
CUT
10
106.7631
20
140.5702
0
VERTEX
8
CUT
10
106.4779
20
140.8425
0
VERTEX
8
CUT
10
105.9870
20
140.8690
0
VERTEX
8
CUT
10
103.1375
20
140.2795
0
SEQEND
0
ENDSEC
0
EOF
