0
SECTION
2
HEADER
9
$ACADVER
1
AC1009
9
$INSUNITS
70
4
0
ENDSEC
0
SECTION
2
TABLES
0
TABLE
2
LAYER
70
1
0
LAYER
2
CUT
70
0
62
7
6
CONTINUOUS
0
ENDTAB
0
ENDSEC
0
SECTION
2
ENTITIES
0
POLYLINE
8
CUT
66
1
70
1
10
0.0
20
0.0
30
0.0
0
VERTEX
8
CUT
10
41.4387
20
0.1121
0
VERTEX
8
CUT
10
38.9860
20
1.0977
0
VERTEX
8
CUT
10
37.5866
20
1.9528
0
VERTEX
8
CUT
10
35.1967
20
4.0436
0
VERTEX
8
CUT
10
34.1085
20
5.4774
0
VERTEX
8
CUT
10
33.1258
20
7.0324
0
VERTEX
8
CUT
10
31.4864
20
10.7963
0
VERTEX
8
CUT
10
30.4702
20
14.0301
0
VERTEX
8
CUT
10
29.9065
20
16.8081
0
VERTEX
8
CUT
10
29.4930
20
24.3696
0
VERTEX
8
CUT
10
29.6060
20
28.4314
0
VERTEX
8
CUT
10
30.5023
20
34.7427
0
VERTEX
8
CUT
10
33.1100
20
47.1453
0
VERTEX
8
CUT
10
33.3334
20
49.7141
0
VERTEX
8
CUT
10
33.1951
20
52.1597
0
VERTEX
8
CUT
10
32.1733
20
53.4154
0
VERTEX
8
CUT
10
30.8152
20
54.2855
0
VERTEX
8
CUT
10
26.0087
20
53.7319
0
VERTEX
8
CUT
10
24.6200
20
54.0364
0
VERTEX
8
CUT
10
23.4809
20
54.5844
0
VERTEX
8
CUT
10
22.5346
20
55.4864
0
VERTEX
8
CUT
10
21.8024
20
56.5644
0
VERTEX
8
CUT
10
21.1042
20
59.2627
0
VERTEX
8
CUT
10
21.1048
20
60.7194
0
VERTEX
8
CUT
10
21.4041
20
62.1868
0
VERTEX
8
CUT
10
22.2522
20
64.0899
0
VERTEX
8
CUT
10
24.4349
20
66.8401
0
VERTEX
8
CUT
10
29.4404
20
72.2963
0
VERTEX
8
CUT
10
32.0214
20
76.2117
0
VERTEX
8
CUT
10
32.9595
20
78.6639
0
VERTEX
8
CUT
10
33.3683
20
81.0180
0
VERTEX
8
CUT
10
33.3374
20
82.8618
0
VERTEX
8
CUT
10
32.8781
20
84.4793
0
VERTEX
8
CUT
10
31.9770
20
85.9351
0
VERTEX
8
CUT
10
30.8577
20
87.1326
0
VERTEX
8
CUT
10
29.8758
20
87.8475
0
VERTEX
8
CUT
10
29.0812
20
87.9579
0
VERTEX
8
CUT
10
26.8224
20
87.7801
0
VERTEX
8
CUT
10
25.3921
20
87.3778
0
VERTEX
8
CUT
10
19.2517
20
84.0156
0
VERTEX
8
CUT
10
17.4244
20
83.5993
0
VERTEX
8
CUT
10
15.7030
20
83.6068
0
VERTEX
8
CUT
10
14.1300
20
83.9826
0
VERTEX
8
CUT
10
12.6673
20
84.6188
0
VERTEX
8
CUT
10
11.2965
20
85.5914
0
VERTEX
8
CUT
10
10.1672
20
86.8058
0
VERTEX
8
CUT
10
9.3428
20
88.1577
0
VERTEX
8
CUT
10
8.7611
20
89.7314
0
VERTEX
8
CUT
10
8.5752
20
91.3452
0
VERTEX
8
CUT
10
8.7284
20
92.1386
0
VERTEX
8
CUT
10
9.4892
20
94.1221
0
VERTEX
8
CUT
10
10.3844
20
95.5968
0
VERTEX
8
CUT
10
12.4133
20
97.5508
0
VERTEX
8
CUT
10
17.6242
20
100.7910
0
VERTEX
8
CUT
10
19.3132
20
102.2551
0
VERTEX
8
CUT
10
20.7941
20
104.0241
0
VERTEX
8
CUT
10
22.0876
20
106.0144
0
VERTEX
8
CUT
10
23.1591
20
108.1879
0
VERTEX
8
CUT
10
23.9355
20
110.4337
0
VERTEX
8
CUT
10
24.4185
20
112.7938
0
VERTEX
8
CUT
10
24.6072
20
115.2015
0
VERTEX
8
CUT
10
24.3895
20
118.2513
0
VERTEX
8
CUT
10
23.9563
20
119.8537
0
VERTEX
8
CUT
10
22.6769
20
122.2358
0
VERTEX
8
CUT
10
21.3693
20
123.7669
0
VERTEX
8
CUT
10
19.6536
20
125.0482
0
VERTEX
8
CUT
10
17.6440
20
126.0738
0
VERTEX
8
CUT
10
13.0821
20
127.3490
0
VERTEX
8
CUT
10
11.0736
20
128.2584
0
VERTEX
8
CUT
10
9.4007
20
129.3617
0
VERTEX
8
CUT
10
8.0878
20
130.6724
0
VERTEX
8
CUT
10
7.1403
20
132.2372
0
VERTEX
8
CUT
10
6.6040
20
133.9198
0
VERTEX
8
CUT
10
6.5245
20
135.6992
0
VERTEX
8
CUT
10
7.0752
20
138.2533
0
VERTEX
8
CUT
10
8.5807
20
140.5112
0
VERTEX
8
CUT
10
13.5758
20
145.5083
0
VERTEX
8
CUT
10
14.9378
20
147.3466
0
VERTEX
8
CUT
10
15.5160
20
149.0594
0
VERTEX
8
CUT
10
15.6582
20
151.1643
0
VERTEX
8
CUT
10
15.5427
20
152.4931
0
VERTEX
8
CUT
10
14.7606
20
154.8736
0
VERTEX
8
CUT
10
13.1595
20
157.2203
0
VERTEX
8
CUT
10
10.7250
20
159.4725
0
VERTEX
8
CUT
10
4.9314
20
163.6612
0
VERTEX
8
CUT
10
2.9862
20
165.5697
0
VERTEX
8
CUT
10
1.6098
20
167.4295
0
VERTEX
8
CUT
10
1.1062
20
168.4284
0
VERTEX
8
CUT
10
0.4938
20
169.9207
0
VERTEX
8
CUT
10
0.1476
20
171.4303
0
VERTEX
8
CUT
10
0.0000
20
172.8846
0
VERTEX
8
CUT
10
0.4192
20
175.6082
0
VERTEX
8
CUT
10
0.9704
20
176.9358
0
VERTEX
8
CUT
10
2.7294
20
179.2191
0
VERTEX
8
CUT
10
3.9630
20
180.2137
0
VERTEX
8
CUT
10
6.1354
20
181.2617
0
VERTEX
8
CUT
10
12.6211
20
182.7548
0
VERTEX
8
CUT
10
14.9249
20
183.7722
0
VERTEX
8
CUT
10
15.9710
20
184.6322
0
VERTEX
8
CUT
10
17.0504
20
185.9375
0
VERTEX
8
CUT
10
17.7618
20
187.1864
0
VERTEX
8
CUT
10
18.1530
20
188.5645
0
VERTEX
8
CUT
10
18.1918
20
191.2737
0
VERTEX
8
CUT
10
17.6964
20
193.1849
0
VERTEX
8
CUT
10
17.2005
20
194.2133
0
VERTEX
8
CUT
10
15.6992
20
196.2567
0
VERTEX
8
CUT
10
11.0082
20
200.8742
0
VERTEX
8
CUT
10
10.1677
20
201.8732
0
VERTEX
8
CUT
10
9.1241
20
203.7368
0
VERTEX
8
CUT
10
8.6173
20
205.6963
0
VERTEX
8
CUT
10
8.5751
20
206.8094
0
VERTEX
8
CUT
10
8.9608
20
209.2493
0
VERTEX
8
CUT
10
10.0655
20
211.1239
0
VERTEX
8
CUT
10
10.9646
20
211.9407
0
VERTEX
8
CUT
10
13.1887
20
213.0065
0
VERTEX
8
CUT
10
17.9328
20
214.1421
0
VERTEX
8
CUT
10
20.0420
20
215.9603
0
VERTEX
8
CUT
10
20.8076
20
217.1067
0
VERTEX
8
CUT
10
21.3436
20
218.3803
0
VERTEX
8
CUT
10
21.7352
20
221.5064
0
VERTEX
8
CUT
10
21.2956
20
225.5262
0
VERTEX
8
CUT
10
19.8404
20
232.5072
0
VERTEX
8
CUT
10
19.9472
20
235.5096
0
VERTEX
8
CUT
10
20.5598
20
237.5201
0
VERTEX
8
CUT
10
21.4368
20
239.2723
0
VERTEX
8
CUT
10
22.6206
20
240.7241
0
VERTEX
8
CUT
10
23.9985
20
241.8715
0
VERTEX
8
CUT
10
25.5301
20
242.6382
0
VERTEX
8
CUT
10
27.2118
20
242.9512
0
VERTEX
8
CUT
10
28.9091
20
242.7946
0
VERTEX
8
CUT
10
31.2805
20
241.7618
0
VERTEX
8
CUT
10
32.2635
20
241.0097
0
VERTEX
8
CUT
10
33.7775
20
239.0744
0
VERTEX
8
CUT
10
34.8367
20
236.3205
0
VERTEX
8
CUT
10
36.1102
20
231.6865
0
VERTEX
8
CUT
10
37.2850
20
229.5471
0
VERTEX
8
CUT
10
38.0632
20
228.6882
0
VERTEX
8
CUT
10
39.8321
20
227.4797
0
VERTEX
8
CUT
10
40.9830
20
227.0945
0
VERTEX
8
CUT
10
42.5565
20
226.8917
0
VERTEX
8
CUT
10
43.9473
20
227.1060
0
VERTEX
8
CUT
10
45.2816
20
227.6678
0
VERTEX
8
CUT
10
46.5225
20
228.6127
0
VERTEX
8
CUT
10
47.5749
20
229.8818
0
VERTEX
8
CUT
10
48.4506
20
231.4866
0
VERTEX
8
CUT
10
49.0803
20
233.3817
0
VERTEX
8
CUT
10
49.5161
20
236.0058
0
VERTEX
8
CUT
10
48.9944
20
246.0767
0
VERTEX
8
CUT
10
49.1472
20
249.2271
0
VERTEX
8
CUT
10
49.7067
20
251.8021
0
VERTEX
8
CUT
10
50.2016
20
252.9915
0
VERTEX
8
CUT
10
50.7794
20
254.1463
0
VERTEX
8
CUT
10
52.2961
20
256.1513
0
VERTEX
8
CUT
10
54.0581
20
257.4617
0
VERTEX
8
CUT
10
56.0361
20
258.1986
0
VERTEX
8
CUT
10
58.1153
20
258.3487
0
VERTEX
8
CUT
10
60.1519
20
257.8467
0
VERTEX
8
CUT
10
62.0285
20
256.7715
0
VERTEX
8
CUT
10
63.6709
20
255.1254
0
VERTEX
8
CUT
10
64.9301
20
252.9069
0
VERTEX
8
CUT
10
66.7571
20
248.3677
0
VERTEX
8
CUT
10
68.1482
20
246.3339
0
VERTEX
8
CUT
10
69.0381
20
245.4769
0
VERTEX
8
CUT
10
70.9609
20
244.3158
0
VERTEX
8
CUT
10
72.8943
20
243.8885
0
VERTEX
8
CUT
10
74.0002
20
244.0676
0
VERTEX
8
CUT
10
75.8495
20
244.8129
0
VERTEX
8
CUT
10
77.3265
20
245.9531
0
VERTEX
8
CUT
10
78.7356
20
248.2818
0
VERTEX
8
CUT
10
79.7627
20
251.6665
0
VERTEX
8
CUT
10
80.8764
20
259.8023
0
VERTEX
8
CUT
10
81.7467
20
263.7679
0
VERTEX
8
CUT
10
82.8914
20
266.6132
0
VERTEX
8
CUT
10
83.6193
20
267.7549
0
VERTEX
8
CUT
10
85.3720
20
269.5823
0
VERTEX
8
CUT
10
87.3002
20
270.8956
0
VERTEX
8
CUT
10
89.3461
20
271.5424
0
VERTEX
8
CUT
10
90.4453
20
271.6235
0
VERTEX
8
CUT
10
92.6110
20
271.2875
0
VERTEX
8
CUT
10
93.8004
20
270.8695
0
VERTEX
8
CUT
10
94.9103
20
270.2002
0
VERTEX
8
CUT
10
100.1420
20
265.4492
0
VERTEX
8
CUT
10
102.1892
20
264.2896
0
VERTEX
8
CUT
10
104.1918
20
264.0652
0
VERTEX
8
CUT
10
105.1853
20
264.2840
0
VERTEX
8
CUT
10
106.8830
20
265.0628
0
VERTEX
8
CUT
10
108.6443
20
266.6136
0
VERTEX
8
CUT
10
109.6207
20
268.1740
0
VERTEX
8
CUT
10
111.5066
20
272.2435
0
VERTEX
8
CUT
10
112.7285
20
273.8190
0
VERTEX
8
CUT
10
114.2404
20
275.0246
0
VERTEX
8
CUT
10
118.2505
20
276.9576
0
VERTEX
8
CUT
10
119.6479
20
278.4265
0
VERTEX
8
CUT
10
120.5605
20
280.6595
0
VERTEX
8
CUT
10
121.5239
20
286.0758
0
VERTEX
8
CUT
10
122.4683
20
289.7291
0
VERTEX
8
CUT
10
123.8310
20
292.7859
0
VERTEX
8
CUT
10
125.6493
20
295.3175
0
VERTEX
8
CUT
10
128.6790
20
298.0480
0
VERTEX
8
CUT
10
130.7002
20
299.1732
0
VERTEX
8
CUT
10
132.7535
20
299.7769
0
VERTEX
8
CUT
10
134.9841
20
300.0000
0
VERTEX
8
CUT
10
138.1093
20
299.6509
0
VERTEX
8
CUT
10
140.8903
20
298.3486
0
VERTEX
8
CUT
10
142.8175
20
296.8661
0
VERTEX
8
CUT
10
143.7385
20
295.9116
0
VERTEX
8
CUT
10
146.1521
20
292.5605
0
VERTEX
8
CUT
10
147.4716
20
289.8510
0
VERTEX
8
CUT
10
148.4605
20
287.0345
0
VERTEX
8
CUT
10
149.0569
20
283.9775
0
VERTEX
8
CUT
10
150.0704
20
270.7166
0
VERTEX
8
CUT
10
151.1098
20
267.8862
0
VERTEX
8
CUT
10
152.1981
20
266.3512
0
VERTEX
8
CUT
10
152.8184
20
265.7381
0
VERTEX
8
CUT
10
154.1005
20
265.0158
0
VERTEX
8
CUT
10
155.5838
20
264.7664
0
VERTEX
8
CUT
10
156.8719
20
264.8858
0
VERTEX
8
CUT
10
157.7751
20
265.3950
0
VERTEX
8
CUT
10
159.1542
20
266.8136
0
VERTEX
8
CUT
10
160.2242
20
268.7005
0
VERTEX
8
CUT
10
161.2948
20
271.5527
0
VERTEX
8
CUT
10
162.6545
20
273.3321
0
VERTEX
8
CUT
10
163.4957
20
273.9795
0
VERTEX
8
CUT
10
164.4936
20
274.4543
0
VERTEX
8
CUT
10
166.5518
20
274.8318
0
VERTEX
8
CUT
10
168.4064
20
274.5620
0
VERTEX
8
CUT
10
169.9926
20
273.8267
0
VERTEX
8
CUT
10
170.7079
20
273.2670
0
VERTEX
8
CUT
10
171.9092
20
271.8031
0
VERTEX
8
CUT
10
173.2418
20
268.9983
0
VERTEX
8
CUT
10
173.6680
20
266.6678
0
VERTEX
8
CUT
10
174.3359
20
259.6093
0
VERTEX
8
CUT
10
174.8128
20
258.2177
0
VERTEX
8
CUT
10
175.5897
20
257.1271
0
VERTEX
8
CUT
10
176.6548
20
256.2113
0
VERTEX
8
CUT
10
180.8803
20
254.1764
0
VERTEX
8
CUT
10
182.6236
20
252.5896
0
VERTEX
8
CUT
10
184.0962
20
250.2330
0
VERTEX
8
CUT
10
186.7432
20
243.8652
0
VERTEX
8
CUT
10
188.5077
20
241.4102
0
VERTEX
8
CUT
10
189.4775
20
240.4430
0
VERTEX
8
CUT
10
190.5843
20
239.6911
0
VERTEX
8
CUT
10
193.1176
20
238.6224
0
VERTEX
8
CUT
10
194.5288
20
238.4064
0
VERTEX
8
CUT
10
195.9258
20
238.5086
0
VERTEX
8
CUT
10
197.4153
20
238.9629
0
VERTEX
8
CUT
10
200.0070
20
240.5518
0
VERTEX
8
CUT
10
201.1374
20
241.7181
0
VERTEX
8
CUT
10
202.0643
20
243.0350
0
VERTEX
8
CUT
10
202.7878
20
244.6187
0
VERTEX
8
CUT
10
203.5142
20
247.1298
0
VERTEX
8
CUT
10
204.6337
20
252.8730
0
VERTEX
8
CUT
10
205.3460
20
255.0925
0
VERTEX
8
CUT
10
206.2649
20
257.0134
0
VERTEX
8
CUT
10
207.3697
20
258.5744
0
VERTEX
8
CUT
10
208.7030
20
259.8197
0
VERTEX
8
CUT
10
210.2052
20
260.6814
0
VERTEX
8
CUT
10
211.8575
20
261.2090
0
VERTEX
8
CUT
10
213.7898
20
261.4071
0
VERTEX
8
CUT
10
216.2919
20
260.9865
0
VERTEX
8
CUT
10
218.5654
20
259.7407
0
VERTEX
8
CUT
10
220.5915
20
257.7255
0
VERTEX
8
CUT
10
222.2261
20
254.9623
0
VERTEX
8
CUT
10
222.8049
20
253.6114
0
VERTEX
8
CUT
10
223.1872
20
250.8436
0
VERTEX
8
CUT
10
223.2999
20
239.1558
0
VERTEX
8
CUT
10
223.7388
20
234.5231
0
VERTEX
8
CUT
10
224.8859
20
231.4498
0
VERTEX
8
CUT
10
225.9941
20
229.6846
0
VERTEX
8
CUT
10
227.4583
20
228.0772
0
VERTEX
8
CUT
10
229.1527
20
226.6437
0
VERTEX
8
CUT
10
230.9146
20
225.5646
0
VERTEX
8
CUT
10
233.2915
20
224.6458
0
VERTEX
8
CUT
10
234.6513
20
224.3782
0
VERTEX
8
CUT
10
236.0595
20
224.1953
0
VERTEX
8
CUT
10
239.5407
20
224.2327
0
VERTEX
8
CUT
10
250.2596
20
225.1656
0
VERTEX
8
CUT
10
251.8085
20
225.0476
0
VERTEX
8
CUT
10
254.8044
20
224.3722
0
VERTEX
8
CUT
10
258.7473
20
222.5720
0
VERTEX
8
CUT
10
260.4140
20
221.3274
0
VERTEX
8
CUT
10
261.8185
20
219.9288
0
VERTEX
8
CUT
10
262.9987
20
218.3746
0
VERTEX
8
CUT
10
263.8900
20
216.6380
0
VERTEX
8
CUT
10
264.6514
20
213.1575
0
VERTEX
8
CUT
10
264.5334
20
211.6970
0
VERTEX
8
CUT
10
264.0357
20
209.9062
0
VERTEX
8
CUT
10
263.5133
20
208.7865
0
VERTEX
8
CUT
10
262.6758
20
207.6373
0
VERTEX
8
CUT
10
258.0543
20
202.8259
0
VERTEX
8
CUT
10
256.8030
20
200.9538
0
VERTEX
8
CUT
10
256.2972
20
199.0894
0
VERTEX
8
CUT
10
256.5159
20
195.5191
0
VERTEX
8
CUT
10
257.3811
20
193.0457
0
VERTEX
8
CUT
10
259.1271
20
190.6272
0
VERTEX
8
CUT
10
260.3465
20
189.3733
0
VERTEX
8
CUT
10
267.2969
20
183.6130
0
VERTEX
8
CUT
10
269.8950
20
180.5677
0
VERTEX
8
CUT
10
270.8294
20
178.9698
0
VERTEX
8
CUT
10
271.9484
20
175.7248
0
VERTEX
8
CUT
10
272.1799
20
172.1081
0
VERTEX
8
CUT
10
271.4881
20
168.7302
0
VERTEX
8
CUT
10
269.8859
20
165.6967
0
VERTEX
8
CUT
10
267.3096
20
163.0089
0
VERTEX
8
CUT
10
262.5893
20
159.4082
0
VERTEX
8
CUT
10
261.4846
20
158.3368
0
VERTEX
8
CUT
10
259.9861
20
156.3060
0
VERTEX
8
CUT
10
259.2817
20
154.1446
0
VERTEX
8
CUT
10
259.2432
20
151.8797
0
VERTEX
8
CUT
10
259.7284
20
149.7881
0
VERTEX
8
CUT
10
260.7864
20
147.7944
0
VERTEX
8
CUT
10
266.6463
20
141.1972
0
VERTEX
8
CUT
10
268.2860
20
138.8302
0
VERTEX
8
CUT
10
269.1624
20
136.6747
0
VERTEX
8
CUT
10
269.3499
20
135.5634
0
VERTEX
8
CUT
10
269.3445
20
133.4341
0
VERTEX
8
CUT
10
268.9638
20
131.6572
0
VERTEX
8
CUT
10
268.1451
20
129.9887
0
VERTEX
8
CUT
10
266.1962
20
127.7775
0
VERTEX
8
CUT
10
264.7095
20
126.7426
0
VERTEX
8
CUT
10
261.9782
20
125.6250
0
VERTEX
8
CUT
10
256.7726
20
124.6873
0
VERTEX
8
CUT
10
254.4908
20
124.0714
0
VERTEX
8
CUT
10
252.5549
20
123.2347
0
VERTEX
8
CUT
10
251.0310
20
122.1534
0
VERTEX
8
CUT
10
249.5702
20
120.3742
0
VERTEX
8
CUT
10
248.9161
20
119.1830
0
VERTEX
8
CUT
10
248.1739
20
116.4372
0
VERTEX
8
CUT
10
248.0601
20
114.9228
0
VERTEX
8
CUT
10
248.3850
20
111.8547
0
VERTEX
8
CUT
10
249.8315
20
107.8767
0
VERTEX
8
CUT
10
251.9410
20
104.2525
0
VERTEX
8
CUT
10
258.3050
20
95.7683
0
VERTEX
8
CUT
10
260.1674
20
92.2322
0
VERTEX
8
CUT
10
260.7336
20
90.6361
0
VERTEX
8
CUT
10
261.0329
20
89.0967
0
VERTEX
8
CUT
10
261.0714
20
87.5999
0
VERTEX
8
CUT
10
260.9176
20
86.0835
0
VERTEX
8
CUT
10
260.3342
20
84.6024
0
VERTEX
8
CUT
10
259.2205
20
83.1793
0
VERTEX
8
CUT
10
257.7977
20
81.9144
0
VERTEX
8
CUT
10
256.2738
20
81.0411
0
VERTEX
8
CUT
10
254.5240
20
80.6199
0
VERTEX
8
CUT
10
252.6759
20
80.7269
0
VERTEX
8
CUT
10
251.6063
20
81.0014
0
VERTEX
8
CUT
10
249.2883
20
81.8986
0
VERTEX
8
CUT
10
245.6220
20
83.6930
0
VERTEX
8
CUT
10
243.5088
20
84.2320
0
VERTEX
8
CUT
10
241.8796
20
84.1122
0
VERTEX
8
CUT
10
240.9782
20
83.8433
0
VERTEX
8
CUT
10
240.2026
20
83.3563
0
VERTEX
8
CUT
10
239.5683
20
82.6645
0
VERTEX
8
CUT
10
238.9702
20
80.9567
0
VERTEX
8
CUT
10
238.9283
20
79.6920
0
VERTEX
8
CUT
10
239.4283
20
77.0511
0
VERTEX
8
CUT
10
240.7640
20
74.3356
0
VERTEX
8
CUT
10
242.8400
20
71.7502
0
VERTEX
8
CUT
10
244.2051
20
70.4567
0
VERTEX
8
CUT
10
250.5189
20
65.8213
0
VERTEX
8
CUT
10
253.0637
20
63.5384
0
VERTEX
8
CUT
10
254.1532
20
62.0205
0
VERTEX
8
CUT
10
255.0859
20
59.9685
0
VERTEX
8
CUT
10
255.4780
20
57.4869
0
VERTEX
8
CUT
10
255.3163
20
56.2970
0
VERTEX
8
CUT
10
254.4355
20
54.2389
0
VERTEX
8
CUT
10
253.6417
20
53.2541
0
VERTEX
8
CUT
10
251.9679
20
52.0247
0
VERTEX
8
CUT
10
250.3431
20
51.6464
0
VERTEX
8
CUT
10
248.4266
20
51.7546
0
VERTEX
8
CUT
10
246.3211
20
52.3987
0
VERTEX
8
CUT
10
242.9265
20
53.8038
0
VERTEX
8
CUT
10
241.2023
20
53.9920
0
VERTEX
8
CUT
10
239.8001
20
53.4676
0
VERTEX
8
CUT
10
238.8877
20
52.3208
0
VERTEX
8
CUT
10
238.5453
20
51.4299
0
VERTEX
8
CUT
10
238.3279
20
49.0121
0
VERTEX
8
CUT
10
238.7324
20
45.2685
0
VERTEX
8
CUT
10
241.6418
20
31.6140
0
VERTEX
8
CUT
10
242.3151
20
27.6090
0
VERTEX
8
CUT
10
242.6881
20
23.8788
0
VERTEX
8
CUT
10
242.7248
20
17.6402
0
VERTEX
8
CUT
10
242.1659
20
13.2061
0
VERTEX
8
CUT
10
241.6661
20
11.2459
0
VERTEX
8
CUT
10
241.0173
20
9.4636
0
VERTEX
8
CUT
10
239.2692
20
6.4508
0
VERTEX
8
CUT
10
237.2259
20
4.2097
0
VERTEX
8
CUT
10
235.5718
20
2.9388
0
VERTEX
8
CUT
10
233.8579
20
2.2871
0
VERTEX
8
CUT
10
232.7814
20
2.1252
0
VERTEX
8
CUT
10
227.0989
20
2.0930
0
VERTEX
8
CUT
10
225.0425
20
2.6670
0
VERTEX
8
CUT
10
221.8330
20
4.1972
0
VERTEX
8
CUT
10
217.7773
20
6.8236
0
VERTEX
8
CUT
10
214.4663
20
9.7190
0
VERTEX
8
CUT
10
204.5888
20
19.1118
0
VERTEX
8
CUT
10
201.9785
20
21.3087
0
VERTEX
8
CUT
10
200.5087
20
22.0398
0
VERTEX
8
CUT
10
198.6490
20
22.4054
0
VERTEX
8
CUT
10
197.0988
20
21.9173
0
VERTEX
8
CUT
10
195.6416
20
20.5356
0
VERTEX
8
CUT
10
193.2518
20
17.5843
0
VERTEX
8
CUT
10
191.3156
20
16.6074
0
VERTEX
8
CUT
10
189.1615
20
16.4830
0
VERTEX
8
CUT
10
187.0530
20
17.1324
0
VERTEX
8
CUT
10
185.0112
20
18.5176
0
VERTEX
8
CUT
10
183.2158
20
20.5357
0
VERTEX
8
CUT
10
181.7184
20
23.1737
0
VERTEX
8
CUT
10
180.6954
20
26.3205
0
VERTEX
8
CUT
10
179.4706
20
34.4503
0
VERTEX
8
CUT
10
178.6822
20
37.2311
0
VERTEX
8
CUT
10
177.6688
20
39.6921
0
VERTEX
8
CUT
10
176.3680
20
41.8910
0
VERTEX
8
CUT
10
174.9000
20
43.6880
0
VERTEX
8
CUT
10
173.2571
20
45.0383
0
VERTEX
8
CUT
10
171.4948
20
45.9192
0
VERTEX
8
CUT
10
169.7858
20
46.1960
0
VERTEX
8
CUT
10
168.3126
20
46.0887
0
VERTEX
8
CUT
10
166.5710
20
45.3531
0
VERTEX
8
CUT
10
163.8525
20
42.5517
0
VERTEX
8
CUT
10
161.9613
20
41.3781
0
VERTEX
8
CUT
10
159.6419
20
40.9796
0
VERTEX
8
CUT
10
157.5799
20
41.2408
0
VERTEX
8
CUT
10
156.4928
20
41.6026
0
VERTEX
8
CUT
10
154.2987
20
42.8174
0
VERTEX
8
CUT
10
147.1231
20
48.8044
0
VERTEX
8
CUT
10
144.2539
20
50.6100
0
VERTEX
8
CUT
10
141.5509
20
51.6026
0
VERTEX
8
CUT
10
138.6053
20
51.9022
0
VERTEX
8
CUT
10
135.1862
20
51.4915
0
VERTEX
8
CUT
10
133.7540
20
51.0243
0
VERTEX
8
CUT
10
132.3804
20
50.2772
0
VERTEX
8
CUT
10
130.1469
20
48.2181
0
VERTEX
8
CUT
10
129.1821
20
46.8051
0
VERTEX
8
CUT
10
127.4762
20
43.5061
0
VERTEX
8
CUT
10
126.4494
20
42.0991
0
VERTEX
8
CUT
10
125.3627
20
41.0110
0
VERTEX
8
CUT
10
124.0793
20
40.0949
0
VERTEX
8
CUT
10
122.7656
20
39.5710
0
VERTEX
8
CUT
10
121.3761
20
39.3066
0
VERTEX
8
CUT
10
119.8106
20
39.3397
0
VERTEX
8
CUT
10
118.2113
20
39.6441
0
VERTEX
8
CUT
10
116.0005
20
40.7440
0
VERTEX
8
CUT
10
113.6724
20
42.9857
0
VERTEX
8
CUT
10
110.9893
20
46.2254
0
VERTEX
8
CUT
10
109.2610
20
47.5029
0
VERTEX
8
CUT
10
107.5087
20
48.0188
0
VERTEX
8
CUT
10
106.5036
20
48.0246
0
VERTEX
8
CUT
10
105.4269
20
47.8351
0
VERTEX
8
CUT
10
103.7309
20
47.1806
0
VERTEX
8
CUT
10
102.5778
20
46.4117
0
VERTEX
8
CUT
10
101.4496
20
45.3194
0
VERTEX
8
CUT
10
99.8165
20
42.6212
0
VERTEX
8
CUT
10
98.9836
20
39.7558
0
VERTEX
8
CUT
10
98.3452
20
34.2893
0
VERTEX
8
CUT
10
97.8122
20
31.9045
0
VERTEX
8
CUT
10
96.5648
20
29.4102
0
VERTEX
8
CUT
10
95.2969
20
28.3314
0
VERTEX
8
CUT
10
93.1185
20
27.5558
0
VERTEX
8
CUT
10
91.0844
20
27.8195
0
VERTEX
8
CUT
10
90.1326
20
28.3227
0
VERTEX
8
CUT
10
89.2154
20
29.0748
0
VERTEX
8
CUT
10
88.4429
20
30.0398
0
VERTEX
8
CUT
10
86.5748
20
33.2806
0
VERTEX
8
CUT
10
85.6309
20
34.1501
0
VERTEX
8
CUT
10
84.6153
20
34.5759
0
VERTEX
8
CUT
10
83.1929
20
34.4944
0
VERTEX
8
CUT
10
81.1992
20
33.6439
0
VERTEX
8
CUT
10
79.1775
20
31.9623
0
VERTEX
8
CUT
10
78.2575
20
30.8990
0
VERTEX
8
CUT
10
76.6166
20
28.3275
0
VERTEX
8
CUT
10
75.6965
20
26.3366
0
VERTEX
8
CUT
10
75.1564
20
24.5002
0
VERTEX
8
CUT
10
74.8592
20
21.9876
0
VERTEX
8
CUT
10
74.4488
20
13.4845
0
VERTEX
8
CUT
10
73.9952
20
11.1650
0
VERTEX
8
CUT
10
73.4618
20
9.9748
0
VERTEX
8
CUT
10
72.3502
20
8.2853
0
VERTEX
8
CUT
10
70.8857
20
7.0111
0
VERTEX
8
CUT
10
69.2020
20
6.1306
0
VERTEX
8
CUT
10
67.4019
20
5.6412
0
VERTEX
8
CUT
10
65.4548
20
5.5990
0
VERTEX
8
CUT
10
63.6759
20
5.9435
0
VERTEX
8
CUT
10
61.9629
20
6.7810
0
VERTEX
8
CUT
10
59.5921
20
8.9581
0
VERTEX
8
CUT
10
59.0387
20
9.1914
0
VERTEX
8
CUT
10
52.4141
20
3.5601
0
VERTEX
8
CUT
10
49.5176
20
1.6565
0
VERTEX
8
CUT
10
46.8366
20
0.5393
0
VERTEX
8
CUT
10
45.4664
20
0.2313
0
VERTEX
8
CUT
10
43.2360
20
0.0000
0
SEQEND
0
ENDSEC
0
EOF
