0
SECTION
2
HEADER
9
$ACADVER
1
AC1009
9
$INSUNITS
70
4
0
ENDSEC
0
SECTION
2
TABLES
0
TABLE
2
LAYER
70
1
0
LAYER
2
CUT
70
0
62
7
6
CONTINUOUS
0
ENDTAB
0
ENDSEC
0
SECTION
2
ENTITIES
0
POLYLINE
8
CUT
66
1
70
1
10
0.0
20
0.0
30
0.0
0
VERTEX
8
CUT
10
-0.0625
20
298.5625
0
VERTEX
8
CUT
10
-0.0625
20
299.4478
0
VERTEX
8
CUT
10
-0.0589
20
299.5212
0
VERTEX
8
CUT
10
-0.0503
20
299.5794
0
VERTEX
8
CUT
10
-0.0360
20
299.6365
0
VERTEX
8
CUT
10
-0.0162
20
299.6918
0
VERTEX
8
CUT
10
0.0090
20
299.7450
0
VERTEX
8
CUT
10
0.0392
20
299.7954
0
VERTEX
8
CUT
10
0.0743
20
299.8427
0
VERTEX
8
CUT
10
0.1137
20
299.8863
0
VERTEX
8
CUT
10
0.1573
20
299.9257
0
VERTEX
8
CUT
10
0.2046
20
299.9608
0
VERTEX
8
CUT
10
0.2550
20
299.9910
0
VERTEX
8
CUT
10
0.3082
20
300.0162
0
VERTEX
8
CUT
10
0.3635
20
300.0360
0
VERTEX
8
CUT
10
0.4206
20
300.0503
0
VERTEX
8
CUT
10
0.4788
20
300.0589
0
VERTEX
8
CUT
10
0.5522
20
300.0625
0
VERTEX
8
CUT
10
1.4375
20
300.0625
0
VERTEX
8
CUT
10
298.5625
20
300.0625
0
VERTEX
8
CUT
10
299.4478
20
300.0625
0
VERTEX
8
CUT
10
299.5212
20
300.0589
0
VERTEX
8
CUT
10
299.5794
20
300.0503
0
VERTEX
8
CUT
10
299.6365
20
300.0360
0
VERTEX
8
CUT
10
299.6918
20
300.0162
0
VERTEX
8
CUT
10
299.7450
20
299.9910
0
VERTEX
8
CUT
10
299.7954
20
299.9608
0
VERTEX
8
CUT
10
299.8427
20
299.9257
0
VERTEX
8
CUT
10
299.8863
20
299.8863
0
VERTEX
8
CUT
10
299.9257
20
299.8427
0
VERTEX
8
CUT
10
299.9608
20
299.7954
0
VERTEX
8
CUT
10
299.9910
20
299.7450
0
VERTEX
8
CUT
10
300.0162
20
299.6918
0
VERTEX
8
CUT
10
300.0360
20
299.6365
0
VERTEX
8
CUT
10
300.0503
20
299.5794
0
VERTEX
8
CUT
10
300.0589
20
299.5212
0
VERTEX
8
CUT
10
300.0625
20
299.4478
0
VERTEX
8
CUT
10
300.0625
20
298.5625
0
VERTEX
8
CUT
10
300.0625
20
1.4375
0
VERTEX
8
CUT
10
300.0625
20
0.5522
0
VERTEX
8
CUT
10
300.0589
20
0.4788
0
VERTEX
8
CUT
10
300.0503
20
0.4206
0
VERTEX
8
CUT
10
300.0360
20
0.3635
0
VERTEX
8
CUT
10
300.0162
20
0.3082
0
VERTEX
8
CUT
10
299.9910
20
0.2550
0
VERTEX
8
CUT
10
299.9608
20
0.2046
0
VERTEX
8
CUT
10
299.9257
20
0.1573
0
VERTEX
8
CUT
10
299.8863
20
0.1137
0
VERTEX
8
CUT
10
299.8427
20
0.0743
0
VERTEX
8
CUT
10
299.7954
20
0.0392
0
VERTEX
8
CUT
10
299.7450
20
0.0090
0
VERTEX
8
CUT
10
299.6918
20
-0.0162
0
VERTEX
8
CUT
10
299.6365
20
-0.0360
0
VERTEX
8
CUT
10
299.5794
20
-0.0503
0
VERTEX
8
CUT
10
299.5212
20
-0.0589
0
VERTEX
8
CUT
10
299.4478
20
-0.0625
0
VERTEX
8
CUT
10
298.5625
20
-0.0625
0
VERTEX
8
CUT
10
1.4375
20
-0.0625
0
VERTEX
8
CUT
10
0.5522
20
-0.0625
0
VERTEX
8
CUT
10
0.4788
20
-0.0589
0
VERTEX
8
CUT
10
0.4206
20
-0.0503
0
VERTEX
8
CUT
10
0.3635
20
-0.0360
0
VERTEX
8
CUT
10
0.3082
20
-0.0162
0
VERTEX
8
CUT
10
0.2550
20
0.0090
0
VERTEX
8
CUT
10
0.2046
20
0.0392
0
VERTEX
8
CUT
10
0.1573
20
0.0743
0
VERTEX
8
CUT
10
0.1137
20
0.1137
0
VERTEX
8
CUT
10
0.0743
20
0.1573
0
VERTEX
8
CUT
10
0.0392
20
0.2046
0
VERTEX
8
CUT
10
0.0090
20
0.2550
0
VERTEX
8
CUT
10
-0.0162
20
0.3082
0
VERTEX
8
CUT
10
-0.0360
20
0.3635
0
VERTEX
8
CUT
10
-0.0503
20
0.4206
0
VERTEX
8
CUT
10
-0.0589
20
0.4788
0
VERTEX
8
CUT
10
-0.0625
20
0.5522
0
VERTEX
8
CUT
10
-0.0625
20
1.4375
0
SEQEND
0
POLYLINE
8
CUT
66
1
70
1
10
0.0
20
0.0
30
0.0
0
VERTEX
8
CUT
10
133.6933
20
117.2560
0
VERTEX
8
CUT
10
133.6915
20
117.1977
0
VERTEX
8
CUT
10
133.6946
20
117.0135
0
VERTEX
8
CUT
10
133.6985
20
116.9554
0
VERTEX
8
CUT
10
133.7195
20
116.7724
0
VERTEX
8
CUT
10
133.7289
20
116.7149
0
VERTEX
8
CUT
10
133.7676
20
116.5348
0
VERTEX
8
CUT
10
133.7825
20
116.4785
0
VERTEX
8
CUT
10
133.8385
20
116.3030
0
VERTEX
8
CUT
10
133.8588
20
116.2484
0
VERTEX
8
CUT
10
133.9315
20
116.0791
0
VERTEX
8
CUT
10
133.9571
20
116.0268
0
VERTEX
8
CUT
10
134.0459
20
115.8653
0
VERTEX
8
CUT
10
134.0764
20
115.8157
0
VERTEX
8
CUT
10
134.1804
20
115.6637
0
VERTEX
8
CUT
10
134.2156
20
115.6172
0
VERTEX
8
CUT
10
134.3355
20
115.4741
0
VERTEX
8
CUT
10
134.3548
20
115.4522
0
VERTEX
8
CUT
10
134.3934
20
115.4104
0
VERTEX
8
CUT
10
134.4034
20
115.3998
0
VERTEX
8
CUT
10
134.4693
20
115.3318
0
VERTEX
8
CUT
10
134.4796
20
115.3215
0
VERTEX
8
CUT
10
135.5200
20
114.2993
0
VERTEX
8
CUT
10
135.5288
20
114.2909
0
VERTEX
8
CUT
10
135.5867
20
114.2363
0
VERTEX
8
CUT
10
135.5957
20
114.2280
0
VERTEX
8
CUT
10
135.6311
20
114.1959
0
VERTEX
8
CUT
10
135.6496
20
114.1798
0
VERTEX
8
CUT
10
135.7718
20
114.0780
0
VERTEX
8
CUT
10
135.7909
20
114.0627
0
VERTEX
8
CUT
10
135.8288
20
114.0336
0
VERTEX
8
CUT
10
135.8386
20
114.0263
0
VERTEX
8
CUT
10
135.9027
20
113.9791
0
VERTEX
8
CUT
10
135.9127
20
113.9720
0
VERTEX
8
CUT
10
137.7968
20
112.6458
0
VERTEX
8
CUT
10
137.8142
20
112.6340
0
VERTEX
8
CUT
10
137.9289
20
112.5591
0
VERTEX
8
CUT
10
137.9468
20
112.5479
0
VERTEX
8
CUT
10
138.0939
20
112.4591
0
VERTEX
8
CUT
10
138.1121
20
112.4485
0
VERTEX
8
CUT
10
138.2318
20
112.3819
0
VERTEX
8
CUT
10
138.2504
20
112.3720
0
VERTEX
8
CUT
10
140.5027
20
111.2200
0
VERTEX
8
CUT
10
140.5210
20
111.2110
0
VERTEX
8
CUT
10
140.6404
20
111.1550
0
VERTEX
8
CUT
10
140.6589
20
111.1466
0
VERTEX
8
CUT
10
140.8111
20
111.0814
0
VERTEX
8
CUT
10
140.8299
20
111.0737
0
VERTEX
8
CUT
10
140.9529
20
111.0258
0
VERTEX
8
CUT
10
140.9719
20
111.0188
0
VERTEX
8
CUT
10
143.3832
20
110.1729
0
VERTEX
8
CUT
10
143.3936
20
110.1694
0
VERTEX
8
CUT
10
143.4664
20
110.1453
0
VERTEX
8
CUT
10
143.4773
20
110.1418
0
VERTEX
8
CUT
10
143.5254
20
110.1269
0
VERTEX
8
CUT
10
143.5487
20
110.1202
0
VERTEX
8
CUT
10
143.6948
20
110.0814
0
VERTEX
8
CUT
10
143.7175
20
110.0759
0
VERTEX
8
CUT
10
143.7570
20
110.0670
0
VERTEX
8
CUT
10
143.7677
20
110.0647
0
VERTEX
8
CUT
10
143.8420
20
110.0495
0
VERTEX
8
CUT
10
143.8541
20
110.0471
0
VERTEX
8
CUT
10
145.5185
20
109.7410
0
VERTEX
8
CUT
10
145.5331
20
109.7385
0
VERTEX
8
CUT
10
145.6281
20
109.7235
0
VERTEX
8
CUT
10
145.6427
20
109.7213
0
VERTEX
8
CUT
10
145.7000
20
109.7137
0
VERTEX
8
CUT
10
145.7294
20
109.7105
0
VERTEX
8
CUT
10
145.9209
20
109.6946
0
VERTEX
8
CUT
10
145.9505
20
109.6928
0
VERTEX
8
CUT
10
146.0082
20
109.6909
0
VERTEX
8
CUT
10
146.0230
20
109.6905
0
VERTEX
8
CUT
10
146.1191
20
109.6897
0
VERTEX
8
CUT
10
146.1339
20
109.6897
0
VERTEX
8
CUT
10
149.3847
20
109.7400
0
VERTEX
8
CUT
10
149.4004
20
109.7404
0
VERTEX
8
CUT
10
149.5024
20
109.7447
0
VERTEX
8
CUT
10
149.5181
20
109.7456
0
VERTEX
8
CUT
10
149.6460
20
109.7542
0
VERTEX
8
CUT
10
149.6617
20
109.7555
0
VERTEX
8
CUT
10
149.7633
20
109.7651
0
VERTEX
8
CUT
10
149.7790
20
109.7668
0
VERTEX
8
CUT
10
154.0720
20
110.2854
0
VERTEX
8
CUT
10
154.0848
20
110.2871
0
VERTEX
8
CUT
10
154.1680
20
110.2990
0
VERTEX
8
CUT
10
154.1808
20
110.3009
0
VERTEX
8
CUT
10
154.2307
20
110.3091
0
VERTEX
8
CUT
10
154.2561
20
110.3139
0
VERTEX
8
CUT
10
154.4206
20
110.3484
0
VERTEX
8
CUT
10
154.4458
20
110.3542
0
VERTEX
8
CUT
10
154.4948
20
110.3667
0
VERTEX
8
CUT
10
154.5073
20
110.3700
0
VERTEX
8
CUT
10
154.5883
20
110.3925
0
VERTEX
8
CUT
10
154.6007
20
110.3961
0
VERTEX
8
CUT
10
154.9423
20
110.4991
0
VERTEX
8
CUT
10
154.9561
20
110.5034
0
VERTEX
8
CUT
10
155.0454
20
110.5327
0
VERTEX
8
CUT
10
155.0590
20
110.5373
0
VERTEX
8
CUT
10
155.1122
20
110.5562
0
VERTEX
8
CUT
10
155.1393
20
110.5665
0
VERTEX
8
CUT
10
155.3107
20
110.6368
0
VERTEX
8
CUT
10
155.3630
20
110.6613
0
VERTEX
8
CUT
10
155.5247
20
110.7466
0
VERTEX
8
CUT
10
155.5744
20
110.7760
0
VERTEX
8
CUT
10
155.7271
20
110.8764
0
VERTEX
8
CUT
10
155.7738
20
110.9104
0
VERTEX
8
CUT
10
155.9161
20
111.0251
0
VERTEX
8
CUT
10
155.9593
20
111.0635
0
VERTEX
8
CUT
10
156.0899
20
111.1913
0
VERTEX
8
CUT
10
156.1293
20
111.2336
0
VERTEX
8
CUT
10
156.2470
20
111.3734
0
VERTEX
8
CUT
10
156.2820
20
111.4194
0
VERTEX
8
CUT
10
156.3857
20
111.5698
0
VERTEX
8
CUT
10
156.4162
20
111.6190
0
VERTEX
8
CUT
10
156.5050
20
111.7787
0
VERTEX
8
CUT
10
156.5306
20
111.8305
0
VERTEX
8
CUT
10
156.6035
20
111.9981
0
VERTEX
8
CUT
10
156.6240
20
112.0521
0
VERTEX
8
CUT
10
156.6805
20
112.2259
0
VERTEX
8
CUT
10
156.6957
20
112.2817
0
VERTEX
8
CUT
10
156.7353
20
112.4601
0
VERTEX
8
CUT
10
156.7450
20
112.5170
0
VERTEX
8
CUT
10
156.7672
20
112.6984
0
VERTEX
8
CUT
10
156.7715
20
112.7561
0
VERTEX
8
CUT
10
156.7761
20
112.9388
0
VERTEX
8
CUT
10
156.7747
20
112.9966
0
VERTEX
8
CUT
10
156.7618
20
113.1788
0
VERTEX
8
CUT
10
156.7549
20
113.2362
0
VERTEX
8
CUT
10
156.7244
20
113.4164
0
VERTEX
8
CUT
10
156.7121
20
113.4729
0
VERTEX
8
CUT
10
156.6644
20
113.6493
0
VERTEX
8
CUT
10
156.6467
20
113.7043
0
VERTEX
8
CUT
10
156.5822
20
113.8753
0
VERTEX
8
CUT
10
156.5593
20
113.9284
0
VERTEX
8
CUT
10
156.4787
20
114.0924
0
VERTEX
8
CUT
10
156.4508
20
114.1430
0
VERTEX
8
CUT
10
156.3548
20
114.2985
0
VERTEX
8
CUT
10
156.3221
20
114.3462
0
VERTEX
8
CUT
10
156.2116
20
114.4917
0
VERTEX
8
CUT
10
156.1745
20
114.5360
0
VERTEX
8
CUT
10
156.0505
20
114.6703
0
VERTEX
8
CUT
10
156.0093
20
114.7108
0
VERTEX
8
CUT
10
155.8711
20
114.8341
0
VERTEX
8
CUT
10
155.8490
20
114.8529
0
VERTEX
8
CUT
10
155.8052
20
114.8884
0
VERTEX
8
CUT
10
155.7938
20
114.8974
0
VERTEX
8
CUT
10
155.7373
20
114.9409
0
VERTEX
8
CUT
10
155.7013
20
114.9701
0
VERTEX
8
CUT
10
155.6369
20
115.0253
0
VERTEX
8
CUT
10
155.5697
20
115.0890
0
VERTEX
8
CUT
10
155.5272
20
115.1337
0
VERTEX
8
CUT
10
155.4670
20
115.2041
0
VERTEX
8
CUT
10
155.4293
20
115.2529
0
VERTEX
8
CUT
10
155.3766
20
115.3290
0
VERTEX
8
CUT
10
155.3442
20
115.3814
0
VERTEX
8
CUT
10
155.2996
20
115.4626
0
VERTEX
8
CUT
10
155.2727
20
115.5181
0
VERTEX
8
CUT
10
155.2367
20
115.6034
0
VERTEX
8
CUT
10
155.2157
20
115.6614
0
VERTEX
8
CUT
10
155.1886
20
115.7499
0
VERTEX
8
CUT
10
155.1737
20
115.8097
0
VERTEX
8
CUT
10
155.1558
20
115.9006
0
VERTEX
8
CUT
10
155.1471
20
115.9616
0
VERTEX
8
CUT
10
155.1387
20
116.0539
0
VERTEX
8
CUT
10
155.1363
20
116.1155
0
VERTEX
8
CUT
10
155.1375
20
116.2081
0
VERTEX
8
CUT
10
155.1429
20
116.2927
0
VERTEX
8
CUT
10
155.1470
20
116.3389
0
VERTEX
8
CUT
10
155.5213
20
119.5710
0
VERTEX
8
CUT
10
155.5225
20
119.5815
0
VERTEX
8
CUT
10
155.5297
20
119.6550
0
VERTEX
8
CUT
10
155.5306
20
119.6660
0
VERTEX
8
CUT
10
155.5345
20
119.7143
0
VERTEX
8
CUT
10
155.5359
20
119.7376
0
VERTEX
8
CUT
10
155.5417
20
119.8829
0
VERTEX
8
CUT
10
155.5422
20
119.9054
0
VERTEX
8
CUT
10
155.5424
20
119.9443
0
VERTEX
8
CUT
10
155.5423
20
119.9549
0
VERTEX
8
CUT
10
155.5412
20
120.0279
0
VERTEX
8
CUT
10
155.5409
20
120.0397
0
VERTEX
8
CUT
10
155.4700
20
122.1022
0
VERTEX
8
CUT
10
155.4689
20
122.1238
0
VERTEX
8
CUT
10
155.4591
20
122.2634
0
VERTEX
8
CUT
10
155.4572
20
122.2848
0
VERTEX
8
CUT
10
155.4386
20
122.4594
0
VERTEX
8
CUT
10
155.4359
20
122.4808
0
VERTEX
8
CUT
10
155.4161
20
122.6194
0
VERTEX
8
CUT
10
155.4126
20
122.6406
0
VERTEX
8
CUT
10
155.0685
20
124.5531
0
VERTEX
8
CUT
10
155.0648
20
124.5720
0
VERTEX
8
CUT
10
155.0387
20
124.6944
0
VERTEX
8
CUT
10
155.0343
20
124.7132
0
VERTEX
8
CUT
10
154.9966
20
124.8657
0
VERTEX
8
CUT
10
154.9917
20
124.8843
0
VERTEX
8
CUT
10
154.9578
20
125.0048
0
VERTEX
8
CUT
10
154.9523
20
125.0233
0
VERTEX
8
CUT
10
154.3963
20
126.7803
0
VERTEX
8
CUT
10
154.3899
20
126.7992
0
VERTEX
8
CUT
10
154.3467
20
126.9216
0
VERTEX
8
CUT
10
154.3397
20
126.9403
0
VERTEX
8
CUT
10
154.2804
20
127.0919
0
VERTEX
8
CUT
10
154.2728
20
127.1104
0
VERTEX
8
CUT
10
154.2215
20
127.2296
0
VERTEX
8
CUT
10
154.2133
20
127.2478
0
VERTEX
8
CUT
10
153.4630
20
128.8431
0
VERTEX
8
CUT
10
153.4575
20
128.8545
0
VERTEX
8
CUT
10
153.4211
20
128.9278
0
VERTEX
8
CUT
10
153.4154
20
128.9390
0
VERTEX
8
CUT
10
153.3926
20
128.9827
0
VERTEX
8
CUT
10
153.3804
20
129.0047
0
VERTEX
8
CUT
10
153.2986
20
129.1465
0
VERTEX
8
CUT
10
153.2855
20
129.1680
0
VERTEX
8
CUT
10
153.2591
20
129.2096
0
VERTEX
8
CUT
10
153.2523
20
129.2202
0
VERTEX
8
CUT
10
153.2070
20
129.2883
0
VERTEX
8
CUT
10
153.1999
20
129.2988
0
VERTEX
8
CUT
10
152.2360
20
130.6849
0
VERTEX
8
CUT
10
152.2281
20
130.6960
0
VERTEX
8
CUT
10
152.1761
20
130.7672
0
VERTEX
8
CUT
10
152.1680
20
130.7781
0
VERTEX
8
CUT
10
152.1358
20
130.8202
0
VERTEX
8
CUT
10
152.1188
20
130.8414
0
VERTEX
8
CUT
10
152.0055
20
130.9765
0
VERTEX
8
CUT
10
151.9876
20
130.9969
0
VERTEX
8
CUT
10
151.9517
20
131.0359
0
VERTEX
8
CUT
10
151.9424
20
131.0458
0
VERTEX
8
CUT
10
151.8813
20
131.1093
0
VERTEX
8
CUT
10
151.8718
20
131.1190
0
VERTEX
8
CUT
10
150.8172
20
132.1670
0
VERTEX
8
CUT
10
150.8060
20
132.1778
0
VERTEX
8
CUT
10
150.7324
20
132.2472
0
VERTEX
8
CUT
10
150.7210
20
132.2577
0
VERTEX
8
CUT
10
150.6757
20
132.2982
0
VERTEX
8
CUT
10
150.6520
20
132.3184
0
VERTEX
8
CUT
10
150.4947
20
132.4452
0
VERTEX
8
CUT
10
150.4700
20
132.4641
0
VERTEX
8
CUT
10
150.4208
20
132.4997
0
VERTEX
8
CUT
10
150.4081
20
132.5087
0
VERTEX
8
CUT
10
150.3247
20
132.5658
0
VERTEX
8
CUT
10
150.3117
20
132.5744
0
VERTEX
8
CUT
10
149.2294
20
133.2755
0
VERTEX
8
CUT
10
149.2150
20
133.2846
0
VERTEX
8
CUT
10
149.1204
20
133.3421
0
VERTEX
8
CUT
10
149.1058
20
133.3507
0
VERTEX
8
CUT
10
149.0481
20
133.3836
0
VERTEX
8
CUT
10
149.0180
20
133.3996
0
VERTEX
8
CUT
10
148.8200
20
133.4980
0
VERTEX
8
CUT
10
148.7890
20
133.5123
0
VERTEX
8
CUT
10
148.7280
20
133.5385
0
VERTEX
8
CUT
10
148.7122
20
133.5449
0
VERTEX
8
CUT
10
148.6093
20
133.5856
0
VERTEX
8
CUT
10
148.5934
20
133.5916
0
VERTEX
8
CUT
10
147.8199
20
133.8720
0
VERTEX
8
CUT
10
147.8071
20
133.8764
0
VERTEX
8
CUT
10
147.7234
20
133.9047
0
VERTEX
8
CUT
10
147.7105
20
133.9089
0
VERTEX
8
CUT
10
147.6598
20
133.9247
0
VERTEX
8
CUT
10
147.6337
20
133.9322
0
VERTEX
8
CUT
10
147.4652
20
133.9765
0
VERTEX
8
CUT
10
147.4121
20
133.9879
0
VERTEX
8
CUT
10
147.2403
20
134.0168
0
VERTEX
8
CUT
10
147.2134
20
134.0207
0
VERTEX
8
CUT
10
147.1606
20
134.0271
0
VERTEX
8
CUT
10
147.1471
20
134.0286
0
VERTEX
8
CUT
10
147.0592
20
134.0373
0
VERTEX
8
CUT
10
147.0457
20
134.0385
0
VERTEX
8
CUT
10
146.2842
20
134.0964
0
VERTEX
8
CUT
10
146.2714
20
134.0972
0
VERTEX
8
CUT
10
146.1879
20
134.1018
0
VERTEX
8
CUT
10
146.1751
20
134.1023
0
VERTEX
8
CUT
10
146.1249
20
134.1040
0
VERTEX
8
CUT
10
146.0992
20
134.1043
0
VERTEX
8
CUT
10
145.9344
20
134.1027
0
VERTEX
8
CUT
10
145.8830
20
134.1000
0
VERTEX
8
CUT
10
145.7190
20
134.0843
0
VERTEX
8
CUT
10
145.6934
20
134.0813
0
VERTEX
8
CUT
10
145.6437
20
134.0743
0
VERTEX
8
CUT
10
145.6310
20
134.0724
0
VERTEX
8
CUT
10
145.5485
20
134.0591
0
VERTEX
8
CUT
10
145.5358
20
134.0570
0
VERTEX
8
CUT
10
144.7389
20
133.9109
0
VERTEX
8
CUT
10
144.7217
20
133.9075
0
VERTEX
8
CUT
10
144.6104
20
133.8838
0
VERTEX
8
CUT
10
144.5933
20
133.8799
0
VERTEX
8
CUT
10
144.5269
20
133.8636
0
VERTEX
8
CUT
10
144.4932
20
133.8543
0
VERTEX
8
CUT
10
144.2757
20
133.7876
0
VERTEX
8
CUT
10
144.2426
20
133.7763
0
VERTEX
8
CUT
10
144.1785
20
133.7525
0
VERTEX
8
CUT
10
144.1622
20
133.7461
0
VERTEX
8
CUT
10
144.0567
20
133.7033
0
VERTEX
8
CUT
10
144.0406
20
133.6965
0
VERTEX
8
CUT
10
143.2740
20
133.3589
0
VERTEX
8
CUT
10
143.2588
20
133.3520
0
VERTEX
8
CUT
10
143.1606
20
133.3055
0
VERTEX
8
CUT
10
143.1456
20
133.2981
0
VERTEX
8
CUT
10
143.0874
20
133.2685
0
VERTEX
8
CUT
10
143.0581
20
133.2525
0
VERTEX
8
CUT
10
142.8703
20
133.1435
0
VERTEX
8
CUT
10
142.8419
20
133.1259
0
VERTEX
8
CUT
10
142.7874
20
133.0900
0
VERTEX
8
CUT
10
142.7736
20
133.0807
0
VERTEX
8
CUT
10
142.6845
20
133.0184
0
VERTEX
8
CUT
10
142.6709
20
133.0087
0
VERTEX
8
CUT
10
141.8520
20
132.4019
0
VERTEX
8
CUT
10
141.8395
20
132.3924
0
VERTEX
8
CUT
10
141.7592
20
132.3296
0
VERTEX
8
CUT
10
141.7469
20
132.3197
0
VERTEX
8
CUT
10
141.6997
20
132.2808
0
VERTEX
8
CUT
10
141.6760
20
132.2602
0
VERTEX
8
CUT
10
141.5258
20
132.1224
0
VERTEX
8
CUT
10
141.5033
20
132.1006
0
VERTEX
8
CUT
10
141.4604
20
132.0569
0
VERTEX
8
CUT
10
141.4495
20
132.0455
0
VERTEX
8
CUT
10
141.3800
20
131.9709
0
VERTEX
8
CUT
10
141.3695
20
131.9593
0
VERTEX
8
CUT
10
140.5101
20
130.9872
0
VERTEX
8
CUT
10
140.5017
20
130.9774
0
VERTEX
8
CUT
10
140.4477
20
130.9138
0
VERTEX
8
CUT
10
140.4396
20
130.9039
0
VERTEX
8
CUT
10
140.4080
20
130.8649
0
VERTEX
8
CUT
10
140.3922
20
130.8446
0
VERTEX
8
CUT
10
140.2928
20
130.7107
0
VERTEX
8
CUT
10
140.2780
20
130.6897
0
VERTEX
8
CUT
10
140.2498
20
130.6482
0
VERTEX
8
CUT
10
140.2428
20
130.6375
0
VERTEX
8
CUT
10
140.1974
20
130.5674
0
VERTEX
8
CUT
10
140.1906
20
130.5566
0
VERTEX
8
CUT
10
139.4271
20
129.3189
0
VERTEX
8
CUT
10
139.4199
20
129.3068
0
VERTEX
8
CUT
10
139.3737
20
129.2280
0
VERTEX
8
CUT
10
139.3667
20
129.2157
0
VERTEX
8
CUT
10
139.3401
20
129.1677
0
VERTEX
8
CUT
10
139.3271
20
129.1428
0
VERTEX
8
CUT
10
139.2461
20
128.9790
0
VERTEX
8
CUT
10
139.2343
20
128.9535
0
VERTEX
8
CUT
10
139.2123
20
128.9032
0
VERTEX
8
CUT
10
139.2068
20
128.8902
0
VERTEX
8
CUT
10
139.1722
20
128.8056
0
VERTEX
8
CUT
10
139.1670
20
128.7925
0
VERTEX
8
CUT
10
138.2798
20
126.4724
0
VERTEX
8
CUT
10
138.2739
20
126.4563
0
VERTEX
8
CUT
10
138.2370
20
126.3509
0
VERTEX
8
CUT
10
138.2316
20
126.3346
0
VERTEX
8
CUT
10
138.2113
20
126.2708
0
VERTEX
8
CUT
10
138.2018
20
126.2378
0
VERTEX
8
CUT
10
138.1465
20
126.0216
0
VERTEX
8
CUT
10
138.1389
20
125.9881
0
VERTEX
8
CUT
10
138.1260
20
125.9223
0
VERTEX
8
CUT
10
138.1230
20
125.9054
0
VERTEX
8
CUT
10
138.1046
20
125.7953
0
VERTEX
8
CUT
10
138.1021
20
125.7783
0
VERTEX
8
CUT
10
137.9509
20
124.6747
0
VERTEX
8
CUT
10
137.9489
20
124.6593
0
VERTEX
8
CUT
10
137.9379
20
124.5592
0
VERTEX
8
CUT
10
137.9363
20
124.5437
0
VERTEX
8
CUT
10
137.9257
20
124.4177
0
VERTEX
8
CUT
10
137.9246
20
124.4022
0
VERTEX
8
CUT
10
137.9187
20
124.3016
0
VERTEX
8
CUT
10
137.9179
20
124.2861
0
VERTEX
8
CUT
10
137.8140
20
121.1165
0
VERTEX
8
CUT
10
137.8115
20
121.0729
0
VERTEX
8
CUT
10
137.8050
20
120.9932
0
VERTEX
8
CUT
10
137.7937
20
120.9066
0
VERTEX
8
CUT
10
137.7834
20
120.8494
0
VERTEX
8
CUT
10
137.7638
20
120.7644
0
VERTEX
8
CUT
10
137.7480
20
120.7084
0
VERTEX
8
CUT
10
137.7202
20
120.6256
0
VERTEX
8
CUT
10
137.6990
20
120.5715
0
VERTEX
8
CUT
10
137.6633
20
120.4918
0
VERTEX
8
CUT
10
137.6370
20
120.4400
0
VERTEX
8
CUT
10
137.5938
20
120.3641
0
VERTEX
8
CUT
10
137.5626
20
120.3151
0
VERTEX
8
CUT
10
137.5122
20
120.2438
0
VERTEX
8
CUT
10
137.4764
20
120.1980
0
VERTEX
8
CUT
10
137.4193
20
120.1319
0
VERTEX
8
CUT
10
137.3792
20
120.0898
0
VERTEX
8
CUT
10
137.3161
20
120.0296
0
VERTEX
8
CUT
10
137.2721
20
119.9915
0
VERTEX
8
CUT
10
137.2033
20
119.9377
0
VERTEX
8
CUT
10
137.1559
20
119.9041
0
VERTEX
8
CUT
10
137.0823
20
119.8572
0
VERTEX
8
CUT
10
137.0318
20
119.8284
0
VERTEX
8
CUT
10
136.9539
20
119.7888
0
VERTEX
8
CUT
10
136.9009
20
119.7650
0
VERTEX
8
CUT
10
136.8196
20
119.7332
0
VERTEX
8
CUT
10
136.7645
20
119.7146
0
VERTEX
8
CUT
10
136.6805
20
119.6908
0
VERTEX
8
CUT
10
136.6239
20
119.6777
0
VERTEX
8
CUT
10
136.5380
20
119.6622
0
VERTEX
8
CUT
10
136.4803
20
119.6546
0
VERTEX
8
CUT
10
136.3933
20
119.6474
0
VERTEX
8
CUT
10
136.3134
20
119.6448
0
VERTEX
8
CUT
10
136.2697
20
119.6444
0
VERTEX
8
CUT
10
136.2275
20
119.6450
0
VERTEX
8
CUT
10
136.1984
20
119.6447
0
VERTEX
8
CUT
10
136.0117
20
119.6385
0
VERTEX
8
CUT
10
135.9537
20
119.6337
0
VERTEX
8
CUT
10
135.7710
20
119.6097
0
VERTEX
8
CUT
10
135.7137
20
119.5993
0
VERTEX
8
CUT
10
135.5343
20
119.5577
0
VERTEX
8
CUT
10
135.4782
20
119.5418
0
VERTEX
8
CUT
10
135.3036
20
119.4830
0
VERTEX
8
CUT
10
135.2494
20
119.4617
0
VERTEX
8
CUT
10
135.0813
20
119.3863
0
VERTEX
8
CUT
10
135.0294
20
119.3598
0
VERTEX
8
CUT
10
134.8695
20
119.2684
0
VERTEX
8
CUT
10
134.8204
20
119.2371
0
VERTEX
8
CUT
10
134.6700
20
119.1306
0
VERTEX
8
CUT
10
134.6242
20
119.0946
0
VERTEX
8
CUT
10
134.4849
20
118.9741
0
VERTEX
8
CUT
10
134.4428
20
118.9338
0
VERTEX
8
CUT
10
134.3159
20
118.8003
0
VERTEX
8
CUT
10
134.2778
20
118.7562
0
VERTEX
8
CUT
10
134.1644
20
118.6110
0
VERTEX
8
CUT
10
134.1309
20
118.5634
0
VERTEX
8
CUT
10
134.0321
20
118.4079
0
VERTEX
8
CUT
10
134.0033
20
118.3572
0
VERTEX
8
CUT
10
133.9201
20
118.1929
0
VERTEX
8
CUT
10
133.8963
20
118.1397
0
VERTEX
8
CUT
10
133.8295
20
117.9681
0
VERTEX
8
CUT
10
133.8110
20
117.9128
0
VERTEX
8
CUT
10
133.7611
20
117.7355
0
VERTEX
8
CUT
10
133.7480
20
117.6787
0
VERTEX
8
CUT
10
133.7155
20
117.4974
0
VERTEX
8
CUT
10
133.7081
20
117.4396
0
SEQEND
0
POLYLINE
8
CUT
66
1
70
1
10
0.0
20
0.0
30
0.0
0
VERTEX
8
CUT
10
83.2942
20
35.8422
0
VERTEX
8
CUT
10
83.2925
20
35.8289
0
VERTEX
8
CUT
10
83.2866
20
35.7768
0
VERTEX
8
CUT
10
83.2841
20
35.7500
0
VERTEX
8
CUT
10
83.2721
20
35.5759
0
VERTEX
8
CUT
10
83.2708
20
35.5491
0
VERTEX
8
CUT
10
83.2695
20
35.4966
0
VERTEX
8
CUT
10
83.2694
20
35.4832
0
VERTEX
8
CUT
10
83.2692
20
35.3959
0
VERTEX
8
CUT
10
83.2693
20
35.3825
0
VERTEX
8
CUT
10
83.3156
20
33.1244
0
VERTEX
8
CUT
10
83.3161
20
33.1095
0
VERTEX
8
CUT
10
83.3205
20
33.0130
0
VERTEX
8
CUT
10
83.3213
20
32.9981
0
VERTEX
8
CUT
10
83.3254
20
32.9402
0
VERTEX
8
CUT
10
83.3282
20
32.9106
0
VERTEX
8
CUT
10
83.3513
20
32.7188
0
VERTEX
8
CUT
10
83.3555
20
32.6894
0
VERTEX
8
CUT
10
83.3653
20
32.6322
0
VERTEX
8
CUT
10
83.3680
20
32.6176
0
VERTEX
8
CUT
10
83.3866
20
32.5227
0
VERTEX
8
CUT
10
83.3897
20
32.5082
0
VERTEX
8
CUT
10
83.7226
20
31.0107
0
VERTEX
8
CUT
10
83.7255
20
30.9984
0
VERTEX
8
CUT
10
83.7449
20
30.9189
0
VERTEX
8
CUT
10
83.7480
20
30.9067
0
VERTEX
8
CUT
10
83.7607
20
30.8591
0
VERTEX
8
CUT
10
83.7677
20
30.8349
0
VERTEX
8
CUT
10
83.8165
20
30.6786
0
VERTEX
8
CUT
10
83.8246
20
30.6547
0
VERTEX
8
CUT
10
83.8412
20
30.6084
0
VERTEX
8
CUT
10
83.8456
20
30.5966
0
VERTEX
8
CUT
10
83.8749
20
30.5201
0
VERTEX
8
CUT
10
83.8795
20
30.5084
0
VERTEX
8
CUT
10
84.3380
20
29.3826
0
VERTEX
8
CUT
10
84.3437
20
29.3689
0
VERTEX
8
CUT
10
84.3822
20
29.2808
0
VERTEX
8
CUT
10
84.3883
20
29.2673
0
VERTEX
8
CUT
10
84.4127
20
29.2149
0
VERTEX
8
CUT
10
84.4258
20
29.1884
0
VERTEX
8
CUT
10
84.5155
20
29.0184
0
VERTEX
8
CUT
10
84.5300
20
28.9926
0
VERTEX
8
CUT
10
84.5594
20
28.9429
0
VERTEX
8
CUT
10
84.5671
20
28.9302
0
VERTEX
8
CUT
10
84.6181
20
28.8487
0
VERTEX
8
CUT
10
84.6261
20
28.8363
0
VERTEX
8
CUT
10
85.0000
20
28.2706
0
VERTEX
8
CUT
10
85.0082
20
28.2586
0
VERTEX
8
CUT
10
85.0622
20
28.1810
0
VERTEX
8
CUT
10
85.0707
20
28.1691
0
VERTEX
8
CUT
10
85.1043
20
28.1233
0
VERTEX
8
CUT
10
85.1220
20
28.1003
0
VERTEX
8
CUT
10
85.2394
20
27.9554
0
VERTEX
8
CUT
10
85.2782
20
27.9121
0
VERTEX
8
CUT
10
85.4090
20
27.7793
0
VERTEX
8
CUT
10
85.4300
20
27.7590
0
VERTEX
8
CUT
10
85.4717
20
27.7206
0
VERTEX
8
CUT
10
85.4826
20
27.7108
0
VERTEX
8
CUT
10
85.5536
20
27.6485
0
VERTEX
8
CUT
10
85.5647
20
27.6390
0
VERTEX
8
CUT
10
85.8523
20
27.3988
0
VERTEX
8
CUT
10
85.8625
20
27.3905
0
VERTEX
8
CUT
10
85.9290
20
27.3374
0
VERTEX
8
CUT
10
85.9394
20
27.3293
0
VERTEX
8
CUT
10
85.9801
20
27.2982
0
VERTEX
8
CUT
10
86.0012
20
27.2828
0
VERTEX
8
CUT
10
86.1391
20
27.1867
0
VERTEX
8
CUT
10
86.1833
20
27.1587
0
VERTEX
8
CUT
10
86.3271
20
27.0762
0
VERTEX
8
CUT
10
86.3736
20
27.0521
0
VERTEX
8
CUT
10
86.5260
20
26.9815
0
VERTEX
8
CUT
10
86.5500
20
26.9710
0
VERTEX
8
CUT
10
86.5974
20
26.9516
0
VERTEX
8
CUT
10
86.6096
20
26.9467
0
VERTEX
8
CUT
10
86.6890
20
26.9161
0
VERTEX
8
CUT
10
86.7013
20
26.9115
0
VERTEX
8
CUT
10
86.9452
20
26.8235
0
VERTEX
8
CUT
10
86.9593
20
26.8186
0
VERTEX
8
CUT
10
87.0511
20
26.7880
0
VERTEX
8
CUT
10
87.0653
20
26.7835
0
VERTEX
8
CUT
10
87.1208
20
26.7665
0
VERTEX
8
CUT
10
87.1495
20
26.7585
0
VERTEX
8
CUT
10
87.3345
20
26.7118
0
VERTEX
8
CUT
10
87.3928
20
26.7001
0
VERTEX
8
CUT
10
87.5815
20
26.6720
0
VERTEX
8
CUT
10
87.6111
20
26.6684
0
VERTEX
8
CUT
10
87.6689
20
26.6627
0
VERTEX
8
CUT
10
87.6837
20
26.6614
0
VERTEX
8
CUT
10
87.7802
20
26.6543
0
VERTEX
8
CUT
10
87.7951
20
26.6534
0
VERTEX
8
CUT
10
88.1729
20
26.6350
0
VERTEX
8
CUT
10
88.1878
20
26.6345
0
VERTEX
8
CUT
10
88.2843
20
26.6321
0
VERTEX
8
CUT
10
88.2992
20
26.6320
0
VERTEX
8
CUT
10
88.3572
20
26.6320
0
VERTEX
8
CUT
10
88.3869
20
26.6328
0
VERTEX
8
CUT
10
88.5770
20
26.6424
0
VERTEX
8
CUT
10
88.6361
20
26.6483
0
VERTEX
8
CUT
10
88.8244
20
26.6767
0
VERTEX
8
CUT
10
88.8537
20
26.6818
0
VERTEX
8
CUT
10
88.9105
20
26.6933
0
VERTEX
8
CUT
10
88.9250
20
26.6964
0
VERTEX
8
CUT
10
89.0192
20
26.7178
0
VERTEX
8
CUT
10
89.0336
20
26.7213
0
VERTEX
8
CUT
10
89.8462
20
26.9274
0
VERTEX
8
CUT
10
89.8608
20
26.9313
0
VERTEX
8
CUT
10
89.9554
20
26.9579
0
VERTEX
8
CUT
10
89.9699
20
26.9622
0
VERTEX
8
CUT
10
90.0263
20
26.9796
0
VERTEX
8
CUT
10
90.0550
20
26.9892
0
VERTEX
8
CUT
10
90.2395
20
27.0564
0
VERTEX
8
CUT
10
90.2677
20
27.0675
0
VERTEX
8
CUT
10
90.3221
20
27.0904
0
VERTEX
8
CUT
10
90.3359
20
27.0965
0
VERTEX
8
CUT
10
90.4254
20
27.1370
0
VERTEX
8
CUT
10
90.4391
20
27.1434
0
VERTEX
8
CUT
10
91.5792
20
27.6943
0
VERTEX
8
CUT
10
91.5911
20
27.7002
0
VERTEX
8
CUT
10
91.6681
20
27.7395
0
VERTEX
8
CUT
10
91.6799
20
27.7457
0
VERTEX
8
CUT
10
91.7257
20
27.7704
0
VERTEX
8
CUT
10
91.7489
20
27.7836
0
VERTEX
8
CUT
10
91.8973
20
27.8723
0
VERTEX
8
CUT
10
91.9198
20
27.8864
0
VERTEX
8
CUT
10
91.9632
20
27.9151
0
VERTEX
8
CUT
10
91.9742
20
27.9225
0
VERTEX
8
CUT
10
92.0454
20
27.9718
0
VERTEX
8
CUT
10
92.0562
20
27.9795
0
VERTEX
8
CUT
10
95.6301
20
30.5719
0
VERTEX
8
CUT
10
95.6444
20
30.5826
0
VERTEX
8
CUT
10
95.7362
20
30.6534
0
VERTEX
8
CUT
10
95.7501
20
30.6645
0
VERTEX
8
CUT
10
95.8626
20
30.7568
0
VERTEX
8
CUT
10
95.8762
20
30.7683
0
VERTEX
8
CUT
10
95.9636
20
30.8444
0
VERTEX
8
CUT
10
95.9769
20
30.8564
0
VERTEX
8
CUT
10
99.2087
20
33.8459
0
VERTEX
8
CUT
10
99.2148
20
33.8516
0
VERTEX
8
CUT
10
99.2572
20
33.8919
0
VERTEX
8
CUT
10
99.2636
20
33.8982
0
VERTEX
8
CUT
10
99.3157
20
33.9492
0
VERTEX
8
CUT
10
99.3220
20
33.9555
0
VERTEX
8
CUT
10
99.3625
20
33.9964
0
VERTEX
8
CUT
10
99.3691
20
34.0032
0
VERTEX
8
CUT
10
102.6502
20
37.4223
0
VERTEX
8
CUT
10
102.6564
20
37.4289
0
VERTEX
8
CUT
10
102.6993
20
37.4750
0
VERTEX
8
CUT
10
102.7059
20
37.4822
0
VERTEX
8
CUT
10
102.7585
20
37.5405
0
VERTEX
8
CUT
10
102.7648
20
37.5476
0
VERTEX
8
CUT
10
102.8056
20
37.5944
0
VERTEX
8
CUT
10
102.8122
20
37.6021
0
VERTEX
8
CUT
10
106.4447
20
41.9088
0
VERTEX
8
CUT
10
106.4490
20
41.9139
0
VERTEX
8
CUT
10
106.4783
20
41.9495
0
VERTEX
8
CUT
10
106.4828
20
41.9550
0
VERTEX
8
CUT
10
106.5188
20
41.9997
0
VERTEX
8
CUT
10
106.5231
20
42.0051
0
VERTEX
8
CUT
10
106.5512
20
42.0408
0
VERTEX
8
CUT
10
106.5557
20
42.0467
0
VERTEX
8
CUT
10
108.1553
20
44.1343
0
VERTEX
8
CUT
10
108.1608
20
44.1416
0
VERTEX
8
CUT
10
108.1984
20
44.1923
0
VERTEX
8
CUT
10
108.2041
20
44.2001
0
VERTEX
8
CUT
10
108.2500
20
44.2640
0
VERTEX
8
CUT
10
108.2555
20
44.2718
0
VERTEX
8
CUT
10
108.2909
20
44.3229
0
VERTEX
8
CUT
10
108.2967
20
44.3313
0
VERTEX
8
CUT
10
111.1935
20
48.6621
0
VERTEX
8
CUT
10
111.2004
20
48.6726
0
VERTEX
8
CUT
10
111.2441
20
48.7410
0
VERTEX
8
CUT
10
111.2507
20
48.7516
0
VERTEX
8
CUT
10
111.3038
20
48.8386
0
VERTEX
8
CUT
10
111.3102
20
48.8493
0
VERTEX
8
CUT
10
111.3510
20
48.9194
0
VERTEX
8
CUT
10
111.3572
20
48.9303
0
VERTEX
8
CUT
10
113.7418
20
53.2309
0
VERTEX
8
CUT
10
113.7478
20
53.2421
0
VERTEX
8
CUT
10
113.7864
20
53.3153
0
VERTEX
8
CUT
10
113.7922
20
53.3266
0
VERTEX
8
CUT
10
113.8387
20
53.4195
0
VERTEX
8
CUT
10
113.8442
20
53.4309
0
VERTEX
8
CUT
10
113.8797
20
53.5057
0
VERTEX
8
CUT
10
113.8850
20
53.5172
0
VERTEX
8
CUT
10
114.8826
20
55.7426
0
VERTEX
8
CUT
10
114.8885
20
55.7563
0
VERTEX
8
CUT
10
114.9260
20
55.8457
0
VERTEX
8
CUT
10
114.9316
20
55.8596
0
VERTEX
8
CUT
10
114.9758
20
55.9730
0
VERTEX
8
CUT
10
114.9810
20
55.9869
0
VERTEX
8
CUT
10
115.0140
20
56.0781
0
VERTEX
8
CUT
10
115.0189
20
56.0922
0
VERTEX
8
CUT
10
115.5761
20
57.7626
0
VERTEX
8
CUT
10
115.5804
20
57.7762
0
VERTEX
8
CUT
10
115.6075
20
57.8643
0
VERTEX
8
CUT
10
115.6115
20
57.8779
0
VERTEX
8
CUT
10
115.6266
20
57.9313
0
VERTEX
8
CUT
10
115.6336
20
57.9588
0
VERTEX
8
CUT
10
115.6752
20
58.1384
0
VERTEX
8
CUT
10
115.6809
20
58.1662
0
VERTEX
8
CUT
10
115.6908
20
58.2207
0
VERTEX
8
CUT
10
115.6932
20
58.2347
0
VERTEX
8
CUT
10
115.7076
20
58.3258
0
VERTEX
8
CUT
10
115.7096
20
58.3398
0
VERTEX
8
CUT
10
116.0293
20
60.7337
0
VERTEX
8
CUT
10
116.0313
20
60.7507
0
VERTEX
8
CUT
10
116.0428
20
60.8608
0
VERTEX
8
CUT
10
116.0444
20
60.8778
0
VERTEX
8
CUT
10
116.0494
20
60.9441
0
VERTEX
8
CUT
10
116.0510
20
60.9782
0
VERTEX
8
CUT
10
116.0553
20
61.1995
0
VERTEX
8
CUT
10
116.0549
20
61.2336
0
VERTEX
8
CUT
10
116.0524
20
61.3000
0
VERTEX
8
CUT
10
116.0516
20
61.3170
0
VERTEX
8
CUT
10
116.0442
20
61.4276
0
VERTEX
8
CUT
10
116.0429
20
61.4446
0
VERTEX
8
CUT
10
115.8062
20
63.9407
0
VERTEX
8
CUT
10
115.8047
20
63.9545
0
VERTEX
8
CUT
10
115.7941
20
64.0443
0
VERTEX
8
CUT
10
115.7923
20
64.0581
0
VERTEX
8
CUT
10
115.7847
20
64.1120
0
VERTEX
8
CUT
10
115.7801
20
64.1394
0
VERTEX
8
CUT
10
115.7469
20
64.3147
0
VERTEX
8
CUT
10
115.7340
20
64.3688
0
VERTEX
8
CUT
10
115.6847
20
64.5403
0
VERTEX
8
CUT
10
115.6764
20
64.5668
0
VERTEX
8
CUT
10
115.6590
20
64.6183
0
VERTEX
8
CUT
10
115.6543
20
64.6315
0
VERTEX
8
CUT
10
115.6233
20
64.7164
0
VERTEX
8
CUT
10
115.6184
20
64.7295
0
VERTEX
8
CUT
10
115.1164
20
66.0129
0
VERTEX
8
CUT
10
115.1100
20
66.0286
0
VERTEX
8
CUT
10
115.0668
20
66.1302
0
VERTEX
8
CUT
10
115.0600
20
66.1458
0
VERTEX
8
CUT
10
115.0324
20
66.2060
0
VERTEX
8
CUT
10
115.0174
20
66.2365
0
VERTEX
8
CUT
10
114.9143
20
66.4315
0
VERTEX
8
CUT
10
114.8976
20
66.4611
0
VERTEX
8
CUT
10
114.8634
20
66.5178
0
VERTEX
8
CUT
10
114.8544
20
66.5322
0
VERTEX
8
CUT
10
114.7947
20
66.6251
0
VERTEX
8
CUT
10
114.7854
20
66.6393
0
VERTEX
8
CUT
10
114.0006
20
67.7879
0
VERTEX
8
CUT
10
113.9923
20
67.7998
0
VERTEX
8
CUT
10
113.9372
20
67.8764
0
VERTEX
8
CUT
10
113.9285
20
67.8881
0
VERTEX
8
CUT
10
113.8943
20
67.9333
0
VERTEX
8
CUT
10
113.8762
20
67.9560
0
VERTEX
8
CUT
10
113.7569
20
68.0988
0
VERTEX
8
CUT
10
113.7176
20
68.1415
0
VERTEX
8
CUT
10
113.5868
20
68.2703
0
VERTEX
8
CUT
10
113.5435
20
68.3090
0
VERTEX
8
CUT
10
113.4009
20
68.4245
0
VERTEX
8
CUT
10
113.3541
20
68.4588
0
VERTEX
8
CUT
10
113.2010
20
68.5601
0
VERTEX
8
CUT
10
113.1511
20
68.5897
0
VERTEX
8
CUT
10
112.9889
20
68.6757
0
VERTEX
8
CUT
10
112.9364
20
68.7004
0
VERTEX
8
CUT
10
112.7667
20
68.7703
0
VERTEX
8
CUT
10
112.7120
20
68.7897
0
VERTEX
8
CUT
10
112.5363
20
68.8429
0
VERTEX
8
CUT
10
112.4800
20
68.8570
0
VERTEX
8
CUT
10
112.3000
20
68.8929
0
VERTEX
8
CUT
10
112.2426
20
68.9015
0
VERTEX
8
CUT
10
112.0600
20
68.9199
0
VERTEX
8
CUT
10
112.0020
20
68.9229
0
VERTEX
8
CUT
10
111.8185
20
68.9236
0
VERTEX
8
CUT
10
111.7605
20
68.9210
0
VERTEX
8
CUT
10
111.5777
20
68.9039
0
VERTEX
8
CUT
10
111.5203
20
68.8957
0
VERTEX
8
CUT
10
111.3400
20
68.8610
0
VERTEX
8
CUT
10
111.2836
20
68.8473
0
VERTEX
8
CUT
10
111.1076
20
68.7953
0
VERTEX
8
CUT
10
111.0528
20
68.7762
0
VERTEX
8
CUT
10
110.8826
20
68.7075
0
VERTEX
8
CUT
10
110.8299
20
68.6832
0
VERTEX
8
CUT
10
110.6671
20
68.5984
0
VERTEX
8
CUT
10
110.6170
20
68.5691
0
VERTEX
8
CUT
10
110.4632
20
68.4689
0
VERTEX
8
CUT
10
110.4161
20
68.4349
0
VERTEX
8
CUT
10
110.2727
20
68.3204
0
VERTEX
8
CUT
10
110.2292
20
68.2820
0
VERTEX
8
CUT
10
110.0975
20
68.1541
0
VERTEX
8
CUT
10
110.0579
20
68.1117
0
VERTEX
8
CUT
10
109.9392
20
67.9717
0
VERTEX
8
CUT
10
109.9038
20
67.9256
0
VERTEX
8
CUT
10
109.7992
20
67.7748
0
VERTEX
8
CUT
10
109.7685
20
67.7255
0
VERTEX
8
CUT
10
109.6790
20
67.5653
0
VERTEX
8
CUT
10
109.6531
20
67.5133
0
VERTEX
8
CUT
10
109.5795
20
67.3452
0
VERTEX
8
CUT
10
109.5588
20
67.2910
0
VERTEX
8
CUT
10
109.5018
20
67.1165
0
VERTEX
8
CUT
10
109.4865
20
67.0605
0
VERTEX
8
CUT
10
109.4460
20
66.8789
0
VERTEX
8
CUT
10
109.4404
20
66.8504
0
VERTEX
8
CUT
10
109.4307
20
66.7945
0
VERTEX
8
CUT
10
109.4284
20
66.7802
0
VERTEX
8
CUT
10
109.4147
20
66.6869
0
VERTEX
8
CUT
10
109.4127
20
66.6725
0
VERTEX
8
CUT
10
109.1824
20
64.7998
0
VERTEX
8
CUT
10
109.1812
20
64.7906
0
VERTEX
8
CUT
10
109.1792
20
64.7752
0
VERTEX
8
CUT
10
109.1735
20
64.7384
0
VERTEX
8
CUT
10
109.1650
20
64.6903
0
VERTEX
8
CUT
10
109.1514
20
64.6265
0
VERTEX
8
CUT
10
109.1354
20
64.5629
0
VERTEX
8
CUT
10
109.1172
20
64.5003
0
VERTEX
8
CUT
10
109.1018
20
64.4539
0
VERTEX
8
CUT
10
109.0894
20
64.4188
0
VERTEX
8
CUT
10
109.0839
20
64.4043
0
VERTEX
8
CUT
10
109.0806
20
64.3956
0
VERTEX
8
CUT
10
107.3850
20
60.0363
0
VERTEX
8
CUT
10
107.3793
20
60.0219
0
VERTEX
8
CUT
10
107.3657
20
59.9886
0
VERTEX
8
CUT
10
107.3597
20
59.9743
0
VERTEX
8
CUT
10
107.3523
20
59.9570
0
VERTEX
8
CUT
10
107.3460
20
59.9429
0
VERTEX
8
CUT
10
107.3313
20
59.9100
0
VERTEX
8
CUT
10
107.3248
20
59.8959
0
VERTEX
8
CUT
10
107.3132
20
59.8712
0
VERTEX
8
CUT
10
107.3065
20
59.8573
0
VERTEX
8
CUT
10
107.2906
20
59.8249
0
VERTEX
8
CUT
10
107.2836
20
59.8111
0
VERTEX
8
CUT
10
107.2750
20
59.7943
0
VERTEX
8
CUT
10
107.2679
20
59.7807
0
VERTEX
8
CUT
10
107.2509
20
59.7489
0
VERTEX
8
CUT
10
107.2435
20
59.7353
0
VERTEX
8
CUT
10
105.2357
20
56.1317
0
VERTEX
8
CUT
10
105.2289
20
56.1197
0
VERTEX
8
CUT
10
105.2129
20
56.0920
0
VERTEX
8
CUT
10
105.2059
20
56.0801
0
VERTEX
8
CUT
10
105.1973
20
56.0658
0
VERTEX
8
CUT
10
105.1902
20
56.0540
0
VERTEX
8
CUT
10
105.1733
20
56.0268
0
VERTEX
8
CUT
10
105.1660
20
56.0152
0
VERTEX
8
CUT
10
105.1529
20
55.9947
0
VERTEX
8
CUT
10
105.1454
20
55.9832
0
VERTEX
8
CUT
10
105.1277
20
55.9565
0
VERTEX
8
CUT
10
105.1201
20
55.9451
0
VERTEX
8
CUT
10
105.1106
20
55.9312
0
VERTEX
8
CUT
10
105.1028
20
55.9200
0
VERTEX
8
CUT
10
105.0843
20
55.8938
0
VERTEX
8
CUT
10
105.0763
20
55.8826
0
VERTEX
8
CUT
10
101.2933
20
50.6987
0
VERTEX
8
CUT
10
101.2848
20
50.6871
0
VERTEX
8
CUT
10
101.2646
20
50.6604
0
VERTEX
8
CUT
10
101.2559
20
50.6490
0
VERTEX
8
CUT
10
101.2451
20
50.6352
0
VERTEX
8
CUT
10
101.2362
20
50.6239
0
VERTEX
8
CUT
10
101.2151
20
50.5978
0
VERTEX
8
CUT
10
101.2060
20
50.5867
0
VERTEX
8
CUT
10
101.1898
20
50.5672
0
VERTEX
8
CUT
10
101.1805
20
50.5562
0
VERTEX
8
CUT
10
101.1587
20
50.5308
0
VERTEX
8
CUT
10
101.1492
20
50.5200
0
VERTEX
8
CUT
10
101.1376
20
50.5069
0
VERTEX
8
CUT
10
101.1279
20
50.4962
0
VERTEX
8
CUT
10
101.1053
20
50.4715
0
VERTEX
8
CUT
10
101.0955
20
50.4610
0
VERTEX
8
CUT
10
98.6475
20
47.8755
0
VERTEX
8
CUT
10
98.6386
20
47.8662
0
VERTEX
8
CUT
10
98.6175
20
47.8445
0
VERTEX
8
CUT
10
98.6084
20
47.8353
0
VERTEX
8
CUT
10
98.5972
20
47.8242
0
VERTEX
8
CUT
10
98.5880
20
47.8151
0
VERTEX
8
CUT
10
98.5663
20
47.7941
0
VERTEX
8
CUT
10
98.5569
20
47.7852
0
VERTEX
8
CUT
10
98.5403
20
47.7695
0
VERTEX
8
CUT
10
98.5308
20
47.7607
0
VERTEX
8
CUT
10
98.5085
20
47.7403
0
VERTEX
8
CUT
10
98.4989
20
47.7316
0
VERTEX
8
CUT
10
98.4871
20
47.7211
0
VERTEX
8
CUT
10
98.4774
20
47.7126
0
VERTEX
8
CUT
10
98.4545
20
47.6929
0
VERTEX
8
CUT
10
98.4446
20
47.6845
0
VERTEX
8
CUT
10
97.5557
20
46.9392
0
VERTEX
8
CUT
10
97.5435
20
46.9292
0
VERTEX
8
CUT
10
97.5148
20
46.9060
0
VERTEX
8
CUT
10
97.5024
20
46.8961
0
VERTEX
8
CUT
10
97.4872
20
46.8843
0
VERTEX
8
CUT
10
97.4746
20
46.8747
0
VERTEX
8
CUT
10
97.4452
20
46.8525
0
VERTEX
8
CUT
10
97.4324
20
46.8431
0
VERTEX
8
CUT
10
97.4098
20
46.8267
0
VERTEX
8
CUT
10
97.3969
20
46.8175
0
VERTEX
8
CUT
10
97.3667
20
46.7964
0
VERTEX
8
CUT
10
97.3536
20
46.7874
0
VERTEX
8
CUT
10
97.3376
20
46.7766
0
VERTEX
8
CUT
10
97.3244
20
46.7679
0
VERTEX
8
CUT
10
97.2935
20
46.7479
0
VERTEX
8
CUT
10
97.2801
20
46.7394
0
VERTEX
8
CUT
10
95.8465
20
45.8463
0
VERTEX
8
CUT
10
95.8362
20
45.8400
0
VERTEX
8
CUT
10
95.8190
20
45.8296
0
VERTEX
8
CUT
10
95.7770
20
45.8058
0
VERTEX
8
CUT
10
95.7212
20
45.7760
0
VERTEX
8
CUT
10
95.6448
20
45.7398
0
VERTEX
8
CUT
10
95.5665
20
45.7071
0
VERTEX
8
CUT
10
95.4871
20
45.6781
0
VERTEX
8
CUT
10
95.4267
20
45.6593
0
VERTEX
8
CUT
10
95.3802
20
45.6462
0
VERTEX
8
CUT
10
95.3607
20
45.6413
0
VERTEX
8
CUT
10
95.3490
20
45.6384
0
VERTEX
8
CUT
10
95.0358
20
45.5635
0
VERTEX
8
CUT
10
95.0234
20
45.5606
0
VERTEX
8
CUT
10
95.0027
20
45.5560
0
VERTEX
8
CUT
10
94.9527
20
45.5462
0
VERTEX
8
CUT
10
94.8869
20
45.5353
0
VERTEX
8
CUT
10
94.7984
20
45.5252
0
VERTEX
8
CUT
10
94.7092
20
45.5194
0
VERTEX
8
CUT
10
94.6200
20
45.5180
0
VERTEX
8
CUT
10
94.5534
20
45.5203
0
VERTEX
8
CUT
10
94.5025
20
45.5235
0
VERTEX
8
CUT
10
94.4815
20
45.5254
0
VERTEX
8
CUT
10
94.4688
20
45.5266
0
VERTEX
8
CUT
10
94.3233
20
45.5420
0
VERTEX
8
CUT
10
94.3119
20
45.5433
0
VERTEX
8
CUT
10
94.3054
20
45.5440
0
VERTEX
8
CUT
10
94.2535
20
45.5517
0
VERTEX
8
CUT
10
94.1822
20
45.5644
0
VERTEX
8
CUT
10
94.1005
20
45.5829
0
VERTEX
8
CUT
10
94.0475
20
45.5976
0
VERTEX
8
CUT
10
93.9685
20
45.6234
0
VERTEX
8
CUT
10
93.9167
20
45.6429
0
VERTEX
8
CUT
10
93.8405
20
45.6759
0
VERTEX
8
CUT
10
93.7907
20
45.7002
0
VERTEX
8
CUT
10
93.7178
20
45.7400
0
VERTEX
8
CUT
10
93.6574
20
45.7767
0
VERTEX
8
CUT
10
93.6134
20
45.8053
0
VERTEX
8
CUT
10
93.6066
20
45.8100
0
VERTEX
8
CUT
10
93.5967
20
45.8170
0
VERTEX
8
CUT
10
92.9654
20
46.2661
0
VERTEX
8
CUT
10
92.9564
20
46.2726
0
VERTEX
8
CUT
10
92.9513
20
46.2762
0
VERTEX
8
CUT
10
92.9114
20
46.3071
0
VERTEX
8
CUT
10
92.8574
20
46.3514
0
VERTEX
8
CUT
10
92.7975
20
46.4052
0
VERTEX
8
CUT
10
92.7597
20
46.4423
0
VERTEX
8
CUT
10
92.7052
20
46.5008
0
VERTEX
8
CUT
10
92.6706
20
46.5414
0
VERTEX
8
CUT
10
92.6215
20
46.6045
0
VERTEX
8
CUT
10
92.5907
20
46.6479
0
VERTEX
8
CUT
10
92.5474
20
46.7152
0
VERTEX
8
CUT
10
92.5132
20
46.7739
0
VERTEX
8
CUT
10
92.4890
20
46.8183
0
VERTEX
8
CUT
10
92.4853
20
46.8254
0
VERTEX
8
CUT
10
92.4801
20
46.8359
0
VERTEX
8
CUT
10
91.9187
20
47.9728
0
VERTEX
8
CUT
10
91.9136
20
47.9835
0
VERTEX
8
CUT
10
91.9064
20
47.9985
0
VERTEX
8
CUT
10
91.8848
20
48.0473
0
VERTEX
8
CUT
10
91.8574
20
48.1147
0
VERTEX
8
CUT
10
91.8297
20
48.1929
0
VERTEX
8
CUT
10
91.8137
20
48.2458
0
VERTEX
8
CUT
10
91.7934
20
48.3262
0
VERTEX
8
CUT
10
91.7823
20
48.3803
0
VERTEX
8
CUT
10
91.7695
20
48.4622
0
VERTEX
8
CUT
10
91.7615
20
48.5346
0
VERTEX
8
CUT
10
91.7572
20
48.5877
0
VERTEX
8
CUT
10
91.7564
20
48.6044
0
VERTEX
8
CUT
10
91.7559
20
48.6162
0
VERTEX
8
CUT
10
91.6839
20
50.5514
0
VERTEX
8
CUT
10
91.6835
20
50.5635
0
VERTEX
8
CUT
10
91.6830
20
50.5836
0
VERTEX
8
CUT
10
91.6832
20
50.6320
0
VERTEX
8
CUT
10
91.6857
20
50.7140
0
VERTEX
8
CUT
10
91.6875
20
50.7502
0
VERTEX
8
CUT
10
91.6877
20
50.7540
0
VERTEX
8
CUT
10
91.6910
20
50.7901
0
VERTEX
8
CUT
10
91.7001
20
50.8716
0
VERTEX
8
CUT
10
91.7067
20
50.9196
0
VERTEX
8
CUT
10
91.7100
20
50.9394
0
VERTEX
8
CUT
10
91.7121
20
50.9514
0
VERTEX
8
CUT
10
92.2739
20
54.0733
0
VERTEX
8
CUT
10
92.2763
20
54.0861
0
VERTEX
8
CUT
10
92.2821
20
54.1160
0
VERTEX
8
CUT
10
92.2847
20
54.1288
0
VERTEX
8
CUT
10
92.2880
20
54.1444
0
VERTEX
8
CUT
10
92.2907
20
54.1572
0
VERTEX
8
CUT
10
92.2974
20
54.1869
0
VERTEX
8
CUT
10
92.3004
20
54.1996
0
VERTEX
8
CUT
10
92.3058
20
54.2221
0
VERTEX
8
CUT
10
92.3089
20
54.2347
0
VERTEX
8
CUT
10
92.3165
20
54.2643
0
VERTEX
8
CUT
10
92.3198
20
54.2769
0
VERTEX
8
CUT
10
92.3240
20
54.2923
0
VERTEX
8
CUT
10
92.3275
20
54.3048
0
VERTEX
8
CUT
10
92.3359
20
54.3341
0
VERTEX
8
CUT
10
92.3396
20
54.3466
0
VERTEX
8
CUT
10
94.6951
20
62.1234
0
VERTEX
8
CUT
10
94.6974
20
62.1313
0
VERTEX
8
CUT
10
94.7133
20
62.1865
0
VERTEX
8
CUT
10
94.7157
20
62.1951
0
VERTEX
8
CUT
10
94.7345
20
62.2642
0
VERTEX
8
CUT
10
94.7368
20
62.2726
0
VERTEX
8
CUT
10
94.7508
20
62.3275
0
VERTEX
8
CUT
10
94.7531
20
62.3365
0
VERTEX
8
CUT
10
95.5529
20
65.6680
0
VERTEX
8
CUT
10
95.5563
20
65.6832
0
VERTEX
8
CUT
10
95.5774
20
65.7826
0
VERTEX
8
CUT
10
95.5805
20
65.7979
0
VERTEX
8
CUT
10
95.6038
20
65.9233
0
VERTEX
8
CUT
10
95.6064
20
65.9387
0
VERTEX
8
CUT
10
95.6223
20
66.0391
0
VERTEX
8
CUT
10
95.6246
20
66.0545
0
VERTEX
8
CUT
10
96.0292
20
69.1168
0
VERTEX
8
CUT
10
96.0316
20
69.1377
0
VERTEX
8
CUT
10
96.0447
20
69.2735
0
VERTEX
8
CUT
10
96.0464
20
69.2944
0
VERTEX
8
CUT
10
96.0569
20
69.4653
0
VERTEX
8
CUT
10
96.0578
20
69.4862
0
VERTEX
8
CUT
10
96.0614
20
69.6226
0
VERTEX
8
CUT
10
96.0616
20
69.6436
0
VERTEX
8
CUT
10
96.0369
20
72.5138
0
VERTEX
8
CUT
10
96.0363
20
72.5347
0
VERTEX
8
CUT
10
96.0304
20
72.6706
0
VERTEX
8
CUT
10
96.0291
20
72.6915
0
VERTEX
8
CUT
10
96.0158
20
72.8616
0
VERTEX
8
CUT
10
96.0138
20
72.8824
0
VERTEX
8
CUT
10
95.9984
20
73.0176
0
VERTEX
8
CUT
10
95.9957
20
73.0383
0
VERTEX
8
CUT
10
95.7986
20
74.3590
0
VERTEX
8
CUT
10
95.7962
20
74.3734
0
VERTEX
8
CUT
10
95.7799
20
74.4670
0
VERTEX
8
CUT
10
95.7772
20
74.4814
0
VERTEX
8
CUT
10
95.7661
20
74.5374
0
VERTEX
8
CUT
10
95.7596
20
74.5659
0
VERTEX
8
CUT
10
95.7141
20
74.7477
0
VERTEX
8
CUT
10
95.6971
20
74.8037
0
VERTEX
8
CUT
10
95.6349
20
74.9777
0
VERTEX
8
CUT
10
95.6126
20
75.0318
0
VERTEX
8
CUT
10
95.5338
20
75.1989
0
VERTEX
8
CUT
10
95.5063
20
75.2505
0
VERTEX
8
CUT
10
95.4115
20
75.4093
0
VERTEX
8
CUT
10
95.3792
20
75.4580
0
VERTEX
8
CUT
10
95.2694
20
75.6067
0
VERTEX
8
CUT
10
95.2325
20
75.6520
0
VERTEX
8
CUT
10
95.1088
20
75.7894
0
VERTEX
8
CUT
10
95.0676
20
75.8309
0
VERTEX
8
CUT
10
94.9311
20
75.9555
0
VERTEX
8
CUT
10
94.8861
20
75.9928
0
VERTEX
8
CUT
10
94.7381
20
76.1036
0
VERTEX
8
CUT
10
94.6897
20
76.1363
0
VERTEX
8
CUT
10
94.5317
20
76.2322
0
VERTEX
8
CUT
10
94.4803
20
76.2601
0
VERTEX
8
CUT
10
94.3136
20
76.3401
0
VERTEX
8
CUT
10
94.2598
20
76.3628
0
VERTEX
8
CUT
10
94.0861
20
76.4263
0
VERTEX
8
CUT
10
94.0303
20
76.4436
0
VERTEX
8
CUT
10
93.8514
20
76.4899
0
VERTEX
8
CUT
10
93.7941
20
76.5017
0
VERTEX
8
CUT
10
93.6115
20
76.5303
0
VERTEX
8
CUT
10
93.5534
20
76.5365
0
VERTEX
8
CUT
10
93.3688
20
76.5472
0
VERTEX
8
CUT
10
93.3104
20
76.5478
0
VERTEX
8
CUT
10
93.1257
20
76.5404
0
VERTEX
8
CUT
10
93.0674
20
76.5353
0
VERTEX
8
CUT
10
92.8843
20
76.5100
0
VERTEX
8
CUT
10
92.8269
20
76.4992
0
VERTEX
8
CUT
10
92.6471
20
76.4563
0
VERTEX
8
CUT
10
92.5909
20
76.4399
0
VERTEX
8
CUT
10
92.4162
20
76.3797
0
VERTEX
8
CUT
10
92.3619
20
76.3579
0
VERTEX
8
CUT
10
92.1939
20
76.2810
0
VERTEX
8
CUT
10
92.1420
20
76.2541
0
VERTEX
8
CUT
10
91.9822
20
76.1611
0
VERTEX
8
CUT
10
91.9332
20
76.1293
0
VERTEX
8
CUT
10
91.7832
20
76.0212
0
VERTEX
8
CUT
10
91.7375
20
75.9847
0
VERTEX
8
CUT
10
91.5988
20
75.8626
0
VERTEX
8
CUT
10
91.5568
20
75.8218
0
VERTEX
8
CUT
10
91.4306
20
75.6868
0
VERTEX
8
CUT
10
91.3929
20
75.6421
0
VERTEX
8
CUT
10
91.2804
20
75.4954
0
VERTEX
8
CUT
10
91.2472
20
75.4473
0
VERTEX
8
CUT
10
91.1496
20
75.2904
0
VERTEX
8
CUT
10
91.1211
20
75.2393
0
VERTEX
8
CUT
10
91.0393
20
75.0736
0
VERTEX
8
CUT
10
91.0159
20
75.0199
0
VERTEX
8
CUT
10
90.9506
20
74.8470
0
VERTEX
8
CUT
10
90.9326
20
74.7914
0
VERTEX
8
CUT
10
90.8844
20
74.6130
0
VERTEX
8
CUT
10
90.8719
20
74.5559
0
VERTEX
8
CUT
10
90.8409
20
74.3710
0
VERTEX
8
CUT
10
90.8367
20
74.3421
0
VERTEX
8
CUT
10
90.8300
20
74.2854
0
VERTEX
8
CUT
10
90.8285
20
74.2709
0
VERTEX
8
CUT
10
90.8196
20
74.1762
0
VERTEX
8
CUT
10
90.8184
20
74.1617
0
VERTEX
8
CUT
10
90.5855
20
70.7888
0
VERTEX
8
CUT
10
90.5845
20
70.7765
0
VERTEX
8
CUT
10
90.5822
20
70.7479
0
VERTEX
8
CUT
10
90.5811
20
70.7356
0
VERTEX
8
CUT
10
90.5796
20
70.7206
0
VERTEX
8
CUT
10
90.5783
20
70.7084
0
VERTEX
8
CUT
10
90.5752
20
70.6798
0
VERTEX
8
CUT
10
90.5737
20
70.6676
0
VERTEX
8
CUT
10
90.5711
20
70.6459
0
VERTEX
8
CUT
10
90.5694
20
70.6337
0
VERTEX
8
CUT
10
90.5655
20
70.6052
0
VERTEX
8
CUT
10
90.5637
20
70.5930
0
VERTEX
8
CUT
10
90.5615
20
70.5781
0
VERTEX
8
CUT
10
90.5595
20
70.5659
0
VERTEX
8
CUT
10
90.5548
20
70.5376
0
VERTEX
8
CUT
10
90.5527
20
70.5254
0
VERTEX
8
CUT
10
89.2393
20
63.2467
0
VERTEX
8
CUT
10
89.2384
20
63.2417
0
VERTEX
8
CUT
10
89.2363
20
63.2302
0
VERTEX
8
CUT
10
89.2353
20
63.2252
0
VERTEX
8
CUT
10
89.2331
20
63.2137
0
VERTEX
8
CUT
10
89.2319
20
63.2075
0
VERTEX
8
CUT
10
89.2290
20
63.1932
0
VERTEX
8
CUT
10
89.2278
20
63.1870
0
VERTEX
8
CUT
10
89.2256
20
63.1762
0
VERTEX
8
CUT
10
89.2243
20
63.1702
0
VERTEX
8
CUT
10
89.2213
20
63.1563
0
VERTEX
8
CUT
10
89.2202
20
63.1510
0
VERTEX
8
CUT
10
89.2176
20
63.1393
0
VERTEX
8
CUT
10
89.2138
20
63.1230
0
VERTEX
8
CUT
10
89.2122
20
63.1159
0
VERTEX
8
CUT
10
84.4944
20
43.2898
0
VERTEX
8
CUT
10
84.4921
20
43.2795
0
VERTEX
8
CUT
10
84.4763
20
43.2075
0
VERTEX
8
CUT
10
84.4739
20
43.1964
0
VERTEX
8
CUT
10
84.4560
20
43.1063
0
VERTEX
8
CUT
10
84.4539
20
43.0954
0
VERTEX
8
CUT
10
84.4410
20
43.0239
0
VERTEX
8
CUT
10
84.4390
20
43.0122
0
VERTEX
8
CUT
10
83.3080
20
35.9420
0
VERTEX
8
CUT
10
83.3061
20
35.9287
0
SEQEND
0
POLYLINE
8
CUT
66
1
70
1
10
0.0
20
0.0
30
0.0
0
VERTEX
8
CUT
10
88.8348
20
112.9025
0
VERTEX
8
CUT
10
88.8335
20
112.8425
0
VERTEX
8
CUT
10
88.8388
20
112.6531
0
VERTEX
8
CUT
10
88.8435
20
112.5933
0
VERTEX
8
CUT
10
88.8677
20
112.4053
0
VERTEX
8
CUT
10
88.8783
20
112.3463
0
VERTEX
8
CUT
10
88.9212
20
112.1617
0
VERTEX
8
CUT
10
88.9376
20
112.1041
0
VERTEX
8
CUT
10
88.9987
20
111.9246
0
VERTEX
8
CUT
10
89.0208
20
111.8689
0
VERTEX
8
CUT
10
89.0994
20
111.6965
0
VERTEX
8
CUT
10
89.1270
20
111.6432
0
VERTEX
8
CUT
10
89.2225
20
111.4795
0
VERTEX
8
CUT
10
89.2552
20
111.4293
0
VERTEX
8
CUT
10
89.3666
20
111.2759
0
VERTEX
8
CUT
10
89.4042
20
111.2292
0
VERTEX
8
CUT
10
89.5302
20
111.0877
0
VERTEX
8
CUT
10
89.5723
20
111.0450
0
VERTEX
8
CUT
10
89.7119
20
110.9168
0
VERTEX
8
CUT
10
89.7580
20
110.8785
0
VERTEX
8
CUT
10
89.9097
20
110.7649
0
VERTEX
8
CUT
10
89.9594
20
110.7313
0
VERTEX
8
CUT
10
90.1216
20
110.6334
0
VERTEX
8
CUT
10
90.1744
20
110.6050
0
VERTEX
8
CUT
10
90.3457
20
110.5238
0
VERTEX
8
CUT
10
90.4010
20
110.5008
0
VERTEX
8
CUT
10
90.5795
20
110.4370
0
VERTEX
8
CUT
10
90.6369
20
110.4197
0
VERTEX
8
CUT
10
90.8209
20
110.3741
0
VERTEX
8
CUT
10
90.8797
20
110.3626
0
VERTEX
8
CUT
10
91.0673
20
110.3355
0
VERTEX
8
CUT
10
91.1270
20
110.3299
0
VERTEX
8
CUT
10
91.3163
20
110.3217
0
VERTEX
8
CUT
10
91.3763
20
110.3221
0
VERTEX
8
CUT
10
91.5655
20
110.3329
0
VERTEX
8
CUT
10
91.6251
20
110.3392
0
VERTEX
8
CUT
10
91.8123
20
110.3688
0
VERTEX
8
CUT
10
91.8710
20
110.3811
0
VERTEX
8
CUT
10
92.0543
20
110.4292
0
VERTEX
8
CUT
10
92.1114
20
110.4473
0
VERTEX
8
CUT
10
92.2890
20
110.5135
0
VERTEX
8
CUT
10
92.3441
20
110.5372
0
VERTEX
8
CUT
10
92.5166
20
110.6219
0
VERTEX
8
CUT
10
92.5432
20
110.6358
0
VERTEX
8
CUT
10
92.5944
20
110.6642
0
VERTEX
8
CUT
10
92.6074
20
110.6716
0
VERTEX
8
CUT
10
92.6914
20
110.7210
0
VERTEX
8
CUT
10
92.7042
20
110.7288
0
VERTEX
8
CUT
10
92.7296
20
110.7446
0
VERTEX
8
CUT
10
92.7426
20
110.7529
0
VERTEX
8
CUT
10
92.8264
20
110.8081
0
VERTEX
8
CUT
10
92.8392
20
110.8167
0
VERTEX
8
CUT
10
92.8887
20
110.8511
0
VERTEX
8
CUT
10
92.9135
20
110.8694
0
VERTEX
8
CUT
10
93.0720
20
110.9922
0
VERTEX
8
CUT
10
93.0959
20
111.0118
0
VERTEX
8
CUT
10
93.1416
20
111.0511
0
VERTEX
8
CUT
10
93.1531
20
111.0613
0
VERTEX
8
CUT
10
93.2274
20
111.1287
0
VERTEX
8
CUT
10
93.2387
20
111.1392
0
VERTEX
8
CUT
10
94.0255
20
111.8905
0
VERTEX
8
CUT
10
94.0363
20
111.9010
0
VERTEX
8
CUT
10
94.1051
20
111.9701
0
VERTEX
8
CUT
10
94.1156
20
111.9809
0
VERTEX
8
CUT
10
94.1559
20
112.0235
0
VERTEX
8
CUT
10
94.1760
20
112.0458
0
VERTEX
8
CUT
10
94.3029
20
112.1939
0
VERTEX
8
CUT
10
94.3219
20
112.2172
0
VERTEX
8
CUT
10
94.3577
20
112.2635
0
VERTEX
8
CUT
10
94.3668
20
112.2755
0
VERTEX
8
CUT
10
94.4245
20
112.3542
0
VERTEX
8
CUT
10
94.4333
20
112.3664
0
VERTEX
8
CUT
10
95.1652
20
113.4175
0
VERTEX
8
CUT
10
95.1775
20
113.4358
0
VERTEX
8
CUT
10
95.2546
20
113.5557
0
VERTEX
8
CUT
10
95.2661
20
113.5743
0
VERTEX
8
CUT
10
95.3573
20
113.7281
0
VERTEX
8
CUT
10
95.3681
20
113.7472
0
VERTEX
8
CUT
10
95.4363
20
113.8724
0
VERTEX
8
CUT
10
95.4464
20
113.8918
0
VERTEX
8
CUT
10
96.1019
20
115.2082
0
VERTEX
8
CUT
10
96.1102
20
115.2254
0
VERTEX
8
CUT
10
96.1619
20
115.3382
0
VERTEX
8
CUT
10
96.1696
20
115.3556
0
VERTEX
8
CUT
10
96.2300
20
115.4991
0
VERTEX
8
CUT
10
96.2371
20
115.5168
0
VERTEX
8
CUT
10
96.2816
20
115.6327
0
VERTEX
8
CUT
10
96.2882
20
115.6506
0
VERTEX
8
CUT
10
96.8048
20
117.1360
0
VERTEX
8
CUT
10
96.8108
20
117.1541
0
VERTEX
8
CUT
10
96.8477
20
117.2721
0
VERTEX
8
CUT
10
96.8531
20
117.2904
0
VERTEX
8
CUT
10
96.8947
20
117.4399
0
VERTEX
8
CUT
10
96.8995
20
117.4583
0
VERTEX
8
CUT
10
96.9288
20
117.5785
0
VERTEX
8
CUT
10
96.9330
20
117.5970
0
VERTEX
8
CUT
10
97.3119
20
119.3936
0
VERTEX
8
CUT
10
97.3151
20
119.4100
0
VERTEX
8
CUT
10
97.3346
20
119.5168
0
VERTEX
8
CUT
10
97.3373
20
119.5333
0
VERTEX
8
CUT
10
97.3580
20
119.6680
0
VERTEX
8
CUT
10
97.3603
20
119.6845
0
VERTEX
8
CUT
10
97.3737
20
119.7922
0
VERTEX
8
CUT
10
97.3756
20
119.8088
0
VERTEX
8
CUT
10
97.5627
20
121.7420
0
VERTEX
8
CUT
10
97.5641
20
121.7599
0
VERTEX
8
CUT
10
97.5719
20
121.8766
0
VERTEX
8
CUT
10
97.5728
20
121.8946
0
VERTEX
8
CUT
10
97.5782
20
122.0413
0
VERTEX
8
CUT
10
97.5786
20
122.0593
0
VERTEX
8
CUT
10
97.5793
20
122.1763
0
VERTEX
8
CUT
10
97.5792
20
122.1943
0
VERTEX
8
CUT
10
97.5046
20
125.3638
0
VERTEX
8
CUT
10
97.5043
20
125.3746
0
VERTEX
8
CUT
10
97.5011
20
125.4504
0
VERTEX
8
CUT
10
97.5005
20
125.4617
0
VERTEX
8
CUT
10
97.4975
20
125.5114
0
VERTEX
8
CUT
10
97.4956
20
125.5352
0
VERTEX
8
CUT
10
97.4806
20
125.6839
0
VERTEX
8
CUT
10
97.4779
20
125.7068
0
VERTEX
8
CUT
10
97.4723
20
125.7464
0
VERTEX
8
CUT
10
97.4707
20
125.7572
0
VERTEX
8
CUT
10
97.4590
20
125.8313
0
VERTEX
8
CUT
10
97.4570
20
125.8433
0
VERTEX
8
CUT
10
97.1797
20
127.3914
0
VERTEX
8
CUT
10
97.1771
20
127.4048
0
VERTEX
8
CUT
10
97.1596
20
127.4910
0
VERTEX
8
CUT
10
97.1568
20
127.5042
0
VERTEX
8
CUT
10
97.1451
20
127.5558
0
VERTEX
8
CUT
10
97.1386
20
127.5821
0
VERTEX
8
CUT
10
97.0920
20
127.7518
0
VERTEX
8
CUT
10
97.0843
20
127.7778
0
VERTEX
8
CUT
10
97.0680
20
127.8281
0
VERTEX
8
CUT
10
97.0637
20
127.8410
0
VERTEX
8
CUT
10
97.0347
20
127.9241
0
VERTEX
8
CUT
10
97.0301
20
127.9368
0
VERTEX
8
CUT
10
96.6435
20
128.9706
0
VERTEX
8
CUT
10
96.6381
20
128.9844
0
VERTEX
8
CUT
10
96.6019
20
129.0743
0
VERTEX
8
CUT
10
96.5962
20
129.0880
0
VERTEX
8
CUT
10
96.5731
20
129.1414
0
VERTEX
8
CUT
10
96.5606
20
129.1685
0
VERTEX
8
CUT
10
96.4764
20
129.3398
0
VERTEX
8
CUT
10
96.4474
20
129.3918
0
VERTEX
8
CUT
10
96.3466
20
129.5539
0
VERTEX
8
CUT
10
96.3302
20
129.5788
0
VERTEX
8
CUT
10
96.2971
20
129.6266
0
VERTEX
8
CUT
10
96.2885
20
129.6388
0
VERTEX
8
CUT
10
96.2313
20
129.7170
0
VERTEX
8
CUT
10
96.2224
20
129.7289
0
VERTEX
8
CUT
10
95.5020
20
130.6650
0
VERTEX
8
CUT
10
95.4930
20
130.6764
0
VERTEX
8
CUT
10
95.4339
20
130.7496
0
VERTEX
8
CUT
10
95.4246
20
130.7608
0
VERTEX
8
CUT
10
95.3880
20
130.8039
0
VERTEX
8
CUT
10
95.3687
20
130.8255
0
VERTEX
8
CUT
10
95.2418
20
130.9610
0
VERTEX
8
CUT
10
95.2003
20
131.0013
0
VERTEX
8
CUT
10
95.0628
20
131.1223
0
VERTEX
8
CUT
10
95.0175
20
131.1585
0
VERTEX
8
CUT
10
94.8691
20
131.2656
0
VERTEX
8
CUT
10
94.8205
20
131.2972
0
VERTEX
8
CUT
10
94.6624
20
131.3896
0
VERTEX
8
CUT
10
94.6110
20
131.4163
0
VERTEX
8
CUT
10
94.4448
20
131.4930
0
VERTEX
8
CUT
10
94.3911
20
131.5147
0
VERTEX
8
CUT
10
94.2181
20
131.5750
0
VERTEX
8
CUT
10
94.1626
20
131.5914
0
VERTEX
8
CUT
10
93.9847
20
131.6348
0
VERTEX
8
CUT
10
93.9278
20
131.6457
0
VERTEX
8
CUT
10
93.7466
20
131.6717
0
VERTEX
8
CUT
10
93.6889
20
131.6772
0
VERTEX
8
CUT
10
93.5060
20
131.6855
0
VERTEX
8
CUT
10
93.4481
20
131.6854
0
VERTEX
8
CUT
10
93.2652
20
131.6761
0
VERTEX
8
CUT
10
93.2075
20
131.6704
0
VERTEX
8
CUT
10
93.0264
20
131.6435
0
VERTEX
8
CUT
10
92.9696
20
131.6323
0
VERTEX
8
CUT
10
92.7919
20
131.5880
0
VERTEX
8
CUT
10
92.7364
20
131.5714
0
VERTEX
8
CUT
10
92.5638
20
131.5102
0
VERTEX
8
CUT
10
92.5102
20
131.4883
0
VERTEX
8
CUT
10
92.3443
20
131.4108
0
VERTEX
8
CUT
10
92.2931
20
131.3837
0
VERTEX
8
CUT
10
92.1354
20
131.2906
0
VERTEX
8
CUT
10
92.0871
20
131.2588
0
VERTEX
8
CUT
10
91.9391
20
131.1509
0
VERTEX
8
CUT
10
91.8940
20
131.1145
0
VERTEX
8
CUT
10
91.7553
20
130.9912
0
VERTEX
8
CUT
10
91.7341
20
130.9714
0
VERTEX
8
CUT
10
91.6937
20
130.9318
0
VERTEX
8
CUT
10
91.6835
20
130.9216
0
VERTEX
8
CUT
10
91.6178
20
130.8541
0
VERTEX
8
CUT
10
91.6078
20
130.8436
0
VERTEX
8
CUT
10
90.6982
20
129.8623
0
VERTEX
8
CUT
10
90.6884
20
129.8514
0
VERTEX
8
CUT
10
90.6251
20
129.7797
0
VERTEX
8
CUT
10
90.6155
20
129.7686
0
VERTEX
8
CUT
10
90.5786
20
129.7246
0
VERTEX
8
CUT
10
90.5603
20
129.7016
0
VERTEX
8
CUT
10
90.4463
20
129.5516
0
VERTEX
8
CUT
10
90.4131
20
129.5030
0
VERTEX
8
CUT
10
90.3143
20
129.3425
0
VERTEX
8
CUT
10
90.2995
20
129.3171
0
VERTEX
8
CUT
10
90.2719
20
129.2668
0
VERTEX
8
CUT
10
90.2650
20
129.2538
0
VERTEX
8
CUT
10
90.2210
20
129.1690
0
VERTEX
8
CUT
10
90.2144
20
129.1558
0
VERTEX
8
CUT
10
89.2384
20
127.1527
0
VERTEX
8
CUT
10
89.2327
20
127.1407
0
VERTEX
8
CUT
10
89.1965
20
127.0620
0
VERTEX
8
CUT
10
89.1911
20
127.0499
0
VERTEX
8
CUT
10
89.1704
20
127.0022
0
VERTEX
8
CUT
10
89.1603
20
126.9775
0
VERTEX
8
CUT
10
89.0995
20
126.8180
0
VERTEX
8
CUT
10
89.0827
20
126.7675
0
VERTEX
8
CUT
10
89.0362
20
126.6032
0
VERTEX
8
CUT
10
89.0295
20
126.5775
0
VERTEX
8
CUT
10
89.0176
20
126.5268
0
VERTEX
8
CUT
10
89.0147
20
126.5138
0
VERTEX
8
CUT
10
88.9967
20
126.4292
0
VERTEX
8
CUT
10
88.9941
20
126.4161
0
VERTEX
8
CUT
10
88.4658
20
123.6254
0
VERTEX
8
CUT
10
88.4621
20
123.6039
0
VERTEX
8
CUT
10
88.4408
20
123.4637
0
VERTEX
8
CUT
10
88.4380
20
123.4421
0
VERTEX
8
CUT
10
88.4177
20
123.2655
0
VERTEX
8
CUT
10
88.4156
20
123.2438
0
VERTEX
8
CUT
10
88.4045
20
123.1025
0
VERTEX
8
CUT
10
88.4032
20
123.0807
0
VERTEX
8
CUT
10
88.3074
20
120.7819
0
VERTEX
8
CUT
10
88.3069
20
120.7636
0
VERTEX
8
CUT
10
88.3056
20
120.6449
0
VERTEX
8
CUT
10
88.3057
20
120.6267
0
VERTEX
8
CUT
10
88.3085
20
120.4778
0
VERTEX
8
CUT
10
88.3091
20
120.4595
0
VERTEX
8
CUT
10
88.3150
20
120.3410
0
VERTEX
8
CUT
10
88.3162
20
120.3228
0
VERTEX
8
CUT
10
88.4815
20
118.2634
0
VERTEX
8
CUT
10
88.4834
20
118.2436
0
VERTEX
8
CUT
10
88.4980
20
118.1152
0
VERTEX
8
CUT
10
88.5006
20
118.0955
0
VERTEX
8
CUT
10
88.5242
20
117.9352
0
VERTEX
8
CUT
10
88.5275
20
117.9156
0
VERTEX
8
CUT
10
88.5505
20
117.7885
0
VERTEX
8
CUT
10
88.5544
20
117.7690
0
VERTEX
8
CUT
10
89.1796
20
114.8729
0
VERTEX
8
CUT
10
89.1884
20
114.8261
0
VERTEX
8
CUT
10
89.2022
20
114.7401
0
VERTEX
8
CUT
10
89.2124
20
114.6456
0
VERTEX
8
CUT
10
89.2158
20
114.5824
0
VERTEX
8
CUT
10
89.2159
20
114.4873
0
VERTEX
8
CUT
10
89.2126
20
114.4241
0
VERTEX
8
CUT
10
89.2027
20
114.3295
0
VERTEX
8
CUT
10
89.1928
20
114.2670
0
VERTEX
8
CUT
10
89.1730
20
114.1740
0
VERTEX
8
CUT
10
89.1565
20
114.1129
0
VERTEX
8
CUT
10
89.1269
20
114.0225
0
VERTEX
8
CUT
10
89.0955
20
113.9413
0
VERTEX
8
CUT
10
89.0772
20
113.8974
0
VERTEX
8
CUT
10
89.0525
20
113.8423
0
VERTEX
8
CUT
10
89.0409
20
113.8147
0
VERTEX
8
CUT
10
88.9711
20
113.6356
0
VERTEX
8
CUT
10
88.9522
20
113.5788
0
VERTEX
8
CUT
10
88.9013
20
113.3962
0
VERTEX
8
CUT
10
88.8881
20
113.3377
0
VERTEX
8
CUT
10
88.8557
20
113.1510
0
VERTEX
8
CUT
10
88.8484
20
113.0915
0
SEQEND
0
ENDSEC
0
EOF
