0
SECTION
2
HEADER
9
$ACADVER
1
AC1009
9
$INSUNITS
70
4
0
ENDSEC
0
SECTION
2
TABLES
0
TABLE
2
LAYER
70
1
0
LAYER
2
CUT
70
0
62
7
6
CONTINUOUS
0
ENDTAB
0
ENDSEC
0
SECTION
2
ENTITIES
0
POLYLINE
8
CUT
66
1
70
1
10
0.0
20
0.0
30
0.0
0
VERTEX
8
CUT
10
0.0000
20
299.9386
0
VERTEX
8
CUT
10
0.0029
20
299.9971
0
VERTEX
8
CUT
10
0.0614
20
300.0000
0
VERTEX
8
CUT
10
299.9021
20
300.0000
0
VERTEX
8
CUT
10
299.9605
20
299.9971
0
VERTEX
8
CUT
10
299.9634
20
299.9386
0
VERTEX
8
CUT
10
299.9634
20
0.0614
0
VERTEX
8
CUT
10
299.9605
20
0.0029
0
VERTEX
8
CUT
10
299.9021
20
-0.0000
0
VERTEX
8
CUT
10
0.0614
20
-0.0000
0
VERTEX
8
CUT
10
0.0029
20
0.0029
0
VERTEX
8
CUT
10
0.0000
20
0.0614
0
SEQEND
0
POLYLINE
8
CUT
66
1
70
1
10
0.0
20
0.0
30
0.0
0
VERTEX
8
CUT
10
276.5902
20
120.3618
0
VERTEX
8
CUT
10
276.6051
20
120.1095
0
VERTEX
8
CUT
10
276.6454
20
119.8599
0
VERTEX
8
CUT
10
276.7107
20
119.6157
0
VERTEX
8
CUT
10
276.8004
20
119.3794
0
VERTEX
8
CUT
10
277.6887
20
117.3527
0
VERTEX
8
CUT
10
277.7817
20
117.1628
0
VERTEX
8
CUT
10
277.8904
20
116.9815
0
VERTEX
8
CUT
10
278.4589
20
116.1181
0
VERTEX
8
CUT
10
278.6005
20
115.9241
0
VERTEX
8
CUT
10
278.7600
20
115.7445
0
VERTEX
8
CUT
10
278.9361
20
115.5811
0
VERTEX
8
CUT
10
279.1269
20
115.4354
0
VERTEX
8
CUT
10
280.0852
20
114.7741
0
VERTEX
8
CUT
10
280.2761
20
114.6546
0
VERTEX
8
CUT
10
280.4770
20
114.5529
0
VERTEX
8
CUT
10
280.6862
20
114.4696
0
VERTEX
8
CUT
10
281.1899
20
114.2950
0
VERTEX
8
CUT
10
281.4236
20
114.2265
0
VERTEX
8
CUT
10
282.2590
20
114.0254
0
VERTEX
8
CUT
10
282.5520
20
113.9730
0
VERTEX
8
CUT
10
282.8492
20
113.9559
0
VERTEX
8
CUT
10
283.7144
20
113.9576
0
VERTEX
8
CUT
10
283.9669
20
113.9709
0
VERTEX
8
CUT
10
284.2168
20
114.0096
0
VERTEX
8
CUT
10
284.4615
20
114.0734
0
VERTEX
8
CUT
10
284.6985
20
114.1616
0
VERTEX
8
CUT
10
284.7407
20
114.1798
0
VERTEX
8
CUT
10
284.7566
20
114.1862
0
VERTEX
8
CUT
10
284.7903
20
114.1974
0
VERTEX
8
CUT
10
284.8251
20
114.2025
0
VERTEX
8
CUT
10
284.8424
20
114.2040
0
VERTEX
8
CUT
10
285.2244
20
114.2270
0
VERTEX
8
CUT
10
285.4800
20
114.2557
0
VERTEX
8
CUT
10
285.7312
20
114.3104
0
VERTEX
8
CUT
10
285.9755
20
114.3907
0
VERTEX
8
CUT
10
286.2103
20
114.4957
0
VERTEX
8
CUT
10
286.5451
20
114.6665
0
VERTEX
8
CUT
10
286.7712
20
114.7972
0
VERTEX
8
CUT
10
286.9824
20
114.9508
0
VERTEX
8
CUT
10
287.1764
20
115.1256
0
VERTEX
8
CUT
10
288.6917
20
116.6408
0
VERTEX
8
CUT
10
288.8727
20
116.8426
0
VERTEX
8
CUT
10
289.0308
20
117.0628
0
VERTEX
8
CUT
10
289.1641
20
117.2988
0
VERTEX
8
CUT
10
289.5990
20
118.1766
0
VERTEX
8
CUT
10
289.6915
20
118.3871
0
VERTEX
8
CUT
10
289.7642
20
118.6051
0
VERTEX
8
CUT
10
289.8166
20
118.8288
0
VERTEX
8
CUT
10
289.8483
20
119.0565
0
VERTEX
8
CUT
10
289.8589
20
119.2861
0
VERTEX
8
CUT
10
289.8593
20
121.8117
0
VERTEX
8
CUT
10
289.8459
20
122.0705
0
VERTEX
8
CUT
10
289.8058
20
122.3265
0
VERTEX
8
CUT
10
289.7394
20
122.5770
0
VERTEX
8
CUT
10
289.6407
20
122.8840
0
VERTEX
8
CUT
10
289.5309
20
123.1658
0
VERTEX
8
CUT
10
289.3880
20
123.4322
0
VERTEX
8
CUT
10
288.8332
20
124.3310
0
VERTEX
8
CUT
10
288.6646
20
124.5713
0
VERTEX
8
CUT
10
288.4690
20
124.7902
0
VERTEX
8
CUT
10
287.4702
20
125.7839
0
VERTEX
8
CUT
10
287.2718
20
125.9612
0
VERTEX
8
CUT
10
287.0557
20
126.1165
0
VERTEX
8
CUT
10
286.8243
20
126.2480
0
VERTEX
8
CUT
10
285.3901
20
126.9645
0
VERTEX
8
CUT
10
285.1796
20
127.0578
0
VERTEX
8
CUT
10
284.9615
20
127.1313
0
VERTEX
8
CUT
10
284.7375
20
127.1845
0
VERTEX
8
CUT
10
284.5095
20
127.2168
0
VERTEX
8
CUT
10
284.2796
20
127.2280
0
VERTEX
8
CUT
10
282.6087
20
127.2325
0
VERTEX
8
CUT
10
282.3451
20
127.2193
0
VERTEX
8
CUT
10
282.0844
20
127.1784
0
VERTEX
8
CUT
10
281.8295
20
127.1102
0
VERTEX
8
CUT
10
280.7807
20
126.7695
0
VERTEX
8
CUT
10
280.5500
20
126.6818
0
VERTEX
8
CUT
10
280.3291
20
126.5717
0
VERTEX
8
CUT
10
280.1201
20
126.4403
0
VERTEX
8
CUT
10
278.8091
20
125.5232
0
VERTEX
8
CUT
10
278.6042
20
125.3634
0
VERTEX
8
CUT
10
278.4170
20
125.1832
0
VERTEX
8
CUT
10
278.2495
20
124.9845
0
VERTEX
8
CUT
10
278.1036
20
124.7695
0
VERTEX
8
CUT
10
277.5729
20
123.8930
0
VERTEX
8
CUT
10
277.4697
20
123.7048
0
VERTEX
8
CUT
10
277.3830
20
123.5085
0
VERTEX
8
CUT
10
276.9132
20
122.3068
0
VERTEX
8
CUT
10
276.8572
20
122.1482
0
VERTEX
8
CUT
10
276.7013
20
121.6536
0
VERTEX
8
CUT
10
276.6359
20
121.4005
0
VERTEX
8
CUT
10
276.5972
20
121.1420
0
VERTEX
8
CUT
10
276.5858
20
120.8808
0
SEQEND
0
POLYLINE
8
CUT
66
1
70
1
10
0.0
20
0.0
30
0.0
0
VERTEX
8
CUT
10
238.9036
20
22.9423
0
VERTEX
8
CUT
10
238.8155
20
22.6948
0
VERTEX
8
CUT
10
238.7539
20
22.4394
0
VERTEX
8
CUT
10
238.7194
20
22.1790
0
VERTEX
8
CUT
10
238.7125
20
21.9164
0
VERTEX
8
CUT
10
238.7331
20
21.6546
0
VERTEX
8
CUT
10
238.7811
20
21.3963
0
VERTEX
8
CUT
10
238.8559
20
21.1445
0
VERTEX
8
CUT
10
239.0104
20
20.7097
0
VERTEX
8
CUT
10
239.0920
20
20.5081
0
VERTEX
8
CUT
10
239.1909
20
20.3145
0
VERTEX
8
CUT
10
239.3061
20
20.1301
0
VERTEX
8
CUT
10
240.0818
20
19.0021
0
VERTEX
8
CUT
10
240.2505
20
18.7837
0
VERTEX
8
CUT
10
240.4422
20
18.5852
0
VERTEX
8
CUT
10
240.6547
20
18.4091
0
VERTEX
8
CUT
10
240.8405
20
18.2716
0
VERTEX
8
CUT
10
241.0541
20
18.1298
0
VERTEX
8
CUT
10
241.2811
20
18.0107
0
VERTEX
8
CUT
10
241.5191
20
17.9155
0
VERTEX
8
CUT
10
242.4155
20
17.6091
0
VERTEX
8
CUT
10
242.6681
20
17.5374
0
VERTEX
8
CUT
10
242.9269
20
17.4925
0
VERTEX
8
CUT
10
243.1889
20
17.4750
0
VERTEX
8
CUT
10
243.4513
20
17.4851
0
VERTEX
8
CUT
10
243.7112
20
17.5227
0
VERTEX
8
CUT
10
243.9657
20
17.5873
0
VERTEX
8
CUT
10
244.2120
20
17.6783
0
VERTEX
8
CUT
10
245.2111
20
18.1081
0
VERTEX
8
CUT
10
245.4187
20
18.2090
0
VERTEX
8
CUT
10
245.6161
20
18.3286
0
VERTEX
8
CUT
10
245.8016
20
18.4659
0
VERTEX
8
CUT
10
245.9736
20
18.6197
0
VERTEX
8
CUT
10
246.8130
20
19.4429
0
VERTEX
8
CUT
10
246.9726
20
19.6148
0
VERTEX
8
CUT
10
247.1154
20
19.8009
0
VERTEX
8
CUT
10
247.2400
20
19.9995
0
VERTEX
8
CUT
10
247.2671
20
20.0475
0
VERTEX
8
CUT
10
247.3679
20
20.2466
0
VERTEX
8
CUT
10
247.4507
20
20.4539
0
VERTEX
8
CUT
10
247.5146
20
20.6677
0
VERTEX
8
CUT
10
247.6662
20
21.2725
0
VERTEX
8
CUT
10
247.7223
20
21.5732
0
VERTEX
8
CUT
10
247.7413
20
21.8785
0
VERTEX
8
CUT
10
247.7413
20
21.9268
0
VERTEX
8
CUT
10
247.7287
20
22.1794
0
VERTEX
8
CUT
10
247.6907
20
22.4294
0
VERTEX
8
CUT
10
247.6276
20
22.6742
0
VERTEX
8
CUT
10
247.5401
20
22.9115
0
VERTEX
8
CUT
10
247.0403
20
24.0808
0
VERTEX
8
CUT
10
246.9406
20
24.2872
0
VERTEX
8
CUT
10
246.8225
20
24.4836
0
VERTEX
8
CUT
10
246.6868
20
24.6684
0
VERTEX
8
CUT
10
246.5348
20
24.8400
0
VERTEX
8
CUT
10
246.1161
20
25.2711
0
VERTEX
8
CUT
10
245.9447
20
25.4317
0
VERTEX
8
CUT
10
245.7590
20
25.5755
0
VERTEX
8
CUT
10
245.5606
20
25.7013
0
VERTEX
8
CUT
10
245.3513
20
25.8079
0
VERTEX
8
CUT
10
244.0947
20
26.3751
0
VERTEX
8
CUT
10
243.8539
20
26.4691
0
VERTEX
8
CUT
10
243.6047
20
26.5378
0
VERTEX
8
CUT
10
243.3497
20
26.5803
0
VERTEX
8
CUT
10
243.0917
20
26.5963
0
VERTEX
8
CUT
10
243.0380
20
26.5969
0
VERTEX
8
CUT
10
242.8228
20
26.5898
0
VERTEX
8
CUT
10
242.6090
20
26.5642
0
VERTEX
8
CUT
10
242.3982
20
26.5204
0
VERTEX
8
CUT
10
241.8970
20
26.3933
0
VERTEX
8
CUT
10
241.6310
20
26.3098
0
VERTEX
8
CUT
10
241.3759
20
26.1973
0
VERTEX
8
CUT
10
241.1350
20
26.0570
0
VERTEX
8
CUT
10
240.9209
20
25.9159
0
VERTEX
8
CUT
10
240.7005
20
25.7524
0
VERTEX
8
CUT
10
240.4992
20
25.5658
0
VERTEX
8
CUT
10
240.3197
20
25.3583
0
VERTEX
8
CUT
10
239.6339
20
24.4716
0
VERTEX
8
CUT
10
239.5072
20
24.2920
0
VERTEX
8
CUT
10
239.3968
20
24.1020
0
VERTEX
8
CUT
10
239.3035
20
23.9029
0
SEQEND
0
POLYLINE
8
CUT
66
1
70
1
10
0.0
20
0.0
30
0.0
0
VERTEX
8
CUT
10
172.1900
20
77.9615
0
VERTEX
8
CUT
10
171.9707
20
77.8550
0
VERTEX
8
CUT
10
171.7628
20
77.7276
0
VERTEX
8
CUT
10
171.5683
20
77.5805
0
VERTEX
8
CUT
10
171.3890
20
77.4152
0
VERTEX
8
CUT
10
171.2267
20
77.2332
0
VERTEX
8
CUT
10
171.0829
20
77.0363
0
VERTEX
8
CUT
10
170.9590
20
76.8263
0
VERTEX
8
CUT
10
170.8561
20
76.6052
0
VERTEX
8
CUT
10
170.7753
20
76.3751
0
VERTEX
8
CUT
10
170.7172
20
76.1383
0
VERTEX
8
CUT
10
170.6825
20
75.8969
0
VERTEX
8
CUT
10
170.6715
20
75.6533
0
VERTEX
8
CUT
10
170.6842
20
75.4098
0
VERTEX
8
CUT
10
170.7207
20
75.1687
0
VERTEX
8
CUT
10
170.7804
20
74.9323
0
VERTEX
8
CUT
10
170.8629
20
74.7028
0
VERTEX
8
CUT
10
170.9673
20
74.4825
0
VERTEX
8
CUT
10
171.0927
20
74.2734
0
VERTEX
8
CUT
10
171.2379
20
74.0775
0
VERTEX
8
CUT
10
171.4015
20
73.8966
0
VERTEX
8
CUT
10
171.5820
20
73.7326
0
VERTEX
8
CUT
10
171.7775
20
73.5869
0
VERTEX
8
CUT
10
171.9863
20
73.4610
0
VERTEX
8
CUT
10
173.5427
20
72.6230
0
VERTEX
8
CUT
10
173.5587
20
72.6139
0
VERTEX
8
CUT
10
173.5905
20
72.5928
0
VERTEX
8
CUT
10
173.6201
20
72.5689
0
VERTEX
8
CUT
10
173.6336
20
72.5563
0
VERTEX
8
CUT
10
175.5582
20
70.6800
0
VERTEX
8
CUT
10
175.5718
20
70.6661
0
VERTEX
8
CUT
10
175.6237
20
70.6045
0
VERTEX
8
CUT
10
175.6351
20
70.5888
0
VERTEX
8
CUT
10
177.5347
20
67.8262
0
VERTEX
8
CUT
10
177.5711
20
67.7700
0
VERTEX
8
CUT
10
177.6044
20
67.7119
0
VERTEX
8
CUT
10
179.4269
20
64.3189
0
VERTEX
8
CUT
10
179.5370
20
64.1336
0
VERTEX
8
CUT
10
183.1851
20
58.5552
0
VERTEX
8
CUT
10
183.3048
20
58.3877
0
VERTEX
8
CUT
10
183.4379
20
58.2306
0
VERTEX
8
CUT
10
187.2700
20
54.0666
0
VERTEX
8
CUT
10
187.5252
20
53.8257
0
VERTEX
8
CUT
10
190.6928
20
51.2306
0
VERTEX
8
CUT
10
190.8763
20
51.0938
0
VERTEX
8
CUT
10
191.0715
20
50.9744
0
VERTEX
8
CUT
10
193.8075
20
49.4680
0
VERTEX
8
CUT
10
194.0639
20
49.3453
0
VERTEX
8
CUT
10
194.3326
20
49.2525
0
VERTEX
8
CUT
10
196.9586
20
48.5095
0
VERTEX
8
CUT
10
197.1835
20
48.4569
0
VERTEX
8
CUT
10
197.4124
20
48.4254
0
VERTEX
8
CUT
10
197.6432
20
48.4150
0
VERTEX
8
CUT
10
199.8625
20
48.4185
0
VERTEX
8
CUT
10
200.1358
20
48.4340
0
VERTEX
8
CUT
10
200.4057
20
48.4791
0
VERTEX
8
CUT
10
201.1777
20
48.6523
0
VERTEX
8
CUT
10
201.4610
20
48.7336
0
VERTEX
8
CUT
10
201.7327
20
48.8477
0
VERTEX
8
CUT
10
204.0288
20
49.9754
0
VERTEX
8
CUT
10
204.2431
20
50.0941
0
VERTEX
8
CUT
10
204.4448
20
50.2331
0
VERTEX
8
CUT
10
204.6319
20
50.3912
0
VERTEX
8
CUT
10
204.8026
20
50.5668
0
VERTEX
8
CUT
10
204.9553
20
50.7583
0
VERTEX
8
CUT
10
205.0886
20
50.9638
0
VERTEX
8
CUT
10
205.2011
20
51.1814
0
VERTEX
8
CUT
10
205.2917
20
51.4090
0
VERTEX
8
CUT
10
205.3597
20
51.6443
0
VERTEX
8
CUT
10
205.3868
20
51.7909
0
VERTEX
8
CUT
10
205.4082
20
51.8950
0
VERTEX
8
CUT
10
205.4219
20
51.9290
0
VERTEX
8
CUT
10
205.4298
20
51.9454
0
VERTEX
8
CUT
10
206.3737
20
53.7868
0
VERTEX
8
CUT
10
206.4539
20
53.9592
0
VERTEX
8
CUT
10
206.5208
20
54.1371
0
VERTEX
8
CUT
10
206.9597
20
55.4546
0
VERTEX
8
CUT
10
207.0225
20
55.6771
0
VERTEX
8
CUT
10
207.0645
20
55.9044
0
VERTEX
8
CUT
10
207.0854
20
56.1346
0
VERTEX
8
CUT
10
207.1210
20
56.9425
0
VERTEX
8
CUT
10
207.1222
20
56.9604
0
VERTEX
8
CUT
10
207.1272
20
56.9974
0
VERTEX
8
CUT
10
207.1356
20
57.0339
0
VERTEX
8
CUT
10
207.1407
20
57.0506
0
VERTEX
8
CUT
10
207.2514
20
57.3890
0
VERTEX
8
CUT
10
207.3203
20
57.6445
0
VERTEX
8
CUT
10
207.3618
20
57.9058
0
VERTEX
8
CUT
10
207.3754
20
58.1701
0
VERTEX
8
CUT
10
207.3725
20
60.1784
0
VERTEX
8
CUT
10
207.3626
20
60.3972
0
VERTEX
8
CUT
10
207.3336
20
60.6143
0
VERTEX
8
CUT
10
207.2857
20
60.8281
0
VERTEX
8
CUT
10
207.2192
20
61.0368
0
VERTEX
8
CUT
10
207.1557
20
61.2098
0
VERTEX
8
CUT
10
207.1486
20
61.2309
0
VERTEX
8
CUT
10
207.1267
20
61.3202
0
VERTEX
8
CUT
10
207.1233
20
61.3422
0
VERTEX
8
CUT
10
206.8080
20
63.7883
0
VERTEX
8
CUT
10
206.7752
20
63.9822
0
VERTEX
8
CUT
10
206.7273
20
64.1730
0
VERTEX
8
CUT
10
205.3638
20
68.8169
0
VERTEX
8
CUT
10
205.3040
20
68.9954
0
VERTEX
8
CUT
10
205.2309
20
69.1689
0
VERTEX
8
CUT
10
203.6894
20
72.4757
0
VERTEX
8
CUT
10
203.6816
20
72.4936
0
VERTEX
8
CUT
10
203.6682
20
72.5317
0
VERTEX
8
CUT
10
203.6586
20
72.5709
0
VERTEX
8
CUT
10
203.6554
20
72.5902
0
VERTEX
8
CUT
10
203.6215
20
72.8302
0
VERTEX
8
CUT
10
203.5766
20
73.0657
0
VERTEX
8
CUT
10
203.5094
20
73.2957
0
VERTEX
8
CUT
10
203.4205
20
73.5182
0
VERTEX
8
CUT
10
203.3107
20
73.7312
0
VERTEX
8
CUT
10
203.1809
20
73.9327
0
VERTEX
8
CUT
10
202.5079
20
74.8757
0
VERTEX
8
CUT
10
202.4970
20
74.8917
0
VERTEX
8
CUT
10
202.4572
20
74.9609
0
VERTEX
8
CUT
10
202.4488
20
74.9783
0
VERTEX
8
CUT
10
201.0480
20
78.0681
0
VERTEX
8
CUT
10
201.0402
20
78.0866
0
VERTEX
8
CUT
10
201.0270
20
78.1259
0
VERTEX
8
CUT
10
201.0220
20
78.1669
0
VERTEX
8
CUT
10
201.0211
20
78.1870
0
VERTEX
8
CUT
10
200.9713
20
80.7433
0
VERTEX
8
CUT
10
200.9714
20
80.7621
0
VERTEX
8
CUT
10
200.9743
20
80.8008
0
VERTEX
8
CUT
10
200.9809
20
80.8391
0
VERTEX
8
CUT
10
200.9854
20
80.8574
0
VERTEX
8
CUT
10
201.0125
20
80.9572
0
VERTEX
8
CUT
10
201.0651
20
81.1971
0
VERTEX
8
CUT
10
201.0939
20
81.4410
0
VERTEX
8
CUT
10
201.0986
20
81.6866
0
VERTEX
8
CUT
10
201.0792
20
81.9315
0
VERTEX
8
CUT
10
201.0359
20
82.1732
0
VERTEX
8
CUT
10
201.0093
20
82.2673
0
VERTEX
8
CUT
10
200.9835
20
82.3789
0
VERTEX
8
CUT
10
200.9805
20
82.3980
0
VERTEX
8
CUT
10
200.6758
20
84.7347
0
VERTEX
8
CUT
10
200.6350
20
84.9639
0
VERTEX
8
CUT
10
200.5730
20
85.1882
0
VERTEX
8
CUT
10
200.4905
20
85.4059
0
VERTEX
8
CUT
10
199.5500
20
87.5752
0
VERTEX
8
CUT
10
199.5429
20
87.5928
0
VERTEX
8
CUT
10
199.5308
20
87.6301
0
VERTEX
8
CUT
10
199.5261
20
87.6690
0
VERTEX
8
CUT
10
199.5251
20
87.6880
0
VERTEX
8
CUT
10
199.4768
20
89.6221
0
VERTEX
8
CUT
10
199.4601
20
89.8548
0
VERTEX
8
CUT
10
199.4218
20
90.0849
0
VERTEX
8
CUT
10
199.3622
20
90.3104
0
VERTEX
8
CUT
10
199.2215
20
90.7572
0
VERTEX
8
CUT
10
199.2166
20
90.7741
0
VERTEX
8
CUT
10
199.2088
20
90.8095
0
VERTEX
8
CUT
10
199.2074
20
90.8454
0
VERTEX
8
CUT
10
199.2079
20
90.8631
0
VERTEX
8
CUT
10
199.2600
20
91.9253
0
VERTEX
8
CUT
10
199.2613
20
91.9434
0
VERTEX
8
CUT
10
199.2666
20
91.9807
0
VERTEX
8
CUT
10
199.2754
20
92.0176
0
VERTEX
8
CUT
10
199.2806
20
92.0344
0
VERTEX
8
CUT
10
199.8417
20
93.7045
0
VERTEX
8
CUT
10
199.8709
20
93.7825
0
VERTEX
8
CUT
10
199.9053
20
93.8583
0
VERTEX
8
CUT
10
201.0037
20
96.0735
0
VERTEX
8
CUT
10
201.0337
20
96.1303
0
VERTEX
8
CUT
10
201.0667
20
96.1855
0
VERTEX
8
CUT
10
203.1745
20
99.5076
0
VERTEX
8
CUT
10
203.3417
20
99.8176
0
VERTEX
8
CUT
10
203.3535
20
99.8436
0
VERTEX
8
CUT
10
203.4427
20
100.0697
0
VERTEX
8
CUT
10
203.5095
20
100.3033
0
VERTEX
8
CUT
10
203.5533
20
100.5423
0
VERTEX
8
CUT
10
203.5737
20
100.7844
0
VERTEX
8
CUT
10
203.5705
20
101.0274
0
VERTEX
8
CUT
10
203.5437
20
101.2689
0
VERTEX
8
CUT
10
203.4936
20
101.5067
0
VERTEX
8
CUT
10
203.4207
20
101.7385
0
VERTEX
8
CUT
10
203.3256
20
101.9621
0
VERTEX
8
CUT
10
203.2092
20
102.1754
0
VERTEX
8
CUT
10
203.0727
20
102.3764
0
VERTEX
8
CUT
10
202.9173
20
102.5633
0
VERTEX
8
CUT
10
202.7445
20
102.7341
0
VERTEX
8
CUT
10
201.3302
20
104.0026
0
VERTEX
8
CUT
10
201.1392
20
104.1576
0
VERTEX
8
CUT
10
200.9338
20
104.2932
0
VERTEX
8
CUT
10
200.7161
20
104.4079
0
VERTEX
8
CUT
10
200.4882
20
104.5007
0
VERTEX
8
CUT
10
200.2523
20
104.5705
0
VERTEX
8
CUT
10
200.0106
20
104.6169
0
VERTEX
8
CUT
10
199.7656
20
104.6393
0
VERTEX
8
CUT
10
199.5195
20
104.6375
0
VERTEX
8
CUT
10
199.2748
20
104.6115
0
VERTEX
8
CUT
10
199.0338
20
104.5615
0
VERTEX
8
CUT
10
198.7990
20
104.4881
0
VERTEX
8
CUT
10
197.2879
20
103.9330
0
VERTEX
8
CUT
10
197.2148
20
103.9088
0
VERTEX
8
CUT
10
197.1404
20
103.8892
0
VERTEX
8
CUT
10
193.3649
20
103.0202
0
VERTEX
8
CUT
10
193.3480
20
103.0167
0
VERTEX
8
CUT
10
193.2775
20
103.0068
0
VERTEX
8
CUT
10
193.2603
20
103.0055
0
VERTEX
8
CUT
10
192.6766
20
102.9744
0
VERTEX
8
CUT
10
192.3949
20
102.9434
0
VERTEX
8
CUT
10
192.1184
20
102.8806
0
VERTEX
8
CUT
10
190.6472
20
102.4575
0
VERTEX
8
CUT
10
190.3922
20
102.3690
0
VERTEX
8
CUT
10
190.1482
20
102.2535
0
VERTEX
8
CUT
10
189.9180
20
102.1123
0
VERTEX
8
CUT
10
187.6489
20
100.5461
0
VERTEX
8
CUT
10
187.4684
20
100.4090
0
VERTEX
8
CUT
10
187.3010
20
100.2561
0
VERTEX
8
CUT
10
186.2339
20
99.1887
0
VERTEX
8
CUT
10
186.0959
20
99.0389
0
VERTEX
8
CUT
10
185.9706
20
98.8783
0
VERTEX
8
CUT
10
185.5144
20
98.2423
0
VERTEX
8
CUT
10
185.3991
20
98.0665
0
VERTEX
8
CUT
10
185.2990
20
97.8816
0
VERTEX
8
CUT
10
185.2149
20
97.6889
0
VERTEX
8
CUT
10
184.8985
20
96.8729
0
VERTEX
8
CUT
10
184.8235
20
96.6485
0
VERTEX
8
CUT
10
184.7700
20
96.4180
0
VERTEX
8
CUT
10
184.7386
20
96.1835
0
VERTEX
8
CUT
10
184.7295
20
95.9471
0
VERTEX
8
CUT
10
184.7436
20
94.3466
0
VERTEX
8
CUT
10
184.7561
20
94.1172
0
VERTEX
8
CUT
10
184.7897
20
93.8899
0
VERTEX
8
CUT
10
184.8440
20
93.6667
0
VERTEX
8
CUT
10
184.9186
20
93.4494
0
VERTEX
8
CUT
10
185.0127
20
93.2399
0
VERTEX
8
CUT
10
185.7643
20
91.7546
0
VERTEX
8
CUT
10
185.9158
20
91.4952
0
VERTEX
8
CUT
10
186.0973
20
91.2558
0
VERTEX
8
CUT
10
188.6618
20
88.2656
0
VERTEX
8
CUT
10
188.6756
20
88.2485
0
VERTEX
8
CUT
10
188.7013
20
88.2108
0
VERTEX
8
CUT
10
188.7225
20
88.1705
0
VERTEX
8
CUT
10
188.7312
20
88.1503
0
VERTEX
8
CUT
10
189.3230
20
86.6455
0
VERTEX
8
CUT
10
189.3298
20
86.6267
0
VERTEX
8
CUT
10
189.3409
20
86.5871
0
VERTEX
8
CUT
10
189.3439
20
86.5460
0
VERTEX
8
CUT
10
189.3438
20
86.5260
0
VERTEX
8
CUT
10
189.2946
20
84.8520
0
VERTEX
8
CUT
10
189.2937
20
84.8343
0
VERTEX
8
CUT
10
189.2894
20
84.7979
0
VERTEX
8
CUT
10
189.2754
20
84.7639
0
VERTEX
8
CUT
10
189.2678
20
84.7484
0
VERTEX
8
CUT
10
188.7035
20
83.6594
0
VERTEX
8
CUT
10
188.6944
20
83.6427
0
VERTEX
8
CUT
10
188.6732
20
83.6098
0
VERTEX
8
CUT
10
188.6489
20
83.5791
0
VERTEX
8
CUT
10
188.6361
20
83.5651
0
VERTEX
8
CUT
10
187.6772
20
82.5658
0
VERTEX
8
CUT
10
187.6635
20
82.5523
0
VERTEX
8
CUT
10
187.6333
20
82.5264
0
VERTEX
8
CUT
10
187.6008
20
82.5035
0
VERTEX
8
CUT
10
187.5842
20
82.4936
0
VERTEX
8
CUT
10
186.2530
20
81.7407
0
VERTEX
8
CUT
10
186.2346
20
81.7310
0
VERTEX
8
CUT
10
186.1555
20
81.6966
0
VERTEX
8
CUT
10
186.1358
20
81.6898
0
VERTEX
8
CUT
10
185.2248
20
81.4030
0
VERTEX
8
CUT
10
185.2063
20
81.3976
0
VERTEX
8
CUT
10
185.1674
20
81.3894
0
VERTEX
8
CUT
10
185.1278
20
81.3850
0
VERTEX
8
CUT
10
185.1086
20
81.3843
0
VERTEX
8
CUT
10
179.3456
20
81.3051
0
VERTEX
8
CUT
10
179.1394
20
81.2938
0
VERTEX
8
CUT
10
178.9349
20
81.2655
0
VERTEX
8
CUT
10
178.7335
20
81.2204
0
VERTEX
8
CUT
10
177.0940
20
80.7816
0
VERTEX
8
CUT
10
176.8505
20
80.7028
0
VERTEX
8
CUT
10
176.6163
20
80.5996
0
VERTEX
8
CUT
10
174.7018
20
79.6357
0
VERTEX
8
CUT
10
174.5076
20
79.5269
0
VERTEX
8
CUT
10
174.3238
20
79.4011
0
VERTEX
8
CUT
10
172.7550
20
78.2219
0
VERTEX
8
CUT
10
172.7354
20
78.2081
0
VERTEX
8
CUT
10
172.6497
20
78.1585
0
VERTEX
8
CUT
10
172.6280
20
78.1485
0
SEQEND
0
POLYLINE
8
CUT
66
1
70
1
10
0.0
20
0.0
30
0.0
0
VERTEX
8
CUT
10
146.6172
20
114.4412
0
VERTEX
8
CUT
10
146.4053
20
114.3218
0
VERTEX
8
CUT
10
146.2061
20
114.1823
0
VERTEX
8
CUT
10
146.0214
20
114.0242
0
VERTEX
8
CUT
10
145.8529
20
113.8488
0
VERTEX
8
CUT
10
145.7022
20
113.6579
0
VERTEX
8
CUT
10
145.5708
20
113.4533
0
VERTEX
8
CUT
10
145.4599
20
113.2369
0
VERTEX
8
CUT
10
145.3706
20
113.0107
0
VERTEX
8
CUT
10
145.3036
20
112.7769
0
VERTEX
8
CUT
10
145.2597
20
112.5377
0
VERTEX
8
CUT
10
145.2392
20
112.2954
0
VERTEX
8
CUT
10
145.2424
20
112.0522
0
VERTEX
8
CUT
10
145.2692
20
111.8105
0
VERTEX
8
CUT
10
145.3194
20
111.5725
0
VERTEX
8
CUT
10
145.3924
20
111.3406
0
VERTEX
8
CUT
10
145.4876
20
111.1168
0
VERTEX
8
CUT
10
145.6041
20
110.9033
0
VERTEX
8
CUT
10
145.7408
20
110.7022
0
VERTEX
8
CUT
10
145.8964
20
110.5153
0
VERTEX
8
CUT
10
146.0694
20
110.3444
0
VERTEX
8
CUT
10
146.2582
20
110.1911
0
VERTEX
8
CUT
10
146.4610
20
110.0569
0
VERTEX
8
CUT
10
146.6759
20
109.9431
0
VERTEX
8
CUT
10
146.9009
20
109.8506
0
VERTEX
8
CUT
10
147.1337
20
109.7804
0
VERTEX
8
CUT
10
147.3723
20
109.7332
0
VERTEX
8
CUT
10
147.6143
20
109.7094
0
VERTEX
8
CUT
10
147.8575
20
109.7093
0
VERTEX
8
CUT
10
148.0995
20
109.7327
0
VERTEX
8
CUT
10
148.3382
20
109.7796
0
VERTEX
8
CUT
10
148.5711
20
109.8494
0
VERTEX
8
CUT
10
150.1981
20
110.4247
0
VERTEX
8
CUT
10
150.4812
20
110.5449
0
VERTEX
8
CUT
10
158.5724
20
114.5836
0
VERTEX
8
CUT
10
158.7851
20
114.7031
0
VERTEX
8
CUT
10
158.9851
20
114.8427
0
VERTEX
8
CUT
10
159.1706
20
115.0011
0
VERTEX
8
CUT
10
159.3397
20
115.1769
0
VERTEX
8
CUT
10
159.4909
20
115.3683
0
VERTEX
8
CUT
10
159.6227
20
115.5736
0
VERTEX
8
CUT
10
159.7339
20
115.7907
0
VERTEX
8
CUT
10
159.8234
20
116.0176
0
VERTEX
8
CUT
10
159.8904
20
116.2521
0
VERTEX
8
CUT
10
159.9342
20
116.4921
0
VERTEX
8
CUT
10
159.9544
20
116.7352
0
VERTEX
8
CUT
10
159.9508
20
116.9791
0
VERTEX
8
CUT
10
159.9235
20
117.2215
0
VERTEX
8
CUT
10
159.8727
20
117.4601
0
VERTEX
8
CUT
10
159.7988
20
117.6926
0
VERTEX
8
CUT
10
159.7027
20
117.9168
0
VERTEX
8
CUT
10
159.5851
20
118.1305
0
VERTEX
8
CUT
10
159.4473
20
118.3318
0
VERTEX
8
CUT
10
159.2905
20
118.5187
0
VERTEX
8
CUT
10
159.1163
20
118.6894
0
VERTEX
8
CUT
10
158.9263
20
118.8423
0
VERTEX
8
CUT
10
158.7222
20
118.9760
0
VERTEX
8
CUT
10
158.5061
20
119.0891
0
VERTEX
8
CUT
10
156.4933
20
120.0209
0
VERTEX
8
CUT
10
156.4739
20
120.0305
0
VERTEX
8
CUT
10
156.3974
20
120.0767
0
VERTEX
8
CUT
10
156.3799
20
120.0893
0
VERTEX
8
CUT
10
153.8320
20
122.0303
0
VERTEX
8
CUT
10
153.8278
20
122.0335
0
VERTEX
8
CUT
10
153.7698
20
122.0850
0
VERTEX
8
CUT
10
153.7568
20
122.0980
0
VERTEX
8
CUT
10
152.6052
20
123.3050
0
VERTEX
8
CUT
10
152.4279
20
123.4735
0
VERTEX
8
CUT
10
152.2350
20
123.6238
0
VERTEX
8
CUT
10
152.0283
20
123.7546
0
VERTEX
8
CUT
10
151.8099
20
123.8645
0
VERTEX
8
CUT
10
151.5818
20
123.9526
0
VERTEX
8
CUT
10
151.3461
20
124.0180
0
VERTEX
8
CUT
10
151.1052
20
124.0601
0
VERTEX
8
CUT
10
150.8613
20
124.0784
0
VERTEX
8
CUT
10
150.6168
20
124.0727
0
VERTEX
8
CUT
10
150.3740
20
124.0433
0
VERTEX
8
CUT
10
150.1353
20
123.9902
0
VERTEX
8
CUT
10
149.9029
20
123.9141
0
VERTEX
8
CUT
10
149.6790
20
123.8156
0
VERTEX
8
CUT
10
149.4659
20
123.6957
0
VERTEX
8
CUT
10
149.2655
20
123.5556
0
VERTEX
8
CUT
10
149.0797
20
123.3966
0
VERTEX
8
CUT
10
148.9103
20
123.2201
0
VERTEX
8
CUT
10
148.7590
20
123.0280
0
VERTEX
8
CUT
10
148.6272
20
122.8220
0
VERTEX
8
CUT
10
148.5162
20
122.6041
0
VERTEX
8
CUT
10
148.4269
20
122.3764
0
VERTEX
8
CUT
10
148.3604
20
122.1411
0
VERTEX
8
CUT
10
148.3171
20
121.9004
0
VERTEX
8
CUT
10
148.2976
20
121.6566
0
VERTEX
8
CUT
10
148.3020
20
121.4121
0
VERTEX
8
CUT
10
148.3303
20
121.1692
0
VERTEX
8
CUT
10
148.3821
20
120.9302
0
VERTEX
8
CUT
10
148.9597
20
118.7816
0
VERTEX
8
CUT
10
148.9640
20
118.7640
0
VERTEX
8
CUT
10
148.9704
20
118.7269
0
VERTEX
8
CUT
10
148.9734
20
118.6892
0
VERTEX
8
CUT
10
148.9736
20
118.6716
0
VERTEX
8
CUT
10
148.9446
20
116.2441
0
VERTEX
8
CUT
10
148.9439
20
116.2251
0
VERTEX
8
CUT
10
148.9397
20
116.1863
0
VERTEX
8
CUT
10
148.9179
20
116.1540
0
VERTEX
8
CUT
10
148.9061
20
116.1390
0
VERTEX
8
CUT
10
148.5856
20
115.7504
0
VERTEX
8
CUT
10
148.5728
20
115.7357
0
VERTEX
8
CUT
10
148.5443
20
115.7072
0
VERTEX
8
CUT
10
148.5130
20
115.6817
0
VERTEX
8
CUT
10
148.4970
20
115.6705
0
VERTEX
8
CUT
10
146.7883
20
114.5371
0
VERTEX
8
CUT
10
146.7255
20
114.4980
0
VERTEX
8
CUT
10
146.6603
20
114.4629
0
SEQEND
0
POLYLINE
8
CUT
66
1
70
1
10
0.0
20
0.0
30
0.0
0
VERTEX
8
CUT
10
113.2275
20
127.4279
0
VERTEX
8
CUT
10
113.2478
20
127.3805
0
VERTEX
8
CUT
10
114.4979
20
124.2651
0
VERTEX
8
CUT
10
114.5803
20
124.0815
0
VERTEX
8
CUT
10
116.5182
20
120.1907
0
VERTEX
8
CUT
10
116.6342
20
119.9832
0
VERTEX
8
CUT
10
118.8207
20
116.4741
0
VERTEX
8
CUT
10
119.0109
20
116.2091
0
VERTEX
8
CUT
10
120.3738
20
114.5504
0
VERTEX
8
CUT
10
120.5606
20
114.3472
0
VERTEX
8
CUT
10
122.2876
20
112.6641
0
VERTEX
8
CUT
10
122.4324
20
112.5336
0
VERTEX
8
CUT
10
122.5870
20
112.4148
0
VERTEX
8
CUT
10
125.1762
20
110.5800
0
VERTEX
8
CUT
10
125.3354
20
110.4760
0
VERTEX
8
CUT
10
125.5021
20
110.3845
0
VERTEX
8
CUT
10
128.0704
20
109.0981
0
VERTEX
8
CUT
10
128.2842
20
109.0032
0
VERTEX
8
CUT
10
128.5060
20
108.9288
0
VERTEX
8
CUT
10
132.0880
20
107.9099
0
VERTEX
8
CUT
10
132.3862
20
107.8444
0
VERTEX
8
CUT
10
132.6901
20
107.8158
0
VERTEX
8
CUT
10
134.0895
20
107.7700
0
VERTEX
8
CUT
10
134.1093
20
107.7688
0
VERTEX
8
CUT
10
134.1498
20
107.7634
0
VERTEX
8
CUT
10
134.1896
20
107.7540
0
VERTEX
8
CUT
10
134.2085
20
107.7480
0
VERTEX
8
CUT
10
134.4622
20
107.6604
0
VERTEX
8
CUT
10
134.7265
20
107.5851
0
VERTEX
8
CUT
10
134.9976
20
107.5393
0
VERTEX
8
CUT
10
135.2720
20
107.5235
0
VERTEX
8
CUT
10
136.4275
20
107.5207
0
VERTEX
8
CUT
10
136.6736
20
107.5323
0
VERTEX
8
CUT
10
136.9174
20
107.5680
0
VERTEX
8
CUT
10
137.1565
20
107.6275
0
VERTEX
8
CUT
10
137.3885
20
107.7103
0
VERTEX
8
CUT
10
137.6113
20
107.8155
0
VERTEX
8
CUT
10
137.8226
20
107.9421
0
VERTEX
8
CUT
10
138.0205
20
108.0889
0
VERTEX
8
CUT
10
138.2029
20
108.2545
0
VERTEX
8
CUT
10
138.3682
20
108.4372
0
VERTEX
8
CUT
10
138.5147
20
108.6354
0
VERTEX
8
CUT
10
138.6409
20
108.8469
0
VERTEX
8
CUT
10
138.7457
20
109.0699
0
VERTEX
8
CUT
10
138.8281
20
109.3021
0
VERTEX
8
CUT
10
138.8872
20
109.5413
0
VERTEX
8
CUT
10
138.9225
20
109.7851
0
VERTEX
8
CUT
10
138.9336
20
110.0312
0
VERTEX
8
CUT
10
138.9204
20
110.2772
0
VERTEX
8
CUT
10
138.8831
20
110.5208
0
VERTEX
8
CUT
10
138.8220
20
110.7594
0
VERTEX
8
CUT
10
138.7377
20
110.9909
0
VERTEX
8
CUT
10
138.6310
20
111.2130
0
VERTEX
8
CUT
10
138.5029
20
111.4235
0
VERTEX
8
CUT
10
138.3548
20
111.6204
0
VERTEX
8
CUT
10
138.1880
20
111.8017
0
VERTEX
8
CUT
10
138.0042
20
111.9658
0
VERTEX
8
CUT
10
137.8051
20
112.1109
0
VERTEX
8
CUT
10
137.7757
20
112.1302
0
VERTEX
8
CUT
10
137.7608
20
112.1416
0
VERTEX
8
CUT
10
137.4003
20
112.4309
0
VERTEX
8
CUT
10
137.3854
20
112.4435
0
VERTEX
8
CUT
10
137.3569
20
112.4715
0
VERTEX
8
CUT
10
137.3413
20
112.5084
0
VERTEX
8
CUT
10
137.3351
20
112.5269
0
VERTEX
8
CUT
10
137.1886
20
112.9998
0
VERTEX
8
CUT
10
137.1836
20
113.0175
0
VERTEX
8
CUT
10
137.1759
20
113.0543
0
VERTEX
8
CUT
10
137.1855
20
113.0907
0
VERTEX
8
CUT
10
137.1915
20
113.1081
0
VERTEX
8
CUT
10
138.1660
20
115.7526
0
VERTEX
8
CUT
10
138.2327
20
115.9613
0
VERTEX
8
CUT
10
138.2809
20
116.1751
0
VERTEX
8
CUT
10
138.3101
20
116.3922
0
VERTEX
8
CUT
10
138.3202
20
116.6111
0
VERTEX
8
CUT
10
138.3283
20
119.9808
0
VERTEX
8
CUT
10
138.3192
20
120.1993
0
VERTEX
8
CUT
10
138.2911
20
120.4162
0
VERTEX
8
CUT
10
138.0624
20
121.7277
0
VERTEX
8
CUT
10
138.0236
20
121.9097
0
VERTEX
8
CUT
10
137.9714
20
122.0884
0
VERTEX
8
CUT
10
137.4731
20
123.5839
0
VERTEX
8
CUT
10
137.3336
20
123.9192
0
VERTEX
8
CUT
10
136.6366
20
125.3014
0
VERTEX
8
CUT
10
136.5373
20
125.4798
0
VERTEX
8
CUT
10
136.4237
20
125.6496
0
VERTEX
8
CUT
10
135.8350
20
126.4562
0
VERTEX
8
CUT
10
135.7038
20
126.6209
0
VERTEX
8
CUT
10
135.5592
20
126.7740
0
VERTEX
8
CUT
10
134.5022
20
127.8026
0
VERTEX
8
CUT
10
134.2945
20
127.9836
0
VERTEX
8
CUT
10
134.0681
20
128.1406
0
VERTEX
8
CUT
10
133.8258
20
128.2718
0
VERTEX
8
CUT
10
132.7862
20
128.7624
0
VERTEX
8
CUT
10
132.5779
20
128.8495
0
VERTEX
8
CUT
10
132.3625
20
128.9174
0
VERTEX
8
CUT
10
132.1418
20
128.9656
0
VERTEX
8
CUT
10
131.9177
20
128.9937
0
VERTEX
8
CUT
10
131.6920
20
129.0015
0
VERTEX
8
CUT
10
131.2156
20
128.9963
0
VERTEX
8
CUT
10
130.9923
20
128.9838
0
VERTEX
8
CUT
10
130.7709
20
128.9515
0
VERTEX
8
CUT
10
130.5534
20
128.8995
0
VERTEX
8
CUT
10
130.3414
20
128.8283
0
VERTEX
8
CUT
10
130.1366
20
128.7384
0
VERTEX
8
CUT
10
129.6135
20
128.4803
0
VERTEX
8
CUT
10
129.4334
20
128.3820
0
VERTEX
8
CUT
10
129.2619
20
128.2693
0
VERTEX
8
CUT
10
128.5370
20
127.7489
0
VERTEX
8
CUT
10
128.3707
20
127.6186
0
VERTEX
8
CUT
10
128.2161
20
127.4747
0
VERTEX
8
CUT
10
127.1773
20
126.4230
0
VERTEX
8
CUT
10
126.9888
20
126.2090
0
VERTEX
8
CUT
10
126.8259
20
125.9750
0
VERTEX
8
CUT
10
126.6908
20
125.7239
0
VERTEX
8
CUT
10
125.2216
20
122.5774
0
VERTEX
8
CUT
10
125.2117
20
122.5575
0
VERTEX
8
CUT
10
125.1877
20
122.5184
0
VERTEX
8
CUT
10
125.1596
20
122.4822
0
VERTEX
8
CUT
10
125.1445
20
122.4659
0
VERTEX
8
CUT
10
124.3379
20
121.6399
0
VERTEX
8
CUT
10
124.3235
20
121.6258
0
VERTEX
8
CUT
10
124.2917
20
121.5992
0
VERTEX
8
CUT
10
124.2573
20
121.5760
0
VERTEX
8
CUT
10
124.2398
20
121.5660
0
VERTEX
8
CUT
10
123.4571
20
121.1454
0
VERTEX
8
CUT
10
123.4406
20
121.1371
0
VERTEX
8
CUT
10
123.4058
20
121.1224
0
VERTEX
8
CUT
10
123.3685
20
121.1287
0
VERTEX
8
CUT
10
123.3506
20
121.1330
0
VERTEX
8
CUT
10
122.7573
20
121.2906
0
VERTEX
8
CUT
10
122.7374
20
121.2965
0
VERTEX
8
CUT
10
122.6974
20
121.3118
0
VERTEX
8
CUT
10
122.6642
20
121.3388
0
VERTEX
8
CUT
10
122.6491
20
121.3532
0
VERTEX
8
CUT
10
121.8339
20
122.1729
0
VERTEX
8
CUT
10
121.8222
20
122.1852
0
VERTEX
8
CUT
10
121.7995
20
122.2122
0
VERTEX
8
CUT
10
121.7793
20
122.2412
0
VERTEX
8
CUT
10
121.7707
20
122.2553
0
VERTEX
8
CUT
10
120.6057
20
124.2627
0
VERTEX
8
CUT
10
120.5964
20
124.2796
0
VERTEX
8
CUT
10
120.5799
20
124.3158
0
VERTEX
8
CUT
10
120.5669
20
124.3535
0
VERTEX
8
CUT
10
120.5620
20
124.3721
0
VERTEX
8
CUT
10
120.2431
20
125.7085
0
VERTEX
8
CUT
10
120.2385
20
125.7305
0
VERTEX
8
CUT
10
120.2273
20
125.8227
0
VERTEX
8
CUT
10
120.2265
20
125.8451
0
VERTEX
8
CUT
10
120.2139
20
127.3931
0
VERTEX
8
CUT
10
120.2143
20
127.4139
0
VERTEX
8
CUT
10
120.2184
20
127.4566
0
VERTEX
8
CUT
10
120.2271
20
127.4987
0
VERTEX
8
CUT
10
120.2328
20
127.5187
0
VERTEX
8
CUT
10
120.5601
20
128.5517
0
VERTEX
8
CUT
10
120.5661
20
128.5690
0
VERTEX
8
CUT
10
120.5809
20
128.6041
0
VERTEX
8
CUT
10
120.5989
20
128.6378
0
VERTEX
8
CUT
10
120.6084
20
128.6528
0
VERTEX
8
CUT
10
121.0123
20
129.2633
0
VERTEX
8
CUT
10
121.1379
20
129.4751
0
VERTEX
8
CUT
10
121.2420
20
129.6981
0
VERTEX
8
CUT
10
121.3237
20
129.9303
0
VERTEX
8
CUT
10
121.3821
20
130.1695
0
VERTEX
8
CUT
10
121.4167
20
130.4132
0
VERTEX
8
CUT
10
121.4272
20
130.6592
0
VERTEX
8
CUT
10
121.4135
20
130.9049
0
VERTEX
8
CUT
10
121.3757
20
131.1482
0
VERTEX
8
CUT
10
121.3141
20
131.3865
0
VERTEX
8
CUT
10
121.2294
20
131.6177
0
VERTEX
8
CUT
10
121.1223
20
131.8393
0
VERTEX
8
CUT
10
120.9940
20
132.0494
0
VERTEX
8
CUT
10
120.8456
20
132.2459
0
VERTEX
8
CUT
10
120.6786
20
132.4267
0
VERTEX
8
CUT
10
120.4947
20
132.5903
0
VERTEX
8
CUT
10
120.2955
20
132.7350
0
VERTEX
8
CUT
10
120.0831
20
132.8595
0
VERTEX
8
CUT
10
119.8595
20
132.9624
0
VERTEX
8
CUT
10
119.6269
20
133.0428
0
VERTEX
8
CUT
10
119.3874
20
133.1000
0
VERTEX
8
CUT
10
119.1435
20
133.1333
0
VERTEX
8
CUT
10
118.8975
20
133.1425
0
VERTEX
8
CUT
10
116.8812
20
133.1185
0
VERTEX
8
CUT
10
116.8761
20
133.1185
0
VERTEX
8
CUT
10
116.8005
20
133.1231
0
VERTEX
8
CUT
10
116.7828
20
133.1253
0
VERTEX
8
CUT
10
114.6039
20
133.4369
0
VERTEX
8
CUT
10
114.3575
20
133.4598
0
VERTEX
8
CUT
10
114.1100
20
133.4582
0
VERTEX
8
CUT
10
113.8639
20
133.4322
0
VERTEX
8
CUT
10
113.6216
20
133.3819
0
VERTEX
8
CUT
10
113.3854
20
133.3079
0
VERTEX
8
CUT
10
113.1577
20
133.2109
0
VERTEX
8
CUT
10
112.9407
20
133.0919
0
VERTEX
8
CUT
10
112.7366
20
132.9520
0
VERTEX
8
CUT
10
112.5472
20
132.7927
0
VERTEX
8
CUT
10
112.3746
20
132.6153
0
VERTEX
8
CUT
10
112.2203
20
132.4218
0
VERTEX
8
CUT
10
112.0859
20
132.2140
0
VERTEX
8
CUT
10
111.9728
20
131.9939
0
VERTEX
8
CUT
10
111.8819
20
131.7637
0
VERTEX
8
CUT
10
111.8142
20
131.5256
0
VERTEX
8
CUT
10
111.7705
20
131.2820
0
VERTEX
8
CUT
10
111.7510
20
131.0353
0
VERTEX
8
CUT
10
111.7560
20
130.7879
0
VERTEX
8
CUT
10
111.7854
20
130.5421
0
VERTEX
8
CUT
10
111.8391
20
130.3005
0
VERTEX
8
CUT
10
111.9163
20
130.0654
0
VERTEX
8
CUT
10
112.0164
20
129.8391
0
VERTEX
8
CUT
10
113.2053
20
127.4745
0
SEQEND
0
POLYLINE
8
CUT
66
1
70
1
10
0.0
20
0.0
30
0.0
0
VERTEX
8
CUT
10
75.6402
20
148.1448
0
VERTEX
8
CUT
10
75.5059
20
147.9347
0
VERTEX
8
CUT
10
75.3931
20
147.7123
0
VERTEX
8
CUT
10
75.3030
20
147.4797
0
VERTEX
8
CUT
10
75.2366
20
147.2393
0
VERTEX
8
CUT
10
75.1945
20
146.9935
0
VERTEX
8
CUT
10
75.1770
20
146.7447
0
VERTEX
8
CUT
10
75.1845
20
146.4954
0
VERTEX
8
CUT
10
75.2167
20
146.2481
0
VERTEX
8
CUT
10
75.2734
20
146.0053
0
VERTEX
8
CUT
10
75.3540
20
145.7693
0
VERTEX
8
CUT
10
75.4578
20
145.5425
0
VERTEX
8
CUT
10
75.5836
20
145.3271
0
VERTEX
8
CUT
10
75.7303
20
145.1254
0
VERTEX
8
CUT
10
75.8963
20
144.9393
0
VERTEX
8
CUT
10
76.0800
20
144.7707
0
VERTEX
8
CUT
10
76.2796
20
144.6212
0
VERTEX
8
CUT
10
76.4932
20
144.4923
0
VERTEX
8
CUT
10
76.7185
20
144.3854
0
VERTEX
8
CUT
10
76.9533
20
144.3014
0
VERTEX
8
CUT
10
77.1953
20
144.2412
0
VERTEX
8
CUT
10
77.4422
20
144.2055
0
VERTEX
8
CUT
10
77.6913
20
144.1945
0
VERTEX
8
CUT
10
77.9403
20
144.2084
0
VERTEX
8
CUT
10
78.1867
20
144.2471
0
VERTEX
8
CUT
10
78.4280
20
144.3101
0
VERTEX
8
CUT
10
78.4322
20
144.3114
0
VERTEX
8
CUT
10
78.5101
20
144.3332
0
VERTEX
8
CUT
10
80.8297
20
144.9024
0
VERTEX
8
CUT
10
80.8504
20
144.9069
0
VERTEX
8
CUT
10
80.9370
20
144.9186
0
VERTEX
8
CUT
10
80.9582
20
144.9198
0
VERTEX
8
CUT
10
82.3704
20
144.9591
0
VERTEX
8
CUT
10
82.6138
20
144.9778
0
VERTEX
8
CUT
10
82.8543
20
145.0202
0
VERTEX
8
CUT
10
83.6638
20
145.2039
0
VERTEX
8
CUT
10
83.6849
20
145.2081
0
VERTEX
8
CUT
10
83.7733
20
145.2183
0
VERTEX
8
CUT
10
83.7948
20
145.2191
0
VERTEX
8
CUT
10
90.3556
20
145.2630
0
VERTEX
8
CUT
10
90.6008
20
145.2767
0
VERTEX
8
CUT
10
90.8436
20
145.3144
0
VERTEX
8
CUT
10
91.0814
20
145.3758
0
VERTEX
8
CUT
10
91.3121
20
145.4602
0
VERTEX
8
CUT
10
91.5334
20
145.5668
0
VERTEX
8
CUT
10
91.7432
20
145.6947
0
VERTEX
8
CUT
10
91.9394
20
145.8425
0
VERTEX
8
CUT
10
92.1201
20
146.0088
0
VERTEX
8
CUT
10
92.2837
20
146.1921
0
VERTEX
8
CUT
10
92.4285
20
146.3906
0
VERTEX
8
CUT
10
92.5531
20
146.6023
0
VERTEX
8
CUT
10
92.6563
20
146.8252
0
VERTEX
8
CUT
10
92.7371
20
147.0572
0
VERTEX
8
CUT
10
92.7948
20
147.2959
0
VERTEX
8
CUT
10
92.8288
20
147.5392
0
VERTEX
8
CUT
10
92.8387
20
147.7847
0
VERTEX
8
CUT
10
92.8245
20
148.0299
0
VERTEX
8
CUT
10
92.7863
20
148.2726
0
VERTEX
8
CUT
10
92.7245
20
148.5103
0
VERTEX
8
CUT
10
92.6396
20
148.7409
0
VERTEX
8
CUT
10
92.5325
20
148.9619
0
VERTEX
8
CUT
10
92.4043
20
149.1714
0
VERTEX
8
CUT
10
92.2561
20
149.3674
0
VERTEX
8
CUT
10
92.0894
20
149.5478
0
VERTEX
8
CUT
10
91.9057
20
149.7110
0
VERTEX
8
CUT
10
91.7085
20
149.8696
0
VERTEX
8
CUT
10
91.4856
20
150.0296
0
VERTEX
8
CUT
10
91.2465
20
150.1642
0
VERTEX
8
CUT
10
90.0635
20
150.7471
0
VERTEX
8
CUT
10
90.0589
20
150.7494
0
VERTEX
8
CUT
10
89.9931
20
150.7881
0
VERTEX
8
CUT
10
89.9782
20
150.7981
0
VERTEX
8
CUT
10
87.9701
20
152.2106
0
VERTEX
8
CUT
10
87.9551
20
152.2217
0
VERTEX
8
CUT
10
87.8965
20
152.2718
0
VERTEX
8
CUT
10
87.8832
20
152.2849
0
VERTEX
8
CUT
10
86.4577
20
153.7543
0
VERTEX
8
CUT
10
86.4416
20
153.7720
0
VERTEX
8
CUT
10
86.3816
20
153.8509
0
VERTEX
8
CUT
10
86.3689
20
153.8712
0
VERTEX
8
CUT
10
85.2034
20
155.8657
0
VERTEX
8
CUT
10
85.0694
20
156.0711
0
VERTEX
8
CUT
10
84.9159
20
156.2625
0
VERTEX
8
CUT
10
84.7444
20
156.4379
0
VERTEX
8
CUT
10
84.5566
20
156.5956
0
VERTEX
8
CUT
10
84.3542
20
156.7341
0
VERTEX
8
CUT
10
84.1392
20
156.8522
0
VERTEX
8
CUT
10
83.9136
20
156.9486
0
VERTEX
8
CUT
10
83.6797
20
157.0224
0
VERTEX
8
CUT
10
83.4397
20
157.0730
0
VERTEX
8
CUT
10
83.1959
20
157.0998
0
VERTEX
8
CUT
10
82.9506
20
157.1026
0
VERTEX
8
CUT
10
82.7063
20
157.0813
0
VERTEX
8
CUT
10
82.4652
20
157.0362
0
VERTEX
8
CUT
10
82.2296
20
156.9677
0
VERTEX
8
CUT
10
82.0020
20
156.8764
0
VERTEX
8
CUT
10
81.7843
20
156.7633
0
VERTEX
8
CUT
10
81.5788
20
156.6294
0
VERTEX
8
CUT
10
81.3874
20
156.4760
0
VERTEX
8
CUT
10
81.2120
20
156.3045
0
VERTEX
8
CUT
10
81.0542
20
156.1167
0
VERTEX
8
CUT
10
80.9156
20
155.9144
0
VERTEX
8
CUT
10
79.2988
20
153.2864
0
VERTEX
8
CUT
10
79.2766
20
153.2516
0
VERTEX
8
CUT
10
79.2533
20
153.2176
0
SEQEND
0
POLYLINE
8
CUT
66
1
70
1
10
0.0
20
0.0
30
0.0
0
VERTEX
8
CUT
10
72.2881
20
108.4256
0
VERTEX
8
CUT
10
72.1163
20
108.1954
0
VERTEX
8
CUT
10
71.9721
20
107.9471
0
VERTEX
8
CUT
10
71.9210
20
107.8462
0
VERTEX
8
CUT
10
71.8225
20
107.6259
0
VERTEX
8
CUT
10
71.7457
20
107.3972
0
VERTEX
8
CUT
10
71.6913
20
107.1621
0
VERTEX
8
CUT
10
71.6598
20
106.9228
0
VERTEX
8
CUT
10
71.6516
20
106.6817
0
VERTEX
8
CUT
10
71.6666
20
106.4408
0
VERTEX
8
CUT
10
71.7048
20
106.2025
0
VERTEX
8
CUT
10
71.7657
20
105.9691
0
VERTEX
8
CUT
10
71.8489
20
105.7425
0
VERTEX
8
CUT
10
71.9536
20
105.5251
0
VERTEX
8
CUT
10
72.0787
20
105.3188
0
VERTEX
8
CUT
10
72.2232
20
105.1254
0
VERTEX
8
CUT
10
72.3856
20
104.9470
0
VERTEX
8
CUT
10
72.5644
20
104.7850
0
VERTEX
8
CUT
10
72.7581
20
104.6410
0
VERTEX
8
CUT
10
72.9647
20
104.5163
0
VERTEX
8
CUT
10
73.1824
20
104.4122
0
VERTEX
8
CUT
10
73.4091
20
104.3295
0
VERTEX
8
CUT
10
73.6427
20
104.2690
0
VERTEX
8
CUT
10
73.8811
20
104.2314
0
VERTEX
8
CUT
10
74.1220
20
104.2169
0
VERTEX
8
CUT
10
74.3631
20
104.2258
0
VERTEX
8
CUT
10
74.5953
20
104.2568
0
VERTEX
8
CUT
10
74.6373
20
104.2605
0
VERTEX
8
CUT
10
74.6559
20
104.2608
0
VERTEX
8
CUT
10
77.1057
20
104.2448
0
VERTEX
8
CUT
10
77.1259
20
104.2441
0
VERTEX
8
CUT
10
77.1674
20
104.2396
0
VERTEX
8
CUT
10
77.2071
20
104.2267
0
VERTEX
8
CUT
10
77.2258
20
104.2190
0
VERTEX
8
CUT
10
77.4183
20
104.1339
0
VERTEX
8
CUT
10
77.6491
20
104.0453
0
VERTEX
8
CUT
10
77.8874
20
103.9799
0
VERTEX
8
CUT
10
78.1310
20
103.9384
0
VERTEX
8
CUT
10
78.3776
20
103.9211
0
VERTEX
8
CUT
10
78.6246
20
103.9282
0
VERTEX
8
CUT
10
78.8698
20
103.9597
0
VERTEX
8
CUT
10
79.1106
20
104.0153
0
VERTEX
8
CUT
10
79.3448
20
104.0944
0
VERTEX
8
CUT
10
79.5700
20
104.1962
0
VERTEX
8
CUT
10
80.2340
20
104.5368
0
VERTEX
8
CUT
10
80.5384
20
104.7214
0
VERTEX
8
CUT
10
83.1207
20
106.5514
0
VERTEX
8
CUT
10
83.2751
20
106.6701
0
VERTEX
8
CUT
10
83.4198
20
106.8004
0
VERTEX
8
CUT
10
85.3420
20
108.6730
0
VERTEX
8
CUT
10
85.4933
20
108.8341
0
VERTEX
8
CUT
10
85.6298
20
109.0079
0
VERTEX
8
CUT
10
86.1125
20
109.6818
0
VERTEX
8
CUT
10
86.2222
20
109.8486
0
VERTEX
8
CUT
10
86.3182
20
110.0236
0
VERTEX
8
CUT
10
87.8327
20
113.0662
0
VERTEX
8
CUT
10
87.9175
20
113.2559
0
VERTEX
8
CUT
10
87.9862
20
113.4520
0
VERTEX
8
CUT
10
88.0384
20
113.6531
0
VERTEX
8
CUT
10
88.5240
20
115.9043
0
VERTEX
8
CUT
10
88.5689
20
116.1941
0
VERTEX
8
CUT
10
88.5796
20
116.4871
0
VERTEX
8
CUT
10
88.5139
20
119.4315
0
VERTEX
8
CUT
10
88.4956
20
119.6832
0
VERTEX
8
CUT
10
88.4519
20
119.9318
0
VERTEX
8
CUT
10
88.3834
20
120.1747
0
VERTEX
8
CUT
10
88.2908
20
120.4095
0
VERTEX
8
CUT
10
88.1750
20
120.6338
0
VERTEX
8
CUT
10
88.0371
20
120.8452
0
VERTEX
8
CUT
10
86.9166
20
122.3876
0
VERTEX
8
CUT
10
86.7372
20
122.6070
0
VERTEX
8
CUT
10
86.5342
20
122.8048
0
VERTEX
8
CUT
10
86.3102
20
122.9783
0
VERTEX
8
CUT
10
84.5256
20
124.2050
0
VERTEX
8
CUT
10
84.3115
20
124.3369
0
VERTEX
8
CUT
10
84.0852
20
124.4465
0
VERTEX
8
CUT
10
83.8491
20
124.5329
0
VERTEX
8
CUT
10
83.6054
20
124.5951
0
VERTEX
8
CUT
10
83.3568
20
124.6325
0
VERTEX
8
CUT
10
83.1056
20
124.6448
0
VERTEX
8
CUT
10
82.8545
20
124.6318
0
VERTEX
8
CUT
10
82.6060
20
124.5936
0
VERTEX
8
CUT
10
82.3625
20
124.5306
0
VERTEX
8
CUT
10
82.1266
20
124.4435
0
VERTEX
8
CUT
10
81.9007
20
124.3332
0
VERTEX
8
CUT
10
81.6870
20
124.2007
0
VERTEX
8
CUT
10
81.4877
20
124.0474
0
VERTEX
8
CUT
10
81.3047
20
123.8748
0
VERTEX
8
CUT
10
80.5559
20
123.0937
0
VERTEX
8
CUT
10
80.3958
20
122.9094
0
VERTEX
8
CUT
10
80.2544
20
122.7104
0
VERTEX
8
CUT
10
80.1331
20
122.4986
0
VERTEX
8
CUT
10
79.5387
20
121.3318
0
VERTEX
8
CUT
10
79.4231
20
121.0684
0
VERTEX
8
CUT
10
79.3385
20
120.7936
0
VERTEX
8
CUT
10
78.6019
20
117.7964
0
VERTEX
8
CUT
10
78.5484
20
117.5054
0
VERTEX
8
CUT
10
78.5297
20
117.2102
0
VERTEX
8
CUT
10
78.5174
20
114.2720
0
VERTEX
8
CUT
10
78.5276
20
114.0356
0
VERTEX
8
CUT
10
78.5601
20
113.8013
0
VERTEX
8
CUT
10
78.6147
20
113.5710
0
VERTEX
8
CUT
10
78.7719
20
113.0239
0
VERTEX
8
CUT
10
78.7768
20
113.0052
0
VERTEX
8
CUT
10
78.7839
20
112.9663
0
VERTEX
8
CUT
10
78.7718
20
112.9286
0
VERTEX
8
CUT
10
78.7646
20
112.9107
0
VERTEX
8
CUT
10
78.3146
20
111.8714
0
VERTEX
8
CUT
10
78.3070
20
111.8548
0
VERTEX
8
CUT
10
78.2889
20
111.8217
0
VERTEX
8
CUT
10
78.2603
20
111.7978
0
VERTEX
8
CUT
10
78.2453
20
111.7869
0
VERTEX
8
CUT
10
77.4295
20
111.2221
0
VERTEX
8
CUT
10
77.4136
20
111.2116
0
VERTEX
8
CUT
10
77.3796
20
111.1927
0
VERTEX
8
CUT
10
77.3422
20
111.2033
0
VERTEX
8
CUT
10
77.3243
20
111.2099
0
VERTEX
8
CUT
10
76.6069
20
111.4917
0
VERTEX
8
CUT
10
76.5237
20
111.5267
0
VERTEX
8
CUT
10
76.5231
20
111.5251
0
VERTEX
8
CUT
10
76.3442
20
111.5953
0
VERTEX
8
CUT
10
76.1105
20
111.6617
0
VERTEX
8
CUT
10
75.8714
20
111.7050
0
VERTEX
8
CUT
10
75.6293
20
111.7250
0
VERTEX
8
CUT
10
75.3864
20
111.7214
0
VERTEX
8
CUT
10
75.1449
20
111.6941
0
VERTEX
8
CUT
10
74.9073
20
111.6436
0
VERTEX
8
CUT
10
74.6757
20
111.5703
0
VERTEX
8
CUT
10
74.4522
20
111.4748
0
VERTEX
8
CUT
10
74.2391
20
111.3581
0
VERTEX
8
CUT
10
74.0384
20
111.2212
0
VERTEX
8
CUT
10
73.8519
20
111.0655
0
VERTEX
8
CUT
10
73.6813
20
110.8925
0
VERTEX
8
CUT
10
73.5284
20
110.7037
0
VERTEX
8
CUT
10
73.3946
20
110.5009
0
VERTEX
8
CUT
10
73.2810
20
110.2861
0
VERTEX
8
CUT
10
73.1888
20
110.0613
0
VERTEX
8
CUT
10
72.8619
20
109.1385
0
VERTEX
8
CUT
10
72.8556
20
109.1219
0
VERTEX
8
CUT
10
72.8403
20
109.0886
0
VERTEX
8
CUT
10
72.8195
20
109.0588
0
VERTEX
8
CUT
10
72.8083
20
109.0448
0
SEQEND
0
POLYLINE
8
CUT
66
1
70
1
10
0.0
20
0.0
30
0.0
0
VERTEX
8
CUT
10
21.1899
20
65.0745
0
VERTEX
8
CUT
10
21.2014
20
64.8166
0
VERTEX
8
CUT
10
21.2394
20
64.5613
0
VERTEX
8
CUT
10
21.3036
20
64.3112
0
VERTEX
8
CUT
10
21.3932
20
64.0692
0
VERTEX
8
CUT
10
21.8718
20
62.9561
0
VERTEX
8
CUT
10
21.9745
20
62.7451
0
VERTEX
8
CUT
10
22.0965
20
62.5447
0
VERTEX
8
CUT
10
22.2368
20
62.3566
0
VERTEX
8
CUT
10
22.3941
20
62.1824
0
VERTEX
8
CUT
10
23.2530
20
61.3172
0
VERTEX
8
CUT
10
23.4514
20
61.1377
0
VERTEX
8
CUT
10
23.6678
20
60.9804
0
VERTEX
8
CUT
10
23.8998
20
60.8471
0
VERTEX
8
CUT
10
24.7739
20
60.4054
0
VERTEX
8
CUT
10
24.9841
20
60.3111
0
VERTEX
8
CUT
10
25.2021
20
60.2365
0
VERTEX
8
CUT
10
25.4260
20
60.1824
0
VERTEX
8
CUT
10
25.6539
20
60.1490
0
VERTEX
8
CUT
10
25.8839
20
60.1368
0
VERTEX
8
CUT
10
26.7533
20
60.1307
0
VERTEX
8
CUT
10
26.9851
20
60.1399
0
VERTEX
8
CUT
10
27.2149
20
60.1704
0
VERTEX
8
CUT
10
27.4410
20
60.2222
0
VERTEX
8
CUT
10
27.6613
20
60.2947
0
VERTEX
8
CUT
10
27.8739
20
60.3872
0
VERTEX
8
CUT
10
28.8139
20
60.8494
0
VERTEX
8
CUT
10
29.0524
20
60.9834
0
VERTEX
8
CUT
10
29.2748
20
61.1426
0
VERTEX
8
CUT
10
29.4785
20
61.3251
0
VERTEX
8
CUT
10
30.0002
20
61.8468
0
VERTEX
8
CUT
10
30.1589
20
62.0212
0
VERTEX
8
CUT
10
30.3005
20
62.2099
0
VERTEX
8
CUT
10
30.4237
20
62.4110
0
VERTEX
8
CUT
10
30.5273
20
62.6229
0
VERTEX
8
CUT
10
31.0356
20
63.7990
0
VERTEX
8
CUT
10
31.1228
20
64.0320
0
VERTEX
8
CUT
10
31.1864
20
64.2726
0
VERTEX
8
CUT
10
31.2258
20
64.5183
0
VERTEX
8
CUT
10
31.2405
20
64.7667
0
VERTEX
8
CUT
10
31.2454
20
65.2727
0
VERTEX
8
CUT
10
31.2334
20
65.5428
0
VERTEX
8
CUT
10
31.1923
20
65.8099
0
VERTEX
8
CUT
10
31.1226
20
66.0711
0
VERTEX
8
CUT
10
30.8416
20
66.9334
0
VERTEX
8
CUT
10
30.7590
20
67.1518
0
VERTEX
8
CUT
10
30.6563
20
67.3616
0
VERTEX
8
CUT
10
30.5345
20
67.5610
0
VERTEX
8
CUT
10
30.3946
20
67.7480
0
VERTEX
8
CUT
10
30.2378
20
67.9212
0
VERTEX
8
CUT
10
29.1697
20
68.9960
0
VERTEX
8
CUT
10
28.9666
20
69.1791
0
VERTEX
8
CUT
10
28.7448
20
69.3389
0
VERTEX
8
CUT
10
28.5069
20
69.4736
0
VERTEX
8
CUT
10
28.1857
20
69.6328
0
VERTEX
8
CUT
10
27.9763
20
69.7249
0
VERTEX
8
CUT
10
27.7593
20
69.7975
0
VERTEX
8
CUT
10
27.5366
20
69.8500
0
VERTEX
8
CUT
10
27.3100
20
69.8819
0
VERTEX
8
CUT
10
27.0815
20
69.8929
0
VERTEX
8
CUT
10
25.6713
20
69.8964
0
VERTEX
8
CUT
10
25.4459
20
69.8868
0
VERTEX
8
CUT
10
25.2223
20
69.8569
0
VERTEX
8
CUT
10
25.0024
20
69.8070
0
VERTEX
8
CUT
10
24.7878
20
69.7374
0
VERTEX
8
CUT
10
24.5803
20
69.6488
0
VERTEX
8
CUT
10
23.6346
20
69.1934
0
VERTEX
8
CUT
10
23.3936
20
69.0605
0
VERTEX
8
CUT
10
23.1687
20
68.9020
0
VERTEX
8
CUT
10
22.9626
20
68.7196
0
VERTEX
8
CUT
10
22.6719
20
68.4325
0
VERTEX
8
CUT
10
22.4903
20
68.2326
0
VERTEX
8
CUT
10
22.3313
20
68.0143
0
VERTEX
8
CUT
10
22.1968
20
67.7802
0
VERTEX
8
CUT
10
21.4589
20
66.3180
0
VERTEX
8
CUT
10
21.3648
20
66.1081
0
VERTEX
8
CUT
10
21.2904
20
65.8904
0
VERTEX
8
CUT
10
21.2364
20
65.6668
0
VERTEX
8
CUT
10
21.2031
20
65.4392
0
VERTEX
8
CUT
10
21.1909
20
65.2094
0
SEQEND
0
ENDSEC
0
EOF
