0
SECTION
2
HEADER
9
$ACADVER
1
AC1009
9
$INSUNITS
70
4
0
ENDSEC
0
SECTION
2
TABLES
0
TABLE
2
LAYER
70
1
0
LAYER
2
CUT
70
0
62
7
6
CONTINUOUS
0
ENDTAB
0
ENDSEC
0
SECTION
2
ENTITIES
0
POLYLINE
8
CUT
66
1
70
1
10
0.0
20
0.0
30
0.0
0
VERTEX
8
CUT
10
0.0614
20
-0.0000
0
VERTEX
8
CUT
10
0.0029
20
0.0029
0
VERTEX
8
CUT
10
0.0000
20
0.0614
0
VERTEX
8
CUT
10
0.0000
20
299.9386
0
VERTEX
8
CUT
10
0.0029
20
299.9971
0
VERTEX
8
CUT
10
0.0614
20
300.0000
0
VERTEX
8
CUT
10
299.9021
20
300.0000
0
VERTEX
8
CUT
10
299.9605
20
299.9971
0
VERTEX
8
CUT
10
299.9634
20
299.9386
0
VERTEX
8
CUT
10
299.9634
20
0.0614
0
VERTEX
8
CUT
10
299.9605
20
0.0029
0
VERTEX
8
CUT
10
299.9021
20
-0.0000
0
SEQEND
0
POLYLINE
8
CUT
66
1
70
1
10
0.0
20
0.0
30
0.0
0
VERTEX
8
CUT
10
278.4589
20
116.1181
0
VERTEX
8
CUT
10
278.6005
20
115.9241
0
VERTEX
8
CUT
10
278.7600
20
115.7445
0
VERTEX
8
CUT
10
278.9361
20
115.5811
0
VERTEX
8
CUT
10
279.1269
20
115.4354
0
VERTEX
8
CUT
10
280.0852
20
114.7741
0
VERTEX
8
CUT
10
280.2761
20
114.6546
0
VERTEX
8
CUT
10
280.4770
20
114.5529
0
VERTEX
8
CUT
10
280.6862
20
114.4696
0
VERTEX
8
CUT
10
281.1899
20
114.2950
0
VERTEX
8
CUT
10
281.4236
20
114.2265
0
VERTEX
8
CUT
10
282.2590
20
114.0254
0
VERTEX
8
CUT
10
282.5520
20
113.9730
0
VERTEX
8
CUT
10
282.8492
20
113.9559
0
VERTEX
8
CUT
10
283.7144
20
113.9576
0
VERTEX
8
CUT
10
283.9669
20
113.9709
0
VERTEX
8
CUT
10
284.2168
20
114.0096
0
VERTEX
8
CUT
10
284.4615
20
114.0734
0
VERTEX
8
CUT
10
284.6985
20
114.1616
0
VERTEX
8
CUT
10
284.7407
20
114.1798
0
VERTEX
8
CUT
10
284.7566
20
114.1862
0
VERTEX
8
CUT
10
284.7903
20
114.1974
0
VERTEX
8
CUT
10
284.8251
20
114.2025
0
VERTEX
8
CUT
10
284.8424
20
114.2040
0
VERTEX
8
CUT
10
285.2244
20
114.2270
0
VERTEX
8
CUT
10
285.4800
20
114.2557
0
VERTEX
8
CUT
10
285.7312
20
114.3104
0
VERTEX
8
CUT
10
285.9755
20
114.3907
0
VERTEX
8
CUT
10
286.2103
20
114.4957
0
VERTEX
8
CUT
10
286.5451
20
114.6665
0
VERTEX
8
CUT
10
286.7712
20
114.7972
0
VERTEX
8
CUT
10
286.9824
20
114.9508
0
VERTEX
8
CUT
10
287.1764
20
115.1256
0
VERTEX
8
CUT
10
288.6917
20
116.6408
0
VERTEX
8
CUT
10
288.8727
20
116.8426
0
VERTEX
8
CUT
10
289.0308
20
117.0628
0
VERTEX
8
CUT
10
289.1641
20
117.2988
0
VERTEX
8
CUT
10
289.5990
20
118.1766
0
VERTEX
8
CUT
10
289.6915
20
118.3871
0
VERTEX
8
CUT
10
289.7642
20
118.6051
0
VERTEX
8
CUT
10
289.8166
20
118.8288
0
VERTEX
8
CUT
10
289.8483
20
119.0565
0
VERTEX
8
CUT
10
289.8589
20
119.2861
0
VERTEX
8
CUT
10
289.8593
20
121.8117
0
VERTEX
8
CUT
10
289.8459
20
122.0705
0
VERTEX
8
CUT
10
289.8058
20
122.3265
0
VERTEX
8
CUT
10
289.7394
20
122.5770
0
VERTEX
8
CUT
10
289.6407
20
122.8840
0
VERTEX
8
CUT
10
289.5309
20
123.1658
0
VERTEX
8
CUT
10
289.3880
20
123.4322
0
VERTEX
8
CUT
10
288.8332
20
124.3310
0
VERTEX
8
CUT
10
288.6646
20
124.5713
0
VERTEX
8
CUT
10
288.4690
20
124.7902
0
VERTEX
8
CUT
10
287.4702
20
125.7839
0
VERTEX
8
CUT
10
287.2718
20
125.9612
0
VERTEX
8
CUT
10
287.0557
20
126.1165
0
VERTEX
8
CUT
10
286.8243
20
126.2480
0
VERTEX
8
CUT
10
285.3901
20
126.9645
0
VERTEX
8
CUT
10
285.1796
20
127.0578
0
VERTEX
8
CUT
10
284.9615
20
127.1313
0
VERTEX
8
CUT
10
284.7375
20
127.1845
0
VERTEX
8
CUT
10
284.5095
20
127.2168
0
VERTEX
8
CUT
10
284.2796
20
127.2280
0
VERTEX
8
CUT
10
282.6087
20
127.2325
0
VERTEX
8
CUT
10
282.3451
20
127.2193
0
VERTEX
8
CUT
10
282.0844
20
127.1784
0
VERTEX
8
CUT
10
281.8295
20
127.1102
0
VERTEX
8
CUT
10
280.7807
20
126.7695
0
VERTEX
8
CUT
10
280.5500
20
126.6818
0
VERTEX
8
CUT
10
280.3291
20
126.5717
0
VERTEX
8
CUT
10
280.1201
20
126.4403
0
VERTEX
8
CUT
10
278.8091
20
125.5232
0
VERTEX
8
CUT
10
278.6042
20
125.3634
0
VERTEX
8
CUT
10
278.4170
20
125.1832
0
VERTEX
8
CUT
10
278.2495
20
124.9845
0
VERTEX
8
CUT
10
278.1036
20
124.7695
0
VERTEX
8
CUT
10
277.5729
20
123.8930
0
VERTEX
8
CUT
10
277.4697
20
123.7048
0
VERTEX
8
CUT
10
277.3830
20
123.5085
0
VERTEX
8
CUT
10
276.9132
20
122.3068
0
VERTEX
8
CUT
10
276.8572
20
122.1482
0
VERTEX
8
CUT
10
276.7013
20
121.6536
0
VERTEX
8
CUT
10
276.6359
20
121.4005
0
VERTEX
8
CUT
10
276.5972
20
121.1420
0
VERTEX
8
CUT
10
276.5858
20
120.8808
0
VERTEX
8
CUT
10
276.5902
20
120.3618
0
VERTEX
8
CUT
10
276.6051
20
120.1095
0
VERTEX
8
CUT
10
276.6454
20
119.8599
0
VERTEX
8
CUT
10
276.7107
20
119.6157
0
VERTEX
8
CUT
10
276.8004
20
119.3794
0
VERTEX
8
CUT
10
277.6887
20
117.3527
0
VERTEX
8
CUT
10
277.7817
20
117.1628
0
VERTEX
8
CUT
10
277.8904
20
116.9815
0
SEQEND
0
POLYLINE
8
CUT
66
1
70
1
10
0.0
20
0.0
30
0.0
0
VERTEX
8
CUT
10
13.8048
20
235.6507
0
VERTEX
8
CUT
10
13.8079
20
235.6344
0
VERTEX
8
CUT
10
13.8688
20
235.4185
0
VERTEX
8
CUT
10
14.2751
20
234.1933
0
VERTEX
8
CUT
10
14.3458
20
234.0058
0
VERTEX
8
CUT
10
14.4312
20
233.8245
0
VERTEX
8
CUT
10
14.4325
20
233.8221
0
VERTEX
8
CUT
10
14.7908
20
233.1348
0
VERTEX
8
CUT
10
14.7996
20
233.1167
0
VERTEX
8
CUT
10
14.8308
20
233.0382
0
VERTEX
8
CUT
10
14.8367
20
233.0190
0
VERTEX
8
CUT
10
15.1558
20
231.8851
0
VERTEX
8
CUT
10
15.1561
20
231.8840
0
VERTEX
8
CUT
10
15.2314
20
231.6583
0
VERTEX
8
CUT
10
15.3278
20
231.4407
0
VERTEX
8
CUT
10
16.5450
20
229.0132
0
VERTEX
8
CUT
10
16.6383
20
228.8438
0
VERTEX
8
CUT
10
16.6480
20
228.8290
0
VERTEX
8
CUT
10
16.6583
20
228.8103
0
VERTEX
8
CUT
10
16.7643
20
228.6490
0
VERTEX
8
CUT
10
19.3527
20
225.0249
0
VERTEX
8
CUT
10
20.0211
20
224.0876
0
VERTEX
8
CUT
10
20.1402
20
223.9337
0
VERTEX
8
CUT
10
20.2708
20
223.7895
0
VERTEX
8
CUT
10
23.8143
20
220.1731
0
VERTEX
8
CUT
10
23.9459
20
220.0483
0
VERTEX
8
CUT
10
24.4390
20
219.6131
0
VERTEX
8
CUT
10
25.0457
20
219.0050
0
VERTEX
8
CUT
10
25.2769
20
218.8002
0
VERTEX
8
CUT
10
25.9989
20
218.2365
0
VERTEX
8
CUT
10
26.5436
20
217.7558
0
VERTEX
8
CUT
10
26.7384
20
217.6005
0
VERTEX
8
CUT
10
27.6873
20
216.9183
0
VERTEX
8
CUT
10
28.9088
20
215.9646
0
VERTEX
8
CUT
10
29.0921
20
215.8343
0
VERTEX
8
CUT
10
30.0930
20
215.1886
0
VERTEX
8
CUT
10
30.6336
20
214.7999
0
VERTEX
8
CUT
10
30.8068
20
214.6860
0
VERTEX
8
CUT
10
31.7421
20
214.1248
0
VERTEX
8
CUT
10
32.9709
20
213.3322
0
VERTEX
8
CUT
10
33.0661
20
213.2737
0
VERTEX
8
CUT
10
36.4430
20
211.3034
0
VERTEX
8
CUT
10
36.5614
20
211.2385
0
VERTEX
8
CUT
10
36.5750
20
211.2315
0
VERTEX
8
CUT
10
41.5864
20
208.6595
0
VERTEX
8
CUT
10
45.6241
20
206.5871
0
VERTEX
8
CUT
10
45.6595
20
206.5682
0
VERTEX
8
CUT
10
45.6943
20
206.5481
0
VERTEX
8
CUT
10
49.9795
20
203.9771
0
VERTEX
8
CUT
10
55.0454
20
200.5881
0
VERTEX
8
CUT
10
55.2365
20
200.4549
0
VERTEX
8
CUT
10
55.2465
20
200.4476
0
VERTEX
8
CUT
10
55.2581
20
200.4383
0
VERTEX
8
CUT
10
55.2727
20
200.4265
0
VERTEX
8
CUT
10
55.3027
20
200.4024
0
VERTEX
8
CUT
10
55.3874
20
200.3343
0
VERTEX
8
CUT
10
61.0163
20
195.5847
0
VERTEX
8
CUT
10
61.0814
20
195.5256
0
VERTEX
8
CUT
10
61.1306
20
195.4740
0
VERTEX
8
CUT
10
65.8161
20
190.1848
0
VERTEX
8
CUT
10
65.8640
20
190.1269
0
VERTEX
8
CUT
10
65.9097
20
190.0634
0
VERTEX
8
CUT
10
68.8442
20
185.6875
0
VERTEX
8
CUT
10
68.8469
20
185.6833
0
VERTEX
8
CUT
10
68.8507
20
185.6767
0
VERTEX
8
CUT
10
68.8786
20
185.6252
0
VERTEX
8
CUT
10
68.9199
20
185.5427
0
VERTEX
8
CUT
10
70.6896
20
181.7766
0
VERTEX
8
CUT
10
70.9038
20
181.3207
0
VERTEX
8
CUT
10
72.0275
20
178.1787
0
VERTEX
8
CUT
10
72.0359
20
178.1532
0
VERTEX
8
CUT
10
72.0461
20
178.1188
0
VERTEX
8
CUT
10
72.0638
20
178.0405
0
VERTEX
8
CUT
10
72.3738
20
176.4244
0
VERTEX
8
CUT
10
72.3870
20
176.1103
0
VERTEX
8
CUT
10
72.4141
20
175.8331
0
VERTEX
8
CUT
10
72.4720
20
175.5605
0
VERTEX
8
CUT
10
72.5598
20
175.2961
0
VERTEX
8
CUT
10
72.6190
20
175.1461
0
VERTEX
8
CUT
10
72.6418
20
175.0273
0
VERTEX
8
CUT
10
72.6435
20
175.0173
0
VERTEX
8
CUT
10
72.6299
20
174.3065
0
VERTEX
8
CUT
10
72.6280
20
174.2081
0
VERTEX
8
CUT
10
72.6278
20
174.1966
0
VERTEX
8
CUT
10
72.6276
20
174.1879
0
VERTEX
8
CUT
10
72.6262
20
174.1135
0
VERTEX
8
CUT
10
72.6243
20
174.0167
0
VERTEX
8
CUT
10
72.5798
20
172.6240
0
VERTEX
8
CUT
10
72.5788
20
172.6059
0
VERTEX
8
CUT
10
72.5775
20
172.5957
0
VERTEX
8
CUT
10
72.5742
20
172.5897
0
VERTEX
8
CUT
10
72.5638
20
172.5739
0
VERTEX
8
CUT
10
72.5423
20
172.5429
0
VERTEX
8
CUT
10
72.5303
20
172.5344
0
VERTEX
8
CUT
10
72.0631
20
172.2201
0
VERTEX
8
CUT
10
71.8640
20
172.1373
0
VERTEX
8
CUT
10
71.7003
20
172.1373
0
VERTEX
8
CUT
10
70.1997
20
173.0473
0
VERTEX
8
CUT
10
69.9956
20
173.1850
0
VERTEX
8
CUT
10
69.9915
20
173.1878
0
VERTEX
8
CUT
10
69.9427
20
173.2262
0
VERTEX
8
CUT
10
65.4505
20
177.3777
0
VERTEX
8
CUT
10
65.3969
20
177.4304
0
VERTEX
8
CUT
10
65.3466
20
177.4864
0
VERTEX
8
CUT
10
64.6668
20
178.2922
0
VERTEX
8
CUT
10
64.6419
20
178.3217
0
VERTEX
8
CUT
10
64.6270
20
178.3394
0
VERTEX
8
CUT
10
64.5693
20
178.4078
0
VERTEX
8
CUT
10
64.1129
20
178.9487
0
VERTEX
8
CUT
10
64.1115
20
178.9504
0
VERTEX
8
CUT
10
63.9525
20
179.1219
0
VERTEX
8
CUT
10
63.7782
20
179.2777
0
VERTEX
8
CUT
10
62.3121
20
180.4703
0
VERTEX
8
CUT
10
62.2417
20
180.5227
0
VERTEX
8
CUT
10
62.2277
20
180.5340
0
VERTEX
8
CUT
10
62.0499
20
180.6656
0
VERTEX
8
CUT
10
60.5450
20
181.6790
0
VERTEX
8
CUT
10
60.2694
20
181.8400
0
VERTEX
8
CUT
10
60.2665
20
181.8414
0
VERTEX
8
CUT
10
58.3964
20
182.7794
0
VERTEX
8
CUT
10
58.3307
20
182.8123
0
VERTEX
8
CUT
10
58.1681
20
182.8799
0
VERTEX
8
CUT
10
58.1672
20
182.8803
0
VERTEX
8
CUT
10
58.1670
20
182.8804
0
VERTEX
8
CUT
10
58.0030
20
182.9485
0
VERTEX
8
CUT
10
56.5712
20
183.4275
0
VERTEX
8
CUT
10
56.3912
20
183.4803
0
VERTEX
8
CUT
10
56.2077
20
183.5195
0
VERTEX
8
CUT
10
55.1972
20
183.6958
0
VERTEX
8
CUT
10
55.0218
20
183.7351
0
VERTEX
8
CUT
10
54.8037
20
183.7641
0
VERTEX
8
CUT
10
54.5838
20
183.7739
0
VERTEX
8
CUT
10
53.7146
20
183.7741
0
VERTEX
8
CUT
10
52.6548
20
183.7994
0
VERTEX
8
CUT
10
52.4089
20
183.7931
0
VERTEX
8
CUT
10
52.2597
20
183.7745
0
VERTEX
8
CUT
10
52.1777
20
183.7746
0
VERTEX
8
CUT
10
51.9132
20
183.7606
0
VERTEX
8
CUT
10
51.6518
20
183.7188
0
VERTEX
8
CUT
10
51.3962
20
183.6495
0
VERTEX
8
CUT
10
51.2587
20
183.6043
0
VERTEX
8
CUT
10
50.8713
20
183.5366
0
VERTEX
8
CUT
10
50.6704
20
183.4929
0
VERTEX
8
CUT
10
50.4738
20
183.4329
0
VERTEX
8
CUT
10
50.2828
20
183.3569
0
VERTEX
8
CUT
10
49.6593
20
183.0786
0
VERTEX
8
CUT
10
49.2762
20
182.9526
0
VERTEX
8
CUT
10
49.0949
20
182.8851
0
VERTEX
8
CUT
10
48.9193
20
182.8038
0
VERTEX
8
CUT
10
48.1814
20
182.4267
0
VERTEX
8
CUT
10
47.9925
20
182.3196
0
VERTEX
8
CUT
10
47.8137
20
182.1966
0
VERTEX
8
CUT
10
46.9159
20
181.5195
0
VERTEX
8
CUT
10
46.6959
20
181.3327
0
VERTEX
8
CUT
10
46.6299
20
181.2621
0
VERTEX
8
CUT
10
46.4336
20
181.0894
0
VERTEX
8
CUT
10
46.2354
20
180.8681
0
VERTEX
8
CUT
10
45.3163
20
179.7105
0
VERTEX
8
CUT
10
45.1873
20
179.5325
0
VERTEX
8
CUT
10
45.0744
20
179.3439
0
VERTEX
8
CUT
10
44.9785
20
179.1460
0
VERTEX
8
CUT
10
44.3526
20
177.6946
0
VERTEX
8
CUT
10
44.2542
20
177.4250
0
VERTEX
8
CUT
10
44.1874
20
177.1459
0
VERTEX
8
CUT
10
44.1822
20
177.1169
0
VERTEX
8
CUT
10
44.1800
20
177.1073
0
VERTEX
8
CUT
10
44.1653
20
177.0224
0
VERTEX
8
CUT
10
43.9811
20
175.9958
0
VERTEX
8
CUT
10
43.9516
20
175.7747
0
VERTEX
8
CUT
10
43.9511
20
175.7638
0
VERTEX
8
CUT
10
43.9369
20
175.6561
0
VERTEX
8
CUT
10
43.9268
20
175.4544
0
VERTEX
8
CUT
10
43.9193
20
174.6898
0
VERTEX
8
CUT
10
43.9323
20
174.4094
0
VERTEX
8
CUT
10
43.9490
20
174.3049
0
VERTEX
8
CUT
10
43.9593
20
174.1254
0
VERTEX
8
CUT
10
44.0075
20
173.8464
0
VERTEX
8
CUT
10
44.4541
20
171.9181
0
VERTEX
8
CUT
10
44.5092
20
171.7311
0
VERTEX
8
CUT
10
44.5118
20
171.7212
0
VERTEX
8
CUT
10
44.5137
20
171.7159
0
VERTEX
8
CUT
10
44.5371
20
171.6365
0
VERTEX
8
CUT
10
44.5653
20
171.5705
0
VERTEX
8
CUT
10
44.5820
20
171.5233
0
VERTEX
8
CUT
10
44.6438
20
171.3867
0
VERTEX
8
CUT
10
44.6524
20
171.3665
0
VERTEX
8
CUT
10
44.6579
20
171.3555
0
VERTEX
8
CUT
10
44.6686
20
171.3320
0
VERTEX
8
CUT
10
44.7710
20
171.1289
0
VERTEX
8
CUT
10
45.5776
20
169.5114
0
VERTEX
8
CUT
10
45.6767
20
169.3315
0
VERTEX
8
CUT
10
45.7201
20
169.2662
0
VERTEX
8
CUT
10
45.7237
20
169.2597
0
VERTEX
8
CUT
10
45.7509
20
169.2197
0
VERTEX
8
CUT
10
45.7903
20
169.1604
0
VERTEX
8
CUT
10
45.8064
20
169.1381
0
VERTEX
8
CUT
10
45.8459
20
169.0801
0
VERTEX
8
CUT
10
45.9357
20
168.9597
0
VERTEX
8
CUT
10
46.3249
20
168.4224
0
VERTEX
8
CUT
10
46.4507
20
168.2629
0
VERTEX
8
CUT
10
46.5772
20
168.1268
0
VERTEX
8
CUT
10
46.6550
20
168.0364
0
VERTEX
8
CUT
10
48.4834
20
166.1935
0
VERTEX
8
CUT
10
48.6270
20
166.0596
0
VERTEX
8
CUT
10
48.7807
20
165.9375
0
VERTEX
8
CUT
10
48.7917
20
165.9294
0
VERTEX
8
CUT
10
48.9240
20
165.7982
0
VERTEX
8
CUT
10
49.1171
20
165.6255
0
VERTEX
8
CUT
10
49.3271
20
165.4738
0
VERTEX
8
CUT
10
50.0630
20
164.9980
0
VERTEX
8
CUT
10
50.6731
20
164.5511
0
VERTEX
8
CUT
10
50.8476
20
164.4342
0
VERTEX
8
CUT
10
51.0312
20
164.3324
0
VERTEX
8
CUT
10
51.3293
20
164.1831
0
VERTEX
8
CUT
10
51.5276
20
164.0703
0
VERTEX
8
CUT
10
54.1344
20
162.7776
0
VERTEX
8
CUT
10
54.3185
20
162.6954
0
VERTEX
8
CUT
10
54.5086
20
162.6283
0
VERTEX
8
CUT
10
54.5133
20
162.6269
0
VERTEX
8
CUT
10
57.3652
20
161.7478
0
VERTEX
8
CUT
10
57.3818
20
161.7422
0
VERTEX
8
CUT
10
57.4496
20
161.7145
0
VERTEX
8
CUT
10
57.4653
20
161.7068
0
VERTEX
8
CUT
10
57.9430
20
161.4594
0
VERTEX
8
CUT
10
57.9593
20
161.4509
0
VERTEX
8
CUT
10
58.1589
20
161.3584
0
VERTEX
8
CUT
10
58.3660
20
161.2838
0
VERTEX
8
CUT
10
58.5788
20
161.2277
0
VERTEX
8
CUT
10
58.7956
20
161.1906
0
VERTEX
8
CUT
10
59.1331
20
161.1479
0
VERTEX
8
CUT
10
59.1499
20
161.1454
0
VERTEX
8
CUT
10
59.1782
20
161.1393
0
VERTEX
8
CUT
10
59.1914
20
161.1329
0
VERTEX
8
CUT
10
60.3050
20
160.5604
0
VERTEX
8
CUT
10
60.3263
20
160.5440
0
VERTEX
8
CUT
10
60.3390
20
160.5329
0
VERTEX
8
CUT
10
61.4608
20
159.5051
0
VERTEX
8
CUT
10
61.4923
20
159.4752
0
VERTEX
8
CUT
10
61.5227
20
159.4442
0
VERTEX
8
CUT
10
63.0300
20
157.8504
0
VERTEX
8
CUT
10
63.0451
20
157.8335
0
VERTEX
8
CUT
10
63.1020
20
157.7572
0
VERTEX
8
CUT
10
63.1139
20
157.7380
0
VERTEX
8
CUT
10
64.2418
20
155.7901
0
VERTEX
8
CUT
10
64.2505
20
155.7743
0
VERTEX
8
CUT
10
64.2664
20
155.7398
0
VERTEX
8
CUT
10
64.2790
20
155.7039
0
VERTEX
8
CUT
10
64.2837
20
155.6870
0
VERTEX
8
CUT
10
64.8633
20
153.3863
0
VERTEX
8
CUT
10
64.8672
20
153.3691
0
VERTEX
8
CUT
10
64.8730
20
153.3325
0
VERTEX
8
CUT
10
64.8754
20
153.2953
0
VERTEX
8
CUT
10
64.8754
20
153.2782
0
VERTEX
8
CUT
10
64.8060
20
150.4961
0
VERTEX
8
CUT
10
64.8049
20
150.4755
0
VERTEX
8
CUT
10
64.7993
20
150.4328
0
VERTEX
8
CUT
10
64.7892
20
150.3910
0
VERTEX
8
CUT
10
64.7829
20
150.3714
0
VERTEX
8
CUT
10
63.7065
20
147.3475
0
VERTEX
8
CUT
10
63.6979
20
147.3254
0
VERTEX
8
CUT
10
63.6536
20
147.2366
0
VERTEX
8
CUT
10
63.6411
20
147.2165
0
VERTEX
8
CUT
10
59.5280
20
141.0025
0
VERTEX
8
CUT
10
59.4550
20
140.8853
0
VERTEX
8
CUT
10
57.6420
20
137.7873
0
VERTEX
8
CUT
10
57.6226
20
137.7553
0
VERTEX
8
CUT
10
57.6022
20
137.7238
0
VERTEX
8
CUT
10
54.7040
20
133.4070
0
VERTEX
8
CUT
10
54.6590
20
133.3444
0
VERTEX
8
CUT
10
54.6102
20
133.2848
0
VERTEX
8
CUT
10
50.5425
20
128.6312
0
VERTEX
8
CUT
10
50.5273
20
128.6148
0
VERTEX
8
CUT
10
50.4581
20
128.5518
0
VERTEX
8
CUT
10
50.4403
20
128.5383
0
VERTEX
8
CUT
10
46.3192
20
125.5737
0
VERTEX
8
CUT
10
46.3149
20
125.5708
0
VERTEX
8
CUT
10
46.2486
20
125.5303
0
VERTEX
8
CUT
10
46.2325
20
125.5218
0
VERTEX
8
CUT
10
43.9622
20
124.3842
0
VERTEX
8
CUT
10
43.9038
20
124.3569
0
VERTEX
8
CUT
10
43.8441
20
124.3327
0
VERTEX
8
CUT
10
41.6367
20
123.5063
0
VERTEX
8
CUT
10
41.5567
20
123.4795
0
VERTEX
8
CUT
10
41.4751
20
123.4583
0
VERTEX
8
CUT
10
34.9445
20
122.0036
0
VERTEX
8
CUT
10
34.6426
20
121.9161
0
VERTEX
8
CUT
10
31.7579
20
120.8794
0
VERTEX
8
CUT
10
31.4535
20
120.7466
0
VERTEX
8
CUT
10
29.4227
20
119.6947
0
VERTEX
8
CUT
10
29.2089
20
119.5702
0
VERTEX
8
CUT
10
29.0085
20
119.4252
0
VERTEX
8
CUT
10
27.8622
20
118.5059
0
VERTEX
8
CUT
10
27.6519
20
118.3168
0
VERTEX
8
CUT
10
25.5933
20
116.2429
0
VERTEX
8
CUT
10
25.4626
20
116.1006
0
VERTEX
8
CUT
10
25.3432
20
115.9487
0
VERTEX
8
CUT
10
24.8011
20
115.2004
0
VERTEX
8
CUT
10
24.6892
20
115.0321
0
VERTEX
8
CUT
10
24.5912
20
114.8553
0
VERTEX
8
CUT
10
23.9508
20
113.5798
0
VERTEX
8
CUT
10
23.8560
20
113.3668
0
VERTEX
8
CUT
10
23.7815
20
113.1459
0
VERTEX
8
CUT
10
23.0913
20
110.7342
0
VERTEX
8
CUT
10
23.0396
20
110.5173
0
VERTEX
8
CUT
10
23.0074
20
110.2966
0
VERTEX
8
CUT
10
22.9949
20
110.0740
0
VERTEX
8
CUT
10
22.9641
20
107.2903
0
VERTEX
8
CUT
10
22.9772
20
107.0060
0
VERTEX
8
CUT
10
23.0224
20
106.7250
0
VERTEX
8
CUT
10
23.4906
20
104.5985
0
VERTEX
8
CUT
10
23.5440
20
104.3967
0
VERTEX
8
CUT
10
23.6140
20
104.2000
0
VERTEX
8
CUT
10
23.7002
20
104.0099
0
VERTEX
8
CUT
10
24.8510
20
101.7291
0
VERTEX
8
CUT
10
24.9841
20
101.4972
0
VERTEX
8
CUT
10
25.1411
20
101.2808
0
VERTEX
8
CUT
10
26.3009
20
99.8504
0
VERTEX
8
CUT
10
26.5059
20
99.6268
0
VERTEX
8
CUT
10
26.7365
20
99.4296
0
VERTEX
8
CUT
10
28.8109
20
97.8636
0
VERTEX
8
CUT
10
28.9983
20
97.7351
0
VERTEX
8
CUT
10
29.1966
20
97.6241
0
VERTEX
8
CUT
10
30.4917
20
96.9747
0
VERTEX
8
CUT
10
30.7457
20
96.8645
0
VERTEX
8
CUT
10
31.0103
20
96.7830
0
VERTEX
8
CUT
10
33.9417
20
96.0557
0
VERTEX
8
CUT
10
34.2304
20
96.0019
0
VERTEX
8
CUT
10
34.5234
20
95.9822
0
VERTEX
8
CUT
10
35.6338
20
95.9732
0
VERTEX
8
CUT
10
35.8607
20
95.9817
0
VERTEX
8
CUT
10
36.0859
20
96.0107
0
VERTEX
8
CUT
10
36.3076
20
96.0600
0
VERTEX
8
CUT
10
36.5238
20
96.1293
0
VERTEX
8
CUT
10
36.6818
20
96.1879
0
VERTEX
8
CUT
10
36.7014
20
96.1946
0
VERTEX
8
CUT
10
36.7434
20
96.2052
0
VERTEX
8
CUT
10
36.7863
20
96.2114
0
VERTEX
8
CUT
10
36.8069
20
96.2127
0
VERTEX
8
CUT
10
37.9550
20
96.2542
0
VERTEX
8
CUT
10
38.2061
20
96.2760
0
VERTEX
8
CUT
10
38.4537
20
96.3230
0
VERTEX
8
CUT
10
39.1904
20
96.5016
0
VERTEX
8
CUT
10
39.4070
20
96.5646
0
VERTEX
8
CUT
10
39.6170
20
96.6468
0
VERTEX
8
CUT
10
41.8181
20
97.6254
0
VERTEX
8
CUT
10
42.0382
20
97.7367
0
VERTEX
8
CUT
10
42.2464
20
97.8690
0
VERTEX
8
CUT
10
44.7482
20
99.6392
0
VERTEX
8
CUT
10
45.0310
20
99.8722
0
VERTEX
8
CUT
10
46.2166
20
101.0047
0
VERTEX
8
CUT
10
46.4377
20
101.2454
0
VERTEX
8
CUT
10
48.8085
20
104.1922
0
VERTEX
8
CUT
10
48.9949
20
104.4575
0
VERTEX
8
CUT
10
49.7523
20
105.6992
0
VERTEX
8
CUT
10
49.8529
20
105.8808
0
VERTEX
8
CUT
10
51.1632
20
108.4949
0
VERTEX
8
CUT
10
51.2613
20
108.7170
0
VERTEX
8
CUT
10
52.6422
20
112.3039
0
VERTEX
8
CUT
10
52.7017
20
112.4773
0
VERTEX
8
CUT
10
55.3359
20
121.1743
0
VERTEX
8
CUT
10
55.3412
20
121.1903
0
VERTEX
8
CUT
10
55.3543
20
121.2232
0
VERTEX
8
CUT
10
55.3728
20
121.2529
0
VERTEX
8
CUT
10
55.3827
20
121.2669
0
VERTEX
8
CUT
10
55.5018
20
121.4266
0
VERTEX
8
CUT
10
55.6450
20
121.6408
0
VERTEX
8
CUT
10
55.7654
20
121.8687
0
VERTEX
8
CUT
10
55.8618
20
122.1077
0
VERTEX
8
CUT
10
55.9330
20
122.3554
0
VERTEX
8
CUT
10
55.9432
20
122.3995
0
VERTEX
8
CUT
10
55.9569
20
122.4452
0
VERTEX
8
CUT
10
55.9665
20
122.4694
0
VERTEX
8
CUT
10
55.9769
20
122.4914
0
VERTEX
8
CUT
10
57.3530
20
125.2387
0
VERTEX
8
CUT
10
57.3834
20
125.2956
0
VERTEX
8
CUT
10
57.4169
20
125.3509
0
VERTEX
8
CUT
10
59.4849
20
128.5716
0
VERTEX
8
CUT
10
59.5220
20
128.6261
0
VERTEX
8
CUT
10
59.5620
20
128.6784
0
VERTEX
8
CUT
10
60.6711
20
130.0517
0
VERTEX
8
CUT
10
60.7114
20
130.0992
0
VERTEX
8
CUT
10
60.7542
20
130.1445
0
VERTEX
8
CUT
10
63.3460
20
132.7539
0
VERTEX
8
CUT
10
63.4104
20
132.8141
0
VERTEX
8
CUT
10
63.4789
20
132.8695
0
VERTEX
8
CUT
10
65.8400
20
134.6401
0
VERTEX
8
CUT
10
65.8578
20
134.6526
0
VERTEX
8
CUT
10
65.9364
20
134.6989
0
VERTEX
8
CUT
10
65.9560
20
134.7084
0
VERTEX
8
CUT
10
68.4474
20
135.8224
0
VERTEX
8
CUT
10
68.4628
20
135.8288
0
VERTEX
8
CUT
10
68.5288
20
135.8518
0
VERTEX
8
CUT
10
68.5448
20
135.8563
0
VERTEX
8
CUT
10
69.7884
20
136.1739
0
VERTEX
8
CUT
10
69.8068
20
136.1781
0
VERTEX
8
CUT
10
69.8458
20
136.1841
0
VERTEX
8
CUT
10
69.8848
20
136.1786
0
VERTEX
8
CUT
10
69.9033
20
136.1746
0
VERTEX
8
CUT
10
71.1455
20
135.8740
0
VERTEX
8
CUT
10
71.1683
20
135.8677
0
VERTEX
8
CUT
10
71.2613
20
135.8328
0
VERTEX
8
CUT
10
71.2826
20
135.8226
0
VERTEX
8
CUT
10
71.8669
20
135.5182
0
VERTEX
8
CUT
10
71.8853
20
135.5080
0
VERTEX
8
CUT
10
71.9219
20
135.4836
0
VERTEX
8
CUT
10
71.9443
20
135.4648
0
VERTEX
8
CUT
10
71.9556
20
135.4554
0
VERTEX
8
CUT
10
71.9706
20
135.4407
0
VERTEX
8
CUT
10
72.0154
20
135.3941
0
VERTEX
8
CUT
10
72.5379
20
134.8518
0
VERTEX
8
CUT
10
72.5519
20
134.8364
0
VERTEX
8
CUT
10
72.5787
20
134.8019
0
VERTEX
8
CUT
10
72.6016
20
134.7647
0
VERTEX
8
CUT
10
72.6111
20
134.7462
0
VERTEX
8
CUT
10
72.8909
20
134.1597
0
VERTEX
8
CUT
10
72.8989
20
134.1418
0
VERTEX
8
CUT
10
72.9128
20
134.1032
0
VERTEX
8
CUT
10
72.9186
20
134.0627
0
VERTEX
8
CUT
10
72.9199
20
134.0431
0
VERTEX
8
CUT
10
72.9360
20
133.6537
0
VERTEX
8
CUT
10
72.9489
20
133.3438
0
VERTEX
8
CUT
10
72.9492
20
133.3241
0
VERTEX
8
CUT
10
72.9468
20
133.2831
0
VERTEX
8
CUT
10
72.9361
20
133.2435
0
VERTEX
8
CUT
10
72.9296
20
133.2249
0
VERTEX
8
CUT
10
71.3126
20
128.9729
0
VERTEX
8
CUT
10
71.2236
20
128.6888
0
VERTEX
8
CUT
10
70.8783
20
127.3035
0
VERTEX
8
CUT
10
70.7727
20
127.0330
0
VERTEX
8
CUT
10
70.6926
20
126.7923
0
VERTEX
8
CUT
10
70.6373
20
126.5447
0
VERTEX
8
CUT
10
70.5242
20
125.8825
0
VERTEX
8
CUT
10
70.4399
20
125.5441
0
VERTEX
8
CUT
10
70.3790
20
125.1975
0
VERTEX
8
CUT
10
70.3354
20
124.7766
0
VERTEX
8
CUT
10
70.1414
20
123.6410
0
VERTEX
8
CUT
10
70.1149
20
123.4331
0
VERTEX
8
CUT
10
70.1058
20
123.2238
0
VERTEX
8
CUT
10
70.1048
20
122.5539
0
VERTEX
8
CUT
10
70.0962
20
122.4710
0
VERTEX
8
CUT
10
70.0832
20
122.1752
0
VERTEX
8
CUT
10
70.1024
20
120.9034
0
VERTEX
8
CUT
10
70.0985
20
118.1549
0
VERTEX
8
CUT
10
70.1234
20
117.7997
0
VERTEX
8
CUT
10
70.1390
20
117.6894
0
VERTEX
8
CUT
10
70.1442
20
117.5654
0
VERTEX
8
CUT
10
70.1932
20
117.2669
0
VERTEX
8
CUT
10
70.2088
20
117.1984
0
VERTEX
8
CUT
10
70.3682
20
116.0762
0
VERTEX
8
CUT
10
70.4100
20
115.8542
0
VERTEX
8
CUT
10
70.4717
20
115.6369
0
VERTEX
8
CUT
10
70.4727
20
115.6339
0
VERTEX
8
CUT
10
70.4736
20
115.6308
0
VERTEX
8
CUT
10
70.7605
20
114.7685
0
VERTEX
8
CUT
10
70.9339
20
114.0050
0
VERTEX
8
CUT
10
71.0220
20
113.7053
0
VERTEX
8
CUT
10
71.4253
20
112.5946
0
VERTEX
8
CUT
10
71.5212
20
112.3665
0
VERTEX
8
CUT
10
71.6212
20
112.1819
0
VERTEX
8
CUT
10
72.0534
20
110.8830
0
VERTEX
8
CUT
10
72.1358
20
110.6687
0
VERTEX
8
CUT
10
72.2376
20
110.4629
0
VERTEX
8
CUT
10
72.8755
20
109.3087
0
VERTEX
8
CUT
10
72.9004
20
109.2582
0
VERTEX
8
CUT
10
72.9004
20
109.2556
0
VERTEX
8
CUT
10
72.8835
20
109.1996
0
VERTEX
8
CUT
10
72.8753
20
109.1764
0
VERTEX
8
CUT
10
72.8737
20
109.1721
0
VERTEX
8
CUT
10
72.8701
20
109.1618
0
VERTEX
8
CUT
10
72.8619
20
109.1385
0
VERTEX
8
CUT
10
72.8556
20
109.1219
0
VERTEX
8
CUT
10
72.8403
20
109.0886
0
VERTEX
8
CUT
10
72.8195
20
109.0588
0
VERTEX
8
CUT
10
72.8083
20
109.0448
0
VERTEX
8
CUT
10
72.2881
20
108.4256
0
VERTEX
8
CUT
10
72.1163
20
108.1954
0
VERTEX
8
CUT
10
71.9721
20
107.9471
0
VERTEX
8
CUT
10
71.9210
20
107.8462
0
VERTEX
8
CUT
10
71.8225
20
107.6259
0
VERTEX
8
CUT
10
71.7457
20
107.3972
0
VERTEX
8
CUT
10
71.6913
20
107.1621
0
VERTEX
8
CUT
10
71.6598
20
106.9228
0
VERTEX
8
CUT
10
71.6516
20
106.6817
0
VERTEX
8
CUT
10
71.6666
20
106.4408
0
VERTEX
8
CUT
10
71.7048
20
106.2025
0
VERTEX
8
CUT
10
71.7657
20
105.9691
0
VERTEX
8
CUT
10
71.8489
20
105.7425
0
VERTEX
8
CUT
10
71.9536
20
105.5251
0
VERTEX
8
CUT
10
72.0787
20
105.3188
0
VERTEX
8
CUT
10
72.2232
20
105.1254
0
VERTEX
8
CUT
10
72.3856
20
104.9470
0
VERTEX
8
CUT
10
72.5644
20
104.7850
0
VERTEX
8
CUT
10
72.7581
20
104.6410
0
VERTEX
8
CUT
10
72.9647
20
104.5163
0
VERTEX
8
CUT
10
73.1824
20
104.4122
0
VERTEX
8
CUT
10
73.4091
20
104.3295
0
VERTEX
8
CUT
10
73.6427
20
104.2690
0
VERTEX
8
CUT
10
73.8811
20
104.2314
0
VERTEX
8
CUT
10
74.1220
20
104.2169
0
VERTEX
8
CUT
10
74.3631
20
104.2258
0
VERTEX
8
CUT
10
74.5953
20
104.2568
0
VERTEX
8
CUT
10
74.6373
20
104.2605
0
VERTEX
8
CUT
10
74.6559
20
104.2608
0
VERTEX
8
CUT
10
77.1057
20
104.2448
0
VERTEX
8
CUT
10
77.1259
20
104.2441
0
VERTEX
8
CUT
10
77.1674
20
104.2396
0
VERTEX
8
CUT
10
77.2071
20
104.2267
0
VERTEX
8
CUT
10
77.2258
20
104.2190
0
VERTEX
8
CUT
10
77.4183
20
104.1339
0
VERTEX
8
CUT
10
77.6491
20
104.0453
0
VERTEX
8
CUT
10
77.8874
20
103.9799
0
VERTEX
8
CUT
10
78.1310
20
103.9384
0
VERTEX
8
CUT
10
78.3776
20
103.9211
0
VERTEX
8
CUT
10
78.6246
20
103.9282
0
VERTEX
8
CUT
10
78.8698
20
103.9597
0
VERTEX
8
CUT
10
79.1106
20
104.0153
0
VERTEX
8
CUT
10
79.3448
20
104.0944
0
VERTEX
8
CUT
10
79.5700
20
104.1962
0
VERTEX
8
CUT
10
80.2340
20
104.5368
0
VERTEX
8
CUT
10
80.5384
20
104.7214
0
VERTEX
8
CUT
10
83.1207
20
106.5514
0
VERTEX
8
CUT
10
83.2751
20
106.6701
0
VERTEX
8
CUT
10
83.4198
20
106.8004
0
VERTEX
8
CUT
10
85.3420
20
108.6730
0
VERTEX
8
CUT
10
85.4933
20
108.8341
0
VERTEX
8
CUT
10
85.6298
20
109.0079
0
VERTEX
8
CUT
10
86.1125
20
109.6818
0
VERTEX
8
CUT
10
86.2222
20
109.8486
0
VERTEX
8
CUT
10
86.3182
20
110.0236
0
VERTEX
8
CUT
10
87.8327
20
113.0662
0
VERTEX
8
CUT
10
87.9175
20
113.2559
0
VERTEX
8
CUT
10
87.9862
20
113.4520
0
VERTEX
8
CUT
10
88.0384
20
113.6531
0
VERTEX
8
CUT
10
88.5240
20
115.9043
0
VERTEX
8
CUT
10
88.5689
20
116.1941
0
VERTEX
8
CUT
10
88.5796
20
116.4871
0
VERTEX
8
CUT
10
88.5630
20
117.2290
0
VERTEX
8
CUT
10
88.5644
20
117.2818
0
VERTEX
8
CUT
10
88.5975
20
117.2406
0
VERTEX
8
CUT
10
89.7352
20
115.6746
0
VERTEX
8
CUT
10
89.7710
20
115.6226
0
VERTEX
8
CUT
10
89.7843
20
115.6022
0
VERTEX
8
CUT
10
89.8459
20
115.4964
0
VERTEX
8
CUT
10
89.8951
20
115.3881
0
VERTEX
8
CUT
10
89.9331
20
115.2755
0
VERTEX
8
CUT
10
89.9595
20
115.1596
0
VERTEX
8
CUT
10
89.9746
20
115.0380
0
VERTEX
8
CUT
10
89.9764
20
115.0137
0
VERTEX
8
CUT
10
89.9794
20
114.9507
0
VERTEX
8
CUT
10
90.0208
20
113.0947
0
VERTEX
8
CUT
10
90.0546
20
111.5756
0
VERTEX
8
CUT
10
90.0541
20
111.5023
0
VERTEX
8
CUT
10
90.0531
20
111.4741
0
VERTEX
8
CUT
10
90.0392
20
111.3282
0
VERTEX
8
CUT
10
90.0348
20
111.3003
0
VERTEX
8
CUT
10
90.0215
20
111.2282
0
VERTEX
8
CUT
10
89.4920
20
108.7734
0
VERTEX
8
CUT
10
89.4800
20
108.7229
0
VERTEX
8
CUT
10
89.4750
20
108.7035
0
VERTEX
8
CUT
10
89.4456
20
108.6069
0
VERTEX
8
CUT
10
89.4083
20
108.5132
0
VERTEX
8
CUT
10
89.4001
20
108.4949
0
VERTEX
8
CUT
10
89.3779
20
108.4479
0
VERTEX
8
CUT
10
87.7954
20
105.2686
0
VERTEX
8
CUT
10
87.7723
20
105.2244
0
VERTEX
8
CUT
10
87.7630
20
105.2075
0
VERTEX
8
CUT
10
87.7116
20
105.1220
0
VERTEX
8
CUT
10
87.7010
20
105.1059
0
VERTEX
8
CUT
10
87.6727
20
105.0648
0
VERTEX
8
CUT
10
87.1035
20
104.2701
0
VERTEX
8
CUT
10
87.0704
20
104.2259
0
VERTEX
8
CUT
10
87.0572
20
104.2092
0
VERTEX
8
CUT
10
86.9852
20
104.1254
0
VERTEX
8
CUT
10
86.9706
20
104.1098
0
VERTEX
8
CUT
10
86.9319
20
104.0704
0
VERTEX
8
CUT
10
84.9276
20
102.1179
0
VERTEX
8
CUT
10
84.8921
20
102.0846
0
VERTEX
8
CUT
10
84.8781
20
102.0720
0
VERTEX
8
CUT
10
84.8033
20
102.0097
0
VERTEX
8
CUT
10
84.7884
20
101.9982
0
VERTEX
8
CUT
10
84.7492
20
101.9693
0
VERTEX
8
CUT
10
82.1120
20
100.1005
0
VERTEX
8
CUT
10
82.0376
20
100.0516
0
VERTEX
8
CUT
10
81.9702
20
100.0107
0
VERTEX
8
CUT
10
81.8925
20
99.9673
0
VERTEX
8
CUT
10
80.9184
20
99.4676
0
VERTEX
8
CUT
10
80.8617
20
99.4403
0
VERTEX
8
CUT
10
80.8108
20
99.4173
0
VERTEX
8
CUT
10
80.7527
20
99.3929
0
VERTEX
8
CUT
10
80.5424
20
99.3106
0
VERTEX
8
CUT
10
80.4845
20
99.2895
0
VERTEX
8
CUT
10
80.4619
20
99.2820
0
VERTEX
8
CUT
10
80.3468
20
99.2495
0
VERTEX
8
CUT
10
80.2324
20
99.2292
0
VERTEX
8
CUT
10
80.1166
20
99.2203
0
VERTEX
8
CUT
10
80.0005
20
99.2228
0
VERTEX
8
CUT
10
79.8852
20
99.2367
0
VERTEX
8
CUT
10
79.7718
20
99.2619
0
VERTEX
8
CUT
10
79.6582
20
99.2993
0
VERTEX
8
CUT
10
79.6360
20
99.3078
0
VERTEX
8
CUT
10
79.5790
20
99.3313
0
VERTEX
8
CUT
10
79.3133
20
99.4487
0
VERTEX
8
CUT
10
79.0743
20
99.5400
0
VERTEX
8
CUT
10
78.8272
20
99.6064
0
VERTEX
8
CUT
10
78.5746
20
99.6472
0
VERTEX
8
CUT
10
78.3192
20
99.6620
0
VERTEX
8
CUT
10
76.7882
20
99.6720
0
VERTEX
8
CUT
10
76.5536
20
99.6626
0
VERTEX
8
CUT
10
76.3209
20
99.6311
0
VERTEX
8
CUT
10
76.0921
20
99.5779
0
VERTEX
8
CUT
10
75.8694
20
99.5035
0
VERTEX
8
CUT
10
75.7570
20
99.4600
0
VERTEX
8
CUT
10
75.5335
20
99.3607
0
VERTEX
8
CUT
10
75.3207
20
99.2399
0
VERTEX
8
CUT
10
75.1207
20
99.0989
0
VERTEX
8
CUT
10
74.9355
20
98.9391
0
VERTEX
8
CUT
10
74.7668
20
98.7619
0
VERTEX
8
CUT
10
74.6162
20
98.5690
0
VERTEX
8
CUT
10
74.4852
20
98.3624
0
VERTEX
8
CUT
10
74.3750
20
98.1439
0
VERTEX
8
CUT
10
74.2867
20
97.9158
0
VERTEX
8
CUT
10
74.2211
20
97.6800
0
VERTEX
8
CUT
10
74.1789
20
97.4390
0
VERTEX
8
CUT
10
74.1604
20
97.1951
0
VERTEX
8
CUT
10
74.1659
20
96.9505
0
VERTEX
8
CUT
10
74.1952
20
96.7076
0
VERTEX
8
CUT
10
74.2482
20
96.4687
0
VERTEX
8
CUT
10
74.3242
20
96.2361
0
VERTEX
8
CUT
10
74.4227
20
96.0121
0
VERTEX
8
CUT
10
75.5435
20
93.7666
0
VERTEX
8
CUT
10
75.5982
20
93.6631
0
VERTEX
8
CUT
10
76.9299
20
91.2810
0
VERTEX
8
CUT
10
77.0401
20
91.1020
0
VERTEX
8
CUT
10
77.1649
20
90.9329
0
VERTEX
8
CUT
10
81.1362
20
86.0017
0
VERTEX
8
CUT
10
81.1467
20
85.9880
0
VERTEX
8
CUT
10
81.1870
20
85.9278
0
VERTEX
8
CUT
10
81.1957
20
85.9128
0
VERTEX
8
CUT
10
82.1079
20
84.2476
0
VERTEX
8
CUT
10
82.1168
20
84.2303
0
VERTEX
8
CUT
10
82.1326
20
84.1929
0
VERTEX
8
CUT
10
82.1367
20
84.1526
0
VERTEX
8
CUT
10
82.1371
20
84.1331
0
VERTEX
8
CUT
10
82.1357
20
82.3363
0
VERTEX
8
CUT
10
82.1352
20
82.3166
0
VERTEX
8
CUT
10
82.1268
20
82.2345
0
VERTEX
8
CUT
10
82.1234
20
82.2151
0
VERTEX
8
CUT
10
81.7884
20
80.5833
0
VERTEX
8
CUT
10
81.7846
20
80.5668
0
VERTEX
8
CUT
10
81.7745
20
80.5330
0
VERTEX
8
CUT
10
81.7590
20
80.5017
0
VERTEX
8
CUT
10
81.7504
20
80.4870
0
VERTEX
8
CUT
10
80.0473
20
77.7002
0
VERTEX
8
CUT
10
80.0348
20
77.6809
0
VERTEX
8
CUT
10
79.9752
20
77.6052
0
VERTEX
8
CUT
10
79.9595
20
77.5885
0
VERTEX
8
CUT
10
78.2617
20
75.8865
0
VERTEX
8
CUT
10
78.2493
20
75.8746
0
VERTEX
8
CUT
10
78.2217
20
75.8515
0
VERTEX
8
CUT
10
78.1908
20
75.8337
0
VERTEX
8
CUT
10
78.1752
20
75.8261
0
VERTEX
8
CUT
10
74.9547
20
74.3357
0
VERTEX
8
CUT
10
74.9395
20
74.3290
0
VERTEX
8
CUT
10
74.9067
20
74.3171
0
VERTEX
8
CUT
10
74.8760
20
74.3088
0
VERTEX
8
CUT
10
74.8520
20
74.3039
0
VERTEX
8
CUT
10
71.4626
20
73.6945
0
VERTEX
8
CUT
10
71.1129
20
73.6051
0
VERTEX
8
CUT
10
67.9495
20
72.5483
0
VERTEX
8
CUT
10
67.6194
20
72.4111
0
VERTEX
8
CUT
10
66.2574
20
71.7268
0
VERTEX
8
CUT
10
65.9834
20
71.5667
0
VERTEX
8
CUT
10
64.5143
20
70.5776
0
VERTEX
8
CUT
10
64.2501
20
70.3727
0
VERTEX
8
CUT
10
61.6387
20
68.0526
0
VERTEX
8
CUT
10
61.4700
20
67.8879
0
VERTEX
8
CUT
10
61.3176
20
67.7080
0
VERTEX
8
CUT
10
59.6122
20
65.4910
0
VERTEX
8
CUT
10
59.4966
20
65.3277
0
VERTEX
8
CUT
10
59.3945
20
65.1555
0
VERTEX
8
CUT
10
57.5940
20
61.8249
0
VERTEX
8
CUT
10
57.4934
20
61.6162
0
VERTEX
8
CUT
10
57.4126
20
61.3992
0
VERTEX
8
CUT
10
55.2407
20
54.6239
0
VERTEX
8
CUT
10
55.1734
20
54.3678
0
VERTEX
8
CUT
10
55.1335
20
54.1060
0
VERTEX
8
CUT
10
55.0951
20
53.7175
0
VERTEX
8
CUT
10
55.0831
20
53.4751
0
VERTEX
8
CUT
10
55.0946
20
53.2327
0
VERTEX
8
CUT
10
55.1295
20
52.9925
0
VERTEX
8
CUT
10
55.1876
20
52.7569
0
VERTEX
8
CUT
10
55.2682
20
52.5280
0
VERTEX
8
CUT
10
55.3707
20
52.3080
0
VERTEX
8
CUT
10
55.4427
20
52.1860
0
VERTEX
8
CUT
10
55.2340
20
52.1023
0
VERTEX
8
CUT
10
55.0193
20
51.9909
0
VERTEX
8
CUT
10
54.8163
20
51.8593
0
VERTEX
8
CUT
10
54.6270
20
51.7087
0
VERTEX
8
CUT
10
54.4532
20
51.5406
0
VERTEX
8
CUT
10
54.2964
20
51.3564
0
VERTEX
8
CUT
10
54.1582
20
51.1579
0
VERTEX
8
CUT
10
54.0397
20
50.9470
0
VERTEX
8
CUT
10
52.2168
20
47.2977
0
VERTEX
8
CUT
10
52.1796
20
47.2288
0
VERTEX
8
CUT
10
52.1379
20
47.1624
0
VERTEX
8
CUT
10
51.0163
20
45.4961
0
VERTEX
8
CUT
10
50.9827
20
45.4487
0
VERTEX
8
CUT
10
50.9469
20
45.4029
0
VERTEX
8
CUT
10
49.4778
20
43.6165
0
VERTEX
8
CUT
10
49.4350
20
43.5673
0
VERTEX
8
CUT
10
49.3897
20
43.5205
0
VERTEX
8
CUT
10
47.5888
20
41.7562
0
VERTEX
8
CUT
10
47.5260
20
41.6989
0
VERTEX
8
CUT
10
47.4593
20
41.6461
0
VERTEX
8
CUT
10
44.3371
20
39.3464
0
VERTEX
8
CUT
10
44.2658
20
39.2977
0
VERTEX
8
CUT
10
44.1913
20
39.2542
0
VERTEX
8
CUT
10
40.9275
20
37.5030
0
VERTEX
8
CUT
10
40.7096
20
37.3715
0
VERTEX
8
CUT
10
38.4200
20
35.8241
0
VERTEX
8
CUT
10
38.2397
20
35.6901
0
VERTEX
8
CUT
10
38.0721
20
35.5404
0
VERTEX
8
CUT
10
35.7000
20
33.2212
0
VERTEX
8
CUT
10
35.4814
20
32.9774
0
VERTEX
8
CUT
10
34.6504
20
31.9190
0
VERTEX
8
CUT
10
34.5066
20
31.7158
0
VERTEX
8
CUT
10
34.3838
20
31.4994
0
VERTEX
8
CUT
10
33.1576
20
29.0639
0
VERTEX
8
CUT
10
33.0474
20
28.8111
0
VERTEX
8
CUT
10
32.9656
20
28.5477
0
VERTEX
8
CUT
10
32.7577
20
27.7183
0
VERTEX
8
CUT
10
32.7124
20
27.4951
0
VERTEX
8
CUT
10
32.4602
20
25.8768
0
VERTEX
8
CUT
10
32.4374
20
25.6791
0
VERTEX
8
CUT
10
32.4304
20
25.4803
0
VERTEX
8
CUT
10
32.4393
20
23.5628
0
VERTEX
8
CUT
10
32.4479
20
23.3665
0
VERTEX
8
CUT
10
32.4719
20
23.1715
0
VERTEX
8
CUT
10
32.7049
20
21.7448
0
VERTEX
8
CUT
10
32.7454
20
21.5474
0
VERTEX
8
CUT
10
32.8016
20
21.3540
0
VERTEX
8
CUT
10
33.2762
20
19.9365
0
VERTEX
8
CUT
10
33.4146
20
19.6046
0
VERTEX
8
CUT
10
34.0992
20
18.2469
0
VERTEX
8
CUT
10
34.1963
20
18.0721
0
VERTEX
8
CUT
10
34.3071
20
17.9056
0
VERTEX
8
CUT
10
35.5479
20
16.1932
0
VERTEX
8
CUT
10
35.7318
20
15.9682
0
VERTEX
8
CUT
10
35.9406
20
15.7660
0
VERTEX
8
CUT
10
37.7209
20
14.2322
0
VERTEX
8
CUT
10
37.9172
20
14.0795
0
VERTEX
8
CUT
10
38.1277
20
13.9469
0
VERTEX
8
CUT
10
40.2553
20
12.7510
0
VERTEX
8
CUT
10
40.4717
20
12.6428
0
VERTEX
8
CUT
10
40.6975
20
12.5560
0
VERTEX
8
CUT
10
41.9718
20
12.1359
0
VERTEX
8
CUT
10
42.1958
20
12.0735
0
VERTEX
8
CUT
10
42.4246
20
12.0321
0
VERTEX
8
CUT
10
42.6562
20
12.0121
0
VERTEX
8
CUT
10
43.3920
20
11.9832
0
VERTEX
8
CUT
10
43.4125
20
11.9818
0
VERTEX
8
CUT
10
43.4550
20
11.9756
0
VERTEX
8
CUT
10
43.4966
20
11.9650
0
VERTEX
8
CUT
10
43.5160
20
11.9584
0
VERTEX
8
CUT
10
43.7061
20
11.8878
0
VERTEX
8
CUT
10
43.9175
20
11.8198
0
VERTEX
8
CUT
10
44.1340
20
11.7709
0
VERTEX
8
CUT
10
44.3540
20
11.7413
0
VERTEX
8
CUT
10
44.5758
20
11.7314
0
VERTEX
8
CUT
10
45.1364
20
11.7313
0
VERTEX
8
CUT
10
45.3637
20
11.7416
0
VERTEX
8
CUT
10
45.5891
20
11.7725
0
VERTEX
8
CUT
10
45.8108
20
11.8238
0
VERTEX
8
CUT
10
46.0269
20
11.8951
0
VERTEX
8
CUT
10
46.1701
20
11.9497
0
VERTEX
8
CUT
10
46.1895
20
11.9564
0
VERTEX
8
CUT
10
46.2310
20
11.9674
0
VERTEX
8
CUT
10
46.2734
20
11.9740
0
VERTEX
8
CUT
10
46.2938
20
11.9755
0
VERTEX
8
CUT
10
47.3163
20
12.0246
0
VERTEX
8
CUT
10
47.5515
20
12.0471
0
VERTEX
8
CUT
10
47.7835
20
12.0916
0
VERTEX
8
CUT
10
48.0103
20
12.1579
0
VERTEX
8
CUT
10
48.2298
20
12.2453
0
VERTEX
8
CUT
10
50.6822
20
13.3586
0
VERTEX
8
CUT
10
50.9163
20
13.4801
0
VERTEX
8
CUT
10
51.1363
20
13.6257
0
VERTEX
8
CUT
10
53.0887
20
15.0710
0
VERTEX
8
CUT
10
53.3068
20
15.2526
0
VERTEX
8
CUT
10
53.5030
20
15.4577
0
VERTEX
8
CUT
10
55.0398
20
17.2589
0
VERTEX
8
CUT
10
55.1863
20
17.4483
0
VERTEX
8
CUT
10
55.3140
20
17.6508
0
VERTEX
8
CUT
10
56.5809
20
19.8907
0
VERTEX
8
CUT
10
56.6894
20
20.1063
0
VERTEX
8
CUT
10
56.7767
20
20.3314
0
VERTEX
8
CUT
10
57.5098
20
22.5320
0
VERTEX
8
CUT
10
57.5985
20
22.8801
0
VERTEX
8
CUT
10
58.0496
20
25.3910
0
VERTEX
8
CUT
10
58.0774
20
25.5923
0
VERTEX
8
CUT
10
58.0887
20
25.7952
0
VERTEX
8
CUT
10
58.1683
20
31.0423
0
VERTEX
8
CUT
10
58.1517
20
31.3702
0
VERTEX
8
CUT
10
57.9072
20
33.4641
0
VERTEX
8
CUT
10
57.9016
20
33.5267
0
VERTEX
8
CUT
10
57.8991
20
33.5895
0
VERTEX
8
CUT
10
57.8624
20
36.4942
0
VERTEX
8
CUT
10
57.8517
20
36.6957
0
VERTEX
8
CUT
10
57.8248
20
36.8957
0
VERTEX
8
CUT
10
57.6217
20
38.0507
0
VERTEX
8
CUT
10
57.6191
20
38.0676
0
VERTEX
8
CUT
10
57.6129
20
38.1386
0
VERTEX
8
CUT
10
57.6125
20
38.1557
0
VERTEX
8
CUT
10
57.6123
20
42.0748
0
VERTEX
8
CUT
10
57.6127
20
42.0923
0
VERTEX
8
CUT
10
57.6193
20
42.1655
0
VERTEX
8
CUT
10
57.6220
20
42.1828
0
VERTEX
8
CUT
10
57.8276
20
43.3181
0
VERTEX
8
CUT
10
57.8543
20
43.5057
0
VERTEX
8
CUT
10
57.8667
20
43.6948
0
VERTEX
8
CUT
10
57.9240
20
45.7753
0
VERTEX
8
CUT
10
57.9251
20
45.7946
0
VERTEX
8
CUT
10
57.9353
20
45.8749
0
VERTEX
8
CUT
10
57.9391
20
45.8939
0
VERTEX
8
CUT
10
58.7131
20
49.2715
0
VERTEX
8
CUT
10
58.7556
20
49.5096
0
VERTEX
8
CUT
10
58.7750
20
49.7507
0
VERTEX
8
CUT
10
58.7709
20
49.9925
0
VERTEX
8
CUT
10
58.7435
20
50.2328
0
VERTEX
8
CUT
10
58.6931
20
50.4694
0
VERTEX
8
CUT
10
58.6199
20
50.6999
0
VERTEX
8
CUT
10
58.5249
20
50.9223
0
VERTEX
8
CUT
10
58.4177
20
51.1183
0
VERTEX
8
CUT
10
58.4877
20
51.1416
0
VERTEX
8
CUT
10
58.7094
20
51.2403
0
VERTEX
8
CUT
10
58.9205
20
51.3600
0
VERTEX
8
CUT
10
59.1190
20
51.4996
0
VERTEX
8
CUT
10
59.3030
20
51.6578
0
VERTEX
8
CUT
10
59.4708
20
51.8331
0
VERTEX
8
CUT
10
59.6208
20
52.0239
0
VERTEX
8
CUT
10
59.7517
20
52.2283
0
VERTEX
8
CUT
10
59.8620
20
52.4444
0
VERTEX
8
CUT
10
60.8010
20
54.5265
0
VERTEX
8
CUT
10
60.8356
20
54.5969
0
VERTEX
8
CUT
10
60.8746
20
54.6650
0
VERTEX
8
CUT
10
61.7066
20
56.0128
0
VERTEX
8
CUT
10
61.7482
20
56.0757
0
VERTEX
8
CUT
10
61.7936
20
56.1358
0
VERTEX
8
CUT
10
63.0062
20
57.6437
0
VERTEX
8
CUT
10
63.0501
20
57.6953
0
VERTEX
8
CUT
10
63.0967
20
57.7443
0
VERTEX
8
CUT
10
65.5738
20
60.2044
0
VERTEX
8
CUT
10
65.5773
20
60.2078
0
VERTEX
8
CUT
10
65.6325
20
60.2554
0
VERTEX
8
CUT
10
65.6460
20
60.2657
0
VERTEX
8
CUT
10
66.7152
20
61.0499
0
VERTEX
8
CUT
10
66.7198
20
61.0531
0
VERTEX
8
CUT
10
66.7902
20
61.0965
0
VERTEX
8
CUT
10
66.8072
20
61.1056
0
VERTEX
8
CUT
10
68.4868
20
61.9450
0
VERTEX
8
CUT
10
68.5346
20
61.9677
0
VERTEX
8
CUT
10
68.5835
20
61.9882
0
VERTEX
8
CUT
10
69.9828
20
62.5410
0
VERTEX
8
CUT
10
70.0033
20
62.5485
0
VERTEX
8
CUT
10
70.0918
20
62.5724
0
VERTEX
8
CUT
10
70.1133
20
62.5764
0
VERTEX
8
CUT
10
72.1159
20
62.8836
0
VERTEX
8
CUT
10
72.1333
20
62.8859
0
VERTEX
8
CUT
10
72.1701
20
62.8881
0
VERTEX
8
CUT
10
72.2062
20
62.8838
0
VERTEX
8
CUT
10
72.2237
20
62.8805
0
VERTEX
8
CUT
10
73.7542
20
62.5559
0
VERTEX
8
CUT
10
73.7704
20
62.5521
0
VERTEX
8
CUT
10
73.8039
20
62.5419
0
VERTEX
8
CUT
10
73.8365
20
62.5289
0
VERTEX
8
CUT
10
73.8511
20
62.5219
0
VERTEX
8
CUT
10
74.8656
20
62.0126
0
VERTEX
8
CUT
10
74.8829
20
62.0034
0
VERTEX
8
CUT
10
74.9175
20
61.9814
0
VERTEX
8
CUT
10
74.9497
20
61.9561
0
VERTEX
8
CUT
10
74.9641
20
61.9429
0
VERTEX
8
CUT
10
76.6863
20
60.2837
0
VERTEX
8
CUT
10
76.7000
20
60.2698
0
VERTEX
8
CUT
10
76.7265
20
60.2387
0
VERTEX
8
CUT
10
76.7496
20
60.2051
0
VERTEX
8
CUT
10
76.7595
20
60.1883
0
VERTEX
8
CUT
10
77.4708
20
58.8975
0
VERTEX
8
CUT
10
77.4732
20
58.8928
0
VERTEX
8
CUT
10
77.4940
20
58.8470
0
VERTEX
8
CUT
10
77.5024
20
58.8229
0
VERTEX
8
CUT
10
77.5090
20
58.8000
0
VERTEX
8
CUT
10
78.1663
20
56.2756
0
VERTEX
8
CUT
10
78.1949
20
56.0758
0
VERTEX
8
CUT
10
78.2458
20
55.8597
0
VERTEX
8
CUT
10
78.3529
20
55.4807
0
VERTEX
8
CUT
10
78.4020
20
53.8863
0
VERTEX
8
CUT
10
78.4017
20
53.6896
0
VERTEX
8
CUT
10
78.4012
20
53.4282
0
VERTEX
8
CUT
10
78.4010
20
53.3073
0
VERTEX
8
CUT
10
78.4005
20
52.9912
0
VERTEX
8
CUT
10
78.1882
20
51.8721
0
VERTEX
8
CUT
10
78.1583
20
51.6693
0
VERTEX
8
CUT
10
78.1451
20
51.4648
0
VERTEX
8
CUT
10
78.1058
20
49.7870
0
VERTEX
8
CUT
10
78.1050
20
49.7695
0
VERTEX
8
CUT
10
78.1008
20
49.7329
0
VERTEX
8
CUT
10
78.0903
20
49.6981
0
VERTEX
8
CUT
10
78.0840
20
49.6815
0
VERTEX
8
CUT
10
78.0378
20
49.5671
0
VERTEX
8
CUT
10
77.9634
20
49.3565
0
VERTEX
8
CUT
10
77.9081
20
49.1400
0
VERTEX
8
CUT
10
77.8724
20
48.9196
0
VERTEX
8
CUT
10
77.8564
20
48.6968
0
VERTEX
8
CUT
10
77.8258
20
47.5505
0
VERTEX
8
CUT
10
77.8246
20
47.5283
0
VERTEX
8
CUT
10
77.8181
20
47.4823
0
VERTEX
8
CUT
10
77.8064
20
47.4373
0
VERTEX
8
CUT
10
77.7990
20
47.4164
0
VERTEX
8
CUT
10
77.7251
20
47.2256
0
VERTEX
8
CUT
10
77.6414
20
46.9688
0
VERTEX
8
CUT
10
77.5858
20
46.7045
0
VERTEX
8
CUT
10
77.5591
20
46.4358
0
VERTEX
8
CUT
10
77.5257
20
45.6963
0
VERTEX
8
CUT
10
77.5245
20
45.6781
0
VERTEX
8
CUT
10
77.5193
20
45.6405
0
VERTEX
8
CUT
10
77.5071
20
45.6046
0
VERTEX
8
CUT
10
77.5001
20
45.5878
0
VERTEX
8
CUT
10
77.4948
20
45.5759
0
VERTEX
8
CUT
10
77.4932
20
45.5722
0
VERTEX
8
CUT
10
77.4055
20
45.3461
0
VERTEX
8
CUT
10
77.3401
20
45.1126
0
VERTEX
8
CUT
10
77.2976
20
44.8739
0
VERTEX
8
CUT
10
77.2785
20
44.6321
0
VERTEX
8
CUT
10
77.2424
20
43.4469
0
VERTEX
8
CUT
10
77.2416
20
43.4417
0
VERTEX
8
CUT
10
77.2302
20
43.3974
0
VERTEX
8
CUT
10
77.2230
20
43.3768
0
VERTEX
8
CUT
10
77.1485
20
43.1818
0
VERTEX
8
CUT
10
77.0651
20
42.9218
0
VERTEX
8
CUT
10
77.0106
20
42.6542
0
VERTEX
8
CUT
10
76.9856
20
42.3823
0
VERTEX
8
CUT
10
76.9486
20
41.3850
0
VERTEX
8
CUT
10
76.9446
20
41.3719
0
VERTEX
8
CUT
10
76.9384
20
41.3556
0
VERTEX
8
CUT
10
76.8849
20
41.2248
0
VERTEX
8
CUT
10
76.8114
20
41.0198
0
VERTEX
8
CUT
10
76.7559
20
40.8093
0
VERTEX
8
CUT
10
76.7191
20
40.5946
0
VERTEX
8
CUT
10
76.7010
20
40.3776
0
VERTEX
8
CUT
10
76.6997
20
40.3446
0
VERTEX
8
CUT
10
76.6972
20
40.3141
0
VERTEX
8
CUT
10
76.6882
20
40.0531
0
VERTEX
8
CUT
10
76.6611
20
39.3683
0
VERTEX
8
CUT
10
76.6600
20
39.3506
0
VERTEX
8
CUT
10
76.6576
20
39.3323
0
VERTEX
8
CUT
10
76.6489
20
39.3045
0
VERTEX
8
CUT
10
76.6424
20
39.2880
0
VERTEX
8
CUT
10
76.5808
20
39.1401
0
VERTEX
8
CUT
10
76.4925
20
38.8921
0
VERTEX
8
CUT
10
76.4308
20
38.6361
0
VERTEX
8
CUT
10
76.3964
20
38.3750
0
VERTEX
8
CUT
10
76.2698
20
36.7667
0
VERTEX
8
CUT
10
76.2054
20
36.5645
0
VERTEX
8
CUT
10
76.1502
20
36.2847
0
VERTEX
8
CUT
10
76.1273
20
36.0005
0
VERTEX
8
CUT
10
76.0936
20
34.5626
0
VERTEX
8
CUT
10
76.0925
20
34.5409
0
VERTEX
8
CUT
10
76.0864
20
34.4958
0
VERTEX
8
CUT
10
76.0752
20
34.4517
0
VERTEX
8
CUT
10
76.0682
20
34.4311
0
VERTEX
8
CUT
10
76.0075
20
34.2693
0
VERTEX
8
CUT
10
75.9636
20
34.1282
0
VERTEX
8
CUT
10
75.9438
20
34.0688
0
VERTEX
8
CUT
10
75.9397
20
34.0513
0
VERTEX
8
CUT
10
75.9227
20
33.9968
0
VERTEX
8
CUT
10
75.9072
20
33.9150
0
VERTEX
8
CUT
10
75.8933
20
33.8570
0
VERTEX
8
CUT
10
75.8833
20
33.7894
0
VERTEX
8
CUT
10
75.8695
20
33.7164
0
VERTEX
8
CUT
10
75.8665
20
33.6754
0
VERTEX
8
CUT
10
75.8615
20
33.6416
0
VERTEX
8
CUT
10
75.8504
20
33.4560
0
VERTEX
8
CUT
10
75.8486
20
33.4317
0
VERTEX
8
CUT
10
75.8485
20
33.4242
0
VERTEX
8
CUT
10
75.8128
20
31.2178
0
VERTEX
8
CUT
10
75.8120
20
31.1994
0
VERTEX
8
CUT
10
75.8035
20
31.1225
0
VERTEX
8
CUT
10
75.8002
20
31.1044
0
VERTEX
8
CUT
10
75.6117
20
30.1977
0
VERTEX
8
CUT
10
75.5721
20
29.9415
0
VERTEX
8
CUT
10
75.5593
20
29.6826
0
VERTEX
8
CUT
10
75.5747
20
23.5528
0
VERTEX
8
CUT
10
75.5892
20
23.2895
0
VERTEX
8
CUT
10
75.6314
20
23.0292
0
VERTEX
8
CUT
10
75.6371
20
23.0086
0
VERTEX
8
CUT
10
75.6406
20
22.9849
0
VERTEX
8
CUT
10
75.6980
20
22.7538
0
VERTEX
8
CUT
10
75.7772
20
22.5291
0
VERTEX
8
CUT
10
75.7796
20
22.5232
0
VERTEX
8
CUT
10
75.7866
20
22.5048
0
VERTEX
8
CUT
10
75.7982
20
22.4654
0
VERTEX
8
CUT
10
75.7988
20
22.4621
0
VERTEX
8
CUT
10
75.8032
20
22.4259
0
VERTEX
8
CUT
10
75.8042
20
22.4068
0
VERTEX
8
CUT
10
75.8399
20
20.9284
0
VERTEX
8
CUT
10
75.8615
20
20.6553
0
VERTEX
8
CUT
10
75.9129
20
20.3863
0
VERTEX
8
CUT
10
75.9934
20
20.1245
0
VERTEX
8
CUT
10
76.0021
20
20.1007
0
VERTEX
8
CUT
10
76.1262
20
18.6288
0
VERTEX
8
CUT
10
76.1506
20
18.4325
0
VERTEX
8
CUT
10
76.1904
20
18.2389
0
VERTEX
8
CUT
10
76.6944
20
16.1996
0
VERTEX
8
CUT
10
76.7505
20
16.0065
0
VERTEX
8
CUT
10
77.5198
20
13.7060
0
VERTEX
8
CUT
10
77.6228
20
13.4471
0
VERTEX
8
CUT
10
77.7539
20
13.2013
0
VERTEX
8
CUT
10
79.1844
20
10.8457
0
VERTEX
8
CUT
10
79.3416
20
10.6167
0
VERTEX
8
CUT
10
79.4972
20
10.4366
0
VERTEX
8
CUT
10
79.5682
20
10.3486
0
VERTEX
8
CUT
10
79.7108
20
10.1993
0
VERTEX
8
CUT
10
79.8944
20
10.0222
0
VERTEX
8
CUT
10
80.1217
20
9.7869
0
VERTEX
8
CUT
10
80.2926
20
9.6258
0
VERTEX
8
CUT
10
80.4607
20
9.4949
0
VERTEX
8
CUT
10
80.4836
20
9.4751
0
VERTEX
8
CUT
10
80.6015
20
9.3943
0
VERTEX
8
CUT
10
81.0795
20
9.0568
0
VERTEX
8
CUT
10
81.3262
20
8.9033
0
VERTEX
8
CUT
10
81.5891
20
8.7794
0
VERTEX
8
CUT
10
81.6355
20
8.7608
0
VERTEX
8
CUT
10
81.8099
20
8.6667
0
VERTEX
8
CUT
10
82.0467
20
8.5687
0
VERTEX
8
CUT
10
82.2923
20
8.4955
0
VERTEX
8
CUT
10
82.3002
20
8.4936
0
VERTEX
8
CUT
10
82.5470
20
8.3944
0
VERTEX
8
CUT
10
82.7870
20
8.3119
0
VERTEX
8
CUT
10
83.0341
20
8.2540
0
VERTEX
8
CUT
10
84.0958
20
8.0619
0
VERTEX
8
CUT
10
84.3202
20
8.0317
0
VERTEX
8
CUT
10
84.5465
20
8.0220
0
VERTEX
8
CUT
10
84.7727
20
8.0327
0
VERTEX
8
CUT
10
84.9969
20
8.0639
0
VERTEX
8
CUT
10
85.9744
20
8.2453
0
VERTEX
8
CUT
10
86.2050
20
8.2994
0
VERTEX
8
CUT
10
86.4294
20
8.3752
0
VERTEX
8
CUT
10
86.6456
20
8.4718
0
VERTEX
8
CUT
10
88.3475
20
9.3315
0
VERTEX
8
CUT
10
88.5666
20
9.4564
0
VERTEX
8
CUT
10
88.7719
20
9.6028
0
VERTEX
8
CUT
10
89.9373
20
10.5252
0
VERTEX
8
CUT
10
90.1088
20
10.6741
0
VERTEX
8
CUT
10
90.2423
20
10.8132
0
VERTEX
8
CUT
10
90.3335
20
10.8879
0
VERTEX
8
CUT
10
90.5301
20
11.0674
0
VERTEX
8
CUT
10
90.7066
20
11.2668
0
VERTEX
8
CUT
10
91.3345
20
12.0574
0
VERTEX
8
CUT
10
92.2291
20
13.0784
0
VERTEX
8
CUT
10
92.3634
20
13.2457
0
VERTEX
8
CUT
10
93.4149
20
14.6769
0
VERTEX
8
CUT
10
93.9848
20
15.3945
0
VERTEX
8
CUT
10
94.1181
20
15.5789
0
VERTEX
8
CUT
10
94.4525
20
16.0891
0
VERTEX
8
CUT
10
94.5771
20
16.2588
0
VERTEX
8
CUT
10
94.6547
20
16.3707
0
VERTEX
8
CUT
10
102.5491
20
28.4427
0
VERTEX
8
CUT
10
102.5721
20
28.4765
0
VERTEX
8
CUT
10
102.5961
20
28.5095
0
VERTEX
8
CUT
10
107.2592
20
34.6899
0
VERTEX
8
CUT
10
111.7528
20
39.7025
0
VERTEX
8
CUT
10
111.7534
20
39.7031
0
VERTEX
8
CUT
10
111.7679
20
39.7176
0
VERTEX
8
CUT
10
111.7693
20
39.7190
0
VERTEX
8
CUT
10
112.4050
20
40.3547
0
VERTEX
8
CUT
10
114.9542
20
42.6370
0
VERTEX
8
CUT
10
116.2536
20
43.8003
0
VERTEX
8
CUT
10
118.8140
20
45.9508
0
VERTEX
8
CUT
10
121.9439
20
48.1283
0
VERTEX
8
CUT
10
122.0027
20
48.1667
0
VERTEX
8
CUT
10
122.0165
20
48.1747
0
VERTEX
8
CUT
10
126.2357
20
50.4366
0
VERTEX
8
CUT
10
126.3098
20
50.4731
0
VERTEX
8
CUT
10
126.3152
20
50.4755
0
VERTEX
8
CUT
10
126.3920
20
50.5067
0
VERTEX
8
CUT
10
130.4516
20
51.9923
0
VERTEX
8
CUT
10
132.3878
20
52.5970
0
VERTEX
8
CUT
10
133.7211
20
52.8359
0
VERTEX
8
CUT
10
133.7322
20
52.8366
0
VERTEX
8
CUT
10
133.9776
20
52.8643
0
VERTEX
8
CUT
10
134.2191
20
52.9161
0
VERTEX
8
CUT
10
134.3222
20
52.9436
0
VERTEX
8
CUT
10
135.1116
20
53.0851
0
VERTEX
8
CUT
10
135.3153
20
53.1304
0
VERTEX
8
CUT
10
135.5144
20
53.1926
0
VERTEX
8
CUT
10
135.7077
20
53.2711
0
VERTEX
8
CUT
10
135.8763
20
53.3480
0
VERTEX
8
CUT
10
135.8938
20
53.3554
0
VERTEX
8
CUT
10
135.9242
20
53.3659
0
VERTEX
8
CUT
10
135.9767
20
53.3737
0
VERTEX
8
CUT
10
135.9985
20
53.3751
0
VERTEX
8
CUT
10
137.0057
20
53.4115
0
VERTEX
8
CUT
10
137.2628
20
53.4342
0
VERTEX
8
CUT
10
137.5162
20
53.4832
0
VERTEX
8
CUT
10
137.7631
20
53.5580
0
VERTEX
8
CUT
10
138.0256
20
53.6527
0
VERTEX
8
CUT
10
138.0456
20
53.6592
0
VERTEX
8
CUT
10
138.0883
20
53.6696
0
VERTEX
8
CUT
10
138.1319
20
53.6753
0
VERTEX
8
CUT
10
138.1529
20
53.6763
0
VERTEX
8
CUT
10
139.5953
20
53.7080
0
VERTEX
8
CUT
10
139.7103
20
53.7106
0
VERTEX
8
CUT
10
139.9870
20
53.7321
0
VERTEX
8
CUT
10
140.2597
20
53.7841
0
VERTEX
8
CUT
10
140.8904
20
53.9412
0
VERTEX
8
CUT
10
140.8956
20
53.9424
0
VERTEX
8
CUT
10
140.9451
20
53.9507
0
VERTEX
8
CUT
10
140.9704
20
53.9527
0
VERTEX
8
CUT
10
140.9942
20
53.9532
0
VERTEX
8
CUT
10
151.6283
20
53.9082
0
VERTEX
8
CUT
10
151.6488
20
53.9076
0
VERTEX
8
CUT
10
151.6913
20
53.9030
0
VERTEX
8
CUT
10
151.7331
20
53.8939
0
VERTEX
8
CUT
10
151.7526
20
53.8880
0
VERTEX
8
CUT
10
156.8932
20
52.1894
0
VERTEX
8
CUT
10
156.9091
20
52.1838
0
VERTEX
8
CUT
10
156.9740
20
52.1559
0
VERTEX
8
CUT
10
156.9891
20
52.1482
0
VERTEX
8
CUT
10
161.1988
20
49.8939
0
VERTEX
8
CUT
10
161.2033
20
49.8914
0
VERTEX
8
CUT
10
161.2681
20
49.8502
0
VERTEX
8
CUT
10
161.2826
20
49.8398
0
VERTEX
8
CUT
10
163.6285
20
48.0612
0
VERTEX
8
CUT
10
163.6652
20
48.0323
0
VERTEX
8
CUT
10
163.7006
20
48.0020
0
VERTEX
8
CUT
10
166.6650
20
45.3726
0
VERTEX
8
CUT
10
166.7190
20
45.3217
0
VERTEX
8
CUT
10
166.7697
20
45.2676
0
VERTEX
8
CUT
10
171.3229
20
40.1069
0
VERTEX
8
CUT
10
171.3398
20
40.0873
0
VERTEX
8
CUT
10
171.3563
20
40.0673
0
VERTEX
8
CUT
10
181.8167
20
27.1401
0
VERTEX
8
CUT
10
181.9242
20
27.0158
0
VERTEX
8
CUT
10
185.8844
20
22.7309
0
VERTEX
8
CUT
10
186.0338
20
22.5824
0
VERTEX
8
CUT
10
189.7964
20
19.1437
0
VERTEX
8
CUT
10
189.9393
20
19.0226
0
VERTEX
8
CUT
10
192.4262
20
17.0704
0
VERTEX
8
CUT
10
192.6059
20
16.9418
0
VERTEX
8
CUT
10
192.7964
20
16.8295
0
VERTEX
8
CUT
10
197.0467
20
14.5701
0
VERTEX
8
CUT
10
197.2616
20
14.4686
0
VERTEX
8
CUT
10
197.4851
20
14.3880
0
VERTEX
8
CUT
10
197.7153
20
14.3290
0
VERTEX
8
CUT
10
197.9500
20
14.2922
0
VERTEX
8
CUT
10
198.1733
20
14.2679
0
VERTEX
8
CUT
10
198.1962
20
14.2647
0
VERTEX
8
CUT
10
198.2911
20
14.2428
0
VERTEX
8
CUT
10
198.3132
20
14.2356
0
VERTEX
8
CUT
10
199.2257
20
13.9062
0
VERTEX
8
CUT
10
199.4339
20
13.8412
0
VERTEX
8
CUT
10
199.6469
20
13.7946
0
VERTEX
8
CUT
10
199.8632
20
13.7667
0
VERTEX
8
CUT
10
200.0811
20
13.7578
0
VERTEX
8
CUT
10
203.3239
20
13.7664
0
VERTEX
8
CUT
10
203.5838
20
13.7807
0
VERTEX
8
CUT
10
203.8409
20
13.8219
0
VERTEX
8
CUT
10
204.0922
20
13.8896
0
VERTEX
8
CUT
10
204.3351
20
13.9831
0
VERTEX
8
CUT
10
206.0444
20
14.7450
0
VERTEX
8
CUT
10
206.2492
20
14.8478
0
VERTEX
8
CUT
10
206.4436
20
14.9689
0
VERTEX
8
CUT
10
206.6262
20
15.1073
0
VERTEX
8
CUT
10
206.7954
20
15.2618
0
VERTEX
8
CUT
10
208.0564
20
16.5244
0
VERTEX
8
CUT
10
208.0685
20
16.5333
0
VERTEX
8
CUT
10
208.0697
20
16.5343
0
VERTEX
8
CUT
10
208.1849
20
16.6195
0
VERTEX
8
CUT
10
208.3862
20
16.8056
0
VERTEX
8
CUT
10
208.7689
20
17.2005
0
VERTEX
8
CUT
10
209.2419
20
17.6606
0
VERTEX
8
CUT
10
209.3863
20
17.8134
0
VERTEX
8
CUT
10
209.4120
20
17.8458
0
VERTEX
8
CUT
10
209.4579
20
17.8949
0
VERTEX
8
CUT
10
209.5931
20
18.0676
0
VERTEX
8
CUT
10
210.0402
20
18.6937
0
VERTEX
8
CUT
10
210.0890
20
18.7604
0
VERTEX
8
CUT
10
210.1049
20
18.7842
0
VERTEX
8
CUT
10
210.1188
20
18.8037
0
VERTEX
8
CUT
10
210.1697
20
18.8812
0
VERTEX
8
CUT
10
210.2047
20
18.9335
0
VERTEX
8
CUT
10
210.2080
20
18.9394
0
VERTEX
8
CUT
10
210.2257
20
18.9664
0
VERTEX
8
CUT
10
210.3196
20
19.1368
0
VERTEX
8
CUT
10
211.8516
20
22.1945
0
VERTEX
8
CUT
10
211.8982
20
22.3068
0
VERTEX
8
CUT
10
211.9225
20
22.3568
0
VERTEX
8
CUT
10
211.9351
20
22.3899
0
VERTEX
8
CUT
10
211.9425
20
22.4052
0
VERTEX
8
CUT
10
211.9815
20
22.5075
0
VERTEX
8
CUT
10
211.9873
20
22.5212
0
VERTEX
8
CUT
10
211.9893
20
22.5272
0
VERTEX
8
CUT
10
212.0074
20
22.5710
0
VERTEX
8
CUT
10
212.0187
20
22.6049
0
VERTEX
8
CUT
10
212.7870
20
24.9114
0
VERTEX
8
CUT
10
212.8408
20
25.0964
0
VERTEX
8
CUT
10
212.8412
20
25.0980
0
VERTEX
8
CUT
10
213.9066
20
29.3697
0
VERTEX
8
CUT
10
213.9549
20
29.6154
0
VERTEX
8
CUT
10
213.9785
20
29.8647
0
VERTEX
8
CUT
10
214.0175
20
30.7494
0
VERTEX
8
CUT
10
214.0186
20
30.7672
0
VERTEX
8
CUT
10
214.0287
20
30.8411
0
VERTEX
8
CUT
10
214.0323
20
30.8585
0
VERTEX
8
CUT
10
214.5148
20
32.9569
0
VERTEX
8
CUT
10
214.5622
20
33.2327
0
VERTEX
8
CUT
10
214.7715
20
35.0602
0
VERTEX
8
CUT
10
214.7892
20
35.1262
0
VERTEX
8
CUT
10
214.8284
20
35.3575
0
VERTEX
8
CUT
10
214.8457
20
35.5915
0
VERTEX
8
CUT
10
214.8856
20
37.0690
0
VERTEX
8
CUT
10
214.8867
20
37.0896
0
VERTEX
8
CUT
10
214.8903
20
37.1164
0
VERTEX
8
CUT
10
214.9000
20
37.1568
0
VERTEX
8
CUT
10
214.9063
20
37.1762
0
VERTEX
8
CUT
10
214.9127
20
37.1943
0
VERTEX
8
CUT
10
214.9265
20
37.2414
0
VERTEX
8
CUT
10
214.9365
20
37.2716
0
VERTEX
8
CUT
10
214.9508
20
37.3240
0
VERTEX
8
CUT
10
214.9886
20
37.4525
0
VERTEX
8
CUT
10
214.9940
20
37.4823
0
VERTEX
8
CUT
10
215.0070
20
37.5301
0
VERTEX
8
CUT
10
215.0494
20
37.7946
0
VERTEX
8
CUT
10
215.0633
20
38.0622
0
VERTEX
8
CUT
10
215.0484
20
38.3296
0
VERTEX
8
CUT
10
215.0050
20
38.5940
0
VERTEX
8
CUT
10
214.8776
20
39.1738
0
VERTEX
8
CUT
10
215.0774
20
40.1926
0
VERTEX
8
CUT
10
215.0852
20
40.2449
0
VERTEX
8
CUT
10
215.1074
20
40.3669
0
VERTEX
8
CUT
10
215.1113
20
40.4208
0
VERTEX
8
CUT
10
215.1115
20
40.4224
0
VERTEX
8
CUT
10
215.1119
20
40.4292
0
VERTEX
8
CUT
10
215.1268
20
40.6376
0
VERTEX
8
CUT
10
215.1273
20
40.6679
0
VERTEX
8
CUT
10
215.1775
20
43.5769
0
VERTEX
8
CUT
10
215.1783
20
43.5954
0
VERTEX
8
CUT
10
215.1826
20
43.6338
0
VERTEX
8
CUT
10
215.1977
20
43.6694
0
VERTEX
8
CUT
10
215.2061
20
43.6860
0
VERTEX
8
CUT
10
215.6948
20
44.5919
0
VERTEX
8
CUT
10
215.7920
20
44.7931
0
VERTEX
8
CUT
10
215.8709
20
45.0023
0
VERTEX
8
CUT
10
215.9307
20
45.2176
0
VERTEX
8
CUT
10
215.9711
20
45.4375
0
VERTEX
8
CUT
10
215.9917
20
45.6600
0
VERTEX
8
CUT
10
216.0361
20
46.5938
0
VERTEX
8
CUT
10
216.0373
20
46.6110
0
VERTEX
8
CUT
10
216.0423
20
46.6469
0
VERTEX
8
CUT
10
216.0533
20
46.6810
0
VERTEX
8
CUT
10
216.0598
20
46.6972
0
VERTEX
8
CUT
10
216.0826
20
46.7507
0
VERTEX
8
CUT
10
216.1649
20
46.9726
0
VERTEX
8
CUT
10
216.2259
20
47.2013
0
VERTEX
8
CUT
10
216.2649
20
47.4348
0
VERTEX
8
CUT
10
216.2817
20
47.6708
0
VERTEX
8
CUT
10
216.3149
20
49.0683
0
VERTEX
8
CUT
10
216.3160
20
49.0900
0
VERTEX
8
CUT
10
216.3221
20
49.1351
0
VERTEX
8
CUT
10
216.3333
20
49.1792
0
VERTEX
8
CUT
10
216.3403
20
49.1998
0
VERTEX
8
CUT
10
216.4089
20
49.3824
0
VERTEX
8
CUT
10
216.4924
20
49.6494
0
VERTEX
8
CUT
10
216.5456
20
49.9241
0
VERTEX
8
CUT
10
216.5677
20
50.2030
0
VERTEX
8
CUT
10
216.6012
20
51.6438
0
VERTEX
8
CUT
10
216.6023
20
51.6653
0
VERTEX
8
CUT
10
216.6083
20
51.7098
0
VERTEX
8
CUT
10
216.6191
20
51.7534
0
VERTEX
8
CUT
10
216.6260
20
51.7737
0
VERTEX
8
CUT
10
216.7251
20
52.0417
0
VERTEX
8
CUT
10
216.7948
20
52.2604
0
VERTEX
8
CUT
10
216.8441
20
52.4845
0
VERTEX
8
CUT
10
216.8727
20
52.7122
0
VERTEX
8
CUT
10
217.1817
20
56.6248
0
VERTEX
8
CUT
10
217.1838
20
56.6450
0
VERTEX
8
CUT
10
217.1915
20
56.6867
0
VERTEX
8
CUT
10
217.2035
20
56.7275
0
VERTEX
8
CUT
10
217.2108
20
56.7464
0
VERTEX
8
CUT
10
217.2656
20
56.8792
0
VERTEX
8
CUT
10
217.3544
20
57.1321
0
VERTEX
8
CUT
10
217.4157
20
57.3930
0
VERTEX
8
CUT
10
217.4486
20
57.6590
0
VERTEX
8
CUT
10
217.7551
20
62.0518
0
VERTEX
8
CUT
10
217.7568
20
62.0699
0
VERTEX
8
CUT
10
217.7630
20
62.1076
0
VERTEX
8
CUT
10
217.7727
20
62.1445
0
VERTEX
8
CUT
10
217.7785
20
62.1618
0
VERTEX
8
CUT
10
217.8573
20
62.3775
0
VERTEX
8
CUT
10
217.9372
20
62.6398
0
VERTEX
8
CUT
10
217.9878
20
62.9093
0
VERTEX
8
CUT
10
218.0086
20
63.1827
0
VERTEX
8
CUT
10
218.0451
20
64.9168
0
VERTEX
8
CUT
10
218.0462
20
64.9381
0
VERTEX
8
CUT
10
218.0520
20
64.9824
0
VERTEX
8
CUT
10
218.0626
20
65.0258
0
VERTEX
8
CUT
10
218.0694
20
65.0461
0
VERTEX
8
CUT
10
218.1448
20
65.2525
0
VERTEX
8
CUT
10
218.2247
20
65.5149
0
VERTEX
8
CUT
10
218.2753
20
65.7843
0
VERTEX
8
CUT
10
218.2961
20
66.0578
0
VERTEX
8
CUT
10
218.3329
20
67.8054
0
VERTEX
8
CUT
10
218.3336
20
67.8224
0
VERTEX
8
CUT
10
218.3375
20
67.8579
0
VERTEX
8
CUT
10
218.3474
20
67.8918
0
VERTEX
8
CUT
10
218.3532
20
67.9079
0
VERTEX
8
CUT
10
218.4118
20
68.0586
0
VERTEX
8
CUT
10
218.4814
20
68.2638
0
VERTEX
8
CUT
10
218.5330
20
68.4743
0
VERTEX
8
CUT
10
218.5662
20
68.6884
0
VERTEX
8
CUT
10
218.5808
20
68.9047
0
VERTEX
8
CUT
10
218.6149
20
70.3434
0
VERTEX
8
CUT
10
218.6160
20
70.3651
0
VERTEX
8
CUT
10
218.6222
20
70.4102
0
VERTEX
8
CUT
10
218.6333
20
70.4543
0
VERTEX
8
CUT
10
218.6404
20
70.4749
0
VERTEX
8
CUT
10
218.7091
20
70.6581
0
VERTEX
8
CUT
10
218.7925
20
70.9247
0
VERTEX
8
CUT
10
218.8457
20
71.1990
0
VERTEX
8
CUT
10
218.8679
20
71.4774
0
VERTEX
8
CUT
10
218.9024
20
72.9309
0
VERTEX
8
CUT
10
218.9035
20
72.9527
0
VERTEX
8
CUT
10
218.9097
20
72.9977
0
VERTEX
8
CUT
10
218.9208
20
73.0419
0
VERTEX
8
CUT
10
218.9279
20
73.0624
0
VERTEX
8
CUT
10
218.9964
20
73.2450
0
VERTEX
8
CUT
10
219.0799
20
73.5120
0
VERTEX
8
CUT
10
219.1331
20
73.7867
0
VERTEX
8
CUT
10
219.1552
20
74.0656
0
VERTEX
8
CUT
10
219.1887
20
75.5072
0
VERTEX
8
CUT
10
219.1898
20
75.5284
0
VERTEX
8
CUT
10
219.1957
20
75.5725
0
VERTEX
8
CUT
10
219.2063
20
75.6156
0
VERTEX
8
CUT
10
219.2130
20
75.6357
0
VERTEX
8
CUT
10
219.3021
20
75.8794
0
VERTEX
8
CUT
10
219.3792
20
76.1308
0
VERTEX
8
CUT
10
219.4296
20
76.3890
0
VERTEX
8
CUT
10
219.4525
20
76.6510
0
VERTEX
8
CUT
10
219.4867
20
77.6395
0
VERTEX
8
CUT
10
219.4878
20
77.6581
0
VERTEX
8
CUT
10
219.4929
20
77.6968
0
VERTEX
8
CUT
10
219.5052
20
77.7338
0
VERTEX
8
CUT
10
219.5124
20
77.7510
0
VERTEX
8
CUT
10
219.5446
20
77.8234
0
VERTEX
8
CUT
10
219.6247
20
78.0268
0
VERTEX
8
CUT
10
219.6866
20
78.2363
0
VERTEX
8
CUT
10
219.7301
20
78.4505
0
VERTEX
8
CUT
10
219.7546
20
78.6676
0
VERTEX
8
CUT
10
219.7889
20
79.1647
0
VERTEX
8
CUT
10
219.7907
20
79.1840
0
VERTEX
8
CUT
10
219.7975
20
79.2239
0
VERTEX
8
CUT
10
219.8121
20
79.2617
0
VERTEX
8
CUT
10
219.8204
20
79.2792
0
VERTEX
8
CUT
10
220.1075
20
79.8474
0
VERTEX
8
CUT
10
220.1168
20
79.8647
0
VERTEX
8
CUT
10
220.1168
20
79.8648
0
VERTEX
8
CUT
10
220.1349
20
79.8880
0
VERTEX
8
CUT
10
220.1482
20
79.9026
0
VERTEX
8
CUT
10
221.1390
20
80.9373
0
VERTEX
8
CUT
10
221.2233
20
81.0241
0
VERTEX
8
CUT
10
221.2366
20
81.0373
0
VERTEX
8
CUT
10
221.2612
20
81.0582
0
VERTEX
8
CUT
10
221.2894
20
81.0784
0
VERTEX
8
CUT
10
221.3050
20
81.0879
0
VERTEX
8
CUT
10
221.3739
20
81.1280
0
VERTEX
8
CUT
10
222.0321
20
81.4988
0
VERTEX
8
CUT
10
222.0470
20
81.5067
0
VERTEX
8
CUT
10
222.0655
20
81.5095
0
VERTEX
8
CUT
10
222.0837
20
81.5110
0
VERTEX
8
CUT
10
223.0100
20
81.5639
0
VERTEX
8
CUT
10
223.0289
20
81.5645
0
VERTEX
8
CUT
10
223.0684
20
81.5629
0
VERTEX
8
CUT
10
223.1076
20
81.5575
0
VERTEX
8
CUT
10
223.1261
20
81.5536
0
VERTEX
8
CUT
10
224.3405
20
81.2640
0
VERTEX
8
CUT
10
224.3619
20
81.2582
0
VERTEX
8
CUT
10
224.4496
20
81.2264
0
VERTEX
8
CUT
10
224.4697
20
81.2171
0
VERTEX
8
CUT
10
226.0866
20
80.4121
0
VERTEX
8
CUT
10
226.1021
20
80.4039
0
VERTEX
8
CUT
10
226.1336
20
80.3846
0
VERTEX
8
CUT
10
226.1632
20
80.3624
0
VERTEX
8
CUT
10
226.1761
20
80.3513
0
VERTEX
8
CUT
10
229.7169
20
77.1688
0
VERTEX
8
CUT
10
229.7208
20
77.1652
0
VERTEX
8
CUT
10
229.7552
20
77.1289
0
VERTEX
8
CUT
10
229.7711
20
77.1090
0
VERTEX
8
CUT
10
229.7848
20
77.0896
0
VERTEX
8
CUT
10
232.1095
20
73.6229
0
VERTEX
8
CUT
10
232.1302
20
73.5910
0
VERTEX
8
CUT
10
232.1498
20
73.5586
0
VERTEX
8
CUT
10
234.1596
20
70.1141
0
VERTEX
8
CUT
10
234.1824
20
70.0733
0
VERTEX
8
CUT
10
234.2036
20
70.0317
0
VERTEX
8
CUT
10
239.3363
20
59.4394
0
VERTEX
8
CUT
10
239.4562
20
59.2206
0
VERTEX
8
CUT
10
239.5972
20
59.0148
0
VERTEX
8
CUT
10
239.8974
20
58.6207
0
VERTEX
8
CUT
10
239.9085
20
58.6053
0
VERTEX
8
CUT
10
239.9505
20
58.5374
0
VERTEX
8
CUT
10
239.9593
20
58.5205
0
VERTEX
8
CUT
10
241.1134
20
56.1679
0
VERTEX
8
CUT
10
241.2393
20
55.9417
0
VERTEX
8
CUT
10
244.0133
20
51.5141
0
VERTEX
8
CUT
10
244.1367
20
51.3350
0
VERTEX
8
CUT
10
246.6579
20
47.9959
0
VERTEX
8
CUT
10
246.7733
20
47.8541
0
VERTEX
8
CUT
10
248.9618
20
45.3582
0
VERTEX
8
CUT
10
249.0826
20
45.2299
0
VERTEX
8
CUT
10
251.7692
20
42.5700
0
VERTEX
8
CUT
10
251.9313
20
42.4230
0
VERTEX
8
CUT
10
255.1753
20
39.7300
0
VERTEX
8
CUT
10
255.3818
20
39.5758
0
VERTEX
8
CUT
10
257.7461
20
37.9938
0
VERTEX
8
CUT
10
258.0188
20
37.8353
0
VERTEX
8
CUT
10
261.1346
20
36.2781
0
VERTEX
8
CUT
10
261.3196
20
36.1949
0
VERTEX
8
CUT
10
261.5107
20
36.1269
0
VERTEX
8
CUT
10
265.6926
20
34.8281
0
VERTEX
8
CUT
10
265.7018
20
34.8252
0
VERTEX
8
CUT
10
265.9638
20
34.7591
0
VERTEX
8
CUT
10
266.2315
20
34.7217
0
VERTEX
8
CUT
10
269.1794
20
34.4711
0
VERTEX
8
CUT
10
269.4065
20
34.4622
0
VERTEX
8
CUT
10
269.6334
20
34.4739
0
VERTEX
8
CUT
10
269.7704
20
34.4935
0
VERTEX
8
CUT
10
269.8405
20
34.4992
0
VERTEX
8
CUT
10
270.0977
20
34.5471
0
VERTEX
8
CUT
10
270.3484
20
34.6217
0
VERTEX
8
CUT
10
270.4935
20
34.6733
0
VERTEX
8
CUT
10
270.5123
20
34.6794
0
VERTEX
8
CUT
10
270.5524
20
34.6892
0
VERTEX
8
CUT
10
270.5927
20
34.6949
0
VERTEX
8
CUT
10
270.6062
20
34.6956
0
VERTEX
8
CUT
10
271.9290
20
34.7376
0
VERTEX
8
CUT
10
272.1689
20
34.7568
0
VERTEX
8
CUT
10
272.4060
20
34.7990
0
VERTEX
8
CUT
10
272.6378
20
34.8638
0
VERTEX
8
CUT
10
272.6454
20
34.8663
0
VERTEX
8
CUT
10
272.6708
20
34.8735
0
VERTEX
8
CUT
10
273.9083
20
35.2857
0
VERTEX
8
CUT
10
274.0826
20
35.3511
0
VERTEX
8
CUT
10
274.2517
20
35.4293
0
VERTEX
8
CUT
10
274.2526
20
35.4297
0
VERTEX
8
CUT
10
275.5038
20
36.0662
0
VERTEX
8
CUT
10
275.6825
20
36.1665
0
VERTEX
8
CUT
10
275.8523
20
36.2811
0
VERTEX
8
CUT
10
276.0122
20
36.4092
0
VERTEX
8
CUT
10
277.8275
20
37.9900
0
VERTEX
8
CUT
10
278.0165
20
38.1729
0
VERTEX
8
CUT
10
278.1852
20
38.3746
0
VERTEX
8
CUT
10
278.8122
20
39.2100
0
VERTEX
8
CUT
10
278.8137
20
39.2120
0
VERTEX
8
CUT
10
278.9390
20
39.3954
0
VERTEX
8
CUT
10
279.0475
20
39.5891
0
VERTEX
8
CUT
10
279.9492
20
41.3812
0
VERTEX
8
CUT
10
280.0654
20
41.6505
0
VERTEX
8
CUT
10
280.1493
20
41.9314
0
VERTEX
8
CUT
10
280.1581
20
41.9688
0
VERTEX
8
CUT
10
280.1598
20
41.9745
0
VERTEX
8
CUT
10
280.1670
20
42.0064
0
VERTEX
8
CUT
10
280.3148
20
42.6336
0
VERTEX
8
CUT
10
280.3621
20
42.8965
0
VERTEX
8
CUT
10
280.3656
20
42.9452
0
VERTEX
8
CUT
10
280.3686
20
42.9629
0
VERTEX
8
CUT
10
280.3853
20
43.2278
0
VERTEX
8
CUT
10
280.3889
20
43.6082
0
VERTEX
8
CUT
10
280.4075
20
44.6582
0
VERTEX
8
CUT
10
280.4077
20
44.7308
0
VERTEX
8
CUT
10
280.4034
20
45.1038
0
VERTEX
8
CUT
10
280.4075
20
45.5264
0
VERTEX
8
CUT
10
280.4071
20
45.6019
0
VERTEX
8
CUT
10
280.3860
20
46.6338
0
VERTEX
8
CUT
10
280.3841
20
46.8012
0
VERTEX
8
CUT
10
280.3819
20
46.8353
0
VERTEX
8
CUT
10
280.3814
20
46.8564
0
VERTEX
8
CUT
10
280.3729
20
46.9725
0
VERTEX
8
CUT
10
280.3667
20
47.0685
0
VERTEX
8
CUT
10
280.3653
20
47.0762
0
VERTEX
8
CUT
10
280.3623
20
47.1183
0
VERTEX
8
CUT
10
280.3157
20
47.3769
0
VERTEX
8
CUT
10
280.1393
20
48.1279
0
VERTEX
8
CUT
10
280.1277
20
48.1686
0
VERTEX
8
CUT
10
280.0759
20
48.3560
0
VERTEX
8
CUT
10
279.9997
20
48.5604
0
VERTEX
8
CUT
10
279.3100
20
50.1902
0
VERTEX
8
CUT
10
279.2316
20
50.3579
0
VERTEX
8
CUT
10
279.1410
20
50.5193
0
VERTEX
8
CUT
10
279.0633
20
50.6466
0
VERTEX
8
CUT
10
279.0167
20
50.7509
0
VERTEX
8
CUT
10
278.9165
20
50.9507
0
VERTEX
8
CUT
10
278.7989
20
51.1407
0
VERTEX
8
CUT
10
278.4412
20
51.6647
0
VERTEX
8
CUT
10
278.3804
20
51.7644
0
VERTEX
8
CUT
10
278.2598
20
51.9438
0
VERTEX
8
CUT
10
278.1369
20
52.1106
0
VERTEX
8
CUT
10
277.8647
20
52.5093
0
VERTEX
8
CUT
10
277.7408
20
52.6757
0
VERTEX
8
CUT
10
277.6034
20
52.8312
0
VERTEX
8
CUT
10
277.5625
20
52.8738
0
VERTEX
8
CUT
10
277.4164
20
53.0448
0
VERTEX
8
CUT
10
276.7743
20
53.6949
0
VERTEX
8
CUT
10
276.2461
20
54.2452
0
VERTEX
8
CUT
10
276.0978
20
54.3798
0
VERTEX
8
CUT
10
275.8832
20
54.5972
0
VERTEX
8
CUT
10
275.6249
20
54.8249
0
VERTEX
8
CUT
10
273.3852
20
56.5408
0
VERTEX
8
CUT
10
273.1909
20
56.6756
0
VERTEX
8
CUT
10
272.9848
20
56.7914
0
VERTEX
8
CUT
10
272.9677
20
56.7999
0
VERTEX
8
CUT
10
271.0613
20
57.7552
0
VERTEX
8
CUT
10
270.8711
20
57.8408
0
VERTEX
8
CUT
10
270.6744
20
57.9102
0
VERTEX
8
CUT
10
267.3412
20
58.9326
0
VERTEX
8
CUT
10
267.1100
20
58.9916
0
VERTEX
8
CUT
10
266.8743
20
59.0283
0
VERTEX
8
CUT
10
263.9423
20
59.3423
0
VERTEX
8
CUT
10
263.9219
20
59.3450
0
VERTEX
8
CUT
10
263.8797
20
59.3541
0
VERTEX
8
CUT
10
263.8387
20
59.3676
0
VERTEX
8
CUT
10
263.8197
20
59.3756
0
VERTEX
8
CUT
10
263.8090
20
59.3805
0
VERTEX
8
CUT
10
263.5876
20
59.4681
0
VERTEX
8
CUT
10
263.3588
20
59.5342
0
VERTEX
8
CUT
10
263.1248
20
59.5783
0
VERTEX
8
CUT
10
262.8877
20
59.5999
0
VERTEX
8
CUT
10
262.2492
20
59.6275
0
VERTEX
8
CUT
10
262.2282
20
59.6290
0
VERTEX
8
CUT
10
262.1408
20
59.6423
0
VERTEX
8
CUT
10
262.1203
20
59.6471
0
VERTEX
8
CUT
10
260.4264
20
60.0961
0
VERTEX
8
CUT
10
260.1847
20
60.1475
0
VERTEX
8
CUT
10
259.9391
20
60.1748
0
VERTEX
8
CUT
10
259.2850
20
60.2150
0
VERTEX
8
CUT
10
259.2668
20
60.2165
0
VERTEX
8
CUT
10
259.2289
20
60.2224
0
VERTEX
8
CUT
10
259.1919
20
60.2318
0
VERTEX
8
CUT
10
259.1745
20
60.2376
0
VERTEX
8
CUT
10
255.1424
20
61.6757
0
VERTEX
8
CUT
10
255.1084
20
61.6890
0
VERTEX
8
CUT
10
255.0568
20
61.7129
0
VERTEX
8
CUT
10
253.1359
20
62.6723
0
VERTEX
8
CUT
10
251.6763
20
63.4045
0
VERTEX
8
CUT
10
251.6202
20
63.4350
0
VERTEX
8
CUT
10
251.5777
20
63.4616
0
VERTEX
8
CUT
10
250.5983
20
64.1191
0
VERTEX
8
CUT
10
247.2229
20
66.3943
0
VERTEX
8
CUT
10
247.1746
20
66.4292
0
VERTEX
8
CUT
10
247.1710
20
66.4321
0
VERTEX
8
CUT
10
246.5555
20
66.9700
0
VERTEX
8
CUT
10
245.8660
20
67.5792
0
VERTEX
8
CUT
10
244.5170
20
68.7709
0
VERTEX
8
CUT
10
239.9192
20
73.4125
0
VERTEX
8
CUT
10
239.8860
20
73.4474
0
VERTEX
8
CUT
10
239.8542
20
73.4836
0
VERTEX
8
CUT
10
236.9182
20
76.9607
0
VERTEX
8
CUT
10
236.9004
20
76.9822
0
VERTEX
8
CUT
10
236.8831
20
77.0042
0
VERTEX
8
CUT
10
229.8399
20
86.1690
0
VERTEX
8
CUT
10
229.8394
20
86.1697
0
VERTEX
8
CUT
10
229.6609
20
86.3772
0
VERTEX
8
CUT
10
225.0783
20
91.1528
0
VERTEX
8
CUT
10
225.0330
20
91.2027
0
VERTEX
8
CUT
10
225.0227
20
91.2154
0
VERTEX
8
CUT
10
224.1652
20
92.3324
0
VERTEX
8
CUT
10
224.1562
20
92.3446
0
VERTEX
8
CUT
10
224.1551
20
92.3462
0
VERTEX
8
CUT
10
224.1142
20
92.4114
0
VERTEX
8
CUT
10
224.1056
20
92.4277
0
VERTEX
8
CUT
10
223.2307
20
94.1685
0
VERTEX
8
CUT
10
222.6565
20
96.0514
0
VERTEX
8
CUT
10
222.6512
20
96.0706
0
VERTEX
8
CUT
10
222.6484
20
96.0848
0
VERTEX
8
CUT
10
222.6428
20
96.5100
0
VERTEX
8
CUT
10
222.6500
20
97.1686
0
VERTEX
8
CUT
10
222.6510
20
97.2566
0
VERTEX
8
CUT
10
222.6516
20
97.3174
0
VERTEX
8
CUT
10
222.6530
20
97.4441
0
VERTEX
8
CUT
10
222.6573
20
97.8340
0
VERTEX
8
CUT
10
222.8283
20
98.3558
0
VERTEX
8
CUT
10
223.0721
20
99.1001
0
VERTEX
8
CUT
10
223.3712
20
99.7910
0
VERTEX
8
CUT
10
224.9428
20
101.3416
0
VERTEX
8
CUT
10
224.9560
20
101.3540
0
VERTEX
8
CUT
10
224.9852
20
101.3779
0
VERTEX
8
CUT
10
225.0184
20
101.3960
0
VERTEX
8
CUT
10
225.0348
20
101.4035
0
VERTEX
8
CUT
10
227.3154
20
102.3865
0
VERTEX
8
CUT
10
227.8381
20
102.5201
0
VERTEX
8
CUT
10
228.3825
20
102.3746
0
VERTEX
8
CUT
10
228.6596
20
102.3171
0
VERTEX
8
CUT
10
228.7601
20
102.3079
0
VERTEX
8
CUT
10
228.7638
20
102.3074
0
VERTEX
8
CUT
10
228.7723
20
102.3068
0
VERTEX
8
CUT
10
228.9413
20
102.2913
0
VERTEX
8
CUT
10
231.0009
20
102.2198
0
VERTEX
8
CUT
10
231.0084
20
102.2194
0
VERTEX
8
CUT
10
232.8953
20
101.5396
0
VERTEX
8
CUT
10
233.0519
20
101.4928
0
VERTEX
8
CUT
10
233.0579
20
101.4909
0
VERTEX
8
CUT
10
233.0595
20
101.4905
0
VERTEX
8
CUT
10
233.1587
20
101.4608
0
VERTEX
8
CUT
10
233.4292
20
101.4114
0
VERTEX
8
CUT
10
233.4392
20
101.4101
0
VERTEX
8
CUT
10
233.9183
20
101.3496
0
VERTEX
8
CUT
10
233.9400
20
101.3462
0
VERTEX
8
CUT
10
233.9582
20
101.3418
0
VERTEX
8
CUT
10
236.7259
20
99.9651
0
VERTEX
8
CUT
10
237.4183
20
99.6174
0
VERTEX
8
CUT
10
237.4223
20
99.6153
0
VERTEX
8
CUT
10
237.4293
20
99.6112
0
VERTEX
8
CUT
10
237.4514
20
99.5980
0
VERTEX
8
CUT
10
237.4649
20
99.5890
0
VERTEX
8
CUT
10
240.3840
20
97.5316
0
VERTEX
8
CUT
10
240.4313
20
97.4965
0
VERTEX
8
CUT
10
240.4768
20
97.4591
0
VERTEX
8
CUT
10
241.3231
20
96.7303
0
VERTEX
8
CUT
10
241.3752
20
96.6854
0
VERTEX
8
CUT
10
241.8099
20
96.3110
0
VERTEX
8
CUT
10
241.8555
20
96.2717
0
VERTEX
8
CUT
10
242.1226
20
96.0416
0
VERTEX
8
CUT
10
242.5328
20
95.6884
0
VERTEX
8
CUT
10
245.3563
20
93.2564
0
VERTEX
8
CUT
10
245.3571
20
93.2558
0
VERTEX
8
CUT
10
245.5418
20
93.1112
0
VERTEX
8
CUT
10
248.2010
20
91.2241
0
VERTEX
8
CUT
10
248.3602
20
91.1200
0
VERTEX
8
CUT
10
248.3775
20
91.1104
0
VERTEX
8
CUT
10
248.3936
20
91.0999
0
VERTEX
8
CUT
10
248.5601
20
91.0085
0
VERTEX
8
CUT
10
252.1966
20
89.1870
0
VERTEX
8
CUT
10
252.5241
20
89.0511
0
VERTEX
8
CUT
10
252.5340
20
89.0478
0
VERTEX
8
CUT
10
252.5750
20
89.0309
0
VERTEX
8
CUT
10
253.6103
20
88.6883
0
VERTEX
8
CUT
10
253.7912
20
88.6278
0
VERTEX
8
CUT
10
253.8034
20
88.6243
0
VERTEX
8
CUT
10
253.8243
20
88.6174
0
VERTEX
8
CUT
10
254.0453
20
88.5554
0
VERTEX
8
CUT
10
254.2710
20
88.5139
0
VERTEX
8
CUT
10
254.4997
20
88.4933
0
VERTEX
8
CUT
10
254.5022
20
88.4932
0
VERTEX
8
CUT
10
255.2792
20
88.4589
0
VERTEX
8
CUT
10
255.3001
20
88.4574
0
VERTEX
8
CUT
10
255.3435
20
88.4508
0
VERTEX
8
CUT
10
255.3859
20
88.4395
0
VERTEX
8
CUT
10
255.4057
20
88.4325
0
VERTEX
8
CUT
10
255.5424
20
88.3799
0
VERTEX
8
CUT
10
255.5535
20
88.3756
0
VERTEX
8
CUT
10
255.7682
20
88.3040
0
VERTEX
8
CUT
10
255.9885
20
88.2521
0
VERTEX
8
CUT
10
256.0006
20
88.2503
0
VERTEX
8
CUT
10
256.0058
20
88.2491
0
VERTEX
8
CUT
10
256.1487
20
88.2293
0
VERTEX
8
CUT
10
256.2125
20
88.2203
0
VERTEX
8
CUT
10
256.2149
20
88.2202
0
VERTEX
8
CUT
10
256.2262
20
88.2186
0
VERTEX
8
CUT
10
256.4484
20
88.2077
0
VERTEX
8
CUT
10
257.2576
20
88.2043
0
VERTEX
8
CUT
10
257.5342
20
88.2185
0
VERTEX
8
CUT
10
257.5688
20
88.2241
0
VERTEX
8
CUT
10
257.6514
20
88.2282
0
VERTEX
8
CUT
10
257.8736
20
88.2592
0
VERTEX
8
CUT
10
258.0921
20
88.3100
0
VERTEX
8
CUT
10
258.3052
20
88.3802
0
VERTEX
8
CUT
10
259.1665
20
88.7076
0
VERTEX
8
CUT
10
259.1845
20
88.7139
0
VERTEX
8
CUT
10
259.2230
20
88.7244
0
VERTEX
8
CUT
10
259.2623
20
88.7310
0
VERTEX
8
CUT
10
259.2813
20
88.7328
0
VERTEX
8
CUT
10
259.3606
20
88.7384
0
VERTEX
8
CUT
10
259.5078
20
88.7487
0
VERTEX
8
CUT
10
259.5445
20
88.7512
0
VERTEX
8
CUT
10
259.5812
20
88.7538
0
VERTEX
8
CUT
10
259.5973
20
88.7549
0
VERTEX
8
CUT
10
259.7257
20
88.7639
0
VERTEX
8
CUT
10
259.7284
20
88.7641
0
VERTEX
8
CUT
10
259.7288
20
88.7641
0
VERTEX
8
CUT
10
259.7292
20
88.7642
0
VERTEX
8
CUT
10
259.7299
20
88.7642
0
VERTEX
8
CUT
10
259.7421
20
88.7651
0
VERTEX
8
CUT
10
259.9824
20
88.7936
0
VERTEX
8
CUT
10
260.2189
20
88.8453
0
VERTEX
8
CUT
10
260.4492
20
88.9196
0
VERTEX
8
CUT
10
260.6713
20
89.0158
0
VERTEX
8
CUT
10
261.8625
20
89.6020
0
VERTEX
8
CUT
10
262.1318
20
89.7559
0
VERTEX
8
CUT
10
262.1380
20
89.7600
0
VERTEX
8
CUT
10
262.3596
20
89.8863
0
VERTEX
8
CUT
10
262.4002
20
89.9154
0
VERTEX
8
CUT
10
262.4138
20
89.9232
0
VERTEX
8
CUT
10
262.6275
20
90.0785
0
VERTEX
8
CUT
10
262.6690
20
90.1159
0
VERTEX
8
CUT
10
262.7943
20
90.2082
0
VERTEX
8
CUT
10
262.9904
20
90.3876
0
VERTEX
8
CUT
10
264.1868
20
91.6052
0
VERTEX
8
CUT
10
264.2416
20
91.6590
0
VERTEX
8
CUT
10
264.2651
20
91.6848
0
VERTEX
8
CUT
10
264.3151
20
91.7358
0
VERTEX
8
CUT
10
264.4941
20
91.9387
0
VERTEX
8
CUT
10
264.5271
20
91.9856
0
VERTEX
8
CUT
10
264.5442
20
92.0048
0
VERTEX
8
CUT
10
264.7088
20
92.2394
0
VERTEX
8
CUT
10
265.2225
20
93.0692
0
VERTEX
8
CUT
10
265.3350
20
93.2711
0
VERTEX
8
CUT
10
265.4283
20
93.4825
0
VERTEX
8
CUT
10
265.5017
20
93.7017
0
VERTEX
8
CUT
10
265.5037
20
93.7086
0
VERTEX
8
CUT
10
265.5931
20
94.0231
0
VERTEX
8
CUT
10
265.8986
20
95.0978
0
VERTEX
8
CUT
10
265.9000
20
95.1026
0
VERTEX
8
CUT
10
265.9528
20
95.3275
0
VERTEX
8
CUT
10
265.9847
20
95.5564
0
VERTEX
8
CUT
10
265.9952
20
95.7872
0
VERTEX
8
CUT
10
265.9952
20
95.8682
0
VERTEX
8
CUT
10
266.0467
20
96.8364
0
VERTEX
8
CUT
10
266.0448
20
97.1340
0
VERTEX
8
CUT
10
265.9944
20
97.8970
0
VERTEX
8
CUT
10
265.9944
20
97.9647
0
VERTEX
8
CUT
10
265.9802
20
98.2299
0
VERTEX
8
CUT
10
265.9379
20
98.4920
0
VERTEX
8
CUT
10
265.8681
20
98.7482
0
VERTEX
8
CUT
10
265.4648
20
99.9687
0
VERTEX
8
CUT
10
265.3999
20
100.1430
0
VERTEX
8
CUT
10
265.3222
20
100.3120
0
VERTEX
8
CUT
10
264.7001
20
101.5428
0
VERTEX
8
CUT
10
264.6798
20
101.5778
0
VERTEX
8
CUT
10
264.6630
20
101.6109
0
VERTEX
8
CUT
10
264.5446
20
101.8190
0
VERTEX
8
CUT
10
264.4069
20
102.0148
0
VERTEX
8
CUT
10
263.8384
20
102.7457
0
VERTEX
8
CUT
10
263.8103
20
102.7867
0
VERTEX
8
CUT
10
263.6769
20
102.9642
0
VERTEX
8
CUT
10
263.6148
20
103.0331
0
VERTEX
8
CUT
10
263.5440
20
103.1242
0
VERTEX
8
CUT
10
263.3199
20
103.3753
0
VERTEX
8
CUT
10
262.9767
20
103.7115
0
VERTEX
8
CUT
10
262.7976
20
103.9033
0
VERTEX
8
CUT
10
262.6711
20
104.0109
0
VERTEX
8
CUT
10
262.3589
20
104.3167
0
VERTEX
8
CUT
10
262.2569
20
104.4202
0
VERTEX
8
CUT
10
262.1920
20
104.4801
0
VERTEX
8
CUT
10
262.1803
20
104.4915
0
VERTEX
8
CUT
10
262.1558
20
104.5135
0
VERTEX
8
CUT
10
262.0814
20
104.5821
0
VERTEX
8
CUT
10
262.0667
20
104.5934
0
VERTEX
8
CUT
10
262.0147
20
104.6399
0
VERTEX
8
CUT
10
261.8365
20
104.7730
0
VERTEX
8
CUT
10
260.6305
20
105.5928
0
VERTEX
8
CUT
10
260.4390
20
105.7244
0
VERTEX
8
CUT
10
260.4136
20
105.7403
0
VERTEX
8
CUT
10
260.4034
20
105.7472
0
VERTEX
8
CUT
10
260.3095
20
105.8053
0
VERTEX
8
CUT
10
260.2546
20
105.8396
0
VERTEX
8
CUT
10
260.2516
20
105.8411
0
VERTEX
8
CUT
10
260.2214
20
105.8599
0
VERTEX
8
CUT
10
260.0303
20
105.9565
0
VERTEX
8
CUT
10
259.9726
20
105.9827
0
VERTEX
8
CUT
10
258.5330
20
106.6355
0
VERTEX
8
CUT
10
257.3440
20
107.1779
0
VERTEX
8
CUT
10
257.0891
20
107.2778
0
VERTEX
8
CUT
10
257.0786
20
107.2806
0
VERTEX
8
CUT
10
257.0559
20
107.2894
0
VERTEX
8
CUT
10
256.7973
20
107.3596
0
VERTEX
8
CUT
10
254.6819
20
107.8132
0
VERTEX
8
CUT
10
254.4502
20
107.8516
0
VERTEX
8
CUT
10
254.3652
20
107.8576
0
VERTEX
8
CUT
10
254.3525
20
107.8596
0
VERTEX
8
CUT
10
254.2862
20
107.8632
0
VERTEX
8
CUT
10
254.2159
20
107.8681
0
VERTEX
8
CUT
10
254.1766
20
107.8690
0
VERTEX
8
CUT
10
254.0938
20
107.8735
0
VERTEX
8
CUT
10
253.9784
20
107.8736
0
VERTEX
8
CUT
10
252.6732
20
107.9040
0
VERTEX
8
CUT
10
252.6010
20
107.9047
0
VERTEX
8
CUT
10
249.1988
20
107.8855
0
VERTEX
8
CUT
10
248.8702
20
107.8877
0
VERTEX
8
CUT
10
248.7500
20
107.8830
0
VERTEX
8
CUT
10
248.6202
20
107.8823
0
VERTEX
8
CUT
10
248.4415
20
107.8826
0
VERTEX
8
CUT
10
248.4084
20
107.8811
0
VERTEX
8
CUT
10
248.4051
20
107.8811
0
VERTEX
8
CUT
10
248.3945
20
107.8805
0
VERTEX
8
CUT
10
248.2105
20
107.8722
0
VERTEX
8
CUT
10
248.1823
20
107.8683
0
VERTEX
8
CUT
10
248.1486
20
107.8664
0
VERTEX
8
CUT
10
248.0306
20
107.8474
0
VERTEX
8
CUT
10
247.9814
20
107.8406
0
VERTEX
8
CUT
10
247.9657
20
107.8369
0
VERTEX
8
CUT
10
247.8950
20
107.8255
0
VERTEX
8
CUT
10
247.8357
20
107.8096
0
VERTEX
8
CUT
10
245.5144
20
107.6101
0
VERTEX
8
CUT
10
245.3389
20
107.6060
0
VERTEX
8
CUT
10
245.0605
20
107.5838
0
VERTEX
8
CUT
10
244.9426
20
107.5610
0
VERTEX
8
CUT
10
242.5191
20
107.3528
0
VERTEX
8
CUT
10
239.8179
20
107.3564
0
VERTEX
8
CUT
10
239.7372
20
107.3566
0
VERTEX
8
CUT
10
239.7351
20
107.3566
0
VERTEX
8
CUT
10
239.1908
20
107.3573
0
VERTEX
8
CUT
10
238.2616
20
107.3718
0
VERTEX
8
CUT
10
238.2566
20
107.3720
0
VERTEX
8
CUT
10
238.1832
20
107.3784
0
VERTEX
8
CUT
10
238.1662
20
107.3809
0
VERTEX
8
CUT
10
237.3682
20
107.5149
0
VERTEX
8
CUT
10
237.0181
20
107.6124
0
VERTEX
8
CUT
10
236.4287
20
107.7766
0
VERTEX
8
CUT
10
236.1090
20
107.8656
0
VERTEX
8
CUT
10
235.6655
20
107.9891
0
VERTEX
8
CUT
10
233.9835
20
108.6591
0
VERTEX
8
CUT
10
233.8703
20
108.7042
0
VERTEX
8
CUT
10
233.7814
20
108.7517
0
VERTEX
8
CUT
10
233.7715
20
108.7570
0
VERTEX
8
CUT
10
233.7711
20
108.7572
0
VERTEX
8
CUT
10
233.7638
20
108.7611
0
VERTEX
8
CUT
10
233.7302
20
108.7791
0
VERTEX
8
CUT
10
233.7163
20
108.7865
0
VERTEX
8
CUT
10
233.6843
20
108.8036
0
VERTEX
8
CUT
10
233.5056
20
108.8992
0
VERTEX
8
CUT
10
232.8772
20
109.4940
0
VERTEX
8
CUT
10
231.6513
20
110.7496
0
VERTEX
8
CUT
10
230.7807
20
112.1371
0
VERTEX
8
CUT
10
230.7699
20
112.1555
0
VERTEX
8
CUT
10
230.7505
20
112.1955
0
VERTEX
8
CUT
10
230.7404
20
112.2388
0
VERTEX
8
CUT
10
230.7372
20
112.2599
0
VERTEX
8
CUT
10
230.6828
20
112.7076
0
VERTEX
8
CUT
10
230.6579
20
112.8435
0
VERTEX
8
CUT
10
230.6493
20
112.8975
0
VERTEX
8
CUT
10
230.6443
20
112.9174
0
VERTEX
8
CUT
10
230.6283
20
113.0050
0
VERTEX
8
CUT
10
230.5989
20
113.0991
0
VERTEX
8
CUT
10
230.5963
20
113.1096
0
VERTEX
8
CUT
10
230.5895
20
113.1291
0
VERTEX
8
CUT
10
230.5382
20
113.2935
0
VERTEX
8
CUT
10
230.1184
20
114.3991
0
VERTEX
8
CUT
10
230.1120
20
114.4174
0
VERTEX
8
CUT
10
230.1120
20
114.4175
0
VERTEX
8
CUT
10
230.1149
20
114.4299
0
VERTEX
8
CUT
10
230.1209
20
114.4485
0
VERTEX
8
CUT
10
231.3005
20
117.8425
0
VERTEX
8
CUT
10
231.5905
20
118.6581
0
VERTEX
8
CUT
10
231.5966
20
118.6743
0
VERTEX
8
CUT
10
231.6090
20
118.6957
0
VERTEX
8
CUT
10
231.6192
20
118.7109
0
VERTEX
8
CUT
10
233.6945
20
121.6350
0
VERTEX
8
CUT
10
233.7138
20
121.6581
0
VERTEX
8
CUT
10
233.7269
20
121.6719
0
VERTEX
8
CUT
10
235.4290
20
123.3753
0
VERTEX
8
CUT
10
235.4416
20
123.3873
0
VERTEX
8
CUT
10
235.4974
20
123.4340
0
VERTEX
8
CUT
10
235.5115
20
123.4443
0
VERTEX
8
CUT
10
239.1823
20
125.9993
0
VERTEX
8
CUT
10
239.1948
20
126.0062
0
VERTEX
8
CUT
10
239.2338
20
126.0228
0
VERTEX
8
CUT
10
239.2530
20
126.0292
0
VERTEX
8
CUT
10
240.5331
20
126.4208
0
VERTEX
8
CUT
10
240.7318
20
126.4909
0
VERTEX
8
CUT
10
240.9240
20
126.5775
0
VERTEX
8
CUT
10
240.9367
20
126.5839
0
VERTEX
8
CUT
10
244.5048
20
128.3764
0
VERTEX
8
CUT
10
244.5225
20
128.3848
0
VERTEX
8
CUT
10
244.5607
20
128.3993
0
VERTEX
8
CUT
10
244.6010
20
128.4060
0
VERTEX
8
CUT
10
244.6205
20
128.4077
0
VERTEX
8
CUT
10
245.1152
20
128.4389
0
VERTEX
8
CUT
10
245.3878
20
128.4713
0
VERTEX
8
CUT
10
245.6553
20
128.5333
0
VERTEX
8
CUT
10
245.9143
20
128.6242
0
VERTEX
8
CUT
10
246.0627
20
128.6857
0
VERTEX
8
CUT
10
246.0793
20
128.6921
0
VERTEX
8
CUT
10
246.1148
20
128.7032
0
VERTEX
8
CUT
10
246.1513
20
128.7075
0
VERTEX
8
CUT
10
246.1692
20
128.7084
0
VERTEX
8
CUT
10
247.3847
20
128.7427
0
VERTEX
8
CUT
10
247.6670
20
128.7667
0
VERTEX
8
CUT
10
247.9448
20
128.8226
0
VERTEX
8
CUT
10
248.2145
20
128.9094
0
VERTEX
8
CUT
10
248.3697
20
128.9694
0
VERTEX
8
CUT
10
248.3858
20
128.9752
0
VERTEX
8
CUT
10
248.4204
20
128.9851
0
VERTEX
8
CUT
10
248.4558
20
128.9888
0
VERTEX
8
CUT
10
248.4731
20
128.9895
0
VERTEX
8
CUT
10
251.0553
20
129.0307
0
VERTEX
8
CUT
10
251.2983
20
129.0465
0
VERTEX
8
CUT
10
251.5386
20
129.0858
0
VERTEX
8
CUT
10
251.7739
20
129.1483
0
VERTEX
8
CUT
10
252.1519
20
129.2686
0
VERTEX
8
CUT
10
252.1697
20
129.2738
0
VERTEX
8
CUT
10
252.2077
20
129.2821
0
VERTEX
8
CUT
10
252.2463
20
129.2866
0
VERTEX
8
CUT
10
252.2648
20
129.2875
0
VERTEX
8
CUT
10
253.6456
20
129.3187
0
VERTEX
8
CUT
10
253.8829
20
129.3354
0
VERTEX
8
CUT
10
254.1174
20
129.3745
0
VERTEX
8
CUT
10
254.1287
20
129.3775
0
VERTEX
8
CUT
10
254.1333
20
129.3783
0
VERTEX
8
CUT
10
254.2125
20
129.3999
0
VERTEX
8
CUT
10
254.3472
20
129.4358
0
VERTEX
8
CUT
10
254.3548
20
129.4386
0
VERTEX
8
CUT
10
254.3668
20
129.4419
0
VERTEX
8
CUT
10
254.5195
20
129.4998
0
VERTEX
8
CUT
10
254.5702
20
129.5186
0
VERTEX
8
CUT
10
254.5786
20
129.5222
0
VERTEX
8
CUT
10
254.5931
20
129.5277
0
VERTEX
8
CUT
10
254.6165
20
129.5379
0
VERTEX
8
CUT
10
254.6334
20
129.5448
0
VERTEX
8
CUT
10
254.6694
20
129.5566
0
VERTEX
8
CUT
10
254.7070
20
129.5616
0
VERTEX
8
CUT
10
254.7251
20
129.5627
0
VERTEX
8
CUT
10
255.5711
20
129.5947
0
VERTEX
8
CUT
10
255.6487
20
129.5976
0
VERTEX
8
CUT
10
255.8794
20
129.6063
0
VERTEX
8
CUT
10
256.1546
20
129.6320
0
VERTEX
8
CUT
10
256.4253
20
129.6880
0
VERTEX
8
CUT
10
257.7856
20
130.0484
0
VERTEX
8
CUT
10
257.8983
20
130.0687
0
VERTEX
8
CUT
10
257.9462
20
130.0773
0
VERTEX
8
CUT
10
258.2170
20
130.1260
0
VERTEX
8
CUT
10
258.3813
20
130.1556
0
VERTEX
8
CUT
10
258.7110
20
130.1731
0
VERTEX
8
CUT
10
258.9328
20
130.1949
0
VERTEX
8
CUT
10
259.1518
20
130.2363
0
VERTEX
8
CUT
10
259.3663
20
130.2971
0
VERTEX
8
CUT
10
259.6007
20
130.3749
0
VERTEX
8
CUT
10
259.8710
20
130.4235
0
VERTEX
8
CUT
10
260.1182
20
130.4811
0
VERTEX
8
CUT
10
260.3583
20
130.5634
0
VERTEX
8
CUT
10
260.5889
20
130.6697
0
VERTEX
8
CUT
10
260.7632
20
130.7611
0
VERTEX
8
CUT
10
262.4142
20
131.3095
0
VERTEX
8
CUT
10
262.6546
20
131.4034
0
VERTEX
8
CUT
10
263.3365
20
131.7112
0
VERTEX
8
CUT
10
263.8246
20
131.8776
0
VERTEX
8
CUT
10
264.0193
20
131.9532
0
VERTEX
8
CUT
10
264.2069
20
132.0447
0
VERTEX
8
CUT
10
264.8710
20
132.4038
0
VERTEX
8
CUT
10
265.5953
20
132.7307
0
VERTEX
8
CUT
10
265.8743
20
132.8785
0
VERTEX
8
CUT
10
266.8037
20
133.4488
0
VERTEX
8
CUT
10
267.5559
20
133.8555
0
VERTEX
8
CUT
10
267.7285
20
133.9580
0
VERTEX
8
CUT
10
267.8924
20
134.0740
0
VERTEX
8
CUT
10
268.1653
20
134.2842
0
VERTEX
8
CUT
10
268.4920
20
134.4847
0
VERTEX
8
CUT
10
268.7797
20
134.6906
0
VERTEX
8
CUT
10
269.9243
20
135.6391
0
VERTEX
8
CUT
10
270.0739
20
135.7544
0
VERTEX
8
CUT
10
270.2368
20
135.8981
0
VERTEX
8
CUT
10
270.3217
20
135.9684
0
VERTEX
8
CUT
10
270.4980
20
136.1293
0
VERTEX
8
CUT
10
272.4967
20
138.1365
0
VERTEX
8
CUT
10
272.6980
20
138.3694
0
VERTEX
8
CUT
10
272.7203
20
138.3919
0
VERTEX
8
CUT
10
272.9570
20
138.6681
0
VERTEX
8
CUT
10
275.0601
20
141.5194
0
VERTEX
8
CUT
10
275.1797
20
141.6970
0
VERTEX
8
CUT
10
275.2836
20
141.8841
0
VERTEX
8
CUT
10
275.2874
20
141.8916
0
VERTEX
8
CUT
10
276.1189
20
143.5523
0
VERTEX
8
CUT
10
276.8278
20
144.9681
0
VERTEX
8
CUT
10
276.8285
20
144.9695
0
VERTEX
8
CUT
10
276.9174
20
145.1682
0
VERTEX
8
CUT
10
276.9887
20
145.3739
0
VERTEX
8
CUT
10
277.6984
20
147.7518
0
VERTEX
8
CUT
10
277.7500
20
147.9559
0
VERTEX
8
CUT
10
277.7544
20
147.9822
0
VERTEX
8
CUT
10
277.7569
20
147.9923
0
VERTEX
8
CUT
10
277.7910
20
148.2025
0
VERTEX
8
CUT
10
277.8072
20
148.4149
0
VERTEX
8
CUT
10
277.8415
20
149.4510
0
VERTEX
8
CUT
10
277.8422
20
149.4623
0
VERTEX
8
CUT
10
277.8426
20
149.4682
0
VERTEX
8
CUT
10
277.8584
20
149.5669
0
VERTEX
8
CUT
10
277.8644
20
149.5899
0
VERTEX
8
CUT
10
277.9921
20
150.0313
0
VERTEX
8
CUT
10
278.0447
20
150.2494
0
VERTEX
8
CUT
10
278.0776
20
150.4713
0
VERTEX
8
CUT
10
278.0816
20
150.5415
0
VERTEX
8
CUT
10
278.0893
20
150.6010
0
VERTEX
8
CUT
10
278.0983
20
150.8139
0
VERTEX
8
CUT
10
278.0983
20
151.3359
0
VERTEX
8
CUT
10
278.1044
20
151.8229
0
VERTEX
8
CUT
10
278.0983
20
151.9467
0
VERTEX
8
CUT
10
278.0983
20
152.0651
0
VERTEX
8
CUT
10
278.0900
20
152.2690
0
VERTEX
8
CUT
10
278.0651
20
152.4716
0
VERTEX
8
CUT
10
277.8197
20
153.9607
0
VERTEX
8
CUT
10
277.8055
20
154.4050
0
VERTEX
8
CUT
10
277.7835
20
154.6658
0
VERTEX
8
CUT
10
277.7343
20
154.9230
0
VERTEX
8
CUT
10
277.5505
20
155.6692
0
VERTEX
8
CUT
10
277.4882
20
155.8813
0
VERTEX
8
CUT
10
277.4074
20
156.0871
0
VERTEX
8
CUT
10
276.4486
20
158.2434
0
VERTEX
8
CUT
10
276.3491
20
158.4428
0
VERTEX
8
CUT
10
276.3325
20
158.4697
0
VERTEX
8
CUT
10
276.3292
20
158.4764
0
VERTEX
8
CUT
10
276.2136
20
158.6645
0
VERTEX
8
CUT
10
275.2898
20
160.0292
0
VERTEX
8
CUT
10
275.1581
20
160.2064
0
VERTEX
8
CUT
10
275.1235
20
160.2452
0
VERTEX
8
CUT
10
275.1123
20
160.2601
0
VERTEX
8
CUT
10
275.0394
20
160.3396
0
VERTEX
8
CUT
10
275.0113
20
160.3712
0
VERTEX
8
CUT
10
274.9971
20
160.3858
0
VERTEX
8
CUT
10
274.9489
20
160.4383
0
VERTEX
8
CUT
10
274.8670
20
160.5195
0
VERTEX
8
CUT
10
274.1576
20
161.2485
0
VERTEX
8
CUT
10
273.9833
20
161.4113
0
VERTEX
8
CUT
10
273.8426
20
161.5195
0
VERTEX
8
CUT
10
273.7558
20
161.5960
0
VERTEX
8
CUT
10
273.5161
20
161.7620
0
VERTEX
8
CUT
10
273.3827
20
161.8432
0
VERTEX
8
CUT
10
272.1935
20
162.6710
0
VERTEX
8
CUT
10
271.8871
20
162.8534
0
VERTEX
8
CUT
10
271.1405
20
163.2283
0
VERTEX
8
CUT
10
270.8683
20
163.3453
0
VERTEX
8
CUT
10
270.5842
20
163.4293
0
VERTEX
8
CUT
10
269.7882
20
163.6142
0
VERTEX
8
CUT
10
268.7590
20
163.8611
0
VERTEX
8
CUT
10
268.4815
20
163.9114
0
VERTEX
8
CUT
10
268.4402
20
163.9141
0
VERTEX
8
CUT
10
268.3637
20
163.9272
0
VERTEX
8
CUT
10
268.0687
20
163.9422
0
VERTEX
8
CUT
10
267.4599
20
163.9372
0
VERTEX
8
CUT
10
266.9745
20
163.9419
0
VERTEX
8
CUT
10
266.7018
20
163.9297
0
VERTEX
8
CUT
10
266.6391
20
163.9200
0
VERTEX
8
CUT
10
266.6013
20
163.9178
0
VERTEX
8
CUT
10
266.3551
20
163.8786
0
VERTEX
8
CUT
10
264.2204
20
163.4286
0
VERTEX
8
CUT
10
264.0128
20
163.3755
0
VERTEX
8
CUT
10
263.8105
20
163.3047
0
VERTEX
8
CUT
10
263.7766
20
163.2895
0
VERTEX
8
CUT
10
263.7618
20
163.2843
0
VERTEX
8
CUT
10
263.5656
20
163.1958
0
VERTEX
8
CUT
10
262.2055
20
162.5098
0
VERTEX
8
CUT
10
261.2820
20
162.0465
0
VERTEX
8
CUT
10
261.0623
20
161.9221
0
VERTEX
8
CUT
10
261.0426
20
161.9081
0
VERTEX
8
CUT
10
261.0339
20
161.9031
0
VERTEX
8
CUT
10
260.9578
20
161.8480
0
VERTEX
8
CUT
10
260.8563
20
161.7760
0
VERTEX
8
CUT
10
260.8311
20
161.7562
0
VERTEX
8
CUT
10
260.8182
20
161.7469
0
VERTEX
8
CUT
10
260.7803
20
161.7162
0
VERTEX
8
CUT
10
259.6442
20
160.8215
0
VERTEX
8
CUT
10
259.4101
20
160.6120
0
VERTEX
8
CUT
10
259.3669
20
160.5682
0
VERTEX
8
CUT
10
259.2016
20
160.4180
0
VERTEX
8
CUT
10
257.5204
20
158.7048
0
VERTEX
8
CUT
10
257.3764
20
158.5449
0
VERTEX
8
CUT
10
257.3362
20
158.4961
0
VERTEX
8
CUT
10
257.2998
20
158.4557
0
VERTEX
8
CUT
10
256.2983
20
157.2384
0
VERTEX
8
CUT
10
254.9287
20
155.5785
0
VERTEX
8
CUT
10
254.8922
20
155.5291
0
VERTEX
8
CUT
10
254.8720
20
155.5045
0
VERTEX
8
CUT
10
254.7156
20
155.2926
0
VERTEX
8
CUT
10
254.5824
20
155.0654
0
VERTEX
8
CUT
10
253.5619
20
153.0937
0
VERTEX
8
CUT
10
253.5516
20
153.0750
0
VERTEX
8
CUT
10
253.5460
20
153.0667
0
VERTEX
8
CUT
10
253.5455
20
153.0663
0
VERTEX
8
CUT
10
253.1065
20
152.7090
0
VERTEX
8
CUT
10
252.9555
20
152.5933
0
VERTEX
8
CUT
10
252.9399
20
152.5820
0
VERTEX
8
CUT
10
252.9262
20
152.5735
0
VERTEX
8
CUT
10
252.8968
20
152.5651
0
VERTEX
8
CUT
10
252.8775
20
152.5612
0
VERTEX
8
CUT
10
252.4682
20
152.4880
0
VERTEX
8
CUT
10
252.4504
20
152.4852
0
VERTEX
8
CUT
10
252.4388
20
152.4843
0
VERTEX
8
CUT
10
252.4137
20
152.4829
0
VERTEX
8
CUT
10
252.3817
20
152.5076
0
VERTEX
8
CUT
10
252.3673
20
152.5207
0
VERTEX
8
CUT
10
252.2725
20
152.6108
0
VERTEX
8
CUT
10
252.0301
20
152.8413
0
VERTEX
8
CUT
10
252.0170
20
152.8544
0
VERTEX
8
CUT
10
251.9919
20
152.8833
0
VERTEX
8
CUT
10
251.9866
20
152.9213
0
VERTEX
8
CUT
10
251.9854
20
152.9397
0
VERTEX
8
CUT
10
251.9450
20
153.8918
0
VERTEX
8
CUT
10
251.9420
20
153.9259
0
VERTEX
8
CUT
10
251.9313
20
154.1689
0
VERTEX
8
CUT
10
251.9132
20
154.3789
0
VERTEX
8
CUT
10
251.8775
20
154.5867
0
VERTEX
8
CUT
10
251.6491
20
155.6450
0
VERTEX
8
CUT
10
251.4956
20
156.5114
0
VERTEX
8
CUT
10
251.4927
20
156.5275
0
VERTEX
8
CUT
10
251.4925
20
156.5287
0
VERTEX
8
CUT
10
251.4493
20
156.7724
0
VERTEX
8
CUT
10
251.4434
20
156.8338
0
VERTEX
8
CUT
10
251.4409
20
156.9116
0
VERTEX
8
CUT
10
251.4417
20
164.5728
0
VERTEX
8
CUT
10
251.4420
20
164.5897
0
VERTEX
8
CUT
10
251.4481
20
164.6603
0
VERTEX
8
CUT
10
251.4507
20
164.6770
0
VERTEX
8
CUT
10
251.9815
20
167.7167
0
VERTEX
8
CUT
10
251.9848
20
167.7334
0
VERTEX
8
CUT
10
252.0032
20
167.8023
0
VERTEX
8
CUT
10
252.0086
20
167.8184
0
VERTEX
8
CUT
10
253.1462
20
170.9654
0
VERTEX
8
CUT
10
253.1740
20
171.0353
0
VERTEX
8
CUT
10
253.2060
20
171.1033
0
VERTEX
8
CUT
10
254.0212
20
172.7051
0
VERTEX
8
CUT
10
254.0560
20
172.7686
0
VERTEX
8
CUT
10
254.0946
20
172.8300
0
VERTEX
8
CUT
10
255.7791
20
175.3443
0
VERTEX
8
CUT
10
255.8108
20
175.3894
0
VERTEX
8
CUT
10
255.8445
20
175.4330
0
VERTEX
8
CUT
10
258.3963
20
178.5809
0
VERTEX
8
CUT
10
258.4403
20
178.6322
0
VERTEX
8
CUT
10
258.4871
20
178.6810
0
VERTEX
8
CUT
10
261.1418
20
181.2978
0
VERTEX
8
CUT
10
261.1902
20
181.3429
0
VERTEX
8
CUT
10
261.2410
20
181.3854
0
VERTEX
8
CUT
10
263.9009
20
183.4887
0
VERTEX
8
CUT
10
263.9390
20
183.5176
0
VERTEX
8
CUT
10
263.9783
20
183.5451
0
VERTEX
8
CUT
10
266.5309
20
185.2546
0
VERTEX
8
CUT
10
266.5707
20
185.2802
0
VERTEX
8
CUT
10
266.6115
20
185.3042
0
VERTEX
8
CUT
10
270.8086
20
187.6639
0
VERTEX
8
CUT
10
270.9140
20
187.7266
0
VERTEX
8
CUT
10
275.4418
20
190.5733
0
VERTEX
8
CUT
10
275.6962
20
190.7564
0
VERTEX
8
CUT
10
278.7329
20
193.2460
0
VERTEX
8
CUT
10
278.8951
20
193.3913
0
VERTEX
8
CUT
10
279.0441
20
193.5501
0
VERTEX
8
CUT
10
280.8345
20
195.6340
0
VERTEX
8
CUT
10
281.0146
20
195.8709
0
VERTEX
8
CUT
10
282.0202
20
197.3706
0
VERTEX
8
CUT
10
282.1780
20
197.6411
0
VERTEX
8
CUT
10
282.8378
20
198.9552
0
VERTEX
8
CUT
10
282.9335
20
199.1705
0
VERTEX
8
CUT
10
283.0085
20
199.3939
0
VERTEX
8
CUT
10
283.6966
20
201.8167
0
VERTEX
8
CUT
10
283.7488
20
202.0384
0
VERTEX
8
CUT
10
283.7806
20
202.2639
0
VERTEX
8
CUT
10
283.7917
20
202.4914
0
VERTEX
8
CUT
10
283.8037
20
206.0963
0
VERTEX
8
CUT
10
283.7956
20
206.3054
0
VERTEX
8
CUT
10
283.7701
20
206.5131
0
VERTEX
8
CUT
10
283.5723
20
207.7074
0
VERTEX
8
CUT
10
283.5321
20
207.9019
0
VERTEX
8
CUT
10
283.4766
20
208.0926
0
VERTEX
8
CUT
10
283.0011
20
209.5128
0
VERTEX
8
CUT
10
282.8627
20
209.8447
0
VERTEX
8
CUT
10
282.1782
20
211.2021
0
VERTEX
8
CUT
10
282.0809
20
211.3772
0
VERTEX
8
CUT
10
281.9699
20
211.5440
0
VERTEX
8
CUT
10
280.7406
20
213.2394
0
VERTEX
8
CUT
10
280.5732
20
213.4461
0
VERTEX
8
CUT
10
280.3848
20
213.6339
0
VERTEX
8
CUT
10
278.0464
20
215.7289
0
VERTEX
8
CUT
10
277.8383
20
215.8962
0
VERTEX
8
CUT
10
277.6136
20
216.0403
0
VERTEX
8
CUT
10
275.3844
20
217.3075
0
VERTEX
8
CUT
10
275.0761
20
217.4558
0
VERTEX
8
CUT
10
273.8945
20
217.9277
0
VERTEX
8
CUT
10
273.5694
20
218.0325
0
VERTEX
8
CUT
10
271.6846
20
218.5002
0
VERTEX
8
CUT
10
271.4322
20
218.5492
0
VERTEX
8
CUT
10
271.1760
20
218.5720
0
VERTEX
8
CUT
10
270.0367
20
218.6147
0
VERTEX
8
CUT
10
270.0154
20
218.6160
0
VERTEX
8
CUT
10
269.9270
20
218.6291
0
VERTEX
8
CUT
10
269.9063
20
218.6339
0
VERTEX
8
CUT
10
269.3002
20
218.7924
0
VERTEX
8
CUT
10
269.0968
20
218.8366
0
VERTEX
8
CUT
10
268.8906
20
218.8638
0
VERTEX
8
CUT
10
268.6827
20
218.8737
0
VERTEX
8
CUT
10
267.6581
20
218.8798
0
VERTEX
8
CUT
10
267.3620
20
218.8640
0
VERTEX
8
CUT
10
267.0698
20
218.8132
0
VERTEX
8
CUT
10
266.2900
20
218.6295
0
VERTEX
8
CUT
10
266.2710
20
218.6255
0
VERTEX
8
CUT
10
266.1900
20
218.6148
0
VERTEX
8
CUT
10
266.1705
20
218.6137
0
VERTEX
8
CUT
10
265.0851
20
218.5790
0
VERTEX
8
CUT
10
264.8232
20
218.5568
0
VERTEX
8
CUT
10
264.5651
20
218.5072
0
VERTEX
8
CUT
10
262.5896
20
218.0189
0
VERTEX
8
CUT
10
262.3965
20
217.9629
0
VERTEX
8
CUT
10
259.9956
20
217.1600
0
VERTEX
8
CUT
10
259.6747
20
217.0272
0
VERTEX
8
CUT
10
256.5432
20
215.4687
0
VERTEX
8
CUT
10
256.3182
20
215.3419
0
VERTEX
8
CUT
10
253.0215
20
213.2515
0
VERTEX
8
CUT
10
252.9698
20
213.2205
0
VERTEX
8
CUT
10
252.9167
20
213.1921
0
VERTEX
8
CUT
10
250.7059
20
212.0807
0
VERTEX
8
CUT
10
250.6902
20
212.0732
0
VERTEX
8
CUT
10
250.6564
20
212.0598
0
VERTEX
8
CUT
10
250.6213
20
212.0495
0
VERTEX
8
CUT
10
250.6049
20
212.0458
0
VERTEX
8
CUT
10
248.8476
20
211.6914
0
VERTEX
8
CUT
10
248.8281
20
211.6880
0
VERTEX
8
CUT
10
248.7870
20
211.6840
0
VERTEX
8
CUT
10
248.7457
20
211.6841
0
VERTEX
8
CUT
10
248.7260
20
211.6857
0
VERTEX
8
CUT
10
247.9949
20
211.7628
0
VERTEX
8
CUT
10
247.9779
20
211.7650
0
VERTEX
8
CUT
10
247.9425
20
211.7719
0
VERTEX
8
CUT
10
247.9076
20
211.7820
0
VERTEX
8
CUT
10
247.8919
20
211.7877
0
VERTEX
8
CUT
10
246.5815
20
212.2953
0
VERTEX
8
CUT
10
246.5635
20
212.3028
0
VERTEX
8
CUT
10
246.5272
20
212.3212
0
VERTEX
8
CUT
10
246.4953
20
212.3465
0
VERTEX
8
CUT
10
246.4809
20
212.3597
0
VERTEX
8
CUT
10
244.9579
20
213.8390
0
VERTEX
8
CUT
10
244.9438
20
213.8534
0
VERTEX
8
CUT
10
244.9167
20
213.8859
0
VERTEX
8
CUT
10
244.8969
20
213.9232
0
VERTEX
8
CUT
10
244.8889
20
213.9418
0
VERTEX
8
CUT
10
244.2745
20
215.4659
0
VERTEX
8
CUT
10
244.2685
20
215.4818
0
VERTEX
8
CUT
10
244.2581
20
215.5160
0
VERTEX
8
CUT
10
244.2538
20
215.5511
0
VERTEX
8
CUT
10
244.2529
20
215.5683
0
VERTEX
8
CUT
10
244.1897
20
217.4795
0
VERTEX
8
CUT
10
244.1895
20
217.4979
0
VERTEX
8
CUT
10
244.1942
20
217.5750
0
VERTEX
8
CUT
10
244.1967
20
217.5933
0
VERTEX
8
CUT
10
244.2323
20
217.8208
0
VERTEX
8
CUT
10
245.9239
20
222.0711
0
VERTEX
8
CUT
10
248.8386
20
227.8960
0
VERTEX
8
CUT
10
248.8586
20
227.9342
0
VERTEX
8
CUT
10
248.8799
20
227.9716
0
VERTEX
8
CUT
10
252.9511
20
234.8415
0
VERTEX
8
CUT
10
253.7738
20
236.1160
0
VERTEX
8
CUT
10
253.8525
20
236.2380
0
VERTEX
8
CUT
10
253.9262
20
236.3522
0
VERTEX
8
CUT
10
253.9520
20
236.3921
0
VERTEX
8
CUT
10
256.2944
20
239.6595
0
VERTEX
8
CUT
10
256.9881
20
240.5796
0
VERTEX
8
CUT
10
257.1905
20
240.8479
0
VERTEX
8
CUT
10
257.8832
20
241.7667
0
VERTEX
8
CUT
10
258.5340
20
242.6299
0
VERTEX
8
CUT
10
260.2854
20
244.6676
0
VERTEX
8
CUT
10
262.8148
20
247.4099
0
VERTEX
8
CUT
10
263.5410
20
248.1314
0
VERTEX
8
CUT
10
267.2532
20
251.5378
0
VERTEX
8
CUT
10
267.2961
20
251.5747
0
VERTEX
8
CUT
10
272.2486
20
255.0949
0
VERTEX
8
CUT
10
272.2661
20
255.1067
0
VERTEX
8
CUT
10
272.3297
20
255.1449
0
VERTEX
8
CUT
10
272.3463
20
255.1534
0
VERTEX
8
CUT
10
273.6238
20
255.7766
0
VERTEX
8
CUT
10
273.8441
20
255.8982
0
VERTEX
8
CUT
10
276.3046
20
257.4220
0
VERTEX
8
CUT
10
278.0063
20
258.3955
0
VERTEX
8
CUT
10
278.1564
20
258.4886
0
VERTEX
8
CUT
10
279.7425
20
259.5512
0
VERTEX
8
CUT
10
279.7672
20
259.5665
0
VERTEX
8
CUT
10
279.9222
20
259.6707
0
VERTEX
8
CUT
10
279.9376
20
259.6819
0
VERTEX
8
CUT
10
280.5919
20
260.1203
0
VERTEX
8
CUT
10
280.7368
20
260.2251
0
VERTEX
8
CUT
10
281.4925
20
260.8138
0
VERTEX
8
CUT
10
281.6834
20
260.9528
0
VERTEX
8
CUT
10
281.8863
20
261.1206
0
VERTEX
8
CUT
10
281.9061
20
261.1361
0
VERTEX
8
CUT
10
282.1281
20
261.3312
0
VERTEX
8
CUT
10
282.3610
20
261.5616
0
VERTEX
8
CUT
10
282.9227
20
262.0880
0
VERTEX
8
CUT
10
283.0394
20
262.2049
0
VERTEX
8
CUT
10
283.3896
20
262.5794
0
VERTEX
8
CUT
10
283.5821
20
262.7699
0
VERTEX
8
CUT
10
283.7256
20
262.9244
0
VERTEX
8
CUT
10
283.7949
20
263.0130
0
VERTEX
8
CUT
10
283.9308
20
263.1584
0
VERTEX
8
CUT
10
284.0952
20
263.3533
0
VERTEX
8
CUT
10
284.2389
20
263.5639
0
VERTEX
8
CUT
10
284.2411
20
263.5674
0
VERTEX
8
CUT
10
284.4897
20
263.9752
0
VERTEX
8
CUT
10
285.0925
20
264.8160
0
VERTEX
8
CUT
10
285.2538
20
265.0726
0
VERTEX
8
CUT
10
285.3829
20
265.3468
0
VERTEX
8
CUT
10
285.4897
20
265.6147
0
VERTEX
8
CUT
10
285.5298
20
265.6805
0
VERTEX
8
CUT
10
285.5948
20
265.7870
0
VERTEX
8
CUT
10
285.6038
20
265.8017
0
VERTEX
8
CUT
10
285.6062
20
265.8057
0
VERTEX
8
CUT
10
285.6705
20
265.9110
0
VERTEX
8
CUT
10
285.6719
20
265.9134
0
VERTEX
8
CUT
10
285.8045
20
266.1610
0
VERTEX
8
CUT
10
285.9084
20
266.4220
0
VERTEX
8
CUT
10
286.3584
20
267.7669
0
VERTEX
8
CUT
10
286.4458
20
268.1055
0
VERTEX
8
CUT
10
286.6574
20
269.2497
0
VERTEX
8
CUT
10
286.6884
20
269.4736
0
VERTEX
8
CUT
10
286.6991
20
269.6993
0
VERTEX
8
CUT
10
286.6994
20
269.8418
0
VERTEX
8
CUT
10
286.7224
20
270.0695
0
VERTEX
8
CUT
10
286.7237
20
270.3082
0
VERTEX
8
CUT
10
286.7022
20
270.5459
0
VERTEX
8
CUT
10
286.7008
20
270.5564
0
VERTEX
8
CUT
10
286.7011
20
270.7357
0
VERTEX
8
CUT
10
286.6840
20
271.0326
0
VERTEX
8
CUT
10
286.6318
20
271.3255
0
VERTEX
8
CUT
10
286.5427
20
271.6956
0
VERTEX
8
CUT
10
286.4712
20
272.2110
0
VERTEX
8
CUT
10
286.4287
20
272.4392
0
VERTEX
8
CUT
10
286.3651
20
272.6625
0
VERTEX
8
CUT
10
286.2812
20
272.8789
0
VERTEX
8
CUT
10
286.2304
20
272.9937
0
VERTEX
8
CUT
10
286.1749
20
273.2242
0
VERTEX
8
CUT
10
286.0903
20
273.5031
0
VERTEX
8
CUT
10
285.9738
20
273.7703
0
VERTEX
8
CUT
10
285.9681
20
273.7816
0
VERTEX
8
CUT
10
285.3546
20
274.9911
0
VERTEX
8
CUT
10
285.2462
20
275.1833
0
VERTEX
8
CUT
10
285.1212
20
275.3653
0
VERTEX
8
CUT
10
284.4515
20
276.2535
0
VERTEX
8
CUT
10
284.2355
20
276.5036
0
VERTEX
8
CUT
10
283.8249
20
276.9201
0
VERTEX
8
CUT
10
283.6872
20
277.0690
0
VERTEX
8
CUT
10
283.6318
20
277.1159
0
VERTEX
8
CUT
10
283.5206
20
277.2287
0
VERTEX
8
CUT
10
283.3505
20
277.3860
0
VERTEX
8
CUT
10
283.1664
20
277.5269
0
VERTEX
8
CUT
10
282.5434
20
277.9595
0
VERTEX
8
CUT
10
282.2374
20
278.1412
0
VERTEX
8
CUT
10
280.3413
20
279.0913
0
VERTEX
8
CUT
10
280.0684
20
279.2083
0
VERTEX
8
CUT
10
279.7835
20
279.2922
0
VERTEX
8
CUT
10
279.5990
20
279.3348
0
VERTEX
8
CUT
10
279.5421
20
279.3606
0
VERTEX
8
CUT
10
279.3154
20
279.4503
0
VERTEX
8
CUT
10
279.0812
20
279.5175
0
VERTEX
8
CUT
10
278.8415
20
279.5616
0
VERTEX
8
CUT
10
278.3050
20
279.6334
0
VERTEX
8
CUT
10
277.8511
20
279.7381
0
VERTEX
8
CUT
10
277.5709
20
279.7862
0
VERTEX
8
CUT
10
277.2869
20
279.8022
0
VERTEX
8
CUT
10
277.0460
20
279.8020
0
VERTEX
8
CUT
10
276.9755
20
279.8114
0
VERTEX
8
CUT
10
276.6702
20
279.8334
0
VERTEX
8
CUT
10
276.3645
20
279.8179
0
VERTEX
8
CUT
10
276.2170
20
279.8013
0
VERTEX
8
CUT
10
275.9994
20
279.8011
0
VERTEX
8
CUT
10
275.7316
20
279.7865
0
VERTEX
8
CUT
10
275.4668
20
279.7433
0
VERTEX
8
CUT
10
275.3058
20
279.6989
0
VERTEX
8
CUT
10
274.0258
20
279.5550
0
VERTEX
8
CUT
10
273.7316
20
279.5040
0
VERTEX
8
CUT
10
273.4456
20
279.4183
0
VERTEX
8
CUT
10
273.4118
20
279.4059
0
VERTEX
8
CUT
10
273.3296
20
279.3803
0
VERTEX
8
CUT
10
271.6239
20
278.7515
0
VERTEX
8
CUT
10
271.6060
20
278.7456
0
VERTEX
8
CUT
10
271.5083
20
278.7229
0
VERTEX
8
CUT
10
271.4846
20
278.7196
0
VERTEX
8
CUT
10
271.2450
20
278.6942
0
VERTEX
8
CUT
10
271.0223
20
278.6604
0
VERTEX
8
CUT
10
270.8036
20
278.6067
0
VERTEX
8
CUT
10
270.5907
20
278.5336
0
VERTEX
8
CUT
10
270.3851
20
278.4416
0
VERTEX
8
CUT
10
269.2007
20
277.8458
0
VERTEX
8
CUT
10
268.9255
20
277.6846
0
VERTEX
8
CUT
10
267.3419
20
276.6157
0
VERTEX
8
CUT
10
267.1709
20
276.4894
0
VERTEX
8
CUT
10
264.3666
20
274.2272
0
VERTEX
8
CUT
10
264.1670
20
274.0476
0
VERTEX
8
CUT
10
263.9878
20
273.8477
0
VERTEX
8
CUT
10
261.6957
20
270.9965
0
VERTEX
8
CUT
10
261.5195
20
270.7477
0
VERTEX
8
CUT
10
259.4205
20
267.3630
0
VERTEX
8
CUT
10
259.3174
20
267.1800
0
VERTEX
8
CUT
10
259.2301
20
266.9891
0
VERTEX
8
CUT
10
256.0352
20
259.1511
0
VERTEX
8
CUT
10
256.0115
20
259.0967
0
VERTEX
8
CUT
10
255.9851
20
259.0435
0
VERTEX
8
CUT
10
253.1758
20
253.7114
0
VERTEX
8
CUT
10
253.1438
20
253.6545
0
VERTEX
8
CUT
10
253.1087
20
253.5993
0
VERTEX
8
CUT
10
251.3532
20
250.9922
0
VERTEX
8
CUT
10
251.3102
20
250.9324
0
VERTEX
8
CUT
10
251.2637
20
250.8753
0
VERTEX
8
CUT
10
247.3384
20
246.3456
0
VERTEX
8
CUT
10
247.3154
20
246.3205
0
VERTEX
8
CUT
10
243.6527
20
242.9990
0
VERTEX
8
CUT
10
243.6215
20
242.9717
0
VERTEX
8
CUT
10
243.5894
20
242.9455
0
VERTEX
8
CUT
10
241.0294
20
240.9243
0
VERTEX
8
CUT
10
241.0028
20
240.9039
0
VERTEX
8
CUT
10
240.9757
20
240.8842
0
VERTEX
8
CUT
10
238.0962
20
238.8582
0
VERTEX
8
CUT
10
238.0426
20
238.8226
0
VERTEX
8
CUT
10
237.9871
20
238.7898
0
VERTEX
8
CUT
10
235.8331
20
237.5934
0
VERTEX
8
CUT
10
235.8305
20
237.5920
0
VERTEX
8
CUT
10
235.5935
20
237.4423
0
VERTEX
8
CUT
10
234.3338
20
236.5446
0
VERTEX
8
CUT
10
234.3180
20
236.5339
0
VERTEX
8
CUT
10
234.3155
20
236.5325
0
VERTEX
8
CUT
10
234.2821
20
236.5208
0
VERTEX
8
CUT
10
234.2644
20
236.5159
0
VERTEX
8
CUT
10
233.9138
20
236.4287
0
VERTEX
8
CUT
10
233.6723
20
236.3554
0
VERTEX
8
CUT
10
233.4393
20
236.2582
0
VERTEX
8
CUT
10
233.4221
20
236.2500
0
VERTEX
8
CUT
10
233.4204
20
236.2492
0
VERTEX
8
CUT
10
228.5519
20
233.9242
0
VERTEX
8
CUT
10
228.5374
20
233.9177
0
VERTEX
8
CUT
10
228.4799
20
233.8970
0
VERTEX
8
CUT
10
228.4610
20
233.8917
0
VERTEX
8
CUT
10
226.1436
20
233.3105
0
VERTEX
8
CUT
10
226.1132
20
233.3040
0
VERTEX
8
CUT
10
226.0563
20
233.2958
0
VERTEX
8
CUT
10
226.0363
20
233.2945
0
VERTEX
8
CUT
10
224.9365
20
233.2502
0
VERTEX
8
CUT
10
224.7104
20
233.2308
0
VERTEX
8
CUT
10
224.4870
20
233.1910
0
VERTEX
8
CUT
10
224.2681
20
233.1310
0
VERTEX
8
CUT
10
224.1500
20
233.0928
0
VERTEX
8
CUT
10
223.3834
20
233.0125
0
VERTEX
8
CUT
10
222.9278
20
233.0605
0
VERTEX
8
CUT
10
222.6531
20
233.0894
0
VERTEX
8
CUT
10
222.5238
20
233.1314
0
VERTEX
8
CUT
10
222.3049
20
233.1918
0
VERTEX
8
CUT
10
222.0813
20
233.2321
0
VERTEX
8
CUT
10
221.8551
20
233.2519
0
VERTEX
8
CUT
10
220.7368
20
233.2987
0
VERTEX
8
CUT
10
220.7314
20
233.2990
0
VERTEX
8
CUT
10
220.6875
20
233.3043
0
VERTEX
8
CUT
10
220.6738
20
233.3081
0
VERTEX
8
CUT
10
219.5177
20
233.6529
0
VERTEX
8
CUT
10
217.7480
20
234.1863
0
VERTEX
8
CUT
10
217.7318
20
234.1916
0
VERTEX
8
CUT
10
217.7056
20
234.2020
0
VERTEX
8
CUT
10
217.7000
20
234.2047
0
VERTEX
8
CUT
10
216.8665
20
234.6224
0
VERTEX
8
CUT
10
216.7511
20
234.6803
0
VERTEX
8
CUT
10
216.7200
20
234.6959
0
VERTEX
8
CUT
10
216.7010
20
234.7054
0
VERTEX
8
CUT
10
216.5758
20
234.7682
0
VERTEX
8
CUT
10
216.5715
20
234.7704
0
VERTEX
8
CUT
10
216.5020
20
234.8129
0
VERTEX
8
CUT
10
216.4861
20
234.8240
0
VERTEX
8
CUT
10
214.3167
20
236.4311
0
VERTEX
8
CUT
10
214.2756
20
236.4717
0
VERTEX
8
CUT
10
212.4064
20
238.5771
0
VERTEX
8
CUT
10
212.0072
20
239.1306
0
VERTEX
8
CUT
10
210.8169
20
241.3097
0
VERTEX
8
CUT
10
209.9005
20
243.2952
0
VERTEX
8
CUT
10
209.3035
20
245.5971
0
VERTEX
8
CUT
10
209.3013
20
245.6098
0
VERTEX
8
CUT
10
209.2968
20
245.6358
0
VERTEX
8
CUT
10
209.2967
20
245.6363
0
VERTEX
8
CUT
10
209.2954
20
245.6442
0
VERTEX
8
CUT
10
209.1957
20
246.2274
0
VERTEX
8
CUT
10
209.1419
20
251.1205
0
VERTEX
8
CUT
10
209.1650
20
251.6040
0
VERTEX
8
CUT
10
209.1687
20
251.6812
0
VERTEX
8
CUT
10
209.1692
20
251.6910
0
VERTEX
8
CUT
10
209.1713
20
251.7356
0
VERTEX
8
CUT
10
209.1728
20
251.7667
0
VERTEX
8
CUT
10
209.4757
20
253.4665
0
VERTEX
8
CUT
10
209.6160
20
254.2534
0
VERTEX
8
CUT
10
209.9768
20
255.3471
0
VERTEX
8
CUT
10
210.8600
20
258.0237
0
VERTEX
8
CUT
10
211.0317
20
258.3676
0
VERTEX
8
CUT
10
212.1749
20
260.4484
0
VERTEX
8
CUT
10
212.3554
20
260.7769
0
VERTEX
8
CUT
10
212.9796
20
261.7684
0
VERTEX
8
CUT
10
213.6518
20
262.6938
0
VERTEX
8
CUT
10
215.3020
20
264.6950
0
VERTEX
8
CUT
10
216.1859
20
265.6916
0
VERTEX
8
CUT
10
217.2604
20
266.6581
0
VERTEX
8
CUT
10
219.6731
20
268.6124
0
VERTEX
8
CUT
10
220.0120
20
268.8869
0
VERTEX
8
CUT
10
220.7083
20
269.3823
0
VERTEX
8
CUT
10
221.8184
20
270.1719
0
VERTEX
8
CUT
10
222.1687
20
270.4211
0
VERTEX
8
CUT
10
222.2811
20
270.5010
0
VERTEX
8
CUT
10
223.7042
20
271.3838
0
VERTEX
8
CUT
10
226.4234
20
273.0706
0
VERTEX
8
CUT
10
227.4203
20
273.6412
0
VERTEX
8
CUT
10
227.5430
20
273.7162
0
VERTEX
8
CUT
10
229.1112
20
274.7378
0
VERTEX
8
CUT
10
230.6078
20
275.6662
0
VERTEX
8
CUT
10
230.6819
20
275.7140
0
VERTEX
8
CUT
10
232.2728
20
276.7803
0
VERTEX
8
CUT
10
232.3142
20
276.8063
0
VERTEX
8
CUT
10
232.3939
20
276.8615
0
VERTEX
8
CUT
10
233.1737
20
277.3841
0
VERTEX
8
CUT
10
233.3151
20
277.4862
0
VERTEX
8
CUT
10
234.0078
20
278.0242
0
VERTEX
8
CUT
10
236.9626
20
280.3142
0
VERTEX
8
CUT
10
237.0812
20
280.4120
0
VERTEX
8
CUT
10
237.1166
20
280.4431
0
VERTEX
8
CUT
10
237.1502
20
280.4710
0
VERTEX
8
CUT
10
237.2149
20
280.5284
0
VERTEX
8
CUT
10
237.2328
20
280.5431
0
VERTEX
8
CUT
10
237.4822
20
280.7643
0
VERTEX
8
CUT
10
239.6505
20
282.6692
0
VERTEX
8
CUT
10
239.8070
20
282.8265
0
VERTEX
8
CUT
10
239.9313
20
282.9366
0
VERTEX
8
CUT
10
240.1382
20
283.1430
0
VERTEX
8
CUT
10
240.1384
20
283.1433
0
VERTEX
8
CUT
10
242.8470
20
286.1807
0
VERTEX
8
CUT
10
242.8555
20
286.1902
0
VERTEX
8
CUT
10
243.0009
20
286.3691
0
VERTEX
8
CUT
10
243.5585
20
287.1244
0
VERTEX
8
CUT
10
243.7214
20
287.3115
0
VERTEX
8
CUT
10
243.8802
20
287.5141
0
VERTEX
8
CUT
10
244.2624
20
288.0572
0
VERTEX
8
CUT
10
244.3951
20
288.2671
0
VERTEX
8
CUT
10
244.5062
20
288.4891
0
VERTEX
8
CUT
10
244.5948
20
288.7210
0
VERTEX
8
CUT
10
244.6600
20
288.9605
0
VERTEX
8
CUT
10
244.7011
20
289.2054
0
VERTEX
8
CUT
10
244.7177
20
289.4531
0
VERTEX
8
CUT
10
244.7096
20
289.7012
0
VERTEX
8
CUT
10
244.6770
20
289.9473
0
VERTEX
8
CUT
10
244.6201
20
290.1890
0
VERTEX
8
CUT
10
244.5395
20
290.4238
0
VERTEX
8
CUT
10
244.4361
20
290.6495
0
VERTEX
8
CUT
10
244.3107
20
290.8638
0
VERTEX
8
CUT
10
244.1648
20
291.0646
0
VERTEX
8
CUT
10
243.9996
20
291.2500
0
VERTEX
8
CUT
10
243.8169
20
291.4180
0
VERTEX
8
CUT
10
243.6184
20
291.5671
0
VERTEX
8
CUT
10
243.4061
20
291.6958
0
VERTEX
8
CUT
10
243.1820
20
291.8028
0
VERTEX
8
CUT
10
242.9485
20
291.8870
0
VERTEX
8
CUT
10
242.7078
20
291.9477
0
VERTEX
8
CUT
10
242.4622
20
291.9842
0
VERTEX
8
CUT
10
242.2142
20
291.9961
0
VERTEX
8
CUT
10
242.1982
20
291.9961
0
VERTEX
8
CUT
10
242.1709
20
291.9960
0
VERTEX
8
CUT
10
221.9423
20
291.9652
0
VERTEX
8
CUT
10
221.7015
20
291.9532
0
VERTEX
8
CUT
10
221.4631
20
291.9181
0
VERTEX
8
CUT
10
221.2291
20
291.8602
0
VERTEX
8
CUT
10
221.0017
20
291.7800
0
VERTEX
8
CUT
10
220.7832
20
291.6783
0
VERTEX
8
CUT
10
220.5755
20
291.5560
0
VERTEX
8
CUT
10
220.3805
20
291.4142
0
VERTEX
8
CUT
10
220.2000
20
291.2544
0
VERTEX
8
CUT
10
220.0358
20
291.0779
0
VERTEX
8
CUT
10
219.8894
20
290.8864
0
VERTEX
8
CUT
10
219.7621
20
290.6817
0
VERTEX
8
CUT
10
219.6551
20
290.4657
0
VERTEX
8
CUT
10
218.8918
20
288.7181
0
VERTEX
8
CUT
10
218.8545
20
288.6403
0
VERTEX
8
CUT
10
218.8117
20
288.5653
0
VERTEX
8
CUT
10
216.5399
20
284.8937
0
VERTEX
8
CUT
10
216.4993
20
284.8323
0
VERTEX
8
CUT
10
216.4551
20
284.7735
0
VERTEX
8
CUT
10
214.3010
20
282.0850
0
VERTEX
8
CUT
10
214.2593
20
282.0357
0
VERTEX
8
CUT
10
214.2151
20
281.9887
0
VERTEX
8
CUT
10
209.9057
20
277.6488
0
VERTEX
8
CUT
10
209.8652
20
277.6098
0
VERTEX
8
CUT
10
209.8229
20
277.5727
0
VERTEX
8
CUT
10
206.2895
20
274.6192
0
VERTEX
8
CUT
10
206.2548
20
274.5913
0
VERTEX
8
CUT
10
206.2192
20
274.5647
0
VERTEX
8
CUT
10
204.2305
20
273.1362
0
VERTEX
8
CUT
10
204.1903
20
273.1085
0
VERTEX
8
CUT
10
204.1490
20
273.0824
0
VERTEX
8
CUT
10
197.3109
20
268.9607
0
VERTEX
8
CUT
10
197.2094
20
268.8961
0
VERTEX
8
CUT
10
193.8588
20
266.6499
0
VERTEX
8
CUT
10
193.6020
20
266.4525
0
VERTEX
8
CUT
10
191.1077
20
264.2637
0
VERTEX
8
CUT
10
190.8743
20
264.0299
0
VERTEX
8
CUT
10
188.6638
20
261.5011
0
VERTEX
8
CUT
10
188.5406
20
261.3485
0
VERTEX
8
CUT
10
188.4298
20
261.1866
0
VERTEX
8
CUT
10
187.1494
20
259.1505
0
VERTEX
8
CUT
10
187.0519
20
258.9811
0
VERTEX
8
CUT
10
186.9679
20
258.8047
0
VERTEX
8
CUT
10
186.2316
20
257.0871
0
VERTEX
8
CUT
10
186.1259
20
256.7900
0
VERTEX
8
CUT
10
185.6185
20
255.0173
0
VERTEX
8
CUT
10
185.5461
20
254.6754
0
VERTEX
8
CUT
10
185.2786
20
252.7619
0
VERTEX
8
CUT
10
185.2546
20
252.4077
0
VERTEX
8
CUT
10
185.2633
20
249.7051
0
VERTEX
8
CUT
10
185.2900
20
249.3488
0
VERTEX
8
CUT
10
185.5456
20
247.6131
0
VERTEX
8
CUT
10
185.6244
20
247.2590
0
VERTEX
8
CUT
10
186.3966
20
244.6847
0
VERTEX
8
CUT
10
186.4651
20
244.4870
0
VERTEX
8
CUT
10
186.5498
20
244.2958
0
VERTEX
8
CUT
10
187.5576
20
242.2559
0
VERTEX
8
CUT
10
187.6999
20
242.0053
0
VERTEX
8
CUT
10
189.5915
20
239.0812
0
VERTEX
8
CUT
10
189.8061
20
238.7963
0
VERTEX
8
CUT
10
192.0470
20
236.2258
0
VERTEX
8
CUT
10
192.2455
20
236.0226
0
VERTEX
8
CUT
10
195.8147
20
232.7629
0
VERTEX
8
CUT
10
195.8961
20
232.6917
0
VERTEX
8
CUT
10
204.1228
20
225.8065
0
VERTEX
8
CUT
10
204.1644
20
225.7700
0
VERTEX
8
CUT
10
204.2043
20
225.7317
0
VERTEX
8
CUT
10
210.5171
20
219.3852
0
VERTEX
8
CUT
10
210.5618
20
219.3377
0
VERTEX
8
CUT
10
210.6040
20
219.2879
0
VERTEX
8
CUT
10
213.8912
20
215.1828
0
VERTEX
8
CUT
10
213.9303
20
215.1313
0
VERTEX
8
CUT
10
213.9666
20
215.0777
0
VERTEX
8
CUT
10
215.9561
20
211.9643
0
VERTEX
8
CUT
10
215.9816
20
211.9225
0
VERTEX
8
CUT
10
216.0055
20
211.8796
0
VERTEX
8
CUT
10
218.5041
20
207.1706
0
VERTEX
8
CUT
10
218.5409
20
207.0950
0
VERTEX
8
CUT
10
218.5723
20
207.0171
0
VERTEX
8
CUT
10
220.8419
20
200.7836
0
VERTEX
8
CUT
10
220.8473
20
200.7678
0
VERTEX
8
CUT
10
220.8656
20
200.7000
0
VERTEX
8
CUT
10
220.8689
20
200.6836
0
VERTEX
8
CUT
10
221.4527
20
197.4379
0
VERTEX
8
CUT
10
221.4995
20
197.2293
0
VERTEX
8
CUT
10
221.5640
20
197.0255
0
VERTEX
8
CUT
10
221.6456
20
196.8279
0
VERTEX
8
CUT
10
221.7078
20
196.6939
0
VERTEX
8
CUT
10
221.7157
20
196.6758
0
VERTEX
8
CUT
10
221.7291
20
196.6369
0
VERTEX
8
CUT
10
221.7345
20
196.5960
0
VERTEX
8
CUT
10
221.7355
20
196.5763
0
VERTEX
8
CUT
10
221.7716
20
195.2981
0
VERTEX
8
CUT
10
221.7898
20
195.0599
0
VERTEX
8
CUT
10
221.8305
20
194.8246
0
VERTEX
8
CUT
10
221.8936
20
194.5942
0
VERTEX
8
CUT
10
222.0027
20
194.2594
0
VERTEX
8
CUT
10
222.0083
20
194.2404
0
VERTEX
8
CUT
10
222.0171
20
194.2000
0
VERTEX
8
CUT
10
222.0217
20
194.1588
0
VERTEX
8
CUT
10
222.0224
20
194.1391
0
VERTEX
8
CUT
10
222.0452
20
191.9316
0
VERTEX
8
CUT
10
222.0453
20
191.9229
0
VERTEX
8
CUT
10
222.0452
20
191.9038
0
VERTEX
8
CUT
10
222.0212
20
189.6805
0
VERTEX
8
CUT
10
222.0205
20
189.6606
0
VERTEX
8
CUT
10
222.0158
20
189.6193
0
VERTEX
8
CUT
10
222.0069
20
189.5788
0
VERTEX
8
CUT
10
222.0012
20
189.5597
0
VERTEX
8
CUT
10
221.8931
20
189.2296
0
VERTEX
8
CUT
10
221.8292
20
188.9974
0
VERTEX
8
CUT
10
221.7880
20
188.7600
0
VERTEX
8
CUT
10
221.7698
20
188.5199
0
VERTEX
8
CUT
10
221.7353
20
187.2604
0
VERTEX
8
CUT
10
221.7343
20
187.2414
0
VERTEX
8
CUT
10
221.7294
20
187.2020
0
VERTEX
8
CUT
10
221.7169
20
187.1643
0
VERTEX
8
CUT
10
221.7096
20
187.1467
0
VERTEX
8
CUT
10
221.6960
20
187.1163
0
VERTEX
8
CUT
10
221.6112
20
186.8989
0
VERTEX
8
CUT
10
221.5470
20
186.6745
0
VERTEX
8
CUT
10
221.5041
20
186.4451
0
VERTEX
8
CUT
10
221.4827
20
186.2127
0
VERTEX
8
CUT
10
221.4523
20
185.5391
0
VERTEX
8
CUT
10
221.4510
20
185.5200
0
VERTEX
8
CUT
10
221.4396
20
185.4408
0
VERTEX
8
CUT
10
221.4355
20
185.4221
0
VERTEX
8
CUT
10
221.1667
20
184.3265
0
VERTEX
8
CUT
10
221.1540
20
184.2790
0
VERTEX
8
CUT
10
221.1395
20
184.2320
0
VERTEX
8
CUT
10
220.3082
20
181.7364
0
VERTEX
8
CUT
10
220.2870
20
181.6779
0
VERTEX
8
CUT
10
220.2629
20
181.6206
0
VERTEX
8
CUT
10
218.8757
20
178.5473
0
VERTEX
8
CUT
10
218.8406
20
178.4759
0
VERTEX
8
CUT
10
218.8009
20
178.4069
0
VERTEX
8
CUT
10
216.5509
20
174.7799
0
VERTEX
8
CUT
10
216.5168
20
174.7279
0
VERTEX
8
CUT
10
216.4800
20
174.6777
0
VERTEX
8
CUT
10
214.7885
20
172.4879
0
VERTEX
8
CUT
10
214.7381
20
172.4270
0
VERTEX
8
CUT
10
214.6839
20
172.3694
0
VERTEX
8
CUT
10
203.9159
20
161.6586
0
VERTEX
8
CUT
10
203.9026
20
161.6461
0
VERTEX
8
CUT
10
203.8738
20
161.6224
0
VERTEX
8
CUT
10
203.8389
20
161.6358
0
VERTEX
8
CUT
10
203.8224
20
161.6436
0
VERTEX
8
CUT
10
203.6073
20
161.7514
0
VERTEX
8
CUT
10
203.5905
20
161.7604
0
VERTEX
8
CUT
10
203.5573
20
161.7814
0
VERTEX
8
CUT
10
203.5491
20
161.8199
0
VERTEX
8
CUT
10
203.5466
20
161.8387
0
VERTEX
8
CUT
10
203.5155
20
162.1227
0
VERTEX
8
CUT
10
203.5139
20
162.1416
0
VERTEX
8
CUT
10
203.5135
20
162.1811
0
VERTEX
8
CUT
10
203.5245
20
162.2191
0
VERTEX
8
CUT
10
203.5311
20
162.2369
0
VERTEX
8
CUT
10
205.5968
20
167.4070
0
VERTEX
8
CUT
10
205.6704
20
167.6183
0
VERTEX
8
CUT
10
205.7249
20
167.8354
0
VERTEX
8
CUT
10
205.7597
20
168.0564
0
VERTEX
8
CUT
10
205.8040
20
168.4525
0
VERTEX
8
CUT
10
205.8065
20
168.4705
0
VERTEX
8
CUT
10
205.8220
20
168.5453
0
VERTEX
8
CUT
10
205.8270
20
168.5629
0
VERTEX
8
CUT
10
207.0951
20
172.6923
0
VERTEX
8
CUT
10
207.1650
20
172.9796
0
VERTEX
8
CUT
10
207.2005
20
173.2731
0
VERTEX
8
CUT
10
207.2374
20
173.8747
0
VERTEX
8
CUT
10
207.2391
20
173.8941
0
VERTEX
8
CUT
10
207.2521
20
173.9744
0
VERTEX
8
CUT
10
207.2566
20
173.9932
0
VERTEX
8
CUT
10
207.6922
20
175.6314
0
VERTEX
8
CUT
10
207.7487
20
175.9040
0
VERTEX
8
CUT
10
207.7745
20
176.1811
0
VERTEX
8
CUT
10
207.8165
20
177.3124
0
VERTEX
8
CUT
10
207.8179
20
177.3341
0
VERTEX
8
CUT
10
207.8246
20
177.3791
0
VERTEX
8
CUT
10
207.8363
20
177.4230
0
VERTEX
8
CUT
10
207.8437
20
177.4435
0
VERTEX
8
CUT
10
207.8929
20
177.5696
0
VERTEX
8
CUT
10
207.9642
20
177.7792
0
VERTEX
8
CUT
10
208.0167
20
177.9942
0
VERTEX
8
CUT
10
208.0500
20
178.2131
0
VERTEX
8
CUT
10
208.0638
20
178.4340
0
VERTEX
8
CUT
10
208.0981
20
180.3479
0
VERTEX
8
CUT
10
208.0992
20
180.3711
0
VERTEX
8
CUT
10
208.1126
20
180.4680
0
VERTEX
8
CUT
10
208.1179
20
180.4907
0
VERTEX
8
CUT
10
208.2623
20
181.0403
0
VERTEX
8
CUT
10
208.3181
20
181.3134
0
VERTEX
8
CUT
10
208.3430
20
181.5911
0
VERTEX
8
CUT
10
208.3829
20
182.7671
0
VERTEX
8
CUT
10
208.3806
20
182.9885
0
VERTEX
8
CUT
10
208.3587
20
183.2089
0
VERTEX
8
CUT
10
208.1114
20
184.9232
0
VERTEX
8
CUT
10
208.1031
20
184.9959
0
VERTEX
8
CUT
10
208.0992
20
185.0690
0
VERTEX
8
CUT
10
208.0484
20
187.3116
0
VERTEX
8
CUT
10
208.0327
20
187.5404
0
VERTEX
8
CUT
10
207.9961
20
187.7668
0
VERTEX
8
CUT
10
206.9168
20
192.9267
0
VERTEX
8
CUT
10
206.8406
20
193.2080
0
VERTEX
8
CUT
10
205.7464
20
196.4781
0
VERTEX
8
CUT
10
205.6378
20
196.7492
0
VERTEX
8
CUT
10
203.4890
20
201.3164
0
VERTEX
8
CUT
10
203.3340
20
201.5974
0
VERTEX
8
CUT
10
201.4129
20
204.6065
0
VERTEX
8
CUT
10
201.2661
20
204.8127
0
VERTEX
8
CUT
10
199.3438
20
207.2416
0
VERTEX
8
CUT
10
199.1636
20
207.4455
0
VERTEX
8
CUT
10
194.6712
20
212.0016
0
VERTEX
8
CUT
10
194.5359
20
212.1290
0
VERTEX
8
CUT
10
192.3122
20
214.0716
0
VERTEX
8
CUT
10
192.1072
20
214.2327
0
VERTEX
8
CUT
10
186.3619
20
218.2799
0
VERTEX
8
CUT
10
186.2012
20
218.3842
0
VERTEX
8
CUT
10
175.9334
20
224.4982
0
VERTEX
8
CUT
10
175.9063
20
224.5148
0
VERTEX
8
CUT
10
175.8797
20
224.5321
0
VERTEX
8
CUT
10
171.6324
20
227.3722
0
VERTEX
8
CUT
10
171.6184
20
227.3818
0
VERTEX
8
CUT
10
171.5881
20
227.4032
0
VERTEX
8
CUT
10
168.4131
20
229.7208
0
VERTEX
8
CUT
10
168.3759
20
229.7491
0
VERTEX
8
CUT
10
168.3398
20
229.7788
0
VERTEX
8
CUT
10
164.2067
20
233.3136
0
VERTEX
8
CUT
10
164.1539
20
233.3615
0
VERTEX
8
CUT
10
164.1040
20
233.4125
0
VERTEX
8
CUT
10
160.2894
20
237.5423
0
VERTEX
8
CUT
10
160.2391
20
237.6003
0
VERTEX
8
CUT
10
160.1926
20
237.6614
0
VERTEX
8
CUT
10
158.1298
20
240.5559
0
VERTEX
8
CUT
10
158.1269
20
240.5601
0
VERTEX
8
CUT
10
158.0878
20
240.6245
0
VERTEX
8
CUT
10
158.0795
20
240.6400
0
VERTEX
8
CUT
10
155.8326
20
245.1198
0
VERTEX
8
CUT
10
155.8253
20
245.1351
0
VERTEX
8
CUT
10
155.7991
20
245.2009
0
VERTEX
8
CUT
10
155.7939
20
245.2170
0
VERTEX
8
CUT
10
154.9423
20
248.0487
0
VERTEX
8
CUT
10
154.9197
20
248.1350
0
VERTEX
8
CUT
10
154.9036
20
248.2227
0
VERTEX
8
CUT
10
154.6587
20
249.8988
0
VERTEX
8
CUT
10
154.6504
20
249.9711
0
VERTEX
8
CUT
10
154.6464
20
250.0438
0
VERTEX
8
CUT
10
154.5835
20
252.5520
0
VERTEX
8
CUT
10
154.5831
20
252.5824
0
VERTEX
8
CUT
10
154.5835
20
252.6129
0
VERTEX
8
CUT
10
154.6466
20
255.1302
0
VERTEX
8
CUT
10
154.6498
20
255.1921
0
VERTEX
8
CUT
10
154.6561
20
255.2539
0
VERTEX
8
CUT
10
154.9163
20
257.2864
0
VERTEX
8
CUT
10
154.9171
20
257.2917
0
VERTEX
8
CUT
10
154.9335
20
257.3705
0
VERTEX
8
CUT
10
154.9384
20
257.3886
0
VERTEX
8
CUT
10
155.7918
20
260.2267
0
VERTEX
8
CUT
10
155.7978
20
260.2450
0
VERTEX
8
CUT
10
155.8285
20
260.3196
0
VERTEX
8
CUT
10
155.8371
20
260.3368
0
VERTEX
8
CUT
10
158.3594
20
265.0771
0
VERTEX
8
CUT
10
158.3682
20
265.0927
0
VERTEX
8
CUT
10
158.4093
20
265.1554
0
VERTEX
8
CUT
10
158.4201
20
265.1696
0
VERTEX
8
CUT
10
160.5715
20
267.8736
0
VERTEX
8
CUT
10
160.6125
20
267.9225
0
VERTEX
8
CUT
10
160.6561
20
267.9692
0
VERTEX
8
CUT
10
163.7299
20
271.0932
0
VERTEX
8
CUT
10
163.7612
20
271.1239
0
VERTEX
8
CUT
10
163.7935
20
271.1533
0
VERTEX
8
CUT
10
172.7691
20
279.0483
0
VERTEX
8
CUT
10
172.8893
20
279.1613
0
VERTEX
8
CUT
10
175.1798
20
281.4610
0
VERTEX
8
CUT
10
175.3430
20
281.6416
0
VERTEX
8
CUT
10
179.1158
20
286.2507
0
VERTEX
8
CUT
10
179.2824
20
286.4795
0
VERTEX
8
CUT
10
180.3159
20
288.0823
0
VERTEX
8
CUT
10
180.4377
20
288.2931
0
VERTEX
8
CUT
10
180.5384
20
288.5146
0
VERTEX
8
CUT
10
180.6170
20
288.7449
0
VERTEX
8
CUT
10
180.6730
20
288.9818
0
VERTEX
8
CUT
10
180.7056
20
289.2230
0
VERTEX
8
CUT
10
180.7146
20
289.4662
0
VERTEX
8
CUT
10
180.6999
20
289.7091
0
VERTEX
8
CUT
10
180.6617
20
289.9494
0
VERTEX
8
CUT
10
180.6003
20
290.1849
0
VERTEX
8
CUT
10
180.5163
20
290.4133
0
VERTEX
8
CUT
10
180.4104
20
290.6325
0
VERTEX
8
CUT
10
180.2838
20
290.8403
0
VERTEX
8
CUT
10
180.1376
20
291.0349
0
VERTEX
8
CUT
10
179.9731
20
291.2143
0
VERTEX
8
CUT
10
179.7920
20
291.3768
0
VERTEX
8
CUT
10
179.5959
20
291.5210
0
VERTEX
8
CUT
10
179.3867
20
291.6454
0
VERTEX
8
CUT
10
179.1664
20
291.7489
0
VERTEX
8
CUT
10
178.9371
20
291.8304
0
VERTEX
8
CUT
10
178.7010
20
291.8893
0
VERTEX
8
CUT
10
178.4602
20
291.9250
0
VERTEX
8
CUT
10
178.2172
20
291.9371
0
VERTEX
8
CUT
10
147.0302
20
291.9671
0
VERTEX
8
CUT
10
118.7375
20
291.9943
0
VERTEX
8
CUT
10
118.5035
20
291.9835
0
VERTEX
8
CUT
10
118.2715
20
291.9509
0
VERTEX
8
CUT
10
118.0436
20
291.8968
0
VERTEX
8
CUT
10
117.8218
20
291.8215
0
VERTEX
8
CUT
10
117.6080
20
291.7258
0
VERTEX
8
CUT
10
117.4041
20
291.6105
0
VERTEX
8
CUT
10
117.2119
20
291.4767
0
VERTEX
8
CUT
10
117.0330
20
291.3254
0
VERTEX
8
CUT
10
116.8691
20
291.1580
0
VERTEX
8
CUT
10
116.7216
20
290.9761
0
VERTEX
8
CUT
10
116.5917
20
290.7811
0
VERTEX
8
CUT
10
116.5886
20
290.7759
0
VERTEX
8
CUT
10
116.5764
20
290.7589
0
VERTEX
8
CUT
10
115.6924
20
289.5900
0
VERTEX
8
CUT
10
115.6391
20
289.5244
0
VERTEX
8
CUT
10
115.5814
20
289.4626
0
VERTEX
8
CUT
10
111.5300
20
285.4235
0
VERTEX
8
CUT
10
111.5263
20
285.4200
0
VERTEX
8
CUT
10
111.4677
20
285.3696
0
VERTEX
8
CUT
10
111.4533
20
285.3588
0
VERTEX
8
CUT
10
109.5418
20
283.9774
0
VERTEX
8
CUT
10
109.4935
20
283.9442
0
VERTEX
8
CUT
10
109.4437
20
283.9135
0
VERTEX
8
CUT
10
106.0817
20
281.9467
0
VERTEX
8
CUT
10
106.0115
20
281.9087
0
VERTEX
8
CUT
10
105.9390
20
281.8754
0
VERTEX
8
CUT
10
100.3802
20
279.5400
0
VERTEX
8
CUT
10
100.1595
20
279.4343
0
VERTEX
8
CUT
10
96.7040
20
277.5660
0
VERTEX
8
CUT
10
96.4220
20
277.3882
0
VERTEX
8
CUT
10
93.5311
20
275.2843
0
VERTEX
8
CUT
10
93.3795
20
275.1648
0
VERTEX
8
CUT
10
93.2376
20
275.0340
0
VERTEX
8
CUT
10
91.0472
20
272.8516
0
VERTEX
8
CUT
10
90.8650
20
272.6491
0
VERTEX
8
CUT
10
89.8591
20
271.4005
0
VERTEX
8
CUT
10
89.7225
20
271.2140
0
VERTEX
8
CUT
10
89.6037
20
271.0156
0
VERTEX
8
CUT
10
87.5031
20
267.1074
0
VERTEX
8
CUT
10
87.3798
20
266.8417
0
VERTEX
8
CUT
10
87.2884
20
266.5635
0
VERTEX
8
CUT
10
86.2804
20
262.7552
0
VERTEX
8
CUT
10
86.2227
20
262.4720
0
VERTEX
8
CUT
10
86.1981
20
262.1840
0
VERTEX
8
CUT
10
86.1615
20
260.8512
0
VERTEX
8
CUT
10
86.1606
20
260.8321
0
VERTEX
8
CUT
10
86.1556
20
260.7925
0
VERTEX
8
CUT
10
86.1467
20
260.7535
0
VERTEX
8
CUT
10
86.1411
20
260.7352
0
VERTEX
8
CUT
10
86.0398
20
260.4311
0
VERTEX
8
CUT
10
85.9688
20
260.1723
0
VERTEX
8
CUT
10
85.9259
20
259.9074
0
VERTEX
8
CUT
10
85.9117
20
259.6394
0
VERTEX
8
CUT
10
85.9129
20
257.8529
0
VERTEX
8
CUT
10
85.9270
20
257.5899
0
VERTEX
8
CUT
10
85.9686
20
257.3298
0
VERTEX
8
CUT
10
86.0374
20
257.0756
0
VERTEX
8
CUT
10
86.1437
20
256.7513
0
VERTEX
8
CUT
10
86.1492
20
256.7331
0
VERTEX
8
CUT
10
86.1579
20
256.6943
0
VERTEX
8
CUT
10
86.1627
20
256.6547
0
VERTEX
8
CUT
10
86.1636
20
256.6358
0
VERTEX
8
CUT
10
86.2031
20
255.0016
0
VERTEX
8
CUT
10
86.2219
20
254.7507
0
VERTEX
8
CUT
10
86.2657
20
254.5030
0
VERTEX
8
CUT
10
87.0453
20
251.1045
0
VERTEX
8
CUT
10
87.1332
20
250.8073
0
VERTEX
8
CUT
10
88.1979
20
247.8868
0
VERTEX
8
CUT
10
88.3091
20
247.6280
0
VERTEX
8
CUT
10
90.4709
20
243.2898
0
VERTEX
8
CUT
10
90.6118
20
243.0432
0
VERTEX
8
CUT
10
93.0562
20
239.2791
0
VERTEX
8
CUT
10
93.2226
20
239.0519
0
VERTEX
8
CUT
10
97.0326
20
234.4229
0
VERTEX
8
CUT
10
97.1973
20
234.2416
0
VERTEX
8
CUT
10
101.8491
20
229.6016
0
VERTEX
8
CUT
10
101.9915
20
229.4703
0
VERTEX
8
CUT
10
105.6352
20
226.3596
0
VERTEX
8
CUT
10
105.7528
20
226.2652
0
VERTEX
8
CUT
10
109.1122
20
223.7308
0
VERTEX
8
CUT
10
109.2279
20
223.6485
0
VERTEX
8
CUT
10
114.3343
20
220.2330
0
VERTEX
8
CUT
10
114.4285
20
220.1730
0
VERTEX
8
CUT
10
123.8035
20
214.4914
0
VERTEX
8
CUT
10
124.0051
20
214.3816
0
VERTEX
8
CUT
10
125.2879
20
213.7572
0
VERTEX
8
CUT
10
125.2928
20
213.7547
0
VERTEX
8
CUT
10
125.3627
20
213.7136
0
VERTEX
8
CUT
10
125.3783
20
213.7030
0
VERTEX
8
CUT
10
126.6074
20
212.8275
0
VERTEX
8
CUT
10
126.7812
20
212.7143
0
VERTEX
8
CUT
10
126.9637
20
212.6158
0
VERTEX
8
CUT
10
128.1403
20
212.0432
0
VERTEX
8
CUT
10
128.2071
20
212.0081
0
VERTEX
8
CUT
10
128.2716
20
211.9688
0
VERTEX
8
CUT
10
133.9559
20
208.2649
0
VERTEX
8
CUT
10
133.9907
20
208.2414
0
VERTEX
8
CUT
10
134.0247
20
208.2166
0
VERTEX
8
CUT
10
138.6965
20
204.6889
0
VERTEX
8
CUT
10
138.7461
20
204.6494
0
VERTEX
8
CUT
10
138.7936
20
204.6073
0
VERTEX
8
CUT
10
143.5480
20
200.1667
0
VERTEX
8
CUT
10
143.5905
20
200.1249
0
VERTEX
8
CUT
10
143.6310
20
200.0811
0
VERTEX
8
CUT
10
146.0727
20
197.3043
0
VERTEX
8
CUT
10
146.1213
20
197.2454
0
VERTEX
8
CUT
10
146.1660
20
197.1837
0
VERTEX
8
CUT
10
148.4475
20
193.8165
0
VERTEX
8
CUT
10
148.4910
20
193.7474
0
VERTEX
8
CUT
10
148.5297
20
193.6756
0
VERTEX
8
CUT
10
150.4826
20
189.7427
0
VERTEX
8
CUT
10
150.5177
20
189.6654
0
VERTEX
8
CUT
10
150.5473
20
189.5858
0
VERTEX
8
CUT
10
151.3908
20
187.0480
0
VERTEX
8
CUT
10
151.3923
20
187.0433
0
VERTEX
8
CUT
10
151.4105
20
186.9720
0
VERTEX
8
CUT
10
151.4138
20
186.9551
0
VERTEX
8
CUT
10
151.9992
20
183.5502
0
VERTEX
8
CUT
10
152.0017
20
183.5334
0
VERTEX
8
CUT
10
152.0076
20
183.4624
0
VERTEX
8
CUT
10
152.0079
20
183.4454
0
VERTEX
8
CUT
10
152.0002
20
181.2926
0
VERTEX
8
CUT
10
151.9996
20
181.2712
0
VERTEX
8
CUT
10
151.9945
20
181.2267
0
VERTEX
8
CUT
10
151.9845
20
181.1830
0
VERTEX
8
CUT
10
151.9781
20
181.1626
0
VERTEX
8
CUT
10
151.8738
20
180.8618
0
VERTEX
8
CUT
10
151.8044
20
180.6245
0
VERTEX
8
CUT
10
151.7588
20
180.3816
0
VERTEX
8
CUT
10
151.7375
20
180.1353
0
VERTEX
8
CUT
10
151.6987
20
179.0898
0
VERTEX
8
CUT
10
151.6984
20
179.0844
0
VERTEX
8
CUT
10
151.6925
20
179.0337
0
VERTEX
8
CUT
10
151.6872
20
179.0084
0
VERTEX
8
CUT
10
151.6808
20
178.9850
0
VERTEX
8
CUT
10
150.8231
20
176.1093
0
VERTEX
8
CUT
10
150.8179
20
176.0931
0
VERTEX
8
CUT
10
150.7915
20
176.0265
0
VERTEX
8
CUT
10
150.7842
20
176.0110
0
VERTEX
8
CUT
10
150.2337
20
174.9128
0
VERTEX
8
CUT
10
150.1964
20
174.8439
0
VERTEX
8
CUT
10
150.1546
20
174.7776
0
VERTEX
8
CUT
10
148.4615
20
172.2697
0
VERTEX
8
CUT
10
148.4515
20
172.2556
0
VERTEX
8
CUT
10
148.4058
20
172.1994
0
VERTEX
8
CUT
10
148.3941
20
172.1867
0
VERTEX
8
CUT
10
146.7644
20
170.5078
0
VERTEX
8
CUT
10
146.7607
20
170.5042
0
VERTEX
8
CUT
10
146.7027
20
170.4528
0
VERTEX
8
CUT
10
146.6884
20
170.4416
0
VERTEX
8
CUT
10
144.3610
20
168.7029
0
VERTEX
8
CUT
10
144.3469
20
168.6929
0
VERTEX
8
CUT
10
144.2853
20
168.6548
0
VERTEX
8
CUT
10
144.2700
20
168.6467
0
VERTEX
8
CUT
10
142.5631
20
167.7909
0
VERTEX
8
CUT
10
142.5581
20
167.7885
0
VERTEX
8
CUT
10
142.4822
20
167.7577
0
VERTEX
8
CUT
10
142.4641
20
167.7517
0
VERTEX
8
CUT
10
138.7358
20
166.6107
0
VERTEX
8
CUT
10
138.7193
20
166.6060
0
VERTEX
8
CUT
10
138.6841
20
166.5985
0
VERTEX
8
CUT
10
138.6482
20
166.5942
0
VERTEX
8
CUT
10
138.6315
20
166.5933
0
VERTEX
8
CUT
10
137.1679
20
166.5447
0
VERTEX
8
CUT
10
136.9248
20
166.5248
0
VERTEX
8
CUT
10
136.6847
20
166.4812
0
VERTEX
8
CUT
10
135.8662
20
166.2909
0
VERTEX
8
CUT
10
135.8444
20
166.2865
0
VERTEX
8
CUT
10
135.7515
20
166.2759
0
VERTEX
8
CUT
10
135.7293
20
166.2752
0
VERTEX
8
CUT
10
133.9713
20
166.2752
0
VERTEX
8
CUT
10
133.9495
20
166.2758
0
VERTEX
8
CUT
10
133.8585
20
166.2860
0
VERTEX
8
CUT
10
133.8372
20
166.2903
0
VERTEX
8
CUT
10
132.9869
20
166.4836
0
VERTEX
8
CUT
10
132.7453
20
166.5262
0
VERTEX
8
CUT
10
132.5008
20
166.5449
0
VERTEX
8
CUT
10
130.8101
20
166.5910
0
VERTEX
8
CUT
10
130.7900
20
166.5921
0
VERTEX
8
CUT
10
130.7063
20
166.6031
0
VERTEX
8
CUT
10
130.6866
20
166.6072
0
VERTEX
8
CUT
10
127.5707
20
167.3478
0
VERTEX
8
CUT
10
127.3596
20
167.3885
0
VERTEX
8
CUT
10
127.1457
20
167.4109
0
VERTEX
8
CUT
10
126.5478
20
167.4476
0
VERTEX
8
CUT
10
126.4653
20
167.4526
0
VERTEX
8
CUT
10
126.4452
20
167.4544
0
VERTEX
8
CUT
10
126.4035
20
167.4613
0
VERTEX
8
CUT
10
126.3628
20
167.4725
0
VERTEX
8
CUT
10
126.3438
20
167.4794
0
VERTEX
8
CUT
10
125.2462
20
167.9078
0
VERTEX
8
CUT
10
124.9421
20
168.0047
0
VERTEX
8
CUT
10
120.7239
20
169.0567
0
VERTEX
8
CUT
10
120.4848
20
169.1041
0
VERTEX
8
CUT
10
120.2423
20
169.1280
0
VERTEX
8
CUT
10
119.2930
20
169.1749
0
VERTEX
8
CUT
10
119.2764
20
169.1761
0
VERTEX
8
CUT
10
119.2418
20
169.1808
0
VERTEX
8
CUT
10
119.2107
20
169.1877
0
VERTEX
8
CUT
10
119.1872
20
169.1945
0
VERTEX
8
CUT
10
117.9183
20
169.5943
0
VERTEX
8
CUT
10
117.7124
20
169.6496
0
VERTEX
8
CUT
10
117.5026
20
169.6872
0
VERTEX
8
CUT
10
117.2904
20
169.7068
0
VERTEX
8
CUT
10
116.4227
20
169.7497
0
VERTEX
8
CUT
10
116.4046
20
169.7510
0
VERTEX
8
CUT
10
116.3672
20
169.7563
0
VERTEX
8
CUT
10
116.3314
20
169.7685
0
VERTEX
8
CUT
10
116.3147
20
169.7756
0
VERTEX
8
CUT
10
116.2182
20
169.8188
0
VERTEX
8
CUT
10
115.9668
20
169.9156
0
VERTEX
8
CUT
10
115.7065
20
169.9847
0
VERTEX
8
CUT
10
115.4403
20
170.0255
0
VERTEX
8
CUT
10
112.8443
20
170.2807
0
VERTEX
8
CUT
10
112.5588
20
170.2924
0
VERTEX
8
CUT
10
107.6648
20
170.2125
0
VERTEX
8
CUT
10
107.3736
20
170.1907
0
VERTEX
8
CUT
10
106.1731
20
170.0298
0
VERTEX
8
CUT
10
105.9455
20
169.9885
0
VERTEX
8
CUT
10
105.7228
20
169.9264
0
VERTEX
8
CUT
10
105.5067
20
169.8439
0
VERTEX
8
CUT
10
105.3309
20
169.7674
0
VERTEX
8
CUT
10
105.3145
20
169.7607
0
VERTEX
8
CUT
10
105.2793
20
169.7490
0
VERTEX
8
CUT
10
105.2429
20
169.7440
0
VERTEX
8
CUT
10
105.2251
20
169.7427
0
VERTEX
8
CUT
10
104.4393
20
169.7057
0
VERTEX
8
CUT
10
104.1929
20
169.6818
0
VERTEX
8
CUT
10
103.9502
20
169.6337
0
VERTEX
8
CUT
10
103.7134
20
169.5618
0
VERTEX
8
CUT
10
101.1403
20
168.6395
0
VERTEX
8
CUT
10
101.0697
20
168.6166
0
VERTEX
8
CUT
10
100.9979
20
168.5981
0
VERTEX
8
CUT
10
99.7611
20
168.3190
0
VERTEX
8
CUT
10
99.5591
20
168.2644
0
VERTEX
8
CUT
10
99.3623
20
168.1931
0
VERTEX
8
CUT
10
99.1722
20
168.1056
0
VERTEX
8
CUT
10
97.4783
20
167.2384
0
VERTEX
8
CUT
10
97.4626
20
167.2307
0
VERTEX
8
CUT
10
97.4284
20
167.2170
0
VERTEX
8
CUT
10
97.3930
20
167.2063
0
VERTEX
8
CUT
10
97.3492
20
167.1962
0
VERTEX
8
CUT
10
97.3496
20
167.1949
0
VERTEX
8
CUT
10
97.1360
20
167.1392
0
VERTEX
8
CUT
10
96.8933
20
167.0481
0
VERTEX
8
CUT
10
96.6613
20
166.9323
0
VERTEX
8
CUT
10
96.4425
20
166.7932
0
VERTEX
8
CUT
10
95.5022
20
166.1242
0
VERTEX
8
CUT
10
95.4872
20
166.1141
0
VERTEX
8
CUT
10
95.4546
20
166.0951
0
VERTEX
8
CUT
10
95.4190
20
166.0826
0
VERTEX
8
CUT
10
95.4015
20
166.0777
0
VERTEX
8
CUT
10
95.2093
20
166.0293
0
VERTEX
8
CUT
10
94.9608
20
165.9527
0
VERTEX
8
CUT
10
94.7215
20
165.8507
0
VERTEX
8
CUT
10
94.4941
20
165.7244
0
VERTEX
8
CUT
10
92.9747
20
164.7736
0
VERTEX
8
CUT
10
92.7778
20
164.6369
0
VERTEX
8
CUT
10
92.5949
20
164.4819
0
VERTEX
8
CUT
10
92.4277
20
164.3101
0
VERTEX
8
CUT
10
92.2777
20
164.1231
0
VERTEX
8
CUT
10
92.1463
20
163.9226
0
VERTEX
8
CUT
10
92.0347
20
163.7104
0
VERTEX
8
CUT
10
91.9440
20
163.4885
0
VERTEX
8
CUT
10
91.8750
20
163.2589
0
VERTEX
8
CUT
10
91.8282
20
163.0238
0
VERTEX
8
CUT
10
91.8042
20
162.7852
0
VERTEX
8
CUT
10
91.8031
20
162.5455
0
VERTEX
8
CUT
10
91.8250
20
162.3068
0
VERTEX
8
CUT
10
91.8697
20
162.0713
0
VERTEX
8
CUT
10
91.9111
20
161.8985
0
VERTEX
8
CUT
10
91.9270
20
161.7829
0
VERTEX
8
CUT
10
91.9313
20
161.6664
0
VERTEX
8
CUT
10
91.9241
20
161.5500
0
VERTEX
8
CUT
10
91.9054
20
161.4349
0
VERTEX
8
CUT
10
91.8755
20
161.3222
0
VERTEX
8
CUT
10
91.8345
20
161.2130
0
VERTEX
8
CUT
10
91.7829
20
161.1084
0
VERTEX
8
CUT
10
91.7212
20
161.0094
0
VERTEX
8
CUT
10
91.6501
20
160.9170
0
VERTEX
8
CUT
10
91.5677
20
160.8295
0
VERTEX
8
CUT
10
91.5505
20
160.8130
0
VERTEX
8
CUT
10
91.5048
20
160.7712
0
VERTEX
8
CUT
10
90.3456
20
159.7619
0
VERTEX
8
CUT
10
90.0999
20
159.5158
0
VERTEX
8
CUT
10
88.0544
20
157.1609
0
VERTEX
8
CUT
10
87.9285
20
157.0035
0
VERTEX
8
CUT
10
87.8156
20
156.8365
0
VERTEX
8
CUT
10
87.1211
20
155.7134
0
VERTEX
8
CUT
10
87.0061
20
155.5061
0
VERTEX
8
CUT
10
86.9113
20
155.2889
0
VERTEX
8
CUT
10
86.5979
20
154.4667
0
VERTEX
8
CUT
10
86.5748
20
154.4103
0
VERTEX
8
CUT
10
86.5654
20
154.3888
0
VERTEX
8
CUT
10
86.5128
20
154.2831
0
VERTEX
8
CUT
10
86.4520
20
154.1859
0
VERTEX
8
CUT
10
86.3820
20
154.0950
0
VERTEX
8
CUT
10
86.3191
20
154.0280
0
VERTEX
8
CUT
10
86.2937
20
154.0058
0
VERTEX
8
CUT
10
86.2613
20
154.0553
0
VERTEX
8
CUT
10
86.1742
20
154.2044
0
VERTEX
8
CUT
10
86.0208
20
154.4669
0
VERTEX
8
CUT
10
85.2194
20
155.8382
0
VERTEX
8
CUT
10
85.2083
20
155.8586
0
VERTEX
8
CUT
10
85.1699
20
155.9466
0
VERTEX
8
CUT
10
85.1625
20
155.9686
0
VERTEX
8
CUT
10
84.8477
20
157.0046
0
VERTEX
8
CUT
10
84.8424
20
157.0238
0
VERTEX
8
CUT
10
84.8344
20
157.0642
0
VERTEX
8
CUT
10
84.8306
20
157.1051
0
VERTEX
8
CUT
10
84.8302
20
157.1250
0
VERTEX
8
CUT
10
84.8378
20
158.3676
0
VERTEX
8
CUT
10
84.8270
20
158.6157
0
VERTEX
8
CUT
10
84.7917
20
158.8616
0
VERTEX
8
CUT
10
84.7320
20
159.1028
0
VERTEX
8
CUT
10
84.6488
20
159.3368
0
VERTEX
8
CUT
10
84.5992
20
159.4570
0
VERTEX
8
CUT
10
84.5401
20
159.6220
0
VERTEX
8
CUT
10
84.4381
20
159.8391
0
VERTEX
8
CUT
10
84.3157
20
160.0453
0
VERTEX
8
CUT
10
84.1741
20
160.2389
0
VERTEX
8
CUT
10
84.0146
20
160.4180
0
VERTEX
8
CUT
10
83.8387
20
160.5810
0
VERTEX
8
CUT
10
83.6479
20
160.7263
0
VERTEX
8
CUT
10
83.4441
20
160.8528
0
VERTEX
8
CUT
10
83.2292
20
160.9591
0
VERTEX
8
CUT
10
83.0050
20
161.0444
0
VERTEX
8
CUT
10
82.8598
20
161.0842
0
VERTEX
8
CUT
10
82.8202
20
161.0973
0
VERTEX
8
CUT
10
82.7881
20
161.1493
0
VERTEX
8
CUT
10
82.1308
20
162.3430
0
VERTEX
8
CUT
10
82.1019
20
162.3987
0
VERTEX
8
CUT
10
82.0913
20
162.4204
0
VERTEX
8
CUT
10
82.0436
20
162.5324
0
VERTEX
8
CUT
10
82.0084
20
162.6452
0
VERTEX
8
CUT
10
81.9846
20
162.7609
0
VERTEX
8
CUT
10
81.9726
20
162.8784
0
VERTEX
8
CUT
10
81.9724
20
162.9965
0
VERTEX
8
CUT
10
81.9841
20
163.1140
0
VERTEX
8
CUT
10
82.0074
20
163.2298
0
VERTEX
8
CUT
10
82.0423
20
163.3427
0
VERTEX
8
CUT
10
82.0883
20
163.4515
0
VERTEX
8
CUT
10
82.1449
20
163.5552
0
VERTEX
8
CUT
10
82.2117
20
163.6526
0
VERTEX
8
CUT
10
82.2902
20
163.7456
0
VERTEX
8
CUT
10
82.3067
20
163.7633
0
VERTEX
8
CUT
10
82.3506
20
163.8081
0
VERTEX
8
CUT
10
82.4207
20
163.8760
0
VERTEX
8
CUT
10
82.4421
20
163.8967
0
VERTEX
8
CUT
10
82.4715
20
163.9252
0
VERTEX
8
CUT
10
82.5170
20
163.9651
0
VERTEX
8
CUT
10
82.5881
20
163.9744
0
VERTEX
8
CUT
10
82.5940
20
163.9752
0
VERTEX
8
CUT
10
82.8315
20
164.0179
0
VERTEX
8
CUT
10
83.0637
20
164.0833
0
VERTEX
8
CUT
10
83.2885
20
164.1708
0
VERTEX
8
CUT
10
83.5038
20
164.2795
0
VERTEX
8
CUT
10
83.7076
20
164.4085
0
VERTEX
8
CUT
10
83.8981
20
164.5566
0
VERTEX
8
CUT
10
84.0734
20
164.7223
0
VERTEX
8
CUT
10
84.2320
20
164.9041
0
VERTEX
8
CUT
10
84.3722
20
165.1003
0
VERTEX
8
CUT
10
84.4929
20
165.3092
0
VERTEX
8
CUT
10
84.5929
20
165.5287
0
VERTEX
8
CUT
10
84.6713
20
165.7569
0
VERTEX
8
CUT
10
84.7273
20
165.9915
0
VERTEX
8
CUT
10
84.7605
20
166.2305
0
VERTEX
8
CUT
10
84.7704
20
166.4715
0
VERTEX
8
CUT
10
84.7571
20
166.7124
0
VERTEX
8
CUT
10
84.7207
20
166.9508
0
VERTEX
8
CUT
10
84.6614
20
167.1846
0
VERTEX
8
CUT
10
84.6417
20
167.2490
0
VERTEX
8
CUT
10
84.6638
20
167.3042
0
VERTEX
8
CUT
10
84.9970
20
168.0319
0
VERTEX
8
CUT
10
85.9325
20
170.0118
0
VERTEX
8
CUT
10
86.9170
20
171.4410
0
VERTEX
8
CUT
10
87.1396
20
171.7641
0
VERTEX
8
CUT
10
87.3954
20
172.1355
0
VERTEX
8
CUT
10
87.7854
20
172.7016
0
VERTEX
8
CUT
10
90.2857
20
174.9051
0
VERTEX
8
CUT
10
90.5704
20
175.1525
0
VERTEX
8
CUT
10
90.6212
20
175.1938
0
VERTEX
8
CUT
10
90.6613
20
175.2227
0
VERTEX
8
CUT
10
90.8172
20
175.3278
0
VERTEX
8
CUT
10
93.4172
20
177.0399
0
VERTEX
8
CUT
10
97.2762
20
178.6870
0
VERTEX
8
CUT
10
97.2941
20
178.6941
0
VERTEX
8
CUT
10
97.3711
20
178.7183
0
VERTEX
8
CUT
10
97.3899
20
178.7227
0
VERTEX
8
CUT
10
101.2754
20
179.5359
0
VERTEX
8
CUT
10
101.2944
20
179.5394
0
VERTEX
8
CUT
10
101.3751
20
179.5480
0
VERTEX
8
CUT
10
101.3945
20
179.5487
0
VERTEX
8
CUT
10
107.8429
20
179.6007
0
VERTEX
8
CUT
10
107.8966
20
179.6000
0
VERTEX
8
CUT
10
107.9502
20
179.5968
0
VERTEX
8
CUT
10
114.9640
20
179.0316
0
VERTEX
8
CUT
10
115.2096
20
179.0240
0
VERTEX
8
CUT
10
118.4191
20
179.0815
0
VERTEX
8
CUT
10
118.7254
20
179.1059
0
VERTEX
8
CUT
10
120.2002
20
179.3151
0
VERTEX
8
CUT
10
120.4635
20
179.3669
0
VERTEX
8
CUT
10
120.7196
20
179.4467
0
VERTEX
8
CUT
10
122.5196
20
180.1153
0
VERTEX
8
CUT
10
122.7907
20
180.2347
0
VERTEX
8
CUT
10
123.0458
20
180.3853
0
VERTEX
8
CUT
10
124.4036
20
181.2998
0
VERTEX
8
CUT
10
124.5710
20
181.4230
0
VERTEX
8
CUT
10
124.7276
20
181.5596
0
VERTEX
8
CUT
10
125.2363
20
182.0421
0
VERTEX
8
CUT
10
125.3669
20
182.1757
0
VERTEX
8
CUT
10
125.4873
20
182.3186
0
VERTEX
8
CUT
10
126.4049
20
183.4954
0
VERTEX
8
CUT
10
126.5441
20
183.6931
0
VERTEX
8
CUT
10
126.6637
20
183.9032
0
VERTEX
8
CUT
10
127.0535
20
184.6730
0
VERTEX
8
CUT
10
127.1316
20
184.8425
0
VERTEX
8
CUT
10
127.1967
20
185.0174
0
VERTEX
8
CUT
10
127.6429
20
186.3663
0
VERTEX
8
CUT
10
127.7093
20
186.6067
0
VERTEX
8
CUT
10
127.7514
20
186.8526
0
VERTEX
8
CUT
10
127.9474
20
188.4805
0
VERTEX
8
CUT
10
127.9644
20
188.7098
0
VERTEX
8
CUT
10
127.9602
20
188.9397
0
VERTEX
8
CUT
10
127.9349
20
189.1683
0
VERTEX
8
CUT
10
127.8887
20
189.3935
0
VERTEX
8
CUT
10
127.8220
20
189.6136
0
VERTEX
8
CUT
10
127.7869
20
189.7126
0
VERTEX
8
CUT
10
127.7808
20
189.7314
0
VERTEX
8
CUT
10
127.7710
20
189.7715
0
VERTEX
8
CUT
10
127.7654
20
189.8125
0
VERTEX
8
CUT
10
127.7642
20
189.8322
0
VERTEX
8
CUT
10
127.7269
20
190.8602
0
VERTEX
8
CUT
10
127.7070
20
191.0970
0
VERTEX
8
CUT
10
127.6647
20
191.3308
0
VERTEX
8
CUT
10
127.6004
20
191.5595
0
VERTEX
8
CUT
10
126.8875
20
193.7000
0
VERTEX
8
CUT
10
126.7496
20
194.0323
0
VERTEX
8
CUT
10
126.0668
20
195.3916
0
VERTEX
8
CUT
10
125.9044
20
195.6687
0
VERTEX
8
CUT
10
124.8991
20
197.1569
0
VERTEX
8
CUT
10
124.7426
20
197.3645
0
VERTEX
8
CUT
10
123.1436
20
199.2701
0
VERTEX
8
CUT
10
122.9750
20
199.4520
0
VERTEX
8
CUT
10
122.7891
20
199.6162
0
VERTEX
8
CUT
10
118.6616
20
202.9142
0
VERTEX
8
CUT
10
118.4266
20
203.0807
0
VERTEX
8
CUT
10
116.2876
20
204.4184
0
VERTEX
8
CUT
10
116.0822
20
204.5337
0
VERTEX
8
CUT
10
113.4659
20
205.8451
0
VERTEX
8
CUT
10
113.2745
20
205.9312
0
VERTEX
8
CUT
10
110.5239
20
207.0320
0
VERTEX
8
CUT
10
110.3714
20
207.0874
0
VERTEX
8
CUT
10
98.7737
20
210.8763
0
VERTEX
8
CUT
10
98.7223
20
210.8944
0
VERTEX
8
CUT
10
98.6717
20
210.9148
0
VERTEX
8
CUT
10
94.6495
20
212.6417
0
VERTEX
8
CUT
10
94.5854
20
212.6715
0
VERTEX
8
CUT
10
94.5232
20
212.7049
0
VERTEX
8
CUT
10
90.7016
20
214.9029
0
VERTEX
8
CUT
10
90.6374
20
214.9425
0
VERTEX
8
CUT
10
90.5757
20
214.9861
0
VERTEX
8
CUT
10
88.1991
20
216.7794
0
VERTEX
8
CUT
10
88.1621
20
216.8085
0
VERTEX
8
CUT
10
88.1262
20
216.8390
0
VERTEX
8
CUT
10
85.5362
20
219.1289
0
VERTEX
8
CUT
10
85.5234
20
219.1408
0
VERTEX
8
CUT
10
85.4729
20
219.1941
0
VERTEX
8
CUT
10
85.4618
20
219.2077
0
VERTEX
8
CUT
10
82.2123
20
223.3290
0
VERTEX
8
CUT
10
82.1602
20
223.4003
0
VERTEX
8
CUT
10
82.1134
20
223.4751
0
VERTEX
8
CUT
10
80.0631
20
227.0395
0
VERTEX
8
CUT
10
79.8644
20
227.3343
0
VERTEX
8
CUT
10
77.9486
20
229.7810
0
VERTEX
8
CUT
10
77.8125
20
229.9405
0
VERTEX
8
CUT
10
77.6635
20
230.0880
0
VERTEX
8
CUT
10
77.5027
20
230.2226
0
VERTEX
8
CUT
10
75.3593
20
231.8684
0
VERTEX
8
CUT
10
75.1877
20
231.9890
0
VERTEX
8
CUT
10
75.0066
20
232.0948
0
VERTEX
8
CUT
10
74.8173
20
232.1851
0
VERTEX
8
CUT
10
73.2826
20
232.8395
0
VERTEX
8
CUT
10
73.0207
20
232.9343
0
VERTEX
8
CUT
10
72.7499
20
232.9994
0
VERTEX
8
CUT
10
71.6145
20
233.2061
0
VERTEX
8
CUT
10
71.3641
20
233.2388
0
VERTEX
8
CUT
10
71.1117
20
233.2460
0
VERTEX
8
CUT
10
69.2819
20
233.2058
0
VERTEX
8
CUT
10
69.0417
20
233.1889
0
VERTEX
8
CUT
10
68.8043
20
233.1490
0
VERTEX
8
CUT
10
68.1286
20
233.0017
0
VERTEX
8
CUT
10
67.9235
20
232.9477
0
VERTEX
8
CUT
10
67.7237
20
232.8766
0
VERTEX
8
CUT
10
67.5306
20
232.7888
0
VERTEX
8
CUT
10
65.9104
20
231.9673
0
VERTEX
8
CUT
10
65.6802
20
231.8347
0
VERTEX
8
CUT
10
65.4653
20
231.6784
0
VERTEX
8
CUT
10
65.2683
20
231.5003
0
VERTEX
8
CUT
10
63.7642
20
229.9877
0
VERTEX
8
CUT
10
63.5897
20
229.7927
0
VERTEX
8
CUT
10
63.4365
20
229.5806
0
VERTEX
8
CUT
10
63.3063
20
229.3537
0
VERTEX
8
CUT
10
62.5236
20
227.8068
0
VERTEX
8
CUT
10
62.4248
20
227.5855
0
VERTEX
8
CUT
10
62.3478
20
227.3556
0
VERTEX
8
CUT
10
62.2935
20
227.1193
0
VERTEX
8
CUT
10
62.0934
20
226.0037
0
VERTEX
8
CUT
10
62.0620
20
225.7597
0
VERTEX
8
CUT
10
62.0547
20
225.5138
0
VERTEX
8
CUT
10
62.1130
20
222.5132
0
VERTEX
8
CUT
10
62.1294
20
222.2721
0
VERTEX
8
CUT
10
62.1689
20
222.0337
0
VERTEX
8
CUT
10
62.2313
20
221.8003
0
VERTEX
8
CUT
10
62.8674
20
219.8112
0
VERTEX
8
CUT
10
62.9330
20
219.6303
0
VERTEX
8
CUT
10
63.0123
20
219.4550
0
VERTEX
8
CUT
10
63.6718
20
218.1355
0
VERTEX
8
CUT
10
63.7924
20
217.9213
0
VERTEX
8
CUT
10
63.9333
20
217.7200
0
VERTEX
8
CUT
10
66.7596
20
214.0796
0
VERTEX
8
CUT
10
66.9562
20
213.8553
0
VERTEX
8
CUT
10
67.1781
20
213.6561
0
VERTEX
8
CUT
10
70.9867
20
210.6268
0
VERTEX
8
CUT
10
71.0033
20
210.6128
0
VERTEX
8
CUT
10
71.0679
20
210.5484
0
VERTEX
8
CUT
10
71.0820
20
210.5319
0
VERTEX
8
CUT
10
71.4538
20
210.0682
0
VERTEX
8
CUT
10
71.4659
20
210.0523
0
VERTEX
8
CUT
10
71.4883
20
210.0175
0
VERTEX
8
CUT
10
71.4861
20
209.9761
0
VERTEX
8
CUT
10
71.4835
20
209.9563
0
VERTEX
8
CUT
10
71.4378
20
209.6697
0
VERTEX
8
CUT
10
71.4344
20
209.6510
0
VERTEX
8
CUT
10
71.4244
20
209.6131
0
VERTEX
8
CUT
10
71.3903
20
209.5937
0
VERTEX
8
CUT
10
71.3731
20
209.5855
0
VERTEX
8
CUT
10
71.0400
20
209.4375
0
VERTEX
8
CUT
10
71.0210
20
209.4296
0
VERTEX
8
CUT
10
70.9801
20
209.4164
0
VERTEX
8
CUT
10
70.9373
20
209.4121
0
VERTEX
8
CUT
10
70.9167
20
209.4117
0
VERTEX
8
CUT
10
70.3887
20
209.4148
0
VERTEX
8
CUT
10
65.1930
20
210.5755
0
VERTEX
8
CUT
10
65.1323
20
210.5907
0
VERTEX
8
CUT
10
65.0724
20
210.6090
0
VERTEX
8
CUT
10
61.6655
20
211.7492
0
VERTEX
8
CUT
10
61.5850
20
211.7793
0
VERTEX
8
CUT
10
61.5069
20
211.8151
0
VERTEX
8
CUT
10
57.0106
20
214.0690
0
VERTEX
8
CUT
10
57.0061
20
214.0714
0
VERTEX
8
CUT
10
56.9407
20
214.1104
0
VERTEX
8
CUT
10
56.9261
20
214.1204
0
VERTEX
8
CUT
10
54.0296
20
216.1898
0
VERTEX
8
CUT
10
54.0171
20
216.2008
0
VERTEX
8
CUT
10
53.7936
20
216.4114
0
VERTEX
8
CUT
10
53.5898
20
216.6146
0
VERTEX
8
CUT
10
51.8891
20
218.3095
0
VERTEX
8
CUT
10
51.4091
20
218.8443
0
VERTEX
8
CUT
10
51.3572
20
218.9021
0
VERTEX
8
CUT
10
50.6793
20
219.6574
0
VERTEX
8
CUT
10
49.7977
20
220.6397
0
VERTEX
8
CUT
10
48.2536
20
222.7867
0
VERTEX
8
CUT
10
48.2116
20
222.8495
0
VERTEX
8
CUT
10
48.1743
20
222.9094
0
VERTEX
8
CUT
10
48.1712
20
222.9152
0
VERTEX
8
CUT
10
47.8983
20
223.4557
0
VERTEX
8
CUT
10
47.0379
20
225.1802
0
VERTEX
8
CUT
10
47.0296
20
225.1968
0
VERTEX
8
CUT
10
47.0287
20
225.1987
0
VERTEX
8
CUT
10
46.9718
20
225.3127
0
VERTEX
8
CUT
10
46.7198
20
225.8177
0
VERTEX
8
CUT
10
46.7177
20
225.8236
0
VERTEX
8
CUT
10
45.0771
20
230.7628
0
VERTEX
8
CUT
10
44.9944
20
231.0283
0
VERTEX
8
CUT
10
44.9867
20
231.0631
0
VERTEX
8
CUT
10
44.9838
20
231.0827
0
VERTEX
8
CUT
10
44.9736
20
231.1689
0
VERTEX
8
CUT
10
44.9336
20
232.0622
0
VERTEX
8
CUT
10
44.9135
20
232.2858
0
VERTEX
8
CUT
10
44.8735
20
232.5067
0
VERTEX
8
CUT
10
44.7512
20
233.0425
0
VERTEX
8
CUT
10
44.6753
20
233.6817
0
VERTEX
8
CUT
10
44.6397
20
233.8993
0
VERTEX
8
CUT
10
44.5850
20
234.1129
0
VERTEX
8
CUT
10
44.5118
20
234.3208
0
VERTEX
8
CUT
10
44.4109
20
234.5715
0
VERTEX
8
CUT
10
44.4048
20
234.5875
0
VERTEX
8
CUT
10
44.3957
20
234.6175
0
VERTEX
8
CUT
10
44.3901
20
234.6605
0
VERTEX
8
CUT
10
44.3891
20
234.6793
0
VERTEX
8
CUT
10
44.3534
20
235.7979
0
VERTEX
8
CUT
10
44.3352
20
236.0292
0
VERTEX
8
CUT
10
44.2957
20
236.2578
0
VERTEX
8
CUT
10
43.2333
20
241.0625
0
VERTEX
8
CUT
10
43.1331
20
241.4005
0
VERTEX
8
CUT
10
42.3520
20
243.4840
0
VERTEX
8
CUT
10
42.3502
20
243.4886
0
VERTEX
8
CUT
10
42.2479
20
243.7239
0
VERTEX
8
CUT
10
40.9495
20
246.3355
0
VERTEX
8
CUT
10
40.8395
20
246.5336
0
VERTEX
8
CUT
10
40.8236
20
246.5594
0
VERTEX
8
CUT
10
40.6831
20
246.8393
0
VERTEX
8
CUT
10
40.5787
20
247.0267
0
VERTEX
8
CUT
10
40.4586
20
247.2045
0
VERTEX
8
CUT
10
40.2657
20
247.4653
0
VERTEX
8
CUT
10
40.0848
20
247.7588
0
VERTEX
8
CUT
10
39.8820
20
248.0419
0
VERTEX
8
CUT
10
39.4774
20
248.5306
0
VERTEX
8
CUT
10
39.0857
20
249.0600
0
VERTEX
8
CUT
10
38.9669
20
249.2085
0
VERTEX
8
CUT
10
38.8372
20
249.3474
0
VERTEX
8
CUT
10
38.6357
20
249.5473
0
VERTEX
8
CUT
10
38.5187
20
249.6887
0
VERTEX
8
CUT
10
38.3354
20
249.8873
0
VERTEX
8
CUT
10
36.4589
20
251.7111
0
VERTEX
8
CUT
10
36.2999
20
251.8530
0
VERTEX
8
CUT
10
36.1293
20
251.9809
0
VERTEX
8
CUT
10
34.7114
20
252.9522
0
VERTEX
8
CUT
10
34.6838
20
252.9684
0
VERTEX
8
CUT
10
34.6778
20
252.9725
0
VERTEX
8
CUT
10
34.3848
20
253.1448
0
VERTEX
8
CUT
10
31.8328
20
254.4201
0
VERTEX
8
CUT
10
31.5038
20
254.5562
0
VERTEX
8
CUT
10
30.1223
20
255.0154
0
VERTEX
8
CUT
10
29.9410
20
255.0681
0
VERTEX
8
CUT
10
29.7563
20
255.1070
0
VERTEX
8
CUT
10
28.5898
20
255.3071
0
VERTEX
8
CUT
10
28.3788
20
255.3341
0
VERTEX
8
CUT
10
28.2249
20
255.3405
0
VERTEX
8
CUT
10
28.1016
20
255.3594
0
VERTEX
8
CUT
10
27.9058
20
255.3814
0
VERTEX
8
CUT
10
27.7088
20
255.3880
0
VERTEX
8
CUT
10
25.3651
20
255.3735
0
VERTEX
8
CUT
10
25.1417
20
255.3621
0
VERTEX
8
CUT
10
24.9202
20
255.3308
0
VERTEX
8
CUT
10
23.7732
20
255.1159
0
VERTEX
8
CUT
10
23.5618
20
255.0668
0
VERTEX
8
CUT
10
23.3554
20
254.9994
0
VERTEX
8
CUT
10
23.3372
20
254.9926
0
VERTEX
8
CUT
10
21.7620
20
254.4017
0
VERTEX
8
CUT
10
21.7469
20
254.3960
0
VERTEX
8
CUT
10
21.7265
20
254.3883
0
VERTEX
8
CUT
10
21.7185
20
254.3853
0
VERTEX
8
CUT
10
21.4623
20
254.2892
0
VERTEX
8
CUT
10
21.4252
20
254.2753
0
VERTEX
8
CUT
10
21.2092
20
254.1825
0
VERTEX
8
CUT
10
21.0029
20
254.0697
0
VERTEX
8
CUT
10
19.8606
20
253.3741
0
VERTEX
8
CUT
10
19.6573
20
253.2360
0
VERTEX
8
CUT
10
19.1216
20
252.8327
0
VERTEX
8
CUT
10
19.0492
20
252.7854
0
VERTEX
8
CUT
10
18.8366
20
252.6301
0
VERTEX
8
CUT
10
18.7458
20
252.5478
0
VERTEX
8
CUT
10
18.5057
20
252.3399
0
VERTEX
8
CUT
10
16.4759
20
250.3249
0
VERTEX
8
CUT
10
16.3289
20
250.1657
0
VERTEX
8
CUT
10
16.1962
20
249.9943
0
VERTEX
8
CUT
10
16.1849
20
249.9784
0
VERTEX
8
CUT
10
15.9418
20
249.7335
0
VERTEX
8
CUT
10
15.7950
20
249.5721
0
VERTEX
8
CUT
10
15.6629
20
249.3986
0
VERTEX
8
CUT
10
15.3398
20
248.9336
0
VERTEX
8
CUT
10
15.2059
20
248.7183
0
VERTEX
8
CUT
10
15.0945
20
248.4905
0
VERTEX
8
CUT
10
15.0047
20
248.2807
0
VERTEX
8
CUT
10
14.9054
20
248.0829
0
VERTEX
8
CUT
10
14.8160
20
247.8491
0
VERTEX
8
CUT
10
14.8029
20
247.8090
0
VERTEX
8
CUT
10
14.3971
20
246.8604
0
VERTEX
8
CUT
10
14.2964
20
246.5795
0
VERTEX
8
CUT
10
13.3635
20
243.3932
0
VERTEX
8
CUT
10
13.3627
20
243.3908
0
VERTEX
8
CUT
10
13.3619
20
243.3876
0
VERTEX
8
CUT
10
13.3282
20
243.2725
0
VERTEX
8
CUT
10
13.3264
20
243.2664
0
VERTEX
8
CUT
10
13.2999
20
243.1564
0
VERTEX
8
CUT
10
13.2940
20
243.1347
0
VERTEX
8
CUT
10
13.2929
20
243.1277
0
VERTEX
8
CUT
10
13.2699
20
243.0323
0
VERTEX
8
CUT
10
13.2363
20
242.7939
0
VERTEX
8
CUT
10
13.2257
20
242.5533
0
VERTEX
8
CUT
10
13.2420
20
238.6989
0
VERTEX
8
CUT
10
13.2523
20
238.4833
0
VERTEX
8
CUT
10
13.2811
20
238.2693
0
VERTEX
8
CUT
10
13.3282
20
238.0586
0
VERTEX
8
CUT
10
13.3377
20
238.0287
0
VERTEX
8
CUT
10
13.3400
20
238.0185
0
VERTEX
8
CUT
10
13.3891
20
237.8647
0
VERTEX
8
CUT
10
13.4118
20
237.7884
0
VERTEX
8
CUT
10
13.6782
20
237.0489
0
VERTEX
8
CUT
10
13.6834
20
237.0332
0
VERTEX
8
CUT
10
13.6866
20
237.0129
0
VERTEX
8
CUT
10
13.6881
20
236.9936
0
VERTEX
8
CUT
10
13.7364
20
236.1071
0
VERTEX
8
CUT
10
13.7580
20
235.8885
0
VERTEX
8
CUT
10
13.7986
20
235.6726
0
SEQEND
0
POLYLINE
8
CUT
66
1
70
1
10
0.0
20
0.0
30
0.0
0
VERTEX
8
CUT
10
275.7912
20
237.7843
0
VERTEX
8
CUT
10
276.0382
20
237.8449
0
VERTEX
8
CUT
10
276.2777
20
237.9304
0
VERTEX
8
CUT
10
276.5073
20
238.0397
0
VERTEX
8
CUT
10
276.7246
20
238.1718
0
VERTEX
8
CUT
10
276.9273
20
238.3253
0
VERTEX
8
CUT
10
277.1134
20
238.4986
0
VERTEX
8
CUT
10
277.3777
20
238.7711
0
VERTEX
8
CUT
10
277.5383
20
238.9537
0
VERTEX
8
CUT
10
277.6805
20
239.1511
0
VERTEX
8
CUT
10
277.8028
20
239.3614
0
VERTEX
8
CUT
10
277.9041
20
239.5826
0
VERTEX
8
CUT
10
277.9834
20
239.8126
0
VERTEX
8
CUT
10
278.0400
20
240.0492
0
VERTEX
8
CUT
10
278.0733
20
240.2901
0
VERTEX
8
CUT
10
278.0830
20
240.5332
0
VERTEX
8
CUT
10
278.0819
20
240.6629
0
VERTEX
8
CUT
10
278.0695
20
240.8912
0
VERTEX
8
CUT
10
278.0363
20
241.1174
0
VERTEX
8
CUT
10
277.9825
20
241.3396
0
VERTEX
8
CUT
10
277.9087
20
241.5560
0
VERTEX
8
CUT
10
277.8154
20
241.7647
0
VERTEX
8
CUT
10
277.6544
20
242.0847
0
VERTEX
8
CUT
10
277.5261
20
242.3099
0
VERTEX
8
CUT
10
277.3752
20
242.5206
0
VERTEX
8
CUT
10
277.2033
20
242.7145
0
VERTEX
8
CUT
10
277.1018
20
242.8177
0
VERTEX
8
CUT
10
276.9389
20
242.9692
0
VERTEX
8
CUT
10
276.7632
20
243.1056
0
VERTEX
8
CUT
10
276.5761
20
243.2258
0
VERTEX
8
CUT
10
276.3790
20
243.3290
0
VERTEX
8
CUT
10
276.1736
20
243.4142
0
VERTEX
8
CUT
10
275.7867
20
243.5548
0
VERTEX
8
CUT
10
275.5382
20
243.6307
0
VERTEX
8
CUT
10
275.2833
20
243.6805
0
VERTEX
8
CUT
10
275.0245
20
243.7035
0
VERTEX
8
CUT
10
274.7647
20
243.6996
0
VERTEX
8
CUT
10
274.5068
20
243.6687
0
VERTEX
8
CUT
10
274.2962
20
243.6209
0
VERTEX
8
CUT
10
274.2534
20
243.6112
0
VERTEX
8
CUT
10
274.0074
20
243.5277
0
VERTEX
8
CUT
10
273.8850
20
243.4789
0
VERTEX
8
CUT
10
273.8386
20
243.4577
0
VERTEX
8
CUT
10
273.6568
20
243.3745
0
VERTEX
8
CUT
10
273.4403
20
243.2477
0
VERTEX
8
CUT
10
273.2376
20
243.0998
0
VERTEX
8
CUT
10
273.0507
20
242.9324
0
VERTEX
8
CUT
10
272.6763
20
242.5614
0
VERTEX
8
CUT
10
272.6748
20
242.5600
0
VERTEX
8
CUT
10
272.6724
20
242.5576
0
VERTEX
8
CUT
10
272.5059
20
242.3755
0
VERTEX
8
CUT
10
272.3581
20
242.1778
0
VERTEX
8
CUT
10
272.2306
20
241.9666
0
VERTEX
8
CUT
10
272.1245
20
241.7438
0
VERTEX
8
CUT
10
272.0409
20
241.5116
0
VERTEX
8
CUT
10
271.9806
20
241.2723
0
VERTEX
8
CUT
10
271.9441
20
241.0282
0
VERTEX
8
CUT
10
271.9319
20
240.7817
0
VERTEX
8
CUT
10
271.9319
20
240.5525
0
VERTEX
8
CUT
10
271.9434
20
240.3130
0
VERTEX
8
CUT
10
271.9778
20
240.0756
0
VERTEX
8
CUT
10
271.9823
20
240.0572
0
VERTEX
8
CUT
10
271.9840
20
240.0461
0
VERTEX
8
CUT
10
272.0208
20
239.9000
0
VERTEX
8
CUT
10
272.0348
20
239.8427
0
VERTEX
8
CUT
10
272.0363
20
239.8385
0
VERTEX
8
CUT
10
272.0433
20
239.8104
0
VERTEX
8
CUT
10
272.1253
20
239.5815
0
VERTEX
8
CUT
10
272.2291
20
239.3616
0
VERTEX
8
CUT
10
272.3538
20
239.1529
0
VERTEX
8
CUT
10
272.4153
20
239.0605
0
VERTEX
8
CUT
10
272.5813
20
238.8387
0
VERTEX
8
CUT
10
272.6490
20
238.7666
0
VERTEX
8
CUT
10
272.6693
20
238.7407
0
VERTEX
8
CUT
10
272.8555
20
238.5496
0
VERTEX
8
CUT
10
273.0609
20
238.3795
0
VERTEX
8
CUT
10
273.2501
20
238.2391
0
VERTEX
8
CUT
10
273.4669
20
238.0952
0
VERTEX
8
CUT
10
273.6975
20
237.9746
0
VERTEX
8
CUT
10
273.9393
20
237.8786
0
VERTEX
8
CUT
10
274.1898
20
237.8082
0
VERTEX
8
CUT
10
274.4463
20
237.7643
0
VERTEX
8
CUT
10
274.7059
20
237.7472
0
VERTEX
8
CUT
10
274.7237
20
237.7470
0
VERTEX
8
CUT
10
274.7243
20
237.7470
0
VERTEX
8
CUT
10
275.1417
20
237.7414
0
VERTEX
8
CUT
10
275.2853
20
237.7395
0
VERTEX
8
CUT
10
275.5394
20
237.7490
0
VERTEX
8
CUT
10
275.6099
20
237.7589
0
SEQEND
0
POLYLINE
8
CUT
66
1
70
1
10
0.0
20
0.0
30
0.0
0
VERTEX
8
CUT
10
271.7964
20
75.5092
0
VERTEX
8
CUT
10
271.8137
20
75.4928
0
VERTEX
8
CUT
10
271.8238
20
75.4814
0
VERTEX
8
CUT
10
271.9289
20
75.3839
0
VERTEX
8
CUT
10
271.9781
20
75.3373
0
VERTEX
8
CUT
10
271.9838
20
75.3330
0
VERTEX
8
CUT
10
272.0064
20
75.3120
0
VERTEX
8
CUT
10
272.2050
20
75.1616
0
VERTEX
8
CUT
10
272.4176
20
75.0317
0
VERTEX
8
CUT
10
272.6420
20
74.9236
0
VERTEX
8
CUT
10
272.8761
20
74.8383
0
VERTEX
8
CUT
10
273.1175
20
74.7768
0
VERTEX
8
CUT
10
273.3638
20
74.7396
0
VERTEX
8
CUT
10
273.6126
20
74.7272
0
VERTEX
8
CUT
10
274.4089
20
74.7269
0
VERTEX
8
CUT
10
274.6538
20
74.7389
0
VERTEX
8
CUT
10
274.8964
20
74.7748
0
VERTEX
8
CUT
10
275.1343
20
74.8343
0
VERTEX
8
CUT
10
275.3652
20
74.9168
0
VERTEX
8
CUT
10
275.5869
20
75.0216
0
VERTEX
8
CUT
10
275.7973
20
75.1475
0
VERTEX
8
CUT
10
275.9944
20
75.2935
0
VERTEX
8
CUT
10
276.1762
20
75.4581
0
VERTEX
8
CUT
10
276.3410
20
75.6396
0
VERTEX
8
CUT
10
276.4872
20
75.8365
0
VERTEX
8
CUT
10
276.6134
20
76.0467
0
VERTEX
8
CUT
10
276.7185
20
76.2683
0
VERTEX
8
CUT
10
276.8013
20
76.4992
0
VERTEX
8
CUT
10
276.8611
20
76.7370
0
VERTEX
8
CUT
10
276.8973
20
76.9795
0
VERTEX
8
CUT
10
276.9095
20
77.2244
0
VERTEX
8
CUT
10
276.9095
20
77.2296
0
VERTEX
8
CUT
10
276.9101
20
77.7661
0
VERTEX
8
CUT
10
276.9101
20
77.8075
0
VERTEX
8
CUT
10
276.8974
20
78.0619
0
VERTEX
8
CUT
10
276.8589
20
78.3136
0
VERTEX
8
CUT
10
276.7949
20
78.5601
0
VERTEX
8
CUT
10
276.7063
20
78.7989
0
VERTEX
8
CUT
10
276.5937
20
79.0273
0
VERTEX
8
CUT
10
276.4586
20
79.2432
0
VERTEX
8
CUT
10
276.3021
20
79.4441
0
VERTEX
8
CUT
10
276.1261
20
79.6282
0
VERTEX
8
CUT
10
276.0246
20
79.7240
0
VERTEX
8
CUT
10
276.0088
20
79.7401
0
VERTEX
8
CUT
10
275.9985
20
79.7485
0
VERTEX
8
CUT
10
275.8555
20
79.8835
0
VERTEX
8
CUT
10
275.6736
20
80.0394
0
VERTEX
8
CUT
10
275.4776
20
80.1772
0
VERTEX
8
CUT
10
275.2693
20
80.2956
0
VERTEX
8
CUT
10
275.0506
20
80.3935
0
VERTEX
8
CUT
10
274.8236
20
80.4700
0
VERTEX
8
CUT
10
274.5903
20
80.5244
0
VERTEX
8
CUT
10
274.3528
20
80.5563
0
VERTEX
8
CUT
10
274.1134
20
80.5653
0
VERTEX
8
CUT
10
273.8160
20
80.5621
0
VERTEX
8
CUT
10
273.5652
20
80.5469
0
VERTEX
8
CUT
10
273.3172
20
80.5065
0
VERTEX
8
CUT
10
273.0745
20
80.4415
0
VERTEX
8
CUT
10
272.8396
20
80.3525
0
VERTEX
8
CUT
10
272.6156
20
80.2407
0
VERTEX
8
CUT
10
272.6147
20
80.2403
0
VERTEX
8
CUT
10
272.4023
20
80.1061
0
VERTEX
8
CUT
10
272.2045
20
79.9512
0
VERTEX
8
CUT
10
272.0231
20
79.7773
0
VERTEX
8
CUT
10
271.8099
20
79.5512
0
VERTEX
8
CUT
10
271.8062
20
79.5472
0
VERTEX
8
CUT
10
271.6401
20
79.3519
0
VERTEX
8
CUT
10
271.4949
20
79.1405
0
VERTEX
8
CUT
10
271.3721
20
78.9154
0
VERTEX
8
CUT
10
271.2729
20
78.6789
0
VERTEX
8
CUT
10
271.1986
20
78.4335
0
VERTEX
8
CUT
10
271.1498
20
78.1817
0
VERTEX
8
CUT
10
271.1270
20
77.9263
0
VERTEX
8
CUT
10
271.1046
20
77.3315
0
VERTEX
8
CUT
10
271.1077
20
77.0813
0
VERTEX
8
CUT
10
271.1358
20
76.8327
0
VERTEX
8
CUT
10
271.1886
20
76.5882
0
VERTEX
8
CUT
10
271.2656
20
76.3502
0
VERTEX
8
CUT
10
271.3660
20
76.1210
0
VERTEX
8
CUT
10
271.4887
20
75.9030
0
VERTEX
8
CUT
10
271.6327
20
75.6984
0
SEQEND
0
POLYLINE
8
CUT
66
1
70
1
10
0.0
20
0.0
30
0.0
0
VERTEX
8
CUT
10
239.0104
20
20.7097
0
VERTEX
8
CUT
10
239.0920
20
20.5081
0
VERTEX
8
CUT
10
239.1909
20
20.3145
0
VERTEX
8
CUT
10
239.3061
20
20.1301
0
VERTEX
8
CUT
10
240.0818
20
19.0021
0
VERTEX
8
CUT
10
240.2505
20
18.7837
0
VERTEX
8
CUT
10
240.4422
20
18.5852
0
VERTEX
8
CUT
10
240.6547
20
18.4091
0
VERTEX
8
CUT
10
240.8405
20
18.2716
0
VERTEX
8
CUT
10
241.0541
20
18.1298
0
VERTEX
8
CUT
10
241.2811
20
18.0107
0
VERTEX
8
CUT
10
241.5191
20
17.9155
0
VERTEX
8
CUT
10
242.4155
20
17.6091
0
VERTEX
8
CUT
10
242.6681
20
17.5374
0
VERTEX
8
CUT
10
242.9269
20
17.4925
0
VERTEX
8
CUT
10
243.1889
20
17.4750
0
VERTEX
8
CUT
10
243.4513
20
17.4851
0
VERTEX
8
CUT
10
243.7112
20
17.5227
0
VERTEX
8
CUT
10
243.9657
20
17.5873
0
VERTEX
8
CUT
10
244.2120
20
17.6783
0
VERTEX
8
CUT
10
245.2111
20
18.1081
0
VERTEX
8
CUT
10
245.4187
20
18.2090
0
VERTEX
8
CUT
10
245.6161
20
18.3286
0
VERTEX
8
CUT
10
245.8016
20
18.4659
0
VERTEX
8
CUT
10
245.9736
20
18.6197
0
VERTEX
8
CUT
10
246.8130
20
19.4429
0
VERTEX
8
CUT
10
246.9726
20
19.6148
0
VERTEX
8
CUT
10
247.1154
20
19.8009
0
VERTEX
8
CUT
10
247.2400
20
19.9995
0
VERTEX
8
CUT
10
247.2671
20
20.0475
0
VERTEX
8
CUT
10
247.3679
20
20.2466
0
VERTEX
8
CUT
10
247.4507
20
20.4539
0
VERTEX
8
CUT
10
247.5146
20
20.6677
0
VERTEX
8
CUT
10
247.6662
20
21.2725
0
VERTEX
8
CUT
10
247.7223
20
21.5732
0
VERTEX
8
CUT
10
247.7413
20
21.8785
0
VERTEX
8
CUT
10
247.7413
20
21.9268
0
VERTEX
8
CUT
10
247.7287
20
22.1794
0
VERTEX
8
CUT
10
247.6907
20
22.4294
0
VERTEX
8
CUT
10
247.6276
20
22.6742
0
VERTEX
8
CUT
10
247.5401
20
22.9115
0
VERTEX
8
CUT
10
247.0403
20
24.0808
0
VERTEX
8
CUT
10
246.9406
20
24.2872
0
VERTEX
8
CUT
10
246.8225
20
24.4836
0
VERTEX
8
CUT
10
246.6868
20
24.6684
0
VERTEX
8
CUT
10
246.5348
20
24.8400
0
VERTEX
8
CUT
10
246.1161
20
25.2711
0
VERTEX
8
CUT
10
245.9447
20
25.4317
0
VERTEX
8
CUT
10
245.7590
20
25.5755
0
VERTEX
8
CUT
10
245.5606
20
25.7013
0
VERTEX
8
CUT
10
245.3513
20
25.8079
0
VERTEX
8
CUT
10
244.0947
20
26.3751
0
VERTEX
8
CUT
10
243.8539
20
26.4691
0
VERTEX
8
CUT
10
243.6047
20
26.5378
0
VERTEX
8
CUT
10
243.3497
20
26.5803
0
VERTEX
8
CUT
10
243.0917
20
26.5963
0
VERTEX
8
CUT
10
243.0380
20
26.5969
0
VERTEX
8
CUT
10
242.8228
20
26.5898
0
VERTEX
8
CUT
10
242.6090
20
26.5642
0
VERTEX
8
CUT
10
242.3982
20
26.5204
0
VERTEX
8
CUT
10
241.8970
20
26.3933
0
VERTEX
8
CUT
10
241.6310
20
26.3098
0
VERTEX
8
CUT
10
241.3759
20
26.1973
0
VERTEX
8
CUT
10
241.1350
20
26.0570
0
VERTEX
8
CUT
10
240.9209
20
25.9159
0
VERTEX
8
CUT
10
240.7005
20
25.7524
0
VERTEX
8
CUT
10
240.4992
20
25.5658
0
VERTEX
8
CUT
10
240.3197
20
25.3583
0
VERTEX
8
CUT
10
239.6339
20
24.4716
0
VERTEX
8
CUT
10
239.5072
20
24.2920
0
VERTEX
8
CUT
10
239.3968
20
24.1020
0
VERTEX
8
CUT
10
239.3035
20
23.9029
0
VERTEX
8
CUT
10
238.9036
20
22.9423
0
VERTEX
8
CUT
10
238.8155
20
22.6948
0
VERTEX
8
CUT
10
238.7539
20
22.4394
0
VERTEX
8
CUT
10
238.7194
20
22.1790
0
VERTEX
8
CUT
10
238.7125
20
21.9164
0
VERTEX
8
CUT
10
238.7331
20
21.6546
0
VERTEX
8
CUT
10
238.7811
20
21.3963
0
VERTEX
8
CUT
10
238.8559
20
21.1445
0
SEQEND
0
POLYLINE
8
CUT
66
1
70
1
10
0.0
20
0.0
30
0.0
0
VERTEX
8
CUT
10
226.7590
20
251.4148
0
VERTEX
8
CUT
10
227.3706
20
251.0405
0
VERTEX
8
CUT
10
227.5474
20
250.9322
0
VERTEX
8
CUT
10
227.5835
20
250.9126
0
VERTEX
8
CUT
10
227.7750
20
250.8086
0
VERTEX
8
CUT
10
227.9148
20
250.7505
0
VERTEX
8
CUT
10
228.0142
20
250.7092
0
VERTEX
8
CUT
10
228.2624
20
250.6351
0
VERTEX
8
CUT
10
228.5169
20
250.5871
0
VERTEX
8
CUT
10
229.5358
20
250.4489
0
VERTEX
8
CUT
10
229.7696
20
250.4284
0
VERTEX
8
CUT
10
230.0043
20
250.4298
0
VERTEX
8
CUT
10
230.2378
20
250.4533
0
VERTEX
8
CUT
10
230.4681
20
250.4985
0
VERTEX
8
CUT
10
230.6931
20
250.5651
0
VERTEX
8
CUT
10
230.7604
20
250.5885
0
VERTEX
8
CUT
10
230.7956
20
250.5941
0
VERTEX
8
CUT
10
230.8129
20
250.5957
0
VERTEX
8
CUT
10
231.3740
20
250.6349
0
VERTEX
8
CUT
10
231.6329
20
250.6666
0
VERTEX
8
CUT
10
231.8871
20
250.7251
0
VERTEX
8
CUT
10
232.1338
20
250.8098
0
VERTEX
8
CUT
10
232.7005
20
251.0380
0
VERTEX
8
CUT
10
232.9216
20
251.1398
0
VERTEX
8
CUT
10
233.1319
20
251.2627
0
VERTEX
8
CUT
10
233.3291
20
251.4055
0
VERTEX
8
CUT
10
233.5116
20
251.5667
0
VERTEX
8
CUT
10
234.7283
20
252.7526
0
VERTEX
8
CUT
10
234.8843
20
252.9192
0
VERTEX
8
CUT
10
235.0244
20
253.0994
0
VERTEX
8
CUT
10
235.1476
20
253.2915
0
VERTEX
8
CUT
10
235.2527
20
253.4941
0
VERTEX
8
CUT
10
235.7164
20
254.4976
0
VERTEX
8
CUT
10
235.8066
20
254.7204
0
VERTEX
8
CUT
10
235.8750
20
254.9508
0
VERTEX
8
CUT
10
236.0411
20
255.6276
0
VERTEX
8
CUT
10
236.0946
20
255.9198
0
VERTEX
8
CUT
10
236.1130
20
256.2163
0
VERTEX
8
CUT
10
236.1143
20
256.6780
0
VERTEX
8
CUT
10
236.1063
20
256.8844
0
VERTEX
8
CUT
10
236.0814
20
257.0893
0
VERTEX
8
CUT
10
236.0396
20
257.2916
0
VERTEX
8
CUT
10
235.8795
20
257.9316
0
VERTEX
8
CUT
10
235.8129
20
258.1536
0
VERTEX
8
CUT
10
235.7261
20
258.3684
0
VERTEX
8
CUT
10
235.6197
20
258.5742
0
VERTEX
8
CUT
10
234.8729
20
259.8690
0
VERTEX
8
CUT
10
234.7528
20
260.0572
0
VERTEX
8
CUT
10
234.6164
20
260.2339
0
VERTEX
8
CUT
10
234.4648
20
260.3978
0
VERTEX
8
CUT
10
234.2992
20
260.5475
0
VERTEX
8
CUT
10
233.2070
20
261.4495
0
VERTEX
8
CUT
10
233.0253
20
261.5861
0
VERTEX
8
CUT
10
232.8319
20
261.7057
0
VERTEX
8
CUT
10
232.6285
20
261.8072
0
VERTEX
8
CUT
10
232.1219
20
262.0319
0
VERTEX
8
CUT
10
232.1166
20
262.0342
0
VERTEX
8
CUT
10
231.8760
20
262.1264
0
VERTEX
8
CUT
10
231.6271
20
262.1933
0
VERTEX
8
CUT
10
231.3727
20
262.2343
0
VERTEX
8
CUT
10
231.1154
20
262.2488
0
VERTEX
8
CUT
10
229.3277
20
262.2576
0
VERTEX
8
CUT
10
229.0652
20
262.2450
0
VERTEX
8
CUT
10
229.0046
20
262.2357
0
VERTEX
8
CUT
10
228.9628
20
262.2335
0
VERTEX
8
CUT
10
228.7004
20
262.1914
0
VERTEX
8
CUT
10
228.4440
20
262.1217
0
VERTEX
8
CUT
10
228.1964
20
262.0252
0
VERTEX
8
CUT
10
227.0472
20
261.5053
0
VERTEX
8
CUT
10
226.8344
20
261.3965
0
VERTEX
8
CUT
10
226.6329
20
261.2678
0
VERTEX
8
CUT
10
226.5851
20
261.2340
0
VERTEX
8
CUT
10
226.5444
20
261.2078
0
VERTEX
8
CUT
10
226.3217
20
261.0474
0
VERTEX
8
CUT
10
226.2977
20
261.0304
0
VERTEX
8
CUT
10
226.2932
20
261.0269
0
VERTEX
8
CUT
10
226.2637
20
261.0057
0
VERTEX
8
CUT
10
226.0815
20
260.8612
0
VERTEX
8
CUT
10
225.9135
20
260.7003
0
VERTEX
8
CUT
10
225.7612
20
260.5246
0
VERTEX
8
CUT
10
225.1905
20
259.8007
0
VERTEX
8
CUT
10
225.1427
20
259.7347
0
VERTEX
8
CUT
10
225.0412
20
259.5959
0
VERTEX
8
CUT
10
224.8501
20
259.3116
0
VERTEX
8
CUT
10
224.7240
20
259.1025
0
VERTEX
8
CUT
10
224.6188
20
258.8821
0
VERTEX
8
CUT
10
224.5357
20
258.6525
0
VERTEX
8
CUT
10
224.5274
20
258.6200
0
VERTEX
8
CUT
10
224.5264
20
258.6171
0
VERTEX
8
CUT
10
224.5198
20
258.5902
0
VERTEX
8
CUT
10
224.4754
20
258.4158
0
VERTEX
8
CUT
10
224.4723
20
258.3958
0
VERTEX
8
CUT
10
224.4678
20
258.3775
0
VERTEX
8
CUT
10
224.4463
20
258.2262
0
VERTEX
8
CUT
10
224.4384
20
258.1744
0
VERTEX
8
CUT
10
224.4369
20
258.1596
0
VERTEX
8
CUT
10
224.4331
20
258.1333
0
VERTEX
8
CUT
10
224.4302
20
258.1013
0
VERTEX
8
CUT
10
224.4281
20
258.0831
0
VERTEX
8
CUT
10
224.4210
20
258.0455
0
VERTEX
8
CUT
10
224.4105
20
258.0088
0
VERTEX
8
CUT
10
224.4042
20
257.9916
0
VERTEX
8
CUT
10
224.1004
20
257.2149
0
VERTEX
8
CUT
10
224.0927
20
257.1949
0
VERTEX
8
CUT
10
224.0188
20
256.9769
0
VERTEX
8
CUT
10
223.9653
20
256.7531
0
VERTEX
8
CUT
10
223.9326
20
256.5252
0
VERTEX
8
CUT
10
223.9310
20
256.4949
0
VERTEX
8
CUT
10
223.9290
20
256.4797
0
VERTEX
8
CUT
10
223.9252
20
256.3785
0
VERTEX
8
CUT
10
223.9210
20
256.2953
0
VERTEX
8
CUT
10
223.9208
20
256.2646
0
VERTEX
8
CUT
10
223.9201
20
256.2449
0
VERTEX
8
CUT
10
223.9205
20
256.1950
0
VERTEX
8
CUT
10
223.9202
20
256.1288
0
VERTEX
8
CUT
10
223.9213
20
256.1051
0
VERTEX
8
CUT
10
223.9216
20
256.0784
0
VERTEX
8
CUT
10
223.9264
20
255.9958
0
VERTEX
8
CUT
10
223.9320
20
255.8752
0
VERTEX
8
CUT
10
223.9344
20
255.8591
0
VERTEX
8
CUT
10
223.9360
20
255.8314
0
VERTEX
8
CUT
10
223.9748
20
255.5870
0
VERTEX
8
CUT
10
224.0376
20
255.3477
0
VERTEX
8
CUT
10
224.0457
20
255.3259
0
VERTEX
8
CUT
10
224.0492
20
255.3127
0
VERTEX
8
CUT
10
224.1354
20
255.0818
0
VERTEX
8
CUT
10
224.6558
20
253.8733
0
VERTEX
8
CUT
10
224.7642
20
253.6523
0
VERTEX
8
CUT
10
224.8937
20
253.4431
0
VERTEX
8
CUT
10
225.0432
20
253.2476
0
VERTEX
8
CUT
10
225.0445
20
253.2460
0
VERTEX
8
CUT
10
225.0471
20
253.2429
0
VERTEX
8
CUT
10
226.1555
20
251.9325
0
VERTEX
8
CUT
10
226.3379
20
251.7388
0
VERTEX
8
CUT
10
226.5399
20
251.5656
0
SEQEND
0
POLYLINE
8
CUT
66
1
70
1
10
0.0
20
0.0
30
0.0
0
VERTEX
8
CUT
10
143.4897
20
26.5894
0
VERTEX
8
CUT
10
143.4933
20
26.5682
0
VERTEX
8
CUT
10
143.5631
20
26.3156
0
VERTEX
8
CUT
10
143.8110
20
25.5729
0
VERTEX
8
CUT
10
143.8936
20
25.3585
0
VERTEX
8
CUT
10
143.9956
20
25.1527
0
VERTEX
8
CUT
10
144.1160
20
24.9571
0
VERTEX
8
CUT
10
144.2539
20
24.7734
0
VERTEX
8
CUT
10
144.4081
20
24.6031
0
VERTEX
8
CUT
10
145.0861
20
23.9200
0
VERTEX
8
CUT
10
145.2741
20
23.7490
0
VERTEX
8
CUT
10
145.4784
20
23.5979
0
VERTEX
8
CUT
10
145.6971
20
23.4684
0
VERTEX
8
CUT
10
145.9278
20
23.3617
0
VERTEX
8
CUT
10
146.4808
20
23.1394
0
VERTEX
8
CUT
10
146.5441
20
23.1174
0
VERTEX
8
CUT
10
146.7060
20
23.0611
0
VERTEX
8
CUT
10
146.8629
20
23.0228
0
VERTEX
8
CUT
10
146.9376
20
23.0046
0
VERTEX
8
CUT
10
147.1735
20
22.9704
0
VERTEX
8
CUT
10
147.4116
20
22.9589
0
VERTEX
8
CUT
10
148.4525
20
22.9581
0
VERTEX
8
CUT
10
148.6871
20
22.9690
0
VERTEX
8
CUT
10
148.9197
20
23.0018
0
VERTEX
8
CUT
10
149.1482
20
23.0564
0
VERTEX
8
CUT
10
149.3706
20
23.1321
0
VERTEX
8
CUT
10
149.9068
20
23.3433
0
VERTEX
8
CUT
10
150.1401
20
23.4493
0
VERTEX
8
CUT
10
150.3613
20
23.5787
0
VERTEX
8
CUT
10
150.5681
20
23.7299
0
VERTEX
8
CUT
10
150.7583
20
23.9016
0
VERTEX
8
CUT
10
151.2831
20
24.4264
0
VERTEX
8
CUT
10
151.4673
20
24.6321
0
VERTEX
8
CUT
10
151.6277
20
24.8569
0
VERTEX
8
CUT
10
151.7622
20
25.0981
0
VERTEX
8
CUT
10
151.8987
20
25.3777
0
VERTEX
8
CUT
10
151.9888
20
25.5860
0
VERTEX
8
CUT
10
152.0597
20
25.8015
0
VERTEX
8
CUT
10
152.1107
20
26.0226
0
VERTEX
8
CUT
10
152.1415
20
26.2475
0
VERTEX
8
CUT
10
152.1518
20
26.4741
0
VERTEX
8
CUT
10
152.1516
20
27.8913
0
VERTEX
8
CUT
10
152.1412
20
28.1183
0
VERTEX
8
CUT
10
152.1103
20
28.3433
0
VERTEX
8
CUT
10
152.0591
20
28.5646
0
VERTEX
8
CUT
10
151.9880
20
28.7804
0
VERTEX
8
CUT
10
151.8976
20
28.9888
0
VERTEX
8
CUT
10
151.4610
20
29.8821
0
VERTEX
8
CUT
10
151.3402
20
30.1009
0
VERTEX
8
CUT
10
151.2855
20
30.1800
0
VERTEX
8
CUT
10
151.1981
20
30.3065
0
VERTEX
8
CUT
10
151.1240
20
30.3936
0
VERTEX
8
CUT
10
151.0361
20
30.4970
0
VERTEX
8
CUT
10
151.0310
20
30.5024
0
VERTEX
8
CUT
10
151.0292
20
30.5044
0
VERTEX
8
CUT
10
150.9358
20
30.5952
0
VERTEX
8
CUT
10
150.8702
20
30.6591
0
VERTEX
8
CUT
10
150.7747
20
30.7367
0
VERTEX
8
CUT
10
150.6981
20
30.7991
0
VERTEX
8
CUT
10
150.6233
20
30.8496
0
VERTEX
8
CUT
10
150.5143
20
30.9233
0
VERTEX
8
CUT
10
149.6464
20
31.4551
0
VERTEX
8
CUT
10
149.6400
20
31.4591
0
VERTEX
8
CUT
10
149.3952
20
31.5910
0
VERTEX
8
CUT
10
149.1372
20
31.6948
0
VERTEX
8
CUT
10
148.8693
20
31.7694
0
VERTEX
8
CUT
10
148.4123
20
31.8697
0
VERTEX
8
CUT
10
148.1846
20
31.9087
0
VERTEX
8
CUT
10
147.9543
20
31.9265
0
VERTEX
8
CUT
10
147.7233
20
31.9230
0
VERTEX
8
CUT
10
147.4936
20
31.8982
0
VERTEX
8
CUT
10
147.4785
20
31.8951
0
VERTEX
8
CUT
10
147.4761
20
31.8949
0
VERTEX
8
CUT
10
147.3255
20
31.8641
0
VERTEX
8
CUT
10
147.2673
20
31.8523
0
VERTEX
8
CUT
10
147.2655
20
31.8519
0
VERTEX
8
CUT
10
147.2522
20
31.8492
0
VERTEX
8
CUT
10
146.8648
20
31.7514
0
VERTEX
8
CUT
10
146.5970
20
31.6676
0
VERTEX
8
CUT
10
146.3402
20
31.5543
0
VERTEX
8
CUT
10
146.3392
20
31.5538
0
VERTEX
8
CUT
10
145.8235
20
31.2906
0
VERTEX
8
CUT
10
145.8229
20
31.2904
0
VERTEX
8
CUT
10
145.6039
20
31.1643
0
VERTEX
8
CUT
10
145.3988
20
31.0167
0
VERTEX
8
CUT
10
145.2096
20
30.8492
0
VERTEX
8
CUT
10
144.4410
20
30.0963
0
VERTEX
8
CUT
10
144.2750
20
29.9170
0
VERTEX
8
CUT
10
144.2720
20
29.9130
0
VERTEX
8
CUT
10
144.2696
20
29.9104
0
VERTEX
8
CUT
10
144.1217
20
29.7151
0
VERTEX
8
CUT
10
143.9936
20
29.5062
0
VERTEX
8
CUT
10
143.8866
20
29.2857
0
VERTEX
8
CUT
10
143.6302
20
28.6842
0
VERTEX
8
CUT
10
143.6226
20
28.6633
0
VERTEX
8
CUT
10
143.5385
20
28.4363
0
VERTEX
8
CUT
10
143.4756
20
28.1951
0
VERTEX
8
CUT
10
143.4371
20
27.9488
0
VERTEX
8
CUT
10
143.4233
20
27.6999
0
VERTEX
8
CUT
10
143.4204
20
27.1779
0
VERTEX
8
CUT
10
143.4335
20
26.9080
0
VERTEX
8
CUT
10
143.4757
20
26.6411
0
SEQEND
0
POLYLINE
8
CUT
66
1
70
1
10
0.0
20
0.0
30
0.0
0
VERTEX
8
CUT
10
123.6182
20
16.1189
0
VERTEX
8
CUT
10
123.7265
20
15.9905
0
VERTEX
8
CUT
10
123.7929
20
15.9251
0
VERTEX
8
CUT
10
123.8905
20
15.8290
0
VERTEX
8
CUT
10
124.0686
20
15.6832
0
VERTEX
8
CUT
10
124.2594
20
15.5544
0
VERTEX
8
CUT
10
124.9779
20
15.1162
0
VERTEX
8
CUT
10
125.1833
20
15.0038
0
VERTEX
8
CUT
10
125.3983
20
14.9111
0
VERTEX
8
CUT
10
125.6210
20
14.8389
0
VERTEX
8
CUT
10
125.8587
20
14.7740
0
VERTEX
8
CUT
10
126.1208
20
14.7173
0
VERTEX
8
CUT
10
126.3875
20
14.6890
0
VERTEX
8
CUT
10
126.6557
20
14.6895
0
VERTEX
8
CUT
10
126.9223
20
14.7187
0
VERTEX
8
CUT
10
127.1842
20
14.7762
0
VERTEX
8
CUT
10
127.2921
20
14.8061
0
VERTEX
8
CUT
10
127.5137
20
14.8787
0
VERTEX
8
CUT
10
127.7276
20
14.9717
0
VERTEX
8
CUT
10
127.9319
20
15.0842
0
VERTEX
8
CUT
10
128.1248
20
15.2152
0
VERTEX
8
CUT
10
128.7022
20
15.6481
0
VERTEX
8
CUT
10
128.8777
20
15.7926
0
VERTEX
8
CUT
10
129.0394
20
15.9524
0
VERTEX
8
CUT
10
129.1858
20
16.1263
0
VERTEX
8
CUT
10
129.6736
20
16.7619
0
VERTEX
8
CUT
10
129.8202
20
16.9747
0
VERTEX
8
CUT
10
129.9440
20
17.2016
0
VERTEX
8
CUT
10
130.0437
20
17.4401
0
VERTEX
8
CUT
10
130.1182
20
17.6875
0
VERTEX
8
CUT
10
130.1854
20
17.9611
0
VERTEX
8
CUT
10
130.2317
20
18.1980
0
VERTEX
8
CUT
10
130.2548
20
18.4384
0
VERTEX
8
CUT
10
130.2546
20
18.6798
0
VERTEX
8
CUT
10
130.2312
20
18.9201
0
VERTEX
8
CUT
10
130.1847
20
19.1570
0
VERTEX
8
CUT
10
130.1150
20
19.4393
0
VERTEX
8
CUT
10
130.0427
20
19.6793
0
VERTEX
8
CUT
10
129.9469
20
19.9108
0
VERTEX
8
CUT
10
129.8283
20
20.1316
0
VERTEX
8
CUT
10
129.6882
20
20.3394
0
VERTEX
8
CUT
10
129.2770
20
20.8879
0
VERTEX
8
CUT
10
129.1325
20
21.0634
0
VERTEX
8
CUT
10
128.9727
20
21.2251
0
VERTEX
8
CUT
10
128.7988
20
21.3715
0
VERTEX
8
CUT
10
128.0823
20
21.9214
0
VERTEX
8
CUT
10
127.8519
20
22.0787
0
VERTEX
8
CUT
10
127.6054
20
22.2093
0
VERTEX
8
CUT
10
127.3459
20
22.3116
0
VERTEX
8
CUT
10
127.2184
20
22.3538
0
VERTEX
8
CUT
10
126.9825
20
22.4192
0
VERTEX
8
CUT
10
126.7414
20
22.4613
0
VERTEX
8
CUT
10
126.5704
20
22.4741
0
VERTEX
8
CUT
10
126.4973
20
22.4796
0
VERTEX
8
CUT
10
126.2525
20
22.4739
0
VERTEX
8
CUT
10
126.0095
20
22.4443
0
VERTEX
8
CUT
10
125.9834
20
22.4385
0
VERTEX
8
CUT
10
125.7706
20
22.3911
0
VERTEX
8
CUT
10
125.6179
20
22.3411
0
VERTEX
8
CUT
10
125.5380
20
22.3148
0
VERTEX
8
CUT
10
124.9539
20
22.0910
0
VERTEX
8
CUT
10
124.9480
20
22.0887
0
VERTEX
8
CUT
10
124.7182
20
21.9871
0
VERTEX
8
CUT
10
124.4998
20
21.8630
0
VERTEX
8
CUT
10
124.2949
20
21.7175
0
VERTEX
8
CUT
10
124.1057
20
21.5523
0
VERTEX
8
CUT
10
123.8059
20
21.2626
0
VERTEX
8
CUT
10
123.6437
20
21.0904
0
VERTEX
8
CUT
10
123.6265
20
21.0682
0
VERTEX
8
CUT
10
123.5979
20
21.0375
0
VERTEX
8
CUT
10
123.4527
20
20.8483
0
VERTEX
8
CUT
10
123.3261
20
20.6460
0
VERTEX
8
CUT
10
123.2194
20
20.4327
0
VERTEX
8
CUT
10
122.7917
20
19.4642
0
VERTEX
8
CUT
10
122.7039
20
19.2360
0
VERTEX
8
CUT
10
122.6389
20
19.0003
0
VERTEX
8
CUT
10
122.5972
20
18.7593
0
VERTEX
8
CUT
10
122.5793
20
18.5154
0
VERTEX
8
CUT
10
122.5852
20
18.2710
0
VERTEX
8
CUT
10
122.6151
20
18.0282
0
VERTEX
8
CUT
10
122.6685
20
17.7896
0
VERTEX
8
CUT
10
122.7449
20
17.5573
0
VERTEX
8
CUT
10
122.8437
20
17.3336
0
VERTEX
8
CUT
10
122.9638
20
17.1207
0
VERTEX
8
CUT
10
122.9687
20
17.1129
0
VERTEX
8
CUT
10
123.4465
20
16.3553
0
VERTEX
8
CUT
10
123.4636
20
16.3307
0
VERTEX
8
CUT
10
123.5781
20
16.1665
0
SEQEND
0
POLYLINE
8
CUT
66
1
70
1
10
0.0
20
0.0
30
0.0
0
VERTEX
8
CUT
10
71.4933
20
246.3905
0
VERTEX
8
CUT
10
71.5451
20
246.4030
0
VERTEX
8
CUT
10
71.7148
20
246.4439
0
VERTEX
8
CUT
10
71.7488
20
246.4554
0
VERTEX
8
CUT
10
71.7522
20
246.4563
0
VERTEX
8
CUT
10
71.7872
20
246.4685
0
VERTEX
8
CUT
10
71.9305
20
246.5172
0
VERTEX
8
CUT
10
71.9433
20
246.5229
0
VERTEX
8
CUT
10
71.9672
20
246.5312
0
VERTEX
8
CUT
10
72.1745
20
246.6254
0
VERTEX
8
CUT
10
72.4209
20
246.7512
0
VERTEX
8
CUT
10
72.4231
20
246.7524
0
VERTEX
8
CUT
10
72.4235
20
246.7526
0
VERTEX
8
CUT
10
72.4471
20
246.7646
0
VERTEX
8
CUT
10
72.6023
20
246.8546
0
VERTEX
8
CUT
10
72.6583
20
246.8866
0
VERTEX
8
CUT
10
72.6619
20
246.8891
0
VERTEX
8
CUT
10
72.6779
20
246.8984
0
VERTEX
8
CUT
10
72.8931
20
247.0560
0
VERTEX
8
CUT
10
73.0903
20
247.2357
0
VERTEX
8
CUT
10
73.2341
20
247.3815
0
VERTEX
8
CUT
10
73.3983
20
247.5653
0
VERTEX
8
CUT
10
73.5436
20
247.7643
0
VERTEX
8
CUT
10
73.6686
20
247.9767
0
VERTEX
8
CUT
10
73.7720
20
248.2004
0
VERTEX
8
CUT
10
73.8530
20
248.4332
0
VERTEX
8
CUT
10
73.9106
20
248.6728
0
VERTEX
8
CUT
10
73.9444
20
248.9169
0
VERTEX
8
CUT
10
73.9540
20
249.1631
0
VERTEX
8
CUT
10
73.9540
20
249.1656
0
VERTEX
8
CUT
10
73.9509
20
249.4572
0
VERTEX
8
CUT
10
73.9363
20
249.7019
0
VERTEX
8
CUT
10
73.8979
20
249.9440
0
VERTEX
8
CUT
10
73.8359
20
250.1812
0
VERTEX
8
CUT
10
73.7509
20
250.4112
0
VERTEX
8
CUT
10
73.6439
20
250.6317
0
VERTEX
8
CUT
10
73.5158
20
250.8407
0
VERTEX
8
CUT
10
73.3678
20
251.0361
0
VERTEX
8
CUT
10
73.2014
20
251.2161
0
VERTEX
8
CUT
10
72.8395
20
251.5710
0
VERTEX
8
CUT
10
72.8351
20
251.5753
0
VERTEX
8
CUT
10
72.7855
20
251.6239
0
VERTEX
8
CUT
10
72.5952
20
251.7924
0
VERTEX
8
CUT
10
72.3888
20
251.9407
0
VERTEX
8
CUT
10
72.1685
20
252.0673
0
VERTEX
8
CUT
10
72.1505
20
252.0764
0
VERTEX
8
CUT
10
71.9369
20
252.1727
0
VERTEX
8
CUT
10
71.7151
20
252.2486
0
VERTEX
8
CUT
10
71.4873
20
252.3034
0
VERTEX
8
CUT
10
71.2553
20
252.3367
0
VERTEX
8
CUT
10
71.0213
20
252.3480
0
VERTEX
8
CUT
10
70.7872
20
252.3374
0
VERTEX
8
CUT
10
70.5551
20
252.3050
0
VERTEX
8
CUT
10
70.3271
20
252.2509
0
VERTEX
8
CUT
10
70.1051
20
252.1757
0
VERTEX
8
CUT
10
69.8912
20
252.0801
0
VERTEX
8
CUT
10
69.7272
20
251.9974
0
VERTEX
8
CUT
10
69.5369
20
251.8908
0
VERTEX
8
CUT
10
69.3567
20
251.7680
0
VERTEX
8
CUT
10
69.1024
20
251.5779
0
VERTEX
8
CUT
10
68.9203
20
251.4280
0
VERTEX
8
CUT
10
68.7532
20
251.2616
0
VERTEX
8
CUT
10
68.6025
20
251.0801
0
VERTEX
8
CUT
10
68.4695
20
250.8853
0
VERTEX
8
CUT
10
68.3556
20
250.6788
0
VERTEX
8
CUT
10
68.2615
20
250.4625
0
VERTEX
8
CUT
10
68.1883
20
250.2383
0
VERTEX
8
CUT
10
68.1366
20
250.0082
0
VERTEX
8
CUT
10
68.1067
20
249.7743
0
VERTEX
8
CUT
10
68.1006
20
249.5855
0
VERTEX
8
CUT
10
68.0954
20
249.4814
0
VERTEX
8
CUT
10
68.0958
20
249.1242
0
VERTEX
8
CUT
10
68.1086
20
248.8751
0
VERTEX
8
CUT
10
68.1461
20
248.6284
0
VERTEX
8
CUT
10
68.2080
20
248.3867
0
VERTEX
8
CUT
10
68.2938
20
248.1524
0
VERTEX
8
CUT
10
68.4024
20
247.9278
0
VERTEX
8
CUT
10
68.5329
20
247.7151
0
VERTEX
8
CUT
10
68.6839
20
247.5166
0
VERTEX
8
CUT
10
68.6881
20
247.5120
0
VERTEX
8
CUT
10
68.6907
20
247.5086
0
VERTEX
8
CUT
10
68.8603
20
247.3270
0
VERTEX
8
CUT
10
68.8649
20
247.3225
0
VERTEX
8
CUT
10
69.1408
20
247.0549
0
VERTEX
8
CUT
10
69.1465
20
247.0494
0
VERTEX
8
CUT
10
69.3291
20
246.8887
0
VERTEX
8
CUT
10
69.5265
20
246.7466
0
VERTEX
8
CUT
10
69.7368
20
246.6243
0
VERTEX
8
CUT
10
69.9580
20
246.5230
0
VERTEX
8
CUT
10
70.1880
20
246.4437
0
VERTEX
8
CUT
10
70.4245
20
246.3871
0
VERTEX
8
CUT
10
70.6655
20
246.3538
0
VERTEX
8
CUT
10
70.9086
20
246.3440
0
VERTEX
8
CUT
10
70.9092
20
246.3440
0
VERTEX
8
CUT
10
71.0404
20
246.3452
0
VERTEX
8
CUT
10
71.2679
20
246.3575
0
VERTEX
8
CUT
10
71.3916
20
246.3756
0
SEQEND
0
POLYLINE
8
CUT
66
1
70
1
10
0.0
20
0.0
30
0.0
0
VERTEX
8
CUT
10
50.1682
20
267.9878
0
VERTEX
8
CUT
10
50.2143
20
267.7227
0
VERTEX
8
CUT
10
50.4772
20
266.5786
0
VERTEX
8
CUT
10
50.5469
20
266.3334
0
VERTEX
8
CUT
10
50.6204
20
266.1487
0
VERTEX
8
CUT
10
50.6413
20
266.0932
0
VERTEX
8
CUT
10
50.7578
20
265.8609
0
VERTEX
8
CUT
10
51.1725
20
265.1306
0
VERTEX
8
CUT
10
51.3010
20
264.9279
0
VERTEX
8
CUT
10
51.4482
20
264.7383
0
VERTEX
8
CUT
10
51.5026
20
264.6808
0
VERTEX
8
CUT
10
51.5230
20
264.6551
0
VERTEX
8
CUT
10
51.5252
20
264.6527
0
VERTEX
8
CUT
10
51.5259
20
264.6518
0
VERTEX
8
CUT
10
51.6860
20
264.4846
0
VERTEX
8
CUT
10
52.3523
20
263.8499
0
VERTEX
8
CUT
10
52.5371
20
263.6904
0
VERTEX
8
CUT
10
52.7366
20
263.5496
0
VERTEX
8
CUT
10
52.7442
20
263.5453
0
VERTEX
8
CUT
10
52.9518
20
263.4266
0
VERTEX
8
CUT
10
54.0523
20
262.8674
0
VERTEX
8
CUT
10
54.2712
20
262.7691
0
VERTEX
8
CUT
10
54.4986
20
262.6922
0
VERTEX
8
CUT
10
54.9172
20
262.5727
0
VERTEX
8
CUT
10
55.1772
20
262.5133
0
VERTEX
8
CUT
10
55.4421
20
262.4819
0
VERTEX
8
CUT
10
55.5108
20
262.4811
0
VERTEX
8
CUT
10
55.5880
20
262.4741
0
VERTEX
8
CUT
10
55.5918
20
262.4741
0
VERTEX
8
CUT
10
55.5953
20
262.4738
0
VERTEX
8
CUT
10
55.8520
20
262.4770
0
VERTEX
8
CUT
10
56.1070
20
262.5066
0
VERTEX
8
CUT
10
57.0968
20
262.6732
0
VERTEX
8
CUT
10
57.2474
20
262.7064
0
VERTEX
8
CUT
10
57.2935
20
262.7158
0
VERTEX
8
CUT
10
57.3016
20
262.7184
0
VERTEX
8
CUT
10
57.3408
20
262.7270
0
VERTEX
8
CUT
10
57.5781
20
262.8048
0
VERTEX
8
CUT
10
57.8066
20
262.9059
0
VERTEX
8
CUT
10
58.0238
20
263.0293
0
VERTEX
8
CUT
10
58.0245
20
263.0297
0
VERTEX
8
CUT
10
59.5158
20
263.9786
0
VERTEX
8
CUT
10
59.6986
20
264.1067
0
VERTEX
8
CUT
10
59.8042
20
264.1957
0
VERTEX
8
CUT
10
59.8700
20
264.2509
0
VERTEX
8
CUT
10
60.0268
20
264.4080
0
VERTEX
8
CUT
10
60.1690
20
264.5784
0
VERTEX
8
CUT
10
60.2956
20
264.7607
0
VERTEX
8
CUT
10
60.7956
20
265.5540
0
VERTEX
8
CUT
10
60.9157
20
265.7671
0
VERTEX
8
CUT
10
61.0145
20
265.9909
0
VERTEX
8
CUT
10
61.0281
20
266.0323
0
VERTEX
8
CUT
10
61.0330
20
266.0438
0
VERTEX
8
CUT
10
61.0602
20
266.1301
0
VERTEX
8
CUT
10
61.0909
20
266.2233
0
VERTEX
8
CUT
10
61.0995
20
266.2548
0
VERTEX
8
CUT
10
61.1088
20
266.2843
0
VERTEX
8
CUT
10
61.1297
20
266.3644
0
VERTEX
8
CUT
10
61.4593
20
267.5613
0
VERTEX
8
CUT
10
61.5106
20
267.7886
0
VERTEX
8
CUT
10
61.5406
20
268.0197
0
VERTEX
8
CUT
10
61.5488
20
268.2525
0
VERTEX
8
CUT
10
61.5461
20
268.3002
0
VERTEX
8
CUT
10
61.5473
20
268.3624
0
VERTEX
8
CUT
10
61.5293
20
268.5980
0
VERTEX
8
CUT
10
61.4893
20
268.8308
0
VERTEX
8
CUT
10
61.3657
20
269.3893
0
VERTEX
8
CUT
10
61.3440
20
269.4679
0
VERTEX
8
CUT
10
61.3093
20
269.6046
0
VERTEX
8
CUT
10
61.2222
20
269.8433
0
VERTEX
8
CUT
10
61.1113
20
270.0718
0
VERTEX
8
CUT
10
60.4079
20
271.3520
0
VERTEX
8
CUT
10
60.2757
20
271.5662
0
VERTEX
8
CUT
10
60.1226
20
271.7661
0
VERTEX
8
CUT
10
59.9502
20
271.9496
0
VERTEX
8
CUT
10
59.2252
20
272.6471
0
VERTEX
8
CUT
10
59.0393
20
272.8090
0
VERTEX
8
CUT
10
58.8384
20
272.9519
0
VERTEX
8
CUT
10
58.6244
20
273.0743
0
VERTEX
8
CUT
10
58.0863
20
273.3477
0
VERTEX
8
CUT
10
57.8302
20
273.4603
0
VERTEX
8
CUT
10
57.5632
20
273.5435
0
VERTEX
8
CUT
10
57.4391
20
273.5747
0
VERTEX
8
CUT
10
57.3364
20
273.6148
0
VERTEX
8
CUT
10
57.0917
20
273.6961
0
VERTEX
8
CUT
10
56.8399
20
273.7518
0
VERTEX
8
CUT
10
56.5837
20
273.7813
0
VERTEX
8
CUT
10
56.5122
20
273.7858
0
VERTEX
8
CUT
10
56.2998
20
273.7901
0
VERTEX
8
CUT
10
55.4121
20
273.7705
0
VERTEX
8
CUT
10
55.1595
20
273.7520
0
VERTEX
8
CUT
10
55.1434
20
273.7492
0
VERTEX
8
CUT
10
54.9095
20
273.7096
0
VERTEX
8
CUT
10
54.6689
20
273.6437
0
VERTEX
8
CUT
10
54.4360
20
273.5541
0
VERTEX
8
CUT
10
53.2599
20
273.0327
0
VERTEX
8
CUT
10
53.0519
20
272.9287
0
VERTEX
8
CUT
10
52.8545
20
272.8058
0
VERTEX
8
CUT
10
52.6694
20
272.6651
0
VERTEX
8
CUT
10
52.6413
20
272.6394
0
VERTEX
8
CUT
10
52.6076
20
272.6134
0
VERTEX
8
CUT
10
52.4402
20
272.4586
0
VERTEX
8
CUT
10
51.2712
20
271.2734
0
VERTEX
8
CUT
10
51.2695
20
271.2717
0
VERTEX
8
CUT
10
51.2468
20
271.2464
0
VERTEX
8
CUT
10
51.2051
20
271.2044
0
VERTEX
8
CUT
10
51.0402
20
271.0209
0
VERTEX
8
CUT
10
50.8942
20
270.8220
0
VERTEX
8
CUT
10
50.7685
20
270.6097
0
VERTEX
8
CUT
10
50.6644
20
270.3860
0
VERTEX
8
CUT
10
50.3685
20
269.6589
0
VERTEX
8
CUT
10
50.2846
20
269.4181
0
VERTEX
8
CUT
10
50.2256
20
269.1700
0
VERTEX
8
CUT
10
50.1838
20
268.9433
0
VERTEX
8
CUT
10
50.1515
20
268.7037
0
VERTEX
8
CUT
10
50.1425
20
268.4622
0
VERTEX
8
CUT
10
50.1525
20
268.2935
0
VERTEX
8
CUT
10
50.1509
20
268.2563
0
SEQEND
0
POLYLINE
8
CUT
66
1
70
1
10
0.0
20
0.0
30
0.0
0
VERTEX
8
CUT
10
51.6106
20
77.0487
0
VERTEX
8
CUT
10
51.8353
20
77.0183
0
VERTEX
8
CUT
10
52.0618
20
77.0085
0
VERTEX
8
CUT
10
52.4907
20
77.0092
0
VERTEX
8
CUT
10
52.7392
20
77.0220
0
VERTEX
8
CUT
10
52.9852
20
77.0595
0
VERTEX
8
CUT
10
53.2262
20
77.1212
0
VERTEX
8
CUT
10
53.4599
20
77.2065
0
VERTEX
8
CUT
10
53.6840
20
77.3147
0
VERTEX
8
CUT
10
53.8962
20
77.4446
0
VERTEX
8
CUT
10
54.0944
20
77.5950
0
VERTEX
8
CUT
10
54.2767
20
77.7643
0
VERTEX
8
CUT
10
54.4141
20
77.9052
0
VERTEX
8
CUT
10
54.5850
20
78.0999
0
VERTEX
8
CUT
10
54.7349
20
78.3111
0
VERTEX
8
CUT
10
54.8621
20
78.5368
0
VERTEX
8
CUT
10
55.0014
20
78.8168
0
VERTEX
8
CUT
10
55.0944
20
79.0278
0
VERTEX
8
CUT
10
55.1677
20
79.2464
0
VERTEX
8
CUT
10
55.2204
20
79.4708
0
VERTEX
8
CUT
10
55.2523
20
79.6991
0
VERTEX
8
CUT
10
55.2630
20
79.9294
0
VERTEX
8
CUT
10
55.2631
20
80.2319
0
VERTEX
8
CUT
10
55.2525
20
80.4622
0
VERTEX
8
CUT
10
55.2208
20
80.6906
0
VERTEX
8
CUT
10
55.1681
20
80.9151
0
VERTEX
8
CUT
10
55.0950
20
81.1338
0
VERTEX
8
CUT
10
55.0021
20
81.3448
0
VERTEX
8
CUT
10
54.8622
20
81.6264
0
VERTEX
8
CUT
10
54.7492
20
81.8297
0
VERTEX
8
CUT
10
54.6177
20
82.0215
0
VERTEX
8
CUT
10
54.4690
20
82.2004
0
VERTEX
8
CUT
10
54.3043
20
82.3646
0
VERTEX
8
CUT
10
54.1250
20
82.5128
0
VERTEX
8
CUT
10
53.9328
20
82.6438
0
VERTEX
8
CUT
10
53.7292
20
82.7563
0
VERTEX
8
CUT
10
53.4552
20
82.8914
0
VERTEX
8
CUT
10
53.2455
20
82.9832
0
VERTEX
8
CUT
10
53.0283
20
83.0554
0
VERTEX
8
CUT
10
52.8054
20
83.1074
0
VERTEX
8
CUT
10
52.5786
20
83.1388
0
VERTEX
8
CUT
10
52.3500
20
83.1494
0
VERTEX
8
CUT
10
52.0432
20
83.1495
0
VERTEX
8
CUT
10
51.8896
20
83.1424
0
VERTEX
8
CUT
10
51.8128
20
83.1389
0
VERTEX
8
CUT
10
51.7944
20
83.1363
0
VERTEX
8
CUT
10
51.5844
20
83.1072
0
VERTEX
8
CUT
10
51.3600
20
83.0545
0
VERTEX
8
CUT
10
51.3590
20
83.0542
0
VERTEX
8
CUT
10
51.1413
20
82.9814
0
VERTEX
8
CUT
10
50.9302
20
82.8885
0
VERTEX
8
CUT
10
50.6519
20
82.7502
0
VERTEX
8
CUT
10
50.6487
20
82.7486
0
VERTEX
8
CUT
10
50.4454
20
82.6355
0
VERTEX
8
CUT
10
50.2535
20
82.5041
0
VERTEX
8
CUT
10
50.0747
20
82.3554
0
VERTEX
8
CUT
10
49.9104
20
82.1907
0
VERTEX
8
CUT
10
49.7622
20
82.0114
0
VERTEX
8
CUT
10
49.6313
20
81.8192
0
VERTEX
8
CUT
10
49.5188
20
81.6156
0
VERTEX
8
CUT
10
49.3882
20
81.3508
0
VERTEX
8
CUT
10
49.2951
20
81.1378
0
VERTEX
8
CUT
10
49.2915
20
81.1294
0
VERTEX
8
CUT
10
49.2190
20
80.9138
0
VERTEX
8
CUT
10
49.1664
20
80.6925
0
VERTEX
8
CUT
10
49.1342
20
80.4673
0
VERTEX
8
CUT
10
49.1226
20
80.2402
0
VERTEX
8
CUT
10
49.1210
20
79.9657
0
VERTEX
8
CUT
10
49.1302
20
79.7364
0
VERTEX
8
CUT
10
49.1604
20
79.5090
0
VERTEX
8
CUT
10
49.2113
20
79.2853
0
VERTEX
8
CUT
10
49.2198
20
79.2594
0
VERTEX
8
CUT
10
49.2319
20
79.2092
0
VERTEX
8
CUT
10
49.3058
20
78.9923
0
VERTEX
8
CUT
10
49.3994
20
78.7830
0
VERTEX
8
CUT
10
49.5270
20
78.5292
0
VERTEX
8
CUT
10
49.6414
20
78.3261
0
VERTEX
8
CUT
10
49.7741
20
78.1345
0
VERTEX
8
CUT
10
49.9241
20
77.9561
0
VERTEX
8
CUT
10
50.0901
20
77.7924
0
VERTEX
8
CUT
10
50.2706
20
77.6450
0
VERTEX
8
CUT
10
50.4641
20
77.5149
0
VERTEX
8
CUT
10
50.6688
20
77.4035
0
VERTEX
8
CUT
10
50.9658
20
77.2593
0
VERTEX
8
CUT
10
51.1741
20
77.1697
0
VERTEX
8
CUT
10
51.3896
20
77.0993
0
SEQEND
0
POLYLINE
8
CUT
66
1
70
1
10
0.0
20
0.0
30
0.0
0
VERTEX
8
CUT
10
36.3685
20
140.2598
0
VERTEX
8
CUT
10
36.5913
20
140.1548
0
VERTEX
8
CUT
10
36.8235
20
140.0722
0
VERTEX
8
CUT
10
37.0627
20
140.0129
0
VERTEX
8
CUT
10
37.3065
20
139.9774
0
VERTEX
8
CUT
10
37.5526
20
139.9661
0
VERTEX
8
CUT
10
37.7738
20
139.9669
0
VERTEX
8
CUT
10
38.3242
20
139.9675
0
VERTEX
8
CUT
10
38.5762
20
139.9805
0
VERTEX
8
CUT
10
38.8255
20
140.0189
0
VERTEX
8
CUT
10
39.0698
20
140.0822
0
VERTEX
8
CUT
10
39.3064
20
140.1697
0
VERTEX
8
CUT
10
39.5329
20
140.2807
0
VERTEX
8
CUT
10
39.7472
20
140.4140
0
VERTEX
8
CUT
10
39.9469
20
140.5681
0
VERTEX
8
CUT
10
40.1300
20
140.7416
0
VERTEX
8
CUT
10
40.2948
20
140.9327
0
VERTEX
8
CUT
10
40.4394
20
141.1394
0
VERTEX
8
CUT
10
40.5625
20
141.3597
0
VERTEX
8
CUT
10
40.5640
20
141.3629
0
VERTEX
8
CUT
10
40.5928
20
141.4100
0
VERTEX
8
CUT
10
40.7003
20
141.6332
0
VERTEX
8
CUT
10
40.7851
20
141.8658
0
VERTEX
8
CUT
10
40.8465
20
142.1057
0
VERTEX
8
CUT
10
40.8839
20
142.3505
0
VERTEX
8
CUT
10
40.8968
20
142.5978
0
VERTEX
8
CUT
10
40.8976
20
142.8586
0
VERTEX
8
CUT
10
40.8881
20
143.0839
0
VERTEX
8
CUT
10
40.8856
20
143.1025
0
VERTEX
8
CUT
10
40.8855
20
143.1046
0
VERTEX
8
CUT
10
40.8779
20
143.1604
0
VERTEX
8
CUT
10
40.8583
20
143.3073
0
VERTEX
8
CUT
10
40.8571
20
143.3127
0
VERTEX
8
CUT
10
40.8548
20
143.3293
0
VERTEX
8
CUT
10
40.8039
20
143.5503
0
VERTEX
8
CUT
10
40.7331
20
143.7658
0
VERTEX
8
CUT
10
40.6432
20
143.9739
0
VERTEX
8
CUT
10
40.4927
20
144.2828
0
VERTEX
8
CUT
10
40.3803
20
144.4885
0
VERTEX
8
CUT
10
40.2490
20
144.6828
0
VERTEX
8
CUT
10
40.1002
20
144.8640
0
VERTEX
8
CUT
10
39.9350
20
145.0304
0
VERTEX
8
CUT
10
39.7549
20
145.1806
0
VERTEX
8
CUT
10
39.5616
20
145.3133
0
VERTEX
8
CUT
10
39.3567
20
145.4272
0
VERTEX
8
CUT
10
39.3534
20
145.4289
0
VERTEX
8
CUT
10
39.0837
20
145.5627
0
VERTEX
8
CUT
10
38.9344
20
145.6276
0
VERTEX
8
CUT
10
38.8538
20
145.6626
0
VERTEX
8
CUT
10
38.8533
20
145.6628
0
VERTEX
8
CUT
10
38.8497
20
145.6644
0
VERTEX
8
CUT
10
38.6158
20
145.7387
0
VERTEX
8
CUT
10
38.6133
20
145.7395
0
VERTEX
8
CUT
10
38.6066
20
145.7416
0
VERTEX
8
CUT
10
38.3569
20
145.7937
0
VERTEX
8
CUT
10
38.1031
20
145.8200
0
VERTEX
8
CUT
10
37.8480
20
145.8203
0
VERTEX
8
CUT
10
37.5942
20
145.7947
0
VERTEX
8
CUT
10
37.3443
20
145.7433
0
VERTEX
8
CUT
10
37.1010
20
145.6667
0
VERTEX
8
CUT
10
36.8667
20
145.5657
0
VERTEX
8
CUT
10
36.7508
20
145.5085
0
VERTEX
8
CUT
10
36.5681
20
145.4206
0
VERTEX
8
CUT
10
36.3389
20
145.2953
0
VERTEX
8
CUT
10
36.3133
20
145.2775
0
VERTEX
8
CUT
10
36.3074
20
145.2742
0
VERTEX
8
CUT
10
36.2655
20
145.2444
0
VERTEX
8
CUT
10
36.1241
20
145.1466
0
VERTEX
8
CUT
10
36.1066
20
145.1316
0
VERTEX
8
CUT
10
36.0907
20
145.1203
0
VERTEX
8
CUT
10
35.9957
20
145.0363
0
VERTEX
8
CUT
10
35.9260
20
144.9764
0
VERTEX
8
CUT
10
35.9012
20
144.9527
0
VERTEX
8
CUT
10
35.8915
20
144.9442
0
VERTEX
8
CUT
10
35.8684
20
144.9215
0
VERTEX
8
CUT
10
35.7342
20
144.7934
0
VERTEX
8
CUT
10
35.6823
20
144.7384
0
VERTEX
8
CUT
10
35.6756
20
144.7318
0
VERTEX
8
CUT
10
35.6719
20
144.7282
0
VERTEX
8
CUT
10
35.6470
20
144.7010
0
VERTEX
8
CUT
10
35.5548
20
144.6033
0
VERTEX
8
CUT
10
35.5415
20
144.5858
0
VERTEX
8
CUT
10
35.4968
20
144.5371
0
VERTEX
8
CUT
10
35.3424
20
144.3289
0
VERTEX
8
CUT
10
35.2104
20
144.1058
0
VERTEX
8
CUT
10
35.1380
20
143.9675
0
VERTEX
8
CUT
10
35.0368
20
143.7494
0
VERTEX
8
CUT
10
34.9571
20
143.5226
0
VERTEX
8
CUT
10
34.8995
20
143.2892
0
VERTEX
8
CUT
10
34.8645
20
143.0513
0
VERTEX
8
CUT
10
34.8526
20
142.8112
0
VERTEX
8
CUT
10
34.8638
20
142.5711
0
VERTEX
8
CUT
10
34.8981
20
142.3331
0
VERTEX
8
CUT
10
34.9550
20
142.0995
0
VERTEX
8
CUT
10
35.0341
20
141.8725
0
VERTEX
8
CUT
10
35.1355
20
141.6212
0
VERTEX
8
CUT
10
35.2410
20
141.3932
0
VERTEX
8
CUT
10
35.3689
20
141.1770
0
VERTEX
8
CUT
10
35.5178
20
140.9748
0
VERTEX
8
CUT
10
35.6862
20
140.7885
0
VERTEX
8
CUT
10
35.6866
20
140.7881
0
VERTEX
8
CUT
10
35.7764
20
140.6983
0
VERTEX
8
CUT
10
35.9590
20
140.5329
0
VERTEX
8
CUT
10
36.1570
20
140.3863
0
SEQEND
0
POLYLINE
8
CUT
66
1
70
1
10
0.0
20
0.0
30
0.0
0
VERTEX
8
CUT
10
22.2368
20
62.3566
0
VERTEX
8
CUT
10
22.3941
20
62.1824
0
VERTEX
8
CUT
10
23.2530
20
61.3172
0
VERTEX
8
CUT
10
23.4514
20
61.1377
0
VERTEX
8
CUT
10
23.6678
20
60.9804
0
VERTEX
8
CUT
10
23.8998
20
60.8471
0
VERTEX
8
CUT
10
24.7739
20
60.4054
0
VERTEX
8
CUT
10
24.9841
20
60.3111
0
VERTEX
8
CUT
10
25.2021
20
60.2365
0
VERTEX
8
CUT
10
25.4260
20
60.1824
0
VERTEX
8
CUT
10
25.6539
20
60.1490
0
VERTEX
8
CUT
10
25.8839
20
60.1368
0
VERTEX
8
CUT
10
26.7533
20
60.1307
0
VERTEX
8
CUT
10
26.9851
20
60.1399
0
VERTEX
8
CUT
10
27.2149
20
60.1704
0
VERTEX
8
CUT
10
27.4410
20
60.2222
0
VERTEX
8
CUT
10
27.6613
20
60.2947
0
VERTEX
8
CUT
10
27.8739
20
60.3872
0
VERTEX
8
CUT
10
28.8139
20
60.8494
0
VERTEX
8
CUT
10
29.0524
20
60.9834
0
VERTEX
8
CUT
10
29.2748
20
61.1426
0
VERTEX
8
CUT
10
29.4785
20
61.3251
0
VERTEX
8
CUT
10
30.0002
20
61.8468
0
VERTEX
8
CUT
10
30.1589
20
62.0212
0
VERTEX
8
CUT
10
30.3005
20
62.2099
0
VERTEX
8
CUT
10
30.4237
20
62.4110
0
VERTEX
8
CUT
10
30.5273
20
62.6229
0
VERTEX
8
CUT
10
31.0356
20
63.7990
0
VERTEX
8
CUT
10
31.1228
20
64.0320
0
VERTEX
8
CUT
10
31.1864
20
64.2726
0
VERTEX
8
CUT
10
31.2258
20
64.5183
0
VERTEX
8
CUT
10
31.2405
20
64.7667
0
VERTEX
8
CUT
10
31.2454
20
65.2727
0
VERTEX
8
CUT
10
31.2334
20
65.5428
0
VERTEX
8
CUT
10
31.1923
20
65.8099
0
VERTEX
8
CUT
10
31.1226
20
66.0711
0
VERTEX
8
CUT
10
30.8416
20
66.9334
0
VERTEX
8
CUT
10
30.7590
20
67.1518
0
VERTEX
8
CUT
10
30.6563
20
67.3616
0
VERTEX
8
CUT
10
30.5345
20
67.5610
0
VERTEX
8
CUT
10
30.3946
20
67.7480
0
VERTEX
8
CUT
10
30.2378
20
67.9212
0
VERTEX
8
CUT
10
29.1697
20
68.9960
0
VERTEX
8
CUT
10
28.9666
20
69.1791
0
VERTEX
8
CUT
10
28.7448
20
69.3389
0
VERTEX
8
CUT
10
28.5069
20
69.4736
0
VERTEX
8
CUT
10
28.1857
20
69.6328
0
VERTEX
8
CUT
10
27.9763
20
69.7249
0
VERTEX
8
CUT
10
27.7593
20
69.7975
0
VERTEX
8
CUT
10
27.5366
20
69.8500
0
VERTEX
8
CUT
10
27.3100
20
69.8819
0
VERTEX
8
CUT
10
27.0815
20
69.8929
0
VERTEX
8
CUT
10
25.6713
20
69.8964
0
VERTEX
8
CUT
10
25.4459
20
69.8868
0
VERTEX
8
CUT
10
25.2223
20
69.8569
0
VERTEX
8
CUT
10
25.0024
20
69.8070
0
VERTEX
8
CUT
10
24.7878
20
69.7374
0
VERTEX
8
CUT
10
24.5803
20
69.6488
0
VERTEX
8
CUT
10
23.6346
20
69.1934
0
VERTEX
8
CUT
10
23.3936
20
69.0605
0
VERTEX
8
CUT
10
23.1687
20
68.9020
0
VERTEX
8
CUT
10
22.9626
20
68.7196
0
VERTEX
8
CUT
10
22.6719
20
68.4325
0
VERTEX
8
CUT
10
22.4903
20
68.2326
0
VERTEX
8
CUT
10
22.3313
20
68.0143
0
VERTEX
8
CUT
10
22.1968
20
67.7802
0
VERTEX
8
CUT
10
21.4589
20
66.3180
0
VERTEX
8
CUT
10
21.3648
20
66.1081
0
VERTEX
8
CUT
10
21.2904
20
65.8904
0
VERTEX
8
CUT
10
21.2364
20
65.6668
0
VERTEX
8
CUT
10
21.2031
20
65.4392
0
VERTEX
8
CUT
10
21.1909
20
65.2094
0
VERTEX
8
CUT
10
21.1899
20
65.0745
0
VERTEX
8
CUT
10
21.2014
20
64.8166
0
VERTEX
8
CUT
10
21.2394
20
64.5613
0
VERTEX
8
CUT
10
21.3036
20
64.3112
0
VERTEX
8
CUT
10
21.3932
20
64.0692
0
VERTEX
8
CUT
10
21.8718
20
62.9561
0
VERTEX
8
CUT
10
21.9745
20
62.7451
0
VERTEX
8
CUT
10
22.0965
20
62.5447
0
SEQEND
0
POLYLINE
8
CUT
66
1
70
1
10
0.0
20
0.0
30
0.0
0
VERTEX
8
CUT
10
22.1148
20
155.5623
0
VERTEX
8
CUT
10
22.3718
20
155.5076
0
VERTEX
8
CUT
10
22.6332
20
155.4802
0
VERTEX
8
CUT
10
23.2782
20
155.4466
0
VERTEX
8
CUT
10
23.2951
20
155.4454
0
VERTEX
8
CUT
10
23.3303
20
155.4405
0
VERTEX
8
CUT
10
23.4362
20
155.4161
0
VERTEX
8
CUT
10
23.4366
20
155.4180
0
VERTEX
8
CUT
10
23.5958
20
155.3825
0
VERTEX
8
CUT
10
23.8435
20
155.3527
0
VERTEX
8
CUT
10
24.0930
20
155.3478
0
VERTEX
8
CUT
10
24.3418
20
155.3677
0
VERTEX
8
CUT
10
24.5873
20
155.4124
0
VERTEX
8
CUT
10
24.7001
20
155.4388
0
VERTEX
8
CUT
10
24.7332
20
155.4433
0
VERTEX
8
CUT
10
24.7506
20
155.4446
0
VERTEX
8
CUT
10
25.3987
20
155.4752
0
VERTEX
8
CUT
10
25.6506
20
155.4999
0
VERTEX
8
CUT
10
25.8987
20
155.5500
0
VERTEX
8
CUT
10
26.1404
20
155.6249
0
VERTEX
8
CUT
10
26.3733
20
155.7238
0
VERTEX
8
CUT
10
27.0063
20
156.0314
0
VERTEX
8
CUT
10
27.2148
20
156.1453
0
VERTEX
8
CUT
10
27.5498
20
156.3495
0
VERTEX
8
CUT
10
27.7940
20
156.5191
0
VERTEX
8
CUT
10
28.0164
20
156.7164
0
VERTEX
8
CUT
10
28.6938
20
157.3939
0
VERTEX
8
CUT
10
28.8596
20
157.5769
0
VERTEX
8
CUT
10
29.0065
20
157.7753
0
VERTEX
8
CUT
10
29.1331
20
157.9873
0
VERTEX
8
CUT
10
29.7989
20
159.2386
0
VERTEX
8
CUT
10
29.8999
20
159.4521
0
VERTEX
8
CUT
10
29.9803
20
159.6742
0
VERTEX
8
CUT
10
30.0393
20
159.9028
0
VERTEX
8
CUT
10
30.2207
20
160.7731
0
VERTEX
8
CUT
10
30.2628
20
161.0540
0
VERTEX
8
CUT
10
30.2728
20
161.3380
0
VERTEX
8
CUT
10
30.2582
20
162.0023
0
VERTEX
8
CUT
10
30.2419
20
162.2380
0
VERTEX
8
CUT
10
30.2034
20
162.4711
0
VERTEX
8
CUT
10
30.1431
20
162.6996
0
VERTEX
8
CUT
10
29.7487
20
163.9499
0
VERTEX
8
CUT
10
29.6423
20
164.2282
0
VERTEX
8
CUT
10
29.5036
20
164.4919
0
VERTEX
8
CUT
10
28.9415
20
165.4211
0
VERTEX
8
CUT
10
28.7758
20
165.6621
0
VERTEX
8
CUT
10
28.5830
20
165.8821
0
VERTEX
8
CUT
10
28.2515
20
166.2184
0
VERTEX
8
CUT
10
28.0882
20
166.3700
0
VERTEX
8
CUT
10
27.9120
20
166.5064
0
VERTEX
8
CUT
10
27.7244
20
166.6266
0
VERTEX
8
CUT
10
26.2229
20
167.4967
0
VERTEX
8
CUT
10
26.0098
20
167.6069
0
VERTEX
8
CUT
10
25.7871
20
167.6962
0
VERTEX
8
CUT
10
25.5570
20
167.7636
0
VERTEX
8
CUT
10
24.9777
20
167.9037
0
VERTEX
8
CUT
10
24.6821
20
167.9566
0
VERTEX
8
CUT
10
24.3822
20
167.9737
0
VERTEX
8
CUT
10
23.6193
20
167.9713
0
VERTEX
8
CUT
10
23.3222
20
167.9526
0
VERTEX
8
CUT
10
23.0295
20
167.8988
0
VERTEX
8
CUT
10
22.3833
20
167.7396
0
VERTEX
8
CUT
10
22.1090
20
167.6551
0
VERTEX
8
CUT
10
21.8463
20
167.5397
0
VERTEX
8
CUT
10
20.7648
20
166.9888
0
VERTEX
8
CUT
10
20.5395
20
166.8588
0
VERTEX
8
CUT
10
20.3288
20
166.7060
0
VERTEX
8
CUT
10
20.1352
20
166.5322
0
VERTEX
8
CUT
10
19.0769
20
165.4778
0
VERTEX
8
CUT
10
18.7242
20
165.1264
0
VERTEX
8
CUT
10
18.5651
20
164.9521
0
VERTEX
8
CUT
10
18.4231
20
164.7637
0
VERTEX
8
CUT
10
18.2995
20
164.5627
0
VERTEX
8
CUT
10
18.1955
20
164.3509
0
VERTEX
8
CUT
10
17.7136
20
163.2410
0
VERTEX
8
CUT
10
17.7110
20
163.2350
0
VERTEX
8
CUT
10
17.7093
20
163.2311
0
VERTEX
8
CUT
10
17.6201
20
162.9933
0
VERTEX
8
CUT
10
17.5556
20
162.7477
0
VERTEX
8
CUT
10
17.5162
20
162.4968
0
VERTEX
8
CUT
10
17.5025
20
162.2433
0
VERTEX
8
CUT
10
17.4988
20
161.0453
0
VERTEX
8
CUT
10
17.5089
20
160.8131
0
VERTEX
8
CUT
10
17.5405
20
160.5829
0
VERTEX
8
CUT
10
17.5451
20
160.5632
0
VERTEX
8
CUT
10
17.5479
20
160.5432
0
VERTEX
8
CUT
10
17.6017
20
160.3167
0
VERTEX
8
CUT
10
17.6094
20
160.2940
0
VERTEX
8
CUT
10
17.6132
20
160.2783
0
VERTEX
8
CUT
10
17.6882
20
160.0591
0
VERTEX
8
CUT
10
17.7832
20
159.8477
0
VERTEX
8
CUT
10
18.4862
20
158.4596
0
VERTEX
8
CUT
10
18.6172
20
158.2315
0
VERTEX
8
CUT
10
18.7715
20
158.0184
0
VERTEX
8
CUT
10
18.9473
20
157.8228
0
VERTEX
8
CUT
10
18.9498
20
157.8203
0
VERTEX
8
CUT
10
18.9537
20
157.8164
0
VERTEX
8
CUT
10
19.5485
20
157.2207
0
VERTEX
8
CUT
10
20.1017
20
156.6666
0
VERTEX
8
CUT
10
20.2956
20
156.4917
0
VERTEX
8
CUT
10
20.5067
20
156.3380
0
VERTEX
8
CUT
10
20.7326
20
156.2071
0
VERTEX
8
CUT
10
21.6249
20
155.7509
0
VERTEX
8
CUT
10
21.8649
20
155.6437
0
SEQEND
0
POLYLINE
8
CUT
66
1
70
1
10
0.0
20
0.0
30
0.0
0
VERTEX
8
CUT
10
22.1704
20
197.8890
0
VERTEX
8
CUT
10
22.4799
20
197.7335
0
VERTEX
8
CUT
10
22.4809
20
197.7329
0
VERTEX
8
CUT
10
22.5312
20
197.7104
0
VERTEX
8
CUT
10
22.6867
20
197.6409
0
VERTEX
8
CUT
10
22.7878
20
197.6062
0
VERTEX
8
CUT
10
22.8999
20
197.5677
0
VERTEX
8
CUT
10
23.0618
20
197.5281
0
VERTEX
8
CUT
10
23.1189
20
197.5141
0
VERTEX
8
CUT
10
23.3418
20
197.4804
0
VERTEX
8
CUT
10
23.5669
20
197.4669
0
VERTEX
8
CUT
10
23.7609
20
197.4641
0
VERTEX
8
CUT
10
23.9823
20
197.4706
0
VERTEX
8
CUT
10
23.9878
20
197.4713
0
VERTEX
8
CUT
10
23.9935
20
197.4714
0
VERTEX
8
CUT
10
24.2145
20
197.4980
0
VERTEX
8
CUT
10
24.4323
20
197.5442
0
VERTEX
8
CUT
10
24.6451
20
197.6095
0
VERTEX
8
CUT
10
24.8512
20
197.6936
0
VERTEX
8
CUT
10
25.2375
20
197.8714
0
VERTEX
8
CUT
10
25.4427
20
197.9804
0
VERTEX
8
CUT
10
25.4896
20
198.0050
0
VERTEX
8
CUT
10
25.7197
20
198.1608
0
VERTEX
8
CUT
10
25.9311
20
198.3412
0
VERTEX
8
CUT
10
26.1233
20
198.5246
0
VERTEX
8
CUT
10
26.2915
20
198.7017
0
VERTEX
8
CUT
10
26.4417
20
198.8943
0
VERTEX
8
CUT
10
26.5724
20
199.1007
0
VERTEX
8
CUT
10
26.6275
20
199.1981
0
VERTEX
8
CUT
10
26.7323
20
199.4047
0
VERTEX
8
CUT
10
26.8174
20
199.6201
0
VERTEX
8
CUT
10
26.8823
20
199.8424
0
VERTEX
8
CUT
10
26.9115
20
199.9630
0
VERTEX
8
CUT
10
26.9566
20
200.1982
0
VERTEX
8
CUT
10
26.9790
20
200.4366
0
VERTEX
8
CUT
10
26.9785
20
200.6761
0
VERTEX
8
CUT
10
26.9551
20
200.9144
0
VERTEX
8
CUT
10
26.9445
20
200.9686
0
VERTEX
8
CUT
10
26.9396
20
201.0105
0
VERTEX
8
CUT
10
26.8906
20
201.2396
0
VERTEX
8
CUT
10
26.8203
20
201.4632
0
VERTEX
8
CUT
10
26.7295
20
201.6791
0
VERTEX
8
CUT
10
26.4141
20
202.3401
0
VERTEX
8
CUT
10
26.3020
20
202.5489
0
VERTEX
8
CUT
10
26.1707
20
202.7462
0
VERTEX
8
CUT
10
26.0213
20
202.9302
0
VERTEX
8
CUT
10
25.8551
20
203.0992
0
VERTEX
8
CUT
10
25.6736
20
203.2517
0
VERTEX
8
CUT
10
25.4785
20
203.3863
0
VERTEX
8
CUT
10
25.2716
20
203.5018
0
VERTEX
8
CUT
10
24.9889
20
203.6425
0
VERTEX
8
CUT
10
24.7839
20
203.7333
0
VERTEX
8
CUT
10
24.5716
20
203.8054
0
VERTEX
8
CUT
10
24.3537
20
203.8581
0
VERTEX
8
CUT
10
24.1319
20
203.8911
0
VERTEX
8
CUT
10
24.1025
20
203.8928
0
VERTEX
8
CUT
10
23.9045
20
203.9045
0
VERTEX
8
CUT
10
23.4858
20
203.9103
0
VERTEX
8
CUT
10
23.2353
20
203.9011
0
VERTEX
8
CUT
10
22.9871
20
203.8670
0
VERTEX
8
CUT
10
22.7435
20
203.8082
0
VERTEX
8
CUT
10
22.5070
20
203.7253
0
VERTEX
8
CUT
10
22.2800
20
203.6191
0
VERTEX
8
CUT
10
22.0648
20
203.4907
0
VERTEX
8
CUT
10
21.8635
20
203.3415
0
VERTEX
8
CUT
10
21.6782
20
203.1728
0
VERTEX
8
CUT
10
21.6776
20
203.1722
0
VERTEX
8
CUT
10
21.2470
20
202.7389
0
VERTEX
8
CUT
10
21.2229
20
202.7120
0
VERTEX
8
CUT
10
21.0739
20
202.5456
0
VERTEX
8
CUT
10
20.9217
20
202.3354
0
VERTEX
8
CUT
10
20.8858
20
202.2731
0
VERTEX
8
CUT
10
20.7922
20
202.1106
0
VERTEX
8
CUT
10
20.6853
20
201.9006
0
VERTEX
8
CUT
10
20.6835
20
201.8970
0
VERTEX
8
CUT
10
20.6829
20
201.8959
0
VERTEX
8
CUT
10
20.5855
20
201.6797
0
VERTEX
8
CUT
10
20.5090
20
201.4554
0
VERTEX
8
CUT
10
20.4541
20
201.2248
0
VERTEX
8
CUT
10
20.4213
20
200.9900
0
VERTEX
8
CUT
10
20.4109
20
200.7532
0
VERTEX
8
CUT
10
20.4230
20
200.5165
0
VERTEX
8
CUT
10
20.4574
20
200.2820
0
VERTEX
8
CUT
10
20.5139
20
200.0517
0
VERTEX
8
CUT
10
20.5919
20
199.8279
0
VERTEX
8
CUT
10
20.7634
20
199.4022
0
VERTEX
8
CUT
10
20.8672
20
199.1773
0
VERTEX
8
CUT
10
20.9926
20
198.9639
0
VERTEX
8
CUT
10
21.1386
20
198.7639
0
VERTEX
8
CUT
10
21.3037
20
198.5793
0
VERTEX
8
CUT
10
21.3046
20
198.5784
0
VERTEX
8
CUT
10
21.3075
20
198.5755
0
VERTEX
8
CUT
10
21.5145
20
198.3659
0
VERTEX
8
CUT
10
21.7154
20
198.1835
0
VERTEX
8
CUT
10
21.9349
20
198.0239
0
SEQEND
0
ENDSEC
0
EOF
