0
SECTION
2
HEADER
9
$ACADVER
1
AC1009
9
$INSUNITS
70
4
0
ENDSEC
0
SECTION
2
TABLES
0
TABLE
2
LAYER
70
1
0
LAYER
2
CUT
70
0
62
7
6
CONTINUOUS
0
ENDTAB
0
ENDSEC
0
SECTION
2
ENTITIES
0
POLYLINE
8
CUT
66
1
70
1
10
0.0
20
0.0
30
0.0
0
VERTEX
8
CUT
10
297.9854
20
300.1200
0
VERTEX
8
CUT
10
298.1414
20
300.0963
0
VERTEX
8
CUT
10
298.1668
20
300.0901
0
VERTEX
8
CUT
10
298.2608
20
300.0666
0
VERTEX
8
CUT
10
298.3790
20
300.0362
0
VERTEX
8
CUT
10
298.4143
20
300.0239
0
VERTEX
8
CUT
10
298.5003
20
299.9931
0
VERTEX
8
CUT
10
298.5116
20
299.9890
0
VERTEX
8
CUT
10
298.6097
20
299.9530
0
VERTEX
8
CUT
10
298.6482
20
299.9353
0
VERTEX
8
CUT
10
298.6611
20
299.9292
0
VERTEX
8
CUT
10
298.6749
20
299.9226
0
VERTEX
8
CUT
10
298.6878
20
299.9165
0
VERTEX
8
CUT
10
298.7091
20
299.9065
0
VERTEX
8
CUT
10
298.7146
20
299.9039
0
VERTEX
8
CUT
10
298.7181
20
299.9022
0
VERTEX
8
CUT
10
298.7267
20
299.8981
0
VERTEX
8
CUT
10
298.7465
20
299.8888
0
VERTEX
8
CUT
10
298.8310
20
299.8476
0
VERTEX
8
CUT
10
298.8697
20
299.8251
0
VERTEX
8
CUT
10
298.9428
20
299.7813
0
VERTEX
8
CUT
10
298.9670
20
299.7668
0
VERTEX
8
CUT
10
299.0410
20
299.7210
0
VERTEX
8
CUT
10
299.0781
20
299.6944
0
VERTEX
8
CUT
10
299.0816
20
299.6918
0
VERTEX
8
CUT
10
299.0856
20
299.6888
0
VERTEX
8
CUT
10
299.0864
20
299.6882
0
VERTEX
8
CUT
10
299.0978
20
299.6798
0
VERTEX
8
CUT
10
299.1045
20
299.6748
0
VERTEX
8
CUT
10
299.1129
20
299.6686
0
VERTEX
8
CUT
10
299.1197
20
299.6635
0
VERTEX
8
CUT
10
299.1251
20
299.6595
0
VERTEX
8
CUT
10
299.1466
20
299.6436
0
VERTEX
8
CUT
10
299.1727
20
299.6242
0
VERTEX
8
CUT
10
299.2376
20
299.5745
0
VERTEX
8
CUT
10
299.2720
20
299.5443
0
VERTEX
8
CUT
10
299.3126
20
299.5076
0
VERTEX
8
CUT
10
299.3360
20
299.4863
0
VERTEX
8
CUT
10
299.3622
20
299.4625
0
VERTEX
8
CUT
10
299.4188
20
299.4093
0
VERTEX
8
CUT
10
299.4499
20
299.3763
0
VERTEX
8
CUT
10
299.5093
20
299.3109
0
VERTEX
8
CUT
10
299.5342
20
299.2833
0
VERTEX
8
CUT
10
299.5830
20
299.2271
0
VERTEX
8
CUT
10
299.6104
20
299.1919
0
VERTEX
8
CUT
10
299.6400
20
299.1519
0
VERTEX
8
CUT
10
299.6596
20
299.1256
0
VERTEX
8
CUT
10
299.6604
20
299.1244
0
VERTEX
8
CUT
10
299.6632
20
299.1206
0
VERTEX
8
CUT
10
299.6644
20
299.1191
0
VERTEX
8
CUT
10
299.6645
20
299.1189
0
VERTEX
8
CUT
10
299.6647
20
299.1186
0
VERTEX
8
CUT
10
299.6873
20
299.0882
0
VERTEX
8
CUT
10
299.7286
20
299.0297
0
VERTEX
8
CUT
10
299.7519
20
298.9929
0
VERTEX
8
CUT
10
299.8008
20
298.9112
0
VERTEX
8
CUT
10
299.8200
20
298.8793
0
VERTEX
8
CUT
10
299.8541
20
298.8188
0
VERTEX
8
CUT
10
299.8732
20
298.7811
0
VERTEX
8
CUT
10
299.9163
20
298.6899
0
VERTEX
8
CUT
10
299.9312
20
298.6585
0
VERTEX
8
CUT
10
299.9584
20
298.5965
0
VERTEX
8
CUT
10
299.9732
20
298.5586
0
VERTEX
8
CUT
10
300.0101
20
298.4555
0
VERTEX
8
CUT
10
300.0199
20
298.4280
0
VERTEX
8
CUT
10
300.0404
20
298.3647
0
VERTEX
8
CUT
10
300.0510
20
298.3274
0
VERTEX
8
CUT
10
300.0726
20
298.2413
0
VERTEX
8
CUT
10
300.0761
20
298.2272
0
VERTEX
8
CUT
10
300.0771
20
298.2230
0
VERTEX
8
CUT
10
300.0784
20
298.2179
0
VERTEX
8
CUT
10
300.0812
20
298.2067
0
VERTEX
8
CUT
10
300.0854
20
298.1901
0
VERTEX
8
CUT
10
300.0992
20
298.1258
0
VERTEX
8
CUT
10
300.1058
20
298.0897
0
VERTEX
8
CUT
10
300.1107
20
298.0565
0
VERTEX
8
CUT
10
300.1167
20
298.0164
0
VERTEX
8
CUT
10
300.1202
20
297.9927
0
VERTEX
8
CUT
10
300.1250
20
297.9603
0
VERTEX
8
CUT
10
300.1253
20
297.9587
0
VERTEX
8
CUT
10
300.1270
20
297.9470
0
VERTEX
8
CUT
10
300.1343
20
297.8817
0
VERTEX
8
CUT
10
300.1372
20
297.8479
0
VERTEX
8
CUT
10
300.1500
20
297.5872
0
VERTEX
8
CUT
10
300.1500
20
297.0119
0
VERTEX
8
CUT
10
300.1500
20
297.0101
0
VERTEX
8
CUT
10
300.1500
20
2.4114
0
VERTEX
8
CUT
10
300.1405
20
2.2186
0
VERTEX
8
CUT
10
300.1348
20
2.1042
0
VERTEX
8
CUT
10
300.1156
20
1.9747
0
VERTEX
8
CUT
10
300.0988
20
1.8619
0
VERTEX
8
CUT
10
300.0907
20
1.8295
0
VERTEX
8
CUT
10
300.0898
20
1.8259
0
VERTEX
8
CUT
10
300.0883
20
1.8202
0
VERTEX
8
CUT
10
300.0845
20
1.8049
0
VERTEX
8
CUT
10
300.0839
20
1.8024
0
VERTEX
8
CUT
10
300.0834
20
1.8004
0
VERTEX
8
CUT
10
300.0668
20
1.7343
0
VERTEX
8
CUT
10
300.0467
20
1.6545
0
VERTEX
8
CUT
10
300.0392
20
1.6243
0
VERTEX
8
CUT
10
299.9946
20
1.4997
0
VERTEX
8
CUT
10
299.9566
20
1.3937
0
VERTEX
8
CUT
10
299.9565
20
1.3935
0
VERTEX
8
CUT
10
299.9562
20
1.3930
0
VERTEX
8
CUT
10
299.9246
20
1.3260
0
VERTEX
8
CUT
10
299.9164
20
1.3088
0
VERTEX
8
CUT
10
299.9104
20
1.2961
0
VERTEX
8
CUT
10
299.8996
20
1.2733
0
VERTEX
8
CUT
10
299.8518
20
1.1723
0
VERTEX
8
CUT
10
299.8125
20
1.1068
0
VERTEX
8
CUT
10
299.8112
20
1.1046
0
VERTEX
8
CUT
10
299.7828
20
1.0572
0
VERTEX
8
CUT
10
299.7494
20
1.0016
0
VERTEX
8
CUT
10
299.7258
20
0.9622
0
VERTEX
8
CUT
10
299.6451
20
0.8534
0
VERTEX
8
CUT
10
299.6303
20
0.8335
0
VERTEX
8
CUT
10
299.5798
20
0.7655
0
VERTEX
8
CUT
10
299.5510
20
0.7337
0
VERTEX
8
CUT
10
299.5316
20
0.7123
0
VERTEX
8
CUT
10
299.5125
20
0.6913
0
VERTEX
8
CUT
10
299.5119
20
0.6906
0
VERTEX
8
CUT
10
299.4974
20
0.6746
0
VERTEX
8
CUT
10
299.4878
20
0.6640
0
VERTEX
8
CUT
10
299.4152
20
0.5840
0
VERTEX
8
CUT
10
299.3123
20
0.4907
0
VERTEX
8
CUT
10
299.2337
20
0.4195
0
VERTEX
8
CUT
10
299.1756
20
0.3764
0
VERTEX
8
CUT
10
299.1664
20
0.3696
0
VERTEX
8
CUT
10
299.1570
20
0.3626
0
VERTEX
8
CUT
10
299.1201
20
0.3353
0
VERTEX
8
CUT
10
299.0369
20
0.2736
0
VERTEX
8
CUT
10
298.9127
20
0.1992
0
VERTEX
8
CUT
10
298.8447
20
0.1585
0
VERTEX
8
CUT
10
298.8268
20
0.1477
0
VERTEX
8
CUT
10
298.6914
20
0.0837
0
VERTEX
8
CUT
10
298.6053
20
0.0430
0
VERTEX
8
CUT
10
298.4570
20
-0.0101
0
VERTEX
8
CUT
10
298.4157
20
-0.0248
0
VERTEX
8
CUT
10
298.3747
20
-0.0395
0
VERTEX
8
CUT
10
298.3087
20
-0.0560
0
VERTEX
8
CUT
10
298.2991
20
-0.0584
0
VERTEX
8
CUT
10
298.2974
20
-0.0589
0
VERTEX
8
CUT
10
298.2707
20
-0.0656
0
VERTEX
8
CUT
10
298.2498
20
-0.0708
0
VERTEX
8
CUT
10
298.2082
20
-0.0812
0
VERTEX
8
CUT
10
298.1370
20
-0.0990
0
VERTEX
8
CUT
10
297.9350
20
-0.1290
0
VERTEX
8
CUT
10
297.8947
20
-0.1350
0
VERTEX
8
CUT
10
297.5886
20
-0.1500
0
VERTEX
8
CUT
10
297.0775
20
-0.1500
0
VERTEX
8
CUT
10
297.0696
20
-0.1500
0
VERTEX
8
CUT
10
3.0000
20
-0.1500
0
VERTEX
8
CUT
10
2.4114
20
-0.1500
0
VERTEX
8
CUT
10
2.2197
20
-0.1406
0
VERTEX
8
CUT
10
2.1053
20
-0.1350
0
VERTEX
8
CUT
10
1.9757
20
-0.1157
0
VERTEX
8
CUT
10
1.8629
20
-0.0990
0
VERTEX
8
CUT
10
1.7352
20
-0.0670
0
VERTEX
8
CUT
10
1.6252
20
-0.0395
0
VERTEX
8
CUT
10
1.5006
20
0.0051
0
VERTEX
8
CUT
10
1.3944
20
0.0431
0
VERTEX
8
CUT
10
1.2740
20
0.1000
0
VERTEX
8
CUT
10
1.1729
20
0.1479
0
VERTEX
8
CUT
10
1.0578
20
0.2169
0
VERTEX
8
CUT
10
0.9627
20
0.2738
0
VERTEX
8
CUT
10
0.8540
20
0.3545
0
VERTEX
8
CUT
10
0.7659
20
0.4198
0
VERTEX
8
CUT
10
0.6645
20
0.5118
0
VERTEX
8
CUT
10
0.5844
20
0.5844
0
VERTEX
8
CUT
10
0.4911
20
0.6873
0
VERTEX
8
CUT
10
0.4198
20
0.7659
0
VERTEX
8
CUT
10
0.3356
20
0.8795
0
VERTEX
8
CUT
10
0.2738
20
0.9627
0
VERTEX
8
CUT
10
0.1994
20
1.0870
0
VERTEX
8
CUT
10
0.1479
20
1.1729
0
VERTEX
8
CUT
10
0.0838
20
1.3083
0
VERTEX
8
CUT
10
0.0431
20
1.3944
0
VERTEX
8
CUT
10
-0.0100
20
1.5428
0
VERTEX
8
CUT
10
-0.0395
20
1.6252
0
VERTEX
8
CUT
10
-0.0812
20
1.7916
0
VERTEX
8
CUT
10
-0.0990
20
1.8629
0
VERTEX
8
CUT
10
-0.1350
20
2.1053
0
VERTEX
8
CUT
10
-0.1500
20
2.4114
0
VERTEX
8
CUT
10
-0.1500
20
297.5872
0
VERTEX
8
CUT
10
-0.1350
20
297.8933
0
VERTEX
8
CUT
10
-0.0990
20
298.1357
0
VERTEX
8
CUT
10
-0.0395
20
298.3734
0
VERTEX
8
CUT
10
0.0431
20
298.6041
0
VERTEX
8
CUT
10
0.1479
20
298.8256
0
VERTEX
8
CUT
10
0.2738
20
299.0358
0
VERTEX
8
CUT
10
0.4198
20
299.2326
0
VERTEX
8
CUT
10
0.5844
20
299.4142
0
VERTEX
8
CUT
10
0.7659
20
299.5787
0
VERTEX
8
CUT
10
0.9627
20
299.7247
0
VERTEX
8
CUT
10
1.1729
20
299.8507
0
VERTEX
8
CUT
10
1.3944
20
299.9554
0
VERTEX
8
CUT
10
1.6252
20
300.0380
0
VERTEX
8
CUT
10
1.8629
20
300.0975
0
VERTEX
8
CUT
10
2.1053
20
300.1335
0
VERTEX
8
CUT
10
2.1994
20
300.1381
0
VERTEX
8
CUT
10
2.4114
20
300.1485
0
VERTEX
8
CUT
10
2.9646
20
300.1485
0
VERTEX
8
CUT
10
2.9886
20
300.1485
0
VERTEX
8
CUT
10
297.5886
20
300.1485
0
VERTEX
8
CUT
10
297.7814
20
300.1391
0
VERTEX
8
CUT
10
297.8528
20
300.1355
0
VERTEX
8
CUT
10
297.8584
20
300.1349
0
VERTEX
8
CUT
10
297.8988
20
300.1329
0
SEQEND
0
POLYLINE
8
CUT
66
1
70
1
10
0.0
20
0.0
30
0.0
0
VERTEX
8
CUT
10
30.0457
20
33.7987
0
VERTEX
8
CUT
10
30.1535
20
33.5744
0
VERTEX
8
CUT
10
30.2831
20
33.3620
0
VERTEX
8
CUT
10
30.4332
20
33.1634
0
VERTEX
8
CUT
10
30.6022
20
32.9808
0
VERTEX
8
CUT
10
30.7886
20
32.8159
0
VERTEX
8
CUT
10
30.9904
20
32.6704
0
VERTEX
8
CUT
10
31.2057
20
32.5456
0
VERTEX
8
CUT
10
31.4324
20
32.4429
0
VERTEX
8
CUT
10
31.6681
20
32.3631
0
VERTEX
8
CUT
10
31.9106
20
32.3073
0
VERTEX
8
CUT
10
32.1574
20
32.2758
0
VERTEX
8
CUT
10
32.4062
20
32.2690
0
VERTEX
8
CUT
10
32.6544
20
32.2870
0
VERTEX
8
CUT
10
32.8996
20
32.3295
0
VERTEX
8
CUT
10
33.1393
20
32.3962
0
VERTEX
8
CUT
10
33.3712
20
32.4864
0
VERTEX
8
CUT
10
33.5930
20
32.5993
0
VERTEX
8
CUT
10
33.8025
20
32.7336
0
VERTEX
8
CUT
10
33.9976
20
32.8881
0
VERTEX
8
CUT
10
34.1764
20
33.0612
0
VERTEX
8
CUT
10
34.3370
20
33.2512
0
VERTEX
8
CUT
10
34.4780
20
33.4563
0
VERTEX
8
CUT
10
34.5979
20
33.6743
0
VERTEX
8
CUT
10
34.6955
20
33.9032
0
VERTEX
8
CUT
10
34.7699
20
34.1407
0
VERTEX
8
CUT
10
37.9290
20
46.3201
0
VERTEX
8
CUT
10
37.9589
20
46.4287
0
VERTEX
8
CUT
10
37.9804
20
46.5023
0
VERTEX
8
CUT
10
38.0135
20
46.6099
0
VERTEX
8
CUT
10
39.7288
20
51.8942
0
VERTEX
8
CUT
10
39.7693
20
52.0120
0
VERTEX
8
CUT
10
39.7981
20
52.0917
0
VERTEX
8
CUT
10
39.8424
20
52.2081
0
VERTEX
8
CUT
10
41.6982
20
56.8498
0
VERTEX
8
CUT
10
41.7610
20
56.9976
0
VERTEX
8
CUT
10
41.8058
20
57.0971
0
VERTEX
8
CUT
10
41.8748
20
57.2420
0
VERTEX
8
CUT
10
43.9149
20
61.2983
0
VERTEX
8
CUT
10
43.9924
20
61.4444
0
VERTEX
8
CUT
10
44.0473
20
61.5424
0
VERTEX
8
CUT
10
44.1312
20
61.6850
0
VERTEX
8
CUT
10
46.3232
20
65.2265
0
VERTEX
8
CUT
10
46.4282
20
65.3868
0
VERTEX
8
CUT
10
46.5022
20
65.4938
0
VERTEX
8
CUT
10
46.6153
20
65.6486
0
VERTEX
8
CUT
10
48.9515
20
68.6811
0
VERTEX
8
CUT
10
49.0990
20
68.8606
0
VERTEX
8
CUT
10
49.2028
20
68.9794
0
VERTEX
8
CUT
10
49.3610
20
69.1494
0
VERTEX
8
CUT
10
51.9083
20
71.7225
0
VERTEX
8
CUT
10
52.1043
20
71.9067
0
VERTEX
8
CUT
10
52.2416
20
72.0269
0
VERTEX
8
CUT
10
52.4503
20
72.1966
0
VERTEX
8
CUT
10
56.7472
20
75.4423
0
VERTEX
8
CUT
10
56.8664
20
75.5287
0
VERTEX
8
CUT
10
56.8880
20
75.5437
0
VERTEX
8
CUT
10
57.1360
20
75.7021
0
VERTEX
8
CUT
10
57.1587
20
75.7154
0
VERTEX
8
CUT
10
57.2872
20
75.7872
0
VERTEX
8
CUT
10
60.3342
20
77.4123
0
VERTEX
8
CUT
10
60.4821
20
77.4870
0
VERTEX
8
CUT
10
60.5836
20
77.5355
0
VERTEX
8
CUT
10
60.7346
20
77.6036
0
VERTEX
8
CUT
10
62.2735
20
78.2571
0
VERTEX
8
CUT
10
62.4347
20
78.3213
0
VERTEX
8
CUT
10
62.5453
20
78.3623
0
VERTEX
8
CUT
10
62.7093
20
78.4189
0
VERTEX
8
CUT
10
68.3919
20
80.2331
0
VERTEX
8
CUT
10
68.6041
20
80.2940
0
VERTEX
8
CUT
10
68.7494
20
80.3311
0
VERTEX
8
CUT
10
68.9648
20
80.3795
0
VERTEX
8
CUT
10
71.0307
20
80.7795
0
VERTEX
8
CUT
10
71.2038
20
80.8088
0
VERTEX
8
CUT
10
71.2349
20
80.8133
0
VERTEX
8
CUT
10
71.5561
20
80.8448
0
VERTEX
8
CUT
10
71.8506
20
80.8459
0
VERTEX
8
CUT
10
72.1440
20
80.8195
0
VERTEX
8
CUT
10
72.4335
20
80.7658
0
VERTEX
8
CUT
10
72.7168
20
80.6853
0
VERTEX
8
CUT
10
72.9913
20
80.5786
0
VERTEX
8
CUT
10
73.2546
20
80.4467
0
VERTEX
8
CUT
10
73.5044
20
80.2907
0
VERTEX
8
CUT
10
73.7610
20
80.0949
0
VERTEX
8
CUT
10
73.7850
20
80.0747
0
VERTEX
8
CUT
10
73.9168
20
79.9587
0
VERTEX
8
CUT
10
75.1912
20
78.7823
0
VERTEX
8
CUT
10
75.4160
20
78.5978
0
VERTEX
8
CUT
10
75.6607
20
78.4407
0
VERTEX
8
CUT
10
76.3620
20
78.0460
0
VERTEX
8
CUT
10
76.6037
20
77.9266
0
VERTEX
8
CUT
10
76.8569
20
77.8339
0
VERTEX
8
CUT
10
77.7917
20
77.5479
0
VERTEX
8
CUT
10
77.9869
20
77.4967
0
VERTEX
8
CUT
10
78.1857
20
77.4615
0
VERTEX
8
CUT
10
81.4771
20
77.0132
0
VERTEX
8
CUT
10
81.6376
20
76.9878
0
VERTEX
8
CUT
10
81.6662
20
76.9826
0
VERTEX
8
CUT
10
81.9832
20
76.9111
0
VERTEX
8
CUT
10
82.0113
20
76.9034
0
VERTEX
8
CUT
10
82.1671
20
76.8574
0
VERTEX
8
CUT
10
82.9808
20
76.5979
0
VERTEX
8
CUT
10
83.1895
20
76.5245
0
VERTEX
8
CUT
10
83.2101
20
76.5166
0
VERTEX
8
CUT
10
83.2945
20
76.4602
0
VERTEX
8
CUT
10
83.5129
20
76.3438
0
VERTEX
8
CUT
10
83.9885
20
76.1198
0
VERTEX
8
CUT
10
84.4988
20
75.8106
0
VERTEX
8
CUT
10
84.6699
20
75.7005
0
VERTEX
8
CUT
10
84.6999
20
75.6800
0
VERTEX
8
CUT
10
85.0229
20
75.4328
0
VERTEX
8
CUT
10
85.0505
20
75.4092
0
VERTEX
8
CUT
10
85.2015
20
75.2728
0
VERTEX
8
CUT
10
85.9330
20
74.5750
0
VERTEX
8
CUT
10
86.0668
20
74.4408
0
VERTEX
8
CUT
10
86.0901
20
74.4162
0
VERTEX
8
CUT
10
86.3364
20
74.1284
0
VERTEX
8
CUT
10
86.3571
20
74.1016
0
VERTEX
8
CUT
10
86.4691
20
73.9487
0
VERTEX
8
CUT
10
87.4854
20
72.4847
0
VERTEX
8
CUT
10
87.6090
20
72.2945
0
VERTEX
8
CUT
10
87.6300
20
72.2600
0
VERTEX
8
CUT
10
87.8417
20
71.8591
0
VERTEX
8
CUT
10
87.8584
20
71.8223
0
VERTEX
8
CUT
10
87.9457
20
71.6129
0
VERTEX
8
CUT
10
88.2522
20
70.8102
0
VERTEX
8
CUT
10
88.3137
20
70.6364
0
VERTEX
8
CUT
10
88.3240
20
70.6051
0
VERTEX
8
CUT
10
88.4210
20
70.2495
0
VERTEX
8
CUT
10
88.4281
20
70.2173
0
VERTEX
8
CUT
10
88.4634
20
70.0363
0
VERTEX
8
CUT
10
88.6372
20
69.0119
0
VERTEX
8
CUT
10
88.6995
20
68.1069
0
VERTEX
8
CUT
10
88.6795
20
66.7537
0
VERTEX
8
CUT
10
88.6719
20
66.5653
0
VERTEX
8
CUT
10
88.6697
20
66.5317
0
VERTEX
8
CUT
10
88.6263
20
66.1572
0
VERTEX
8
CUT
10
88.6208
20
66.1240
0
VERTEX
8
CUT
10
88.5850
20
65.9389
0
VERTEX
8
CUT
10
88.2401
20
64.3668
0
VERTEX
8
CUT
10
88.2032
20
64.2143
0
VERTEX
8
CUT
10
88.1961
20
64.1871
0
VERTEX
8
CUT
10
88.1109
20
63.9114
0
VERTEX
8
CUT
10
88.0029
20
63.6439
0
VERTEX
8
CUT
10
87.9914
20
63.6183
0
VERTEX
8
CUT
10
87.9236
20
63.4767
0
VERTEX
8
CUT
10
87.0005
20
61.6463
0
VERTEX
8
CUT
10
86.9193
20
61.4942
0
VERTEX
8
CUT
10
86.9042
20
61.4674
0
VERTEX
8
CUT
10
86.7214
20
61.1752
0
VERTEX
8
CUT
10
86.7039
20
61.1499
0
VERTEX
8
CUT
10
86.6026
20
61.0104
0
VERTEX
8
CUT
10
82.6803
20
55.8616
0
VERTEX
8
CUT
10
82.5376
20
55.6532
0
VERTEX
8
CUT
10
82.2871
20
55.2446
0
VERTEX
8
CUT
10
81.4461
20
54.0527
0
VERTEX
8
CUT
10
81.3154
20
53.8469
0
VERTEX
8
CUT
10
81.2054
20
53.6293
0
VERTEX
8
CUT
10
80.9615
20
53.0821
0
VERTEX
8
CUT
10
80.8622
20
52.9202
0
VERTEX
8
CUT
10
80.7553
20
52.7271
0
VERTEX
8
CUT
10
80.6658
20
52.5253
0
VERTEX
8
CUT
10
80.0078
20
50.8454
0
VERTEX
8
CUT
10
79.9232
20
50.5898
0
VERTEX
8
CUT
10
79.8667
20
50.3266
0
VERTEX
8
CUT
10
79.8387
20
50.0588
0
VERTEX
8
CUT
10
79.7304
20
47.8972
0
VERTEX
8
CUT
10
79.7317
20
47.6591
0
VERTEX
8
CUT
10
79.7155
20
47.5738
0
VERTEX
8
CUT
10
79.6936
20
47.3265
0
VERTEX
8
CUT
10
79.6963
20
47.0782
0
VERTEX
8
CUT
10
79.7381
20
46.3902
0
VERTEX
8
CUT
10
79.7605
20
46.1748
0
VERTEX
8
CUT
10
79.8015
20
45.9622
0
VERTEX
8
CUT
10
79.8452
20
45.7787
0
VERTEX
8
CUT
10
79.8522
20
45.6664
0
VERTEX
8
CUT
10
79.8557
20
45.5009
0
VERTEX
8
CUT
10
79.8766
20
45.2270
0
VERTEX
8
CUT
10
79.9275
20
44.9569
0
VERTEX
8
CUT
10
80.0077
20
44.6941
0
VERTEX
8
CUT
10
80.1088
20
44.4181
0
VERTEX
8
CUT
10
80.1984
20
44.0528
0
VERTEX
8
CUT
10
80.2592
20
43.8443
0
VERTEX
8
CUT
10
80.3379
20
43.6418
0
VERTEX
8
CUT
10
80.4339
20
43.4469
0
VERTEX
8
CUT
10
80.5464
20
43.2611
0
VERTEX
8
CUT
10
80.6414
20
43.1186
0
VERTEX
8
CUT
10
80.6656
20
43.0762
0
VERTEX
8
CUT
10
81.4130
20
41.9170
0
VERTEX
8
CUT
10
81.5371
20
41.7417
0
VERTEX
8
CUT
10
81.6427
20
41.6167
0
VERTEX
8
CUT
10
81.7078
20
41.5190
0
VERTEX
8
CUT
10
81.8612
20
41.3127
0
VERTEX
8
CUT
10
82.0350
20
41.1233
0
VERTEX
8
CUT
10
82.6691
20
40.4997
0
VERTEX
8
CUT
10
82.7035
20
40.4623
0
VERTEX
8
CUT
10
82.8508
20
40.3154
0
VERTEX
8
CUT
10
82.8918
20
40.2807
0
VERTEX
8
CUT
10
83.2019
20
39.9757
0
VERTEX
8
CUT
10
83.3827
20
39.8144
0
VERTEX
8
CUT
10
83.5781
20
39.6714
0
VERTEX
8
CUT
10
84.2932
20
39.1996
0
VERTEX
8
CUT
10
84.3437
20
39.1647
0
VERTEX
8
CUT
10
84.3582
20
39.1568
0
VERTEX
8
CUT
10
84.6530
20
38.9623
0
VERTEX
8
CUT
10
84.9169
20
38.8104
0
VERTEX
8
CUT
10
85.1974
20
38.6917
0
VERTEX
8
CUT
10
86.1835
20
38.3435
0
VERTEX
8
CUT
10
86.4625
20
38.2629
0
VERTEX
8
CUT
10
86.7491
20
38.2152
0
VERTEX
8
CUT
10
86.8047
20
38.2092
0
VERTEX
8
CUT
10
86.8935
20
38.1881
0
VERTEX
8
CUT
10
87.1223
20
38.1558
0
VERTEX
8
CUT
10
87.3532
20
38.1447
0
VERTEX
8
CUT
10
87.4070
20
38.1446
0
VERTEX
8
CUT
10
88.0061
20
38.0803
0
VERTEX
8
CUT
10
88.2517
20
38.0661
0
VERTEX
8
CUT
10
88.4975
20
38.0761
0
VERTEX
8
CUT
10
88.6693
20
38.0916
0
VERTEX
8
CUT
10
88.9271
20
38.0740
0
VERTEX
8
CUT
10
89.2283
20
38.0898
0
VERTEX
8
CUT
10
90.1955
20
38.1994
0
VERTEX
8
CUT
10
90.4092
20
38.2330
0
VERTEX
8
CUT
10
90.6192
20
38.2850
0
VERTEX
8
CUT
10
91.6520
20
38.5886
0
VERTEX
8
CUT
10
91.8425
20
38.6530
0
VERTEX
8
CUT
10
92.0272
20
38.7326
0
VERTEX
8
CUT
10
92.1797
20
38.8057
0
VERTEX
8
CUT
10
92.2668
20
38.8402
0
VERTEX
8
CUT
10
92.4567
20
38.9349
0
VERTEX
8
CUT
10
92.4833
20
38.9511
0
VERTEX
8
CUT
10
92.5715
20
38.9934
0
VERTEX
8
CUT
10
92.7163
20
39.0525
0
VERTEX
8
CUT
10
92.9162
20
39.1561
0
VERTEX
8
CUT
10
92.9320
20
39.1661
0
VERTEX
8
CUT
10
93.0139
20
39.2054
0
VERTEX
8
CUT
10
93.1931
20
39.3004
0
VERTEX
8
CUT
10
93.3640
20
39.4096
0
VERTEX
8
CUT
10
94.2396
20
40.0205
0
VERTEX
8
CUT
10
94.4019
20
40.1439
0
VERTEX
8
CUT
10
94.5537
20
40.2800
0
VERTEX
8
CUT
10
94.6411
20
40.3652
0
VERTEX
8
CUT
10
94.6920
20
40.4045
0
VERTEX
8
CUT
10
94.8529
20
40.5526
0
VERTEX
8
CUT
10
95.0001
20
40.7142
0
VERTEX
8
CUT
10
95.0037
20
40.7185
0
VERTEX
8
CUT
10
95.3090
20
41.0159
0
VERTEX
8
CUT
10
95.4658
20
41.1834
0
VERTEX
8
CUT
10
95.6067
20
41.3645
0
VERTEX
8
CUT
10
95.9589
20
41.8634
0
VERTEX
8
CUT
10
96.2101
20
42.1643
0
VERTEX
8
CUT
10
96.3788
20
42.3917
0
VERTEX
8
CUT
10
96.5208
20
42.6366
0
VERTEX
8
CUT
10
97.2841
20
44.1440
0
VERTEX
8
CUT
10
97.3723
20
44.3385
0
VERTEX
8
CUT
10
97.4437
20
44.5399
0
VERTEX
8
CUT
10
98.0768
20
46.6032
0
VERTEX
8
CUT
10
98.1345
20
46.8278
0
VERTEX
8
CUT
10
98.1711
20
47.0568
0
VERTEX
8
CUT
10
99.1791
20
56.0066
0
VERTEX
8
CUT
10
99.1972
20
56.1446
0
VERTEX
8
CUT
10
99.2113
20
56.2381
0
VERTEX
8
CUT
10
99.2345
20
56.3753
0
VERTEX
8
CUT
10
99.3478
20
56.9757
0
VERTEX
8
CUT
10
99.3607
20
57.0288
0
VERTEX
8
CUT
10
99.3974
20
57.1792
0
VERTEX
8
CUT
10
99.6203
20
58.0925
0
VERTEX
8
CUT
10
99.7474
20
58.6135
0
VERTEX
8
CUT
10
100.3135
20
60.3305
0
VERTEX
8
CUT
10
100.3860
20
60.5295
0
VERTEX
8
CUT
10
100.4627
20
60.7017
0
VERTEX
8
CUT
10
100.5388
20
60.8726
0
VERTEX
8
CUT
10
100.5910
20
60.9896
0
VERTEX
8
CUT
10
100.7146
20
61.2672
0
VERTEX
8
CUT
10
101.4143
20
62.7433
0
VERTEX
8
CUT
10
101.4809
20
62.8768
0
VERTEX
8
CUT
10
101.4852
20
62.8851
0
VERTEX
8
CUT
10
101.5295
20
62.9548
0
VERTEX
8
CUT
10
102.5523
20
64.4918
0
VERTEX
8
CUT
10
102.7320
20
64.7534
0
VERTEX
8
CUT
10
102.8273
20
64.8860
0
VERTEX
8
CUT
10
102.8449
20
64.9093
0
VERTEX
8
CUT
10
103.0523
20
65.1613
0
VERTEX
8
CUT
10
103.0719
20
65.1830
0
VERTEX
8
CUT
10
103.1836
20
65.3020
0
VERTEX
8
CUT
10
104.1817
20
66.3192
0
VERTEX
8
CUT
10
104.3188
20
66.4520
0
VERTEX
8
CUT
10
104.3439
20
66.4751
0
VERTEX
8
CUT
10
104.6375
20
66.7190
0
VERTEX
8
CUT
10
104.6648
20
66.7394
0
VERTEX
8
CUT
10
104.8206
20
66.8498
0
VERTEX
8
CUT
10
105.7527
20
67.4755
0
VERTEX
8
CUT
10
105.8892
20
67.5629
0
VERTEX
8
CUT
10
105.9139
20
67.5781
0
VERTEX
8
CUT
10
106.1747
20
67.7222
0
VERTEX
8
CUT
10
106.4470
20
67.8432
0
VERTEX
8
CUT
10
106.4740
20
67.8538
0
VERTEX
8
CUT
10
106.6260
20
67.9099
0
VERTEX
8
CUT
10
107.4042
20
68.1781
0
VERTEX
8
CUT
10
107.5802
20
68.2339
0
VERTEX
8
CUT
10
107.6119
20
68.2431
0
VERTEX
8
CUT
10
107.9420
20
68.3216
0
VERTEX
8
CUT
10
108.2783
20
68.3672
0
VERTEX
8
CUT
10
108.3111
20
68.3701
0
VERTEX
8
CUT
10
108.4954
20
68.3813
0
VERTEX
8
CUT
10
109.0096
20
68.4000
0
VERTEX
8
CUT
10
109.1977
20
68.4022
0
VERTEX
8
CUT
10
109.2313
20
68.4017
0
VERTEX
8
CUT
10
109.5764
20
68.3796
0
VERTEX
8
CUT
10
109.8876
20
68.3280
0
VERTEX
8
CUT
10
110.2214
20
68.2375
0
VERTEX
8
CUT
10
110.2533
20
68.2271
0
VERTEX
8
CUT
10
110.4307
20
68.1644
0
VERTEX
8
CUT
10
111.4704
20
67.7670
0
VERTEX
8
CUT
10
111.6677
20
67.6851
0
VERTEX
8
CUT
10
111.7025
20
67.6695
0
VERTEX
8
CUT
10
112.0508
20
67.4886
0
VERTEX
8
CUT
10
112.3763
20
67.2693
0
VERTEX
8
CUT
10
112.4066
20
67.2462
0
VERTEX
8
CUT
10
112.5729
20
67.1122
0
VERTEX
8
CUT
10
112.6152
20
67.0761
0
VERTEX
8
CUT
10
113.2129
20
66.4503
0
VERTEX
8
CUT
10
113.2868
20
66.3548
0
VERTEX
8
CUT
10
113.5581
20
65.9818
0
VERTEX
8
CUT
10
113.6702
20
65.8189
0
VERTEX
8
CUT
10
113.6894
20
65.7892
0
VERTEX
8
CUT
10
113.8870
20
65.4468
0
VERTEX
8
CUT
10
113.9030
20
65.4153
0
VERTEX
8
CUT
10
113.9880
20
65.2367
0
VERTEX
8
CUT
10
115.5347
20
61.7533
0
VERTEX
8
CUT
10
115.6376
20
61.5477
0
VERTEX
8
CUT
10
115.7589
20
61.3524
0
VERTEX
8
CUT
10
116.0152
20
60.9792
0
VERTEX
8
CUT
10
116.8631
20
59.6336
0
VERTEX
8
CUT
10
116.9905
20
59.4501
0
VERTEX
8
CUT
10
117.1338
20
59.2788
0
VERTEX
8
CUT
10
117.2918
20
59.1209
0
VERTEX
8
CUT
10
117.4632
20
58.9777
0
VERTEX
8
CUT
10
117.5765
20
58.8914
0
VERTEX
8
CUT
10
117.8832
20
58.6069
0
VERTEX
8
CUT
10
118.0459
20
58.4684
0
VERTEX
8
CUT
10
118.2199
20
58.3443
0
VERTEX
8
CUT
10
118.4038
20
58.2355
0
VERTEX
8
CUT
10
118.5168
20
58.1751
0
VERTEX
8
CUT
10
118.6528
20
58.0714
0
VERTEX
8
CUT
10
118.8373
20
57.9436
0
VERTEX
8
CUT
10
119.0324
20
57.8328
0
VERTEX
8
CUT
10
119.2367
20
57.7399
0
VERTEX
8
CUT
10
119.6091
20
57.5905
0
VERTEX
8
CUT
10
119.6187
20
57.5854
0
VERTEX
8
CUT
10
119.8470
20
57.4777
0
VERTEX
8
CUT
10
120.0850
20
57.3935
0
VERTEX
8
CUT
10
120.3302
20
57.3338
0
VERTEX
8
CUT
10
120.3360
20
57.3330
0
VERTEX
8
CUT
10
120.4370
20
57.3087
0
VERTEX
8
CUT
10
121.2524
20
57.1537
0
VERTEX
8
CUT
10
121.5156
20
57.1180
0
VERTEX
8
CUT
10
121.7811
20
57.1105
0
VERTEX
8
CUT
10
122.4044
20
57.1259
0
VERTEX
8
CUT
10
122.6787
20
57.1478
0
VERTEX
8
CUT
10
122.9488
20
57.1997
0
VERTEX
8
CUT
10
123.5075
20
57.3393
0
VERTEX
8
CUT
10
123.7529
20
57.4143
0
VERTEX
8
CUT
10
123.9364
20
57.4916
0
VERTEX
8
CUT
10
124.0887
20
57.5342
0
VERTEX
8
CUT
10
124.3118
20
57.6204
0
VERTEX
8
CUT
10
124.5256
20
57.7275
0
VERTEX
8
CUT
10
125.5877
20
58.3245
0
VERTEX
8
CUT
10
125.7688
20
58.4368
0
VERTEX
8
CUT
10
125.9398
20
58.5641
0
VERTEX
8
CUT
10
126.0992
20
58.7055
0
VERTEX
8
CUT
10
127.3051
20
59.8699
0
VERTEX
8
CUT
10
127.4434
20
60.0147
0
VERTEX
8
CUT
10
127.5698
20
60.1701
0
VERTEX
8
CUT
10
129.2016
20
62.3499
0
VERTEX
8
CUT
10
129.5088
20
62.7412
0
VERTEX
8
CUT
10
130.2123
20
63.6370
0
VERTEX
8
CUT
10
130.4323
20
63.9171
0
VERTEX
8
CUT
10
130.6030
20
64.1345
0
VERTEX
8
CUT
10
131.2545
20
64.8035
0
VERTEX
8
CUT
10
131.3827
20
64.9290
0
VERTEX
8
CUT
10
131.4062
20
64.9509
0
VERTEX
8
CUT
10
131.6799
20
65.1828
0
VERTEX
8
CUT
10
131.7054
20
65.2024
0
VERTEX
8
CUT
10
131.8503
20
65.3083
0
VERTEX
8
CUT
10
133.4994
20
66.4540
0
VERTEX
8
CUT
10
133.6283
20
66.5397
0
VERTEX
8
CUT
10
133.6517
20
66.5546
0
VERTEX
8
CUT
10
133.9196
20
66.7096
0
VERTEX
8
CUT
10
133.9441
20
66.7225
0
VERTEX
8
CUT
10
134.0827
20
66.7916
0
VERTEX
8
CUT
10
136.0156
20
67.7064
0
VERTEX
8
CUT
10
136.1764
20
67.7780
0
VERTEX
8
CUT
10
136.2055
20
67.7901
0
VERTEX
8
CUT
10
136.5096
20
67.9005
0
VERTEX
8
CUT
10
136.8228
20
67.9819
0
VERTEX
8
CUT
10
136.8536
20
67.9884
0
VERTEX
8
CUT
10
137.0267
20
68.0205
0
VERTEX
8
CUT
10
148.9042
20
69.9418
0
VERTEX
8
CUT
10
149.0505
20
69.9625
0
VERTEX
8
CUT
10
149.1501
20
69.9746
0
VERTEX
8
CUT
10
149.2971
20
69.9896
0
VERTEX
8
CUT
10
151.2977
20
70.1531
0
VERTEX
8
CUT
10
151.5615
20
70.1653
0
VERTEX
8
CUT
10
151.7407
20
70.1673
0
VERTEX
8
CUT
10
152.0047
20
70.1610
0
VERTEX
8
CUT
10
153.8413
20
70.0519
0
VERTEX
8
CUT
10
154.0558
20
70.0329
0
VERTEX
8
CUT
10
154.2010
20
70.0159
0
VERTEX
8
CUT
10
154.4140
20
69.9847
0
VERTEX
8
CUT
10
158.5331
20
69.2598
0
VERTEX
8
CUT
10
158.7458
20
69.2317
0
VERTEX
8
CUT
10
162.4423
20
68.9042
0
VERTEX
8
CUT
10
162.6636
20
68.8944
0
VERTEX
8
CUT
10
162.9618
20
68.8945
0
VERTEX
8
CUT
10
163.5829
20
68.8291
0
VERTEX
8
CUT
10
163.7753
20
68.8163
0
VERTEX
8
CUT
10
163.9680
20
68.8183
0
VERTEX
8
CUT
10
165.5272
20
68.8952
0
VERTEX
8
CUT
10
166.4358
20
68.8955
0
VERTEX
8
CUT
10
166.6816
20
68.9076
0
VERTEX
8
CUT
10
167.5760
20
68.9962
0
VERTEX
8
CUT
10
168.2368
20
69.0288
0
VERTEX
8
CUT
10
168.5647
20
69.0668
0
VERTEX
8
CUT
10
168.8891
20
69.1263
0
VERTEX
8
CUT
10
169.8611
20
69.2226
0
VERTEX
8
CUT
10
170.1804
20
69.2753
0
VERTEX
8
CUT
10
171.2395
20
69.5214
0
VERTEX
8
CUT
10
171.4971
20
69.5960
0
VERTEX
8
CUT
10
174.1672
20
70.5274
0
VERTEX
8
CUT
10
174.4967
20
70.6696
0
VERTEX
8
CUT
10
177.1289
20
72.0376
0
VERTEX
8
CUT
10
177.3539
20
72.1699
0
VERTEX
8
CUT
10
178.2615
20
72.7694
0
VERTEX
8
CUT
10
178.7962
20
73.0662
0
VERTEX
8
CUT
10
178.9747
20
73.1753
0
VERTEX
8
CUT
10
179.1434
20
73.2989
0
VERTEX
8
CUT
10
179.5267
20
73.6052
0
VERTEX
8
CUT
10
180.3147
20
74.1257
0
VERTEX
8
CUT
10
180.3410
20
74.1433
0
VERTEX
8
CUT
10
180.3457
20
74.1465
0
VERTEX
8
CUT
10
180.4539
20
74.2242
0
VERTEX
8
CUT
10
185.7410
20
78.2411
0
VERTEX
8
CUT
10
185.8930
20
78.3506
0
VERTEX
8
CUT
10
185.9206
20
78.3696
0
VERTEX
8
CUT
10
186.2146
20
78.5497
0
VERTEX
8
CUT
10
186.4978
20
78.6863
0
VERTEX
8
CUT
10
186.7932
20
78.7941
0
VERTEX
8
CUT
10
187.0979
20
78.8717
0
VERTEX
8
CUT
10
187.4089
20
78.9186
0
VERTEX
8
CUT
10
187.7230
20
78.9341
0
VERTEX
8
CUT
10
188.0370
20
78.9182
0
VERTEX
8
CUT
10
188.3480
20
78.8711
0
VERTEX
8
CUT
10
188.6526
20
78.7931
0
VERTEX
8
CUT
10
188.9479
20
78.6850
0
VERTEX
8
CUT
10
189.2310
20
78.5480
0
VERTEX
8
CUT
10
189.4989
20
78.3834
0
VERTEX
8
CUT
10
189.7491
20
78.1929
0
VERTEX
8
CUT
10
189.9790
20
77.9784
0
VERTEX
8
CUT
10
190.1863
20
77.7419
0
VERTEX
8
CUT
10
190.3495
20
77.5133
0
VERTEX
8
CUT
10
190.4831
20
77.2749
0
VERTEX
8
CUT
10
190.6068
20
76.9920
0
VERTEX
8
CUT
10
190.7022
20
76.6983
0
VERTEX
8
CUT
10
190.7684
20
76.3967
0
VERTEX
8
CUT
10
190.8046
20
76.0901
0
VERTEX
8
CUT
10
190.8107
20
75.7814
0
VERTEX
8
CUT
10
190.7864
20
75.4736
0
VERTEX
8
CUT
10
190.7320
20
75.1696
0
VERTEX
8
CUT
10
190.6401
20
74.8439
0
VERTEX
8
CUT
10
190.6296
20
74.8127
0
VERTEX
8
CUT
10
190.5666
20
74.6397
0
VERTEX
8
CUT
10
189.7396
20
72.5287
0
VERTEX
8
CUT
10
189.6609
20
72.2945
0
VERTEX
8
CUT
10
189.3569
20
71.2151
0
VERTEX
8
CUT
10
189.2953
20
70.9362
0
VERTEX
8
CUT
10
189.2659
20
70.6521
0
VERTEX
8
CUT
10
189.2477
20
70.2578
0
VERTEX
8
CUT
10
189.1417
20
69.5922
0
VERTEX
8
CUT
10
189.1142
20
69.3339
0
VERTEX
8
CUT
10
189.1136
20
69.0741
0
VERTEX
8
CUT
10
189.1401
20
68.8156
0
VERTEX
8
CUT
10
189.3114
20
67.7110
0
VERTEX
8
CUT
10
189.3491
20
67.2610
0
VERTEX
8
CUT
10
189.3718
20
67.0746
0
VERTEX
8
CUT
10
189.4085
20
66.8905
0
VERTEX
8
CUT
10
189.4949
20
66.5276
0
VERTEX
8
CUT
10
189.5260
20
66.3275
0
VERTEX
8
CUT
10
189.5812
20
66.0653
0
VERTEX
8
CUT
10
189.6641
20
65.8106
0
VERTEX
8
CUT
10
189.6677
20
65.8025
0
VERTEX
8
CUT
10
189.7319
20
65.5330
0
VERTEX
8
CUT
10
189.8019
20
65.2932
0
VERTEX
8
CUT
10
189.8955
20
65.0615
0
VERTEX
8
CUT
10
190.3685
20
64.0406
0
VERTEX
8
CUT
10
190.5037
20
63.7878
0
VERTEX
8
CUT
10
190.6670
20
63.5522
0
VERTEX
8
CUT
10
191.2845
20
62.7619
0
VERTEX
8
CUT
10
191.4802
20
62.5399
0
VERTEX
8
CUT
10
191.7008
20
62.3426
0
VERTEX
8
CUT
10
191.8210
20
62.2473
0
VERTEX
8
CUT
10
191.9289
20
62.1306
0
VERTEX
8
CUT
10
192.0958
20
61.9663
0
VERTEX
8
CUT
10
192.2774
20
61.8183
0
VERTEX
8
CUT
10
192.9891
20
61.2916
0
VERTEX
8
CUT
10
193.2268
20
61.1358
0
VERTEX
8
CUT
10
193.4806
20
61.0080
0
VERTEX
8
CUT
10
194.1499
20
60.7175
0
VERTEX
8
CUT
10
194.3993
20
60.6247
0
VERTEX
8
CUT
10
194.6572
20
60.5589
0
VERTEX
8
CUT
10
194.9206
20
60.5208
0
VERTEX
8
CUT
10
198.7995
20
60.1706
0
VERTEX
8
CUT
10
198.9525
20
60.1536
0
VERTEX
8
CUT
10
198.9799
20
60.1500
0
VERTEX
8
CUT
10
199.2832
20
60.0972
0
VERTEX
8
CUT
10
199.3101
20
60.0914
0
VERTEX
8
CUT
10
199.4599
20
60.0557
0
VERTEX
8
CUT
10
200.1261
20
59.8825
0
VERTEX
8
CUT
10
200.3031
20
59.8319
0
VERTEX
8
CUT
10
200.3345
20
59.8220
0
VERTEX
8
CUT
10
200.6799
20
59.6950
0
VERTEX
8
CUT
10
200.7102
20
59.6821
0
VERTEX
8
CUT
10
200.8778
20
59.6060
0
VERTEX
8
CUT
10
201.4221
20
59.3426
0
VERTEX
8
CUT
10
201.5972
20
59.2521
0
VERTEX
8
CUT
10
201.6280
20
59.2351
0
VERTEX
8
CUT
10
201.9625
20
59.0273
0
VERTEX
8
CUT
10
201.9914
20
59.0072
0
VERTEX
8
CUT
10
202.1501
20
58.8904
0
VERTEX
8
CUT
10
202.6030
20
58.5382
0
VERTEX
8
CUT
10
202.7456
20
58.4216
0
VERTEX
8
CUT
10
202.7706
20
58.4001
0
VERTEX
8
CUT
10
203.0262
20
58.1576
0
VERTEX
8
CUT
10
203.0804
20
58.0973
0
VERTEX
8
CUT
10
203.1030
20
58.0693
0
VERTEX
8
CUT
10
203.2254
20
57.9092
0
VERTEX
8
CUT
10
204.2666
20
56.4680
0
VERTEX
8
CUT
10
204.3578
20
56.3360
0
VERTEX
8
CUT
10
204.3736
20
56.3120
0
VERTEX
8
CUT
10
204.5253
20
56.0590
0
VERTEX
8
CUT
10
204.6548
20
55.7939
0
VERTEX
8
CUT
10
204.6663
20
55.7676
0
VERTEX
8
CUT
10
204.7274
20
55.6192
0
VERTEX
8
CUT
10
205.1196
20
54.6046
0
VERTEX
8
CUT
10
206.2707
20
51.1637
0
VERTEX
8
CUT
10
206.4057
20
50.8386
0
VERTEX
8
CUT
10
207.3665
20
48.9176
0
VERTEX
8
CUT
10
207.4850
20
48.7068
0
VERTEX
8
CUT
10
207.6233
20
48.5084
0
VERTEX
8
CUT
10
208.8606
20
46.9053
0
VERTEX
8
CUT
10
209.0435
20
46.6939
0
VERTEX
8
CUT
10
209.2489
20
46.5042
0
VERTEX
8
CUT
10
209.3963
20
46.3826
0
VERTEX
8
CUT
10
209.5250
20
46.2194
0
VERTEX
8
CUT
10
209.6743
20
46.0469
0
VERTEX
8
CUT
10
209.8387
20
45.8887
0
VERTEX
8
CUT
10
210.0169
20
45.7462
0
VERTEX
8
CUT
10
210.7798
20
45.1910
0
VERTEX
8
CUT
10
210.9699
20
45.0655
0
VERTEX
8
CUT
10
211.1707
20
44.9578
0
VERTEX
8
CUT
10
212.0957
20
44.5147
0
VERTEX
8
CUT
10
212.3125
20
44.4231
0
VERTEX
8
CUT
10
212.5369
20
44.3523
0
VERTEX
8
CUT
10
212.7920
20
44.2849
0
VERTEX
8
CUT
10
213.0227
20
44.1813
0
VERTEX
8
CUT
10
213.2629
20
44.0880
0
VERTEX
8
CUT
10
213.5115
20
44.0199
0
VERTEX
8
CUT
10
214.2609
20
43.8556
0
VERTEX
8
CUT
10
214.4645
20
43.8197
0
VERTEX
8
CUT
10
214.6704
20
43.8007
0
VERTEX
8
CUT
10
214.8771
20
43.7989
0
VERTEX
8
CUT
10
216.6653
20
43.8566
0
VERTEX
8
CUT
10
216.8833
20
43.8732
0
VERTEX
8
CUT
10
217.0990
20
43.9088
0
VERTEX
8
CUT
10
217.3108
20
43.9631
0
VERTEX
8
CUT
10
217.8493
20
44.1266
0
VERTEX
8
CUT
10
218.0489
20
44.1966
0
VERTEX
8
CUT
10
218.2419
20
44.2831
0
VERTEX
8
CUT
10
218.4269
20
44.3857
0
VERTEX
8
CUT
10
218.6309
20
44.5104
0
VERTEX
8
CUT
10
218.7825
20
44.5731
0
VERTEX
8
CUT
10
219.0214
20
44.7040
0
VERTEX
8
CUT
10
220.3469
20
45.5271
0
VERTEX
8
CUT
10
220.5804
20
45.6913
0
VERTEX
8
CUT
10
220.7937
20
45.8810
0
VERTEX
8
CUT
10
221.2726
20
46.3588
0
VERTEX
8
CUT
10
221.4268
20
46.5274
0
VERTEX
8
CUT
10
221.5650
20
46.7094
0
VERTEX
8
CUT
10
221.6625
20
46.8508
0
VERTEX
8
CUT
10
221.9127
20
47.1052
0
VERTEX
8
CUT
10
222.0894
20
47.3051
0
VERTEX
8
CUT
10
222.2438
20
47.5227
0
VERTEX
8
CUT
10
222.7701
20
48.3557
0
VERTEX
8
CUT
10
222.9006
20
48.5887
0
VERTEX
8
CUT
10
223.0054
20
48.8344
0
VERTEX
8
CUT
10
223.0834
20
49.0899
0
VERTEX
8
CUT
10
223.1677
20
49.4302
0
VERTEX
8
CUT
10
223.2684
20
49.6854
0
VERTEX
8
CUT
10
223.3420
20
49.9001
0
VERTEX
8
CUT
10
223.3958
20
50.1205
0
VERTEX
8
CUT
10
223.4294
20
50.3449
0
VERTEX
8
CUT
10
223.4401
20
50.5296
0
VERTEX
8
CUT
10
223.5362
20
50.9172
0
VERTEX
8
CUT
10
223.5791
20
51.1295
0
VERTEX
8
CUT
10
223.6035
20
51.3447
0
VERTEX
8
CUT
10
223.6092
20
51.5612
0
VERTEX
8
CUT
10
223.5602
20
54.4292
0
VERTEX
8
CUT
10
223.5412
20
54.6972
0
VERTEX
8
CUT
10
223.4935
20
54.9616
0
VERTEX
8
CUT
10
223.4916
20
54.9696
0
VERTEX
8
CUT
10
223.4873
20
55.0896
0
VERTEX
8
CUT
10
223.4550
20
55.3303
0
VERTEX
8
CUT
10
223.3995
20
55.5668
0
VERTEX
8
CUT
10
223.1546
20
56.4215
0
VERTEX
8
CUT
10
223.1348
20
56.4793
0
VERTEX
8
CUT
10
223.1132
20
56.5706
0
VERTEX
8
CUT
10
223.0574
20
56.7696
0
VERTEX
8
CUT
10
222.9853
20
56.9634
0
VERTEX
8
CUT
10
222.8974
20
57.1505
0
VERTEX
8
CUT
10
222.0936
20
58.6936
0
VERTEX
8
CUT
10
221.9786
20
58.8916
0
VERTEX
8
CUT
10
221.8460
20
59.0783
0
VERTEX
8
CUT
10
220.1645
20
61.2291
0
VERTEX
8
CUT
10
220.1456
20
61.2530
0
VERTEX
8
CUT
10
220.1422
20
61.2573
0
VERTEX
8
CUT
10
220.0595
20
61.3552
0
VERTEX
8
CUT
10
217.7064
20
64.0008
0
VERTEX
8
CUT
10
217.4818
20
64.2679
0
VERTEX
8
CUT
10
217.2649
20
64.5259
0
VERTEX
8
CUT
10
217.1090
20
64.7113
0
VERTEX
8
CUT
10
216.2988
20
65.6747
0
VERTEX
8
CUT
10
215.5319
20
66.8039
0
VERTEX
8
CUT
10
215.1496
20
67.4445
0
VERTEX
8
CUT
10
215.0665
20
67.5911
0
VERTEX
8
CUT
10
215.0522
20
67.6177
0
VERTEX
8
CUT
10
214.9180
20
67.8969
0
VERTEX
8
CUT
10
214.8094
20
68.1871
0
VERTEX
8
CUT
10
214.8001
20
68.2158
0
VERTEX
8
CUT
10
214.7518
20
68.3773
0
VERTEX
8
CUT
10
214.4687
20
69.4068
0
VERTEX
8
CUT
10
214.3930
20
69.7474
0
VERTEX
8
CUT
10
214.3506
20
69.9699
0
VERTEX
8
CUT
10
214.3443
20
70.0097
0
VERTEX
8
CUT
10
214.3001
20
70.4602
0
VERTEX
8
CUT
10
214.2986
20
70.5004
0
VERTEX
8
CUT
10
214.2969
20
70.7269
0
VERTEX
8
CUT
10
214.3309
20
72.2010
0
VERTEX
8
CUT
10
214.3393
20
72.3808
0
VERTEX
8
CUT
10
214.3416
20
72.4128
0
VERTEX
8
CUT
10
214.3809
20
72.7412
0
VERTEX
8
CUT
10
214.4514
20
73.0642
0
VERTEX
8
CUT
10
214.4597
20
73.0953
0
VERTEX
8
CUT
10
214.5107
20
73.2678
0
VERTEX
8
CUT
10
214.9796
20
74.7272
0
VERTEX
8
CUT
10
215.0463
20
74.9172
0
VERTEX
8
CUT
10
215.0591
20
74.9508
0
VERTEX
8
CUT
10
215.2095
20
75.2890
0
VERTEX
8
CUT
10
215.3953
20
75.6091
0
VERTEX
8
CUT
10
215.4149
20
75.6391
0
VERTEX
8
CUT
10
215.5297
20
75.8047
0
VERTEX
8
CUT
10
216.5266
20
77.1627
0
VERTEX
8
CUT
10
216.6390
20
77.3082
0
VERTEX
8
CUT
10
216.6597
20
77.3337
0
VERTEX
8
CUT
10
216.9051
20
77.6071
0
VERTEX
8
CUT
10
216.9282
20
77.6305
0
VERTEX
8
CUT
10
217.0606
20
77.7579
0
VERTEX
8
CUT
10
217.5894
20
78.2422
0
VERTEX
8
CUT
10
217.7088
20
78.3470
0
VERTEX
8
CUT
10
217.7306
20
78.3653
0
VERTEX
8
CUT
10
217.9820
20
78.5591
0
VERTEX
8
CUT
10
218.0052
20
78.5755
0
VERTEX
8
CUT
10
218.1369
20
78.6643
0
VERTEX
8
CUT
10
218.9230
20
79.1705
0
VERTEX
8
CUT
10
219.0534
20
79.2507
0
VERTEX
8
CUT
10
219.1431
20
79.3034
0
VERTEX
8
CUT
10
219.2767
20
79.3783
0
VERTEX
8
CUT
10
222.0603
20
80.8646
0
VERTEX
8
CUT
10
222.2277
20
80.9486
0
VERTEX
8
CUT
10
222.2580
20
80.9629
0
VERTEX
8
CUT
10
222.5763
20
81.0939
0
VERTEX
8
CUT
10
222.8771
20
81.1839
0
VERTEX
8
CUT
10
223.2151
20
81.2491
0
VERTEX
8
CUT
10
223.2482
20
81.2538
0
VERTEX
8
CUT
10
223.4342
20
81.2755
0
VERTEX
8
CUT
10
223.7014
20
81.2998
0
VERTEX
8
CUT
10
223.8596
20
81.3108
0
VERTEX
8
CUT
10
223.8880
20
81.3122
0
VERTEX
8
CUT
10
224.2051
20
81.3142
0
VERTEX
8
CUT
10
224.2335
20
81.3131
0
VERTEX
8
CUT
10
224.3919
20
81.3041
0
VERTEX
8
CUT
10
229.3499
20
80.9145
0
VERTEX
8
CUT
10
229.5880
20
80.8881
0
VERTEX
8
CUT
10
229.7489
20
80.8651
0
VERTEX
8
CUT
10
229.9848
20
80.8235
0
VERTEX
8
CUT
10
234.4210
20
79.8956
0
VERTEX
8
CUT
10
234.6478
20
79.8408
0
VERTEX
8
CUT
10
234.8004
20
79.7988
0
VERTEX
8
CUT
10
235.0233
20
79.7300
0
VERTEX
8
CUT
10
239.0301
20
78.3547
0
VERTEX
8
CUT
10
239.2761
20
78.2605
0
VERTEX
8
CUT
10
239.4407
20
78.1908
0
VERTEX
8
CUT
10
239.6794
20
78.0795
0
VERTEX
8
CUT
10
243.2732
20
76.2488
0
VERTEX
8
CUT
10
243.5089
20
76.1178
0
VERTEX
8
CUT
10
243.6655
20
76.0233
0
VERTEX
8
CUT
10
243.8911
20
75.8758
0
VERTEX
8
CUT
10
247.2014
20
73.5375
0
VERTEX
8
CUT
10
247.3138
20
73.4550
0
VERTEX
8
CUT
10
247.3336
20
73.4398
0
VERTEX
8
CUT
10
247.5487
20
73.2626
0
VERTEX
8
CUT
10
247.5674
20
73.2460
0
VERTEX
8
CUT
10
247.6699
20
73.1514
0
VERTEX
8
CUT
10
250.6922
20
70.2575
0
VERTEX
8
CUT
10
250.8758
20
70.0690
0
VERTEX
8
CUT
10
250.9957
20
69.9368
0
VERTEX
8
CUT
10
251.1656
20
69.7359
0
VERTEX
8
CUT
10
253.8312
20
66.3485
0
VERTEX
8
CUT
10
253.9625
20
66.1713
0
VERTEX
8
CUT
10
254.0480
20
66.0484
0
VERTEX
8
CUT
10
254.1686
20
65.8637
0
VERTEX
8
CUT
10
256.5692
20
61.9401
0
VERTEX
8
CUT
10
256.6854
20
61.7362
0
VERTEX
8
CUT
10
256.7599
20
61.5953
0
VERTEX
8
CUT
10
256.8631
20
61.3845
0
VERTEX
8
CUT
10
259.6112
20
55.2940
0
VERTEX
8
CUT
10
259.6886
20
55.1094
0
VERTEX
8
CUT
10
259.7378
20
54.9828
0
VERTEX
8
CUT
10
259.8053
20
54.7944
0
VERTEX
8
CUT
10
261.5559
20
49.4603
0
VERTEX
8
CUT
10
261.5871
20
49.3608
0
VERTEX
8
CUT
10
261.6073
20
49.2928
0
VERTEX
8
CUT
10
261.6356
20
49.1925
0
VERTEX
8
CUT
10
263.0909
20
43.7552
0
VERTEX
8
CUT
10
263.1367
20
43.5643
0
VERTEX
8
CUT
10
263.1643
20
43.4338
0
VERTEX
8
CUT
10
263.2001
20
43.2407
0
VERTEX
8
CUT
10
264.9832
20
31.9597
0
VERTEX
8
CUT
10
265.0352
20
31.7127
0
VERTEX
8
CUT
10
265.1117
20
31.4722
0
VERTEX
8
CUT
10
265.2122
20
31.2406
0
VERTEX
8
CUT
10
265.3355
20
31.0204
0
VERTEX
8
CUT
10
265.4803
20
30.8137
0
VERTEX
8
CUT
10
265.6453
20
30.6227
0
VERTEX
8
CUT
10
265.8286
20
30.4492
0
VERTEX
8
CUT
10
266.0286
20
30.2952
0
VERTEX
8
CUT
10
266.2430
20
30.1621
0
VERTEX
8
CUT
10
266.4698
20
30.0513
0
VERTEX
8
CUT
10
266.7066
20
29.9639
0
VERTEX
8
CUT
10
266.9510
20
29.9008
0
VERTEX
8
CUT
10
267.2005
20
29.8627
0
VERTEX
8
CUT
10
267.4526
20
29.8500
0
VERTEX
8
CUT
10
267.5258
20
29.8500
0
VERTEX
8
CUT
10
267.6500
20
29.8500
0
VERTEX
8
CUT
10
267.8950
20
29.8620
0
VERTEX
8
CUT
10
268.1377
20
29.8980
0
VERTEX
8
CUT
10
268.3757
20
29.9576
0
VERTEX
8
CUT
10
268.6067
20
30.0403
0
VERTEX
8
CUT
10
268.8285
20
30.1452
0
VERTEX
8
CUT
10
269.0389
20
30.2713
0
VERTEX
8
CUT
10
269.2360
20
30.4175
0
VERTEX
8
CUT
10
269.4178
20
30.5822
0
VERTEX
8
CUT
10
269.5825
20
30.7640
0
VERTEX
8
CUT
10
269.7287
20
30.9611
0
VERTEX
8
CUT
10
269.8548
20
31.1715
0
VERTEX
8
CUT
10
269.9597
20
31.3933
0
VERTEX
8
CUT
10
270.0424
20
31.6243
0
VERTEX
8
CUT
10
270.1020
20
31.8623
0
VERTEX
8
CUT
10
270.1380
20
32.1050
0
VERTEX
8
CUT
10
270.1500
20
32.3500
0
VERTEX
8
CUT
10
270.1500
20
49.3592
0
VERTEX
8
CUT
10
270.1500
20
59.3654
0
VERTEX
8
CUT
10
270.1500
20
61.2874
0
VERTEX
8
CUT
10
270.1500
20
61.2944
0
VERTEX
8
CUT
10
270.1500
20
70.6814
0
VERTEX
8
CUT
10
270.1500
20
78.6366
0
VERTEX
8
CUT
10
270.1500
20
78.8880
0
VERTEX
8
CUT
10
270.1500
20
79.0870
0
VERTEX
8
CUT
10
270.1393
20
79.3181
0
VERTEX
8
CUT
10
270.1073
20
79.5473
0
VERTEX
8
CUT
10
270.0542
20
79.7724
0
VERTEX
8
CUT
10
269.9806
20
79.9917
0
VERTEX
8
CUT
10
269.0706
20
82.3357
0
VERTEX
8
CUT
10
269.0582
20
82.3671
0
VERTEX
8
CUT
10
269.0559
20
82.3729
0
VERTEX
8
CUT
10
268.9988
20
82.5033
0
VERTEX
8
CUT
10
267.8453
20
84.9488
0
VERTEX
8
CUT
10
267.8317
20
84.9770
0
VERTEX
8
CUT
10
267.8294
20
84.9817
0
VERTEX
8
CUT
10
267.7692
20
85.0976
0
VERTEX
8
CUT
10
265.2979
20
89.5624
0
VERTEX
8
CUT
10
265.2798
20
89.5947
0
VERTEX
8
CUT
10
265.2765
20
89.6004
0
VERTEX
8
CUT
10
265.1951
20
89.7326
0
VERTEX
8
CUT
10
262.8554
20
93.2846
0
VERTEX
8
CUT
10
262.7052
20
93.4892
0
VERTEX
8
CUT
10
260.1633
20
96.6067
0
VERTEX
8
CUT
10
260.0020
20
96.7860
0
VERTEX
8
CUT
10
257.0167
20
99.8002
0
VERTEX
8
CUT
10
256.9939
20
99.8230
0
VERTEX
8
CUT
10
256.9897
20
99.8271
0
VERTEX
8
CUT
10
256.8902
20
99.9198
0
VERTEX
8
CUT
10
252.9389
20
103.4056
0
VERTEX
8
CUT
10
252.7895
20
103.5448
0
VERTEX
8
CUT
10
252.6905
20
103.6422
0
VERTEX
8
CUT
10
252.5488
20
103.7894
0
VERTEX
8
CUT
10
252.0527
20
104.3339
0
VERTEX
8
CUT
10
251.9279
20
104.4780
0
VERTEX
8
CUT
10
251.9063
20
104.5043
0
VERTEX
8
CUT
10
251.6795
20
104.8106
0
VERTEX
8
CUT
10
251.6607
20
104.8390
0
VERTEX
8
CUT
10
251.5593
20
105.0004
0
VERTEX
8
CUT
10
251.2493
20
105.5227
0
VERTEX
8
CUT
10
251.1501
20
105.7008
0
VERTEX
8
CUT
10
251.1333
20
105.7330
0
VERTEX
8
CUT
10
250.9783
20
106.0739
0
VERTEX
8
CUT
10
250.8611
20
106.4297
0
VERTEX
8
CUT
10
250.8516
20
106.4648
0
VERTEX
8
CUT
10
250.8039
20
106.6629
0
VERTEX
8
CUT
10
250.6127
20
107.5624
0
VERTEX
8
CUT
10
250.5816
20
107.7270
0
VERTEX
8
CUT
10
250.5767
20
107.7566
0
VERTEX
8
CUT
10
250.5398
20
108.0624
0
VERTEX
8
CUT
10
250.5312
20
108.3433
0
VERTEX
8
CUT
10
250.5493
20
108.6508
0
VERTEX
8
CUT
10
250.5524
20
108.6806
0
VERTEX
8
CUT
10
250.5734
20
108.8468
0
VERTEX
8
CUT
10
250.6987
20
109.6867
0
VERTEX
8
CUT
10
250.7048
20
109.7219
0
VERTEX
8
CUT
10
250.9195
20
110.3962
0
VERTEX
8
CUT
10
250.9884
20
110.5935
0
VERTEX
8
CUT
10
251.0017
20
110.6283
0
VERTEX
8
CUT
10
251.1719
20
111.0098
0
VERTEX
8
CUT
10
251.1889
20
111.0429
0
VERTEX
8
CUT
10
251.2898
20
111.2260
0
VERTEX
8
CUT
10
251.3946
20
111.4045
0
VERTEX
8
CUT
10
251.4771
20
111.5217
0
VERTEX
8
CUT
10
251.4951
20
111.5451
0
VERTEX
8
CUT
10
251.5989
20
111.6736
0
VERTEX
8
CUT
10
252.4420
20
112.6719
0
VERTEX
8
CUT
10
252.4702
20
112.7038
0
VERTEX
8
CUT
10
253.0659
20
113.2586
0
VERTEX
8
CUT
10
253.1257
20
113.3034
0
VERTEX
8
CUT
10
254.2623
20
114.1184
0
VERTEX
8
CUT
10
254.4191
20
114.2249
0
VERTEX
8
CUT
10
254.4476
20
114.2432
0
VERTEX
8
CUT
10
254.7762
20
114.4318
0
VERTEX
8
CUT
10
254.8064
20
114.4472
0
VERTEX
8
CUT
10
254.9775
20
114.5288
0
VERTEX
8
CUT
10
256.0397
20
115.0030
0
VERTEX
8
CUT
10
256.0652
20
115.0137
0
VERTEX
8
CUT
10
256.4511
20
115.1278
0
VERTEX
8
CUT
10
256.4902
20
115.1393
0
VERTEX
8
CUT
10
256.6759
20
115.1943
0
VERTEX
8
CUT
10
257.5018
20
115.4384
0
VERTEX
8
CUT
10
258.1341
20
115.6010
0
VERTEX
8
CUT
10
258.2690
20
115.6330
0
VERTEX
8
CUT
10
258.2932
20
115.6383
0
VERTEX
8
CUT
10
258.5661
20
115.6873
0
VERTEX
8
CUT
10
258.5907
20
115.6908
0
VERTEX
8
CUT
10
258.7282
20
115.7077
0
VERTEX
8
CUT
10
262.5721
20
116.1081
0
VERTEX
8
CUT
10
264.7691
20
116.2843
0
VERTEX
8
CUT
10
265.0334
20
116.3198
0
VERTEX
8
CUT
10
266.6726
20
116.6295
0
VERTEX
8
CUT
10
266.9171
20
116.6886
0
VERTEX
8
CUT
10
267.0980
20
116.7521
0
VERTEX
8
CUT
10
267.5629
20
116.8336
0
VERTEX
8
CUT
10
267.8175
20
116.8920
0
VERTEX
8
CUT
10
268.0646
20
116.9768
0
VERTEX
8
CUT
10
268.5832
20
117.1854
0
VERTEX
8
CUT
10
268.8079
20
117.2890
0
VERTEX
8
CUT
10
269.0213
20
117.4143
0
VERTEX
8
CUT
10
269.2212
20
117.5601
0
VERTEX
8
CUT
10
269.4057
20
117.7250
0
VERTEX
8
CUT
10
269.5731
20
117.9073
0
VERTEX
8
CUT
10
269.7216
20
118.1052
0
VERTEX
8
CUT
10
269.8498
20
118.3169
0
VERTEX
8
CUT
10
269.9564
20
118.5402
0
VERTEX
8
CUT
10
270.0405
20
118.7729
0
VERTEX
8
CUT
10
270.1011
20
119.0128
0
VERTEX
8
CUT
10
270.1378
20
119.2575
0
VERTEX
8
CUT
10
270.1500
20
119.5047
0
VERTEX
8
CUT
10
270.1500
20
119.5534
0
VERTEX
8
CUT
10
270.1500
20
119.6754
0
VERTEX
8
CUT
10
270.1500
20
123.5169
0
VERTEX
8
CUT
10
270.1500
20
136.4542
0
VERTEX
8
CUT
10
270.1500
20
136.5142
0
VERTEX
8
CUT
10
270.1375
20
136.7638
0
VERTEX
8
CUT
10
270.1002
20
137.0109
0
VERTEX
8
CUT
10
270.0384
20
137.2530
0
VERTEX
8
CUT
10
269.9527
20
137.4877
0
VERTEX
8
CUT
10
269.8440
20
137.7127
0
VERTEX
8
CUT
10
269.7134
20
137.9257
0
VERTEX
8
CUT
10
269.5622
20
138.1247
0
VERTEX
8
CUT
10
269.3919
20
138.3075
0
VERTEX
8
CUT
10
269.2041
20
138.4724
0
VERTEX
8
CUT
10
269.0009
20
138.6178
0
VERTEX
8
CUT
10
268.7842
20
138.7421
0
VERTEX
8
CUT
10
268.5561
20
138.8442
0
VERTEX
8
CUT
10
268.3190
20
138.9231
0
VERTEX
8
CUT
10
268.0751
20
138.9778
0
VERTEX
8
CUT
10
267.8271
20
139.0079
0
VERTEX
8
CUT
10
267.6335
20
139.0217
0
VERTEX
8
CUT
10
267.3726
20
139.0266
0
VERTEX
8
CUT
10
267.1126
20
139.0042
0
VERTEX
8
CUT
10
265.9993
20
138.8496
0
VERTEX
8
CUT
10
265.7861
20
138.8105
0
VERTEX
8
CUT
10
265.5772
20
138.7531
0
VERTEX
8
CUT
10
265.2293
20
138.6412
0
VERTEX
8
CUT
10
264.7117
20
138.5086
0
VERTEX
8
CUT
10
264.4639
20
138.4311
0
VERTEX
8
CUT
10
264.2254
20
138.3284
0
VERTEX
8
CUT
10
264.1066
20
138.2698
0
VERTEX
8
CUT
10
263.9362
20
138.1913
0
VERTEX
8
CUT
10
263.5873
20
138.0134
0
VERTEX
8
CUT
10
263.0749
20
137.7604
0
VERTEX
8
CUT
10
262.9644
20
137.6957
0
VERTEX
8
CUT
10
262.5089
20
137.4635
0
VERTEX
8
CUT
10
262.2131
20
137.2859
0
VERTEX
8
CUT
10
258.8192
20
134.9152
0
VERTEX
8
CUT
10
258.6918
20
134.8300
0
VERTEX
8
CUT
10
258.6687
20
134.8152
0
VERTEX
8
CUT
10
258.4090
20
134.6638
0
VERTEX
8
CUT
10
258.3879
20
134.6538
0
VERTEX
8
CUT
10
258.3610
20
134.6410
0
VERTEX
8
CUT
10
258.2750
20
134.6003
0
VERTEX
8
CUT
10
257.7994
20
134.3750
0
VERTEX
8
CUT
10
257.7763
20
134.3656
0
VERTEX
8
CUT
10
257.3592
20
134.2233
0
VERTEX
8
CUT
10
257.3214
20
134.2128
0
VERTEX
8
CUT
10
257.1073
20
134.1603
0
VERTEX
8
CUT
10
256.5679
20
134.0448
0
VERTEX
8
CUT
10
256.3915
20
134.0114
0
VERTEX
8
CUT
10
256.3598
20
134.0061
0
VERTEX
8
CUT
10
256.0320
20
133.9682
0
VERTEX
8
CUT
10
255.7310
20
133.9623
0
VERTEX
8
CUT
10
255.4020
20
133.9874
0
VERTEX
8
CUT
10
255.3701
20
133.9914
0
VERTEX
8
CUT
10
255.1925
20
134.0179
0
VERTEX
8
CUT
10
254.6091
20
134.1192
0
VERTEX
8
CUT
10
254.4570
20
134.1489
0
VERTEX
8
CUT
10
254.4299
20
134.1548
0
VERTEX
8
CUT
10
254.1542
20
134.2265
0
VERTEX
8
CUT
10
253.8854
20
134.3208
0
VERTEX
8
CUT
10
253.8596
20
134.3311
0
VERTEX
8
CUT
10
253.7169
20
134.3913
0
VERTEX
8
CUT
10
253.5416
20
134.4696
0
VERTEX
8
CUT
10
253.3825
20
134.5451
0
VERTEX
8
CUT
10
253.3543
20
134.5593
0
VERTEX
8
CUT
10
253.0476
20
134.7325
0
VERTEX
8
CUT
10
253.0210
20
134.7492
0
VERTEX
8
CUT
10
252.8740
20
134.8464
0
VERTEX
8
CUT
10
251.5530
20
135.7655
0
VERTEX
8
CUT
10
251.3691
20
135.9020
0
VERTEX
8
CUT
10
251.3372
20
135.9273
0
VERTEX
8
CUT
10
250.9961
20
136.2325
0
VERTEX
8
CUT
10
250.9675
20
136.2614
0
VERTEX
8
CUT
10
250.8115
20
136.4291
0
VERTEX
8
CUT
10
250.5323
20
136.7484
0
VERTEX
8
CUT
10
250.4170
20
136.8868
0
VERTEX
8
CUT
10
250.3970
20
136.9120
0
VERTEX
8
CUT
10
250.1871
20
137.2045
0
VERTEX
8
CUT
10
250.1696
20
137.2315
0
VERTEX
8
CUT
10
250.0754
20
137.3850
0
VERTEX
8
CUT
10
249.2199
20
138.8570
0
VERTEX
8
CUT
10
249.1225
20
139.0355
0
VERTEX
8
CUT
10
249.1060
20
139.0678
0
VERTEX
8
CUT
10
248.9410
20
139.4392
0
VERTEX
8
CUT
10
248.9281
20
139.4731
0
VERTEX
8
CUT
10
248.8609
20
139.6651
0
VERTEX
8
CUT
10
248.6474
20
140.3327
0
VERTEX
8
CUT
10
248.6068
20
140.4683
0
VERTEX
8
CUT
10
248.6000
20
140.4927
0
VERTEX
8
CUT
10
248.5344
20
140.7679
0
VERTEX
8
CUT
10
248.5295
20
140.7928
0
VERTEX
8
CUT
10
248.5045
20
140.9320
0
VERTEX
8
CUT
10
248.2378
20
142.5994
0
VERTEX
8
CUT
10
248.2202
20
143.6985
0
VERTEX
8
CUT
10
248.2139
20
144.0886
0
VERTEX
8
CUT
10
248.2086
20
144.4199
0
VERTEX
8
CUT
10
248.1723
20
146.6877
0
VERTEX
8
CUT
10
248.5323
20
149.0000
0
VERTEX
8
CUT
10
248.5844
20
149.2691
0
VERTEX
8
CUT
10
248.6264
20
149.4503
0
VERTEX
8
CUT
10
248.6979
20
149.7149
0
VERTEX
8
CUT
10
251.2899
20
158.0724
0
VERTEX
8
CUT
10
251.3660
20
158.3893
0
VERTEX
8
CUT
10
251.5667
20
159.5565
0
VERTEX
8
CUT
10
251.6003
20
159.8691
0
VERTEX
8
CUT
10
251.6176
20
160.2566
0
VERTEX
8
CUT
10
251.6419
20
160.4155
0
VERTEX
8
CUT
10
251.6560
20
160.6375
0
VERTEX
8
CUT
10
251.6716
20
161.4716
0
VERTEX
8
CUT
10
251.7536
20
163.3186
0
VERTEX
8
CUT
10
251.7520
20
163.5730
0
VERTEX
8
CUT
10
251.7245
20
163.8259
0
VERTEX
8
CUT
10
251.4662
20
165.4345
0
VERTEX
8
CUT
10
251.4165
20
165.6707
0
VERTEX
8
CUT
10
251.3442
20
165.9010
0
VERTEX
8
CUT
10
250.9302
20
167.0269
0
VERTEX
8
CUT
10
250.9156
20
167.0674
0
VERTEX
8
CUT
10
250.9143
20
167.0700
0
VERTEX
8
CUT
10
250.7351
20
167.5573
0
VERTEX
8
CUT
10
250.6334
20
167.7952
0
VERTEX
8
CUT
10
250.5076
20
168.0214
0
VERTEX
8
CUT
10
249.9454
20
168.9192
0
VERTEX
8
CUT
10
249.8096
20
169.1146
0
VERTEX
8
CUT
10
249.6559
20
169.2962
0
VERTEX
8
CUT
10
249.0007
20
169.9998
0
VERTEX
8
CUT
10
248.7993
20
170.1931
0
VERTEX
8
CUT
10
248.5775
20
170.3629
0
VERTEX
8
CUT
10
247.9393
20
170.7971
0
VERTEX
8
CUT
10
247.7049
20
170.9384
0
VERTEX
8
CUT
10
247.4566
20
171.0532
0
VERTEX
8
CUT
10
246.8332
20
171.3011
0
VERTEX
8
CUT
10
246.5675
20
171.3898
0
VERTEX
8
CUT
10
246.2937
20
171.4483
0
VERTEX
8
CUT
10
245.5781
20
171.5595
0
VERTEX
8
CUT
10
245.3643
20
171.5834
0
VERTEX
8
CUT
10
245.1493
20
171.5888
0
VERTEX
8
CUT
10
244.9346
20
171.5757
0
VERTEX
8
CUT
10
244.3327
20
171.5129
0
VERTEX
8
CUT
10
244.0877
20
171.4750
0
VERTEX
8
CUT
10
243.8477
20
171.4130
0
VERTEX
8
CUT
10
243.7965
20
171.3942
0
VERTEX
8
CUT
10
243.6758
20
171.3644
0
VERTEX
8
CUT
10
243.3845
20
171.2732
0
VERTEX
8
CUT
10
243.1065
20
171.1472
0
VERTEX
8
CUT
10
242.7652
20
170.9667
0
VERTEX
8
CUT
10
242.4644
20
170.8389
0
VERTEX
8
CUT
10
242.2193
20
170.7187
0
VERTEX
8
CUT
10
241.9888
20
170.5724
0
VERTEX
8
CUT
10
241.8594
20
170.4689
0
VERTEX
8
CUT
10
241.8383
20
170.4560
0
VERTEX
8
CUT
10
241.6029
20
170.2709
0
VERTEX
8
CUT
10
241.3015
20
170.0032
0
VERTEX
8
CUT
10
241.0891
20
169.7903
0
VERTEX
8
CUT
10
240.9554
20
169.6195
0
VERTEX
8
CUT
10
240.9095
20
169.5646
0
VERTEX
8
CUT
10
240.2652
20
168.7115
0
VERTEX
8
CUT
10
240.1306
20
168.5144
0
VERTEX
8
CUT
10
240.0154
20
168.3054
0
VERTEX
8
CUT
10
239.9479
20
168.1677
0
VERTEX
8
CUT
10
239.8879
20
168.0808
0
VERTEX
8
CUT
10
239.7854
20
167.9192
0
VERTEX
8
CUT
10
239.6955
20
167.7503
0
VERTEX
8
CUT
10
237.9078
20
164.0559
0
VERTEX
8
CUT
10
237.9077
20
164.0557
0
VERTEX
8
CUT
10
237.7683
20
163.8337
0
VERTEX
8
CUT
10
237.2372
20
163.0502
0
VERTEX
8
CUT
10
237.1517
20
162.9293
0
VERTEX
8
CUT
10
237.1359
20
162.9079
0
VERTEX
8
CUT
10
236.9509
20
162.6766
0
VERTEX
8
CUT
10
236.9335
20
162.6565
0
VERTEX
8
CUT
10
236.8342
20
162.5465
0
VERTEX
8
CUT
10
236.4472
20
162.1342
0
VERTEX
8
CUT
10
236.3241
20
162.0091
0
VERTEX
8
CUT
10
236.3016
20
161.9872
0
VERTEX
8
CUT
10
236.0597
20
161.7736
0
VERTEX
8
CUT
10
235.8219
20
161.6003
0
VERTEX
8
CUT
10
235.5584
20
161.4438
0
VERTEX
8
CUT
10
235.2486
20
161.2989
0
VERTEX
8
CUT
10
234.9536
20
161.1962
0
VERTEX
8
CUT
10
234.6462
20
161.1228
0
VERTEX
8
CUT
10
234.3329
20
161.0806
0
VERTEX
8
CUT
10
234.0169
20
161.0701
0
VERTEX
8
CUT
10
233.7015
20
161.0914
0
VERTEX
8
CUT
10
233.3898
20
161.1442
0
VERTEX
8
CUT
10
233.0850
20
161.2281
0
VERTEX
8
CUT
10
232.7901
20
161.3421
0
VERTEX
8
CUT
10
232.5060
20
161.4863
0
VERTEX
8
CUT
10
232.2309
20
161.6631
0
VERTEX
8
CUT
10
231.9567
20
161.8821
0
VERTEX
8
CUT
10
231.9311
20
161.9047
0
VERTEX
8
CUT
10
231.7911
20
162.0353
0
VERTEX
8
CUT
10
230.9329
20
162.8775
0
VERTEX
8
CUT
10
230.7773
20
163.0395
0
VERTEX
8
CUT
10
230.7505
20
163.0692
0
VERTEX
8
CUT
10
230.4699
20
163.4198
0
VERTEX
8
CUT
10
230.4468
20
163.4524
0
VERTEX
8
CUT
10
230.3227
20
163.6397
0
VERTEX
8
CUT
10
229.5780
20
164.8405
0
VERTEX
8
CUT
10
229.4640
20
165.0373
0
VERTEX
8
CUT
10
229.4448
20
165.0729
0
VERTEX
8
CUT
10
229.2538
20
165.4853
0
VERTEX
8
CUT
10
229.2390
20
165.5230
0
VERTEX
8
CUT
10
229.1626
20
165.7371
0
VERTEX
8
CUT
10
228.6724
20
167.2542
0
VERTEX
8
CUT
10
228.6151
20
167.4494
0
VERTEX
8
CUT
10
228.6058
20
167.4845
0
VERTEX
8
CUT
10
228.5234
20
167.8827
0
VERTEX
8
CUT
10
228.5180
20
167.9186
0
VERTEX
8
CUT
10
228.4931
20
168.1205
0
VERTEX
8
CUT
10
228.0921
20
172.3075
0
VERTEX
8
CUT
10
228.0776
20
172.5257
0
VERTEX
8
CUT
10
228.0721
20
172.6740
0
VERTEX
8
CUT
10
228.0704
20
172.8927
0
VERTEX
8
CUT
10
228.1466
20
176.4922
0
VERTEX
8
CUT
10
228.2384
20
177.3996
0
VERTEX
8
CUT
10
228.7319
20
180.6290
0
VERTEX
8
CUT
10
228.7564
20
180.7711
0
VERTEX
8
CUT
10
228.7613
20
180.7965
0
VERTEX
8
CUT
10
228.8267
20
181.0775
0
VERTEX
8
CUT
10
228.8335
20
181.1025
0
VERTEX
8
CUT
10
228.8743
20
181.2409
0
VERTEX
8
CUT
10
230.0919
20
185.1006
0
VERTEX
8
CUT
10
230.1466
20
185.2614
0
VERTEX
8
CUT
10
230.1863
20
185.3698
0
VERTEX
8
CUT
10
230.2483
20
185.5280
0
VERTEX
8
CUT
10
231.1769
20
187.7479
0
VERTEX
8
CUT
10
231.2082
20
187.8207
0
VERTEX
8
CUT
10
231.2301
20
187.8699
0
VERTEX
8
CUT
10
231.2629
20
187.9420
0
VERTEX
8
CUT
10
233.9365
20
193.6440
0
VERTEX
8
CUT
10
236.5971
20
199.1613
0
VERTEX
8
CUT
10
236.6798
20
199.3528
0
VERTEX
8
CUT
10
236.9775
20
200.1297
0
VERTEX
8
CUT
10
238.1761
20
202.6861
0
VERTEX
8
CUT
10
238.2568
20
202.8787
0
VERTEX
8
CUT
10
238.3211
20
203.0774
0
VERTEX
8
CUT
10
239.1219
20
205.9558
0
VERTEX
8
CUT
10
239.1725
20
206.1762
0
VERTEX
8
CUT
10
239.2031
20
206.4003
0
VERTEX
8
CUT
10
239.2133
20
206.6262
0
VERTEX
8
CUT
10
239.2133
20
206.9975
0
VERTEX
8
CUT
10
239.2294
20
207.0690
0
VERTEX
8
CUT
10
239.2670
20
207.2753
0
VERTEX
8
CUT
10
239.2872
20
207.4840
0
VERTEX
8
CUT
10
239.3580
20
208.7823
0
VERTEX
8
CUT
10
239.4111
20
209.1779
0
VERTEX
8
CUT
10
239.4323
20
209.4381
0
VERTEX
8
CUT
10
239.4262
20
209.6991
0
VERTEX
8
CUT
10
239.4157
20
209.8385
0
VERTEX
8
CUT
10
239.4316
20
210.1298
0
VERTEX
8
CUT
10
239.4324
20
210.3868
0
VERTEX
8
CUT
10
239.4068
20
210.6424
0
VERTEX
8
CUT
10
239.3035
20
211.3204
0
VERTEX
8
CUT
10
239.2639
20
211.8440
0
VERTEX
8
CUT
10
239.2400
20
212.0481
0
VERTEX
8
CUT
10
239.2125
20
212.1845
0
VERTEX
8
CUT
10
239.2124
20
212.6658
0
VERTEX
8
CUT
10
239.2028
20
212.8844
0
VERTEX
8
CUT
10
239.1741
20
213.1014
0
VERTEX
8
CUT
10
239.1265
20
213.3150
0
VERTEX
8
CUT
10
238.7502
20
214.7137
0
VERTEX
8
CUT
10
238.6676
20
214.9662
0
VERTEX
8
CUT
10
238.5587
20
215.2086
0
VERTEX
8
CUT
10
237.8883
20
216.5106
0
VERTEX
8
CUT
10
237.7560
20
216.7374
0
VERTEX
8
CUT
10
237.6007
20
216.9490
0
VERTEX
8
CUT
10
236.7491
20
217.9900
0
VERTEX
8
CUT
10
236.5566
20
218.1997
0
VERTEX
8
CUT
10
236.3415
20
218.3862
0
VERTEX
8
CUT
10
236.2899
20
218.4260
0
VERTEX
8
CUT
10
236.1170
20
218.5870
0
VERTEX
8
CUT
10
235.9248
20
218.7340
0
VERTEX
8
CUT
10
235.7496
20
218.8430
0
VERTEX
8
CUT
10
235.5077
20
219.0296
0
VERTEX
8
CUT
10
235.3300
20
219.1549
0
VERTEX
8
CUT
10
235.1421
20
219.2642
0
VERTEX
8
CUT
10
234.9453
20
219.3567
0
VERTEX
8
CUT
10
234.0756
20
219.7206
0
VERTEX
8
CUT
10
233.8796
20
219.7932
0
VERTEX
8
CUT
10
233.6782
20
219.8491
0
VERTEX
8
CUT
10
233.4729
20
219.8880
0
VERTEX
8
CUT
10
232.6289
20
220.0116
0
VERTEX
8
CUT
10
232.3978
20
220.0345
0
VERTEX
8
CUT
10
232.1656
20
220.0359
0
VERTEX
8
CUT
10
231.9342
20
220.0158
0
VERTEX
8
CUT
10
231.0571
20
219.8981
0
VERTEX
8
CUT
10
230.8270
20
219.8562
0
VERTEX
8
CUT
10
230.6017
20
219.7929
0
VERTEX
8
CUT
10
230.3834
20
219.7089
0
VERTEX
8
CUT
10
229.5549
20
219.3447
0
VERTEX
8
CUT
10
229.3551
20
219.2460
0
VERTEX
8
CUT
10
229.1648
20
219.1298
0
VERTEX
8
CUT
10
228.9856
20
218.9972
0
VERTEX
8
CUT
10
228.6906
20
218.7578
0
VERTEX
8
CUT
10
228.2744
20
218.4605
0
VERTEX
8
CUT
10
228.0941
20
218.3188
0
VERTEX
8
CUT
10
227.9275
20
218.1611
0
VERTEX
8
CUT
10
227.8121
20
218.0298
0
VERTEX
8
CUT
10
227.7875
20
218.0077
0
VERTEX
8
CUT
10
227.6145
20
217.8158
0
VERTEX
8
CUT
10
226.4856
20
216.4263
0
VERTEX
8
CUT
10
226.3502
20
216.2432
0
VERTEX
8
CUT
10
226.2320
20
216.0486
0
VERTEX
8
CUT
10
225.9241
20
215.4850
0
VERTEX
8
CUT
10
225.8201
20
215.2710
0
VERTEX
8
CUT
10
225.7369
20
215.0481
0
VERTEX
8
CUT
10
225.1139
20
213.1007
0
VERTEX
8
CUT
10
225.0484
20
212.8528
0
VERTEX
8
CUT
10
225.0086
20
212.5994
0
VERTEX
8
CUT
10
224.9740
20
212.2687
0
VERTEX
8
CUT
10
224.7968
20
211.3816
0
VERTEX
8
CUT
10
224.7592
20
211.1244
0
VERTEX
8
CUT
10
223.9854
20
202.8324
0
VERTEX
8
CUT
10
223.9748
20
202.7313
0
VERTEX
8
CUT
10
223.9517
20
202.5524
0
VERTEX
8
CUT
10
223.9331
20
202.4313
0
VERTEX
8
CUT
10
223.9014
20
202.2537
0
VERTEX
8
CUT
10
223.3123
20
199.3568
0
VERTEX
8
CUT
10
223.2534
20
199.1101
0
VERTEX
8
CUT
10
223.2078
20
198.9442
0
VERTEX
8
CUT
10
223.1323
20
198.7020
0
VERTEX
8
CUT
10
223.1009
20
198.6120
0
VERTEX
8
CUT
10
222.6145
20
197.3791
0
VERTEX
8
CUT
10
222.5293
20
197.2279
0
VERTEX
8
CUT
10
221.7351
20
195.8981
0
VERTEX
8
CUT
10
221.6426
20
195.7510
0
VERTEX
8
CUT
10
221.6254
20
195.7251
0
VERTEX
8
CUT
10
221.4371
20
195.4673
0
VERTEX
8
CUT
10
221.2257
20
195.2281
0
VERTEX
8
CUT
10
221.2040
20
195.2058
0
VERTEX
8
CUT
10
221.0803
20
195.0839
0
VERTEX
8
CUT
10
220.1910
20
194.2480
0
VERTEX
8
CUT
10
220.0627
20
194.1328
0
VERTEX
8
CUT
10
220.0392
20
194.1127
0
VERTEX
8
CUT
10
219.7893
20
193.9178
0
VERTEX
8
CUT
10
219.5459
20
193.7616
0
VERTEX
8
CUT
10
219.2892
20
193.6284
0
VERTEX
8
CUT
10
219.0274
20
193.5218
0
VERTEX
8
CUT
10
218.7276
20
193.4318
0
VERTEX
8
CUT
10
218.3809
20
193.3657
0
VERTEX
8
CUT
10
218.0482
20
193.3387
0
VERTEX
8
CUT
10
217.6805
20
193.3481
0
VERTEX
8
CUT
10
217.6449
20
193.3510
0
VERTEX
8
CUT
10
217.4458
20
193.3721
0
VERTEX
8
CUT
10
217.2790
20
193.3944
0
VERTEX
8
CUT
10
217.1057
20
193.4216
0
VERTEX
8
CUT
10
217.0749
20
193.4272
0
VERTEX
8
CUT
10
216.7606
20
193.4995
0
VERTEX
8
CUT
10
216.4814
20
193.5919
0
VERTEX
8
CUT
10
216.2120
20
193.7100
0
VERTEX
8
CUT
10
215.9301
20
193.8665
0
VERTEX
8
CUT
10
215.9034
20
193.8830
0
VERTEX
8
CUT
10
215.7564
20
193.9787
0
VERTEX
8
CUT
10
215.3657
20
194.2461
0
VERTEX
8
CUT
10
215.2179
20
194.3527
0
VERTEX
8
CUT
10
215.1920
20
194.3724
0
VERTEX
8
CUT
10
214.9353
20
194.5875
0
VERTEX
8
CUT
10
214.7213
20
194.8056
0
VERTEX
8
CUT
10
214.5110
20
195.0663
0
VERTEX
8
CUT
10
214.4918
20
195.0926
0
VERTEX
8
CUT
10
214.3880
20
195.2423
0
VERTEX
8
CUT
10
213.6582
20
196.3522
0
VERTEX
8
CUT
10
213.5725
20
196.4889
0
VERTEX
8
CUT
10
213.5577
20
196.5137
0
VERTEX
8
CUT
10
213.4166
20
196.7746
0
VERTEX
8
CUT
10
213.2985
20
197.0467
0
VERTEX
8
CUT
10
213.2882
20
197.0737
0
VERTEX
8
CUT
10
213.2336
20
197.2255
0
VERTEX
8
CUT
10
212.6849
20
198.8624
0
VERTEX
8
CUT
10
212.1316
20
202.8111
0
VERTEX
8
CUT
10
212.1269
20
202.8548
0
VERTEX
8
CUT
10
212.0798
20
203.7787
0
VERTEX
8
CUT
10
212.0783
20
203.9110
0
VERTEX
8
CUT
10
212.3675
20
208.3523
0
VERTEX
8
CUT
10
212.3804
20
208.5032
0
VERTEX
8
CUT
10
212.3912
20
208.6056
0
VERTEX
8
CUT
10
212.4102
20
208.7558
0
VERTEX
8
CUT
10
214.0409
20
219.8606
0
VERTEX
8
CUT
10
214.0442
20
219.8835
0
VERTEX
8
CUT
10
214.0448
20
219.8877
0
VERTEX
8
CUT
10
214.0562
20
219.9845
0
VERTEX
8
CUT
10
214.5294
20
224.8204
0
VERTEX
8
CUT
10
214.5407
20
225.1193
0
VERTEX
8
CUT
10
214.4908
20
227.3651
0
VERTEX
8
CUT
10
214.4702
20
227.6353
0
VERTEX
8
CUT
10
214.1639
20
229.9664
0
VERTEX
8
CUT
10
214.1007
20
230.2852
0
VERTEX
8
CUT
10
213.2332
20
233.5372
0
VERTEX
8
CUT
10
213.1589
20
233.7696
0
VERTEX
8
CUT
10
213.0622
20
233.9936
0
VERTEX
8
CUT
10
212.3418
20
235.4625
0
VERTEX
8
CUT
10
212.2285
20
235.6685
0
VERTEX
8
CUT
10
212.0963
20
235.8630
0
VERTEX
8
CUT
10
211.1527
20
237.1194
0
VERTEX
8
CUT
10
211.0136
20
237.2887
0
VERTEX
8
CUT
10
210.8602
20
237.4451
0
VERTEX
8
CUT
10
210.0006
20
238.2481
0
VERTEX
8
CUT
10
209.8171
20
238.4037
0
VERTEX
8
CUT
10
209.6194
20
238.5409
0
VERTEX
8
CUT
10
209.4095
20
238.6585
0
VERTEX
8
CUT
10
208.6427
20
239.0408
0
VERTEX
8
CUT
10
208.3852
20
239.1517
0
VERTEX
8
CUT
10
208.1169
20
239.2330
0
VERTEX
8
CUT
10
206.9631
20
239.5130
0
VERTEX
8
CUT
10
206.7413
20
239.5564
0
VERTEX
8
CUT
10
206.5164
20
239.5795
0
VERTEX
8
CUT
10
206.2903
20
239.5822
0
VERTEX
8
CUT
10
205.4524
20
239.5543
0
VERTEX
8
CUT
10
205.1862
20
239.5312
0
VERTEX
8
CUT
10
204.9239
20
239.4798
0
VERTEX
8
CUT
10
204.6687
20
239.4006
0
VERTEX
8
CUT
10
200.6921
20
237.9307
0
VERTEX
8
CUT
10
200.5142
20
237.8700
0
VERTEX
8
CUT
10
200.4822
20
237.8599
0
VERTEX
8
CUT
10
200.1184
20
237.7655
0
VERTEX
8
CUT
10
200.0855
20
237.7588
0
VERTEX
8
CUT
10
199.9005
20
237.7254
0
VERTEX
8
CUT
10
199.5255
20
237.6674
0
VERTEX
8
CUT
10
199.3522
20
237.6447
0
VERTEX
8
CUT
10
199.3212
20
237.6413
0
VERTEX
8
CUT
10
199.0005
20
237.6220
0
VERTEX
8
CUT
10
198.7075
20
237.6316
0
VERTEX
8
CUT
10
198.4167
20
237.6685
0
VERTEX
8
CUT
10
198.1031
20
237.7385
0
VERTEX
8
CUT
10
198.0730
20
237.7467
0
VERTEX
8
CUT
10
197.9054
20
237.7966
0
VERTEX
8
CUT
10
197.7170
20
237.8575
0
VERTEX
8
CUT
10
197.5523
20
237.9150
0
VERTEX
8
CUT
10
197.5231
20
237.9260
0
VERTEX
8
CUT
10
197.2283
20
238.0526
0
VERTEX
8
CUT
10
196.9466
20
238.2061
0
VERTEX
8
CUT
10
196.9199
20
238.2223
0
VERTEX
8
CUT
10
196.7729
20
238.3162
0
VERTEX
8
CUT
10
196.2101
20
238.6946
0
VERTEX
8
CUT
10
196.0359
20
238.8191
0
VERTEX
8
CUT
10
196.0055
20
238.8422
0
VERTEX
8
CUT
10
195.6798
20
239.1200
0
VERTEX
8
CUT
10
195.6522
20
239.1464
0
VERTEX
8
CUT
10
195.5017
20
239.2988
0
VERTEX
8
CUT
10
194.2348
20
240.6578
0
VERTEX
8
CUT
10
194.1198
20
240.7871
0
VERTEX
8
CUT
10
194.0997
20
240.8106
0
VERTEX
8
CUT
10
193.9052
20
241.0622
0
VERTEX
8
CUT
10
193.7348
20
241.3307
0
VERTEX
8
CUT
10
193.7194
20
241.3575
0
VERTEX
8
CUT
10
193.6370
20
241.5096
0
VERTEX
8
CUT
10
192.7705
20
243.2007
0
VERTEX
8
CUT
10
192.7020
20
243.3415
0
VERTEX
8
CUT
10
192.6903
20
243.3669
0
VERTEX
8
CUT
10
192.5809
20
243.6331
0
VERTEX
8
CUT
10
192.4940
20
243.9074
0
VERTEX
8
CUT
10
192.4867
20
243.9345
0
VERTEX
8
CUT
10
192.4489
20
244.0864
0
VERTEX
8
CUT
10
191.8325
20
246.8040
0
VERTEX
8
CUT
10
191.7835
20
247.0613
0
VERTEX
8
CUT
10
191.7563
20
247.2370
0
VERTEX
8
CUT
10
191.7254
20
247.4972
0
VERTEX
8
CUT
10
191.5732
20
249.3209
0
VERTEX
8
CUT
10
191.5624
20
249.5266
0
VERTEX
8
CUT
10
191.5440
20
249.8758
0
VERTEX
8
CUT
10
191.5244
20
250.2478
0
VERTEX
8
CUT
10
191.4617
20
251.4402
0
VERTEX
8
CUT
10
191.2843
20
259.1592
0
VERTEX
8
CUT
10
191.2670
20
259.4008
0
VERTEX
8
CUT
10
191.1556
20
260.3248
0
VERTEX
8
CUT
10
191.1543
20
260.4508
0
VERTEX
8
CUT
10
191.1303
20
260.6819
0
VERTEX
8
CUT
10
191.0434
20
261.2561
0
VERTEX
8
CUT
10
190.7873
20
263.3818
0
VERTEX
8
CUT
10
190.7476
20
263.6166
0
VERTEX
8
CUT
10
190.6857
20
263.8465
0
VERTEX
8
CUT
10
190.1668
20
265.4636
0
VERTEX
8
CUT
10
190.0939
20
265.6618
0
VERTEX
8
CUT
10
190.0045
20
265.8531
0
VERTEX
8
CUT
10
189.7073
20
266.4246
0
VERTEX
8
CUT
10
189.6403
20
266.5904
0
VERTEX
8
CUT
10
189.5134
20
266.8576
0
VERTEX
8
CUT
10
189.3558
20
267.1079
0
VERTEX
8
CUT
10
189.3420
20
267.1271
0
VERTEX
8
CUT
10
189.1300
20
267.5350
0
VERTEX
8
CUT
10
188.9983
20
267.7590
0
VERTEX
8
CUT
10
188.8441
20
267.9680
0
VERTEX
8
CUT
10
187.8042
20
269.2348
0
VERTEX
8
CUT
10
187.6395
20
269.4165
0
VERTEX
8
CUT
10
187.4577
20
269.5812
0
VERTEX
8
CUT
10
187.2606
20
269.7273
0
VERTEX
8
CUT
10
187.0502
20
269.8534
0
VERTEX
8
CUT
10
186.8285
20
269.9583
0
VERTEX
8
CUT
10
186.5975
20
270.0409
0
VERTEX
8
CUT
10
186.3596
20
270.1005
0
VERTEX
8
CUT
10
186.1169
20
270.1365
0
VERTEX
8
CUT
10
185.8719
20
270.1485
0
VERTEX
8
CUT
10
185.6086
20
270.1485
0
VERTEX
8
CUT
10
185.4548
20
270.1485
0
VERTEX
8
CUT
10
185.4077
20
270.1485
0
VERTEX
8
CUT
10
180.0563
20
270.1485
0
VERTEX
8
CUT
10
180.0344
20
270.1485
0
VERTEX
8
CUT
10
179.9330
20
270.1485
0
VERTEX
8
CUT
10
179.8911
20
270.1485
0
VERTEX
8
CUT
10
179.6560
20
270.1374
0
VERTEX
8
CUT
10
179.4229
20
270.1043
0
VERTEX
8
CUT
10
179.1940
20
270.0494
0
VERTEX
8
CUT
10
178.9712
20
269.9731
0
VERTEX
8
CUT
10
178.7566
20
269.8763
0
VERTEX
8
CUT
10
178.5521
20
269.7597
0
VERTEX
8
CUT
10
178.3595
20
269.6244
0
VERTEX
8
CUT
10
178.1804
20
269.4716
0
VERTEX
8
CUT
10
178.0165
20
269.3026
0
VERTEX
8
CUT
10
177.2701
20
268.4566
0
VERTEX
8
CUT
10
177.1229
20
268.2731
0
VERTEX
8
CUT
10
176.9937
20
268.0766
0
VERTEX
8
CUT
10
176.3612
20
267.0087
0
VERTEX
8
CUT
10
176.2435
20
266.7850
0
VERTEX
8
CUT
10
176.1491
20
266.5505
0
VERTEX
8
CUT
10
175.8035
20
265.5493
0
VERTEX
8
CUT
10
175.8028
20
265.5477
0
VERTEX
8
CUT
10
175.8024
20
265.5463
0
VERTEX
8
CUT
10
175.3490
20
264.2329
0
VERTEX
8
CUT
10
175.2757
20
263.9770
0
VERTEX
8
CUT
10
175.2300
20
263.7148
0
VERTEX
8
CUT
10
174.9605
20
261.4671
0
VERTEX
8
CUT
10
174.9428
20
261.1415
0
VERTEX
8
CUT
10
174.9981
20
256.2051
0
VERTEX
8
CUT
10
174.9988
20
256.1688
0
VERTEX
8
CUT
10
174.9989
20
256.1623
0
VERTEX
8
CUT
10
175.0075
20
256.0097
0
VERTEX
8
CUT
10
175.6465
20
248.6697
0
VERTEX
8
CUT
10
175.6560
20
248.5311
0
VERTEX
8
CUT
10
175.6572
20
248.5062
0
VERTEX
8
CUT
10
175.6607
20
248.2280
0
VERTEX
8
CUT
10
175.6601
20
248.2031
0
VERTEX
8
CUT
10
175.6541
20
248.0641
0
VERTEX
8
CUT
10
175.4267
20
244.3718
0
VERTEX
8
CUT
10
175.4257
20
244.3601
0
VERTEX
8
CUT
10
174.7935
20
241.8300
0
VERTEX
8
CUT
10
174.7434
20
241.6491
0
VERTEX
8
CUT
10
174.7345
20
241.6199
0
VERTEX
8
CUT
10
174.7108
20
241.5694
0
VERTEX
8
CUT
10
173.8705
20
239.8819
0
VERTEX
8
CUT
10
173.8631
20
239.8680
0
VERTEX
8
CUT
10
173.7313
20
239.6931
0
VERTEX
8
CUT
10
173.7111
20
239.6689
0
VERTEX
8
CUT
10
173.5952
20
239.5358
0
VERTEX
8
CUT
10
173.2780
20
239.1887
0
VERTEX
8
CUT
10
173.1597
20
239.0649
0
VERTEX
8
CUT
10
173.1380
20
239.0433
0
VERTEX
8
CUT
10
172.8850
20
238.8126
0
VERTEX
8
CUT
10
172.8614
20
238.7931
0
VERTEX
8
CUT
10
172.7273
20
238.6866
0
VERTEX
8
CUT
10
172.3627
20
238.4107
0
VERTEX
8
CUT
10
172.2118
20
238.3023
0
VERTEX
8
CUT
10
172.1844
20
238.2836
0
VERTEX
8
CUT
10
171.8931
20
238.1056
0
VERTEX
8
CUT
10
171.5857
20
237.9572
0
VERTEX
8
CUT
10
171.5551
20
237.9443
0
VERTEX
8
CUT
10
171.3982
20
237.8824
0
VERTEX
8
CUT
10
171.2406
20
237.8291
0
VERTEX
8
CUT
10
171.2092
20
237.8194
0
VERTEX
8
CUT
10
170.8822
20
237.7350
0
VERTEX
8
CUT
10
170.5778
20
237.6876
0
VERTEX
8
CUT
10
170.2703
20
237.6702
0
VERTEX
8
CUT
10
169.9624
20
237.6829
0
VERTEX
8
CUT
10
169.6574
20
237.7257
0
VERTEX
8
CUT
10
169.3579
20
237.7982
0
VERTEX
8
CUT
10
169.0670
20
237.8996
0
VERTEX
8
CUT
10
168.7874
20
238.0290
0
VERTEX
8
CUT
10
168.4963
20
238.2002
0
VERTEX
8
CUT
10
168.4689
20
238.2182
0
VERTEX
8
CUT
10
168.3178
20
238.3227
0
VERTEX
8
CUT
10
167.5898
20
238.8528
0
VERTEX
8
CUT
10
167.4482
20
238.9613
0
VERTEX
8
CUT
10
167.4233
20
238.9812
0
VERTEX
8
CUT
10
167.1563
20
239.2176
0
VERTEX
8
CUT
10
167.1334
20
239.2399
0
VERTEX
8
CUT
10
167.0086
20
239.3674
0
VERTEX
8
CUT
10
166.6696
20
239.7306
0
VERTEX
8
CUT
10
166.3830
20
240.0744
0
VERTEX
8
CUT
10
166.2218
20
240.2917
0
VERTEX
8
CUT
10
166.2011
20
240.3232
0
VERTEX
8
CUT
10
166.0900
20
240.5030
0
VERTEX
8
CUT
10
165.3732
20
241.7389
0
VERTEX
8
CUT
10
165.2740
20
241.9213
0
VERTEX
8
CUT
10
165.2573
20
241.9544
0
VERTEX
8
CUT
10
165.0900
20
242.3343
0
VERTEX
8
CUT
10
165.0770
20
242.3689
0
VERTEX
8
CUT
10
165.0093
20
242.5653
0
VERTEX
8
CUT
10
163.8039
20
246.4079
0
VERTEX
8
CUT
10
163.7318
20
246.6710
0
VERTEX
8
CUT
10
163.6893
20
246.8511
0
VERTEX
8
CUT
10
163.6365
20
247.1188
0
VERTEX
8
CUT
10
162.1296
20
256.5506
0
VERTEX
8
CUT
10
162.0688
20
257.0135
0
VERTEX
8
CUT
10
162.0636
20
257.0510
0
VERTEX
8
CUT
10
162.0626
20
257.0578
0
VERTEX
8
CUT
10
162.0345
20
257.2146
0
VERTEX
8
CUT
10
161.9901
20
257.4233
0
VERTEX
8
CUT
10
161.7881
20
258.6876
0
VERTEX
8
CUT
10
161.7274
20
258.9652
0
VERTEX
8
CUT
10
161.4556
20
259.9389
0
VERTEX
8
CUT
10
161.2922
20
260.7082
0
VERTEX
8
CUT
10
161.2840
20
260.7457
0
VERTEX
8
CUT
10
161.2825
20
260.7522
0
VERTEX
8
CUT
10
161.2420
20
260.9066
0
VERTEX
8
CUT
10
160.6813
20
262.7957
0
VERTEX
8
CUT
10
160.5882
20
263.0556
0
VERTEX
8
CUT
10
160.5811
20
263.0725
0
VERTEX
8
CUT
10
160.5247
20
263.2747
0
VERTEX
8
CUT
10
160.4576
20
263.4803
0
VERTEX
8
CUT
10
160.3729
20
263.6794
0
VERTEX
8
CUT
10
159.9635
20
264.5373
0
VERTEX
8
CUT
10
159.6177
20
265.3574
0
VERTEX
8
CUT
10
159.4644
20
265.6614
0
VERTEX
8
CUT
10
159.2731
20
265.9839
0
VERTEX
8
CUT
10
158.8163
20
266.9412
0
VERTEX
8
CUT
10
158.6797
20
267.1899
0
VERTEX
8
CUT
10
158.5159
20
267.4215
0
VERTEX
8
CUT
10
157.0956
20
269.2056
0
VERTEX
8
CUT
10
156.9307
20
269.3928
0
VERTEX
8
CUT
10
156.7479
20
269.5626
0
VERTEX
8
CUT
10
156.5492
20
269.7133
0
VERTEX
8
CUT
10
156.3364
20
269.8435
0
VERTEX
8
CUT
10
156.1117
20
269.9519
0
VERTEX
8
CUT
10
155.8773
20
270.0372
0
VERTEX
8
CUT
10
155.6355
20
270.0989
0
VERTEX
8
CUT
10
155.3889
20
270.1361
0
VERTEX
8
CUT
10
155.1397
20
270.1485
0
VERTEX
8
CUT
10
155.0979
20
270.1485
0
VERTEX
8
CUT
10
155.0045
20
270.1485
0
VERTEX
8
CUT
10
155.0022
20
270.1485
0
VERTEX
8
CUT
10
141.7655
20
270.1485
0
VERTEX
8
CUT
10
141.6977
20
270.1485
0
VERTEX
8
CUT
10
141.6446
20
270.1485
0
VERTEX
8
CUT
10
141.5828
20
270.1485
0
VERTEX
8
CUT
10
141.3419
20
270.1369
0
VERTEX
8
CUT
10
141.1033
20
270.1021
0
VERTEX
8
CUT
10
140.8691
20
270.0445
0
VERTEX
8
CUT
10
140.6416
20
269.9646
0
VERTEX
8
CUT
10
140.4228
20
269.8631
0
VERTEX
8
CUT
10
140.2148
20
269.7410
0
VERTEX
8
CUT
10
140.0195
20
269.5995
0
VERTEX
8
CUT
10
139.8388
20
269.4398
0
VERTEX
8
CUT
10
139.6744
20
269.2634
0
VERTEX
8
CUT
10
139.5276
20
269.0720
0
VERTEX
8
CUT
10
139.1640
20
268.5470
0
VERTEX
8
CUT
10
139.1349
20
268.5109
0
VERTEX
8
CUT
10
139.0435
20
268.3730
0
VERTEX
8
CUT
10
138.3437
20
267.3627
0
VERTEX
8
CUT
10
138.2062
20
267.1401
0
VERTEX
8
CUT
10
138.0927
20
266.9043
0
VERTEX
8
CUT
10
136.8402
20
263.9116
0
VERTEX
8
CUT
10
136.7629
20
263.7007
0
VERTEX
8
CUT
10
135.0870
20
258.4048
0
VERTEX
8
CUT
10
135.0326
20
258.2453
0
VERTEX
8
CUT
10
135.0222
20
258.2170
0
VERTEX
8
CUT
10
134.8922
20
257.9062
0
VERTEX
8
CUT
10
134.8793
20
257.8790
0
VERTEX
8
CUT
10
134.8039
20
257.7283
0
VERTEX
8
CUT
10
133.8366
20
255.8982
0
VERTEX
8
CUT
10
133.7351
20
255.7184
0
VERTEX
8
CUT
10
133.7161
20
255.6868
0
VERTEX
8
CUT
10
133.4842
20
255.3452
0
VERTEX
8
CUT
10
133.4619
20
255.3159
0
VERTEX
8
CUT
10
133.3322
20
255.1552
0
VERTEX
8
CUT
10
132.8328
20
254.5702
0
VERTEX
8
CUT
10
132.6941
20
254.4166
0
VERTEX
8
CUT
10
132.6687
20
254.3899
0
VERTEX
8
CUT
10
132.3671
20
254.1068
0
VERTEX
8
CUT
10
132.3389
20
254.0831
0
VERTEX
8
CUT
10
132.1768
20
253.9544
0
VERTEX
8
CUT
10
131.8056
20
253.6761
0
VERTEX
8
CUT
10
131.6651
20
253.5756
0
VERTEX
8
CUT
10
131.6396
20
253.5583
0
VERTEX
8
CUT
10
131.3691
20
253.3919
0
VERTEX
8
CUT
10
131.1094
20
253.2636
0
VERTEX
8
CUT
10
130.8390
20
253.1596
0
VERTEX
8
CUT
10
130.5602
20
253.0810
0
VERTEX
8
CUT
10
130.2753
20
253.0283
0
VERTEX
8
CUT
10
129.9591
20
252.9996
0
VERTEX
8
CUT
10
129.9282
20
252.9982
0
VERTEX
8
CUT
10
129.7555
20
252.9945
0
VERTEX
8
CUT
10
129.4926
20
252.9949
0
VERTEX
8
CUT
10
129.3315
20
252.9986
0
VERTEX
8
CUT
10
129.3027
20
252.9999
0
VERTEX
8
CUT
10
129.0077
20
253.0257
0
VERTEX
8
CUT
10
128.7160
20
253.0768
0
VERTEX
8
CUT
10
128.6878
20
253.0830
0
VERTEX
8
CUT
10
128.5313
20
253.1209
0
VERTEX
8
CUT
10
128.2553
20
253.1941
0
VERTEX
8
CUT
10
128.1015
20
253.2385
0
VERTEX
8
CUT
10
128.0741
20
253.2470
0
VERTEX
8
CUT
10
127.7971
20
253.3464
0
VERTEX
8
CUT
10
127.5296
20
253.4692
0
VERTEX
8
CUT
10
127.5041
20
253.4822
0
VERTEX
8
CUT
10
127.3631
20
253.5581
0
VERTEX
8
CUT
10
127.1305
20
253.6899
0
VERTEX
8
CUT
10
126.9922
20
253.7722
0
VERTEX
8
CUT
10
126.9678
20
253.7875
0
VERTEX
8
CUT
10
126.7239
20
253.9548
0
VERTEX
8
CUT
10
126.4952
20
254.1424
0
VERTEX
8
CUT
10
126.4738
20
254.1616
0
VERTEX
8
CUT
10
126.3562
20
254.2715
0
VERTEX
8
CUT
10
126.0967
20
254.5246
0
VERTEX
8
CUT
10
126.0583
20
254.5644
0
VERTEX
8
CUT
10
125.9704
20
254.6723
0
VERTEX
8
CUT
10
125.9244
20
254.7287
0
VERTEX
8
CUT
10
125.9075
20
254.7494
0
VERTEX
8
CUT
10
125.5440
20
255.1955
0
VERTEX
8
CUT
10
125.4813
20
255.2898
0
VERTEX
8
CUT
10
124.7285
20
256.4991
0
VERTEX
8
CUT
10
124.6459
20
256.6384
0
VERTEX
8
CUT
10
124.6316
20
256.6637
0
VERTEX
8
CUT
10
124.6003
20
256.7252
0
VERTEX
8
CUT
10
124.4838
20
256.9608
0
VERTEX
8
CUT
10
124.3850
20
257.2055
0
VERTEX
8
CUT
10
124.3753
20
257.2329
0
VERTEX
8
CUT
10
124.3245
20
257.3867
0
VERTEX
8
CUT
10
124.0564
20
258.2610
0
VERTEX
8
CUT
10
124.0126
20
258.4156
0
VERTEX
8
CUT
10
124.0054
20
258.4435
0
VERTEX
8
CUT
10
123.9378
20
258.7577
0
VERTEX
8
CUT
10
123.9330
20
258.7860
0
VERTEX
8
CUT
10
123.9094
20
258.9450
0
VERTEX
8
CUT
10
123.7208
20
260.4334
0
VERTEX
8
CUT
10
123.7016
20
260.6247
0
VERTEX
8
CUT
10
123.6918
20
260.7550
0
VERTEX
8
CUT
10
123.6824
20
260.9470
0
VERTEX
8
CUT
10
123.5715
20
265.6779
0
VERTEX
8
CUT
10
123.5586
20
265.8796
0
VERTEX
8
CUT
10
123.3462
20
267.9088
0
VERTEX
8
CUT
10
123.3089
20
268.1503
0
VERTEX
8
CUT
10
123.2482
20
268.3869
0
VERTEX
8
CUT
10
123.1648
20
268.6165
0
VERTEX
8
CUT
10
123.0593
20
268.8369
0
VERTEX
8
CUT
10
122.9328
20
269.0459
0
VERTEX
8
CUT
10
122.7865
20
269.2416
0
VERTEX
8
CUT
10
122.6218
20
269.4221
0
VERTEX
8
CUT
10
122.4402
20
269.5856
0
VERTEX
8
CUT
10
122.2436
20
269.7306
0
VERTEX
8
CUT
10
122.0338
20
269.8557
0
VERTEX
8
CUT
10
121.8127
20
269.9598
0
VERTEX
8
CUT
10
121.5826
20
270.0418
0
VERTEX
8
CUT
10
121.3455
20
270.1009
0
VERTEX
8
CUT
10
121.1038
20
270.1366
0
VERTEX
8
CUT
10
120.8598
20
270.1485
0
VERTEX
8
CUT
10
120.6831
20
270.1485
0
VERTEX
8
CUT
10
112.5961
20
270.1485
0
VERTEX
8
CUT
10
112.4485
20
270.1485
0
VERTEX
8
CUT
10
112.2063
20
270.1368
0
VERTEX
8
CUT
10
111.9663
20
270.1016
0
VERTEX
8
CUT
10
111.7309
20
270.0433
0
VERTEX
8
CUT
10
111.5022
20
269.9625
0
VERTEX
8
CUT
10
111.2825
20
269.8599
0
VERTEX
8
CUT
10
111.0737
20
269.7365
0
VERTEX
8
CUT
10
110.8778
20
269.5935
0
VERTEX
8
CUT
10
110.6967
20
269.4321
0
VERTEX
8
CUT
10
110.5322
20
269.2540
0
VERTEX
8
CUT
10
110.3856
20
269.0608
0
VERTEX
8
CUT
10
110.2585
20
268.8542
0
VERTEX
8
CUT
10
110.1519
20
268.6363
0
VERTEX
8
CUT
10
110.0670
20
268.4092
0
VERTEX
8
CUT
10
110.0045
20
268.1748
0
VERTEX
8
CUT
10
109.9650
20
267.9355
0
VERTEX
8
CUT
10
109.9489
20
267.6936
0
VERTEX
8
CUT
10
109.8980
20
264.8680
0
VERTEX
8
CUT
10
109.9033
20
264.6543
0
VERTEX
8
CUT
10
109.9268
20
264.4418
0
VERTEX
8
CUT
10
111.8897
20
251.7209
0
VERTEX
8
CUT
10
111.9182
20
251.4875
0
VERTEX
8
CUT
10
111.9326
20
251.3286
0
VERTEX
8
CUT
10
111.9465
20
251.0939
0
VERTEX
8
CUT
10
112.0759
20
246.4179
0
VERTEX
8
CUT
10
112.0771
20
246.2666
0
VERTEX
8
CUT
10
112.0767
20
246.2395
0
VERTEX
8
CUT
10
112.0607
20
245.9372
0
VERTEX
8
CUT
10
112.0581
20
245.9102
0
VERTEX
8
CUT
10
112.0410
20
245.7598
0
VERTEX
8
CUT
10
111.5155
20
241.8560
0
VERTEX
8
CUT
10
111.4710
20
241.5953
0
VERTEX
8
CUT
10
111.4606
20
241.5454
0
VERTEX
8
CUT
10
110.9945
20
239.8558
0
VERTEX
8
CUT
10
110.9321
20
239.6523
0
VERTEX
8
CUT
10
110.8858
20
239.5153
0
VERTEX
8
CUT
10
110.8119
20
239.3157
0
VERTEX
8
CUT
10
110.4411
20
238.3946
0
VERTEX
8
CUT
10
109.8567
20
237.0678
0
VERTEX
8
CUT
10
109.8243
20
236.9991
0
VERTEX
8
CUT
10
109.4918
20
236.4133
0
VERTEX
8
CUT
10
109.4360
20
236.3313
0
VERTEX
8
CUT
10
108.3725
20
234.8508
0
VERTEX
8
CUT
10
108.2816
20
234.7295
0
VERTEX
8
CUT
10
108.2649
20
234.7081
0
VERTEX
8
CUT
10
108.0688
20
234.4771
0
VERTEX
8
CUT
10
108.0504
20
234.4571
0
VERTEX
8
CUT
10
107.9455
20
234.3477
0
VERTEX
8
CUT
10
107.3263
20
233.7276
0
VERTEX
8
CUT
10
107.1757
20
233.5849
0
VERTEX
8
CUT
10
107.1482
20
233.5602
0
VERTEX
8
CUT
10
106.8245
20
233.3008
0
VERTEX
8
CUT
10
106.7944
20
233.2793
0
VERTEX
8
CUT
10
106.6222
20
233.1635
0
VERTEX
8
CUT
10
106.0894
20
232.8258
0
VERTEX
8
CUT
10
105.9181
20
232.7236
0
VERTEX
8
CUT
10
105.8871
20
232.7062
0
VERTEX
8
CUT
10
105.5585
20
232.5440
0
VERTEX
8
CUT
10
105.2447
20
232.4288
0
VERTEX
8
CUT
10
104.8893
20
232.3397
0
VERTEX
8
CUT
10
104.8544
20
232.3329
0
VERTEX
8
CUT
10
104.6894
20
232.3052
0
VERTEX
8
CUT
10
104.5107
20
232.2848
0
VERTEX
8
CUT
10
104.4764
20
232.2819
0
VERTEX
8
CUT
10
104.0745
20
232.2690
0
VERTEX
8
CUT
10
104.0387
20
232.2698
0
VERTEX
8
CUT
10
103.8378
20
232.2796
0
VERTEX
8
CUT
10
103.6088
20
232.2968
0
VERTEX
8
CUT
10
103.4349
20
232.3140
0
VERTEX
8
CUT
10
103.4039
20
232.3178
0
VERTEX
8
CUT
10
103.0873
20
232.3717
0
VERTEX
8
CUT
10
102.7770
20
232.4548
0
VERTEX
8
CUT
10
102.7473
20
232.4643
0
VERTEX
8
CUT
10
102.5821
20
232.5212
0
VERTEX
8
CUT
10
102.2042
20
232.6612
0
VERTEX
8
CUT
10
102.0436
20
232.7250
0
VERTEX
8
CUT
10
102.0151
20
232.7370
0
VERTEX
8
CUT
10
101.7286
20
232.8744
0
VERTEX
8
CUT
10
101.4799
20
233.0233
0
VERTEX
8
CUT
10
101.2459
20
233.1944
0
VERTEX
8
CUT
10
101.0078
20
233.4048
0
VERTEX
8
CUT
10
100.9856
20
233.4263
0
VERTEX
8
CUT
10
100.8643
20
233.5494
0
VERTEX
8
CUT
10
100.5129
20
233.9229
0
VERTEX
8
CUT
10
100.3770
20
234.0755
0
VERTEX
8
CUT
10
100.3535
20
234.1034
0
VERTEX
8
CUT
10
100.1274
20
234.4034
0
VERTEX
8
CUT
10
99.9353
20
234.7261
0
VERTEX
8
CUT
10
99.9184
20
234.7584
0
VERTEX
8
CUT
10
99.8285
20
234.9421
0
VERTEX
8
CUT
10
99.2393
20
236.2343
0
VERTEX
8
CUT
10
99.1670
20
236.4040
0
VERTEX
8
CUT
10
99.1548
20
236.4346
0
VERTEX
8
CUT
10
99.0355
20
236.7835
0
VERTEX
8
CUT
10
99.0264
20
236.8152
0
VERTEX
8
CUT
10
98.9798
20
236.9936
0
VERTEX
8
CUT
10
98.5551
20
238.7989
0
VERTEX
8
CUT
10
98.2536
20
241.8838
0
VERTEX
8
CUT
10
98.0916
20
244.4191
0
VERTEX
8
CUT
10
98.0490
20
244.7459
0
VERTEX
8
CUT
10
97.4749
20
247.6416
0
VERTEX
8
CUT
10
97.3981
20
247.9346
0
VERTEX
8
CUT
10
97.3299
20
248.1065
0
VERTEX
8
CUT
10
97.2761
20
248.3095
0
VERTEX
8
CUT
10
97.1924
20
248.5349
0
VERTEX
8
CUT
10
97.0875
20
248.7513
0
VERTEX
8
CUT
10
96.7207
20
249.4234
0
VERTEX
8
CUT
10
96.2672
20
250.3909
0
VERTEX
8
CUT
10
96.1485
20
250.6142
0
VERTEX
8
CUT
10
96.0078
20
250.8243
0
VERTEX
8
CUT
10
95.4523
20
251.5695
0
VERTEX
8
CUT
10
95.3179
20
251.7345
0
VERTEX
8
CUT
10
95.1700
20
251.8875
0
VERTEX
8
CUT
10
94.4531
20
252.5688
0
VERTEX
8
CUT
10
94.2885
20
252.7121
0
VERTEX
8
CUT
10
94.1120
20
252.8405
0
VERTEX
8
CUT
10
93.0814
20
253.5234
0
VERTEX
8
CUT
10
92.9048
20
253.6302
0
VERTEX
8
CUT
10
92.7200
20
253.7221
0
VERTEX
8
CUT
10
92.5282
20
253.7984
0
VERTEX
8
CUT
10
91.8006
20
254.0537
0
VERTEX
8
CUT
10
91.5853
20
254.1186
0
VERTEX
8
CUT
10
91.3651
20
254.1638
0
VERTEX
8
CUT
10
91.1416
20
254.1891
0
VERTEX
8
CUT
10
90.5128
20
254.2316
0
VERTEX
8
CUT
10
90.5117
20
254.2316
0
VERTEX
8
CUT
10
90.3804
20
254.2444
0
VERTEX
8
CUT
10
90.1307
20
254.2437
0
VERTEX
8
CUT
10
89.8824
20
254.2182
0
VERTEX
8
CUT
10
88.1854
20
253.9571
0
VERTEX
8
CUT
10
87.9364
20
253.9058
0
VERTEX
8
CUT
10
87.6938
20
253.8293
0
VERTEX
8
CUT
10
87.4603
20
253.7287
0
VERTEX
8
CUT
10
86.7457
20
253.3765
0
VERTEX
8
CUT
10
86.5511
20
253.2696
0
VERTEX
8
CUT
10
86.3707
20
253.1485
0
VERTEX
8
CUT
10
86.1646
20
253.0396
0
VERTEX
8
CUT
10
85.9635
20
252.9071
0
VERTEX
8
CUT
10
85.7761
20
252.7559
0
VERTEX
8
CUT
10
85.4475
20
252.4636
0
VERTEX
8
CUT
10
85.3710
20
252.4025
0
VERTEX
8
CUT
10
85.2339
20
252.2754
0
VERTEX
8
CUT
10
85.2167
20
252.2582
0
VERTEX
8
CUT
10
84.5316
20
251.6486
0
VERTEX
8
CUT
10
84.3782
20
251.4999
0
VERTEX
8
CUT
10
84.2380
20
251.3386
0
VERTEX
8
CUT
10
84.1121
20
251.1660
0
VERTEX
8
CUT
10
83.0980
20
249.6422
0
VERTEX
8
CUT
10
82.9720
20
249.4312
0
VERTEX
8
CUT
10
82.8674
20
249.2088
0
VERTEX
8
CUT
10
82.0143
20
247.1367
0
VERTEX
8
CUT
10
81.9356
20
246.9169
0
VERTEX
8
CUT
10
81.8778
20
246.6907
0
VERTEX
8
CUT
10
81.3641
20
244.2038
0
VERTEX
8
CUT
10
81.3173
20
243.8546
0
VERTEX
8
CUT
10
81.1421
20
241.0590
0
VERTEX
8
CUT
10
81.1374
20
240.8668
0
VERTEX
8
CUT
10
81.1476
20
240.6748
0
VERTEX
8
CUT
10
81.4367
20
237.5143
0
VERTEX
8
CUT
10
81.4751
20
237.2507
0
VERTEX
8
CUT
10
82.1086
20
234.0908
0
VERTEX
8
CUT
10
82.2017
20
233.7520
0
VERTEX
8
CUT
10
82.5438
20
232.7800
0
VERTEX
8
CUT
10
82.5458
20
232.7720
0
VERTEX
8
CUT
10
82.6130
20
232.5456
0
VERTEX
8
CUT
10
83.5008
20
230.0027
0
VERTEX
8
CUT
10
83.5020
20
229.9988
0
VERTEX
8
CUT
10
83.5052
20
229.9900
0
VERTEX
8
CUT
10
83.8191
20
229.0911
0
VERTEX
8
CUT
10
83.8952
20
228.8990
0
VERTEX
8
CUT
10
83.9669
20
228.7377
0
VERTEX
8
CUT
10
84.3176
20
227.7416
0
VERTEX
8
CUT
10
84.3928
20
227.5529
0
VERTEX
8
CUT
10
90.4723
20
213.9299
0
VERTEX
8
CUT
10
90.5328
20
213.7864
0
VERTEX
8
CUT
10
90.5719
20
213.6881
0
VERTEX
8
CUT
10
90.6264
20
213.5422
0
VERTEX
8
CUT
10
92.9426
20
206.9246
0
VERTEX
8
CUT
10
92.9957
20
206.7610
0
VERTEX
8
CUT
10
93.0291
20
206.6491
0
VERTEX
8
CUT
10
93.0747
20
206.4834
0
VERTEX
8
CUT
10
93.7680
20
203.7101
0
VERTEX
8
CUT
10
93.7682
20
203.7086
0
VERTEX
8
CUT
10
93.7755
20
203.6698
0
VERTEX
8
CUT
10
94.0052
20
202.4424
0
VERTEX
8
CUT
10
94.2200
20
201.2947
0
VERTEX
8
CUT
10
94.2698
20
201.0132
0
VERTEX
8
CUT
10
94.2765
20
200.9723
0
VERTEX
8
CUT
10
94.2924
20
200.8602
0
VERTEX
8
CUT
10
94.3121
20
200.6947
0
VERTEX
8
CUT
10
94.5108
20
198.6332
0
VERTEX
8
CUT
10
94.5220
20
198.4880
0
VERTEX
8
CUT
10
94.5276
20
198.3892
0
VERTEX
8
CUT
10
94.5331
20
198.2436
0
VERTEX
8
CUT
10
94.6116
20
193.9807
0
VERTEX
8
CUT
10
94.6104
20
193.8838
0
VERTEX
8
CUT
10
94.4041
20
192.0767
0
VERTEX
8
CUT
10
94.3787
20
191.8941
0
VERTEX
8
CUT
10
94.3584
20
191.7706
0
VERTEX
8
CUT
10
94.3241
20
191.5895
0
VERTEX
8
CUT
10
93.9415
20
189.8116
0
VERTEX
8
CUT
10
93.9089
20
189.6727
0
VERTEX
8
CUT
10
93.9025
20
189.6480
0
VERTEX
8
CUT
10
93.8571
20
189.4947
0
VERTEX
8
CUT
10
93.6781
20
188.9878
0
VERTEX
8
CUT
10
93.0657
20
187.3807
0
VERTEX
8
CUT
10
92.9944
20
187.2070
0
VERTEX
8
CUT
10
92.9809
20
187.1763
0
VERTEX
8
CUT
10
92.8265
20
186.8678
0
VERTEX
8
CUT
10
92.6419
20
186.5763
0
VERTEX
8
CUT
10
92.6226
20
186.5489
0
VERTEX
8
CUT
10
92.5106
20
186.3983
0
VERTEX
8
CUT
10
91.8234
20
185.5211
0
VERTEX
8
CUT
10
91.6964
20
185.3675
0
VERTEX
8
CUT
10
91.6730
20
185.3407
0
VERTEX
8
CUT
10
91.4177
20
185.0779
0
VERTEX
8
CUT
10
91.1359
20
184.8436
0
VERTEX
8
CUT
10
91.1074
20
184.8224
0
VERTEX
8
CUT
10
90.9444
20
184.7075
0
VERTEX
8
CUT
10
90.6775
20
184.5299
0
VERTEX
8
CUT
10
90.5253
20
184.4338
0
VERTEX
8
CUT
10
90.4976
20
184.4172
0
VERTEX
8
CUT
10
90.2059
20
184.2612
0
VERTEX
8
CUT
10
89.9273
20
184.1450
0
VERTEX
8
CUT
10
89.6389
20
184.0560
0
VERTEX
8
CUT
10
89.3432
20
183.9951
0
VERTEX
8
CUT
10
89.0431
20
183.9628
0
VERTEX
8
CUT
10
88.7123
20
183.9591
0
VERTEX
8
CUT
10
88.6801
20
183.9603
0
VERTEX
8
CUT
10
88.5004
20
183.9713
0
VERTEX
8
CUT
10
88.4178
20
183.9783
0
VERTEX
8
CUT
10
88.2345
20
183.9985
0
VERTEX
8
CUT
10
88.2018
20
184.0029
0
VERTEX
8
CUT
10
87.8685
20
184.0647
0
VERTEX
8
CUT
10
87.5428
20
184.1589
0
VERTEX
8
CUT
10
87.5116
20
184.1696
0
VERTEX
8
CUT
10
87.3387
20
184.2338
0
VERTEX
8
CUT
10
87.3000
20
184.2493
0
VERTEX
8
CUT
10
87.2944
20
184.2517
0
VERTEX
8
CUT
10
87.2097
20
184.2963
0
VERTEX
8
CUT
10
86.8693
20
184.4866
0
VERTEX
8
CUT
10
86.7101
20
184.5807
0
VERTEX
8
CUT
10
86.6821
20
184.5983
0
VERTEX
8
CUT
10
86.4032
20
184.7925
0
VERTEX
8
CUT
10
86.1674
20
184.9939
0
VERTEX
8
CUT
10
85.9319
20
185.2391
0
VERTEX
8
CUT
10
85.9103
20
185.2640
0
VERTEX
8
CUT
10
85.7924
20
185.4065
0
VERTEX
8
CUT
10
85.5718
20
185.6868
0
VERTEX
8
CUT
10
85.5243
20
185.7634
0
VERTEX
8
CUT
10
84.7157
20
187.1337
0
VERTEX
8
CUT
10
84.6157
20
187.3145
0
VERTEX
8
CUT
10
84.5987
20
187.3472
0
VERTEX
8
CUT
10
84.4293
20
187.7237
0
VERTEX
8
CUT
10
84.4161
20
187.7581
0
VERTEX
8
CUT
10
84.3471
20
187.9528
0
VERTEX
8
CUT
10
83.9975
20
189.0342
0
VERTEX
8
CUT
10
83.9498
20
189.1938
0
VERTEX
8
CUT
10
83.9198
20
189.3030
0
VERTEX
8
CUT
10
83.8792
20
189.4646
0
VERTEX
8
CUT
10
83.0132
20
193.2695
0
VERTEX
8
CUT
10
82.8618
20
194.0495
0
VERTEX
8
CUT
10
82.8144
20
194.2492
0
VERTEX
8
CUT
10
82.6872
20
194.7019
0
VERTEX
8
CUT
10
82.4113
20
195.9140
0
VERTEX
8
CUT
10
82.3491
20
196.1387
0
VERTEX
8
CUT
10
82.2661
20
196.3566
0
VERTEX
8
CUT
10
82.1425
20
196.6407
0
VERTEX
8
CUT
10
82.1269
20
196.6962
0
VERTEX
8
CUT
10
82.0699
20
196.8735
0
VERTEX
8
CUT
10
81.9998
20
197.0460
0
VERTEX
8
CUT
10
81.6906
20
197.7330
0
VERTEX
8
CUT
10
81.5645
20
197.9765
0
VERTEX
8
CUT
10
81.5550
20
197.9908
0
VERTEX
8
CUT
10
81.4756
20
198.1735
0
VERTEX
8
CUT
10
81.3870
20
198.3563
0
VERTEX
8
CUT
10
81.2838
20
198.5314
0
VERTEX
8
CUT
10
80.9952
20
198.9787
0
VERTEX
8
CUT
10
80.8567
20
199.1725
0
VERTEX
8
CUT
10
80.7003
20
199.3522
0
VERTEX
8
CUT
10
80.5276
20
199.5162
0
VERTEX
8
CUT
10
80.3400
20
199.6630
0
VERTEX
8
CUT
10
78.8769
20
200.6998
0
VERTEX
8
CUT
10
78.6733
20
200.8298
0
VERTEX
8
CUT
10
78.4581
20
200.9395
0
VERTEX
8
CUT
10
78.2333
20
201.0279
0
VERTEX
8
CUT
10
78.0010
20
201.0943
0
VERTEX
8
CUT
10
76.7576
20
201.3852
0
VERTEX
8
CUT
10
76.5337
20
201.4269
0
VERTEX
8
CUT
10
76.3069
20
201.4481
0
VERTEX
8
CUT
10
76.0791
20
201.4486
0
VERTEX
8
CUT
10
75.8522
20
201.4283
0
VERTEX
8
CUT
10
74.7361
20
201.2770
0
VERTEX
8
CUT
10
74.4675
20
201.2255
0
VERTEX
8
CUT
10
74.2061
20
201.1449
0
VERTEX
8
CUT
10
73.9551
20
201.0363
0
VERTEX
8
CUT
10
73.7174
20
200.9009
0
VERTEX
8
CUT
10
73.6947
20
200.8863
0
VERTEX
8
CUT
10
73.6065
20
200.8378
0
VERTEX
8
CUT
10
72.6440
20
200.2507
0
VERTEX
8
CUT
10
72.4201
20
200.0968
0
VERTEX
8
CUT
10
72.2584
20
199.9576
0
VERTEX
8
CUT
10
72.0984
20
199.8431
0
VERTEX
8
CUT
10
71.9147
20
199.6822
0
VERTEX
8
CUT
10
71.7475
20
199.5041
0
VERTEX
8
CUT
10
70.7213
20
198.2982
0
VERTEX
8
CUT
10
70.5387
20
198.0549
0
VERTEX
8
CUT
10
70.3869
20
197.7912
0
VERTEX
8
CUT
10
70.2589
20
197.5338
0
VERTEX
8
CUT
10
70.2564
20
197.5299
0
VERTEX
8
CUT
10
70.2353
20
197.4865
0
VERTEX
8
CUT
10
69.6973
20
196.4046
0
VERTEX
8
CUT
10
69.6059
20
196.1979
0
VERTEX
8
CUT
10
69.5336
20
195.9839
0
VERTEX
8
CUT
10
69.4809
20
195.7641
0
VERTEX
8
CUT
10
69.4482
20
195.5405
0
VERTEX
8
CUT
10
69.4328
20
195.3868
0
VERTEX
8
CUT
10
69.1660
20
193.8544
0
VERTEX
8
CUT
10
69.1382
20
193.6405
0
VERTEX
8
CUT
10
69.1289
20
193.4249
0
VERTEX
8
CUT
10
69.1296
20
191.2001
0
VERTEX
8
CUT
10
69.1468
20
190.9079
0
VERTEX
8
CUT
10
69.2578
20
189.9672
0
VERTEX
8
CUT
10
69.2685
20
189.4996
0
VERTEX
8
CUT
10
69.2874
20
189.2451
0
VERTEX
8
CUT
10
69.3321
20
188.9938
0
VERTEX
8
CUT
10
69.9918
20
186.1411
0
VERTEX
8
CUT
10
70.0536
20
185.9207
0
VERTEX
8
CUT
10
70.1352
20
185.7069
0
VERTEX
8
CUT
10
73.2123
20
178.6346
0
VERTEX
8
CUT
10
73.2696
20
178.4952
0
VERTEX
8
CUT
10
73.3067
20
178.3997
0
VERTEX
8
CUT
10
73.3584
20
178.2581
0
VERTEX
8
CUT
10
74.6603
20
174.4570
0
VERTEX
8
CUT
10
74.7283
20
174.2365
0
VERTEX
8
CUT
10
74.7698
20
174.0855
0
VERTEX
8
CUT
10
74.8241
20
173.8612
0
VERTEX
8
CUT
10
75.1376
20
172.3679
0
VERTEX
8
CUT
10
75.1658
20
172.2184
0
VERTEX
8
CUT
10
75.1829
20
172.1164
0
VERTEX
8
CUT
10
75.2051
20
171.9659
0
VERTEX
8
CUT
10
75.2728
20
171.4298
0
VERTEX
8
CUT
10
75.2663
20
171.3608
0
VERTEX
8
CUT
10
75.2676
20
171.1151
0
VERTEX
8
CUT
10
75.3744
20
169.1502
0
VERTEX
8
CUT
10
75.2905
20
167.2198
0
VERTEX
8
CUT
10
75.2794
20
167.0522
0
VERTEX
8
CUT
10
75.2768
20
167.0223
0
VERTEX
8
CUT
10
75.2322
20
166.6895
0
VERTEX
8
CUT
10
75.2269
20
166.6599
0
VERTEX
8
CUT
10
75.1935
20
166.4953
0
VERTEX
8
CUT
10
74.9834
20
165.5670
0
VERTEX
8
CUT
10
74.9135
20
165.3032
0
VERTEX
8
CUT
10
74.8596
20
165.1262
0
VERTEX
8
CUT
10
74.7707
20
164.8682
0
VERTEX
8
CUT
10
74.2177
20
163.4346
0
VERTEX
8
CUT
10
74.1383
20
163.2443
0
VERTEX
8
CUT
10
74.1232
20
163.2108
0
VERTEX
8
CUT
10
73.9335
20
162.8449
0
VERTEX
8
CUT
10
73.9148
20
162.8132
0
VERTEX
8
CUT
10
73.8052
20
162.6386
0
VERTEX
8
CUT
10
73.3031
20
161.8857
0
VERTEX
8
CUT
10
73.2118
20
161.7549
0
VERTEX
8
CUT
10
73.1950
20
161.7319
0
VERTEX
8
CUT
10
73.0123
20
161.5027
0
VERTEX
8
CUT
10
72.9504
20
161.4374
0
VERTEX
8
CUT
10
72.6911
20
161.2144
0
VERTEX
8
CUT
10
72.6624
20
161.1922
0
VERTEX
8
CUT
10
72.4979
20
161.0726
0
VERTEX
8
CUT
10
72.2952
20
160.9334
0
VERTEX
8
CUT
10
72.1433
20
160.8343
0
VERTEX
8
CUT
10
72.1157
20
160.8173
0
VERTEX
8
CUT
10
71.8240
20
160.6560
0
VERTEX
8
CUT
10
71.5449
20
160.5352
0
VERTEX
8
CUT
10
71.2385
20
160.4365
0
VERTEX
8
CUT
10
70.9001
20
160.3629
0
VERTEX
8
CUT
10
70.5694
20
160.3245
0
VERTEX
8
CUT
10
70.2565
20
160.3196
0
VERTEX
8
CUT
10
69.9447
20
160.3458
0
VERTEX
8
CUT
10
69.6370
20
160.4028
0
VERTEX
8
CUT
10
69.3366
20
160.4901
0
VERTEX
8
CUT
10
69.0183
20
160.6181
0
VERTEX
8
CUT
10
68.9881
20
160.6321
0
VERTEX
8
CUT
10
68.8528
20
160.6986
0
VERTEX
8
CUT
10
68.6895
20
160.7901
0
VERTEX
8
CUT
10
68.6566
20
160.8098
0
VERTEX
8
CUT
10
68.3520
20
161.0170
0
VERTEX
8
CUT
10
68.2881
20
161.0665
0
VERTEX
8
CUT
10
68.2630
20
161.0879
0
VERTEX
8
CUT
10
68.1258
20
161.2112
0
VERTEX
8
CUT
10
67.7034
20
161.6098
0
VERTEX
8
CUT
10
67.5698
20
161.7425
0
VERTEX
8
CUT
10
67.5465
20
161.7668
0
VERTEX
8
CUT
10
67.3000
20
162.0514
0
VERTEX
8
CUT
10
67.2793
20
162.0779
0
VERTEX
8
CUT
10
67.1670
20
162.2292
0
VERTEX
8
CUT
10
64.2025
20
166.4408
0
VERTEX
8
CUT
10
64.0651
20
166.6184
0
VERTEX
8
CUT
10
63.9124
20
166.7830
0
VERTEX
8
CUT
10
63.7455
20
166.9332
0
VERTEX
8
CUT
10
63.5658
20
167.0678
0
VERTEX
8
CUT
10
62.3532
20
167.8940
0
VERTEX
8
CUT
10
62.1570
20
168.0148
0
VERTEX
8
CUT
10
61.9505
20
168.1171
0
VERTEX
8
CUT
10
61.7355
20
168.1999
0
VERTEX
8
CUT
10
61.3392
20
168.3319
0
VERTEX
8
CUT
10
61.1259
20
168.3926
0
VERTEX
8
CUT
10
60.9081
20
168.4341
0
VERTEX
8
CUT
10
60.6874
20
168.4561
0
VERTEX
8
CUT
10
59.5717
20
168.5179
0
VERTEX
8
CUT
10
59.3006
20
168.5182
0
VERTEX
8
CUT
10
59.0311
20
168.4891
0
VERTEX
8
CUT
10
58.7662
20
168.4310
0
VERTEX
8
CUT
10
58.5717
20
168.3771
0
VERTEX
8
CUT
10
58.3609
20
168.3085
0
VERTEX
8
CUT
10
58.1570
20
168.2215
0
VERTEX
8
CUT
10
57.9616
20
168.1168
0
VERTEX
8
CUT
10
56.8250
20
167.4412
0
VERTEX
8
CUT
10
56.6342
20
167.3156
0
VERTEX
8
CUT
10
56.4556
20
167.1731
0
VERTEX
8
CUT
10
56.2908
20
167.0149
0
VERTEX
8
CUT
10
55.2772
20
165.9491
0
VERTEX
8
CUT
10
55.0991
20
165.7399
0
VERTEX
8
CUT
10
54.9451
20
165.5124
0
VERTEX
8
CUT
10
54.3611
20
164.5390
0
VERTEX
8
CUT
10
54.2298
20
164.2892
0
VERTEX
8
CUT
10
54.1275
20
164.0262
0
VERTEX
8
CUT
10
53.7562
20
162.8847
0
VERTEX
8
CUT
10
53.6906
20
162.6424
0
VERTEX
8
CUT
10
53.6497
20
162.3947
0
VERTEX
8
CUT
10
53.5443
20
161.4711
0
VERTEX
8
CUT
10
53.4654
20
161.0842
0
VERTEX
8
CUT
10
53.4275
20
160.8353
0
VERTEX
8
CUT
10
53.4149
20
160.5839
0
VERTEX
8
CUT
10
53.4152
20
159.1862
0
VERTEX
8
CUT
10
53.4370
20
158.8576
0
VERTEX
8
CUT
10
53.4661
20
158.6387
0
VERTEX
8
CUT
10
53.4721
20
158.0300
0
VERTEX
8
CUT
10
53.4989
20
157.6889
0
VERTEX
8
CUT
10
53.6500
20
156.6670
0
VERTEX
8
CUT
10
53.7199
20
156.3441
0
VERTEX
8
CUT
10
55.2747
20
150.9184
0
VERTEX
8
CUT
10
55.3193
20
150.7478
0
VERTEX
8
CUT
10
55.3468
20
150.6312
0
VERTEX
8
CUT
10
55.3833
20
150.4587
0
VERTEX
8
CUT
10
56.0091
20
147.1152
0
VERTEX
8
CUT
10
56.0373
20
146.9422
0
VERTEX
8
CUT
10
56.0416
20
146.9111
0
VERTEX
8
CUT
10
56.0737
20
146.5620
0
VERTEX
8
CUT
10
56.0751
20
146.5307
0
VERTEX
8
CUT
10
56.0788
20
146.3554
0
VERTEX
8
CUT
10
56.0735
20
143.7921
0
VERTEX
8
CUT
10
56.0699
20
143.6341
0
VERTEX
8
CUT
10
56.0686
20
143.6059
0
VERTEX
8
CUT
10
56.0436
20
143.3165
0
VERTEX
8
CUT
10
55.9943
20
143.0303
0
VERTEX
8
CUT
10
55.9883
20
143.0027
0
VERTEX
8
CUT
10
55.9517
20
142.8490
0
VERTEX
8
CUT
10
55.4588
20
140.9569
0
VERTEX
8
CUT
10
55.3196
20
140.6444
0
VERTEX
8
CUT
10
55.1846
20
140.3416
0
VERTEX
8
CUT
10
55.1797
20
140.3306
0
VERTEX
8
CUT
10
54.8774
20
139.6521
0
VERTEX
8
CUT
10
54.7988
20
139.5111
0
VERTEX
8
CUT
10
54.7066
20
139.3547
0
VERTEX
8
CUT
10
54.6895
20
139.3272
0
VERTEX
8
CUT
10
54.4830
20
139.0288
0
VERTEX
8
CUT
10
54.4633
20
139.0031
0
VERTEX
8
CUT
10
54.3495
20
138.8617
0
VERTEX
8
CUT
10
53.5180
20
137.8788
0
VERTEX
8
CUT
10
53.3895
20
137.7347
0
VERTEX
8
CUT
10
53.3659
20
137.7095
0
VERTEX
8
CUT
10
53.1101
20
137.4636
0
VERTEX
8
CUT
10
52.8308
20
137.2456
0
VERTEX
8
CUT
10
52.5254
20
137.0531
0
VERTEX
8
CUT
10
52.2461
20
136.9121
0
VERTEX
8
CUT
10
51.9670
20
136.8021
0
VERTEX
8
CUT
10
51.6749
20
136.7168
0
VERTEX
8
CUT
10
51.3904
20
136.6610
0
VERTEX
8
CUT
10
51.1100
20
136.6317
0
VERTEX
8
CUT
10
50.8010
20
136.6272
0
VERTEX
8
CUT
10
50.7710
20
136.6281
0
VERTEX
8
CUT
10
50.6031
20
136.6370
0
VERTEX
8
CUT
10
49.6699
20
136.7074
0
VERTEX
8
CUT
10
49.4779
20
136.7268
0
VERTEX
8
CUT
10
49.4437
20
136.7312
0
VERTEX
8
CUT
10
49.0946
20
136.7940
0
VERTEX
8
CUT
10
48.7539
20
136.8924
0
VERTEX
8
CUT
10
48.7213
20
136.9036
0
VERTEX
8
CUT
10
48.5406
20
136.9713
0
VERTEX
8
CUT
10
44.6994
20
138.5236
0
VERTEX
8
CUT
10
44.3518
20
138.6353
0
VERTEX
8
CUT
10
43.3986
20
138.8665
0
VERTEX
8
CUT
10
43.1422
20
138.9146
0
VERTEX
8
CUT
10
42.8822
20
138.9358
0
VERTEX
8
CUT
10
42.3360
20
138.9517
0
VERTEX
8
CUT
10
42.1095
20
138.9480
0
VERTEX
8
CUT
10
41.8843
20
138.9239
0
VERTEX
8
CUT
10
40.1297
20
138.6548
0
VERTEX
8
CUT
10
39.8677
20
138.6001
0
VERTEX
8
CUT
10
39.6131
20
138.5177
0
VERTEX
8
CUT
10
39.3687
20
138.4086
0
VERTEX
8
CUT
10
38.7213
20
138.0768
0
VERTEX
8
CUT
10
38.6797
20
138.0602
0
VERTEX
8
CUT
10
38.4747
20
137.9674
0
VERTEX
8
CUT
10
38.2789
20
137.8566
0
VERTEX
8
CUT
10
38.2431
20
137.8318
0
VERTEX
8
CUT
10
37.9833
20
137.6987
0
VERTEX
8
CUT
10
37.7567
20
137.5671
0
VERTEX
8
CUT
10
37.5452
20
137.4127
0
VERTEX
8
CUT
10
37.3510
20
137.2369
0
VERTEX
8
CUT
10
36.2754
20
136.1557
0
VERTEX
8
CUT
10
36.1288
20
135.9949
0
VERTEX
8
CUT
10
35.9967
20
135.8219
0
VERTEX
8
CUT
10
35.8802
20
135.6381
0
VERTEX
8
CUT
10
35.0193
20
134.1399
0
VERTEX
8
CUT
10
34.8864
20
133.8731
0
VERTEX
8
CUT
10
34.7863
20
133.5924
0
VERTEX
8
CUT
10
34.2432
20
131.7246
0
VERTEX
8
CUT
10
34.1786
20
131.4428
0
VERTEX
8
CUT
10
34.1471
20
131.1555
0
VERTEX
8
CUT
10
34.1080
20
130.3993
0
VERTEX
8
CUT
10
34.0421
20
129.7855
0
VERTEX
8
CUT
10
34.0282
20
129.5679
0
VERTEX
8
CUT
10
34.0335
20
129.3499
0
VERTEX
8
CUT
10
34.0449
20
129.1799
0
VERTEX
8
CUT
10
34.0367
20
129.0195
0
VERTEX
8
CUT
10
34.0365
20
128.7641
0
VERTEX
8
CUT
10
34.0624
20
128.5101
0
VERTEX
8
CUT
10
34.1120
20
128.1883
0
VERTEX
8
CUT
10
34.1455
20
127.6925
0
VERTEX
8
CUT
10
34.1708
20
127.4685
0
VERTEX
8
CUT
10
34.2163
20
127.2477
0
VERTEX
8
CUT
10
34.3198
20
126.8386
0
VERTEX
8
CUT
10
34.4039
20
126.2925
0
VERTEX
8
CUT
10
34.4623
20
126.0173
0
VERTEX
8
CUT
10
34.5512
20
125.7505
0
VERTEX
8
CUT
10
34.6847
20
125.4143
0
VERTEX
8
CUT
10
34.7077
20
125.3361
0
VERTEX
8
CUT
10
34.7755
20
125.1574
0
VERTEX
8
CUT
10
34.9273
20
124.7990
0
VERTEX
8
CUT
10
35.0394
20
124.4767
0
VERTEX
8
CUT
10
35.1634
20
124.1824
0
VERTEX
8
CUT
10
35.2139
20
124.0812
0
VERTEX
8
CUT
10
35.4843
20
123.4001
0
VERTEX
8
CUT
10
35.6398
20
123.0777
0
VERTEX
8
CUT
10
36.2135
20
122.0786
0
VERTEX
8
CUT
10
36.3889
20
121.8137
0
VERTEX
8
CUT
10
37.8334
20
119.9070
0
VERTEX
8
CUT
10
38.0090
20
119.6997
0
VERTEX
8
CUT
10
38.2061
20
119.5126
0
VERTEX
8
CUT
10
40.1058
20
117.8965
0
VERTEX
8
CUT
10
40.2626
20
117.7735
0
VERTEX
8
CUT
10
40.4287
20
117.6634
0
VERTEX
8
CUT
10
43.1882
20
115.9886
0
VERTEX
8
CUT
10
43.2153
20
115.9723
0
VERTEX
8
CUT
10
43.2199
20
115.9696
0
VERTEX
8
CUT
10
43.3350
20
115.9058
0
VERTEX
8
CUT
10
47.8487
20
113.5546
0
VERTEX
8
CUT
10
48.0217
20
113.4586
0
VERTEX
8
CUT
10
48.0522
20
113.4407
0
VERTEX
8
CUT
10
48.3822
20
113.2217
0
VERTEX
8
CUT
10
48.4105
20
113.2007
0
VERTEX
8
CUT
10
48.5664
20
113.0784
0
VERTEX
8
CUT
10
49.9432
20
111.9387
0
VERTEX
8
CUT
10
50.0829
20
111.8171
0
VERTEX
8
CUT
10
50.1073
20
111.7947
0
VERTEX
8
CUT
10
50.3469
20
111.5528
0
VERTEX
8
CUT
10
50.5614
20
111.2884
0
VERTEX
8
CUT
10
50.5810
20
111.2617
0
VERTEX
8
CUT
10
50.6867
20
111.1096
0
VERTEX
8
CUT
10
51.3557
20
110.0948
0
VERTEX
8
CUT
10
51.4558
20
109.9343
0
VERTEX
8
CUT
10
51.4730
20
109.9052
0
VERTEX
8
CUT
10
51.6341
20
109.5973
0
VERTEX
8
CUT
10
51.7236
20
109.3738
0
VERTEX
8
CUT
10
51.9840
20
108.2696
0
VERTEX
8
CUT
10
51.9865
20
108.2478
0
VERTEX
8
CUT
10
51.9885
20
108.2199
0
VERTEX
8
CUT
10
51.9965
20
108.0639
0
VERTEX
8
CUT
10
52.0229
20
107.1912
0
VERTEX
8
CUT
10
52.0238
20
107.0034
0
VERTEX
8
CUT
10
52.0232
20
106.9698
0
VERTEX
8
CUT
10
51.9990
20
106.6255
0
VERTEX
8
CUT
10
51.9406
20
106.2853
0
VERTEX
8
CUT
10
51.9333
20
106.2526
0
VERTEX
8
CUT
10
51.8877
20
106.0704
0
VERTEX
8
CUT
10
51.8000
20
105.7541
0
VERTEX
8
CUT
10
51.7378
20
105.5520
0
VERTEX
8
CUT
10
51.7257
20
105.5163
0
VERTEX
8
CUT
10
51.5805
20
105.1561
0
VERTEX
8
CUT
10
51.3958
20
104.8145
0
VERTEX
8
CUT
10
51.3760
20
104.7824
0
VERTEX
8
CUT
10
51.2601
20
104.6057
0
VERTEX
8
CUT
10
51.0182
20
104.2586
0
VERTEX
8
CUT
10
50.9048
20
104.1045
0
VERTEX
8
CUT
10
50.8839
20
104.0775
0
VERTEX
8
CUT
10
50.6544
20
103.8109
0
VERTEX
8
CUT
10
50.3990
20
103.5691
0
VERTEX
8
CUT
10
50.3730
20
103.5469
0
VERTEX
8
CUT
10
50.2244
20
103.4263
0
VERTEX
8
CUT
10
46.6010
20
100.6380
0
VERTEX
8
CUT
10
45.8928
20
100.1326
0
VERTEX
8
CUT
10
45.6719
20
99.9553
0
VERTEX
8
CUT
10
45.4259
20
99.7337
0
VERTEX
8
CUT
10
44.4182
20
98.9583
0
VERTEX
8
CUT
10
44.2292
20
98.7972
0
VERTEX
8
CUT
10
40.9908
20
95.7483
0
VERTEX
8
CUT
10
40.8121
20
95.5617
0
VERTEX
8
CUT
10
39.8656
20
94.4652
0
VERTEX
8
CUT
10
39.0496
20
93.5609
0
VERTEX
8
CUT
10
38.8781
20
93.3486
0
VERTEX
8
CUT
10
38.7582
20
93.1824
0
VERTEX
8
CUT
10
37.8467
20
92.1265
0
VERTEX
8
CUT
10
37.6885
20
91.9228
0
VERTEX
8
CUT
10
35.0127
20
88.0857
0
VERTEX
8
CUT
10
34.8897
20
87.8908
0
VERTEX
8
CUT
10
32.4711
20
83.6347
0
VERTEX
8
CUT
10
32.3742
20
83.4458
0
VERTEX
8
CUT
10
30.2225
20
78.7762
0
VERTEX
8
CUT
10
30.1443
20
78.5864
0
VERTEX
8
CUT
10
30.0013
20
78.1941
0
VERTEX
8
CUT
10
29.9355
20
77.9858
0
VERTEX
8
CUT
10
29.8881
20
77.7725
0
VERTEX
8
CUT
10
29.8595
20
77.5559
0
VERTEX
8
CUT
10
29.8500
20
77.3377
0
VERTEX
8
CUT
10
29.8500
20
77.0966
0
VERTEX
8
CUT
10
29.8500
20
76.9510
0
VERTEX
8
CUT
10
29.8500
20
65.7653
0
VERTEX
8
CUT
10
29.8500
20
60.2744
0
VERTEX
8
CUT
10
29.8500
20
60.2502
0
VERTEX
8
CUT
10
29.8500
20
59.8522
0
VERTEX
8
CUT
10
29.8500
20
34.7684
0
VERTEX
8
CUT
10
29.8624
20
34.5198
0
VERTEX
8
CUT
10
29.8994
20
34.2737
0
VERTEX
8
CUT
10
29.9607
20
34.0326
0
SEQEND
0
POLYLINE
8
CUT
66
1
70
1
10
0.0
20
0.0
30
0.0
0
VERTEX
8
CUT
10
256.2294
20
189.4291
0
VERTEX
8
CUT
10
256.4029
20
188.7324
0
VERTEX
8
CUT
10
256.4812
20
188.4769
0
VERTEX
8
CUT
10
256.5864
20
188.2312
0
VERTEX
8
CUT
10
256.7172
20
187.9981
0
VERTEX
8
CUT
10
256.8721
20
187.7804
0
VERTEX
8
CUT
10
257.0002
20
187.6193
0
VERTEX
8
CUT
10
257.0613
20
187.5054
0
VERTEX
8
CUT
10
257.2026
20
187.2960
0
VERTEX
8
CUT
10
257.3642
20
187.1020
0
VERTEX
8
CUT
10
257.5446
20
186.9252
0
VERTEX
8
CUT
10
257.5954
20
186.8802
0
VERTEX
8
CUT
10
257.6914
20
186.7715
0
VERTEX
8
CUT
10
257.8806
20
186.5972
0
VERTEX
8
CUT
10
258.0867
20
186.4432
0
VERTEX
8
CUT
10
258.5027
20
186.1647
0
VERTEX
8
CUT
10
258.7010
20
186.0447
0
VERTEX
8
CUT
10
258.9096
20
185.9437
0
VERTEX
8
CUT
10
259.1267
20
185.8624
0
VERTEX
8
CUT
10
259.3504
20
185.8016
0
VERTEX
8
CUT
10
259.4659
20
185.7815
0
VERTEX
8
CUT
10
259.6411
20
185.7394
0
VERTEX
8
CUT
10
259.9113
20
185.7051
0
VERTEX
8
CUT
10
260.1746
20
185.6861
0
VERTEX
8
CUT
10
260.4024
20
185.6572
0
VERTEX
8
CUT
10
260.6578
20
185.6380
0
VERTEX
8
CUT
10
260.9139
20
185.6450
0
VERTEX
8
CUT
10
261.0993
20
185.6692
0
VERTEX
8
CUT
10
261.1160
20
185.6706
0
VERTEX
8
CUT
10
261.1308
20
185.6733
0
VERTEX
8
CUT
10
261.1679
20
185.6782
0
VERTEX
8
CUT
10
261.2084
20
185.6878
0
VERTEX
8
CUT
10
261.3675
20
185.7174
0
VERTEX
8
CUT
10
261.6129
20
185.7896
0
VERTEX
8
CUT
10
261.6912
20
185.8171
0
VERTEX
8
CUT
10
262.0075
20
185.9093
0
VERTEX
8
CUT
10
262.2721
20
186.0029
0
VERTEX
8
CUT
10
262.5246
20
186.1255
0
VERTEX
8
CUT
10
262.7617
20
186.2757
0
VERTEX
8
CUT
10
263.3288
20
186.6811
0
VERTEX
8
CUT
10
263.5223
20
186.8344
0
VERTEX
8
CUT
10
263.6996
20
187.0060
0
VERTEX
8
CUT
10
263.8592
20
187.1942
0
VERTEX
8
CUT
10
263.9995
20
187.3972
0
VERTEX
8
CUT
10
264.3258
20
187.9234
0
VERTEX
8
CUT
10
264.4386
20
188.1256
0
VERTEX
8
CUT
10
264.5322
20
188.3374
0
VERTEX
8
CUT
10
264.6058
20
188.5569
0
VERTEX
8
CUT
10
264.6587
20
188.7823
0
VERTEX
8
CUT
10
264.7852
20
189.4598
0
VERTEX
8
CUT
10
264.8168
20
189.6860
0
VERTEX
8
CUT
10
264.8276
20
189.9141
0
VERTEX
8
CUT
10
264.8176
20
190.1423
0
VERTEX
8
CUT
10
264.7868
20
190.3686
0
VERTEX
8
CUT
10
264.7549
20
190.5425
0
VERTEX
8
CUT
10
264.7533
20
190.5706
0
VERTEX
8
CUT
10
264.7195
20
190.7973
0
VERTEX
8
CUT
10
264.6752
20
190.9781
0
VERTEX
8
CUT
10
264.6389
20
191.1764
0
VERTEX
8
CUT
10
264.5869
20
191.4014
0
VERTEX
8
CUT
10
264.5143
20
191.6206
0
VERTEX
8
CUT
10
264.4219
20
191.8322
0
VERTEX
8
CUT
10
264.3103
20
192.0343
0
VERTEX
8
CUT
10
263.8383
20
192.8032
0
VERTEX
8
CUT
10
263.7059
20
192.9976
0
VERTEX
8
CUT
10
263.5558
20
193.1788
0
VERTEX
8
CUT
10
263.3894
20
193.3450
0
VERTEX
8
CUT
10
263.2081
20
193.4949
0
VERTEX
8
CUT
10
262.6248
20
193.9325
0
VERTEX
8
CUT
10
262.4083
20
194.0779
0
VERTEX
8
CUT
10
262.1779
20
194.2000
0
VERTEX
8
CUT
10
261.9361
20
194.2974
0
VERTEX
8
CUT
10
261.6853
20
194.3691
0
VERTEX
8
CUT
10
261.2578
20
194.4675
0
VERTEX
8
CUT
10
261.2559
20
194.4680
0
VERTEX
8
CUT
10
261.2546
20
194.4682
0
VERTEX
8
CUT
10
261.0770
20
194.5091
0
VERTEX
8
CUT
10
260.8613
20
194.5489
0
VERTEX
8
CUT
10
260.6430
20
194.5696
0
VERTEX
8
CUT
10
260.4237
20
194.5712
0
VERTEX
8
CUT
10
260.3930
20
194.5687
0
VERTEX
8
CUT
10
260.1942
20
194.5639
0
VERTEX
8
CUT
10
259.9378
20
194.5311
0
VERTEX
8
CUT
10
259.6279
20
194.4751
0
VERTEX
8
CUT
10
259.4139
20
194.4266
0
VERTEX
8
CUT
10
259.2050
20
194.3595
0
VERTEX
8
CUT
10
259.0028
20
194.2744
0
VERTEX
8
CUT
10
258.6292
20
194.0974
0
VERTEX
8
CUT
10
258.4471
20
194.0018
0
VERTEX
8
CUT
10
258.2734
20
193.8915
0
VERTEX
8
CUT
10
258.1094
20
193.7673
0
VERTEX
8
CUT
10
257.6782
20
193.4119
0
VERTEX
8
CUT
10
257.4626
20
193.2118
0
VERTEX
8
CUT
10
257.2720
20
192.9878
0
VERTEX
8
CUT
10
257.2489
20
192.9572
0
VERTEX
8
CUT
10
257.2362
20
192.9436
0
VERTEX
8
CUT
10
257.0990
20
192.7677
0
VERTEX
8
CUT
10
257.0573
20
192.7031
0
VERTEX
8
CUT
10
256.9729
20
192.5911
0
VERTEX
8
CUT
10
256.8140
20
192.3533
0
VERTEX
8
CUT
10
256.6834
20
192.0988
0
VERTEX
8
CUT
10
256.4817
20
191.6438
0
VERTEX
8
CUT
10
256.3961
20
191.4229
0
VERTEX
8
CUT
10
256.3318
20
191.1949
0
VERTEX
8
CUT
10
256.3312
20
191.1915
0
VERTEX
8
CUT
10
256.2585
20
190.9366
0
VERTEX
8
CUT
10
256.2130
20
190.6717
0
VERTEX
8
CUT
10
256.1722
20
190.3237
0
VERTEX
8
CUT
10
256.1562
20
190.0990
0
VERTEX
8
CUT
10
256.1604
20
189.8738
0
VERTEX
8
CUT
10
256.1849
20
189.6499
0
SEQEND
0
POLYLINE
8
CUT
66
1
70
1
10
0.0
20
0.0
30
0.0
0
VERTEX
8
CUT
10
243.9885
20
241.9256
0
VERTEX
8
CUT
10
244.0395
20
241.7259
0
VERTEX
8
CUT
10
244.0597
20
241.6674
0
VERTEX
8
CUT
10
244.2304
20
241.0035
0
VERTEX
8
CUT
10
244.3171
20
240.7319
0
VERTEX
8
CUT
10
244.4340
20
240.4720
0
VERTEX
8
CUT
10
244.8834
20
239.6084
0
VERTEX
8
CUT
10
245.0390
20
239.3491
0
VERTEX
8
CUT
10
245.2247
20
239.1105
0
VERTEX
8
CUT
10
245.8390
20
238.4128
0
VERTEX
8
CUT
10
245.9804
20
238.2648
0
VERTEX
8
CUT
10
246.1336
20
238.1289
0
VERTEX
8
CUT
10
246.2471
20
238.0437
0
VERTEX
8
CUT
10
246.2849
20
238.0099
0
VERTEX
8
CUT
10
246.6734
20
237.7003
0
VERTEX
8
CUT
10
246.8860
20
237.5483
0
VERTEX
8
CUT
10
247.1134
20
237.4194
0
VERTEX
8
CUT
10
247.2612
20
237.3455
0
VERTEX
8
CUT
10
247.4312
20
237.2407
0
VERTEX
8
CUT
10
247.6600
20
237.1300
0
VERTEX
8
CUT
10
247.8990
20
237.0432
0
VERTEX
8
CUT
10
248.2634
20
236.9312
0
VERTEX
8
CUT
10
248.5285
20
236.8655
0
VERTEX
8
CUT
10
248.7991
20
236.8290
0
VERTEX
8
CUT
10
248.9862
20
236.8141
0
VERTEX
8
CUT
10
248.9984
20
236.8118
0
VERTEX
8
CUT
10
249.2214
20
236.7893
0
VERTEX
8
CUT
10
249.3107
20
236.7883
0
VERTEX
8
CUT
10
249.6608
20
236.7605
0
VERTEX
8
CUT
10
249.8864
20
236.7528
0
VERTEX
8
CUT
10
249.9867
20
236.7584
0
VERTEX
8
CUT
10
249.9910
20
236.7583
0
VERTEX
8
CUT
10
250.5082
20
236.7805
0
VERTEX
8
CUT
10
250.8052
20
236.8111
0
VERTEX
8
CUT
10
251.0052
20
236.8562
0
VERTEX
8
CUT
10
251.0366
20
236.8594
0
VERTEX
8
CUT
10
251.2755
20
236.8954
0
VERTEX
8
CUT
10
251.5097
20
236.9543
0
VERTEX
8
CUT
10
252.0828
20
237.1282
0
VERTEX
8
CUT
10
252.3101
20
237.2093
0
VERTEX
8
CUT
10
252.5285
20
237.3120
0
VERTEX
8
CUT
10
252.7360
20
237.4353
0
VERTEX
8
CUT
10
253.5522
20
237.9751
0
VERTEX
8
CUT
10
253.7617
20
238.1298
0
VERTEX
8
CUT
10
253.9539
20
238.3056
0
VERTEX
8
CUT
10
254.1268
20
238.5004
0
VERTEX
8
CUT
10
254.6645
20
239.1738
0
VERTEX
8
CUT
10
254.7901
20
239.3457
0
VERTEX
8
CUT
10
254.9006
20
239.5276
0
VERTEX
8
CUT
10
254.9953
20
239.7182
0
VERTEX
8
CUT
10
255.0042
20
239.7383
0
VERTEX
8
CUT
10
255.0382
20
239.7968
0
VERTEX
8
CUT
10
255.1400
20
240.0201
0
VERTEX
8
CUT
10
255.2297
20
240.2456
0
VERTEX
8
CUT
10
255.3868
20
240.5990
0
VERTEX
8
CUT
10
255.4643
20
240.7953
0
VERTEX
8
CUT
10
255.5250
20
240.9974
0
VERTEX
8
CUT
10
255.5451
20
241.0928
0
VERTEX
8
CUT
10
255.5632
20
241.1416
0
VERTEX
8
CUT
10
255.6217
20
241.3555
0
VERTEX
8
CUT
10
255.6610
20
241.5737
0
VERTEX
8
CUT
10
255.7843
20
242.4891
0
VERTEX
8
CUT
10
255.8036
20
242.6994
0
VERTEX
8
CUT
10
255.8051
20
242.9105
0
VERTEX
8
CUT
10
255.7888
20
243.1210
0
VERTEX
8
CUT
10
255.7283
20
243.6244
0
VERTEX
8
CUT
10
255.7088
20
243.9104
0
VERTEX
8
CUT
10
255.6700
20
244.2100
0
VERTEX
8
CUT
10
255.5953
20
244.5028
0
VERTEX
8
CUT
10
255.2998
20
245.4248
0
VERTEX
8
CUT
10
255.2218
20
245.6351
0
VERTEX
8
CUT
10
255.1253
20
245.8376
0
VERTEX
8
CUT
10
255.0110
20
246.0306
0
VERTEX
8
CUT
10
254.5019
20
246.8087
0
VERTEX
8
CUT
10
254.3553
20
247.0099
0
VERTEX
8
CUT
10
254.1895
20
247.1957
0
VERTEX
8
CUT
10
254.0060
20
247.3640
0
VERTEX
8
CUT
10
253.2155
20
248.0197
0
VERTEX
8
CUT
10
252.9995
20
248.1800
0
VERTEX
8
CUT
10
252.7675
20
248.3163
0
VERTEX
8
CUT
10
252.4358
20
248.4877
0
VERTEX
8
CUT
10
252.1624
20
248.6089
0
VERTEX
8
CUT
10
251.8765
20
248.6966
0
VERTEX
8
CUT
10
250.6964
20
248.9826
0
VERTEX
8
CUT
10
250.4516
20
249.0292
0
VERTEX
8
CUT
10
250.2034
20
249.0511
0
VERTEX
8
CUT
10
249.9542
20
249.0483
0
VERTEX
8
CUT
10
248.9174
20
248.9845
0
VERTEX
8
CUT
10
248.7124
20
248.9634
0
VERTEX
8
CUT
10
248.5097
20
248.9255
0
VERTEX
8
CUT
10
248.3109
20
248.8710
0
VERTEX
8
CUT
10
247.9883
20
248.7680
0
VERTEX
8
CUT
10
247.7139
20
248.6623
0
VERTEX
8
CUT
10
247.4538
20
248.5251
0
VERTEX
8
CUT
10
246.4158
20
247.8970
0
VERTEX
8
CUT
10
246.2315
20
247.7740
0
VERTEX
8
CUT
10
246.0589
20
247.6352
0
VERTEX
8
CUT
10
245.8992
20
247.4816
0
VERTEX
8
CUT
10
245.2569
20
246.8068
0
VERTEX
8
CUT
10
245.1132
20
246.6419
0
VERTEX
8
CUT
10
244.9844
20
246.4650
0
VERTEX
8
CUT
10
244.8716
20
246.2776
0
VERTEX
8
CUT
10
244.4336
20
245.4721
0
VERTEX
8
CUT
10
244.3398
20
245.2807
0
VERTEX
8
CUT
10
244.2627
20
245.0821
0
VERTEX
8
CUT
10
244.2029
20
244.8776
0
VERTEX
8
CUT
10
244.2022
20
244.8750
0
VERTEX
8
CUT
10
244.1879
20
244.8385
0
VERTEX
8
CUT
10
244.1247
20
244.6214
0
VERTEX
8
CUT
10
244.0815
20
244.3995
0
VERTEX
8
CUT
10
244.0766
20
244.3668
0
VERTEX
8
CUT
10
243.9870
20
244.0045
0
VERTEX
8
CUT
10
243.9326
20
243.7091
0
VERTEX
8
CUT
10
243.9140
20
243.4093
0
VERTEX
8
CUT
10
243.9137
20
243.2700
0
VERTEX
8
CUT
10
243.9080
20
243.2314
0
VERTEX
8
CUT
10
243.8849
20
243.0047
0
VERTEX
8
CUT
10
243.8824
20
242.7767
0
VERTEX
8
CUT
10
243.9008
20
242.5495
0
VERTEX
8
CUT
10
243.9186
20
242.4096
0
VERTEX
8
CUT
10
243.9210
20
242.3502
0
VERTEX
8
CUT
10
243.9473
20
242.1407
0
VERTEX
8
CUT
10
243.9714
20
242.0273
0
SEQEND
0
POLYLINE
8
CUT
66
1
70
1
10
0.0
20
0.0
30
0.0
0
VERTEX
8
CUT
10
233.9465
20
63.6305
0
VERTEX
8
CUT
10
234.0162
20
63.3737
0
VERTEX
8
CUT
10
234.1127
20
63.1258
0
VERTEX
8
CUT
10
234.1474
20
63.0492
0
VERTEX
8
CUT
10
234.2225
20
62.8429
0
VERTEX
8
CUT
10
234.3336
20
62.6137
0
VERTEX
8
CUT
10
234.4184
20
62.4764
0
VERTEX
8
CUT
10
234.4219
20
62.4695
0
VERTEX
8
CUT
10
234.4456
20
62.4323
0
VERTEX
8
CUT
10
234.4675
20
62.3970
0
VERTEX
8
CUT
10
234.4766
20
62.3837
0
VERTEX
8
CUT
10
234.5498
20
62.2689
0
VERTEX
8
CUT
10
234.6024
20
62.2014
0
VERTEX
8
CUT
10
234.9068
20
61.7605
0
VERTEX
8
CUT
10
235.0537
20
61.5683
0
VERTEX
8
CUT
10
235.2185
20
61.3911
0
VERTEX
8
CUT
10
235.3997
20
61.2307
0
VERTEX
8
CUT
10
235.8623
20
60.8597
0
VERTEX
8
CUT
10
236.0725
20
60.7082
0
VERTEX
8
CUT
10
236.2972
20
60.5794
0
VERTEX
8
CUT
10
236.5341
20
60.4744
0
VERTEX
8
CUT
10
237.0438
20
60.2796
0
VERTEX
8
CUT
10
237.2974
20
60.1979
0
VERTEX
8
CUT
10
237.5583
20
60.1436
0
VERTEX
8
CUT
10
237.8235
20
60.1174
0
VERTEX
8
CUT
10
238.4355
20
60.0897
0
VERTEX
8
CUT
10
238.6797
20
60.0906
0
VERTEX
8
CUT
10
238.9227
20
60.1154
0
VERTEX
8
CUT
10
239.1621
20
60.1637
0
VERTEX
8
CUT
10
239.3956
20
60.2351
0
VERTEX
8
CUT
10
239.9803
20
60.4457
0
VERTEX
8
CUT
10
240.1961
20
60.5351
0
VERTEX
8
CUT
10
240.4026
20
60.6442
0
VERTEX
8
CUT
10
240.5981
20
60.7721
0
VERTEX
8
CUT
10
240.7808
20
60.9176
0
VERTEX
8
CUT
10
240.8402
20
60.9697
0
VERTEX
8
CUT
10
240.8621
20
60.9860
0
VERTEX
8
CUT
10
240.9428
20
61.0597
0
VERTEX
8
CUT
10
241.4324
20
61.4887
0
VERTEX
8
CUT
10
241.6330
20
61.6855
0
VERTEX
8
CUT
10
241.8102
20
61.9036
0
VERTEX
8
CUT
10
241.9619
20
62.1401
0
VERTEX
8
CUT
10
242.1698
20
62.5086
0
VERTEX
8
CUT
10
242.2917
20
62.7555
0
VERTEX
8
CUT
10
242.3564
20
62.9335
0
VERTEX
8
CUT
10
242.4301
20
63.1022
0
VERTEX
8
CUT
10
242.4690
20
63.2061
0
VERTEX
8
CUT
10
242.5341
20
63.4052
0
VERTEX
8
CUT
10
242.5823
20
63.6090
0
VERTEX
8
CUT
10
242.6133
20
63.8162
0
VERTEX
8
CUT
10
242.6347
20
64.0157
0
VERTEX
8
CUT
10
242.6474
20
64.1001
0
VERTEX
8
CUT
10
242.6539
20
64.1642
0
VERTEX
8
CUT
10
242.6787
20
64.3579
0
VERTEX
8
CUT
10
242.6817
20
64.6500
0
VERTEX
8
CUT
10
242.6412
20
65.4926
0
VERTEX
8
CUT
10
242.6202
20
65.7172
0
VERTEX
8
CUT
10
242.5790
20
65.9390
0
VERTEX
8
CUT
10
242.5180
20
66.1562
0
VERTEX
8
CUT
10
242.4377
20
66.3670
0
VERTEX
8
CUT
10
242.2972
20
66.6911
0
VERTEX
8
CUT
10
242.2012
20
66.8882
0
VERTEX
8
CUT
10
242.0884
20
67.0761
0
VERTEX
8
CUT
10
241.9595
20
67.2535
0
VERTEX
8
CUT
10
241.8156
20
67.4188
0
VERTEX
8
CUT
10
241.8142
20
67.4204
0
VERTEX
8
CUT
10
241.6581
20
67.6657
0
VERTEX
8
CUT
10
241.5275
20
67.8517
0
VERTEX
8
CUT
10
241.3806
20
68.0252
0
VERTEX
8
CUT
10
241.2185
20
68.1845
0
VERTEX
8
CUT
10
241.0425
20
68.3285
0
VERTEX
8
CUT
10
240.4363
20
68.7802
0
VERTEX
8
CUT
10
240.2291
20
68.9192
0
VERTEX
8
CUT
10
240.0090
20
69.0367
0
VERTEX
8
CUT
10
239.7783
20
69.1318
0
VERTEX
8
CUT
10
239.5392
20
69.2033
0
VERTEX
8
CUT
10
239.4906
20
69.2153
0
VERTEX
8
CUT
10
239.4298
20
69.2384
0
VERTEX
8
CUT
10
239.1773
20
69.3050
0
VERTEX
8
CUT
10
238.9470
20
69.3531
0
VERTEX
8
CUT
10
238.7854
20
69.3788
0
VERTEX
8
CUT
10
238.7511
20
69.3855
0
VERTEX
8
CUT
10
238.7300
20
69.3876
0
VERTEX
8
CUT
10
238.7108
20
69.3907
0
VERTEX
8
CUT
10
238.6798
20
69.3926
0
VERTEX
8
CUT
10
238.5157
20
69.4089
0
VERTEX
8
CUT
10
238.2791
20
69.4099
0
VERTEX
8
CUT
10
238.0435
20
69.3886
0
VERTEX
8
CUT
10
237.9820
20
69.3771
0
VERTEX
8
CUT
10
237.8947
20
69.3700
0
VERTEX
8
CUT
10
237.6247
20
69.3331
0
VERTEX
8
CUT
10
237.3603
20
69.2670
0
VERTEX
8
CUT
10
236.9299
20
69.1341
0
VERTEX
8
CUT
10
236.8135
20
69.0929
0
VERTEX
8
CUT
10
236.8036
20
69.0899
0
VERTEX
8
CUT
10
236.7959
20
69.0867
0
VERTEX
8
CUT
10
236.7369
20
69.0658
0
VERTEX
8
CUT
10
236.5501
20
68.9818
0
VERTEX
8
CUT
10
236.5486
20
68.9810
0
VERTEX
8
CUT
10
236.5410
20
68.9778
0
VERTEX
8
CUT
10
236.4889
20
68.9481
0
VERTEX
8
CUT
10
236.3708
20
68.8829
0
VERTEX
8
CUT
10
236.3120
20
68.8473
0
VERTEX
8
CUT
10
236.2929
20
68.8363
0
VERTEX
8
CUT
10
236.2762
20
68.8255
0
VERTEX
8
CUT
10
236.0750
20
68.7035
0
VERTEX
8
CUT
10
235.8715
20
68.5660
0
VERTEX
8
CUT
10
235.8560
20
68.5531
0
VERTEX
8
CUT
10
235.4808
20
68.3098
0
VERTEX
8
CUT
10
235.2562
20
68.1458
0
VERTEX
8
CUT
10
235.0512
20
67.9578
0
VERTEX
8
CUT
10
234.8683
20
67.7482
0
VERTEX
8
CUT
10
234.6563
20
67.4759
0
VERTEX
8
CUT
10
234.5035
20
67.2564
0
VERTEX
8
CUT
10
234.3750
20
67.0218
0
VERTEX
8
CUT
10
234.2723
20
66.7748
0
VERTEX
8
CUT
10
234.2358
20
66.6717
0
VERTEX
8
CUT
10
234.1649
20
66.5257
0
VERTEX
8
CUT
10
234.0597
20
66.2737
0
VERTEX
8
CUT
10
233.9843
20
66.0684
0
VERTEX
8
CUT
10
233.9271
20
65.8574
0
VERTEX
8
CUT
10
233.8886
20
65.6421
0
VERTEX
8
CUT
10
233.8671
20
65.4813
0
VERTEX
8
CUT
10
233.8568
20
65.4235
0
VERTEX
8
CUT
10
233.8542
20
65.3853
0
VERTEX
8
CUT
10
233.8340
20
65.2346
0
VERTEX
8
CUT
10
233.8121
20
64.9375
0
VERTEX
8
CUT
10
233.8257
20
64.6399
0
VERTEX
8
CUT
10
233.8316
20
64.5841
0
VERTEX
8
CUT
10
233.8303
20
64.4809
0
VERTEX
8
CUT
10
233.8405
20
64.2224
0
VERTEX
8
CUT
10
233.8774
20
63.9664
0
VERTEX
8
CUT
10
233.9196
20
63.7987
0
SEQEND
0
POLYLINE
8
CUT
66
1
70
1
10
0.0
20
0.0
30
0.0
0
VERTEX
8
CUT
10
212.1966
20
258.7224
0
VERTEX
8
CUT
10
212.2236
20
258.4681
0
VERTEX
8
CUT
10
212.2765
20
258.2178
0
VERTEX
8
CUT
10
212.3547
20
257.9742
0
VERTEX
8
CUT
10
212.5447
20
257.4724
0
VERTEX
8
CUT
10
212.6540
20
257.2251
0
VERTEX
8
CUT
10
212.7893
20
256.9909
0
VERTEX
8
CUT
10
212.9492
20
256.7728
0
VERTEX
8
CUT
10
213.3715
20
256.2575
0
VERTEX
8
CUT
10
213.5294
20
256.0824
0
VERTEX
8
CUT
10
213.7032
20
255.9229
0
VERTEX
8
CUT
10
213.8911
20
255.7805
0
VERTEX
8
CUT
10
214.0917
20
255.6564
0
VERTEX
8
CUT
10
214.6269
20
255.3593
0
VERTEX
8
CUT
10
214.8658
20
255.2429
0
VERTEX
8
CUT
10
215.1157
20
255.1524
0
VERTEX
8
CUT
10
215.3737
20
255.0890
0
VERTEX
8
CUT
10
215.6371
20
255.0534
0
VERTEX
8
CUT
10
215.6951
20
255.0517
0
VERTEX
8
CUT
10
215.7018
20
255.0496
0
VERTEX
8
CUT
10
215.9340
20
254.9987
0
VERTEX
8
CUT
10
216.1700
20
254.9700
0
VERTEX
8
CUT
10
216.4076
20
254.9639
0
VERTEX
8
CUT
10
216.6447
20
254.9804
0
VERTEX
8
CUT
10
216.7380
20
254.9914
0
VERTEX
8
CUT
10
216.9630
20
255.0283
0
VERTEX
8
CUT
10
217.1837
20
255.0856
0
VERTEX
8
CUT
10
217.3049
20
255.1291
0
VERTEX
8
CUT
10
217.3873
20
255.1495
0
VERTEX
8
CUT
10
217.4347
20
255.1564
0
VERTEX
8
CUT
10
217.7074
20
255.2120
0
VERTEX
8
CUT
10
217.9722
20
255.2974
0
VERTEX
8
CUT
10
218.2258
20
255.4118
0
VERTEX
8
CUT
10
218.2600
20
255.4296
0
VERTEX
8
CUT
10
218.4539
20
255.5416
0
VERTEX
8
CUT
10
218.6369
20
255.6705
0
VERTEX
8
CUT
10
218.8076
20
255.8152
0
VERTEX
8
CUT
10
219.0986
20
256.0852
0
VERTEX
8
CUT
10
219.2438
20
256.2315
0
VERTEX
8
CUT
10
219.3765
20
256.3893
0
VERTEX
8
CUT
10
219.4957
20
256.5576
0
VERTEX
8
CUT
10
219.5843
20
256.6941
0
VERTEX
8
CUT
10
219.6107
20
256.7250
0
VERTEX
8
CUT
10
219.7422
20
256.9103
0
VERTEX
8
CUT
10
219.8563
20
257.1067
0
VERTEX
8
CUT
10
219.8938
20
257.1874
0
VERTEX
8
CUT
10
219.9444
20
257.2753
0
VERTEX
8
CUT
10
220.0517
20
257.5182
0
VERTEX
8
CUT
10
220.1051
20
257.6851
0
VERTEX
8
CUT
10
220.2212
20
257.9677
0
VERTEX
8
CUT
10
220.2997
20
258.1872
0
VERTEX
8
CUT
10
220.3573
20
258.4131
0
VERTEX
8
CUT
10
220.3937
20
258.6434
0
VERTEX
8
CUT
10
220.4084
20
258.8761
0
VERTEX
8
CUT
10
220.4192
20
259.5227
0
VERTEX
8
CUT
10
220.4113
20
259.7672
0
VERTEX
8
CUT
10
220.3796
20
260.0097
0
VERTEX
8
CUT
10
220.3243
20
260.2480
0
VERTEX
8
CUT
10
220.2460
20
260.4798
0
VERTEX
8
CUT
10
219.9511
20
261.2291
0
VERTEX
8
CUT
10
219.8617
20
261.4301
0
VERTEX
8
CUT
10
219.7548
20
261.6224
0
VERTEX
8
CUT
10
219.6316
20
261.8046
0
VERTEX
8
CUT
10
219.4927
20
261.9753
0
VERTEX
8
CUT
10
219.1229
20
262.3910
0
VERTEX
8
CUT
10
218.9327
20
262.5829
0
VERTEX
8
CUT
10
218.7229
20
262.7531
0
VERTEX
8
CUT
10
218.4960
20
262.8997
0
VERTEX
8
CUT
10
218.2546
20
263.0209
0
VERTEX
8
CUT
10
217.7724
20
263.2313
0
VERTEX
8
CUT
10
217.5235
20
263.3245
0
VERTEX
8
CUT
10
217.2662
20
263.3907
0
VERTEX
8
CUT
10
217.0032
20
263.4293
0
VERTEX
8
CUT
10
216.6135
20
263.4653
0
VERTEX
8
CUT
10
216.4034
20
263.4759
0
VERTEX
8
CUT
10
216.1930
20
263.4688
0
VERTEX
8
CUT
10
215.9841
20
263.4440
0
VERTEX
8
CUT
10
215.9690
20
263.4415
0
VERTEX
8
CUT
10
215.7945
20
263.4229
0
VERTEX
8
CUT
10
215.5688
20
263.3774
0
VERTEX
8
CUT
10
215.5643
20
263.3761
0
VERTEX
8
CUT
10
215.3785
20
263.3461
0
VERTEX
8
CUT
10
215.1405
20
263.2956
0
VERTEX
8
CUT
10
214.9086
20
263.2222
0
VERTEX
8
CUT
10
214.6848
20
263.1267
0
VERTEX
8
CUT
10
214.2537
20
262.9172
0
VERTEX
8
CUT
10
214.0602
20
262.8124
0
VERTEX
8
CUT
10
213.8768
20
262.6910
0
VERTEX
8
CUT
10
213.7047
20
262.5540
0
VERTEX
8
CUT
10
213.5453
20
262.4024
0
VERTEX
8
CUT
10
213.1910
20
262.0343
0
VERTEX
8
CUT
10
213.0383
20
261.8603
0
VERTEX
8
CUT
10
212.9024
20
261.6729
0
VERTEX
8
CUT
10
212.7845
20
261.4738
0
VERTEX
8
CUT
10
212.5627
20
261.0565
0
VERTEX
8
CUT
10
212.4667
20
260.8545
0
VERTEX
8
CUT
10
212.3891
20
260.6447
0
VERTEX
8
CUT
10
212.3306
20
260.4289
0
VERTEX
8
CUT
10
212.2233
20
259.9490
0
VERTEX
8
CUT
10
212.1836
20
259.7236
0
VERTEX
8
CUT
10
212.1647
20
259.4954
0
VERTEX
8
CUT
10
212.1667
20
259.2665
0
SEQEND
0
POLYLINE
8
CUT
66
1
70
1
10
0.0
20
0.0
30
0.0
0
VERTEX
8
CUT
10
192.0817
20
29.8500
0
VERTEX
8
CUT
10
192.0873
20
29.8500
0
VERTEX
8
CUT
10
192.1097
20
29.8500
0
VERTEX
8
CUT
10
192.3648
20
29.8630
0
VERTEX
8
CUT
10
192.6172
20
29.9021
0
VERTEX
8
CUT
10
192.8643
20
29.9666
0
VERTEX
8
CUT
10
193.1035
20
30.0560
0
VERTEX
8
CUT
10
193.3324
20
30.1694
0
VERTEX
8
CUT
10
193.5485
20
30.3056
0
VERTEX
8
CUT
10
193.7496
20
30.4630
0
VERTEX
8
CUT
10
193.9336
20
30.6402
0
VERTEX
8
CUT
10
194.0985
20
30.8352
0
VERTEX
8
CUT
10
194.2427
20
31.0461
0
VERTEX
8
CUT
10
194.3646
20
31.2705
0
VERTEX
8
CUT
10
194.4553
20
31.4877
0
VERTEX
8
CUT
10
194.5208
20
31.6222
0
VERTEX
8
CUT
10
194.5356
20
31.6649
0
VERTEX
8
CUT
10
194.5777
20
31.7598
0
VERTEX
8
CUT
10
194.5934
20
31.8074
0
VERTEX
8
CUT
10
194.6496
20
31.9414
0
VERTEX
8
CUT
10
194.7219
20
32.1763
0
VERTEX
8
CUT
10
194.7461
20
32.2959
0
VERTEX
8
CUT
10
194.7491
20
32.3043
0
VERTEX
8
CUT
10
194.8264
20
32.5631
0
VERTEX
8
CUT
10
194.8754
20
32.8287
0
VERTEX
8
CUT
10
194.8953
20
33.0980
0
VERTEX
8
CUT
10
194.8861
20
33.3680
0
VERTEX
8
CUT
10
194.8696
20
33.5555
0
VERTEX
8
CUT
10
194.8699
20
33.5679
0
VERTEX
8
CUT
10
194.8666
20
33.7817
0
VERTEX
8
CUT
10
194.8513
20
33.9323
0
VERTEX
8
CUT
10
194.8513
20
33.9758
0
VERTEX
8
CUT
10
194.8247
20
34.2335
0
VERTEX
8
CUT
10
194.7715
20
34.4871
0
VERTEX
8
CUT
10
194.7278
20
34.6234
0
VERTEX
8
CUT
10
194.7223
20
34.6461
0
VERTEX
8
CUT
10
194.7039
20
34.6978
0
VERTEX
8
CUT
10
194.6924
20
34.7338
0
VERTEX
8
CUT
10
194.6738
20
34.7828
0
VERTEX
8
CUT
10
194.6633
20
34.8124
0
VERTEX
8
CUT
10
194.6605
20
34.8247
0
VERTEX
8
CUT
10
194.6002
20
35.0391
0
VERTEX
8
CUT
10
194.5212
20
35.2472
0
VERTEX
8
CUT
10
194.4239
20
35.4475
0
VERTEX
8
CUT
10
194.4176
20
35.4590
0
VERTEX
8
CUT
10
194.3139
20
35.7327
0
VERTEX
8
CUT
10
194.2189
20
35.9514
0
VERTEX
8
CUT
10
194.1034
20
36.1601
0
VERTEX
8
CUT
10
193.9686
20
36.3568
0
VERTEX
8
CUT
10
193.8157
20
36.5398
0
VERTEX
8
CUT
10
193.2679
20
37.1351
0
VERTEX
8
CUT
10
193.0682
20
37.3292
0
VERTEX
8
CUT
10
192.8482
20
37.4998
0
VERTEX
8
CUT
10
192.6106
20
37.6450
0
VERTEX
8
CUT
10
191.9759
20
37.9857
0
VERTEX
8
CUT
10
191.7757
20
38.0819
0
VERTEX
8
CUT
10
191.5679
20
38.1600
0
VERTEX
8
CUT
10
191.3539
20
38.2194
0
VERTEX
8
CUT
10
191.2243
20
38.2432
0
VERTEX
8
CUT
10
191.0962
20
38.2771
0
VERTEX
8
CUT
10
190.8515
20
38.3166
0
VERTEX
8
CUT
10
190.6193
20
38.3307
0
VERTEX
8
CUT
10
190.5137
20
38.3453
0
VERTEX
8
CUT
10
190.5122
20
38.3456
0
VERTEX
8
CUT
10
190.4982
20
38.3475
0
VERTEX
8
CUT
10
190.4537
20
38.3536
0
VERTEX
8
CUT
10
190.4488
20
38.3541
0
VERTEX
8
CUT
10
190.2783
20
38.3768
0
VERTEX
8
CUT
10
190.0425
20
38.3858
0
VERTEX
8
CUT
10
189.8070
20
38.3725
0
VERTEX
8
CUT
10
189.5737
20
38.3371
0
VERTEX
8
CUT
10
189.2957
20
38.2813
0
VERTEX
8
CUT
10
189.0144
20
38.2382
0
VERTEX
8
CUT
10
188.7801
20
38.1908
0
VERTEX
8
CUT
10
188.5515
20
38.1212
0
VERTEX
8
CUT
10
188.3305
20
38.0301
0
VERTEX
8
CUT
10
187.6930
20
37.7308
0
VERTEX
8
CUT
10
187.4749
20
37.6149
0
VERTEX
8
CUT
10
187.2692
20
37.4781
0
VERTEX
8
CUT
10
187.0781
20
37.3216
0
VERTEX
8
CUT
10
186.5278
20
36.8238
0
VERTEX
8
CUT
10
186.3308
20
36.6243
0
VERTEX
8
CUT
10
186.1574
20
36.4040
0
VERTEX
8
CUT
10
186.0097
20
36.1657
0
VERTEX
8
CUT
10
185.6966
20
35.5910
0
VERTEX
8
CUT
10
185.5744
20
35.3325
0
VERTEX
8
CUT
10
185.4826
20
35.0617
0
VERTEX
8
CUT
10
185.4222
20
34.7821
0
VERTEX
8
CUT
10
185.2756
20
33.8461
0
VERTEX
8
CUT
10
185.2506
20
33.6188
0
VERTEX
8
CUT
10
185.2464
20
33.3901
0
VERTEX
8
CUT
10
185.2632
20
33.1620
0
VERTEX
8
CUT
10
185.2962
20
32.8863
0
VERTEX
8
CUT
10
185.2973
20
32.8551
0
VERTEX
8
CUT
10
185.3260
20
32.6291
0
VERTEX
8
CUT
10
185.3283
20
32.6185
0
VERTEX
8
CUT
10
185.3465
20
32.4663
0
VERTEX
8
CUT
10
185.4013
20
32.1659
0
VERTEX
8
CUT
10
185.4923
20
31.8744
0
VERTEX
8
CUT
10
185.6129
20
31.5575
0
VERTEX
8
CUT
10
185.6594
20
31.4183
0
VERTEX
8
CUT
10
185.7870
20
31.1486
0
VERTEX
8
CUT
10
185.7875
20
31.1477
0
VERTEX
8
CUT
10
185.9145
20
30.9407
0
VERTEX
8
CUT
10
186.0610
20
30.7470
0
VERTEX
8
CUT
10
186.2256
20
30.5684
0
VERTEX
8
CUT
10
186.4068
20
30.4066
0
VERTEX
8
CUT
10
186.6028
20
30.2632
0
VERTEX
8
CUT
10
186.8118
20
30.1394
0
VERTEX
8
CUT
10
187.0318
20
30.0366
0
VERTEX
8
CUT
10
187.2608
20
29.9555
0
VERTEX
8
CUT
10
187.4965
20
29.8971
0
VERTEX
8
CUT
10
187.7368
20
29.8618
0
VERTEX
8
CUT
10
187.9794
20
29.8500
0
VERTEX
8
CUT
10
187.9862
20
29.8500
0
VERTEX
8
CUT
10
188.0187
20
29.8500
0
VERTEX
8
CUT
10
188.0353
20
29.8500
0
VERTEX
8
CUT
10
192.0024
20
29.8500
0
SEQEND
0
POLYLINE
8
CUT
66
1
70
1
10
0.0
20
0.0
30
0.0
0
VERTEX
8
CUT
10
136.1135
20
41.6428
0
VERTEX
8
CUT
10
136.1880
20
41.4366
0
VERTEX
8
CUT
10
136.2802
20
41.2377
0
VERTEX
8
CUT
10
136.3895
20
41.0476
0
VERTEX
8
CUT
10
136.5150
20
40.8679
0
VERTEX
8
CUT
10
136.8372
20
40.4471
0
VERTEX
8
CUT
10
136.9952
20
40.2605
0
VERTEX
8
CUT
10
137.1707
20
40.0901
0
VERTEX
8
CUT
10
137.3620
20
39.9378
0
VERTEX
8
CUT
10
137.5673
20
39.8048
0
VERTEX
8
CUT
10
138.2104
20
39.4315
0
VERTEX
8
CUT
10
138.4146
20
39.3253
0
VERTEX
8
CUT
10
138.6278
20
39.2382
0
VERTEX
8
CUT
10
138.8480
20
39.1712
0
VERTEX
8
CUT
10
139.0735
20
39.1247
0
VERTEX
8
CUT
10
139.3023
20
39.0991
0
VERTEX
8
CUT
10
139.5325
20
39.0947
0
VERTEX
8
CUT
10
140.1898
20
39.1124
0
VERTEX
8
CUT
10
140.4313
20
39.1306
0
VERTEX
8
CUT
10
140.6699
20
39.1722
0
VERTEX
8
CUT
10
140.9034
20
39.2366
0
VERTEX
8
CUT
10
141.1296
20
39.3233
0
VERTEX
8
CUT
10
141.4536
20
39.4659
0
VERTEX
8
CUT
10
141.6608
20
39.5688
0
VERTEX
8
CUT
10
141.8576
20
39.6904
0
VERTEX
8
CUT
10
142.0424
20
39.8298
0
VERTEX
8
CUT
10
142.2135
20
39.9855
0
VERTEX
8
CUT
10
142.6564
20
40.4281
0
VERTEX
8
CUT
10
142.8294
20
40.6198
0
VERTEX
8
CUT
10
142.9817
20
40.8284
0
VERTEX
8
CUT
10
143.1117
20
41.0515
0
VERTEX
8
CUT
10
143.4081
20
41.6268
0
VERTEX
8
CUT
10
143.5118
20
41.8553
0
VERTEX
8
CUT
10
143.5919
20
42.0932
0
VERTEX
8
CUT
10
143.6479
20
42.3378
0
VERTEX
8
CUT
10
143.7394
20
42.8570
0
VERTEX
8
CUT
10
143.7708
20
43.1099
0
VERTEX
8
CUT
10
143.7763
20
43.3646
0
VERTEX
8
CUT
10
143.7558
20
43.6185
0
VERTEX
8
CUT
10
143.7028
20
44.0201
0
VERTEX
8
CUT
10
143.6585
20
44.2627
0
VERTEX
8
CUT
10
143.5905
20
44.4997
0
VERTEX
8
CUT
10
143.4994
20
44.7289
0
VERTEX
8
CUT
10
143.3249
20
45.1121
0
VERTEX
8
CUT
10
143.2101
20
45.3341
0
VERTEX
8
CUT
10
143.0737
20
45.5434
0
VERTEX
8
CUT
10
142.9171
20
45.7381
0
VERTEX
8
CUT
10
142.6118
20
46.0811
0
VERTEX
8
CUT
10
142.4120
20
46.2815
0
VERTEX
8
CUT
10
142.1908
20
46.4580
0
VERTEX
8
CUT
10
141.9510
20
46.6084
0
VERTEX
8
CUT
10
141.5823
20
46.8116
0
VERTEX
8
CUT
10
141.5090
20
46.8479
0
VERTEX
8
CUT
10
141.4719
20
46.8675
0
VERTEX
8
CUT
10
141.4552
20
46.8744
0
VERTEX
8
CUT
10
141.3845
20
46.9094
0
VERTEX
8
CUT
10
141.1789
20
46.9895
0
VERTEX
8
CUT
10
140.9670
20
47.0511
0
VERTEX
8
CUT
10
140.7505
20
47.0937
0
VERTEX
8
CUT
10
140.1882
20
47.1790
0
VERTEX
8
CUT
10
139.9121
20
47.2053
0
VERTEX
8
CUT
10
139.6347
20
47.2008
0
VERTEX
8
CUT
10
139.3596
20
47.1657
0
VERTEX
8
CUT
10
138.7044
20
47.0447
0
VERTEX
8
CUT
10
138.4690
20
46.9893
0
VERTEX
8
CUT
10
138.2401
20
46.9115
0
VERTEX
8
CUT
10
138.0197
20
46.8119
0
VERTEX
8
CUT
10
137.8100
20
46.6915
0
VERTEX
8
CUT
10
137.4644
20
46.4702
0
VERTEX
8
CUT
10
137.2824
20
46.3419
0
VERTEX
8
CUT
10
137.1125
20
46.1979
0
VERTEX
8
CUT
10
136.9562
20
46.0393
0
VERTEX
8
CUT
10
136.8145
20
45.8674
0
VERTEX
8
CUT
10
136.5070
20
45.4585
0
VERTEX
8
CUT
10
136.3547
20
45.2309
0
VERTEX
8
CUT
10
136.2281
20
44.9881
0
VERTEX
8
CUT
10
136.1289
20
44.7329
0
VERTEX
8
CUT
10
135.9632
20
44.2262
0
VERTEX
8
CUT
10
135.8985
20
43.9892
0
VERTEX
8
CUT
10
135.8573
20
43.7470
0
VERTEX
8
CUT
10
135.8400
20
43.5020
0
VERTEX
8
CUT
10
135.8292
20
42.9892
0
VERTEX
8
CUT
10
135.8381
20
42.7197
0
VERTEX
8
CUT
10
135.8759
20
42.4528
0
VERTEX
8
CUT
10
135.9422
20
42.1915
0
SEQEND
0
POLYLINE
8
CUT
66
1
70
1
10
0.0
20
0.0
30
0.0
0
VERTEX
8
CUT
10
51.8795
20
222.2604
0
VERTEX
8
CUT
10
51.8882
20
221.8535
0
VERTEX
8
CUT
10
51.9023
20
221.6366
0
VERTEX
8
CUT
10
51.9352
20
221.4218
0
VERTEX
8
CUT
10
51.9866
20
221.2106
0
VERTEX
8
CUT
10
52.0561
20
221.0047
0
VERTEX
8
CUT
10
52.6293
20
219.5236
0
VERTEX
8
CUT
10
52.7387
20
219.2803
0
VERTEX
8
CUT
10
52.8734
20
219.0501
0
VERTEX
8
CUT
10
53.0318
20
218.8356
0
VERTEX
8
CUT
10
53.4101
20
218.3766
0
VERTEX
8
CUT
10
53.4235
20
218.3620
0
VERTEX
8
CUT
10
53.4418
20
218.3399
0
VERTEX
8
CUT
10
53.4661
20
218.3155
0
VERTEX
8
CUT
10
53.5847
20
218.1859
0
VERTEX
8
CUT
10
53.7780
20
218.0143
0
VERTEX
8
CUT
10
54.3224
20
217.5790
0
VERTEX
8
CUT
10
54.5473
20
217.4187
0
VERTEX
8
CUT
10
54.7886
20
217.2842
0
VERTEX
8
CUT
10
55.0119
20
217.1754
0
VERTEX
8
CUT
10
55.1559
20
217.0922
0
VERTEX
8
CUT
10
55.3445
20
216.9937
0
VERTEX
8
CUT
10
55.5408
20
216.9117
0
VERTEX
8
CUT
10
55.7434
20
216.8466
0
VERTEX
8
CUT
10
56.4115
20
216.6629
0
VERTEX
8
CUT
10
56.7108
20
216.6000
0
VERTEX
8
CUT
10
57.0155
20
216.5742
0
VERTEX
8
CUT
10
57.5941
20
216.5606
0
VERTEX
8
CUT
10
57.8212
20
216.5656
0
VERTEX
8
CUT
10
58.0469
20
216.5912
0
VERTEX
8
CUT
10
58.2694
20
216.6371
0
VERTEX
8
CUT
10
58.8940
20
216.7961
0
VERTEX
8
CUT
10
59.1645
20
216.8816
0
VERTEX
8
CUT
10
59.4236
20
216.9971
0
VERTEX
8
CUT
10
59.6680
20
217.1413
0
VERTEX
8
CUT
10
59.7194
20
217.1757
0
VERTEX
8
CUT
10
59.9079
20
217.2699
0
VERTEX
8
CUT
10
60.1508
20
217.4087
0
VERTEX
8
CUT
10
60.3766
20
217.5738
0
VERTEX
8
CUT
10
60.5826
20
217.7631
0
VERTEX
8
CUT
10
60.9379
20
218.1284
0
VERTEX
8
CUT
10
60.9452
20
218.1352
0
VERTEX
8
CUT
10
60.9962
20
218.1883
0
VERTEX
8
CUT
10
61.3165
20
218.5175
0
VERTEX
8
CUT
10
61.4675
20
218.6876
0
VERTEX
8
CUT
10
61.6025
20
218.8707
0
VERTEX
8
CUT
10
61.7202
20
219.0653
0
VERTEX
8
CUT
10
61.8198
20
219.2698
0
VERTEX
8
CUT
10
61.8746
20
219.3968
0
VERTEX
8
CUT
10
61.8892
20
219.4202
0
VERTEX
8
CUT
10
61.9980
20
219.6408
0
VERTEX
8
CUT
10
62.0846
20
219.8711
0
VERTEX
8
CUT
10
62.0931
20
219.9027
0
VERTEX
8
CUT
10
62.3467
20
220.4902
0
VERTEX
8
CUT
10
62.3889
20
220.5767
0
VERTEX
8
CUT
10
62.4112
20
220.6396
0
VERTEX
8
CUT
10
62.4753
20
220.7881
0
VERTEX
8
CUT
10
62.5558
20
221.0004
0
VERTEX
8
CUT
10
62.6167
20
221.2192
0
VERTEX
8
CUT
10
62.6574
20
221.4427
0
VERTEX
8
CUT
10
62.6777
20
221.6689
0
VERTEX
8
CUT
10
62.6774
20
221.8960
0
VERTEX
8
CUT
10
62.6766
20
221.9139
0
VERTEX
8
CUT
10
62.6823
20
221.9590
0
VERTEX
8
CUT
10
62.6900
20
222.1894
0
VERTEX
8
CUT
10
62.6764
20
222.4195
0
VERTEX
8
CUT
10
62.6424
20
222.6430
0
VERTEX
8
CUT
10
62.6424
20
222.6440
0
VERTEX
8
CUT
10
62.6197
20
222.8829
0
VERTEX
8
CUT
10
62.5742
20
223.1184
0
VERTEX
8
CUT
10
62.5063
20
223.3486
0
VERTEX
8
CUT
10
62.4167
20
223.5711
0
VERTEX
8
CUT
10
62.3063
20
223.8112
0
VERTEX
8
CUT
10
62.2875
20
223.8743
0
VERTEX
8
CUT
10
62.1850
20
224.1559
0
VERTEX
8
CUT
10
62.0495
20
224.4231
0
VERTEX
8
CUT
10
61.9356
20
224.6177
0
VERTEX
8
CUT
10
61.7678
20
224.9828
0
VERTEX
8
CUT
10
61.6560
20
225.1979
0
VERTEX
8
CUT
10
61.5239
20
225.4012
0
VERTEX
8
CUT
10
61.3727
20
225.5907
0
VERTEX
8
CUT
10
61.2969
20
225.6769
0
VERTEX
8
CUT
10
61.1844
20
225.8200
0
VERTEX
8
CUT
10
61.0279
20
225.9856
0
VERTEX
8
CUT
10
61.0154
20
225.9966
0
VERTEX
8
CUT
10
60.9427
20
226.0792
0
VERTEX
8
CUT
10
60.7577
20
226.2681
0
VERTEX
8
CUT
10
60.5539
20
226.4365
0
VERTEX
8
CUT
10
60.0396
20
226.8172
0
VERTEX
8
CUT
10
59.8281
20
226.9578
0
VERTEX
8
CUT
10
59.6034
20
227.0762
0
VERTEX
8
CUT
10
59.0267
20
227.3435
0
VERTEX
8
CUT
10
58.7431
20
227.4546
0
VERTEX
8
CUT
10
58.4480
20
227.5303
0
VERTEX
8
CUT
10
57.9736
20
227.6216
0
VERTEX
8
CUT
10
57.6816
20
227.6602
0
VERTEX
8
CUT
10
57.3872
20
227.6641
0
VERTEX
8
CUT
10
56.8739
20
227.6408
0
VERTEX
8
CUT
10
56.6331
20
227.6181
0
VERTEX
8
CUT
10
56.3957
20
227.5723
0
VERTEX
8
CUT
10
56.1638
20
227.5037
0
VERTEX
8
CUT
10
54.9873
20
227.0932
0
VERTEX
8
CUT
10
54.7237
20
226.9839
0
VERTEX
8
CUT
10
54.4742
20
226.8453
0
VERTEX
8
CUT
10
54.2422
20
226.6792
0
VERTEX
8
CUT
10
53.8241
20
226.3423
0
VERTEX
8
CUT
10
53.6551
20
226.1929
0
VERTEX
8
CUT
10
53.5001
20
226.0290
0
VERTEX
8
CUT
10
53.3606
20
225.8517
0
VERTEX
8
CUT
10
52.9256
20
225.2444
0
VERTEX
8
CUT
10
52.8125
20
225.0720
0
VERTEX
8
CUT
10
52.7140
20
224.8908
0
VERTEX
8
CUT
10
52.6308
20
224.7021
0
VERTEX
8
CUT
10
52.5760
20
224.5625
0
VERTEX
8
CUT
10
52.5437
20
224.5068
0
VERTEX
8
CUT
10
52.4440
20
224.2891
0
VERTEX
8
CUT
10
52.3656
20
224.0628
0
VERTEX
8
CUT
10
52.3428
20
223.9686
0
VERTEX
8
CUT
10
52.0519
20
223.2275
0
VERTEX
8
CUT
10
51.9730
20
222.9933
0
VERTEX
8
CUT
10
51.9177
20
222.7525
0
VERTEX
8
CUT
10
51.8864
20
222.5074
0
SEQEND
0
POLYLINE
8
CUT
66
1
70
1
10
0.0
20
0.0
30
0.0
0
VERTEX
8
CUT
10
31.4383
20
262.8833
0
VERTEX
8
CUT
10
31.5854
20
261.5616
0
VERTEX
8
CUT
10
31.6277
20
261.3043
0
VERTEX
8
CUT
10
31.6966
20
261.0528
0
VERTEX
8
CUT
10
31.7913
20
260.8098
0
VERTEX
8
CUT
10
31.8795
20
260.6144
0
VERTEX
8
CUT
10
32.1394
20
259.9722
0
VERTEX
8
CUT
10
32.2479
20
259.7394
0
VERTEX
8
CUT
10
32.3798
20
259.5189
0
VERTEX
8
CUT
10
32.4100
20
259.4784
0
VERTEX
8
CUT
10
32.4134
20
259.4718
0
VERTEX
8
CUT
10
32.5761
20
259.2328
0
VERTEX
8
CUT
10
32.7610
20
258.9922
0
VERTEX
8
CUT
10
32.9305
20
258.7941
0
VERTEX
8
CUT
10
33.0923
20
258.6406
0
VERTEX
8
CUT
10
33.2476
20
258.4705
0
VERTEX
8
CUT
10
33.4216
20
258.3126
0
VERTEX
8
CUT
10
33.6098
20
258.1718
0
VERTEX
8
CUT
10
33.7099
20
258.1106
0
VERTEX
8
CUT
10
33.9326
20
257.9204
0
VERTEX
8
CUT
10
34.1564
20
257.7501
0
VERTEX
8
CUT
10
34.3978
20
257.6060
0
VERTEX
8
CUT
10
34.6539
20
257.4900
0
VERTEX
8
CUT
10
35.1314
20
257.3052
0
VERTEX
8
CUT
10
35.3956
20
257.1883
0
VERTEX
8
CUT
10
35.6177
20
257.1025
0
VERTEX
8
CUT
10
35.7549
20
257.0640
0
VERTEX
8
CUT
10
36.3069
20
256.8503
0
VERTEX
8
CUT
10
36.5754
20
256.7635
0
VERTEX
8
CUT
10
36.8519
20
256.7075
0
VERTEX
8
CUT
10
37.1330
20
256.6830
0
VERTEX
8
CUT
10
37.3752
20
256.6757
0
VERTEX
8
CUT
10
37.6700
20
256.6841
0
VERTEX
8
CUT
10
37.9618
20
256.7272
0
VERTEX
8
CUT
10
38.5242
20
256.8445
0
VERTEX
8
CUT
10
38.7472
20
256.9018
0
VERTEX
8
CUT
10
38.9639
20
256.9794
0
VERTEX
8
CUT
10
39.1726
20
257.0766
0
VERTEX
8
CUT
10
39.3132
20
257.1502
0
VERTEX
8
CUT
10
39.3617
20
257.1636
0
VERTEX
8
CUT
10
39.5697
20
257.2415
0
VERTEX
8
CUT
10
39.7700
20
257.3375
0
VERTEX
8
CUT
10
40.0516
20
257.4883
0
VERTEX
8
CUT
10
40.2372
20
257.5983
0
VERTEX
8
CUT
10
40.4126
20
257.7238
0
VERTEX
8
CUT
10
40.5766
20
257.8641
0
VERTEX
8
CUT
10
40.7279
20
258.0179
0
VERTEX
8
CUT
10
40.8116
20
258.1107
0
VERTEX
8
CUT
10
40.8211
20
258.1172
0
VERTEX
8
CUT
10
41.0298
20
258.2747
0
VERTEX
8
CUT
10
41.2210
20
258.4533
0
VERTEX
8
CUT
10
41.4969
20
258.7395
0
VERTEX
8
CUT
10
41.6940
20
258.9705
0
VERTEX
8
CUT
10
41.8616
20
259.2236
0
VERTEX
8
CUT
10
42.1756
20
259.7668
0
VERTEX
8
CUT
10
42.2258
20
259.8318
0
VERTEX
8
CUT
10
42.3462
20
260.0197
0
VERTEX
8
CUT
10
42.4493
20
260.2176
0
VERTEX
8
CUT
10
42.5343
20
260.4239
0
VERTEX
8
CUT
10
42.9535
20
261.5855
0
VERTEX
8
CUT
10
43.0347
20
261.8583
0
VERTEX
8
CUT
10
43.0844
20
262.1386
0
VERTEX
8
CUT
10
43.1160
20
262.4042
0
VERTEX
8
CUT
10
43.1336
20
262.7039
0
VERTEX
8
CUT
10
43.1151
20
263.0035
0
VERTEX
8
CUT
10
43.0458
20
263.5694
0
VERTEX
8
CUT
10
43.0051
20
263.8066
0
VERTEX
8
CUT
10
42.9418
20
264.0387
0
VERTEX
8
CUT
10
42.7361
20
264.6713
0
VERTEX
8
CUT
10
42.6464
20
264.9063
0
VERTEX
8
CUT
10
42.5335
20
265.1312
0
VERTEX
8
CUT
10
42.2427
20
265.6440
0
VERTEX
8
CUT
10
42.1272
20
265.8285
0
VERTEX
8
CUT
10
41.9960
20
266.0024
0
VERTEX
8
CUT
10
41.9138
20
266.0935
0
VERTEX
8
CUT
10
41.9045
20
266.1084
0
VERTEX
8
CUT
10
41.7545
20
266.3026
0
VERTEX
8
CUT
10
41.6002
20
266.4833
0
VERTEX
8
CUT
10
41.4459
20
266.6814
0
VERTEX
8
CUT
10
41.3244
20
266.8061
0
VERTEX
8
CUT
10
41.1660
20
266.9916
0
VERTEX
8
CUT
10
41.0140
20
267.1543
0
VERTEX
8
CUT
10
40.8481
20
267.3028
0
VERTEX
8
CUT
10
40.6697
20
267.4360
0
VERTEX
8
CUT
10
40.5319
20
267.5296
0
VERTEX
8
CUT
10
40.4258
20
267.6162
0
VERTEX
8
CUT
10
40.1797
20
267.7732
0
VERTEX
8
CUT
10
40.1439
20
267.7932
0
VERTEX
8
CUT
10
40.0022
20
267.8894
0
VERTEX
8
CUT
10
39.8054
20
268.0101
0
VERTEX
8
CUT
10
39.5983
20
268.1123
0
VERTEX
8
CUT
10
39.5161
20
268.1437
0
VERTEX
8
CUT
10
39.4886
20
268.1591
0
VERTEX
8
CUT
10
39.2439
20
268.2787
0
VERTEX
8
CUT
10
38.9876
20
268.3711
0
VERTEX
8
CUT
10
38.7113
20
268.4539
0
VERTEX
8
CUT
10
38.4829
20
268.5498
0
VERTEX
8
CUT
10
38.2184
20
268.6279
0
VERTEX
8
CUT
10
37.9469
20
268.6763
0
VERTEX
8
CUT
10
37.5914
20
268.7197
0
VERTEX
8
CUT
10
37.3775
20
268.7366
0
VERTEX
8
CUT
10
37.1630
20
268.7350
0
VERTEX
8
CUT
10
36.9494
20
268.7151
0
VERTEX
8
CUT
10
36.7430
20
268.6868
0
VERTEX
8
CUT
10
36.6989
20
268.6858
0
VERTEX
8
CUT
10
36.4642
20
268.6583
0
VERTEX
8
CUT
10
36.3370
20
268.6310
0
VERTEX
8
CUT
10
36.0866
20
268.5834
0
VERTEX
8
CUT
10
35.8385
20
268.5090
0
VERTEX
8
CUT
10
35.7886
20
268.4911
0
VERTEX
8
CUT
10
35.5776
20
268.4353
0
VERTEX
8
CUT
10
35.3428
20
268.3606
0
VERTEX
8
CUT
10
35.1165
20
268.2632
0
VERTEX
8
CUT
10
34.9817
20
268.1887
0
VERTEX
8
CUT
10
34.9359
20
268.1693
0
VERTEX
8
CUT
10
34.6896
20
268.0306
0
VERTEX
8
CUT
10
34.1606
20
267.6917
0
VERTEX
8
CUT
10
34.0921
20
267.6431
0
VERTEX
8
CUT
10
33.9725
20
267.5691
0
VERTEX
8
CUT
10
33.7805
20
267.4375
0
VERTEX
8
CUT
10
33.6016
20
267.2886
0
VERTEX
8
CUT
10
33.4374
20
267.1237
0
VERTEX
8
CUT
10
32.7410
20
266.3564
0
VERTEX
8
CUT
10
32.5796
20
266.1592
0
VERTEX
8
CUT
10
32.4391
20
265.9466
0
VERTEX
8
CUT
10
32.3210
20
265.7208
0
VERTEX
8
CUT
10
32.3197
20
265.7180
0
VERTEX
8
CUT
10
32.2687
20
265.6535
0
VERTEX
8
CUT
10
32.1411
20
265.4565
0
VERTEX
8
CUT
10
32.0325
20
265.2483
0
VERTEX
8
CUT
10
31.7639
20
264.6688
0
VERTEX
8
CUT
10
31.6705
20
264.4374
0
VERTEX
8
CUT
10
31.6005
20
264.1979
0
VERTEX
8
CUT
10
31.4912
20
263.7398
0
VERTEX
8
CUT
10
31.4503
20
263.5282
0
VERTEX
8
CUT
10
31.4278
20
263.3138
0
VERTEX
8
CUT
10
31.4238
20
263.0983
0
SEQEND
0
ENDSEC
0
EOF
