0
SECTION
2
HEADER
9
$ACADVER
1
AC1009
9
$INSUNITS
70
4
0
ENDSEC
0
SECTION
2
TABLES
0
TABLE
2
LAYER
70
1
0
LAYER
2
CUT
70
0
62
7
6
CONTINUOUS
0
ENDTAB
0
ENDSEC
0
SECTION
2
ENTITIES
0
POLYLINE
8
CUT
66
1
70
1
10
0.0
20
0.0
30
0.0
0
VERTEX
8
CUT
10
58.3726
20
27.1147
0
VERTEX
8
CUT
10
57.7761
20
29.1768
0
VERTEX
8
CUT
10
57.2938
20
32.2887
0
VERTEX
8
CUT
10
56.9328
20
37.8844
0
VERTEX
8
CUT
10
56.9635
20
41.4616
0
VERTEX
8
CUT
10
57.3239
20
46.5984
0
VERTEX
8
CUT
10
58.1997
20
53.2429
0
VERTEX
8
CUT
10
60.8385
20
66.6542
0
VERTEX
8
CUT
10
60.7394
20
67.3194
0
VERTEX
8
CUT
10
60.1817
20
67.6218
0
VERTEX
8
CUT
10
57.8160
20
67.1892
0
VERTEX
8
CUT
10
57.0115
20
67.4554
0
VERTEX
8
CUT
10
56.1598
20
68.3280
0
VERTEX
8
CUT
10
55.9413
20
69.2178
0
VERTEX
8
CUT
10
56.2699
20
70.3321
0
VERTEX
8
CUT
10
57.0910
20
71.6390
0
VERTEX
8
CUT
10
58.2954
20
73.0580
0
VERTEX
8
CUT
10
60.8267
20
75.3531
0
VERTEX
8
CUT
10
62.3254
20
77.3698
0
VERTEX
8
CUT
10
62.7933
20
78.3825
0
VERTEX
8
CUT
10
63.0348
20
79.3853
0
VERTEX
8
CUT
10
62.7735
20
80.4675
0
VERTEX
8
CUT
10
62.2228
20
80.7924
0
VERTEX
8
CUT
10
60.1891
20
81.3478
0
VERTEX
8
CUT
10
59.5079
20
82.1100
0
VERTEX
8
CUT
10
59.3733
20
82.9884
0
VERTEX
8
CUT
10
60.0636
20
84.2393
0
VERTEX
8
CUT
10
63.0568
20
86.2120
0
VERTEX
8
CUT
10
63.9933
20
87.0927
0
VERTEX
8
CUT
10
64.5085
20
88.0505
0
VERTEX
8
CUT
10
64.6797
20
89.0091
0
VERTEX
8
CUT
10
64.4313
20
90.1105
0
VERTEX
8
CUT
10
63.8602
20
91.0573
0
VERTEX
8
CUT
10
62.9021
20
92.0474
0
VERTEX
8
CUT
10
60.0417
20
93.8949
0
VERTEX
8
CUT
10
59.1175
20
94.7220
0
VERTEX
8
CUT
10
58.7391
20
95.5538
0
VERTEX
8
CUT
10
58.8935
20
96.3816
0
VERTEX
8
CUT
10
59.4480
20
97.1872
0
VERTEX
8
CUT
10
60.2586
20
97.7910
0
VERTEX
8
CUT
10
66.0769
20
99.6036
0
VERTEX
8
CUT
10
67.0651
20
100.4095
0
VERTEX
8
CUT
10
67.4888
20
101.0989
0
VERTEX
8
CUT
10
67.5856
20
101.9265
0
VERTEX
8
CUT
10
67.3560
20
102.5988
0
VERTEX
8
CUT
10
66.8172
20
103.2510
0
VERTEX
8
CUT
10
65.8495
20
103.8717
0
VERTEX
8
CUT
10
64.6384
20
104.2484
0
VERTEX
8
CUT
10
61.2305
20
104.4841
0
VERTEX
8
CUT
10
58.4385
20
104.9408
0
VERTEX
8
CUT
10
56.3149
20
105.6384
0
VERTEX
8
CUT
10
54.9843
20
106.6732
0
VERTEX
8
CUT
10
54.2849
20
107.5634
0
VERTEX
8
CUT
10
53.9021
20
108.4885
0
VERTEX
8
CUT
10
53.8414
20
108.9550
0
VERTEX
8
CUT
10
54.2027
20
109.8922
0
VERTEX
8
CUT
10
55.0565
20
110.7798
0
VERTEX
8
CUT
10
56.2496
20
111.5166
0
VERTEX
8
CUT
10
58.8143
20
112.3188
0
VERTEX
8
CUT
10
60.2737
20
113.1312
0
VERTEX
8
CUT
10
60.6891
20
113.7560
0
VERTEX
8
CUT
10
60.6100
20
114.8618
0
VERTEX
8
CUT
10
59.5320
20
116.2581
0
VERTEX
8
CUT
10
56.0071
20
119.3642
0
VERTEX
8
CUT
10
53.5840
20
121.2263
0
VERTEX
8
CUT
10
51.1958
20
122.5430
0
VERTEX
8
CUT
10
44.8962
20
125.4071
0
VERTEX
8
CUT
10
42.8754
20
126.9339
0
VERTEX
8
CUT
10
41.9762
20
128.0883
0
VERTEX
8
CUT
10
41.3556
20
129.5332
0
VERTEX
8
CUT
10
41.2753
20
130.8071
0
VERTEX
8
CUT
10
41.7899
20
131.8306
0
VERTEX
8
CUT
10
43.3999
20
132.8520
0
VERTEX
8
CUT
10
44.7509
20
133.0815
0
VERTEX
8
CUT
10
46.2666
20
132.8892
0
VERTEX
8
CUT
10
50.9024
20
131.0831
0
VERTEX
8
CUT
10
52.7676
20
130.7098
0
VERTEX
8
CUT
10
53.5545
20
130.9416
0
VERTEX
8
CUT
10
54.1261
20
131.5108
0
VERTEX
8
CUT
10
54.3844
20
132.0767
0
VERTEX
8
CUT
10
54.2770
20
132.9825
0
VERTEX
8
CUT
10
53.5611
20
134.2668
0
VERTEX
8
CUT
10
52.3098
20
135.4871
0
VERTEX
8
CUT
10
44.7209
20
140.2795
0
VERTEX
8
CUT
10
42.9494
20
141.9858
0
VERTEX
8
CUT
10
42.2373
20
143.1486
0
VERTEX
8
CUT
10
41.8952
20
144.1338
0
VERTEX
8
CUT
10
41.8965
20
144.9593
0
VERTEX
8
CUT
10
42.2529
20
145.7277
0
VERTEX
8
CUT
10
42.8229
20
146.3080
0
VERTEX
8
CUT
10
43.6064
20
146.7641
0
VERTEX
8
CUT
10
46.0464
20
147.0319
0
VERTEX
8
CUT
10
46.9860
20
147.6234
0
VERTEX
8
CUT
10
47.1055
20
148.5504
0
VERTEX
8
CUT
10
46.3566
20
149.7321
0
VERTEX
8
CUT
10
43.4151
20
152.2277
0
VERTEX
8
CUT
10
34.6880
20
157.5564
0
VERTEX
8
CUT
10
32.1601
20
159.7833
0
VERTEX
8
CUT
10
31.5033
20
160.8571
0
VERTEX
8
CUT
10
31.3090
20
161.8695
0
VERTEX
8
CUT
10
31.5394
20
162.8261
0
VERTEX
8
CUT
10
32.2373
20
163.7493
0
VERTEX
8
CUT
10
33.2816
20
164.4245
0
VERTEX
8
CUT
10
34.5876
20
164.6893
0
VERTEX
8
CUT
10
35.4290
20
164.6223
0
VERTEX
8
CUT
10
39.5978
20
163.1426
0
VERTEX
8
CUT
10
41.0881
20
162.8890
0
VERTEX
8
CUT
10
41.7458
20
163.1497
0
VERTEX
8
CUT
10
42.3006
20
163.9551
0
VERTEX
8
CUT
10
42.3303
20
164.7258
0
VERTEX
8
CUT
10
41.9514
20
165.5742
0
VERTEX
8
CUT
10
39.9643
20
167.7692
0
VERTEX
8
CUT
10
38.3210
20
169.0862
0
VERTEX
8
CUT
10
29.8679
20
174.7128
0
VERTEX
8
CUT
10
25.5462
20
178.4278
0
VERTEX
8
CUT
10
23.5685
20
180.8867
0
VERTEX
8
CUT
10
22.8726
20
182.1166
0
VERTEX
8
CUT
10
22.0885
20
184.1369
0
VERTEX
8
CUT
10
21.6878
20
186.3669
0
VERTEX
8
CUT
10
21.7139
20
188.4200
0
VERTEX
8
CUT
10
22.1751
20
190.0788
0
VERTEX
8
CUT
10
23.3584
20
191.5953
0
VERTEX
8
CUT
10
24.1790
20
192.1283
0
VERTEX
8
CUT
10
26.0321
20
192.5968
0
VERTEX
8
CUT
10
27.1506
20
192.5712
0
VERTEX
8
CUT
10
31.1804
20
191.5720
0
VERTEX
8
CUT
10
32.3406
20
191.4608
0
VERTEX
8
CUT
10
33.5723
20
191.8237
0
VERTEX
8
CUT
10
34.3281
20
192.6359
0
VERTEX
8
CUT
10
34.5408
20
193.1488
0
VERTEX
8
CUT
10
34.3301
20
194.4995
0
VERTEX
8
CUT
10
33.0473
20
196.4282
0
VERTEX
8
CUT
10
27.2359
20
202.8143
0
VERTEX
8
CUT
10
24.7410
20
206.1979
0
VERTEX
8
CUT
10
23.7891
20
208.0126
0
VERTEX
8
CUT
10
23.0860
20
209.8688
0
VERTEX
8
CUT
10
22.6794
20
211.6384
0
VERTEX
8
CUT
10
22.5586
20
213.3245
0
VERTEX
8
CUT
10
22.7115
20
214.7488
0
VERTEX
8
CUT
10
23.2274
20
216.0013
0
VERTEX
8
CUT
10
24.1089
20
216.9664
0
VERTEX
8
CUT
10
24.8307
20
217.4003
0
VERTEX
8
CUT
10
25.6562
20
217.5912
0
VERTEX
8
CUT
10
27.2526
20
217.1925
0
VERTEX
8
CUT
10
28.1512
20
216.5965
0
VERTEX
8
CUT
10
29.7794
20
214.8176
0
VERTEX
8
CUT
10
31.9236
20
211.7702
0
VERTEX
8
CUT
10
33.7472
20
210.3102
0
VERTEX
8
CUT
10
34.7290
20
209.8912
0
VERTEX
8
CUT
10
35.3212
20
209.9302
0
VERTEX
8
CUT
10
36.5336
20
210.8194
0
VERTEX
8
CUT
10
37.0538
20
211.6608
0
VERTEX
8
CUT
10
37.4137
20
213.7177
0
VERTEX
8
CUT
10
37.4121
20
215.7077
0
VERTEX
8
CUT
10
37.1148
20
217.5857
0
VERTEX
8
CUT
10
36.3743
20
219.5013
0
VERTEX
8
CUT
10
32.0445
20
226.8113
0
VERTEX
8
CUT
10
31.1386
20
229.2871
0
VERTEX
8
CUT
10
30.9793
20
231.2462
0
VERTEX
8
CUT
10
31.1961
20
232.2417
0
VERTEX
8
CUT
10
32.2624
20
233.5525
0
VERTEX
8
CUT
10
33.4275
20
234.3314
0
VERTEX
8
CUT
10
34.2463
20
234.3688
0
VERTEX
8
CUT
10
35.2024
20
233.9358
0
VERTEX
8
CUT
10
36.5597
20
232.7895
0
VERTEX
8
CUT
10
39.3118
20
228.7763
0
VERTEX
8
CUT
10
40.7236
20
227.4804
0
VERTEX
8
CUT
10
41.6041
20
227.0504
0
VERTEX
8
CUT
10
42.6414
20
227.0292
0
VERTEX
8
CUT
10
43.6318
20
227.6657
0
VERTEX
8
CUT
10
44.2709
20
228.5117
0
VERTEX
8
CUT
10
44.6344
20
229.4514
0
VERTEX
8
CUT
10
44.7188
20
230.5509
0
VERTEX
8
CUT
10
44.1088
20
233.3808
0
VERTEX
8
CUT
10
42.2853
20
237.3057
0
VERTEX
8
CUT
10
40.0149
20
241.3063
0
VERTEX
8
CUT
10
38.8891
20
244.1817
0
VERTEX
8
CUT
10
38.6183
20
246.5458
0
VERTEX
8
CUT
10
39.2544
20
248.5086
0
VERTEX
8
CUT
10
39.9278
20
249.3372
0
VERTEX
8
CUT
10
41.0213
20
250.2042
0
VERTEX
8
CUT
10
41.7922
20
250.3444
0
VERTEX
8
CUT
10
42.5761
20
250.1186
0
VERTEX
8
CUT
10
43.3634
20
249.6854
0
VERTEX
8
CUT
10
44.1420
20
248.8410
0
VERTEX
8
CUT
10
46.5968
20
244.2297
0
VERTEX
8
CUT
10
47.8276
20
242.8476
0
VERTEX
8
CUT
10
48.4934
20
242.4673
0
VERTEX
8
CUT
10
49.6356
20
242.3424
0
VERTEX
8
CUT
10
51.1598
20
243.0149
0
VERTEX
8
CUT
10
51.8539
20
243.7484
0
VERTEX
8
CUT
10
52.7630
20
245.8583
0
VERTEX
8
CUT
10
53.1431
20
249.0188
0
VERTEX
8
CUT
10
52.8126
20
256.8599
0
VERTEX
8
CUT
10
52.9346
20
259.8494
0
VERTEX
8
CUT
10
53.6616
20
263.4239
0
VERTEX
8
CUT
10
54.9417
20
266.0365
0
VERTEX
8
CUT
10
56.5454
20
267.7306
0
VERTEX
8
CUT
10
57.7176
20
268.3225
0
VERTEX
8
CUT
10
59.0774
20
268.3562
0
VERTEX
8
CUT
10
60.3483
20
267.7366
0
VERTEX
8
CUT
10
60.8288
20
267.0793
0
VERTEX
8
CUT
10
61.4324
20
265.2686
0
VERTEX
8
CUT
10
62.0081
20
259.9666
0
VERTEX
8
CUT
10
62.7481
20
257.7372
0
VERTEX
8
CUT
10
63.5569
20
256.8317
0
VERTEX
8
CUT
10
64.4973
20
256.3064
0
VERTEX
8
CUT
10
65.4511
20
256.1266
0
VERTEX
8
CUT
10
66.3761
20
256.4315
0
VERTEX
8
CUT
10
67.5769
20
257.3761
0
VERTEX
8
CUT
10
68.3910
20
258.6682
0
VERTEX
8
CUT
10
69.1589
20
260.5025
0
VERTEX
8
CUT
10
71.3589
20
267.3086
0
VERTEX
8
CUT
10
73.2216
20
271.2746
0
VERTEX
8
CUT
10
74.3450
20
273.0993
0
VERTEX
8
CUT
10
75.5414
20
274.8462
0
VERTEX
8
CUT
10
78.2789
20
277.9746
0
VERTEX
8
CUT
10
79.3701
20
279.0013
0
VERTEX
8
CUT
10
81.2925
20
280.3097
0
VERTEX
8
CUT
10
82.8823
20
280.7190
0
VERTEX
8
CUT
10
83.5886
20
280.5677
0
VERTEX
8
CUT
10
84.1778
20
280.1184
0
VERTEX
8
CUT
10
84.6054
20
279.4679
0
VERTEX
8
CUT
10
84.8089
20
278.3160
0
VERTEX
8
CUT
10
84.2041
20
275.5473
0
VERTEX
8
CUT
10
84.2006
20
272.4769
0
VERTEX
8
CUT
10
84.8412
20
271.0367
0
VERTEX
8
CUT
10
85.3280
20
270.5702
0
VERTEX
8
CUT
10
86.1818
20
270.2901
0
VERTEX
8
CUT
10
87.6283
20
270.4939
0
VERTEX
8
CUT
10
89.4868
20
271.3803
0
VERTEX
8
CUT
10
93.5132
20
276.6944
0
VERTEX
8
CUT
10
95.0117
20
278.0997
0
VERTEX
8
CUT
10
96.4212
20
278.6145
0
VERTEX
8
CUT
10
97.1088
20
278.5378
0
VERTEX
8
CUT
10
98.1900
20
277.9508
0
VERTEX
8
CUT
10
98.9020
20
276.8874
0
VERTEX
8
CUT
10
99.2170
20
275.2951
0
VERTEX
8
CUT
10
98.8619
20
267.6041
0
VERTEX
8
CUT
10
99.1058
20
266.6607
0
VERTEX
8
CUT
10
99.5747
20
265.9932
0
VERTEX
8
CUT
10
100.1350
20
265.5679
0
VERTEX
8
CUT
10
100.7355
20
265.4648
0
VERTEX
8
CUT
10
101.9640
20
266.0866
0
VERTEX
8
CUT
10
103.5726
20
268.0712
0
VERTEX
8
CUT
10
108.6051
20
276.9258
0
VERTEX
8
CUT
10
111.6520
20
281.1498
0
VERTEX
8
CUT
10
115.9857
20
285.6054
0
VERTEX
8
CUT
10
119.7856
20
288.5313
0
VERTEX
8
CUT
10
121.0915
20
289.1366
0
VERTEX
8
CUT
10
123.3119
20
289.6236
0
VERTEX
8
CUT
10
125.0872
20
289.2230
0
VERTEX
8
CUT
10
125.8282
20
288.5992
0
VERTEX
8
CUT
10
126.3819
20
287.8553
0
VERTEX
8
CUT
10
126.7763
20
286.8874
0
VERTEX
8
CUT
10
126.9453
20
285.7385
0
VERTEX
8
CUT
10
126.2571
20
279.7699
0
VERTEX
8
CUT
10
126.4310
20
278.1817
0
VERTEX
8
CUT
10
126.8457
20
277.1326
0
VERTEX
8
CUT
10
127.7695
20
276.0468
0
VERTEX
8
CUT
10
128.4865
20
275.6869
0
VERTEX
8
CUT
10
129.4943
20
275.7241
0
VERTEX
8
CUT
10
130.9671
20
276.4700
0
VERTEX
8
CUT
10
132.5983
20
278.1912
0
VERTEX
8
CUT
10
138.9831
20
288.2372
0
VERTEX
8
CUT
10
142.3390
20
291.9597
0
VERTEX
8
CUT
10
144.8826
20
293.9232
0
VERTEX
8
CUT
10
147.3291
20
295.1029
0
VERTEX
8
CUT
10
149.8537
20
295.5179
0
VERTEX
8
CUT
10
152.3743
20
295.1007
0
VERTEX
8
CUT
10
154.8214
20
293.8599
0
VERTEX
8
CUT
10
157.2709
20
291.8362
0
VERTEX
8
CUT
10
159.8456
20
288.9569
0
VERTEX
8
CUT
10
165.4062
20
281.2967
0
VERTEX
8
CUT
10
167.9264
20
279.0042
0
VERTEX
8
CUT
10
169.0737
20
278.4588
0
VERTEX
8
CUT
10
170.0610
20
278.3277
0
VERTEX
8
CUT
10
170.9741
20
278.5747
0
VERTEX
8
CUT
10
172.6460
20
280.0189
0
VERTEX
8
CUT
10
172.2738
20
287.4565
0
VERTEX
8
CUT
10
173.6332
20
288.8476
0
VERTEX
8
CUT
10
174.8588
20
289.5857
0
VERTEX
8
CUT
10
176.2115
20
289.7114
0
VERTEX
8
CUT
10
179.0183
20
288.7400
0
VERTEX
8
CUT
10
180.6102
20
287.7950
0
VERTEX
8
CUT
10
184.0053
20
285.0740
0
VERTEX
8
CUT
10
187.3001
20
281.5043
0
VERTEX
8
CUT
10
190.6194
20
276.7347
0
VERTEX
8
CUT
10
195.7437
20
267.4731
0
VERTEX
8
CUT
10
196.4505
20
266.5237
0
VERTEX
8
CUT
10
197.6519
20
265.5452
0
VERTEX
8
CUT
10
198.5571
20
265.5379
0
VERTEX
8
CUT
10
199.1099
20
265.8565
0
VERTEX
8
CUT
10
199.8638
20
267.0564
0
VERTEX
8
CUT
10
200.1206
20
268.9788
0
VERTEX
8
CUT
10
199.7903
20
272.2109
0
VERTEX
8
CUT
10
199.7641
20
274.8988
0
VERTEX
8
CUT
10
200.1680
20
276.8624
0
VERTEX
8
CUT
10
201.0987
20
278.1159
0
VERTEX
8
CUT
10
201.7353
20
278.4838
0
VERTEX
8
CUT
10
202.5064
20
278.6158
0
VERTEX
8
CUT
10
204.2166
20
277.9619
0
VERTEX
8
CUT
10
205.8410
20
276.3209
0
VERTEX
8
CUT
10
208.9148
20
272.1422
0
VERTEX
8
CUT
10
209.7661
20
271.3702
0
VERTEX
8
CUT
10
211.4343
20
270.4404
0
VERTEX
8
CUT
10
212.9325
20
270.4505
0
VERTEX
8
CUT
10
213.6682
20
270.7863
0
VERTEX
8
CUT
10
214.3054
20
271.3592
0
VERTEX
8
CUT
10
215.0743
20
272.6951
0
VERTEX
8
CUT
10
215.1913
20
274.2069
0
VERTEX
8
CUT
10
214.5588
20
277.2395
0
VERTEX
8
CUT
10
214.5014
20
278.9555
0
VERTEX
8
CUT
10
215.0979
20
280.0860
0
VERTEX
8
CUT
10
216.3226
20
280.6911
0
VERTEX
8
CUT
10
217.0375
20
280.6480
0
VERTEX
8
CUT
10
218.5858
20
279.9802
0
VERTEX
8
CUT
10
220.4950
20
278.4180
0
VERTEX
8
CUT
10
222.9067
20
275.8537
0
VERTEX
8
CUT
10
225.1610
20
272.7880
0
VERTEX
8
CUT
10
226.1465
20
271.0945
0
VERTEX
8
CUT
10
227.8308
20
267.3950
0
VERTEX
8
CUT
10
230.7529
20
258.8142
0
VERTEX
8
CUT
10
231.4353
20
257.6417
0
VERTEX
8
CUT
10
232.2276
20
256.8238
0
VERTEX
8
CUT
10
233.0479
20
256.3001
0
VERTEX
8
CUT
10
234.0225
20
256.1447
0
VERTEX
8
CUT
10
234.8179
20
256.4421
0
VERTEX
8
CUT
10
235.8641
20
257.1555
0
VERTEX
8
CUT
10
236.6801
20
258.1022
0
VERTEX
8
CUT
10
237.3537
20
260.1980
0
VERTEX
8
CUT
10
237.9335
20
265.2595
0
VERTEX
8
CUT
10
238.5096
20
267.0492
0
VERTEX
8
CUT
10
238.9722
20
267.6890
0
VERTEX
8
CUT
10
239.5834
20
268.1429
0
VERTEX
8
CUT
10
241.0277
20
268.4203
0
VERTEX
8
CUT
10
242.5294
20
268.0507
0
VERTEX
8
CUT
10
243.2389
20
267.5775
0
VERTEX
8
CUT
10
243.9327
20
266.8866
0
VERTEX
8
CUT
10
245.0784
20
265.1384
0
VERTEX
8
CUT
10
246.3081
20
261.6208
0
VERTEX
8
CUT
10
246.4960
20
259.6616
0
VERTEX
8
CUT
10
246.3155
20
251.3313
0
VERTEX
8
CUT
10
246.4036
20
246.9041
0
VERTEX
8
CUT
10
246.9184
20
244.8098
0
VERTEX
8
CUT
10
247.5549
20
243.7452
0
VERTEX
8
CUT
10
248.3374
20
242.9453
0
VERTEX
8
CUT
10
249.6123
20
242.3127
0
VERTEX
8
CUT
10
250.4763
20
242.3139
0
VERTEX
8
CUT
10
251.3914
20
242.7578
0
VERTEX
8
CUT
10
252.8102
20
244.4057
0
VERTEX
8
CUT
10
255.3709
20
248.6906
0
VERTEX
8
CUT
10
256.3972
20
249.7405
0
VERTEX
8
CUT
10
257.3960
20
250.3095
0
VERTEX
8
CUT
10
258.2996
20
250.2715
0
VERTEX
8
CUT
10
259.1617
20
249.6172
0
VERTEX
8
CUT
10
259.9724
20
248.6457
0
VERTEX
8
CUT
10
260.7394
20
247.0793
0
VERTEX
8
CUT
10
260.8101
20
245.3895
0
VERTEX
8
CUT
10
260.2804
20
243.3992
0
VERTEX
8
CUT
10
255.8941
20
234.8079
0
VERTEX
8
CUT
10
254.8574
20
231.8521
0
VERTEX
8
CUT
10
254.7053
20
229.7272
0
VERTEX
8
CUT
10
255.4145
20
228.3700
0
VERTEX
8
CUT
10
256.1439
20
227.4944
0
VERTEX
8
CUT
10
256.9138
20
226.9790
0
VERTEX
8
CUT
10
257.6055
20
226.9758
0
VERTEX
8
CUT
10
258.6616
20
227.4724
0
VERTEX
8
CUT
10
260.3989
20
229.1428
0
VERTEX
8
CUT
10
262.8356
20
232.5757
0
VERTEX
8
CUT
10
263.8277
20
233.5010
0
VERTEX
8
CUT
10
265.2443
20
234.3000
0
VERTEX
8
CUT
10
265.9926
20
234.3416
0
VERTEX
8
CUT
10
266.6837
20
234.1228
0
VERTEX
8
CUT
10
267.7550
20
233.2047
0
VERTEX
8
CUT
10
268.2037
20
232.4449
0
VERTEX
8
CUT
10
268.6000
20
230.8478
0
VERTEX
8
CUT
10
268.5412
20
230.0077
0
VERTEX
8
CUT
10
267.8374
20
227.8097
0
VERTEX
8
CUT
10
266.4720
20
225.0758
0
VERTEX
8
CUT
10
263.5035
20
220.1601
0
VERTEX
8
CUT
10
262.3029
20
217.1557
0
VERTEX
8
CUT
10
261.8089
20
214.5461
0
VERTEX
8
CUT
10
261.8330
20
213.3806
0
VERTEX
8
CUT
10
262.4480
20
211.4188
0
VERTEX
8
CUT
10
263.0839
20
210.6895
0
VERTEX
8
CUT
10
263.8354
20
210.2445
0
VERTEX
8
CUT
10
264.6667
20
210.0784
0
VERTEX
8
CUT
10
265.3398
20
210.2363
0
VERTEX
8
CUT
10
266.9253
20
211.6129
0
VERTEX
8
CUT
10
271.5936
20
216.6111
0
VERTEX
8
CUT
10
272.9297
20
217.5230
0
VERTEX
8
CUT
10
274.4514
20
217.5030
0
VERTEX
8
CUT
10
275.2235
20
217.2094
0
VERTEX
8
CUT
10
276.3363
20
216.1417
0
VERTEX
8
CUT
10
276.7265
20
215.3488
0
VERTEX
8
CUT
10
277.0802
20
213.3563
0
VERTEX
8
CUT
10
277.0196
20
212.1151
0
VERTEX
8
CUT
10
276.4467
20
209.3694
0
VERTEX
8
CUT
10
275.8191
20
207.9212
0
VERTEX
8
CUT
10
274.9953
20
206.4301
0
VERTEX
8
CUT
10
272.6202
20
203.2135
0
VERTEX
8
CUT
10
265.4578
20
195.3046
0
VERTEX
8
CUT
10
265.0859
20
193.6894
0
VERTEX
8
CUT
10
265.1831
20
193.0022
0
VERTEX
8
CUT
10
265.6513
20
192.1081
0
VERTEX
8
CUT
10
266.7192
20
191.5067
0
VERTEX
8
CUT
10
268.2074
20
191.5410
0
VERTEX
8
CUT
10
273.0136
20
192.7179
0
VERTEX
8
CUT
10
274.3539
20
192.6202
0
VERTEX
8
CUT
10
275.4793
20
192.1788
0
VERTEX
8
CUT
10
276.7746
20
191.1319
0
VERTEX
8
CUT
10
277.3633
20
190.1338
0
VERTEX
8
CUT
10
277.7728
20
188.9894
0
VERTEX
8
CUT
10
278.0146
20
186.4240
0
VERTEX
8
CUT
10
277.8542
20
184.9862
0
VERTEX
8
CUT
10
276.9710
20
182.2545
0
VERTEX
8
CUT
10
275.5704
20
180.1796
0
VERTEX
8
CUT
10
273.3882
20
177.7529
0
VERTEX
8
CUT
10
269.5465
20
174.4238
0
VERTEX
8
CUT
10
263.4783
20
170.5274
0
VERTEX
8
CUT
10
259.5789
20
167.7006
0
VERTEX
8
CUT
10
257.5858
20
165.2790
0
VERTEX
8
CUT
10
257.2771
20
164.3867
0
VERTEX
8
CUT
10
257.3417
20
163.8855
0
VERTEX
8
CUT
10
257.7676
20
163.2915
0
VERTEX
8
CUT
10
258.6763
20
162.8941
0
VERTEX
8
CUT
10
260.2463
20
163.1428
0
VERTEX
8
CUT
10
264.4213
20
164.5924
0
VERTEX
8
CUT
10
265.2034
20
164.6590
0
VERTEX
8
CUT
10
266.4168
20
164.4379
0
VERTEX
8
CUT
10
267.4303
20
163.7506
0
VERTEX
8
CUT
10
268.0968
20
162.8925
0
VERTEX
8
CUT
10
268.3299
20
162.0537
0
VERTEX
8
CUT
10
268.1597
20
161.0814
0
VERTEX
8
CUT
10
267.2322
20
159.3885
0
VERTEX
8
CUT
10
266.0946
20
158.2564
0
VERTEX
8
CUT
10
264.2850
20
157.0208
0
VERTEX
8
CUT
10
257.0732
20
152.8135
0
VERTEX
8
CUT
10
254.7319
20
151.0354
0
VERTEX
8
CUT
10
253.0381
20
149.3720
0
VERTEX
8
CUT
10
252.4715
20
148.3039
0
VERTEX
8
CUT
10
252.7757
20
147.5942
0
VERTEX
8
CUT
10
253.8626
20
147.0390
0
VERTEX
8
CUT
10
255.9798
20
146.7325
0
VERTEX
8
CUT
10
256.9702
20
146.2112
0
VERTEX
8
CUT
10
257.7971
20
145.0141
0
VERTEX
8
CUT
10
257.7194
20
143.6901
0
VERTEX
8
CUT
10
256.6859
20
142.0178
0
VERTEX
8
CUT
10
254.8254
20
140.1820
0
VERTEX
8
CUT
10
247.6656
20
135.6369
0
VERTEX
8
CUT
10
246.1485
20
134.1811
0
VERTEX
8
CUT
10
245.3411
20
132.8727
0
VERTEX
8
CUT
10
245.2833
20
132.1094
0
VERTEX
8
CUT
10
245.6460
20
131.5233
0
VERTEX
8
CUT
10
246.5407
20
130.8591
0
VERTEX
8
CUT
10
247.3290
20
130.6828
0
VERTEX
8
CUT
10
253.8915
20
133.0122
0
VERTEX
8
CUT
10
255.5708
20
133.1119
0
VERTEX
8
CUT
10
256.3158
20
132.9172
0
VERTEX
8
CUT
10
257.5289
20
132.1509
0
VERTEX
8
CUT
10
258.3367
20
130.8867
0
VERTEX
8
CUT
10
258.3134
20
129.4423
0
VERTEX
8
CUT
10
257.8301
20
128.2453
0
VERTEX
8
CUT
10
256.7178
20
126.7368
0
VERTEX
8
CUT
10
255.5579
20
125.8597
0
VERTEX
8
CUT
10
248.1775
20
122.2445
0
VERTEX
8
CUT
10
245.1929
20
120.5121
0
VERTEX
8
CUT
10
240.3235
20
116.5352
0
VERTEX
8
CUT
10
239.5278
20
115.6139
0
VERTEX
8
CUT
10
239.1014
20
114.7574
0
VERTEX
8
CUT
10
239.0373
20
113.9785
0
VERTEX
8
CUT
10
239.5853
20
112.9522
0
VERTEX
8
CUT
10
244.4778
20
111.0184
0
VERTEX
8
CUT
10
245.6277
20
109.7843
0
VERTEX
8
CUT
10
245.8329
20
109.0724
0
VERTEX
8
CUT
10
245.7648
20
108.3004
0
VERTEX
8
CUT
10
244.8593
20
106.7278
0
VERTEX
8
CUT
10
243.0849
20
105.4433
0
VERTEX
8
CUT
10
241.3864
20
104.9121
0
VERTEX
8
CUT
10
235.5116
20
104.2759
0
VERTEX
8
CUT
10
233.9749
20
103.8927
0
VERTEX
8
CUT
10
232.6383
20
102.8698
0
VERTEX
8
CUT
10
232.0387
20
101.7599
0
VERTEX
8
CUT
10
232.4539
20
100.8907
0
VERTEX
8
CUT
10
233.5851
20
99.8293
0
VERTEX
8
CUT
10
234.6274
20
99.2850
0
VERTEX
8
CUT
10
239.2990
20
97.8478
0
VERTEX
8
CUT
10
240.2216
20
97.2172
0
VERTEX
8
CUT
10
240.9904
20
96.0821
0
VERTEX
8
CUT
10
240.8169
20
95.2103
0
VERTEX
8
CUT
10
240.1291
20
94.3297
0
VERTEX
8
CUT
10
236.7960
20
92.0444
0
VERTEX
8
CUT
10
235.8072
20
91.0550
0
VERTEX
8
CUT
10
235.2121
20
90.0847
0
VERTEX
8
CUT
10
235.0174
20
89.1094
0
VERTEX
8
CUT
10
235.1845
20
88.1380
0
VERTEX
8
CUT
10
235.8072
20
87.1362
0
VERTEX
8
CUT
10
236.7693
20
86.1864
0
VERTEX
8
CUT
10
239.5465
20
84.4502
0
VERTEX
8
CUT
10
240.5243
20
83.3287
0
VERTEX
8
CUT
10
240.4578
20
82.4599
0
VERTEX
8
CUT
10
239.8023
20
81.5822
0
VERTEX
8
CUT
10
237.0872
20
80.4434
0
VERTEX
8
CUT
10
236.9054
20
79.7326
0
VERTEX
8
CUT
10
237.0551
20
78.6978
0
VERTEX
8
CUT
10
238.1096
20
76.1035
0
VERTEX
8
CUT
10
242.1920
20
72.2704
0
VERTEX
8
CUT
10
243.3965
20
70.4870
0
VERTEX
8
CUT
10
243.6992
20
69.6225
0
VERTEX
8
CUT
10
243.5329
20
68.2219
0
VERTEX
8
CUT
10
242.6543
20
67.3031
0
VERTEX
8
CUT
10
241.9626
20
67.1601
0
VERTEX
8
CUT
10
239.5971
20
67.6303
0
VERTEX
8
CUT
10
239.1265
20
67.4305
0
VERTEX
8
CUT
10
238.9497
20
66.9223
0
VERTEX
8
CUT
10
239.0963
20
65.2902
0
VERTEX
8
CUT
10
241.9513
20
50.9238
0
VERTEX
8
CUT
10
242.4648
20
46.2167
0
VERTEX
8
CUT
10
242.7362
20
41.1555
0
VERTEX
8
CUT
10
242.6765
20
34.0455
0
VERTEX
8
CUT
10
242.4056
20
31.2364
0
VERTEX
8
CUT
10
241.9403
20
28.8245
0
VERTEX
8
CUT
10
241.3060
20
26.8949
0
VERTEX
8
CUT
10
240.4737
20
25.3247
0
VERTEX
8
CUT
10
239.4486
20
24.1448
0
VERTEX
8
CUT
10
238.2341
20
23.2919
0
VERTEX
8
CUT
10
236.5096
20
22.7392
0
VERTEX
8
CUT
10
234.5676
20
22.6523
0
VERTEX
8
CUT
10
232.4570
20
23.0453
0
VERTEX
8
CUT
10
230.1059
20
23.8882
0
VERTEX
8
CUT
10
227.4606
20
25.2097
0
VERTEX
8
CUT
10
224.6552
20
26.9602
0
VERTEX
8
CUT
10
218.2792
20
31.8024
0
VERTEX
8
CUT
10
215.3233
20
34.4258
0
VERTEX
8
CUT
10
209.1141
20
40.7243
0
VERTEX
8
CUT
10
206.0110
20
44.2187
0
VERTEX
8
CUT
10
203.0508
20
47.7829
0
VERTEX
8
CUT
10
197.8485
20
54.6992
0
VERTEX
8
CUT
10
192.6154
20
62.5732
0
VERTEX
8
CUT
10
191.8866
20
65.0021
0
VERTEX
8
CUT
10
191.4587
20
69.0933
0
VERTEX
8
CUT
10
190.7752
20
71.1519
0
VERTEX
8
CUT
10
189.3397
20
72.9199
0
VERTEX
8
CUT
10
187.8750
20
74.0219
0
VERTEX
8
CUT
10
187.1146
20
74.3667
0
VERTEX
8
CUT
10
185.6884
20
74.6417
0
VERTEX
8
CUT
10
184.2261
20
74.3743
0
VERTEX
8
CUT
10
182.6257
20
73.2949
0
VERTEX
8
CUT
10
182.1150
20
72.3841
0
VERTEX
8
CUT
10
181.8323
20
71.1393
0
VERTEX
8
CUT
10
181.9249
20
68.4941
0
VERTEX
8
CUT
10
182.5953
20
65.8383
0
VERTEX
8
CUT
10
183.6185
20
63.6989
0
VERTEX
8
CUT
10
186.3771
20
58.8720
0
VERTEX
8
CUT
10
186.9924
20
57.2804
0
VERTEX
8
CUT
10
187.0876
20
56.0262
0
VERTEX
8
CUT
10
186.9357
20
55.5134
0
VERTEX
8
CUT
10
186.3740
20
54.8342
0
VERTEX
8
CUT
10
185.7246
20
54.5309
0
VERTEX
8
CUT
10
184.9454
20
54.5410
0
VERTEX
8
CUT
10
184.1215
20
54.8640
0
VERTEX
8
CUT
10
182.6656
20
55.8953
0
VERTEX
8
CUT
10
181.1432
20
57.7567
0
VERTEX
8
CUT
10
177.6805
20
63.3132
0
VERTEX
8
CUT
10
176.2432
20
64.7901
0
VERTEX
8
CUT
10
175.5550
20
65.1715
0
VERTEX
8
CUT
10
174.5103
20
65.1764
0
VERTEX
8
CUT
10
173.9175
20
64.7672
0
VERTEX
8
CUT
10
173.4351
20
63.8978
0
VERTEX
8
CUT
10
172.7445
20
61.7753
0
VERTEX
8
CUT
10
171.5562
20
60.5963
0
VERTEX
8
CUT
10
171.0834
20
60.5169
0
VERTEX
8
CUT
10
170.3699
20
60.8242
0
VERTEX
8
CUT
10
169.1487
20
62.1096
0
VERTEX
8
CUT
10
168.3099
20
64.3016
0
VERTEX
8
CUT
10
168.1214
20
66.3568
0
VERTEX
8
CUT
10
168.2465
20
68.6478
0
VERTEX
8
CUT
10
169.2614
20
73.5638
0
VERTEX
8
CUT
10
169.1741
20
75.1340
0
VERTEX
8
CUT
10
168.5624
20
75.8982
0
VERTEX
8
CUT
10
167.7503
20
76.0292
0
VERTEX
8
CUT
10
166.6563
20
75.2291
0
VERTEX
8
CUT
10
164.8257
20
73.4620
0
VERTEX
8
CUT
10
164.1299
20
73.1549
0
VERTEX
8
CUT
10
163.7447
20
73.1787
0
VERTEX
8
CUT
10
163.1119
20
73.5569
0
VERTEX
8
CUT
10
162.7106
20
74.5232
0
VERTEX
8
CUT
10
162.9537
20
75.8373
0
VERTEX
8
CUT
10
163.3143
20
76.6580
0
VERTEX
8
CUT
10
166.5667
20
81.2376
0
VERTEX
8
CUT
10
167.5597
20
83.1658
0
VERTEX
8
CUT
10
168.2702
20
85.1886
0
VERTEX
8
CUT
10
169.2133
20
86.2830
0
VERTEX
8
CUT
10
169.8672
20
86.4622
0
VERTEX
8
CUT
10
170.7940
20
85.9783
0
VERTEX
8
CUT
10
173.8809
20
82.2050
0
VERTEX
8
CUT
10
174.6084
20
81.7130
0
VERTEX
8
CUT
10
175.5186
20
81.4199
0
VERTEX
8
CUT
10
176.4830
20
82.2636
0
VERTEX
8
CUT
10
176.8095
20
83.4182
0
VERTEX
8
CUT
10
176.5807
20
84.5658
0
VERTEX
8
CUT
10
175.2282
20
87.8471
0
VERTEX
8
CUT
10
175.2505
20
88.6283
0
VERTEX
8
CUT
10
175.4780
20
89.0359
0
VERTEX
8
CUT
10
176.1136
20
89.5686
0
VERTEX
8
CUT
10
176.7681
20
89.6691
0
VERTEX
8
CUT
10
180.2971
20
87.5139
0
VERTEX
8
CUT
10
182.2753
20
86.7749
0
VERTEX
8
CUT
10
182.7535
20
86.8802
0
VERTEX
8
CUT
10
183.4803
20
87.4344
0
VERTEX
8
CUT
10
183.9873
20
88.5276
0
VERTEX
8
CUT
10
184.0293
20
89.3099
0
VERTEX
8
CUT
10
183.6113
20
91.1981
0
VERTEX
8
CUT
10
182.5420
20
93.1609
0
VERTEX
8
CUT
10
176.3420
20
100.4474
0
VERTEX
8
CUT
10
174.7752
20
102.6768
0
VERTEX
8
CUT
10
173.5767
20
104.9823
0
VERTEX
8
CUT
10
172.3628
20
108.7587
0
VERTEX
8
CUT
10
172.0610
20
112.5582
0
VERTEX
8
CUT
10
172.4946
20
114.7471
0
VERTEX
8
CUT
10
172.9000
20
115.6508
0
VERTEX
8
CUT
10
173.9645
20
117.1797
0
VERTEX
8
CUT
10
174.1157
20
117.7441
0
VERTEX
8
CUT
10
173.5447
20
119.4481
0
VERTEX
8
CUT
10
172.2262
20
121.8216
0
VERTEX
8
CUT
10
171.2583
20
123.0600
0
VERTEX
8
CUT
10
170.0113
20
124.0650
0
VERTEX
8
CUT
10
169.1949
20
124.1341
0
VERTEX
8
CUT
10
168.3565
20
123.3109
0
VERTEX
8
CUT
10
168.2977
20
122.2358
0
VERTEX
8
CUT
10
168.7783
20
118.8634
0
VERTEX
8
CUT
10
168.7751
20
117.5426
0
VERTEX
8
CUT
10
168.4372
20
116.7148
0
VERTEX
8
CUT
10
166.9619
20
115.3440
0
VERTEX
8
CUT
10
166.7370
20
114.1712
0
VERTEX
8
CUT
10
167.0627
20
111.0197
0
VERTEX
8
CUT
10
169.0215
20
101.9992
0
VERTEX
8
CUT
10
169.2619
20
98.2734
0
VERTEX
8
CUT
10
169.0760
20
96.8841
0
VERTEX
8
CUT
10
168.7012
20
95.7913
0
VERTEX
8
CUT
10
168.1104
20
95.0024
0
VERTEX
8
CUT
10
167.2350
20
94.5874
0
VERTEX
8
CUT
10
166.4592
20
94.5075
0
VERTEX
8
CUT
10
165.1271
20
95.1494
0
VERTEX
8
CUT
10
164.4520
20
95.8911
0
VERTEX
8
CUT
10
163.1559
20
98.1217
0
VERTEX
8
CUT
10
160.5847
20
104.6490
0
VERTEX
8
CUT
10
158.7743
20
108.1513
0
VERTEX
8
CUT
10
157.9466
20
109.0903
0
VERTEX
8
CUT
10
156.6717
20
109.7732
0
VERTEX
8
CUT
10
155.6013
20
109.3915
0
VERTEX
8
CUT
10
154.8662
20
108.6746
0
VERTEX
8
CUT
10
154.3459
20
107.6488
0
VERTEX
8
CUT
10
154.1076
20
106.3608
0
VERTEX
8
CUT
10
154.4671
20
103.1531
0
VERTEX
8
CUT
10
155.8667
20
99.2313
0
VERTEX
8
CUT
10
161.0904
20
88.7551
0
VERTEX
8
CUT
10
161.5033
20
87.0123
0
VERTEX
8
CUT
10
161.4656
20
84.3049
0
VERTEX
8
CUT
10
161.0081
20
82.8718
0
VERTEX
8
CUT
10
160.5735
20
82.2924
0
VERTEX
8
CUT
10
160.0356
20
81.8452
0
VERTEX
8
CUT
10
158.8040
20
81.5359
0
VERTEX
8
CUT
10
157.3432
20
82.5120
0
VERTEX
8
CUT
10
154.3643
20
85.3460
0
VERTEX
8
CUT
10
153.7337
20
85.6684
0
VERTEX
8
CUT
10
153.2042
20
85.5087
0
VERTEX
8
CUT
10
152.5886
20
84.7013
0
VERTEX
8
CUT
10
152.4220
20
83.8121
0
VERTEX
8
CUT
10
153.3227
20
77.0492
0
VERTEX
8
CUT
10
153.3496
20
75.7810
0
VERTEX
8
CUT
10
153.0100
20
73.8264
0
VERTEX
8
CUT
10
152.0954
20
72.3104
0
VERTEX
8
CUT
10
150.6240
20
71.2122
0
VERTEX
8
CUT
10
149.3585
20
71.1060
0
VERTEX
8
CUT
10
148.0673
20
71.8469
0
VERTEX
8
CUT
10
147.1037
20
73.1460
0
VERTEX
8
CUT
10
146.7544
20
74.0522
0
VERTEX
8
CUT
10
146.4684
20
76.2131
0
VERTEX
8
CUT
10
146.6478
20
78.8423
0
VERTEX
8
CUT
10
147.3367
20
82.9673
0
VERTEX
8
CUT
10
147.3086
20
84.2707
0
VERTEX
8
CUT
10
147.0086
20
85.1286
0
VERTEX
8
CUT
10
146.3116
20
85.6346
0
VERTEX
8
CUT
10
145.5962
20
85.5510
0
VERTEX
8
CUT
10
144.4792
20
84.6333
0
VERTEX
8
CUT
10
142.9846
20
82.7803
0
VERTEX
8
CUT
10
141.9686
20
82.0133
0
VERTEX
8
CUT
10
140.9359
20
81.6850
0
VERTEX
8
CUT
10
139.8911
20
81.8953
0
VERTEX
8
CUT
10
138.7984
20
82.8292
0
VERTEX
8
CUT
10
137.9495
20
84.3228
0
VERTEX
8
CUT
10
137.7458
20
85.3181
0
VERTEX
8
CUT
10
138.0291
20
86.9009
0
VERTEX
8
CUT
10
139.2329
20
90.1807
0
VERTEX
8
CUT
10
143.0945
20
97.3951
0
VERTEX
8
CUT
10
144.9959
20
101.9671
0
VERTEX
8
CUT
10
145.5061
20
104.5794
0
VERTEX
8
CUT
10
145.5079
20
106.7335
0
VERTEX
8
CUT
10
145.3023
20
107.6319
0
VERTEX
8
CUT
10
144.6286
20
108.9281
0
VERTEX
8
CUT
10
143.6619
20
109.5870
0
VERTEX
8
CUT
10
142.5082
20
109.5125
0
VERTEX
8
CUT
10
141.4810
20
108.9052
0
VERTEX
8
CUT
10
140.4965
20
107.5265
0
VERTEX
8
CUT
10
139.8961
20
106.2712
0
VERTEX
8
CUT
10
136.6493
20
98.0657
0
VERTEX
8
CUT
10
135.6880
20
96.3876
0
VERTEX
8
CUT
10
134.6019
20
95.2087
0
VERTEX
8
CUT
10
133.4928
20
94.5631
0
VERTEX
8
CUT
10
132.4601
20
94.6341
0
VERTEX
8
CUT
10
131.6208
20
95.2401
0
VERTEX
8
CUT
10
130.9770
20
96.1049
0
VERTEX
8
CUT
10
130.5896
20
97.2327
0
VERTEX
8
CUT
10
130.7377
20
101.9654
0
VERTEX
8
CUT
10
131.1046
20
104.3512
0
VERTEX
8
CUT
10
132.7232
20
110.7935
0
VERTEX
8
CUT
10
133.0513
20
113.5617
0
VERTEX
8
CUT
10
132.7266
20
115.2923
0
VERTEX
8
CUT
10
132.3403
20
115.8330
0
VERTEX
8
CUT
10
131.2381
20
116.5880
0
VERTEX
8
CUT
10
130.8932
20
117.0374
0
VERTEX
8
CUT
10
131.3356
20
122.9289
0
VERTEX
8
CUT
10
131.0038
20
123.9049
0
VERTEX
8
CUT
10
130.3488
20
124.2309
0
VERTEX
8
CUT
10
129.6909
20
123.9618
0
VERTEX
8
CUT
10
128.0931
20
122.3502
0
VERTEX
8
CUT
10
126.4925
20
119.9456
0
VERTEX
8
CUT
10
125.6474
20
118.0213
0
VERTEX
8
CUT
10
125.7195
20
117.4810
0
VERTEX
8
CUT
10
127.2585
20
114.7337
0
VERTEX
8
CUT
10
127.5481
20
113.2093
0
VERTEX
8
CUT
10
127.5434
20
109.6388
0
VERTEX
8
CUT
10
126.7464
20
106.3468
0
VERTEX
8
CUT
10
126.0407
20
104.6672
0
VERTEX
8
CUT
10
123.9083
20
101.2136
0
VERTEX
8
CUT
10
118.3329
20
94.5499
0
VERTEX
8
CUT
10
116.8485
20
92.5330
0
VERTEX
8
CUT
10
116.0188
20
90.9065
0
VERTEX
8
CUT
10
115.6382
20
88.9992
0
VERTEX
8
CUT
10
115.7003
20
88.2487
0
VERTEX
8
CUT
10
116.2196
20
87.5085
0
VERTEX
8
CUT
10
116.9984
20
86.9419
0
VERTEX
8
CUT
10
117.8229
20
86.8000
0
VERTEX
8
CUT
10
119.3333
20
87.3588
0
VERTEX
8
CUT
10
122.4388
20
89.5131
0
VERTEX
8
CUT
10
123.2213
20
89.6827
0
VERTEX
8
CUT
10
123.9824
20
89.4246
0
VERTEX
8
CUT
10
124.4119
20
88.7779
0
VERTEX
8
CUT
10
124.4468
20
87.8447
0
VERTEX
8
CUT
10
123.0964
20
84.3801
0
VERTEX
8
CUT
10
122.8863
20
82.9681
0
VERTEX
8
CUT
10
123.2356
20
82.1992
0
VERTEX
8
CUT
10
124.1345
20
81.4514
0
VERTEX
8
CUT
10
125.2386
20
81.8002
0
VERTEX
8
CUT
10
126.3582
20
82.6564
0
VERTEX
8
CUT
10
128.8922
20
85.9679
0
VERTEX
8
CUT
10
129.9365
20
86.3995
0
VERTEX
8
CUT
10
130.5391
20
86.2269
0
VERTEX
8
CUT
10
131.4424
20
85.1622
0
VERTEX
8
CUT
10
133.0654
20
81.4999
0
VERTEX
8
CUT
10
136.5398
20
76.5604
0
VERTEX
8
CUT
10
136.9272
20
75.3509
0
VERTEX
8
CUT
10
136.8704
20
74.2313
0
VERTEX
8
CUT
10
136.4371
20
73.4657
0
VERTEX
8
CUT
10
135.8948
20
73.1486
0
VERTEX
8
CUT
10
135.4182
20
73.1559
0
VERTEX
8
CUT
10
135.0077
20
73.4216
0
VERTEX
8
CUT
10
131.9353
20
76.0253
0
VERTEX
8
CUT
10
131.1944
20
75.8590
0
VERTEX
8
CUT
10
130.5118
20
75.0147
0
VERTEX
8
CUT
10
130.4091
20
73.6831
0
VERTEX
8
CUT
10
131.3974
20
69.7596
0
VERTEX
8
CUT
10
131.6972
20
66.5908
0
VERTEX
8
CUT
10
131.3214
20
63.8277
0
VERTEX
8
CUT
10
130.9250
20
62.7054
0
VERTEX
8
CUT
10
130.3483
20
61.7911
0
VERTEX
8
CUT
10
128.9445
20
60.5982
0
VERTEX
8
CUT
10
128.0532
20
60.7462
0
VERTEX
8
CUT
10
127.0281
20
61.7740
0
VERTEX
8
CUT
10
125.6791
20
64.9410
0
VERTEX
8
CUT
10
125.3298
20
65.2003
0
VERTEX
8
CUT
10
124.7364
20
65.2891
0
VERTEX
8
CUT
10
123.8413
20
65.0644
0
VERTEX
8
CUT
10
122.2261
20
63.5804
0
VERTEX
8
CUT
10
119.2674
20
58.8237
0
VERTEX
8
CUT
10
117.1539
20
56.0461
0
VERTEX
8
CUT
10
115.2325
20
54.6009
0
VERTEX
8
CUT
10
114.3749
20
54.4368
0
VERTEX
8
CUT
10
113.5677
20
54.6827
0
VERTEX
8
CUT
10
112.7019
20
55.7580
0
VERTEX
8
CUT
10
112.6021
20
56.7408
0
VERTEX
8
CUT
10
112.7363
20
57.3686
0
VERTEX
8
CUT
10
113.2907
20
58.7191
0
VERTEX
8
CUT
10
116.7461
20
64.9720
0
VERTEX
8
CUT
10
117.9492
20
68.5465
0
VERTEX
8
CUT
10
118.0986
20
70.1453
0
VERTEX
8
CUT
10
117.9279
20
71.4054
0
VERTEX
8
CUT
10
117.5033
20
72.5125
0
VERTEX
8
CUT
10
116.7916
20
73.4877
0
VERTEX
8
CUT
10
115.9987
20
74.0898
0
VERTEX
8
CUT
10
115.0909
20
74.4631
0
VERTEX
8
CUT
10
114.1246
20
74.5816
0
VERTEX
8
CUT
10
112.0535
20
74.0729
0
VERTEX
8
CUT
10
110.1053
20
72.6624
0
VERTEX
8
CUT
10
108.8087
20
70.9529
0
VERTEX
8
CUT
10
108.4225
20
69.7685
0
VERTEX
8
CUT
10
108.1752
20
67.0268
0
VERTEX
8
CUT
10
107.5564
20
64.8384
0
VERTEX
8
CUT
10
106.5261
20
62.4185
0
VERTEX
8
CUT
10
103.1278
20
56.5845
0
VERTEX
8
CUT
10
97.7580
20
49.1623
0
VERTEX
8
CUT
10
94.3234
20
44.7640
0
VERTEX
8
CUT
10
91.6435
20
41.7529
0
VERTEX
8
CUT
10
85.7731
20
35.7619
0
VERTEX
8
CUT
10
82.0376
20
32.2371
0
VERTEX
8
CUT
10
79.5236
20
30.1170
0
VERTEX
8
CUT
10
75.8508
20
27.4677
0
VERTEX
8
CUT
10
71.1437
20
24.6305
0
VERTEX
8
CUT
10
68.3256
20
23.4167
0
VERTEX
8
CUT
10
65.8863
20
22.7433
0
VERTEX
8
CUT
10
63.7865
20
22.6766
0
VERTEX
8
CUT
10
62.8034
20
22.8442
0
VERTEX
8
CUT
10
61.2958
20
23.5075
0
VERTEX
8
CUT
10
59.6156
20
24.9885
0
SEQEND
0
POLYLINE
8
CUT
66
1
70
1
10
0.0
20
0.0
30
0.0
0
VERTEX
8
CUT
10
203.0681
20
132.5029
0
VERTEX
8
CUT
10
205.1673
20
133.5400
0
VERTEX
8
CUT
10
207.2062
20
134.1345
0
VERTEX
8
CUT
10
210.8070
20
134.4627
0
VERTEX
8
CUT
10
213.5546
20
136.3650
0
VERTEX
8
CUT
10
220.3279
20
138.5472
0
VERTEX
8
CUT
10
222.8979
20
139.8603
0
VERTEX
8
CUT
10
223.9624
20
140.6840
0
VERTEX
8
CUT
10
225.6402
20
142.6347
0
VERTEX
8
CUT
10
227.5423
20
147.2369
0
VERTEX
8
CUT
10
231.6425
20
151.4040
0
VERTEX
8
CUT
10
231.7694
20
152.1345
0
VERTEX
8
CUT
10
231.5181
20
152.6611
0
VERTEX
8
CUT
10
229.6139
20
154.0799
0
VERTEX
8
CUT
10
229.5091
20
154.7464
0
VERTEX
8
CUT
10
229.8666
20
155.4184
0
VERTEX
8
CUT
10
230.5890
20
156.1133
0
VERTEX
8
CUT
10
231.7735
20
156.8426
0
VERTEX
8
CUT
10
238.4480
20
159.5783
0
VERTEX
8
CUT
10
239.5964
20
160.4389
0
VERTEX
8
CUT
10
239.9956
20
161.0058
0
VERTEX
8
CUT
10
240.2322
20
161.9537
0
VERTEX
8
CUT
10
239.8074
20
162.7434
0
VERTEX
8
CUT
10
237.5880
20
163.7836
0
VERTEX
8
CUT
10
237.0405
20
164.3682
0
VERTEX
8
CUT
10
236.7842
20
165.1358
0
VERTEX
8
CUT
10
237.0883
20
166.1296
0
VERTEX
8
CUT
10
238.3957
20
167.2518
0
VERTEX
8
CUT
10
245.8580
20
171.2842
0
VERTEX
8
CUT
10
249.1435
20
173.5615
0
VERTEX
8
CUT
10
250.3578
20
174.8831
0
VERTEX
8
CUT
10
250.9287
20
176.0399
0
VERTEX
8
CUT
10
251.0975
20
177.1273
0
VERTEX
8
CUT
10
250.7253
20
177.9992
0
VERTEX
8
CUT
10
250.0343
20
178.6241
0
VERTEX
8
CUT
10
248.9715
20
178.9518
0
VERTEX
8
CUT
10
247.5756
20
178.9520
0
VERTEX
8
CUT
10
245.8281
20
178.5418
0
VERTEX
8
CUT
10
243.5408
20
177.7215
0
VERTEX
8
CUT
10
241.2036
20
177.1934
0
VERTEX
8
CUT
10
238.5656
20
175.3639
0
VERTEX
8
CUT
10
237.0115
20
174.5425
0
VERTEX
8
CUT
10
235.2148
20
173.8432
0
VERTEX
8
CUT
10
231.0672
20
172.7008
0
VERTEX
8
CUT
10
229.6760
20
172.0493
0
VERTEX
8
CUT
10
229.3040
20
171.1238
0
VERTEX
8
CUT
10
229.4478
20
170.3445
0
VERTEX
8
CUT
10
230.9012
20
168.1107
0
VERTEX
8
CUT
10
231.3683
20
166.7685
0
VERTEX
8
CUT
10
231.1222
20
164.8247
0
VERTEX
8
CUT
10
230.2916
20
163.2704
0
VERTEX
8
CUT
10
229.6317
20
162.4799
0
VERTEX
8
CUT
10
227.9889
20
161.3090
0
VERTEX
8
CUT
10
225.9039
20
160.5156
0
VERTEX
8
CUT
10
221.1901
20
159.6818
0
VERTEX
8
CUT
10
220.1157
20
159.0420
0
VERTEX
8
CUT
10
218.6415
20
157.7119
0
VERTEX
8
CUT
10
217.6114
20
156.3143
0
VERTEX
8
CUT
10
217.2659
20
155.0156
0
VERTEX
8
CUT
10
217.6929
20
153.5372
0
VERTEX
8
CUT
10
218.7844
20
151.3793
0
VERTEX
8
CUT
10
219.3278
20
149.8095
0
VERTEX
8
CUT
10
219.3944
20
149.0418
0
VERTEX
8
CUT
10
219.0590
20
147.7283
0
VERTEX
8
CUT
10
218.1791
20
146.5752
0
VERTEX
8
CUT
10
217.1949
20
145.7773
0
VERTEX
8
CUT
10
213.3967
20
143.8595
0
VERTEX
8
CUT
10
213.1380
20
143.4076
0
VERTEX
8
CUT
10
212.9213
20
142.0708
0
VERTEX
8
CUT
10
212.5665
20
141.4189
0
VERTEX
8
CUT
10
210.6419
20
139.3973
0
VERTEX
8
CUT
10
208.8948
20
138.2429
0
VERTEX
8
CUT
10
206.3008
20
137.2987
0
VERTEX
8
CUT
10
204.8102
20
136.9928
0
VERTEX
8
CUT
10
203.5941
20
137.0237
0
VERTEX
8
CUT
10
202.5510
20
137.3176
0
VERTEX
8
CUT
10
201.6738
20
137.9404
0
VERTEX
8
CUT
10
200.8202
20
139.2829
0
VERTEX
8
CUT
10
199.5552
20
144.1270
0
VERTEX
8
CUT
10
197.9773
20
147.3298
0
VERTEX
8
CUT
10
195.4246
20
150.3233
0
VERTEX
8
CUT
10
192.5565
20
152.7783
0
VERTEX
8
CUT
10
191.0651
20
153.7208
0
VERTEX
8
CUT
10
188.0053
20
154.9916
0
VERTEX
8
CUT
10
184.5727
20
155.5481
0
VERTEX
8
CUT
10
182.6302
20
155.6093
0
VERTEX
8
CUT
10
179.6798
20
155.4276
0
VERTEX
8
CUT
10
174.6006
20
154.0806
0
VERTEX
8
CUT
10
172.6849
20
153.8090
0
VERTEX
8
CUT
10
171.9946
20
154.0986
0
VERTEX
8
CUT
10
171.4293
20
154.5984
0
VERTEX
8
CUT
10
170.9529
20
155.4129
0
VERTEX
8
CUT
10
170.7458
20
156.5721
0
VERTEX
8
CUT
10
170.3682
20
157.1226
0
VERTEX
8
CUT
10
169.6234
20
157.3153
0
VERTEX
8
CUT
10
168.7420
20
156.9645
0
VERTEX
8
CUT
10
168.1869
20
156.4285
0
VERTEX
8
CUT
10
167.4708
20
155.1586
0
VERTEX
8
CUT
10
166.6364
20
152.7351
0
VERTEX
8
CUT
10
166.4360
20
150.1173
0
VERTEX
8
CUT
10
166.6149
20
146.0686
0
VERTEX
8
CUT
10
166.9728
20
142.9901
0
VERTEX
8
CUT
10
167.5740
20
140.1956
0
VERTEX
8
CUT
10
168.4383
20
137.6653
0
VERTEX
8
CUT
10
170.1187
20
134.2546
0
VERTEX
8
CUT
10
171.4876
20
132.3248
0
VERTEX
8
CUT
10
173.0385
20
130.5998
0
VERTEX
8
CUT
10
174.7635
20
129.1164
0
VERTEX
8
CUT
10
176.6252
20
127.8656
0
VERTEX
8
CUT
10
178.6771
20
126.8506
0
VERTEX
8
CUT
10
180.9231
20
126.0616
0
VERTEX
8
CUT
10
181.9201
20
125.8733
0
VERTEX
8
CUT
10
182.1747
20
125.8060
0
VERTEX
8
CUT
10
182.3693
20
125.7885
0
VERTEX
8
CUT
10
184.0394
20
125.4730
0
VERTEX
8
CUT
10
187.2277
20
125.4723
0
VERTEX
8
CUT
10
189.5037
20
125.7112
0
VERTEX
8
CUT
10
192.3675
20
126.3298
0
VERTEX
8
CUT
10
194.4820
20
127.1748
0
VERTEX
8
CUT
10
197.9586
20
129.1067
0
SEQEND
0
POLYLINE
8
CUT
66
1
70
1
10
0.0
20
0.0
30
0.0
0
VERTEX
8
CUT
10
182.8099
20
102.2421
0
VERTEX
8
CUT
10
183.9341
20
100.7517
0
VERTEX
8
CUT
10
185.1051
20
99.4948
0
VERTEX
8
CUT
10
186.3962
20
98.5075
0
VERTEX
8
CUT
10
188.7331
20
97.4316
0
VERTEX
8
CUT
10
189.7451
20
97.3857
0
VERTEX
8
CUT
10
191.0102
20
98.0181
0
VERTEX
8
CUT
10
191.3163
20
98.6778
0
VERTEX
8
CUT
10
191.2857
20
99.1522
0
VERTEX
8
CUT
10
190.8183
20
100.2962
0
VERTEX
8
CUT
10
188.1897
20
103.9704
0
VERTEX
8
CUT
10
188.0350
20
105.2110
0
VERTEX
8
CUT
10
188.5231
20
105.9307
0
VERTEX
8
CUT
10
189.3884
20
106.2527
0
VERTEX
8
CUT
10
190.5657
20
106.0927
0
VERTEX
8
CUT
10
194.7853
20
104.2070
0
VERTEX
8
CUT
10
196.3256
20
103.8532
0
VERTEX
8
CUT
10
197.3957
20
104.0299
0
VERTEX
8
CUT
10
197.9431
20
104.3484
0
VERTEX
8
CUT
10
198.6813
20
105.1423
0
VERTEX
8
CUT
10
199.0363
20
106.0758
0
VERTEX
8
CUT
10
198.8655
20
106.7606
0
VERTEX
8
CUT
10
198.0966
20
108.0689
0
VERTEX
8
CUT
10
197.3605
20
108.7823
0
VERTEX
8
CUT
10
191.5012
20
110.8726
0
VERTEX
8
CUT
10
190.2272
20
111.5867
0
VERTEX
8
CUT
10
189.3654
20
112.3530
0
VERTEX
8
CUT
10
188.8277
20
113.1551
0
VERTEX
8
CUT
10
188.6037
20
113.8758
0
VERTEX
8
CUT
10
188.7136
20
114.6485
0
VERTEX
8
CUT
10
189.3329
20
115.8849
0
VERTEX
8
CUT
10
189.1420
20
116.3173
0
VERTEX
8
CUT
10
187.7357
20
116.8794
0
VERTEX
8
CUT
10
186.5761
20
117.1134
0
VERTEX
8
CUT
10
184.8271
20
116.1564
0
VERTEX
8
CUT
10
183.5475
20
117.2641
0
VERTEX
8
CUT
10
182.9455
20
116.8605
0
VERTEX
8
CUT
10
182.7393
20
116.1091
0
VERTEX
8
CUT
10
183.3926
20
115.3226
0
VERTEX
8
CUT
10
183.1208
20
113.8138
0
VERTEX
8
CUT
10
184.2671
20
110.3822
0
VERTEX
8
CUT
10
184.3856
20
108.5286
0
VERTEX
8
CUT
10
183.8994
20
107.5465
0
VERTEX
8
CUT
10
183.0629
20
106.7053
0
VERTEX
8
CUT
10
182.4008
20
106.3241
0
VERTEX
8
CUT
10
181.2792
20
106.2247
0
VERTEX
8
CUT
10
181.1546
20
105.9480
0
VERTEX
8
CUT
10
181.5545
20
104.5762
0
SEQEND
0
POLYLINE
8
CUT
66
1
70
1
10
0.0
20
0.0
30
0.0
0
VERTEX
8
CUT
10
154.4965
20
175.7614
0
VERTEX
8
CUT
10
155.6449
20
174.4286
0
VERTEX
8
CUT
10
156.5262
20
174.0420
0
VERTEX
8
CUT
10
157.4498
20
174.0193
0
VERTEX
8
CUT
10
158.4503
20
174.4103
0
VERTEX
8
CUT
10
159.7375
20
175.4422
0
VERTEX
8
CUT
10
159.6913
20
175.9821
0
VERTEX
8
CUT
10
157.0900
20
177.6279
0
VERTEX
8
CUT
10
155.3142
20
179.0273
0
VERTEX
8
CUT
10
154.8613
20
178.9987
0
VERTEX
8
CUT
10
154.4458
20
178.3722
0
VERTEX
8
CUT
10
154.1668
20
176.8342
0
SEQEND
0
POLYLINE
8
CUT
66
1
70
1
10
0.0
20
0.0
30
0.0
0
VERTEX
8
CUT
10
151.4048
20
184.0172
0
VERTEX
8
CUT
10
151.3562
20
184.6603
0
VERTEX
8
CUT
10
150.9375
20
185.7154
0
VERTEX
8
CUT
10
150.0349
20
187.3341
0
VERTEX
8
CUT
10
149.6627
20
187.3390
0
VERTEX
8
CUT
10
149.3682
20
186.9825
0
VERTEX
8
CUT
10
148.2683
20
184.4312
0
VERTEX
8
CUT
10
148.4112
20
184.0000
0
VERTEX
8
CUT
10
149.0828
20
183.7588
0
VERTEX
8
CUT
10
150.6100
20
183.7596
0
SEQEND
0
POLYLINE
8
CUT
66
1
70
1
10
0.0
20
0.0
30
0.0
0
VERTEX
8
CUT
10
142.5555
20
174.0144
0
VERTEX
8
CUT
10
143.7008
20
174.2079
0
VERTEX
8
CUT
10
144.5670
20
174.8524
0
VERTEX
8
CUT
10
145.2476
20
175.9294
0
VERTEX
8
CUT
10
145.5306
20
177.1774
0
VERTEX
8
CUT
10
145.3248
20
178.3387
0
VERTEX
8
CUT
10
144.8094
20
179.0522
0
VERTEX
8
CUT
10
144.4043
20
179.1043
0
VERTEX
8
CUT
10
140.2858
20
176.1098
0
VERTEX
8
CUT
10
140.1247
20
175.7535
0
VERTEX
8
CUT
10
140.3449
20
175.3530
0
VERTEX
8
CUT
10
141.6913
20
174.2642
0
SEQEND
0
POLYLINE
8
CUT
66
1
70
1
10
0.0
20
0.0
30
0.0
0
VERTEX
8
CUT
10
61.0408
20
175.4255
0
VERTEX
8
CUT
10
58.4052
20
177.3004
0
VERTEX
8
CUT
10
56.2301
20
177.7188
0
VERTEX
8
CUT
10
53.0745
20
178.7405
0
VERTEX
8
CUT
10
51.4596
20
178.9762
0
VERTEX
8
CUT
10
49.8011
20
178.5296
0
VERTEX
8
CUT
10
48.6453
20
177.2127
0
VERTEX
8
CUT
10
48.6823
20
176.3367
0
VERTEX
8
CUT
10
49.5415
20
174.6690
0
VERTEX
8
CUT
10
50.1872
20
173.8695
0
VERTEX
8
CUT
10
51.8093
20
172.4511
0
VERTEX
8
CUT
10
55.6899
20
170.2394
0
VERTEX
8
CUT
10
60.3360
20
168.0364
0
VERTEX
8
CUT
10
61.6343
20
167.1711
0
VERTEX
8
CUT
10
62.4549
20
166.3185
0
VERTEX
8
CUT
10
62.8542
20
165.4661
0
VERTEX
8
CUT
10
62.6539
20
164.3596
0
VERTEX
8
CUT
10
62.1048
20
163.7689
0
VERTEX
8
CUT
10
60.5277
20
163.1531
0
VERTEX
8
CUT
10
59.9043
20
162.6149
0
VERTEX
8
CUT
10
59.4714
20
161.8216
0
VERTEX
8
CUT
10
59.7008
20
161.1023
0
VERTEX
8
CUT
10
60.5425
20
160.1781
0
VERTEX
8
CUT
10
61.8657
20
159.2874
0
VERTEX
8
CUT
10
67.7201
20
156.8251
0
VERTEX
8
CUT
10
69.6147
20
155.5499
0
VERTEX
8
CUT
10
70.0893
20
154.9333
0
VERTEX
8
CUT
10
70.1786
20
154.2673
0
VERTEX
8
CUT
10
69.8347
20
153.7539
0
VERTEX
8
CUT
10
68.2517
20
152.8203
0
VERTEX
8
CUT
10
67.8859
20
152.1376
0
VERTEX
8
CUT
10
67.9622
20
151.5377
0
VERTEX
8
CUT
10
71.3022
20
148.3925
0
VERTEX
8
CUT
10
72.3131
20
147.1697
0
VERTEX
8
CUT
10
72.9542
20
145.9493
0
VERTEX
8
CUT
10
73.6273
20
143.5300
0
VERTEX
8
CUT
10
75.1266
20
141.3211
0
VERTEX
8
CUT
10
76.2096
20
140.2712
0
VERTEX
8
CUT
10
78.5430
20
138.8435
0
VERTEX
8
CUT
10
80.4955
20
138.0609
0
VERTEX
8
CUT
10
86.0909
20
136.3759
0
VERTEX
8
CUT
10
87.3283
20
135.7049
0
VERTEX
8
CUT
10
88.7567
20
134.3978
0
VERTEX
8
CUT
10
93.1482
20
134.0146
0
VERTEX
8
CUT
10
94.9826
20
133.4625
0
VERTEX
8
CUT
10
96.9735
20
132.4241
0
VERTEX
8
CUT
10
100.5472
20
129.9982
0
VERTEX
8
CUT
10
100.5700
20
129.9775
0
VERTEX
8
CUT
10
100.8075
20
129.8215
0
VERTEX
8
CUT
10
101.8447
20
129.1174
0
VERTEX
8
CUT
10
102.1435
20
128.9439
0
VERTEX
8
CUT
10
102.6743
20
128.5953
0
VERTEX
8
CUT
10
103.2506
20
128.3012
0
VERTEX
8
CUT
10
104.0834
20
127.8176
0
VERTEX
8
CUT
10
104.6525
20
127.5857
0
VERTEX
8
CUT
10
105.3030
20
127.2537
0
VERTEX
8
CUT
10
106.2755
20
126.9242
0
VERTEX
8
CUT
10
108.3201
20
126.0910
0
VERTEX
8
CUT
10
110.3295
20
125.5959
0
VERTEX
8
CUT
10
112.3503
20
125.3552
0
VERTEX
8
CUT
10
114.5650
20
125.4787
0
VERTEX
8
CUT
10
114.6548
20
125.4745
0
VERTEX
8
CUT
10
114.7525
20
125.4892
0
VERTEX
8
CUT
10
116.5066
20
125.5871
0
VERTEX
8
CUT
10
118.0633
20
125.9872
0
VERTEX
8
CUT
10
118.4299
20
126.0423
0
VERTEX
8
CUT
10
119.6797
20
126.4015
0
VERTEX
8
CUT
10
119.6856
20
126.4041
0
VERTEX
8
CUT
10
120.2932
20
126.5603
0
VERTEX
8
CUT
10
123.5581
20
128.1215
0
VERTEX
8
CUT
10
126.0242
20
129.9945
0
VERTEX
8
CUT
10
126.0432
20
130.0069
0
VERTEX
8
CUT
10
126.0514
20
130.0151
0
VERTEX
8
CUT
10
126.3802
20
130.2649
0
VERTEX
8
CUT
10
126.9427
20
130.9095
0
VERTEX
8
CUT
10
127.7278
20
131.6972
0
VERTEX
8
CUT
10
128.0184
20
132.1422
0
VERTEX
8
CUT
10
128.7896
20
133.0258
0
VERTEX
8
CUT
10
130.6955
20
136.3011
0
VERTEX
8
CUT
10
132.0871
20
140.0276
0
VERTEX
8
CUT
10
132.9359
20
144.3232
0
VERTEX
8
CUT
10
133.2334
20
148.9832
0
VERTEX
8
CUT
10
132.8509
20
153.4662
0
VERTEX
8
CUT
10
132.1265
20
155.6013
0
VERTEX
8
CUT
10
131.6229
20
156.4136
0
VERTEX
8
CUT
10
130.4439
20
157.4515
0
VERTEX
8
CUT
10
129.9589
20
157.5146
0
VERTEX
8
CUT
10
129.4275
20
157.1283
0
VERTEX
8
CUT
10
128.6846
20
154.9505
0
VERTEX
8
CUT
10
128.0123
20
154.2141
0
VERTEX
8
CUT
10
127.1780
20
153.7759
0
VERTEX
8
CUT
10
125.9278
20
153.8432
0
VERTEX
8
CUT
10
119.7138
20
155.4284
0
VERTEX
8
CUT
10
115.9696
20
155.6399
0
VERTEX
8
CUT
10
112.4381
20
155.0805
0
VERTEX
8
CUT
10
108.8569
20
153.6959
0
VERTEX
8
CUT
10
105.5054
20
151.5500
0
VERTEX
8
CUT
10
104.0495
20
150.2172
0
VERTEX
8
CUT
10
101.6656
20
147.0678
0
VERTEX
8
CUT
10
100.0277
20
143.4464
0
VERTEX
8
CUT
10
99.1129
20
139.5933
0
VERTEX
8
CUT
10
98.4096
20
138.0539
0
VERTEX
8
CUT
10
97.1465
20
137.2664
0
VERTEX
8
CUT
10
95.7033
20
136.9636
0
VERTEX
8
CUT
10
94.0387
20
137.0870
0
VERTEX
8
CUT
10
92.2652
20
137.5874
0
VERTEX
8
CUT
10
90.5743
20
138.3734
0
VERTEX
8
CUT
10
89.0433
20
139.3841
0
VERTEX
8
CUT
10
87.7800
20
140.5565
0
VERTEX
8
CUT
10
86.9433
20
141.8253
0
VERTEX
8
CUT
10
86.4160
20
143.9229
0
VERTEX
8
CUT
10
82.7957
20
145.5730
0
VERTEX
8
CUT
10
81.5227
20
146.5426
0
VERTEX
8
CUT
10
80.6101
20
147.7283
0
VERTEX
8
CUT
10
80.2748
20
149.0418
0
VERTEX
8
CUT
10
80.3414
20
149.8095
0
VERTEX
8
CUT
10
80.8848
20
151.3793
0
VERTEX
8
CUT
10
82.1134
20
153.8650
0
VERTEX
8
CUT
10
82.4008
20
154.9333
0
VERTEX
8
CUT
10
82.0143
20
156.4018
0
VERTEX
8
CUT
10
80.9410
20
157.9786
0
VERTEX
8
CUT
10
79.5335
20
159.1257
0
VERTEX
8
CUT
10
78.4154
20
159.6744
0
VERTEX
8
CUT
10
73.9763
20
160.4553
0
VERTEX
8
CUT
10
72.0467
20
161.1565
0
VERTEX
8
CUT
10
70.5013
20
162.1698
0
VERTEX
8
CUT
10
69.2865
20
163.5292
0
VERTEX
8
CUT
10
68.4634
20
165.1343
0
VERTEX
8
CUT
10
68.2780
20
166.6413
0
VERTEX
8
CUT
10
68.7471
20
168.0685
0
VERTEX
8
CUT
10
70.6552
20
170.8864
0
VERTEX
8
CUT
10
70.4443
20
171.5432
0
VERTEX
8
CUT
10
69.7250
20
172.1660
0
VERTEX
8
CUT
10
62.6339
20
174.5399
0
SEQEND
0
POLYLINE
8
CUT
66
1
70
1
10
0.0
20
0.0
30
0.0
0
VERTEX
8
CUT
10
110.9029
20
113.1649
0
VERTEX
8
CUT
10
109.8428
20
111.8626
0
VERTEX
8
CUT
10
108.9758
20
111.1462
0
VERTEX
8
CUT
10
107.7941
20
110.5494
0
VERTEX
8
CUT
10
102.0636
20
108.8205
0
VERTEX
8
CUT
10
101.2992
20
107.7534
0
VERTEX
8
CUT
10
100.7245
20
105.9785
0
VERTEX
8
CUT
10
100.9546
20
105.1083
0
VERTEX
8
CUT
10
101.5746
20
104.4924
0
VERTEX
8
CUT
10
102.5120
20
104.0081
0
VERTEX
8
CUT
10
103.1188
20
103.9115
0
VERTEX
8
CUT
10
105.1674
20
104.3394
0
VERTEX
8
CUT
10
109.6121
20
106.3324
0
VERTEX
8
CUT
10
110.2497
20
106.4640
0
VERTEX
8
CUT
10
111.1245
20
106.2547
0
VERTEX
8
CUT
10
111.7197
20
105.5342
0
VERTEX
8
CUT
10
111.8588
20
104.4213
0
VERTEX
8
CUT
10
111.0918
20
103.1016
0
VERTEX
8
CUT
10
108.9409
20
100.4738
0
VERTEX
8
CUT
10
108.4442
20
99.3925
0
VERTEX
8
CUT
10
108.4849
20
98.6614
0
VERTEX
8
CUT
10
109.0106
20
97.9043
0
VERTEX
8
CUT
10
109.6425
20
97.4617
0
VERTEX
8
CUT
10
110.4902
20
97.3246
0
VERTEX
8
CUT
10
111.4873
20
97.5442
0
VERTEX
8
CUT
10
112.7855
20
98.1482
0
VERTEX
8
CUT
10
115.5616
20
100.4597
0
VERTEX
8
CUT
10
117.6295
20
103.3348
0
VERTEX
8
CUT
10
118.7432
20
105.8423
0
VERTEX
8
CUT
10
118.5004
20
106.2278
0
VERTEX
8
CUT
10
117.2939
20
106.3856
0
VERTEX
8
CUT
10
116.5407
20
106.7464
0
VERTEX
8
CUT
10
115.4343
20
108.2229
0
VERTEX
8
CUT
10
115.3128
20
109.4842
0
VERTEX
8
CUT
10
116.2689
20
113.2141
0
VERTEX
8
CUT
10
116.2160
20
113.7848
0
VERTEX
8
CUT
10
113.9603
20
115.1569
0
VERTEX
8
CUT
10
113.4073
20
116.4607
0
VERTEX
8
CUT
10
112.9653
20
116.8983
0
VERTEX
8
CUT
10
111.9012
20
116.9131
0
VERTEX
8
CUT
10
110.7979
20
116.3098
0
VERTEX
8
CUT
10
110.6337
20
115.9011
0
VERTEX
8
CUT
10
111.2396
20
114.7309
0
VERTEX
8
CUT
10
111.2421
20
113.9720
0
SEQEND
0
ENDSEC
0
EOF
