0
SECTION
2
HEADER
9
$ACADVER
1
AC1009
9
$INSUNITS
70
4
0
ENDSEC
0
SECTION
2
TABLES
0
TABLE
2
LAYER
70
1
0
LAYER
2
CUT
70
0
62
7
6
CONTINUOUS
0
ENDTAB
0
ENDSEC
0
SECTION
2
ENTITIES
0
POLYLINE
8
CUT
66
1
70
1
10
0.0
20
0.0
30
0.0
0
VERTEX
8
CUT
10
0.3009
20
3.7054
0
VERTEX
8
CUT
10
0.3910
20
267.9403
0
VERTEX
8
CUT
10
0.6020
20
294.1506
0
VERTEX
8
CUT
10
0.7581
20
297.1023
0
VERTEX
8
CUT
10
1.4525
20
298.1417
0
VERTEX
8
CUT
10
2.8546
20
299.2571
0
VERTEX
8
CUT
10
4.4867
20
299.8477
0
VERTEX
8
CUT
10
30.1038
20
299.9398
0
VERTEX
8
CUT
10
278.2427
20
299.8558
0
VERTEX
8
CUT
10
293.8942
20
299.7594
0
VERTEX
8
CUT
10
296.3375
20
299.6053
0
VERTEX
8
CUT
10
297.0420
20
299.3628
0
VERTEX
8
CUT
10
298.1639
20
298.4947
0
VERTEX
8
CUT
10
299.2085
20
297.1445
0
VERTEX
8
CUT
10
299.2548
20
297.0598
0
VERTEX
8
CUT
10
299.2968
20
296.9829
0
VERTEX
8
CUT
10
299.4567
20
296.6902
0
VERTEX
8
CUT
10
299.5188
20
296.5767
0
VERTEX
8
CUT
10
299.5188
20
3.4182
0
VERTEX
8
CUT
10
299.5185
20
3.4176
0
VERTEX
8
CUT
10
299.5092
20
3.3998
0
VERTEX
8
CUT
10
299.5084
20
3.3983
0
VERTEX
8
CUT
10
299.2804
20
2.9634
0
VERTEX
8
CUT
10
298.4896
20
1.8917
0
VERTEX
8
CUT
10
297.4356
20
1.0553
0
VERTEX
8
CUT
10
296.6613
20
0.6614
0
VERTEX
8
CUT
10
295.7305
20
0.4808
0
VERTEX
8
CUT
10
285.1431
20
0.0902
0
VERTEX
8
CUT
10
263.6871
20
0.0355
0
VERTEX
8
CUT
10
119.0076
20
0.0602
0
VERTEX
8
CUT
10
6.5554
20
0.3007
0
VERTEX
8
CUT
10
3.3289
20
0.4758
0
VERTEX
8
CUT
10
1.6988
20
1.6432
0
VERTEX
8
CUT
10
1.0791
20
2.3588
0
SEQEND
0
POLYLINE
8
CUT
66
1
70
1
10
0.0
20
0.0
30
0.0
0
VERTEX
8
CUT
10
290.7699
20
201.0646
0
VERTEX
8
CUT
10
290.7716
20
201.9642
0
VERTEX
8
CUT
10
290.3891
20
202.7288
0
VERTEX
8
CUT
10
290.1922
20
202.8719
0
VERTEX
8
CUT
10
290.1582
20
202.9253
0
VERTEX
8
CUT
10
289.5567
20
203.3897
0
VERTEX
8
CUT
10
289.4570
20
203.4068
0
VERTEX
8
CUT
10
289.3803
20
203.4625
0
VERTEX
8
CUT
10
287.3902
20
203.8327
0
VERTEX
8
CUT
10
286.5261
20
204.4003
0
VERTEX
8
CUT
10
285.9155
20
205.2969
0
VERTEX
8
CUT
10
285.7161
20
206.4005
0
VERTEX
8
CUT
10
285.8462
20
207.5241
0
VERTEX
8
CUT
10
286.2528
20
208.7029
0
VERTEX
8
CUT
10
289.1505
20
213.4162
0
VERTEX
8
CUT
10
290.3478
20
216.1022
0
VERTEX
8
CUT
10
290.8536
20
218.5967
0
VERTEX
8
CUT
10
290.8277
20
219.7668
0
VERTEX
8
CUT
10
290.2566
20
221.7789
0
VERTEX
8
CUT
10
289.4264
20
222.9698
0
VERTEX
8
CUT
10
288.7055
20
223.5307
0
VERTEX
8
CUT
10
287.2132
20
224.0857
0
VERTEX
8
CUT
10
285.7776
20
224.8138
0
VERTEX
8
CUT
10
285.1819
20
225.5048
0
VERTEX
8
CUT
10
284.9356
20
225.9554
0
VERTEX
8
CUT
10
284.8434
20
227.3737
0
VERTEX
8
CUT
10
285.1942
20
228.2859
0
VERTEX
8
CUT
10
285.4293
20
228.5402
0
VERTEX
8
CUT
10
285.4979
20
228.6144
0
VERTEX
8
CUT
10
285.5569
20
228.6783
0
VERTEX
8
CUT
10
285.9500
20
229.1034
0
VERTEX
8
CUT
10
285.9511
20
229.1045
0
VERTEX
8
CUT
10
286.0476
20
229.1660
0
VERTEX
8
CUT
10
286.0552
20
229.1708
0
VERTEX
8
CUT
10
286.0682
20
229.1791
0
VERTEX
8
CUT
10
286.0830
20
229.1885
0
VERTEX
8
CUT
10
288.8092
20
230.8696
0
VERTEX
8
CUT
10
290.1499
20
232.1007
0
VERTEX
8
CUT
10
290.9242
20
233.5354
0
VERTEX
8
CUT
10
291.0331
20
235.1657
0
VERTEX
8
CUT
10
290.5384
20
236.7626
0
VERTEX
8
CUT
10
290.0936
20
237.4178
0
VERTEX
8
CUT
10
289.5219
20
237.9434
0
VERTEX
8
CUT
10
288.7991
20
238.2768
0
VERTEX
8
CUT
10
288.5959
20
238.2998
0
VERTEX
8
CUT
10
288.4056
20
238.4144
0
VERTEX
8
CUT
10
287.5629
20
238.4166
0
VERTEX
8
CUT
10
287.1726
20
238.4607
0
VERTEX
8
CUT
10
287.0306
20
238.4180
0
VERTEX
8
CUT
10
286.9373
20
238.4182
0
VERTEX
8
CUT
10
286.2789
20
238.1917
0
VERTEX
8
CUT
10
284.3042
20
237.5974
0
VERTEX
8
CUT
10
282.7653
20
237.3562
0
VERTEX
8
CUT
10
281.3571
20
237.6748
0
VERTEX
8
CUT
10
280.3114
20
238.5509
0
VERTEX
8
CUT
10
279.8871
20
239.2209
0
VERTEX
8
CUT
10
279.4305
20
240.8457
0
VERTEX
8
CUT
10
280.1343
20
242.9300
0
VERTEX
8
CUT
10
281.0281
20
244.3561
0
VERTEX
8
CUT
10
285.9733
20
249.6371
0
VERTEX
8
CUT
10
287.4731
20
251.6905
0
VERTEX
8
CUT
10
288.5443
20
254.6852
0
VERTEX
8
CUT
10
288.5720
20
255.7504
0
VERTEX
8
CUT
10
288.6018
20
256.0121
0
VERTEX
8
CUT
10
288.5838
20
256.2050
0
VERTEX
8
CUT
10
288.6027
20
256.9321
0
VERTEX
8
CUT
10
287.9696
20
258.7887
0
VERTEX
8
CUT
10
287.3953
20
259.5209
0
VERTEX
8
CUT
10
285.9718
20
260.5370
0
VERTEX
8
CUT
10
284.8542
20
260.7532
0
VERTEX
8
CUT
10
279.5564
20
260.6026
0
VERTEX
8
CUT
10
277.8056
20
261.0506
0
VERTEX
8
CUT
10
277.5283
20
261.2439
0
VERTEX
8
CUT
10
276.8162
20
262.0833
0
VERTEX
8
CUT
10
276.6572
20
262.3660
0
VERTEX
8
CUT
10
276.3933
20
264.0228
0
VERTEX
8
CUT
10
276.5539
20
265.2115
0
VERTEX
8
CUT
10
277.0261
20
266.4284
0
VERTEX
8
CUT
10
278.2098
20
268.1281
0
VERTEX
8
CUT
10
279.3641
20
269.2216
0
VERTEX
8
CUT
10
281.6899
20
270.7249
0
VERTEX
8
CUT
10
283.2444
20
271.3465
0
VERTEX
8
CUT
10
286.5175
20
272.5608
0
VERTEX
8
CUT
10
287.8731
20
273.2712
0
VERTEX
8
CUT
10
288.6992
20
273.9582
0
VERTEX
8
CUT
10
289.2284
20
274.7748
0
VERTEX
8
CUT
10
289.4395
20
275.5604
0
VERTEX
8
CUT
10
289.2728
20
277.0765
0
VERTEX
8
CUT
10
288.9328
20
277.8251
0
VERTEX
8
CUT
10
288.5000
20
278.2879
0
VERTEX
8
CUT
10
288.4886
20
278.3049
0
VERTEX
8
CUT
10
288.4707
20
278.3192
0
VERTEX
8
CUT
10
287.8761
20
278.9550
0
VERTEX
8
CUT
10
287.1666
20
279.3521
0
VERTEX
8
CUT
10
285.9477
20
279.6379
0
VERTEX
8
CUT
10
283.8502
20
279.1009
0
VERTEX
8
CUT
10
280.7605
20
276.7969
0
VERTEX
8
CUT
10
279.2178
20
276.0105
0
VERTEX
8
CUT
10
277.8207
20
275.9247
0
VERTEX
8
CUT
10
277.2218
20
276.1382
0
VERTEX
8
CUT
10
276.3840
20
276.9451
0
VERTEX
8
CUT
10
276.1035
20
278.1349
0
VERTEX
8
CUT
10
276.1210
20
278.2370
0
VERTEX
8
CUT
10
276.1277
20
278.2762
0
VERTEX
8
CUT
10
276.1298
20
278.2889
0
VERTEX
8
CUT
10
276.1345
20
278.3166
0
VERTEX
8
CUT
10
276.5240
20
279.5886
0
VERTEX
8
CUT
10
280.0400
20
284.3963
0
VERTEX
8
CUT
10
280.9283
20
286.3409
0
VERTEX
8
CUT
10
281.1125
20
287.2985
0
VERTEX
8
CUT
10
281.0470
20
288.0994
0
VERTEX
8
CUT
10
281.0526
20
288.1930
0
VERTEX
8
CUT
10
281.0339
20
288.2592
0
VERTEX
8
CUT
10
280.9806
20
288.9105
0
VERTEX
8
CUT
10
280.6405
20
289.6738
0
VERTEX
8
CUT
10
280.6316
20
289.6843
0
VERTEX
8
CUT
10
280.6260
20
289.7041
0
VERTEX
8
CUT
10
279.8486
20
290.6178
0
VERTEX
8
CUT
10
279.8314
20
290.6268
0
VERTEX
8
CUT
10
279.6355
20
290.8576
0
VERTEX
8
CUT
10
278.4229
20
291.5815
0
VERTEX
8
CUT
10
276.9934
20
291.7756
0
VERTEX
8
CUT
10
275.5406
20
291.4906
0
VERTEX
8
CUT
10
273.9451
20
290.7357
0
VERTEX
8
CUT
10
273.4796
20
290.3869
0
VERTEX
8
CUT
10
273.0720
20
290.1567
0
VERTEX
8
CUT
10
272.6504
20
289.7656
0
VERTEX
8
CUT
10
272.2903
20
289.4957
0
VERTEX
8
CUT
10
271.5722
20
288.7653
0
VERTEX
8
CUT
10
271.3554
20
288.5641
0
VERTEX
8
CUT
10
271.2855
20
288.4737
0
VERTEX
8
CUT
10
270.6726
20
287.8502
0
VERTEX
8
CUT
10
267.9363
20
284.2172
0
VERTEX
8
CUT
10
266.7434
20
282.9606
0
VERTEX
8
CUT
10
264.4786
20
281.3443
0
VERTEX
8
CUT
10
263.3573
20
280.9699
0
VERTEX
8
CUT
10
262.2787
20
280.9046
0
VERTEX
8
CUT
10
261.1889
20
281.1887
0
VERTEX
8
CUT
10
260.2583
20
281.7726
0
VERTEX
8
CUT
10
259.3819
20
282.7586
0
VERTEX
8
CUT
10
259.3092
20
284.1237
0
VERTEX
8
CUT
10
260.1192
20
288.2812
0
VERTEX
8
CUT
10
259.7871
20
289.3051
0
VERTEX
8
CUT
10
259.6212
20
289.5249
0
VERTEX
8
CUT
10
259.4913
20
289.8975
0
VERTEX
8
CUT
10
259.1300
20
290.1756
0
VERTEX
8
CUT
10
258.8412
20
290.5583
0
VERTEX
8
CUT
10
257.3411
20
291.3220
0
VERTEX
8
CUT
10
255.6594
20
291.4843
0
VERTEX
8
CUT
10
255.1446
20
291.3990
0
VERTEX
8
CUT
10
255.1229
20
291.3994
0
VERTEX
8
CUT
10
255.0800
20
291.3883
0
VERTEX
8
CUT
10
253.6411
20
291.1500
0
VERTEX
8
CUT
10
251.5219
20
290.3069
0
VERTEX
8
CUT
10
249.2945
20
289.0001
0
VERTEX
8
CUT
10
247.1040
20
287.1963
0
VERTEX
8
CUT
10
245.0830
20
284.9948
0
VERTEX
8
CUT
10
243.3408
20
282.5430
0
VERTEX
8
CUT
10
242.9416
20
281.7991
0
VERTEX
8
CUT
10
242.8810
20
281.7068
0
VERTEX
8
CUT
10
242.8458
20
281.6208
0
VERTEX
8
CUT
10
242.2228
20
280.4598
0
VERTEX
8
CUT
10
241.8063
20
278.6669
0
VERTEX
8
CUT
10
242.0046
20
277.2762
0
VERTEX
8
CUT
10
242.1959
20
276.9268
0
VERTEX
8
CUT
10
242.2060
20
276.8891
0
VERTEX
8
CUT
10
242.2781
20
276.7767
0
VERTEX
8
CUT
10
242.5644
20
276.2536
0
VERTEX
8
CUT
10
242.6800
20
276.1499
0
VERTEX
8
CUT
10
242.7167
20
276.0927
0
VERTEX
8
CUT
10
242.8502
20
275.9972
0
VERTEX
8
CUT
10
243.2642
20
275.6259
0
VERTEX
8
CUT
10
243.4984
20
275.5337
0
VERTEX
8
CUT
10
243.5150
20
275.5218
0
VERTEX
8
CUT
10
243.6602
20
275.4700
0
VERTEX
8
CUT
10
244.2515
20
275.2373
0
VERTEX
8
CUT
10
244.3869
20
275.2107
0
VERTEX
8
CUT
10
244.5445
20
275.1545
0
VERTEX
8
CUT
10
244.9281
20
275.1043
0
VERTEX
8
CUT
10
247.9031
20
274.5196
0
VERTEX
8
CUT
10
249.4506
20
273.5527
0
VERTEX
8
CUT
10
250.3642
20
271.9474
0
VERTEX
8
CUT
10
251.0369
20
268.0273
0
VERTEX
8
CUT
10
251.6000
20
266.4736
0
VERTEX
8
CUT
10
252.6733
20
265.2493
0
VERTEX
8
CUT
10
253.3553
20
264.9161
0
VERTEX
8
CUT
10
253.5033
20
264.8239
0
VERTEX
8
CUT
10
253.5967
20
264.7982
0
VERTEX
8
CUT
10
254.1321
20
264.5366
0
VERTEX
8
CUT
10
254.4407
20
264.5751
0
VERTEX
8
CUT
10
255.4484
20
264.6056
0
VERTEX
8
CUT
10
255.8317
20
264.7486
0
VERTEX
8
CUT
10
256.5016
20
264.8321
0
VERTEX
8
CUT
10
258.2985
20
265.8395
0
VERTEX
8
CUT
10
259.9995
20
267.5465
0
VERTEX
8
CUT
10
260.6159
20
268.4306
0
VERTEX
8
CUT
10
260.7995
20
268.6460
0
VERTEX
8
CUT
10
261.0221
20
269.0133
0
VERTEX
8
CUT
10
263.3744
20
272.3876
0
VERTEX
8
CUT
10
265.0025
20
273.8787
0
VERTEX
8
CUT
10
265.6341
20
274.1717
0
VERTEX
8
CUT
10
265.8633
20
274.2486
0
VERTEX
8
CUT
10
265.8793
20
274.2539
0
VERTEX
8
CUT
10
265.8876
20
274.2567
0
VERTEX
8
CUT
10
265.8893
20
274.2573
0
VERTEX
8
CUT
10
267.4065
20
274.3118
0
VERTEX
8
CUT
10
268.6413
20
273.7298
0
VERTEX
8
CUT
10
269.5028
20
272.8908
0
VERTEX
8
CUT
10
269.8937
20
271.1960
0
VERTEX
8
CUT
10
269.5260
20
269.4467
0
VERTEX
8
CUT
10
268.7908
20
268.1336
0
VERTEX
8
CUT
10
265.0789
20
263.7040
0
VERTEX
8
CUT
10
264.1609
20
262.3170
0
VERTEX
8
CUT
10
263.3681
20
260.0288
0
VERTEX
8
CUT
10
263.4323
20
258.2417
0
VERTEX
8
CUT
10
263.6747
20
257.4263
0
VERTEX
8
CUT
10
264.5731
20
256.0928
0
VERTEX
8
CUT
10
265.2679
20
255.6673
0
VERTEX
8
CUT
10
265.3232
20
255.6257
0
VERTEX
8
CUT
10
265.3596
20
255.6112
0
VERTEX
8
CUT
10
266.2539
20
255.0636
0
VERTEX
8
CUT
10
267.9828
20
255.0710
0
VERTEX
8
CUT
10
271.1459
20
256.3267
0
VERTEX
8
CUT
10
272.3838
20
256.5701
0
VERTEX
8
CUT
10
272.9187
20
256.6437
0
VERTEX
8
CUT
10
274.1361
20
256.3659
0
VERTEX
8
CUT
10
274.1416
20
256.3628
0
VERTEX
8
CUT
10
274.1473
20
256.3596
0
VERTEX
8
CUT
10
274.1695
20
256.3470
0
VERTEX
8
CUT
10
274.3133
20
256.2658
0
VERTEX
8
CUT
10
274.7151
20
255.9706
0
VERTEX
8
CUT
10
274.7243
20
255.9604
0
VERTEX
8
CUT
10
274.7359
20
255.9475
0
VERTEX
8
CUT
10
274.7399
20
255.9431
0
VERTEX
8
CUT
10
274.7911
20
255.8864
0
VERTEX
8
CUT
10
275.4702
20
254.6134
0
VERTEX
8
CUT
10
275.5450
20
253.2585
0
VERTEX
8
CUT
10
275.0278
20
252.0053
0
VERTEX
8
CUT
10
274.0631
20
250.9399
0
VERTEX
8
CUT
10
273.2545
20
250.2199
0
VERTEX
8
CUT
10
270.9022
20
248.3770
0
VERTEX
8
CUT
10
269.8473
20
247.1097
0
VERTEX
8
CUT
10
269.0585
20
245.1995
0
VERTEX
8
CUT
10
269.0654
20
243.5955
0
VERTEX
8
CUT
10
269.5089
20
242.7852
0
VERTEX
8
CUT
10
270.1986
20
242.1395
0
VERTEX
8
CUT
10
270.3491
20
241.9838
0
VERTEX
8
CUT
10
270.3858
20
241.9642
0
VERTEX
8
CUT
10
270.8733
20
241.5078
0
VERTEX
8
CUT
10
272.9202
20
240.6106
0
VERTEX
8
CUT
10
273.6869
20
240.2011
0
VERTEX
8
CUT
10
274.8575
20
239.3653
0
VERTEX
8
CUT
10
275.1727
20
239.0228
0
VERTEX
8
CUT
10
276.0436
20
237.1651
0
VERTEX
8
CUT
10
276.2662
20
235.8335
0
VERTEX
8
CUT
10
276.2415
20
230.6617
0
VERTEX
8
CUT
10
276.3524
20
229.1903
0
VERTEX
8
CUT
10
276.6128
20
228.4219
0
VERTEX
8
CUT
10
277.2812
20
227.4862
0
VERTEX
8
CUT
10
277.3542
20
227.3568
0
VERTEX
8
CUT
10
277.4782
20
227.2104
0
VERTEX
8
CUT
10
278.0003
20
226.4795
0
VERTEX
8
CUT
10
280.3865
20
224.6030
0
VERTEX
8
CUT
10
282.4101
20
222.5493
0
VERTEX
8
CUT
10
283.5917
20
220.1441
0
VERTEX
8
CUT
10
284.0903
20
217.0219
0
VERTEX
8
CUT
10
284.0621
20
212.6264
0
VERTEX
8
CUT
10
284.0551
20
212.5174
0
VERTEX
8
CUT
10
284.0535
20
212.4925
0
VERTEX
8
CUT
10
284.0491
20
212.4236
0
VERTEX
8
CUT
10
284.0326
20
212.1661
0
VERTEX
8
CUT
10
282.7937
20
204.7721
0
VERTEX
8
CUT
10
282.5575
20
202.3229
0
VERTEX
8
CUT
10
282.5672
20
202.0208
0
VERTEX
8
CUT
10
282.5588
20
201.9466
0
VERTEX
8
CUT
10
282.5906
20
201.2940
0
VERTEX
8
CUT
10
282.6205
20
200.3631
0
VERTEX
8
CUT
10
282.9817
20
199.0920
0
VERTEX
8
CUT
10
283.8150
20
197.9908
0
VERTEX
8
CUT
10
284.3360
20
197.5967
0
VERTEX
8
CUT
10
285.6475
20
197.1746
0
VERTEX
8
CUT
10
286.9733
20
197.3079
0
VERTEX
8
CUT
10
288.3811
20
197.9718
0
VERTEX
8
CUT
10
289.5218
20
198.9017
0
VERTEX
8
CUT
10
290.3282
20
199.9299
0
SEQEND
0
POLYLINE
8
CUT
66
1
70
1
10
0.0
20
0.0
30
0.0
0
VERTEX
8
CUT
10
290.3829
20
190.0651
0
VERTEX
8
CUT
10
289.5353
20
190.6266
0
VERTEX
8
CUT
10
289.2361
20
190.6230
0
VERTEX
8
CUT
10
289.0419
20
190.6985
0
VERTEX
8
CUT
10
288.8141
20
190.6179
0
VERTEX
8
CUT
10
288.4708
20
190.6138
0
VERTEX
8
CUT
10
287.1885
20
190.0510
0
VERTEX
8
CUT
10
285.8197
20
188.8562
0
VERTEX
8
CUT
10
284.7559
20
187.1236
0
VERTEX
8
CUT
10
284.7403
20
186.1608
0
VERTEX
8
CUT
10
284.9381
20
185.6708
0
VERTEX
8
CUT
10
285.8836
20
184.7356
0
VERTEX
8
CUT
10
286.9661
20
184.5665
0
VERTEX
8
CUT
10
287.9402
20
184.8818
0
VERTEX
8
CUT
10
289.7323
20
186.0012
0
VERTEX
8
CUT
10
291.0053
20
188.2762
0
VERTEX
8
CUT
10
290.7488
20
189.5169
0
SEQEND
0
POLYLINE
8
CUT
66
1
70
1
10
0.0
20
0.0
30
0.0
0
VERTEX
8
CUT
10
18.6358
20
174.8220
0
VERTEX
8
CUT
10
15.9340
20
176.2079
0
VERTEX
8
CUT
10
14.6357
20
176.5122
0
VERTEX
8
CUT
10
12.6340
20
176.2722
0
VERTEX
8
CUT
10
11.9336
20
175.7237
0
VERTEX
8
CUT
10
11.8725
20
175.6925
0
VERTEX
8
CUT
10
11.7766
20
175.6007
0
VERTEX
8
CUT
10
11.0810
20
175.0558
0
VERTEX
8
CUT
10
10.1862
20
173.5609
0
VERTEX
8
CUT
10
9.8353
20
172.0018
0
VERTEX
8
CUT
10
9.7429
20
168.4153
0
VERTEX
8
CUT
10
9.8327
20
161.6403
0
VERTEX
8
CUT
10
10.0630
20
159.0160
0
VERTEX
8
CUT
10
10.3222
20
158.4948
0
VERTEX
8
CUT
10
10.3384
20
158.4374
0
VERTEX
8
CUT
10
10.4037
20
158.3309
0
VERTEX
8
CUT
10
10.8624
20
157.4086
0
VERTEX
8
CUT
10
11.1902
20
157.0473
0
VERTEX
8
CUT
10
11.3356
20
156.8100
0
VERTEX
8
CUT
10
11.5873
20
156.6099
0
VERTEX
8
CUT
10
11.7976
20
156.3781
0
VERTEX
8
CUT
10
12.2880
20
156.0525
0
VERTEX
8
CUT
10
12.4638
20
155.9127
0
VERTEX
8
CUT
10
12.7078
20
155.7738
0
VERTEX
8
CUT
10
14.9045
20
154.3154
0
VERTEX
8
CUT
10
15.8479
20
153.4100
0
VERTEX
8
CUT
10
15.8855
20
153.3423
0
VERTEX
8
CUT
10
15.9188
20
153.2823
0
VERTEX
8
CUT
10
16.0034
20
153.1301
0
VERTEX
8
CUT
10
16.0585
20
153.0309
0
VERTEX
8
CUT
10
16.4757
20
152.2231
0
VERTEX
8
CUT
10
16.6602
20
150.5946
0
VERTEX
8
CUT
10
16.4960
20
149.8724
0
VERTEX
8
CUT
10
16.3543
20
149.4721
0
VERTEX
8
CUT
10
15.3092
20
148.2463
0
VERTEX
8
CUT
10
13.9082
20
147.0868
0
VERTEX
8
CUT
10
11.6492
20
145.6468
0
VERTEX
8
CUT
10
10.2067
20
144.1781
0
VERTEX
8
CUT
10
9.5056
20
142.3386
0
VERTEX
8
CUT
10
9.5207
20
140.7373
0
VERTEX
8
CUT
10
10.0969
20
139.7672
0
VERTEX
8
CUT
10
10.8149
20
139.1005
0
VERTEX
8
CUT
10
10.8543
20
139.0827
0
VERTEX
8
CUT
10
11.0062
20
138.9433
0
VERTEX
8
CUT
10
11.8657
20
138.5416
0
VERTEX
8
CUT
10
12.0189
20
138.5560
0
VERTEX
8
CUT
10
12.1300
20
138.5058
0
VERTEX
8
CUT
10
13.2515
20
138.5588
0
VERTEX
8
CUT
10
16.2912
20
139.3642
0
VERTEX
8
CUT
10
17.8824
20
139.0812
0
VERTEX
8
CUT
10
18.9801
20
138.1451
0
VERTEX
8
CUT
10
19.3664
20
136.6324
0
VERTEX
8
CUT
10
19.1245
20
135.4972
0
VERTEX
8
CUT
10
17.9825
20
134.1369
0
VERTEX
8
CUT
10
13.6290
20
131.9800
0
VERTEX
8
CUT
10
12.1921
20
130.8112
0
VERTEX
8
CUT
10
11.7175
20
130.1141
0
VERTEX
8
CUT
10
11.3152
20
128.7178
0
VERTEX
8
CUT
10
11.3715
20
128.2509
0
VERTEX
8
CUT
10
11.3754
20
127.6829
0
VERTEX
8
CUT
10
11.4776
20
127.3712
0
VERTEX
8
CUT
10
11.5314
20
126.9244
0
VERTEX
8
CUT
10
12.4244
20
125.3505
0
VERTEX
8
CUT
10
13.9734
20
124.3465
0
VERTEX
8
CUT
10
16.2078
20
123.8219
0
VERTEX
8
CUT
10
20.1338
20
123.5430
0
VERTEX
8
CUT
10
21.6625
20
122.8954
0
VERTEX
8
CUT
10
22.2562
20
122.2280
0
VERTEX
8
CUT
10
22.7840
20
121.5113
0
VERTEX
8
CUT
10
23.0658
20
119.6033
0
VERTEX
8
CUT
10
22.6301
20
117.4266
0
VERTEX
8
CUT
10
21.2876
20
115.2469
0
VERTEX
8
CUT
10
18.9792
20
113.0627
0
VERTEX
8
CUT
10
12.5967
20
108.5448
0
VERTEX
8
CUT
10
10.9718
20
107.0382
0
VERTEX
8
CUT
10
10.3590
20
106.1092
0
VERTEX
8
CUT
10
10.1127
20
105.3689
0
VERTEX
8
CUT
10
10.1216
20
104.6680
0
VERTEX
8
CUT
10
10.6740
20
103.7663
0
VERTEX
8
CUT
10
11.2798
20
103.4176
0
VERTEX
8
CUT
10
11.3838
20
103.4206
0
VERTEX
8
CUT
10
11.4135
20
103.3997
0
VERTEX
8
CUT
10
12.0006
20
103.3204
0
VERTEX
8
CUT
10
12.3816
20
103.4501
0
VERTEX
8
CUT
10
12.6082
20
103.4568
0
VERTEX
8
CUT
10
15.9272
20
105.4000
0
VERTEX
8
CUT
10
17.4075
20
105.7133
0
VERTEX
8
CUT
10
18.5050
20
105.5506
0
VERTEX
8
CUT
10
19.3052
20
105.0500
0
VERTEX
8
CUT
10
19.8058
20
104.2498
0
VERTEX
8
CUT
10
19.9674
20
103.1835
0
VERTEX
8
CUT
10
19.7455
20
101.7948
0
VERTEX
8
CUT
10
18.8831
20
100.3910
0
VERTEX
8
CUT
10
17.1658
20
98.7042
0
VERTEX
8
CUT
10
13.2124
20
95.4104
0
VERTEX
8
CUT
10
11.5917
20
93.4905
0
VERTEX
8
CUT
10
10.9699
20
92.5062
0
VERTEX
8
CUT
10
10.2603
20
90.6639
0
VERTEX
8
CUT
10
10.1916
20
88.9900
0
VERTEX
8
CUT
10
10.4781
20
88.4491
0
VERTEX
8
CUT
10
10.7780
20
87.7120
0
VERTEX
8
CUT
10
10.9600
20
87.5393
0
VERTEX
8
CUT
10
11.0655
20
87.3401
0
VERTEX
8
CUT
10
12.1717
20
86.3666
0
VERTEX
8
CUT
10
13.0921
20
86.0120
0
VERTEX
8
CUT
10
14.0601
20
86.0301
0
VERTEX
8
CUT
10
15.9703
20
87.1517
0
VERTEX
8
CUT
10
19.7147
20
90.6273
0
VERTEX
8
CUT
10
20.4811
20
90.9078
0
VERTEX
8
CUT
10
21.4211
20
90.9730
0
VERTEX
8
CUT
10
22.6538
20
90.7842
0
VERTEX
8
CUT
10
23.7166
20
90.1702
0
VERTEX
8
CUT
10
24.3929
20
89.3344
0
VERTEX
8
CUT
10
24.7660
20
88.2576
0
VERTEX
8
CUT
10
24.8103
20
86.9619
0
VERTEX
8
CUT
10
24.5614
20
85.5358
0
VERTEX
8
CUT
10
23.9746
20
84.0837
0
VERTEX
8
CUT
10
23.0072
20
82.5900
0
VERTEX
8
CUT
10
21.9854
20
81.4918
0
VERTEX
8
CUT
10
21.1060
20
80.7981
0
VERTEX
8
CUT
10
19.1025
20
79.3617
0
VERTEX
8
CUT
10
13.7083
20
76.6946
0
VERTEX
8
CUT
10
12.0390
20
75.6908
0
VERTEX
8
CUT
10
11.5077
20
75.2699
0
VERTEX
8
CUT
10
11.3429
20
75.1615
0
VERTEX
8
CUT
10
11.2854
20
75.0938
0
VERTEX
8
CUT
10
10.7917
20
74.7026
0
VERTEX
8
CUT
10
9.8875
20
73.6807
0
VERTEX
8
CUT
10
9.3393
20
72.6872
0
VERTEX
8
CUT
10
9.1585
20
71.6539
0
VERTEX
8
CUT
10
9.3176
20
70.8133
0
VERTEX
8
CUT
10
9.6605
20
70.2308
0
VERTEX
8
CUT
10
9.7261
20
70.0716
0
VERTEX
8
CUT
10
9.7984
20
69.9965
0
VERTEX
8
CUT
10
9.8542
20
69.9017
0
VERTEX
8
CUT
10
9.9954
20
69.7920
0
VERTEX
8
CUT
10
10.4010
20
69.3709
0
VERTEX
8
CUT
10
10.6517
20
69.2820
0
VERTEX
8
CUT
10
10.9657
20
69.0380
0
VERTEX
8
CUT
10
12.4013
20
68.8687
0
VERTEX
8
CUT
10
15.0764
20
69.4410
0
VERTEX
8
CUT
10
16.1388
20
69.3759
0
VERTEX
8
CUT
10
17.3340
20
68.6446
0
VERTEX
8
CUT
10
17.9399
20
67.7120
0
VERTEX
8
CUT
10
18.0394
20
66.7281
0
VERTEX
8
CUT
10
17.5530
20
65.6210
0
VERTEX
8
CUT
10
14.3366
20
61.8849
0
VERTEX
8
CUT
10
14.2851
20
61.8347
0
VERTEX
8
CUT
10
14.2704
20
61.8080
0
VERTEX
8
CUT
10
13.6426
20
61.0788
0
VERTEX
8
CUT
10
13.1275
20
60.0648
0
VERTEX
8
CUT
10
13.1853
20
58.6011
0
VERTEX
8
CUT
10
13.8394
20
57.5047
0
VERTEX
8
CUT
10
14.3500
20
57.0682
0
VERTEX
8
CUT
10
15.7086
20
56.6936
0
VERTEX
8
CUT
10
17.2220
20
56.9991
0
VERTEX
8
CUT
10
18.8754
20
57.9679
0
VERTEX
8
CUT
10
19.9484
20
58.9587
0
VERTEX
8
CUT
10
20.1385
20
59.1016
0
VERTEX
8
CUT
10
20.2324
20
59.1722
0
VERTEX
8
CUT
10
20.5082
20
59.3794
0
VERTEX
8
CUT
10
21.6352
20
60.2263
0
VERTEX
8
CUT
10
22.2337
20
60.6287
0
VERTEX
8
CUT
10
24.1267
20
61.1654
0
VERTEX
8
CUT
10
25.3146
20
61.2018
0
VERTEX
8
CUT
10
26.7424
20
60.8290
0
VERTEX
8
CUT
10
28.4149
20
59.3395
0
VERTEX
8
CUT
10
29.3006
20
57.7161
0
VERTEX
8
CUT
10
29.4723
20
56.7431
0
VERTEX
8
CUT
10
29.3150
20
54.8050
0
VERTEX
8
CUT
10
28.4343
20
52.7018
0
VERTEX
8
CUT
10
27.7623
20
51.6161
0
VERTEX
8
CUT
10
26.1539
20
50.0119
0
VERTEX
8
CUT
10
26.0356
20
49.9354
0
VERTEX
8
CUT
10
26.0092
20
49.9183
0
VERTEX
8
CUT
10
25.9678
20
49.8916
0
VERTEX
8
CUT
10
25.7740
20
49.7662
0
VERTEX
8
CUT
10
25.0022
20
49.3052
0
VERTEX
8
CUT
10
22.2684
20
48.2840
0
VERTEX
8
CUT
10
15.7589
20
47.0157
0
VERTEX
8
CUT
10
13.6857
20
46.3844
0
VERTEX
8
CUT
10
13.1757
20
46.0803
0
VERTEX
8
CUT
10
12.5357
20
45.7892
0
VERTEX
8
CUT
10
11.9169
20
45.3297
0
VERTEX
8
CUT
10
11.6149
20
45.1496
0
VERTEX
8
CUT
10
11.5419
20
45.0513
0
VERTEX
8
CUT
10
11.4655
20
44.9945
0
VERTEX
8
CUT
10
11.1778
20
44.5607
0
VERTEX
8
CUT
10
10.3012
20
43.3793
0
VERTEX
8
CUT
10
10.1339
20
42.2977
0
VERTEX
8
CUT
10
10.3138
20
41.5350
0
VERTEX
8
CUT
10
10.6693
20
40.9343
0
VERTEX
8
CUT
10
11.5326
20
40.3023
0
VERTEX
8
CUT
10
12.0311
20
40.2344
0
VERTEX
8
CUT
10
12.0515
20
40.2250
0
VERTEX
8
CUT
10
12.0811
20
40.2276
0
VERTEX
8
CUT
10
12.6412
20
40.1514
0
VERTEX
8
CUT
10
13.4065
20
40.2616
0
VERTEX
8
CUT
10
15.2132
20
40.9138
0
VERTEX
8
CUT
10
15.9915
20
41.1794
0
VERTEX
8
CUT
10
16.2019
20
41.2512
0
VERTEX
8
CUT
10
16.4657
20
41.3413
0
VERTEX
8
CUT
10
16.7324
20
41.4323
0
VERTEX
8
CUT
10
17.6761
20
41.6105
0
VERTEX
8
CUT
10
17.8185
20
41.6059
0
VERTEX
8
CUT
10
19.0538
20
41.3524
0
VERTEX
8
CUT
10
19.7567
20
40.9763
0
VERTEX
8
CUT
10
20.3024
20
40.6126
0
VERTEX
8
CUT
10
21.0767
20
39.3489
0
VERTEX
8
CUT
10
21.1292
20
38.7673
0
VERTEX
8
CUT
10
21.1084
20
38.5586
0
VERTEX
8
CUT
10
21.1083
20
38.5584
0
VERTEX
8
CUT
10
21.1078
20
38.5568
0
VERTEX
8
CUT
10
21.1025
20
38.5410
0
VERTEX
8
CUT
10
21.0617
20
38.4180
0
VERTEX
8
CUT
10
20.7439
20
37.8069
0
VERTEX
8
CUT
10
19.3857
20
36.5328
0
VERTEX
8
CUT
10
17.3235
20
35.3870
0
VERTEX
8
CUT
10
16.0037
20
34.4075
0
VERTEX
8
CUT
10
15.5978
20
33.8486
0
VERTEX
8
CUT
10
15.5942
20
33.8008
0
VERTEX
8
CUT
10
15.5711
20
33.7671
0
VERTEX
8
CUT
10
15.5579
20
33.3222
0
VERTEX
8
CUT
10
15.5344
20
33.0118
0
VERTEX
8
CUT
10
16.3882
20
31.8470
0
VERTEX
8
CUT
10
17.0649
20
31.4873
0
VERTEX
8
CUT
10
21.6211
20
31.5781
0
VERTEX
8
CUT
10
23.2417
20
31.0747
0
VERTEX
8
CUT
10
23.5060
20
30.8065
0
VERTEX
8
CUT
10
23.6965
20
30.6132
0
VERTEX
8
CUT
10
23.7599
20
30.5488
0
VERTEX
8
CUT
10
23.9830
20
30.3224
0
VERTEX
8
CUT
10
24.1926
20
29.9442
0
VERTEX
8
CUT
10
24.4789
20
28.2612
0
VERTEX
8
CUT
10
24.1586
20
26.7671
0
VERTEX
8
CUT
10
23.0998
20
25.3929
0
VERTEX
8
CUT
10
21.2656
20
24.0519
0
VERTEX
8
CUT
10
17.0199
20
21.8835
0
VERTEX
8
CUT
10
14.6361
20
20.4519
0
VERTEX
8
CUT
10
12.8571
20
19.0243
0
VERTEX
8
CUT
10
11.5875
20
17.4669
0
VERTEX
8
CUT
10
10.5806
20
15.3103
0
VERTEX
8
CUT
10
10.3777
20
14.0926
0
VERTEX
8
CUT
10
10.3918
20
13.8134
0
VERTEX
8
CUT
10
10.3766
20
13.7391
0
VERTEX
8
CUT
10
10.4063
20
13.5246
0
VERTEX
8
CUT
10
10.4302
20
13.0511
0
VERTEX
8
CUT
10
10.5029
20
12.8287
0
VERTEX
8
CUT
10
10.5173
20
12.7245
0
VERTEX
8
CUT
10
10.5745
20
12.6095
0
VERTEX
8
CUT
10
10.7782
20
11.9860
0
VERTEX
8
CUT
10
11.3289
20
11.2018
0
VERTEX
8
CUT
10
12.0610
20
10.6319
0
VERTEX
8
CUT
10
13.1251
20
10.2133
0
VERTEX
8
CUT
10
14.2882
20
10.0769
0
VERTEX
8
CUT
10
15.6038
20
10.1929
0
VERTEX
8
CUT
10
16.9534
20
10.5258
0
VERTEX
8
CUT
10
19.6893
20
11.8365
0
VERTEX
8
CUT
10
22.5465
20
14.0307
0
VERTEX
8
CUT
10
28.0572
20
19.8992
0
VERTEX
8
CUT
10
30.4035
20
21.5707
0
VERTEX
8
CUT
10
32.5471
20
22.1334
0
VERTEX
8
CUT
10
33.6178
20
21.9962
0
VERTEX
8
CUT
10
35.2342
20
21.1800
0
VERTEX
8
CUT
10
35.5143
20
20.8721
0
VERTEX
8
CUT
10
35.8049
20
20.4375
0
VERTEX
8
CUT
10
36.2022
20
19.2721
0
VERTEX
8
CUT
10
36.0445
20
17.4557
0
VERTEX
8
CUT
10
34.5513
20
13.6337
0
VERTEX
8
CUT
10
34.5314
20
13.4008
0
VERTEX
8
CUT
10
34.5269
20
13.3903
0
VERTEX
8
CUT
10
34.4408
20
12.8197
0
VERTEX
8
CUT
10
34.4707
20
12.6894
0
VERTEX
8
CUT
10
34.4347
20
12.2677
0
VERTEX
8
CUT
10
34.6094
20
11.6523
0
VERTEX
8
CUT
10
35.3320
20
10.8210
0
VERTEX
8
CUT
10
35.9606
20
10.4809
0
VERTEX
8
CUT
10
37.0331
20
10.2271
0
VERTEX
8
CUT
10
38.0703
20
10.3669
0
VERTEX
8
CUT
10
39.6670
20
11.3018
0
VERTEX
8
CUT
10
40.5635
20
12.2912
0
VERTEX
8
CUT
10
41.1996
20
13.3676
0
VERTEX
8
CUT
10
41.7129
20
15.1959
0
VERTEX
8
CUT
10
41.8987
20
17.7424
0
VERTEX
8
CUT
10
42.0883
20
19.2226
0
VERTEX
8
CUT
10
42.5869
20
20.6187
0
VERTEX
8
CUT
10
43.2464
20
21.4971
0
VERTEX
8
CUT
10
44.2076
20
22.2631
0
VERTEX
8
CUT
10
45.2267
20
22.7327
0
VERTEX
8
CUT
10
46.2913
20
22.8854
0
VERTEX
8
CUT
10
47.9501
20
22.4385
0
VERTEX
8
CUT
10
49.1763
20
21.2112
0
VERTEX
8
CUT
10
49.6230
20
19.8898
0
VERTEX
8
CUT
10
49.8060
20
17.9768
0
VERTEX
8
CUT
10
49.8654
20
16.8654
0
VERTEX
8
CUT
10
49.9285
20
16.6962
0
VERTEX
8
CUT
10
49.9726
20
16.2358
0
VERTEX
8
CUT
10
50.3101
20
15.5622
0
VERTEX
8
CUT
10
50.8108
20
15.1189
0
VERTEX
8
CUT
10
51.5038
20
14.8199
0
VERTEX
8
CUT
10
52.4589
20
14.7063
0
VERTEX
8
CUT
10
52.6048
20
14.7140
0
VERTEX
8
CUT
10
52.8699
20
14.6772
0
VERTEX
8
CUT
10
53.9272
20
14.7843
0
VERTEX
8
CUT
10
58.6372
20
15.0348
0
VERTEX
8
CUT
10
59.7060
20
14.8374
0
VERTEX
8
CUT
10
59.7243
20
14.8307
0
VERTEX
8
CUT
10
59.7383
20
14.8255
0
VERTEX
8
CUT
10
59.7416
20
14.8243
0
VERTEX
8
CUT
10
59.9481
20
14.7480
0
VERTEX
8
CUT
10
60.5699
20
14.4210
0
VERTEX
8
CUT
10
60.5880
20
14.4069
0
VERTEX
8
CUT
10
60.5909
20
14.4047
0
VERTEX
8
CUT
10
60.6882
20
14.3286
0
VERTEX
8
CUT
10
60.7987
20
14.2423
0
VERTEX
8
CUT
10
61.2770
20
13.6398
0
VERTEX
8
CUT
10
61.4419
20
12.6875
0
VERTEX
8
CUT
10
61.3165
20
11.5628
0
VERTEX
8
CUT
10
60.6849
20
9.7641
0
VERTEX
8
CUT
10
60.6939
20
9.1620
0
VERTEX
8
CUT
10
60.6094
20
8.8942
0
VERTEX
8
CUT
10
60.7010
20
8.6825
0
VERTEX
8
CUT
10
60.7020
20
8.6196
0
VERTEX
8
CUT
10
60.7747
20
8.5122
0
VERTEX
8
CUT
10
60.9799
20
8.0381
0
VERTEX
8
CUT
10
61.2626
20
7.7917
0
VERTEX
8
CUT
10
61.3987
20
7.5908
0
VERTEX
8
CUT
10
61.6626
20
7.4431
0
VERTEX
8
CUT
10
61.9228
20
7.2164
0
VERTEX
8
CUT
10
62.1033
20
7.1966
0
VERTEX
8
CUT
10
62.7031
20
6.8611
0
VERTEX
8
CUT
10
63.2603
20
6.7968
0
VERTEX
8
CUT
10
64.4973
20
7.0534
0
VERTEX
8
CUT
10
66.1956
20
7.9104
0
VERTEX
8
CUT
10
66.4726
20
8.2020
0
VERTEX
8
CUT
10
66.5180
20
8.2281
0
VERTEX
8
CUT
10
66.7114
20
8.4534
0
VERTEX
8
CUT
10
67.6676
20
9.4601
0
VERTEX
8
CUT
10
69.7734
20
13.0849
0
VERTEX
8
CUT
10
70.3132
20
13.7108
0
VERTEX
8
CUT
10
70.3834
20
13.7922
0
VERTEX
8
CUT
10
70.3992
20
13.8104
0
VERTEX
8
CUT
10
70.4040
20
13.8160
0
VERTEX
8
CUT
10
71.4240
20
14.9387
0
VERTEX
8
CUT
10
73.2191
20
16.0150
0
VERTEX
8
CUT
10
75.1589
20
16.3878
0
VERTEX
8
CUT
10
76.8874
20
16.1737
0
VERTEX
8
CUT
10
76.8964
20
16.1693
0
VERTEX
8
CUT
10
76.9028
20
16.1662
0
VERTEX
8
CUT
10
76.9948
20
16.1211
0
VERTEX
8
CUT
10
77.4339
20
15.9063
0
VERTEX
8
CUT
10
77.9111
20
15.5331
0
VERTEX
8
CUT
10
77.9283
20
15.5170
0
VERTEX
8
CUT
10
77.9435
20
15.5027
0
VERTEX
8
CUT
10
77.9738
20
15.4741
0
VERTEX
8
CUT
10
77.9936
20
15.4554
0
VERTEX
8
CUT
10
78.7829
20
13.7570
0
VERTEX
8
CUT
10
79.2020
20
10.9794
0
VERTEX
8
CUT
10
80.0441
20
9.6728
0
VERTEX
8
CUT
10
81.3265
20
8.8775
0
VERTEX
8
CUT
10
82.1716
20
8.6646
0
VERTEX
8
CUT
10
84.2917
20
8.6600
0
VERTEX
8
CUT
10
86.3246
20
9.4438
0
VERTEX
8
CUT
10
87.8693
20
10.8678
0
VERTEX
8
CUT
10
88.9274
20
12.9010
0
VERTEX
8
CUT
10
89.5483
20
15.4432
0
VERTEX
8
CUT
10
90.7052
20
17.9388
0
VERTEX
8
CUT
10
91.0138
20
18.3022
0
VERTEX
8
CUT
10
91.1759
20
18.4616
0
VERTEX
8
CUT
10
91.3135
20
18.5968
0
VERTEX
8
CUT
10
91.4482
20
18.7292
0
VERTEX
8
CUT
10
91.7766
20
19.0521
0
VERTEX
8
CUT
10
93.7546
20
20.0224
0
VERTEX
8
CUT
10
94.9052
20
20.1177
0
VERTEX
8
CUT
10
95.9453
20
19.8245
0
VERTEX
8
CUT
10
96.7891
20
19.1423
0
VERTEX
8
CUT
10
96.7900
20
19.1410
0
VERTEX
8
CUT
10
96.7915
20
19.1388
0
VERTEX
8
CUT
10
96.7942
20
19.1350
0
VERTEX
8
CUT
10
96.8038
20
19.1211
0
VERTEX
8
CUT
10
97.3159
20
18.2180
0
VERTEX
8
CUT
10
97.4720
20
16.5811
0
VERTEX
8
CUT
10
96.4826
20
13.0618
0
VERTEX
8
CUT
10
96.5457
20
12.2873
0
VERTEX
8
CUT
10
96.7683
20
11.8833
0
VERTEX
8
CUT
10
97.6491
20
11.1873
0
VERTEX
8
CUT
10
98.4403
20
11.0963
0
VERTEX
8
CUT
10
99.4015
20
11.3504
0
VERTEX
8
CUT
10
100.4364
20
12.0103
0
VERTEX
8
CUT
10
101.5976
20
13.0868
0
VERTEX
8
CUT
10
102.0038
20
13.8222
0
VERTEX
8
CUT
10
102.1216
20
13.9803
0
VERTEX
8
CUT
10
102.2397
20
14.2494
0
VERTEX
8
CUT
10
102.7237
20
15.1255
0
VERTEX
8
CUT
10
103.0393
20
16.7005
0
VERTEX
8
CUT
10
102.9585
20
19.7049
0
VERTEX
8
CUT
10
103.1038
20
21.1305
0
VERTEX
8
CUT
10
103.2933
20
21.9394
0
VERTEX
8
CUT
10
103.5978
20
22.8808
0
VERTEX
8
CUT
10
104.2327
20
24.0027
0
VERTEX
8
CUT
10
105.1259
20
24.9695
0
VERTEX
8
CUT
10
106.1566
20
25.6874
0
VERTEX
8
CUT
10
107.3558
20
26.1593
0
VERTEX
8
CUT
10
108.6571
20
26.3139
0
VERTEX
8
CUT
10
109.5211
20
26.2397
0
VERTEX
8
CUT
10
110.9130
20
25.6471
0
VERTEX
8
CUT
10
111.9477
20
24.5883
0
VERTEX
8
CUT
10
112.3154
20
23.8642
0
VERTEX
8
CUT
10
112.5405
20
23.0428
0
VERTEX
8
CUT
10
112.5406
20
22.6582
0
VERTEX
8
CUT
10
112.5308
20
22.4940
0
VERTEX
8
CUT
10
112.5231
20
22.3636
0
VERTEX
8
CUT
10
112.5090
20
22.1258
0
VERTEX
8
CUT
10
112.4641
20
21.3696
0
VERTEX
8
CUT
10
110.9476
20
15.8898
0
VERTEX
8
CUT
10
110.9159
20
14.2914
0
VERTEX
8
CUT
10
111.2600
20
13.0893
0
VERTEX
8
CUT
10
112.5058
20
11.4892
0
VERTEX
8
CUT
10
113.4741
20
10.9632
0
VERTEX
8
CUT
10
114.5885
20
10.7354
0
VERTEX
8
CUT
10
115.7354
20
10.7378
0
VERTEX
8
CUT
10
117.0164
20
11.0282
0
VERTEX
8
CUT
10
118.3913
20
11.6275
0
VERTEX
8
CUT
10
120.2757
20
12.8704
0
VERTEX
8
CUT
10
120.8027
20
13.4080
0
VERTEX
8
CUT
10
120.9242
20
13.4930
0
VERTEX
8
CUT
10
121.0857
20
13.6966
0
VERTEX
8
CUT
10
121.9527
20
14.5808
0
VERTEX
8
CUT
10
123.5416
20
16.7284
0
VERTEX
8
CUT
10
126.3714
20
22.0234
0
VERTEX
8
CUT
10
128.1337
20
24.4879
0
VERTEX
8
CUT
10
129.2816
20
25.4261
0
VERTEX
8
CUT
10
129.9533
20
25.7107
0
VERTEX
8
CUT
10
130.7744
20
25.8601
0
VERTEX
8
CUT
10
132.1624
20
25.4751
0
VERTEX
8
CUT
10
133.0758
20
24.4600
0
VERTEX
8
CUT
10
133.0892
20
24.4391
0
VERTEX
8
CUT
10
133.1000
20
24.4223
0
VERTEX
8
CUT
10
133.1337
20
24.3695
0
VERTEX
8
CUT
10
133.1966
20
24.2712
0
VERTEX
8
CUT
10
133.4566
20
23.5995
0
VERTEX
8
CUT
10
133.4996
20
21.7396
0
VERTEX
8
CUT
10
132.9071
20
20.2018
0
VERTEX
8
CUT
10
130.7693
20
16.2506
0
VERTEX
8
CUT
10
130.4546
20
15.3684
0
VERTEX
8
CUT
10
130.3450
20
13.7085
0
VERTEX
8
CUT
10
130.4944
20
12.7581
0
VERTEX
8
CUT
10
130.8209
20
12.1834
0
VERTEX
8
CUT
10
131.7060
20
11.4484
0
VERTEX
8
CUT
10
132.4767
20
11.3202
0
VERTEX
8
CUT
10
133.3066
20
11.8000
0
VERTEX
8
CUT
10
134.0895
20
12.6119
0
VERTEX
8
CUT
10
135.7923
20
15.8104
0
VERTEX
8
CUT
10
137.0305
20
16.8233
0
VERTEX
8
CUT
10
138.1578
20
16.7030
0
VERTEX
8
CUT
10
140.5521
20
15.1953
0
VERTEX
8
CUT
10
141.4337
20
14.9431
0
VERTEX
8
CUT
10
141.6683
20
14.9606
0
VERTEX
8
CUT
10
141.8144
20
14.9188
0
VERTEX
8
CUT
10
142.0674
20
14.9905
0
VERTEX
8
CUT
10
142.8750
20
15.0508
0
VERTEX
8
CUT
10
143.6044
20
15.3495
0
VERTEX
8
CUT
10
144.8526
20
16.5100
0
VERTEX
8
CUT
10
145.6538
20
18.1980
0
VERTEX
8
CUT
10
145.8340
20
19.5603
0
VERTEX
8
CUT
10
145.4147
20
27.7444
0
VERTEX
8
CUT
10
145.6368
20
30.8065
0
VERTEX
8
CUT
10
145.7785
20
31.1365
0
VERTEX
8
CUT
10
146.0106
20
31.5556
0
VERTEX
8
CUT
10
146.1223
20
31.7573
0
VERTEX
8
CUT
10
146.1880
20
31.8760
0
VERTEX
8
CUT
10
146.2898
20
32.0597
0
VERTEX
8
CUT
10
147.3635
20
33.1597
0
VERTEX
8
CUT
10
148.8096
20
33.9133
0
VERTEX
8
CUT
10
150.3291
20
34.1034
0
VERTEX
8
CUT
10
151.8531
20
33.6733
0
VERTEX
8
CUT
10
152.7034
20
33.1242
0
VERTEX
8
CUT
10
153.8256
20
31.7151
0
VERTEX
8
CUT
10
153.9676
20
31.4138
0
VERTEX
8
CUT
10
154.2474
20
30.6405
0
VERTEX
8
CUT
10
154.5550
20
28.1899
0
VERTEX
8
CUT
10
153.9227
20
22.4950
0
VERTEX
8
CUT
10
153.8626
20
19.6210
0
VERTEX
8
CUT
10
154.1269
20
18.1976
0
VERTEX
8
CUT
10
154.9116
20
16.6317
0
VERTEX
8
CUT
10
156.2439
20
15.3233
0
VERTEX
8
CUT
10
157.8386
20
14.8900
0
VERTEX
8
CUT
10
157.8723
20
14.8935
0
VERTEX
8
CUT
10
157.8864
20
14.8888
0
VERTEX
8
CUT
10
157.9211
20
14.8986
0
VERTEX
8
CUT
10
158.7032
20
14.9805
0
VERTEX
8
CUT
10
159.5383
20
15.3153
0
VERTEX
8
CUT
10
161.2735
20
16.4858
0
VERTEX
8
CUT
10
161.6256
20
16.7096
0
VERTEX
8
CUT
10
161.7516
20
16.7897
0
VERTEX
8
CUT
10
161.7860
20
16.8116
0
VERTEX
8
CUT
10
161.7992
20
16.8200
0
VERTEX
8
CUT
10
162.0554
20
16.9034
0
VERTEX
8
CUT
10
162.0623
20
16.9049
0
VERTEX
8
CUT
10
162.0704
20
16.9067
0
VERTEX
8
CUT
10
162.1268
20
16.9189
0
VERTEX
8
CUT
10
162.3913
20
16.9761
0
VERTEX
8
CUT
10
162.6372
20
16.9356
0
VERTEX
8
CUT
10
162.8685
20
16.8668
0
VERTEX
8
CUT
10
163.5205
20
16.4611
0
VERTEX
8
CUT
10
163.5235
20
16.4583
0
VERTEX
8
CUT
10
163.5289
20
16.4532
0
VERTEX
8
CUT
10
163.5381
20
16.4443
0
VERTEX
8
CUT
10
163.6072
20
16.3784
0
VERTEX
8
CUT
10
164.1963
20
15.6764
0
VERTEX
8
CUT
10
165.7165
20
12.5580
0
VERTEX
8
CUT
10
166.4227
20
11.7699
0
VERTEX
8
CUT
10
167.2131
20
11.3216
0
VERTEX
8
CUT
10
167.4189
20
11.3473
0
VERTEX
8
CUT
10
167.4902
20
11.3022
0
VERTEX
8
CUT
10
167.6656
20
11.3782
0
VERTEX
8
CUT
10
168.0934
20
11.4316
0
VERTEX
8
CUT
10
168.7086
20
11.9260
0
VERTEX
8
CUT
10
169.3962
20
13.0086
0
VERTEX
8
CUT
10
169.5626
20
13.8705
0
VERTEX
8
CUT
10
169.0744
20
16.1454
0
VERTEX
8
CUT
10
167.1393
20
19.7517
0
VERTEX
8
CUT
10
166.4070
20
21.9122
0
VERTEX
8
CUT
10
166.4273
20
23.6611
0
VERTEX
8
CUT
10
166.4312
20
23.6796
0
VERTEX
8
CUT
10
166.4374
20
23.7088
0
VERTEX
8
CUT
10
166.4378
20
23.7106
0
VERTEX
8
CUT
10
166.4547
20
23.7898
0
VERTEX
8
CUT
10
166.6628
20
24.2508
0
VERTEX
8
CUT
10
166.9203
20
24.6132
0
VERTEX
8
CUT
10
167.9353
20
25.5214
0
VERTEX
8
CUT
10
168.5534
20
25.7481
0
VERTEX
8
CUT
10
168.8733
20
25.8299
0
VERTEX
8
CUT
10
169.5856
20
25.8316
0
VERTEX
8
CUT
10
171.2542
20
25.0419
0
VERTEX
8
CUT
10
172.7858
20
23.2581
0
VERTEX
8
CUT
10
176.5834
20
16.3173
0
VERTEX
8
CUT
10
178.1263
20
14.4468
0
VERTEX
8
CUT
10
178.2158
20
14.3228
0
VERTEX
8
CUT
10
178.2772
20
14.2640
0
VERTEX
8
CUT
10
179.1334
20
13.2259
0
VERTEX
8
CUT
10
180.4815
20
12.1134
0
VERTEX
8
CUT
10
181.8628
20
11.3203
0
VERTEX
8
CUT
10
183.2068
20
10.8533
0
VERTEX
8
CUT
10
184.6147
20
10.6779
0
VERTEX
8
CUT
10
186.0359
20
10.8974
0
VERTEX
8
CUT
10
186.9520
20
11.3348
0
VERTEX
8
CUT
10
187.1898
20
11.5493
0
VERTEX
8
CUT
10
187.2554
20
11.5840
0
VERTEX
8
CUT
10
187.5003
20
11.8292
0
VERTEX
8
CUT
10
188.1336
20
12.4002
0
VERTEX
8
CUT
10
188.7001
20
13.4495
0
VERTEX
8
CUT
10
188.8395
20
15.6723
0
VERTEX
8
CUT
10
187.4942
20
21.0985
0
VERTEX
8
CUT
10
187.4047
20
23.3856
0
VERTEX
8
CUT
10
187.6995
20
24.3459
0
VERTEX
8
CUT
10
188.7674
20
25.5434
0
VERTEX
8
CUT
10
189.5953
20
26.1133
0
VERTEX
8
CUT
10
190.6248
20
26.3144
0
VERTEX
8
CUT
10
192.4296
20
26.1305
0
VERTEX
8
CUT
10
193.7345
20
25.6215
0
VERTEX
8
CUT
10
194.7966
20
24.8704
0
VERTEX
8
CUT
10
194.8316
20
24.8330
0
VERTEX
8
CUT
10
194.8325
20
24.8321
0
VERTEX
8
CUT
10
194.8399
20
24.8242
0
VERTEX
8
CUT
10
195.0817
20
24.5666
0
VERTEX
8
CUT
10
196.0648
20
23.3436
0
VERTEX
8
CUT
10
196.0760
20
23.3212
0
VERTEX
8
CUT
10
196.5704
20
22.0303
0
VERTEX
8
CUT
10
196.9317
20
17.1849
0
VERTEX
8
CUT
10
196.9451
20
17.1003
0
VERTEX
8
CUT
10
196.9305
20
16.5817
0
VERTEX
8
CUT
10
197.2451
20
15.0394
0
VERTEX
8
CUT
10
197.2796
20
14.9804
0
VERTEX
8
CUT
10
197.3099
20
14.7880
0
VERTEX
8
CUT
10
198.0524
20
13.1672
0
VERTEX
8
CUT
10
199.2231
20
12.0109
0
VERTEX
8
CUT
10
200.9360
20
11.1305
0
VERTEX
8
CUT
10
201.5567
20
11.0131
0
VERTEX
8
CUT
10
202.3691
20
11.3073
0
VERTEX
8
CUT
10
202.8951
20
11.8167
0
VERTEX
8
CUT
10
203.2226
20
12.4783
0
VERTEX
8
CUT
10
203.2276
20
12.5416
0
VERTEX
8
CUT
10
203.2434
20
12.5717
0
VERTEX
8
CUT
10
203.2468
20
12.7851
0
VERTEX
8
CUT
10
203.2792
20
13.1951
0
VERTEX
8
CUT
10
202.3814
20
16.6767
0
VERTEX
8
CUT
10
202.6625
20
18.3916
0
VERTEX
8
CUT
10
203.1251
20
19.1166
0
VERTEX
8
CUT
10
204.4189
20
19.8870
0
VERTEX
8
CUT
10
206.2963
20
19.9040
0
VERTEX
8
CUT
10
207.9466
20
19.2337
0
VERTEX
8
CUT
10
209.2118
20
17.8357
0
VERTEX
8
CUT
10
210.1466
20
15.8452
0
VERTEX
8
CUT
10
211.2233
20
12.2247
0
VERTEX
8
CUT
10
212.2528
20
10.4816
0
VERTEX
8
CUT
10
213.6407
20
9.3250
0
VERTEX
8
CUT
10
215.4816
20
8.5901
0
VERTEX
8
CUT
10
217.4189
20
8.5194
0
VERTEX
8
CUT
10
218.1479
20
8.7984
0
VERTEX
8
CUT
10
218.4276
20
8.8772
0
VERTEX
8
CUT
10
218.5293
20
8.9444
0
VERTEX
8
CUT
10
219.0635
20
9.1489
0
VERTEX
8
CUT
10
219.7325
20
9.6886
0
VERTEX
8
CUT
10
220.6292
20
11.1080
0
VERTEX
8
CUT
10
220.9960
20
13.6875
0
VERTEX
8
CUT
10
221.7398
20
15.2084
0
VERTEX
8
CUT
10
222.3705
20
15.8657
0
VERTEX
8
CUT
10
222.9011
20
16.1340
0
VERTEX
8
CUT
10
224.7402
20
16.3884
0
VERTEX
8
CUT
10
226.8629
20
15.8252
0
VERTEX
8
CUT
10
229.0692
20
14.3738
0
VERTEX
8
CUT
10
229.9670
20
13.2888
0
VERTEX
8
CUT
10
232.0695
20
9.5412
0
VERTEX
8
CUT
10
233.6053
20
7.8647
0
VERTEX
8
CUT
10
234.4582
20
7.2962
0
VERTEX
8
CUT
10
235.3613
20
6.9718
0
VERTEX
8
CUT
10
236.2645
20
6.8303
0
VERTEX
8
CUT
10
237.1744
20
6.9314
0
VERTEX
8
CUT
10
238.4899
20
7.5389
0
VERTEX
8
CUT
10
239.2515
20
8.5600
0
VERTEX
8
CUT
10
239.2515
20
8.7418
0
VERTEX
8
CUT
10
239.2703
20
8.7742
0
VERTEX
8
CUT
10
239.2515
20
8.8882
0
VERTEX
8
CUT
10
239.2515
20
9.4600
0
VERTEX
8
CUT
10
238.2897
20
12.5045
0
VERTEX
8
CUT
10
238.4754
20
13.3609
0
VERTEX
8
CUT
10
238.4923
20
13.4203
0
VERTEX
8
CUT
10
238.9651
20
14.0318
0
VERTEX
8
CUT
10
239.8327
20
14.6607
0
VERTEX
8
CUT
10
241.1546
20
15.0951
0
VERTEX
8
CUT
10
245.5886
20
14.8240
0
VERTEX
8
CUT
10
246.5780
20
14.6786
0
VERTEX
8
CUT
10
247.1964
20
14.7661
0
VERTEX
8
CUT
10
247.8928
20
14.7668
0
VERTEX
8
CUT
10
248.7044
20
14.9805
0
VERTEX
8
CUT
10
249.6847
20
15.9620
0
VERTEX
8
CUT
10
250.1051
20
16.6652
0
VERTEX
8
CUT
10
250.1100
20
19.4937
0
VERTEX
8
CUT
10
250.4214
20
20.6751
0
VERTEX
8
CUT
10
251.0375
20
21.6394
0
VERTEX
8
CUT
10
251.9292
20
22.4225
0
VERTEX
8
CUT
10
252.8974
20
22.8220
0
VERTEX
8
CUT
10
253.9629
20
22.8849
0
VERTEX
8
CUT
10
255.1426
20
22.5710
0
VERTEX
8
CUT
10
256.1869
20
21.9372
0
VERTEX
8
CUT
10
256.2088
20
21.9218
0
VERTEX
8
CUT
10
257.0164
20
20.9581
0
VERTEX
8
CUT
10
257.1564
20
20.6919
0
VERTEX
8
CUT
10
257.8850
20
18.7392
0
VERTEX
8
CUT
10
258.2549
20
14.7089
0
VERTEX
8
CUT
10
258.5520
20
13.8114
0
VERTEX
8
CUT
10
258.6734
20
13.3182
0
VERTEX
8
CUT
10
258.7744
20
13.1396
0
VERTEX
8
CUT
10
258.9104
20
12.7286
0
VERTEX
8
CUT
10
260.1014
20
11.2648
0
VERTEX
8
CUT
10
261.6937
20
10.5031
0
VERTEX
8
CUT
10
263.0383
20
10.3745
0
VERTEX
8
CUT
10
263.8847
20
10.5518
0
VERTEX
8
CUT
10
264.7700
20
11.2043
0
VERTEX
8
CUT
10
265.4453
20
12.1736
0
VERTEX
8
CUT
10
265.5543
20
12.6096
0
VERTEX
8
CUT
10
265.2777
20
13.6692
0
VERTEX
8
CUT
10
263.6513
20
17.7368
0
VERTEX
8
CUT
10
263.5509
20
19.2374
0
VERTEX
8
CUT
10
264.1680
20
20.5927
0
VERTEX
8
CUT
10
264.1790
20
20.6059
0
VERTEX
8
CUT
10
264.1833
20
20.6110
0
VERTEX
8
CUT
10
264.1953
20
20.6253
0
VERTEX
8
CUT
10
264.2221
20
20.6574
0
VERTEX
8
CUT
10
264.8119
20
21.3053
0
VERTEX
8
CUT
10
264.9811
20
21.4024
0
VERTEX
8
CUT
10
265.0935
20
21.4670
0
VERTEX
8
CUT
10
265.2469
20
21.5550
0
VERTEX
8
CUT
10
265.8200
20
21.8841
0
VERTEX
8
CUT
10
267.1023
20
22.1027
0
VERTEX
8
CUT
10
268.6100
20
21.9093
0
VERTEX
8
CUT
10
268.6117
20
21.9089
0
VERTEX
8
CUT
10
268.6118
20
21.9089
0
VERTEX
8
CUT
10
268.6121
20
21.9088
0
VERTEX
8
CUT
10
268.6263
20
21.9054
0
VERTEX
8
CUT
10
270.6752
20
20.8044
0
VERTEX
8
CUT
10
272.1877
20
19.4468
0
VERTEX
8
CUT
10
277.6050
20
13.7583
0
VERTEX
8
CUT
10
279.3503
20
12.3746
0
VERTEX
8
CUT
10
280.9733
20
11.4176
0
VERTEX
8
CUT
10
282.8595
20
10.6591
0
VERTEX
8
CUT
10
284.5432
20
10.2542
0
VERTEX
8
CUT
10
286.0143
20
10.1676
0
VERTEX
8
CUT
10
287.3129
20
10.4231
0
VERTEX
8
CUT
10
288.2806
20
10.9001
0
VERTEX
8
CUT
10
289.0577
20
11.7703
0
VERTEX
8
CUT
10
289.4775
20
12.8931
0
VERTEX
8
CUT
10
289.5024
20
14.1760
0
VERTEX
8
CUT
10
289.2709
20
15.3378
0
VERTEX
8
CUT
10
288.8165
20
16.4759
0
VERTEX
8
CUT
10
287.2934
20
18.5715
0
VERTEX
8
CUT
10
286.8601
20
18.9270
0
VERTEX
8
CUT
10
286.7549
20
19.0508
0
VERTEX
8
CUT
10
285.0980
20
20.3728
0
VERTEX
8
CUT
10
284.8024
20
20.6154
0
VERTEX
8
CUT
10
277.2604
20
24.8147
0
VERTEX
8
CUT
10
276.7813
20
25.2681
0
VERTEX
8
CUT
10
275.6652
20
26.6086
0
VERTEX
8
CUT
10
275.2040
20
28.3493
0
VERTEX
8
CUT
10
275.3297
20
29.1539
0
VERTEX
8
CUT
10
275.3472
20
29.2658
0
VERTEX
8
CUT
10
275.3521
20
29.2973
0
VERTEX
8
CUT
10
275.3533
20
29.3052
0
VERTEX
8
CUT
10
275.7110
20
30.0174
0
VERTEX
8
CUT
10
277.1308
20
31.2793
0
VERTEX
8
CUT
10
277.1346
20
31.2806
0
VERTEX
8
CUT
10
278.2652
20
31.5941
0
VERTEX
8
CUT
10
278.3842
20
31.6017
0
VERTEX
8
CUT
10
278.4080
20
31.6032
0
VERTEX
8
CUT
10
278.5568
20
31.6126
0
VERTEX
8
CUT
10
278.8171
20
31.6290
0
VERTEX
8
CUT
10
282.7550
20
31.5552
0
VERTEX
8
CUT
10
283.7853
20
32.2634
0
VERTEX
8
CUT
10
284.4664
20
33.0729
0
VERTEX
8
CUT
10
284.3184
20
33.6655
0
VERTEX
8
CUT
10
283.7074
20
34.4278
0
VERTEX
8
CUT
10
280.6972
20
36.2460
0
VERTEX
8
CUT
10
279.2530
20
37.6614
0
VERTEX
8
CUT
10
278.8963
20
38.4108
0
VERTEX
8
CUT
10
278.8303
20
39.2109
0
VERTEX
8
CUT
10
279.0642
20
39.9479
0
VERTEX
8
CUT
10
279.5799
20
40.5965
0
VERTEX
8
CUT
10
280.8898
20
41.3987
0
VERTEX
8
CUT
10
282.1765
20
41.6111
0
VERTEX
8
CUT
10
282.8679
20
41.4865
0
VERTEX
8
CUT
10
283.0417
20
41.4552
0
VERTEX
8
CUT
10
283.0457
20
41.4545
0
VERTEX
8
CUT
10
283.0963
20
41.4454
0
VERTEX
8
CUT
10
283.3278
20
41.3971
0
VERTEX
8
CUT
10
286.1099
20
40.3504
0
VERTEX
8
CUT
10
286.5115
20
40.3203
0
VERTEX
8
CUT
10
286.7925
20
40.2170
0
VERTEX
8
CUT
10
287.8258
20
40.2139
0
VERTEX
8
CUT
10
288.6149
20
40.5486
0
VERTEX
8
CUT
10
289.2650
20
41.2173
0
VERTEX
8
CUT
10
289.3604
20
41.4416
0
VERTEX
8
CUT
10
289.4306
20
41.5257
0
VERTEX
8
CUT
10
289.4664
20
41.6907
0
VERTEX
8
CUT
10
289.5719
20
41.9386
0
VERTEX
8
CUT
10
289.5549
20
42.0988
0
VERTEX
8
CUT
10
289.6159
20
42.3795
0
VERTEX
8
CUT
10
289.4593
20
43.2947
0
VERTEX
8
CUT
10
289.0430
20
44.1677
0
VERTEX
8
CUT
10
288.3339
20
44.9905
0
VERTEX
8
CUT
10
287.6111
20
45.4756
0
VERTEX
8
CUT
10
287.2788
20
45.7602
0
VERTEX
8
CUT
10
286.8144
20
46.0103
0
VERTEX
8
CUT
10
286.1992
20
46.4232
0
VERTEX
8
CUT
10
284.7877
20
46.9304
0
VERTEX
8
CUT
10
277.2515
20
48.3653
0
VERTEX
8
CUT
10
274.5777
20
49.4882
0
VERTEX
8
CUT
10
272.5917
20
51.0232
0
VERTEX
8
CUT
10
271.7857
20
52.0500
0
VERTEX
8
CUT
10
270.8052
20
53.8702
0
VERTEX
8
CUT
10
270.4074
20
55.9737
0
VERTEX
8
CUT
10
270.7304
20
58.0795
0
VERTEX
8
CUT
10
271.7218
20
59.7609
0
VERTEX
8
CUT
10
271.8190
20
59.8456
0
VERTEX
8
CUT
10
273.2533
20
60.8454
0
VERTEX
8
CUT
10
274.5620
20
61.1721
0
VERTEX
8
CUT
10
276.4313
20
61.1075
0
VERTEX
8
CUT
10
277.5519
20
60.6910
0
VERTEX
8
CUT
10
281.9555
20
57.2542
0
VERTEX
8
CUT
10
282.7498
20
56.8304
0
VERTEX
8
CUT
10
284.1197
20
56.7240
0
VERTEX
8
CUT
10
284.3871
20
56.8148
0
VERTEX
8
CUT
10
284.4246
20
56.8096
0
VERTEX
8
CUT
10
284.5474
20
56.8692
0
VERTEX
8
CUT
10
285.4288
20
57.1684
0
VERTEX
8
CUT
10
286.2150
20
57.8507
0
VERTEX
8
CUT
10
286.5339
20
58.4336
0
VERTEX
8
CUT
10
286.5275
20
58.6928
0
VERTEX
8
CUT
10
286.5483
20
58.7513
0
VERTEX
8
CUT
10
286.5499
20
59.6253
0
VERTEX
8
CUT
10
286.5004
20
59.7836
0
VERTEX
8
CUT
10
286.4840
20
60.4424
0
VERTEX
8
CUT
10
286.0088
20
61.2182
0
VERTEX
8
CUT
10
284.9728
20
62.3725
0
VERTEX
8
CUT
10
284.9204
20
62.4475
0
VERTEX
8
CUT
10
284.8440
20
62.5161
0
VERTEX
8
CUT
10
282.2510
20
65.4054
0
VERTEX
8
CUT
10
281.8359
20
66.4872
0
VERTEX
8
CUT
10
281.9717
20
67.8962
0
VERTEX
8
CUT
10
282.5390
20
68.7208
0
VERTEX
8
CUT
10
283.9112
20
69.2896
0
VERTEX
8
CUT
10
285.7264
20
69.2318
0
VERTEX
8
CUT
10
287.6871
20
68.8440
0
VERTEX
8
CUT
10
289.0850
20
69.1415
0
VERTEX
8
CUT
10
290.0983
20
69.9114
0
VERTEX
8
CUT
10
290.5219
20
71.2024
0
VERTEX
8
CUT
10
290.5063
20
71.4251
0
VERTEX
8
CUT
10
290.5183
20
71.4585
0
VERTEX
8
CUT
10
290.4944
20
71.5948
0
VERTEX
8
CUT
10
290.4455
20
72.2939
0
VERTEX
8
CUT
10
290.2896
20
72.7614
0
VERTEX
8
CUT
10
290.2837
20
72.7949
0
VERTEX
8
CUT
10
290.2724
20
72.8130
0
VERTEX
8
CUT
10
290.0847
20
73.3758
0
VERTEX
8
CUT
10
289.4512
20
74.3443
0
VERTEX
8
CUT
10
288.5080
20
75.2286
0
VERTEX
8
CUT
10
286.2922
20
76.6187
0
VERTEX
8
CUT
10
281.4635
20
78.9314
0
VERTEX
8
CUT
10
280.6696
20
79.3417
0
VERTEX
8
CUT
10
278.6324
20
80.8292
0
VERTEX
8
CUT
10
277.6929
20
81.7100
0
VERTEX
8
CUT
10
276.4513
20
83.2616
0
VERTEX
8
CUT
10
275.6064
20
84.7401
0
VERTEX
8
CUT
10
275.1506
20
86.1256
0
VERTEX
8
CUT
10
275.1443
20
86.1554
0
VERTEX
8
CUT
10
275.1419
20
86.1667
0
VERTEX
8
CUT
10
275.1405
20
86.1731
0
VERTEX
8
CUT
10
275.1349
20
86.1995
0
VERTEX
8
CUT
10
275.0098
20
87.4067
0
VERTEX
8
CUT
10
275.1708
20
88.5184
0
VERTEX
8
CUT
10
275.6766
20
89.5304
0
VERTEX
8
CUT
10
276.5168
20
90.4909
0
VERTEX
8
CUT
10
277.5218
20
90.9462
0
VERTEX
8
CUT
10
279.2745
20
90.8548
0
VERTEX
8
CUT
10
280.3230
20
90.4490
0
VERTEX
8
CUT
10
281.3887
20
89.6451
0
VERTEX
8
CUT
10
282.7049
20
88.3434
0
VERTEX
8
CUT
10
283.7379
20
87.2401
0
VERTEX
8
CUT
10
284.1480
20
86.9161
0
VERTEX
8
CUT
10
284.2002
20
86.8645
0
VERTEX
8
CUT
10
284.3287
20
86.7734
0
VERTEX
8
CUT
10
284.4045
20
86.7135
0
VERTEX
8
CUT
10
284.4244
20
86.7055
0
VERTEX
8
CUT
10
284.7941
20
86.4434
0
VERTEX
8
CUT
10
286.1737
20
85.9375
0
VERTEX
8
CUT
10
287.2780
20
86.1900
0
VERTEX
8
CUT
10
288.6119
20
87.0805
0
VERTEX
8
CUT
10
289.0950
20
87.7780
0
VERTEX
8
CUT
10
289.5632
20
89.2853
0
VERTEX
8
CUT
10
289.4189
20
91.1046
0
VERTEX
8
CUT
10
288.3883
20
93.2787
0
VERTEX
8
CUT
10
286.0965
20
95.7740
0
VERTEX
8
CUT
10
281.3707
20
99.6832
0
VERTEX
8
CUT
10
281.3565
20
99.6980
0
VERTEX
8
CUT
10
281.3221
20
99.7340
0
VERTEX
8
CUT
10
281.2753
20
99.7828
0
VERTEX
8
CUT
10
281.1532
20
99.9105
0
VERTEX
8
CUT
10
279.9687
20
101.7902
0
VERTEX
8
CUT
10
279.8247
20
102.4129
0
VERTEX
8
CUT
10
279.7373
20
102.9637
0
VERTEX
8
CUT
10
279.7539
20
103.3795
0
VERTEX
8
CUT
10
280.0348
20
104.3852
0
VERTEX
8
CUT
10
280.0602
20
104.4760
0
VERTEX
8
CUT
10
280.0636
20
104.4884
0
VERTEX
8
CUT
10
280.0638
20
104.4890
0
VERTEX
8
CUT
10
280.0959
20
104.5724
0
VERTEX
8
CUT
10
280.6579
20
105.1605
0
VERTEX
8
CUT
10
281.4016
20
105.5363
0
VERTEX
8
CUT
10
282.4506
20
105.7124
0
VERTEX
8
CUT
10
284.1988
20
105.3076
0
VERTEX
8
CUT
10
284.9998
20
104.8210
0
VERTEX
8
CUT
10
286.7745
20
103.7196
0
VERTEX
8
CUT
10
286.8611
20
103.6902
0
VERTEX
8
CUT
10
287.1090
20
103.5395
0
VERTEX
8
CUT
10
287.3929
20
103.5095
0
VERTEX
8
CUT
10
287.8878
20
103.3414
0
VERTEX
8
CUT
10
288.2835
20
103.4154
0
VERTEX
8
CUT
10
288.5097
20
103.3914
0
VERTEX
8
CUT
10
289.2409
20
103.8053
0
VERTEX
8
CUT
10
289.5300
20
104.3416
0
VERTEX
8
CUT
10
289.6199
20
105.0685
0
VERTEX
8
CUT
10
289.5356
20
105.4311
0
VERTEX
8
CUT
10
289.5248
20
105.5468
0
VERTEX
8
CUT
10
289.4975
20
105.5950
0
VERTEX
8
CUT
10
289.3712
20
106.1390
0
VERTEX
8
CUT
10
288.5784
20
107.2740
0
VERTEX
8
CUT
10
287.0701
20
108.6376
0
VERTEX
8
CUT
10
281.8820
20
112.2290
0
VERTEX
8
CUT
10
279.0213
20
114.6999
0
VERTEX
8
CUT
10
277.4270
20
117.0116
0
VERTEX
8
CUT
10
277.0276
20
117.9752
0
VERTEX
8
CUT
10
276.7535
20
119.7292
0
VERTEX
8
CUT
10
276.7814
20
120.0623
0
VERTEX
8
CUT
10
276.8932
20
120.7652
0
VERTEX
8
CUT
10
277.4352
20
121.9852
0
VERTEX
8
CUT
10
278.6846
20
123.1240
0
VERTEX
8
CUT
10
280.0411
20
123.6375
0
VERTEX
8
CUT
10
283.9121
20
123.8185
0
VERTEX
8
CUT
10
285.4569
20
124.2251
0
VERTEX
8
CUT
10
286.4249
20
124.7563
0
VERTEX
8
CUT
10
287.3762
20
125.5697
0
VERTEX
8
CUT
10
288.0334
20
126.5241
0
VERTEX
8
CUT
10
288.3605
20
127.5619
0
VERTEX
8
CUT
10
288.3637
20
128.2190
0
VERTEX
8
CUT
10
288.3854
20
128.3702
0
VERTEX
8
CUT
10
288.3651
20
128.5079
0
VERTEX
8
CUT
10
288.3670
20
128.8899
0
VERTEX
8
CUT
10
288.1747
20
129.6315
0
VERTEX
8
CUT
10
287.3336
20
130.9839
0
VERTEX
8
CUT
10
285.8597
20
132.1304
0
VERTEX
8
CUT
10
281.5804
20
134.2154
0
VERTEX
8
CUT
10
281.3095
20
134.5236
0
VERTEX
8
CUT
10
281.1180
20
134.7851
0
VERTEX
8
CUT
10
281.0386
20
134.8934
0
VERTEX
8
CUT
10
280.9573
20
135.0044
0
VERTEX
8
CUT
10
280.8112
20
135.2038
0
VERTEX
8
CUT
10
280.4738
20
135.9605
0
VERTEX
8
CUT
10
280.3931
20
136.4967
0
VERTEX
8
CUT
10
280.3326
20
137.0512
0
VERTEX
8
CUT
10
280.5752
20
137.9094
0
VERTEX
8
CUT
10
281.0821
20
138.5801
0
VERTEX
8
CUT
10
281.8287
20
139.0900
0
VERTEX
8
CUT
10
281.9170
20
139.1449
0
VERTEX
8
CUT
10
282.9102
20
139.3670
0
VERTEX
8
CUT
10
284.0012
20
139.3078
0
VERTEX
8
CUT
10
286.2158
20
138.6349
0
VERTEX
8
CUT
10
287.7602
20
138.5266
0
VERTEX
8
CUT
10
287.9012
20
138.5633
0
VERTEX
8
CUT
10
288.0172
20
138.5506
0
VERTEX
8
CUT
10
288.1014
20
138.6154
0
VERTEX
8
CUT
10
288.4770
20
138.7132
0
VERTEX
8
CUT
10
289.5193
20
139.3881
0
VERTEX
8
CUT
10
290.2089
20
140.7189
0
VERTEX
8
CUT
10
290.3160
20
142.3462
0
VERTEX
8
CUT
10
289.6958
20
143.9772
0
VERTEX
8
CUT
10
288.3586
20
145.4777
0
VERTEX
8
CUT
10
284.2901
20
148.3169
0
VERTEX
8
CUT
10
283.5437
20
149.2878
0
VERTEX
8
CUT
10
283.1893
20
150.4634
0
VERTEX
8
CUT
10
283.3126
20
152.2766
0
VERTEX
8
CUT
10
283.8490
20
153.3044
0
VERTEX
8
CUT
10
283.8991
20
153.3941
0
VERTEX
8
CUT
10
284.9408
20
154.3727
0
VERTEX
8
CUT
10
286.8417
20
155.6051
0
VERTEX
8
CUT
10
287.0323
20
155.7068
0
VERTEX
8
CUT
10
287.1704
20
155.8182
0
VERTEX
8
CUT
10
288.1656
20
156.4634
0
VERTEX
8
CUT
10
288.7529
20
157.4832
0
VERTEX
8
CUT
10
289.1430
20
158.0117
0
VERTEX
8
CUT
10
289.2888
20
158.4138
0
VERTEX
8
CUT
10
289.9482
20
159.5589
0
VERTEX
8
CUT
10
289.8599
20
163.3674
0
VERTEX
8
CUT
10
289.8061
20
169.4662
0
VERTEX
8
CUT
10
289.6687
20
171.6212
0
VERTEX
8
CUT
10
289.6266
20
173.4368
0
VERTEX
8
CUT
10
289.1751
20
174.4728
0
VERTEX
8
CUT
10
287.5782
20
175.9850
0
VERTEX
8
CUT
10
286.6512
20
176.3650
0
VERTEX
8
CUT
10
285.6643
20
176.5073
0
VERTEX
8
CUT
10
285.1388
20
176.3974
0
VERTEX
8
CUT
10
284.9270
20
176.3914
0
VERTEX
8
CUT
10
284.6202
20
176.2889
0
VERTEX
8
CUT
10
283.3859
20
176.0307
0
VERTEX
8
CUT
10
282.0981
20
175.4133
0
VERTEX
8
CUT
10
279.0628
20
173.3498
0
VERTEX
8
CUT
10
276.5407
20
170.9164
0
VERTEX
8
CUT
10
275.2057
20
168.7556
0
VERTEX
8
CUT
10
275.0163
20
167.8418
0
VERTEX
8
CUT
10
275.0728
20
167.5225
0
VERTEX
8
CUT
10
275.0360
20
167.3094
0
VERTEX
8
CUT
10
275.1344
20
167.1737
0
VERTEX
8
CUT
10
275.1687
20
166.9795
0
VERTEX
8
CUT
10
275.6967
20
166.2570
0
VERTEX
8
CUT
10
276.2771
20
166.0182
0
VERTEX
8
CUT
10
280.1731
20
166.1647
0
VERTEX
8
CUT
10
281.1858
20
165.8471
0
VERTEX
8
CUT
10
282.1799
20
164.7324
0
VERTEX
8
CUT
10
282.4888
20
163.9034
0
VERTEX
8
CUT
10
282.2911
20
162.0061
0
VERTEX
8
CUT
10
281.2013
20
160.1516
0
VERTEX
8
CUT
10
279.3957
20
158.3762
0
VERTEX
8
CUT
10
274.4809
20
155.1451
0
VERTEX
8
CUT
10
272.8593
20
154.1047
0
VERTEX
8
CUT
10
272.5450
20
153.8724
0
VERTEX
8
CUT
10
270.9741
20
152.8396
0
VERTEX
8
CUT
10
269.6672
20
151.6833
0
VERTEX
8
CUT
10
268.6539
20
150.3461
0
VERTEX
8
CUT
10
268.3128
20
149.9540
0
VERTEX
8
CUT
10
268.2267
20
149.7824
0
VERTEX
8
CUT
10
268.1165
20
149.6370
0
VERTEX
8
CUT
10
268.0557
20
149.4416
0
VERTEX
8
CUT
10
267.9013
20
149.1341
0
VERTEX
8
CUT
10
267.8209
20
148.5269
0
VERTEX
8
CUT
10
267.9129
20
148.3462
0
VERTEX
8
CUT
10
267.9372
20
148.1206
0
VERTEX
8
CUT
10
268.3583
20
147.4337
0
VERTEX
8
CUT
10
268.9911
20
147.0006
0
VERTEX
8
CUT
10
269.9727
20
147.0865
0
VERTEX
8
CUT
10
273.6224
20
148.0575
0
VERTEX
8
CUT
10
274.3390
20
148.0578
0
VERTEX
8
CUT
10
274.6649
20
148.0404
0
VERTEX
8
CUT
10
275.6435
20
147.7400
0
VERTEX
8
CUT
10
275.9409
20
147.6096
0
VERTEX
8
CUT
10
276.0149
20
147.5528
0
VERTEX
8
CUT
10
276.0347
20
147.5376
0
VERTEX
8
CUT
10
276.0682
20
147.5118
0
VERTEX
8
CUT
10
276.1208
20
147.4715
0
VERTEX
8
CUT
10
277.0952
20
146.4190
0
VERTEX
8
CUT
10
277.3204
20
145.8101
0
VERTEX
8
CUT
10
277.3534
20
143.8451
0
VERTEX
8
CUT
10
277.1008
20
142.8785
0
VERTEX
8
CUT
10
276.6816
20
141.9215
0
VERTEX
8
CUT
10
275.2409
20
140.0262
0
VERTEX
8
CUT
10
272.9714
20
137.9024
0
VERTEX
8
CUT
10
272.7078
20
137.6761
0
VERTEX
8
CUT
10
268.5579
20
134.2462
0
VERTEX
8
CUT
10
267.1792
20
132.6352
0
VERTEX
8
CUT
10
267.0538
20
132.0377
0
VERTEX
8
CUT
10
267.0121
20
131.9613
0
VERTEX
8
CUT
10
267.0079
20
131.8188
0
VERTEX
8
CUT
10
266.9245
20
131.4214
0
VERTEX
8
CUT
10
266.9912
20
131.2543
0
VERTEX
8
CUT
10
266.9847
20
131.0352
0
VERTEX
8
CUT
10
267.1936
20
130.7467
0
VERTEX
8
CUT
10
267.3186
20
130.4334
0
VERTEX
8
CUT
10
268.2787
20
129.8682
0
VERTEX
8
CUT
10
270.3587
20
129.4903
0
VERTEX
8
CUT
10
271.4398
20
128.4779
0
VERTEX
8
CUT
10
271.5671
20
127.5987
0
VERTEX
8
CUT
10
270.7632
20
126.0511
0
VERTEX
8
CUT
10
268.8860
20
124.4789
0
VERTEX
8
CUT
10
261.8351
20
120.5789
0
VERTEX
8
CUT
10
259.3135
20
118.8017
0
VERTEX
8
CUT
10
257.7240
20
117.0563
0
VERTEX
8
CUT
10
256.9354
20
115.3048
0
VERTEX
8
CUT
10
256.8192
20
114.2311
0
VERTEX
8
CUT
10
257.0672
20
113.1492
0
VERTEX
8
CUT
10
257.6463
20
112.1268
0
VERTEX
8
CUT
10
258.4861
20
111.2282
0
VERTEX
8
CUT
10
258.7663
20
111.0306
0
VERTEX
8
CUT
10
258.7806
20
111.0159
0
VERTEX
8
CUT
10
258.8017
20
111.0057
0
VERTEX
8
CUT
10
259.5366
20
110.4875
0
VERTEX
8
CUT
10
260.8849
20
109.8533
0
VERTEX
8
CUT
10
262.3233
20
109.4716
0
VERTEX
8
CUT
10
265.3843
20
109.2485
0
VERTEX
8
CUT
10
265.8991
20
109.1694
0
VERTEX
8
CUT
10
267.0964
20
108.8667
0
VERTEX
8
CUT
10
267.5733
20
108.6938
0
VERTEX
8
CUT
10
267.7379
20
108.6341
0
VERTEX
8
CUT
10
267.7968
20
108.6127
0
VERTEX
8
CUT
10
267.8864
20
108.5802
0
VERTEX
8
CUT
10
268.6023
20
108.1418
0
VERTEX
8
CUT
10
269.3542
20
107.3249
0
VERTEX
8
CUT
10
269.7323
20
106.6401
0
VERTEX
8
CUT
10
269.7539
20
106.3151
0
VERTEX
8
CUT
10
269.7656
20
106.1395
0
VERTEX
8
CUT
10
269.7728
20
106.0320
0
VERTEX
8
CUT
10
269.7927
20
105.7324
0
VERTEX
8
CUT
10
269.4885
20
105.0419
0
VERTEX
8
CUT
10
268.6698
20
104.0720
0
VERTEX
8
CUT
10
267.2233
20
103.1911
0
VERTEX
8
CUT
10
263.6493
20
102.8277
0
VERTEX
8
CUT
10
257.5739
20
103.1584
0
VERTEX
8
CUT
10
255.9020
20
103.0730
0
VERTEX
8
CUT
10
254.8055
20
102.6227
0
VERTEX
8
CUT
10
254.5156
20
102.5507
0
VERTEX
8
CUT
10
254.1354
20
102.3476
0
VERTEX
8
CUT
10
253.7746
20
102.1994
0
VERTEX
8
CUT
10
253.7004
20
102.1152
0
VERTEX
8
CUT
10
253.4383
20
101.9752
0
VERTEX
8
CUT
10
253.0941
20
101.4265
0
VERTEX
8
CUT
10
252.9493
20
101.2620
0
VERTEX
8
CUT
10
252.9443
20
101.1878
0
VERTEX
8
CUT
10
252.8596
20
101.0528
0
VERTEX
8
CUT
10
252.9193
20
100.8140
0
VERTEX
8
CUT
10
252.9092
20
100.6625
0
VERTEX
8
CUT
10
252.9901
20
100.5309
0
VERTEX
8
CUT
10
253.0696
20
100.2127
0
VERTEX
8
CUT
10
253.3876
20
99.8846
0
VERTEX
8
CUT
10
253.5415
20
99.6343
0
VERTEX
8
CUT
10
256.7845
20
97.3169
0
VERTEX
8
CUT
10
257.6738
20
96.2138
0
VERTEX
8
CUT
10
258.0914
20
95.3582
0
VERTEX
8
CUT
10
258.0872
20
95.2175
0
VERTEX
8
CUT
10
258.0844
20
95.1243
0
VERTEX
8
CUT
10
258.0799
20
94.9748
0
VERTEX
8
CUT
10
258.0655
20
94.4966
0
VERTEX
8
CUT
10
257.2909
20
93.1436
0
VERTEX
8
CUT
10
256.2931
20
92.2061
0
VERTEX
8
CUT
10
255.6229
20
91.8472
0
VERTEX
8
CUT
10
253.3090
20
91.1933
0
VERTEX
8
CUT
10
250.7556
20
91.0118
0
VERTEX
8
CUT
10
249.5857
20
90.5331
0
VERTEX
8
CUT
10
249.3636
20
90.2504
0
VERTEX
8
CUT
10
249.2167
20
90.1723
0
VERTEX
8
CUT
10
248.9958
20
89.7821
0
VERTEX
8
CUT
10
248.6945
20
89.3985
0
VERTEX
8
CUT
10
248.6881
20
89.2385
0
VERTEX
8
CUT
10
248.6554
20
89.1807
0
VERTEX
8
CUT
10
248.6802
20
89.0396
0
VERTEX
8
CUT
10
248.6366
20
87.9470
0
VERTEX
8
CUT
10
249.4813
20
86.8456
0
VERTEX
8
CUT
10
249.8889
20
86.4890
0
VERTEX
8
CUT
10
250.0923
20
86.2365
0
VERTEX
8
CUT
10
250.3766
20
86.0625
0
VERTEX
8
CUT
10
251.1685
20
85.3698
0
VERTEX
8
CUT
10
252.5241
20
84.6779
0
VERTEX
8
CUT
10
256.6162
20
83.1433
0
VERTEX
8
CUT
10
258.1985
20
82.1040
0
VERTEX
8
CUT
10
258.2874
20
82.0303
0
VERTEX
8
CUT
10
258.7294
20
81.4575
0
VERTEX
8
CUT
10
258.9026
20
81.1650
0
VERTEX
8
CUT
10
258.9190
20
81.1375
0
VERTEX
8
CUT
10
258.9402
20
81.1016
0
VERTEX
8
CUT
10
258.9456
20
81.0926
0
VERTEX
8
CUT
10
259.2960
20
80.1904
0
VERTEX
8
CUT
10
259.2455
20
78.7632
0
VERTEX
8
CUT
10
258.3337
20
77.5334
0
VERTEX
8
CUT
10
256.6116
20
76.7824
0
VERTEX
8
CUT
10
255.0601
20
76.7555
0
VERTEX
8
CUT
10
250.5385
20
77.7496
0
VERTEX
8
CUT
10
248.9603
20
77.7426
0
VERTEX
8
CUT
10
248.2188
20
77.3940
0
VERTEX
8
CUT
10
247.5549
20
76.6985
0
VERTEX
8
CUT
10
247.1927
20
76.0026
0
VERTEX
8
CUT
10
247.1836
20
75.1990
0
VERTEX
8
CUT
10
247.4821
20
74.4569
0
VERTEX
8
CUT
10
247.5145
20
74.2536
0
VERTEX
8
CUT
10
248.0074
20
73.0633
0
VERTEX
8
CUT
10
248.0936
20
72.9365
0
VERTEX
8
CUT
10
248.2015
20
72.6681
0
VERTEX
8
CUT
10
249.1102
20
71.3645
0
VERTEX
8
CUT
10
250.0036
20
70.4604
0
VERTEX
8
CUT
10
250.0932
20
70.3552
0
VERTEX
8
CUT
10
250.1911
20
70.2707
0
VERTEX
8
CUT
10
251.4480
20
68.9987
0
VERTEX
8
CUT
10
254.9787
20
65.8594
0
VERTEX
8
CUT
10
256.5831
20
64.0438
0
VERTEX
8
CUT
10
257.1104
20
62.8589
0
VERTEX
8
CUT
10
257.2253
20
61.0257
0
VERTEX
8
CUT
10
256.9077
20
60.0228
0
VERTEX
8
CUT
10
256.2362
20
59.3438
0
VERTEX
8
CUT
10
255.1880
20
59.0103
0
VERTEX
8
CUT
10
254.1433
20
58.9777
0
VERTEX
8
CUT
10
252.7073
20
59.3968
0
VERTEX
8
CUT
10
248.3875
20
61.9140
0
VERTEX
8
CUT
10
247.5612
20
62.1926
0
VERTEX
8
CUT
10
247.1773
20
62.1670
0
VERTEX
8
CUT
10
246.9275
20
62.1658
0
VERTEX
8
CUT
10
246.8781
20
62.1470
0
VERTEX
8
CUT
10
246.4943
20
62.1213
0
VERTEX
8
CUT
10
246.2638
20
61.9132
0
VERTEX
8
CUT
10
246.2430
20
61.9053
0
VERTEX
8
CUT
10
245.6943
20
61.4820
0
VERTEX
8
CUT
10
245.5937
20
61.3080
0
VERTEX
8
CUT
10
245.5032
20
61.2262
0
VERTEX
8
CUT
10
245.4786
20
61.1090
0
VERTEX
8
CUT
10
245.3870
20
60.9506
0
VERTEX
8
CUT
10
245.3871
20
60.6712
0
VERTEX
8
CUT
10
245.2667
20
60.0957
0
VERTEX
8
CUT
10
245.6957
20
58.3443
0
VERTEX
8
CUT
10
250.1213
20
49.5178
0
VERTEX
8
CUT
10
250.9976
20
46.9504
0
VERTEX
8
CUT
10
251.1780
20
45.0777
0
VERTEX
8
CUT
10
250.8483
20
44.2701
0
VERTEX
8
CUT
10
249.9381
20
43.2520
0
VERTEX
8
CUT
10
249.3530
20
42.8364
0
VERTEX
8
CUT
10
248.7592
20
42.9031
0
VERTEX
8
CUT
10
246.7479
20
43.9507
0
VERTEX
8
CUT
10
246.4563
20
43.9404
0
VERTEX
8
CUT
10
246.2413
20
43.6951
0
VERTEX
8
CUT
10
246.6764
20
34.5619
0
VERTEX
8
CUT
10
246.4357
20
28.9821
0
VERTEX
8
CUT
10
245.7663
20
25.5663
0
VERTEX
8
CUT
10
244.3676
20
22.4897
0
VERTEX
8
CUT
10
242.4159
20
20.0435
0
VERTEX
8
CUT
10
240.6377
20
18.7305
0
VERTEX
8
CUT
10
237.6454
20
17.7807
0
VERTEX
8
CUT
10
235.2415
20
17.6252
0
VERTEX
8
CUT
10
232.5556
20
17.9906
0
VERTEX
8
CUT
10
229.6794
20
18.9100
0
VERTEX
8
CUT
10
226.5707
20
20.3009
0
VERTEX
8
CUT
10
226.5622
20
20.3052
0
VERTEX
8
CUT
10
226.5600
20
20.3063
0
VERTEX
8
CUT
10
226.5596
20
20.3065
0
VERTEX
8
CUT
10
226.5559
20
20.3084
0
VERTEX
8
CUT
10
223.2696
20
22.2204
0
VERTEX
8
CUT
10
219.6863
20
24.6797
0
VERTEX
8
CUT
10
215.8754
20
27.6504
0
VERTEX
8
CUT
10
209.4297
20
33.0951
0
VERTEX
8
CUT
10
208.9687
20
33.0096
0
VERTEX
8
CUT
10
208.6828
20
32.1785
0
VERTEX
8
CUT
10
207.9773
20
31.4403
0
VERTEX
8
CUT
10
206.9825
20
31.3766
0
VERTEX
8
CUT
10
205.7729
20
31.9796
0
VERTEX
8
CUT
10
204.7999
20
32.7988
0
VERTEX
8
CUT
10
202.8433
20
34.9669
0
VERTEX
8
CUT
10
196.2948
20
42.9704
0
VERTEX
8
CUT
10
196.1693
20
43.4706
0
VERTEX
8
CUT
10
197.2719
20
44.2146
0
VERTEX
8
CUT
10
197.0659
20
44.7315
0
VERTEX
8
CUT
10
196.2738
20
44.7272
0
VERTEX
8
CUT
10
195.1501
20
44.1217
0
VERTEX
8
CUT
10
193.6799
20
44.1440
0
VERTEX
8
CUT
10
193.6733
20
44.1475
0
VERTEX
8
CUT
10
192.8438
20
44.1994
0
VERTEX
8
CUT
10
192.7729
20
44.1578
0
VERTEX
8
CUT
10
192.6647
20
44.1595
0
VERTEX
8
CUT
10
192.3520
20
43.9109
0
VERTEX
8
CUT
10
192.2331
20
43.8412
0
VERTEX
8
CUT
10
192.1719
20
43.7678
0
VERTEX
8
CUT
10
191.6956
20
43.3892
0
VERTEX
8
CUT
10
191.4306
20
42.5312
0
VERTEX
8
CUT
10
191.4480
20
42.3545
0
VERTEX
8
CUT
10
191.4051
20
42.2129
0
VERTEX
8
CUT
10
191.4976
20
41.8495
0
VERTEX
8
CUT
10
191.5461
20
41.3562
0
VERTEX
8
CUT
10
191.7918
20
40.6944
0
VERTEX
8
CUT
10
191.8327
20
40.5336
0
VERTEX
8
CUT
10
192.1252
20
39.7962
0
VERTEX
8
CUT
10
193.3379
20
36.5295
0
VERTEX
8
CUT
10
193.4330
20
35.6034
0
VERTEX
8
CUT
10
193.4158
20
35.4245
0
VERTEX
8
CUT
10
193.3193
20
35.0432
0
VERTEX
8
CUT
10
192.5160
20
33.9359
0
VERTEX
8
CUT
10
191.8119
20
33.5109
0
VERTEX
8
CUT
10
190.9748
20
33.5134
0
VERTEX
8
CUT
10
189.9590
20
33.8695
0
VERTEX
8
CUT
10
188.7352
20
34.6456
0
VERTEX
8
CUT
10
186.8434
20
36.7410
0
VERTEX
8
CUT
10
185.6698
20
38.7187
0
VERTEX
8
CUT
10
183.1752
20
44.5472
0
VERTEX
8
CUT
10
181.9391
20
46.5097
0
VERTEX
8
CUT
10
181.0173
20
47.2583
0
VERTEX
8
CUT
10
180.1404
20
47.6369
0
VERTEX
8
CUT
10
180.0426
20
47.6955
0
VERTEX
8
CUT
10
180.0019
20
47.6966
0
VERTEX
8
CUT
10
179.7390
20
47.8102
0
VERTEX
8
CUT
10
179.4994
20
47.7107
0
VERTEX
8
CUT
10
179.4845
20
47.7111
0
VERTEX
8
CUT
10
179.4379
20
47.6851
0
VERTEX
8
CUT
10
178.8851
20
47.4556
0
VERTEX
8
CUT
10
178.5580
20
46.8311
0
VERTEX
8
CUT
10
178.6190
20
45.5913
0
VERTEX
8
CUT
10
178.6190
20
45.3565
0
VERTEX
8
CUT
10
178.6190
20
45.0068
0
VERTEX
8
CUT
10
178.6190
20
44.8829
0
VERTEX
8
CUT
10
178.6191
20
44.2472
0
VERTEX
8
CUT
10
178.5298
20
43.9594
0
VERTEX
8
CUT
10
177.7305
20
43.2029
0
VERTEX
8
CUT
10
177.1643
20
43.0393
0
VERTEX
8
CUT
10
176.5763
20
43.1359
0
VERTEX
8
CUT
10
175.3541
20
44.0490
0
VERTEX
8
CUT
10
174.6705
20
44.8823
0
VERTEX
8
CUT
10
172.1480
20
48.8566
0
VERTEX
8
CUT
10
170.2072
20
51.2980
0
VERTEX
8
CUT
10
168.1482
20
53.0691
0
VERTEX
8
CUT
10
167.0881
20
53.6630
0
VERTEX
8
CUT
10
164.5859
20
54.4010
0
VERTEX
8
CUT
10
163.4101
20
54.2065
0
VERTEX
8
CUT
10
163.0031
20
53.6344
0
VERTEX
8
CUT
10
163.7267
20
51.5115
0
VERTEX
8
CUT
10
163.5627
20
50.2677
0
VERTEX
8
CUT
10
162.8362
20
49.3792
0
VERTEX
8
CUT
10
161.3118
20
49.0831
0
VERTEX
8
CUT
10
160.7692
20
49.2849
0
VERTEX
8
CUT
10
160.5361
20
49.4277
0
VERTEX
8
CUT
10
160.4641
20
49.4719
0
VERTEX
8
CUT
10
160.4269
20
49.4946
0
VERTEX
8
CUT
10
160.3613
20
49.5349
0
VERTEX
8
CUT
10
159.7387
20
50.0397
0
VERTEX
8
CUT
10
155.5763
20
54.1674
0
VERTEX
8
CUT
10
155.4851
20
54.2261
0
VERTEX
8
CUT
10
155.3141
20
54.4059
0
VERTEX
8
CUT
10
154.7383
20
54.7075
0
VERTEX
8
CUT
10
154.3079
20
54.9849
0
VERTEX
8
CUT
10
154.1538
20
55.0136
0
VERTEX
8
CUT
10
154.1447
20
55.0184
0
VERTEX
8
CUT
10
154.1360
20
55.0170
0
VERTEX
8
CUT
10
153.7659
20
55.0859
0
VERTEX
8
CUT
10
152.6546
20
54.6368
0
VERTEX
8
CUT
10
150.8273
20
53.3021
0
VERTEX
8
CUT
10
150.8040
20
53.2936
0
VERTEX
8
CUT
10
150.8034
20
53.2934
0
VERTEX
8
CUT
10
150.7723
20
53.2821
0
VERTEX
8
CUT
10
150.6701
20
53.2448
0
VERTEX
8
CUT
10
149.8680
20
52.9744
0
VERTEX
8
CUT
10
148.6111
20
53.4454
0
VERTEX
8
CUT
10
146.4104
20
54.9808
0
VERTEX
8
CUT
10
145.6467
20
54.9257
0
VERTEX
8
CUT
10
145.3072
20
54.9452
0
VERTEX
8
CUT
10
144.0316
20
54.1394
0
VERTEX
8
CUT
10
140.7286
20
50.5145
0
VERTEX
8
CUT
10
140.6994
20
50.4852
0
VERTEX
8
CUT
10
140.6926
20
50.4784
0
VERTEX
8
CUT
10
140.6641
20
50.4496
0
VERTEX
8
CUT
10
140.6502
20
50.4356
0
VERTEX
8
CUT
10
139.1875
20
49.3609
0
VERTEX
8
CUT
10
138.4062
20
49.0827
0
VERTEX
8
CUT
10
137.0979
20
49.2319
0
VERTEX
8
CUT
10
136.3406
20
49.8283
0
VERTEX
8
CUT
10
136.1285
20
50.2170
0
VERTEX
8
CUT
10
136.0684
20
51.4212
0
VERTEX
8
CUT
10
136.6905
20
53.5543
0
VERTEX
8
CUT
10
136.4999
20
54.1804
0
VERTEX
8
CUT
10
135.2873
20
54.4637
0
VERTEX
8
CUT
10
133.2270
20
53.9703
0
VERTEX
8
CUT
10
131.0393
20
52.6022
0
VERTEX
8
CUT
10
129.9108
20
51.5663
0
VERTEX
8
CUT
10
129.6847
20
51.2892
0
VERTEX
8
CUT
10
129.4970
20
51.1225
0
VERTEX
8
CUT
10
128.9687
20
50.4117
0
VERTEX
8
CUT
10
127.8213
20
49.0055
0
VERTEX
8
CUT
10
124.5906
20
44.2665
0
VERTEX
8
CUT
10
123.3452
20
43.2309
0
VERTEX
8
CUT
10
123.1930
20
43.1853
0
VERTEX
8
CUT
10
122.8401
20
43.1420
0
VERTEX
8
CUT
10
122.6777
20
43.1220
0
VERTEX
8
CUT
10
122.5679
20
43.1085
0
VERTEX
8
CUT
10
122.3850
20
43.0861
0
VERTEX
8
CUT
10
122.2547
20
43.1039
0
VERTEX
8
CUT
10
121.7307
20
43.4949
0
VERTEX
8
CUT
10
121.4284
20
43.8043
0
VERTEX
8
CUT
10
121.0899
20
46.2270
0
VERTEX
8
CUT
10
121.1159
20
46.8444
0
VERTEX
8
CUT
10
120.9738
20
47.0579
0
VERTEX
8
CUT
10
120.9119
20
47.5014
0
VERTEX
8
CUT
10
120.3201
20
47.8198
0
VERTEX
8
CUT
10
119.9673
20
47.7379
0
VERTEX
8
CUT
10
119.8588
20
47.7622
0
VERTEX
8
CUT
10
119.7180
20
47.6800
0
VERTEX
8
CUT
10
119.1631
20
47.5511
0
VERTEX
8
CUT
10
118.6034
20
47.0289
0
VERTEX
8
CUT
10
118.4650
20
46.9481
0
VERTEX
8
CUT
10
118.0770
20
46.5378
0
VERTEX
8
CUT
10
117.6835
20
46.1706
0
VERTEX
8
CUT
10
117.5401
20
45.9700
0
VERTEX
8
CUT
10
117.5333
20
45.9628
0
VERTEX
8
CUT
10
117.5206
20
45.9428
0
VERTEX
8
CUT
10
116.9185
20
45.1004
0
VERTEX
8
CUT
10
116.7538
20
44.7292
0
VERTEX
8
CUT
10
116.6604
20
44.5814
0
VERTEX
8
CUT
10
116.3726
20
43.8703
0
VERTEX
8
CUT
10
114.2983
20
39.1957
0
VERTEX
8
CUT
10
112.9424
20
36.7536
0
VERTEX
8
CUT
10
111.0858
20
34.6527
0
VERTEX
8
CUT
10
109.8847
20
33.8359
0
VERTEX
8
CUT
10
108.9607
20
33.5057
0
VERTEX
8
CUT
10
108.2446
20
33.4511
0
VERTEX
8
CUT
10
107.4293
20
33.8117
0
VERTEX
8
CUT
10
106.7921
20
34.4883
0
VERTEX
8
CUT
10
106.4981
20
35.4988
0
VERTEX
8
CUT
10
106.8335
20
37.5833
0
VERTEX
8
CUT
10
108.2790
20
41.2304
0
VERTEX
8
CUT
10
108.5162
20
42.6171
0
VERTEX
8
CUT
10
108.1403
20
43.2916
0
VERTEX
8
CUT
10
107.8520
20
43.5167
0
VERTEX
8
CUT
10
107.4166
20
43.9693
0
VERTEX
8
CUT
10
107.1978
20
44.0276
0
VERTEX
8
CUT
10
107.1509
20
44.0642
0
VERTEX
8
CUT
10
106.5034
20
44.2338
0
VERTEX
8
CUT
10
105.3033
20
43.9431
0
VERTEX
8
CUT
10
104.4922
20
43.4502
0
VERTEX
8
CUT
10
102.6417
20
41.7426
0
VERTEX
8
CUT
10
95.9467
20
33.8458
0
VERTEX
8
CUT
10
93.6071
20
31.6871
0
VERTEX
8
CUT
10
92.4563
20
31.3413
0
VERTEX
8
CUT
10
91.9370
20
31.5110
0
VERTEX
8
CUT
10
91.3335
20
32.1708
0
VERTEX
8
CUT
10
91.0061
20
33.0159
0
VERTEX
8
CUT
10
90.5196
20
33.1159
0
VERTEX
8
CUT
10
79.9633
20
24.6048
0
VERTEX
8
CUT
10
79.2171
20
24.0855
0
VERTEX
8
CUT
10
75.3368
20
21.4807
0
VERTEX
8
CUT
10
73.2328
20
20.3213
0
VERTEX
8
CUT
10
69.4985
20
18.6645
0
VERTEX
8
CUT
10
66.0426
20
17.7743
0
VERTEX
8
CUT
10
63.2874
20
17.6736
0
VERTEX
8
CUT
10
63.1404
20
17.6703
0
VERTEX
8
CUT
10
63.1073
20
17.6695
0
VERTEX
8
CUT
10
63.0536
20
17.6683
0
VERTEX
8
CUT
10
62.9335
20
17.6656
0
VERTEX
8
CUT
10
60.2951
20
18.2666
0
VERTEX
8
CUT
10
57.9551
20
19.5570
0
VERTEX
8
CUT
10
56.0215
20
21.6213
0
VERTEX
8
CUT
10
54.6033
20
24.2497
0
VERTEX
8
CUT
10
53.5952
20
27.5872
0
VERTEX
8
CUT
10
53.0564
20
31.4788
0
VERTEX
8
CUT
10
53.0228
20
33.9825
0
VERTEX
8
CUT
10
53.2334
20
38.8640
0
VERTEX
8
CUT
10
53.7294
20
43.7949
0
VERTEX
8
CUT
10
53.2512
20
44.0270
0
VERTEX
8
CUT
10
51.7868
20
43.1394
0
VERTEX
8
CUT
10
51.7052
20
43.1034
0
VERTEX
8
CUT
10
50.5470
20
42.8915
0
VERTEX
8
CUT
10
49.2745
20
43.7812
0
VERTEX
8
CUT
10
48.7518
20
44.9275
0
VERTEX
8
CUT
10
48.8455
20
46.9230
0
VERTEX
8
CUT
10
49.1573
20
48.1957
0
VERTEX
8
CUT
10
53.9345
20
57.9593
0
VERTEX
8
CUT
10
54.4359
20
59.6664
0
VERTEX
8
CUT
10
54.3989
20
60.8947
0
VERTEX
8
CUT
10
54.1527
20
61.2160
0
VERTEX
8
CUT
10
54.1487
20
61.2350
0
VERTEX
8
CUT
10
54.1133
20
61.2674
0
VERTEX
8
CUT
10
53.5385
20
62.0173
0
VERTEX
8
CUT
10
53.1264
20
62.2121
0
VERTEX
8
CUT
10
52.3234
20
62.2216
0
VERTEX
8
CUT
10
51.1115
20
61.7544
0
VERTEX
8
CUT
10
48.3295
20
59.9900
0
VERTEX
8
CUT
10
46.9488
20
59.3296
0
VERTEX
8
CUT
10
44.5528
20
59.0078
0
VERTEX
8
CUT
10
43.9488
20
59.1897
0
VERTEX
8
CUT
10
43.2445
20
59.7370
0
VERTEX
8
CUT
10
42.6700
20
60.5060
0
VERTEX
8
CUT
10
42.4080
20
61.3590
0
VERTEX
8
CUT
10
42.4740
20
62.3094
0
VERTEX
8
CUT
10
42.8495
20
63.3105
0
VERTEX
8
CUT
10
44.1247
20
65.0719
0
VERTEX
8
CUT
10
44.5693
20
65.5091
0
VERTEX
8
CUT
10
44.7056
20
65.6431
0
VERTEX
8
CUT
10
45.2128
20
66.1416
0
VERTEX
8
CUT
10
45.9550
20
66.8713
0
VERTEX
8
CUT
10
49.5117
20
70.0491
0
VERTEX
8
CUT
10
51.6812
20
72.6246
0
VERTEX
8
CUT
10
52.3971
20
74.2234
0
VERTEX
8
CUT
10
52.4342
20
74.6723
0
VERTEX
8
CUT
10
52.4792
20
74.7813
0
VERTEX
8
CUT
10
52.4663
20
75.0599
0
VERTEX
8
CUT
10
52.5559
20
76.1438
0
VERTEX
8
CUT
10
51.8157
20
77.0249
0
VERTEX
8
CUT
10
51.7679
20
77.0991
0
VERTEX
8
CUT
10
51.7460
20
77.1079
0
VERTEX
8
CUT
10
51.4788
20
77.4259
0
VERTEX
8
CUT
10
50.2656
20
77.8935
0
VERTEX
8
CUT
10
49.1181
20
77.7776
0
VERTEX
8
CUT
10
45.6971
20
76.9028
0
VERTEX
8
CUT
10
43.3817
20
76.7523
0
VERTEX
8
CUT
10
42.4470
20
76.9196
0
VERTEX
8
CUT
10
41.2286
20
77.6808
0
VERTEX
8
CUT
10
41.0975
20
77.8296
0
VERTEX
8
CUT
10
41.0916
20
77.8378
0
VERTEX
8
CUT
10
41.0897
20
77.8404
0
VERTEX
8
CUT
10
41.0895
20
77.8407
0
VERTEX
8
CUT
10
41.0784
20
77.8562
0
VERTEX
8
CUT
10
40.4238
20
79.4298
0
VERTEX
8
CUT
10
40.4758
20
80.0991
0
VERTEX
8
CUT
10
40.6266
20
80.5319
0
VERTEX
8
CUT
10
40.6380
20
80.5648
0
VERTEX
8
CUT
10
40.6392
20
80.5683
0
VERTEX
8
CUT
10
40.6768
20
80.6763
0
VERTEX
8
CUT
10
40.8418
20
81.0383
0
VERTEX
8
CUT
10
42.1817
20
82.4382
0
VERTEX
8
CUT
10
44.1591
20
83.5432
0
VERTEX
8
CUT
10
44.2488
20
83.5810
0
VERTEX
8
CUT
10
44.2623
20
83.5867
0
VERTEX
8
CUT
10
44.3347
20
83.6172
0
VERTEX
8
CUT
10
44.3843
20
83.6381
0
VERTEX
8
CUT
10
47.3649
20
84.7152
0
VERTEX
8
CUT
10
48.8162
20
85.5005
0
VERTEX
8
CUT
10
49.9908
20
86.4109
0
VERTEX
8
CUT
10
50.8558
20
87.3866
0
VERTEX
8
CUT
10
51.2742
20
88.2664
0
VERTEX
8
CUT
10
51.3225
20
89.1530
0
VERTEX
8
CUT
10
50.9687
20
89.9538
0
VERTEX
8
CUT
10
49.7836
20
90.8302
0
VERTEX
8
CUT
10
48.5024
20
91.1268
0
VERTEX
8
CUT
10
45.4474
20
91.3702
0
VERTEX
8
CUT
10
43.6258
20
92.0278
0
VERTEX
8
CUT
10
43.1634
20
92.3844
0
VERTEX
8
CUT
10
42.8885
20
92.6397
0
VERTEX
8
CUT
10
42.7489
20
92.7694
0
VERTEX
8
CUT
10
42.6776
20
92.8357
0
VERTEX
8
CUT
10
42.5832
20
92.9234
0
VERTEX
8
CUT
10
41.8564
20
94.1620
0
VERTEX
8
CUT
10
41.7848
20
95.0421
0
VERTEX
8
CUT
10
42.4205
20
96.5793
0
VERTEX
8
CUT
10
43.9461
20
98.0179
0
VERTEX
8
CUT
10
45.8544
20
99.1993
0
VERTEX
8
CUT
10
46.7363
20
100.1264
0
VERTEX
8
CUT
10
46.8807
20
100.6194
0
VERTEX
8
CUT
10
46.7754
20
101.0449
0
VERTEX
8
CUT
10
46.7853
20
101.0843
0
VERTEX
8
CUT
10
46.7485
20
101.1535
0
VERTEX
8
CUT
10
46.6775
20
101.4404
0
VERTEX
8
CUT
10
46.5019
20
101.6179
0
VERTEX
8
CUT
10
46.3755
20
101.8560
0
VERTEX
8
CUT
10
45.8819
20
102.2766
0
VERTEX
8
CUT
10
45.8303
20
102.2966
0
VERTEX
8
CUT
10
45.6883
20
102.4401
0
VERTEX
8
CUT
10
45.0826
20
102.7873
0
VERTEX
8
CUT
10
44.3171
20
102.8824
0
VERTEX
8
CUT
10
44.3162
20
102.8827
0
VERTEX
8
CUT
10
43.1502
20
103.0389
0
VERTEX
8
CUT
10
40.2929
20
103.0385
0
VERTEX
8
CUT
10
40.1437
20
103.0280
0
VERTEX
8
CUT
10
34.0815
20
103.0682
0
VERTEX
8
CUT
10
32.6059
20
103.2200
0
VERTEX
8
CUT
10
31.5647
20
103.6736
0
VERTEX
8
CUT
10
31.4375
20
103.7611
0
VERTEX
8
CUT
10
31.3114
20
103.8825
0
VERTEX
8
CUT
10
30.2676
20
105.2253
0
VERTEX
8
CUT
10
30.1061
20
106.0982
0
VERTEX
8
CUT
10
30.2693
20
106.9904
0
VERTEX
8
CUT
10
30.8034
20
107.8778
0
VERTEX
8
CUT
10
31.2889
20
108.2775
0
VERTEX
8
CUT
10
32.6289
20
108.8390
0
VERTEX
8
CUT
10
37.8711
20
109.5629
0
VERTEX
8
CUT
10
39.7359
20
110.1787
0
VERTEX
8
CUT
10
41.4370
20
111.3060
0
VERTEX
8
CUT
10
42.3028
20
112.3104
0
VERTEX
8
CUT
10
42.7906
20
113.3888
0
VERTEX
8
CUT
10
42.8558
20
114.0513
0
VERTEX
8
CUT
10
42.9070
20
114.2910
0
VERTEX
8
CUT
10
42.8900
20
114.3982
0
VERTEX
8
CUT
10
42.9093
20
114.5941
0
VERTEX
8
CUT
10
42.6476
20
115.8240
0
VERTEX
8
CUT
10
42.0160
20
117.0578
0
VERTEX
8
CUT
10
41.0187
20
118.3195
0
VERTEX
8
CUT
10
39.6462
20
119.5190
0
VERTEX
8
CUT
10
36.5690
20
121.4347
0
VERTEX
8
CUT
10
31.1235
20
124.3718
0
VERTEX
8
CUT
10
29.3227
20
125.7247
0
VERTEX
8
CUT
10
29.1369
20
125.9503
0
VERTEX
8
CUT
10
28.3664
20
127.5045
0
VERTEX
8
CUT
10
28.3024
20
128.1409
0
VERTEX
8
CUT
10
28.4893
20
128.7222
0
VERTEX
8
CUT
10
29.2044
20
129.4203
0
VERTEX
8
CUT
10
29.2213
20
129.4323
0
VERTEX
8
CUT
10
29.2370
20
129.4435
0
VERTEX
8
CUT
10
29.2668
20
129.4647
0
VERTEX
8
CUT
10
29.3561
20
129.5285
0
VERTEX
8
CUT
10
32.2299
20
130.1643
0
VERTEX
8
CUT
10
32.9340
20
131.0029
0
VERTEX
8
CUT
10
32.9472
20
131.8123
0
VERTEX
8
CUT
10
32.1143
20
133.1810
0
VERTEX
8
CUT
10
30.9317
20
134.4552
0
VERTEX
8
CUT
10
26.3941
20
138.2125
0
VERTEX
8
CUT
10
24.7276
20
139.8172
0
VERTEX
8
CUT
10
23.4650
20
141.3256
0
VERTEX
8
CUT
10
22.7445
20
142.4931
0
VERTEX
8
CUT
10
22.7128
20
142.5562
0
VERTEX
8
CUT
10
22.7069
20
142.5679
0
VERTEX
8
CUT
10
22.6974
20
142.5869
0
VERTEX
8
CUT
10
22.6723
20
142.6370
0
VERTEX
8
CUT
10
22.2873
20
144.1297
0
VERTEX
8
CUT
10
22.3824
20
145.5828
0
VERTEX
8
CUT
10
22.9281
20
146.7997
0
VERTEX
8
CUT
10
23.6519
20
147.4511
0
VERTEX
8
CUT
10
23.9083
20
147.6189
0
VERTEX
8
CUT
10
23.9598
20
147.6525
0
VERTEX
8
CUT
10
24.0376
20
147.7034
0
VERTEX
8
CUT
10
24.0966
20
147.7420
0
VERTEX
8
CUT
10
24.7107
20
147.9619
0
VERTEX
8
CUT
10
25.8238
20
148.0835
0
VERTEX
8
CUT
10
30.6198
20
147.0397
0
VERTEX
8
CUT
10
31.1687
20
147.2695
0
VERTEX
8
CUT
10
31.7223
20
147.8115
0
VERTEX
8
CUT
10
31.9205
20
148.5144
0
VERTEX
8
CUT
10
31.8370
20
148.8588
0
VERTEX
8
CUT
10
31.8469
20
148.9927
0
VERTEX
8
CUT
10
31.7134
20
149.3683
0
VERTEX
8
CUT
10
31.6807
20
149.5031
0
VERTEX
8
CUT
10
31.6523
20
149.5403
0
VERTEX
8
CUT
10
31.5878
20
149.7217
0
VERTEX
8
CUT
10
30.9528
20
150.6084
0
VERTEX
8
CUT
10
30.4002
20
151.1783
0
VERTEX
8
CUT
10
30.0562
20
151.6283
0
VERTEX
8
CUT
10
26.9599
20
154.0742
0
VERTEX
8
CUT
10
22.2026
20
157.0861
0
VERTEX
8
CUT
10
20.0297
20
158.7150
0
VERTEX
8
CUT
10
18.4436
20
160.2710
0
VERTEX
8
CUT
10
17.5744
20
161.5885
0
VERTEX
8
CUT
10
17.2255
20
162.8861
0
VERTEX
8
CUT
10
17.2130
20
163.7290
0
VERTEX
8
CUT
10
17.2652
20
164.1518
0
VERTEX
8
CUT
10
17.6624
20
165.0225
0
VERTEX
8
CUT
10
18.4406
20
165.8018
0
VERTEX
8
CUT
10
18.8019
20
165.9307
0
VERTEX
8
CUT
10
18.8921
20
165.9629
0
VERTEX
8
CUT
10
18.9585
20
165.9866
0
VERTEX
8
CUT
10
19.1991
20
166.0724
0
VERTEX
8
CUT
10
19.4968
20
166.1647
0
VERTEX
8
CUT
10
23.7023
20
166.0604
0
VERTEX
8
CUT
10
24.4591
20
166.5911
0
VERTEX
8
CUT
10
24.9274
20
167.3512
0
VERTEX
8
CUT
10
24.8185
20
168.2076
0
VERTEX
8
CUT
10
24.4567
20
169.0420
0
VERTEX
8
CUT
10
22.1283
20
171.9800
0
SEQEND
0
POLYLINE
8
CUT
66
1
70
1
10
0.0
20
0.0
30
0.0
0
VERTEX
8
CUT
10
238.5336
20
286.6733
0
VERTEX
8
CUT
10
239.0046
20
288.6796
0
VERTEX
8
CUT
10
238.8350
20
290.4051
0
VERTEX
8
CUT
10
238.6222
20
290.7811
0
VERTEX
8
CUT
10
238.5716
20
291.0126
0
VERTEX
8
CUT
10
238.2650
20
291.4123
0
VERTEX
8
CUT
10
238.0196
20
291.8461
0
VERTEX
8
CUT
10
237.7569
20
292.0748
0
VERTEX
8
CUT
10
237.6400
20
292.2272
0
VERTEX
8
CUT
10
237.4968
20
292.3013
0
VERTEX
8
CUT
10
236.7586
20
292.9439
0
VERTEX
8
CUT
10
235.5823
20
293.2597
0
VERTEX
8
CUT
10
234.2707
20
293.0053
0
VERTEX
8
CUT
10
232.7428
20
292.1717
0
VERTEX
8
CUT
10
230.1381
20
290.2361
0
VERTEX
8
CUT
10
228.6472
20
289.7469
0
VERTEX
8
CUT
10
227.1872
20
290.1753
0
VERTEX
8
CUT
10
224.8716
20
292.0103
0
VERTEX
8
CUT
10
224.6764
20
292.1965
0
VERTEX
8
CUT
10
224.4630
20
292.3341
0
VERTEX
8
CUT
10
223.9562
20
292.7356
0
VERTEX
8
CUT
10
223.0739
20
293.1182
0
VERTEX
8
CUT
10
221.9336
20
293.2629
0
VERTEX
8
CUT
10
219.6854
20
293.1484
0
VERTEX
8
CUT
10
218.0886
20
292.7953
0
VERTEX
8
CUT
10
212.9183
20
290.6828
0
VERTEX
8
CUT
10
210.7777
20
290.2607
0
VERTEX
8
CUT
10
208.1972
20
290.5020
0
VERTEX
8
CUT
10
204.1260
20
292.3869
0
VERTEX
8
CUT
10
203.8053
20
292.5554
0
VERTEX
8
CUT
10
203.6378
20
292.6130
0
VERTEX
8
CUT
10
203.1879
20
292.8212
0
VERTEX
8
CUT
10
202.3887
20
293.0420
0
VERTEX
8
CUT
10
202.1585
20
293.1210
0
VERTEX
8
CUT
10
202.0845
20
293.1260
0
VERTEX
8
CUT
10
201.4816
20
293.2925
0
VERTEX
8
CUT
10
200.7960
20
293.2878
0
VERTEX
8
CUT
10
199.7727
20
292.9711
0
VERTEX
8
CUT
10
199.5439
20
292.6989
0
VERTEX
8
CUT
10
199.3832
20
292.6182
0
VERTEX
8
CUT
10
198.9915
20
292.0876
0
VERTEX
8
CUT
10
198.9855
20
292.0346
0
VERTEX
8
CUT
10
198.6816
20
291.6731
0
VERTEX
8
CUT
10
198.6700
20
291.1575
0
VERTEX
8
CUT
10
199.0486
20
290.4237
0
VERTEX
8
CUT
10
200.7754
20
288.6615
0
VERTEX
8
CUT
10
205.6441
20
284.8820
0
VERTEX
8
CUT
10
206.2740
20
284.5419
0
VERTEX
8
CUT
10
206.4201
20
284.4253
0
VERTEX
8
CUT
10
207.5354
20
283.8606
0
VERTEX
8
CUT
10
207.8766
20
283.6763
0
VERTEX
8
CUT
10
208.9420
20
283.4660
0
VERTEX
8
CUT
10
209.8006
20
283.5551
0
VERTEX
8
CUT
10
210.6309
20
283.9152
0
VERTEX
8
CUT
10
211.4969
20
284.5497
0
VERTEX
8
CUT
10
213.3340
20
286.5257
0
VERTEX
8
CUT
10
214.9846
20
287.3815
0
VERTEX
8
CUT
10
217.1861
20
287.6686
0
VERTEX
8
CUT
10
219.2247
20
287.4361
0
VERTEX
8
CUT
10
219.3337
20
287.3999
0
VERTEX
8
CUT
10
219.3638
20
287.3899
0
VERTEX
8
CUT
10
219.3991
20
287.3782
0
VERTEX
8
CUT
10
219.4581
20
287.3586
0
VERTEX
8
CUT
10
221.1465
20
286.5947
0
VERTEX
8
CUT
10
222.0464
20
285.8605
0
VERTEX
8
CUT
10
222.9383
20
284.9950
0
VERTEX
8
CUT
10
225.6776
20
281.3548
0
VERTEX
8
CUT
10
227.4226
20
279.7001
0
VERTEX
8
CUT
10
229.2323
20
279.0741
0
VERTEX
8
CUT
10
231.3037
20
279.3816
0
VERTEX
8
CUT
10
233.2282
20
280.2809
0
VERTEX
8
CUT
10
235.5722
20
282.3056
0
VERTEX
8
CUT
10
237.6203
20
284.7949
0
SEQEND
0
POLYLINE
8
CUT
66
1
70
1
10
0.0
20
0.0
30
0.0
0
VERTEX
8
CUT
10
199.8780
20
130.5138
0
VERTEX
8
CUT
10
199.8738
20
130.8440
0
VERTEX
8
CUT
10
197.0125
20
131.7855
0
VERTEX
8
CUT
10
196.5353
20
132.3262
0
VERTEX
8
CUT
10
196.3382
20
133.1373
0
VERTEX
8
CUT
10
195.9455
20
133.3090
0
VERTEX
8
CUT
10
193.0955
20
130.9746
0
VERTEX
8
CUT
10
191.0458
20
129.8294
0
VERTEX
8
CUT
10
188.0999
20
129.1169
0
VERTEX
8
CUT
10
187.1457
20
129.2816
0
VERTEX
8
CUT
10
186.9525
20
129.5847
0
VERTEX
8
CUT
10
187.0079
20
130.0023
0
VERTEX
8
CUT
10
189.4311
20
133.2255
0
VERTEX
8
CUT
10
190.3291
20
135.0250
0
VERTEX
8
CUT
10
190.9111
20
136.9983
0
VERTEX
8
CUT
10
191.1269
20
139.0722
0
VERTEX
8
CUT
10
191.0119
20
141.0777
0
VERTEX
8
CUT
10
190.5361
20
143.0870
0
VERTEX
8
CUT
10
189.6823
20
144.8840
0
VERTEX
8
CUT
10
188.4827
20
146.5306
0
VERTEX
8
CUT
10
187.3797
20
147.5769
0
VERTEX
8
CUT
10
186.1534
20
148.3123
0
VERTEX
8
CUT
10
184.8574
20
148.7495
0
VERTEX
8
CUT
10
183.3688
20
148.9012
0
VERTEX
8
CUT
10
182.2282
20
148.8069
0
VERTEX
8
CUT
10
180.2173
20
148.1423
0
VERTEX
8
CUT
10
178.4269
20
146.8469
0
VERTEX
8
CUT
10
177.5973
20
145.8984
0
VERTEX
8
CUT
10
176.2249
20
143.6485
0
VERTEX
8
CUT
10
175.4515
20
141.5868
0
VERTEX
8
CUT
10
175.3076
20
138.0638
0
VERTEX
8
CUT
10
175.5690
20
135.5918
0
VERTEX
8
CUT
10
176.0465
20
134.2402
0
VERTEX
8
CUT
10
177.6088
20
131.2938
0
VERTEX
8
CUT
10
177.6895
20
130.7302
0
VERTEX
8
CUT
10
176.9915
20
130.6193
0
VERTEX
8
CUT
10
175.9887
20
131.1246
0
VERTEX
8
CUT
10
171.9334
20
134.2385
0
VERTEX
8
CUT
10
171.5583
20
134.1901
0
VERTEX
8
CUT
10
171.0458
20
133.6881
0
VERTEX
8
CUT
10
171.2890
20
132.7182
0
VERTEX
8
CUT
10
173.0396
20
130.7759
0
VERTEX
8
CUT
10
174.8789
20
129.1792
0
VERTEX
8
CUT
10
177.8884
20
127.2914
0
VERTEX
8
CUT
10
180.0786
20
126.3604
0
VERTEX
8
CUT
10
182.1747
20
125.8060
0
VERTEX
8
CUT
10
183.5438
20
125.6829
0
VERTEX
8
CUT
10
188.4274
20
125.7425
0
VERTEX
8
CUT
10
191.3075
20
126.1269
0
VERTEX
8
CUT
10
193.6222
20
126.8959
0
VERTEX
8
CUT
10
196.3587
20
128.2185
0
VERTEX
8
CUT
10
199.5726
20
130.1916
0
SEQEND
0
POLYLINE
8
CUT
66
1
70
1
10
0.0
20
0.0
30
0.0
0
VERTEX
8
CUT
10
102.6743
20
128.5953
0
VERTEX
8
CUT
10
105.3030
20
127.2537
0
VERTEX
8
CUT
10
108.9634
20
126.0137
0
VERTEX
8
CUT
10
110.8386
20
125.6548
0
VERTEX
8
CUT
10
114.6548
20
125.4745
0
VERTEX
8
CUT
10
118.4299
20
126.0423
0
VERTEX
8
CUT
10
119.6797
20
126.4015
0
VERTEX
8
CUT
10
122.3485
20
127.5899
0
VERTEX
8
CUT
10
126.0432
20
130.0069
0
VERTEX
8
CUT
10
127.7278
20
131.6972
0
VERTEX
8
CUT
10
128.1857
20
132.3984
0
VERTEX
8
CUT
10
128.2684
20
132.9061
0
VERTEX
8
CUT
10
127.8843
20
133.3394
0
VERTEX
8
CUT
10
126.9890
20
133.4421
0
VERTEX
8
CUT
10
123.3966
20
130.8642
0
VERTEX
8
CUT
10
122.8343
20
130.6510
0
VERTEX
8
CUT
10
122.3040
20
130.6945
0
VERTEX
8
CUT
10
122.1376
20
130.9848
0
VERTEX
8
CUT
10
122.2093
20
131.4105
0
VERTEX
8
CUT
10
123.7061
20
134.3725
0
VERTEX
8
CUT
10
124.3895
20
137.0320
0
VERTEX
8
CUT
10
124.5094
20
139.7694
0
VERTEX
8
CUT
10
124.0598
20
142.2774
0
VERTEX
8
CUT
10
123.3126
20
144.1141
0
VERTEX
8
CUT
10
122.3277
20
145.6750
0
VERTEX
8
CUT
10
121.1233
20
146.9621
0
VERTEX
8
CUT
10
119.8330
20
147.9054
0
VERTEX
8
CUT
10
118.3724
20
148.5480
0
VERTEX
8
CUT
10
116.8557
20
148.8396
0
VERTEX
8
CUT
10
115.3313
20
148.7856
0
VERTEX
8
CUT
10
113.6974
20
148.3069
0
VERTEX
8
CUT
10
111.8552
20
147.1187
0
VERTEX
8
CUT
10
110.3773
20
145.4285
0
VERTEX
8
CUT
10
109.3437
20
143.2678
0
VERTEX
8
CUT
10
108.7825
20
140.9050
0
VERTEX
8
CUT
10
108.7230
20
138.3909
0
VERTEX
8
CUT
10
109.1375
20
135.9082
0
VERTEX
8
CUT
10
110.1117
20
133.5463
0
VERTEX
8
CUT
10
112.4829
20
130.3281
0
VERTEX
8
CUT
10
112.6589
20
129.8569
0
VERTEX
8
CUT
10
112.5556
20
129.4649
0
VERTEX
8
CUT
10
112.0622
20
129.1234
0
VERTEX
8
CUT
10
111.2290
20
129.1190
0
VERTEX
8
CUT
10
108.0793
20
130.1480
0
VERTEX
8
CUT
10
105.9079
20
131.4881
0
VERTEX
8
CUT
10
104.0638
20
133.0887
0
VERTEX
8
CUT
10
103.7409
20
132.9956
0
VERTEX
8
CUT
10
103.3681
20
132.2442
0
VERTEX
8
CUT
10
102.4340
20
131.5093
0
VERTEX
8
CUT
10
99.8995
20
131.0116
0
VERTEX
8
CUT
10
99.8353
20
130.6442
0
VERTEX
8
CUT
10
100.5700
20
129.9775
0
SEQEND
0
POLYLINE
8
CUT
66
1
70
1
10
0.0
20
0.0
30
0.0
0
VERTEX
8
CUT
10
73.3721
20
281.2779
0
VERTEX
8
CUT
10
73.4635
20
281.3991
0
VERTEX
8
CUT
10
77.2591
20
285.8278
0
VERTEX
8
CUT
10
79.0431
20
287.0339
0
VERTEX
8
CUT
10
80.0881
20
287.3963
0
VERTEX
8
CUT
10
82.1829
20
287.6686
0
VERTEX
8
CUT
10
84.2796
20
287.3861
0
VERTEX
8
CUT
10
86.0733
20
286.3092
0
VERTEX
8
CUT
10
88.8833
20
283.6774
0
VERTEX
8
CUT
10
89.3760
20
283.5922
0
VERTEX
8
CUT
10
89.3899
20
283.5836
0
VERTEX
8
CUT
10
89.4331
20
283.5823
0
VERTEX
8
CUT
10
90.1485
20
283.4586
0
VERTEX
8
CUT
10
91.7003
20
283.7530
0
VERTEX
8
CUT
10
93.5076
20
284.8377
0
VERTEX
8
CUT
10
99.0120
20
289.1442
0
VERTEX
8
CUT
10
100.2727
20
290.7655
0
VERTEX
8
CUT
10
100.3039
20
291.0656
0
VERTEX
8
CUT
10
100.3517
20
291.1539
0
VERTEX
8
CUT
10
100.3327
20
291.3436
0
VERTEX
8
CUT
10
100.3674
20
291.6773
0
VERTEX
8
CUT
10
100.2731
20
291.9374
0
VERTEX
8
CUT
10
100.2704
20
291.9643
0
VERTEX
8
CUT
10
100.2594
20
291.9753
0
VERTEX
8
CUT
10
100.1957
20
292.1511
0
VERTEX
8
CUT
10
99.6824
20
292.8015
0
VERTEX
8
CUT
10
99.1226
20
293.1219
0
VERTEX
8
CUT
10
97.0684
20
293.2089
0
VERTEX
8
CUT
10
95.6860
20
292.7679
0
VERTEX
8
CUT
10
91.2799
20
290.6273
0
VERTEX
8
CUT
10
89.2482
20
290.2876
0
VERTEX
8
CUT
10
86.4111
20
290.6956
0
VERTEX
8
CUT
10
80.9964
20
292.8571
0
VERTEX
8
CUT
10
78.6702
20
293.2042
0
VERTEX
8
CUT
10
76.6681
20
293.2087
0
VERTEX
8
CUT
10
75.6552
20
292.9280
0
VERTEX
8
CUT
10
74.7694
20
292.4399
0
VERTEX
8
CUT
10
73.0921
20
290.7802
0
VERTEX
8
CUT
10
73.0271
20
290.7270
0
VERTEX
8
CUT
10
72.9682
20
290.6789
0
VERTEX
8
CUT
10
72.9213
20
290.6405
0
VERTEX
8
CUT
10
72.8687
20
290.5974
0
VERTEX
8
CUT
10
72.1455
20
290.1110
0
VERTEX
8
CUT
10
70.7375
20
289.7979
0
VERTEX
8
CUT
10
69.5908
20
290.0642
0
VERTEX
8
CUT
10
65.7505
20
292.5281
0
VERTEX
8
CUT
10
64.4945
20
293.0757
0
VERTEX
8
CUT
10
63.3855
20
293.1731
0
VERTEX
8
CUT
10
62.4188
20
292.8831
0
VERTEX
8
CUT
10
61.2819
20
292.0860
0
VERTEX
8
CUT
10
60.6705
20
291.1405
0
VERTEX
8
CUT
10
60.3360
20
289.9438
0
VERTEX
8
CUT
10
60.3369
20
289.5665
0
VERTEX
8
CUT
10
60.3050
20
289.4055
0
VERTEX
8
CUT
10
60.3378
20
289.2170
0
VERTEX
8
CUT
10
60.3396
20
288.4626
0
VERTEX
8
CUT
10
60.6824
20
286.9836
0
VERTEX
8
CUT
10
61.3599
20
285.3926
0
VERTEX
8
CUT
10
62.4136
20
283.7433
0
VERTEX
8
CUT
10
65.1942
20
280.9079
0
VERTEX
8
CUT
10
67.1356
20
279.6603
0
VERTEX
8
CUT
10
69.3086
20
278.9980
0
VERTEX
8
CUT
10
71.0923
20
279.4368
0
VERTEX
8
CUT
10
72.5773
20
280.3650
0
VERTEX
8
CUT
10
73.3210
20
281.2327
0
SEQEND
0
POLYLINE
8
CUT
66
1
70
1
10
0.0
20
0.0
30
0.0
0
VERTEX
8
CUT
10
16.6294
20
199.2110
0
VERTEX
8
CUT
10
16.8579
20
199.5161
0
VERTEX
8
CUT
10
17.2624
20
201.4490
0
VERTEX
8
CUT
10
17.0262
20
204.2606
0
VERTEX
8
CUT
10
16.1991
20
208.4206
0
VERTEX
8
CUT
10
15.8543
20
210.5870
0
VERTEX
8
CUT
10
15.8407
20
210.6722
0
VERTEX
8
CUT
10
15.8305
20
210.7364
0
VERTEX
8
CUT
10
15.8296
20
210.7424
0
VERTEX
8
CUT
10
15.6093
20
212.7423
0
VERTEX
8
CUT
10
15.5507
20
217.2618
0
VERTEX
8
CUT
10
15.6776
20
218.4964
0
VERTEX
8
CUT
10
16.1573
20
220.2351
0
VERTEX
8
CUT
10
16.9870
20
221.8734
0
VERTEX
8
CUT
10
18.0501
20
223.3651
0
VERTEX
8
CUT
10
21.6069
20
226.4775
0
VERTEX
8
CUT
10
22.9800
20
228.5029
0
VERTEX
8
CUT
10
23.2482
20
229.8682
0
VERTEX
8
CUT
10
23.3683
20
235.8553
0
VERTEX
8
CUT
10
24.0391
20
238.2881
0
VERTEX
8
CUT
10
24.3109
20
238.7090
0
VERTEX
8
CUT
10
25.2436
20
239.7674
0
VERTEX
8
CUT
10
25.3473
20
239.8668
0
VERTEX
8
CUT
10
28.7412
20
241.4666
0
VERTEX
8
CUT
10
29.6320
20
242.2098
0
VERTEX
8
CUT
10
30.2563
20
243.1360
0
VERTEX
8
CUT
10
30.5185
20
244.1527
0
VERTEX
8
CUT
10
30.4674
20
245.2639
0
VERTEX
8
CUT
10
30.0821
20
246.3860
0
VERTEX
8
CUT
10
29.6682
20
247.0167
0
VERTEX
8
CUT
10
29.5225
20
247.2730
0
VERTEX
8
CUT
10
29.4554
20
247.3411
0
VERTEX
8
CUT
10
29.3086
20
247.5649
0
VERTEX
8
CUT
10
28.6038
20
248.2053
0
VERTEX
8
CUT
10
28.0250
20
248.7926
0
VERTEX
8
CUT
10
27.3783
20
249.3187
0
VERTEX
8
CUT
10
25.3916
20
251.1239
0
VERTEX
8
CUT
10
24.4702
20
252.2433
0
VERTEX
8
CUT
10
24.0935
20
253.1999
0
VERTEX
8
CUT
10
24.1610
20
254.6813
0
VERTEX
8
CUT
10
24.7677
20
255.6204
0
VERTEX
8
CUT
10
25.4826
20
256.1867
0
VERTEX
8
CUT
10
25.9985
20
256.4761
0
VERTEX
8
CUT
10
26.9242
20
256.6303
0
VERTEX
8
CUT
10
28.1710
20
256.3845
0
VERTEX
8
CUT
10
31.8281
20
255.1014
0
VERTEX
8
CUT
10
33.4861
20
255.0960
0
VERTEX
8
CUT
10
34.1721
20
255.3452
0
VERTEX
8
CUT
10
35.2337
20
256.2232
0
VERTEX
8
CUT
10
36.0737
20
257.8991
0
VERTEX
8
CUT
10
36.1805
20
259.8490
0
VERTEX
8
CUT
10
35.4390
20
262.0628
0
VERTEX
8
CUT
10
33.8600
20
264.5178
0
VERTEX
8
CUT
10
30.7890
20
268.1624
0
VERTEX
8
CUT
10
30.0919
20
269.4238
0
VERTEX
8
CUT
10
29.7746
20
271.2235
0
VERTEX
8
CUT
10
30.0650
20
272.6610
0
VERTEX
8
CUT
10
30.9836
20
273.7125
0
VERTEX
8
CUT
10
32.0775
20
274.2630
0
VERTEX
8
CUT
10
32.9492
20
274.3405
0
VERTEX
8
CUT
10
34.5695
20
273.7769
0
VERTEX
8
CUT
10
35.6988
20
272.9074
0
VERTEX
8
CUT
10
35.7486
20
272.8590
0
VERTEX
8
CUT
10
35.7747
20
272.8336
0
VERTEX
8
CUT
10
35.8442
20
272.7662
0
VERTEX
8
CUT
10
36.1962
20
272.4244
0
VERTEX
8
CUT
10
39.4038
20
267.8410
0
VERTEX
8
CUT
10
41.1659
20
265.9858
0
VERTEX
8
CUT
10
42.9934
20
264.8778
0
VERTEX
8
CUT
10
43.8333
20
264.6005
0
VERTEX
8
CUT
10
45.1700
20
264.5412
0
VERTEX
8
CUT
10
46.9570
20
265.3039
0
VERTEX
8
CUT
10
48.0028
20
266.3188
0
VERTEX
8
CUT
10
48.4001
20
267.5242
0
VERTEX
8
CUT
10
49.2065
20
271.7990
0
VERTEX
8
CUT
10
50.1289
20
273.4930
0
VERTEX
8
CUT
10
51.5871
20
274.4899
0
VERTEX
8
CUT
10
54.9047
20
275.1531
0
VERTEX
8
CUT
10
54.9124
20
275.1542
0
VERTEX
8
CUT
10
54.9151
20
275.1552
0
VERTEX
8
CUT
10
55.0300
20
275.1781
0
VERTEX
8
CUT
10
56.1151
20
275.5580
0
VERTEX
8
CUT
10
56.8507
20
276.0980
0
VERTEX
8
CUT
10
57.3481
20
276.8301
0
VERTEX
8
CUT
10
57.6004
20
278.6823
0
VERTEX
8
CUT
10
57.0634
20
280.7339
0
VERTEX
8
CUT
10
55.7735
20
283.0986
0
VERTEX
8
CUT
10
53.9310
20
285.4417
0
VERTEX
8
CUT
10
51.7189
20
287.6480
0
VERTEX
8
CUT
10
49.3001
20
289.4459
0
VERTEX
8
CUT
10
49.1458
20
289.5273
0
VERTEX
8
CUT
10
49.0336
20
289.6132
0
VERTEX
8
CUT
10
48.1355
20
290.0603
0
VERTEX
8
CUT
10
46.7653
20
290.7831
0
VERTEX
8
CUT
10
46.3074
20
290.8948
0
VERTEX
8
CUT
10
45.5461
20
291.1398
0
VERTEX
8
CUT
10
45.1217
20
291.1841
0
VERTEX
8
CUT
10
44.3565
20
291.3708
0
VERTEX
8
CUT
10
43.0327
20
291.4009
0
VERTEX
8
CUT
10
41.8755
20
291.1884
0
VERTEX
8
CUT
10
40.5741
20
290.3518
0
VERTEX
8
CUT
10
40.4093
20
290.1335
0
VERTEX
8
CUT
10
40.2156
20
289.9923
0
VERTEX
8
CUT
10
39.7423
20
289.2964
0
VERTEX
8
CUT
10
39.5517
20
288.5685
0
VERTEX
8
CUT
10
39.5717
20
288.4598
0
VERTEX
8
CUT
10
39.5476
20
288.3544
0
VERTEX
8
CUT
10
40.2657
20
284.5217
0
VERTEX
8
CUT
10
40.1363
20
282.9671
0
VERTEX
8
CUT
10
39.2902
20
281.7035
0
VERTEX
8
CUT
10
39.0004
20
281.5083
0
VERTEX
8
CUT
10
38.7602
20
281.3555
0
VERTEX
8
CUT
10
38.7132
20
281.3256
0
VERTEX
8
CUT
10
38.6680
20
281.2969
0
VERTEX
8
CUT
10
38.4305
20
281.1458
0
VERTEX
8
CUT
10
37.5172
20
280.9041
0
VERTEX
8
CUT
10
36.5001
20
280.9381
0
VERTEX
8
CUT
10
35.4122
20
281.2492
0
VERTEX
8
CUT
10
33.1696
20
282.6237
0
VERTEX
8
CUT
10
31.1220
20
284.7921
0
VERTEX
8
CUT
10
28.4595
20
288.3285
0
VERTEX
8
CUT
10
27.2190
20
289.5962
0
VERTEX
8
CUT
10
26.0961
20
290.4313
0
VERTEX
8
CUT
10
24.7388
20
291.0070
0
VERTEX
8
CUT
10
24.2266
20
291.2595
0
VERTEX
8
CUT
10
24.0161
20
291.3136
0
VERTEX
8
CUT
10
23.2976
20
291.6184
0
VERTEX
8
CUT
10
22.1512
20
291.6995
0
VERTEX
8
CUT
10
21.0119
20
291.4323
0
VERTEX
8
CUT
10
20.4945
20
291.1292
0
VERTEX
8
CUT
10
20.4714
20
291.1204
0
VERTEX
8
CUT
10
20.4537
20
291.1053
0
VERTEX
8
CUT
10
19.5952
20
290.6022
0
VERTEX
8
CUT
10
18.9334
20
289.7842
0
VERTEX
8
CUT
10
18.4930
20
288.2889
0
VERTEX
8
CUT
10
18.5206
20
287.8566
0
VERTEX
8
CUT
10
18.5022
20
287.7121
0
VERTEX
8
CUT
10
18.5408
20
287.5384
0
VERTEX
8
CUT
10
18.6060
20
286.5159
0
VERTEX
8
CUT
10
19.0681
20
285.2237
0
VERTEX
8
CUT
10
19.8650
20
283.8596
0
VERTEX
8
CUT
10
22.8998
20
279.6908
0
VERTEX
8
CUT
10
23.5426
20
278.1172
0
VERTEX
8
CUT
10
23.4118
20
277.3079
0
VERTEX
8
CUT
10
23.3697
20
277.1838
0
VERTEX
8
CUT
10
23.3297
20
277.0658
0
VERTEX
8
CUT
10
23.2875
20
276.9414
0
VERTEX
8
CUT
10
23.2725
20
276.8972
0
VERTEX
8
CUT
10
22.0454
20
275.9918
0
VERTEX
8
CUT
10
20.5651
20
275.8839
0
VERTEX
8
CUT
10
19.0243
20
276.6295
0
VERTEX
8
CUT
10
15.6742
20
279.0859
0
VERTEX
8
CUT
10
14.7574
20
279.4881
0
VERTEX
8
CUT
10
13.8403
20
279.5787
0
VERTEX
8
CUT
10
12.8155
20
279.4286
0
VERTEX
8
CUT
10
11.9357
20
278.9513
0
VERTEX
8
CUT
10
11.8378
20
278.9161
0
VERTEX
8
CUT
10
11.7550
20
278.8533
0
VERTEX
8
CUT
10
11.5556
20
278.7451
0
VERTEX
8
CUT
10
11.4473
20
278.6198
0
VERTEX
8
CUT
10
11.2719
20
278.4866
0
VERTEX
8
CUT
10
11.0811
20
278.1957
0
VERTEX
8
CUT
10
10.8101
20
277.8820
0
VERTEX
8
CUT
10
10.1152
20
276.5946
0
VERTEX
8
CUT
10
10.1576
20
275.8822
0
VERTEX
8
CUT
10
10.5499
20
274.9033
0
VERTEX
8
CUT
10
10.5958
20
274.7451
0
VERTEX
8
CUT
10
10.6343
20
274.6925
0
VERTEX
8
CUT
10
10.7003
20
274.5280
0
VERTEX
8
CUT
10
11.0770
20
274.0882
0
VERTEX
8
CUT
10
11.3010
20
273.7824
0
VERTEX
8
CUT
10
11.3830
20
273.7311
0
VERTEX
8
CUT
10
11.7886
20
273.2576
0
VERTEX
8
CUT
10
13.0904
20
272.5787
0
VERTEX
8
CUT
10
17.9184
20
270.7548
0
VERTEX
8
CUT
10
18.2634
20
270.5743
0
VERTEX
8
CUT
10
18.4057
20
270.4999
0
VERTEX
8
CUT
10
18.5414
20
270.4289
0
VERTEX
8
CUT
10
18.8558
20
270.2644
0
VERTEX
8
CUT
10
20.7052
20
268.8836
0
VERTEX
8
CUT
10
22.2005
20
267.1955
0
VERTEX
8
CUT
10
23.0456
20
265.5054
0
VERTEX
8
CUT
10
23.2469
20
264.5713
0
VERTEX
8
CUT
10
23.1175
20
262.9191
0
VERTEX
8
CUT
10
22.7918
20
262.1115
0
VERTEX
8
CUT
10
22.1822
20
261.3032
0
VERTEX
8
CUT
10
22.0926
20
261.2232
0
VERTEX
8
CUT
10
21.1066
20
260.7408
0
VERTEX
8
CUT
10
20.3646
20
260.6026
0
VERTEX
8
CUT
10
15.7332
20
260.6753
0
VERTEX
8
CUT
10
15.5542
20
260.6920
0
VERTEX
8
CUT
10
15.4824
20
260.6792
0
VERTEX
8
CUT
10
14.6015
20
260.6930
0
VERTEX
8
CUT
10
13.5385
20
260.4315
0
VERTEX
8
CUT
10
12.7324
20
259.9549
0
VERTEX
8
CUT
10
11.8554
20
259.0101
0
VERTEX
8
CUT
10
11.2600
20
257.7726
0
VERTEX
8
CUT
10
11.0086
20
256.3716
0
VERTEX
8
CUT
10
11.3538
20
253.6439
0
VERTEX
8
CUT
10
12.1639
20
251.7554
0
VERTEX
8
CUT
10
13.5807
20
249.8116
0
VERTEX
8
CUT
10
18.5226
20
244.5037
0
VERTEX
8
CUT
10
19.4976
20
242.9458
0
VERTEX
8
CUT
10
19.9386
20
241.4148
0
VERTEX
8
CUT
10
19.8476
20
239.7122
0
VERTEX
8
CUT
10
19.5055
20
238.8474
0
VERTEX
8
CUT
10
18.9444
20
238.1383
0
VERTEX
8
CUT
10
18.2036
20
237.6505
0
VERTEX
8
CUT
10
17.3196
20
237.3568
0
VERTEX
8
CUT
10
16.3750
20
237.3256
0
VERTEX
8
CUT
10
12.5073
20
238.4884
0
VERTEX
8
CUT
10
11.5133
20
238.3758
0
VERTEX
8
CUT
10
11.3040
20
238.3978
0
VERTEX
8
CUT
10
11.1699
20
238.3369
0
VERTEX
8
CUT
10
10.9138
20
238.3079
0
VERTEX
8
CUT
10
10.5046
20
238.0347
0
VERTEX
8
CUT
10
10.2010
20
237.8968
0
VERTEX
8
CUT
10
10.0179
20
237.7098
0
VERTEX
8
CUT
10
9.5713
20
237.4117
0
VERTEX
8
CUT
10
8.8163
20
236.0026
0
VERTEX
8
CUT
10
8.6307
20
235.1330
0
VERTEX
8
CUT
10
8.7454
20
233.5365
0
VERTEX
8
CUT
10
9.4924
20
232.0997
0
VERTEX
8
CUT
10
10.8023
20
230.8989
0
VERTEX
8
CUT
10
13.0272
20
229.5813
0
VERTEX
8
CUT
10
13.9393
20
228.7324
0
VERTEX
8
CUT
10
14.5897
20
227.7985
0
VERTEX
8
CUT
10
14.8378
20
226.9016
0
VERTEX
8
CUT
10
14.8417
20
226.8768
0
VERTEX
8
CUT
10
14.8436
20
226.8644
0
VERTEX
8
CUT
10
14.8453
20
226.8537
0
VERTEX
8
CUT
10
14.8512
20
226.8159
0
VERTEX
8
CUT
10
14.8259
20
226.6441
0
VERTEX
8
CUT
10
14.8170
20
226.5999
0
VERTEX
8
CUT
10
14.8151
20
226.5902
0
VERTEX
8
CUT
10
14.7728
20
226.3792
0
VERTEX
8
CUT
10
14.6681
20
225.8565
0
VERTEX
8
CUT
10
14.1952
20
225.0917
0
VERTEX
8
CUT
10
13.3900
20
224.4767
0
VERTEX
8
CUT
10
10.3040
20
223.0868
0
VERTEX
8
CUT
10
9.5431
20
221.9874
0
VERTEX
8
CUT
10
8.9879
20
220.4371
0
VERTEX
8
CUT
10
8.8713
20
218.2469
0
VERTEX
8
CUT
10
9.4540
20
215.8208
0
VERTEX
8
CUT
10
10.7300
20
213.0827
0
VERTEX
8
CUT
10
13.2482
20
209.0679
0
VERTEX
8
CUT
10
13.7405
20
207.8847
0
VERTEX
8
CUT
10
13.9530
20
206.2492
0
VERTEX
8
CUT
10
13.7533
20
205.2057
0
VERTEX
8
CUT
10
13.1340
20
204.3341
0
VERTEX
8
CUT
10
11.7689
20
203.6822
0
VERTEX
8
CUT
10
10.3222
20
203.4768
0
VERTEX
8
CUT
10
9.5220
20
202.9669
0
VERTEX
8
CUT
10
8.8976
20
201.9642
0
VERTEX
8
CUT
10
8.9484
20
200.8548
0
VERTEX
8
CUT
10
9.2919
20
200.0054
0
VERTEX
8
CUT
10
10.4008
20
198.6205
0
VERTEX
8
CUT
10
10.7903
20
198.3737
0
VERTEX
8
CUT
10
10.8659
20
198.3036
0
VERTEX
8
CUT
10
11.3127
20
198.0428
0
VERTEX
8
CUT
10
12.0292
20
197.5888
0
VERTEX
8
CUT
10
13.9102
20
197.1480
0
VERTEX
8
CUT
10
14.8737
20
197.3285
0
VERTEX
8
CUT
10
15.5704
20
197.7970
0
VERTEX
8
CUT
10
15.6835
20
197.9480
0
VERTEX
8
CUT
10
16.0428
20
198.2147
0
VERTEX
8
CUT
10
16.5357
20
198.8735
0
SEQEND
0
POLYLINE
8
CUT
66
1
70
1
10
0.0
20
0.0
30
0.0
0
VERTEX
8
CUT
10
14.3036
20
188.5058
0
VERTEX
8
CUT
10
13.0936
20
189.6839
0
VERTEX
8
CUT
10
11.5406
20
190.5357
0
VERTEX
8
CUT
10
10.5616
20
190.6927
0
VERTEX
8
CUT
10
9.7347
20
190.2490
0
VERTEX
8
CUT
10
8.7858
20
189.3085
0
VERTEX
8
CUT
10
8.5472
20
188.7791
0
VERTEX
8
CUT
10
8.7774
20
187.9356
0
VERTEX
8
CUT
10
9.5668
20
186.5420
0
VERTEX
8
CUT
10
10.4141
20
185.6464
0
VERTEX
8
CUT
10
11.6341
20
184.8554
0
VERTEX
8
CUT
10
12.7908
20
184.5735
0
VERTEX
8
CUT
10
12.9269
20
184.6012
0
VERTEX
8
CUT
10
13.0888
20
184.5732
0
VERTEX
8
CUT
10
13.2668
20
184.6704
0
VERTEX
8
CUT
10
13.7964
20
184.7782
0
VERTEX
8
CUT
10
14.6318
20
185.3982
0
VERTEX
8
CUT
10
14.9877
20
186.1358
0
VERTEX
8
CUT
10
14.8657
20
187.4212
0
SEQEND
0
ENDSEC
0
EOF
