0
SECTION
2
HEADER
9
$ACADVER
1
AC1009
9
$INSUNITS
70
4
0
ENDSEC
0
SECTION
2
TABLES
0
TABLE
2
LAYER
70
1
0
LAYER
2
CUT
70
0
62
7
6
CONTINUOUS
0
ENDTAB
0
ENDSEC
0
SECTION
2
ENTITIES
0
POLYLINE
8
CUT
66
1
70
1
10
0.0
20
0.0
30
0.0
0
VERTEX
8
CUT
10
60.1798
20
67.6215
0
VERTEX
8
CUT
10
58.0678
20
67.4590
0
VERTEX
8
CUT
10
57.1086
20
67.5710
0
VERTEX
8
CUT
10
56.4433
20
68.0560
0
VERTEX
8
CUT
10
56.1265
20
68.6436
0
VERTEX
8
CUT
10
56.0930
20
69.3826
0
VERTEX
8
CUT
10
56.2998
20
70.2113
0
VERTEX
8
CUT
10
57.4449
20
71.9976
0
VERTEX
8
CUT
10
59.4023
20
73.9547
0
VERTEX
8
CUT
10
61.4644
20
75.6258
0
VERTEX
8
CUT
10
62.3221
20
76.7829
0
VERTEX
8
CUT
10
63.0908
20
79.2726
0
VERTEX
8
CUT
10
63.0538
20
80.2943
0
VERTEX
8
CUT
10
62.5864
20
80.7798
0
VERTEX
8
CUT
10
60.6141
20
81.3288
0
VERTEX
8
CUT
10
59.9427
20
81.6907
0
VERTEX
8
CUT
10
59.5085
20
82.1980
0
VERTEX
8
CUT
10
59.4583
20
82.4334
0
VERTEX
8
CUT
10
59.4556
20
82.4509
0
VERTEX
8
CUT
10
59.4501
20
82.4873
0
VERTEX
8
CUT
10
59.4302
20
82.6170
0
VERTEX
8
CUT
10
59.3897
20
82.8817
0
VERTEX
8
CUT
10
59.4436
20
83.1158
0
VERTEX
8
CUT
10
59.9024
20
83.9472
0
VERTEX
8
CUT
10
59.9275
20
83.9824
0
VERTEX
8
CUT
10
62.0769
20
85.5662
0
VERTEX
8
CUT
10
63.0568
20
86.2120
0
VERTEX
8
CUT
10
63.4312
20
86.5641
0
VERTEX
8
CUT
10
63.6801
20
86.7475
0
VERTEX
8
CUT
10
63.7877
20
86.8994
0
VERTEX
8
CUT
10
63.9933
20
87.0927
0
VERTEX
8
CUT
10
64.2097
20
87.4951
0
VERTEX
8
CUT
10
64.5898
20
88.0316
0
VERTEX
8
CUT
10
64.8959
20
89.2799
0
VERTEX
8
CUT
10
64.4130
20
90.5921
0
VERTEX
8
CUT
10
63.1499
20
91.9813
0
VERTEX
8
CUT
10
60.4324
20
93.7366
0
VERTEX
8
CUT
10
59.3409
20
94.7372
0
VERTEX
8
CUT
10
58.9827
20
95.5366
0
VERTEX
8
CUT
10
59.0087
20
96.3521
0
VERTEX
8
CUT
10
59.5324
20
97.2108
0
VERTEX
8
CUT
10
60.5941
20
97.8099
0
VERTEX
8
CUT
10
65.0807
20
99.0480
0
VERTEX
8
CUT
10
66.1453
20
99.5879
0
VERTEX
8
CUT
10
66.4362
20
99.8966
0
VERTEX
8
CUT
10
67.0651
20
100.4095
0
VERTEX
8
CUT
10
67.3386
20
100.8545
0
VERTEX
8
CUT
10
67.4219
20
100.9430
0
VERTEX
8
CUT
10
67.4308
20
101.0044
0
VERTEX
8
CUT
10
67.4888
20
101.0989
0
VERTEX
8
CUT
10
67.5856
20
101.9265
0
VERTEX
8
CUT
10
67.5698
20
101.9728
0
VERTEX
8
CUT
10
67.5940
20
102.1417
0
VERTEX
8
CUT
10
67.4178
20
102.4178
0
VERTEX
8
CUT
10
67.3560
20
102.5988
0
VERTEX
8
CUT
10
67.1200
20
102.8844
0
VERTEX
8
CUT
10
66.8895
20
103.2455
0
VERTEX
8
CUT
10
65.4711
20
104.1407
0
VERTEX
8
CUT
10
64.1773
20
104.5177
0
VERTEX
8
CUT
10
58.5813
20
104.9729
0
VERTEX
8
CUT
10
56.2645
20
105.7385
0
VERTEX
8
CUT
10
54.8181
20
106.8847
0
VERTEX
8
CUT
10
54.8074
20
106.8984
0
VERTEX
8
CUT
10
54.7877
20
106.9234
0
VERTEX
8
CUT
10
54.7023
20
107.0322
0
VERTEX
8
CUT
10
54.6677
20
107.0762
0
VERTEX
8
CUT
10
54.3036
20
107.7066
0
VERTEX
8
CUT
10
54.1368
20
108.5563
0
VERTEX
8
CUT
10
54.1793
20
109.2776
0
VERTEX
8
CUT
10
54.6689
20
110.3629
0
VERTEX
8
CUT
10
55.8087
20
111.2053
0
VERTEX
8
CUT
10
60.0071
20
112.7113
0
VERTEX
8
CUT
10
60.8361
20
113.5837
0
VERTEX
8
CUT
10
60.9859
20
114.2352
0
VERTEX
8
CUT
10
60.8762
20
114.7311
0
VERTEX
8
CUT
10
59.7263
20
116.0065
0
VERTEX
8
CUT
10
59.5320
20
116.2581
0
VERTEX
8
CUT
10
59.3734
20
116.3978
0
VERTEX
8
CUT
10
58.8994
20
116.9236
0
VERTEX
8
CUT
10
55.4393
20
119.9616
0
VERTEX
8
CUT
10
54.2212
20
120.7366
0
VERTEX
8
CUT
10
53.5840
20
121.2263
0
VERTEX
8
CUT
10
52.5918
20
121.7733
0
VERTEX
8
CUT
10
52.1779
20
122.0367
0
VERTEX
8
CUT
10
51.5600
20
122.3422
0
VERTEX
8
CUT
10
51.1958
20
122.5430
0
VERTEX
8
CUT
10
50.6748
20
122.7799
0
VERTEX
8
CUT
10
44.1390
20
126.0113
0
VERTEX
8
CUT
10
42.9767
20
126.9521
0
VERTEX
8
CUT
10
41.8046
20
128.6134
0
VERTEX
8
CUT
10
41.3358
20
129.8472
0
VERTEX
8
CUT
10
41.3320
20
129.9067
0
VERTEX
8
CUT
10
41.3294
20
129.9479
0
VERTEX
8
CUT
10
41.3211
20
130.0797
0
VERTEX
8
CUT
10
41.3063
20
130.3159
0
VERTEX
8
CUT
10
41.3680
20
130.8418
0
VERTEX
8
CUT
10
42.6445
20
132.3551
0
VERTEX
8
CUT
10
42.9231
20
132.5495
0
VERTEX
8
CUT
10
43.3999
20
132.8520
0
VERTEX
8
CUT
10
44.2606
20
132.9982
0
VERTEX
8
CUT
10
45.1455
20
133.0219
0
VERTEX
8
CUT
10
46.4826
20
132.7758
0
VERTEX
8
CUT
10
50.6197
20
131.1377
0
VERTEX
8
CUT
10
52.4037
20
130.6792
0
VERTEX
8
CUT
10
52.6941
20
130.7245
0
VERTEX
8
CUT
10
52.7676
20
130.7098
0
VERTEX
8
CUT
10
52.9567
20
130.7655
0
VERTEX
8
CUT
10
53.2406
20
130.8099
0
VERTEX
8
CUT
10
53.3274
20
130.8747
0
VERTEX
8
CUT
10
53.5545
20
130.9416
0
VERTEX
8
CUT
10
53.9697
20
131.3551
0
VERTEX
8
CUT
10
54.2654
20
131.5762
0
VERTEX
8
CUT
10
54.4292
20
132.1758
0
VERTEX
8
CUT
10
54.3131
20
132.6782
0
VERTEX
8
CUT
10
54.2770
20
132.9825
0
VERTEX
8
CUT
10
54.2185
20
133.0874
0
VERTEX
8
CUT
10
54.1407
20
133.4243
0
VERTEX
8
CUT
10
53.7132
20
133.9939
0
VERTEX
8
CUT
10
53.5611
20
134.2668
0
VERTEX
8
CUT
10
53.3645
20
134.4585
0
VERTEX
8
CUT
10
53.1031
20
134.8069
0
VERTEX
8
CUT
10
52.2688
20
135.5272
0
VERTEX
8
CUT
10
45.2420
20
140.0322
0
VERTEX
8
CUT
10
43.1348
20
141.9214
0
VERTEX
8
CUT
10
42.4519
20
142.8675
0
VERTEX
8
CUT
10
42.0571
20
143.7217
0
VERTEX
8
CUT
10
41.9556
20
144.5349
0
VERTEX
8
CUT
10
42.3392
20
145.6907
0
VERTEX
8
CUT
10
42.9279
20
146.2925
0
VERTEX
8
CUT
10
43.7056
20
146.6889
0
VERTEX
8
CUT
10
45.6640
20
146.9899
0
VERTEX
8
CUT
10
46.0464
20
147.0319
0
VERTEX
8
CUT
10
46.0817
20
147.0541
0
VERTEX
8
CUT
10
46.4430
20
147.1096
0
VERTEX
8
CUT
10
46.9733
20
147.4700
0
VERTEX
8
CUT
10
47.1731
20
148.2468
0
VERTEX
8
CUT
10
47.0911
20
148.4390
0
VERTEX
8
CUT
10
47.1055
20
148.5504
0
VERTEX
8
CUT
10
46.9167
20
148.8483
0
VERTEX
8
CUT
10
46.7300
20
149.2862
0
VERTEX
8
CUT
10
45.7515
20
150.4598
0
VERTEX
8
CUT
10
44.3079
20
151.7590
0
VERTEX
8
CUT
10
42.3356
20
153.1373
0
VERTEX
8
CUT
10
34.5936
20
157.6396
0
VERTEX
8
CUT
10
33.2396
20
158.8323
0
VERTEX
8
CUT
10
33.1932
20
158.8732
0
VERTEX
8
CUT
10
32.7129
20
159.2964
0
VERTEX
8
CUT
10
32.5139
20
159.4716
0
VERTEX
8
CUT
10
31.6863
20
160.9997
0
VERTEX
8
CUT
10
31.7109
20
162.8340
0
VERTEX
8
CUT
10
32.1446
20
163.5985
0
VERTEX
8
CUT
10
32.5314
20
163.9395
0
VERTEX
8
CUT
10
32.9252
20
164.1942
0
VERTEX
8
CUT
10
34.5475
20
164.5976
0
VERTEX
8
CUT
10
35.6838
20
164.4801
0
VERTEX
8
CUT
10
39.9306
20
162.9490
0
VERTEX
8
CUT
10
41.0602
20
162.8938
0
VERTEX
8
CUT
10
41.0881
20
162.8890
0
VERTEX
8
CUT
10
41.0957
20
162.8920
0
VERTEX
8
CUT
10
41.2822
20
162.8829
0
VERTEX
8
CUT
10
41.7454
20
163.1495
0
VERTEX
8
CUT
10
41.7458
20
163.1497
0
VERTEX
8
CUT
10
41.7459
20
163.1498
0
VERTEX
8
CUT
10
42.0568
20
163.3287
0
VERTEX
8
CUT
10
42.3233
20
163.8142
0
VERTEX
8
CUT
10
42.3092
20
164.1790
0
VERTEX
8
CUT
10
42.3303
20
164.7258
0
VERTEX
8
CUT
10
42.2842
20
164.8291
0
VERTEX
8
CUT
10
42.2794
20
164.9518
0
VERTEX
8
CUT
10
41.9670
20
165.5394
0
VERTEX
8
CUT
10
41.9514
20
165.5742
0
VERTEX
8
CUT
10
41.9442
20
165.5822
0
VERTEX
8
CUT
10
41.8556
20
165.7489
0
VERTEX
8
CUT
10
40.1706
20
167.6225
0
VERTEX
8
CUT
10
38.8680
20
168.7142
0
VERTEX
8
CUT
10
35.5614
20
171.0973
0
VERTEX
8
CUT
10
30.7589
20
174.1795
0
VERTEX
8
CUT
10
28.9534
20
175.4989
0
VERTEX
8
CUT
10
26.2575
20
177.8163
0
VERTEX
8
CUT
10
24.8472
20
179.3065
0
VERTEX
8
CUT
10
23.5653
20
181.0112
0
VERTEX
8
CUT
10
22.6452
20
182.7213
0
VERTEX
8
CUT
10
22.0220
20
184.5198
0
VERTEX
8
CUT
10
21.6938
20
186.8385
0
VERTEX
8
CUT
10
21.7087
20
188.0119
0
VERTEX
8
CUT
10
22.0390
20
189.4814
0
VERTEX
8
CUT
10
22.6900
20
190.7387
0
VERTEX
8
CUT
10
22.8099
20
190.8924
0
VERTEX
8
CUT
10
23.9903
20
192.0057
0
VERTEX
8
CUT
10
24.0202
20
192.0251
0
VERTEX
8
CUT
10
24.0500
20
192.0445
0
VERTEX
8
CUT
10
24.0814
20
192.0649
0
VERTEX
8
CUT
10
24.1301
20
192.0966
0
VERTEX
8
CUT
10
24.2639
20
192.1498
0
VERTEX
8
CUT
10
24.9224
20
192.3162
0
VERTEX
8
CUT
10
24.9461
20
192.3222
0
VERTEX
8
CUT
10
25.0934
20
192.3595
0
VERTEX
8
CUT
10
25.4150
20
192.4408
0
VERTEX
8
CUT
10
26.9987
20
192.5110
0
VERTEX
8
CUT
10
30.4294
20
191.7582
0
VERTEX
8
CUT
10
31.1804
20
191.5720
0
VERTEX
8
CUT
10
31.3537
20
191.5554
0
VERTEX
8
CUT
10
32.6135
20
191.2790
0
VERTEX
8
CUT
10
33.8074
20
191.9133
0
VERTEX
8
CUT
10
34.3143
20
192.4974
0
VERTEX
8
CUT
10
34.4476
20
192.9242
0
VERTEX
8
CUT
10
34.5408
20
193.1488
0
VERTEX
8
CUT
10
34.5332
20
193.1978
0
VERTEX
8
CUT
10
34.5835
20
193.3590
0
VERTEX
8
CUT
10
34.4095
20
194.3860
0
VERTEX
8
CUT
10
33.8000
20
195.5352
0
VERTEX
8
CUT
10
33.1643
20
196.2523
0
VERTEX
8
CUT
10
33.0473
20
196.4282
0
VERTEX
8
CUT
10
31.5329
20
198.0923
0
VERTEX
8
CUT
10
27.0175
20
203.1854
0
VERTEX
8
CUT
10
24.6723
20
206.4324
0
VERTEX
8
CUT
10
23.8505
20
207.9205
0
VERTEX
8
CUT
10
22.9759
20
210.3478
0
VERTEX
8
CUT
10
22.7649
20
211.2663
0
VERTEX
8
CUT
10
22.6499
20
212.1127
0
VERTEX
8
CUT
10
22.7065
20
214.3208
0
VERTEX
8
CUT
10
22.9378
20
215.2980
0
VERTEX
8
CUT
10
22.9430
20
215.3107
0
VERTEX
8
CUT
10
22.9481
20
215.3232
0
VERTEX
8
CUT
10
22.9517
20
215.3319
0
VERTEX
8
CUT
10
22.9542
20
215.3380
0
VERTEX
8
CUT
10
23.5920
20
216.4004
0
VERTEX
8
CUT
10
24.1089
20
216.9664
0
VERTEX
8
CUT
10
24.6915
20
217.3166
0
VERTEX
8
CUT
10
24.9960
20
217.4385
0
VERTEX
8
CUT
10
25.1077
20
217.4643
0
VERTEX
8
CUT
10
25.2072
20
217.4873
0
VERTEX
8
CUT
10
25.2280
20
217.4921
0
VERTEX
8
CUT
10
25.2850
20
217.5053
0
VERTEX
8
CUT
10
25.9511
20
217.5175
0
VERTEX
8
CUT
10
27.2333
20
217.1973
0
VERTEX
8
CUT
10
27.2691
20
217.1816
0
VERTEX
8
CUT
10
27.9184
20
216.7509
0
VERTEX
8
CUT
10
28.3445
20
216.3853
0
VERTEX
8
CUT
10
28.6209
20
216.0833
0
VERTEX
8
CUT
10
28.6683
20
216.0315
0
VERTEX
8
CUT
10
28.7997
20
215.8880
0
VERTEX
8
CUT
10
28.9664
20
215.7059
0
VERTEX
8
CUT
10
31.4234
20
212.3583
0
VERTEX
8
CUT
10
31.7140
20
212.0681
0
VERTEX
8
CUT
10
31.9236
20
211.7702
0
VERTEX
8
CUT
10
32.3716
20
211.4116
0
VERTEX
8
CUT
10
33.3210
20
210.4636
0
VERTEX
8
CUT
10
34.2234
20
210.0023
0
VERTEX
8
CUT
10
34.6257
20
209.9353
0
VERTEX
8
CUT
10
34.7290
20
209.8912
0
VERTEX
8
CUT
10
34.8444
20
209.8988
0
VERTEX
8
CUT
10
35.0875
20
209.8582
0
VERTEX
8
CUT
10
35.2340
20
209.9244
0
VERTEX
8
CUT
10
35.3212
20
209.9302
0
VERTEX
8
CUT
10
35.4410
20
210.0180
0
VERTEX
8
CUT
10
36.3314
20
210.4205
0
VERTEX
8
CUT
10
36.9309
20
211.2373
0
VERTEX
8
CUT
10
37.2735
20
212.1726
0
VERTEX
8
CUT
10
37.4053
20
213.6698
0
VERTEX
8
CUT
10
37.4137
20
213.7177
0
VERTEX
8
CUT
10
37.4137
20
213.7646
0
VERTEX
8
CUT
10
37.4433
20
214.1011
0
VERTEX
8
CUT
10
37.4147
20
216.3038
0
VERTEX
8
CUT
10
37.1892
20
217.8047
0
VERTEX
8
CUT
10
35.9892
20
220.3923
0
VERTEX
8
CUT
10
32.0111
20
227.2409
0
VERTEX
8
CUT
10
31.1620
20
229.7065
0
VERTEX
8
CUT
10
31.1985
20
231.7935
0
VERTEX
8
CUT
10
32.0473
20
233.2882
0
VERTEX
8
CUT
10
32.0871
20
233.3370
0
VERTEX
8
CUT
10
32.7069
20
233.8158
0
VERTEX
8
CUT
10
33.4605
20
234.0699
0
VERTEX
8
CUT
10
34.2712
20
234.0608
0
VERTEX
8
CUT
10
35.0403
20
233.7942
0
VERTEX
8
CUT
10
36.5227
20
232.6149
0
VERTEX
8
CUT
10
38.8018
20
229.3087
0
VERTEX
8
CUT
10
39.2387
20
228.8829
0
VERTEX
8
CUT
10
39.3118
20
228.7763
0
VERTEX
8
CUT
10
39.9360
20
228.2034
0
VERTEX
8
CUT
10
40.5366
20
227.6180
0
VERTEX
8
CUT
10
40.6270
20
227.5690
0
VERTEX
8
CUT
10
40.7236
20
227.4804
0
VERTEX
8
CUT
10
41.6041
20
227.0504
0
VERTEX
8
CUT
10
42.0735
20
227.0408
0
VERTEX
8
CUT
10
42.1813
20
227.0208
0
VERTEX
8
CUT
10
42.2317
20
227.0376
0
VERTEX
8
CUT
10
42.6414
20
227.0292
0
VERTEX
8
CUT
10
43.1105
20
227.3306
0
VERTEX
8
CUT
10
43.4440
20
227.4418
0
VERTEX
8
CUT
10
44.0824
20
228.1366
0
VERTEX
8
CUT
10
44.1656
20
228.3723
0
VERTEX
8
CUT
10
44.2709
20
228.5117
0
VERTEX
8
CUT
10
44.6344
20
229.4514
0
VERTEX
8
CUT
10
44.6589
20
229.7702
0
VERTEX
8
CUT
10
44.6909
20
229.8607
0
VERTEX
8
CUT
10
44.6792
20
230.0342
0
VERTEX
8
CUT
10
44.7188
20
230.5509
0
VERTEX
8
CUT
10
44.6103
20
231.0544
0
VERTEX
8
CUT
10
44.5397
20
232.0995
0
VERTEX
8
CUT
10
44.1133
20
233.3598
0
VERTEX
8
CUT
10
44.1088
20
233.3808
0
VERTEX
8
CUT
10
44.0994
20
233.4011
0
VERTEX
8
CUT
10
43.6207
20
234.8160
0
VERTEX
8
CUT
10
39.4978
20
242.6763
0
VERTEX
8
CUT
10
38.8575
20
245.1633
0
VERTEX
8
CUT
10
38.9847
20
247.6314
0
VERTEX
8
CUT
10
39.4980
20
248.8084
0
VERTEX
8
CUT
10
39.8262
20
249.2122
0
VERTEX
8
CUT
10
39.9818
20
249.3801
0
VERTEX
8
CUT
10
40.0079
20
249.4008
0
VERTEX
8
CUT
10
40.0175
20
249.4084
0
VERTEX
8
CUT
10
40.0202
20
249.4105
0
VERTEX
8
CUT
10
40.1014
20
249.4749
0
VERTEX
8
CUT
10
41.1147
20
250.0063
0
VERTEX
8
CUT
10
42.3302
20
250.0011
0
VERTEX
8
CUT
10
43.2390
20
249.5318
0
VERTEX
8
CUT
10
44.1481
20
248.6003
0
VERTEX
8
CUT
10
46.4686
20
244.4704
0
VERTEX
8
CUT
10
46.5968
20
244.2297
0
VERTEX
8
CUT
10
46.6161
20
244.2080
0
VERTEX
8
CUT
10
46.8108
20
243.8614
0
VERTEX
8
CUT
10
47.5022
20
243.0501
0
VERTEX
8
CUT
10
48.1527
20
242.6158
0
VERTEX
8
CUT
10
48.4011
20
242.5200
0
VERTEX
8
CUT
10
48.4934
20
242.4673
0
VERTEX
8
CUT
10
48.5553
20
242.4606
0
VERTEX
8
CUT
10
48.8818
20
242.3347
0
VERTEX
8
CUT
10
49.5511
20
242.3516
0
VERTEX
8
CUT
10
49.6356
20
242.3424
0
VERTEX
8
CUT
10
49.6630
20
242.3545
0
VERTEX
8
CUT
10
50.1093
20
242.3658
0
VERTEX
8
CUT
10
50.7754
20
242.7008
0
VERTEX
8
CUT
10
51.0577
20
242.9699
0
VERTEX
8
CUT
10
51.1598
20
243.0149
0
VERTEX
8
CUT
10
51.6625
20
243.5461
0
VERTEX
8
CUT
10
51.8977
20
243.7702
0
VERTEX
8
CUT
10
52.6535
20
245.0899
0
VERTEX
8
CUT
10
52.9941
20
246.7681
0
VERTEX
8
CUT
10
53.0074
20
247.8904
0
VERTEX
8
CUT
10
53.1431
20
249.0188
0
VERTEX
8
CUT
10
53.0475
20
251.2864
0
VERTEX
8
CUT
10
53.1431
20
259.3703
0
VERTEX
8
CUT
10
53.3190
20
261.7396
0
VERTEX
8
CUT
10
53.4670
20
262.4673
0
VERTEX
8
CUT
10
53.4888
20
262.5743
0
VERTEX
8
CUT
10
53.5011
20
262.6348
0
VERTEX
8
CUT
10
53.5208
20
262.7317
0
VERTEX
8
CUT
10
53.9002
20
263.9108
0
VERTEX
8
CUT
10
54.2211
20
264.5657
0
VERTEX
8
CUT
10
54.3200
20
264.7677
0
VERTEX
8
CUT
10
54.3824
20
264.8950
0
VERTEX
8
CUT
10
54.5348
20
265.2061
0
VERTEX
8
CUT
10
55.2718
20
266.3853
0
VERTEX
8
CUT
10
55.3757
20
266.4950
0
VERTEX
8
CUT
10
55.4688
20
266.5933
0
VERTEX
8
CUT
10
55.6311
20
266.7648
0
VERTEX
8
CUT
10
56.1769
20
267.3413
0
VERTEX
8
CUT
10
57.6191
20
268.2077
0
VERTEX
8
CUT
10
58.2506
20
268.3357
0
VERTEX
8
CUT
10
58.3184
20
268.3374
0
VERTEX
8
CUT
10
58.3199
20
268.3374
0
VERTEX
8
CUT
10
58.3338
20
268.3377
0
VERTEX
8
CUT
10
58.4830
20
268.3414
0
VERTEX
8
CUT
10
59.1199
20
268.2334
0
VERTEX
8
CUT
10
60.1744
20
267.6104
0
VERTEX
8
CUT
10
60.8709
20
266.6054
0
VERTEX
8
CUT
10
61.1398
20
265.8660
0
VERTEX
8
CUT
10
61.9144
20
259.9217
0
VERTEX
8
CUT
10
62.7092
20
257.7641
0
VERTEX
8
CUT
10
63.7977
20
256.5520
0
VERTEX
8
CUT
10
64.5230
20
256.2129
0
VERTEX
8
CUT
10
65.3757
20
256.0975
0
VERTEX
8
CUT
10
66.6990
20
256.4473
0
VERTEX
8
CUT
10
67.3641
20
256.9952
0
VERTEX
8
CUT
10
68.5120
20
258.7618
0
VERTEX
8
CUT
10
68.9041
20
259.8939
0
VERTEX
8
CUT
10
69.1589
20
260.5025
0
VERTEX
8
CUT
10
69.7733
20
262.4032
0
VERTEX
8
CUT
10
71.6607
20
267.8522
0
VERTEX
8
CUT
10
72.5402
20
269.7907
0
VERTEX
8
CUT
10
74.6316
20
273.4236
0
VERTEX
8
CUT
10
75.8438
20
275.0886
0
VERTEX
8
CUT
10
78.5165
20
278.0906
0
VERTEX
8
CUT
10
80.9763
20
280.0609
0
VERTEX
8
CUT
10
82.0022
20
280.4924
0
VERTEX
8
CUT
10
82.2429
20
280.5544
0
VERTEX
8
CUT
10
82.3305
20
280.5769
0
VERTEX
8
CUT
10
82.3596
20
280.5844
0
VERTEX
8
CUT
10
82.5517
20
280.6339
0
VERTEX
8
CUT
10
82.9535
20
280.6611
0
VERTEX
8
CUT
10
83.9480
20
280.2560
0
VERTEX
8
CUT
10
84.4455
20
279.5038
0
VERTEX
8
CUT
10
84.5964
20
277.9122
0
VERTEX
8
CUT
10
83.9086
20
274.7391
0
VERTEX
8
CUT
10
83.9608
20
272.8014
0
VERTEX
8
CUT
10
84.6333
20
271.2127
0
VERTEX
8
CUT
10
84.8292
20
271.0635
0
VERTEX
8
CUT
10
84.8412
20
271.0367
0
VERTEX
8
CUT
10
85.3280
20
270.5702
0
VERTEX
8
CUT
10
85.5904
20
270.4841
0
VERTEX
8
CUT
10
85.7993
20
270.3251
0
VERTEX
8
CUT
10
86.1462
20
270.3018
0
VERTEX
8
CUT
10
86.1818
20
270.2901
0
VERTEX
8
CUT
10
86.2264
20
270.2964
0
VERTEX
8
CUT
10
86.8699
20
270.2531
0
VERTEX
8
CUT
10
87.8311
20
270.4529
0
VERTEX
8
CUT
10
89.5656
20
271.3992
0
VERTEX
8
CUT
10
93.2612
20
276.2656
0
VERTEX
8
CUT
10
94.9776
20
278.0066
0
VERTEX
8
CUT
10
95.4421
20
278.2569
0
VERTEX
8
CUT
10
95.6519
20
278.3335
0
VERTEX
8
CUT
10
95.6594
20
278.3363
0
VERTEX
8
CUT
10
95.8453
20
278.4042
0
VERTEX
8
CUT
10
96.1277
20
278.5073
0
VERTEX
8
CUT
10
96.5765
20
278.5858
0
VERTEX
8
CUT
10
97.3185
20
278.4172
0
VERTEX
8
CUT
10
98.0004
20
277.9343
0
VERTEX
8
CUT
10
98.8464
20
276.7560
0
VERTEX
8
CUT
10
99.1554
20
275.0347
0
VERTEX
8
CUT
10
99.0197
20
271.0217
0
VERTEX
8
CUT
10
98.8619
20
267.6041
0
VERTEX
8
CUT
10
98.8993
20
267.4595
0
VERTEX
8
CUT
10
98.8809
20
266.9166
0
VERTEX
8
CUT
10
99.7660
20
265.6988
0
VERTEX
8
CUT
10
100.4930
20
265.4200
0
VERTEX
8
CUT
10
101.1703
20
265.4987
0
VERTEX
8
CUT
10
102.1713
20
266.1109
0
VERTEX
8
CUT
10
103.3541
20
267.5617
0
VERTEX
8
CUT
10
107.4646
20
274.8243
0
VERTEX
8
CUT
10
111.5422
20
280.8619
0
VERTEX
8
CUT
10
112.5604
20
282.0838
0
VERTEX
8
CUT
10
115.9857
20
285.6054
0
VERTEX
8
CUT
10
119.3264
20
288.1777
0
VERTEX
8
CUT
10
119.8790
20
288.5333
0
VERTEX
8
CUT
10
121.9118
20
289.3165
0
VERTEX
8
CUT
10
122.9847
20
289.5519
0
VERTEX
8
CUT
10
123.4386
20
289.5950
0
VERTEX
8
CUT
10
124.1682
20
289.4304
0
VERTEX
8
CUT
10
125.3093
20
288.9124
0
VERTEX
8
CUT
10
126.3552
20
287.7763
0
VERTEX
8
CUT
10
126.7808
20
286.8568
0
VERTEX
8
CUT
10
126.9453
20
285.7385
0
VERTEX
8
CUT
10
126.8572
20
284.9741
0
VERTEX
8
CUT
10
126.2837
20
280.4868
0
VERTEX
8
CUT
10
126.2999
20
280.1403
0
VERTEX
8
CUT
10
126.2571
20
279.7699
0
VERTEX
8
CUT
10
126.3616
20
278.8153
0
VERTEX
8
CUT
10
126.4007
20
277.9765
0
VERTEX
8
CUT
10
126.8948
20
276.8962
0
VERTEX
8
CUT
10
127.6242
20
276.1260
0
VERTEX
8
CUT
10
127.7652
20
276.0518
0
VERTEX
8
CUT
10
127.7695
20
276.0468
0
VERTEX
8
CUT
10
127.8862
20
275.9882
0
VERTEX
8
CUT
10
128.3836
20
275.7267
0
VERTEX
8
CUT
10
128.4085
20
275.7261
0
VERTEX
8
CUT
10
128.4865
20
275.6869
0
VERTEX
8
CUT
10
129.0800
20
275.7088
0
VERTEX
8
CUT
10
129.2330
20
275.7049
0
VERTEX
8
CUT
10
129.2548
20
275.7153
0
VERTEX
8
CUT
10
129.4943
20
275.7241
0
VERTEX
8
CUT
10
130.9671
20
276.4700
0
VERTEX
8
CUT
10
131.0735
20
276.5823
0
VERTEX
8
CUT
10
131.2569
20
276.6697
0
VERTEX
8
CUT
10
132.8127
20
278.2779
0
VERTEX
8
CUT
10
138.1782
20
286.9539
0
VERTEX
8
CUT
10
140.1731
20
289.5572
0
VERTEX
8
CUT
10
141.9679
20
291.5481
0
VERTEX
8
CUT
10
143.9412
20
293.1965
0
VERTEX
8
CUT
10
144.4671
20
293.6024
0
VERTEX
8
CUT
10
144.6039
20
293.7081
0
VERTEX
8
CUT
10
144.6297
20
293.7279
0
VERTEX
8
CUT
10
144.6760
20
293.7637
0
VERTEX
8
CUT
10
145.1311
20
294.0430
0
VERTEX
8
CUT
10
145.3024
20
294.1256
0
VERTEX
8
CUT
10
145.5343
20
294.2374
0
VERTEX
8
CUT
10
146.4202
20
294.6646
0
VERTEX
8
CUT
10
146.7532
20
294.8252
0
VERTEX
8
CUT
10
147.5987
20
295.1461
0
VERTEX
8
CUT
10
149.6209
20
295.3982
0
VERTEX
8
CUT
10
151.6510
20
295.2135
0
VERTEX
8
CUT
10
153.1135
20
294.7259
0
VERTEX
8
CUT
10
153.3342
20
294.6140
0
VERTEX
8
CUT
10
153.6661
20
294.4457
0
VERTEX
8
CUT
10
153.7575
20
294.3993
0
VERTEX
8
CUT
10
153.8133
20
294.3710
0
VERTEX
8
CUT
10
156.5229
20
292.4045
0
VERTEX
8
CUT
10
159.8063
20
288.8493
0
VERTEX
8
CUT
10
163.7827
20
283.3374
0
VERTEX
8
CUT
10
164.9026
20
281.9904
0
VERTEX
8
CUT
10
165.4062
20
281.2967
0
VERTEX
8
CUT
10
165.7066
20
281.0234
0
VERTEX
8
CUT
10
166.2764
20
280.3381
0
VERTEX
8
CUT
10
167.6687
20
279.0714
0
VERTEX
8
CUT
10
169.1226
20
278.4111
0
VERTEX
8
CUT
10
169.4564
20
278.4080
0
VERTEX
8
CUT
10
170.0610
20
278.3277
0
VERTEX
8
CUT
10
170.3275
20
278.3998
0
VERTEX
8
CUT
10
170.5912
20
278.3973
0
VERTEX
8
CUT
10
171.4108
20
278.7225
0
VERTEX
8
CUT
10
172.0575
20
279.3556
0
VERTEX
8
CUT
10
172.2431
20
279.6708
0
VERTEX
8
CUT
10
172.6460
20
280.0189
0
VERTEX
8
CUT
10
172.6174
20
280.5909
0
VERTEX
8
CUT
10
172.7815
20
281.6458
0
VERTEX
8
CUT
10
172.4522
20
284.1698
0
VERTEX
8
CUT
10
172.3976
20
286.3072
0
VERTEX
8
CUT
10
172.8378
20
287.8880
0
VERTEX
8
CUT
10
173.7440
20
288.9143
0
VERTEX
8
CUT
10
174.0504
20
289.0988
0
VERTEX
8
CUT
10
174.9783
20
289.5319
0
VERTEX
8
CUT
10
176.5365
20
289.5868
0
VERTEX
8
CUT
10
179.2324
20
288.5581
0
VERTEX
8
CUT
10
180.9101
20
287.5547
0
VERTEX
8
CUT
10
183.6765
20
285.3376
0
VERTEX
8
CUT
10
184.4666
20
284.5742
0
VERTEX
8
CUT
10
184.6596
20
284.3652
0
VERTEX
8
CUT
10
184.6909
20
284.3312
0
VERTEX
8
CUT
10
184.7183
20
284.3016
0
VERTEX
8
CUT
10
184.9555
20
284.0446
0
VERTEX
8
CUT
10
188.2838
20
280.0422
0
VERTEX
8
CUT
10
191.7851
20
274.5813
0
VERTEX
8
CUT
10
195.4478
20
267.9151
0
VERTEX
8
CUT
10
195.6877
20
267.5744
0
VERTEX
8
CUT
10
195.7437
20
267.4731
0
VERTEX
8
CUT
10
196.0253
20
267.0948
0
VERTEX
8
CUT
10
196.3041
20
266.6989
0
VERTEX
8
CUT
10
196.3482
20
266.6611
0
VERTEX
8
CUT
10
196.4505
20
266.5237
0
VERTEX
8
CUT
10
197.6502
20
265.5466
0
VERTEX
8
CUT
10
197.7195
20
265.4873
0
VERTEX
8
CUT
10
198.2915
20
265.3998
0
VERTEX
8
CUT
10
198.8475
20
265.5726
0
VERTEX
8
CUT
10
199.6637
20
266.3889
0
VERTEX
8
CUT
10
200.0656
20
267.1859
0
VERTEX
8
CUT
10
200.2103
20
268.3618
0
VERTEX
8
CUT
10
199.8294
20
275.2160
0
VERTEX
8
CUT
10
200.1680
20
276.8624
0
VERTEX
8
CUT
10
200.9570
20
277.9251
0
VERTEX
8
CUT
10
202.3684
20
278.5921
0
VERTEX
8
CUT
10
202.3895
20
278.5958
0
VERTEX
8
CUT
10
202.4126
20
278.5997
0
VERTEX
8
CUT
10
202.4507
20
278.6062
0
VERTEX
8
CUT
10
202.4781
20
278.6109
0
VERTEX
8
CUT
10
202.5280
20
278.6075
0
VERTEX
8
CUT
10
202.9839
20
278.4332
0
VERTEX
8
CUT
10
203.0216
20
278.4188
0
VERTEX
8
CUT
10
203.4520
20
278.2542
0
VERTEX
8
CUT
10
204.0006
20
278.0445
0
VERTEX
8
CUT
10
205.7801
20
276.3518
0
VERTEX
8
CUT
10
207.4788
20
274.0943
0
VERTEX
8
CUT
10
208.9148
20
272.1422
0
VERTEX
8
CUT
10
209.0186
20
272.0480
0
VERTEX
8
CUT
10
209.3357
20
271.6267
0
VERTEX
8
CUT
10
211.1441
20
270.5138
0
VERTEX
8
CUT
10
211.3743
20
270.4738
0
VERTEX
8
CUT
10
211.4343
20
270.4404
0
VERTEX
8
CUT
10
211.5621
20
270.4413
0
VERTEX
8
CUT
10
212.7683
20
270.2321
0
VERTEX
8
CUT
10
213.9800
20
270.7323
0
VERTEX
8
CUT
10
214.7264
20
271.6291
0
VERTEX
8
CUT
10
215.1783
20
272.5538
0
VERTEX
8
CUT
10
215.1888
20
274.1749
0
VERTEX
8
CUT
10
215.1913
20
274.2069
0
VERTEX
8
CUT
10
215.1891
20
274.2174
0
VERTEX
8
CUT
10
215.1927
20
274.7808
0
VERTEX
8
CUT
10
214.5095
20
278.7135
0
VERTEX
8
CUT
10
214.5014
20
278.9555
0
VERTEX
8
CUT
10
214.6050
20
279.1518
0
VERTEX
8
CUT
10
215.1442
20
279.9811
0
VERTEX
8
CUT
10
215.8351
20
280.4502
0
VERTEX
8
CUT
10
216.2901
20
280.6750
0
VERTEX
8
CUT
10
217.4080
20
280.4882
0
VERTEX
8
CUT
10
217.4107
20
280.4870
0
VERTEX
8
CUT
10
217.4156
20
280.4849
0
VERTEX
8
CUT
10
217.4271
20
280.4799
0
VERTEX
8
CUT
10
217.4511
20
280.4696
0
VERTEX
8
CUT
10
219.5195
20
279.2162
0
VERTEX
8
CUT
10
219.8313
20
278.9610
0
VERTEX
8
CUT
10
222.1988
20
276.5649
0
VERTEX
8
CUT
10
224.7110
20
273.2073
0
VERTEX
8
CUT
10
225.8723
20
271.2823
0
VERTEX
8
CUT
10
227.5309
20
267.9042
0
VERTEX
8
CUT
10
230.0598
20
260.2904
0
VERTEX
8
CUT
10
230.8255
20
258.4602
0
VERTEX
8
CUT
10
232.0098
20
256.8328
0
VERTEX
8
CUT
10
232.8564
20
256.3334
0
VERTEX
8
CUT
10
233.9993
20
256.1212
0
VERTEX
8
CUT
10
235.1043
20
256.4204
0
VERTEX
8
CUT
10
236.0087
20
257.0298
0
VERTEX
8
CUT
10
236.8205
20
258.0812
0
VERTEX
8
CUT
10
237.5661
20
260.4169
0
VERTEX
8
CUT
10
238.2041
20
266.0108
0
VERTEX
8
CUT
10
239.0517
20
267.4664
0
VERTEX
8
CUT
10
240.2666
20
268.2481
0
VERTEX
8
CUT
10
241.1032
20
268.4017
0
VERTEX
8
CUT
10
242.0217
20
268.1757
0
VERTEX
8
CUT
10
242.9805
20
267.5732
0
VERTEX
8
CUT
10
244.6652
20
265.6061
0
VERTEX
8
CUT
10
245.7504
20
263.2160
0
VERTEX
8
CUT
10
245.8981
20
262.7936
0
VERTEX
8
CUT
10
245.9123
20
262.7531
0
VERTEX
8
CUT
10
245.9323
20
262.6957
0
VERTEX
8
CUT
10
246.0059
20
262.4853
0
VERTEX
8
CUT
10
246.2554
20
260.0616
0
VERTEX
8
CUT
10
246.3284
20
251.9246
0
VERTEX
8
CUT
10
246.3155
20
251.3313
0
VERTEX
8
CUT
10
246.3486
20
249.6679
0
VERTEX
8
CUT
10
246.3744
20
246.7968
0
VERTEX
8
CUT
10
246.7149
20
245.0899
0
VERTEX
8
CUT
10
247.4708
20
243.7702
0
VERTEX
8
CUT
10
248.5931
20
242.7008
0
VERTEX
8
CUT
10
249.2591
20
242.3658
0
VERTEX
8
CUT
10
249.5186
20
242.3592
0
VERTEX
8
CUT
10
249.6123
20
242.3127
0
VERTEX
8
CUT
10
250.4763
20
242.3139
0
VERTEX
8
CUT
10
250.6454
20
242.3959
0
VERTEX
8
CUT
10
251.2157
20
242.6158
0
VERTEX
8
CUT
10
251.8662
20
243.0501
0
VERTEX
8
CUT
10
252.5576
20
243.8614
0
VERTEX
8
CUT
10
254.1706
20
246.6821
0
VERTEX
8
CUT
10
255.3709
20
248.6906
0
VERTEX
8
CUT
10
256.0909
20
249.4272
0
VERTEX
8
CUT
10
257.3324
20
250.0888
0
VERTEX
8
CUT
10
258.1463
20
250.0403
0
VERTEX
8
CUT
10
258.9128
20
249.7091
0
VERTEX
8
CUT
10
259.5052
20
249.2055
0
VERTEX
8
CUT
10
259.9724
20
248.6457
0
VERTEX
8
CUT
10
260.4423
20
247.6861
0
VERTEX
8
CUT
10
260.5712
20
246.5349
0
VERTEX
8
CUT
10
260.1949
20
243.4696
0
VERTEX
8
CUT
10
257.4027
20
237.7627
0
VERTEX
8
CUT
10
255.8941
20
234.8079
0
VERTEX
8
CUT
10
255.7348
20
234.3536
0
VERTEX
8
CUT
10
255.4160
20
233.7020
0
VERTEX
8
CUT
10
254.5967
20
231.2082
0
VERTEX
8
CUT
10
254.7186
20
229.9128
0
VERTEX
8
CUT
10
254.7053
20
229.7272
0
VERTEX
8
CUT
10
254.7429
20
229.6554
0
VERTEX
8
CUT
10
254.7595
20
229.4784
0
VERTEX
8
CUT
10
255.6794
20
227.7937
0
VERTEX
8
CUT
10
256.3540
20
227.1956
0
VERTEX
8
CUT
10
256.8994
20
226.9887
0
VERTEX
8
CUT
10
256.9138
20
226.9790
0
VERTEX
8
CUT
10
256.9250
20
226.9789
0
VERTEX
8
CUT
10
257.0562
20
226.9292
0
VERTEX
8
CUT
10
257.8354
20
226.9844
0
VERTEX
8
CUT
10
258.6445
20
227.3232
0
VERTEX
8
CUT
10
260.3885
20
228.9526
0
VERTEX
8
CUT
10
263.0357
20
232.7457
0
VERTEX
8
CUT
10
263.8721
20
233.5259
0
VERTEX
8
CUT
10
264.5270
20
233.8954
0
VERTEX
8
CUT
10
264.5659
20
233.9139
0
VERTEX
8
CUT
10
265.6009
20
234.1340
0
VERTEX
8
CUT
10
266.6980
20
233.9379
0
VERTEX
8
CUT
10
267.6429
20
233.2863
0
VERTEX
8
CUT
10
267.9313
20
232.9061
0
VERTEX
8
CUT
10
268.2037
20
232.4449
0
VERTEX
8
CUT
10
268.2429
20
232.2871
0
VERTEX
8
CUT
10
268.3307
20
230.3718
0
VERTEX
8
CUT
10
267.9228
20
228.0766
0
VERTEX
8
CUT
10
267.9219
20
228.0736
0
VERTEX
8
CUT
10
267.9213
20
228.0719
0
VERTEX
8
CUT
10
267.9195
20
228.0661
0
VERTEX
8
CUT
10
267.9139
20
228.0488
0
VERTEX
8
CUT
10
266.7104
20
225.5829
0
VERTEX
8
CUT
10
263.6397
20
220.6147
0
VERTEX
8
CUT
10
262.3032
20
217.6372
0
VERTEX
8
CUT
10
261.9220
20
215.7997
0
VERTEX
8
CUT
10
261.8854
20
214.9502
0
VERTEX
8
CUT
10
261.8089
20
214.5461
0
VERTEX
8
CUT
10
261.8281
20
213.6200
0
VERTEX
8
CUT
10
261.8043
20
213.0687
0
VERTEX
8
CUT
10
261.9320
20
212.3230
0
VERTEX
8
CUT
10
262.3879
20
211.5052
0
VERTEX
8
CUT
10
262.4428
20
211.4355
0
VERTEX
8
CUT
10
262.4480
20
211.4188
0
VERTEX
8
CUT
10
262.5291
20
211.3258
0
VERTEX
8
CUT
10
263.0401
20
210.6766
0
VERTEX
8
CUT
10
264.1011
20
209.9563
0
VERTEX
8
CUT
10
264.7806
20
209.9028
0
VERTEX
8
CUT
10
265.4098
20
210.1174
0
VERTEX
8
CUT
10
266.9947
20
211.3537
0
VERTEX
8
CUT
10
270.2140
20
215.1339
0
VERTEX
8
CUT
10
271.4058
20
216.4100
0
VERTEX
8
CUT
10
272.3243
20
217.0878
0
VERTEX
8
CUT
10
273.3063
20
217.4286
0
VERTEX
8
CUT
10
273.9630
20
217.5094
0
VERTEX
8
CUT
10
274.2499
20
217.5056
0
VERTEX
8
CUT
10
274.6745
20
217.3773
0
VERTEX
8
CUT
10
275.9188
20
216.3469
0
VERTEX
8
CUT
10
276.5009
20
215.4646
0
VERTEX
8
CUT
10
277.0479
20
213.4587
0
VERTEX
8
CUT
10
277.0174
20
212.2232
0
VERTEX
8
CUT
10
276.4152
20
209.6348
0
VERTEX
8
CUT
10
275.2866
20
207.1557
0
VERTEX
8
CUT
10
274.1377
20
205.2687
0
VERTEX
8
CUT
10
273.9732
20
205.0458
0
VERTEX
8
CUT
10
273.9669
20
205.0374
0
VERTEX
8
CUT
10
273.9654
20
205.0354
0
VERTEX
8
CUT
10
273.8675
20
204.9027
0
VERTEX
8
CUT
10
272.5435
20
203.1637
0
VERTEX
8
CUT
10
265.6679
20
195.7273
0
VERTEX
8
CUT
10
265.4760
20
195.3247
0
VERTEX
8
CUT
10
265.4578
20
195.3046
0
VERTEX
8
CUT
10
265.4497
20
195.2697
0
VERTEX
8
CUT
10
265.1973
20
194.7402
0
VERTEX
8
CUT
10
265.0842
20
193.7528
0
VERTEX
8
CUT
10
265.0901
20
193.7079
0
VERTEX
8
CUT
10
265.0859
20
193.6894
0
VERTEX
8
CUT
10
265.1831
20
193.0022
0
VERTEX
8
CUT
10
265.1841
20
193.0001
0
VERTEX
8
CUT
10
265.2486
20
192.5144
0
VERTEX
8
CUT
10
265.5760
20
191.9920
0
VERTEX
8
CUT
10
266.1746
20
191.5846
0
VERTEX
8
CUT
10
267.1107
20
191.3094
0
VERTEX
8
CUT
10
268.1282
20
191.3691
0
VERTEX
8
CUT
10
272.5639
20
192.5409
0
VERTEX
8
CUT
10
273.8933
20
192.5687
0
VERTEX
8
CUT
10
275.0360
20
192.2038
0
VERTEX
8
CUT
10
276.6710
20
190.9932
0
VERTEX
8
CUT
10
277.4230
20
189.9545
0
VERTEX
8
CUT
10
277.7745
20
188.6379
0
VERTEX
8
CUT
10
277.8645
20
186.1702
0
VERTEX
8
CUT
10
277.6819
20
184.4800
0
VERTEX
8
CUT
10
277.1466
20
182.9359
0
VERTEX
8
CUT
10
276.0768
20
180.9547
0
VERTEX
8
CUT
10
274.8185
20
179.3435
0
VERTEX
8
CUT
10
273.4217
20
177.7902
0
VERTEX
8
CUT
10
273.1396
20
177.5375
0
VERTEX
8
CUT
10
273.0077
20
177.4232
0
VERTEX
8
CUT
10
272.8182
20
177.2590
0
VERTEX
8
CUT
10
272.6630
20
177.1245
0
VERTEX
8
CUT
10
270.6474
20
175.3778
0
VERTEX
8
CUT
10
269.3343
20
174.3923
0
VERTEX
8
CUT
10
262.5677
20
170.0306
0
VERTEX
8
CUT
10
260.6591
20
168.6002
0
VERTEX
8
CUT
10
259.9878
20
167.9970
0
VERTEX
8
CUT
10
259.5789
20
167.7006
0
VERTEX
8
CUT
10
259.3545
20
167.4279
0
VERTEX
8
CUT
10
259.1773
20
167.2686
0
VERTEX
8
CUT
10
258.0792
20
165.9825
0
VERTEX
8
CUT
10
257.8794
20
165.6357
0
VERTEX
8
CUT
10
257.5858
20
165.2790
0
VERTEX
8
CUT
10
257.2771
20
164.3867
0
VERTEX
8
CUT
10
257.3230
20
164.0303
0
VERTEX
8
CUT
10
257.3206
20
164.0158
0
VERTEX
8
CUT
10
257.3268
20
164.0010
0
VERTEX
8
CUT
10
257.3417
20
163.8855
0
VERTEX
8
CUT
10
257.4245
20
163.7700
0
VERTEX
8
CUT
10
257.5958
20
163.3648
0
VERTEX
8
CUT
10
258.5899
20
162.7632
0
VERTEX
8
CUT
10
259.7313
20
162.8275
0
VERTEX
8
CUT
10
262.6823
20
163.9886
0
VERTEX
8
CUT
10
264.1254
20
164.4897
0
VERTEX
8
CUT
10
264.6887
20
164.6152
0
VERTEX
8
CUT
10
264.6920
20
164.6154
0
VERTEX
8
CUT
10
264.7651
20
164.6217
0
VERTEX
8
CUT
10
264.7861
20
164.6235
0
VERTEX
8
CUT
10
264.7950
20
164.6242
0
VERTEX
8
CUT
10
265.3749
20
164.6278
0
VERTEX
8
CUT
10
266.1493
20
164.4867
0
VERTEX
8
CUT
10
266.2080
20
164.4760
0
VERTEX
8
CUT
10
266.2147
20
164.4748
0
VERTEX
8
CUT
10
266.2192
20
164.4739
0
VERTEX
8
CUT
10
266.4687
20
164.4027
0
VERTEX
8
CUT
10
267.2787
20
163.8534
0
VERTEX
8
CUT
10
267.9801
20
162.6760
0
VERTEX
8
CUT
10
268.0901
20
161.3020
0
VERTEX
8
CUT
10
267.9885
20
160.7690
0
VERTEX
8
CUT
10
267.8050
20
160.4341
0
VERTEX
8
CUT
10
267.8045
20
160.4332
0
VERTEX
8
CUT
10
267.7134
20
160.2669
0
VERTEX
8
CUT
10
266.9058
20
159.2106
0
VERTEX
8
CUT
10
264.9967
20
157.6053
0
VERTEX
8
CUT
10
256.5461
20
152.5825
0
VERTEX
8
CUT
10
254.6168
20
151.1954
0
VERTEX
8
CUT
10
253.4415
20
150.1030
0
VERTEX
8
CUT
10
252.6551
20
148.8066
0
VERTEX
8
CUT
10
252.6505
20
148.6413
0
VERTEX
8
CUT
10
252.4715
20
148.3039
0
VERTEX
8
CUT
10
252.6308
20
147.9322
0
VERTEX
8
CUT
10
252.6260
20
147.7556
0
VERTEX
8
CUT
10
252.7704
20
147.6067
0
VERTEX
8
CUT
10
252.7757
20
147.5942
0
VERTEX
8
CUT
10
252.7891
20
147.5873
0
VERTEX
8
CUT
10
253.1653
20
147.1994
0
VERTEX
8
CUT
10
253.7094
20
146.9911
0
VERTEX
8
CUT
10
254.8746
20
146.8925
0
VERTEX
8
CUT
10
255.9798
20
146.7325
0
VERTEX
8
CUT
10
256.9161
20
146.2397
0
VERTEX
8
CUT
10
257.4095
20
145.5585
0
VERTEX
8
CUT
10
257.6824
20
144.7125
0
VERTEX
8
CUT
10
257.2425
20
142.9184
0
VERTEX
8
CUT
10
257.2405
20
142.9152
0
VERTEX
8
CUT
10
255.7831
20
141.1270
0
VERTEX
8
CUT
10
255.6052
20
140.9515
0
VERTEX
8
CUT
10
254.5152
20
140.0529
0
VERTEX
8
CUT
10
247.8989
20
135.8780
0
VERTEX
8
CUT
10
246.7137
20
134.8960
0
VERTEX
8
CUT
10
246.1648
20
134.1968
0
VERTEX
8
CUT
10
246.1485
20
134.1811
0
VERTEX
8
CUT
10
246.1336
20
134.1571
0
VERTEX
8
CUT
10
245.3639
20
133.1766
0
VERTEX
8
CUT
10
245.2165
20
132.4796
0
VERTEX
8
CUT
10
245.2887
20
132.1800
0
VERTEX
8
CUT
10
245.2833
20
132.1094
0
VERTEX
8
CUT
10
245.3199
20
132.0502
0
VERTEX
8
CUT
10
245.3853
20
131.7787
0
VERTEX
8
CUT
10
246.1069
20
130.9632
0
VERTEX
8
CUT
10
247.0304
20
130.7059
0
VERTEX
8
CUT
10
247.1397
20
130.7251
0
VERTEX
8
CUT
10
247.3290
20
130.6828
0
VERTEX
8
CUT
10
247.7503
20
130.8323
0
VERTEX
8
CUT
10
248.9979
20
131.0513
0
VERTEX
8
CUT
10
253.6482
20
132.8683
0
VERTEX
8
CUT
10
255.0579
20
133.0511
0
VERTEX
8
CUT
10
256.2518
20
132.8588
0
VERTEX
8
CUT
10
257.0652
20
132.4438
0
VERTEX
8
CUT
10
257.2615
20
132.3198
0
VERTEX
8
CUT
10
258.0953
20
131.2214
0
VERTEX
8
CUT
10
258.3244
20
130.1274
0
VERTEX
8
CUT
10
258.3176
20
129.7027
0
VERTEX
8
CUT
10
257.9700
20
128.5918
0
VERTEX
8
CUT
10
257.9699
20
128.5917
0
VERTEX
8
CUT
10
257.9692
20
128.5899
0
VERTEX
8
CUT
10
257.9685
20
128.5882
0
VERTEX
8
CUT
10
257.9580
20
128.5619
0
VERTEX
8
CUT
10
256.9043
20
127.0437
0
VERTEX
8
CUT
10
255.1601
20
125.6756
0
VERTEX
8
CUT
10
254.7770
20
125.4772
0
VERTEX
8
CUT
10
251.5451
20
123.8940
0
VERTEX
8
CUT
10
247.6592
20
122.1957
0
VERTEX
8
CUT
10
245.9150
20
121.1439
0
VERTEX
8
CUT
10
241.9723
20
117.9164
0
VERTEX
8
CUT
10
241.7616
20
117.7097
0
VERTEX
8
CUT
10
240.3235
20
116.5352
0
VERTEX
8
CUT
10
239.5278
20
115.6139
0
VERTEX
8
CUT
10
239.4353
20
115.4281
0
VERTEX
8
CUT
10
239.1971
20
115.1944
0
VERTEX
8
CUT
10
238.9460
20
114.6088
0
VERTEX
8
CUT
10
238.9451
20
113.9222
0
VERTEX
8
CUT
10
239.5440
20
113.0209
0
VERTEX
8
CUT
10
239.5506
20
113.0173
0
VERTEX
8
CUT
10
239.5853
20
112.9522
0
VERTEX
8
CUT
10
239.8842
20
112.8341
0
VERTEX
8
CUT
10
240.5051
20
112.4931
0
VERTEX
8
CUT
10
242.5929
20
111.7634
0
VERTEX
8
CUT
10
243.4222
20
111.4356
0
VERTEX
8
CUT
10
243.7614
20
111.3015
0
VERTEX
8
CUT
10
243.9329
20
111.2338
0
VERTEX
8
CUT
10
243.9846
20
111.2133
0
VERTEX
8
CUT
10
244.7156
20
110.7084
0
VERTEX
8
CUT
10
245.5177
20
109.7251
0
VERTEX
8
CUT
10
245.7650
20
108.5388
0
VERTEX
8
CUT
10
244.7870
20
106.6863
0
VERTEX
8
CUT
10
244.4687
20
106.4451
0
VERTEX
8
CUT
10
244.0958
20
106.1751
0
VERTEX
8
CUT
10
243.9933
20
106.1009
0
VERTEX
8
CUT
10
243.7931
20
105.9559
0
VERTEX
8
CUT
10
243.5395
20
105.7724
0
VERTEX
8
CUT
10
241.9257
20
105.2055
0
VERTEX
8
CUT
10
235.6268
20
104.4255
0
VERTEX
8
CUT
10
233.9673
20
104.0416
0
VERTEX
8
CUT
10
232.6087
20
103.1084
0
VERTEX
8
CUT
10
232.0695
20
102.0298
0
VERTEX
8
CUT
10
232.0966
20
101.8671
0
VERTEX
8
CUT
10
232.0387
20
101.7599
0
VERTEX
8
CUT
10
232.1550
20
101.5165
0
VERTEX
8
CUT
10
232.2628
20
100.8686
0
VERTEX
8
CUT
10
233.3228
20
99.8638
0
VERTEX
8
CUT
10
235.2977
20
98.9724
0
VERTEX
8
CUT
10
238.9916
20
97.9424
0
VERTEX
8
CUT
10
239.2990
20
97.8478
0
VERTEX
8
CUT
10
239.7067
20
97.5692
0
VERTEX
8
CUT
10
240.3118
20
97.0666
0
VERTEX
8
CUT
10
240.9298
20
95.8468
0
VERTEX
8
CUT
10
240.8776
20
95.5154
0
VERTEX
8
CUT
10
240.8377
20
95.3147
0
VERTEX
8
CUT
10
240.5710
20
94.8954
0
VERTEX
8
CUT
10
240.1794
20
94.3942
0
VERTEX
8
CUT
10
236.8067
20
92.1752
0
VERTEX
8
CUT
10
235.7415
20
91.2015
0
VERTEX
8
CUT
10
235.1776
20
90.2153
0
VERTEX
8
CUT
10
235.0084
20
89.1319
0
VERTEX
8
CUT
10
235.1704
20
88.0603
0
VERTEX
8
CUT
10
235.7090
20
87.0513
0
VERTEX
8
CUT
10
236.6511
20
86.1727
0
VERTEX
8
CUT
10
239.6501
20
84.0736
0
VERTEX
8
CUT
10
240.3557
20
82.9301
0
VERTEX
8
CUT
10
240.3046
20
82.3359
0
VERTEX
8
CUT
10
239.5025
20
81.5219
0
VERTEX
8
CUT
10
237.6802
20
80.9058
0
VERTEX
8
CUT
10
236.9910
20
80.4225
0
VERTEX
8
CUT
10
236.9294
20
79.8263
0
VERTEX
8
CUT
10
236.9054
20
79.7326
0
VERTEX
8
CUT
10
236.9137
20
79.6749
0
VERTEX
8
CUT
10
236.8401
20
78.9628
0
VERTEX
8
CUT
10
237.1698
20
77.5867
0
VERTEX
8
CUT
10
238.0165
20
76.3325
0
VERTEX
8
CUT
10
238.1096
20
76.1035
0
VERTEX
8
CUT
10
238.2776
20
75.9457
0
VERTEX
8
CUT
10
238.3401
20
75.8532
0
VERTEX
8
CUT
10
239.1185
20
75.1562
0
VERTEX
8
CUT
10
241.3773
20
73.0353
0
VERTEX
8
CUT
10
242.5525
20
71.7366
0
VERTEX
8
CUT
10
242.9385
20
71.1650
0
VERTEX
8
CUT
10
243.2044
20
70.7504
0
VERTEX
8
CUT
10
243.6558
20
69.2568
0
VERTEX
8
CUT
10
243.6496
20
69.2045
0
VERTEX
8
CUT
10
243.6411
20
69.1329
0
VERTEX
8
CUT
10
243.6381
20
69.1081
0
VERTEX
8
CUT
10
243.6120
20
68.8879
0
VERTEX
8
CUT
10
243.5367
20
68.4448
0
VERTEX
8
CUT
10
243.1809
20
67.9370
0
VERTEX
8
CUT
10
242.5693
20
67.5628
0
VERTEX
8
CUT
10
240.9240
20
67.4590
0
VERTEX
8
CUT
10
239.4782
20
67.8470
0
VERTEX
8
CUT
10
238.9924
20
67.6546
0
VERTEX
8
CUT
10
238.8070
20
67.3242
0
VERTEX
8
CUT
10
239.0744
20
65.5345
0
VERTEX
8
CUT
10
239.0963
20
65.2902
0
VERTEX
8
CUT
10
239.1548
20
64.9958
0
VERTEX
8
CUT
10
239.2426
20
64.4081
0
VERTEX
8
CUT
10
240.8177
20
56.6283
0
VERTEX
8
CUT
10
240.9787
20
55.8178
0
VERTEX
8
CUT
10
241.1476
20
54.9682
0
VERTEX
8
CUT
10
241.4801
20
53.2949
0
VERTEX
8
CUT
10
241.7294
20
52.0404
0
VERTEX
8
CUT
10
242.5562
20
44.3602
0
VERTEX
8
CUT
10
242.6163
20
35.4295
0
VERTEX
8
CUT
10
242.2851
20
30.6329
0
VERTEX
8
CUT
10
241.6720
20
28.0083
0
VERTEX
8
CUT
10
241.5785
20
27.7240
0
VERTEX
8
CUT
10
241.5357
20
27.5937
0
VERTEX
8
CUT
10
241.5294
20
27.5746
0
VERTEX
8
CUT
10
241.3759
20
27.1078
0
VERTEX
8
CUT
10
240.1615
20
25.0385
0
VERTEX
8
CUT
10
238.2114
20
23.3370
0
VERTEX
8
CUT
10
236.3633
20
22.7375
0
VERTEX
8
CUT
10
232.6936
20
23.0766
0
VERTEX
8
CUT
10
228.3213
20
24.8240
0
VERTEX
8
CUT
10
223.7045
20
27.6822
0
VERTEX
8
CUT
10
220.9039
20
29.8091
0
VERTEX
8
CUT
10
218.0439
20
32.0390
0
VERTEX
8
CUT
10
213.0671
20
36.7145
0
VERTEX
8
CUT
10
211.7888
20
38.0112
0
VERTEX
8
CUT
10
206.9013
20
43.2403
0
VERTEX
8
CUT
10
201.4357
20
49.9372
0
VERTEX
8
CUT
10
196.2445
20
57.2099
0
VERTEX
8
CUT
10
193.6604
20
61.1762
0
VERTEX
8
CUT
10
192.2500
20
63.7911
0
VERTEX
8
CUT
10
192.2476
20
63.7990
0
VERTEX
8
CUT
10
192.2459
20
63.8045
0
VERTEX
8
CUT
10
192.2457
20
63.8053
0
VERTEX
8
CUT
10
192.2450
20
63.8076
0
VERTEX
8
CUT
10
191.8551
20
65.3031
0
VERTEX
8
CUT
10
191.6392
20
67.3678
0
VERTEX
8
CUT
10
191.5517
20
69.3462
0
VERTEX
8
CUT
10
191.2823
20
70.4702
0
VERTEX
8
CUT
10
190.6708
20
71.5543
0
VERTEX
8
CUT
10
189.5051
20
72.9578
0
VERTEX
8
CUT
10
188.1779
20
73.9879
0
VERTEX
8
CUT
10
186.8473
20
74.5539
0
VERTEX
8
CUT
10
185.6011
20
74.7264
0
VERTEX
8
CUT
10
184.2566
20
74.4732
0
VERTEX
8
CUT
10
183.2209
20
73.8624
0
VERTEX
8
CUT
10
182.8797
20
73.4662
0
VERTEX
8
CUT
10
182.6257
20
73.2949
0
VERTEX
8
CUT
10
182.4272
20
72.9408
0
VERTEX
8
CUT
10
182.3627
20
72.8660
0
VERTEX
8
CUT
10
182.3307
20
72.7687
0
VERTEX
8
CUT
10
182.1150
20
72.3841
0
VERTEX
8
CUT
10
181.9176
20
71.5149
0
VERTEX
8
CUT
10
181.5941
20
70.5327
0
VERTEX
8
CUT
10
181.7146
20
68.4408
0
VERTEX
8
CUT
10
182.4155
20
66.0769
0
VERTEX
8
CUT
10
183.8207
20
63.1730
0
VERTEX
8
CUT
10
186.0262
20
59.3035
0
VERTEX
8
CUT
10
186.9637
20
57.0355
0
VERTEX
8
CUT
10
187.0280
20
55.9106
0
VERTEX
8
CUT
10
186.2872
20
54.8065
0
VERTEX
8
CUT
10
185.5332
20
54.5334
0
VERTEX
8
CUT
10
185.4871
20
54.5340
0
VERTEX
8
CUT
10
184.6555
20
54.7183
0
VERTEX
8
CUT
10
183.6972
20
55.2586
0
VERTEX
8
CUT
10
182.7248
20
56.1373
0
VERTEX
8
CUT
10
180.5562
20
58.8783
0
VERTEX
8
CUT
10
177.3190
20
64.0966
0
VERTEX
8
CUT
10
176.5371
20
64.8812
0
VERTEX
8
CUT
10
175.7673
20
65.2963
0
VERTEX
8
CUT
10
174.8781
20
65.4608
0
VERTEX
8
CUT
10
174.0012
20
64.9221
0
VERTEX
8
CUT
10
173.9379
20
64.7814
0
VERTEX
8
CUT
10
173.9175
20
64.7672
0
VERTEX
8
CUT
10
173.4351
20
63.8978
0
VERTEX
8
CUT
10
173.1598
20
63.0515
0
VERTEX
8
CUT
10
172.6339
20
61.8825
0
VERTEX
8
CUT
10
171.9301
20
61.0849
0
VERTEX
8
CUT
10
171.0305
20
60.7932
0
VERTEX
8
CUT
10
170.2758
20
61.0189
0
VERTEX
8
CUT
10
169.7514
20
61.4752
0
VERTEX
8
CUT
10
169.7034
20
61.5257
0
VERTEX
8
CUT
10
169.6744
20
61.5563
0
VERTEX
8
CUT
10
169.6389
20
61.5936
0
VERTEX
8
CUT
10
169.4528
20
61.7895
0
VERTEX
8
CUT
10
168.9220
20
62.7108
0
VERTEX
8
CUT
10
168.4652
20
64.0761
0
VERTEX
8
CUT
10
168.1519
20
66.3274
0
VERTEX
8
CUT
10
168.3931
20
69.0764
0
VERTEX
8
CUT
10
169.2660
20
73.3568
0
VERTEX
8
CUT
10
169.2672
20
74.6924
0
VERTEX
8
CUT
10
169.1806
20
75.0173
0
VERTEX
8
CUT
10
169.1741
20
75.1340
0
VERTEX
8
CUT
10
169.1372
20
75.1801
0
VERTEX
8
CUT
10
169.0426
20
75.5354
0
VERTEX
8
CUT
10
168.3200
20
76.2644
0
VERTEX
8
CUT
10
167.8668
20
76.3423
0
VERTEX
8
CUT
10
166.7674
20
75.3104
0
VERTEX
8
CUT
10
166.6563
20
75.2291
0
VERTEX
8
CUT
10
165.7921
20
74.3949
0
VERTEX
8
CUT
10
164.7770
20
73.4421
0
VERTEX
8
CUT
10
164.7134
20
73.4124
0
VERTEX
8
CUT
10
164.1299
20
73.1549
0
VERTEX
8
CUT
10
164.0167
20
73.1619
0
VERTEX
8
CUT
10
163.3154
20
73.6556
0
VERTEX
8
CUT
10
162.8658
20
74.5883
0
VERTEX
8
CUT
10
162.8670
20
75.1889
0
VERTEX
8
CUT
10
163.3418
20
76.4432
0
VERTEX
8
CUT
10
166.7180
20
81.2683
0
VERTEX
8
CUT
10
167.6822
20
83.1387
0
VERTEX
8
CUT
10
168.4158
20
85.2387
0
VERTEX
8
CUT
10
169.3054
20
86.1939
0
VERTEX
8
CUT
10
169.9628
20
86.3036
0
VERTEX
8
CUT
10
170.9251
20
85.8181
0
VERTEX
8
CUT
10
171.1962
20
85.4867
0
VERTEX
8
CUT
10
171.2992
20
85.3607
0
VERTEX
8
CUT
10
171.3184
20
85.3373
0
VERTEX
8
CUT
10
171.6501
20
84.9318
0
VERTEX
8
CUT
10
173.2143
20
82.7814
0
VERTEX
8
CUT
10
174.5267
20
81.6371
0
VERTEX
8
CUT
10
175.4163
20
81.3840
0
VERTEX
8
CUT
10
175.4933
20
81.4280
0
VERTEX
8
CUT
10
175.5186
20
81.4199
0
VERTEX
8
CUT
10
175.5930
20
81.4850
0
VERTEX
8
CUT
10
176.3510
20
81.9181
0
VERTEX
8
CUT
10
176.8562
20
82.6983
0
VERTEX
8
CUT
10
177.0198
20
83.4282
0
VERTEX
8
CUT
10
175.4956
20
87.5005
0
VERTEX
8
CUT
10
175.4637
20
88.3695
0
VERTEX
8
CUT
10
175.8026
20
89.0297
0
VERTEX
8
CUT
10
176.5571
20
89.4673
0
VERTEX
8
CUT
10
177.1111
20
89.3743
0
VERTEX
8
CUT
10
180.3494
20
87.3378
0
VERTEX
8
CUT
10
182.0047
20
86.7959
0
VERTEX
8
CUT
10
182.1730
20
86.8131
0
VERTEX
8
CUT
10
182.2753
20
86.7749
0
VERTEX
8
CUT
10
182.6890
20
86.8660
0
VERTEX
8
CUT
10
182.8242
20
86.8798
0
VERTEX
8
CUT
10
183.5010
20
87.2921
0
VERTEX
8
CUT
10
184.0120
20
88.0035
0
VERTEX
8
CUT
10
184.2391
20
88.8930
0
VERTEX
8
CUT
10
184.2056
20
89.8465
0
VERTEX
8
CUT
10
183.8752
20
90.9255
0
VERTEX
8
CUT
10
183.2050
20
92.2429
0
VERTEX
8
CUT
10
182.5705
20
93.1085
0
VERTEX
8
CUT
10
182.5420
20
93.1609
0
VERTEX
8
CUT
10
182.4708
20
93.2445
0
VERTEX
8
CUT
10
181.0216
20
95.2215
0
VERTEX
8
CUT
10
175.8365
20
101.1916
0
VERTEX
8
CUT
10
173.5449
20
105.2579
0
VERTEX
8
CUT
10
172.3383
20
109.3904
0
VERTEX
8
CUT
10
172.1818
20
112.0452
0
VERTEX
8
CUT
10
172.2480
20
113.2865
0
VERTEX
8
CUT
10
172.7289
20
115.2693
0
VERTEX
8
CUT
10
173.0067
20
115.8040
0
VERTEX
8
CUT
10
173.2529
20
116.1576
0
VERTEX
8
CUT
10
173.9971
20
116.8686
0
VERTEX
8
CUT
10
174.0906
20
117.6505
0
VERTEX
8
CUT
10
174.1157
20
117.7441
0
VERTEX
8
CUT
10
173.5447
20
119.4481
0
VERTEX
8
CUT
10
173.4981
20
119.5321
0
VERTEX
8
CUT
10
173.4872
20
119.5653
0
VERTEX
8
CUT
10
172.1906
20
121.8921
0
VERTEX
8
CUT
10
171.9212
20
122.2118
0
VERTEX
8
CUT
10
171.2583
20
123.0600
0
VERTEX
8
CUT
10
171.0972
20
123.1898
0
VERTEX
8
CUT
10
170.7609
20
123.5891
0
VERTEX
8
CUT
10
169.8463
20
124.1706
0
VERTEX
8
CUT
10
169.4636
20
124.2171
0
VERTEX
8
CUT
10
169.2678
20
124.1279
0
VERTEX
8
CUT
10
169.1949
20
124.1341
0
VERTEX
8
CUT
10
169.1203
20
124.0608
0
VERTEX
8
CUT
10
168.9734
20
123.9940
0
VERTEX
8
CUT
10
168.7334
20
123.6809
0
VERTEX
8
CUT
10
168.3565
20
123.3109
0
VERTEX
8
CUT
10
168.3494
20
123.1801
0
VERTEX
8
CUT
10
168.3132
20
123.1329
0
VERTEX
8
CUT
10
168.3337
20
122.8930
0
VERTEX
8
CUT
10
168.2977
20
122.2358
0
VERTEX
8
CUT
10
168.5279
20
120.6204
0
VERTEX
8
CUT
10
168.7755
20
117.7234
0
VERTEX
8
CUT
10
168.7751
20
117.5426
0
VERTEX
8
CUT
10
168.4745
20
116.8063
0
VERTEX
8
CUT
10
168.4126
20
116.6920
0
VERTEX
8
CUT
10
166.9619
20
115.3440
0
VERTEX
8
CUT
10
166.9543
20
115.3048
0
VERTEX
8
CUT
10
166.8461
20
115.2046
0
VERTEX
8
CUT
10
166.6180
20
114.0370
0
VERTEX
8
CUT
10
167.1508
20
110.1597
0
VERTEX
8
CUT
10
168.2271
20
105.6575
0
VERTEX
8
CUT
10
168.2308
20
105.6403
0
VERTEX
8
CUT
10
168.2447
20
105.5764
0
VERTEX
8
CUT
10
168.2847
20
105.3924
0
VERTEX
8
CUT
10
168.3568
20
105.0604
0
VERTEX
8
CUT
10
168.9897
20
101.2629
0
VERTEX
8
CUT
10
169.1123
20
98.0808
0
VERTEX
8
CUT
10
168.6439
20
95.8277
0
VERTEX
8
CUT
10
167.8963
20
94.9009
0
VERTEX
8
CUT
10
167.8962
20
94.9008
0
VERTEX
8
CUT
10
167.8954
20
94.9005
0
VERTEX
8
CUT
10
167.8700
20
94.8884
0
VERTEX
8
CUT
10
167.5554
20
94.7393
0
VERTEX
8
CUT
10
166.7681
20
94.5393
0
VERTEX
8
CUT
10
166.7333
20
94.5357
0
VERTEX
8
CUT
10
166.7222
20
94.5346
0
VERTEX
8
CUT
10
166.7174
20
94.5341
0
VERTEX
8
CUT
10
166.7035
20
94.5327
0
VERTEX
8
CUT
10
165.8310
20
94.8679
0
VERTEX
8
CUT
10
164.4977
20
95.9582
0
VERTEX
8
CUT
10
163.5231
20
97.4897
0
VERTEX
8
CUT
10
163.3247
20
97.8312
0
VERTEX
8
CUT
10
159.9361
20
106.4223
0
VERTEX
8
CUT
10
158.8503
20
108.3082
0
VERTEX
8
CUT
10
158.2561
20
109.0175
0
VERTEX
8
CUT
10
157.1853
20
109.6624
0
VERTEX
8
CUT
10
156.8922
20
109.6550
0
VERTEX
8
CUT
10
156.6717
20
109.7732
0
VERTEX
8
CUT
10
156.2986
20
109.6401
0
VERTEX
8
CUT
10
156.1162
20
109.6356
0
VERTEX
8
CUT
10
155.8913
20
109.4949
0
VERTEX
8
CUT
10
155.6013
20
109.3915
0
VERTEX
8
CUT
10
155.3783
20
109.1740
0
VERTEX
8
CUT
10
155.2750
20
109.1094
0
VERTEX
8
CUT
10
155.2221
20
109.0217
0
VERTEX
8
CUT
10
154.8662
20
108.6746
0
VERTEX
8
CUT
10
154.3459
20
107.6488
0
VERTEX
8
CUT
10
154.1076
20
106.3608
0
VERTEX
8
CUT
10
154.1363
20
106.1054
0
VERTEX
8
CUT
10
154.1658
20
104.3044
0
VERTEX
8
CUT
10
154.6035
20
101.9401
0
VERTEX
8
CUT
10
155.6555
20
99.1728
0
VERTEX
8
CUT
10
159.5916
20
91.7610
0
VERTEX
8
CUT
10
159.8484
20
91.2459
0
VERTEX
8
CUT
10
159.9629
20
91.0164
0
VERTEX
8
CUT
10
160.0682
20
90.8052
0
VERTEX
8
CUT
10
160.5900
20
89.7587
0
VERTEX
8
CUT
10
161.4430
20
86.9880
0
VERTEX
8
CUT
10
161.4964
20
86.5142
0
VERTEX
8
CUT
10
161.4664
20
84.3571
0
VERTEX
8
CUT
10
161.3473
20
83.9343
0
VERTEX
8
CUT
10
161.1835
20
83.4214
0
VERTEX
8
CUT
10
160.6702
20
82.6605
0
VERTEX
8
CUT
10
159.7005
20
81.9165
0
VERTEX
8
CUT
10
159.0919
20
81.8078
0
VERTEX
8
CUT
10
158.0639
20
82.0880
0
VERTEX
8
CUT
10
157.4061
20
82.5104
0
VERTEX
8
CUT
10
154.8044
20
85.0508
0
VERTEX
8
CUT
10
154.3830
20
85.3282
0
VERTEX
8
CUT
10
154.3643
20
85.3460
0
VERTEX
8
CUT
10
154.3272
20
85.3650
0
VERTEX
8
CUT
10
153.9575
20
85.6084
0
VERTEX
8
CUT
10
153.8222
20
85.6232
0
VERTEX
8
CUT
10
153.7337
20
85.6684
0
VERTEX
8
CUT
10
153.6473
20
85.6424
0
VERTEX
8
CUT
10
153.2971
20
85.6808
0
VERTEX
8
CUT
10
152.7640
20
85.2769
0
VERTEX
8
CUT
10
152.4449
20
84.6361
0
VERTEX
8
CUT
10
152.3310
20
83.5900
0
VERTEX
8
CUT
10
153.1120
20
77.8115
0
VERTEX
8
CUT
10
153.1422
20
75.7293
0
VERTEX
8
CUT
10
152.9002
20
73.9584
0
VERTEX
8
CUT
10
152.6854
20
73.2884
0
VERTEX
8
CUT
10
152.4472
20
72.8936
0
VERTEX
8
CUT
10
152.0232
20
72.2566
0
VERTEX
8
CUT
10
151.8377
20
72.1181
0
VERTEX
8
CUT
10
151.8077
20
72.0957
0
VERTEX
8
CUT
10
151.4818
20
71.8524
0
VERTEX
8
CUT
10
150.8711
20
71.3966
0
VERTEX
8
CUT
10
150.2689
20
71.1824
0
VERTEX
8
CUT
10
149.8354
20
71.1460
0
VERTEX
8
CUT
10
149.8345
20
71.1459
0
VERTEX
8
CUT
10
149.8082
20
71.1437
0
VERTEX
8
CUT
10
149.5342
20
71.1207
0
VERTEX
8
CUT
10
149.2752
20
71.1537
0
VERTEX
8
CUT
10
148.6231
20
71.5280
0
VERTEX
8
CUT
10
147.8950
20
72.0791
0
VERTEX
8
CUT
10
147.4825
20
72.6353
0
VERTEX
8
CUT
10
147.2580
20
72.9900
0
VERTEX
8
CUT
10
146.6859
20
74.9465
0
VERTEX
8
CUT
10
146.6196
20
77.4455
0
VERTEX
8
CUT
10
147.1445
20
81.8162
0
VERTEX
8
CUT
10
147.3367
20
82.9673
0
VERTEX
8
CUT
10
147.3086
20
84.2707
0
VERTEX
8
CUT
10
147.2256
20
84.5082
0
VERTEX
8
CUT
10
147.2254
20
84.5115
0
VERTEX
8
CUT
10
147.2152
20
84.5379
0
VERTEX
8
CUT
10
147.0086
20
85.1286
0
VERTEX
8
CUT
10
146.9794
20
85.1499
0
VERTEX
8
CUT
10
146.9482
20
85.2306
0
VERTEX
8
CUT
10
146.4836
20
85.5098
0
VERTEX
8
CUT
10
146.3116
20
85.6346
0
VERTEX
8
CUT
10
146.2816
20
85.6311
0
VERTEX
8
CUT
10
146.1280
20
85.7233
0
VERTEX
8
CUT
10
145.4137
20
85.4946
0
VERTEX
8
CUT
10
144.7214
20
84.8323
0
VERTEX
8
CUT
10
144.4792
20
84.6333
0
VERTEX
8
CUT
10
144.3637
20
84.4902
0
VERTEX
8
CUT
10
142.3353
20
82.5499
0
VERTEX
8
CUT
10
140.8913
20
81.8651
0
VERTEX
8
CUT
10
140.2363
20
81.8873
0
VERTEX
8
CUT
10
139.1390
20
82.6122
0
VERTEX
8
CUT
10
138.2496
20
84.0835
0
VERTEX
8
CUT
10
138.0798
20
85.1014
0
VERTEX
8
CUT
10
138.3476
20
87.5137
0
VERTEX
8
CUT
10
138.8786
20
89.0534
0
VERTEX
8
CUT
10
140.6049
20
92.7440
0
VERTEX
8
CUT
10
140.6577
20
92.8426
0
VERTEX
8
CUT
10
140.7175
20
92.9544
0
VERTEX
8
CUT
10
140.7903
20
93.0904
0
VERTEX
8
CUT
10
140.8771
20
93.2525
0
VERTEX
8
CUT
10
143.6343
20
98.3550
0
VERTEX
8
CUT
10
145.1469
20
102.2084
0
VERTEX
8
CUT
10
145.6533
20
105.3500
0
VERTEX
8
CUT
10
145.5052
20
106.9969
0
VERTEX
8
CUT
10
145.1351
20
108.2221
0
VERTEX
8
CUT
10
144.5335
20
109.1387
0
VERTEX
8
CUT
10
143.7388
20
109.6455
0
VERTEX
8
CUT
10
143.0104
20
109.7288
0
VERTEX
8
CUT
10
142.2407
20
109.4869
0
VERTEX
8
CUT
10
141.2843
20
108.7674
0
VERTEX
8
CUT
10
140.4247
20
107.5339
0
VERTEX
8
CUT
10
139.7473
20
106.0942
0
VERTEX
8
CUT
10
136.7358
20
98.5376
0
VERTEX
8
CUT
10
135.3987
20
96.0735
0
VERTEX
8
CUT
10
135.3854
20
96.0591
0
VERTEX
8
CUT
10
135.3406
20
96.0106
0
VERTEX
8
CUT
10
135.3331
20
96.0024
0
VERTEX
8
CUT
10
135.1455
20
95.7988
0
VERTEX
8
CUT
10
134.3679
20
95.0725
0
VERTEX
8
CUT
10
134.0148
20
94.8670
0
VERTEX
8
CUT
10
134.0120
20
94.8653
0
VERTEX
8
CUT
10
133.9823
20
94.8481
0
VERTEX
8
CUT
10
133.5882
20
94.6187
0
VERTEX
8
CUT
10
133.4227
20
94.5679
0
VERTEX
8
CUT
10
132.8864
20
94.6048
0
VERTEX
8
CUT
10
132.5478
20
94.6652
0
VERTEX
8
CUT
10
131.8801
20
95.0529
0
VERTEX
8
CUT
10
131.8478
20
95.0762
0
VERTEX
8
CUT
10
131.8332
20
95.0868
0
VERTEX
8
CUT
10
131.8124
20
95.1017
0
VERTEX
8
CUT
10
131.6712
20
95.2037
0
VERTEX
8
CUT
10
131.0881
20
95.9725
0
VERTEX
8
CUT
10
130.7128
20
97.0982
0
VERTEX
8
CUT
10
130.6505
20
99.1785
0
VERTEX
8
CUT
10
130.7019
20
100.8203
0
VERTEX
8
CUT
10
131.3723
20
104.9389
0
VERTEX
8
CUT
10
132.5143
20
109.9620
0
VERTEX
8
CUT
10
132.7232
20
110.7935
0
VERTEX
8
CUT
10
132.7449
20
110.9761
0
VERTEX
8
CUT
10
133.0241
20
112.2044
0
VERTEX
8
CUT
10
133.1168
20
114.2584
0
VERTEX
8
CUT
10
132.7004
20
115.6236
0
VERTEX
8
CUT
10
131.4065
20
116.6274
0
VERTEX
8
CUT
10
130.9835
20
117.3978
0
VERTEX
8
CUT
10
130.9551
20
117.8610
0
VERTEX
8
CUT
10
131.1038
20
119.8424
0
VERTEX
8
CUT
10
131.3992
20
122.1007
0
VERTEX
8
CUT
10
131.3144
20
122.6463
0
VERTEX
8
CUT
10
131.3356
20
122.9289
0
VERTEX
8
CUT
10
131.2156
20
123.2818
0
VERTEX
8
CUT
10
131.1327
20
123.8155
0
VERTEX
8
CUT
10
130.7964
20
124.1230
0
VERTEX
8
CUT
10
130.5614
20
124.1251
0
VERTEX
8
CUT
10
130.3488
20
124.2309
0
VERTEX
8
CUT
10
129.6909
20
123.9618
0
VERTEX
8
CUT
10
129.5820
20
123.8519
0
VERTEX
8
CUT
10
128.8049
20
123.4556
0
VERTEX
8
CUT
10
127.1525
20
121.2352
0
VERTEX
8
CUT
10
126.6340
20
120.1582
0
VERTEX
8
CUT
10
126.4925
20
119.9456
0
VERTEX
8
CUT
10
126.0843
20
119.0162
0
VERTEX
8
CUT
10
125.9636
20
118.7654
0
VERTEX
8
CUT
10
125.9406
20
118.6889
0
VERTEX
8
CUT
10
125.6474
20
118.0213
0
VERTEX
8
CUT
10
125.6758
20
117.8089
0
VERTEX
8
CUT
10
125.5773
20
117.4819
0
VERTEX
8
CUT
10
125.7055
20
117.0110
0
VERTEX
8
CUT
10
126.6635
20
115.7958
0
VERTEX
8
CUT
10
126.9739
20
115.2418
0
VERTEX
8
CUT
10
127.3951
20
113.4466
0
VERTEX
8
CUT
10
127.3635
20
109.6116
0
VERTEX
8
CUT
10
126.5963
20
106.1669
0
VERTEX
8
CUT
10
125.9209
20
104.5176
0
VERTEX
8
CUT
10
123.8176
20
101.1226
0
VERTEX
8
CUT
10
118.8600
20
95.3438
0
VERTEX
8
CUT
10
117.0600
20
92.8204
0
VERTEX
8
CUT
10
116.8485
20
92.5330
0
VERTEX
8
CUT
10
116.8321
20
92.5009
0
VERTEX
8
CUT
10
116.5864
20
92.1565
0
VERTEX
8
CUT
10
115.9166
20
90.7773
0
VERTEX
8
CUT
10
115.6101
20
89.6522
0
VERTEX
8
CUT
10
115.5821
20
88.7059
0
VERTEX
8
CUT
10
115.6859
20
88.4222
0
VERTEX
8
CUT
10
115.7003
20
88.2487
0
VERTEX
8
CUT
10
115.8030
20
88.1023
0
VERTEX
8
CUT
10
115.8872
20
87.8724
0
VERTEX
8
CUT
10
116.5060
20
87.1624
0
VERTEX
8
CUT
10
117.2025
20
86.7037
0
VERTEX
8
CUT
10
117.8827
20
86.5917
0
VERTEX
8
CUT
10
119.2753
20
87.1487
0
VERTEX
8
CUT
10
122.6341
20
89.3087
0
VERTEX
8
CUT
10
123.3619
20
89.4105
0
VERTEX
8
CUT
10
124.1314
20
89.0949
0
VERTEX
8
CUT
10
124.4193
20
88.5785
0
VERTEX
8
CUT
10
124.4216
20
88.5170
0
VERTEX
8
CUT
10
124.4271
20
88.3712
0
VERTEX
8
CUT
10
124.4300
20
88.2924
0
VERTEX
8
CUT
10
124.4427
20
87.9555
0
VERTEX
8
CUT
10
124.4419
20
87.9406
0
VERTEX
8
CUT
10
123.0868
20
84.4765
0
VERTEX
8
CUT
10
122.8295
20
83.3004
0
VERTEX
8
CUT
10
122.8999
20
83.0595
0
VERTEX
8
CUT
10
122.8863
20
82.9681
0
VERTEX
8
CUT
10
122.9997
20
82.7184
0
VERTEX
8
CUT
10
123.1461
20
82.2183
0
VERTEX
8
CUT
10
123.5948
20
81.6959
0
VERTEX
8
CUT
10
124.1455
20
81.4072
0
VERTEX
8
CUT
10
124.7482
20
81.4525
0
VERTEX
8
CUT
10
126.1238
20
82.4236
0
VERTEX
8
CUT
10
126.2900
20
82.6042
0
VERTEX
8
CUT
10
126.3582
20
82.6564
0
VERTEX
8
CUT
10
126.4579
20
82.7867
0
VERTEX
8
CUT
10
127.1562
20
83.5455
0
VERTEX
8
CUT
10
127.9123
20
84.6873
0
VERTEX
8
CUT
10
128.5945
20
85.5788
0
VERTEX
8
CUT
10
129.2275
20
86.1065
0
VERTEX
8
CUT
10
129.7002
20
86.3018
0
VERTEX
8
CUT
10
130.0321
20
86.3436
0
VERTEX
8
CUT
10
130.5648
20
86.1390
0
VERTEX
8
CUT
10
131.4816
20
85.0504
0
VERTEX
8
CUT
10
132.8644
20
81.6257
0
VERTEX
8
CUT
10
136.2800
20
76.6304
0
VERTEX
8
CUT
10
136.7991
20
75.3490
0
VERTEX
8
CUT
10
136.8841
20
74.4996
0
VERTEX
8
CUT
10
136.8732
20
74.2853
0
VERTEX
8
CUT
10
136.2092
20
73.3325
0
VERTEX
8
CUT
10
136.1948
20
73.3240
0
VERTEX
8
CUT
10
136.1916
20
73.3222
0
VERTEX
8
CUT
10
136.1834
20
73.3174
0
VERTEX
8
CUT
10
136.1719
20
73.3107
0
VERTEX
8
CUT
10
135.4453
20
73.2386
0
VERTEX
8
CUT
10
134.6668
20
73.7105
0
VERTEX
8
CUT
10
134.6209
20
73.7494
0
VERTEX
8
CUT
10
134.6201
20
73.7501
0
VERTEX
8
CUT
10
134.6166
20
73.7530
0
VERTEX
8
CUT
10
134.6056
20
73.7623
0
VERTEX
8
CUT
10
133.1339
20
75.2287
0
VERTEX
8
CUT
10
132.0098
20
76.0347
0
VERTEX
8
CUT
10
131.3312
20
76.0277
0
VERTEX
8
CUT
10
130.6008
20
75.3852
0
VERTEX
8
CUT
10
130.4025
20
74.5921
0
VERTEX
8
CUT
10
130.4231
20
73.8653
0
VERTEX
8
CUT
10
130.4091
20
73.6831
0
VERTEX
8
CUT
10
130.4308
20
73.5970
0
VERTEX
8
CUT
10
130.4335
20
73.5020
0
VERTEX
8
CUT
10
131.3331
20
69.0052
0
VERTEX
8
CUT
10
131.5179
20
66.9711
0
VERTEX
8
CUT
10
131.3663
20
64.2768
0
VERTEX
8
CUT
10
130.7869
20
62.4936
0
VERTEX
8
CUT
10
130.1722
20
61.6415
0
VERTEX
8
CUT
10
130.1082
20
61.5871
0
VERTEX
8
CUT
10
130.0824
20
61.5652
0
VERTEX
8
CUT
10
130.0528
20
61.5400
0
VERTEX
8
CUT
10
129.8441
20
61.3627
0
VERTEX
8
CUT
10
129.4250
20
61.0195
0
VERTEX
8
CUT
10
128.6299
20
60.7826
0
VERTEX
8
CUT
10
127.9061
20
60.9724
0
VERTEX
8
CUT
10
127.4810
20
61.3199
0
VERTEX
8
CUT
10
127.1589
20
61.6428
0
VERTEX
8
CUT
10
126.9353
20
61.9917
0
VERTEX
8
CUT
10
126.7586
20
62.4067
0
VERTEX
8
CUT
10
126.5087
20
63.6820
0
VERTEX
8
CUT
10
125.8406
20
64.7779
0
VERTEX
8
CUT
10
125.6978
20
64.8970
0
VERTEX
8
CUT
10
125.6791
20
64.9410
0
VERTEX
8
CUT
10
125.3715
20
65.1693
0
VERTEX
8
CUT
10
124.9581
20
65.5142
0
VERTEX
8
CUT
10
123.9154
20
65.3141
0
VERTEX
8
CUT
10
122.9824
20
64.6388
0
VERTEX
8
CUT
10
121.9980
20
63.4763
0
VERTEX
8
CUT
10
118.2203
20
57.4476
0
VERTEX
8
CUT
10
117.6071
20
56.6417
0
VERTEX
8
CUT
10
116.0910
20
55.2691
0
VERTEX
8
CUT
10
114.7489
20
54.6209
0
VERTEX
8
CUT
10
113.8571
20
54.6415
0
VERTEX
8
CUT
10
113.0800
20
55.4044
0
VERTEX
8
CUT
10
112.8595
20
55.9466
0
VERTEX
8
CUT
10
112.9469
20
57.3390
0
VERTEX
8
CUT
10
113.6809
20
59.1689
0
VERTEX
8
CUT
10
117.2250
20
65.8712
0
VERTEX
8
CUT
10
118.1594
20
69.2215
0
VERTEX
8
CUT
10
118.1903
20
70.6699
0
VERTEX
8
CUT
10
117.9100
20
71.8468
0
VERTEX
8
CUT
10
117.3288
20
72.9285
0
VERTEX
8
CUT
10
116.5062
20
73.8380
0
VERTEX
8
CUT
10
115.7141
20
74.3369
0
VERTEX
8
CUT
10
115.1800
20
74.4265
0
VERTEX
8
CUT
10
115.0909
20
74.4631
0
VERTEX
8
CUT
10
114.6105
20
74.5220
0
VERTEX
8
CUT
10
113.9209
20
74.6378
0
VERTEX
8
CUT
10
112.0276
20
74.1346
0
VERTEX
8
CUT
10
111.0337
20
73.5856
0
VERTEX
8
CUT
10
110.0787
20
72.8165
0
VERTEX
8
CUT
10
108.3843
20
70.7269
0
VERTEX
8
CUT
10
107.7774
20
65.7982
0
VERTEX
8
CUT
10
105.6161
20
60.9324
0
VERTEX
8
CUT
10
102.1501
20
55.2387
0
VERTEX
8
CUT
10
97.7179
20
49.1109
0
VERTEX
8
CUT
10
97.6253
20
48.9923
0
VERTEX
8
CUT
10
92.4187
20
42.7382
0
VERTEX
8
CUT
10
87.3043
20
37.3246
0
VERTEX
8
CUT
10
87.0707
20
37.0862
0
VERTEX
8
CUT
10
87.0115
20
37.0258
0
VERTEX
8
CUT
10
86.9142
20
36.9264
0
VERTEX
8
CUT
10
86.5694
20
36.5746
0
VERTEX
8
CUT
10
81.0209
20
31.4605
0
VERTEX
8
CUT
10
75.4412
20
27.2357
0
VERTEX
8
CUT
10
74.5583
20
26.6887
0
VERTEX
8
CUT
10
72.5911
20
25.5029
0
VERTEX
8
CUT
10
69.4140
20
23.9006
0
VERTEX
8
CUT
10
67.3880
20
23.1640
0
VERTEX
8
CUT
10
65.3748
20
22.7271
0
VERTEX
8
CUT
10
63.7865
20
22.6766
0
VERTEX
8
CUT
10
63.1786
20
22.7802
0
VERTEX
8
CUT
10
62.7741
20
22.8740
0
VERTEX
8
CUT
10
61.1903
20
23.6005
0
VERTEX
8
CUT
10
59.6718
20
24.9389
0
VERTEX
8
CUT
10
59.4667
20
25.2432
0
VERTEX
8
CUT
10
59.1913
20
25.7143
0
VERTEX
8
CUT
10
59.1182
20
25.8393
0
VERTEX
8
CUT
10
59.0517
20
25.9530
0
VERTEX
8
CUT
10
58.7972
20
26.3884
0
VERTEX
8
CUT
10
58.2670
20
27.6323
0
VERTEX
8
CUT
10
57.7450
20
29.7573
0
VERTEX
8
CUT
10
57.4139
20
32.2914
0
VERTEX
8
CUT
10
57.1432
20
38.8614
0
VERTEX
8
CUT
10
57.4458
20
47.0357
0
VERTEX
8
CUT
10
58.1095
20
52.3107
0
VERTEX
8
CUT
10
60.6066
20
64.6476
0
VERTEX
8
CUT
10
60.7618
20
66.2643
0
VERTEX
8
CUT
10
60.8385
20
66.6542
0
VERTEX
8
CUT
10
60.8146
20
66.8146
0
VERTEX
8
CUT
10
60.8658
20
67.3472
0
VERTEX
8
CUT
10
60.4134
20
67.6394
0
VERTEX
8
CUT
10
60.1820
20
67.6216
0
VERTEX
8
CUT
10
60.1817
20
67.6218
0
SEQEND
0
POLYLINE
8
CUT
66
1
70
1
10
0.0
20
0.0
30
0.0
0
VERTEX
8
CUT
10
183.4516
20
101.2329
0
VERTEX
8
CUT
10
184.9511
20
99.5865
0
VERTEX
8
CUT
10
186.4795
20
98.3194
0
VERTEX
8
CUT
10
187.7508
20
97.6496
0
VERTEX
8
CUT
10
188.6988
20
97.4474
0
VERTEX
8
CUT
10
188.7331
20
97.4316
0
VERTEX
8
CUT
10
188.7836
20
97.4293
0
VERTEX
8
CUT
10
189.3993
20
97.2980
0
VERTEX
8
CUT
10
190.3742
20
97.4370
0
VERTEX
8
CUT
10
191.3732
20
98.2364
0
VERTEX
8
CUT
10
191.5069
20
99.4327
0
VERTEX
8
CUT
10
190.8481
20
100.6418
0
VERTEX
8
CUT
10
189.0207
20
102.8088
0
VERTEX
8
CUT
10
188.3471
20
103.7504
0
VERTEX
8
CUT
10
188.1784
20
104.0611
0
VERTEX
8
CUT
10
188.1730
20
104.1043
0
VERTEX
8
CUT
10
188.1236
20
104.4999
0
VERTEX
8
CUT
10
188.1025
20
104.6691
0
VERTEX
8
CUT
10
188.0779
20
104.8669
0
VERTEX
8
CUT
10
188.0756
20
105.0978
0
VERTEX
8
CUT
10
188.8076
20
106.0325
0
VERTEX
8
CUT
10
189.4441
20
106.2452
0
VERTEX
8
CUT
10
189.8084
20
106.1956
0
VERTEX
8
CUT
10
189.9932
20
106.1705
0
VERTEX
8
CUT
10
190.1479
20
106.1495
0
VERTEX
8
CUT
10
190.4883
20
106.1032
0
VERTEX
8
CUT
10
190.5243
20
106.0962
0
VERTEX
8
CUT
10
195.2166
20
103.9241
0
VERTEX
8
CUT
10
196.4202
20
103.7313
0
VERTEX
8
CUT
10
197.4921
20
103.9426
0
VERTEX
8
CUT
10
198.5468
20
104.7076
0
VERTEX
8
CUT
10
198.9670
20
105.4622
0
VERTEX
8
CUT
10
199.0154
20
106.0207
0
VERTEX
8
CUT
10
199.0363
20
106.0758
0
VERTEX
8
CUT
10
199.0243
20
106.1238
0
VERTEX
8
CUT
10
199.0319
20
106.2114
0
VERTEX
8
CUT
10
198.4124
20
108.3459
0
VERTEX
8
CUT
10
198.2272
20
109.7155
0
VERTEX
8
CUT
10
198.4418
20
110.4300
0
VERTEX
8
CUT
10
199.0579
20
111.0716
0
VERTEX
8
CUT
10
199.9297
20
111.5144
0
VERTEX
8
CUT
10
200.9512
20
111.6976
0
VERTEX
8
CUT
10
207.1403
20
110.5853
0
VERTEX
8
CUT
10
208.7519
20
110.5838
0
VERTEX
8
CUT
10
210.0561
20
110.8441
0
VERTEX
8
CUT
10
211.0896
20
111.4425
0
VERTEX
8
CUT
10
212.0203
20
112.5165
0
VERTEX
8
CUT
10
212.2740
20
113.4610
0
VERTEX
8
CUT
10
212.3071
20
116.3752
0
VERTEX
8
CUT
10
212.5998
20
117.0645
0
VERTEX
8
CUT
10
213.1050
20
117.6388
0
VERTEX
8
CUT
10
214.7602
20
118.4322
0
VERTEX
8
CUT
10
219.4535
20
119.3283
0
VERTEX
8
CUT
10
221.1890
20
119.8845
0
VERTEX
8
CUT
10
222.5371
20
120.6406
0
VERTEX
8
CUT
10
223.6830
20
121.6417
0
VERTEX
8
CUT
10
224.5687
20
123.0560
0
VERTEX
8
CUT
10
224.6260
20
124.4798
0
VERTEX
8
CUT
10
223.8421
20
125.8765
0
VERTEX
8
CUT
10
220.7578
20
128.6366
0
VERTEX
8
CUT
10
220.2724
20
130.0661
0
VERTEX
8
CUT
10
220.5723
20
130.9638
0
VERTEX
8
CUT
10
221.4918
20
131.8224
0
VERTEX
8
CUT
10
223.8387
20
133.1461
0
VERTEX
8
CUT
10
228.5463
20
134.8206
0
VERTEX
8
CUT
10
231.4048
20
136.1034
0
VERTEX
8
CUT
10
233.7248
20
137.5655
0
VERTEX
8
CUT
10
235.3207
20
139.1066
0
VERTEX
8
CUT
10
236.2074
20
140.7284
0
VERTEX
8
CUT
10
236.3509
20
141.3407
0
VERTEX
8
CUT
10
235.9662
20
142.6936
0
VERTEX
8
CUT
10
235.4613
20
143.3642
0
VERTEX
8
CUT
10
234.4385
20
144.0923
0
VERTEX
8
CUT
10
232.8432
20
144.4717
0
VERTEX
8
CUT
10
231.6981
20
145.1224
0
VERTEX
8
CUT
10
230.7611
20
146.0707
0
VERTEX
8
CUT
10
230.8272
20
146.7519
0
VERTEX
8
CUT
10
233.0026
20
148.8173
0
VERTEX
8
CUT
10
234.8658
20
150.1323
0
VERTEX
8
CUT
10
244.7720
20
153.6283
0
VERTEX
8
CUT
10
247.1054
20
155.0721
0
VERTEX
8
CUT
10
248.8113
20
156.6845
0
VERTEX
8
CUT
10
249.7071
20
158.1613
0
VERTEX
8
CUT
10
249.8965
20
160.3473
0
VERTEX
8
CUT
10
249.5442
20
161.1131
0
VERTEX
8
CUT
10
247.4261
20
163.3278
0
VERTEX
8
CUT
10
247.2212
20
163.9755
0
VERTEX
8
CUT
10
247.3324
20
164.6355
0
VERTEX
8
CUT
10
248.5318
20
166.1195
0
VERTEX
8
CUT
10
252.7121
20
169.5785
0
VERTEX
8
CUT
10
256.5720
20
173.3808
0
VERTEX
8
CUT
10
259.3291
20
177.2044
0
VERTEX
8
CUT
10
261.0384
20
180.8598
0
VERTEX
8
CUT
10
261.5919
20
183.5082
0
VERTEX
8
CUT
10
261.3334
20
185.0135
0
VERTEX
8
CUT
10
260.4664
20
186.5713
0
VERTEX
8
CUT
10
258.9929
20
187.7216
0
VERTEX
8
CUT
10
257.1201
20
188.0873
0
VERTEX
8
CUT
10
255.8597
20
187.9677
0
VERTEX
8
CUT
10
249.4728
20
186.0156
0
VERTEX
8
CUT
10
248.0188
20
186.2089
0
VERTEX
8
CUT
10
247.2059
20
187.0751
0
VERTEX
8
CUT
10
246.9200
20
188.0509
0
VERTEX
8
CUT
10
247.3362
20
189.2756
0
VERTEX
8
CUT
10
248.3397
20
190.8871
0
VERTEX
8
CUT
10
250.5264
20
193.6757
0
VERTEX
8
CUT
10
251.3204
20
195.3031
0
VERTEX
8
CUT
10
251.5989
20
196.8514
0
VERTEX
8
CUT
10
251.4304
20
198.0345
0
VERTEX
8
CUT
10
250.8325
20
199.0402
0
VERTEX
8
CUT
10
249.9009
20
199.6462
0
VERTEX
8
CUT
10
248.5499
20
199.9327
0
VERTEX
8
CUT
10
244.9533
20
199.5843
0
VERTEX
8
CUT
10
240.0083
20
201.8714
0
VERTEX
8
CUT
10
238.4280
20
202.2254
0
VERTEX
8
CUT
10
236.7809
20
202.2545
0
VERTEX
8
CUT
10
232.9140
20
201.7172
0
VERTEX
8
CUT
10
230.9742
20
200.9955
0
VERTEX
8
CUT
10
227.6443
20
198.6234
0
VERTEX
8
CUT
10
226.0458
20
196.8489
0
VERTEX
8
CUT
10
225.5501
20
195.7362
0
VERTEX
8
CUT
10
225.5315
20
195.0298
0
VERTEX
8
CUT
10
226.2164
20
194.2555
0
VERTEX
8
CUT
10
227.0788
20
193.8488
0
VERTEX
8
CUT
10
228.3322
20
194.2183
0
VERTEX
8
CUT
10
232.0623
20
195.8410
0
VERTEX
8
CUT
10
234.6535
20
196.5391
0
VERTEX
8
CUT
10
236.7025
20
196.4079
0
VERTEX
8
CUT
10
237.5383
20
196.0182
0
VERTEX
8
CUT
10
238.2406
20
195.3774
0
VERTEX
8
CUT
10
238.7787
20
194.5506
0
VERTEX
8
CUT
10
239.1133
20
193.5805
0
VERTEX
8
CUT
10
239.0977
20
192.4858
0
VERTEX
8
CUT
10
238.6862
20
191.3397
0
VERTEX
8
CUT
10
237.9248
20
190.2375
0
VERTEX
8
CUT
10
236.7841
20
189.0020
0
VERTEX
8
CUT
10
235.3281
20
187.8133
0
VERTEX
8
CUT
10
229.5987
20
184.0066
0
VERTEX
8
CUT
10
228.3746
20
182.6466
0
VERTEX
8
CUT
10
228.1175
20
181.9405
0
VERTEX
8
CUT
10
228.9050
20
180.9373
0
VERTEX
8
CUT
10
229.9008
20
180.6310
0
VERTEX
8
CUT
10
231.9793
20
180.8131
0
VERTEX
8
CUT
10
236.4348
20
181.9838
0
VERTEX
8
CUT
10
238.0034
20
182.1041
0
VERTEX
8
CUT
10
239.2643
20
181.9404
0
VERTEX
8
CUT
10
240.1865
20
181.4040
0
VERTEX
8
CUT
10
240.8460
20
180.4622
0
VERTEX
8
CUT
10
241.1715
20
179.3841
0
VERTEX
8
CUT
10
241.0111
20
178.2796
0
VERTEX
8
CUT
10
240.4415
20
177.2323
0
VERTEX
8
CUT
10
239.5303
20
176.2268
0
VERTEX
8
CUT
10
238.2537
20
175.2681
0
VERTEX
8
CUT
10
234.9449
20
173.7940
0
VERTEX
8
CUT
10
230.8431
20
172.6869
0
VERTEX
8
CUT
10
230.1970
20
172.2933
0
VERTEX
8
CUT
10
229.6760
20
172.0493
0
VERTEX
8
CUT
10
229.6369
20
171.9521
0
VERTEX
8
CUT
10
229.4985
20
171.8678
0
VERTEX
8
CUT
10
229.1109
20
171.1873
0
VERTEX
8
CUT
10
229.1552
20
170.6483
0
VERTEX
8
CUT
10
230.6164
20
168.4983
0
VERTEX
8
CUT
10
231.1563
20
167.3777
0
VERTEX
8
CUT
10
231.2659
20
167.0627
0
VERTEX
8
CUT
10
231.2690
20
167.0538
0
VERTEX
8
CUT
10
231.2769
20
167.0310
0
VERTEX
8
CUT
10
231.2823
20
167.0155
0
VERTEX
8
CUT
10
231.3227
20
166.4087
0
VERTEX
8
CUT
10
231.2524
20
165.8534
0
VERTEX
8
CUT
10
231.2285
20
165.6643
0
VERTEX
8
CUT
10
231.2166
20
165.5708
0
VERTEX
8
CUT
10
231.1451
20
165.0057
0
VERTEX
8
CUT
10
231.0529
20
164.6952
0
VERTEX
8
CUT
10
230.6047
20
163.8563
0
VERTEX
8
CUT
10
230.0818
20
163.1096
0
VERTEX
8
CUT
10
228.8130
20
161.9760
0
VERTEX
8
CUT
10
227.2129
20
161.1017
0
VERTEX
8
CUT
10
225.3441
20
160.4585
0
VERTEX
8
CUT
10
220.7517
20
159.7263
0
VERTEX
8
CUT
10
217.9196
20
157.2093
0
VERTEX
8
CUT
10
217.3335
20
155.7709
0
VERTEX
8
CUT
10
217.3111
20
155.1856
0
VERTEX
8
CUT
10
217.2659
20
155.0156
0
VERTEX
8
CUT
10
217.3001
20
154.8971
0
VERTEX
8
CUT
10
217.2999
20
154.8922
0
VERTEX
8
CUT
10
217.7809
20
153.1525
0
VERTEX
8
CUT
10
219.2692
20
149.7739
0
VERTEX
8
CUT
10
219.3649
20
149.1958
0
VERTEX
8
CUT
10
219.0491
20
147.8257
0
VERTEX
8
CUT
10
218.7823
20
147.3657
0
VERTEX
8
CUT
10
218.7136
20
147.2755
0
VERTEX
8
CUT
10
218.7040
20
147.2631
0
VERTEX
8
CUT
10
218.7035
20
147.2623
0
VERTEX
8
CUT
10
218.4826
20
146.9729
0
VERTEX
8
CUT
10
217.5011
20
146.0256
0
VERTEX
8
CUT
10
217.4474
20
145.9820
0
VERTEX
8
CUT
10
217.4464
20
145.9812
0
VERTEX
8
CUT
10
217.4381
20
145.9744
0
VERTEX
8
CUT
10
217.4265
20
145.9650
0
VERTEX
8
CUT
10
216.2657
20
145.3082
0
VERTEX
8
CUT
10
215.5629
20
144.9533
0
VERTEX
8
CUT
10
213.3886
20
144.0338
0
VERTEX
8
CUT
10
213.1087
20
143.5635
0
VERTEX
8
CUT
10
212.8871
20
142.0591
0
VERTEX
8
CUT
10
212.2640
20
141.1012
0
VERTEX
8
CUT
10
211.0347
20
139.8098
0
VERTEX
8
CUT
10
209.9648
20
138.9626
0
VERTEX
8
CUT
10
208.7369
20
138.3144
0
VERTEX
8
CUT
10
205.9992
20
137.3072
0
VERTEX
8
CUT
10
204.5530
20
137.0570
0
VERTEX
8
CUT
10
202.8633
20
137.2296
0
VERTEX
8
CUT
10
202.8273
20
137.2398
0
VERTEX
8
CUT
10
202.7986
20
137.2479
0
VERTEX
8
CUT
10
202.7697
20
137.2560
0
VERTEX
8
CUT
10
202.7328
20
137.2664
0
VERTEX
8
CUT
10
202.3058
20
137.4917
0
VERTEX
8
CUT
10
202.0456
20
137.6765
0
VERTEX
8
CUT
10
202.0246
20
137.6913
0
VERTEX
8
CUT
10
201.9798
20
137.7232
0
VERTEX
8
CUT
10
201.6769
20
137.9383
0
VERTEX
8
CUT
10
201.6360
20
137.9999
0
VERTEX
8
CUT
10
200.9551
20
139.0707
0
VERTEX
8
CUT
10
199.8455
20
143.0154
0
VERTEX
8
CUT
10
199.5552
20
144.1270
0
VERTEX
8
CUT
10
199.2245
20
144.7983
0
VERTEX
8
CUT
10
198.6259
20
146.2141
0
VERTEX
8
CUT
10
198.0576
20
147.1668
0
VERTEX
8
CUT
10
197.9773
20
147.3298
0
VERTEX
8
CUT
10
197.9210
20
147.3958
0
VERTEX
8
CUT
10
197.4041
20
148.2625
0
VERTEX
8
CUT
10
195.9162
20
150.1012
0
VERTEX
8
CUT
10
194.1924
20
151.7015
0
VERTEX
8
CUT
10
192.2273
20
153.0964
0
VERTEX
8
CUT
10
191.2403
20
153.6101
0
VERTEX
8
CUT
10
191.0651
20
153.7208
0
VERTEX
8
CUT
10
190.8797
20
153.7978
0
VERTEX
8
CUT
10
190.1021
20
154.2026
0
VERTEX
8
CUT
10
189.1330
20
154.5232
0
VERTEX
8
CUT
10
188.0053
20
154.9916
0
VERTEX
8
CUT
10
187.4405
20
155.0831
0
VERTEX
8
CUT
10
186.4656
20
155.4056
0
VERTEX
8
CUT
10
184.9055
20
155.4941
0
VERTEX
8
CUT
10
184.5727
20
155.5481
0
VERTEX
8
CUT
10
183.1825
20
155.5919
0
VERTEX
8
CUT
10
182.3317
20
155.6402
0
VERTEX
8
CUT
10
181.6154
20
155.5468
0
VERTEX
8
CUT
10
179.6798
20
155.4276
0
VERTEX
8
CUT
10
178.6931
20
155.1659
0
VERTEX
8
CUT
10
177.7738
20
155.0461
0
VERTEX
8
CUT
10
173.5892
20
153.9372
0
VERTEX
8
CUT
10
172.6849
20
153.8090
0
VERTEX
8
CUT
10
171.9946
20
154.0986
0
VERTEX
8
CUT
10
171.9399
20
154.1469
0
VERTEX
8
CUT
10
171.3087
20
154.8046
0
VERTEX
8
CUT
10
171.2972
20
154.8243
0
VERTEX
8
CUT
10
171.2930
20
154.8314
0
VERTEX
8
CUT
10
171.2688
20
154.8728
0
VERTEX
8
CUT
10
171.1867
20
155.0131
0
VERTEX
8
CUT
10
170.7936
20
156.3046
0
VERTEX
8
CUT
10
170.7458
20
156.5721
0
VERTEX
8
CUT
10
170.6853
20
156.6602
0
VERTEX
8
CUT
10
170.6255
20
156.8567
0
VERTEX
8
CUT
10
170.0840
20
157.5037
0
VERTEX
8
CUT
10
169.7277
20
157.6161
0
VERTEX
8
CUT
10
169.1682
20
157.4548
0
VERTEX
8
CUT
10
168.2541
20
156.5304
0
VERTEX
8
CUT
10
168.2012
20
156.4423
0
VERTEX
8
CUT
10
168.1869
20
156.4285
0
VERTEX
8
CUT
10
168.0914
20
156.2590
0
VERTEX
8
CUT
10
167.2892
20
154.9209
0
VERTEX
8
CUT
10
166.6729
20
153.3715
0
VERTEX
8
CUT
10
166.4354
20
150.5768
0
VERTEX
8
CUT
10
166.4433
20
150.2127
0
VERTEX
8
CUT
10
166.4360
20
150.1173
0
VERTEX
8
CUT
10
166.4543
20
149.7031
0
VERTEX
8
CUT
10
166.5249
20
146.4351
0
VERTEX
8
CUT
10
166.8224
20
143.6277
0
VERTEX
8
CUT
10
166.9711
20
143.0052
0
VERTEX
8
CUT
10
166.9728
20
142.9901
0
VERTEX
8
CUT
10
167.5740
20
140.1956
0
VERTEX
8
CUT
10
167.8007
20
139.5319
0
VERTEX
8
CUT
10
168.0125
20
138.6449
0
VERTEX
8
CUT
10
168.9042
20
136.4393
0
VERTEX
8
CUT
10
170.0029
20
134.3857
0
VERTEX
8
CUT
10
171.3376
20
132.4742
0
VERTEX
8
CUT
10
171.5493
20
132.2562
0
VERTEX
8
CUT
10
173.0385
20
130.5998
0
VERTEX
8
CUT
10
173.7571
20
129.9818
0
VERTEX
8
CUT
10
174.2835
20
129.4396
0
VERTEX
8
CUT
10
174.7234
20
129.1508
0
VERTEX
8
CUT
10
174.7635
20
129.1164
0
VERTEX
8
CUT
10
176.6252
20
127.8656
0
VERTEX
8
CUT
10
176.8554
20
127.7517
0
VERTEX
8
CUT
10
177.5488
20
127.2966
0
VERTEX
8
CUT
10
178.5135
20
126.9315
0
VERTEX
8
CUT
10
178.6771
20
126.8506
0
VERTEX
8
CUT
10
179.3765
20
126.6049
0
VERTEX
8
CUT
10
181.1747
20
125.9244
0
VERTEX
8
CUT
10
183.1488
20
125.5292
0
VERTEX
8
CUT
10
183.8873
20
125.5018
0
VERTEX
8
CUT
10
184.0394
20
125.4730
0
VERTEX
8
CUT
10
184.6640
20
125.4729
0
VERTEX
8
CUT
10
187.1036
20
125.3822
0
VERTEX
8
CUT
10
190.5273
20
125.8334
0
VERTEX
8
CUT
10
191.4949
20
126.1413
0
VERTEX
8
CUT
10
192.3675
20
126.3298
0
VERTEX
8
CUT
10
193.4636
20
126.7678
0
VERTEX
8
CUT
10
193.7713
20
126.8657
0
VERTEX
8
CUT
10
194.2294
20
127.0739
0
VERTEX
8
CUT
10
194.4820
20
127.1748
0
VERTEX
8
CUT
10
194.6183
20
127.2506
0
VERTEX
8
CUT
10
195.4372
20
127.6226
0
VERTEX
8
CUT
10
198.7944
20
129.5837
0
VERTEX
8
CUT
10
201.5826
20
131.5155
0
VERTEX
8
CUT
10
202.8358
20
132.3485
0
VERTEX
8
CUT
10
203.8441
20
132.8863
0
VERTEX
8
CUT
10
204.6997
20
133.3090
0
VERTEX
8
CUT
10
206.0173
20
133.7879
0
VERTEX
8
CUT
10
206.2464
20
133.8547
0
VERTEX
8
CUT
10
206.2769
20
133.8635
0
VERTEX
8
CUT
10
206.3240
20
133.8773
0
VERTEX
8
CUT
10
206.4644
20
133.9182
0
VERTEX
8
CUT
10
207.9522
20
134.2025
0
VERTEX
8
CUT
10
208.1145
20
134.2173
0
VERTEX
8
CUT
10
210.2365
20
134.1001
0
VERTEX
8
CUT
10
212.0747
20
133.4594
0
VERTEX
8
CUT
10
212.8819
20
132.9182
0
VERTEX
8
CUT
10
213.8265
20
131.6636
0
VERTEX
8
CUT
10
213.9538
20
130.9094
0
VERTEX
8
CUT
10
213.7124
20
129.9341
0
VERTEX
8
CUT
10
212.6479
20
128.4730
0
VERTEX
8
CUT
10
211.5872
20
127.5737
0
VERTEX
8
CUT
10
208.4327
20
126.2688
0
VERTEX
8
CUT
10
203.0989
20
124.8509
0
VERTEX
8
CUT
10
201.6312
20
124.1898
0
VERTEX
8
CUT
10
200.6698
20
123.4648
0
VERTEX
8
CUT
10
200.2278
20
122.7001
0
VERTEX
8
CUT
10
200.2772
20
122.3272
0
VERTEX
8
CUT
10
202.6221
20
119.5697
0
VERTEX
8
CUT
10
203.1264
20
118.5732
0
VERTEX
8
CUT
10
202.7975
20
117.7574
0
VERTEX
8
CUT
10
202.0172
20
116.9377
0
VERTEX
8
CUT
10
200.2204
20
115.9053
0
VERTEX
8
CUT
10
198.4804
20
115.4294
0
VERTEX
8
CUT
10
195.0964
20
115.3087
0
VERTEX
8
CUT
10
192.4225
20
115.7382
0
VERTEX
8
CUT
10
186.9491
20
117.2939
0
VERTEX
8
CUT
10
185.1255
20
117.5907
0
VERTEX
8
CUT
10
183.8512
20
117.4806
0
VERTEX
8
CUT
10
183.0196
20
117.0309
0
VERTEX
8
CUT
10
182.4555
20
116.1761
0
VERTEX
8
CUT
10
182.4893
20
115.2842
0
VERTEX
8
CUT
10
183.9333
20
111.3280
0
VERTEX
8
CUT
10
184.2968
20
109.9179
0
VERTEX
8
CUT
10
184.3016
20
109.8426
0
VERTEX
8
CUT
10
184.3235
20
108.7574
0
VERTEX
8
CUT
10
184.0229
20
107.8204
0
VERTEX
8
CUT
10
183.4595
20
107.1041
0
VERTEX
8
CUT
10
183.3141
20
106.9580
0
VERTEX
8
CUT
10
182.5083
20
106.5693
0
VERTEX
8
CUT
10
181.2630
20
106.4200
0
VERTEX
8
CUT
10
181.0287
20
106.0797
0
VERTEX
8
CUT
10
181.1574
20
105.2883
0
VERTEX
8
CUT
10
182.1561
20
103.0743
0
SEQEND
0
POLYLINE
8
CUT
66
1
70
1
10
0.0
20
0.0
30
0.0
0
VERTEX
8
CUT
10
222.0338
20
35.3869
0
VERTEX
8
CUT
10
223.3302
20
36.1751
0
VERTEX
8
CUT
10
223.7154
20
36.1645
0
VERTEX
8
CUT
10
224.2377
20
35.8430
0
VERTEX
8
CUT
10
224.5666
20
35.4087
0
VERTEX
8
CUT
10
224.4586
20
34.3159
0
VERTEX
8
CUT
10
224.7106
20
33.8671
0
VERTEX
8
CUT
10
226.9033
20
33.0378
0
VERTEX
8
CUT
10
228.4978
20
32.6679
0
VERTEX
8
CUT
10
229.6657
20
33.0251
0
VERTEX
8
CUT
10
230.1173
20
33.4972
0
VERTEX
8
CUT
10
230.2550
20
34.1348
0
VERTEX
8
CUT
10
230.1435
20
34.8850
0
VERTEX
8
CUT
10
229.0837
20
36.4505
0
VERTEX
8
CUT
10
228.1714
20
36.8080
0
VERTEX
8
CUT
10
226.5109
20
36.4558
0
VERTEX
8
CUT
10
226.0073
20
36.5226
0
VERTEX
8
CUT
10
225.2225
20
36.8591
0
VERTEX
8
CUT
10
224.6982
20
37.6692
0
VERTEX
8
CUT
10
224.8073
20
38.3839
0
VERTEX
8
CUT
10
225.4425
20
39.6022
0
VERTEX
8
CUT
10
224.7345
20
40.7445
0
VERTEX
8
CUT
10
224.6644
20
41.3144
0
VERTEX
8
CUT
10
224.8215
20
41.6235
0
VERTEX
8
CUT
10
225.3670
20
41.9092
0
VERTEX
8
CUT
10
227.3031
20
42.3357
0
VERTEX
8
CUT
10
228.2675
20
42.8386
0
VERTEX
8
CUT
10
228.9035
20
43.5312
0
VERTEX
8
CUT
10
228.9012
20
44.1702
0
VERTEX
8
CUT
10
228.6359
20
44.8753
0
VERTEX
8
CUT
10
226.9861
20
46.4526
0
VERTEX
8
CUT
10
226.5732
20
46.5867
0
VERTEX
8
CUT
10
224.6486
20
46.5105
0
VERTEX
8
CUT
10
223.9184
20
47.4150
0
VERTEX
8
CUT
10
220.2750
20
48.9239
0
VERTEX
8
CUT
10
218.0275
20
46.9983
0
VERTEX
8
CUT
10
218.0070
20
46.0177
0
VERTEX
8
CUT
10
217.5318
20
44.7014
0
VERTEX
8
CUT
10
216.9069
20
43.9516
0
VERTEX
8
CUT
10
215.8549
20
43.4973
0
VERTEX
8
CUT
10
215.1652
20
42.2363
0
VERTEX
8
CUT
10
214.4820
20
41.6674
0
VERTEX
8
CUT
10
214.2826
20
41.2086
0
VERTEX
8
CUT
10
214.7694
20
40.6558
0
VERTEX
8
CUT
10
220.5669
20
36.0744
0
SEQEND
0
POLYLINE
8
CUT
66
1
70
1
10
0.0
20
0.0
30
0.0
0
VERTEX
8
CUT
10
161.9497
20
170.9594
0
VERTEX
8
CUT
10
162.2554
20
172.0158
0
VERTEX
8
CUT
10
161.9475
20
173.7332
0
VERTEX
8
CUT
10
161.1189
20
175.0642
0
VERTEX
8
CUT
10
156.4176
20
178.3536
0
VERTEX
8
CUT
10
155.3971
20
179.4436
0
VERTEX
8
CUT
10
154.1091
20
181.5088
0
VERTEX
8
CUT
10
151.6746
20
184.3362
0
VERTEX
8
CUT
10
151.1966
20
185.2056
0
VERTEX
8
CUT
10
150.6771
20
187.1241
0
VERTEX
8
CUT
10
150.7461
20
191.2101
0
VERTEX
8
CUT
10
150.4887
20
191.4814
0
VERTEX
8
CUT
10
149.4455
20
191.5847
0
VERTEX
8
CUT
10
149.0272
20
191.2354
0
VERTEX
8
CUT
10
149.2315
20
188.5623
0
VERTEX
8
CUT
10
149.0817
20
186.7506
0
VERTEX
8
CUT
10
148.8487
20
185.8897
0
VERTEX
8
CUT
10
148.0026
20
184.3184
0
VERTEX
8
CUT
10
145.6498
20
181.3886
0
VERTEX
8
CUT
10
143.8064
20
178.6696
0
VERTEX
8
CUT
10
141.5500
20
177.0289
0
VERTEX
8
CUT
10
139.8269
20
176.0841
0
VERTEX
8
CUT
10
138.6252
20
175.1692
0
VERTEX
8
CUT
10
137.5036
20
173.6612
0
VERTEX
8
CUT
10
137.2644
20
172.6262
0
VERTEX
8
CUT
10
137.4770
20
171.3382
0
VERTEX
8
CUT
10
137.9570
20
170.5476
0
VERTEX
8
CUT
10
139.2614
20
169.3959
0
VERTEX
8
CUT
10
140.9785
20
168.3789
0
VERTEX
8
CUT
10
142.7520
20
168.0904
0
VERTEX
8
CUT
10
148.5578
20
168.3302
0
VERTEX
8
CUT
10
157.0039
20
168.1807
0
VERTEX
8
CUT
10
158.4318
20
168.3531
0
VERTEX
8
CUT
10
161.1384
20
169.9764
0
SEQEND
0
POLYLINE
8
CUT
66
1
70
1
10
0.0
20
0.0
30
0.0
0
VERTEX
8
CUT
10
64.6677
20
187.5232
0
VERTEX
8
CUT
10
62.5095
20
189.3159
0
VERTEX
8
CUT
10
61.1817
20
191.0668
0
VERTEX
8
CUT
10
60.7744
20
191.9660
0
VERTEX
8
CUT
10
60.5117
20
193.9377
0
VERTEX
8
CUT
10
60.7392
20
194.5692
0
VERTEX
8
CUT
10
61.8887
20
195.8101
0
VERTEX
8
CUT
10
62.5087
20
196.2999
0
VERTEX
8
CUT
10
63.1349
20
196.5044
0
VERTEX
8
CUT
10
65.1735
20
196.4509
0
VERTEX
8
CUT
10
66.7765
20
196.1078
0
VERTEX
8
CUT
10
71.1611
20
194.2641
0
VERTEX
8
CUT
10
72.5100
20
193.8995
0
VERTEX
8
CUT
10
73.1129
20
194.0607
0
VERTEX
8
CUT
10
73.7615
20
194.6516
0
VERTEX
8
CUT
10
73.9510
20
195.4739
0
VERTEX
8
CUT
10
73.8079
20
196.1206
0
VERTEX
8
CUT
10
72.2849
20
198.2432
0
VERTEX
8
CUT
10
69.2633
20
200.6382
0
VERTEX
8
CUT
10
67.2099
20
201.4548
0
VERTEX
8
CUT
10
62.5822
20
202.2274
0
VERTEX
8
CUT
10
60.6290
20
202.1710
0
VERTEX
8
CUT
10
58.8103
20
201.6781
0
VERTEX
8
CUT
10
54.8026
20
199.4332
0
VERTEX
8
CUT
10
52.1421
20
199.9133
0
VERTEX
8
CUT
10
50.3985
20
199.8779
0
VERTEX
8
CUT
10
49.1753
20
199.2805
0
VERTEX
8
CUT
10
48.2851
20
198.3114
0
VERTEX
8
CUT
10
47.9121
20
196.9012
0
VERTEX
8
CUT
10
48.3230
20
195.1596
0
VERTEX
8
CUT
10
49.5178
20
193.0638
0
VERTEX
8
CUT
10
51.8987
20
189.8078
0
VERTEX
8
CUT
10
52.5849
20
188.2601
0
VERTEX
8
CUT
10
52.6479
20
187.5372
0
VERTEX
8
CUT
10
52.4767
20
187.0153
0
VERTEX
8
CUT
10
52.0626
20
186.5679
0
VERTEX
8
CUT
10
51.4699
20
186.2305
0
VERTEX
8
CUT
10
50.2103
20
186.0808
0
VERTEX
8
CUT
10
43.8580
20
187.9993
0
VERTEX
8
CUT
10
41.7531
20
188.1224
0
VERTEX
8
CUT
10
40.5575
20
187.6808
0
VERTEX
8
CUT
10
39.2202
20
186.7078
0
VERTEX
8
CUT
10
38.2951
20
185.1544
0
VERTEX
8
CUT
10
38.1054
20
184.1321
0
VERTEX
8
CUT
10
38.1095
20
183.0230
0
VERTEX
8
CUT
10
38.7017
20
180.5323
0
VERTEX
8
CUT
10
40.0961
20
177.6303
0
VERTEX
8
CUT
10
42.0244
20
174.7228
0
VERTEX
8
CUT
10
44.4896
20
171.8673
0
VERTEX
8
CUT
10
47.5535
20
169.0414
0
VERTEX
8
CUT
10
50.8838
20
166.3750
0
VERTEX
8
CUT
10
52.5872
20
164.4645
0
VERTEX
8
CUT
10
52.6892
20
163.9506
0
VERTEX
8
CUT
10
52.4539
20
163.4171
0
VERTEX
8
CUT
10
50.4005
20
161.4119
0
VERTEX
8
CUT
10
49.8463
20
160.5855
0
VERTEX
8
CUT
10
49.7436
20
159.6645
0
VERTEX
8
CUT
10
49.9621
20
158.1613
0
VERTEX
8
CUT
10
50.8233
20
156.7269
0
VERTEX
8
CUT
10
52.5637
20
155.0721
0
VERTEX
8
CUT
10
54.8794
20
153.6369
0
VERTEX
8
CUT
10
64.6404
20
150.1831
0
VERTEX
8
CUT
10
66.6876
20
149.0261
0
VERTEX
8
CUT
10
67.4549
20
148.3897
0
VERTEX
8
CUT
10
68.3887
20
147.0580
0
VERTEX
8
CUT
10
68.6166
20
145.9713
0
VERTEX
8
CUT
10
67.3173
20
144.7181
0
VERTEX
8
CUT
10
65.5793
20
144.2412
0
VERTEX
8
CUT
10
64.1254
20
143.2767
0
VERTEX
8
CUT
10
63.6593
20
142.6050
0
VERTEX
8
CUT
10
63.3672
20
141.7070
0
VERTEX
8
CUT
10
63.4585
20
140.9933
0
VERTEX
8
CUT
10
63.9641
20
139.7704
0
VERTEX
8
CUT
10
65.3951
20
138.0341
0
VERTEX
8
CUT
10
67.6720
20
136.4595
0
VERTEX
8
CUT
10
70.8001
20
134.9678
0
VERTEX
8
CUT
10
76.5653
20
132.7935
0
VERTEX
8
CUT
10
78.2567
20
131.6600
0
VERTEX
8
CUT
10
79.2717
20
130.3726
0
VERTEX
8
CUT
10
79.4570
20
129.6214
0
VERTEX
8
CUT
10
79.1775
20
128.9012
0
VERTEX
8
CUT
10
75.8242
20
125.7232
0
VERTEX
8
CUT
10
75.1510
20
124.5390
0
VERTEX
8
CUT
10
75.1074
20
123.3398
0
VERTEX
8
CUT
10
75.6188
20
122.1607
0
VERTEX
8
CUT
10
76.1424
20
121.4811
0
VERTEX
8
CUT
10
77.1522
20
120.6078
0
VERTEX
8
CUT
10
78.5308
20
119.8879
0
VERTEX
8
CUT
10
80.2478
20
119.3277
0
VERTEX
8
CUT
10
84.8471
20
118.4927
0
VERTEX
8
CUT
10
86.5339
20
117.6691
0
VERTEX
8
CUT
10
87.0572
20
117.0837
0
VERTEX
8
CUT
10
87.3612
20
116.3798
0
VERTEX
8
CUT
10
87.4595
20
113.3742
0
VERTEX
8
CUT
10
87.7586
20
112.3749
0
VERTEX
8
CUT
10
88.3859
20
111.5627
0
VERTEX
8
CUT
10
89.3349
20
110.9874
0
VERTEX
8
CUT
10
90.5337
20
110.6453
0
VERTEX
8
CUT
10
92.0623
20
110.5297
0
VERTEX
8
CUT
10
93.7918
20
110.7077
0
VERTEX
8
CUT
10
98.7019
20
111.6979
0
VERTEX
8
CUT
10
99.6314
20
111.6007
0
VERTEX
8
CUT
10
100.9013
20
110.9987
0
VERTEX
8
CUT
10
101.4817
20
110.2851
0
VERTEX
8
CUT
10
101.6525
20
109.4376
0
VERTEX
8
CUT
10
100.7392
20
106.7812
0
VERTEX
8
CUT
10
100.6269
20
105.6185
0
VERTEX
8
CUT
10
101.2780
20
104.5857
0
VERTEX
8
CUT
10
102.4535
20
103.8781
0
VERTEX
8
CUT
10
103.9377
20
103.7074
0
VERTEX
8
CUT
10
109.0871
20
106.0368
0
VERTEX
8
CUT
10
110.1594
20
106.2841
0
VERTEX
8
CUT
10
110.9697
20
106.1311
0
VERTEX
8
CUT
10
111.6646
20
105.1794
0
VERTEX
8
CUT
10
111.4487
20
103.9383
0
VERTEX
8
CUT
10
108.7903
20
100.4773
0
VERTEX
8
CUT
10
108.5560
20
99.6359
0
VERTEX
8
CUT
10
108.4442
20
99.3925
0
VERTEX
8
CUT
10
108.4516
20
99.2607
0
VERTEX
8
CUT
10
108.3958
20
99.0604
0
VERTEX
8
CUT
10
108.4756
20
98.8292
0
VERTEX
8
CUT
10
108.4849
20
98.6614
0
VERTEX
8
CUT
10
108.5815
20
98.5223
0
VERTEX
8
CUT
10
108.7715
20
97.9718
0
VERTEX
8
CUT
10
109.7086
20
97.3992
0
VERTEX
8
CUT
10
110.0220
20
97.4003
0
VERTEX
8
CUT
10
110.4902
20
97.3246
0
VERTEX
8
CUT
10
110.8476
20
97.4033
0
VERTEX
8
CUT
10
111.1950
20
97.4046
0
VERTEX
8
CUT
10
112.0673
20
97.6815
0
VERTEX
8
CUT
10
112.9382
20
98.1217
0
VERTEX
8
CUT
10
114.2605
20
99.1891
0
VERTEX
8
CUT
10
115.2249
20
100.1794
0
VERTEX
8
CUT
10
115.5616
20
100.4597
0
VERTEX
8
CUT
10
115.7413
20
100.7095
0
VERTEX
8
CUT
10
116.3638
20
101.3487
0
VERTEX
8
CUT
10
118.0695
20
104.0068
0
VERTEX
8
CUT
10
118.9198
20
105.9228
0
VERTEX
8
CUT
10
118.6879
20
106.4038
0
VERTEX
8
CUT
10
117.0909
20
106.6240
0
VERTEX
8
CUT
10
116.3828
20
106.9624
0
VERTEX
8
CUT
10
116.3437
20
107.0093
0
VERTEX
8
CUT
10
116.3173
20
107.0446
0
VERTEX
8
CUT
10
116.2330
20
107.1570
0
VERTEX
8
CUT
10
116.1457
20
107.2736
0
VERTEX
8
CUT
10
115.8234
20
107.7037
0
VERTEX
8
CUT
10
115.5839
20
108.3200
0
VERTEX
8
CUT
10
115.5881
20
110.2852
0
VERTEX
8
CUT
10
117.4639
20
115.6794
0
VERTEX
8
CUT
10
117.2208
20
116.6154
0
VERTEX
8
CUT
10
116.1252
20
117.4454
0
VERTEX
8
CUT
10
114.9201
20
117.6216
0
VERTEX
8
CUT
10
113.1974
20
117.3838
0
VERTEX
8
CUT
10
107.0293
20
115.7364
0
VERTEX
8
CUT
10
103.8799
20
115.2808
0
VERTEX
8
CUT
10
101.2015
20
115.4078
0
VERTEX
8
CUT
10
98.9315
20
116.1192
0
VERTEX
8
CUT
10
97.4698
20
117.0309
0
VERTEX
8
CUT
10
97.0454
20
117.5908
0
VERTEX
8
CUT
10
96.8735
20
118.2463
0
VERTEX
8
CUT
10
97.1831
20
119.5818
0
VERTEX
8
CUT
10
99.4409
20
122.3626
0
VERTEX
8
CUT
10
99.3885
20
122.8268
0
VERTEX
8
CUT
10
98.9978
20
123.4683
0
VERTEX
8
CUT
10
98.0599
20
124.2249
0
VERTEX
8
CUT
10
96.6930
20
124.8609
0
VERTEX
8
CUT
10
90.4371
20
126.5654
0
VERTEX
8
CUT
10
88.1028
20
127.5494
0
VERTEX
8
CUT
10
86.6294
20
128.7431
0
VERTEX
8
CUT
10
86.1331
20
129.4608
0
VERTEX
8
CUT
10
85.8063
20
130.6517
0
VERTEX
8
CUT
10
85.9918
20
131.6020
0
VERTEX
8
CUT
10
86.5105
20
132.5187
0
VERTEX
8
CUT
10
87.2166
20
133.2283
0
VERTEX
8
CUT
10
88.8156
20
133.9958
0
VERTEX
8
CUT
10
90.9401
20
134.2073
0
VERTEX
8
CUT
10
91.6934
20
134.1415
0
VERTEX
8
CUT
10
91.8486
20
134.1280
0
VERTEX
8
CUT
10
91.9973
20
134.1150
0
VERTEX
8
CUT
10
92.8393
20
134.0415
0
VERTEX
8
CUT
10
92.8589
20
134.0386
0
VERTEX
8
CUT
10
95.8729
20
132.9284
0
VERTEX
8
CUT
10
102.4761
20
128.6060
0
VERTEX
8
CUT
10
104.4342
20
127.5215
0
VERTEX
8
CUT
10
107.4029
20
126.3160
0
VERTEX
8
CUT
10
108.2114
20
126.1353
0
VERTEX
8
CUT
10
108.3201
20
126.0910
0
VERTEX
8
CUT
10
110.3295
20
125.5959
0
VERTEX
8
CUT
10
110.9621
20
125.5206
0
VERTEX
8
CUT
10
111.3029
20
125.4444
0
VERTEX
8
CUT
10
111.6410
20
125.4397
0
VERTEX
8
CUT
10
112.3503
20
125.3552
0
VERTEX
8
CUT
10
113.4204
20
125.4149
0
VERTEX
8
CUT
10
115.2083
20
125.3900
0
VERTEX
8
CUT
10
116.1658
20
125.5681
0
VERTEX
8
CUT
10
116.5066
20
125.5871
0
VERTEX
8
CUT
10
117.1319
20
125.7478
0
VERTEX
8
CUT
10
118.8578
20
126.0688
0
VERTEX
8
CUT
10
119.7047
20
126.4090
0
VERTEX
8
CUT
10
120.2932
20
126.5603
0
VERTEX
8
CUT
10
121.4069
20
127.0928
0
VERTEX
8
CUT
10
122.3374
20
127.4666
0
VERTEX
8
CUT
10
122.7350
20
127.7279
0
VERTEX
8
CUT
10
123.5581
20
128.1215
0
VERTEX
8
CUT
10
124.9963
20
129.2138
0
VERTEX
8
CUT
10
125.4606
20
129.5189
0
VERTEX
8
CUT
10
125.6781
20
129.7316
0
VERTEX
8
CUT
10
126.0242
20
129.9945
0
VERTEX
8
CUT
10
126.0432
20
130.0069
0
VERTEX
8
CUT
10
126.0514
20
130.0151
0
VERTEX
8
CUT
10
126.3802
20
130.2649
0
VERTEX
8
CUT
10
126.9427
20
130.9095
0
VERTEX
8
CUT
10
127.7278
20
131.6972
0
VERTEX
8
CUT
10
127.7989
20
131.8060
0
VERTEX
8
CUT
10
128.1673
20
132.1664
0
VERTEX
8
CUT
10
128.6064
20
132.8159
0
VERTEX
8
CUT
10
128.7896
20
133.0258
0
VERTEX
8
CUT
10
129.0452
20
133.4651
0
VERTEX
8
CUT
10
130.3389
20
135.3791
0
VERTEX
8
CUT
10
131.8834
20
139.0868
0
VERTEX
8
CUT
10
132.8141
20
142.8844
0
VERTEX
8
CUT
10
133.2028
20
146.6104
0
VERTEX
8
CUT
10
133.1694
20
147.9806
0
VERTEX
8
CUT
10
133.2334
20
148.9832
0
VERTEX
8
CUT
10
133.1095
20
150.4345
0
VERTEX
8
CUT
10
133.0554
20
152.6559
0
VERTEX
8
CUT
10
132.5730
20
154.7429
0
VERTEX
8
CUT
10
132.2476
20
155.2444
0
VERTEX
8
CUT
10
132.1265
20
155.6013
0
VERTEX
8
CUT
10
131.6229
20
156.4136
0
VERTEX
8
CUT
10
131.3109
20
156.6882
0
VERTEX
8
CUT
10
131.3061
20
156.6956
0
VERTEX
8
CUT
10
130.9919
20
156.9690
0
VERTEX
8
CUT
10
130.4439
20
157.4515
0
VERTEX
8
CUT
10
129.9589
20
157.5146
0
VERTEX
8
CUT
10
129.9416
20
157.5020
0
VERTEX
8
CUT
10
129.8269
20
157.5460
0
VERTEX
8
CUT
10
129.1741
20
157.1585
0
VERTEX
8
CUT
10
128.5022
20
154.9189
0
VERTEX
8
CUT
10
128.1550
20
154.3704
0
VERTEX
8
CUT
10
128.0965
20
154.3064
0
VERTEX
8
CUT
10
127.9072
20
154.1589
0
VERTEX
8
CUT
10
127.4009
20
153.8929
0
VERTEX
8
CUT
10
127.0007
20
153.8070
0
VERTEX
8
CUT
10
125.2248
20
154.0794
0
VERTEX
8
CUT
10
121.0603
20
155.1877
0
VERTEX
8
CUT
10
120.0949
20
155.3311
0
VERTEX
8
CUT
10
119.7138
20
155.4284
0
VERTEX
8
CUT
10
119.2729
20
155.4533
0
VERTEX
8
CUT
10
118.2132
20
155.6107
0
VERTEX
8
CUT
10
115.5606
20
155.6658
0
VERTEX
8
CUT
10
113.1218
20
155.3464
0
VERTEX
8
CUT
10
110.7494
20
154.6885
0
VERTEX
8
CUT
10
108.4937
20
153.6498
0
VERTEX
8
CUT
10
106.3631
20
152.2364
0
VERTEX
8
CUT
10
105.7949
20
151.7354
0
VERTEX
8
CUT
10
105.5054
20
151.5500
0
VERTEX
8
CUT
10
104.0495
20
150.2172
0
VERTEX
8
CUT
10
103.4908
20
149.4790
0
VERTEX
8
CUT
10
102.4362
20
148.2807
0
VERTEX
8
CUT
10
101.7569
20
147.1884
0
VERTEX
8
CUT
10
101.6656
20
147.0678
0
VERTEX
8
CUT
10
101.6222
20
146.9717
0
VERTEX
8
CUT
10
100.9794
20
145.9380
0
VERTEX
8
CUT
10
100.4004
20
144.6298
0
VERTEX
8
CUT
10
100.1497
20
143.7162
0
VERTEX
8
CUT
10
100.0277
20
143.4464
0
VERTEX
8
CUT
10
99.7195
20
142.1484
0
VERTEX
8
CUT
10
98.9583
20
139.3743
0
VERTEX
8
CUT
10
97.8033
20
137.8122
0
VERTEX
8
CUT
10
97.0388
20
137.3389
0
VERTEX
8
CUT
10
96.3785
20
137.2090
0
VERTEX
8
CUT
10
94.2809
20
137.2636
0
VERTEX
8
CUT
10
93.0351
20
137.5189
0
VERTEX
8
CUT
10
90.7261
20
138.3885
0
VERTEX
8
CUT
10
88.7823
20
139.6263
0
VERTEX
8
CUT
10
88.4628
20
139.9228
0
VERTEX
8
CUT
10
87.4767
20
141.0164
0
VERTEX
8
CUT
10
87.3910
20
141.1464
0
VERTEX
8
CUT
10
87.3000
20
141.2844
0
VERTEX
8
CUT
10
87.2247
20
141.3985
0
VERTEX
8
CUT
10
87.1762
20
141.4721
0
VERTEX
8
CUT
10
86.7929
20
142.4236
0
VERTEX
8
CUT
10
86.6970
20
142.8049
0
VERTEX
8
CUT
10
86.5612
20
144.0445
0
VERTEX
8
CUT
10
86.3424
20
144.4428
0
VERTEX
8
CUT
10
84.2802
20
144.9387
0
VERTEX
8
CUT
10
82.9510
20
145.5997
0
VERTEX
8
CUT
10
81.3477
20
146.7700
0
VERTEX
8
CUT
10
81.3018
20
146.8296
0
VERTEX
8
CUT
10
81.2416
20
146.9079
0
VERTEX
8
CUT
10
81.1597
20
147.0142
0
VERTEX
8
CUT
10
81.0578
20
147.1467
0
VERTEX
8
CUT
10
80.6422
20
147.7836
0
VERTEX
8
CUT
10
80.3628
20
148.7312
0
VERTEX
8
CUT
10
80.4592
20
149.7689
0
VERTEX
8
CUT
10
81.8852
20
153.0586
0
VERTEX
8
CUT
10
82.0475
20
153.7317
0
VERTEX
8
CUT
10
82.1134
20
153.8650
0
VERTEX
8
CUT
10
82.4008
20
154.9333
0
VERTEX
8
CUT
10
82.3336
20
155.1887
0
VERTEX
8
CUT
10
82.3030
20
155.8637
0
VERTEX
8
CUT
10
81.6894
20
157.3296
0
VERTEX
8
CUT
10
79.2731
20
159.7881
0
VERTEX
8
CUT
10
74.7179
20
160.3623
0
VERTEX
8
CUT
10
72.7741
20
160.9269
0
VERTEX
8
CUT
10
70.5095
20
162.3075
0
VERTEX
8
CUT
10
69.1674
20
163.8118
0
VERTEX
8
CUT
10
68.4640
20
165.4016
0
VERTEX
8
CUT
10
68.3949
20
166.3259
0
VERTEX
8
CUT
10
68.8631
20
168.0901
0
VERTEX
8
CUT
10
70.5588
20
170.6387
0
VERTEX
8
CUT
10
70.5682
20
170.7579
0
VERTEX
8
CUT
10
70.6552
20
170.8864
0
VERTEX
8
CUT
10
70.4443
20
171.5432
0
VERTEX
8
CUT
10
70.3185
20
171.6521
0
VERTEX
8
CUT
10
70.2777
20
171.7427
0
VERTEX
8
CUT
10
70.0082
20
171.9209
0
VERTEX
8
CUT
10
69.7250
20
172.1660
0
VERTEX
8
CUT
10
69.5470
20
172.2256
0
VERTEX
8
CUT
10
68.7902
20
172.7258
0
VERTEX
8
CUT
10
65.0150
20
173.7428
0
VERTEX
8
CUT
10
63.8891
20
174.1197
0
VERTEX
8
CUT
10
61.2852
20
175.3031
0
VERTEX
8
CUT
10
59.6177
20
176.8110
0
VERTEX
8
CUT
10
58.6505
20
178.4269
0
VERTEX
8
CUT
10
58.4980
20
179.4499
0
VERTEX
8
CUT
10
58.9072
20
180.6305
0
VERTEX
8
CUT
10
59.7945
20
181.6800
0
VERTEX
8
CUT
10
60.4394
20
181.9420
0
VERTEX
8
CUT
10
61.7569
20
182.1041
0
VERTEX
8
CUT
10
63.4398
20
181.9803
0
VERTEX
8
CUT
10
67.8405
20
180.8137
0
VERTEX
8
CUT
10
69.3188
20
180.6310
0
VERTEX
8
CUT
10
70.7195
20
180.9073
0
VERTEX
8
CUT
10
71.5385
20
181.9241
0
VERTEX
8
CUT
10
71.4900
20
182.3389
0
VERTEX
8
CUT
10
70.9000
20
183.1727
0
VERTEX
8
CUT
10
69.7470
20
184.2394
0
SEQEND
0
POLYLINE
8
CUT
66
1
70
1
10
0.0
20
0.0
30
0.0
0
VERTEX
8
CUT
10
73.8868
20
39.1478
0
VERTEX
8
CUT
10
75.4303
20
37.5580
0
VERTEX
8
CUT
10
76.9231
20
36.3651
0
VERTEX
8
CUT
10
77.3250
20
35.3559
0
VERTEX
8
CUT
10
77.7175
20
35.1863
0
VERTEX
8
CUT
10
80.3003
20
36.9051
0
VERTEX
8
CUT
10
80.6946
20
37.3895
0
VERTEX
8
CUT
10
80.8076
20
37.9244
0
VERTEX
8
CUT
10
80.1764
20
38.5589
0
VERTEX
8
CUT
10
78.4533
20
39.2308
0
VERTEX
8
CUT
10
77.5623
20
39.8283
0
VERTEX
8
CUT
10
76.9386
20
40.4841
0
VERTEX
8
CUT
10
76.7065
20
41.1149
0
VERTEX
8
CUT
10
76.2534
20
41.4131
0
VERTEX
8
CUT
10
75.0393
20
40.8784
0
VERTEX
8
CUT
10
74.2406
20
39.9730
0
SEQEND
0
POLYLINE
8
CUT
66
1
70
1
10
0.0
20
0.0
30
0.0
0
VERTEX
8
CUT
10
74.4179
20
35.1767
0
VERTEX
8
CUT
10
73.2446
20
36.1708
0
VERTEX
8
CUT
10
71.9694
20
36.9972
0
VERTEX
8
CUT
10
71.2004
20
37.2190
0
VERTEX
8
CUT
10
70.4768
20
36.5928
0
VERTEX
8
CUT
10
69.9376
20
35.6439
0
VERTEX
8
CUT
10
69.6480
20
34.6213
0
VERTEX
8
CUT
10
69.6465
20
33.4374
0
VERTEX
8
CUT
10
69.8912
20
33.0421
0
VERTEX
8
CUT
10
70.5280
20
32.8018
0
VERTEX
8
CUT
10
71.3204
20
32.6603
0
VERTEX
8
CUT
10
72.5170
20
32.7712
0
VERTEX
8
CUT
10
74.3661
20
33.5000
0
VERTEX
8
CUT
10
74.9330
20
33.9612
0
VERTEX
8
CUT
10
74.9816
20
34.4333
0
SEQEND
0
POLYLINE
8
CUT
66
1
70
1
10
0.0
20
0.0
30
0.0
0
VERTEX
8
CUT
10
73.6845
20
44.5730
0
VERTEX
8
CUT
10
72.7899
20
46.1457
0
VERTEX
8
CUT
10
72.2725
20
46.1428
0
VERTEX
8
CUT
10
71.0175
20
44.8933
0
VERTEX
8
CUT
10
70.7988
20
44.4244
0
VERTEX
8
CUT
10
70.8450
20
43.7781
0
VERTEX
8
CUT
10
71.2945
20
43.4639
0
VERTEX
8
CUT
10
72.5184
20
43.9613
0
VERTEX
8
CUT
10
73.6297
20
44.1733
0
SEQEND
0
ENDSEC
0
EOF
