0
SECTION
2
HEADER
9
$ACADVER
1
AC1009
9
$INSUNITS
70
4
0
ENDSEC
0
SECTION
2
TABLES
0
TABLE
2
LAYER
70
1
0
LAYER
2
CUT
70
0
62
7
6
CONTINUOUS
0
ENDTAB
0
ENDSEC
0
SECTION
2
ENTITIES
0
POLYLINE
8
CUT
66
1
70
1
10
0.0
20
0.0
30
0.0
0
VERTEX
8
CUT
10
0.0094
20
4.2098
0
VERTEX
8
CUT
10
0.0083
20
39.4396
0
VERTEX
8
CUT
10
0.0000
20
295.0364
0
VERTEX
8
CUT
10
0.0000
20
295.7511
0
VERTEX
8
CUT
10
0.8863
20
297.5435
0
VERTEX
8
CUT
10
2.0621
20
298.8994
0
VERTEX
8
CUT
10
3.9794
20
300.0000
0
VERTEX
8
CUT
10
259.6996
20
299.9699
0
VERTEX
8
CUT
10
293.8942
20
299.7594
0
VERTEX
8
CUT
10
296.3375
20
299.6053
0
VERTEX
8
CUT
10
297.4286
20
299.2297
0
VERTEX
8
CUT
10
298.7076
20
298.0611
0
VERTEX
8
CUT
10
299.6692
20
296.3015
0
VERTEX
8
CUT
10
299.6692
20
3.7051
0
VERTEX
8
CUT
10
298.9082
20
2.2531
0
VERTEX
8
CUT
10
297.7401
20
0.9304
0
VERTEX
8
CUT
10
297.6086
20
0.8451
0
VERTEX
8
CUT
10
295.7305
20
0.4808
0
VERTEX
8
CUT
10
285.1431
20
0.0902
0
VERTEX
8
CUT
10
259.4732
20
0.0247
0
VERTEX
8
CUT
10
160.7746
20
0.0105
0
VERTEX
8
CUT
10
3.2560
20
0.1804
0
VERTEX
8
CUT
10
3.2549
20
0.1812
0
VERTEX
8
CUT
10
1.8523
20
1.2948
0
VERTEX
8
CUT
10
1.7778
20
1.3539
0
VERTEX
8
CUT
10
1.4543
20
1.7095
0
SEQEND
0
POLYLINE
8
CUT
66
1
70
1
10
0.0
20
0.0
30
0.0
0
VERTEX
8
CUT
10
290.5882
20
202.2510
0
VERTEX
8
CUT
10
290.1582
20
202.9253
0
VERTEX
8
CUT
10
289.5567
20
203.3897
0
VERTEX
8
CUT
10
287.3344
20
203.7714
0
VERTEX
8
CUT
10
286.5239
20
204.1921
0
VERTEX
8
CUT
10
285.7147
20
205.2468
0
VERTEX
8
CUT
10
285.4773
20
206.2572
0
VERTEX
8
CUT
10
285.6970
20
207.4069
0
VERTEX
8
CUT
10
286.2529
20
208.8232
0
VERTEX
8
CUT
10
289.2526
20
213.7426
0
VERTEX
8
CUT
10
289.9151
20
215.1570
0
VERTEX
8
CUT
10
290.5026
20
217.1899
0
VERTEX
8
CUT
10
290.7043
20
219.6519
0
VERTEX
8
CUT
10
290.2610
20
221.5206
0
VERTEX
8
CUT
10
289.7586
20
222.3333
0
VERTEX
8
CUT
10
288.3224
20
223.5232
0
VERTEX
8
CUT
10
285.7776
20
224.8138
0
VERTEX
8
CUT
10
284.7482
20
226.0079
0
VERTEX
8
CUT
10
284.5136
20
226.9000
0
VERTEX
8
CUT
10
285.0799
20
228.1623
0
VERTEX
8
CUT
10
285.9510
20
229.1045
0
VERTEX
8
CUT
10
288.9527
20
231.0146
0
VERTEX
8
CUT
10
290.1523
20
232.1836
0
VERTEX
8
CUT
10
290.8265
20
233.7086
0
VERTEX
8
CUT
10
290.9181
20
235.4489
0
VERTEX
8
CUT
10
290.6471
20
236.2802
0
VERTEX
8
CUT
10
289.7764
20
237.5891
0
VERTEX
8
CUT
10
288.4056
20
238.4144
0
VERTEX
8
CUT
10
286.9373
20
238.4182
0
VERTEX
8
CUT
10
283.2373
20
237.1453
0
VERTEX
8
CUT
10
282.2570
20
237.2061
0
VERTEX
8
CUT
10
281.3552
20
237.5254
0
VERTEX
8
CUT
10
280.0874
20
238.6361
0
VERTEX
8
CUT
10
279.5904
20
239.6369
0
VERTEX
8
CUT
10
279.4004
20
240.7808
0
VERTEX
8
CUT
10
279.6219
20
242.1425
0
VERTEX
8
CUT
10
280.4079
20
243.6201
0
VERTEX
8
CUT
10
281.7128
20
245.2874
0
VERTEX
8
CUT
10
285.6495
20
249.4045
0
VERTEX
8
CUT
10
287.5025
20
252.0183
0
VERTEX
8
CUT
10
288.4594
20
254.7647
0
VERTEX
8
CUT
10
288.6018
20
256.0121
0
VERTEX
8
CUT
10
288.4920
20
257.1860
0
VERTEX
8
CUT
10
288.0832
20
258.3101
0
VERTEX
8
CUT
10
287.4012
20
259.3079
0
VERTEX
8
CUT
10
285.9894
20
260.3879
0
VERTEX
8
CUT
10
284.0808
20
260.6630
0
VERTEX
8
CUT
10
279.8290
20
260.2419
0
VERTEX
8
CUT
10
278.4427
20
260.6065
0
VERTEX
8
CUT
10
277.5283
20
261.2439
0
VERTEX
8
CUT
10
276.8162
20
262.0833
0
VERTEX
8
CUT
10
276.2846
20
263.0284
0
VERTEX
8
CUT
10
276.0921
20
264.0377
0
VERTEX
8
CUT
10
276.3454
20
265.2458
0
VERTEX
8
CUT
10
277.0278
20
266.6415
0
VERTEX
8
CUT
10
277.9305
20
267.9957
0
VERTEX
8
CUT
10
278.9836
20
269.1090
0
VERTEX
8
CUT
10
280.8520
20
270.3899
0
VERTEX
8
CUT
10
286.8499
20
272.7881
0
VERTEX
8
CUT
10
288.4388
20
273.9083
0
VERTEX
8
CUT
10
289.0271
20
274.8079
0
VERTEX
8
CUT
10
289.2886
20
275.7414
0
VERTEX
8
CUT
10
289.2926
20
276.6385
0
VERTEX
8
CUT
10
289.0171
20
277.5146
0
VERTEX
8
CUT
10
288.4886
20
278.3049
0
VERTEX
8
CUT
10
287.7537
20
278.8931
0
VERTEX
8
CUT
10
286.8424
20
279.2860
0
VERTEX
8
CUT
10
285.3280
20
279.4016
0
VERTEX
8
CUT
10
283.5518
20
278.7763
0
VERTEX
8
CUT
10
280.7385
20
276.6828
0
VERTEX
8
CUT
10
279.6373
20
276.0694
0
VERTEX
8
CUT
10
277.8490
20
275.6716
0
VERTEX
8
CUT
10
277.1105
20
275.8733
0
VERTEX
8
CUT
10
276.5524
20
276.3899
0
VERTEX
8
CUT
10
276.2179
20
277.1257
0
VERTEX
8
CUT
10
276.0922
20
278.0689
0
VERTEX
8
CUT
10
276.3175
20
279.3868
0
VERTEX
8
CUT
10
277.3304
20
280.9901
0
VERTEX
8
CUT
10
279.9852
20
284.4464
0
VERTEX
8
CUT
10
280.9719
20
286.8455
0
VERTEX
8
CUT
10
281.0526
20
288.1930
0
VERTEX
8
CUT
10
280.6260
20
289.7041
0
VERTEX
8
CUT
10
279.8486
20
290.6178
0
VERTEX
8
CUT
10
278.4950
20
291.3296
0
VERTEX
8
CUT
10
277.5006
20
291.6139
0
VERTEX
8
CUT
10
275.9972
20
291.5201
0
VERTEX
8
CUT
10
274.8586
20
291.1658
0
VERTEX
8
CUT
10
273.0720
20
290.1567
0
VERTEX
8
CUT
10
271.3554
20
288.5641
0
VERTEX
8
CUT
10
267.6869
20
283.8140
0
VERTEX
8
CUT
10
266.1945
20
282.3187
0
VERTEX
8
CUT
10
264.7036
20
281.3067
0
VERTEX
8
CUT
10
262.6833
20
280.7537
0
VERTEX
8
CUT
10
261.4836
20
280.9195
0
VERTEX
8
CUT
10
260.4796
20
281.3947
0
VERTEX
8
CUT
10
259.6526
20
282.1910
0
VERTEX
8
CUT
10
259.0800
20
283.3336
0
VERTEX
8
CUT
10
259.0134
20
284.2554
0
VERTEX
8
CUT
10
259.7931
20
287.4812
0
VERTEX
8
CUT
10
259.7937
20
289.0299
0
VERTEX
8
CUT
10
259.4913
20
289.8975
0
VERTEX
8
CUT
10
258.3095
20
290.8072
0
VERTEX
8
CUT
10
256.6894
20
291.3706
0
VERTEX
8
CUT
10
255.1229
20
291.3994
0
VERTEX
8
CUT
10
253.2899
20
290.9251
0
VERTEX
8
CUT
10
251.1533
20
289.9725
0
VERTEX
8
CUT
10
248.8413
20
288.4285
0
VERTEX
8
CUT
10
246.5022
20
286.3556
0
VERTEX
8
CUT
10
244.3890
20
284.0065
0
VERTEX
8
CUT
10
242.8810
20
281.7068
0
VERTEX
8
CUT
10
242.2688
20
280.2090
0
VERTEX
8
CUT
10
241.9546
20
278.9043
0
VERTEX
8
CUT
10
241.9561
20
277.8208
0
VERTEX
8
CUT
10
242.2060
20
276.8891
0
VERTEX
8
CUT
10
242.7167
20
276.0927
0
VERTEX
8
CUT
10
243.5150
20
275.5218
0
VERTEX
8
CUT
10
244.5445
20
275.1545
0
VERTEX
8
CUT
10
247.7725
20
274.7325
0
VERTEX
8
CUT
10
249.3927
20
273.7917
0
VERTEX
8
CUT
10
250.0747
20
272.9508
0
VERTEX
8
CUT
10
250.4556
20
271.9455
0
VERTEX
8
CUT
10
251.2097
20
267.7318
0
VERTEX
8
CUT
10
251.5889
20
266.5620
0
VERTEX
8
CUT
10
252.5968
20
265.3885
0
VERTEX
8
CUT
10
253.5033
20
264.8239
0
VERTEX
8
CUT
10
254.4088
20
264.5741
0
VERTEX
8
CUT
10
255.4484
20
264.6056
0
VERTEX
8
CUT
10
257.2102
20
265.2626
0
VERTEX
8
CUT
10
259.0646
20
266.6110
0
VERTEX
8
CUT
10
260.7995
20
268.6460
0
VERTEX
8
CUT
10
263.0980
20
272.4388
0
VERTEX
8
CUT
10
264.6710
20
273.8486
0
VERTEX
8
CUT
10
266.1525
20
274.3456
0
VERTEX
8
CUT
10
267.7202
20
274.3700
0
VERTEX
8
CUT
10
268.6511
20
274.0737
0
VERTEX
8
CUT
10
269.5052
20
273.1874
0
VERTEX
8
CUT
10
270.0134
20
271.1849
0
VERTEX
8
CUT
10
269.7870
20
269.6308
0
VERTEX
8
CUT
10
269.2235
20
268.5096
0
VERTEX
8
CUT
10
265.2879
20
263.9128
0
VERTEX
8
CUT
10
264.2309
20
262.3317
0
VERTEX
8
CUT
10
263.5190
20
260.1260
0
VERTEX
8
CUT
10
263.6123
20
258.0756
0
VERTEX
8
CUT
10
263.9739
20
257.0472
0
VERTEX
8
CUT
10
264.5634
20
256.1978
0
VERTEX
8
CUT
10
265.3232
20
255.6257
0
VERTEX
8
CUT
10
266.2520
20
255.2558
0
VERTEX
8
CUT
10
267.3570
20
255.1910
0
VERTEX
8
CUT
10
268.5338
20
255.3848
0
VERTEX
8
CUT
10
271.0038
20
256.3803
0
VERTEX
8
CUT
10
273.0389
20
256.6603
0
VERTEX
8
CUT
10
273.8960
20
256.5014
0
VERTEX
8
CUT
10
274.5894
20
256.1099
0
VERTEX
8
CUT
10
275.1485
20
255.4902
0
VERTEX
8
CUT
10
275.4692
20
254.7357
0
VERTEX
8
CUT
10
275.6077
20
253.3351
0
VERTEX
8
CUT
10
275.3437
20
252.3542
0
VERTEX
8
CUT
10
274.0631
20
250.9399
0
VERTEX
8
CUT
10
270.7861
20
248.0219
0
VERTEX
8
CUT
10
269.9044
20
246.9116
0
VERTEX
8
CUT
10
269.1411
20
245.1030
0
VERTEX
8
CUT
10
269.2153
20
243.5916
0
VERTEX
8
CUT
10
269.6482
20
242.7087
0
VERTEX
8
CUT
10
270.3491
20
241.9838
0
VERTEX
8
CUT
10
273.6869
20
240.2011
0
VERTEX
8
CUT
10
274.8575
20
239.3653
0
VERTEX
8
CUT
10
275.7060
20
238.4430
0
VERTEX
8
CUT
10
276.1996
20
237.4789
0
VERTEX
8
CUT
10
276.3309
20
236.7555
0
VERTEX
8
CUT
10
276.4209
20
229.8965
0
VERTEX
8
CUT
10
276.7051
20
228.5074
0
VERTEX
8
CUT
10
277.3542
20
227.3568
0
VERTEX
8
CUT
10
278.1440
20
226.4243
0
VERTEX
8
CUT
10
280.8215
20
224.3162
0
VERTEX
8
CUT
10
282.0164
20
223.1236
0
VERTEX
8
CUT
10
282.9875
20
221.7441
0
VERTEX
8
CUT
10
283.6358
20
220.3098
0
VERTEX
8
CUT
10
284.0902
20
217.8096
0
VERTEX
8
CUT
10
284.1804
20
214.4712
0
VERTEX
8
CUT
10
283.9367
20
210.6707
0
VERTEX
8
CUT
10
282.9123
20
205.0632
0
VERTEX
8
CUT
10
282.5588
20
201.9466
0
VERTEX
8
CUT
10
282.6216
20
200.6585
0
VERTEX
8
CUT
10
283.1438
20
198.9153
0
VERTEX
8
CUT
10
284.2630
20
197.7364
0
VERTEX
8
CUT
10
285.2652
20
197.3139
0
VERTEX
8
CUT
10
286.8686
20
197.3864
0
VERTEX
8
CUT
10
288.5556
20
198.1477
0
VERTEX
8
CUT
10
289.4937
20
198.9646
0
VERTEX
8
CUT
10
290.4707
20
200.5071
0
VERTEX
8
CUT
10
290.7329
20
201.4992
0
SEQEND
0
POLYLINE
8
CUT
66
1
70
1
10
0.0
20
0.0
30
0.0
0
VERTEX
8
CUT
10
290.2043
20
189.9455
0
VERTEX
8
CUT
10
289.5930
20
190.4844
0
VERTEX
8
CUT
10
289.0419
20
190.6985
0
VERTEX
8
CUT
10
287.7541
20
190.2431
0
VERTEX
8
CUT
10
286.3009
20
189.2173
0
VERTEX
8
CUT
10
285.2871
20
187.9313
0
VERTEX
8
CUT
10
284.9588
20
186.9140
0
VERTEX
8
CUT
10
285.1324
20
185.7074
0
VERTEX
8
CUT
10
285.6680
20
185.0689
0
VERTEX
8
CUT
10
286.2471
20
184.7254
0
VERTEX
8
CUT
10
287.2647
20
184.7167
0
VERTEX
8
CUT
10
288.6511
20
185.3400
0
VERTEX
8
CUT
10
290.1805
20
186.8370
0
VERTEX
8
CUT
10
290.6573
20
187.7378
0
VERTEX
8
CUT
10
290.8216
20
188.5513
0
SEQEND
0
POLYLINE
8
CUT
66
1
70
1
10
0.0
20
0.0
30
0.0
0
VERTEX
8
CUT
10
49.9708
20
42.9455
0
VERTEX
8
CUT
10
49.1749
20
43.6399
0
VERTEX
8
CUT
10
48.8695
20
44.2265
0
VERTEX
8
CUT
10
48.5416
20
45.8260
0
VERTEX
8
CUT
10
48.8773
20
47.6837
0
VERTEX
8
CUT
10
49.6385
20
49.7297
0
VERTEX
8
CUT
10
53.2470
20
56.6485
0
VERTEX
8
CUT
10
54.0798
20
58.6663
0
VERTEX
8
CUT
10
54.3736
20
60.1576
0
VERTEX
8
CUT
10
54.1487
20
61.2350
0
VERTEX
8
CUT
10
53.1805
20
62.1219
0
VERTEX
8
CUT
10
52.2558
20
62.1673
0
VERTEX
8
CUT
10
50.9188
20
61.5847
0
VERTEX
8
CUT
10
47.8638
20
59.6528
0
VERTEX
8
CUT
10
45.9703
20
58.9015
0
VERTEX
8
CUT
10
45.0807
20
58.7980
0
VERTEX
8
CUT
10
43.6293
20
59.1697
0
VERTEX
8
CUT
10
43.0570
20
59.6545
0
VERTEX
8
CUT
10
42.5388
20
60.3792
0
VERTEX
8
CUT
10
42.1964
20
61.6132
0
VERTEX
8
CUT
10
42.5134
20
62.9385
0
VERTEX
8
CUT
10
43.4571
20
64.4157
0
VERTEX
8
CUT
10
50.5696
20
71.4077
0
VERTEX
8
CUT
10
51.6342
20
72.7343
0
VERTEX
8
CUT
10
52.4792
20
74.7813
0
VERTEX
8
CUT
10
52.4185
20
76.0884
0
VERTEX
8
CUT
10
51.7679
20
77.0991
0
VERTEX
8
CUT
10
50.5244
20
77.5970
0
VERTEX
8
CUT
10
48.3867
20
77.4451
0
VERTEX
8
CUT
10
44.8185
20
76.6018
0
VERTEX
8
CUT
10
42.7959
20
76.7016
0
VERTEX
8
CUT
10
41.1845
20
77.7083
0
VERTEX
8
CUT
10
40.5312
20
78.6190
0
VERTEX
8
CUT
10
40.3015
20
79.5988
0
VERTEX
8
CUT
10
40.8489
20
81.1701
0
VERTEX
8
CUT
10
42.1157
20
82.4345
0
VERTEX
8
CUT
10
43.3491
20
83.2018
0
VERTEX
8
CUT
10
47.9193
20
85.1281
0
VERTEX
8
CUT
10
49.8565
20
86.5156
0
VERTEX
8
CUT
10
51.0382
20
88.0834
0
VERTEX
8
CUT
10
50.9469
20
89.5796
0
VERTEX
8
CUT
10
50.6463
20
90.0691
0
VERTEX
8
CUT
10
49.7453
20
90.6415
0
VERTEX
8
CUT
10
45.0810
20
91.4012
0
VERTEX
8
CUT
10
43.6966
20
91.8890
0
VERTEX
8
CUT
10
42.3717
20
93.1199
0
VERTEX
8
CUT
10
41.3703
20
94.8964
0
VERTEX
8
CUT
10
42.3859
20
96.8182
0
VERTEX
8
CUT
10
46.5514
20
100.1506
0
VERTEX
8
CUT
10
46.7853
20
101.0843
0
VERTEX
8
CUT
10
46.3755
20
101.8560
0
VERTEX
8
CUT
10
45.8819
20
102.2766
0
VERTEX
8
CUT
10
44.3162
20
102.8827
0
VERTEX
8
CUT
10
43.1502
20
103.0389
0
VERTEX
8
CUT
10
40.2929
20
103.0385
0
VERTEX
8
CUT
10
35.5739
20
102.7073
0
VERTEX
8
CUT
10
33.5347
20
102.8357
0
VERTEX
8
CUT
10
32.0751
20
103.3223
0
VERTEX
8
CUT
10
31.4375
20
103.7611
0
VERTEX
8
CUT
10
30.4391
20
104.7217
0
VERTEX
8
CUT
10
29.9519
20
105.4904
0
VERTEX
8
CUT
10
29.8370
20
106.3110
0
VERTEX
8
CUT
10
30.1242
20
107.0943
0
VERTEX
8
CUT
10
30.8141
20
107.9823
0
VERTEX
8
CUT
10
31.5997
20
108.6051
0
VERTEX
8
CUT
10
32.7003
20
108.9909
0
VERTEX
8
CUT
10
38.6268
20
109.9105
0
VERTEX
8
CUT
10
40.8862
20
110.9808
0
VERTEX
8
CUT
10
41.9364
20
111.9494
0
VERTEX
8
CUT
10
42.6537
20
113.1046
0
VERTEX
8
CUT
10
42.9070
20
114.2910
0
VERTEX
8
CUT
10
42.7161
20
115.4933
0
VERTEX
8
CUT
10
42.0484
20
116.8215
0
VERTEX
8
CUT
10
40.9323
20
118.1360
0
VERTEX
8
CUT
10
39.3489
20
119.4865
0
VERTEX
8
CUT
10
37.2596
20
120.8809
0
VERTEX
8
CUT
10
29.8760
20
125.0531
0
VERTEX
8
CUT
10
28.4460
20
126.7889
0
VERTEX
8
CUT
10
28.0918
20
128.0342
0
VERTEX
8
CUT
10
28.3100
20
128.7826
0
VERTEX
8
CUT
10
29.7138
20
129.7835
0
VERTEX
8
CUT
10
31.5480
20
130.1120
0
VERTEX
8
CUT
10
32.3257
20
130.4663
0
VERTEX
8
CUT
10
32.7556
20
131.1966
0
VERTEX
8
CUT
10
32.6017
20
132.2626
0
VERTEX
8
CUT
10
31.9122
20
133.3271
0
VERTEX
8
CUT
10
30.7500
20
134.5170
0
VERTEX
8
CUT
10
25.5245
20
138.8118
0
VERTEX
8
CUT
10
24.1636
20
140.2332
0
VERTEX
8
CUT
10
23.2254
20
141.5343
0
VERTEX
8
CUT
10
22.5479
20
142.8850
0
VERTEX
8
CUT
10
22.0848
20
144.1475
0
VERTEX
8
CUT
10
22.0512
20
144.8626
0
VERTEX
8
CUT
10
22.5478
20
146.3771
0
VERTEX
8
CUT
10
23.0119
20
147.0326
0
VERTEX
8
CUT
10
24.3770
20
147.9254
0
VERTEX
8
CUT
10
26.1468
20
148.1188
0
VERTEX
8
CUT
10
29.3924
20
147.3305
0
VERTEX
8
CUT
10
30.5797
20
147.2770
0
VERTEX
8
CUT
10
31.4284
20
147.7118
0
VERTEX
8
CUT
10
31.7919
20
148.2514
0
VERTEX
8
CUT
10
31.8469
20
148.9927
0
VERTEX
8
CUT
10
31.5878
20
149.7217
0
VERTEX
8
CUT
10
30.9528
20
150.6084
0
VERTEX
8
CUT
10
29.8859
20
151.7087
0
VERTEX
8
CUT
10
26.7174
20
154.1060
0
VERTEX
8
CUT
10
22.6728
20
156.6424
0
VERTEX
8
CUT
10
19.8229
20
158.6823
0
VERTEX
8
CUT
10
18.7773
20
159.6652
0
VERTEX
8
CUT
10
17.5230
20
161.4180
0
VERTEX
8
CUT
10
17.2333
20
162.3640
0
VERTEX
8
CUT
10
17.2080
20
164.0715
0
VERTEX
8
CUT
10
17.7695
20
165.3030
0
VERTEX
8
CUT
10
18.2942
20
165.7496
0
VERTEX
8
CUT
10
19.7874
20
166.2823
0
VERTEX
8
CUT
10
23.2438
20
166.2558
0
VERTEX
8
CUT
10
24.3994
20
166.6732
0
VERTEX
8
CUT
10
24.6469
20
167.6775
0
VERTEX
8
CUT
10
24.3928
20
168.7201
0
VERTEX
8
CUT
10
23.6740
20
169.9861
0
VERTEX
8
CUT
10
21.1658
20
172.7329
0
VERTEX
8
CUT
10
17.9168
20
175.1380
0
VERTEX
8
CUT
10
16.3118
20
175.9532
0
VERTEX
8
CUT
10
14.8162
20
176.3930
0
VERTEX
8
CUT
10
12.9645
20
176.2492
0
VERTEX
8
CUT
10
11.8725
20
175.6925
0
VERTEX
8
CUT
10
10.9526
20
174.8116
0
VERTEX
8
CUT
10
10.3635
20
173.8233
0
VERTEX
8
CUT
10
10.0680
20
172.8752
0
VERTEX
8
CUT
10
9.8933
20
163.9453
0
VERTEX
8
CUT
10
10.0685
20
159.3920
0
VERTEX
8
CUT
10
10.3384
20
158.4374
0
VERTEX
8
CUT
10
11.3356
20
156.8100
0
VERTEX
8
CUT
10
12.4638
20
155.9127
0
VERTEX
8
CUT
10
14.7178
20
154.6296
0
VERTEX
8
CUT
10
15.6249
20
153.8113
0
VERTEX
8
CUT
10
16.7053
20
151.8667
0
VERTEX
8
CUT
10
16.8693
20
150.9267
0
VERTEX
8
CUT
10
16.2856
20
149.2782
0
VERTEX
8
CUT
10
15.6281
20
148.2946
0
VERTEX
8
CUT
10
14.1666
20
147.0775
0
VERTEX
8
CUT
10
11.9196
20
145.7669
0
VERTEX
8
CUT
10
10.5851
20
144.5101
0
VERTEX
8
CUT
10
10.0914
20
143.8017
0
VERTEX
8
CUT
10
9.5427
20
142.3780
0
VERTEX
8
CUT
10
9.5573
20
140.8815
0
VERTEX
8
CUT
10
10.2782
20
139.6117
0
VERTEX
8
CUT
10
11.0062
20
138.9433
0
VERTEX
8
CUT
10
11.8657
20
138.5416
0
VERTEX
8
CUT
10
13.2415
20
138.6715
0
VERTEX
8
CUT
10
16.4900
20
139.6368
0
VERTEX
8
CUT
10
17.7244
20
139.3719
0
VERTEX
8
CUT
10
19.0440
20
138.3803
0
VERTEX
8
CUT
10
19.4521
20
137.4278
0
VERTEX
8
CUT
10
19.5174
20
136.3715
0
VERTEX
8
CUT
10
19.0085
20
134.8739
0
VERTEX
8
CUT
10
18.3241
20
134.1509
0
VERTEX
8
CUT
10
14.1877
20
132.1341
0
VERTEX
8
CUT
10
13.0682
20
131.3850
0
VERTEX
8
CUT
10
12.2541
20
130.5461
0
VERTEX
8
CUT
10
11.6356
20
129.5470
0
VERTEX
8
CUT
10
11.3688
20
128.6410
0
VERTEX
8
CUT
10
11.3754
20
127.6829
0
VERTEX
8
CUT
10
11.6898
20
126.7236
0
VERTEX
8
CUT
10
12.3167
20
125.7548
0
VERTEX
8
CUT
10
13.7534
20
124.5336
0
VERTEX
8
CUT
10
15.6447
20
124.0265
0
VERTEX
8
CUT
10
19.5138
20
123.8115
0
VERTEX
8
CUT
10
21.4067
20
123.1829
0
VERTEX
8
CUT
10
22.6834
20
121.7480
0
VERTEX
8
CUT
10
23.0782
20
120.9585
0
VERTEX
8
CUT
10
23.2162
20
119.9698
0
VERTEX
8
CUT
10
22.9433
20
118.1608
0
VERTEX
8
CUT
10
22.5462
20
117.1110
0
VERTEX
8
CUT
10
21.1666
20
114.9753
0
VERTEX
8
CUT
10
19.0076
20
112.9110
0
VERTEX
8
CUT
10
12.2719
20
108.2194
0
VERTEX
8
CUT
10
10.7572
20
106.5716
0
VERTEX
8
CUT
10
10.3842
20
105.4023
0
VERTEX
8
CUT
10
10.3802
20
104.7928
0
VERTEX
8
CUT
10
10.7413
20
103.8729
0
VERTEX
8
CUT
10
11.4135
20
103.3997
0
VERTEX
8
CUT
10
12.0006
20
103.3204
0
VERTEX
8
CUT
10
12.8507
20
103.6099
0
VERTEX
8
CUT
10
15.5339
20
105.3091
0
VERTEX
8
CUT
10
16.7283
20
105.7968
0
VERTEX
8
CUT
10
17.8017
20
105.9825
0
VERTEX
8
CUT
10
18.6292
20
105.7757
0
VERTEX
8
CUT
10
19.4276
20
105.1080
0
VERTEX
8
CUT
10
19.9554
20
104.2816
0
VERTEX
8
CUT
10
20.1784
20
103.3407
0
VERTEX
8
CUT
10
20.0807
20
102.3795
0
VERTEX
8
CUT
10
19.7181
20
101.4093
0
VERTEX
8
CUT
10
19.0392
20
100.3368
0
VERTEX
8
CUT
10
18.1413
20
99.3213
0
VERTEX
8
CUT
10
13.9051
20
95.8344
0
VERTEX
8
CUT
10
11.8545
20
93.5986
0
VERTEX
8
CUT
10
10.7140
20
91.5345
0
VERTEX
8
CUT
10
10.4289
20
90.5105
0
VERTEX
8
CUT
10
10.3766
20
88.6985
0
VERTEX
8
CUT
10
10.7780
20
87.7120
0
VERTEX
8
CUT
10
11.9643
20
86.5862
0
VERTEX
8
CUT
10
12.7200
20
86.2382
0
VERTEX
8
CUT
10
14.1153
20
86.2232
0
VERTEX
8
CUT
10
15.6850
20
87.0131
0
VERTEX
8
CUT
10
18.3387
20
89.6733
0
VERTEX
8
CUT
10
19.4443
20
90.5076
0
VERTEX
8
CUT
10
20.5921
20
91.0845
0
VERTEX
8
CUT
10
21.6577
20
91.2745
0
VERTEX
8
CUT
10
23.1245
20
90.8374
0
VERTEX
8
CUT
10
24.3094
20
89.7300
0
VERTEX
8
CUT
10
24.7786
20
88.6911
0
VERTEX
8
CUT
10
24.9309
20
87.0210
0
VERTEX
8
CUT
10
24.5645
20
85.2443
0
VERTEX
8
CUT
10
24.1473
20
84.3093
0
VERTEX
8
CUT
10
23.0033
20
82.5328
0
VERTEX
8
CUT
10
22.1902
20
81.6533
0
VERTEX
8
CUT
10
19.2888
20
79.3649
0
VERTEX
8
CUT
10
12.8960
20
76.1837
0
VERTEX
8
CUT
10
11.3429
20
75.1615
0
VERTEX
8
CUT
10
9.8590
20
73.4153
0
VERTEX
8
CUT
10
9.3157
20
72.0929
0
VERTEX
8
CUT
10
9.2513
20
71.2235
0
VERTEX
8
CUT
10
9.7261
20
70.0716
0
VERTEX
8
CUT
10
10.4010
20
69.3709
0
VERTEX
8
CUT
10
10.9002
20
69.1939
0
VERTEX
8
CUT
10
12.4542
20
69.1710
0
VERTEX
8
CUT
10
16.1883
20
69.5587
0
VERTEX
8
CUT
10
17.1021
20
69.0869
0
VERTEX
8
CUT
10
18.0904
20
67.6514
0
VERTEX
8
CUT
10
18.1586
20
66.8987
0
VERTEX
8
CUT
10
17.7015
20
65.4981
0
VERTEX
8
CUT
10
16.4907
20
63.9846
0
VERTEX
8
CUT
10
14.2851
20
61.8347
0
VERTEX
8
CUT
10
13.3002
20
60.0433
0
VERTEX
8
CUT
10
13.2268
20
59.0143
0
VERTEX
8
CUT
10
13.3805
20
58.5308
0
VERTEX
8
CUT
10
14.3936
20
57.1836
0
VERTEX
8
CUT
10
15.7027
20
56.7617
0
VERTEX
8
CUT
10
16.5889
20
56.8815
0
VERTEX
8
CUT
10
18.3836
20
57.7828
0
VERTEX
8
CUT
10
22.3472
20
60.7614
0
VERTEX
8
CUT
10
23.9532
20
61.3465
0
VERTEX
8
CUT
10
25.2466
20
61.3814
0
VERTEX
8
CUT
10
26.5151
20
61.0508
0
VERTEX
8
CUT
10
27.5599
20
60.4629
0
VERTEX
8
CUT
10
28.4706
20
59.5798
0
VERTEX
8
CUT
10
29.1369
20
58.4201
0
VERTEX
8
CUT
10
29.4696
20
57.1412
0
VERTEX
8
CUT
10
29.5021
20
55.7134
0
VERTEX
8
CUT
10
29.1787
20
54.0088
0
VERTEX
8
CUT
10
28.5428
20
52.5886
0
VERTEX
8
CUT
10
27.6672
20
51.3183
0
VERTEX
8
CUT
10
26.4124
20
50.1790
0
VERTEX
8
CUT
10
24.9623
20
49.2414
0
VERTEX
8
CUT
10
21.0910
20
47.8613
0
VERTEX
8
CUT
10
16.3672
20
47.0410
0
VERTEX
8
CUT
10
13.7967
20
46.3628
0
VERTEX
8
CUT
10
12.5357
20
45.7892
0
VERTEX
8
CUT
10
11.4655
20
44.9945
0
VERTEX
8
CUT
10
10.6308
20
43.7355
0
VERTEX
8
CUT
10
10.3768
20
42.4660
0
VERTEX
8
CUT
10
10.6256
20
41.3669
0
VERTEX
8
CUT
10
11.3587
20
40.5447
0
VERTEX
8
CUT
10
12.0515
20
40.2250
0
VERTEX
8
CUT
10
13.5924
20
40.3606
0
VERTEX
8
CUT
10
17.2908
20
41.6229
0
VERTEX
8
CUT
10
18.6285
20
41.5799
0
VERTEX
8
CUT
10
20.2371
20
40.7192
0
VERTEX
8
CUT
10
21.0767
20
39.3489
0
VERTEX
8
CUT
10
21.1396
20
38.6525
0
VERTEX
8
CUT
10
20.9034
20
37.9416
0
VERTEX
8
CUT
10
19.7512
20
36.6344
0
VERTEX
8
CUT
10
15.8898
20
34.2334
0
VERTEX
8
CUT
10
15.5711
20
33.7671
0
VERTEX
8
CUT
10
15.5521
20
33.1272
0
VERTEX
8
CUT
10
16.3630
20
32.0840
0
VERTEX
8
CUT
10
17.0673
20
31.7247
0
VERTEX
8
CUT
10
22.5921
20
31.7340
0
VERTEX
8
CUT
10
24.1173
20
30.1861
0
VERTEX
8
CUT
10
24.7492
20
28.8308
0
VERTEX
8
CUT
10
24.6521
20
27.7926
0
VERTEX
8
CUT
10
24.1639
20
26.6275
0
VERTEX
8
CUT
10
22.9662
20
25.0464
0
VERTEX
8
CUT
10
20.6176
20
23.5181
0
VERTEX
8
CUT
10
15.3430
20
20.8036
0
VERTEX
8
CUT
10
13.4138
20
19.4340
0
VERTEX
8
CUT
10
12.0345
20
17.9597
0
VERTEX
8
CUT
10
10.7593
20
15.6118
0
VERTEX
8
CUT
10
10.3766
20
13.7391
0
VERTEX
8
CUT
10
10.5173
20
12.7245
0
VERTEX
8
CUT
10
10.9887
20
11.7761
0
VERTEX
8
CUT
10
12.2378
20
10.6176
0
VERTEX
8
CUT
10
13.4490
20
10.2515
0
VERTEX
8
CUT
10
15.6383
20
10.3680
0
VERTEX
8
CUT
10
16.9806
20
10.7043
0
VERTEX
8
CUT
10
19.3948
20
11.7808
0
VERTEX
8
CUT
10
20.7037
20
12.6334
0
VERTEX
8
CUT
10
23.4217
20
15.0272
0
VERTEX
8
CUT
10
27.5411
20
19.5064
0
VERTEX
8
CUT
10
29.0595
20
20.8681
0
VERTEX
8
CUT
10
31.1252
20
22.0038
0
VERTEX
8
CUT
10
33.0731
20
22.1941
0
VERTEX
8
CUT
10
34.5099
20
21.7897
0
VERTEX
8
CUT
10
35.2746
20
21.2307
0
VERTEX
8
CUT
10
36.1593
20
19.9073
0
VERTEX
8
CUT
10
36.4438
20
18.9371
0
VERTEX
8
CUT
10
36.1410
20
17.1742
0
VERTEX
8
CUT
10
34.5269
20
13.3903
0
VERTEX
8
CUT
10
34.4408
20
12.8197
0
VERTEX
8
CUT
10
34.6294
20
11.9982
0
VERTEX
8
CUT
10
35.2126
20
11.1933
0
VERTEX
8
CUT
10
35.9099
20
10.6922
0
VERTEX
8
CUT
10
36.6443
20
10.4273
0
VERTEX
8
CUT
10
38.1224
20
10.4975
0
VERTEX
8
CUT
10
39.6492
20
11.3761
0
VERTEX
8
CUT
10
41.0769
20
13.3021
0
VERTEX
8
CUT
10
41.5379
20
14.9270
0
VERTEX
8
CUT
10
42.1386
20
19.6145
0
VERTEX
8
CUT
10
42.7502
20
21.0293
0
VERTEX
8
CUT
10
44.1235
20
22.3864
0
VERTEX
8
CUT
10
45.3001
20
22.9087
0
VERTEX
8
CUT
10
46.4872
20
23.0061
0
VERTEX
8
CUT
10
48.1544
20
22.3630
0
VERTEX
8
CUT
10
49.4364
20
20.9897
0
VERTEX
8
CUT
10
49.6831
20
20.2755
0
VERTEX
8
CUT
10
49.8654
20
16.8654
0
VERTEX
8
CUT
10
50.1329
20
16.1479
0
VERTEX
8
CUT
10
51.0248
20
15.2026
0
VERTEX
8
CUT
10
51.9044
20
14.8113
0
VERTEX
8
CUT
10
52.8699
20
14.6772
0
VERTEX
8
CUT
10
57.8693
20
15.1837
0
VERTEX
8
CUT
10
59.2678
20
14.9993
0
VERTEX
8
CUT
10
60.3335
20
14.6056
0
VERTEX
8
CUT
10
61.1679
20
13.9541
0
VERTEX
8
CUT
10
61.5877
20
13.0352
0
VERTEX
8
CUT
10
61.5910
20
12.0070
0
VERTEX
8
CUT
10
60.6094
20
8.8942
0
VERTEX
8
CUT
10
60.9799
20
8.0381
0
VERTEX
8
CUT
10
61.9228
20
7.2164
0
VERTEX
8
CUT
10
63.0184
20
7.0963
0
VERTEX
8
CUT
10
64.2763
20
7.2471
0
VERTEX
8
CUT
10
65.3249
20
7.5416
0
VERTEX
8
CUT
10
66.5180
20
8.2281
0
VERTEX
8
CUT
10
67.5881
20
9.4747
0
VERTEX
8
CUT
10
69.3418
20
12.5844
0
VERTEX
8
CUT
10
71.4220
20
14.9963
0
VERTEX
8
CUT
10
72.6421
20
15.8629
0
VERTEX
8
CUT
10
73.7686
20
16.3784
0
VERTEX
8
CUT
10
74.9538
20
16.6284
0
VERTEX
8
CUT
10
76.1845
20
16.5177
0
VERTEX
8
CUT
10
77.6022
20
15.8239
0
VERTEX
8
CUT
10
78.2717
20
15.1937
0
VERTEX
8
CUT
10
78.7016
20
14.3872
0
VERTEX
8
CUT
10
79.4058
20
10.9254
0
VERTEX
8
CUT
10
80.1737
20
9.7486
0
VERTEX
8
CUT
10
81.0269
20
9.1329
0
VERTEX
8
CUT
10
82.0197
20
8.7195
0
VERTEX
8
CUT
10
83.8103
20
8.6635
0
VERTEX
8
CUT
10
85.8236
20
9.3440
0
VERTEX
8
CUT
10
87.5415
20
10.5790
0
VERTEX
8
CUT
10
88.6443
20
12.4061
0
VERTEX
8
CUT
10
89.7231
20
16.2992
0
VERTEX
8
CUT
10
90.5874
20
17.8831
0
VERTEX
8
CUT
10
92.1167
20
19.3864
0
VERTEX
8
CUT
10
93.4642
20
20.1242
0
VERTEX
8
CUT
10
94.1355
20
20.2910
0
VERTEX
8
CUT
10
94.8592
20
20.2902
0
VERTEX
8
CUT
10
96.0349
20
19.8255
0
VERTEX
8
CUT
10
96.6476
20
19.3452
0
VERTEX
8
CUT
10
97.2848
20
18.4315
0
VERTEX
8
CUT
10
97.5608
20
17.4370
0
VERTEX
8
CUT
10
97.5030
20
16.3218
0
VERTEX
8
CUT
10
96.6606
20
13.1951
0
VERTEX
8
CUT
10
96.8033
20
12.1924
0
VERTEX
8
CUT
10
97.1365
20
11.7010
0
VERTEX
8
CUT
10
97.7731
20
11.3403
0
VERTEX
8
CUT
10
98.4992
20
11.2852
0
VERTEX
8
CUT
10
100.2455
20
11.9581
0
VERTEX
8
CUT
10
101.1437
20
12.6682
0
VERTEX
8
CUT
10
102.1216
20
13.9803
0
VERTEX
8
CUT
10
102.4518
20
14.7324
0
VERTEX
8
CUT
10
103.1038
20
21.1305
0
VERTEX
8
CUT
10
103.5544
20
23.0535
0
VERTEX
8
CUT
10
103.9564
20
23.8607
0
VERTEX
8
CUT
10
104.9471
20
25.0314
0
VERTEX
8
CUT
10
106.4371
20
25.9934
0
VERTEX
8
CUT
10
107.3377
20
26.3123
0
VERTEX
8
CUT
10
108.9427
20
26.4943
0
VERTEX
8
CUT
10
110.4725
20
26.0632
0
VERTEX
8
CUT
10
111.1879
20
25.5893
0
VERTEX
8
CUT
10
112.1556
20
24.4564
0
VERTEX
8
CUT
10
112.5683
20
23.1246
0
VERTEX
8
CUT
10
112.4187
20
20.6048
0
VERTEX
8
CUT
10
111.2711
20
16.7194
0
VERTEX
8
CUT
10
111.0968
20
15.3580
0
VERTEX
8
CUT
10
111.2526
20
13.3494
0
VERTEX
8
CUT
10
111.9587
20
12.2805
0
VERTEX
8
CUT
10
112.7074
20
11.5732
0
VERTEX
8
CUT
10
114.2267
20
10.8673
0
VERTEX
8
CUT
10
115.1586
20
10.7680
0
VERTEX
8
CUT
10
116.1776
20
10.8633
0
VERTEX
8
CUT
10
118.2281
20
11.6056
0
VERTEX
8
CUT
10
120.9242
20
13.4930
0
VERTEX
8
CUT
10
122.9890
20
16.0953
0
VERTEX
8
CUT
10
126.9757
20
23.2013
0
VERTEX
8
CUT
10
128.2286
20
24.9137
0
VERTEX
8
CUT
10
130.2563
20
25.9510
0
VERTEX
8
CUT
10
131.4822
20
25.8922
0
VERTEX
8
CUT
10
132.0811
20
25.6200
0
VERTEX
8
CUT
10
132.6094
20
25.1890
0
VERTEX
8
CUT
10
133.3956
20
23.9602
0
VERTEX
8
CUT
10
133.6516
20
22.5842
0
VERTEX
8
CUT
10
133.5624
20
21.8154
0
VERTEX
8
CUT
10
132.8562
20
19.8907
0
VERTEX
8
CUT
10
131.0090
20
16.4872
0
VERTEX
8
CUT
10
130.5467
20
15.0582
0
VERTEX
8
CUT
10
130.4077
20
13.7847
0
VERTEX
8
CUT
10
130.6413
20
12.7685
0
VERTEX
8
CUT
10
130.9306
20
12.3126
0
VERTEX
8
CUT
10
131.4644
20
11.8147
0
VERTEX
8
CUT
10
132.5267
20
11.5632
0
VERTEX
8
CUT
10
133.5338
20
12.0420
0
VERTEX
8
CUT
10
134.0871
20
12.6389
0
VERTEX
8
CUT
10
135.6018
20
15.9132
0
VERTEX
8
CUT
10
136.6651
20
16.8213
0
VERTEX
8
CUT
10
137.2851
20
16.9604
0
VERTEX
8
CUT
10
137.9929
20
16.8589
0
VERTEX
8
CUT
10
140.7042
20
15.2370
0
VERTEX
8
CUT
10
141.8144
20
14.9188
0
VERTEX
8
CUT
10
143.4138
20
15.3720
0
VERTEX
8
CUT
10
144.6102
20
16.4047
0
VERTEX
8
CUT
10
145.4528
20
17.9321
0
VERTEX
8
CUT
10
145.8033
20
20.0807
0
VERTEX
8
CUT
10
145.1148
20
28.5141
0
VERTEX
8
CUT
10
145.4775
20
30.5929
0
VERTEX
8
CUT
10
146.6977
20
32.7964
0
VERTEX
8
CUT
10
148.4024
20
33.9834
0
VERTEX
8
CUT
10
149.4951
20
34.2536
0
VERTEX
8
CUT
10
150.6288
20
34.1816
0
VERTEX
8
CUT
10
152.4959
20
33.4534
0
VERTEX
8
CUT
10
153.4887
20
32.4298
0
VERTEX
8
CUT
10
154.2491
20
30.8167
0
VERTEX
8
CUT
10
154.6162
20
29.3564
0
VERTEX
8
CUT
10
154.6760
20
27.7072
0
VERTEX
8
CUT
10
154.0130
20
22.4005
0
VERTEX
8
CUT
10
154.0127
20
19.6790
0
VERTEX
8
CUT
10
154.1997
20
18.4531
0
VERTEX
8
CUT
10
154.9700
20
16.6247
0
VERTEX
8
CUT
10
156.2283
20
15.4410
0
VERTEX
8
CUT
10
157.8864
20
14.8888
0
VERTEX
8
CUT
10
159.4626
20
15.3349
0
VERTEX
8
CUT
10
161.8662
20
16.8625
0
VERTEX
8
CUT
10
162.4550
20
16.9898
0
VERTEX
8
CUT
10
163.1980
20
16.7688
0
VERTEX
8
CUT
10
164.2712
20
15.7449
0
VERTEX
8
CUT
10
165.7701
20
12.7771
0
VERTEX
8
CUT
10
166.5902
20
11.8729
0
VERTEX
8
CUT
10
167.4902
20
11.3022
0
VERTEX
8
CUT
10
168.3156
20
11.6597
0
VERTEX
8
CUT
10
168.9781
20
12.3955
0
VERTEX
8
CUT
10
169.3821
20
14.1753
0
VERTEX
8
CUT
10
168.7485
20
16.5555
0
VERTEX
8
CUT
10
166.9454
20
19.8657
0
VERTEX
8
CUT
10
166.3172
20
21.6060
0
VERTEX
8
CUT
10
166.1979
20
22.5836
0
VERTEX
8
CUT
10
166.5057
20
24.0295
0
VERTEX
8
CUT
10
167.3259
20
25.1845
0
VERTEX
8
CUT
10
167.9064
20
25.5825
0
VERTEX
8
CUT
10
169.3502
20
25.9520
0
VERTEX
8
CUT
10
170.0748
20
25.8842
0
VERTEX
8
CUT
10
171.1894
20
25.3176
0
VERTEX
8
CUT
10
172.8039
20
23.3673
0
VERTEX
8
CUT
10
176.1575
20
17.1776
0
VERTEX
8
CUT
10
178.2158
20
14.3228
0
VERTEX
8
CUT
10
179.6234
20
12.9744
0
VERTEX
8
CUT
10
181.0664
20
11.9559
0
VERTEX
8
CUT
10
182.4249
20
11.2640
0
VERTEX
8
CUT
10
183.7556
20
10.8660
0
VERTEX
8
CUT
10
185.0476
20
10.7702
0
VERTEX
8
CUT
10
186.1952
20
11.0225
0
VERTEX
8
CUT
10
187.2554
20
11.5840
0
VERTEX
8
CUT
10
188.1027
20
12.4324
0
VERTEX
8
CUT
10
188.6477
20
13.5151
0
VERTEX
8
CUT
10
188.7822
20
14.8121
0
VERTEX
8
CUT
10
188.6099
20
16.4484
0
VERTEX
8
CUT
10
187.1321
20
22.0666
0
VERTEX
8
CUT
10
187.1636
20
23.1699
0
VERTEX
8
CUT
10
187.4985
20
24.2107
0
VERTEX
8
CUT
10
187.8475
20
24.8051
0
VERTEX
8
CUT
10
188.7741
20
25.6889
0
VERTEX
8
CUT
10
189.9477
20
26.3028
0
VERTEX
8
CUT
10
191.2740
20
26.5543
0
VERTEX
8
CUT
10
193.0770
20
26.1270
0
VERTEX
8
CUT
10
194.1655
20
25.5425
0
VERTEX
8
CUT
10
195.8764
20
23.7202
0
VERTEX
8
CUT
10
196.4660
20
22.5414
0
VERTEX
8
CUT
10
196.8408
20
21.2223
0
VERTEX
8
CUT
10
197.0215
20
19.8281
0
VERTEX
8
CUT
10
196.9305
20
16.5817
0
VERTEX
8
CUT
10
197.2451
20
15.0394
0
VERTEX
8
CUT
10
198.3979
20
13.0630
0
VERTEX
8
CUT
10
199.5755
20
11.9743
0
VERTEX
8
CUT
10
200.6421
20
11.3884
0
VERTEX
8
CUT
10
201.5807
20
11.2507
0
VERTEX
8
CUT
10
202.3959
20
11.5098
0
VERTEX
8
CUT
10
202.9642
20
12.0367
0
VERTEX
8
CUT
10
203.2434
20
12.5717
0
VERTEX
8
CUT
10
203.2540
20
13.2214
0
VERTEX
8
CUT
10
202.2577
20
16.3366
0
VERTEX
8
CUT
10
202.1373
20
17.3935
0
VERTEX
8
CUT
10
202.2785
20
17.8978
0
VERTEX
8
CUT
10
203.1764
20
19.2006
0
VERTEX
8
CUT
10
204.3394
20
20.0265
0
VERTEX
8
CUT
10
205.0836
20
20.2395
0
VERTEX
8
CUT
10
206.3749
20
20.1472
0
VERTEX
8
CUT
10
207.0916
20
19.8750
0
VERTEX
8
CUT
10
208.4212
20
18.9686
0
VERTEX
8
CUT
10
209.5259
20
17.4429
0
VERTEX
8
CUT
10
210.4162
20
15.4869
0
VERTEX
8
CUT
10
211.0772
20
12.8419
0
VERTEX
8
CUT
10
212.4180
20
10.4606
0
VERTEX
8
CUT
10
213.6027
20
9.4617
0
VERTEX
8
CUT
10
215.7173
20
8.6853
0
VERTEX
8
CUT
10
217.6764
20
8.6655
0
VERTEX
8
CUT
10
218.4276
20
8.8772
0
VERTEX
8
CUT
10
219.6134
20
9.6602
0
VERTEX
8
CUT
10
220.4693
20
10.8928
0
VERTEX
8
CUT
10
220.8794
20
13.7023
0
VERTEX
8
CUT
10
221.5614
20
15.2298
0
VERTEX
8
CUT
10
222.8143
20
16.2261
0
VERTEX
8
CUT
10
224.7393
20
16.6602
0
VERTEX
8
CUT
10
226.9099
20
15.9516
0
VERTEX
8
CUT
10
228.7268
20
14.7876
0
VERTEX
8
CUT
10
230.1846
20
13.0258
0
VERTEX
8
CUT
10
232.2765
20
9.3778
0
VERTEX
8
CUT
10
233.5424
20
8.0248
0
VERTEX
8
CUT
10
234.7993
20
7.3131
0
VERTEX
8
CUT
10
235.5807
20
7.1258
0
VERTEX
8
CUT
10
236.8685
20
7.0930
0
VERTEX
8
CUT
10
237.7962
20
7.3453
0
VERTEX
8
CUT
10
238.8515
20
8.0530
0
VERTEX
8
CUT
10
239.2703
20
8.7742
0
VERTEX
8
CUT
10
239.1325
20
9.6089
0
VERTEX
8
CUT
10
238.3620
20
11.4993
0
VERTEX
8
CUT
10
238.2278
20
12.4876
0
VERTEX
8
CUT
10
238.4923
20
13.4203
0
VERTEX
8
CUT
10
239.1496
20
14.2705
0
VERTEX
8
CUT
10
239.9378
20
14.8767
0
VERTEX
8
CUT
10
240.6247
20
15.1265
0
VERTEX
8
CUT
10
243.7361
20
15.0963
0
VERTEX
8
CUT
10
246.5780
20
14.6786
0
VERTEX
8
CUT
10
248.2963
20
14.9217
0
VERTEX
8
CUT
10
248.9903
20
15.2857
0
VERTEX
8
CUT
10
249.8557
20
16.5703
0
VERTEX
8
CUT
10
250.0183
20
19.7553
0
VERTEX
8
CUT
10
250.3456
20
20.9474
0
VERTEX
8
CUT
10
251.3324
20
22.2111
0
VERTEX
8
CUT
10
253.0641
20
22.9460
0
VERTEX
8
CUT
10
254.1792
20
22.9409
0
VERTEX
8
CUT
10
255.2609
20
22.5879
0
VERTEX
8
CUT
10
256.2088
20
21.9218
0
VERTEX
8
CUT
10
257.0164
20
20.9581
0
VERTEX
8
CUT
10
257.6391
20
19.7742
0
VERTEX
8
CUT
10
258.0113
20
18.3519
0
VERTEX
8
CUT
10
258.2291
20
15.1235
0
VERTEX
8
CUT
10
258.6734
20
13.3182
0
VERTEX
8
CUT
10
259.1785
20
12.4253
0
VERTEX
8
CUT
10
260.0846
20
11.4885
0
VERTEX
8
CUT
10
261.8182
20
10.5057
0
VERTEX
8
CUT
10
263.6155
20
10.5643
0
VERTEX
8
CUT
10
264.6185
20
11.1124
0
VERTEX
8
CUT
10
265.1579
20
11.8609
0
VERTEX
8
CUT
10
265.2620
20
12.4715
0
VERTEX
8
CUT
10
265.0969
20
13.7206
0
VERTEX
8
CUT
10
263.7176
20
17.0583
0
VERTEX
8
CUT
10
263.4933
20
19.1305
0
VERTEX
8
CUT
10
263.9081
20
20.2820
0
VERTEX
8
CUT
10
264.7201
20
21.2526
0
VERTEX
8
CUT
10
266.1737
20
22.0872
0
VERTEX
8
CUT
10
267.3174
20
22.2233
0
VERTEX
8
CUT
10
269.3899
20
21.7199
0
VERTEX
8
CUT
10
271.3635
20
20.5361
0
VERTEX
8
CUT
10
277.3053
20
14.0886
0
VERTEX
8
CUT
10
279.2657
20
12.5121
0
VERTEX
8
CUT
10
281.2211
20
11.3538
0
VERTEX
8
CUT
10
283.2766
20
10.5864
0
VERTEX
8
CUT
10
284.4412
20
10.3720
0
VERTEX
8
CUT
10
286.4665
20
10.3745
0
VERTEX
8
CUT
10
288.1080
20
10.8934
0
VERTEX
8
CUT
10
289.0784
20
11.8628
0
VERTEX
8
CUT
10
289.4139
20
13.4312
0
VERTEX
8
CUT
10
289.1158
20
15.3844
0
VERTEX
8
CUT
10
288.0549
20
17.5217
0
VERTEX
8
CUT
10
286.7549
20
19.0508
0
VERTEX
8
CUT
10
284.9805
20
20.4666
0
VERTEX
8
CUT
10
277.3293
20
24.7495
0
VERTEX
8
CUT
10
275.9046
20
26.0977
0
VERTEX
8
CUT
10
275.2651
20
27.4384
0
VERTEX
8
CUT
10
275.1904
20
28.2618
0
VERTEX
8
CUT
10
275.4496
20
29.9215
0
VERTEX
8
CUT
10
275.8165
20
30.5469
0
VERTEX
8
CUT
10
276.3692
20
31.0195
0
VERTEX
8
CUT
10
278.0056
20
31.5777
0
VERTEX
8
CUT
10
283.0727
20
31.8980
0
VERTEX
8
CUT
10
283.6500
20
32.2462
0
VERTEX
8
CUT
10
284.1617
20
33.0419
0
VERTEX
8
CUT
10
284.1764
20
33.5518
0
VERTEX
8
CUT
10
283.7127
20
34.3272
0
VERTEX
8
CUT
10
280.0566
20
36.5529
0
VERTEX
8
CUT
10
279.0611
20
37.5593
0
VERTEX
8
CUT
10
278.7725
20
38.0923
0
VERTEX
8
CUT
10
278.6518
20
39.1649
0
VERTEX
8
CUT
10
279.1812
20
40.3943
0
VERTEX
8
CUT
10
279.6914
20
40.9487
0
VERTEX
8
CUT
10
280.4021
20
41.3765
0
VERTEX
8
CUT
10
281.9558
20
41.6508
0
VERTEX
8
CUT
10
283.7972
20
41.3192
0
VERTEX
8
CUT
10
286.7925
20
40.2170
0
VERTEX
8
CUT
10
287.8258
20
40.2139
0
VERTEX
8
CUT
10
288.6149
20
40.5486
0
VERTEX
8
CUT
10
289.2650
20
41.2173
0
VERTEX
8
CUT
10
289.5719
20
41.9386
0
VERTEX
8
CUT
10
289.4444
20
43.1451
0
VERTEX
8
CUT
10
288.4523
20
44.7549
0
VERTEX
8
CUT
10
287.2788
20
45.7602
0
VERTEX
8
CUT
10
286.4748
20
46.1932
0
VERTEX
8
CUT
10
284.5407
20
46.8056
0
VERTEX
8
CUT
10
278.0670
20
48.0118
0
VERTEX
8
CUT
10
276.4791
20
48.5029
0
VERTEX
8
CUT
10
273.9387
20
49.7650
0
VERTEX
8
CUT
10
272.1229
20
51.3999
0
VERTEX
8
CUT
10
271.0858
20
52.9391
0
VERTEX
8
CUT
10
270.5616
20
54.1847
0
VERTEX
8
CUT
10
270.3773
20
55.9652
0
VERTEX
8
CUT
10
270.6044
20
57.9771
0
VERTEX
8
CUT
10
271.3851
20
59.4677
0
VERTEX
8
CUT
10
273.0649
20
60.9304
0
VERTEX
8
CUT
10
274.8463
20
61.4414
0
VERTEX
8
CUT
10
276.7348
20
61.1376
0
VERTEX
8
CUT
10
277.7390
20
60.6431
0
VERTEX
8
CUT
10
281.4288
20
57.7775
0
VERTEX
8
CUT
10
282.8022
20
57.0307
0
VERTEX
8
CUT
10
284.4246
20
56.8096
0
VERTEX
8
CUT
10
285.7433
20
57.4491
0
VERTEX
8
CUT
10
286.3058
20
58.0678
0
VERTEX
8
CUT
10
286.5483
20
58.7513
0
VERTEX
8
CUT
10
286.5499
20
59.6253
0
VERTEX
8
CUT
10
286.2714
20
60.5155
0
VERTEX
8
CUT
10
284.9204
20
62.4475
0
VERTEX
8
CUT
10
283.2104
20
63.9824
0
VERTEX
8
CUT
10
282.3091
20
65.1086
0
VERTEX
8
CUT
10
281.6336
20
66.7676
0
VERTEX
8
CUT
10
281.7600
20
67.8339
0
VERTEX
8
CUT
10
282.6052
20
68.9137
0
VERTEX
8
CUT
10
283.9683
20
69.5837
0
VERTEX
8
CUT
10
287.2639
20
69.0796
0
VERTEX
8
CUT
10
288.7568
20
69.1785
0
VERTEX
8
CUT
10
289.3968
20
69.5388
0
VERTEX
8
CUT
10
290.1137
20
70.3369
0
VERTEX
8
CUT
10
290.5183
20
71.4585
0
VERTEX
8
CUT
10
290.2837
20
72.7949
0
VERTEX
8
CUT
10
289.4493
20
74.1277
0
VERTEX
8
CUT
10
288.7098
20
74.8983
0
VERTEX
8
CUT
10
286.1673
20
76.5004
0
VERTEX
8
CUT
10
280.6696
20
79.3417
0
VERTEX
8
CUT
10
277.6403
20
81.5536
0
VERTEX
8
CUT
10
276.3767
20
83.1482
0
VERTEX
8
CUT
10
275.8370
20
84.1294
0
VERTEX
8
CUT
10
275.3446
20
85.2172
0
VERTEX
8
CUT
10
274.9195
20
87.2080
0
VERTEX
8
CUT
10
275.1628
20
88.9411
0
VERTEX
8
CUT
10
275.5628
20
89.7199
0
VERTEX
8
CUT
10
276.8038
20
90.8005
0
VERTEX
8
CUT
10
278.1814
20
91.2158
0
VERTEX
8
CUT
10
279.4970
20
91.0334
0
VERTEX
8
CUT
10
280.2323
20
90.6732
0
VERTEX
8
CUT
10
281.6070
20
89.5160
0
VERTEX
8
CUT
10
283.7379
20
87.2401
0
VERTEX
8
CUT
10
284.4045
20
86.7135
0
VERTEX
8
CUT
10
285.4837
20
86.2816
0
VERTEX
8
CUT
10
286.5418
20
86.2114
0
VERTEX
8
CUT
10
287.4242
20
86.4342
0
VERTEX
8
CUT
10
288.1770
20
86.8989
0
VERTEX
8
CUT
10
288.8908
20
87.6807
0
VERTEX
8
CUT
10
289.3400
20
88.6843
0
VERTEX
8
CUT
10
289.4995
20
89.7359
0
VERTEX
8
CUT
10
289.3568
20
90.9294
0
VERTEX
8
CUT
10
288.2895
20
93.1564
0
VERTEX
8
CUT
10
286.1517
20
95.5671
0
VERTEX
8
CUT
10
281.9416
20
99.0866
0
VERTEX
8
CUT
10
280.6289
20
100.4583
0
VERTEX
8
CUT
10
279.9221
20
101.7987
0
VERTEX
8
CUT
10
279.7012
20
103.1909
0
VERTEX
8
CUT
10
280.1416
20
104.7677
0
VERTEX
8
CUT
10
280.8242
20
105.5029
0
VERTEX
8
CUT
10
281.6632
20
105.9467
0
VERTEX
8
CUT
10
282.5570
20
105.9756
0
VERTEX
8
CUT
10
283.9197
20
105.4913
0
VERTEX
8
CUT
10
286.7745
20
103.7196
0
VERTEX
8
CUT
10
287.8878
20
103.3414
0
VERTEX
8
CUT
10
288.5690
20
103.4687
0
VERTEX
8
CUT
10
289.3229
20
104.1207
0
VERTEX
8
CUT
10
289.5892
20
104.8563
0
VERTEX
8
CUT
10
289.5248
20
105.5468
0
VERTEX
8
CUT
10
288.6645
20
107.0652
0
VERTEX
8
CUT
10
287.6983
20
108.0079
0
VERTEX
8
CUT
10
281.7772
20
112.2174
0
VERTEX
8
CUT
10
279.1432
20
114.3969
0
VERTEX
8
CUT
10
277.5212
20
116.4302
0
VERTEX
8
CUT
10
276.7930
20
118.4024
0
VERTEX
8
CUT
10
276.6943
20
119.5146
0
VERTEX
8
CUT
10
277.0082
20
121.4884
0
VERTEX
8
CUT
10
277.3992
20
122.2635
0
VERTEX
8
CUT
10
277.9858
20
122.8780
0
VERTEX
8
CUT
10
279.7415
20
123.6322
0
VERTEX
8
CUT
10
284.3717
20
124.0848
0
VERTEX
8
CUT
10
285.9570
20
124.5232
0
VERTEX
8
CUT
10
287.4697
20
125.7503
0
VERTEX
8
CUT
10
288.2451
20
127.3924
0
VERTEX
8
CUT
10
288.3854
20
128.3702
0
VERTEX
8
CUT
10
288.2584
20
129.2327
0
VERTEX
8
CUT
10
287.7933
20
130.2076
0
VERTEX
8
CUT
10
286.1686
20
131.7638
0
VERTEX
8
CUT
10
282.4123
20
133.5822
0
VERTEX
8
CUT
10
281.5772
20
134.1584
0
VERTEX
8
CUT
10
280.5298
20
135.5878
0
VERTEX
8
CUT
10
280.3022
20
137.1018
0
VERTEX
8
CUT
10
280.5633
20
137.8936
0
VERTEX
8
CUT
10
281.0821
20
138.5801
0
VERTEX
8
CUT
10
282.3037
20
139.4144
0
VERTEX
8
CUT
10
283.6935
20
139.5167
0
VERTEX
8
CUT
10
286.4079
20
138.7279
0
VERTEX
8
CUT
10
288.0172
20
138.5506
0
VERTEX
8
CUT
10
289.5131
20
139.7038
0
VERTEX
8
CUT
10
290.1566
20
140.7514
0
VERTEX
8
CUT
10
290.1630
20
142.3394
0
VERTEX
8
CUT
10
289.4624
20
144.1781
0
VERTEX
8
CUT
10
288.0141
20
145.6802
0
VERTEX
8
CUT
10
285.3350
20
147.3997
0
VERTEX
8
CUT
10
283.9634
20
148.5839
0
VERTEX
8
CUT
10
283.2343
20
149.7588
0
VERTEX
8
CUT
10
283.0094
20
151.0070
0
VERTEX
8
CUT
10
283.2879
20
152.3000
0
VERTEX
8
CUT
10
284.0145
20
153.6007
0
VERTEX
8
CUT
10
285.0798
20
154.6650
0
VERTEX
8
CUT
10
287.0323
20
155.7068
0
VERTEX
8
CUT
10
288.0438
20
156.5228
0
VERTEX
8
CUT
10
289.1430
20
158.0117
0
VERTEX
8
CUT
10
289.4579
20
158.8805
0
VERTEX
8
CUT
10
289.8660
20
162.6779
0
VERTEX
8
CUT
10
289.8061
20
169.4662
0
VERTEX
8
CUT
10
289.6001
20
172.6960
0
VERTEX
8
CUT
10
289.0575
20
174.4908
0
VERTEX
8
CUT
10
288.0318
20
175.5247
0
VERTEX
8
CUT
10
286.1571
20
176.4261
0
VERTEX
8
CUT
10
284.9270
20
176.3914
0
VERTEX
8
CUT
10
283.0287
20
175.7569
0
VERTEX
8
CUT
10
281.4137
20
174.9047
0
VERTEX
8
CUT
10
278.3518
20
172.5784
0
VERTEX
8
CUT
10
275.9556
20
169.9530
0
VERTEX
8
CUT
10
275.2895
20
168.7777
0
VERTEX
8
CUT
10
275.0360
20
167.3094
0
VERTEX
8
CUT
10
275.6313
20
166.4882
0
VERTEX
8
CUT
10
276.6468
20
166.2550
0
VERTEX
8
CUT
10
280.2833
20
166.3703
0
VERTEX
8
CUT
10
281.1579
20
165.9569
0
VERTEX
8
CUT
10
281.8989
20
165.2850
0
VERTEX
8
CUT
10
282.4688
20
164.4051
0
VERTEX
8
CUT
10
282.7040
20
163.4334
0
VERTEX
8
CUT
10
282.3359
20
161.7103
0
VERTEX
8
CUT
10
281.5017
20
160.3318
0
VERTEX
8
CUT
10
279.1749
20
158.1566
0
VERTEX
8
CUT
10
272.8593
20
154.1047
0
VERTEX
8
CUT
10
270.2370
20
152.1660
0
VERTEX
8
CUT
10
268.3128
20
149.9540
0
VERTEX
8
CUT
10
267.9013
20
149.1341
0
VERTEX
8
CUT
10
267.8209
20
148.5269
0
VERTEX
8
CUT
10
268.2441
20
147.6955
0
VERTEX
8
CUT
10
269.0614
20
147.2709
0
VERTEX
8
CUT
10
270.2712
20
147.3328
0
VERTEX
8
CUT
10
273.1193
20
148.0573
0
VERTEX
8
CUT
10
274.6079
20
148.0579
0
VERTEX
8
CUT
10
275.8560
20
147.6748
0
VERTEX
8
CUT
10
276.8204
20
146.9341
0
VERTEX
8
CUT
10
277.4017
20
145.9025
0
VERTEX
8
CUT
10
277.5929
20
144.6179
0
VERTEX
8
CUT
10
277.3406
20
143.1773
0
VERTEX
8
CUT
10
276.6221
20
141.6216
0
VERTEX
8
CUT
10
275.2625
20
139.8691
0
VERTEX
8
CUT
10
268.6930
20
134.2298
0
VERTEX
8
CUT
10
267.5838
20
133.0078
0
VERTEX
8
CUT
10
267.0121
20
131.9613
0
VERTEX
8
CUT
10
266.9847
20
131.0352
0
VERTEX
8
CUT
10
267.4725
20
130.3618
0
VERTEX
8
CUT
10
268.4844
20
129.8935
0
VERTEX
8
CUT
10
270.2195
20
129.6054
0
VERTEX
8
CUT
10
271.4870
20
128.5912
0
VERTEX
8
CUT
10
271.6970
20
127.9361
0
VERTEX
8
CUT
10
271.6025
20
127.2583
0
VERTEX
8
CUT
10
270.8534
20
125.9607
0
VERTEX
8
CUT
10
268.2667
20
123.9752
0
VERTEX
8
CUT
10
262.9767
20
121.2087
0
VERTEX
8
CUT
10
260.7663
20
119.8139
0
VERTEX
8
CUT
10
259.1446
20
118.4818
0
VERTEX
8
CUT
10
257.9470
20
117.1733
0
VERTEX
8
CUT
10
257.1903
20
115.8157
0
VERTEX
8
CUT
10
256.9416
20
114.5519
0
VERTEX
8
CUT
10
257.1467
20
113.2815
0
VERTEX
8
CUT
10
257.8018
20
112.0284
0
VERTEX
8
CUT
10
258.7806
20
111.0159
0
VERTEX
8
CUT
10
261.0706
20
109.9113
0
VERTEX
8
CUT
10
266.5287
20
109.0726
0
VERTEX
8
CUT
10
268.6318
20
108.3098
0
VERTEX
8
CUT
10
269.1351
20
107.9097
0
VERTEX
8
CUT
10
269.7116
20
106.9510
0
VERTEX
8
CUT
10
269.8045
20
105.5554
0
VERTEX
8
CUT
10
269.5194
20
104.8855
0
VERTEX
8
CUT
10
268.4786
20
103.7297
0
VERTEX
8
CUT
10
267.7236
20
103.2820
0
VERTEX
8
CUT
10
265.8330
20
102.7451
0
VERTEX
8
CUT
10
264.2874
20
102.6776
0
VERTEX
8
CUT
10
256.7245
20
103.0997
0
VERTEX
8
CUT
10
254.5156
20
102.5507
0
VERTEX
8
CUT
10
253.4383
20
101.9752
0
VERTEX
8
CUT
10
252.8596
20
101.0528
0
VERTEX
8
CUT
10
253.0696
20
100.2127
0
VERTEX
8
CUT
10
253.7670
20
99.4930
0
VERTEX
8
CUT
10
256.1962
20
97.8959
0
VERTEX
8
CUT
10
257.2557
20
96.9319
0
VERTEX
8
CUT
10
258.0970
20
95.5435
0
VERTEX
8
CUT
10
258.0574
20
94.2307
0
VERTEX
8
CUT
10
257.3008
20
92.7945
0
VERTEX
8
CUT
10
255.8993
20
91.7904
0
VERTEX
8
CUT
10
253.9227
20
91.2206
0
VERTEX
8
CUT
10
250.5540
20
90.8828
0
VERTEX
8
CUT
10
249.2167
20
90.1723
0
VERTEX
8
CUT
10
248.6554
20
89.1807
0
VERTEX
8
CUT
10
248.9163
20
87.6969
0
VERTEX
8
CUT
10
250.0923
20
86.2365
0
VERTEX
8
CUT
10
252.1957
20
84.9490
0
VERTEX
8
CUT
10
256.0156
20
83.4737
0
VERTEX
8
CUT
10
257.4551
20
82.7200
0
VERTEX
8
CUT
10
258.4893
20
81.8630
0
VERTEX
8
CUT
10
259.8180
20
79.6194
0
VERTEX
8
CUT
10
259.1770
20
78.3711
0
VERTEX
8
CUT
10
258.4143
20
77.3949
0
VERTEX
8
CUT
10
256.7890
20
76.6127
0
VERTEX
8
CUT
10
255.3640
20
76.4813
0
VERTEX
8
CUT
10
251.4395
20
77.3836
0
VERTEX
8
CUT
10
249.3759
20
77.5928
0
VERTEX
8
CUT
10
248.8193
20
77.5295
0
VERTEX
8
CUT
10
248.2807
20
77.2108
0
VERTEX
8
CUT
10
247.5013
20
76.1478
0
VERTEX
8
CUT
10
247.3472
20
75.3052
0
VERTEX
8
CUT
10
247.5145
20
74.2536
0
VERTEX
8
CUT
10
248.0074
20
73.0633
0
VERTEX
8
CUT
10
248.8776
20
71.7833
0
VERTEX
8
CUT
10
250.0932
20
70.3552
0
VERTEX
8
CUT
10
254.8914
20
66.2144
0
VERTEX
8
CUT
10
255.9959
20
65.0232
0
VERTEX
8
CUT
10
256.8440
20
63.8325
0
VERTEX
8
CUT
10
257.3314
20
62.7396
0
VERTEX
8
CUT
10
257.4993
20
61.5505
0
VERTEX
8
CUT
10
257.3396
20
60.5883
0
VERTEX
8
CUT
10
256.8185
20
59.7399
0
VERTEX
8
CUT
10
255.9159
20
59.0315
0
VERTEX
8
CUT
10
254.9013
20
58.7383
0
VERTEX
8
CUT
10
252.9826
20
59.1236
0
VERTEX
8
CUT
10
249.2036
20
61.3899
0
VERTEX
8
CUT
10
247.5666
20
62.1688
0
VERTEX
8
CUT
10
246.9275
20
62.1658
0
VERTEX
8
CUT
10
246.2430
20
61.9053
0
VERTEX
8
CUT
10
245.6943
20
61.4820
0
VERTEX
8
CUT
10
245.3870
20
60.9506
0
VERTEX
8
CUT
10
245.3872
20
59.9172
0
VERTEX
8
CUT
10
246.2110
20
57.3994
0
VERTEX
8
CUT
10
249.2725
20
51.6388
0
VERTEX
8
CUT
10
250.5965
20
48.7207
0
VERTEX
8
CUT
10
251.0360
20
47.0618
0
VERTEX
8
CUT
10
251.2153
20
44.8979
0
VERTEX
8
CUT
10
250.7255
20
43.8113
0
VERTEX
8
CUT
10
249.3530
20
42.8364
0
VERTEX
8
CUT
10
248.1827
20
42.9679
0
VERTEX
8
CUT
10
246.8023
20
43.9044
0
VERTEX
8
CUT
10
246.3342
20
43.6620
0
VERTEX
8
CUT
10
246.8268
20
35.8461
0
VERTEX
8
CUT
10
246.7960
20
31.7402
0
VERTEX
8
CUT
10
246.3452
20
27.1989
0
VERTEX
8
CUT
10
245.3437
20
24.2068
0
VERTEX
8
CUT
10
243.9137
20
21.6722
0
VERTEX
8
CUT
10
242.1432
20
19.6800
0
VERTEX
8
CUT
10
241.0841
20
18.8779
0
VERTEX
8
CUT
10
240.0498
20
18.3320
0
VERTEX
8
CUT
10
237.6063
20
17.5987
0
VERTEX
8
CUT
10
234.8104
20
17.5391
0
VERTEX
8
CUT
10
231.7993
20
18.0913
0
VERTEX
8
CUT
10
228.5269
20
19.3062
0
VERTEX
8
CUT
10
224.9966
20
21.1012
0
VERTEX
8
CUT
10
221.1024
20
23.5948
0
VERTEX
8
CUT
10
216.9617
20
26.6853
0
VERTEX
8
CUT
10
209.4709
20
32.9073
0
VERTEX
8
CUT
10
209.0026
20
32.8258
0
VERTEX
8
CUT
10
208.4867
20
31.7679
0
VERTEX
8
CUT
10
207.8014
20
31.1714
0
VERTEX
8
CUT
10
206.6711
20
31.2211
0
VERTEX
8
CUT
10
205.9395
20
31.6290
0
VERTEX
8
CUT
10
204.3193
20
33.0992
0
VERTEX
8
CUT
10
197.0329
20
41.7372
0
VERTEX
8
CUT
10
195.1801
20
43.3583
0
VERTEX
8
CUT
10
193.6733
20
44.1475
0
VERTEX
8
CUT
10
192.8438
20
44.1994
0
VERTEX
8
CUT
10
192.2331
20
43.8412
0
VERTEX
8
CUT
10
191.7076
20
43.2107
0
VERTEX
8
CUT
10
191.4051
20
42.2129
0
VERTEX
8
CUT
10
191.8327
20
40.5336
0
VERTEX
8
CUT
10
193.3418
20
36.7288
0
VERTEX
8
CUT
10
193.4731
20
36.0203
0
VERTEX
8
CUT
10
193.3683
20
34.9311
0
VERTEX
8
CUT
10
192.8328
20
34.0701
0
VERTEX
8
CUT
10
191.7800
20
33.4896
0
VERTEX
8
CUT
10
191.0794
20
33.4192
0
VERTEX
8
CUT
10
189.7949
20
33.8162
0
VERTEX
8
CUT
10
188.3203
20
34.8418
0
VERTEX
8
CUT
10
186.2341
20
37.4733
0
VERTEX
8
CUT
10
185.3704
20
39.1367
0
VERTEX
8
CUT
10
183.4423
20
43.8332
0
VERTEX
8
CUT
10
182.1379
20
46.0683
0
VERTEX
8
CUT
10
181.3675
20
46.9013
0
VERTEX
8
CUT
10
180.0426
20
47.6955
0
VERTEX
8
CUT
10
179.4845
20
47.7111
0
VERTEX
8
CUT
10
178.9750
20
47.4275
0
VERTEX
8
CUT
10
178.6189
20
46.6872
0
VERTEX
8
CUT
10
178.6191
20
43.9864
0
VERTEX
8
CUT
10
178.2475
20
43.3938
0
VERTEX
8
CUT
10
177.5821
20
42.8580
0
VERTEX
8
CUT
10
176.7540
20
42.8471
0
VERTEX
8
CUT
10
175.8177
20
43.4977
0
VERTEX
8
CUT
10
174.7157
20
44.7208
0
VERTEX
8
CUT
10
172.0876
20
48.7363
0
VERTEX
8
CUT
10
169.9699
20
51.3555
0
VERTEX
8
CUT
10
167.7988
20
53.1427
0
VERTEX
8
CUT
10
165.6005
20
54.0534
0
VERTEX
8
CUT
10
164.3211
20
54.1633
0
VERTEX
8
CUT
10
163.3352
20
53.8903
0
VERTEX
8
CUT
10
163.9047
20
51.3205
0
VERTEX
8
CUT
10
163.9305
20
50.4376
0
VERTEX
8
CUT
10
163.2620
20
49.4929
0
VERTEX
8
CUT
10
162.0648
20
48.8123
0
VERTEX
8
CUT
10
161.2557
20
48.9868
0
VERTEX
8
CUT
10
159.3678
20
50.1437
0
VERTEX
8
CUT
10
155.3141
20
54.4059
0
VERTEX
8
CUT
10
154.1447
20
55.0184
0
VERTEX
8
CUT
10
153.4315
20
54.9018
0
VERTEX
8
CUT
10
151.1849
20
53.4326
0
VERTEX
8
CUT
10
149.8981
20
52.9631
0
VERTEX
8
CUT
10
148.6111
20
53.4454
0
VERTEX
8
CUT
10
146.4104
20
54.9808
0
VERTEX
8
CUT
10
145.5339
20
54.9175
0
VERTEX
8
CUT
10
144.1002
20
53.9092
0
VERTEX
8
CUT
10
140.1808
20
49.9631
0
VERTEX
8
CUT
10
139.0818
20
49.1864
0
VERTEX
8
CUT
10
138.0223
20
48.9030
0
VERTEX
8
CUT
10
136.8190
20
49.1469
0
VERTEX
8
CUT
10
136.1347
20
50.0919
0
VERTEX
8
CUT
10
136.0606
20
51.5772
0
VERTEX
8
CUT
10
136.4583
20
53.3022
0
VERTEX
8
CUT
10
136.3678
20
53.9215
0
VERTEX
8
CUT
10
135.6848
20
54.3026
0
VERTEX
8
CUT
10
135.0107
20
54.3433
0
VERTEX
8
CUT
10
133.2811
20
53.8605
0
VERTEX
8
CUT
10
131.2942
20
52.7186
0
VERTEX
8
CUT
10
129.4970
20
51.1225
0
VERTEX
8
CUT
10
127.7002
20
48.7051
0
VERTEX
8
CUT
10
124.9583
20
44.4270
0
VERTEX
8
CUT
10
123.6416
20
43.2404
0
VERTEX
8
CUT
10
122.2936
20
43.0749
0
VERTEX
8
CUT
10
121.3276
20
43.7958
0
VERTEX
8
CUT
10
121.0245
20
44.6718
0
VERTEX
8
CUT
10
121.1159
20
46.8444
0
VERTEX
8
CUT
10
120.6187
20
47.5917
0
VERTEX
8
CUT
10
119.8588
20
47.7622
0
VERTEX
8
CUT
10
118.4650
20
46.9481
0
VERTEX
8
CUT
10
117.5333
20
45.9628
0
VERTEX
8
CUT
10
116.6604
20
44.5814
0
VERTEX
8
CUT
10
114.7442
20
39.8461
0
VERTEX
8
CUT
10
113.2780
20
37.1334
0
VERTEX
8
CUT
10
110.9888
20
34.5430
0
VERTEX
8
CUT
10
109.9487
20
33.7482
0
VERTEX
8
CUT
10
109.0128
20
33.4197
0
VERTEX
8
CUT
10
108.1448
20
33.4474
0
VERTEX
8
CUT
10
107.2623
20
33.7738
0
VERTEX
8
CUT
10
106.5999
20
34.3689
0
VERTEX
8
CUT
10
106.2041
20
35.1616
0
VERTEX
8
CUT
10
106.3535
20
36.5046
0
VERTEX
8
CUT
10
107.9237
20
40.6176
0
VERTEX
8
CUT
10
108.2395
20
42.5362
0
VERTEX
8
CUT
10
108.0036
20
43.3591
0
VERTEX
8
CUT
10
107.4166
20
43.9693
0
VERTEX
8
CUT
10
106.5292
20
44.2058
0
VERTEX
8
CUT
10
105.7238
20
43.9921
0
VERTEX
8
CUT
10
104.6385
20
43.4193
0
VERTEX
8
CUT
10
102.6682
20
41.7090
0
VERTEX
8
CUT
10
96.2191
20
33.9380
0
VERTEX
8
CUT
10
93.8244
20
31.6705
0
VERTEX
8
CUT
10
92.9043
20
31.1681
0
VERTEX
8
CUT
10
92.1811
20
31.1670
0
VERTEX
8
CUT
10
91.2470
20
31.7342
0
VERTEX
8
CUT
10
90.7331
20
32.7942
0
VERTEX
8
CUT
10
90.3063
20
32.8474
0
VERTEX
8
CUT
10
82.0495
20
26.0565
0
VERTEX
8
CUT
10
75.5146
20
21.5091
0
VERTEX
8
CUT
10
73.5001
20
20.3497
0
VERTEX
8
CUT
10
69.7712
20
18.6356
0
VERTEX
8
CUT
10
66.4490
20
17.7448
0
VERTEX
8
CUT
10
62.4504
20
17.6547
0
VERTEX
8
CUT
10
60.4089
20
18.0112
0
VERTEX
8
CUT
10
58.4279
20
19.1216
0
VERTEX
8
CUT
10
57.3715
20
19.9856
0
VERTEX
8
CUT
10
55.6590
20
22.0286
0
VERTEX
8
CUT
10
54.9342
20
23.3157
0
VERTEX
8
CUT
10
53.7784
20
26.1543
0
VERTEX
8
CUT
10
53.0832
20
30.1549
0
VERTEX
8
CUT
10
52.9629
20
35.0472
0
VERTEX
8
CUT
10
53.4439
20
43.2959
0
VERTEX
8
CUT
10
53.3320
20
43.5691
0
VERTEX
8
CUT
10
53.0228
20
43.6842
0
VERTEX
8
CUT
10
51.0998
20
42.8367
0
SEQEND
0
POLYLINE
8
CUT
66
1
70
1
10
0.0
20
0.0
30
0.0
0
VERTEX
8
CUT
10
238.7064
20
287.5166
0
VERTEX
8
CUT
10
238.9167
20
289.4331
0
VERTEX
8
CUT
10
238.5716
20
291.0126
0
VERTEX
8
CUT
10
237.6400
20
292.2272
0
VERTEX
8
CUT
10
236.4059
20
292.8653
0
VERTEX
8
CUT
10
234.8848
20
292.9632
0
VERTEX
8
CUT
10
233.4212
20
292.5176
0
VERTEX
8
CUT
10
230.8337
20
290.5511
0
VERTEX
8
CUT
10
229.8110
20
290.0271
0
VERTEX
8
CUT
10
228.4823
20
289.6559
0
VERTEX
8
CUT
10
226.7568
20
290.2120
0
VERTEX
8
CUT
10
224.6764
20
292.1965
0
VERTEX
8
CUT
10
223.8934
20
292.7013
0
VERTEX
8
CUT
10
221.7638
20
293.1730
0
VERTEX
8
CUT
10
219.1255
20
292.9034
0
VERTEX
8
CUT
10
217.6433
20
292.4865
0
VERTEX
8
CUT
10
212.6515
20
290.5133
0
VERTEX
8
CUT
10
210.1954
20
290.0784
0
VERTEX
8
CUT
10
208.7490
20
290.2366
0
VERTEX
8
CUT
10
207.2462
20
290.7476
0
VERTEX
8
CUT
10
203.8053
20
292.5554
0
VERTEX
8
CUT
10
202.1585
20
293.1210
0
VERTEX
8
CUT
10
200.9127
20
293.2045
0
VERTEX
8
CUT
10
200.2478
20
293.0528
0
VERTEX
8
CUT
10
199.3832
20
292.6182
0
VERTEX
8
CUT
10
198.9915
20
292.0876
0
VERTEX
8
CUT
10
198.9190
20
291.4517
0
VERTEX
8
CUT
10
199.1578
20
290.6994
0
VERTEX
8
CUT
10
200.2253
20
289.3656
0
VERTEX
8
CUT
10
206.4201
20
284.4253
0
VERTEX
8
CUT
10
207.8968
20
283.6776
0
VERTEX
8
CUT
10
209.3290
20
283.5784
0
VERTEX
8
CUT
10
210.7063
20
284.1573
0
VERTEX
8
CUT
10
212.9165
20
286.2950
0
VERTEX
8
CUT
10
214.8444
20
287.4749
0
VERTEX
8
CUT
10
215.9616
20
287.7593
0
VERTEX
8
CUT
10
218.2603
20
287.7561
0
VERTEX
8
CUT
10
220.6392
20
286.9667
0
VERTEX
8
CUT
10
222.2265
20
285.9513
0
VERTEX
8
CUT
10
223.5616
20
284.4940
0
VERTEX
8
CUT
10
225.6217
20
281.5600
0
VERTEX
8
CUT
10
226.8280
20
280.2667
0
VERTEX
8
CUT
10
227.5686
20
279.7469
0
VERTEX
8
CUT
10
228.9605
20
279.3132
0
VERTEX
8
CUT
10
230.0977
20
279.3065
0
VERTEX
8
CUT
10
232.5138
20
279.9978
0
VERTEX
8
CUT
10
234.7135
20
281.6270
0
VERTEX
8
CUT
10
236.9391
20
283.9693
0
VERTEX
8
CUT
10
237.9274
20
285.4694
0
SEQEND
0
POLYLINE
8
CUT
66
1
70
1
10
0.0
20
0.0
30
0.0
0
VERTEX
8
CUT
10
79.1983
20
287.2478
0
VERTEX
8
CUT
10
80.9884
20
287.7798
0
VERTEX
8
CUT
10
82.8759
20
287.9084
0
VERTEX
8
CUT
10
84.5436
20
287.4365
0
VERTEX
8
CUT
10
86.1399
20
286.3045
0
VERTEX
8
CUT
10
88.3895
20
284.2046
0
VERTEX
8
CUT
10
89.3899
20
283.5836
0
VERTEX
8
CUT
10
90.4364
20
283.5531
0
VERTEX
8
CUT
10
91.6435
20
283.8936
0
VERTEX
8
CUT
10
94.0769
20
285.4072
0
VERTEX
8
CUT
10
98.3062
20
288.7682
0
VERTEX
8
CUT
10
99.9987
20
290.5026
0
VERTEX
8
CUT
10
100.3517
20
291.1539
0
VERTEX
8
CUT
10
100.2704
20
291.9643
0
VERTEX
8
CUT
10
99.4507
20
292.7802
0
VERTEX
8
CUT
10
98.8595
20
293.0474
0
VERTEX
8
CUT
10
97.4115
20
293.1736
0
VERTEX
8
CUT
10
95.5463
20
292.6386
0
VERTEX
8
CUT
10
91.0229
20
290.4122
0
VERTEX
8
CUT
10
89.9359
20
290.1068
0
VERTEX
8
CUT
10
88.6340
20
290.0763
0
VERTEX
8
CUT
10
86.1732
20
290.6346
0
VERTEX
8
CUT
10
80.8573
20
292.7575
0
VERTEX
8
CUT
10
79.1161
20
293.1175
0
VERTEX
8
CUT
10
77.5260
20
293.2031
0
VERTEX
8
CUT
10
76.0941
20
292.9811
0
VERTEX
8
CUT
10
75.4050
20
292.6719
0
VERTEX
8
CUT
10
72.2567
20
290.0969
0
VERTEX
8
CUT
10
71.2188
20
289.6861
0
VERTEX
8
CUT
10
69.0447
20
290.1910
0
VERTEX
8
CUT
10
66.2862
20
292.0793
0
VERTEX
8
CUT
10
64.5167
20
292.8774
0
VERTEX
8
CUT
10
63.0783
20
292.9339
0
VERTEX
8
CUT
10
61.8767
20
292.3745
0
VERTEX
8
CUT
10
61.0154
20
291.4906
0
VERTEX
8
CUT
10
60.5277
20
290.5287
0
VERTEX
8
CUT
10
60.3050
20
289.4055
0
VERTEX
8
CUT
10
60.7404
20
286.9017
0
VERTEX
8
CUT
10
62.4054
20
284.0516
0
VERTEX
8
CUT
10
64.7244
20
281.4967
0
VERTEX
8
CUT
10
66.9199
20
279.9660
0
VERTEX
8
CUT
10
68.9995
20
279.3082
0
VERTEX
8
CUT
10
70.8731
20
279.5017
0
VERTEX
8
CUT
10
71.8202
20
279.9068
0
VERTEX
8
CUT
10
73.3721
20
281.2779
0
VERTEX
8
CUT
10
75.7698
20
284.4551
0
VERTEX
8
CUT
10
77.1675
20
285.9135
0
SEQEND
0
POLYLINE
8
CUT
66
1
70
1
10
0.0
20
0.0
30
0.0
0
VERTEX
8
CUT
10
16.9613
20
203.6308
0
VERTEX
8
CUT
10
15.3985
20
213.4511
0
VERTEX
8
CUT
10
15.5189
20
217.9027
0
VERTEX
8
CUT
10
15.9493
20
219.8210
0
VERTEX
8
CUT
10
16.5943
20
221.4780
0
VERTEX
8
CUT
10
17.4882
20
222.8957
0
VERTEX
8
CUT
10
18.6016
20
224.0713
0
VERTEX
8
CUT
10
21.7733
20
226.7958
0
VERTEX
8
CUT
10
22.5620
20
227.8879
0
VERTEX
8
CUT
10
23.0967
20
230.1693
0
VERTEX
8
CUT
10
23.3085
20
236.3126
0
VERTEX
8
CUT
10
23.6760
20
237.7683
0
VERTEX
8
CUT
10
24.0234
20
238.3828
0
VERTEX
8
CUT
10
25.3965
20
239.9409
0
VERTEX
8
CUT
10
28.2834
20
241.3579
0
VERTEX
8
CUT
10
29.1487
20
241.9924
0
VERTEX
8
CUT
10
29.8018
20
242.7487
0
VERTEX
8
CUT
10
30.4004
20
244.3957
0
VERTEX
8
CUT
10
30.3761
20
245.3322
0
VERTEX
8
CUT
10
30.1043
20
246.2499
0
VERTEX
8
CUT
10
29.5225
20
247.2730
0
VERTEX
8
CUT
10
28.0250
20
248.7926
0
VERTEX
8
CUT
10
25.2785
20
251.0271
0
VERTEX
8
CUT
10
24.3088
20
252.2709
0
VERTEX
8
CUT
10
23.8817
20
253.5392
0
VERTEX
8
CUT
10
24.0649
20
254.7226
0
VERTEX
8
CUT
10
24.4839
20
255.4887
0
VERTEX
8
CUT
10
25.5296
20
256.3806
0
VERTEX
8
CUT
10
27.0411
20
256.6901
0
VERTEX
8
CUT
10
28.7998
20
256.3551
0
VERTEX
8
CUT
10
31.7985
20
255.2507
0
VERTEX
8
CUT
10
33.5897
20
255.3382
0
VERTEX
8
CUT
10
34.4794
20
255.7733
0
VERTEX
8
CUT
10
35.3054
20
256.6267
0
VERTEX
8
CUT
10
35.8488
20
257.5915
0
VERTEX
8
CUT
10
36.0796
20
258.6757
0
VERTEX
8
CUT
10
36.0195
20
259.9794
0
VERTEX
8
CUT
10
35.6508
20
261.2782
0
VERTEX
8
CUT
10
34.9876
20
262.6370
0
VERTEX
8
CUT
10
33.9544
20
264.1597
0
VERTEX
8
CUT
10
31.5556
20
266.9496
0
VERTEX
8
CUT
10
30.0645
20
269.2370
0
VERTEX
8
CUT
10
29.5647
20
271.2125
0
VERTEX
8
CUT
10
29.7226
20
272.1171
0
VERTEX
8
CUT
10
30.0932
20
272.8677
0
VERTEX
8
CUT
10
30.8093
20
273.6247
0
VERTEX
8
CUT
10
32.3544
20
274.4024
0
VERTEX
8
CUT
10
33.2351
20
274.3965
0
VERTEX
8
CUT
10
34.8268
20
273.7540
0
VERTEX
8
CUT
10
36.4487
20
272.1793
0
VERTEX
8
CUT
10
39.2317
20
268.1309
0
VERTEX
8
CUT
10
40.6570
20
266.5274
0
VERTEX
8
CUT
10
42.9592
20
265.0281
0
VERTEX
8
CUT
10
44.1807
20
264.6564
0
VERTEX
8
CUT
10
45.2697
20
264.6572
0
VERTEX
8
CUT
10
46.8598
20
265.2897
0
VERTEX
8
CUT
10
47.8923
20
266.4848
0
VERTEX
8
CUT
10
48.3697
20
267.8227
0
VERTEX
8
CUT
10
49.1547
20
272.2182
0
VERTEX
8
CUT
10
49.9261
20
273.5317
0
VERTEX
8
CUT
10
50.8504
20
274.2322
0
VERTEX
8
CUT
10
51.9123
20
274.7289
0
VERTEX
8
CUT
10
54.9124
20
275.1542
0
VERTEX
8
CUT
10
55.9034
20
275.5183
0
VERTEX
8
CUT
10
56.6378
20
276.1024
0
VERTEX
8
CUT
10
57.1624
20
276.8919
0
VERTEX
8
CUT
10
57.4117
20
277.8856
0
VERTEX
8
CUT
10
57.0908
20
280.2377
0
VERTEX
8
CUT
10
56.4888
20
281.7058
0
VERTEX
8
CUT
10
55.0013
20
283.9193
0
VERTEX
8
CUT
10
52.7139
20
286.4778
0
VERTEX
8
CUT
10
50.2201
20
288.7042
0
VERTEX
8
CUT
10
49.0336
20
289.6132
0
VERTEX
8
CUT
10
46.7359
20
290.7570
0
VERTEX
8
CUT
10
45.5461
20
291.1398
0
VERTEX
8
CUT
10
43.3787
20
291.3660
0
VERTEX
8
CUT
10
41.5879
20
290.9924
0
VERTEX
8
CUT
10
40.2156
20
289.9923
0
VERTEX
8
CUT
10
39.7423
20
289.2964
0
VERTEX
8
CUT
10
39.5517
20
288.5685
0
VERTEX
8
CUT
10
40.3248
20
284.3773
0
VERTEX
8
CUT
10
40.2611
20
283.1022
0
VERTEX
8
CUT
10
39.7906
20
282.1817
0
VERTEX
8
CUT
10
39.3347
20
281.7209
0
VERTEX
8
CUT
10
37.9975
20
280.8704
0
VERTEX
8
CUT
10
37.1738
20
280.7239
0
VERTEX
8
CUT
10
34.8484
20
281.3358
0
VERTEX
8
CUT
10
33.1680
20
282.4148
0
VERTEX
8
CUT
10
31.5879
20
284.0291
0
VERTEX
8
CUT
10
28.5161
20
288.0895
0
VERTEX
8
CUT
10
27.1097
20
289.4944
0
VERTEX
8
CUT
10
25.6928
20
290.5368
0
VERTEX
8
CUT
10
24.2266
20
291.2595
0
VERTEX
8
CUT
10
22.9211
20
291.5950
0
VERTEX
8
CUT
10
21.5483
20
291.5305
0
VERTEX
8
CUT
10
20.4714
20
291.1204
0
VERTEX
8
CUT
10
19.4867
20
290.2800
0
VERTEX
8
CUT
10
18.6301
20
288.7170
0
VERTEX
8
CUT
10
18.5022
20
287.7121
0
VERTEX
8
CUT
10
18.9239
20
285.8173
0
VERTEX
8
CUT
10
19.4613
20
284.6768
0
VERTEX
8
CUT
10
23.2277
20
279.3955
0
VERTEX
8
CUT
10
23.6068
20
277.8830
0
VERTEX
8
CUT
10
23.1989
20
276.6801
0
VERTEX
8
CUT
10
22.1592
20
275.8084
0
VERTEX
8
CUT
10
21.5116
20
275.5242
0
VERTEX
8
CUT
10
20.9754
20
275.5644
0
VERTEX
8
CUT
10
19.1500
20
276.4655
0
VERTEX
8
CUT
10
15.8683
20
278.8993
0
VERTEX
8
CUT
10
14.7685
20
279.3608
0
VERTEX
8
CUT
10
13.9222
20
279.4276
0
VERTEX
8
CUT
10
13.0830
20
279.3636
0
VERTEX
8
CUT
10
11.8378
20
278.9161
0
VERTEX
8
CUT
10
11.2719
20
278.4866
0
VERTEX
8
CUT
10
10.5878
20
277.4438
0
VERTEX
8
CUT
10
10.3987
20
276.7914
0
VERTEX
8
CUT
10
10.4040
20
275.4056
0
VERTEX
8
CUT
10
10.5958
20
274.7451
0
VERTEX
8
CUT
10
11.3010
20
273.7824
0
VERTEX
8
CUT
10
12.7976
20
272.8448
0
VERTEX
8
CUT
10
16.8482
20
271.3146
0
VERTEX
8
CUT
10
19.7765
20
269.7828
0
VERTEX
8
CUT
10
21.8290
20
267.9114
0
VERTEX
8
CUT
10
22.5716
20
266.8657
0
VERTEX
8
CUT
10
23.4274
20
264.4531
0
VERTEX
8
CUT
10
23.2204
20
262.6653
0
VERTEX
8
CUT
10
22.6245
20
261.6987
0
VERTEX
8
CUT
10
21.7042
20
260.8759
0
VERTEX
8
CUT
10
20.0482
20
260.2732
0
VERTEX
8
CUT
10
15.5542
20
260.6920
0
VERTEX
8
CUT
10
13.6199
20
260.3485
0
VERTEX
8
CUT
10
12.6224
20
259.6930
0
VERTEX
8
CUT
10
11.7857
20
258.7403
0
VERTEX
8
CUT
10
11.2968
20
257.7349
0
VERTEX
8
CUT
10
11.0701
20
256.6145
0
VERTEX
8
CUT
10
11.2435
20
254.5956
0
VERTEX
8
CUT
10
12.1935
20
251.9645
0
VERTEX
8
CUT
10
14.0471
20
249.3775
0
VERTEX
8
CUT
10
18.4891
20
244.6293
0
VERTEX
8
CUT
10
19.8768
20
242.4875
0
VERTEX
8
CUT
10
20.2094
20
241.4171
0
VERTEX
8
CUT
10
20.2627
20
240.4890
0
VERTEX
8
CUT
10
19.6815
20
238.7760
0
VERTEX
8
CUT
10
18.9317
20
237.9158
0
VERTEX
8
CUT
10
18.2202
20
237.4327
0
VERTEX
8
CUT
10
16.7907
20
237.0854
0
VERTEX
8
CUT
10
13.4013
20
238.1776
0
VERTEX
8
CUT
10
11.3040
20
238.3978
0
VERTEX
8
CUT
10
10.2010
20
237.8968
0
VERTEX
8
CUT
10
9.5484
20
237.2303
0
VERTEX
8
CUT
10
9.1014
20
236.3520
0
VERTEX
8
CUT
10
8.8733
20
235.2789
0
VERTEX
8
CUT
10
8.9790
20
233.3466
0
VERTEX
8
CUT
10
9.4659
20
232.2721
0
VERTEX
8
CUT
10
10.3719
20
231.3412
0
VERTEX
8
CUT
10
13.1323
20
229.6225
0
VERTEX
8
CUT
10
14.0943
20
228.7885
0
VERTEX
8
CUT
10
14.6924
20
227.8313
0
VERTEX
8
CUT
10
14.8552
20
226.7905
0
VERTEX
8
CUT
10
14.6606
20
225.8192
0
VERTEX
8
CUT
10
14.1055
20
224.9386
0
VERTEX
8
CUT
10
13.2131
20
224.2680
0
VERTEX
8
CUT
10
10.7446
20
223.1988
0
VERTEX
8
CUT
10
9.8038
20
222.2513
0
VERTEX
8
CUT
10
9.2228
20
220.9740
0
VERTEX
8
CUT
10
8.9647
20
219.4184
0
VERTEX
8
CUT
10
9.0769
20
217.6963
0
VERTEX
8
CUT
10
9.5744
20
215.7951
0
VERTEX
8
CUT
10
10.4427
20
213.7518
0
VERTEX
8
CUT
10
13.5082
20
208.6698
0
VERTEX
8
CUT
10
13.8606
20
207.7654
0
VERTEX
8
CUT
10
14.1034
20
206.2851
0
VERTEX
8
CUT
10
13.8234
20
205.0487
0
VERTEX
8
CUT
10
13.1167
20
204.1028
0
VERTEX
8
CUT
10
12.1792
20
203.7087
0
VERTEX
8
CUT
10
10.4336
20
203.4769
0
VERTEX
8
CUT
10
9.7539
20
203.0307
0
VERTEX
8
CUT
10
9.1879
20
201.7243
0
VERTEX
8
CUT
10
9.2298
20
200.8081
0
VERTEX
8
CUT
10
9.5242
20
199.8962
0
VERTEX
8
CUT
10
10.0702
20
199.0422
0
VERTEX
8
CUT
10
10.8659
20
198.3036
0
VERTEX
8
CUT
10
12.0952
20
197.5860
0
VERTEX
8
CUT
10
13.8228
20
197.2055
0
VERTEX
8
CUT
10
15.3459
20
197.6975
0
VERTEX
8
CUT
10
16.0428
20
198.2147
0
VERTEX
8
CUT
10
16.5357
20
198.8735
0
VERTEX
8
CUT
10
17.0537
20
200.7395
0
SEQEND
0
POLYLINE
8
CUT
66
1
70
1
10
0.0
20
0.0
30
0.0
0
VERTEX
8
CUT
10
13.9324
20
188.7188
0
VERTEX
8
CUT
10
12.6705
20
189.8953
0
VERTEX
8
CUT
10
11.8915
20
190.2981
0
VERTEX
8
CUT
10
11.0865
20
190.4070
0
VERTEX
8
CUT
10
10.1009
20
190.2481
0
VERTEX
8
CUT
10
9.3765
20
189.8366
0
VERTEX
8
CUT
10
8.9905
20
189.2184
0
VERTEX
8
CUT
10
8.8806
20
188.4601
0
VERTEX
8
CUT
10
9.0800
20
187.5785
0
VERTEX
8
CUT
10
9.5872
20
186.6749
0
VERTEX
8
CUT
10
10.3702
20
185.8501
0
VERTEX
8
CUT
10
12.3741
20
184.6968
0
VERTEX
8
CUT
10
13.0888
20
184.5732
0
VERTEX
8
CUT
10
14.5074
20
185.3481
0
VERTEX
8
CUT
10
14.9474
20
186.2629
0
VERTEX
8
CUT
10
14.7779
20
187.3848
0
SEQEND
0
ENDSEC
0
EOF
