0
SECTION
2
HEADER
9
$ACADVER
1
AC1009
9
$INSUNITS
70
4
0
ENDSEC
0
SECTION
2
TABLES
0
TABLE
2
LAYER
70
1
0
LAYER
2
CUT
70
0
62
7
6
CONTINUOUS
0
ENDTAB
0
ENDSEC
0
SECTION
2
ENTITIES
0
POLYLINE
8
CUT
66
1
70
1
10
0.0
20
0.0
30
0.0
0
VERTEX
8
CUT
10
198.7551
20
75.9473
0
VERTEX
8
CUT
10
198.5278
20
76.8146
0
VERTEX
8
CUT
10
198.8322
20
77.4847
0
VERTEX
8
CUT
10
199.8379
20
77.7132
0
VERTEX
8
CUT
10
200.7493
20
77.4528
0
VERTEX
8
CUT
10
205.0862
20
74.2651
0
VERTEX
8
CUT
10
206.9376
20
73.3897
0
VERTEX
8
CUT
10
208.4825
20
73.2617
0
VERTEX
8
CUT
10
209.6055
20
73.8503
0
VERTEX
8
CUT
10
210.0413
20
74.4612
0
VERTEX
8
CUT
10
210.2106
20
75.0864
0
VERTEX
8
CUT
10
209.8267
20
76.2387
0
VERTEX
8
CUT
10
209.2168
20
77.0082
0
VERTEX
8
CUT
10
207.0727
20
78.8312
0
VERTEX
8
CUT
10
202.6762
20
81.9634
0
VERTEX
8
CUT
10
200.8399
20
83.8964
0
VERTEX
8
CUT
10
199.5573
20
86.3814
0
VERTEX
8
CUT
10
199.4315
20
87.3929
0
VERTEX
8
CUT
10
199.6980
20
88.3139
0
VERTEX
8
CUT
10
201.2838
20
90.2120
0
VERTEX
8
CUT
10
209.9040
20
90.6752
0
VERTEX
8
CUT
10
210.3882
20
90.8115
0
VERTEX
8
CUT
10
211.6564
20
91.9237
0
VERTEX
8
CUT
10
212.0193
20
93.1281
0
VERTEX
8
CUT
10
211.4876
20
94.3104
0
VERTEX
8
CUT
10
210.7946
20
94.9146
0
VERTEX
8
CUT
10
208.4145
20
96.3145
0
VERTEX
8
CUT
10
207.6583
20
97.2087
0
VERTEX
8
CUT
10
207.5937
20
98.3584
0
VERTEX
8
CUT
10
208.5218
20
99.4260
0
VERTEX
8
CUT
10
210.2628
20
99.9625
0
VERTEX
8
CUT
10
212.9206
20
100.0869
0
VERTEX
8
CUT
10
214.7634
20
100.4188
0
VERTEX
8
CUT
10
222.6034
20
103.4227
0
VERTEX
8
CUT
10
223.9274
20
103.5428
0
VERTEX
8
CUT
10
225.6202
20
102.9167
0
VERTEX
8
CUT
10
226.2223
20
101.8957
0
VERTEX
8
CUT
10
225.9274
20
100.6797
0
VERTEX
8
CUT
10
224.8201
20
99.3800
0
VERTEX
8
CUT
10
222.6463
20
97.5650
0
VERTEX
8
CUT
10
221.9126
20
96.3739
0
VERTEX
8
CUT
10
221.7818
20
95.5740
0
VERTEX
8
CUT
10
222.0302
20
94.8820
0
VERTEX
8
CUT
10
222.7204
20
94.0314
0
VERTEX
8
CUT
10
224.4177
20
92.8249
0
VERTEX
8
CUT
10
226.5025
20
91.7356
0
VERTEX
8
CUT
10
227.3840
20
90.9250
0
VERTEX
8
CUT
10
227.7214
20
90.0712
0
VERTEX
8
CUT
10
227.6961
20
89.5320
0
VERTEX
8
CUT
10
227.0418
20
88.3695
0
VERTEX
8
CUT
10
226.2095
20
87.7580
0
VERTEX
8
CUT
10
225.0872
20
87.2706
0
VERTEX
8
CUT
10
221.7988
20
86.4679
0
VERTEX
8
CUT
10
209.9079
20
85.4236
0
VERTEX
8
CUT
10
209.0497
20
85.0202
0
VERTEX
8
CUT
10
208.6175
20
84.4543
0
VERTEX
8
CUT
10
208.5789
20
84.0744
0
VERTEX
8
CUT
10
208.7716
20
83.6754
0
VERTEX
8
CUT
10
209.6666
20
82.9219
0
VERTEX
8
CUT
10
211.5728
20
81.8468
0
VERTEX
8
CUT
10
213.8945
20
80.8229
0
VERTEX
8
CUT
10
216.1446
20
80.1800
0
VERTEX
8
CUT
10
219.0058
20
79.7867
0
VERTEX
8
CUT
10
228.0398
20
79.1531
0
VERTEX
8
CUT
10
230.5376
20
78.6716
0
VERTEX
8
CUT
10
233.0160
20
77.9066
0
VERTEX
8
CUT
10
236.3813
20
76.4791
0
VERTEX
8
CUT
10
239.8401
20
74.3437
0
VERTEX
8
CUT
10
242.1670
20
72.1627
0
VERTEX
8
CUT
10
242.4751
20
71.8221
0
VERTEX
8
CUT
10
242.9508
20
71.1458
0
VERTEX
8
CUT
10
243.2044
20
70.7504
0
VERTEX
8
CUT
10
243.6079
20
69.4152
0
VERTEX
8
CUT
10
243.6055
20
68.8497
0
VERTEX
8
CUT
10
243.5510
20
68.5293
0
VERTEX
8
CUT
10
243.3371
20
68.1600
0
VERTEX
8
CUT
10
243.1809
20
67.9370
0
VERTEX
8
CUT
10
243.1064
20
67.8914
0
VERTEX
8
CUT
10
242.2439
20
67.5423
0
VERTEX
8
CUT
10
241.7266
20
67.5097
0
VERTEX
8
CUT
10
239.5326
20
67.8665
0
VERTEX
8
CUT
10
239.4819
20
67.8460
0
VERTEX
8
CUT
10
239.4782
20
67.8470
0
VERTEX
8
CUT
10
238.9924
20
67.6546
0
VERTEX
8
CUT
10
238.8070
20
67.3242
0
VERTEX
8
CUT
10
238.8107
20
67.2999
0
VERTEX
8
CUT
10
238.7687
20
67.2213
0
VERTEX
8
CUT
10
239.0715
20
65.5535
0
VERTEX
8
CUT
10
239.0744
20
65.5345
0
VERTEX
8
CUT
10
239.0963
20
65.2902
0
VERTEX
8
CUT
10
239.1548
20
64.9958
0
VERTEX
8
CUT
10
239.2426
20
64.4081
0
VERTEX
8
CUT
10
239.5995
20
62.6454
0
VERTEX
8
CUT
10
241.9516
20
49.6891
0
VERTEX
8
CUT
10
242.5600
20
43.7948
0
VERTEX
8
CUT
10
242.6150
20
35.6192
0
VERTEX
8
CUT
10
242.5994
20
35.1854
0
VERTEX
8
CUT
10
242.4747
20
33.3795
0
VERTEX
8
CUT
10
241.9478
20
29.5100
0
VERTEX
8
CUT
10
240.9598
20
26.4132
0
VERTEX
8
CUT
10
239.5451
20
24.5007
0
VERTEX
8
CUT
10
238.8945
20
23.9330
0
VERTEX
8
CUT
10
238.1066
20
23.3466
0
VERTEX
8
CUT
10
237.3402
20
23.0543
0
VERTEX
8
CUT
10
237.2808
20
23.0351
0
VERTEX
8
CUT
10
236.4866
20
22.8270
0
VERTEX
8
CUT
10
235.5609
20
22.8116
0
VERTEX
8
CUT
10
234.6777
20
22.8933
0
VERTEX
8
CUT
10
234.4625
20
22.9131
0
VERTEX
8
CUT
10
234.1171
20
22.9451
0
VERTEX
8
CUT
10
233.9665
20
22.9590
0
VERTEX
8
CUT
10
231.6945
20
23.4759
0
VERTEX
8
CUT
10
230.4685
20
23.9659
0
VERTEX
8
CUT
10
230.1380
20
24.0980
0
VERTEX
8
CUT
10
230.0034
20
24.1518
0
VERTEX
8
CUT
10
229.9508
20
24.1728
0
VERTEX
8
CUT
10
228.6982
20
24.7254
0
VERTEX
8
CUT
10
225.8321
20
26.3858
0
VERTEX
8
CUT
10
219.5278
20
30.9123
0
VERTEX
8
CUT
10
216.2440
20
33.7447
0
VERTEX
8
CUT
10
210.2693
20
39.6369
0
VERTEX
8
CUT
10
209.4291
20
40.5358
0
VERTEX
8
CUT
10
208.9625
20
41.0351
0
VERTEX
8
CUT
10
208.8440
20
41.1618
0
VERTEX
8
CUT
10
208.7759
20
41.2347
0
VERTEX
8
CUT
10
206.0348
20
44.3021
0
VERTEX
8
CUT
10
205.3482
20
45.1433
0
VERTEX
8
CUT
10
200.9486
20
50.6362
0
VERTEX
8
CUT
10
195.0966
20
58.9717
0
VERTEX
8
CUT
10
193.6604
20
61.1762
0
VERTEX
8
CUT
10
192.2749
20
63.7448
0
VERTEX
8
CUT
10
191.9462
20
65.3952
0
VERTEX
8
CUT
10
191.8205
20
68.8992
0
VERTEX
8
CUT
10
192.1312
20
72.9037
0
VERTEX
8
CUT
10
192.5331
20
73.4474
0
VERTEX
8
CUT
10
193.0088
20
73.3526
0
VERTEX
8
CUT
10
193.4238
20
72.2963
0
VERTEX
8
CUT
10
194.8691
20
71.4715
0
VERTEX
8
CUT
10
197.1908
20
69.7550
0
VERTEX
8
CUT
10
198.5986
20
69.0214
0
VERTEX
8
CUT
10
199.7983
20
68.8409
0
VERTEX
8
CUT
10
200.3850
20
69.0112
0
VERTEX
8
CUT
10
201.0950
20
69.6819
0
VERTEX
8
CUT
10
201.4132
20
70.8994
0
VERTEX
8
CUT
10
200.8263
20
72.6420
0
SEQEND
0
POLYLINE
8
CUT
66
1
70
1
10
0.0
20
0.0
30
0.0
0
VERTEX
8
CUT
10
204.7128
20
59.2299
0
VERTEX
8
CUT
10
202.8338
20
59.5490
0
VERTEX
8
CUT
10
201.8676
20
59.0114
0
VERTEX
8
CUT
10
201.3533
20
57.9784
0
VERTEX
8
CUT
10
201.3431
20
57.4919
0
VERTEX
8
CUT
10
202.0390
20
55.0768
0
VERTEX
8
CUT
10
203.9491
20
51.8575
0
VERTEX
8
CUT
10
206.8266
20
48.2087
0
VERTEX
8
CUT
10
210.4147
20
44.3488
0
VERTEX
8
CUT
10
214.4035
20
40.6309
0
VERTEX
8
CUT
10
218.4582
20
37.2917
0
VERTEX
8
CUT
10
222.4167
20
34.6052
0
VERTEX
8
CUT
10
226.6305
20
32.6574
0
VERTEX
8
CUT
10
228.4393
20
32.3622
0
VERTEX
8
CUT
10
229.3457
20
32.5367
0
VERTEX
8
CUT
10
230.1186
20
33.1511
0
VERTEX
8
CUT
10
230.5694
20
33.8508
0
VERTEX
8
CUT
10
230.6654
20
34.3872
0
VERTEX
8
CUT
10
230.4560
20
35.1243
0
VERTEX
8
CUT
10
228.6401
20
37.4086
0
VERTEX
8
CUT
10
225.8747
20
39.9036
0
VERTEX
8
CUT
10
225.2956
20
40.8840
0
VERTEX
8
CUT
10
225.3798
20
41.3012
0
VERTEX
8
CUT
10
225.7079
20
41.6285
0
VERTEX
8
CUT
10
227.8677
20
42.2372
0
VERTEX
8
CUT
10
228.6528
20
42.7428
0
VERTEX
8
CUT
10
229.1597
20
43.8553
0
VERTEX
8
CUT
10
228.6397
20
45.2678
0
VERTEX
8
CUT
10
227.8981
20
46.0268
0
VERTEX
8
CUT
10
226.5716
20
46.8252
0
VERTEX
8
CUT
10
220.2089
20
49.5251
0
VERTEX
8
CUT
10
219.4886
20
50.1392
0
VERTEX
8
CUT
10
219.3401
20
50.5346
0
VERTEX
8
CUT
10
219.6838
20
51.1362
0
VERTEX
8
CUT
10
221.0833
20
51.9184
0
VERTEX
8
CUT
10
226.1833
20
53.4320
0
VERTEX
8
CUT
10
227.7019
20
54.4682
0
VERTEX
8
CUT
10
228.2701
20
55.3238
0
VERTEX
8
CUT
10
228.4725
20
56.2825
0
VERTEX
8
CUT
10
228.1879
20
57.0309
0
VERTEX
8
CUT
10
227.3776
20
57.8267
0
VERTEX
8
CUT
10
224.5379
20
59.5564
0
VERTEX
8
CUT
10
223.9597
20
60.2750
0
VERTEX
8
CUT
10
223.7929
20
61.2953
0
VERTEX
8
CUT
10
224.2258
20
62.2343
0
VERTEX
8
CUT
10
227.8220
20
64.7795
0
VERTEX
8
CUT
10
228.5053
20
65.5561
0
VERTEX
8
CUT
10
228.8323
20
66.2465
0
VERTEX
8
CUT
10
228.4365
20
66.8733
0
VERTEX
8
CUT
10
227.6706
20
67.5147
0
VERTEX
8
CUT
10
225.2871
20
68.5816
0
VERTEX
8
CUT
10
224.7037
20
69.4083
0
VERTEX
8
CUT
10
224.7159
20
70.1093
0
VERTEX
8
CUT
10
225.1188
20
70.6471
0
VERTEX
8
CUT
10
225.8509
20
71.1290
0
VERTEX
8
CUT
10
229.0071
20
72.2913
0
VERTEX
8
CUT
10
229.6365
20
72.8549
0
VERTEX
8
CUT
10
229.6241
20
73.3521
0
VERTEX
8
CUT
10
228.9691
20
73.8899
0
VERTEX
8
CUT
10
228.3700
20
74.1094
0
VERTEX
8
CUT
10
225.6835
20
74.2546
0
VERTEX
8
CUT
10
222.4455
20
73.7472
0
VERTEX
8
CUT
10
220.8959
20
73.2320
0
VERTEX
8
CUT
10
219.7406
20
72.5851
0
VERTEX
8
CUT
10
218.4241
20
71.4491
0
VERTEX
8
CUT
10
218.2219
20
70.7696
0
VERTEX
8
CUT
10
219.2378
20
69.7253
0
VERTEX
8
CUT
10
221.6172
20
68.6137
0
VERTEX
8
CUT
10
222.3199
20
68.0810
0
VERTEX
8
CUT
10
222.6457
20
66.9728
0
VERTEX
8
CUT
10
222.3638
20
66.0401
0
VERTEX
8
CUT
10
220.9467
20
65.0575
0
VERTEX
8
CUT
10
219.3548
20
64.6925
0
VERTEX
8
CUT
10
214.7911
20
64.2176
0
VERTEX
8
CUT
10
214.0108
20
63.9336
0
VERTEX
8
CUT
10
213.4783
20
63.3653
0
VERTEX
8
CUT
10
213.5509
20
62.8067
0
VERTEX
8
CUT
10
215.5612
20
60.2834
0
VERTEX
8
CUT
10
215.9935
20
59.3251
0
VERTEX
8
CUT
10
215.8423
20
58.4365
0
VERTEX
8
CUT
10
214.7409
20
57.2142
0
VERTEX
8
CUT
10
214.1484
20
56.9377
0
VERTEX
8
CUT
10
213.3810
20
56.8739
0
VERTEX
8
CUT
10
210.8909
20
57.0604
0
VERTEX
8
CUT
10
209.1521
20
57.4902
0
SEQEND
0
POLYLINE
8
CUT
66
1
70
1
10
0.0
20
0.0
30
0.0
0
VERTEX
8
CUT
10
60.8448
20
67.6168
0
VERTEX
8
CUT
10
60.4379
20
67.8126
0
VERTEX
8
CUT
10
57.7527
20
67.4958
0
VERTEX
8
CUT
10
57.6448
20
67.5084
0
VERTEX
8
CUT
10
56.7187
20
67.8603
0
VERTEX
8
CUT
10
56.2429
20
68.8777
0
VERTEX
8
CUT
10
56.4018
20
70.2890
0
VERTEX
8
CUT
10
56.9838
20
71.2783
0
VERTEX
8
CUT
10
57.4449
20
71.9976
0
VERTEX
8
CUT
10
57.9083
20
72.4609
0
VERTEX
8
CUT
10
59.4009
20
73.8879
0
VERTEX
8
CUT
10
62.0391
20
75.7051
0
VERTEX
8
CUT
10
66.3517
20
77.7558
0
VERTEX
8
CUT
10
68.9218
20
78.6035
0
VERTEX
8
CUT
10
71.5891
20
79.1259
0
VERTEX
8
CUT
10
80.7519
20
79.7868
0
VERTEX
8
CUT
10
83.5525
20
80.1794
0
VERTEX
8
CUT
10
85.7765
20
80.8233
0
VERTEX
8
CUT
10
88.0373
20
81.8176
0
VERTEX
8
CUT
10
90.2879
20
83.1607
0
VERTEX
8
CUT
10
91.1678
20
84.1056
0
VERTEX
8
CUT
10
91.2201
20
84.4333
0
VERTEX
8
CUT
10
90.9852
20
84.8559
0
VERTEX
8
CUT
10
90.1835
20
85.3115
0
VERTEX
8
CUT
10
88.7078
20
85.5973
0
VERTEX
8
CUT
10
78.2677
20
86.3517
0
VERTEX
8
CUT
10
75.3708
20
86.9966
0
VERTEX
8
CUT
10
74.2628
20
87.4317
0
VERTEX
8
CUT
10
72.6940
20
88.5131
0
VERTEX
8
CUT
10
71.9773
20
89.6022
0
VERTEX
8
CUT
10
71.9125
20
90.1033
0
VERTEX
8
CUT
10
72.1105
20
90.6622
0
VERTEX
8
CUT
10
73.0723
20
91.5828
0
VERTEX
8
CUT
10
77.1951
20
94.0716
0
VERTEX
8
CUT
10
77.7870
20
94.7707
0
VERTEX
8
CUT
10
78.0608
20
95.4778
0
VERTEX
8
CUT
10
77.9846
20
96.1444
0
VERTEX
8
CUT
10
77.5417
20
96.9655
0
VERTEX
8
CUT
10
76.7924
20
97.8241
0
VERTEX
8
CUT
10
74.7860
20
99.5037
0
VERTEX
8
CUT
10
73.7087
20
100.7450
0
VERTEX
8
CUT
10
73.4511
20
101.8563
0
VERTEX
8
CUT
10
74.1209
20
102.7769
0
VERTEX
8
CUT
10
75.8864
20
103.5112
0
VERTEX
8
CUT
10
77.2470
20
103.4275
0
VERTEX
8
CUT
10
79.0060
20
102.8966
0
VERTEX
8
CUT
10
83.1600
20
101.0432
0
VERTEX
8
CUT
10
85.0067
20
100.4460
0
VERTEX
8
CUT
10
86.7385
20
100.1171
0
VERTEX
8
CUT
10
89.4517
20
99.9354
0
VERTEX
8
CUT
10
90.9740
20
99.5704
0
VERTEX
8
CUT
10
91.6074
20
99.2454
0
VERTEX
8
CUT
10
92.2780
20
98.4375
0
VERTEX
8
CUT
10
92.1720
20
97.3871
0
VERTEX
8
CUT
10
91.6377
20
96.7590
0
VERTEX
8
CUT
10
88.7271
20
94.5029
0
VERTEX
8
CUT
10
87.9270
20
93.6003
0
VERTEX
8
CUT
10
87.6516
20
92.8078
0
VERTEX
8
CUT
10
88.2015
20
91.7128
0
VERTEX
8
CUT
10
89.0885
20
90.9868
0
VERTEX
8
CUT
10
90.4229
20
90.5869
0
VERTEX
8
CUT
10
96.9961
20
90.2548
0
VERTEX
8
CUT
10
98.9185
20
89.7645
0
VERTEX
8
CUT
10
99.5753
20
89.3218
0
VERTEX
8
CUT
10
99.9716
20
88.7639
0
VERTEX
8
CUT
10
100.2690
20
87.1502
0
VERTEX
8
CUT
10
99.8135
20
85.3267
0
VERTEX
8
CUT
10
98.5472
20
83.4876
0
VERTEX
8
CUT
10
97.6031
20
82.4799
0
VERTEX
8
CUT
10
95.1371
20
80.4965
0
VERTEX
8
CUT
10
92.2626
20
78.5581
0
VERTEX
8
CUT
10
90.3523
20
76.9400
0
VERTEX
8
CUT
10
89.5372
20
75.5891
0
VERTEX
8
CUT
10
89.6795
20
74.4863
0
VERTEX
8
CUT
10
90.6313
20
73.5513
0
VERTEX
8
CUT
10
91.3129
20
73.3106
0
VERTEX
8
CUT
10
93.0503
20
73.4666
0
VERTEX
8
CUT
10
95.0558
20
74.5008
0
VERTEX
8
CUT
10
98.1809
20
77.1140
0
VERTEX
8
CUT
10
98.6456
20
77.4029
0
VERTEX
8
CUT
10
99.0758
20
77.4173
0
VERTEX
8
CUT
10
99.3640
20
76.9064
0
VERTEX
8
CUT
10
99.4256
20
75.7276
0
VERTEX
8
CUT
10
99.0641
20
73.0786
0
VERTEX
8
CUT
10
98.4657
20
71.3683
0
VERTEX
8
CUT
10
98.5117
20
70.2974
0
VERTEX
8
CUT
10
98.7335
20
69.7508
0
VERTEX
8
CUT
10
99.3988
20
69.0627
0
VERTEX
8
CUT
10
99.8498
20
68.8657
0
VERTEX
8
CUT
10
100.5272
20
68.8982
0
VERTEX
8
CUT
10
102.2234
20
69.6028
0
VERTEX
8
CUT
10
105.0063
20
71.5483
0
VERTEX
8
CUT
10
105.7980
20
71.9154
0
VERTEX
8
CUT
10
106.5393
20
72.0280
0
VERTEX
8
CUT
10
107.1818
20
71.7839
0
VERTEX
8
CUT
10
107.6617
20
71.1802
0
VERTEX
8
CUT
10
108.0291
20
69.2817
0
VERTEX
8
CUT
10
107.9164
20
66.9272
0
VERTEX
8
CUT
10
107.9057
20
66.8403
0
VERTEX
8
CUT
10
107.9042
20
66.8286
0
VERTEX
8
CUT
10
107.8875
20
66.6930
0
VERTEX
8
CUT
10
107.8728
20
66.5730
0
VERTEX
8
CUT
10
107.5220
20
65.2233
0
VERTEX
8
CUT
10
107.2280
20
64.5615
0
VERTEX
8
CUT
10
106.9999
20
64.0480
0
VERTEX
8
CUT
10
106.7750
20
63.5415
0
VERTEX
8
CUT
10
105.9180
20
61.6122
0
VERTEX
8
CUT
10
105.4502
20
60.6600
0
VERTEX
8
CUT
10
103.0108
20
56.6525
0
VERTEX
8
CUT
10
99.4846
20
51.5535
0
VERTEX
8
CUT
10
98.9846
20
50.8622
0
VERTEX
8
CUT
10
93.7874
20
44.4096
0
VERTEX
8
CUT
10
90.8955
20
41.1558
0
VERTEX
8
CUT
10
83.0326
20
33.3221
0
VERTEX
8
CUT
10
76.8710
20
28.3183
0
VERTEX
8
CUT
10
76.4176
20
27.9750
0
VERTEX
8
CUT
10
74.5642
20
26.7313
0
VERTEX
8
CUT
10
69.5700
20
24.0538
0
VERTEX
8
CUT
10
68.2062
20
23.4663
0
VERTEX
8
CUT
10
66.4783
20
23.0681
0
VERTEX
8
CUT
10
63.7948
20
22.9475
0
VERTEX
8
CUT
10
62.0926
20
23.1922
0
VERTEX
8
CUT
10
61.3478
20
23.5303
0
VERTEX
8
CUT
10
60.4438
20
24.2585
0
VERTEX
8
CUT
10
60.2276
20
24.4491
0
VERTEX
8
CUT
10
58.8108
20
26.5112
0
VERTEX
8
CUT
10
58.1203
20
28.2826
0
VERTEX
8
CUT
10
57.7244
20
29.9148
0
VERTEX
8
CUT
10
57.6837
20
30.2269
0
VERTEX
8
CUT
10
57.6758
20
30.2869
0
VERTEX
8
CUT
10
57.6637
20
30.3799
0
VERTEX
8
CUT
10
57.6571
20
30.4304
0
VERTEX
8
CUT
10
57.3537
20
33.8927
0
VERTEX
8
CUT
10
57.4138
20
44.9929
0
VERTEX
8
CUT
10
57.8056
20
49.7321
0
VERTEX
8
CUT
10
58.4875
20
54.1783
0
VERTEX
8
CUT
10
58.9807
20
56.6152
0
VERTEX
8
CUT
10
60.3369
20
62.9370
0
VERTEX
8
CUT
10
61.0279
20
67.1448
0
SEQEND
0
POLYLINE
8
CUT
66
1
70
1
10
0.0
20
0.0
30
0.0
0
VERTEX
8
CUT
10
96.2586
20
59.5177
0
VERTEX
8
CUT
10
93.9234
20
58.8462
0
VERTEX
8
CUT
10
90.1087
20
57.2960
0
VERTEX
8
CUT
10
87.7035
20
56.9326
0
VERTEX
8
CUT
10
85.3204
20
57.0030
0
VERTEX
8
CUT
10
84.2750
20
57.9308
0
VERTEX
8
CUT
10
83.9206
20
58.7910
0
VERTEX
8
CUT
10
83.9402
20
59.3131
0
VERTEX
8
CUT
10
84.3275
20
60.4313
0
VERTEX
8
CUT
10
86.1367
20
62.9797
0
VERTEX
8
CUT
10
86.2270
20
63.4520
0
VERTEX
8
CUT
10
86.0369
20
63.7861
0
VERTEX
8
CUT
10
85.0024
20
64.2199
0
VERTEX
8
CUT
10
80.7363
20
64.6323
0
VERTEX
8
CUT
10
78.9348
20
65.0193
0
VERTEX
8
CUT
10
77.6724
20
65.9108
0
VERTEX
8
CUT
10
76.6403
20
67.4333
0
VERTEX
8
CUT
10
75.7679
20
67.7242
0
VERTEX
8
CUT
10
75.4361
20
68.6408
0
VERTEX
8
CUT
10
75.1920
20
68.8222
0
VERTEX
8
CUT
10
72.3230
20
67.7293
0
VERTEX
8
CUT
10
71.4122
20
67.1796
0
VERTEX
8
CUT
10
70.8497
20
66.4654
0
VERTEX
8
CUT
10
71.0432
20
65.7281
0
VERTEX
8
CUT
10
72.2622
20
64.4852
0
VERTEX
8
CUT
10
75.6765
20
62.0007
0
VERTEX
8
CUT
10
76.0708
20
61.4674
0
VERTEX
8
CUT
10
76.1778
20
60.9530
0
VERTEX
8
CUT
10
75.9657
20
60.3683
0
VERTEX
8
CUT
10
75.4731
20
59.8400
0
VERTEX
8
CUT
10
72.8475
20
58.2454
0
VERTEX
8
CUT
10
71.5917
20
57.0649
0
VERTEX
8
CUT
10
71.1798
20
55.8034
0
VERTEX
8
CUT
10
72.1627
20
54.3065
0
VERTEX
8
CUT
10
74.2922
20
53.1213
0
VERTEX
8
CUT
10
77.0197
20
52.4831
0
VERTEX
8
CUT
10
80.0055
20
52.5364
0
VERTEX
8
CUT
10
83.5613
20
53.3511
0
VERTEX
8
CUT
10
84.1141
20
53.2875
0
VERTEX
8
CUT
10
84.3281
20
52.8500
0
VERTEX
8
CUT
10
84.1611
20
52.4973
0
VERTEX
8
CUT
10
83.0558
20
51.6397
0
VERTEX
8
CUT
10
82.0441
20
51.0762
0
VERTEX
8
CUT
10
80.6014
20
50.6373
0
VERTEX
8
CUT
10
78.1865
20
48.9345
0
VERTEX
8
CUT
10
73.0655
20
46.8526
0
VERTEX
8
CUT
10
71.6947
20
45.8958
0
VERTEX
8
CUT
10
70.8300
20
44.9818
0
VERTEX
8
CUT
10
70.5040
20
44.0040
0
VERTEX
8
CUT
10
70.9293
20
42.9262
0
VERTEX
8
CUT
10
71.9161
20
42.1302
0
VERTEX
8
CUT
10
73.9210
20
41.7069
0
VERTEX
8
CUT
10
74.2688
20
41.3410
0
VERTEX
8
CUT
10
74.3103
20
40.8611
0
VERTEX
8
CUT
10
73.6136
20
39.7227
0
VERTEX
8
CUT
10
70.3170
20
36.5145
0
VERTEX
8
CUT
10
69.2253
20
34.8223
0
VERTEX
8
CUT
10
69.0082
20
33.9580
0
VERTEX
8
CUT
10
69.7372
20
32.9382
0
VERTEX
8
CUT
10
70.2852
20
32.4871
0
VERTEX
8
CUT
10
70.7597
20
32.3619
0
VERTEX
8
CUT
10
72.2489
20
32.4821
0
VERTEX
8
CUT
10
74.7057
20
33.3023
0
VERTEX
8
CUT
10
78.8478
20
35.5544
0
VERTEX
8
CUT
10
82.0197
20
37.7700
0
VERTEX
8
CUT
10
85.2061
20
40.3609
0
VERTEX
8
CUT
10
91.2621
20
46.2648
0
VERTEX
8
CUT
10
93.8412
20
49.3520
0
VERTEX
8
CUT
10
96.0199
20
52.3352
0
VERTEX
8
CUT
10
98.3354
20
56.7527
0
VERTEX
8
CUT
10
98.5812
20
57.7200
0
VERTEX
8
CUT
10
98.2694
20
58.5728
0
VERTEX
8
CUT
10
97.2618
20
59.3896
0
SEQEND
0
POLYLINE
8
CUT
66
1
70
1
10
0.0
20
0.0
30
0.0
0
VERTEX
8
CUT
10
74.4904
20
70.6419
0
VERTEX
8
CUT
10
75.1027
20
69.9606
0
VERTEX
8
CUT
10
75.5459
20
68.9017
0
VERTEX
8
CUT
10
76.2185
20
68.7565
0
VERTEX
8
CUT
10
76.7375
20
68.0759
0
VERTEX
8
CUT
10
77.0915
20
67.9998
0
VERTEX
8
CUT
10
80.4802
20
69.5044
0
VERTEX
8
CUT
10
81.1786
20
70.3734
0
VERTEX
8
CUT
10
81.3647
20
71.1172
0
VERTEX
8
CUT
10
80.6089
20
72.1418
0
VERTEX
8
CUT
10
79.0342
20
73.1189
0
VERTEX
8
CUT
10
75.6235
20
74.1041
0
VERTEX
8
CUT
10
72.6490
20
74.2523
0
VERTEX
8
CUT
10
71.3808
20
74.0673
0
VERTEX
8
CUT
10
70.2017
20
73.4611
0
VERTEX
8
CUT
10
70.1279
20
73.0144
0
VERTEX
8
CUT
10
70.4664
20
72.5666
0
SEQEND
0
POLYLINE
8
CUT
66
1
70
1
10
0.0
20
0.0
30
0.0
0
VERTEX
8
CUT
10
93.9785
20
133.6262
0
VERTEX
8
CUT
10
93.9985
20
133.6188
0
VERTEX
8
CUT
10
94.0217
20
133.6103
0
VERTEX
8
CUT
10
96.7865
20
132.3304
0
VERTEX
8
CUT
10
99.1774
20
130.7653
0
VERTEX
8
CUT
10
101.7324
20
129.0517
0
VERTEX
8
CUT
10
102.2558
20
128.7502
0
VERTEX
8
CUT
10
102.4761
20
128.6060
0
VERTEX
8
CUT
10
103.2552
20
128.1745
0
VERTEX
8
CUT
10
104.6865
20
127.3501
0
VERTEX
8
CUT
10
108.2258
20
125.9209
0
VERTEX
8
CUT
10
109.3716
20
125.6483
0
VERTEX
8
CUT
10
110.5609
20
125.5684
0
VERTEX
8
CUT
10
110.9621
20
125.5206
0
VERTEX
8
CUT
10
111.3029
20
125.4444
0
VERTEX
8
CUT
10
111.6410
20
125.4397
0
VERTEX
8
CUT
10
112.3503
20
125.3552
0
VERTEX
8
CUT
10
113.4204
20
125.4149
0
VERTEX
8
CUT
10
115.2083
20
125.3900
0
VERTEX
8
CUT
10
115.9588
20
125.5296
0
VERTEX
8
CUT
10
117.2283
20
125.5608
0
VERTEX
8
CUT
10
118.9322
20
125.9110
0
VERTEX
8
CUT
10
121.1888
20
126.8004
0
VERTEX
8
CUT
10
122.8276
20
127.6506
0
VERTEX
8
CUT
10
123.3428
20
128.0185
0
VERTEX
8
CUT
10
123.5581
20
128.1215
0
VERTEX
8
CUT
10
124.6792
20
128.9729
0
VERTEX
8
CUT
10
125.2483
20
129.3794
0
VERTEX
8
CUT
10
125.4606
20
129.5189
0
VERTEX
8
CUT
10
125.5065
20
129.5637
0
VERTEX
8
CUT
10
125.8317
20
129.7960
0
VERTEX
8
CUT
10
126.0336
20
130.0006
0
VERTEX
8
CUT
10
126.0432
20
130.0069
0
VERTEX
8
CUT
10
126.0514
20
130.0151
0
VERTEX
8
CUT
10
126.3802
20
130.2649
0
VERTEX
8
CUT
10
126.9427
20
130.9095
0
VERTEX
8
CUT
10
127.7278
20
131.6972
0
VERTEX
8
CUT
10
127.7675
20
131.7580
0
VERTEX
8
CUT
10
128.3907
20
132.3896
0
VERTEX
8
CUT
10
130.2747
20
135.2163
0
VERTEX
8
CUT
10
131.6195
20
138.2002
0
VERTEX
8
CUT
10
132.5499
20
141.2336
0
VERTEX
8
CUT
10
133.1155
20
144.6919
0
VERTEX
8
CUT
10
133.6260
20
151.8724
0
VERTEX
8
CUT
10
133.9042
20
153.2943
0
VERTEX
8
CUT
10
134.5163
20
154.0885
0
VERTEX
8
CUT
10
135.3270
20
154.3740
0
VERTEX
8
CUT
10
137.2533
20
153.0382
0
VERTEX
8
CUT
10
137.5911
20
153.0244
0
VERTEX
8
CUT
10
137.8258
20
153.3953
0
VERTEX
8
CUT
10
137.4595
20
154.7754
0
VERTEX
8
CUT
10
135.1838
20
159.5996
0
VERTEX
8
CUT
10
133.7540
20
162.0426
0
VERTEX
8
CUT
10
132.5523
20
163.6624
0
VERTEX
8
CUT
10
131.0843
20
164.8994
0
VERTEX
8
CUT
10
127.5601
20
166.9018
0
VERTEX
8
CUT
10
126.1798
20
167.4411
0
VERTEX
8
CUT
10
125.2333
20
167.5084
0
VERTEX
8
CUT
10
124.5953
20
167.2315
0
VERTEX
8
CUT
10
123.9178
20
166.6070
0
VERTEX
8
CUT
10
123.7789
20
165.8498
0
VERTEX
8
CUT
10
124.4322
20
164.2386
0
VERTEX
8
CUT
10
127.5963
20
159.7954
0
VERTEX
8
CUT
10
128.5911
20
157.6557
0
VERTEX
8
CUT
10
128.8069
20
155.9345
0
VERTEX
8
CUT
10
128.5022
20
154.9189
0
VERTEX
8
CUT
10
128.4141
20
154.7797
0
VERTEX
8
CUT
10
127.7946
20
154.0997
0
VERTEX
8
CUT
10
127.4009
20
153.8929
0
VERTEX
8
CUT
10
127.0007
20
153.8070
0
VERTEX
8
CUT
10
125.8641
20
153.9813
0
VERTEX
8
CUT
10
119.5379
20
155.5778
0
VERTEX
8
CUT
10
115.7920
20
155.7306
0
VERTEX
8
CUT
10
114.9806
20
155.5898
0
VERTEX
8
CUT
10
113.1218
20
155.3464
0
VERTEX
8
CUT
10
112.3603
20
155.1353
0
VERTEX
8
CUT
10
112.1601
20
155.1005
0
VERTEX
8
CUT
10
111.7966
20
154.9789
0
VERTEX
8
CUT
10
110.7494
20
154.6885
0
VERTEX
8
CUT
10
108.4937
20
153.6498
0
VERTEX
8
CUT
10
108.3057
20
153.5251
0
VERTEX
8
CUT
10
107.6466
20
153.2134
0
VERTEX
8
CUT
10
105.7695
20
151.9129
0
VERTEX
8
CUT
10
104.0986
20
150.4178
0
VERTEX
8
CUT
10
101.9285
20
147.7771
0
VERTEX
8
CUT
10
100.5880
20
145.2494
0
VERTEX
8
CUT
10
99.8706
20
143.3697
0
VERTEX
8
CUT
10
98.9126
20
139.3124
0
VERTEX
8
CUT
10
97.8033
20
137.8122
0
VERTEX
8
CUT
10
97.3804
20
137.5504
0
VERTEX
8
CUT
10
96.7351
20
137.2792
0
VERTEX
8
CUT
10
96.7351
20
137.2791
0
VERTEX
8
CUT
10
96.7349
20
137.2791
0
VERTEX
8
CUT
10
96.7345
20
137.2790
0
VERTEX
8
CUT
10
96.6908
20
137.2704
0
VERTEX
8
CUT
10
96.0098
20
137.2186
0
VERTEX
8
CUT
10
95.2580
20
137.2381
0
VERTEX
8
CUT
10
95.0269
20
137.2441
0
VERTEX
8
CUT
10
94.7747
20
137.2507
0
VERTEX
8
CUT
10
94.6523
20
137.2539
0
VERTEX
8
CUT
10
93.9984
20
137.3215
0
VERTEX
8
CUT
10
93.9969
20
137.3218
0
VERTEX
8
CUT
10
93.9923
20
137.3227
0
VERTEX
8
CUT
10
93.9753
20
137.3262
0
VERTEX
8
CUT
10
93.9183
20
137.3379
0
VERTEX
8
CUT
10
92.6176
20
137.6762
0
VERTEX
8
CUT
10
92.1368
20
137.8572
0
VERTEX
8
CUT
10
89.7705
20
138.9970
0
VERTEX
8
CUT
10
89.7705
20
138.9971
0
VERTEX
8
CUT
10
89.7699
20
138.9974
0
VERTEX
8
CUT
10
89.7476
20
139.0116
0
VERTEX
8
CUT
10
89.2071
20
139.3558
0
VERTEX
8
CUT
10
88.4557
20
139.9308
0
VERTEX
8
CUT
10
87.9464
20
140.4956
0
VERTEX
8
CUT
10
87.5452
20
140.9697
0
VERTEX
8
CUT
10
86.7826
20
142.6277
0
VERTEX
8
CUT
10
86.7088
20
143.4012
0
VERTEX
8
CUT
10
87.2311
20
144.8780
0
VERTEX
8
CUT
10
88.6351
20
146.2556
0
VERTEX
8
CUT
10
93.0559
20
149.6848
0
VERTEX
8
CUT
10
98.9819
20
154.9422
0
VERTEX
8
CUT
10
100.6579
20
156.1278
0
VERTEX
8
CUT
10
104.2712
20
157.9458
0
VERTEX
8
CUT
10
108.8144
20
159.3296
0
VERTEX
8
CUT
10
116.1387
20
161.1304
0
VERTEX
8
CUT
10
117.9035
20
161.7752
0
VERTEX
8
CUT
10
119.0836
20
162.6913
0
VERTEX
8
CUT
10
119.3583
20
163.5721
0
VERTEX
8
CUT
10
119.2762
20
164.4476
0
VERTEX
8
CUT
10
118.8213
20
165.2987
0
VERTEX
8
CUT
10
118.0036
20
166.0884
0
VERTEX
8
CUT
10
115.2827
20
167.5835
0
VERTEX
8
CUT
10
108.2010
20
169.4863
0
VERTEX
8
CUT
10
107.0246
20
169.9526
0
VERTEX
8
CUT
10
106.1610
20
170.5347
0
VERTEX
8
CUT
10
105.4325
20
171.5228
0
VERTEX
8
CUT
10
105.4568
20
172.3114
0
VERTEX
8
CUT
10
105.8888
20
173.0418
0
VERTEX
8
CUT
10
107.3643
20
174.3705
0
VERTEX
8
CUT
10
107.6077
20
174.9375
0
VERTEX
8
CUT
10
107.3385
20
175.6381
0
VERTEX
8
CUT
10
106.5629
20
176.3534
0
VERTEX
8
CUT
10
105.4874
20
176.9045
0
VERTEX
8
CUT
10
103.9160
20
177.2993
0
VERTEX
8
CUT
10
101.9908
20
177.5052
0
VERTEX
8
CUT
10
98.1615
20
177.5330
0
VERTEX
8
CUT
10
96.6258
20
176.0045
0
VERTEX
8
CUT
10
95.5717
20
175.3157
0
VERTEX
8
CUT
10
94.1154
20
174.9483
0
VERTEX
8
CUT
10
88.8373
20
174.7086
0
VERTEX
8
CUT
10
86.7134
20
174.4097
0
VERTEX
8
CUT
10
84.7343
20
173.5385
0
VERTEX
8
CUT
10
83.7396
20
172.3847
0
VERTEX
8
CUT
10
83.5135
20
171.7184
0
VERTEX
8
CUT
10
83.6233
20
170.5375
0
VERTEX
8
CUT
10
84.3157
20
169.5180
0
VERTEX
8
CUT
10
84.9805
20
168.9818
0
VERTEX
8
CUT
10
85.9738
20
168.5898
0
VERTEX
8
CUT
10
90.3848
20
167.9879
0
VERTEX
8
CUT
10
91.7251
20
167.5593
0
VERTEX
8
CUT
10
92.5933
20
166.9212
0
VERTEX
8
CUT
10
92.9809
20
166.0514
0
VERTEX
8
CUT
10
92.9861
20
165.4593
0
VERTEX
8
CUT
10
92.7911
20
164.9165
0
VERTEX
8
CUT
10
91.9514
20
164.1076
0
VERTEX
8
CUT
10
90.4482
20
163.4637
0
VERTEX
8
CUT
10
85.2316
20
162.3249
0
VERTEX
8
CUT
10
79.0919
20
160.6093
0
VERTEX
8
CUT
10
75.7466
20
160.3620
0
VERTEX
8
CUT
10
74.2121
20
160.5470
0
VERTEX
8
CUT
10
72.0082
20
161.3938
0
VERTEX
8
CUT
10
70.9790
20
162.0213
0
VERTEX
8
CUT
10
70.5637
20
162.3189
0
VERTEX
8
CUT
10
69.5355
20
163.4080
0
VERTEX
8
CUT
10
68.5912
20
165.1742
0
VERTEX
8
CUT
10
68.4610
20
166.5750
0
VERTEX
8
CUT
10
68.7467
20
167.6516
0
VERTEX
8
CUT
10
68.9827
20
168.1806
0
VERTEX
8
CUT
10
70.2614
20
170.1918
0
VERTEX
8
CUT
10
70.5588
20
170.6387
0
VERTEX
8
CUT
10
70.5682
20
170.7579
0
VERTEX
8
CUT
10
70.6552
20
170.8864
0
VERTEX
8
CUT
10
70.5721
20
171.1455
0
VERTEX
8
CUT
10
70.5723
20
171.1470
0
VERTEX
8
CUT
10
70.5666
20
171.1623
0
VERTEX
8
CUT
10
70.4443
20
171.5432
0
VERTEX
8
CUT
10
70.4184
20
171.5657
0
VERTEX
8
CUT
10
70.3646
20
171.7122
0
VERTEX
8
CUT
10
69.1133
20
172.6025
0
VERTEX
8
CUT
10
68.8475
20
172.6879
0
VERTEX
8
CUT
10
68.7902
20
172.7258
0
VERTEX
8
CUT
10
68.4151
20
172.8268
0
VERTEX
8
CUT
10
62.6772
20
174.6705
0
VERTEX
8
CUT
10
62.5254
20
174.7395
0
VERTEX
8
CUT
10
62.5253
20
174.7396
0
VERTEX
8
CUT
10
62.5213
20
174.7414
0
VERTEX
8
CUT
10
62.4481
20
174.7746
0
VERTEX
8
CUT
10
60.9259
20
175.6280
0
VERTEX
8
CUT
10
60.5663
20
175.9532
0
VERTEX
8
CUT
10
60.4184
20
176.0870
0
VERTEX
8
CUT
10
60.3300
20
176.1669
0
VERTEX
8
CUT
10
60.2750
20
176.2167
0
VERTEX
8
CUT
10
59.5170
20
176.9792
0
VERTEX
8
CUT
10
59.5103
20
176.9905
0
VERTEX
8
CUT
10
58.7127
20
178.6606
0
VERTEX
8
CUT
10
58.7696
20
180.0636
0
VERTEX
8
CUT
10
59.2930
20
180.9428
0
VERTEX
8
CUT
10
60.7166
20
181.9018
0
VERTEX
8
CUT
10
62.0840
20
182.0739
0
VERTEX
8
CUT
10
63.8437
20
181.8628
0
VERTEX
8
CUT
10
67.9718
20
180.6217
0
VERTEX
8
CUT
10
69.5844
20
180.3336
0
VERTEX
8
CUT
10
71.0712
20
180.9286
0
VERTEX
8
CUT
10
71.3901
20
181.2760
0
VERTEX
8
CUT
10
71.5722
20
182.0229
0
VERTEX
8
CUT
10
71.4913
20
182.3280
0
VERTEX
8
CUT
10
71.4900
20
182.3389
0
VERTEX
8
CUT
10
71.4874
20
182.3426
0
VERTEX
8
CUT
10
71.3626
20
182.8129
0
VERTEX
8
CUT
10
70.6540
20
183.6892
0
VERTEX
8
CUT
10
63.7920
20
188.3074
0
VERTEX
8
CUT
10
61.7104
20
190.3832
0
VERTEX
8
CUT
10
60.9158
20
191.8666
0
VERTEX
8
CUT
10
60.6749
20
192.7130
0
VERTEX
8
CUT
10
60.6627
20
192.8042
0
VERTEX
8
CUT
10
60.6502
20
192.8985
0
VERTEX
8
CUT
10
60.6109
20
193.1934
0
VERTEX
8
CUT
10
60.5675
20
193.5187
0
VERTEX
8
CUT
10
60.7151
20
194.1414
0
VERTEX
8
CUT
10
61.3106
20
195.1860
0
VERTEX
8
CUT
10
61.3896
20
195.2713
0
VERTEX
8
CUT
10
61.4052
20
195.2882
0
VERTEX
8
CUT
10
61.4617
20
195.3491
0
VERTEX
8
CUT
10
61.5498
20
195.4443
0
VERTEX
8
CUT
10
62.0736
20
195.9001
0
VERTEX
8
CUT
10
62.9129
20
196.2894
0
VERTEX
8
CUT
10
63.9037
20
196.4803
0
VERTEX
8
CUT
10
65.0467
20
196.4137
0
VERTEX
8
CUT
10
67.6062
20
195.7209
0
VERTEX
8
CUT
10
71.0003
20
194.2202
0
VERTEX
8
CUT
10
72.2996
20
193.8942
0
VERTEX
8
CUT
10
72.4136
20
193.9256
0
VERTEX
8
CUT
10
72.5100
20
193.8995
0
VERTEX
8
CUT
10
73.1129
20
194.0607
0
VERTEX
8
CUT
10
73.2032
20
194.1430
0
VERTEX
8
CUT
10
73.3636
20
194.1871
0
VERTEX
8
CUT
10
73.7421
20
194.6339
0
VERTEX
8
CUT
10
73.7615
20
194.6516
0
VERTEX
8
CUT
10
73.7631
20
194.6588
0
VERTEX
8
CUT
10
74.2752
20
195.2633
0
VERTEX
8
CUT
10
73.2235
20
197.2227
0
VERTEX
8
CUT
10
72.5710
20
197.8444
0
VERTEX
8
CUT
10
72.2849
20
198.2432
0
VERTEX
8
CUT
10
71.4975
20
198.8672
0
VERTEX
8
CUT
10
70.5372
20
199.7823
0
VERTEX
8
CUT
10
65.6994
20
203.0963
0
VERTEX
8
CUT
10
58.1718
20
207.7937
0
VERTEX
8
CUT
10
54.4008
20
210.6858
0
VERTEX
8
CUT
10
53.0029
20
212.0869
0
VERTEX
8
CUT
10
50.8697
20
214.9711
0
VERTEX
8
CUT
10
49.6992
20
217.3065
0
VERTEX
8
CUT
10
49.1231
20
218.9135
0
VERTEX
8
CUT
10
48.7821
20
221.2931
0
VERTEX
8
CUT
10
48.8800
20
223.9970
0
VERTEX
8
CUT
10
49.5704
20
225.8621
0
VERTEX
8
CUT
10
51.0055
20
227.2572
0
VERTEX
8
CUT
10
52.4734
20
227.7861
0
VERTEX
8
CUT
10
53.6700
20
227.5735
0
VERTEX
8
CUT
10
58.8128
20
224.9492
0
VERTEX
8
CUT
10
59.8247
20
224.6011
0
VERTEX
8
CUT
10
60.7433
20
224.8942
0
VERTEX
8
CUT
10
61.4978
20
225.3842
0
VERTEX
8
CUT
10
62.0263
20
225.9896
0
VERTEX
8
CUT
10
62.3288
20
226.7328
0
VERTEX
8
CUT
10
62.4306
20
227.8260
0
VERTEX
8
CUT
10
61.9377
20
230.4797
0
VERTEX
8
CUT
10
58.8419
20
238.3897
0
VERTEX
8
CUT
10
58.1355
20
241.3495
0
VERTEX
8
CUT
10
58.0754
20
244.1507
0
VERTEX
8
CUT
10
58.3282
20
245.8759
0
VERTEX
8
CUT
10
58.8338
20
247.2468
0
VERTEX
8
CUT
10
60.0601
20
248.7490
0
VERTEX
8
CUT
10
61.6247
20
249.5011
0
VERTEX
8
CUT
10
62.3979
20
249.4662
0
VERTEX
8
CUT
10
63.1781
20
249.1705
0
VERTEX
8
CUT
10
64.5999
20
247.8691
0
VERTEX
8
CUT
10
67.3708
20
243.1884
0
VERTEX
8
CUT
10
68.1686
20
242.2665
0
VERTEX
8
CUT
10
69.6429
20
241.2061
0
VERTEX
8
CUT
10
70.9404
20
241.0787
0
VERTEX
8
CUT
10
71.6993
20
241.3260
0
VERTEX
8
CUT
10
72.3144
20
241.8817
0
VERTEX
8
CUT
10
72.7966
20
242.9765
0
VERTEX
8
CUT
10
73.9295
20
250.7199
0
VERTEX
8
CUT
10
75.0819
20
256.0158
0
VERTEX
8
CUT
10
75.8730
20
258.3221
0
VERTEX
8
CUT
10
77.9787
20
262.3832
0
VERTEX
8
CUT
10
80.9350
20
266.0447
0
VERTEX
8
CUT
10
84.3152
20
269.1833
0
VERTEX
8
CUT
10
86.1456
20
270.1498
0
VERTEX
8
CUT
10
86.7780
20
270.2593
0
VERTEX
8
CUT
10
86.8699
20
270.2531
0
VERTEX
8
CUT
10
87.5040
20
270.3849
0
VERTEX
8
CUT
10
88.0734
20
270.4834
0
VERTEX
8
CUT
10
89.4160
20
271.3064
0
VERTEX
8
CUT
10
89.4377
20
271.3295
0
VERTEX
8
CUT
10
89.5656
20
271.3992
0
VERTEX
8
CUT
10
89.8284
20
271.7454
0
VERTEX
8
CUT
10
90.8516
20
272.8345
0
VERTEX
8
CUT
10
93.2637
20
276.2384
0
VERTEX
8
CUT
10
94.7032
20
277.6735
0
VERTEX
8
CUT
10
96.1005
20
278.3603
0
VERTEX
8
CUT
10
96.8583
20
278.3700
0
VERTEX
8
CUT
10
98.0748
20
277.7068
0
VERTEX
8
CUT
10
98.6500
20
276.9425
0
VERTEX
8
CUT
10
98.9418
20
275.9545
0
VERTEX
8
CUT
10
99.0360
20
274.5763
0
VERTEX
8
CUT
10
98.7053
20
269.8164
0
VERTEX
8
CUT
10
98.7399
20
267.3159
0
VERTEX
8
CUT
10
98.9982
20
266.4643
0
VERTEX
8
CUT
10
99.8144
20
265.6208
0
VERTEX
8
CUT
10
100.3699
20
265.3183
0
VERTEX
8
CUT
10
101.1104
20
265.3958
0
VERTEX
8
CUT
10
102.3496
20
266.1987
0
VERTEX
8
CUT
10
103.3261
20
267.3840
0
VERTEX
8
CUT
10
107.4925
20
274.7908
0
VERTEX
8
CUT
10
109.3680
20
277.6426
0
VERTEX
8
CUT
10
109.9556
20
278.5126
0
VERTEX
8
CUT
10
110.3115
20
279.0396
0
VERTEX
8
CUT
10
110.8936
20
279.9016
0
VERTEX
8
CUT
10
111.2347
20
280.4066
0
VERTEX
8
CUT
10
113.6142
20
283.1672
0
VERTEX
8
CUT
10
115.9857
20
285.6054
0
VERTEX
8
CUT
10
118.7089
20
287.7023
0
VERTEX
8
CUT
10
120.4778
20
288.7124
0
VERTEX
8
CUT
10
122.8609
20
289.4416
0
VERTEX
8
CUT
10
124.5654
20
289.2501
0
VERTEX
8
CUT
10
125.0880
20
289.0129
0
VERTEX
8
CUT
10
125.4337
20
288.7773
0
VERTEX
8
CUT
10
126.3552
20
287.7763
0
VERTEX
8
CUT
10
126.5139
20
287.4334
0
VERTEX
8
CUT
10
126.6738
20
286.6778
0
VERTEX
8
CUT
10
126.1946
20
279.6176
0
VERTEX
8
CUT
10
126.4025
20
277.7601
0
VERTEX
8
CUT
10
126.8944
20
276.8971
0
VERTEX
8
CUT
10
126.8948
20
276.8962
0
VERTEX
8
CUT
10
126.8950
20
276.8959
0
VERTEX
8
CUT
10
127.0974
20
276.5408
0
VERTEX
8
CUT
10
127.4662
20
276.2929
0
VERTEX
8
CUT
10
127.6242
20
276.1260
0
VERTEX
8
CUT
10
127.7652
20
276.0518
0
VERTEX
8
CUT
10
127.7695
20
276.0468
0
VERTEX
8
CUT
10
127.8862
20
275.9882
0
VERTEX
8
CUT
10
128.0373
20
275.9088
0
VERTEX
8
CUT
10
128.2229
20
275.7840
0
VERTEX
8
CUT
10
128.3060
20
275.7675
0
VERTEX
8
CUT
10
128.3836
20
275.7267
0
VERTEX
8
CUT
10
128.4085
20
275.7261
0
VERTEX
8
CUT
10
128.4865
20
275.6869
0
VERTEX
8
CUT
10
128.6779
20
275.6939
0
VERTEX
8
CUT
10
129.0623
20
275.6179
0
VERTEX
8
CUT
10
129.9273
20
275.7500
0
VERTEX
8
CUT
10
131.7674
20
276.9728
0
VERTEX
8
CUT
10
132.7782
20
278.1310
0
VERTEX
8
CUT
10
137.5742
20
285.8980
0
VERTEX
8
CUT
10
140.2505
20
289.5667
0
VERTEX
8
CUT
10
141.6375
20
291.1072
0
VERTEX
8
CUT
10
144.3444
20
293.4232
0
VERTEX
8
CUT
10
146.7810
20
294.8288
0
VERTEX
8
CUT
10
148.0301
20
295.1999
0
VERTEX
8
CUT
10
148.5156
20
295.2604
0
VERTEX
8
CUT
10
150.3257
20
295.3340
0
VERTEX
8
CUT
10
150.5737
20
295.3115
0
VERTEX
8
CUT
10
150.7933
20
295.2915
0
VERTEX
8
CUT
10
150.8007
20
295.2908
0
VERTEX
8
CUT
10
150.8009
20
295.2908
0
VERTEX
8
CUT
10
151.8059
20
295.1618
0
VERTEX
8
CUT
10
152.0728
20
295.0728
0
VERTEX
8
CUT
10
152.1412
20
295.0500
0
VERTEX
8
CUT
10
152.1770
20
295.0381
0
VERTEX
8
CUT
10
152.1895
20
295.0339
0
VERTEX
8
CUT
10
153.6807
20
294.4175
0
VERTEX
8
CUT
10
154.1044
20
294.1598
0
VERTEX
8
CUT
10
154.2973
20
294.0198
0
VERTEX
8
CUT
10
154.3979
20
293.9468
0
VERTEX
8
CUT
10
154.5640
20
293.8262
0
VERTEX
8
CUT
10
155.3507
20
293.2553
0
VERTEX
8
CUT
10
156.8268
20
292.0109
0
VERTEX
8
CUT
10
160.1926
20
288.2837
0
VERTEX
8
CUT
10
165.0756
20
281.5055
0
VERTEX
8
CUT
10
167.4049
20
279.1785
0
VERTEX
8
CUT
10
169.3583
20
278.2086
0
VERTEX
8
CUT
10
170.3040
20
278.2019
0
VERTEX
8
CUT
10
171.2395
20
278.4784
0
VERTEX
8
CUT
10
172.1215
20
279.1337
0
VERTEX
8
CUT
10
172.5697
20
279.9530
0
VERTEX
8
CUT
10
172.6460
20
280.0189
0
VERTEX
8
CUT
10
172.6382
20
280.1757
0
VERTEX
8
CUT
10
172.8108
20
281.5623
0
VERTEX
8
CUT
10
172.4852
20
286.2944
0
VERTEX
8
CUT
10
172.5697
20
286.9252
0
VERTEX
8
CUT
10
172.7334
20
287.5131
0
VERTEX
8
CUT
10
173.0941
20
288.1782
0
VERTEX
8
CUT
10
173.5810
20
288.7296
0
VERTEX
8
CUT
10
173.6600
20
288.8192
0
VERTEX
8
CUT
10
173.6857
20
288.8483
0
VERTEX
8
CUT
10
173.7036
20
288.8685
0
VERTEX
8
CUT
10
174.8799
20
289.4094
0
VERTEX
8
CUT
10
176.7590
20
289.4135
0
VERTEX
8
CUT
10
177.3305
20
289.2838
0
VERTEX
8
CUT
10
177.7951
20
289.1066
0
VERTEX
8
CUT
10
178.0138
20
289.0231
0
VERTEX
8
CUT
10
178.1589
20
288.9677
0
VERTEX
8
CUT
10
178.5347
20
288.8243
0
VERTEX
8
CUT
10
179.7281
20
288.2616
0
VERTEX
8
CUT
10
179.7298
20
288.2606
0
VERTEX
8
CUT
10
179.7322
20
288.2592
0
VERTEX
8
CUT
10
179.7388
20
288.2552
0
VERTEX
8
CUT
10
179.7447
20
288.2517
0
VERTEX
8
CUT
10
183.1589
20
285.5898
0
VERTEX
8
CUT
10
185.7844
20
282.9633
0
VERTEX
8
CUT
10
188.0682
20
280.2889
0
VERTEX
8
CUT
10
188.7855
20
279.2597
0
VERTEX
8
CUT
10
190.8998
20
275.9621
0
VERTEX
8
CUT
10
195.7456
20
267.2578
0
VERTEX
8
CUT
10
196.7888
20
265.9500
0
VERTEX
8
CUT
10
197.6894
20
265.4845
0
VERTEX
8
CUT
10
197.7930
20
265.4760
0
VERTEX
8
CUT
10
198.2915
20
265.3998
0
VERTEX
8
CUT
10
198.3828
20
265.4282
0
VERTEX
8
CUT
10
198.5364
20
265.4157
0
VERTEX
8
CUT
10
199.1330
20
265.5793
0
VERTEX
8
CUT
10
199.7508
20
266.2602
0
VERTEX
8
CUT
10
200.1483
20
267.1187
0
VERTEX
8
CUT
10
200.2400
20
267.9651
0
VERTEX
8
CUT
10
199.9722
20
272.6460
0
VERTEX
8
CUT
10
199.8824
20
274.2620
0
VERTEX
8
CUT
10
199.9779
20
275.8448
0
VERTEX
8
CUT
10
200.3103
20
276.9047
0
VERTEX
8
CUT
10
200.8819
20
277.6592
0
VERTEX
8
CUT
10
201.7413
20
278.1629
0
VERTEX
8
CUT
10
203.1305
20
278.2526
0
VERTEX
8
CUT
10
204.1640
20
277.8891
0
VERTEX
8
CUT
10
204.8791
20
277.2089
0
VERTEX
8
CUT
10
205.1018
20
276.9971
0
VERTEX
8
CUT
10
205.1711
20
276.9312
0
VERTEX
8
CUT
10
205.4027
20
276.7108
0
VERTEX
8
CUT
10
208.2160
20
272.8345
0
VERTEX
8
CUT
10
209.2751
20
271.7072
0
VERTEX
8
CUT
10
209.3357
20
271.6267
0
VERTEX
8
CUT
10
209.3714
20
271.6047
0
VERTEX
8
CUT
10
209.6516
20
271.3064
0
VERTEX
8
CUT
10
210.9942
20
270.4834
0
VERTEX
8
CUT
10
213.4559
20
269.9885
0
VERTEX
8
CUT
10
215.3415
20
268.7721
0
VERTEX
8
CUT
10
217.9665
20
266.2096
0
VERTEX
8
CUT
10
220.9971
20
262.4162
0
VERTEX
8
CUT
10
222.2106
20
260.3788
0
VERTEX
8
CUT
10
223.9950
20
255.9547
0
VERTEX
8
CUT
10
225.0783
20
250.8691
0
VERTEX
8
CUT
10
225.8041
20
244.5371
0
VERTEX
8
CUT
10
226.4464
20
242.4126
0
VERTEX
8
CUT
10
227.4029
20
241.3538
0
VERTEX
8
CUT
10
228.0347
20
241.1334
0
VERTEX
8
CUT
10
229.2372
20
241.1381
0
VERTEX
8
CUT
10
230.8144
20
242.1808
0
VERTEX
8
CUT
10
231.9878
20
243.5931
0
VERTEX
8
CUT
10
234.6211
20
247.9038
0
VERTEX
8
CUT
10
235.6713
20
248.9246
0
VERTEX
8
CUT
10
236.7253
20
249.4050
0
VERTEX
8
CUT
10
237.3411
20
249.4723
0
VERTEX
8
CUT
10
238.3915
20
249.2786
0
VERTEX
8
CUT
10
239.3514
20
248.6742
0
VERTEX
8
CUT
10
240.0878
20
247.8408
0
VERTEX
8
CUT
10
240.6867
20
246.6624
0
VERTEX
8
CUT
10
241.2297
20
243.8283
0
VERTEX
8
CUT
10
241.1982
20
242.0906
0
VERTEX
8
CUT
10
240.6192
20
239.1782
0
VERTEX
8
CUT
10
237.3405
20
230.4200
0
VERTEX
8
CUT
10
236.9870
20
228.9599
0
VERTEX
8
CUT
10
236.9792
20
226.7636
0
VERTEX
8
CUT
10
237.2820
20
226.0197
0
VERTEX
8
CUT
10
237.8376
20
225.3927
0
VERTEX
8
CUT
10
238.8810
20
224.7884
0
VERTEX
8
CUT
10
239.8335
20
224.6925
0
VERTEX
8
CUT
10
241.6000
20
225.2920
0
VERTEX
8
CUT
10
244.6386
20
227.0943
0
VERTEX
8
CUT
10
245.8819
20
227.5955
0
VERTEX
8
CUT
10
247.4629
20
227.7866
0
VERTEX
8
CUT
10
248.5559
20
227.4007
0
VERTEX
8
CUT
10
249.7171
20
226.2089
0
VERTEX
8
CUT
10
250.6755
20
224.0219
0
VERTEX
8
CUT
10
250.8271
20
221.3289
0
VERTEX
8
CUT
10
250.1305
20
218.1817
0
VERTEX
8
CUT
10
249.2254
20
216.0603
0
VERTEX
8
CUT
10
248.0041
20
214.0527
0
VERTEX
8
CUT
10
246.3939
20
212.0824
0
VERTEX
8
CUT
10
244.4534
20
210.2016
0
VERTEX
8
CUT
10
242.0386
20
208.2447
0
VERTEX
8
CUT
10
239.3128
20
206.3576
0
VERTEX
8
CUT
10
233.6979
20
203.0054
0
VERTEX
8
CUT
10
229.7142
20
200.3088
0
VERTEX
8
CUT
10
228.1549
20
199.0772
0
VERTEX
8
CUT
10
227.8684
20
198.7831
0
VERTEX
8
CUT
10
227.6443
20
198.6234
0
VERTEX
8
CUT
10
226.8000
20
197.6861
0
VERTEX
8
CUT
10
226.0943
20
196.9616
0
VERTEX
8
CUT
10
225.5630
20
196.0308
0
VERTEX
8
CUT
10
225.3977
20
195.2784
0
VERTEX
8
CUT
10
225.5503
20
194.7987
0
VERTEX
8
CUT
10
226.0154
20
194.3165
0
VERTEX
8
CUT
10
226.4875
20
194.1276
0
VERTEX
8
CUT
10
227.0788
20
193.8488
0
VERTEX
8
CUT
10
227.1396
20
193.8668
0
VERTEX
8
CUT
10
227.2122
20
193.8378
0
VERTEX
8
CUT
10
228.5764
20
194.2192
0
VERTEX
8
CUT
10
232.8762
20
196.0411
0
VERTEX
8
CUT
10
234.5671
20
196.4749
0
VERTEX
8
CUT
10
235.0499
20
196.5138
0
VERTEX
8
CUT
10
235.2111
20
196.5034
0
VERTEX
8
CUT
10
235.3155
20
196.4967
0
VERTEX
8
CUT
10
235.5231
20
196.4835
0
VERTEX
8
CUT
10
235.8188
20
196.4645
0
VERTEX
8
CUT
10
236.6971
20
196.3196
0
VERTEX
8
CUT
10
238.1488
20
195.4395
0
VERTEX
8
CUT
10
238.6711
20
194.6346
0
VERTEX
8
CUT
10
238.9157
20
193.7640
0
VERTEX
8
CUT
10
238.9135
20
192.7763
0
VERTEX
8
CUT
10
238.1178
20
190.6534
0
VERTEX
8
CUT
10
237.3997
20
189.6687
0
VERTEX
8
CUT
10
237.3433
20
189.6077
0
VERTEX
8
CUT
10
237.3073
20
189.5687
0
VERTEX
8
CUT
10
237.3009
20
189.5617
0
VERTEX
8
CUT
10
237.2602
20
189.5176
0
VERTEX
8
CUT
10
236.0916
20
188.4366
0
VERTEX
8
CUT
10
235.8191
20
188.2142
0
VERTEX
8
CUT
10
235.6926
20
188.1109
0
VERTEX
8
CUT
10
235.6768
20
188.0980
0
VERTEX
8
CUT
10
235.5798
20
188.0189
0
VERTEX
8
CUT
10
231.2568
20
185.3768
0
VERTEX
8
CUT
10
229.1394
20
183.7831
0
VERTEX
8
CUT
10
228.4869
20
183.0029
0
VERTEX
8
CUT
10
228.3691
20
182.6313
0
VERTEX
8
CUT
10
228.1175
20
181.9405
0
VERTEX
8
CUT
10
228.1407
20
181.9109
0
VERTEX
8
CUT
10
228.1336
20
181.8884
0
VERTEX
8
CUT
10
228.8330
20
180.8588
0
VERTEX
8
CUT
10
229.5441
20
180.4595
0
VERTEX
8
CUT
10
230.2847
20
180.3603
0
VERTEX
8
CUT
10
231.9428
20
180.8099
0
VERTEX
8
CUT
10
231.9793
20
180.8131
0
VERTEX
8
CUT
10
236.0994
20
181.8957
0
VERTEX
8
CUT
10
237.5415
20
182.0687
0
VERTEX
8
CUT
10
237.5419
20
182.0687
0
VERTEX
8
CUT
10
237.5432
20
182.0688
0
VERTEX
8
CUT
10
237.5434
20
182.0688
0
VERTEX
8
CUT
10
237.5948
20
182.0727
0
VERTEX
8
CUT
10
238.9210
20
181.9138
0
VERTEX
8
CUT
10
240.0383
20
181.2515
0
VERTEX
8
CUT
10
240.9221
20
180.0021
0
VERTEX
8
CUT
10
241.0141
20
178.9787
0
VERTEX
8
CUT
10
240.4054
20
177.3734
0
VERTEX
8
CUT
10
239.2787
20
176.0378
0
VERTEX
8
CUT
10
239.2398
20
176.0086
0
VERTEX
8
CUT
10
239.2363
20
176.0060
0
VERTEX
8
CUT
10
239.2322
20
176.0029
0
VERTEX
8
CUT
10
239.2000
20
175.9787
0
VERTEX
8
CUT
10
237.9138
20
175.1167
0
VERTEX
8
CUT
10
237.2857
20
174.8369
0
VERTEX
8
CUT
10
236.5981
20
174.5305
0
VERTEX
8
CUT
10
236.3564
20
174.4228
0
VERTEX
8
CUT
10
235.8644
20
174.2036
0
VERTEX
8
CUT
10
235.3327
20
173.9929
0
VERTEX
8
CUT
10
231.2085
20
172.9374
0
VERTEX
8
CUT
10
230.2464
20
172.5252
0
VERTEX
8
CUT
10
229.6172
20
172.0236
0
VERTEX
8
CUT
10
229.5306
20
171.8874
0
VERTEX
8
CUT
10
229.4985
20
171.8678
0
VERTEX
8
CUT
10
229.3271
20
171.5668
0
VERTEX
8
CUT
10
229.1568
20
171.2986
0
VERTEX
8
CUT
10
229.1543
20
171.2635
0
VERTEX
8
CUT
10
229.1109
20
171.1873
0
VERTEX
8
CUT
10
229.1316
20
170.9360
0
VERTEX
8
CUT
10
229.1264
20
170.8624
0
VERTEX
8
CUT
10
229.1396
20
170.8386
0
VERTEX
8
CUT
10
229.1552
20
170.6483
0
VERTEX
8
CUT
10
229.6353
20
169.9419
0
VERTEX
8
CUT
10
231.0835
20
167.3221
0
VERTEX
8
CUT
10
231.3082
20
166.4943
0
VERTEX
8
CUT
10
231.2775
20
166.0517
0
VERTEX
8
CUT
10
231.2637
20
165.9427
0
VERTEX
8
CUT
10
231.2524
20
165.8534
0
VERTEX
8
CUT
10
231.2285
20
165.6643
0
VERTEX
8
CUT
10
231.2166
20
165.5708
0
VERTEX
8
CUT
10
231.1451
20
165.0057
0
VERTEX
8
CUT
10
231.1049
20
164.8702
0
VERTEX
8
CUT
10
230.3767
20
163.5831
0
VERTEX
8
CUT
10
228.5875
20
161.8528
0
VERTEX
8
CUT
10
227.2129
20
161.1017
0
VERTEX
8
CUT
10
226.3202
20
160.7945
0
VERTEX
8
CUT
10
225.6505
20
160.6098
0
VERTEX
8
CUT
10
222.8689
20
160.3620
0
VERTEX
8
CUT
10
220.8813
20
160.4883
0
VERTEX
8
CUT
10
213.2074
20
162.6550
0
VERTEX
8
CUT
10
209.2800
20
163.4639
0
VERTEX
8
CUT
10
207.7170
20
164.1082
0
VERTEX
8
CUT
10
206.8781
20
164.9165
0
VERTEX
8
CUT
10
206.6795
20
165.4814
0
VERTEX
8
CUT
10
206.8119
20
166.4802
0
VERTEX
8
CUT
10
207.3924
20
167.2377
0
VERTEX
8
CUT
10
209.2031
20
167.9605
0
VERTEX
8
CUT
10
213.0813
20
168.5330
0
VERTEX
8
CUT
10
214.4978
20
168.9648
0
VERTEX
8
CUT
10
215.5599
20
169.7577
0
VERTEX
8
CUT
10
216.1074
20
170.6899
0
VERTEX
8
CUT
10
216.1864
20
171.7479
0
VERTEX
8
CUT
10
215.9897
20
172.3269
0
VERTEX
8
CUT
10
214.8274
20
173.6951
0
VERTEX
8
CUT
10
213.6194
20
174.2726
0
VERTEX
8
CUT
10
211.8427
20
174.5895
0
VERTEX
8
CUT
10
206.2282
20
174.9802
0
VERTEX
8
CUT
10
204.3710
20
175.3250
0
VERTEX
8
CUT
10
203.1308
20
175.9408
0
VERTEX
8
CUT
10
201.6976
20
177.4718
0
VERTEX
8
CUT
10
201.0723
20
177.6269
0
VERTEX
8
CUT
10
196.5547
20
177.4129
0
VERTEX
8
CUT
10
194.6123
20
176.9492
0
VERTEX
8
CUT
10
193.1505
20
176.2694
0
VERTEX
8
CUT
10
192.2649
20
175.3968
0
VERTEX
8
CUT
10
192.0537
20
174.8245
0
VERTEX
8
CUT
10
194.3618
20
172.1629
0
VERTEX
8
CUT
10
194.3284
20
171.4373
0
VERTEX
8
CUT
10
193.6600
20
170.5361
0
VERTEX
8
CUT
10
191.2627
20
169.4280
0
VERTEX
8
CUT
10
186.7781
20
168.3340
0
VERTEX
8
CUT
10
183.7734
20
167.2443
0
VERTEX
8
CUT
10
181.5970
20
165.9564
0
VERTEX
8
CUT
10
180.8546
20
165.2745
0
VERTEX
8
CUT
10
180.3916
20
164.5364
0
VERTEX
8
CUT
10
180.3232
20
163.6536
0
VERTEX
8
CUT
10
180.7435
20
162.8307
0
VERTEX
8
CUT
10
181.4957
20
162.0753
0
VERTEX
8
CUT
10
182.5194
20
161.4439
0
VERTEX
8
CUT
10
190.9777
20
159.3288
0
VERTEX
8
CUT
10
195.6113
20
157.8847
0
VERTEX
8
CUT
10
197.6188
20
156.9879
0
VERTEX
8
CUT
10
201.2264
20
154.6730
0
VERTEX
8
CUT
10
207.9206
20
148.7055
0
VERTEX
8
CUT
10
211.3758
20
146.0915
0
VERTEX
8
CUT
10
212.3151
20
145.1824
0
VERTEX
8
CUT
10
212.8645
20
144.2061
0
VERTEX
8
CUT
10
213.0517
20
143.2432
0
VERTEX
8
CUT
10
212.8247
20
142.1442
0
VERTEX
8
CUT
10
212.2357
20
141.0714
0
VERTEX
8
CUT
10
211.0347
20
139.8098
0
VERTEX
8
CUT
10
210.1144
20
139.0811
0
VERTEX
8
CUT
10
207.8942
20
138.0043
0
VERTEX
8
CUT
10
207.3937
20
137.8202
0
VERTEX
8
CUT
10
207.1228
20
137.7206
0
VERTEX
8
CUT
10
207.0130
20
137.6802
0
VERTEX
8
CUT
10
206.7284
20
137.5754
0
VERTEX
8
CUT
10
205.7813
20
137.3275
0
VERTEX
8
CUT
10
204.2442
20
137.1759
0
VERTEX
8
CUT
10
202.6747
20
137.3342
0
VERTEX
8
CUT
10
201.7343
20
137.8974
0
VERTEX
8
CUT
10
201.6769
20
137.9383
0
VERTEX
8
CUT
10
201.6360
20
137.9999
0
VERTEX
8
CUT
10
201.1555
20
138.7555
0
VERTEX
8
CUT
10
199.5562
20
144.2740
0
VERTEX
8
CUT
10
198.8175
20
145.7609
0
VERTEX
8
CUT
10
198.6259
20
146.2141
0
VERTEX
8
CUT
10
198.4251
20
146.5507
0
VERTEX
8
CUT
10
197.8891
20
147.6296
0
VERTEX
8
CUT
10
197.4973
20
148.1063
0
VERTEX
8
CUT
10
197.4041
20
148.2625
0
VERTEX
8
CUT
10
195.9162
20
150.1012
0
VERTEX
8
CUT
10
195.6692
20
150.3305
0
VERTEX
8
CUT
10
195.4490
20
150.5984
0
VERTEX
8
CUT
10
193.4972
20
152.3122
0
VERTEX
8
CUT
10
191.3585
20
153.6786
0
VERTEX
8
CUT
10
189.1229
20
154.6799
0
VERTEX
8
CUT
10
186.7532
20
155.3942
0
VERTEX
8
CUT
10
184.2017
20
155.7301
0
VERTEX
8
CUT
10
181.5826
20
155.7268
0
VERTEX
8
CUT
10
178.9201
20
155.3757
0
VERTEX
8
CUT
10
176.9765
20
154.8348
0
VERTEX
8
CUT
10
173.5892
20
153.9372
0
VERTEX
8
CUT
10
172.6849
20
153.8090
0
VERTEX
8
CUT
10
172.0636
20
154.0696
0
VERTEX
8
CUT
10
171.0491
20
155.4651
0
VERTEX
8
CUT
10
171.0394
20
155.4971
0
VERTEX
8
CUT
10
171.0380
20
155.5015
0
VERTEX
8
CUT
10
171.0342
20
155.5143
0
VERTEX
8
CUT
10
171.0161
20
155.5737
0
VERTEX
8
CUT
10
170.8654
20
156.8378
0
VERTEX
8
CUT
10
171.7954
20
159.1841
0
VERTEX
8
CUT
10
174.7654
20
163.4139
0
VERTEX
8
CUT
10
175.6794
20
165.1217
0
VERTEX
8
CUT
10
175.8755
20
166.2547
0
VERTEX
8
CUT
10
175.7610
20
166.7148
0
VERTEX
8
CUT
10
174.8035
20
167.4626
0
VERTEX
8
CUT
10
173.9196
20
167.4801
0
VERTEX
8
CUT
10
172.0496
20
166.7825
0
VERTEX
8
CUT
10
168.6748
20
164.8584
0
VERTEX
8
CUT
10
166.9405
20
163.3947
0
VERTEX
8
CUT
10
165.5074
20
161.3723
0
VERTEX
8
CUT
10
163.7989
20
158.1962
0
VERTEX
8
CUT
10
162.0674
20
153.7203
0
VERTEX
8
CUT
10
162.0428
20
153.2051
0
VERTEX
8
CUT
10
162.4610
20
153.0140
0
VERTEX
8
CUT
10
163.9784
20
154.1926
0
VERTEX
8
CUT
10
165.0132
20
154.4053
0
VERTEX
8
CUT
10
165.7528
20
154.0896
0
VERTEX
8
CUT
10
166.0609
20
153.6365
0
VERTEX
8
CUT
10
166.5036
20
147.4211
0
VERTEX
8
CUT
10
166.5249
20
146.4351
0
VERTEX
8
CUT
10
166.8224
20
143.6277
0
VERTEX
8
CUT
10
166.9548
20
143.0733
0
VERTEX
8
CUT
10
167.1511
20
141.4691
0
VERTEX
8
CUT
10
168.1599
20
137.8687
0
VERTEX
8
CUT
10
169.7531
20
134.6509
0
VERTEX
8
CUT
10
171.6663
20
131.9423
0
VERTEX
8
CUT
10
173.8045
20
129.7991
0
VERTEX
8
CUT
10
174.2293
20
129.4954
0
VERTEX
8
CUT
10
174.2835
20
129.4396
0
VERTEX
8
CUT
10
174.5749
20
129.2483
0
VERTEX
8
CUT
10
176.3345
20
127.9904
0
VERTEX
8
CUT
10
176.9913
20
127.6625
0
VERTEX
8
CUT
10
177.5488
20
127.2966
0
VERTEX
8
CUT
10
178.2733
20
127.0224
0
VERTEX
8
CUT
10
179.1864
20
126.5665
0
VERTEX
8
CUT
10
180.7469
20
125.9688
0
VERTEX
8
CUT
10
183.0136
20
125.5311
0
VERTEX
8
CUT
10
183.9800
20
125.4842
0
VERTEX
8
CUT
10
184.0394
20
125.4730
0
VERTEX
8
CUT
10
184.2118
20
125.4730
0
VERTEX
8
CUT
10
186.0600
20
125.3833
0
VERTEX
8
CUT
10
186.3962
20
125.4085
0
VERTEX
8
CUT
10
187.1036
20
125.3822
0
VERTEX
8
CUT
10
188.5042
20
125.5668
0
VERTEX
8
CUT
10
190.4778
20
125.7150
0
VERTEX
8
CUT
10
192.5727
20
126.3074
0
VERTEX
8
CUT
10
195.7730
20
127.7597
0
VERTEX
8
CUT
10
196.8577
20
128.4524
0
VERTEX
8
CUT
10
198.7944
20
129.5837
0
VERTEX
8
CUT
10
200.7370
20
130.9296
0
VERTEX
8
CUT
10
202.9332
20
132.3321
0
VERTEX
8
CUT
10
205.8410
20
133.6963
0
VERTEX
8
CUT
10
207.7564
20
134.0417
0
VERTEX
8
CUT
10
209.7164
20
134.0721
0
VERTEX
8
CUT
10
211.3135
20
133.7247
0
VERTEX
8
CUT
10
211.3406
20
133.7153
0
VERTEX
8
CUT
10
211.3678
20
133.7058
0
VERTEX
8
CUT
10
211.4457
20
133.6786
0
VERTEX
8
CUT
10
212.0108
20
133.4817
0
VERTEX
8
CUT
10
212.8229
20
132.9159
0
VERTEX
8
CUT
10
213.6947
20
131.5762
0
VERTEX
8
CUT
10
213.8796
20
130.6097
0
VERTEX
8
CUT
10
213.8596
20
130.5288
0
VERTEX
8
CUT
10
213.8562
20
130.5152
0
VERTEX
8
CUT
10
213.8540
20
130.5061
0
VERTEX
8
CUT
10
213.8245
20
130.3872
0
VERTEX
8
CUT
10
213.4461
20
129.5685
0
VERTEX
8
CUT
10
213.1349
20
129.1413
0
VERTEX
8
CUT
10
212.8001
20
128.6819
0
VERTEX
8
CUT
10
212.7407
20
128.6004
0
VERTEX
8
CUT
10
212.7205
20
128.5726
0
VERTEX
8
CUT
10
212.3419
20
128.2136
0
VERTEX
8
CUT
10
212.2554
20
128.1402
0
VERTEX
8
CUT
10
212.2223
20
128.1122
0
VERTEX
8
CUT
10
212.1667
20
128.0650
0
VERTEX
8
CUT
10
212.0373
20
127.9553
0
VERTEX
8
CUT
10
210.1826
20
126.9927
0
VERTEX
8
CUT
10
209.2925
20
126.6245
0
VERTEX
8
CUT
10
209.2177
20
126.5935
0
VERTEX
8
CUT
10
209.1834
20
126.5793
0
VERTEX
8
CUT
10
209.1777
20
126.5770
0
VERTEX
8
CUT
10
202.7940
20
124.9090
0
VERTEX
8
CUT
10
201.4176
20
124.2196
0
VERTEX
8
CUT
10
200.6997
20
123.4874
0
VERTEX
8
CUT
10
200.6698
20
123.4648
0
VERTEX
8
CUT
10
200.6586
20
123.4455
0
VERTEX
8
CUT
10
200.3991
20
123.1808
0
VERTEX
8
CUT
10
200.1487
20
122.6522
0
VERTEX
8
CUT
10
200.3255
20
122.1643
0
VERTEX
8
CUT
10
202.0713
20
120.1140
0
VERTEX
8
CUT
10
202.7594
20
118.8488
0
VERTEX
8
CUT
10
202.5150
20
117.6468
0
VERTEX
8
CUT
10
201.9739
20
117.0463
0
VERTEX
8
CUT
10
200.3232
20
115.9729
0
VERTEX
8
CUT
10
199.9496
20
115.8312
0
VERTEX
8
CUT
10
199.3110
20
115.6565
0
VERTEX
8
CUT
10
196.1574
20
115.3701
0
VERTEX
8
CUT
10
192.1433
20
115.9137
0
VERTEX
8
CUT
10
185.7428
20
117.6921
0
VERTEX
8
CUT
10
184.2623
20
117.8352
0
VERTEX
8
CUT
10
183.7083
20
117.6895
0
VERTEX
8
CUT
10
182.6699
20
116.7741
0
VERTEX
8
CUT
10
182.5828
20
116.3691
0
VERTEX
8
CUT
10
182.4555
20
116.1761
0
VERTEX
8
CUT
10
182.4684
20
115.8367
0
VERTEX
8
CUT
10
182.4087
20
115.5591
0
VERTEX
8
CUT
10
182.4883
20
115.3114
0
VERTEX
8
CUT
10
182.4893
20
115.2842
0
VERTEX
8
CUT
10
182.5537
20
115.1076
0
VERTEX
8
CUT
10
183.9334
20
110.8140
0
VERTEX
8
CUT
10
184.1492
20
109.1475
0
VERTEX
8
CUT
10
183.9073
20
107.8500
0
VERTEX
8
CUT
10
183.2659
20
106.9347
0
VERTEX
8
CUT
10
182.5083
20
106.5693
0
VERTEX
8
CUT
10
181.9812
20
106.5061
0
VERTEX
8
CUT
10
181.0966
20
106.6227
0
VERTEX
8
CUT
10
179.7205
20
107.3538
0
VERTEX
8
CUT
10
178.3013
20
108.6809
0
VERTEX
8
CUT
10
176.9093
20
110.5882
0
VERTEX
8
CUT
10
175.6209
20
113.5868
0
VERTEX
8
CUT
10
173.7278
20
119.1153
0
VERTEX
8
CUT
10
172.9383
20
120.9291
0
VERTEX
8
CUT
10
172.0590
20
122.2860
0
VERTEX
8
CUT
10
170.9234
20
123.3961
0
VERTEX
8
CUT
10
170.7609
20
123.5891
0
VERTEX
8
CUT
10
170.6613
20
123.6524
0
VERTEX
8
CUT
10
170.5595
20
123.7518
0
VERTEX
8
CUT
10
170.3374
20
123.8583
0
VERTEX
8
CUT
10
169.8463
20
124.1706
0
VERTEX
8
CUT
10
169.4636
20
124.2171
0
VERTEX
8
CUT
10
169.2678
20
124.1279
0
VERTEX
8
CUT
10
169.1949
20
124.1341
0
VERTEX
8
CUT
10
169.1747
20
124.1142
0
VERTEX
8
CUT
10
168.8670
20
124.0844
0
VERTEX
8
CUT
10
168.3917
20
123.3942
0
VERTEX
8
CUT
10
168.3845
20
123.3384
0
VERTEX
8
CUT
10
168.3565
20
123.3109
0
VERTEX
8
CUT
10
168.3494
20
123.1801
0
VERTEX
8
CUT
10
168.3132
20
123.1329
0
VERTEX
8
CUT
10
168.3310
20
122.9244
0
VERTEX
8
CUT
10
168.2717
20
122.4654
0
VERTEX
8
CUT
10
168.7239
20
118.3271
0
VERTEX
8
CUT
10
168.7755
20
117.7234
0
VERTEX
8
CUT
10
168.7751
20
117.5426
0
VERTEX
8
CUT
10
168.5987
20
117.1105
0
VERTEX
8
CUT
10
167.1492
20
115.7726
0
VERTEX
8
CUT
10
166.8926
20
115.2476
0
VERTEX
8
CUT
10
166.8461
20
115.2046
0
VERTEX
8
CUT
10
166.8291
20
115.1178
0
VERTEX
8
CUT
10
166.5967
20
114.6423
0
VERTEX
8
CUT
10
166.4975
20
113.7991
0
VERTEX
8
CUT
10
166.7937
20
111.4629
0
VERTEX
8
CUT
10
168.5644
20
103.8148
0
VERTEX
8
CUT
10
168.6124
20
103.5267
0
VERTEX
8
CUT
10
168.6462
20
103.3240
0
VERTEX
8
CUT
10
168.7078
20
102.9544
0
VERTEX
8
CUT
10
168.7914
20
102.4528
0
VERTEX
8
CUT
10
168.9017
20
101.5639
0
VERTEX
8
CUT
10
168.9318
20
97.4100
0
VERTEX
8
CUT
10
168.8490
20
96.8141
0
VERTEX
8
CUT
10
168.7652
20
96.4114
0
VERTEX
8
CUT
10
168.3308
20
95.5612
0
VERTEX
8
CUT
10
167.6358
20
94.8637
0
VERTEX
8
CUT
10
166.8296
20
94.5585
0
VERTEX
8
CUT
10
166.3700
20
94.6608
0
VERTEX
8
CUT
10
165.9148
20
94.8357
0
VERTEX
8
CUT
10
165.6824
20
94.9893
0
VERTEX
8
CUT
10
165.0425
20
95.5127
0
VERTEX
8
CUT
10
163.9530
20
96.8142
0
VERTEX
8
CUT
10
163.9166
20
96.8714
0
VERTEX
8
CUT
10
162.7495
20
99.2894
0
VERTEX
8
CUT
10
159.9361
20
106.4223
0
VERTEX
8
CUT
10
159.7432
20
106.7573
0
VERTEX
8
CUT
10
158.7842
20
109.1510
0
VERTEX
8
CUT
10
158.1724
20
111.7078
0
VERTEX
8
CUT
10
158.0175
20
113.1763
0
VERTEX
8
CUT
10
157.9545
20
119.8263
0
VERTEX
8
CUT
10
157.5066
20
121.4481
0
VERTEX
8
CUT
10
157.0876
20
121.8990
0
VERTEX
8
CUT
10
156.5687
20
122.0608
0
VERTEX
8
CUT
10
155.7235
20
121.7615
0
VERTEX
8
CUT
10
155.2094
20
121.2443
0
VERTEX
8
CUT
10
154.4588
20
119.7571
0
VERTEX
8
CUT
10
153.3149
20
114.8896
0
VERTEX
8
CUT
10
152.5374
20
113.7740
0
VERTEX
8
CUT
10
152.1101
20
113.5959
0
VERTEX
8
CUT
10
151.6754
20
113.6890
0
VERTEX
8
CUT
10
150.2540
20
115.2236
0
VERTEX
8
CUT
10
149.7903
20
115.4484
0
VERTEX
8
CUT
10
149.3754
20
115.1607
0
VERTEX
8
CUT
10
148.6128
20
114.0017
0
VERTEX
8
CUT
10
148.0759
20
113.6393
0
VERTEX
8
CUT
10
147.7406
20
113.6259
0
VERTEX
8
CUT
10
146.8646
20
114.2521
0
VERTEX
8
CUT
10
146.2159
20
115.2207
0
VERTEX
8
CUT
10
145.2948
20
119.5741
0
VERTEX
8
CUT
10
144.5919
20
121.3263
0
VERTEX
8
CUT
10
144.0909
20
121.9187
0
VERTEX
8
CUT
10
143.2654
20
122.1054
0
VERTEX
8
CUT
10
142.3377
20
121.3805
0
VERTEX
8
CUT
10
141.8811
20
120.5919
0
VERTEX
8
CUT
10
141.9830
20
114.5032
0
VERTEX
8
CUT
10
141.7371
20
112.1281
0
VERTEX
8
CUT
10
141.1580
20
109.8787
0
VERTEX
8
CUT
10
136.4478
20
98.0070
0
VERTEX
8
CUT
10
136.4097
20
97.9367
0
VERTEX
8
CUT
10
136.3694
20
97.8623
0
VERTEX
8
CUT
10
136.3253
20
97.7811
0
VERTEX
8
CUT
10
136.0771
20
97.3238
0
VERTEX
8
CUT
10
135.1403
20
95.7939
0
VERTEX
8
CUT
10
134.3679
20
95.0725
0
VERTEX
8
CUT
10
134.0148
20
94.8670
0
VERTEX
8
CUT
10
134.0120
20
94.8653
0
VERTEX
8
CUT
10
133.9823
20
94.8481
0
VERTEX
8
CUT
10
133.5882
20
94.6187
0
VERTEX
8
CUT
10
133.4227
20
94.5679
0
VERTEX
8
CUT
10
132.8864
20
94.6048
0
VERTEX
8
CUT
10
132.5478
20
94.6652
0
VERTEX
8
CUT
10
131.8801
20
95.0529
0
VERTEX
8
CUT
10
131.8478
20
95.0762
0
VERTEX
8
CUT
10
131.8332
20
95.0868
0
VERTEX
8
CUT
10
131.8124
20
95.1017
0
VERTEX
8
CUT
10
131.7051
20
95.1792
0
VERTEX
8
CUT
10
131.6368
20
95.2491
0
VERTEX
8
CUT
10
131.4551
20
95.4885
0
VERTEX
8
CUT
10
131.4279
20
95.5245
0
VERTEX
8
CUT
10
131.3417
20
95.6380
0
VERTEX
8
CUT
10
131.2412
20
95.7705
0
VERTEX
8
CUT
10
130.7004
20
97.5116
0
VERTEX
8
CUT
10
130.6505
20
99.1785
0
VERTEX
8
CUT
10
130.6723
20
99.8732
0
VERTEX
8
CUT
10
130.9144
20
102.1255
0
VERTEX
8
CUT
10
130.9157
20
102.1340
0
VERTEX
8
CUT
10
130.9192
20
102.1552
0
VERTEX
8
CUT
10
130.9511
20
102.3512
0
VERTEX
8
CUT
10
131.0955
20
103.2382
0
VERTEX
8
CUT
10
132.5188
20
109.4690
0
VERTEX
8
CUT
10
132.8636
20
111.4984
0
VERTEX
8
CUT
10
133.0241
20
112.2044
0
VERTEX
8
CUT
10
133.0388
20
112.5295
0
VERTEX
8
CUT
10
133.2338
20
113.6770
0
VERTEX
8
CUT
10
132.9786
20
115.2211
0
VERTEX
8
CUT
10
132.7425
20
115.4854
0
VERTEX
8
CUT
10
132.7004
20
115.6236
0
VERTEX
8
CUT
10
132.4356
20
115.8290
0
VERTEX
8
CUT
10
131.5204
20
116.8536
0
VERTEX
8
CUT
10
131.1653
20
117.9012
0
VERTEX
8
CUT
10
131.1583
20
119.3070
0
VERTEX
8
CUT
10
131.5778
20
122.6097
0
VERTEX
8
CUT
10
131.3907
20
123.5327
0
VERTEX
8
CUT
10
131.0050
20
124.0338
0
VERTEX
8
CUT
10
130.8415
20
124.0818
0
VERTEX
8
CUT
10
130.7964
20
124.1230
0
VERTEX
8
CUT
10
130.6978
20
124.1239
0
VERTEX
8
CUT
10
130.3717
20
124.2195
0
VERTEX
8
CUT
10
130.3488
20
124.2309
0
VERTEX
8
CUT
10
130.3422
20
124.2281
0
VERTEX
8
CUT
10
130.3283
20
124.2322
0
VERTEX
8
CUT
10
129.6176
20
124.0716
0
VERTEX
8
CUT
10
128.8798
20
123.4938
0
VERTEX
8
CUT
10
128.8049
20
123.4556
0
VERTEX
8
CUT
10
128.7684
20
123.4065
0
VERTEX
8
CUT
10
128.3006
20
123.0402
0
VERTEX
8
CUT
10
127.5620
20
122.0591
0
VERTEX
8
CUT
10
126.2023
20
119.4523
0
VERTEX
8
CUT
10
125.8834
20
118.5587
0
VERTEX
8
CUT
10
125.6474
20
118.0213
0
VERTEX
8
CUT
10
125.6595
20
117.9311
0
VERTEX
8
CUT
10
123.7683
20
112.6315
0
VERTEX
8
CUT
10
121.9855
20
109.2070
0
VERTEX
8
CUT
10
121.3050
20
108.4079
0
VERTEX
8
CUT
10
119.8562
20
107.2611
0
VERTEX
8
CUT
10
118.7441
20
106.7189
0
VERTEX
8
CUT
10
117.7869
20
106.5281
0
VERTEX
8
CUT
10
117.7828
20
106.5286
0
VERTEX
8
CUT
10
117.7813
20
106.5288
0
VERTEX
8
CUT
10
117.7798
20
106.5290
0
VERTEX
8
CUT
10
117.7740
20
106.5298
0
VERTEX
8
CUT
10
116.9025
20
106.7283
0
VERTEX
8
CUT
10
116.1429
20
107.3210
0
VERTEX
8
CUT
10
115.6297
20
108.2703
0
VERTEX
8
CUT
10
115.5844
20
108.5395
0
VERTEX
8
CUT
10
115.5860
20
109.3153
0
VERTEX
8
CUT
10
115.8943
20
111.1657
0
VERTEX
8
CUT
10
117.2917
20
115.1842
0
VERTEX
8
CUT
10
117.4098
20
115.5180
0
VERTEX
8
CUT
10
117.4096
20
115.5232
0
VERTEX
8
CUT
10
117.4639
20
115.6794
0
VERTEX
8
CUT
10
117.3881
20
115.9714
0
VERTEX
8
CUT
10
117.3685
20
116.3789
0
VERTEX
8
CUT
10
117.2361
20
116.5566
0
VERTEX
8
CUT
10
117.2208
20
116.6154
0
VERTEX
8
CUT
10
117.1552
20
116.6651
0
VERTEX
8
CUT
10
116.8522
20
117.0717
0
VERTEX
8
CUT
10
115.6310
20
117.7062
0
VERTEX
8
CUT
10
114.5436
20
117.7737
0
VERTEX
8
CUT
10
108.2142
20
116.0634
0
VERTEX
8
CUT
10
104.1865
20
115.4020
0
VERTEX
8
CUT
10
102.3689
20
115.3719
0
VERTEX
8
CUT
10
99.7044
20
115.8770
0
VERTEX
8
CUT
10
99.6977
20
115.8791
0
VERTEX
8
CUT
10
99.6814
20
115.8842
0
VERTEX
8
CUT
10
99.6167
20
115.9045
0
VERTEX
8
CUT
10
99.3824
20
115.9779
0
VERTEX
8
CUT
10
98.3513
20
116.5164
0
VERTEX
8
CUT
10
97.5136
20
117.3174
0
VERTEX
8
CUT
10
96.9896
20
118.1226
0
VERTEX
8
CUT
10
96.9269
20
118.4769
0
VERTEX
8
CUT
10
97.0576
20
119.0407
0
VERTEX
8
CUT
10
97.3040
20
119.7307
0
VERTEX
8
CUT
10
97.6269
20
120.1283
0
VERTEX
8
CUT
10
97.6647
20
120.1749
0
VERTEX
8
CUT
10
97.7239
20
120.2478
0
VERTEX
8
CUT
10
97.9100
20
120.4770
0
VERTEX
8
CUT
10
99.0041
20
121.6780
0
VERTEX
8
CUT
10
99.3237
20
122.2182
0
VERTEX
8
CUT
10
99.4409
20
122.3626
0
VERTEX
8
CUT
10
99.4358
20
122.4077
0
VERTEX
8
CUT
10
99.5159
20
122.5430
0
VERTEX
8
CUT
10
99.2913
20
123.1477
0
VERTEX
8
CUT
10
98.7975
20
123.7300
0
VERTEX
8
CUT
10
97.4364
20
124.6711
0
VERTEX
8
CUT
10
90.0217
20
126.7442
0
VERTEX
8
CUT
10
87.8606
20
127.7524
0
VERTEX
8
CUT
10
86.9199
20
128.5492
0
VERTEX
8
CUT
10
86.1420
20
129.9964
0
VERTEX
8
CUT
10
86.0223
20
131.0011
0
VERTEX
8
CUT
10
86.2127
20
131.8405
0
VERTEX
8
CUT
10
86.6928
20
132.5811
0
VERTEX
8
CUT
10
87.4708
20
133.2476
0
VERTEX
8
CUT
10
89.6209
20
133.9811
0
VERTEX
8
CUT
10
92.0068
20
134.0142
0
VERTEX
8
CUT
10
93.8947
20
133.6571
0
VERTEX
8
CUT
10
93.9386
20
133.6409
0
SEQEND
0
POLYLINE
8
CUT
66
1
70
1
10
0.0
20
0.0
30
0.0
0
VERTEX
8
CUT
10
175.3084
20
204.4514
0
VERTEX
8
CUT
10
174.3761
20
204.3913
0
VERTEX
8
CUT
10
174.0452
20
204.0905
0
VERTEX
8
CUT
10
174.1956
20
203.6995
0
VERTEX
8
CUT
10
175.0377
20
203.5491
0
VERTEX
8
CUT
10
176.7520
20
203.8198
0
VERTEX
8
CUT
10
176.4513
20
204.1807
0
SEQEND
0
POLYLINE
8
CUT
66
1
70
1
10
0.0
20
0.0
30
0.0
0
VERTEX
8
CUT
10
142.5845
20
177.7811
0
VERTEX
8
CUT
10
142.4569
20
177.6884
0
VERTEX
8
CUT
10
140.5106
20
176.4590
0
VERTEX
8
CUT
10
139.8269
20
176.0841
0
VERTEX
8
CUT
10
139.3876
20
175.7496
0
VERTEX
8
CUT
10
138.7917
20
175.3732
0
VERTEX
8
CUT
10
137.6482
20
174.3250
0
VERTEX
8
CUT
10
137.0848
20
172.5754
0
VERTEX
8
CUT
10
137.2497
20
171.4147
0
VERTEX
8
CUT
10
137.8015
20
170.5534
0
VERTEX
8
CUT
10
139.1691
20
169.3071
0
VERTEX
8
CUT
10
140.7531
20
168.4144
0
VERTEX
8
CUT
10
141.9833
20
168.0593
0
VERTEX
8
CUT
10
142.7399
20
168.0923
0
VERTEX
8
CUT
10
142.7520
20
168.0904
0
VERTEX
8
CUT
10
148.5578
20
168.3302
0
VERTEX
8
CUT
10
157.0039
20
168.1807
0
VERTEX
8
CUT
10
157.0084
20
168.1813
0
VERTEX
8
CUT
10
157.0370
20
168.1807
0
VERTEX
8
CUT
10
158.6419
20
168.3213
0
VERTEX
8
CUT
10
159.9180
20
168.8116
0
VERTEX
8
CUT
10
161.7135
20
170.1626
0
VERTEX
8
CUT
10
162.4844
20
171.3360
0
VERTEX
8
CUT
10
162.7596
20
172.4398
0
VERTEX
8
CUT
10
162.2893
20
173.8985
0
VERTEX
8
CUT
10
161.2302
20
175.1604
0
VERTEX
8
CUT
10
158.4294
20
176.9460
0
VERTEX
8
CUT
10
157.3116
20
177.7281
0
VERTEX
8
CUT
10
157.0397
20
177.9183
0
VERTEX
8
CUT
10
156.8938
20
178.0204
0
VERTEX
8
CUT
10
156.5468
20
178.2632
0
VERTEX
8
CUT
10
156.2959
20
178.4836
0
VERTEX
8
CUT
10
156.2842
20
178.4961
0
VERTEX
8
CUT
10
156.2565
20
178.5257
0
VERTEX
8
CUT
10
156.2378
20
178.5456
0
VERTEX
8
CUT
10
155.8693
20
178.9393
0
VERTEX
8
CUT
10
154.2493
20
181.4812
0
VERTEX
8
CUT
10
151.5081
20
184.8578
0
VERTEX
8
CUT
10
151.0338
20
185.8069
0
VERTEX
8
CUT
10
151.0176
20
185.8669
0
VERTEX
8
CUT
10
151.0080
20
185.9022
0
VERTEX
8
CUT
10
150.9966
20
185.9444
0
VERTEX
8
CUT
10
150.9422
20
186.1450
0
VERTEX
8
CUT
10
150.6855
20
187.6198
0
VERTEX
8
CUT
10
150.7115
20
189.1593
0
VERTEX
8
CUT
10
150.7979
20
190.2411
0
VERTEX
8
CUT
10
151.5421
20
192.3950
0
VERTEX
8
CUT
10
152.8076
20
194.2107
0
VERTEX
8
CUT
10
152.8127
20
194.5747
0
VERTEX
8
CUT
10
152.4393
20
194.7862
0
VERTEX
8
CUT
10
149.5631
20
194.3472
0
VERTEX
8
CUT
10
147.4330
20
194.8143
0
VERTEX
8
CUT
10
147.1402
20
194.6498
0
VERTEX
8
CUT
10
147.0842
20
194.3185
0
VERTEX
8
CUT
10
148.1993
20
192.5479
0
VERTEX
8
CUT
10
149.0746
20
189.7104
0
VERTEX
8
CUT
10
149.2008
20
188.4256
0
VERTEX
8
CUT
10
148.8497
20
186.1624
0
VERTEX
8
CUT
10
147.7895
20
184.1937
0
VERTEX
8
CUT
10
145.7757
20
181.8773
0
VERTEX
8
CUT
10
144.0310
20
179.0008
0
VERTEX
8
CUT
10
144.0130
20
178.9743
0
VERTEX
8
CUT
10
144.0054
20
178.9632
0
VERTEX
8
CUT
10
143.9658
20
178.9046
0
VERTEX
8
CUT
10
143.8798
20
178.7778
0
VERTEX
8
CUT
10
143.1853
20
178.2179
0
VERTEX
8
CUT
10
142.8587
20
177.9805
0
VERTEX
8
CUT
10
142.6817
20
177.8518
0
SEQEND
0
ENDSEC
0
EOF
