0
SECTION
2
HEADER
9
$ACADVER
1
AC1009
9
$INSUNITS
70
4
0
ENDSEC
0
SECTION
2
TABLES
0
TABLE
2
LAYER
70
1
0
LAYER
2
CUT
70
0
62
7
6
CONTINUOUS
0
ENDTAB
0
ENDSEC
0
SECTION
2
ENTITIES
0
POLYLINE
8
CUT
66
1
70
1
10
0.0
20
0.0
30
0.0
0
VERTEX
8
CUT
10
150.8586
20
186.9272
0
VERTEX
8
CUT
10
150.7066
20
188.3218
0
VERTEX
8
CUT
10
150.7566
20
189.0042
0
VERTEX
8
CUT
10
151.0498
20
190.6473
0
VERTEX
8
CUT
10
151.1271
20
190.8692
0
VERTEX
8
CUT
10
151.1838
20
191.0321
0
VERTEX
8
CUT
10
151.2207
20
191.1380
0
VERTEX
8
CUT
10
151.2734
20
191.2893
0
VERTEX
8
CUT
10
152.3897
20
193.3685
0
VERTEX
8
CUT
10
154.4612
20
195.6875
0
VERTEX
8
CUT
10
155.2091
20
196.2984
0
VERTEX
8
CUT
10
155.8940
20
196.8417
0
VERTEX
8
CUT
10
159.0425
20
198.8822
0
VERTEX
8
CUT
10
162.6919
20
200.7677
0
VERTEX
8
CUT
10
168.1404
20
202.7545
0
VERTEX
8
CUT
10
171.6643
20
203.5005
0
VERTEX
8
CUT
10
171.8453
20
203.5183
0
VERTEX
8
CUT
10
175.8849
20
203.5184
0
VERTEX
8
CUT
10
177.5599
20
203.2765
0
VERTEX
8
CUT
10
178.6087
20
202.9396
0
VERTEX
8
CUT
10
178.8754
20
202.8005
0
VERTEX
8
CUT
10
178.9920
20
202.7397
0
VERTEX
8
CUT
10
179.0477
20
202.7107
0
VERTEX
8
CUT
10
179.6929
20
202.3742
0
VERTEX
8
CUT
10
180.0745
20
202.0274
0
VERTEX
8
CUT
10
180.3714
20
201.7391
0
VERTEX
8
CUT
10
180.7447
20
201.0734
0
VERTEX
8
CUT
10
180.7657
20
200.1609
0
VERTEX
8
CUT
10
180.0438
20
199.0874
0
VERTEX
8
CUT
10
177.2724
20
197.3393
0
VERTEX
8
CUT
10
176.8582
20
197.1611
0
VERTEX
8
CUT
10
176.7597
20
197.0159
0
VERTEX
8
CUT
10
176.3924
20
196.7843
0
VERTEX
8
CUT
10
176.1025
20
196.3035
0
VERTEX
8
CUT
10
176.3018
20
195.9124
0
VERTEX
8
CUT
10
177.4988
20
195.5183
0
VERTEX
8
CUT
10
183.8186
20
196.1499
0
VERTEX
8
CUT
10
185.1100
20
196.1784
0
VERTEX
8
CUT
10
187.1600
20
195.9069
0
VERTEX
8
CUT
10
188.0543
20
195.5749
0
VERTEX
8
CUT
10
189.2725
20
194.6921
0
VERTEX
8
CUT
10
189.9310
20
193.8100
0
VERTEX
8
CUT
10
190.1640
20
193.0042
0
VERTEX
8
CUT
10
189.9306
20
192.1746
0
VERTEX
8
CUT
10
189.3084
20
191.3897
0
VERTEX
8
CUT
10
188.1633
20
190.6024
0
VERTEX
8
CUT
10
187.5553
20
190.3314
0
VERTEX
8
CUT
10
185.8489
20
189.8703
0
VERTEX
8
CUT
10
181.0980
20
189.1465
0
VERTEX
8
CUT
10
180.0816
20
188.5887
0
VERTEX
8
CUT
10
179.8560
20
188.1690
0
VERTEX
8
CUT
10
179.9100
20
187.8411
0
VERTEX
8
CUT
10
180.3980
20
187.3526
0
VERTEX
8
CUT
10
180.8507
20
187.1875
0
VERTEX
8
CUT
10
185.9064
20
186.9166
0
VERTEX
8
CUT
10
188.1302
20
186.3034
0
VERTEX
8
CUT
10
188.6977
20
185.9452
0
VERTEX
8
CUT
10
189.2497
20
185.2476
0
VERTEX
8
CUT
10
189.3914
20
184.9613
0
VERTEX
8
CUT
10
189.5557
20
184.4614
0
VERTEX
8
CUT
10
189.5558
20
184.4544
0
VERTEX
8
CUT
10
189.5558
20
184.4436
0
VERTEX
8
CUT
10
189.5559
20
184.4151
0
VERTEX
8
CUT
10
189.5559
20
184.4072
0
VERTEX
8
CUT
10
189.4649
20
183.8212
0
VERTEX
8
CUT
10
188.5660
20
182.6327
0
VERTEX
8
CUT
10
187.6215
20
182.0913
0
VERTEX
8
CUT
10
187.0673
20
181.8445
0
VERTEX
8
CUT
10
185.1145
20
181.5045
0
VERTEX
8
CUT
10
178.7989
20
181.1499
0
VERTEX
8
CUT
10
177.5241
20
180.5797
0
VERTEX
8
CUT
10
177.4557
20
180.1642
0
VERTEX
8
CUT
10
177.8224
20
179.7207
0
VERTEX
8
CUT
10
181.4947
20
178.1791
0
VERTEX
8
CUT
10
182.7821
20
177.1210
0
VERTEX
8
CUT
10
183.0905
20
176.6248
0
VERTEX
8
CUT
10
183.2135
20
175.7514
0
VERTEX
8
CUT
10
183.0131
20
175.2578
0
VERTEX
8
CUT
10
182.3250
20
174.6051
0
VERTEX
8
CUT
10
182.2324
20
174.5413
0
VERTEX
8
CUT
10
181.6172
20
174.2841
0
VERTEX
8
CUT
10
180.5538
20
174.0501
0
VERTEX
8
CUT
10
178.4075
20
174.0701
0
VERTEX
8
CUT
10
175.7039
20
174.2861
0
VERTEX
8
CUT
10
173.7103
20
174.1432
0
VERTEX
8
CUT
10
173.3132
20
173.9362
0
VERTEX
8
CUT
10
173.3072
20
173.9353
0
VERTEX
8
CUT
10
173.2836
20
173.9207
0
VERTEX
8
CUT
10
172.5587
20
173.5427
0
VERTEX
8
CUT
10
172.4051
20
173.3778
0
VERTEX
8
CUT
10
172.3476
20
173.3423
0
VERTEX
8
CUT
10
172.1891
20
173.1459
0
VERTEX
8
CUT
10
171.9330
20
172.8710
0
VERTEX
8
CUT
10
171.9109
20
172.8012
0
VERTEX
8
CUT
10
171.8142
20
172.6814
0
VERTEX
8
CUT
10
171.5345
20
171.6133
0
VERTEX
8
CUT
10
171.2566
20
170.7365
0
VERTEX
8
CUT
10
170.6148
20
169.6939
0
VERTEX
8
CUT
10
170.4182
20
169.5306
0
VERTEX
8
CUT
10
170.1732
20
169.3652
0
VERTEX
8
CUT
10
169.3871
20
169.1219
0
VERTEX
8
CUT
10
169.0707
20
169.0535
0
VERTEX
8
CUT
10
166.8817
20
169.2668
0
VERTEX
8
CUT
10
165.4849
20
169.9559
0
VERTEX
8
CUT
10
163.9181
20
171.4546
0
VERTEX
8
CUT
10
162.8334
20
172.9055
0
VERTEX
8
CUT
10
162.4189
20
173.9566
0
VERTEX
8
CUT
10
161.4408
20
174.9513
0
VERTEX
8
CUT
10
161.4404
20
174.9520
0
VERTEX
8
CUT
10
161.4396
20
174.9525
0
VERTEX
8
CUT
10
161.0858
20
175.3123
0
VERTEX
8
CUT
10
157.8071
20
177.5333
0
VERTEX
8
CUT
10
156.2594
20
178.6328
0
VERTEX
8
CUT
10
155.3120
20
179.8795
0
VERTEX
8
CUT
10
154.9434
20
180.7377
0
VERTEX
8
CUT
10
152.7784
20
183.2931
0
VERTEX
8
CUT
10
152.2075
20
183.9962
0
VERTEX
8
CUT
10
151.3589
20
185.3857
0
SEQEND
0
POLYLINE
8
CUT
66
1
70
1
10
0.0
20
0.0
30
0.0
0
VERTEX
8
CUT
10
122.4098
20
197.6409
0
VERTEX
8
CUT
10
119.6158
20
199.2166
0
VERTEX
8
CUT
10
118.8684
20
200.3871
0
VERTEX
8
CUT
10
118.9224
20
201.0341
0
VERTEX
8
CUT
10
119.2605
20
201.6925
0
VERTEX
8
CUT
10
120.6347
20
202.7225
0
VERTEX
8
CUT
10
120.6474
20
202.7291
0
VERTEX
8
CUT
10
120.6663
20
202.7390
0
VERTEX
8
CUT
10
120.6935
20
202.7532
0
VERTEX
8
CUT
10
120.7126
20
202.7632
0
VERTEX
8
CUT
10
122.6957
20
203.3934
0
VERTEX
8
CUT
10
124.3007
20
203.5327
0
VERTEX
8
CUT
10
127.2421
20
203.4716
0
VERTEX
8
CUT
10
127.9906
20
203.4222
0
VERTEX
8
CUT
10
131.0167
20
202.8451
0
VERTEX
8
CUT
10
134.1589
20
201.9070
0
VERTEX
8
CUT
10
137.3007
20
200.6802
0
VERTEX
8
CUT
10
140.4514
20
199.0894
0
VERTEX
8
CUT
10
144.5208
20
196.3476
0
VERTEX
8
CUT
10
147.0568
20
193.8080
0
VERTEX
8
CUT
10
148.0084
20
192.3077
0
VERTEX
8
CUT
10
148.6438
20
190.9405
0
VERTEX
8
CUT
10
148.9912
20
188.5532
0
VERTEX
8
CUT
10
148.7187
20
186.2227
0
VERTEX
8
CUT
10
148.2249
20
185.0023
0
VERTEX
8
CUT
10
148.1676
20
184.8958
0
VERTEX
8
CUT
10
148.0655
20
184.7333
0
VERTEX
8
CUT
10
145.7225
20
181.8771
0
VERTEX
8
CUT
10
145.6880
20
181.8267
0
VERTEX
8
CUT
10
145.2135
20
181.2777
0
VERTEX
8
CUT
10
144.9308
20
180.7228
0
VERTEX
8
CUT
10
143.6257
20
178.8200
0
VERTEX
8
CUT
10
141.7488
20
177.3353
0
VERTEX
8
CUT
10
138.5353
20
175.2513
0
VERTEX
8
CUT
10
138.2601
20
175.0764
0
VERTEX
8
CUT
10
137.7122
20
174.4429
0
VERTEX
8
CUT
10
137.6527
20
174.3292
0
VERTEX
8
CUT
10
137.6482
20
174.3250
0
VERTEX
8
CUT
10
137.6445
20
174.3134
0
VERTEX
8
CUT
10
137.4079
20
173.8611
0
VERTEX
8
CUT
10
135.6937
20
171.2526
0
VERTEX
8
CUT
10
134.8993
20
170.4844
0
VERTEX
8
CUT
10
133.0687
20
169.3991
0
VERTEX
8
CUT
10
131.1821
20
169.0546
0
VERTEX
8
CUT
10
130.2768
20
169.1859
0
VERTEX
8
CUT
10
129.3271
20
169.6852
0
VERTEX
8
CUT
10
128.6004
20
170.8112
0
VERTEX
8
CUT
10
127.7422
20
172.9774
0
VERTEX
8
CUT
10
126.9841
20
173.6038
0
VERTEX
8
CUT
10
126.4393
20
174.1742
0
VERTEX
8
CUT
10
125.3332
20
174.1417
0
VERTEX
8
CUT
10
124.9050
20
174.2264
0
VERTEX
8
CUT
10
119.1761
20
173.9899
0
VERTEX
8
CUT
10
117.7783
20
174.3356
0
VERTEX
8
CUT
10
116.8570
20
175.0597
0
VERTEX
8
CUT
10
116.4826
20
176.1040
0
VERTEX
8
CUT
10
116.7165
20
176.9687
0
VERTEX
8
CUT
10
117.0248
20
177.3410
0
VERTEX
8
CUT
10
117.1465
20
177.4461
0
VERTEX
8
CUT
10
118.1765
20
178.1496
0
VERTEX
8
CUT
10
121.5386
20
179.5337
0
VERTEX
8
CUT
10
122.1975
20
180.1267
0
VERTEX
8
CUT
10
122.0568
20
180.6651
0
VERTEX
8
CUT
10
121.4650
20
180.9732
0
VERTEX
8
CUT
10
120.2007
20
181.2371
0
VERTEX
8
CUT
10
114.8000
20
181.4461
0
VERTEX
8
CUT
10
113.4035
20
181.6454
0
VERTEX
8
CUT
10
112.7272
20
181.8675
0
VERTEX
8
CUT
10
111.3757
20
182.4999
0
VERTEX
8
CUT
10
110.2696
20
183.7152
0
VERTEX
8
CUT
10
110.1400
20
184.4044
0
VERTEX
8
CUT
10
110.4970
20
185.4009
0
VERTEX
8
CUT
10
111.3841
20
186.2067
0
VERTEX
8
CUT
10
112.0250
20
186.5032
0
VERTEX
8
CUT
10
114.6748
20
187.0347
0
VERTEX
8
CUT
10
118.9028
20
187.1963
0
VERTEX
8
CUT
10
119.4022
20
187.4549
0
VERTEX
8
CUT
10
119.9087
20
188.0424
0
VERTEX
8
CUT
10
119.7138
20
188.5804
0
VERTEX
8
CUT
10
118.3064
20
189.1756
0
VERTEX
8
CUT
10
113.4389
20
190.0260
0
VERTEX
8
CUT
10
111.1391
20
190.8430
0
VERTEX
8
CUT
10
109.8031
20
192.0768
0
VERTEX
8
CUT
10
109.5059
20
192.8154
0
VERTEX
8
CUT
10
109.5727
20
193.4423
0
VERTEX
8
CUT
10
110.1529
20
194.4776
0
VERTEX
8
CUT
10
111.0842
20
195.2900
0
VERTEX
8
CUT
10
113.2168
20
195.9644
0
VERTEX
8
CUT
10
117.1482
20
196.0295
0
VERTEX
8
CUT
10
121.9496
20
195.5183
0
VERTEX
8
CUT
10
123.3003
20
195.7258
0
VERTEX
8
CUT
10
123.6028
20
196.3267
0
VERTEX
8
CUT
10
123.3152
20
196.9321
0
SEQEND
0
POLYLINE
8
CUT
66
1
70
1
10
0.0
20
0.0
30
0.0
0
VERTEX
8
CUT
10
140.2534
20
216.5961
0
VERTEX
8
CUT
10
140.6942
20
217.0297
0
VERTEX
8
CUT
10
140.7961
20
217.1300
0
VERTEX
8
CUT
10
141.0822
20
217.4113
0
VERTEX
8
CUT
10
141.4625
20
217.7282
0
VERTEX
8
CUT
10
142.4745
20
218.0174
0
VERTEX
8
CUT
10
142.7295
20
218.0381
0
VERTEX
8
CUT
10
142.7669
20
218.0256
0
VERTEX
8
CUT
10
144.0752
20
217.3922
0
VERTEX
8
CUT
10
144.7622
20
217.3609
0
VERTEX
8
CUT
10
144.8567
20
217.3294
0
VERTEX
8
CUT
10
145.0138
20
217.4577
0
VERTEX
8
CUT
10
145.5592
20
217.7264
0
VERTEX
8
CUT
10
148.1945
20
219.9554
0
VERTEX
8
CUT
10
149.8557
20
220.4472
0
VERTEX
8
CUT
10
150.7114
20
220.2894
0
VERTEX
8
CUT
10
152.0528
20
219.4699
0
VERTEX
8
CUT
10
152.7923
20
218.8073
0
VERTEX
8
CUT
10
154.0130
20
217.5021
0
VERTEX
8
CUT
10
154.6410
20
217.0968
0
VERTEX
8
CUT
10
154.6998
20
217.0978
0
VERTEX
8
CUT
10
154.7539
20
217.0493
0
VERTEX
8
CUT
10
154.8766
20
217.1009
0
VERTEX
8
CUT
10
155.2850
20
217.1079
0
VERTEX
8
CUT
10
157.1685
20
217.8337
0
VERTEX
8
CUT
10
157.6983
20
217.7907
0
VERTEX
8
CUT
10
158.6748
20
217.3460
0
VERTEX
8
CUT
10
161.8383
20
213.9792
0
VERTEX
8
CUT
10
164.8583
20
211.7682
0
VERTEX
8
CUT
10
165.8710
20
210.7132
0
VERTEX
8
CUT
10
166.4764
20
209.6806
0
VERTEX
8
CUT
10
166.7296
20
208.5341
0
VERTEX
8
CUT
10
166.5748
20
207.3031
0
VERTEX
8
CUT
10
166.0479
20
206.0945
0
VERTEX
8
CUT
10
165.1838
20
204.8291
0
VERTEX
8
CUT
10
163.0506
20
202.8548
0
VERTEX
8
CUT
10
159.3923
20
200.7102
0
VERTEX
8
CUT
10
156.6730
20
199.5022
0
VERTEX
8
CUT
10
154.6467
20
198.8181
0
VERTEX
8
CUT
10
154.0029
20
198.6586
0
VERTEX
8
CUT
10
150.7996
20
198.2867
0
VERTEX
8
CUT
10
147.1400
20
198.4378
0
VERTEX
8
CUT
10
144.8951
20
198.8312
0
VERTEX
8
CUT
10
143.1300
20
199.3886
0
VERTEX
8
CUT
10
141.3717
20
200.1175
0
VERTEX
8
CUT
10
138.0343
20
201.9516
0
VERTEX
8
CUT
10
136.5175
20
203.0054
0
VERTEX
8
CUT
10
134.2621
20
205.1105
0
VERTEX
8
CUT
10
133.1243
20
207.1537
0
VERTEX
8
CUT
10
132.9366
20
208.9692
0
VERTEX
8
CUT
10
133.6232
20
210.6122
0
VERTEX
8
CUT
10
134.1767
20
211.1544
0
VERTEX
8
CUT
10
134.8540
20
211.7124
0
VERTEX
8
CUT
10
135.1775
20
211.9789
0
VERTEX
8
CUT
10
135.4253
20
212.1830
0
VERTEX
8
CUT
10
136.1174
20
212.7532
0
VERTEX
8
CUT
10
137.7017
20
213.8474
0
VERTEX
8
CUT
10
139.5574
20
215.9115
0
SEQEND
0
POLYLINE
8
CUT
66
1
70
1
10
0.0
20
0.0
30
0.0
0
VERTEX
8
CUT
10
81.0687
20
187.4236
0
VERTEX
8
CUT
10
85.0128
20
187.6087
0
VERTEX
8
CUT
10
87.0429
20
188.0436
0
VERTEX
8
CUT
10
87.9483
20
188.6098
0
VERTEX
8
CUT
10
88.7379
20
189.6376
0
VERTEX
8
CUT
10
88.7953
20
189.9696
0
VERTEX
8
CUT
10
88.9882
20
190.3207
0
VERTEX
8
CUT
10
89.0410
20
191.0068
0
VERTEX
8
CUT
10
88.8246
20
191.5710
0
VERTEX
8
CUT
10
88.7128
20
191.8882
0
VERTEX
8
CUT
10
87.4200
20
193.3915
0
VERTEX
8
CUT
10
80.4568
20
197.8694
0
VERTEX
8
CUT
10
77.6674
20
200.2318
0
VERTEX
8
CUT
10
75.7889
20
202.8299
0
VERTEX
8
CUT
10
75.6036
20
203.2082
0
VERTEX
8
CUT
10
75.2226
20
204.5591
0
VERTEX
8
CUT
10
75.2512
20
204.8621
0
VERTEX
8
CUT
10
75.4084
20
205.6166
0
VERTEX
8
CUT
10
75.5690
20
206.0009
0
VERTEX
8
CUT
10
76.4576
20
206.9505
0
VERTEX
8
CUT
10
77.6880
20
207.3961
0
VERTEX
8
CUT
10
80.1126
20
206.9704
0
VERTEX
8
CUT
10
85.1663
20
204.7456
0
VERTEX
8
CUT
10
85.7209
20
204.7780
0
VERTEX
8
CUT
10
86.1479
20
205.1255
0
VERTEX
8
CUT
10
86.4804
20
205.6732
0
VERTEX
8
CUT
10
86.5168
20
206.2802
0
VERTEX
8
CUT
10
86.4103
20
206.5585
0
VERTEX
8
CUT
10
86.4168
20
206.6651
0
VERTEX
8
CUT
10
86.2532
20
206.9691
0
VERTEX
8
CUT
10
86.2380
20
207.0088
0
VERTEX
8
CUT
10
86.2165
20
207.0373
0
VERTEX
8
CUT
10
86.0202
20
207.4018
0
VERTEX
8
CUT
10
85.7436
20
207.6628
0
VERTEX
8
CUT
10
85.6399
20
207.8001
0
VERTEX
8
CUT
10
84.5732
20
208.7820
0
VERTEX
8
CUT
10
84.5196
20
208.8177
0
VERTEX
8
CUT
10
84.3075
20
209.0179
0
VERTEX
8
CUT
10
82.6957
20
210.0350
0
VERTEX
8
CUT
10
74.5611
20
215.4640
0
VERTEX
8
CUT
10
72.7780
20
216.9134
0
VERTEX
8
CUT
10
71.3128
20
218.4110
0
VERTEX
8
CUT
10
70.5266
20
219.4604
0
VERTEX
8
CUT
10
70.1607
20
220.0213
0
VERTEX
8
CUT
10
69.2727
20
221.9694
0
VERTEX
8
CUT
10
69.0270
20
222.8182
0
VERTEX
8
CUT
10
68.9071
20
225.1879
0
VERTEX
8
CUT
10
69.4736
20
227.3265
0
VERTEX
8
CUT
10
70.1768
20
228.4292
0
VERTEX
8
CUT
10
71.0687
20
229.1359
0
VERTEX
8
CUT
10
72.3361
20
229.5305
0
VERTEX
8
CUT
10
72.7506
20
229.5548
0
VERTEX
8
CUT
10
72.8522
20
229.5608
0
VERTEX
8
CUT
10
73.0595
20
229.5730
0
VERTEX
8
CUT
10
73.3042
20
229.5873
0
VERTEX
8
CUT
10
74.0733
20
229.3937
0
VERTEX
8
CUT
10
75.7013
20
228.5800
0
VERTEX
8
CUT
10
79.2306
20
225.7576
0
VERTEX
8
CUT
10
79.9375
20
225.2972
0
VERTEX
8
CUT
10
80.0142
20
225.2367
0
VERTEX
8
CUT
10
80.1360
20
225.1679
0
VERTEX
8
CUT
10
80.7850
20
224.7451
0
VERTEX
8
CUT
10
81.2200
20
224.5559
0
VERTEX
8
CUT
10
81.6410
20
224.3182
0
VERTEX
8
CUT
10
82.0015
20
224.2161
0
VERTEX
8
CUT
10
82.1899
20
224.1341
0
VERTEX
8
CUT
10
83.2562
20
223.9146
0
VERTEX
8
CUT
10
84.0013
20
224.1028
0
VERTEX
8
CUT
10
84.5946
20
224.5348
0
VERTEX
8
CUT
10
84.7317
20
224.5901
0
VERTEX
8
CUT
10
85.0824
20
224.8900
0
VERTEX
8
CUT
10
85.1550
20
224.9428
0
VERTEX
8
CUT
10
85.1779
20
224.9716
0
VERTEX
8
CUT
10
85.4806
20
225.2304
0
VERTEX
8
CUT
10
85.5494
20
225.4382
0
VERTEX
8
CUT
10
85.8317
20
225.7930
0
VERTEX
8
CUT
10
86.2537
20
227.3099
0
VERTEX
8
CUT
10
85.7584
20
229.8173
0
VERTEX
8
CUT
10
82.7779
20
237.0775
0
VERTEX
8
CUT
10
81.6932
20
240.4818
0
VERTEX
8
CUT
10
81.4622
20
242.4401
0
VERTEX
8
CUT
10
81.2936
20
244.0006
0
VERTEX
8
CUT
10
81.3703
20
247.3832
0
VERTEX
8
CUT
10
81.5763
20
248.7744
0
VERTEX
8
CUT
10
81.7159
20
249.3537
0
VERTEX
8
CUT
10
81.7609
20
249.5403
0
VERTEX
8
CUT
10
81.7805
20
249.6218
0
VERTEX
8
CUT
10
81.8012
20
249.7077
0
VERTEX
8
CUT
10
82.1721
20
250.9695
0
VERTEX
8
CUT
10
83.8074
20
254.7015
0
VERTEX
8
CUT
10
86.0203
20
258.0115
0
VERTEX
8
CUT
10
88.5046
20
260.5282
0
VERTEX
8
CUT
10
90.6071
20
261.7195
0
VERTEX
8
CUT
10
92.1111
20
262.0744
0
VERTEX
8
CUT
10
93.2540
20
261.8621
0
VERTEX
8
CUT
10
93.2542
20
261.8620
0
VERTEX
8
CUT
10
93.2559
20
261.8613
0
VERTEX
8
CUT
10
93.2679
20
261.8565
0
VERTEX
8
CUT
10
93.3991
20
261.8041
0
VERTEX
8
CUT
10
94.1287
20
261.1888
0
VERTEX
8
CUT
10
94.3217
20
260.9646
0
VERTEX
8
CUT
10
94.3493
20
260.9325
0
VERTEX
8
CUT
10
94.3832
20
260.8931
0
VERTEX
8
CUT
10
94.4117
20
260.8600
0
VERTEX
8
CUT
10
95.0668
20
259.3447
0
VERTEX
8
CUT
10
94.7664
20
250.0710
0
VERTEX
8
CUT
10
95.0026
20
247.0508
0
VERTEX
8
CUT
10
95.6033
20
244.7448
0
VERTEX
8
CUT
10
95.9370
20
244.0164
0
VERTEX
8
CUT
10
95.9503
20
243.9695
0
VERTEX
8
CUT
10
96.0490
20
243.7721
0
VERTEX
8
CUT
10
96.8903
20
241.9357
0
VERTEX
8
CUT
10
98.6999
20
239.4925
0
VERTEX
8
CUT
10
100.7109
20
237.7885
0
VERTEX
8
CUT
10
101.3931
20
237.4914
0
VERTEX
8
CUT
10
101.4680
20
237.4295
0
VERTEX
8
CUT
10
102.1581
20
237.1583
0
VERTEX
8
CUT
10
102.4729
20
237.0213
0
VERTEX
8
CUT
10
102.5119
20
237.0193
0
VERTEX
8
CUT
10
102.6634
20
236.9597
0
VERTEX
8
CUT
10
103.1383
20
236.9714
0
VERTEX
8
CUT
10
103.1546
20
236.9864
0
VERTEX
8
CUT
10
103.2850
20
236.9797
0
VERTEX
8
CUT
10
104.3166
20
237.8119
0
VERTEX
8
CUT
10
104.5375
20
238.7181
0
VERTEX
8
CUT
10
104.3041
20
240.1721
0
VERTEX
8
CUT
10
102.4973
20
246.9307
0
VERTEX
8
CUT
10
102.2573
20
249.3796
0
VERTEX
8
CUT
10
102.4371
20
251.3263
0
VERTEX
8
CUT
10
102.7140
20
252.1751
0
VERTEX
8
CUT
10
103.2487
20
253.2811
0
VERTEX
8
CUT
10
103.8089
20
253.9274
0
VERTEX
8
CUT
10
103.8767
20
253.9982
0
VERTEX
8
CUT
10
103.8821
20
254.0039
0
VERTEX
8
CUT
10
103.8837
20
254.0055
0
VERTEX
8
CUT
10
103.9070
20
254.0298
0
VERTEX
8
CUT
10
104.3043
20
254.2547
0
VERTEX
8
CUT
10
104.6846
20
254.4144
0
VERTEX
8
CUT
10
104.7920
20
254.4595
0
VERTEX
8
CUT
10
104.8049
20
254.4649
0
VERTEX
8
CUT
10
104.8071
20
254.4658
0
VERTEX
8
CUT
10
105.5440
20
254.5141
0
VERTEX
8
CUT
10
106.3594
20
254.2572
0
VERTEX
8
CUT
10
107.1972
20
253.6404
0
VERTEX
8
CUT
10
108.0144
20
252.7610
0
VERTEX
8
CUT
10
110.0673
20
249.7527
0
VERTEX
8
CUT
10
111.1836
20
248.7612
0
VERTEX
8
CUT
10
112.1592
20
248.5746
0
VERTEX
8
CUT
10
112.9652
20
249.1867
0
VERTEX
8
CUT
10
113.2659
20
249.8544
0
VERTEX
8
CUT
10
113.3514
20
250.9395
0
VERTEX
8
CUT
10
112.3314
20
257.8884
0
VERTEX
8
CUT
10
112.1966
20
260.5028
0
VERTEX
8
CUT
10
112.2105
20
260.9182
0
VERTEX
8
CUT
10
112.2332
20
261.5993
0
VERTEX
8
CUT
10
112.2380
20
261.7443
0
VERTEX
8
CUT
10
112.2434
20
261.9050
0
VERTEX
8
CUT
10
112.3039
20
262.9900
0
VERTEX
8
CUT
10
112.3291
20
263.1864
0
VERTEX
8
CUT
10
112.3298
20
263.1919
0
VERTEX
8
CUT
10
112.3391
20
263.2637
0
VERTEX
8
CUT
10
112.4768
20
264.3342
0
VERTEX
8
CUT
10
112.7846
20
266.0167
0
VERTEX
8
CUT
10
113.5268
20
268.3965
0
VERTEX
8
CUT
10
114.4715
20
270.5230
0
VERTEX
8
CUT
10
115.5416
20
272.3362
0
VERTEX
8
CUT
10
116.7486
20
273.8574
0
VERTEX
8
CUT
10
117.7610
20
274.7853
0
VERTEX
8
CUT
10
119.3113
20
275.6917
0
VERTEX
8
CUT
10
120.4696
20
275.8757
0
VERTEX
8
CUT
10
121.7023
20
275.4579
0
VERTEX
8
CUT
10
122.4814
20
274.7324
0
VERTEX
8
CUT
10
122.6054
20
274.5898
0
VERTEX
8
CUT
10
122.6383
20
274.5177
0
VERTEX
8
CUT
10
123.2773
20
272.3703
0
VERTEX
8
CUT
10
123.3981
20
264.8124
0
VERTEX
8
CUT
10
123.9078
20
261.4856
0
VERTEX
8
CUT
10
124.6691
20
259.8561
0
VERTEX
8
CUT
10
126.1931
20
258.0349
0
VERTEX
8
CUT
10
127.2942
20
257.6250
0
VERTEX
8
CUT
10
128.4129
20
257.8284
0
VERTEX
8
CUT
10
128.9939
20
258.3110
0
VERTEX
8
CUT
10
129.5731
20
259.2566
0
VERTEX
8
CUT
10
131.6197
20
265.2683
0
VERTEX
8
CUT
10
133.1115
20
267.8657
0
VERTEX
8
CUT
10
134.9737
20
269.7333
0
VERTEX
8
CUT
10
139.6315
20
272.2592
0
VERTEX
8
CUT
10
141.4977
20
274.2089
0
VERTEX
8
CUT
10
142.4143
20
275.8869
0
VERTEX
8
CUT
10
142.6715
20
276.3113
0
VERTEX
8
CUT
10
142.7207
20
276.4479
0
VERTEX
8
CUT
10
143.1212
20
277.1810
0
VERTEX
8
CUT
10
145.8949
20
284.7099
0
VERTEX
8
CUT
10
147.2476
20
286.8223
0
VERTEX
8
CUT
10
147.6570
20
287.1639
0
VERTEX
8
CUT
10
148.8641
20
287.8077
0
VERTEX
8
CUT
10
148.8727
20
287.8089
0
VERTEX
8
CUT
10
149.6640
20
287.8152
0
VERTEX
8
CUT
10
150.5547
20
287.5423
0
VERTEX
8
CUT
10
151.4904
20
286.8512
0
VERTEX
8
CUT
10
152.0718
20
285.9957
0
VERTEX
8
CUT
10
152.6368
20
284.5184
0
VERTEX
8
CUT
10
152.9084
20
283.8085
0
VERTEX
8
CUT
10
153.0306
20
283.4890
0
VERTEX
8
CUT
10
153.0997
20
283.3085
0
VERTEX
8
CUT
10
154.4909
20
277.8568
0
VERTEX
8
CUT
10
155.0605
20
276.4285
0
VERTEX
8
CUT
10
156.2303
20
274.7369
0
VERTEX
8
CUT
10
156.7367
20
274.4880
0
VERTEX
8
CUT
10
157.1754
20
274.5219
0
VERTEX
8
CUT
10
157.3930
20
274.7171
0
VERTEX
8
CUT
10
157.6624
20
274.8500
0
VERTEX
8
CUT
10
157.7193
20
275.0098
0
VERTEX
8
CUT
10
157.9303
20
275.1990
0
VERTEX
8
CUT
10
158.3347
20
278.5833
0
VERTEX
8
CUT
10
158.8408
20
279.4665
0
VERTEX
8
CUT
10
159.4567
20
279.9645
0
VERTEX
8
CUT
10
160.1912
20
280.1074
0
VERTEX
8
CUT
10
160.2775
20
280.1166
0
VERTEX
8
CUT
10
161.0443
20
279.7571
0
VERTEX
8
CUT
10
162.1778
20
278.8704
0
VERTEX
8
CUT
10
162.8370
20
278.0612
0
VERTEX
8
CUT
10
164.9372
20
274.2949
0
VERTEX
8
CUT
10
165.9124
20
271.5888
0
VERTEX
8
CUT
10
168.3384
20
259.8612
0
VERTEX
8
CUT
10
169.1354
20
258.5643
0
VERTEX
8
CUT
10
170.0433
20
257.7911
0
VERTEX
8
CUT
10
170.8726
20
257.5815
0
VERTEX
8
CUT
10
172.0749
20
258.1186
0
VERTEX
8
CUT
10
173.1233
20
259.2543
0
VERTEX
8
CUT
10
173.9477
20
260.7695
0
VERTEX
8
CUT
10
174.0869
20
261.6276
0
VERTEX
8
CUT
10
174.1521
20
261.7692
0
VERTEX
8
CUT
10
174.5271
20
263.4759
0
VERTEX
8
CUT
10
174.6467
20
265.3994
0
VERTEX
8
CUT
10
174.5920
20
268.4995
0
VERTEX
8
CUT
10
174.6773
20
272.3889
0
VERTEX
8
CUT
10
175.1636
20
274.2507
0
VERTEX
8
CUT
10
175.9690
20
275.2082
0
VERTEX
8
CUT
10
176.0748
20
275.3096
0
VERTEX
8
CUT
10
176.1392
20
275.3713
0
VERTEX
8
CUT
10
176.1607
20
275.3919
0
VERTEX
8
CUT
10
176.2072
20
275.4365
0
VERTEX
8
CUT
10
177.4529
20
275.8761
0
VERTEX
8
CUT
10
178.3941
20
275.7387
0
VERTEX
8
CUT
10
178.4321
20
275.7254
0
VERTEX
8
CUT
10
178.4690
20
275.7125
0
VERTEX
8
CUT
10
178.5398
20
275.6878
0
VERTEX
8
CUT
10
179.0786
20
275.4997
0
VERTEX
8
CUT
10
179.9473
20
275.0115
0
VERTEX
8
CUT
10
180.2948
20
274.7367
0
VERTEX
8
CUT
10
180.3627
20
274.6830
0
VERTEX
8
CUT
10
180.4109
20
274.6449
0
VERTEX
8
CUT
10
180.4239
20
274.6346
0
VERTEX
8
CUT
10
181.5714
20
273.5220
0
VERTEX
8
CUT
10
182.9106
20
271.7263
0
VERTEX
8
CUT
10
182.9181
20
271.7140
0
VERTEX
8
CUT
10
184.0459
20
269.5978
0
VERTEX
8
CUT
10
184.1461
20
269.3607
0
VERTEX
8
CUT
10
184.1537
20
269.3428
0
VERTEX
8
CUT
10
184.1678
20
269.3093
0
VERTEX
8
CUT
10
184.2174
20
269.1920
0
VERTEX
8
CUT
10
185.0782
20
266.8995
0
VERTEX
8
CUT
10
185.6189
20
264.4354
0
VERTEX
8
CUT
10
185.8935
20
261.5211
0
VERTEX
8
CUT
10
185.8641
20
258.4624
0
VERTEX
8
CUT
10
185.3211
20
253.3193
0
VERTEX
8
CUT
10
185.1122
20
251.7880
0
VERTEX
8
CUT
10
185.1210
20
251.4237
0
VERTEX
8
CUT
10
185.0833
20
251.0662
0
VERTEX
8
CUT
10
185.1396
20
250.6546
0
VERTEX
8
CUT
10
185.1427
20
250.5265
0
VERTEX
8
CUT
10
185.1676
20
250.4498
0
VERTEX
8
CUT
10
185.2559
20
249.8039
0
VERTEX
8
CUT
10
185.6636
20
248.9821
0
VERTEX
8
CUT
10
186.5218
20
248.2917
0
VERTEX
8
CUT
10
187.4587
20
248.7809
0
VERTEX
8
CUT
10
188.7706
20
250.2703
0
VERTEX
8
CUT
10
190.7588
20
253.3403
0
VERTEX
8
CUT
10
191.3881
20
253.9592
0
VERTEX
8
CUT
10
192.4734
20
254.4885
0
VERTEX
8
CUT
10
193.4616
20
254.5425
0
VERTEX
8
CUT
10
194.7145
20
253.9407
0
VERTEX
8
CUT
10
195.7442
20
252.3772
0
VERTEX
8
CUT
10
196.2072
20
250.0217
0
VERTEX
8
CUT
10
196.0897
20
247.1205
0
VERTEX
8
CUT
10
194.1384
20
238.9524
0
VERTEX
8
CUT
10
194.3281
20
238.0601
0
VERTEX
8
CUT
10
195.0877
20
237.2397
0
VERTEX
8
CUT
10
196.1124
20
236.9586
0
VERTEX
8
CUT
10
197.1463
20
237.1745
0
VERTEX
8
CUT
10
198.3736
20
237.8826
0
VERTEX
8
CUT
10
199.6275
20
238.9957
0
VERTEX
8
CUT
10
200.8383
20
240.4191
0
VERTEX
8
CUT
10
201.9321
20
242.1397
0
VERTEX
8
CUT
10
202.8198
20
244.0407
0
VERTEX
8
CUT
10
203.4705
20
246.0606
0
VERTEX
8
CUT
10
203.8499
20
248.8729
0
VERTEX
8
CUT
10
203.8211
20
252.4055
0
VERTEX
8
CUT
10
203.3995
20
258.2180
0
VERTEX
8
CUT
10
203.6127
20
259.6151
0
VERTEX
8
CUT
10
204.1353
20
260.6785
0
VERTEX
8
CUT
10
204.7353
20
261.1965
0
VERTEX
8
CUT
10
204.7570
20
261.2153
0
VERTEX
8
CUT
10
204.7582
20
261.2164
0
VERTEX
8
CUT
10
205.3405
20
261.7191
0
VERTEX
8
CUT
10
206.5161
20
262.0506
0
VERTEX
8
CUT
10
206.8155
20
262.0799
0
VERTEX
8
CUT
10
208.2123
20
261.7658
0
VERTEX
8
CUT
10
208.4183
20
261.7047
0
VERTEX
8
CUT
10
210.1942
20
260.5947
0
VERTEX
8
CUT
10
211.9840
20
258.9585
0
VERTEX
8
CUT
10
214.1704
20
256.1295
0
VERTEX
8
CUT
10
216.4314
20
251.6976
0
VERTEX
8
CUT
10
217.1410
20
249.2936
0
VERTEX
8
CUT
10
217.1870
20
249.0852
0
VERTEX
8
CUT
10
217.2006
20
249.0238
0
VERTEX
8
CUT
10
217.2077
20
248.9915
0
VERTEX
8
CUT
10
217.2694
20
248.7119
0
VERTEX
8
CUT
10
217.4130
20
245.0451
0
VERTEX
8
CUT
10
217.1977
20
240.8869
0
VERTEX
8
CUT
10
216.8061
20
239.1973
0
VERTEX
8
CUT
10
216.3706
20
237.8100
0
VERTEX
8
CUT
10
213.6135
20
230.8224
0
VERTEX
8
CUT
10
213.0205
20
228.8991
0
VERTEX
8
CUT
10
212.8449
20
227.4372
0
VERTEX
8
CUT
10
213.1523
20
226.2459
0
VERTEX
8
CUT
10
213.2386
20
225.7654
0
VERTEX
8
CUT
10
213.5400
20
225.4454
0
VERTEX
8
CUT
10
213.8600
20
224.9960
0
VERTEX
8
CUT
10
214.2215
20
224.7219
0
VERTEX
8
CUT
10
214.2977
20
224.6411
0
VERTEX
8
CUT
10
214.3839
20
224.5989
0
VERTEX
8
CUT
10
215.0386
20
224.1024
0
VERTEX
8
CUT
10
215.8096
20
223.9143
0
VERTEX
8
CUT
10
216.8778
20
224.1341
0
VERTEX
8
CUT
10
217.5199
20
224.4136
0
VERTEX
8
CUT
10
217.6159
20
224.4313
0
VERTEX
8
CUT
10
217.7799
20
224.5267
0
VERTEX
8
CUT
10
218.2905
20
224.7489
0
VERTEX
8
CUT
10
219.8076
20
225.6982
0
VERTEX
8
CUT
10
222.5949
20
227.9560
0
VERTEX
8
CUT
10
222.6812
20
228.0229
0
VERTEX
8
CUT
10
224.0065
20
228.8683
0
VERTEX
8
CUT
10
225.2784
20
229.3993
0
VERTEX
8
CUT
10
226.1683
20
229.5767
0
VERTEX
8
CUT
10
226.4416
20
229.6127
0
VERTEX
8
CUT
10
227.5724
20
229.3166
0
VERTEX
8
CUT
10
228.3235
20
228.8996
0
VERTEX
8
CUT
10
229.3588
20
227.9602
0
VERTEX
8
CUT
10
230.0610
20
226.7810
0
VERTEX
8
CUT
10
230.3899
20
225.5783
0
VERTEX
8
CUT
10
230.4537
20
224.5276
0
VERTEX
8
CUT
10
230.4647
20
223.9840
0
VERTEX
8
CUT
10
230.1873
20
222.4413
0
VERTEX
8
CUT
10
229.6037
20
220.8742
0
VERTEX
8
CUT
10
228.7281
20
219.3323
0
VERTEX
8
CUT
10
227.5061
20
217.8286
0
VERTEX
8
CUT
10
224.4713
20
215.0998
0
VERTEX
8
CUT
10
219.5377
20
211.9326
0
VERTEX
8
CUT
10
217.7303
20
210.7961
0
VERTEX
8
CUT
10
217.3904
20
210.5540
0
VERTEX
8
CUT
10
215.1584
20
209.1212
0
VERTEX
8
CUT
10
213.6524
20
207.6751
0
VERTEX
8
CUT
10
212.8638
20
206.2158
0
VERTEX
8
CUT
10
213.2046
20
205.2001
0
VERTEX
8
CUT
10
213.6767
20
204.8574
0
VERTEX
8
CUT
10
214.1106
20
204.8197
0
VERTEX
8
CUT
10
215.2744
20
205.1330
0
VERTEX
8
CUT
10
215.8761
20
205.3962
0
VERTEX
8
CUT
10
215.9112
20
205.4065
0
VERTEX
8
CUT
10
216.0747
20
205.4831
0
VERTEX
8
CUT
10
219.4052
20
206.9401
0
VERTEX
8
CUT
10
220.8103
20
207.3044
0
VERTEX
8
CUT
10
221.2609
20
207.3635
0
VERTEX
8
CUT
10
221.3310
20
207.3640
0
VERTEX
8
CUT
10
221.8632
20
207.3289
0
VERTEX
8
CUT
10
222.9379
20
206.9233
0
VERTEX
8
CUT
10
223.8228
20
206.0686
0
VERTEX
8
CUT
10
224.0521
20
205.6224
0
VERTEX
8
CUT
10
224.0870
20
205.3530
0
VERTEX
8
CUT
10
224.0980
20
205.2689
0
VERTEX
8
CUT
10
224.1030
20
205.2298
0
VERTEX
8
CUT
10
224.1047
20
205.2167
0
VERTEX
8
CUT
10
224.1491
20
204.6159
0
VERTEX
8
CUT
10
223.8833
20
203.2876
0
VERTEX
8
CUT
10
223.6962
20
202.8666
0
VERTEX
8
CUT
10
222.7354
20
201.1532
0
VERTEX
8
CUT
10
221.9148
20
200.2486
0
VERTEX
8
CUT
10
221.8701
20
200.2053
0
VERTEX
8
CUT
10
221.8619
20
200.1974
0
VERTEX
8
CUT
10
221.8394
20
200.1755
0
VERTEX
8
CUT
10
221.6582
20
199.9996
0
VERTEX
8
CUT
10
219.1500
20
197.8980
0
VERTEX
8
CUT
10
212.3953
20
193.5079
0
VERTEX
8
CUT
10
212.1759
20
193.2837
0
VERTEX
8
CUT
10
212.0581
20
193.2071
0
VERTEX
8
CUT
10
211.7101
20
192.8074
0
VERTEX
8
CUT
10
211.2371
20
192.3237
0
VERTEX
8
CUT
10
210.6973
20
191.2122
0
VERTEX
8
CUT
10
210.7045
20
190.9272
0
VERTEX
8
CUT
10
210.6792
20
190.8612
0
VERTEX
8
CUT
10
210.7201
20
190.3070
0
VERTEX
8
CUT
10
210.7283
20
189.9816
0
VERTEX
8
CUT
10
210.9522
20
189.2872
0
VERTEX
8
CUT
10
211.3595
20
188.7102
0
VERTEX
8
CUT
10
211.9606
20
188.2875
0
VERTEX
8
CUT
10
213.7128
20
187.7233
0
VERTEX
8
CUT
10
214.7972
20
187.6523
0
VERTEX
8
CUT
10
214.8614
20
187.6389
0
VERTEX
8
CUT
10
215.0236
20
187.6375
0
VERTEX
8
CUT
10
218.7931
20
187.3907
0
VERTEX
8
CUT
10
220.3049
20
186.9671
0
VERTEX
8
CUT
10
220.8334
20
186.6144
0
VERTEX
8
CUT
10
221.4133
20
185.4516
0
VERTEX
8
CUT
10
221.4683
20
184.7360
0
VERTEX
8
CUT
10
221.2047
20
183.9565
0
VERTEX
8
CUT
10
220.0884
20
182.7740
0
VERTEX
8
CUT
10
218.7279
20
182.0763
0
VERTEX
8
CUT
10
218.3796
20
181.9856
0
VERTEX
8
CUT
10
213.5001
20
181.8716
0
VERTEX
8
CUT
10
209.6368
20
181.9558
0
VERTEX
8
CUT
10
207.8556
20
181.7834
0
VERTEX
8
CUT
10
205.9810
20
181.1302
0
VERTEX
8
CUT
10
205.5469
20
180.8644
0
VERTEX
8
CUT
10
205.1116
20
180.6794
0
VERTEX
8
CUT
10
204.4492
20
180.1923
0
VERTEX
8
CUT
10
203.0595
20
179.3414
0
VERTEX
8
CUT
10
202.3509
20
179.1667
0
VERTEX
8
CUT
10
201.9122
20
179.5592
0
VERTEX
8
CUT
10
201.7066
20
181.0264
0
VERTEX
8
CUT
10
201.3244
20
181.7110
0
VERTEX
8
CUT
10
198.7169
20
183.7332
0
VERTEX
8
CUT
10
198.6602
20
183.7819
0
VERTEX
8
CUT
10
198.6367
20
183.8021
0
VERTEX
8
CUT
10
198.5968
20
183.8363
0
VERTEX
8
CUT
10
198.5347
20
183.8896
0
VERTEX
8
CUT
10
198.2618
20
184.4069
0
VERTEX
8
CUT
10
198.2902
20
184.9676
0
VERTEX
8
CUT
10
199.1421
20
186.1439
0
VERTEX
8
CUT
10
201.7732
20
187.7408
0
VERTEX
8
CUT
10
203.6019
20
189.1031
0
VERTEX
8
CUT
10
204.4496
20
190.3045
0
VERTEX
8
CUT
10
204.2925
20
191.1187
0
VERTEX
8
CUT
10
203.4139
20
191.8763
0
VERTEX
8
CUT
10
202.1949
20
192.2115
0
VERTEX
8
CUT
10
196.5825
20
191.1326
0
VERTEX
8
CUT
10
194.6279
20
191.1041
0
VERTEX
8
CUT
10
193.8829
20
191.2454
0
VERTEX
8
CUT
10
192.9249
20
191.8638
0
VERTEX
8
CUT
10
192.5430
20
192.9732
0
VERTEX
8
CUT
10
192.9246
20
193.9115
0
VERTEX
8
CUT
10
194.0797
20
194.7783
0
VERTEX
8
CUT
10
201.0538
20
197.4837
0
VERTEX
8
CUT
10
203.1524
20
198.6061
0
VERTEX
8
CUT
10
204.3563
20
200.0442
0
VERTEX
8
CUT
10
204.4616
20
200.7673
0
VERTEX
8
CUT
10
204.1903
20
201.3476
0
VERTEX
8
CUT
10
203.5595
20
201.9011
0
VERTEX
8
CUT
10
203.0676
20
202.0661
0
VERTEX
8
CUT
10
201.5386
20
202.0732
0
VERTEX
8
CUT
10
199.5437
20
201.5713
0
VERTEX
8
CUT
10
193.1313
20
199.1044
0
VERTEX
8
CUT
10
191.4271
20
198.8586
0
VERTEX
8
CUT
10
190.2928
20
199.1853
0
VERTEX
8
CUT
10
189.3357
20
200.4749
0
VERTEX
8
CUT
10
189.4875
20
201.3870
0
VERTEX
8
CUT
10
190.6267
20
202.6805
0
VERTEX
8
CUT
10
192.9610
20
204.5033
0
VERTEX
8
CUT
10
194.2509
20
205.7907
0
VERTEX
8
CUT
10
194.6282
20
206.5209
0
VERTEX
8
CUT
10
194.8062
20
206.7564
0
VERTEX
8
CUT
10
194.8209
20
206.8937
0
VERTEX
8
CUT
10
194.8220
20
206.8959
0
VERTEX
8
CUT
10
194.8214
20
206.8989
0
VERTEX
8
CUT
10
194.8514
20
207.1804
0
VERTEX
8
CUT
10
194.7392
20
207.3128
0
VERTEX
8
CUT
10
194.6380
20
207.8229
0
VERTEX
8
CUT
10
194.0451
20
208.4426
0
VERTEX
8
CUT
10
192.9972
20
208.6934
0
VERTEX
8
CUT
10
192.8533
20
208.7514
0
VERTEX
8
CUT
10
192.6157
20
208.6947
0
VERTEX
8
CUT
10
191.6892
20
208.6013
0
VERTEX
8
CUT
10
187.3299
20
207.5260
0
VERTEX
8
CUT
10
185.0620
20
207.4354
0
VERTEX
8
CUT
10
183.6015
20
207.8620
0
VERTEX
8
CUT
10
182.9711
20
208.4217
0
VERTEX
8
CUT
10
182.6193
20
209.4499
0
VERTEX
8
CUT
10
182.7881
20
210.3143
0
VERTEX
8
CUT
10
183.4182
20
211.1428
0
VERTEX
8
CUT
10
186.7409
20
213.6256
0
VERTEX
8
CUT
10
187.8507
20
214.8220
0
VERTEX
8
CUT
10
188.5122
20
216.4596
0
VERTEX
8
CUT
10
188.4334
20
216.9731
0
VERTEX
8
CUT
10
187.9859
20
217.6137
0
VERTEX
8
CUT
10
187.2067
20
218.2672
0
VERTEX
8
CUT
10
186.6759
20
218.8143
0
VERTEX
8
CUT
10
185.8042
20
218.9762
0
VERTEX
8
CUT
10
185.6832
20
218.9647
0
VERTEX
8
CUT
10
185.6012
20
218.9785
0
VERTEX
8
CUT
10
183.8772
20
218.8642
0
VERTEX
8
CUT
10
183.5932
20
218.7652
0
VERTEX
8
CUT
10
183.3111
20
218.7383
0
VERTEX
8
CUT
10
182.2575
20
218.3000
0
VERTEX
8
CUT
10
181.9121
20
218.1797
0
VERTEX
8
CUT
10
177.0979
20
215.4693
0
VERTEX
8
CUT
10
176.8212
20
215.3815
0
VERTEX
8
CUT
10
175.5224
20
215.1863
0
VERTEX
8
CUT
10
175.1308
20
215.2668
0
VERTEX
8
CUT
10
174.6331
20
215.5093
0
VERTEX
8
CUT
10
174.4835
20
215.6956
0
VERTEX
8
CUT
10
174.3791
20
215.8254
0
VERTEX
8
CUT
10
174.3457
20
215.8669
0
VERTEX
8
CUT
10
174.2759
20
215.9539
0
VERTEX
8
CUT
10
173.9741
20
216.4411
0
VERTEX
8
CUT
10
173.9485
20
216.8432
0
VERTEX
8
CUT
10
173.9483
20
216.8466
0
VERTEX
8
CUT
10
173.9474
20
216.8599
0
VERTEX
8
CUT
10
173.9474
20
216.8610
0
VERTEX
8
CUT
10
174.0318
20
217.3991
0
VERTEX
8
CUT
10
174.3692
20
218.2229
0
VERTEX
8
CUT
10
176.2189
20
222.3162
0
VERTEX
8
CUT
10
176.7261
20
224.0456
0
VERTEX
8
CUT
10
176.6700
20
225.1218
0
VERTEX
8
CUT
10
176.6926
20
225.4179
0
VERTEX
8
CUT
10
176.6475
20
225.5546
0
VERTEX
8
CUT
10
176.6348
20
225.7990
0
VERTEX
8
CUT
10
176.3903
20
226.3347
0
VERTEX
8
CUT
10
176.2202
20
226.8506
0
VERTEX
8
CUT
10
176.0618
20
227.0544
0
VERTEX
8
CUT
10
175.9682
20
227.2595
0
VERTEX
8
CUT
10
175.7921
20
227.4014
0
VERTEX
8
CUT
10
175.7100
20
227.5071
0
VERTEX
8
CUT
10
175.5561
20
227.5917
0
VERTEX
8
CUT
10
174.8249
20
228.1811
0
VERTEX
8
CUT
10
173.8784
20
228.0139
0
VERTEX
8
CUT
10
172.3259
20
227.0644
0
VERTEX
8
CUT
10
171.0415
20
225.4075
0
VERTEX
8
CUT
10
170.8902
20
225.2438
0
VERTEX
8
CUT
10
170.8838
20
225.2369
0
VERTEX
8
CUT
10
170.5723
20
224.8998
0
VERTEX
8
CUT
10
169.1453
20
223.3556
0
VERTEX
8
CUT
10
168.8983
20
223.2559
0
VERTEX
8
CUT
10
167.7998
20
222.9539
0
VERTEX
8
CUT
10
167.2902
20
223.1232
0
VERTEX
8
CUT
10
166.8781
20
223.2688
0
VERTEX
8
CUT
10
166.1888
20
224.0558
0
VERTEX
8
CUT
10
165.8075
20
225.1759
0
VERTEX
8
CUT
10
165.6558
20
231.5229
0
VERTEX
8
CUT
10
165.5124
20
232.3656
0
VERTEX
8
CUT
10
165.4496
20
232.8784
0
VERTEX
8
CUT
10
165.4135
20
232.9466
0
VERTEX
8
CUT
10
165.3996
20
233.0283
0
VERTEX
8
CUT
10
165.0618
20
233.8526
0
VERTEX
8
CUT
10
164.1726
20
235.0452
0
VERTEX
8
CUT
10
163.6328
20
235.2681
0
VERTEX
8
CUT
10
163.5926
20
235.3055
0
VERTEX
8
CUT
10
163.5074
20
235.3199
0
VERTEX
8
CUT
10
163.0400
20
235.5130
0
VERTEX
8
CUT
10
162.7466
20
235.4492
0
VERTEX
8
CUT
10
162.6362
20
235.4679
0
VERTEX
8
CUT
10
162.5439
20
235.4050
0
VERTEX
8
CUT
10
161.9898
20
235.2845
0
VERTEX
8
CUT
10
161.3574
20
234.7192
0
VERTEX
8
CUT
10
160.7893
20
233.7312
0
VERTEX
8
CUT
10
160.7679
20
233.7032
0
VERTEX
8
CUT
10
160.6734
20
233.5297
0
VERTEX
8
CUT
10
159.2492
20
231.0528
0
VERTEX
8
CUT
10
158.3346
20
230.0987
0
VERTEX
8
CUT
10
158.3133
20
230.0879
0
VERTEX
8
CUT
10
157.5120
20
229.8420
0
VERTEX
8
CUT
10
156.1556
20
230.4560
0
VERTEX
8
CUT
10
155.5934
20
231.0845
0
VERTEX
8
CUT
10
155.4996
20
231.2111
0
VERTEX
8
CUT
10
155.4845
20
231.2316
0
VERTEX
8
CUT
10
155.4163
20
231.3237
0
VERTEX
8
CUT
10
155.3740
20
231.3809
0
VERTEX
8
CUT
10
154.8033
20
232.6736
0
VERTEX
8
CUT
10
154.4189
20
234.2969
0
VERTEX
8
CUT
10
154.3676
20
234.6513
0
VERTEX
8
CUT
10
154.3362
20
234.8684
0
VERTEX
8
CUT
10
154.2717
20
235.3147
0
VERTEX
8
CUT
10
153.8163
20
238.4634
0
VERTEX
8
CUT
10
153.5063
20
240.7200
0
VERTEX
8
CUT
10
153.1455
20
242.1845
0
VERTEX
8
CUT
10
152.7799
20
243.0608
0
VERTEX
8
CUT
10
152.6985
20
243.3375
0
VERTEX
8
CUT
10
152.5789
20
243.5425
0
VERTEX
8
CUT
10
152.1921
20
244.4695
0
VERTEX
8
CUT
10
151.6265
20
245.1748
0
VERTEX
8
CUT
10
151.6177
20
245.1898
0
VERTEX
8
CUT
10
151.6005
20
245.2072
0
VERTEX
8
CUT
10
150.9636
20
246.0014
0
VERTEX
8
CUT
10
150.2209
20
246.4990
0
VERTEX
8
CUT
10
149.4354
20
246.8117
0
VERTEX
8
CUT
10
148.1490
20
246.8444
0
VERTEX
8
CUT
10
147.0290
20
246.2690
0
VERTEX
8
CUT
10
146.4020
20
245.6197
0
VERTEX
8
CUT
10
146.2238
20
245.2974
0
VERTEX
8
CUT
10
146.1164
20
245.2152
0
VERTEX
8
CUT
10
145.2591
20
243.8212
0
VERTEX
8
CUT
10
144.9811
20
243.0491
0
VERTEX
8
CUT
10
144.7932
20
242.7093
0
VERTEX
8
CUT
10
144.3869
20
240.9207
0
VERTEX
8
CUT
10
143.9885
20
235.3332
0
VERTEX
8
CUT
10
143.9673
20
235.0936
0
VERTEX
8
CUT
10
143.9433
20
234.8242
0
VERTEX
8
CUT
10
143.9423
20
234.8124
0
VERTEX
8
CUT
10
143.9093
20
234.4410
0
VERTEX
8
CUT
10
143.6350
20
232.6545
0
VERTEX
8
CUT
10
143.1452
20
231.3326
0
VERTEX
8
CUT
10
142.0025
20
230.0977
0
VERTEX
8
CUT
10
141.1355
20
229.8755
0
VERTEX
8
CUT
10
141.0864
20
229.8733
0
VERTEX
8
CUT
10
140.5520
20
230.0787
0
VERTEX
8
CUT
10
140.1863
20
230.2784
0
VERTEX
8
CUT
10
139.9208
20
230.5687
0
VERTEX
8
CUT
10
137.5948
20
234.1096
0
VERTEX
8
CUT
10
137.5479
20
234.1873
0
VERTEX
8
CUT
10
137.5305
20
234.2074
0
VERTEX
8
CUT
10
137.1466
20
234.7918
0
VERTEX
8
CUT
10
136.8879
20
234.9518
0
VERTEX
8
CUT
10
136.7752
20
235.0824
0
VERTEX
8
CUT
10
136.2874
20
235.3693
0
VERTEX
8
CUT
10
136.1924
20
235.3819
0
VERTEX
8
CUT
10
136.1060
20
235.4353
0
VERTEX
8
CUT
10
135.4931
20
235.4794
0
VERTEX
8
CUT
10
134.8418
20
235.1676
0
VERTEX
8
CUT
10
134.5459
20
235.0542
0
VERTEX
8
CUT
10
134.5044
20
235.0061
0
VERTEX
8
CUT
10
134.3555
20
234.9348
0
VERTEX
8
CUT
10
133.9188
20
234.3261
0
VERTEX
8
CUT
10
133.6301
20
233.9909
0
VERTEX
8
CUT
10
133.5800
20
233.8540
0
VERTEX
8
CUT
10
133.4201
20
233.6312
0
VERTEX
8
CUT
10
133.3795
20
233.3058
0
VERTEX
8
CUT
10
133.3105
20
233.1172
0
VERTEX
8
CUT
10
133.0829
20
230.9589
0
VERTEX
8
CUT
10
133.1361
20
230.3132
0
VERTEX
8
CUT
10
133.2885
20
224.8012
0
VERTEX
8
CUT
10
133.1032
20
224.2488
0
VERTEX
8
CUT
10
132.9734
20
224.0643
0
VERTEX
8
CUT
10
132.8837
20
223.9368
0
VERTEX
8
CUT
10
132.7598
20
223.7607
0
VERTEX
8
CUT
10
132.5713
20
223.4928
0
VERTEX
8
CUT
10
132.2169
20
223.1822
0
VERTEX
8
CUT
10
131.4453
20
222.9219
0
VERTEX
8
CUT
10
131.4016
20
222.9216
0
VERTEX
8
CUT
10
131.3884
20
222.9215
0
VERTEX
8
CUT
10
131.3815
20
222.9215
0
VERTEX
8
CUT
10
131.2781
20
222.9208
0
VERTEX
8
CUT
10
130.1684
20
223.4053
0
VERTEX
8
CUT
10
128.7296
20
224.7183
0
VERTEX
8
CUT
10
127.0467
20
226.7587
0
VERTEX
8
CUT
10
125.6738
20
227.7627
0
VERTEX
8
CUT
10
125.3816
20
227.8511
0
VERTEX
8
CUT
10
125.3175
20
227.8961
0
VERTEX
8
CUT
10
125.2185
20
227.9005
0
VERTEX
8
CUT
10
124.9853
20
227.9711
0
VERTEX
8
CUT
10
124.6597
20
227.9254
0
VERTEX
8
CUT
10
124.1764
20
227.9469
0
VERTEX
8
CUT
10
124.0013
20
227.8329
0
VERTEX
8
CUT
10
123.9335
20
227.8234
0
VERTEX
8
CUT
10
123.7723
20
227.6839
0
VERTEX
8
CUT
10
123.1800
20
227.2984
0
VERTEX
8
CUT
10
122.6744
20
226.6708
0
VERTEX
8
CUT
10
122.6251
20
226.3701
0
VERTEX
8
CUT
10
122.3740
20
225.7941
0
VERTEX
8
CUT
10
122.3742
20
224.5162
0
VERTEX
8
CUT
10
122.9083
20
222.7391
0
VERTEX
8
CUT
10
124.8666
20
218.4196
0
VERTEX
8
CUT
10
125.4337
20
217.0970
0
VERTEX
8
CUT
10
125.3974
20
216.2542
0
VERTEX
8
CUT
10
124.9204
20
215.6333
0
VERTEX
8
CUT
10
124.0340
20
215.1623
0
VERTEX
8
CUT
10
123.4135
20
215.2323
0
VERTEX
8
CUT
10
123.3910
20
215.2364
0
VERTEX
8
CUT
10
123.3262
20
215.2482
0
VERTEX
8
CUT
10
123.2687
20
215.2587
0
VERTEX
8
CUT
10
122.6854
20
215.3648
0
VERTEX
8
CUT
10
121.6451
20
215.8465
0
VERTEX
8
CUT
10
120.9173
20
216.2516
0
VERTEX
8
CUT
10
120.6400
20
216.4060
0
VERTEX
8
CUT
10
120.4956
20
216.4864
0
VERTEX
8
CUT
10
120.3873
20
216.5466
0
VERTEX
8
CUT
10
117.6910
20
218.1671
0
VERTEX
8
CUT
10
115.5040
20
218.9875
0
VERTEX
8
CUT
10
113.6403
20
219.0866
0
VERTEX
8
CUT
10
112.2666
20
218.5341
0
VERTEX
8
CUT
10
111.6561
20
217.9428
0
VERTEX
8
CUT
10
111.5372
20
217.6609
0
VERTEX
8
CUT
10
111.3847
20
217.4954
0
VERTEX
8
CUT
10
111.3262
20
217.1611
0
VERTEX
8
CUT
10
111.1307
20
216.6979
0
VERTEX
8
CUT
10
111.3392
20
215.5229
0
VERTEX
8
CUT
10
111.7234
20
214.8273
0
VERTEX
8
CUT
10
112.9871
20
213.5319
0
VERTEX
8
CUT
10
116.2502
20
211.1771
0
VERTEX
8
CUT
10
116.3139
20
211.1194
0
VERTEX
8
CUT
10
116.4172
20
211.0258
0
VERTEX
8
CUT
10
116.4935
20
210.9567
0
VERTEX
8
CUT
10
116.5217
20
210.9312
0
VERTEX
8
CUT
10
116.9772
20
210.2708
0
VERTEX
8
CUT
10
117.1105
20
209.2741
0
VERTEX
8
CUT
10
116.8657
20
208.6077
0
VERTEX
8
CUT
10
116.4369
20
208.2075
0
VERTEX
8
CUT
10
116.3676
20
208.1428
0
VERTEX
8
CUT
10
116.3608
20
208.1365
0
VERTEX
8
CUT
10
116.1935
20
207.9803
0
VERTEX
8
CUT
10
115.5886
20
207.6436
0
VERTEX
8
CUT
10
114.3245
20
207.3219
0
VERTEX
8
CUT
10
112.2360
20
207.4926
0
VERTEX
8
CUT
10
108.2152
20
208.5420
0
VERTEX
8
CUT
10
106.8830
20
208.7194
0
VERTEX
8
CUT
10
106.5247
20
208.6511
0
VERTEX
8
CUT
10
106.4780
20
208.6560
0
VERTEX
8
CUT
10
106.4395
20
208.6348
0
VERTEX
8
CUT
10
105.9860
20
208.5484
0
VERTEX
8
CUT
10
105.1512
20
207.8707
0
VERTEX
8
CUT
10
104.7989
20
207.0982
0
VERTEX
8
CUT
10
104.8115
20
207.0733
0
VERTEX
8
CUT
10
104.7981
20
207.0530
0
VERTEX
8
CUT
10
104.9279
20
206.8445
0
VERTEX
8
CUT
10
105.5010
20
205.7174
0
VERTEX
8
CUT
10
109.3603
20
202.3629
0
VERTEX
8
CUT
10
110.0579
20
201.5131
0
VERTEX
8
CUT
10
110.2282
20
201.2963
0
VERTEX
8
CUT
10
110.4310
20
200.3217
0
VERTEX
8
CUT
10
109.9385
20
199.4184
0
VERTEX
8
CUT
10
108.9020
20
198.9181
0
VERTEX
8
CUT
10
106.4598
20
199.1619
0
VERTEX
8
CUT
10
99.7977
20
201.6304
0
VERTEX
8
CUT
10
97.8879
20
202.1034
0
VERTEX
8
CUT
10
96.5652
20
202.0792
0
VERTEX
8
CUT
10
95.6931
20
201.5817
0
VERTEX
8
CUT
10
95.6470
20
201.5144
0
VERTEX
8
CUT
10
95.3381
20
201.3236
0
VERTEX
8
CUT
10
95.3608
20
201.0963
0
VERTEX
8
CUT
10
95.2872
20
200.9888
0
VERTEX
8
CUT
10
95.2089
20
200.3422
0
VERTEX
8
CUT
10
95.4624
20
199.7273
0
VERTEX
8
CUT
10
96.1407
20
198.9920
0
VERTEX
8
CUT
10
98.5119
20
197.5365
0
VERTEX
8
CUT
10
104.4276
20
195.3270
0
VERTEX
8
CUT
10
105.8646
20
194.6258
0
VERTEX
8
CUT
10
106.7649
20
193.8246
0
VERTEX
8
CUT
10
107.1564
20
192.7278
0
VERTEX
8
CUT
10
107.0758
20
192.2707
0
VERTEX
8
CUT
10
106.6905
20
191.7795
0
VERTEX
8
CUT
10
105.1866
20
191.1290
0
VERTEX
8
CUT
10
102.5107
20
191.1894
0
VERTEX
8
CUT
10
97.3539
20
192.2115
0
VERTEX
8
CUT
10
96.5668
20
192.0451
0
VERTEX
8
CUT
10
95.5826
20
191.3441
0
VERTEX
8
CUT
10
95.2021
20
190.7872
0
VERTEX
8
CUT
10
95.2085
20
190.3110
0
VERTEX
8
CUT
10
96.1265
20
189.0460
0
VERTEX
8
CUT
10
97.9543
20
187.6807
0
VERTEX
8
CUT
10
100.9572
20
185.9500
0
VERTEX
8
CUT
10
101.4426
20
185.0736
0
VERTEX
8
CUT
10
101.3381
20
184.3465
0
VERTEX
8
CUT
10
100.9109
20
183.6536
0
VERTEX
8
CUT
10
99.0305
20
182.2555
0
VERTEX
8
CUT
10
98.1209
20
181.2830
0
VERTEX
8
CUT
10
97.6173
20
179.2767
0
VERTEX
8
CUT
10
96.9952
20
179.2868
0
VERTEX
8
CUT
10
93.8729
20
181.1109
0
VERTEX
8
CUT
10
92.6638
20
181.4153
0
VERTEX
8
CUT
10
92.1914
20
181.6223
0
VERTEX
8
CUT
10
91.8009
20
181.6324
0
VERTEX
8
CUT
10
91.0011
20
181.8338
0
VERTEX
8
CUT
10
82.6027
20
181.8954
0
VERTEX
8
CUT
10
82.5713
20
181.8990
0
VERTEX
8
CUT
10
82.5130
20
181.9059
0
VERTEX
8
CUT
10
82.3729
20
181.9222
0
VERTEX
8
CUT
10
82.1930
20
181.9432
0
VERTEX
8
CUT
10
80.8928
20
182.1097
0
VERTEX
8
CUT
10
79.2164
20
183.1372
0
VERTEX
8
CUT
10
78.5869
20
183.9230
0
VERTEX
8
CUT
10
78.2888
20
184.7805
0
VERTEX
8
CUT
10
78.3230
20
185.6455
0
VERTEX
8
CUT
10
78.5144
20
186.1489
0
VERTEX
8
CUT
10
79.1935
20
186.8519
0
SEQEND
0
ENDSEC
0
EOF
