0
SECTION
2
HEADER
9
$ACADVER
1
AC1009
9
$INSUNITS
70
4
0
ENDSEC
0
SECTION
2
TABLES
0
TABLE
2
LAYER
70
1
0
LAYER
2
CUT
70
0
62
7
6
CONTINUOUS
0
ENDTAB
0
ENDSEC
0
SECTION
2
ENTITIES
0
POLYLINE
8
CUT
66
1
70
1
10
0.0
20
0.0
30
0.0
0
VERTEX
8
CUT
10
0.0000
20
299.9386
0
VERTEX
8
CUT
10
0.0029
20
299.9971
0
VERTEX
8
CUT
10
0.0614
20
300.0000
0
VERTEX
8
CUT
10
299.9021
20
300.0000
0
VERTEX
8
CUT
10
299.9606
20
299.9971
0
VERTEX
8
CUT
10
299.9634
20
299.9386
0
VERTEX
8
CUT
10
299.9634
20
0.0614
0
VERTEX
8
CUT
10
299.9606
20
0.0029
0
VERTEX
8
CUT
10
299.9021
20
-0.0000
0
VERTEX
8
CUT
10
0.0614
20
-0.0000
0
VERTEX
8
CUT
10
0.0029
20
0.0029
0
VERTEX
8
CUT
10
0.0000
20
0.0614
0
SEQEND
0
POLYLINE
8
CUT
66
1
70
1
10
0.0
20
0.0
30
0.0
0
VERTEX
8
CUT
10
239.6018
20
113.7899
0
VERTEX
8
CUT
10
239.4433
20
113.6072
0
VERTEX
8
CUT
10
239.3033
20
113.4101
0
VERTEX
8
CUT
10
239.1829
20
113.2004
0
VERTEX
8
CUT
10
239.0833
20
112.9800
0
VERTEX
8
CUT
10
239.0055
20
112.7511
0
VERTEX
8
CUT
10
238.9502
20
112.5157
0
VERTEX
8
CUT
10
238.9179
20
112.2760
0
VERTEX
8
CUT
10
238.9089
20
112.0344
0
VERTEX
8
CUT
10
238.9233
20
111.7930
0
VERTEX
8
CUT
10
238.9609
20
111.5541
0
VERTEX
8
CUT
10
239.0215
20
111.3200
0
VERTEX
8
CUT
10
239.1044
20
111.0929
0
VERTEX
8
CUT
10
239.2088
20
110.8748
0
VERTEX
8
CUT
10
239.3338
20
110.6678
0
VERTEX
8
CUT
10
239.4782
20
110.4738
0
VERTEX
8
CUT
10
239.6407
20
110.2947
0
VERTEX
8
CUT
10
239.8197
20
110.1322
0
VERTEX
8
CUT
10
240.0136
20
109.9877
0
VERTEX
8
CUT
10
240.2206
20
109.8626
0
VERTEX
8
CUT
10
240.4386
20
109.7581
0
VERTEX
8
CUT
10
240.6658
20
109.6752
0
VERTEX
8
CUT
10
240.8999
20
109.6146
0
VERTEX
8
CUT
10
241.1387
20
109.5768
0
VERTEX
8
CUT
10
241.3801
20
109.5624
0
VERTEX
8
CUT
10
241.4836
20
109.5662
0
VERTEX
8
CUT
10
241.5510
20
109.5653
0
VERTEX
8
CUT
10
241.5855
20
109.5464
0
VERTEX
8
CUT
10
241.6016
20
109.5360
0
VERTEX
8
CUT
10
242.0726
20
109.2133
0
VERTEX
8
CUT
10
242.0892
20
109.2013
0
VERTEX
8
CUT
10
242.1212
20
109.1741
0
VERTEX
8
CUT
10
242.1395
20
109.1363
0
VERTEX
8
CUT
10
242.1469
20
109.1172
0
VERTEX
8
CUT
10
242.2949
20
108.7050
0
VERTEX
8
CUT
10
242.3016
20
108.6846
0
VERTEX
8
CUT
10
242.3120
20
108.6416
0
VERTEX
8
CUT
10
242.3177
20
108.5977
0
VERTEX
8
CUT
10
242.3187
20
108.5762
0
VERTEX
8
CUT
10
242.3515
20
106.9296
0
VERTEX
8
CUT
10
242.3687
20
106.6822
0
VERTEX
8
CUT
10
242.4104
20
106.4377
0
VERTEX
8
CUT
10
242.4761
20
106.1985
0
VERTEX
8
CUT
10
242.5651
20
105.9671
0
VERTEX
8
CUT
10
242.5689
20
105.9586
0
VERTEX
8
CUT
10
242.5759
20
105.9416
0
VERTEX
8
CUT
10
242.5880
20
105.9056
0
VERTEX
8
CUT
10
242.5932
20
105.8679
0
VERTEX
8
CUT
10
242.5945
20
105.8496
0
VERTEX
8
CUT
10
242.6358
20
104.9264
0
VERTEX
8
CUT
10
242.6587
20
104.6827
0
VERTEX
8
CUT
10
242.7054
20
104.4423
0
VERTEX
8
CUT
10
242.9146
20
103.5899
0
VERTEX
8
CUT
10
242.9818
20
103.3628
0
VERTEX
8
CUT
10
246.9493
20
91.9816
0
VERTEX
8
CUT
10
246.9664
20
91.9288
0
VERTEX
8
CUT
10
246.9811
20
91.8753
0
VERTEX
8
CUT
10
247.8381
20
88.4446
0
VERTEX
8
CUT
10
247.8421
20
88.4269
0
VERTEX
8
CUT
10
247.8535
20
88.3530
0
VERTEX
8
CUT
10
247.8551
20
88.3350
0
VERTEX
8
CUT
10
247.8983
20
87.6501
0
VERTEX
8
CUT
10
247.9260
20
87.4047
0
VERTEX
8
CUT
10
247.9778
20
87.1632
0
VERTEX
8
CUT
10
248.4314
20
85.4629
0
VERTEX
8
CUT
10
248.4853
20
85.2948
0
VERTEX
8
CUT
10
248.4661
20
85.1199
0
VERTEX
8
CUT
10
248.4630
20
84.8768
0
VERTEX
8
CUT
10
248.4833
20
84.3164
0
VERTEX
8
CUT
10
248.5059
20
84.0594
0
VERTEX
8
CUT
10
248.5549
20
83.8060
0
VERTEX
8
CUT
10
248.6298
20
83.5591
0
VERTEX
8
CUT
10
248.7401
20
83.2531
0
VERTEX
8
CUT
10
248.7413
20
83.2536
0
VERTEX
8
CUT
10
248.8124
20
83.0690
0
VERTEX
8
CUT
10
248.9219
20
82.8510
0
VERTEX
8
CUT
10
249.0521
20
82.6447
0
VERTEX
8
CUT
10
249.2018
20
82.4520
0
VERTEX
8
CUT
10
249.3696
20
82.2749
0
VERTEX
8
CUT
10
249.5538
20
82.1150
0
VERTEX
8
CUT
10
249.7527
20
81.9738
0
VERTEX
8
CUT
10
249.9645
20
81.8526
0
VERTEX
8
CUT
10
250.1870
20
81.7527
0
VERTEX
8
CUT
10
250.4182
20
81.6749
0
VERTEX
8
CUT
10
250.6559
20
81.6201
0
VERTEX
8
CUT
10
250.8978
20
81.5886
0
VERTEX
8
CUT
10
251.1417
20
81.5809
0
VERTEX
8
CUT
10
251.3851
20
81.5970
0
VERTEX
8
CUT
10
251.6258
20
81.6368
0
VERTEX
8
CUT
10
251.8615
20
81.6998
0
VERTEX
8
CUT
10
252.0899
20
81.7854
0
VERTEX
8
CUT
10
252.3088
20
81.8930
0
VERTEX
8
CUT
10
252.5163
20
82.0213
0
VERTEX
8
CUT
10
252.7102
20
82.1693
0
VERTEX
8
CUT
10
252.8888
20
82.3355
0
VERTEX
8
CUT
10
253.0504
20
82.5183
0
VERTEX
8
CUT
10
253.1934
20
82.7159
0
VERTEX
8
CUT
10
253.3164
20
82.9266
0
VERTEX
8
CUT
10
253.4183
20
83.1483
0
VERTEX
8
CUT
10
253.4981
20
83.3788
0
VERTEX
8
CUT
10
253.5551
20
83.6160
0
VERTEX
8
CUT
10
253.5887
20
83.8576
0
VERTEX
8
CUT
10
253.5986
20
84.1014
0
VERTEX
8
CUT
10
253.5954
20
84.4811
0
VERTEX
8
CUT
10
253.5850
20
84.6893
0
VERTEX
8
CUT
10
253.5572
20
84.8960
0
VERTEX
8
CUT
10
253.5123
20
85.0996
0
VERTEX
8
CUT
10
253.3783
20
85.6065
0
VERTEX
8
CUT
10
253.3226
20
85.7819
0
VERTEX
8
CUT
10
253.3372
20
85.8876
0
VERTEX
8
CUT
10
253.3467
20
86.1367
0
VERTEX
8
CUT
10
253.3063
20
89.5725
0
VERTEX
8
CUT
10
253.2901
20
89.8292
0
VERTEX
8
CUT
10
253.2475
20
90.0829
0
VERTEX
8
CUT
10
253.0688
20
90.8911
0
VERTEX
8
CUT
10
253.0647
20
90.9123
0
VERTEX
8
CUT
10
253.0550
20
91.0010
0
VERTEX
8
CUT
10
253.0544
20
91.0226
0
VERTEX
8
CUT
10
253.0508
20
98.8948
0
VERTEX
8
CUT
10
253.0509
20
98.8997
0
VERTEX
8
CUT
10
253.0559
20
98.9721
0
VERTEX
8
CUT
10
253.0581
20
98.9891
0
VERTEX
8
CUT
10
253.6453
20
102.9512
0
VERTEX
8
CUT
10
253.6560
20
103.0122
0
VERTEX
8
CUT
10
253.6697
20
103.0726
0
VERTEX
8
CUT
10
254.9626
20
108.1709
0
VERTEX
8
CUT
10
255.0186
20
108.4646
0
VERTEX
8
CUT
10
255.0392
20
108.7628
0
VERTEX
8
CUT
10
255.0771
20
112.9338
0
VERTEX
8
CUT
10
255.0766
20
113.0133
0
VERTEX
8
CUT
10
255.0474
20
114.3002
0
VERTEX
8
CUT
10
255.0286
20
114.5542
0
VERTEX
8
CUT
10
254.9841
20
114.8051
0
VERTEX
8
CUT
10
254.8559
20
115.3612
0
VERTEX
8
CUT
10
254.7931
20
115.5853
0
VERTEX
8
CUT
10
254.7097
20
115.8027
0
VERTEX
8
CUT
10
254.6065
20
116.0113
0
VERTEX
8
CUT
10
254.4843
20
116.2095
0
VERTEX
8
CUT
10
253.5998
20
117.5045
0
VERTEX
8
CUT
10
253.4414
20
117.7122
0
VERTEX
8
CUT
10
253.2622
20
117.9022
0
VERTEX
8
CUT
10
252.9979
20
118.1547
0
VERTEX
8
CUT
10
252.8358
20
118.2968
0
VERTEX
8
CUT
10
252.6620
20
118.4243
0
VERTEX
8
CUT
10
252.4780
20
118.5364
0
VERTEX
8
CUT
10
252.2849
20
118.6322
0
VERTEX
8
CUT
10
250.5304
20
119.4107
0
VERTEX
8
CUT
10
250.2926
20
119.5020
0
VERTEX
8
CUT
10
250.0468
20
119.5686
0
VERTEX
8
CUT
10
249.7955
20
119.6099
0
VERTEX
8
CUT
10
249.5413
20
119.6254
0
VERTEX
8
CUT
10
248.3705
20
119.6370
0
VERTEX
8
CUT
10
248.0677
20
119.6216
0
VERTEX
8
CUT
10
247.7690
20
119.5697
0
VERTEX
8
CUT
10
247.0406
20
119.3970
0
VERTEX
8
CUT
10
246.7621
20
119.3137
0
VERTEX
8
CUT
10
246.4952
20
119.1985
0
VERTEX
8
CUT
10
244.5907
20
118.2420
0
VERTEX
8
CUT
10
244.4109
20
118.1423
0
VERTEX
8
CUT
10
244.2400
20
118.0281
0
VERTEX
8
CUT
10
242.4856
20
116.7491
0
VERTEX
8
CUT
10
242.3120
20
116.6102
0
VERTEX
8
CUT
10
242.1514
20
116.4566
0
SEQEND
0
POLYLINE
8
CUT
66
1
70
1
10
0.0
20
0.0
30
0.0
0
VERTEX
8
CUT
10
209.4216
20
99.7111
0
VERTEX
8
CUT
10
209.3541
20
99.4563
0
VERTEX
8
CUT
10
209.3137
20
99.1957
0
VERTEX
8
CUT
10
209.3010
20
98.9323
0
VERTEX
8
CUT
10
209.3112
20
96.7333
0
VERTEX
8
CUT
10
209.3303
20
96.4366
0
VERTEX
8
CUT
10
209.3844
20
96.1442
0
VERTEX
8
CUT
10
210.1256
20
93.1502
0
VERTEX
8
CUT
10
210.1943
20
92.9205
0
VERTEX
8
CUT
10
210.2848
20
92.6983
0
VERTEX
8
CUT
10
212.1803
20
88.6151
0
VERTEX
8
CUT
10
212.3129
20
88.3670
0
VERTEX
8
CUT
10
217.1618
20
80.4082
0
VERTEX
8
CUT
10
217.2835
20
80.2269
0
VERTEX
8
CUT
10
219.9775
20
76.5672
0
VERTEX
8
CUT
10
219.9875
20
76.5531
0
VERTEX
8
CUT
10
220.0246
20
76.4923
0
VERTEX
8
CUT
10
220.0326
20
76.4770
0
VERTEX
8
CUT
10
220.6023
20
75.3315
0
VERTEX
8
CUT
10
220.6104
20
75.3141
0
VERTEX
8
CUT
10
220.6245
20
75.2772
0
VERTEX
8
CUT
10
220.6312
20
75.2383
0
VERTEX
8
CUT
10
220.6331
20
75.2192
0
VERTEX
8
CUT
10
220.6614
20
74.8377
0
VERTEX
8
CUT
10
220.6901
20
74.6030
0
VERTEX
8
CUT
10
220.7407
20
74.3721
0
VERTEX
8
CUT
10
220.8130
20
74.1470
0
VERTEX
8
CUT
10
220.9062
20
73.9298
0
VERTEX
8
CUT
10
221.0195
20
73.7223
0
VERTEX
8
CUT
10
221.1519
20
73.5265
0
VERTEX
8
CUT
10
221.3022
20
73.3440
0
VERTEX
8
CUT
10
221.4690
20
73.1765
0
VERTEX
8
CUT
10
223.1032
20
71.6847
0
VERTEX
8
CUT
10
223.1191
20
71.6694
0
VERTEX
8
CUT
10
223.1794
20
71.6007
0
VERTEX
8
CUT
10
223.1925
20
71.5829
0
VERTEX
8
CUT
10
228.8968
20
63.3943
0
VERTEX
8
CUT
10
228.9864
20
63.2736
0
VERTEX
8
CUT
10
231.0822
20
60.6207
0
VERTEX
8
CUT
10
231.1923
20
60.4907
0
VERTEX
8
CUT
10
234.2973
20
57.0680
0
VERTEX
8
CUT
10
234.5091
20
56.8606
0
VERTEX
8
CUT
10
236.9998
20
54.6963
0
VERTEX
8
CUT
10
237.1699
20
54.5610
0
VERTEX
8
CUT
10
238.8327
20
53.3526
0
VERTEX
8
CUT
10
239.0498
20
53.2114
0
VERTEX
8
CUT
10
239.2803
20
53.0935
0
VERTEX
8
CUT
10
239.5218
20
53.0000
0
VERTEX
8
CUT
10
242.4190
20
52.0478
0
VERTEX
8
CUT
10
242.6863
20
51.9761
0
VERTEX
8
CUT
10
242.9599
20
51.9343
0
VERTEX
8
CUT
10
243.2364
20
51.9231
0
VERTEX
8
CUT
10
244.5523
20
51.9425
0
VERTEX
8
CUT
10
244.8129
20
51.9600
0
VERTEX
8
CUT
10
245.0703
20
52.0046
0
VERTEX
8
CUT
10
245.3216
20
52.0758
0
VERTEX
8
CUT
10
245.5641
20
52.1728
0
VERTEX
8
CUT
10
246.8807
20
52.7812
0
VERTEX
8
CUT
10
247.0740
20
52.8810
0
VERTEX
8
CUT
10
247.2580
20
52.9972
0
VERTEX
8
CUT
10
247.4311
20
53.1289
0
VERTEX
8
CUT
10
247.5921
20
53.2752
0
VERTEX
8
CUT
10
249.0575
20
54.7280
0
VERTEX
8
CUT
10
249.1860
20
54.8654
0
VERTEX
8
CUT
10
249.3038
20
55.0121
0
VERTEX
8
CUT
10
249.8767
20
55.7828
0
VERTEX
8
CUT
10
250.0268
20
56.0096
0
VERTEX
8
CUT
10
250.1515
20
56.2514
0
VERTEX
8
CUT
10
251.1735
20
58.5314
0
VERTEX
8
CUT
10
251.2911
20
58.8500
0
VERTEX
8
CUT
10
252.6330
20
63.4221
0
VERTEX
8
CUT
10
252.6981
20
63.7029
0
VERTEX
8
CUT
10
252.7305
20
63.9893
0
VERTEX
8
CUT
10
252.7619
20
64.5615
0
VERTEX
8
CUT
10
252.7637
20
64.5840
0
VERTEX
8
CUT
10
252.7716
20
64.6301
0
VERTEX
8
CUT
10
252.7847
20
64.6750
0
VERTEX
8
CUT
10
252.7929
20
64.6961
0
VERTEX
8
CUT
10
252.8295
20
64.7832
0
VERTEX
8
CUT
10
252.9088
20
64.9988
0
VERTEX
8
CUT
10
252.9679
20
65.2209
0
VERTEX
8
CUT
10
253.0064
20
65.4474
0
VERTEX
8
CUT
10
253.0239
20
65.6764
0
VERTEX
8
CUT
10
253.0618
20
66.9191
0
VERTEX
8
CUT
10
253.0627
20
66.9370
0
VERTEX
8
CUT
10
253.0672
20
66.9738
0
VERTEX
8
CUT
10
253.0781
20
67.0088
0
VERTEX
8
CUT
10
253.0846
20
67.0257
0
VERTEX
8
CUT
10
253.1270
20
67.1282
0
VERTEX
8
CUT
10
253.2041
20
67.3415
0
VERTEX
8
CUT
10
253.2615
20
67.5610
0
VERTEX
8
CUT
10
253.2988
20
67.7847
0
VERTEX
8
CUT
10
253.3156
20
68.0110
0
VERTEX
8
CUT
10
253.3509
20
69.2286
0
VERTEX
8
CUT
10
253.3521
20
69.2497
0
VERTEX
8
CUT
10
253.3580
20
69.2930
0
VERTEX
8
CUT
10
253.3685
20
69.3354
0
VERTEX
8
CUT
10
253.3752
20
69.3554
0
VERTEX
8
CUT
10
253.4431
20
69.5419
0
VERTEX
8
CUT
10
253.5245
20
69.8117
0
VERTEX
8
CUT
10
253.5750
20
70.0889
0
VERTEX
8
CUT
10
253.5939
20
70.3701
0
VERTEX
8
CUT
10
253.6083
20
71.6763
0
VERTEX
8
CUT
10
253.5991
20
71.9192
0
VERTEX
8
CUT
10
253.5664
20
72.1601
0
VERTEX
8
CUT
10
253.5105
20
72.3966
0
VERTEX
8
CUT
10
253.4318
20
72.6266
0
VERTEX
8
CUT
10
253.3312
20
72.8479
0
VERTEX
8
CUT
10
253.2096
20
73.0584
0
VERTEX
8
CUT
10
253.0681
20
73.2560
0
VERTEX
8
CUT
10
252.9081
20
73.4390
0
VERTEX
8
CUT
10
252.7311
20
73.6056
0
VERTEX
8
CUT
10
252.5387
20
73.7542
0
VERTEX
8
CUT
10
252.3328
20
73.8834
0
VERTEX
8
CUT
10
252.1154
20
73.9920
0
VERTEX
8
CUT
10
251.8884
20
74.0789
0
VERTEX
8
CUT
10
251.6541
20
74.1435
0
VERTEX
8
CUT
10
251.4145
20
74.1849
0
VERTEX
8
CUT
10
251.1721
20
74.2029
0
VERTEX
8
CUT
10
250.9291
20
74.1973
0
VERTEX
8
CUT
10
250.6878
20
74.1681
0
VERTEX
8
CUT
10
250.4505
20
74.1156
0
VERTEX
8
CUT
10
250.2194
20
74.0403
0
VERTEX
8
CUT
10
249.9967
20
73.9430
0
VERTEX
8
CUT
10
249.7845
20
73.8244
0
VERTEX
8
CUT
10
249.5848
20
73.6858
0
VERTEX
8
CUT
10
249.3995
20
73.5285
0
VERTEX
8
CUT
10
249.2304
20
73.3539
0
VERTEX
8
CUT
10
249.0790
20
73.1637
0
VERTEX
8
CUT
10
248.9468
20
72.9597
0
VERTEX
8
CUT
10
248.8351
20
72.7439
0
VERTEX
8
CUT
10
248.7448
20
72.5182
0
VERTEX
8
CUT
10
248.7249
20
72.4605
0
VERTEX
8
CUT
10
248.6376
20
72.2286
0
VERTEX
8
CUT
10
248.5583
20
71.9786
0
VERTEX
8
CUT
10
248.5055
20
71.7218
0
VERTEX
8
CUT
10
248.4800
20
71.4608
0
VERTEX
8
CUT
10
248.4454
20
70.6921
0
VERTEX
8
CUT
10
248.4440
20
70.6724
0
VERTEX
8
CUT
10
248.4322
20
70.5916
0
VERTEX
8
CUT
10
248.4279
20
70.5723
0
VERTEX
8
CUT
10
247.8597
20
68.2867
0
VERTEX
8
CUT
10
247.8548
20
68.2686
0
VERTEX
8
CUT
10
247.8291
20
68.1955
0
VERTEX
8
CUT
10
247.8216
20
68.1783
0
VERTEX
8
CUT
10
246.0987
20
64.4424
0
VERTEX
8
CUT
10
246.0889
20
64.4227
0
VERTEX
8
CUT
10
246.0653
20
64.3837
0
VERTEX
8
CUT
10
246.0376
20
64.3476
0
VERTEX
8
CUT
10
246.0228
20
64.3313
0
VERTEX
8
CUT
10
244.4445
20
62.6916
0
VERTEX
8
CUT
10
244.4300
20
62.6773
0
VERTEX
8
CUT
10
244.3979
20
62.6501
0
VERTEX
8
CUT
10
244.3632
20
62.6264
0
VERTEX
8
CUT
10
244.3455
20
62.6163
0
VERTEX
8
CUT
10
242.3174
20
61.5180
0
VERTEX
8
CUT
10
242.2999
20
61.5091
0
VERTEX
8
CUT
10
242.2628
20
61.4936
0
VERTEX
8
CUT
10
242.2228
20
61.4896
0
VERTEX
8
CUT
10
242.2032
20
61.4891
0
VERTEX
8
CUT
10
239.7105
20
61.4878
0
VERTEX
8
CUT
10
239.6900
20
61.4883
0
VERTEX
8
CUT
10
239.6478
20
61.4927
0
VERTEX
8
CUT
10
239.6074
20
61.5057
0
VERTEX
8
CUT
10
239.5884
20
61.5135
0
VERTEX
8
CUT
10
236.9456
20
62.6809
0
VERTEX
8
CUT
10
236.9271
20
62.6897
0
VERTEX
8
CUT
10
236.8535
20
62.7317
0
VERTEX
8
CUT
10
236.8365
20
62.7432
0
VERTEX
8
CUT
10
235.7943
20
63.4906
0
VERTEX
8
CUT
10
235.7899
20
63.4939
0
VERTEX
8
CUT
10
235.7284
20
63.5456
0
VERTEX
8
CUT
10
235.7147
20
63.5587
0
VERTEX
8
CUT
10
234.3849
20
64.8890
0
VERTEX
8
CUT
10
234.3719
20
64.9027
0
VERTEX
8
CUT
10
234.3221
20
64.9629
0
VERTEX
8
CUT
10
234.3112
20
64.9783
0
VERTEX
8
CUT
10
230.6392
20
70.4006
0
VERTEX
8
CUT
10
230.5952
20
70.4707
0
VERTEX
8
CUT
10
230.5559
20
70.5436
0
VERTEX
8
CUT
10
228.4741
20
74.7473
0
VERTEX
8
CUT
10
228.3785
20
74.9223
0
VERTEX
8
CUT
10
222.1177
20
85.3763
0
VERTEX
8
CUT
10
222.0839
20
85.4364
0
VERTEX
8
CUT
10
222.0536
20
85.4983
0
VERTEX
8
CUT
10
220.6584
20
88.5647
0
VERTEX
8
CUT
10
220.6505
20
88.5833
0
VERTEX
8
CUT
10
220.6237
20
88.6626
0
VERTEX
8
CUT
10
220.6187
20
88.6822
0
VERTEX
8
CUT
10
220.2895
20
90.1311
0
VERTEX
8
CUT
10
220.2862
20
90.1475
0
VERTEX
8
CUT
10
220.2814
20
90.1820
0
VERTEX
8
CUT
10
220.2795
20
90.2170
0
VERTEX
8
CUT
10
220.2796
20
90.2333
0
VERTEX
8
CUT
10
220.3512
20
92.5668
0
VERTEX
8
CUT
10
220.3523
20
92.5867
0
VERTEX
8
CUT
10
220.3577
20
92.6273
0
VERTEX
8
CUT
10
220.3749
20
92.6644
0
VERTEX
8
CUT
10
220.3846
20
92.6818
0
VERTEX
8
CUT
10
221.2529
20
94.1453
0
VERTEX
8
CUT
10
221.2636
20
94.1623
0
VERTEX
8
CUT
10
221.2883
20
94.1956
0
VERTEX
8
CUT
10
221.3219
20
94.2199
0
VERTEX
8
CUT
10
221.3390
20
94.2304
0
VERTEX
8
CUT
10
222.8625
20
95.1117
0
VERTEX
8
CUT
10
222.8804
20
95.1215
0
VERTEX
8
CUT
10
222.9188
20
95.1387
0
VERTEX
8
CUT
10
222.9606
20
95.1433
0
VERTEX
8
CUT
10
222.9810
20
95.1439
0
VERTEX
8
CUT
10
226.6409
20
95.1656
0
VERTEX
8
CUT
10
226.6619
20
95.1651
0
VERTEX
8
CUT
10
226.7051
20
95.1608
0
VERTEX
8
CUT
10
226.7475
20
95.1519
0
VERTEX
8
CUT
10
226.7677
20
95.1460
0
VERTEX
8
CUT
10
229.9930
20
94.1048
0
VERTEX
8
CUT
10
230.2229
20
94.0425
0
VERTEX
8
CUT
10
232.5746
20
93.5242
0
VERTEX
8
CUT
10
232.8576
20
93.4786
0
VERTEX
8
CUT
10
233.1439
20
93.4658
0
VERTEX
8
CUT
10
234.9756
20
93.4886
0
VERTEX
8
CUT
10
235.1972
20
93.5013
0
VERTEX
8
CUT
10
235.4168
20
93.5335
0
VERTEX
8
CUT
10
235.6327
20
93.5850
0
VERTEX
8
CUT
10
235.8432
20
93.6556
0
VERTEX
8
CUT
10
236.6437
20
93.9640
0
VERTEX
8
CUT
10
236.8879
20
94.0734
0
VERTEX
8
CUT
10
237.1190
20
94.2082
0
VERTEX
8
CUT
10
237.5730
20
94.5069
0
VERTEX
8
CUT
10
237.7974
20
94.6732
0
VERTEX
8
CUT
10
238.0018
20
94.8635
0
VERTEX
8
CUT
10
238.6495
20
95.5376
0
VERTEX
8
CUT
10
238.8289
20
95.7462
0
VERTEX
8
CUT
10
238.9844
20
95.9733
0
VERTEX
8
CUT
10
239.1139
20
96.2161
0
VERTEX
8
CUT
10
239.3148
20
96.6483
0
VERTEX
8
CUT
10
239.4164
20
96.9025
0
VERTEX
8
CUT
10
239.4896
20
97.1663
0
VERTEX
8
CUT
10
239.5335
20
97.4365
0
VERTEX
8
CUT
10
239.5476
20
97.7099
0
VERTEX
8
CUT
10
239.5397
20
100.1688
0
VERTEX
8
CUT
10
239.5260
20
100.4228
0
VERTEX
8
CUT
10
239.4865
20
100.6740
0
VERTEX
8
CUT
10
239.4217
20
100.9200
0
VERTEX
8
CUT
10
238.7507
20
103.0252
0
VERTEX
8
CUT
10
238.7492
20
103.0303
0
VERTEX
8
CUT
10
238.7377
20
103.0790
0
VERTEX
8
CUT
10
238.7341
20
103.1038
0
VERTEX
8
CUT
10
238.7320
20
103.1277
0
VERTEX
8
CUT
10
238.6970
20
103.6830
0
VERTEX
8
CUT
10
238.6687
20
103.9317
0
VERTEX
8
CUT
10
238.6157
20
104.1764
0
VERTEX
8
CUT
10
238.5385
20
104.4145
0
VERTEX
8
CUT
10
238.4352
20
104.6861
0
VERTEX
8
CUT
10
238.4284
20
104.7054
0
VERTEX
8
CUT
10
238.4176
20
104.7460
0
VERTEX
8
CUT
10
238.4198
20
104.7879
0
VERTEX
8
CUT
10
238.4224
20
104.8082
0
VERTEX
8
CUT
10
238.7299
20
106.7764
0
VERTEX
8
CUT
10
238.7556
20
107.0171
0
VERTEX
8
CUT
10
238.7579
20
107.2592
0
VERTEX
8
CUT
10
238.7368
20
107.5004
0
VERTEX
8
CUT
10
238.6925
20
107.7384
0
VERTEX
8
CUT
10
238.6254
20
107.9710
0
VERTEX
8
CUT
10
238.5361
20
108.1960
0
VERTEX
8
CUT
10
238.4254
20
108.4113
0
VERTEX
8
CUT
10
238.2944
20
108.6149
0
VERTEX
8
CUT
10
238.1444
20
108.8049
0
VERTEX
8
CUT
10
237.9766
20
108.9795
0
VERTEX
8
CUT
10
237.7928
20
109.1371
0
VERTEX
8
CUT
10
237.5946
20
109.2761
0
VERTEX
8
CUT
10
237.3839
20
109.3953
0
VERTEX
8
CUT
10
237.1626
20
109.4935
0
VERTEX
8
CUT
10
236.9329
20
109.5699
0
VERTEX
8
CUT
10
236.6968
20
109.6237
0
VERTEX
8
CUT
10
236.4567
20
109.6545
0
VERTEX
8
CUT
10
236.2147
20
109.6618
0
VERTEX
8
CUT
10
235.9731
20
109.6457
0
VERTEX
8
CUT
10
235.7343
20
109.6064
0
VERTEX
8
CUT
10
235.5003
20
109.5441
0
VERTEX
8
CUT
10
235.2735
20
109.4594
0
VERTEX
8
CUT
10
235.0559
20
109.3533
0
VERTEX
8
CUT
10
234.8496
20
109.2265
0
VERTEX
8
CUT
10
234.6566
20
109.0804
0
VERTEX
8
CUT
10
234.5897
20
109.0246
0
VERTEX
8
CUT
10
234.5435
20
108.9896
0
VERTEX
8
CUT
10
232.4642
20
107.4888
0
VERTEX
8
CUT
10
232.4598
20
107.4857
0
VERTEX
8
CUT
10
232.3925
20
107.4446
0
VERTEX
8
CUT
10
232.3761
20
107.4358
0
VERTEX
8
CUT
10
229.5744
20
106.0310
0
VERTEX
8
CUT
10
229.4953
20
105.9948
0
VERTEX
8
CUT
10
229.4138
20
105.9643
0
VERTEX
8
CUT
10
226.8132
20
105.0952
0
VERTEX
8
CUT
10
226.7962
20
105.0900
0
VERTEX
8
CUT
10
226.7603
20
105.0815
0
VERTEX
8
CUT
10
226.7236
20
105.0762
0
VERTEX
8
CUT
10
226.7064
20
105.0749
0
VERTEX
8
CUT
10
225.8657
20
105.0300
0
VERTEX
8
CUT
10
225.6073
20
105.0027
0
VERTEX
8
CUT
10
225.3532
20
104.9487
0
VERTEX
8
CUT
10
225.1060
20
104.8687
0
VERTEX
8
CUT
10
224.9446
20
104.8070
0
VERTEX
8
CUT
10
224.9280
20
104.8010
0
VERTEX
8
CUT
10
224.8929
20
104.7911
0
VERTEX
8
CUT
10
224.8569
20
104.7875
0
VERTEX
8
CUT
10
224.8391
20
104.7870
0
VERTEX
8
CUT
10
215.9803
20
104.7088
0
VERTEX
8
CUT
10
215.7090
20
104.6916
0
VERTEX
8
CUT
10
215.4412
20
104.6451
0
VERTEX
8
CUT
10
213.4495
20
104.1863
0
VERTEX
8
CUT
10
213.2047
20
104.1166
0
VERTEX
8
CUT
10
212.9683
20
104.0224
0
VERTEX
8
CUT
10
212.7427
20
103.9047
0
VERTEX
8
CUT
10
211.9451
20
103.4353
0
VERTEX
8
CUT
10
211.7633
20
103.3174
0
VERTEX
8
CUT
10
211.5923
20
103.1842
0
VERTEX
8
CUT
10
211.4336
20
103.0367
0
VERTEX
8
CUT
10
210.5231
20
102.1142
0
VERTEX
8
CUT
10
210.3250
20
101.8876
0
VERTEX
8
CUT
10
210.1555
20
101.6389
0
VERTEX
8
CUT
10
210.0565
20
101.4728
0
VERTEX
8
CUT
10
209.9258
20
101.2226
0
VERTEX
8
CUT
10
209.8241
20
100.9593
0
SEQEND
0
POLYLINE
8
CUT
66
1
70
1
10
0.0
20
0.0
30
0.0
0
VERTEX
8
CUT
10
219.5926
20
138.1927
0
VERTEX
8
CUT
10
219.4287
20
138.0116
0
VERTEX
8
CUT
10
219.2831
20
137.8155
0
VERTEX
8
CUT
10
219.1575
20
137.6061
0
VERTEX
8
CUT
10
219.0528
20
137.3854
0
VERTEX
8
CUT
10
218.9702
20
137.1556
0
VERTEX
8
CUT
10
218.9105
20
136.9188
0
VERTEX
8
CUT
10
218.8741
20
136.6773
0
VERTEX
8
CUT
10
218.8614
20
136.4334
0
VERTEX
8
CUT
10
218.8726
20
136.1894
0
VERTEX
8
CUT
10
218.9076
20
135.9477
0
VERTEX
8
CUT
10
218.9659
20
135.7105
0
VERTEX
8
CUT
10
219.0472
20
135.4802
0
VERTEX
8
CUT
10
219.1505
20
135.2589
0
VERTEX
8
CUT
10
219.2749
20
135.0488
0
VERTEX
8
CUT
10
219.4192
20
134.8517
0
VERTEX
8
CUT
10
219.5821
20
134.6697
0
VERTEX
8
CUT
10
219.7620
20
134.5045
0
VERTEX
8
CUT
10
219.9571
20
134.3576
0
VERTEX
8
CUT
10
220.1656
20
134.2305
0
VERTEX
8
CUT
10
220.3855
20
134.1243
0
VERTEX
8
CUT
10
220.6147
20
134.0400
0
VERTEX
8
CUT
10
220.8511
20
133.9785
0
VERTEX
8
CUT
10
221.0923
20
133.9404
0
VERTEX
8
CUT
10
221.3361
20
133.9260
0
VERTEX
8
CUT
10
221.5802
20
133.9355
0
VERTEX
8
CUT
10
221.8221
20
133.9687
0
VERTEX
8
CUT
10
222.0597
20
134.0254
0
VERTEX
8
CUT
10
222.2906
20
134.1050
0
VERTEX
8
CUT
10
224.5737
20
135.0191
0
VERTEX
8
CUT
10
224.7329
20
135.0893
0
VERTEX
8
CUT
10
224.8777
20
135.1594
0
VERTEX
8
CUT
10
225.0888
20
135.2743
0
VERTEX
8
CUT
10
225.2878
20
135.4089
0
VERTEX
8
CUT
10
225.4730
20
135.5620
0
VERTEX
8
CUT
10
225.6427
20
135.7322
0
VERTEX
8
CUT
10
225.7952
20
135.9179
0
VERTEX
8
CUT
10
225.9292
20
136.1174
0
VERTEX
8
CUT
10
226.0434
20
136.3289
0
VERTEX
8
CUT
10
226.1368
20
136.5503
0
VERTEX
8
CUT
10
226.2085
20
136.7797
0
VERTEX
8
CUT
10
226.2579
20
137.0149
0
VERTEX
8
CUT
10
226.2844
20
137.2537
0
VERTEX
8
CUT
10
226.2879
20
137.4940
0
VERTEX
8
CUT
10
226.2683
20
137.7335
0
VERTEX
8
CUT
10
226.2257
20
137.9700
0
VERTEX
8
CUT
10
226.1607
20
138.2014
0
VERTEX
8
CUT
10
226.0738
20
138.4254
0
VERTEX
8
CUT
10
225.9657
20
138.6401
0
VERTEX
8
CUT
10
225.8375
20
138.8434
0
VERTEX
8
CUT
10
225.6905
20
139.0334
0
VERTEX
8
CUT
10
225.5258
20
139.2085
0
VERTEX
8
CUT
10
225.3451
20
139.3669
0
VERTEX
8
CUT
10
224.3046
20
140.1941
0
VERTEX
8
CUT
10
224.1087
20
140.3350
0
VERTEX
8
CUT
10
223.9002
20
140.4563
0
VERTEX
8
CUT
10
223.6809
20
140.5570
0
VERTEX
8
CUT
10
223.4529
20
140.6360
0
VERTEX
8
CUT
10
223.2184
20
140.6927
0
VERTEX
8
CUT
10
222.9795
20
140.7266
0
VERTEX
8
CUT
10
222.7385
20
140.7372
0
VERTEX
8
CUT
10
222.4975
20
140.7246
0
VERTEX
8
CUT
10
222.2589
20
140.6888
0
VERTEX
8
CUT
10
222.0249
20
140.6301
0
VERTEX
8
CUT
10
221.7975
20
140.5492
0
VERTEX
8
CUT
10
221.5791
20
140.4467
0
VERTEX
8
CUT
10
221.3716
20
140.3237
0
VERTEX
8
CUT
10
221.1768
20
140.1812
0
VERTEX
8
CUT
10
220.9968
20
140.0206
0
VERTEX
8
CUT
10
220.8330
20
139.8434
0
VERTEX
8
CUT
10
220.6871
20
139.6512
0
VERTEX
8
CUT
10
220.5604
20
139.4459
0
VERTEX
8
CUT
10
220.2368
20
138.8600
0
VERTEX
8
CUT
10
220.2274
20
138.8439
0
VERTEX
8
CUT
10
220.2059
20
138.8123
0
VERTEX
8
CUT
10
220.1815
20
138.7828
0
VERTEX
8
CUT
10
220.1687
20
138.7694
0
SEQEND
0
POLYLINE
8
CUT
66
1
70
1
10
0.0
20
0.0
30
0.0
0
VERTEX
8
CUT
10
201.3158
20
139.4127
0
VERTEX
8
CUT
10
201.0841
20
139.3344
0
VERTEX
8
CUT
10
200.8611
20
139.2339
0
VERTEX
8
CUT
10
200.6490
20
139.1120
0
VERTEX
8
CUT
10
200.4498
20
138.9700
0
VERTEX
8
CUT
10
200.2655
20
138.8092
0
VERTEX
8
CUT
10
200.0978
20
138.6312
0
VERTEX
8
CUT
10
199.9482
20
138.4376
0
VERTEX
8
CUT
10
199.8183
20
138.2303
0
VERTEX
8
CUT
10
199.7093
20
138.0114
0
VERTEX
8
CUT
10
199.6222
20
137.7828
0
VERTEX
8
CUT
10
199.5579
20
137.5468
0
VERTEX
8
CUT
10
199.5169
20
137.3057
0
VERTEX
8
CUT
10
199.4997
20
137.0617
0
VERTEX
8
CUT
10
199.5064
20
136.8171
0
VERTEX
8
CUT
10
199.5370
20
136.5745
0
VERTEX
8
CUT
10
199.5911
20
136.3359
0
VERTEX
8
CUT
10
199.6683
20
136.1038
0
VERTEX
8
CUT
10
199.7678
20
135.8804
0
VERTEX
8
CUT
10
199.8887
20
135.6677
0
VERTEX
8
CUT
10
200.0298
20
135.4679
0
VERTEX
8
CUT
10
200.1897
20
135.2828
0
VERTEX
8
CUT
10
200.3669
20
135.1142
0
VERTEX
8
CUT
10
200.5598
20
134.9638
0
VERTEX
8
CUT
10
201.5383
20
134.2748
0
VERTEX
8
CUT
10
201.6944
20
134.1734
0
VERTEX
8
CUT
10
201.8576
20
134.0839
0
VERTEX
8
CUT
10
203.8588
20
133.0811
0
VERTEX
8
CUT
10
204.0577
20
132.9920
0
VERTEX
8
CUT
10
204.2637
20
132.9207
0
VERTEX
8
CUT
10
206.8845
20
132.1383
0
VERTEX
8
CUT
10
207.1816
20
132.0690
0
VERTEX
8
CUT
10
208.5659
20
131.8343
0
VERTEX
8
CUT
10
208.7788
20
131.8075
0
VERTEX
8
CUT
10
208.9932
20
131.7991
0
VERTEX
8
CUT
10
212.3548
20
131.8117
0
VERTEX
8
CUT
10
212.6017
20
131.8249
0
VERTEX
8
CUT
10
212.8462
20
131.8624
0
VERTEX
8
CUT
10
213.0858
20
131.9239
0
VERTEX
8
CUT
10
213.3181
20
132.0087
0
VERTEX
8
CUT
10
213.5409
20
132.1161
0
VERTEX
8
CUT
10
213.7521
20
132.2450
0
VERTEX
8
CUT
10
213.9494
20
132.3941
0
VERTEX
8
CUT
10
214.1310
20
132.5620
0
VERTEX
8
CUT
10
214.2952
20
132.7471
0
VERTEX
8
CUT
10
214.4403
20
132.9474
0
VERTEX
8
CUT
10
214.5648
20
133.1611
0
VERTEX
8
CUT
10
214.6677
20
133.3860
0
VERTEX
8
CUT
10
214.7478
20
133.6200
0
VERTEX
8
CUT
10
214.8044
20
133.8608
0
VERTEX
8
CUT
10
214.8369
20
134.1060
0
VERTEX
8
CUT
10
214.8450
20
134.3532
0
VERTEX
8
CUT
10
214.8287
20
134.6000
0
VERTEX
8
CUT
10
214.7880
20
134.8440
0
VERTEX
8
CUT
10
214.7235
20
135.0828
0
VERTEX
8
CUT
10
214.6356
20
135.3140
0
VERTEX
8
CUT
10
214.5254
20
135.5354
0
VERTEX
8
CUT
10
214.3938
20
135.7448
0
VERTEX
8
CUT
10
214.2422
20
135.9403
0
VERTEX
8
CUT
10
214.0720
20
136.1197
0
VERTEX
8
CUT
10
213.9629
20
136.2140
0
VERTEX
8
CUT
10
213.9257
20
136.2495
0
VERTEX
8
CUT
10
213.8994
20
136.2801
0
VERTEX
8
CUT
10
213.8879
20
136.2957
0
VERTEX
8
CUT
10
213.6464
20
136.6407
0
VERTEX
8
CUT
10
213.6362
20
136.6561
0
VERTEX
8
CUT
10
213.6175
20
136.6890
0
VERTEX
8
CUT
10
213.6085
20
136.7258
0
VERTEX
8
CUT
10
213.6055
20
136.7440
0
VERTEX
8
CUT
10
213.5197
20
137.3327
0
VERTEX
8
CUT
10
213.5175
20
137.3501
0
VERTEX
8
CUT
10
213.5155
20
137.3864
0
VERTEX
8
CUT
10
213.5232
20
137.4220
0
VERTEX
8
CUT
10
213.5279
20
137.4385
0
VERTEX
8
CUT
10
213.7010
20
137.9973
0
VERTEX
8
CUT
10
213.7584
20
138.2180
0
VERTEX
8
CUT
10
213.7956
20
138.4430
0
VERTEX
8
CUT
10
213.8120
20
138.6704
0
VERTEX
8
CUT
10
213.8467
20
139.9692
0
VERTEX
8
CUT
10
213.8475
20
139.9865
0
VERTEX
8
CUT
10
213.8516
20
140.0221
0
VERTEX
8
CUT
10
213.8617
20
140.0562
0
VERTEX
8
CUT
10
213.8678
20
140.0726
0
VERTEX
8
CUT
10
213.8844
20
140.1145
0
VERTEX
8
CUT
10
213.9602
20
140.3360
0
VERTEX
8
CUT
10
214.0150
20
140.5636
0
VERTEX
8
CUT
10
214.0483
20
140.7954
0
VERTEX
8
CUT
10
214.0597
20
141.0292
0
VERTEX
8
CUT
10
214.0493
20
141.2631
0
VERTEX
8
CUT
10
214.0169
20
141.4950
0
VERTEX
8
CUT
10
213.9631
20
141.7229
0
VERTEX
8
CUT
10
213.8881
20
141.9447
0
VERTEX
8
CUT
10
213.8829
20
141.9579
0
VERTEX
8
CUT
10
213.8720
20
141.9924
0
VERTEX
8
CUT
10
213.8674
20
142.0279
0
VERTEX
8
CUT
10
213.8662
20
142.0455
0
VERTEX
8
CUT
10
213.8140
20
143.2936
0
VERTEX
8
CUT
10
213.7909
20
143.5441
0
VERTEX
8
CUT
10
213.7427
20
143.7910
0
VERTEX
8
CUT
10
213.2734
20
145.6828
0
VERTEX
8
CUT
10
213.1914
20
145.9490
0
VERTEX
8
CUT
10
213.0802
20
146.2044
0
VERTEX
8
CUT
10
212.1486
20
148.0562
0
VERTEX
8
CUT
10
212.0398
20
148.2505
0
VERTEX
8
CUT
10
211.9141
20
148.4344
0
VERTEX
8
CUT
10
211.1525
20
149.4480
0
VERTEX
8
CUT
10
211.0238
20
149.6056
0
VERTEX
8
CUT
10
210.8826
20
149.7522
0
VERTEX
8
CUT
10
210.4965
20
150.1218
0
VERTEX
8
CUT
10
210.3389
20
150.2605
0
VERTEX
8
CUT
10
210.1702
20
150.3855
0
VERTEX
8
CUT
10
209.9916
20
150.4959
0
VERTEX
8
CUT
10
209.3257
20
150.8698
0
VERTEX
8
CUT
10
209.1072
20
150.9788
0
VERTEX
8
CUT
10
208.8791
20
151.0659
0
VERTEX
8
CUT
10
208.6436
20
151.1304
0
VERTEX
8
CUT
10
208.4029
20
151.1717
0
VERTEX
8
CUT
10
208.1594
20
151.1892
0
VERTEX
8
CUT
10
207.9152
20
151.1829
0
VERTEX
8
CUT
10
207.6729
20
151.1528
0
VERTEX
8
CUT
10
207.4347
20
151.0992
0
VERTEX
8
CUT
10
207.2028
20
151.0226
0
VERTEX
8
CUT
10
206.9795
20
150.9238
0
VERTEX
8
CUT
10
206.1773
20
150.5208
0
VERTEX
8
CUT
10
205.9593
20
150.3972
0
VERTEX
8
CUT
10
205.7548
20
150.2525
0
VERTEX
8
CUT
10
205.5658
20
150.0880
0
VERTEX
8
CUT
10
204.7140
20
149.2680
0
VERTEX
8
CUT
10
204.5602
20
149.1062
0
VERTEX
8
CUT
10
204.4215
20
148.9312
0
VERTEX
8
CUT
10
203.9361
20
148.2596
0
VERTEX
8
CUT
10
203.7892
20
148.0311
0
VERTEX
8
CUT
10
203.6680
20
147.7880
0
VERTEX
8
CUT
10
202.9370
20
146.0986
0
VERTEX
8
CUT
10
202.8235
20
145.7779
0
VERTEX
8
CUT
10
202.3705
20
144.1547
0
VERTEX
8
CUT
10
202.3069
20
143.8584
0
VERTEX
8
CUT
10
202.2796
20
143.5566
0
VERTEX
8
CUT
10
202.1724
20
139.9337
0
VERTEX
8
CUT
10
202.1713
20
139.9138
0
VERTEX
8
CUT
10
202.1660
20
139.8731
0
VERTEX
8
CUT
10
202.1450
20
139.8379
0
VERTEX
8
CUT
10
202.1335
20
139.8215
0
VERTEX
8
CUT
10
202.0013
20
139.6438
0
VERTEX
8
CUT
10
201.9900
20
139.6293
0
VERTEX
8
CUT
10
201.9648
20
139.6012
0
VERTEX
8
CUT
10
201.9296
20
139.5876
0
VERTEX
8
CUT
10
201.9120
20
139.5822
0
SEQEND
0
POLYLINE
8
CUT
66
1
70
1
10
0.0
20
0.0
30
0.0
0
VERTEX
8
CUT
10
193.6643
20
155.1210
0
VERTEX
8
CUT
10
193.4817
20
155.2090
0
VERTEX
8
CUT
10
193.2499
20
155.2936
0
VERTEX
8
CUT
10
193.0109
20
155.3550
0
VERTEX
8
CUT
10
192.7670
20
155.3926
0
VERTEX
8
CUT
10
192.5206
20
155.4059
0
VERTEX
8
CUT
10
192.2740
20
155.3948
0
VERTEX
8
CUT
10
192.0298
20
155.3595
0
VERTEX
8
CUT
10
191.7902
20
155.3003
0
VERTEX
8
CUT
10
191.5577
20
155.2178
0
VERTEX
8
CUT
10
191.3344
20
155.1127
0
VERTEX
8
CUT
10
191.1225
20
154.9861
0
VERTEX
8
CUT
10
190.9242
20
154.8393
0
VERTEX
8
CUT
10
190.7413
20
154.6736
0
VERTEX
8
CUT
10
190.5756
20
154.4907
0
VERTEX
8
CUT
10
190.4288
20
154.2924
0
VERTEX
8
CUT
10
190.3022
20
154.0805
0
VERTEX
8
CUT
10
190.1972
20
153.8572
0
VERTEX
8
CUT
10
190.1147
20
153.6247
0
VERTEX
8
CUT
10
190.0555
20
153.3851
0
VERTEX
8
CUT
10
190.0202
20
153.1409
0
VERTEX
8
CUT
10
190.0091
20
152.8943
0
VERTEX
8
CUT
10
190.0225
20
152.6479
0
VERTEX
8
CUT
10
190.0600
20
152.4040
0
VERTEX
8
CUT
10
190.1214
20
152.1650
0
VERTEX
8
CUT
10
191.1320
20
148.9084
0
VERTEX
8
CUT
10
191.2119
20
148.6879
0
VERTEX
8
CUT
10
192.0881
20
146.5848
0
VERTEX
8
CUT
10
192.1917
20
146.3664
0
VERTEX
8
CUT
10
192.3160
20
146.1590
0
VERTEX
8
CUT
10
192.4598
20
145.9645
0
VERTEX
8
CUT
10
192.6217
20
145.7849
0
VERTEX
8
CUT
10
192.8001
20
145.6217
0
VERTEX
8
CUT
10
192.9935
20
145.4765
0
VERTEX
8
CUT
10
193.2000
20
145.3508
0
VERTEX
8
CUT
10
193.4177
20
145.2455
0
VERTEX
8
CUT
10
193.6446
20
145.1618
0
VERTEX
8
CUT
10
193.8785
20
145.1003
0
VERTEX
8
CUT
10
194.1172
20
145.0618
0
VERTEX
8
CUT
10
194.3585
20
145.0465
0
VERTEX
8
CUT
10
194.6002
20
145.0546
0
VERTEX
8
CUT
10
194.8400
20
145.0860
0
VERTEX
8
CUT
10
195.0756
20
145.1404
0
VERTEX
8
CUT
10
195.3048
20
145.2174
0
VERTEX
8
CUT
10
195.5256
20
145.3161
0
VERTEX
8
CUT
10
195.7358
20
145.4357
0
VERTEX
8
CUT
10
195.9334
20
145.5750
0
VERTEX
8
CUT
10
196.1166
20
145.7328
0
VERTEX
8
CUT
10
196.2838
20
145.9075
0
VERTEX
8
CUT
10
196.4333
20
146.0976
0
VERTEX
8
CUT
10
196.5637
20
146.3012
0
VERTEX
8
CUT
10
196.6739
20
146.5164
0
VERTEX
8
CUT
10
196.7627
20
146.7414
0
VERTEX
8
CUT
10
196.8294
20
146.9738
0
VERTEX
8
CUT
10
196.8733
20
147.2116
0
VERTEX
8
CUT
10
196.8847
20
147.3441
0
VERTEX
8
CUT
10
196.8850
20
147.3441
0
VERTEX
8
CUT
10
196.8966
20
147.4545
0
VERTEX
8
CUT
10
196.9098
20
147.4885
0
VERTEX
8
CUT
10
196.9171
20
147.5041
0
VERTEX
8
CUT
10
197.8156
20
149.3156
0
VERTEX
8
CUT
10
197.8253
20
149.3338
0
VERTEX
8
CUT
10
197.8480
20
149.3697
0
VERTEX
8
CUT
10
197.8744
20
149.4031
0
VERTEX
8
CUT
10
197.8884
20
149.4182
0
VERTEX
8
CUT
10
198.0616
20
149.5961
0
VERTEX
8
CUT
10
198.2231
20
149.7788
0
VERTEX
8
CUT
10
198.3660
20
149.9765
0
VERTEX
8
CUT
10
198.4889
20
150.1871
0
VERTEX
8
CUT
10
198.5908
20
150.4087
0
VERTEX
8
CUT
10
198.6705
20
150.6392
0
VERTEX
8
CUT
10
198.7274
20
150.8764
0
VERTEX
8
CUT
10
198.7610
20
151.1180
0
VERTEX
8
CUT
10
198.7708
20
151.3617
0
VERTEX
8
CUT
10
198.7569
20
151.6052
0
VERTEX
8
CUT
10
198.7193
20
151.8461
0
VERTEX
8
CUT
10
198.6583
20
152.0823
0
VERTEX
8
CUT
10
198.5747
20
152.3114
0
VERTEX
8
CUT
10
198.4692
20
152.5313
0
VERTEX
8
CUT
10
198.3427
20
152.7398
0
VERTEX
8
CUT
10
198.1965
20
152.9350
0
VERTEX
8
CUT
10
198.0319
20
153.1151
0
VERTEX
8
CUT
10
197.8507
20
153.2782
0
VERTEX
8
CUT
10
197.6543
20
153.4229
0
VERTEX
8
CUT
10
197.4448
20
153.5478
0
VERTEX
8
CUT
10
197.2242
20
153.6517
0
VERTEX
8
CUT
10
196.9944
20
153.7336
0
VERTEX
8
CUT
10
196.7578
20
153.7927
0
VERTEX
8
CUT
10
196.1167
20
153.9200
0
VERTEX
8
CUT
10
196.0935
20
153.9254
0
VERTEX
8
CUT
10
195.9995
20
153.9561
0
VERTEX
8
CUT
10
195.9776
20
153.9656
0
VERTEX
8
CUT
10
195.4199
20
154.2259
0
VERTEX
8
CUT
10
195.4065
20
154.2323
0
VERTEX
8
CUT
10
195.3772
20
154.2468
0
VERTEX
8
CUT
10
193.6649
20
155.1222
0
SEQEND
0
POLYLINE
8
CUT
66
1
70
1
10
0.0
20
0.0
30
0.0
0
VERTEX
8
CUT
10
169.5509
20
75.5719
0
VERTEX
8
CUT
10
169.4679
20
75.3412
0
VERTEX
8
CUT
10
169.4078
20
75.1036
0
VERTEX
8
CUT
10
169.3713
20
74.8612
0
VERTEX
8
CUT
10
169.3587
20
74.6164
0
VERTEX
8
CUT
10
169.3701
20
74.3716
0
VERTEX
8
CUT
10
169.4055
20
74.1290
0
VERTEX
8
CUT
10
169.4644
20
73.8911
0
VERTEX
8
CUT
10
169.5464
20
73.6601
0
VERTEX
8
CUT
10
169.6506
20
73.4382
0
VERTEX
8
CUT
10
169.7760
20
73.2276
0
VERTEX
8
CUT
10
169.9214
20
73.0303
0
VERTEX
8
CUT
10
170.0855
20
72.8482
0
VERTEX
8
CUT
10
170.2666
20
72.6830
0
VERTEX
8
CUT
10
170.4630
20
72.5363
0
VERTEX
8
CUT
10
170.6728
20
72.4096
0
VERTEX
8
CUT
10
170.8940
20
72.3041
0
VERTEX
8
CUT
10
171.1246
20
72.2207
0
VERTEX
8
CUT
10
171.3621
20
72.1603
0
VERTEX
8
CUT
10
171.6044
20
72.1234
0
VERTEX
8
CUT
10
171.8492
20
72.1105
0
VERTEX
8
CUT
10
172.0941
20
72.1216
0
VERTEX
8
CUT
10
172.3367
20
72.1566
0
VERTEX
8
CUT
10
172.5747
20
72.2152
0
VERTEX
8
CUT
10
172.8058
20
72.2968
0
VERTEX
8
CUT
10
173.0279
20
72.4007
0
VERTEX
8
CUT
10
173.2386
20
72.5258
0
VERTEX
8
CUT
10
173.4362
20
72.6710
0
VERTEX
8
CUT
10
173.6185
20
72.8348
0
VERTEX
8
CUT
10
175.3866
20
74.5871
0
VERTEX
8
CUT
10
175.4264
20
74.6249
0
VERTEX
8
CUT
10
175.4679
20
74.6608
0
VERTEX
8
CUT
10
177.0756
20
75.9910
0
VERTEX
8
CUT
10
177.1094
20
76.0180
0
VERTEX
8
CUT
10
177.1441
20
76.0437
0
VERTEX
8
CUT
10
179.2633
20
77.5585
0
VERTEX
8
CUT
10
179.2793
20
77.5694
0
VERTEX
8
CUT
10
179.3487
20
77.6094
0
VERTEX
8
CUT
10
179.3662
20
77.6179
0
VERTEX
8
CUT
10
182.4630
20
79.0223
0
VERTEX
8
CUT
10
182.5389
20
79.0536
0
VERTEX
8
CUT
10
182.6168
20
79.0799
0
VERTEX
8
CUT
10
185.4514
20
79.9302
0
VERTEX
8
CUT
10
185.4721
20
79.9359
0
VERTEX
8
CUT
10
185.5595
20
79.9521
0
VERTEX
8
CUT
10
185.5809
20
79.9542
0
VERTEX
8
CUT
10
186.2348
20
80.0035
0
VERTEX
8
CUT
10
186.5023
20
80.0383
0
VERTEX
8
CUT
10
186.7645
20
80.1017
0
VERTEX
8
CUT
10
187.0184
20
80.1929
0
VERTEX
8
CUT
10
187.2609
20
80.3110
0
VERTEX
8
CUT
10
187.4893
20
80.4545
0
VERTEX
8
CUT
10
187.5678
20
80.5100
0
VERTEX
8
CUT
10
187.7569
20
80.6576
0
VERTEX
8
CUT
10
187.9309
20
80.8227
0
VERTEX
8
CUT
10
188.0883
20
81.0037
0
VERTEX
8
CUT
10
188.2277
20
81.1989
0
VERTEX
8
CUT
10
188.3477
20
81.4066
0
VERTEX
8
CUT
10
188.4472
20
81.6248
0
VERTEX
8
CUT
10
188.5254
20
81.8516
0
VERTEX
8
CUT
10
188.5814
20
82.0848
0
VERTEX
8
CUT
10
188.6149
20
82.3223
0
VERTEX
8
CUT
10
188.6255
20
82.5620
0
VERTEX
8
CUT
10
188.6220
20
83.4221
0
VERTEX
8
CUT
10
188.6077
20
83.6797
0
VERTEX
8
CUT
10
188.5668
20
83.9345
0
VERTEX
8
CUT
10
188.4999
20
84.1837
0
VERTEX
8
CUT
10
188.4077
20
84.4247
0
VERTEX
8
CUT
10
187.5413
20
86.3802
0
VERTEX
8
CUT
10
187.3791
20
86.6869
0
VERTEX
8
CUT
10
186.6136
20
87.9191
0
VERTEX
8
CUT
10
186.5050
20
88.0795
0
VERTEX
8
CUT
10
186.3844
20
88.2311
0
VERTEX
8
CUT
10
184.4636
20
90.4615
0
VERTEX
8
CUT
10
184.2535
20
90.6777
0
VERTEX
8
CUT
10
178.1680
20
96.2253
0
VERTEX
8
CUT
10
178.1467
20
96.2452
0
VERTEX
8
CUT
10
178.1259
20
96.2655
0
VERTEX
8
CUT
10
177.2685
20
97.1252
0
VERTEX
8
CUT
10
177.0853
20
97.2916
0
VERTEX
8
CUT
10
176.8864
20
97.4391
0
VERTEX
8
CUT
10
176.6740
20
97.5662
0
VERTEX
8
CUT
10
176.4500
20
97.6716
0
VERTEX
8
CUT
10
176.2167
20
97.7544
0
VERTEX
8
CUT
10
175.9763
20
97.8137
0
VERTEX
8
CUT
10
175.7313
20
97.8489
0
VERTEX
8
CUT
10
175.4840
20
97.8597
0
VERTEX
8
CUT
10
175.2368
20
97.8461
0
VERTEX
8
CUT
10
174.9922
20
97.8080
0
VERTEX
8
CUT
10
174.7525
20
97.7459
0
VERTEX
8
CUT
10
174.5202
20
97.6605
0
VERTEX
8
CUT
10
174.2975
20
97.5524
0
VERTEX
8
CUT
10
174.0865
20
97.4229
0
VERTEX
8
CUT
10
173.8894
20
97.2732
0
VERTEX
8
CUT
10
173.7080
20
97.1047
0
VERTEX
8
CUT
10
173.5442
20
96.9190
0
VERTEX
8
CUT
10
173.3996
20
96.7181
0
VERTEX
8
CUT
10
173.2756
20
96.5039
0
VERTEX
8
CUT
10
173.1733
20
96.2784
0
VERTEX
8
CUT
10
173.0938
20
96.0440
0
VERTEX
8
CUT
10
173.0380
20
95.8028
0
VERTEX
8
CUT
10
173.0062
20
95.5573
0
VERTEX
8
CUT
10
172.9989
20
95.3098
0
VERTEX
8
CUT
10
173.0077
20
94.8694
0
VERTEX
8
CUT
10
173.0237
20
94.6328
0
VERTEX
8
CUT
10
173.0620
20
94.3987
0
VERTEX
8
CUT
10
173.1224
20
94.1694
0
VERTEX
8
CUT
10
173.2511
20
93.7599
0
VERTEX
8
CUT
10
173.2566
20
93.7407
0
VERTEX
8
CUT
10
173.2650
20
93.7004
0
VERTEX
8
CUT
10
173.2692
20
93.6594
0
VERTEX
8
CUT
10
173.2698
20
93.6394
0
VERTEX
8
CUT
10
173.2763
20
91.2217
0
VERTEX
8
CUT
10
173.2759
20
91.2032
0
VERTEX
8
CUT
10
173.2725
20
91.1652
0
VERTEX
8
CUT
10
173.2655
20
91.1276
0
VERTEX
8
CUT
10
173.2608
20
91.1097
0
VERTEX
8
CUT
10
173.1068
20
90.5679
0
VERTEX
8
CUT
10
173.0570
20
90.3592
0
VERTEX
8
CUT
10
173.0253
20
90.1470
0
VERTEX
8
CUT
10
173.0120
20
89.9328
0
VERTEX
8
CUT
10
172.9766
20
88.1155
0
VERTEX
8
CUT
10
172.9756
20
88.0942
0
VERTEX
8
CUT
10
172.9701
20
88.0506
0
VERTEX
8
CUT
10
172.9599
20
88.0079
0
VERTEX
8
CUT
10
172.9533
20
87.9876
0
VERTEX
8
CUT
10
172.8522
20
87.7038
0
VERTEX
8
CUT
10
172.7788
20
87.4585
0
VERTEX
8
CUT
10
172.7309
20
87.2070
0
VERTEX
8
CUT
10
172.7089
20
86.9519
0
VERTEX
8
CUT
10
172.6733
20
85.9237
0
VERTEX
8
CUT
10
172.6723
20
85.9060
0
VERTEX
8
CUT
10
172.6678
20
85.8695
0
VERTEX
8
CUT
10
172.6600
20
85.8335
0
VERTEX
8
CUT
10
172.6552
20
85.8169
0
VERTEX
8
CUT
10
172.1932
20
84.3372
0
VERTEX
8
CUT
10
172.1131
20
84.0001
0
VERTEX
8
CUT
10
171.7871
20
82.0289
0
VERTEX
8
CUT
10
171.7862
20
82.0237
0
VERTEX
8
CUT
10
171.7678
20
81.9483
0
VERTEX
8
CUT
10
171.7624
20
81.9307
0
VERTEX
8
CUT
10
170.0211
20
76.7088
0
VERTEX
8
CUT
10
170.0062
20
76.6668
0
VERTEX
8
CUT
10
169.9898
20
76.6253
0
SEQEND
0
POLYLINE
8
CUT
66
1
70
1
10
0.0
20
0.0
30
0.0
0
VERTEX
8
CUT
10
171.1610
20
170.9721
0
VERTEX
8
CUT
10
171.0034
20
170.7864
0
VERTEX
8
CUT
10
170.8646
20
170.5863
0
VERTEX
8
CUT
10
170.8250
20
170.5229
0
VERTEX
8
CUT
10
170.7057
20
170.3090
0
VERTEX
8
CUT
10
170.6080
20
170.0844
0
VERTEX
8
CUT
10
170.5326
20
169.8514
0
VERTEX
8
CUT
10
170.4805
20
169.6121
0
VERTEX
8
CUT
10
170.4519
20
169.3688
0
VERTEX
8
CUT
10
170.4474
20
169.1240
0
VERTEX
8
CUT
10
170.4668
20
168.8798
0
VERTEX
8
CUT
10
170.5100
20
168.6387
0
VERTEX
8
CUT
10
170.5766
20
168.4030
0
VERTEX
8
CUT
10
170.6659
20
168.1750
0
VERTEX
8
CUT
10
170.7771
20
167.9568
0
VERTEX
8
CUT
10
170.9091
20
167.7505
0
VERTEX
8
CUT
10
171.0607
20
167.5581
0
VERTEX
8
CUT
10
171.2304
20
167.3815
0
VERTEX
8
CUT
10
171.4165
20
167.2224
0
VERTEX
8
CUT
10
171.6174
20
167.0822
0
VERTEX
8
CUT
10
171.8309
20
166.9623
0
VERTEX
8
CUT
10
172.0552
20
166.8639
0
VERTEX
8
CUT
10
172.2881
20
166.7880
0
VERTEX
8
CUT
10
172.5272
20
166.7351
0
VERTEX
8
CUT
10
172.7704
20
166.7060
0
VERTEX
8
CUT
10
173.0152
20
166.7007
0
VERTEX
8
CUT
10
173.2594
20
166.7195
0
VERTEX
8
CUT
10
173.5006
20
166.7620
0
VERTEX
8
CUT
10
177.6631
20
167.7087
0
VERTEX
8
CUT
10
177.6833
20
167.7127
0
VERTEX
8
CUT
10
177.7682
20
167.7229
0
VERTEX
8
CUT
10
177.7888
20
167.7238
0
VERTEX
8
CUT
10
182.4527
20
167.7973
0
VERTEX
8
CUT
10
182.6946
20
167.8129
0
VERTEX
8
CUT
10
182.9338
20
167.8518
0
VERTEX
8
CUT
10
183.1681
20
167.9137
0
VERTEX
8
CUT
10
183.3953
20
167.9980
0
VERTEX
8
CUT
10
183.6133
20
168.1039
0
VERTEX
8
CUT
10
183.8200
20
168.2304
0
VERTEX
8
CUT
10
184.0135
20
168.3763
0
VERTEX
8
CUT
10
184.1920
20
168.5402
0
VERTEX
8
CUT
10
184.3537
20
168.7207
0
VERTEX
8
CUT
10
184.4972
20
168.9160
0
VERTEX
8
CUT
10
184.6212
20
169.1243
0
VERTEX
8
CUT
10
184.7243
20
169.3436
0
VERTEX
8
CUT
10
184.8058
20
169.5718
0
VERTEX
8
CUT
10
184.8648
20
169.8069
0
VERTEX
8
CUT
10
184.9007
20
170.0465
0
VERTEX
8
CUT
10
184.9133
20
170.2886
0
VERTEX
8
CUT
10
184.9024
20
170.5307
0
VERTEX
8
CUT
10
184.8680
20
170.7706
0
VERTEX
8
CUT
10
184.8107
20
171.0060
0
VERTEX
8
CUT
10
184.7307
20
171.2348
0
VERTEX
8
CUT
10
184.6290
20
171.4548
0
VERTEX
8
CUT
10
184.5065
20
171.6639
0
VERTEX
8
CUT
10
184.3644
20
171.8602
0
VERTEX
8
CUT
10
184.2038
20
172.0417
0
VERTEX
8
CUT
10
183.9017
20
172.3518
0
VERTEX
8
CUT
10
183.7227
20
172.5184
0
VERTEX
8
CUT
10
183.5283
20
172.6667
0
VERTEX
8
CUT
10
181.2251
20
174.2514
0
VERTEX
8
CUT
10
181.2095
20
174.2627
0
VERTEX
8
CUT
10
181.1487
20
174.3139
0
VERTEX
8
CUT
10
181.1349
20
174.3273
0
VERTEX
8
CUT
10
179.7398
20
175.7524
0
VERTEX
8
CUT
10
179.7250
20
175.7682
0
VERTEX
8
CUT
10
179.6974
20
175.8035
0
VERTEX
8
CUT
10
179.6738
20
175.8415
0
VERTEX
8
CUT
10
179.6639
20
175.8608
0
VERTEX
8
CUT
10
179.6377
20
175.9155
0
VERTEX
8
CUT
10
179.5228
20
176.1285
0
VERTEX
8
CUT
10
179.3878
20
176.3295
0
VERTEX
8
CUT
10
179.2339
20
176.5164
0
VERTEX
8
CUT
10
179.0627
20
176.6876
0
VERTEX
8
CUT
10
178.8758
20
176.8415
0
VERTEX
8
CUT
10
178.6748
20
176.9765
0
VERTEX
8
CUT
10
178.4618
20
177.0914
0
VERTEX
8
CUT
10
178.2386
20
177.1853
0
VERTEX
8
CUT
10
178.0074
20
177.2570
0
VERTEX
8
CUT
10
177.7703
20
177.3061
0
VERTEX
8
CUT
10
177.5296
20
177.3320
0
VERTEX
8
CUT
10
177.2875
20
177.3346
0
VERTEX
8
CUT
10
177.0463
20
177.3136
0
VERTEX
8
CUT
10
176.8083
20
177.2695
0
VERTEX
8
CUT
10
176.5756
20
177.2025
0
VERTEX
8
CUT
10
176.3505
20
177.1134
0
VERTEX
8
CUT
10
176.1351
20
177.0029
0
VERTEX
8
CUT
10
175.9314
20
176.8720
0
VERTEX
8
CUT
10
175.7413
20
176.7221
0
VERTEX
8
CUT
10
175.5666
20
176.5545
0
VERTEX
8
CUT
10
175.4089
20
176.3708
0
VERTEX
8
CUT
10
175.2698
20
176.1727
0
VERTEX
8
CUT
10
175.1504
20
175.9621
0
VERTEX
8
CUT
10
175.0520
20
175.7409
0
VERTEX
8
CUT
10
174.9863
20
175.5715
0
VERTEX
8
CUT
10
174.9797
20
175.5557
0
VERTEX
8
CUT
10
174.9640
20
175.5238
0
VERTEX
8
CUT
10
174.9456
20
175.4932
0
VERTEX
8
CUT
10
174.9361
20
175.4795
0
VERTEX
8
CUT
10
173.4198
20
173.3975
0
VERTEX
8
CUT
10
173.3735
20
173.3380
0
VERTEX
8
CUT
10
173.3238
20
173.2815
0
SEQEND
0
POLYLINE
8
CUT
66
1
70
1
10
0.0
20
0.0
30
0.0
0
VERTEX
8
CUT
10
175.2701
20
180.0372
0
VERTEX
8
CUT
10
175.3193
20
179.9639
0
VERTEX
8
CUT
10
175.4785
20
179.7718
0
VERTEX
8
CUT
10
175.6560
20
179.5965
0
VERTEX
8
CUT
10
175.8501
20
179.4398
0
VERTEX
8
CUT
10
176.0589
20
179.3033
0
VERTEX
8
CUT
10
176.2802
20
179.1882
0
VERTEX
8
CUT
10
176.5119
20
179.0957
0
VERTEX
8
CUT
10
176.7516
20
179.0268
0
VERTEX
8
CUT
10
176.9971
20
178.9821
0
VERTEX
8
CUT
10
177.2457
20
178.9621
0
VERTEX
8
CUT
10
177.4951
20
178.9670
0
VERTEX
8
CUT
10
177.7428
20
178.9967
0
VERTEX
8
CUT
10
177.9863
20
179.0510
0
VERTEX
8
CUT
10
178.2232
20
179.1292
0
VERTEX
8
CUT
10
178.4511
20
179.2307
0
VERTEX
8
CUT
10
178.6677
20
179.3544
0
VERTEX
8
CUT
10
178.8710
20
179.4990
0
VERTEX
8
CUT
10
179.0588
20
179.6632
0
VERTEX
8
CUT
10
179.2293
20
179.8453
0
VERTEX
8
CUT
10
179.3808
20
180.0434
0
VERTEX
8
CUT
10
179.5118
20
180.2557
0
VERTEX
8
CUT
10
179.7242
20
180.6417
0
VERTEX
8
CUT
10
179.8336
20
180.8663
0
VERTEX
8
CUT
10
179.9199
20
181.1007
0
VERTEX
8
CUT
10
179.9825
20
181.3425
0
VERTEX
8
CUT
10
180.0206
20
181.5893
0
VERTEX
8
CUT
10
180.0339
20
181.8388
0
VERTEX
8
CUT
10
180.0222
20
182.0883
0
VERTEX
8
CUT
10
179.9857
20
182.3354
0
VERTEX
8
CUT
10
179.9247
20
182.5776
0
VERTEX
8
CUT
10
179.8399
20
182.8126
0
VERTEX
8
CUT
10
179.7320
20
183.0379
0
VERTEX
8
CUT
10
179.6022
20
183.2513
0
VERTEX
8
CUT
10
179.4517
20
183.4507
0
VERTEX
8
CUT
10
179.2821
20
183.6340
0
VERTEX
8
CUT
10
179.0951
20
183.7996
0
VERTEX
8
CUT
10
178.8924
20
183.9456
0
VERTEX
8
CUT
10
178.6762
20
184.0707
0
VERTEX
8
CUT
10
178.4486
20
184.1736
0
VERTEX
8
CUT
10
178.2118
20
184.2533
0
VERTEX
8
CUT
10
177.9683
20
184.3089
0
VERTEX
8
CUT
10
177.7205
20
184.3400
0
VERTEX
8
CUT
10
177.4708
20
184.3461
0
VERTEX
8
CUT
10
177.4268
20
184.3450
0
VERTEX
8
CUT
10
177.0119
20
184.3434
0
VERTEX
8
CUT
10
176.7629
20
184.3300
0
VERTEX
8
CUT
10
176.5165
20
184.2918
0
VERTEX
8
CUT
10
176.2751
20
184.2293
0
VERTEX
8
CUT
10
176.0411
20
184.1430
0
VERTEX
8
CUT
10
175.8169
20
184.0339
0
VERTEX
8
CUT
10
175.6047
20
183.9030
0
VERTEX
8
CUT
10
175.4066
20
183.7516
0
VERTEX
8
CUT
10
175.2245
20
183.5812
0
VERTEX
8
CUT
10
175.0604
20
183.3935
0
VERTEX
8
CUT
10
174.9157
20
183.1904
0
VERTEX
8
CUT
10
174.7920
20
182.9739
0
VERTEX
8
CUT
10
174.6905
20
182.7462
0
VERTEX
8
CUT
10
174.6121
20
182.5095
0
VERTEX
8
CUT
10
174.5578
20
182.2661
0
VERTEX
8
CUT
10
174.5279
20
182.0186
0
VERTEX
8
CUT
10
174.5229
20
181.7693
0
VERTEX
8
CUT
10
174.5427
20
181.5207
0
VERTEX
8
CUT
10
174.5871
20
181.2754
0
VERTEX
8
CUT
10
174.6558
20
181.0357
0
VERTEX
8
CUT
10
174.7481
20
180.8040
0
VERTEX
8
CUT
10
174.8629
20
180.5827
0
VERTEX
8
CUT
10
174.9992
20
180.3739
0
VERTEX
8
CUT
10
175.1557
20
180.1797
0
VERTEX
8
CUT
10
175.1997
20
180.1304
0
SEQEND
0
POLYLINE
8
CUT
66
1
70
1
10
0.0
20
0.0
30
0.0
0
VERTEX
8
CUT
10
160.3737
20
136.6204
0
VERTEX
8
CUT
10
160.3848
20
136.5861
0
VERTEX
8
CUT
10
160.3896
20
136.5508
0
VERTEX
8
CUT
10
160.3908
20
136.5332
0
VERTEX
8
CUT
10
160.4289
20
135.7232
0
VERTEX
8
CUT
10
160.4527
20
135.4778
0
VERTEX
8
CUT
10
160.5005
20
135.2359
0
VERTEX
8
CUT
10
160.5719
20
134.9999
0
VERTEX
8
CUT
10
161.2745
20
133.0330
0
VERTEX
8
CUT
10
161.2810
20
133.0133
0
VERTEX
8
CUT
10
161.2909
20
132.9721
0
VERTEX
8
CUT
10
161.2832
20
132.9304
0
VERTEX
8
CUT
10
161.2779
20
132.9104
0
VERTEX
8
CUT
10
161.1325
20
132.4204
0
VERTEX
8
CUT
10
161.1267
20
132.4022
0
VERTEX
8
CUT
10
161.1117
20
132.3654
0
VERTEX
8
CUT
10
161.0732
20
132.2920
0
VERTEX
8
CUT
10
160.9716
20
132.0734
0
VERTEX
8
CUT
10
160.8916
20
131.8460
0
VERTEX
8
CUT
10
160.8338
20
131.6120
0
VERTEX
8
CUT
10
160.7989
20
131.3735
0
VERTEX
8
CUT
10
160.7870
20
131.1328
0
VERTEX
8
CUT
10
160.7985
20
130.8920
0
VERTEX
8
CUT
10
160.8330
20
130.6535
0
VERTEX
8
CUT
10
160.8903
20
130.4194
0
VERTEX
8
CUT
10
160.9700
20
130.1919
0
VERTEX
8
CUT
10
161.0711
20
129.9731
0
VERTEX
8
CUT
10
161.1929
20
129.7651
0
VERTEX
8
CUT
10
161.3341
20
129.5698
0
VERTEX
8
CUT
10
161.4935
20
129.3890
0
VERTEX
8
CUT
10
161.6696
20
129.2243
0
VERTEX
8
CUT
10
161.8607
20
129.0774
0
VERTEX
8
CUT
10
162.0650
20
128.9496
0
VERTEX
8
CUT
10
162.2807
20
128.8421
0
VERTEX
8
CUT
10
162.5058
20
128.7558
0
VERTEX
8
CUT
10
162.7381
20
128.6916
0
VERTEX
8
CUT
10
162.9755
20
128.6501
0
VERTEX
8
CUT
10
163.2159
20
128.6316
0
VERTEX
8
CUT
10
163.4568
20
128.6364
0
VERTEX
8
CUT
10
163.6962
20
128.6643
0
VERTEX
8
CUT
10
163.9318
20
128.7152
0
VERTEX
8
CUT
10
164.1615
20
128.7885
0
VERTEX
8
CUT
10
165.0311
20
129.1132
0
VERTEX
8
CUT
10
165.2587
20
129.2112
0
VERTEX
8
CUT
10
165.4754
20
129.3313
0
VERTEX
8
CUT
10
166.3807
20
129.8934
0
VERTEX
8
CUT
10
166.6152
20
130.0584
0
VERTEX
8
CUT
10
166.8294
20
130.2491
0
VERTEX
8
CUT
10
169.4607
20
132.8792
0
VERTEX
8
CUT
10
169.6198
20
133.0540
0
VERTEX
8
CUT
10
169.7616
20
133.2431
0
VERTEX
8
CUT
10
170.6691
20
134.5796
0
VERTEX
8
CUT
10
170.7858
20
134.7692
0
VERTEX
8
CUT
10
170.8852
20
134.9684
0
VERTEX
8
CUT
10
171.7925
20
137.0093
0
VERTEX
8
CUT
10
171.8851
20
137.2504
0
VERTEX
8
CUT
10
171.9523
20
137.4998
0
VERTEX
8
CUT
10
171.9934
20
137.7548
0
VERTEX
8
CUT
10
172.0309
20
138.1000
0
VERTEX
8
CUT
10
172.0332
20
138.1172
0
VERTEX
8
CUT
10
172.0402
20
138.1527
0
VERTEX
8
CUT
10
172.0504
20
138.1876
0
VERTEX
8
CUT
10
172.0563
20
138.2035
0
VERTEX
8
CUT
10
172.4408
20
139.1888
0
VERTEX
8
CUT
10
172.5341
20
139.4787
0
VERTEX
8
CUT
10
172.5914
20
139.7777
0
VERTEX
8
CUT
10
172.6551
20
140.2712
0
VERTEX
8
CUT
10
172.6745
20
140.5150
0
VERTEX
8
CUT
10
172.6700
20
140.7595
0
VERTEX
8
CUT
10
172.6416
20
141.0024
0
VERTEX
8
CUT
10
172.5897
20
141.2414
0
VERTEX
8
CUT
10
172.5146
20
141.4742
0
VERTEX
8
CUT
10
172.4171
20
141.6985
0
VERTEX
8
CUT
10
172.2982
20
141.9122
0
VERTEX
8
CUT
10
172.1590
20
142.1133
0
VERTEX
8
CUT
10
172.0008
20
142.2998
0
VERTEX
8
CUT
10
171.8251
20
142.4700
0
VERTEX
8
CUT
10
171.6336
20
142.6221
0
VERTEX
8
CUT
10
171.4282
20
142.7549
0
VERTEX
8
CUT
10
171.2108
20
142.8669
0
VERTEX
8
CUT
10
170.9835
20
142.9572
0
VERTEX
8
CUT
10
170.7485
20
143.0248
0
VERTEX
8
CUT
10
170.5079
20
143.0691
0
VERTEX
8
CUT
10
170.2642
20
143.0897
0
VERTEX
8
CUT
10
170.0197
20
143.0864
0
VERTEX
8
CUT
10
169.9470
20
143.0819
0
VERTEX
8
CUT
10
169.9089
20
143.0907
0
VERTEX
8
CUT
10
169.8908
20
143.0963
0
VERTEX
8
CUT
10
169.5441
20
143.2130
0
VERTEX
8
CUT
10
169.5268
20
143.2193
0
VERTEX
8
CUT
10
169.4921
20
143.2347
0
VERTEX
8
CUT
10
169.4683
20
143.2641
0
VERTEX
8
CUT
10
169.4576
20
143.2792
0
VERTEX
8
CUT
10
167.9763
20
145.4985
0
VERTEX
8
CUT
10
167.8045
20
145.7266
0
VERTEX
8
CUT
10
167.6078
20
145.9335
0
VERTEX
8
CUT
10
167.1633
20
146.3507
0
VERTEX
8
CUT
10
166.9660
20
146.5176
0
VERTEX
8
CUT
10
166.7525
20
146.6632
0
VERTEX
8
CUT
10
166.1338
20
147.0399
0
VERTEX
8
CUT
10
165.9099
20
147.1610
0
VERTEX
8
CUT
10
165.6748
20
147.2588
0
VERTEX
8
CUT
10
165.4310
20
147.3321
0
VERTEX
8
CUT
10
165.1810
20
147.3803
0
VERTEX
8
CUT
10
164.9274
20
147.4027
0
VERTEX
8
CUT
10
164.6728
20
147.3993
0
VERTEX
8
CUT
10
164.4199
20
147.3700
0
VERTEX
8
CUT
10
164.1713
20
147.3151
0
VERTEX
8
CUT
10
163.9296
20
147.2353
0
VERTEX
8
CUT
10
163.6972
20
147.1312
0
VERTEX
8
CUT
10
163.4021
20
146.9806
0
VERTEX
8
CUT
10
163.1881
20
146.8577
0
VERTEX
8
CUT
10
162.9872
20
146.7142
0
VERTEX
8
CUT
10
162.8014
20
146.5516
0
VERTEX
8
CUT
10
162.5783
20
146.3360
0
VERTEX
8
CUT
10
162.4241
20
146.1730
0
VERTEX
8
CUT
10
162.2851
20
145.9968
0
VERTEX
8
CUT
10
162.1625
20
145.8088
0
VERTEX
8
CUT
10
161.2065
20
144.1887
0
VERTEX
8
CUT
10
161.1004
20
143.9886
0
VERTEX
8
CUT
10
161.0128
20
143.7798
0
VERTEX
8
CUT
10
160.9444
20
143.5639
0
VERTEX
8
CUT
10
160.2384
20
140.9230
0
VERTEX
8
CUT
10
160.1913
20
140.7096
0
VERTEX
8
CUT
10
160.1629
20
140.4929
0
VERTEX
8
CUT
10
160.1536
20
140.2746
0
VERTEX
8
CUT
10
160.1565
20
137.6393
0
VERTEX
8
CUT
10
160.1692
20
137.3911
0
VERTEX
8
CUT
10
160.2064
20
137.1454
0
VERTEX
8
CUT
10
160.2678
20
136.9047
0
VERTEX
8
CUT
10
160.3527
20
136.6712
0
VERTEX
8
CUT
10
160.3673
20
136.6366
0
SEQEND
0
POLYLINE
8
CUT
66
1
70
1
10
0.0
20
0.0
30
0.0
0
VERTEX
8
CUT
10
135.2941
20
100.4773
0
VERTEX
8
CUT
10
135.3066
20
100.2276
0
VERTEX
8
CUT
10
135.3441
20
99.9804
0
VERTEX
8
CUT
10
135.4060
20
99.7382
0
VERTEX
8
CUT
10
135.4918
20
99.5033
0
VERTEX
8
CUT
10
135.5055
20
99.4710
0
VERTEX
8
CUT
10
135.5177
20
99.4358
0
VERTEX
8
CUT
10
135.5232
20
99.3995
0
VERTEX
8
CUT
10
135.5247
20
99.3814
0
VERTEX
8
CUT
10
135.5590
20
98.8098
0
VERTEX
8
CUT
10
135.5815
20
98.5933
0
VERTEX
8
CUT
10
135.6228
20
98.3795
0
VERTEX
8
CUT
10
135.6825
20
98.1702
0
VERTEX
8
CUT
10
136.4126
20
95.9768
0
VERTEX
8
CUT
10
136.5171
20
95.7137
0
VERTEX
8
CUT
10
138.4611
20
91.5260
0
VERTEX
8
CUT
10
138.5770
20
91.3056
0
VERTEX
8
CUT
10
141.3983
20
86.5372
0
VERTEX
8
CUT
10
141.4967
20
86.3839
0
VERTEX
8
CUT
10
144.0403
20
82.7226
0
VERTEX
8
CUT
10
144.1586
20
82.5657
0
VERTEX
8
CUT
10
146.6763
20
79.4889
0
VERTEX
8
CUT
10
146.8540
20
79.2937
0
VERTEX
8
CUT
10
149.6624
20
76.5190
0
VERTEX
8
CUT
10
149.8519
20
76.3499
0
VERTEX
8
CUT
10
150.0576
20
76.2009
0
VERTEX
8
CUT
10
150.2773
20
76.0736
0
VERTEX
8
CUT
10
150.7532
20
75.8292
0
VERTEX
8
CUT
10
150.9725
20
75.7296
0
VERTEX
8
CUT
10
151.2005
20
75.6515
0
VERTEX
8
CUT
10
151.4349
20
75.5958
0
VERTEX
8
CUT
10
151.6736
20
75.5629
0
VERTEX
8
CUT
10
151.9143
20
75.5531
0
VERTEX
8
CUT
10
152.1549
20
75.5666
0
VERTEX
8
CUT
10
152.3930
20
75.6031
0
VERTEX
8
CUT
10
152.6266
20
75.6624
0
VERTEX
8
CUT
10
152.8533
20
75.7439
0
VERTEX
8
CUT
10
153.0711
20
75.8469
0
VERTEX
8
CUT
10
153.2781
20
75.9703
0
VERTEX
8
CUT
10
153.4721
20
76.1131
0
VERTEX
8
CUT
10
153.6516
20
76.2739
0
VERTEX
8
CUT
10
153.8147
20
76.4512
0
VERTEX
8
CUT
10
153.9600
20
76.6434
0
VERTEX
8
CUT
10
154.0861
20
76.8487
0
VERTEX
8
CUT
10
154.1918
20
77.0652
0
VERTEX
8
CUT
10
154.2763
20
77.2909
0
VERTEX
8
CUT
10
154.3386
20
77.5236
0
VERTEX
8
CUT
10
154.3782
20
77.7613
0
VERTEX
8
CUT
10
154.3948
20
78.0016
0
VERTEX
8
CUT
10
154.4337
20
79.8942
0
VERTEX
8
CUT
10
154.4225
20
80.1871
0
VERTEX
8
CUT
10
154.1650
20
82.8414
0
VERTEX
8
CUT
10
154.1212
20
83.1233
0
VERTEX
8
CUT
10
154.0457
20
83.3984
0
VERTEX
8
CUT
10
153.9393
20
83.6631
0
VERTEX
8
CUT
10
153.9145
20
83.7159
0
VERTEX
8
CUT
10
153.9076
20
83.7315
0
VERTEX
8
CUT
10
153.8953
20
83.7648
0
VERTEX
8
CUT
10
153.8859
20
83.7992
0
VERTEX
8
CUT
10
153.8826
20
83.8155
0
VERTEX
8
CUT
10
153.0209
20
88.5395
0
VERTEX
8
CUT
10
153.0181
20
88.5571
0
VERTEX
8
CUT
10
153.0114
20
88.6304
0
VERTEX
8
CUT
10
153.0110
20
88.6483
0
VERTEX
8
CUT
10
153.0032
20
94.5093
0
VERTEX
8
CUT
10
153.0038
20
94.5321
0
VERTEX
8
CUT
10
153.0145
20
94.6259
0
VERTEX
8
CUT
10
153.0190
20
94.6482
0
VERTEX
8
CUT
10
153.6084
20
97.1841
0
VERTEX
8
CUT
10
153.6133
20
97.2032
0
VERTEX
8
CUT
10
153.6395
20
97.2802
0
VERTEX
8
CUT
10
153.6472
20
97.2983
0
VERTEX
8
CUT
10
154.7624
20
99.7544
0
VERTEX
8
CUT
10
154.8577
20
99.9973
0
VERTEX
8
CUT
10
154.9272
20
100.2488
0
VERTEX
8
CUT
10
154.9701
20
100.5062
0
VERTEX
8
CUT
10
154.9859
20
100.7667
0
VERTEX
8
CUT
10
155.0023
20
102.6838
0
VERTEX
8
CUT
10
154.9938
20
102.9119
0
VERTEX
8
CUT
10
154.9646
20
103.1383
0
VERTEX
8
CUT
10
154.9148
20
103.3611
0
VERTEX
8
CUT
10
154.8449
20
103.5784
0
VERTEX
8
CUT
10
154.7555
20
103.7884
0
VERTEX
8
CUT
10
152.7780
20
107.9011
0
VERTEX
8
CUT
10
152.7467
20
107.9717
0
VERTEX
8
CUT
10
152.7200
20
108.0442
0
VERTEX
8
CUT
10
151.7729
20
110.8842
0
VERTEX
8
CUT
10
151.6826
20
111.1160
0
VERTEX
8
CUT
10
151.5696
20
111.3377
0
VERTEX
8
CUT
10
151.4352
20
111.5471
0
VERTEX
8
CUT
10
151.2806
20
111.7420
0
VERTEX
8
CUT
10
151.1074
20
111.9207
0
VERTEX
8
CUT
10
150.9173
20
112.0812
0
VERTEX
8
CUT
10
150.7122
20
112.2221
0
VERTEX
8
CUT
10
150.4941
20
112.3418
0
VERTEX
8
CUT
10
150.2652
20
112.4393
0
VERTEX
8
CUT
10
150.0277
20
112.5136
0
VERTEX
8
CUT
10
149.7840
20
112.5639
0
VERTEX
8
CUT
10
149.5366
20
112.5897
0
VERTEX
8
CUT
10
149.2878
20
112.5907
0
VERTEX
8
CUT
10
149.0401
20
112.5671
0
VERTEX
8
CUT
10
148.7960
20
112.5189
0
VERTEX
8
CUT
10
148.5579
20
112.4467
0
VERTEX
8
CUT
10
148.3281
20
112.3513
0
VERTEX
8
CUT
10
148.1090
20
112.2334
0
VERTEX
8
CUT
10
147.9027
20
112.0943
0
VERTEX
8
CUT
10
147.7112
20
111.9355
0
VERTEX
8
CUT
10
147.5364
20
111.7583
0
VERTEX
8
CUT
10
147.3802
20
111.5647
0
VERTEX
8
CUT
10
147.2439
20
111.3565
0
VERTEX
8
CUT
10
146.2543
20
109.6663
0
VERTEX
8
CUT
10
146.2452
20
109.6516
0
VERTEX
8
CUT
10
146.2243
20
109.6221
0
VERTEX
8
CUT
10
146.2008
20
109.5945
0
VERTEX
8
CUT
10
146.1890
20
109.5824
0
VERTEX
8
CUT
10
144.3472
20
107.7682
0
VERTEX
8
CUT
10
144.3342
20
107.7560
0
VERTEX
8
CUT
10
144.3056
20
107.7325
0
VERTEX
8
CUT
10
144.2737
20
107.7148
0
VERTEX
8
CUT
10
144.2574
20
107.7071
0
VERTEX
8
CUT
10
141.6778
20
106.5640
0
VERTEX
8
CUT
10
141.6605
20
106.5568
0
VERTEX
8
CUT
10
141.6239
20
106.5446
0
VERTEX
8
CUT
10
141.5863
20
106.5358
0
VERTEX
8
CUT
10
141.5678
20
106.5329
0
VERTEX
8
CUT
10
139.2021
20
106.2134
0
VERTEX
8
CUT
10
138.9287
20
106.1609
0
VERTEX
8
CUT
10
138.6629
20
106.0783
0
VERTEX
8
CUT
10
138.4079
20
105.9666
0
VERTEX
8
CUT
10
137.3557
20
105.4342
0
VERTEX
8
CUT
10
137.1756
20
105.3336
0
VERTEX
8
CUT
10
137.0045
20
105.2184
0
VERTEX
8
CUT
10
136.8435
20
105.0896
0
VERTEX
8
CUT
10
136.6887
20
104.9549
0
VERTEX
8
CUT
10
136.4871
20
104.7586
0
VERTEX
8
CUT
10
136.1800
20
104.4238
0
VERTEX
8
CUT
10
136.0341
20
104.2493
0
VERTEX
8
CUT
10
135.9046
20
104.0623
0
VERTEX
8
CUT
10
135.7926
20
103.8642
0
VERTEX
8
CUT
10
135.6991
20
103.6568
0
VERTEX
8
CUT
10
135.4702
20
103.0808
0
VERTEX
8
CUT
10
135.3935
20
102.8572
0
VERTEX
8
CUT
10
135.3382
20
102.6274
0
VERTEX
8
CUT
10
135.3048
20
102.3934
0
VERTEX
8
CUT
10
135.2937
20
102.1573
0
SEQEND
0
POLYLINE
8
CUT
66
1
70
1
10
0.0
20
0.0
30
0.0
0
VERTEX
8
CUT
10
134.3876
20
156.3342
0
VERTEX
8
CUT
10
134.3533
20
156.3396
0
VERTEX
8
CUT
10
134.1049
20
156.3531
0
VERTEX
8
CUT
10
133.8564
20
156.3418
0
VERTEX
8
CUT
10
133.6102
20
156.3060
0
VERTEX
8
CUT
10
133.3688
20
156.2458
0
VERTEX
8
CUT
10
133.1346
20
156.1619
0
VERTEX
8
CUT
10
132.9099
20
156.0552
0
VERTEX
8
CUT
10
132.6969
20
155.9267
0
VERTEX
8
CUT
10
132.4977
20
155.7776
0
VERTEX
8
CUT
10
132.3143
20
155.6095
0
VERTEX
8
CUT
10
132.1486
20
155.4240
0
VERTEX
8
CUT
10
132.0021
20
155.2229
0
VERTEX
8
CUT
10
131.8763
20
155.0083
0
VERTEX
8
CUT
10
131.7725
20
154.7822
0
VERTEX
8
CUT
10
131.6916
20
154.5469
0
VERTEX
8
CUT
10
131.6345
20
154.3048
0
VERTEX
8
CUT
10
131.6018
20
154.0582
0
VERTEX
8
CUT
10
131.5938
20
153.8095
0
VERTEX
8
CUT
10
131.6105
20
153.5613
0
VERTEX
8
CUT
10
131.6518
20
153.3160
0
VERTEX
8
CUT
10
132.0223
20
151.6315
0
VERTEX
8
CUT
10
132.1231
20
151.2910
0
VERTEX
8
CUT
10
132.8958
20
149.2299
0
VERTEX
8
CUT
10
132.9755
20
149.0411
0
VERTEX
8
CUT
10
133.0705
20
148.8595
0
VERTEX
8
CUT
10
134.0687
20
147.1268
0
VERTEX
8
CUT
10
134.2028
20
146.9186
0
VERTEX
8
CUT
10
135.4704
20
145.1497
0
VERTEX
8
CUT
10
135.6010
20
144.9829
0
VERTEX
8
CUT
10
135.7452
20
144.8278
0
VERTEX
8
CUT
10
135.9021
20
144.6854
0
VERTEX
8
CUT
10
137.4208
20
143.4197
0
VERTEX
8
CUT
10
137.6483
20
143.2510
0
VERTEX
8
CUT
10
137.8935
20
143.1091
0
VERTEX
8
CUT
10
139.8309
20
142.1298
0
VERTEX
8
CUT
10
140.0560
20
142.0296
0
VERTEX
8
CUT
10
140.2900
20
141.9520
0
VERTEX
8
CUT
10
140.5305
20
141.8979
0
VERTEX
8
CUT
10
140.7751
20
141.8677
0
VERTEX
8
CUT
10
141.0215
20
141.8617
0
VERTEX
8
CUT
10
141.2673
20
141.8801
0
VERTEX
8
CUT
10
141.5101
20
141.9225
0
VERTEX
8
CUT
10
141.7476
20
141.9887
0
VERTEX
8
CUT
10
141.9773
20
142.0779
0
VERTEX
8
CUT
10
142.1972
20
142.1893
0
VERTEX
8
CUT
10
142.4050
20
142.3218
0
VERTEX
8
CUT
10
142.5988
20
142.4742
0
VERTEX
8
CUT
10
142.7766
20
142.6448
0
VERTEX
8
CUT
10
142.9368
20
142.8322
0
VERTEX
8
CUT
10
143.0777
20
143.0344
0
VERTEX
8
CUT
10
143.1980
20
143.2495
0
VERTEX
8
CUT
10
143.2966
20
143.4755
0
VERTEX
8
CUT
10
143.3724
20
143.7100
0
VERTEX
8
CUT
10
143.4248
20
143.9508
0
VERTEX
8
CUT
10
143.4532
20
144.1957
0
VERTEX
8
CUT
10
143.4574
20
144.4421
0
VERTEX
8
CUT
10
143.4372
20
144.6878
0
VERTEX
8
CUT
10
143.3930
20
144.9303
0
VERTEX
8
CUT
10
143.3251
20
145.1672
0
VERTEX
8
CUT
10
143.2342
20
145.3963
0
VERTEX
8
CUT
10
143.1212
20
145.6154
0
VERTEX
8
CUT
10
142.9871
20
145.8222
0
VERTEX
8
CUT
10
142.8334
20
146.0149
0
VERTEX
8
CUT
10
142.7875
20
146.0668
0
VERTEX
8
CUT
10
142.7815
20
146.1040
0
VERTEX
8
CUT
10
142.7798
20
146.1223
0
VERTEX
8
CUT
10
142.7537
20
146.5088
0
VERTEX
8
CUT
10
142.7530
20
146.5258
0
VERTEX
8
CUT
10
142.7536
20
146.5611
0
VERTEX
8
CUT
10
142.7603
20
146.5954
0
VERTEX
8
CUT
10
142.7646
20
146.6121
0
VERTEX
8
CUT
10
143.4827
20
149.1385
0
VERTEX
8
CUT
10
143.5356
20
149.3642
0
VERTEX
8
CUT
10
143.5674
20
149.5937
0
VERTEX
8
CUT
10
143.5779
20
149.8252
0
VERTEX
8
CUT
10
143.5721
20
154.2883
0
VERTEX
8
CUT
10
143.5582
20
154.5480
0
VERTEX
8
CUT
10
143.5175
20
154.8049
0
VERTEX
8
CUT
10
143.4502
20
155.0562
0
VERTEX
8
CUT
10
143.0351
20
156.3363
0
VERTEX
8
CUT
10
142.9671
20
156.5208
0
VERTEX
8
CUT
10
142.8849
20
156.6993
0
VERTEX
8
CUT
10
142.2916
20
157.8648
0
VERTEX
8
CUT
10
142.1703
20
158.0768
0
VERTEX
8
CUT
10
142.0288
20
158.2760
0
VERTEX
8
CUT
10
141.8685
20
158.4605
0
VERTEX
8
CUT
10
141.1785
20
159.1804
0
VERTEX
8
CUT
10
140.9971
20
159.3517
0
VERTEX
8
CUT
10
140.7996
20
159.5040
0
VERTEX
8
CUT
10
140.5878
20
159.6359
0
VERTEX
8
CUT
10
140.3640
20
159.7460
0
VERTEX
8
CUT
10
140.1303
20
159.8333
0
VERTEX
8
CUT
10
139.8891
20
159.8968
0
VERTEX
8
CUT
10
139.6427
20
159.9360
0
VERTEX
8
CUT
10
139.3937
20
159.9505
0
VERTEX
8
CUT
10
139.1444
20
159.9400
0
VERTEX
8
CUT
10
138.8975
20
159.9048
0
VERTEX
8
CUT
10
138.6552
20
159.8451
0
VERTEX
8
CUT
10
138.4202
20
159.7616
0
VERTEX
8
CUT
10
138.1946
20
159.6551
0
VERTEX
8
CUT
10
137.8926
20
159.4935
0
VERTEX
8
CUT
10
137.6559
20
159.3496
0
VERTEX
8
CUT
10
137.4366
20
159.1803
0
VERTEX
8
CUT
10
137.2374
20
158.9878
0
VERTEX
8
CUT
10
134.8688
20
156.4305
0
VERTEX
8
CUT
10
134.8544
20
156.4157
0
VERTEX
8
CUT
10
134.8225
20
156.3878
0
VERTEX
8
CUT
10
134.7820
20
156.3754
0
VERTEX
8
CUT
10
134.7618
20
156.3709
0
VERTEX
8
CUT
10
134.5535
20
156.3301
0
VERTEX
8
CUT
10
134.5343
20
156.3269
0
VERTEX
8
CUT
10
134.4941
20
156.3231
0
SEQEND
0
POLYLINE
8
CUT
66
1
70
1
10
0.0
20
0.0
30
0.0
0
VERTEX
8
CUT
10
118.9594
20
182.8586
0
VERTEX
8
CUT
10
118.7985
20
182.6764
0
VERTEX
8
CUT
10
118.6560
20
182.4794
0
VERTEX
8
CUT
10
118.5333
20
182.2695
0
VERTEX
8
CUT
10
118.4316
20
182.0486
0
VERTEX
8
CUT
10
118.3518
20
181.8190
0
VERTEX
8
CUT
10
118.2948
20
181.5826
0
VERTEX
8
CUT
10
118.2609
20
181.3419
0
VERTEX
8
CUT
10
118.2506
20
181.0990
0
VERTEX
8
CUT
10
118.2639
20
180.8562
0
VERTEX
8
CUT
10
118.3007
20
180.6159
0
VERTEX
8
CUT
10
118.3608
20
180.3803
0
VERTEX
8
CUT
10
118.4434
20
180.1516
0
VERTEX
8
CUT
10
118.5478
20
179.9321
0
VERTEX
8
CUT
10
118.6731
20
179.7237
0
VERTEX
8
CUT
10
118.8180
20
179.5285
0
VERTEX
8
CUT
10
118.9812
20
179.3482
0
VERTEX
8
CUT
10
119.1611
20
179.1847
0
VERTEX
8
CUT
10
119.3561
20
179.0395
0
VERTEX
8
CUT
10
119.5642
20
178.9138
0
VERTEX
8
CUT
10
119.7836
20
178.8090
0
VERTEX
8
CUT
10
120.0121
20
178.7260
0
VERTEX
8
CUT
10
120.2476
20
178.6656
0
VERTEX
8
CUT
10
120.4879
20
178.6283
0
VERTEX
8
CUT
10
120.7306
20
178.6145
0
VERTEX
8
CUT
10
127.1982
20
178.5630
0
VERTEX
8
CUT
10
127.2034
20
178.5629
0
VERTEX
8
CUT
10
127.2796
20
178.5566
0
VERTEX
8
CUT
10
127.2974
20
178.5541
0
VERTEX
8
CUT
10
129.7671
20
178.1469
0
VERTEX
8
CUT
10
130.0144
20
178.1187
0
VERTEX
8
CUT
10
130.2632
20
178.1152
0
VERTEX
8
CUT
10
130.5112
20
178.1365
0
VERTEX
8
CUT
10
130.7558
20
178.1823
0
VERTEX
8
CUT
10
130.9947
20
178.2523
0
VERTEX
8
CUT
10
131.2254
20
178.3456
0
VERTEX
8
CUT
10
131.4457
20
178.4614
0
VERTEX
8
CUT
10
131.6534
20
178.5985
0
VERTEX
8
CUT
10
131.8464
20
178.7556
0
VERTEX
8
CUT
10
132.0229
20
178.9311
0
VERTEX
8
CUT
10
132.1810
20
179.1233
0
VERTEX
8
CUT
10
132.3192
20
179.3303
0
VERTEX
8
CUT
10
132.4362
20
179.5500
0
VERTEX
8
CUT
10
132.5308
20
179.7802
0
VERTEX
8
CUT
10
132.6019
20
180.0187
0
VERTEX
8
CUT
10
132.6491
20
180.2631
0
VERTEX
8
CUT
10
132.6717
20
180.5109
0
VERTEX
8
CUT
10
132.6695
20
180.7598
0
VERTEX
8
CUT
10
132.6426
20
181.0072
0
VERTEX
8
CUT
10
132.5912
20
181.2507
0
VERTEX
8
CUT
10
132.5159
20
181.4879
0
VERTEX
8
CUT
10
132.4174
20
181.7165
0
VERTEX
8
CUT
10
132.2966
20
181.9341
0
VERTEX
8
CUT
10
132.1548
20
182.1386
0
VERTEX
8
CUT
10
130.9510
20
183.7024
0
VERTEX
8
CUT
10
130.8010
20
183.8796
0
VERTEX
8
CUT
10
128.4945
20
186.3606
0
VERTEX
8
CUT
10
128.4820
20
186.3748
0
VERTEX
8
CUT
10
128.4582
20
186.4059
0
VERTEX
8
CUT
10
128.4375
20
186.4390
0
VERTEX
8
CUT
10
128.4286
20
186.4558
0
VERTEX
8
CUT
10
128.0622
20
187.1906
0
VERTEX
8
CUT
10
127.9442
20
187.4011
0
VERTEX
8
CUT
10
127.8065
20
187.5993
0
VERTEX
8
CUT
10
127.6503
20
187.7832
0
VERTEX
8
CUT
10
127.4771
20
187.9513
0
VERTEX
8
CUT
10
127.2885
20
188.1018
0
VERTEX
8
CUT
10
127.0862
20
188.2335
0
VERTEX
8
CUT
10
126.8722
20
188.3450
0
VERTEX
8
CUT
10
126.6484
20
188.4354
0
VERTEX
8
CUT
10
126.4170
20
188.5038
0
VERTEX
8
CUT
10
126.1801
20
188.5496
0
VERTEX
8
CUT
10
125.9398
20
188.5723
0
VERTEX
8
CUT
10
125.6985
20
188.5718
0
VERTEX
8
CUT
10
125.4583
20
188.5479
0
VERTEX
8
CUT
10
125.2216
20
188.5010
0
VERTEX
8
CUT
10
124.9904
20
188.4316
0
VERTEX
8
CUT
10
124.7671
20
188.3401
0
VERTEX
8
CUT
10
124.5536
20
188.2276
0
VERTEX
8
CUT
10
124.3520
20
188.0949
0
VERTEX
8
CUT
10
124.1641
20
187.9435
0
VERTEX
8
CUT
10
123.9917
20
187.7747
0
VERTEX
8
CUT
10
123.8363
20
187.5900
0
VERTEX
8
CUT
10
123.6995
20
187.3912
0
VERTEX
8
CUT
10
123.5825
20
187.1801
0
VERTEX
8
CUT
10
123.4814
20
186.9749
0
VERTEX
8
CUT
10
123.4719
20
186.9569
0
VERTEX
8
CUT
10
123.4496
20
186.9214
0
VERTEX
8
CUT
10
123.4238
20
186.8883
0
VERTEX
8
CUT
10
123.4101
20
186.8733
0
VERTEX
8
CUT
10
121.8036
20
185.2014
0
VERTEX
8
CUT
10
121.8000
20
185.1977
0
VERTEX
8
CUT
10
121.7434
20
185.1469
0
VERTEX
8
CUT
10
121.7294
20
185.1357
0
VERTEX
8
CUT
10
119.7399
20
183.6209
0
VERTEX
8
CUT
10
119.5970
20
183.5035
0
VERTEX
8
CUT
10
119.4633
20
183.3760
0
SEQEND
0
POLYLINE
8
CUT
66
1
70
1
10
0.0
20
0.0
30
0.0
0
VERTEX
8
CUT
10
123.6273
20
191.1016
0
VERTEX
8
CUT
10
123.7422
20
190.8880
0
VERTEX
8
CUT
10
123.8774
20
190.6866
0
VERTEX
8
CUT
10
124.0313
20
190.4991
0
VERTEX
8
CUT
10
124.2028
20
190.3275
0
VERTEX
8
CUT
10
124.3900
20
190.1733
0
VERTEX
8
CUT
10
124.5914
20
190.0380
0
VERTEX
8
CUT
10
124.8049
20
189.9228
0
VERTEX
8
CUT
10
125.0285
20
189.8289
0
VERTEX
8
CUT
10
125.2602
20
189.7571
0
VERTEX
8
CUT
10
125.4978
20
189.7081
0
VERTEX
8
CUT
10
125.7390
20
189.6823
0
VERTEX
8
CUT
10
125.9815
20
189.6800
0
VERTEX
8
CUT
10
126.2232
20
189.7013
0
VERTEX
8
CUT
10
126.4616
20
189.7458
0
VERTEX
8
CUT
10
126.6946
20
189.8133
0
VERTEX
8
CUT
10
126.9200
20
189.9030
0
VERTEX
8
CUT
10
127.1356
20
190.0142
0
VERTEX
8
CUT
10
127.3394
20
190.1457
0
VERTEX
8
CUT
10
127.5296
20
190.2963
0
VERTEX
8
CUT
10
127.7042
20
190.4647
0
VERTEX
8
CUT
10
127.8617
20
190.6492
0
VERTEX
8
CUT
10
128.0005
20
190.8481
0
VERTEX
8
CUT
10
128.1195
20
191.0595
0
VERTEX
8
CUT
10
128.3684
20
191.5572
0
VERTEX
8
CUT
10
128.4659
20
191.7780
0
VERTEX
8
CUT
10
128.5416
20
192.0072
0
VERTEX
8
CUT
10
128.5948
20
192.2426
0
VERTEX
8
CUT
10
128.6251
20
192.4820
0
VERTEX
8
CUT
10
128.6322
20
192.7233
0
VERTEX
8
CUT
10
128.6160
20
192.9641
0
VERTEX
8
CUT
10
128.5766
20
193.2023
0
VERTEX
8
CUT
10
128.5144
20
193.4355
0
VERTEX
8
CUT
10
128.4300
20
193.6616
0
VERTEX
8
CUT
10
128.3243
20
193.8786
0
VERTEX
8
CUT
10
128.1981
20
194.0843
0
VERTEX
8
CUT
10
128.0526
20
194.2769
0
VERTEX
8
CUT
10
127.8893
20
194.4546
0
VERTEX
8
CUT
10
127.7095
20
194.6157
0
VERTEX
8
CUT
10
127.5151
20
194.7587
0
VERTEX
8
CUT
10
127.3078
20
194.8823
0
VERTEX
8
CUT
10
127.0895
20
194.9854
0
VERTEX
8
CUT
10
126.8623
20
195.0669
0
VERTEX
8
CUT
10
126.6284
20
195.1261
0
VERTEX
8
CUT
10
126.3898
20
195.1625
0
VERTEX
8
CUT
10
126.1488
20
195.1757
0
VERTEX
8
CUT
10
125.9076
20
195.1656
0
VERTEX
8
CUT
10
125.8200
20
195.1577
0
VERTEX
8
CUT
10
125.8022
20
195.1565
0
VERTEX
8
CUT
10
125.6574
20
195.1566
0
VERTEX
8
CUT
10
125.4177
20
195.1453
0
VERTEX
8
CUT
10
125.1801
20
195.1110
0
VERTEX
8
CUT
10
124.9470
20
195.0541
0
VERTEX
8
CUT
10
124.7203
20
194.9752
0
VERTEX
8
CUT
10
124.5023
20
194.8748
0
VERTEX
8
CUT
10
124.2949
20
194.7540
0
VERTEX
8
CUT
10
124.1001
20
194.6139
0
VERTEX
8
CUT
10
123.9196
20
194.4558
0
VERTEX
8
CUT
10
123.7551
20
194.2810
0
VERTEX
8
CUT
10
123.6080
20
194.0913
0
VERTEX
8
CUT
10
123.4799
20
193.8884
0
VERTEX
8
CUT
10
123.3718
20
193.6741
0
VERTEX
8
CUT
10
123.2848
20
193.4505
0
VERTEX
8
CUT
10
123.2196
20
193.2195
0
VERTEX
8
CUT
10
123.1768
20
192.9833
0
VERTEX
8
CUT
10
123.1569
20
192.7442
0
VERTEX
8
CUT
10
123.1600
20
192.5042
0
VERTEX
8
CUT
10
123.1861
20
192.2656
0
VERTEX
8
CUT
10
123.2350
20
192.0306
0
VERTEX
8
CUT
10
123.3062
20
191.8014
0
VERTEX
8
CUT
10
123.3990
20
191.5801
0
SEQEND
0
POLYLINE
8
CUT
66
1
70
1
10
0.0
20
0.0
30
0.0
0
VERTEX
8
CUT
10
103.2767
20
158.7220
0
VERTEX
8
CUT
10
103.2982
20
158.6872
0
VERTEX
8
CUT
10
103.3162
20
158.6505
0
VERTEX
8
CUT
10
103.3235
20
158.6321
0
VERTEX
8
CUT
10
103.9111
20
157.0443
0
VERTEX
8
CUT
10
103.9172
20
157.0264
0
VERTEX
8
CUT
10
103.9272
20
156.9888
0
VERTEX
8
CUT
10
103.9304
20
156.9424
0
VERTEX
8
CUT
10
103.9596
20
156.6963
0
VERTEX
8
CUT
10
104.0129
20
156.4544
0
VERTEX
8
CUT
10
104.0900
20
156.2189
0
VERTEX
8
CUT
10
104.1900
20
155.9922
0
VERTEX
8
CUT
10
104.3120
20
155.7765
0
VERTEX
8
CUT
10
104.4547
20
155.5739
0
VERTEX
8
CUT
10
104.6168
20
155.3865
0
VERTEX
8
CUT
10
104.7966
20
155.2160
0
VERTEX
8
CUT
10
104.9924
20
155.0642
0
VERTEX
8
CUT
10
105.2023
20
154.9325
0
VERTEX
8
CUT
10
105.4242
20
154.8222
0
VERTEX
8
CUT
10
105.6559
20
154.7344
0
VERTEX
8
CUT
10
105.8952
20
154.6700
0
VERTEX
8
CUT
10
106.1396
20
154.6296
0
VERTEX
8
CUT
10
106.3869
20
154.6136
0
VERTEX
8
CUT
10
106.6345
20
154.6222
0
VERTEX
8
CUT
10
106.8801
20
154.6552
0
VERTEX
8
CUT
10
107.1212
20
154.7124
0
VERTEX
8
CUT
10
107.3555
20
154.7931
0
VERTEX
8
CUT
10
107.5806
20
154.8967
0
VERTEX
8
CUT
10
107.7943
20
155.0220
0
VERTEX
8
CUT
10
107.9946
20
155.1679
0
VERTEX
8
CUT
10
108.1795
20
155.3329
0
VERTEX
8
CUT
10
108.3471
20
155.5153
0
VERTEX
8
CUT
10
108.4959
20
155.7135
0
VERTEX
8
CUT
10
108.6243
20
155.9254
0
VERTEX
8
CUT
10
109.1624
20
156.9219
0
VERTEX
8
CUT
10
109.2634
20
157.1317
0
VERTEX
8
CUT
10
109.3444
20
157.3500
0
VERTEX
8
CUT
10
109.4047
20
157.5748
0
VERTEX
8
CUT
10
109.4514
20
157.7880
0
VERTEX
8
CUT
10
109.4568
20
157.8095
0
VERTEX
8
CUT
10
109.4864
20
157.8967
0
VERTEX
8
CUT
10
109.4953
20
157.9171
0
VERTEX
8
CUT
10
110.8240
20
160.7419
0
VERTEX
8
CUT
10
110.9171
20
160.9678
0
VERTEX
8
CUT
10
110.9876
20
161.2017
0
VERTEX
8
CUT
10
111.0350
20
161.4414
0
VERTEX
8
CUT
10
111.0588
20
161.6846
0
VERTEX
8
CUT
10
111.0587
20
161.9289
0
VERTEX
8
CUT
10
111.0348
20
162.1720
0
VERTEX
8
CUT
10
110.9873
20
162.4117
0
VERTEX
8
CUT
10
110.9166
20
162.6456
0
VERTEX
8
CUT
10
110.8234
20
162.8714
0
VERTEX
8
CUT
10
110.7086
20
163.0871
0
VERTEX
8
CUT
10
110.5732
20
163.2905
0
VERTEX
8
CUT
10
110.4187
20
163.4798
0
VERTEX
8
CUT
10
110.2465
20
163.6531
0
VERTEX
8
CUT
10
110.0581
20
163.8087
0
VERTEX
8
CUT
10
109.8555
20
163.9452
0
VERTEX
8
CUT
10
109.6405
20
164.0613
0
VERTEX
8
CUT
10
109.4152
20
164.1558
0
VERTEX
8
CUT
10
109.1817
20
164.2279
0
VERTEX
8
CUT
10
108.9424
20
164.2768
0
VERTEX
8
CUT
10
108.6993
20
164.3022
0
VERTEX
8
CUT
10
108.4550
20
164.3037
0
VERTEX
8
CUT
10
108.2117
20
164.2813
0
VERTEX
8
CUT
10
107.9718
20
164.2354
0
VERTEX
8
CUT
10
107.7374
20
164.1662
0
VERTEX
8
CUT
10
107.5110
20
164.0744
0
VERTEX
8
CUT
10
107.2946
20
163.9610
0
VERTEX
8
CUT
10
107.0903
20
163.8270
0
VERTEX
8
CUT
10
106.8277
20
163.6359
0
VERTEX
8
CUT
10
106.8117
20
163.6248
0
VERTEX
8
CUT
10
106.7771
20
163.6045
0
VERTEX
8
CUT
10
106.7406
20
163.5876
0
VERTEX
8
CUT
10
106.7223
20
163.5807
0
VERTEX
8
CUT
10
105.9259
20
163.3036
0
VERTEX
8
CUT
10
105.9076
20
163.2977
0
VERTEX
8
CUT
10
105.8691
20
163.2883
0
VERTEX
8
CUT
10
105.8299
20
163.2828
0
VERTEX
8
CUT
10
105.8107
20
163.2814
0
VERTEX
8
CUT
10
104.9242
20
163.2418
0
VERTEX
8
CUT
10
104.6468
20
163.2138
0
VERTEX
8
CUT
10
104.3743
20
163.1551
0
VERTEX
8
CUT
10
104.2431
20
163.1191
0
VERTEX
8
CUT
10
104.0108
20
163.0429
0
VERTEX
8
CUT
10
103.7870
20
162.9444
0
VERTEX
8
CUT
10
103.5738
20
162.8246
0
VERTEX
8
CUT
10
103.3735
20
162.6844
0
VERTEX
8
CUT
10
103.1877
20
162.5254
0
VERTEX
8
CUT
10
103.0184
20
162.3489
0
VERTEX
8
CUT
10
102.8672
20
162.1568
0
VERTEX
8
CUT
10
102.7354
20
161.9508
0
VERTEX
8
CUT
10
102.6244
20
161.7329
0
VERTEX
8
CUT
10
102.5352
20
161.5053
0
VERTEX
8
CUT
10
102.4687
20
161.2700
0
VERTEX
8
CUT
10
102.4254
20
161.0293
0
VERTEX
8
CUT
10
102.4059
20
160.7855
0
VERTEX
8
CUT
10
102.4103
20
160.5411
0
VERTEX
8
CUT
10
102.4386
20
160.2982
0
VERTEX
8
CUT
10
102.4905
20
160.0592
0
VERTEX
8
CUT
10
102.5654
20
159.8265
0
VERTEX
8
CUT
10
102.6627
20
159.6021
0
VERTEX
8
CUT
10
102.7815
20
159.3884
0
VERTEX
8
CUT
10
102.9206
20
159.1873
0
VERTEX
8
CUT
10
103.2650
20
158.7380
0
SEQEND
0
POLYLINE
8
CUT
66
1
70
1
10
0.0
20
0.0
30
0.0
0
VERTEX
8
CUT
10
85.8272
20
146.3258
0
VERTEX
8
CUT
10
85.8123
20
146.3110
0
VERTEX
8
CUT
10
85.6540
20
146.1195
0
VERTEX
8
CUT
10
85.5155
20
145.9132
0
VERTEX
8
CUT
10
85.3982
20
145.6942
0
VERTEX
8
CUT
10
85.3032
20
145.4646
0
VERTEX
8
CUT
10
85.2315
20
145.2267
0
VERTEX
8
CUT
10
85.1837
20
144.9829
0
VERTEX
8
CUT
10
85.1604
20
144.7355
0
VERTEX
8
CUT
10
85.1617
20
144.4871
0
VERTEX
8
CUT
10
85.1877
20
144.2400
0
VERTEX
8
CUT
10
85.2381
20
143.9967
0
VERTEX
8
CUT
10
85.3124
20
143.7596
0
VERTEX
8
CUT
10
85.4098
20
143.5310
0
VERTEX
8
CUT
10
85.5295
20
143.3133
0
VERTEX
8
CUT
10
85.6702
20
143.1085
0
VERTEX
8
CUT
10
85.8305
20
142.9187
0
VERTEX
8
CUT
10
86.0089
20
142.7457
0
VERTEX
8
CUT
10
86.2036
20
142.5913
0
VERTEX
8
CUT
10
86.4126
20
142.4570
0
VERTEX
8
CUT
10
86.6339
20
142.3441
0
VERTEX
8
CUT
10
86.8654
20
142.2537
0
VERTEX
8
CUT
10
87.1098
20
142.1720
0
VERTEX
8
CUT
10
87.3679
20
142.1008
0
VERTEX
8
CUT
10
87.6321
20
142.0577
0
VERTEX
8
CUT
10
87.8994
20
142.0430
0
VERTEX
8
CUT
10
90.8432
20
142.0395
0
VERTEX
8
CUT
10
91.1088
20
142.0533
0
VERTEX
8
CUT
10
91.3714
20
142.0953
0
VERTEX
8
CUT
10
91.6280
20
142.1649
0
VERTEX
8
CUT
10
91.9419
20
142.2682
0
VERTEX
8
CUT
10
91.9594
20
142.2735
0
VERTEX
8
CUT
10
91.9963
20
142.2820
0
VERTEX
8
CUT
10
92.0339
20
142.2871
0
VERTEX
8
CUT
10
92.0516
20
142.2882
0
VERTEX
8
CUT
10
92.9414
20
142.3255
0
VERTEX
8
CUT
10
93.1929
20
142.3488
0
VERTEX
8
CUT
10
93.4407
20
142.3974
0
VERTEX
8
CUT
10
95.3745
20
142.8789
0
VERTEX
8
CUT
10
95.5934
20
142.9441
0
VERTEX
8
CUT
10
95.8055
20
143.0291
0
VERTEX
8
CUT
10
98.6487
20
144.3221
0
VERTEX
8
CUT
10
98.9229
20
144.4680
0
VERTEX
8
CUT
10
99.2516
20
144.6701
0
VERTEX
8
CUT
10
99.4568
20
144.8107
0
VERTEX
8
CUT
10
99.6470
20
144.9711
0
VERTEX
8
CUT
10
99.8203
20
145.1495
0
VERTEX
8
CUT
10
99.9750
20
145.3443
0
VERTEX
8
CUT
10
100.1096
20
145.5535
0
VERTEX
8
CUT
10
100.2228
20
145.7751
0
VERTEX
8
CUT
10
100.3133
20
146.0068
0
VERTEX
8
CUT
10
100.3804
20
146.2464
0
VERTEX
8
CUT
10
100.4234
20
146.4914
0
VERTEX
8
CUT
10
100.4418
20
146.7395
0
VERTEX
8
CUT
10
100.4354
20
146.9882
0
VERTEX
8
CUT
10
100.4043
20
147.2350
0
VERTEX
8
CUT
10
100.3489
20
147.4775
0
VERTEX
8
CUT
10
100.2697
20
147.7133
0
VERTEX
8
CUT
10
100.1674
20
147.9401
0
VERTEX
8
CUT
10
100.0430
20
148.1555
0
VERTEX
8
CUT
10
99.8979
20
148.3576
0
VERTEX
8
CUT
10
99.7334
20
148.5442
0
VERTEX
8
CUT
10
99.5512
20
148.7136
0
VERTEX
8
CUT
10
99.3530
20
148.8640
0
VERTEX
8
CUT
10
99.1409
20
148.9939
0
VERTEX
8
CUT
10
98.9169
20
149.1022
0
VERTEX
8
CUT
10
98.6833
20
149.1876
0
VERTEX
8
CUT
10
98.5672
20
149.2237
0
VERTEX
8
CUT
10
98.5438
20
149.2522
0
VERTEX
8
CUT
10
98.5330
20
149.2674
0
VERTEX
8
CUT
10
98.3863
20
149.4860
0
VERTEX
8
CUT
10
98.3755
20
149.5029
0
VERTEX
8
CUT
10
98.3561
20
149.5392
0
VERTEX
8
CUT
10
98.3485
20
149.5798
0
VERTEX
8
CUT
10
98.3464
20
149.5997
0
VERTEX
8
CUT
10
97.9683
20
154.1311
0
VERTEX
8
CUT
10
97.9369
20
154.3687
0
VERTEX
8
CUT
10
97.8830
20
154.6022
0
VERTEX
8
CUT
10
97.4196
20
156.2444
0
VERTEX
8
CUT
10
97.3440
20
156.4703
0
VERTEX
8
CUT
10
97.2474
20
156.6880
0
VERTEX
8
CUT
10
96.8300
20
157.5184
0
VERTEX
8
CUT
10
96.6627
20
157.8029
0
VERTEX
8
CUT
10
95.6736
20
159.2557
0
VERTEX
8
CUT
10
95.5070
20
159.4736
0
VERTEX
8
CUT
10
95.3176
20
159.6719
0
VERTEX
8
CUT
10
95.1077
20
159.8483
0
VERTEX
8
CUT
10
94.3897
20
160.3871
0
VERTEX
8
CUT
10
94.2009
20
160.5158
0
VERTEX
8
CUT
10
94.0011
20
160.6267
0
VERTEX
8
CUT
10
93.7919
20
160.7188
0
VERTEX
8
CUT
10
93.5753
20
160.7915
0
VERTEX
8
CUT
10
93.3529
20
160.8442
0
VERTEX
8
CUT
10
93.1267
20
160.8762
0
VERTEX
8
CUT
10
92.8984
20
160.8875
0
VERTEX
8
CUT
10
92.3989
20
160.8894
0
VERTEX
8
CUT
10
92.1722
20
160.8799
0
VERTEX
8
CUT
10
91.9473
20
160.8500
0
VERTEX
8
CUT
10
91.7260
20
160.7997
0
VERTEX
8
CUT
10
91.5102
20
160.7296
0
VERTEX
8
CUT
10
91.3016
20
160.6403
0
VERTEX
8
CUT
10
90.8907
20
160.4417
0
VERTEX
8
CUT
10
90.6618
20
160.3159
0
VERTEX
8
CUT
10
90.4473
20
160.1669
0
VERTEX
8
CUT
10
90.2495
20
159.9963
0
VERTEX
8
CUT
10
89.2074
20
158.9982
0
VERTEX
8
CUT
10
88.9670
20
158.7325
0
VERTEX
8
CUT
10
88.0589
20
157.5708
0
VERTEX
8
CUT
10
87.9162
20
157.3684
0
VERTEX
8
CUT
10
87.7943
20
157.1529
0
VERTEX
8
CUT
10
87.4353
20
156.4381
0
VERTEX
8
CUT
10
87.3221
20
156.1762
0
VERTEX
8
CUT
10
87.2394
20
155.9032
0
VERTEX
8
CUT
10
86.4920
20
152.8091
0
VERTEX
8
CUT
10
86.4398
20
152.5194
0
VERTEX
8
CUT
10
86.4221
20
152.2256
0
VERTEX
8
CUT
10
86.4173
20
148.7800
0
VERTEX
8
CUT
10
86.4270
20
148.5569
0
VERTEX
8
CUT
10
86.4565
20
148.3356
0
VERTEX
8
CUT
10
86.5056
20
148.1177
0
VERTEX
8
CUT
10
86.6759
20
147.4945
0
VERTEX
8
CUT
10
86.6806
20
147.4752
0
VERTEX
8
CUT
10
86.6873
20
147.4352
0
VERTEX
8
CUT
10
86.6661
20
147.4006
0
VERTEX
8
CUT
10
86.6544
20
147.3845
0
VERTEX
8
CUT
10
85.9440
20
146.4546
0
VERTEX
8
CUT
10
85.9325
20
146.4402
0
VERTEX
8
CUT
10
85.8269
20
146.3261
0
SEQEND
0
POLYLINE
8
CUT
66
1
70
1
10
0.0
20
0.0
30
0.0
0
VERTEX
8
CUT
10
74.6535
20
149.1988
0
VERTEX
8
CUT
10
74.4877
20
149.0224
0
VERTEX
8
CUT
10
74.3397
20
148.8309
0
VERTEX
8
CUT
10
74.2109
20
148.6260
0
VERTEX
8
CUT
10
74.1026
20
148.4095
0
VERTEX
8
CUT
10
74.0157
20
148.1836
0
VERTEX
8
CUT
10
73.9510
20
147.9504
0
VERTEX
8
CUT
10
73.9092
20
147.7120
0
VERTEX
8
CUT
10
73.8907
20
147.4707
0
VERTEX
8
CUT
10
73.8956
20
147.2287
0
VERTEX
8
CUT
10
73.9238
20
146.9883
0
VERTEX
8
CUT
10
73.9752
20
146.7518
0
VERTEX
8
CUT
10
74.0492
20
146.5213
0
VERTEX
8
CUT
10
74.1451
20
146.2991
0
VERTEX
8
CUT
10
74.2621
20
146.0872
0
VERTEX
8
CUT
10
74.3990
20
145.8876
0
VERTEX
8
CUT
10
74.5546
20
145.7022
0
VERTEX
8
CUT
10
74.7274
20
145.5327
0
VERTEX
8
CUT
10
74.9157
20
145.3807
0
VERTEX
8
CUT
10
75.1179
20
145.2476
0
VERTEX
8
CUT
10
75.3320
20
145.1347
0
VERTEX
8
CUT
10
75.5560
20
145.0430
0
VERTEX
8
CUT
10
75.7878
20
144.9735
0
VERTEX
8
CUT
10
77.2032
20
144.6224
0
VERTEX
8
CUT
10
77.2633
20
144.6059
0
VERTEX
8
CUT
10
77.3224
20
144.5863
0
VERTEX
8
CUT
10
78.4707
20
144.1737
0
VERTEX
8
CUT
10
78.7051
20
144.1022
0
VERTEX
8
CUT
10
78.9454
20
144.0540
0
VERTEX
8
CUT
10
79.1892
20
144.0296
0
VERTEX
8
CUT
10
79.4343
20
144.0292
0
VERTEX
8
CUT
10
79.6782
20
144.0528
0
VERTEX
8
CUT
10
79.9186
20
144.1001
0
VERTEX
8
CUT
10
80.1533
20
144.1707
0
VERTEX
8
CUT
10
80.3799
20
144.2640
0
VERTEX
8
CUT
10
80.5963
20
144.3790
0
VERTEX
8
CUT
10
80.8004
20
144.5147
0
VERTEX
8
CUT
10
80.9902
20
144.6696
0
VERTEX
8
CUT
10
81.1639
20
144.8425
0
VERTEX
8
CUT
10
81.3199
20
145.0314
0
VERTEX
8
CUT
10
81.4566
20
145.2348
0
VERTEX
8
CUT
10
81.5728
20
145.4506
0
VERTEX
8
CUT
10
81.6673
20
145.6767
0
VERTEX
8
CUT
10
81.7392
20
145.9109
0
VERTEX
8
CUT
10
81.7878
20
146.1511
0
VERTEX
8
CUT
10
81.8127
20
146.3949
0
VERTEX
8
CUT
10
81.8135
20
146.6400
0
VERTEX
8
CUT
10
81.7904
20
146.8839
0
VERTEX
8
CUT
10
81.7435
20
147.1244
0
VERTEX
8
CUT
10
81.6733
20
147.3592
0
VERTEX
8
CUT
10
81.5805
20
147.5860
0
VERTEX
8
CUT
10
81.4659
20
147.8026
0
VERTEX
8
CUT
10
81.3306
20
148.0069
0
VERTEX
8
CUT
10
81.1760
20
148.1970
0
VERTEX
8
CUT
10
81.0035
20
148.3711
0
VERTEX
8
CUT
10
80.6722
20
148.6741
0
VERTEX
8
CUT
10
80.6567
20
148.6890
0
VERTEX
8
CUT
10
80.6274
20
148.7224
0
VERTEX
8
CUT
10
80.6019
20
148.7587
0
VERTEX
8
CUT
10
80.5910
20
148.7772
0
VERTEX
8
CUT
10
80.2200
20
149.4497
0
VERTEX
8
CUT
10
80.2117
20
149.4655
0
VERTEX
8
CUT
10
80.1968
20
149.4993
0
VERTEX
8
CUT
10
80.1610
20
149.6059
0
VERTEX
8
CUT
10
80.1603
20
149.6056
0
VERTEX
8
CUT
10
80.1225
20
149.7253
0
VERTEX
8
CUT
10
80.0264
20
149.9504
0
VERTEX
8
CUT
10
79.9086
20
150.1650
0
VERTEX
8
CUT
10
79.7704
20
150.3671
0
VERTEX
8
CUT
10
79.6132
20
150.5547
0
VERTEX
8
CUT
10
79.4383
20
150.7261
0
VERTEX
8
CUT
10
79.2475
20
150.8795
0
VERTEX
8
CUT
10
79.0426
20
151.0135
0
VERTEX
8
CUT
10
78.8256
20
151.1268
0
VERTEX
8
CUT
10
78.5986
20
151.2183
0
VERTEX
8
CUT
10
78.3637
20
151.2873
0
VERTEX
8
CUT
10
78.1232
20
151.3329
0
VERTEX
8
CUT
10
77.8793
20
151.3547
0
VERTEX
8
CUT
10
77.6345
20
151.3526
0
VERTEX
8
CUT
10
77.3911
20
151.3266
0
VERTEX
8
CUT
10
77.1514
20
151.2769
0
VERTEX
8
CUT
10
76.9177
20
151.2040
0
VERTEX
8
CUT
10
76.6923
20
151.1086
0
VERTEX
8
CUT
10
76.4772
20
150.9916
0
VERTEX
8
CUT
10
76.2747
20
150.8541
0
VERTEX
8
CUT
10
76.0865
20
150.6975
0
VERTEX
8
CUT
10
75.9146
20
150.5232
0
VERTEX
8
CUT
10
75.7606
20
150.3329
0
VERTEX
8
CUT
10
75.6281
20
150.1519
0
VERTEX
8
CUT
10
75.6177
20
150.1383
0
VERTEX
8
CUT
10
75.5713
20
150.0851
0
VERTEX
8
CUT
10
75.5593
20
150.0730
0
SEQEND
0
ENDSEC
0
EOF
