0
SECTION
2
HEADER
9
$ACADVER
1
AC1009
9
$INSUNITS
70
4
0
ENDSEC
0
SECTION
2
TABLES
0
TABLE
2
LAYER
70
1
0
LAYER
2
CUT
70
0
62
7
6
CONTINUOUS
0
ENDTAB
0
ENDSEC
0
SECTION
2
ENTITIES
0
POLYLINE
8
CUT
66
1
70
1
10
0.0
20
0.0
30
0.0
0
VERTEX
8
CUT
10
0.0000
20
0.0100
0
VERTEX
8
CUT
10
0.0000
20
0.0200
0
VERTEX
8
CUT
10
0.0000
20
0.0500
0
VERTEX
8
CUT
10
0.0000
20
299.9500
0
VERTEX
8
CUT
10
0.0000
20
299.9800
0
VERTEX
8
CUT
10
0.0000
20
299.9900
0
VERTEX
8
CUT
10
0.0100
20
300.0000
0
VERTEX
8
CUT
10
0.0200
20
300.0000
0
VERTEX
8
CUT
10
0.0500
20
300.0000
0
VERTEX
8
CUT
10
299.9500
20
300.0000
0
VERTEX
8
CUT
10
299.9800
20
300.0000
0
VERTEX
8
CUT
10
299.9900
20
300.0000
0
VERTEX
8
CUT
10
300.0000
20
300.0000
0
VERTEX
8
CUT
10
300.0000
20
299.9900
0
VERTEX
8
CUT
10
300.0000
20
299.9800
0
VERTEX
8
CUT
10
300.0000
20
299.9500
0
VERTEX
8
CUT
10
300.0000
20
0.0500
0
VERTEX
8
CUT
10
300.0000
20
0.0200
0
VERTEX
8
CUT
10
300.0000
20
0.0100
0
VERTEX
8
CUT
10
299.9900
20
0.0000
0
VERTEX
8
CUT
10
299.9800
20
0.0000
0
VERTEX
8
CUT
10
299.9500
20
0.0000
0
VERTEX
8
CUT
10
0.0500
20
0.0000
0
VERTEX
8
CUT
10
0.0200
20
0.0000
0
VERTEX
8
CUT
10
0.0100
20
0.0000
0
VERTEX
8
CUT
10
0.0100
20
0.0100
0
SEQEND
0
POLYLINE
8
CUT
66
1
70
1
10
0.0
20
0.0
30
0.0
0
VERTEX
8
CUT
10
244.5100
20
209.1300
0
VERTEX
8
CUT
10
244.4400
20
208.9100
0
VERTEX
8
CUT
10
244.3800
20
208.6800
0
VERTEX
8
CUT
10
244.3500
20
208.4500
0
VERTEX
8
CUT
10
244.3400
20
208.2200
0
VERTEX
8
CUT
10
244.3500
20
207.9800
0
VERTEX
8
CUT
10
244.3800
20
207.7500
0
VERTEX
8
CUT
10
244.4400
20
207.5300
0
VERTEX
8
CUT
10
244.5100
20
207.3100
0
VERTEX
8
CUT
10
244.6000
20
207.0900
0
VERTEX
8
CUT
10
244.6600
20
206.9700
0
VERTEX
8
CUT
10
244.7900
20
206.7500
0
VERTEX
8
CUT
10
244.9400
20
206.5400
0
VERTEX
8
CUT
10
245.1000
20
206.3500
0
VERTEX
8
CUT
10
245.3900
20
206.0500
0
VERTEX
8
CUT
10
245.5800
20
205.8800
0
VERTEX
8
CUT
10
245.7700
20
205.7300
0
VERTEX
8
CUT
10
245.9900
20
205.6000
0
VERTEX
8
CUT
10
246.2100
20
205.4900
0
VERTEX
8
CUT
10
246.4500
20
205.4000
0
VERTEX
8
CUT
10
246.6900
20
205.3400
0
VERTEX
8
CUT
10
246.9400
20
205.3000
0
VERTEX
8
CUT
10
247.1900
20
205.2900
0
VERTEX
8
CUT
10
247.2300
20
205.2900
0
VERTEX
8
CUT
10
247.5400
20
205.3100
0
VERTEX
8
CUT
10
247.8400
20
205.3600
0
VERTEX
8
CUT
10
247.8800
20
205.3700
0
VERTEX
8
CUT
10
248.0900
20
205.4400
0
VERTEX
8
CUT
10
248.3000
20
205.5200
0
VERTEX
8
CUT
10
248.5000
20
205.6200
0
VERTEX
8
CUT
10
248.6900
20
205.7400
0
VERTEX
8
CUT
10
248.8700
20
205.8800
0
VERTEX
8
CUT
10
249.0400
20
206.0300
0
VERTEX
8
CUT
10
249.3800
20
206.3700
0
VERTEX
8
CUT
10
249.5400
20
206.5500
0
VERTEX
8
CUT
10
249.6900
20
206.7500
0
VERTEX
8
CUT
10
249.8100
20
206.9600
0
VERTEX
8
CUT
10
249.9200
20
207.1800
0
VERTEX
8
CUT
10
250.0000
20
207.4100
0
VERTEX
8
CUT
10
250.0600
20
207.6500
0
VERTEX
8
CUT
10
250.1000
20
207.8900
0
VERTEX
8
CUT
10
250.1100
20
208.1400
0
VERTEX
8
CUT
10
250.1100
20
208.6300
0
VERTEX
8
CUT
10
250.1000
20
208.8600
0
VERTEX
8
CUT
10
250.0700
20
209.0900
0
VERTEX
8
CUT
10
250.0100
20
209.3200
0
VERTEX
8
CUT
10
249.9400
20
209.5400
0
VERTEX
8
CUT
10
249.8500
20
209.7500
0
VERTEX
8
CUT
10
249.8300
20
209.7900
0
VERTEX
8
CUT
10
249.7000
20
210.0100
0
VERTEX
8
CUT
10
249.5500
20
210.2200
0
VERTEX
8
CUT
10
249.3800
20
210.4200
0
VERTEX
8
CUT
10
249.1900
20
210.5900
0
VERTEX
8
CUT
10
248.9800
20
210.7500
0
VERTEX
8
CUT
10
248.7600
20
210.8800
0
VERTEX
8
CUT
10
248.4200
20
211.0600
0
VERTEX
8
CUT
10
248.2000
20
211.1600
0
VERTEX
8
CUT
10
247.9700
20
211.2400
0
VERTEX
8
CUT
10
247.7300
20
211.3000
0
VERTEX
8
CUT
10
247.4900
20
211.3400
0
VERTEX
8
CUT
10
247.2400
20
211.3500
0
VERTEX
8
CUT
10
247.0000
20
211.3400
0
VERTEX
8
CUT
10
246.7600
20
211.3000
0
VERTEX
8
CUT
10
246.5200
20
211.2400
0
VERTEX
8
CUT
10
246.2900
20
211.1600
0
VERTEX
8
CUT
10
246.0700
20
211.0500
0
VERTEX
8
CUT
10
245.8600
20
210.9300
0
VERTEX
8
CUT
10
245.6600
20
210.7800
0
VERTEX
8
CUT
10
245.4800
20
210.6200
0
VERTEX
8
CUT
10
245.2200
20
210.3600
0
VERTEX
8
CUT
10
245.0500
20
210.1700
0
VERTEX
8
CUT
10
244.9000
20
209.9600
0
VERTEX
8
CUT
10
244.7700
20
209.7400
0
VERTEX
8
CUT
10
244.6600
20
209.5100
0
SEQEND
0
POLYLINE
8
CUT
66
1
70
1
10
0.0
20
0.0
30
0.0
0
VERTEX
8
CUT
10
230.4600
20
60.9800
0
VERTEX
8
CUT
10
230.3700
20
60.7400
0
VERTEX
8
CUT
10
230.3000
20
60.5000
0
VERTEX
8
CUT
10
230.2500
20
60.2500
0
VERTEX
8
CUT
10
230.2300
20
60.0000
0
VERTEX
8
CUT
10
230.2400
20
59.7400
0
VERTEX
8
CUT
10
230.2700
20
59.4900
0
VERTEX
8
CUT
10
230.3200
20
59.2500
0
VERTEX
8
CUT
10
230.4000
20
59.0100
0
VERTEX
8
CUT
10
230.6200
20
58.4500
0
VERTEX
8
CUT
10
230.7200
20
58.2300
0
VERTEX
8
CUT
10
230.8300
20
58.0300
0
VERTEX
8
CUT
10
230.9600
20
57.8400
0
VERTEX
8
CUT
10
231.1100
20
57.6700
0
VERTEX
8
CUT
10
231.2800
20
57.5000
0
VERTEX
8
CUT
10
231.4500
20
57.3600
0
VERTEX
8
CUT
10
231.6500
20
57.2300
0
VERTEX
8
CUT
10
231.8500
20
57.1200
0
VERTEX
8
CUT
10
232.4200
20
56.8400
0
VERTEX
8
CUT
10
232.6300
20
56.7400
0
VERTEX
8
CUT
10
232.8400
20
56.6700
0
VERTEX
8
CUT
10
233.0700
20
56.6200
0
VERTEX
8
CUT
10
233.2900
20
56.5900
0
VERTEX
8
CUT
10
233.5200
20
56.5800
0
VERTEX
8
CUT
10
233.7200
20
56.5800
0
VERTEX
8
CUT
10
233.9500
20
56.5900
0
VERTEX
8
CUT
10
234.1800
20
56.6200
0
VERTEX
8
CUT
10
234.4100
20
56.6800
0
VERTEX
8
CUT
10
234.6300
20
56.7500
0
VERTEX
8
CUT
10
234.8400
20
56.8400
0
VERTEX
8
CUT
10
234.9200
20
56.8800
0
VERTEX
8
CUT
10
235.1300
20
57.0100
0
VERTEX
8
CUT
10
235.3400
20
57.1500
0
VERTEX
8
CUT
10
235.5300
20
57.3100
0
VERTEX
8
CUT
10
235.9600
20
57.7200
0
VERTEX
8
CUT
10
236.1300
20
57.9000
0
VERTEX
8
CUT
10
236.2800
20
58.1000
0
VERTEX
8
CUT
10
236.4200
20
58.3200
0
VERTEX
8
CUT
10
236.5300
20
58.5500
0
VERTEX
8
CUT
10
236.6200
20
58.7800
0
VERTEX
8
CUT
10
236.6800
20
59.0300
0
VERTEX
8
CUT
10
236.7200
20
59.2800
0
VERTEX
8
CUT
10
236.7300
20
59.5300
0
VERTEX
8
CUT
10
236.7300
20
60.2000
0
VERTEX
8
CUT
10
236.7200
20
60.4400
0
VERTEX
8
CUT
10
236.6800
20
60.6800
0
VERTEX
8
CUT
10
236.6200
20
60.9200
0
VERTEX
8
CUT
10
236.5400
20
61.1500
0
VERTEX
8
CUT
10
236.4400
20
61.3700
0
VERTEX
8
CUT
10
236.3200
20
61.5700
0
VERTEX
8
CUT
10
236.1700
20
61.7700
0
VERTEX
8
CUT
10
235.7500
20
62.2900
0
VERTEX
8
CUT
10
235.5900
20
62.4800
0
VERTEX
8
CUT
10
235.4100
20
62.6400
0
VERTEX
8
CUT
10
235.2100
20
62.7900
0
VERTEX
8
CUT
10
235.0000
20
62.9200
0
VERTEX
8
CUT
10
234.8700
20
62.9900
0
VERTEX
8
CUT
10
234.8000
20
63.0200
0
VERTEX
8
CUT
10
234.7900
20
63.0300
0
VERTEX
8
CUT
10
234.7200
20
63.0700
0
VERTEX
8
CUT
10
234.5000
20
63.1800
0
VERTEX
8
CUT
10
234.2800
20
63.2700
0
VERTEX
8
CUT
10
234.0400
20
63.3400
0
VERTEX
8
CUT
10
233.8000
20
63.3800
0
VERTEX
8
CUT
10
233.5600
20
63.4000
0
VERTEX
8
CUT
10
233.3200
20
63.3900
0
VERTEX
8
CUT
10
233.0800
20
63.3700
0
VERTEX
8
CUT
10
232.8400
20
63.3200
0
VERTEX
8
CUT
10
232.6100
20
63.2400
0
VERTEX
8
CUT
10
232.3800
20
63.1500
0
VERTEX
8
CUT
10
232.2000
20
63.0500
0
VERTEX
8
CUT
10
232.1700
20
63.0300
0
VERTEX
8
CUT
10
232.0800
20
62.9900
0
VERTEX
8
CUT
10
231.9500
20
62.9200
0
VERTEX
8
CUT
10
231.7500
20
62.8000
0
VERTEX
8
CUT
10
231.5500
20
62.6500
0
VERTEX
8
CUT
10
231.3700
20
62.4900
0
VERTEX
8
CUT
10
231.3000
20
62.4200
0
VERTEX
8
CUT
10
231.1500
20
62.2600
0
VERTEX
8
CUT
10
231.0200
20
62.0800
0
VERTEX
8
CUT
10
230.9000
20
61.9000
0
VERTEX
8
CUT
10
230.8000
20
61.7100
0
SEQEND
0
POLYLINE
8
CUT
66
1
70
1
10
0.0
20
0.0
30
0.0
0
VERTEX
8
CUT
10
165.6600
20
217.5700
0
VERTEX
8
CUT
10
165.4400
20
217.6800
0
VERTEX
8
CUT
10
165.2100
20
217.7800
0
VERTEX
8
CUT
10
164.9800
20
217.8500
0
VERTEX
8
CUT
10
164.7300
20
217.9000
0
VERTEX
8
CUT
10
164.4900
20
217.9300
0
VERTEX
8
CUT
10
164.2400
20
217.9300
0
VERTEX
8
CUT
10
163.9900
20
217.9000
0
VERTEX
8
CUT
10
163.7500
20
217.8500
0
VERTEX
8
CUT
10
163.5100
20
217.7800
0
VERTEX
8
CUT
10
163.2800
20
217.6800
0
VERTEX
8
CUT
10
163.0600
20
217.5700
0
VERTEX
8
CUT
10
162.8600
20
217.4300
0
VERTEX
8
CUT
10
162.6700
20
217.2700
0
VERTEX
8
CUT
10
162.4900
20
217.0900
0
VERTEX
8
CUT
10
162.3400
20
216.9000
0
VERTEX
8
CUT
10
162.2000
20
216.6900
0
VERTEX
8
CUT
10
162.0900
20
216.4700
0
VERTEX
8
CUT
10
161.9900
20
216.2400
0
VERTEX
8
CUT
10
161.9300
20
216.0000
0
VERTEX
8
CUT
10
161.8800
20
215.7600
0
VERTEX
8
CUT
10
161.8600
20
215.5100
0
VERTEX
8
CUT
10
161.8700
20
215.2600
0
VERTEX
8
CUT
10
161.8900
20
215.0100
0
VERTEX
8
CUT
10
161.9500
20
214.7700
0
VERTEX
8
CUT
10
162.0300
20
214.5300
0
VERTEX
8
CUT
10
162.1300
20
214.3100
0
VERTEX
8
CUT
10
162.2500
20
214.0900
0
VERTEX
8
CUT
10
162.3900
20
213.8900
0
VERTEX
8
CUT
10
162.5500
20
213.7000
0
VERTEX
8
CUT
10
162.7300
20
213.5300
0
VERTEX
8
CUT
10
162.9300
20
213.3800
0
VERTEX
8
CUT
10
166.3600
20
210.9900
0
VERTEX
8
CUT
10
166.5500
20
210.8700
0
VERTEX
8
CUT
10
173.0300
20
207.1700
0
VERTEX
8
CUT
10
173.0900
20
207.1300
0
VERTEX
8
CUT
10
173.1400
20
207.1100
0
VERTEX
8
CUT
10
173.2700
20
207.0300
0
VERTEX
8
CUT
10
184.2800
20
201.3200
0
VERTEX
8
CUT
10
184.3500
20
201.2800
0
VERTEX
8
CUT
10
184.3600
20
201.2700
0
VERTEX
8
CUT
10
184.3800
20
201.2600
0
VERTEX
8
CUT
10
184.4400
20
201.2200
0
VERTEX
8
CUT
10
184.5000
20
201.1900
0
VERTEX
8
CUT
10
184.5300
20
201.1700
0
VERTEX
8
CUT
10
189.6400
20
198.1500
0
VERTEX
8
CUT
10
189.6500
20
198.1400
0
VERTEX
8
CUT
10
189.6700
20
198.1300
0
VERTEX
8
CUT
10
189.6900
20
198.1200
0
VERTEX
8
CUT
10
189.7700
20
198.0700
0
VERTEX
8
CUT
10
192.5300
20
196.2200
0
VERTEX
8
CUT
10
192.5600
20
196.2000
0
VERTEX
8
CUT
10
192.6200
20
196.1600
0
VERTEX
8
CUT
10
195.8700
20
193.7100
0
VERTEX
8
CUT
10
196.0800
20
193.5700
0
VERTEX
8
CUT
10
196.3000
20
193.4500
0
VERTEX
8
CUT
10
196.5200
20
193.3500
0
VERTEX
8
CUT
10
196.7600
20
193.2800
0
VERTEX
8
CUT
10
197.0100
20
193.2300
0
VERTEX
8
CUT
10
197.2500
20
193.2000
0
VERTEX
8
CUT
10
197.5000
20
193.2000
0
VERTEX
8
CUT
10
197.7500
20
193.2300
0
VERTEX
8
CUT
10
197.9900
20
193.2800
0
VERTEX
8
CUT
10
198.2300
20
193.3500
0
VERTEX
8
CUT
10
198.4600
20
193.4400
0
VERTEX
8
CUT
10
198.6700
20
193.5600
0
VERTEX
8
CUT
10
198.8800
20
193.7000
0
VERTEX
8
CUT
10
199.0700
20
193.8600
0
VERTEX
8
CUT
10
199.2500
20
194.0400
0
VERTEX
8
CUT
10
199.4000
20
194.2300
0
VERTEX
8
CUT
10
199.5400
20
194.4400
0
VERTEX
8
CUT
10
199.6500
20
194.6600
0
VERTEX
8
CUT
10
199.7400
20
194.8900
0
VERTEX
8
CUT
10
199.8100
20
195.1200
0
VERTEX
8
CUT
10
199.8600
20
195.3700
0
VERTEX
8
CUT
10
199.8800
20
195.6200
0
VERTEX
8
CUT
10
199.8700
20
195.8600
0
VERTEX
8
CUT
10
199.8500
20
196.1100
0
VERTEX
8
CUT
10
199.7900
20
196.3500
0
VERTEX
8
CUT
10
199.7200
20
196.5900
0
VERTEX
8
CUT
10
199.6200
20
196.8200
0
VERTEX
8
CUT
10
199.5000
20
197.0300
0
VERTEX
8
CUT
10
199.3500
20
197.2300
0
VERTEX
8
CUT
10
199.3100
20
197.3000
0
VERTEX
8
CUT
10
199.0000
20
197.7200
0
VERTEX
8
CUT
10
198.8600
20
197.8900
0
VERTEX
8
CUT
10
198.7100
20
198.0400
0
VERTEX
8
CUT
10
198.5500
20
198.1900
0
VERTEX
8
CUT
10
198.3800
20
198.3100
0
VERTEX
8
CUT
10
196.1100
20
199.8400
0
VERTEX
8
CUT
10
196.0900
20
199.8500
0
VERTEX
8
CUT
10
196.0800
20
199.8600
0
VERTEX
8
CUT
10
196.0200
20
199.9000
0
VERTEX
8
CUT
10
195.9800
20
199.9400
0
VERTEX
8
CUT
10
191.8200
20
203.5200
0
VERTEX
8
CUT
10
191.6300
20
203.6700
0
VERTEX
8
CUT
10
191.4300
20
203.8000
0
VERTEX
8
CUT
10
191.2200
20
203.9100
0
VERTEX
8
CUT
10
189.2700
20
204.7900
0
VERTEX
8
CUT
10
189.2600
20
204.7900
0
VERTEX
8
CUT
10
189.1700
20
204.8500
0
VERTEX
8
CUT
10
185.4800
20
207.3400
0
VERTEX
8
CUT
10
185.2600
20
207.4700
0
VERTEX
8
CUT
10
185.0300
20
207.5800
0
VERTEX
8
CUT
10
184.7900
20
207.6700
0
VERTEX
8
CUT
10
184.1000
20
207.8700
0
VERTEX
8
CUT
10
184.0100
20
207.9000
0
VERTEX
8
CUT
10
183.9800
20
207.9100
0
VERTEX
8
CUT
10
183.9300
20
207.9300
0
VERTEX
8
CUT
10
183.9100
20
207.9400
0
VERTEX
8
CUT
10
179.6300
20
210.3200
0
VERTEX
8
CUT
10
179.4000
20
210.4300
0
VERTEX
8
CUT
10
179.1500
20
210.5200
0
VERTEX
8
CUT
10
177.6300
20
210.9800
0
VERTEX
8
CUT
10
177.5700
20
211.0000
0
VERTEX
8
CUT
10
177.5600
20
211.0000
0
VERTEX
8
CUT
10
177.5400
20
211.0100
0
VERTEX
8
CUT
10
177.5300
20
211.0100
0
VERTEX
8
CUT
10
177.5200
20
211.0200
0
VERTEX
8
CUT
10
177.5000
20
211.0300
0
VERTEX
8
CUT
10
177.4800
20
211.0400
0
VERTEX
8
CUT
10
177.4700
20
211.0500
0
VERTEX
8
CUT
10
175.8300
20
212.1800
0
VERTEX
8
CUT
10
175.6500
20
212.2900
0
VERTEX
8
CUT
10
175.4700
20
212.3800
0
VERTEX
8
CUT
10
175.2800
20
212.4600
0
VERTEX
8
CUT
10
172.9100
20
213.3400
0
VERTEX
8
CUT
10
172.8800
20
213.3500
0
VERTEX
8
CUT
10
172.8600
20
213.3600
0
VERTEX
8
CUT
10
172.8400
20
213.3700
0
VERTEX
8
CUT
10
172.8000
20
213.3800
0
VERTEX
8
CUT
10
172.7500
20
213.4000
0
VERTEX
8
CUT
10
172.7200
20
213.4200
0
VERTEX
8
CUT
10
170.9400
20
214.4300
0
VERTEX
8
CUT
10
170.7500
20
214.5300
0
VERTEX
8
CUT
10
170.5500
20
214.6100
0
VERTEX
8
CUT
10
169.8800
20
214.8500
0
VERTEX
8
CUT
10
169.8100
20
214.8800
0
VERTEX
8
CUT
10
169.8000
20
214.8800
0
VERTEX
8
CUT
10
169.7900
20
214.8900
0
VERTEX
8
CUT
10
169.7700
20
214.9000
0
VERTEX
8
CUT
10
169.7500
20
214.9200
0
VERTEX
8
CUT
10
168.2900
20
216.0700
0
VERTEX
8
CUT
10
168.1200
20
216.2000
0
VERTEX
8
CUT
10
167.9400
20
216.3000
0
VERTEX
8
CUT
10
165.9600
20
217.3800
0
VERTEX
8
CUT
10
165.8900
20
217.4300
0
SEQEND
0
POLYLINE
8
CUT
66
1
70
1
10
0.0
20
0.0
30
0.0
0
VERTEX
8
CUT
10
153.9200
20
84.3600
0
VERTEX
8
CUT
10
153.6800
20
84.3100
0
VERTEX
8
CUT
10
153.4400
20
84.2300
0
VERTEX
8
CUT
10
153.2100
20
84.1300
0
VERTEX
8
CUT
10
153.0000
20
84.0100
0
VERTEX
8
CUT
10
152.8000
20
83.8700
0
VERTEX
8
CUT
10
152.6100
20
83.7000
0
VERTEX
8
CUT
10
152.4400
20
83.5200
0
VERTEX
8
CUT
10
152.2900
20
83.3300
0
VERTEX
8
CUT
10
152.1500
20
83.1100
0
VERTEX
8
CUT
10
152.0500
20
82.8900
0
VERTEX
8
CUT
10
151.9600
20
82.6600
0
VERTEX
8
CUT
10
151.8900
20
82.4200
0
VERTEX
8
CUT
10
151.8500
20
82.1700
0
VERTEX
8
CUT
10
151.8400
20
81.9300
0
VERTEX
8
CUT
10
151.8500
20
81.6800
0
VERTEX
8
CUT
10
151.8800
20
81.4300
0
VERTEX
8
CUT
10
151.9400
20
81.1900
0
VERTEX
8
CUT
10
152.0300
20
80.9500
0
VERTEX
8
CUT
10
152.1300
20
80.7300
0
VERTEX
8
CUT
10
152.2600
20
80.5200
0
VERTEX
8
CUT
10
152.4100
20
80.3200
0
VERTEX
8
CUT
10
152.5700
20
80.1300
0
VERTEX
8
CUT
10
152.5800
20
80.1200
0
VERTEX
8
CUT
10
152.8300
20
79.9000
0
VERTEX
8
CUT
10
152.9600
20
79.8100
0
VERTEX
8
CUT
10
155.7200
20
77.5100
0
VERTEX
8
CUT
10
155.7500
20
77.4800
0
VERTEX
8
CUT
10
155.8900
20
77.3600
0
VERTEX
8
CUT
10
156.0300
20
77.2300
0
VERTEX
8
CUT
10
159.5400
20
73.6700
0
VERTEX
8
CUT
10
159.6000
20
73.6100
0
VERTEX
8
CUT
10
159.6500
20
73.5400
0
VERTEX
8
CUT
10
162.2700
20
70.0100
0
VERTEX
8
CUT
10
162.2700
20
70.0000
0
VERTEX
8
CUT
10
162.3600
20
69.8600
0
VERTEX
8
CUT
10
164.1500
20
66.5200
0
VERTEX
8
CUT
10
164.1400
20
66.5200
0
VERTEX
8
CUT
10
164.1500
20
66.5000
0
VERTEX
8
CUT
10
164.1700
20
66.4700
0
VERTEX
8
CUT
10
164.1800
20
66.4600
0
VERTEX
8
CUT
10
164.1800
20
66.4500
0
VERTEX
8
CUT
10
164.2000
20
66.4100
0
VERTEX
8
CUT
10
164.2200
20
66.3800
0
VERTEX
8
CUT
10
164.3100
20
66.2100
0
VERTEX
8
CUT
10
165.6400
20
63.0600
0
VERTEX
8
CUT
10
165.6800
20
62.9600
0
VERTEX
8
CUT
10
165.6900
20
62.9400
0
VERTEX
8
CUT
10
165.6900
20
62.9300
0
VERTEX
8
CUT
10
167.3600
20
57.7000
0
VERTEX
8
CUT
10
167.3700
20
57.6800
0
VERTEX
8
CUT
10
167.3700
20
57.6700
0
VERTEX
8
CUT
10
167.3700
20
57.6600
0
VERTEX
8
CUT
10
169.0100
20
50.7900
0
VERTEX
8
CUT
10
169.0700
20
50.5800
0
VERTEX
8
CUT
10
169.1500
20
50.3700
0
VERTEX
8
CUT
10
169.2500
20
50.1700
0
VERTEX
8
CUT
10
169.3600
20
49.9800
0
VERTEX
8
CUT
10
169.4600
20
49.8300
0
VERTEX
8
CUT
10
169.6100
20
49.6400
0
VERTEX
8
CUT
10
169.7700
20
49.4500
0
VERTEX
8
CUT
10
169.7800
20
49.4400
0
VERTEX
8
CUT
10
170.0100
20
49.2400
0
VERTEX
8
CUT
10
170.2600
20
49.0700
0
VERTEX
8
CUT
10
170.4500
20
48.9500
0
VERTEX
8
CUT
10
170.4600
20
48.9500
0
VERTEX
8
CUT
10
170.4700
20
48.9400
0
VERTEX
8
CUT
10
170.5300
20
48.8600
0
VERTEX
8
CUT
10
170.6600
20
48.6900
0
VERTEX
8
CUT
10
170.8600
20
48.4700
0
VERTEX
8
CUT
10
171.0800
20
48.2700
0
VERTEX
8
CUT
10
172.7200
20
46.9600
0
VERTEX
8
CUT
10
172.9300
20
46.8100
0
VERTEX
8
CUT
10
173.1500
20
46.6800
0
VERTEX
8
CUT
10
175.0500
20
45.7200
0
VERTEX
8
CUT
10
175.2400
20
45.6300
0
VERTEX
8
CUT
10
175.4300
20
45.5600
0
VERTEX
8
CUT
10
175.6300
20
45.5100
0
VERTEX
8
CUT
10
176.2100
20
45.3800
0
VERTEX
8
CUT
10
176.3900
20
45.3500
0
VERTEX
8
CUT
10
177.7200
20
45.1500
0
VERTEX
8
CUT
10
177.9600
20
45.1200
0
VERTEX
8
CUT
10
178.2000
20
45.1200
0
VERTEX
8
CUT
10
178.4400
20
45.1500
0
VERTEX
8
CUT
10
179.3300
20
45.2800
0
VERTEX
8
CUT
10
179.4000
20
45.2800
0
VERTEX
8
CUT
10
179.4900
20
45.3000
0
VERTEX
8
CUT
10
179.6500
20
45.3200
0
VERTEX
8
CUT
10
179.8900
20
45.3800
0
VERTEX
8
CUT
10
180.1300
20
45.4700
0
VERTEX
8
CUT
10
181.3500
20
45.9900
0
VERTEX
8
CUT
10
181.5700
20
46.0900
0
VERTEX
8
CUT
10
181.7700
20
46.2200
0
VERTEX
8
CUT
10
182.1100
20
46.4500
0
VERTEX
8
CUT
10
182.3200
20
46.6100
0
VERTEX
8
CUT
10
182.5100
20
46.7800
0
VERTEX
8
CUT
10
183.6900
20
48.0100
0
VERTEX
8
CUT
10
183.7000
20
48.0100
0
VERTEX
8
CUT
10
183.8600
20
48.1900
0
VERTEX
8
CUT
10
184.0000
20
48.3800
0
VERTEX
8
CUT
10
184.1300
20
48.5800
0
VERTEX
8
CUT
10
185.2200
20
50.5800
0
VERTEX
8
CUT
10
185.3100
20
50.7800
0
VERTEX
8
CUT
10
185.3900
20
50.9800
0
VERTEX
8
CUT
10
185.4500
20
51.1900
0
VERTEX
8
CUT
10
186.0100
20
53.4900
0
VERTEX
8
CUT
10
186.0600
20
53.7600
0
VERTEX
8
CUT
10
186.0800
20
54.0300
0
VERTEX
8
CUT
10
186.1200
20
56.1700
0
VERTEX
8
CUT
10
186.1200
20
56.2500
0
VERTEX
8
CUT
10
186.1300
20
56.2800
0
VERTEX
8
CUT
10
186.1400
20
56.3200
0
VERTEX
8
CUT
10
186.1700
20
56.4800
0
VERTEX
8
CUT
10
186.2200
20
56.7200
0
VERTEX
8
CUT
10
186.2400
20
56.9600
0
VERTEX
8
CUT
10
186.2400
20
57.2000
0
VERTEX
8
CUT
10
186.2100
20
57.4400
0
VERTEX
8
CUT
10
186.1600
20
57.6800
0
VERTEX
8
CUT
10
186.1200
20
57.8100
0
VERTEX
8
CUT
10
186.1200
20
57.8200
0
VERTEX
8
CUT
10
186.1200
20
57.8300
0
VERTEX
8
CUT
10
186.1200
20
57.8700
0
VERTEX
8
CUT
10
186.1200
20
57.9000
0
VERTEX
8
CUT
10
186.0800
20
59.8800
0
VERTEX
8
CUT
10
186.0600
20
60.1200
0
VERTEX
8
CUT
10
186.0200
20
60.3700
0
VERTEX
8
CUT
10
185.1400
20
64.3800
0
VERTEX
8
CUT
10
185.0700
20
64.6300
0
VERTEX
8
CUT
10
183.7400
20
68.6100
0
VERTEX
8
CUT
10
183.7300
20
68.6500
0
VERTEX
8
CUT
10
183.7100
20
68.7000
0
VERTEX
8
CUT
10
183.6500
20
68.8800
0
VERTEX
8
CUT
10
182.6000
20
71.4000
0
VERTEX
8
CUT
10
182.6000
20
71.4100
0
VERTEX
8
CUT
10
182.5800
20
71.4500
0
VERTEX
8
CUT
10
182.5500
20
71.5500
0
VERTEX
8
CUT
10
180.9300
20
76.8800
0
VERTEX
8
CUT
10
180.9200
20
76.9200
0
VERTEX
8
CUT
10
180.8900
20
76.9900
0
VERTEX
8
CUT
10
180.8900
20
77.0000
0
VERTEX
8
CUT
10
180.8700
20
77.0700
0
VERTEX
8
CUT
10
180.8600
20
77.1300
0
VERTEX
8
CUT
10
180.4000
20
79.8600
0
VERTEX
8
CUT
10
180.3900
20
79.8900
0
VERTEX
8
CUT
10
180.3900
20
79.9200
0
VERTEX
8
CUT
10
180.3900
20
79.9300
0
VERTEX
8
CUT
10
180.3900
20
80.0100
0
VERTEX
8
CUT
10
180.4100
20
84.8000
0
VERTEX
8
CUT
10
180.4100
20
84.8200
0
VERTEX
8
CUT
10
180.4200
20
84.8600
0
VERTEX
8
CUT
10
180.4300
20
84.9200
0
VERTEX
8
CUT
10
180.4300
20
84.9300
0
VERTEX
8
CUT
10
180.4300
20
84.9400
0
VERTEX
8
CUT
10
180.8400
20
86.8400
0
VERTEX
8
CUT
10
180.8700
20
87.0300
0
VERTEX
8
CUT
10
180.8800
20
87.0500
0
VERTEX
8
CUT
10
180.8800
20
87.0600
0
VERTEX
8
CUT
10
180.9000
20
87.1100
0
VERTEX
8
CUT
10
181.8100
20
89.3800
0
VERTEX
8
CUT
10
181.8500
20
89.4900
0
VERTEX
8
CUT
10
181.8600
20
89.5200
0
VERTEX
8
CUT
10
181.8700
20
89.5400
0
VERTEX
8
CUT
10
181.8700
20
89.5500
0
VERTEX
8
CUT
10
181.9200
20
89.6100
0
VERTEX
8
CUT
10
183.0800
20
91.4300
0
VERTEX
8
CUT
10
183.1200
20
91.4800
0
VERTEX
8
CUT
10
183.1200
20
91.4900
0
VERTEX
8
CUT
10
183.1400
20
91.5100
0
VERTEX
8
CUT
10
183.1700
20
91.5400
0
VERTEX
8
CUT
10
183.1800
20
91.5500
0
VERTEX
8
CUT
10
183.2100
20
91.5900
0
VERTEX
8
CUT
10
184.6600
20
93.0900
0
VERTEX
8
CUT
10
184.7000
20
93.1300
0
VERTEX
8
CUT
10
184.7200
20
93.1500
0
VERTEX
8
CUT
10
184.7500
20
93.1800
0
VERTEX
8
CUT
10
184.7600
20
93.1800
0
VERTEX
8
CUT
10
184.7900
20
93.2100
0
VERTEX
8
CUT
10
184.8200
20
93.2400
0
VERTEX
8
CUT
10
184.8400
20
93.2500
0
VERTEX
8
CUT
10
186.0300
20
94.1800
0
VERTEX
8
CUT
10
186.0400
20
94.1900
0
VERTEX
8
CUT
10
186.0700
20
94.2100
0
VERTEX
8
CUT
10
186.1000
20
94.2300
0
VERTEX
8
CUT
10
186.2000
20
94.2800
0
VERTEX
8
CUT
10
186.2200
20
94.2900
0
VERTEX
8
CUT
10
186.2400
20
94.3000
0
VERTEX
8
CUT
10
186.2900
20
94.3300
0
VERTEX
8
CUT
10
187.9000
20
95.1400
0
VERTEX
8
CUT
10
187.9900
20
95.1800
0
VERTEX
8
CUT
10
188.0200
20
95.1900
0
VERTEX
8
CUT
10
188.0400
20
95.2000
0
VERTEX
8
CUT
10
189.5100
20
95.6900
0
VERTEX
8
CUT
10
189.5500
20
95.7000
0
VERTEX
8
CUT
10
189.5800
20
95.7100
0
VERTEX
8
CUT
10
189.6100
20
95.7200
0
VERTEX
8
CUT
10
189.7200
20
95.7500
0
VERTEX
8
CUT
10
189.9500
20
95.8300
0
VERTEX
8
CUT
10
190.1800
20
95.9300
0
VERTEX
8
CUT
10
190.4000
20
96.0600
0
VERTEX
8
CUT
10
190.6000
20
96.2100
0
VERTEX
8
CUT
10
190.7900
20
96.3700
0
VERTEX
8
CUT
10
190.9600
20
96.5600
0
VERTEX
8
CUT
10
191.1100
20
96.7600
0
VERTEX
8
CUT
10
191.2400
20
96.9700
0
VERTEX
8
CUT
10
191.3400
20
97.2000
0
VERTEX
8
CUT
10
191.4300
20
97.4400
0
VERTEX
8
CUT
10
191.4900
20
97.6800
0
VERTEX
8
CUT
10
191.5200
20
97.9300
0
VERTEX
8
CUT
10
191.5300
20
98.1800
0
VERTEX
8
CUT
10
191.5100
20
98.4300
0
VERTEX
8
CUT
10
191.4700
20
98.6700
0
VERTEX
8
CUT
10
191.4100
20
98.9200
0
VERTEX
8
CUT
10
191.3200
20
99.1500
0
VERTEX
8
CUT
10
191.2100
20
99.3800
0
VERTEX
8
CUT
10
191.0800
20
99.5900
0
VERTEX
8
CUT
10
190.9200
20
99.7800
0
VERTEX
8
CUT
10
190.7500
20
99.9700
0
VERTEX
8
CUT
10
190.1900
20
100.5000
0
VERTEX
8
CUT
10
189.9800
20
100.6700
0
VERTEX
8
CUT
10
189.7500
20
100.8300
0
VERTEX
8
CUT
10
189.5000
20
100.9600
0
VERTEX
8
CUT
10
187.7100
20
101.7700
0
VERTEX
8
CUT
10
187.4700
20
101.8600
0
VERTEX
8
CUT
10
187.2100
20
101.9300
0
VERTEX
8
CUT
10
186.9500
20
101.9700
0
VERTEX
8
CUT
10
186.6900
20
101.9900
0
VERTEX
8
CUT
10
184.7700
20
102.0000
0
VERTEX
8
CUT
10
184.5700
20
101.9900
0
VERTEX
8
CUT
10
184.3700
20
101.9700
0
VERTEX
8
CUT
10
183.3800
20
101.8100
0
VERTEX
8
CUT
10
183.3000
20
101.8100
0
VERTEX
8
CUT
10
183.0600
20
101.7700
0
VERTEX
8
CUT
10
182.8200
20
101.7100
0
VERTEX
8
CUT
10
180.0400
20
100.8500
0
VERTEX
8
CUT
10
179.8500
20
100.7800
0
VERTEX
8
CUT
10
179.6600
20
100.7000
0
VERTEX
8
CUT
10
176.3500
20
99.0500
0
VERTEX
8
CUT
10
176.1900
20
98.9700
0
VERTEX
8
CUT
10
176.1200
20
98.9400
0
VERTEX
8
CUT
10
175.9100
20
98.8100
0
VERTEX
8
CUT
10
173.9500
20
97.4900
0
VERTEX
8
CUT
10
173.7800
20
97.3600
0
VERTEX
8
CUT
10
170.2400
20
94.5000
0
VERTEX
8
CUT
10
170.0900
20
94.3700
0
VERTEX
8
CUT
10
170.0400
20
94.3300
0
VERTEX
8
CUT
10
170.0200
20
94.3100
0
VERTEX
8
CUT
10
165.2200
20
89.8400
0
VERTEX
8
CUT
10
165.1600
20
89.7900
0
VERTEX
8
CUT
10
165.1400
20
89.7700
0
VERTEX
8
CUT
10
165.0700
20
89.7200
0
VERTEX
8
CUT
10
165.0700
20
89.7100
0
VERTEX
8
CUT
10
161.5100
20
87.0700
0
VERTEX
8
CUT
10
161.4800
20
87.0500
0
VERTEX
8
CUT
10
161.4600
20
87.0300
0
VERTEX
8
CUT
10
161.4500
20
87.0300
0
VERTEX
8
CUT
10
161.4400
20
87.0200
0
VERTEX
8
CUT
10
161.4300
20
87.0200
0
VERTEX
8
CUT
10
157.9000
20
85.3800
0
VERTEX
8
CUT
10
157.8100
20
85.3500
0
VERTEX
8
CUT
10
157.7900
20
85.3400
0
VERTEX
8
CUT
10
157.7100
20
85.3100
0
VERTEX
8
CUT
10
155.3900
20
84.6200
0
VERTEX
8
CUT
10
155.2600
20
84.5900
0
SEQEND
0
POLYLINE
8
CUT
66
1
70
1
10
0.0
20
0.0
30
0.0
0
VERTEX
8
CUT
10
117.7700
20
120.5500
0
VERTEX
8
CUT
10
117.5500
20
120.4600
0
VERTEX
8
CUT
10
117.3300
20
120.3400
0
VERTEX
8
CUT
10
117.1300
20
120.2100
0
VERTEX
8
CUT
10
116.9400
20
120.0600
0
VERTEX
8
CUT
10
116.7600
20
119.8800
0
VERTEX
8
CUT
10
116.6100
20
119.7000
0
VERTEX
8
CUT
10
116.4700
20
119.4900
0
VERTEX
8
CUT
10
116.3500
20
119.2800
0
VERTEX
8
CUT
10
116.2500
20
119.0500
0
VERTEX
8
CUT
10
116.1800
20
118.8200
0
VERTEX
8
CUT
10
116.1300
20
118.5800
0
VERTEX
8
CUT
10
116.1000
20
118.3400
0
VERTEX
8
CUT
10
116.1000
20
118.0900
0
VERTEX
8
CUT
10
116.1200
20
117.8500
0
VERTEX
8
CUT
10
116.1700
20
117.6100
0
VERTEX
8
CUT
10
116.2400
20
117.3800
0
VERTEX
8
CUT
10
116.3300
20
117.1500
0
VERTEX
8
CUT
10
116.4400
20
116.9300
0
VERTEX
8
CUT
10
116.5700
20
116.7300
0
VERTEX
8
CUT
10
116.7300
20
116.5300
0
VERTEX
8
CUT
10
116.9000
20
116.3600
0
VERTEX
8
CUT
10
117.0800
20
116.2000
0
VERTEX
8
CUT
10
117.2900
20
116.0600
0
VERTEX
8
CUT
10
117.5000
20
115.9500
0
VERTEX
8
CUT
10
118.0100
20
115.7000
0
VERTEX
8
CUT
10
118.2300
20
115.6000
0
VERTEX
8
CUT
10
118.4600
20
115.5300
0
VERTEX
8
CUT
10
120.7100
20
114.9200
0
VERTEX
8
CUT
10
121.0400
20
114.8500
0
VERTEX
8
CUT
10
122.5000
20
114.6600
0
VERTEX
8
CUT
10
122.7500
20
114.6400
0
VERTEX
8
CUT
10
122.9900
20
114.6500
0
VERTEX
8
CUT
10
123.2400
20
114.6800
0
VERTEX
8
CUT
10
123.4800
20
114.7300
0
VERTEX
8
CUT
10
123.7200
20
114.8100
0
VERTEX
8
CUT
10
123.9500
20
114.9100
0
VERTEX
8
CUT
10
124.1600
20
115.0300
0
VERTEX
8
CUT
10
124.3600
20
115.1700
0
VERTEX
8
CUT
10
124.5500
20
115.3400
0
VERTEX
8
CUT
10
124.7200
20
115.5200
0
VERTEX
8
CUT
10
124.8700
20
115.7100
0
VERTEX
8
CUT
10
125.0100
20
115.9300
0
VERTEX
8
CUT
10
125.1200
20
116.1500
0
VERTEX
8
CUT
10
125.2000
20
116.3800
0
VERTEX
8
CUT
10
125.2700
20
116.6200
0
VERTEX
8
CUT
10
125.3100
20
116.8700
0
VERTEX
8
CUT
10
125.3200
20
117.1200
0
VERTEX
8
CUT
10
125.3100
20
117.3600
0
VERTEX
8
CUT
10
125.2800
20
117.6100
0
VERTEX
8
CUT
10
125.2200
20
117.8500
0
VERTEX
8
CUT
10
125.1300
20
118.0900
0
VERTEX
8
CUT
10
125.0300
20
118.3100
0
VERTEX
8
CUT
10
124.9000
20
118.5200
0
VERTEX
8
CUT
10
124.7500
20
118.7200
0
VERTEX
8
CUT
10
124.6600
20
118.8200
0
VERTEX
8
CUT
10
124.5900
20
118.9100
0
VERTEX
8
CUT
10
124.5600
20
118.9400
0
VERTEX
8
CUT
10
124.5600
20
118.9500
0
VERTEX
8
CUT
10
124.5500
20
118.9700
0
VERTEX
8
CUT
10
124.5100
20
119.0500
0
VERTEX
8
CUT
10
124.2800
20
119.5700
0
VERTEX
8
CUT
10
124.2600
20
119.6300
0
VERTEX
8
CUT
10
124.2500
20
119.6500
0
VERTEX
8
CUT
10
124.2400
20
119.6900
0
VERTEX
8
CUT
10
124.2400
20
119.7000
0
VERTEX
8
CUT
10
124.2400
20
119.7100
0
VERTEX
8
CUT
10
124.2500
20
119.7900
0
VERTEX
8
CUT
10
124.6500
20
123.0200
0
VERTEX
8
CUT
10
124.6700
20
123.2600
0
VERTEX
8
CUT
10
124.6600
20
123.5000
0
VERTEX
8
CUT
10
124.6400
20
123.7400
0
VERTEX
8
CUT
10
124.3200
20
125.6700
0
VERTEX
8
CUT
10
124.2600
20
125.9100
0
VERTEX
8
CUT
10
124.1900
20
126.1500
0
VERTEX
8
CUT
10
124.0900
20
126.3700
0
VERTEX
8
CUT
10
123.9700
20
126.5900
0
VERTEX
8
CUT
10
123.8300
20
126.7900
0
VERTEX
8
CUT
10
123.6700
20
126.9800
0
VERTEX
8
CUT
10
123.4900
20
127.1500
0
VERTEX
8
CUT
10
123.2900
20
127.3000
0
VERTEX
8
CUT
10
123.0900
20
127.4300
0
VERTEX
8
CUT
10
122.8700
20
127.5400
0
VERTEX
8
CUT
10
122.6400
20
127.6300
0
VERTEX
8
CUT
10
122.4000
20
127.7000
0
VERTEX
8
CUT
10
122.1500
20
127.7400
0
VERTEX
8
CUT
10
121.9100
20
127.7600
0
VERTEX
8
CUT
10
121.6600
20
127.7500
0
VERTEX
8
CUT
10
121.4200
20
127.7200
0
VERTEX
8
CUT
10
121.1800
20
127.6700
0
VERTEX
8
CUT
10
120.9400
20
127.5900
0
VERTEX
8
CUT
10
120.7200
20
127.4900
0
VERTEX
8
CUT
10
120.5000
20
127.3700
0
VERTEX
8
CUT
10
120.3000
20
127.2200
0
VERTEX
8
CUT
10
120.1200
20
127.0600
0
VERTEX
8
CUT
10
119.9500
20
126.8800
0
VERTEX
8
CUT
10
119.8000
20
126.6800
0
VERTEX
8
CUT
10
119.6700
20
126.4800
0
VERTEX
8
CUT
10
119.5600
20
126.2500
0
VERTEX
8
CUT
10
119.3000
20
125.6500
0
VERTEX
8
CUT
10
119.2200
20
125.4500
0
VERTEX
8
CUT
10
119.1600
20
125.2500
0
VERTEX
8
CUT
10
119.1200
20
125.0300
0
VERTEX
8
CUT
10
118.6300
20
121.7900
0
VERTEX
8
CUT
10
118.6200
20
121.7100
0
VERTEX
8
CUT
10
118.6000
20
121.6100
0
VERTEX
8
CUT
10
118.6000
20
121.6000
0
VERTEX
8
CUT
10
118.5900
20
121.5800
0
VERTEX
8
CUT
10
118.5800
20
121.5800
0
VERTEX
8
CUT
10
118.5200
20
121.5000
0
VERTEX
8
CUT
10
118.4800
20
121.4500
0
VERTEX
8
CUT
10
118.0000
20
120.7800
0
VERTEX
8
CUT
10
117.9500
20
120.7200
0
VERTEX
8
CUT
10
117.9200
20
120.6800
0
VERTEX
8
CUT
10
117.8900
20
120.6400
0
VERTEX
8
CUT
10
117.8600
20
120.6000
0
VERTEX
8
CUT
10
117.8400
20
120.5800
0
VERTEX
8
CUT
10
117.8200
20
120.5700
0
SEQEND
0
POLYLINE
8
CUT
66
1
70
1
10
0.0
20
0.0
30
0.0
0
VERTEX
8
CUT
10
107.5500
20
130.4800
0
VERTEX
8
CUT
10
107.5800
20
130.4200
0
VERTEX
8
CUT
10
107.6000
20
130.3900
0
VERTEX
8
CUT
10
107.6500
20
130.2800
0
VERTEX
8
CUT
10
108.8200
20
127.6300
0
VERTEX
8
CUT
10
108.9300
20
127.4100
0
VERTEX
8
CUT
10
109.0700
20
127.2000
0
VERTEX
8
CUT
10
109.2200
20
127.0100
0
VERTEX
8
CUT
10
109.3900
20
126.8300
0
VERTEX
8
CUT
10
109.5700
20
126.6700
0
VERTEX
8
CUT
10
109.7700
20
126.5300
0
VERTEX
8
CUT
10
109.9900
20
126.4100
0
VERTEX
8
CUT
10
110.2100
20
126.3100
0
VERTEX
8
CUT
10
110.4400
20
126.2300
0
VERTEX
8
CUT
10
110.6800
20
126.1800
0
VERTEX
8
CUT
10
110.9300
20
126.1500
0
VERTEX
8
CUT
10
111.1700
20
126.1400
0
VERTEX
8
CUT
10
111.4200
20
126.1600
0
VERTEX
8
CUT
10
111.6600
20
126.2000
0
VERTEX
8
CUT
10
111.9000
20
126.2700
0
VERTEX
8
CUT
10
112.1300
20
126.3600
0
VERTEX
8
CUT
10
112.3500
20
126.4700
0
VERTEX
8
CUT
10
112.5500
20
126.6000
0
VERTEX
8
CUT
10
112.7500
20
126.7500
0
VERTEX
8
CUT
10
112.9200
20
126.9200
0
VERTEX
8
CUT
10
113.0800
20
127.1100
0
VERTEX
8
CUT
10
113.2300
20
127.3100
0
VERTEX
8
CUT
10
113.3500
20
127.5200
0
VERTEX
8
CUT
10
113.4400
20
127.7500
0
VERTEX
8
CUT
10
113.5200
20
127.9800
0
VERTEX
8
CUT
10
113.7800
20
128.9100
0
VERTEX
8
CUT
10
113.8000
20
128.9600
0
VERTEX
8
CUT
10
113.8000
20
128.9700
0
VERTEX
8
CUT
10
113.8000
20
128.9800
0
VERTEX
8
CUT
10
114.7000
20
130.5700
0
VERTEX
8
CUT
10
114.8100
20
130.8000
0
VERTEX
8
CUT
10
114.9000
20
131.0300
0
VERTEX
8
CUT
10
114.9600
20
131.2700
0
VERTEX
8
CUT
10
115.0000
20
131.5200
0
VERTEX
8
CUT
10
115.0200
20
131.7700
0
VERTEX
8
CUT
10
115.0100
20
132.0200
0
VERTEX
8
CUT
10
114.9800
20
132.2700
0
VERTEX
8
CUT
10
114.9200
20
132.5100
0
VERTEX
8
CUT
10
114.8300
20
132.7500
0
VERTEX
8
CUT
10
114.7300
20
132.9700
0
VERTEX
8
CUT
10
114.6000
20
133.1900
0
VERTEX
8
CUT
10
114.4500
20
133.3900
0
VERTEX
8
CUT
10
114.2800
20
133.5700
0
VERTEX
8
CUT
10
114.0900
20
133.7400
0
VERTEX
8
CUT
10
113.8900
20
133.8900
0
VERTEX
8
CUT
10
113.6800
20
134.0200
0
VERTEX
8
CUT
10
113.4500
20
134.1200
0
VERTEX
8
CUT
10
113.2100
20
134.2000
0
VERTEX
8
CUT
10
112.9700
20
134.2600
0
VERTEX
8
CUT
10
111.5100
20
134.5300
0
VERTEX
8
CUT
10
111.4600
20
134.5400
0
VERTEX
8
CUT
10
111.3300
20
134.5700
0
VERTEX
8
CUT
10
109.9200
20
135.0300
0
VERTEX
8
CUT
10
109.6900
20
135.1000
0
VERTEX
8
CUT
10
109.4500
20
135.1400
0
VERTEX
8
CUT
10
109.2000
20
135.1600
0
VERTEX
8
CUT
10
108.9600
20
135.1500
0
VERTEX
8
CUT
10
108.7200
20
135.1200
0
VERTEX
8
CUT
10
108.4800
20
135.0700
0
VERTEX
8
CUT
10
108.2500
20
134.9900
0
VERTEX
8
CUT
10
108.0200
20
134.9000
0
VERTEX
8
CUT
10
107.8100
20
134.7800
0
VERTEX
8
CUT
10
107.6100
20
134.6400
0
VERTEX
8
CUT
10
107.4300
20
134.4800
0
VERTEX
8
CUT
10
107.2600
20
134.3000
0
VERTEX
8
CUT
10
107.1100
20
134.1100
0
VERTEX
8
CUT
10
106.9700
20
133.9100
0
VERTEX
8
CUT
10
106.8600
20
133.6900
0
VERTEX
8
CUT
10
106.7700
20
133.4600
0
VERTEX
8
CUT
10
106.7100
20
133.2300
0
VERTEX
8
CUT
10
106.6600
20
132.9900
0
VERTEX
8
CUT
10
106.6400
20
132.7500
0
VERTEX
8
CUT
10
106.6400
20
132.5000
0
VERTEX
8
CUT
10
106.6700
20
132.2600
0
VERTEX
8
CUT
10
106.7200
20
132.0200
0
VERTEX
8
CUT
10
106.8000
20
131.7900
0
VERTEX
8
CUT
10
106.8900
20
131.5600
0
VERTEX
8
CUT
10
107.0100
20
131.3500
0
SEQEND
0
POLYLINE
8
CUT
66
1
70
1
10
0.0
20
0.0
30
0.0
0
VERTEX
8
CUT
10
75.1400
20
153.0600
0
VERTEX
8
CUT
10
74.9800
20
152.8800
0
VERTEX
8
CUT
10
74.8300
20
152.6800
0
VERTEX
8
CUT
10
74.7100
20
152.4700
0
VERTEX
8
CUT
10
74.6000
20
152.2500
0
VERTEX
8
CUT
10
74.5200
20
152.0200
0
VERTEX
8
CUT
10
74.4600
20
151.7900
0
VERTEX
8
CUT
10
74.4200
20
151.5500
0
VERTEX
8
CUT
10
74.4100
20
151.3000
0
VERTEX
8
CUT
10
74.4200
20
151.0600
0
VERTEX
8
CUT
10
74.4500
20
150.8200
0
VERTEX
8
CUT
10
74.5100
20
150.5800
0
VERTEX
8
CUT
10
74.5900
20
150.3500
0
VERTEX
8
CUT
10
74.6900
20
150.1300
0
VERTEX
8
CUT
10
74.8200
20
149.9200
0
VERTEX
8
CUT
10
74.9600
20
149.7200
0
VERTEX
8
CUT
10
75.1200
20
149.5400
0
VERTEX
8
CUT
10
75.3000
20
149.3800
0
VERTEX
8
CUT
10
75.4900
20
149.2300
0
VERTEX
8
CUT
10
75.7000
20
149.1000
0
VERTEX
8
CUT
10
75.9200
20
148.9900
0
VERTEX
8
CUT
10
76.1500
20
148.9100
0
VERTEX
8
CUT
10
76.3800
20
148.8500
0
VERTEX
8
CUT
10
76.6200
20
148.8100
0
VERTEX
8
CUT
10
76.8700
20
148.7900
0
VERTEX
8
CUT
10
78.6300
20
148.7600
0
VERTEX
8
CUT
10
78.6400
20
148.7600
0
VERTEX
8
CUT
10
78.7100
20
148.7500
0
VERTEX
8
CUT
10
78.8000
20
148.7400
0
VERTEX
8
CUT
10
79.3100
20
148.6200
0
VERTEX
8
CUT
10
79.6000
20
148.5700
0
VERTEX
8
CUT
10
79.8900
20
148.5500
0
VERTEX
8
CUT
10
79.9100
20
148.5500
0
VERTEX
8
CUT
10
79.9200
20
148.5500
0
VERTEX
8
CUT
10
83.9000
20
148.5600
0
VERTEX
8
CUT
10
84.1200
20
148.5700
0
VERTEX
8
CUT
10
84.3400
20
148.6000
0
VERTEX
8
CUT
10
85.2100
20
148.7600
0
VERTEX
8
CUT
10
85.5000
20
148.8300
0
VERTEX
8
CUT
10
85.7800
20
148.9400
0
VERTEX
8
CUT
10
86.5000
20
149.2600
0
VERTEX
8
CUT
10
86.7100
20
149.3600
0
VERTEX
8
CUT
10
86.9100
20
149.4900
0
VERTEX
8
CUT
10
87.1000
20
149.6400
0
VERTEX
8
CUT
10
87.2800
20
149.8000
0
VERTEX
8
CUT
10
87.4400
20
149.9800
0
VERTEX
8
CUT
10
87.5800
20
150.1800
0
VERTEX
8
CUT
10
87.7000
20
150.3900
0
VERTEX
8
CUT
10
87.8000
20
150.6100
0
VERTEX
8
CUT
10
87.8800
20
150.8300
0
VERTEX
8
CUT
10
87.9300
20
151.0700
0
VERTEX
8
CUT
10
87.9700
20
151.3000
0
VERTEX
8
CUT
10
87.9800
20
151.5400
0
VERTEX
8
CUT
10
87.9700
20
151.7800
0
VERTEX
8
CUT
10
87.9300
20
152.0200
0
VERTEX
8
CUT
10
87.8800
20
152.2500
0
VERTEX
8
CUT
10
87.8000
20
152.4800
0
VERTEX
8
CUT
10
87.6900
20
152.7000
0
VERTEX
8
CUT
10
87.5700
20
152.9100
0
VERTEX
8
CUT
10
87.4300
20
153.1000
0
VERTEX
8
CUT
10
87.2700
20
153.2800
0
VERTEX
8
CUT
10
87.1000
20
153.4500
0
VERTEX
8
CUT
10
86.9100
20
153.5900
0
VERTEX
8
CUT
10
86.7000
20
153.7200
0
VERTEX
8
CUT
10
85.2100
20
154.5600
0
VERTEX
8
CUT
10
85.1600
20
154.5900
0
VERTEX
8
CUT
10
85.0600
20
154.6500
0
VERTEX
8
CUT
10
85.0100
20
154.6800
0
VERTEX
8
CUT
10
85.0000
20
154.6900
0
VERTEX
8
CUT
10
84.9300
20
154.7500
0
VERTEX
8
CUT
10
84.0100
20
155.6700
0
VERTEX
8
CUT
10
83.9700
20
155.7200
0
VERTEX
8
CUT
10
83.9400
20
155.7500
0
VERTEX
8
CUT
10
83.9200
20
155.7800
0
VERTEX
8
CUT
10
83.9100
20
155.8100
0
VERTEX
8
CUT
10
83.4600
20
156.9300
0
VERTEX
8
CUT
10
83.4300
20
157.0000
0
VERTEX
8
CUT
10
83.4200
20
157.0300
0
VERTEX
8
CUT
10
83.3900
20
157.1400
0
VERTEX
8
CUT
10
83.3200
20
157.3700
0
VERTEX
8
CUT
10
83.2100
20
157.5900
0
VERTEX
8
CUT
10
83.0900
20
157.8000
0
VERTEX
8
CUT
10
82.9500
20
158.0000
0
VERTEX
8
CUT
10
82.7900
20
158.1900
0
VERTEX
8
CUT
10
82.6100
20
158.3500
0
VERTEX
8
CUT
10
82.4200
20
158.5000
0
VERTEX
8
CUT
10
82.2100
20
158.6300
0
VERTEX
8
CUT
10
81.9900
20
158.7400
0
VERTEX
8
CUT
10
81.7600
20
158.8300
0
VERTEX
8
CUT
10
81.5300
20
158.8900
0
VERTEX
8
CUT
10
81.2900
20
158.9300
0
VERTEX
8
CUT
10
81.0400
20
158.9500
0
VERTEX
8
CUT
10
80.8000
20
158.9400
0
VERTEX
8
CUT
10
80.5600
20
158.9100
0
VERTEX
8
CUT
10
80.3200
20
158.8600
0
VERTEX
8
CUT
10
80.0900
20
158.7800
0
VERTEX
8
CUT
10
79.8600
20
158.6800
0
VERTEX
8
CUT
10
79.6500
20
158.5600
0
VERTEX
8
CUT
10
79.4500
20
158.4200
0
VERTEX
8
CUT
10
79.2700
20
158.2600
0
VERTEX
8
CUT
10
79.1000
20
158.0800
0
VERTEX
8
CUT
10
78.9500
20
157.8900
0
VERTEX
8
CUT
10
78.8200
20
157.6900
0
VERTEX
8
CUT
10
78.7200
20
157.4900
0
VERTEX
8
CUT
10
78.7100
20
157.4700
0
VERTEX
8
CUT
10
78.7100
20
157.4600
0
VERTEX
8
CUT
10
77.5900
20
155.1000
0
VERTEX
8
CUT
10
77.5900
20
155.0900
0
VERTEX
8
CUT
10
77.5800
20
155.0800
0
VERTEX
8
CUT
10
77.5600
20
155.0600
0
VERTEX
8
CUT
10
77.4900
20
155.0000
0
VERTEX
8
CUT
10
76.2800
20
154.1300
0
VERTEX
8
CUT
10
76.1200
20
154.0100
0
VERTEX
8
CUT
10
76.0500
20
153.9500
0
VERTEX
8
CUT
10
76.0300
20
153.9300
0
VERTEX
8
CUT
10
75.9700
20
153.8700
0
VERTEX
8
CUT
10
75.9500
20
153.8600
0
VERTEX
8
CUT
10
75.8300
20
153.7500
0
SEQEND
0
ENDSEC
0
EOF
