0
SECTION
2
HEADER
9
$ACADVER
1
AC1009
9
$INSUNITS
70
4
0
ENDSEC
0
SECTION
2
TABLES
0
TABLE
2
LAYER
70
1
0
LAYER
2
CUT
70
0
62
7
6
CONTINUOUS
0
ENDTAB
0
ENDSEC
0
SECTION
2
ENTITIES
0
POLYLINE
8
CUT
66
1
70
1
10
0.0
20
0.0
30
0.0
0
VERTEX
8
CUT
10
0.0000
20
299.9900
0
VERTEX
8
CUT
10
0.0100
20
300.0000
0
VERTEX
8
CUT
10
0.0200
20
300.0000
0
VERTEX
8
CUT
10
0.0500
20
300.0000
0
VERTEX
8
CUT
10
299.9500
20
300.0000
0
VERTEX
8
CUT
10
299.9800
20
300.0000
0
VERTEX
8
CUT
10
299.9900
20
300.0000
0
VERTEX
8
CUT
10
300.0000
20
300.0000
0
VERTEX
8
CUT
10
300.0000
20
299.9900
0
VERTEX
8
CUT
10
300.0000
20
299.9800
0
VERTEX
8
CUT
10
300.0000
20
299.9500
0
VERTEX
8
CUT
10
300.0000
20
0.0500
0
VERTEX
8
CUT
10
300.0000
20
0.0200
0
VERTEX
8
CUT
10
300.0000
20
0.0100
0
VERTEX
8
CUT
10
299.9900
20
0.0000
0
VERTEX
8
CUT
10
299.9800
20
0.0000
0
VERTEX
8
CUT
10
299.9500
20
0.0000
0
VERTEX
8
CUT
10
0.0500
20
0.0000
0
VERTEX
8
CUT
10
0.0200
20
0.0000
0
VERTEX
8
CUT
10
0.0100
20
0.0000
0
VERTEX
8
CUT
10
0.0100
20
0.0100
0
VERTEX
8
CUT
10
0.0000
20
0.0100
0
VERTEX
8
CUT
10
0.0000
20
0.0200
0
VERTEX
8
CUT
10
0.0000
20
0.0500
0
VERTEX
8
CUT
10
0.0000
20
299.9500
0
VERTEX
8
CUT
10
0.0000
20
299.9800
0
SEQEND
0
POLYLINE
8
CUT
66
1
70
1
10
0.0
20
0.0
30
0.0
0
VERTEX
8
CUT
10
244.3500
20
207.9800
0
VERTEX
8
CUT
10
244.3800
20
207.7500
0
VERTEX
8
CUT
10
244.4400
20
207.5300
0
VERTEX
8
CUT
10
244.5100
20
207.3100
0
VERTEX
8
CUT
10
244.6000
20
207.0900
0
VERTEX
8
CUT
10
244.6600
20
206.9700
0
VERTEX
8
CUT
10
244.7900
20
206.7500
0
VERTEX
8
CUT
10
244.9400
20
206.5400
0
VERTEX
8
CUT
10
245.1000
20
206.3500
0
VERTEX
8
CUT
10
245.3900
20
206.0500
0
VERTEX
8
CUT
10
245.5800
20
205.8800
0
VERTEX
8
CUT
10
245.7700
20
205.7300
0
VERTEX
8
CUT
10
245.9900
20
205.6000
0
VERTEX
8
CUT
10
246.2100
20
205.4900
0
VERTEX
8
CUT
10
246.4500
20
205.4000
0
VERTEX
8
CUT
10
246.6900
20
205.3400
0
VERTEX
8
CUT
10
246.9400
20
205.3000
0
VERTEX
8
CUT
10
247.1900
20
205.2900
0
VERTEX
8
CUT
10
247.2300
20
205.2900
0
VERTEX
8
CUT
10
247.5400
20
205.3100
0
VERTEX
8
CUT
10
247.8400
20
205.3600
0
VERTEX
8
CUT
10
247.8800
20
205.3700
0
VERTEX
8
CUT
10
248.0900
20
205.4400
0
VERTEX
8
CUT
10
248.3000
20
205.5200
0
VERTEX
8
CUT
10
248.5000
20
205.6200
0
VERTEX
8
CUT
10
248.6900
20
205.7400
0
VERTEX
8
CUT
10
248.8700
20
205.8800
0
VERTEX
8
CUT
10
249.0400
20
206.0300
0
VERTEX
8
CUT
10
249.3800
20
206.3700
0
VERTEX
8
CUT
10
249.5400
20
206.5500
0
VERTEX
8
CUT
10
249.6900
20
206.7500
0
VERTEX
8
CUT
10
249.8100
20
206.9600
0
VERTEX
8
CUT
10
249.9200
20
207.1800
0
VERTEX
8
CUT
10
250.0000
20
207.4100
0
VERTEX
8
CUT
10
250.0600
20
207.6500
0
VERTEX
8
CUT
10
250.1000
20
207.8900
0
VERTEX
8
CUT
10
250.1100
20
208.1400
0
VERTEX
8
CUT
10
250.1100
20
208.6300
0
VERTEX
8
CUT
10
250.1000
20
208.8600
0
VERTEX
8
CUT
10
250.0700
20
209.0900
0
VERTEX
8
CUT
10
250.0100
20
209.3200
0
VERTEX
8
CUT
10
249.9400
20
209.5400
0
VERTEX
8
CUT
10
249.8500
20
209.7500
0
VERTEX
8
CUT
10
249.8300
20
209.7900
0
VERTEX
8
CUT
10
249.7000
20
210.0100
0
VERTEX
8
CUT
10
249.5500
20
210.2200
0
VERTEX
8
CUT
10
249.3800
20
210.4200
0
VERTEX
8
CUT
10
249.1900
20
210.5900
0
VERTEX
8
CUT
10
248.9800
20
210.7500
0
VERTEX
8
CUT
10
248.7600
20
210.8800
0
VERTEX
8
CUT
10
248.4200
20
211.0600
0
VERTEX
8
CUT
10
248.2000
20
211.1600
0
VERTEX
8
CUT
10
247.9700
20
211.2400
0
VERTEX
8
CUT
10
247.7300
20
211.3000
0
VERTEX
8
CUT
10
247.4900
20
211.3400
0
VERTEX
8
CUT
10
247.2400
20
211.3500
0
VERTEX
8
CUT
10
247.0000
20
211.3400
0
VERTEX
8
CUT
10
246.7600
20
211.3000
0
VERTEX
8
CUT
10
246.5200
20
211.2400
0
VERTEX
8
CUT
10
246.2900
20
211.1600
0
VERTEX
8
CUT
10
246.0700
20
211.0500
0
VERTEX
8
CUT
10
245.8600
20
210.9300
0
VERTEX
8
CUT
10
245.6600
20
210.7800
0
VERTEX
8
CUT
10
245.4800
20
210.6200
0
VERTEX
8
CUT
10
245.2200
20
210.3600
0
VERTEX
8
CUT
10
245.0500
20
210.1700
0
VERTEX
8
CUT
10
244.9000
20
209.9600
0
VERTEX
8
CUT
10
244.7700
20
209.7400
0
VERTEX
8
CUT
10
244.6600
20
209.5100
0
VERTEX
8
CUT
10
244.5100
20
209.1300
0
VERTEX
8
CUT
10
244.4400
20
208.9100
0
VERTEX
8
CUT
10
244.3800
20
208.6800
0
VERTEX
8
CUT
10
244.3500
20
208.4500
0
VERTEX
8
CUT
10
244.3400
20
208.2200
0
SEQEND
0
POLYLINE
8
CUT
66
1
70
1
10
0.0
20
0.0
30
0.0
0
VERTEX
8
CUT
10
235.1000
20
163.7800
0
VERTEX
8
CUT
10
235.2100
20
163.5600
0
VERTEX
8
CUT
10
235.3400
20
163.3500
0
VERTEX
8
CUT
10
235.5000
20
163.1600
0
VERTEX
8
CUT
10
236.1800
20
162.3800
0
VERTEX
8
CUT
10
236.3600
20
162.1800
0
VERTEX
8
CUT
10
236.5700
20
162.0100
0
VERTEX
8
CUT
10
236.8000
20
161.8600
0
VERTEX
8
CUT
10
237.6900
20
161.3400
0
VERTEX
8
CUT
10
237.9200
20
161.2200
0
VERTEX
8
CUT
10
238.1700
20
161.1300
0
VERTEX
8
CUT
10
238.4200
20
161.0600
0
VERTEX
8
CUT
10
238.6800
20
161.0200
0
VERTEX
8
CUT
10
238.9400
20
161.0000
0
VERTEX
8
CUT
10
239.2000
20
161.0100
0
VERTEX
8
CUT
10
240.0200
20
161.0900
0
VERTEX
8
CUT
10
240.1100
20
161.1000
0
VERTEX
8
CUT
10
240.1300
20
161.1000
0
VERTEX
8
CUT
10
240.1400
20
161.1000
0
VERTEX
8
CUT
10
240.1500
20
161.1000
0
VERTEX
8
CUT
10
240.2800
20
161.0700
0
VERTEX
8
CUT
10
240.5400
20
161.0600
0
VERTEX
8
CUT
10
240.7900
20
161.0700
0
VERTEX
8
CUT
10
241.0400
20
161.1100
0
VERTEX
8
CUT
10
241.2900
20
161.1700
0
VERTEX
8
CUT
10
241.5300
20
161.2600
0
VERTEX
8
CUT
10
241.7600
20
161.3700
0
VERTEX
8
CUT
10
242.6600
20
161.8700
0
VERTEX
8
CUT
10
242.8700
20
162.0000
0
VERTEX
8
CUT
10
243.0600
20
162.1500
0
VERTEX
8
CUT
10
243.2300
20
162.3100
0
VERTEX
8
CUT
10
243.3900
20
162.4900
0
VERTEX
8
CUT
10
243.6000
20
162.7600
0
VERTEX
8
CUT
10
243.6100
20
162.7700
0
VERTEX
8
CUT
10
243.7700
20
162.9600
0
VERTEX
8
CUT
10
243.9200
20
163.1500
0
VERTEX
8
CUT
10
244.0500
20
163.3700
0
VERTEX
8
CUT
10
244.1500
20
163.5900
0
VERTEX
8
CUT
10
244.5400
20
164.5400
0
VERTEX
8
CUT
10
244.6200
20
164.7700
0
VERTEX
8
CUT
10
244.6800
20
165.0100
0
VERTEX
8
CUT
10
244.7200
20
165.2500
0
VERTEX
8
CUT
10
244.7300
20
165.4900
0
VERTEX
8
CUT
10
244.7300
20
166.8300
0
VERTEX
8
CUT
10
244.7200
20
167.0500
0
VERTEX
8
CUT
10
244.6900
20
167.2700
0
VERTEX
8
CUT
10
244.6400
20
167.4900
0
VERTEX
8
CUT
10
244.5700
20
167.7000
0
VERTEX
8
CUT
10
244.4000
20
168.1600
0
VERTEX
8
CUT
10
244.3100
20
168.3700
0
VERTEX
8
CUT
10
244.2000
20
168.5800
0
VERTEX
8
CUT
10
244.0700
20
168.7700
0
VERTEX
8
CUT
10
243.9300
20
168.9500
0
VERTEX
8
CUT
10
242.9500
20
170.0500
0
VERTEX
8
CUT
10
242.7600
20
170.2400
0
VERTEX
8
CUT
10
242.5500
20
170.4100
0
VERTEX
8
CUT
10
242.3300
20
170.5600
0
VERTEX
8
CUT
10
242.0900
20
170.6800
0
VERTEX
8
CUT
10
240.8900
20
171.2100
0
VERTEX
8
CUT
10
240.6600
20
171.3000
0
VERTEX
8
CUT
10
240.4200
20
171.3600
0
VERTEX
8
CUT
10
240.1700
20
171.4000
0
VERTEX
8
CUT
10
239.9200
20
171.4200
0
VERTEX
8
CUT
10
239.3600
20
171.4300
0
VERTEX
8
CUT
10
239.1000
20
171.4200
0
VERTEX
8
CUT
10
238.8400
20
171.3800
0
VERTEX
8
CUT
10
238.5800
20
171.3200
0
VERTEX
8
CUT
10
238.3400
20
171.2300
0
VERTEX
8
CUT
10
237.3600
20
170.8100
0
VERTEX
8
CUT
10
237.1700
20
170.7200
0
VERTEX
8
CUT
10
236.9900
20
170.6100
0
VERTEX
8
CUT
10
236.8200
20
170.4900
0
VERTEX
8
CUT
10
236.3900
20
170.1600
0
VERTEX
8
CUT
10
236.2300
20
170.0300
0
VERTEX
8
CUT
10
236.0800
20
169.8800
0
VERTEX
8
CUT
10
235.9400
20
169.7200
0
VERTEX
8
CUT
10
235.6500
20
169.3500
0
VERTEX
8
CUT
10
235.5200
20
169.1600
0
VERTEX
8
CUT
10
235.4000
20
168.9600
0
VERTEX
8
CUT
10
235.3000
20
168.7500
0
VERTEX
8
CUT
10
234.6300
20
167.0900
0
VERTEX
8
CUT
10
234.5500
20
166.8600
0
VERTEX
8
CUT
10
234.5000
20
166.6300
0
VERTEX
8
CUT
10
234.4600
20
166.3900
0
VERTEX
8
CUT
10
234.4500
20
166.1500
0
VERTEX
8
CUT
10
234.4500
20
166.0900
0
VERTEX
8
CUT
10
234.4600
20
165.8200
0
VERTEX
8
CUT
10
234.5100
20
165.5600
0
VERTEX
8
CUT
10
234.5800
20
165.3000
0
VERTEX
8
CUT
10
235.0100
20
164.0100
0
SEQEND
0
POLYLINE
8
CUT
66
1
70
1
10
0.0
20
0.0
30
0.0
0
VERTEX
8
CUT
10
230.2400
20
59.7400
0
VERTEX
8
CUT
10
230.2700
20
59.4900
0
VERTEX
8
CUT
10
230.3200
20
59.2500
0
VERTEX
8
CUT
10
230.4000
20
59.0100
0
VERTEX
8
CUT
10
230.6200
20
58.4500
0
VERTEX
8
CUT
10
230.7200
20
58.2300
0
VERTEX
8
CUT
10
230.8300
20
58.0300
0
VERTEX
8
CUT
10
230.9600
20
57.8400
0
VERTEX
8
CUT
10
231.1100
20
57.6700
0
VERTEX
8
CUT
10
231.2800
20
57.5000
0
VERTEX
8
CUT
10
231.4500
20
57.3600
0
VERTEX
8
CUT
10
231.6500
20
57.2300
0
VERTEX
8
CUT
10
231.8500
20
57.1200
0
VERTEX
8
CUT
10
232.4200
20
56.8400
0
VERTEX
8
CUT
10
232.6300
20
56.7400
0
VERTEX
8
CUT
10
232.8400
20
56.6700
0
VERTEX
8
CUT
10
233.0700
20
56.6200
0
VERTEX
8
CUT
10
233.2900
20
56.5900
0
VERTEX
8
CUT
10
233.5200
20
56.5800
0
VERTEX
8
CUT
10
233.7200
20
56.5800
0
VERTEX
8
CUT
10
233.9500
20
56.5900
0
VERTEX
8
CUT
10
234.1800
20
56.6200
0
VERTEX
8
CUT
10
234.4100
20
56.6800
0
VERTEX
8
CUT
10
234.6300
20
56.7500
0
VERTEX
8
CUT
10
234.8400
20
56.8400
0
VERTEX
8
CUT
10
234.9200
20
56.8800
0
VERTEX
8
CUT
10
235.1300
20
57.0100
0
VERTEX
8
CUT
10
235.3400
20
57.1500
0
VERTEX
8
CUT
10
235.5300
20
57.3100
0
VERTEX
8
CUT
10
235.9600
20
57.7200
0
VERTEX
8
CUT
10
236.1300
20
57.9000
0
VERTEX
8
CUT
10
236.2800
20
58.1000
0
VERTEX
8
CUT
10
236.4200
20
58.3200
0
VERTEX
8
CUT
10
236.5300
20
58.5500
0
VERTEX
8
CUT
10
236.6200
20
58.7800
0
VERTEX
8
CUT
10
236.6800
20
59.0300
0
VERTEX
8
CUT
10
236.7200
20
59.2800
0
VERTEX
8
CUT
10
236.7300
20
59.5300
0
VERTEX
8
CUT
10
236.7300
20
60.2000
0
VERTEX
8
CUT
10
236.7200
20
60.4400
0
VERTEX
8
CUT
10
236.6800
20
60.6800
0
VERTEX
8
CUT
10
236.6200
20
60.9200
0
VERTEX
8
CUT
10
236.5400
20
61.1500
0
VERTEX
8
CUT
10
236.4400
20
61.3700
0
VERTEX
8
CUT
10
236.3200
20
61.5700
0
VERTEX
8
CUT
10
236.1700
20
61.7700
0
VERTEX
8
CUT
10
235.7500
20
62.2900
0
VERTEX
8
CUT
10
235.5900
20
62.4800
0
VERTEX
8
CUT
10
235.4100
20
62.6400
0
VERTEX
8
CUT
10
235.2100
20
62.7900
0
VERTEX
8
CUT
10
235.0000
20
62.9200
0
VERTEX
8
CUT
10
234.8700
20
62.9900
0
VERTEX
8
CUT
10
234.8000
20
63.0200
0
VERTEX
8
CUT
10
234.7900
20
63.0300
0
VERTEX
8
CUT
10
234.7200
20
63.0700
0
VERTEX
8
CUT
10
234.5000
20
63.1800
0
VERTEX
8
CUT
10
234.2800
20
63.2700
0
VERTEX
8
CUT
10
234.0400
20
63.3400
0
VERTEX
8
CUT
10
233.8000
20
63.3800
0
VERTEX
8
CUT
10
233.5600
20
63.4000
0
VERTEX
8
CUT
10
233.3200
20
63.3900
0
VERTEX
8
CUT
10
233.0800
20
63.3700
0
VERTEX
8
CUT
10
232.8400
20
63.3200
0
VERTEX
8
CUT
10
232.6100
20
63.2400
0
VERTEX
8
CUT
10
232.3800
20
63.1500
0
VERTEX
8
CUT
10
232.2000
20
63.0500
0
VERTEX
8
CUT
10
232.1700
20
63.0300
0
VERTEX
8
CUT
10
232.0800
20
62.9900
0
VERTEX
8
CUT
10
231.9500
20
62.9200
0
VERTEX
8
CUT
10
231.7500
20
62.8000
0
VERTEX
8
CUT
10
231.5500
20
62.6500
0
VERTEX
8
CUT
10
231.3700
20
62.4900
0
VERTEX
8
CUT
10
231.3000
20
62.4200
0
VERTEX
8
CUT
10
231.1500
20
62.2600
0
VERTEX
8
CUT
10
231.0200
20
62.0800
0
VERTEX
8
CUT
10
230.9000
20
61.9000
0
VERTEX
8
CUT
10
230.8000
20
61.7100
0
VERTEX
8
CUT
10
230.4600
20
60.9800
0
VERTEX
8
CUT
10
230.3700
20
60.7400
0
VERTEX
8
CUT
10
230.3000
20
60.5000
0
VERTEX
8
CUT
10
230.2500
20
60.2500
0
VERTEX
8
CUT
10
230.2300
20
60.0000
0
SEQEND
0
POLYLINE
8
CUT
66
1
70
1
10
0.0
20
0.0
30
0.0
0
VERTEX
8
CUT
10
121.5300
20
247.1000
0
VERTEX
8
CUT
10
121.5800
20
246.8600
0
VERTEX
8
CUT
10
121.6600
20
246.6300
0
VERTEX
8
CUT
10
121.7500
20
246.4100
0
VERTEX
8
CUT
10
121.8700
20
246.1900
0
VERTEX
8
CUT
10
122.0000
20
245.9900
0
VERTEX
8
CUT
10
122.1600
20
245.8100
0
VERTEX
8
CUT
10
122.3300
20
245.6400
0
VERTEX
8
CUT
10
122.5200
20
245.4900
0
VERTEX
8
CUT
10
122.7200
20
245.3500
0
VERTEX
8
CUT
10
122.9400
20
245.2400
0
VERTEX
8
CUT
10
123.1400
20
245.1600
0
VERTEX
8
CUT
10
123.1500
20
245.1500
0
VERTEX
8
CUT
10
123.1600
20
245.1500
0
VERTEX
8
CUT
10
123.2000
20
245.1300
0
VERTEX
8
CUT
10
123.2700
20
245.0900
0
VERTEX
8
CUT
10
123.2900
20
245.0800
0
VERTEX
8
CUT
10
123.3600
20
245.0300
0
VERTEX
8
CUT
10
123.4000
20
245.0000
0
VERTEX
8
CUT
10
123.4400
20
244.9800
0
VERTEX
8
CUT
10
123.4500
20
244.9600
0
VERTEX
8
CUT
10
123.5000
20
244.9100
0
VERTEX
8
CUT
10
123.5500
20
244.8600
0
VERTEX
8
CUT
10
123.5700
20
244.8500
0
VERTEX
8
CUT
10
123.5900
20
244.8100
0
VERTEX
8
CUT
10
123.6200
20
244.7700
0
VERTEX
8
CUT
10
123.6700
20
244.7000
0
VERTEX
8
CUT
10
123.6800
20
244.6800
0
VERTEX
8
CUT
10
123.7400
20
244.5800
0
VERTEX
8
CUT
10
123.7500
20
244.5500
0
VERTEX
8
CUT
10
123.7700
20
244.4900
0
VERTEX
8
CUT
10
123.7800
20
244.4600
0
VERTEX
8
CUT
10
123.8100
20
244.3600
0
VERTEX
8
CUT
10
123.8300
20
244.3000
0
VERTEX
8
CUT
10
123.8400
20
244.2800
0
VERTEX
8
CUT
10
123.8500
20
244.2600
0
VERTEX
8
CUT
10
123.8600
20
244.1800
0
VERTEX
8
CUT
10
123.8700
20
244.0900
0
VERTEX
8
CUT
10
123.8700
20
244.0400
0
VERTEX
8
CUT
10
123.8800
20
243.9900
0
VERTEX
8
CUT
10
123.8800
20
243.9000
0
VERTEX
8
CUT
10
123.9300
20
243.6400
0
VERTEX
8
CUT
10
124.0000
20
243.3800
0
VERTEX
8
CUT
10
124.0300
20
243.2800
0
VERTEX
8
CUT
10
124.0400
20
243.2500
0
VERTEX
8
CUT
10
124.0500
20
243.2300
0
VERTEX
8
CUT
10
124.0500
20
243.2000
0
VERTEX
8
CUT
10
124.5900
20
240.5400
0
VERTEX
8
CUT
10
124.6400
20
240.3300
0
VERTEX
8
CUT
10
124.7100
20
240.1300
0
VERTEX
8
CUT
10
125.4300
20
238.3000
0
VERTEX
8
CUT
10
125.4500
20
238.2400
0
VERTEX
8
CUT
10
125.4700
20
238.1800
0
VERTEX
8
CUT
10
125.4900
20
238.1200
0
VERTEX
8
CUT
10
125.5100
20
238.0500
0
VERTEX
8
CUT
10
125.5200
20
238.0200
0
VERTEX
8
CUT
10
125.5200
20
237.9800
0
VERTEX
8
CUT
10
125.5300
20
237.9000
0
VERTEX
8
CUT
10
125.5300
20
237.8700
0
VERTEX
8
CUT
10
125.5500
20
237.6800
0
VERTEX
8
CUT
10
125.5900
20
237.4300
0
VERTEX
8
CUT
10
125.6600
20
237.1800
0
VERTEX
8
CUT
10
125.7500
20
236.9400
0
VERTEX
8
CUT
10
125.8600
20
236.7100
0
VERTEX
8
CUT
10
126.6500
20
235.3100
0
VERTEX
8
CUT
10
126.6800
20
235.2400
0
VERTEX
8
CUT
10
126.7100
20
235.1900
0
VERTEX
8
CUT
10
126.7200
20
235.1500
0
VERTEX
8
CUT
10
126.7500
20
235.0800
0
VERTEX
8
CUT
10
126.8000
20
234.9400
0
VERTEX
8
CUT
10
127.1800
20
233.7000
0
VERTEX
8
CUT
10
127.2600
20
233.4900
0
VERTEX
8
CUT
10
127.3500
20
233.2900
0
VERTEX
8
CUT
10
127.4600
20
233.1000
0
VERTEX
8
CUT
10
127.5800
20
232.9200
0
VERTEX
8
CUT
10
128.2900
20
232.0000
0
VERTEX
8
CUT
10
128.3300
20
231.9400
0
VERTEX
8
CUT
10
128.3500
20
231.9000
0
VERTEX
8
CUT
10
128.4100
20
231.8100
0
VERTEX
8
CUT
10
128.8300
20
230.9600
0
VERTEX
8
CUT
10
128.9400
20
230.7700
0
VERTEX
8
CUT
10
129.0700
20
230.5900
0
VERTEX
8
CUT
10
129.2100
20
230.4100
0
VERTEX
8
CUT
10
129.9300
20
229.6100
0
VERTEX
8
CUT
10
129.9900
20
229.5300
0
VERTEX
8
CUT
10
130.0200
20
229.4900
0
VERTEX
8
CUT
10
130.0300
20
229.4700
0
VERTEX
8
CUT
10
130.1300
20
229.3300
0
VERTEX
8
CUT
10
130.1300
20
229.3200
0
VERTEX
8
CUT
10
130.1600
20
229.2700
0
VERTEX
8
CUT
10
130.9700
20
227.6700
0
VERTEX
8
CUT
10
131.0700
20
227.4800
0
VERTEX
8
CUT
10
131.1900
20
227.3100
0
VERTEX
8
CUT
10
131.3200
20
227.1400
0
VERTEX
8
CUT
10
133.3600
20
224.8100
0
VERTEX
8
CUT
10
133.4700
20
224.6900
0
VERTEX
8
CUT
10
133.4800
20
224.6800
0
VERTEX
8
CUT
10
133.5000
20
224.6600
0
VERTEX
8
CUT
10
133.5400
20
224.6300
0
VERTEX
8
CUT
10
134.9000
20
223.3200
0
VERTEX
8
CUT
10
135.0600
20
223.1700
0
VERTEX
8
CUT
10
135.2500
20
223.0400
0
VERTEX
8
CUT
10
136.7200
20
222.0600
0
VERTEX
8
CUT
10
136.7900
20
222.0000
0
VERTEX
8
CUT
10
136.8600
20
221.9600
0
VERTEX
8
CUT
10
136.8800
20
221.9400
0
VERTEX
8
CUT
10
136.8900
20
221.9300
0
VERTEX
8
CUT
10
136.9300
20
221.9000
0
VERTEX
8
CUT
10
136.9900
20
221.8300
0
VERTEX
8
CUT
10
137.0100
20
221.8200
0
VERTEX
8
CUT
10
138.0700
20
220.5900
0
VERTEX
8
CUT
10
138.1900
20
220.4600
0
VERTEX
8
CUT
10
138.2300
20
220.4200
0
VERTEX
8
CUT
10
138.4100
20
220.2600
0
VERTEX
8
CUT
10
141.1600
20
217.9900
0
VERTEX
8
CUT
10
141.3500
20
217.8500
0
VERTEX
8
CUT
10
144.6100
20
215.6500
0
VERTEX
8
CUT
10
144.6900
20
215.6000
0
VERTEX
8
CUT
10
144.7700
20
215.5500
0
VERTEX
8
CUT
10
144.8900
20
215.4800
0
VERTEX
8
CUT
10
147.1400
20
214.2400
0
VERTEX
8
CUT
10
147.2000
20
214.2100
0
VERTEX
8
CUT
10
147.2100
20
214.2000
0
VERTEX
8
CUT
10
147.3000
20
214.1400
0
VERTEX
8
CUT
10
147.3100
20
214.1400
0
VERTEX
8
CUT
10
147.3200
20
214.1300
0
VERTEX
8
CUT
10
147.3300
20
214.1200
0
VERTEX
8
CUT
10
148.5700
20
213.1400
0
VERTEX
8
CUT
10
148.7900
20
212.9800
0
VERTEX
8
CUT
10
149.0200
20
212.8500
0
VERTEX
8
CUT
10
149.2700
20
212.7500
0
VERTEX
8
CUT
10
149.7700
20
212.5700
0
VERTEX
8
CUT
10
149.8600
20
212.5300
0
VERTEX
8
CUT
10
149.8900
20
212.5200
0
VERTEX
8
CUT
10
149.9300
20
212.5000
0
VERTEX
8
CUT
10
150.0000
20
212.4600
0
VERTEX
8
CUT
10
151.6900
20
211.4900
0
VERTEX
8
CUT
10
151.8700
20
211.4000
0
VERTEX
8
CUT
10
152.0600
20
211.3100
0
VERTEX
8
CUT
10
154.5200
20
210.4100
0
VERTEX
8
CUT
10
154.6000
20
210.3800
0
VERTEX
8
CUT
10
154.6400
20
210.3600
0
VERTEX
8
CUT
10
154.7000
20
210.3300
0
VERTEX
8
CUT
10
154.7400
20
210.3100
0
VERTEX
8
CUT
10
154.7700
20
210.2900
0
VERTEX
8
CUT
10
154.8500
20
210.2300
0
VERTEX
8
CUT
10
156.3100
20
209.2200
0
VERTEX
8
CUT
10
156.5300
20
209.0900
0
VERTEX
8
CUT
10
156.7700
20
208.9700
0
VERTEX
8
CUT
10
157.0100
20
208.8900
0
VERTEX
8
CUT
10
158.4100
20
208.4700
0
VERTEX
8
CUT
10
158.4400
20
208.4600
0
VERTEX
8
CUT
10
158.4600
20
208.4500
0
VERTEX
8
CUT
10
158.4800
20
208.4400
0
VERTEX
8
CUT
10
158.5200
20
208.4300
0
VERTEX
8
CUT
10
158.5700
20
208.4000
0
VERTEX
8
CUT
10
158.6400
20
208.3700
0
VERTEX
8
CUT
10
162.8200
20
206.0500
0
VERTEX
8
CUT
10
163.0600
20
205.9300
0
VERTEX
8
CUT
10
163.3200
20
205.8400
0
VERTEX
8
CUT
10
163.9700
20
205.6500
0
VERTEX
8
CUT
10
164.0600
20
205.6200
0
VERTEX
8
CUT
10
164.1600
20
205.5900
0
VERTEX
8
CUT
10
164.2200
20
205.5700
0
VERTEX
8
CUT
10
164.2300
20
205.5600
0
VERTEX
8
CUT
10
164.2400
20
205.5600
0
VERTEX
8
CUT
10
164.2900
20
205.5300
0
VERTEX
8
CUT
10
164.3900
20
205.4700
0
VERTEX
8
CUT
10
164.4300
20
205.4500
0
VERTEX
8
CUT
10
168.1400
20
202.9300
0
VERTEX
8
CUT
10
168.3200
20
202.8200
0
VERTEX
8
CUT
10
168.5200
20
202.7200
0
VERTEX
8
CUT
10
170.5100
20
201.8300
0
VERTEX
8
CUT
10
170.5500
20
201.8100
0
VERTEX
8
CUT
10
170.6300
20
201.7600
0
VERTEX
8
CUT
10
170.6400
20
201.7500
0
VERTEX
8
CUT
10
170.6600
20
201.7400
0
VERTEX
8
CUT
10
170.6700
20
201.7300
0
VERTEX
8
CUT
10
170.7000
20
201.7100
0
VERTEX
8
CUT
10
170.7700
20
201.6500
0
VERTEX
8
CUT
10
170.8200
20
201.6100
0
VERTEX
8
CUT
10
174.9300
20
198.0500
0
VERTEX
8
CUT
10
175.0700
20
197.9400
0
VERTEX
8
CUT
10
175.1500
20
197.8800
0
VERTEX
8
CUT
10
175.2500
20
197.8100
0
VERTEX
8
CUT
10
177.6400
20
196.2000
0
VERTEX
8
CUT
10
177.7000
20
196.1600
0
VERTEX
8
CUT
10
177.7300
20
196.1400
0
VERTEX
8
CUT
10
177.7800
20
196.1000
0
VERTEX
8
CUT
10
177.7900
20
196.0900
0
VERTEX
8
CUT
10
177.8400
20
196.0400
0
VERTEX
8
CUT
10
177.8500
20
196.0300
0
VERTEX
8
CUT
10
177.9000
20
195.9800
0
VERTEX
8
CUT
10
177.9200
20
195.9500
0
VERTEX
8
CUT
10
177.9900
20
195.8700
0
VERTEX
8
CUT
10
178.2800
20
195.4600
0
VERTEX
8
CUT
10
178.4400
20
195.2700
0
VERTEX
8
CUT
10
178.6200
20
195.0900
0
VERTEX
8
CUT
10
180.8400
20
193.0400
0
VERTEX
8
CUT
10
180.9300
20
192.9500
0
VERTEX
8
CUT
10
180.9400
20
192.9400
0
VERTEX
8
CUT
10
180.9800
20
192.8900
0
VERTEX
8
CUT
10
181.0200
20
192.8300
0
VERTEX
8
CUT
10
181.0600
20
192.7800
0
VERTEX
8
CUT
10
182.3600
20
190.9500
0
VERTEX
8
CUT
10
182.4900
20
190.7900
0
VERTEX
8
CUT
10
182.5900
20
190.6700
0
VERTEX
8
CUT
10
182.6300
20
190.6300
0
VERTEX
8
CUT
10
182.6600
20
190.6000
0
VERTEX
8
CUT
10
184.1900
20
188.9400
0
VERTEX
8
CUT
10
184.2000
20
188.9400
0
VERTEX
8
CUT
10
184.2200
20
188.9200
0
VERTEX
8
CUT
10
184.2500
20
188.8800
0
VERTEX
8
CUT
10
184.2600
20
188.8700
0
VERTEX
8
CUT
10
184.3000
20
188.8200
0
VERTEX
8
CUT
10
184.3100
20
188.8000
0
VERTEX
8
CUT
10
184.3200
20
188.7900
0
VERTEX
8
CUT
10
184.3300
20
188.7700
0
VERTEX
8
CUT
10
186.9600
20
184.6300
0
VERTEX
8
CUT
10
186.9800
20
184.6000
0
VERTEX
8
CUT
10
187.0100
20
184.5400
0
VERTEX
8
CUT
10
187.0400
20
184.4900
0
VERTEX
8
CUT
10
187.0600
20
184.4600
0
VERTEX
8
CUT
10
187.0700
20
184.4300
0
VERTEX
8
CUT
10
187.0800
20
184.3800
0
VERTEX
8
CUT
10
187.1100
20
184.3200
0
VERTEX
8
CUT
10
187.1300
20
184.2800
0
VERTEX
8
CUT
10
187.1300
20
184.2500
0
VERTEX
8
CUT
10
187.1400
20
184.2000
0
VERTEX
8
CUT
10
187.1600
20
184.1100
0
VERTEX
8
CUT
10
187.1600
20
184.0900
0
VERTEX
8
CUT
10
187.1600
20
184.0600
0
VERTEX
8
CUT
10
187.1600
20
184.0200
0
VERTEX
8
CUT
10
187.1800
20
183.8200
0
VERTEX
8
CUT
10
187.2200
20
183.5700
0
VERTEX
8
CUT
10
187.2800
20
183.3300
0
VERTEX
8
CUT
10
187.3700
20
183.0900
0
VERTEX
8
CUT
10
187.4800
20
182.8700
0
VERTEX
8
CUT
10
187.6100
20
182.6500
0
VERTEX
8
CUT
10
188.0100
20
182.0700
0
VERTEX
8
CUT
10
188.0600
20
182.0000
0
VERTEX
8
CUT
10
188.0900
20
181.9400
0
VERTEX
8
CUT
10
188.1300
20
181.8800
0
VERTEX
8
CUT
10
188.1400
20
181.8600
0
VERTEX
8
CUT
10
188.1500
20
181.8400
0
VERTEX
8
CUT
10
188.1500
20
181.8300
0
VERTEX
8
CUT
10
188.9900
20
179.9600
0
VERTEX
8
CUT
10
189.0300
20
179.8700
0
VERTEX
8
CUT
10
189.0400
20
179.8400
0
VERTEX
8
CUT
10
189.0600
20
179.7800
0
VERTEX
8
CUT
10
189.0800
20
179.7100
0
VERTEX
8
CUT
10
189.1000
20
179.6400
0
VERTEX
8
CUT
10
189.7500
20
176.9300
0
VERTEX
8
CUT
10
189.7600
20
176.9100
0
VERTEX
8
CUT
10
189.7800
20
176.8300
0
VERTEX
8
CUT
10
189.7800
20
176.8200
0
VERTEX
8
CUT
10
189.7900
20
176.7700
0
VERTEX
8
CUT
10
189.7900
20
176.7200
0
VERTEX
8
CUT
10
189.7900
20
176.7100
0
VERTEX
8
CUT
10
189.8000
20
176.6100
0
VERTEX
8
CUT
10
189.8000
20
176.6000
0
VERTEX
8
CUT
10
189.8000
20
176.5400
0
VERTEX
8
CUT
10
189.8000
20
176.5200
0
VERTEX
8
CUT
10
189.7900
20
176.4700
0
VERTEX
8
CUT
10
189.7800
20
176.4300
0
VERTEX
8
CUT
10
189.7700
20
176.3800
0
VERTEX
8
CUT
10
189.7500
20
176.2800
0
VERTEX
8
CUT
10
189.7400
20
176.2600
0
VERTEX
8
CUT
10
189.7200
20
176.1900
0
VERTEX
8
CUT
10
189.7100
20
176.1500
0
VERTEX
8
CUT
10
189.6800
20
176.1000
0
VERTEX
8
CUT
10
189.6800
20
176.0900
0
VERTEX
8
CUT
10
189.6600
20
176.0500
0
VERTEX
8
CUT
10
189.6100
20
175.9700
0
VERTEX
8
CUT
10
189.6000
20
175.9600
0
VERTEX
8
CUT
10
189.5900
20
175.9400
0
VERTEX
8
CUT
10
189.5800
20
175.9300
0
VERTEX
8
CUT
10
189.5600
20
175.9000
0
VERTEX
8
CUT
10
189.5100
20
175.8500
0
VERTEX
8
CUT
10
189.4600
20
175.7800
0
VERTEX
8
CUT
10
189.4300
20
175.7500
0
VERTEX
8
CUT
10
189.2500
20
175.5700
0
VERTEX
8
CUT
10
189.0800
20
175.3700
0
VERTEX
8
CUT
10
188.9400
20
175.1600
0
VERTEX
8
CUT
10
188.8200
20
174.9300
0
VERTEX
8
CUT
10
188.7300
20
174.7000
0
VERTEX
8
CUT
10
188.6600
20
174.4500
0
VERTEX
8
CUT
10
188.6100
20
174.2000
0
VERTEX
8
CUT
10
188.5900
20
173.9500
0
VERTEX
8
CUT
10
188.6000
20
173.6900
0
VERTEX
8
CUT
10
188.6300
20
173.4400
0
VERTEX
8
CUT
10
188.6900
20
173.1900
0
VERTEX
8
CUT
10
188.7700
20
172.9500
0
VERTEX
8
CUT
10
189.2000
20
171.8800
0
VERTEX
8
CUT
10
189.2100
20
171.8600
0
VERTEX
8
CUT
10
189.2500
20
171.7200
0
VERTEX
8
CUT
10
190.1900
20
167.9400
0
VERTEX
8
CUT
10
190.2000
20
167.8200
0
VERTEX
8
CUT
10
190.4600
20
164.8400
0
VERTEX
8
CUT
10
190.5000
20
164.5500
0
VERTEX
8
CUT
10
190.5800
20
164.2600
0
VERTEX
8
CUT
10
190.6700
20
164.0000
0
VERTEX
8
CUT
10
190.6800
20
163.9600
0
VERTEX
8
CUT
10
190.6900
20
163.9200
0
VERTEX
8
CUT
10
190.6900
20
163.9000
0
VERTEX
8
CUT
10
190.6900
20
163.8800
0
VERTEX
8
CUT
10
190.6900
20
163.3100
0
VERTEX
8
CUT
10
190.7000
20
163.0600
0
VERTEX
8
CUT
10
190.7400
20
162.8100
0
VERTEX
8
CUT
10
190.8000
20
162.5600
0
VERTEX
8
CUT
10
190.8900
20
162.3300
0
VERTEX
8
CUT
10
191.0000
20
162.1000
0
VERTEX
8
CUT
10
191.1400
20
161.8900
0
VERTEX
8
CUT
10
191.2900
20
161.6900
0
VERTEX
8
CUT
10
191.4600
20
161.5000
0
VERTEX
8
CUT
10
191.6500
20
161.3400
0
VERTEX
8
CUT
10
191.8600
20
161.1900
0
VERTEX
8
CUT
10
192.0800
20
161.0700
0
VERTEX
8
CUT
10
192.1500
20
161.0400
0
VERTEX
8
CUT
10
192.1800
20
161.0300
0
VERTEX
8
CUT
10
192.2000
20
161.0200
0
VERTEX
8
CUT
10
192.2600
20
160.9800
0
VERTEX
8
CUT
10
192.3200
20
160.9500
0
VERTEX
8
CUT
10
192.3900
20
160.9000
0
VERTEX
8
CUT
10
192.4300
20
160.8700
0
VERTEX
8
CUT
10
192.4700
20
160.8500
0
VERTEX
8
CUT
10
192.4800
20
160.8300
0
VERTEX
8
CUT
10
192.4900
20
160.8200
0
VERTEX
8
CUT
10
192.5400
20
160.7700
0
VERTEX
8
CUT
10
192.5600
20
160.7500
0
VERTEX
8
CUT
10
192.6500
20
160.6300
0
VERTEX
8
CUT
10
192.7000
20
160.5600
0
VERTEX
8
CUT
10
192.7100
20
160.5400
0
VERTEX
8
CUT
10
192.7500
20
160.4600
0
VERTEX
8
CUT
10
192.8700
20
160.2600
0
VERTEX
8
CUT
10
193.0200
20
160.0600
0
VERTEX
8
CUT
10
193.1900
20
159.8800
0
VERTEX
8
CUT
10
193.3700
20
159.7200
0
VERTEX
8
CUT
10
193.5600
20
159.5700
0
VERTEX
8
CUT
10
193.7700
20
159.4400
0
VERTEX
8
CUT
10
193.9900
20
159.3400
0
VERTEX
8
CUT
10
194.2200
20
159.2600
0
VERTEX
8
CUT
10
194.4600
20
159.2000
0
VERTEX
8
CUT
10
194.5100
20
159.1900
0
VERTEX
8
CUT
10
194.5400
20
159.1800
0
VERTEX
8
CUT
10
194.7000
20
159.1500
0
VERTEX
8
CUT
10
194.7500
20
159.1400
0
VERTEX
8
CUT
10
194.8100
20
159.1300
0
VERTEX
8
CUT
10
195.0500
20
159.1100
0
VERTEX
8
CUT
10
195.2900
20
159.1000
0
VERTEX
8
CUT
10
195.5200
20
159.1200
0
VERTEX
8
CUT
10
195.7600
20
159.1600
0
VERTEX
8
CUT
10
195.9900
20
159.2200
0
VERTEX
8
CUT
10
196.2100
20
159.3100
0
VERTEX
8
CUT
10
196.4300
20
159.4100
0
VERTEX
8
CUT
10
196.6300
20
159.5400
0
VERTEX
8
CUT
10
196.8200
20
159.6800
0
VERTEX
8
CUT
10
197.0000
20
159.8400
0
VERTEX
8
CUT
10
197.1600
20
160.0200
0
VERTEX
8
CUT
10
197.3000
20
160.2100
0
VERTEX
8
CUT
10
197.3600
20
160.3000
0
VERTEX
8
CUT
10
197.3700
20
160.3200
0
VERTEX
8
CUT
10
197.5000
20
160.5300
0
VERTEX
8
CUT
10
198.9500
20
163.2700
0
VERTEX
8
CUT
10
199.0400
20
163.4600
0
VERTEX
8
CUT
10
199.1200
20
163.6600
0
VERTEX
8
CUT
10
199.1700
20
163.8700
0
VERTEX
8
CUT
10
199.4000
20
164.8400
0
VERTEX
8
CUT
10
199.4000
20
164.8500
0
VERTEX
8
CUT
10
199.4000
20
164.8600
0
VERTEX
8
CUT
10
199.4100
20
164.8600
0
VERTEX
8
CUT
10
199.4200
20
164.9000
0
VERTEX
8
CUT
10
199.4300
20
164.9400
0
VERTEX
8
CUT
10
199.4500
20
164.9800
0
VERTEX
8
CUT
10
200.4600
20
167.6200
0
VERTEX
8
CUT
10
200.5300
20
167.8100
0
VERTEX
8
CUT
10
200.5700
20
167.9900
0
VERTEX
8
CUT
10
201.0300
20
170.1500
0
VERTEX
8
CUT
10
201.0500
20
170.2200
0
VERTEX
8
CUT
10
201.0500
20
170.2300
0
VERTEX
8
CUT
10
201.0700
20
170.3100
0
VERTEX
8
CUT
10
201.0800
20
170.3500
0
VERTEX
8
CUT
10
201.0900
20
170.3700
0
VERTEX
8
CUT
10
201.0900
20
170.3900
0
VERTEX
8
CUT
10
201.1000
20
170.4100
0
VERTEX
8
CUT
10
201.3900
20
171.1600
0
VERTEX
8
CUT
10
201.4800
20
171.4300
0
VERTEX
8
CUT
10
201.5400
20
171.7100
0
VERTEX
8
CUT
10
201.9500
20
174.6200
0
VERTEX
8
CUT
10
201.9700
20
174.9700
0
VERTEX
8
CUT
10
201.9700
20
177.6000
0
VERTEX
8
CUT
10
201.9600
20
177.8700
0
VERTEX
8
CUT
10
201.9100
20
178.1300
0
VERTEX
8
CUT
10
201.8400
20
178.3900
0
VERTEX
8
CUT
10
201.8000
20
178.5000
0
VERTEX
8
CUT
10
201.7900
20
178.5400
0
VERTEX
8
CUT
10
201.7800
20
178.5800
0
VERTEX
8
CUT
10
201.7800
20
178.6000
0
VERTEX
8
CUT
10
201.7800
20
178.6400
0
VERTEX
8
CUT
10
201.7400
20
180.4000
0
VERTEX
8
CUT
10
201.7400
20
180.4100
0
VERTEX
8
CUT
10
201.7400
20
180.4500
0
VERTEX
8
CUT
10
201.7300
20
180.6100
0
VERTEX
8
CUT
10
201.7100
20
180.8100
0
VERTEX
8
CUT
10
201.3100
20
183.2600
0
VERTEX
8
CUT
10
201.2900
20
183.4000
0
VERTEX
8
CUT
10
201.2900
20
183.4100
0
VERTEX
8
CUT
10
201.2800
20
183.4900
0
VERTEX
8
CUT
10
201.2200
20
183.7200
0
VERTEX
8
CUT
10
199.8300
20
188.5500
0
VERTEX
8
CUT
10
199.7400
20
188.8200
0
VERTEX
8
CUT
10
198.7700
20
191.1600
0
VERTEX
8
CUT
10
198.7500
20
191.2200
0
VERTEX
8
CUT
10
198.7700
20
191.2200
0
VERTEX
8
CUT
10
198.8600
20
191.1900
0
VERTEX
8
CUT
10
199.0900
20
191.1200
0
VERTEX
8
CUT
10
199.3300
20
191.0800
0
VERTEX
8
CUT
10
199.5700
20
191.0600
0
VERTEX
8
CUT
10
199.8200
20
191.0700
0
VERTEX
8
CUT
10
200.0600
20
191.0900
0
VERTEX
8
CUT
10
200.3000
20
191.1400
0
VERTEX
8
CUT
10
200.5300
20
191.2200
0
VERTEX
8
CUT
10
200.7500
20
191.3100
0
VERTEX
8
CUT
10
200.9600
20
191.4300
0
VERTEX
8
CUT
10
201.1600
20
191.5700
0
VERTEX
8
CUT
10
201.3500
20
191.7300
0
VERTEX
8
CUT
10
201.5200
20
191.9000
0
VERTEX
8
CUT
10
201.6700
20
192.0900
0
VERTEX
8
CUT
10
201.8000
20
192.2900
0
VERTEX
8
CUT
10
201.9200
20
192.5100
0
VERTEX
8
CUT
10
202.0100
20
192.7300
0
VERTEX
8
CUT
10
202.0800
20
192.9600
0
VERTEX
8
CUT
10
202.1200
20
193.2000
0
VERTEX
8
CUT
10
202.1500
20
193.4400
0
VERTEX
8
CUT
10
202.1500
20
193.6800
0
VERTEX
8
CUT
10
202.1200
20
193.9300
0
VERTEX
8
CUT
10
202.0800
20
194.1600
0
VERTEX
8
CUT
10
202.0100
20
194.4000
0
VERTEX
8
CUT
10
201.9100
20
194.6200
0
VERTEX
8
CUT
10
201.8000
20
194.8400
0
VERTEX
8
CUT
10
201.6700
20
195.0400
0
VERTEX
8
CUT
10
201.5100
20
195.2300
0
VERTEX
8
CUT
10
201.3400
20
195.4000
0
VERTEX
8
CUT
10
199.4500
20
197.1300
0
VERTEX
8
CUT
10
199.4200
20
197.1600
0
VERTEX
8
CUT
10
199.3800
20
197.2000
0
VERTEX
8
CUT
10
199.3500
20
197.2300
0
VERTEX
8
CUT
10
199.3500
20
197.2400
0
VERTEX
8
CUT
10
199.3400
20
197.2500
0
VERTEX
8
CUT
10
199.3300
20
197.2600
0
VERTEX
8
CUT
10
199.3100
20
197.3000
0
VERTEX
8
CUT
10
199.0000
20
197.7200
0
VERTEX
8
CUT
10
198.8600
20
197.8900
0
VERTEX
8
CUT
10
198.7100
20
198.0400
0
VERTEX
8
CUT
10
198.5500
20
198.1900
0
VERTEX
8
CUT
10
198.3800
20
198.3100
0
VERTEX
8
CUT
10
196.1100
20
199.8400
0
VERTEX
8
CUT
10
196.0900
20
199.8500
0
VERTEX
8
CUT
10
196.0800
20
199.8600
0
VERTEX
8
CUT
10
196.0200
20
199.9000
0
VERTEX
8
CUT
10
195.9800
20
199.9400
0
VERTEX
8
CUT
10
191.8200
20
203.5200
0
VERTEX
8
CUT
10
191.6300
20
203.6700
0
VERTEX
8
CUT
10
191.4300
20
203.8000
0
VERTEX
8
CUT
10
191.2200
20
203.9100
0
VERTEX
8
CUT
10
190.1100
20
204.4100
0
VERTEX
8
CUT
10
190.0900
20
204.4200
0
VERTEX
8
CUT
10
190.0700
20
204.4300
0
VERTEX
8
CUT
10
190.0600
20
204.4400
0
VERTEX
8
CUT
10
190.0500
20
204.4400
0
VERTEX
8
CUT
10
190.0400
20
204.4600
0
VERTEX
8
CUT
10
189.2000
20
205.4400
0
VERTEX
8
CUT
10
189.0200
20
205.6300
0
VERTEX
8
CUT
10
184.3200
20
210.1000
0
VERTEX
8
CUT
10
184.1700
20
210.2300
0
VERTEX
8
CUT
10
180.5800
20
213.1300
0
VERTEX
8
CUT
10
180.5400
20
213.1600
0
VERTEX
8
CUT
10
180.5300
20
213.1700
0
VERTEX
8
CUT
10
180.4000
20
213.2700
0
VERTEX
8
CUT
10
180.3700
20
213.3000
0
VERTEX
8
CUT
10
173.2000
20
218.3800
0
VERTEX
8
CUT
10
173.1600
20
218.4100
0
VERTEX
8
CUT
10
173.0200
20
218.5000
0
VERTEX
8
CUT
10
165.1900
20
223.6100
0
VERTEX
8
CUT
10
165.1300
20
223.6500
0
VERTEX
8
CUT
10
165.1100
20
223.6600
0
VERTEX
8
CUT
10
159.7900
20
227.8300
0
VERTEX
8
CUT
10
159.7600
20
227.8500
0
VERTEX
8
CUT
10
159.6800
20
227.9300
0
VERTEX
8
CUT
10
155.0200
20
232.5600
0
VERTEX
8
CUT
10
154.9500
20
232.6400
0
VERTEX
8
CUT
10
152.7100
20
235.3400
0
VERTEX
8
CUT
10
152.7000
20
235.3600
0
VERTEX
8
CUT
10
152.6200
20
235.4600
0
VERTEX
8
CUT
10
150.4900
20
238.7600
0
VERTEX
8
CUT
10
150.4600
20
238.8100
0
VERTEX
8
CUT
10
150.4500
20
238.8200
0
VERTEX
8
CUT
10
150.4300
20
238.8700
0
VERTEX
8
CUT
10
148.6000
20
242.5200
0
VERTEX
8
CUT
10
148.5700
20
242.5900
0
VERTEX
8
CUT
10
148.5400
20
242.6600
0
VERTEX
8
CUT
10
147.3400
20
246.0100
0
VERTEX
8
CUT
10
147.3300
20
246.0500
0
VERTEX
8
CUT
10
147.3000
20
246.1400
0
VERTEX
8
CUT
10
147.2800
20
246.2300
0
VERTEX
8
CUT
10
146.6300
20
248.8300
0
VERTEX
8
CUT
10
146.6300
20
248.8500
0
VERTEX
8
CUT
10
146.6100
20
248.9300
0
VERTEX
8
CUT
10
146.6000
20
248.9800
0
VERTEX
8
CUT
10
146.5900
20
249.0300
0
VERTEX
8
CUT
10
146.5900
20
249.0500
0
VERTEX
8
CUT
10
146.1300
20
251.8500
0
VERTEX
8
CUT
10
146.1200
20
251.9100
0
VERTEX
8
CUT
10
146.1200
20
251.9800
0
VERTEX
8
CUT
10
146.1200
20
256.8500
0
VERTEX
8
CUT
10
146.1200
20
256.9200
0
VERTEX
8
CUT
10
146.1300
20
256.9900
0
VERTEX
8
CUT
10
146.8300
20
261.3000
0
VERTEX
8
CUT
10
146.8300
20
261.3300
0
VERTEX
8
CUT
10
146.8500
20
261.3700
0
VERTEX
8
CUT
10
146.8500
20
261.3800
0
VERTEX
8
CUT
10
146.8600
20
261.4100
0
VERTEX
8
CUT
10
146.9200
20
261.5900
0
VERTEX
8
CUT
10
148.2800
20
265.4400
0
VERTEX
8
CUT
10
148.3000
20
265.4900
0
VERTEX
8
CUT
10
148.3100
20
265.5000
0
VERTEX
8
CUT
10
148.3100
20
265.5100
0
VERTEX
8
CUT
10
148.3400
20
265.5600
0
VERTEX
8
CUT
10
149.4800
20
267.8400
0
VERTEX
8
CUT
10
149.4900
20
267.8700
0
VERTEX
8
CUT
10
149.5200
20
267.9200
0
VERTEX
8
CUT
10
149.5400
20
267.9500
0
VERTEX
8
CUT
10
149.5500
20
267.9700
0
VERTEX
8
CUT
10
149.5600
20
267.9900
0
VERTEX
8
CUT
10
149.6200
20
268.0900
0
VERTEX
8
CUT
10
150.6800
20
269.7700
0
VERTEX
8
CUT
10
150.7900
20
269.9200
0
VERTEX
8
CUT
10
150.8000
20
269.9300
0
VERTEX
8
CUT
10
153.9900
20
273.8700
0
VERTEX
8
CUT
10
154.0100
20
273.9000
0
VERTEX
8
CUT
10
154.0200
20
273.9100
0
VERTEX
8
CUT
10
154.0300
20
273.9200
0
VERTEX
8
CUT
10
154.0600
20
273.9400
0
VERTEX
8
CUT
10
154.2300
20
274.1300
0
VERTEX
8
CUT
10
154.3800
20
274.3300
0
VERTEX
8
CUT
10
154.5100
20
274.5400
0
VERTEX
8
CUT
10
154.6200
20
274.7600
0
VERTEX
8
CUT
10
154.7000
20
275.0000
0
VERTEX
8
CUT
10
154.7600
20
275.2400
0
VERTEX
8
CUT
10
154.8000
20
275.4900
0
VERTEX
8
CUT
10
154.8100
20
275.7300
0
VERTEX
8
CUT
10
154.8000
20
275.9800
0
VERTEX
8
CUT
10
154.7600
20
276.2300
0
VERTEX
8
CUT
10
154.7000
20
276.4700
0
VERTEX
8
CUT
10
154.6100
20
276.7100
0
VERTEX
8
CUT
10
154.5000
20
276.9300
0
VERTEX
8
CUT
10
154.3700
20
277.1400
0
VERTEX
8
CUT
10
154.2200
20
277.3400
0
VERTEX
8
CUT
10
154.0500
20
277.5200
0
VERTEX
8
CUT
10
153.8600
20
277.6900
0
VERTEX
8
CUT
10
153.6600
20
277.8300
0
VERTEX
8
CUT
10
153.4400
20
277.9600
0
VERTEX
8
CUT
10
153.2200
20
278.0600
0
VERTEX
8
CUT
10
152.9800
20
278.1400
0
VERTEX
8
CUT
10
152.7400
20
278.1900
0
VERTEX
8
CUT
10
152.4900
20
278.2200
0
VERTEX
8
CUT
10
152.2400
20
278.2300
0
VERTEX
8
CUT
10
151.9900
20
278.2100
0
VERTEX
8
CUT
10
151.7500
20
278.1700
0
VERTEX
8
CUT
10
147.1700
20
277.1100
0
VERTEX
8
CUT
10
147.1600
20
277.1100
0
VERTEX
8
CUT
10
146.9200
20
277.0600
0
VERTEX
8
CUT
10
146.6800
20
276.9900
0
VERTEX
8
CUT
10
143.7800
20
275.9600
0
VERTEX
8
CUT
10
143.6000
20
275.9000
0
VERTEX
8
CUT
10
143.5700
20
275.8900
0
VERTEX
8
CUT
10
143.5600
20
275.8900
0
VERTEX
8
CUT
10
143.5300
20
275.8800
0
VERTEX
8
CUT
10
143.4500
20
275.8700
0
VERTEX
8
CUT
10
143.2900
20
275.8400
0
VERTEX
8
CUT
10
143.0200
20
275.7900
0
VERTEX
8
CUT
10
142.7600
20
275.7000
0
VERTEX
8
CUT
10
142.5200
20
275.5900
0
VERTEX
8
CUT
10
141.8700
20
275.2600
0
VERTEX
8
CUT
10
141.8300
20
275.2400
0
VERTEX
8
CUT
10
141.8200
20
275.2300
0
VERTEX
8
CUT
10
141.7800
20
275.2100
0
VERTEX
8
CUT
10
141.7600
20
275.2000
0
VERTEX
8
CUT
10
141.7500
20
275.2000
0
VERTEX
8
CUT
10
141.7400
20
275.2000
0
VERTEX
8
CUT
10
141.6700
20
275.1800
0
VERTEX
8
CUT
10
141.5300
20
275.1400
0
VERTEX
8
CUT
10
141.5100
20
275.1400
0
VERTEX
8
CUT
10
141.0900
20
275.0200
0
VERTEX
8
CUT
10
140.8500
20
274.9400
0
VERTEX
8
CUT
10
140.6200
20
274.8400
0
VERTEX
8
CUT
10
140.4000
20
274.7100
0
VERTEX
8
CUT
10
140.2000
20
274.5600
0
VERTEX
8
CUT
10
139.8800
20
274.2900
0
VERTEX
8
CUT
10
139.8400
20
274.2700
0
VERTEX
8
CUT
10
139.8300
20
274.2600
0
VERTEX
8
CUT
10
139.8000
20
274.2400
0
VERTEX
8
CUT
10
139.7700
20
274.2200
0
VERTEX
8
CUT
10
139.7600
20
274.2100
0
VERTEX
8
CUT
10
139.7100
20
274.1800
0
VERTEX
8
CUT
10
136.7000
20
272.5900
0
VERTEX
8
CUT
10
136.6800
20
272.5800
0
VERTEX
8
CUT
10
136.6700
20
272.5800
0
VERTEX
8
CUT
10
136.4600
20
272.4500
0
VERTEX
8
CUT
10
136.4100
20
272.4200
0
VERTEX
8
CUT
10
134.4200
20
271.0900
0
VERTEX
8
CUT
10
134.2500
20
270.9600
0
VERTEX
8
CUT
10
132.0300
20
269.1800
0
VERTEX
8
CUT
10
131.8200
20
269.0000
0
VERTEX
8
CUT
10
131.8100
20
268.9900
0
VERTEX
8
CUT
10
131.8000
20
268.9800
0
VERTEX
8
CUT
10
128.5600
20
265.7000
0
VERTEX
8
CUT
10
128.5500
20
265.7000
0
VERTEX
8
CUT
10
128.5400
20
265.6900
0
VERTEX
8
CUT
10
128.3800
20
265.5000
0
VERTEX
8
CUT
10
128.2500
20
265.3400
0
VERTEX
8
CUT
10
128.2300
20
265.3100
0
VERTEX
8
CUT
10
128.2100
20
265.2800
0
VERTEX
8
CUT
10
125.6100
20
261.6400
0
VERTEX
8
CUT
10
125.5800
20
261.5900
0
VERTEX
8
CUT
10
125.4500
20
261.3900
0
VERTEX
8
CUT
10
124.4900
20
259.6600
0
VERTEX
8
CUT
10
124.3900
20
259.4500
0
VERTEX
8
CUT
10
124.3100
20
259.2300
0
VERTEX
8
CUT
10
124.2400
20
259.0100
0
VERTEX
8
CUT
10
124.0100
20
258.0000
0
VERTEX
8
CUT
10
124.0100
20
257.9900
0
VERTEX
8
CUT
10
124.0000
20
257.9700
0
VERTEX
8
CUT
10
123.9600
20
257.9100
0
VERTEX
8
CUT
10
123.9500
20
257.8700
0
VERTEX
8
CUT
10
123.9400
20
257.8500
0
VERTEX
8
CUT
10
123.4400
20
256.8700
0
VERTEX
8
CUT
10
123.4300
20
256.8600
0
VERTEX
8
CUT
10
123.4200
20
256.8400
0
VERTEX
8
CUT
10
123.2900
20
256.5100
0
VERTEX
8
CUT
10
122.4500
20
253.9900
0
VERTEX
8
CUT
10
122.3800
20
253.7300
0
VERTEX
8
CUT
10
121.9500
20
251.7600
0
VERTEX
8
CUT
10
121.9000
20
251.4400
0
VERTEX
8
CUT
10
121.6500
20
248.5300
0
VERTEX
8
CUT
10
121.6500
20
248.4600
0
VERTEX
8
CUT
10
121.6400
20
248.3800
0
VERTEX
8
CUT
10
121.6400
20
248.3600
0
VERTEX
8
CUT
10
121.6400
20
248.3500
0
VERTEX
8
CUT
10
121.6300
20
248.2900
0
VERTEX
8
CUT
10
121.6100
20
248.2300
0
VERTEX
8
CUT
10
121.6000
20
248.1800
0
VERTEX
8
CUT
10
121.5600
20
248.0600
0
VERTEX
8
CUT
10
121.5200
20
247.8200
0
VERTEX
8
CUT
10
121.5000
20
247.5800
0
VERTEX
8
CUT
10
121.5100
20
247.3400
0
SEQEND
0
POLYLINE
8
CUT
66
1
70
1
10
0.0
20
0.0
30
0.0
0
VERTEX
8
CUT
10
151.3000
20
36.4600
0
VERTEX
8
CUT
10
151.3700
20
36.2500
0
VERTEX
8
CUT
10
152.4600
20
33.4200
0
VERTEX
8
CUT
10
152.5900
20
33.1400
0
VERTEX
8
CUT
10
154.4900
20
29.5900
0
VERTEX
8
CUT
10
154.6100
20
29.3900
0
VERTEX
8
CUT
10
154.7500
20
29.2000
0
VERTEX
8
CUT
10
154.9100
20
29.0200
0
VERTEX
8
CUT
10
156.5200
20
27.3800
0
VERTEX
8
CUT
10
156.7200
20
27.1900
0
VERTEX
8
CUT
10
157.7000
20
26.3900
0
VERTEX
8
CUT
10
157.8700
20
26.2700
0
VERTEX
8
CUT
10
158.0400
20
26.1600
0
VERTEX
8
CUT
10
158.2300
20
26.0600
0
VERTEX
8
CUT
10
160.8400
20
24.8500
0
VERTEX
8
CUT
10
161.1200
20
24.7400
0
VERTEX
8
CUT
10
161.4200
20
24.6600
0
VERTEX
8
CUT
10
162.1500
20
24.5200
0
VERTEX
8
CUT
10
162.3800
20
24.4900
0
VERTEX
8
CUT
10
162.6200
20
24.4800
0
VERTEX
8
CUT
10
163.4200
20
24.4800
0
VERTEX
8
CUT
10
163.7300
20
24.5000
0
VERTEX
8
CUT
10
164.0300
20
24.5500
0
VERTEX
8
CUT
10
165.3900
20
24.8900
0
VERTEX
8
CUT
10
165.6600
20
24.9800
0
VERTEX
8
CUT
10
165.9200
20
25.1000
0
VERTEX
8
CUT
10
166.7200
20
25.5100
0
VERTEX
8
CUT
10
166.9400
20
25.6300
0
VERTEX
8
CUT
10
167.1400
20
25.7800
0
VERTEX
8
CUT
10
167.3300
20
25.9400
0
VERTEX
8
CUT
10
169.2100
20
27.7800
0
VERTEX
8
CUT
10
169.3900
20
27.9800
0
VERTEX
8
CUT
10
170.2000
20
28.9600
0
VERTEX
8
CUT
10
170.2200
20
28.9900
0
VERTEX
8
CUT
10
170.3800
20
29.2000
0
VERTEX
8
CUT
10
170.5100
20
29.4300
0
VERTEX
8
CUT
10
171.7500
20
31.8800
0
VERTEX
8
CUT
10
171.8300
20
32.0600
0
VERTEX
8
CUT
10
171.9000
20
32.2500
0
VERTEX
8
CUT
10
173.4800
20
37.2300
0
VERTEX
8
CUT
10
173.5600
20
37.5500
0
VERTEX
8
CUT
10
174.4600
20
42.6300
0
VERTEX
8
CUT
10
174.4900
20
42.8500
0
VERTEX
8
CUT
10
174.5000
20
43.0700
0
VERTEX
8
CUT
10
174.5000
20
45.9600
0
VERTEX
8
CUT
10
174.5000
20
45.9800
0
VERTEX
8
CUT
10
174.5000
20
45.9900
0
VERTEX
8
CUT
10
174.5100
20
46.0000
0
VERTEX
8
CUT
10
174.5500
20
45.9800
0
VERTEX
8
CUT
10
174.7500
20
45.8700
0
VERTEX
8
CUT
10
174.7900
20
45.8500
0
VERTEX
8
CUT
10
174.8300
20
45.8300
0
VERTEX
8
CUT
10
175.0200
20
45.7300
0
VERTEX
8
CUT
10
175.0300
20
45.7300
0
VERTEX
8
CUT
10
175.0500
20
45.7200
0
VERTEX
8
CUT
10
175.2200
20
45.6400
0
VERTEX
8
CUT
10
175.2400
20
45.6300
0
VERTEX
8
CUT
10
175.4300
20
45.5600
0
VERTEX
8
CUT
10
175.6300
20
45.5100
0
VERTEX
8
CUT
10
176.2100
20
45.3800
0
VERTEX
8
CUT
10
176.3900
20
45.3500
0
VERTEX
8
CUT
10
177.7200
20
45.1500
0
VERTEX
8
CUT
10
177.9600
20
45.1200
0
VERTEX
8
CUT
10
178.2000
20
45.1200
0
VERTEX
8
CUT
10
178.4400
20
45.1500
0
VERTEX
8
CUT
10
179.3300
20
45.2800
0
VERTEX
8
CUT
10
179.4000
20
45.2800
0
VERTEX
8
CUT
10
179.4900
20
45.3000
0
VERTEX
8
CUT
10
179.6500
20
45.3200
0
VERTEX
8
CUT
10
179.8900
20
45.3800
0
VERTEX
8
CUT
10
180.1300
20
45.4700
0
VERTEX
8
CUT
10
181.3500
20
45.9900
0
VERTEX
8
CUT
10
181.5700
20
46.0900
0
VERTEX
8
CUT
10
181.7700
20
46.2200
0
VERTEX
8
CUT
10
182.1100
20
46.4500
0
VERTEX
8
CUT
10
182.3200
20
46.6100
0
VERTEX
8
CUT
10
182.5100
20
46.7800
0
VERTEX
8
CUT
10
183.6900
20
48.0100
0
VERTEX
8
CUT
10
183.7000
20
48.0100
0
VERTEX
8
CUT
10
183.8600
20
48.1900
0
VERTEX
8
CUT
10
184.0000
20
48.3800
0
VERTEX
8
CUT
10
184.1300
20
48.5800
0
VERTEX
8
CUT
10
185.2200
20
50.5800
0
VERTEX
8
CUT
10
185.3100
20
50.7800
0
VERTEX
8
CUT
10
185.3900
20
50.9800
0
VERTEX
8
CUT
10
185.4500
20
51.1900
0
VERTEX
8
CUT
10
186.0100
20
53.4900
0
VERTEX
8
CUT
10
186.0600
20
53.7600
0
VERTEX
8
CUT
10
186.0800
20
54.0300
0
VERTEX
8
CUT
10
186.1200
20
56.1700
0
VERTEX
8
CUT
10
186.1200
20
56.2500
0
VERTEX
8
CUT
10
186.1300
20
56.2800
0
VERTEX
8
CUT
10
186.1400
20
56.3200
0
VERTEX
8
CUT
10
186.1700
20
56.4800
0
VERTEX
8
CUT
10
186.2200
20
56.7200
0
VERTEX
8
CUT
10
186.2400
20
56.9600
0
VERTEX
8
CUT
10
186.2400
20
57.2000
0
VERTEX
8
CUT
10
186.2100
20
57.4400
0
VERTEX
8
CUT
10
186.1600
20
57.6800
0
VERTEX
8
CUT
10
186.1200
20
57.8100
0
VERTEX
8
CUT
10
186.1200
20
57.8200
0
VERTEX
8
CUT
10
186.1200
20
57.8300
0
VERTEX
8
CUT
10
186.1200
20
57.8700
0
VERTEX
8
CUT
10
186.1200
20
57.9000
0
VERTEX
8
CUT
10
186.0800
20
59.8800
0
VERTEX
8
CUT
10
186.0600
20
60.1200
0
VERTEX
8
CUT
10
186.0200
20
60.3700
0
VERTEX
8
CUT
10
185.1400
20
64.3800
0
VERTEX
8
CUT
10
185.0700
20
64.6300
0
VERTEX
8
CUT
10
183.7400
20
68.6100
0
VERTEX
8
CUT
10
183.7300
20
68.6500
0
VERTEX
8
CUT
10
183.7100
20
68.7000
0
VERTEX
8
CUT
10
183.6500
20
68.8800
0
VERTEX
8
CUT
10
182.6000
20
71.4000
0
VERTEX
8
CUT
10
182.6000
20
71.4100
0
VERTEX
8
CUT
10
182.5800
20
71.4500
0
VERTEX
8
CUT
10
182.5500
20
71.5500
0
VERTEX
8
CUT
10
180.9300
20
76.8800
0
VERTEX
8
CUT
10
180.9200
20
76.9200
0
VERTEX
8
CUT
10
180.8900
20
76.9900
0
VERTEX
8
CUT
10
180.8900
20
77.0000
0
VERTEX
8
CUT
10
180.8700
20
77.0700
0
VERTEX
8
CUT
10
180.8600
20
77.1300
0
VERTEX
8
CUT
10
180.4000
20
79.8600
0
VERTEX
8
CUT
10
180.3900
20
79.8900
0
VERTEX
8
CUT
10
180.3900
20
79.9200
0
VERTEX
8
CUT
10
180.3900
20
79.9300
0
VERTEX
8
CUT
10
180.3900
20
80.0100
0
VERTEX
8
CUT
10
180.4100
20
84.8000
0
VERTEX
8
CUT
10
180.4100
20
84.8200
0
VERTEX
8
CUT
10
180.4200
20
84.8600
0
VERTEX
8
CUT
10
180.4300
20
84.9200
0
VERTEX
8
CUT
10
180.4300
20
84.9300
0
VERTEX
8
CUT
10
180.4300
20
84.9400
0
VERTEX
8
CUT
10
180.8400
20
86.8400
0
VERTEX
8
CUT
10
180.8700
20
87.0300
0
VERTEX
8
CUT
10
180.8800
20
87.0500
0
VERTEX
8
CUT
10
180.8800
20
87.0600
0
VERTEX
8
CUT
10
180.9000
20
87.1100
0
VERTEX
8
CUT
10
181.8100
20
89.3800
0
VERTEX
8
CUT
10
181.8500
20
89.4900
0
VERTEX
8
CUT
10
181.8600
20
89.5200
0
VERTEX
8
CUT
10
181.8700
20
89.5400
0
VERTEX
8
CUT
10
181.8700
20
89.5500
0
VERTEX
8
CUT
10
181.9200
20
89.6100
0
VERTEX
8
CUT
10
183.0800
20
91.4300
0
VERTEX
8
CUT
10
183.1200
20
91.4800
0
VERTEX
8
CUT
10
183.1200
20
91.4900
0
VERTEX
8
CUT
10
183.1400
20
91.5100
0
VERTEX
8
CUT
10
183.1700
20
91.5400
0
VERTEX
8
CUT
10
183.1800
20
91.5500
0
VERTEX
8
CUT
10
183.2100
20
91.5900
0
VERTEX
8
CUT
10
184.6600
20
93.0900
0
VERTEX
8
CUT
10
184.7000
20
93.1300
0
VERTEX
8
CUT
10
184.7200
20
93.1500
0
VERTEX
8
CUT
10
184.7500
20
93.1800
0
VERTEX
8
CUT
10
184.7600
20
93.1800
0
VERTEX
8
CUT
10
184.7900
20
93.2100
0
VERTEX
8
CUT
10
184.8200
20
93.2400
0
VERTEX
8
CUT
10
184.8400
20
93.2500
0
VERTEX
8
CUT
10
186.0300
20
94.1800
0
VERTEX
8
CUT
10
186.0400
20
94.1900
0
VERTEX
8
CUT
10
186.0700
20
94.2100
0
VERTEX
8
CUT
10
186.0800
20
94.2200
0
VERTEX
8
CUT
10
186.1000
20
94.2300
0
VERTEX
8
CUT
10
186.2000
20
94.2800
0
VERTEX
8
CUT
10
186.2200
20
94.2900
0
VERTEX
8
CUT
10
186.2400
20
94.3000
0
VERTEX
8
CUT
10
186.2500
20
94.3000
0
VERTEX
8
CUT
10
187.2300
20
94.8000
0
VERTEX
8
CUT
10
187.3100
20
94.8400
0
VERTEX
8
CUT
10
187.3600
20
94.8700
0
VERTEX
8
CUT
10
187.4200
20
94.9000
0
VERTEX
8
CUT
10
187.7700
20
95.0800
0
VERTEX
8
CUT
10
187.7900
20
95.0900
0
VERTEX
8
CUT
10
187.8000
20
95.0900
0
VERTEX
8
CUT
10
187.8100
20
95.0900
0
VERTEX
8
CUT
10
187.8100
20
95.0700
0
VERTEX
8
CUT
10
187.8100
20
95.0500
0
VERTEX
8
CUT
10
187.8200
20
93.2400
0
VERTEX
8
CUT
10
187.8100
20
93.0900
0
VERTEX
8
CUT
10
187.8100
20
93.0600
0
VERTEX
8
CUT
10
187.3300
20
89.6700
0
VERTEX
8
CUT
10
187.3300
20
89.6400
0
VERTEX
8
CUT
10
187.3300
20
89.6300
0
VERTEX
8
CUT
10
187.3100
20
89.5800
0
VERTEX
8
CUT
10
184.7800
20
81.6500
0
VERTEX
8
CUT
10
184.7200
20
81.4400
0
VERTEX
8
CUT
10
184.3000
20
79.5700
0
VERTEX
8
CUT
10
184.2600
20
79.3300
0
VERTEX
8
CUT
10
184.2400
20
79.0800
0
VERTEX
8
CUT
10
184.2500
20
78.8400
0
VERTEX
8
CUT
10
184.2800
20
78.6000
0
VERTEX
8
CUT
10
184.3300
20
78.3600
0
VERTEX
8
CUT
10
184.4000
20
78.1300
0
VERTEX
8
CUT
10
184.5000
20
77.9000
0
VERTEX
8
CUT
10
184.6200
20
77.6900
0
VERTEX
8
CUT
10
184.7600
20
77.4900
0
VERTEX
8
CUT
10
184.9200
20
77.3100
0
VERTEX
8
CUT
10
185.1000
20
77.1400
0
VERTEX
8
CUT
10
185.2900
20
76.9800
0
VERTEX
8
CUT
10
185.4900
20
76.8500
0
VERTEX
8
CUT
10
185.7100
20
76.7400
0
VERTEX
8
CUT
10
185.9400
20
76.6500
0
VERTEX
8
CUT
10
186.1700
20
76.5900
0
VERTEX
8
CUT
10
186.4100
20
76.5400
0
VERTEX
8
CUT
10
186.6600
20
76.5200
0
VERTEX
8
CUT
10
186.9000
20
76.5300
0
VERTEX
8
CUT
10
187.1400
20
76.5500
0
VERTEX
8
CUT
10
187.3800
20
76.6000
0
VERTEX
8
CUT
10
187.6100
20
76.6800
0
VERTEX
8
CUT
10
187.8400
20
76.7700
0
VERTEX
8
CUT
10
188.0500
20
76.8900
0
VERTEX
8
CUT
10
188.2500
20
77.0300
0
VERTEX
8
CUT
10
188.4400
20
77.1900
0
VERTEX
8
CUT
10
188.6100
20
77.3600
0
VERTEX
8
CUT
10
188.7600
20
77.5500
0
VERTEX
8
CUT
10
189.6600
20
78.7900
0
VERTEX
8
CUT
10
189.7800
20
78.9600
0
VERTEX
8
CUT
10
189.8700
20
79.1400
0
VERTEX
8
CUT
10
191.3700
20
82.1200
0
VERTEX
8
CUT
10
191.5100
20
82.4500
0
VERTEX
8
CUT
10
192.3400
20
84.9500
0
VERTEX
8
CUT
10
192.4200
20
85.2500
0
VERTEX
8
CUT
10
192.8600
20
87.4700
0
VERTEX
8
CUT
10
192.9000
20
87.7600
0
VERTEX
8
CUT
10
193.1400
20
90.7300
0
VERTEX
8
CUT
10
193.1500
20
90.9300
0
VERTEX
8
CUT
10
193.1500
20
90.9500
0
VERTEX
8
CUT
10
193.1500
20
91.0900
0
VERTEX
8
CUT
10
192.9200
20
95.2100
0
VERTEX
8
CUT
10
192.8900
20
95.4300
0
VERTEX
8
CUT
10
192.8500
20
95.6500
0
VERTEX
8
CUT
10
192.7900
20
95.8600
0
VERTEX
8
CUT
10
192.7600
20
95.9600
0
VERTEX
8
CUT
10
192.7500
20
95.9800
0
VERTEX
8
CUT
10
192.7300
20
96.0500
0
VERTEX
8
CUT
10
192.7200
20
96.0800
0
VERTEX
8
CUT
10
192.7100
20
96.1100
0
VERTEX
8
CUT
10
192.7000
20
96.1400
0
VERTEX
8
CUT
10
192.7000
20
96.1500
0
VERTEX
8
CUT
10
192.7000
20
96.2100
0
VERTEX
8
CUT
10
192.6600
20
97.7200
0
VERTEX
8
CUT
10
192.6400
20
98.0100
0
VERTEX
8
CUT
10
192.5800
20
98.2900
0
VERTEX
8
CUT
10
192.4800
20
98.6700
0
VERTEX
8
CUT
10
192.4700
20
98.7400
0
VERTEX
8
CUT
10
192.4600
20
98.7600
0
VERTEX
8
CUT
10
192.4600
20
98.7700
0
VERTEX
8
CUT
10
192.4600
20
98.8100
0
VERTEX
8
CUT
10
192.4600
20
98.8700
0
VERTEX
8
CUT
10
192.4900
20
106.4800
0
VERTEX
8
CUT
10
192.4900
20
106.4900
0
VERTEX
8
CUT
10
192.4900
20
106.5000
0
VERTEX
8
CUT
10
192.4900
20
106.5600
0
VERTEX
8
CUT
10
192.5000
20
106.6100
0
VERTEX
8
CUT
10
193.1500
20
110.1700
0
VERTEX
8
CUT
10
193.1500
20
110.1800
0
VERTEX
8
CUT
10
193.1600
20
110.2100
0
VERTEX
8
CUT
10
193.1800
20
110.3300
0
VERTEX
8
CUT
10
193.1800
20
110.3400
0
VERTEX
8
CUT
10
193.2000
20
110.4200
0
VERTEX
8
CUT
10
193.8900
20
112.9400
0
VERTEX
8
CUT
10
193.9100
20
113.0100
0
VERTEX
8
CUT
10
193.9400
20
113.0900
0
VERTEX
8
CUT
10
194.3200
20
114.0400
0
VERTEX
8
CUT
10
194.4000
20
114.2800
0
VERTEX
8
CUT
10
194.4600
20
114.5200
0
VERTEX
8
CUT
10
194.4900
20
114.7600
0
VERTEX
8
CUT
10
194.5000
20
115.0100
0
VERTEX
8
CUT
10
194.4800
20
115.2600
0
VERTEX
8
CUT
10
194.4400
20
115.5000
0
VERTEX
8
CUT
10
194.3800
20
115.7400
0
VERTEX
8
CUT
10
194.2900
20
115.9800
0
VERTEX
8
CUT
10
194.1800
20
116.2000
0
VERTEX
8
CUT
10
194.0500
20
116.4100
0
VERTEX
8
CUT
10
193.8900
20
116.6000
0
VERTEX
8
CUT
10
193.7200
20
116.7800
0
VERTEX
8
CUT
10
193.5300
20
116.9400
0
VERTEX
8
CUT
10
193.3300
20
117.0900
0
VERTEX
8
CUT
10
193.1100
20
117.2100
0
VERTEX
8
CUT
10
192.8900
20
117.3100
0
VERTEX
8
CUT
10
192.6500
20
117.3800
0
VERTEX
8
CUT
10
192.4100
20
117.4400
0
VERTEX
8
CUT
10
192.1600
20
117.4600
0
VERTEX
8
CUT
10
191.9100
20
117.4700
0
VERTEX
8
CUT
10
191.6700
20
117.4500
0
VERTEX
8
CUT
10
191.4200
20
117.4000
0
VERTEX
8
CUT
10
191.1800
20
117.3300
0
VERTEX
8
CUT
10
190.9500
20
117.2400
0
VERTEX
8
CUT
10
190.7300
20
117.1300
0
VERTEX
8
CUT
10
190.5300
20
116.9900
0
VERTEX
8
CUT
10
190.3300
20
116.8300
0
VERTEX
8
CUT
10
190.0200
20
116.5500
0
VERTEX
8
CUT
10
189.8500
20
116.4200
0
VERTEX
8
CUT
10
189.8300
20
116.4100
0
VERTEX
8
CUT
10
186.0200
20
113.7700
0
VERTEX
8
CUT
10
185.9300
20
113.7100
0
VERTEX
8
CUT
10
185.9200
20
113.7000
0
VERTEX
8
CUT
10
185.8600
20
113.6700
0
VERTEX
8
CUT
10
182.3100
20
111.9100
0
VERTEX
8
CUT
10
182.1000
20
111.7900
0
VERTEX
8
CUT
10
181.9000
20
111.6600
0
VERTEX
8
CUT
10
181.7200
20
111.5000
0
VERTEX
8
CUT
10
181.5500
20
111.3300
0
VERTEX
8
CUT
10
181.4000
20
111.1400
0
VERTEX
8
CUT
10
181.2700
20
110.9400
0
VERTEX
8
CUT
10
181.1600
20
110.7300
0
VERTEX
8
CUT
10
181.0600
20
110.5100
0
VERTEX
8
CUT
10
181.0000
20
110.2800
0
VERTEX
8
CUT
10
180.9500
20
110.0400
0
VERTEX
8
CUT
10
180.9200
20
109.8000
0
VERTEX
8
CUT
10
180.9200
20
109.5600
0
VERTEX
8
CUT
10
180.9400
20
109.3300
0
VERTEX
8
CUT
10
180.9900
20
109.0900
0
VERTEX
8
CUT
10
181.0600
20
108.8600
0
VERTEX
8
CUT
10
181.1400
20
108.6400
0
VERTEX
8
CUT
10
181.2500
20
108.4200
0
VERTEX
8
CUT
10
181.3800
20
108.2200
0
VERTEX
8
CUT
10
181.5300
20
108.0300
0
VERTEX
8
CUT
10
181.7000
20
107.8600
0
VERTEX
8
CUT
10
183.7200
20
105.9400
0
VERTEX
8
CUT
10
183.7400
20
105.9200
0
VERTEX
8
CUT
10
183.7600
20
105.9000
0
VERTEX
8
CUT
10
183.7600
20
105.8900
0
VERTEX
8
CUT
10
183.7800
20
105.8700
0
VERTEX
8
CUT
10
183.8000
20
105.8400
0
VERTEX
8
CUT
10
183.8200
20
105.8100
0
VERTEX
8
CUT
10
185.5900
20
103.3300
0
VERTEX
8
CUT
10
185.6100
20
103.3100
0
VERTEX
8
CUT
10
185.6100
20
103.3000
0
VERTEX
8
CUT
10
185.6200
20
103.2800
0
VERTEX
8
CUT
10
185.6300
20
103.2700
0
VERTEX
8
CUT
10
185.6400
20
103.2400
0
VERTEX
8
CUT
10
185.6500
20
103.2100
0
VERTEX
8
CUT
10
185.6900
20
103.0900
0
VERTEX
8
CUT
10
186.1200
20
102.0400
0
VERTEX
8
CUT
10
186.1300
20
102.0000
0
VERTEX
8
CUT
10
186.1300
20
101.9900
0
VERTEX
8
CUT
10
186.1200
20
101.9900
0
VERTEX
8
CUT
10
186.0800
20
101.9900
0
VERTEX
8
CUT
10
185.3300
20
102.0000
0
VERTEX
8
CUT
10
185.0200
20
102.0000
0
VERTEX
8
CUT
10
184.8600
20
102.0000
0
VERTEX
8
CUT
10
184.8000
20
102.0000
0
VERTEX
8
CUT
10
184.7800
20
102.0000
0
VERTEX
8
CUT
10
184.7700
20
102.0000
0
VERTEX
8
CUT
10
184.5700
20
101.9900
0
VERTEX
8
CUT
10
184.3700
20
101.9700
0
VERTEX
8
CUT
10
183.3800
20
101.8100
0
VERTEX
8
CUT
10
183.3000
20
101.8100
0
VERTEX
8
CUT
10
183.0600
20
101.7700
0
VERTEX
8
CUT
10
182.8200
20
101.7100
0
VERTEX
8
CUT
10
180.0400
20
100.8500
0
VERTEX
8
CUT
10
179.8500
20
100.7800
0
VERTEX
8
CUT
10
179.6600
20
100.7000
0
VERTEX
8
CUT
10
176.3500
20
99.0500
0
VERTEX
8
CUT
10
176.1900
20
98.9700
0
VERTEX
8
CUT
10
176.1200
20
98.9400
0
VERTEX
8
CUT
10
175.9100
20
98.8100
0
VERTEX
8
CUT
10
173.9500
20
97.4900
0
VERTEX
8
CUT
10
173.7800
20
97.3600
0
VERTEX
8
CUT
10
170.2400
20
94.5000
0
VERTEX
8
CUT
10
170.1000
20
94.3800
0
VERTEX
8
CUT
10
170.0900
20
94.3700
0
VERTEX
8
CUT
10
170.0400
20
94.3300
0
VERTEX
8
CUT
10
170.0200
20
94.3100
0
VERTEX
8
CUT
10
169.5200
20
93.8500
0
VERTEX
8
CUT
10
169.4800
20
93.8200
0
VERTEX
8
CUT
10
169.4700
20
93.8100
0
VERTEX
8
CUT
10
169.4300
20
93.8100
0
VERTEX
8
CUT
10
168.9700
20
93.7500
0
VERTEX
8
CUT
10
168.7100
20
93.7100
0
VERTEX
8
CUT
10
168.4600
20
93.6400
0
VERTEX
8
CUT
10
167.2400
20
93.2300
0
VERTEX
8
CUT
10
166.9200
20
93.1000
0
VERTEX
8
CUT
10
165.4400
20
92.3600
0
VERTEX
8
CUT
10
165.2300
20
92.2400
0
VERTEX
8
CUT
10
165.0300
20
92.1000
0
VERTEX
8
CUT
10
163.9600
20
91.2700
0
VERTEX
8
CUT
10
163.8200
20
91.1500
0
VERTEX
8
CUT
10
163.6800
20
91.0200
0
VERTEX
8
CUT
10
162.4100
20
89.6900
0
VERTEX
8
CUT
10
162.2600
20
89.5100
0
VERTEX
8
CUT
10
162.1200
20
89.3100
0
VERTEX
8
CUT
10
161.0800
20
87.6900
0
VERTEX
8
CUT
10
160.9600
20
87.4900
0
VERTEX
8
CUT
10
160.8600
20
87.2700
0
VERTEX
8
CUT
10
160.6100
20
86.6600
0
VERTEX
8
CUT
10
160.6100
20
86.6400
0
VERTEX
8
CUT
10
160.6000
20
86.6400
0
VERTEX
8
CUT
10
160.6000
20
86.6300
0
VERTEX
8
CUT
10
160.5500
20
86.6100
0
VERTEX
8
CUT
10
157.9000
20
85.3800
0
VERTEX
8
CUT
10
157.8100
20
85.3500
0
VERTEX
8
CUT
10
157.7900
20
85.3400
0
VERTEX
8
CUT
10
157.7100
20
85.3100
0
VERTEX
8
CUT
10
155.3900
20
84.6200
0
VERTEX
8
CUT
10
155.2600
20
84.5900
0
VERTEX
8
CUT
10
153.9200
20
84.3600
0
VERTEX
8
CUT
10
153.6800
20
84.3100
0
VERTEX
8
CUT
10
153.4400
20
84.2300
0
VERTEX
8
CUT
10
153.2100
20
84.1300
0
VERTEX
8
CUT
10
153.0000
20
84.0100
0
VERTEX
8
CUT
10
152.8000
20
83.8700
0
VERTEX
8
CUT
10
152.6100
20
83.7000
0
VERTEX
8
CUT
10
152.4400
20
83.5200
0
VERTEX
8
CUT
10
152.2900
20
83.3300
0
VERTEX
8
CUT
10
152.1500
20
83.1100
0
VERTEX
8
CUT
10
152.0500
20
82.8900
0
VERTEX
8
CUT
10
151.9600
20
82.6600
0
VERTEX
8
CUT
10
151.8900
20
82.4200
0
VERTEX
8
CUT
10
151.8500
20
82.1700
0
VERTEX
8
CUT
10
151.8400
20
81.9300
0
VERTEX
8
CUT
10
151.8500
20
81.6800
0
VERTEX
8
CUT
10
151.8800
20
81.4300
0
VERTEX
8
CUT
10
151.9400
20
81.1900
0
VERTEX
8
CUT
10
152.0300
20
80.9500
0
VERTEX
8
CUT
10
152.1300
20
80.7300
0
VERTEX
8
CUT
10
152.2600
20
80.5200
0
VERTEX
8
CUT
10
152.4100
20
80.3200
0
VERTEX
8
CUT
10
152.5700
20
80.1300
0
VERTEX
8
CUT
10
152.5800
20
80.1200
0
VERTEX
8
CUT
10
152.8300
20
79.9000
0
VERTEX
8
CUT
10
152.9600
20
79.8100
0
VERTEX
8
CUT
10
155.7200
20
77.5100
0
VERTEX
8
CUT
10
155.7500
20
77.4800
0
VERTEX
8
CUT
10
155.8900
20
77.3600
0
VERTEX
8
CUT
10
156.0300
20
77.2300
0
VERTEX
8
CUT
10
159.5400
20
73.6700
0
VERTEX
8
CUT
10
159.6000
20
73.6100
0
VERTEX
8
CUT
10
159.6500
20
73.5400
0
VERTEX
8
CUT
10
160.9300
20
71.8100
0
VERTEX
8
CUT
10
160.9500
20
71.7900
0
VERTEX
8
CUT
10
160.9600
20
71.7800
0
VERTEX
8
CUT
10
160.9600
20
71.7700
0
VERTEX
8
CUT
10
160.9900
20
71.6900
0
VERTEX
8
CUT
10
161.6400
20
69.5600
0
VERTEX
8
CUT
10
161.6600
20
69.5000
0
VERTEX
8
CUT
10
161.6800
20
69.4400
0
VERTEX
8
CUT
10
161.7500
20
69.2600
0
VERTEX
8
CUT
10
162.7600
20
66.8600
0
VERTEX
8
CUT
10
162.7700
20
66.8300
0
VERTEX
8
CUT
10
162.7800
20
66.8000
0
VERTEX
8
CUT
10
162.8000
20
66.7500
0
VERTEX
8
CUT
10
164.2000
20
62.5500
0
VERTEX
8
CUT
10
164.2300
20
62.4300
0
VERTEX
8
CUT
10
164.2400
20
62.3900
0
VERTEX
8
CUT
10
165.1500
20
58.2700
0
VERTEX
8
CUT
10
165.1500
20
58.2500
0
VERTEX
8
CUT
10
165.1600
20
58.2200
0
VERTEX
8
CUT
10
165.1700
20
58.1300
0
VERTEX
8
CUT
10
165.1800
20
58.0900
0
VERTEX
8
CUT
10
165.1800
20
58.0000
0
VERTEX
8
CUT
10
165.2100
20
56.2000
0
VERTEX
8
CUT
10
165.2300
20
55.9100
0
VERTEX
8
CUT
10
165.2800
20
55.6300
0
VERTEX
8
CUT
10
165.3300
20
55.5000
0
VERTEX
8
CUT
10
165.3500
20
55.4300
0
VERTEX
8
CUT
10
165.3600
20
55.4100
0
VERTEX
8
CUT
10
165.3700
20
55.3600
0
VERTEX
8
CUT
10
165.3700
20
55.3400
0
VERTEX
8
CUT
10
165.3700
20
55.3300
0
VERTEX
8
CUT
10
165.3900
20
55.2300
0
VERTEX
8
CUT
10
165.3800
20
55.2300
0
VERTEX
8
CUT
10
165.3900
20
55.1200
0
VERTEX
8
CUT
10
165.3800
20
55.0100
0
VERTEX
8
CUT
10
165.3800
20
54.9900
0
VERTEX
8
CUT
10
165.3700
20
54.8700
0
VERTEX
8
CUT
10
165.3500
20
54.7800
0
VERTEX
8
CUT
10
165.2800
20
54.4800
0
VERTEX
8
CUT
10
165.2400
20
54.2300
0
VERTEX
8
CUT
10
165.2200
20
53.9800
0
VERTEX
8
CUT
10
165.1800
20
51.9500
0
VERTEX
8
CUT
10
165.1800
20
51.8700
0
VERTEX
8
CUT
10
165.1700
20
51.7900
0
VERTEX
8
CUT
10
165.1600
20
51.7100
0
VERTEX
8
CUT
10
165.1600
20
51.6900
0
VERTEX
8
CUT
10
165.1600
20
51.6800
0
VERTEX
8
CUT
10
165.1400
20
51.6200
0
VERTEX
8
CUT
10
164.5200
20
49.0700
0
VERTEX
8
CUT
10
164.5000
20
49.0200
0
VERTEX
8
CUT
10
164.5000
20
49.0000
0
VERTEX
8
CUT
10
164.4800
20
48.9300
0
VERTEX
8
CUT
10
164.4500
20
48.8600
0
VERTEX
8
CUT
10
164.4400
20
48.8300
0
VERTEX
8
CUT
10
164.3900
20
48.7200
0
VERTEX
8
CUT
10
164.3800
20
48.7100
0
VERTEX
8
CUT
10
164.3800
20
48.7000
0
VERTEX
8
CUT
10
163.1200
20
46.4200
0
VERTEX
8
CUT
10
163.0700
20
46.3200
0
VERTEX
8
CUT
10
163.0500
20
46.3000
0
VERTEX
8
CUT
10
163.0400
20
46.2800
0
VERTEX
8
CUT
10
162.9700
20
46.1900
0
VERTEX
8
CUT
10
162.9400
20
46.1600
0
VERTEX
8
CUT
10
162.9400
20
46.1500
0
VERTEX
8
CUT
10
162.9200
20
46.1300
0
VERTEX
8
CUT
10
161.5500
20
44.7300
0
VERTEX
8
CUT
10
161.4800
20
44.6600
0
VERTEX
8
CUT
10
161.4600
20
44.6400
0
VERTEX
8
CUT
10
161.4500
20
44.6300
0
VERTEX
8
CUT
10
161.3600
20
44.5600
0
VERTEX
8
CUT
10
161.3300
20
44.5400
0
VERTEX
8
CUT
10
161.2900
20
44.5100
0
VERTEX
8
CUT
10
160.7900
20
44.1700
0
VERTEX
8
CUT
10
160.7500
20
44.1300
0
VERTEX
8
CUT
10
160.7300
20
44.1200
0
VERTEX
8
CUT
10
160.5700
20
44.0400
0
VERTEX
8
CUT
10
160.5500
20
44.0300
0
VERTEX
8
CUT
10
160.4600
20
43.9900
0
VERTEX
8
CUT
10
160.4000
20
43.9600
0
VERTEX
8
CUT
10
159.1600
20
43.4400
0
VERTEX
8
CUT
10
159.0700
20
43.4100
0
VERTEX
8
CUT
10
159.0300
20
43.4000
0
VERTEX
8
CUT
10
159.0100
20
43.3900
0
VERTEX
8
CUT
10
158.9800
20
43.3800
0
VERTEX
8
CUT
10
158.9100
20
43.3600
0
VERTEX
8
CUT
10
158.8100
20
43.3400
0
VERTEX
8
CUT
10
158.7600
20
43.3300
0
VERTEX
8
CUT
10
157.3600
20
43.1300
0
VERTEX
8
CUT
10
157.2900
20
43.1200
0
VERTEX
8
CUT
10
157.2800
20
43.1200
0
VERTEX
8
CUT
10
157.1700
20
43.1100
0
VERTEX
8
CUT
10
157.1600
20
43.1100
0
VERTEX
8
CUT
10
157.0500
20
43.1200
0
VERTEX
8
CUT
10
157.0600
20
43.1100
0
VERTEX
8
CUT
10
156.9900
20
43.1200
0
VERTEX
8
CUT
10
155.4500
20
43.3500
0
VERTEX
8
CUT
10
155.3900
20
43.3600
0
VERTEX
8
CUT
10
155.3800
20
43.3600
0
VERTEX
8
CUT
10
155.3100
20
43.3800
0
VERTEX
8
CUT
10
154.5900
20
43.5500
0
VERTEX
8
CUT
10
154.4800
20
43.5800
0
VERTEX
8
CUT
10
154.4200
20
43.6000
0
VERTEX
8
CUT
10
154.3400
20
43.6300
0
VERTEX
8
CUT
10
154.3300
20
43.6400
0
VERTEX
8
CUT
10
154.2400
20
43.6800
0
VERTEX
8
CUT
10
153.4100
20
44.1000
0
VERTEX
8
CUT
10
153.1800
20
44.2000
0
VERTEX
8
CUT
10
152.9400
20
44.2700
0
VERTEX
8
CUT
10
152.7000
20
44.3300
0
VERTEX
8
CUT
10
152.4600
20
44.3500
0
VERTEX
8
CUT
10
152.2100
20
44.3600
0
VERTEX
8
CUT
10
151.9600
20
44.3400
0
VERTEX
8
CUT
10
151.7200
20
44.2900
0
VERTEX
8
CUT
10
151.4800
20
44.2200
0
VERTEX
8
CUT
10
151.2500
20
44.1300
0
VERTEX
8
CUT
10
151.0300
20
44.0200
0
VERTEX
8
CUT
10
150.8200
20
43.8800
0
VERTEX
8
CUT
10
150.6300
20
43.7300
0
VERTEX
8
CUT
10
150.4500
20
43.5500
0
VERTEX
8
CUT
10
150.2900
20
43.3600
0
VERTEX
8
CUT
10
150.1500
20
43.1500
0
VERTEX
8
CUT
10
150.0300
20
42.9400
0
VERTEX
8
CUT
10
149.9400
20
42.7100
0
VERTEX
8
CUT
10
149.8700
20
42.4700
0
VERTEX
8
CUT
10
149.8200
20
42.2300
0
VERTEX
8
CUT
10
149.7900
20
41.9800
0
VERTEX
8
CUT
10
149.7900
20
41.7300
0
VERTEX
8
CUT
10
149.8200
20
41.4800
0
VERTEX
8
CUT
10
149.8700
20
41.2400
0
VERTEX
8
CUT
10
150.0700
20
40.4700
0
VERTEX
8
CUT
10
150.0700
20
40.4500
0
VERTEX
8
CUT
10
150.1000
20
40.3400
0
VERTEX
8
CUT
10
150.1300
20
40.2100
0
VERTEX
8
CUT
10
151.2700
20
36.5500
0
VERTEX
8
CUT
10
151.2900
20
36.4700
0
SEQEND
0
POLYLINE
8
CUT
66
1
70
1
10
0.0
20
0.0
30
0.0
0
VERTEX
8
CUT
10
116.7600
20
119.8800
0
VERTEX
8
CUT
10
116.6100
20
119.7000
0
VERTEX
8
CUT
10
116.4700
20
119.4900
0
VERTEX
8
CUT
10
116.3500
20
119.2800
0
VERTEX
8
CUT
10
116.2500
20
119.0500
0
VERTEX
8
CUT
10
116.1800
20
118.8200
0
VERTEX
8
CUT
10
116.1300
20
118.5800
0
VERTEX
8
CUT
10
116.1000
20
118.3400
0
VERTEX
8
CUT
10
116.1000
20
118.0900
0
VERTEX
8
CUT
10
116.1200
20
117.8500
0
VERTEX
8
CUT
10
116.1700
20
117.6100
0
VERTEX
8
CUT
10
116.2400
20
117.3800
0
VERTEX
8
CUT
10
116.3300
20
117.1500
0
VERTEX
8
CUT
10
116.4400
20
116.9300
0
VERTEX
8
CUT
10
116.5700
20
116.7300
0
VERTEX
8
CUT
10
116.7300
20
116.5300
0
VERTEX
8
CUT
10
116.9000
20
116.3600
0
VERTEX
8
CUT
10
117.0800
20
116.2000
0
VERTEX
8
CUT
10
117.2900
20
116.0600
0
VERTEX
8
CUT
10
117.5000
20
115.9500
0
VERTEX
8
CUT
10
118.0100
20
115.7000
0
VERTEX
8
CUT
10
118.2300
20
115.6000
0
VERTEX
8
CUT
10
118.4600
20
115.5300
0
VERTEX
8
CUT
10
120.7100
20
114.9200
0
VERTEX
8
CUT
10
121.0400
20
114.8500
0
VERTEX
8
CUT
10
122.5000
20
114.6600
0
VERTEX
8
CUT
10
122.7500
20
114.6400
0
VERTEX
8
CUT
10
122.9900
20
114.6500
0
VERTEX
8
CUT
10
123.2400
20
114.6800
0
VERTEX
8
CUT
10
123.4800
20
114.7300
0
VERTEX
8
CUT
10
123.7200
20
114.8100
0
VERTEX
8
CUT
10
123.9500
20
114.9100
0
VERTEX
8
CUT
10
124.1600
20
115.0300
0
VERTEX
8
CUT
10
124.3600
20
115.1700
0
VERTEX
8
CUT
10
124.5500
20
115.3400
0
VERTEX
8
CUT
10
124.7200
20
115.5200
0
VERTEX
8
CUT
10
124.8700
20
115.7100
0
VERTEX
8
CUT
10
125.0100
20
115.9300
0
VERTEX
8
CUT
10
125.1200
20
116.1500
0
VERTEX
8
CUT
10
125.2000
20
116.3800
0
VERTEX
8
CUT
10
125.2700
20
116.6200
0
VERTEX
8
CUT
10
125.3100
20
116.8700
0
VERTEX
8
CUT
10
125.3200
20
117.1200
0
VERTEX
8
CUT
10
125.3100
20
117.3600
0
VERTEX
8
CUT
10
125.2800
20
117.6100
0
VERTEX
8
CUT
10
125.2200
20
117.8500
0
VERTEX
8
CUT
10
125.1300
20
118.0900
0
VERTEX
8
CUT
10
125.0300
20
118.3100
0
VERTEX
8
CUT
10
124.9000
20
118.5200
0
VERTEX
8
CUT
10
124.7500
20
118.7200
0
VERTEX
8
CUT
10
124.6600
20
118.8200
0
VERTEX
8
CUT
10
124.5900
20
118.9100
0
VERTEX
8
CUT
10
124.5600
20
118.9400
0
VERTEX
8
CUT
10
124.5600
20
118.9500
0
VERTEX
8
CUT
10
124.5500
20
118.9700
0
VERTEX
8
CUT
10
124.5100
20
119.0500
0
VERTEX
8
CUT
10
124.2800
20
119.5700
0
VERTEX
8
CUT
10
124.2600
20
119.6300
0
VERTEX
8
CUT
10
124.2500
20
119.6500
0
VERTEX
8
CUT
10
124.2400
20
119.6900
0
VERTEX
8
CUT
10
124.2400
20
119.7000
0
VERTEX
8
CUT
10
124.2400
20
119.7100
0
VERTEX
8
CUT
10
124.2500
20
119.7900
0
VERTEX
8
CUT
10
124.6500
20
123.0200
0
VERTEX
8
CUT
10
124.6700
20
123.2600
0
VERTEX
8
CUT
10
124.6600
20
123.5000
0
VERTEX
8
CUT
10
124.6400
20
123.7400
0
VERTEX
8
CUT
10
124.3200
20
125.6700
0
VERTEX
8
CUT
10
124.2600
20
125.9100
0
VERTEX
8
CUT
10
124.1900
20
126.1500
0
VERTEX
8
CUT
10
124.0900
20
126.3700
0
VERTEX
8
CUT
10
123.9700
20
126.5900
0
VERTEX
8
CUT
10
123.8300
20
126.7900
0
VERTEX
8
CUT
10
123.6700
20
126.9800
0
VERTEX
8
CUT
10
123.4900
20
127.1500
0
VERTEX
8
CUT
10
123.2900
20
127.3000
0
VERTEX
8
CUT
10
123.0900
20
127.4300
0
VERTEX
8
CUT
10
122.8700
20
127.5400
0
VERTEX
8
CUT
10
122.6400
20
127.6300
0
VERTEX
8
CUT
10
122.4000
20
127.7000
0
VERTEX
8
CUT
10
122.1500
20
127.7400
0
VERTEX
8
CUT
10
121.9100
20
127.7600
0
VERTEX
8
CUT
10
121.6600
20
127.7500
0
VERTEX
8
CUT
10
121.4200
20
127.7200
0
VERTEX
8
CUT
10
121.1800
20
127.6700
0
VERTEX
8
CUT
10
120.9400
20
127.5900
0
VERTEX
8
CUT
10
120.7200
20
127.4900
0
VERTEX
8
CUT
10
120.5000
20
127.3700
0
VERTEX
8
CUT
10
120.3000
20
127.2200
0
VERTEX
8
CUT
10
120.1200
20
127.0600
0
VERTEX
8
CUT
10
119.9500
20
126.8800
0
VERTEX
8
CUT
10
119.8000
20
126.6800
0
VERTEX
8
CUT
10
119.6700
20
126.4800
0
VERTEX
8
CUT
10
119.5600
20
126.2500
0
VERTEX
8
CUT
10
119.3000
20
125.6500
0
VERTEX
8
CUT
10
119.2200
20
125.4500
0
VERTEX
8
CUT
10
119.1600
20
125.2500
0
VERTEX
8
CUT
10
119.1200
20
125.0300
0
VERTEX
8
CUT
10
118.6300
20
121.7900
0
VERTEX
8
CUT
10
118.6200
20
121.7100
0
VERTEX
8
CUT
10
118.6000
20
121.6100
0
VERTEX
8
CUT
10
118.6000
20
121.6000
0
VERTEX
8
CUT
10
118.5900
20
121.5800
0
VERTEX
8
CUT
10
118.5800
20
121.5800
0
VERTEX
8
CUT
10
118.5200
20
121.5000
0
VERTEX
8
CUT
10
118.4800
20
121.4500
0
VERTEX
8
CUT
10
118.0000
20
120.7800
0
VERTEX
8
CUT
10
117.9500
20
120.7200
0
VERTEX
8
CUT
10
117.9200
20
120.6800
0
VERTEX
8
CUT
10
117.8900
20
120.6400
0
VERTEX
8
CUT
10
117.8600
20
120.6000
0
VERTEX
8
CUT
10
117.8400
20
120.5800
0
VERTEX
8
CUT
10
117.8200
20
120.5700
0
VERTEX
8
CUT
10
117.7700
20
120.5500
0
VERTEX
8
CUT
10
117.5500
20
120.4600
0
VERTEX
8
CUT
10
117.3300
20
120.3400
0
VERTEX
8
CUT
10
117.1300
20
120.2100
0
VERTEX
8
CUT
10
116.9400
20
120.0600
0
SEQEND
0
POLYLINE
8
CUT
66
1
70
1
10
0.0
20
0.0
30
0.0
0
VERTEX
8
CUT
10
108.9300
20
127.4100
0
VERTEX
8
CUT
10
109.0700
20
127.2000
0
VERTEX
8
CUT
10
109.2200
20
127.0100
0
VERTEX
8
CUT
10
109.3900
20
126.8300
0
VERTEX
8
CUT
10
109.5700
20
126.6700
0
VERTEX
8
CUT
10
109.7700
20
126.5300
0
VERTEX
8
CUT
10
109.9900
20
126.4100
0
VERTEX
8
CUT
10
110.2100
20
126.3100
0
VERTEX
8
CUT
10
110.4400
20
126.2300
0
VERTEX
8
CUT
10
110.6800
20
126.1800
0
VERTEX
8
CUT
10
110.9300
20
126.1500
0
VERTEX
8
CUT
10
111.1700
20
126.1400
0
VERTEX
8
CUT
10
111.4200
20
126.1600
0
VERTEX
8
CUT
10
111.6600
20
126.2000
0
VERTEX
8
CUT
10
111.9000
20
126.2700
0
VERTEX
8
CUT
10
112.1300
20
126.3600
0
VERTEX
8
CUT
10
112.3500
20
126.4700
0
VERTEX
8
CUT
10
112.5500
20
126.6000
0
VERTEX
8
CUT
10
112.7500
20
126.7500
0
VERTEX
8
CUT
10
112.9200
20
126.9200
0
VERTEX
8
CUT
10
113.0800
20
127.1100
0
VERTEX
8
CUT
10
113.2300
20
127.3100
0
VERTEX
8
CUT
10
113.3500
20
127.5200
0
VERTEX
8
CUT
10
113.4400
20
127.7500
0
VERTEX
8
CUT
10
113.5200
20
127.9800
0
VERTEX
8
CUT
10
113.7800
20
128.9100
0
VERTEX
8
CUT
10
113.8000
20
128.9600
0
VERTEX
8
CUT
10
113.8000
20
128.9700
0
VERTEX
8
CUT
10
113.8000
20
128.9800
0
VERTEX
8
CUT
10
114.7000
20
130.5700
0
VERTEX
8
CUT
10
114.8100
20
130.8000
0
VERTEX
8
CUT
10
114.9000
20
131.0300
0
VERTEX
8
CUT
10
114.9600
20
131.2700
0
VERTEX
8
CUT
10
115.0000
20
131.5200
0
VERTEX
8
CUT
10
115.0200
20
131.7700
0
VERTEX
8
CUT
10
115.0100
20
132.0200
0
VERTEX
8
CUT
10
114.9800
20
132.2700
0
VERTEX
8
CUT
10
114.9200
20
132.5100
0
VERTEX
8
CUT
10
114.8300
20
132.7500
0
VERTEX
8
CUT
10
114.7300
20
132.9700
0
VERTEX
8
CUT
10
114.6000
20
133.1900
0
VERTEX
8
CUT
10
114.4500
20
133.3900
0
VERTEX
8
CUT
10
114.2800
20
133.5700
0
VERTEX
8
CUT
10
114.0900
20
133.7400
0
VERTEX
8
CUT
10
113.8900
20
133.8900
0
VERTEX
8
CUT
10
113.6800
20
134.0200
0
VERTEX
8
CUT
10
113.4500
20
134.1200
0
VERTEX
8
CUT
10
113.2100
20
134.2000
0
VERTEX
8
CUT
10
112.9700
20
134.2600
0
VERTEX
8
CUT
10
111.5100
20
134.5300
0
VERTEX
8
CUT
10
111.4600
20
134.5400
0
VERTEX
8
CUT
10
111.3300
20
134.5700
0
VERTEX
8
CUT
10
109.9200
20
135.0300
0
VERTEX
8
CUT
10
109.6900
20
135.1000
0
VERTEX
8
CUT
10
109.4500
20
135.1400
0
VERTEX
8
CUT
10
109.2000
20
135.1600
0
VERTEX
8
CUT
10
108.9600
20
135.1500
0
VERTEX
8
CUT
10
108.7200
20
135.1200
0
VERTEX
8
CUT
10
108.4800
20
135.0700
0
VERTEX
8
CUT
10
108.2500
20
134.9900
0
VERTEX
8
CUT
10
108.0200
20
134.9000
0
VERTEX
8
CUT
10
107.8100
20
134.7800
0
VERTEX
8
CUT
10
107.6100
20
134.6400
0
VERTEX
8
CUT
10
107.4300
20
134.4800
0
VERTEX
8
CUT
10
107.2600
20
134.3000
0
VERTEX
8
CUT
10
107.1100
20
134.1100
0
VERTEX
8
CUT
10
106.9700
20
133.9100
0
VERTEX
8
CUT
10
106.8600
20
133.6900
0
VERTEX
8
CUT
10
106.7700
20
133.4600
0
VERTEX
8
CUT
10
106.7100
20
133.2300
0
VERTEX
8
CUT
10
106.6600
20
132.9900
0
VERTEX
8
CUT
10
106.6400
20
132.7500
0
VERTEX
8
CUT
10
106.6400
20
132.5000
0
VERTEX
8
CUT
10
106.6700
20
132.2600
0
VERTEX
8
CUT
10
106.7200
20
132.0200
0
VERTEX
8
CUT
10
106.8000
20
131.7900
0
VERTEX
8
CUT
10
106.8900
20
131.5600
0
VERTEX
8
CUT
10
107.0100
20
131.3500
0
VERTEX
8
CUT
10
107.5500
20
130.4800
0
VERTEX
8
CUT
10
107.5800
20
130.4200
0
VERTEX
8
CUT
10
107.6000
20
130.3900
0
VERTEX
8
CUT
10
107.6500
20
130.2800
0
VERTEX
8
CUT
10
108.8200
20
127.6300
0
SEQEND
0
POLYLINE
8
CUT
66
1
70
1
10
0.0
20
0.0
30
0.0
0
VERTEX
8
CUT
10
81.5500
20
190.9000
0
VERTEX
8
CUT
10
81.3200
20
190.8300
0
VERTEX
8
CUT
10
81.0900
20
190.7400
0
VERTEX
8
CUT
10
80.8800
20
190.6300
0
VERTEX
8
CUT
10
80.6800
20
190.4900
0
VERTEX
8
CUT
10
80.4900
20
190.3400
0
VERTEX
8
CUT
10
80.3200
20
190.1700
0
VERTEX
8
CUT
10
80.1600
20
189.9800
0
VERTEX
8
CUT
10
80.0200
20
189.7800
0
VERTEX
8
CUT
10
79.9100
20
189.5700
0
VERTEX
8
CUT
10
79.8100
20
189.3400
0
VERTEX
8
CUT
10
79.7400
20
189.1100
0
VERTEX
8
CUT
10
79.6900
20
188.8700
0
VERTEX
8
CUT
10
79.6600
20
188.6300
0
VERTEX
8
CUT
10
79.6600
20
188.3900
0
VERTEX
8
CUT
10
79.6800
20
188.1500
0
VERTEX
8
CUT
10
79.7300
20
187.9100
0
VERTEX
8
CUT
10
79.7900
20
187.6700
0
VERTEX
8
CUT
10
79.8800
20
187.4500
0
VERTEX
8
CUT
10
79.9900
20
187.2300
0
VERTEX
8
CUT
10
80.1200
20
187.0300
0
VERTEX
8
CUT
10
80.2800
20
186.8400
0
VERTEX
8
CUT
10
80.4400
20
186.6600
0
VERTEX
8
CUT
10
80.6300
20
186.5000
0
VERTEX
8
CUT
10
81.1200
20
186.1200
0
VERTEX
8
CUT
10
81.2700
20
186.0200
0
VERTEX
8
CUT
10
81.4300
20
185.9200
0
VERTEX
8
CUT
10
83.2500
20
184.9000
0
VERTEX
8
CUT
10
83.2800
20
184.8800
0
VERTEX
8
CUT
10
83.3000
20
184.8700
0
VERTEX
8
CUT
10
83.3000
20
184.8600
0
VERTEX
8
CUT
10
83.3200
20
184.8500
0
VERTEX
8
CUT
10
83.3300
20
184.8400
0
VERTEX
8
CUT
10
83.3400
20
184.8300
0
VERTEX
8
CUT
10
83.3700
20
184.7900
0
VERTEX
8
CUT
10
85.3600
20
182.2700
0
VERTEX
8
CUT
10
85.5100
20
182.1000
0
VERTEX
8
CUT
10
85.6700
20
181.9400
0
VERTEX
8
CUT
10
85.8500
20
181.8000
0
VERTEX
8
CUT
10
86.0400
20
181.6700
0
VERTEX
8
CUT
10
86.2400
20
181.5700
0
VERTEX
8
CUT
10
86.4500
20
181.4800
0
VERTEX
8
CUT
10
88.0100
20
180.9000
0
VERTEX
8
CUT
10
88.2500
20
180.8200
0
VERTEX
8
CUT
10
88.5000
20
180.7700
0
VERTEX
8
CUT
10
88.7600
20
180.7400
0
VERTEX
8
CUT
10
89.0100
20
180.7400
0
VERTEX
8
CUT
10
89.2700
20
180.7700
0
VERTEX
8
CUT
10
89.5200
20
180.8200
0
VERTEX
8
CUT
10
89.7600
20
180.9000
0
VERTEX
8
CUT
10
90.0000
20
181.0000
0
VERTEX
8
CUT
10
90.2200
20
181.1300
0
VERTEX
8
CUT
10
90.7400
20
181.4600
0
VERTEX
8
CUT
10
90.9300
20
181.5900
0
VERTEX
8
CUT
10
91.1100
20
181.7500
0
VERTEX
8
CUT
10
91.2700
20
181.9100
0
VERTEX
8
CUT
10
91.4200
20
182.1000
0
VERTEX
8
CUT
10
91.5500
20
182.2900
0
VERTEX
8
CUT
10
92.7800
20
184.3600
0
VERTEX
8
CUT
10
92.8900
20
184.5800
0
VERTEX
8
CUT
10
92.9900
20
184.8100
0
VERTEX
8
CUT
10
93.0600
20
185.0400
0
VERTEX
8
CUT
10
93.1000
20
185.2900
0
VERTEX
8
CUT
10
93.1800
20
185.8500
0
VERTEX
8
CUT
10
93.2100
20
186.0900
0
VERTEX
8
CUT
10
93.2100
20
186.3300
0
VERTEX
8
CUT
10
93.1800
20
186.5800
0
VERTEX
8
CUT
10
93.1300
20
186.8200
0
VERTEX
8
CUT
10
93.0600
20
187.0500
0
VERTEX
8
CUT
10
92.9700
20
187.2700
0
VERTEX
8
CUT
10
92.8500
20
187.4900
0
VERTEX
8
CUT
10
92.7200
20
187.6900
0
VERTEX
8
CUT
10
92.5600
20
187.8800
0
VERTEX
8
CUT
10
92.3900
20
188.0500
0
VERTEX
8
CUT
10
92.2000
20
188.2100
0
VERTEX
8
CUT
10
92.0000
20
188.3400
0
VERTEX
8
CUT
10
91.7800
20
188.4600
0
VERTEX
8
CUT
10
91.5600
20
188.5500
0
VERTEX
8
CUT
10
91.3200
20
188.6200
0
VERTEX
8
CUT
10
91.0800
20
188.6700
0
VERTEX
8
CUT
10
90.8400
20
188.7000
0
VERTEX
8
CUT
10
90.7500
20
188.7000
0
VERTEX
8
CUT
10
90.7200
20
188.7100
0
VERTEX
8
CUT
10
90.7000
20
188.7100
0
VERTEX
8
CUT
10
90.5800
20
188.7600
0
VERTEX
8
CUT
10
89.3400
20
189.3800
0
VERTEX
8
CUT
10
89.2000
20
189.4600
0
VERTEX
8
CUT
10
89.1400
20
189.5000
0
VERTEX
8
CUT
10
89.0500
20
189.5700
0
VERTEX
8
CUT
10
88.8500
20
189.7200
0
VERTEX
8
CUT
10
88.6400
20
189.8400
0
VERTEX
8
CUT
10
88.4200
20
189.9400
0
VERTEX
8
CUT
10
88.1900
20
190.0200
0
VERTEX
8
CUT
10
87.9500
20
190.0800
0
VERTEX
8
CUT
10
87.7100
20
190.1100
0
VERTEX
8
CUT
10
85.3200
20
190.3200
0
VERTEX
8
CUT
10
85.2800
20
190.3300
0
VERTEX
8
CUT
10
85.2600
20
190.3300
0
VERTEX
8
CUT
10
85.1300
20
190.3400
0
VERTEX
8
CUT
10
85.1000
20
190.3500
0
VERTEX
8
CUT
10
84.9500
20
190.3700
0
VERTEX
8
CUT
10
82.7500
20
190.9100
0
VERTEX
8
CUT
10
82.5200
20
190.9500
0
VERTEX
8
CUT
10
82.2700
20
190.9800
0
VERTEX
8
CUT
10
82.0300
20
190.9800
0
VERTEX
8
CUT
10
81.7900
20
190.9500
0
SEQEND
0
POLYLINE
8
CUT
66
1
70
1
10
0.0
20
0.0
30
0.0
0
VERTEX
8
CUT
10
74.5200
20
152.0200
0
VERTEX
8
CUT
10
74.4600
20
151.7900
0
VERTEX
8
CUT
10
74.4200
20
151.5500
0
VERTEX
8
CUT
10
74.4100
20
151.3000
0
VERTEX
8
CUT
10
74.4200
20
151.0600
0
VERTEX
8
CUT
10
74.4500
20
150.8200
0
VERTEX
8
CUT
10
74.5100
20
150.5800
0
VERTEX
8
CUT
10
74.5900
20
150.3500
0
VERTEX
8
CUT
10
74.6900
20
150.1300
0
VERTEX
8
CUT
10
74.8200
20
149.9200
0
VERTEX
8
CUT
10
74.9600
20
149.7200
0
VERTEX
8
CUT
10
75.1200
20
149.5400
0
VERTEX
8
CUT
10
75.3000
20
149.3800
0
VERTEX
8
CUT
10
75.4900
20
149.2300
0
VERTEX
8
CUT
10
75.7000
20
149.1000
0
VERTEX
8
CUT
10
75.9200
20
148.9900
0
VERTEX
8
CUT
10
76.1500
20
148.9100
0
VERTEX
8
CUT
10
76.3800
20
148.8500
0
VERTEX
8
CUT
10
76.6200
20
148.8100
0
VERTEX
8
CUT
10
76.8700
20
148.7900
0
VERTEX
8
CUT
10
78.6300
20
148.7600
0
VERTEX
8
CUT
10
78.6400
20
148.7600
0
VERTEX
8
CUT
10
78.7100
20
148.7500
0
VERTEX
8
CUT
10
78.8000
20
148.7400
0
VERTEX
8
CUT
10
79.3100
20
148.6200
0
VERTEX
8
CUT
10
79.6000
20
148.5700
0
VERTEX
8
CUT
10
79.8900
20
148.5500
0
VERTEX
8
CUT
10
79.9100
20
148.5500
0
VERTEX
8
CUT
10
79.9200
20
148.5500
0
VERTEX
8
CUT
10
83.9000
20
148.5600
0
VERTEX
8
CUT
10
84.1200
20
148.5700
0
VERTEX
8
CUT
10
84.3400
20
148.6000
0
VERTEX
8
CUT
10
85.2100
20
148.7600
0
VERTEX
8
CUT
10
85.5000
20
148.8300
0
VERTEX
8
CUT
10
85.7800
20
148.9400
0
VERTEX
8
CUT
10
86.5000
20
149.2600
0
VERTEX
8
CUT
10
86.7100
20
149.3600
0
VERTEX
8
CUT
10
86.9100
20
149.4900
0
VERTEX
8
CUT
10
87.1000
20
149.6400
0
VERTEX
8
CUT
10
87.2800
20
149.8000
0
VERTEX
8
CUT
10
87.4400
20
149.9800
0
VERTEX
8
CUT
10
87.5800
20
150.1800
0
VERTEX
8
CUT
10
87.7000
20
150.3900
0
VERTEX
8
CUT
10
87.8000
20
150.6100
0
VERTEX
8
CUT
10
87.8800
20
150.8300
0
VERTEX
8
CUT
10
87.9300
20
151.0700
0
VERTEX
8
CUT
10
87.9700
20
151.3000
0
VERTEX
8
CUT
10
87.9800
20
151.5400
0
VERTEX
8
CUT
10
87.9700
20
151.7800
0
VERTEX
8
CUT
10
87.9300
20
152.0200
0
VERTEX
8
CUT
10
87.8800
20
152.2500
0
VERTEX
8
CUT
10
87.8000
20
152.4800
0
VERTEX
8
CUT
10
87.6900
20
152.7000
0
VERTEX
8
CUT
10
87.5700
20
152.9100
0
VERTEX
8
CUT
10
87.4300
20
153.1000
0
VERTEX
8
CUT
10
87.2700
20
153.2800
0
VERTEX
8
CUT
10
87.1000
20
153.4500
0
VERTEX
8
CUT
10
86.9100
20
153.5900
0
VERTEX
8
CUT
10
86.7000
20
153.7200
0
VERTEX
8
CUT
10
85.2100
20
154.5600
0
VERTEX
8
CUT
10
85.1600
20
154.5900
0
VERTEX
8
CUT
10
85.0600
20
154.6500
0
VERTEX
8
CUT
10
85.0100
20
154.6800
0
VERTEX
8
CUT
10
85.0000
20
154.6900
0
VERTEX
8
CUT
10
84.9300
20
154.7500
0
VERTEX
8
CUT
10
84.0100
20
155.6700
0
VERTEX
8
CUT
10
83.9700
20
155.7200
0
VERTEX
8
CUT
10
83.9400
20
155.7500
0
VERTEX
8
CUT
10
83.9200
20
155.7800
0
VERTEX
8
CUT
10
83.9100
20
155.8100
0
VERTEX
8
CUT
10
83.4600
20
156.9300
0
VERTEX
8
CUT
10
83.4300
20
157.0000
0
VERTEX
8
CUT
10
83.4200
20
157.0300
0
VERTEX
8
CUT
10
83.3900
20
157.1400
0
VERTEX
8
CUT
10
83.3200
20
157.3700
0
VERTEX
8
CUT
10
83.2100
20
157.5900
0
VERTEX
8
CUT
10
83.0900
20
157.8000
0
VERTEX
8
CUT
10
82.9500
20
158.0000
0
VERTEX
8
CUT
10
82.7900
20
158.1900
0
VERTEX
8
CUT
10
82.6100
20
158.3500
0
VERTEX
8
CUT
10
82.4200
20
158.5000
0
VERTEX
8
CUT
10
82.2100
20
158.6300
0
VERTEX
8
CUT
10
81.9900
20
158.7400
0
VERTEX
8
CUT
10
81.7600
20
158.8300
0
VERTEX
8
CUT
10
81.5300
20
158.8900
0
VERTEX
8
CUT
10
81.2900
20
158.9300
0
VERTEX
8
CUT
10
81.0400
20
158.9500
0
VERTEX
8
CUT
10
80.8000
20
158.9400
0
VERTEX
8
CUT
10
80.5600
20
158.9100
0
VERTEX
8
CUT
10
80.3200
20
158.8600
0
VERTEX
8
CUT
10
80.0900
20
158.7800
0
VERTEX
8
CUT
10
79.8600
20
158.6800
0
VERTEX
8
CUT
10
79.6500
20
158.5600
0
VERTEX
8
CUT
10
79.4500
20
158.4200
0
VERTEX
8
CUT
10
79.2700
20
158.2600
0
VERTEX
8
CUT
10
79.1000
20
158.0800
0
VERTEX
8
CUT
10
78.9500
20
157.8900
0
VERTEX
8
CUT
10
78.8200
20
157.6900
0
VERTEX
8
CUT
10
78.7200
20
157.4900
0
VERTEX
8
CUT
10
78.7100
20
157.4700
0
VERTEX
8
CUT
10
78.7100
20
157.4600
0
VERTEX
8
CUT
10
77.5900
20
155.1000
0
VERTEX
8
CUT
10
77.5900
20
155.0900
0
VERTEX
8
CUT
10
77.5800
20
155.0800
0
VERTEX
8
CUT
10
77.5600
20
155.0600
0
VERTEX
8
CUT
10
77.4900
20
155.0000
0
VERTEX
8
CUT
10
76.2800
20
154.1300
0
VERTEX
8
CUT
10
76.1200
20
154.0100
0
VERTEX
8
CUT
10
76.0500
20
153.9500
0
VERTEX
8
CUT
10
76.0300
20
153.9300
0
VERTEX
8
CUT
10
75.9700
20
153.8700
0
VERTEX
8
CUT
10
75.9500
20
153.8600
0
VERTEX
8
CUT
10
75.8300
20
153.7500
0
VERTEX
8
CUT
10
75.1400
20
153.0600
0
VERTEX
8
CUT
10
74.9800
20
152.8800
0
VERTEX
8
CUT
10
74.8300
20
152.6800
0
VERTEX
8
CUT
10
74.7100
20
152.4700
0
VERTEX
8
CUT
10
74.6000
20
152.2500
0
SEQEND
0
ENDSEC
0
EOF
