0
SECTION
2
HEADER
9
$ACADVER
1
AC1009
9
$INSUNITS
70
4
0
ENDSEC
0
SECTION
2
TABLES
0
TABLE
2
LAYER
70
1
0
LAYER
2
CUT
70
0
62
7
6
CONTINUOUS
0
ENDTAB
0
ENDSEC
0
SECTION
2
ENTITIES
0
POLYLINE
8
CUT
66
1
70
1
10
0.0
20
0.0
30
0.0
0
VERTEX
8
CUT
10
-0.0625
20
298.5625
0
VERTEX
8
CUT
10
-0.0625
20
299.4478
0
VERTEX
8
CUT
10
-0.0589
20
299.5212
0
VERTEX
8
CUT
10
-0.0503
20
299.5794
0
VERTEX
8
CUT
10
-0.0360
20
299.6365
0
VERTEX
8
CUT
10
-0.0162
20
299.6918
0
VERTEX
8
CUT
10
0.0090
20
299.7450
0
VERTEX
8
CUT
10
0.0392
20
299.7954
0
VERTEX
8
CUT
10
0.0743
20
299.8427
0
VERTEX
8
CUT
10
0.1137
20
299.8863
0
VERTEX
8
CUT
10
0.1573
20
299.9257
0
VERTEX
8
CUT
10
0.2046
20
299.9608
0
VERTEX
8
CUT
10
0.2550
20
299.9910
0
VERTEX
8
CUT
10
0.3082
20
300.0162
0
VERTEX
8
CUT
10
0.3635
20
300.0360
0
VERTEX
8
CUT
10
0.4206
20
300.0503
0
VERTEX
8
CUT
10
0.4788
20
300.0589
0
VERTEX
8
CUT
10
0.5522
20
300.0625
0
VERTEX
8
CUT
10
1.4375
20
300.0625
0
VERTEX
8
CUT
10
298.5266
20
300.0625
0
VERTEX
8
CUT
10
299.4119
20
300.0625
0
VERTEX
8
CUT
10
299.4853
20
300.0589
0
VERTEX
8
CUT
10
299.5435
20
300.0503
0
VERTEX
8
CUT
10
299.6005
20
300.0360
0
VERTEX
8
CUT
10
299.6559
20
300.0162
0
VERTEX
8
CUT
10
299.7091
20
299.9910
0
VERTEX
8
CUT
10
299.7595
20
299.9608
0
VERTEX
8
CUT
10
299.8068
20
299.9257
0
VERTEX
8
CUT
10
299.8503
20
299.8863
0
VERTEX
8
CUT
10
299.8898
20
299.8427
0
VERTEX
8
CUT
10
299.9249
20
299.7954
0
VERTEX
8
CUT
10
299.9551
20
299.7450
0
VERTEX
8
CUT
10
299.9802
20
299.6918
0
VERTEX
8
CUT
10
300.0001
20
299.6365
0
VERTEX
8
CUT
10
300.0143
20
299.5794
0
VERTEX
8
CUT
10
300.0230
20
299.5212
0
VERTEX
8
CUT
10
300.0266
20
299.4478
0
VERTEX
8
CUT
10
300.0266
20
298.5625
0
VERTEX
8
CUT
10
300.0266
20
1.4375
0
VERTEX
8
CUT
10
300.0266
20
0.5522
0
VERTEX
8
CUT
10
300.0230
20
0.4788
0
VERTEX
8
CUT
10
300.0143
20
0.4206
0
VERTEX
8
CUT
10
300.0001
20
0.3635
0
VERTEX
8
CUT
10
299.9802
20
0.3082
0
VERTEX
8
CUT
10
299.9551
20
0.2550
0
VERTEX
8
CUT
10
299.9249
20
0.2046
0
VERTEX
8
CUT
10
299.8898
20
0.1573
0
VERTEX
8
CUT
10
299.8503
20
0.1137
0
VERTEX
8
CUT
10
299.8068
20
0.0743
0
VERTEX
8
CUT
10
299.7595
20
0.0392
0
VERTEX
8
CUT
10
299.7091
20
0.0090
0
VERTEX
8
CUT
10
299.6559
20
-0.0162
0
VERTEX
8
CUT
10
299.6005
20
-0.0360
0
VERTEX
8
CUT
10
299.5435
20
-0.0503
0
VERTEX
8
CUT
10
299.4853
20
-0.0589
0
VERTEX
8
CUT
10
299.4119
20
-0.0625
0
VERTEX
8
CUT
10
298.5266
20
-0.0625
0
VERTEX
8
CUT
10
1.4375
20
-0.0625
0
VERTEX
8
CUT
10
0.5522
20
-0.0625
0
VERTEX
8
CUT
10
0.4788
20
-0.0589
0
VERTEX
8
CUT
10
0.4206
20
-0.0503
0
VERTEX
8
CUT
10
0.3635
20
-0.0360
0
VERTEX
8
CUT
10
0.3082
20
-0.0162
0
VERTEX
8
CUT
10
0.2550
20
0.0090
0
VERTEX
8
CUT
10
0.2046
20
0.0392
0
VERTEX
8
CUT
10
0.1573
20
0.0743
0
VERTEX
8
CUT
10
0.1137
20
0.1137
0
VERTEX
8
CUT
10
0.0743
20
0.1573
0
VERTEX
8
CUT
10
0.0392
20
0.2046
0
VERTEX
8
CUT
10
0.0090
20
0.2550
0
VERTEX
8
CUT
10
-0.0162
20
0.3082
0
VERTEX
8
CUT
10
-0.0360
20
0.3635
0
VERTEX
8
CUT
10
-0.0503
20
0.4206
0
VERTEX
8
CUT
10
-0.0589
20
0.4788
0
VERTEX
8
CUT
10
-0.0625
20
0.5522
0
VERTEX
8
CUT
10
-0.0625
20
1.4375
0
SEQEND
0
POLYLINE
8
CUT
66
1
70
1
10
0.0
20
0.0
30
0.0
0
VERTEX
8
CUT
10
173.8821
20
62.1702
0
VERTEX
8
CUT
10
173.8799
20
62.1110
0
VERTEX
8
CUT
10
173.8820
20
61.9239
0
VERTEX
8
CUT
10
173.8856
20
61.8648
0
VERTEX
8
CUT
10
173.9064
20
61.6762
0
VERTEX
8
CUT
10
173.9104
20
61.6468
0
VERTEX
8
CUT
10
173.9196
20
61.5897
0
VERTEX
8
CUT
10
173.9221
20
61.5752
0
VERTEX
8
CUT
10
173.9397
20
61.4806
0
VERTEX
8
CUT
10
173.9426
20
61.4660
0
VERTEX
8
CUT
10
174.3362
20
59.6086
0
VERTEX
8
CUT
10
174.3400
20
59.5921
0
VERTEX
8
CUT
10
174.3656
20
59.4857
0
VERTEX
8
CUT
10
174.3698
20
59.4694
0
VERTEX
8
CUT
10
174.4058
20
59.3369
0
VERTEX
8
CUT
10
174.4104
20
59.3207
0
VERTEX
8
CUT
10
174.4421
20
59.2159
0
VERTEX
8
CUT
10
174.4471
20
59.1998
0
VERTEX
8
CUT
10
175.0520
20
57.3812
0
VERTEX
8
CUT
10
175.0583
20
57.3632
0
VERTEX
8
CUT
10
175.1010
20
57.2473
0
VERTEX
8
CUT
10
175.1079
20
57.2295
0
VERTEX
8
CUT
10
175.1660
20
57.0857
0
VERTEX
8
CUT
10
175.1735
20
57.0682
0
VERTEX
8
CUT
10
175.2234
20
56.9552
0
VERTEX
8
CUT
10
175.2314
20
56.9379
0
VERTEX
8
CUT
10
176.1142
20
55.1005
0
VERTEX
8
CUT
10
176.1226
20
55.0838
0
VERTEX
8
CUT
10
176.1786
20
54.9759
0
VERTEX
8
CUT
10
176.1875
20
54.9594
0
VERTEX
8
CUT
10
176.2621
20
54.8262
0
VERTEX
8
CUT
10
176.2715
20
54.8100
0
VERTEX
8
CUT
10
176.3341
20
54.7058
0
VERTEX
8
CUT
10
176.3440
20
54.6899
0
VERTEX
8
CUT
10
177.4786
20
52.9302
0
VERTEX
8
CUT
10
177.4863
20
52.9186
0
VERTEX
8
CUT
10
177.5370
20
52.8439
0
VERTEX
8
CUT
10
177.5449
20
52.8325
0
VERTEX
8
CUT
10
177.6107
20
52.7401
0
VERTEX
8
CUT
10
177.6189
20
52.7289
0
VERTEX
8
CUT
10
177.6730
20
52.6566
0
VERTEX
8
CUT
10
177.6814
20
52.6456
0
VERTEX
8
CUT
10
178.9911
20
50.9765
0
VERTEX
8
CUT
10
179.0033
20
50.9615
0
VERTEX
8
CUT
10
179.0842
20
50.8650
0
VERTEX
8
CUT
10
179.0968
20
50.8504
0
VERTEX
8
CUT
10
179.2022
20
50.7326
0
VERTEX
8
CUT
10
179.2153
20
50.7184
0
VERTEX
8
CUT
10
179.3022
20
50.6274
0
VERTEX
8
CUT
10
179.3158
20
50.6136
0
VERTEX
8
CUT
10
180.7647
20
49.1908
0
VERTEX
8
CUT
10
180.7757
20
49.1803
0
VERTEX
8
CUT
10
180.8481
20
49.1127
0
VERTEX
8
CUT
10
180.8593
20
49.1025
0
VERTEX
8
CUT
10
180.9523
20
49.0200
0
VERTEX
8
CUT
10
180.9638
20
49.0101
0
VERTEX
8
CUT
10
181.0396
20
48.9463
0
VERTEX
8
CUT
10
181.0513
20
48.9366
0
VERTEX
8
CUT
10
182.5417
20
47.7443
0
VERTEX
8
CUT
10
182.5578
20
47.7319
0
VERTEX
8
CUT
10
182.6636
20
47.6529
0
VERTEX
8
CUT
10
182.6801
20
47.6411
0
VERTEX
8
CUT
10
182.8162
20
47.5466
0
VERTEX
8
CUT
10
182.8330
20
47.5353
0
VERTEX
8
CUT
10
182.9440
20
47.4637
0
VERTEX
8
CUT
10
182.9612
20
47.4529
0
VERTEX
8
CUT
10
184.4669
20
46.5519
0
VERTEX
8
CUT
10
184.4774
20
46.5458
0
VERTEX
8
CUT
10
184.5461
20
46.5065
0
VERTEX
8
CUT
10
184.5567
20
46.5006
0
VERTEX
8
CUT
10
184.5985
20
46.4779
0
VERTEX
8
CUT
10
184.6201
20
46.4667
0
VERTEX
8
CUT
10
184.7620
20
46.3967
0
VERTEX
8
CUT
10
184.7840
20
46.3864
0
VERTEX
8
CUT
10
184.8275
20
46.3671
0
VERTEX
8
CUT
10
184.8387
20
46.3623
0
VERTEX
8
CUT
10
184.9116
20
46.3317
0
VERTEX
8
CUT
10
184.9229
20
46.3271
0
VERTEX
8
CUT
10
186.3095
20
45.7781
0
VERTEX
8
CUT
10
186.3216
20
45.7735
0
VERTEX
8
CUT
10
186.4003
20
45.7443
0
VERTEX
8
CUT
10
186.4125
20
45.7399
0
VERTEX
8
CUT
10
186.4601
20
45.7233
0
VERTEX
8
CUT
10
186.4847
20
45.7154
0
VERTEX
8
CUT
10
186.6433
20
45.6679
0
VERTEX
8
CUT
10
186.6934
20
45.6553
0
VERTEX
8
CUT
10
186.8556
20
45.6216
0
VERTEX
8
CUT
10
186.8809
20
45.6169
0
VERTEX
8
CUT
10
186.9308
20
45.6088
0
VERTEX
8
CUT
10
186.9435
20
45.6068
0
VERTEX
8
CUT
10
187.0267
20
45.5951
0
VERTEX
8
CUT
10
187.0395
20
45.5934
0
VERTEX
8
CUT
10
188.5958
20
45.4079
0
VERTEX
8
CUT
10
188.6082
20
45.4066
0
VERTEX
8
CUT
10
188.6889
20
45.3986
0
VERTEX
8
CUT
10
188.7013
20
45.3976
0
VERTEX
8
CUT
10
188.7499
20
45.3938
0
VERTEX
8
CUT
10
188.7748
20
45.3924
0
VERTEX
8
CUT
10
188.9346
20
45.3867
0
VERTEX
8
CUT
10
188.9844
20
45.3870
0
VERTEX
8
CUT
10
189.1441
20
45.3946
0
VERTEX
8
CUT
10
189.1690
20
45.3963
0
VERTEX
8
CUT
10
189.2176
20
45.4007
0
VERTEX
8
CUT
10
189.2300
20
45.4019
0
VERTEX
8
CUT
10
189.3105
20
45.4108
0
VERTEX
8
CUT
10
189.3229
20
45.4123
0
VERTEX
8
CUT
10
191.2451
20
45.6651
0
VERTEX
8
CUT
10
191.2591
20
45.6671
0
VERTEX
8
CUT
10
191.3500
20
45.6813
0
VERTEX
8
CUT
10
191.3640
20
45.6836
0
VERTEX
8
CUT
10
191.4184
20
45.6934
0
VERTEX
8
CUT
10
191.4461
20
45.6991
0
VERTEX
8
CUT
10
191.6254
20
45.7401
0
VERTEX
8
CUT
10
191.6528
20
45.7471
0
VERTEX
8
CUT
10
191.7061
20
45.7620
0
VERTEX
8
CUT
10
191.7196
20
45.7659
0
VERTEX
8
CUT
10
191.8076
20
45.7928
0
VERTEX
8
CUT
10
191.8211
20
45.7971
0
VERTEX
8
CUT
10
192.7676
20
46.1102
0
VERTEX
8
CUT
10
192.7813
20
46.1149
0
VERTEX
8
CUT
10
192.8702
20
46.1467
0
VERTEX
8
CUT
10
192.8838
20
46.1518
0
VERTEX
8
CUT
10
192.9367
20
46.1722
0
VERTEX
8
CUT
10
192.9635
20
46.1833
0
VERTEX
8
CUT
10
193.1360
20
46.2596
0
VERTEX
8
CUT
10
193.1623
20
46.2719
0
VERTEX
8
CUT
10
193.2130
20
46.2973
0
VERTEX
8
CUT
10
193.2259
20
46.3040
0
VERTEX
8
CUT
10
193.3092
20
46.3483
0
VERTEX
8
CUT
10
193.3219
20
46.3553
0
VERTEX
8
CUT
10
193.9377
20
46.7023
0
VERTEX
8
CUT
10
193.9506
20
46.7097
0
VERTEX
8
CUT
10
194.0334
20
46.7591
0
VERTEX
8
CUT
10
194.0461
20
46.7669
0
VERTEX
8
CUT
10
194.0951
20
46.7978
0
VERTEX
8
CUT
10
194.1198
20
46.8142
0
VERTEX
8
CUT
10
194.2776
20
46.9250
0
VERTEX
8
CUT
10
194.3015
20
46.9427
0
VERTEX
8
CUT
10
194.3472
20
46.9783
0
VERTEX
8
CUT
10
194.3588
20
46.9875
0
VERTEX
8
CUT
10
194.4334
20
47.0487
0
VERTEX
8
CUT
10
194.4448
20
47.0582
0
VERTEX
8
CUT
10
195.9379
20
48.3442
0
VERTEX
8
CUT
10
195.9514
20
48.3562
0
VERTEX
8
CUT
10
196.0381
20
48.4356
0
VERTEX
8
CUT
10
196.0513
20
48.4480
0
VERTEX
8
CUT
10
196.1019
20
48.4972
0
VERTEX
8
CUT
10
196.1271
20
48.5232
0
VERTEX
8
CUT
10
196.2854
20
48.6969
0
VERTEX
8
CUT
10
196.3089
20
48.7243
0
VERTEX
8
CUT
10
196.3532
20
48.7792
0
VERTEX
8
CUT
10
196.3644
20
48.7935
0
VERTEX
8
CUT
10
196.4354
20
48.8872
0
VERTEX
8
CUT
10
196.4461
20
48.9018
0
VERTEX
8
CUT
10
197.7600
20
50.7480
0
VERTEX
8
CUT
10
197.7686
20
50.7604
0
VERTEX
8
CUT
10
197.8235
20
50.8419
0
VERTEX
8
CUT
10
197.8318
20
50.8545
0
VERTEX
8
CUT
10
197.8636
20
50.9043
0
VERTEX
8
CUT
10
197.8792
20
50.9302
0
VERTEX
8
CUT
10
197.9764
20
51.1008
0
VERTEX
8
CUT
10
197.9907
20
51.1274
0
VERTEX
8
CUT
10
198.0173
20
51.1801
0
VERTEX
8
CUT
10
198.0239
20
51.1937
0
VERTEX
8
CUT
10
198.0659
20
51.2825
0
VERTEX
8
CUT
10
198.0722
20
51.2962
0
VERTEX
8
CUT
10
199.0917
20
53.5980
0
VERTEX
8
CUT
10
199.0970
20
53.6104
0
VERTEX
8
CUT
10
199.1306
20
53.6910
0
VERTEX
8
CUT
10
199.1357
20
53.7035
0
VERTEX
8
CUT
10
199.1548
20
53.7525
0
VERTEX
8
CUT
10
199.1640
20
53.7777
0
VERTEX
8
CUT
10
199.2201
20
53.9431
0
VERTEX
8
CUT
10
199.2282
20
53.9688
0
VERTEX
8
CUT
10
199.2429
20
54.0192
0
VERTEX
8
CUT
10
199.2465
20
54.0322
0
VERTEX
8
CUT
10
199.2689
20
54.1167
0
VERTEX
8
CUT
10
199.2722
20
54.1297
0
VERTEX
8
CUT
10
199.7659
20
56.1676
0
VERTEX
8
CUT
10
199.7689
20
56.1806
0
VERTEX
8
CUT
10
199.7873
20
56.2647
0
VERTEX
8
CUT
10
199.7900
20
56.2776
0
VERTEX
8
CUT
10
199.7999
20
56.3284
0
VERTEX
8
CUT
10
199.8045
20
56.3545
0
VERTEX
8
CUT
10
199.8301
20
56.5247
0
VERTEX
8
CUT
10
199.8334
20
56.5510
0
VERTEX
8
CUT
10
199.8389
20
56.6024
0
VERTEX
8
CUT
10
199.8401
20
56.6156
0
VERTEX
8
CUT
10
199.8473
20
56.7014
0
VERTEX
8
CUT
10
199.8482
20
56.7146
0
VERTEX
8
CUT
10
200.0814
20
60.5296
0
VERTEX
8
CUT
10
200.0821
20
60.5459
0
VERTEX
8
CUT
10
200.0857
20
60.6515
0
VERTEX
8
CUT
10
200.0860
20
60.6678
0
VERTEX
8
CUT
10
200.0869
20
60.8005
0
VERTEX
8
CUT
10
200.0868
20
60.8168
0
VERTEX
8
CUT
10
200.0847
20
60.9225
0
VERTEX
8
CUT
10
200.0841
20
60.9387
0
VERTEX
8
CUT
10
199.9870
20
62.9853
0
VERTEX
8
CUT
10
199.9861
20
63.0010
0
VERTEX
8
CUT
10
199.9785
20
63.1034
0
VERTEX
8
CUT
10
199.9771
20
63.1191
0
VERTEX
8
CUT
10
199.9643
20
63.2473
0
VERTEX
8
CUT
10
199.9625
20
63.2630
0
VERTEX
8
CUT
10
199.9495
20
63.3648
0
VERTEX
8
CUT
10
199.9473
20
63.3805
0
VERTEX
8
CUT
10
199.6033
20
65.6156
0
VERTEX
8
CUT
10
199.6008
20
65.6305
0
VERTEX
8
CUT
10
199.5835
20
65.7268
0
VERTEX
8
CUT
10
199.5807
20
65.7416
0
VERTEX
8
CUT
10
199.5559
20
65.8620
0
VERTEX
8
CUT
10
199.5527
20
65.8767
0
VERTEX
8
CUT
10
199.5305
20
65.9721
0
VERTEX
8
CUT
10
199.5269
20
65.9867
0
VERTEX
8
CUT
10
197.4297
20
74.0936
0
VERTEX
8
CUT
10
197.4283
20
74.0992
0
VERTEX
8
CUT
10
197.4250
20
74.1122
0
VERTEX
8
CUT
10
197.4236
20
74.1178
0
VERTEX
8
CUT
10
197.4204
20
74.1309
0
VERTEX
8
CUT
10
197.4187
20
74.1378
0
VERTEX
8
CUT
10
197.4149
20
74.1541
0
VERTEX
8
CUT
10
197.4132
20
74.1611
0
VERTEX
8
CUT
10
197.4104
20
74.1733
0
VERTEX
8
CUT
10
197.4089
20
74.1802
0
VERTEX
8
CUT
10
197.4054
20
74.1962
0
VERTEX
8
CUT
10
197.4039
20
74.2030
0
VERTEX
8
CUT
10
197.4031
20
74.2069
0
VERTEX
8
CUT
10
197.4014
20
74.2151
0
VERTEX
8
CUT
10
197.3975
20
74.2343
0
VERTEX
8
CUT
10
197.3959
20
74.2425
0
VERTEX
8
CUT
10
196.9612
20
76.4994
0
VERTEX
8
CUT
10
196.9590
20
76.5115
0
VERTEX
8
CUT
10
196.9540
20
76.5397
0
VERTEX
8
CUT
10
196.9519
20
76.5519
0
VERTEX
8
CUT
10
196.9495
20
76.5665
0
VERTEX
8
CUT
10
196.9476
20
76.5785
0
VERTEX
8
CUT
10
196.9433
20
76.6067
0
VERTEX
8
CUT
10
196.9416
20
76.6187
0
VERTEX
8
CUT
10
196.9387
20
76.6402
0
VERTEX
8
CUT
10
196.9371
20
76.6523
0
VERTEX
8
CUT
10
196.9336
20
76.6807
0
VERTEX
8
CUT
10
196.9322
20
76.6928
0
VERTEX
8
CUT
10
196.9306
20
76.7076
0
VERTEX
8
CUT
10
196.9294
20
76.7198
0
VERTEX
8
CUT
10
196.9266
20
76.7482
0
VERTEX
8
CUT
10
196.9256
20
76.7604
0
VERTEX
8
CUT
10
196.5982
20
80.7686
0
VERTEX
8
CUT
10
196.5970
20
80.7851
0
VERTEX
8
CUT
10
196.5946
20
80.8236
0
VERTEX
8
CUT
10
196.5937
20
80.8401
0
VERTEX
8
CUT
10
196.5928
20
80.8603
0
VERTEX
8
CUT
10
196.5922
20
80.8768
0
VERTEX
8
CUT
10
196.5912
20
80.9153
0
VERTEX
8
CUT
10
196.5909
20
80.9319
0
VERTEX
8
CUT
10
196.5907
20
80.9611
0
VERTEX
8
CUT
10
196.5907
20
80.9776
0
VERTEX
8
CUT
10
196.5911
20
81.0161
0
VERTEX
8
CUT
10
196.5914
20
81.0327
0
VERTEX
8
CUT
10
196.5920
20
81.0528
0
VERTEX
8
CUT
10
196.5926
20
81.0693
0
VERTEX
8
CUT
10
196.5944
20
81.1079
0
VERTEX
8
CUT
10
196.5954
20
81.1244
0
VERTEX
8
CUT
10
196.8050
20
84.3223
0
VERTEX
8
CUT
10
196.8059
20
84.3349
0
VERTEX
8
CUT
10
196.8076
20
84.3559
0
VERTEX
8
CUT
10
196.8130
20
84.4062
0
VERTEX
8
CUT
10
196.8246
20
84.4910
0
VERTEX
8
CUT
10
196.8305
20
84.5285
0
VERTEX
8
CUT
10
196.8312
20
84.5324
0
VERTEX
8
CUT
10
196.8387
20
84.5696
0
VERTEX
8
CUT
10
196.8574
20
84.6532
0
VERTEX
8
CUT
10
196.8698
20
84.7022
0
VERTEX
8
CUT
10
196.8756
20
84.7224
0
VERTEX
8
CUT
10
196.8791
20
84.7346
0
VERTEX
8
CUT
10
197.7357
20
87.6016
0
VERTEX
8
CUT
10
197.7378
20
87.6084
0
VERTEX
8
CUT
10
197.7427
20
87.6242
0
VERTEX
8
CUT
10
197.7448
20
87.6310
0
VERTEX
8
CUT
10
197.7457
20
87.6339
0
VERTEX
8
CUT
10
197.7545
20
87.6603
0
VERTEX
8
CUT
10
197.7760
20
87.7216
0
VERTEX
8
CUT
10
197.7838
20
87.7428
0
VERTEX
8
CUT
10
197.7971
20
87.7757
0
VERTEX
8
CUT
10
197.8291
20
87.8499
0
VERTEX
8
CUT
10
197.8435
20
87.8817
0
VERTEX
8
CUT
10
199.2507
20
90.8283
0
VERTEX
8
CUT
10
199.2569
20
90.8410
0
VERTEX
8
CUT
10
199.2717
20
90.8707
0
VERTEX
8
CUT
10
199.2781
20
90.8834
0
VERTEX
8
CUT
10
199.2859
20
90.8985
0
VERTEX
8
CUT
10
199.2925
20
90.9110
0
VERTEX
8
CUT
10
199.3081
20
90.9400
0
VERTEX
8
CUT
10
199.3148
20
90.9524
0
VERTEX
8
CUT
10
199.3270
20
90.9742
0
VERTEX
8
CUT
10
199.3340
20
90.9865
0
VERTEX
8
CUT
10
199.3505
20
91.0151
0
VERTEX
8
CUT
10
199.3577
20
91.0272
0
VERTEX
8
CUT
10
199.3665
20
91.0420
0
VERTEX
8
CUT
10
199.3739
20
91.0541
0
VERTEX
8
CUT
10
199.3913
20
91.0821
0
VERTEX
8
CUT
10
199.3988
20
91.0940
0
VERTEX
8
CUT
10
200.8910
20
93.4157
0
VERTEX
8
CUT
10
200.8989
20
93.4283
0
VERTEX
8
CUT
10
200.9492
20
93.5111
0
VERTEX
8
CUT
10
200.9568
20
93.5240
0
VERTEX
8
CUT
10
200.9859
20
93.5745
0
VERTEX
8
CUT
10
201.0001
20
93.6007
0
VERTEX
8
CUT
10
201.0869
20
93.7709
0
VERTEX
8
CUT
10
201.1114
20
93.8253
0
VERTEX
8
CUT
10
201.1799
20
94.0009
0
VERTEX
8
CUT
10
201.1989
20
94.0575
0
VERTEX
8
CUT
10
201.2497
20
94.2390
0
VERTEX
8
CUT
10
201.2629
20
94.2972
0
VERTEX
8
CUT
10
201.2954
20
94.4828
0
VERTEX
8
CUT
10
201.3028
20
94.5420
0
VERTEX
8
CUT
10
201.3168
20
94.7300
0
VERTEX
8
CUT
10
201.3182
20
94.7896
0
VERTEX
8
CUT
10
201.3134
20
94.9781
0
VERTEX
8
CUT
10
201.3090
20
95.0375
0
VERTEX
8
CUT
10
201.2855
20
95.2246
0
VERTEX
8
CUT
10
201.2752
20
95.2833
0
VERTEX
8
CUT
10
201.2332
20
95.4671
0
VERTEX
8
CUT
10
201.2171
20
95.5245
0
VERTEX
8
CUT
10
201.1572
20
95.7033
0
VERTEX
8
CUT
10
201.1354
20
95.7588
0
VERTEX
8
CUT
10
201.0580
20
95.9307
0
VERTEX
8
CUT
10
201.0309
20
95.9838
0
VERTEX
8
CUT
10
200.9368
20
96.1471
0
VERTEX
8
CUT
10
200.9045
20
96.1973
0
VERTEX
8
CUT
10
200.7947
20
96.3505
0
VERTEX
8
CUT
10
200.7576
20
96.3972
0
VERTEX
8
CUT
10
200.6331
20
96.5387
0
VERTEX
8
CUT
10
200.5916
20
96.5815
0
VERTEX
8
CUT
10
200.4536
20
96.7100
0
VERTEX
8
CUT
10
200.4080
20
96.7484
0
VERTEX
8
CUT
10
200.2580
20
96.8626
0
VERTEX
8
CUT
10
200.2089
20
96.8963
0
VERTEX
8
CUT
10
200.0483
20
96.9951
0
VERTEX
8
CUT
10
199.9960
20
97.0237
0
VERTEX
8
CUT
10
199.8264
20
97.1060
0
VERTEX
8
CUT
10
199.7715
20
97.1294
0
VERTEX
8
CUT
10
199.5946
20
97.1944
0
VERTEX
8
CUT
10
199.5376
20
97.2122
0
VERTEX
8
CUT
10
199.3551
20
97.2594
0
VERTEX
8
CUT
10
199.2967
20
97.2714
0
VERTEX
8
CUT
10
199.1104
20
97.3002
0
VERTEX
8
CUT
10
199.0511
20
97.3064
0
VERTEX
8
CUT
10
198.8629
20
97.3166
0
VERTEX
8
CUT
10
198.8032
20
97.3168
0
VERTEX
8
CUT
10
198.6149
20
97.3083
0
VERTEX
8
CUT
10
198.5556
20
97.3026
0
VERTEX
8
CUT
10
198.3664
20
97.2751
0
VERTEX
8
CUT
10
198.3370
20
97.2700
0
VERTEX
8
CUT
10
198.2799
20
97.2588
0
VERTEX
8
CUT
10
198.2653
20
97.2557
0
VERTEX
8
CUT
10
198.1707
20
97.2346
0
VERTEX
8
CUT
10
198.1562
20
97.2312
0
VERTEX
8
CUT
10
191.5577
20
95.5870
0
VERTEX
8
CUT
10
191.5401
20
95.5823
0
VERTEX
8
CUT
10
191.4262
20
95.5502
0
VERTEX
8
CUT
10
191.4088
20
95.5450
0
VERTEX
8
CUT
10
191.2672
20
95.5005
0
VERTEX
8
CUT
10
191.2499
20
95.4947
0
VERTEX
8
CUT
10
191.1382
20
95.4558
0
VERTEX
8
CUT
10
191.1211
20
95.4496
0
VERTEX
8
CUT
10
187.5614
20
94.0870
0
VERTEX
8
CUT
10
187.5481
20
94.0817
0
VERTEX
8
CUT
10
187.4619
20
94.0463
0
VERTEX
8
CUT
10
187.4488
20
94.0407
0
VERTEX
8
CUT
10
187.3975
20
94.0183
0
VERTEX
8
CUT
10
187.3716
20
94.0061
0
VERTEX
8
CUT
10
187.2049
20
93.9233
0
VERTEX
8
CUT
10
187.1796
20
93.9100
0
VERTEX
8
CUT
10
187.1307
20
93.8827
0
VERTEX
8
CUT
10
187.1183
20
93.8756
0
VERTEX
8
CUT
10
187.0381
20
93.8283
0
VERTEX
8
CUT
10
187.0259
20
93.8209
0
VERTEX
8
CUT
10
185.0636
20
92.6000
0
VERTEX
8
CUT
10
185.0526
20
92.5930
0
VERTEX
8
CUT
10
184.9815
20
92.5466
0
VERTEX
8
CUT
10
184.9706
20
92.5394
0
VERTEX
8
CUT
10
184.9285
20
92.5105
0
VERTEX
8
CUT
10
184.9073
20
92.4953
0
VERTEX
8
CUT
10
184.7716
20
92.3935
0
VERTEX
8
CUT
10
184.7510
20
92.3774
0
VERTEX
8
CUT
10
184.7116
20
92.3450
0
VERTEX
8
CUT
10
184.7016
20
92.3366
0
VERTEX
8
CUT
10
184.6371
20
92.2813
0
VERTEX
8
CUT
10
184.6273
20
92.2727
0
VERTEX
8
CUT
10
183.1039
20
90.9075
0
VERTEX
8
CUT
10
183.0922
20
90.8967
0
VERTEX
8
CUT
10
183.0168
20
90.8254
0
VERTEX
8
CUT
10
183.0053
20
90.8143
0
VERTEX
8
CUT
10
182.9612
20
90.7703
0
VERTEX
8
CUT
10
182.9392
20
90.7472
0
VERTEX
8
CUT
10
182.8004
20
90.5932
0
VERTEX
8
CUT
10
182.7797
20
90.5689
0
VERTEX
8
CUT
10
182.7405
20
90.5205
0
VERTEX
8
CUT
10
182.7306
20
90.5080
0
VERTEX
8
CUT
10
182.6675
20
90.4256
0
VERTEX
8
CUT
10
182.6580
20
90.4128
0
VERTEX
8
CUT
10
181.5437
20
88.8758
0
VERTEX
8
CUT
10
181.5352
20
88.8638
0
VERTEX
8
CUT
10
181.4812
20
88.7852
0
VERTEX
8
CUT
10
181.4730
20
88.7730
0
VERTEX
8
CUT
10
181.4417
20
88.7250
0
VERTEX
8
CUT
10
181.4262
20
88.7001
0
VERTEX
8
CUT
10
181.3299
20
88.5355
0
VERTEX
8
CUT
10
181.3157
20
88.5098
0
VERTEX
8
CUT
10
181.2892
20
88.4590
0
VERTEX
8
CUT
10
181.2826
20
88.4459
0
VERTEX
8
CUT
10
181.2406
20
88.3602
0
VERTEX
8
CUT
10
181.2343
20
88.3470
0
VERTEX
8
CUT
10
180.9772
20
87.7886
0
VERTEX
8
CUT
10
180.9713
20
87.7755
0
VERTEX
8
CUT
10
180.9344
20
87.6901
0
VERTEX
8
CUT
10
180.9289
20
87.6768
0
VERTEX
8
CUT
10
180.9079
20
87.6249
0
VERTEX
8
CUT
10
180.8979
20
87.5981
0
VERTEX
8
CUT
10
180.8373
20
87.4248
0
VERTEX
8
CUT
10
180.8210
20
87.3698
0
VERTEX
8
CUT
10
180.7773
20
87.1915
0
VERTEX
8
CUT
10
180.7711
20
87.1635
0
VERTEX
8
CUT
10
180.7604
20
87.1086
0
VERTEX
8
CUT
10
180.7578
20
87.0945
0
VERTEX
8
CUT
10
180.7422
20
87.0027
0
VERTEX
8
CUT
10
180.7399
20
86.9885
0
VERTEX
8
CUT
10
180.6364
20
86.2794
0
VERTEX
8
CUT
10
180.6336
20
86.2577
0
VERTEX
8
CUT
10
180.6182
20
86.1164
0
VERTEX
8
CUT
10
180.6163
20
86.0946
0
VERTEX
8
CUT
10
180.6034
20
85.9169
0
VERTEX
8
CUT
10
180.6022
20
85.8950
0
VERTEX
8
CUT
10
180.5972
20
85.7530
0
VERTEX
8
CUT
10
180.5968
20
85.7312
0
VERTEX
8
CUT
10
180.5988
20
83.3327
0
VERTEX
8
CUT
10
180.5989
20
83.3187
0
VERTEX
8
CUT
10
180.6011
20
83.2281
0
VERTEX
8
CUT
10
180.6016
20
83.2141
0
VERTEX
8
CUT
10
180.6042
20
83.1597
0
VERTEX
8
CUT
10
180.6062
20
83.1318
0
VERTEX
8
CUT
10
180.6232
20
82.9513
0
VERTEX
8
CUT
10
180.6264
20
82.9236
0
VERTEX
8
CUT
10
180.6340
20
82.8696
0
VERTEX
8
CUT
10
180.6362
20
82.8558
0
VERTEX
8
CUT
10
180.6509
20
82.7664
0
VERTEX
8
CUT
10
180.6534
20
82.7526
0
VERTEX
8
CUT
10
180.9429
20
81.2217
0
VERTEX
8
CUT
10
180.9465
20
81.2041
0
VERTEX
8
CUT
10
180.9717
20
81.0898
0
VERTEX
8
CUT
10
180.9758
20
81.0723
0
VERTEX
8
CUT
10
180.9930
20
81.0042
0
VERTEX
8
CUT
10
181.0028
20
80.9696
0
VERTEX
8
CUT
10
181.0734
20
80.7467
0
VERTEX
8
CUT
10
181.0853
20
80.7127
0
VERTEX
8
CUT
10
181.1105
20
80.6472
0
VERTEX
8
CUT
10
181.1172
20
80.6305
0
VERTEX
8
CUT
10
181.1625
20
80.5226
0
VERTEX
8
CUT
10
181.1697
20
80.5061
0
VERTEX
8
CUT
10
181.3556
20
80.0975
0
VERTEX
8
CUT
10
181.3626
20
80.0825
0
VERTEX
8
CUT
10
181.4098
20
79.9860
0
VERTEX
8
CUT
10
181.4173
20
79.9712
0
VERTEX
8
CUT
10
181.4472
20
79.9140
0
VERTEX
8
CUT
10
181.4633
20
79.8851
0
VERTEX
8
CUT
10
181.5733
20
79.7005
0
VERTEX
8
CUT
10
181.5910
20
79.6726
0
VERTEX
8
CUT
10
181.6271
20
79.6190
0
VERTEX
8
CUT
10
181.6365
20
79.6055
0
VERTEX
8
CUT
10
181.6989
20
79.5180
0
VERTEX
8
CUT
10
181.7087
20
79.5046
0
VERTEX
8
CUT
10
183.1449
20
77.6057
0
VERTEX
8
CUT
10
183.1566
20
77.5908
0
VERTEX
8
CUT
10
183.2337
20
77.4952
0
VERTEX
8
CUT
10
183.2458
20
77.4806
0
VERTEX
8
CUT
10
183.3464
20
77.3638
0
VERTEX
8
CUT
10
183.3590
20
77.3496
0
VERTEX
8
CUT
10
183.4421
20
77.2590
0
VERTEX
8
CUT
10
183.4551
20
77.2453
0
VERTEX
8
CUT
10
188.1177
20
72.4715
0
VERTEX
8
CUT
10
188.1209
20
72.4682
0
VERTEX
8
CUT
10
188.1283
20
72.4605
0
VERTEX
8
CUT
10
188.1315
20
72.4572
0
VERTEX
8
CUT
10
188.1389
20
72.4494
0
VERTEX
8
CUT
10
188.1429
20
72.4453
0
VERTEX
8
CUT
10
188.1520
20
72.4356
0
VERTEX
8
CUT
10
188.1560
20
72.4314
0
VERTEX
8
CUT
10
188.1628
20
72.4241
0
VERTEX
8
CUT
10
188.1666
20
72.4200
0
VERTEX
8
CUT
10
188.1754
20
72.4104
0
VERTEX
8
CUT
10
188.1787
20
72.4068
0
VERTEX
8
CUT
10
188.1861
20
72.3987
0
VERTEX
8
CUT
10
188.1963
20
72.3873
0
VERTEX
8
CUT
10
188.2007
20
72.3823
0
VERTEX
8
CUT
10
190.4797
20
69.8016
0
VERTEX
8
CUT
10
190.4903
20
69.7893
0
VERTEX
8
CUT
10
190.5148
20
69.7606
0
VERTEX
8
CUT
10
190.5252
20
69.7482
0
VERTEX
8
CUT
10
190.5377
20
69.7330
0
VERTEX
8
CUT
10
190.5478
20
69.7204
0
VERTEX
8
CUT
10
190.5712
20
69.6909
0
VERTEX
8
CUT
10
190.5811
20
69.6781
0
VERTEX
8
CUT
10
190.5984
20
69.6554
0
VERTEX
8
CUT
10
190.6081
20
69.6425
0
VERTEX
8
CUT
10
190.6304
20
69.6121
0
VERTEX
8
CUT
10
190.6398
20
69.5990
0
VERTEX
8
CUT
10
190.6512
20
69.5830
0
VERTEX
8
CUT
10
190.6604
20
69.5697
0
VERTEX
8
CUT
10
190.6816
20
69.5385
0
VERTEX
8
CUT
10
190.6906
20
69.5251
0
VERTEX
8
CUT
10
191.9649
20
67.5791
0
VERTEX
8
CUT
10
191.9702
20
67.5709
0
VERTEX
8
CUT
10
191.9789
20
67.5573
0
VERTEX
8
CUT
10
191.9991
20
67.5240
0
VERTEX
8
CUT
10
192.0322
20
67.4670
0
VERTEX
8
CUT
10
192.0465
20
67.4415
0
VERTEX
8
CUT
10
192.0479
20
67.4388
0
VERTEX
8
CUT
10
192.0613
20
67.4128
0
VERTEX
8
CUT
10
192.0907
20
67.3538
0
VERTEX
8
CUT
10
192.1072
20
67.3186
0
VERTEX
8
CUT
10
192.1138
20
67.3038
0
VERTEX
8
CUT
10
192.1177
20
67.2949
0
VERTEX
8
CUT
10
192.4579
20
66.5050
0
VERTEX
8
CUT
10
192.4607
20
66.4984
0
VERTEX
8
CUT
10
192.4673
20
66.4829
0
VERTEX
8
CUT
10
192.4700
20
66.4762
0
VERTEX
8
CUT
10
192.4712
20
66.4733
0
VERTEX
8
CUT
10
192.4816
20
66.4470
0
VERTEX
8
CUT
10
192.5048
20
66.3851
0
VERTEX
8
CUT
10
192.5126
20
66.3634
0
VERTEX
8
CUT
10
192.5236
20
66.3291
0
VERTEX
8
CUT
10
192.5469
20
66.2505
0
VERTEX
8
CUT
10
192.5563
20
66.2164
0
VERTEX
8
CUT
10
192.7559
20
65.4318
0
VERTEX
8
CUT
10
192.7583
20
65.4218
0
VERTEX
8
CUT
10
192.7623
20
65.4053
0
VERTEX
8
CUT
10
192.7710
20
65.3657
0
VERTEX
8
CUT
10
192.7841
20
65.2985
0
VERTEX
8
CUT
10
192.7894
20
65.2686
0
VERTEX
8
CUT
10
192.7899
20
65.2654
0
VERTEX
8
CUT
10
192.7942
20
65.2354
0
VERTEX
8
CUT
10
192.8028
20
65.1674
0
VERTEX
8
CUT
10
192.8069
20
65.1271
0
VERTEX
8
CUT
10
192.8083
20
65.1104
0
VERTEX
8
CUT
10
192.8090
20
65.1003
0
VERTEX
8
CUT
10
192.9504
20
63.0511
0
VERTEX
8
CUT
10
192.9512
20
63.0388
0
VERTEX
8
CUT
10
192.9523
20
63.0183
0
VERTEX
8
CUT
10
192.9537
20
62.9690
0
VERTEX
8
CUT
10
192.9537
20
62.9045
0
VERTEX
8
CUT
10
192.9496
20
62.8182
0
VERTEX
8
CUT
10
192.9413
20
62.7321
0
VERTEX
8
CUT
10
192.9290
20
62.6466
0
VERTEX
8
CUT
10
192.9167
20
62.5833
0
VERTEX
8
CUT
10
192.9059
20
62.5351
0
VERTEX
8
CUT
10
192.9009
20
62.5152
0
VERTEX
8
CUT
10
192.8978
20
62.5033
0
VERTEX
8
CUT
10
192.6594
20
61.6077
0
VERTEX
8
CUT
10
192.6562
20
61.5960
0
VERTEX
8
CUT
10
192.6508
20
61.5767
0
VERTEX
8
CUT
10
192.6365
20
61.5304
0
VERTEX
8
CUT
10
192.6161
20
61.4705
0
VERTEX
8
CUT
10
192.5851
20
61.3916
0
VERTEX
8
CUT
10
192.5504
20
61.3142
0
VERTEX
8
CUT
10
192.5121
20
61.2386
0
VERTEX
8
CUT
10
192.4809
20
61.1835
0
VERTEX
8
CUT
10
192.4559
20
61.1421
0
VERTEX
8
CUT
10
192.4451
20
61.1251
0
VERTEX
8
CUT
10
192.4385
20
61.1150
0
VERTEX
8
CUT
10
191.6399
20
59.9039
0
VERTEX
8
CUT
10
191.6337
20
59.8946
0
VERTEX
8
CUT
10
191.6301
20
59.8894
0
VERTEX
8
CUT
10
191.6004
20
59.8481
0
VERTEX
8
CUT
10
191.5578
20
59.7923
0
VERTEX
8
CUT
10
191.5057
20
59.7300
0
VERTEX
8
CUT
10
191.4697
20
59.6907
0
VERTEX
8
CUT
10
191.4126
20
59.6339
0
VERTEX
8
CUT
10
191.3730
20
59.5977
0
VERTEX
8
CUT
10
191.3111
20
59.5462
0
VERTEX
8
CUT
10
191.2684
20
59.5138
0
VERTEX
8
CUT
10
191.2021
20
59.4680
0
VERTEX
8
CUT
10
191.1441
20
59.4316
0
VERTEX
8
CUT
10
191.1003
20
59.4058
0
VERTEX
8
CUT
10
191.0932
20
59.4019
0
VERTEX
8
CUT
10
191.0828
20
59.3963
0
VERTEX
8
CUT
10
190.2431
20
58.9479
0
VERTEX
8
CUT
10
190.2341
20
58.9431
0
VERTEX
8
CUT
10
190.2261
20
58.9390
0
VERTEX
8
CUT
10
190.1740
20
58.9140
0
VERTEX
8
CUT
10
190.0972
20
58.8802
0
VERTEX
8
CUT
10
190.0083
20
58.8465
0
VERTEX
8
CUT
10
189.9480
20
58.8272
0
VERTEX
8
CUT
10
189.8560
20
58.8031
0
VERTEX
8
CUT
10
189.7738
20
58.7862
0
VERTEX
8
CUT
10
189.7168
20
58.7763
0
VERTEX
8
CUT
10
189.7080
20
58.7751
0
VERTEX
8
CUT
10
189.6978
20
58.7737
0
VERTEX
8
CUT
10
187.8759
20
58.5394
0
VERTEX
8
CUT
10
187.8628
20
58.5378
0
VERTEX
8
CUT
10
187.8412
20
58.5353
0
VERTEX
8
CUT
10
187.7887
20
58.5309
0
VERTEX
8
CUT
10
187.6998
20
58.5260
0
VERTEX
8
CUT
10
187.6604
20
58.5247
0
VERTEX
8
CUT
10
187.6563
20
58.5247
0
VERTEX
8
CUT
10
187.6168
20
58.5251
0
VERTEX
8
CUT
10
187.5278
20
58.5280
0
VERTEX
8
CUT
10
187.4753
20
58.5313
0
VERTEX
8
CUT
10
187.4536
20
58.5333
0
VERTEX
8
CUT
10
187.4405
20
58.5346
0
VERTEX
8
CUT
10
186.6656
20
58.6170
0
VERTEX
8
CUT
10
186.6525
20
58.6185
0
VERTEX
8
CUT
10
186.6308
20
58.6211
0
VERTEX
8
CUT
10
186.5786
20
58.6290
0
VERTEX
8
CUT
10
186.4907
20
58.6449
0
VERTEX
8
CUT
10
186.4519
20
58.6528
0
VERTEX
8
CUT
10
186.4479
20
58.6537
0
VERTEX
8
CUT
10
186.4095
20
58.6634
0
VERTEX
8
CUT
10
186.3233
20
58.6870
0
VERTEX
8
CUT
10
186.2728
20
58.7024
0
VERTEX
8
CUT
10
186.2521
20
58.7094
0
VERTEX
8
CUT
10
186.2396
20
58.7137
0
VERTEX
8
CUT
10
184.3064
20
59.3988
0
VERTEX
8
CUT
10
184.2951
20
59.4028
0
VERTEX
8
CUT
10
184.2765
20
59.4097
0
VERTEX
8
CUT
10
184.2322
20
59.4274
0
VERTEX
8
CUT
10
184.1580
20
59.4594
0
VERTEX
8
CUT
10
184.1254
20
59.4742
0
VERTEX
8
CUT
10
184.1220
20
59.4758
0
VERTEX
8
CUT
10
184.0901
20
59.4919
0
VERTEX
8
CUT
10
184.0186
20
59.5297
0
VERTEX
8
CUT
10
183.9770
20
59.5531
0
VERTEX
8
CUT
10
183.9600
20
59.5633
0
VERTEX
8
CUT
10
183.9498
20
59.5695
0
VERTEX
8
CUT
10
181.5812
20
61.0307
0
VERTEX
8
CUT
10
181.5683
20
61.0388
0
VERTEX
8
CUT
10
181.5383
20
61.0579
0
VERTEX
8
CUT
10
181.5256
20
61.0663
0
VERTEX
8
CUT
10
181.5101
20
61.0765
0
VERTEX
8
CUT
10
181.4975
20
61.0851
0
VERTEX
8
CUT
10
181.4682
20
61.1053
0
VERTEX
8
CUT
10
181.4558
20
61.1140
0
VERTEX
8
CUT
10
181.4338
20
61.1297
0
VERTEX
8
CUT
10
181.4215
20
61.1386
0
VERTEX
8
CUT
10
181.3929
20
61.1598
0
VERTEX
8
CUT
10
181.3808
20
61.1690
0
VERTEX
8
CUT
10
181.3660
20
61.1803
0
VERTEX
8
CUT
10
181.3540
20
61.1896
0
VERTEX
8
CUT
10
181.3262
20
61.2118
0
VERTEX
8
CUT
10
181.3143
20
61.2213
0
VERTEX
8
CUT
10
178.0117
20
63.9369
0
VERTEX
8
CUT
10
178.0001
20
63.9462
0
VERTEX
8
CUT
10
177.9243
20
64.0055
0
VERTEX
8
CUT
10
177.9125
20
64.0144
0
VERTEX
8
CUT
10
177.8661
20
64.0489
0
VERTEX
8
CUT
10
177.8419
20
64.0660
0
VERTEX
8
CUT
10
177.6842
20
64.1714
0
VERTEX
8
CUT
10
177.6334
20
64.2019
0
VERTEX
8
CUT
10
177.4683
20
64.2901
0
VERTEX
8
CUT
10
177.4148
20
64.3154
0
VERTEX
8
CUT
10
177.2419
20
64.3869
0
VERTEX
8
CUT
10
177.1861
20
64.4068
0
VERTEX
8
CUT
10
177.0069
20
64.4609
0
VERTEX
8
CUT
10
176.9495
20
64.4752
0
VERTEX
8
CUT
10
176.7658
20
64.5114
0
VERTEX
8
CUT
10
176.7073
20
64.5200
0
VERTEX
8
CUT
10
176.5210
20
64.5379
0
VERTEX
8
CUT
10
176.4618
20
64.5406
0
VERTEX
8
CUT
10
176.2747
20
64.5401
0
VERTEX
8
CUT
10
176.2155
20
64.5370
0
VERTEX
8
CUT
10
176.0293
20
64.5181
0
VERTEX
8
CUT
10
175.9708
20
64.5092
0
VERTEX
8
CUT
10
175.7874
20
64.4719
0
VERTEX
8
CUT
10
175.7300
20
64.4573
0
VERTEX
8
CUT
10
175.5512
20
64.4022
0
VERTEX
8
CUT
10
175.4955
20
64.3820
0
VERTEX
8
CUT
10
175.3230
20
64.3095
0
VERTEX
8
CUT
10
175.2696
20
64.2839
0
VERTEX
8
CUT
10
175.1050
20
64.1948
0
VERTEX
8
CUT
10
175.0544
20
64.1640
0
VERTEX
8
CUT
10
174.8994
20
64.0591
0
VERTEX
8
CUT
10
174.8521
20
64.0236
0
VERTEX
8
CUT
10
174.7082
20
63.9039
0
VERTEX
8
CUT
10
174.6646
20
63.8638
0
VERTEX
8
CUT
10
174.5332
20
63.7305
0
VERTEX
8
CUT
10
174.4938
20
63.6864
0
VERTEX
8
CUT
10
174.3761
20
63.5408
0
VERTEX
8
CUT
10
174.3412
20
63.4930
0
VERTEX
8
CUT
10
174.2385
20
63.3365
0
VERTEX
8
CUT
10
174.2085
20
63.2855
0
VERTEX
8
CUT
10
174.1218
20
63.1196
0
VERTEX
8
CUT
10
174.0969
20
63.0659
0
VERTEX
8
CUT
10
174.0269
20
62.8923
0
VERTEX
8
CUT
10
174.0075
20
62.8364
0
VERTEX
8
CUT
10
173.9549
20
62.6568
0
VERTEX
8
CUT
10
173.9411
20
62.5992
0
VERTEX
8
CUT
10
173.9065
20
62.4153
0
VERTEX
8
CUT
10
173.8984
20
62.3566
0
SEQEND
0
POLYLINE
8
CUT
66
1
70
1
10
0.0
20
0.0
30
0.0
0
VERTEX
8
CUT
10
121.6086
20
117.6634
0
VERTEX
8
CUT
10
121.6060
20
117.6042
0
VERTEX
8
CUT
10
121.6068
20
117.4167
0
VERTEX
8
CUT
10
121.6100
20
117.3575
0
VERTEX
8
CUT
10
121.6293
20
117.1711
0
VERTEX
8
CUT
10
121.6383
20
117.1124
0
VERTEX
8
CUT
10
121.6760
20
116.9288
0
VERTEX
8
CUT
10
121.6907
20
116.8714
0
VERTEX
8
CUT
10
121.7463
20
116.6923
0
VERTEX
8
CUT
10
121.7667
20
116.6366
0
VERTEX
8
CUT
10
121.8396
20
116.4640
0
VERTEX
8
CUT
10
121.8654
20
116.4106
0
VERTEX
8
CUT
10
121.9551
20
116.2459
0
VERTEX
8
CUT
10
121.9860
20
116.1953
0
VERTEX
8
CUT
10
122.0915
20
116.0403
0
VERTEX
8
CUT
10
122.1272
20
115.9930
0
VERTEX
8
CUT
10
122.2475
20
115.8492
0
VERTEX
8
CUT
10
122.2877
20
115.8057
0
VERTEX
8
CUT
10
122.4216
20
115.6744
0
VERTEX
8
CUT
10
122.4659
20
115.6351
0
VERTEX
8
CUT
10
122.6141
20
115.5161
0
VERTEX
8
CUT
10
122.6377
20
115.4981
0
VERTEX
8
CUT
10
122.6846
20
115.4641
0
VERTEX
8
CUT
10
122.6967
20
115.4556
0
VERTEX
8
CUT
10
122.7761
20
115.4009
0
VERTEX
8
CUT
10
122.7884
20
115.3927
0
VERTEX
8
CUT
10
123.8322
20
114.7123
0
VERTEX
8
CUT
10
123.8506
20
114.7008
0
VERTEX
8
CUT
10
123.9711
20
114.6283
0
VERTEX
8
CUT
10
123.9898
20
114.6175
0
VERTEX
8
CUT
10
124.1441
20
114.5321
0
VERTEX
8
CUT
10
124.1632
20
114.5219
0
VERTEX
8
CUT
10
124.2886
20
114.4583
0
VERTEX
8
CUT
10
124.3081
20
114.4489
0
VERTEX
8
CUT
10
127.2845
20
113.0716
0
VERTEX
8
CUT
10
127.3029
20
113.0634
0
VERTEX
8
CUT
10
127.4234
20
113.0125
0
VERTEX
8
CUT
10
127.4420
20
113.0050
0
VERTEX
8
CUT
10
127.5952
20
112.9462
0
VERTEX
8
CUT
10
127.6141
20
112.9394
0
VERTEX
8
CUT
10
127.7376
20
112.8966
0
VERTEX
8
CUT
10
127.7568
20
112.8904
0
VERTEX
8
CUT
10
133.1857
20
111.2155
0
VERTEX
8
CUT
10
133.2009
20
111.2110
0
VERTEX
8
CUT
10
133.3004
20
111.1832
0
VERTEX
8
CUT
10
133.3158
20
111.1791
0
VERTEX
8
CUT
10
133.4416
20
111.1475
0
VERTEX
8
CUT
10
133.4571
20
111.1438
0
VERTEX
8
CUT
10
133.5579
20
111.1213
0
VERTEX
8
CUT
10
133.5735
20
111.1180
0
VERTEX
8
CUT
10
133.7096
20
111.0914
0
VERTEX
8
CUT
10
133.7242
20
111.0887
0
VERTEX
8
CUT
10
133.8190
20
111.0726
0
VERTEX
8
CUT
10
133.8336
20
111.0703
0
VERTEX
8
CUT
10
133.8909
20
111.0620
0
VERTEX
8
CUT
10
133.9203
20
111.0584
0
VERTEX
8
CUT
10
134.1091
20
111.0405
0
VERTEX
8
CUT
10
134.1683
20
111.0379
0
VERTEX
8
CUT
10
134.3554
20
111.0386
0
VERTEX
8
CUT
10
134.4146
20
111.0418
0
VERTEX
8
CUT
10
134.6007
20
111.0610
0
VERTEX
8
CUT
10
134.6592
20
111.0700
0
VERTEX
8
CUT
10
134.8426
20
111.1075
0
VERTEX
8
CUT
10
134.8999
20
111.1222
0
VERTEX
8
CUT
10
134.9858
20
111.1488
0
VERTEX
8
CUT
10
135.0272
20
111.1605
0
VERTEX
8
CUT
10
135.1035
20
111.1802
0
VERTEX
8
CUT
10
135.1878
20
111.1977
0
VERTEX
8
CUT
10
135.2443
20
111.2066
0
VERTEX
8
CUT
10
135.3298
20
111.2160
0
VERTEX
8
CUT
10
135.3870
20
111.2195
0
VERTEX
8
CUT
10
135.4730
20
111.2206
0
VERTEX
8
CUT
10
135.5302
20
111.2187
0
VERTEX
8
CUT
10
135.6160
20
111.2116
0
VERTEX
8
CUT
10
135.6727
20
111.2042
0
VERTEX
8
CUT
10
135.7574
20
111.1890
0
VERTEX
8
CUT
10
135.8132
20
111.1761
0
VERTEX
8
CUT
10
135.8960
20
111.1529
0
VERTEX
8
CUT
10
135.9504
20
111.1348
0
VERTEX
8
CUT
10
136.0306
20
111.1038
0
VERTEX
8
CUT
10
136.0830
20
111.0806
0
VERTEX
8
CUT
10
136.1599
20
111.0421
0
VERTEX
8
CUT
10
136.2285
20
111.0034
0
VERTEX
8
CUT
10
136.2708
20
110.9783
0
VERTEX
8
CUT
10
136.3107
20
110.9565
0
VERTEX
8
CUT
10
136.4803
20
110.8724
0
VERTEX
8
CUT
10
136.5351
20
110.8485
0
VERTEX
8
CUT
10
136.7119
20
110.7818
0
VERTEX
8
CUT
10
136.7688
20
110.7635
0
VERTEX
8
CUT
10
136.9514
20
110.7147
0
VERTEX
8
CUT
10
137.0099
20
110.7021
0
VERTEX
8
CUT
10
137.1990
20
110.6713
0
VERTEX
8
CUT
10
137.2286
20
110.6672
0
VERTEX
8
CUT
10
137.2866
20
110.6607
0
VERTEX
8
CUT
10
137.3015
20
110.6592
0
VERTEX
8
CUT
10
137.3983
20
110.6508
0
VERTEX
8
CUT
10
137.4132
20
110.6497
0
VERTEX
8
CUT
10
137.4174
20
110.6494
0
VERTEX
8
CUT
10
137.4313
20
110.6487
0
VERTEX
8
CUT
10
137.5219
20
110.6452
0
VERTEX
8
CUT
10
137.5358
20
110.6448
0
VERTEX
8
CUT
10
137.6497
20
110.6431
0
VERTEX
8
CUT
10
137.6636
20
110.6430
0
VERTEX
8
CUT
10
137.7543
20
110.6437
0
VERTEX
8
CUT
10
137.7682
20
110.6440
0
VERTEX
8
CUT
10
142.1020
20
110.7788
0
VERTEX
8
CUT
10
142.1142
20
110.7793
0
VERTEX
8
CUT
10
142.1935
20
110.7834
0
VERTEX
8
CUT
10
142.2057
20
110.7841
0
VERTEX
8
CUT
10
142.3052
20
110.7913
0
VERTEX
8
CUT
10
142.3173
20
110.7923
0
VERTEX
8
CUT
10
142.3964
20
110.7996
0
VERTEX
8
CUT
10
142.4085
20
110.8009
0
VERTEX
8
CUT
10
145.1951
20
111.1158
0
VERTEX
8
CUT
10
145.2073
20
111.1173
0
VERTEX
8
CUT
10
145.2863
20
111.1279
0
VERTEX
8
CUT
10
145.2985
20
111.1296
0
VERTEX
8
CUT
10
145.3975
20
111.1449
0
VERTEX
8
CUT
10
145.4096
20
111.1469
0
VERTEX
8
CUT
10
145.4881
20
111.1607
0
VERTEX
8
CUT
10
145.5002
20
111.1630
0
VERTEX
8
CUT
10
148.5076
20
111.7549
0
VERTEX
8
CUT
10
148.5275
20
111.7592
0
VERTEX
8
CUT
10
148.6563
20
111.7891
0
VERTEX
8
CUT
10
148.6760
20
111.7941
0
VERTEX
8
CUT
10
148.8361
20
111.8370
0
VERTEX
8
CUT
10
148.8557
20
111.8426
0
VERTEX
8
CUT
10
148.9821
20
111.8812
0
VERTEX
8
CUT
10
149.0015
20
111.8874
0
VERTEX
8
CUT
10
154.1194
20
113.6402
0
VERTEX
8
CUT
10
154.1308
20
113.6443
0
VERTEX
8
CUT
10
154.2052
20
113.6714
0
VERTEX
8
CUT
10
154.2166
20
113.6757
0
VERTEX
8
CUT
10
154.2609
20
113.6929
0
VERTEX
8
CUT
10
154.2834
20
113.7022
0
VERTEX
8
CUT
10
154.4284
20
113.7654
0
VERTEX
8
CUT
10
154.4505
20
113.7756
0
VERTEX
8
CUT
10
154.4933
20
113.7964
0
VERTEX
8
CUT
10
154.5042
20
113.8018
0
VERTEX
8
CUT
10
154.5747
20
113.8378
0
VERTEX
8
CUT
10
154.5855
20
113.8434
0
VERTEX
8
CUT
10
156.3036
20
114.7649
0
VERTEX
8
CUT
10
156.3167
20
114.7721
0
VERTEX
8
CUT
10
156.4010
20
114.8200
0
VERTEX
8
CUT
10
156.4138
20
114.8276
0
VERTEX
8
CUT
10
156.4637
20
114.8576
0
VERTEX
8
CUT
10
156.4889
20
114.8736
0
VERTEX
8
CUT
10
156.6475
20
114.9802
0
VERTEX
8
CUT
10
156.6953
20
115.0159
0
VERTEX
8
CUT
10
156.8406
20
115.1361
0
VERTEX
8
CUT
10
156.8846
20
115.1764
0
VERTEX
8
CUT
10
157.0172
20
115.3104
0
VERTEX
8
CUT
10
157.0570
20
115.3548
0
VERTEX
8
CUT
10
157.1757
20
115.5013
0
VERTEX
8
CUT
10
157.2109
20
115.5495
0
VERTEX
8
CUT
10
157.3144
20
115.7070
0
VERTEX
8
CUT
10
157.3446
20
115.7584
0
VERTEX
8
CUT
10
157.4320
20
115.9255
0
VERTEX
8
CUT
10
157.4570
20
115.9797
0
VERTEX
8
CUT
10
157.5274
20
116.1546
0
VERTEX
8
CUT
10
157.5468
20
116.2109
0
VERTEX
8
CUT
10
157.5995
20
116.3920
0
VERTEX
8
CUT
10
157.6133
20
116.4500
0
VERTEX
8
CUT
10
157.6477
20
116.6354
0
VERTEX
8
CUT
10
157.6556
20
116.6945
0
VERTEX
8
CUT
10
157.6715
20
116.8824
0
VERTEX
8
CUT
10
157.6735
20
116.9420
0
VERTEX
8
CUT
10
157.6706
20
117.1305
0
VERTEX
8
CUT
10
157.6668
20
117.1900
0
VERTEX
8
CUT
10
157.6452
20
117.3773
0
VERTEX
8
CUT
10
157.6354
20
117.4361
0
VERTEX
8
CUT
10
157.5953
20
117.6204
0
VERTEX
8
CUT
10
157.5798
20
117.6779
0
VERTEX
8
CUT
10
157.5216
20
117.8573
0
VERTEX
8
CUT
10
157.5004
20
117.9130
0
VERTEX
8
CUT
10
157.4247
20
118.0857
0
VERTEX
8
CUT
10
157.3981
20
118.1391
0
VERTEX
8
CUT
10
157.3056
20
118.3034
0
VERTEX
8
CUT
10
157.2739
20
118.3538
0
VERTEX
8
CUT
10
157.1655
20
118.5082
0
VERTEX
8
CUT
10
157.1289
20
118.5552
0
VERTEX
8
CUT
10
157.0058
20
118.6980
0
VERTEX
8
CUT
10
156.9647
20
118.7412
0
VERTEX
8
CUT
10
156.8280
20
118.8711
0
VERTEX
8
CUT
10
156.7828
20
118.9100
0
VERTEX
8
CUT
10
156.6339
20
119.0256
0
VERTEX
8
CUT
10
156.5850
20
119.0598
0
VERTEX
8
CUT
10
156.4232
20
119.1616
0
VERTEX
8
CUT
10
156.3975
20
119.1768
0
VERTEX
8
CUT
10
156.3468
20
119.2053
0
VERTEX
8
CUT
10
156.3337
20
119.2124
0
VERTEX
8
CUT
10
156.2480
20
119.2578
0
VERTEX
8
CUT
10
156.2347
20
119.2646
0
VERTEX
8
CUT
10
152.2199
20
121.2619
0
VERTEX
8
CUT
10
152.2072
20
121.2683
0
VERTEX
8
CUT
10
152.1776
20
121.2836
0
VERTEX
8
CUT
10
152.1650
20
121.2902
0
VERTEX
8
CUT
10
152.1497
20
121.2985
0
VERTEX
8
CUT
10
152.1372
20
121.3053
0
VERTEX
8
CUT
10
152.1082
20
121.3215
0
VERTEX
8
CUT
10
152.0958
20
121.3286
0
VERTEX
8
CUT
10
152.0739
20
121.3413
0
VERTEX
8
CUT
10
152.0616
20
121.3485
0
VERTEX
8
CUT
10
152.0331
20
121.3656
0
VERTEX
8
CUT
10
152.0209
20
121.3731
0
VERTEX
8
CUT
10
152.0061
20
121.3823
0
VERTEX
8
CUT
10
151.9941
20
121.3899
0
VERTEX
8
CUT
10
151.9661
20
121.4079
0
VERTEX
8
CUT
10
151.9542
20
121.4158
0
VERTEX
8
CUT
10
149.8926
20
122.7912
0
VERTEX
8
CUT
10
149.8836
20
122.7972
0
VERTEX
8
CUT
10
149.8688
20
122.8074
0
VERTEX
8
CUT
10
149.8337
20
122.8327
0
VERTEX
8
CUT
10
149.7752
20
122.8770
0
VERTEX
8
CUT
10
149.7497
20
122.8971
0
VERTEX
8
CUT
10
149.7470
20
122.8993
0
VERTEX
8
CUT
10
149.7222
20
122.9203
0
VERTEX
8
CUT
10
149.6671
20
122.9687
0
VERTEX
8
CUT
10
149.6353
20
122.9981
0
VERTEX
8
CUT
10
149.6223
20
123.0106
0
VERTEX
8
CUT
10
149.6146
20
123.0181
0
VERTEX
8
CUT
10
147.3424
20
125.2699
0
VERTEX
8
CUT
10
147.3318
20
125.2802
0
VERTEX
8
CUT
10
147.2618
20
125.3462
0
VERTEX
8
CUT
10
147.2509
20
125.3562
0
VERTEX
8
CUT
10
147.2079
20
125.3948
0
VERTEX
8
CUT
10
147.1854
20
125.4141
0
VERTEX
8
CUT
10
147.0381
20
125.5337
0
VERTEX
8
CUT
10
146.9904
20
125.5687
0
VERTEX
8
CUT
10
146.8342
20
125.6718
0
VERTEX
8
CUT
10
146.7833
20
125.7019
0
VERTEX
8
CUT
10
146.6177
20
125.7891
0
VERTEX
8
CUT
10
146.5641
20
125.8141
0
VERTEX
8
CUT
10
146.3907
20
125.8845
0
VERTEX
8
CUT
10
146.3349
20
125.9041
0
VERTEX
8
CUT
10
146.1554
20
125.9571
0
VERTEX
8
CUT
10
146.0979
20
125.9711
0
VERTEX
8
CUT
10
145.9141
20
126.0062
0
VERTEX
8
CUT
10
145.8555
20
126.0144
0
VERTEX
8
CUT
10
145.6691
20
126.0313
0
VERTEX
8
CUT
10
145.6100
20
126.0337
0
VERTEX
8
CUT
10
145.4229
20
126.0321
0
VERTEX
8
CUT
10
145.3638
20
126.0286
0
VERTEX
8
CUT
10
145.1777
20
126.0086
0
VERTEX
8
CUT
10
145.1193
20
125.9994
0
VERTEX
8
CUT
10
144.9361
20
125.9611
0
VERTEX
8
CUT
10
144.8788
20
125.9461
0
VERTEX
8
CUT
10
144.7003
20
125.8900
0
VERTEX
8
CUT
10
144.6448
20
125.8695
0
VERTEX
8
CUT
10
144.4727
20
125.7960
0
VERTEX
8
CUT
10
144.4195
20
125.7701
0
VERTEX
8
CUT
10
144.2555
20
125.6801
0
VERTEX
8
CUT
10
144.2051
20
125.6491
0
VERTEX
8
CUT
10
144.0507
20
125.5433
0
VERTEX
8
CUT
10
144.0036
20
125.5075
0
VERTEX
8
CUT
10
143.8604
20
125.3870
0
VERTEX
8
CUT
10
143.8170
20
125.3467
0
VERTEX
8
CUT
10
143.6864
20
125.2127
0
VERTEX
8
CUT
10
143.6473
20
125.1684
0
VERTEX
8
CUT
10
143.5305
20
125.0222
0
VERTEX
8
CUT
10
143.4959
20
124.9741
0
VERTEX
8
CUT
10
143.3941
20
124.8171
0
VERTEX
8
CUT
10
143.3643
20
124.7660
0
VERTEX
8
CUT
10
143.2785
20
124.5997
0
VERTEX
8
CUT
10
143.2540
20
124.5458
0
VERTEX
8
CUT
10
143.1849
20
124.3719
0
VERTEX
8
CUT
10
143.1658
20
124.3159
0
VERTEX
8
CUT
10
143.1143
20
124.1360
0
VERTEX
8
CUT
10
143.1008
20
124.0784
0
VERTEX
8
CUT
10
143.0672
20
123.8943
0
VERTEX
8
CUT
10
143.0594
20
123.8356
0
VERTEX
8
CUT
10
143.0441
20
123.6491
0
VERTEX
8
CUT
10
143.0422
20
123.5900
0
VERTEX
8
CUT
10
143.0454
20
123.4003
0
VERTEX
8
CUT
10
143.0466
20
123.3707
0
VERTEX
8
CUT
10
143.0515
20
123.2973
0
VERTEX
8
CUT
10
143.0520
20
123.2899
0
VERTEX
8
CUT
10
143.0561
20
123.2377
0
VERTEX
8
CUT
10
143.0568
20
123.2301
0
VERTEX
8
CUT
10
143.0596
20
123.1993
0
VERTEX
8
CUT
10
143.0605
20
123.1891
0
VERTEX
8
CUT
10
143.0626
20
123.1625
0
VERTEX
8
CUT
10
143.0635
20
123.1511
0
VERTEX
8
CUT
10
143.1888
20
121.2929
0
VERTEX
8
CUT
10
143.1895
20
121.2825
0
VERTEX
8
CUT
10
143.1904
20
121.2654
0
VERTEX
8
CUT
10
143.1918
20
121.2241
0
VERTEX
8
CUT
10
143.1923
20
121.1700
0
VERTEX
8
CUT
10
143.1901
20
121.0977
0
VERTEX
8
CUT
10
143.1850
20
121.0253
0
VERTEX
8
CUT
10
143.1771
20
120.9534
0
VERTEX
8
CUT
10
143.1689
20
120.8999
0
VERTEX
8
CUT
10
143.1618
20
120.8592
0
VERTEX
8
CUT
10
143.1584
20
120.8424
0
VERTEX
8
CUT
10
143.1563
20
120.8322
0
VERTEX
8
CUT
10
142.8739
20
119.4953
0
VERTEX
8
CUT
10
142.8712
20
119.4830
0
VERTEX
8
CUT
10
142.8666
20
119.4626
0
VERTEX
8
CUT
10
142.8541
20
119.4138
0
VERTEX
8
CUT
10
142.8361
20
119.3506
0
VERTEX
8
CUT
10
142.8078
20
119.2672
0
VERTEX
8
CUT
10
142.7754
20
119.1851
0
VERTEX
8
CUT
10
142.7391
20
119.1049
0
VERTEX
8
CUT
10
142.7091
20
119.0463
0
VERTEX
8
CUT
10
142.6849
20
119.0022
0
VERTEX
8
CUT
10
142.6743
20
118.9842
0
VERTEX
8
CUT
10
142.6679
20
118.9734
0
VERTEX
8
CUT
10
142.0420
20
117.9382
0
VERTEX
8
CUT
10
142.0368
20
117.9297
0
VERTEX
8
CUT
10
142.0322
20
117.9223
0
VERTEX
8
CUT
10
142.0012
20
117.8756
0
VERTEX
8
CUT
10
141.9540
20
117.8091
0
VERTEX
8
CUT
10
141.8968
20
117.7366
0
VERTEX
8
CUT
10
141.8563
20
117.6904
0
VERTEX
8
CUT
10
141.7919
20
117.6241
0
VERTEX
8
CUT
10
141.7322
20
117.5687
0
VERTEX
8
CUT
10
141.6899
20
117.5318
0
VERTEX
8
CUT
10
141.6831
20
117.5263
0
VERTEX
8
CUT
10
141.6754
20
117.5200
0
VERTEX
8
CUT
10
140.7378
20
116.7695
0
VERTEX
8
CUT
10
140.7300
20
116.7634
0
VERTEX
8
CUT
10
140.7231
20
116.7580
0
VERTEX
8
CUT
10
140.6776
20
116.7246
0
VERTEX
8
CUT
10
140.6099
20
116.6782
0
VERTEX
8
CUT
10
140.5307
20
116.6297
0
VERTEX
8
CUT
10
140.4764
20
116.6001
0
VERTEX
8
CUT
10
140.3926
20
116.5600
0
VERTEX
8
CUT
10
140.3169
20
116.5285
0
VERTEX
8
CUT
10
140.2641
20
116.5085
0
VERTEX
8
CUT
10
140.2558
20
116.5056
0
VERTEX
8
CUT
10
140.2464
20
116.5024
0
VERTEX
8
CUT
10
137.9888
20
115.7521
0
VERTEX
8
CUT
10
137.9764
20
115.7481
0
VERTEX
8
CUT
10
137.9557
20
115.7416
0
VERTEX
8
CUT
10
137.9056
20
115.7273
0
VERTEX
8
CUT
10
137.8200
20
115.7056
0
VERTEX
8
CUT
10
137.7819
20
115.6968
0
VERTEX
8
CUT
10
137.7780
20
115.6960
0
VERTEX
8
CUT
10
137.7395
20
115.6888
0
VERTEX
8
CUT
10
137.6523
20
115.6746
0
VERTEX
8
CUT
10
137.6007
20
115.6678
0
VERTEX
8
CUT
10
137.5791
20
115.6655
0
VERTEX
8
CUT
10
137.5662
20
115.6643
0
VERTEX
8
CUT
10
137.3454
20
115.6446
0
VERTEX
8
CUT
10
137.3306
20
115.6430
0
VERTEX
8
CUT
10
137.2340
20
115.6320
0
VERTEX
8
CUT
10
137.2192
20
115.6301
0
VERTEX
8
CUT
10
137.1614
20
115.6220
0
VERTEX
8
CUT
10
137.1319
20
115.6171
0
VERTEX
8
CUT
10
136.9436
20
115.5812
0
VERTEX
8
CUT
10
136.8855
20
115.5671
0
VERTEX
8
CUT
10
136.7542
20
115.5281
0
VERTEX
8
CUT
10
136.7128
20
115.5169
0
VERTEX
8
CUT
10
136.6363
20
115.4981
0
VERTEX
8
CUT
10
136.5520
20
115.4816
0
VERTEX
8
CUT
10
136.4954
20
115.4734
0
VERTEX
8
CUT
10
136.4099
20
115.4650
0
VERTEX
8
CUT
10
136.3528
20
115.4622
0
VERTEX
8
CUT
10
136.2669
20
115.4620
0
VERTEX
8
CUT
10
136.2098
20
115.4646
0
VERTEX
8
CUT
10
136.1243
20
115.4727
0
VERTEX
8
CUT
10
136.0676
20
115.4807
0
VERTEX
8
CUT
10
135.9833
20
115.4969
0
VERTEX
8
CUT
10
135.9277
20
115.5103
0
VERTEX
8
CUT
10
135.8452
20
115.5344
0
VERTEX
8
CUT
10
135.7911
20
115.5530
0
VERTEX
8
CUT
10
135.7114
20
115.5849
0
VERTEX
8
CUT
10
135.6593
20
115.6086
0
VERTEX
8
CUT
10
135.5830
20
115.6480
0
VERTEX
8
CUT
10
135.5435
20
115.6707
0
VERTEX
8
CUT
10
135.5388
20
115.6734
0
VERTEX
8
CUT
10
135.4869
20
115.7028
0
VERTEX
8
CUT
10
135.4741
20
115.7101
0
VERTEX
8
CUT
10
135.4294
20
115.7383
0
VERTEX
8
CUT
10
135.3654
20
115.7814
0
VERTEX
8
CUT
10
135.2945
20
115.8343
0
VERTEX
8
CUT
10
135.2495
20
115.8715
0
VERTEX
8
CUT
10
135.1844
20
115.9308
0
VERTEX
8
CUT
10
135.1431
20
115.9723
0
VERTEX
8
CUT
10
135.0842
20
116.0377
0
VERTEX
8
CUT
10
135.0471
20
116.0831
0
VERTEX
8
CUT
10
134.9948
20
116.1540
0
VERTEX
8
CUT
10
134.9624
20
116.2028
0
VERTEX
8
CUT
10
134.9173
20
116.2784
0
VERTEX
8
CUT
10
134.8897
20
116.3301
0
VERTEX
8
CUT
10
134.8522
20
116.4097
0
VERTEX
8
CUT
10
134.8299
20
116.4639
0
VERTEX
8
CUT
10
134.8004
20
116.5469
0
VERTEX
8
CUT
10
134.7771
20
116.6241
0
VERTEX
8
CUT
10
134.7654
20
116.6665
0
VERTEX
8
CUT
10
134.4784
20
117.8176
0
VERTEX
8
CUT
10
134.4762
20
117.8268
0
VERTEX
8
CUT
10
134.4725
20
117.8422
0
VERTEX
8
CUT
10
134.4645
20
117.8794
0
VERTEX
8
CUT
10
134.4522
20
117.9427
0
VERTEX
8
CUT
10
134.4472
20
117.9708
0
VERTEX
8
CUT
10
134.4468
20
117.9738
0
VERTEX
8
CUT
10
134.4427
20
118.0020
0
VERTEX
8
CUT
10
134.4344
20
118.0660
0
VERTEX
8
CUT
10
134.4304
20
118.1038
0
VERTEX
8
CUT
10
134.4290
20
118.1196
0
VERTEX
8
CUT
10
134.4283
20
118.1291
0
VERTEX
8
CUT
10
134.2456
20
120.5555
0
VERTEX
8
CUT
10
134.2450
20
120.5649
0
VERTEX
8
CUT
10
134.2440
20
120.5804
0
VERTEX
8
CUT
10
134.2423
20
120.6177
0
VERTEX
8
CUT
10
134.2409
20
120.6809
0
VERTEX
8
CUT
10
134.2406
20
120.7090
0
VERTEX
8
CUT
10
134.2407
20
120.7119
0
VERTEX
8
CUT
10
134.2413
20
120.7400
0
VERTEX
8
CUT
10
134.2438
20
120.8032
0
VERTEX
8
CUT
10
134.2460
20
120.8405
0
VERTEX
8
CUT
10
134.2473
20
120.8560
0
VERTEX
8
CUT
10
134.2481
20
120.8653
0
VERTEX
8
CUT
10
134.4600
20
123.1892
0
VERTEX
8
CUT
10
134.4610
20
123.2023
0
VERTEX
8
CUT
10
134.4669
20
123.2878
0
VERTEX
8
CUT
10
134.4677
20
123.3010
0
VERTEX
8
CUT
10
134.4701
20
123.3524
0
VERTEX
8
CUT
10
134.4708
20
123.3788
0
VERTEX
8
CUT
10
134.4713
20
123.5478
0
VERTEX
8
CUT
10
134.4691
20
123.6005
0
VERTEX
8
CUT
10
134.4548
20
123.7689
0
VERTEX
8
CUT
10
134.4520
20
123.7951
0
VERTEX
8
CUT
10
134.4454
20
123.8462
0
VERTEX
8
CUT
10
134.4435
20
123.8592
0
VERTEX
8
CUT
10
134.4307
20
123.9439
0
VERTEX
8
CUT
10
134.4285
20
123.9570
0
VERTEX
8
CUT
10
134.0233
20
126.2791
0
VERTEX
8
CUT
10
134.0210
20
126.2913
0
VERTEX
8
CUT
10
134.0056
20
126.3702
0
VERTEX
8
CUT
10
134.0031
20
126.3823
0
VERTEX
8
CUT
10
133.9928
20
126.4295
0
VERTEX
8
CUT
10
133.9871
20
126.4536
0
VERTEX
8
CUT
10
133.9465
20
126.6092
0
VERTEX
8
CUT
10
133.9397
20
126.6330
0
VERTEX
8
CUT
10
133.9256
20
126.6792
0
VERTEX
8
CUT
10
133.9219
20
126.6910
0
VERTEX
8
CUT
10
133.8968
20
126.7675
0
VERTEX
8
CUT
10
133.8928
20
126.7792
0
VERTEX
8
CUT
10
133.2821
20
128.5179
0
VERTEX
8
CUT
10
133.2750
20
128.5373
0
VERTEX
8
CUT
10
133.2262
20
128.6622
0
VERTEX
8
CUT
10
133.2183
20
128.6814
0
VERTEX
8
CUT
10
133.1518
20
128.8359
0
VERTEX
8
CUT
10
133.1433
20
128.8548
0
VERTEX
8
CUT
10
133.0860
20
128.9761
0
VERTEX
8
CUT
10
133.0769
20
128.9946
0
VERTEX
8
CUT
10
131.8238
20
131.4287
0
VERTEX
8
CUT
10
131.8180
20
131.4397
0
VERTEX
8
CUT
10
131.7797
20
131.5106
0
VERTEX
8
CUT
10
131.7736
20
131.5215
0
VERTEX
8
CUT
10
131.7497
20
131.5636
0
VERTEX
8
CUT
10
131.7370
20
131.5849
0
VERTEX
8
CUT
10
131.6516
20
131.7217
0
VERTEX
8
CUT
10
131.6380
20
131.7425
0
VERTEX
8
CUT
10
131.6107
20
131.7825
0
VERTEX
8
CUT
10
131.6035
20
131.7927
0
VERTEX
8
CUT
10
131.5567
20
131.8583
0
VERTEX
8
CUT
10
131.5494
20
131.8683
0
VERTEX
8
CUT
10
131.3666
20
132.1133
0
VERTEX
8
CUT
10
131.3574
20
132.1254
0
VERTEX
8
CUT
10
131.2966
20
132.2027
0
VERTEX
8
CUT
10
131.2871
20
132.2145
0
VERTEX
8
CUT
10
131.2495
20
132.2600
0
VERTEX
8
CUT
10
131.2296
20
132.2828
0
VERTEX
8
CUT
10
131.0986
20
132.4258
0
VERTEX
8
CUT
10
131.0555
20
132.4683
0
VERTEX
8
CUT
10
130.9127
20
132.5956
0
VERTEX
8
CUT
10
130.8656
20
132.6335
0
VERTEX
8
CUT
10
130.7107
20
132.7458
0
VERTEX
8
CUT
10
130.6600
20
132.7788
0
VERTEX
8
CUT
10
130.4946
20
132.8749
0
VERTEX
8
CUT
10
130.4408
20
132.9026
0
VERTEX
8
CUT
10
130.2666
20
132.9816
0
VERTEX
8
CUT
10
130.2102
20
133.0038
0
VERTEX
8
CUT
10
130.0289
20
133.0648
0
VERTEX
8
CUT
10
129.9707
20
133.0811
0
VERTEX
8
CUT
10
129.7842
20
133.1236
0
VERTEX
8
CUT
10
129.7246
20
133.1340
0
VERTEX
8
CUT
10
129.5347
20
133.1574
0
VERTEX
8
CUT
10
129.4744
20
133.1618
0
VERTEX
8
CUT
10
129.2831
20
133.1660
0
VERTEX
8
CUT
10
129.2226
20
133.1643
0
VERTEX
8
CUT
10
129.0319
20
133.1492
0
VERTEX
8
CUT
10
128.9719
20
133.1413
0
VERTEX
8
CUT
10
128.7837
20
133.1071
0
VERTEX
8
CUT
10
128.7248
20
133.0933
0
VERTEX
8
CUT
10
128.5410
20
133.0403
0
VERTEX
8
CUT
10
128.4838
20
133.0206
0
VERTEX
8
CUT
10
128.3063
20
132.9494
0
VERTEX
8
CUT
10
128.2513
20
132.9240
0
VERTEX
8
CUT
10
128.0819
20
132.8352
0
VERTEX
8
CUT
10
128.0298
20
132.8045
0
VERTEX
8
CUT
10
127.8702
20
132.6991
0
VERTEX
8
CUT
10
127.8214
20
132.6633
0
VERTEX
8
CUT
10
127.6711
20
132.5407
0
VERTEX
8
CUT
10
127.6482
20
132.5209
0
VERTEX
8
CUT
10
127.6043
20
132.4813
0
VERTEX
8
CUT
10
127.5932
20
132.4710
0
VERTEX
8
CUT
10
127.5219
20
132.4033
0
VERTEX
8
CUT
10
127.5111
20
132.3927
0
VERTEX
8
CUT
10
126.1409
20
131.0228
0
VERTEX
8
CUT
10
126.1294
20
131.0110
0
VERTEX
8
CUT
10
126.0558
20
130.9333
0
VERTEX
8
CUT
10
126.0447
20
130.9212
0
VERTEX
8
CUT
10
126.0018
20
130.8733
0
VERTEX
8
CUT
10
125.9805
20
130.8482
0
VERTEX
8
CUT
10
125.8467
20
130.6813
0
VERTEX
8
CUT
10
125.8268
20
130.6550
0
VERTEX
8
CUT
10
125.7894
20
130.6027
0
VERTEX
8
CUT
10
125.7800
20
130.5892
0
VERTEX
8
CUT
10
125.7202
20
130.5005
0
VERTEX
8
CUT
10
125.7112
20
130.4867
0
VERTEX
8
CUT
10
125.2740
20
129.7984
0
VERTEX
8
CUT
10
125.2672
20
129.7876
0
VERTEX
8
CUT
10
125.2241
20
129.7164
0
VERTEX
8
CUT
10
125.2176
20
129.7053
0
VERTEX
8
CUT
10
125.1926
20
129.6620
0
VERTEX
8
CUT
10
125.1803
20
129.6395
0
VERTEX
8
CUT
10
125.1044
20
129.4939
0
VERTEX
8
CUT
10
125.0826
20
129.4475
0
VERTEX
8
CUT
10
125.0194
20
129.2960
0
VERTEX
8
CUT
10
125.0101
20
129.2721
0
VERTEX
8
CUT
10
124.9928
20
129.2252
0
VERTEX
8
CUT
10
124.9885
20
129.2131
0
VERTEX
8
CUT
10
124.9615
20
129.1344
0
VERTEX
8
CUT
10
124.9574
20
129.1222
0
VERTEX
8
CUT
10
123.9743
20
126.0505
0
VERTEX
8
CUT
10
123.9705
20
126.0381
0
VERTEX
8
CUT
10
123.9466
20
125.9574
0
VERTEX
8
CUT
10
123.9430
20
125.9450
0
VERTEX
8
CUT
10
123.9297
20
125.8961
0
VERTEX
8
CUT
10
123.9234
20
125.8710
0
VERTEX
8
CUT
10
123.8866
20
125.7091
0
VERTEX
8
CUT
10
123.8773
20
125.6582
0
VERTEX
8
CUT
10
123.8547
20
125.4937
0
VERTEX
8
CUT
10
123.8517
20
125.4680
0
VERTEX
8
CUT
10
123.8469
20
125.4176
0
VERTEX
8
CUT
10
123.8459
20
125.4047
0
VERTEX
8
CUT
10
123.8398
20
125.3208
0
VERTEX
8
CUT
10
123.8390
20
125.3079
0
VERTEX
8
CUT
10
123.6170
20
120.9389
0
VERTEX
8
CUT
10
123.6138
20
120.8957
0
VERTEX
8
CUT
10
123.6059
20
120.8166
0
VERTEX
8
CUT
10
123.5932
20
120.7308
0
VERTEX
8
CUT
10
123.5820
20
120.6741
0
VERTEX
8
CUT
10
123.5611
20
120.5900
0
VERTEX
8
CUT
10
123.5444
20
120.5346
0
VERTEX
8
CUT
10
123.5155
20
120.4529
0
VERTEX
8
CUT
10
123.4937
20
120.3994
0
VERTEX
8
CUT
10
123.4570
20
120.3208
0
VERTEX
8
CUT
10
123.4301
20
120.2697
0
VERTEX
8
CUT
10
123.3860
20
120.1950
0
VERTEX
8
CUT
10
123.3543
20
120.1467
0
VERTEX
8
CUT
10
123.3032
20
120.0766
0
VERTEX
8
CUT
10
123.2670
20
120.0316
0
VERTEX
8
CUT
10
123.2095
20
119.9667
0
VERTEX
8
CUT
10
123.1691
20
119.9254
0
VERTEX
8
CUT
10
123.1055
20
119.8664
0
VERTEX
8
CUT
10
123.0614
20
119.8292
0
VERTEX
8
CUT
10
122.9924
20
119.7765
0
VERTEX
8
CUT
10
122.9270
20
119.7314
0
VERTEX
8
CUT
10
122.8907
20
119.7076
0
VERTEX
8
CUT
10
122.8794
20
119.7006
0
VERTEX
8
CUT
10
122.8723
20
119.6962
0
VERTEX
8
CUT
10
122.8556
20
119.6861
0
VERTEX
8
CUT
10
122.8484
20
119.6817
0
VERTEX
8
CUT
10
122.8256
20
119.6682
0
VERTEX
8
CUT
10
122.8005
20
119.6524
0
VERTEX
8
CUT
10
122.6422
20
119.5472
0
VERTEX
8
CUT
10
122.5945
20
119.5120
0
VERTEX
8
CUT
10
122.4494
20
119.3933
0
VERTEX
8
CUT
10
122.4054
20
119.3536
0
VERTEX
8
CUT
10
122.2727
20
119.2212
0
VERTEX
8
CUT
10
122.2328
20
119.1773
0
VERTEX
8
CUT
10
122.1138
20
119.0324
0
VERTEX
8
CUT
10
122.0785
20
118.9848
0
VERTEX
8
CUT
10
121.9744
20
118.8289
0
VERTEX
8
CUT
10
121.9439
20
118.7780
0
VERTEX
8
CUT
10
121.8557
20
118.6126
0
VERTEX
8
CUT
10
121.8304
20
118.5590
0
VERTEX
8
CUT
10
121.7590
20
118.3857
0
VERTEX
8
CUT
10
121.7391
20
118.3298
0
VERTEX
8
CUT
10
121.6851
20
118.1503
0
VERTEX
8
CUT
10
121.6708
20
118.0927
0
VERTEX
8
CUT
10
121.6348
20
117.9088
0
VERTEX
8
CUT
10
121.6263
20
117.8501
0
SEQEND
0
POLYLINE
8
CUT
66
1
70
1
10
0.0
20
0.0
30
0.0
0
VERTEX
8
CUT
10
109.2379
20
135.4141
0
VERTEX
8
CUT
10
109.2352
20
135.3542
0
VERTEX
8
CUT
10
109.2361
20
135.1644
0
VERTEX
8
CUT
10
109.2393
20
135.1045
0
VERTEX
8
CUT
10
109.2594
20
134.9131
0
VERTEX
8
CUT
10
109.2633
20
134.8834
0
VERTEX
8
CUT
10
109.2723
20
134.8255
0
VERTEX
8
CUT
10
109.2748
20
134.8107
0
VERTEX
8
CUT
10
109.2922
20
134.7147
0
VERTEX
8
CUT
10
109.2951
20
134.6999
0
VERTEX
8
CUT
10
109.6176
20
133.1454
0
VERTEX
8
CUT
10
109.6199
20
133.1348
0
VERTEX
8
CUT
10
109.6366
20
133.0610
0
VERTEX
8
CUT
10
109.6392
20
133.0500
0
VERTEX
8
CUT
10
109.6511
20
133.0018
0
VERTEX
8
CUT
10
109.6573
20
132.9787
0
VERTEX
8
CUT
10
109.6987
20
132.8355
0
VERTEX
8
CUT
10
109.7055
20
132.8135
0
VERTEX
8
CUT
10
109.7180
20
132.7757
0
VERTEX
8
CUT
10
109.7215
20
132.7654
0
VERTEX
8
CUT
10
109.7463
20
132.6948
0
VERTEX
8
CUT
10
109.7504
20
132.6834
0
VERTEX
8
CUT
10
110.1214
20
131.6917
0
VERTEX
8
CUT
10
110.1252
20
131.6818
0
VERTEX
8
CUT
10
110.1522
20
131.6132
0
VERTEX
8
CUT
10
110.1563
20
131.6030
0
VERTEX
8
CUT
10
110.1749
20
131.5584
0
VERTEX
8
CUT
10
110.1843
20
131.5370
0
VERTEX
8
CUT
10
110.2452
20
131.4052
0
VERTEX
8
CUT
10
110.2550
20
131.3850
0
VERTEX
8
CUT
10
110.2726
20
131.3503
0
VERTEX
8
CUT
10
110.2774
20
131.3409
0
VERTEX
8
CUT
10
110.3116
20
131.2766
0
VERTEX
8
CUT
10
110.3173
20
131.2661
0
VERTEX
8
CUT
10
113.1541
20
126.1648
0
VERTEX
8
CUT
10
113.1583
20
126.1574
0
VERTEX
8
CUT
10
113.1878
20
126.1061
0
VERTEX
8
CUT
10
113.1924
20
126.0982
0
VERTEX
8
CUT
10
113.2301
20
126.0348
0
VERTEX
8
CUT
10
113.2348
20
126.0271
0
VERTEX
8
CUT
10
113.2653
20
125.9775
0
VERTEX
8
CUT
10
113.2704
20
125.9694
0
VERTEX
8
CUT
10
113.8244
20
125.1007
0
VERTEX
8
CUT
10
113.8326
20
125.0882
0
VERTEX
8
CUT
10
113.8865
20
125.0082
0
VERTEX
8
CUT
10
113.8949
20
124.9959
0
VERTEX
8
CUT
10
113.9285
20
124.9487
0
VERTEX
8
CUT
10
113.9463
20
124.9249
0
VERTEX
8
CUT
10
114.0640
20
124.7753
0
VERTEX
8
CUT
10
114.1030
20
124.7305
0
VERTEX
8
CUT
10
114.2332
20
124.5952
0
VERTEX
8
CUT
10
114.2764
20
124.5544
0
VERTEX
8
CUT
10
114.4193
20
124.4326
0
VERTEX
8
CUT
10
114.4663
20
124.3964
0
VERTEX
8
CUT
10
114.6205
20
124.2893
0
VERTEX
8
CUT
10
114.6709
20
124.2579
0
VERTEX
8
CUT
10
114.8350
20
124.1666
0
VERTEX
8
CUT
10
114.8882
20
124.1403
0
VERTEX
8
CUT
10
115.0605
20
124.0657
0
VERTEX
8
CUT
10
115.1161
20
124.0448
0
VERTEX
8
CUT
10
115.2949
20
123.9875
0
VERTEX
8
CUT
10
115.3523
20
123.9722
0
VERTEX
8
CUT
10
115.5359
20
123.9329
0
VERTEX
8
CUT
10
115.5945
20
123.9234
0
VERTEX
8
CUT
10
115.7811
20
123.9025
0
VERTEX
8
CUT
10
115.8404
20
123.8988
0
VERTEX
8
CUT
10
116.0281
20
123.8964
0
VERTEX
8
CUT
10
116.0874
20
123.8985
0
VERTEX
8
CUT
10
116.2745
20
123.9147
0
VERTEX
8
CUT
10
116.3333
20
123.9227
0
VERTEX
8
CUT
10
116.5179
20
123.9573
0
VERTEX
8
CUT
10
116.5756
20
123.9711
0
VERTEX
8
CUT
10
116.7558
20
124.0238
0
VERTEX
8
CUT
10
116.8120
20
124.0432
0
VERTEX
8
CUT
10
116.9861
20
124.1135
0
VERTEX
8
CUT
10
117.0400
20
124.1384
0
VERTEX
8
CUT
10
117.2063
20
124.2255
0
VERTEX
8
CUT
10
117.2575
20
124.2556
0
VERTEX
8
CUT
10
117.4144
20
124.3587
0
VERTEX
8
CUT
10
117.4624
20
124.3937
0
VERTEX
8
CUT
10
117.6083
20
124.5118
0
VERTEX
8
CUT
10
117.6526
20
124.5514
0
VERTEX
8
CUT
10
117.7861
20
124.6834
0
VERTEX
8
CUT
10
117.8263
20
124.7271
0
VERTEX
8
CUT
10
117.9461
20
124.8717
0
VERTEX
8
CUT
10
117.9817
20
124.9192
0
VERTEX
8
CUT
10
118.0867
20
125.0749
0
VERTEX
8
CUT
10
118.1174
20
125.1257
0
VERTEX
8
CUT
10
118.2065
20
125.2909
0
VERTEX
8
CUT
10
118.2321
20
125.3446
0
VERTEX
8
CUT
10
118.3044
20
125.5178
0
VERTEX
8
CUT
10
118.3245
20
125.5737
0
VERTEX
8
CUT
10
118.3793
20
125.7533
0
VERTEX
8
CUT
10
118.3938
20
125.8108
0
VERTEX
8
CUT
10
118.4306
20
125.9950
0
VERTEX
8
CUT
10
118.4394
20
126.0537
0
VERTEX
8
CUT
10
118.4581
20
126.2431
0
VERTEX
8
CUT
10
118.4602
20
126.2728
0
VERTEX
8
CUT
10
118.4631
20
126.3307
0
VERTEX
8
CUT
10
118.4636
20
126.3455
0
VERTEX
8
CUT
10
118.4659
20
126.4420
0
VERTEX
8
CUT
10
118.4661
20
126.4569
0
VERTEX
8
CUT
10
118.4652
20
127.6850
0
VERTEX
8
CUT
10
118.4652
20
127.6920
0
VERTEX
8
CUT
10
118.4653
20
127.7082
0
VERTEX
8
CUT
10
118.4654
20
127.7152
0
VERTEX
8
CUT
10
118.4654
20
127.7182
0
VERTEX
8
CUT
10
118.4662
20
127.7455
0
VERTEX
8
CUT
10
118.4691
20
127.8092
0
VERTEX
8
CUT
10
118.4704
20
127.8314
0
VERTEX
8
CUT
10
118.4737
20
127.8660
0
VERTEX
8
CUT
10
118.4826
20
127.9448
0
VERTEX
8
CUT
10
118.4872
20
127.9787
0
VERTEX
8
CUT
10
118.7107
20
129.4427
0
VERTEX
8
CUT
10
118.7128
20
129.4555
0
VERTEX
8
CUT
10
118.7163
20
129.4766
0
VERTEX
8
CUT
10
118.7262
20
129.5268
0
VERTEX
8
CUT
10
118.7453
20
129.6111
0
VERTEX
8
CUT
10
118.7545
20
129.6482
0
VERTEX
8
CUT
10
118.7556
20
129.6521
0
VERTEX
8
CUT
10
118.7664
20
129.6889
0
VERTEX
8
CUT
10
118.7927
20
129.7715
0
VERTEX
8
CUT
10
118.8096
20
129.8197
0
VERTEX
8
CUT
10
118.8172
20
129.8396
0
VERTEX
8
CUT
10
118.8218
20
129.8515
0
VERTEX
8
CUT
10
119.3076
20
131.0709
0
VERTEX
8
CUT
10
119.3120
20
131.0816
0
VERTEX
8
CUT
10
119.3192
20
131.0992
0
VERTEX
8
CUT
10
119.3379
20
131.1412
0
VERTEX
8
CUT
10
119.3712
20
131.2115
0
VERTEX
8
CUT
10
119.3866
20
131.2424
0
VERTEX
8
CUT
10
119.3883
20
131.2456
0
VERTEX
8
CUT
10
119.4048
20
131.2758
0
VERTEX
8
CUT
10
119.4434
20
131.3434
0
VERTEX
8
CUT
10
119.4673
20
131.3827
0
VERTEX
8
CUT
10
119.4776
20
131.3987
0
VERTEX
8
CUT
10
119.4838
20
131.4084
0
VERTEX
8
CUT
10
120.2739
20
132.6054
0
VERTEX
8
CUT
10
120.2790
20
132.6130
0
VERTEX
8
CUT
10
120.2910
20
132.6309
0
VERTEX
8
CUT
10
120.2962
20
132.6385
0
VERTEX
8
CUT
10
120.3007
20
132.6450
0
VERTEX
8
CUT
10
120.3027
20
132.6479
0
VERTEX
8
CUT
10
120.3601
20
132.7321
0
VERTEX
8
CUT
10
120.3644
20
132.7385
0
VERTEX
8
CUT
10
120.3724
20
132.7499
0
VERTEX
8
CUT
10
120.3756
20
132.7546
0
VERTEX
8
CUT
10
120.3850
20
132.7685
0
VERTEX
8
CUT
10
120.3955
20
132.7845
0
VERTEX
8
CUT
10
120.4964
20
132.9436
0
VERTEX
8
CUT
10
120.5260
20
132.9959
0
VERTEX
8
CUT
10
120.6112
20
133.1657
0
VERTEX
8
CUT
10
120.6354
20
133.2207
0
VERTEX
8
CUT
10
120.7032
20
133.3981
0
VERTEX
8
CUT
10
120.7218
20
133.4552
0
VERTEX
8
CUT
10
120.7715
20
133.6386
0
VERTEX
8
CUT
10
120.7843
20
133.6973
0
VERTEX
8
CUT
10
120.8154
20
133.8847
0
VERTEX
8
CUT
10
120.8222
20
133.9444
0
VERTEX
8
CUT
10
120.8344
20
134.1339
0
VERTEX
8
CUT
10
120.8353
20
134.1940
0
VERTEX
8
CUT
10
120.8285
20
134.3838
0
VERTEX
8
CUT
10
120.8233
20
134.4437
0
VERTEX
8
CUT
10
120.7975
20
134.6319
0
VERTEX
8
CUT
10
120.7864
20
134.6909
0
VERTEX
8
CUT
10
120.7419
20
134.8756
0
VERTEX
8
CUT
10
120.7250
20
134.9332
0
VERTEX
8
CUT
10
120.6622
20
135.1125
0
VERTEX
8
CUT
10
120.6396
20
135.1682
0
VERTEX
8
CUT
10
120.5593
20
135.3403
0
VERTEX
8
CUT
10
120.5312
20
135.3934
0
VERTEX
8
CUT
10
120.4340
20
135.5566
0
VERTEX
8
CUT
10
120.4007
20
135.6067
0
VERTEX
8
CUT
10
120.2877
20
135.7593
0
VERTEX
8
CUT
10
120.2496
20
135.8058
0
VERTEX
8
CUT
10
120.1219
20
135.9464
0
VERTEX
8
CUT
10
120.0794
20
135.9888
0
VERTEX
8
CUT
10
119.9383
20
136.1160
0
VERTEX
8
CUT
10
119.8917
20
136.1539
0
VERTEX
8
CUT
10
119.7385
20
136.2663
0
VERTEX
8
CUT
10
119.6884
20
136.2994
0
VERTEX
8
CUT
10
119.5248
20
136.3959
0
VERTEX
8
CUT
10
119.4716
20
136.4238
0
VERTEX
8
CUT
10
119.2991
20
136.5035
0
VERTEX
8
CUT
10
119.2434
20
136.5259
0
VERTEX
8
CUT
10
119.0639
20
136.5879
0
VERTEX
8
CUT
10
119.0062
20
136.6047
0
VERTEX
8
CUT
10
118.8213
20
136.6485
0
VERTEX
8
CUT
10
118.7622
20
136.6593
0
VERTEX
8
CUT
10
118.5713
20
136.6847
0
VERTEX
8
CUT
10
118.5415
20
136.6880
0
VERTEX
8
CUT
10
118.4787
20
136.6931
0
VERTEX
8
CUT
10
118.4662
20
136.6940
0
VERTEX
8
CUT
10
118.3847
20
136.6990
0
VERTEX
8
CUT
10
118.3722
20
136.6997
0
VERTEX
8
CUT
10
118.3594
20
136.7002
0
VERTEX
8
CUT
10
118.3509
20
136.7006
0
VERTEX
8
CUT
10
118.3309
20
136.7016
0
VERTEX
8
CUT
10
118.3224
20
136.7020
0
VERTEX
8
CUT
10
115.7431
20
136.8553
0
VERTEX
8
CUT
10
115.7310
20
136.8561
0
VERTEX
8
CUT
10
115.7108
20
136.8575
0
VERTEX
8
CUT
10
115.6624
20
136.8624
0
VERTEX
8
CUT
10
115.5807
20
136.8728
0
VERTEX
8
CUT
10
115.5446
20
136.8782
0
VERTEX
8
CUT
10
115.5409
20
136.8788
0
VERTEX
8
CUT
10
115.5050
20
136.8856
0
VERTEX
8
CUT
10
115.4244
20
136.9026
0
VERTEX
8
CUT
10
115.3771
20
136.9140
0
VERTEX
8
CUT
10
115.3576
20
136.9192
0
VERTEX
8
CUT
10
115.3459
20
136.9224
0
VERTEX
8
CUT
10
112.9524
20
137.5993
0
VERTEX
8
CUT
10
112.9422
20
137.6021
0
VERTEX
8
CUT
10
112.8709
20
137.6209
0
VERTEX
8
CUT
10
112.8603
20
137.6236
0
VERTEX
8
CUT
10
112.8133
20
137.6351
0
VERTEX
8
CUT
10
112.7906
20
137.6402
0
VERTEX
8
CUT
10
112.6483
20
137.6692
0
VERTEX
8
CUT
10
112.6262
20
137.6732
0
VERTEX
8
CUT
10
112.5879
20
137.6796
0
VERTEX
8
CUT
10
112.5774
20
137.6812
0
VERTEX
8
CUT
10
112.5052
20
137.6918
0
VERTEX
8
CUT
10
112.4936
20
137.6934
0
VERTEX
8
CUT
10
112.1079
20
137.7424
0
VERTEX
8
CUT
10
112.0928
20
137.7441
0
VERTEX
8
CUT
10
111.9958
20
137.7540
0
VERTEX
8
CUT
10
111.9809
20
137.7553
0
VERTEX
8
CUT
10
111.9224
20
137.7598
0
VERTEX
8
CUT
10
111.8924
20
137.7613
0
VERTEX
8
CUT
10
111.7001
20
137.7663
0
VERTEX
8
CUT
10
111.6401
20
137.7649
0
VERTEX
8
CUT
10
111.4509
20
137.7508
0
VERTEX
8
CUT
10
111.3913
20
137.7434
0
VERTEX
8
CUT
10
111.2045
20
137.7105
0
VERTEX
8
CUT
10
111.1459
20
137.6972
0
VERTEX
8
CUT
10
110.9633
20
137.6458
0
VERTEX
8
CUT
10
110.9064
20
137.6267
0
VERTEX
8
CUT
10
110.7298
20
137.5573
0
VERTEX
8
CUT
10
110.6751
20
137.5326
0
VERTEX
8
CUT
10
110.5063
20
137.4460
0
VERTEX
8
CUT
10
110.4543
20
137.4159
0
VERTEX
8
CUT
10
110.2950
20
137.3128
0
VERTEX
8
CUT
10
110.2463
20
137.2777
0
VERTEX
8
CUT
10
110.0981
20
137.1592
0
VERTEX
8
CUT
10
110.0532
20
137.1194
0
VERTEX
8
CUT
10
109.9176
20
136.9867
0
VERTEX
8
CUT
10
109.8768
20
136.9427
0
VERTEX
8
CUT
10
109.7551
20
136.7971
0
VERTEX
8
CUT
10
109.7190
20
136.7491
0
VERTEX
8
CUT
10
109.6125
20
136.5921
0
VERTEX
8
CUT
10
109.5813
20
136.5408
0
VERTEX
8
CUT
10
109.4910
20
136.3739
0
VERTEX
8
CUT
10
109.4651
20
136.3198
0
VERTEX
8
CUT
10
109.3920
20
136.1447
0
VERTEX
8
CUT
10
109.3716
20
136.0882
0
VERTEX
8
CUT
10
109.3163
20
135.9067
0
VERTEX
8
CUT
10
109.3017
20
135.8485
0
VERTEX
8
CUT
10
109.2648
20
135.6624
0
VERTEX
8
CUT
10
109.2561
20
135.6030
0
SEQEND
0
POLYLINE
8
CUT
66
1
70
1
10
0.0
20
0.0
30
0.0
0
VERTEX
8
CUT
10
75.7857
20
118.1112
0
VERTEX
8
CUT
10
75.7836
20
118.0532
0
VERTEX
8
CUT
10
75.7858
20
117.8697
0
VERTEX
8
CUT
10
75.7893
20
117.8117
0
VERTEX
8
CUT
10
75.8092
20
117.6293
0
VERTEX
8
CUT
10
75.8182
20
117.5720
0
VERTEX
8
CUT
10
75.8557
20
117.3923
0
VERTEX
8
CUT
10
75.8703
20
117.3361
0
VERTEX
8
CUT
10
75.9249
20
117.1609
0
VERTEX
8
CUT
10
75.9448
20
117.1064
0
VERTEX
8
CUT
10
76.0161
20
116.9373
0
VERTEX
8
CUT
10
76.0412
20
116.8850
0
VERTEX
8
CUT
10
76.1285
20
116.7235
0
VERTEX
8
CUT
10
76.1586
20
116.6739
0
VERTEX
8
CUT
10
76.2611
20
116.5216
0
VERTEX
8
CUT
10
76.2958
20
116.4751
0
VERTEX
8
CUT
10
76.4125
20
116.3335
0
VERTEX
8
CUT
10
76.4515
20
116.2905
0
VERTEX
8
CUT
10
76.5814
20
116.1609
0
VERTEX
8
CUT
10
76.6244
20
116.1219
0
VERTEX
8
CUT
10
76.7662
20
116.0054
0
VERTEX
8
CUT
10
76.8128
20
115.9707
0
VERTEX
8
CUT
10
76.9651
20
115.8685
0
VERTEX
8
CUT
10
77.0148
20
115.8385
0
VERTEX
8
CUT
10
77.1764
20
115.7514
0
VERTEX
8
CUT
10
77.2288
20
115.7264
0
VERTEX
8
CUT
10
77.3980
20
115.6553
0
VERTEX
8
CUT
10
77.4525
20
115.6355
0
VERTEX
8
CUT
10
77.6278
20
115.5811
0
VERTEX
8
CUT
10
77.6840
20
115.5666
0
VERTEX
8
CUT
10
77.8637
20
115.5294
0
VERTEX
8
CUT
10
77.9211
20
115.5204
0
VERTEX
8
CUT
10
78.1035
20
115.5008
0
VERTEX
8
CUT
10
78.1615
20
115.4974
0
VERTEX
8
CUT
10
78.3450
20
115.4955
0
VERTEX
8
CUT
10
78.4030
20
115.4977
0
VERTEX
8
CUT
10
78.5858
20
115.5135
0
VERTEX
8
CUT
10
78.6433
20
115.5213
0
VERTEX
8
CUT
10
78.8238
20
115.5547
0
VERTEX
8
CUT
10
78.8803
20
115.5680
0
VERTEX
8
CUT
10
79.0591
20
115.6194
0
VERTEX
8
CUT
10
79.0868
20
115.6281
0
VERTEX
8
CUT
10
79.1405
20
115.6464
0
VERTEX
8
CUT
10
79.1541
20
115.6513
0
VERTEX
8
CUT
10
79.2427
20
115.6838
0
VERTEX
8
CUT
10
79.2563
20
115.6890
0
VERTEX
8
CUT
10
79.2945
20
115.7042
0
VERTEX
8
CUT
10
79.3086
20
115.7099
0
VERTEX
8
CUT
10
79.3996
20
115.7486
0
VERTEX
8
CUT
10
79.4135
20
115.7547
0
VERTEX
8
CUT
10
79.4675
20
115.7793
0
VERTEX
8
CUT
10
79.4949
20
115.7927
0
VERTEX
8
CUT
10
79.6679
20
115.8823
0
VERTEX
8
CUT
10
79.7204
20
115.9130
0
VERTEX
8
CUT
10
79.8835
20
116.0197
0
VERTEX
8
CUT
10
79.9085
20
116.0370
0
VERTEX
8
CUT
10
79.9565
20
116.0720
0
VERTEX
8
CUT
10
79.9686
20
116.0811
0
VERTEX
8
CUT
10
80.0470
20
116.1414
0
VERTEX
8
CUT
10
80.0589
20
116.1508
0
VERTEX
8
CUT
10
82.8264
20
118.3928
0
VERTEX
8
CUT
10
82.8370
20
118.4015
0
VERTEX
8
CUT
10
82.9048
20
118.4591
0
VERTEX
8
CUT
10
82.9151
20
118.4680
0
VERTEX
8
CUT
10
82.9551
20
118.5036
0
VERTEX
8
CUT
10
82.9751
20
118.5222
0
VERTEX
8
CUT
10
83.1025
20
118.6462
0
VERTEX
8
CUT
10
83.1217
20
118.6658
0
VERTEX
8
CUT
10
83.1582
20
118.7048
0
VERTEX
8
CUT
10
83.1675
20
118.7149
0
VERTEX
8
CUT
10
83.2268
20
118.7811
0
VERTEX
8
CUT
10
83.2358
20
118.7914
0
VERTEX
8
CUT
10
83.4087
20
118.9936
0
VERTEX
8
CUT
10
83.4180
20
119.0047
0
VERTEX
8
CUT
10
83.4776
20
119.0780
0
VERTEX
8
CUT
10
83.4867
20
119.0894
0
VERTEX
8
CUT
10
83.5215
20
119.1343
0
VERTEX
8
CUT
10
83.5387
20
119.1577
0
VERTEX
8
CUT
10
83.6455
20
119.3104
0
VERTEX
8
CUT
10
83.6765
20
119.3596
0
VERTEX
8
CUT
10
83.7668
20
119.5197
0
VERTEX
8
CUT
10
83.7929
20
119.5717
0
VERTEX
8
CUT
10
83.8673
20
119.7398
0
VERTEX
8
CUT
10
83.8882
20
119.7941
0
VERTEX
8
CUT
10
83.9460
20
119.9686
0
VERTEX
8
CUT
10
83.9616
20
120.0246
0
VERTEX
8
CUT
10
84.0022
20
120.2039
0
VERTEX
8
CUT
10
84.0122
20
120.2611
0
VERTEX
8
CUT
10
84.0353
20
120.4435
0
VERTEX
8
CUT
10
84.0398
20
120.5015
0
VERTEX
8
CUT
10
84.0451
20
120.6852
0
VERTEX
8
CUT
10
84.0440
20
120.7434
0
VERTEX
8
CUT
10
84.0315
20
120.9267
0
VERTEX
8
CUT
10
84.0247
20
120.9845
0
VERTEX
8
CUT
10
83.9945
20
121.1658
0
VERTEX
8
CUT
10
83.9822
20
121.2226
0
VERTEX
8
CUT
10
83.9346
20
121.4002
0
VERTEX
8
CUT
10
83.9168
20
121.4556
0
VERTEX
8
CUT
10
83.8522
20
121.6277
0
VERTEX
8
CUT
10
83.8292
20
121.6811
0
VERTEX
8
CUT
10
83.7483
20
121.8461
0
VERTEX
8
CUT
10
83.7202
20
121.8970
0
VERTEX
8
CUT
10
83.6236
20
122.0534
0
VERTEX
8
CUT
10
83.5907
20
122.1014
0
VERTEX
8
CUT
10
83.4780
20
122.2498
0
VERTEX
8
CUT
10
83.4598
20
122.2725
0
VERTEX
8
CUT
10
83.4111
20
122.3306
0
VERTEX
8
CUT
10
83.3823
20
122.3667
0
VERTEX
8
CUT
10
83.3313
20
122.4342
0
VERTEX
8
CUT
10
83.2795
20
122.5107
0
VERTEX
8
CUT
10
83.2477
20
122.5633
0
VERTEX
8
CUT
10
83.2040
20
122.6447
0
VERTEX
8
CUT
10
83.1777
20
122.7003
0
VERTEX
8
CUT
10
83.1426
20
122.7857
0
VERTEX
8
CUT
10
83.1162
20
122.8606
0
VERTEX
8
CUT
10
83.0991
20
122.9145
0
VERTEX
8
CUT
10
83.0980
20
122.9184
0
VERTEX
8
CUT
10
83.0949
20
122.9293
0
VERTEX
8
CUT
10
82.9930
20
123.3075
0
VERTEX
8
CUT
10
82.9901
20
123.3185
0
VERTEX
8
CUT
10
82.9854
20
123.3367
0
VERTEX
8
CUT
10
82.9753
20
123.3808
0
VERTEX
8
CUT
10
82.9601
20
123.4560
0
VERTEX
8
CUT
10
82.9539
20
123.4894
0
VERTEX
8
CUT
10
82.9533
20
123.4929
0
VERTEX
8
CUT
10
82.9485
20
123.5265
0
VERTEX
8
CUT
10
82.9389
20
123.6026
0
VERTEX
8
CUT
10
82.9344
20
123.6477
0
VERTEX
8
CUT
10
82.9330
20
123.6664
0
VERTEX
8
CUT
10
82.9322
20
123.6777
0
VERTEX
8
CUT
10
82.6725
20
127.8619
0
VERTEX
8
CUT
10
82.6715
20
127.8744
0
VERTEX
8
CUT
10
82.6648
20
127.9559
0
VERTEX
8
CUT
10
82.6636
20
127.9684
0
VERTEX
8
CUT
10
82.6585
20
128.0173
0
VERTEX
8
CUT
10
82.6554
20
128.0422
0
VERTEX
8
CUT
10
82.6316
20
128.2039
0
VERTEX
8
CUT
10
82.6274
20
128.2287
0
VERTEX
8
CUT
10
82.6183
20
128.2770
0
VERTEX
8
CUT
10
82.6158
20
128.2893
0
VERTEX
8
CUT
10
82.5988
20
128.3693
0
VERTEX
8
CUT
10
82.5961
20
128.3816
0
VERTEX
8
CUT
10
82.1448
20
130.3116
0
VERTEX
8
CUT
10
82.1419
20
130.3236
0
VERTEX
8
CUT
10
82.1221
20
130.4011
0
VERTEX
8
CUT
10
82.1189
20
130.4130
0
VERTEX
8
CUT
10
82.1060
20
130.4594
0
VERTEX
8
CUT
10
82.0990
20
130.4830
0
VERTEX
8
CUT
10
82.0499
20
130.6353
0
VERTEX
8
CUT
10
82.0418
20
130.6586
0
VERTEX
8
CUT
10
82.0252
20
130.7037
0
VERTEX
8
CUT
10
82.0208
20
130.7152
0
VERTEX
8
CUT
10
81.9917
20
130.7897
0
VERTEX
8
CUT
10
81.9870
20
130.8012
0
VERTEX
8
CUT
10
81.8342
20
131.1690
0
VERTEX
8
CUT
10
81.8285
20
131.1823
0
VERTEX
8
CUT
10
81.7904
20
131.2680
0
VERTEX
8
CUT
10
81.7844
20
131.2811
0
VERTEX
8
CUT
10
81.7603
20
131.3320
0
VERTEX
8
CUT
10
81.7473
20
131.3578
0
VERTEX
8
CUT
10
81.6603
20
131.5209
0
VERTEX
8
CUT
10
81.6307
20
131.5705
0
VERTEX
8
CUT
10
81.5298
20
131.7224
0
VERTEX
8
CUT
10
81.4956
20
131.7689
0
VERTEX
8
CUT
10
81.3806
20
131.9104
0
VERTEX
8
CUT
10
81.3421
20
131.9534
0
VERTEX
8
CUT
10
81.2140
20
132.0832
0
VERTEX
8
CUT
10
81.1716
20
132.1223
0
VERTEX
8
CUT
10
81.0316
20
132.2392
0
VERTEX
8
CUT
10
80.9856
20
132.2740
0
VERTEX
8
CUT
10
80.8351
20
132.3770
0
VERTEX
8
CUT
10
80.7859
20
132.4072
0
VERTEX
8
CUT
10
80.6262
20
132.4952
0
VERTEX
8
CUT
10
80.5744
20
132.5206
0
VERTEX
8
CUT
10
80.4069
20
132.5929
0
VERTEX
8
CUT
10
80.3529
20
132.6132
0
VERTEX
8
CUT
10
80.1793
20
132.6690
0
VERTEX
8
CUT
10
80.1236
20
132.6841
0
VERTEX
8
CUT
10
79.9454
20
132.7230
0
VERTEX
8
CUT
10
79.8885
20
132.7326
0
VERTEX
8
CUT
10
79.7074
20
132.7542
0
VERTEX
8
CUT
10
79.6499
20
132.7583
0
VERTEX
8
CUT
10
79.4675
20
132.7624
0
VERTEX
8
CUT
10
79.4099
20
132.7610
0
VERTEX
8
CUT
10
79.2280
20
132.7476
0
VERTEX
8
CUT
10
79.1707
20
132.7406
0
VERTEX
8
CUT
10
78.9909
20
132.7098
0
VERTEX
8
CUT
10
78.9346
20
132.6973
0
VERTEX
8
CUT
10
78.7586
20
132.6494
0
VERTEX
8
CUT
10
78.7038
20
132.6316
0
VERTEX
8
CUT
10
78.5332
20
132.5670
0
VERTEX
8
CUT
10
78.4803
20
132.5440
0
VERTEX
8
CUT
10
78.3167
20
132.4633
0
VERTEX
8
CUT
10
78.2663
20
132.4353
0
VERTEX
8
CUT
10
78.1112
20
132.3393
0
VERTEX
8
CUT
10
78.0637
20
132.3066
0
VERTEX
8
CUT
10
77.9185
20
132.1962
0
VERTEX
8
CUT
10
77.8744
20
132.1591
0
VERTEX
8
CUT
10
77.7405
20
132.0352
0
VERTEX
8
CUT
10
77.7001
20
131.9940
0
VERTEX
8
CUT
10
77.5788
20
131.8578
0
VERTEX
8
CUT
10
77.5425
20
131.8130
0
VERTEX
8
CUT
10
77.4348
20
131.6658
0
VERTEX
8
CUT
10
77.4030
20
131.6176
0
VERTEX
8
CUT
10
77.3087
20
131.4586
0
VERTEX
8
CUT
10
77.2945
20
131.4334
0
VERTEX
8
CUT
10
77.2682
20
131.3837
0
VERTEX
8
CUT
10
77.2616
20
131.3708
0
VERTEX
8
CUT
10
77.2197
20
131.2870
0
VERTEX
8
CUT
10
77.2134
20
131.2740
0
VERTEX
8
CUT
10
76.6878
20
130.1556
0
VERTEX
8
CUT
10
76.6802
20
130.1388
0
VERTEX
8
CUT
10
76.6325
20
130.0287
0
VERTEX
8
CUT
10
76.6255
20
130.0116
0
VERTEX
8
CUT
10
76.5699
20
129.8716
0
VERTEX
8
CUT
10
76.5634
20
129.8544
0
VERTEX
8
CUT
10
76.5226
20
129.7415
0
VERTEX
8
CUT
10
76.5166
20
129.7241
0
VERTEX
8
CUT
10
76.0568
20
128.3187
0
VERTEX
8
CUT
10
76.0523
20
128.3045
0
VERTEX
8
CUT
10
76.0245
20
128.2116
0
VERTEX
8
CUT
10
76.0204
20
128.1973
0
VERTEX
8
CUT
10
76.0050
20
128.1411
0
VERTEX
8
CUT
10
75.9979
20
128.1121
0
VERTEX
8
CUT
10
75.9562
20
127.9228
0
VERTEX
8
CUT
10
75.9505
20
127.8935
0
VERTEX
8
CUT
10
75.9408
20
127.8361
0
VERTEX
8
CUT
10
75.9385
20
127.8213
0
VERTEX
8
CUT
10
75.9248
20
127.7253
0
VERTEX
8
CUT
10
75.9229
20
127.7105
0
VERTEX
8
CUT
10
75.6741
20
125.5985
0
VERTEX
8
CUT
10
75.6723
20
125.5811
0
VERTEX
8
CUT
10
75.6623
20
125.4679
0
VERTEX
8
CUT
10
75.6610
20
125.4505
0
VERTEX
8
CUT
10
75.6526
20
125.3081
0
VERTEX
8
CUT
10
75.6518
20
125.2906
0
VERTEX
8
CUT
10
75.6484
20
125.1770
0
VERTEX
8
CUT
10
75.6482
20
125.1595
0
VERTEX
8
CUT
10
75.6470
20
123.4154
0
VERTEX
8
CUT
10
75.6472
20
123.3984
0
VERTEX
8
CUT
10
75.6503
20
123.2879
0
VERTEX
8
CUT
10
75.6510
20
123.2709
0
VERTEX
8
CUT
10
75.6588
20
123.1323
0
VERTEX
8
CUT
10
75.6600
20
123.1153
0
VERTEX
8
CUT
10
75.6693
20
123.0052
0
VERTEX
8
CUT
10
75.6710
20
122.9882
0
VERTEX
8
CUT
10
76.0488
20
119.6525
0
VERTEX
8
CUT
10
76.0525
20
119.6110
0
VERTEX
8
CUT
10
76.0576
20
119.5347
0
VERTEX
8
CUT
10
76.0593
20
119.4512
0
VERTEX
8
CUT
10
76.0578
20
119.3957
0
VERTEX
8
CUT
10
76.0517
20
119.3125
0
VERTEX
8
CUT
10
76.0451
20
119.2573
0
VERTEX
8
CUT
10
76.0314
20
119.1750
0
VERTEX
8
CUT
10
76.0197
20
119.1207
0
VERTEX
8
CUT
10
75.9984
20
119.0400
0
VERTEX
8
CUT
10
75.9755
20
118.9670
0
VERTEX
8
CUT
10
75.9620
20
118.9275
0
VERTEX
8
CUT
10
75.9382
20
118.8626
0
VERTEX
8
CUT
10
75.9334
20
118.8489
0
VERTEX
8
CUT
10
75.9152
20
118.7952
0
VERTEX
8
CUT
10
75.9065
20
118.7675
0
VERTEX
8
CUT
10
75.8554
20
118.5886
0
VERTEX
8
CUT
10
75.8422
20
118.5321
0
VERTEX
8
CUT
10
75.8090
20
118.3516
0
VERTEX
8
CUT
10
75.8013
20
118.2940
0
SEQEND
0
ENDSEC
0
EOF
