0
SECTION
2
HEADER
9
$ACADVER
1
AC1009
9
$INSUNITS
70
4
0
ENDSEC
0
SECTION
2
TABLES
0
TABLE
2
LAYER
70
1
0
LAYER
2
CUT
70
0
62
7
6
CONTINUOUS
0
ENDTAB
0
ENDSEC
0
SECTION
2
ENTITIES
0
POLYLINE
8
CUT
66
1
70
1
10
0.0
20
0.0
30
0.0
0
VERTEX
8
CUT
10
89.8642
20
245.6609
0
VERTEX
8
CUT
10
91.4689
20
245.7145
0
VERTEX
8
CUT
10
95.1792
20
246.5554
0
VERTEX
8
CUT
10
97.6583
20
247.6276
0
VERTEX
8
CUT
10
99.3460
20
248.2427
0
VERTEX
8
CUT
10
100.9543
20
248.8007
0
VERTEX
8
CUT
10
101.5260
20
248.8679
0
VERTEX
8
CUT
10
109.3365
20
248.9526
0
VERTEX
8
CUT
10
111.1725
20
248.7314
0
VERTEX
8
CUT
10
113.1426
20
247.9250
0
VERTEX
8
CUT
10
114.4202
20
247.5809
0
VERTEX
8
CUT
10
115.4888
20
246.8464
0
VERTEX
8
CUT
10
115.5311
20
246.8174
0
VERTEX
8
CUT
10
115.8425
20
246.5069
0
VERTEX
8
CUT
10
115.8584
20
246.4883
0
VERTEX
8
CUT
10
115.8855
20
246.4567
0
VERTEX
8
CUT
10
115.9489
20
246.3828
0
VERTEX
8
CUT
10
117.0554
20
244.3399
0
VERTEX
8
CUT
10
120.6255
20
244.3367
0
VERTEX
8
CUT
10
122.5981
20
243.6306
0
VERTEX
8
CUT
10
123.6924
20
243.5002
0
VERTEX
8
CUT
10
124.0898
20
243.3739
0
VERTEX
8
CUT
10
124.8127
20
243.0185
0
VERTEX
8
CUT
10
125.0049
20
242.8500
0
VERTEX
8
CUT
10
125.0472
20
242.8129
0
VERTEX
8
CUT
10
125.0806
20
242.7836
0
VERTEX
8
CUT
10
125.1915
20
242.6864
0
VERTEX
8
CUT
10
125.7998
20
241.8315
0
VERTEX
8
CUT
10
126.0608
20
241.1276
0
VERTEX
8
CUT
10
126.2587
20
239.3923
0
VERTEX
8
CUT
10
125.9784
20
237.5448
0
VERTEX
8
CUT
10
125.2374
20
235.8990
0
VERTEX
8
CUT
10
124.3072
20
234.8505
0
VERTEX
8
CUT
10
123.2692
20
233.9457
0
VERTEX
8
CUT
10
122.2155
20
233.1994
0
VERTEX
8
CUT
10
120.1067
20
232.2068
0
VERTEX
8
CUT
10
117.6085
20
231.4910
0
VERTEX
8
CUT
10
114.8208
20
231.0668
0
VERTEX
8
CUT
10
111.6441
20
230.9109
0
VERTEX
8
CUT
10
109.0847
20
231.0938
0
VERTEX
8
CUT
10
104.8488
20
231.9895
0
VERTEX
8
CUT
10
102.0633
20
232.9384
0
VERTEX
8
CUT
10
99.0288
20
234.2444
0
VERTEX
8
CUT
10
97.8637
20
234.4533
0
VERTEX
8
CUT
10
96.6634
20
234.3050
0
VERTEX
8
CUT
10
95.8263
20
233.9394
0
VERTEX
8
CUT
10
95.6422
20
233.7412
0
VERTEX
8
CUT
10
95.5316
20
233.7572
0
VERTEX
8
CUT
10
95.1574
20
233.2570
0
VERTEX
8
CUT
10
95.2532
20
232.8537
0
VERTEX
8
CUT
10
95.2528
20
232.7368
0
VERTEX
8
CUT
10
95.8094
20
231.7815
0
VERTEX
8
CUT
10
96.1782
20
230.9675
0
VERTEX
8
CUT
10
96.4624
20
230.6606
0
VERTEX
8
CUT
10
99.7794
20
224.9667
0
VERTEX
8
CUT
10
101.1657
20
221.7370
0
VERTEX
8
CUT
10
102.7948
20
215.6906
0
VERTEX
8
CUT
10
103.7118
20
210.2745
0
VERTEX
8
CUT
10
103.9683
20
209.9699
0
VERTEX
8
CUT
10
104.2975
20
210.0039
0
VERTEX
8
CUT
10
104.4821
20
210.2788
0
VERTEX
8
CUT
10
104.3090
20
212.8839
0
VERTEX
8
CUT
10
103.7329
20
216.1006
0
VERTEX
8
CUT
10
102.1421
20
222.5293
0
VERTEX
8
CUT
10
102.3275
20
222.9903
0
VERTEX
8
CUT
10
107.3283
20
219.9773
0
VERTEX
8
CUT
10
110.2677
20
218.5518
0
VERTEX
8
CUT
10
113.3536
20
217.4516
0
VERTEX
8
CUT
10
116.6648
20
216.6086
0
VERTEX
8
CUT
10
120.8074
20
216.3026
0
VERTEX
8
CUT
10
136.8057
20
216.2110
0
VERTEX
8
CUT
10
141.5758
20
216.0241
0
VERTEX
8
CUT
10
142.9764
20
215.7419
0
VERTEX
8
CUT
10
144.4803
20
215.1146
0
VERTEX
8
CUT
10
146.8317
20
213.7710
0
VERTEX
8
CUT
10
148.1403
20
212.7166
0
VERTEX
8
CUT
10
149.1421
20
211.5819
0
VERTEX
8
CUT
10
149.7868
20
210.3540
0
VERTEX
8
CUT
10
150.0800
20
208.0163
0
VERTEX
8
CUT
10
149.7680
20
206.1607
0
VERTEX
8
CUT
10
146.5646
20
193.6185
0
VERTEX
8
CUT
10
146.1623
20
190.1823
0
VERTEX
8
CUT
10
145.5147
20
189.2328
0
VERTEX
8
CUT
10
144.9835
20
189.0658
0
VERTEX
8
CUT
10
144.4283
20
189.2025
0
VERTEX
8
CUT
10
144.1378
20
188.8836
0
VERTEX
8
CUT
10
145.4416
20
184.5122
0
VERTEX
8
CUT
10
145.8327
20
184.2516
0
VERTEX
8
CUT
10
146.1905
20
184.5563
0
VERTEX
8
CUT
10
147.4685
20
192.3074
0
VERTEX
8
CUT
10
150.8319
20
205.3961
0
VERTEX
8
CUT
10
152.5967
20
213.3961
0
VERTEX
8
CUT
10
153.0859
20
217.7663
0
VERTEX
8
CUT
10
153.3854
20
227.4110
0
VERTEX
8
CUT
10
153.5395
20
230.1485
0
VERTEX
8
CUT
10
153.5527
20
230.1892
0
VERTEX
8
CUT
10
153.6381
20
230.4526
0
VERTEX
8
CUT
10
153.7414
20
230.7718
0
VERTEX
8
CUT
10
154.4393
20
232.3180
0
VERTEX
8
CUT
10
155.2912
20
233.7585
0
VERTEX
8
CUT
10
156.0248
20
234.9931
0
VERTEX
8
CUT
10
156.1951
20
235.2726
0
VERTEX
8
CUT
10
156.1954
20
235.2802
0
VERTEX
8
CUT
10
156.2254
20
235.3307
0
VERTEX
8
CUT
10
156.2258
20
235.3389
0
VERTEX
8
CUT
10
156.3692
20
235.5813
0
VERTEX
8
CUT
10
156.4839
20
240.8190
0
VERTEX
8
CUT
10
156.4850
20
240.8412
0
VERTEX
8
CUT
10
156.4917
20
240.9852
0
VERTEX
8
CUT
10
156.5047
20
241.2595
0
VERTEX
8
CUT
10
156.5474
20
242.1673
0
VERTEX
8
CUT
10
156.9678
20
244.3256
0
VERTEX
8
CUT
10
157.6500
20
245.9269
0
VERTEX
8
CUT
10
157.6539
20
245.9342
0
VERTEX
8
CUT
10
157.6787
20
245.9803
0
VERTEX
8
CUT
10
157.7439
20
246.1016
0
VERTEX
8
CUT
10
157.9475
20
246.4804
0
VERTEX
8
CUT
10
159.3806
20
248.3764
0
VERTEX
8
CUT
10
161.7190
20
250.3251
0
VERTEX
8
CUT
10
161.8719
20
250.4073
0
VERTEX
8
CUT
10
161.9544
20
250.4516
0
VERTEX
8
CUT
10
161.9559
20
250.4524
0
VERTEX
8
CUT
10
161.9560
20
250.4524
0
VERTEX
8
CUT
10
163.9688
20
251.3007
0
VERTEX
8
CUT
10
166.4433
20
251.8810
0
VERTEX
8
CUT
10
168.3731
20
252.0325
0
VERTEX
8
CUT
10
168.4286
20
252.0348
0
VERTEX
8
CUT
10
168.5326
20
252.0391
0
VERTEX
8
CUT
10
168.7132
20
252.0467
0
VERTEX
8
CUT
10
168.8810
20
252.0537
0
VERTEX
8
CUT
10
171.0951
20
251.6112
0
VERTEX
8
CUT
10
173.6225
20
252.2481
0
VERTEX
8
CUT
10
175.2312
20
252.2503
0
VERTEX
8
CUT
10
175.2543
20
252.2483
0
VERTEX
8
CUT
10
175.2817
20
252.2460
0
VERTEX
8
CUT
10
175.3552
20
252.2397
0
VERTEX
8
CUT
10
175.5753
20
252.2210
0
VERTEX
8
CUT
10
175.6567
20
252.2066
0
VERTEX
8
CUT
10
177.1655
20
251.9051
0
VERTEX
8
CUT
10
178.9699
20
251.0341
0
VERTEX
8
CUT
10
180.7892
20
251.0580
0
VERTEX
8
CUT
10
182.0202
20
250.5426
0
VERTEX
8
CUT
10
182.4005
20
250.2325
0
VERTEX
8
CUT
10
182.4172
20
250.2189
0
VERTEX
8
CUT
10
182.4660
20
250.1791
0
VERTEX
8
CUT
10
182.5101
20
250.1431
0
VERTEX
8
CUT
10
182.8843
20
249.7065
0
VERTEX
8
CUT
10
183.6371
20
248.4219
0
VERTEX
8
CUT
10
183.9216
20
246.8726
0
VERTEX
8
CUT
10
183.9631
20
246.6201
0
VERTEX
8
CUT
10
183.8991
20
246.2591
0
VERTEX
8
CUT
10
183.8811
20
246.1572
0
VERTEX
8
CUT
10
183.8246
20
245.8379
0
VERTEX
8
CUT
10
183.6620
20
244.9197
0
VERTEX
8
CUT
10
182.6393
20
242.5816
0
VERTEX
8
CUT
10
181.6220
20
241.2570
0
VERTEX
8
CUT
10
181.6207
20
241.2556
0
VERTEX
8
CUT
10
181.6024
20
241.2373
0
VERTEX
8
CUT
10
181.3440
20
240.9776
0
VERTEX
8
CUT
10
181.1231
20
240.7557
0
VERTEX
8
CUT
10
180.2982
20
240.1141
0
VERTEX
8
CUT
10
175.6019
20
237.3385
0
VERTEX
8
CUT
10
174.3524
20
236.3317
0
VERTEX
8
CUT
10
173.4385
20
235.1712
0
VERTEX
8
CUT
10
173.1018
20
234.3555
0
VERTEX
8
CUT
10
172.9847
20
234.1696
0
VERTEX
8
CUT
10
172.8234
20
233.6809
0
VERTEX
8
CUT
10
172.6834
20
233.3417
0
VERTEX
8
CUT
10
172.5593
20
231.9550
0
VERTEX
8
CUT
10
172.4114
20
231.2274
0
VERTEX
8
CUT
10
172.4313
20
230.5247
0
VERTEX
8
CUT
10
172.3505
20
229.6224
0
VERTEX
8
CUT
10
172.2974
20
221.9930
0
VERTEX
8
CUT
10
172.2625
20
221.9266
0
VERTEX
8
CUT
10
172.2320
20
218.9944
0
VERTEX
8
CUT
10
172.3373
20
218.6679
0
VERTEX
8
CUT
10
172.4417
20
213.9665
0
VERTEX
8
CUT
10
172.7537
20
210.7135
0
VERTEX
8
CUT
10
173.1730
20
210.5122
0
VERTEX
8
CUT
10
173.4868
20
210.8555
0
VERTEX
8
CUT
10
173.2132
20
215.5688
0
VERTEX
8
CUT
10
173.3176
20
216.5300
0
VERTEX
8
CUT
10
173.5493
20
216.6659
0
VERTEX
8
CUT
10
177.7149
20
214.5173
0
VERTEX
8
CUT
10
185.9725
20
210.8164
0
VERTEX
8
CUT
10
190.9386
20
207.9360
0
VERTEX
8
CUT
10
195.2666
20
204.6231
0
VERTEX
8
CUT
10
200.0874
20
199.8146
0
VERTEX
8
CUT
10
200.5455
20
199.7713
0
VERTEX
8
CUT
10
200.7019
20
200.2662
0
VERTEX
8
CUT
10
198.9096
20
203.0801
0
VERTEX
8
CUT
10
195.6789
20
207.5305
0
VERTEX
8
CUT
10
191.7613
20
212.3977
0
VERTEX
8
CUT
10
191.1349
20
213.3100
0
VERTEX
8
CUT
10
191.0412
20
213.7397
0
VERTEX
8
CUT
10
191.5857
20
213.7971
0
VERTEX
8
CUT
10
193.6294
20
212.3712
0
VERTEX
8
CUT
10
197.7975
20
208.6922
0
VERTEX
8
CUT
10
202.7829
20
203.1866
0
VERTEX
8
CUT
10
206.3267
20
198.5002
0
VERTEX
8
CUT
10
206.8744
20
197.7193
0
VERTEX
8
CUT
10
209.7454
20
193.3716
0
VERTEX
8
CUT
10
209.8177
20
193.2568
0
VERTEX
8
CUT
10
210.0551
20
192.8800
0
VERTEX
8
CUT
10
210.3229
20
192.4549
0
VERTEX
8
CUT
10
211.2218
20
191.0284
0
VERTEX
8
CUT
10
215.0558
20
184.2485
0
VERTEX
8
CUT
10
215.9801
20
182.2962
0
VERTEX
8
CUT
10
216.8615
20
180.3275
0
VERTEX
8
CUT
10
218.0288
20
177.0140
0
VERTEX
8
CUT
10
218.8374
20
173.7768
0
VERTEX
8
CUT
10
219.1730
20
171.2983
0
VERTEX
8
CUT
10
219.2654
20
167.2782
0
VERTEX
8
CUT
10
219.1769
20
163.4906
0
VERTEX
8
CUT
10
218.8978
20
161.2752
0
VERTEX
8
CUT
10
217.6718
20
155.6910
0
VERTEX
8
CUT
10
214.9648
20
145.4577
0
VERTEX
8
CUT
10
214.5262
20
143.8715
0
VERTEX
8
CUT
10
214.3095
20
142.9805
0
VERTEX
8
CUT
10
213.7362
20
140.8135
0
VERTEX
8
CUT
10
213.1197
20
138.5513
0
VERTEX
8
CUT
10
213.0591
20
138.2538
0
VERTEX
8
CUT
10
212.6642
20
136.7610
0
VERTEX
8
CUT
10
211.7506
20
131.9514
0
VERTEX
8
CUT
10
211.1411
20
127.1083
0
VERTEX
8
CUT
10
210.9270
20
123.6215
0
VERTEX
8
CUT
10
210.9587
20
122.2958
0
VERTEX
8
CUT
10
210.9274
20
121.8124
0
VERTEX
8
CUT
10
211.0196
20
119.7511
0
VERTEX
8
CUT
10
211.0480
20
118.5628
0
VERTEX
8
CUT
10
211.3774
20
115.9760
0
VERTEX
8
CUT
10
212.2571
20
112.7812
0
VERTEX
8
CUT
10
211.7585
20
112.4343
0
VERTEX
8
CUT
10
210.1685
20
112.4332
0
VERTEX
8
CUT
10
209.0690
20
112.6345
0
VERTEX
8
CUT
10
208.0756
20
113.1536
0
VERTEX
8
CUT
10
204.9866
20
116.1240
0
VERTEX
8
CUT
10
204.1193
20
117.5174
0
VERTEX
8
CUT
10
203.3729
20
119.5269
0
VERTEX
8
CUT
10
203.0628
20
120.0437
0
VERTEX
8
CUT
10
202.7443
20
120.1485
0
VERTEX
8
CUT
10
202.4435
20
119.9336
0
VERTEX
8
CUT
10
202.4311
20
119.5322
0
VERTEX
8
CUT
10
203.3536
20
116.5711
0
VERTEX
8
CUT
10
204.4185
20
114.8959
0
VERTEX
8
CUT
10
206.7726
20
112.5420
0
VERTEX
8
CUT
10
208.5726
20
111.3525
0
VERTEX
8
CUT
10
210.5726
20
110.6130
0
VERTEX
8
CUT
10
213.7377
20
110.2256
0
VERTEX
8
CUT
10
217.7745
20
110.2252
0
VERTEX
8
CUT
10
218.7292
20
110.3126
0
VERTEX
8
CUT
10
218.9277
20
110.3171
0
VERTEX
8
CUT
10
219.1992
20
110.3556
0
VERTEX
8
CUT
10
222.0733
20
110.6188
0
VERTEX
8
CUT
10
228.4519
20
111.5377
0
VERTEX
8
CUT
10
234.5536
20
111.7198
0
VERTEX
8
CUT
10
236.4888
20
111.5104
0
VERTEX
8
CUT
10
237.6993
20
111.3684
0
VERTEX
8
CUT
10
239.5270
20
111.0379
0
VERTEX
8
CUT
10
244.1259
20
109.2289
0
VERTEX
8
CUT
10
246.5123
20
107.5658
0
VERTEX
8
CUT
10
246.6017
20
107.4817
0
VERTEX
8
CUT
10
246.7458
20
107.3461
0
VERTEX
8
CUT
10
246.8580
20
107.2405
0
VERTEX
8
CUT
10
247.0992
20
107.0136
0
VERTEX
8
CUT
10
247.4205
20
106.5478
0
VERTEX
8
CUT
10
247.4765
20
106.3821
0
VERTEX
8
CUT
10
247.4838
20
106.3606
0
VERTEX
8
CUT
10
247.4904
20
106.3409
0
VERTEX
8
CUT
10
247.4965
20
106.3229
0
VERTEX
8
CUT
10
247.4830
20
106.0318
0
VERTEX
8
CUT
10
247.1282
20
105.7528
0
VERTEX
8
CUT
10
246.6147
20
105.7439
0
VERTEX
8
CUT
10
243.6510
20
106.6308
0
VERTEX
8
CUT
10
243.2960
20
106.3910
0
VERTEX
8
CUT
10
243.4029
20
105.9441
0
VERTEX
8
CUT
10
246.7428
20
104.5600
0
VERTEX
8
CUT
10
248.7630
20
103.4200
0
VERTEX
8
CUT
10
251.3038
20
101.0543
0
VERTEX
8
CUT
10
250.8603
20
100.3593
0
VERTEX
8
CUT
10
251.0573
20
99.9310
0
VERTEX
8
CUT
10
253.1429
20
100.2512
0
VERTEX
8
CUT
10
253.4854
20
100.1735
0
VERTEX
8
CUT
10
253.6393
20
100.1387
0
VERTEX
8
CUT
10
253.7792
20
100.1070
0
VERTEX
8
CUT
10
254.3644
20
99.9743
0
VERTEX
8
CUT
10
255.6351
20
99.2968
0
VERTEX
8
CUT
10
256.7596
20
98.0789
0
VERTEX
8
CUT
10
258.8559
20
93.9507
0
VERTEX
8
CUT
10
259.1665
20
93.1679
0
VERTEX
8
CUT
10
259.8460
20
91.2707
0
VERTEX
8
CUT
10
259.9455
20
89.2068
0
VERTEX
8
CUT
10
259.2010
20
87.5873
0
VERTEX
8
CUT
10
258.6600
20
87.0520
0
VERTEX
8
CUT
10
257.2616
20
86.1109
0
VERTEX
8
CUT
10
256.6909
20
85.7554
0
VERTEX
8
CUT
10
252.2559
20
83.2215
0
VERTEX
8
CUT
10
250.8313
20
82.4653
0
VERTEX
8
CUT
10
250.0596
20
82.0811
0
VERTEX
8
CUT
10
249.6309
20
81.8676
0
VERTEX
8
CUT
10
249.5648
20
81.8347
0
VERTEX
8
CUT
10
248.1759
20
81.1432
0
VERTEX
8
CUT
10
241.9604
20
78.1810
0
VERTEX
8
CUT
10
230.1213
20
72.9024
0
VERTEX
8
CUT
10
229.2805
20
72.4206
0
VERTEX
8
CUT
10
229.2765
20
72.4188
0
VERTEX
8
CUT
10
228.5453
20
71.9992
0
VERTEX
8
CUT
10
226.4315
20
70.7878
0
VERTEX
8
CUT
10
225.9497
20
70.3702
0
VERTEX
8
CUT
10
225.8909
20
70.3357
0
VERTEX
8
CUT
10
225.7297
20
70.1984
0
VERTEX
8
CUT
10
225.2477
20
69.8499
0
VERTEX
8
CUT
10
224.0169
20
68.6160
0
VERTEX
8
CUT
10
223.3314
20
67.5556
0
VERTEX
8
CUT
10
223.2615
20
67.4694
0
VERTEX
8
CUT
10
223.2252
20
67.3914
0
VERTEX
8
CUT
10
223.1740
20
67.3121
0
VERTEX
8
CUT
10
223.0902
20
67.1009
0
VERTEX
8
CUT
10
222.6076
20
66.0625
0
VERTEX
8
CUT
10
222.2358
20
64.3469
0
VERTEX
8
CUT
10
222.2042
20
64.2083
0
VERTEX
8
CUT
10
222.1569
20
64.0010
0
VERTEX
8
CUT
10
221.9769
20
63.2111
0
VERTEX
8
CUT
10
221.8025
20
62.4460
0
VERTEX
8
CUT
10
221.6058
20
61.9064
0
VERTEX
8
CUT
10
221.2544
20
61.1541
0
VERTEX
8
CUT
10
220.0899
20
59.7492
0
VERTEX
8
CUT
10
211.6979
20
54.1461
0
VERTEX
8
CUT
10
209.0796
20
52.7074
0
VERTEX
8
CUT
10
204.5793
20
50.8198
0
VERTEX
8
CUT
10
204.3932
20
50.7557
0
VERTEX
8
CUT
10
204.2920
20
50.7209
0
VERTEX
8
CUT
10
204.1876
20
50.6849
0
VERTEX
8
CUT
10
203.8877
20
50.5816
0
VERTEX
8
CUT
10
198.3946
20
49.3029
0
VERTEX
8
CUT
10
191.8913
20
48.7180
0
VERTEX
8
CUT
10
186.1380
20
48.7794
0
VERTEX
8
CUT
10
181.0036
20
49.4516
0
VERTEX
8
CUT
10
178.7921
20
49.9425
0
VERTEX
8
CUT
10
178.7067
20
49.9623
0
VERTEX
8
CUT
10
178.5436
20
50.0002
0
VERTEX
8
CUT
10
178.2669
20
50.0645
0
VERTEX
8
CUT
10
177.2115
20
50.3098
0
VERTEX
8
CUT
10
174.9789
20
50.9849
0
VERTEX
8
CUT
10
172.7550
20
51.7984
0
VERTEX
8
CUT
10
170.9999
20
52.5169
0
VERTEX
8
CUT
10
168.1729
20
53.9899
0
VERTEX
8
CUT
10
166.0463
20
55.3883
0
VERTEX
8
CUT
10
165.5819
20
55.7366
0
VERTEX
8
CUT
10
165.3981
20
55.8745
0
VERTEX
8
CUT
10
165.3392
20
55.9187
0
VERTEX
8
CUT
10
165.2682
20
55.9719
0
VERTEX
8
CUT
10
163.7390
20
57.2648
0
VERTEX
8
CUT
10
163.6448
20
57.3569
0
VERTEX
8
CUT
10
163.4299
20
57.5672
0
VERTEX
8
CUT
10
163.3316
20
57.6634
0
VERTEX
8
CUT
10
163.2479
20
57.7453
0
VERTEX
8
CUT
10
161.0714
20
60.3579
0
VERTEX
8
CUT
10
160.8790
20
60.5968
0
VERTEX
8
CUT
10
160.8447
20
60.6394
0
VERTEX
8
CUT
10
160.5702
20
60.9802
0
VERTEX
8
CUT
10
160.2530
20
61.3742
0
VERTEX
8
CUT
10
154.7070
20
69.8880
0
VERTEX
8
CUT
10
147.3643
20
80.6429
0
VERTEX
8
CUT
10
147.3477
20
80.6678
0
VERTEX
8
CUT
10
147.2635
20
80.8196
0
VERTEX
8
CUT
10
147.1873
20
80.9613
0
VERTEX
8
CUT
10
147.0329
20
81.2483
0
VERTEX
8
CUT
10
146.5946
20
82.0632
0
VERTEX
8
CUT
10
145.4376
20
84.2144
0
VERTEX
8
CUT
10
144.3436
20
86.5187
0
VERTEX
8
CUT
10
143.4134
20
89.1575
0
VERTEX
8
CUT
10
143.3763
20
89.2986
0
VERTEX
8
CUT
10
143.3753
20
89.3022
0
VERTEX
8
CUT
10
143.3715
20
89.3169
0
VERTEX
8
CUT
10
143.3163
20
89.5264
0
VERTEX
8
CUT
10
142.8336
20
91.9764
0
VERTEX
8
CUT
10
142.8269
20
92.0751
0
VERTEX
8
CUT
10
142.7930
20
94.6387
0
VERTEX
8
CUT
10
143.2533
20
97.0740
0
VERTEX
8
CUT
10
143.3354
20
97.4085
0
VERTEX
8
CUT
10
144.0820
20
99.5193
0
VERTEX
8
CUT
10
144.4617
20
100.4137
0
VERTEX
8
CUT
10
145.5987
20
102.6372
0
VERTEX
8
CUT
10
146.0257
20
103.3583
0
VERTEX
8
CUT
10
147.7180
20
106.0135
0
VERTEX
8
CUT
10
150.6685
20
110.1871
0
VERTEX
8
CUT
10
153.1007
20
113.5658
0
VERTEX
8
CUT
10
157.1931
20
118.6673
0
VERTEX
8
CUT
10
159.2763
20
120.9349
0
VERTEX
8
CUT
10
161.2574
20
122.8845
0
VERTEX
8
CUT
10
165.0146
20
125.8781
0
VERTEX
8
CUT
10
169.2089
20
128.1756
0
VERTEX
8
CUT
10
173.2438
20
129.3981
0
VERTEX
8
CUT
10
175.2750
20
129.5887
0
VERTEX
8
CUT
10
177.1420
20
129.5266
0
VERTEX
8
CUT
10
178.9697
20
129.1768
0
VERTEX
8
CUT
10
181.4955
20
128.1390
0
VERTEX
8
CUT
10
184.7913
20
125.4803
0
VERTEX
8
CUT
10
185.2492
20
125.5575
0
VERTEX
8
CUT
10
185.3256
20
125.9837
0
VERTEX
8
CUT
10
183.2375
20
128.0626
0
VERTEX
8
CUT
10
179.7842
20
129.9553
0
VERTEX
8
CUT
10
177.1195
20
130.6339
0
VERTEX
8
CUT
10
174.3641
20
130.7251
0
VERTEX
8
CUT
10
171.4354
20
130.2201
0
VERTEX
8
CUT
10
168.4415
20
129.1256
0
VERTEX
8
CUT
10
165.3925
20
127.4156
0
VERTEX
8
CUT
10
162.3336
20
125.1108
0
VERTEX
8
CUT
10
157.6896
20
120.7398
0
VERTEX
8
CUT
10
156.6070
20
120.1439
0
VERTEX
8
CUT
10
156.1462
20
120.9867
0
VERTEX
8
CUT
10
155.0090
20
125.2742
0
VERTEX
8
CUT
10
153.8271
20
128.0232
0
VERTEX
8
CUT
10
153.6194
20
128.3698
0
VERTEX
8
CUT
10
153.4768
20
128.6953
0
VERTEX
8
CUT
10
152.9253
20
129.5288
0
VERTEX
8
CUT
10
152.2516
20
130.6536
0
VERTEX
8
CUT
10
150.2795
20
133.1976
0
VERTEX
8
CUT
10
147.8812
20
135.6258
0
VERTEX
8
CUT
10
145.0290
20
138.0185
0
VERTEX
8
CUT
10
141.7744
20
140.3289
0
VERTEX
8
CUT
10
135.9359
20
143.7035
0
VERTEX
8
CUT
10
128.8192
20
146.8968
0
VERTEX
8
CUT
10
122.8936
20
149.0350
0
VERTEX
8
CUT
10
118.2986
20
150.4757
0
VERTEX
8
CUT
10
116.4197
20
151.0795
0
VERTEX
8
CUT
10
113.8944
20
151.8911
0
VERTEX
8
CUT
10
111.5158
20
152.6555
0
VERTEX
8
CUT
10
107.5524
20
153.9292
0
VERTEX
8
CUT
10
103.3173
20
155.4005
0
VERTEX
8
CUT
10
100.7753
20
156.3467
0
VERTEX
8
CUT
10
100.4878
20
156.4538
0
VERTEX
8
CUT
10
100.4560
20
156.4656
0
VERTEX
8
CUT
10
99.1049
20
156.9685
0
VERTEX
8
CUT
10
92.6165
20
159.6675
0
VERTEX
8
CUT
10
88.9313
20
161.4485
0
VERTEX
8
CUT
10
81.7994
20
165.3671
0
VERTEX
8
CUT
10
76.9511
20
168.4164
0
VERTEX
8
CUT
10
72.2970
20
171.7530
0
VERTEX
8
CUT
10
67.8899
20
175.2718
0
VERTEX
8
CUT
10
63.7583
20
178.9436
0
VERTEX
8
CUT
10
60.1964
20
182.5058
0
VERTEX
8
CUT
10
59.8235
20
182.8915
0
VERTEX
8
CUT
10
56.5941
20
186.5823
0
VERTEX
8
CUT
10
56.5144
20
186.6796
0
VERTEX
8
CUT
10
56.5054
20
186.6906
0
VERTEX
8
CUT
10
56.4867
20
186.7134
0
VERTEX
8
CUT
10
56.4070
20
186.8108
0
VERTEX
8
CUT
10
53.6177
20
190.4373
0
VERTEX
8
CUT
10
53.0368
20
191.2759
0
VERTEX
8
CUT
10
52.7254
20
191.7484
0
VERTEX
8
CUT
10
52.6748
20
191.8278
0
VERTEX
8
CUT
10
52.5752
20
191.9840
0
VERTEX
8
CUT
10
52.0678
20
192.7796
0
VERTEX
8
CUT
10
51.1629
20
194.1983
0
VERTEX
8
CUT
10
50.6769
20
194.9605
0
VERTEX
8
CUT
10
50.4372
20
195.3362
0
VERTEX
8
CUT
10
49.2018
20
197.6382
0
VERTEX
8
CUT
10
48.1176
20
199.8519
0
VERTEX
8
CUT
10
46.7266
20
203.1436
0
VERTEX
8
CUT
10
46.6797
20
203.2739
0
VERTEX
8
CUT
10
46.5465
20
203.6447
0
VERTEX
8
CUT
10
45.2173
20
207.7736
0
VERTEX
8
CUT
10
44.1738
20
212.3095
0
VERTEX
8
CUT
10
43.7117
20
216.0676
0
VERTEX
8
CUT
10
43.5858
20
217.8669
0
VERTEX
8
CUT
10
43.6153
20
221.1755
0
VERTEX
8
CUT
10
43.6580
20
223.3661
0
VERTEX
8
CUT
10
43.6679
20
223.8792
0
VERTEX
8
CUT
10
43.8055
20
225.6423
0
VERTEX
8
CUT
10
44.3794
20
228.6223
0
VERTEX
8
CUT
10
45.0232
20
231.0851
0
VERTEX
8
CUT
10
45.3430
20
232.0868
0
VERTEX
8
CUT
10
46.0594
20
233.7501
0
VERTEX
8
CUT
10
47.1479
20
236.2254
0
VERTEX
8
CUT
10
48.6062
20
238.8041
0
VERTEX
8
CUT
10
48.8251
20
239.1635
0
VERTEX
8
CUT
10
50.0383
20
240.7949
0
VERTEX
8
CUT
10
50.3601
20
241.2094
0
VERTEX
8
CUT
10
52.8836
20
243.9251
0
VERTEX
8
CUT
10
55.5954
20
246.2531
0
VERTEX
8
CUT
10
57.9110
20
247.9873
0
VERTEX
8
CUT
10
61.4346
20
250.0547
0
VERTEX
8
CUT
10
63.7988
20
251.1611
0
VERTEX
8
CUT
10
67.3511
20
252.3992
0
VERTEX
8
CUT
10
67.9436
20
252.5841
0
VERTEX
8
CUT
10
68.3309
20
252.7050
0
VERTEX
8
CUT
10
68.6207
20
252.7955
0
VERTEX
8
CUT
10
69.0284
20
252.9227
0
VERTEX
8
CUT
10
72.9583
20
253.6599
0
VERTEX
8
CUT
10
75.4186
20
254.0483
0
VERTEX
8
CUT
10
77.5979
20
254.3015
0
VERTEX
8
CUT
10
79.1793
20
254.4045
0
VERTEX
8
CUT
10
94.0192
20
255.2450
0
VERTEX
8
CUT
10
99.8964
20
255.8840
0
VERTEX
8
CUT
10
104.8134
20
256.8312
0
VERTEX
8
CUT
10
112.7154
20
259.2393
0
VERTEX
8
CUT
10
113.3551
20
259.3381
0
VERTEX
8
CUT
10
113.6361
20
259.1586
0
VERTEX
8
CUT
10
113.5998
20
258.7530
0
VERTEX
8
CUT
10
112.6240
20
257.6854
0
VERTEX
8
CUT
10
111.8334
20
256.9824
0
VERTEX
8
CUT
10
111.4626
20
256.6711
0
VERTEX
8
CUT
10
107.9180
20
254.2239
0
VERTEX
8
CUT
10
107.6821
20
254.0794
0
VERTEX
8
CUT
10
104.6822
20
252.5790
0
VERTEX
8
CUT
10
101.9428
20
251.5807
0
VERTEX
8
CUT
10
99.2279
20
250.8666
0
VERTEX
8
CUT
10
94.5687
20
249.8628
0
VERTEX
8
CUT
10
93.0977
20
249.6333
0
VERTEX
8
CUT
10
93.0659
20
249.6283
0
VERTEX
8
CUT
10
91.8855
20
249.4441
0
VERTEX
8
CUT
10
89.4563
20
249.0650
0
VERTEX
8
CUT
10
81.2103
20
247.8639
0
VERTEX
8
CUT
10
75.4543
20
246.7037
0
VERTEX
8
CUT
10
75.2336
20
246.3691
0
VERTEX
8
CUT
10
75.4585
20
245.9988
0
VERTEX
8
CUT
10
77.2982
20
245.7763
0
VERTEX
8
CUT
10
81.5619
20
245.6576
0
VERTEX
8
CUT
10
82.9028
20
245.5633
0
VERTEX
8
CUT
10
85.3983
20
245.5507
0
VERTEX
8
CUT
10
86.0324
20
245.5331
0
VERTEX
8
CUT
10
86.4093
20
245.5457
0
VERTEX
8
CUT
10
89.0961
20
245.5322
0
SEQEND
0
POLYLINE
8
CUT
66
1
70
1
10
0.0
20
0.0
30
0.0
0
VERTEX
8
CUT
10
254.2112
20
92.2381
0
VERTEX
8
CUT
10
254.8221
20
92.2381
0
VERTEX
8
CUT
10
255.7384
20
93.0322
0
VERTEX
8
CUT
10
255.7689
20
93.5820
0
VERTEX
8
CUT
10
255.2192
20
94.4067
0
VERTEX
8
CUT
10
254.4861
20
95.1397
0
VERTEX
8
CUT
10
254.1290
20
95.3438
0
VERTEX
8
CUT
10
253.8065
20
95.6535
0
VERTEX
8
CUT
10
253.4487
20
95.7326
0
VERTEX
8
CUT
10
253.2033
20
95.8728
0
VERTEX
8
CUT
10
252.0121
20
95.9950
0
VERTEX
8
CUT
10
251.7701
20
95.8740
0
VERTEX
8
CUT
10
250.3197
20
95.8699
0
VERTEX
8
CUT
10
250.0383
20
95.5875
0
VERTEX
8
CUT
10
250.1520
20
95.2054
0
VERTEX
8
CUT
10
251.5752
20
94.7664
0
VERTEX
8
CUT
10
251.7104
20
94.6373
0
VERTEX
8
CUT
10
251.7372
20
94.5900
0
VERTEX
8
CUT
10
252.7957
20
93.3871
0
VERTEX
8
CUT
10
252.9284
20
93.0933
0
VERTEX
8
CUT
10
253.3865
20
92.7879
0
VERTEX
8
CUT
10
253.4966
20
92.7596
0
SEQEND
0
POLYLINE
8
CUT
66
1
70
1
10
0.0
20
0.0
30
0.0
0
VERTEX
8
CUT
10
245.5005
20
90.3619
0
VERTEX
8
CUT
10
245.8847
20
90.5659
0
VERTEX
8
CUT
10
246.2260
20
92.0362
0
VERTEX
8
CUT
10
246.8778
20
93.2990
0
VERTEX
8
CUT
10
246.6907
20
93.7551
0
VERTEX
8
CUT
10
246.2608
20
93.7167
0
VERTEX
8
CUT
10
245.6018
20
92.8101
0
VERTEX
8
CUT
10
245.1677
20
91.5637
0
VERTEX
8
CUT
10
245.1664
20
90.6405
0
SEQEND
0
POLYLINE
8
CUT
66
1
70
1
10
0.0
20
0.0
30
0.0
0
VERTEX
8
CUT
10
235.7042
20
108.4308
0
VERTEX
8
CUT
10
234.9186
20
108.4382
0
VERTEX
8
CUT
10
234.6401
20
108.1440
0
VERTEX
8
CUT
10
234.9463
20
107.6793
0
VERTEX
8
CUT
10
238.8604
20
107.1370
0
VERTEX
8
CUT
10
239.2309
20
107.4747
0
VERTEX
8
CUT
10
238.9253
20
107.9082
0
SEQEND
0
POLYLINE
8
CUT
66
1
70
1
10
0.0
20
0.0
30
0.0
0
VERTEX
8
CUT
10
214.5350
20
103.6309
0
VERTEX
8
CUT
10
215.6346
20
103.6614
0
VERTEX
8
CUT
10
218.1086
20
104.4861
0
VERTEX
8
CUT
10
222.3236
20
106.2882
0
VERTEX
8
CUT
10
222.8734
20
106.8380
0
VERTEX
8
CUT
10
222.0487
20
107.0212
0
VERTEX
8
CUT
10
221.9579
20
107.0014
0
VERTEX
8
CUT
10
221.8448
20
107.0735
0
VERTEX
8
CUT
10
216.4096
20
105.8034
0
VERTEX
8
CUT
10
213.4070
20
106.1629
0
VERTEX
8
CUT
10
212.6941
20
105.8703
0
VERTEX
8
CUT
10
212.5668
20
105.4224
0
VERTEX
8
CUT
10
212.7960
20
104.9339
0
VERTEX
8
CUT
10
212.8541
20
104.8781
0
VERTEX
8
CUT
10
213.0383
20
104.3945
0
VERTEX
8
CUT
10
213.6492
20
103.9058
0
SEQEND
0
POLYLINE
8
CUT
66
1
70
1
10
0.0
20
0.0
30
0.0
0
VERTEX
8
CUT
10
205.8455
20
67.3569
0
VERTEX
8
CUT
10
206.1446
20
67.2634
0
VERTEX
8
CUT
10
206.3281
20
67.1064
0
VERTEX
8
CUT
10
207.3821
20
66.7865
0
VERTEX
8
CUT
10
207.6699
20
66.7870
0
VERTEX
8
CUT
10
207.8576
20
66.7284
0
VERTEX
8
CUT
10
208.0446
20
66.7327
0
VERTEX
8
CUT
10
208.0477
20
66.7318
0
VERTEX
8
CUT
10
208.1211
20
66.7345
0
VERTEX
8
CUT
10
209.4196
20
66.7643
0
VERTEX
8
CUT
10
210.1203
20
67.2298
0
VERTEX
8
CUT
10
210.3765
20
67.7006
0
VERTEX
8
CUT
10
210.6498
20
68.0214
0
VERTEX
8
CUT
10
210.7259
20
68.3427
0
VERTEX
8
CUT
10
211.9886
20
70.6628
0
VERTEX
8
CUT
10
213.0611
20
73.2956
0
VERTEX
8
CUT
10
212.7424
20
73.7098
0
VERTEX
8
CUT
10
211.9932
20
73.3678
0
VERTEX
8
CUT
10
211.4859
20
73.6101
0
VERTEX
8
CUT
10
210.6197
20
75.7139
0
VERTEX
8
CUT
10
209.8006
20
76.5778
0
VERTEX
8
CUT
10
208.7040
20
77.0971
0
VERTEX
8
CUT
10
207.3190
20
77.2730
0
VERTEX
8
CUT
10
205.1031
20
76.8396
0
VERTEX
8
CUT
10
201.6447
20
74.6999
0
VERTEX
8
CUT
10
199.8914
20
74.1765
0
VERTEX
8
CUT
10
199.6547
20
73.7523
0
VERTEX
8
CUT
10
199.9060
20
73.3718
0
VERTEX
8
CUT
10
199.9018
20
73.3586
0
VERTEX
8
CUT
10
199.9545
20
73.2984
0
VERTEX
8
CUT
10
200.0617
20
73.1360
0
VERTEX
8
CUT
10
200.6583
20
72.4953
0
VERTEX
8
CUT
10
201.2137
20
71.8616
0
VERTEX
8
CUT
10
201.8202
20
71.2474
0
VERTEX
8
CUT
10
204.1813
20
68.7116
0
SEQEND
0
POLYLINE
8
CUT
66
1
70
1
10
0.0
20
0.0
30
0.0
0
VERTEX
8
CUT
10
182.7508
20
194.9606
0
VERTEX
8
CUT
10
179.5808
20
197.7577
0
VERTEX
8
CUT
10
177.7706
20
199.7549
0
VERTEX
8
CUT
10
176.5133
20
201.6563
0
VERTEX
8
CUT
10
175.2944
20
204.1487
0
VERTEX
8
CUT
10
174.9354
20
204.3155
0
VERTEX
8
CUT
10
174.6021
20
204.0470
0
VERTEX
8
CUT
10
174.9199
20
202.9759
0
VERTEX
8
CUT
10
176.0977
20
200.7351
0
VERTEX
8
CUT
10
177.4532
20
198.7426
0
VERTEX
8
CUT
10
179.0560
20
196.9531
0
VERTEX
8
CUT
10
180.8640
20
195.3229
0
VERTEX
8
CUT
10
182.2676
20
194.3649
0
VERTEX
8
CUT
10
182.7027
20
194.4069
0
SEQEND
0
POLYLINE
8
CUT
66
1
70
1
10
0.0
20
0.0
30
0.0
0
VERTEX
8
CUT
10
170.9797
20
59.8313
0
VERTEX
8
CUT
10
172.3542
20
60.0145
0
VERTEX
8
CUT
10
173.3927
20
60.4116
0
VERTEX
8
CUT
10
174.1257
20
60.9308
0
VERTEX
8
CUT
10
174.6755
20
61.4806
0
VERTEX
8
CUT
10
174.8587
20
62.0915
0
VERTEX
8
CUT
10
171.9266
20
60.9919
0
VERTEX
8
CUT
10
169.4831
20
60.8697
0
VERTEX
8
CUT
10
168.5973
20
60.6559
0
VERTEX
8
CUT
10
168.7806
20
60.3200
0
VERTEX
8
CUT
10
169.6663
20
59.9534
0
SEQEND
0
POLYLINE
8
CUT
66
1
70
1
10
0.0
20
0.0
30
0.0
0
VERTEX
8
CUT
10
120.7884
20
202.3058
0
VERTEX
8
CUT
10
121.0888
20
202.1559
0
VERTEX
8
CUT
10
123.6317
20
202.5551
0
VERTEX
8
CUT
10
126.3414
20
202.7104
0
VERTEX
8
CUT
10
129.7947
20
202.5268
0
VERTEX
8
CUT
10
132.8032
20
201.7539
0
VERTEX
8
CUT
10
135.7798
20
200.3714
0
VERTEX
8
CUT
10
136.2242
20
200.5229
0
VERTEX
8
CUT
10
136.2242
20
200.9609
0
VERTEX
8
CUT
10
134.6457
20
201.9070
0
VERTEX
8
CUT
10
131.8432
20
203.0555
0
VERTEX
8
CUT
10
129.5496
20
203.5424
0
VERTEX
8
CUT
10
126.4582
20
203.7259
0
VERTEX
8
CUT
10
123.5646
20
203.5471
0
VERTEX
8
CUT
10
120.9601
20
202.9115
0
VERTEX
8
CUT
10
120.7090
20
202.5956
0
SEQEND
0
POLYLINE
8
CUT
66
1
70
1
10
0.0
20
0.0
30
0.0
0
VERTEX
8
CUT
10
62.7651
20
236.6622
0
VERTEX
8
CUT
10
58.2005
20
233.8339
0
VERTEX
8
CUT
10
56.3640
20
232.2430
0
VERTEX
8
CUT
10
54.4564
20
230.1431
0
VERTEX
8
CUT
10
54.5358
20
229.6860
0
VERTEX
8
CUT
10
54.9962
20
229.6283
0
VERTEX
8
CUT
10
58.1309
20
232.5198
0
VERTEX
8
CUT
10
59.9175
20
233.7501
0
VERTEX
8
CUT
10
63.2983
20
235.6711
0
VERTEX
8
CUT
10
64.6387
20
236.8956
0
VERTEX
8
CUT
10
64.9884
20
237.6137
0
VERTEX
8
CUT
10
64.9188
20
237.9457
0
VERTEX
8
CUT
10
64.3944
20
238.0326
0
SEQEND
0
POLYLINE
8
CUT
66
1
70
1
10
0.0
20
0.0
30
0.0
0
VERTEX
8
CUT
10
50.0637
20
222.1744
0
VERTEX
8
CUT
10
50.3598
20
221.8169
0
VERTEX
8
CUT
10
50.7882
20
221.9960
0
VERTEX
8
CUT
10
51.7066
20
224.4426
0
VERTEX
8
CUT
10
53.7239
20
228.0021
0
VERTEX
8
CUT
10
53.5325
20
228.4943
0
VERTEX
8
CUT
10
53.0995
20
228.4339
0
VERTEX
8
CUT
10
51.6483
20
227.0360
0
VERTEX
8
CUT
10
51.0499
20
226.1275
0
VERTEX
8
CUT
10
50.5305
20
224.7517
0
SEQEND
0
POLYLINE
8
CUT
66
1
70
1
10
0.0
20
0.0
30
0.0
0
VERTEX
8
CUT
10
195.6272
20
247.5970
0
VERTEX
8
CUT
10
195.9306
20
247.6077
0
VERTEX
8
CUT
10
197.1473
20
247.6506
0
VERTEX
8
CUT
10
198.5205
20
247.0010
0
VERTEX
8
CUT
10
199.4862
20
247.3587
0
VERTEX
8
CUT
10
200.8293
20
247.5184
0
VERTEX
8
CUT
10
201.1677
20
247.5038
0
VERTEX
8
CUT
10
202.6317
20
247.3914
0
VERTEX
8
CUT
10
203.7116
20
247.1459
0
VERTEX
8
CUT
10
205.3234
20
246.3978
0
VERTEX
8
CUT
10
206.7502
20
246.0445
0
VERTEX
8
CUT
10
207.6437
20
245.4700
0
VERTEX
8
CUT
10
207.9175
20
245.2226
0
VERTEX
8
CUT
10
207.9971
20
245.1388
0
VERTEX
8
CUT
10
208.0291
20
245.1050
0
VERTEX
8
CUT
10
208.0395
20
245.0940
0
VERTEX
8
CUT
10
208.0404
20
245.0931
0
VERTEX
8
CUT
10
208.1375
20
244.9863
0
VERTEX
8
CUT
10
208.6343
20
244.0248
0
VERTEX
8
CUT
10
208.8016
20
243.5694
0
VERTEX
8
CUT
10
208.9236
20
242.8507
0
VERTEX
8
CUT
10
208.9477
20
242.0630
0
VERTEX
8
CUT
10
208.9288
20
241.7207
0
VERTEX
8
CUT
10
208.9098
20
241.4544
0
VERTEX
8
CUT
10
208.8057
20
240.8187
0
VERTEX
8
CUT
10
208.2375
20
239.3464
0
VERTEX
8
CUT
10
207.0764
20
237.5909
0
VERTEX
8
CUT
10
206.2167
20
236.7828
0
VERTEX
8
CUT
10
205.8860
20
236.4927
0
VERTEX
8
CUT
10
205.2878
20
235.9945
0
VERTEX
8
CUT
10
204.9566
20
235.8081
0
VERTEX
8
CUT
10
203.7023
20
235.1629
0
VERTEX
8
CUT
10
199.9030
20
233.7869
0
VERTEX
8
CUT
10
199.3809
20
233.4899
0
VERTEX
8
CUT
10
199.2429
20
233.4405
0
VERTEX
8
CUT
10
199.0580
20
233.3062
0
VERTEX
8
CUT
10
198.4266
20
232.9471
0
VERTEX
8
CUT
10
198.0307
20
232.5602
0
VERTEX
8
CUT
10
197.6199
20
232.2619
0
VERTEX
8
CUT
10
197.4764
20
232.0185
0
VERTEX
8
CUT
10
197.1875
20
231.7362
0
VERTEX
8
CUT
10
196.6657
20
230.6798
0
VERTEX
8
CUT
10
196.6046
20
230.5817
0
VERTEX
8
CUT
10
196.5856
20
230.5175
0
VERTEX
8
CUT
10
196.5585
20
230.4626
0
VERTEX
8
CUT
10
196.4664
20
230.3065
0
VERTEX
8
CUT
10
196.4412
20
230.2252
0
VERTEX
8
CUT
10
196.0544
20
229.4418
0
VERTEX
8
CUT
10
196.0085
20
229.0772
0
VERTEX
8
CUT
10
195.9921
20
229.0448
0
VERTEX
8
CUT
10
195.8062
20
227.9617
0
VERTEX
8
CUT
10
195.8013
20
227.5056
0
VERTEX
8
CUT
10
195.6857
20
226.6506
0
VERTEX
8
CUT
10
195.6857
20
226.5121
0
VERTEX
8
CUT
10
195.6555
20
226.2722
0
VERTEX
8
CUT
10
195.6857
20
225.6829
0
VERTEX
8
CUT
10
195.6857
20
224.3950
0
VERTEX
8
CUT
10
195.7977
20
223.4959
0
VERTEX
8
CUT
10
195.8670
20
222.1420
0
VERTEX
8
CUT
10
196.5703
20
217.5584
0
VERTEX
8
CUT
10
198.3377
20
211.2198
0
VERTEX
8
CUT
10
198.2629
20
210.7222
0
VERTEX
8
CUT
10
197.9971
20
210.4615
0
VERTEX
8
CUT
10
197.2459
20
210.6210
0
VERTEX
8
CUT
10
196.2638
20
211.3448
0
VERTEX
8
CUT
10
189.2283
20
217.8619
0
VERTEX
8
CUT
10
186.0347
20
222.9596
0
VERTEX
8
CUT
10
183.3078
20
228.6285
0
VERTEX
8
CUT
10
182.8983
20
230.7178
0
VERTEX
8
CUT
10
182.8955
20
232.6733
0
VERTEX
8
CUT
10
183.2011
20
237.4229
0
VERTEX
8
CUT
10
183.5143
20
239.2717
0
VERTEX
8
CUT
10
183.9242
20
240.7107
0
VERTEX
8
CUT
10
184.8067
20
242.3709
0
VERTEX
8
CUT
10
185.5155
20
242.9568
0
VERTEX
8
CUT
10
186.3581
20
242.7849
0
VERTEX
8
CUT
10
186.8337
20
242.9335
0
VERTEX
8
CUT
10
187.0606
20
243.9530
0
VERTEX
8
CUT
10
187.4809
20
244.6505
0
VERTEX
8
CUT
10
188.7726
20
245.8190
0
VERTEX
8
CUT
10
189.7141
20
246.3567
0
VERTEX
8
CUT
10
191.5084
20
247.0589
0
VERTEX
8
CUT
10
192.4709
20
247.3040
0
VERTEX
8
CUT
10
193.8849
20
247.5355
0
VERTEX
8
CUT
10
195.4797
20
247.5918
0
SEQEND
0
POLYLINE
8
CUT
66
1
70
1
10
0.0
20
0.0
30
0.0
0
VERTEX
8
CUT
10
186.1905
20
235.0603
0
VERTEX
8
CUT
10
186.0072
20
234.3884
0
VERTEX
8
CUT
10
186.0072
20
232.4641
0
VERTEX
8
CUT
10
186.4959
20
232.9223
0
VERTEX
8
CUT
10
187.0457
20
234.1135
0
VERTEX
8
CUT
10
186.9846
20
234.9992
0
VERTEX
8
CUT
10
186.4959
20
235.3352
0
SEQEND
0
ENDSEC
0
EOF
