0
SECTION
2
HEADER
9
$ACADVER
1
AC1009
9
$INSUNITS
70
4
0
ENDSEC
0
SECTION
2
TABLES
0
TABLE
2
LAYER
70
1
0
LAYER
2
CUT
70
0
62
7
6
CONTINUOUS
0
ENDTAB
0
ENDSEC
0
SECTION
2
ENTITIES
0
POLYLINE
8
CUT
66
1
70
1
10
0.0
20
0.0
30
0.0
0
VERTEX
8
CUT
10
0.5802
20
0.7049
0
VERTEX
8
CUT
10
0.3665
20
13.7105
0
VERTEX
8
CUT
10
0.0000
20
150.2094
0
VERTEX
8
CUT
10
0.0305
20
252.7757
0
VERTEX
8
CUT
10
0.1222
20
286.6786
0
VERTEX
8
CUT
10
0.3673
20
299.8389
0
VERTEX
8
CUT
10
5.4243
20
300.1449
0
VERTEX
8
CUT
10
13.1265
20
300.2367
0
VERTEX
8
CUT
10
71.0098
20
300.3589
0
VERTEX
8
CUT
10
248.2546
20
300.3284
0
VERTEX
8
CUT
10
292.5438
20
300.1757
0
VERTEX
8
CUT
10
299.9258
20
299.9351
0
VERTEX
8
CUT
10
300.1757
20
286.8011
0
VERTEX
8
CUT
10
300.2978
20
252.8685
0
VERTEX
8
CUT
10
300.3895
20
150.1798
0
VERTEX
8
CUT
10
300.2978
20
47.4918
0
VERTEX
8
CUT
10
300.1757
20
13.5579
0
VERTEX
8
CUT
10
299.9258
20
0.4238
0
VERTEX
8
CUT
10
292.5438
20
0.1833
0
VERTEX
8
CUT
10
248.3175
20
0.0305
0
VERTEX
8
CUT
10
69.3000
20
0.0000
0
VERTEX
8
CUT
10
12.2133
20
0.1527
0
VERTEX
8
CUT
10
5.0561
20
0.2140
0
VERTEX
8
CUT
10
0.7356
20
0.4965
0
SEQEND
0
POLYLINE
8
CUT
66
1
70
1
10
0.0
20
0.0
30
0.0
0
VERTEX
8
CUT
10
151.9589
20
8.0000
0
VERTEX
8
CUT
10
151.9589
20
14.9692
0
VERTEX
8
CUT
10
152.0082
20
14.9979
0
VERTEX
8
CUT
10
152.0814
20
15.0430
0
VERTEX
8
CUT
10
152.1534
20
15.0899
0
VERTEX
8
CUT
10
152.2242
20
15.1385
0
VERTEX
8
CUT
10
152.2938
20
15.1888
0
VERTEX
8
CUT
10
152.3622
20
15.2408
0
VERTEX
8
CUT
10
152.4293
20
15.2945
0
VERTEX
8
CUT
10
152.4950
20
15.3498
0
VERTEX
8
CUT
10
152.5593
20
15.4067
0
VERTEX
8
CUT
10
152.6223
20
15.4651
0
VERTEX
8
CUT
10
152.6838
20
15.5251
0
VERTEX
8
CUT
10
152.7437
20
15.5866
0
VERTEX
8
CUT
10
152.8022
20
15.6495
0
VERTEX
8
CUT
10
152.8591
20
15.7139
0
VERTEX
8
CUT
10
152.9144
20
15.7796
0
VERTEX
8
CUT
10
152.9681
20
15.8467
0
VERTEX
8
CUT
10
153.0201
20
15.9151
0
VERTEX
8
CUT
10
153.0704
20
15.9847
0
VERTEX
8
CUT
10
153.1190
20
16.0555
0
VERTEX
8
CUT
10
153.1659
20
16.1275
0
VERTEX
8
CUT
10
153.2109
20
16.2006
0
VERTEX
8
CUT
10
153.2542
20
16.2749
0
VERTEX
8
CUT
10
153.2956
20
16.3501
0
VERTEX
8
CUT
10
153.3352
20
16.4264
0
VERTEX
8
CUT
10
153.3728
20
16.5036
0
VERTEX
8
CUT
10
153.4086
20
16.5817
0
VERTEX
8
CUT
10
153.4425
20
16.6606
0
VERTEX
8
CUT
10
153.4744
20
16.7404
0
VERTEX
8
CUT
10
153.5043
20
16.8209
0
VERTEX
8
CUT
10
153.5322
20
16.9021
0
VERTEX
8
CUT
10
153.5582
20
16.9840
0
VERTEX
8
CUT
10
153.5821
20
17.0665
0
VERTEX
8
CUT
10
153.6040
20
17.1496
0
VERTEX
8
CUT
10
153.6238
20
17.2331
0
VERTEX
8
CUT
10
153.6416
20
17.3172
0
VERTEX
8
CUT
10
153.6574
20
17.4016
0
VERTEX
8
CUT
10
153.6710
20
17.4864
0
VERTEX
8
CUT
10
153.6826
20
17.5716
0
VERTEX
8
CUT
10
153.6920
20
17.6569
0
VERTEX
8
CUT
10
153.6994
20
17.7425
0
VERTEX
8
CUT
10
153.7047
20
17.8283
0
VERTEX
8
CUT
10
153.7078
20
17.9141
0
VERTEX
8
CUT
10
153.7089
20
18.0000
0
VERTEX
8
CUT
10
153.7078
20
18.0859
0
VERTEX
8
CUT
10
153.7047
20
18.1717
0
VERTEX
8
CUT
10
153.6994
20
18.2575
0
VERTEX
8
CUT
10
153.6920
20
18.3431
0
VERTEX
8
CUT
10
153.6826
20
18.4284
0
VERTEX
8
CUT
10
153.6710
20
18.5136
0
VERTEX
8
CUT
10
153.6574
20
18.5984
0
VERTEX
8
CUT
10
153.6416
20
18.6828
0
VERTEX
8
CUT
10
153.6238
20
18.7669
0
VERTEX
8
CUT
10
153.6040
20
18.8504
0
VERTEX
8
CUT
10
153.5821
20
18.9335
0
VERTEX
8
CUT
10
153.5582
20
19.0160
0
VERTEX
8
CUT
10
153.5322
20
19.0979
0
VERTEX
8
CUT
10
153.5043
20
19.1791
0
VERTEX
8
CUT
10
153.4744
20
19.2596
0
VERTEX
8
CUT
10
153.4425
20
19.3394
0
VERTEX
8
CUT
10
153.4086
20
19.4183
0
VERTEX
8
CUT
10
153.3728
20
19.4964
0
VERTEX
8
CUT
10
153.3352
20
19.5736
0
VERTEX
8
CUT
10
153.2956
20
19.6499
0
VERTEX
8
CUT
10
153.2542
20
19.7251
0
VERTEX
8
CUT
10
153.2109
20
19.7994
0
VERTEX
8
CUT
10
153.1659
20
19.8725
0
VERTEX
8
CUT
10
153.1190
20
19.9445
0
VERTEX
8
CUT
10
153.0704
20
20.0153
0
VERTEX
8
CUT
10
153.0201
20
20.0849
0
VERTEX
8
CUT
10
152.9681
20
20.1533
0
VERTEX
8
CUT
10
152.9144
20
20.2204
0
VERTEX
8
CUT
10
152.8591
20
20.2861
0
VERTEX
8
CUT
10
152.8022
20
20.3505
0
VERTEX
8
CUT
10
152.7437
20
20.4134
0
VERTEX
8
CUT
10
152.6838
20
20.4749
0
VERTEX
8
CUT
10
152.6223
20
20.5349
0
VERTEX
8
CUT
10
152.5593
20
20.5933
0
VERTEX
8
CUT
10
152.4950
20
20.6502
0
VERTEX
8
CUT
10
152.4293
20
20.7055
0
VERTEX
8
CUT
10
152.3622
20
20.7592
0
VERTEX
8
CUT
10
152.2938
20
20.8112
0
VERTEX
8
CUT
10
152.2242
20
20.8615
0
VERTEX
8
CUT
10
152.1534
20
20.9101
0
VERTEX
8
CUT
10
152.0814
20
20.9570
0
VERTEX
8
CUT
10
152.0082
20
21.0021
0
VERTEX
8
CUT
10
151.9340
20
21.0453
0
VERTEX
8
CUT
10
151.8588
20
21.0867
0
VERTEX
8
CUT
10
151.7825
20
21.1263
0
VERTEX
8
CUT
10
151.7053
20
21.1640
0
VERTEX
8
CUT
10
151.6272
20
21.1997
0
VERTEX
8
CUT
10
151.5483
20
21.2336
0
VERTEX
8
CUT
10
151.4685
20
21.2655
0
VERTEX
8
CUT
10
151.3880
20
21.2954
0
VERTEX
8
CUT
10
151.3068
20
21.3233
0
VERTEX
8
CUT
10
151.2249
20
21.3493
0
VERTEX
8
CUT
10
151.1424
20
21.3732
0
VERTEX
8
CUT
10
151.0593
20
21.3951
0
VERTEX
8
CUT
10
150.9757
20
21.4150
0
VERTEX
8
CUT
10
150.8917
20
21.4327
0
VERTEX
8
CUT
10
150.8072
20
21.4485
0
VERTEX
8
CUT
10
150.7224
20
21.4621
0
VERTEX
8
CUT
10
150.6373
20
21.4737
0
VERTEX
8
CUT
10
150.5519
20
21.4831
0
VERTEX
8
CUT
10
150.4664
20
21.4905
0
VERTEX
8
CUT
10
150.3806
20
21.4958
0
VERTEX
8
CUT
10
150.2948
20
21.4989
0
VERTEX
8
CUT
10
150.2089
20
21.5000
0
VERTEX
8
CUT
10
150.1230
20
21.4989
0
VERTEX
8
CUT
10
150.0371
20
21.4958
0
VERTEX
8
CUT
10
149.9514
20
21.4905
0
VERTEX
8
CUT
10
149.8658
20
21.4831
0
VERTEX
8
CUT
10
149.7804
20
21.4737
0
VERTEX
8
CUT
10
149.6953
20
21.4621
0
VERTEX
8
CUT
10
149.6105
20
21.4485
0
VERTEX
8
CUT
10
149.5261
20
21.4327
0
VERTEX
8
CUT
10
149.4420
20
21.4150
0
VERTEX
8
CUT
10
149.3585
20
21.3951
0
VERTEX
8
CUT
10
149.2754
20
21.3732
0
VERTEX
8
CUT
10
149.1929
20
21.3493
0
VERTEX
8
CUT
10
149.1110
20
21.3233
0
VERTEX
8
CUT
10
149.0298
20
21.2954
0
VERTEX
8
CUT
10
148.9492
20
21.2655
0
VERTEX
8
CUT
10
148.8695
20
21.2336
0
VERTEX
8
CUT
10
148.7905
20
21.1997
0
VERTEX
8
CUT
10
148.7124
20
21.1640
0
VERTEX
8
CUT
10
148.6352
20
21.1263
0
VERTEX
8
CUT
10
148.5590
20
21.0867
0
VERTEX
8
CUT
10
148.4837
20
21.0453
0
VERTEX
8
CUT
10
148.4095
20
21.0021
0
VERTEX
8
CUT
10
148.3364
20
20.9570
0
VERTEX
8
CUT
10
148.2644
20
20.9101
0
VERTEX
8
CUT
10
148.1936
20
20.8615
0
VERTEX
8
CUT
10
148.1239
20
20.8112
0
VERTEX
8
CUT
10
148.0556
20
20.7592
0
VERTEX
8
CUT
10
147.9885
20
20.7055
0
VERTEX
8
CUT
10
147.9228
20
20.6502
0
VERTEX
8
CUT
10
147.8584
20
20.5933
0
VERTEX
8
CUT
10
147.7955
20
20.5349
0
VERTEX
8
CUT
10
147.7340
20
20.4749
0
VERTEX
8
CUT
10
147.6740
20
20.4134
0
VERTEX
8
CUT
10
147.6156
20
20.3505
0
VERTEX
8
CUT
10
147.5587
20
20.2861
0
VERTEX
8
CUT
10
147.5033
20
20.2204
0
VERTEX
8
CUT
10
147.4497
20
20.1533
0
VERTEX
8
CUT
10
147.3977
20
20.0849
0
VERTEX
8
CUT
10
147.3473
20
20.0153
0
VERTEX
8
CUT
10
147.2987
20
19.9445
0
VERTEX
8
CUT
10
147.2519
20
19.8725
0
VERTEX
8
CUT
10
147.2068
20
19.7994
0
VERTEX
8
CUT
10
147.1636
20
19.7251
0
VERTEX
8
CUT
10
147.1222
20
19.6499
0
VERTEX
8
CUT
10
147.0826
20
19.5736
0
VERTEX
8
CUT
10
147.0449
20
19.4964
0
VERTEX
8
CUT
10
147.0091
20
19.4183
0
VERTEX
8
CUT
10
146.9753
20
19.3394
0
VERTEX
8
CUT
10
146.9434
20
19.2596
0
VERTEX
8
CUT
10
146.9135
20
19.1791
0
VERTEX
8
CUT
10
146.8855
20
19.0979
0
VERTEX
8
CUT
10
146.8596
20
19.0160
0
VERTEX
8
CUT
10
146.8357
20
18.9335
0
VERTEX
8
CUT
10
146.8138
20
18.8504
0
VERTEX
8
CUT
10
146.7939
20
18.7669
0
VERTEX
8
CUT
10
146.7761
20
18.6828
0
VERTEX
8
CUT
10
146.7604
20
18.5984
0
VERTEX
8
CUT
10
146.7468
20
18.5136
0
VERTEX
8
CUT
10
146.7352
20
18.4284
0
VERTEX
8
CUT
10
146.7257
20
18.3431
0
VERTEX
8
CUT
10
146.7184
20
18.2575
0
VERTEX
8
CUT
10
146.7131
20
18.1717
0
VERTEX
8
CUT
10
146.7099
20
18.0859
0
VERTEX
8
CUT
10
146.7089
20
18.0000
0
VERTEX
8
CUT
10
146.7099
20
17.9141
0
VERTEX
8
CUT
10
146.7131
20
17.8283
0
VERTEX
8
CUT
10
146.7184
20
17.7425
0
VERTEX
8
CUT
10
146.7257
20
17.6569
0
VERTEX
8
CUT
10
146.7352
20
17.5716
0
VERTEX
8
CUT
10
146.7468
20
17.4864
0
VERTEX
8
CUT
10
146.7604
20
17.4016
0
VERTEX
8
CUT
10
146.7761
20
17.3172
0
VERTEX
8
CUT
10
146.7939
20
17.2331
0
VERTEX
8
CUT
10
146.8138
20
17.1496
0
VERTEX
8
CUT
10
146.8357
20
17.0665
0
VERTEX
8
CUT
10
146.8596
20
16.9840
0
VERTEX
8
CUT
10
146.8855
20
16.9021
0
VERTEX
8
CUT
10
146.9135
20
16.8209
0
VERTEX
8
CUT
10
146.9434
20
16.7404
0
VERTEX
8
CUT
10
146.9753
20
16.6606
0
VERTEX
8
CUT
10
147.0091
20
16.5817
0
VERTEX
8
CUT
10
147.0449
20
16.5036
0
VERTEX
8
CUT
10
147.0826
20
16.4264
0
VERTEX
8
CUT
10
147.1222
20
16.3501
0
VERTEX
8
CUT
10
147.1636
20
16.2749
0
VERTEX
8
CUT
10
147.2068
20
16.2006
0
VERTEX
8
CUT
10
147.2519
20
16.1275
0
VERTEX
8
CUT
10
147.2987
20
16.0555
0
VERTEX
8
CUT
10
147.3473
20
15.9847
0
VERTEX
8
CUT
10
147.3977
20
15.9151
0
VERTEX
8
CUT
10
147.4497
20
15.8467
0
VERTEX
8
CUT
10
147.5033
20
15.7796
0
VERTEX
8
CUT
10
147.5587
20
15.7139
0
VERTEX
8
CUT
10
147.6156
20
15.6495
0
VERTEX
8
CUT
10
147.6740
20
15.5866
0
VERTEX
8
CUT
10
147.7340
20
15.5251
0
VERTEX
8
CUT
10
147.7955
20
15.4651
0
VERTEX
8
CUT
10
147.8584
20
15.4067
0
VERTEX
8
CUT
10
147.9228
20
15.3498
0
VERTEX
8
CUT
10
147.9885
20
15.2945
0
VERTEX
8
CUT
10
148.0556
20
15.2408
0
VERTEX
8
CUT
10
148.1239
20
15.1888
0
VERTEX
8
CUT
10
148.1936
20
15.1385
0
VERTEX
8
CUT
10
148.2644
20
15.0899
0
VERTEX
8
CUT
10
148.3364
20
15.0430
0
VERTEX
8
CUT
10
148.4095
20
14.9979
0
VERTEX
8
CUT
10
148.4589
20
14.9692
0
VERTEX
8
CUT
10
148.4589
20
8.0000
0
VERTEX
8
CUT
10
148.4610
20
7.9141
0
VERTEX
8
CUT
10
148.4673
20
7.8285
0
VERTEX
8
CUT
10
148.4778
20
7.7432
0
VERTEX
8
CUT
10
148.4925
20
7.6586
0
VERTEX
8
CUT
10
148.5113
20
7.5748
0
VERTEX
8
CUT
10
148.5342
20
7.4920
0
VERTEX
8
CUT
10
148.5612
20
7.4104
0
VERTEX
8
CUT
10
148.5921
20
7.3303
0
VERTEX
8
CUT
10
148.6269
20
7.2518
0
VERTEX
8
CUT
10
148.6655
20
7.1751
0
VERTEX
8
CUT
10
148.7079
20
7.1003
0
VERTEX
8
CUT
10
148.7538
20
7.0278
0
VERTEX
8
CUT
10
148.8033
20
6.9575
0
VERTEX
8
CUT
10
148.8561
20
6.8898
0
VERTEX
8
CUT
10
148.9122
20
6.8248
0
VERTEX
8
CUT
10
148.9714
20
6.7626
0
VERTEX
8
CUT
10
149.0337
20
6.7033
0
VERTEX
8
CUT
10
149.0987
20
6.6472
0
VERTEX
8
CUT
10
149.1664
20
6.5944
0
VERTEX
8
CUT
10
149.2366
20
6.5449
0
VERTEX
8
CUT
10
149.3092
20
6.4990
0
VERTEX
8
CUT
10
149.3839
20
6.4566
0
VERTEX
8
CUT
10
149.4607
20
6.4180
0
VERTEX
8
CUT
10
149.5392
20
6.3832
0
VERTEX
8
CUT
10
149.6193
20
6.3523
0
VERTEX
8
CUT
10
149.7009
20
6.3254
0
VERTEX
8
CUT
10
149.7837
20
6.3024
0
VERTEX
8
CUT
10
149.8675
20
6.2836
0
VERTEX
8
CUT
10
149.9521
20
6.2689
0
VERTEX
8
CUT
10
150.0374
20
6.2584
0
VERTEX
8
CUT
10
150.1230
20
6.2521
0
VERTEX
8
CUT
10
150.2089
20
6.2500
0
VERTEX
8
CUT
10
150.2948
20
6.2521
0
VERTEX
8
CUT
10
150.3804
20
6.2584
0
VERTEX
8
CUT
10
150.4657
20
6.2689
0
VERTEX
8
CUT
10
150.5503
20
6.2836
0
VERTEX
8
CUT
10
150.6341
20
6.3024
0
VERTEX
8
CUT
10
150.7169
20
6.3254
0
VERTEX
8
CUT
10
150.7984
20
6.3523
0
VERTEX
8
CUT
10
150.8786
20
6.3832
0
VERTEX
8
CUT
10
150.9571
20
6.4180
0
VERTEX
8
CUT
10
151.0338
20
6.4566
0
VERTEX
8
CUT
10
151.1086
20
6.4990
0
VERTEX
8
CUT
10
151.1811
20
6.5449
0
VERTEX
8
CUT
10
151.2514
20
6.5944
0
VERTEX
8
CUT
10
151.3191
20
6.6472
0
VERTEX
8
CUT
10
151.3841
20
6.7033
0
VERTEX
8
CUT
10
151.4463
20
6.7626
0
VERTEX
8
CUT
10
151.5055
20
6.8248
0
VERTEX
8
CUT
10
151.5617
20
6.8898
0
VERTEX
8
CUT
10
151.6145
20
6.9575
0
VERTEX
8
CUT
10
151.6640
20
7.0278
0
VERTEX
8
CUT
10
151.7099
20
7.1003
0
VERTEX
8
CUT
10
151.7522
20
7.1751
0
VERTEX
8
CUT
10
151.7909
20
7.2518
0
VERTEX
8
CUT
10
151.8257
20
7.3303
0
VERTEX
8
CUT
10
151.8566
20
7.4104
0
VERTEX
8
CUT
10
151.8835
20
7.4920
0
VERTEX
8
CUT
10
151.9064
20
7.5748
0
VERTEX
8
CUT
10
151.9253
20
7.6586
0
VERTEX
8
CUT
10
151.9399
20
7.7432
0
VERTEX
8
CUT
10
151.9505
20
7.8285
0
VERTEX
8
CUT
10
151.9568
20
7.9141
0
SEQEND
0
ENDSEC
0
EOF
