0
SECTION
2
HEADER
9
$ACADVER
1
AC1009
9
$INSUNITS
70
4
0
ENDSEC
0
SECTION
2
TABLES
0
TABLE
2
LAYER
70
1
0
LAYER
2
CUT
70
0
62
7
6
CONTINUOUS
0
ENDTAB
0
ENDSEC
0
SECTION
2
ENTITIES
0
POLYLINE
8
CUT
66
1
70
1
10
0.0
20
0.0
30
0.0
0
VERTEX
8
CUT
10
-0.0625
20
298.5575
0
VERTEX
8
CUT
10
-0.0625
20
299.4428
0
VERTEX
8
CUT
10
-0.0589
20
299.5163
0
VERTEX
8
CUT
10
-0.0503
20
299.5745
0
VERTEX
8
CUT
10
-0.0360
20
299.6315
0
VERTEX
8
CUT
10
-0.0162
20
299.6869
0
VERTEX
8
CUT
10
0.0090
20
299.7400
0
VERTEX
8
CUT
10
0.0392
20
299.7905
0
VERTEX
8
CUT
10
0.0743
20
299.8377
0
VERTEX
8
CUT
10
0.1137
20
299.8813
0
VERTEX
8
CUT
10
0.1573
20
299.9208
0
VERTEX
8
CUT
10
0.2046
20
299.9558
0
VERTEX
8
CUT
10
0.2550
20
299.9861
0
VERTEX
8
CUT
10
0.3082
20
300.0112
0
VERTEX
8
CUT
10
0.3635
20
300.0310
0
VERTEX
8
CUT
10
0.4206
20
300.0453
0
VERTEX
8
CUT
10
0.4788
20
300.0539
0
VERTEX
8
CUT
10
0.5522
20
300.0575
0
VERTEX
8
CUT
10
1.4375
20
300.0575
0
VERTEX
8
CUT
10
298.5625
20
300.0575
0
VERTEX
8
CUT
10
299.4478
20
300.0575
0
VERTEX
8
CUT
10
299.5212
20
300.0539
0
VERTEX
8
CUT
10
299.5794
20
300.0453
0
VERTEX
8
CUT
10
299.6365
20
300.0310
0
VERTEX
8
CUT
10
299.6918
20
300.0112
0
VERTEX
8
CUT
10
299.7450
20
299.9861
0
VERTEX
8
CUT
10
299.7954
20
299.9558
0
VERTEX
8
CUT
10
299.8427
20
299.9208
0
VERTEX
8
CUT
10
299.8863
20
299.8813
0
VERTEX
8
CUT
10
299.9257
20
299.8377
0
VERTEX
8
CUT
10
299.9608
20
299.7905
0
VERTEX
8
CUT
10
299.9910
20
299.7400
0
VERTEX
8
CUT
10
300.0162
20
299.6869
0
VERTEX
8
CUT
10
300.0360
20
299.6315
0
VERTEX
8
CUT
10
300.0503
20
299.5745
0
VERTEX
8
CUT
10
300.0589
20
299.5163
0
VERTEX
8
CUT
10
300.0625
20
299.4428
0
VERTEX
8
CUT
10
300.0625
20
298.5575
0
VERTEX
8
CUT
10
300.0625
20
1.4375
0
VERTEX
8
CUT
10
300.0625
20
0.5522
0
VERTEX
8
CUT
10
300.0589
20
0.4788
0
VERTEX
8
CUT
10
300.0503
20
0.4206
0
VERTEX
8
CUT
10
300.0360
20
0.3635
0
VERTEX
8
CUT
10
300.0162
20
0.3082
0
VERTEX
8
CUT
10
299.9910
20
0.2550
0
VERTEX
8
CUT
10
299.9608
20
0.2046
0
VERTEX
8
CUT
10
299.9257
20
0.1573
0
VERTEX
8
CUT
10
299.8863
20
0.1137
0
VERTEX
8
CUT
10
299.8427
20
0.0743
0
VERTEX
8
CUT
10
299.7954
20
0.0392
0
VERTEX
8
CUT
10
299.7450
20
0.0090
0
VERTEX
8
CUT
10
299.6918
20
-0.0162
0
VERTEX
8
CUT
10
299.6365
20
-0.0360
0
VERTEX
8
CUT
10
299.5794
20
-0.0503
0
VERTEX
8
CUT
10
299.5212
20
-0.0589
0
VERTEX
8
CUT
10
299.4478
20
-0.0625
0
VERTEX
8
CUT
10
298.5625
20
-0.0625
0
VERTEX
8
CUT
10
1.4375
20
-0.0625
0
VERTEX
8
CUT
10
0.5522
20
-0.0625
0
VERTEX
8
CUT
10
0.4788
20
-0.0589
0
VERTEX
8
CUT
10
0.4206
20
-0.0503
0
VERTEX
8
CUT
10
0.3635
20
-0.0360
0
VERTEX
8
CUT
10
0.3082
20
-0.0162
0
VERTEX
8
CUT
10
0.2550
20
0.0090
0
VERTEX
8
CUT
10
0.2046
20
0.0392
0
VERTEX
8
CUT
10
0.1573
20
0.0743
0
VERTEX
8
CUT
10
0.1137
20
0.1137
0
VERTEX
8
CUT
10
0.0743
20
0.1573
0
VERTEX
8
CUT
10
0.0392
20
0.2046
0
VERTEX
8
CUT
10
0.0090
20
0.2550
0
VERTEX
8
CUT
10
-0.0162
20
0.3082
0
VERTEX
8
CUT
10
-0.0360
20
0.3635
0
VERTEX
8
CUT
10
-0.0503
20
0.4206
0
VERTEX
8
CUT
10
-0.0589
20
0.4788
0
VERTEX
8
CUT
10
-0.0625
20
0.5522
0
VERTEX
8
CUT
10
-0.0625
20
1.4375
0
SEQEND
0
POLYLINE
8
CUT
66
1
70
1
10
0.0
20
0.0
30
0.0
0
VERTEX
8
CUT
10
173.8762
20
62.1717
0
VERTEX
8
CUT
10
173.8739
20
62.1125
0
VERTEX
8
CUT
10
173.8758
20
61.9252
0
VERTEX
8
CUT
10
173.8793
20
61.8661
0
VERTEX
8
CUT
10
173.8999
20
61.6773
0
VERTEX
8
CUT
10
173.9039
20
61.6480
0
VERTEX
8
CUT
10
173.9130
20
61.5908
0
VERTEX
8
CUT
10
173.9155
20
61.5762
0
VERTEX
8
CUT
10
173.9330
20
61.4815
0
VERTEX
8
CUT
10
173.9359
20
61.4670
0
VERTEX
8
CUT
10
174.2851
20
59.8089
0
VERTEX
8
CUT
10
174.2885
20
59.7939
0
VERTEX
8
CUT
10
174.3115
20
59.6969
0
VERTEX
8
CUT
10
174.3153
20
59.6820
0
VERTEX
8
CUT
10
174.3473
20
59.5610
0
VERTEX
8
CUT
10
174.3514
20
59.5462
0
VERTEX
8
CUT
10
174.3794
20
59.4504
0
VERTEX
8
CUT
10
174.3839
20
59.4358
0
VERTEX
8
CUT
10
175.0534
20
57.3450
0
VERTEX
8
CUT
10
175.0602
20
57.3251
0
VERTEX
8
CUT
10
175.1064
20
57.1965
0
VERTEX
8
CUT
10
175.1138
20
57.1769
0
VERTEX
8
CUT
10
175.1774
20
57.0178
0
VERTEX
8
CUT
10
175.1855
20
56.9984
0
VERTEX
8
CUT
10
175.2406
20
56.8734
0
VERTEX
8
CUT
10
175.2494
20
56.8543
0
VERTEX
8
CUT
10
176.1059
20
55.0815
0
VERTEX
8
CUT
10
176.1137
20
55.0659
0
VERTEX
8
CUT
10
176.1659
20
54.9654
0
VERTEX
8
CUT
10
176.1741
20
54.9501
0
VERTEX
8
CUT
10
176.2433
20
54.8259
0
VERTEX
8
CUT
10
176.2520
20
54.8108
0
VERTEX
8
CUT
10
176.3099
20
54.7136
0
VERTEX
8
CUT
10
176.3190
20
54.6987
0
VERTEX
8
CUT
10
177.4365
20
52.9406
0
VERTEX
8
CUT
10
177.4462
20
52.9259
0
VERTEX
8
CUT
10
177.5104
20
52.8311
0
VERTEX
8
CUT
10
177.5205
20
52.8167
0
VERTEX
8
CUT
10
177.6045
20
52.7002
0
VERTEX
8
CUT
10
177.6150
20
52.6861
0
VERTEX
8
CUT
10
177.6846
20
52.5953
0
VERTEX
8
CUT
10
177.6955
20
52.5815
0
VERTEX
8
CUT
10
179.2697
20
50.6491
0
VERTEX
8
CUT
10
179.2810
20
50.6356
0
VERTEX
8
CUT
10
179.3562
20
50.5487
0
VERTEX
8
CUT
10
179.3679
20
50.5355
0
VERTEX
8
CUT
10
179.4654
20
50.4293
0
VERTEX
8
CUT
10
179.4775
20
50.4165
0
VERTEX
8
CUT
10
179.5577
20
50.3342
0
VERTEX
8
CUT
10
179.5702
20
50.3217
0
VERTEX
8
CUT
10
181.0242
20
48.9136
0
VERTEX
8
CUT
10
181.0371
20
48.9014
0
VERTEX
8
CUT
10
181.1223
20
48.8237
0
VERTEX
8
CUT
10
181.1356
20
48.8119
0
VERTEX
8
CUT
10
181.2453
20
48.7175
0
VERTEX
8
CUT
10
181.2590
20
48.7061
0
VERTEX
8
CUT
10
181.3486
20
48.6336
0
VERTEX
8
CUT
10
181.3626
20
48.6226
0
VERTEX
8
CUT
10
182.8714
20
47.4731
0
VERTEX
8
CUT
10
182.8880
20
47.4609
0
VERTEX
8
CUT
10
182.9968
20
47.3838
0
VERTEX
8
CUT
10
183.0137
20
47.3722
0
VERTEX
8
CUT
10
183.1534
20
47.2801
0
VERTEX
8
CUT
10
183.1707
20
47.2691
0
VERTEX
8
CUT
10
183.2846
20
47.1996
0
VERTEX
8
CUT
10
183.3023
20
47.1892
0
VERTEX
8
CUT
10
184.7865
20
46.3508
0
VERTEX
8
CUT
10
184.7963
20
46.3454
0
VERTEX
8
CUT
10
184.8648
20
46.3083
0
VERTEX
8
CUT
10
184.8751
20
46.3029
0
VERTEX
8
CUT
10
184.9205
20
46.2795
0
VERTEX
8
CUT
10
184.9426
20
46.2687
0
VERTEX
8
CUT
10
185.0817
20
46.2040
0
VERTEX
8
CUT
10
185.1034
20
46.1944
0
VERTEX
8
CUT
10
185.1413
20
46.1786
0
VERTEX
8
CUT
10
185.1516
20
46.1744
0
VERTEX
8
CUT
10
185.2232
20
46.1460
0
VERTEX
8
CUT
10
185.2349
20
46.1415
0
VERTEX
8
CUT
10
186.4316
20
45.6961
0
VERTEX
8
CUT
10
186.4469
20
45.6906
0
VERTEX
8
CUT
10
186.5465
20
45.6566
0
VERTEX
8
CUT
10
186.5619
20
45.6515
0
VERTEX
8
CUT
10
186.6223
20
45.6327
0
VERTEX
8
CUT
10
186.6535
20
45.6239
0
VERTEX
8
CUT
10
186.8576
20
45.5722
0
VERTEX
8
CUT
10
186.8892
20
45.5651
0
VERTEX
8
CUT
10
186.9512
20
45.5529
0
VERTEX
8
CUT
10
186.9672
20
45.5499
0
VERTEX
8
CUT
10
187.0710
20
45.5324
0
VERTEX
8
CUT
10
187.0871
20
45.5299
0
VERTEX
8
CUT
10
188.1026
20
45.3867
0
VERTEX
8
CUT
10
188.1173
20
45.3848
0
VERTEX
8
CUT
10
188.2130
20
45.3737
0
VERTEX
8
CUT
10
188.2278
20
45.3721
0
VERTEX
8
CUT
10
188.2855
20
45.3669
0
VERTEX
8
CUT
10
188.3151
20
45.3649
0
VERTEX
8
CUT
10
188.5076
20
45.3570
0
VERTEX
8
CUT
10
188.5372
20
45.3565
0
VERTEX
8
CUT
10
188.5951
20
45.3570
0
VERTEX
8
CUT
10
188.6100
20
45.3573
0
VERTEX
8
CUT
10
188.7063
20
45.3604
0
VERTEX
8
CUT
10
188.7211
20
45.3611
0
VERTEX
8
CUT
10
190.2674
20
45.4503
0
VERTEX
8
CUT
10
190.2813
20
45.4512
0
VERTEX
8
CUT
10
190.3714
20
45.4585
0
VERTEX
8
CUT
10
190.3852
20
45.4598
0
VERTEX
8
CUT
10
190.4393
20
45.4654
0
VERTEX
8
CUT
10
190.4669
20
45.4690
0
VERTEX
8
CUT
10
190.6456
20
45.4960
0
VERTEX
8
CUT
10
190.6730
20
45.5008
0
VERTEX
8
CUT
10
190.7263
20
45.5115
0
VERTEX
8
CUT
10
190.7399
20
45.5143
0
VERTEX
8
CUT
10
190.8281
20
45.5341
0
VERTEX
8
CUT
10
190.8416
20
45.5373
0
VERTEX
8
CUT
10
192.1596
20
45.8641
0
VERTEX
8
CUT
10
192.1751
20
45.8682
0
VERTEX
8
CUT
10
192.2757
20
45.8960
0
VERTEX
8
CUT
10
192.2911
20
45.9005
0
VERTEX
8
CUT
10
192.3510
20
45.9188
0
VERTEX
8
CUT
10
192.3814
20
45.9290
0
VERTEX
8
CUT
10
192.5773
20
46.0005
0
VERTEX
8
CUT
10
192.6072
20
46.0123
0
VERTEX
8
CUT
10
192.6648
20
46.0369
0
VERTEX
8
CUT
10
192.6795
20
46.0434
0
VERTEX
8
CUT
10
192.7743
20
46.0870
0
VERTEX
8
CUT
10
192.7888
20
46.0939
0
VERTEX
8
CUT
10
193.9068
20
46.6438
0
VERTEX
8
CUT
10
193.9207
20
46.6509
0
VERTEX
8
CUT
10
194.0103
20
46.6979
0
VERTEX
8
CUT
10
194.0240
20
46.7053
0
VERTEX
8
CUT
10
194.0771
20
46.7350
0
VERTEX
8
CUT
10
194.1039
20
46.7509
0
VERTEX
8
CUT
10
194.2753
20
46.8585
0
VERTEX
8
CUT
10
194.3012
20
46.8758
0
VERTEX
8
CUT
10
194.3509
20
46.9108
0
VERTEX
8
CUT
10
194.3636
20
46.9199
0
VERTEX
8
CUT
10
194.4448
20
46.9803
0
VERTEX
8
CUT
10
194.4572
20
46.9897
0
VERTEX
8
CUT
10
195.5633
20
47.8568
0
VERTEX
8
CUT
10
195.5760
20
47.8671
0
VERTEX
8
CUT
10
195.6580
20
47.9350
0
VERTEX
8
CUT
10
195.6704
20
47.9456
0
VERTEX
8
CUT
10
195.7185
20
47.9878
0
VERTEX
8
CUT
10
195.7425
20
48.0100
0
VERTEX
8
CUT
10
195.8946
20
48.1587
0
VERTEX
8
CUT
10
195.9174
20
48.1822
0
VERTEX
8
CUT
10
195.9606
20
48.2293
0
VERTEX
8
CUT
10
195.9715
20
48.2415
0
VERTEX
8
CUT
10
196.0413
20
48.3219
0
VERTEX
8
CUT
10
196.0519
20
48.3344
0
VERTEX
8
CUT
10
197.2402
20
49.7815
0
VERTEX
8
CUT
10
197.2508
20
49.7948
0
VERTEX
8
CUT
10
197.3182
20
49.8817
0
VERTEX
8
CUT
10
197.3284
20
49.8952
0
VERTEX
8
CUT
10
197.3673
20
49.9485
0
VERTEX
8
CUT
10
197.3865
20
49.9764
0
VERTEX
8
CUT
10
197.5060
20
50.1610
0
VERTEX
8
CUT
10
197.5236
20
50.1899
0
VERTEX
8
CUT
10
197.5563
20
50.2473
0
VERTEX
8
CUT
10
197.5645
20
50.2621
0
VERTEX
8
CUT
10
197.6163
20
50.3591
0
VERTEX
8
CUT
10
197.6240
20
50.3742
0
VERTEX
8
CUT
10
198.7469
20
52.6302
0
VERTEX
8
CUT
10
198.7536
20
52.6440
0
VERTEX
8
CUT
10
198.7958
20
52.7346
0
VERTEX
8
CUT
10
198.8021
20
52.7486
0
VERTEX
8
CUT
10
198.8261
20
52.8037
0
VERTEX
8
CUT
10
198.8376
20
52.8322
0
VERTEX
8
CUT
10
198.9079
20
53.0192
0
VERTEX
8
CUT
10
198.9180
20
53.0483
0
VERTEX
8
CUT
10
198.9362
20
53.1055
0
VERTEX
8
CUT
10
198.9406
20
53.1202
0
VERTEX
8
CUT
10
198.9685
20
53.2162
0
VERTEX
8
CUT
10
198.9726
20
53.2310
0
VERTEX
8
CUT
10
199.7148
20
56.0577
0
VERTEX
8
CUT
10
199.7177
20
56.0695
0
VERTEX
8
CUT
10
199.7363
20
56.1463
0
VERTEX
8
CUT
10
199.7390
20
56.1581
0
VERTEX
8
CUT
10
199.7492
20
56.2045
0
VERTEX
8
CUT
10
199.7539
20
56.2284
0
VERTEX
8
CUT
10
199.7815
20
56.3839
0
VERTEX
8
CUT
10
199.7853
20
56.4079
0
VERTEX
8
CUT
10
199.7917
20
56.4550
0
VERTEX
8
CUT
10
199.7932
20
56.4671
0
VERTEX
8
CUT
10
199.8023
20
56.5455
0
VERTEX
8
CUT
10
199.8035
20
56.5576
0
VERTEX
8
CUT
10
200.0659
20
59.3201
0
VERTEX
8
CUT
10
200.0674
20
59.3383
0
VERTEX
8
CUT
10
200.0750
20
59.4569
0
VERTEX
8
CUT
10
200.0759
20
59.4752
0
VERTEX
8
CUT
10
200.0809
20
59.6242
0
VERTEX
8
CUT
10
200.0812
20
59.6425
0
VERTEX
8
CUT
10
200.0816
20
59.7614
0
VERTEX
8
CUT
10
200.0814
20
59.7797
0
VERTEX
8
CUT
10
200.0138
20
62.2603
0
VERTEX
8
CUT
10
200.0132
20
62.2755
0
VERTEX
8
CUT
10
200.0080
20
62.3748
0
VERTEX
8
CUT
10
200.0070
20
62.3900
0
VERTEX
8
CUT
10
199.9972
20
62.5144
0
VERTEX
8
CUT
10
199.9958
20
62.5296
0
VERTEX
8
CUT
10
199.9855
20
62.6285
0
VERTEX
8
CUT
10
199.9838
20
62.6437
0
VERTEX
8
CUT
10
199.6435
20
65.2627
0
VERTEX
8
CUT
10
199.6409
20
65.2804
0
VERTEX
8
CUT
10
199.6225
20
65.3953
0
VERTEX
8
CUT
10
199.6194
20
65.4130
0
VERTEX
8
CUT
10
199.5920
20
65.5565
0
VERTEX
8
CUT
10
199.5883
20
65.5740
0
VERTEX
8
CUT
10
199.5631
20
65.6877
0
VERTEX
8
CUT
10
199.5589
20
65.7051
0
VERTEX
8
CUT
10
197.3064
20
74.5775
0
VERTEX
8
CUT
10
197.3048
20
74.5839
0
VERTEX
8
CUT
10
197.3012
20
74.5989
0
VERTEX
8
CUT
10
197.2996
20
74.6053
0
VERTEX
8
CUT
10
197.2960
20
74.6203
0
VERTEX
8
CUT
10
197.2942
20
74.6283
0
VERTEX
8
CUT
10
197.2899
20
74.6470
0
VERTEX
8
CUT
10
197.2881
20
74.6550
0
VERTEX
8
CUT
10
197.2850
20
74.6691
0
VERTEX
8
CUT
10
197.2833
20
74.6769
0
VERTEX
8
CUT
10
197.2795
20
74.6953
0
VERTEX
8
CUT
10
197.2779
20
74.7032
0
VERTEX
8
CUT
10
197.2770
20
74.7077
0
VERTEX
8
CUT
10
197.2751
20
74.7171
0
VERTEX
8
CUT
10
197.2710
20
74.7391
0
VERTEX
8
CUT
10
197.2692
20
74.7485
0
VERTEX
8
CUT
10
196.9228
20
76.6905
0
VERTEX
8
CUT
10
196.9208
20
76.7019
0
VERTEX
8
CUT
10
196.9164
20
76.7287
0
VERTEX
8
CUT
10
196.9146
20
76.7402
0
VERTEX
8
CUT
10
196.9125
20
76.7540
0
VERTEX
8
CUT
10
196.9109
20
76.7654
0
VERTEX
8
CUT
10
196.9072
20
76.7919
0
VERTEX
8
CUT
10
196.9057
20
76.8033
0
VERTEX
8
CUT
10
196.9031
20
76.8237
0
VERTEX
8
CUT
10
196.9017
20
76.8351
0
VERTEX
8
CUT
10
196.8987
20
76.8619
0
VERTEX
8
CUT
10
196.8975
20
76.8734
0
VERTEX
8
CUT
10
196.8961
20
76.8874
0
VERTEX
8
CUT
10
196.8950
20
76.8989
0
VERTEX
8
CUT
10
196.8927
20
76.9257
0
VERTEX
8
CUT
10
196.8918
20
76.9372
0
VERTEX
8
CUT
10
196.6090
20
80.7628
0
VERTEX
8
CUT
10
196.6080
20
80.7776
0
VERTEX
8
CUT
10
196.6060
20
80.8124
0
VERTEX
8
CUT
10
196.6053
20
80.8273
0
VERTEX
8
CUT
10
196.6046
20
80.8455
0
VERTEX
8
CUT
10
196.6041
20
80.8604
0
VERTEX
8
CUT
10
196.6032
20
80.8951
0
VERTEX
8
CUT
10
196.6030
20
80.9101
0
VERTEX
8
CUT
10
196.6028
20
80.9364
0
VERTEX
8
CUT
10
196.6028
20
80.9513
0
VERTEX
8
CUT
10
196.6031
20
80.9861
0
VERTEX
8
CUT
10
196.6034
20
81.0011
0
VERTEX
8
CUT
10
196.6039
20
81.0192
0
VERTEX
8
CUT
10
196.6044
20
81.0341
0
VERTEX
8
CUT
10
196.6058
20
81.0689
0
VERTEX
8
CUT
10
196.6066
20
81.0838
0
VERTEX
8
CUT
10
196.7870
20
84.1489
0
VERTEX
8
CUT
10
196.7878
20
84.1618
0
VERTEX
8
CUT
10
196.7894
20
84.1833
0
VERTEX
8
CUT
10
196.7947
20
84.2349
0
VERTEX
8
CUT
10
196.8061
20
84.3219
0
VERTEX
8
CUT
10
196.8120
20
84.3604
0
VERTEX
8
CUT
10
196.8127
20
84.3643
0
VERTEX
8
CUT
10
196.8203
20
84.4024
0
VERTEX
8
CUT
10
196.8392
20
84.4882
0
VERTEX
8
CUT
10
196.8518
20
84.5385
0
VERTEX
8
CUT
10
196.8577
20
84.5592
0
VERTEX
8
CUT
10
196.8613
20
84.5716
0
VERTEX
8
CUT
10
197.7475
20
87.5493
0
VERTEX
8
CUT
10
197.7496
20
87.5561
0
VERTEX
8
CUT
10
197.7544
20
87.5717
0
VERTEX
8
CUT
10
197.7564
20
87.5784
0
VERTEX
8
CUT
10
197.7574
20
87.5813
0
VERTEX
8
CUT
10
197.7660
20
87.6075
0
VERTEX
8
CUT
10
197.7872
20
87.6682
0
VERTEX
8
CUT
10
197.7949
20
87.6892
0
VERTEX
8
CUT
10
197.8080
20
87.7217
0
VERTEX
8
CUT
10
197.8395
20
87.7953
0
VERTEX
8
CUT
10
197.8537
20
87.8268
0
VERTEX
8
CUT
10
199.2539
20
90.7786
0
VERTEX
8
CUT
10
199.2607
20
90.7925
0
VERTEX
8
CUT
10
199.2768
20
90.8250
0
VERTEX
8
CUT
10
199.2838
20
90.8388
0
VERTEX
8
CUT
10
199.2924
20
90.8554
0
VERTEX
8
CUT
10
199.2996
20
90.8691
0
VERTEX
8
CUT
10
199.3167
20
90.9007
0
VERTEX
8
CUT
10
199.3241
20
90.9143
0
VERTEX
8
CUT
10
199.3375
20
90.9381
0
VERTEX
8
CUT
10
199.3452
20
90.9515
0
VERTEX
8
CUT
10
199.3634
20
90.9826
0
VERTEX
8
CUT
10
199.3713
20
90.9959
0
VERTEX
8
CUT
10
199.3811
20
91.0120
0
VERTEX
8
CUT
10
199.3892
20
91.0251
0
VERTEX
8
CUT
10
199.4085
20
91.0556
0
VERTEX
8
CUT
10
199.4168
20
91.0686
0
VERTEX
8
CUT
10
200.9458
20
93.4003
0
VERTEX
8
CUT
10
200.9538
20
93.4130
0
VERTEX
8
CUT
10
201.0052
20
93.4957
0
VERTEX
8
CUT
10
201.0129
20
93.5085
0
VERTEX
8
CUT
10
201.0425
20
93.5590
0
VERTEX
8
CUT
10
201.0570
20
93.5852
0
VERTEX
8
CUT
10
201.1458
20
93.7555
0
VERTEX
8
CUT
10
201.1708
20
93.8099
0
VERTEX
8
CUT
10
201.2411
20
93.9857
0
VERTEX
8
CUT
10
201.2606
20
94.0424
0
VERTEX
8
CUT
10
201.3130
20
94.2244
0
VERTEX
8
CUT
10
201.3267
20
94.2827
0
VERTEX
8
CUT
10
201.3608
20
94.4690
0
VERTEX
8
CUT
10
201.3686
20
94.5284
0
VERTEX
8
CUT
10
201.3839
20
94.7172
0
VERTEX
8
CUT
10
201.3858
20
94.7770
0
VERTEX
8
CUT
10
201.3822
20
94.9664
0
VERTEX
8
CUT
10
201.3781
20
95.0262
0
VERTEX
8
CUT
10
201.3556
20
95.2142
0
VERTEX
8
CUT
10
201.3455
20
95.2733
0
VERTEX
8
CUT
10
201.3045
20
95.4581
0
VERTEX
8
CUT
10
201.2886
20
95.5159
0
VERTEX
8
CUT
10
201.2292
20
95.6958
0
VERTEX
8
CUT
10
201.2076
20
95.7516
0
VERTEX
8
CUT
10
201.1307
20
95.9247
0
VERTEX
8
CUT
10
201.1036
20
95.9781
0
VERTEX
8
CUT
10
201.0098
20
96.1426
0
VERTEX
8
CUT
10
200.9775
20
96.1931
0
VERTEX
8
CUT
10
200.8678
20
96.3475
0
VERTEX
8
CUT
10
200.8306
20
96.3945
0
VERTEX
8
CUT
10
200.7060
20
96.5371
0
VERTEX
8
CUT
10
200.6644
20
96.5802
0
VERTEX
8
CUT
10
200.5262
20
96.7097
0
VERTEX
8
CUT
10
200.4805
20
96.7484
0
VERTEX
8
CUT
10
200.3300
20
96.8634
0
VERTEX
8
CUT
10
200.2807
20
96.8974
0
VERTEX
8
CUT
10
200.1195
20
96.9969
0
VERTEX
8
CUT
10
200.0670
20
97.0257
0
VERTEX
8
CUT
10
199.8967
20
97.1086
0
VERTEX
8
CUT
10
199.8416
20
97.1321
0
VERTEX
8
CUT
10
199.6639
20
97.1976
0
VERTEX
8
CUT
10
199.6068
20
97.2155
0
VERTEX
8
CUT
10
199.4234
20
97.2630
0
VERTEX
8
CUT
10
199.3647
20
97.2751
0
VERTEX
8
CUT
10
199.1776
20
97.3040
0
VERTEX
8
CUT
10
199.1180
20
97.3102
0
VERTEX
8
CUT
10
198.9289
20
97.3203
0
VERTEX
8
CUT
10
198.8690
20
97.3205
0
VERTEX
8
CUT
10
198.6798
20
97.3118
0
VERTEX
8
CUT
10
198.6202
20
97.3060
0
VERTEX
8
CUT
10
198.4302
20
97.2780
0
VERTEX
8
CUT
10
198.4007
20
97.2729
0
VERTEX
8
CUT
10
198.3433
20
97.2615
0
VERTEX
8
CUT
10
198.3286
20
97.2584
0
VERTEX
8
CUT
10
198.2336
20
97.2370
0
VERTEX
8
CUT
10
198.2191
20
97.2336
0
VERTEX
8
CUT
10
192.6703
20
95.8394
0
VERTEX
8
CUT
10
192.6560
20
95.8356
0
VERTEX
8
CUT
10
192.5634
20
95.8099
0
VERTEX
8
CUT
10
192.5492
20
95.8057
0
VERTEX
8
CUT
10
192.4338
20
95.7706
0
VERTEX
8
CUT
10
192.4197
20
95.7661
0
VERTEX
8
CUT
10
192.3285
20
95.7359
0
VERTEX
8
CUT
10
192.3146
20
95.7311
0
VERTEX
8
CUT
10
187.5445
20
94.0183
0
VERTEX
8
CUT
10
187.5332
20
94.0141
0
VERTEX
8
CUT
10
187.4600
20
93.9861
0
VERTEX
8
CUT
10
187.4487
20
93.9817
0
VERTEX
8
CUT
10
187.4050
20
93.9640
0
VERTEX
8
CUT
10
187.3828
20
93.9545
0
VERTEX
8
CUT
10
187.2400
20
93.8898
0
VERTEX
8
CUT
10
187.2183
20
93.8794
0
VERTEX
8
CUT
10
187.1761
20
93.8583
0
VERTEX
8
CUT
10
187.1654
20
93.8528
0
VERTEX
8
CUT
10
187.0961
20
93.8162
0
VERTEX
8
CUT
10
187.0854
20
93.8104
0
VERTEX
8
CUT
10
185.4876
20
92.9259
0
VERTEX
8
CUT
10
185.4765
20
92.9196
0
VERTEX
8
CUT
10
185.4047
20
92.8778
0
VERTEX
8
CUT
10
185.3937
20
92.8713
0
VERTEX
8
CUT
10
185.3511
20
92.8453
0
VERTEX
8
CUT
10
185.3296
20
92.8315
0
VERTEX
8
CUT
10
185.1917
20
92.7390
0
VERTEX
8
CUT
10
185.1708
20
92.7243
0
VERTEX
8
CUT
10
185.1306
20
92.6948
0
VERTEX
8
CUT
10
185.1204
20
92.6871
0
VERTEX
8
CUT
10
185.0545
20
92.6366
0
VERTEX
8
CUT
10
185.0444
20
92.6287
0
VERTEX
8
CUT
10
183.6589
20
91.5176
0
VERTEX
8
CUT
10
183.6471
20
91.5078
0
VERTEX
8
CUT
10
183.5710
20
91.4435
0
VERTEX
8
CUT
10
183.5594
20
91.4335
0
VERTEX
8
CUT
10
183.5147
20
91.3937
0
VERTEX
8
CUT
10
183.4923
20
91.3727
0
VERTEX
8
CUT
10
183.3504
20
91.2329
0
VERTEX
8
CUT
10
183.3291
20
91.2108
0
VERTEX
8
CUT
10
183.2887
20
91.1666
0
VERTEX
8
CUT
10
183.2785
20
91.1552
0
VERTEX
8
CUT
10
183.2131
20
91.0800
0
VERTEX
8
CUT
10
183.2031
20
91.0683
0
VERTEX
8
CUT
10
182.1696
20
89.8170
0
VERTEX
8
CUT
10
182.1603
20
89.8055
0
VERTEX
8
CUT
10
182.1013
20
89.7304
0
VERTEX
8
CUT
10
182.0923
20
89.7187
0
VERTEX
8
CUT
10
182.0580
20
89.6727
0
VERTEX
8
CUT
10
182.0410
20
89.6487
0
VERTEX
8
CUT
10
181.9343
20
89.4902
0
VERTEX
8
CUT
10
181.9185
20
89.4654
0
VERTEX
8
CUT
10
181.8888
20
89.4162
0
VERTEX
8
CUT
10
181.8813
20
89.4035
0
VERTEX
8
CUT
10
181.8340
20
89.3205
0
VERTEX
8
CUT
10
181.8268
20
89.3077
0
VERTEX
8
CUT
10
181.0792
20
87.9204
0
VERTEX
8
CUT
10
181.0713
20
87.9053
0
VERTEX
8
CUT
10
181.0215
20
87.8061
0
VERTEX
8
CUT
10
181.0140
20
87.7908
0
VERTEX
8
CUT
10
180.9858
20
87.7304
0
VERTEX
8
CUT
10
180.9722
20
87.6991
0
VERTEX
8
CUT
10
180.8910
20
87.4959
0
VERTEX
8
CUT
10
180.8693
20
87.4312
0
VERTEX
8
CUT
10
180.8117
20
87.2201
0
VERTEX
8
CUT
10
180.8036
20
87.1869
0
VERTEX
8
CUT
10
180.7897
20
87.1218
0
VERTEX
8
CUT
10
180.7864
20
87.1050
0
VERTEX
8
CUT
10
180.7664
20
86.9958
0
VERTEX
8
CUT
10
180.7636
20
86.9790
0
VERTEX
8
CUT
10
180.6321
20
86.1248
0
VERTEX
8
CUT
10
180.6304
20
86.1123
0
VERTEX
8
CUT
10
180.6196
20
86.0316
0
VERTEX
8
CUT
10
180.6181
20
86.0191
0
VERTEX
8
CUT
10
180.6127
20
85.9704
0
VERTEX
8
CUT
10
180.6105
20
85.9455
0
VERTEX
8
CUT
10
180.5992
20
85.7830
0
VERTEX
8
CUT
10
180.5980
20
85.7579
0
VERTEX
8
CUT
10
180.5967
20
85.7090
0
VERTEX
8
CUT
10
180.5964
20
85.6964
0
VERTEX
8
CUT
10
180.5959
20
85.6150
0
VERTEX
8
CUT
10
180.5960
20
85.6024
0
VERTEX
8
CUT
10
180.6352
20
82.8869
0
VERTEX
8
CUT
10
180.6356
20
82.8743
0
VERTEX
8
CUT
10
180.6384
20
82.7928
0
VERTEX
8
CUT
10
180.6390
20
82.7802
0
VERTEX
8
CUT
10
180.6418
20
82.7312
0
VERTEX
8
CUT
10
180.6437
20
82.7062
0
VERTEX
8
CUT
10
180.6597
20
82.5438
0
VERTEX
8
CUT
10
180.6627
20
82.5188
0
VERTEX
8
CUT
10
180.6695
20
82.4702
0
VERTEX
8
CUT
10
180.6714
20
82.4578
0
VERTEX
8
CUT
10
180.6845
20
82.3773
0
VERTEX
8
CUT
10
180.6867
20
82.3649
0
VERTEX
8
CUT
10
180.8510
20
81.4715
0
VERTEX
8
CUT
10
180.8542
20
81.4551
0
VERTEX
8
CUT
10
180.8770
20
81.3482
0
VERTEX
8
CUT
10
180.8807
20
81.3318
0
VERTEX
8
CUT
10
180.8962
20
81.2681
0
VERTEX
8
CUT
10
180.9050
20
81.2357
0
VERTEX
8
CUT
10
180.9683
20
81.0268
0
VERTEX
8
CUT
10
180.9789
20
80.9949
0
VERTEX
8
CUT
10
181.0014
20
80.9333
0
VERTEX
8
CUT
10
181.0074
20
80.9176
0
VERTEX
8
CUT
10
181.0477
20
80.8161
0
VERTEX
8
CUT
10
181.0541
20
80.8005
0
VERTEX
8
CUT
10
181.3582
20
80.0933
0
VERTEX
8
CUT
10
181.3631
20
80.0820
0
VERTEX
8
CUT
10
181.3962
20
80.0092
0
VERTEX
8
CUT
10
181.4014
20
79.9981
0
VERTEX
8
CUT
10
181.4222
20
79.9547
0
VERTEX
8
CUT
10
181.4333
20
79.9327
0
VERTEX
8
CUT
10
181.5073
20
79.7934
0
VERTEX
8
CUT
10
181.5321
20
79.7509
0
VERTEX
8
CUT
10
181.6172
20
79.6181
0
VERTEX
8
CUT
10
181.6309
20
79.5977
0
VERTEX
8
CUT
10
181.6585
20
79.5583
0
VERTEX
8
CUT
10
181.6657
20
79.5483
0
VERTEX
8
CUT
10
181.7129
20
79.4838
0
VERTEX
8
CUT
10
181.7202
20
79.4739
0
VERTEX
8
CUT
10
183.3510
20
77.3379
0
VERTEX
8
CUT
10
183.3612
20
77.3250
0
VERTEX
8
CUT
10
183.4283
20
77.2418
0
VERTEX
8
CUT
10
183.4388
20
77.2292
0
VERTEX
8
CUT
10
183.5260
20
77.1272
0
VERTEX
8
CUT
10
183.5368
20
77.1149
0
VERTEX
8
CUT
10
183.6084
20
77.0355
0
VERTEX
8
CUT
10
183.6196
20
77.0235
0
VERTEX
8
CUT
10
190.1695
20
70.1553
0
VERTEX
8
CUT
10
190.1793
20
70.1449
0
VERTEX
8
CUT
10
190.2020
20
70.1203
0
VERTEX
8
CUT
10
190.2116
20
70.1097
0
VERTEX
8
CUT
10
190.2233
20
70.0967
0
VERTEX
8
CUT
10
190.2327
20
70.0859
0
VERTEX
8
CUT
10
190.2546
20
70.0607
0
VERTEX
8
CUT
10
190.2639
20
70.0498
0
VERTEX
8
CUT
10
190.2802
20
70.0303
0
VERTEX
8
CUT
10
190.2893
20
70.0193
0
VERTEX
8
CUT
10
190.3104
20
69.9933
0
VERTEX
8
CUT
10
190.3194
20
69.9821
0
VERTEX
8
CUT
10
190.3302
20
69.9684
0
VERTEX
8
CUT
10
190.3389
20
69.9571
0
VERTEX
8
CUT
10
190.3592
20
69.9305
0
VERTEX
8
CUT
10
190.3677
20
69.9190
0
VERTEX
8
CUT
10
191.4806
20
68.4065
0
VERTEX
8
CUT
10
191.4860
20
68.3990
0
VERTEX
8
CUT
10
191.4949
20
68.3867
0
VERTEX
8
CUT
10
191.5157
20
68.3565
0
VERTEX
8
CUT
10
191.5499
20
68.3046
0
VERTEX
8
CUT
10
191.5647
20
68.2814
0
VERTEX
8
CUT
10
191.5663
20
68.2789
0
VERTEX
8
CUT
10
191.5804
20
68.2553
0
VERTEX
8
CUT
10
191.6114
20
68.2015
0
VERTEX
8
CUT
10
191.6290
20
68.1693
0
VERTEX
8
CUT
10
191.6361
20
68.1558
0
VERTEX
8
CUT
10
191.6403
20
68.1476
0
VERTEX
8
CUT
10
192.2890
20
66.8747
0
VERTEX
8
CUT
10
192.2947
20
66.8633
0
VERTEX
8
CUT
10
192.3041
20
66.8442
0
VERTEX
8
CUT
10
192.3254
20
66.7976
0
VERTEX
8
CUT
10
192.3592
20
66.7177
0
VERTEX
8
CUT
10
192.3734
20
66.6820
0
VERTEX
8
CUT
10
192.3748
20
66.6783
0
VERTEX
8
CUT
10
192.3874
20
66.6420
0
VERTEX
8
CUT
10
192.4143
20
66.5595
0
VERTEX
8
CUT
10
192.4287
20
66.5104
0
VERTEX
8
CUT
10
192.4342
20
66.4898
0
VERTEX
8
CUT
10
192.4373
20
66.4774
0
VERTEX
8
CUT
10
192.8242
20
64.9204
0
VERTEX
8
CUT
10
192.8271
20
64.9084
0
VERTEX
8
CUT
10
192.8318
20
64.8885
0
VERTEX
8
CUT
10
192.8417
20
64.8403
0
VERTEX
8
CUT
10
192.8562
20
64.7582
0
VERTEX
8
CUT
10
192.8619
20
64.7218
0
VERTEX
8
CUT
10
192.8624
20
64.7180
0
VERTEX
8
CUT
10
192.8666
20
64.6813
0
VERTEX
8
CUT
10
192.8743
20
64.5983
0
VERTEX
8
CUT
10
192.8776
20
64.5492
0
VERTEX
8
CUT
10
192.8784
20
64.5287
0
VERTEX
8
CUT
10
192.8788
20
64.5164
0
VERTEX
8
CUT
10
192.9195
20
62.8689
0
VERTEX
8
CUT
10
192.9197
20
62.8587
0
VERTEX
8
CUT
10
192.9199
20
62.8418
0
VERTEX
8
CUT
10
192.9196
20
62.8011
0
VERTEX
8
CUT
10
192.9179
20
62.7478
0
VERTEX
8
CUT
10
192.9128
20
62.6767
0
VERTEX
8
CUT
10
192.9049
20
62.6057
0
VERTEX
8
CUT
10
192.8942
20
62.5352
0
VERTEX
8
CUT
10
192.8841
20
62.4829
0
VERTEX
8
CUT
10
192.8755
20
62.4431
0
VERTEX
8
CUT
10
192.8715
20
62.4266
0
VERTEX
8
CUT
10
192.8691
20
62.4167
0
VERTEX
8
CUT
10
192.5913
20
61.3139
0
VERTEX
8
CUT
10
192.5888
20
61.3043
0
VERTEX
8
CUT
10
192.5866
20
61.2959
0
VERTEX
8
CUT
10
192.5708
20
61.2426
0
VERTEX
8
CUT
10
192.5453
20
61.1657
0
VERTEX
8
CUT
10
192.5121
20
61.0803
0
VERTEX
8
CUT
10
192.4872
20
61.0246
0
VERTEX
8
CUT
10
192.4455
20
60.9430
0
VERTEX
8
CUT
10
192.4050
20
60.8729
0
VERTEX
8
CUT
10
192.3757
20
60.8255
0
VERTEX
8
CUT
10
192.3709
20
60.8183
0
VERTEX
8
CUT
10
192.3654
20
60.8101
0
VERTEX
8
CUT
10
191.8537
20
60.0561
0
VERTEX
8
CUT
10
191.8475
20
60.0471
0
VERTEX
8
CUT
10
191.8421
20
60.0393
0
VERTEX
8
CUT
10
191.8051
20
59.9898
0
VERTEX
8
CUT
10
191.7489
20
59.9199
0
VERTEX
8
CUT
10
191.6808
20
59.8444
0
VERTEX
8
CUT
10
191.6327
20
59.7968
0
VERTEX
8
CUT
10
191.5566
20
59.7294
0
VERTEX
8
CUT
10
191.4861
20
59.6738
0
VERTEX
8
CUT
10
191.4364
20
59.6373
0
VERTEX
8
CUT
10
191.4285
20
59.6319
0
VERTEX
8
CUT
10
191.4195
20
59.6258
0
VERTEX
8
CUT
10
190.6325
20
59.1023
0
VERTEX
8
CUT
10
190.6242
20
59.0969
0
VERTEX
8
CUT
10
190.6169
20
59.0922
0
VERTEX
8
CUT
10
190.5692
20
59.0632
0
VERTEX
8
CUT
10
190.4985
20
59.0233
0
VERTEX
8
CUT
10
190.4162
20
58.9823
0
VERTEX
8
CUT
10
190.3601
20
58.9578
0
VERTEX
8
CUT
10
190.2741
20
58.9253
0
VERTEX
8
CUT
10
190.1968
20
58.9006
0
VERTEX
8
CUT
10
190.1431
20
58.8852
0
VERTEX
8
CUT
10
190.1347
20
58.8831
0
VERTEX
8
CUT
10
190.1251
20
58.8807
0
VERTEX
8
CUT
10
188.7878
20
58.5585
0
VERTEX
8
CUT
10
188.7778
20
58.5561
0
VERTEX
8
CUT
10
188.7612
20
58.5523
0
VERTEX
8
CUT
10
188.7211
20
58.5441
0
VERTEX
8
CUT
10
188.6683
20
58.5345
0
VERTEX
8
CUT
10
188.5974
20
58.5245
0
VERTEX
8
CUT
10
188.5258
20
58.5173
0
VERTEX
8
CUT
10
188.4543
20
58.5130
0
VERTEX
8
CUT
10
188.4007
20
58.5120
0
VERTEX
8
CUT
10
188.3598
20
58.5120
0
VERTEX
8
CUT
10
188.3427
20
58.5125
0
VERTEX
8
CUT
10
188.3325
20
58.5128
0
VERTEX
8
CUT
10
186.8870
20
58.5656
0
VERTEX
8
CUT
10
186.8775
20
58.5660
0
VERTEX
8
CUT
10
186.8617
20
58.5668
0
VERTEX
8
CUT
10
186.8238
20
58.5694
0
VERTEX
8
CUT
10
186.7741
20
58.5738
0
VERTEX
8
CUT
10
186.7081
20
58.5822
0
VERTEX
8
CUT
10
186.6422
20
58.5931
0
VERTEX
8
CUT
10
186.5770
20
58.6063
0
VERTEX
8
CUT
10
186.5285
20
58.6180
0
VERTEX
8
CUT
10
186.4918
20
58.6277
0
VERTEX
8
CUT
10
186.4766
20
58.6321
0
VERTEX
8
CUT
10
186.4674
20
58.6348
0
VERTEX
8
CUT
10
184.9371
20
59.0916
0
VERTEX
8
CUT
10
184.9241
20
59.0956
0
VERTEX
8
CUT
10
184.9025
20
59.1024
0
VERTEX
8
CUT
10
184.8509
20
59.1204
0
VERTEX
8
CUT
10
184.7645
20
59.1535
0
VERTEX
8
CUT
10
184.7266
20
59.1691
0
VERTEX
8
CUT
10
184.7228
20
59.1707
0
VERTEX
8
CUT
10
184.6856
20
59.1880
0
VERTEX
8
CUT
10
184.6026
20
59.2288
0
VERTEX
8
CUT
10
184.5544
20
59.2544
0
VERTEX
8
CUT
10
184.5347
20
59.2656
0
VERTEX
8
CUT
10
184.5229
20
59.2724
0
VERTEX
8
CUT
10
181.5884
20
61.0034
0
VERTEX
8
CUT
10
181.5822
20
61.0071
0
VERTEX
8
CUT
10
181.5678
20
61.0158
0
VERTEX
8
CUT
10
181.5616
20
61.0195
0
VERTEX
8
CUT
10
181.5589
20
61.0211
0
VERTEX
8
CUT
10
181.5350
20
61.0363
0
VERTEX
8
CUT
10
181.4797
20
61.0726
0
VERTEX
8
CUT
10
181.4607
20
61.0855
0
VERTEX
8
CUT
10
181.4315
20
61.1067
0
VERTEX
8
CUT
10
181.3661
20
61.1566
0
VERTEX
8
CUT
10
181.3382
20
61.1787
0
VERTEX
8
CUT
10
178.0110
20
63.9303
0
VERTEX
8
CUT
10
177.9995
20
63.9396
0
VERTEX
8
CUT
10
177.9239
20
63.9990
0
VERTEX
8
CUT
10
177.9122
20
64.0080
0
VERTEX
8
CUT
10
177.8658
20
64.0427
0
VERTEX
8
CUT
10
177.8416
20
64.0598
0
VERTEX
8
CUT
10
177.6841
20
64.1658
0
VERTEX
8
CUT
10
177.6333
20
64.1964
0
VERTEX
8
CUT
10
177.4684
20
64.2852
0
VERTEX
8
CUT
10
177.4149
20
64.3106
0
VERTEX
8
CUT
10
177.2420
20
64.3826
0
VERTEX
8
CUT
10
177.1863
20
64.4027
0
VERTEX
8
CUT
10
177.0071
20
64.4573
0
VERTEX
8
CUT
10
176.9497
20
64.4718
0
VERTEX
8
CUT
10
176.7660
20
64.5084
0
VERTEX
8
CUT
10
176.7074
20
64.5172
0
VERTEX
8
CUT
10
176.5210
20
64.5356
0
VERTEX
8
CUT
10
176.4619
20
64.5385
0
VERTEX
8
CUT
10
176.2746
20
64.5384
0
VERTEX
8
CUT
10
176.2154
20
64.5354
0
VERTEX
8
CUT
10
176.0290
20
64.5169
0
VERTEX
8
CUT
10
175.9705
20
64.5081
0
VERTEX
8
CUT
10
175.7868
20
64.4713
0
VERTEX
8
CUT
10
175.7294
20
64.4568
0
VERTEX
8
CUT
10
175.5503
20
64.4020
0
VERTEX
8
CUT
10
175.4946
20
64.3819
0
VERTEX
8
CUT
10
175.3217
20
64.3098
0
VERTEX
8
CUT
10
175.2682
20
64.2843
0
VERTEX
8
CUT
10
175.1034
20
64.1954
0
VERTEX
8
CUT
10
175.0527
20
64.1648
0
VERTEX
8
CUT
10
174.8974
20
64.0601
0
VERTEX
8
CUT
10
174.8499
20
64.0246
0
VERTEX
8
CUT
10
174.7057
20
63.9051
0
VERTEX
8
CUT
10
174.6620
20
63.8651
0
VERTEX
8
CUT
10
174.5303
20
63.7320
0
VERTEX
8
CUT
10
174.4907
20
63.6879
0
VERTEX
8
CUT
10
174.3728
20
63.5424
0
VERTEX
8
CUT
10
174.3378
20
63.4946
0
VERTEX
8
CUT
10
174.2347
20
63.3382
0
VERTEX
8
CUT
10
174.2046
20
63.2872
0
VERTEX
8
CUT
10
174.1175
20
63.1214
0
VERTEX
8
CUT
10
174.0925
20
63.0677
0
VERTEX
8
CUT
10
174.0222
20
62.8941
0
VERTEX
8
CUT
10
174.0027
20
62.8382
0
VERTEX
8
CUT
10
173.9498
20
62.6585
0
VERTEX
8
CUT
10
173.9359
20
62.6009
0
VERTEX
8
CUT
10
173.9010
20
62.4169
0
VERTEX
8
CUT
10
173.8928
20
62.3582
0
SEQEND
0
POLYLINE
8
CUT
66
1
70
1
10
0.0
20
0.0
30
0.0
0
VERTEX
8
CUT
10
121.5548
20
117.5086
0
VERTEX
8
CUT
10
121.5548
20
117.4502
0
VERTEX
8
CUT
10
121.5639
20
117.2656
0
VERTEX
8
CUT
10
121.5696
20
117.2074
0
VERTEX
8
CUT
10
121.5966
20
117.0246
0
VERTEX
8
CUT
10
121.6079
20
116.9672
0
VERTEX
8
CUT
10
121.6526
20
116.7879
0
VERTEX
8
CUT
10
121.6695
20
116.7319
0
VERTEX
8
CUT
10
121.7314
20
116.5578
0
VERTEX
8
CUT
10
121.7536
20
116.5038
0
VERTEX
8
CUT
10
121.8321
20
116.3365
0
VERTEX
8
CUT
10
121.8595
20
116.2848
0
VERTEX
8
CUT
10
121.9540
20
116.1260
0
VERTEX
8
CUT
10
121.9863
20
116.0773
0
VERTEX
8
CUT
10
122.0957
20
115.9284
0
VERTEX
8
CUT
10
122.1326
20
115.8830
0
VERTEX
8
CUT
10
122.2560
20
115.7455
0
VERTEX
8
CUT
10
122.2972
20
115.7039
0
VERTEX
8
CUT
10
122.4334
20
115.5791
0
VERTEX
8
CUT
10
122.4783
20
115.5417
0
VERTEX
8
CUT
10
122.6281
20
115.4291
0
VERTEX
8
CUT
10
122.6519
20
115.4121
0
VERTEX
8
CUT
10
122.6992
20
115.3801
0
VERTEX
8
CUT
10
122.7114
20
115.3721
0
VERTEX
8
CUT
10
122.7913
20
115.3207
0
VERTEX
8
CUT
10
122.8037
20
115.3129
0
VERTEX
8
CUT
10
124.1462
20
114.4953
0
VERTEX
8
CUT
10
124.1619
20
114.4861
0
VERTEX
8
CUT
10
124.2651
20
114.4274
0
VERTEX
8
CUT
10
124.2811
20
114.4187
0
VERTEX
8
CUT
10
124.4128
20
114.3491
0
VERTEX
8
CUT
10
124.4290
20
114.3408
0
VERTEX
8
CUT
10
124.5356
20
114.2886
0
VERTEX
8
CUT
10
124.5521
20
114.2808
0
VERTEX
8
CUT
10
127.3602
20
113.0090
0
VERTEX
8
CUT
10
127.3728
20
113.0034
0
VERTEX
8
CUT
10
127.4556
20
112.9682
0
VERTEX
8
CUT
10
127.4684
20
112.9629
0
VERTEX
8
CUT
10
127.5733
20
112.9211
0
VERTEX
8
CUT
10
127.5862
20
112.9162
0
VERTEX
8
CUT
10
127.6705
20
112.8848
0
VERTEX
8
CUT
10
127.6835
20
112.8801
0
VERTEX
8
CUT
10
130.5880
20
111.8754
0
VERTEX
8
CUT
10
130.6002
20
111.8714
0
VERTEX
8
CUT
10
130.6800
20
111.8457
0
VERTEX
8
CUT
10
130.6923
20
111.8419
0
VERTEX
8
CUT
10
130.7930
20
111.8118
0
VERTEX
8
CUT
10
130.8054
20
111.8082
0
VERTEX
8
CUT
10
130.8862
20
111.7860
0
VERTEX
8
CUT
10
130.8986
20
111.7827
0
VERTEX
8
CUT
10
133.5481
20
111.1144
0
VERTEX
8
CUT
10
133.5622
20
111.1110
0
VERTEX
8
CUT
10
133.6541
20
111.0901
0
VERTEX
8
CUT
10
133.6683
20
111.0871
0
VERTEX
8
CUT
10
133.7238
20
111.0759
0
VERTEX
8
CUT
10
133.7523
20
111.0709
0
VERTEX
8
CUT
10
133.9361
20
111.0430
0
VERTEX
8
CUT
10
133.9938
20
111.0371
0
VERTEX
8
CUT
10
134.1769
20
111.0273
0
VERTEX
8
CUT
10
134.2349
20
111.0270
0
VERTEX
8
CUT
10
134.4180
20
111.0348
0
VERTEX
8
CUT
10
134.4758
20
111.0401
0
VERTEX
8
CUT
10
134.6573
20
111.0656
0
VERTEX
8
CUT
10
134.7143
20
111.0765
0
VERTEX
8
CUT
10
134.8926
20
111.1194
0
VERTEX
8
CUT
10
134.9482
20
111.1357
0
VERTEX
8
CUT
10
135.0534
20
111.1721
0
VERTEX
8
CUT
10
135.0959
20
111.1856
0
VERTEX
8
CUT
10
135.1743
20
111.2084
0
VERTEX
8
CUT
10
135.2610
20
111.2291
0
VERTEX
8
CUT
10
135.3193
20
111.2400
0
VERTEX
8
CUT
10
135.4076
20
111.2519
0
VERTEX
8
CUT
10
135.4667
20
111.2570
0
VERTEX
8
CUT
10
135.5557
20
111.2602
0
VERTEX
8
CUT
10
135.6151
20
111.2594
0
VERTEX
8
CUT
10
135.7040
20
111.2537
0
VERTEX
8
CUT
10
135.7629
20
111.2471
0
VERTEX
8
CUT
10
135.8509
20
111.2327
0
VERTEX
8
CUT
10
135.9089
20
111.2202
0
VERTEX
8
CUT
10
135.9950
20
111.1972
0
VERTEX
8
CUT
10
136.0514
20
111.1790
0
VERTEX
8
CUT
10
136.1348
20
111.1476
0
VERTEX
8
CUT
10
136.1892
20
111.1239
0
VERTEX
8
CUT
10
136.2691
20
111.0844
0
VERTEX
8
CUT
10
136.3404
20
111.0446
0
VERTEX
8
CUT
10
136.3788
20
111.0219
0
VERTEX
8
CUT
10
136.3899
20
111.0150
0
VERTEX
8
CUT
10
136.4148
20
111.0002
0
VERTEX
8
CUT
10
136.5772
20
110.9093
0
VERTEX
8
CUT
10
136.6292
20
110.8835
0
VERTEX
8
CUT
10
136.7973
20
110.8097
0
VERTEX
8
CUT
10
136.8515
20
110.7890
0
VERTEX
8
CUT
10
137.0260
20
110.7318
0
VERTEX
8
CUT
10
137.0819
20
110.7165
0
VERTEX
8
CUT
10
137.2611
20
110.6764
0
VERTEX
8
CUT
10
137.3183
20
110.6665
0
VERTEX
8
CUT
10
137.5030
20
110.6437
0
VERTEX
8
CUT
10
137.5318
20
110.6408
0
VERTEX
8
CUT
10
137.5884
20
110.6366
0
VERTEX
8
CUT
10
137.6029
20
110.6357
0
VERTEX
8
CUT
10
137.6971
20
110.6309
0
VERTEX
8
CUT
10
137.7116
20
110.6304
0
VERTEX
8
CUT
10
138.6083
20
110.6069
0
VERTEX
8
CUT
10
138.6239
20
110.6067
0
VERTEX
8
CUT
10
138.7251
20
110.6066
0
VERTEX
8
CUT
10
138.7407
20
110.6068
0
VERTEX
8
CUT
10
138.8677
20
110.6101
0
VERTEX
8
CUT
10
138.8833
20
110.6107
0
VERTEX
8
CUT
10
138.9844
20
110.6159
0
VERTEX
8
CUT
10
138.9999
20
110.6169
0
VERTEX
8
CUT
10
145.3524
20
111.1110
0
VERTEX
8
CUT
10
145.3633
20
111.1120
0
VERTEX
8
CUT
10
145.4398
20
111.1193
0
VERTEX
8
CUT
10
145.4512
20
111.1205
0
VERTEX
8
CUT
10
145.5013
20
111.1263
0
VERTEX
8
CUT
10
145.5254
20
111.1296
0
VERTEX
8
CUT
10
145.6749
20
111.1530
0
VERTEX
8
CUT
10
145.6979
20
111.1571
0
VERTEX
8
CUT
10
145.7377
20
111.1649
0
VERTEX
8
CUT
10
145.7485
20
111.1672
0
VERTEX
8
CUT
10
145.8227
20
111.1832
0
VERTEX
8
CUT
10
145.8348
20
111.1860
0
VERTEX
8
CUT
10
150.2164
20
112.2277
0
VERTEX
8
CUT
10
150.2352
20
112.2325
0
VERTEX
8
CUT
10
150.3570
20
112.2657
0
VERTEX
8
CUT
10
150.3756
20
112.2711
0
VERTEX
8
CUT
10
150.5270
20
112.3176
0
VERTEX
8
CUT
10
150.5455
20
112.3236
0
VERTEX
8
CUT
10
150.6648
20
112.3646
0
VERTEX
8
CUT
10
150.6831
20
112.3712
0
VERTEX
8
CUT
10
155.2372
20
114.1006
0
VERTEX
8
CUT
10
155.2471
20
114.1044
0
VERTEX
8
CUT
10
155.3156
20
114.1318
0
VERTEX
8
CUT
10
155.3258
20
114.1360
0
VERTEX
8
CUT
10
155.3705
20
114.1548
0
VERTEX
8
CUT
10
155.3918
20
114.1643
0
VERTEX
8
CUT
10
155.5235
20
114.2260
0
VERTEX
8
CUT
10
155.5437
20
114.2359
0
VERTEX
8
CUT
10
155.5783
20
114.2537
0
VERTEX
8
CUT
10
155.5877
20
114.2586
0
VERTEX
8
CUT
10
155.6521
20
114.2932
0
VERTEX
8
CUT
10
155.6624
20
114.2989
0
VERTEX
8
CUT
10
156.3983
20
114.7129
0
VERTEX
8
CUT
10
156.4111
20
114.7204
0
VERTEX
8
CUT
10
156.4935
20
114.7695
0
VERTEX
8
CUT
10
156.5061
20
114.7772
0
VERTEX
8
CUT
10
156.5549
20
114.8079
0
VERTEX
8
CUT
10
156.5795
20
114.8242
0
VERTEX
8
CUT
10
156.7345
20
114.9328
0
VERTEX
8
CUT
10
156.7812
20
114.9691
0
VERTEX
8
CUT
10
156.9228
20
115.0907
0
VERTEX
8
CUT
10
156.9656
20
115.1313
0
VERTEX
8
CUT
10
157.0946
20
115.2663
0
VERTEX
8
CUT
10
157.1333
20
115.3109
0
VERTEX
8
CUT
10
157.2484
20
115.4579
0
VERTEX
8
CUT
10
157.2824
20
115.5061
0
VERTEX
8
CUT
10
157.3825
20
115.6637
0
VERTEX
8
CUT
10
157.4117
20
115.7151
0
VERTEX
8
CUT
10
157.4958
20
115.8817
0
VERTEX
8
CUT
10
157.5198
20
115.9357
0
VERTEX
8
CUT
10
157.5871
20
116.1098
0
VERTEX
8
CUT
10
157.6057
20
116.1659
0
VERTEX
8
CUT
10
157.6555
20
116.3457
0
VERTEX
8
CUT
10
157.6685
20
116.4034
0
VERTEX
8
CUT
10
157.7005
20
116.5873
0
VERTEX
8
CUT
10
157.7077
20
116.6459
0
VERTEX
8
CUT
10
157.7214
20
116.8321
0
VERTEX
8
CUT
10
157.7229
20
116.8911
0
VERTEX
8
CUT
10
157.7182
20
117.0777
0
VERTEX
8
CUT
10
157.7138
20
117.1366
0
VERTEX
8
CUT
10
157.6909
20
117.3219
0
VERTEX
8
CUT
10
157.6807
20
117.3800
0
VERTEX
8
CUT
10
157.6397
20
117.5622
0
VERTEX
8
CUT
10
157.6239
20
117.6191
0
VERTEX
8
CUT
10
157.5651
20
117.7962
0
VERTEX
8
CUT
10
157.5438
20
117.8513
0
VERTEX
8
CUT
10
157.4679
20
118.0219
0
VERTEX
8
CUT
10
157.4412
20
118.0746
0
VERTEX
8
CUT
10
157.3489
20
118.2368
0
VERTEX
8
CUT
10
157.3172
20
118.2867
0
VERTEX
8
CUT
10
157.2094
20
118.4391
0
VERTEX
8
CUT
10
157.1730
20
118.4855
0
VERTEX
8
CUT
10
157.0507
20
118.6266
0
VERTEX
8
CUT
10
157.0099
20
118.6693
0
VERTEX
8
CUT
10
156.8744
20
118.7977
0
VERTEX
8
CUT
10
156.8296
20
118.8361
0
VERTEX
8
CUT
10
156.6821
20
118.9505
0
VERTEX
8
CUT
10
156.6337
20
118.9844
0
VERTEX
8
CUT
10
156.4735
20
119.0851
0
VERTEX
8
CUT
10
156.4481
20
119.1002
0
VERTEX
8
CUT
10
156.3978
20
119.1285
0
VERTEX
8
CUT
10
156.3848
20
119.1356
0
VERTEX
8
CUT
10
156.3001
20
119.1805
0
VERTEX
8
CUT
10
156.2869
20
119.1873
0
VERTEX
8
CUT
10
152.2198
20
121.2170
0
VERTEX
8
CUT
10
152.2054
20
121.2243
0
VERTEX
8
CUT
10
152.1721
20
121.2417
0
VERTEX
8
CUT
10
152.1579
20
121.2493
0
VERTEX
8
CUT
10
152.1406
20
121.2587
0
VERTEX
8
CUT
10
152.1265
20
121.2665
0
VERTEX
8
CUT
10
152.0939
20
121.2851
0
VERTEX
8
CUT
10
152.0799
20
121.2931
0
VERTEX
8
CUT
10
152.0554
20
121.3076
0
VERTEX
8
CUT
10
152.0417
20
121.3160
0
VERTEX
8
CUT
10
152.0097
20
121.3357
0
VERTEX
8
CUT
10
151.9960
20
121.3443
0
VERTEX
8
CUT
10
151.9795
20
121.3549
0
VERTEX
8
CUT
10
151.9660
20
121.3637
0
VERTEX
8
CUT
10
151.9347
20
121.3845
0
VERTEX
8
CUT
10
151.9214
20
121.3936
0
VERTEX
8
CUT
10
149.5172
20
123.0600
0
VERTEX
8
CUT
10
149.5094
20
123.0654
0
VERTEX
8
CUT
10
149.4964
20
123.0746
0
VERTEX
8
CUT
10
149.4658
20
123.0973
0
VERTEX
8
CUT
10
149.4147
20
123.1369
0
VERTEX
8
CUT
10
149.3924
20
123.1548
0
VERTEX
8
CUT
10
149.3900
20
123.1567
0
VERTEX
8
CUT
10
149.3683
20
123.1753
0
VERTEX
8
CUT
10
149.3198
20
123.2180
0
VERTEX
8
CUT
10
149.2917
20
123.2439
0
VERTEX
8
CUT
10
149.2803
20
123.2548
0
VERTEX
8
CUT
10
149.2734
20
123.2615
0
VERTEX
8
CUT
10
147.3739
20
125.1242
0
VERTEX
8
CUT
10
147.3631
20
125.1346
0
VERTEX
8
CUT
10
147.2917
20
125.2011
0
VERTEX
8
CUT
10
147.2806
20
125.2112
0
VERTEX
8
CUT
10
147.2368
20
125.2501
0
VERTEX
8
CUT
10
147.2139
20
125.2695
0
VERTEX
8
CUT
10
147.0638
20
125.3897
0
VERTEX
8
CUT
10
147.0151
20
125.4249
0
VERTEX
8
CUT
10
146.8560
20
125.5281
0
VERTEX
8
CUT
10
146.8041
20
125.5582
0
VERTEX
8
CUT
10
146.6355
20
125.6450
0
VERTEX
8
CUT
10
146.5808
20
125.6698
0
VERTEX
8
CUT
10
146.4043
20
125.7394
0
VERTEX
8
CUT
10
146.3475
20
125.7585
0
VERTEX
8
CUT
10
146.1649
20
125.8101
0
VERTEX
8
CUT
10
146.1064
20
125.8235
0
VERTEX
8
CUT
10
145.9197
20
125.8566
0
VERTEX
8
CUT
10
145.8601
20
125.8641
0
VERTEX
8
CUT
10
145.6710
20
125.8784
0
VERTEX
8
CUT
10
145.6110
20
125.8799
0
VERTEX
8
CUT
10
145.4214
20
125.8752
0
VERTEX
8
CUT
10
145.3615
20
125.8707
0
VERTEX
8
CUT
10
145.1733
20
125.8471
0
VERTEX
8
CUT
10
145.1142
20
125.8367
0
VERTEX
8
CUT
10
144.9293
20
125.7944
0
VERTEX
8
CUT
10
144.8715
20
125.7781
0
VERTEX
8
CUT
10
144.6918
20
125.7175
0
VERTEX
8
CUT
10
144.6359
20
125.6956
0
VERTEX
8
CUT
10
144.4631
20
125.6173
0
VERTEX
8
CUT
10
144.4098
20
125.5899
0
VERTEX
8
CUT
10
144.2456
20
125.4948
0
VERTEX
8
CUT
10
144.1953
20
125.4622
0
VERTEX
8
CUT
10
144.0415
20
125.3512
0
VERTEX
8
CUT
10
143.9946
20
125.3137
0
VERTEX
8
CUT
10
143.8526
20
125.1879
0
VERTEX
8
CUT
10
143.8098
20
125.1459
0
VERTEX
8
CUT
10
143.6811
20
125.0065
0
VERTEX
8
CUT
10
143.6426
20
124.9605
0
VERTEX
8
CUT
10
143.5285
20
124.8090
0
VERTEX
8
CUT
10
143.4948
20
124.7593
0
VERTEX
8
CUT
10
143.3964
20
124.5971
0
VERTEX
8
CUT
10
143.3679
20
124.5443
0
VERTEX
8
CUT
10
143.2862
20
124.3732
0
VERTEX
8
CUT
10
143.2630
20
124.3178
0
VERTEX
8
CUT
10
143.1988
20
124.1393
0
VERTEX
8
CUT
10
143.1813
20
124.0819
0
VERTEX
8
CUT
10
143.1353
20
123.8979
0
VERTEX
8
CUT
10
143.1236
20
123.8390
0
VERTEX
8
CUT
10
143.0961
20
123.6513
0
VERTEX
8
CUT
10
143.0904
20
123.5916
0
VERTEX
8
CUT
10
143.0817
20
123.3995
0
VERTEX
8
CUT
10
143.0811
20
123.3695
0
VERTEX
8
CUT
10
143.0814
20
123.3109
0
VERTEX
8
CUT
10
143.0817
20
123.2959
0
VERTEX
8
CUT
10
143.0846
20
123.1984
0
VERTEX
8
CUT
10
143.0852
20
123.1834
0
VERTEX
8
CUT
10
143.1892
20
121.2852
0
VERTEX
8
CUT
10
143.1898
20
121.2748
0
VERTEX
8
CUT
10
143.1905
20
121.2576
0
VERTEX
8
CUT
10
143.1913
20
121.2161
0
VERTEX
8
CUT
10
143.1912
20
121.1617
0
VERTEX
8
CUT
10
143.1880
20
121.0892
0
VERTEX
8
CUT
10
143.1820
20
121.0165
0
VERTEX
8
CUT
10
143.1730
20
120.9445
0
VERTEX
8
CUT
10
143.1641
20
120.8908
0
VERTEX
8
CUT
10
143.1563
20
120.8501
0
VERTEX
8
CUT
10
143.1527
20
120.8332
0
VERTEX
8
CUT
10
143.1505
20
120.8230
0
VERTEX
8
CUT
10
142.8278
20
119.3933
0
VERTEX
8
CUT
10
142.8249
20
119.3811
0
VERTEX
8
CUT
10
142.8200
20
119.3607
0
VERTEX
8
CUT
10
142.8069
20
119.3121
0
VERTEX
8
CUT
10
142.7879
20
119.2490
0
VERTEX
8
CUT
10
142.7584
20
119.1659
0
VERTEX
8
CUT
10
142.7248
20
119.0842
0
VERTEX
8
CUT
10
142.6873
20
119.0044
0
VERTEX
8
CUT
10
142.6564
20
118.9461
0
VERTEX
8
CUT
10
142.6316
20
118.9023
0
VERTEX
8
CUT
10
142.6207
20
118.8844
0
VERTEX
8
CUT
10
142.6141
20
118.8737
0
VERTEX
8
CUT
10
141.9478
20
117.8063
0
VERTEX
8
CUT
10
141.9417
20
117.7966
0
VERTEX
8
CUT
10
141.9330
20
117.7831
0
VERTEX
8
CUT
10
141.9039
20
117.7405
0
VERTEX
8
CUT
10
141.8626
20
117.6836
0
VERTEX
8
CUT
10
141.8126
20
117.6209
0
VERTEX
8
CUT
10
141.7775
20
117.5806
0
VERTEX
8
CUT
10
141.7222
20
117.5226
0
VERTEX
8
CUT
10
141.6837
20
117.4857
0
VERTEX
8
CUT
10
141.6234
20
117.4329
0
VERTEX
8
CUT
10
141.5685
20
117.3888
0
VERTEX
8
CUT
10
141.5274
20
117.3578
0
VERTEX
8
CUT
10
141.5142
20
117.3484
0
VERTEX
8
CUT
10
141.5049
20
117.3419
0
VERTEX
8
CUT
10
140.3412
20
116.5364
0
VERTEX
8
CUT
10
140.3308
20
116.5294
0
VERTEX
8
CUT
10
140.3135
20
116.5177
0
VERTEX
8
CUT
10
140.2710
20
116.4909
0
VERTEX
8
CUT
10
140.2145
20
116.4574
0
VERTEX
8
CUT
10
140.1368
20
116.4162
0
VERTEX
8
CUT
10
140.0570
20
116.3789
0
VERTEX
8
CUT
10
139.9757
20
116.3455
0
VERTEX
8
CUT
10
139.9137
20
116.3236
0
VERTEX
8
CUT
10
139.8659
20
116.3082
0
VERTEX
8
CUT
10
139.8459
20
116.3023
0
VERTEX
8
CUT
10
139.8338
20
116.2989
0
VERTEX
8
CUT
10
137.4000
20
115.6243
0
VERTEX
8
CUT
10
137.3872
20
115.6209
0
VERTEX
8
CUT
10
137.3572
20
115.6130
0
VERTEX
8
CUT
10
137.3443
20
115.6098
0
VERTEX
8
CUT
10
137.3286
20
115.6059
0
VERTEX
8
CUT
10
137.3157
20
115.6028
0
VERTEX
8
CUT
10
137.2856
20
115.5959
0
VERTEX
8
CUT
10
137.2726
20
115.5930
0
VERTEX
8
CUT
10
137.2512
20
115.5884
0
VERTEX
8
CUT
10
137.2371
20
115.5852
0
VERTEX
8
CUT
10
137.1453
20
115.5632
0
VERTEX
8
CUT
10
137.1312
20
115.5596
0
VERTEX
8
CUT
10
137.0764
20
115.5451
0
VERTEX
8
CUT
10
137.0486
20
115.5369
0
VERTEX
8
CUT
10
136.8594
20
115.4767
0
VERTEX
8
CUT
10
136.8112
20
115.4626
0
VERTEX
8
CUT
10
136.7981
20
115.4587
0
VERTEX
8
CUT
10
136.7130
20
115.4358
0
VERTEX
8
CUT
10
136.6579
20
115.4238
0
VERTEX
8
CUT
10
136.5744
20
115.4096
0
VERTEX
8
CUT
10
136.5185
20
115.4028
0
VERTEX
8
CUT
10
136.4340
20
115.3965
0
VERTEX
8
CUT
10
136.3777
20
115.3950
0
VERTEX
8
CUT
10
136.2930
20
115.3967
0
VERTEX
8
CUT
10
136.2367
20
115.4004
0
VERTEX
8
CUT
10
136.1526
20
115.4101
0
VERTEX
8
CUT
10
136.0970
20
115.4191
0
VERTEX
8
CUT
10
136.0141
20
115.4366
0
VERTEX
8
CUT
10
135.9596
20
115.4509
0
VERTEX
8
CUT
10
135.8787
20
115.4761
0
VERTEX
8
CUT
10
135.8258
20
115.4954
0
VERTEX
8
CUT
10
135.7476
20
115.5281
0
VERTEX
8
CUT
10
135.6967
20
115.5523
0
VERTEX
8
CUT
10
135.6220
20
115.5922
0
VERTEX
8
CUT
10
135.5554
20
115.6319
0
VERTEX
8
CUT
10
135.5195
20
115.6545
0
VERTEX
8
CUT
10
135.5179
20
115.6555
0
VERTEX
8
CUT
10
135.4933
20
115.6710
0
VERTEX
8
CUT
10
135.4365
20
115.7047
0
VERTEX
8
CUT
10
135.4098
20
115.7213
0
VERTEX
8
CUT
10
135.3427
20
115.7644
0
VERTEX
8
CUT
10
135.2761
20
115.8117
0
VERTEX
8
CUT
10
135.2326
20
115.8455
0
VERTEX
8
CUT
10
135.1699
20
115.8992
0
VERTEX
8
CUT
10
135.1298
20
115.9369
0
VERTEX
8
CUT
10
135.0723
20
115.9961
0
VERTEX
8
CUT
10
135.0358
20
116.0372
0
VERTEX
8
CUT
10
134.9840
20
116.1014
0
VERTEX
8
CUT
10
134.9514
20
116.1458
0
VERTEX
8
CUT
10
134.9057
20
116.2145
0
VERTEX
8
CUT
10
134.8667
20
116.2793
0
VERTEX
8
CUT
10
134.8462
20
116.3152
0
VERTEX
8
CUT
10
134.8456
20
116.3163
0
VERTEX
8
CUT
10
134.8400
20
116.3268
0
VERTEX
8
CUT
10
134.8309
20
116.3443
0
VERTEX
8
CUT
10
134.8099
20
116.3870
0
VERTEX
8
CUT
10
134.7840
20
116.4436
0
VERTEX
8
CUT
10
134.7529
20
116.5207
0
VERTEX
8
CUT
10
134.7253
20
116.5995
0
VERTEX
8
CUT
10
134.7014
20
116.6792
0
VERTEX
8
CUT
10
134.6863
20
116.7396
0
VERTEX
8
CUT
10
134.6761
20
116.7860
0
VERTEX
8
CUT
10
134.6723
20
116.8054
0
VERTEX
8
CUT
10
134.6701
20
116.8171
0
VERTEX
8
CUT
10
134.4107
20
118.2552
0
VERTEX
8
CUT
10
134.4084
20
118.2683
0
VERTEX
8
CUT
10
134.4034
20
118.2988
0
VERTEX
8
CUT
10
134.4013
20
118.3119
0
VERTEX
8
CUT
10
134.3989
20
118.3279
0
VERTEX
8
CUT
10
134.3970
20
118.3410
0
VERTEX
8
CUT
10
134.3929
20
118.3717
0
VERTEX
8
CUT
10
134.3912
20
118.3848
0
VERTEX
8
CUT
10
134.3884
20
118.4081
0
VERTEX
8
CUT
10
134.3869
20
118.4213
0
VERTEX
8
CUT
10
134.3837
20
118.4521
0
VERTEX
8
CUT
10
134.3824
20
118.4653
0
VERTEX
8
CUT
10
134.3809
20
118.4814
0
VERTEX
8
CUT
10
134.3799
20
118.4946
0
VERTEX
8
CUT
10
134.3775
20
118.5254
0
VERTEX
8
CUT
10
134.3766
20
118.5387
0
VERTEX
8
CUT
10
134.2500
20
120.6250
0
VERTEX
8
CUT
10
134.2492
20
120.6403
0
VERTEX
8
CUT
10
134.2477
20
120.6760
0
VERTEX
8
CUT
10
134.2471
20
120.6913
0
VERTEX
8
CUT
10
134.2466
20
120.7100
0
VERTEX
8
CUT
10
134.2463
20
120.7253
0
VERTEX
8
CUT
10
134.2460
20
120.7610
0
VERTEX
8
CUT
10
134.2460
20
120.7763
0
VERTEX
8
CUT
10
134.2462
20
120.8034
0
VERTEX
8
CUT
10
134.2464
20
120.8187
0
VERTEX
8
CUT
10
134.2473
20
120.8544
0
VERTEX
8
CUT
10
134.2478
20
120.8697
0
VERTEX
8
CUT
10
134.2486
20
120.8884
0
VERTEX
8
CUT
10
134.2493
20
120.9037
0
VERTEX
8
CUT
10
134.2514
20
120.9394
0
VERTEX
8
CUT
10
134.2525
20
120.9546
0
VERTEX
8
CUT
10
134.4247
20
123.2308
0
VERTEX
8
CUT
10
134.4255
20
123.2440
0
VERTEX
8
CUT
10
134.4301
20
123.3298
0
VERTEX
8
CUT
10
134.4307
20
123.3431
0
VERTEX
8
CUT
10
134.4323
20
123.3947
0
VERTEX
8
CUT
10
134.4325
20
123.4211
0
VERTEX
8
CUT
10
134.4304
20
123.5907
0
VERTEX
8
CUT
10
134.4274
20
123.6434
0
VERTEX
8
CUT
10
134.4103
20
123.8121
0
VERTEX
8
CUT
10
134.4071
20
123.8384
0
VERTEX
8
CUT
10
134.3996
20
123.8895
0
VERTEX
8
CUT
10
134.3976
20
123.9025
0
VERTEX
8
CUT
10
134.3833
20
123.9873
0
VERTEX
8
CUT
10
134.3810
20
124.0003
0
VERTEX
8
CUT
10
133.8680
20
126.6825
0
VERTEX
8
CUT
10
133.8658
20
126.6931
0
VERTEX
8
CUT
10
133.8504
20
126.7668
0
VERTEX
8
CUT
10
133.8480
20
126.7778
0
VERTEX
8
CUT
10
133.8369
20
126.8260
0
VERTEX
8
CUT
10
133.8311
20
126.8491
0
VERTEX
8
CUT
10
133.7922
20
126.9923
0
VERTEX
8
CUT
10
133.7858
20
127.0143
0
VERTEX
8
CUT
10
133.7739
20
127.0522
0
VERTEX
8
CUT
10
133.7706
20
127.0625
0
VERTEX
8
CUT
10
133.7470
20
127.1332
0
VERTEX
8
CUT
10
133.7431
20
127.1446
0
VERTEX
8
CUT
10
132.9934
20
129.2525
0
VERTEX
8
CUT
10
132.9866
20
129.2707
0
VERTEX
8
CUT
10
132.9407
20
129.3876
0
VERTEX
8
CUT
10
132.9334
20
129.4055
0
VERTEX
8
CUT
10
132.8711
20
129.5503
0
VERTEX
8
CUT
10
132.8632
20
129.5679
0
VERTEX
8
CUT
10
132.8098
20
129.6817
0
VERTEX
8
CUT
10
132.8013
20
129.6990
0
VERTEX
8
CUT
10
132.0618
20
131.1527
0
VERTEX
8
CUT
10
132.0553
20
131.1650
0
VERTEX
8
CUT
10
132.0127
20
131.2443
0
VERTEX
8
CUT
10
132.0060
20
131.2564
0
VERTEX
8
CUT
10
131.9792
20
131.3034
0
VERTEX
8
CUT
10
131.9650
20
131.3272
0
VERTEX
8
CUT
10
131.8689
20
131.4794
0
VERTEX
8
CUT
10
131.8536
20
131.5025
0
VERTEX
8
CUT
10
131.8226
20
131.5469
0
VERTEX
8
CUT
10
131.8145
20
131.5582
0
VERTEX
8
CUT
10
131.7613
20
131.6308
0
VERTEX
8
CUT
10
131.7530
20
131.6419
0
VERTEX
8
CUT
10
131.3710
20
132.1388
0
VERTEX
8
CUT
10
131.3617
20
132.1506
0
VERTEX
8
CUT
10
131.3002
20
132.2265
0
VERTEX
8
CUT
10
131.2906
20
132.2381
0
VERTEX
8
CUT
10
131.2526
20
132.2828
0
VERTEX
8
CUT
10
131.2325
20
132.3052
0
VERTEX
8
CUT
10
131.1004
20
132.4454
0
VERTEX
8
CUT
10
131.0570
20
132.4871
0
VERTEX
8
CUT
10
130.9135
20
132.6116
0
VERTEX
8
CUT
10
130.8662
20
132.6487
0
VERTEX
8
CUT
10
130.7110
20
132.7583
0
VERTEX
8
CUT
10
130.6602
20
132.7905
0
VERTEX
8
CUT
10
130.4948
20
132.8840
0
VERTEX
8
CUT
10
130.4410
20
132.9109
0
VERTEX
8
CUT
10
130.2671
20
132.9874
0
VERTEX
8
CUT
10
130.2109
20
133.0088
0
VERTEX
8
CUT
10
130.0302
20
133.0675
0
VERTEX
8
CUT
10
129.9722
20
133.0832
0
VERTEX
8
CUT
10
129.7865
20
133.1235
0
VERTEX
8
CUT
10
129.7272
20
133.1333
0
VERTEX
8
CUT
10
129.5384
20
133.1549
0
VERTEX
8
CUT
10
129.4784
20
133.1587
0
VERTEX
8
CUT
10
129.2884
20
133.1612
0
VERTEX
8
CUT
10
129.2283
20
133.1590
0
VERTEX
8
CUT
10
129.0390
20
133.1425
0
VERTEX
8
CUT
10
128.9794
20
133.1343
0
VERTEX
8
CUT
10
128.7927
20
133.0990
0
VERTEX
8
CUT
10
128.7343
20
133.0848
0
VERTEX
8
CUT
10
128.5520
20
133.0310
0
VERTEX
8
CUT
10
128.4953
20
133.0111
0
VERTEX
8
CUT
10
128.3194
20
132.9393
0
VERTEX
8
CUT
10
128.2649
20
132.9138
0
VERTEX
8
CUT
10
128.0971
20
132.8247
0
VERTEX
8
CUT
10
128.0455
20
132.7939
0
VERTEX
8
CUT
10
127.8873
20
132.6885
0
VERTEX
8
CUT
10
127.8391
20
132.6527
0
VERTEX
8
CUT
10
127.6903
20
132.5304
0
VERTEX
8
CUT
10
127.6675
20
132.5107
0
VERTEX
8
CUT
10
127.6241
20
132.4712
0
VERTEX
8
CUT
10
127.6131
20
132.4609
0
VERTEX
8
CUT
10
127.5425
20
132.3934
0
VERTEX
8
CUT
10
127.5318
20
132.3828
0
VERTEX
8
CUT
10
126.3402
20
131.1839
0
VERTEX
8
CUT
10
126.3291
20
131.1725
0
VERTEX
8
CUT
10
126.2583
20
131.0974
0
VERTEX
8
CUT
10
126.2476
20
131.0857
0
VERTEX
8
CUT
10
126.2063
20
131.0394
0
VERTEX
8
CUT
10
126.1857
20
131.0152
0
VERTEX
8
CUT
10
126.0566
20
130.8544
0
VERTEX
8
CUT
10
126.0374
20
130.8291
0
VERTEX
8
CUT
10
126.0012
20
130.7788
0
VERTEX
8
CUT
10
125.9921
20
130.7658
0
VERTEX
8
CUT
10
125.9341
20
130.6804
0
VERTEX
8
CUT
10
125.9253
20
130.6672
0
VERTEX
8
CUT
10
125.0392
20
129.2865
0
VERTEX
8
CUT
10
125.0311
20
129.2734
0
VERTEX
8
CUT
10
124.9793
20
129.1880
0
VERTEX
8
CUT
10
124.9715
20
129.1747
0
VERTEX
8
CUT
10
124.9417
20
129.1226
0
VERTEX
8
CUT
10
124.9271
20
129.0955
0
VERTEX
8
CUT
10
124.8370
20
128.9173
0
VERTEX
8
CUT
10
124.8238
20
128.8895
0
VERTEX
8
CUT
10
124.7995
20
128.8346
0
VERTEX
8
CUT
10
124.7935
20
128.8204
0
VERTEX
8
CUT
10
124.7553
20
128.7280
0
VERTEX
8
CUT
10
124.7497
20
128.7138
0
VERTEX
8
CUT
10
124.3176
20
127.5849
0
VERTEX
8
CUT
10
124.3139
20
127.5751
0
VERTEX
8
CUT
10
124.2889
20
127.5062
0
VERTEX
8
CUT
10
124.2853
20
127.4959
0
VERTEX
8
CUT
10
124.2697
20
127.4504
0
VERTEX
8
CUT
10
124.2627
20
127.4284
0
VERTEX
8
CUT
10
124.2212
20
127.2902
0
VERTEX
8
CUT
10
124.2152
20
127.2687
0
VERTEX
8
CUT
10
124.2055
20
127.2313
0
VERTEX
8
CUT
10
124.2030
20
127.2211
0
VERTEX
8
CUT
10
124.1860
20
127.1507
0
VERTEX
8
CUT
10
124.1833
20
127.1393
0
VERTEX
8
CUT
10
123.9166
20
125.9300
0
VERTEX
8
CUT
10
123.9141
20
125.9178
0
VERTEX
8
CUT
10
123.8983
20
125.8388
0
VERTEX
8
CUT
10
123.8961
20
125.8267
0
VERTEX
8
CUT
10
123.8876
20
125.7790
0
VERTEX
8
CUT
10
123.8838
20
125.7545
0
VERTEX
8
CUT
10
123.8622
20
125.5949
0
VERTEX
8
CUT
10
123.8594
20
125.5703
0
VERTEX
8
CUT
10
123.8549
20
125.5220
0
VERTEX
8
CUT
10
123.8538
20
125.5097
0
VERTEX
8
CUT
10
123.8480
20
125.4294
0
VERTEX
8
CUT
10
123.8473
20
125.4170
0
VERTEX
8
CUT
10
123.6144
20
120.9224
0
VERTEX
8
CUT
10
123.6110
20
120.8778
0
VERTEX
8
CUT
10
123.6027
20
120.7962
0
VERTEX
8
CUT
10
123.5892
20
120.7077
0
VERTEX
8
CUT
10
123.5773
20
120.6492
0
VERTEX
8
CUT
10
123.5550
20
120.5625
0
VERTEX
8
CUT
10
123.5374
20
120.5056
0
VERTEX
8
CUT
10
123.5067
20
120.4215
0
VERTEX
8
CUT
10
123.4834
20
120.3666
0
VERTEX
8
CUT
10
123.4445
20
120.2860
0
VERTEX
8
CUT
10
123.4159
20
120.2336
0
VERTEX
8
CUT
10
123.3692
20
120.1573
0
VERTEX
8
CUT
10
123.3356
20
120.1081
0
VERTEX
8
CUT
10
123.2814
20
120.0367
0
VERTEX
8
CUT
10
123.2431
20
119.9911
0
VERTEX
8
CUT
10
123.1822
20
119.9255
0
VERTEX
8
CUT
10
123.1395
20
119.8839
0
VERTEX
8
CUT
10
123.0723
20
119.8247
0
VERTEX
8
CUT
10
123.0257
20
119.7875
0
VERTEX
8
CUT
10
122.9530
20
119.7353
0
VERTEX
8
CUT
10
122.8870
20
119.6926
0
VERTEX
8
CUT
10
122.8471
20
119.6683
0
VERTEX
8
CUT
10
122.8452
20
119.6672
0
VERTEX
8
CUT
10
122.8378
20
119.6629
0
VERTEX
8
CUT
10
122.8343
20
119.6608
0
VERTEX
8
CUT
10
122.8288
20
119.6575
0
VERTEX
8
CUT
10
122.8253
20
119.6554
0
VERTEX
8
CUT
10
122.8179
20
119.6509
0
VERTEX
8
CUT
10
122.7947
20
119.6363
0
VERTEX
8
CUT
10
122.6727
20
119.5618
0
VERTEX
8
CUT
10
122.6244
20
119.5290
0
VERTEX
8
CUT
10
122.4767
20
119.4178
0
VERTEX
8
CUT
10
122.4318
20
119.3804
0
VERTEX
8
CUT
10
122.2957
20
119.2555
0
VERTEX
8
CUT
10
122.2546
20
119.2139
0
VERTEX
8
CUT
10
122.1313
20
119.0762
0
VERTEX
8
CUT
10
122.0944
20
119.0308
0
VERTEX
8
CUT
10
121.9851
20
118.8819
0
VERTEX
8
CUT
10
121.9528
20
118.8331
0
VERTEX
8
CUT
10
121.8585
20
118.6742
0
VERTEX
8
CUT
10
121.8312
20
118.6225
0
VERTEX
8
CUT
10
121.7528
20
118.4552
0
VERTEX
8
CUT
10
121.7306
20
118.4011
0
VERTEX
8
CUT
10
121.6688
20
118.2269
0
VERTEX
8
CUT
10
121.6520
20
118.1709
0
VERTEX
8
CUT
10
121.6075
20
117.9916
0
VERTEX
8
CUT
10
121.5962
20
117.9342
0
VERTEX
8
CUT
10
121.5694
20
117.7514
0
VERTEX
8
CUT
10
121.5637
20
117.6932
0
SEQEND
0
POLYLINE
8
CUT
66
1
70
1
10
0.0
20
0.0
30
0.0
0
VERTEX
8
CUT
10
109.2457
20
135.3338
0
VERTEX
8
CUT
10
109.2444
20
135.2736
0
VERTEX
8
CUT
10
109.2500
20
135.0832
0
VERTEX
8
CUT
10
109.2548
20
135.0231
0
VERTEX
8
CUT
10
109.2798
20
134.8316
0
VERTEX
8
CUT
10
109.2845
20
134.8019
0
VERTEX
8
CUT
10
109.2950
20
134.7440
0
VERTEX
8
CUT
10
109.2979
20
134.7292
0
VERTEX
8
CUT
10
109.3179
20
134.6333
0
VERTEX
8
CUT
10
109.3211
20
134.6186
0
VERTEX
8
CUT
10
109.7652
20
132.7248
0
VERTEX
8
CUT
10
109.7683
20
132.7121
0
VERTEX
8
CUT
10
109.7895
20
132.6298
0
VERTEX
8
CUT
10
109.7929
20
132.6172
0
VERTEX
8
CUT
10
109.8067
20
132.5680
0
VERTEX
8
CUT
10
109.8144
20
132.5430
0
VERTEX
8
CUT
10
109.8667
20
132.3837
0
VERTEX
8
CUT
10
109.8852
20
132.3348
0
VERTEX
8
CUT
10
109.9512
20
132.1807
0
VERTEX
8
CUT
10
109.9620
20
132.1569
0
VERTEX
8
CUT
10
109.9841
20
132.1108
0
VERTEX
8
CUT
10
109.9899
20
132.0991
0
VERTEX
8
CUT
10
110.0284
20
132.0233
0
VERTEX
8
CUT
10
110.0345
20
132.0117
0
VERTEX
8
CUT
10
113.5283
20
125.4910
0
VERTEX
8
CUT
10
113.5321
20
125.4840
0
VERTEX
8
CUT
10
113.5590
20
125.4354
0
VERTEX
8
CUT
10
113.5632
20
125.4279
0
VERTEX
8
CUT
10
113.5975
20
125.3679
0
VERTEX
8
CUT
10
113.6018
20
125.3606
0
VERTEX
8
CUT
10
113.6296
20
125.3134
0
VERTEX
8
CUT
10
113.6342
20
125.3058
0
VERTEX
8
CUT
10
113.7491
20
125.1176
0
VERTEX
8
CUT
10
113.7570
20
125.1050
0
VERTEX
8
CUT
10
113.8085
20
125.0251
0
VERTEX
8
CUT
10
113.8166
20
125.0129
0
VERTEX
8
CUT
10
113.8488
20
124.9656
0
VERTEX
8
CUT
10
113.8658
20
124.9418
0
VERTEX
8
CUT
10
113.9788
20
124.7920
0
VERTEX
8
CUT
10
114.0163
20
124.7470
0
VERTEX
8
CUT
10
114.1416
20
124.6108
0
VERTEX
8
CUT
10
114.1833
20
124.5697
0
VERTEX
8
CUT
10
114.3212
20
124.4463
0
VERTEX
8
CUT
10
114.3667
20
124.4095
0
VERTEX
8
CUT
10
114.5161
20
124.3001
0
VERTEX
8
CUT
10
114.5650
20
124.2679
0
VERTEX
8
CUT
10
114.7242
20
124.1736
0
VERTEX
8
CUT
10
114.7760
20
124.1463
0
VERTEX
8
CUT
10
114.9437
20
124.0680
0
VERTEX
8
CUT
10
114.9979
20
124.0459
0
VERTEX
8
CUT
10
115.1725
20
123.9843
0
VERTEX
8
CUT
10
115.2286
20
123.9675
0
VERTEX
8
CUT
10
115.4083
20
123.9233
0
VERTEX
8
CUT
10
115.4658
20
123.9121
0
VERTEX
8
CUT
10
115.6489
20
123.8855
0
VERTEX
8
CUT
10
115.7072
20
123.8800
0
VERTEX
8
CUT
10
115.8921
20
123.8714
0
VERTEX
8
CUT
10
115.9507
20
123.8716
0
VERTEX
8
CUT
10
116.1355
20
123.8811
0
VERTEX
8
CUT
10
116.1938
20
123.8869
0
VERTEX
8
CUT
10
116.3768
20
123.9144
0
VERTEX
8
CUT
10
116.4342
20
123.9259
0
VERTEX
8
CUT
10
116.6137
20
123.9711
0
VERTEX
8
CUT
10
116.6697
20
123.9881
0
VERTEX
8
CUT
10
116.8439
20
124.0506
0
VERTEX
8
CUT
10
116.8980
20
124.0730
0
VERTEX
8
CUT
10
117.0653
20
124.1521
0
VERTEX
8
CUT
10
117.1170
20
124.1797
0
VERTEX
8
CUT
10
117.2758
20
124.2748
0
VERTEX
8
CUT
10
117.3245
20
124.3073
0
VERTEX
8
CUT
10
117.4733
20
124.4174
0
VERTEX
8
CUT
10
117.5186
20
124.4544
0
VERTEX
8
CUT
10
117.6559
20
124.5785
0
VERTEX
8
CUT
10
117.6974
20
124.6198
0
VERTEX
8
CUT
10
117.8220
20
124.7567
0
VERTEX
8
CUT
10
117.8593
20
124.8019
0
VERTEX
8
CUT
10
117.9699
20
124.9502
0
VERTEX
8
CUT
10
118.0026
20
124.9988
0
VERTEX
8
CUT
10
118.0983
20
125.1572
0
VERTEX
8
CUT
10
118.1261
20
125.2088
0
VERTEX
8
CUT
10
118.2059
20
125.3758
0
VERTEX
8
CUT
10
118.2285
20
125.4298
0
VERTEX
8
CUT
10
118.2916
20
125.6038
0
VERTEX
8
CUT
10
118.3089
20
125.6597
0
VERTEX
8
CUT
10
118.3548
20
125.8390
0
VERTEX
8
CUT
10
118.3665
20
125.8964
0
VERTEX
8
CUT
10
118.3947
20
126.0793
0
VERTEX
8
CUT
10
118.4008
20
126.1375
0
VERTEX
8
CUT
10
118.4111
20
126.3249
0
VERTEX
8
CUT
10
118.4120
20
126.3542
0
VERTEX
8
CUT
10
118.4124
20
126.4113
0
VERTEX
8
CUT
10
118.4123
20
126.4260
0
VERTEX
8
CUT
10
118.4106
20
126.5211
0
VERTEX
8
CUT
10
118.4102
20
126.5358
0
VERTEX
8
CUT
10
118.3807
20
127.2294
0
VERTEX
8
CUT
10
118.3803
20
127.2412
0
VERTEX
8
CUT
10
118.3797
20
127.2609
0
VERTEX
8
CUT
10
118.3796
20
127.3083
0
VERTEX
8
CUT
10
118.3815
20
127.3885
0
VERTEX
8
CUT
10
118.3830
20
127.4240
0
VERTEX
8
CUT
10
118.3833
20
127.4277
0
VERTEX
8
CUT
10
118.3862
20
127.4631
0
VERTEX
8
CUT
10
118.3944
20
127.5429
0
VERTEX
8
CUT
10
118.4005
20
127.5899
0
VERTEX
8
CUT
10
118.4035
20
127.6093
0
VERTEX
8
CUT
10
118.4054
20
127.6210
0
VERTEX
8
CUT
10
118.6832
20
129.2568
0
VERTEX
8
CUT
10
118.6853
20
129.2684
0
VERTEX
8
CUT
10
118.6888
20
129.2876
0
VERTEX
8
CUT
10
118.6985
20
129.3337
0
VERTEX
8
CUT
10
118.7170
20
129.4113
0
VERTEX
8
CUT
10
118.7258
20
129.4455
0
VERTEX
8
CUT
10
118.7268
20
129.4490
0
VERTEX
8
CUT
10
118.7370
20
129.4828
0
VERTEX
8
CUT
10
118.7615
20
129.5587
0
VERTEX
8
CUT
10
118.7771
20
129.6031
0
VERTEX
8
CUT
10
118.7841
20
129.6214
0
VERTEX
8
CUT
10
118.7883
20
129.6324
0
VERTEX
8
CUT
10
119.3233
20
130.9815
0
VERTEX
8
CUT
10
119.3273
20
130.9913
0
VERTEX
8
CUT
10
119.3340
20
131.0077
0
VERTEX
8
CUT
10
119.3511
20
131.0467
0
VERTEX
8
CUT
10
119.3816
20
131.1121
0
VERTEX
8
CUT
10
119.3956
20
131.1408
0
VERTEX
8
CUT
10
119.3972
20
131.1438
0
VERTEX
8
CUT
10
119.4122
20
131.1720
0
VERTEX
8
CUT
10
119.4473
20
131.2350
0
VERTEX
8
CUT
10
119.4688
20
131.2717
0
VERTEX
8
CUT
10
119.4782
20
131.2868
0
VERTEX
8
CUT
10
119.4838
20
131.2958
0
VERTEX
8
CUT
10
120.3062
20
132.5879
0
VERTEX
8
CUT
10
120.3118
20
132.5965
0
VERTEX
8
CUT
10
120.3250
20
132.6167
0
VERTEX
8
CUT
10
120.3307
20
132.6253
0
VERTEX
8
CUT
10
120.3377
20
132.6357
0
VERTEX
8
CUT
10
120.3435
20
132.6443
0
VERTEX
8
CUT
10
120.3521
20
132.6568
0
VERTEX
8
CUT
10
120.3566
20
132.6636
0
VERTEX
8
CUT
10
120.4113
20
132.7457
0
VERTEX
8
CUT
10
120.4172
20
132.7545
0
VERTEX
8
CUT
10
120.4331
20
132.7798
0
VERTEX
8
CUT
10
120.4367
20
132.7858
0
VERTEX
8
CUT
10
120.4401
20
132.7909
0
VERTEX
8
CUT
10
120.4529
20
132.8125
0
VERTEX
8
CUT
10
120.5176
20
132.9151
0
VERTEX
8
CUT
10
120.5460
20
132.9653
0
VERTEX
8
CUT
10
120.6280
20
133.1284
0
VERTEX
8
CUT
10
120.6514
20
133.1811
0
VERTEX
8
CUT
10
120.7174
20
133.3513
0
VERTEX
8
CUT
10
120.7356
20
133.4060
0
VERTEX
8
CUT
10
120.7849
20
133.5818
0
VERTEX
8
CUT
10
120.7979
20
133.6380
0
VERTEX
8
CUT
10
120.8300
20
133.8177
0
VERTEX
8
CUT
10
120.8375
20
133.8749
0
VERTEX
8
CUT
10
120.8523
20
134.0568
0
VERTEX
8
CUT
10
120.8542
20
134.1145
0
VERTEX
8
CUT
10
120.8514
20
134.2970
0
VERTEX
8
CUT
10
120.8478
20
134.3546
0
VERTEX
8
CUT
10
120.8275
20
134.5359
0
VERTEX
8
CUT
10
120.8183
20
134.5929
0
VERTEX
8
CUT
10
120.7807
20
134.7715
0
VERTEX
8
CUT
10
120.7661
20
134.8273
0
VERTEX
8
CUT
10
120.7115
20
135.0015
0
VERTEX
8
CUT
10
120.6916
20
135.0557
0
VERTEX
8
CUT
10
120.6205
20
135.2237
0
VERTEX
8
CUT
10
120.5955
20
135.2758
0
VERTEX
8
CUT
10
120.5086
20
135.4362
0
VERTEX
8
CUT
10
120.4787
20
135.4856
0
VERTEX
8
CUT
10
120.3767
20
135.6370
0
VERTEX
8
CUT
10
120.3422
20
135.6833
0
VERTEX
8
CUT
10
120.2262
20
135.8241
0
VERTEX
8
CUT
10
120.1874
20
135.8669
0
VERTEX
8
CUT
10
120.0584
20
135.9960
0
VERTEX
8
CUT
10
120.0157
20
136.0348
0
VERTEX
8
CUT
10
119.8749
20
136.1509
0
VERTEX
8
CUT
10
119.8287
20
136.1854
0
VERTEX
8
CUT
10
119.6773
20
136.2874
0
VERTEX
8
CUT
10
119.6280
20
136.3174
0
VERTEX
8
CUT
10
119.4676
20
136.4044
0
VERTEX
8
CUT
10
119.4156
20
136.4294
0
VERTEX
8
CUT
10
119.2475
20
136.5006
0
VERTEX
8
CUT
10
119.1934
20
136.5206
0
VERTEX
8
CUT
10
119.0193
20
136.5753
0
VERTEX
8
CUT
10
118.9634
20
136.5899
0
VERTEX
8
CUT
10
118.7849
20
136.6277
0
VERTEX
8
CUT
10
118.7279
20
136.6369
0
VERTEX
8
CUT
10
118.5465
20
136.6573
0
VERTEX
8
CUT
10
118.4889
20
136.6610
0
VERTEX
8
CUT
10
118.3039
20
136.6639
0
VERTEX
8
CUT
10
118.2751
20
136.6636
0
VERTEX
8
CUT
10
118.2187
20
136.6618
0
VERTEX
8
CUT
10
118.2043
20
136.6612
0
VERTEX
8
CUT
10
118.1106
20
136.6559
0
VERTEX
8
CUT
10
118.0962
20
136.6549
0
VERTEX
8
CUT
10
117.8091
20
136.6318
0
VERTEX
8
CUT
10
117.7995
20
136.6310
0
VERTEX
8
CUT
10
117.7836
20
136.6299
0
VERTEX
8
CUT
10
117.7453
20
136.6281
0
VERTEX
8
CUT
10
117.6803
20
136.6263
0
VERTEX
8
CUT
10
117.6515
20
136.6260
0
VERTEX
8
CUT
10
117.6485
20
136.6260
0
VERTEX
8
CUT
10
117.6197
20
136.6266
0
VERTEX
8
CUT
10
117.5547
20
136.6290
0
VERTEX
8
CUT
10
117.5164
20
136.6312
0
VERTEX
8
CUT
10
117.5005
20
136.6325
0
VERTEX
8
CUT
10
117.4910
20
136.6333
0
VERTEX
8
CUT
10
115.8547
20
136.7812
0
VERTEX
8
CUT
10
115.8442
20
136.7822
0
VERTEX
8
CUT
10
115.8268
20
136.7840
0
VERTEX
8
CUT
10
115.7849
20
136.7892
0
VERTEX
8
CUT
10
115.7142
20
136.7998
0
VERTEX
8
CUT
10
115.6829
20
136.8051
0
VERTEX
8
CUT
10
115.6796
20
136.8057
0
VERTEX
8
CUT
10
115.6486
20
136.8120
0
VERTEX
8
CUT
10
115.5788
20
136.8276
0
VERTEX
8
CUT
10
115.5378
20
136.8377
0
VERTEX
8
CUT
10
115.5209
20
136.8423
0
VERTEX
8
CUT
10
115.5107
20
136.8452
0
VERTEX
8
CUT
10
112.8681
20
137.5988
0
VERTEX
8
CUT
10
112.8557
20
137.6022
0
VERTEX
8
CUT
10
112.7755
20
137.6232
0
VERTEX
8
CUT
10
112.7632
20
137.6264
0
VERTEX
8
CUT
10
112.7147
20
137.6380
0
VERTEX
8
CUT
10
112.6897
20
137.6434
0
VERTEX
8
CUT
10
112.5270
20
137.6752
0
VERTEX
8
CUT
10
112.5018
20
137.6795
0
VERTEX
8
CUT
10
112.4525
20
137.6870
0
VERTEX
8
CUT
10
112.4399
20
137.6887
0
VERTEX
8
CUT
10
112.3577
20
137.6994
0
VERTEX
8
CUT
10
112.3450
20
137.7009
0
VERTEX
8
CUT
10
112.0728
20
137.7303
0
VERTEX
8
CUT
10
112.0578
20
137.7318
0
VERTEX
8
CUT
10
111.9602
20
137.7398
0
VERTEX
8
CUT
10
111.9452
20
137.7409
0
VERTEX
8
CUT
10
111.8864
20
137.7443
0
VERTEX
8
CUT
10
111.8563
20
137.7452
0
VERTEX
8
CUT
10
111.6632
20
137.7466
0
VERTEX
8
CUT
10
111.6030
20
137.7440
0
VERTEX
8
CUT
10
111.4134
20
137.7263
0
VERTEX
8
CUT
10
111.3537
20
137.7177
0
VERTEX
8
CUT
10
111.1668
20
137.6810
0
VERTEX
8
CUT
10
111.1084
20
137.6665
0
VERTEX
8
CUT
10
110.9261
20
137.6112
0
VERTEX
8
CUT
10
110.8694
20
137.5909
0
VERTEX
8
CUT
10
110.6935
20
137.5177
0
VERTEX
8
CUT
10
110.6392
20
137.4917
0
VERTEX
8
CUT
10
110.4716
20
137.4012
0
VERTEX
8
CUT
10
110.4200
20
137.3700
0
VERTEX
8
CUT
10
110.2624
20
137.2631
0
VERTEX
8
CUT
10
110.2142
20
137.2269
0
VERTEX
8
CUT
10
110.0681
20
137.1048
0
VERTEX
8
CUT
10
110.0238
20
137.0638
0
VERTEX
8
CUT
10
109.8907
20
136.9277
0
VERTEX
8
CUT
10
109.8508
20
136.8825
0
VERTEX
8
CUT
10
109.7319
20
136.7337
0
VERTEX
8
CUT
10
109.6967
20
136.6848
0
VERTEX
8
CUT
10
109.5934
20
136.5248
0
VERTEX
8
CUT
10
109.5633
20
136.4726
0
VERTEX
8
CUT
10
109.4765
20
136.3030
0
VERTEX
8
CUT
10
109.4518
20
136.2481
0
VERTEX
8
CUT
10
109.3825
20
136.0707
0
VERTEX
8
CUT
10
109.3634
20
136.0135
0
VERTEX
8
CUT
10
109.3123
20
135.8300
0
VERTEX
8
CUT
10
109.2990
20
135.7713
0
VERTEX
8
CUT
10
109.2665
20
135.5836
0
VERTEX
8
CUT
10
109.2592
20
135.5238
0
SEQEND
0
POLYLINE
8
CUT
66
1
70
1
10
0.0
20
0.0
30
0.0
0
VERTEX
8
CUT
10
75.6039
20
124.2165
0
VERTEX
8
CUT
10
75.6026
20
124.1923
0
VERTEX
8
CUT
10
75.5977
20
124.0415
0
VERTEX
8
CUT
10
75.5974
20
124.0182
0
VERTEX
8
CUT
10
75.5977
20
123.9778
0
VERTEX
8
CUT
10
75.5979
20
123.9669
0
VERTEX
8
CUT
10
75.5997
20
123.8912
0
VERTEX
8
CUT
10
75.6002
20
123.8789
0
VERTEX
8
CUT
10
75.6753
20
122.2195
0
VERTEX
8
CUT
10
75.6762
20
122.2043
0
VERTEX
8
CUT
10
75.6831
20
122.1063
0
VERTEX
8
CUT
10
75.6844
20
122.0913
0
VERTEX
8
CUT
10
75.6962
20
121.9684
0
VERTEX
8
CUT
10
75.6978
20
121.9534
0
VERTEX
8
CUT
10
75.7096
20
121.8558
0
VERTEX
8
CUT
10
75.7117
20
121.8408
0
VERTEX
8
CUT
10
76.0306
20
119.6742
0
VERTEX
8
CUT
10
76.0358
20
119.6319
0
VERTEX
8
CUT
10
76.0435
20
119.5543
0
VERTEX
8
CUT
10
76.0479
20
119.4693
0
VERTEX
8
CUT
10
76.0481
20
119.4126
0
VERTEX
8
CUT
10
76.0444
20
119.3275
0
VERTEX
8
CUT
10
76.0393
20
119.2710
0
VERTEX
8
CUT
10
76.0276
20
119.1867
0
VERTEX
8
CUT
10
76.0172
20
119.1310
0
VERTEX
8
CUT
10
75.9976
20
119.0481
0
VERTEX
8
CUT
10
75.9760
20
118.9731
0
VERTEX
8
CUT
10
75.9633
20
118.9325
0
VERTEX
8
CUT
10
75.9321
20
118.8406
0
VERTEX
8
CUT
10
75.9276
20
118.8267
0
VERTEX
8
CUT
10
75.9106
20
118.7724
0
VERTEX
8
CUT
10
75.9026
20
118.7444
0
VERTEX
8
CUT
10
75.8556
20
118.5637
0
VERTEX
8
CUT
10
75.8437
20
118.5066
0
VERTEX
8
CUT
10
75.8149
20
118.3247
0
VERTEX
8
CUT
10
75.8086
20
118.2668
0
VERTEX
8
CUT
10
75.7975
20
118.0829
0
VERTEX
8
CUT
10
75.7968
20
118.0247
0
VERTEX
8
CUT
10
75.8037
20
117.8406
0
VERTEX
8
CUT
10
75.8087
20
117.7826
0
VERTEX
8
CUT
10
75.8333
20
117.6000
0
VERTEX
8
CUT
10
75.8439
20
117.5428
0
VERTEX
8
CUT
10
75.8861
20
117.3635
0
VERTEX
8
CUT
10
75.9022
20
117.3075
0
VERTEX
8
CUT
10
75.9617
20
117.1332
0
VERTEX
8
CUT
10
75.9831
20
117.0790
0
VERTEX
8
CUT
10
76.0592
20
116.9112
0
VERTEX
8
CUT
10
76.0858
20
116.8594
0
VERTEX
8
CUT
10
76.1777
20
116.6998
0
VERTEX
8
CUT
10
76.2092
20
116.6508
0
VERTEX
8
CUT
10
76.3162
20
116.5009
0
VERTEX
8
CUT
10
76.3523
20
116.4552
0
VERTEX
8
CUT
10
76.4734
20
116.3163
0
VERTEX
8
CUT
10
76.5138
20
116.2743
0
VERTEX
8
CUT
10
76.6477
20
116.1479
0
VERTEX
8
CUT
10
76.6919
20
116.1100
0
VERTEX
8
CUT
10
76.8375
20
115.9972
0
VERTEX
8
CUT
10
76.8852
20
115.9638
0
VERTEX
8
CUT
10
77.0411
20
115.8656
0
VERTEX
8
CUT
10
77.0918
20
115.8369
0
VERTEX
8
CUT
10
77.2564
20
115.7543
0
VERTEX
8
CUT
10
77.3097
20
115.7307
0
VERTEX
8
CUT
10
77.4815
20
115.6644
0
VERTEX
8
CUT
10
77.5368
20
115.6461
0
VERTEX
8
CUT
10
77.7143
20
115.5968
0
VERTEX
8
CUT
10
77.7711
20
115.5840
0
VERTEX
8
CUT
10
77.9525
20
115.5522
0
VERTEX
8
CUT
10
78.0103
20
115.5449
0
VERTEX
8
CUT
10
78.1940
20
115.5308
0
VERTEX
8
CUT
10
78.2522
20
115.5291
0
VERTEX
8
CUT
10
78.4364
20
115.5329
0
VERTEX
8
CUT
10
78.4945
20
115.5369
0
VERTEX
8
CUT
10
78.6774
20
115.5585
0
VERTEX
8
CUT
10
78.7349
20
115.5682
0
VERTEX
8
CUT
10
78.9148
20
115.6074
0
VERTEX
8
CUT
10
78.9711
20
115.6226
0
VERTEX
8
CUT
10
79.1464
20
115.6791
0
VERTEX
8
CUT
10
79.2009
20
115.6997
0
VERTEX
8
CUT
10
79.3722
20
115.7739
0
VERTEX
8
CUT
10
79.3987
20
115.7862
0
VERTEX
8
CUT
10
79.4497
20
115.8113
0
VERTEX
8
CUT
10
79.4627
20
115.8179
0
VERTEX
8
CUT
10
79.5466
20
115.8618
0
VERTEX
8
CUT
10
79.5594
20
115.8687
0
VERTEX
8
CUT
10
80.2856
20
116.2712
0
VERTEX
8
CUT
10
80.2995
20
116.2792
0
VERTEX
8
CUT
10
80.3896
20
116.3323
0
VERTEX
8
CUT
10
80.4033
20
116.3407
0
VERTEX
8
CUT
10
80.4565
20
116.3740
0
VERTEX
8
CUT
10
80.4833
20
116.3918
0
VERTEX
8
CUT
10
80.6542
20
116.5121
0
VERTEX
8
CUT
10
80.6801
20
116.5314
0
VERTEX
8
CUT
10
80.7294
20
116.5702
0
VERTEX
8
CUT
10
80.7419
20
116.5803
0
VERTEX
8
CUT
10
80.8223
20
116.6472
0
VERTEX
8
CUT
10
80.8345
20
116.6577
0
VERTEX
8
CUT
10
83.1710
20
118.7099
0
VERTEX
8
CUT
10
83.1821
20
118.7198
0
VERTEX
8
CUT
10
83.2533
20
118.7856
0
VERTEX
8
CUT
10
83.2641
20
118.7958
0
VERTEX
8
CUT
10
83.3059
20
118.8363
0
VERTEX
8
CUT
10
83.3268
20
118.8576
0
VERTEX
8
CUT
10
83.4571
20
118.9973
0
VERTEX
8
CUT
10
83.4955
20
119.0429
0
VERTEX
8
CUT
10
83.6098
20
119.1927
0
VERTEX
8
CUT
10
83.6435
20
119.2419
0
VERTEX
8
CUT
10
83.7423
20
119.4023
0
VERTEX
8
CUT
10
83.7710
20
119.4546
0
VERTEX
8
CUT
10
83.8534
20
119.6240
0
VERTEX
8
CUT
10
83.8768
20
119.6789
0
VERTEX
8
CUT
10
83.9419
20
119.8557
0
VERTEX
8
CUT
10
83.9598
20
119.9125
0
VERTEX
8
CUT
10
84.0071
20
120.0949
0
VERTEX
8
CUT
10
84.0191
20
120.1533
0
VERTEX
8
CUT
10
84.0481
20
120.3395
0
VERTEX
8
CUT
10
84.0544
20
120.3988
0
VERTEX
8
CUT
10
84.0647
20
120.5869
0
VERTEX
8
CUT
10
84.0650
20
120.6465
0
VERTEX
8
CUT
10
84.0567
20
120.8348
0
VERTEX
8
CUT
10
84.0511
20
120.8941
0
VERTEX
8
CUT
10
84.0241
20
121.0806
0
VERTEX
8
CUT
10
84.0126
20
121.1391
0
VERTEX
8
CUT
10
83.9673
20
121.3220
0
VERTEX
8
CUT
10
83.9501
20
121.3790
0
VERTEX
8
CUT
10
83.8868
20
121.5565
0
VERTEX
8
CUT
10
83.8640
20
121.6116
0
VERTEX
8
CUT
10
83.7834
20
121.7819
0
VERTEX
8
CUT
10
83.7553
20
121.8345
0
VERTEX
8
CUT
10
83.6582
20
121.9960
0
VERTEX
8
CUT
10
83.6250
20
122.0455
0
VERTEX
8
CUT
10
83.5108
20
122.1986
0
VERTEX
8
CUT
10
83.4924
20
122.2221
0
VERTEX
8
CUT
10
83.4508
20
122.2725
0
VERTEX
8
CUT
10
83.4457
20
122.2786
0
VERTEX
8
CUT
10
83.4277
20
122.2998
0
VERTEX
8
CUT
10
83.4023
20
122.3312
0
VERTEX
8
CUT
10
83.3553
20
122.3918
0
VERTEX
8
CUT
10
83.3074
20
122.4600
0
VERTEX
8
CUT
10
83.2776
20
122.5069
0
VERTEX
8
CUT
10
83.2362
20
122.5793
0
VERTEX
8
CUT
10
83.2109
20
122.6288
0
VERTEX
8
CUT
10
83.1763
20
122.7047
0
VERTEX
8
CUT
10
83.1557
20
122.7563
0
VERTEX
8
CUT
10
83.1284
20
122.8351
0
VERTEX
8
CUT
10
83.1067
20
122.9084
0
VERTEX
8
CUT
10
83.0958
20
122.9487
0
VERTEX
8
CUT
10
82.9843
20
123.4017
0
VERTEX
8
CUT
10
82.9819
20
123.4115
0
VERTEX
8
CUT
10
82.9780
20
123.4280
0
VERTEX
8
CUT
10
82.9697
20
123.4677
0
VERTEX
8
CUT
10
82.9570
20
123.5352
0
VERTEX
8
CUT
10
82.9520
20
123.5652
0
VERTEX
8
CUT
10
82.9515
20
123.5684
0
VERTEX
8
CUT
10
82.9474
20
123.5985
0
VERTEX
8
CUT
10
82.9394
20
123.6668
0
VERTEX
8
CUT
10
82.9355
20
123.7072
0
VERTEX
8
CUT
10
82.9343
20
123.7240
0
VERTEX
8
CUT
10
82.9336
20
123.7341
0
VERTEX
8
CUT
10
82.6868
20
127.7752
0
VERTEX
8
CUT
10
82.6858
20
127.7881
0
VERTEX
8
CUT
10
82.6789
20
127.8717
0
VERTEX
8
CUT
10
82.6777
20
127.8846
0
VERTEX
8
CUT
10
82.6725
20
127.9347
0
VERTEX
8
CUT
10
82.6692
20
127.9604
0
VERTEX
8
CUT
10
82.6446
20
128.1263
0
VERTEX
8
CUT
10
82.6403
20
128.1518
0
VERTEX
8
CUT
10
82.6308
20
128.2013
0
VERTEX
8
CUT
10
82.6282
20
128.2140
0
VERTEX
8
CUT
10
82.6106
20
128.2960
0
VERTEX
8
CUT
10
82.6077
20
128.3086
0
VERTEX
8
CUT
10
82.1704
20
130.1500
0
VERTEX
8
CUT
10
82.1673
20
130.1623
0
VERTEX
8
CUT
10
82.1465
20
130.2422
0
VERTEX
8
CUT
10
82.1432
20
130.2545
0
VERTEX
8
CUT
10
82.1297
20
130.3023
0
VERTEX
8
CUT
10
82.1223
20
130.3266
0
VERTEX
8
CUT
10
82.0714
20
130.4813
0
VERTEX
8
CUT
10
82.0535
20
130.5288
0
VERTEX
8
CUT
10
81.9896
20
130.6787
0
VERTEX
8
CUT
10
81.9792
20
130.7019
0
VERTEX
8
CUT
10
81.9578
20
130.7467
0
VERTEX
8
CUT
10
81.9522
20
130.7581
0
VERTEX
8
CUT
10
81.9151
20
130.8318
0
VERTEX
8
CUT
10
81.9093
20
130.8431
0
VERTEX
8
CUT
10
81.6812
20
131.2735
0
VERTEX
8
CUT
10
81.6742
20
131.2863
0
VERTEX
8
CUT
10
81.6279
20
131.3689
0
VERTEX
8
CUT
10
81.6206
20
131.3815
0
VERTEX
8
CUT
10
81.5915
20
131.4304
0
VERTEX
8
CUT
10
81.5761
20
131.4551
0
VERTEX
8
CUT
10
81.4730
20
131.6109
0
VERTEX
8
CUT
10
81.4386
20
131.6578
0
VERTEX
8
CUT
10
81.3226
20
131.8009
0
VERTEX
8
CUT
10
81.2837
20
131.8443
0
VERTEX
8
CUT
10
81.1543
20
131.9754
0
VERTEX
8
CUT
10
81.1115
20
132.0148
0
VERTEX
8
CUT
10
80.9700
20
132.1328
0
VERTEX
8
CUT
10
80.9235
20
132.1678
0
VERTEX
8
CUT
10
80.7713
20
132.2715
0
VERTEX
8
CUT
10
80.7216
20
132.3019
0
VERTEX
8
CUT
10
80.5600
20
132.3903
0
VERTEX
8
CUT
10
80.5076
20
132.4158
0
VERTEX
8
CUT
10
80.3382
20
132.4881
0
VERTEX
8
CUT
10
80.2836
20
132.5084
0
VERTEX
8
CUT
10
80.1080
20
132.5639
0
VERTEX
8
CUT
10
80.0517
20
132.5788
0
VERTEX
8
CUT
10
79.8715
20
132.6171
0
VERTEX
8
CUT
10
79.8140
20
132.6264
0
VERTEX
8
CUT
10
79.6310
20
132.6470
0
VERTEX
8
CUT
10
79.5728
20
132.6507
0
VERTEX
8
CUT
10
79.3887
20
132.6535
0
VERTEX
8
CUT
10
79.3304
20
132.6515
0
VERTEX
8
CUT
10
79.1469
20
132.6364
0
VERTEX
8
CUT
10
79.0891
20
132.6288
0
VERTEX
8
CUT
10
78.9079
20
132.5960
0
VERTEX
8
CUT
10
78.8511
20
132.5829
0
VERTEX
8
CUT
10
78.6739
20
132.5326
0
VERTEX
8
CUT
10
78.6187
20
132.5140
0
VERTEX
8
CUT
10
78.4473
20
132.4468
0
VERTEX
8
CUT
10
78.3941
20
132.4229
0
VERTEX
8
CUT
10
78.2300
20
132.3394
0
VERTEX
8
CUT
10
78.1794
20
132.3105
0
VERTEX
8
CUT
10
78.0241
20
132.2115
0
VERTEX
8
CUT
10
77.9765
20
132.1778
0
VERTEX
8
CUT
10
77.8316
20
132.0642
0
VERTEX
8
CUT
10
77.7876
20
132.0261
0
VERTEX
8
CUT
10
77.6543
20
131.8989
0
VERTEX
8
CUT
10
77.6142
20
131.8567
0
VERTEX
8
CUT
10
77.4939
20
131.7172
0
VERTEX
8
CUT
10
77.4580
20
131.6713
0
VERTEX
8
CUT
10
77.3518
20
131.5208
0
VERTEX
8
CUT
10
77.3206
20
131.4716
0
VERTEX
8
CUT
10
77.2282
20
131.3093
0
VERTEX
8
CUT
10
77.2144
20
131.2837
0
VERTEX
8
CUT
10
77.1887
20
131.2329
0
VERTEX
8
CUT
10
77.1823
20
131.2199
0
VERTEX
8
CUT
10
77.1416
20
131.1344
0
VERTEX
8
CUT
10
77.1355
20
131.1211
0
VERTEX
8
CUT
10
76.7240
20
130.2003
0
VERTEX
8
CUT
10
76.7159
20
130.1815
0
VERTEX
8
CUT
10
76.6658
20
130.0580
0
VERTEX
8
CUT
10
76.6584
20
130.0389
0
VERTEX
8
CUT
10
76.6008
20
129.8820
0
VERTEX
8
CUT
10
76.5940
20
129.8627
0
VERTEX
8
CUT
10
76.5524
20
129.7361
0
VERTEX
8
CUT
10
76.5463
20
129.7165
0
VERTEX
8
CUT
10
76.0771
20
128.1062
0
VERTEX
8
CUT
10
76.0736
20
128.0937
0
VERTEX
8
CUT
10
76.0517
20
128.0120
0
VERTEX
8
CUT
10
76.0484
20
127.9994
0
VERTEX
8
CUT
10
76.0363
20
127.9500
0
VERTEX
8
CUT
10
76.0307
20
127.9245
0
VERTEX
8
CUT
10
75.9976
20
127.7587
0
VERTEX
8
CUT
10
75.9931
20
127.7330
0
VERTEX
8
CUT
10
75.9853
20
127.6828
0
VERTEX
8
CUT
10
75.9835
20
127.6699
0
VERTEX
8
CUT
10
75.9724
20
127.5860
0
VERTEX
8
CUT
10
75.9708
20
127.5731
0
VERTEX
8
CUT
10
75.6166
20
124.3651
0
VERTEX
8
CUT
10
75.6155
20
124.3542
0
VERTEX
8
CUT
10
75.6085
20
124.2780
0
VERTEX
8
CUT
10
75.6075
20
124.2666
0
SEQEND
0
ENDSEC
0
EOF
