0
SECTION
2
HEADER
9
$ACADVER
1
AC1009
9
$INSUNITS
70
4
0
ENDSEC
0
SECTION
2
TABLES
0
TABLE
2
LAYER
70
1
0
LAYER
2
CUT
70
0
62
7
6
CONTINUOUS
0
ENDTAB
0
ENDSEC
0
SECTION
2
ENTITIES
0
POLYLINE
8
CUT
66
1
70
1
10
0.0
20
0.0
30
0.0
0
VERTEX
8
CUT
10
0.0431
20
298.6056
0
VERTEX
8
CUT
10
0.1479
20
298.8271
0
VERTEX
8
CUT
10
0.2738
20
299.0373
0
VERTEX
8
CUT
10
0.4198
20
299.2341
0
VERTEX
8
CUT
10
0.5844
20
299.4156
0
VERTEX
8
CUT
10
0.7659
20
299.5802
0
VERTEX
8
CUT
10
0.9627
20
299.7262
0
VERTEX
8
CUT
10
1.1729
20
299.8521
0
VERTEX
8
CUT
10
1.3944
20
299.9569
0
VERTEX
8
CUT
10
1.6252
20
300.0395
0
VERTEX
8
CUT
10
1.8629
20
300.0990
0
VERTEX
8
CUT
10
2.1053
20
300.1350
0
VERTEX
8
CUT
10
2.4114
20
300.1500
0
VERTEX
8
CUT
10
297.5872
20
300.1500
0
VERTEX
8
CUT
10
297.8933
20
300.1350
0
VERTEX
8
CUT
10
298.1357
20
300.0990
0
VERTEX
8
CUT
10
298.3734
20
300.0395
0
VERTEX
8
CUT
10
298.6041
20
299.9569
0
VERTEX
8
CUT
10
298.8256
20
299.8521
0
VERTEX
8
CUT
10
299.0358
20
299.7262
0
VERTEX
8
CUT
10
299.2326
20
299.5802
0
VERTEX
8
CUT
10
299.4142
20
299.4156
0
VERTEX
8
CUT
10
299.5787
20
299.2341
0
VERTEX
8
CUT
10
299.7247
20
299.0373
0
VERTEX
8
CUT
10
299.8507
20
298.8271
0
VERTEX
8
CUT
10
299.9554
20
298.6056
0
VERTEX
8
CUT
10
300.0380
20
298.3748
0
VERTEX
8
CUT
10
300.0975
20
298.1371
0
VERTEX
8
CUT
10
300.1335
20
297.8947
0
VERTEX
8
CUT
10
300.1485
20
297.5886
0
VERTEX
8
CUT
10
300.1485
20
2.4114
0
VERTEX
8
CUT
10
300.1335
20
2.1053
0
VERTEX
8
CUT
10
300.0975
20
1.8629
0
VERTEX
8
CUT
10
300.0380
20
1.6252
0
VERTEX
8
CUT
10
299.9554
20
1.3944
0
VERTEX
8
CUT
10
299.8507
20
1.1729
0
VERTEX
8
CUT
10
299.7247
20
0.9627
0
VERTEX
8
CUT
10
299.5787
20
0.7659
0
VERTEX
8
CUT
10
299.4142
20
0.5844
0
VERTEX
8
CUT
10
299.2326
20
0.4198
0
VERTEX
8
CUT
10
299.0358
20
0.2738
0
VERTEX
8
CUT
10
298.8256
20
0.1479
0
VERTEX
8
CUT
10
298.6041
20
0.0431
0
VERTEX
8
CUT
10
298.3734
20
-0.0395
0
VERTEX
8
CUT
10
298.1357
20
-0.0990
0
VERTEX
8
CUT
10
297.8933
20
-0.1350
0
VERTEX
8
CUT
10
297.5872
20
-0.1500
0
VERTEX
8
CUT
10
2.4114
20
-0.1500
0
VERTEX
8
CUT
10
2.1053
20
-0.1350
0
VERTEX
8
CUT
10
1.8629
20
-0.0990
0
VERTEX
8
CUT
10
1.6252
20
-0.0395
0
VERTEX
8
CUT
10
1.3944
20
0.0431
0
VERTEX
8
CUT
10
1.1729
20
0.1479
0
VERTEX
8
CUT
10
0.9627
20
0.2738
0
VERTEX
8
CUT
10
0.7659
20
0.4198
0
VERTEX
8
CUT
10
0.5844
20
0.5844
0
VERTEX
8
CUT
10
0.4198
20
0.7659
0
VERTEX
8
CUT
10
0.2738
20
0.9627
0
VERTEX
8
CUT
10
0.1479
20
1.1729
0
VERTEX
8
CUT
10
0.0431
20
1.3944
0
VERTEX
8
CUT
10
-0.0395
20
1.6252
0
VERTEX
8
CUT
10
-0.0990
20
1.8629
0
VERTEX
8
CUT
10
-0.1350
20
2.1053
0
VERTEX
8
CUT
10
-0.1500
20
2.4114
0
VERTEX
8
CUT
10
-0.1500
20
297.5886
0
VERTEX
8
CUT
10
-0.1350
20
297.8947
0
VERTEX
8
CUT
10
-0.0990
20
298.1371
0
VERTEX
8
CUT
10
-0.0395
20
298.3748
0
SEQEND
0
POLYLINE
8
CUT
66
1
70
1
10
0.0
20
0.0
30
0.0
0
VERTEX
8
CUT
10
126.7051
20
71.9977
0
VERTEX
8
CUT
10
126.4646
20
72.0621
0
VERTEX
8
CUT
10
126.2188
20
72.1023
0
VERTEX
8
CUT
10
125.9703
20
72.1179
0
VERTEX
8
CUT
10
125.7215
20
72.1087
0
VERTEX
8
CUT
10
125.4749
20
72.0748
0
VERTEX
8
CUT
10
125.2328
20
72.0165
0
VERTEX
8
CUT
10
124.9977
20
71.9344
0
VERTEX
8
CUT
10
124.7720
20
71.8293
0
VERTEX
8
CUT
10
124.5578
20
71.7023
0
VERTEX
8
CUT
10
124.3573
20
71.5546
0
VERTEX
8
CUT
10
124.1725
20
71.3878
0
VERTEX
8
CUT
10
124.0053
20
71.2033
0
VERTEX
8
CUT
10
123.8572
20
71.0032
0
VERTEX
8
CUT
10
123.7297
20
70.7893
0
VERTEX
8
CUT
10
123.6242
20
70.5638
0
VERTEX
8
CUT
10
123.5416
20
70.3289
0
VERTEX
8
CUT
10
123.4828
20
70.0869
0
VERTEX
8
CUT
10
123.4483
20
69.8403
0
VERTEX
8
CUT
10
123.4386
20
69.5915
0
VERTEX
8
CUT
10
123.4536
20
69.3430
0
VERTEX
8
CUT
10
123.4933
20
69.0972
0
VERTEX
8
CUT
10
123.5572
20
68.8565
0
VERTEX
8
CUT
10
123.6448
20
68.6235
0
VERTEX
8
CUT
10
123.7551
20
68.4002
0
VERTEX
8
CUT
10
123.8871
20
68.1891
0
VERTEX
8
CUT
10
124.0394
20
67.9921
0
VERTEX
8
CUT
10
126.2021
20
65.4663
0
VERTEX
8
CUT
10
126.3940
20
65.2659
0
VERTEX
8
CUT
10
129.8016
20
62.0807
0
VERTEX
8
CUT
10
130.0229
20
61.8965
0
VERTEX
8
CUT
10
132.6064
20
59.9873
0
VERTEX
8
CUT
10
132.7738
20
59.8737
0
VERTEX
8
CUT
10
135.5799
20
58.1319
0
VERTEX
8
CUT
10
135.7813
20
58.0195
0
VERTEX
8
CUT
10
138.7682
20
56.5277
0
VERTEX
8
CUT
10
138.9712
20
56.4373
0
VERTEX
8
CUT
10
142.1612
20
55.1843
0
VERTEX
8
CUT
10
142.1958
20
55.1710
0
VERTEX
8
CUT
10
142.2021
20
55.1686
0
VERTEX
8
CUT
10
142.3495
20
55.1184
0
VERTEX
8
CUT
10
145.7599
20
54.0740
0
VERTEX
8
CUT
10
145.7959
20
54.0632
0
VERTEX
8
CUT
10
145.8021
20
54.0614
0
VERTEX
8
CUT
10
145.9542
20
54.0225
0
VERTEX
8
CUT
10
149.5406
20
53.2230
0
VERTEX
8
CUT
10
149.5753
20
53.2155
0
VERTEX
8
CUT
10
149.5813
20
53.2143
0
VERTEX
8
CUT
10
149.7270
20
53.1884
0
VERTEX
8
CUT
10
153.4921
20
52.6350
0
VERTEX
8
CUT
10
153.6942
20
52.6137
0
VERTEX
8
CUT
10
156.6117
20
52.4248
0
VERTEX
8
CUT
10
156.6453
20
52.4229
0
VERTEX
8
CUT
10
156.6514
20
52.4226
0
VERTEX
8
CUT
10
156.7933
20
52.4194
0
VERTEX
8
CUT
10
166.7882
20
52.4755
0
VERTEX
8
CUT
10
167.0942
20
52.4960
0
VERTEX
8
CUT
10
169.8202
20
52.8478
0
VERTEX
8
CUT
10
170.0609
20
52.8909
0
VERTEX
8
CUT
10
170.2963
20
52.9574
0
VERTEX
8
CUT
10
170.5240
20
53.0465
0
VERTEX
8
CUT
10
170.7420
20
53.1575
0
VERTEX
8
CUT
10
170.9481
20
53.2892
0
VERTEX
8
CUT
10
170.9802
20
53.3145
0
VERTEX
8
CUT
10
171.0104
20
53.3012
0
VERTEX
8
CUT
10
171.2446
20
53.2249
0
VERTEX
8
CUT
10
171.4851
20
53.1720
0
VERTEX
8
CUT
10
171.7296
20
53.1430
0
VERTEX
8
CUT
10
171.9758
20
53.1382
0
VERTEX
8
CUT
10
172.2213
20
53.1577
0
VERTEX
8
CUT
10
174.0555
20
53.3944
0
VERTEX
8
CUT
10
174.2896
20
53.4360
0
VERTEX
8
CUT
10
179.8356
20
54.6965
0
VERTEX
8
CUT
10
179.8649
20
54.7033
0
VERTEX
8
CUT
10
179.8703
20
54.7046
0
VERTEX
8
CUT
10
179.9930
20
54.7374
0
VERTEX
8
CUT
10
182.6361
20
55.5156
0
VERTEX
8
CUT
10
182.7126
20
55.5395
0
VERTEX
8
CUT
10
185.2463
20
56.3747
0
VERTEX
8
CUT
10
185.2829
20
56.3871
0
VERTEX
8
CUT
10
185.2890
20
56.3892
0
VERTEX
8
CUT
10
185.4390
20
56.4467
0
VERTEX
8
CUT
10
189.9697
20
58.3523
0
VERTEX
8
CUT
10
190.2153
20
58.4718
0
VERTEX
8
CUT
10
194.3770
20
60.7855
0
VERTEX
8
CUT
10
194.5841
20
60.9143
0
VERTEX
8
CUT
10
198.6510
20
63.7266
0
VERTEX
8
CUT
10
198.6783
20
63.7457
0
VERTEX
8
CUT
10
198.6833
20
63.7493
0
VERTEX
8
CUT
10
198.7952
20
63.8337
0
VERTEX
8
CUT
10
200.6796
20
65.3402
0
VERTEX
8
CUT
10
200.7078
20
65.3631
0
VERTEX
8
CUT
10
200.7126
20
65.3670
0
VERTEX
8
CUT
10
200.8265
20
65.4668
0
VERTEX
8
CUT
10
204.4841
20
68.8712
0
VERTEX
8
CUT
10
204.6508
20
69.0419
0
VERTEX
8
CUT
10
207.4860
20
72.2371
0
VERTEX
8
CUT
10
207.5052
20
72.2590
0
VERTEX
8
CUT
10
207.5086
20
72.2630
0
VERTEX
8
CUT
10
207.5867
20
72.3577
0
VERTEX
8
CUT
10
211.5529
20
77.4154
0
VERTEX
8
CUT
10
211.5636
20
77.4292
0
VERTEX
8
CUT
10
227.5716
20
98.1400
0
VERTEX
8
CUT
10
227.5993
20
98.1766
0
VERTEX
8
CUT
10
232.9186
20
105.3263
0
VERTEX
8
CUT
10
232.9327
20
105.3455
0
VERTEX
8
CUT
10
232.9351
20
105.3488
0
VERTEX
8
CUT
10
232.9923
20
105.4306
0
VERTEX
8
CUT
10
234.8542
20
108.2103
0
VERTEX
8
CUT
10
234.9606
20
108.3842
0
VERTEX
8
CUT
10
237.6548
20
113.2167
0
VERTEX
8
CUT
10
237.7690
20
113.4489
0
VERTEX
8
CUT
10
238.7312
20
115.6932
0
VERTEX
8
CUT
10
238.7448
20
115.7255
0
VERTEX
8
CUT
10
238.7472
20
115.7313
0
VERTEX
8
CUT
10
238.7993
20
115.8691
0
VERTEX
8
CUT
10
240.1795
20
119.8703
0
VERTEX
8
CUT
10
240.2472
20
120.1028
0
VERTEX
8
CUT
10
241.1935
20
124.0507
0
VERTEX
8
CUT
10
241.2524
20
124.4105
0
VERTEX
8
CUT
10
241.5991
20
128.2830
0
VERTEX
8
CUT
10
241.6088
20
128.5386
0
VERTEX
8
CUT
10
241.5525
20
132.8395
0
VERTEX
8
CUT
10
241.5379
20
133.0785
0
VERTEX
8
CUT
10
241.2723
20
135.5084
0
VERTEX
8
CUT
10
241.2371
20
135.7343
0
VERTEX
8
CUT
10
240.7631
20
138.0690
0
VERTEX
8
CUT
10
240.6998
20
138.3156
0
VERTEX
8
CUT
10
239.9745
20
140.6420
0
VERTEX
8
CUT
10
239.8649
20
140.9299
0
VERTEX
8
CUT
10
237.4755
20
146.2022
0
VERTEX
8
CUT
10
237.3372
20
146.4647
0
VERTEX
8
CUT
10
231.5103
20
156.0923
0
VERTEX
8
CUT
10
231.4616
20
156.1752
0
VERTEX
8
CUT
10
231.4292
20
156.2319
0
VERTEX
8
CUT
10
231.3826
20
156.3160
0
VERTEX
8
CUT
10
228.8587
20
161.0141
0
VERTEX
8
CUT
10
228.7505
20
161.2322
0
VERTEX
8
CUT
10
228.6819
20
161.3825
0
VERTEX
8
CUT
10
228.5881
20
161.6072
0
VERTEX
8
CUT
10
227.1852
20
165.2997
0
VERTEX
8
CUT
10
227.1252
20
165.4695
0
VERTEX
8
CUT
10
227.1153
20
165.5001
0
VERTEX
8
CUT
10
227.0203
20
165.8474
0
VERTEX
8
CUT
10
227.0133
20
165.8788
0
VERTEX
8
CUT
10
226.9784
20
166.0555
0
VERTEX
8
CUT
10
226.4001
20
169.4047
0
VERTEX
8
CUT
10
226.3641
20
169.6689
0
VERTEX
8
CUT
10
226.3461
20
169.8489
0
VERTEX
8
CUT
10
226.3290
20
170.1150
0
VERTEX
8
CUT
10
226.2849
20
171.6510
0
VERTEX
8
CUT
10
226.2843
20
171.8425
0
VERTEX
8
CUT
10
226.2872
20
171.9725
0
VERTEX
8
CUT
10
226.2963
20
172.1637
0
VERTEX
8
CUT
10
226.5484
20
175.5909
0
VERTEX
8
CUT
10
226.5672
20
175.7808
0
VERTEX
8
CUT
10
226.5715
20
175.8146
0
VERTEX
8
CUT
10
226.6380
20
176.1903
0
VERTEX
8
CUT
10
226.6456
20
176.2235
0
VERTEX
8
CUT
10
226.6931
20
176.4083
0
VERTEX
8
CUT
10
227.6193
20
179.6660
0
VERTEX
8
CUT
10
227.6641
20
179.8121
0
VERTEX
8
CUT
10
227.6727
20
179.8381
0
VERTEX
8
CUT
10
227.7799
20
180.1243
0
VERTEX
8
CUT
10
227.7906
20
180.1496
0
VERTEX
8
CUT
10
227.8528
20
180.2892
0
VERTEX
8
CUT
10
229.7231
20
184.2610
0
VERTEX
8
CUT
10
229.8124
20
184.4384
0
VERTEX
8
CUT
10
229.8763
20
184.5572
0
VERTEX
8
CUT
10
229.9749
20
184.7296
0
VERTEX
8
CUT
10
231.9927
20
188.0504
0
VERTEX
8
CUT
10
232.1119
20
188.2708
0
VERTEX
8
CUT
10
232.2085
20
188.5020
0
VERTEX
8
CUT
10
232.2814
20
188.7418
0
VERTEX
8
CUT
10
232.3300
20
188.9876
0
VERTEX
8
CUT
10
232.3537
20
189.2370
0
VERTEX
8
CUT
10
232.3523
20
189.4876
0
VERTEX
8
CUT
10
232.3259
20
189.7368
0
VERTEX
8
CUT
10
232.2746
20
189.9821
0
VERTEX
8
CUT
10
232.1990
20
190.2210
0
VERTEX
8
CUT
10
232.0999
20
190.4511
0
VERTEX
8
CUT
10
231.9783
20
190.6702
0
VERTEX
8
CUT
10
231.8354
20
190.8760
0
VERTEX
8
CUT
10
231.6725
20
191.0665
0
VERTEX
8
CUT
10
231.4914
20
191.2396
0
VERTEX
8
CUT
10
231.2939
20
191.3938
0
VERTEX
8
CUT
10
231.0820
20
191.5275
0
VERTEX
8
CUT
10
230.8577
20
191.6393
0
VERTEX
8
CUT
10
230.6233
20
191.7280
0
VERTEX
8
CUT
10
230.3813
20
191.7928
0
VERTEX
8
CUT
10
230.1340
20
191.8331
0
VERTEX
8
CUT
10
229.8839
20
191.8485
0
VERTEX
8
CUT
10
229.6335
20
191.8387
0
VERTEX
8
CUT
10
229.3853
20
191.8039
0
VERTEX
8
CUT
10
228.3580
20
191.6069
0
VERTEX
8
CUT
10
228.2143
20
191.5822
0
VERTEX
8
CUT
10
228.1884
20
191.5783
0
VERTEX
8
CUT
10
227.8987
20
191.5458
0
VERTEX
8
CUT
10
227.8726
20
191.5439
0
VERTEX
8
CUT
10
227.7270
20
191.5361
0
VERTEX
8
CUT
10
225.6551
20
191.4658
0
VERTEX
8
CUT
10
225.3876
20
191.4663
0
VERTEX
8
CUT
10
225.2062
20
191.4731
0
VERTEX
8
CUT
10
224.9393
20
191.4927
0
VERTEX
8
CUT
10
224.1074
20
191.5836
0
VERTEX
8
CUT
10
223.9798
20
191.5997
0
VERTEX
8
CUT
10
223.8934
20
191.6122
0
VERTEX
8
CUT
10
223.7665
20
191.6327
0
VERTEX
8
CUT
10
222.9057
20
191.7870
0
VERTEX
8
CUT
10
222.6412
20
191.8443
0
VERTEX
8
CUT
10
222.4633
20
191.8897
0
VERTEX
8
CUT
10
222.2036
20
191.9660
0
VERTEX
8
CUT
10
220.1333
20
192.6561
0
VERTEX
8
CUT
10
219.9878
20
192.7080
0
VERTEX
8
CUT
10
219.9619
20
192.7178
0
VERTEX
8
CUT
10
219.6780
20
192.8393
0
VERTEX
8
CUT
10
219.6530
20
192.8512
0
VERTEX
8
CUT
10
219.5150
20
192.9206
0
VERTEX
8
CUT
10
216.4543
20
194.5397
0
VERTEX
8
CUT
10
216.3025
20
194.6246
0
VERTEX
8
CUT
10
216.2757
20
194.6404
0
VERTEX
8
CUT
10
215.9847
20
194.8308
0
VERTEX
8
CUT
10
215.9594
20
194.8491
0
VERTEX
8
CUT
10
215.8208
20
194.9542
0
VERTEX
8
CUT
10
214.3137
20
196.1536
0
VERTEX
8
CUT
10
214.1514
20
196.2904
0
VERTEX
8
CUT
10
214.0439
20
196.3864
0
VERTEX
8
CUT
10
213.8896
20
196.5322
0
VERTEX
8
CUT
10
212.4896
20
197.9322
0
VERTEX
8
CUT
10
212.3383
20
198.0927
0
VERTEX
8
CUT
10
212.2388
20
198.2046
0
VERTEX
8
CUT
10
212.0972
20
198.3737
0
VERTEX
8
CUT
10
210.7762
20
200.0487
0
VERTEX
8
CUT
10
210.6395
20
200.2335
0
VERTEX
8
CUT
10
210.5506
20
200.3616
0
VERTEX
8
CUT
10
210.4255
20
200.5544
0
VERTEX
8
CUT
10
209.2998
20
202.4105
0
VERTEX
8
CUT
10
209.2024
20
202.5811
0
VERTEX
8
CUT
10
209.1393
20
202.6986
0
VERTEX
8
CUT
10
209.0509
20
202.8740
0
VERTEX
8
CUT
10
208.0779
20
204.9387
0
VERTEX
8
CUT
10
207.9988
20
205.1186
0
VERTEX
8
CUT
10
207.9483
20
205.2422
0
VERTEX
8
CUT
10
207.8787
20
205.4261
0
VERTEX
8
CUT
10
207.0933
20
207.6786
0
VERTEX
8
CUT
10
207.0385
20
207.8485
0
VERTEX
8
CUT
10
207.0041
20
207.9647
0
VERTEX
8
CUT
10
206.9575
20
208.1370
0
VERTEX
8
CUT
10
206.3665
20
210.5487
0
VERTEX
8
CUT
10
206.3198
20
210.7675
0
VERTEX
8
CUT
10
206.2925
20
210.9169
0
VERTEX
8
CUT
10
206.2589
20
211.1381
0
VERTEX
8
CUT
10
206.0300
20
213.0200
0
VERTEX
8
CUT
10
206.0118
20
213.2100
0
VERTEX
8
CUT
10
206.0028
20
213.3393
0
VERTEX
8
CUT
10
205.9942
20
213.5300
0
VERTEX
8
CUT
10
205.7381
20
226.8916
0
VERTEX
8
CUT
10
205.7098
20
227.2212
0
VERTEX
8
CUT
10
205.3460
20
229.6029
0
VERTEX
8
CUT
10
205.3005
20
229.8296
0
VERTEX
8
CUT
10
205.2343
20
230.0511
0
VERTEX
8
CUT
10
204.5913
20
231.8886
0
VERTEX
8
CUT
10
204.4859
20
232.1438
0
VERTEX
8
CUT
10
204.3529
20
232.3858
0
VERTEX
8
CUT
10
202.6041
20
235.1898
0
VERTEX
8
CUT
10
202.4870
20
235.3613
0
VERTEX
8
CUT
10
202.3562
20
235.5224
0
VERTEX
8
CUT
10
202.2124
20
235.6721
0
VERTEX
8
CUT
10
200.7666
20
237.0572
0
VERTEX
8
CUT
10
200.5588
20
237.2355
0
VERTEX
8
CUT
10
200.3326
20
237.3901
0
VERTEX
8
CUT
10
198.5422
20
238.4749
0
VERTEX
8
CUT
10
198.3689
20
238.5708
0
VERTEX
8
CUT
10
198.1885
20
238.6526
0
VERTEX
8
CUT
10
197.5497
20
238.9123
0
VERTEX
8
CUT
10
197.3227
20
238.9922
0
VERTEX
8
CUT
10
197.0890
20
239.0498
0
VERTEX
8
CUT
10
196.8509
20
239.0847
0
VERTEX
8
CUT
10
196.6105
20
239.0965
0
VERTEX
8
CUT
10
196.3701
20
239.0852
0
VERTEX
8
CUT
10
196.1319
20
239.0508
0
VERTEX
8
CUT
10
195.8982
20
238.9936
0
VERTEX
8
CUT
10
195.6710
20
238.9143
0
VERTEX
8
CUT
10
195.4524
20
238.8134
0
VERTEX
8
CUT
10
195.2446
20
238.6920
0
VERTEX
8
CUT
10
195.0495
20
238.5512
0
VERTEX
8
CUT
10
194.8687
20
238.3923
0
VERTEX
8
CUT
10
194.7041
20
238.2168
0
VERTEX
8
CUT
10
194.5571
20
238.0262
0
VERTEX
8
CUT
10
194.4292
20
237.8224
0
VERTEX
8
CUT
10
194.3214
20
237.6072
0
VERTEX
8
CUT
10
194.2348
20
237.3827
0
VERTEX
8
CUT
10
193.3274
20
234.6437
0
VERTEX
8
CUT
10
193.2698
20
234.4416
0
VERTEX
8
CUT
10
193.2293
20
234.2353
0
VERTEX
8
CUT
10
193.2063
20
234.0263
0
VERTEX
8
CUT
10
193.0021
20
231.0080
0
VERTEX
8
CUT
10
192.9969
20
230.7873
0
VERTEX
8
CUT
10
193.1597
20
222.9463
0
VERTEX
8
CUT
10
193.1591
20
222.7659
0
VERTEX
8
CUT
10
193.1582
20
222.7336
0
VERTEX
8
CUT
10
193.1310
20
222.3739
0
VERTEX
8
CUT
10
193.1271
20
222.3419
0
VERTEX
8
CUT
10
193.1005
20
222.1634
0
VERTEX
8
CUT
10
193.0009
20
221.5892
0
VERTEX
8
CUT
10
192.9694
20
221.4288
0
VERTEX
8
CUT
10
192.9632
20
221.4002
0
VERTEX
8
CUT
10
192.8862
20
221.1097
0
VERTEX
8
CUT
10
192.7843
20
220.8270
0
VERTEX
8
CUT
10
192.7732
20
220.8000
0
VERTEX
8
CUT
10
192.7078
20
220.6502
0
VERTEX
8
CUT
10
192.2051
20
219.5636
0
VERTEX
8
CUT
10
192.1184
20
219.3884
0
VERTEX
8
CUT
10
192.1022
20
219.3575
0
VERTEX
8
CUT
10
191.9021
20
219.0220
0
VERTEX
8
CUT
10
191.8827
20
218.9930
0
VERTEX
8
CUT
10
191.7699
20
218.8335
0
VERTEX
8
CUT
10
191.1023
20
217.9402
0
VERTEX
8
CUT
10
190.9946
20
217.8029
0
VERTEX
8
CUT
10
190.9748
20
217.7788
0
VERTEX
8
CUT
10
190.7597
20
217.5409
0
VERTEX
8
CUT
10
190.5235
20
217.3239
0
VERTEX
8
CUT
10
190.4996
20
217.3039
0
VERTEX
8
CUT
10
190.3632
20
217.1951
0
VERTEX
8
CUT
10
189.6871
20
216.6814
0
VERTEX
8
CUT
10
189.5367
20
216.5729
0
VERTEX
8
CUT
10
189.5093
20
216.5541
0
VERTEX
8
CUT
10
189.2188
20
216.3757
0
VERTEX
8
CUT
10
188.9121
20
216.2268
0
VERTEX
8
CUT
10
188.8816
20
216.2138
0
VERTEX
8
CUT
10
188.7091
20
216.1454
0
VERTEX
8
CUT
10
187.7147
20
215.7791
0
VERTEX
8
CUT
10
187.5782
20
215.7318
0
VERTEX
8
CUT
10
187.5536
20
215.7238
0
VERTEX
8
CUT
10
187.2756
20
215.6451
0
VERTEX
8
CUT
10
187.2505
20
215.6390
0
VERTEX
8
CUT
10
187.1094
20
215.6077
0
VERTEX
8
CUT
10
186.4877
20
215.4825
0
VERTEX
8
CUT
10
186.2566
20
215.4243
0
VERTEX
8
CUT
10
186.0321
20
215.3445
0
VERTEX
8
CUT
10
185.8162
20
215.2436
0
VERTEX
8
CUT
10
185.6109
20
215.1226
0
VERTEX
8
CUT
10
185.4181
20
214.9826
0
VERTEX
8
CUT
10
185.2394
20
214.8249
0
VERTEX
8
CUT
10
185.0766
20
214.6509
0
VERTEX
8
CUT
10
184.9311
20
214.4622
0
VERTEX
8
CUT
10
184.8042
20
214.2604
0
VERTEX
8
CUT
10
184.6971
20
214.0476
0
VERTEX
8
CUT
10
184.6426
20
213.9249
0
VERTEX
8
CUT
10
184.5044
20
213.6771
0
VERTEX
8
CUT
10
184.3444
20
213.4427
0
VERTEX
8
CUT
10
184.1466
20
213.2026
0
VERTEX
8
CUT
10
184.1263
20
213.1802
0
VERTEX
8
CUT
10
184.0102
20
213.0572
0
VERTEX
8
CUT
10
182.9880
20
212.0228
0
VERTEX
8
CUT
10
182.8109
20
211.8233
0
VERTEX
8
CUT
10
182.6561
20
211.6061
0
VERTEX
8
CUT
10
182.5252
20
211.3736
0
VERTEX
8
CUT
10
182.5201
20
211.3632
0
VERTEX
8
CUT
10
182.3639
20
211.0813
0
VERTEX
8
CUT
10
182.1820
20
210.8151
0
VERTEX
8
CUT
10
182.1632
20
210.7901
0
VERTEX
8
CUT
10
182.0543
20
210.6526
0
VERTEX
8
CUT
10
181.9517
20
210.5290
0
VERTEX
8
CUT
10
181.8121
20
210.3440
0
VERTEX
8
CUT
10
181.6902
20
210.1470
0
VERTEX
8
CUT
10
181.5870
20
209.9394
0
VERTEX
8
CUT
10
181.5036
20
209.7233
0
VERTEX
8
CUT
10
181.4885
20
209.6780
0
VERTEX
8
CUT
10
181.4756
20
209.6427
0
VERTEX
8
CUT
10
181.3225
20
209.2871
0
VERTEX
8
CUT
10
181.1305
20
208.9509
0
VERTEX
8
CUT
10
181.1101
20
208.9193
0
VERTEX
8
CUT
10
180.9906
20
208.7458
0
VERTEX
8
CUT
10
179.4368
20
206.6202
0
VERTEX
8
CUT
10
179.2987
20
206.4100
0
VERTEX
8
CUT
10
179.1825
20
206.1869
0
VERTEX
8
CUT
10
179.0893
20
205.9533
0
VERTEX
8
CUT
10
179.0751
20
205.9116
0
VERTEX
8
CUT
10
178.9950
20
205.6986
0
VERTEX
8
CUT
10
178.9796
20
205.6612
0
VERTEX
8
CUT
10
178.7816
20
205.2518
0
VERTEX
8
CUT
10
178.7618
20
205.2165
0
VERTEX
8
CUT
10
178.6445
20
205.0216
0
VERTEX
8
CUT
10
178.3757
20
204.6042
0
VERTEX
8
CUT
10
178.2706
20
204.4250
0
VERTEX
8
CUT
10
178.1808
20
204.2377
0
VERTEX
8
CUT
10
178.1068
20
204.0436
0
VERTEX
8
CUT
10
178.0210
20
203.7870
0
VERTEX
8
CUT
10
177.9587
20
203.6148
0
VERTEX
8
CUT
10
177.9468
20
203.5843
0
VERTEX
8
CUT
10
177.8094
20
203.2770
0
VERTEX
8
CUT
10
177.6573
20
203.0102
0
VERTEX
8
CUT
10
177.4800
20
202.7595
0
VERTEX
8
CUT
10
177.2597
20
202.5050
0
VERTEX
8
CUT
10
177.2371
20
202.4813
0
VERTEX
8
CUT
10
177.1074
20
202.3520
0
VERTEX
8
CUT
10
174.4334
20
199.8123
0
VERTEX
8
CUT
10
174.2977
20
199.6730
0
VERTEX
8
CUT
10
174.1732
20
199.5236
0
VERTEX
8
CUT
10
172.6615
20
197.5577
0
VERTEX
8
CUT
10
172.5779
20
197.4529
0
VERTEX
8
CUT
10
172.5194
20
197.3822
0
VERTEX
8
CUT
10
172.4316
20
197.2799
0
VERTEX
8
CUT
10
168.4821
20
192.8422
0
VERTEX
8
CUT
10
168.3610
20
192.6920
0
VERTEX
8
CUT
10
168.2555
20
192.5947
0
VERTEX
8
CUT
10
168.2323
20
192.5712
0
VERTEX
8
CUT
10
167.9782
20
192.3375
0
VERTEX
8
CUT
10
167.7262
20
192.1487
0
VERTEX
8
CUT
10
167.4566
20
191.9860
0
VERTEX
8
CUT
10
167.1720
20
191.8510
0
VERTEX
8
CUT
10
166.8754
20
191.7453
0
VERTEX
8
CUT
10
166.5697
20
191.6697
0
VERTEX
8
CUT
10
166.2580
20
191.6250
0
VERTEX
8
CUT
10
165.8674
20
191.6086
0
VERTEX
8
CUT
10
165.6249
20
191.5865
0
VERTEX
8
CUT
10
165.3857
20
191.5410
0
VERTEX
8
CUT
10
165.1521
20
191.4724
0
VERTEX
8
CUT
10
164.9262
20
191.3814
0
VERTEX
8
CUT
10
164.7103
20
191.2688
0
VERTEX
8
CUT
10
164.5064
20
191.1358
0
VERTEX
8
CUT
10
164.3163
20
190.9836
0
VERTEX
8
CUT
10
164.1420
20
190.8136
0
VERTEX
8
CUT
10
163.9850
20
190.6274
0
VERTEX
8
CUT
10
163.8469
20
190.4269
0
VERTEX
8
CUT
10
163.7290
20
190.2139
0
VERTEX
8
CUT
10
163.6323
20
189.9904
0
VERTEX
8
CUT
10
163.5578
20
189.7586
0
VERTEX
8
CUT
10
163.5063
20
189.5206
0
VERTEX
8
CUT
10
163.4626
20
189.2577
0
VERTEX
8
CUT
10
163.4121
20
189.0070
0
VERTEX
8
CUT
10
163.3720
20
188.8381
0
VERTEX
8
CUT
10
163.3046
20
188.5915
0
VERTEX
8
CUT
10
162.7979
20
186.9600
0
VERTEX
8
CUT
10
162.7211
20
186.7376
0
VERTEX
8
CUT
10
162.6643
20
186.5883
0
VERTEX
8
CUT
10
162.5737
20
186.3711
0
VERTEX
8
CUT
10
161.7835
20
184.6327
0
VERTEX
8
CUT
10
161.7039
20
184.4684
0
VERTEX
8
CUT
10
161.6472
20
184.3582
0
VERTEX
8
CUT
10
161.5597
20
184.1980
0
VERTEX
8
CUT
10
160.3274
20
182.0654
0
VERTEX
8
CUT
10
160.2656
20
181.9624
0
VERTEX
8
CUT
10
160.2225
20
181.8930
0
VERTEX
8
CUT
10
160.1575
20
181.7920
0
VERTEX
8
CUT
10
154.7407
20
173.6678
0
VERTEX
8
CUT
10
154.5766
20
173.3826
0
VERTEX
8
CUT
10
152.3036
20
168.7529
0
VERTEX
8
CUT
10
152.1790
20
168.4506
0
VERTEX
8
CUT
10
151.5142
20
166.4807
0
VERTEX
8
CUT
10
151.4368
20
166.1975
0
VERTEX
8
CUT
10
151.0089
20
164.1701
0
VERTEX
8
CUT
10
150.9619
20
163.8392
0
VERTEX
8
CUT
10
150.6073
20
159.0719
0
VERTEX
8
CUT
10
150.6051
20
158.7341
0
VERTEX
8
CUT
10
150.8740
20
154.3313
0
VERTEX
8
CUT
10
150.8938
20
154.1347
0
VERTEX
8
CUT
10
150.9291
20
153.9404
0
VERTEX
8
CUT
10
151.8906
20
149.6219
0
VERTEX
8
CUT
10
151.9938
20
149.2774
0
VERTEX
8
CUT
10
153.9540
20
144.1177
0
VERTEX
8
CUT
10
154.0395
20
143.9191
0
VERTEX
8
CUT
10
159.5912
20
132.4133
0
VERTEX
8
CUT
10
159.6186
20
132.3552
0
VERTEX
8
CUT
10
159.6369
20
132.3155
0
VERTEX
8
CUT
10
159.6633
20
132.2570
0
VERTEX
8
CUT
10
161.9092
20
127.1637
0
VERTEX
8
CUT
10
161.9665
20
127.0265
0
VERTEX
8
CUT
10
161.9762
20
127.0017
0
VERTEX
8
CUT
10
162.0743
20
126.7210
0
VERTEX
8
CUT
10
162.0820
20
126.6955
0
VERTEX
8
CUT
10
162.1226
20
126.5525
0
VERTEX
8
CUT
10
163.2411
20
122.2910
0
VERTEX
8
CUT
10
163.2738
20
122.1561
0
VERTEX
8
CUT
10
163.2793
20
122.1318
0
VERTEX
8
CUT
10
163.3297
20
121.8588
0
VERTEX
8
CUT
10
163.3333
20
121.8342
0
VERTEX
8
CUT
10
163.3509
20
121.6964
0
VERTEX
8
CUT
10
163.7036
20
118.4602
0
VERTEX
8
CUT
10
163.7475
20
118.1925
0
VERTEX
8
CUT
10
163.8202
20
117.9313
0
VERTEX
8
CUT
10
163.9208
20
117.6794
0
VERTEX
8
CUT
10
164.0480
20
117.4399
0
VERTEX
8
CUT
10
165.3490
20
115.2826
0
VERTEX
8
CUT
10
165.4274
20
115.1463
0
VERTEX
8
CUT
10
165.4409
20
115.1216
0
VERTEX
8
CUT
10
165.5690
20
114.8623
0
VERTEX
8
CUT
10
165.6749
20
114.5932
0
VERTEX
8
CUT
10
165.6841
20
114.5666
0
VERTEX
8
CUT
10
165.7324
20
114.4169
0
VERTEX
8
CUT
10
166.2800
20
112.5883
0
VERTEX
8
CUT
10
166.3273
20
112.4154
0
VERTEX
8
CUT
10
166.3350
20
112.3843
0
VERTEX
8
CUT
10
166.4046
20
112.0329
0
VERTEX
8
CUT
10
166.4093
20
112.0012
0
VERTEX
8
CUT
10
166.4314
20
111.8233
0
VERTEX
8
CUT
10
166.6510
20
109.6300
0
VERTEX
8
CUT
10
166.6642
20
109.4583
0
VERTEX
8
CUT
10
166.6659
20
109.4275
0
VERTEX
8
CUT
10
166.6686
20
109.0832
0
VERTEX
8
CUT
10
166.6674
20
109.0524
0
VERTEX
8
CUT
10
166.6569
20
108.8805
0
VERTEX
8
CUT
10
166.3894
20
105.7016
0
VERTEX
8
CUT
10
166.3738
20
105.5516
0
VERTEX
8
CUT
10
166.3704
20
105.5247
0
VERTEX
8
CUT
10
166.3210
20
105.2272
0
VERTEX
8
CUT
10
166.3155
20
105.2007
0
VERTEX
8
CUT
10
166.2819
20
105.0536
0
VERTEX
8
CUT
10
165.3904
20
101.4867
0
VERTEX
8
CUT
10
165.3634
20
101.3846
0
VERTEX
8
CUT
10
165.3440
20
101.3154
0
VERTEX
8
CUT
10
165.3140
20
101.2140
0
VERTEX
8
CUT
10
162.4350
20
91.9491
0
VERTEX
8
CUT
10
162.4240
20
91.9126
0
VERTEX
8
CUT
10
162.4220
20
91.9059
0
VERTEX
8
CUT
10
162.3817
20
91.7507
0
VERTEX
8
CUT
10
161.5063
20
87.8699
0
VERTEX
8
CUT
10
161.4627
20
87.6160
0
VERTEX
8
CUT
10
161.2914
20
86.1808
0
VERTEX
8
CUT
10
161.2742
20
85.9297
0
VERTEX
8
CUT
10
161.2516
20
84.6751
0
VERTEX
8
CUT
10
161.2558
20
84.4792
0
VERTEX
8
CUT
10
161.2752
20
84.2842
0
VERTEX
8
CUT
10
161.3246
20
83.9310
0
VERTEX
8
CUT
10
161.3697
20
83.6929
0
VERTEX
8
CUT
10
161.4376
20
83.4603
0
VERTEX
8
CUT
10
161.5278
20
83.2354
0
VERTEX
8
CUT
10
161.6393
20
83.0202
0
VERTEX
8
CUT
10
161.7710
20
82.8169
0
VERTEX
8
CUT
10
161.9219
20
82.6272
0
VERTEX
8
CUT
10
162.0904
20
82.4531
0
VERTEX
8
CUT
10
162.2750
20
82.2961
0
VERTEX
8
CUT
10
162.4739
20
82.1577
0
VERTEX
8
CUT
10
162.6853
20
82.0393
0
VERTEX
8
CUT
10
162.9072
20
81.9418
0
VERTEX
8
CUT
10
163.1374
20
81.8663
0
VERTEX
8
CUT
10
163.3739
20
81.8134
0
VERTEX
8
CUT
10
163.6144
20
81.7837
0
VERTEX
8
CUT
10
163.8566
20
81.7774
0
VERTEX
8
CUT
10
164.0983
20
81.7945
0
VERTEX
8
CUT
10
164.3372
20
81.8350
0
VERTEX
8
CUT
10
164.5711
20
81.8984
0
VERTEX
8
CUT
10
164.7977
20
81.9842
0
VERTEX
8
CUT
10
165.0150
20
82.0915
0
VERTEX
8
CUT
10
165.2208
20
82.2193
0
VERTEX
8
CUT
10
165.4133
20
82.3665
0
VERTEX
8
CUT
10
165.5907
20
82.5316
0
VERTEX
8
CUT
10
165.7512
20
82.7131
0
VERTEX
8
CUT
10
166.4815
20
83.6241
0
VERTEX
8
CUT
10
166.6165
20
83.8094
0
VERTEX
8
CUT
10
167.5108
20
85.1627
0
VERTEX
8
CUT
10
167.6342
20
85.3705
0
VERTEX
8
CUT
10
169.2996
20
88.5138
0
VERTEX
8
CUT
10
169.4115
20
88.7552
0
VERTEX
8
CUT
10
170.8029
20
92.2308
0
VERTEX
8
CUT
10
170.9109
20
92.5682
0
VERTEX
8
CUT
10
172.2158
20
97.9256
0
VERTEX
8
CUT
10
172.2562
20
98.1270
0
VERTEX
8
CUT
10
172.2799
20
98.3310
0
VERTEX
8
CUT
10
172.5752
20
102.2819
0
VERTEX
8
CUT
10
172.5772
20
102.3118
0
VERTEX
8
CUT
10
172.5776
20
102.3172
0
VERTEX
8
CUT
10
172.5823
20
102.4433
0
VERTEX
8
CUT
10
172.6388
20
107.1122
0
VERTEX
8
CUT
10
172.6311
20
107.3413
0
VERTEX
8
CUT
10
172.1314
20
113.6043
0
VERTEX
8
CUT
10
172.0850
20
113.9238
0
VERTEX
8
CUT
10
170.9113
20
119.4612
0
VERTEX
8
CUT
10
170.9057
20
119.4872
0
VERTEX
8
CUT
10
170.9046
20
119.4919
0
VERTEX
8
CUT
10
170.8777
20
119.6010
0
VERTEX
8
CUT
10
169.0114
20
126.4929
0
VERTEX
8
CUT
10
168.9882
20
126.5733
0
VERTEX
8
CUT
10
164.4755
20
141.2699
0
VERTEX
8
CUT
10
164.4448
20
141.3755
0
VERTEX
8
CUT
10
164.4249
20
141.4477
0
VERTEX
8
CUT
10
164.3973
20
141.5543
0
VERTEX
8
CUT
10
162.6860
20
148.5712
0
VERTEX
8
CUT
10
162.6527
20
148.7210
0
VERTEX
8
CUT
10
162.6321
20
148.8233
0
VERTEX
8
CUT
10
162.6050
20
148.9744
0
VERTEX
8
CUT
10
162.1718
20
151.7048
0
VERTEX
8
CUT
10
162.1492
20
151.8716
0
VERTEX
8
CUT
10
162.1363
20
151.9852
0
VERTEX
8
CUT
10
162.1212
20
152.1529
0
VERTEX
8
CUT
10
161.7388
20
157.8070
0
VERTEX
8
CUT
10
161.7319
20
157.9504
0
VERTEX
8
CUT
10
161.7291
20
158.0480
0
VERTEX
8
CUT
10
161.7276
20
158.1915
0
VERTEX
8
CUT
10
161.7539
20
161.0948
0
VERTEX
8
CUT
10
161.7569
20
161.2149
0
VERTEX
8
CUT
10
161.7603
20
161.2966
0
VERTEX
8
CUT
10
161.7671
20
161.4166
0
VERTEX
8
CUT
10
162.1468
20
166.5969
0
VERTEX
8
CUT
10
162.1662
20
166.7912
0
VERTEX
8
CUT
10
162.1828
20
166.9228
0
VERTEX
8
CUT
10
162.2122
20
167.1159
0
VERTEX
8
CUT
10
163.0448
20
171.7615
0
VERTEX
8
CUT
10
163.0776
20
171.9235
0
VERTEX
8
CUT
10
163.1022
20
172.0330
0
VERTEX
8
CUT
10
163.1421
20
172.1934
0
VERTEX
8
CUT
10
163.6781
20
174.1646
0
VERTEX
8
CUT
10
163.7241
20
174.3204
0
VERTEX
8
CUT
10
163.7577
20
174.4256
0
VERTEX
8
CUT
10
163.8104
20
174.5792
0
VERTEX
8
CUT
10
165.3543
20
178.7806
0
VERTEX
8
CUT
10
165.4295
20
178.9692
0
VERTEX
8
CUT
10
165.4840
20
179.0959
0
VERTEX
8
CUT
10
165.5693
20
179.2803
0
VERTEX
8
CUT
10
167.2137
20
182.5952
0
VERTEX
8
CUT
10
167.2772
20
182.7175
0
VERTEX
8
CUT
10
167.3219
20
182.7999
0
VERTEX
8
CUT
10
167.3899
20
182.9198
0
VERTEX
8
CUT
10
168.7214
20
185.1714
0
VERTEX
8
CUT
10
168.8182
20
185.3265
0
VERTEX
8
CUT
10
168.8866
20
185.4302
0
VERTEX
8
CUT
10
168.9909
20
185.5803
0
VERTEX
8
CUT
10
170.3679
20
187.4628
0
VERTEX
8
CUT
10
170.4975
20
187.6299
0
VERTEX
8
CUT
10
170.5887
20
187.7408
0
VERTEX
8
CUT
10
170.7275
20
187.9003
0
VERTEX
8
CUT
10
171.8763
20
189.1475
0
VERTEX
8
CUT
10
172.0245
20
189.3250
0
VERTEX
8
CUT
10
172.1884
20
189.4864
0
VERTEX
8
CUT
10
173.4037
20
190.8058
0
VERTEX
8
CUT
10
173.5700
20
190.9753
0
VERTEX
8
CUT
10
173.6865
20
191.0867
0
VERTEX
8
CUT
10
173.8632
20
191.2453
0
VERTEX
8
CUT
10
177.0681
20
193.9435
0
VERTEX
8
CUT
10
177.1959
20
194.0465
0
VERTEX
8
CUT
10
177.2192
20
194.0644
0
VERTEX
8
CUT
10
177.4877
20
194.2529
0
VERTEX
8
CUT
10
177.5124
20
194.2687
0
VERTEX
8
CUT
10
177.6526
20
194.3540
0
VERTEX
8
CUT
10
180.9864
20
196.2837
0
VERTEX
8
CUT
10
181.1435
20
196.3697
0
VERTEX
8
CUT
10
181.1720
20
196.3844
0
VERTEX
8
CUT
10
181.4977
20
196.5335
0
VERTEX
8
CUT
10
181.5274
20
196.5454
0
VERTEX
8
CUT
10
181.6953
20
196.6081
0
VERTEX
8
CUT
10
185.1398
20
197.8017
0
VERTEX
8
CUT
10
185.3143
20
197.8574
0
VERTEX
8
CUT
10
185.3457
20
197.8666
0
VERTEX
8
CUT
10
185.7017
20
197.9522
0
VERTEX
8
CUT
10
185.7339
20
197.9582
0
VERTEX
8
CUT
10
185.9146
20
197.9879
0
VERTEX
8
CUT
10
189.5894
20
198.4989
0
VERTEX
8
CUT
10
189.7625
20
198.5189
0
VERTEX
8
CUT
10
189.7936
20
198.5218
0
VERTEX
8
CUT
10
190.1417
20
198.5375
0
VERTEX
8
CUT
10
190.1728
20
198.5375
0
VERTEX
8
CUT
10
190.3471
20
198.5332
0
VERTEX
8
CUT
10
193.8586
20
198.3653
0
VERTEX
8
CUT
10
194.0365
20
198.3526
0
VERTEX
8
CUT
10
194.0682
20
198.3496
0
VERTEX
8
CUT
10
194.4211
20
198.2988
0
VERTEX
8
CUT
10
194.4524
20
198.2928
0
VERTEX
8
CUT
10
194.6267
20
198.2548
0
VERTEX
8
CUT
10
197.8011
20
197.4847
0
VERTEX
8
CUT
10
197.9904
20
197.4335
0
VERTEX
8
CUT
10
198.0239
20
197.4234
0
VERTEX
8
CUT
10
198.3932
20
197.2917
0
VERTEX
8
CUT
10
198.4255
20
197.2782
0
VERTEX
8
CUT
10
198.6045
20
197.1981
0
VERTEX
8
CUT
10
201.4726
20
195.8223
0
VERTEX
8
CUT
10
201.6421
20
195.7356
0
VERTEX
8
CUT
10
201.6719
20
195.7194
0
VERTEX
8
CUT
10
201.9967
20
195.5208
0
VERTEX
8
CUT
10
202.0247
20
195.5016
0
VERTEX
8
CUT
10
202.1791
20
195.3902
0
VERTEX
8
CUT
10
204.9470
20
193.2844
0
VERTEX
8
CUT
10
205.0785
20
193.1796
0
VERTEX
8
CUT
10
205.1016
20
193.1604
0
VERTEX
8
CUT
10
205.3497
20
192.9338
0
VERTEX
8
CUT
10
205.3710
20
192.9125
0
VERTEX
8
CUT
10
205.4872
20
192.7911
0
VERTEX
8
CUT
10
207.8670
20
190.1906
0
VERTEX
8
CUT
10
208.0302
20
189.9997
0
VERTEX
8
CUT
10
208.1366
20
189.8666
0
VERTEX
8
CUT
10
208.2867
20
189.6652
0
VERTEX
8
CUT
10
209.2005
20
188.3497
0
VERTEX
8
CUT
10
209.3257
20
188.1572
0
VERTEX
8
CUT
10
209.4066
20
188.0240
0
VERTEX
8
CUT
10
209.5197
20
187.8243
0
VERTEX
8
CUT
10
211.6169
20
183.8414
0
VERTEX
8
CUT
10
211.7135
20
183.6442
0
VERTEX
8
CUT
10
211.7752
20
183.5084
0
VERTEX
8
CUT
10
211.8600
20
183.3058
0
VERTEX
8
CUT
10
213.9629
20
177.8436
0
VERTEX
8
CUT
10
213.9942
20
177.7595
0
VERTEX
8
CUT
10
214.0147
20
177.7021
0
VERTEX
8
CUT
10
214.0439
20
177.6172
0
VERTEX
8
CUT
10
217.9962
20
165.6770
0
VERTEX
8
CUT
10
218.0054
20
165.6496
0
VERTEX
8
CUT
10
218.0071
20
165.6447
0
VERTEX
8
CUT
10
218.0495
20
165.5306
0
VERTEX
8
CUT
10
224.4464
20
149.5091
0
VERTEX
8
CUT
10
224.4968
20
149.3755
0
VERTEX
8
CUT
10
224.5293
20
149.2840
0
VERTEX
8
CUT
10
224.5746
20
149.1485
0
VERTEX
8
CUT
10
227.0641
20
141.2049
0
VERTEX
8
CUT
10
227.1104
20
141.0448
0
VERTEX
8
CUT
10
227.1395
20
140.9353
0
VERTEX
8
CUT
10
227.1786
20
140.7732
0
VERTEX
8
CUT
10
227.9350
20
137.3058
0
VERTEX
8
CUT
10
227.9679
20
137.1362
0
VERTEX
8
CUT
10
227.9876
20
137.0204
0
VERTEX
8
CUT
10
228.0127
20
136.8494
0
VERTEX
8
CUT
10
228.1930
20
135.3859
0
VERTEX
8
CUT
10
228.2122
20
135.1869
0
VERTEX
8
CUT
10
228.2216
20
135.0514
0
VERTEX
8
CUT
10
228.2301
20
134.8516
0
VERTEX
8
CUT
10
228.3406
20
127.9102
0
VERTEX
8
CUT
10
228.3407
20
127.7975
0
VERTEX
8
CUT
10
228.3396
20
127.7209
0
VERTEX
8
CUT
10
228.3363
20
127.6082
0
VERTEX
8
CUT
10
228.1489
20
123.3708
0
VERTEX
8
CUT
10
228.1313
20
123.1379
0
VERTEX
8
CUT
10
228.1144
20
122.9803
0
VERTEX
8
CUT
10
228.0824
20
122.7489
0
VERTEX
8
CUT
10
227.7299
20
120.6811
0
VERTEX
8
CUT
10
227.6989
20
120.5201
0
VERTEX
8
CUT
10
227.6754
20
120.4112
0
VERTEX
8
CUT
10
227.6373
20
120.2518
0
VERTEX
8
CUT
10
226.5959
20
116.2772
0
VERTEX
8
CUT
10
226.5466
20
116.1058
0
VERTEX
8
CUT
10
226.5104
20
115.9901
0
VERTEX
8
CUT
10
226.4530
20
115.8212
0
VERTEX
8
CUT
10
225.0800
20
112.0764
0
VERTEX
8
CUT
10
225.0172
20
111.9166
0
VERTEX
8
CUT
10
224.9721
20
111.8091
0
VERTEX
8
CUT
10
224.9021
20
111.6523
0
VERTEX
8
CUT
10
223.2014
20
108.0679
0
VERTEX
8
CUT
10
223.1225
20
107.9111
0
VERTEX
8
CUT
10
223.0664
20
107.8058
0
VERTEX
8
CUT
10
222.9802
20
107.6529
0
VERTEX
8
CUT
10
220.9093
20
104.1717
0
VERTEX
8
CUT
10
220.8267
20
104.0392
0
VERTEX
8
CUT
10
220.7687
20
103.9503
0
VERTEX
8
CUT
10
220.6806
20
103.8214
0
VERTEX
8
CUT
10
218.2956
20
100.4802
0
VERTEX
8
CUT
10
218.1854
20
100.3335
0
VERTEX
8
CUT
10
218.1081
20
100.2357
0
VERTEX
8
CUT
10
217.9908
20
100.0946
0
VERTEX
8
CUT
10
215.2064
20
96.9059
0
VERTEX
8
CUT
10
215.1157
20
96.8058
0
VERTEX
8
CUT
10
215.0529
20
96.7388
0
VERTEX
8
CUT
10
214.9587
20
96.6420
0
VERTEX
8
CUT
10
211.8068
20
93.5183
0
VERTEX
8
CUT
10
211.7100
20
93.4257
0
VERTEX
8
CUT
10
211.6431
20
93.3640
0
VERTEX
8
CUT
10
211.5431
20
93.2749
0
VERTEX
8
CUT
10
206.2559
20
88.7352
0
VERTEX
8
CUT
10
206.0725
20
88.5610
0
VERTEX
8
CUT
10
205.9078
20
88.3691
0
VERTEX
8
CUT
10
205.7632
20
88.1615
0
VERTEX
8
CUT
10
205.6404
20
87.9404
0
VERTEX
8
CUT
10
205.5406
20
87.7080
0
VERTEX
8
CUT
10
205.4647
20
87.4667
0
VERTEX
8
CUT
10
205.4136
20
87.2190
0
VERTEX
8
CUT
10
204.9815
20
84.4133
0
VERTEX
8
CUT
10
204.9337
20
84.1610
0
VERTEX
8
CUT
10
204.8955
20
83.9910
0
VERTEX
8
CUT
10
204.8306
20
83.7425
0
VERTEX
8
CUT
10
204.4207
20
82.3681
0
VERTEX
8
CUT
10
204.3354
20
82.1154
0
VERTEX
8
CUT
10
204.2715
20
81.9461
0
VERTEX
8
CUT
10
204.1685
20
81.7001
0
VERTEX
8
CUT
10
202.5483
20
78.1869
0
VERTEX
8
CUT
10
202.4879
20
78.0620
0
VERTEX
8
CUT
10
202.4767
20
78.0398
0
VERTEX
8
CUT
10
202.3422
20
77.7972
0
VERTEX
8
CUT
10
202.3294
20
77.7759
0
VERTEX
8
CUT
10
202.2555
20
77.6585
0
VERTEX
8
CUT
10
199.9296
20
74.1092
0
VERTEX
8
CUT
10
199.7726
20
73.8876
0
VERTEX
8
CUT
10
199.6608
20
73.7412
0
VERTEX
8
CUT
10
199.4882
20
73.5316
0
VERTEX
8
CUT
10
196.5861
20
70.2558
0
VERTEX
8
CUT
10
196.4697
20
70.1303
0
VERTEX
8
CUT
10
196.4484
20
70.1083
0
VERTEX
8
CUT
10
196.1990
20
69.8739
0
VERTEX
8
CUT
10
196.1758
20
69.8540
0
VERTEX
8
CUT
10
196.0433
20
69.7455
0
VERTEX
8
CUT
10
189.0423
20
64.2759
0
VERTEX
8
CUT
10
188.8670
20
64.1469
0
VERTEX
8
CUT
10
188.8351
20
64.1248
0
VERTEX
8
CUT
10
188.4634
20
63.8985
0
VERTEX
8
CUT
10
188.4292
20
63.8803
0
VERTEX
8
CUT
10
188.2341
20
63.7836
0
VERTEX
8
CUT
10
180.2755
20
60.1245
0
VERTEX
8
CUT
10
180.0897
20
60.0451
0
VERTEX
8
CUT
10
180.0562
20
60.0318
0
VERTEX
8
CUT
10
179.6730
20
59.9035
0
VERTEX
8
CUT
10
179.6383
20
59.8939
0
VERTEX
8
CUT
10
179.4421
20
59.8454
0
VERTEX
8
CUT
10
171.3671
20
58.0794
0
VERTEX
8
CUT
10
171.1295
20
58.0150
0
VERTEX
8
CUT
10
170.8993
20
57.9275
0
VERTEX
8
CUT
10
170.6788
20
57.8179
0
VERTEX
8
CUT
10
170.4702
20
57.6870
0
VERTEX
8
CUT
10
170.4224
20
57.6501
0
VERTEX
8
CUT
10
170.4062
20
57.6573
0
VERTEX
8
CUT
10
170.1742
20
57.7347
0
VERTEX
8
CUT
10
169.9357
20
57.7890
0
VERTEX
8
CUT
10
169.6931
20
57.8198
0
VERTEX
8
CUT
10
169.4486
20
57.8267
0
VERTEX
8
CUT
10
160.7779
20
57.6478
0
VERTEX
8
CUT
10
160.6007
20
57.6484
0
VERTEX
8
CUT
10
160.5691
20
57.6492
0
VERTEX
8
CUT
10
160.2159
20
57.6753
0
VERTEX
8
CUT
10
160.1845
20
57.6791
0
VERTEX
8
CUT
10
160.0092
20
57.7047
0
VERTEX
8
CUT
10
150.7412
20
59.2798
0
VERTEX
8
CUT
10
150.5739
20
59.3121
0
VERTEX
8
CUT
10
150.5441
20
59.3186
0
VERTEX
8
CUT
10
150.2146
20
59.4060
0
VERTEX
8
CUT
10
150.1856
20
59.4151
0
VERTEX
8
CUT
10
150.0241
20
59.4700
0
VERTEX
8
CUT
10
140.8318
20
62.8275
0
VERTEX
8
CUT
10
140.6758
20
62.8884
0
VERTEX
8
CUT
10
140.6482
20
62.8999
0
VERTEX
8
CUT
10
140.3453
20
63.0423
0
VERTEX
8
CUT
10
140.3188
20
63.0563
0
VERTEX
8
CUT
10
140.1724
20
63.1375
0
VERTEX
8
CUT
10
131.5599
20
68.1696
0
VERTEX
8
CUT
10
131.4151
20
68.2587
0
VERTEX
8
CUT
10
131.3895
20
68.2753
0
VERTEX
8
CUT
10
131.1127
20
68.4727
0
VERTEX
8
CUT
10
131.0887
20
68.4915
0
VERTEX
8
CUT
10
130.9573
20
68.5994
0
VERTEX
8
CUT
10
127.5684
20
71.5136
0
VERTEX
8
CUT
10
127.3718
20
71.6664
0
VERTEX
8
CUT
10
127.1610
20
71.7988
0
VERTEX
8
CUT
10
126.9380
20
71.9096
0
SEQEND
0
POLYLINE
8
CUT
66
1
70
1
10
0.0
20
0.0
30
0.0
0
VERTEX
8
CUT
10
124.4536
20
103.4231
0
VERTEX
8
CUT
10
124.4982
20
103.1906
0
VERTEX
8
CUT
10
124.7468
20
102.1595
0
VERTEX
8
CUT
10
124.8170
20
101.9211
0
VERTEX
8
CUT
10
124.9105
20
101.6908
0
VERTEX
8
CUT
10
125.0264
20
101.4710
0
VERTEX
8
CUT
10
125.9670
20
99.8838
0
VERTEX
8
CUT
10
126.0849
20
99.7031
0
VERTEX
8
CUT
10
126.2179
20
99.5333
0
VERTEX
8
CUT
10
126.2765
20
99.4648
0
VERTEX
8
CUT
10
126.3361
20
99.3648
0
VERTEX
8
CUT
10
126.4934
20
99.1546
0
VERTEX
8
CUT
10
127.0154
20
98.5285
0
VERTEX
8
CUT
10
127.1891
20
98.3407
0
VERTEX
8
CUT
10
127.3811
20
98.1715
0
VERTEX
8
CUT
10
127.9227
20
97.7415
0
VERTEX
8
CUT
10
128.1563
20
97.5769
0
VERTEX
8
CUT
10
128.4072
20
97.4400
0
VERTEX
8
CUT
10
128.6097
20
97.3442
0
VERTEX
8
CUT
10
129.4154
20
96.8552
0
VERTEX
8
CUT
10
129.6563
20
96.7265
0
VERTEX
8
CUT
10
129.9097
20
96.6248
0
VERTEX
8
CUT
10
130.1727
20
96.5513
0
VERTEX
8
CUT
10
130.8765
20
96.3957
0
VERTEX
8
CUT
10
131.1230
20
96.3540
0
VERTEX
8
CUT
10
131.3531
20
96.3385
0
VERTEX
8
CUT
10
131.5026
20
96.3075
0
VERTEX
8
CUT
10
131.7559
20
96.2685
0
VERTEX
8
CUT
10
132.0117
20
96.2555
0
VERTEX
8
CUT
10
132.9147
20
96.2563
0
VERTEX
8
CUT
10
133.1521
20
96.2677
0
VERTEX
8
CUT
10
133.3874
20
96.3017
0
VERTEX
8
CUT
10
133.6183
20
96.3579
0
VERTEX
8
CUT
10
133.7639
20
96.4007
0
VERTEX
8
CUT
10
134.3068
20
96.4546
0
VERTEX
8
CUT
10
134.5480
20
96.4904
0
VERTEX
8
CUT
10
134.7845
20
96.5496
0
VERTEX
8
CUT
10
135.3816
20
96.7304
0
VERTEX
8
CUT
10
135.5942
20
96.8054
0
VERTEX
8
CUT
10
135.7993
20
96.8993
0
VERTEX
8
CUT
10
135.9950
20
97.0113
0
VERTEX
8
CUT
10
136.1799
20
97.1404
0
VERTEX
8
CUT
10
136.6824
20
97.5264
0
VERTEX
8
CUT
10
137.0988
20
97.8019
0
VERTEX
8
CUT
10
137.3323
20
97.9769
0
VERTEX
8
CUT
10
137.5438
20
98.1778
0
VERTEX
8
CUT
10
137.5777
20
98.2140
0
VERTEX
8
CUT
10
137.7967
20
98.3822
0
VERTEX
8
CUT
10
137.9926
20
98.5494
0
VERTEX
8
CUT
10
138.1703
20
98.7359
0
VERTEX
8
CUT
10
139.8966
20
100.7457
0
VERTEX
8
CUT
10
140.0526
20
100.9472
0
VERTEX
8
CUT
10
140.1872
20
101.1635
0
VERTEX
8
CUT
10
140.8877
20
102.4283
0
VERTEX
8
CUT
10
140.9924
20
102.6406
0
VERTEX
8
CUT
10
141.0766
20
102.8619
0
VERTEX
8
CUT
10
141.1395
20
103.0901
0
VERTEX
8
CUT
10
141.1806
20
103.3232
0
VERTEX
8
CUT
10
141.1994
20
103.5592
0
VERTEX
8
CUT
10
141.1958
20
103.7959
0
VERTEX
8
CUT
10
141.1698
20
104.0312
0
VERTEX
8
CUT
10
141.1217
20
104.2630
0
VERTEX
8
CUT
10
141.0518
20
104.4892
0
VERTEX
8
CUT
10
140.9609
20
104.7078
0
VERTEX
8
CUT
10
140.8497
20
104.9168
0
VERTEX
8
CUT
10
139.4637
20
107.2487
0
VERTEX
8
CUT
10
139.3401
20
107.4370
0
VERTEX
8
CUT
10
139.1999
20
107.6133
0
VERTEX
8
CUT
10
138.3789
20
108.5560
0
VERTEX
8
CUT
10
138.2109
20
108.7311
0
VERTEX
8
CUT
10
138.0266
20
108.8890
0
VERTEX
8
CUT
10
137.7069
20
109.1372
0
VERTEX
8
CUT
10
137.5705
20
109.2641
0
VERTEX
8
CUT
10
137.4095
20
109.4016
0
VERTEX
8
CUT
10
137.2374
20
109.5250
0
VERTEX
8
CUT
10
137.0444
20
109.6514
0
VERTEX
8
CUT
10
137.0202
20
109.6702
0
VERTEX
8
CUT
10
136.8363
20
109.8001
0
VERTEX
8
CUT
10
136.6725
20
109.8950
0
VERTEX
8
CUT
10
136.3545
20
110.1032
0
VERTEX
8
CUT
10
136.1309
20
110.2336
0
VERTEX
8
CUT
10
135.8950
20
110.3403
0
VERTEX
8
CUT
10
135.5653
20
110.4691
0
VERTEX
8
CUT
10
135.4103
20
110.5405
0
VERTEX
8
CUT
10
135.1818
20
110.6199
0
VERTEX
8
CUT
10
135.1725
20
110.6227
0
VERTEX
8
CUT
10
134.9820
20
110.6971
0
VERTEX
8
CUT
10
134.7419
20
110.7772
0
VERTEX
8
CUT
10
134.4949
20
110.8326
0
VERTEX
8
CUT
10
134.4089
20
110.8474
0
VERTEX
8
CUT
10
134.1037
20
110.9372
0
VERTEX
8
CUT
10
133.8395
20
110.9996
0
VERTEX
8
CUT
10
133.5701
20
111.0330
0
VERTEX
8
CUT
10
132.4826
20
111.1080
0
VERTEX
8
CUT
10
132.2222
20
111.1124
0
VERTEX
8
CUT
10
131.9628
20
111.0897
0
VERTEX
8
CUT
10
130.8946
20
110.9397
0
VERTEX
8
CUT
10
130.6331
20
110.8887
0
VERTEX
8
CUT
10
130.3786
20
110.8101
0
VERTEX
8
CUT
10
130.3610
20
110.8036
0
VERTEX
8
CUT
10
130.1812
20
110.7635
0
VERTEX
8
CUT
10
129.9250
20
110.6765
0
VERTEX
8
CUT
10
129.6797
20
110.5622
0
VERTEX
8
CUT
10
129.6229
20
110.5319
0
VERTEX
8
CUT
10
129.3374
20
110.4268
0
VERTEX
8
CUT
10
129.1401
20
110.3445
0
VERTEX
8
CUT
10
128.9506
20
110.2456
0
VERTEX
8
CUT
10
128.7703
20
110.1309
0
VERTEX
8
CUT
10
128.4325
20
109.8952
0
VERTEX
8
CUT
10
128.2362
20
109.7770
0
VERTEX
8
CUT
10
128.0290
20
109.6208
0
VERTEX
8
CUT
10
127.9978
20
109.5919
0
VERTEX
8
CUT
10
127.5941
20
109.3101
0
VERTEX
8
CUT
10
127.3898
20
109.1512
0
VERTEX
8
CUT
10
127.2030
20
108.9720
0
VERTEX
8
CUT
10
126.6492
20
108.3828
0
VERTEX
8
CUT
10
126.6252
20
108.3568
0
VERTEX
8
CUT
10
126.6206
20
108.3518
0
VERTEX
8
CUT
10
126.5238
20
108.2393
0
VERTEX
8
CUT
10
125.9551
20
107.5372
0
VERTEX
8
CUT
10
125.8277
20
107.3654
0
VERTEX
8
CUT
10
125.7154
20
107.1833
0
VERTEX
8
CUT
10
124.9389
20
105.7939
0
VERTEX
8
CUT
10
124.8372
20
105.5908
0
VERTEX
8
CUT
10
124.7544
20
105.3793
0
VERTEX
8
CUT
10
124.6911
20
105.1612
0
VERTEX
8
CUT
10
124.4984
20
104.3636
0
VERTEX
8
CUT
10
124.4538
20
104.1311
0
VERTEX
8
CUT
10
124.4313
20
103.8955
0
VERTEX
8
CUT
10
124.4313
20
103.6587
0
SEQEND
0
POLYLINE
8
CUT
66
1
70
1
10
0.0
20
0.0
30
0.0
0
VERTEX
8
CUT
10
121.3493
20
167.4820
0
VERTEX
8
CUT
10
121.1143
20
167.4212
0
VERTEX
8
CUT
10
120.8863
20
167.3380
0
VERTEX
8
CUT
10
120.6675
20
167.2330
0
VERTEX
8
CUT
10
120.4599
20
167.1073
0
VERTEX
8
CUT
10
120.2654
20
166.9620
0
VERTEX
8
CUT
10
120.0860
20
166.7986
0
VERTEX
8
CUT
10
119.9232
20
166.6186
0
VERTEX
8
CUT
10
119.7787
20
166.4236
0
VERTEX
8
CUT
10
119.6537
20
166.2155
0
VERTEX
8
CUT
10
119.5496
20
165.9963
0
VERTEX
8
CUT
10
119.4671
20
165.7681
0
VERTEX
8
CUT
10
119.4072
20
165.5329
0
VERTEX
8
CUT
10
119.3704
20
165.2930
0
VERTEX
8
CUT
10
119.3570
20
165.0506
0
VERTEX
8
CUT
10
119.3672
20
164.8081
0
VERTEX
8
CUT
10
119.4008
20
164.5678
0
VERTEX
8
CUT
10
119.4576
20
164.3318
0
VERTEX
8
CUT
10
119.5370
20
164.1025
0
VERTEX
8
CUT
10
119.6383
20
163.8819
0
VERTEX
8
CUT
10
119.7605
20
163.6722
0
VERTEX
8
CUT
10
119.9024
20
163.4753
0
VERTEX
8
CUT
10
120.0628
20
163.2931
0
VERTEX
8
CUT
10
120.2400
20
163.1274
0
VERTEX
8
CUT
10
120.4325
20
162.9796
0
VERTEX
8
CUT
10
120.6385
20
162.8511
0
VERTEX
8
CUT
10
120.8559
20
162.7433
0
VERTEX
8
CUT
10
121.0827
20
162.6570
0
VERTEX
8
CUT
10
121.3169
20
162.5931
0
VERTEX
8
CUT
10
123.7442
20
162.0561
0
VERTEX
8
CUT
10
123.9918
20
162.0142
0
VERTEX
8
CUT
10
124.2424
20
161.9974
0
VERTEX
8
CUT
10
127.1767
20
161.9482
0
VERTEX
8
CUT
10
127.3862
20
161.9535
0
VERTEX
8
CUT
10
127.5944
20
161.9763
0
VERTEX
8
CUT
10
128.9059
20
162.1757
0
VERTEX
8
CUT
10
129.1058
20
162.2145
0
VERTEX
8
CUT
10
129.3018
20
162.2694
0
VERTEX
8
CUT
10
132.0401
20
163.1581
0
VERTEX
8
CUT
10
132.2729
20
163.2467
0
VERTEX
8
CUT
10
132.4958
20
163.3581
0
VERTEX
8
CUT
10
132.7066
20
163.4911
0
VERTEX
8
CUT
10
135.0265
20
165.1229
0
VERTEX
8
CUT
10
135.2180
20
165.2719
0
VERTEX
8
CUT
10
135.3941
20
165.4388
0
VERTEX
8
CUT
10
136.3781
20
166.4665
0
VERTEX
8
CUT
10
136.5307
20
166.6415
0
VERTEX
8
CUT
10
136.6664
20
166.8299
0
VERTEX
8
CUT
10
138.5509
20
169.7199
0
VERTEX
8
CUT
10
138.6581
20
169.9004
0
VERTEX
8
CUT
10
138.7497
20
170.0893
0
VERTEX
8
CUT
10
139.4513
20
171.7044
0
VERTEX
8
CUT
10
139.5396
20
171.9392
0
VERTEX
8
CUT
10
140.1206
20
173.7568
0
VERTEX
8
CUT
10
140.2039
20
174.0989
0
VERTEX
8
CUT
10
140.5740
20
176.2757
0
VERTEX
8
CUT
10
140.6066
20
176.5769
0
VERTEX
8
CUT
10
140.8261
20
181.2275
0
VERTEX
8
CUT
10
140.8252
20
181.4815
0
VERTEX
8
CUT
10
140.6651
20
184.4159
0
VERTEX
8
CUT
10
140.6336
20
184.6984
0
VERTEX
8
CUT
10
140.0974
20
187.8548
0
VERTEX
8
CUT
10
140.0474
20
188.0835
0
VERTEX
8
CUT
10
139.0491
20
191.8070
0
VERTEX
8
CUT
10
138.9522
20
192.0965
0
VERTEX
8
CUT
10
136.3361
20
198.5693
0
VERTEX
8
CUT
10
136.3242
20
198.5982
0
VERTEX
8
CUT
10
136.3220
20
198.6034
0
VERTEX
8
CUT
10
136.2679
20
198.7235
0
VERTEX
8
CUT
10
130.0561
20
211.6060
0
VERTEX
8
CUT
10
129.9815
20
211.7707
0
VERTEX
8
CUT
10
129.9335
20
211.8838
0
VERTEX
8
CUT
10
129.8670
20
212.0520
0
VERTEX
8
CUT
10
129.6830
20
212.5515
0
VERTEX
8
CUT
10
129.5867
20
212.7781
0
VERTEX
8
CUT
10
129.4684
20
212.9941
0
VERTEX
8
CUT
10
129.3295
20
213.1975
0
VERTEX
8
CUT
10
129.1713
20
213.3862
0
VERTEX
8
CUT
10
128.9952
20
213.5585
0
VERTEX
8
CUT
10
128.8031
20
213.7125
0
VERTEX
8
CUT
10
128.5967
20
213.8470
0
VERTEX
8
CUT
10
128.3782
20
213.9604
0
VERTEX
8
CUT
10
128.1495
20
214.0518
0
VERTEX
8
CUT
10
127.9129
20
214.1203
0
VERTEX
8
CUT
10
127.6707
20
214.1652
0
VERTEX
8
CUT
10
127.4253
20
214.1860
0
VERTEX
8
CUT
10
127.1791
20
214.1825
0
VERTEX
8
CUT
10
126.9343
20
214.1549
0
VERTEX
8
CUT
10
126.6935
20
214.1033
0
VERTEX
8
CUT
10
126.4589
20
214.0282
0
VERTEX
8
CUT
10
126.2329
20
213.9305
0
VERTEX
8
CUT
10
126.0176
20
213.8109
0
VERTEX
8
CUT
10
125.8891
20
213.7221
0
VERTEX
8
CUT
10
125.8882
20
213.7234
0
VERTEX
8
CUT
10
125.8865
20
213.7222
0
VERTEX
8
CUT
10
125.6074
20
213.5476
0
VERTEX
8
CUT
10
125.3387
20
213.4133
0
VERTEX
8
CUT
10
125.0585
20
213.3053
0
VERTEX
8
CUT
10
124.7692
20
213.2245
0
VERTEX
8
CUT
10
124.4735
20
213.1716
0
VERTEX
8
CUT
10
124.1741
20
213.1472
0
VERTEX
8
CUT
10
123.8738
20
213.1515
0
VERTEX
8
CUT
10
123.5752
20
213.1844
0
VERTEX
8
CUT
10
123.2330
20
213.2557
0
VERTEX
8
CUT
10
122.9944
20
213.2934
0
VERTEX
8
CUT
10
122.7533
20
213.3080
0
VERTEX
8
CUT
10
122.5119
20
213.2992
0
VERTEX
8
CUT
10
122.2724
20
213.2672
0
VERTEX
8
CUT
10
122.0372
20
213.2122
0
VERTEX
8
CUT
10
121.8084
20
213.1348
0
VERTEX
8
CUT
10
121.5881
20
213.0356
0
VERTEX
8
CUT
10
121.3785
20
212.9156
0
VERTEX
8
CUT
10
121.1814
20
212.7760
0
VERTEX
8
CUT
10
120.9986
20
212.6180
0
VERTEX
8
CUT
10
120.8320
20
212.4431
0
VERTEX
8
CUT
10
120.6831
20
212.2529
0
VERTEX
8
CUT
10
120.5531
20
212.0493
0
VERTEX
8
CUT
10
120.4435
20
211.8340
0
VERTEX
8
CUT
10
120.3551
20
211.6092
0
VERTEX
8
CUT
10
120.2889
20
211.3769
0
VERTEX
8
CUT
10
120.2454
20
211.1393
0
VERTEX
8
CUT
10
120.2250
20
210.8986
0
VERTEX
8
CUT
10
120.2279
20
210.6570
0
VERTEX
8
CUT
10
120.2541
20
210.4169
0
VERTEX
8
CUT
10
120.3034
20
210.1804
0
VERTEX
8
CUT
10
120.3753
20
209.9498
0
VERTEX
8
CUT
10
120.4691
20
209.7272
0
VERTEX
8
CUT
10
120.5840
20
209.5147
0
VERTEX
8
CUT
10
120.7188
20
209.3142
0
VERTEX
8
CUT
10
126.4330
20
201.6470
0
VERTEX
8
CUT
10
126.5258
20
201.5168
0
VERTEX
8
CUT
10
126.5869
20
201.4270
0
VERTEX
8
CUT
10
126.6741
20
201.2929
0
VERTEX
8
CUT
10
128.2829
20
198.6992
0
VERTEX
8
CUT
10
128.3586
20
198.5716
0
VERTEX
8
CUT
10
128.4083
20
198.4839
0
VERTEX
8
CUT
10
128.4789
20
198.3533
0
VERTEX
8
CUT
10
129.7426
20
195.9024
0
VERTEX
8
CUT
10
129.8200
20
195.7432
0
VERTEX
8
CUT
10
129.8700
20
195.6339
0
VERTEX
8
CUT
10
129.9398
20
195.4712
0
VERTEX
8
CUT
10
130.8493
20
193.2048
0
VERTEX
8
CUT
10
130.9168
20
193.0232
0
VERTEX
8
CUT
10
130.9594
20
192.8987
0
VERTEX
8
CUT
10
131.0174
20
192.7139
0
VERTEX
8
CUT
10
131.6387
20
190.5393
0
VERTEX
8
CUT
10
131.6843
20
190.3636
0
VERTEX
8
CUT
10
131.7124
20
190.2436
0
VERTEX
8
CUT
10
131.7495
20
190.0659
0
VERTEX
8
CUT
10
132.1662
20
187.7955
0
VERTEX
8
CUT
10
132.1952
20
187.6115
0
VERTEX
8
CUT
10
132.2118
20
187.4861
0
VERTEX
8
CUT
10
132.2317
20
187.3009
0
VERTEX
8
CUT
10
132.4288
20
184.9069
0
VERTEX
8
CUT
10
132.4401
20
184.7020
0
VERTEX
8
CUT
10
132.4439
20
184.5627
0
VERTEX
8
CUT
10
132.4439
20
184.3575
0
VERTEX
8
CUT
10
132.3679
20
181.5743
0
VERTEX
8
CUT
10
132.3510
20
181.3073
0
VERTEX
8
CUT
10
132.3331
20
181.1266
0
VERTEX
8
CUT
10
132.2973
20
180.8614
0
VERTEX
8
CUT
10
131.8798
20
178.4305
0
VERTEX
8
CUT
10
131.8526
20
178.2882
0
VERTEX
8
CUT
10
131.8472
20
178.2629
0
VERTEX
8
CUT
10
131.7763
20
177.9821
0
VERTEX
8
CUT
10
131.7690
20
177.9572
0
VERTEX
8
CUT
10
131.7254
20
177.8190
0
VERTEX
8
CUT
10
130.9978
20
175.6566
0
VERTEX
8
CUT
10
130.9405
20
175.4982
0
VERTEX
8
CUT
10
130.9296
20
175.4701
0
VERTEX
8
CUT
10
130.7940
20
175.1618
0
VERTEX
8
CUT
10
130.7806
20
175.1348
0
VERTEX
8
CUT
10
130.7026
20
174.9855
0
VERTEX
8
CUT
10
129.6985
20
173.1662
0
VERTEX
8
CUT
10
129.6072
20
173.0098
0
VERTEX
8
CUT
10
129.5902
20
172.9822
0
VERTEX
8
CUT
10
129.3854
20
172.6835
0
VERTEX
8
CUT
10
129.3659
20
172.6578
0
VERTEX
8
CUT
10
129.2529
20
172.5162
0
VERTEX
8
CUT
10
128.0313
20
171.0586
0
VERTEX
8
CUT
10
127.8973
20
170.9071
0
VERTEX
8
CUT
10
127.8726
20
170.8808
0
VERTEX
8
CUT
10
127.5811
20
170.6006
0
VERTEX
8
CUT
10
127.5537
20
170.5771
0
VERTEX
8
CUT
10
127.3970
20
170.4492
0
VERTEX
8
CUT
10
125.9076
20
169.2993
0
VERTEX
8
CUT
10
125.7568
20
169.1887
0
VERTEX
8
CUT
10
125.7293
20
169.1697
0
VERTEX
8
CUT
10
125.4122
20
168.9718
0
VERTEX
8
CUT
10
125.3830
20
168.9556
0
VERTEX
8
CUT
10
125.2174
20
168.8688
0
VERTEX
8
CUT
10
123.6012
20
168.0721
0
VERTEX
8
CUT
10
123.4577
20
168.0051
0
VERTEX
8
CUT
10
123.4317
20
167.9936
0
VERTEX
8
CUT
10
123.1606
20
167.8874
0
VERTEX
8
CUT
10
122.8814
20
167.8044
0
VERTEX
8
CUT
10
122.8539
20
167.7975
0
VERTEX
8
CUT
10
122.6995
20
167.7620
0
SEQEND
0
POLYLINE
8
CUT
66
1
70
1
10
0.0
20
0.0
30
0.0
0
VERTEX
8
CUT
10
104.3340
20
108.6874
0
VERTEX
8
CUT
10
104.1091
20
108.7848
0
VERTEX
8
CUT
10
103.8758
20
108.8598
0
VERTEX
8
CUT
10
103.6362
20
108.9116
0
VERTEX
8
CUT
10
103.3927
20
108.9396
0
VERTEX
8
CUT
10
103.1477
20
108.9437
0
VERTEX
8
CUT
10
102.9034
20
108.9238
0
VERTEX
8
CUT
10
102.6623
20
108.8800
0
VERTEX
8
CUT
10
102.4266
20
108.8129
0
VERTEX
8
CUT
10
102.1986
20
108.7230
0
VERTEX
8
CUT
10
101.9805
20
108.6112
0
VERTEX
8
CUT
10
101.7744
20
108.4786
0
VERTEX
8
CUT
10
101.5822
20
108.3264
0
VERTEX
8
CUT
10
101.4059
20
108.1561
0
VERTEX
8
CUT
10
101.2471
20
107.9695
0
VERTEX
8
CUT
10
101.1074
20
107.7681
0
VERTEX
8
CUT
10
100.9880
20
107.5541
0
VERTEX
8
CUT
10
100.8902
20
107.3293
0
VERTEX
8
CUT
10
100.8148
20
107.0961
0
VERTEX
8
CUT
10
100.7627
20
106.8567
0
VERTEX
8
CUT
10
100.7342
20
106.6132
0
VERTEX
8
CUT
10
100.7297
20
106.3682
0
VERTEX
8
CUT
10
100.7493
20
106.1239
0
VERTEX
8
CUT
10
100.7926
20
105.8827
0
VERTEX
8
CUT
10
101.3421
20
103.5025
0
VERTEX
8
CUT
10
101.3775
20
103.3308
0
VERTEX
8
CUT
10
101.3832
20
103.3000
0
VERTEX
8
CUT
10
101.4298
20
102.9526
0
VERTEX
8
CUT
10
101.4325
20
102.9214
0
VERTEX
8
CUT
10
101.4435
20
102.7465
0
VERTEX
8
CUT
10
101.5752
20
99.4463
0
VERTEX
8
CUT
10
101.6031
20
99.1606
0
VERTEX
8
CUT
10
102.0345
20
96.3950
0
VERTEX
8
CUT
10
102.0731
20
96.1991
0
VERTEX
8
CUT
10
102.1272
20
96.0069
0
VERTEX
8
CUT
10
102.9016
20
93.6267
0
VERTEX
8
CUT
10
102.9876
20
93.4003
0
VERTEX
8
CUT
10
103.0951
20
93.1832
0
VERTEX
8
CUT
10
104.2595
20
91.0937
0
VERTEX
8
CUT
10
104.4122
20
90.8532
0
VERTEX
8
CUT
10
104.5911
20
90.6316
0
VERTEX
8
CUT
10
107.0578
20
87.9106
0
VERTEX
8
CUT
10
107.2353
20
87.7336
0
VERTEX
8
CUT
10
110.3107
20
84.9587
0
VERTEX
8
CUT
10
110.5022
20
84.8024
0
VERTEX
8
CUT
10
110.7082
20
84.6657
0
VERTEX
8
CUT
10
110.9267
20
84.5501
0
VERTEX
8
CUT
10
111.1555
20
84.4566
0
VERTEX
8
CUT
10
111.3924
20
84.3862
0
VERTEX
8
CUT
10
111.6351
20
84.3395
0
VERTEX
8
CUT
10
111.8813
20
84.3170
0
VERTEX
8
CUT
10
112.1285
20
84.3189
0
VERTEX
8
CUT
10
112.3742
20
84.3452
0
VERTEX
8
CUT
10
112.6162
20
84.3957
0
VERTEX
8
CUT
10
112.8520
20
84.4698
0
VERTEX
8
CUT
10
113.0793
20
84.5668
0
VERTEX
8
CUT
10
113.2960
20
84.6858
0
VERTEX
8
CUT
10
113.4998
20
84.8257
0
VERTEX
8
CUT
10
113.6888
20
84.9849
0
VERTEX
8
CUT
10
113.8612
20
85.1621
0
VERTEX
8
CUT
10
114.0153
20
85.3554
0
VERTEX
8
CUT
10
114.1495
20
85.5630
0
VERTEX
8
CUT
10
114.2625
20
85.7828
0
VERTEX
8
CUT
10
114.3533
20
86.0127
0
VERTEX
8
CUT
10
114.4209
20
86.2504
0
VERTEX
8
CUT
10
114.4648
20
86.4937
0
VERTEX
8
CUT
10
114.4844
20
86.7401
0
VERTEX
8
CUT
10
114.4795
20
86.9872
0
VERTEX
8
CUT
10
114.4503
20
87.2326
0
VERTEX
8
CUT
10
114.3970
20
87.4740
0
VERTEX
8
CUT
10
114.3201
20
87.7089
0
VERTEX
8
CUT
10
112.5614
20
92.3014
0
VERTEX
8
CUT
10
112.5171
20
92.4232
0
VERTEX
8
CUT
10
112.4884
20
92.5066
0
VERTEX
8
CUT
10
112.4484
20
92.6299
0
VERTEX
8
CUT
10
109.8725
20
101.0590
0
VERTEX
8
CUT
10
109.8032
20
101.2559
0
VERTEX
8
CUT
10
109.7177
20
101.4464
0
VERTEX
8
CUT
10
108.7055
20
103.4708
0
VERTEX
8
CUT
10
108.5659
20
103.7146
0
VERTEX
8
CUT
10
107.5647
20
105.2559
0
VERTEX
8
CUT
10
107.3470
20
105.5433
0
VERTEX
8
CUT
10
105.1073
20
108.0944
0
VERTEX
8
CUT
10
104.9367
20
108.2704
0
VERTEX
8
CUT
10
104.7498
20
108.4289
0
VERTEX
8
CUT
10
104.5482
20
108.5683
0
SEQEND
0
POLYLINE
8
CUT
66
1
70
1
10
0.0
20
0.0
30
0.0
0
VERTEX
8
CUT
10
52.8187
20
142.9990
0
VERTEX
8
CUT
10
52.8825
20
142.7748
0
VERTEX
8
CUT
10
52.9670
20
142.5575
0
VERTEX
8
CUT
10
53.8081
20
140.6602
0
VERTEX
8
CUT
10
53.9227
20
140.4336
0
VERTEX
8
CUT
10
54.0597
20
140.2197
0
VERTEX
8
CUT
10
55.0375
20
138.8518
0
VERTEX
8
CUT
10
55.2473
20
138.5959
0
VERTEX
8
CUT
10
56.8449
20
136.8915
0
VERTEX
8
CUT
10
56.9959
20
136.7434
0
VERTEX
8
CUT
10
57.2581
20
136.5073
0
VERTEX
8
CUT
10
57.4489
20
136.3518
0
VERTEX
8
CUT
10
57.6540
20
136.2159
0
VERTEX
8
CUT
10
57.8715
20
136.1007
0
VERTEX
8
CUT
10
58.0993
20
136.0075
0
VERTEX
8
CUT
10
58.3351
20
135.9371
0
VERTEX
8
CUT
10
58.5767
20
135.8903
0
VERTEX
8
CUT
10
58.8217
20
135.8674
0
VERTEX
8
CUT
10
59.0678
20
135.8688
0
VERTEX
8
CUT
10
59.3126
20
135.8943
0
VERTEX
8
CUT
10
59.5536
20
135.9438
0
VERTEX
8
CUT
10
59.7887
20
136.0167
0
VERTEX
8
CUT
10
60.0927
20
136.1277
0
VERTEX
8
CUT
10
60.4118
20
136.2077
0
VERTEX
8
CUT
10
60.7688
20
136.2583
0
VERTEX
8
CUT
10
60.8037
20
136.2614
0
VERTEX
8
CUT
10
60.9996
20
136.2736
0
VERTEX
8
CUT
10
66.7201
20
136.4802
0
VERTEX
8
CUT
10
66.9188
20
136.4953
0
VERTEX
8
CUT
10
67.1156
20
136.5262
0
VERTEX
8
CUT
10
70.1897
20
137.1351
0
VERTEX
8
CUT
10
70.3771
20
137.1798
0
VERTEX
8
CUT
10
70.5605
20
137.2388
0
VERTEX
8
CUT
10
72.2137
20
137.8418
0
VERTEX
8
CUT
10
72.3919
20
137.9147
0
VERTEX
8
CUT
10
72.5639
20
138.0011
0
VERTEX
8
CUT
10
73.5668
20
138.5539
0
VERTEX
8
CUT
10
73.7431
20
138.6609
0
VERTEX
8
CUT
10
73.9101
20
138.7820
0
VERTEX
8
CUT
10
74.7241
20
139.4254
0
VERTEX
8
CUT
10
74.9379
20
139.6151
0
VERTEX
8
CUT
10
75.1286
20
139.8281
0
VERTEX
8
CUT
10
76.6519
20
141.7384
0
VERTEX
8
CUT
10
76.8022
20
141.9483
0
VERTEX
8
CUT
10
76.9301
20
142.1726
0
VERTEX
8
CUT
10
77.3590
20
143.0243
0
VERTEX
8
CUT
10
77.4742
20
143.2905
0
VERTEX
8
CUT
10
77.5578
20
143.5682
0
VERTEX
8
CUT
10
78.1043
20
145.8577
0
VERTEX
8
CUT
10
78.1441
20
146.0617
0
VERTEX
8
CUT
10
78.1668
20
146.2682
0
VERTEX
8
CUT
10
78.1723
20
146.4760
0
VERTEX
8
CUT
10
78.1569
20
147.4989
0
VERTEX
8
CUT
10
78.1308
20
147.8234
0
VERTEX
8
CUT
10
78.0115
20
148.6377
0
VERTEX
8
CUT
10
77.9689
20
148.8587
0
VERTEX
8
CUT
10
77.9066
20
149.0749
0
VERTEX
8
CUT
10
77.3557
20
150.7067
0
VERTEX
8
CUT
10
77.2453
20
150.9796
0
VERTEX
8
CUT
10
77.1036
20
151.2376
0
VERTEX
8
CUT
10
76.1619
20
152.7358
0
VERTEX
8
CUT
10
76.0406
20
152.9115
0
VERTEX
8
CUT
10
75.9048
20
153.0763
0
VERTEX
8
CUT
10
75.3949
20
153.6438
0
VERTEX
8
CUT
10
75.2599
20
153.7828
0
VERTEX
8
CUT
10
75.1144
20
153.9110
0
VERTEX
8
CUT
10
72.3703
20
156.1468
0
VERTEX
8
CUT
10
72.2248
20
156.2717
0
VERTEX
8
CUT
10
72.1993
20
156.2947
0
VERTEX
8
CUT
10
71.9496
20
156.5447
0
VERTEX
8
CUT
10
71.7464
20
156.7949
0
VERTEX
8
CUT
10
71.5529
20
157.0905
0
VERTEX
8
CUT
10
71.5356
20
157.1201
0
VERTEX
8
CUT
10
71.4430
20
157.2886
0
VERTEX
8
CUT
10
71.3837
20
157.4032
0
VERTEX
8
CUT
10
71.3026
20
157.5702
0
VERTEX
8
CUT
10
71.2888
20
157.6004
0
VERTEX
8
CUT
10
71.1629
20
157.9176
0
VERTEX
8
CUT
10
71.0771
20
158.2169
0
VERTEX
8
CUT
10
71.0161
20
158.5527
0
VERTEX
8
CUT
10
71.0118
20
158.5856
0
VERTEX
8
CUT
10
70.9925
20
158.7672
0
VERTEX
8
CUT
10
70.9815
20
158.9781
0
VERTEX
8
CUT
10
70.9805
20
159.0162
0
VERTEX
8
CUT
10
70.9947
20
159.4434
0
VERTEX
8
CUT
10
70.9982
20
159.4814
0
VERTEX
8
CUT
10
71.0235
20
159.6937
0
VERTEX
8
CUT
10
71.0701
20
160.0075
0
VERTEX
8
CUT
10
71.0993
20
160.1777
0
VERTEX
8
CUT
10
71.1075
20
160.2192
0
VERTEX
8
CUT
10
71.1428
20
160.4621
0
VERTEX
8
CUT
10
71.1541
20
160.7072
0
VERTEX
8
CUT
10
71.1413
20
160.9522
0
VERTEX
8
CUT
10
71.1045
20
161.1948
0
VERTEX
8
CUT
10
71.0442
20
161.4327
0
VERTEX
8
CUT
10
70.9608
20
161.6635
0
VERTEX
8
CUT
10
70.8552
20
161.8849
0
VERTEX
8
CUT
10
70.7284
20
162.0950
0
VERTEX
8
CUT
10
70.5816
20
162.2917
0
VERTEX
8
CUT
10
70.4162
20
162.4729
0
VERTEX
8
CUT
10
70.2339
20
162.6372
0
VERTEX
8
CUT
10
70.0364
20
162.7827
0
VERTEX
8
CUT
10
69.8255
20
162.9082
0
VERTEX
8
CUT
10
69.6033
20
163.0124
0
VERTEX
8
CUT
10
69.3720
20
163.0943
0
VERTEX
8
CUT
10
69.1338
20
163.1531
0
VERTEX
8
CUT
10
68.8910
20
163.1884
0
VERTEX
8
CUT
10
68.6459
20
163.1996
0
VERTEX
8
CUT
10
68.4008
20
163.1867
0
VERTEX
8
CUT
10
68.1582
20
163.1499
0
VERTEX
8
CUT
10
67.9204
20
163.0895
0
VERTEX
8
CUT
10
65.9342
20
162.4798
0
VERTEX
8
CUT
10
65.7340
20
162.4089
0
VERTEX
8
CUT
10
65.5406
20
162.3213
0
VERTEX
8
CUT
10
62.5659
20
160.8186
0
VERTEX
8
CUT
10
62.3736
20
160.7106
0
VERTEX
8
CUT
10
62.1915
20
160.5860
0
VERTEX
8
CUT
10
60.4500
20
159.2776
0
VERTEX
8
CUT
10
60.1743
20
159.0370
0
VERTEX
8
CUT
10
57.7480
20
156.5844
0
VERTEX
8
CUT
10
57.6209
20
156.4459
0
VERTEX
8
CUT
10
57.5046
20
156.2982
0
VERTEX
8
CUT
10
54.9412
20
152.7793
0
VERTEX
8
CUT
10
54.7543
20
152.4806
0
VERTEX
8
CUT
10
53.9397
20
150.9479
0
VERTEX
8
CUT
10
53.8443
20
150.7474
0
VERTEX
8
CUT
10
53.7671
20
150.5393
0
VERTEX
8
CUT
10
52.7328
20
147.3197
0
VERTEX
8
CUT
10
52.6646
20
147.0606
0
VERTEX
8
CUT
10
52.6246
20
146.7957
0
VERTEX
8
CUT
10
52.5121
20
145.6327
0
VERTEX
8
CUT
10
52.5010
20
145.3407
0
VERTEX
8
CUT
10
52.5241
20
145.0495
0
VERTEX
8
CUT
10
52.7760
20
143.2282
0
SEQEND
0
ENDSEC
0
EOF
