0
SECTION
2
HEADER
9
$ACADVER
1
AC1009
9
$INSUNITS
70
4
0
ENDSEC
0
SECTION
2
TABLES
0
TABLE
2
LAYER
70
1
0
LAYER
2
CUT
70
0
62
7
6
CONTINUOUS
0
ENDTAB
0
ENDSEC
0
SECTION
2
ENTITIES
0
POLYLINE
8
CUT
66
1
70
1
10
0.0
20
0.0
30
0.0
0
VERTEX
8
CUT
10
1.6252
20
-0.0395
0
VERTEX
8
CUT
10
1.3944
20
0.0431
0
VERTEX
8
CUT
10
1.1729
20
0.1479
0
VERTEX
8
CUT
10
0.9627
20
0.2738
0
VERTEX
8
CUT
10
0.7659
20
0.4198
0
VERTEX
8
CUT
10
0.5844
20
0.5844
0
VERTEX
8
CUT
10
0.4198
20
0.7659
0
VERTEX
8
CUT
10
0.2738
20
0.9627
0
VERTEX
8
CUT
10
0.1479
20
1.1729
0
VERTEX
8
CUT
10
0.0431
20
1.3944
0
VERTEX
8
CUT
10
-0.0395
20
1.6252
0
VERTEX
8
CUT
10
-0.0990
20
1.8629
0
VERTEX
8
CUT
10
-0.1350
20
2.1053
0
VERTEX
8
CUT
10
-0.1500
20
2.4114
0
VERTEX
8
CUT
10
-0.1500
20
2.9270
0
VERTEX
8
CUT
10
-0.1500
20
297.0000
0
VERTEX
8
CUT
10
-0.1500
20
297.5886
0
VERTEX
8
CUT
10
-0.1350
20
297.8947
0
VERTEX
8
CUT
10
-0.0990
20
298.1371
0
VERTEX
8
CUT
10
-0.0395
20
298.3748
0
VERTEX
8
CUT
10
0.0431
20
298.6056
0
VERTEX
8
CUT
10
0.1479
20
298.8271
0
VERTEX
8
CUT
10
0.2738
20
299.0373
0
VERTEX
8
CUT
10
0.4198
20
299.2341
0
VERTEX
8
CUT
10
0.5844
20
299.4156
0
VERTEX
8
CUT
10
0.7659
20
299.5802
0
VERTEX
8
CUT
10
0.9627
20
299.7262
0
VERTEX
8
CUT
10
1.1729
20
299.8521
0
VERTEX
8
CUT
10
1.3944
20
299.9569
0
VERTEX
8
CUT
10
1.6252
20
300.0395
0
VERTEX
8
CUT
10
1.8629
20
300.0990
0
VERTEX
8
CUT
10
2.1053
20
300.1350
0
VERTEX
8
CUT
10
2.4114
20
300.1500
0
VERTEX
8
CUT
10
297.5872
20
300.1500
0
VERTEX
8
CUT
10
297.8933
20
300.1350
0
VERTEX
8
CUT
10
298.1357
20
300.0990
0
VERTEX
8
CUT
10
298.3734
20
300.0395
0
VERTEX
8
CUT
10
298.6041
20
299.9569
0
VERTEX
8
CUT
10
298.8256
20
299.8521
0
VERTEX
8
CUT
10
299.0358
20
299.7262
0
VERTEX
8
CUT
10
299.2326
20
299.5802
0
VERTEX
8
CUT
10
299.4142
20
299.4156
0
VERTEX
8
CUT
10
299.5787
20
299.2341
0
VERTEX
8
CUT
10
299.7247
20
299.0373
0
VERTEX
8
CUT
10
299.8507
20
298.8271
0
VERTEX
8
CUT
10
299.9554
20
298.6056
0
VERTEX
8
CUT
10
300.0380
20
298.3748
0
VERTEX
8
CUT
10
300.0975
20
298.1371
0
VERTEX
8
CUT
10
300.1335
20
297.8947
0
VERTEX
8
CUT
10
300.1485
20
297.5886
0
VERTEX
8
CUT
10
300.1485
20
297.0131
0
VERTEX
8
CUT
10
300.1485
20
2.4114
0
VERTEX
8
CUT
10
300.1339
20
2.1140
0
VERTEX
8
CUT
10
300.1297
20
2.0799
0
VERTEX
8
CUT
10
300.1020
20
1.8930
0
VERTEX
8
CUT
10
300.1003
20
1.8816
0
VERTEX
8
CUT
10
300.0990
20
1.8729
0
VERTEX
8
CUT
10
300.0988
20
1.8714
0
VERTEX
8
CUT
10
300.0917
20
1.8394
0
VERTEX
8
CUT
10
300.0401
20
1.6336
0
VERTEX
8
CUT
10
300.0302
20
1.6033
0
VERTEX
8
CUT
10
299.9584
20
1.4029
0
VERTEX
8
CUT
10
299.9456
20
1.3737
0
VERTEX
8
CUT
10
299.8932
20
1.2629
0
VERTEX
8
CUT
10
299.8922
20
1.2608
0
VERTEX
8
CUT
10
299.8547
20
1.1814
0
VERTEX
8
CUT
10
299.8388
20
1.1531
0
VERTEX
8
CUT
10
299.8380
20
1.1519
0
VERTEX
8
CUT
10
299.8352
20
1.1471
0
VERTEX
8
CUT
10
299.8173
20
1.1173
0
VERTEX
8
CUT
10
299.7299
20
0.9714
0
VERTEX
8
CUT
10
299.7105
20
0.9436
0
VERTEX
8
CUT
10
299.6986
20
0.9275
0
VERTEX
8
CUT
10
299.6934
20
0.9206
0
VERTEX
8
CUT
10
299.6729
20
0.8929
0
VERTEX
8
CUT
10
299.5852
20
0.7747
0
VERTEX
8
CUT
10
299.5620
20
0.7475
0
VERTEX
8
CUT
10
299.5181
20
0.6991
0
VERTEX
8
CUT
10
299.5145
20
0.6951
0
VERTEX
8
CUT
10
299.4969
20
0.6757
0
VERTEX
8
CUT
10
299.4223
20
0.5933
0
VERTEX
8
CUT
10
299.3946
20
0.5666
0
VERTEX
8
CUT
10
299.3171
20
0.4964
0
VERTEX
8
CUT
10
299.3158
20
0.4953
0
VERTEX
8
CUT
10
299.3012
20
0.4820
0
VERTEX
8
CUT
10
299.2426
20
0.4289
0
VERTEX
8
CUT
10
299.2098
20
0.4029
0
VERTEX
8
CUT
10
299.0526
20
0.2863
0
VERTEX
8
CUT
10
299.0501
20
0.2845
0
VERTEX
8
CUT
10
299.0480
20
0.2829
0
VERTEX
8
CUT
10
299.0479
20
0.2828
0
VERTEX
8
CUT
10
299.0096
20
0.2581
0
VERTEX
8
CUT
10
298.9887
20
0.2456
0
VERTEX
8
CUT
10
298.9747
20
0.2372
0
VERTEX
8
CUT
10
298.9376
20
0.2150
0
VERTEX
8
CUT
10
298.8402
20
0.1566
0
VERTEX
8
CUT
10
298.7957
20
0.1337
0
VERTEX
8
CUT
10
298.6213
20
0.0513
0
VERTEX
8
CUT
10
298.5703
20
0.0310
0
VERTEX
8
CUT
10
298.3936
20
-0.0322
0
VERTEX
8
CUT
10
298.3357
20
-0.0489
0
VERTEX
8
CUT
10
298.3186
20
-0.0532
0
VERTEX
8
CUT
10
298.2281
20
-0.0759
0
VERTEX
8
CUT
10
298.2192
20
-0.0781
0
VERTEX
8
CUT
10
298.1590
20
-0.0932
0
VERTEX
8
CUT
10
298.0942
20
-0.1052
0
VERTEX
8
CUT
10
297.9198
20
-0.1310
0
VERTEX
8
CUT
10
297.8482
20
-0.1372
0
VERTEX
8
CUT
10
297.5872
20
-0.1500
0
VERTEX
8
CUT
10
297.0112
20
-0.1500
0
VERTEX
8
CUT
10
2.9618
20
-0.1500
0
VERTEX
8
CUT
10
2.4114
20
-0.1500
0
VERTEX
8
CUT
10
2.1053
20
-0.1350
0
VERTEX
8
CUT
10
1.8629
20
-0.0990
0
SEQEND
0
POLYLINE
8
CUT
66
1
70
1
10
0.0
20
0.0
30
0.0
0
VERTEX
8
CUT
10
257.7883
20
129.2339
0
VERTEX
8
CUT
10
257.8291
20
128.9538
0
VERTEX
8
CUT
10
257.9014
20
128.6802
0
VERTEX
8
CUT
10
258.0040
20
128.4165
0
VERTEX
8
CUT
10
258.6774
20
126.9404
0
VERTEX
8
CUT
10
258.8014
20
126.7031
0
VERTEX
8
CUT
10
258.9500
20
126.4804
0
VERTEX
8
CUT
10
259.1216
20
126.2750
0
VERTEX
8
CUT
10
259.7224
20
125.6292
0
VERTEX
8
CUT
10
259.9283
20
125.4318
0
VERTEX
8
CUT
10
260.1553
20
125.2592
0
VERTEX
8
CUT
10
261.3080
20
124.4821
0
VERTEX
8
CUT
10
261.5084
20
124.3603
0
VERTEX
8
CUT
10
261.7194
20
124.2578
0
VERTEX
8
CUT
10
262.7421
20
123.8188
0
VERTEX
8
CUT
10
262.9339
20
123.7457
0
VERTEX
8
CUT
10
263.1311
20
123.6885
0
VERTEX
8
CUT
10
263.3322
20
123.6477
0
VERTEX
8
CUT
10
264.3050
20
123.4917
0
VERTEX
8
CUT
10
264.5212
20
123.4666
0
VERTEX
8
CUT
10
264.7388
20
123.4605
0
VERTEX
8
CUT
10
264.9561
20
123.4732
0
VERTEX
8
CUT
10
266.0064
20
123.5810
0
VERTEX
8
CUT
10
266.2296
20
123.6141
0
VERTEX
8
CUT
10
266.4489
20
123.6673
0
VERTEX
8
CUT
10
267.4760
20
123.9658
0
VERTEX
8
CUT
10
267.7135
20
124.0480
0
VERTEX
8
CUT
10
267.9415
20
124.1536
0
VERTEX
8
CUT
10
268.1578
20
124.2815
0
VERTEX
8
CUT
10
269.0281
20
124.8573
0
VERTEX
8
CUT
10
269.2267
20
125.0033
0
VERTEX
8
CUT
10
269.4099
20
125.1681
0
VERTEX
8
CUT
10
269.5760
20
125.3502
0
VERTEX
8
CUT
10
269.7234
20
125.5477
0
VERTEX
8
CUT
10
269.8507
20
125.7588
0
VERTEX
8
CUT
10
269.9565
20
125.9814
0
VERTEX
8
CUT
10
270.0399
20
126.2133
0
VERTEX
8
CUT
10
270.1000
20
126.4523
0
VERTEX
8
CUT
10
270.1364
20
126.6961
0
VERTEX
8
CUT
10
270.1485
20
126.9423
0
VERTEX
8
CUT
10
270.1485
20
135.2420
0
VERTEX
8
CUT
10
270.1370
20
135.4814
0
VERTEX
8
CUT
10
270.1027
20
135.7186
0
VERTEX
8
CUT
10
270.0457
20
135.9514
0
VERTEX
8
CUT
10
269.9668
20
136.1777
0
VERTEX
8
CUT
10
269.8665
20
136.3954
0
VERTEX
8
CUT
10
269.7459
20
136.6025
0
VERTEX
8
CUT
10
269.6059
20
136.7971
0
VERTEX
8
CUT
10
269.4480
20
136.9774
0
VERTEX
8
CUT
10
269.2735
20
137.1418
0
VERTEX
8
CUT
10
269.0841
20
137.2887
0
VERTEX
8
CUT
10
268.5715
20
137.6482
0
VERTEX
8
CUT
10
268.3820
20
137.7688
0
VERTEX
8
CUT
10
268.1824
20
137.8719
0
VERTEX
8
CUT
10
267.9744
20
137.9567
0
VERTEX
8
CUT
10
266.8425
20
138.3597
0
VERTEX
8
CUT
10
266.6414
20
138.4219
0
VERTEX
8
CUT
10
266.4357
20
138.4669
0
VERTEX
8
CUT
10
266.2270
20
138.4945
0
VERTEX
8
CUT
10
265.0236
20
138.6023
0
VERTEX
8
CUT
10
264.8137
20
138.6122
0
VERTEX
8
CUT
10
264.6037
20
138.6045
0
VERTEX
8
CUT
10
264.3951
20
138.5792
0
VERTEX
8
CUT
10
263.1800
20
138.3794
0
VERTEX
8
CUT
10
262.9742
20
138.3366
0
VERTEX
8
CUT
10
262.7726
20
138.2766
0
VERTEX
8
CUT
10
262.5768
20
138.2000
0
VERTEX
8
CUT
10
261.4566
20
137.7059
0
VERTEX
8
CUT
10
261.2536
20
137.6052
0
VERTEX
8
CUT
10
261.0606
20
137.4865
0
VERTEX
8
CUT
10
260.8792
20
137.3508
0
VERTEX
8
CUT
10
259.8826
20
136.5327
0
VERTEX
8
CUT
10
259.7197
20
136.3867
0
VERTEX
8
CUT
10
259.5703
20
136.2270
0
VERTEX
8
CUT
10
259.4354
20
136.0548
0
VERTEX
8
CUT
10
258.4693
20
134.7041
0
VERTEX
8
CUT
10
258.3420
20
134.5073
0
VERTEX
8
CUT
10
258.2337
20
134.2994
0
VERTEX
8
CUT
10
257.8121
20
133.3880
0
VERTEX
8
CUT
10
257.7060
20
133.1190
0
VERTEX
8
CUT
10
257.6318
20
132.8394
0
VERTEX
8
CUT
10
257.5916
20
132.6431
0
VERTEX
8
CUT
10
257.5547
20
132.4044
0
VERTEX
8
CUT
10
257.5410
20
132.1632
0
VERTEX
8
CUT
10
257.5506
20
131.9219
0
SEQEND
0
POLYLINE
8
CUT
66
1
70
1
10
0.0
20
0.0
30
0.0
0
VERTEX
8
CUT
10
256.2021
20
194.1426
0
VERTEX
8
CUT
10
256.2494
20
193.9275
0
VERTEX
8
CUT
10
256.3154
20
193.7174
0
VERTEX
8
CUT
10
256.8706
20
192.1897
0
VERTEX
8
CUT
10
256.9822
20
191.9294
0
VERTEX
8
CUT
10
257.1226
20
191.6835
0
VERTEX
8
CUT
10
257.4851
20
191.1244
0
VERTEX
8
CUT
10
257.6207
20
190.9352
0
VERTEX
8
CUT
10
257.7732
20
190.7595
0
VERTEX
8
CUT
10
258.3718
20
190.1316
0
VERTEX
8
CUT
10
258.5226
20
189.9861
0
VERTEX
8
CUT
10
258.6852
20
189.8537
0
VERTEX
8
CUT
10
258.8582
20
189.7354
0
VERTEX
8
CUT
10
260.5402
20
188.6863
0
VERTEX
8
CUT
10
260.7315
20
188.5784
0
VERTEX
8
CUT
10
260.9314
20
188.4877
0
VERTEX
8
CUT
10
261.1386
20
188.4148
0
VERTEX
8
CUT
10
261.3513
20
188.3605
0
VERTEX
8
CUT
10
263.3727
20
187.9375
0
VERTEX
8
CUT
10
263.5746
20
187.9038
0
VERTEX
8
CUT
10
263.7786
20
187.8868
0
VERTEX
8
CUT
10
263.9833
20
187.8865
0
VERTEX
8
CUT
10
264.8673
20
187.9214
0
VERTEX
8
CUT
10
265.0972
20
187.9411
0
VERTEX
8
CUT
10
265.3243
20
187.9819
0
VERTEX
8
CUT
10
266.2796
20
188.1997
0
VERTEX
8
CUT
10
266.4979
20
188.2600
0
VERTEX
8
CUT
10
266.7099
20
188.3398
0
VERTEX
8
CUT
10
267.5543
20
188.7021
0
VERTEX
8
CUT
10
267.8014
20
188.8247
0
VERTEX
8
CUT
10
268.0335
20
188.9738
0
VERTEX
8
CUT
10
269.1136
20
189.7550
0
VERTEX
8
CUT
10
269.2982
20
189.9022
0
VERTEX
8
CUT
10
269.4680
20
190.0662
0
VERTEX
8
CUT
10
269.6216
20
190.2455
0
VERTEX
8
CUT
10
269.7576
20
190.4384
0
VERTEX
8
CUT
10
269.8748
20
190.6433
0
VERTEX
8
CUT
10
269.9722
20
190.8584
0
VERTEX
8
CUT
10
270.0488
20
191.0817
0
VERTEX
8
CUT
10
270.1040
20
191.3112
0
VERTEX
8
CUT
10
270.1374
20
191.5449
0
VERTEX
8
CUT
10
270.1485
20
191.7807
0
VERTEX
8
CUT
10
270.1485
20
200.3233
0
VERTEX
8
CUT
10
270.1366
20
200.5671
0
VERTEX
8
CUT
10
270.1010
20
200.8086
0
VERTEX
8
CUT
10
270.0420
20
201.0454
0
VERTEX
8
CUT
10
269.9601
20
201.2754
0
VERTEX
8
CUT
10
269.8563
20
201.4963
0
VERTEX
8
CUT
10
269.7314
20
201.7060
0
VERTEX
8
CUT
10
269.5866
20
201.9025
0
VERTEX
8
CUT
10
269.4234
20
202.0840
0
VERTEX
8
CUT
10
269.2432
20
202.2487
0
VERTEX
8
CUT
10
269.0478
20
202.3950
0
VERTEX
8
CUT
10
267.7684
20
203.2592
0
VERTEX
8
CUT
10
267.5545
20
203.3886
0
VERTEX
8
CUT
10
267.3287
20
203.4960
0
VERTEX
8
CUT
10
266.5367
20
203.8252
0
VERTEX
8
CUT
10
266.2887
20
203.9133
0
VERTEX
8
CUT
10
266.0327
20
203.9749
0
VERTEX
8
CUT
10
265.3409
20
204.1031
0
VERTEX
8
CUT
10
265.0852
20
204.1370
0
VERTEX
8
CUT
10
264.8274
20
204.1443
0
VERTEX
8
CUT
10
263.0347
20
204.1028
0
VERTEX
8
CUT
10
262.8189
20
204.0884
0
VERTEX
8
CUT
10
262.6052
20
204.0555
0
VERTEX
8
CUT
10
261.8917
20
203.9137
0
VERTEX
8
CUT
10
261.6541
20
203.8542
0
VERTEX
8
CUT
10
261.4234
20
203.7717
0
VERTEX
8
CUT
10
260.0153
20
203.1891
0
VERTEX
8
CUT
10
259.7492
20
203.0601
0
VERTEX
8
CUT
10
259.5003
20
202.9006
0
VERTEX
8
CUT
10
259.1241
20
202.6269
0
VERTEX
8
CUT
10
258.9026
20
202.4455
0
VERTEX
8
CUT
10
258.7033
20
202.2400
0
VERTEX
8
CUT
10
257.6624
20
201.0355
0
VERTEX
8
CUT
10
257.5116
20
200.8428
0
VERTEX
8
CUT
10
257.3805
20
200.6362
0
VERTEX
8
CUT
10
257.0078
20
199.9806
0
VERTEX
8
CUT
10
256.8997
20
199.7674
0
VERTEX
8
CUT
10
256.8125
20
199.5448
0
VERTEX
8
CUT
10
256.2232
20
197.7992
0
VERTEX
8
CUT
10
256.1549
20
197.5575
0
VERTEX
8
CUT
10
256.1112
20
197.3102
0
VERTEX
8
CUT
10
256.0326
20
196.6825
0
VERTEX
8
CUT
10
256.0137
20
196.4223
0
VERTEX
8
CUT
10
256.0220
20
196.1616
0
VERTEX
8
CUT
10
256.1739
20
194.3611
0
SEQEND
0
POLYLINE
8
CUT
66
1
70
1
10
0.0
20
0.0
30
0.0
0
VERTEX
8
CUT
10
249.9558
20
92.5758
0
VERTEX
8
CUT
10
250.0264
20
91.7989
0
VERTEX
8
CUT
10
250.0569
20
91.5756
0
VERTEX
8
CUT
10
250.1074
20
91.3560
0
VERTEX
8
CUT
10
250.1775
20
91.1418
0
VERTEX
8
CUT
10
250.2665
20
90.9348
0
VERTEX
8
CUT
10
250.6884
20
90.0645
0
VERTEX
8
CUT
10
250.8173
20
89.8313
0
VERTEX
8
CUT
10
250.9702
20
89.6130
0
VERTEX
8
CUT
10
251.1456
20
89.4123
0
VERTEX
8
CUT
10
251.2598
20
89.2948
0
VERTEX
8
CUT
10
251.4476
20
89.1205
0
VERTEX
8
CUT
10
251.6522
20
88.9663
0
VERTEX
8
CUT
10
251.8716
20
88.8339
0
VERTEX
8
CUT
10
252.1033
20
88.7247
0
VERTEX
8
CUT
10
252.7844
20
88.4452
0
VERTEX
8
CUT
10
253.0170
20
88.3630
0
VERTEX
8
CUT
10
253.2565
20
88.3041
0
VERTEX
8
CUT
10
253.5006
20
88.2690
0
VERTEX
8
CUT
10
253.7470
20
88.2582
0
VERTEX
8
CUT
10
254.7588
20
88.2637
0
VERTEX
8
CUT
10
255.0158
20
88.2784
0
VERTEX
8
CUT
10
255.2700
20
88.3194
0
VERTEX
8
CUT
10
255.5186
20
88.3864
0
VERTEX
8
CUT
10
255.7611
20
88.4653
0
VERTEX
8
CUT
10
256.0361
20
88.5731
0
VERTEX
8
CUT
10
256.2965
20
88.7126
0
VERTEX
8
CUT
10
256.5610
20
88.8752
0
VERTEX
8
CUT
10
256.7393
20
88.9956
0
VERTEX
8
CUT
10
256.9067
20
89.1310
0
VERTEX
8
CUT
10
257.0617
20
89.2802
0
VERTEX
8
CUT
10
257.2034
20
89.4423
0
VERTEX
8
CUT
10
257.6524
20
90.0029
0
VERTEX
8
CUT
10
257.8112
20
90.2249
0
VERTEX
8
CUT
10
257.9447
20
90.4629
0
VERTEX
8
CUT
10
258.0516
20
90.7141
0
VERTEX
8
CUT
10
258.1304
20
90.9753
0
VERTEX
8
CUT
10
258.2354
20
91.4074
0
VERTEX
8
CUT
10
258.2427
20
91.4240
0
VERTEX
8
CUT
10
258.3147
20
91.6429
0
VERTEX
8
CUT
10
258.3663
20
91.8674
0
VERTEX
8
CUT
10
258.3970
20
92.0958
0
VERTEX
8
CUT
10
258.4458
20
92.6511
0
VERTEX
8
CUT
10
258.4551
20
92.9033
0
VERTEX
8
CUT
10
258.4390
20
93.1551
0
VERTEX
8
CUT
10
258.3976
20
93.4040
0
VERTEX
8
CUT
10
258.3313
20
93.6475
0
VERTEX
8
CUT
10
258.1719
20
94.1343
0
VERTEX
8
CUT
10
258.0799
20
94.3732
0
VERTEX
8
CUT
10
257.9640
20
94.6015
0
VERTEX
8
CUT
10
257.8253
20
94.8167
0
VERTEX
8
CUT
10
257.8194
20
94.8241
0
VERTEX
8
CUT
10
257.7636
20
94.9309
0
VERTEX
8
CUT
10
257.6457
20
95.1153
0
VERTEX
8
CUT
10
257.5121
20
95.2887
0
VERTEX
8
CUT
10
257.2779
20
95.5666
0
VERTEX
8
CUT
10
257.1348
20
95.7226
0
VERTEX
8
CUT
10
256.9789
20
95.8658
0
VERTEX
8
CUT
10
256.8116
20
95.9954
0
VERTEX
8
CUT
10
256.4769
20
96.2326
0
VERTEX
8
CUT
10
256.2410
20
96.3807
0
VERTEX
8
CUT
10
255.9901
20
96.5017
0
VERTEX
8
CUT
10
255.5682
20
96.6768
0
VERTEX
8
CUT
10
255.3560
20
96.7539
0
VERTEX
8
CUT
10
255.1377
20
96.8115
0
VERTEX
8
CUT
10
254.9150
20
96.8492
0
VERTEX
8
CUT
10
254.7820
20
96.8655
0
VERTEX
8
CUT
10
254.7546
20
96.8711
0
VERTEX
8
CUT
10
254.6282
20
96.8845
0
VERTEX
8
CUT
10
254.5489
20
96.8942
0
VERTEX
8
CUT
10
254.2436
20
96.9129
0
VERTEX
8
CUT
10
253.9383
20
96.8942
0
VERTEX
8
CUT
10
253.4292
20
96.8316
0
VERTEX
8
CUT
10
253.1498
20
96.7810
0
VERTEX
8
CUT
10
252.8779
20
96.6990
0
VERTEX
8
CUT
10
252.3296
20
96.4990
0
VERTEX
8
CUT
10
252.0503
20
96.3774
0
VERTEX
8
CUT
10
251.7879
20
96.2227
0
VERTEX
8
CUT
10
251.7025
20
96.1651
0
VERTEX
8
CUT
10
251.4916
20
96.0059
0
VERTEX
8
CUT
10
251.2986
20
95.8254
0
VERTEX
8
CUT
10
251.1258
20
95.6254
0
VERTEX
8
CUT
10
250.6801
20
95.0512
0
VERTEX
8
CUT
10
250.5453
20
94.8595
0
VERTEX
8
CUT
10
250.4290
20
94.6560
0
VERTEX
8
CUT
10
250.3322
20
94.4425
0
VERTEX
8
CUT
10
250.2559
20
94.2209
0
VERTEX
8
CUT
10
250.0462
20
93.5047
0
VERTEX
8
CUT
10
249.9909
20
93.2767
0
VERTEX
8
CUT
10
249.9573
20
93.0445
0
VERTEX
8
CUT
10
249.9455
20
92.8102
0
SEQEND
0
POLYLINE
8
CUT
66
1
70
1
10
0.0
20
0.0
30
0.0
0
VERTEX
8
CUT
10
246.1084
20
240.9029
0
VERTEX
8
CUT
10
246.0195
20
240.5461
0
VERTEX
8
CUT
10
245.9715
20
240.3025
0
VERTEX
8
CUT
10
245.9479
20
240.0553
0
VERTEX
8
CUT
10
245.9489
20
239.8070
0
VERTEX
8
CUT
10
246.0057
20
238.7551
0
VERTEX
8
CUT
10
246.0336
20
238.4939
0
VERTEX
8
CUT
10
246.0888
20
238.2370
0
VERTEX
8
CUT
10
246.1706
20
237.9873
0
VERTEX
8
CUT
10
246.2782
20
237.7475
0
VERTEX
8
CUT
10
246.4390
20
237.4347
0
VERTEX
8
CUT
10
246.5576
20
237.2285
0
VERTEX
8
CUT
10
246.6952
20
237.0346
0
VERTEX
8
CUT
10
246.8507
20
236.8546
0
VERTEX
8
CUT
10
247.0225
20
236.6902
0
VERTEX
8
CUT
10
247.2092
20
236.5429
0
VERTEX
8
CUT
10
247.9125
20
236.0403
0
VERTEX
8
CUT
10
248.1449
20
235.8929
0
VERTEX
8
CUT
10
248.3921
20
235.7718
0
VERTEX
8
CUT
10
249.0248
20
235.5042
0
VERTEX
8
CUT
10
249.2594
20
235.4185
0
VERTEX
8
CUT
10
249.5015
20
235.3566
0
VERTEX
8
CUT
10
249.7485
20
235.3192
0
VERTEX
8
CUT
10
249.9980
20
235.3067
0
VERTEX
8
CUT
10
250.2475
20
235.3191
0
VERTEX
8
CUT
10
250.4945
20
235.3563
0
VERTEX
8
CUT
10
250.7366
20
235.4180
0
VERTEX
8
CUT
10
250.9713
20
235.5036
0
VERTEX
8
CUT
10
251.1963
20
235.6121
0
VERTEX
8
CUT
10
252.0690
20
236.0883
0
VERTEX
8
CUT
10
252.2662
20
236.2081
0
VERTEX
8
CUT
10
252.4515
20
236.3454
0
VERTEX
8
CUT
10
252.6233
20
236.4993
0
VERTEX
8
CUT
10
252.7803
20
236.6683
0
VERTEX
8
CUT
10
253.2649
20
237.2413
0
VERTEX
8
CUT
10
253.4167
20
237.4401
0
VERTEX
8
CUT
10
253.5479
20
237.6532
0
VERTEX
8
CUT
10
253.6571
20
237.8782
0
VERTEX
8
CUT
10
253.7433
20
238.1131
0
VERTEX
8
CUT
10
253.9842
20
238.8875
0
VERTEX
8
CUT
10
254.0471
20
239.1326
0
VERTEX
8
CUT
10
254.0848
20
239.3828
0
VERTEX
8
CUT
10
254.0971
20
239.6355
0
VERTEX
8
CUT
10
254.0970
20
239.6915
0
VERTEX
8
CUT
10
254.0864
20
239.9159
0
VERTEX
8
CUT
10
254.0557
20
240.1384
0
VERTEX
8
CUT
10
254.0052
20
240.3573
0
VERTEX
8
CUT
10
253.9353
20
240.5707
0
VERTEX
8
CUT
10
253.6596
20
241.2996
0
VERTEX
8
CUT
10
253.5492
20
241.5493
0
VERTEX
8
CUT
10
253.4123
20
241.7854
0
VERTEX
8
CUT
10
253.2504
20
242.0052
0
VERTEX
8
CUT
10
252.9242
20
242.4010
0
VERTEX
8
CUT
10
252.7377
20
242.6034
0
VERTEX
8
CUT
10
252.5300
20
242.7841
0
VERTEX
8
CUT
10
252.1913
20
243.0476
0
VERTEX
8
CUT
10
252.0244
20
243.1668
0
VERTEX
8
CUT
10
251.8482
20
243.2719
0
VERTEX
8
CUT
10
251.6641
20
243.3623
0
VERTEX
8
CUT
10
251.2437
20
243.5474
0
VERTEX
8
CUT
10
251.0445
20
243.6251
0
VERTEX
8
CUT
10
250.8395
20
243.6856
0
VERTEX
8
CUT
10
250.6300
20
243.7283
0
VERTEX
8
CUT
10
250.3574
20
243.7718
0
VERTEX
8
CUT
10
250.1324
20
243.7973
0
VERTEX
8
CUT
10
249.9059
20
243.8024
0
VERTEX
8
CUT
10
249.6799
20
243.7869
0
VERTEX
8
CUT
10
249.4580
20
243.7616
0
VERTEX
8
CUT
10
249.2412
20
243.7271
0
VERTEX
8
CUT
10
249.0282
20
243.6738
0
VERTEX
8
CUT
10
248.8208
20
243.6020
0
VERTEX
8
CUT
10
248.4415
20
243.4518
0
VERTEX
8
CUT
10
248.1792
20
243.3299
0
VERTEX
8
CUT
10
247.9328
20
243.1785
0
VERTEX
8
CUT
10
247.5695
20
242.9254
0
VERTEX
8
CUT
10
247.3826
20
242.7815
0
VERTEX
8
CUT
10
247.2100
20
242.6207
0
VERTEX
8
CUT
10
247.0533
20
242.4443
0
VERTEX
8
CUT
10
246.5886
20
241.8684
0
VERTEX
8
CUT
10
246.4298
20
241.6481
0
VERTEX
8
CUT
10
246.2958
20
241.4118
0
VERTEX
8
CUT
10
246.1882
20
241.1624
0
SEQEND
0
POLYLINE
8
CUT
66
1
70
1
10
0.0
20
0.0
30
0.0
0
VERTEX
8
CUT
10
245.6791
20
165.0571
0
VERTEX
8
CUT
10
245.7507
20
164.9358
0
VERTEX
8
CUT
10
245.8892
20
164.7262
0
VERTEX
8
CUT
10
246.0480
20
164.5315
0
VERTEX
8
CUT
10
246.2256
20
164.3537
0
VERTEX
8
CUT
10
246.4201
20
164.1947
0
VERTEX
8
CUT
10
246.6296
20
164.0560
0
VERTEX
8
CUT
10
246.8520
20
163.9390
0
VERTEX
8
CUT
10
247.0850
20
163.8449
0
VERTEX
8
CUT
10
247.3262
20
163.7747
0
VERTEX
8
CUT
10
247.8574
20
163.6487
0
VERTEX
8
CUT
10
248.0944
20
163.6044
0
VERTEX
8
CUT
10
248.3346
20
163.5832
0
VERTEX
8
CUT
10
248.5757
20
163.5852
0
VERTEX
8
CUT
10
248.8155
20
163.6104
0
VERTEX
8
CUT
10
249.0517
20
163.6586
0
VERTEX
8
CUT
10
249.2822
20
163.7293
0
VERTEX
8
CUT
10
249.5048
20
163.8219
0
VERTEX
8
CUT
10
249.7175
20
163.9356
0
VERTEX
8
CUT
10
249.9182
20
164.0692
0
VERTEX
8
CUT
10
250.1052
20
164.2215
0
VERTEX
8
CUT
10
250.3464
20
164.4382
0
VERTEX
8
CUT
10
250.5233
20
164.6138
0
VERTEX
8
CUT
10
250.6818
20
164.8061
0
VERTEX
8
CUT
10
250.8204
20
165.0133
0
VERTEX
8
CUT
10
250.9376
20
165.2332
0
VERTEX
8
CUT
10
251.0324
20
165.4637
0
VERTEX
8
CUT
10
251.1037
20
165.7025
0
VERTEX
8
CUT
10
251.1510
20
165.9473
0
VERTEX
8
CUT
10
251.1574
20
165.9925
0
VERTEX
8
CUT
10
251.1793
20
166.2261
0
VERTEX
8
CUT
10
251.1793
20
166.4607
0
VERTEX
8
CUT
10
251.1573
20
166.6943
0
VERTEX
8
CUT
10
251.0860
20
167.1969
0
VERTEX
8
CUT
10
251.0405
20
167.4344
0
VERTEX
8
CUT
10
250.9723
20
167.6664
0
VERTEX
8
CUT
10
250.8819
20
167.8908
0
VERTEX
8
CUT
10
250.7635
20
168.1481
0
VERTEX
8
CUT
10
250.6498
20
168.3664
0
VERTEX
8
CUT
10
250.5151
20
168.5724
0
VERTEX
8
CUT
10
250.3608
20
168.7642
0
VERTEX
8
CUT
10
250.3157
20
168.8149
0
VERTEX
8
CUT
10
250.1382
20
168.9953
0
VERTEX
8
CUT
10
249.9434
20
169.1568
0
VERTEX
8
CUT
10
249.7332
20
169.2978
0
VERTEX
8
CUT
10
249.7282
20
169.3008
0
VERTEX
8
CUT
10
249.4790
20
169.4317
0
VERTEX
8
CUT
10
249.2168
20
169.5338
0
VERTEX
8
CUT
10
248.9447
20
169.6058
0
VERTEX
8
CUT
10
248.9083
20
169.6133
0
VERTEX
8
CUT
10
248.6945
20
169.6475
0
VERTEX
8
CUT
10
248.4785
20
169.6632
0
VERTEX
8
CUT
10
248.2620
20
169.6601
0
VERTEX
8
CUT
10
248.0466
20
169.6383
0
VERTEX
8
CUT
10
247.9353
20
169.6221
0
VERTEX
8
CUT
10
247.6893
20
169.5736
0
VERTEX
8
CUT
10
247.4493
20
169.5008
0
VERTEX
8
CUT
10
247.2179
20
169.4043
0
VERTEX
8
CUT
10
247.0757
20
169.3364
0
VERTEX
8
CUT
10
246.8795
20
169.2318
0
VERTEX
8
CUT
10
246.6933
20
169.1102
0
VERTEX
8
CUT
10
246.5187
20
168.9725
0
VERTEX
8
CUT
10
246.3570
20
168.8198
0
VERTEX
8
CUT
10
245.9980
20
168.4493
0
VERTEX
8
CUT
10
245.8410
20
168.2711
0
VERTEX
8
CUT
10
245.7016
20
168.0787
0
VERTEX
8
CUT
10
245.5811
20
167.8739
0
VERTEX
8
CUT
10
245.4806
20
167.6587
0
VERTEX
8
CUT
10
245.4009
20
167.4349
0
VERTEX
8
CUT
10
245.3914
20
167.4035
0
VERTEX
8
CUT
10
245.3275
20
167.1428
0
VERTEX
8
CUT
10
245.2918
20
166.8767
0
VERTEX
8
CUT
10
245.2849
20
166.6083
0
VERTEX
8
CUT
10
245.3068
20
166.3407
0
VERTEX
8
CUT
10
245.3545
20
165.9909
0
VERTEX
8
CUT
10
245.4003
20
165.7465
0
VERTEX
8
CUT
10
245.4702
20
165.5078
0
VERTEX
8
CUT
10
245.5634
20
165.2772
0
SEQEND
0
POLYLINE
8
CUT
66
1
70
1
10
0.0
20
0.0
30
0.0
0
VERTEX
8
CUT
10
234.9620
20
36.4981
0
VERTEX
8
CUT
10
235.0452
20
36.2104
0
VERTEX
8
CUT
10
235.1622
20
35.9347
0
VERTEX
8
CUT
10
235.4208
20
35.4144
0
VERTEX
8
CUT
10
235.5665
20
35.1600
0
VERTEX
8
CUT
10
235.7410
20
34.9243
0
VERTEX
8
CUT
10
236.2333
20
34.3351
0
VERTEX
8
CUT
10
236.3896
20
34.1647
0
VERTEX
8
CUT
10
236.5610
20
34.0095
0
VERTEX
8
CUT
10
236.7460
20
33.8707
0
VERTEX
8
CUT
10
237.6145
20
33.2801
0
VERTEX
8
CUT
10
237.8111
20
33.1593
0
VERTEX
8
CUT
10
238.0180
20
33.0572
0
VERTEX
8
CUT
10
238.2335
20
32.9745
0
VERTEX
8
CUT
10
238.4556
20
32.9121
0
VERTEX
8
CUT
10
238.9035
20
32.8082
0
VERTEX
8
CUT
10
239.1331
20
32.7662
0
VERTEX
8
CUT
10
239.3656
20
32.7457
0
VERTEX
8
CUT
10
240.2559
20
32.7092
0
VERTEX
8
CUT
10
240.5324
20
32.7131
0
VERTEX
8
CUT
10
240.8068
20
32.7476
0
VERTEX
8
CUT
10
241.5063
20
32.8751
0
VERTEX
8
CUT
10
241.7488
20
32.9319
0
VERTEX
8
CUT
10
241.9843
20
33.0126
0
VERTEX
8
CUT
10
242.2107
20
33.1162
0
VERTEX
8
CUT
10
242.4256
20
33.2419
0
VERTEX
8
CUT
10
242.6270
20
33.3883
0
VERTEX
8
CUT
10
243.4495
20
34.0514
0
VERTEX
8
CUT
10
243.6283
20
34.2102
0
VERTEX
8
CUT
10
243.7911
20
34.3854
0
VERTEX
8
CUT
10
243.9364
20
34.5753
0
VERTEX
8
CUT
10
244.0628
20
34.7782
0
VERTEX
8
CUT
10
244.6459
20
35.8217
0
VERTEX
8
CUT
10
244.7487
20
36.0272
0
VERTEX
8
CUT
10
244.8321
20
36.2413
0
VERTEX
8
CUT
10
244.8956
20
36.4622
0
VERTEX
8
CUT
10
244.9385
20
36.6879
0
VERTEX
8
CUT
10
245.1034
20
37.8430
0
VERTEX
8
CUT
10
245.1263
20
38.0915
0
VERTEX
8
CUT
10
245.1243
20
38.3411
0
VERTEX
8
CUT
10
245.0974
20
38.5892
0
VERTEX
8
CUT
10
245.0459
20
38.8334
0
VERTEX
8
CUT
10
244.7709
20
39.8770
0
VERTEX
8
CUT
10
244.6969
20
40.1105
0
VERTEX
8
CUT
10
244.6005
20
40.3357
0
VERTEX
8
CUT
10
244.4824
20
40.5503
0
VERTEX
8
CUT
10
244.3440
20
40.7524
0
VERTEX
8
CUT
10
244.0379
20
41.1552
0
VERTEX
8
CUT
10
243.8771
20
41.3462
0
VERTEX
8
CUT
10
243.6980
20
41.5203
0
VERTEX
8
CUT
10
243.5024
20
41.6756
0
VERTEX
8
CUT
10
242.2553
20
42.5682
0
VERTEX
8
CUT
10
242.0155
20
42.7200
0
VERTEX
8
CUT
10
241.7600
20
42.8436
0
VERTEX
8
CUT
10
241.4922
20
42.9376
0
VERTEX
8
CUT
10
240.5531
20
43.2080
0
VERTEX
8
CUT
10
240.3118
20
43.2647
0
VERTEX
8
CUT
10
240.0661
20
43.2972
0
VERTEX
8
CUT
10
239.8184
20
43.3053
0
VERTEX
8
CUT
10
239.5711
20
43.2887
0
VERTEX
8
CUT
10
239.3266
20
43.2478
0
VERTEX
8
CUT
10
239.0874
20
43.1829
0
VERTEX
8
CUT
10
238.8559
20
43.0946
0
VERTEX
8
CUT
10
237.8423
20
42.6493
0
VERTEX
8
CUT
10
237.5993
20
42.5264
0
VERTEX
8
CUT
10
237.3712
20
42.3778
0
VERTEX
8
CUT
10
237.1606
20
42.2053
0
VERTEX
8
CUT
10
236.0632
20
41.2018
0
VERTEX
8
CUT
10
235.8765
20
41.0119
0
VERTEX
8
CUT
10
235.7111
20
40.8032
0
VERTEX
8
CUT
10
235.5689
20
40.5782
0
VERTEX
8
CUT
10
235.2462
20
40.0017
0
VERTEX
8
CUT
10
235.1533
20
39.8186
0
VERTEX
8
CUT
10
235.0758
20
39.6285
0
VERTEX
8
CUT
10
235.0141
20
39.4326
0
VERTEX
8
CUT
10
234.8607
20
38.8651
0
VERTEX
8
CUT
10
234.8001
20
38.5722
0
VERTEX
8
CUT
10
234.7749
20
38.2743
0
VERTEX
8
CUT
10
234.7616
20
37.7305
0
VERTEX
8
CUT
10
234.7650
20
37.5255
0
VERTEX
8
CUT
10
234.7851
20
37.3215
0
VERTEX
8
CUT
10
234.8219
20
37.1198
0
SEQEND
0
POLYLINE
8
CUT
66
1
70
1
10
0.0
20
0.0
30
0.0
0
VERTEX
8
CUT
10
228.2783
20
63.6469
0
VERTEX
8
CUT
10
228.3033
20
63.3508
0
VERTEX
8
CUT
10
228.3634
20
63.0598
0
VERTEX
8
CUT
10
228.6725
20
61.9112
0
VERTEX
8
CUT
10
228.7353
20
61.7114
0
VERTEX
8
CUT
10
228.8147
20
61.5175
0
VERTEX
8
CUT
10
228.9100
20
61.3310
0
VERTEX
8
CUT
10
229.5019
20
60.2835
0
VERTEX
8
CUT
10
229.6105
20
60.1085
0
VERTEX
8
CUT
10
229.7332
20
59.9430
0
VERTEX
8
CUT
10
229.8691
20
59.7882
0
VERTEX
8
CUT
10
230.7289
20
58.8864
0
VERTEX
8
CUT
10
230.9198
20
58.7061
0
VERTEX
8
CUT
10
231.1285
20
58.5469
0
VERTEX
8
CUT
10
231.3042
20
58.4400
0
VERTEX
8
CUT
10
231.3219
20
58.4252
0
VERTEX
8
CUT
10
231.5597
20
58.2680
0
VERTEX
8
CUT
10
232.4018
20
57.7782
0
VERTEX
8
CUT
10
232.6168
20
57.6667
0
VERTEX
8
CUT
10
232.8415
20
57.5765
0
VERTEX
8
CUT
10
233.0083
20
57.5188
0
VERTEX
8
CUT
10
233.1060
20
57.4662
0
VERTEX
8
CUT
10
233.3367
20
57.3568
0
VERTEX
8
CUT
10
233.5774
20
57.2714
0
VERTEX
8
CUT
10
233.8256
20
57.2111
0
VERTEX
8
CUT
10
234.7350
20
57.0386
0
VERTEX
8
CUT
10
235.0072
20
57.0023
0
VERTEX
8
CUT
10
235.2818
20
56.9961
0
VERTEX
8
CUT
10
235.2992
20
56.9967
0
VERTEX
8
CUT
10
235.3048
20
56.9959
0
VERTEX
8
CUT
10
235.5951
20
56.9762
0
VERTEX
8
CUT
10
235.8857
20
56.9902
0
VERTEX
8
CUT
10
236.2263
20
57.0267
0
VERTEX
8
CUT
10
236.4978
20
57.0355
0
VERTEX
8
CUT
10
236.7358
20
57.0546
0
VERTEX
8
CUT
10
236.9709
20
57.0964
0
VERTEX
8
CUT
10
238.0197
20
57.3348
0
VERTEX
8
CUT
10
238.2408
20
57.3958
0
VERTEX
8
CUT
10
238.4554
20
57.4769
0
VERTEX
8
CUT
10
238.6616
20
57.5772
0
VERTEX
8
CUT
10
239.8442
20
58.2215
0
VERTEX
8
CUT
10
240.0707
20
58.3611
0
VERTEX
8
CUT
10
240.2811
20
58.5239
0
VERTEX
8
CUT
10
240.4731
20
58.7081
0
VERTEX
8
CUT
10
241.6951
20
60.0133
0
VERTEX
8
CUT
10
241.8366
20
60.1782
0
VERTEX
8
CUT
10
241.9632
20
60.3547
0
VERTEX
8
CUT
10
242.0740
20
60.5416
0
VERTEX
8
CUT
10
242.1681
20
60.7373
0
VERTEX
8
CUT
10
242.8726
20
62.3813
0
VERTEX
8
CUT
10
242.9505
20
62.5878
0
VERTEX
8
CUT
10
243.0099
20
62.8005
0
VERTEX
8
CUT
10
243.0503
20
63.0175
0
VERTEX
8
CUT
10
243.0714
20
63.2373
0
VERTEX
8
CUT
10
243.1664
20
65.0797
0
VERTEX
8
CUT
10
243.1650
20
65.3613
0
VERTEX
8
CUT
10
243.1320
20
65.6410
0
VERTEX
8
CUT
10
243.0677
20
65.9152
0
VERTEX
8
CUT
10
242.5400
20
67.7054
0
VERTEX
8
CUT
10
242.4681
20
67.9148
0
VERTEX
8
CUT
10
242.3779
20
68.1170
0
VERTEX
8
CUT
10
242.2701
20
68.3105
0
VERTEX
8
CUT
10
241.9853
20
68.7725
0
VERTEX
8
CUT
10
241.8246
20
69.0030
0
VERTEX
8
CUT
10
241.6391
20
69.2141
0
VERTEX
8
CUT
10
240.4184
20
70.4545
0
VERTEX
8
CUT
10
240.2418
20
70.6174
0
VERTEX
8
CUT
10
240.0504
20
70.7627
0
VERTEX
8
CUT
10
239.8460
20
70.8889
0
VERTEX
8
CUT
10
238.2195
20
71.7880
0
VERTEX
8
CUT
10
237.9724
20
71.9074
0
VERTEX
8
CUT
10
237.7137
20
71.9990
0
VERTEX
8
CUT
10
237.1511
20
72.1640
0
VERTEX
8
CUT
10
236.8603
20
72.2308
0
VERTEX
8
CUT
10
236.5635
20
72.2624
0
VERTEX
8
CUT
10
235.5132
20
72.3112
0
VERTEX
8
CUT
10
235.2821
20
72.3113
0
VERTEX
8
CUT
10
235.0519
20
72.2900
0
VERTEX
8
CUT
10
234.8247
20
72.2475
0
VERTEX
8
CUT
10
234.0897
20
72.0746
0
VERTEX
8
CUT
10
233.8432
20
72.0031
0
VERTEX
8
CUT
10
233.6054
20
71.9067
0
VERTEX
8
CUT
10
232.1324
20
71.2196
0
VERTEX
8
CUT
10
231.9070
20
71.1001
0
VERTEX
8
CUT
10
231.6950
20
70.9583
0
VERTEX
8
CUT
10
231.0623
20
70.4866
0
VERTEX
8
CUT
10
230.8498
20
70.3091
0
VERTEX
8
CUT
10
230.6583
20
70.1092
0
VERTEX
8
CUT
10
229.7082
20
69.0006
0
VERTEX
8
CUT
10
229.5763
20
68.8327
0
VERTEX
8
CUT
10
229.4592
20
68.6542
0
VERTEX
8
CUT
10
229.3578
20
68.4663
0
VERTEX
8
CUT
10
228.7718
20
67.2604
0
VERTEX
8
CUT
10
228.6637
20
67.0020
0
VERTEX
8
CUT
10
228.5851
20
66.7331
0
VERTEX
8
CUT
10
228.3103
20
65.5494
0
VERTEX
8
CUT
10
228.2714
20
65.3422
0
VERTEX
8
CUT
10
228.2500
20
65.1324
0
VERTEX
8
CUT
10
228.2464
20
64.9215
0
SEQEND
0
POLYLINE
8
CUT
66
1
70
1
10
0.0
20
0.0
30
0.0
0
VERTEX
8
CUT
10
123.6946
20
68.3536
0
VERTEX
8
CUT
10
123.8079
20
68.1380
0
VERTEX
8
CUT
10
123.9417
20
67.9343
0
VERTEX
8
CUT
10
124.0049
20
67.8560
0
VERTEX
8
CUT
10
124.0121
20
67.8460
0
VERTEX
8
CUT
10
124.1909
20
67.6242
0
VERTEX
8
CUT
10
124.8935
20
66.8476
0
VERTEX
8
CUT
10
126.4814
20
65.0643
0
VERTEX
8
CUT
10
126.6451
20
64.8970
0
VERTEX
8
CUT
10
126.7294
20
64.8185
0
VERTEX
8
CUT
10
126.7593
20
64.7855
0
VERTEX
8
CUT
10
126.9337
20
64.6109
0
VERTEX
8
CUT
10
127.6599
20
63.9524
0
VERTEX
8
CUT
10
130.2290
20
61.5609
0
VERTEX
8
CUT
10
130.4273
20
61.3946
0
VERTEX
8
CUT
10
132.4154
20
59.8957
0
VERTEX
8
CUT
10
132.6777
20
59.7227
0
VERTEX
8
CUT
10
135.5305
20
58.0882
0
VERTEX
8
CUT
10
135.5803
20
58.0581
0
VERTEX
8
CUT
10
135.6132
20
58.0386
0
VERTEX
8
CUT
10
135.6193
20
58.0350
0
VERTEX
8
CUT
10
135.6916
20
57.9959
0
VERTEX
8
CUT
10
136.6620
20
57.4399
0
VERTEX
8
CUT
10
136.8454
20
57.3447
0
VERTEX
8
CUT
10
138.9264
20
56.3711
0
VERTEX
8
CUT
10
138.9873
20
56.3436
0
VERTEX
8
CUT
10
139.0011
20
56.3376
0
VERTEX
8
CUT
10
139.0464
20
56.3184
0
VERTEX
8
CUT
10
141.2314
20
55.4171
0
VERTEX
8
CUT
10
141.4290
20
55.3452
0
VERTEX
8
CUT
10
145.9136
20
53.9232
0
VERTEX
8
CUT
10
146.2286
20
53.8455
0
VERTEX
8
CUT
10
147.7248
20
53.5775
0
VERTEX
8
CUT
10
148.4505
20
53.4022
0
VERTEX
8
CUT
10
148.6767
20
53.3584
0
VERTEX
8
CUT
10
149.4194
20
53.2500
0
VERTEX
8
CUT
10
149.5406
20
53.2230
0
VERTEX
8
CUT
10
149.5753
20
53.2155
0
VERTEX
8
CUT
10
149.5813
20
53.2143
0
VERTEX
8
CUT
10
149.7270
20
53.1884
0
VERTEX
8
CUT
10
150.6813
20
53.0481
0
VERTEX
8
CUT
10
153.6748
20
52.5122
0
VERTEX
8
CUT
10
153.8843
20
52.4837
0
VERTEX
8
CUT
10
154.0954
20
52.4731
0
VERTEX
8
CUT
10
156.1160
20
52.4569
0
VERTEX
8
CUT
10
156.6117
20
52.4248
0
VERTEX
8
CUT
10
156.6453
20
52.4229
0
VERTEX
8
CUT
10
156.6514
20
52.4226
0
VERTEX
8
CUT
10
156.7933
20
52.4194
0
VERTEX
8
CUT
10
158.3126
20
52.4279
0
VERTEX
8
CUT
10
160.7926
20
52.3345
0
VERTEX
8
CUT
10
160.8261
20
52.3334
0
VERTEX
8
CUT
10
160.8322
20
52.3333
0
VERTEX
8
CUT
10
160.9737
20
52.3339
0
VERTEX
8
CUT
10
163.0571
20
52.4014
0
VERTEX
8
CUT
10
164.4756
20
52.3900
0
VERTEX
8
CUT
10
164.5067
20
52.3900
0
VERTEX
8
CUT
10
164.5124
20
52.3900
0
VERTEX
8
CUT
10
164.6435
20
52.3940
0
VERTEX
8
CUT
10
165.9941
20
52.4710
0
VERTEX
8
CUT
10
166.7882
20
52.4755
0
VERTEX
8
CUT
10
167.0942
20
52.4960
0
VERTEX
8
CUT
10
167.4687
20
52.5443
0
VERTEX
8
CUT
10
167.9621
20
52.5603
0
VERTEX
8
CUT
10
168.2229
20
52.5825
0
VERTEX
8
CUT
10
168.4157
20
52.6091
0
VERTEX
8
CUT
10
170.5255
20
52.7294
0
VERTEX
8
CUT
10
170.7907
20
52.7587
0
VERTEX
8
CUT
10
174.6577
20
53.3976
0
VERTEX
8
CUT
10
174.7255
20
53.4098
0
VERTEX
8
CUT
10
174.7406
20
53.4127
0
VERTEX
8
CUT
10
174.7904
20
53.4229
0
VERTEX
8
CUT
10
178.5495
20
54.2302
0
VERTEX
8
CUT
10
178.5793
20
54.2368
0
VERTEX
8
CUT
10
178.5846
20
54.2380
0
VERTEX
8
CUT
10
178.7091
20
54.2697
0
VERTEX
8
CUT
10
182.3863
20
55.3080
0
VERTEX
8
CUT
10
182.4156
20
55.3165
0
VERTEX
8
CUT
10
182.4207
20
55.3180
0
VERTEX
8
CUT
10
182.5424
20
55.3573
0
VERTEX
8
CUT
10
185.9971
20
56.5738
0
VERTEX
8
CUT
10
186.2099
20
56.6600
0
VERTEX
8
CUT
10
187.8549
20
57.4153
0
VERTEX
8
CUT
10
189.4623
20
58.1389
0
VERTEX
8
CUT
10
189.9697
20
58.3523
0
VERTEX
8
CUT
10
190.2153
20
58.4718
0
VERTEX
8
CUT
10
190.2727
20
58.5037
0
VERTEX
8
CUT
10
190.6509
20
58.6740
0
VERTEX
8
CUT
10
190.8598
20
58.7800
0
VERTEX
8
CUT
10
190.9985
20
58.8589
0
VERTEX
8
CUT
10
192.6891
20
59.6351
0
VERTEX
8
CUT
10
193.0086
20
59.8112
0
VERTEX
8
CUT
10
198.6450
20
63.4759
0
VERTEX
8
CUT
10
198.9032
20
63.6685
0
VERTEX
8
CUT
10
202.1955
20
66.4724
0
VERTEX
8
CUT
10
202.3705
20
66.6365
0
VERTEX
8
CUT
10
205.7800
20
70.1572
0
VERTEX
8
CUT
10
205.8043
20
70.1826
0
VERTEX
8
CUT
10
205.8087
20
70.1872
0
VERTEX
8
CUT
10
205.9071
20
70.2981
0
VERTEX
8
CUT
10
209.9656
20
75.1561
0
VERTEX
8
CUT
10
210.0006
20
75.1990
0
VERTEX
8
CUT
10
210.0083
20
75.2086
0
VERTEX
8
CUT
10
210.0334
20
75.2406
0
VERTEX
8
CUT
10
229.6006
20
100.5816
0
VERTEX
8
CUT
10
229.6168
20
100.6027
0
VERTEX
8
CUT
10
229.6328
20
100.6240
0
VERTEX
8
CUT
10
229.6527
20
100.6506
0
VERTEX
8
CUT
10
233.0528
20
105.2791
0
VERTEX
8
CUT
10
233.0681
20
105.3002
0
VERTEX
8
CUT
10
233.0709
20
105.3040
0
VERTEX
8
CUT
10
233.1330
20
105.3946
0
VERTEX
8
CUT
10
235.5083
20
109.0264
0
VERTEX
8
CUT
10
235.6200
20
109.2146
0
VERTEX
8
CUT
10
237.4944
20
112.7148
0
VERTEX
8
CUT
10
237.6007
20
112.9395
0
VERTEX
8
CUT
10
238.7032
20
115.6051
0
VERTEX
8
CUT
10
239.0879
20
116.4107
0
VERTEX
8
CUT
10
239.1877
20
116.6510
0
VERTEX
8
CUT
10
239.5039
20
117.5410
0
VERTEX
8
CUT
10
239.7188
20
118.0606
0
VERTEX
8
CUT
10
239.8335
20
118.4077
0
VERTEX
8
CUT
10
239.8854
20
118.6145
0
VERTEX
8
CUT
10
239.8953
20
118.6425
0
VERTEX
8
CUT
10
239.9612
20
118.8582
0
VERTEX
8
CUT
10
241.0174
20
122.9747
0
VERTEX
8
CUT
10
241.0774
20
123.2929
0
VERTEX
8
CUT
10
241.0946
20
123.4336
0
VERTEX
8
CUT
10
241.1643
20
123.7114
0
VERTEX
8
CUT
10
241.2263
20
124.0634
0
VERTEX
8
CUT
10
241.5230
20
126.9406
0
VERTEX
8
CUT
10
241.5904
20
127.4923
0
VERTEX
8
CUT
10
241.6040
20
127.7252
0
VERTEX
8
CUT
10
241.7638
20
129.2750
0
VERTEX
8
CUT
10
241.7764
20
129.4773
0
VERTEX
8
CUT
10
241.7726
20
129.6800
0
VERTEX
8
CUT
10
241.4777
20
134.6324
0
VERTEX
8
CUT
10
241.4533
20
134.8622
0
VERTEX
8
CUT
10
241.4078
20
135.0887
0
VERTEX
8
CUT
10
241.1946
20
135.9435
0
VERTEX
8
CUT
10
240.9259
20
137.2671
0
VERTEX
8
CUT
10
240.8402
20
137.8357
0
VERTEX
8
CUT
10
240.7942
20
138.0663
0
VERTEX
8
CUT
10
240.7268
20
138.2915
0
VERTEX
8
CUT
10
240.5529
20
138.7866
0
VERTEX
8
CUT
10
240.2166
20
139.8655
0
VERTEX
8
CUT
10
240.0134
20
140.6804
0
VERTEX
8
CUT
10
239.9453
20
140.9072
0
VERTEX
8
CUT
10
239.8560
20
141.1266
0
VERTEX
8
CUT
10
239.3400
20
142.2401
0
VERTEX
8
CUT
10
239.0335
20
143.1126
0
VERTEX
8
CUT
10
238.9159
20
143.3920
0
VERTEX
8
CUT
10
237.6397
20
145.9738
0
VERTEX
8
CUT
10
237.6225
20
146.0079
0
VERTEX
8
CUT
10
237.6193
20
146.0141
0
VERTEX
8
CUT
10
237.5410
20
146.1551
0
VERTEX
8
CUT
10
237.4728
20
146.2692
0
VERTEX
8
CUT
10
237.0944
20
147.0857
0
VERTEX
8
CUT
10
236.9623
20
147.3333
0
VERTEX
8
CUT
10
230.4809
20
157.9945
0
VERTEX
8
CUT
10
230.4729
20
158.0095
0
VERTEX
8
CUT
10
230.4548
20
158.0432
0
VERTEX
8
CUT
10
230.3401
20
158.2567
0
VERTEX
8
CUT
10
230.2013
20
158.5149
0
VERTEX
8
CUT
10
229.1774
20
160.5749
0
VERTEX
8
CUT
10
228.2002
20
162.6281
0
VERTEX
8
CUT
10
227.8379
20
163.5817
0
VERTEX
8
CUT
10
226.9779
20
166.3503
0
VERTEX
8
CUT
10
226.9308
20
166.5151
0
VERTEX
8
CUT
10
226.9230
20
166.5448
0
VERTEX
8
CUT
10
226.8517
20
166.8799
0
VERTEX
8
CUT
10
226.8467
20
166.9101
0
VERTEX
8
CUT
10
226.8226
20
167.0798
0
VERTEX
8
CUT
10
226.4371
20
170.3216
0
VERTEX
8
CUT
10
226.4149
20
170.5917
0
VERTEX
8
CUT
10
226.4064
20
170.7754
0
VERTEX
8
CUT
10
226.4037
20
171.0464
0
VERTEX
8
CUT
10
226.4879
20
174.2504
0
VERTEX
8
CUT
10
226.5788
20
175.4888
0
VERTEX
8
CUT
10
226.5849
20
175.5508
0
VERTEX
8
CUT
10
226.7260
20
176.3159
0
VERTEX
8
CUT
10
227.2762
20
178.3085
0
VERTEX
8
CUT
10
228.3614
20
181.3484
0
VERTEX
8
CUT
10
228.4020
20
181.4554
0
VERTEX
8
CUT
10
228.6135
20
181.9045
0
VERTEX
8
CUT
10
228.6449
20
181.9712
0
VERTEX
8
CUT
10
228.6492
20
181.9804
0
VERTEX
8
CUT
10
231.3503
20
186.9547
0
VERTEX
8
CUT
10
231.3943
20
187.0334
0
VERTEX
8
CUT
10
231.4248
20
187.0866
0
VERTEX
8
CUT
10
231.4707
20
187.1642
0
VERTEX
8
CUT
10
236.3335
20
195.1755
0
VERTEX
8
CUT
10
236.3529
20
195.2079
0
VERTEX
8
CUT
10
236.3564
20
195.2138
0
VERTEX
8
CUT
10
236.4325
20
195.3536
0
VERTEX
8
CUT
10
238.3316
20
199.1224
0
VERTEX
8
CUT
10
238.4303
20
199.3444
0
VERTEX
8
CUT
10
239.0617
20
200.9746
0
VERTEX
8
CUT
10
239.0709
20
200.9987
0
VERTEX
8
CUT
10
239.0726
20
201.0032
0
VERTEX
8
CUT
10
239.1085
20
201.1057
0
VERTEX
8
CUT
10
239.5849
20
202.5638
0
VERTEX
8
CUT
10
239.6668
20
202.8855
0
VERTEX
8
CUT
10
240.1955
20
205.7440
0
VERTEX
8
CUT
10
240.2267
20
205.9701
0
VERTEX
8
CUT
10
240.2372
20
206.1981
0
VERTEX
8
CUT
10
240.2377
20
208.7063
0
VERTEX
8
CUT
10
240.2279
20
208.9281
0
VERTEX
8
CUT
10
240.1985
20
209.1481
0
VERTEX
8
CUT
10
240.0136
20
210.1792
0
VERTEX
8
CUT
10
239.9681
20
210.3835
0
VERTEX
8
CUT
10
239.9056
20
210.5832
0
VERTEX
8
CUT
10
239.1983
20
212.5521
0
VERTEX
8
CUT
10
239.1138
20
212.7579
0
VERTEX
8
CUT
10
239.0113
20
212.9555
0
VERTEX
8
CUT
10
238.8917
20
213.1432
0
VERTEX
8
CUT
10
237.9148
20
214.5349
0
VERTEX
8
CUT
10
237.7426
20
214.7532
0
VERTEX
8
CUT
10
237.5473
20
214.9511
0
VERTEX
8
CUT
10
237.3312
20
215.1260
0
VERTEX
8
CUT
10
236.2664
20
215.8942
0
VERTEX
8
CUT
10
236.0565
20
216.0302
0
VERTEX
8
CUT
10
235.8341
20
216.1445
0
VERTEX
8
CUT
10
235.6013
20
216.2360
0
VERTEX
8
CUT
10
235.3606
20
216.3039
0
VERTEX
8
CUT
10
234.6741
20
216.4607
0
VERTEX
8
CUT
10
234.4707
20
216.4984
0
VERTEX
8
CUT
10
234.2648
20
216.5191
0
VERTEX
8
CUT
10
234.0580
20
216.5228
0
VERTEX
8
CUT
10
232.5432
20
216.4868
0
VERTEX
8
CUT
10
232.3134
20
216.4708
0
VERTEX
8
CUT
10
232.0861
20
216.4336
0
VERTEX
8
CUT
10
231.8631
20
216.3757
0
VERTEX
8
CUT
10
230.8168
20
216.0517
0
VERTEX
8
CUT
10
230.5456
20
215.9502
0
VERTEX
8
CUT
10
230.2880
20
215.8181
0
VERTEX
8
CUT
10
229.0783
20
215.1060
0
VERTEX
8
CUT
10
228.9173
20
215.0028
0
VERTEX
8
CUT
10
228.7647
20
214.8876
0
VERTEX
8
CUT
10
225.1474
20
211.9324
0
VERTEX
8
CUT
10
224.9607
20
211.7893
0
VERTEX
8
CUT
10
224.8307
20
211.6961
0
VERTEX
8
CUT
10
224.6350
20
211.5648
0
VERTEX
8
CUT
10
224.2665
20
211.3341
0
VERTEX
8
CUT
10
224.1216
20
211.2478
0
VERTEX
8
CUT
10
224.0954
20
211.2330
0
VERTEX
8
CUT
10
223.8190
20
211.0928
0
VERTEX
8
CUT
10
223.5312
20
210.9780
0
VERTEX
8
CUT
10
223.5027
20
210.9681
0
VERTEX
8
CUT
10
223.3422
20
210.9163
0
VERTEX
8
CUT
10
222.8337
20
210.7647
0
VERTEX
8
CUT
10
222.6757
20
210.7214
0
VERTEX
8
CUT
10
222.6472
20
210.7142
0
VERTEX
8
CUT
10
222.3521
20
210.6537
0
VERTEX
8
CUT
10
222.0529
20
210.6192
0
VERTEX
8
CUT
10
222.0237
20
210.6171
0
VERTEX
8
CUT
10
221.8600
20
210.6090
0
VERTEX
8
CUT
10
220.6267
20
210.5752
0
VERTEX
8
CUT
10
220.4596
20
210.5743
0
VERTEX
8
CUT
10
220.4297
20
210.5748
0
VERTEX
8
CUT
10
220.1231
20
210.5938
0
VERTEX
8
CUT
10
219.8194
20
210.6399
0
VERTEX
8
CUT
10
219.7901
20
210.6457
0
VERTEX
8
CUT
10
219.6269
20
210.6818
0
VERTEX
8
CUT
10
219.0399
20
210.8254
0
VERTEX
8
CUT
10
218.8238
20
210.8852
0
VERTEX
8
CUT
10
218.7857
20
210.8970
0
VERTEX
8
CUT
10
218.3664
20
211.0546
0
VERTEX
8
CUT
10
218.3300
20
211.0708
0
VERTEX
8
CUT
10
218.1281
20
211.1681
0
VERTEX
8
CUT
10
217.3466
20
211.5741
0
VERTEX
8
CUT
10
217.1884
20
211.6611
0
VERTEX
8
CUT
10
217.1605
20
211.6774
0
VERTEX
8
CUT
10
216.8820
20
211.8580
0
VERTEX
8
CUT
10
216.6222
20
212.0645
0
VERTEX
8
CUT
10
216.5980
20
212.0858
0
VERTEX
8
CUT
10
216.4651
20
212.2081
0
VERTEX
8
CUT
10
215.6931
20
212.9537
0
VERTEX
8
CUT
10
215.5581
20
213.0910
0
VERTEX
8
CUT
10
215.5347
20
213.1161
0
VERTEX
8
CUT
10
215.3067
20
213.3867
0
VERTEX
8
CUT
10
215.1077
20
213.6793
0
VERTEX
8
CUT
10
215.0898
20
213.7086
0
VERTEX
8
CUT
10
214.9941
20
213.8757
0
VERTEX
8
CUT
10
214.4737
20
214.8405
0
VERTEX
8
CUT
10
214.3778
20
215.0310
0
VERTEX
8
CUT
10
214.3617
20
215.0655
0
VERTEX
8
CUT
10
214.2032
20
215.4614
0
VERTEX
8
CUT
10
214.1911
20
215.4974
0
VERTEX
8
CUT
10
214.1290
20
215.7015
0
VERTEX
8
CUT
10
214.0289
20
216.0674
0
VERTEX
8
CUT
10
213.9918
20
216.2147
0
VERTEX
8
CUT
10
213.9857
20
216.2413
0
VERTEX
8
CUT
10
213.9295
20
216.5398
0
VERTEX
8
CUT
10
213.9256
20
216.5667
0
VERTEX
8
CUT
10
213.9066
20
216.7175
0
VERTEX
8
CUT
10
213.7048
20
218.6330
0
VERTEX
8
CUT
10
213.6861
20
218.9061
0
VERTEX
8
CUT
10
213.6802
20
219.0917
0
VERTEX
8
CUT
10
213.6814
20
219.3654
0
VERTEX
8
CUT
10
213.7109
20
220.0816
0
VERTEX
8
CUT
10
213.7232
20
220.2674
0
VERTEX
8
CUT
10
213.7262
20
220.3005
0
VERTEX
8
CUT
10
213.7782
20
220.6690
0
VERTEX
8
CUT
10
213.7845
20
220.7017
0
VERTEX
8
CUT
10
213.8242
20
220.8836
0
VERTEX
8
CUT
10
214.3271
20
222.9412
0
VERTEX
8
CUT
10
214.3725
20
223.1097
0
VERTEX
8
CUT
10
214.4060
20
223.2234
0
VERTEX
8
CUT
10
214.4591
20
223.3896
0
VERTEX
8
CUT
10
217.3276
20
231.6885
0
VERTEX
8
CUT
10
217.3848
20
231.8778
0
VERTEX
8
CUT
10
217.4268
20
232.0710
0
VERTEX
8
CUT
10
217.5823
20
232.9526
0
VERTEX
8
CUT
10
217.6092
20
233.1521
0
VERTEX
8
CUT
10
217.6200
20
233.3531
0
VERTEX
8
CUT
10
217.6725
20
237.2400
0
VERTEX
8
CUT
10
217.6562
20
237.5611
0
VERTEX
8
CUT
10
217.4137
20
239.6568
0
VERTEX
8
CUT
10
217.3684
20
239.9219
0
VERTEX
8
CUT
10
217.2949
20
240.1807
0
VERTEX
8
CUT
10
216.8154
20
241.5784
0
VERTEX
8
CUT
10
216.7047
20
241.8485
0
VERTEX
8
CUT
10
216.5633
20
242.1038
0
VERTEX
8
CUT
10
215.7117
20
243.4498
0
VERTEX
8
CUT
10
215.5840
20
243.6330
0
VERTEX
8
CUT
10
215.4404
20
243.8041
0
VERTEX
8
CUT
10
214.1185
20
245.2435
0
VERTEX
8
CUT
10
213.9682
20
245.3938
0
VERTEX
8
CUT
10
213.8056
20
245.5308
0
VERTEX
8
CUT
10
212.6380
20
246.4330
0
VERTEX
8
CUT
10
212.3876
20
246.6032
0
VERTEX
8
CUT
10
212.1185
20
246.7420
0
VERTEX
8
CUT
10
210.9746
20
247.2466
0
VERTEX
8
CUT
10
210.7036
20
247.3478
0
VERTEX
8
CUT
10
210.4228
20
247.4171
0
VERTEX
8
CUT
10
209.0404
20
247.6741
0
VERTEX
8
CUT
10
208.7654
20
247.7096
0
VERTEX
8
CUT
10
208.4883
20
247.7145
0
VERTEX
8
CUT
10
205.9552
20
247.6181
0
VERTEX
8
CUT
10
205.7108
20
247.5968
0
VERTEX
8
CUT
10
205.4697
20
247.5516
0
VERTEX
8
CUT
10
203.9958
20
247.1998
0
VERTEX
8
CUT
10
203.8117
20
247.1483
0
VERTEX
8
CUT
10
203.6319
20
247.0829
0
VERTEX
8
CUT
10
202.1413
20
246.4747
0
VERTEX
8
CUT
10
201.9651
20
246.3947
0
VERTEX
8
CUT
10
201.7956
20
246.3013
0
VERTEX
8
CUT
10
200.4107
20
245.4670
0
VERTEX
8
CUT
10
200.1116
20
245.2554
0
VERTEX
8
CUT
10
198.7689
20
244.1496
0
VERTEX
8
CUT
10
198.5574
20
243.9540
0
VERTEX
8
CUT
10
197.3192
20
242.6682
0
VERTEX
8
CUT
10
197.1014
20
242.4088
0
VERTEX
8
CUT
10
195.9446
20
240.8255
0
VERTEX
8
CUT
10
195.7775
20
240.5641
0
VERTEX
8
CUT
10
194.7604
20
238.7319
0
VERTEX
8
CUT
10
194.6609
20
238.5322
0
VERTEX
8
CUT
10
194.3599
20
237.8537
0
VERTEX
8
CUT
10
194.3034
20
237.7452
0
VERTEX
8
CUT
10
194.1769
20
237.4698
0
VERTEX
8
CUT
10
194.1013
20
237.2706
0
VERTEX
8
CUT
10
193.7505
20
236.4799
0
VERTEX
8
CUT
10
193.6796
20
236.3020
0
VERTEX
8
CUT
10
193.6225
20
236.1192
0
VERTEX
8
CUT
10
193.1687
20
234.4422
0
VERTEX
8
CUT
10
193.1203
20
234.2256
0
VERTEX
8
CUT
10
193.0913
20
234.0056
0
VERTEX
8
CUT
10
192.9189
20
232.0210
0
VERTEX
8
CUT
10
192.9102
20
231.7456
0
VERTEX
8
CUT
10
192.9118
20
231.6775
0
VERTEX
8
CUT
10
192.8906
20
231.4225
0
VERTEX
8
CUT
10
192.8842
20
231.1124
0
VERTEX
8
CUT
10
192.9798
20
228.7959
0
VERTEX
8
CUT
10
193.1059
20
223.4581
0
VERTEX
8
CUT
10
193.1057
20
223.2723
0
VERTEX
8
CUT
10
193.1024
20
223.1460
0
VERTEX
8
CUT
10
193.0930
20
222.9604
0
VERTEX
8
CUT
10
193.0455
20
222.3338
0
VERTEX
8
CUT
10
193.0270
20
222.1492
0
VERTEX
8
CUT
10
193.0228
20
222.1163
0
VERTEX
8
CUT
10
192.9584
20
221.7510
0
VERTEX
8
CUT
10
192.9511
20
221.7187
0
VERTEX
8
CUT
10
192.9054
20
221.5388
0
VERTEX
8
CUT
10
192.6419
20
220.5994
0
VERTEX
8
CUT
10
192.5898
20
220.4294
0
VERTEX
8
CUT
10
192.5830
20
220.4088
0
VERTEX
8
CUT
10
192.4675
20
220.1307
0
VERTEX
8
CUT
10
192.4036
20
219.9925
0
VERTEX
8
CUT
10
192.3998
20
219.9844
0
VERTEX
8
CUT
10
192.3995
20
219.9839
0
VERTEX
8
CUT
10
192.3995
20
219.9838
0
VERTEX
8
CUT
10
192.3419
20
219.8702
0
VERTEX
8
CUT
10
192.1921
20
219.5925
0
VERTEX
8
CUT
10
191.7173
20
218.8318
0
VERTEX
8
CUT
10
191.6332
20
218.7030
0
VERTEX
8
CUT
10
191.6177
20
218.6803
0
VERTEX
8
CUT
10
191.4488
20
218.4534
0
VERTEX
8
CUT
10
191.2620
20
218.2412
0
VERTEX
8
CUT
10
191.2429
20
218.2213
0
VERTEX
8
CUT
10
191.1344
20
218.1124
0
VERTEX
8
CUT
10
190.1394
20
217.1538
0
VERTEX
8
CUT
10
190.0092
20
217.0342
0
VERTEX
8
CUT
10
189.9854
20
217.0134
0
VERTEX
8
CUT
10
189.7312
20
216.8109
0
VERTEX
8
CUT
10
189.4828
20
216.6489
0
VERTEX
8
CUT
10
189.1952
20
216.4977
0
VERTEX
8
CUT
10
189.1665
20
216.4844
0
VERTEX
8
CUT
10
189.0046
20
216.4134
0
VERTEX
8
CUT
10
187.9670
20
215.9875
0
VERTEX
8
CUT
10
187.8030
20
215.9246
0
VERTEX
8
CUT
10
187.7734
20
215.9141
0
VERTEX
8
CUT
10
187.4644
20
215.8199
0
VERTEX
8
CUT
10
187.1480
20
215.7551
0
VERTEX
8
CUT
10
187.1170
20
215.7502
0
VERTEX
8
CUT
10
186.9428
20
215.7272
0
VERTEX
8
CUT
10
186.1787
20
215.6441
0
VERTEX
8
CUT
10
185.9702
20
215.6273
0
VERTEX
8
CUT
10
185.9329
20
215.6253
0
VERTEX
8
CUT
10
185.5146
20
215.6267
0
VERTEX
8
CUT
10
185.4774
20
215.6289
0
VERTEX
8
CUT
10
185.2689
20
215.6471
0
VERTEX
8
CUT
10
184.5159
20
215.7340
0
VERTEX
8
CUT
10
184.3411
20
215.7583
0
VERTEX
8
CUT
10
184.3099
20
215.7634
0
VERTEX
8
CUT
10
183.9647
20
215.8367
0
VERTEX
8
CUT
10
183.9341
20
215.8447
0
VERTEX
8
CUT
10
183.7645
20
215.8934
0
VERTEX
8
CUT
10
183.0943
20
216.1031
0
VERTEX
8
CUT
10
182.8965
20
216.1711
0
VERTEX
8
CUT
10
182.8616
20
216.1842
0
VERTEX
8
CUT
10
182.4790
20
216.3527
0
VERTEX
8
CUT
10
182.4458
20
216.3696
0
VERTEX
8
CUT
10
182.2621
20
216.4696
0
VERTEX
8
CUT
10
181.6906
20
216.8017
0
VERTEX
8
CUT
10
181.5295
20
216.9008
0
VERTEX
8
CUT
10
181.5012
20
216.9192
0
VERTEX
8
CUT
10
181.1952
20
217.1410
0
VERTEX
8
CUT
10
181.1689
20
217.1622
0
VERTEX
8
CUT
10
181.0246
20
217.2844
0
VERTEX
8
CUT
10
180.4744
20
217.7750
0
VERTEX
8
CUT
10
180.3509
20
217.8901
0
VERTEX
8
CUT
10
180.3293
20
217.9112
0
VERTEX
8
CUT
10
180.0986
20
218.1575
0
VERTEX
8
CUT
10
180.0790
20
218.1805
0
VERTEX
8
CUT
10
179.9722
20
218.3112
0
VERTEX
8
CUT
10
179.4642
20
218.9622
0
VERTEX
8
CUT
10
179.3567
20
219.1070
0
VERTEX
8
CUT
10
179.3381
20
219.1333
0
VERTEX
8
CUT
10
179.1513
20
219.4271
0
VERTEX
8
CUT
10
178.9542
20
219.7994
0
VERTEX
8
CUT
10
178.6103
20
220.4758
0
VERTEX
8
CUT
10
178.5010
20
220.7106
0
VERTEX
8
CUT
10
178.4323
20
220.8725
0
VERTEX
8
CUT
10
178.3395
20
221.1143
0
VERTEX
8
CUT
10
177.9936
20
222.1172
0
VERTEX
8
CUT
10
177.9487
20
222.2563
0
VERTEX
8
CUT
10
177.9411
20
222.2814
0
VERTEX
8
CUT
10
177.8676
20
222.5643
0
VERTEX
8
CUT
10
177.8620
20
222.5899
0
VERTEX
8
CUT
10
177.8336
20
222.7333
0
VERTEX
8
CUT
10
177.6697
20
223.6547
0
VERTEX
8
CUT
10
177.6482
20
226.3188
0
VERTEX
8
CUT
10
177.6504
20
226.4808
0
VERTEX
8
CUT
10
177.6514
20
226.5097
0
VERTEX
8
CUT
10
177.6768
20
226.8327
0
VERTEX
8
CUT
10
177.6802
20
226.8602
0
VERTEX
8
CUT
10
178.3733
20
230.1573
0
VERTEX
8
CUT
10
178.4365
20
230.4131
0
VERTEX
8
CUT
10
178.4855
20
230.5850
0
VERTEX
8
CUT
10
178.5665
20
230.8357
0
VERTEX
8
CUT
10
182.1696
20
240.7753
0
VERTEX
8
CUT
10
182.1785
20
240.8002
0
VERTEX
8
CUT
10
182.1801
20
240.8047
0
VERTEX
8
CUT
10
182.2145
20
240.9105
0
VERTEX
8
CUT
10
183.1631
20
244.0583
0
VERTEX
8
CUT
10
183.2420
20
244.4103
0
VERTEX
8
CUT
10
183.6196
20
246.9379
0
VERTEX
8
CUT
10
183.6355
20
247.1331
0
VERTEX
8
CUT
10
183.6459
20
247.1882
0
VERTEX
8
CUT
10
183.6812
20
247.4550
0
VERTEX
8
CUT
10
183.8654
20
249.8235
0
VERTEX
8
CUT
10
183.8723
20
250.0723
0
VERTEX
8
CUT
10
183.8232
20
252.3093
0
VERTEX
8
CUT
10
183.7942
20
252.6377
0
VERTEX
8
CUT
10
183.7194
20
253.1197
0
VERTEX
8
CUT
10
183.6293
20
254.3658
0
VERTEX
8
CUT
10
183.6065
20
254.5672
0
VERTEX
8
CUT
10
183.5675
20
254.7661
0
VERTEX
8
CUT
10
183.2173
20
256.2330
0
VERTEX
8
CUT
10
183.1577
20
256.4418
0
VERTEX
8
CUT
10
183.0803
20
256.6446
0
VERTEX
8
CUT
10
182.0330
20
259.0668
0
VERTEX
8
CUT
10
181.9526
20
259.2660
0
VERTEX
8
CUT
10
181.8702
20
259.4486
0
VERTEX
8
CUT
10
181.8601
20
259.4668
0
VERTEX
8
CUT
10
181.5033
20
260.2922
0
VERTEX
8
CUT
10
181.3906
20
260.5202
0
VERTEX
8
CUT
10
181.2553
20
260.7356
0
VERTEX
8
CUT
10
179.8496
20
262.7399
0
VERTEX
8
CUT
10
179.7245
20
262.9035
0
VERTEX
8
CUT
10
179.5863
20
263.0562
0
VERTEX
8
CUT
10
178.4974
20
264.1647
0
VERTEX
8
CUT
10
178.2641
20
264.3742
0
VERTEX
8
CUT
10
176.9834
20
265.3864
0
VERTEX
8
CUT
10
176.7484
20
265.5511
0
VERTEX
8
CUT
10
175.3966
20
266.3872
0
VERTEX
8
CUT
10
175.2058
20
266.4940
0
VERTEX
8
CUT
10
175.0064
20
266.5837
0
VERTEX
8
CUT
10
173.9868
20
266.9898
0
VERTEX
8
CUT
10
173.2411
20
267.3408
0
VERTEX
8
CUT
10
173.0125
20
267.4348
0
VERTEX
8
CUT
10
172.7758
20
267.5059
0
VERTEX
8
CUT
10
172.5521
20
267.5611
0
VERTEX
8
CUT
10
171.8323
20
267.8478
0
VERTEX
8
CUT
10
171.6156
20
267.9227
0
VERTEX
8
CUT
10
171.3930
20
267.9775
0
VERTEX
8
CUT
10
169.9337
20
268.2665
0
VERTEX
8
CUT
10
169.5971
20
268.3096
0
VERTEX
8
CUT
10
168.1171
20
268.3980
0
VERTEX
8
CUT
10
167.9204
20
268.4020
0
VERTEX
8
CUT
10
167.7239
20
268.3905
0
VERTEX
8
CUT
10
164.9784
20
268.1211
0
VERTEX
8
CUT
10
164.7092
20
268.0797
0
VERTEX
8
CUT
10
164.4461
20
268.0094
0
VERTEX
8
CUT
10
162.0857
20
267.2381
0
VERTEX
8
CUT
10
161.8319
20
267.1396
0
VERTEX
8
CUT
10
161.5903
20
267.0141
0
VERTEX
8
CUT
10
159.5522
20
265.8098
0
VERTEX
8
CUT
10
159.3274
20
265.6600
0
VERTEX
8
CUT
10
159.1200
20
265.4868
0
VERTEX
8
CUT
10
157.4382
20
263.9202
0
VERTEX
8
CUT
10
157.2510
20
263.7259
0
VERTEX
8
CUT
10
157.0858
20
263.5126
0
VERTEX
8
CUT
10
155.8010
20
261.6541
0
VERTEX
8
CUT
10
155.6591
20
261.4229
0
VERTEX
8
CUT
10
155.5430
20
261.1777
0
VERTEX
8
CUT
10
154.8202
20
259.4081
0
VERTEX
8
CUT
10
154.7391
20
259.2353
0
VERTEX
8
CUT
10
154.6302
20
258.9629
0
VERTEX
8
CUT
10
154.5539
20
258.6795
0
VERTEX
8
CUT
10
154.4465
20
258.1607
0
VERTEX
8
CUT
10
154.4085
20
257.9171
0
VERTEX
8
CUT
10
154.3965
20
257.7035
0
VERTEX
8
CUT
10
154.1558
20
256.1627
0
VERTEX
8
CUT
10
154.1285
20
255.8932
0
VERTEX
8
CUT
10
154.1306
20
255.6224
0
VERTEX
8
CUT
10
154.2951
20
252.9626
0
VERTEX
8
CUT
10
154.3424
20
252.6090
0
VERTEX
8
CUT
10
154.5111
20
251.7962
0
VERTEX
8
CUT
10
154.5750
20
251.5513
0
VERTEX
8
CUT
10
155.1472
20
249.7392
0
VERTEX
8
CUT
10
155.2672
20
249.4315
0
VERTEX
8
CUT
10
156.1978
20
247.4451
0
VERTEX
8
CUT
10
156.3215
20
247.2134
0
VERTEX
8
CUT
10
161.5929
20
238.4827
0
VERTEX
8
CUT
10
161.6799
20
238.3307
0
VERTEX
8
CUT
10
161.6948
20
238.3032
0
VERTEX
8
CUT
10
161.8470
20
237.9879
0
VERTEX
8
CUT
10
161.8593
20
237.9591
0
VERTEX
8
CUT
10
161.8815
20
237.9034
0
VERTEX
8
CUT
10
162.4866
20
236.2129
0
VERTEX
8
CUT
10
162.5117
20
236.1372
0
VERTEX
8
CUT
10
162.5164
20
236.1179
0
VERTEX
8
CUT
10
162.5485
20
235.9729
0
VERTEX
8
CUT
10
162.7727
20
234.8552
0
VERTEX
8
CUT
10
162.7743
20
234.8457
0
VERTEX
8
CUT
10
162.7963
20
234.7061
0
VERTEX
8
CUT
10
162.7981
20
234.6948
0
VERTEX
8
CUT
10
162.8053
20
234.6491
0
VERTEX
8
CUT
10
162.8146
20
234.5900
0
VERTEX
8
CUT
10
162.8467
20
234.2610
0
VERTEX
8
CUT
10
162.8483
20
234.2273
0
VERTEX
8
CUT
10
162.8524
20
234.0388
0
VERTEX
8
CUT
10
162.8493
20
233.0506
0
VERTEX
8
CUT
10
162.8435
20
232.8549
0
VERTEX
8
CUT
10
162.8416
20
232.8200
0
VERTEX
8
CUT
10
162.7995
20
232.4308
0
VERTEX
8
CUT
10
162.7939
20
232.3963
0
VERTEX
8
CUT
10
162.7577
20
232.2038
0
VERTEX
8
CUT
10
162.5771
20
231.3653
0
VERTEX
8
CUT
10
162.5303
20
231.1727
0
VERTEX
8
CUT
10
162.5210
20
231.1385
0
VERTEX
8
CUT
10
162.3972
20
230.7621
0
VERTEX
8
CUT
10
162.3844
20
230.7292
0
VERTEX
8
CUT
10
162.3077
20
230.5464
0
VERTEX
8
CUT
10
161.9583
20
229.7715
0
VERTEX
8
CUT
10
161.8731
20
229.5949
0
VERTEX
8
CUT
10
161.8570
20
229.5637
0
VERTEX
8
CUT
10
161.6594
20
229.2250
0
VERTEX
8
CUT
10
161.6402
20
229.1958
0
VERTEX
8
CUT
10
161.5283
20
229.0346
0
VERTEX
8
CUT
10
161.0544
20
228.3885
0
VERTEX
8
CUT
10
160.9205
20
228.2167
0
VERTEX
8
CUT
10
160.8958
20
228.1868
0
VERTEX
8
CUT
10
160.5994
20
227.8681
0
VERTEX
8
CUT
10
160.5713
20
227.8412
0
VERTEX
8
CUT
10
160.4097
20
227.6952
0
VERTEX
8
CUT
10
159.8611
20
227.2279
0
VERTEX
8
CUT
10
159.7104
20
227.1061
0
VERTEX
8
CUT
10
159.6830
20
227.0851
0
VERTEX
8
CUT
10
159.3639
20
226.8657
0
VERTEX
8
CUT
10
159.3344
20
226.8476
0
VERTEX
8
CUT
10
159.1667
20
226.7506
0
VERTEX
8
CUT
10
158.5675
20
226.4241
0
VERTEX
8
CUT
10
158.4287
20
226.3522
0
VERTEX
8
CUT
10
158.4036
20
226.3398
0
VERTEX
8
CUT
10
158.1407
20
226.2238
0
VERTEX
8
CUT
10
157.8690
20
226.1301
0
VERTEX
8
CUT
10
157.8421
20
226.1221
0
VERTEX
8
CUT
10
157.6915
20
226.0804
0
VERTEX
8
CUT
10
156.9948
20
225.9035
0
VERTEX
8
CUT
10
156.8312
20
225.8658
0
VERTEX
8
CUT
10
156.8018
20
225.8597
0
VERTEX
8
CUT
10
156.5523
20
225.8196
0
VERTEX
8
CUT
10
156.1849
20
225.7892
0
VERTEX
8
CUT
10
156.1594
20
225.7885
0
VERTEX
8
CUT
10
155.9916
20
225.7881
0
VERTEX
8
CUT
10
155.3376
20
225.8011
0
VERTEX
8
CUT
10
155.1231
20
225.8115
0
VERTEX
8
CUT
10
155.0850
20
225.8144
0
VERTEX
8
CUT
10
154.6597
20
225.8719
0
VERTEX
8
CUT
10
154.6221
20
225.8792
0
VERTEX
8
CUT
10
154.4126
20
225.9261
0
VERTEX
8
CUT
10
153.8912
20
226.0586
0
VERTEX
8
CUT
10
153.7425
20
226.0997
0
VERTEX
8
CUT
10
153.7161
20
226.1076
0
VERTEX
8
CUT
10
153.4244
20
226.2078
0
VERTEX
8
CUT
10
153.3986
20
226.2179
0
VERTEX
8
CUT
10
153.2561
20
226.2770
0
VERTEX
8
CUT
10
152.6980
20
226.5218
0
VERTEX
8
CUT
10
152.5015
20
226.6149
0
VERTEX
8
CUT
10
152.4670
20
226.6325
0
VERTEX
8
CUT
10
152.0919
20
226.8520
0
VERTEX
8
CUT
10
152.0596
20
226.8735
0
VERTEX
8
CUT
10
151.8822
20
226.9992
0
VERTEX
8
CUT
10
150.3658
20
228.1410
0
VERTEX
8
CUT
10
150.2380
20
228.2417
0
VERTEX
8
CUT
10
150.2156
20
228.2602
0
VERTEX
8
CUT
10
149.9932
20
228.4601
0
VERTEX
8
CUT
10
149.7889
20
228.6785
0
VERTEX
8
CUT
10
149.7700
20
228.7006
0
VERTEX
8
CUT
10
149.6668
20
228.8264
0
VERTEX
8
CUT
10
148.0035
20
230.9473
0
VERTEX
8
CUT
10
147.9075
20
231.0752
0
VERTEX
8
CUT
10
147.8908
20
231.0985
0
VERTEX
8
CUT
10
147.7156
20
231.3661
0
VERTEX
8
CUT
10
147.7009
20
231.3907
0
VERTEX
8
CUT
10
147.6133
20
231.5453
0
VERTEX
8
CUT
10
147.4843
20
231.7492
0
VERTEX
8
CUT
10
147.3362
20
231.9397
0
VERTEX
8
CUT
10
147.1705
20
232.1151
0
VERTEX
8
CUT
10
146.9886
20
232.2737
0
VERTEX
8
CUT
10
146.7923
20
232.4140
0
VERTEX
8
CUT
10
146.5834
20
232.5347
0
VERTEX
8
CUT
10
146.3639
20
232.6347
0
VERTEX
8
CUT
10
146.1357
20
232.7131
0
VERTEX
8
CUT
10
145.9010
20
232.7691
0
VERTEX
8
CUT
10
145.6620
20
232.8023
0
VERTEX
8
CUT
10
145.4209
20
232.8122
0
VERTEX
8
CUT
10
145.1800
20
232.7989
0
VERTEX
8
CUT
10
144.9415
20
232.7624
0
VERTEX
8
CUT
10
144.7076
20
232.7031
0
VERTEX
8
CUT
10
144.4806
20
232.6215
0
VERTEX
8
CUT
10
144.2624
20
232.5184
0
VERTEX
8
CUT
10
144.0552
20
232.3948
0
VERTEX
8
CUT
10
143.8609
20
232.2517
0
VERTEX
8
CUT
10
143.6813
20
232.0906
0
VERTEX
8
CUT
10
143.5181
20
231.9129
0
VERTEX
8
CUT
10
143.3727
20
231.7204
0
VERTEX
8
CUT
10
143.2466
20
231.5147
0
VERTEX
8
CUT
10
143.1409
20
231.2978
0
VERTEX
8
CUT
10
143.0566
20
231.0717
0
VERTEX
8
CUT
10
142.9945
20
230.8385
0
VERTEX
8
CUT
10
142.9551
20
230.6005
0
VERTEX
8
CUT
10
142.8652
20
229.8253
0
VERTEX
8
CUT
10
142.8500
20
229.6231
0
VERTEX
8
CUT
10
142.8512
20
229.4204
0
VERTEX
8
CUT
10
142.9161
20
228.0326
0
VERTEX
8
CUT
10
142.9550
20
227.6948
0
VERTEX
8
CUT
10
143.5460
20
224.4986
0
VERTEX
8
CUT
10
143.5803
20
224.3021
0
VERTEX
8
CUT
10
143.6366
20
224.0543
0
VERTEX
8
CUT
10
143.6732
20
223.9459
0
VERTEX
8
CUT
10
143.6913
20
223.8877
0
VERTEX
8
CUT
10
144.9412
20
220.3840
0
VERTEX
8
CUT
10
145.0205
20
220.1881
0
VERTEX
8
CUT
10
145.1162
20
219.9996
0
VERTEX
8
CUT
10
145.9911
20
218.4421
0
VERTEX
8
CUT
10
146.1709
20
218.1662
0
VERTEX
8
CUT
10
146.6435
20
217.5362
0
VERTEX
8
CUT
10
147.0827
20
216.8230
0
VERTEX
8
CUT
10
147.2782
20
216.5488
0
VERTEX
8
CUT
10
148.5224
20
215.0315
0
VERTEX
8
CUT
10
149.1017
20
214.2593
0
VERTEX
8
CUT
10
149.2798
20
214.0473
0
VERTEX
8
CUT
10
149.6683
20
213.6340
0
VERTEX
8
CUT
10
149.7363
20
213.5510
0
VERTEX
8
CUT
10
149.7572
20
213.5259
0
VERTEX
8
CUT
10
149.7610
20
213.5214
0
VERTEX
8
CUT
10
149.8526
20
213.4185
0
VERTEX
8
CUT
10
157.5454
20
205.2431
0
VERTEX
8
CUT
10
160.4793
20
201.8728
0
VERTEX
8
CUT
10
160.6153
20
201.7072
0
VERTEX
8
CUT
10
160.6386
20
201.6771
0
VERTEX
8
CUT
10
160.7788
20
201.4731
0
VERTEX
8
CUT
10
161.1093
20
200.9118
0
VERTEX
8
CUT
10
162.2155
20
198.8266
0
VERTEX
8
CUT
10
162.3060
20
198.6442
0
VERTEX
8
CUT
10
162.3104
20
198.6346
0
VERTEX
8
CUT
10
162.5633
20
197.9214
0
VERTEX
8
CUT
10
162.5750
20
197.8883
0
VERTEX
8
CUT
10
162.5757
20
197.8863
0
VERTEX
8
CUT
10
162.5762
20
197.8850
0
VERTEX
8
CUT
10
163.1663
20
195.7567
0
VERTEX
8
CUT
10
163.2047
20
195.6061
0
VERTEX
8
CUT
10
163.2110
20
195.5790
0
VERTEX
8
CUT
10
163.2690
20
195.2737
0
VERTEX
8
CUT
10
163.2730
20
195.2462
0
VERTEX
8
CUT
10
163.2925
20
195.0920
0
VERTEX
8
CUT
10
163.4624
20
193.4748
0
VERTEX
8
CUT
10
163.4805
20
193.2158
0
VERTEX
8
CUT
10
163.4868
20
193.0398
0
VERTEX
8
CUT
10
163.4870
20
192.7801
0
VERTEX
8
CUT
10
163.3966
20
190.1082
0
VERTEX
8
CUT
10
163.3837
20
189.9004
0
VERTEX
8
CUT
10
163.3804
20
189.8634
0
VERTEX
8
CUT
10
163.3245
20
189.4799
0
VERTEX
8
CUT
10
163.3036
20
189.3887
0
VERTEX
8
CUT
10
163.3007
20
189.3761
0
VERTEX
8
CUT
10
163.2753
20
189.2645
0
VERTEX
8
CUT
10
163.2464
20
189.1380
0
VERTEX
8
CUT
10
162.6312
20
186.7869
0
VERTEX
8
CUT
10
162.6178
20
186.7409
0
VERTEX
8
CUT
10
162.5761
20
186.6470
0
VERTEX
8
CUT
10
161.4222
20
184.2266
0
VERTEX
8
CUT
10
160.8294
20
183.0766
0
VERTEX
8
CUT
10
160.8022
20
183.0318
0
VERTEX
8
CUT
10
158.5598
20
179.6055
0
VERTEX
8
CUT
10
154.6325
20
173.7528
0
VERTEX
8
CUT
10
154.4917
20
173.5156
0
VERTEX
8
CUT
10
152.8276
20
170.3240
0
VERTEX
8
CUT
10
152.7092
20
170.0610
0
VERTEX
8
CUT
10
151.9206
20
167.9984
0
VERTEX
8
CUT
10
151.8236
20
167.6841
0
VERTEX
8
CUT
10
151.5926
20
166.7130
0
VERTEX
8
CUT
10
151.5142
20
166.4807
0
VERTEX
8
CUT
10
151.4368
20
166.1975
0
VERTEX
8
CUT
10
151.1759
20
164.9613
0
VERTEX
8
CUT
10
150.7917
20
163.3463
0
VERTEX
8
CUT
10
150.7504
20
163.1317
0
VERTEX
8
CUT
10
150.7281
20
162.9143
0
VERTEX
8
CUT
10
150.6108
20
160.9172
0
VERTEX
8
CUT
10
150.5185
20
160.0648
0
VERTEX
8
CUT
10
150.5042
20
159.8298
0
VERTEX
8
CUT
10
150.4914
20
158.8855
0
VERTEX
8
CUT
10
150.4608
20
158.3645
0
VERTEX
8
CUT
10
150.4572
20
158.1592
0
VERTEX
8
CUT
10
150.4704
20
157.9543
0
VERTEX
8
CUT
10
150.6310
20
156.4397
0
VERTEX
8
CUT
10
150.8950
20
153.8719
0
VERTEX
8
CUT
10
150.9186
20
153.7263
0
VERTEX
8
CUT
10
150.9825
20
153.1244
0
VERTEX
8
CUT
10
151.0457
20
152.7716
0
VERTEX
8
CUT
10
151.6821
20
150.2698
0
VERTEX
8
CUT
10
151.8104
20
149.6958
0
VERTEX
8
CUT
10
151.8719
20
149.4705
0
VERTEX
8
CUT
10
151.9352
20
149.2752
0
VERTEX
8
CUT
10
152.3153
20
147.7809
0
VERTEX
8
CUT
10
152.3733
20
147.5864
0
VERTEX
8
CUT
10
152.4469
20
147.3972
0
VERTEX
8
CUT
10
154.2389
20
143.2915
0
VERTEX
8
CUT
10
154.4833
20
142.6982
0
VERTEX
8
CUT
10
154.4946
20
142.6713
0
VERTEX
8
CUT
10
154.4965
20
142.6668
0
VERTEX
8
CUT
10
154.5470
20
142.5558
0
VERTEX
8
CUT
10
154.6786
20
142.2841
0
VERTEX
8
CUT
10
154.7232
20
142.1819
0
VERTEX
8
CUT
10
154.7548
20
142.1124
0
VERTEX
8
CUT
10
161.3966
20
128.0803
0
VERTEX
8
CUT
10
161.4747
20
127.9038
0
VERTEX
8
CUT
10
161.5246
20
127.7825
0
VERTEX
8
CUT
10
161.5935
20
127.6021
0
VERTEX
8
CUT
10
162.4602
20
125.1449
0
VERTEX
8
CUT
10
162.5126
20
124.9850
0
VERTEX
8
CUT
10
162.5214
20
124.9561
0
VERTEX
8
CUT
10
162.6044
20
124.6299
0
VERTEX
8
CUT
10
162.6105
20
124.6005
0
VERTEX
8
CUT
10
162.6410
20
124.4349
0
VERTEX
8
CUT
10
162.6618
20
124.3056
0
VERTEX
8
CUT
10
162.6860
20
124.1278
0
VERTEX
8
CUT
10
162.6896
20
124.0960
0
VERTEX
8
CUT
10
162.7106
20
123.7670
0
VERTEX
8
CUT
10
162.7011
20
123.4663
0
VERTEX
8
CUT
10
162.6628
20
123.1680
0
VERTEX
8
CUT
10
162.5962
20
122.8747
0
VERTEX
8
CUT
10
162.5019
20
122.5890
0
VERTEX
8
CUT
10
162.3808
20
122.3137
0
VERTEX
8
CUT
10
162.2339
20
122.0513
0
VERTEX
8
CUT
10
162.0708
20
121.8159
0
VERTEX
8
CUT
10
161.9386
20
121.6030
0
VERTEX
8
CUT
10
161.8284
20
121.3780
0
VERTEX
8
CUT
10
161.7412
20
121.1430
0
VERTEX
8
CUT
10
161.6780
20
120.9005
0
VERTEX
8
CUT
10
161.6394
20
120.6528
0
VERTEX
8
CUT
10
161.6258
20
120.4026
0
VERTEX
8
CUT
10
161.6373
20
120.1522
0
VERTEX
8
CUT
10
161.6739
20
119.9042
0
VERTEX
8
CUT
10
161.7350
20
119.6612
0
VERTEX
8
CUT
10
161.8202
20
119.4255
0
VERTEX
8
CUT
10
161.9286
20
119.1995
0
VERTEX
8
CUT
10
162.0591
20
118.9855
0
VERTEX
8
CUT
10
162.2103
20
118.7857
0
VERTEX
8
CUT
10
162.3808
20
118.6019
0
VERTEX
8
CUT
10
162.5688
20
118.4362
0
VERTEX
8
CUT
10
162.7724
20
118.2901
0
VERTEX
8
CUT
10
162.8187
20
118.2604
0
VERTEX
8
CUT
10
162.9749
20
118.1541
0
VERTEX
8
CUT
10
163.0023
20
118.1344
0
VERTEX
8
CUT
10
163.2739
20
117.9180
0
VERTEX
8
CUT
10
163.5223
20
117.6754
0
VERTEX
8
CUT
10
163.5453
20
117.6506
0
VERTEX
8
CUT
10
163.6701
20
117.5088
0
VERTEX
8
CUT
10
164.4413
20
116.5865
0
VERTEX
8
CUT
10
164.5388
20
116.4648
0
VERTEX
8
CUT
10
164.5558
20
116.4427
0
VERTEX
8
CUT
10
164.7208
20
116.2082
0
VERTEX
8
CUT
10
164.8657
20
115.9609
0
VERTEX
8
CUT
10
164.8788
20
115.9363
0
VERTEX
8
CUT
10
164.9491
20
115.7971
0
VERTEX
8
CUT
10
165.7071
20
114.2154
0
VERTEX
8
CUT
10
165.7819
20
114.0490
0
VERTEX
8
CUT
10
165.7946
20
114.0190
0
VERTEX
8
CUT
10
165.9094
20
113.7040
0
VERTEX
8
CUT
10
165.9931
20
113.3793
0
VERTEX
8
CUT
10
165.9997
20
113.3474
0
VERTEX
8
CUT
10
166.0323
20
113.1679
0
VERTEX
8
CUT
10
166.3373
20
111.2152
0
VERTEX
8
CUT
10
166.3698
20
110.9425
0
VERTEX
8
CUT
10
166.3850
20
110.7569
0
VERTEX
8
CUT
10
166.3973
20
110.4826
0
VERTEX
8
CUT
10
166.4220
20
107.5741
0
VERTEX
8
CUT
10
166.4159
20
107.3253
0
VERTEX
8
CUT
10
166.4061
20
107.1567
0
VERTEX
8
CUT
10
166.3835
20
106.9088
0
VERTEX
8
CUT
10
166.1311
20
104.8882
0
VERTEX
8
CUT
10
166.0969
20
104.6683
0
VERTEX
8
CUT
10
166.0693
20
104.5197
0
VERTEX
8
CUT
10
166.0222
20
104.3021
0
VERTEX
8
CUT
10
165.3639
20
101.6470
0
VERTEX
8
CUT
10
165.3328
20
101.5297
0
VERTEX
8
CUT
10
165.3104
20
101.4503
0
VERTEX
8
CUT
10
165.2755
20
101.3341
0
VERTEX
8
CUT
10
162.1433
20
91.4801
0
VERTEX
8
CUT
10
162.0845
20
91.2615
0
VERTEX
8
CUT
10
161.5319
20
88.7576
0
VERTEX
8
CUT
10
161.4877
20
88.4883
0
VERTEX
8
CUT
10
161.2620
20
86.4060
0
VERTEX
8
CUT
10
161.2476
20
86.1091
0
VERTEX
8
CUT
10
161.2573
20
85.2223
0
VERTEX
8
CUT
10
161.2532
20
84.9971
0
VERTEX
8
CUT
10
161.2561
20
84.9238
0
VERTEX
8
CUT
10
161.2516
20
84.6751
0
VERTEX
8
CUT
10
161.2558
20
84.4792
0
VERTEX
8
CUT
10
161.2666
20
84.3702
0
VERTEX
8
CUT
10
161.2736
20
83.7349
0
VERTEX
8
CUT
10
161.2842
20
83.5308
0
VERTEX
8
CUT
10
161.3114
20
83.3283
0
VERTEX
8
CUT
10
161.7224
20
80.9973
0
VERTEX
8
CUT
10
161.7758
20
80.7616
0
VERTEX
8
CUT
10
161.8517
20
80.5322
0
VERTEX
8
CUT
10
162.6108
20
78.5629
0
VERTEX
8
CUT
10
162.7221
20
78.3152
0
VERTEX
8
CUT
10
162.8596
20
78.0810
0
VERTEX
8
CUT
10
164.0777
20
76.2432
0
VERTEX
8
CUT
10
164.2090
20
76.0630
0
VERTEX
8
CUT
10
164.3559
20
75.8953
0
VERTEX
8
CUT
10
166.0988
20
74.0752
0
VERTEX
8
CUT
10
166.2322
20
73.9459
0
VERTEX
8
CUT
10
166.3749
20
73.8268
0
VERTEX
8
CUT
10
167.2604
20
73.1418
0
VERTEX
8
CUT
10
167.5546
20
72.9459
0
VERTEX
8
CUT
10
168.3844
20
72.4742
0
VERTEX
8
CUT
10
168.5878
20
72.3706
0
VERTEX
8
CUT
10
168.7998
20
72.2859
0
VERTEX
8
CUT
10
171.0524
20
71.5038
0
VERTEX
8
CUT
10
171.2512
20
71.4439
0
VERTEX
8
CUT
10
171.4543
20
71.4007
0
VERTEX
8
CUT
10
172.6065
20
71.2052
0
VERTEX
8
CUT
10
172.7939
20
71.1806
0
VERTEX
8
CUT
10
172.9826
20
71.1703
0
VERTEX
8
CUT
10
176.0457
20
71.1188
0
VERTEX
8
CUT
10
176.3249
20
71.1298
0
VERTEX
8
CUT
10
178.1377
20
71.3025
0
VERTEX
8
CUT
10
178.4171
20
71.3452
0
VERTEX
8
CUT
10
180.2239
20
71.7268
0
VERTEX
8
CUT
10
180.4904
20
71.7987
0
VERTEX
8
CUT
10
182.1805
20
72.3561
0
VERTEX
8
CUT
10
182.3604
20
72.4232
0
VERTEX
8
CUT
10
182.5347
20
72.5040
0
VERTEX
8
CUT
10
186.4443
20
74.5012
0
VERTEX
8
CUT
10
186.7567
20
74.6909
0
VERTEX
8
CUT
10
191.4695
20
78.0457
0
VERTEX
8
CUT
10
191.4904
20
78.0607
0
VERTEX
8
CUT
10
191.4941
20
78.0634
0
VERTEX
8
CUT
10
191.5805
20
78.1292
0
VERTEX
8
CUT
10
198.1988
20
83.3983
0
VERTEX
8
CUT
10
198.3480
20
83.5110
0
VERTEX
8
CUT
10
198.3751
20
83.5305
0
VERTEX
8
CUT
10
198.6641
20
83.7168
0
VERTEX
8
CUT
10
198.9433
20
83.8597
0
VERTEX
8
CUT
10
199.2354
20
83.9740
0
VERTEX
8
CUT
10
199.5374
20
84.0586
0
VERTEX
8
CUT
10
199.8463
20
84.1128
0
VERTEX
8
CUT
10
200.1591
20
84.1359
0
VERTEX
8
CUT
10
200.4727
20
84.1277
0
VERTEX
8
CUT
10
200.7838
20
84.0883
0
VERTEX
8
CUT
10
201.0895
20
84.0181
0
VERTEX
8
CUT
10
201.3867
20
83.9179
0
VERTEX
8
CUT
10
201.6724
20
83.7885
0
VERTEX
8
CUT
10
201.9438
20
83.6313
0
VERTEX
8
CUT
10
202.1982
20
83.4478
0
VERTEX
8
CUT
10
202.4331
20
83.2400
0
VERTEX
8
CUT
10
202.6461
20
83.0097
0
VERTEX
8
CUT
10
202.8350
20
82.7594
0
VERTEX
8
CUT
10
202.9981
20
82.4915
0
VERTEX
8
CUT
10
203.1338
20
82.2087
0
VERTEX
8
CUT
10
203.2405
20
81.9138
0
VERTEX
8
CUT
10
203.3174
20
81.6097
0
VERTEX
8
CUT
10
203.3635
20
81.2995
0
VERTEX
8
CUT
10
203.3786
20
80.9862
0
VERTEX
8
CUT
10
203.3623
20
80.6730
0
VERTEX
8
CUT
10
203.3150
20
80.3629
0
VERTEX
8
CUT
10
203.2370
20
80.0591
0
VERTEX
8
CUT
10
203.1187
20
79.7363
0
VERTEX
8
CUT
10
203.1057
20
79.7055
0
VERTEX
8
CUT
10
203.0284
20
79.5352
0
VERTEX
8
CUT
10
202.1816
20
77.7864
0
VERTEX
8
CUT
10
202.1069
20
77.6404
0
VERTEX
8
CUT
10
202.0540
20
77.5423
0
VERTEX
8
CUT
10
201.9730
20
77.3996
0
VERTEX
8
CUT
10
200.8104
20
75.4533
0
VERTEX
8
CUT
10
200.4439
20
74.8940
0
VERTEX
8
CUT
10
200.3322
20
74.7444
0
VERTEX
8
CUT
10
198.1609
20
72.0333
0
VERTEX
8
CUT
10
198.0603
20
71.9198
0
VERTEX
8
CUT
10
198.0244
20
71.8793
0
VERTEX
8
CUT
10
198.0198
20
71.8741
0
VERTEX
8
CUT
10
198.0177
20
71.8718
0
VERTEX
8
CUT
10
197.9159
20
71.7569
0
VERTEX
8
CUT
10
197.8722
20
71.7075
0
VERTEX
8
CUT
10
197.8690
20
71.7039
0
VERTEX
8
CUT
10
197.5017
20
71.3284
0
VERTEX
8
CUT
10
195.0229
20
68.9483
0
VERTEX
8
CUT
10
193.8810
20
68.0562
0
VERTEX
8
CUT
10
193.7946
20
67.9886
0
VERTEX
8
CUT
10
192.2129
20
66.7529
0
VERTEX
8
CUT
10
190.5730
20
65.4718
0
VERTEX
8
CUT
10
186.5546
20
63.0114
0
VERTEX
8
CUT
10
182.4228
20
61.1118
0
VERTEX
8
CUT
10
180.3762
20
60.2673
0
VERTEX
8
CUT
10
177.6020
20
59.4430
0
VERTEX
8
CUT
10
174.5121
20
58.7672
0
VERTEX
8
CUT
10
173.3587
20
58.5150
0
VERTEX
8
CUT
10
173.1275
20
58.4644
0
VERTEX
8
CUT
10
172.3208
20
58.2880
0
VERTEX
8
CUT
10
170.9347
20
58.0576
0
VERTEX
8
CUT
10
170.9233
20
58.0562
0
VERTEX
8
CUT
10
170.2802
20
57.9809
0
VERTEX
8
CUT
10
169.7594
20
57.9199
0
VERTEX
8
CUT
10
169.2333
20
57.8583
0
VERTEX
8
CUT
10
168.2675
20
57.8023
0
VERTEX
8
CUT
10
163.2123
20
57.6980
0
VERTEX
8
CUT
10
162.6397
20
57.6862
0
VERTEX
8
CUT
10
162.4669
20
57.6827
0
VERTEX
8
CUT
10
159.1372
20
57.8529
0
VERTEX
8
CUT
10
158.9523
20
57.8843
0
VERTEX
8
CUT
10
158.5619
20
57.9507
0
VERTEX
8
CUT
10
157.7166
20
58.0943
0
VERTEX
8
CUT
10
157.5696
20
58.1193
0
VERTEX
8
CUT
10
156.9983
20
58.2164
0
VERTEX
8
CUT
10
156.9409
20
58.2261
0
VERTEX
8
CUT
10
155.2235
20
58.5180
0
VERTEX
8
CUT
10
152.8979
20
58.9132
0
VERTEX
8
CUT
10
152.1684
20
59.0372
0
VERTEX
8
CUT
10
148.2632
20
60.1132
0
VERTEX
8
CUT
10
142.1924
20
62.3305
0
VERTEX
8
CUT
10
139.1847
20
63.7146
0
VERTEX
8
CUT
10
138.9929
20
63.8266
0
VERTEX
8
CUT
10
138.9006
20
63.8806
0
VERTEX
8
CUT
10
138.8927
20
63.8852
0
VERTEX
8
CUT
10
135.9720
20
65.5917
0
VERTEX
8
CUT
10
133.1958
20
67.2138
0
VERTEX
8
CUT
10
131.5200
20
68.3085
0
VERTEX
8
CUT
10
131.4092
20
68.3837
0
VERTEX
8
CUT
10
131.3348
20
68.4362
0
VERTEX
8
CUT
10
131.2267
20
68.5154
0
VERTEX
8
CUT
10
129.7441
20
69.6427
0
VERTEX
8
CUT
10
127.5684
20
71.5136
0
VERTEX
8
CUT
10
127.3718
20
71.6664
0
VERTEX
8
CUT
10
127.1610
20
71.7988
0
VERTEX
8
CUT
10
126.9380
20
71.9096
0
VERTEX
8
CUT
10
126.7051
20
71.9977
0
VERTEX
8
CUT
10
126.4646
20
72.0621
0
VERTEX
8
CUT
10
126.2188
20
72.1023
0
VERTEX
8
CUT
10
125.9703
20
72.1179
0
VERTEX
8
CUT
10
125.7215
20
72.1087
0
VERTEX
8
CUT
10
125.4749
20
72.0748
0
VERTEX
8
CUT
10
125.2328
20
72.0165
0
VERTEX
8
CUT
10
124.9977
20
71.9344
0
VERTEX
8
CUT
10
124.7720
20
71.8293
0
VERTEX
8
CUT
10
124.5578
20
71.7023
0
VERTEX
8
CUT
10
124.3573
20
71.5546
0
VERTEX
8
CUT
10
124.1725
20
71.3878
0
VERTEX
8
CUT
10
124.0053
20
71.2033
0
VERTEX
8
CUT
10
123.8572
20
71.0032
0
VERTEX
8
CUT
10
123.7297
20
70.7893
0
VERTEX
8
CUT
10
123.6242
20
70.5638
0
VERTEX
8
CUT
10
123.5416
20
70.3289
0
VERTEX
8
CUT
10
123.4828
20
70.0869
0
VERTEX
8
CUT
10
123.4483
20
69.8403
0
VERTEX
8
CUT
10
123.4386
20
69.5915
0
VERTEX
8
CUT
10
123.4536
20
69.3430
0
VERTEX
8
CUT
10
123.4683
20
69.2519
0
VERTEX
8
CUT
10
123.4871
20
69.0520
0
VERTEX
8
CUT
10
123.5334
20
68.8128
0
VERTEX
8
CUT
10
123.6028
20
68.5793
0
SEQEND
0
POLYLINE
8
CUT
66
1
70
1
10
0.0
20
0.0
30
0.0
0
VERTEX
8
CUT
10
223.9874
20
263.4309
0
VERTEX
8
CUT
10
223.9574
20
263.2313
0
VERTEX
8
CUT
10
223.9330
20
262.9916
0
VERTEX
8
CUT
10
223.9319
20
262.7507
0
VERTEX
8
CUT
10
223.9540
20
262.5107
0
VERTEX
8
CUT
10
224.0828
20
261.5964
0
VERTEX
8
CUT
10
224.1381
20
261.3186
0
VERTEX
8
CUT
10
224.2246
20
261.0488
0
VERTEX
8
CUT
10
224.4471
20
260.4693
0
VERTEX
8
CUT
10
224.5353
20
260.2670
0
VERTEX
8
CUT
10
224.5659
20
260.2108
0
VERTEX
8
CUT
10
224.5753
20
260.1890
0
VERTEX
8
CUT
10
224.6965
20
259.9703
0
VERTEX
8
CUT
10
224.9897
20
259.4990
0
VERTEX
8
CUT
10
225.1356
20
259.2891
0
VERTEX
8
CUT
10
225.3023
20
259.0951
0
VERTEX
8
CUT
10
225.4879
20
258.9192
0
VERTEX
8
CUT
10
226.5333
20
258.0253
0
VERTEX
8
CUT
10
226.7239
20
257.8776
0
VERTEX
8
CUT
10
226.9278
20
257.7490
0
VERTEX
8
CUT
10
227.1431
20
257.6406
0
VERTEX
8
CUT
10
227.3679
20
257.5535
0
VERTEX
8
CUT
10
228.4585
20
257.1902
0
VERTEX
8
CUT
10
228.7100
20
257.1207
0
VERTEX
8
CUT
10
228.9673
20
257.0779
0
VERTEX
8
CUT
10
229.2276
20
257.0621
0
VERTEX
8
CUT
10
229.4882
20
257.0735
0
VERTEX
8
CUT
10
230.8137
20
257.2011
0
VERTEX
8
CUT
10
231.0281
20
257.2312
0
VERTEX
8
CUT
10
231.2390
20
257.2797
0
VERTEX
8
CUT
10
231.4450
20
257.3462
0
VERTEX
8
CUT
10
231.6445
20
257.4304
0
VERTEX
8
CUT
10
232.8159
20
257.9853
0
VERTEX
8
CUT
10
233.0669
20
258.1224
0
VERTEX
8
CUT
10
233.3007
20
258.2872
0
VERTEX
8
CUT
10
233.5141
20
258.4776
0
VERTEX
8
CUT
10
233.8312
20
258.7950
0
VERTEX
8
CUT
10
233.9748
20
258.9516
0
VERTEX
8
CUT
10
234.1047
20
259.1198
0
VERTEX
8
CUT
10
234.2198
20
259.2984
0
VERTEX
8
CUT
10
234.4255
20
259.6496
0
VERTEX
8
CUT
10
234.5471
20
259.8848
0
VERTEX
8
CUT
10
234.6431
20
260.1317
0
VERTEX
8
CUT
10
234.7597
20
260.4863
0
VERTEX
8
CUT
10
234.7781
20
260.5209
0
VERTEX
8
CUT
10
234.8724
20
260.7516
0
VERTEX
8
CUT
10
234.9433
20
260.9905
0
VERTEX
8
CUT
10
234.9933
20
261.1961
0
VERTEX
8
CUT
10
235.1935
20
261.8043
0
VERTEX
8
CUT
10
235.2548
20
262.0241
0
VERTEX
8
CUT
10
235.2959
20
262.2484
0
VERTEX
8
CUT
10
235.3163
20
262.4756
0
VERTEX
8
CUT
10
235.3160
20
262.7037
0
VERTEX
8
CUT
10
235.3130
20
262.7677
0
VERTEX
8
CUT
10
235.3155
20
262.8067
0
VERTEX
8
CUT
10
235.3181
20
263.2922
0
VERTEX
8
CUT
10
235.3105
20
263.5019
0
VERTEX
8
CUT
10
235.2853
20
263.7102
0
VERTEX
8
CUT
10
235.2087
20
264.1771
0
VERTEX
8
CUT
10
235.1620
20
264.3987
0
VERTEX
8
CUT
10
235.0955
20
264.6152
0
VERTEX
8
CUT
10
235.0096
20
264.8248
0
VERTEX
8
CUT
10
234.7484
20
265.3878
0
VERTEX
8
CUT
10
234.6377
20
265.5994
0
VERTEX
8
CUT
10
234.5074
20
265.7994
0
VERTEX
8
CUT
10
234.3956
20
265.9395
0
VERTEX
8
CUT
10
233.8441
20
266.6844
0
VERTEX
8
CUT
10
233.7062
20
266.8546
0
VERTEX
8
CUT
10
233.5539
20
267.0120
0
VERTEX
8
CUT
10
233.3885
20
267.1555
0
VERTEX
8
CUT
10
232.6705
20
267.7250
0
VERTEX
8
CUT
10
232.4729
20
267.8667
0
VERTEX
8
CUT
10
232.2624
20
267.9885
0
VERTEX
8
CUT
10
232.0411
20
268.0893
0
VERTEX
8
CUT
10
231.1816
20
268.4312
0
VERTEX
8
CUT
10
230.9125
20
268.5210
0
VERTEX
8
CUT
10
230.6350
20
268.5796
0
VERTEX
8
CUT
10
230.3527
20
268.6065
0
VERTEX
8
CUT
10
229.4068
20
268.6426
0
VERTEX
8
CUT
10
229.1494
20
268.6391
0
VERTEX
8
CUT
10
228.8938
20
268.6092
0
VERTEX
8
CUT
10
228.6425
20
268.5532
0
VERTEX
8
CUT
10
227.5952
20
268.2623
0
VERTEX
8
CUT
10
227.3963
20
268.1980
0
VERTEX
8
CUT
10
227.2035
20
268.1173
0
VERTEX
8
CUT
10
227.0182
20
268.0208
0
VERTEX
8
CUT
10
226.4488
20
267.6935
0
VERTEX
8
CUT
10
226.2413
20
267.5601
0
VERTEX
8
CUT
10
226.0479
20
267.4069
0
VERTEX
8
CUT
10
225.5598
20
266.9796
0
VERTEX
8
CUT
10
225.3655
20
266.7897
0
VERTEX
8
CUT
10
225.1928
20
266.5799
0
VERTEX
8
CUT
10
224.9069
20
266.1911
0
VERTEX
8
CUT
10
224.7639
20
265.9739
0
VERTEX
8
CUT
10
224.6443
20
265.7429
0
VERTEX
8
CUT
10
224.5493
20
265.5008
0
VERTEX
8
CUT
10
224.3619
20
264.9389
0
VERTEX
8
CUT
10
224.2825
20
264.7629
0
VERTEX
8
CUT
10
224.1980
20
264.5503
0
VERTEX
8
CUT
10
224.1333
20
264.3308
0
VERTEX
8
CUT
10
224.0890
20
264.1063
0
VERTEX
8
CUT
10
224.0889
20
264.1054
0
VERTEX
8
CUT
10
224.0479
20
263.9589
0
VERTEX
8
CUT
10
224.0052
20
263.7175
0
VERTEX
8
CUT
10
223.9865
20
263.4731
0
SEQEND
0
POLYLINE
8
CUT
66
1
70
1
10
0.0
20
0.0
30
0.0
0
VERTEX
8
CUT
10
208.6130
20
29.9007
0
VERTEX
8
CUT
10
208.8571
20
29.9636
0
VERTEX
8
CUT
10
209.0937
20
30.0508
0
VERTEX
8
CUT
10
209.3203
20
30.1614
0
VERTEX
8
CUT
10
209.5346
20
30.2942
0
VERTEX
8
CUT
10
209.7344
20
30.4480
0
VERTEX
8
CUT
10
209.9177
20
30.6211
0
VERTEX
8
CUT
10
210.0827
20
30.8117
0
VERTEX
8
CUT
10
210.2276
20
31.0180
0
VERTEX
8
CUT
10
210.3510
20
31.2379
0
VERTEX
8
CUT
10
210.4443
20
31.4257
0
VERTEX
8
CUT
10
210.5620
20
31.7038
0
VERTEX
8
CUT
10
210.6454
20
31.9940
0
VERTEX
8
CUT
10
210.7574
20
32.4968
0
VERTEX
8
CUT
10
210.8056
20
32.7992
0
VERTEX
8
CUT
10
210.8165
20
33.1051
0
VERTEX
8
CUT
10
210.8039
20
33.5910
0
VERTEX
8
CUT
10
210.7783
20
33.8897
0
VERTEX
8
CUT
10
210.7170
20
34.1832
0
VERTEX
8
CUT
10
210.7014
20
34.2405
0
VERTEX
8
CUT
10
210.6940
20
34.2834
0
VERTEX
8
CUT
10
210.6292
20
34.5180
0
VERTEX
8
CUT
10
210.6177
20
34.5481
0
VERTEX
8
CUT
10
210.5908
20
34.6468
0
VERTEX
8
CUT
10
210.4958
20
34.9284
0
VERTEX
8
CUT
10
210.3682
20
35.1967
0
VERTEX
8
CUT
10
210.0337
20
35.8037
0
VERTEX
8
CUT
10
209.8843
20
36.0420
0
VERTEX
8
CUT
10
209.7092
20
36.2619
0
VERTEX
8
CUT
10
209.3259
20
36.6914
0
VERTEX
8
CUT
10
209.1626
20
36.8580
0
VERTEX
8
CUT
10
208.9844
20
37.0087
0
VERTEX
8
CUT
10
208.7930
20
37.1421
0
VERTEX
8
CUT
10
208.2844
20
37.4624
0
VERTEX
8
CUT
10
208.0802
20
37.5780
0
VERTEX
8
CUT
10
207.8661
20
37.6739
0
VERTEX
8
CUT
10
207.6440
20
37.7493
0
VERTEX
8
CUT
10
207.0670
20
37.9155
0
VERTEX
8
CUT
10
206.8046
20
37.9760
0
VERTEX
8
CUT
10
206.5372
20
38.0078
0
VERTEX
8
CUT
10
206.2680
20
38.0108
0
VERTEX
8
CUT
10
205.8006
20
37.9907
0
VERTEX
8
CUT
10
205.5845
20
37.9720
0
VERTEX
8
CUT
10
205.3709
20
37.9347
0
VERTEX
8
CUT
10
205.1613
20
37.8790
0
VERTEX
8
CUT
10
204.6221
20
37.7103
0
VERTEX
8
CUT
10
204.4170
20
37.6361
0
VERTEX
8
CUT
10
204.2191
20
37.5443
0
VERTEX
8
CUT
10
204.0299
20
37.4357
0
VERTEX
8
CUT
10
203.4930
20
37.0952
0
VERTEX
8
CUT
10
203.2984
20
36.9584
0
VERTEX
8
CUT
10
203.1178
20
36.8038
0
VERTEX
8
CUT
10
202.9527
20
36.6328
0
VERTEX
8
CUT
10
202.5985
20
36.2292
0
VERTEX
8
CUT
10
202.4470
20
36.0387
0
VERTEX
8
CUT
10
202.3149
20
35.8343
0
VERTEX
8
CUT
10
202.2032
20
35.6181
0
VERTEX
8
CUT
10
201.9795
20
35.1280
0
VERTEX
8
CUT
10
201.8969
20
34.9237
0
VERTEX
8
CUT
10
201.8327
20
34.7128
0
VERTEX
8
CUT
10
201.7872
20
34.4971
0
VERTEX
8
CUT
10
201.6753
20
33.8188
0
VERTEX
8
CUT
10
201.6491
20
33.6009
0
VERTEX
8
CUT
10
201.6421
20
33.3815
0
VERTEX
8
CUT
10
201.6544
20
33.1624
0
VERTEX
8
CUT
10
201.6632
20
33.1020
0
VERTEX
8
CUT
10
201.6791
20
32.9443
0
VERTEX
8
CUT
10
201.7636
20
32.3613
0
VERTEX
8
CUT
10
201.8088
20
32.1277
0
VERTEX
8
CUT
10
201.8761
20
31.8994
0
VERTEX
8
CUT
10
201.9648
20
31.6786
0
VERTEX
8
CUT
10
202.1341
20
31.3090
0
VERTEX
8
CUT
10
202.2432
20
31.0979
0
VERTEX
8
CUT
10
202.3719
20
30.8980
0
VERTEX
8
CUT
10
202.5190
20
30.7113
0
VERTEX
8
CUT
10
202.6831
20
30.5394
0
VERTEX
8
CUT
10
202.8629
20
30.3839
0
VERTEX
8
CUT
10
203.0565
20
30.2461
0
VERTEX
8
CUT
10
203.2624
20
30.1274
0
VERTEX
8
CUT
10
203.4787
20
30.0287
0
VERTEX
8
CUT
10
203.7033
20
29.9511
0
VERTEX
8
CUT
10
203.9343
20
29.8951
0
VERTEX
8
CUT
10
204.1696
20
29.8613
0
VERTEX
8
CUT
10
204.4070
20
29.8500
0
VERTEX
8
CUT
10
204.4479
20
29.8500
0
VERTEX
8
CUT
10
207.9845
20
29.8500
0
VERTEX
8
CUT
10
208.1119
20
29.8500
0
VERTEX
8
CUT
10
208.3637
20
29.8627
0
SEQEND
0
POLYLINE
8
CUT
66
1
70
1
10
0.0
20
0.0
30
0.0
0
VERTEX
8
CUT
10
201.3426
20
266.4121
0
VERTEX
8
CUT
10
201.3950
20
266.5211
0
VERTEX
8
CUT
10
201.4886
20
266.7426
0
VERTEX
8
CUT
10
201.5606
20
266.9720
0
VERTEX
8
CUT
10
201.6101
20
267.2072
0
VERTEX
8
CUT
10
201.6368
20
267.4462
0
VERTEX
8
CUT
10
201.6405
20
267.6866
0
VERTEX
8
CUT
10
201.6210
20
267.9262
0
VERTEX
8
CUT
10
201.5787
20
268.1629
0
VERTEX
8
CUT
10
201.5137
20
268.3944
0
VERTEX
8
CUT
10
201.4269
20
268.6185
0
VERTEX
8
CUT
10
201.3189
20
268.8333
0
VERTEX
8
CUT
10
201.1908
20
269.0368
0
VERTEX
8
CUT
10
201.1588
20
269.0825
0
VERTEX
8
CUT
10
201.0120
20
269.2724
0
VERTEX
8
CUT
10
200.8476
20
269.4474
0
VERTEX
8
CUT
10
200.6672
20
269.6057
0
VERTEX
8
CUT
10
200.4724
20
269.7461
0
VERTEX
8
CUT
10
200.2651
20
269.8671
0
VERTEX
8
CUT
10
200.0471
20
269.9677
0
VERTEX
8
CUT
10
199.8205
20
270.0469
0
VERTEX
8
CUT
10
199.5873
20
270.1040
0
VERTEX
8
CUT
10
199.3497
20
270.1385
0
VERTEX
8
CUT
10
199.1099
20
270.1500
0
VERTEX
8
CUT
10
198.6891
20
270.1500
0
VERTEX
8
CUT
10
198.4510
20
270.1386
0
VERTEX
8
CUT
10
198.2150
20
270.1046
0
VERTEX
8
CUT
10
197.9833
20
270.0483
0
VERTEX
8
CUT
10
197.7580
20
269.9701
0
VERTEX
8
CUT
10
197.5413
20
269.8709
0
VERTEX
8
CUT
10
197.3349
20
269.7514
0
VERTEX
8
CUT
10
197.1409
20
269.6129
0
VERTEX
8
CUT
10
196.9609
20
269.4565
0
VERTEX
8
CUT
10
196.7967
20
269.2836
0
VERTEX
8
CUT
10
196.6497
20
269.0959
0
VERTEX
8
CUT
10
196.6228
20
269.0579
0
VERTEX
8
CUT
10
196.4946
20
268.8576
0
VERTEX
8
CUT
10
196.3860
20
268.6459
0
VERTEX
8
CUT
10
196.2980
20
268.4249
0
VERTEX
8
CUT
10
196.2315
20
268.1965
0
VERTEX
8
CUT
10
196.1869
20
267.9629
0
VERTEX
8
CUT
10
196.1648
20
267.7260
0
VERTEX
8
CUT
10
196.1653
20
267.4882
0
VERTEX
8
CUT
10
196.1883
20
267.2514
0
VERTEX
8
CUT
10
196.2338
20
267.0179
0
VERTEX
8
CUT
10
196.3013
20
266.7898
0
VERTEX
8
CUT
10
196.3901
20
266.5692
0
VERTEX
8
CUT
10
196.4995
20
266.3580
0
VERTEX
8
CUT
10
196.6285
20
266.1581
0
VERTEX
8
CUT
10
196.8513
20
265.8464
0
VERTEX
8
CUT
10
197.0078
20
265.6493
0
VERTEX
8
CUT
10
197.1832
20
265.4690
0
VERTEX
8
CUT
10
197.3760
20
265.3072
0
VERTEX
8
CUT
10
197.5840
20
265.1656
0
VERTEX
8
CUT
10
197.8052
20
265.0456
0
VERTEX
8
CUT
10
198.0373
20
264.9484
0
VERTEX
8
CUT
10
198.2780
20
264.8751
0
VERTEX
8
CUT
10
198.5249
20
264.8264
0
VERTEX
8
CUT
10
198.7754
20
264.8027
0
VERTEX
8
CUT
10
199.0271
20
264.8044
0
VERTEX
8
CUT
10
199.2773
20
264.8313
0
VERTEX
8
CUT
10
199.5235
20
264.8832
0
VERTEX
8
CUT
10
199.7632
20
264.9597
0
VERTEX
8
CUT
10
199.9941
20
265.0598
0
VERTEX
8
CUT
10
200.2137
20
265.1826
0
VERTEX
8
CUT
10
200.4199
20
265.3269
0
VERTEX
8
CUT
10
200.6105
20
265.4912
0
VERTEX
8
CUT
10
200.8149
20
265.6862
0
VERTEX
8
CUT
10
200.9709
20
265.8491
0
VERTEX
8
CUT
10
201.1116
20
266.0253
0
VERTEX
8
CUT
10
201.2358
20
266.2135
0
SEQEND
0
POLYLINE
8
CUT
66
1
70
1
10
0.0
20
0.0
30
0.0
0
VERTEX
8
CUT
10
153.6029
20
33.0364
0
VERTEX
8
CUT
10
153.7167
20
32.8063
0
VERTEX
8
CUT
10
153.8535
20
32.5890
0
VERTEX
8
CUT
10
154.0119
20
32.3869
0
VERTEX
8
CUT
10
154.1901
20
32.2021
0
VERTEX
8
CUT
10
154.6727
20
31.7507
0
VERTEX
8
CUT
10
154.8612
20
31.5910
0
VERTEX
8
CUT
10
155.0646
20
31.4508
0
VERTEX
8
CUT
10
155.2808
20
31.3313
0
VERTEX
8
CUT
10
155.5077
20
31.2337
0
VERTEX
8
CUT
10
155.7432
20
31.1590
0
VERTEX
8
CUT
10
155.9849
20
31.1079
0
VERTEX
8
CUT
10
156.2304
20
31.0809
0
VERTEX
8
CUT
10
156.4774
20
31.0783
0
VERTEX
8
CUT
10
157.2085
20
31.1066
0
VERTEX
8
CUT
10
157.4580
20
31.1289
0
VERTEX
8
CUT
10
157.7040
20
31.1760
0
VERTEX
8
CUT
10
157.9441
20
31.2474
0
VERTEX
8
CUT
10
158.1758
20
31.3426
0
VERTEX
8
CUT
10
158.3405
20
31.4200
0
VERTEX
8
CUT
10
158.5345
20
31.5219
0
VERTEX
8
CUT
10
158.7189
20
31.6404
0
VERTEX
8
CUT
10
158.8921
20
31.7746
0
VERTEX
8
CUT
10
158.9173
20
31.7959
0
VERTEX
8
CUT
10
159.0834
20
31.9501
0
VERTEX
8
CUT
10
159.2349
20
32.1187
0
VERTEX
8
CUT
10
159.3705
20
32.3003
0
VERTEX
8
CUT
10
159.4891
20
32.4935
0
VERTEX
8
CUT
10
159.7150
20
32.9019
0
VERTEX
8
CUT
10
159.8318
20
33.1427
0
VERTEX
8
CUT
10
159.9222
20
33.3947
0
VERTEX
8
CUT
10
159.9852
20
33.6548
0
VERTEX
8
CUT
10
160.0200
20
33.9202
0
VERTEX
8
CUT
10
160.0572
20
34.4043
0
VERTEX
8
CUT
10
160.0642
20
34.6421
0
VERTEX
8
CUT
10
160.0485
20
34.8795
0
VERTEX
8
CUT
10
160.0103
20
35.1143
0
VERTEX
8
CUT
10
159.9500
20
35.3444
0
VERTEX
8
CUT
10
159.8680
20
35.5677
0
VERTEX
8
CUT
10
159.7653
20
35.7823
0
VERTEX
8
CUT
10
159.6426
20
35.9861
0
VERTEX
8
CUT
10
159.2455
20
36.5796
0
VERTEX
8
CUT
10
159.1074
20
36.7666
0
VERTEX
8
CUT
10
158.9526
20
36.9399
0
VERTEX
8
CUT
10
158.7823
20
37.0982
0
VERTEX
8
CUT
10
158.5980
20
37.2399
0
VERTEX
8
CUT
10
158.5065
20
37.3038
0
VERTEX
8
CUT
10
158.2972
20
37.4349
0
VERTEX
8
CUT
10
158.0761
20
37.5447
0
VERTEX
8
CUT
10
157.8451
20
37.6322
0
VERTEX
8
CUT
10
157.6067
20
37.6965
0
VERTEX
8
CUT
10
157.3631
20
37.7369
0
VERTEX
8
CUT
10
157.1167
20
37.7531
0
VERTEX
8
CUT
10
156.5037
20
37.7631
0
VERTEX
8
CUT
10
156.2265
20
37.7522
0
VERTEX
8
CUT
10
155.9523
20
37.7107
0
VERTEX
8
CUT
10
155.6843
20
37.6390
0
VERTEX
8
CUT
10
155.2859
20
37.5084
0
VERTEX
8
CUT
10
155.0487
20
37.4171
0
VERTEX
8
CUT
10
154.8221
20
37.3022
0
VERTEX
8
CUT
10
154.6083
20
37.1648
0
VERTEX
8
CUT
10
154.4095
20
37.0065
0
VERTEX
8
CUT
10
154.2278
20
36.8287
0
VERTEX
8
CUT
10
154.0651
20
36.6335
0
VERTEX
8
CUT
10
153.9231
20
36.4228
0
VERTEX
8
CUT
10
153.8034
20
36.2239
0
VERTEX
8
CUT
10
153.6889
20
36.0112
0
VERTEX
8
CUT
10
153.5954
20
35.7885
0
VERTEX
8
CUT
10
153.5239
20
35.5577
0
VERTEX
8
CUT
10
153.4750
20
35.3212
0
VERTEX
8
CUT
10
153.3771
20
34.6967
0
VERTEX
8
CUT
10
153.3511
20
34.4540
0
VERTEX
8
CUT
10
153.3490
20
34.2098
0
VERTEX
8
CUT
10
153.3706
20
33.9666
0
VERTEX
8
CUT
10
153.4040
20
33.7256
0
VERTEX
8
CUT
10
153.4448
20
33.5043
0
VERTEX
8
CUT
10
153.5055
20
33.2876
0
VERTEX
8
CUT
10
153.5853
20
33.0771
0
SEQEND
0
POLYLINE
8
CUT
66
1
70
1
10
0.0
20
0.0
30
0.0
0
VERTEX
8
CUT
10
124.4048
20
102.9257
0
VERTEX
8
CUT
10
124.4849
20
102.7071
0
VERTEX
8
CUT
10
124.5400
20
102.5761
0
VERTEX
8
CUT
10
124.6064
20
102.4102
0
VERTEX
8
CUT
10
124.6432
20
102.3304
0
VERTEX
8
CUT
10
124.8673
20
101.7972
0
VERTEX
8
CUT
10
124.9105
20
101.6908
0
VERTEX
8
CUT
10
124.9179
20
101.6768
0
VERTEX
8
CUT
10
125.0736
20
101.3062
0
VERTEX
8
CUT
10
125.2114
20
101.0281
0
VERTEX
8
CUT
10
125.3762
20
100.7416
0
VERTEX
8
CUT
10
125.4958
20
100.4825
0
VERTEX
8
CUT
10
125.6087
20
100.2661
0
VERTEX
8
CUT
10
125.7422
20
100.0618
0
VERTEX
8
CUT
10
125.8634
20
99.8947
0
VERTEX
8
CUT
10
126.0564
20
99.5593
0
VERTEX
8
CUT
10
126.2080
20
99.3267
0
VERTEX
8
CUT
10
126.3845
20
99.1123
0
VERTEX
8
CUT
10
127.4174
20
97.9907
0
VERTEX
8
CUT
10
127.6263
20
97.7888
0
VERTEX
8
CUT
10
127.8573
20
97.6125
0
VERTEX
8
CUT
10
128.2287
20
97.3617
0
VERTEX
8
CUT
10
128.4505
20
97.2281
0
VERTEX
8
CUT
10
128.6849
20
97.1182
0
VERTEX
8
CUT
10
129.1510
20
96.9284
0
VERTEX
8
CUT
10
129.1963
20
96.8999
0
VERTEX
8
CUT
10
129.4463
20
96.7792
0
VERTEX
8
CUT
10
129.9496
20
96.5699
0
VERTEX
8
CUT
10
130.1643
20
96.4918
0
VERTEX
8
CUT
10
130.3852
20
96.4337
0
VERTEX
8
CUT
10
130.6105
20
96.3961
0
VERTEX
8
CUT
10
130.9681
20
96.3530
0
VERTEX
8
CUT
10
131.2493
20
96.3086
0
VERTEX
8
CUT
10
131.5747
20
96.2788
0
VERTEX
8
CUT
10
131.5852
20
96.2785
0
VERTEX
8
CUT
10
131.8348
20
96.2484
0
VERTEX
8
CUT
10
132.0327
20
96.2325
0
VERTEX
8
CUT
10
132.2312
20
96.2324
0
VERTEX
8
CUT
10
132.6888
20
96.2501
0
VERTEX
8
CUT
10
133.4154
20
96.2314
0
VERTEX
8
CUT
10
133.7049
20
96.2408
0
VERTEX
8
CUT
10
133.9913
20
96.2835
0
VERTEX
8
CUT
10
134.5716
20
96.4048
0
VERTEX
8
CUT
10
134.7989
20
96.4636
0
VERTEX
8
CUT
10
135.0197
20
96.5434
0
VERTEX
8
CUT
10
135.2321
20
96.6436
0
VERTEX
8
CUT
10
135.4233
20
96.7451
0
VERTEX
8
CUT
10
135.5942
20
96.8054
0
VERTEX
8
CUT
10
135.7993
20
96.8993
0
VERTEX
8
CUT
10
135.9950
20
97.0113
0
VERTEX
8
CUT
10
136.1799
20
97.1404
0
VERTEX
8
CUT
10
136.2063
20
97.1607
0
VERTEX
8
CUT
10
136.6057
20
97.3727
0
VERTEX
8
CUT
10
136.7925
20
97.4824
0
VERTEX
8
CUT
10
136.9690
20
97.6079
0
VERTEX
8
CUT
10
137.3671
20
97.9177
0
VERTEX
8
CUT
10
137.5784
20
98.0600
0
VERTEX
8
CUT
10
137.7757
20
98.2248
0
VERTEX
8
CUT
10
137.8188
20
98.2691
0
VERTEX
8
CUT
10
137.8495
20
98.2930
0
VERTEX
8
CUT
10
138.0608
20
98.4774
0
VERTEX
8
CUT
10
139.0253
20
99.4191
0
VERTEX
8
CUT
10
139.2111
20
99.6216
0
VERTEX
8
CUT
10
140.8577
20
101.6276
0
VERTEX
8
CUT
10
140.9888
20
101.7788
0
VERTEX
8
CUT
10
141.0129
20
101.8052
0
VERTEX
8
CUT
10
141.2816
20
102.0693
0
VERTEX
8
CUT
10
141.4618
20
102.2279
0
VERTEX
8
CUT
10
141.6372
20
102.4178
0
VERTEX
8
CUT
10
141.7920
20
102.6248
0
VERTEX
8
CUT
10
141.9247
20
102.8467
0
VERTEX
8
CUT
10
142.0337
20
103.0811
0
VERTEX
8
CUT
10
142.1179
20
103.3255
0
VERTEX
8
CUT
10
142.1764
20
103.5773
0
VERTEX
8
CUT
10
142.2087
20
103.8338
0
VERTEX
8
CUT
10
142.2246
20
104.0507
0
VERTEX
8
CUT
10
142.2303
20
104.3014
0
VERTEX
8
CUT
10
142.2110
20
104.5513
0
VERTEX
8
CUT
10
142.1667
20
104.7981
0
VERTEX
8
CUT
10
142.0979
20
105.0392
0
VERTEX
8
CUT
10
142.0053
20
105.2722
0
VERTEX
8
CUT
10
141.8898
20
105.4948
0
VERTEX
8
CUT
10
141.7527
20
105.7046
0
VERTEX
8
CUT
10
141.5951
20
105.8997
0
VERTEX
8
CUT
10
141.4189
20
106.0780
0
VERTEX
8
CUT
10
141.2257
20
106.2378
0
VERTEX
8
CUT
10
141.0174
20
106.3774
0
VERTEX
8
CUT
10
140.7962
20
106.4954
0
VERTEX
8
CUT
10
140.4290
20
106.6683
0
VERTEX
8
CUT
10
140.1531
20
106.8346
0
VERTEX
8
CUT
10
139.8957
20
107.0283
0
VERTEX
8
CUT
10
139.6368
20
107.2683
0
VERTEX
8
CUT
10
139.6128
20
107.2929
0
VERTEX
8
CUT
10
139.4824
20
107.4339
0
VERTEX
8
CUT
10
138.2731
20
108.8104
0
VERTEX
8
CUT
10
138.0987
20
108.9899
0
VERTEX
8
CUT
10
137.9072
20
109.1511
0
VERTEX
8
CUT
10
136.9097
20
109.9089
0
VERTEX
8
CUT
10
136.6949
20
110.0551
0
VERTEX
8
CUT
10
136.4661
20
110.1783
0
VERTEX
8
CUT
10
135.3875
20
110.6882
0
VERTEX
8
CUT
10
135.1555
20
110.7840
0
VERTEX
8
CUT
10
134.9150
20
110.8560
0
VERTEX
8
CUT
10
133.8159
20
111.1259
0
VERTEX
8
CUT
10
133.5618
20
111.1745
0
VERTEX
8
CUT
10
133.3040
20
111.1966
0
VERTEX
8
CUT
10
132.1924
20
111.2341
0
VERTEX
8
CUT
10
131.9161
20
111.2281
0
VERTEX
8
CUT
10
131.6422
20
111.1917
0
VERTEX
8
CUT
10
130.5731
20
110.9889
0
VERTEX
8
CUT
10
130.3019
20
110.9216
0
VERTEX
8
CUT
10
130.0400
20
110.8244
0
VERTEX
8
CUT
10
129.0050
20
110.3732
0
VERTEX
8
CUT
10
128.7658
20
110.2533
0
VERTEX
8
CUT
10
128.5407
20
110.1085
0
VERTEX
8
CUT
10
128.2713
20
109.9140
0
VERTEX
8
CUT
10
128.0142
20
109.7521
0
VERTEX
8
CUT
10
127.8153
20
109.6129
0
VERTEX
8
CUT
10
127.6309
20
109.4551
0
VERTEX
8
CUT
10
127.6154
20
109.4405
0
VERTEX
8
CUT
10
127.1913
20
109.1344
0
VERTEX
8
CUT
10
127.0471
20
109.0353
0
VERTEX
8
CUT
10
127.0209
20
109.0182
0
VERTEX
8
CUT
10
126.7438
20
108.8551
0
VERTEX
8
CUT
10
126.4782
20
108.7305
0
VERTEX
8
CUT
10
126.2021
20
108.6312
0
VERTEX
8
CUT
10
125.9180
20
108.5580
0
VERTEX
8
CUT
10
125.8900
20
108.5536
0
VERTEX
8
CUT
10
125.6422
20
108.5009
0
VERTEX
8
CUT
10
125.4009
20
108.4234
0
VERTEX
8
CUT
10
125.1688
20
108.3219
0
VERTEX
8
CUT
10
124.9481
20
108.1974
0
VERTEX
8
CUT
10
124.7411
20
108.0512
0
VERTEX
8
CUT
10
124.5500
20
107.8848
0
VERTEX
8
CUT
10
124.3767
20
107.6999
0
VERTEX
8
CUT
10
124.2230
20
107.4984
0
VERTEX
8
CUT
10
124.0906
20
107.2824
0
VERTEX
8
CUT
10
123.9806
20
107.0541
0
VERTEX
8
CUT
10
123.8944
20
106.8158
0
VERTEX
8
CUT
10
123.8327
20
106.5701
0
VERTEX
8
CUT
10
123.7962
20
106.3193
0
VERTEX
8
CUT
10
123.7852
20
106.0661
0
VERTEX
8
CUT
10
123.7857
20
106.0041
0
VERTEX
8
CUT
10
123.8006
20
105.7497
0
VERTEX
8
CUT
10
123.8413
20
105.4981
0
VERTEX
8
CUT
10
124.3454
20
103.1508
0
SEQEND
0
POLYLINE
8
CUT
66
1
70
1
10
0.0
20
0.0
30
0.0
0
VERTEX
8
CUT
10
104.3908
20
169.9516
0
VERTEX
8
CUT
10
104.1512
20
169.9166
0
VERTEX
8
CUT
10
103.9161
20
169.8586
0
VERTEX
8
CUT
10
103.6877
20
169.7781
0
VERTEX
8
CUT
10
103.4682
20
169.6759
0
VERTEX
8
CUT
10
103.2596
20
169.5529
0
VERTEX
8
CUT
10
103.0639
20
169.4103
0
VERTEX
8
CUT
10
102.8829
20
169.2495
0
VERTEX
8
CUT
10
102.7183
20
169.0719
0
VERTEX
8
CUT
10
102.5716
20
168.8792
0
VERTEX
8
CUT
10
102.4443
20
168.6732
0
VERTEX
8
CUT
10
102.3375
20
168.4559
0
VERTEX
8
CUT
10
102.2523
20
168.2292
0
VERTEX
8
CUT
10
102.1893
20
167.9954
0
VERTEX
8
CUT
10
102.1493
20
167.7566
0
VERTEX
8
CUT
10
102.1326
20
167.5150
0
VERTEX
8
CUT
10
102.1393
20
167.2729
0
VERTEX
8
CUT
10
102.1694
20
167.0327
0
VERTEX
8
CUT
10
102.2226
20
166.7965
0
VERTEX
8
CUT
10
102.2984
20
166.5665
0
VERTEX
8
CUT
10
102.3961
20
166.3449
0
VERTEX
8
CUT
10
102.5148
20
166.1339
0
VERTEX
8
CUT
10
102.6534
20
165.9353
0
VERTEX
8
CUT
10
102.8105
20
165.7510
0
VERTEX
8
CUT
10
102.9847
20
165.5828
0
VERTEX
8
CUT
10
103.1744
20
165.4323
0
VERTEX
8
CUT
10
103.3777
20
165.3008
0
VERTEX
8
CUT
10
103.5928
20
165.1895
0
VERTEX
8
CUT
10
103.8176
20
165.0997
0
VERTEX
8
CUT
10
105.4961
20
164.5214
0
VERTEX
8
CUT
10
105.6062
20
164.4815
0
VERTEX
8
CUT
10
105.6806
20
164.4532
0
VERTEX
8
CUT
10
105.7893
20
164.4100
0
VERTEX
8
CUT
10
109.9862
20
162.6639
0
VERTEX
8
CUT
10
110.0126
20
162.6528
0
VERTEX
8
CUT
10
110.0304
20
162.6452
0
VERTEX
8
CUT
10
110.0567
20
162.6339
0
VERTEX
8
CUT
10
125.1280
20
156.0926
0
VERTEX
8
CUT
10
125.3537
20
156.0074
0
VERTEX
8
CUT
10
125.5866
20
155.9442
0
VERTEX
8
CUT
10
125.8245
20
155.9039
0
VERTEX
8
CUT
10
126.0651
20
155.8866
0
VERTEX
8
CUT
10
126.3063
20
155.8927
0
VERTEX
8
CUT
10
126.5458
20
155.9219
0
VERTEX
8
CUT
10
126.7814
20
155.9741
0
VERTEX
8
CUT
10
127.0108
20
156.0488
0
VERTEX
8
CUT
10
127.2320
20
156.1452
0
VERTEX
8
CUT
10
127.4429
20
156.2626
0
VERTEX
8
CUT
10
127.6414
20
156.3996
0
VERTEX
8
CUT
10
127.8258
20
156.5552
0
VERTEX
8
CUT
10
127.9944
20
156.7279
0
VERTEX
8
CUT
10
128.1455
20
156.9160
0
VERTEX
8
CUT
10
128.2778
20
157.1178
0
VERTEX
8
CUT
10
128.3900
20
157.3314
0
VERTEX
8
CUT
10
128.4811
20
157.5548
0
VERTEX
8
CUT
10
128.5503
20
157.7860
0
VERTEX
8
CUT
10
128.5968
20
158.0227
0
VERTEX
8
CUT
10
128.6203
20
158.2629
0
VERTEX
8
CUT
10
128.6205
20
158.5042
0
VERTEX
8
CUT
10
128.5975
20
158.7443
0
VERTEX
8
CUT
10
128.5575
20
158.9499
0
VERTEX
8
CUT
10
128.5115
20
159.2712
0
VERTEX
8
CUT
10
128.4980
20
159.5798
0
VERTEX
8
CUT
10
128.5148
20
159.8882
0
VERTEX
8
CUT
10
128.5617
20
160.1934
0
VERTEX
8
CUT
10
128.6384
20
160.4926
0
VERTEX
8
CUT
10
128.7441
20
160.7829
0
VERTEX
8
CUT
10
128.8777
20
161.0613
0
VERTEX
8
CUT
10
129.0380
20
161.3254
0
VERTEX
8
CUT
10
129.2234
20
161.5724
0
VERTEX
8
CUT
10
129.4322
20
161.8000
0
VERTEX
8
CUT
10
129.6623
20
162.0061
0
VERTEX
8
CUT
10
129.9115
20
162.1886
0
VERTEX
8
CUT
10
130.1773
20
162.3457
0
VERTEX
8
CUT
10
130.4843
20
162.4886
0
VERTEX
8
CUT
10
130.5148
20
162.5010
0
VERTEX
8
CUT
10
130.6870
20
162.5662
0
VERTEX
8
CUT
10
131.8754
20
162.9830
0
VERTEX
8
CUT
10
132.0836
20
163.0667
0
VERTEX
8
CUT
10
132.2836
20
163.1688
0
VERTEX
8
CUT
10
133.8966
20
164.0859
0
VERTEX
8
CUT
10
134.0978
20
164.2134
0
VERTEX
8
CUT
10
134.2861
20
164.3595
0
VERTEX
8
CUT
10
135.7833
20
165.6402
0
VERTEX
8
CUT
10
135.9500
20
165.7966
0
VERTEX
8
CUT
10
136.1018
20
165.9676
0
VERTEX
8
CUT
10
137.3992
20
167.5714
0
VERTEX
8
CUT
10
137.5210
20
167.7351
0
VERTEX
8
CUT
10
137.6289
20
167.9081
0
VERTEX
8
CUT
10
138.7421
20
169.8660
0
VERTEX
8
CUT
10
138.8276
20
170.0304
0
VERTEX
8
CUT
10
138.9008
20
170.2007
0
VERTEX
8
CUT
10
139.3908
20
171.4691
0
VERTEX
8
CUT
10
139.8931
20
172.7590
0
VERTEX
8
CUT
10
139.9281
20
172.8599
0
VERTEX
8
CUT
10
140.0599
20
173.2011
0
VERTEX
8
CUT
10
140.1313
20
173.4138
0
VERTEX
8
CUT
10
140.1833
20
173.6321
0
VERTEX
8
CUT
10
140.6212
20
175.9198
0
VERTEX
8
CUT
10
140.6510
20
176.1176
0
VERTEX
8
CUT
10
140.6648
20
176.3171
0
VERTEX
8
CUT
10
140.7231
20
178.3191
0
VERTEX
8
CUT
10
140.7942
20
179.1626
0
VERTEX
8
CUT
10
140.7970
20
179.1979
0
VERTEX
8
CUT
10
140.7974
20
179.2044
0
VERTEX
8
CUT
10
140.8034
20
179.3533
0
VERTEX
8
CUT
10
140.8220
20
181.1410
0
VERTEX
8
CUT
10
140.8261
20
181.2275
0
VERTEX
8
CUT
10
140.8253
20
181.4535
0
VERTEX
8
CUT
10
140.8303
20
181.9379
0
VERTEX
8
CUT
10
140.8305
20
181.9750
0
VERTEX
8
CUT
10
140.8304
20
181.9813
0
VERTEX
8
CUT
10
140.8250
20
182.1357
0
VERTEX
8
CUT
10
140.6670
20
184.5168
0
VERTEX
8
CUT
10
140.6253
20
184.8351
0
VERTEX
8
CUT
10
140.5176
20
185.3810
0
VERTEX
8
CUT
10
140.3556
20
186.3346
0
VERTEX
8
CUT
10
140.2148
20
187.5939
0
VERTEX
8
CUT
10
140.1814
20
187.8081
0
VERTEX
8
CUT
10
140.1296
20
188.0185
0
VERTEX
8
CUT
10
139.7247
20
189.4016
0
VERTEX
8
CUT
10
139.6482
20
189.7891
0
VERTEX
8
CUT
10
139.6051
20
189.9715
0
VERTEX
8
CUT
10
139.5484
20
190.1501
0
VERTEX
8
CUT
10
139.3308
20
190.7563
0
VERTEX
8
CUT
10
139.0491
20
191.8070
0
VERTEX
8
CUT
10
138.9522
20
192.0965
0
VERTEX
8
CUT
10
138.8922
20
192.2450
0
VERTEX
8
CUT
10
138.5005
20
193.5829
0
VERTEX
8
CUT
10
138.3983
20
193.8672
0
VERTEX
8
CUT
10
135.4562
20
200.7157
0
VERTEX
8
CUT
10
135.4462
20
200.7388
0
VERTEX
8
CUT
10
135.4443
20
200.7429
0
VERTEX
8
CUT
10
135.3995
20
200.8389
0
VERTEX
8
CUT
10
130.3479
20
211.0814
0
VERTEX
8
CUT
10
130.0026
20
211.8142
0
VERTEX
8
CUT
10
129.9430
20
211.9633
0
VERTEX
8
CUT
10
129.2204
20
213.9155
0
VERTEX
8
CUT
10
129.1660
20
214.0731
0
VERTEX
8
CUT
10
129.1314
20
214.1810
0
VERTEX
8
CUT
10
129.0841
20
214.3409
0
VERTEX
8
CUT
10
128.2228
20
217.5071
0
VERTEX
8
CUT
10
128.1884
20
217.6437
0
VERTEX
8
CUT
10
128.1827
20
217.6682
0
VERTEX
8
CUT
10
128.1294
20
217.9447
0
VERTEX
8
CUT
10
128.1256
20
217.9696
0
VERTEX
8
CUT
10
128.1067
20
218.1091
0
VERTEX
8
CUT
10
127.5578
20
222.8451
0
VERTEX
8
CUT
10
127.5429
20
223.0025
0
VERTEX
8
CUT
10
127.5408
20
223.0307
0
VERTEX
8
CUT
10
127.5310
20
223.3465
0
VERTEX
8
CUT
10
127.5313
20
223.3748
0
VERTEX
8
CUT
10
127.5364
20
223.5328
0
VERTEX
8
CUT
10
127.6847
20
226.3169
0
VERTEX
8
CUT
10
127.7282
20
226.7957
0
VERTEX
8
CUT
10
128.6978
20
234.8497
0
VERTEX
8
CUT
10
128.7156
20
235.1791
0
VERTEX
8
CUT
10
128.6936
20
236.9791
0
VERTEX
8
CUT
10
128.6808
20
237.2023
0
VERTEX
8
CUT
10
128.6482
20
237.4235
0
VERTEX
8
CUT
10
128.3636
20
238.8942
0
VERTEX
8
CUT
10
128.3065
20
239.1280
0
VERTEX
8
CUT
10
128.2272
20
239.3553
0
VERTEX
8
CUT
10
128.0717
20
239.7404
0
VERTEX
8
CUT
10
128.0598
20
239.8031
0
VERTEX
8
CUT
10
127.9898
20
240.0835
0
VERTEX
8
CUT
10
127.8878
20
240.3539
0
VERTEX
8
CUT
10
127.4649
20
241.3052
0
VERTEX
8
CUT
10
127.3625
20
241.5098
0
VERTEX
8
CUT
10
127.2418
20
241.7041
0
VERTEX
8
CUT
10
127.1519
20
241.8230
0
VERTEX
8
CUT
10
127.1000
20
241.8969
0
VERTEX
8
CUT
10
126.0081
20
243.3096
0
VERTEX
8
CUT
10
125.8393
20
243.5060
0
VERTEX
8
CUT
10
125.6512
20
243.6839
0
VERTEX
8
CUT
10
124.9754
20
244.2596
0
VERTEX
8
CUT
10
124.8011
20
244.3952
0
VERTEX
8
CUT
10
124.6156
20
244.5149
0
VERTEX
8
CUT
10
124.4202
20
244.6178
0
VERTEX
8
CUT
10
122.9778
20
245.2978
0
VERTEX
8
CUT
10
122.8519
20
245.3600
0
VERTEX
8
CUT
10
122.8296
20
245.3716
0
VERTEX
8
CUT
10
122.6991
20
245.4455
0
VERTEX
8
CUT
10
122.4823
20
245.5547
0
VERTEX
8
CUT
10
122.2561
20
245.6425
0
VERTEX
8
CUT
10
122.0223
20
245.7078
0
VERTEX
8
CUT
10
121.7834
20
245.7502
0
VERTEX
8
CUT
10
121.5414
20
245.7692
0
VERTEX
8
CUT
10
121.2988
20
245.7646
0
VERTEX
8
CUT
10
121.0577
20
245.7366
0
VERTEX
8
CUT
10
120.8205
20
245.6853
0
VERTEX
8
CUT
10
120.5894
20
245.6113
0
VERTEX
8
CUT
10
120.3665
20
245.5151
0
VERTEX
8
CUT
10
120.1540
20
245.3979
0
VERTEX
8
CUT
10
119.9539
20
245.2606
0
VERTEX
8
CUT
10
119.7681
20
245.1045
0
VERTEX
8
CUT
10
119.6658
20
245.0098
0
VERTEX
8
CUT
10
119.5432
20
244.9135
0
VERTEX
8
CUT
10
117.7098
20
243.3230
0
VERTEX
8
CUT
10
117.5456
20
243.1668
0
VERTEX
8
CUT
10
117.3961
20
242.9965
0
VERTEX
8
CUT
10
116.2330
20
241.5429
0
VERTEX
8
CUT
10
116.0510
20
241.2833
0
VERTEX
8
CUT
10
115.5768
20
240.5063
0
VERTEX
8
CUT
10
115.2799
20
240.1059
0
VERTEX
8
CUT
10
115.1549
20
239.9205
0
VERTEX
8
CUT
10
115.0470
20
239.7247
0
VERTEX
8
CUT
10
114.1330
20
237.8760
0
VERTEX
8
CUT
10
114.0339
20
237.6476
0
VERTEX
8
CUT
10
113.2285
20
235.5049
0
VERTEX
8
CUT
10
113.1601
20
235.2953
0
VERTEX
8
CUT
10
113.1105
20
235.0806
0
VERTEX
8
CUT
10
112.6685
20
232.6946
0
VERTEX
8
CUT
10
112.6312
20
232.3893
0
VERTEX
8
CUT
10
112.6054
20
231.9609
0
VERTEX
8
CUT
10
112.4575
20
230.5685
0
VERTEX
8
CUT
10
112.4445
20
230.3767
0
VERTEX
8
CUT
10
112.4464
20
230.1844
0
VERTEX
8
CUT
10
112.4695
20
229.7021
0
VERTEX
8
CUT
10
112.4461
20
229.3127
0
VERTEX
8
CUT
10
112.4459
20
229.0168
0
VERTEX
8
CUT
10
112.6302
20
225.8626
0
VERTEX
8
CUT
10
112.6637
20
225.5756
0
VERTEX
8
CUT
10
113.1217
20
222.9702
0
VERTEX
8
CUT
10
113.2077
20
222.6262
0
VERTEX
8
CUT
10
113.6856
20
221.1642
0
VERTEX
8
CUT
10
113.7856
20
220.9072
0
VERTEX
8
CUT
10
115.9686
20
216.1009
0
VERTEX
8
CUT
10
116.1417
20
215.7832
0
VERTEX
8
CUT
10
118.3451
20
212.3546
0
VERTEX
8
CUT
10
118.3653
20
212.3237
0
VERTEX
8
CUT
10
118.3689
20
212.3182
0
VERTEX
8
CUT
10
118.4589
20
212.1914
0
VERTEX
8
CUT
10
125.0167
20
203.5325
0
VERTEX
8
CUT
10
125.0799
20
203.4483
0
VERTEX
8
CUT
10
125.1291
20
203.3813
0
VERTEX
8
CUT
10
125.1735
20
203.3189
0
VERTEX
8
CUT
10
125.2374
20
203.2260
0
VERTEX
8
CUT
10
127.2355
20
200.2295
0
VERTEX
8
CUT
10
128.9152
20
197.3676
0
VERTEX
8
CUT
10
128.9537
20
197.2967
0
VERTEX
8
CUT
10
128.9895
20
197.2248
0
VERTEX
8
CUT
10
129.0667
20
197.0602
0
VERTEX
8
CUT
10
129.5886
20
195.8732
0
VERTEX
8
CUT
10
129.8989
20
195.1294
0
VERTEX
8
CUT
10
130.1441
20
194.5419
0
VERTEX
8
CUT
10
130.4632
20
193.7769
0
VERTEX
8
CUT
10
130.5899
20
193.4731
0
VERTEX
8
CUT
10
131.3160
20
191.1397
0
VERTEX
8
CUT
10
131.4695
20
190.5355
0
VERTEX
8
CUT
10
131.5263
20
190.3121
0
VERTEX
8
CUT
10
131.5670
20
190.1519
0
VERTEX
8
CUT
10
131.6698
20
189.7476
0
VERTEX
8
CUT
10
132.1465
20
187.3601
0
VERTEX
8
CUT
10
132.1916
20
186.8957
0
VERTEX
8
CUT
10
132.2084
20
186.7227
0
VERTEX
8
CUT
10
132.2152
20
186.6536
0
VERTEX
8
CUT
10
132.3136
20
185.6409
0
VERTEX
8
CUT
10
132.4265
20
184.0457
0
VERTEX
8
CUT
10
132.4316
20
183.9079
0
VERTEX
8
CUT
10
132.4289
20
183.8100
0
VERTEX
8
CUT
10
132.4217
20
183.5454
0
VERTEX
8
CUT
10
132.4081
20
183.0484
0
VERTEX
8
CUT
10
132.2691
20
180.8837
0
VERTEX
8
CUT
10
132.2426
20
180.6192
0
VERTEX
8
CUT
10
132.2184
20
180.4404
0
VERTEX
8
CUT
10
132.1733
20
180.1785
0
VERTEX
8
CUT
10
131.7216
20
178.0168
0
VERTEX
8
CUT
10
131.5423
20
177.3279
0
VERTEX
8
CUT
10
131.5036
20
177.2196
0
VERTEX
8
CUT
10
130.7532
20
175.2454
0
VERTEX
8
CUT
10
130.7513
20
175.2416
0
VERTEX
8
CUT
10
130.7343
20
175.2082
0
VERTEX
8
CUT
10
130.7273
20
175.1946
0
VERTEX
8
CUT
10
130.2210
20
174.2013
0
VERTEX
8
CUT
10
129.2839
20
172.6581
0
VERTEX
8
CUT
10
129.2100
20
172.5425
0
VERTEX
8
CUT
10
127.6145
20
170.7216
0
VERTEX
8
CUT
10
127.5050
20
170.6020
0
VERTEX
8
CUT
10
127.4850
20
170.5810
0
VERTEX
8
CUT
10
127.2699
20
170.3746
0
VERTEX
8
CUT
10
127.0378
20
170.1876
0
VERTEX
8
CUT
10
127.0145
20
170.1704
0
VERTEX
8
CUT
10
126.8819
20
170.0771
0
VERTEX
8
CUT
10
124.7186
20
168.6229
0
VERTEX
8
CUT
10
124.5907
20
168.5599
0
VERTEX
8
CUT
10
123.5166
20
168.0720
0
VERTEX
8
CUT
10
123.3401
20
167.9972
0
VERTEX
8
CUT
10
123.3083
20
167.9847
0
VERTEX
8
CUT
10
122.9452
20
167.8627
0
VERTEX
8
CUT
10
122.9122
20
167.8535
0
VERTEX
8
CUT
10
122.7265
20
167.8065
0
VERTEX
8
CUT
10
120.9105
20
167.3968
0
VERTEX
8
CUT
10
120.7453
20
167.3634
0
VERTEX
8
CUT
10
120.7156
20
167.3581
0
VERTEX
8
CUT
10
120.3815
20
167.3137
0
VERTEX
8
CUT
10
120.3515
20
167.3111
0
VERTEX
8
CUT
10
120.1832
20
167.3002
0
VERTEX
8
CUT
10
118.0496
20
167.2104
0
VERTEX
8
CUT
10
117.7985
20
167.2082
0
VERTEX
8
CUT
10
117.6282
20
167.2125
0
VERTEX
8
CUT
10
117.3776
20
167.2271
0
VERTEX
8
CUT
10
114.7193
20
167.4720
0
VERTEX
8
CUT
10
114.5287
20
167.4945
0
VERTEX
8
CUT
10
114.3997
20
167.5131
0
VERTEX
8
CUT
10
114.2105
20
167.5453
0
VERTEX
8
CUT
10
111.1350
20
168.1503
0
VERTEX
8
CUT
10
110.9580
20
168.1896
0
VERTEX
8
CUT
10
110.8385
20
168.2192
0
VERTEX
8
CUT
10
110.6636
20
168.2670
0
VERTEX
8
CUT
10
105.3492
20
169.8582
0
VERTEX
8
CUT
10
105.1141
20
169.9164
0
VERTEX
8
CUT
10
104.8745
20
169.9515
0
VERTEX
8
CUT
10
104.6326
20
169.9633
0
SEQEND
0
POLYLINE
8
CUT
66
1
70
1
10
0.0
20
0.0
30
0.0
0
VERTEX
8
CUT
10
103.9913
20
109.1340
0
VERTEX
8
CUT
10
103.7571
20
109.2148
0
VERTEX
8
CUT
10
103.5162
20
109.2720
0
VERTEX
8
CUT
10
103.2707
20
109.3051
0
VERTEX
8
CUT
10
103.0232
20
109.3138
0
VERTEX
8
CUT
10
102.7760
20
109.2979
0
VERTEX
8
CUT
10
102.5316
20
109.2576
0
VERTEX
8
CUT
10
102.2924
20
109.1934
0
VERTEX
8
CUT
10
102.0607
20
109.1058
0
VERTEX
8
CUT
10
101.8388
20
108.9957
0
VERTEX
8
CUT
10
101.6289
20
108.8641
0
VERTEX
8
CUT
10
101.4331
20
108.7125
0
VERTEX
8
CUT
10
101.2532
20
108.5422
0
VERTEX
8
CUT
10
101.0911
20
108.3550
0
VERTEX
8
CUT
10
100.9482
20
108.1526
0
VERTEX
8
CUT
10
100.8261
20
107.9371
0
VERTEX
8
CUT
10
100.7260
20
107.7106
0
VERTEX
8
CUT
10
100.6487
20
107.4753
0
VERTEX
8
CUT
10
100.5951
20
107.2334
0
VERTEX
8
CUT
10
100.5657
20
106.9875
0
VERTEX
8
CUT
10
100.5608
20
106.7399
0
VERTEX
8
CUT
10
100.5804
20
106.4930
0
VERTEX
8
CUT
10
100.6243
20
106.2492
0
VERTEX
8
CUT
10
100.9049
20
105.0394
0
VERTEX
8
CUT
10
101.0844
20
104.1184
0
VERTEX
8
CUT
10
101.1343
20
103.8628
0
VERTEX
8
CUT
10
101.1482
20
103.7913
0
VERTEX
8
CUT
10
101.2012
20
103.5194
0
VERTEX
8
CUT
10
101.5739
20
99.4782
0
VERTEX
8
CUT
10
101.5752
20
99.4463
0
VERTEX
8
CUT
10
101.6031
20
99.1606
0
VERTEX
8
CUT
10
101.6034
20
99.1586
0
VERTEX
8
CUT
10
101.6852
20
98.2714
0
VERTEX
8
CUT
10
101.7187
20
98.0339
0
VERTEX
8
CUT
10
101.9569
20
96.7811
0
VERTEX
8
CUT
10
102.0268
20
96.0976
0
VERTEX
8
CUT
10
102.0579
20
95.8846
0
VERTEX
8
CUT
10
102.1072
20
95.6751
0
VERTEX
8
CUT
10
102.2926
20
95.0160
0
VERTEX
8
CUT
10
102.3394
20
94.7697
0
VERTEX
8
CUT
10
102.3890
20
94.5591
0
VERTEX
8
CUT
10
102.4566
20
94.3535
0
VERTEX
8
CUT
10
102.8777
20
93.2384
0
VERTEX
8
CUT
10
102.9747
20
93.0152
0
VERTEX
8
CUT
10
103.0929
20
92.8024
0
VERTEX
8
CUT
10
103.1755
20
92.6694
0
VERTEX
8
CUT
10
103.1757
20
92.6690
0
VERTEX
8
CUT
10
103.2586
20
92.4970
0
VERTEX
8
CUT
10
103.3545
20
92.3319
0
VERTEX
8
CUT
10
104.1256
20
91.1128
0
VERTEX
8
CUT
10
104.2543
20
90.9283
0
VERTEX
8
CUT
10
104.2649
20
90.9158
0
VERTEX
8
CUT
10
104.4547
20
90.6102
0
VERTEX
8
CUT
10
104.5707
20
90.4396
0
VERTEX
8
CUT
10
104.7004
20
90.2791
0
VERTEX
8
CUT
10
104.8429
20
90.1298
0
VERTEX
8
CUT
10
106.0265
20
88.9883
0
VERTEX
8
CUT
10
107.2648
20
87.6432
0
VERTEX
8
CUT
10
107.4315
20
87.4784
0
VERTEX
8
CUT
10
109.8427
20
85.3079
0
VERTEX
8
CUT
10
110.4706
20
84.7024
0
VERTEX
8
CUT
10
110.6527
20
84.5430
0
VERTEX
8
CUT
10
110.8495
20
84.4020
0
VERTEX
8
CUT
10
111.0589
20
84.2806
0
VERTEX
8
CUT
10
111.2791
20
84.1801
0
VERTEX
8
CUT
10
111.5080
20
84.1013
0
VERTEX
8
CUT
10
111.7434
20
84.0451
0
VERTEX
8
CUT
10
111.9832
20
84.0119
0
VERTEX
8
CUT
10
112.2251
20
84.0020
0
VERTEX
8
CUT
10
112.4667
20
84.0155
0
VERTEX
8
CUT
10
112.7060
20
84.0524
0
VERTEX
8
CUT
10
112.9405
20
84.1122
0
VERTEX
8
CUT
10
113.0861
20
84.1648
0
VERTEX
8
CUT
10
113.0919
20
84.1666
0
VERTEX
8
CUT
10
113.0971
20
84.1688
0
VERTEX
8
CUT
10
113.1682
20
84.1945
0
VERTEX
8
CUT
10
113.2453
20
84.2311
0
VERTEX
8
CUT
10
113.3185
20
84.2619
0
VERTEX
8
CUT
10
113.3784
20
84.2943
0
VERTEX
8
CUT
10
113.3868
20
84.2983
0
VERTEX
8
CUT
10
113.3964
20
84.3041
0
VERTEX
8
CUT
10
113.5346
20
84.3789
0
VERTEX
8
CUT
10
113.7381
20
84.5166
0
VERTEX
8
CUT
10
113.9272
20
84.6736
0
VERTEX
8
CUT
10
114.0999
20
84.8484
0
VERTEX
8
CUT
10
114.2547
20
85.0393
0
VERTEX
8
CUT
10
114.3899
20
85.2445
0
VERTEX
8
CUT
10
114.5043
20
85.4620
0
VERTEX
8
CUT
10
114.5969
20
85.6897
0
VERTEX
8
CUT
10
114.6666
20
85.9254
0
VERTEX
8
CUT
10
114.7129
20
86.1667
0
VERTEX
8
CUT
10
114.7352
20
86.4115
0
VERTEX
8
CUT
10
114.7334
20
86.6572
0
VERTEX
8
CUT
10
114.7075
20
86.9016
0
VERTEX
8
CUT
10
114.6577
20
87.1422
0
VERTEX
8
CUT
10
114.5845
20
87.3768
0
VERTEX
8
CUT
10
114.4886
20
87.6031
0
VERTEX
8
CUT
10
114.3328
20
87.9259
0
VERTEX
8
CUT
10
113.1768
20
90.8709
0
VERTEX
8
CUT
10
113.1288
20
91.0001
0
VERTEX
8
CUT
10
113.0979
20
91.0884
0
VERTEX
8
CUT
10
113.0547
20
91.2192
0
VERTEX
8
CUT
10
110.1720
20
100.5194
0
VERTEX
8
CUT
10
110.0779
20
100.7735
0
VERTEX
8
CUT
10
109.1560
20
102.9006
0
VERTEX
8
CUT
10
109.0223
20
103.1648
0
VERTEX
8
CUT
10
107.9792
20
104.9553
0
VERTEX
8
CUT
10
107.7907
20
105.2340
0
VERTEX
8
CUT
10
106.4543
20
106.9481
0
VERTEX
8
CUT
10
106.2379
20
107.1913
0
VERTEX
8
CUT
10
104.8149
20
108.5943
0
VERTEX
8
CUT
10
104.6301
20
108.7592
0
VERTEX
8
CUT
10
104.4299
20
108.9051
0
VERTEX
8
CUT
10
104.2163
20
109.0304
0
SEQEND
0
POLYLINE
8
CUT
66
1
70
1
10
0.0
20
0.0
30
0.0
0
VERTEX
8
CUT
10
102.2131
20
265.1140
0
VERTEX
8
CUT
10
102.2581
20
264.8753
0
VERTEX
8
CUT
10
102.3259
20
264.6420
0
VERTEX
8
CUT
10
102.4161
20
264.4165
0
VERTEX
8
CUT
10
102.5992
20
264.0162
0
VERTEX
8
CUT
10
102.7076
20
263.8059
0
VERTEX
8
CUT
10
102.8355
20
263.6069
0
VERTEX
8
CUT
10
102.9817
20
263.4208
0
VERTEX
8
CUT
10
103.3046
20
263.0473
0
VERTEX
8
CUT
10
103.4971
20
262.8481
0
VERTEX
8
CUT
10
103.7105
20
262.6715
0
VERTEX
8
CUT
10
104.1170
20
262.3713
0
VERTEX
8
CUT
10
104.2898
20
262.2545
0
VERTEX
8
CUT
10
104.4717
20
262.1525
0
VERTEX
8
CUT
10
104.6614
20
262.0661
0
VERTEX
8
CUT
10
105.1217
20
261.8791
0
VERTEX
8
CUT
10
105.3242
20
261.8069
0
VERTEX
8
CUT
10
105.5321
20
261.7523
0
VERTEX
8
CUT
10
105.7439
20
261.7158
0
VERTEX
8
CUT
10
106.1525
20
261.6633
0
VERTEX
8
CUT
10
106.3801
20
261.6446
0
VERTEX
8
CUT
10
106.6084
20
261.6467
0
VERTEX
8
CUT
10
106.8355
20
261.6696
0
VERTEX
8
CUT
10
107.0949
20
261.7078
0
VERTEX
8
CUT
10
107.3503
20
261.7592
0
VERTEX
8
CUT
10
107.5990
20
261.8369
0
VERTEX
8
CUT
10
107.8382
20
261.9400
0
VERTEX
8
CUT
10
108.1772
20
262.1076
0
VERTEX
8
CUT
10
108.3947
20
262.2289
0
VERTEX
8
CUT
10
108.5990
20
262.3713
0
VERTEX
8
CUT
10
108.7881
20
262.5332
0
VERTEX
8
CUT
10
109.2251
20
262.9469
0
VERTEX
8
CUT
10
109.3702
20
263.0962
0
VERTEX
8
CUT
10
109.5024
20
263.2571
0
VERTEX
8
CUT
10
109.6207
20
263.4284
0
VERTEX
8
CUT
10
109.8704
20
263.8242
0
VERTEX
8
CUT
10
109.9824
20
264.0210
0
VERTEX
8
CUT
10
110.0762
20
264.2272
0
VERTEX
8
CUT
10
110.1510
20
264.4411
0
VERTEX
8
CUT
10
110.2907
20
264.9076
0
VERTEX
8
CUT
10
110.3564
20
265.1832
0
VERTEX
8
CUT
10
110.3906
20
265.4645
0
VERTEX
8
CUT
10
110.4232
20
265.9735
0
VERTEX
8
CUT
10
110.4275
20
266.1996
0
VERTEX
8
CUT
10
110.4113
20
266.4252
0
VERTEX
8
CUT
10
110.3748
20
266.6484
0
VERTEX
8
CUT
10
110.2972
20
267.0174
0
VERTEX
8
CUT
10
110.2461
20
267.2185
0
VERTEX
8
CUT
10
110.1785
20
267.4146
0
VERTEX
8
CUT
10
110.0949
20
267.6045
0
VERTEX
8
CUT
10
109.9175
20
267.9658
0
VERTEX
8
CUT
10
109.8125
20
268.1579
0
VERTEX
8
CUT
10
109.6911
20
268.3402
0
VERTEX
8
CUT
10
109.5541
20
268.5111
0
VERTEX
8
CUT
10
109.3048
20
268.7958
0
VERTEX
8
CUT
10
109.1423
20
268.9647
0
VERTEX
8
CUT
10
108.9646
20
269.1177
0
VERTEX
8
CUT
10
108.7734
20
269.2533
0
VERTEX
8
CUT
10
108.4596
20
269.4545
0
VERTEX
8
CUT
10
108.2613
20
269.5692
0
VERTEX
8
CUT
10
108.0532
20
269.6653
0
VERTEX
8
CUT
10
107.8373
20
269.7419
0
VERTEX
8
CUT
10
107.3042
20
269.9039
0
VERTEX
8
CUT
10
107.0079
20
269.9746
0
VERTEX
8
CUT
10
106.7052
20
270.0087
0
VERTEX
8
CUT
10
106.2448
20
270.0323
0
VERTEX
8
CUT
10
105.9564
20
270.0305
0
VERTEX
8
CUT
10
105.6702
20
269.9954
0
VERTEX
8
CUT
10
105.3255
20
269.9328
0
VERTEX
8
CUT
10
105.1042
20
269.8822
0
VERTEX
8
CUT
10
104.8884
20
269.8117
0
VERTEX
8
CUT
10
104.6799
20
269.7219
0
VERTEX
8
CUT
10
104.2920
20
269.5335
0
VERTEX
8
CUT
10
104.0327
20
269.3879
0
VERTEX
8
CUT
10
103.7926
20
269.2125
0
VERTEX
8
CUT
10
103.4880
20
268.9611
0
VERTEX
8
CUT
10
103.2664
20
268.7543
0
VERTEX
8
CUT
10
103.0714
20
268.5222
0
VERTEX
8
CUT
10
102.8628
20
268.2407
0
VERTEX
8
CUT
10
102.7468
20
268.0699
0
VERTEX
8
CUT
10
102.6452
20
267.8902
0
VERTEX
8
CUT
10
102.5589
20
267.7026
0
VERTEX
8
CUT
10
102.3747
20
267.2546
0
VERTEX
8
CUT
10
102.2979
20
267.0409
0
VERTEX
8
CUT
10
102.2409
20
266.8212
0
VERTEX
8
CUT
10
102.2041
20
266.5971
0
VERTEX
8
CUT
10
102.1514
20
266.1511
0
VERTEX
8
CUT
10
102.1354
20
265.9393
0
VERTEX
8
CUT
10
102.1375
20
265.7269
0
VERTEX
8
CUT
10
102.1576
20
265.5155
0
SEQEND
0
POLYLINE
8
CUT
66
1
70
1
10
0.0
20
0.0
30
0.0
0
VERTEX
8
CUT
10
96.0470
20
42.1423
0
VERTEX
8
CUT
10
96.0640
20
41.8386
0
VERTEX
8
CUT
10
96.1178
20
41.5393
0
VERTEX
8
CUT
10
96.3134
20
40.7352
0
VERTEX
8
CUT
10
96.3677
20
40.5448
0
VERTEX
8
CUT
10
96.4370
20
40.3593
0
VERTEX
8
CUT
10
96.9022
20
39.2498
0
VERTEX
8
CUT
10
97.0159
20
39.0142
0
VERTEX
8
CUT
10
97.1535
20
38.7917
0
VERTEX
8
CUT
10
97.7016
20
38.0015
0
VERTEX
8
CUT
10
97.7785
20
37.9033
0
VERTEX
8
CUT
10
97.8123
20
37.8548
0
VERTEX
8
CUT
10
97.9956
20
37.6226
0
VERTEX
8
CUT
10
98.2051
20
37.4136
0
VERTEX
8
CUT
10
98.4935
20
37.1582
0
VERTEX
8
CUT
10
98.6896
20
37.0013
0
VERTEX
8
CUT
10
98.7724
20
36.9478
0
VERTEX
8
CUT
10
98.8268
20
36.8988
0
VERTEX
8
CUT
10
99.0503
20
36.7197
0
VERTEX
8
CUT
10
99.2928
20
36.5673
0
VERTEX
8
CUT
10
100.0679
20
36.1401
0
VERTEX
8
CUT
10
100.3131
20
36.0219
0
VERTEX
8
CUT
10
100.5696
20
35.9311
0
VERTEX
8
CUT
10
101.4438
20
35.6741
0
VERTEX
8
CUT
10
101.7242
20
35.6089
0
VERTEX
8
CUT
10
102.0102
20
35.5765
0
VERTEX
8
CUT
10
102.9270
20
35.5256
0
VERTEX
8
CUT
10
103.2165
20
35.5263
0
VERTEX
8
CUT
10
103.5040
20
35.5604
0
VERTEX
8
CUT
10
104.5318
20
35.7435
0
VERTEX
8
CUT
10
104.7032
20
35.7830
0
VERTEX
8
CUT
10
104.8085
20
35.8026
0
VERTEX
8
CUT
10
105.0188
20
35.8611
0
VERTEX
8
CUT
10
105.3878
20
35.9812
0
VERTEX
8
CUT
10
105.6313
20
36.0749
0
VERTEX
8
CUT
10
105.8638
20
36.1934
0
VERTEX
8
CUT
10
105.9907
20
36.2667
0
VERTEX
8
CUT
10
106.0541
20
36.2918
0
VERTEX
8
CUT
10
106.2497
20
36.3790
0
VERTEX
8
CUT
10
106.4370
20
36.4826
0
VERTEX
8
CUT
10
106.6148
20
36.6018
0
VERTEX
8
CUT
10
106.7761
20
36.7203
0
VERTEX
8
CUT
10
106.8561
20
36.7665
0
VERTEX
8
CUT
10
107.0483
20
36.8895
0
VERTEX
8
CUT
10
107.2285
20
37.0296
0
VERTEX
8
CUT
10
107.3433
20
37.1369
0
VERTEX
8
CUT
10
107.4943
20
37.2479
0
VERTEX
8
CUT
10
107.6715
20
37.3910
0
VERTEX
8
CUT
10
107.8350
20
37.5496
0
VERTEX
8
CUT
10
107.9834
20
37.7225
0
VERTEX
8
CUT
10
108.7204
20
38.6648
0
VERTEX
8
CUT
10
108.8436
20
38.8368
0
VERTEX
8
CUT
10
108.9518
20
39.0187
0
VERTEX
8
CUT
10
109.0443
20
39.2091
0
VERTEX
8
CUT
10
109.4600
20
40.1662
0
VERTEX
8
CUT
10
109.5388
20
40.3721
0
VERTEX
8
CUT
10
109.5992
20
40.5842
0
VERTEX
8
CUT
10
109.6406
20
40.8007
0
VERTEX
8
CUT
10
109.7945
20
41.8540
0
VERTEX
8
CUT
10
109.8195
20
42.1366
0
VERTEX
8
CUT
10
109.8124
20
42.4203
0
VERTEX
8
CUT
10
109.7126
20
43.6335
0
VERTEX
8
CUT
10
109.6860
20
43.8452
0
VERTEX
8
CUT
10
109.6415
20
44.0540
0
VERTEX
8
CUT
10
109.5794
20
44.2582
0
VERTEX
8
CUT
10
109.2149
20
45.2942
0
VERTEX
8
CUT
10
109.0993
20
45.5692
0
VERTEX
8
CUT
10
108.9518
20
45.8285
0
VERTEX
8
CUT
10
108.3194
20
46.7998
0
VERTEX
8
CUT
10
108.1850
20
46.9869
0
VERTEX
8
CUT
10
108.0339
20
47.1608
0
VERTEX
8
CUT
10
107.8674
20
47.3201
0
VERTEX
8
CUT
10
106.9196
20
48.1467
0
VERTEX
8
CUT
10
106.7542
20
48.2790
0
VERTEX
8
CUT
10
106.5782
20
48.3969
0
VERTEX
8
CUT
10
106.3928
20
48.4994
0
VERTEX
8
CUT
10
105.3963
20
48.9967
0
VERTEX
8
CUT
10
105.1160
20
49.1159
0
VERTEX
8
CUT
10
104.8234
20
49.2001
0
VERTEX
8
CUT
10
103.8021
20
49.4275
0
VERTEX
8
CUT
10
103.5907
20
49.4652
0
VERTEX
8
CUT
10
103.3768
20
49.4845
0
VERTEX
8
CUT
10
103.1621
20
49.4854
0
VERTEX
8
CUT
10
102.1176
20
49.4451
0
VERTEX
8
CUT
10
101.8994
20
49.4270
0
VERTEX
8
CUT
10
101.6836
20
49.3900
0
VERTEX
8
CUT
10
101.4719
20
49.3342
0
VERTEX
8
CUT
10
100.5932
20
49.0610
0
VERTEX
8
CUT
10
100.3215
20
48.9589
0
VERTEX
8
CUT
10
100.0635
20
48.8260
0
VERTEX
8
CUT
10
99.1730
20
48.2997
0
VERTEX
8
CUT
10
98.9889
20
48.1797
0
VERTEX
8
CUT
10
98.8160
20
48.0440
0
VERTEX
8
CUT
10
98.6558
20
47.8936
0
VERTEX
8
CUT
10
97.9171
20
47.1367
0
VERTEX
8
CUT
10
97.7426
20
46.9379
0
VERTEX
8
CUT
10
97.5901
20
46.7217
0
VERTEX
8
CUT
10
97.5725
20
46.6938
0
VERTEX
8
CUT
10
97.5386
20
46.6543
0
VERTEX
8
CUT
10
97.3917
20
46.4432
0
VERTEX
8
CUT
10
97.2673
20
46.2181
0
VERTEX
8
CUT
10
97.2470
20
46.1764
0
VERTEX
8
CUT
10
96.9774
20
45.7479
0
VERTEX
8
CUT
10
96.8590
20
45.5377
0
VERTEX
8
CUT
10
96.7613
20
45.3171
0
VERTEX
8
CUT
10
96.6854
20
45.0881
0
VERTEX
8
CUT
10
96.6344
20
44.9050
0
VERTEX
8
CUT
10
96.5887
20
44.7985
0
VERTEX
8
CUT
10
96.5155
20
44.5690
0
VERTEX
8
CUT
10
96.4648
20
44.3336
0
VERTEX
8
CUT
10
96.4496
20
44.2424
0
VERTEX
8
CUT
10
96.1404
20
43.1333
0
VERTEX
8
CUT
10
96.0903
20
42.9166
0
VERTEX
8
CUT
10
96.0596
20
42.6964
0
VERTEX
8
CUT
10
96.0486
20
42.4742
0
SEQEND
0
POLYLINE
8
CUT
66
1
70
1
10
0.0
20
0.0
30
0.0
0
VERTEX
8
CUT
10
81.5426
20
172.0965
0
VERTEX
8
CUT
10
81.3666
20
171.9252
0
VERTEX
8
CUT
10
81.2084
20
171.7375
0
VERTEX
8
CUT
10
81.0693
20
171.5351
0
VERTEX
8
CUT
10
80.9507
20
171.3201
0
VERTEX
8
CUT
10
80.8538
20
171.0945
0
VERTEX
8
CUT
10
80.7795
20
170.8605
0
VERTEX
8
CUT
10
80.7285
20
170.6203
0
VERTEX
8
CUT
10
80.7013
20
170.3762
0
VERTEX
8
CUT
10
80.6982
20
170.1307
0
VERTEX
8
CUT
10
80.7192
20
169.8860
0
VERTEX
8
CUT
10
80.7641
20
169.6446
0
VERTEX
8
CUT
10
80.8325
20
169.4088
0
VERTEX
8
CUT
10
80.9237
20
169.1808
0
VERTEX
8
CUT
10
81.0368
20
168.9628
0
VERTEX
8
CUT
10
81.1707
20
168.7570
0
VERTEX
8
CUT
10
81.3242
20
168.5654
0
VERTEX
8
CUT
10
81.4957
20
168.3897
0
VERTEX
8
CUT
10
81.6837
20
168.2317
0
VERTEX
8
CUT
10
81.8862
20
168.0928
0
VERTEX
8
CUT
10
82.1014
20
167.9746
0
VERTEX
8
CUT
10
82.3271
20
167.8780
0
VERTEX
8
CUT
10
82.5613
20
167.8040
0
VERTEX
8
CUT
10
82.8015
20
167.7533
0
VERTEX
8
CUT
10
83.0456
20
167.7265
0
VERTEX
8
CUT
10
83.2912
20
167.7237
0
VERTEX
8
CUT
10
83.5358
20
167.7450
0
VERTEX
8
CUT
10
84.7495
20
167.9112
0
VERTEX
8
CUT
10
84.9294
20
167.9315
0
VERTEX
8
CUT
10
85.0519
20
167.9423
0
VERTEX
8
CUT
10
85.2326
20
167.9538
0
VERTEX
8
CUT
10
89.9186
20
168.1391
0
VERTEX
8
CUT
10
90.1122
20
168.1418
0
VERTEX
8
CUT
10
90.2437
20
168.1402
0
VERTEX
8
CUT
10
90.4372
20
168.1328
0
VERTEX
8
CUT
10
92.6791
20
167.9897
0
VERTEX
8
CUT
10
92.9161
20
167.9670
0
VERTEX
8
CUT
10
93.0765
20
167.9465
0
VERTEX
8
CUT
10
93.3116
20
167.9087
0
VERTEX
8
CUT
10
96.5823
20
167.2770
0
VERTEX
8
CUT
10
96.8251
20
167.2424
0
VERTEX
8
CUT
10
97.0700
20
167.2317
0
VERTEX
8
CUT
10
97.3148
20
167.2450
0
VERTEX
8
CUT
10
97.5572
20
167.2823
0
VERTEX
8
CUT
10
97.7947
20
167.3431
0
VERTEX
8
CUT
10
98.0251
20
167.4269
0
VERTEX
8
CUT
10
98.2462
20
167.5329
0
VERTEX
8
CUT
10
98.4558
20
167.6600
0
VERTEX
8
CUT
10
98.6520
20
167.8071
0
VERTEX
8
CUT
10
98.8329
20
167.9726
0
VERTEX
8
CUT
10
98.9967
20
168.1551
0
VERTEX
8
CUT
10
99.1418
20
168.3527
0
VERTEX
8
CUT
10
99.2668
20
168.5636
0
VERTEX
8
CUT
10
99.3706
20
168.7857
0
VERTEX
8
CUT
10
99.4521
20
169.0170
0
VERTEX
8
CUT
10
99.5106
20
169.2551
0
VERTEX
8
CUT
10
99.5455
20
169.4978
0
VERTEX
8
CUT
10
99.5564
20
169.7427
0
VERTEX
8
CUT
10
99.5433
20
169.9875
0
VERTEX
8
CUT
10
99.5063
20
170.2299
0
VERTEX
8
CUT
10
99.4457
20
170.4675
0
VERTEX
8
CUT
10
99.3621
20
170.6980
0
VERTEX
8
CUT
10
99.2564
20
170.9192
0
VERTEX
8
CUT
10
99.1295
20
171.1290
0
VERTEX
8
CUT
10
98.9827
20
171.3253
0
VERTEX
8
CUT
10
98.8173
20
171.5063
0
VERTEX
8
CUT
10
98.6350
20
171.6703
0
VERTEX
8
CUT
10
98.4375
20
171.8156
0
VERTEX
8
CUT
10
98.2267
20
171.9408
0
VERTEX
8
CUT
10
98.0047
20
172.0448
0
VERTEX
8
CUT
10
97.7736
20
172.1266
0
VERTEX
8
CUT
10
97.7050
20
172.1471
0
VERTEX
8
CUT
10
97.4815
20
172.2030
0
VERTEX
8
CUT
10
92.3190
20
173.2427
0
VERTEX
8
CUT
10
92.1294
20
173.2734
0
VERTEX
8
CUT
10
91.9380
20
173.2894
0
VERTEX
8
CUT
10
88.9832
20
173.4226
0
VERTEX
8
CUT
10
88.7375
20
173.4216
0
VERTEX
8
CUT
10
85.2853
20
173.2375
0
VERTEX
8
CUT
10
85.1005
20
173.2208
0
VERTEX
8
CUT
10
84.9175
20
173.1904
0
VERTEX
8
CUT
10
83.1653
20
172.8320
0
VERTEX
8
CUT
10
82.8563
20
172.7479
0
VERTEX
8
CUT
10
82.3866
20
172.5871
0
VERTEX
8
CUT
10
82.1585
20
172.4962
0
VERTEX
8
CUT
10
81.9404
20
172.3834
0
VERTEX
8
CUT
10
81.7344
20
172.2498
0
SEQEND
0
POLYLINE
8
CUT
66
1
70
1
10
0.0
20
0.0
30
0.0
0
VERTEX
8
CUT
10
83.9355
20
197.4003
0
VERTEX
8
CUT
10
84.1460
20
197.2848
0
VERTEX
8
CUT
10
84.3667
20
197.1901
0
VERTEX
8
CUT
10
84.5954
20
197.1169
0
VERTEX
8
CUT
10
84.8300
20
197.0661
0
VERTEX
8
CUT
10
84.8318
20
197.0658
0
VERTEX
8
CUT
10
85.0761
20
197.0373
0
VERTEX
8
CUT
10
85.3220
20
197.0329
0
VERTEX
8
CUT
10
85.5672
20
197.0527
0
VERTEX
8
CUT
10
85.8092
20
197.0966
0
VERTEX
8
CUT
10
86.0457
20
197.1640
0
VERTEX
8
CUT
10
86.2745
20
197.2543
0
VERTEX
8
CUT
10
86.4933
20
197.3666
0
VERTEX
8
CUT
10
86.7000
20
197.4999
0
VERTEX
8
CUT
10
86.8780
20
197.6275
0
VERTEX
8
CUT
10
87.0626
20
197.7735
0
VERTEX
8
CUT
10
87.2328
20
197.9363
0
VERTEX
8
CUT
10
87.3868
20
198.1143
0
VERTEX
8
CUT
10
87.5372
20
198.3057
0
VERTEX
8
CUT
10
87.6761
20
198.5010
0
VERTEX
8
CUT
10
87.7956
20
198.7086
0
VERTEX
8
CUT
10
87.8947
20
198.9267
0
VERTEX
8
CUT
10
87.9896
20
199.1653
0
VERTEX
8
CUT
10
88.0702
20
199.4016
0
VERTEX
8
CUT
10
88.1268
20
199.6447
0
VERTEX
8
CUT
10
88.1589
20
199.8923
0
VERTEX
8
CUT
10
88.1674
20
200.0002
0
VERTEX
8
CUT
10
88.1747
20
200.2466
0
VERTEX
8
CUT
10
88.1577
20
200.4925
0
VERTEX
8
CUT
10
88.1165
20
200.7355
0
VERTEX
8
CUT
10
88.0517
20
200.9733
0
VERTEX
8
CUT
10
87.8982
20
201.4432
0
VERTEX
8
CUT
10
87.8104
20
201.6730
0
VERTEX
8
CUT
10
87.7004
20
201.8931
0
VERTEX
8
CUT
10
87.5694
20
202.1014
0
VERTEX
8
CUT
10
87.4184
20
202.2957
0
VERTEX
8
CUT
10
87.2492
20
202.4743
0
VERTEX
8
CUT
10
87.0631
20
202.6353
0
VERTEX
8
CUT
10
86.8622
20
202.7773
0
VERTEX
8
CUT
10
86.6482
20
202.8989
0
VERTEX
8
CUT
10
86.4234
20
202.9988
0
VERTEX
8
CUT
10
86.0308
20
203.1506
0
VERTEX
8
CUT
10
85.8006
20
203.2270
0
VERTEX
8
CUT
10
85.5640
20
203.2808
0
VERTEX
8
CUT
10
85.3233
20
203.3113
0
VERTEX
8
CUT
10
85.0808
20
203.3184
0
VERTEX
8
CUT
10
85.0092
20
203.3170
0
VERTEX
8
CUT
10
84.7607
20
203.2998
0
VERTEX
8
CUT
10
84.5152
20
203.2579
0
VERTEX
8
CUT
10
84.2750
20
203.1918
0
VERTEX
8
CUT
10
84.0426
20
203.1022
0
VERTEX
8
CUT
10
83.8202
20
202.9898
0
VERTEX
8
CUT
10
83.6102
20
202.8559
0
VERTEX
8
CUT
10
83.4145
20
202.7017
0
VERTEX
8
CUT
10
83.2351
20
202.5288
0
VERTEX
8
CUT
10
83.1192
20
202.4054
0
VERTEX
8
CUT
10
82.9611
20
202.2196
0
VERTEX
8
CUT
10
82.8219
20
202.0194
0
VERTEX
8
CUT
10
82.7028
20
201.8065
0
VERTEX
8
CUT
10
82.4092
20
201.2155
0
VERTEX
8
CUT
10
82.3158
20
201.0033
0
VERTEX
8
CUT
10
82.2424
20
200.7834
0
VERTEX
8
CUT
10
82.1897
20
200.5577
0
VERTEX
8
CUT
10
82.1582
20
200.3281
0
VERTEX
8
CUT
10
82.1481
20
200.0965
0
VERTEX
8
CUT
10
82.1594
20
199.8649
0
VERTEX
8
CUT
10
82.1922
20
199.6355
0
VERTEX
8
CUT
10
82.2461
20
199.4100
0
VERTEX
8
CUT
10
82.3206
20
199.1905
0
VERTEX
8
CUT
10
82.3602
20
199.0896
0
VERTEX
8
CUT
10
82.4737
20
198.8409
0
VERTEX
8
CUT
10
82.6138
20
198.6061
0
VERTEX
8
CUT
10
82.7786
20
198.3880
0
VERTEX
8
CUT
10
83.0081
20
198.1165
0
VERTEX
8
CUT
10
83.1903
20
197.9230
0
VERTEX
8
CUT
10
83.3921
20
197.7498
0
VERTEX
8
CUT
10
83.6110
20
197.5991
0
SEQEND
0
POLYLINE
8
CUT
66
1
70
1
10
0.0
20
0.0
30
0.0
0
VERTEX
8
CUT
10
69.5145
20
233.3841
0
VERTEX
8
CUT
10
69.6073
20
233.1205
0
VERTEX
8
CUT
10
70.1521
20
231.8124
0
VERTEX
8
CUT
10
70.2814
20
231.5473
0
VERTEX
8
CUT
10
70.4410
20
231.2993
0
VERTEX
8
CUT
10
71.3077
20
230.1123
0
VERTEX
8
CUT
10
71.4773
20
229.9045
0
VERTEX
8
CUT
10
71.6682
20
229.7160
0
VERTEX
8
CUT
10
72.6736
20
228.8245
0
VERTEX
8
CUT
10
72.9014
20
228.6451
0
VERTEX
8
CUT
10
73.1485
20
228.4932
0
VERTEX
8
CUT
10
74.4252
20
227.8069
0
VERTEX
8
CUT
10
74.6750
20
227.6899
0
VERTEX
8
CUT
10
74.9361
20
227.6011
0
VERTEX
8
CUT
10
76.3183
20
227.2149
0
VERTEX
8
CUT
10
76.5850
20
227.1559
0
VERTEX
8
CUT
10
76.8566
20
227.1264
0
VERTEX
8
CUT
10
78.2978
20
227.0487
0
VERTEX
8
CUT
10
78.5387
20
227.0474
0
VERTEX
8
CUT
10
78.7787
20
227.0692
0
VERTEX
8
CUT
10
79.0154
20
227.1140
0
VERTEX
8
CUT
10
81.2927
20
227.6602
0
VERTEX
8
CUT
10
81.4982
20
227.7189
0
VERTEX
8
CUT
10
81.6980
20
227.7949
0
VERTEX
8
CUT
10
81.8906
20
227.8878
0
VERTEX
8
CUT
10
82.8174
20
228.3845
0
VERTEX
8
CUT
10
83.0690
20
228.5391
0
VERTEX
8
CUT
10
83.3007
20
228.7224
0
VERTEX
8
CUT
10
84.2580
20
229.5764
0
VERTEX
8
CUT
10
84.4289
20
229.7443
0
VERTEX
8
CUT
10
84.5831
20
229.9278
0
VERTEX
8
CUT
10
85.3858
20
230.9824
0
VERTEX
8
CUT
10
85.5227
20
231.1816
0
VERTEX
8
CUT
10
85.6397
20
231.3931
0
VERTEX
8
CUT
10
86.3508
20
232.8385
0
VERTEX
8
CUT
10
86.4471
20
233.0610
0
VERTEX
8
CUT
10
86.5215
20
233.2919
0
VERTEX
8
CUT
10
86.7492
20
234.1375
0
VERTEX
8
CUT
10
86.8053
20
234.4017
0
VERTEX
8
CUT
10
86.8325
20
234.6703
0
VERTEX
8
CUT
10
86.8940
20
235.9794
0
VERTEX
8
CUT
10
86.8872
20
236.3151
0
VERTEX
8
CUT
10
86.7496
20
237.8844
0
VERTEX
8
CUT
10
86.7121
20
238.1483
0
VERTEX
8
CUT
10
86.6468
20
238.4068
0
VERTEX
8
CUT
10
86.2755
20
239.6035
0
VERTEX
8
CUT
10
86.1724
20
239.8778
0
VERTEX
8
CUT
10
86.0379
20
240.1382
0
VERTEX
8
CUT
10
85.4001
20
241.2133
0
VERTEX
8
CUT
10
85.2472
20
241.4414
0
VERTEX
8
CUT
10
85.0702
20
241.6514
0
VERTEX
8
CUT
10
84.0853
20
242.6975
0
VERTEX
8
CUT
10
83.9347
20
242.8445
0
VERTEX
8
CUT
10
83.7722
20
242.9784
0
VERTEX
8
CUT
10
82.7529
20
243.7485
0
VERTEX
8
CUT
10
82.5323
20
243.8974
0
VERTEX
8
CUT
10
82.2972
20
244.0221
0
VERTEX
8
CUT
10
81.2194
20
244.5216
0
VERTEX
8
CUT
10
81.0201
20
244.6038
0
VERTEX
8
CUT
10
80.8144
20
244.6684
0
VERTEX
8
CUT
10
79.6817
20
244.9716
0
VERTEX
8
CUT
10
79.4465
20
245.0225
0
VERTEX
8
CUT
10
79.2074
20
245.0506
0
VERTEX
8
CUT
10
78.0597
20
245.1298
0
VERTEX
8
CUT
10
77.8209
20
245.1348
0
VERTEX
8
CUT
10
77.5828
20
245.1171
0
VERTEX
8
CUT
10
76.4634
20
244.9796
0
VERTEX
8
CUT
10
76.2246
20
244.9384
0
VERTEX
8
CUT
10
75.9909
20
244.8743
0
VERTEX
8
CUT
10
74.8977
20
244.5167
0
VERTEX
8
CUT
10
74.6820
20
244.4349
0
VERTEX
8
CUT
10
74.4748
20
244.3336
0
VERTEX
8
CUT
10
73.4014
20
243.7461
0
VERTEX
8
CUT
10
73.1939
20
243.6191
0
VERTEX
8
CUT
10
72.9998
20
243.4725
0
VERTEX
8
CUT
10
71.9717
20
242.6145
0
VERTEX
8
CUT
10
71.8176
20
242.4746
0
VERTEX
8
CUT
10
71.6757
20
242.3223
0
VERTEX
8
CUT
10
70.6663
20
241.1450
0
VERTEX
8
CUT
10
70.5005
20
240.9289
0
VERTEX
8
CUT
10
70.3593
20
240.6961
0
VERTEX
8
CUT
10
69.7377
20
239.5328
0
VERTEX
8
CUT
10
69.6115
20
239.2579
0
VERTEX
8
CUT
10
69.5194
20
238.9697
0
VERTEX
8
CUT
10
69.2329
20
237.8410
0
VERTEX
8
CUT
10
69.1780
20
237.5563
0
VERTEX
8
CUT
10
69.1564
20
237.2672
0
VERTEX
8
CUT
10
69.1316
20
235.7681
0
VERTEX
8
CUT
10
69.1387
20
235.5340
0
VERTEX
8
CUT
10
69.1677
20
235.3016
0
VERTEX
8
CUT
10
69.4516
20
233.6565
0
SEQEND
0
POLYLINE
8
CUT
66
1
70
1
10
0.0
20
0.0
30
0.0
0
VERTEX
8
CUT
10
82.1832
20
68.1411
0
VERTEX
8
CUT
10
82.4068
20
68.0793
0
VERTEX
8
CUT
10
82.6352
20
68.0385
0
VERTEX
8
CUT
10
82.8664
20
68.0190
0
VERTEX
8
CUT
10
83.0983
20
68.0210
0
VERTEX
8
CUT
10
83.2216
20
68.0278
0
VERTEX
8
CUT
10
83.4693
20
68.0539
0
VERTEX
8
CUT
10
83.7132
20
68.1046
0
VERTEX
8
CUT
10
83.9508
20
68.1792
0
VERTEX
8
CUT
10
84.1798
20
68.2771
0
VERTEX
8
CUT
10
84.4312
20
68.3997
0
VERTEX
8
CUT
10
84.6555
20
68.5238
0
VERTEX
8
CUT
10
84.8660
20
68.6702
0
VERTEX
8
CUT
10
85.0604
20
68.8374
0
VERTEX
8
CUT
10
85.2366
20
69.0235
0
VERTEX
8
CUT
10
85.3928
20
69.2268
0
VERTEX
8
CUT
10
85.5377
20
69.4368
0
VERTEX
8
CUT
10
85.6665
20
69.6445
0
VERTEX
8
CUT
10
85.7744
20
69.8637
0
VERTEX
8
CUT
10
85.8604
20
70.0924
0
VERTEX
8
CUT
10
85.9583
20
70.3975
0
VERTEX
8
CUT
10
86.0223
20
70.6369
0
VERTEX
8
CUT
10
86.0622
20
70.8814
0
VERTEX
8
CUT
10
86.0778
20
71.1288
0
VERTEX
8
CUT
10
86.0688
20
71.3764
0
VERTEX
8
CUT
10
86.0353
20
71.6219
0
VERTEX
8
CUT
10
85.9777
20
71.8629
0
VERTEX
8
CUT
10
85.8965
20
72.0971
0
VERTEX
8
CUT
10
85.7925
20
72.3220
0
VERTEX
8
CUT
10
85.6667
20
72.5355
0
VERTEX
8
CUT
10
85.4487
20
72.8670
0
VERTEX
8
CUT
10
85.3188
20
73.0466
0
VERTEX
8
CUT
10
85.1735
20
73.2140
0
VERTEX
8
CUT
10
85.0139
20
73.3679
0
VERTEX
8
CUT
10
84.8413
20
73.5071
0
VERTEX
8
CUT
10
84.6319
20
73.6612
0
VERTEX
8
CUT
10
84.4199
20
73.8011
0
VERTEX
8
CUT
10
84.1948
20
73.9188
0
VERTEX
8
CUT
10
83.9589
20
74.0130
0
VERTEX
8
CUT
10
83.7147
20
74.0828
0
VERTEX
8
CUT
10
83.4646
20
74.1275
0
VERTEX
8
CUT
10
83.2035
20
74.1605
0
VERTEX
8
CUT
10
82.9310
20
74.1800
0
VERTEX
8
CUT
10
82.6580
20
74.1696
0
VERTEX
8
CUT
10
82.3877
20
74.1295
0
VERTEX
8
CUT
10
82.1235
20
74.0601
0
VERTEX
8
CUT
10
82.0564
20
74.0386
0
VERTEX
8
CUT
10
81.7907
20
73.9360
0
VERTEX
8
CUT
10
81.5384
20
73.8039
0
VERTEX
8
CUT
10
81.3028
20
73.6439
0
VERTEX
8
CUT
10
81.2307
20
73.5887
0
VERTEX
8
CUT
10
81.0338
20
73.4212
0
VERTEX
8
CUT
10
80.8552
20
73.2341
0
VERTEX
8
CUT
10
80.6969
20
73.0297
0
VERTEX
8
CUT
10
80.5606
20
72.8100
0
VERTEX
8
CUT
10
80.2794
20
72.2996
0
VERTEX
8
CUT
10
80.1611
20
72.0541
0
VERTEX
8
CUT
10
80.0703
20
71.7972
0
VERTEX
8
CUT
10
80.0079
20
71.5320
0
VERTEX
8
CUT
10
79.9748
20
71.2615
0
VERTEX
8
CUT
10
79.9681
20
71.1634
0
VERTEX
8
CUT
10
79.9634
20
70.9278
0
VERTEX
8
CUT
10
79.9808
20
70.6929
0
VERTEX
8
CUT
10
80.0203
20
70.4607
0
VERTEX
8
CUT
10
80.0814
20
70.2332
0
VERTEX
8
CUT
10
80.1139
20
70.1315
0
VERTEX
8
CUT
10
80.2092
20
69.8809
0
VERTEX
8
CUT
10
80.3308
20
69.6420
0
VERTEX
8
CUT
10
80.4772
20
69.4174
0
VERTEX
8
CUT
10
80.6184
20
69.2245
0
VERTEX
8
CUT
10
80.7736
20
69.0328
0
VERTEX
8
CUT
10
80.9470
20
68.8574
0
VERTEX
8
CUT
10
81.1368
20
68.7000
0
VERTEX
8
CUT
10
81.3193
20
68.5632
0
VERTEX
8
CUT
10
81.5459
20
68.4119
0
VERTEX
8
CUT
10
81.7876
20
68.2862
0
VERTEX
8
CUT
10
82.0415
20
68.1875
0
SEQEND
0
POLYLINE
8
CUT
66
1
70
1
10
0.0
20
0.0
30
0.0
0
VERTEX
8
CUT
10
52.4922
20
144.0211
0
VERTEX
8
CUT
10
52.5393
20
143.7709
0
VERTEX
8
CUT
10
52.8136
20
142.6342
0
VERTEX
8
CUT
10
52.8833
20
142.3971
0
VERTEX
8
CUT
10
52.9762
20
142.1680
0
VERTEX
8
CUT
10
53.5455
20
140.9417
0
VERTEX
8
CUT
10
53.7215
20
140.6249
0
VERTEX
8
CUT
10
54.6106
20
139.2670
0
VERTEX
8
CUT
10
54.7414
20
139.0855
0
VERTEX
8
CUT
10
54.8879
20
138.9165
0
VERTEX
8
CUT
10
58.2592
20
135.3603
0
VERTEX
8
CUT
10
58.4376
20
135.1898
0
VERTEX
8
CUT
10
60.6345
20
133.2886
0
VERTEX
8
CUT
10
60.8184
20
133.1440
0
VERTEX
8
CUT
10
64.3025
20
130.6581
0
VERTEX
8
CUT
10
64.5133
20
130.5230
0
VERTEX
8
CUT
10
64.7367
20
130.4097
0
VERTEX
8
CUT
10
64.9702
20
130.3194
0
VERTEX
8
CUT
10
65.2116
20
130.2528
0
VERTEX
8
CUT
10
65.4585
20
130.2107
0
VERTEX
8
CUT
10
65.7083
20
130.1936
0
VERTEX
8
CUT
10
65.9586
20
130.2015
0
VERTEX
8
CUT
10
66.2069
20
130.2344
0
VERTEX
8
CUT
10
66.4506
20
130.2920
0
VERTEX
8
CUT
10
66.6873
20
130.3737
0
VERTEX
8
CUT
10
66.9147
20
130.4786
0
VERTEX
8
CUT
10
67.1304
20
130.6058
0
VERTEX
8
CUT
10
67.3323
20
130.7539
0
VERTEX
8
CUT
10
67.5184
20
130.9215
0
VERTEX
8
CUT
10
67.6868
20
131.1069
0
VERTEX
8
CUT
10
67.8358
20
131.3081
0
VERTEX
8
CUT
10
67.9639
20
131.5233
0
VERTEX
8
CUT
10
68.0699
20
131.7502
0
VERTEX
8
CUT
10
68.1526
20
131.9866
0
VERTEX
8
CUT
10
68.2112
20
132.2300
0
VERTEX
8
CUT
10
68.2453
20
132.4781
0
VERTEX
8
CUT
10
68.2543
20
132.7284
0
VERTEX
8
CUT
10
68.2382
20
132.9783
0
VERTEX
8
CUT
10
68.1972
20
133.2253
0
VERTEX
8
CUT
10
68.1229
20
133.5663
0
VERTEX
8
CUT
10
68.0872
20
133.8689
0
VERTEX
8
CUT
10
68.0809
20
134.1735
0
VERTEX
8
CUT
10
68.1041
20
134.4773
0
VERTEX
8
CUT
10
68.1566
20
134.7775
0
VERTEX
8
CUT
10
68.2379
20
135.0711
0
VERTEX
8
CUT
10
68.3472
20
135.3555
0
VERTEX
8
CUT
10
68.4835
20
135.6280
0
VERTEX
8
CUT
10
68.6456
20
135.8860
0
VERTEX
8
CUT
10
68.8318
20
136.1271
0
VERTEX
8
CUT
10
69.0405
20
136.3490
0
VERTEX
8
CUT
10
69.2698
20
136.5497
0
VERTEX
8
CUT
10
69.5173
20
136.7273
0
VERTEX
8
CUT
10
69.7809
20
136.8801
0
VERTEX
8
CUT
10
70.0581
20
137.0067
0
VERTEX
8
CUT
10
70.3738
20
137.1154
0
VERTEX
8
CUT
10
70.4050
20
137.1245
0
VERTEX
8
CUT
10
70.5806
20
137.1710
0
VERTEX
8
CUT
10
71.1315
20
137.3027
0
VERTEX
8
CUT
10
71.3991
20
137.3827
0
VERTEX
8
CUT
10
71.6562
20
137.4920
0
VERTEX
8
CUT
10
73.5838
20
138.4427
0
VERTEX
8
CUT
10
73.7836
20
138.5529
0
VERTEX
8
CUT
10
73.9726
20
138.6808
0
VERTEX
8
CUT
10
74.1491
20
138.8255
0
VERTEX
8
CUT
10
75.5245
20
140.0615
0
VERTEX
8
CUT
10
75.6949
20
140.2302
0
VERTEX
8
CUT
10
75.8484
20
140.4144
0
VERTEX
8
CUT
10
75.9836
20
140.6125
0
VERTEX
8
CUT
10
76.1259
20
140.8441
0
VERTEX
8
CUT
10
76.3856
20
141.1150
0
VERTEX
8
CUT
10
76.5335
20
141.2838
0
VERTEX
8
CUT
10
76.6657
20
141.4652
0
VERTEX
8
CUT
10
76.7811
20
141.6578
0
VERTEX
8
CUT
10
77.3446
20
142.7018
0
VERTEX
8
CUT
10
77.4678
20
142.9658
0
VERTEX
8
CUT
10
77.5594
20
143.2423
0
VERTEX
8
CUT
10
77.5650
20
143.2631
0
VERTEX
8
CUT
10
77.6072
20
143.3660
0
VERTEX
8
CUT
10
77.8752
20
144.1341
0
VERTEX
8
CUT
10
77.9350
20
144.3314
0
VERTEX
8
CUT
10
77.9784
20
144.5329
0
VERTEX
8
CUT
10
78.0050
20
144.7373
0
VERTEX
8
CUT
10
78.1041
20
145.8568
0
VERTEX
8
CUT
10
78.1043
20
145.8577
0
VERTEX
8
CUT
10
78.1441
20
146.0617
0
VERTEX
8
CUT
10
78.1668
20
146.2682
0
VERTEX
8
CUT
10
78.1723
20
146.4760
0
VERTEX
8
CUT
10
78.1569
20
147.4989
0
VERTEX
8
CUT
10
78.1308
20
147.8234
0
VERTEX
8
CUT
10
78.0982
20
148.0454
0
VERTEX
8
CUT
10
78.0976
20
148.0958
0
VERTEX
8
CUT
10
78.0827
20
148.3377
0
VERTEX
8
CUT
10
78.0445
20
148.5769
0
VERTEX
8
CUT
10
77.9264
20
149.1395
0
VERTEX
8
CUT
10
77.8938
20
149.3358
0
VERTEX
8
CUT
10
77.8545
20
149.4821
0
VERTEX
8
CUT
10
77.7830
20
149.8228
0
VERTEX
8
CUT
10
77.7303
20
150.0298
0
VERTEX
8
CUT
10
77.6601
20
150.2315
0
VERTEX
8
CUT
10
77.5729
20
150.4264
0
VERTEX
8
CUT
10
77.0880
20
151.3973
0
VERTEX
8
CUT
10
76.9879
20
151.5786
0
VERTEX
8
CUT
10
76.8731
20
151.7509
0
VERTEX
8
CUT
10
76.1951
20
152.6829
0
VERTEX
8
CUT
10
76.1619
20
152.7358
0
VERTEX
8
CUT
10
76.0406
20
152.9115
0
VERTEX
8
CUT
10
75.9048
20
153.0763
0
VERTEX
8
CUT
10
75.7620
20
153.2353
0
VERTEX
8
CUT
10
75.7512
20
153.2504
0
VERTEX
8
CUT
10
75.6144
20
153.4250
0
VERTEX
8
CUT
10
75.4627
20
153.5867
0
VERTEX
8
CUT
10
74.5895
20
154.4389
0
VERTEX
8
CUT
10
74.3174
20
154.6690
0
VERTEX
8
CUT
10
73.6968
20
155.1220
0
VERTEX
8
CUT
10
72.8681
20
155.8832
0
VERTEX
8
CUT
10
72.7174
20
156.0296
0
VERTEX
8
CUT
10
72.6179
20
156.1318
0
VERTEX
8
CUT
10
72.4756
20
156.2865
0
VERTEX
8
CUT
10
71.8646
20
156.9891
0
VERTEX
8
CUT
10
71.7411
20
157.1388
0
VERTEX
8
CUT
10
71.7197
20
157.1661
0
VERTEX
8
CUT
10
71.5147
20
157.4580
0
VERTEX
8
CUT
10
71.3563
20
157.7422
0
VERTEX
8
CUT
10
71.2280
20
158.0413
0
VERTEX
8
CUT
10
71.1313
20
158.3520
0
VERTEX
8
CUT
10
71.0891
20
158.5626
0
VERTEX
8
CUT
10
71.0794
20
158.8479
0
VERTEX
8
CUT
10
71.0799
20
158.8808
0
VERTEX
8
CUT
10
71.0872
20
159.0650
0
VERTEX
8
CUT
10
71.1187
20
159.5539
0
VERTEX
8
CUT
10
71.1343
20
159.7307
0
VERTEX
8
CUT
10
71.1378
20
159.7623
0
VERTEX
8
CUT
10
71.1895
20
160.0845
0
VERTEX
8
CUT
10
71.2255
20
160.2235
0
VERTEX
8
CUT
10
71.2752
20
160.4628
0
VERTEX
8
CUT
10
71.3013
20
160.7058
0
VERTEX
8
CUT
10
71.3036
20
160.9502
0
VERTEX
8
CUT
10
71.2819
20
161.1937
0
VERTEX
8
CUT
10
71.2366
20
161.4339
0
VERTEX
8
CUT
10
71.1681
20
161.6685
0
VERTEX
8
CUT
10
71.0769
20
161.8953
0
VERTEX
8
CUT
10
70.9641
20
162.1121
0
VERTEX
8
CUT
10
70.8306
20
162.3169
0
VERTEX
8
CUT
10
70.6778
20
162.5077
0
VERTEX
8
CUT
10
70.5070
20
162.6826
0
VERTEX
8
CUT
10
70.3200
20
162.8400
0
VERTEX
8
CUT
10
70.1186
20
162.9784
0
VERTEX
8
CUT
10
69.9045
20
163.0964
0
VERTEX
8
CUT
10
69.6800
20
163.1930
0
VERTEX
8
CUT
10
69.4471
20
163.2672
0
VERTEX
8
CUT
10
69.2081
20
163.3183
0
VERTEX
8
CUT
10
68.9652
20
163.3458
0
VERTEX
8
CUT
10
68.7208
20
163.3495
0
VERTEX
8
CUT
10
68.4772
20
163.3293
0
VERTEX
8
CUT
10
68.2367
20
163.2854
0
VERTEX
8
CUT
10
68.0017
20
163.2182
0
VERTEX
8
CUT
10
66.8848
20
162.8389
0
VERTEX
8
CUT
10
65.5380
20
162.4160
0
VERTEX
8
CUT
10
65.3449
20
162.3466
0
VERTEX
8
CUT
10
65.1582
20
162.2615
0
VERTEX
8
CUT
10
62.7324
20
161.0341
0
VERTEX
8
CUT
10
62.5213
20
160.9140
0
VERTEX
8
CUT
10
62.3229
20
160.7741
0
VERTEX
8
CUT
10
60.0511
20
159.0008
0
VERTEX
8
CUT
10
59.7925
20
158.7682
0
VERTEX
8
CUT
10
59.1355
20
158.0890
0
VERTEX
8
CUT
10
58.7523
20
157.7614
0
VERTEX
8
CUT
10
58.5783
20
157.5976
0
VERTEX
8
CUT
10
58.4207
20
157.4179
0
VERTEX
8
CUT
10
58.1168
20
157.0360
0
VERTEX
8
CUT
10
57.5155
20
156.4143
0
VERTEX
8
CUT
10
57.3839
20
156.2671
0
VERTEX
8
CUT
10
57.2644
20
156.1100
0
VERTEX
8
CUT
10
56.4182
20
154.9012
0
VERTEX
8
CUT
10
55.7330
20
154.0401
0
VERTEX
8
CUT
10
55.5404
20
153.7612
0
VERTEX
8
CUT
10
55.0915
20
153.0063
0
VERTEX
8
CUT
10
54.8545
20
152.6677
0
VERTEX
8
CUT
10
54.7449
20
152.4969
0
VERTEX
8
CUT
10
54.6496
20
152.3177
0
VERTEX
8
CUT
10
54.5118
20
152.0313
0
VERTEX
8
CUT
10
54.4419
20
151.9136
0
VERTEX
8
CUT
10
54.3261
20
151.6950
0
VERTEX
8
CUT
10
54.2478
20
151.5276
0
VERTEX
8
CUT
10
53.9397
20
150.9479
0
VERTEX
8
CUT
10
53.8443
20
150.7474
0
VERTEX
8
CUT
10
53.7671
20
150.5393
0
VERTEX
8
CUT
10
53.7265
20
150.4129
0
VERTEX
8
CUT
10
53.4947
20
149.9173
0
VERTEX
8
CUT
10
53.3667
20
149.6512
0
VERTEX
8
CUT
10
53.2929
20
149.4820
0
VERTEX
8
CUT
10
53.2318
20
149.3079
0
VERTEX
8
CUT
10
52.8144
20
147.9624
0
VERTEX
8
CUT
10
52.7720
20
147.8336
0
VERTEX
8
CUT
10
52.7464
20
147.7430
0
VERTEX
8
CUT
10
52.7370
20
147.7127
0
VERTEX
8
CUT
10
52.7231
20
147.6607
0
VERTEX
8
CUT
10
52.7144
20
147.6302
0
VERTEX
8
CUT
10
52.7131
20
147.6236
0
VERTEX
8
CUT
10
52.6858
20
147.5211
0
VERTEX
8
CUT
10
52.6499
20
147.3260
0
VERTEX
8
CUT
10
52.4536
20
145.9532
0
VERTEX
8
CUT
10
52.4321
20
145.7354
0
VERTEX
8
CUT
10
52.4298
20
145.5165
0
VERTEX
8
CUT
10
52.4709
20
144.2747
0
SEQEND
0
POLYLINE
8
CUT
66
1
70
1
10
0.0
20
0.0
30
0.0
0
VERTEX
8
CUT
10
53.1660
20
53.6024
0
VERTEX
8
CUT
10
53.2388
20
53.3537
0
VERTEX
8
CUT
10
53.6393
20
52.2089
0
VERTEX
8
CUT
10
53.7247
20
51.9965
0
VERTEX
8
CUT
10
53.8292
20
51.7928
0
VERTEX
8
CUT
10
53.9519
20
51.5995
0
VERTEX
8
CUT
10
54.4533
20
50.8843
0
VERTEX
8
CUT
10
54.5957
20
50.7000
0
VERTEX
8
CUT
10
54.7547
20
50.5299
0
VERTEX
8
CUT
10
54.9287
20
50.3752
0
VERTEX
8
CUT
10
55.1164
20
50.2374
0
VERTEX
8
CUT
10
55.3161
20
50.1177
0
VERTEX
8
CUT
10
56.8744
20
49.2794
0
VERTEX
8
CUT
10
57.0804
20
49.1805
0
VERTEX
8
CUT
10
57.2946
20
49.1008
0
VERTEX
8
CUT
10
57.5151
20
49.0409
0
VERTEX
8
CUT
10
58.0819
20
48.9147
0
VERTEX
8
CUT
10
58.2855
20
48.8781
0
VERTEX
8
CUT
10
58.4915
20
48.8584
0
VERTEX
8
CUT
10
58.6983
20
48.8559
0
VERTEX
8
CUT
10
59.2563
20
48.8722
0
VERTEX
8
CUT
10
59.5485
20
48.8979
0
VERTEX
8
CUT
10
59.8357
20
48.9577
0
VERTEX
8
CUT
10
60.5692
20
49.1559
0
VERTEX
8
CUT
10
60.7892
20
49.2264
0
VERTEX
8
CUT
10
61.0017
20
49.3169
0
VERTEX
8
CUT
10
61.7928
20
49.6979
0
VERTEX
8
CUT
10
62.0296
20
49.8282
0
VERTEX
8
CUT
10
62.2510
20
49.9832
0
VERTEX
8
CUT
10
62.4543
20
50.1613
0
VERTEX
8
CUT
10
63.3654
20
51.0506
0
VERTEX
8
CUT
10
63.5350
20
51.2335
0
VERTEX
8
CUT
10
63.6855
20
51.4324
0
VERTEX
8
CUT
10
63.8155
20
51.6454
0
VERTEX
8
CUT
10
63.9236
20
51.8702
0
VERTEX
8
CUT
10
64.2057
20
52.5409
0
VERTEX
8
CUT
10
64.2987
20
52.8013
0
VERTEX
8
CUT
10
64.3623
20
53.0705
0
VERTEX
8
CUT
10
64.4153
20
53.3671
0
VERTEX
8
CUT
10
64.4455
20
53.5980
0
VERTEX
8
CUT
10
64.4542
20
53.8307
0
VERTEX
8
CUT
10
64.4368
20
55.6519
0
VERTEX
8
CUT
10
64.4153
20
55.9563
0
VERTEX
8
CUT
10
64.3569
20
56.2557
0
VERTEX
8
CUT
10
64.2168
20
56.7960
0
VERTEX
8
CUT
10
64.1501
20
57.0123
0
VERTEX
8
CUT
10
64.0641
20
57.2218
0
VERTEX
8
CUT
10
63.9595
20
57.4226
0
VERTEX
8
CUT
10
63.7577
20
57.7705
0
VERTEX
8
CUT
10
63.6323
20
57.9653
0
VERTEX
8
CUT
10
63.4894
20
58.1477
0
VERTEX
8
CUT
10
63.3302
20
58.3161
0
VERTEX
8
CUT
10
62.3477
20
59.2633
0
VERTEX
8
CUT
10
62.1144
20
59.4621
0
VERTEX
8
CUT
10
61.8585
20
59.6309
0
VERTEX
8
CUT
10
61.2831
20
59.9616
0
VERTEX
8
CUT
10
61.0563
20
60.0770
0
VERTEX
8
CUT
10
60.8189
20
60.1688
0
VERTEX
8
CUT
10
60.2232
20
60.3649
0
VERTEX
8
CUT
10
59.9968
20
60.4278
0
VERTEX
8
CUT
10
59.7655
20
60.4692
0
VERTEX
8
CUT
10
59.5313
20
60.4887
0
VERTEX
8
CUT
10
58.5767
20
60.5230
0
VERTEX
8
CUT
10
58.3561
20
60.5212
0
VERTEX
8
CUT
10
58.1365
20
60.4999
0
VERTEX
8
CUT
10
57.9196
20
60.4594
0
VERTEX
8
CUT
10
57.7072
20
60.3999
0
VERTEX
8
CUT
10
56.7083
20
60.0721
0
VERTEX
8
CUT
10
56.4810
20
59.9850
0
VERTEX
8
CUT
10
56.2632
20
59.8762
0
VERTEX
8
CUT
10
56.0571
20
59.7467
0
VERTEX
8
CUT
10
55.8645
20
59.5978
0
VERTEX
8
CUT
10
54.7745
20
58.6670
0
VERTEX
8
CUT
10
54.6069
20
58.5100
0
VERTEX
8
CUT
10
54.4545
20
58.3384
0
VERTEX
8
CUT
10
54.3184
20
58.1534
0
VERTEX
8
CUT
10
53.6946
20
57.2183
0
VERTEX
8
CUT
10
53.5546
20
56.9813
0
VERTEX
8
CUT
10
53.4416
20
56.7303
0
VERTEX
8
CUT
10
53.3549
20
56.5054
0
VERTEX
8
CUT
10
53.2873
20
56.3054
0
VERTEX
8
CUT
10
53.2369
20
56.1004
0
VERTEX
8
CUT
10
53.2039
20
55.8918
0
VERTEX
8
CUT
10
53.0750
20
54.7720
0
VERTEX
8
CUT
10
53.0587
20
54.4680
0
VERTEX
8
CUT
10
53.0794
20
54.1642
0
VERTEX
8
CUT
10
53.1193
20
53.8574
0
SEQEND
0
POLYLINE
8
CUT
66
1
70
1
10
0.0
20
0.0
30
0.0
0
VERTEX
8
CUT
10
54.3429
20
262.5259
0
VERTEX
8
CUT
10
54.3940
20
262.2583
0
VERTEX
8
CUT
10
54.4739
20
261.9978
0
VERTEX
8
CUT
10
54.5817
20
261.7475
0
VERTEX
8
CUT
10
54.7160
20
261.5105
0
VERTEX
8
CUT
10
55.1096
20
260.8968
0
VERTEX
8
CUT
10
55.2337
20
260.7205
0
VERTEX
8
CUT
10
55.3725
20
260.5556
0
VERTEX
8
CUT
10
55.5250
20
260.4032
0
VERTEX
8
CUT
10
55.6901
20
260.2645
0
VERTEX
8
CUT
10
56.2676
20
259.8205
0
VERTEX
8
CUT
10
56.4982
20
259.6628
0
VERTEX
8
CUT
10
56.7450
20
259.5319
0
VERTEX
8
CUT
10
57.2732
20
259.2884
0
VERTEX
8
CUT
10
57.4821
20
259.2033
0
VERTEX
8
CUT
10
57.6979
20
259.1374
0
VERTEX
8
CUT
10
58.1246
20
259.0278
0
VERTEX
8
CUT
10
58.3295
20
258.9842
0
VERTEX
8
CUT
10
58.5372
20
258.9580
0
VERTEX
8
CUT
10
58.7465
20
258.9492
0
VERTEX
8
CUT
10
58.9287
20
258.9492
0
VERTEX
8
CUT
10
59.1881
20
258.9627
0
VERTEX
8
CUT
10
59.4447
20
259.0030
0
VERTEX
8
CUT
10
59.6958
20
259.0698
0
VERTEX
8
CUT
10
60.4270
20
259.3056
0
VERTEX
8
CUT
10
60.6576
20
259.3927
0
VERTEX
8
CUT
10
60.8786
20
259.5021
0
VERTEX
8
CUT
10
61.0876
20
259.6328
0
VERTEX
8
CUT
10
62.1596
20
260.3786
0
VERTEX
8
CUT
10
62.3523
20
260.5271
0
VERTEX
8
CUT
10
62.5297
20
260.6937
0
VERTEX
8
CUT
10
62.6900
20
260.8767
0
VERTEX
8
CUT
10
62.8318
20
261.0744
0
VERTEX
8
CUT
10
63.3129
20
261.8193
0
VERTEX
8
CUT
10
63.4421
20
262.0442
0
VERTEX
8
CUT
10
63.5473
20
262.2813
0
VERTEX
8
CUT
10
63.6274
20
262.5280
0
VERTEX
8
CUT
10
63.6815
20
262.7817
0
VERTEX
8
CUT
10
63.8190
20
263.6430
0
VERTEX
8
CUT
10
63.8457
20
263.8874
0
VERTEX
8
CUT
10
63.8483
20
264.1332
0
VERTEX
8
CUT
10
63.8268
20
264.3781
0
VERTEX
8
CUT
10
63.7813
20
264.6198
0
VERTEX
8
CUT
10
63.5241
20
265.6921
0
VERTEX
8
CUT
10
63.4650
20
265.8991
0
VERTEX
8
CUT
10
63.3882
20
266.1002
0
VERTEX
8
CUT
10
63.2945
20
266.2940
0
VERTEX
8
CUT
10
63.1844
20
266.4790
0
VERTEX
8
CUT
10
62.8086
20
267.0528
0
VERTEX
8
CUT
10
62.6604
20
267.2560
0
VERTEX
8
CUT
10
62.4924
20
267.4433
0
VERTEX
8
CUT
10
62.3066
20
267.6128
0
VERTEX
8
CUT
10
61.8174
20
268.0156
0
VERTEX
8
CUT
10
61.6212
20
268.1617
0
VERTEX
8
CUT
10
61.4117
20
268.2879
0
VERTEX
8
CUT
10
61.1908
20
268.3930
0
VERTEX
8
CUT
10
60.6393
20
268.6231
0
VERTEX
8
CUT
10
60.4408
20
268.6963
0
VERTEX
8
CUT
10
60.2368
20
268.7524
0
VERTEX
8
CUT
10
60.0288
20
268.7910
0
VERTEX
8
CUT
10
59.3602
20
268.8861
0
VERTEX
8
CUT
10
59.1421
20
268.9075
0
VERTEX
8
CUT
10
58.9230
20
268.9096
0
VERTEX
8
CUT
10
58.7045
20
268.8926
0
VERTEX
8
CUT
10
58.0337
20
268.8105
0
VERTEX
8
CUT
10
57.8304
20
268.7771
0
VERTEX
8
CUT
10
57.6306
20
268.7271
0
VERTEX
8
CUT
10
57.4356
20
268.6608
0
VERTEX
8
CUT
10
56.8343
20
268.4283
0
VERTEX
8
CUT
10
56.6204
20
268.3338
0
VERTEX
8
CUT
10
56.4163
20
268.2199
0
VERTEX
8
CUT
10
56.2237
20
268.0873
0
VERTEX
8
CUT
10
55.6791
20
267.6737
0
VERTEX
8
CUT
10
55.4892
20
267.5139
0
VERTEX
8
CUT
10
55.3160
20
267.3361
0
VERTEX
8
CUT
10
55.1613
20
267.1420
0
VERTEX
8
CUT
10
54.8101
20
266.6535
0
VERTEX
8
CUT
10
54.6877
20
266.4659
0
VERTEX
8
CUT
10
54.5825
20
266.2681
0
VERTEX
8
CUT
10
54.4954
20
266.0618
0
VERTEX
8
CUT
10
54.4272
20
265.8484
0
VERTEX
8
CUT
10
54.3783
20
265.6298
0
VERTEX
8
CUT
10
54.1886
20
264.5571
0
VERTEX
8
CUT
10
54.1568
20
264.3016
0
VERTEX
8
CUT
10
54.1515
20
264.0441
0
VERTEX
8
CUT
10
54.1728
20
263.7875
0
SEQEND
0
POLYLINE
8
CUT
66
1
70
1
10
0.0
20
0.0
30
0.0
0
VERTEX
8
CUT
10
37.0578
20
87.6236
0
VERTEX
8
CUT
10
37.1288
20
87.4263
0
VERTEX
8
CUT
10
37.2161
20
87.2357
0
VERTEX
8
CUT
10
37.9791
20
85.7387
0
VERTEX
8
CUT
10
38.1084
20
85.5146
0
VERTEX
8
CUT
10
38.2601
20
85.3050
0
VERTEX
8
CUT
10
39.4424
20
83.8384
0
VERTEX
8
CUT
10
39.6146
20
83.6460
0
VERTEX
8
CUT
10
39.8057
20
83.4724
0
VERTEX
8
CUT
10
41.2919
20
82.2565
0
VERTEX
8
CUT
10
41.4491
20
82.1380
0
VERTEX
8
CUT
10
41.6151
20
82.0321
0
VERTEX
8
CUT
10
42.3195
20
81.6212
0
VERTEX
8
CUT
10
42.5004
20
81.5253
0
VERTEX
8
CUT
10
42.6886
20
81.4446
0
VERTEX
8
CUT
10
44.4250
20
80.7824
0
VERTEX
8
CUT
10
44.6205
20
80.7170
0
VERTEX
8
CUT
10
44.8207
20
80.6679
0
VERTEX
8
CUT
10
45.0243
20
80.6354
0
VERTEX
8
CUT
10
45.8749
20
80.5355
0
VERTEX
8
CUT
10
46.0897
20
80.5197
0
VERTEX
8
CUT
10
46.3050
20
80.5223
0
VERTEX
8
CUT
10
48.4979
20
80.6441
0
VERTEX
8
CUT
10
48.8619
20
80.6913
0
VERTEX
8
CUT
10
50.0835
20
80.9420
0
VERTEX
8
CUT
10
50.3586
20
81.0150
0
VERTEX
8
CUT
10
50.6236
20
81.1187
0
VERTEX
8
CUT
10
52.4513
20
81.9574
0
VERTEX
8
CUT
10
52.7187
20
82.1003
0
VERTEX
8
CUT
10
52.9668
20
82.2745
0
VERTEX
8
CUT
10
54.1193
20
83.1929
0
VERTEX
8
CUT
10
54.2809
20
83.3334
0
VERTEX
8
CUT
10
54.4299
20
83.4873
0
VERTEX
8
CUT
10
55.5273
20
84.7221
0
VERTEX
8
CUT
10
55.6653
20
84.8918
0
VERTEX
8
CUT
10
55.7880
20
85.0729
0
VERTEX
8
CUT
10
56.6003
20
86.3934
0
VERTEX
8
CUT
10
56.7091
20
86.5894
0
VERTEX
8
CUT
10
56.7999
20
86.7944
0
VERTEX
8
CUT
10
57.3644
20
88.2409
0
VERTEX
8
CUT
10
57.4419
20
88.4723
0
VERTEX
8
CUT
10
57.4965
20
88.7102
0
VERTEX
8
CUT
10
57.5276
20
88.9522
0
VERTEX
8
CUT
10
57.6301
20
90.2449
0
VERTEX
8
CUT
10
57.6370
20
90.5122
0
VERTEX
8
CUT
10
57.5624
20
93.1830
0
VERTEX
8
CUT
10
57.5410
20
93.4470
0
VERTEX
8
CUT
10
57.4918
20
93.7072
0
VERTEX
8
CUT
10
57.1833
20
94.9684
0
VERTEX
8
CUT
10
57.0998
20
95.2412
0
VERTEX
8
CUT
10
56.9858
20
95.5026
0
VERTEX
8
CUT
10
56.1689
20
97.1180
0
VERTEX
8
CUT
10
55.9877
20
97.4210
0
VERTEX
8
CUT
10
55.3718
20
98.3030
0
VERTEX
8
CUT
10
55.2157
20
98.5040
0
VERTEX
8
CUT
10
55.0399
20
98.6880
0
VERTEX
8
CUT
10
53.8596
20
99.8044
0
VERTEX
8
CUT
10
53.6656
20
99.9700
0
VERTEX
8
CUT
10
53.4557
20
100.1149
0
VERTEX
8
CUT
10
52.0104
20
101.0079
0
VERTEX
8
CUT
10
51.8311
20
101.1087
0
VERTEX
8
CUT
10
51.6441
20
101.1944
0
VERTEX
8
CUT
10
50.7778
20
101.5494
0
VERTEX
8
CUT
10
50.5474
20
101.6309
0
VERTEX
8
CUT
10
50.3100
20
101.6895
0
VERTEX
8
CUT
10
48.2274
20
102.0969
0
VERTEX
8
CUT
10
47.9886
20
102.1317
0
VERTEX
8
CUT
10
47.7475
20
102.1434
0
VERTEX
8
CUT
10
46.8580
20
102.1434
0
VERTEX
8
CUT
10
46.6218
20
102.1322
0
VERTEX
8
CUT
10
46.3877
20
102.0987
0
VERTEX
8
CUT
10
44.2220
20
101.6839
0
VERTEX
8
CUT
10
43.9994
20
101.6306
0
VERTEX
8
CUT
10
43.7826
20
101.5572
0
VERTEX
8
CUT
10
42.8830
20
101.2057
0
VERTEX
8
CUT
10
42.6630
20
101.1073
0
VERTEX
8
CUT
10
42.4535
20
100.9881
0
VERTEX
8
CUT
10
40.6049
20
99.8154
0
VERTEX
8
CUT
10
40.3812
20
99.6556
0
VERTEX
8
CUT
10
40.1764
20
99.4721
0
VERTEX
8
CUT
10
39.2719
20
98.5677
0
VERTEX
8
CUT
10
39.0818
20
98.3546
0
VERTEX
8
CUT
10
38.9173
20
98.1211
0
VERTEX
8
CUT
10
37.7162
20
96.1916
0
VERTEX
8
CUT
10
37.5926
20
95.9685
0
VERTEX
8
CUT
10
37.4924
20
95.7340
0
VERTEX
8
CUT
10
36.9981
20
94.3910
0
VERTEX
8
CUT
10
36.9164
20
94.1239
0
VERTEX
8
CUT
10
36.8650
20
93.8494
0
VERTEX
8
CUT
10
36.8446
20
93.5708
0
VERTEX
8
CUT
10
36.7686
20
89.1991
0
VERTEX
8
CUT
10
36.7810
20
88.9032
0
VERTEX
8
CUT
10
36.8283
20
88.6108
0
VERTEX
8
CUT
10
37.0036
20
87.8261
0
SEQEND
0
POLYLINE
8
CUT
66
1
70
1
10
0.0
20
0.0
30
0.0
0
VERTEX
8
CUT
10
34.5013
20
213.4513
0
VERTEX
8
CUT
10
34.5731
20
213.1648
0
VERTEX
8
CUT
10
34.7884
20
212.4806
0
VERTEX
8
CUT
10
34.8630
20
212.2752
0
VERTEX
8
CUT
10
34.9553
20
212.0771
0
VERTEX
8
CUT
10
35.0645
20
211.8878
0
VERTEX
8
CUT
10
35.5781
20
211.0814
0
VERTEX
8
CUT
10
35.7134
20
210.8895
0
VERTEX
8
CUT
10
35.8661
20
210.7111
0
VERTEX
8
CUT
10
36.5592
20
209.9745
0
VERTEX
8
CUT
10
36.7395
20
209.8011
0
VERTEX
8
CUT
10
36.9362
20
209.6467
0
VERTEX
8
CUT
10
37.6701
20
209.1276
0
VERTEX
8
CUT
10
37.8785
20
208.9952
0
VERTEX
8
CUT
10
38.0989
20
208.8839
0
VERTEX
8
CUT
10
38.8776
20
208.5380
0
VERTEX
8
CUT
10
39.1256
20
208.4433
0
VERTEX
8
CUT
10
39.3823
20
208.3754
0
VERTEX
8
CUT
10
40.1989
20
208.2052
0
VERTEX
8
CUT
10
40.4528
20
208.1657
0
VERTEX
8
CUT
10
40.7095
20
208.1526
0
VERTEX
8
CUT
10
41.5670
20
208.1527
0
VERTEX
8
CUT
10
41.8364
20
208.1673
0
VERTEX
8
CUT
10
42.1026
20
208.2108
0
VERTEX
8
CUT
10
42.9162
20
208.3894
0
VERTEX
8
CUT
10
43.1192
20
208.4430
0
VERTEX
8
CUT
10
43.3170
20
208.5134
0
VERTEX
8
CUT
10
43.5081
20
208.6002
0
VERTEX
8
CUT
10
45.0228
20
209.3660
0
VERTEX
8
CUT
10
45.2183
20
209.4761
0
VERTEX
8
CUT
10
45.4031
20
209.6033
0
VERTEX
8
CUT
10
45.5758
20
209.7465
0
VERTEX
8
CUT
10
45.7349
20
209.9047
0
VERTEX
8
CUT
10
46.5654
20
210.8077
0
VERTEX
8
CUT
10
46.7153
20
210.9867
0
VERTEX
8
CUT
10
46.8478
20
211.1789
0
VERTEX
8
CUT
10
46.9618
20
211.3827
0
VERTEX
8
CUT
10
47.5666
20
212.5932
0
VERTEX
8
CUT
10
47.6627
20
212.8110
0
VERTEX
8
CUT
10
47.7377
20
213.0369
0
VERTEX
8
CUT
10
47.8783
20
213.5395
0
VERTEX
8
CUT
10
47.9407
20
213.8263
0
VERTEX
8
CUT
10
47.9690
20
214.1185
0
VERTEX
8
CUT
10
48.0208
20
215.4858
0
VERTEX
8
CUT
10
48.0179
20
215.7338
0
VERTEX
8
CUT
10
47.9904
20
215.9803
0
VERTEX
8
CUT
10
47.9387
20
216.2228
0
VERTEX
8
CUT
10
47.6431
20
217.3343
0
VERTEX
8
CUT
10
47.5665
20
217.5735
0
VERTEX
8
CUT
10
47.4662
20
217.8038
0
VERTEX
8
CUT
10
47.2788
20
218.1813
0
VERTEX
8
CUT
10
47.1312
20
218.4389
0
VERTEX
8
CUT
10
46.9541
20
218.6772
0
VERTEX
8
CUT
10
45.6000
20
220.2896
0
VERTEX
8
CUT
10
45.3898
20
220.5109
0
VERTEX
8
CUT
10
45.1542
20
220.7049
0
VERTEX
8
CUT
10
44.8734
20
220.9087
0
VERTEX
8
CUT
10
44.6410
20
221.0586
0
VERTEX
8
CUT
10
44.3934
20
221.1818
0
VERTEX
8
CUT
10
43.7221
20
221.4709
0
VERTEX
8
CUT
10
43.4619
20
221.5662
0
VERTEX
8
CUT
10
43.1928
20
221.6321
0
VERTEX
8
CUT
10
42.9181
20
221.6678
0
VERTEX
8
CUT
10
40.6837
20
221.8334
0
VERTEX
8
CUT
10
40.4099
20
221.8386
0
VERTEX
8
CUT
10
40.1372
20
221.8139
0
VERTEX
8
CUT
10
39.3445
20
221.6979
0
VERTEX
8
CUT
10
39.0497
20
221.6365
0
VERTEX
8
CUT
10
38.7645
20
221.5401
0
VERTEX
8
CUT
10
38.3270
20
221.3621
0
VERTEX
8
CUT
10
38.0916
20
221.2518
0
VERTEX
8
CUT
10
37.8690
20
221.1177
0
VERTEX
8
CUT
10
37.2307
20
220.6863
0
VERTEX
8
CUT
10
37.0375
20
220.5416
0
VERTEX
8
CUT
10
36.8591
20
220.3790
0
VERTEX
8
CUT
10
35.7951
20
219.3106
0
VERTEX
8
CUT
10
35.6303
20
219.1280
0
VERTEX
8
CUT
10
35.4842
20
218.9300
0
VERTEX
8
CUT
10
35.1630
20
218.4465
0
VERTEX
8
CUT
10
35.0474
20
218.2544
0
VERTEX
8
CUT
10
34.9495
20
218.0527
0
VERTEX
8
CUT
10
34.8701
20
217.8431
0
VERTEX
8
CUT
10
34.6258
20
217.0993
0
VERTEX
8
CUT
10
34.5558
20
216.8400
0
VERTEX
8
CUT
10
34.5141
20
216.5747
0
VERTEX
8
CUT
10
34.3895
20
215.3616
0
VERTEX
8
CUT
10
34.3767
20
215.1487
0
VERTEX
8
CUT
10
34.3822
20
214.9354
0
VERTEX
8
CUT
10
34.4637
20
213.7443
0
SEQEND
0
POLYLINE
8
CUT
66
1
70
1
10
0.0
20
0.0
30
0.0
0
VERTEX
8
CUT
10
36.7346
20
174.7935
0
VERTEX
8
CUT
10
36.8433
20
174.5342
0
VERTEX
8
CUT
10
37.1584
20
173.8876
0
VERTEX
8
CUT
10
37.2813
20
173.6650
0
VERTEX
8
CUT
10
37.4261
20
173.4561
0
VERTEX
8
CUT
10
37.8663
20
172.8853
0
VERTEX
8
CUT
10
38.0248
20
172.6994
0
VERTEX
8
CUT
10
38.2006
20
172.5298
0
VERTEX
8
CUT
10
38.6857
20
172.1058
0
VERTEX
8
CUT
10
38.9045
20
171.9350
0
VERTEX
8
CUT
10
39.1409
20
171.7895
0
VERTEX
8
CUT
10
39.5964
20
171.5429
0
VERTEX
8
CUT
10
39.8065
20
171.4416
0
VERTEX
8
CUT
10
40.0251
20
171.3603
0
VERTEX
8
CUT
10
40.2129
20
171.3097
0
VERTEX
8
CUT
10
40.3033
20
171.2693
0
VERTEX
8
CUT
10
40.5591
20
171.1863
0
VERTEX
8
CUT
10
40.8223
20
171.1313
0
VERTEX
8
CUT
10
41.4687
20
171.0322
0
VERTEX
8
CUT
10
41.8322
20
170.9524
0
VERTEX
8
CUT
10
42.0686
20
170.9122
0
VERTEX
8
CUT
10
42.3078
20
170.8949
0
VERTEX
8
CUT
10
42.5476
20
170.9006
0
VERTEX
8
CUT
10
43.0588
20
170.9374
0
VERTEX
8
CUT
10
43.3305
20
170.9720
0
VERTEX
8
CUT
10
43.5967
20
171.0360
0
VERTEX
8
CUT
10
44.1952
20
171.2153
0
VERTEX
8
CUT
10
44.4271
20
171.2974
0
VERTEX
8
CUT
10
44.6499
20
171.4019
0
VERTEX
8
CUT
10
45.1939
20
171.6906
0
VERTEX
8
CUT
10
45.3810
20
171.8005
0
VERTEX
8
CUT
10
45.5578
20
171.9263
0
VERTEX
8
CUT
10
45.7230
20
172.0669
0
VERTEX
8
CUT
10
46.3736
20
172.6710
0
VERTEX
8
CUT
10
46.5283
20
172.8278
0
VERTEX
8
CUT
10
46.6685
20
172.9976
0
VERTEX
8
CUT
10
46.7933
20
173.1791
0
VERTEX
8
CUT
10
47.2749
20
173.9507
0
VERTEX
8
CUT
10
47.3797
20
174.1356
0
VERTEX
8
CUT
10
47.4684
20
174.3287
0
VERTEX
8
CUT
10
47.5403
20
174.5287
0
VERTEX
8
CUT
10
47.7649
20
175.2471
0
VERTEX
8
CUT
10
47.8207
20
175.4573
0
VERTEX
8
CUT
10
47.8580
20
175.6716
0
VERTEX
8
CUT
10
47.8765
20
175.8883
0
VERTEX
8
CUT
10
47.9109
20
176.7094
0
VERTEX
8
CUT
10
47.9067
20
176.9931
0
VERTEX
8
CUT
10
47.8703
20
177.2746
0
VERTEX
8
CUT
10
47.7012
20
178.1770
0
VERTEX
8
CUT
10
47.6274
20
178.4708
0
VERTEX
8
CUT
10
47.5187
20
178.7536
0
VERTEX
8
CUT
10
47.5079
20
178.7773
0
VERTEX
8
CUT
10
47.5006
20
178.8016
0
VERTEX
8
CUT
10
47.4246
20
178.9951
0
VERTEX
8
CUT
10
47.3329
20
179.1815
0
VERTEX
8
CUT
10
47.2757
20
179.2864
0
VERTEX
8
CUT
10
47.2077
20
179.4355
0
VERTEX
8
CUT
10
47.1044
20
179.6374
0
VERTEX
8
CUT
10
46.9832
20
179.8291
0
VERTEX
8
CUT
10
46.9648
20
179.8530
0
VERTEX
8
CUT
10
46.8331
20
180.0651
0
VERTEX
8
CUT
10
46.6566
20
180.2880
0
VERTEX
8
CUT
10
46.2042
20
180.7972
0
VERTEX
8
CUT
10
46.0472
20
180.9586
0
VERTEX
8
CUT
10
45.8762
20
181.1053
0
VERTEX
8
CUT
10
45.6928
20
181.2360
0
VERTEX
8
CUT
10
45.0681
20
181.6399
0
VERTEX
8
CUT
10
44.8298
20
181.7761
0
VERTEX
8
CUT
10
44.5780
20
181.8853
0
VERTEX
8
CUT
10
44.4184
20
181.9443
0
VERTEX
8
CUT
10
44.2505
20
182.0170
0
VERTEX
8
CUT
10
44.0550
20
182.0787
0
VERTEX
8
CUT
10
43.9522
20
182.1167
0
VERTEX
8
CUT
10
43.6875
20
182.1983
0
VERTEX
8
CUT
10
43.4155
20
182.2501
0
VERTEX
8
CUT
10
42.7293
20
182.3416
0
VERTEX
8
CUT
10
42.4541
20
182.3629
0
VERTEX
8
CUT
10
42.1783
20
182.3538
0
VERTEX
8
CUT
10
42.1695
20
182.3530
0
VERTEX
8
CUT
10
42.1110
20
182.3537
0
VERTEX
8
CUT
10
41.8773
20
182.3344
0
VERTEX
8
CUT
10
41.7032
20
182.3117
0
VERTEX
8
CUT
10
41.4622
20
182.2904
0
VERTEX
8
CUT
10
41.2159
20
182.2562
0
VERTEX
8
CUT
10
41.1460
20
182.2392
0
VERTEX
8
CUT
10
40.7398
20
182.1864
0
VERTEX
8
CUT
10
40.5079
20
182.1451
0
VERTEX
8
CUT
10
40.2809
20
182.0820
0
VERTEX
8
CUT
10
40.0608
20
181.9979
0
VERTEX
8
CUT
10
39.8496
20
181.8935
0
VERTEX
8
CUT
10
39.0592
20
181.4550
0
VERTEX
8
CUT
10
38.8628
20
181.3340
0
VERTEX
8
CUT
10
38.6785
20
181.1953
0
VERTEX
8
CUT
10
38.5077
20
181.0402
0
VERTEX
8
CUT
10
38.3519
20
180.8701
0
VERTEX
8
CUT
10
38.3387
20
180.8542
0
VERTEX
8
CUT
10
38.2169
20
180.7498
0
VERTEX
8
CUT
10
38.0385
20
180.5810
0
VERTEX
8
CUT
10
37.8776
20
180.3955
0
VERTEX
8
CUT
10
37.7356
20
180.1951
0
VERTEX
8
CUT
10
37.5630
20
179.9241
0
VERTEX
8
CUT
10
37.3496
20
179.6683
0
VERTEX
8
CUT
10
37.1968
20
179.4648
0
VERTEX
8
CUT
10
37.0654
20
179.2468
0
VERTEX
8
CUT
10
36.9569
20
179.0166
0
VERTEX
8
CUT
10
36.7639
20
178.5467
0
VERTEX
8
CUT
10
36.6788
20
178.3047
0
VERTEX
8
CUT
10
36.6189
20
178.0553
0
VERTEX
8
CUT
10
36.4860
20
177.3422
0
VERTEX
8
CUT
10
36.4540
20
177.1115
0
VERTEX
8
CUT
10
36.4437
20
176.8787
0
VERTEX
8
CUT
10
36.4450
20
176.2503
0
VERTEX
8
CUT
10
36.4616
20
175.9680
0
VERTEX
8
CUT
10
36.5100
20
175.6895
0
VERTEX
8
CUT
10
36.6556
20
175.0633
0
SEQEND
0
POLYLINE
8
CUT
66
1
70
1
10
0.0
20
0.0
30
0.0
0
VERTEX
8
CUT
10
31.8388
20
135.8805
0
VERTEX
8
CUT
10
31.6030
20
135.8191
0
VERTEX
8
CUT
10
31.3743
20
135.7351
0
VERTEX
8
CUT
10
31.1549
20
135.6292
0
VERTEX
8
CUT
10
30.9469
20
135.5024
0
VERTEX
8
CUT
10
30.7521
20
135.3560
0
VERTEX
8
CUT
10
30.5726
20
135.1913
0
VERTEX
8
CUT
10
30.4099
20
135.0100
0
VERTEX
8
CUT
10
30.2656
20
134.8137
0
VERTEX
8
CUT
10
30.1412
20
134.6042
0
VERTEX
8
CUT
10
30.0377
20
134.3837
0
VERTEX
8
CUT
10
29.9562
20
134.1541
0
VERTEX
8
CUT
10
29.8974
20
133.9177
0
VERTEX
8
CUT
10
29.8619
20
133.6766
0
VERTEX
8
CUT
10
29.8500
20
133.4333
0
VERTEX
8
CUT
10
29.8500
20
130.4840
0
VERTEX
8
CUT
10
29.8620
20
130.2396
0
VERTEX
8
CUT
10
29.8978
20
129.9975
0
VERTEX
8
CUT
10
29.9571
20
129.7601
0
VERTEX
8
CUT
10
30.0393
20
129.5296
0
VERTEX
8
CUT
10
30.1437
20
129.3083
0
VERTEX
8
CUT
10
30.2692
20
129.0982
0
VERTEX
8
CUT
10
30.4147
20
128.9014
0
VERTEX
8
CUT
10
30.5787
20
128.7198
0
VERTEX
8
CUT
10
30.7596
20
128.5551
0
VERTEX
8
CUT
10
30.9558
20
128.4088
0
VERTEX
8
CUT
10
31.1654
20
128.2825
0
VERTEX
8
CUT
10
31.3863
20
128.1772
0
VERTEX
8
CUT
10
31.6164
20
128.0940
0
VERTEX
8
CUT
10
31.6264
20
128.0910
0
VERTEX
8
CUT
10
31.8431
20
128.0350
0
VERTEX
8
CUT
10
32.0640
20
127.9985
0
VERTEX
8
CUT
10
32.2872
20
127.9820
0
VERTEX
8
CUT
10
32.5110
20
127.9855
0
VERTEX
8
CUT
10
32.7336
20
128.0090
0
VERTEX
8
CUT
10
33.1988
20
128.0793
0
VERTEX
8
CUT
10
33.4316
20
128.1259
0
VERTEX
8
CUT
10
33.6589
20
128.1944
0
VERTEX
8
CUT
10
33.8786
20
128.2840
0
VERTEX
8
CUT
10
34.0889
20
128.3942
0
VERTEX
8
CUT
10
34.2878
20
128.5237
0
VERTEX
8
CUT
10
34.9258
20
128.9840
0
VERTEX
8
CUT
10
35.1163
20
129.1360
0
VERTEX
8
CUT
10
35.2910
20
129.3058
0
VERTEX
8
CUT
10
35.4483
20
129.4919
0
VERTEX
8
CUT
10
35.5868
20
129.6923
0
VERTEX
8
CUT
10
35.7847
20
130.0109
0
VERTEX
8
CUT
10
35.9090
20
130.2359
0
VERTEX
8
CUT
10
36.0094
20
130.4725
0
VERTEX
8
CUT
10
36.0851
20
130.7182
0
VERTEX
8
CUT
10
36.1351
20
130.9703
0
VERTEX
8
CUT
10
36.2173
20
131.5356
0
VERTEX
8
CUT
10
36.2416
20
131.8031
0
VERTEX
8
CUT
10
36.2371
20
132.0716
0
VERTEX
8
CUT
10
36.2038
20
132.3381
0
VERTEX
8
CUT
10
36.0605
20
133.1342
0
VERTEX
8
CUT
10
36.0083
20
133.3624
0
VERTEX
8
CUT
10
35.9350
20
133.5847
0
VERTEX
8
CUT
10
35.8413
20
133.7991
0
VERTEX
8
CUT
10
35.7278
20
134.0039
0
VERTEX
8
CUT
10
35.4894
20
134.3904
0
VERTEX
8
CUT
10
35.3381
20
134.6088
0
VERTEX
8
CUT
10
35.1645
20
134.8099
0
VERTEX
8
CUT
10
34.9706
20
134.9914
0
VERTEX
8
CUT
10
34.7585
20
135.1514
0
VERTEX
8
CUT
10
34.4160
20
135.3821
0
VERTEX
8
CUT
10
34.1971
20
135.5138
0
VERTEX
8
CUT
10
33.9660
20
135.6225
0
VERTEX
8
CUT
10
33.7250
20
135.7070
0
VERTEX
8
CUT
10
33.4766
20
135.7665
0
VERTEX
8
CUT
10
32.8075
20
135.8911
0
VERTEX
8
CUT
10
32.5661
20
135.9239
0
VERTEX
8
CUT
10
32.3226
20
135.9331
0
VERTEX
8
CUT
10
32.0794
20
135.9186
0
SEQEND
0
ENDSEC
0
EOF
