0
SECTION
2
HEADER
9
$ACADVER
1
AC1009
9
$INSUNITS
70
4
0
ENDSEC
0
SECTION
2
TABLES
0
TABLE
2
LAYER
70
1
0
LAYER
2
CUT
70
0
62
7
6
CONTINUOUS
0
ENDTAB
0
ENDSEC
0
SECTION
2
ENTITIES
0
POLYLINE
8
CUT
66
1
70
1
10
0.0
20
0.0
30
0.0
0
VERTEX
8
CUT
10
-0.1500
20
297.5872
0
VERTEX
8
CUT
10
-0.1350
20
297.8933
0
VERTEX
8
CUT
10
-0.0990
20
298.1357
0
VERTEX
8
CUT
10
-0.0395
20
298.3734
0
VERTEX
8
CUT
10
0.0431
20
298.6041
0
VERTEX
8
CUT
10
0.1479
20
298.8256
0
VERTEX
8
CUT
10
0.2738
20
299.0358
0
VERTEX
8
CUT
10
0.4198
20
299.2326
0
VERTEX
8
CUT
10
0.5844
20
299.4142
0
VERTEX
8
CUT
10
0.7659
20
299.5787
0
VERTEX
8
CUT
10
0.9627
20
299.7247
0
VERTEX
8
CUT
10
1.1729
20
299.8507
0
VERTEX
8
CUT
10
1.3944
20
299.9554
0
VERTEX
8
CUT
10
1.6252
20
300.0380
0
VERTEX
8
CUT
10
1.8629
20
300.0975
0
VERTEX
8
CUT
10
2.1053
20
300.1335
0
VERTEX
8
CUT
10
2.4114
20
300.1485
0
VERTEX
8
CUT
10
297.5886
20
300.1485
0
VERTEX
8
CUT
10
297.8947
20
300.1335
0
VERTEX
8
CUT
10
298.1371
20
300.0975
0
VERTEX
8
CUT
10
298.3748
20
300.0380
0
VERTEX
8
CUT
10
298.6056
20
299.9554
0
VERTEX
8
CUT
10
298.8271
20
299.8507
0
VERTEX
8
CUT
10
299.0373
20
299.7247
0
VERTEX
8
CUT
10
299.2341
20
299.5787
0
VERTEX
8
CUT
10
299.4156
20
299.4142
0
VERTEX
8
CUT
10
299.5802
20
299.2326
0
VERTEX
8
CUT
10
299.7262
20
299.0358
0
VERTEX
8
CUT
10
299.8521
20
298.8256
0
VERTEX
8
CUT
10
299.9569
20
298.6041
0
VERTEX
8
CUT
10
300.0395
20
298.3734
0
VERTEX
8
CUT
10
300.0990
20
298.1357
0
VERTEX
8
CUT
10
300.1350
20
297.8933
0
VERTEX
8
CUT
10
300.1500
20
297.5872
0
VERTEX
8
CUT
10
300.1500
20
2.4114
0
VERTEX
8
CUT
10
300.1350
20
2.1053
0
VERTEX
8
CUT
10
300.0990
20
1.8629
0
VERTEX
8
CUT
10
300.0395
20
1.6252
0
VERTEX
8
CUT
10
299.9569
20
1.3944
0
VERTEX
8
CUT
10
299.8521
20
1.1729
0
VERTEX
8
CUT
10
299.7262
20
0.9627
0
VERTEX
8
CUT
10
299.5802
20
0.7659
0
VERTEX
8
CUT
10
299.4156
20
0.5844
0
VERTEX
8
CUT
10
299.2341
20
0.4198
0
VERTEX
8
CUT
10
299.0373
20
0.2738
0
VERTEX
8
CUT
10
298.8271
20
0.1479
0
VERTEX
8
CUT
10
298.6056
20
0.0431
0
VERTEX
8
CUT
10
298.3748
20
-0.0395
0
VERTEX
8
CUT
10
298.1371
20
-0.0990
0
VERTEX
8
CUT
10
297.8947
20
-0.1350
0
VERTEX
8
CUT
10
297.5886
20
-0.1500
0
VERTEX
8
CUT
10
2.4114
20
-0.1500
0
VERTEX
8
CUT
10
2.1053
20
-0.1350
0
VERTEX
8
CUT
10
1.8629
20
-0.0990
0
VERTEX
8
CUT
10
1.6252
20
-0.0395
0
VERTEX
8
CUT
10
1.3944
20
0.0431
0
VERTEX
8
CUT
10
1.1729
20
0.1479
0
VERTEX
8
CUT
10
0.9627
20
0.2738
0
VERTEX
8
CUT
10
0.7659
20
0.4198
0
VERTEX
8
CUT
10
0.5844
20
0.5844
0
VERTEX
8
CUT
10
0.4198
20
0.7659
0
VERTEX
8
CUT
10
0.2738
20
0.9627
0
VERTEX
8
CUT
10
0.1479
20
1.1729
0
VERTEX
8
CUT
10
0.0431
20
1.3944
0
VERTEX
8
CUT
10
-0.0395
20
1.6252
0
VERTEX
8
CUT
10
-0.0990
20
1.8629
0
VERTEX
8
CUT
10
-0.1350
20
2.1053
0
VERTEX
8
CUT
10
-0.1500
20
2.4114
0
SEQEND
0
POLYLINE
8
CUT
66
1
70
1
10
0.0
20
0.0
30
0.0
0
VERTEX
8
CUT
10
207.4186
20
166.1706
0
VERTEX
8
CUT
10
207.1825
20
166.2297
0
VERTEX
8
CUT
10
206.9416
20
166.2655
0
VERTEX
8
CUT
10
206.6985
20
166.2778
0
VERTEX
8
CUT
10
206.4553
20
166.2663
0
VERTEX
8
CUT
10
206.2144
20
166.2312
0
VERTEX
8
CUT
10
205.9780
20
166.1729
0
VERTEX
8
CUT
10
205.7485
20
166.0918
0
VERTEX
8
CUT
10
205.5279
20
165.9888
0
VERTEX
8
CUT
10
205.3183
20
165.8648
0
VERTEX
8
CUT
10
205.1219
20
165.7210
0
VERTEX
8
CUT
10
204.9403
20
165.5588
0
VERTEX
8
CUT
10
204.7754
20
165.3797
0
VERTEX
8
CUT
10
204.6287
20
165.1855
0
VERTEX
8
CUT
10
204.5015
20
164.9778
0
VERTEX
8
CUT
10
204.3952
20
164.7588
0
VERTEX
8
CUT
10
204.3107
20
164.5305
0
VERTEX
8
CUT
10
204.2488
20
164.2950
0
VERTEX
8
CUT
10
204.2100
20
164.0547
0
VERTEX
8
CUT
10
204.1949
20
163.8117
0
VERTEX
8
CUT
10
204.2034
20
163.5684
0
VERTEX
8
CUT
10
204.2356
20
163.3271
0
VERTEX
8
CUT
10
204.2911
20
163.0900
0
VERTEX
8
CUT
10
204.3694
20
162.8595
0
VERTEX
8
CUT
10
204.4698
20
162.6377
0
VERTEX
8
CUT
10
204.5912
20
162.4267
0
VERTEX
8
CUT
10
207.7094
20
157.5721
0
VERTEX
8
CUT
10
207.8514
20
157.3731
0
VERTEX
8
CUT
10
208.0122
20
157.1889
0
VERTEX
8
CUT
10
208.1902
20
157.0214
0
VERTEX
8
CUT
10
208.3837
20
156.8720
0
VERTEX
8
CUT
10
208.5908
20
156.7422
0
VERTEX
8
CUT
10
208.8097
20
156.6333
0
VERTEX
8
CUT
10
209.0381
20
156.5463
0
VERTEX
8
CUT
10
209.2739
20
156.4819
0
VERTEX
8
CUT
10
209.5149
20
156.4410
0
VERTEX
8
CUT
10
209.7588
20
156.4237
0
VERTEX
8
CUT
10
210.0031
20
156.4304
0
VERTEX
8
CUT
10
210.2457
20
156.4609
0
VERTEX
8
CUT
10
210.4841
20
156.5149
0
VERTEX
8
CUT
10
210.7161
20
156.5920
0
VERTEX
8
CUT
10
210.9394
20
156.6914
0
VERTEX
8
CUT
10
211.1520
20
156.8120
0
VERTEX
8
CUT
10
211.3518
20
156.9529
0
VERTEX
8
CUT
10
211.5368
20
157.1126
0
VERTEX
8
CUT
10
211.7054
20
157.2897
0
VERTEX
8
CUT
10
211.8559
20
157.4823
0
VERTEX
8
CUT
10
211.9869
20
157.6887
0
VERTEX
8
CUT
10
212.0970
20
157.9069
0
VERTEX
8
CUT
10
212.1853
20
158.1349
0
VERTEX
8
CUT
10
212.2510
20
158.3703
0
VERTEX
8
CUT
10
212.2933
20
158.6111
0
VERTEX
8
CUT
10
212.3051
20
158.7048
0
VERTEX
8
CUT
10
212.3215
20
158.8203
0
VERTEX
8
CUT
10
212.3338
20
158.8986
0
VERTEX
8
CUT
10
212.3538
20
159.0136
0
VERTEX
8
CUT
10
213.2177
20
163.5701
0
VERTEX
8
CUT
10
213.2514
20
163.8117
0
VERTEX
8
CUT
10
213.2614
20
164.0555
0
VERTEX
8
CUT
10
213.2476
20
164.2991
0
VERTEX
8
CUT
10
213.2101
20
164.5402
0
VERTEX
8
CUT
10
213.1492
20
164.7765
0
VERTEX
8
CUT
10
213.0657
20
165.0057
0
VERTEX
8
CUT
10
212.9601
20
165.2257
0
VERTEX
8
CUT
10
212.8337
20
165.4343
0
VERTEX
8
CUT
10
212.6875
20
165.6297
0
VERTEX
8
CUT
10
212.5230
20
165.8098
0
VERTEX
8
CUT
10
212.3416
20
165.9731
0
VERTEX
8
CUT
10
212.1453
20
166.1179
0
VERTEX
8
CUT
10
211.9357
20
166.2428
0
VERTEX
8
CUT
10
211.7150
20
166.3468
0
VERTEX
8
CUT
10
211.4852
20
166.4287
0
VERTEX
8
CUT
10
211.2485
20
166.4879
0
VERTEX
8
CUT
10
211.0071
20
166.5237
0
VERTEX
8
CUT
10
210.7634
20
166.5358
0
VERTEX
8
CUT
10
210.5197
20
166.5241
0
VERTEX
8
CUT
10
210.2783
20
166.4886
0
VERTEX
8
CUT
10
210.0415
20
166.4299
0
VERTEX
8
CUT
10
209.8116
20
166.3483
0
VERTEX
8
CUT
10
209.4356
20
166.1938
0
VERTEX
8
CUT
10
209.1430
20
166.1062
0
VERTEX
8
CUT
10
208.8422
20
166.0472
0
VERTEX
8
CUT
10
208.5372
20
166.0177
0
VERTEX
8
CUT
10
208.2307
20
166.0182
0
VERTEX
8
CUT
10
207.9257
20
166.0484
0
VERTEX
8
CUT
10
207.6252
20
166.1082
0
SEQEND
0
ENDSEC
0
EOF
