0
SECTION
2
HEADER
9
$ACADVER
1
AC1009
9
$INSUNITS
70
4
0
ENDSEC
0
SECTION
2
TABLES
0
TABLE
2
LAYER
70
1
0
LAYER
2
CUT
70
0
62
7
6
CONTINUOUS
0
ENDTAB
0
ENDSEC
0
SECTION
2
ENTITIES
0
POLYLINE
8
CUT
66
1
70
1
10
0.0
20
0.0
30
0.0
0
VERTEX
8
CUT
10
0.0599
20
298.8036
0
VERTEX
8
CUT
10
0.1480
20
298.9899
0
VERTEX
8
CUT
10
0.2539
20
299.1667
0
VERTEX
8
CUT
10
0.3767
20
299.3322
0
VERTEX
8
CUT
10
0.5151
20
299.4849
0
VERTEX
8
CUT
10
0.6678
20
299.6233
0
VERTEX
8
CUT
10
0.8333
20
299.7461
0
VERTEX
8
CUT
10
1.0101
20
299.8520
0
VERTEX
8
CUT
10
1.1964
20
299.9401
0
VERTEX
8
CUT
10
1.3904
20
300.0096
0
VERTEX
8
CUT
10
1.5903
20
300.0596
0
VERTEX
8
CUT
10
1.7942
20
300.0899
0
VERTEX
8
CUT
10
2.0000
20
300.1000
0
VERTEX
8
CUT
10
297.9985
20
300.1000
0
VERTEX
8
CUT
10
298.2044
20
300.0899
0
VERTEX
8
CUT
10
298.4082
20
300.0596
0
VERTEX
8
CUT
10
298.6081
20
300.0096
0
VERTEX
8
CUT
10
298.8022
20
299.9401
0
VERTEX
8
CUT
10
298.9885
20
299.8520
0
VERTEX
8
CUT
10
299.1652
20
299.7461
0
VERTEX
8
CUT
10
299.3307
20
299.6233
0
VERTEX
8
CUT
10
299.4834
20
299.4849
0
VERTEX
8
CUT
10
299.6218
20
299.3322
0
VERTEX
8
CUT
10
299.7446
20
299.1667
0
VERTEX
8
CUT
10
299.8506
20
298.9899
0
VERTEX
8
CUT
10
299.9387
20
298.8036
0
VERTEX
8
CUT
10
300.0081
20
298.6096
0
VERTEX
8
CUT
10
300.0582
20
298.4097
0
VERTEX
8
CUT
10
300.0884
20
298.2058
0
VERTEX
8
CUT
10
300.0985
20
298.0000
0
VERTEX
8
CUT
10
300.0985
20
2.0000
0
VERTEX
8
CUT
10
300.0884
20
1.7942
0
VERTEX
8
CUT
10
300.0582
20
1.5903
0
VERTEX
8
CUT
10
300.0081
20
1.3904
0
VERTEX
8
CUT
10
299.9387
20
1.1964
0
VERTEX
8
CUT
10
299.8506
20
1.0101
0
VERTEX
8
CUT
10
299.7446
20
0.8333
0
VERTEX
8
CUT
10
299.6218
20
0.6678
0
VERTEX
8
CUT
10
299.4834
20
0.5151
0
VERTEX
8
CUT
10
299.3307
20
0.3767
0
VERTEX
8
CUT
10
299.1652
20
0.2539
0
VERTEX
8
CUT
10
298.9885
20
0.1480
0
VERTEX
8
CUT
10
298.8022
20
0.0599
0
VERTEX
8
CUT
10
298.6081
20
-0.0096
0
VERTEX
8
CUT
10
298.4082
20
-0.0596
0
VERTEX
8
CUT
10
298.2044
20
-0.0899
0
VERTEX
8
CUT
10
297.9985
20
-0.1000
0
VERTEX
8
CUT
10
2.0000
20
-0.1000
0
VERTEX
8
CUT
10
1.7942
20
-0.0899
0
VERTEX
8
CUT
10
1.5903
20
-0.0596
0
VERTEX
8
CUT
10
1.3904
20
-0.0096
0
VERTEX
8
CUT
10
1.1964
20
0.0599
0
VERTEX
8
CUT
10
1.0101
20
0.1480
0
VERTEX
8
CUT
10
0.8333
20
0.2539
0
VERTEX
8
CUT
10
0.6678
20
0.3767
0
VERTEX
8
CUT
10
0.5151
20
0.5151
0
VERTEX
8
CUT
10
0.3767
20
0.6678
0
VERTEX
8
CUT
10
0.2539
20
0.8333
0
VERTEX
8
CUT
10
0.1480
20
1.0101
0
VERTEX
8
CUT
10
0.0599
20
1.1964
0
VERTEX
8
CUT
10
-0.0096
20
1.3904
0
VERTEX
8
CUT
10
-0.0596
20
1.5903
0
VERTEX
8
CUT
10
-0.0899
20
1.7942
0
VERTEX
8
CUT
10
-0.1000
20
2.0000
0
VERTEX
8
CUT
10
-0.1000
20
298.0000
0
VERTEX
8
CUT
10
-0.0899
20
298.2058
0
VERTEX
8
CUT
10
-0.0596
20
298.4097
0
VERTEX
8
CUT
10
-0.0096
20
298.6096
0
SEQEND
0
POLYLINE
8
CUT
66
1
70
1
10
0.0
20
0.0
30
0.0
0
VERTEX
8
CUT
10
263.2567
20
190.1563
0
VERTEX
8
CUT
10
263.1665
20
190.1371
0
VERTEX
8
CUT
10
263.1525
20
190.1334
0
VERTEX
8
CUT
10
263.0647
20
190.1056
0
VERTEX
8
CUT
10
263.0511
20
190.1006
0
VERTEX
8
CUT
10
262.9663
20
190.0644
0
VERTEX
8
CUT
10
262.9533
20
190.0580
0
VERTEX
8
CUT
10
262.8724
20
190.0138
0
VERTEX
8
CUT
10
262.8601
20
190.0062
0
VERTEX
8
CUT
10
262.7839
20
189.9543
0
VERTEX
8
CUT
10
262.7723
20
189.9456
0
VERTEX
8
CUT
10
262.7015
20
189.8866
0
VERTEX
8
CUT
10
262.6908
20
189.8768
0
VERTEX
8
CUT
10
262.6261
20
189.8111
0
VERTEX
8
CUT
10
262.6165
20
189.8003
0
VERTEX
8
CUT
10
262.5584
20
189.7288
0
VERTEX
8
CUT
10
262.5498
20
189.7171
0
VERTEX
8
CUT
10
262.4990
20
189.6402
0
VERTEX
8
CUT
10
262.4916
20
189.6277
0
VERTEX
8
CUT
10
262.4484
20
189.5463
0
VERTEX
8
CUT
10
262.4422
20
189.5332
0
VERTEX
8
CUT
10
262.4072
20
189.4479
0
VERTEX
8
CUT
10
262.4023
20
189.4343
0
VERTEX
8
CUT
10
262.3757
20
189.3460
0
VERTEX
8
CUT
10
262.3722
20
189.3320
0
VERTEX
8
CUT
10
262.3543
20
189.2416
0
VERTEX
8
CUT
10
262.3521
20
189.2272
0
VERTEX
8
CUT
10
262.3430
20
189.1355
0
VERTEX
8
CUT
10
262.3423
20
189.1210
0
VERTEX
8
CUT
10
262.3421
20
189.0289
0
VERTEX
8
CUT
10
262.3428
20
189.0144
0
VERTEX
8
CUT
10
262.3516
20
188.9227
0
VERTEX
8
CUT
10
262.3537
20
188.9083
0
VERTEX
8
CUT
10
262.3713
20
188.8178
0
VERTEX
8
CUT
10
262.3748
20
188.8038
0
VERTEX
8
CUT
10
262.4011
20
188.7154
0
VERTEX
8
CUT
10
262.4059
20
188.7018
0
VERTEX
8
CUT
10
262.4407
20
188.6164
0
VERTEX
8
CUT
10
262.4468
20
188.6033
0
VERTEX
8
CUT
10
262.4896
20
188.5217
0
VERTEX
8
CUT
10
262.4970
20
188.5092
0
VERTEX
8
CUT
10
262.5476
20
188.4321
0
VERTEX
8
CUT
10
262.5561
20
188.4204
0
VERTEX
8
CUT
10
262.6139
20
188.3486
0
VERTEX
8
CUT
10
262.6236
20
188.3378
0
VERTEX
8
CUT
10
262.6881
20
188.2720
0
VERTEX
8
CUT
10
262.6987
20
188.2621
0
VERTEX
8
CUT
10
262.7693
20
188.2028
0
VERTEX
8
CUT
10
262.7808
20
188.1941
0
VERTEX
8
CUT
10
262.8568
20
188.1419
0
VERTEX
8
CUT
10
262.8692
20
188.1343
0
VERTEX
8
CUT
10
262.9499
20
188.0898
0
VERTEX
8
CUT
10
262.9629
20
188.0834
0
VERTEX
8
CUT
10
263.0475
20
188.0469
0
VERTEX
8
CUT
10
263.0611
20
188.0418
0
VERTEX
8
CUT
10
263.1489
20
188.0137
0
VERTEX
8
CUT
10
263.1629
20
188.0099
0
VERTEX
8
CUT
10
263.2529
20
187.9905
0
VERTEX
8
CUT
10
263.2672
20
187.9881
0
VERTEX
8
CUT
10
263.3588
20
187.9774
0
VERTEX
8
CUT
10
263.3987
20
187.9748
0
VERTEX
8
CUT
10
263.4448
20
187.9728
0
VERTEX
8
CUT
10
264.9096
20
187.9454
0
VERTEX
8
CUT
10
264.9607
20
187.9458
0
VERTEX
8
CUT
10
265.0050
20
187.9474
0
VERTEX
8
CUT
10
265.1067
20
187.9564
0
VERTEX
8
CUT
10
265.1226
20
187.9587
0
VERTEX
8
CUT
10
265.2227
20
187.9786
0
VERTEX
8
CUT
10
265.2657
20
187.9896
0
VERTEX
8
CUT
10
265.3148
20
188.0036
0
VERTEX
8
CUT
10
266.3833
20
188.3390
0
VERTEX
8
CUT
10
266.4272
20
188.3540
0
VERTEX
8
CUT
10
266.4650
20
188.3679
0
VERTEX
8
CUT
10
266.5503
20
188.4042
0
VERTEX
8
CUT
10
266.5634
20
188.4105
0
VERTEX
8
CUT
10
266.6448
20
188.4549
0
VERTEX
8
CUT
10
266.6572
20
188.4626
0
VERTEX
8
CUT
10
266.7339
20
188.5147
0
VERTEX
8
CUT
10
266.7455
20
188.5235
0
VERTEX
8
CUT
10
266.8168
20
188.5828
0
VERTEX
8
CUT
10
266.8275
20
188.5927
0
VERTEX
8
CUT
10
266.8926
20
188.6588
0
VERTEX
8
CUT
10
266.9023
20
188.6696
0
VERTEX
8
CUT
10
266.9606
20
188.7417
0
VERTEX
8
CUT
10
266.9692
20
188.7535
0
VERTEX
8
CUT
10
267.0203
20
188.8309
0
VERTEX
8
CUT
10
267.0277
20
188.8434
0
VERTEX
8
CUT
10
267.0709
20
188.9255
0
VERTEX
8
CUT
10
267.0771
20
188.9387
0
VERTEX
8
CUT
10
267.1121
20
189.0245
0
VERTEX
8
CUT
10
267.1169
20
189.0383
0
VERTEX
8
CUT
10
267.1434
20
189.1271
0
VERTEX
8
CUT
10
267.1469
20
189.1413
0
VERTEX
8
CUT
10
267.1646
20
189.2323
0
VERTEX
8
CUT
10
267.1667
20
189.2467
0
VERTEX
8
CUT
10
267.1754
20
189.3390
0
VERTEX
8
CUT
10
267.1761
20
189.3536
0
VERTEX
8
CUT
10
267.1757
20
189.4463
0
VERTEX
8
CUT
10
267.1750
20
189.4609
0
VERTEX
8
CUT
10
267.1656
20
189.5531
0
VERTEX
8
CUT
10
267.1634
20
189.5676
0
VERTEX
8
CUT
10
267.1451
20
189.6584
0
VERTEX
8
CUT
10
267.1416
20
189.6726
0
VERTEX
8
CUT
10
267.1145
20
189.7613
0
VERTEX
8
CUT
10
267.1095
20
189.7750
0
VERTEX
8
CUT
10
267.0739
20
189.8606
0
VERTEX
8
CUT
10
267.0677
20
189.8738
0
VERTEX
8
CUT
10
267.0239
20
189.9555
0
VERTEX
8
CUT
10
267.0164
20
189.9680
0
VERTEX
8
CUT
10
266.9648
20
190.0450
0
VERTEX
8
CUT
10
266.9561
20
190.0568
0
VERTEX
8
CUT
10
266.8973
20
190.1284
0
VERTEX
8
CUT
10
266.8875
20
190.1392
0
VERTEX
8
CUT
10
266.8220
20
190.2048
0
VERTEX
8
CUT
10
266.8112
20
190.2146
0
VERTEX
8
CUT
10
266.7396
20
190.2735
0
VERTEX
8
CUT
10
266.7279
20
190.2822
0
VERTEX
8
CUT
10
266.6508
20
190.3338
0
VERTEX
8
CUT
10
266.6383
20
190.3413
0
VERTEX
8
CUT
10
266.5567
20
190.3852
0
VERTEX
8
CUT
10
266.5435
20
190.3915
0
VERTEX
8
CUT
10
266.4579
20
190.4271
0
VERTEX
8
CUT
10
266.4442
20
190.4321
0
VERTEX
8
CUT
10
266.3555
20
190.4592
0
VERTEX
8
CUT
10
266.3414
20
190.4628
0
VERTEX
8
CUT
10
266.2505
20
190.4812
0
VERTEX
8
CUT
10
266.2361
20
190.4834
0
VERTEX
8
CUT
10
266.1439
20
190.4928
0
VERTEX
8
CUT
10
266.1293
20
190.4936
0
VERTEX
8
CUT
10
266.0366
20
190.4940
0
VERTEX
8
CUT
10
266.0220
20
190.4934
0
VERTEX
8
CUT
10
265.9297
20
190.4847
0
VERTEX
8
CUT
10
265.8899
20
190.4790
0
VERTEX
8
CUT
10
265.8441
20
190.4713
0
VERTEX
8
CUT
10
264.5591
20
190.2227
0
VERTEX
8
CUT
10
264.3765
20
190.1956
0
VERTEX
8
CUT
10
264.1922
20
190.1847
0
VERTEX
8
CUT
10
263.4486
20
190.1733
0
VERTEX
8
CUT
10
263.4025
20
190.1715
0
VERTEX
8
CUT
10
263.3626
20
190.1690
0
VERTEX
8
CUT
10
263.2710
20
190.1586
0
SEQEND
0
POLYLINE
8
CUT
66
1
70
1
10
0.0
20
0.0
30
0.0
0
VERTEX
8
CUT
10
255.2376
20
92.5008
0
VERTEX
8
CUT
10
255.0670
20
92.4056
0
VERTEX
8
CUT
10
254.8884
20
92.3266
0
VERTEX
8
CUT
10
254.7930
20
92.2897
0
VERTEX
8
CUT
10
254.5930
20
92.2235
0
VERTEX
8
CUT
10
254.3873
20
92.1777
0
VERTEX
8
CUT
10
254.1781
20
92.1528
0
VERTEX
8
CUT
10
253.9675
20
92.1489
0
VERTEX
8
CUT
10
253.7575
20
92.1662
0
VERTEX
8
CUT
10
253.5503
20
92.2044
0
VERTEX
8
CUT
10
253.3480
20
92.2632
0
VERTEX
8
CUT
10
253.1525
20
92.3420
0
VERTEX
8
CUT
10
252.9660
20
92.4400
0
VERTEX
8
CUT
10
252.7902
20
92.5561
0
VERTEX
8
CUT
10
252.7811
20
92.5628
0
VERTEX
8
CUT
10
252.6392
20
92.6770
0
VERTEX
8
CUT
10
252.5077
20
92.8030
0
VERTEX
8
CUT
10
252.3877
20
92.9400
0
VERTEX
8
CUT
10
252.2799
20
93.0869
0
VERTEX
8
CUT
10
252.0382
20
93.4482
0
VERTEX
8
CUT
10
252.0116
20
93.4859
0
VERTEX
8
CUT
10
251.9878
20
93.5180
0
VERTEX
8
CUT
10
251.9293
20
93.5893
0
VERTEX
8
CUT
10
251.9196
20
93.6001
0
VERTEX
8
CUT
10
251.8545
20
93.6654
0
VERTEX
8
CUT
10
251.8437
20
93.6752
0
VERTEX
8
CUT
10
251.7726
20
93.7339
0
VERTEX
8
CUT
10
251.7610
20
93.7425
0
VERTEX
8
CUT
10
251.6844
20
93.7940
0
VERTEX
8
CUT
10
251.6720
20
93.8015
0
VERTEX
8
CUT
10
251.5909
20
93.8454
0
VERTEX
8
CUT
10
251.5778
20
93.8516
0
VERTEX
8
CUT
10
251.4928
20
93.8874
0
VERTEX
8
CUT
10
251.4792
20
93.8924
0
VERTEX
8
CUT
10
251.3911
20
93.9197
0
VERTEX
8
CUT
10
251.3770
20
93.9233
0
VERTEX
8
CUT
10
251.2867
20
93.9420
0
VERTEX
8
CUT
10
251.2724
20
93.9442
0
VERTEX
8
CUT
10
251.1807
20
93.9540
0
VERTEX
8
CUT
10
251.1662
20
93.9549
0
VERTEX
8
CUT
10
251.0740
20
93.9558
0
VERTEX
8
CUT
10
251.0595
20
93.9552
0
VERTEX
8
CUT
10
250.9676
20
93.9471
0
VERTEX
8
CUT
10
250.9532
20
93.9451
0
VERTEX
8
CUT
10
250.8626
20
93.9282
0
VERTEX
8
CUT
10
250.8485
20
93.9248
0
VERTEX
8
CUT
10
250.7599
20
93.8991
0
VERTEX
8
CUT
10
250.7462
20
93.8944
0
VERTEX
8
CUT
10
250.6605
20
93.8603
0
VERTEX
8
CUT
10
250.6473
20
93.8542
0
VERTEX
8
CUT
10
250.5653
20
93.8119
0
VERTEX
8
CUT
10
250.5528
20
93.8047
0
VERTEX
8
CUT
10
250.4753
20
93.7546
0
VERTEX
8
CUT
10
250.4635
20
93.7462
0
VERTEX
8
CUT
10
250.3913
20
93.6888
0
VERTEX
8
CUT
10
250.3804
20
93.6793
0
VERTEX
8
CUT
10
250.3140
20
93.6152
0
VERTEX
8
CUT
10
250.3041
20
93.6046
0
VERTEX
8
CUT
10
250.2443
20
93.5344
0
VERTEX
8
CUT
10
250.2354
20
93.5229
0
VERTEX
8
CUT
10
250.1827
20
93.4473
0
VERTEX
8
CUT
10
250.1750
20
93.4350
0
VERTEX
8
CUT
10
250.1299
20
93.3545
0
VERTEX
8
CUT
10
250.1234
20
93.3415
0
VERTEX
8
CUT
10
250.0863
20
93.2571
0
VERTEX
8
CUT
10
250.0811
20
93.2436
0
VERTEX
8
CUT
10
250.0524
20
93.1559
0
VERTEX
8
CUT
10
250.0485
20
93.1419
0
VERTEX
8
CUT
10
250.0285
20
93.0519
0
VERTEX
8
CUT
10
250.0216
20
93.0125
0
VERTEX
8
CUT
10
250.0149
20
92.9668
0
VERTEX
8
CUT
10
249.9437
20
92.3885
0
VERTEX
8
CUT
10
249.9393
20
92.3452
0
VERTEX
8
CUT
10
249.9365
20
92.3075
0
VERTEX
8
CUT
10
249.9338
20
92.2206
0
VERTEX
8
CUT
10
249.9340
20
92.2069
0
VERTEX
8
CUT
10
249.9393
20
92.1201
0
VERTEX
8
CUT
10
249.9407
20
92.1065
0
VERTEX
8
CUT
10
249.9539
20
92.0205
0
VERTEX
8
CUT
10
249.9614
20
91.9835
0
VERTEX
8
CUT
10
249.9709
20
91.9410
0
VERTEX
8
CUT
10
250.1764
20
91.1158
0
VERTEX
8
CUT
10
250.1870
20
91.0769
0
VERTEX
8
CUT
10
250.1968
20
91.0434
0
VERTEX
8
CUT
10
250.2229
20
90.9671
0
VERTEX
8
CUT
10
250.2275
20
90.9553
0
VERTEX
8
CUT
10
250.2599
20
90.8815
0
VERTEX
8
CUT
10
250.2753
20
90.8501
0
VERTEX
8
CUT
10
250.2938
20
90.8143
0
VERTEX
8
CUT
10
250.6279
20
90.2008
0
VERTEX
8
CUT
10
250.6472
20
90.1670
0
VERTEX
8
CUT
10
250.6646
20
90.1380
0
VERTEX
8
CUT
10
250.7072
20
90.0730
0
VERTEX
8
CUT
10
250.7144
20
90.0630
0
VERTEX
8
CUT
10
250.7622
20
90.0017
0
VERTEX
8
CUT
10
250.7841
20
89.9759
0
VERTEX
8
CUT
10
250.8099
20
89.9468
0
VERTEX
8
CUT
10
251.3010
20
89.4138
0
VERTEX
8
CUT
10
251.3292
20
89.3845
0
VERTEX
8
CUT
10
251.3542
20
89.3596
0
VERTEX
8
CUT
10
251.4142
20
89.3047
0
VERTEX
8
CUT
10
251.4240
20
89.2965
0
VERTEX
8
CUT
10
251.4885
20
89.2470
0
VERTEX
8
CUT
10
251.5173
20
89.2267
0
VERTEX
8
CUT
10
251.5511
20
89.2041
0
VERTEX
8
CUT
10
251.7209
20
89.0954
0
VERTEX
8
CUT
10
251.7992
20
89.0276
0
VERTEX
8
CUT
10
251.8367
20
88.9968
0
VERTEX
8
CUT
10
251.8699
20
88.9708
0
VERTEX
8
CUT
10
251.9494
20
88.9151
0
VERTEX
8
CUT
10
251.9624
20
88.9070
0
VERTEX
8
CUT
10
252.0471
20
88.8597
0
VERTEX
8
CUT
10
252.0608
20
88.8529
0
VERTEX
8
CUT
10
252.1500
20
88.8145
0
VERTEX
8
CUT
10
252.1731
20
88.8060
0
VERTEX
8
CUT
10
252.2601
20
88.7502
0
VERTEX
8
CUT
10
252.3060
20
88.7227
0
VERTEX
8
CUT
10
252.3465
20
88.6999
0
VERTEX
8
CUT
10
252.4425
20
88.6527
0
VERTEX
8
CUT
10
252.4853
20
88.6346
0
VERTEX
8
CUT
10
252.5352
20
88.6151
0
VERTEX
8
CUT
10
253.1830
20
88.3832
0
VERTEX
8
CUT
10
253.2366
20
88.3658
0
VERTEX
8
CUT
10
253.2835
20
88.3521
0
VERTEX
8
CUT
10
253.3934
20
88.3270
0
VERTEX
8
CUT
10
253.4416
20
88.3189
0
VERTEX
8
CUT
10
253.4975
20
88.3113
0
VERTEX
8
CUT
10
254.1868
20
88.2378
0
VERTEX
8
CUT
10
254.2280
20
88.2343
0
VERTEX
8
CUT
10
254.2638
20
88.2320
0
VERTEX
8
CUT
10
254.3464
20
88.2304
0
VERTEX
8
CUT
10
254.3594
20
88.2308
0
VERTEX
8
CUT
10
254.4419
20
88.2364
0
VERTEX
8
CUT
10
254.4775
20
88.2404
0
VERTEX
8
CUT
10
254.5185
20
88.2458
0
VERTEX
8
CUT
10
255.2109
20
88.3540
0
VERTEX
8
CUT
10
255.2541
20
88.3618
0
VERTEX
8
CUT
10
255.2914
20
88.3694
0
VERTEX
8
CUT
10
255.3764
20
88.3909
0
VERTEX
8
CUT
10
255.3896
20
88.3949
0
VERTEX
8
CUT
10
255.4723
20
88.4241
0
VERTEX
8
CUT
10
255.4851
20
88.4293
0
VERTEX
8
CUT
10
255.5647
20
88.4660
0
VERTEX
8
CUT
10
255.5985
20
88.4835
0
VERTEX
8
CUT
10
255.6370
20
88.5046
0
VERTEX
8
CUT
10
256.3342
20
88.9081
0
VERTEX
8
CUT
10
256.4957
20
88.9839
0
VERTEX
8
CUT
10
256.5340
20
89.0029
0
VERTEX
8
CUT
10
256.5669
20
89.0202
0
VERTEX
8
CUT
10
256.6407
20
89.0633
0
VERTEX
8
CUT
10
256.6520
20
89.0706
0
VERTEX
8
CUT
10
256.7216
20
89.1203
0
VERTEX
8
CUT
10
256.7322
20
89.1286
0
VERTEX
8
CUT
10
256.7971
20
89.1842
0
VERTEX
8
CUT
10
256.8069
20
89.1934
0
VERTEX
8
CUT
10
256.8665
20
89.2547
0
VERTEX
8
CUT
10
256.8912
20
89.2825
0
VERTEX
8
CUT
10
256.9189
20
89.3151
0
VERTEX
8
CUT
10
257.7698
20
90.3641
0
VERTEX
8
CUT
10
257.7994
20
90.4024
0
VERTEX
8
CUT
10
257.8241
20
90.4363
0
VERTEX
8
CUT
10
257.8770
20
90.5171
0
VERTEX
8
CUT
10
257.8847
20
90.5302
0
VERTEX
8
CUT
10
257.9291
20
90.6161
0
VERTEX
8
CUT
10
257.9354
20
90.6299
0
VERTEX
8
CUT
10
257.9709
20
90.7198
0
VERTEX
8
CUT
10
257.9843
20
90.7595
0
VERTEX
8
CUT
10
257.9986
20
90.8057
0
VERTEX
8
CUT
10
258.0391
20
90.9499
0
VERTEX
8
CUT
10
258.0431
20
90.9655
0
VERTEX
8
CUT
10
258.0573
20
90.9868
0
VERTEX
8
CUT
10
258.0819
20
91.0263
0
VERTEX
8
CUT
10
258.1334
20
91.1202
0
VERTEX
8
CUT
10
258.1407
20
91.1354
0
VERTEX
8
CUT
10
258.1813
20
91.2345
0
VERTEX
8
CUT
10
258.1965
20
91.2785
0
VERTEX
8
CUT
10
258.2125
20
91.3297
0
VERTEX
8
CUT
10
258.4740
20
92.2536
0
VERTEX
8
CUT
10
258.4864
20
92.3021
0
VERTEX
8
CUT
10
258.4960
20
92.3445
0
VERTEX
8
CUT
10
258.5130
20
92.4432
0
VERTEX
8
CUT
10
258.5148
20
92.4589
0
VERTEX
8
CUT
10
258.5213
20
92.5588
0
VERTEX
8
CUT
10
258.5215
20
92.5745
0
VERTEX
8
CUT
10
258.5174
20
92.6746
0
VERTEX
8
CUT
10
258.5160
20
92.6903
0
VERTEX
8
CUT
10
258.5014
20
92.7893
0
VERTEX
8
CUT
10
258.4928
20
92.8319
0
VERTEX
8
CUT
10
258.4816
20
92.8808
0
VERTEX
8
CUT
10
258.3479
20
93.4003
0
VERTEX
8
CUT
10
258.3349
20
93.4458
0
VERTEX
8
CUT
10
258.3228
20
93.4850
0
VERTEX
8
CUT
10
258.2902
20
93.5737
0
VERTEX
8
CUT
10
258.2844
20
93.5874
0
VERTEX
8
CUT
10
258.2432
20
93.6725
0
VERTEX
8
CUT
10
258.2361
20
93.6855
0
VERTEX
8
CUT
10
258.1866
20
93.7661
0
VERTEX
8
CUT
10
258.1782
20
93.7784
0
VERTEX
8
CUT
10
258.1210
20
93.8536
0
VERTEX
8
CUT
10
258.1114
20
93.8650
0
VERTEX
8
CUT
10
258.0470
20
93.9341
0
VERTEX
8
CUT
10
258.0363
20
93.9445
0
VERTEX
8
CUT
10
257.9653
20
94.0069
0
VERTEX
8
CUT
10
257.9537
20
94.0162
0
VERTEX
8
CUT
10
257.8768
20
94.0712
0
VERTEX
8
CUT
10
257.8643
20
94.0793
0
VERTEX
8
CUT
10
257.7824
20
94.1264
0
VERTEX
8
CUT
10
257.7692
20
94.1332
0
VERTEX
8
CUT
10
257.6829
20
94.1719
0
VERTEX
8
CUT
10
257.6691
20
94.1773
0
VERTEX
8
CUT
10
257.5794
20
94.2073
0
VERTEX
8
CUT
10
257.5651
20
94.2113
0
VERTEX
8
CUT
10
257.4730
20
94.2323
0
VERTEX
8
CUT
10
257.4583
20
94.2348
0
VERTEX
8
CUT
10
257.3645
20
94.2465
0
VERTEX
8
CUT
10
257.3497
20
94.2476
0
VERTEX
8
CUT
10
257.2552
20
94.2499
0
VERTEX
8
CUT
10
257.2403
20
94.2495
0
VERTEX
8
CUT
10
257.1461
20
94.2423
0
VERTEX
8
CUT
10
257.1313
20
94.2405
0
VERTEX
8
CUT
10
257.0382
20
94.2240
0
VERTEX
8
CUT
10
257.0237
20
94.2207
0
VERTEX
8
CUT
10
256.9328
20
94.1950
0
VERTEX
8
CUT
10
256.9187
20
94.1903
0
VERTEX
8
CUT
10
256.8307
20
94.1557
0
VERTEX
8
CUT
10
256.8171
20
94.1496
0
VERTEX
8
CUT
10
256.7330
20
94.1065
0
VERTEX
8
CUT
10
256.7202
20
94.0990
0
VERTEX
8
CUT
10
256.6408
20
94.0477
0
VERTEX
8
CUT
10
256.6287
20
94.0390
0
VERTEX
8
CUT
10
256.5548
20
93.9801
0
VERTEX
8
CUT
10
256.5436
20
93.9703
0
VERTEX
8
CUT
10
256.4760
20
93.9043
0
VERTEX
8
CUT
10
256.4658
20
93.8934
0
VERTEX
8
CUT
10
256.4051
20
93.8210
0
VERTEX
8
CUT
10
256.3803
20
93.7883
0
VERTEX
8
CUT
10
256.3580
20
93.7573
0
VERTEX
8
CUT
10
256.3340
20
93.7246
0
VERTEX
8
CUT
10
255.8105
20
93.0258
0
VERTEX
8
CUT
10
255.6862
20
92.8750
0
VERTEX
8
CUT
10
255.5485
20
92.7365
0
VERTEX
8
CUT
10
255.3985
20
92.6114
0
SEQEND
0
POLYLINE
8
CUT
66
1
70
1
10
0.0
20
0.0
30
0.0
0
VERTEX
8
CUT
10
230.7374
20
62.6502
0
VERTEX
8
CUT
10
230.6659
20
62.7097
0
VERTEX
8
CUT
10
230.6542
20
62.7185
0
VERTEX
8
CUT
10
230.5773
20
62.7708
0
VERTEX
8
CUT
10
230.5648
20
62.7784
0
VERTEX
8
CUT
10
230.4831
20
62.8229
0
VERTEX
8
CUT
10
230.4699
20
62.8292
0
VERTEX
8
CUT
10
230.3843
20
62.8655
0
VERTEX
8
CUT
10
230.3706
20
62.8705
0
VERTEX
8
CUT
10
230.2818
20
62.8982
0
VERTEX
8
CUT
10
230.2676
20
62.9019
0
VERTEX
8
CUT
10
230.1766
20
62.9208
0
VERTEX
8
CUT
10
230.1621
20
62.9231
0
VERTEX
8
CUT
10
230.0697
20
62.9329
0
VERTEX
8
CUT
10
230.0551
20
62.9338
0
VERTEX
8
CUT
10
229.9621
20
62.9346
0
VERTEX
8
CUT
10
229.9474
20
62.9340
0
VERTEX
8
CUT
10
229.8548
20
62.9257
0
VERTEX
8
CUT
10
229.8403
20
62.9237
0
VERTEX
8
CUT
10
229.7490
20
62.9063
0
VERTEX
8
CUT
10
229.7347
20
62.9029
0
VERTEX
8
CUT
10
229.6455
20
62.8767
0
VERTEX
8
CUT
10
229.6317
20
62.8719
0
VERTEX
8
CUT
10
229.5455
20
62.8371
0
VERTEX
8
CUT
10
229.5322
20
62.8310
0
VERTEX
8
CUT
10
229.4497
20
62.7879
0
VERTEX
8
CUT
10
229.4371
20
62.7805
0
VERTEX
8
CUT
10
229.3593
20
62.7296
0
VERTEX
8
CUT
10
229.3475
20
62.7210
0
VERTEX
8
CUT
10
229.2750
20
62.6627
0
VERTEX
8
CUT
10
229.2641
20
62.6530
0
VERTEX
8
CUT
10
229.1977
20
62.5879
0
VERTEX
8
CUT
10
229.1877
20
62.5772
0
VERTEX
8
CUT
10
229.1280
20
62.5059
0
VERTEX
8
CUT
10
229.1192
20
62.4943
0
VERTEX
8
CUT
10
229.0667
20
62.4175
0
VERTEX
8
CUT
10
229.0590
20
62.4050
0
VERTEX
8
CUT
10
229.0143
20
62.3235
0
VERTEX
8
CUT
10
229.0079
20
62.3103
0
VERTEX
8
CUT
10
228.9714
20
62.2248
0
VERTEX
8
CUT
10
228.9664
20
62.2111
0
VERTEX
8
CUT
10
228.9384
20
62.1224
0
VERTEX
8
CUT
10
228.9347
20
62.1082
0
VERTEX
8
CUT
10
228.9155
20
62.0172
0
VERTEX
8
CUT
10
228.9132
20
62.0028
0
VERTEX
8
CUT
10
228.9031
20
61.9103
0
VERTEX
8
CUT
10
228.9022
20
61.8957
0
VERTEX
8
CUT
10
228.9011
20
61.8027
0
VERTEX
8
CUT
10
228.9017
20
61.7881
0
VERTEX
8
CUT
10
228.9097
20
61.6955
0
VERTEX
8
CUT
10
228.9117
20
61.6810
0
VERTEX
8
CUT
10
228.9287
20
61.5896
0
VERTEX
8
CUT
10
228.9321
20
61.5753
0
VERTEX
8
CUT
10
228.9580
20
61.4860
0
VERTEX
8
CUT
10
228.9712
20
61.4479
0
VERTEX
8
CUT
10
228.9874
20
61.4042
0
VERTEX
8
CUT
10
229.0613
20
61.2194
0
VERTEX
8
CUT
10
229.0792
20
61.1776
0
VERTEX
8
CUT
10
229.0956
20
61.1417
0
VERTEX
8
CUT
10
229.1374
20
61.0608
0
VERTEX
8
CUT
10
229.1571
20
61.0266
0
VERTEX
8
CUT
10
229.1809
20
60.9877
0
VERTEX
8
CUT
10
229.8627
20
59.9292
0
VERTEX
8
CUT
10
229.8860
20
59.8948
0
VERTEX
8
CUT
10
229.9067
20
59.8654
0
VERTEX
8
CUT
10
229.9575
20
59.7999
0
VERTEX
8
CUT
10
229.9808
20
59.7725
0
VERTEX
8
CUT
10
230.0083
20
59.7414
0
VERTEX
8
CUT
10
230.8702
20
58.8105
0
VERTEX
8
CUT
10
230.9057
20
58.7742
0
VERTEX
8
CUT
10
230.9373
20
58.7435
0
VERTEX
8
CUT
10
231.0138
20
58.6768
0
VERTEX
8
CUT
10
231.0486
20
58.6496
0
VERTEX
8
CUT
10
231.0894
20
58.6194
0
VERTEX
8
CUT
10
232.1254
20
57.8956
0
VERTEX
8
CUT
10
232.1658
20
57.8688
0
VERTEX
8
CUT
10
232.2014
20
57.8466
0
VERTEX
8
CUT
10
232.2860
20
57.7995
0
VERTEX
8
CUT
10
232.3237
20
57.7810
0
VERTEX
8
CUT
10
232.3677
20
57.7607
0
VERTEX
8
CUT
10
233.4763
20
57.2843
0
VERTEX
8
CUT
10
233.5155
20
57.2685
0
VERTEX
8
CUT
10
233.5498
20
57.2555
0
VERTEX
8
CUT
10
233.6301
20
57.2292
0
VERTEX
8
CUT
10
233.6429
20
57.2256
0
VERTEX
8
CUT
10
233.7253
20
57.2065
0
VERTEX
8
CUT
10
233.7614
20
57.1998
0
VERTEX
8
CUT
10
233.8031
20
57.1931
0
VERTEX
8
CUT
10
234.7011
20
57.0677
0
VERTEX
8
CUT
10
234.7454
20
57.0626
0
VERTEX
8
CUT
10
234.7840
20
57.0590
0
VERTEX
8
CUT
10
234.8732
20
57.0551
0
VERTEX
8
CUT
10
234.9119
20
57.0551
0
VERTEX
8
CUT
10
234.9565
20
57.0563
0
VERTEX
8
CUT
10
235.1809
20
57.0674
0
VERTEX
8
CUT
10
235.4152
20
57.0148
0
VERTEX
8
CUT
10
235.4567
20
57.0065
0
VERTEX
8
CUT
10
235.4930
20
57.0000
0
VERTEX
8
CUT
10
235.5770
20
56.9889
0
VERTEX
8
CUT
10
235.5903
20
56.9878
0
VERTEX
8
CUT
10
235.6749
20
56.9842
0
VERTEX
8
CUT
10
235.6883
20
56.9843
0
VERTEX
8
CUT
10
235.7729
20
56.9883
0
VERTEX
8
CUT
10
235.8096
20
56.9916
0
VERTEX
8
CUT
10
235.8517
20
56.9965
0
VERTEX
8
CUT
10
237.1120
20
57.1696
0
VERTEX
8
CUT
10
237.1563
20
57.1768
0
VERTEX
8
CUT
10
237.1946
20
57.1839
0
VERTEX
8
CUT
10
237.2313
20
57.1925
0
VERTEX
8
CUT
10
237.2332
20
57.1930
0
VERTEX
8
CUT
10
237.2378
20
57.1941
0
VERTEX
8
CUT
10
237.2820
20
57.2045
0
VERTEX
8
CUT
10
237.2893
20
57.2066
0
VERTEX
8
CUT
10
238.3321
20
57.4594
0
VERTEX
8
CUT
10
238.3828
20
57.4732
0
VERTEX
8
CUT
10
238.4264
20
57.4864
0
VERTEX
8
CUT
10
238.5252
20
57.5222
0
VERTEX
8
CUT
10
238.5671
20
57.5402
0
VERTEX
8
CUT
10
238.6148
20
57.5622
0
VERTEX
8
CUT
10
239.3929
20
57.9470
0
VERTEX
8
CUT
10
239.4396
20
57.9717
0
VERTEX
8
CUT
10
239.4794
20
57.9942
0
VERTEX
8
CUT
10
239.5682
20
58.0512
0
VERTEX
8
CUT
10
239.6054
20
58.0781
0
VERTEX
8
CUT
10
239.6473
20
58.1102
0
VERTEX
8
CUT
10
240.4988
20
58.8013
0
VERTEX
8
CUT
10
240.5353
20
58.8325
0
VERTEX
8
CUT
10
240.5663
20
58.8603
0
VERTEX
8
CUT
10
240.6343
20
58.9280
0
VERTEX
8
CUT
10
240.6623
20
58.9588
0
VERTEX
8
CUT
10
240.6936
20
58.9951
0
VERTEX
8
CUT
10
242.3464
20
61.0103
0
VERTEX
8
CUT
10
242.3763
20
61.0487
0
VERTEX
8
CUT
10
242.4014
20
61.0827
0
VERTEX
8
CUT
10
242.4551
20
61.1640
0
VERTEX
8
CUT
10
242.4629
20
61.1772
0
VERTEX
8
CUT
10
242.5080
20
61.2635
0
VERTEX
8
CUT
10
242.5256
20
61.3019
0
VERTEX
8
CUT
10
242.5448
20
61.3467
0
VERTEX
8
CUT
10
242.7165
20
61.7778
0
VERTEX
8
CUT
10
242.7329
20
61.8223
0
VERTEX
8
CUT
10
242.7462
20
61.8611
0
VERTEX
8
CUT
10
242.7723
20
61.9522
0
VERTEX
8
CUT
10
242.7757
20
61.9667
0
VERTEX
8
CUT
10
242.7926
20
62.0598
0
VERTEX
8
CUT
10
242.7945
20
62.0746
0
VERTEX
8
CUT
10
242.8021
20
62.1690
0
VERTEX
8
CUT
10
242.8025
20
62.1838
0
VERTEX
8
CUT
10
242.8006
20
62.2785
0
VERTEX
8
CUT
10
242.7996
20
62.2934
0
VERTEX
8
CUT
10
242.7882
20
62.3874
0
VERTEX
8
CUT
10
242.7857
20
62.4020
0
VERTEX
8
CUT
10
242.7651
20
62.4944
0
VERTEX
8
CUT
10
242.7611
20
62.5088
0
VERTEX
8
CUT
10
242.7314
20
62.5987
0
VERTEX
8
CUT
10
242.7260
20
62.6126
0
VERTEX
8
CUT
10
242.6875
20
62.6991
0
VERTEX
8
CUT
10
242.6808
20
62.7123
0
VERTEX
8
CUT
10
242.6338
20
62.7946
0
VERTEX
8
CUT
10
242.6258
20
62.8071
0
VERTEX
8
CUT
10
242.5709
20
62.8842
0
VERTEX
8
CUT
10
242.5616
20
62.8959
0
VERTEX
8
CUT
10
242.4993
20
62.9672
0
VERTEX
8
CUT
10
242.4890
20
62.9779
0
VERTEX
8
CUT
10
242.4199
20
63.0426
0
VERTEX
8
CUT
10
242.4085
20
63.0522
0
VERTEX
8
CUT
10
242.3333
20
63.1097
0
VERTEX
8
CUT
10
242.3210
20
63.1182
0
VERTEX
8
CUT
10
242.2404
20
63.1679
0
VERTEX
8
CUT
10
242.2274
20
63.1751
0
VERTEX
8
CUT
10
242.1423
20
63.2166
0
VERTEX
8
CUT
10
242.1286
20
63.2224
0
VERTEX
8
CUT
10
242.0397
20
63.2552
0
VERTEX
8
CUT
10
242.0255
20
63.2596
0
VERTEX
8
CUT
10
241.9339
20
63.2834
0
VERTEX
8
CUT
10
241.9193
20
63.2864
0
VERTEX
8
CUT
10
241.8257
20
63.3009
0
VERTEX
8
CUT
10
241.8109
20
63.3025
0
VERTEX
8
CUT
10
241.7164
20
63.3076
0
VERTEX
8
CUT
10
241.7015
20
63.3077
0
VERTEX
8
CUT
10
241.6069
20
63.3033
0
VERTEX
8
CUT
10
241.5921
20
63.3019
0
VERTEX
8
CUT
10
241.4984
20
63.2882
0
VERTEX
8
CUT
10
241.4838
20
63.2853
0
VERTEX
8
CUT
10
241.3920
20
63.2623
0
VERTEX
8
CUT
10
241.3777
20
63.2580
0
VERTEX
8
CUT
10
241.2886
20
63.2260
0
VERTEX
8
CUT
10
241.2749
20
63.2203
0
VERTEX
8
CUT
10
241.1894
20
63.1795
0
VERTEX
8
CUT
10
241.1763
20
63.1725
0
VERTEX
8
CUT
10
241.0953
20
63.1234
0
VERTEX
8
CUT
10
241.0829
20
63.1151
0
VERTEX
8
CUT
10
241.0073
20
63.0582
0
VERTEX
8
CUT
10
240.9958
20
63.0487
0
VERTEX
8
CUT
10
240.9261
20
62.9846
0
VERTEX
8
CUT
10
240.9157
20
62.9739
0
VERTEX
8
CUT
10
240.8528
20
62.9032
0
VERTEX
8
CUT
10
240.8270
20
62.8712
0
VERTEX
8
CUT
10
240.7983
20
62.8335
0
VERTEX
8
CUT
10
240.6465
20
62.6241
0
VERTEX
8
CUT
10
240.5128
20
62.4581
0
VERTEX
8
CUT
10
240.3629
20
62.3064
0
VERTEX
8
CUT
10
240.1984
20
62.1708
0
VERTEX
8
CUT
10
240.0211
20
62.0525
0
VERTEX
8
CUT
10
238.6204
20
61.2180
0
VERTEX
8
CUT
10
238.4147
20
61.1104
0
VERTEX
8
CUT
10
238.1984
20
61.0261
0
VERTEX
8
CUT
10
237.9741
20
60.9662
0
VERTEX
8
CUT
10
235.8184
20
60.5169
0
VERTEX
8
CUT
10
235.6345
20
60.4870
0
VERTEX
8
CUT
10
235.4487
20
60.4736
0
VERTEX
8
CUT
10
235.2624
20
60.4766
0
VERTEX
8
CUT
10
235.0771
20
60.4962
0
VERTEX
8
CUT
10
233.8862
20
60.6755
0
VERTEX
8
CUT
10
233.6569
20
60.7233
0
VERTEX
8
CUT
10
233.4343
20
60.7963
0
VERTEX
8
CUT
10
233.2212
20
60.8936
0
VERTEX
8
CUT
10
232.0320
20
61.5192
0
VERTEX
8
CUT
10
231.8442
20
61.6308
0
VERTEX
8
CUT
10
231.6691
20
61.7613
0
VERTEX
8
CUT
10
231.2398
20
62.1173
0
VERTEX
8
CUT
10
231.0866
20
62.2578
0
VERTEX
8
CUT
10
230.9480
20
62.4127
0
VERTEX
8
CUT
10
230.8705
20
62.5086
0
VERTEX
8
CUT
10
230.8403
20
62.5440
0
VERTEX
8
CUT
10
230.8134
20
62.5741
0
VERTEX
8
CUT
10
230.7481
20
62.6403
0
SEQEND
0
POLYLINE
8
CUT
66
1
70
1
10
0.0
20
0.0
30
0.0
0
VERTEX
8
CUT
10
100.4228
20
107.0568
0
VERTEX
8
CUT
10
100.5056
20
106.8523
0
VERTEX
8
CUT
10
100.5665
20
106.6401
0
VERTEX
8
CUT
10
101.3342
20
103.3145
0
VERTEX
8
CUT
10
101.3694
20
103.1213
0
VERTEX
8
CUT
10
101.3864
20
102.9258
0
VERTEX
8
CUT
10
101.5273
20
99.3911
0
VERTEX
8
CUT
10
101.5311
20
99.3367
0
VERTEX
8
CUT
10
101.5386
20
99.2596
0
VERTEX
8
CUT
10
101.5455
20
99.2055
0
VERTEX
8
CUT
10
102.0002
20
96.2903
0
VERTEX
8
CUT
10
102.0068
20
96.2529
0
VERTEX
8
CUT
10
102.0132
20
96.2205
0
VERTEX
8
CUT
10
102.0308
20
96.1467
0
VERTEX
8
CUT
10
102.0398
20
96.1150
0
VERTEX
8
CUT
10
102.0508
20
96.0786
0
VERTEX
8
CUT
10
102.8899
20
93.5011
0
VERTEX
8
CUT
10
102.9052
20
93.4577
0
VERTEX
8
CUT
10
102.9193
20
93.4205
0
VERTEX
8
CUT
10
102.9561
20
93.3362
0
VERTEX
8
CUT
10
102.9738
20
93.3005
0
VERTEX
8
CUT
10
102.9952
20
93.2598
0
VERTEX
8
CUT
10
103.0557
20
93.1512
0
VERTEX
8
CUT
10
103.0714
20
93.1063
0
VERTEX
8
CUT
10
103.0864
20
93.0693
0
VERTEX
8
CUT
10
103.1047
20
93.0271
0
VERTEX
8
CUT
10
103.3612
20
92.4722
0
VERTEX
8
CUT
10
103.3799
20
92.4341
0
VERTEX
8
CUT
10
103.3968
20
92.4013
0
VERTEX
8
CUT
10
103.4392
20
92.3277
0
VERTEX
8
CUT
10
103.4590
20
92.2966
0
VERTEX
8
CUT
10
103.4826
20
92.2613
0
VERTEX
8
CUT
10
103.8176
20
91.7840
0
VERTEX
8
CUT
10
104.2821
20
90.9505
0
VERTEX
8
CUT
10
104.3098
20
90.9040
0
VERTEX
8
CUT
10
104.3349
20
90.8644
0
VERTEX
8
CUT
10
104.3980
20
90.7765
0
VERTEX
8
CUT
10
104.4275
20
90.7400
0
VERTEX
8
CUT
10
104.4627
20
90.6989
0
VERTEX
8
CUT
10
107.0519
20
87.8426
0
VERTEX
8
CUT
10
107.0848
20
87.8082
0
VERTEX
8
CUT
10
107.1327
20
87.7604
0
VERTEX
8
CUT
10
107.1673
20
87.7276
0
VERTEX
8
CUT
10
112.4256
20
82.9832
0
VERTEX
8
CUT
10
112.5508
20
82.8603
0
VERTEX
8
CUT
10
114.6466
20
80.6249
0
VERTEX
8
CUT
10
114.7812
20
80.4663
0
VERTEX
8
CUT
10
116.8393
20
77.7818
0
VERTEX
8
CUT
10
120.9523
20
72.0262
0
VERTEX
8
CUT
10
122.7571
20
69.4258
0
VERTEX
8
CUT
10
122.7855
20
69.3869
0
VERTEX
8
CUT
10
122.8273
20
69.3328
0
VERTEX
8
CUT
10
122.8577
20
69.2954
0
VERTEX
8
CUT
10
126.1976
20
65.3947
0
VERTEX
8
CUT
10
126.2330
20
65.3556
0
VERTEX
8
CUT
10
126.2848
20
65.3015
0
VERTEX
8
CUT
10
126.3223
20
65.2645
0
VERTEX
8
CUT
10
129.8064
20
62.0077
0
VERTEX
8
CUT
10
129.8475
20
61.9715
0
VERTEX
8
CUT
10
129.9072
20
61.9218
0
VERTEX
8
CUT
10
129.9502
20
61.8880
0
VERTEX
8
CUT
10
129.9668
20
61.8758
0
VERTEX
8
CUT
10
129.9976
20
61.8463
0
VERTEX
8
CUT
10
130.0259
20
61.8203
0
VERTEX
8
CUT
10
130.0508
20
61.7983
0
VERTEX
8
CUT
10
130.1103
20
61.7499
0
VERTEX
8
CUT
10
130.1369
20
61.7300
0
VERTEX
8
CUT
10
130.1681
20
61.7076
0
VERTEX
8
CUT
10
130.5449
20
61.4486
0
VERTEX
8
CUT
10
132.6068
20
59.9248
0
VERTEX
8
CUT
10
132.6382
20
59.9026
0
VERTEX
8
CUT
10
132.6834
20
59.8719
0
VERTEX
8
CUT
10
132.7156
20
59.8510
0
VERTEX
8
CUT
10
134.2968
20
58.8695
0
VERTEX
8
CUT
10
134.5651
20
58.6851
0
VERTEX
8
CUT
10
134.6043
20
58.6596
0
VERTEX
8
CUT
10
134.6608
20
58.6247
0
VERTEX
8
CUT
10
134.7012
20
58.6011
0
VERTEX
8
CUT
10
134.9517
20
58.4630
0
VERTEX
8
CUT
10
135.5899
20
58.0669
0
VERTEX
8
CUT
10
135.6276
20
58.0447
0
VERTEX
8
CUT
10
135.6820
20
58.0143
0
VERTEX
8
CUT
10
135.7207
20
57.9938
0
VERTEX
8
CUT
10
136.5977
20
57.5558
0
VERTEX
8
CUT
10
137.0881
20
57.2855
0
VERTEX
8
CUT
10
137.1306
20
57.2635
0
VERTEX
8
CUT
10
137.1917
20
57.2337
0
VERTEX
8
CUT
10
137.2352
20
57.2138
0
VERTEX
8
CUT
10
137.5571
20
57.0767
0
VERTEX
8
CUT
10
138.7827
20
56.4645
0
VERTEX
8
CUT
10
138.8209
20
56.4465
0
VERTEX
8
CUT
10
138.8757
20
56.4221
0
VERTEX
8
CUT
10
138.9146
20
56.4058
0
VERTEX
8
CUT
10
142.1868
20
55.1205
0
VERTEX
8
CUT
10
142.2212
20
55.1077
0
VERTEX
8
CUT
10
142.2704
20
55.0906
0
VERTEX
8
CUT
10
142.3053
20
55.0792
0
VERTEX
8
CUT
10
145.7907
20
54.0122
0
VERTEX
8
CUT
10
145.8262
20
54.0021
0
VERTEX
8
CUT
10
145.8770
20
53.9887
0
VERTEX
8
CUT
10
145.9129
20
53.9800
0
VERTEX
8
CUT
10
149.5735
20
53.1644
0
VERTEX
8
CUT
10
149.6076
20
53.1575
0
VERTEX
8
CUT
10
149.6563
20
53.1485
0
VERTEX
8
CUT
10
149.6907
20
53.1428
0
VERTEX
8
CUT
10
153.5223
20
52.5801
0
VERTEX
8
CUT
10
153.5605
20
52.5752
0
VERTEX
8
CUT
10
153.6150
20
52.5695
0
VERTEX
8
CUT
10
153.6534
20
52.5662
0
VERTEX
8
CUT
10
156.6513
20
52.3722
0
VERTEX
8
CUT
10
156.6846
20
52.3706
0
VERTEX
8
CUT
10
156.7320
20
52.3692
0
VERTEX
8
CUT
10
156.7654
20
52.3688
0
VERTEX
8
CUT
10
159.6231
20
52.3850
0
VERTEX
8
CUT
10
160.1306
20
52.3703
0
VERTEX
8
CUT
10
160.1643
20
52.3699
0
VERTEX
8
CUT
10
160.2122
20
52.3703
0
VERTEX
8
CUT
10
160.2459
20
52.3711
0
VERTEX
8
CUT
10
160.7235
20
52.3912
0
VERTEX
8
CUT
10
166.8454
20
52.4258
0
VERTEX
8
CUT
10
166.9037
20
52.4279
0
VERTEX
8
CUT
10
166.9862
20
52.4335
0
VERTEX
8
CUT
10
167.0442
20
52.4391
0
VERTEX
8
CUT
10
169.5531
20
52.7629
0
VERTEX
8
CUT
10
169.8119
20
52.7738
0
VERTEX
8
CUT
10
169.8672
20
52.7778
0
VERTEX
8
CUT
10
169.9455
20
52.7857
0
VERTEX
8
CUT
10
170.0005
20
52.7928
0
VERTEX
8
CUT
10
170.8942
20
52.9360
0
VERTEX
8
CUT
10
174.1056
20
53.3505
0
VERTEX
8
CUT
10
174.1502
20
53.3573
0
VERTEX
8
CUT
10
174.2134
20
53.3685
0
VERTEX
8
CUT
10
174.2577
20
53.3775
0
VERTEX
8
CUT
10
175.7090
20
53.7073
0
VERTEX
8
CUT
10
176.3843
20
53.8155
0
VERTEX
8
CUT
10
176.4259
20
53.8231
0
VERTEX
8
CUT
10
176.4849
20
53.8353
0
VERTEX
8
CUT
10
176.5262
20
53.8448
0
VERTEX
8
CUT
10
178.3829
20
54.3150
0
VERTEX
8
CUT
10
179.8841
20
54.6562
0
VERTEX
8
CUT
10
179.9132
20
54.6633
0
VERTEX
8
CUT
10
179.9543
20
54.6740
0
VERTEX
8
CUT
10
179.9831
20
54.6820
0
VERTEX
8
CUT
10
180.9107
20
54.9553
0
VERTEX
8
CUT
10
181.0022
20
54.9784
0
VERTEX
8
CUT
10
181.0332
20
54.9868
0
VERTEX
8
CUT
10
181.0770
20
54.9995
0
VERTEX
8
CUT
10
181.1076
20
55.0090
0
VERTEX
8
CUT
10
181.2425
20
55.0530
0
VERTEX
8
CUT
10
182.6795
20
55.4763
0
VERTEX
8
CUT
10
182.6941
20
55.4807
0
VERTEX
8
CUT
10
182.7148
20
55.4872
0
VERTEX
8
CUT
10
182.7293
20
55.4918
0
VERTEX
8
CUT
10
185.3081
20
56.3425
0
VERTEX
8
CUT
10
185.3438
20
56.3550
0
VERTEX
8
CUT
10
185.3941
20
56.3739
0
VERTEX
8
CUT
10
185.4292
20
56.3878
0
VERTEX
8
CUT
10
190.0359
20
58.3259
0
VERTEX
8
CUT
10
190.0831
20
58.3473
0
VERTEX
8
CUT
10
190.1493
20
58.3795
0
VERTEX
8
CUT
10
190.1953
20
58.4035
0
VERTEX
8
CUT
10
194.4407
20
60.7638
0
VERTEX
8
CUT
10
194.4807
20
60.7873
0
VERTEX
8
CUT
10
194.5366
20
60.8220
0
VERTEX
8
CUT
10
194.5753
20
60.8475
0
VERTEX
8
CUT
10
195.1457
20
61.2419
0
VERTEX
8
CUT
10
195.6727
20
61.5531
0
VERTEX
8
CUT
10
195.7057
20
61.5735
0
VERTEX
8
CUT
10
195.7520
20
61.6034
0
VERTEX
8
CUT
10
195.7842
20
61.6252
0
VERTEX
8
CUT
10
198.5547
20
63.5826
0
VERTEX
8
CUT
10
198.5852
20
63.6050
0
VERTEX
8
CUT
10
198.6278
20
63.6378
0
VERTEX
8
CUT
10
198.6573
20
63.6614
0
VERTEX
8
CUT
10
198.7202
20
63.7138
0
VERTEX
8
CUT
10
198.7412
20
63.7289
0
VERTEX
8
CUT
10
198.7789
20
63.7569
0
VERTEX
8
CUT
10
198.8050
20
63.7771
0
VERTEX
8
CUT
10
200.7466
20
65.3298
0
VERTEX
8
CUT
10
200.7740
20
65.3526
0
VERTEX
8
CUT
10
200.8124
20
65.3857
0
VERTEX
8
CUT
10
200.8389
20
65.4095
0
VERTEX
8
CUT
10
204.5507
20
68.8648
0
VERTEX
8
CUT
10
204.5831
20
68.8965
0
VERTEX
8
CUT
10
204.6280
20
68.9425
0
VERTEX
8
CUT
10
204.6589
20
68.9757
0
VERTEX
8
CUT
10
207.5480
20
72.2317
0
VERTEX
8
CUT
10
207.5668
20
72.2535
0
VERTEX
8
CUT
10
207.5931
20
72.2850
0
VERTEX
8
CUT
10
207.6113
20
72.3075
0
VERTEX
8
CUT
10
211.6052
20
77.4011
0
VERTEX
8
CUT
10
227.6411
20
98.1481
0
VERTEX
8
CUT
10
227.6539
20
98.1650
0
VERTEX
8
CUT
10
232.1341
20
104.1880
0
VERTEX
8
CUT
10
232.7007
20
104.9247
0
VERTEX
8
CUT
10
232.7214
20
104.9526
0
VERTEX
8
CUT
10
232.7500
20
104.9928
0
VERTEX
8
CUT
10
232.7696
20
105.0215
0
VERTEX
8
CUT
10
232.8891
20
105.2029
0
VERTEX
8
CUT
10
232.9767
20
105.3206
0
VERTEX
8
CUT
10
232.9904
20
105.3396
0
VERTEX
8
CUT
10
233.0097
20
105.3669
0
VERTEX
8
CUT
10
233.0230
20
105.3862
0
VERTEX
8
CUT
10
234.9168
20
108.2139
0
VERTEX
8
CUT
10
234.9377
20
108.2465
0
VERTEX
8
CUT
10
234.9664
20
108.2934
0
VERTEX
8
CUT
10
234.9859
20
108.3269
0
VERTEX
8
CUT
10
237.7219
20
113.2342
0
VERTEX
8
CUT
10
237.7447
20
113.2778
0
VERTEX
8
CUT
10
237.7755
20
113.3404
0
VERTEX
8
CUT
10
237.7960
20
113.3851
0
VERTEX
8
CUT
10
238.7947
20
115.7145
0
VERTEX
8
CUT
10
238.8078
20
115.7466
0
VERTEX
8
CUT
10
238.8256
20
115.7925
0
VERTEX
8
CUT
10
238.8375
20
115.8251
0
VERTEX
8
CUT
10
239.7162
20
118.3734
0
VERTEX
8
CUT
10
239.9454
20
118.9661
0
VERTEX
8
CUT
10
239.9650
20
119.0218
0
VERTEX
8
CUT
10
239.9903
20
119.1018
0
VERTEX
8
CUT
10
240.0064
20
119.1586
0
VERTEX
8
CUT
10
240.0572
20
119.3623
0
VERTEX
8
CUT
10
240.2414
20
119.8966
0
VERTEX
8
CUT
10
240.2553
20
119.9404
0
VERTEX
8
CUT
10
240.2736
20
120.0031
0
VERTEX
8
CUT
10
240.2854
20
120.0475
0
VERTEX
8
CUT
10
241.2579
20
124.1049
0
VERTEX
8
CUT
10
241.2716
20
124.1728
0
VERTEX
8
CUT
10
241.2875
20
124.2699
0
VERTEX
8
CUT
10
241.2962
20
124.3386
0
VERTEX
8
CUT
10
241.6531
20
128.3258
0
VERTEX
8
CUT
10
241.6562
20
128.3743
0
VERTEX
8
CUT
10
241.6588
20
128.4433
0
VERTEX
8
CUT
10
241.6594
20
128.4919
0
VERTEX
8
CUT
10
241.6019
20
132.8845
0
VERTEX
8
CUT
10
241.6003
20
132.9300
0
VERTEX
8
CUT
10
241.5963
20
132.9945
0
VERTEX
8
CUT
10
241.5925
20
133.0398
0
VERTEX
8
CUT
10
241.3174
20
135.5560
0
VERTEX
8
CUT
10
241.3117
20
135.5990
0
VERTEX
8
CUT
10
241.3022
20
135.6600
0
VERTEX
8
CUT
10
241.2946
20
135.7027
0
VERTEX
8
CUT
10
240.8027
20
138.1252
0
VERTEX
8
CUT
10
240.7919
20
138.1723
0
VERTEX
8
CUT
10
240.7748
20
138.2389
0
VERTEX
8
CUT
10
240.7616
20
138.2854
0
VERTEX
8
CUT
10
240.0053
20
140.7114
0
VERTEX
8
CUT
10
239.9861
20
140.7667
0
VERTEX
8
CUT
10
239.9565
20
140.8444
0
VERTEX
8
CUT
10
239.9340
20
140.8985
0
VERTEX
8
CUT
10
237.4983
20
146.2730
0
VERTEX
8
CUT
10
237.4735
20
146.3236
0
VERTEX
8
CUT
10
237.4362
20
146.3944
0
VERTEX
8
CUT
10
237.4085
20
146.4435
0
VERTEX
8
CUT
10
231.5149
20
156.1812
0
VERTEX
8
CUT
10
231.4615
20
156.2748
0
VERTEX
8
CUT
10
228.8143
20
161.2023
0
VERTEX
8
CUT
10
228.7012
20
161.4503
0
VERTEX
8
CUT
10
227.1657
20
165.4917
0
VERTEX
8
CUT
10
227.1032
20
165.6835
0
VERTEX
8
CUT
10
227.0594
20
165.8803
0
VERTEX
8
CUT
10
226.4146
20
169.6149
0
VERTEX
8
CUT
10
226.3848
20
169.9118
0
VERTEX
8
CUT
10
226.3306
20
171.7992
0
VERTEX
8
CUT
10
226.3354
20
172.0136
0
VERTEX
8
CUT
10
226.6128
20
175.7843
0
VERTEX
8
CUT
10
226.6392
20
175.9963
0
VERTEX
8
CUT
10
226.6872
20
176.2046
0
VERTEX
8
CUT
10
227.7107
20
179.8045
0
VERTEX
8
CUT
10
227.7641
20
179.9671
0
VERTEX
8
CUT
10
227.8307
20
180.1248
0
VERTEX
8
CUT
10
229.8332
20
184.3775
0
VERTEX
8
CUT
10
229.9385
20
184.5734
0
VERTEX
8
CUT
10
234.1106
20
191.4397
0
VERTEX
8
CUT
10
234.1341
20
191.4805
0
VERTEX
8
CUT
10
234.1535
20
191.5165
0
VERTEX
8
CUT
10
234.1942
20
191.6014
0
VERTEX
8
CUT
10
234.1999
20
191.6151
0
VERTEX
8
CUT
10
234.2320
20
191.7036
0
VERTEX
8
CUT
10
234.2364
20
191.7178
0
VERTEX
8
CUT
10
234.2595
20
191.8091
0
VERTEX
8
CUT
10
234.2624
20
191.8236
0
VERTEX
8
CUT
10
234.2764
20
191.9167
0
VERTEX
8
CUT
10
234.2779
20
191.9315
0
VERTEX
8
CUT
10
234.2826
20
192.0255
0
VERTEX
8
CUT
10
234.2826
20
192.0403
0
VERTEX
8
CUT
10
234.2779
20
192.1344
0
VERTEX
8
CUT
10
234.2765
20
192.1491
0
VERTEX
8
CUT
10
234.2625
20
192.2423
0
VERTEX
8
CUT
10
234.2596
20
192.2568
0
VERTEX
8
CUT
10
234.2365
20
192.3481
0
VERTEX
8
CUT
10
234.2322
20
192.3622
0
VERTEX
8
CUT
10
234.2001
20
192.4508
0
VERTEX
8
CUT
10
234.1944
20
192.4645
0
VERTEX
8
CUT
10
234.1537
20
192.5494
0
VERTEX
8
CUT
10
234.1467
20
192.5624
0
VERTEX
8
CUT
10
234.0978
20
192.6429
0
VERTEX
8
CUT
10
234.0895
20
192.6552
0
VERTEX
8
CUT
10
234.0329
20
192.7305
0
VERTEX
8
CUT
10
234.0234
20
192.7419
0
VERTEX
8
CUT
10
233.9596
20
192.8111
0
VERTEX
8
CUT
10
233.9491
20
192.8215
0
VERTEX
8
CUT
10
233.8787
20
192.8842
0
VERTEX
8
CUT
10
233.8672
20
192.8934
0
VERTEX
8
CUT
10
233.7910
20
192.9488
0
VERTEX
8
CUT
10
233.7786
20
192.9569
0
VERTEX
8
CUT
10
233.6973
20
193.0044
0
VERTEX
8
CUT
10
233.6842
20
193.0113
0
VERTEX
8
CUT
10
233.5985
20
193.0505
0
VERTEX
8
CUT
10
233.5848
20
193.0560
0
VERTEX
8
CUT
10
233.4957
20
193.0865
0
VERTEX
8
CUT
10
233.4815
20
193.0907
0
VERTEX
8
CUT
10
233.3898
20
193.1122
0
VERTEX
8
CUT
10
233.3752
20
193.1149
0
VERTEX
8
CUT
10
233.2819
20
193.1273
0
VERTEX
8
CUT
10
233.2671
20
193.1285
0
VERTEX
8
CUT
10
233.1730
20
193.1316
0
VERTEX
8
CUT
10
233.1582
20
193.1314
0
VERTEX
8
CUT
10
233.0642
20
193.1251
0
VERTEX
8
CUT
10
233.0495
20
193.1234
0
VERTEX
8
CUT
10
232.9566
20
193.1079
0
VERTEX
8
CUT
10
232.9421
20
193.1047
0
VERTEX
8
CUT
10
232.8513
20
193.0801
0
VERTEX
8
CUT
10
232.8372
20
193.0755
0
VERTEX
8
CUT
10
232.7492
20
193.0419
0
VERTEX
8
CUT
10
232.7117
20
193.0255
0
VERTEX
8
CUT
10
232.6691
20
193.0055
0
VERTEX
8
CUT
10
231.9429
20
192.6426
0
VERTEX
8
CUT
10
231.6993
20
192.5395
0
VERTEX
8
CUT
10
231.1928
20
192.3619
0
VERTEX
8
CUT
10
229.8389
20
191.9418
0
VERTEX
8
CUT
10
228.2004
20
191.6276
0
VERTEX
8
CUT
10
228.0389
20
191.6031
0
VERTEX
8
CUT
10
227.8761
20
191.5912
0
VERTEX
8
CUT
10
225.4482
20
191.5088
0
VERTEX
8
CUT
10
225.1489
20
191.5201
0
VERTEX
8
CUT
10
224.0148
20
191.6440
0
VERTEX
8
CUT
10
223.8723
20
191.6645
0
VERTEX
8
CUT
10
222.7101
20
191.8729
0
VERTEX
8
CUT
10
222.4165
20
191.9477
0
VERTEX
8
CUT
10
219.9975
20
192.7541
0
VERTEX
8
CUT
10
219.8358
20
192.8156
0
VERTEX
8
CUT
10
219.6797
20
192.8901
0
VERTEX
8
CUT
10
216.3185
20
194.6681
0
VERTEX
8
CUT
10
216.1508
20
194.7671
0
VERTEX
8
CUT
10
215.9929
20
194.8812
0
VERTEX
8
CUT
10
214.2174
20
196.2941
0
VERTEX
8
CUT
10
214.0401
20
196.4524
0
VERTEX
8
CUT
10
212.4053
20
198.0872
0
VERTEX
8
CUT
10
212.2412
20
198.2718
0
VERTEX
8
CUT
10
210.7063
20
200.2181
0
VERTEX
8
CUT
10
210.5597
20
200.4296
0
VERTEX
8
CUT
10
209.2644
20
202.5653
0
VERTEX
8
CUT
10
209.1604
20
202.7590
0
VERTEX
8
CUT
10
208.0589
20
205.0964
0
VERTEX
8
CUT
10
207.9756
20
205.3002
0
VERTEX
8
CUT
10
207.0954
20
207.8243
0
VERTEX
8
CUT
10
207.0387
20
208.0159
0
VERTEX
8
CUT
10
206.3742
20
210.7273
0
VERTEX
8
CUT
10
206.3292
20
210.9737
0
VERTEX
8
CUT
10
206.0620
20
213.1714
0
VERTEX
8
CUT
10
206.0470
20
213.3846
0
VERTEX
8
CUT
10
205.7869
20
226.9539
0
VERTEX
8
CUT
10
205.7836
20
227.0167
0
VERTEX
8
CUT
10
205.7760
20
227.1056
0
VERTEX
8
CUT
10
205.7685
20
227.1681
0
VERTEX
8
CUT
10
205.3788
20
229.7195
0
VERTEX
8
CUT
10
205.3711
20
229.7627
0
VERTEX
8
CUT
10
205.3636
20
229.8001
0
VERTEX
8
CUT
10
205.3424
20
229.8853
0
VERTEX
8
CUT
10
205.3315
20
229.9218
0
VERTEX
8
CUT
10
205.3179
20
229.9636
0
VERTEX
8
CUT
10
204.5950
20
232.0296
0
VERTEX
8
CUT
10
204.5763
20
232.0786
0
VERTEX
8
CUT
10
204.5589
20
232.1207
0
VERTEX
8
CUT
10
204.5136
20
232.2152
0
VERTEX
8
CUT
10
204.4916
20
232.2551
0
VERTEX
8
CUT
10
204.4651
20
232.3004
0
VERTEX
8
CUT
10
202.5620
20
235.3519
0
VERTEX
8
CUT
10
202.5404
20
235.3849
0
VERTEX
8
CUT
10
202.5211
20
235.4132
0
VERTEX
8
CUT
10
202.4740
20
235.4764
0
VERTEX
8
CUT
10
202.4662
20
235.4860
0
VERTEX
8
CUT
10
202.4139
20
235.5451
0
VERTEX
8
CUT
10
202.3902
20
235.5698
0
VERTEX
8
CUT
10
202.3623
20
235.5976
0
VERTEX
8
CUT
10
200.7068
20
237.1838
0
VERTEX
8
CUT
10
200.6682
20
237.2187
0
VERTEX
8
CUT
10
200.6340
20
237.2481
0
VERTEX
8
CUT
10
200.5514
20
237.3114
0
VERTEX
8
CUT
10
200.5142
20
237.3369
0
VERTEX
8
CUT
10
200.4704
20
237.3651
0
VERTEX
8
CUT
10
198.4849
20
238.5681
0
VERTEX
8
CUT
10
198.4522
20
238.5870
0
VERTEX
8
CUT
10
198.4235
20
238.6029
0
VERTEX
8
CUT
10
198.3561
20
238.6368
0
VERTEX
8
CUT
10
198.3262
20
238.6503
0
VERTEX
8
CUT
10
198.2915
20
238.6652
0
VERTEX
8
CUT
10
197.4101
20
239.0231
0
VERTEX
8
CUT
10
197.3654
20
239.0399
0
VERTEX
8
CUT
10
197.3263
20
239.0536
0
VERTEX
8
CUT
10
197.2346
20
239.0804
0
VERTEX
8
CUT
10
197.1943
20
239.0901
0
VERTEX
8
CUT
10
197.1476
20
239.1000
0
VERTEX
8
CUT
10
196.0251
20
239.3095
0
VERTEX
8
CUT
10
195.9799
20
239.3168
0
VERTEX
8
CUT
10
195.9405
20
239.3222
0
VERTEX
8
CUT
10
195.8494
20
239.3302
0
VERTEX
8
CUT
10
195.8350
20
239.3308
0
VERTEX
8
CUT
10
195.7435
20
239.3300
0
VERTEX
8
CUT
10
195.7291
20
239.3292
0
VERTEX
8
CUT
10
195.6381
20
239.3197
0
VERTEX
8
CUT
10
195.6239
20
239.3175
0
VERTEX
8
CUT
10
195.5343
20
239.2992
0
VERTEX
8
CUT
10
195.5203
20
239.2956
0
VERTEX
8
CUT
10
195.4328
20
239.2688
0
VERTEX
8
CUT
10
195.4193
20
239.2639
0
VERTEX
8
CUT
10
195.3348
20
239.2288
0
VERTEX
8
CUT
10
195.3218
20
239.2227
0
VERTEX
8
CUT
10
195.2411
20
239.1796
0
VERTEX
8
CUT
10
195.2287
20
239.1722
0
VERTEX
8
CUT
10
195.1525
20
239.1215
0
VERTEX
8
CUT
10
195.1409
20
239.1130
0
VERTEX
8
CUT
10
195.0700
20
239.0552
0
VERTEX
8
CUT
10
195.0593
20
239.0456
0
VERTEX
8
CUT
10
194.9942
20
238.9813
0
VERTEX
8
CUT
10
194.9845
20
238.9707
0
VERTEX
8
CUT
10
194.9259
20
238.9004
0
VERTEX
8
CUT
10
194.9172
20
238.8889
0
VERTEX
8
CUT
10
194.8657
20
238.8133
0
VERTEX
8
CUT
10
194.8449
20
238.7795
0
VERTEX
8
CUT
10
194.8219
20
238.7399
0
VERTEX
8
CUT
10
194.4020
20
237.9748
0
VERTEX
8
CUT
10
194.3821
20
237.9365
0
VERTEX
8
CUT
10
194.3656
20
237.9028
0
VERTEX
8
CUT
10
194.3310
20
237.8236
0
VERTEX
8
CUT
10
194.3176
20
237.7886
0
VERTEX
8
CUT
10
194.3031
20
237.7479
0
VERTEX
8
CUT
10
193.2291
20
234.5058
0
VERTEX
8
CUT
10
193.2173
20
234.4676
0
VERTEX
8
CUT
10
193.2078
20
234.4343
0
VERTEX
8
CUT
10
193.1892
20
234.3567
0
VERTEX
8
CUT
10
193.1867
20
234.3443
0
VERTEX
8
CUT
10
193.1747
20
234.2654
0
VERTEX
8
CUT
10
193.1709
20
234.2309
0
VERTEX
8
CUT
10
193.1674
20
234.1912
0
VERTEX
8
CUT
10
192.9495
20
230.9705
0
VERTEX
8
CUT
10
192.9475
20
230.9287
0
VERTEX
8
CUT
10
192.9462
20
230.8691
0
VERTEX
8
CUT
10
192.9461
20
230.8272
0
VERTEX
8
CUT
10
193.1136
20
222.7585
0
VERTEX
8
CUT
10
193.1081
20
222.5565
0
VERTEX
8
CUT
10
193.0832
20
222.3560
0
VERTEX
8
CUT
10
192.9152
20
221.3876
0
VERTEX
8
CUT
10
192.8761
20
221.2088
0
VERTEX
8
CUT
10
192.8215
20
221.0340
0
VERTEX
8
CUT
10
192.7520
20
220.8647
0
VERTEX
8
CUT
10
192.0747
20
219.4009
0
VERTEX
8
CUT
10
191.9726
20
219.2074
0
VERTEX
8
CUT
10
191.8510
20
219.0255
0
VERTEX
8
CUT
10
190.9259
20
217.7877
0
VERTEX
8
CUT
10
190.8018
20
217.6368
0
VERTEX
8
CUT
10
190.6642
20
217.4981
0
VERTEX
8
CUT
10
190.5143
20
217.3728
0
VERTEX
8
CUT
10
189.4639
20
216.5746
0
VERTEX
8
CUT
10
189.2925
20
216.4573
0
VERTEX
8
CUT
10
189.1104
20
216.3574
0
VERTEX
8
CUT
10
188.9192
20
216.2761
0
VERTEX
8
CUT
10
187.5572
20
215.7744
0
VERTEX
8
CUT
10
187.4033
20
215.7243
0
VERTEX
8
CUT
10
187.2460
20
215.6863
0
VERTEX
8
CUT
10
185.7203
20
215.3789
0
VERTEX
8
CUT
10
185.6763
20
215.3689
0
VERTEX
8
CUT
10
185.6384
20
215.3594
0
VERTEX
8
CUT
10
185.5522
20
215.3333
0
VERTEX
8
CUT
10
185.5389
20
215.3286
0
VERTEX
8
CUT
10
185.4555
20
215.2945
0
VERTEX
8
CUT
10
185.4427
20
215.2885
0
VERTEX
8
CUT
10
185.3629
20
215.2466
0
VERTEX
8
CUT
10
185.3507
20
215.2395
0
VERTEX
8
CUT
10
185.2753
20
215.1902
0
VERTEX
8
CUT
10
185.2638
20
215.1819
0
VERTEX
8
CUT
10
185.1934
20
215.1258
0
VERTEX
8
CUT
10
185.1828
20
215.1164
0
VERTEX
8
CUT
10
185.1180
20
215.0538
0
VERTEX
8
CUT
10
185.1083
20
215.0435
0
VERTEX
8
CUT
10
185.0497
20
214.9751
0
VERTEX
8
CUT
10
185.0410
20
214.9639
0
VERTEX
8
CUT
10
184.9892
20
214.8902
0
VERTEX
8
CUT
10
184.9816
20
214.8783
0
VERTEX
8
CUT
10
184.9371
20
214.8000
0
VERTEX
8
CUT
10
184.9306
20
214.7874
0
VERTEX
8
CUT
10
184.8937
20
214.7053
0
VERTEX
8
CUT
10
184.8793
20
214.6689
0
VERTEX
8
CUT
10
184.8638
20
214.6266
0
VERTEX
8
CUT
10
184.6896
20
214.1149
0
VERTEX
8
CUT
10
184.6205
20
213.9385
0
VERTEX
8
CUT
10
184.5357
20
213.7690
0
VERTEX
8
CUT
10
184.4361
20
213.6079
0
VERTEX
8
CUT
10
184.3223
20
213.4564
0
VERTEX
8
CUT
10
184.1954
20
213.3158
0
VERTEX
8
CUT
10
182.7946
20
211.8982
0
VERTEX
8
CUT
10
182.7606
20
211.8618
0
VERTEX
8
CUT
10
182.7319
20
211.8296
0
VERTEX
8
CUT
10
182.6697
20
211.7519
0
VERTEX
8
CUT
10
182.6606
20
211.7391
0
VERTEX
8
CUT
10
182.6069
20
211.6554
0
VERTEX
8
CUT
10
182.5992
20
211.6418
0
VERTEX
8
CUT
10
182.5546
20
211.5528
0
VERTEX
8
CUT
10
182.5373
20
211.5132
0
VERTEX
8
CUT
10
182.5081
20
211.4416
0
VERTEX
8
CUT
10
182.5071
20
211.4421
0
VERTEX
8
CUT
10
182.4268
20
211.2601
0
VERTEX
8
CUT
10
182.3097
20
211.0586
0
VERTEX
8
CUT
10
182.1710
20
210.8713
0
VERTEX
8
CUT
10
181.7518
20
210.3665
0
VERTEX
8
CUT
10
181.7224
20
210.3294
0
VERTEX
8
CUT
10
181.6978
20
210.2965
0
VERTEX
8
CUT
10
181.6449
20
210.2180
0
VERTEX
8
CUT
10
181.6372
20
210.2053
0
VERTEX
8
CUT
10
181.5923
20
210.1219
0
VERTEX
8
CUT
10
181.5860
20
210.1084
0
VERTEX
8
CUT
10
181.5496
20
210.0210
0
VERTEX
8
CUT
10
181.5358
20
209.9823
0
VERTEX
8
CUT
10
181.5209
20
209.9374
0
VERTEX
8
CUT
10
181.4274
20
209.6286
0
VERTEX
8
CUT
10
181.3465
20
209.4070
0
VERTEX
8
CUT
10
181.2412
20
209.1958
0
VERTEX
8
CUT
10
181.1129
20
208.9978
0
VERTEX
8
CUT
10
179.2818
20
206.4930
0
VERTEX
8
CUT
10
179.2546
20
206.4537
0
VERTEX
8
CUT
10
179.2319
20
206.4191
0
VERTEX
8
CUT
10
179.1835
20
206.3367
0
VERTEX
8
CUT
10
179.1766
20
206.3234
0
VERTEX
8
CUT
10
179.1368
20
206.2365
0
VERTEX
8
CUT
10
179.1214
20
206.1980
0
VERTEX
8
CUT
10
179.1048
20
206.1532
0
VERTEX
8
CUT
10
178.9515
20
205.7046
0
VERTEX
8
CUT
10
178.8547
20
205.4690
0
VERTEX
8
CUT
10
178.7300
20
205.2469
0
VERTEX
8
CUT
10
178.2471
20
204.4968
0
VERTEX
8
CUT
10
178.2265
20
204.4632
0
VERTEX
8
CUT
10
178.2091
20
204.4337
0
VERTEX
8
CUT
10
178.1721
20
204.3640
0
VERTEX
8
CUT
10
178.1667
20
204.3528
0
VERTEX
8
CUT
10
178.1356
20
204.2803
0
VERTEX
8
CUT
10
178.1234
20
204.2483
0
VERTEX
8
CUT
10
178.1101
20
204.2111
0
VERTEX
8
CUT
10
177.8655
20
203.4797
0
VERTEX
8
CUT
10
177.7910
20
203.2886
0
VERTEX
8
CUT
10
177.6983
20
203.1057
0
VERTEX
8
CUT
10
177.5882
20
202.9327
0
VERTEX
8
CUT
10
177.4617
20
202.7713
0
VERTEX
8
CUT
10
177.3201
20
202.6229
0
VERTEX
8
CUT
10
174.3296
20
199.7827
0
VERTEX
8
CUT
10
174.3033
20
199.7567
0
VERTEX
8
CUT
10
174.2809
20
199.7337
0
VERTEX
8
CUT
10
174.2314
20
199.6788
0
VERTEX
8
CUT
10
174.2108
20
199.6541
0
VERTEX
8
CUT
10
174.1877
20
199.6252
0
VERTEX
8
CUT
10
172.5592
20
197.5067
0
VERTEX
8
CUT
10
172.4630
20
197.3904
0
VERTEX
8
CUT
10
168.1631
20
192.5590
0
VERTEX
8
CUT
10
168.0373
20
192.4293
0
VERTEX
8
CUT
10
167.9007
20
192.3109
0
VERTEX
8
CUT
10
167.7545
20
192.2047
0
VERTEX
8
CUT
10
167.3176
20
191.9151
0
VERTEX
8
CUT
10
167.1357
20
191.8073
0
VERTEX
8
CUT
10
166.9439
20
191.7184
0
VERTEX
8
CUT
10
166.7442
20
191.6492
0
VERTEX
8
CUT
10
166.5385
20
191.6004
0
VERTEX
8
CUT
10
166.3289
20
191.5726
0
VERTEX
8
CUT
10
166.2361
20
191.5650
0
VERTEX
8
CUT
10
166.0317
20
191.5582
0
VERTEX
8
CUT
10
165.8276
20
191.5714
0
VERTEX
8
CUT
10
165.6257
20
191.6043
0
VERTEX
8
CUT
10
165.4280
20
191.6568
0
VERTEX
8
CUT
10
165.2364
20
191.7282
0
VERTEX
8
CUT
10
165.1985
20
191.7444
0
VERTEX
8
CUT
10
165.1114
20
191.7769
0
VERTEX
8
CUT
10
165.0975
20
191.7813
0
VERTEX
8
CUT
10
165.0077
20
191.8050
0
VERTEX
8
CUT
10
164.9934
20
191.8081
0
VERTEX
8
CUT
10
164.9016
20
191.8229
0
VERTEX
8
CUT
10
164.8871
20
191.8246
0
VERTEX
8
CUT
10
164.7943
20
191.8304
0
VERTEX
8
CUT
10
164.7797
20
191.8306
0
VERTEX
8
CUT
10
164.6869
20
191.8273
0
VERTEX
8
CUT
10
164.6723
20
191.8261
0
VERTEX
8
CUT
10
164.5802
20
191.8137
0
VERTEX
8
CUT
10
164.5658
20
191.8111
0
VERTEX
8
CUT
10
164.4754
20
191.7898
0
VERTEX
8
CUT
10
164.4613
20
191.7858
0
VERTEX
8
CUT
10
164.3734
20
191.7558
0
VERTEX
8
CUT
10
164.3598
20
191.7504
0
VERTEX
8
CUT
10
164.2752
20
191.7119
0
VERTEX
8
CUT
10
164.2622
20
191.7052
0
VERTEX
8
CUT
10
164.1818
20
191.6586
0
VERTEX
8
CUT
10
164.1695
20
191.6507
0
VERTEX
8
CUT
10
164.0940
20
191.5965
0
VERTEX
8
CUT
10
164.0826
20
191.5874
0
VERTEX
8
CUT
10
164.0127
20
191.5261
0
VERTEX
8
CUT
10
164.0022
20
191.5159
0
VERTEX
8
CUT
10
163.9388
20
191.4480
0
VERTEX
8
CUT
10
163.9293
20
191.4369
0
VERTEX
8
CUT
10
163.8727
20
191.3631
0
VERTEX
8
CUT
10
163.8644
20
191.3511
0
VERTEX
8
CUT
10
163.8154
20
191.2722
0
VERTEX
8
CUT
10
163.8082
20
191.2594
0
VERTEX
8
CUT
10
163.7671
20
191.1761
0
VERTEX
8
CUT
10
163.7613
20
191.1627
0
VERTEX
8
CUT
10
163.7285
20
191.0757
0
VERTEX
8
CUT
10
163.7240
20
191.0618
0
VERTEX
8
CUT
10
163.6999
20
190.9721
0
VERTEX
8
CUT
10
163.6914
20
190.9327
0
VERTEX
8
CUT
10
163.6826
20
190.8870
0
VERTEX
8
CUT
10
163.3811
20
189.0723
0
VERTEX
8
CUT
10
163.3150
20
188.7937
0
VERTEX
8
CUT
10
162.6966
20
186.8024
0
VERTEX
8
CUT
10
162.6029
20
186.5562
0
VERTEX
8
CUT
10
161.6800
20
184.5259
0
VERTEX
8
CUT
10
161.5865
20
184.3442
0
VERTEX
8
CUT
10
160.2380
20
182.0106
0
VERTEX
8
CUT
10
160.1670
20
181.8964
0
VERTEX
8
CUT
10
154.6652
20
173.6447
0
VERTEX
8
CUT
10
154.6323
20
173.5916
0
VERTEX
8
CUT
10
154.5880
20
173.5147
0
VERTEX
8
CUT
10
154.5586
20
173.4595
0
VERTEX
8
CUT
10
152.2320
20
168.7205
0
VERTEX
8
CUT
10
152.2065
20
168.6639
0
VERTEX
8
CUT
10
152.1728
20
168.5823
0
VERTEX
8
CUT
10
152.1511
20
168.5241
0
VERTEX
8
CUT
10
151.4494
20
166.4451
0
VERTEX
8
CUT
10
151.4331
20
166.3917
0
VERTEX
8
CUT
10
151.4122
20
166.3153
0
VERTEX
8
CUT
10
151.3991
20
166.2611
0
VERTEX
8
CUT
10
150.9471
20
164.1197
0
VERTEX
8
CUT
10
150.9361
20
164.0572
0
VERTEX
8
CUT
10
150.9234
20
163.9679
0
VERTEX
8
CUT
10
150.9166
20
163.9048
0
VERTEX
8
CUT
10
150.5528
20
159.0131
0
VERTEX
8
CUT
10
150.5502
20
158.9490
0
VERTEX
8
CUT
10
150.5496
20
158.8578
0
VERTEX
8
CUT
10
150.5514
20
158.7936
0
VERTEX
8
CUT
10
150.8300
20
154.2312
0
VERTEX
8
CUT
10
150.8331
20
154.1938
0
VERTEX
8
CUT
10
150.8363
20
154.1614
0
VERTEX
8
CUT
10
150.8468
20
154.0870
0
VERTEX
8
CUT
10
150.8526
20
154.0549
0
VERTEX
8
CUT
10
150.8601
20
154.0181
0
VERTEX
8
CUT
10
151.8563
20
149.5457
0
VERTEX
8
CUT
10
151.8736
20
149.4796
0
VERTEX
8
CUT
10
151.9014
20
149.3867
0
VERTEX
8
CUT
10
151.9234
20
149.3220
0
VERTEX
8
CUT
10
153.9215
20
144.0625
0
VERTEX
8
CUT
10
153.9369
20
144.0244
0
VERTEX
8
CUT
10
153.9600
20
143.9708
0
VERTEX
8
CUT
10
153.9770
20
143.9334
0
VERTEX
8
CUT
10
159.5720
20
132.3380
0
VERTEX
8
CUT
10
159.6022
20
132.2726
0
VERTEX
8
CUT
10
161.9255
20
127.0027
0
VERTEX
8
CUT
10
161.9866
20
126.8478
0
VERTEX
8
CUT
10
162.0352
20
126.6886
0
VERTEX
8
CUT
10
163.2292
20
122.1394
0
VERTEX
8
CUT
10
163.2631
20
121.9876
0
VERTEX
8
CUT
10
163.2856
20
121.8338
0
VERTEX
8
CUT
10
163.6854
20
118.1652
0
VERTEX
8
CUT
10
163.6924
20
118.1141
0
VERTEX
8
CUT
10
163.6996
20
118.0700
0
VERTEX
8
CUT
10
163.7218
20
117.9694
0
VERTEX
8
CUT
10
163.7261
20
117.9538
0
VERTEX
8
CUT
10
163.7591
20
117.8563
0
VERTEX
8
CUT
10
163.7651
20
117.8412
0
VERTEX
8
CUT
10
163.8084
20
117.7478
0
VERTEX
8
CUT
10
163.8294
20
117.7084
0
VERTEX
8
CUT
10
163.8548
20
117.6635
0
VERTEX
8
CUT
10
165.4122
20
115.0811
0
VERTEX
8
CUT
10
165.4967
20
114.9266
0
VERTEX
8
CUT
10
165.5681
20
114.7655
0
VERTEX
8
CUT
10
165.6256
20
114.5991
0
VERTEX
8
CUT
10
166.2853
20
112.3962
0
VERTEX
8
CUT
10
166.3337
20
112.2014
0
VERTEX
8
CUT
10
166.3632
20
112.0029
0
VERTEX
8
CUT
10
166.6190
20
109.4477
0
VERTEX
8
CUT
10
166.6294
20
109.2551
0
VERTEX
8
CUT
10
166.6221
20
109.0623
0
VERTEX
8
CUT
10
166.3265
20
105.5503
0
VERTEX
8
CUT
10
166.3056
20
105.3826
0
VERTEX
8
CUT
10
166.2712
20
105.2172
0
VERTEX
8
CUT
10
165.3223
20
101.4202
0
VERTEX
8
CUT
10
165.2903
20
101.3062
0
VERTEX
8
CUT
10
162.3729
20
91.9176
0
VERTEX
8
CUT
10
162.3624
20
91.8813
0
VERTEX
8
CUT
10
162.3485
20
91.8294
0
VERTEX
8
CUT
10
162.3395
20
91.7927
0
VERTEX
8
CUT
10
161.4470
20
87.8341
0
VERTEX
8
CUT
10
161.4375
20
87.7862
0
VERTEX
8
CUT
10
161.4257
20
87.7177
0
VERTEX
8
CUT
10
161.4187
20
87.6693
0
VERTEX
8
CUT
10
161.2362
20
86.1405
0
VERTEX
8
CUT
10
161.2318
20
86.0928
0
VERTEX
8
CUT
10
161.2271
20
86.0250
0
VERTEX
8
CUT
10
161.2251
20
85.9773
0
VERTEX
8
CUT
10
161.1999
20
84.5796
0
VERTEX
8
CUT
10
161.1999
20
84.5424
0
VERTEX
8
CUT
10
161.2006
20
84.5100
0
VERTEX
8
CUT
10
161.2051
20
84.4357
0
VERTEX
8
CUT
10
161.2083
20
84.4035
0
VERTEX
8
CUT
10
161.2128
20
84.3665
0
VERTEX
8
CUT
10
161.5711
20
81.8043
0
VERTEX
8
CUT
10
161.5792
20
81.7553
0
VERTEX
8
CUT
10
161.5874
20
81.7131
0
VERTEX
8
CUT
10
161.6113
20
81.6168
0
VERTEX
8
CUT
10
161.6239
20
81.5756
0
VERTEX
8
CUT
10
161.6396
20
81.5286
0
VERTEX
8
CUT
10
161.7774
20
81.1486
0
VERTEX
8
CUT
10
161.8039
20
80.9881
0
VERTEX
8
CUT
10
161.8127
20
80.9416
0
VERTEX
8
CUT
10
161.8214
20
80.9015
0
VERTEX
8
CUT
10
161.8460
20
80.8103
0
VERTEX
8
CUT
10
161.8506
20
80.7962
0
VERTEX
8
CUT
10
161.8841
20
80.7078
0
VERTEX
8
CUT
10
161.8900
20
80.6942
0
VERTEX
8
CUT
10
161.9322
20
80.6096
0
VERTEX
8
CUT
10
161.9395
20
80.5967
0
VERTEX
8
CUT
10
161.9898
20
80.5167
0
VERTEX
8
CUT
10
161.9983
20
80.5045
0
VERTEX
8
CUT
10
162.0564
20
80.4300
0
VERTEX
8
CUT
10
162.0586
20
80.4274
0
VERTEX
8
CUT
10
162.0934
20
80.3694
0
VERTEX
8
CUT
10
162.1014
20
80.3575
0
VERTEX
8
CUT
10
162.1557
20
80.2840
0
VERTEX
8
CUT
10
162.1648
20
80.2729
0
VERTEX
8
CUT
10
162.2259
20
80.2050
0
VERTEX
8
CUT
10
162.2360
20
80.1948
0
VERTEX
8
CUT
10
162.3034
20
80.1331
0
VERTEX
8
CUT
10
162.3145
20
80.1239
0
VERTEX
8
CUT
10
162.3875
20
80.0689
0
VERTEX
8
CUT
10
162.3994
20
80.0609
0
VERTEX
8
CUT
10
162.4773
20
80.0132
0
VERTEX
8
CUT
10
162.4899
20
80.0063
0
VERTEX
8
CUT
10
162.5721
20
79.9663
0
VERTEX
8
CUT
10
162.5853
20
79.9607
0
VERTEX
8
CUT
10
162.6709
20
79.9288
0
VERTEX
8
CUT
10
162.6846
20
79.9244
0
VERTEX
8
CUT
10
162.7729
20
79.9009
0
VERTEX
8
CUT
10
162.7869
20
79.8979
0
VERTEX
8
CUT
10
162.8771
20
79.8830
0
VERTEX
8
CUT
10
162.8914
20
79.8813
0
VERTEX
8
CUT
10
162.9825
20
79.8752
0
VERTEX
8
CUT
10
162.9969
20
79.8749
0
VERTEX
8
CUT
10
163.0882
20
79.8775
0
VERTEX
8
CUT
10
163.1025
20
79.8786
0
VERTEX
8
CUT
10
163.1932
20
79.8900
0
VERTEX
8
CUT
10
163.2074
20
79.8925
0
VERTEX
8
CUT
10
163.2965
20
79.9125
0
VERTEX
8
CUT
10
163.3103
20
79.9164
0
VERTEX
8
CUT
10
163.3971
20
79.9449
0
VERTEX
8
CUT
10
163.4106
20
79.9500
0
VERTEX
8
CUT
10
163.4942
20
79.9867
0
VERTEX
8
CUT
10
163.5071
20
79.9932
0
VERTEX
8
CUT
10
163.5868
20
80.0378
0
VERTEX
8
CUT
10
163.5990
20
80.0454
0
VERTEX
8
CUT
10
163.6741
20
80.0974
0
VERTEX
8
CUT
10
163.6855
20
80.1062
0
VERTEX
8
CUT
10
163.7552
20
80.1652
0
VERTEX
8
CUT
10
163.7657
20
80.1750
0
VERTEX
8
CUT
10
163.8295
20
80.2405
0
VERTEX
8
CUT
10
163.8557
20
80.2702
0
VERTEX
8
CUT
10
163.8852
20
80.3052
0
VERTEX
8
CUT
10
164.9699
20
81.6584
0
VERTEX
8
CUT
10
164.9935
20
81.6836
0
VERTEX
8
CUT
10
165.0555
20
81.7547
0
VERTEX
8
CUT
10
165.0974
20
81.8063
0
VERTEX
8
CUT
10
165.2481
20
82.0055
0
VERTEX
8
CUT
10
166.5470
20
83.6260
0
VERTEX
8
CUT
10
166.5735
20
83.6606
0
VERTEX
8
CUT
10
166.6099
20
83.7106
0
VERTEX
8
CUT
10
166.6348
20
83.7464
0
VERTEX
8
CUT
10
167.5772
20
85.1725
0
VERTEX
8
CUT
10
167.6016
20
85.2114
0
VERTEX
8
CUT
10
167.6349
20
85.2675
0
VERTEX
8
CUT
10
167.6574
20
85.3076
0
VERTEX
8
CUT
10
168.2184
20
86.3664
0
VERTEX
8
CUT
10
168.5864
20
86.9839
0
VERTEX
8
CUT
10
168.6126
20
87.0307
0
VERTEX
8
CUT
10
168.6479
20
87.0983
0
VERTEX
8
CUT
10
168.6713
20
87.1466
0
VERTEX
8
CUT
10
168.9001
20
87.6528
0
VERTEX
8
CUT
10
169.3669
20
88.5339
0
VERTEX
8
CUT
10
169.3894
20
88.5792
0
VERTEX
8
CUT
10
169.4196
20
88.6444
0
VERTEX
8
CUT
10
169.4396
20
88.6908
0
VERTEX
8
CUT
10
170.8737
20
92.2733
0
VERTEX
8
CUT
10
170.8965
20
92.3366
0
VERTEX
8
CUT
10
170.9257
20
92.4277
0
VERTEX
8
CUT
10
170.9439
20
92.4925
0
VERTEX
8
CUT
10
172.2876
20
98.0088
0
VERTEX
8
CUT
10
172.2960
20
98.0469
0
VERTEX
8
CUT
10
172.3027
20
98.0801
0
VERTEX
8
CUT
10
172.3149
20
98.1572
0
VERTEX
8
CUT
10
172.3188
20
98.1908
0
VERTEX
8
CUT
10
172.3225
20
98.2297
0
VERTEX
8
CUT
10
172.6279
20
102.3162
0
VERTEX
8
CUT
10
172.6296
20
102.3459
0
VERTEX
8
CUT
10
172.6314
20
102.3880
0
VERTEX
8
CUT
10
172.6323
20
102.4177
0
VERTEX
8
CUT
10
172.6893
20
107.1542
0
VERTEX
8
CUT
10
172.6889
20
107.1977
0
VERTEX
8
CUT
10
172.6868
20
107.2595
0
VERTEX
8
CUT
10
172.6843
20
107.3030
0
VERTEX
8
CUT
10
172.1765
20
113.6680
0
VERTEX
8
CUT
10
172.1696
20
113.7290
0
VERTEX
8
CUT
10
172.1571
20
113.8152
0
VERTEX
8
CUT
10
172.1463
20
113.8756
0
VERTEX
8
CUT
10
170.9532
20
119.5048
0
VERTEX
8
CUT
10
170.9474
20
119.5305
0
VERTEX
8
CUT
10
170.9386
20
119.5670
0
VERTEX
8
CUT
10
170.9320
20
119.5926
0
VERTEX
8
CUT
10
169.0513
20
126.5368
0
VERTEX
8
CUT
10
169.0470
20
126.5521
0
VERTEX
8
CUT
10
169.0408
20
126.5738
0
VERTEX
8
CUT
10
169.0362
20
126.5890
0
VERTEX
8
CUT
10
164.4986
20
141.3652
0
VERTEX
8
CUT
10
164.4659
20
141.4841
0
VERTEX
8
CUT
10
162.7066
20
148.6974
0
VERTEX
8
CUT
10
162.6728
20
148.8659
0
VERTEX
8
CUT
10
162.2010
20
151.8401
0
VERTEX
8
CUT
10
162.1798
20
152.0275
0
VERTEX
8
CUT
10
161.7813
20
157.9203
0
VERTEX
8
CUT
10
161.7766
20
158.0810
0
VERTEX
8
CUT
10
161.8047
20
161.1865
0
VERTEX
8
CUT
10
161.8103
20
161.3210
0
VERTEX
8
CUT
10
162.2077
20
166.7426
0
VERTEX
8
CUT
10
162.2350
20
166.9596
0
VERTEX
8
CUT
10
163.1164
20
171.8774
0
VERTEX
8
CUT
10
163.1571
20
172.0580
0
VERTEX
8
CUT
10
163.7590
20
174.2717
0
VERTEX
8
CUT
10
163.8143
20
174.4450
0
VERTEX
8
CUT
10
165.4549
20
178.9096
0
VERTEX
8
CUT
10
165.5448
20
179.1185
0
VERTEX
8
CUT
10
167.3055
20
182.6677
0
VERTEX
8
CUT
10
167.3791
20
182.8033
0
VERTEX
8
CUT
10
168.8358
20
185.2667
0
VERTEX
8
CUT
10
168.9485
20
185.4376
0
VERTEX
8
CUT
10
169.6730
20
186.4281
0
VERTEX
8
CUT
10
171.5245
20
188.6918
0
VERTEX
8
CUT
10
173.5639
20
190.9060
0
VERTEX
8
CUT
10
173.7560
20
191.0897
0
VERTEX
8
CUT
10
177.2302
20
194.0147
0
VERTEX
8
CUT
10
177.3758
20
194.1268
0
VERTEX
8
CUT
10
177.5307
20
194.2257
0
VERTEX
8
CUT
10
179.7041
20
195.4837
0
VERTEX
8
CUT
10
180.3252
20
195.8170
0
VERTEX
8
CUT
10
180.5863
20
195.9570
0
VERTEX
8
CUT
10
181.0750
20
196.2192
0
VERTEX
8
CUT
10
181.7118
20
196.5609
0
VERTEX
8
CUT
10
184.6015
20
197.5622
0
VERTEX
8
CUT
10
185.9583
20
197.9435
0
VERTEX
8
CUT
10
189.7750
20
198.4742
0
VERTEX
8
CUT
10
189.8012
20
198.4767
0
VERTEX
8
CUT
10
190.0066
20
198.4849
0
VERTEX
8
CUT
10
190.0460
20
198.4865
0
VERTEX
8
CUT
10
190.0974
20
198.4886
0
VERTEX
8
CUT
10
190.1711
20
198.4915
0
VERTEX
8
CUT
10
193.9831
20
198.3093
0
VERTEX
8
CUT
10
195.2373
20
198.0552
0
VERTEX
8
CUT
10
197.9867
20
197.3882
0
VERTEX
8
CUT
10
197.9916
20
197.3867
0
VERTEX
8
CUT
10
202.0278
20
195.4309
0
VERTEX
8
CUT
10
202.0799
20
195.4029
0
VERTEX
8
CUT
10
202.9418
20
194.7472
0
VERTEX
8
CUT
10
203.0049
20
194.6943
0
VERTEX
8
CUT
10
203.1441
20
194.5775
0
VERTEX
8
CUT
10
203.6332
20
194.1672
0
VERTEX
8
CUT
10
205.9010
20
192.2649
0
VERTEX
8
CUT
10
207.6958
20
190.3036
0
VERTEX
8
CUT
10
207.9431
20
190.0040
0
VERTEX
8
CUT
10
207.9984
20
189.9371
0
VERTEX
8
CUT
10
208.0756
20
189.8436
0
VERTEX
8
CUT
10
208.2414
20
189.6428
0
VERTEX
8
CUT
10
209.2599
20
188.1765
0
VERTEX
8
CUT
10
209.3934
20
187.9569
0
VERTEX
8
CUT
10
211.6512
20
183.6690
0
VERTEX
8
CUT
10
211.7528
20
183.4451
0
VERTEX
8
CUT
10
213.9461
20
177.7481
0
VERTEX
8
CUT
10
213.9800
20
177.6534
0
VERTEX
8
CUT
10
217.9603
20
165.6264
0
VERTEX
8
CUT
10
217.9697
20
165.5994
0
VERTEX
8
CUT
10
217.9836
20
165.5611
0
VERTEX
8
CUT
10
217.9939
20
165.5344
0
VERTEX
8
CUT
10
224.4405
20
149.3888
0
VERTEX
8
CUT
10
224.4941
20
149.2381
0
VERTEX
8
CUT
10
227.0546
20
141.0680
0
VERTEX
8
CUT
10
227.0918
20
140.9278
0
VERTEX
8
CUT
10
227.3905
20
139.3961
0
VERTEX
8
CUT
10
227.4006
20
139.3503
0
VERTEX
8
CUT
10
227.4103
20
139.3109
0
VERTEX
8
CUT
10
227.4372
20
139.2212
0
VERTEX
8
CUT
10
227.4421
20
139.2073
0
VERTEX
8
CUT
10
227.4776
20
139.1208
0
VERTEX
8
CUT
10
227.4839
20
139.1074
0
VERTEX
8
CUT
10
227.4956
20
139.0854
0
VERTEX
8
CUT
10
227.9144
20
137.1656
0
VERTEX
8
CUT
10
227.9469
20
136.9748
0
VERTEX
8
CUT
10
228.1621
20
135.2275
0
VERTEX
8
CUT
10
228.1776
20
135.0042
0
VERTEX
8
CUT
10
228.2920
20
127.8230
0
VERTEX
8
CUT
10
228.2902
20
127.6967
0
VERTEX
8
CUT
10
228.0910
20
123.1940
0
VERTEX
8
CUT
10
228.0632
20
122.9340
0
VERTEX
8
CUT
10
227.6595
20
120.5655
0
VERTEX
8
CUT
10
227.6208
20
120.3861
0
VERTEX
8
CUT
10
226.5129
20
116.1575
0
VERTEX
8
CUT
10
226.4531
20
115.9669
0
VERTEX
8
CUT
10
224.9877
20
111.9700
0
VERTEX
8
CUT
10
224.9133
20
111.7927
0
VERTEX
8
CUT
10
223.0985
20
107.9677
0
VERTEX
8
CUT
10
223.0060
20
107.7942
0
VERTEX
8
CUT
10
220.8051
20
104.0943
0
VERTEX
8
CUT
10
220.7095
20
103.9479
0
VERTEX
8
CUT
10
218.1731
20
100.3947
0
VERTEX
8
CUT
10
218.0457
20
100.2335
0
VERTEX
8
CUT
10
215.1006
20
96.8608
0
VERTEX
8
CUT
10
214.9970
20
96.7504
0
VERTEX
8
CUT
10
211.6986
20
93.4815
0
VERTEX
8
CUT
10
211.5884
20
93.3798
0
VERTEX
8
CUT
10
205.8444
20
88.4478
0
VERTEX
8
CUT
10
205.8120
20
88.4187
0
VERTEX
8
CUT
10
205.7844
20
88.3927
0
VERTEX
8
CUT
10
205.7238
20
88.3301
0
VERTEX
8
CUT
10
205.7147
20
88.3199
0
VERTEX
8
CUT
10
205.6601
20
88.2520
0
VERTEX
8
CUT
10
205.6520
20
88.2409
0
VERTEX
8
CUT
10
205.6038
20
88.1683
0
VERTEX
8
CUT
10
205.5843
20
88.1358
0
VERTEX
8
CUT
10
205.5708
20
88.1119
0
VERTEX
8
CUT
10
205.5523
20
88.0753
0
VERTEX
8
CUT
10
205.5325
20
88.0329
0
VERTEX
8
CUT
10
205.4925
20
87.9327
0
VERTEX
8
CUT
10
205.4871
20
87.9166
0
VERTEX
8
CUT
10
205.4587
20
87.8125
0
VERTEX
8
CUT
10
205.4489
20
87.7667
0
VERTEX
8
CUT
10
205.4392
20
87.7136
0
VERTEX
8
CUT
10
204.9021
20
84.2261
0
VERTEX
8
CUT
10
204.8390
20
83.9456
0
VERTEX
8
CUT
10
204.3143
20
82.1862
0
VERTEX
8
CUT
10
204.2088
20
81.9070
0
VERTEX
8
CUT
10
202.4428
20
78.0775
0
VERTEX
8
CUT
10
202.3726
20
77.9390
0
VERTEX
8
CUT
10
202.2923
20
77.8059
0
VERTEX
8
CUT
10
199.7735
20
73.9623
0
VERTEX
8
CUT
10
199.5890
20
73.7207
0
VERTEX
8
CUT
10
196.4312
20
70.1563
0
VERTEX
8
CUT
10
196.2977
20
70.0188
0
VERTEX
8
CUT
10
196.1522
20
69.8940
0
VERTEX
8
CUT
10
188.8338
20
64.1764
0
VERTEX
8
CUT
10
188.6333
20
64.0378
0
VERTEX
8
CUT
10
188.4182
20
63.9233
0
VERTEX
8
CUT
10
180.0645
20
60.0825
0
VERTEX
8
CUT
10
179.8540
20
59.9992
0
VERTEX
8
CUT
10
179.6359
20
59.9390
0
VERTEX
8
CUT
10
170.4857
20
57.9378
0
VERTEX
8
CUT
10
170.2842
20
57.9039
0
VERTEX
8
CUT
10
170.0803
20
57.8898
0
VERTEX
8
CUT
10
160.5935
20
57.6940
0
VERTEX
8
CUT
10
160.3952
20
57.6993
0
VERTEX
8
CUT
10
160.1983
20
57.7233
0
VERTEX
8
CUT
10
150.5757
20
59.3586
0
VERTEX
8
CUT
10
150.3891
20
59.3991
0
VERTEX
8
CUT
10
150.2070
20
59.4564
0
VERTEX
8
CUT
10
140.6862
20
62.9339
0
VERTEX
8
CUT
10
140.5131
20
63.0060
0
VERTEX
8
CUT
10
140.3472
20
63.0933
0
VERTEX
8
CUT
10
131.4332
20
68.3016
0
VERTEX
8
CUT
10
131.2733
20
68.4051
0
VERTEX
8
CUT
10
131.1234
20
68.5226
0
VERTEX
8
CUT
10
122.9725
20
75.5318
0
VERTEX
8
CUT
10
122.7997
20
75.6985
0
VERTEX
8
CUT
10
120.7940
20
77.8683
0
VERTEX
8
CUT
10
120.6772
20
78.0060
0
VERTEX
8
CUT
10
117.3620
20
82.2763
0
VERTEX
8
CUT
10
117.1937
20
82.5290
0
VERTEX
8
CUT
10
114.6901
20
86.9482
0
VERTEX
8
CUT
10
114.6178
20
87.0878
0
VERTEX
8
CUT
10
114.5562
20
87.2323
0
VERTEX
8
CUT
10
112.5725
20
92.4121
0
VERTEX
8
CUT
10
112.5253
20
92.5494
0
VERTEX
8
CUT
10
109.8913
20
101.1687
0
VERTEX
8
CUT
10
109.8789
20
101.2064
0
VERTEX
8
CUT
10
109.8675
20
101.2389
0
VERTEX
8
CUT
10
109.8380
20
101.3125
0
VERTEX
8
CUT
10
109.8239
20
101.3439
0
VERTEX
8
CUT
10
109.8070
20
101.3798
0
VERTEX
8
CUT
10
108.7270
20
103.5397
0
VERTEX
8
CUT
10
108.7018
20
103.5868
0
VERTEX
8
CUT
10
108.6641
20
103.6526
0
VERTEX
8
CUT
10
108.6363
20
103.6982
0
VERTEX
8
CUT
10
107.5702
20
105.3393
0
VERTEX
8
CUT
10
107.5308
20
105.3953
0
VERTEX
8
CUT
10
107.4720
20
105.4729
0
VERTEX
8
CUT
10
107.4287
20
105.5260
0
VERTEX
8
CUT
10
104.6304
20
108.7133
0
VERTEX
8
CUT
10
104.5865
20
108.7601
0
VERTEX
8
CUT
10
104.5219
20
108.8244
0
VERTEX
8
CUT
10
104.4749
20
108.8680
0
VERTEX
8
CUT
10
102.8522
20
110.2774
0
VERTEX
8
CUT
10
102.8029
20
110.3174
0
VERTEX
8
CUT
10
102.7310
20
110.3718
0
VERTEX
8
CUT
10
102.6792
20
110.4084
0
VERTEX
8
CUT
10
99.7022
20
112.3651
0
VERTEX
8
CUT
10
99.6627
20
112.3896
0
VERTEX
8
CUT
10
99.6279
20
112.4101
0
VERTEX
8
CUT
10
99.5456
20
112.4533
0
VERTEX
8
CUT
10
99.5324
20
112.4595
0
VERTEX
8
CUT
10
99.4462
20
112.4945
0
VERTEX
8
CUT
10
99.4324
20
112.4993
0
VERTEX
8
CUT
10
99.3433
20
112.5257
0
VERTEX
8
CUT
10
99.3291
20
112.5291
0
VERTEX
8
CUT
10
99.2378
20
112.5466
0
VERTEX
8
CUT
10
99.2233
20
112.5487
0
VERTEX
8
CUT
10
99.1307
20
112.5572
0
VERTEX
8
CUT
10
99.1161
20
112.5578
0
VERTEX
8
CUT
10
99.0232
20
112.5572
0
VERTEX
8
CUT
10
99.0086
20
112.5564
0
VERTEX
8
CUT
10
98.9161
20
112.5468
0
VERTEX
8
CUT
10
98.9017
20
112.5445
0
VERTEX
8
CUT
10
98.8106
20
112.5259
0
VERTEX
8
CUT
10
98.7964
20
112.5222
0
VERTEX
8
CUT
10
98.7076
20
112.4947
0
VERTEX
8
CUT
10
98.6939
20
112.4897
0
VERTEX
8
CUT
10
98.6082
20
112.4537
0
VERTEX
8
CUT
10
98.5950
20
112.4474
0
VERTEX
8
CUT
10
98.5133
20
112.4031
0
VERTEX
8
CUT
10
98.5007
20
112.3956
0
VERTEX
8
CUT
10
98.4237
20
112.3435
0
VERTEX
8
CUT
10
98.4120
20
112.3348
0
VERTEX
8
CUT
10
98.3404
20
112.2755
0
VERTEX
8
CUT
10
98.3296
20
112.2656
0
VERTEX
8
CUT
10
98.2642
20
112.1996
0
VERTEX
8
CUT
10
98.2544
20
112.1887
0
VERTEX
8
CUT
10
98.1958
20
112.1166
0
VERTEX
8
CUT
10
98.1871
20
112.1048
0
VERTEX
8
CUT
10
98.1358
20
112.0273
0
VERTEX
8
CUT
10
98.1283
20
112.0147
0
VERTEX
8
CUT
10
98.0848
20
111.9326
0
VERTEX
8
CUT
10
98.0786
20
111.9193
0
VERTEX
8
CUT
10
98.0433
20
111.8333
0
VERTEX
8
CUT
10
98.0385
20
111.8195
0
VERTEX
8
CUT
10
98.0118
20
111.7305
0
VERTEX
8
CUT
10
98.0083
20
111.7163
0
VERTEX
8
CUT
10
97.9904
20
111.6250
0
VERTEX
8
CUT
10
97.9883
20
111.6106
0
VERTEX
8
CUT
10
97.9795
20
111.5180
0
VERTEX
8
CUT
10
97.9788
20
111.5034
0
VERTEX
8
CUT
10
97.9791
20
111.4105
0
VERTEX
8
CUT
10
97.9798
20
111.3959
0
VERTEX
8
CUT
10
97.9892
20
111.3034
0
VERTEX
8
CUT
10
97.9913
20
111.2889
0
VERTEX
8
CUT
10
98.0097
20
111.1978
0
VERTEX
8
CUT
10
98.0133
20
111.1836
0
VERTEX
8
CUT
10
98.0404
20
111.0947
0
VERTEX
8
CUT
10
98.0454
20
111.0809
0
VERTEX
8
CUT
10
98.0811
20
110.9951
0
VERTEX
8
CUT
10
98.0874
20
110.9819
0
VERTEX
8
CUT
10
98.1314
20
110.9000
0
VERTEX
8
CUT
10
98.1389
20
110.8875
0
VERTEX
8
CUT
10
98.1906
20
110.8103
0
VERTEX
8
CUT
10
98.2147
20
110.7779
0
VERTEX
8
CUT
10
98.2434
20
110.7412
0
VERTEX
8
CUT
10
98.5406
20
110.3800
0
VERTEX
8
CUT
10
98.6838
20
110.1838
0
VERTEX
8
CUT
10
99.6153
20
108.7393
0
VERTEX
8
CUT
10
99.7529
20
108.4903
0
SEQEND
0
POLYLINE
8
CUT
66
1
70
1
10
0.0
20
0.0
30
0.0
0
VERTEX
8
CUT
10
225.9905
20
263.1375
0
VERTEX
8
CUT
10
225.9239
20
263.2035
0
VERTEX
8
CUT
10
225.9129
20
263.2133
0
VERTEX
8
CUT
10
225.8400
20
263.2725
0
VERTEX
8
CUT
10
225.8281
20
263.2812
0
VERTEX
8
CUT
10
225.7498
20
263.3328
0
VERTEX
8
CUT
10
225.7371
20
263.3403
0
VERTEX
8
CUT
10
225.6541
20
263.3840
0
VERTEX
8
CUT
10
225.6407
20
263.3902
0
VERTEX
8
CUT
10
225.5538
20
263.4255
0
VERTEX
8
CUT
10
225.5399
20
263.4303
0
VERTEX
8
CUT
10
225.4499
20
263.4568
0
VERTEX
8
CUT
10
225.4355
20
263.4603
0
VERTEX
8
CUT
10
225.3434
20
263.4778
0
VERTEX
8
CUT
10
225.3287
20
263.4798
0
VERTEX
8
CUT
10
225.2353
20
263.4881
0
VERTEX
8
CUT
10
225.2206
20
263.4887
0
VERTEX
8
CUT
10
225.1268
20
263.4878
0
VERTEX
8
CUT
10
225.1120
20
263.4869
0
VERTEX
8
CUT
10
225.0188
20
263.4767
0
VERTEX
8
CUT
10
225.0042
20
263.4744
0
VERTEX
8
CUT
10
224.9124
20
263.4550
0
VERTEX
8
CUT
10
224.8981
20
263.4513
0
VERTEX
8
CUT
10
224.8087
20
263.4229
0
VERTEX
8
CUT
10
224.7949
20
263.4178
0
VERTEX
8
CUT
10
224.7087
20
263.3808
0
VERTEX
8
CUT
10
224.6954
20
263.3743
0
VERTEX
8
CUT
10
224.6133
20
263.3290
0
VERTEX
8
CUT
10
224.6007
20
263.3212
0
VERTEX
8
CUT
10
224.5235
20
263.2680
0
VERTEX
8
CUT
10
224.5118
20
263.2590
0
VERTEX
8
CUT
10
224.4401
20
263.1985
0
VERTEX
8
CUT
10
224.4294
20
263.1884
0
VERTEX
8
CUT
10
224.3641
20
263.1210
0
VERTEX
8
CUT
10
224.3543
20
263.1099
0
VERTEX
8
CUT
10
224.2960
20
263.0365
0
VERTEX
8
CUT
10
224.2874
20
263.0245
0
VERTEX
8
CUT
10
224.2366
20
262.9456
0
VERTEX
8
CUT
10
224.2292
20
262.9328
0
VERTEX
8
CUT
10
224.1865
20
262.8493
0
VERTEX
8
CUT
10
224.1804
20
262.8359
0
VERTEX
8
CUT
10
224.1461
20
262.7486
0
VERTEX
8
CUT
10
224.1414
20
262.7346
0
VERTEX
8
CUT
10
224.1159
20
262.6443
0
VERTEX
8
CUT
10
224.1125
20
262.6299
0
VERTEX
8
CUT
10
224.0960
20
262.5376
0
VERTEX
8
CUT
10
224.0942
20
262.5230
0
VERTEX
8
CUT
10
224.0869
20
262.4294
0
VERTEX
8
CUT
10
224.0864
20
262.4147
0
VERTEX
8
CUT
10
224.0884
20
262.3209
0
VERTEX
8
CUT
10
224.0894
20
262.3062
0
VERTEX
8
CUT
10
224.1007
20
262.2130
0
VERTEX
8
CUT
10
224.1075
20
262.1729
0
VERTEX
8
CUT
10
224.1166
20
262.1268
0
VERTEX
8
CUT
10
224.4587
20
260.5866
0
VERTEX
8
CUT
10
224.4697
20
260.5423
0
VERTEX
8
CUT
10
224.4802
20
260.5041
0
VERTEX
8
CUT
10
224.5084
20
260.4173
0
VERTEX
8
CUT
10
224.5135
20
260.4039
0
VERTEX
8
CUT
10
224.5500
20
260.3202
0
VERTEX
8
CUT
10
224.5675
20
260.2847
0
VERTEX
8
CUT
10
224.5887
20
260.2443
0
VERTEX
8
CUT
10
224.9793
20
259.5413
0
VERTEX
8
CUT
10
225.0051
20
259.4976
0
VERTEX
8
CUT
10
225.0285
20
259.4603
0
VERTEX
8
CUT
10
225.0870
20
259.3773
0
VERTEX
8
CUT
10
225.1143
20
259.3428
0
VERTEX
8
CUT
10
225.1468
20
259.3037
0
VERTEX
8
CUT
10
225.7188
20
258.6529
0
VERTEX
8
CUT
10
225.7458
20
258.6234
0
VERTEX
8
CUT
10
225.7697
20
258.5984
0
VERTEX
8
CUT
10
225.8273
20
258.5431
0
VERTEX
8
CUT
10
225.8367
20
258.5347
0
VERTEX
8
CUT
10
225.8987
20
258.4844
0
VERTEX
8
CUT
10
225.9265
20
258.4638
0
VERTEX
8
CUT
10
225.9590
20
258.4406
0
VERTEX
8
CUT
10
226.9329
20
257.7779
0
VERTEX
8
CUT
10
226.9799
20
257.7479
0
VERTEX
8
CUT
10
227.0214
20
257.7231
0
VERTEX
8
CUT
10
227.1201
20
257.6717
0
VERTEX
8
CUT
10
227.1642
20
257.6519
0
VERTEX
8
CUT
10
227.2157
20
257.6306
0
VERTEX
8
CUT
10
227.6621
20
257.4611
0
VERTEX
8
CUT
10
227.7001
20
257.4476
0
VERTEX
8
CUT
10
227.7333
20
257.4366
0
VERTEX
8
CUT
10
227.8108
20
257.4145
0
VERTEX
8
CUT
10
227.8231
20
257.4115
0
VERTEX
8
CUT
10
227.9022
20
257.3961
0
VERTEX
8
CUT
10
227.9368
20
257.3908
0
VERTEX
8
CUT
10
227.9693
20
257.3866
0
VERTEX
8
CUT
10
227.9790
20
257.3830
0
VERTEX
8
CUT
10
228.0569
20
257.3580
0
VERTEX
8
CUT
10
228.0693
20
257.3546
0
VERTEX
8
CUT
10
228.1491
20
257.3363
0
VERTEX
8
CUT
10
228.1840
20
257.3299
0
VERTEX
8
CUT
10
228.2244
20
257.3234
0
VERTEX
8
CUT
10
229.6515
20
257.1243
0
VERTEX
8
CUT
10
229.6988
20
257.1189
0
VERTEX
8
CUT
10
229.7399
20
257.1152
0
VERTEX
8
CUT
10
229.8350
20
257.1116
0
VERTEX
8
CUT
10
229.8499
20
257.1117
0
VERTEX
8
CUT
10
229.9448
20
257.1176
0
VERTEX
8
CUT
10
229.9597
20
257.1193
0
VERTEX
8
CUT
10
230.0536
20
257.1346
0
VERTEX
8
CUT
10
230.0939
20
257.1433
0
VERTEX
8
CUT
10
230.1402
20
257.1545
0
VERTEX
8
CUT
10
230.1568
20
257.1590
0
VERTEX
8
CUT
10
230.1684
20
257.1592
0
VERTEX
8
CUT
10
230.2508
20
257.1647
0
VERTEX
8
CUT
10
230.2637
20
257.1661
0
VERTEX
8
CUT
10
230.3453
20
257.1787
0
VERTEX
8
CUT
10
230.3805
20
257.1856
0
VERTEX
8
CUT
10
230.4208
20
257.1946
0
VERTEX
8
CUT
10
231.5919
20
257.4809
0
VERTEX
8
CUT
10
231.6479
20
257.4964
0
VERTEX
8
CUT
10
231.6959
20
257.5113
0
VERTEX
8
CUT
10
231.8043
20
257.5524
0
VERTEX
8
CUT
10
231.8502
20
257.5730
0
VERTEX
8
CUT
10
231.9024
20
257.5985
0
VERTEX
8
CUT
10
232.4449
20
257.8838
0
VERTEX
8
CUT
10
232.4792
20
257.9028
0
VERTEX
8
CUT
10
232.5086
20
257.9199
0
VERTEX
8
CUT
10
232.5747
20
257.9619
0
VERTEX
8
CUT
10
232.5849
20
257.9690
0
VERTEX
8
CUT
10
232.6473
20
258.0164
0
VERTEX
8
CUT
10
232.6735
20
258.0381
0
VERTEX
8
CUT
10
232.7032
20
258.0637
0
VERTEX
8
CUT
10
233.9034
20
259.1419
0
VERTEX
8
CUT
10
233.9405
20
259.1771
0
VERTEX
8
CUT
10
233.9719
20
259.2085
0
VERTEX
8
CUT
10
234.0401
20
259.2846
0
VERTEX
8
CUT
10
234.0502
20
259.2972
0
VERTEX
8
CUT
10
234.1099
20
259.3802
0
VERTEX
8
CUT
10
234.1338
20
259.4175
0
VERTEX
8
CUT
10
234.1602
20
259.4614
0
VERTEX
8
CUT
10
234.9081
20
260.7810
0
VERTEX
8
CUT
10
234.9313
20
260.8246
0
VERTEX
8
CUT
10
234.9505
20
260.8629
0
VERTEX
8
CUT
10
234.9900
20
260.9533
0
VERTEX
8
CUT
10
234.9954
20
260.9678
0
VERTEX
8
CUT
10
235.0253
20
261.0618
0
VERTEX
8
CUT
10
235.0361
20
261.1033
0
VERTEX
8
CUT
10
235.0474
20
261.1514
0
VERTEX
8
CUT
10
235.3486
20
262.6097
0
VERTEX
8
CUT
10
235.3579
20
262.6622
0
VERTEX
8
CUT
10
235.3647
20
262.7079
0
VERTEX
8
CUT
10
235.3744
20
262.8140
0
VERTEX
8
CUT
10
235.3750
20
262.8308
0
VERTEX
8
CUT
10
235.3727
20
262.9373
0
VERTEX
8
CUT
10
235.3692
20
262.9833
0
VERTEX
8
CUT
10
235.3636
20
263.0364
0
VERTEX
8
CUT
10
235.2499
20
263.8848
0
VERTEX
8
CUT
10
235.2426
20
263.9310
0
VERTEX
8
CUT
10
235.2352
20
263.9709
0
VERTEX
8
CUT
10
235.2137
20
264.0618
0
VERTEX
8
CUT
10
235.2097
20
264.0759
0
VERTEX
8
CUT
10
235.1794
20
264.1643
0
VERTEX
8
CUT
10
235.1739
20
264.1779
0
VERTEX
8
CUT
10
235.1351
20
264.2629
0
VERTEX
8
CUT
10
235.1284
20
264.2760
0
VERTEX
8
CUT
10
235.0814
20
264.3567
0
VERTEX
8
CUT
10
235.0734
20
264.3691
0
VERTEX
8
CUT
10
235.0187
20
264.4448
0
VERTEX
8
CUT
10
235.0095
20
264.4563
0
VERTEX
8
CUT
10
234.9476
20
264.5263
0
VERTEX
8
CUT
10
234.9373
20
264.5368
0
VERTEX
8
CUT
10
234.8689
20
264.6004
0
VERTEX
8
CUT
10
234.8576
20
264.6098
0
VERTEX
8
CUT
10
234.7832
20
264.6664
0
VERTEX
8
CUT
10
234.7711
20
264.6747
0
VERTEX
8
CUT
10
234.6915
20
264.7236
0
VERTEX
8
CUT
10
234.6787
20
264.7307
0
VERTEX
8
CUT
10
234.5947
20
264.7716
0
VERTEX
8
CUT
10
234.5811
20
264.7774
0
VERTEX
8
CUT
10
234.4935
20
264.8098
0
VERTEX
8
CUT
10
234.4795
20
264.8143
0
VERTEX
8
CUT
10
234.3891
20
264.8379
0
VERTEX
8
CUT
10
234.3747
20
264.8409
0
VERTEX
8
CUT
10
234.2825
20
264.8556
0
VERTEX
8
CUT
10
234.2679
20
264.8572
0
VERTEX
8
CUT
10
234.1746
20
264.8627
0
VERTEX
8
CUT
10
234.1599
20
264.8629
0
VERTEX
8
CUT
10
234.0665
20
264.8592
0
VERTEX
8
CUT
10
234.0519
20
264.8579
0
VERTEX
8
CUT
10
233.9594
20
264.8451
0
VERTEX
8
CUT
10
233.9449
20
264.8424
0
VERTEX
8
CUT
10
233.8541
20
264.8205
0
VERTEX
8
CUT
10
233.8400
20
264.8164
0
VERTEX
8
CUT
10
233.7517
20
264.7857
0
VERTEX
8
CUT
10
233.7381
20
264.7802
0
VERTEX
8
CUT
10
233.6533
20
264.7410
0
VERTEX
8
CUT
10
233.6403
20
264.7342
0
VERTEX
8
CUT
10
233.5597
20
264.6869
0
VERTEX
8
CUT
10
233.5474
20
264.6788
0
VERTEX
8
CUT
10
233.4719
20
264.6238
0
VERTEX
8
CUT
10
233.4605
20
264.6145
0
VERTEX
8
CUT
10
233.3908
20
264.5523
0
VERTEX
8
CUT
10
233.3803
20
264.5420
0
VERTEX
8
CUT
10
233.3170
20
264.4733
0
VERTEX
8
CUT
10
233.3076
20
264.4620
0
VERTEX
8
CUT
10
233.2514
20
264.3874
0
VERTEX
8
CUT
10
233.2431
20
264.3752
0
VERTEX
8
CUT
10
233.1945
20
264.2954
0
VERTEX
8
CUT
10
233.1875
20
264.2825
0
VERTEX
8
CUT
10
233.1470
20
264.1983
0
VERTEX
8
CUT
10
233.1312
20
264.1609
0
VERTEX
8
CUT
10
233.1141
20
264.1174
0
VERTEX
8
CUT
10
232.8138
20
263.2952
0
VERTEX
8
CUT
10
232.7375
20
263.1134
0
VERTEX
8
CUT
10
232.6445
20
262.9395
0
VERTEX
8
CUT
10
232.5357
20
262.7751
0
VERTEX
8
CUT
10
232.4119
20
262.6217
0
VERTEX
8
CUT
10
231.8846
20
262.0277
0
VERTEX
8
CUT
10
231.7518
20
261.8910
0
VERTEX
8
CUT
10
231.6072
20
261.7670
0
VERTEX
8
CUT
10
231.4519
20
261.6566
0
VERTEX
8
CUT
10
230.9625
20
261.3411
0
VERTEX
8
CUT
10
230.7571
20
261.2245
0
VERTEX
8
CUT
10
230.5399
20
261.1317
0
VERTEX
8
CUT
10
230.3137
20
261.0638
0
VERTEX
8
CUT
10
229.9117
20
260.9676
0
VERTEX
8
CUT
10
229.6814
20
260.9258
0
VERTEX
8
CUT
10
229.4478
20
260.9100
0
VERTEX
8
CUT
10
229.2139
20
260.9202
0
VERTEX
8
CUT
10
228.7928
20
260.9623
0
VERTEX
8
CUT
10
228.5653
20
260.9977
0
VERTEX
8
CUT
10
228.3430
20
261.0579
0
VERTEX
8
CUT
10
228.1286
20
261.1420
0
VERTEX
8
CUT
10
227.7697
20
261.3060
0
VERTEX
8
CUT
10
227.5851
20
261.4017
0
VERTEX
8
CUT
10
227.4109
20
261.5152
0
VERTEX
8
CUT
10
227.2488
20
261.6453
0
VERTEX
8
CUT
10
226.8611
20
261.9894
0
VERTEX
8
CUT
10
226.7340
20
262.1121
0
VERTEX
8
CUT
10
226.6176
20
262.2452
0
VERTEX
8
CUT
10
226.5129
20
262.3875
0
VERTEX
8
CUT
10
226.1118
20
262.9834
0
VERTEX
8
CUT
10
226.0846
20
263.0217
0
VERTEX
8
CUT
10
226.0603
20
263.0543
0
VERTEX
8
CUT
10
226.0005
20
263.1266
0
SEQEND
0
POLYLINE
8
CUT
66
1
70
1
10
0.0
20
0.0
30
0.0
0
VERTEX
8
CUT
10
203.4013
20
35.0205
0
VERTEX
8
CUT
10
203.3881
20
35.0268
0
VERTEX
8
CUT
10
203.3021
20
35.0628
0
VERTEX
8
CUT
10
203.2884
20
35.0678
0
VERTEX
8
CUT
10
203.1993
20
35.0953
0
VERTEX
8
CUT
10
203.1851
20
35.0989
0
VERTEX
8
CUT
10
203.0938
20
35.1175
0
VERTEX
8
CUT
10
203.0793
20
35.1197
0
VERTEX
8
CUT
10
202.9866
20
35.1292
0
VERTEX
8
CUT
10
202.9719
20
35.1300
0
VERTEX
8
CUT
10
202.8787
20
35.1304
0
VERTEX
8
CUT
10
202.8641
20
35.1297
0
VERTEX
8
CUT
10
202.7713
20
35.1210
0
VERTEX
8
CUT
10
202.7568
20
35.1189
0
VERTEX
8
CUT
10
202.6653
20
35.1011
0
VERTEX
8
CUT
10
202.6510
20
35.0976
0
VERTEX
8
CUT
10
202.5618
20
35.0709
0
VERTEX
8
CUT
10
202.5479
20
35.0660
0
VERTEX
8
CUT
10
202.4617
20
35.0307
0
VERTEX
8
CUT
10
202.4484
20
35.0245
0
VERTEX
8
CUT
10
202.3660
20
34.9809
0
VERTEX
8
CUT
10
202.3534
20
34.9734
0
VERTEX
8
CUT
10
202.2757
20
34.9219
0
VERTEX
8
CUT
10
202.2639
20
34.9132
0
VERTEX
8
CUT
10
202.1916
20
34.8544
0
VERTEX
8
CUT
10
202.1807
20
34.8446
0
VERTEX
8
CUT
10
202.1146
20
34.7790
0
VERTEX
8
CUT
10
202.1047
20
34.7681
0
VERTEX
8
CUT
10
202.0453
20
34.6963
0
VERTEX
8
CUT
10
202.0365
20
34.6846
0
VERTEX
8
CUT
10
201.9844
20
34.6073
0
VERTEX
8
CUT
10
201.9768
20
34.5947
0
VERTEX
8
CUT
10
201.9326
20
34.5127
0
VERTEX
8
CUT
10
201.9263
20
34.4995
0
VERTEX
8
CUT
10
201.8903
20
34.4135
0
VERTEX
8
CUT
10
201.8765
20
34.3755
0
VERTEX
8
CUT
10
201.8617
20
34.3313
0
VERTEX
8
CUT
10
201.6591
20
33.6723
0
VERTEX
8
CUT
10
201.6469
20
33.6291
0
VERTEX
8
CUT
10
201.6372
20
33.5913
0
VERTEX
8
CUT
10
201.6190
20
33.5033
0
VERTEX
8
CUT
10
201.6168
20
33.4893
0
VERTEX
8
CUT
10
201.6071
20
33.4000
0
VERTEX
8
CUT
10
201.6062
20
33.3858
0
VERTEX
8
CUT
10
201.6049
20
33.2960
0
VERTEX
8
CUT
10
201.6054
20
33.2818
0
VERTEX
8
CUT
10
201.6126
20
33.1923
0
VERTEX
8
CUT
10
201.6144
20
33.1782
0
VERTEX
8
CUT
10
201.6301
20
33.0897
0
VERTEX
8
CUT
10
201.6387
20
33.0517
0
VERTEX
8
CUT
10
201.6496
20
33.0081
0
VERTEX
8
CUT
10
202.0186
20
31.6741
0
VERTEX
8
CUT
10
202.0330
20
31.6268
0
VERTEX
8
CUT
10
202.0466
20
31.5861
0
VERTEX
8
CUT
10
202.0827
20
31.4941
0
VERTEX
8
CUT
10
202.0892
20
31.4799
0
VERTEX
8
CUT
10
202.1347
20
31.3921
0
VERTEX
8
CUT
10
202.1564
20
31.3551
0
VERTEX
8
CUT
10
202.1825
20
31.3131
0
VERTEX
8
CUT
10
202.9913
20
30.0853
0
VERTEX
8
CUT
10
203.0168
20
30.0485
0
VERTEX
8
CUT
10
203.0396
20
30.0171
0
VERTEX
8
CUT
10
203.0956
20
29.9474
0
VERTEX
8
CUT
10
203.1050
20
29.9368
0
VERTEX
8
CUT
10
203.1673
20
29.8727
0
VERTEX
8
CUT
10
203.1776
20
29.8631
0
VERTEX
8
CUT
10
203.2456
20
29.8051
0
VERTEX
8
CUT
10
203.2568
20
29.7965
0
VERTEX
8
CUT
10
203.3300
20
29.7451
0
VERTEX
8
CUT
10
203.3628
20
29.7244
0
VERTEX
8
CUT
10
203.4012
20
29.7013
0
VERTEX
8
CUT
10
204.5068
20
29.0725
0
VERTEX
8
CUT
10
204.5445
20
29.0522
0
VERTEX
8
CUT
10
204.5777
20
29.0353
0
VERTEX
8
CUT
10
204.6557
20
28.9998
0
VERTEX
8
CUT
10
204.6682
20
28.9947
0
VERTEX
8
CUT
10
204.7491
20
28.9664
0
VERTEX
8
CUT
10
204.7848
20
28.9557
0
VERTEX
8
CUT
10
204.8261
20
28.9444
0
VERTEX
8
CUT
10
205.9514
20
28.6616
0
VERTEX
8
CUT
10
206.0005
20
28.6507
0
VERTEX
8
CUT
10
206.0434
20
28.6423
0
VERTEX
8
CUT
10
206.1430
20
28.6282
0
VERTEX
8
CUT
10
206.1588
20
28.6269
0
VERTEX
8
CUT
10
206.2594
20
28.6234
0
VERTEX
8
CUT
10
206.2752
20
28.6237
0
VERTEX
8
CUT
10
206.3756
20
28.6310
0
VERTEX
8
CUT
10
206.3913
20
28.6329
0
VERTEX
8
CUT
10
206.4903
20
28.6508
0
VERTEX
8
CUT
10
206.5328
20
28.6608
0
VERTEX
8
CUT
10
206.5815
20
28.6736
0
VERTEX
8
CUT
10
207.9542
20
29.0745
0
VERTEX
8
CUT
10
207.9992
20
29.0889
0
VERTEX
8
CUT
10
208.0380
20
29.1024
0
VERTEX
8
CUT
10
208.1256
20
29.1377
0
VERTEX
8
CUT
10
208.1391
20
29.1440
0
VERTEX
8
CUT
10
208.2227
20
29.1879
0
VERTEX
8
CUT
10
208.2580
20
29.2087
0
VERTEX
8
CUT
10
208.2981
20
29.2337
0
VERTEX
8
CUT
10
209.1135
20
29.7712
0
VERTEX
8
CUT
10
209.1569
20
29.8016
0
VERTEX
8
CUT
10
209.1938
20
29.8290
0
VERTEX
8
CUT
10
209.2751
20
29.8967
0
VERTEX
8
CUT
10
209.2873
20
29.9081
0
VERTEX
8
CUT
10
209.3606
20
29.9844
0
VERTEX
8
CUT
10
209.3905
20
30.0193
0
VERTEX
8
CUT
10
209.4239
20
30.0605
0
VERTEX
8
CUT
10
210.0193
20
30.8386
0
VERTEX
8
CUT
10
210.0475
20
30.8774
0
VERTEX
8
CUT
10
210.0710
20
30.9115
0
VERTEX
8
CUT
10
210.1212
20
30.9930
0
VERTEX
8
CUT
10
210.1284
20
31.0062
0
VERTEX
8
CUT
10
210.1702
20
31.0922
0
VERTEX
8
CUT
10
210.1864
20
31.1304
0
VERTEX
8
CUT
10
210.2040
20
31.1750
0
VERTEX
8
CUT
10
210.2541
20
31.3120
0
VERTEX
8
CUT
10
210.2596
20
31.3198
0
VERTEX
8
CUT
10
210.2851
20
31.3582
0
VERTEX
8
CUT
10
210.3064
20
31.3921
0
VERTEX
8
CUT
10
210.3517
20
31.4723
0
VERTEX
8
CUT
10
210.3582
20
31.4853
0
VERTEX
8
CUT
10
210.3955
20
31.5696
0
VERTEX
8
CUT
10
210.4008
20
31.5831
0
VERTEX
8
CUT
10
210.4297
20
31.6706
0
VERTEX
8
CUT
10
210.4404
20
31.7092
0
VERTEX
8
CUT
10
210.4517
20
31.7539
0
VERTEX
8
CUT
10
210.5097
20
32.0104
0
VERTEX
8
CUT
10
210.7205
20
32.5864
0
VERTEX
8
CUT
10
210.7344
20
32.6275
0
VERTEX
8
CUT
10
210.7458
20
32.6634
0
VERTEX
8
CUT
10
210.7680
20
32.7473
0
VERTEX
8
CUT
10
210.7709
20
32.7607
0
VERTEX
8
CUT
10
210.7854
20
32.8463
0
VERTEX
8
CUT
10
210.7871
20
32.8598
0
VERTEX
8
CUT
10
210.7937
20
32.9464
0
VERTEX
8
CUT
10
210.7941
20
32.9600
0
VERTEX
8
CUT
10
210.7928
20
33.0468
0
VERTEX
8
CUT
10
210.7905
20
33.0844
0
VERTEX
8
CUT
10
210.7869
20
33.1277
0
VERTEX
8
CUT
10
210.6677
20
34.2428
0
VERTEX
8
CUT
10
210.6617
20
34.2884
0
VERTEX
8
CUT
10
210.6556
20
34.3279
0
VERTEX
8
CUT
10
210.6370
20
34.4180
0
VERTEX
8
CUT
10
210.6334
20
34.4320
0
VERTEX
8
CUT
10
210.6061
20
34.5199
0
VERTEX
8
CUT
10
210.6012
20
34.5335
0
VERTEX
8
CUT
10
210.5656
20
34.6184
0
VERTEX
8
CUT
10
210.5593
20
34.6315
0
VERTEX
8
CUT
10
210.5157
20
34.7125
0
VERTEX
8
CUT
10
210.5082
20
34.7249
0
VERTEX
8
CUT
10
210.4569
20
34.8013
0
VERTEX
8
CUT
10
210.4482
20
34.8129
0
VERTEX
8
CUT
10
210.3898
20
34.8840
0
VERTEX
8
CUT
10
210.3800
20
34.8947
0
VERTEX
8
CUT
10
210.3150
20
34.9598
0
VERTEX
8
CUT
10
210.3043
20
34.9695
0
VERTEX
8
CUT
10
210.2332
20
35.0280
0
VERTEX
8
CUT
10
210.2216
20
35.0366
0
VERTEX
8
CUT
10
210.1452
20
35.0879
0
VERTEX
8
CUT
10
210.1328
20
35.0954
0
VERTEX
8
CUT
10
210.0518
20
35.1391
0
VERTEX
8
CUT
10
210.0387
20
35.1454
0
VERTEX
8
CUT
10
209.9539
20
35.1810
0
VERTEX
8
CUT
10
209.9403
20
35.1859
0
VERTEX
8
CUT
10
209.8524
20
35.2132
0
VERTEX
8
CUT
10
209.8384
20
35.2168
0
VERTEX
8
CUT
10
209.7482
20
35.2354
0
VERTEX
8
CUT
10
209.7339
20
35.2377
0
VERTEX
8
CUT
10
209.6424
20
35.2475
0
VERTEX
8
CUT
10
209.6280
20
35.2483
0
VERTEX
8
CUT
10
209.5359
20
35.2492
0
VERTEX
8
CUT
10
209.5215
20
35.2486
0
VERTEX
8
CUT
10
209.4298
20
35.2406
0
VERTEX
8
CUT
10
209.4154
20
35.2387
0
VERTEX
8
CUT
10
209.3250
20
35.2218
0
VERTEX
8
CUT
10
209.3109
20
35.2185
0
VERTEX
8
CUT
10
209.2225
20
35.1929
0
VERTEX
8
CUT
10
209.2088
20
35.1882
0
VERTEX
8
CUT
10
209.1232
20
35.1543
0
VERTEX
8
CUT
10
209.1101
20
35.1483
0
VERTEX
8
CUT
10
209.0282
20
35.1062
0
VERTEX
8
CUT
10
209.0157
20
35.0989
0
VERTEX
8
CUT
10
208.9383
20
35.0491
0
VERTEX
8
CUT
10
208.9265
20
35.0407
0
VERTEX
8
CUT
10
208.8543
20
34.9836
0
VERTEX
8
CUT
10
208.8528
20
34.9822
0
VERTEX
8
CUT
10
208.6955
20
34.8577
0
VERTEX
8
CUT
10
208.5270
20
34.7487
0
VERTEX
8
CUT
10
208.3489
20
34.6563
0
VERTEX
8
CUT
10
208.1628
20
34.5813
0
VERTEX
8
CUT
10
207.9704
20
34.5244
0
VERTEX
8
CUT
10
207.7734
20
34.4862
0
VERTEX
8
CUT
10
207.5737
20
34.4669
0
VERTEX
8
CUT
10
205.7322
20
34.3775
0
VERTEX
8
CUT
10
205.5148
20
34.3782
0
VERTEX
8
CUT
10
205.2988
20
34.4014
0
VERTEX
8
CUT
10
204.4913
20
34.5305
0
VERTEX
8
CUT
10
204.2924
20
34.5723
0
VERTEX
8
CUT
10
204.0985
20
34.6330
0
VERTEX
8
CUT
10
203.9114
20
34.7123
0
VERTEX
8
CUT
10
203.7328
20
34.8092
0
VERTEX
8
CUT
10
203.6161
20
34.8880
0
VERTEX
8
CUT
10
203.6159
20
34.8876
0
VERTEX
8
CUT
10
203.4959
20
34.9686
0
VERTEX
8
CUT
10
203.4833
20
34.9762
0
SEQEND
0
POLYLINE
8
CUT
66
1
70
1
10
0.0
20
0.0
30
0.0
0
VERTEX
8
CUT
10
143.3501
20
232.7501
0
VERTEX
8
CUT
10
143.3485
20
232.6578
0
VERTEX
8
CUT
10
143.3490
20
232.6432
0
VERTEX
8
CUT
10
143.3564
20
232.5512
0
VERTEX
8
CUT
10
143.3583
20
232.5367
0
VERTEX
8
CUT
10
143.3746
20
232.4458
0
VERTEX
8
CUT
10
143.3779
20
232.4316
0
VERTEX
8
CUT
10
143.4029
20
232.3427
0
VERTEX
8
CUT
10
143.4076
20
232.3290
0
VERTEX
8
CUT
10
143.4412
20
232.2429
0
VERTEX
8
CUT
10
143.4471
20
232.2296
0
VERTEX
8
CUT
10
143.4889
20
232.1473
0
VERTEX
8
CUT
10
143.4962
20
232.1346
0
VERTEX
8
CUT
10
143.5458
20
232.0567
0
VERTEX
8
CUT
10
143.5542
20
232.0449
0
VERTEX
8
CUT
10
143.6111
20
231.9721
0
VERTEX
8
CUT
10
143.6207
20
231.9611
0
VERTEX
8
CUT
10
143.6844
20
231.8943
0
VERTEX
8
CUT
10
143.6949
20
231.8843
0
VERTEX
8
CUT
10
143.7649
20
231.8239
0
VERTEX
8
CUT
10
143.7764
20
231.8150
0
VERTEX
8
CUT
10
143.8519
20
231.7617
0
VERTEX
8
CUT
10
143.8641
20
231.7539
0
VERTEX
8
CUT
10
143.9444
20
231.7083
0
VERTEX
8
CUT
10
143.9574
20
231.7017
0
VERTEX
8
CUT
10
144.0418
20
231.6641
0
VERTEX
8
CUT
10
144.0553
20
231.6588
0
VERTEX
8
CUT
10
144.1430
20
231.6296
0
VERTEX
8
CUT
10
144.1570
20
231.6256
0
VERTEX
8
CUT
10
144.2470
20
231.6050
0
VERTEX
8
CUT
10
144.2613
20
231.6025
0
VERTEX
8
CUT
10
144.3530
20
231.5907
0
VERTEX
8
CUT
10
144.3674
20
231.5896
0
VERTEX
8
CUT
10
144.4598
20
231.5868
0
VERTEX
8
CUT
10
144.4743
20
231.5871
0
VERTEX
8
CUT
10
144.5665
20
231.5933
0
VERTEX
8
CUT
10
144.5809
20
231.5949
0
VERTEX
8
CUT
10
144.6721
20
231.6101
0
VERTEX
8
CUT
10
144.6863
20
231.6131
0
VERTEX
8
CUT
10
144.7287
20
231.6245
0
VERTEX
8
CUT
10
144.9126
20
231.6651
0
VERTEX
8
CUT
10
145.0995
20
231.6890
0
VERTEX
8
CUT
10
145.2877
20
231.6960
0
VERTEX
8
CUT
10
145.4344
20
231.6884
0
VERTEX
8
CUT
10
145.4870
20
231.6858
0
VERTEX
8
CUT
10
145.5801
20
231.6859
0
VERTEX
8
CUT
10
145.5948
20
231.6867
0
VERTEX
8
CUT
10
145.6875
20
231.6959
0
VERTEX
8
CUT
10
145.7020
20
231.6981
0
VERTEX
8
CUT
10
145.7934
20
231.7164
0
VERTEX
8
CUT
10
145.8076
20
231.7199
0
VERTEX
8
CUT
10
145.8967
20
231.7471
0
VERTEX
8
CUT
10
145.9105
20
231.7520
0
VERTEX
8
CUT
10
145.9966
20
231.7878
0
VERTEX
8
CUT
10
146.0098
20
231.7941
0
VERTEX
8
CUT
10
146.0920
20
231.8381
0
VERTEX
8
CUT
10
146.1045
20
231.8457
0
VERTEX
8
CUT
10
146.1819
20
231.8975
0
VERTEX
8
CUT
10
146.1937
20
231.9063
0
VERTEX
8
CUT
10
146.2657
20
231.9655
0
VERTEX
8
CUT
10
146.2765
20
231.9753
0
VERTEX
8
CUT
10
146.3423
20
232.0413
0
VERTEX
8
CUT
10
146.3522
20
232.0522
0
VERTEX
8
CUT
10
146.4112
20
232.1243
0
VERTEX
8
CUT
10
146.4199
20
232.1361
0
VERTEX
8
CUT
10
146.4716
20
232.2136
0
VERTEX
8
CUT
10
146.4791
20
232.2262
0
VERTEX
8
CUT
10
146.5229
20
232.3084
0
VERTEX
8
CUT
10
146.5292
20
232.3217
0
VERTEX
8
CUT
10
146.5647
20
232.4078
0
VERTEX
8
CUT
10
146.5696
20
232.4216
0
VERTEX
8
CUT
10
146.5966
20
232.5108
0
VERTEX
8
CUT
10
146.6001
20
232.5251
0
VERTEX
8
CUT
10
146.6182
20
232.6165
0
VERTEX
8
CUT
10
146.6203
20
232.6310
0
VERTEX
8
CUT
10
146.6293
20
232.7237
0
VERTEX
8
CUT
10
146.6300
20
232.7384
0
VERTEX
8
CUT
10
146.6299
20
232.8316
0
VERTEX
8
CUT
10
146.6291
20
232.8462
0
VERTEX
8
CUT
10
146.6199
20
232.9389
0
VERTEX
8
CUT
10
146.6177
20
232.9534
0
VERTEX
8
CUT
10
146.5994
20
233.0448
0
VERTEX
8
CUT
10
146.5958
20
233.0590
0
VERTEX
8
CUT
10
146.5686
20
233.1481
0
VERTEX
8
CUT
10
146.5637
20
233.1619
0
VERTEX
8
CUT
10
146.5279
20
233.2480
0
VERTEX
8
CUT
10
146.5106
20
233.2845
0
VERTEX
8
CUT
10
146.4895
20
233.3261
0
VERTEX
8
CUT
10
145.7538
20
234.6978
0
VERTEX
8
CUT
10
145.7309
20
234.7381
0
VERTEX
8
CUT
10
145.7102
20
234.7725
0
VERTEX
8
CUT
10
145.6588
20
234.8494
0
VERTEX
8
CUT
10
145.6501
20
234.8611
0
VERTEX
8
CUT
10
145.5914
20
234.9326
0
VERTEX
8
CUT
10
145.5816
20
234.9434
0
VERTEX
8
CUT
10
145.5162
20
235.0089
0
VERTEX
8
CUT
10
145.5054
20
235.0187
0
VERTEX
8
CUT
10
145.4340
20
235.0774
0
VERTEX
8
CUT
10
145.4223
20
235.0861
0
VERTEX
8
CUT
10
145.3454
20
235.1377
0
VERTEX
8
CUT
10
145.3330
20
235.1452
0
VERTEX
8
CUT
10
145.2515
20
235.1890
0
VERTEX
8
CUT
10
145.2383
20
235.1953
0
VERTEX
8
CUT
10
145.1530
20
235.2310
0
VERTEX
8
CUT
10
145.1393
20
235.2359
0
VERTEX
8
CUT
10
145.0508
20
235.2631
0
VERTEX
8
CUT
10
145.0367
20
235.2667
0
VERTEX
8
CUT
10
144.9461
20
235.2852
0
VERTEX
8
CUT
10
144.9317
20
235.2874
0
VERTEX
8
CUT
10
144.8396
20
235.2970
0
VERTEX
8
CUT
10
144.8251
20
235.2978
0
VERTEX
8
CUT
10
144.7326
20
235.2983
0
VERTEX
8
CUT
10
144.7180
20
235.2977
0
VERTEX
8
CUT
10
144.6259
20
235.2892
0
VERTEX
8
CUT
10
144.6115
20
235.2872
0
VERTEX
8
CUT
10
144.5206
20
235.2698
0
VERTEX
8
CUT
10
144.5064
20
235.2664
0
VERTEX
8
CUT
10
144.4177
20
235.2402
0
VERTEX
8
CUT
10
144.4039
20
235.2354
0
VERTEX
8
CUT
10
144.3181
20
235.2007
0
VERTEX
8
CUT
10
144.3049
20
235.1946
0
VERTEX
8
CUT
10
144.2229
20
235.1518
0
VERTEX
8
CUT
10
144.2103
20
235.1444
0
VERTEX
8
CUT
10
144.1329
20
235.0938
0
VERTEX
8
CUT
10
144.1211
20
235.0852
0
VERTEX
8
CUT
10
144.0490
20
235.0273
0
VERTEX
8
CUT
10
144.0381
20
235.0176
0
VERTEX
8
CUT
10
143.9719
20
234.9529
0
VERTEX
8
CUT
10
143.9620
20
234.9423
0
VERTEX
8
CUT
10
143.9025
20
234.8714
0
VERTEX
8
CUT
10
143.8936
20
234.8598
0
VERTEX
8
CUT
10
143.8413
20
234.7836
0
VERTEX
8
CUT
10
143.8336
20
234.7712
0
VERTEX
8
CUT
10
143.7889
20
234.6902
0
VERTEX
8
CUT
10
143.7825
20
234.6771
0
VERTEX
8
CUT
10
143.7459
20
234.5921
0
VERTEX
8
CUT
10
143.7408
20
234.5785
0
VERTEX
8
CUT
10
143.7127
20
234.4903
0
VERTEX
8
CUT
10
143.7023
20
234.4515
0
VERTEX
8
CUT
10
143.6915
20
234.4065
0
VERTEX
8
CUT
10
143.3767
20
232.9414
0
VERTEX
8
CUT
10
143.3681
20
232.8960
0
VERTEX
8
CUT
10
143.3616
20
232.8564
0
VERTEX
8
CUT
10
143.3510
20
232.7646
0
SEQEND
0
POLYLINE
8
CUT
66
1
70
1
10
0.0
20
0.0
30
0.0
0
VERTEX
8
CUT
10
139.0388
20
270.5872
0
VERTEX
8
CUT
10
139.0266
20
270.5956
0
VERTEX
8
CUT
10
138.9459
20
270.6450
0
VERTEX
8
CUT
10
138.9329
20
270.6522
0
VERTEX
8
CUT
10
138.8477
20
270.6933
0
VERTEX
8
CUT
10
138.8340
20
270.6991
0
VERTEX
8
CUT
10
138.7452
20
270.7315
0
VERTEX
8
CUT
10
138.7310
20
270.7359
0
VERTEX
8
CUT
10
138.6394
20
270.7594
0
VERTEX
8
CUT
10
138.6248
20
270.7624
0
VERTEX
8
CUT
10
138.5314
20
270.7766
0
VERTEX
8
CUT
10
138.5166
20
270.7781
0
VERTEX
8
CUT
10
138.4221
20
270.7830
0
VERTEX
8
CUT
10
138.4072
20
270.7830
0
VERTEX
8
CUT
10
138.3128
20
270.7784
0
VERTEX
8
CUT
10
138.2980
20
270.7770
0
VERTEX
8
CUT
10
138.2045
20
270.7631
0
VERTEX
8
CUT
10
138.1899
20
270.7601
0
VERTEX
8
CUT
10
138.0982
20
270.7370
0
VERTEX
8
CUT
10
138.0840
20
270.7326
0
VERTEX
8
CUT
10
137.9951
20
270.7004
0
VERTEX
8
CUT
10
137.9813
20
270.6947
0
VERTEX
8
CUT
10
137.8961
20
270.6538
0
VERTEX
8
CUT
10
137.8830
20
270.6468
0
VERTEX
8
CUT
10
137.8022
20
270.5976
0
VERTEX
8
CUT
10
137.7899
20
270.5893
0
VERTEX
8
CUT
10
137.7144
20
270.5323
0
VERTEX
8
CUT
10
137.7030
20
270.5228
0
VERTEX
8
CUT
10
137.6335
20
270.4586
0
VERTEX
8
CUT
10
137.6231
20
270.4480
0
VERTEX
8
CUT
10
137.5604
20
270.3773
0
VERTEX
8
CUT
10
137.5511
20
270.3657
0
VERTEX
8
CUT
10
137.4957
20
270.2890
0
VERTEX
8
CUT
10
137.4876
20
270.2765
0
VERTEX
8
CUT
10
137.4401
20
270.1948
0
VERTEX
8
CUT
10
137.4333
20
270.1816
0
VERTEX
8
CUT
10
137.3941
20
270.0955
0
VERTEX
8
CUT
10
137.3887
20
270.0816
0
VERTEX
8
CUT
10
137.3583
20
269.9921
0
VERTEX
8
CUT
10
137.3542
20
269.9778
0
VERTEX
8
CUT
10
137.3329
20
269.8857
0
VERTEX
8
CUT
10
137.3303
20
269.8710
0
VERTEX
8
CUT
10
137.3183
20
269.7772
0
VERTEX
8
CUT
10
137.3151
20
269.7363
0
VERTEX
8
CUT
10
137.3126
20
269.6891
0
VERTEX
8
CUT
10
137.3115
20
269.6483
0
VERTEX
8
CUT
10
137.3113
20
269.6002
0
VERTEX
8
CUT
10
137.3123
20
269.5585
0
VERTEX
8
CUT
10
137.3193
20
269.4626
0
VERTEX
8
CUT
10
137.3212
20
269.4476
0
VERTEX
8
CUT
10
137.3379
20
269.3529
0
VERTEX
8
CUT
10
137.3472
20
269.3123
0
VERTEX
8
CUT
10
137.3592
20
269.2657
0
VERTEX
8
CUT
10
137.6043
20
268.4001
0
VERTEX
8
CUT
10
137.6186
20
268.3542
0
VERTEX
8
CUT
10
137.6319
20
268.3147
0
VERTEX
8
CUT
10
137.6673
20
268.2255
0
VERTEX
8
CUT
10
137.6736
20
268.2117
0
VERTEX
8
CUT
10
137.7178
20
268.1265
0
VERTEX
8
CUT
10
137.7388
20
268.0905
0
VERTEX
8
CUT
10
137.7641
20
268.0496
0
VERTEX
8
CUT
10
138.2771
20
267.2659
0
VERTEX
8
CUT
10
138.3010
20
267.2311
0
VERTEX
8
CUT
10
138.3225
20
267.2013
0
VERTEX
8
CUT
10
138.3749
20
267.1349
0
VERTEX
8
CUT
10
138.3836
20
267.1248
0
VERTEX
8
CUT
10
138.4418
20
267.0634
0
VERTEX
8
CUT
10
138.4682
20
267.0379
0
VERTEX
8
CUT
10
138.4992
20
267.0091
0
VERTEX
8
CUT
10
139.2003
20
266.3895
0
VERTEX
8
CUT
10
139.2439
20
266.3532
0
VERTEX
8
CUT
10
139.2826
20
266.3228
0
VERTEX
8
CUT
10
139.3760
20
266.2584
0
VERTEX
8
CUT
10
139.4181
20
266.2329
0
VERTEX
8
CUT
10
139.4675
20
266.2050
0
VERTEX
8
CUT
10
140.2643
20
265.7853
0
VERTEX
8
CUT
10
140.3047
20
265.7653
0
VERTEX
8
CUT
10
140.3401
20
265.7487
0
VERTEX
8
CUT
10
140.4233
20
265.7145
0
VERTEX
8
CUT
10
140.4367
20
265.7097
0
VERTEX
8
CUT
10
140.5228
20
265.6835
0
VERTEX
8
CUT
10
140.5607
20
265.6740
0
VERTEX
8
CUT
10
140.6047
20
265.6640
0
VERTEX
8
CUT
10
141.5706
20
265.4680
0
VERTEX
8
CUT
10
141.6146
20
265.4602
0
VERTEX
8
CUT
10
141.6530
20
265.4543
0
VERTEX
8
CUT
10
141.7420
20
265.4448
0
VERTEX
8
CUT
10
141.7560
20
265.4440
0
VERTEX
8
CUT
10
141.8455
20
265.4429
0
VERTEX
8
CUT
10
141.8843
20
265.4443
0
VERTEX
8
CUT
10
141.9290
20
265.4470
0
VERTEX
8
CUT
10
142.9321
20
265.5301
0
VERTEX
8
CUT
10
142.9801
20
265.5353
0
VERTEX
8
CUT
10
143.0216
20
265.5409
0
VERTEX
8
CUT
10
143.1166
20
265.5586
0
VERTEX
8
CUT
10
143.1313
20
265.5622
0
VERTEX
8
CUT
10
143.2240
20
265.5894
0
VERTEX
8
CUT
10
143.2635
20
265.6033
0
VERTEX
8
CUT
10
143.3087
20
265.6204
0
VERTEX
8
CUT
10
144.3150
20
266.0317
0
VERTEX
8
CUT
10
144.3659
20
266.0543
0
VERTEX
8
CUT
10
144.4095
20
266.0752
0
VERTEX
8
CUT
10
144.5069
20
266.1290
0
VERTEX
8
CUT
10
144.5477
20
266.1549
0
VERTEX
8
CUT
10
144.5939
20
266.1860
0
VERTEX
8
CUT
10
144.9256
20
266.4241
0
VERTEX
8
CUT
10
144.9607
20
266.4506
0
VERTEX
8
CUT
10
144.9906
20
266.4742
0
VERTEX
8
CUT
10
145.0569
20
266.5318
0
VERTEX
8
CUT
10
145.0669
20
266.5413
0
VERTEX
8
CUT
10
145.1275
20
266.6048
0
VERTEX
8
CUT
10
145.1366
20
266.6152
0
VERTEX
8
CUT
10
145.1912
20
266.6840
0
VERTEX
8
CUT
10
145.2135
20
266.7149
0
VERTEX
8
CUT
10
145.2383
20
266.7511
0
VERTEX
8
CUT
10
145.9574
20
267.8532
0
VERTEX
8
CUT
10
145.9803
20
267.8902
0
VERTEX
8
CUT
10
145.9994
20
267.9226
0
VERTEX
8
CUT
10
146.0400
20
267.9994
0
VERTEX
8
CUT
10
146.0458
20
268.0117
0
VERTEX
8
CUT
10
146.0793
20
268.0918
0
VERTEX
8
CUT
10
146.0839
20
268.1047
0
VERTEX
8
CUT
10
146.1099
20
268.1875
0
VERTEX
8
CUT
10
146.1195
20
268.2239
0
VERTEX
8
CUT
10
146.1296
20
268.2662
0
VERTEX
8
CUT
10
146.3761
20
269.4100
0
VERTEX
8
CUT
10
146.3848
20
269.4556
0
VERTEX
8
CUT
10
146.3913
20
269.4954
0
VERTEX
8
CUT
10
146.4019
20
269.5877
0
VERTEX
8
CUT
10
146.4029
20
269.6023
0
VERTEX
8
CUT
10
146.4044
20
269.6951
0
VERTEX
8
CUT
10
146.4039
20
269.7097
0
VERTEX
8
CUT
10
146.3964
20
269.8023
0
VERTEX
8
CUT
10
146.3945
20
269.8168
0
VERTEX
8
CUT
10
146.3779
20
269.9082
0
VERTEX
8
CUT
10
146.3746
20
269.9224
0
VERTEX
8
CUT
10
146.3492
20
270.0118
0
VERTEX
8
CUT
10
146.3445
20
270.0256
0
VERTEX
8
CUT
10
146.3105
20
270.1121
0
VERTEX
8
CUT
10
146.3045
20
270.1254
0
VERTEX
8
CUT
10
146.2622
20
270.2081
0
VERTEX
8
CUT
10
146.2549
20
270.2207
0
VERTEX
8
CUT
10
146.2047
20
270.2989
0
VERTEX
8
CUT
10
146.1962
20
270.3108
0
VERTEX
8
CUT
10
146.1386
20
270.3837
0
VERTEX
8
CUT
10
146.1290
20
270.3947
0
VERTEX
8
CUT
10
146.0646
20
270.4616
0
VERTEX
8
CUT
10
146.0540
20
270.4716
0
VERTEX
8
CUT
10
145.9833
20
270.5319
0
VERTEX
8
CUT
10
145.9717
20
270.5408
0
VERTEX
8
CUT
10
145.8955
20
270.5939
0
VERTEX
8
CUT
10
145.8831
20
270.6017
0
VERTEX
8
CUT
10
145.8021
20
270.6471
0
VERTEX
8
CUT
10
145.7890
20
270.6536
0
VERTEX
8
CUT
10
145.7039
20
270.6909
0
VERTEX
8
CUT
10
145.6903
20
270.6961
0
VERTEX
8
CUT
10
145.6020
20
270.7248
0
VERTEX
8
CUT
10
145.5879
20
270.7287
0
VERTEX
8
CUT
10
145.4972
20
270.7487
0
VERTEX
8
CUT
10
145.4827
20
270.7511
0
VERTEX
8
CUT
10
145.3905
20
270.7621
0
VERTEX
8
CUT
10
145.3759
20
270.7632
0
VERTEX
8
CUT
10
145.2831
20
270.7651
0
VERTEX
8
CUT
10
145.2685
20
270.7647
0
VERTEX
8
CUT
10
145.1759
20
270.7576
0
VERTEX
8
CUT
10
145.1614
20
270.7558
0
VERTEX
8
CUT
10
145.0699
20
270.7397
0
VERTEX
8
CUT
10
145.0556
20
270.7364
0
VERTEX
8
CUT
10
144.9662
20
270.7114
0
VERTEX
8
CUT
10
144.9523
20
270.7068
0
VERTEX
8
CUT
10
144.8657
20
270.6732
0
VERTEX
8
CUT
10
144.8524
20
270.6673
0
VERTEX
8
CUT
10
144.7695
20
270.6254
0
VERTEX
8
CUT
10
144.7568
20
270.6181
0
VERTEX
8
CUT
10
144.6784
20
270.5683
0
VERTEX
8
CUT
10
144.6664
20
270.5599
0
VERTEX
8
CUT
10
144.5933
20
270.5027
0
VERTEX
8
CUT
10
144.5628
20
270.4763
0
VERTEX
8
CUT
10
144.5284
20
270.4451
0
VERTEX
8
CUT
10
143.9637
20
269.9065
0
VERTEX
8
CUT
10
143.8231
20
269.7838
0
VERTEX
8
CUT
10
143.6722
20
269.6742
0
VERTEX
8
CUT
10
143.5122
20
269.5783
0
VERTEX
8
CUT
10
143.3443
20
269.4971
0
VERTEX
8
CUT
10
143.1698
20
269.4310
0
VERTEX
8
CUT
10
142.3827
20
269.1724
0
VERTEX
8
CUT
10
142.1942
20
269.1200
0
VERTEX
8
CUT
10
142.0017
20
269.0854
0
VERTEX
8
CUT
10
141.8068
20
269.0689
0
VERTEX
8
CUT
10
141.6112
20
269.0706
0
VERTEX
8
CUT
10
141.4166
20
269.0905
0
VERTEX
8
CUT
10
141.2766
20
269.1114
0
VERTEX
8
CUT
10
141.0885
20
269.1484
0
VERTEX
8
CUT
10
140.9046
20
269.2023
0
VERTEX
8
CUT
10
140.7264
20
269.2728
0
VERTEX
8
CUT
10
140.5554
20
269.3592
0
VERTEX
8
CUT
10
140.3929
20
269.4609
0
VERTEX
8
CUT
10
140.2404
20
269.5769
0
VERTEX
8
CUT
10
139.2943
20
270.3676
0
VERTEX
8
CUT
10
139.2111
20
270.4409
0
VERTEX
8
CUT
10
139.1255
20
270.5205
0
VERTEX
8
CUT
10
139.1142
20
270.5301
0
SEQEND
0
POLYLINE
8
CUT
66
1
70
1
10
0.0
20
0.0
30
0.0
0
VERTEX
8
CUT
10
140.1475
20
100.9912
0
VERTEX
8
CUT
10
140.1721
20
101.0329
0
VERTEX
8
CUT
10
140.2336
20
101.1440
0
VERTEX
8
CUT
10
140.2469
20
101.1626
0
VERTEX
8
CUT
10
140.2677
20
101.1932
0
VERTEX
8
CUT
10
140.3125
20
101.2657
0
VERTEX
8
CUT
10
140.3305
20
101.2980
0
VERTEX
8
CUT
10
140.3504
20
101.3357
0
VERTEX
8
CUT
10
140.4478
20
101.5309
0
VERTEX
8
CUT
10
141.2266
20
102.9371
0
VERTEX
8
CUT
10
141.2479
20
102.9778
0
VERTEX
8
CUT
10
141.2655
20
103.0135
0
VERTEX
8
CUT
10
141.3019
20
103.0977
0
VERTEX
8
CUT
10
141.3070
20
103.1112
0
VERTEX
8
CUT
10
141.3352
20
103.1985
0
VERTEX
8
CUT
10
141.3390
20
103.2125
0
VERTEX
8
CUT
10
141.3586
20
103.3021
0
VERTEX
8
CUT
10
141.3653
20
103.3414
0
VERTEX
8
CUT
10
141.3718
20
103.3868
0
VERTEX
8
CUT
10
141.3991
20
103.6150
0
VERTEX
8
CUT
10
141.4034
20
103.6593
0
VERTEX
8
CUT
10
141.4062
20
103.6978
0
VERTEX
8
CUT
10
141.4084
20
103.7866
0
VERTEX
8
CUT
10
141.4081
20
103.8006
0
VERTEX
8
CUT
10
141.4021
20
103.8892
0
VERTEX
8
CUT
10
141.4005
20
103.9031
0
VERTEX
8
CUT
10
141.3861
20
103.9908
0
VERTEX
8
CUT
10
141.3832
20
104.0045
0
VERTEX
8
CUT
10
141.3608
20
104.0904
0
VERTEX
8
CUT
10
141.3566
20
104.1038
0
VERTEX
8
CUT
10
141.3263
20
104.1873
0
VERTEX
8
CUT
10
141.3209
20
104.2002
0
VERTEX
8
CUT
10
141.2828
20
104.2804
0
VERTEX
8
CUT
10
141.2647
20
104.3145
0
VERTEX
8
CUT
10
141.2429
20
104.3532
0
VERTEX
8
CUT
10
139.4519
20
107.3666
0
VERTEX
8
CUT
10
139.4292
20
107.4029
0
VERTEX
8
CUT
10
139.4088
20
107.4339
0
VERTEX
8
CUT
10
139.3586
20
107.5032
0
VERTEX
8
CUT
10
139.3355
20
107.5323
0
VERTEX
8
CUT
10
139.3082
20
107.5652
0
VERTEX
8
CUT
10
138.3406
20
108.6762
0
VERTEX
8
CUT
10
138.3095
20
108.7102
0
VERTEX
8
CUT
10
138.2818
20
108.7390
0
VERTEX
8
CUT
10
138.2148
20
108.8023
0
VERTEX
8
CUT
10
138.1844
20
108.8284
0
VERTEX
8
CUT
10
138.1487
20
108.8575
0
VERTEX
8
CUT
10
137.7393
20
109.1753
0
VERTEX
8
CUT
10
137.5307
20
109.3694
0
VERTEX
8
CUT
10
137.5006
20
109.3962
0
VERTEX
8
CUT
10
137.4741
20
109.4189
0
VERTEX
8
CUT
10
137.4108
20
109.4685
0
VERTEX
8
CUT
10
137.3824
20
109.4888
0
VERTEX
8
CUT
10
137.3492
20
109.5116
0
VERTEX
8
CUT
10
137.0735
20
109.6921
0
VERTEX
8
CUT
10
136.9660
20
109.7755
0
VERTEX
8
CUT
10
136.9317
20
109.8010
0
VERTEX
8
CUT
10
136.9013
20
109.8224
0
VERTEX
8
CUT
10
136.8293
20
109.8686
0
VERTEX
8
CUT
10
136.7972
20
109.8872
0
VERTEX
8
CUT
10
136.7597
20
109.9078
0
VERTEX
8
CUT
10
136.6842
20
109.9471
0
VERTEX
8
CUT
10
136.2786
20
110.2127
0
VERTEX
8
CUT
10
136.2367
20
110.2386
0
VERTEX
8
CUT
10
136.1999
20
110.2601
0
VERTEX
8
CUT
10
136.1125
20
110.3052
0
VERTEX
8
CUT
10
136.0736
20
110.3227
0
VERTEX
8
CUT
10
136.0283
20
110.3418
0
VERTEX
8
CUT
10
135.6161
20
110.5030
0
VERTEX
8
CUT
10
135.5508
20
110.5369
0
VERTEX
8
CUT
10
135.5095
20
110.5571
0
VERTEX
8
CUT
10
135.4733
20
110.5738
0
VERTEX
8
CUT
10
135.3881
20
110.6082
0
VERTEX
8
CUT
10
135.3504
20
110.6213
0
VERTEX
8
CUT
10
135.3066
20
110.6353
0
VERTEX
8
CUT
10
135.1887
20
110.6700
0
VERTEX
8
CUT
10
134.8877
20
110.7876
0
VERTEX
8
CUT
10
134.8425
20
110.8040
0
VERTEX
8
CUT
10
134.8029
20
110.8172
0
VERTEX
8
CUT
10
134.7103
20
110.8430
0
VERTEX
8
CUT
10
134.6696
20
110.8521
0
VERTEX
8
CUT
10
134.6224
20
110.8614
0
VERTEX
8
CUT
10
134.4203
20
110.8962
0
VERTEX
8
CUT
10
133.9934
20
111.0218
0
VERTEX
8
CUT
10
133.9436
20
111.0350
0
VERTEX
8
CUT
10
133.9000
20
111.0453
0
VERTEX
8
CUT
10
133.7986
20
111.0635
0
VERTEX
8
CUT
10
133.7542
20
111.0690
0
VERTEX
8
CUT
10
133.7028
20
111.0739
0
VERTEX
8
CUT
10
132.3620
20
111.1665
0
VERTEX
8
CUT
10
132.3126
20
111.1686
0
VERTEX
8
CUT
10
132.2697
20
111.1693
0
VERTEX
8
CUT
10
132.1708
20
111.1658
0
VERTEX
8
CUT
10
132.1281
20
111.1621
0
VERTEX
8
CUT
10
132.0789
20
111.1565
0
VERTEX
8
CUT
10
130.7617
20
110.9715
0
VERTEX
8
CUT
10
130.7118
20
110.9632
0
VERTEX
8
CUT
10
130.6687
20
110.9548
0
VERTEX
8
CUT
10
130.5706
20
110.9301
0
VERTEX
8
CUT
10
130.5286
20
110.9172
0
VERTEX
8
CUT
10
130.4807
20
110.9010
0
VERTEX
8
CUT
10
130.3716
20
110.8608
0
VERTEX
8
CUT
10
130.2307
20
110.8373
0
VERTEX
8
CUT
10
130.1803
20
110.8275
0
VERTEX
8
CUT
10
130.1367
20
110.8178
0
VERTEX
8
CUT
10
130.0378
20
110.7901
0
VERTEX
8
CUT
10
130.0225
20
110.7849
0
VERTEX
8
CUT
10
129.9272
20
110.7466
0
VERTEX
8
CUT
10
129.8868
20
110.7278
0
VERTEX
8
CUT
10
129.8408
20
110.7048
0
VERTEX
8
CUT
10
129.6024
20
110.5777
0
VERTEX
8
CUT
10
129.1656
20
110.4169
0
VERTEX
8
CUT
10
129.1278
20
110.4021
0
VERTEX
8
CUT
10
129.0953
20
110.3885
0
VERTEX
8
CUT
10
129.0218
20
110.3540
0
VERTEX
8
CUT
10
129.0105
20
110.3481
0
VERTEX
8
CUT
10
128.9402
20
110.3075
0
VERTEX
8
CUT
10
128.9104
20
110.2886
0
VERTEX
8
CUT
10
128.8767
20
110.2661
0
VERTEX
8
CUT
10
128.4172
20
109.9454
0
VERTEX
8
CUT
10
128.2581
20
109.8606
0
VERTEX
8
CUT
10
128.2152
20
109.8363
0
VERTEX
8
CUT
10
128.1786
20
109.8142
0
VERTEX
8
CUT
10
128.0969
20
109.7591
0
VERTEX
8
CUT
10
128.0846
20
109.7498
0
VERTEX
8
CUT
10
128.0091
20
109.6865
0
VERTEX
8
CUT
10
127.9778
20
109.6573
0
VERTEX
8
CUT
10
127.9426
20
109.6228
0
VERTEX
8
CUT
10
127.9169
20
109.5964
0
VERTEX
8
CUT
10
127.4642
20
109.2804
0
VERTEX
8
CUT
10
127.4246
20
109.2513
0
VERTEX
8
CUT
10
127.3909
20
109.2251
0
VERTEX
8
CUT
10
127.3166
20
109.1608
0
VERTEX
8
CUT
10
127.2858
20
109.1312
0
VERTEX
8
CUT
10
127.2512
20
109.0963
0
VERTEX
8
CUT
10
126.5819
20
108.3841
0
VERTEX
8
CUT
10
126.5583
20
108.3581
0
VERTEX
8
CUT
10
126.5255
20
108.3205
0
VERTEX
8
CUT
10
126.5029
20
108.2936
0
VERTEX
8
CUT
10
125.8517
20
107.4890
0
VERTEX
8
CUT
10
125.8269
20
107.4570
0
VERTEX
8
CUT
10
125.8059
20
107.4287
0
VERTEX
8
CUT
10
125.7605
20
107.3616
0
VERTEX
8
CUT
10
125.7421
20
107.3316
0
VERTEX
8
CUT
10
125.7215
20
107.2967
0
VERTEX
8
CUT
10
124.8098
20
105.6655
0
VERTEX
8
CUT
10
124.7897
20
105.6274
0
VERTEX
8
CUT
10
124.7729
20
105.5939
0
VERTEX
8
CUT
10
124.7378
20
105.5151
0
VERTEX
8
CUT
10
124.7329
20
105.5024
0
VERTEX
8
CUT
10
124.7051
20
105.4208
0
VERTEX
8
CUT
10
124.6946
20
105.3848
0
VERTEX
8
CUT
10
124.6836
20
105.3431
0
VERTEX
8
CUT
10
124.3735
20
104.0594
0
VERTEX
8
CUT
10
124.3639
20
104.0154
0
VERTEX
8
CUT
10
124.3566
20
103.9771
0
VERTEX
8
CUT
10
124.3438
20
103.8881
0
VERTEX
8
CUT
10
124.3425
20
103.8740
0
VERTEX
8
CUT
10
124.3382
20
103.7842
0
VERTEX
8
CUT
10
124.3382
20
103.7701
0
VERTEX
8
CUT
10
124.3425
20
103.6803
0
VERTEX
8
CUT
10
124.3438
20
103.6662
0
VERTEX
8
CUT
10
124.3565
20
103.5772
0
VERTEX
8
CUT
10
124.3638
20
103.5388
0
VERTEX
8
CUT
10
124.3734
20
103.4949
0
VERTEX
8
CUT
10
124.4001
20
103.3839
0
VERTEX
8
CUT
10
124.3949
20
103.3547
0
VERTEX
8
CUT
10
124.3931
20
103.3407
0
VERTEX
8
CUT
10
124.3858
20
103.2513
0
VERTEX
8
CUT
10
124.3853
20
103.2372
0
VERTEX
8
CUT
10
124.3864
20
103.1476
0
VERTEX
8
CUT
10
124.3872
20
103.1335
0
VERTEX
8
CUT
10
124.3968
20
103.0444
0
VERTEX
8
CUT
10
124.3990
20
103.0305
0
VERTEX
8
CUT
10
124.4169
20
102.9427
0
VERTEX
8
CUT
10
124.4204
20
102.9290
0
VERTEX
8
CUT
10
124.4466
20
102.8433
0
VERTEX
8
CUT
10
124.4513
20
102.8300
0
VERTEX
8
CUT
10
124.4854
20
102.7471
0
VERTEX
8
CUT
10
124.5019
20
102.7118
0
VERTEX
8
CUT
10
124.5219
20
102.6717
0
VERTEX
8
CUT
10
124.6140
20
102.4967
0
VERTEX
8
CUT
10
124.7432
20
101.9613
0
VERTEX
8
CUT
10
124.7554
20
101.9156
0
VERTEX
8
CUT
10
124.7669
20
101.8764
0
VERTEX
8
CUT
10
124.7981
20
101.7873
0
VERTEX
8
CUT
10
124.8036
20
101.7735
0
VERTEX
8
CUT
10
124.8435
20
101.6879
0
VERTEX
8
CUT
10
124.8626
20
101.6517
0
VERTEX
8
CUT
10
124.8856
20
101.6105
0
VERTEX
8
CUT
10
125.9764
20
99.7698
0
VERTEX
8
CUT
10
125.9981
20
99.7350
0
VERTEX
8
CUT
10
126.0175
20
99.7053
0
VERTEX
8
CUT
10
126.0652
20
99.6386
0
VERTEX
8
CUT
10
126.0871
20
99.6107
0
VERTEX
8
CUT
10
126.1130
20
99.5789
0
VERTEX
8
CUT
10
126.2123
20
99.4629
0
VERTEX
8
CUT
10
126.2158
20
99.4561
0
VERTEX
8
CUT
10
126.2403
20
99.4126
0
VERTEX
8
CUT
10
126.2624
20
99.3754
0
VERTEX
8
CUT
10
126.3179
20
99.2926
0
VERTEX
8
CUT
10
126.3438
20
99.2580
0
VERTEX
8
CUT
10
126.3747
20
99.2188
0
VERTEX
8
CUT
10
127.0552
20
98.4027
0
VERTEX
8
CUT
10
127.0873
20
98.3662
0
VERTEX
8
CUT
10
127.1159
20
98.3352
0
VERTEX
8
CUT
10
127.1854
20
98.2674
0
VERTEX
8
CUT
10
127.2171
20
98.2395
0
VERTEX
8
CUT
10
127.2544
20
98.2083
0
VERTEX
8
CUT
10
127.9986
20
97.6175
0
VERTEX
8
CUT
10
128.0420
20
97.5849
0
VERTEX
8
CUT
10
128.0805
20
97.5578
0
VERTEX
8
CUT
10
128.1727
20
97.5005
0
VERTEX
8
CUT
10
128.2140
20
97.4779
0
VERTEX
8
CUT
10
128.2624
20
97.4533
0
VERTEX
8
CUT
10
128.5859
20
97.3001
0
VERTEX
8
CUT
10
129.5700
20
96.7029
0
VERTEX
8
CUT
10
129.6151
20
96.6772
0
VERTEX
8
CUT
10
129.6548
20
96.6560
0
VERTEX
8
CUT
10
129.7487
20
96.6122
0
VERTEX
8
CUT
10
129.7639
20
96.6061
0
VERTEX
8
CUT
10
129.8621
20
96.5728
0
VERTEX
8
CUT
10
129.9054
20
96.5607
0
VERTEX
8
CUT
10
129.9557
20
96.5481
0
VERTEX
8
CUT
10
130.9822
20
96.3212
0
VERTEX
8
CUT
10
131.0288
20
96.3121
0
VERTEX
8
CUT
10
131.0694
20
96.3052
0
VERTEX
8
CUT
10
131.1637
20
96.2941
0
VERTEX
8
CUT
10
131.2048
20
96.2913
0
VERTEX
8
CUT
10
131.2522
20
96.2893
0
VERTEX
8
CUT
10
131.3526
20
96.2875
0
VERTEX
8
CUT
10
131.6122
20
96.2337
0
VERTEX
8
CUT
10
131.6601
20
96.2251
0
VERTEX
8
CUT
10
131.7019
20
96.2186
0
VERTEX
8
CUT
10
131.7987
20
96.2088
0
VERTEX
8
CUT
10
131.8408
20
96.2066
0
VERTEX
8
CUT
10
131.8895
20
96.2054
0
VERTEX
8
CUT
10
133.0981
20
96.2064
0
VERTEX
8
CUT
10
133.1432
20
96.2075
0
VERTEX
8
CUT
10
133.1824
20
96.2094
0
VERTEX
8
CUT
10
133.2722
20
96.2181
0
VERTEX
8
CUT
10
133.2863
20
96.2201
0
VERTEX
8
CUT
10
133.3749
20
96.2372
0
VERTEX
8
CUT
10
133.4129
20
96.2465
0
VERTEX
8
CUT
10
133.4566
20
96.2582
0
VERTEX
8
CUT
10
133.7735
20
96.3514
0
VERTEX
8
CUT
10
134.4275
20
96.4163
0
VERTEX
8
CUT
10
134.4734
20
96.4220
0
VERTEX
8
CUT
10
134.5132
20
96.4279
0
VERTEX
8
CUT
10
134.6040
20
96.4460
0
VERTEX
8
CUT
10
134.6430
20
96.4557
0
VERTEX
8
CUT
10
134.6877
20
96.4681
0
VERTEX
8
CUT
10
135.6266
20
96.7524
0
VERTEX
8
CUT
10
135.6673
20
96.7657
0
VERTEX
8
CUT
10
135.7024
20
96.7781
0
VERTEX
8
CUT
10
135.7818
20
96.8102
0
VERTEX
8
CUT
10
135.7940
20
96.8158
0
VERTEX
8
CUT
10
135.8702
20
96.8549
0
VERTEX
8
CUT
10
135.8819
20
96.8616
0
VERTEX
8
CUT
10
135.9543
20
96.9074
0
VERTEX
8
CUT
10
135.9848
20
96.9287
0
VERTEX
8
CUT
10
136.0193
20
96.9541
0
VERTEX
8
CUT
10
136.7115
20
97.4856
0
VERTEX
8
CUT
10
137.2427
20
97.8372
0
VERTEX
8
CUT
10
137.2880
20
97.8691
0
VERTEX
8
CUT
10
137.3265
20
97.8979
0
VERTEX
8
CUT
10
137.4111
20
97.9694
0
VERTEX
8
CUT
10
137.4459
20
98.0025
0
VERTEX
8
CUT
10
137.4850
20
98.0418
0
VERTEX
8
CUT
10
137.6114
20
98.1769
0
VERTEX
8
CUT
10
137.9247
20
98.4174
0
VERTEX
8
CUT
10
137.9627
20
98.4482
0
VERTEX
8
CUT
10
137.9950
20
98.4758
0
VERTEX
8
CUT
10
138.0660
20
98.5430
0
VERTEX
8
CUT
10
138.0953
20
98.5738
0
VERTEX
8
CUT
10
138.1282
20
98.6101
0
VERTEX
8
CUT
10
138.7706
20
99.3580
0
VERTEX
8
CUT
10
139.1773
20
99.7584
0
VERTEX
8
CUT
10
139.2023
20
99.7839
0
VERTEX
8
CUT
10
139.2236
20
99.8065
0
VERTEX
8
CUT
10
139.2705
20
99.8603
0
VERTEX
8
CUT
10
139.2901
20
99.8844
0
VERTEX
8
CUT
10
139.3120
20
99.9126
0
VERTEX
8
CUT
10
139.7544
20
100.5034
0
VERTEX
8
CUT
10
140.0138
20
100.8053
0
VERTEX
8
CUT
10
140.0444
20
100.8429
0
VERTEX
8
CUT
10
140.0701
20
100.8761
0
VERTEX
8
CUT
10
140.1253
20
100.9555
0
SEQEND
0
POLYLINE
8
CUT
66
1
70
1
10
0.0
20
0.0
30
0.0
0
VERTEX
8
CUT
10
114.6396
20
167.3781
0
VERTEX
8
CUT
10
114.5480
20
167.3652
0
VERTEX
8
CUT
10
114.5337
20
167.3625
0
VERTEX
8
CUT
10
114.4438
20
167.3408
0
VERTEX
8
CUT
10
114.4298
20
167.3367
0
VERTEX
8
CUT
10
114.3424
20
167.3063
0
VERTEX
8
CUT
10
114.3289
20
167.3009
0
VERTEX
8
CUT
10
114.2449
20
167.2622
0
VERTEX
8
CUT
10
114.2320
20
167.2555
0
VERTEX
8
CUT
10
114.1522
20
167.2088
0
VERTEX
8
CUT
10
114.1400
20
167.2008
0
VERTEX
8
CUT
10
114.0651
20
167.1466
0
VERTEX
8
CUT
10
114.0537
20
167.1375
0
VERTEX
8
CUT
10
113.9845
20
167.0762
0
VERTEX
8
CUT
10
113.9740
20
167.0661
0
VERTEX
8
CUT
10
113.9111
20
166.9983
0
VERTEX
8
CUT
10
113.9017
20
166.9872
0
VERTEX
8
CUT
10
113.8456
20
166.9137
0
VERTEX
8
CUT
10
113.8373
20
166.9017
0
VERTEX
8
CUT
10
113.7886
20
166.8230
0
VERTEX
8
CUT
10
113.7816
20
166.8103
0
VERTEX
8
CUT
10
113.7408
20
166.7273
0
VERTEX
8
CUT
10
113.7350
20
166.7139
0
VERTEX
8
CUT
10
113.7025
20
166.6274
0
VERTEX
8
CUT
10
113.6981
20
166.6135
0
VERTEX
8
CUT
10
113.6741
20
166.5242
0
VERTEX
8
CUT
10
113.6710
20
166.5099
0
VERTEX
8
CUT
10
113.6559
20
166.4187
0
VERTEX
8
CUT
10
113.6542
20
166.4043
0
VERTEX
8
CUT
10
113.6480
20
166.3120
0
VERTEX
8
CUT
10
113.6478
20
166.2974
0
VERTEX
8
CUT
10
113.6506
20
166.2050
0
VERTEX
8
CUT
10
113.6517
20
166.1905
0
VERTEX
8
CUT
10
113.6635
20
166.0987
0
VERTEX
8
CUT
10
113.6661
20
166.0844
0
VERTEX
8
CUT
10
113.6868
20
165.9943
0
VERTEX
8
CUT
10
113.6907
20
165.9803
0
VERTEX
8
CUT
10
113.7201
20
165.8925
0
VERTEX
8
CUT
10
113.7253
20
165.8790
0
VERTEX
8
CUT
10
113.7631
20
165.7945
0
VERTEX
8
CUT
10
113.7697
20
165.7816
0
VERTEX
8
CUT
10
113.8154
20
165.7012
0
VERTEX
8
CUT
10
113.8232
20
165.6889
0
VERTEX
8
CUT
10
113.8766
20
165.6134
0
VERTEX
8
CUT
10
113.8856
20
165.6019
0
VERTEX
8
CUT
10
113.9461
20
165.5320
0
VERTEX
8
CUT
10
113.9561
20
165.5214
0
VERTEX
8
CUT
10
114.0231
20
165.4577
0
VERTEX
8
CUT
10
114.0341
20
165.4482
0
VERTEX
8
CUT
10
114.1070
20
165.3912
0
VERTEX
8
CUT
10
114.1189
20
165.3828
0
VERTEX
8
CUT
10
114.1970
20
165.3333
0
VERTEX
8
CUT
10
114.2319
20
165.3134
0
VERTEX
8
CUT
10
114.2727
20
165.2915
0
VERTEX
8
CUT
10
114.3087
20
165.2733
0
VERTEX
8
CUT
10
114.3207
20
165.2652
0
VERTEX
8
CUT
10
114.3557
20
165.2439
0
VERTEX
8
CUT
10
114.3967
20
165.2204
0
VERTEX
8
CUT
10
114.6891
20
165.0622
0
VERTEX
8
CUT
10
114.7268
20
165.0429
0
VERTEX
8
CUT
10
114.7811
20
165.0166
0
VERTEX
8
CUT
10
114.8196
20
164.9990
0
VERTEX
8
CUT
10
115.0308
20
164.9081
0
VERTEX
8
CUT
10
115.8714
20
164.4829
0
VERTEX
8
CUT
10
115.9125
20
164.4634
0
VERTEX
8
CUT
10
115.9715
20
164.4370
0
VERTEX
8
CUT
10
116.0134
20
164.4195
0
VERTEX
8
CUT
10
117.6612
20
163.7756
0
VERTEX
8
CUT
10
118.8425
20
163.2671
0
VERTEX
8
CUT
10
118.9056
20
163.2425
0
VERTEX
8
CUT
10
118.9964
20
163.2109
0
VERTEX
8
CUT
10
119.0611
20
163.1909
0
VERTEX
8
CUT
10
119.3744
20
163.1063
0
VERTEX
8
CUT
10
120.0730
20
162.8333
0
VERTEX
8
CUT
10
120.1075
20
162.8206
0
VERTEX
8
CUT
10
120.1376
20
162.8101
0
VERTEX
8
CUT
10
120.2080
20
162.7888
0
VERTEX
8
CUT
10
120.2388
20
162.7807
0
VERTEX
8
CUT
10
120.2746
20
162.7720
0
VERTEX
8
CUT
10
123.8506
20
161.9813
0
VERTEX
8
CUT
10
123.8974
20
161.9722
0
VERTEX
8
CUT
10
123.9382
20
161.9653
0
VERTEX
8
CUT
10
124.0328
20
161.9542
0
VERTEX
8
CUT
10
124.0741
20
161.9514
0
VERTEX
8
CUT
10
124.1218
20
161.9494
0
VERTEX
8
CUT
10
127.2757
20
161.8966
0
VERTEX
8
CUT
10
127.3155
20
161.8968
0
VERTEX
8
CUT
10
127.3501
20
161.8976
0
VERTEX
8
CUT
10
127.4294
20
161.9030
0
VERTEX
8
CUT
10
127.4638
20
161.9067
0
VERTEX
8
CUT
10
127.5033
20
161.9119
0
VERTEX
8
CUT
10
129.0093
20
162.1409
0
VERTEX
8
CUT
10
129.0474
20
162.1475
0
VERTEX
8
CUT
10
129.0804
20
162.1539
0
VERTEX
8
CUT
10
129.1556
20
162.1717
0
VERTEX
8
CUT
10
129.1879
20
162.1807
0
VERTEX
8
CUT
10
129.2250
20
162.1919
0
VERTEX
8
CUT
10
129.2318
20
162.1941
0
VERTEX
8
CUT
10
129.3052
20
162.2047
0
VERTEX
8
CUT
10
129.3480
20
162.2132
0
VERTEX
8
CUT
10
129.3971
20
162.2244
0
VERTEX
8
CUT
10
130.6701
20
162.5484
0
VERTEX
8
CUT
10
130.7249
20
162.5642
0
VERTEX
8
CUT
10
130.7720
20
162.5792
0
VERTEX
8
CUT
10
130.8782
20
162.6203
0
VERTEX
8
CUT
10
130.9232
20
162.6409
0
VERTEX
8
CUT
10
130.9743
20
162.6662
0
VERTEX
8
CUT
10
131.4230
20
162.9053
0
VERTEX
8
CUT
10
132.2384
20
163.1699
0
VERTEX
8
CUT
10
132.2831
20
163.1857
0
VERTEX
8
CUT
10
132.3215
20
163.2003
0
VERTEX
8
CUT
10
132.4081
20
163.2383
0
VERTEX
8
CUT
10
132.4214
20
163.2449
0
VERTEX
8
CUT
10
132.5039
20
163.2914
0
VERTEX
8
CUT
10
132.5386
20
163.3133
0
VERTEX
8
CUT
10
132.5780
20
163.3396
0
VERTEX
8
CUT
10
135.1500
20
165.1486
0
VERTEX
8
CUT
10
135.1870
20
165.1760
0
VERTEX
8
CUT
10
135.2186
20
165.2006
0
VERTEX
8
CUT
10
135.2884
20
165.2606
0
VERTEX
8
CUT
10
135.3175
20
165.2881
0
VERTEX
8
CUT
10
135.3501
20
165.3206
0
VERTEX
8
CUT
10
136.4907
20
166.5119
0
VERTEX
8
CUT
10
136.5205
20
166.5445
0
VERTEX
8
CUT
10
136.5457
20
166.5734
0
VERTEX
8
CUT
10
136.6005
20
166.6424
0
VERTEX
8
CUT
10
136.6229
20
166.6735
0
VERTEX
8
CUT
10
136.6478
20
166.7099
0
VERTEX
8
CUT
10
137.6329
20
168.2206
0
VERTEX
8
CUT
10
138.0955
20
168.8359
0
VERTEX
8
CUT
10
138.1186
20
168.8680
0
VERTEX
8
CUT
10
138.1381
20
168.8963
0
VERTEX
8
CUT
10
138.1802
20
168.9633
0
VERTEX
8
CUT
10
138.1973
20
168.9931
0
VERTEX
8
CUT
10
138.2162
20
169.0278
0
VERTEX
8
CUT
10
138.4363
20
169.4526
0
VERTEX
8
CUT
10
138.6474
20
169.7764
0
VERTEX
8
CUT
10
138.6685
20
169.8103
0
VERTEX
8
CUT
10
138.6862
20
169.8400
0
VERTEX
8
CUT
10
138.7240
20
169.9102
0
VERTEX
8
CUT
10
138.7391
20
169.9414
0
VERTEX
8
CUT
10
138.7557
20
169.9776
0
VERTEX
8
CUT
10
139.5157
20
171.7271
0
VERTEX
8
CUT
10
139.5336
20
171.7713
0
VERTEX
8
CUT
10
139.5574
20
171.8347
0
VERTEX
8
CUT
10
139.5731
20
171.8797
0
VERTEX
8
CUT
10
140.1881
20
173.8039
0
VERTEX
8
CUT
10
140.2062
20
173.8683
0
VERTEX
8
CUT
10
140.2287
20
173.9606
0
VERTEX
8
CUT
10
140.2422
20
174.0261
0
VERTEX
8
CUT
10
140.6328
20
176.3227
0
VERTEX
8
CUT
10
140.6407
20
176.3797
0
VERTEX
8
CUT
10
140.6495
20
176.4610
0
VERTEX
8
CUT
10
140.6539
20
176.5184
0
VERTEX
8
CUT
10
140.8783
20
181.2722
0
VERTEX
8
CUT
10
140.8793
20
181.3205
0
VERTEX
8
CUT
10
140.8791
20
181.3890
0
VERTEX
8
CUT
10
140.8777
20
181.4373
0
VERTEX
8
CUT
10
140.7122
20
184.4713
0
VERTEX
8
CUT
10
140.7077
20
184.5251
0
VERTEX
8
CUT
10
140.6992
20
184.6014
0
VERTEX
8
CUT
10
140.6917
20
184.6549
0
VERTEX
8
CUT
10
140.1394
20
187.9059
0
VERTEX
8
CUT
10
140.1309
20
187.9496
0
VERTEX
8
CUT
10
140.1175
20
188.0113
0
VERTEX
8
CUT
10
140.1069
20
188.0546
0
VERTEX
8
CUT
10
139.0828
20
191.8747
0
VERTEX
8
CUT
10
139.0660
20
191.9302
0
VERTEX
8
CUT
10
139.0399
20
192.0083
0
VERTEX
8
CUT
10
139.0198
20
192.0627
0
VERTEX
8
CUT
10
136.3675
20
198.6249
0
VERTEX
8
CUT
10
136.3554
20
198.6535
0
VERTEX
8
CUT
10
136.3376
20
198.6937
0
VERTEX
8
CUT
10
136.3246
20
198.7218
0
VERTEX
8
CUT
10
130.0409
20
211.7526
0
VERTEX
8
CUT
10
129.9618
20
211.9391
0
VERTEX
8
CUT
10
128.8953
20
214.8352
0
VERTEX
8
CUT
10
128.8782
20
214.8785
0
VERTEX
8
CUT
10
128.8624
20
214.9156
0
VERTEX
8
CUT
10
128.8219
20
214.9992
0
VERTEX
8
CUT
10
128.8149
20
215.0121
0
VERTEX
8
CUT
10
128.7664
20
215.0914
0
VERTEX
8
CUT
10
128.7582
20
215.1035
0
VERTEX
8
CUT
10
128.7022
20
215.1776
0
VERTEX
8
CUT
10
128.6928
20
215.1888
0
VERTEX
8
CUT
10
128.6299
20
215.2572
0
VERTEX
8
CUT
10
128.6194
20
215.2674
0
VERTEX
8
CUT
10
128.5501
20
215.3293
0
VERTEX
8
CUT
10
128.5387
20
215.3385
0
VERTEX
8
CUT
10
128.4636
20
215.3933
0
VERTEX
8
CUT
10
128.4514
20
215.4013
0
VERTEX
8
CUT
10
128.3714
20
215.4485
0
VERTEX
8
CUT
10
128.3584
20
215.4553
0
VERTEX
8
CUT
10
128.2741
20
215.4944
0
VERTEX
8
CUT
10
128.2606
20
215.4999
0
VERTEX
8
CUT
10
128.1729
20
215.5306
0
VERTEX
8
CUT
10
128.1588
20
215.5347
0
VERTEX
8
CUT
10
128.0685
20
215.5567
0
VERTEX
8
CUT
10
128.0542
20
215.5595
0
VERTEX
8
CUT
10
127.9622
20
215.5725
0
VERTEX
8
CUT
10
127.9476
20
215.5738
0
VERTEX
8
CUT
10
127.8548
20
215.5778
0
VERTEX
8
CUT
10
127.8401
20
215.5777
0
VERTEX
8
CUT
10
127.7474
20
215.5726
0
VERTEX
8
CUT
10
127.7328
20
215.5711
0
VERTEX
8
CUT
10
127.6410
20
215.5569
0
VERTEX
8
CUT
10
127.6266
20
215.5540
0
VERTEX
8
CUT
10
127.5366
20
215.5309
0
VERTEX
8
CUT
10
127.5227
20
215.5266
0
VERTEX
8
CUT
10
127.4353
20
215.4948
0
VERTEX
8
CUT
10
127.4218
20
215.4892
0
VERTEX
8
CUT
10
127.3380
20
215.4490
0
VERTEX
8
CUT
10
127.3252
20
215.4421
0
VERTEX
8
CUT
10
127.2457
20
215.3939
0
VERTEX
8
CUT
10
127.2336
20
215.3857
0
VERTEX
8
CUT
10
127.1592
20
215.3300
0
VERTEX
8
CUT
10
127.1479
20
215.3207
0
VERTEX
8
CUT
10
127.0793
20
215.2580
0
VERTEX
8
CUT
10
127.0690
20
215.2476
0
VERTEX
8
CUT
10
127.0069
20
215.1785
0
VERTEX
8
CUT
10
126.9977
20
215.1672
0
VERTEX
8
CUT
10
126.9426
20
215.0923
0
VERTEX
8
CUT
10
126.9345
20
215.0801
0
VERTEX
8
CUT
10
126.8870
20
215.0003
0
VERTEX
8
CUT
10
126.8802
20
214.9874
0
VERTEX
8
CUT
10
126.8407
20
214.9032
0
VERTEX
8
CUT
10
126.8352
20
214.8897
0
VERTEX
8
CUT
10
126.8041
20
214.8021
0
VERTEX
8
CUT
10
126.7999
20
214.7881
0
VERTEX
8
CUT
10
126.7776
20
214.6979
0
VERTEX
8
CUT
10
126.7748
20
214.6835
0
VERTEX
8
CUT
10
126.7614
20
214.5916
0
VERTEX
8
CUT
10
126.7550
20
214.5258
0
VERTEX
8
CUT
10
126.7541
20
214.5259
0
VERTEX
8
CUT
10
126.7326
20
214.3492
0
VERTEX
8
CUT
10
126.6869
20
214.1454
0
VERTEX
8
CUT
10
126.6212
20
213.9471
0
VERTEX
8
CUT
10
126.5361
20
213.7563
0
VERTEX
8
CUT
10
126.4324
20
213.5749
0
VERTEX
8
CUT
10
126.3112
20
213.4047
0
VERTEX
8
CUT
10
126.1738
20
213.2474
0
VERTEX
8
CUT
10
126.0214
20
213.1045
0
VERTEX
8
CUT
10
125.8555
20
212.9775
0
VERTEX
8
CUT
10
125.6778
20
212.8676
0
VERTEX
8
CUT
10
125.4901
20
212.7759
0
VERTEX
8
CUT
10
125.2942
20
212.7033
0
VERTEX
8
CUT
10
125.0921
20
212.6505
0
VERTEX
8
CUT
10
124.8857
20
212.6181
0
VERTEX
8
CUT
10
124.6771
20
212.6063
0
VERTEX
8
CUT
10
124.4684
20
212.6153
0
VERTEX
8
CUT
10
124.2616
20
212.6450
0
VERTEX
8
CUT
10
124.0588
20
212.6951
0
VERTEX
8
CUT
10
123.8620
20
212.7651
0
VERTEX
8
CUT
10
123.8103
20
212.7864
0
VERTEX
8
CUT
10
123.6242
20
212.8742
0
VERTEX
8
CUT
10
123.4476
20
212.9797
0
VERTEX
8
CUT
10
122.2740
20
213.7612
0
VERTEX
8
CUT
10
122.0336
20
213.9477
0
VERTEX
8
CUT
10
120.5507
20
215.2815
0
VERTEX
8
CUT
10
120.4155
20
215.4147
0
VERTEX
8
CUT
10
120.2928
20
215.5595
0
VERTEX
8
CUT
10
118.6972
20
217.6261
0
VERTEX
8
CUT
10
118.5486
20
217.8461
0
VERTEX
8
CUT
10
117.8702
20
219.0014
0
VERTEX
8
CUT
10
117.7370
20
219.2705
0
VERTEX
8
CUT
10
115.8835
20
223.8077
0
VERTEX
8
CUT
10
115.8285
20
223.9583
0
VERTEX
8
CUT
10
115.7853
20
224.1127
0
VERTEX
8
CUT
10
114.8738
20
227.9180
0
VERTEX
8
CUT
10
114.8328
20
228.1417
0
VERTEX
8
CUT
10
114.6271
20
229.7562
0
VERTEX
8
CUT
10
114.6201
20
229.8018
0
VERTEX
8
CUT
10
114.6132
20
229.8411
0
VERTEX
8
CUT
10
114.5928
20
229.9308
0
VERTEX
8
CUT
10
114.5889
20
229.9448
0
VERTEX
8
CUT
10
114.5598
20
230.0321
0
VERTEX
8
CUT
10
114.5546
20
230.0456
0
VERTEX
8
CUT
10
114.5173
20
230.1297
0
VERTEX
8
CUT
10
114.5108
20
230.1427
0
VERTEX
8
CUT
10
114.4655
20
230.2228
0
VERTEX
8
CUT
10
114.4577
20
230.2350
0
VERTEX
8
CUT
10
114.4049
20
230.3104
0
VERTEX
8
CUT
10
114.3960
20
230.3218
0
VERTEX
8
CUT
10
114.3361
20
230.3917
0
VERTEX
8
CUT
10
114.3262
20
230.4022
0
VERTEX
8
CUT
10
114.2598
20
230.4660
0
VERTEX
8
CUT
10
114.2489
20
230.4755
0
VERTEX
8
CUT
10
114.1767
20
230.5325
0
VERTEX
8
CUT
10
114.1649
20
230.5409
0
VERTEX
8
CUT
10
114.0874
20
230.5907
0
VERTEX
8
CUT
10
114.0749
20
230.5979
0
VERTEX
8
CUT
10
113.9930
20
230.6399
0
VERTEX
8
CUT
10
113.9798
20
230.6459
0
VERTEX
8
CUT
10
113.8943
20
230.6798
0
VERTEX
8
CUT
10
113.8806
20
230.6845
0
VERTEX
8
CUT
10
113.7921
20
230.7099
0
VERTEX
8
CUT
10
113.7780
20
230.7133
0
VERTEX
8
CUT
10
113.6876
20
230.7301
0
VERTEX
8
CUT
10
113.6732
20
230.7320
0
VERTEX
8
CUT
10
113.5815
20
230.7399
0
VERTEX
8
CUT
10
113.5670
20
230.7405
0
VERTEX
8
CUT
10
113.4750
20
230.7395
0
VERTEX
8
CUT
10
113.4606
20
230.7387
0
VERTEX
8
CUT
10
113.3691
20
230.7288
0
VERTEX
8
CUT
10
113.3548
20
230.7265
0
VERTEX
8
CUT
10
113.2647
20
230.7078
0
VERTEX
8
CUT
10
113.2506
20
230.7042
0
VERTEX
8
CUT
10
113.1628
20
230.6769
0
VERTEX
8
CUT
10
113.1492
20
230.6719
0
VERTEX
8
CUT
10
113.0643
20
230.6362
0
VERTEX
8
CUT
10
113.0513
20
230.6299
0
VERTEX
8
CUT
10
112.9703
20
230.5862
0
VERTEX
8
CUT
10
112.9579
20
230.5787
0
VERTEX
8
CUT
10
112.8816
20
230.5273
0
VERTEX
8
CUT
10
112.8700
20
230.5186
0
VERTEX
8
CUT
10
112.7990
20
230.4601
0
VERTEX
8
CUT
10
112.7882
20
230.4504
0
VERTEX
8
CUT
10
112.7232
20
230.3852
0
VERTEX
8
CUT
10
112.7135
20
230.3745
0
VERTEX
8
CUT
10
112.6551
20
230.3034
0
VERTEX
8
CUT
10
112.6465
20
230.2917
0
VERTEX
8
CUT
10
112.5952
20
230.2153
0
VERTEX
8
CUT
10
112.5878
20
230.2029
0
VERTEX
8
CUT
10
112.5442
20
230.1218
0
VERTEX
8
CUT
10
112.5379
20
230.1088
0
VERTEX
8
CUT
10
112.5024
20
230.0239
0
VERTEX
8
CUT
10
112.4975
20
230.0103
0
VERTEX
8
CUT
10
112.4703
20
229.9223
0
VERTEX
8
CUT
10
112.4667
20
229.9083
0
VERTEX
8
CUT
10
112.4482
20
229.8181
0
VERTEX
8
CUT
10
112.4460
20
229.8038
0
VERTEX
8
CUT
10
112.4363
20
229.7123
0
VERTEX
8
CUT
10
112.4340
20
229.6724
0
VERTEX
8
CUT
10
112.4325
20
229.6264
0
VERTEX
8
CUT
10
112.4156
20
227.6597
0
VERTEX
8
CUT
10
112.4171
20
227.5972
0
VERTEX
8
CUT
10
112.4222
20
227.5086
0
VERTEX
8
CUT
10
112.4278
20
227.4464
0
VERTEX
8
CUT
10
112.6939
20
225.2951
0
VERTEX
8
CUT
10
112.7046
20
225.2280
0
VERTEX
8
CUT
10
112.7233
20
225.1332
0
VERTEX
8
CUT
10
112.7388
20
225.0670
0
VERTEX
8
CUT
10
113.9283
20
220.7071
0
VERTEX
8
CUT
10
113.9458
20
220.6501
0
VERTEX
8
CUT
10
113.9732
20
220.5699
0
VERTEX
8
CUT
10
113.9942
20
220.5141
0
VERTEX
8
CUT
10
114.8820
20
218.3664
0
VERTEX
8
CUT
10
114.9005
20
218.3246
0
VERTEX
8
CUT
10
114.9282
20
218.2658
0
VERTEX
8
CUT
10
114.9486
20
218.2249
0
VERTEX
8
CUT
10
116.1198
20
216.0202
0
VERTEX
8
CUT
10
116.1415
20
215.9817
0
VERTEX
8
CUT
10
116.1735
20
215.9276
0
VERTEX
8
CUT
10
116.1969
20
215.8901
0
VERTEX
8
CUT
10
119.4656
20
210.9164
0
VERTEX
8
CUT
10
119.4814
20
210.8931
0
VERTEX
8
CUT
10
119.5042
20
210.8605
0
VERTEX
8
CUT
10
119.5207
20
210.8377
0
VERTEX
8
CUT
10
126.4662
20
201.5188
0
VERTEX
8
CUT
10
126.5670
20
201.3708
0
VERTEX
8
CUT
10
128.3004
20
198.5762
0
VERTEX
8
CUT
10
128.3823
20
198.4316
0
VERTEX
8
CUT
10
129.7604
20
195.7588
0
VERTEX
8
CUT
10
129.8428
20
195.5786
0
VERTEX
8
CUT
10
130.8582
20
193.0482
0
VERTEX
8
CUT
10
130.9285
20
192.8430
0
VERTEX
8
CUT
10
131.6289
20
190.3917
0
VERTEX
8
CUT
10
131.6752
20
190.1938
0
VERTEX
8
CUT
10
132.1428
20
187.6459
0
VERTEX
8
CUT
10
132.1702
20
187.4392
0
VERTEX
8
CUT
10
132.3919
20
184.7459
0
VERTEX
8
CUT
10
132.3982
20
184.5162
0
VERTEX
8
CUT
10
132.3123
20
181.3704
0
VERTEX
8
CUT
10
132.2828
20
181.0723
0
VERTEX
8
CUT
10
131.8052
20
178.2913
0
VERTEX
8
CUT
10
131.7716
20
178.1326
0
VERTEX
8
CUT
10
131.7258
20
177.9770
0
VERTEX
8
CUT
10
130.8948
20
175.5073
0
VERTEX
8
CUT
10
130.8267
20
175.3314
0
VERTEX
8
CUT
10
130.7430
20
175.1623
0
VERTEX
8
CUT
10
129.5641
20
173.0262
0
VERTEX
8
CUT
10
129.4577
20
172.8536
0
VERTEX
8
CUT
10
129.3350
20
172.6920
0
VERTEX
8
CUT
10
127.8585
20
170.9301
0
VERTEX
8
CUT
10
127.7038
20
170.7647
0
VERTEX
8
CUT
10
127.5323
20
170.6168
0
VERTEX
8
CUT
10
125.7238
20
169.2206
0
VERTEX
8
CUT
10
125.5519
20
169.1010
0
VERTEX
8
CUT
10
125.3689
20
168.9992
0
VERTEX
8
CUT
10
123.3938
20
168.0256
0
VERTEX
8
CUT
10
123.2315
20
167.9540
0
VERTEX
8
CUT
10
123.0637
20
167.8963
0
VERTEX
8
CUT
10
122.8917
20
167.8529
0
VERTEX
8
CUT
10
119.6650
20
167.1838
0
VERTEX
8
CUT
10
119.4855
20
167.1546
0
VERTEX
8
CUT
10
119.3040
20
167.1410
0
VERTEX
8
CUT
10
119.1221
20
167.1432
0
VERTEX
8
CUT
10
114.8329
20
167.3816
0
VERTEX
8
CUT
10
114.7866
20
167.3830
0
VERTEX
8
CUT
10
114.7465
20
167.3833
0
VERTEX
8
CUT
10
114.6540
20
167.3794
0
SEQEND
0
POLYLINE
8
CUT
66
1
70
1
10
0.0
20
0.0
30
0.0
0
VERTEX
8
CUT
10
98.1957
20
42.8147
0
VERTEX
8
CUT
10
98.1862
20
42.8260
0
VERTEX
8
CUT
10
98.1226
20
42.8944
0
VERTEX
8
CUT
10
98.1121
20
42.9046
0
VERTEX
8
CUT
10
98.0420
20
42.9664
0
VERTEX
8
CUT
10
98.0305
20
42.9756
0
VERTEX
8
CUT
10
97.9547
20
43.0302
0
VERTEX
8
CUT
10
97.9424
20
43.0382
0
VERTEX
8
CUT
10
97.8616
20
43.0851
0
VERTEX
8
CUT
10
97.8485
20
43.0919
0
VERTEX
8
CUT
10
97.7635
20
43.1306
0
VERTEX
8
CUT
10
97.7499
20
43.1360
0
VERTEX
8
CUT
10
97.6615
20
43.1662
0
VERTEX
8
CUT
10
97.6473
20
43.1703
0
VERTEX
8
CUT
10
97.5564
20
43.1916
0
VERTEX
8
CUT
10
97.5419
20
43.1943
0
VERTEX
8
CUT
10
97.4493
20
43.2066
0
VERTEX
8
CUT
10
97.4347
20
43.2078
0
VERTEX
8
CUT
10
97.3413
20
43.2110
0
VERTEX
8
CUT
10
97.3266
20
43.2107
0
VERTEX
8
CUT
10
97.2334
20
43.2047
0
VERTEX
8
CUT
10
97.2188
20
43.2030
0
VERTEX
8
CUT
10
97.1266
20
43.1879
0
VERTEX
8
CUT
10
97.1122
20
43.1848
0
VERTEX
8
CUT
10
97.0220
20
43.1606
0
VERTEX
8
CUT
10
97.0080
20
43.1561
0
VERTEX
8
CUT
10
96.9206
20
43.1232
0
VERTEX
8
CUT
10
96.9071
20
43.1174
0
VERTEX
8
CUT
10
96.8233
20
43.0760
0
VERTEX
8
CUT
10
96.8105
20
43.0689
0
VERTEX
8
CUT
10
96.7312
20
43.0195
0
VERTEX
8
CUT
10
96.7191
20
43.0111
0
VERTEX
8
CUT
10
96.6450
20
42.9542
0
VERTEX
8
CUT
10
96.6338
20
42.9447
0
VERTEX
8
CUT
10
96.5657
20
42.8807
0
VERTEX
8
CUT
10
96.5555
20
42.8702
0
VERTEX
8
CUT
10
96.4940
20
42.7999
0
VERTEX
8
CUT
10
96.4849
20
42.7883
0
VERTEX
8
CUT
10
96.4306
20
42.7123
0
VERTEX
8
CUT
10
96.4226
20
42.6999
0
VERTEX
8
CUT
10
96.3761
20
42.6189
0
VERTEX
8
CUT
10
96.3694
20
42.6059
0
VERTEX
8
CUT
10
96.3310
20
42.5207
0
VERTEX
8
CUT
10
96.3256
20
42.5070
0
VERTEX
8
CUT
10
96.2958
20
42.4185
0
VERTEX
8
CUT
10
96.2918
20
42.4043
0
VERTEX
8
CUT
10
96.2709
20
42.3133
0
VERTEX
8
CUT
10
96.2683
20
42.2988
0
VERTEX
8
CUT
10
96.2564
20
42.2062
0
VERTEX
8
CUT
10
96.2552
20
42.1915
0
VERTEX
8
CUT
10
96.2524
20
42.0981
0
VERTEX
8
CUT
10
96.2532
20
42.0576
0
VERTEX
8
CUT
10
96.2553
20
42.0109
0
VERTEX
8
CUT
10
96.3300
20
40.9291
0
VERTEX
8
CUT
10
96.3354
20
40.8746
0
VERTEX
8
CUT
10
96.3414
20
40.8275
0
VERTEX
8
CUT
10
96.3614
20
40.7199
0
VERTEX
8
CUT
10
96.3728
20
40.6738
0
VERTEX
8
CUT
10
96.3874
20
40.6211
0
VERTEX
8
CUT
10
96.5822
20
39.9906
0
VERTEX
8
CUT
10
96.5972
20
39.9460
0
VERTEX
8
CUT
10
96.6112
20
39.9076
0
VERTEX
8
CUT
10
96.6477
20
39.8210
0
VERTEX
8
CUT
10
96.6653
20
39.7842
0
VERTEX
8
CUT
10
96.6868
20
39.7423
0
VERTEX
8
CUT
10
97.2636
20
38.6809
0
VERTEX
8
CUT
10
97.2858
20
38.6421
0
VERTEX
8
CUT
10
97.3059
20
38.6090
0
VERTEX
8
CUT
10
97.3557
20
38.5349
0
VERTEX
8
CUT
10
97.3788
20
38.5038
0
VERTEX
8
CUT
10
97.4063
20
38.4686
0
VERTEX
8
CUT
10
98.1018
20
37.6187
0
VERTEX
8
CUT
10
98.1347
20
37.5807
0
VERTEX
8
CUT
10
98.1640
20
37.5485
0
VERTEX
8
CUT
10
98.2354
20
37.4779
0
VERTEX
8
CUT
10
98.2680
20
37.4490
0
VERTEX
8
CUT
10
98.3064
20
37.4166
0
VERTEX
8
CUT
10
99.1759
20
36.7230
0
VERTEX
8
CUT
10
99.2139
20
36.6943
0
VERTEX
8
CUT
10
99.2474
20
36.6702
0
VERTEX
8
CUT
10
99.3273
20
36.6186
0
VERTEX
8
CUT
10
99.3631
20
36.5980
0
VERTEX
8
CUT
10
99.4049
20
36.5753
0
VERTEX
8
CUT
10
100.3661
20
36.0835
0
VERTEX
8
CUT
10
100.4084
20
36.0632
0
VERTEX
8
CUT
10
100.4456
20
36.0464
0
VERTEX
8
CUT
10
100.5329
20
36.0122
0
VERTEX
8
CUT
10
100.5714
20
35.9992
0
VERTEX
8
CUT
10
100.6163
20
35.9853
0
VERTEX
8
CUT
10
101.6319
20
35.6985
0
VERTEX
8
CUT
10
101.6805
20
35.6862
0
VERTEX
8
CUT
10
101.7229
20
35.6766
0
VERTEX
8
CUT
10
101.8216
20
35.6597
0
VERTEX
8
CUT
10
101.8648
20
35.6546
0
VERTEX
8
CUT
10
101.9147
20
35.6501
0
VERTEX
8
CUT
10
102.9528
20
35.5835
0
VERTEX
8
CUT
10
102.9962
20
35.5817
0
VERTEX
8
CUT
10
103.0340
20
35.5810
0
VERTEX
8
CUT
10
103.1208
20
35.5834
0
VERTEX
8
CUT
10
103.1584
20
35.5862
0
VERTEX
8
CUT
10
103.2017
20
35.5903
0
VERTEX
8
CUT
10
104.3258
20
35.7248
0
VERTEX
8
CUT
10
104.3801
20
35.7329
0
VERTEX
8
CUT
10
104.4269
20
35.7413
0
VERTEX
8
CUT
10
104.5336
20
35.7668
0
VERTEX
8
CUT
10
104.5792
20
35.7805
0
VERTEX
8
CUT
10
104.6313
20
35.7978
0
VERTEX
8
CUT
10
104.9257
20
35.9054
0
VERTEX
8
CUT
10
105.0268
20
35.9259
0
VERTEX
8
CUT
10
105.0794
20
35.9382
0
VERTEX
8
CUT
10
105.1247
20
35.9502
0
VERTEX
8
CUT
10
105.2274
20
35.9836
0
VERTEX
8
CUT
10
105.2432
20
35.9897
0
VERTEX
8
CUT
10
105.3414
20
36.0346
0
VERTEX
8
CUT
10
105.3829
20
36.0564
0
VERTEX
8
CUT
10
105.4300
20
36.0830
0
VERTEX
8
CUT
10
105.4578
20
36.0998
0
VERTEX
8
CUT
10
105.6895
20
36.1844
0
VERTEX
8
CUT
10
105.7336
20
36.2018
0
VERTEX
8
CUT
10
105.7716
20
36.2179
0
VERTEX
8
CUT
10
105.8570
20
36.2591
0
VERTEX
8
CUT
10
105.8932
20
36.2789
0
VERTEX
8
CUT
10
105.9342
20
36.3027
0
VERTEX
8
CUT
10
107.1917
20
37.0741
0
VERTEX
8
CUT
10
107.2248
20
37.0954
0
VERTEX
8
CUT
10
107.2531
20
37.1144
0
VERTEX
8
CUT
10
107.3165
20
37.1609
0
VERTEX
8
CUT
10
107.3261
20
37.1686
0
VERTEX
8
CUT
10
107.3854
20
37.2202
0
VERTEX
8
CUT
10
107.4102
20
37.2436
0
VERTEX
8
CUT
10
107.4382
20
37.2712
0
VERTEX
8
CUT
10
108.3191
20
38.1757
0
VERTEX
8
CUT
10
108.3572
20
38.2173
0
VERTEX
8
CUT
10
108.3892
20
38.2543
0
VERTEX
8
CUT
10
108.4576
20
38.3437
0
VERTEX
8
CUT
10
108.4850
20
38.3842
0
VERTEX
8
CUT
10
108.5152
20
38.4319
0
VERTEX
8
CUT
10
109.1663
20
39.5315
0
VERTEX
8
CUT
10
109.1921
20
39.5780
0
VERTEX
8
CUT
10
109.2133
20
39.6190
0
VERTEX
8
CUT
10
109.2569
20
39.7160
0
VERTEX
8
CUT
10
109.2735
20
39.7591
0
VERTEX
8
CUT
10
109.2911
20
39.8093
0
VERTEX
8
CUT
10
109.6746
20
41.0047
0
VERTEX
8
CUT
10
109.6892
20
41.0549
0
VERTEX
8
CUT
10
109.7007
20
41.0987
0
VERTEX
8
CUT
10
109.7214
20
41.2008
0
VERTEX
8
CUT
10
109.7280
20
41.2456
0
VERTEX
8
CUT
10
109.7341
20
41.2975
0
VERTEX
8
CUT
10
109.8440
20
42.5068
0
VERTEX
8
CUT
10
109.8467
20
42.5458
0
VERTEX
8
CUT
10
109.8484
20
42.5796
0
VERTEX
8
CUT
10
109.8491
20
42.6576
0
VERTEX
8
CUT
10
109.8487
20
42.6699
0
VERTEX
8
CUT
10
109.8429
20
42.7477
0
VERTEX
8
CUT
10
109.8390
20
42.7814
0
VERTEX
8
CUT
10
109.8338
20
42.8201
0
VERTEX
8
CUT
10
109.8148
20
42.9403
0
VERTEX
8
CUT
10
109.8064
20
42.9865
0
VERTEX
8
CUT
10
109.7981
20
43.0264
0
VERTEX
8
CUT
10
109.7744
20
43.1172
0
VERTEX
8
CUT
10
109.7700
20
43.1312
0
VERTEX
8
CUT
10
109.7375
20
43.2193
0
VERTEX
8
CUT
10
109.7317
20
43.2328
0
VERTEX
8
CUT
10
109.6907
20
43.3172
0
VERTEX
8
CUT
10
109.6836
20
43.3301
0
VERTEX
8
CUT
10
109.6345
20
43.4100
0
VERTEX
8
CUT
10
109.6261
20
43.4222
0
VERTEX
8
CUT
10
109.5693
20
43.4969
0
VERTEX
8
CUT
10
109.5598
20
43.5082
0
VERTEX
8
CUT
10
109.4959
20
43.5769
0
VERTEX
8
CUT
10
109.4854
20
43.5872
0
VERTEX
8
CUT
10
109.4150
20
43.6492
0
VERTEX
8
CUT
10
109.4035
20
43.6584
0
VERTEX
8
CUT
10
109.3273
20
43.7132
0
VERTEX
8
CUT
10
109.3149
20
43.7213
0
VERTEX
8
CUT
10
109.2338
20
43.7683
0
VERTEX
8
CUT
10
109.2206
20
43.7750
0
VERTEX
8
CUT
10
109.1352
20
43.8138
0
VERTEX
8
CUT
10
109.1215
20
43.8193
0
VERTEX
8
CUT
10
109.0327
20
43.8494
0
VERTEX
8
CUT
10
109.0185
20
43.8535
0
VERTEX
8
CUT
10
108.9271
20
43.8747
0
VERTEX
8
CUT
10
108.9126
20
43.8774
0
VERTEX
8
CUT
10
108.8195
20
43.8895
0
VERTEX
8
CUT
10
108.8048
20
43.8907
0
VERTEX
8
CUT
10
108.7111
20
43.8936
0
VERTEX
8
CUT
10
108.6963
20
43.8933
0
VERTEX
8
CUT
10
108.6027
20
43.8869
0
VERTEX
8
CUT
10
108.5881
20
43.8852
0
VERTEX
8
CUT
10
108.4955
20
43.8696
0
VERTEX
8
CUT
10
108.4811
20
43.8664
0
VERTEX
8
CUT
10
108.3906
20
43.8418
0
VERTEX
8
CUT
10
108.3766
20
43.8372
0
VERTEX
8
CUT
10
108.2889
20
43.8037
0
VERTEX
8
CUT
10
108.2754
20
43.7978
0
VERTEX
8
CUT
10
108.1915
20
43.7559
0
VERTEX
8
CUT
10
108.1786
20
43.7486
0
VERTEX
8
CUT
10
108.0993
20
43.6986
0
VERTEX
8
CUT
10
108.0872
20
43.6901
0
VERTEX
8
CUT
10
108.0132
20
43.6325
0
VERTEX
8
CUT
10
108.0020
20
43.6229
0
VERTEX
8
CUT
10
107.9340
20
43.5583
0
VERTEX
8
CUT
10
107.9238
20
43.5476
0
VERTEX
8
CUT
10
107.8625
20
43.4765
0
VERTEX
8
CUT
10
107.8534
20
43.4649
0
VERTEX
8
CUT
10
107.7995
20
43.3882
0
VERTEX
8
CUT
10
107.7916
20
43.3757
0
VERTEX
8
CUT
10
107.7454
20
43.2940
0
VERTEX
8
CUT
10
107.7388
20
43.2808
0
VERTEX
8
CUT
10
107.7010
20
43.1950
0
VERTEX
8
CUT
10
107.6957
20
43.1812
0
VERTEX
8
CUT
10
107.6665
20
43.0920
0
VERTEX
8
CUT
10
107.6558
20
43.0528
0
VERTEX
8
CUT
10
107.6445
20
43.0072
0
VERTEX
8
CUT
10
107.6304
20
42.9435
0
VERTEX
8
CUT
10
107.5606
20
42.6990
0
VERTEX
8
CUT
10
107.4618
20
42.4648
0
VERTEX
8
CUT
10
107.2139
20
41.9643
0
VERTEX
8
CUT
10
107.1257
20
41.8042
0
VERTEX
8
CUT
10
107.0239
20
41.6523
0
VERTEX
8
CUT
10
106.9093
20
41.5099
0
VERTEX
8
CUT
10
106.7828
20
41.3780
0
VERTEX
8
CUT
10
105.9277
20
40.5610
0
VERTEX
8
CUT
10
105.7489
20
40.4084
0
VERTEX
8
CUT
10
105.5542
20
40.2767
0
VERTEX
8
CUT
10
105.3460
20
40.1677
0
VERTEX
8
CUT
10
104.8467
20
39.9407
0
VERTEX
8
CUT
10
104.6710
20
39.8702
0
VERTEX
8
CUT
10
104.4897
20
39.8158
0
VERTEX
8
CUT
10
104.3042
20
39.7780
0
VERTEX
8
CUT
10
103.7277
20
39.6872
0
VERTEX
8
CUT
10
103.5012
20
39.6640
0
VERTEX
8
CUT
10
103.2734
20
39.6656
0
VERTEX
8
CUT
10
103.0472
20
39.6917
0
VERTEX
8
CUT
10
102.2253
20
39.8323
0
VERTEX
8
CUT
10
102.0557
20
39.8685
0
VERTEX
8
CUT
10
101.8897
20
39.9186
0
VERTEX
8
CUT
10
101.7284
20
39.9823
0
VERTEX
8
CUT
10
100.7320
20
40.4238
0
VERTEX
8
CUT
10
100.5324
20
40.5253
0
VERTEX
8
CUT
10
100.3448
20
40.6475
0
VERTEX
8
CUT
10
99.4733
20
41.2836
0
VERTEX
8
CUT
10
99.3308
20
41.3973
0
VERTEX
8
CUT
10
99.1988
20
41.5230
0
VERTEX
8
CUT
10
99.0781
20
41.6597
0
VERTEX
8
CUT
10
98.4928
20
42.3838
0
VERTEX
8
CUT
10
98.3828
20
42.5328
0
VERTEX
8
CUT
10
98.3384
20
42.6058
0
VERTEX
8
CUT
10
98.3368
20
42.6048
0
VERTEX
8
CUT
10
98.2606
20
42.7283
0
VERTEX
8
CUT
10
98.2523
20
42.7404
0
SEQEND
0
POLYLINE
8
CUT
66
1
70
1
10
0.0
20
0.0
30
0.0
0
VERTEX
8
CUT
10
58.0995
20
135.7022
0
VERTEX
8
CUT
10
58.1807
20
135.6542
0
VERTEX
8
CUT
10
58.1938
20
135.6473
0
VERTEX
8
CUT
10
58.2794
20
135.6075
0
VERTEX
8
CUT
10
58.2932
20
135.6020
0
VERTEX
8
CUT
10
58.3823
20
135.5709
0
VERTEX
8
CUT
10
58.3965
20
135.5667
0
VERTEX
8
CUT
10
58.4882
20
135.5447
0
VERTEX
8
CUT
10
58.5028
20
135.5419
0
VERTEX
8
CUT
10
58.5963
20
135.5291
0
VERTEX
8
CUT
10
58.6111
20
135.5278
0
VERTEX
8
CUT
10
58.7054
20
135.5243
0
VERTEX
8
CUT
10
58.7202
20
135.5245
0
VERTEX
8
CUT
10
58.8144
20
135.5304
0
VERTEX
8
CUT
10
58.8292
20
135.5320
0
VERTEX
8
CUT
10
58.9223
20
135.5472
0
VERTEX
8
CUT
10
58.9368
20
135.5503
0
VERTEX
8
CUT
10
59.0280
20
135.5747
0
VERTEX
8
CUT
10
59.0421
20
135.5792
0
VERTEX
8
CUT
10
59.1304
20
135.6125
0
VERTEX
8
CUT
10
59.1440
20
135.6185
0
VERTEX
8
CUT
10
59.2285
20
135.6604
0
VERTEX
8
CUT
10
59.2415
20
135.6676
0
VERTEX
8
CUT
10
59.3215
20
135.7177
0
VERTEX
8
CUT
10
59.3336
20
135.7262
0
VERTEX
8
CUT
10
59.3824
20
135.7639
0
VERTEX
8
CUT
10
59.5885
20
135.9048
0
VERTEX
8
CUT
10
59.8098
20
136.0202
0
VERTEX
8
CUT
10
59.8260
20
136.0274
0
VERTEX
8
CUT
10
60.0141
20
136.1010
0
VERTEX
8
CUT
10
60.2084
20
136.1562
0
VERTEX
8
CUT
10
60.4072
20
136.1924
0
VERTEX
8
CUT
10
60.6085
20
136.2094
0
VERTEX
8
CUT
10
66.8198
20
136.4337
0
VERTEX
8
CUT
10
66.8577
20
136.4359
0
VERTEX
8
CUT
10
66.8905
20
136.4384
0
VERTEX
8
CUT
10
66.9657
20
136.4471
0
VERTEX
8
CUT
10
66.9982
20
136.4522
0
VERTEX
8
CUT
10
67.0355
20
136.4589
0
VERTEX
8
CUT
10
70.2925
20
137.1045
0
VERTEX
8
CUT
10
70.3283
20
137.1123
0
VERTEX
8
CUT
10
70.3592
20
137.1197
0
VERTEX
8
CUT
10
70.4298
20
137.1395
0
VERTEX
8
CUT
10
70.4600
20
137.1492
0
VERTEX
8
CUT
10
70.4947
20
137.1611
0
VERTEX
8
CUT
10
72.3200
20
137.8274
0
VERTEX
8
CUT
10
72.3542
20
137.8406
0
VERTEX
8
CUT
10
72.3836
20
137.8526
0
VERTEX
8
CUT
10
72.4502
20
137.8829
0
VERTEX
8
CUT
10
72.4786
20
137.8972
0
VERTEX
8
CUT
10
72.5110
20
137.9143
0
VERTEX
8
CUT
10
73.6774
20
138.5578
0
VERTEX
8
CUT
10
73.7113
20
138.5774
0
VERTEX
8
CUT
10
73.7403
20
138.5950
0
VERTEX
8
CUT
10
73.8054
20
138.6383
0
VERTEX
8
CUT
10
73.8328
20
138.6582
0
VERTEX
8
CUT
10
73.8640
20
138.6818
0
VERTEX
8
CUT
10
74.8623
20
139.4708
0
VERTEX
8
CUT
10
74.9039
20
139.5057
0
VERTEX
8
CUT
10
74.9391
20
139.5370
0
VERTEX
8
CUT
10
75.0160
20
139.6136
0
VERTEX
8
CUT
10
75.0475
20
139.6486
0
VERTEX
8
CUT
10
75.0825
20
139.6901
0
VERTEX
8
CUT
10
76.7678
20
141.8036
0
VERTEX
8
CUT
10
76.7974
20
141.8427
0
VERTEX
8
CUT
10
76.8222
20
141.8773
0
VERTEX
8
CUT
10
76.8751
20
141.9599
0
VERTEX
8
CUT
10
76.8961
20
141.9968
0
VERTEX
8
CUT
10
76.9193
20
142.0401
0
VERTEX
8
CUT
10
77.4660
20
143.1256
0
VERTEX
8
CUT
10
77.4893
20
143.1755
0
VERTEX
8
CUT
10
77.5083
20
143.2194
0
VERTEX
8
CUT
10
77.5461
20
143.3228
0
VERTEX
8
CUT
10
77.5599
20
143.3686
0
VERTEX
8
CUT
10
77.5742
20
143.4218
0
VERTEX
8
CUT
10
78.1901
20
146.0017
0
VERTEX
8
CUT
10
78.1984
20
146.0403
0
VERTEX
8
CUT
10
78.2050
20
146.0739
0
VERTEX
8
CUT
10
78.2169
20
146.1519
0
VERTEX
8
CUT
10
78.2183
20
146.1643
0
VERTEX
8
CUT
10
78.2236
20
146.2430
0
VERTEX
8
CUT
10
78.2245
20
146.2773
0
VERTEX
8
CUT
10
78.2247
20
146.3168
0
VERTEX
8
CUT
10
78.2059
20
147.5601
0
VERTEX
8
CUT
10
78.2030
20
147.6219
0
VERTEX
8
CUT
10
78.1959
20
147.7094
0
VERTEX
8
CUT
10
78.1890
20
147.7709
0
VERTEX
8
CUT
10
78.0454
20
148.7511
0
VERTEX
8
CUT
10
78.0383
20
148.7932
0
VERTEX
8
CUT
10
78.0312
20
148.8297
0
VERTEX
8
CUT
10
78.0113
20
148.9128
0
VERTEX
8
CUT
10
78.0010
20
148.9484
0
VERTEX
8
CUT
10
77.9883
20
148.9893
0
VERTEX
8
CUT
10
77.3581
20
150.8560
0
VERTEX
8
CUT
10
77.3386
20
150.9085
0
VERTEX
8
CUT
10
77.3205
20
150.9534
0
VERTEX
8
CUT
10
77.2725
20
151.0544
0
VERTEX
8
CUT
10
77.2492
20
151.0969
0
VERTEX
8
CUT
10
77.2208
20
151.1451
0
VERTEX
8
CUT
10
76.1501
20
152.8485
0
VERTEX
8
CUT
10
76.1277
20
152.8824
0
VERTEX
8
CUT
10
76.1078
20
152.9114
0
VERTEX
8
CUT
10
76.0589
20
152.9761
0
VERTEX
8
CUT
10
76.0365
20
153.0033
0
VERTEX
8
CUT
10
76.0100
20
153.0340
0
VERTEX
8
CUT
10
75.3684
20
153.7481
0
VERTEX
8
CUT
10
75.3432
20
153.7751
0
VERTEX
8
CUT
10
75.3209
20
153.7980
0
VERTEX
8
CUT
10
75.2676
20
153.8488
0
VERTEX
8
CUT
10
75.2436
20
153.8700
0
VERTEX
8
CUT
10
75.2154
20
153.8938
0
VERTEX
8
CUT
10
72.1664
20
156.3774
0
VERTEX
8
CUT
10
72.0067
20
156.5217
0
VERTEX
8
CUT
10
71.8626
20
156.6816
0
VERTEX
8
CUT
10
71.7356
20
156.8554
0
VERTEX
8
CUT
10
71.6271
20
157.0413
0
VERTEX
8
CUT
10
71.2933
20
157.6870
0
VERTEX
8
CUT
10
71.2071
20
157.8762
0
VERTEX
8
CUT
10
71.1401
20
158.0730
0
VERTEX
8
CUT
10
71.0928
20
158.2755
0
VERTEX
8
CUT
10
71.0657
20
158.4816
0
VERTEX
8
CUT
10
71.0246
20
158.9894
0
VERTEX
8
CUT
10
71.0189
20
159.2287
0
VERTEX
8
CUT
10
71.0405
20
159.4672
0
VERTEX
8
CUT
10
71.1526
20
160.2231
0
VERTEX
8
CUT
10
71.1898
20
160.4129
0
VERTEX
8
CUT
10
71.2442
20
160.5984
0
VERTEX
8
CUT
10
71.3155
20
160.7781
0
VERTEX
8
CUT
10
71.6465
20
161.5124
0
VERTEX
8
CUT
10
71.7657
20
161.7387
0
VERTEX
8
CUT
10
71.9115
20
161.9489
0
VERTEX
8
CUT
10
72.5641
20
162.7772
0
VERTEX
8
CUT
10
72.6724
20
162.9039
0
VERTEX
8
CUT
10
72.7904
20
163.0216
0
VERTEX
8
CUT
10
73.7700
20
163.9246
0
VERTEX
8
CUT
10
73.8039
20
163.9574
0
VERTEX
8
CUT
10
73.8326
20
163.9866
0
VERTEX
8
CUT
10
73.8952
20
164.0571
0
VERTEX
8
CUT
10
73.9045
20
164.0687
0
VERTEX
8
CUT
10
73.9599
20
164.1450
0
VERTEX
8
CUT
10
73.9680
20
164.1575
0
VERTEX
8
CUT
10
74.0155
20
164.2389
0
VERTEX
8
CUT
10
74.0223
20
164.2521
0
VERTEX
8
CUT
10
74.0615
20
164.3379
0
VERTEX
8
CUT
10
74.0670
20
164.3517
0
VERTEX
8
CUT
10
74.0975
20
164.4409
0
VERTEX
8
CUT
10
74.1016
20
164.4552
0
VERTEX
8
CUT
10
74.1231
20
164.5470
0
VERTEX
8
CUT
10
74.1257
20
164.5616
0
VERTEX
8
CUT
10
74.1380
20
164.6552
0
VERTEX
8
CUT
10
74.1392
20
164.6699
0
VERTEX
8
CUT
10
74.1421
20
164.7642
0
VERTEX
8
CUT
10
74.1418
20
164.7791
0
VERTEX
8
CUT
10
74.1354
20
164.8732
0
VERTEX
8
CUT
10
74.1337
20
164.8879
0
VERTEX
8
CUT
10
74.1179
20
164.9809
0
VERTEX
8
CUT
10
74.1147
20
164.9954
0
VERTEX
8
CUT
10
74.0898
20
165.0863
0
VERTEX
8
CUT
10
74.0852
20
165.1004
0
VERTEX
8
CUT
10
74.0514
20
165.1885
0
VERTEX
8
CUT
10
74.0454
20
165.2021
0
VERTEX
8
CUT
10
74.0030
20
165.2863
0
VERTEX
8
CUT
10
73.9957
20
165.2992
0
VERTEX
8
CUT
10
73.9452
20
165.3789
0
VERTEX
8
CUT
10
73.9366
20
165.3910
0
VERTEX
8
CUT
10
73.8784
20
165.4652
0
VERTEX
8
CUT
10
73.8687
20
165.4764
0
VERTEX
8
CUT
10
73.8034
20
165.5445
0
VERTEX
8
CUT
10
73.7927
20
165.5547
0
VERTEX
8
CUT
10
73.7210
20
165.6160
0
VERTEX
8
CUT
10
73.7092
20
165.6251
0
VERTEX
8
CUT
10
73.6318
20
165.6789
0
VERTEX
8
CUT
10
73.5971
20
165.7006
0
VERTEX
8
CUT
10
73.5564
20
165.7246
0
VERTEX
8
CUT
10
73.2169
20
165.9139
0
VERTEX
8
CUT
10
73.1757
20
165.9355
0
VERTEX
8
CUT
10
73.1396
20
165.9534
0
VERTEX
8
CUT
10
73.0544
20
165.9905
0
VERTEX
8
CUT
10
73.0407
20
165.9957
0
VERTEX
8
CUT
10
72.9523
20
166.0243
0
VERTEX
8
CUT
10
72.9382
20
166.0281
0
VERTEX
8
CUT
10
72.8474
20
166.0479
0
VERTEX
8
CUT
10
72.8330
20
166.0503
0
VERTEX
8
CUT
10
72.7407
20
166.0611
0
VERTEX
8
CUT
10
72.7261
20
166.0621
0
VERTEX
8
CUT
10
72.6332
20
166.0639
0
VERTEX
8
CUT
10
72.6186
20
166.0634
0
VERTEX
8
CUT
10
72.5260
20
166.0561
0
VERTEX
8
CUT
10
72.5115
20
166.0542
0
VERTEX
8
CUT
10
72.4200
20
166.0379
0
VERTEX
8
CUT
10
72.4057
20
166.0346
0
VERTEX
8
CUT
10
72.3163
20
166.0094
0
VERTEX
8
CUT
10
72.3025
20
166.0048
0
VERTEX
8
CUT
10
72.2159
20
165.9709
0
VERTEX
8
CUT
10
72.2026
20
165.9649
0
VERTEX
8
CUT
10
72.1198
20
165.9228
0
VERTEX
8
CUT
10
72.1071
20
165.9155
0
VERTEX
8
CUT
10
72.0288
20
165.8655
0
VERTEX
8
CUT
10
72.0168
20
165.8571
0
VERTEX
8
CUT
10
71.9438
20
165.7996
0
VERTEX
8
CUT
10
71.9134
20
165.7732
0
VERTEX
8
CUT
10
71.8790
20
165.7418
0
VERTEX
8
CUT
10
70.1146
20
164.0501
0
VERTEX
8
CUT
10
69.9671
20
163.9213
0
VERTEX
8
CUT
10
69.8082
20
163.8068
0
VERTEX
8
CUT
10
69.6393
20
163.7076
0
VERTEX
8
CUT
10
69.4619
20
163.6246
0
VERTEX
8
CUT
10
69.2775
20
163.5585
0
VERTEX
8
CUT
10
65.8228
20
162.4979
0
VERTEX
8
CUT
10
65.7845
20
162.4852
0
VERTEX
8
CUT
10
65.7515
20
162.4736
0
VERTEX
8
CUT
10
65.6767
20
162.4434
0
VERTEX
8
CUT
10
65.6448
20
162.4290
0
VERTEX
8
CUT
10
65.6084
20
162.4116
0
VERTEX
8
CUT
10
62.4495
20
160.8158
0
VERTEX
8
CUT
10
62.4125
20
160.7961
0
VERTEX
8
CUT
10
62.3808
20
160.7783
0
VERTEX
8
CUT
10
62.3096
20
160.7341
0
VERTEX
8
CUT
10
62.2796
20
160.7135
0
VERTEX
8
CUT
10
62.2455
20
160.6891
0
VERTEX
8
CUT
10
60.3656
20
159.2768
0
VERTEX
8
CUT
10
60.3116
20
159.2330
0
VERTEX
8
CUT
10
60.2372
20
159.1681
0
VERTEX
8
CUT
10
60.1865
20
159.1205
0
VERTEX
8
CUT
10
57.6475
20
156.5538
0
VERTEX
8
CUT
10
57.6228
20
156.5280
0
VERTEX
8
CUT
10
57.6018
20
156.5051
0
VERTEX
8
CUT
10
57.5556
20
156.4507
0
VERTEX
8
CUT
10
57.5364
20
156.4263
0
VERTEX
8
CUT
10
57.5148
20
156.3978
0
VERTEX
8
CUT
10
54.8622
20
152.7558
0
VERTEX
8
CUT
10
54.8247
20
152.7003
0
VERTEX
8
CUT
10
54.7743
20
152.6198
0
VERTEX
8
CUT
10
54.7408
20
152.5618
0
VERTEX
8
CUT
10
53.8459
20
150.8779
0
VERTEX
8
CUT
10
53.8269
20
150.8402
0
VERTEX
8
CUT
10
53.8112
20
150.8072
0
VERTEX
8
CUT
10
53.7784
20
150.7295
0
VERTEX
8
CUT
10
53.7657
20
150.6952
0
VERTEX
8
CUT
10
53.7519
20
150.6553
0
VERTEX
8
CUT
10
52.6461
20
147.2132
0
VERTEX
8
CUT
10
52.6318
20
147.1644
0
VERTEX
8
CUT
10
52.6206
20
147.1217
0
VERTEX
8
CUT
10
52.6000
20
147.0221
0
VERTEX
8
CUT
10
52.5934
20
146.9784
0
VERTEX
8
CUT
10
52.5871
20
146.9279
0
VERTEX
8
CUT
10
52.4489
20
145.4985
0
VERTEX
8
CUT
10
52.4452
20
145.4431
0
VERTEX
8
CUT
10
52.4433
20
145.3950
0
VERTEX
8
CUT
10
52.4456
20
145.2841
0
VERTEX
8
CUT
10
52.4494
20
145.2361
0
VERTEX
8
CUT
10
52.4554
20
145.1809
0
VERTEX
8
CUT
10
52.7511
20
143.0433
0
VERTEX
8
CUT
10
52.7582
20
142.9996
0
VERTEX
8
CUT
10
52.7652
20
142.9618
0
VERTEX
8
CUT
10
52.7855
20
142.8756
0
VERTEX
8
CUT
10
52.7893
20
142.8622
0
VERTEX
8
CUT
10
52.8175
20
142.7783
0
VERTEX
8
CUT
10
52.8314
20
142.7424
0
VERTEX
8
CUT
10
52.8484
20
142.7015
0
VERTEX
8
CUT
10
52.9851
20
142.3932
0
VERTEX
8
CUT
10
52.9964
20
142.3561
0
VERTEX
8
CUT
10
53.0005
20
142.3443
0
VERTEX
8
CUT
10
53.0296
20
142.2710
0
VERTEX
8
CUT
10
53.0435
20
142.2397
0
VERTEX
8
CUT
10
53.0604
20
142.2040
0
VERTEX
8
CUT
10
53.1403
20
142.0431
0
VERTEX
8
CUT
10
53.8115
20
140.5292
0
VERTEX
8
CUT
10
53.8322
20
140.4856
0
VERTEX
8
CUT
10
53.8511
20
140.4482
0
VERTEX
8
CUT
10
53.8989
20
140.3645
0
VERTEX
8
CUT
10
53.9215
20
140.3292
0
VERTEX
8
CUT
10
53.9486
20
140.2893
0
VERTEX
8
CUT
10
55.0325
20
138.7728
0
VERTEX
8
CUT
10
55.0708
20
138.7228
0
VERTEX
8
CUT
10
55.1274
20
138.6538
0
VERTEX
8
CUT
10
55.1689
20
138.6065
0
VERTEX
8
CUT
10
56.8352
20
136.8287
0
VERTEX
8
CUT
10
56.8633
20
136.8000
0
VERTEX
8
CUT
10
56.9041
20
136.7600
0
VERTEX
8
CUT
10
56.9334
20
136.7325
0
VERTEX
8
CUT
10
57.9434
20
135.8229
0
VERTEX
8
CUT
10
57.9793
20
135.7922
0
VERTEX
8
CUT
10
58.0111
20
135.7663
0
VERTEX
8
CUT
10
58.0871
20
135.7104
0
SEQEND
0
POLYLINE
8
CUT
66
1
70
1
10
0.0
20
0.0
30
0.0
0
VERTEX
8
CUT
10
38.6739
20
178.0397
0
VERTEX
8
CUT
10
38.6206
20
178.1182
0
VERTEX
8
CUT
10
38.6116
20
178.1301
0
VERTEX
8
CUT
10
38.5508
20
178.2029
0
VERTEX
8
CUT
10
38.5406
20
178.2138
0
VERTEX
8
CUT
10
38.4728
20
178.2801
0
VERTEX
8
CUT
10
38.4617
20
178.2900
0
VERTEX
8
CUT
10
38.3876
20
178.3492
0
VERTEX
8
CUT
10
38.3755
20
178.3580
0
VERTEX
8
CUT
10
38.2959
20
178.4095
0
VERTEX
8
CUT
10
38.2830
20
178.4170
0
VERTEX
8
CUT
10
38.1986
20
178.4603
0
VERTEX
8
CUT
10
38.1850
20
178.4664
0
VERTEX
8
CUT
10
38.0967
20
178.5011
0
VERTEX
8
CUT
10
38.0826
20
178.5059
0
VERTEX
8
CUT
10
37.9913
20
178.5316
0
VERTEX
8
CUT
10
37.9768
20
178.5350
0
VERTEX
8
CUT
10
37.8834
20
178.5514
0
VERTEX
8
CUT
10
37.8686
20
178.5533
0
VERTEX
8
CUT
10
37.7740
20
178.5604
0
VERTEX
8
CUT
10
37.7591
20
178.5608
0
VERTEX
8
CUT
10
37.6643
20
178.5584
0
VERTEX
8
CUT
10
37.6494
20
178.5572
0
VERTEX
8
CUT
10
37.5553
20
178.5454
0
VERTEX
8
CUT
10
37.5406
20
178.5428
0
VERTEX
8
CUT
10
37.4482
20
178.5217
0
VERTEX
8
CUT
10
37.4338
20
178.5176
0
VERTEX
8
CUT
10
37.3439
20
178.4873
0
VERTEX
8
CUT
10
37.3301
20
178.4819
0
VERTEX
8
CUT
10
37.2437
20
178.4428
0
VERTEX
8
CUT
10
37.2304
20
178.4359
0
VERTEX
8
CUT
10
37.1483
20
178.3884
0
VERTEX
8
CUT
10
37.1358
20
178.3803
0
VERTEX
8
CUT
10
37.0589
20
178.3248
0
VERTEX
8
CUT
10
37.0472
20
178.3155
0
VERTEX
8
CUT
10
36.9762
20
178.2526
0
VERTEX
8
CUT
10
36.9656
20
178.2422
0
VERTEX
8
CUT
10
36.9012
20
178.1726
0
VERTEX
8
CUT
10
36.8916
20
178.1611
0
VERTEX
8
CUT
10
36.8345
20
178.0854
0
VERTEX
8
CUT
10
36.8261
20
178.0731
0
VERTEX
8
CUT
10
36.7769
20
177.9920
0
VERTEX
8
CUT
10
36.7698
20
177.9789
0
VERTEX
8
CUT
10
36.7288
20
177.8934
0
VERTEX
8
CUT
10
36.7231
20
177.8796
0
VERTEX
8
CUT
10
36.6909
20
177.7904
0
VERTEX
8
CUT
10
36.6865
20
177.7761
0
VERTEX
8
CUT
10
36.6634
20
177.6841
0
VERTEX
8
CUT
10
36.6605
20
177.6695
0
VERTEX
8
CUT
10
36.6466
20
177.5757
0
VERTEX
8
CUT
10
36.6427
20
177.5347
0
VERTEX
8
CUT
10
36.6393
20
177.4874
0
VERTEX
8
CUT
10
36.5785
20
176.1826
0
VERTEX
8
CUT
10
36.5775
20
176.1342
0
VERTEX
8
CUT
10
36.5777
20
176.0921
0
VERTEX
8
CUT
10
36.5830
20
175.9954
0
VERTEX
8
CUT
10
36.5847
20
175.9802
0
VERTEX
8
CUT
10
36.5999
20
175.8845
0
VERTEX
8
CUT
10
36.6086
20
175.8434
0
VERTEX
8
CUT
10
36.6199
20
175.7962
0
VERTEX
8
CUT
10
37.0270
20
174.2645
0
VERTEX
8
CUT
10
37.0395
20
174.2214
0
VERTEX
8
CUT
10
37.0513
20
174.1843
0
VERTEX
8
CUT
10
37.0824
20
174.1001
0
VERTEX
8
CUT
10
37.0880
20
174.0872
0
VERTEX
8
CUT
10
37.1269
20
174.0063
0
VERTEX
8
CUT
10
37.1336
20
173.9939
0
VERTEX
8
CUT
10
37.1800
20
173.9171
0
VERTEX
8
CUT
10
37.2017
20
173.8847
0
VERTEX
8
CUT
10
37.2276
20
173.8480
0
VERTEX
8
CUT
10
38.0504
20
172.7383
0
VERTEX
8
CUT
10
38.0757
20
172.7057
0
VERTEX
8
CUT
10
38.0983
20
172.6779
0
VERTEX
8
CUT
10
38.1529
20
172.6162
0
VERTEX
8
CUT
10
38.1619
20
172.6069
0
VERTEX
8
CUT
10
38.2218
20
172.5501
0
VERTEX
8
CUT
10
38.2488
20
172.5266
0
VERTEX
8
CUT
10
38.2805
20
172.5002
0
VERTEX
8
CUT
10
38.8021
20
172.0851
0
VERTEX
8
CUT
10
38.8455
20
172.0525
0
VERTEX
8
CUT
10
38.8840
20
172.0253
0
VERTEX
8
CUT
10
38.9761
20
171.9679
0
VERTEX
8
CUT
10
39.0174
20
171.9453
0
VERTEX
8
CUT
10
39.0658
20
171.9206
0
VERTEX
8
CUT
10
39.1853
20
171.8638
0
VERTEX
8
CUT
10
39.1893
20
171.8614
0
VERTEX
8
CUT
10
39.7843
20
171.5133
0
VERTEX
8
CUT
10
39.8217
20
171.4925
0
VERTEX
8
CUT
10
39.8545
20
171.4752
0
VERTEX
8
CUT
10
39.9318
20
171.4389
0
VERTEX
8
CUT
10
39.9443
20
171.4337
0
VERTEX
8
CUT
10
40.0246
20
171.4045
0
VERTEX
8
CUT
10
40.0600
20
171.3934
0
VERTEX
8
CUT
10
40.1010
20
171.3815
0
VERTEX
8
CUT
10
40.3278
20
171.3213
0
VERTEX
8
CUT
10
40.7326
20
171.1291
0
VERTEX
8
CUT
10
40.7777
20
171.1091
0
VERTEX
8
CUT
10
40.8172
20
171.0928
0
VERTEX
8
CUT
10
40.9101
20
171.0600
0
VERTEX
8
CUT
10
40.9249
20
171.0556
0
VERTEX
8
CUT
10
41.0207
20
171.0326
0
VERTEX
8
CUT
10
41.0359
20
171.0298
0
VERTEX
8
CUT
10
41.1336
20
171.0168
0
VERTEX
8
CUT
10
41.1762
20
171.0134
0
VERTEX
8
CUT
10
41.2254
20
171.0107
0
VERTEX
8
CUT
10
41.5349
20
171.0020
0
VERTEX
8
CUT
10
41.5470
20
170.9991
0
VERTEX
8
CUT
10
41.5862
20
170.9907
0
VERTEX
8
CUT
10
41.6771
20
170.9759
0
VERTEX
8
CUT
10
41.6915
20
170.9742
0
VERTEX
8
CUT
10
41.7834
20
170.9682
0
VERTEX
8
CUT
10
41.7979
20
170.9680
0
VERTEX
8
CUT
10
41.8900
20
170.9709
0
VERTEX
8
CUT
10
41.9299
20
170.9742
0
VERTEX
8
CUT
10
41.9757
20
170.9790
0
VERTEX
8
CUT
10
42.0431
20
170.9877
0
VERTEX
8
CUT
10
42.6790
20
170.9698
0
VERTEX
8
CUT
10
42.7224
20
170.9696
0
VERTEX
8
CUT
10
42.7601
20
170.9703
0
VERTEX
8
CUT
10
42.8468
20
170.9758
0
VERTEX
8
CUT
10
42.8604
20
170.9773
0
VERTEX
8
CUT
10
42.9462
20
170.9907
0
VERTEX
8
CUT
10
42.9832
20
170.9982
0
VERTEX
8
CUT
10
43.0256
20
171.0078
0
VERTEX
8
CUT
10
44.5621
20
171.3944
0
VERTEX
8
CUT
10
44.6033
20
171.4057
0
VERTEX
8
CUT
10
44.6388
20
171.4164
0
VERTEX
8
CUT
10
44.7194
20
171.4446
0
VERTEX
8
CUT
10
44.7319
20
171.4496
0
VERTEX
8
CUT
10
44.8097
20
171.4849
0
VERTEX
8
CUT
10
44.8217
20
171.4910
0
VERTEX
8
CUT
10
44.8959
20
171.5332
0
VERTEX
8
CUT
10
44.9073
20
171.5403
0
VERTEX
8
CUT
10
44.9775
20
171.5890
0
VERTEX
8
CUT
10
45.0070
20
171.6115
0
VERTEX
8
CUT
10
45.0404
20
171.6381
0
VERTEX
8
CUT
10
46.3346
20
172.7202
0
VERTEX
8
CUT
10
46.3691
20
172.7505
0
VERTEX
8
CUT
10
46.3983
20
172.7775
0
VERTEX
8
CUT
10
46.4627
20
172.8428
0
VERTEX
8
CUT
10
46.4723
20
172.8535
0
VERTEX
8
CUT
10
46.5300
20
172.9247
0
VERTEX
8
CUT
10
46.5385
20
172.9364
0
VERTEX
8
CUT
10
46.5891
20
173.0128
0
VERTEX
8
CUT
10
46.6095
20
173.0470
0
VERTEX
8
CUT
10
46.6319
20
173.0870
0
VERTEX
8
CUT
10
47.4789
20
174.6824
0
VERTEX
8
CUT
10
47.4986
20
174.7216
0
VERTEX
8
CUT
10
47.5148
20
174.7559
0
VERTEX
8
CUT
10
47.5486
20
174.8368
0
VERTEX
8
CUT
10
47.5533
20
174.8497
0
VERTEX
8
CUT
10
47.5795
20
174.9333
0
VERTEX
8
CUT
10
47.5830
20
174.9466
0
VERTEX
8
CUT
10
47.6014
20
175.0323
0
VERTEX
8
CUT
10
47.6076
20
175.0698
0
VERTEX
8
CUT
10
47.6138
20
175.1132
0
VERTEX
8
CUT
10
47.8261
20
176.8907
0
VERTEX
8
CUT
10
47.8306
20
176.9377
0
VERTEX
8
CUT
10
47.8334
20
176.9786
0
VERTEX
8
CUT
10
47.8352
20
177.0730
0
VERTEX
8
CUT
10
47.8348
20
177.0879
0
VERTEX
8
CUT
10
47.8272
20
177.1820
0
VERTEX
8
CUT
10
47.8253
20
177.1967
0
VERTEX
8
CUT
10
47.8084
20
177.2896
0
VERTEX
8
CUT
10
47.8050
20
177.3041
0
VERTEX
8
CUT
10
47.7790
20
177.3949
0
VERTEX
8
CUT
10
47.7742
20
177.4089
0
VERTEX
8
CUT
10
47.7393
20
177.4967
0
VERTEX
8
CUT
10
47.7331
20
177.5102
0
VERTEX
8
CUT
10
47.6897
20
177.5940
0
VERTEX
8
CUT
10
47.6822
20
177.6068
0
VERTEX
8
CUT
10
47.6307
20
177.6859
0
VERTEX
8
CUT
10
47.6219
20
177.6980
0
VERTEX
8
CUT
10
47.5628
20
177.7716
0
VERTEX
8
CUT
10
47.5529
20
177.7827
0
VERTEX
8
CUT
10
47.4867
20
177.8500
0
VERTEX
8
CUT
10
47.4758
20
177.8601
0
VERTEX
8
CUT
10
47.4033
20
177.9205
0
VERTEX
8
CUT
10
47.3914
20
177.9294
0
VERTEX
8
CUT
10
47.3132
20
177.9824
0
VERTEX
8
CUT
10
47.3005
20
177.9901
0
VERTEX
8
CUT
10
47.2174
20
178.0350
0
VERTEX
8
CUT
10
47.2040
20
178.0414
0
VERTEX
8
CUT
10
47.1169
20
178.0778
0
VERTEX
8
CUT
10
47.1029
20
178.0829
0
VERTEX
8
CUT
10
47.0127
20
178.1105
0
VERTEX
8
CUT
10
46.9982
20
178.1141
0
VERTEX
8
CUT
10
46.9057
20
178.1326
0
VERTEX
8
CUT
10
46.8910
20
178.1348
0
VERTEX
8
CUT
10
46.7970
20
178.1440
0
VERTEX
8
CUT
10
46.7821
20
178.1447
0
VERTEX
8
CUT
10
46.6877
20
178.1445
0
VERTEX
8
CUT
10
46.6729
20
178.1437
0
VERTEX
8
CUT
10
46.5789
20
178.1342
0
VERTEX
8
CUT
10
46.5643
20
178.1320
0
VERTEX
8
CUT
10
46.4717
20
178.1131
0
VERTEX
8
CUT
10
46.4573
20
178.1094
0
VERTEX
8
CUT
10
46.3672
20
178.0815
0
VERTEX
8
CUT
10
46.3532
20
178.0764
0
VERTEX
8
CUT
10
46.2662
20
178.0396
0
VERTEX
8
CUT
10
46.2528
20
178.0332
0
VERTEX
8
CUT
10
46.1700
20
177.9880
0
VERTEX
8
CUT
10
46.1573
20
177.9802
0
VERTEX
8
CUT
10
46.0793
20
177.9270
0
VERTEX
8
CUT
10
46.0675
20
177.9180
0
VERTEX
8
CUT
10
45.9951
20
177.8573
0
VERTEX
8
CUT
10
45.9842
20
177.8472
0
VERTEX
8
CUT
10
45.9183
20
177.7796
0
VERTEX
8
CUT
10
45.9085
20
177.7685
0
VERTEX
8
CUT
10
45.8496
20
177.6947
0
VERTEX
8
CUT
10
45.8257
20
177.6614
0
VERTEX
8
CUT
10
45.7990
20
177.6224
0
VERTEX
8
CUT
10
45.2678
20
176.8007
0
VERTEX
8
CUT
10
45.1565
20
176.6445
0
VERTEX
8
CUT
10
45.0313
20
176.4992
0
VERTEX
8
CUT
10
44.8934
20
176.3659
0
VERTEX
8
CUT
10
44.4529
20
175.9773
0
VERTEX
8
CUT
10
44.3136
20
175.8647
0
VERTEX
8
CUT
10
44.1653
20
175.7643
0
VERTEX
8
CUT
10
44.0089
20
175.6769
0
VERTEX
8
CUT
10
43.6932
20
175.5178
0
VERTEX
8
CUT
10
43.5011
20
175.4327
0
VERTEX
8
CUT
10
43.3014
20
175.3673
0
VERTEX
8
CUT
10
43.0962
20
175.3221
0
VERTEX
8
CUT
10
42.8875
20
175.2977
0
VERTEX
8
CUT
10
42.4359
20
175.2677
0
VERTEX
8
CUT
10
42.2071
20
175.2649
0
VERTEX
8
CUT
10
41.9794
20
175.2871
0
VERTEX
8
CUT
10
41.7555
20
175.3339
0
VERTEX
8
CUT
10
41.5380
20
175.4048
0
VERTEX
8
CUT
10
41.3043
20
175.4952
0
VERTEX
8
CUT
10
41.0769
20
175.5993
0
VERTEX
8
CUT
10
40.8635
20
175.7297
0
VERTEX
8
CUT
10
40.2593
20
176.1499
0
VERTEX
8
CUT
10
40.0262
20
176.3381
0
VERTEX
8
CUT
10
39.4522
20
176.8735
0
VERTEX
8
CUT
10
39.3170
20
177.0118
0
VERTEX
8
CUT
10
39.1952
20
177.1619
0
VERTEX
8
CUT
10
39.0876
20
177.3226
0
VERTEX
8
CUT
10
38.8358
20
177.7390
0
VERTEX
8
CUT
10
38.7388
20
177.9185
0
VERTEX
8
CUT
10
38.7268
20
177.9436
0
VERTEX
8
CUT
10
38.6816
20
178.0270
0
SEQEND
0
ENDSEC
0
EOF
