0
SECTION
2
HEADER
9
$ACADVER
1
AC1009
9
$INSUNITS
70
4
0
ENDSEC
0
SECTION
2
TABLES
0
TABLE
2
LAYER
70
1
0
LAYER
2
CUT
70
0
62
7
6
CONTINUOUS
0
ENDTAB
0
ENDSEC
0
SECTION
2
ENTITIES
0
POLYLINE
8
CUT
66
1
70
1
10
0.0
20
0.0
30
0.0
0
VERTEX
8
CUT
10
-0.1000
20
298.0000
0
VERTEX
8
CUT
10
-0.0899
20
298.2058
0
VERTEX
8
CUT
10
-0.0596
20
298.4097
0
VERTEX
8
CUT
10
-0.0096
20
298.6096
0
VERTEX
8
CUT
10
0.0599
20
298.8036
0
VERTEX
8
CUT
10
0.1480
20
298.9899
0
VERTEX
8
CUT
10
0.2539
20
299.1667
0
VERTEX
8
CUT
10
0.3767
20
299.3322
0
VERTEX
8
CUT
10
0.5151
20
299.4849
0
VERTEX
8
CUT
10
0.6678
20
299.6233
0
VERTEX
8
CUT
10
0.8333
20
299.7461
0
VERTEX
8
CUT
10
1.0101
20
299.8520
0
VERTEX
8
CUT
10
1.1964
20
299.9401
0
VERTEX
8
CUT
10
1.3904
20
300.0096
0
VERTEX
8
CUT
10
1.5903
20
300.0596
0
VERTEX
8
CUT
10
1.7942
20
300.0899
0
VERTEX
8
CUT
10
2.0000
20
300.1000
0
VERTEX
8
CUT
10
297.9985
20
300.1000
0
VERTEX
8
CUT
10
298.2044
20
300.0899
0
VERTEX
8
CUT
10
298.4082
20
300.0596
0
VERTEX
8
CUT
10
298.6081
20
300.0096
0
VERTEX
8
CUT
10
298.8022
20
299.9401
0
VERTEX
8
CUT
10
298.9885
20
299.8520
0
VERTEX
8
CUT
10
299.1652
20
299.7461
0
VERTEX
8
CUT
10
299.3307
20
299.6233
0
VERTEX
8
CUT
10
299.4834
20
299.4849
0
VERTEX
8
CUT
10
299.6218
20
299.3322
0
VERTEX
8
CUT
10
299.7446
20
299.1667
0
VERTEX
8
CUT
10
299.8506
20
298.9899
0
VERTEX
8
CUT
10
299.9387
20
298.8036
0
VERTEX
8
CUT
10
300.0081
20
298.6096
0
VERTEX
8
CUT
10
300.0582
20
298.4097
0
VERTEX
8
CUT
10
300.0884
20
298.2058
0
VERTEX
8
CUT
10
300.0985
20
298.0000
0
VERTEX
8
CUT
10
300.0985
20
2.0000
0
VERTEX
8
CUT
10
300.0884
20
1.7942
0
VERTEX
8
CUT
10
300.0582
20
1.5903
0
VERTEX
8
CUT
10
300.0081
20
1.3904
0
VERTEX
8
CUT
10
299.9387
20
1.1964
0
VERTEX
8
CUT
10
299.8506
20
1.0101
0
VERTEX
8
CUT
10
299.7446
20
0.8333
0
VERTEX
8
CUT
10
299.6218
20
0.6678
0
VERTEX
8
CUT
10
299.4834
20
0.5151
0
VERTEX
8
CUT
10
299.3307
20
0.3767
0
VERTEX
8
CUT
10
299.1652
20
0.2539
0
VERTEX
8
CUT
10
298.9885
20
0.1480
0
VERTEX
8
CUT
10
298.8022
20
0.0599
0
VERTEX
8
CUT
10
298.6081
20
-0.0096
0
VERTEX
8
CUT
10
298.4082
20
-0.0596
0
VERTEX
8
CUT
10
298.2044
20
-0.0899
0
VERTEX
8
CUT
10
297.9985
20
-0.1000
0
VERTEX
8
CUT
10
2.0000
20
-0.1000
0
VERTEX
8
CUT
10
1.7942
20
-0.0899
0
VERTEX
8
CUT
10
1.5903
20
-0.0596
0
VERTEX
8
CUT
10
1.3904
20
-0.0096
0
VERTEX
8
CUT
10
1.1964
20
0.0599
0
VERTEX
8
CUT
10
1.0101
20
0.1480
0
VERTEX
8
CUT
10
0.8333
20
0.2539
0
VERTEX
8
CUT
10
0.6678
20
0.3767
0
VERTEX
8
CUT
10
0.5151
20
0.5151
0
VERTEX
8
CUT
10
0.3767
20
0.6678
0
VERTEX
8
CUT
10
0.2539
20
0.8333
0
VERTEX
8
CUT
10
0.1480
20
1.0101
0
VERTEX
8
CUT
10
0.0599
20
1.1964
0
VERTEX
8
CUT
10
-0.0096
20
1.3904
0
VERTEX
8
CUT
10
-0.0596
20
1.5903
0
VERTEX
8
CUT
10
-0.0899
20
1.7942
0
VERTEX
8
CUT
10
-0.1000
20
2.0000
0
SEQEND
0
POLYLINE
8
CUT
66
1
70
1
10
0.0
20
0.0
30
0.0
0
VERTEX
8
CUT
10
127.5702
20
102.9925
0
VERTEX
8
CUT
10
127.4000
20
103.1389
0
VERTEX
8
CUT
10
127.2465
20
103.3026
0
VERTEX
8
CUT
10
127.1112
20
103.4817
0
VERTEX
8
CUT
10
127.0779
20
103.5312
0
VERTEX
8
CUT
10
126.9789
20
103.6934
0
VERTEX
8
CUT
10
126.8949
20
103.8639
0
VERTEX
8
CUT
10
126.8268
20
104.0413
0
VERTEX
8
CUT
10
126.8066
20
104.1019
0
VERTEX
8
CUT
10
126.7907
20
104.1460
0
VERTEX
8
CUT
10
126.7760
20
104.1839
0
VERTEX
8
CUT
10
126.7378
20
104.2693
0
VERTEX
8
CUT
10
126.7311
20
104.2825
0
VERTEX
8
CUT
10
126.6847
20
104.3638
0
VERTEX
8
CUT
10
126.6768
20
104.3762
0
VERTEX
8
CUT
10
126.6225
20
104.4525
0
VERTEX
8
CUT
10
126.6134
20
104.4641
0
VERTEX
8
CUT
10
126.5520
20
104.5347
0
VERTEX
8
CUT
10
126.5418
20
104.5453
0
VERTEX
8
CUT
10
126.4737
20
104.6095
0
VERTEX
8
CUT
10
126.4625
20
104.6191
0
VERTEX
8
CUT
10
126.3883
20
104.6763
0
VERTEX
8
CUT
10
126.3763
20
104.6847
0
VERTEX
8
CUT
10
126.2969
20
104.7343
0
VERTEX
8
CUT
10
126.2840
20
104.7415
0
VERTEX
8
CUT
10
126.2001
20
104.7831
0
VERTEX
8
CUT
10
126.1866
20
104.7889
0
VERTEX
8
CUT
10
126.0990
20
104.8220
0
VERTEX
8
CUT
10
126.0850
20
104.8266
0
VERTEX
8
CUT
10
125.9946
20
104.8509
0
VERTEX
8
CUT
10
125.9802
20
104.8540
0
VERTEX
8
CUT
10
125.8879
20
104.8693
0
VERTEX
8
CUT
10
125.8732
20
104.8710
0
VERTEX
8
CUT
10
125.7798
20
104.8771
0
VERTEX
8
CUT
10
125.7651
20
104.8773
0
VERTEX
8
CUT
10
125.6715
20
104.8742
0
VERTEX
8
CUT
10
125.6569
20
104.8730
0
VERTEX
8
CUT
10
125.5640
20
104.8607
0
VERTEX
8
CUT
10
125.5496
20
104.8580
0
VERTEX
8
CUT
10
125.4584
20
104.8366
0
VERTEX
8
CUT
10
125.4443
20
104.8326
0
VERTEX
8
CUT
10
125.3557
20
104.8023
0
VERTEX
8
CUT
10
125.3420
20
104.7969
0
VERTEX
8
CUT
10
125.2568
20
104.7580
0
VERTEX
8
CUT
10
125.2437
20
104.7512
0
VERTEX
8
CUT
10
125.1628
20
104.7042
0
VERTEX
8
CUT
10
125.1504
20
104.6962
0
VERTEX
8
CUT
10
125.0745
20
104.6414
0
VERTEX
8
CUT
10
125.0630
20
104.6322
0
VERTEX
8
CUT
10
124.9929
20
104.5702
0
VERTEX
8
CUT
10
124.9823
20
104.5599
0
VERTEX
8
CUT
10
124.9186
20
104.4913
0
VERTEX
8
CUT
10
124.9092
20
104.4800
0
VERTEX
8
CUT
10
124.8525
20
104.4055
0
VERTEX
8
CUT
10
124.8442
20
104.3933
0
VERTEX
8
CUT
10
124.7952
20
104.3136
0
VERTEX
8
CUT
10
124.7881
20
104.3007
0
VERTEX
8
CUT
10
124.7472
20
104.2165
0
VERTEX
8
CUT
10
124.7414
20
104.2029
0
VERTEX
8
CUT
10
124.7090
20
104.1151
0
VERTEX
8
CUT
10
124.7046
20
104.1011
0
VERTEX
8
CUT
10
124.6809
20
104.0105
0
VERTEX
8
CUT
10
124.6726
20
103.9707
0
VERTEX
8
CUT
10
124.6642
20
103.9246
0
VERTEX
8
CUT
10
124.6231
20
103.6638
0
VERTEX
8
CUT
10
124.6172
20
103.6204
0
VERTEX
8
CUT
10
124.6130
20
103.5826
0
VERTEX
8
CUT
10
124.6074
20
103.4953
0
VERTEX
8
CUT
10
124.6072
20
103.4815
0
VERTEX
8
CUT
10
124.6096
20
103.3940
0
VERTEX
8
CUT
10
124.6124
20
103.3561
0
VERTEX
8
CUT
10
124.6167
20
103.3126
0
VERTEX
8
CUT
10
124.6579
20
102.9710
0
VERTEX
8
CUT
10
124.6636
20
102.9314
0
VERTEX
8
CUT
10
124.6692
20
102.8971
0
VERTEX
8
CUT
10
124.6855
20
102.8187
0
VERTEX
8
CUT
10
124.6885
20
102.8064
0
VERTEX
8
CUT
10
124.7114
20
102.7297
0
VERTEX
8
CUT
10
124.7227
20
102.6968
0
VERTEX
8
CUT
10
124.7365
20
102.6592
0
VERTEX
8
CUT
10
125.5177
20
100.6644
0
VERTEX
8
CUT
10
125.5371
20
100.6184
0
VERTEX
8
CUT
10
125.5550
20
100.5790
0
VERTEX
8
CUT
10
125.6010
20
100.4904
0
VERTEX
8
CUT
10
125.6229
20
100.4531
0
VERTEX
8
CUT
10
125.6493
20
100.4107
0
VERTEX
8
CUT
10
126.5085
20
99.1094
0
VERTEX
8
CUT
10
126.5343
20
99.0723
0
VERTEX
8
CUT
10
126.5574
20
99.0407
0
VERTEX
8
CUT
10
126.6141
20
98.9704
0
VERTEX
8
CUT
10
126.6401
20
98.9411
0
VERTEX
8
CUT
10
126.6709
20
98.9080
0
VERTEX
8
CUT
10
127.5216
20
98.0373
0
VERTEX
8
CUT
10
127.5559
20
98.0040
0
VERTEX
8
CUT
10
127.5863
20
97.9758
0
VERTEX
8
CUT
10
127.6596
20
97.9145
0
VERTEX
8
CUT
10
127.6716
20
97.9055
0
VERTEX
8
CUT
10
127.7507
20
97.8519
0
VERTEX
8
CUT
10
127.7862
20
97.8304
0
VERTEX
8
CUT
10
127.8277
20
97.8066
0
VERTEX
8
CUT
10
129.5971
20
96.8515
0
VERTEX
8
CUT
10
129.6380
20
96.8307
0
VERTEX
8
CUT
10
129.6738
20
96.8135
0
VERTEX
8
CUT
10
129.7583
20
96.7780
0
VERTEX
8
CUT
10
129.7956
20
96.7644
0
VERTEX
8
CUT
10
129.8391
20
96.7497
0
VERTEX
8
CUT
10
130.6438
20
96.4991
0
VERTEX
8
CUT
10
130.6929
20
96.4852
0
VERTEX
8
CUT
10
130.7358
20
96.4744
0
VERTEX
8
CUT
10
130.8359
20
96.4547
0
VERTEX
8
CUT
10
130.8797
20
96.4485
0
VERTEX
8
CUT
10
130.9304
20
96.4427
0
VERTEX
8
CUT
10
132.7941
20
96.2803
0
VERTEX
8
CUT
10
132.8399
20
96.2774
0
VERTEX
8
CUT
10
132.8797
20
96.2759
0
VERTEX
8
CUT
10
132.9716
20
96.2768
0
VERTEX
8
CUT
10
132.9860
20
96.2776
0
VERTEX
8
CUT
10
133.0773
20
96.2874
0
VERTEX
8
CUT
10
133.1167
20
96.2936
0
VERTEX
8
CUT
10
133.1619
20
96.3018
0
VERTEX
8
CUT
10
134.9671
20
96.6741
0
VERTEX
8
CUT
10
135.0189
20
96.6863
0
VERTEX
8
CUT
10
135.0635
20
96.6981
0
VERTEX
8
CUT
10
135.1646
20
96.7311
0
VERTEX
8
CUT
10
135.2076
20
96.7479
0
VERTEX
8
CUT
10
135.2566
20
96.7686
0
VERTEX
8
CUT
10
136.0980
20
97.1520
0
VERTEX
8
CUT
10
136.1350
20
97.1698
0
VERTEX
8
CUT
10
136.1667
20
97.1860
0
VERTEX
8
CUT
10
136.2381
20
97.2263
0
VERTEX
8
CUT
10
136.2683
20
97.2451
0
VERTEX
8
CUT
10
136.3027
20
97.2676
0
VERTEX
8
CUT
10
137.3340
20
97.9736
0
VERTEX
8
CUT
10
137.3681
20
97.9982
0
VERTEX
8
CUT
10
137.3973
20
98.0201
0
VERTEX
8
CUT
10
137.4622
20
98.0736
0
VERTEX
8
CUT
10
137.4894
20
98.0980
0
VERTEX
8
CUT
10
137.5200
20
98.1269
0
VERTEX
8
CUT
10
139.1773
20
99.7584
0
VERTEX
8
CUT
10
139.2023
20
99.7839
0
VERTEX
8
CUT
10
139.2236
20
99.8065
0
VERTEX
8
CUT
10
139.2705
20
99.8603
0
VERTEX
8
CUT
10
139.2901
20
99.8844
0
VERTEX
8
CUT
10
139.3120
20
99.9126
0
VERTEX
8
CUT
10
140.2221
20
101.1279
0
VERTEX
8
CUT
10
140.2469
20
101.1626
0
VERTEX
8
CUT
10
140.2677
20
101.1932
0
VERTEX
8
CUT
10
140.3125
20
101.2657
0
VERTEX
8
CUT
10
140.3305
20
101.2980
0
VERTEX
8
CUT
10
140.3504
20
101.3357
0
VERTEX
8
CUT
10
140.9869
20
102.6102
0
VERTEX
8
CUT
10
141.0069
20
102.6529
0
VERTEX
8
CUT
10
141.0234
20
102.6904
0
VERTEX
8
CUT
10
141.0570
20
102.7786
0
VERTEX
8
CUT
10
141.0615
20
102.7927
0
VERTEX
8
CUT
10
141.0862
20
102.8838
0
VERTEX
8
CUT
10
141.0894
20
102.8983
0
VERTEX
8
CUT
10
141.1048
20
102.9914
0
VERTEX
8
CUT
10
141.1065
20
103.0061
0
VERTEX
8
CUT
10
141.1127
20
103.1003
0
VERTEX
8
CUT
10
141.1134
20
103.1413
0
VERTEX
8
CUT
10
141.1129
20
103.1885
0
VERTEX
8
CUT
10
141.0973
20
103.6490
0
VERTEX
8
CUT
10
141.0942
20
103.7003
0
VERTEX
8
CUT
10
141.0902
20
103.7448
0
VERTEX
8
CUT
10
141.0757
20
103.8465
0
VERTEX
8
CUT
10
141.0725
20
103.8623
0
VERTEX
8
CUT
10
141.0470
20
103.9618
0
VERTEX
8
CUT
10
141.0337
20
104.0044
0
VERTEX
8
CUT
10
141.0169
20
104.0530
0
VERTEX
8
CUT
10
140.7082
20
104.8762
0
VERTEX
8
CUT
10
140.6906
20
104.9196
0
VERTEX
8
CUT
10
140.6745
20
104.9570
0
VERTEX
8
CUT
10
140.6331
20
105.0410
0
VERTEX
8
CUT
10
140.6259
20
105.0539
0
VERTEX
8
CUT
10
140.5765
20
105.1335
0
VERTEX
8
CUT
10
140.5681
20
105.1456
0
VERTEX
8
CUT
10
140.5110
20
105.2199
0
VERTEX
8
CUT
10
140.5014
20
105.2311
0
VERTEX
8
CUT
10
140.4373
20
105.2994
0
VERTEX
8
CUT
10
140.4267
20
105.3097
0
VERTEX
8
CUT
10
140.3562
20
105.3713
0
VERTEX
8
CUT
10
140.3446
20
105.3805
0
VERTEX
8
CUT
10
140.2683
20
105.4349
0
VERTEX
8
CUT
10
140.2559
20
105.4428
0
VERTEX
8
CUT
10
140.1747
20
105.4894
0
VERTEX
8
CUT
10
140.1615
20
105.4961
0
VERTEX
8
CUT
10
140.0761
20
105.5345
0
VERTEX
8
CUT
10
140.0623
20
105.5399
0
VERTEX
8
CUT
10
139.9735
20
105.5697
0
VERTEX
8
CUT
10
139.9593
20
105.5737
0
VERTEX
8
CUT
10
139.8680
20
105.5945
0
VERTEX
8
CUT
10
139.8535
20
105.5971
0
VERTEX
8
CUT
10
139.7605
20
105.6089
0
VERTEX
8
CUT
10
139.7458
20
105.6100
0
VERTEX
8
CUT
10
139.6522
20
105.6125
0
VERTEX
8
CUT
10
139.6374
20
105.6122
0
VERTEX
8
CUT
10
139.5440
20
105.6055
0
VERTEX
8
CUT
10
139.5294
20
105.6038
0
VERTEX
8
CUT
10
139.4370
20
105.5879
0
VERTEX
8
CUT
10
139.4226
20
105.5847
0
VERTEX
8
CUT
10
139.3323
20
105.5598
0
VERTEX
8
CUT
10
139.3183
20
105.5552
0
VERTEX
8
CUT
10
139.2309
20
105.5215
0
VERTEX
8
CUT
10
139.2174
20
105.5155
0
VERTEX
8
CUT
10
139.1337
20
105.4734
0
VERTEX
8
CUT
10
139.1209
20
105.4661
0
VERTEX
8
CUT
10
139.0418
20
105.4159
0
VERTEX
8
CUT
10
139.0297
20
105.4074
0
VERTEX
8
CUT
10
138.9560
20
105.3497
0
VERTEX
8
CUT
10
138.9448
20
105.3401
0
VERTEX
8
CUT
10
138.8771
20
105.2753
0
VERTEX
8
CUT
10
138.8669
20
105.2647
0
VERTEX
8
CUT
10
138.8059
20
105.1936
0
VERTEX
8
CUT
10
138.7968
20
105.1819
0
VERTEX
8
CUT
10
138.7431
20
105.1052
0
VERTEX
8
CUT
10
138.7353
20
105.0927
0
VERTEX
8
CUT
10
138.6894
20
105.0110
0
VERTEX
8
CUT
10
138.6712
20
104.9746
0
VERTEX
8
CUT
10
138.6513
20
104.9322
0
VERTEX
8
CUT
10
138.2794
20
104.0841
0
VERTEX
8
CUT
10
138.1769
20
103.8810
0
VERTEX
8
CUT
10
138.0530
20
103.6902
0
VERTEX
8
CUT
10
137.9092
20
103.5139
0
VERTEX
8
CUT
10
137.7472
20
103.3543
0
VERTEX
8
CUT
10
136.7140
20
102.4408
0
VERTEX
8
CUT
10
136.5764
20
102.3292
0
VERTEX
8
CUT
10
136.4299
20
102.2295
0
VERTEX
8
CUT
10
136.2756
20
102.1426
0
VERTEX
8
CUT
10
135.1716
20
101.5807
0
VERTEX
8
CUT
10
134.9060
20
101.4678
0
VERTEX
8
CUT
10
133.5439
20
100.9963
0
VERTEX
8
CUT
10
133.3342
20
100.9357
0
VERTEX
8
CUT
10
133.1193
20
100.8973
0
VERTEX
8
CUT
10
132.9015
20
100.8813
0
VERTEX
8
CUT
10
132.6833
20
100.8880
0
VERTEX
8
CUT
10
132.2651
20
100.9227
0
VERTEX
8
CUT
10
132.0500
20
100.9518
0
VERTEX
8
CUT
10
131.8391
20
101.0030
0
VERTEX
8
CUT
10
130.6918
20
101.3449
0
VERTEX
8
CUT
10
130.5398
20
101.3966
0
VERTEX
8
CUT
10
130.3921
20
101.4597
0
VERTEX
8
CUT
10
128.4321
20
102.3886
0
VERTEX
8
CUT
10
128.2343
20
102.4957
0
VERTEX
8
CUT
10
128.0491
20
102.6233
0
SEQEND
0
POLYLINE
8
CUT
66
1
70
1
10
0.0
20
0.0
30
0.0
0
VERTEX
8
CUT
10
115.4626
20
167.2195
0
VERTEX
8
CUT
10
115.4163
20
167.2253
0
VERTEX
8
CUT
10
115.3759
20
167.2293
0
VERTEX
8
CUT
10
115.2826
20
167.2339
0
VERTEX
8
CUT
10
115.2679
20
167.2339
0
VERTEX
8
CUT
10
115.1747
20
167.2294
0
VERTEX
8
CUT
10
115.1600
20
167.2279
0
VERTEX
8
CUT
10
115.0677
20
167.2142
0
VERTEX
8
CUT
10
115.0532
20
167.2114
0
VERTEX
8
CUT
10
114.9627
20
167.1887
0
VERTEX
8
CUT
10
114.9486
20
167.1844
0
VERTEX
8
CUT
10
114.8607
20
167.1529
0
VERTEX
8
CUT
10
114.8471
20
167.1473
0
VERTEX
8
CUT
10
114.7627
20
167.1073
0
VERTEX
8
CUT
10
114.7497
20
167.1003
0
VERTEX
8
CUT
10
114.6697
20
167.0522
0
VERTEX
8
CUT
10
114.6575
20
167.0441
0
VERTEX
8
CUT
10
114.5825
20
166.9883
0
VERTEX
8
CUT
10
114.5712
20
166.9790
0
VERTEX
8
CUT
10
114.5021
20
166.9162
0
VERTEX
8
CUT
10
114.4917
20
166.9058
0
VERTEX
8
CUT
10
114.4291
20
166.8365
0
VERTEX
8
CUT
10
114.4198
20
166.8251
0
VERTEX
8
CUT
10
114.3643
20
166.7500
0
VERTEX
8
CUT
10
114.3561
20
166.7378
0
VERTEX
8
CUT
10
114.3083
20
166.6575
0
VERTEX
8
CUT
10
114.3014
20
166.6446
0
VERTEX
8
CUT
10
114.2617
20
166.5601
0
VERTEX
8
CUT
10
114.2561
20
166.5465
0
VERTEX
8
CUT
10
114.2248
20
166.4584
0
VERTEX
8
CUT
10
114.2206
20
166.4444
0
VERTEX
8
CUT
10
114.1982
20
166.3537
0
VERTEX
8
CUT
10
114.1954
20
166.3393
0
VERTEX
8
CUT
10
114.1819
20
166.2469
0
VERTEX
8
CUT
10
114.1805
20
166.2322
0
VERTEX
8
CUT
10
114.1763
20
166.1390
0
VERTEX
8
CUT
10
114.1763
20
166.1243
0
VERTEX
8
CUT
10
114.1812
20
166.0310
0
VERTEX
8
CUT
10
114.1827
20
166.0164
0
VERTEX
8
CUT
10
114.1968
20
165.9240
0
VERTEX
8
CUT
10
114.1997
20
165.9096
0
VERTEX
8
CUT
10
114.2228
20
165.8191
0
VERTEX
8
CUT
10
114.2271
20
165.8051
0
VERTEX
8
CUT
10
114.2589
20
165.7173
0
VERTEX
8
CUT
10
114.2646
20
165.7037
0
VERTEX
8
CUT
10
114.3049
20
165.6195
0
VERTEX
8
CUT
10
114.3119
20
165.6066
0
VERTEX
8
CUT
10
114.3603
20
165.5267
0
VERTEX
8
CUT
10
114.3685
20
165.5145
0
VERTEX
8
CUT
10
114.4245
20
165.4398
0
VERTEX
8
CUT
10
114.4339
20
165.4285
0
VERTEX
8
CUT
10
114.4970
20
165.3596
0
VERTEX
8
CUT
10
114.5074
20
165.3493
0
VERTEX
8
CUT
10
114.5770
20
165.2869
0
VERTEX
8
CUT
10
114.5884
20
165.2777
0
VERTEX
8
CUT
10
114.6637
20
165.2225
0
VERTEX
8
CUT
10
114.6760
20
165.2144
0
VERTEX
8
CUT
10
114.7564
20
165.1668
0
VERTEX
8
CUT
10
114.7922
20
165.1479
0
VERTEX
8
CUT
10
114.8341
20
165.1272
0
VERTEX
8
CUT
10
115.6605
20
164.7426
0
VERTEX
8
CUT
10
115.7028
20
164.7241
0
VERTEX
8
CUT
10
115.7398
20
164.7091
0
VERTEX
8
CUT
10
115.8266
20
164.6785
0
VERTEX
8
CUT
10
115.8405
20
164.6743
0
VERTEX
8
CUT
10
115.9299
20
164.6523
0
VERTEX
8
CUT
10
115.9441
20
164.6495
0
VERTEX
8
CUT
10
116.0352
20
164.6363
0
VERTEX
8
CUT
10
116.0497
20
164.6349
0
VERTEX
8
CUT
10
116.1416
20
164.6305
0
VERTEX
8
CUT
10
116.1561
20
164.6305
0
VERTEX
8
CUT
10
116.2481
20
164.6351
0
VERTEX
8
CUT
10
116.2625
20
164.6365
0
VERTEX
8
CUT
10
116.3536
20
164.6499
0
VERTEX
8
CUT
10
116.3678
20
164.6527
0
VERTEX
8
CUT
10
116.4571
20
164.6750
0
VERTEX
8
CUT
10
116.4710
20
164.6791
0
VERTEX
8
CUT
10
116.5578
20
164.7099
0
VERTEX
8
CUT
10
116.5712
20
164.7154
0
VERTEX
8
CUT
10
116.6546
20
164.7544
0
VERTEX
8
CUT
10
116.6674
20
164.7612
0
VERTEX
8
CUT
10
116.7466
20
164.8081
0
VERTEX
8
CUT
10
116.7587
20
164.8161
0
VERTEX
8
CUT
10
116.8331
20
164.8704
0
VERTEX
8
CUT
10
116.8443
20
164.8795
0
VERTEX
8
CUT
10
116.9130
20
164.9408
0
VERTEX
8
CUT
10
116.9233
20
164.9510
0
VERTEX
8
CUT
10
116.9858
20
165.0187
0
VERTEX
8
CUT
10
116.9951
20
165.0298
0
VERTEX
8
CUT
10
117.0506
20
165.1032
0
VERTEX
8
CUT
10
117.0588
20
165.1152
0
VERTEX
8
CUT
10
117.1070
20
165.1936
0
VERTEX
8
CUT
10
117.1140
20
165.2063
0
VERTEX
8
CUT
10
117.1544
20
165.2890
0
VERTEX
8
CUT
10
117.1601
20
165.3024
0
VERTEX
8
CUT
10
117.1923
20
165.3886
0
VERTEX
8
CUT
10
117.1967
20
165.4024
0
VERTEX
8
CUT
10
117.2204
20
165.4914
0
VERTEX
8
CUT
10
117.2234
20
165.5056
0
VERTEX
8
CUT
10
117.2383
20
165.5964
0
VERTEX
8
CUT
10
117.2400
20
165.6108
0
VERTEX
8
CUT
10
117.2461
20
165.7027
0
VERTEX
8
CUT
10
117.2463
20
165.7172
0
VERTEX
8
CUT
10
117.2435
20
165.8092
0
VERTEX
8
CUT
10
117.2423
20
165.8236
0
VERTEX
8
CUT
10
117.2305
20
165.9150
0
VERTEX
8
CUT
10
117.2280
20
165.9292
0
VERTEX
8
CUT
10
117.2074
20
166.0190
0
VERTEX
8
CUT
10
117.2035
20
166.0329
0
VERTEX
8
CUT
10
117.1744
20
166.1203
0
VERTEX
8
CUT
10
117.1691
20
166.1338
0
VERTEX
8
CUT
10
117.1317
20
166.2179
0
VERTEX
8
CUT
10
117.1251
20
166.2308
0
VERTEX
8
CUT
10
117.0797
20
166.3109
0
VERTEX
8
CUT
10
117.0719
20
166.3231
0
VERTEX
8
CUT
10
117.0190
20
166.3984
0
VERTEX
8
CUT
10
117.0100
20
166.4099
0
VERTEX
8
CUT
10
116.9500
20
166.4797
0
VERTEX
8
CUT
10
116.9400
20
166.4902
0
VERTEX
8
CUT
10
116.8735
20
166.5538
0
VERTEX
8
CUT
10
116.8626
20
166.5633
0
VERTEX
8
CUT
10
116.7902
20
166.6203
0
VERTEX
8
CUT
10
116.7577
20
166.6434
0
VERTEX
8
CUT
10
116.7195
20
166.6692
0
VERTEX
8
CUT
10
116.2021
20
167.0005
0
VERTEX
8
CUT
10
116.1593
20
167.0263
0
VERTEX
8
CUT
10
116.1215
20
167.0478
0
VERTEX
8
CUT
10
116.0321
20
167.0925
0
VERTEX
8
CUT
10
116.0177
20
167.0988
0
VERTEX
8
CUT
10
115.9241
20
167.1339
0
VERTEX
8
CUT
10
115.9091
20
167.1387
0
VERTEX
8
CUT
10
115.8123
20
167.1637
0
VERTEX
8
CUT
10
115.7698
20
167.1724
0
VERTEX
8
CUT
10
115.7205
20
167.1811
0
SEQEND
0
POLYLINE
8
CUT
66
1
70
1
10
0.0
20
0.0
30
0.0
0
VERTEX
8
CUT
10
73.1224
20
151.7312
0
VERTEX
8
CUT
10
73.2729
20
151.6916
0
VERTEX
8
CUT
10
73.4647
20
151.6205
0
VERTEX
8
CUT
10
73.6486
20
151.5312
0
VERTEX
8
CUT
10
73.8230
20
151.4243
0
VERTEX
8
CUT
10
73.9862
20
151.3010
0
VERTEX
8
CUT
10
74.1366
20
151.1623
0
VERTEX
8
CUT
10
74.1391
20
151.1598
0
VERTEX
8
CUT
10
74.1498
20
151.1500
0
VERTEX
8
CUT
10
74.2209
20
151.0906
0
VERTEX
8
CUT
10
74.2325
20
151.0818
0
VERTEX
8
CUT
10
74.3091
20
151.0297
0
VERTEX
8
CUT
10
74.3215
20
151.0220
0
VERTEX
8
CUT
10
74.4028
20
150.9776
0
VERTEX
8
CUT
10
74.4159
20
150.9712
0
VERTEX
8
CUT
10
74.5011
20
150.9349
0
VERTEX
8
CUT
10
74.5147
20
150.9299
0
VERTEX
8
CUT
10
74.6031
20
150.9020
0
VERTEX
8
CUT
10
74.6420
20
150.8918
0
VERTEX
8
CUT
10
74.6871
20
150.8811
0
VERTEX
8
CUT
10
74.9505
20
150.8256
0
VERTEX
8
CUT
10
74.9753
20
150.8202
0
VERTEX
8
CUT
10
74.9953
20
150.8158
0
VERTEX
8
CUT
10
75.0850
20
150.7936
0
VERTEX
8
CUT
10
75.1536
20
150.7751
0
VERTEX
8
CUT
10
75.1680
20
150.7720
0
VERTEX
8
CUT
10
75.2608
20
150.7565
0
VERTEX
8
CUT
10
75.2754
20
150.7548
0
VERTEX
8
CUT
10
75.3693
20
150.7486
0
VERTEX
8
CUT
10
75.3841
20
150.7484
0
VERTEX
8
CUT
10
75.4780
20
150.7515
0
VERTEX
8
CUT
10
75.4928
20
150.7528
0
VERTEX
8
CUT
10
75.5860
20
150.7652
0
VERTEX
8
CUT
10
75.6005
20
150.7679
0
VERTEX
8
CUT
10
75.6920
20
150.7894
0
VERTEX
8
CUT
10
75.7062
20
150.7935
0
VERTEX
8
CUT
10
75.7952
20
150.8240
0
VERTEX
8
CUT
10
75.8089
20
150.8295
0
VERTEX
8
CUT
10
75.8944
20
150.8687
0
VERTEX
8
CUT
10
75.9075
20
150.8755
0
VERTEX
8
CUT
10
75.9887
20
150.9229
0
VERTEX
8
CUT
10
76.0011
20
150.9310
0
VERTEX
8
CUT
10
76.0772
20
150.9862
0
VERTEX
8
CUT
10
76.0887
20
150.9955
0
VERTEX
8
CUT
10
76.1590
20
151.0580
0
VERTEX
8
CUT
10
76.1695
20
151.0684
0
VERTEX
8
CUT
10
76.2333
20
151.1375
0
VERTEX
8
CUT
10
76.2427
20
151.1488
0
VERTEX
8
CUT
10
76.2993
20
151.2239
0
VERTEX
8
CUT
10
76.3076
20
151.2362
0
VERTEX
8
CUT
10
76.3565
20
151.3165
0
VERTEX
8
CUT
10
76.3636
20
151.3295
0
VERTEX
8
CUT
10
76.4042
20
151.4143
0
VERTEX
8
CUT
10
76.4100
20
151.4279
0
VERTEX
8
CUT
10
76.4421
20
151.5163
0
VERTEX
8
CUT
10
76.4465
20
151.5304
0
VERTEX
8
CUT
10
76.4697
20
151.6215
0
VERTEX
8
CUT
10
76.4726
20
151.6360
0
VERTEX
8
CUT
10
76.4867
20
151.7290
0
VERTEX
8
CUT
10
76.4882
20
151.7437
0
VERTEX
8
CUT
10
76.4930
20
151.8376
0
VERTEX
8
CUT
10
76.4930
20
151.8524
0
VERTEX
8
CUT
10
76.4885
20
151.9463
0
VERTEX
8
CUT
10
76.4871
20
151.9610
0
VERTEX
8
CUT
10
76.4733
20
152.0540
0
VERTEX
8
CUT
10
76.4704
20
152.0685
0
VERTEX
8
CUT
10
76.4476
20
152.1597
0
VERTEX
8
CUT
10
76.4432
20
152.1739
0
VERTEX
8
CUT
10
76.4114
20
152.2624
0
VERTEX
8
CUT
10
76.4058
20
152.2760
0
VERTEX
8
CUT
10
76.3654
20
152.3609
0
VERTEX
8
CUT
10
76.3460
20
152.3969
0
VERTEX
8
CUT
10
76.3227
20
152.4377
0
VERTEX
8
CUT
10
76.2983
20
152.4781
0
VERTEX
8
CUT
10
76.2741
20
152.5162
0
VERTEX
8
CUT
10
76.2523
20
152.5487
0
VERTEX
8
CUT
10
76.1986
20
152.6211
0
VERTEX
8
CUT
10
76.1896
20
152.6320
0
VERTEX
8
CUT
10
76.1293
20
152.6990
0
VERTEX
8
CUT
10
76.1018
20
152.7268
0
VERTEX
8
CUT
10
76.0693
20
152.7581
0
VERTEX
8
CUT
10
75.9658
20
152.8531
0
VERTEX
8
CUT
10
75.9320
20
152.8827
0
VERTEX
8
CUT
10
75.9020
20
152.9077
0
VERTEX
8
CUT
10
75.8304
20
152.9620
0
VERTEX
8
CUT
10
75.8187
20
152.9700
0
VERTEX
8
CUT
10
75.7423
20
153.0172
0
VERTEX
8
CUT
10
75.7299
20
153.0240
0
VERTEX
8
CUT
10
75.6494
20
153.0638
0
VERTEX
8
CUT
10
75.6364
20
153.0695
0
VERTEX
8
CUT
10
75.5524
20
153.1015
0
VERTEX
8
CUT
10
75.5390
20
153.1059
0
VERTEX
8
CUT
10
75.4524
20
153.1298
0
VERTEX
8
CUT
10
75.4386
20
153.1329
0
VERTEX
8
CUT
10
75.3501
20
153.1485
0
VERTEX
8
CUT
10
75.3361
20
153.1503
0
VERTEX
8
CUT
10
75.2465
20
153.1575
0
VERTEX
8
CUT
10
75.2324
20
153.1580
0
VERTEX
8
CUT
10
75.1425
20
153.1566
0
VERTEX
8
CUT
10
75.1284
20
153.1558
0
VERTEX
8
CUT
10
75.0391
20
153.1460
0
VERTEX
8
CUT
10
75.0251
20
153.1438
0
VERTEX
8
CUT
10
74.9372
20
153.1256
0
VERTEX
8
CUT
10
74.8994
20
153.1159
0
VERTEX
8
CUT
10
74.8561
20
153.1036
0
VERTEX
8
CUT
10
74.5897
20
153.0216
0
VERTEX
8
CUT
10
74.5457
20
153.0069
0
VERTEX
8
CUT
10
74.5079
20
152.9932
0
VERTEX
8
CUT
10
74.4225
20
152.9575
0
VERTEX
8
CUT
10
74.4093
20
152.9512
0
VERTEX
8
CUT
10
74.3278
20
152.9073
0
VERTEX
8
CUT
10
74.3153
20
152.8998
0
VERTEX
8
CUT
10
74.2384
20
152.8481
0
VERTEX
8
CUT
10
74.2267
20
152.8394
0
VERTEX
8
CUT
10
74.1553
20
152.7805
0
VERTEX
8
CUT
10
74.1445
20
152.7707
0
VERTEX
8
CUT
10
74.0791
20
152.7051
0
VERTEX
8
CUT
10
74.0693
20
152.6943
0
VERTEX
8
CUT
10
74.0106
20
152.6227
0
VERTEX
8
CUT
10
74.0019
20
152.6110
0
VERTEX
8
CUT
10
73.9505
20
152.5340
0
VERTEX
8
CUT
10
73.9289
20
152.4981
0
VERTEX
8
CUT
10
73.8126
20
152.3243
0
VERTEX
8
CUT
10
73.6796
20
152.1630
0
VERTEX
8
CUT
10
73.5312
20
152.0157
0
VERTEX
8
CUT
10
73.3689
20
151.8839
0
VERTEX
8
CUT
10
73.1943
20
151.7689
0
SEQEND
0
POLYLINE
8
CUT
66
1
70
1
10
0.0
20
0.0
30
0.0
0
VERTEX
8
CUT
10
65.4948
20
151.6813
0
VERTEX
8
CUT
10
65.3072
20
151.7398
0
VERTEX
8
CUT
10
65.1258
20
151.8157
0
VERTEX
8
CUT
10
64.9524
20
151.9081
0
VERTEX
8
CUT
10
64.7883
20
152.0164
0
VERTEX
8
CUT
10
64.6351
20
152.1395
0
VERTEX
8
CUT
10
64.3011
20
152.4347
0
VERTEX
8
CUT
10
64.2652
20
152.4648
0
VERTEX
8
CUT
10
64.2335
20
152.4902
0
VERTEX
8
CUT
10
64.1577
20
152.5449
0
VERTEX
8
CUT
10
64.1453
20
152.5529
0
VERTEX
8
CUT
10
64.0645
20
152.6000
0
VERTEX
8
CUT
10
64.0514
20
152.6067
0
VERTEX
8
CUT
10
63.9663
20
152.6455
0
VERTEX
8
CUT
10
63.9526
20
152.6510
0
VERTEX
8
CUT
10
63.8642
20
152.6813
0
VERTEX
8
CUT
10
63.8500
20
152.6853
0
VERTEX
8
CUT
10
63.7590
20
152.7067
0
VERTEX
8
CUT
10
63.7445
20
152.7094
0
VERTEX
8
CUT
10
63.6518
20
152.7217
0
VERTEX
8
CUT
10
63.6371
20
152.7230
0
VERTEX
8
CUT
10
63.5436
20
152.7261
0
VERTEX
8
CUT
10
63.5289
20
152.7259
0
VERTEX
8
CUT
10
63.4356
20
152.7199
0
VERTEX
8
CUT
10
63.4210
20
152.7182
0
VERTEX
8
CUT
10
63.3287
20
152.7030
0
VERTEX
8
CUT
10
63.3143
20
152.6999
0
VERTEX
8
CUT
10
63.2239
20
152.6757
0
VERTEX
8
CUT
10
63.2099
20
152.6712
0
VERTEX
8
CUT
10
63.1224
20
152.6382
0
VERTEX
8
CUT
10
63.1089
20
152.6323
0
VERTEX
8
CUT
10
63.0251
20
152.5909
0
VERTEX
8
CUT
10
63.0122
20
152.5837
0
VERTEX
8
CUT
10
62.9328
20
152.5342
0
VERTEX
8
CUT
10
62.9207
20
152.5258
0
VERTEX
8
CUT
10
62.8466
20
152.4688
0
VERTEX
8
CUT
10
62.8354
20
152.4592
0
VERTEX
8
CUT
10
62.7673
20
152.3952
0
VERTEX
8
CUT
10
62.7571
20
152.3846
0
VERTEX
8
CUT
10
62.6956
20
152.3141
0
VERTEX
8
CUT
10
62.6865
20
152.3026
0
VERTEX
8
CUT
10
62.6322
20
152.2264
0
VERTEX
8
CUT
10
62.6242
20
152.2140
0
VERTEX
8
CUT
10
62.5777
20
152.1328
0
VERTEX
8
CUT
10
62.5711
20
152.1197
0
VERTEX
8
CUT
10
62.5327
20
152.0344
0
VERTEX
8
CUT
10
62.5180
20
151.9966
0
VERTEX
8
CUT
10
62.5020
20
151.9526
0
VERTEX
8
CUT
10
62.1000
20
150.7530
0
VERTEX
8
CUT
10
62.0854
20
150.7054
0
VERTEX
8
CUT
10
62.0739
20
150.6638
0
VERTEX
8
CUT
10
62.0523
20
150.5666
0
VERTEX
8
CUT
10
62.0497
20
150.5511
0
VERTEX
8
CUT
10
62.0384
20
150.4522
0
VERTEX
8
CUT
10
62.0375
20
150.4366
0
VERTEX
8
CUT
10
62.0366
20
150.3371
0
VERTEX
8
CUT
10
62.0373
20
150.3214
0
VERTEX
8
CUT
10
62.0469
20
150.2223
0
VERTEX
8
CUT
10
62.0492
20
150.2068
0
VERTEX
8
CUT
10
62.0691
20
150.1093
0
VERTEX
8
CUT
10
62.0799
20
150.0675
0
VERTEX
8
CUT
10
62.0937
20
150.0196
0
VERTEX
8
CUT
10
62.1266
20
149.9154
0
VERTEX
8
CUT
10
62.1428
20
149.8686
0
VERTEX
8
CUT
10
62.1579
20
149.8284
0
VERTEX
8
CUT
10
62.1973
20
149.7376
0
VERTEX
8
CUT
10
62.2043
20
149.7237
0
VERTEX
8
CUT
10
62.2530
20
149.6376
0
VERTEX
8
CUT
10
62.2760
20
149.6014
0
VERTEX
8
CUT
10
62.3037
20
149.5603
0
VERTEX
8
CUT
10
62.5500
20
149.2146
0
VERTEX
8
CUT
10
62.5806
20
149.1740
0
VERTEX
8
CUT
10
62.6080
20
149.1395
0
VERTEX
8
CUT
10
62.6754
20
149.0635
0
VERTEX
8
CUT
10
62.6867
20
149.0522
0
VERTEX
8
CUT
10
62.7618
20
148.9839
0
VERTEX
8
CUT
10
62.7960
20
148.9560
0
VERTEX
8
CUT
10
62.8362
20
148.9249
0
VERTEX
8
CUT
10
63.7379
20
148.2665
0
VERTEX
8
CUT
10
63.7737
20
148.2416
0
VERTEX
8
CUT
10
63.8052
20
148.2208
0
VERTEX
8
CUT
10
63.8799
20
148.1761
0
VERTEX
8
CUT
10
63.8920
20
148.1696
0
VERTEX
8
CUT
10
63.9705
20
148.1319
0
VERTEX
8
CUT
10
63.9831
20
148.1266
0
VERTEX
8
CUT
10
64.0647
20
148.0963
0
VERTEX
8
CUT
10
64.0777
20
148.0921
0
VERTEX
8
CUT
10
64.1618
20
148.0694
0
VERTEX
8
CUT
10
64.1752
20
148.0664
0
VERTEX
8
CUT
10
64.2610
20
148.0515
0
VERTEX
8
CUT
10
64.2984
20
148.0468
0
VERTEX
8
CUT
10
64.3418
20
148.0423
0
VERTEX
8
CUT
10
65.0860
20
147.9824
0
VERTEX
8
CUT
10
65.1373
20
147.9796
0
VERTEX
8
CUT
10
65.1818
20
147.9784
0
VERTEX
8
CUT
10
65.2844
20
147.9813
0
VERTEX
8
CUT
10
65.3005
20
147.9826
0
VERTEX
8
CUT
10
65.4021
20
147.9965
0
VERTEX
8
CUT
10
65.4459
20
148.0049
0
VERTEX
8
CUT
10
65.4960
20
148.0160
0
VERTEX
8
CUT
10
66.0280
20
148.1485
0
VERTEX
8
CUT
10
66.0798
20
148.1630
0
VERTEX
8
CUT
10
66.1243
20
148.1768
0
VERTEX
8
CUT
10
66.2250
20
148.2144
0
VERTEX
8
CUT
10
66.2676
20
148.2332
0
VERTEX
8
CUT
10
66.3162
20
148.2562
0
VERTEX
8
CUT
10
70.3548
20
150.3109
0
VERTEX
8
CUT
10
70.3957
20
150.3329
0
VERTEX
8
CUT
10
70.4307
20
150.3530
0
VERTEX
8
CUT
10
70.5090
20
150.4030
0
VERTEX
8
CUT
10
70.5209
20
150.4114
0
VERTEX
8
CUT
10
70.5939
20
150.4689
0
VERTEX
8
CUT
10
70.6049
20
150.4784
0
VERTEX
8
CUT
10
70.6720
20
150.5427
0
VERTEX
8
CUT
10
70.6820
20
150.5534
0
VERTEX
8
CUT
10
70.7425
20
150.6239
0
VERTEX
8
CUT
10
70.7514
20
150.6354
0
VERTEX
8
CUT
10
70.8047
20
150.7115
0
VERTEX
8
CUT
10
70.8399
20
150.7674
0
VERTEX
8
CUT
10
70.8401
20
150.7673
0
VERTEX
8
CUT
10
70.9190
20
150.8928
0
VERTEX
8
CUT
10
71.0443
20
151.0545
0
VERTEX
8
CUT
10
71.1846
20
151.2032
0
VERTEX
8
CUT
10
71.3388
20
151.3376
0
VERTEX
8
CUT
10
71.5054
20
151.4564
0
VERTEX
8
CUT
10
71.6448
20
151.5366
0
VERTEX
8
CUT
10
71.5796
20
151.5508
0
VERTEX
8
CUT
10
71.3807
20
151.6154
0
VERTEX
8
CUT
10
71.1892
20
151.6994
0
VERTEX
8
CUT
10
71.0071
20
151.8021
0
VERTEX
8
CUT
10
70.8361
20
151.9223
0
VERTEX
8
CUT
10
70.6778
20
152.0590
0
VERTEX
8
CUT
10
70.6322
20
152.1026
0
VERTEX
8
CUT
10
70.5619
20
152.1634
0
VERTEX
8
CUT
10
70.5504
20
152.1724
0
VERTEX
8
CUT
10
70.4745
20
152.2260
0
VERTEX
8
CUT
10
70.4622
20
152.2338
0
VERTEX
8
CUT
10
70.3815
20
152.2798
0
VERTEX
8
CUT
10
70.3684
20
152.2864
0
VERTEX
8
CUT
10
70.2836
20
152.3242
0
VERTEX
8
CUT
10
70.2700
20
152.3295
0
VERTEX
8
CUT
10
70.1819
20
152.3589
0
VERTEX
8
CUT
10
70.1678
20
152.3628
0
VERTEX
8
CUT
10
70.0772
20
152.3835
0
VERTEX
8
CUT
10
70.0628
20
152.3860
0
VERTEX
8
CUT
10
69.9707
20
152.3977
0
VERTEX
8
CUT
10
69.9561
20
152.3988
0
VERTEX
8
CUT
10
69.8632
20
152.4014
0
VERTEX
8
CUT
10
69.8486
20
152.4011
0
VERTEX
8
CUT
10
69.7559
20
152.3946
0
VERTEX
8
CUT
10
69.7414
20
152.3929
0
VERTEX
8
CUT
10
69.6498
20
152.3774
0
VERTEX
8
CUT
10
69.6105
20
152.3687
0
VERTEX
8
CUT
10
69.5653
20
152.3576
0
VERTEX
8
CUT
10
66.8434
20
151.6171
0
VERTEX
8
CUT
10
66.6295
20
151.5708
0
VERTEX
8
CUT
10
66.4120
20
151.5469
0
VERTEX
8
CUT
10
66.1932
20
151.5458
0
VERTEX
8
CUT
10
65.9755
20
151.5675
0
VERTEX
8
CUT
10
65.7612
20
151.6117
0
SEQEND
0
ENDSEC
0
EOF
