0
SECTION
2
HEADER
9
$ACADVER
1
AC1009
9
$INSUNITS
70
4
0
ENDSEC
0
SECTION
2
TABLES
0
TABLE
2
LAYER
70
1
0
LAYER
2
CUT
70
0
62
7
6
CONTINUOUS
0
ENDTAB
0
ENDSEC
0
SECTION
2
ENTITIES
0
POLYLINE
8
CUT
66
1
70
1
10
0.0
20
0.0
30
0.0
0
VERTEX
8
CUT
10
98.4315
20
63.6082
0
VERTEX
8
CUT
10
98.8939
20
63.7372
0
VERTEX
8
CUT
10
100.4839
20
64.5882
0
VERTEX
8
CUT
10
102.0327
20
65.7186
0
VERTEX
8
CUT
10
103.0541
20
66.6209
0
VERTEX
8
CUT
10
103.2056
20
66.7448
0
VERTEX
8
CUT
10
103.2136
20
66.7617
0
VERTEX
8
CUT
10
103.4904
20
67.0062
0
VERTEX
8
CUT
10
103.5732
20
67.4053
0
VERTEX
8
CUT
10
103.2159
20
67.6626
0
VERTEX
8
CUT
10
98.7725
20
67.4152
0
VERTEX
8
CUT
10
97.0565
20
67.6963
0
VERTEX
8
CUT
10
95.3815
20
68.3248
0
VERTEX
8
CUT
10
93.8915
20
69.0692
0
VERTEX
8
CUT
10
93.7016
20
69.1907
0
VERTEX
8
CUT
10
93.6168
20
69.2450
0
VERTEX
8
CUT
10
92.6071
20
69.8911
0
VERTEX
8
CUT
10
92.5549
20
69.9245
0
VERTEX
8
CUT
10
92.2950
20
70.1026
0
VERTEX
8
CUT
10
91.5915
20
70.6510
0
VERTEX
8
CUT
10
89.9043
20
72.3150
0
VERTEX
8
CUT
10
89.5051
20
73.3364
0
VERTEX
8
CUT
10
89.7674
20
73.7800
0
VERTEX
8
CUT
10
90.1112
20
73.9376
0
VERTEX
8
CUT
10
94.3533
20
73.0995
0
VERTEX
8
CUT
10
96.0552
20
73.1628
0
VERTEX
8
CUT
10
97.7773
20
73.5651
0
VERTEX
8
CUT
10
99.5983
20
74.2965
0
VERTEX
8
CUT
10
100.9317
20
75.0940
0
VERTEX
8
CUT
10
102.0874
20
75.9898
0
VERTEX
8
CUT
10
102.4859
20
76.2653
0
VERTEX
8
CUT
10
102.5329
20
76.3350
0
VERTEX
8
CUT
10
102.9162
20
76.6322
0
VERTEX
8
CUT
10
102.9986
20
76.7245
0
VERTEX
8
CUT
10
102.8460
20
76.7999
0
VERTEX
8
CUT
10
102.9743
20
76.9903
0
VERTEX
8
CUT
10
102.5996
20
77.3070
0
VERTEX
8
CUT
10
102.2844
20
77.2879
0
VERTEX
8
CUT
10
102.2659
20
77.3170
0
VERTEX
8
CUT
10
102.2123
20
77.4234
0
VERTEX
8
CUT
10
102.1775
20
77.5139
0
VERTEX
8
CUT
10
102.0589
20
77.4695
0
VERTEX
8
CUT
10
99.7055
20
77.4125
0
VERTEX
8
CUT
10
97.9611
20
77.7219
0
VERTEX
8
CUT
10
96.6269
20
78.2256
0
VERTEX
8
CUT
10
96.5049
20
78.2923
0
VERTEX
8
CUT
10
95.5203
20
78.9189
0
VERTEX
8
CUT
10
94.1119
20
79.9700
0
VERTEX
8
CUT
10
93.6444
20
80.4448
0
VERTEX
8
CUT
10
92.6988
20
81.5310
0
VERTEX
8
CUT
10
91.7343
20
83.0172
0
VERTEX
8
CUT
10
91.6407
20
83.3373
0
VERTEX
8
CUT
10
91.6577
20
83.6621
0
VERTEX
8
CUT
10
91.6867
20
83.7509
0
VERTEX
8
CUT
10
91.8836
20
83.9187
0
VERTEX
8
CUT
10
92.3655
20
84.0302
0
VERTEX
8
CUT
10
93.4479
20
83.6773
0
VERTEX
8
CUT
10
93.6595
20
83.6083
0
VERTEX
8
CUT
10
93.6891
20
83.5987
0
VERTEX
8
CUT
10
93.6940
20
83.5971
0
VERTEX
8
CUT
10
95.6375
20
82.8889
0
VERTEX
8
CUT
10
97.5794
20
82.6503
0
VERTEX
8
CUT
10
100.5194
20
83.2004
0
VERTEX
8
CUT
10
102.8923
20
84.1411
0
VERTEX
8
CUT
10
104.4644
20
82.6464
0
VERTEX
8
CUT
10
105.0645
20
81.5512
0
VERTEX
8
CUT
10
104.8811
20
80.7910
0
VERTEX
8
CUT
10
104.1743
20
79.9057
0
VERTEX
8
CUT
10
104.2690
20
79.8970
0
VERTEX
8
CUT
10
104.3862
20
79.8802
0
VERTEX
8
CUT
10
104.5011
20
79.8521
0
VERTEX
8
CUT
10
104.6127
20
79.8127
0
VERTEX
8
CUT
10
104.7198
20
79.7626
0
VERTEX
8
CUT
10
104.8215
20
79.7021
0
VERTEX
8
CUT
10
104.9168
20
79.6319
0
VERTEX
8
CUT
10
105.0020
20
79.5551
0
VERTEX
8
CUT
10
105.6991
20
80.3726
0
VERTEX
8
CUT
10
106.0303
20
80.6048
0
VERTEX
8
CUT
10
106.4620
20
80.5682
0
VERTEX
8
CUT
10
107.5917
20
79.9407
0
VERTEX
8
CUT
10
109.3358
20
78.5276
0
VERTEX
8
CUT
10
110.2442
20
77.1370
0
VERTEX
8
CUT
10
112.1002
20
75.1572
0
VERTEX
8
CUT
10
112.2519
20
74.7340
0
VERTEX
8
CUT
10
112.1593
20
74.0152
0
VERTEX
8
CUT
10
111.4507
20
72.6703
0
VERTEX
8
CUT
10
111.1845
20
71.7446
0
VERTEX
8
CUT
10
111.4501
20
71.3293
0
VERTEX
8
CUT
10
112.6876
20
71.0723
0
VERTEX
8
CUT
10
112.8775
20
70.5557
0
VERTEX
8
CUT
10
112.8778
20
70.5502
0
VERTEX
8
CUT
10
112.8778
20
70.5496
0
VERTEX
8
CUT
10
112.8780
20
70.5457
0
VERTEX
8
CUT
10
112.8784
20
70.5373
0
VERTEX
8
CUT
10
112.8213
20
69.7867
0
VERTEX
8
CUT
10
111.9083
20
67.4386
0
VERTEX
8
CUT
10
111.8620
20
65.2628
0
VERTEX
8
CUT
10
111.5814
20
64.4046
0
VERTEX
8
CUT
10
108.3727
20
60.8542
0
VERTEX
8
CUT
10
107.3918
20
57.8224
0
VERTEX
8
CUT
10
106.4850
20
56.5585
0
VERTEX
8
CUT
10
104.0198
20
54.7512
0
VERTEX
8
CUT
10
103.0620
20
53.0228
0
VERTEX
8
CUT
10
102.2520
20
52.1749
0
VERTEX
8
CUT
10
99.5822
20
50.5149
0
VERTEX
8
CUT
10
99.0056
20
50.5037
0
VERTEX
8
CUT
10
98.4868
20
50.8949
0
VERTEX
8
CUT
10
97.5324
20
53.4087
0
VERTEX
8
CUT
10
97.2177
20
53.4904
0
VERTEX
8
CUT
10
96.0705
20
53.1330
0
VERTEX
8
CUT
10
95.4480
20
53.4481
0
VERTEX
8
CUT
10
95.2801
20
54.0419
0
VERTEX
8
CUT
10
95.4466
20
58.7547
0
VERTEX
8
CUT
10
91.9591
20
60.8570
0
VERTEX
8
CUT
10
91.2026
20
61.6684
0
VERTEX
8
CUT
10
91.1496
20
61.8084
0
VERTEX
8
CUT
10
91.1485
20
61.8111
0
VERTEX
8
CUT
10
91.1388
20
61.8368
0
VERTEX
8
CUT
10
91.0550
20
62.0580
0
VERTEX
8
CUT
10
91.0419
20
62.1333
0
VERTEX
8
CUT
10
91.2186
20
62.4410
0
VERTEX
8
CUT
10
91.9122
20
62.6475
0
VERTEX
8
CUT
10
92.3483
20
62.6802
0
VERTEX
8
CUT
10
95.1181
20
62.6837
0
VERTEX
8
CUT
10
96.4830
20
63.0645
0
VERTEX
8
CUT
10
98.0551
20
63.4199
0
SEQEND
0
POLYLINE
8
CUT
66
1
70
1
10
0.0
20
0.0
30
0.0
0
VERTEX
8
CUT
10
206.5505
20
108.0769
0
VERTEX
8
CUT
10
206.7136
20
108.5253
0
VERTEX
8
CUT
10
207.3561
20
109.0150
0
VERTEX
8
CUT
10
208.9020
20
109.6460
0
VERTEX
8
CUT
10
209.7858
20
109.7650
0
VERTEX
8
CUT
10
210.8737
20
108.3411
0
VERTEX
8
CUT
10
214.3063
20
104.9977
0
VERTEX
8
CUT
10
216.6729
20
102.1366
0
VERTEX
8
CUT
10
220.2056
20
95.8180
0
VERTEX
8
CUT
10
221.2592
20
93.0392
0
VERTEX
8
CUT
10
221.3432
20
93.0687
0
VERTEX
8
CUT
10
221.4035
20
93.0833
0
VERTEX
8
CUT
10
222.3069
20
90.7459
0
VERTEX
8
CUT
10
223.0121
20
88.5596
0
VERTEX
8
CUT
10
222.9945
20
88.5514
0
VERTEX
8
CUT
10
222.9647
20
88.5409
0
VERTEX
8
CUT
10
223.0220
20
88.3897
0
VERTEX
8
CUT
10
225.1552
20
80.2865
0
VERTEX
8
CUT
10
226.4478
20
72.0633
0
VERTEX
8
CUT
10
226.7936
20
66.3787
0
VERTEX
8
CUT
10
226.8394
20
63.7946
0
VERTEX
8
CUT
10
226.7515
20
61.3227
0
VERTEX
8
CUT
10
226.5445
20
58.0441
0
VERTEX
8
CUT
10
226.5225
20
57.9044
0
VERTEX
8
CUT
10
226.4618
20
57.5200
0
VERTEX
8
CUT
10
226.2506
20
56.1825
0
VERTEX
8
CUT
10
226.2116
20
55.9350
0
VERTEX
8
CUT
10
225.0684
20
51.2188
0
VERTEX
8
CUT
10
222.6242
20
47.2440
0
VERTEX
8
CUT
10
221.8487
20
46.5539
0
VERTEX
8
CUT
10
219.8509
20
45.4419
0
VERTEX
8
CUT
10
218.5120
20
45.1818
0
VERTEX
8
CUT
10
217.4584
20
45.1102
0
VERTEX
8
CUT
10
216.2910
20
45.2462
0
VERTEX
8
CUT
10
213.9648
20
45.7730
0
VERTEX
8
CUT
10
212.7865
20
46.3024
0
VERTEX
8
CUT
10
211.8787
20
46.7534
0
VERTEX
8
CUT
10
211.7393
20
46.8227
0
VERTEX
8
CUT
10
211.5938
20
46.8950
0
VERTEX
8
CUT
10
210.7077
20
47.3352
0
VERTEX
8
CUT
10
208.1481
20
49.1240
0
VERTEX
8
CUT
10
207.5771
20
49.5501
0
VERTEX
8
CUT
10
207.5771
20
49.5502
0
VERTEX
8
CUT
10
207.5761
20
49.5509
0
VERTEX
8
CUT
10
207.0651
20
49.9322
0
VERTEX
8
CUT
10
202.7157
20
53.9123
0
VERTEX
8
CUT
10
197.3764
20
59.4021
0
VERTEX
8
CUT
10
194.9698
20
62.2010
0
VERTEX
8
CUT
10
188.3486
20
71.1000
0
VERTEX
8
CUT
10
184.7420
20
76.8738
0
VERTEX
8
CUT
10
183.4153
20
79.8327
0
VERTEX
8
CUT
10
182.8378
20
82.1548
0
VERTEX
8
CUT
10
182.7181
20
84.1607
0
VERTEX
8
CUT
10
182.9284
20
86.8330
0
VERTEX
8
CUT
10
184.4945
20
91.9389
0
VERTEX
8
CUT
10
184.6494
20
92.7975
0
VERTEX
8
CUT
10
184.8100
20
93.3151
0
VERTEX
8
CUT
10
184.8078
20
93.6753
0
VERTEX
8
CUT
10
185.0792
20
95.1793
0
VERTEX
8
CUT
10
185.0811
20
96.6998
0
VERTEX
8
CUT
10
184.8410
20
98.1300
0
VERTEX
8
CUT
10
184.4255
20
99.5118
0
VERTEX
8
CUT
10
183.0076
20
102.1731
0
VERTEX
8
CUT
10
181.9532
20
103.4699
0
VERTEX
8
CUT
10
179.9641
20
105.1919
0
VERTEX
8
CUT
10
179.6357
20
105.7081
0
VERTEX
8
CUT
10
179.7794
20
106.0491
0
VERTEX
8
CUT
10
181.0323
20
107.0007
0
VERTEX
8
CUT
10
185.9784
20
110.2092
0
VERTEX
8
CUT
10
187.4026
20
111.4871
0
VERTEX
8
CUT
10
188.3851
20
112.7688
0
VERTEX
8
CUT
10
189.3548
20
115.3857
0
VERTEX
8
CUT
10
189.2476
20
117.1924
0
VERTEX
8
CUT
10
188.4453
20
118.6148
0
VERTEX
8
CUT
10
185.8560
20
120.2862
0
VERTEX
8
CUT
10
185.6474
20
120.8563
0
VERTEX
8
CUT
10
192.4427
20
126.1383
0
VERTEX
8
CUT
10
195.0156
20
128.8937
0
VERTEX
8
CUT
10
196.8739
20
132.0576
0
VERTEX
8
CUT
10
200.1343
20
140.6104
0
VERTEX
8
CUT
10
202.4041
20
144.0880
0
VERTEX
8
CUT
10
204.8884
20
146.4819
0
VERTEX
8
CUT
10
207.6177
20
148.2539
0
VERTEX
8
CUT
10
210.2965
20
149.2749
0
VERTEX
8
CUT
10
212.7365
20
149.5784
0
VERTEX
8
CUT
10
214.8119
20
149.0193
0
VERTEX
8
CUT
10
216.1066
20
147.5091
0
VERTEX
8
CUT
10
216.3913
20
145.1247
0
VERTEX
8
CUT
10
216.0570
20
143.3296
0
VERTEX
8
CUT
10
215.3804
20
141.4276
0
VERTEX
8
CUT
10
214.4437
20
139.4975
0
VERTEX
8
CUT
10
212.0607
20
135.8424
0
VERTEX
8
CUT
10
211.0992
20
134.6805
0
VERTEX
8
CUT
10
208.3673
20
131.8481
0
VERTEX
8
CUT
10
206.6771
20
130.4813
0
VERTEX
8
CUT
10
206.5613
20
130.2047
0
VERTEX
8
CUT
10
206.7689
20
129.8598
0
VERTEX
8
CUT
10
207.1659
20
129.8517
0
VERTEX
8
CUT
10
207.9251
20
130.1439
0
VERTEX
8
CUT
10
208.0761
20
130.1777
0
VERTEX
8
CUT
10
208.3676
20
130.3142
0
VERTEX
8
CUT
10
210.5961
20
131.1719
0
VERTEX
8
CUT
10
213.0521
20
132.6779
0
VERTEX
8
CUT
10
213.9076
20
133.4394
0
VERTEX
8
CUT
10
214.6847
20
133.9635
0
VERTEX
8
CUT
10
215.3301
20
134.0744
0
VERTEX
8
CUT
10
215.5554
20
133.5688
0
VERTEX
8
CUT
10
215.2841
20
131.4689
0
VERTEX
8
CUT
10
214.9647
20
130.3582
0
VERTEX
8
CUT
10
213.9194
20
128.1783
0
VERTEX
8
CUT
10
211.2409
20
124.6443
0
VERTEX
8
CUT
10
208.4262
20
121.8597
0
VERTEX
8
CUT
10
206.4635
20
120.3185
0
VERTEX
8
CUT
10
203.3823
20
118.6840
0
VERTEX
8
CUT
10
201.2442
20
117.7796
0
VERTEX
8
CUT
10
196.9646
20
116.3600
0
VERTEX
8
CUT
10
196.8879
20
115.8366
0
VERTEX
8
CUT
10
197.6013
20
114.9859
0
VERTEX
8
CUT
10
198.5529
20
113.8396
0
VERTEX
8
CUT
10
199.5616
20
112.3514
0
VERTEX
8
CUT
10
200.3660
20
111.0698
0
VERTEX
8
CUT
10
201.4726
20
108.1981
0
VERTEX
8
CUT
10
201.8684
20
106.5613
0
VERTEX
8
CUT
10
202.7064
20
100.3422
0
VERTEX
8
CUT
10
203.5144
20
98.2687
0
VERTEX
8
CUT
10
203.4204
20
97.5488
0
VERTEX
8
CUT
10
202.9638
20
97.2305
0
VERTEX
8
CUT
10
202.0789
20
97.3386
0
VERTEX
8
CUT
10
200.3502
20
98.3701
0
VERTEX
8
CUT
10
198.2460
20
100.2178
0
VERTEX
8
CUT
10
197.8509
20
100.2307
0
VERTEX
8
CUT
10
197.6480
20
99.8914
0
VERTEX
8
CUT
10
198.7009
20
97.4318
0
VERTEX
8
CUT
10
200.1787
20
94.9149
0
VERTEX
8
CUT
10
201.9706
20
92.6704
0
VERTEX
8
CUT
10
202.9527
20
91.7588
0
VERTEX
8
CUT
10
203.4971
20
91.1709
0
VERTEX
8
CUT
10
203.8860
20
90.8924
0
VERTEX
8
CUT
10
203.9947
20
90.7916
0
VERTEX
8
CUT
10
206.2349
20
89.2057
0
VERTEX
8
CUT
10
208.5996
20
88.0236
0
VERTEX
8
CUT
10
211.1111
20
87.2552
0
VERTEX
8
CUT
10
213.6496
20
86.9014
0
VERTEX
8
CUT
10
216.7147
20
87.0756
0
VERTEX
8
CUT
10
217.8499
20
87.3456
0
VERTEX
8
CUT
10
218.1394
20
87.3812
0
VERTEX
8
CUT
10
218.2227
20
87.4342
0
VERTEX
8
CUT
10
219.4131
20
87.7173
0
VERTEX
8
CUT
10
220.3365
20
88.3447
0
VERTEX
8
CUT
10
220.2443
20
88.3843
0
VERTEX
8
CUT
10
220.1428
20
88.4401
0
VERTEX
8
CUT
10
220.0472
20
88.5054
0
VERTEX
8
CUT
10
219.9583
20
88.5796
0
VERTEX
8
CUT
10
219.8769
20
88.6620
0
VERTEX
8
CUT
10
219.8039
20
88.7518
0
VERTEX
8
CUT
10
219.7399
20
88.8483
0
VERTEX
8
CUT
10
219.6855
20
88.9505
0
VERTEX
8
CUT
10
219.6412
20
89.0575
0
VERTEX
8
CUT
10
219.6074
20
89.1682
0
VERTEX
8
CUT
10
219.5844
20
89.2817
0
VERTEX
8
CUT
10
219.5725
20
89.3969
0
VERTEX
8
CUT
10
219.5717
20
89.5127
0
VERTEX
8
CUT
10
219.5821
20
89.6280
0
VERTEX
8
CUT
10
219.5953
20
89.7224
0
VERTEX
8
CUT
10
219.4983
20
90.0327
0
VERTEX
8
CUT
10
219.4778
20
90.0540
0
VERTEX
8
CUT
10
219.4036
20
90.1479
0
VERTEX
8
CUT
10
219.3392
20
90.2488
0
VERTEX
8
CUT
10
219.2852
20
90.3555
0
VERTEX
8
CUT
10
219.2420
20
90.4672
0
VERTEX
8
CUT
10
219.2102
20
90.5825
0
VERTEX
8
CUT
10
219.1901
20
90.7005
0
VERTEX
8
CUT
10
219.1818
20
90.8199
0
VERTEX
8
CUT
10
219.1854
20
90.9395
0
VERTEX
8
CUT
10
219.2009
20
91.0581
0
VERTEX
8
CUT
10
219.2240
20
91.1571
0
VERTEX
8
CUT
10
218.4299
20
91.2708
0
VERTEX
8
CUT
10
217.8100
20
91.5629
0
VERTEX
8
CUT
10
215.6360
20
94.9920
0
VERTEX
8
CUT
10
214.2809
20
96.5858
0
VERTEX
8
CUT
10
212.7142
20
98.0016
0
VERTEX
8
CUT
10
209.6568
20
100.0741
0
VERTEX
8
CUT
10
208.1192
20
102.0514
0
VERTEX
8
CUT
10
207.0892
20
104.9027
0
SEQEND
0
POLYLINE
8
CUT
66
1
70
1
10
0.0
20
0.0
30
0.0
0
VERTEX
8
CUT
10
215.3470
20
50.5910
0
VERTEX
8
CUT
10
216.6756
20
50.5630
0
VERTEX
8
CUT
10
216.6906
20
50.5661
0
VERTEX
8
CUT
10
216.8531
20
50.5618
0
VERTEX
8
CUT
10
218.1805
20
50.8368
0
VERTEX
8
CUT
10
218.2744
20
50.8881
0
VERTEX
8
CUT
10
218.4125
20
50.9162
0
VERTEX
8
CUT
10
219.5609
20
51.5373
0
VERTEX
8
CUT
10
220.7770
20
52.7245
0
VERTEX
8
CUT
10
221.7761
20
54.4639
0
VERTEX
8
CUT
10
222.8000
20
58.0085
0
VERTEX
8
CUT
10
222.9858
20
59.5518
0
VERTEX
8
CUT
10
223.0269
20
59.7431
0
VERTEX
8
CUT
10
223.0124
20
59.7728
0
VERTEX
8
CUT
10
223.4268
20
63.2163
0
VERTEX
8
CUT
10
223.4575
20
66.0715
0
VERTEX
8
CUT
10
223.3373
20
69.0257
0
VERTEX
8
CUT
10
222.5605
20
75.2002
0
VERTEX
8
CUT
10
221.1278
20
81.6147
0
VERTEX
8
CUT
10
220.3909
20
84.0029
0
VERTEX
8
CUT
10
219.8300
20
85.1290
0
VERTEX
8
CUT
10
219.3740
20
85.1381
0
VERTEX
8
CUT
10
216.9434
20
82.9928
0
VERTEX
8
CUT
10
214.5095
20
81.7410
0
VERTEX
8
CUT
10
211.5217
20
80.7731
0
VERTEX
8
CUT
10
207.3425
20
79.9515
0
VERTEX
8
CUT
10
207.4199
20
79.4125
0
VERTEX
8
CUT
10
208.4093
20
79.0551
0
VERTEX
8
CUT
10
210.3935
20
78.6328
0
VERTEX
8
CUT
10
214.5961
20
78.1565
0
VERTEX
8
CUT
10
215.2105
20
77.9506
0
VERTEX
8
CUT
10
215.5517
20
77.5980
0
VERTEX
8
CUT
10
215.4061
20
77.1141
0
VERTEX
8
CUT
10
214.2676
20
76.3089
0
VERTEX
8
CUT
10
210.4211
20
74.6093
0
VERTEX
8
CUT
10
207.7162
20
74.0895
0
VERTEX
8
CUT
10
204.1695
20
73.9509
0
VERTEX
8
CUT
10
203.8783
20
73.7858
0
VERTEX
8
CUT
10
203.8821
20
73.6623
0
VERTEX
8
CUT
10
203.7016
20
73.5483
0
VERTEX
8
CUT
10
203.9411
20
73.0694
0
VERTEX
8
CUT
10
204.5684
20
72.8963
0
VERTEX
8
CUT
10
204.7696
20
72.7702
0
VERTEX
8
CUT
10
209.5620
20
70.8207
0
VERTEX
8
CUT
10
209.8074
20
70.4502
0
VERTEX
8
CUT
10
209.4614
20
69.8788
0
VERTEX
8
CUT
10
208.0004
20
69.4526
0
VERTEX
8
CUT
10
206.4587
20
69.2975
0
VERTEX
8
CUT
10
202.4275
20
69.5122
0
VERTEX
8
CUT
10
197.7778
20
70.7419
0
VERTEX
8
CUT
10
193.3172
20
72.9384
0
VERTEX
8
CUT
10
193.1741
20
72.8506
0
VERTEX
8
CUT
10
193.1648
20
72.8598
0
VERTEX
8
CUT
10
192.7457
20
73.0095
0
VERTEX
8
CUT
10
192.7757
20
72.5605
0
VERTEX
8
CUT
10
193.0019
20
72.2714
0
VERTEX
8
CUT
10
193.1089
20
72.0057
0
VERTEX
8
CUT
10
193.4146
20
71.6017
0
VERTEX
8
CUT
10
193.6138
20
71.0638
0
VERTEX
8
CUT
10
194.2927
20
70.4415
0
VERTEX
8
CUT
10
194.7416
20
69.8483
0
VERTEX
8
CUT
10
196.3544
20
67.6594
0
VERTEX
8
CUT
10
197.0778
20
66.7615
0
VERTEX
8
CUT
10
199.7884
20
63.1800
0
VERTEX
8
CUT
10
204.4718
20
57.8690
0
VERTEX
8
CUT
10
206.6151
20
55.9196
0
VERTEX
8
CUT
10
207.5032
20
54.9892
0
VERTEX
8
CUT
10
207.9096
20
54.7421
0
VERTEX
8
CUT
10
208.7835
20
53.9473
0
VERTEX
8
CUT
10
212.5346
20
51.4679
0
VERTEX
8
CUT
10
213.6681
20
51.1145
0
VERTEX
8
CUT
10
214.0686
20
50.9383
0
VERTEX
8
CUT
10
214.5631
20
50.8354
0
SEQEND
0
POLYLINE
8
CUT
66
1
70
1
10
0.0
20
0.0
30
0.0
0
VERTEX
8
CUT
10
97.1325
20
104.6172
0
VERTEX
8
CUT
10
97.8158
20
104.7749
0
VERTEX
8
CUT
10
98.7287
20
104.9488
0
VERTEX
8
CUT
10
100.0758
20
105.8224
0
VERTEX
8
CUT
10
100.2691
20
105.9253
0
VERTEX
8
CUT
10
100.3470
20
105.9983
0
VERTEX
8
CUT
10
100.6558
20
106.1986
0
VERTEX
8
CUT
10
101.6839
20
107.2192
0
VERTEX
8
CUT
10
102.5514
20
108.4102
0
VERTEX
8
CUT
10
103.1632
20
109.6922
0
VERTEX
8
CUT
10
103.2902
20
110.3657
0
VERTEX
8
CUT
10
103.3653
20
110.5331
0
VERTEX
8
CUT
10
103.6293
20
111.9439
0
VERTEX
8
CUT
10
103.6251
20
112.1416
0
VERTEX
8
CUT
10
103.7208
20
112.6491
0
VERTEX
8
CUT
10
103.6867
20
114.2684
0
VERTEX
8
CUT
10
102.9452
20
118.2397
0
VERTEX
8
CUT
10
103.0789
20
118.5803
0
VERTEX
8
CUT
10
103.3785
20
118.6146
0
VERTEX
8
CUT
10
104.3129
20
117.8215
0
VERTEX
8
CUT
10
105.2954
20
116.3078
0
VERTEX
8
CUT
10
106.0172
20
114.2319
0
VERTEX
8
CUT
10
106.5030
20
111.4200
0
VERTEX
8
CUT
10
106.4724
20
108.4728
0
VERTEX
8
CUT
10
105.4316
20
103.0153
0
VERTEX
8
CUT
10
105.5520
20
100.8287
0
VERTEX
8
CUT
10
106.2888
20
98.3639
0
VERTEX
8
CUT
10
110.6259
20
88.4022
0
VERTEX
8
CUT
10
111.5558
20
85.4335
0
VERTEX
8
CUT
10
111.3912
20
84.7239
0
VERTEX
8
CUT
10
110.6626
20
84.6937
0
VERTEX
8
CUT
10
108.2931
20
86.6712
0
VERTEX
8
CUT
10
106.1626
20
89.1920
0
VERTEX
8
CUT
10
104.2891
20
92.1808
0
VERTEX
8
CUT
10
103.4620
20
93.8693
0
VERTEX
8
CUT
10
103.1585
20
94.7962
0
VERTEX
8
CUT
10
102.9103
20
95.6650
0
VERTEX
8
CUT
10
102.4399
20
100.8791
0
VERTEX
8
CUT
10
102.3448
20
101.0632
0
VERTEX
8
CUT
10
102.3448
20
101.1114
0
VERTEX
8
CUT
10
102.3017
20
101.1467
0
VERTEX
8
CUT
10
102.1757
20
101.3907
0
VERTEX
8
CUT
10
101.8103
20
101.3795
0
VERTEX
8
CUT
10
101.5138
20
101.0461
0
VERTEX
8
CUT
10
101.0626
20
100.1985
0
VERTEX
8
CUT
10
100.5572
20
99.3866
0
VERTEX
8
CUT
10
100.5338
20
99.2050
0
VERTEX
8
CUT
10
100.1842
20
98.5483
0
VERTEX
8
CUT
10
100.1538
20
97.1690
0
VERTEX
8
CUT
10
100.9070
20
94.4250
0
VERTEX
8
CUT
10
100.0012
20
92.9980
0
VERTEX
8
CUT
10
99.4738
20
91.5787
0
VERTEX
8
CUT
10
99.1406
20
91.4193
0
VERTEX
8
CUT
10
98.4171
20
91.6101
0
VERTEX
8
CUT
10
96.4884
20
93.4214
0
VERTEX
8
CUT
10
95.6181
20
93.9267
0
VERTEX
8
CUT
10
94.8858
20
94.0676
0
VERTEX
8
CUT
10
94.1194
20
93.6452
0
VERTEX
8
CUT
10
93.2383
20
93.5148
0
VERTEX
8
CUT
10
91.9076
20
93.9572
0
VERTEX
8
CUT
10
91.5521
20
94.5765
0
VERTEX
8
CUT
10
91.6155
20
94.8446
0
VERTEX
8
CUT
10
94.5865
20
96.9222
0
VERTEX
8
CUT
10
95.1287
20
97.7549
0
VERTEX
8
CUT
10
95.5724
20
99.0270
0
VERTEX
8
CUT
10
95.2208
20
99.4093
0
VERTEX
8
CUT
10
92.9535
20
99.2615
0
VERTEX
8
CUT
10
92.1159
20
99.4272
0
VERTEX
8
CUT
10
89.8041
20
100.5377
0
VERTEX
8
CUT
10
88.9158
20
101.1693
0
VERTEX
8
CUT
10
87.2230
20
102.6522
0
VERTEX
8
CUT
10
85.6732
20
104.3829
0
VERTEX
8
CUT
10
83.9020
20
107.2457
0
VERTEX
8
CUT
10
83.5985
20
108.1994
0
VERTEX
8
CUT
10
83.5765
20
108.2830
0
VERTEX
8
CUT
10
83.6098
20
108.4662
0
VERTEX
8
CUT
10
83.9858
20
108.8408
0
VERTEX
8
CUT
10
85.1085
20
108.8711
0
VERTEX
8
CUT
10
86.0244
20
108.6245
0
VERTEX
8
CUT
10
93.1291
20
105.1212
0
VERTEX
8
CUT
10
94.3686
20
104.7001
0
VERTEX
8
CUT
10
95.5704
20
104.6281
0
VERTEX
8
CUT
10
95.9735
20
104.5646
0
VERTEX
8
CUT
10
96.3476
20
104.5816
0
VERTEX
8
CUT
10
96.6924
20
104.5609
0
VERTEX
8
CUT
10
96.9426
20
104.6086
0
SEQEND
0
POLYLINE
8
CUT
66
1
70
1
10
0.0
20
0.0
30
0.0
0
VERTEX
8
CUT
10
129.6784
20
96.2527
0
VERTEX
8
CUT
10
129.6748
20
96.2991
0
VERTEX
8
CUT
10
129.6591
20
96.4983
0
VERTEX
8
CUT
10
129.6413
20
96.7253
0
VERTEX
8
CUT
10
129.5894
20
97.4910
0
VERTEX
8
CUT
10
129.5894
20
97.4912
0
VERTEX
8
CUT
10
129.5894
20
97.4914
0
VERTEX
8
CUT
10
129.5896
20
97.4943
0
VERTEX
8
CUT
10
129.6035
20
97.7190
0
VERTEX
8
CUT
10
129.7954
20
99.5549
0
VERTEX
8
CUT
10
130.1930
20
101.5827
0
VERTEX
8
CUT
10
130.2433
20
101.6564
0
VERTEX
8
CUT
10
130.9019
20
104.2008
0
VERTEX
8
CUT
10
130.8468
20
104.9166
0
VERTEX
8
CUT
10
130.8686
20
105.0278
0
VERTEX
8
CUT
10
130.7037
20
107.3722
0
VERTEX
8
CUT
10
129.6348
20
109.7040
0
VERTEX
8
CUT
10
125.4472
20
115.4492
0
VERTEX
8
CUT
10
124.4820
20
117.2311
0
VERTEX
8
CUT
10
123.8176
20
118.9830
0
VERTEX
8
CUT
10
123.4178
20
120.7606
0
VERTEX
8
CUT
10
123.6003
20
123.1532
0
VERTEX
8
CUT
10
123.9644
20
123.9064
0
VERTEX
8
CUT
10
124.1479
20
124.1605
0
VERTEX
8
CUT
10
124.3231
20
124.4030
0
VERTEX
8
CUT
10
124.3543
20
124.4462
0
VERTEX
8
CUT
10
124.6480
20
124.8529
0
VERTEX
8
CUT
10
125.1944
20
125.3628
0
VERTEX
8
CUT
10
126.1301
20
125.3492
0
VERTEX
8
CUT
10
127.0396
20
124.6692
0
VERTEX
8
CUT
10
130.4790
20
121.2943
0
VERTEX
8
CUT
10
133.5259
20
117.8847
0
VERTEX
8
CUT
10
136.7651
20
113.5084
0
VERTEX
8
CUT
10
138.2811
20
111.7882
0
VERTEX
8
CUT
10
139.8793
20
110.3348
0
VERTEX
8
CUT
10
141.5004
20
109.1530
0
VERTEX
8
CUT
10
143.2008
20
108.2259
0
VERTEX
8
CUT
10
144.9426
20
107.6149
0
VERTEX
8
CUT
10
146.7972
20
107.2287
0
VERTEX
8
CUT
10
148.7953
20
107.1061
0
VERTEX
8
CUT
10
152.0807
20
107.4253
0
VERTEX
8
CUT
10
155.2253
20
108.5618
0
VERTEX
8
CUT
10
156.2632
20
109.2388
0
VERTEX
8
CUT
10
156.9026
20
109.5457
0
VERTEX
8
CUT
10
157.9973
20
110.3699
0
VERTEX
8
CUT
10
158.3532
20
110.6020
0
VERTEX
8
CUT
10
158.6144
20
110.8345
0
VERTEX
8
CUT
10
159.0950
20
111.1963
0
VERTEX
8
CUT
10
160.2890
20
112.3247
0
VERTEX
8
CUT
10
165.9341
20
117.3484
0
VERTEX
8
CUT
10
166.9794
20
118.0352
0
VERTEX
8
CUT
10
166.9800
20
118.0355
0
VERTEX
8
CUT
10
166.9837
20
118.0376
0
VERTEX
8
CUT
10
166.9938
20
118.0434
0
VERTEX
8
CUT
10
167.0706
20
118.0875
0
VERTEX
8
CUT
10
169.0299
20
118.9554
0
VERTEX
8
CUT
10
172.0746
20
119.3472
0
VERTEX
8
CUT
10
174.5577
20
118.9456
0
VERTEX
8
CUT
10
176.5313
20
117.6880
0
VERTEX
8
CUT
10
177.4978
20
116.5987
0
VERTEX
8
CUT
10
178.0992
20
115.5150
0
VERTEX
8
CUT
10
178.0004
20
115.1138
0
VERTEX
8
CUT
10
177.4605
20
114.6931
0
VERTEX
8
CUT
10
174.4778
20
113.2721
0
VERTEX
8
CUT
10
172.8721
20
112.2021
0
VERTEX
8
CUT
10
165.5769
20
105.6535
0
VERTEX
8
CUT
10
162.9832
20
103.8278
0
VERTEX
8
CUT
10
160.1968
20
102.6893
0
VERTEX
8
CUT
10
157.8235
20
102.1652
0
VERTEX
8
CUT
10
155.8109
20
102.0406
0
VERTEX
8
CUT
10
155.6964
20
102.0466
0
VERTEX
8
CUT
10
155.6358
20
102.0497
0
VERTEX
8
CUT
10
155.2654
20
102.0691
0
VERTEX
8
CUT
10
154.3507
20
102.1168
0
VERTEX
8
CUT
10
150.9220
20
102.4450
0
VERTEX
8
CUT
10
150.5812
20
102.3061
0
VERTEX
8
CUT
10
150.5805
20
102.0639
0
VERTEX
8
CUT
10
150.5752
20
102.0594
0
VERTEX
8
CUT
10
150.5804
20
102.0185
0
VERTEX
8
CUT
10
150.5797
20
101.8110
0
VERTEX
8
CUT
10
150.6105
20
101.7788
0
VERTEX
8
CUT
10
150.6216
20
101.6901
0
VERTEX
8
CUT
10
151.1322
20
101.2313
0
VERTEX
8
CUT
10
153.4263
20
98.8242
0
VERTEX
8
CUT
10
154.4261
20
97.5605
0
VERTEX
8
CUT
10
155.4354
20
95.8786
0
VERTEX
8
CUT
10
155.5920
20
95.6178
0
VERTEX
8
CUT
10
155.6134
20
95.5821
0
VERTEX
8
CUT
10
155.6247
20
95.5633
0
VERTEX
8
CUT
10
155.8635
20
95.0734
0
VERTEX
8
CUT
10
155.8783
20
95.0367
0
VERTEX
8
CUT
10
155.8940
20
94.9980
0
VERTEX
8
CUT
10
155.9069
20
94.9662
0
VERTEX
8
CUT
10
155.9906
20
94.7592
0
VERTEX
8
CUT
10
156.4617
20
92.6883
0
VERTEX
8
CUT
10
156.5852
20
90.5048
0
VERTEX
8
CUT
10
156.4859
20
89.1420
0
VERTEX
8
CUT
10
155.9891
20
88.4653
0
VERTEX
8
CUT
10
155.5514
20
88.4394
0
VERTEX
8
CUT
10
154.7214
20
88.8383
0
VERTEX
8
CUT
10
152.7280
20
90.4896
0
VERTEX
8
CUT
10
147.1293
20
96.0284
0
VERTEX
8
CUT
10
143.7265
20
100.0011
0
VERTEX
8
CUT
10
141.4222
20
102.3644
0
VERTEX
8
CUT
10
139.4926
20
103.9467
0
VERTEX
8
CUT
10
138.6015
20
104.3172
0
VERTEX
8
CUT
10
138.5802
20
104.3300
0
VERTEX
8
CUT
10
138.5764
20
104.3276
0
VERTEX
8
CUT
10
138.4990
20
104.3598
0
VERTEX
8
CUT
10
138.4641
20
104.3829
0
VERTEX
8
CUT
10
138.4462
20
104.3818
0
VERTEX
8
CUT
10
138.2382
20
104.4683
0
VERTEX
8
CUT
10
138.1306
20
104.3614
0
VERTEX
8
CUT
10
138.0970
20
104.3593
0
VERTEX
8
CUT
10
138.0249
20
104.2565
0
VERTEX
8
CUT
10
137.8681
20
104.1008
0
VERTEX
8
CUT
10
138.0837
20
102.1419
0
VERTEX
8
CUT
10
138.7075
20
99.9170
0
VERTEX
8
CUT
10
140.7063
20
94.3988
0
VERTEX
8
CUT
10
141.2869
20
92.1082
0
VERTEX
8
CUT
10
141.7083
20
86.5060
0
VERTEX
8
CUT
10
141.6186
20
83.0614
0
VERTEX
8
CUT
10
141.3103
20
82.5299
0
VERTEX
8
CUT
10
140.0748
20
82.9764
0
VERTEX
8
CUT
10
137.4676
20
84.5647
0
VERTEX
8
CUT
10
135.0650
20
86.6011
0
VERTEX
8
CUT
10
134.9937
20
86.6724
0
VERTEX
8
CUT
10
134.8828
20
86.7835
0
VERTEX
8
CUT
10
134.4813
20
87.1856
0
VERTEX
8
CUT
10
133.4497
20
88.2187
0
VERTEX
8
CUT
10
133.4225
20
88.2473
0
VERTEX
8
CUT
10
131.4529
20
90.9927
0
VERTEX
8
CUT
10
130.1701
20
93.8509
0
VERTEX
8
CUT
10
129.7261
20
95.6449
0
SEQEND
0
POLYLINE
8
CUT
66
1
70
1
10
0.0
20
0.0
30
0.0
0
VERTEX
8
CUT
10
131.9865
20
131.7473
0
VERTEX
8
CUT
10
131.8302
20
132.7045
0
VERTEX
8
CUT
10
131.9565
20
133.6775
0
VERTEX
8
CUT
10
132.1609
20
134.2060
0
VERTEX
8
CUT
10
132.4779
20
134.8682
0
VERTEX
8
CUT
10
132.8166
20
135.3763
0
VERTEX
8
CUT
10
132.9366
20
135.4948
0
VERTEX
8
CUT
10
132.9368
20
135.4950
0
VERTEX
8
CUT
10
132.9421
20
135.5002
0
VERTEX
8
CUT
10
133.9256
20
136.4716
0
VERTEX
8
CUT
10
134.8749
20
137.0740
0
VERTEX
8
CUT
10
136.2993
20
137.5417
0
VERTEX
8
CUT
10
137.3544
20
137.4872
0
VERTEX
8
CUT
10
141.2577
20
136.4715
0
VERTEX
8
CUT
10
141.3748
20
136.4338
0
VERTEX
8
CUT
10
141.5238
20
136.4236
0
VERTEX
8
CUT
10
150.1080
20
135.6011
0
VERTEX
8
CUT
10
154.4255
20
134.9360
0
VERTEX
8
CUT
10
158.0985
20
133.9113
0
VERTEX
8
CUT
10
164.7571
20
131.3746
0
VERTEX
8
CUT
10
164.8395
20
131.3724
0
VERTEX
8
CUT
10
164.9460
20
131.3306
0
VERTEX
8
CUT
10
165.7333
20
131.3484
0
VERTEX
8
CUT
10
170.0877
20
131.2315
0
VERTEX
8
CUT
10
171.5855
20
131.0198
0
VERTEX
8
CUT
10
172.9078
20
130.4397
0
VERTEX
8
CUT
10
174.4810
20
129.2821
0
VERTEX
8
CUT
10
175.1109
20
128.6287
0
VERTEX
8
CUT
10
175.1537
20
128.4788
0
VERTEX
8
CUT
10
175.1615
20
128.4517
0
VERTEX
8
CUT
10
175.2151
20
128.2637
0
VERTEX
8
CUT
10
175.3608
20
127.7535
0
VERTEX
8
CUT
10
175.2774
20
127.5679
0
VERTEX
8
CUT
10
173.4442
20
126.0943
0
VERTEX
8
CUT
10
166.5197
20
122.2558
0
VERTEX
8
CUT
10
163.8572
20
120.2967
0
VERTEX
8
CUT
10
163.2510
20
120.0260
0
VERTEX
8
CUT
10
163.1562
20
119.9836
0
VERTEX
8
CUT
10
163.1425
20
119.9775
0
VERTEX
8
CUT
10
163.0172
20
119.9216
0
VERTEX
8
CUT
10
162.9586
20
119.9719
0
VERTEX
8
CUT
10
162.8006
20
120.1507
0
VERTEX
8
CUT
10
161.0971
20
124.1594
0
VERTEX
8
CUT
10
160.1693
20
125.6512
0
VERTEX
8
CUT
10
159.0177
20
127.0333
0
VERTEX
8
CUT
10
157.6675
20
128.2686
0
VERTEX
8
CUT
10
156.9295
20
128.7429
0
VERTEX
8
CUT
10
156.8208
20
128.8462
0
VERTEX
8
CUT
10
155.4917
20
129.7868
0
VERTEX
8
CUT
10
155.2601
20
129.8160
0
VERTEX
8
CUT
10
154.3144
20
130.4239
0
VERTEX
8
CUT
10
150.4037
20
131.8706
0
VERTEX
8
CUT
10
147.5516
20
132.3655
0
VERTEX
8
CUT
10
146.1262
20
132.3974
0
VERTEX
8
CUT
10
143.3207
20
132.0688
0
VERTEX
8
CUT
10
141.8274
20
131.6115
0
VERTEX
8
CUT
10
141.8235
20
131.6134
0
VERTEX
8
CUT
10
141.7949
20
131.6016
0
VERTEX
8
CUT
10
140.4517
20
131.1903
0
VERTEX
8
CUT
10
137.0872
20
129.7795
0
VERTEX
8
CUT
10
134.8004
20
129.4415
0
VERTEX
8
CUT
10
133.6254
20
129.7720
0
VERTEX
8
CUT
10
132.3834
20
130.8833
0
SEQEND
0
POLYLINE
8
CUT
66
1
70
1
10
0.0
20
0.0
30
0.0
0
VERTEX
8
CUT
10
46.2149
20
42.7669
0
VERTEX
8
CUT
10
44.9738
20
43.9967
0
VERTEX
8
CUT
10
38.7434
20
50.6506
0
VERTEX
8
CUT
10
37.3561
20
52.2692
0
VERTEX
8
CUT
10
36.7096
20
53.0234
0
VERTEX
8
CUT
10
36.6167
20
53.1318
0
VERTEX
8
CUT
10
36.2390
20
53.5724
0
VERTEX
8
CUT
10
30.5411
20
60.7857
0
VERTEX
8
CUT
10
30.1380
20
61.3231
0
VERTEX
8
CUT
10
29.6546
20
61.9675
0
VERTEX
8
CUT
10
29.1524
20
62.6370
0
VERTEX
8
CUT
10
28.4911
20
63.5187
0
VERTEX
8
CUT
10
21.5768
20
73.9565
0
VERTEX
8
CUT
10
21.4849
20
74.1128
0
VERTEX
8
CUT
10
21.4742
20
74.1310
0
VERTEX
8
CUT
10
21.4706
20
74.1372
0
VERTEX
8
CUT
10
21.4696
20
74.1389
0
VERTEX
8
CUT
10
15.0562
20
85.9233
0
VERTEX
8
CUT
10
9.8933
20
97.7083
0
VERTEX
8
CUT
10
9.3908
20
99.0559
0
VERTEX
8
CUT
10
5.6900
20
110.2614
0
VERTEX
8
CUT
10
5.2728
20
111.6969
0
VERTEX
8
CUT
10
3.9911
20
116.6235
0
VERTEX
8
CUT
10
3.2875
20
119.9967
0
VERTEX
8
CUT
10
2.2185
20
125.1759
0
VERTEX
8
CUT
10
1.3738
20
130.7229
0
VERTEX
8
CUT
10
1.3609
20
130.8669
0
VERTEX
8
CUT
10
1.3197
20
131.3264
0
VERTEX
8
CUT
10
1.1482
20
133.2389
0
VERTEX
8
CUT
10
0.6491
20
138.8038
0
VERTEX
8
CUT
10
0.3590
20
150.1770
0
VERTEX
8
CUT
10
0.5087
20
159.2833
0
VERTEX
8
CUT
10
0.7294
20
162.8327
0
VERTEX
8
CUT
10
0.7715
20
163.2961
0
VERTEX
8
CUT
10
0.8254
20
163.8899
0
VERTEX
8
CUT
10
0.8768
20
164.4566
0
VERTEX
8
CUT
10
1.1995
20
168.0125
0
VERTEX
8
CUT
10
1.6617
20
171.3934
0
VERTEX
8
CUT
10
2.2114
20
174.6916
0
VERTEX
8
CUT
10
2.9061
20
178.5610
0
VERTEX
8
CUT
10
5.4946
20
189.5543
0
VERTEX
8
CUT
10
6.1475
20
191.6977
0
VERTEX
8
CUT
10
6.5393
20
192.9837
0
VERTEX
8
CUT
10
7.1759
20
195.0735
0
VERTEX
8
CUT
10
7.5106
20
196.1723
0
VERTEX
8
CUT
10
7.7319
20
196.8986
0
VERTEX
8
CUT
10
8.3034
20
198.6600
0
VERTEX
8
CUT
10
9.2038
20
201.2487
0
VERTEX
8
CUT
10
10.7224
20
204.9708
0
VERTEX
8
CUT
10
13.9777
20
212.4953
0
VERTEX
8
CUT
10
16.9716
20
218.5002
0
VERTEX
8
CUT
10
16.9754
20
218.5071
0
VERTEX
8
CUT
10
17.3623
20
219.1899
0
VERTEX
8
CUT
10
18.7788
20
221.6894
0
VERTEX
8
CUT
10
19.3187
20
222.6420
0
VERTEX
8
CUT
10
20.1573
20
224.1218
0
VERTEX
8
CUT
10
23.2998
20
229.4204
0
VERTEX
8
CUT
10
27.1160
20
234.9338
0
VERTEX
8
CUT
10
28.4122
20
236.7336
0
VERTEX
8
CUT
10
28.6211
20
237.0236
0
VERTEX
8
CUT
10
29.1857
20
237.8076
0
VERTEX
8
CUT
10
30.4011
20
239.4952
0
VERTEX
8
CUT
10
36.0756
20
246.4407
0
VERTEX
8
CUT
10
39.7550
20
250.5607
0
VERTEX
8
CUT
10
44.1181
20
255.0611
0
VERTEX
8
CUT
10
53.6088
20
263.8000
0
VERTEX
8
CUT
10
62.6369
20
270.8549
0
VERTEX
8
CUT
10
62.7874
20
270.9653
0
VERTEX
8
CUT
10
62.9520
20
271.0860
0
VERTEX
8
CUT
10
63.1478
20
271.2297
0
VERTEX
8
CUT
10
64.2340
20
272.0266
0
VERTEX
8
CUT
10
72.8615
20
277.7382
0
VERTEX
8
CUT
10
75.6758
20
279.3799
0
VERTEX
8
CUT
10
76.0212
20
279.5814
0
VERTEX
8
CUT
10
76.7891
20
280.0294
0
VERTEX
8
CUT
10
76.8367
20
280.0571
0
VERTEX
8
CUT
10
84.9646
20
284.5242
0
VERTEX
8
CUT
10
96.2652
20
289.5615
0
VERTEX
8
CUT
10
107.8918
20
293.6263
0
VERTEX
8
CUT
10
108.0809
20
293.6812
0
VERTEX
8
CUT
10
119.9192
20
296.7356
0
VERTEX
8
CUT
10
132.1183
20
298.7987
0
VERTEX
8
CUT
10
136.0553
20
299.2202
0
VERTEX
8
CUT
10
140.3564
20
299.5510
0
VERTEX
8
CUT
10
149.5553
20
299.8503
0
VERTEX
8
CUT
10
162.2579
20
299.5031
0
VERTEX
8
CUT
10
162.8397
20
299.4512
0
VERTEX
8
CUT
10
163.3907
20
299.4020
0
VERTEX
8
CUT
10
163.5406
20
299.3886
0
VERTEX
8
CUT
10
163.6834
20
299.3759
0
VERTEX
8
CUT
10
172.3556
20
298.3223
0
VERTEX
8
CUT
10
178.1855
20
297.3005
0
VERTEX
8
CUT
10
183.9138
20
296.0704
0
VERTEX
8
CUT
10
195.1377
20
292.8678
0
VERTEX
8
CUT
10
205.9021
20
288.8385
0
VERTEX
8
CUT
10
206.2759
20
288.6799
0
VERTEX
8
CUT
10
206.4929
20
288.5878
0
VERTEX
8
CUT
10
207.6773
20
288.0855
0
VERTEX
8
CUT
10
212.0102
20
286.1714
0
VERTEX
8
CUT
10
229.2484
20
276.8440
0
VERTEX
8
CUT
10
244.7248
20
265.6963
0
VERTEX
8
CUT
10
245.1074
20
265.3667
0
VERTEX
8
CUT
10
258.3015
20
253.0545
0
VERTEX
8
CUT
10
258.9858
20
252.3726
0
VERTEX
8
CUT
10
270.9443
20
237.9926
0
VERTEX
8
CUT
10
271.0213
20
237.8875
0
VERTEX
8
CUT
10
271.0355
20
237.8681
0
VERTEX
8
CUT
10
271.0379
20
237.8648
0
VERTEX
8
CUT
10
271.0392
20
237.8631
0
VERTEX
8
CUT
10
281.1567
20
221.9196
0
VERTEX
8
CUT
10
288.7133
20
205.7880
0
VERTEX
8
CUT
10
289.2163
20
204.4768
0
VERTEX
8
CUT
10
289.3666
20
204.0853
0
VERTEX
8
CUT
10
289.6006
20
203.4753
0
VERTEX
8
CUT
10
289.6848
20
203.2559
0
VERTEX
8
CUT
10
294.5431
20
188.1234
0
VERTEX
8
CUT
10
295.0488
20
186.3378
0
VERTEX
8
CUT
10
295.2107
20
185.6802
0
VERTEX
8
CUT
10
298.3814
20
168.1722
0
VERTEX
8
CUT
10
298.7395
20
164.3947
0
VERTEX
8
CUT
10
298.7649
20
164.0975
0
VERTEX
8
CUT
10
299.1968
20
159.0320
0
VERTEX
8
CUT
10
299.2066
20
158.9174
0
VERTEX
8
CUT
10
299.4067
20
154.7324
0
VERTEX
8
CUT
10
299.4189
20
148.8614
0
VERTEX
8
CUT
10
299.4096
20
148.5313
0
VERTEX
8
CUT
10
299.4008
20
148.2210
0
VERTEX
8
CUT
10
299.3724
20
147.2108
0
VERTEX
8
CUT
10
299.3448
20
146.2307
0
VERTEX
8
CUT
10
299.3281
20
145.6393
0
VERTEX
8
CUT
10
299.2169
20
141.6921
0
VERTEX
8
CUT
10
299.2099
20
141.4420
0
VERTEX
8
CUT
10
298.4784
20
133.5641
0
VERTEX
8
CUT
10
298.3307
20
132.3930
0
VERTEX
8
CUT
10
297.5000
20
126.7720
0
VERTEX
8
CUT
10
295.7563
20
117.7634
0
VERTEX
8
CUT
10
295.4710
20
116.5707
0
VERTEX
8
CUT
10
294.1398
20
111.6628
0
VERTEX
8
CUT
10
291.7987
20
103.9276
0
VERTEX
8
CUT
10
290.1735
20
99.3106
0
VERTEX
8
CUT
10
286.7299
20
90.9584
0
VERTEX
8
CUT
10
286.4055
20
90.1714
0
VERTEX
8
CUT
10
285.8667
20
88.8647
0
VERTEX
8
CUT
10
285.5494
20
88.0951
0
VERTEX
8
CUT
10
285.1394
20
87.2062
0
VERTEX
8
CUT
10
283.2815
20
83.7128
0
VERTEX
8
CUT
10
281.2426
20
79.8791
0
VERTEX
8
CUT
10
279.9914
20
77.5264
0
VERTEX
8
CUT
10
278.6116
20
74.9319
0
VERTEX
8
CUT
10
277.8240
20
73.6192
0
VERTEX
8
CUT
10
271.5094
20
64.0356
0
VERTEX
8
CUT
10
267.5113
20
58.6698
0
VERTEX
8
CUT
10
265.7702
20
56.5161
0
VERTEX
8
CUT
10
263.4060
20
53.5915
0
VERTEX
8
CUT
10
262.5911
20
52.5835
0
VERTEX
8
CUT
10
261.2913
20
50.9756
0
VERTEX
8
CUT
10
260.5525
20
50.1240
0
VERTEX
8
CUT
10
260.3683
20
49.9277
0
VERTEX
8
CUT
10
258.3767
20
47.8467
0
VERTEX
8
CUT
10
254.8452
20
44.2560
0
VERTEX
8
CUT
10
254.0629
20
43.4607
0
VERTEX
8
CUT
10
253.7244
20
43.1165
0
VERTEX
8
CUT
10
253.4025
20
42.7892
0
VERTEX
8
CUT
10
245.9254
20
35.9112
0
VERTEX
8
CUT
10
243.4448
20
33.8346
0
VERTEX
8
CUT
10
243.0806
20
33.5297
0
VERTEX
8
CUT
10
243.0251
20
33.4832
0
VERTEX
8
CUT
10
240.6534
20
31.4978
0
VERTEX
8
CUT
10
239.2738
20
30.3880
0
VERTEX
8
CUT
10
238.9756
20
30.1652
0
VERTEX
8
CUT
10
237.2186
20
28.8521
0
VERTEX
8
CUT
10
236.2656
20
28.1398
0
VERTEX
8
CUT
10
229.9242
20
23.7378
0
VERTEX
8
CUT
10
229.0690
20
23.2116
0
VERTEX
8
CUT
10
228.6682
20
22.9649
0
VERTEX
8
CUT
10
227.8853
20
22.4832
0
VERTEX
8
CUT
10
226.0476
20
21.3522
0
VERTEX
8
CUT
10
222.0895
20
18.9979
0
VERTEX
8
CUT
10
218.4257
20
17.0422
0
VERTEX
8
CUT
10
217.4054
20
16.4975
0
VERTEX
8
CUT
10
216.8450
20
16.1983
0
VERTEX
8
CUT
10
216.5070
20
16.0179
0
VERTEX
8
CUT
10
214.1964
20
14.8626
0
VERTEX
8
CUT
10
213.4799
20
14.5045
0
VERTEX
8
CUT
10
209.5261
20
12.6373
0
VERTEX
8
CUT
10
204.2255
20
10.4514
0
VERTEX
8
CUT
10
201.9040
20
9.5542
0
VERTEX
8
CUT
10
201.6814
20
9.4682
0
VERTEX
8
CUT
10
201.2871
20
9.3158
0
VERTEX
8
CUT
10
199.7846
20
8.7352
0
VERTEX
8
CUT
10
191.3215
20
5.9398
0
VERTEX
8
CUT
10
181.1617
20
3.3847
0
VERTEX
8
CUT
10
170.7887
20
1.5270
0
VERTEX
8
CUT
10
160.6276
20
0.4680
0
VERTEX
8
CUT
10
160.5324
20
0.4595
0
VERTEX
8
CUT
10
160.3807
20
0.4459
0
VERTEX
8
CUT
10
160.1826
20
0.4282
0
VERTEX
8
CUT
10
160.0710
20
0.4182
0
VERTEX
8
CUT
10
153.0701
20
0.2457
0
VERTEX
8
CUT
10
150.5167
20
0.2216
0
VERTEX
8
CUT
10
148.2920
20
0.2536
0
VERTEX
8
CUT
10
146.6205
20
0.2777
0
VERTEX
8
CUT
10
146.0372
20
0.2861
0
VERTEX
8
CUT
10
140.7100
20
0.3629
0
VERTEX
8
CUT
10
139.8029
20
0.3939
0
VERTEX
8
CUT
10
138.8820
20
0.4494
0
VERTEX
8
CUT
10
132.8512
20
1.1279
0
VERTEX
8
CUT
10
126.7208
20
1.9159
0
VERTEX
8
CUT
10
123.8435
20
2.3392
0
VERTEX
8
CUT
10
112.2872
20
4.9570
0
VERTEX
8
CUT
10
110.2428
20
5.4834
0
VERTEX
8
CUT
10
99.4768
20
8.9637
0
VERTEX
8
CUT
10
96.8534
20
9.9167
0
VERTEX
8
CUT
10
88.6622
20
13.4454
0
VERTEX
8
CUT
10
81.3876
20
17.0543
0
VERTEX
8
CUT
10
73.8680
20
21.1584
0
VERTEX
8
CUT
10
71.7254
20
22.4831
0
VERTEX
8
CUT
10
65.8629
20
26.4122
0
VERTEX
8
CUT
10
65.2064
20
26.8522
0
VERTEX
8
CUT
10
65.0193
20
26.9776
0
VERTEX
8
CUT
10
64.9028
20
27.0557
0
VERTEX
8
CUT
10
58.5964
20
31.7638
0
VERTEX
8
CUT
10
57.5635
20
32.6102
0
VERTEX
8
CUT
10
56.5050
20
33.4775
0
VERTEX
8
CUT
10
55.3740
20
34.4043
0
VERTEX
8
CUT
10
55.1859
20
34.5585
0
VERTEX
8
CUT
10
48.2013
20
40.7984
0
VERTEX
8
CUT
10
47.4447
20
41.5482
0
VERTEX
8
CUT
10
46.6322
20
42.3534
0
SEQEND
0
POLYLINE
8
CUT
66
1
70
1
10
0.0
20
0.0
30
0.0
0
VERTEX
8
CUT
10
19.6073
20
167.0085
0
VERTEX
8
CUT
10
19.3376
20
165.5584
0
VERTEX
8
CUT
10
19.3390
20
163.1889
0
VERTEX
8
CUT
10
19.7479
20
160.7859
0
VERTEX
8
CUT
10
20.4740
20
158.3098
0
VERTEX
8
CUT
10
21.5398
20
155.9763
0
VERTEX
8
CUT
10
22.8792
20
153.7207
0
VERTEX
8
CUT
10
24.4805
20
151.6791
0
VERTEX
8
CUT
10
26.2831
20
149.8766
0
VERTEX
8
CUT
10
28.3483
20
148.3554
0
VERTEX
8
CUT
10
28.4582
20
148.2630
0
VERTEX
8
CUT
10
28.5167
20
148.2313
0
VERTEX
8
CUT
10
29.1996
20
147.7282
0
VERTEX
8
CUT
10
32.4596
20
146.0667
0
VERTEX
8
CUT
10
37.2469
20
144.4381
0
VERTEX
8
CUT
10
39.6376
20
143.2024
0
VERTEX
8
CUT
10
39.8461
20
143.0698
0
VERTEX
8
CUT
10
40.0658
20
142.9301
0
VERTEX
8
CUT
10
40.1941
20
142.8485
0
VERTEX
8
CUT
10
40.3104
20
142.7745
0
VERTEX
8
CUT
10
40.8925
20
142.3580
0
VERTEX
8
CUT
10
40.9436
20
142.3151
0
VERTEX
8
CUT
10
40.9718
20
142.2915
0
VERTEX
8
CUT
10
41.0095
20
142.2599
0
VERTEX
8
CUT
10
41.2084
20
142.0932
0
VERTEX
8
CUT
10
43.0784
20
140.1355
0
VERTEX
8
CUT
10
44.5726
20
137.6249
0
VERTEX
8
CUT
10
45.1693
20
136.0482
0
VERTEX
8
CUT
10
45.3507
20
135.0016
0
VERTEX
8
CUT
10
45.4099
20
131.6386
0
VERTEX
8
CUT
10
45.3456
20
130.1676
0
VERTEX
8
CUT
10
44.9679
20
128.5601
0
VERTEX
8
CUT
10
42.5349
20
124.0262
0
VERTEX
8
CUT
10
37.1830
20
116.9092
0
VERTEX
8
CUT
10
35.3988
20
113.9980
0
VERTEX
8
CUT
10
34.0627
20
111.1534
0
VERTEX
8
CUT
10
33.8642
20
110.5194
0
VERTEX
8
CUT
10
33.7295
20
110.2222
0
VERTEX
8
CUT
10
33.6404
20
109.8050
0
VERTEX
8
CUT
10
33.2007
20
108.4010
0
VERTEX
8
CUT
10
32.7800
20
105.7433
0
VERTEX
8
CUT
10
32.8389
20
103.1767
0
VERTEX
8
CUT
10
33.3404
20
100.7001
0
VERTEX
8
CUT
10
34.3270
20
98.2834
0
VERTEX
8
CUT
10
35.2913
20
96.7709
0
VERTEX
8
CUT
10
36.5841
20
95.3333
0
VERTEX
8
CUT
10
38.0096
20
94.0602
0
VERTEX
8
CUT
10
39.3733
20
93.2649
0
VERTEX
8
CUT
10
41.0951
20
92.7066
0
VERTEX
8
CUT
10
42.9677
20
92.4693
0
VERTEX
8
CUT
10
43.4562
20
92.5231
0
VERTEX
8
CUT
10
44.3234
20
92.5542
0
VERTEX
8
CUT
10
44.8172
20
92.6727
0
VERTEX
8
CUT
10
45.6774
20
92.7673
0
VERTEX
8
CUT
10
47.0302
20
93.3607
0
VERTEX
8
CUT
10
48.4227
20
94.3677
0
VERTEX
8
CUT
10
48.4963
20
94.4448
0
VERTEX
8
CUT
10
48.6116
20
94.5307
0
VERTEX
8
CUT
10
48.6209
20
94.5399
0
VERTEX
8
CUT
10
48.7182
20
94.6117
0
VERTEX
8
CUT
10
49.7062
20
95.6241
0
VERTEX
8
CUT
10
49.9105
20
95.9249
0
VERTEX
8
CUT
10
50.2577
20
96.2884
0
VERTEX
8
CUT
10
51.0618
20
97.6609
0
VERTEX
8
CUT
10
51.4598
20
99.1395
0
VERTEX
8
CUT
10
51.4698
20
100.2319
0
VERTEX
8
CUT
10
51.5113
20
100.4349
0
VERTEX
8
CUT
10
51.4747
20
100.7680
0
VERTEX
8
CUT
10
51.4857
20
101.9787
0
VERTEX
8
CUT
10
51.1707
20
103.7308
0
VERTEX
8
CUT
10
50.6266
20
105.2776
0
VERTEX
8
CUT
10
50.4614
20
105.8533
0
VERTEX
8
CUT
10
50.4207
20
105.9953
0
VERTEX
8
CUT
10
50.3564
20
106.2191
0
VERTEX
8
CUT
10
50.1267
20
107.0198
0
VERTEX
8
CUT
10
50.0317
20
107.9969
0
VERTEX
8
CUT
10
50.0728
20
108.5432
0
VERTEX
8
CUT
10
50.0779
20
108.6108
0
VERTEX
8
CUT
10
50.0844
20
108.6979
0
VERTEX
8
CUT
10
50.1001
20
108.9062
0
VERTEX
8
CUT
10
50.3008
20
109.8537
0
VERTEX
8
CUT
10
50.4293
20
110.1587
0
VERTEX
8
CUT
10
50.7295
20
110.6996
0
VERTEX
8
CUT
10
51.2879
20
111.4525
0
VERTEX
8
CUT
10
52.6991
20
112.6538
0
VERTEX
8
CUT
10
54.3322
20
113.2496
0
VERTEX
8
CUT
10
55.4936
20
113.3309
0
VERTEX
8
CUT
10
57.0567
20
113.2075
0
VERTEX
8
CUT
10
58.9558
20
112.7782
0
VERTEX
8
CUT
10
60.7635
20
112.0249
0
VERTEX
8
CUT
10
62.7618
20
110.8454
0
VERTEX
8
CUT
10
64.2897
20
109.7119
0
VERTEX
8
CUT
10
64.7276
20
109.3258
0
VERTEX
8
CUT
10
65.0274
20
109.0355
0
VERTEX
8
CUT
10
65.1681
20
108.8992
0
VERTEX
8
CUT
10
65.4457
20
108.6302
0
VERTEX
8
CUT
10
66.0154
20
108.0784
0
VERTEX
8
CUT
10
66.6960
20
107.3066
0
VERTEX
8
CUT
10
67.9086
20
105.7039
0
VERTEX
8
CUT
10
68.9092
20
103.9786
0
VERTEX
8
CUT
10
69.5689
20
102.5349
0
VERTEX
8
CUT
10
69.8408
20
101.8241
0
VERTEX
8
CUT
10
70.5791
20
99.3704
0
VERTEX
8
CUT
10
70.7345
20
97.2823
0
VERTEX
8
CUT
10
70.5848
20
89.5858
0
VERTEX
8
CUT
10
70.5975
20
89.0661
0
VERTEX
8
CUT
10
70.4960
20
87.0987
0
VERTEX
8
CUT
10
70.6183
20
85.1644
0
VERTEX
8
CUT
10
70.7007
20
84.8427
0
VERTEX
8
CUT
10
70.7029
20
84.7532
0
VERTEX
8
CUT
10
71.0237
20
82.8981
0
VERTEX
8
CUT
10
71.6122
20
81.1547
0
VERTEX
8
CUT
10
72.5100
20
79.3291
0
VERTEX
8
CUT
10
73.7406
20
77.5427
0
VERTEX
8
CUT
10
77.8137
20
72.9300
0
VERTEX
8
CUT
10
79.4474
20
70.8120
0
VERTEX
8
CUT
10
79.4916
20
70.7486
0
VERTEX
8
CUT
10
79.5018
20
70.7339
0
VERTEX
8
CUT
10
79.6033
20
70.5883
0
VERTEX
8
CUT
10
79.7584
20
70.3658
0
VERTEX
8
CUT
10
80.9696
20
68.2880
0
VERTEX
8
CUT
10
80.9896
20
68.2486
0
VERTEX
8
CUT
10
81.0043
20
68.2196
0
VERTEX
8
CUT
10
81.0087
20
68.2111
0
VERTEX
8
CUT
10
81.0333
20
68.1624
0
VERTEX
8
CUT
10
82.3975
20
64.3073
0
VERTEX
8
CUT
10
83.0367
20
59.4068
0
VERTEX
8
CUT
10
83.4675
20
49.7466
0
VERTEX
8
CUT
10
83.5580
20
47.4939
0
VERTEX
8
CUT
10
83.5455
20
47.4444
0
VERTEX
8
CUT
10
83.5657
20
47.3020
0
VERTEX
8
CUT
10
83.6063
20
46.2890
0
VERTEX
8
CUT
10
83.6284
20
46.1393
0
VERTEX
8
CUT
10
83.6364
20
45.9597
0
VERTEX
8
CUT
10
84.0854
20
42.8922
0
VERTEX
8
CUT
10
84.8847
20
40.2336
0
VERTEX
8
CUT
10
86.2086
20
37.1733
0
VERTEX
8
CUT
10
87.1145
20
35.6325
0
VERTEX
8
CUT
10
88.1248
20
34.2100
0
VERTEX
8
CUT
10
90.3669
20
31.9091
0
VERTEX
8
CUT
10
93.0049
20
30.2030
0
VERTEX
8
CUT
10
95.0333
20
29.5163
0
VERTEX
8
CUT
10
96.7342
20
29.3354
0
VERTEX
8
CUT
10
97.9563
20
29.3884
0
VERTEX
8
CUT
10
98.3409
20
29.3693
0
VERTEX
8
CUT
10
98.5440
20
29.4139
0
VERTEX
8
CUT
10
99.4272
20
29.4522
0
VERTEX
8
CUT
10
101.3675
20
29.9194
0
VERTEX
8
CUT
10
104.0747
20
31.1821
0
VERTEX
8
CUT
10
105.8805
20
32.5403
0
VERTEX
8
CUT
10
107.2560
20
33.9497
0
VERTEX
8
CUT
10
107.8736
20
34.4738
0
VERTEX
8
CUT
10
109.6778
20
36.3971
0
VERTEX
8
CUT
10
109.8303
20
36.5875
0
VERTEX
8
CUT
10
110.6908
20
37.4692
0
VERTEX
8
CUT
10
119.7834
20
49.0095
0
VERTEX
8
CUT
10
120.8958
20
50.3978
0
VERTEX
8
CUT
10
122.0078
20
51.6967
0
VERTEX
8
CUT
10
125.9337
20
55.9791
0
VERTEX
8
CUT
10
126.3379
20
56.3901
0
VERTEX
8
CUT
10
126.3952
20
56.4484
0
VERTEX
8
CUT
10
127.0572
20
57.1215
0
VERTEX
8
CUT
10
127.6092
20
57.6829
0
VERTEX
8
CUT
10
129.6075
20
59.5266
0
VERTEX
8
CUT
10
132.2609
20
61.6732
0
VERTEX
8
CUT
10
133.9016
20
62.8056
0
VERTEX
8
CUT
10
135.5504
20
63.8641
0
VERTEX
8
CUT
10
136.1825
20
64.2257
0
VERTEX
8
CUT
10
136.5684
20
64.4271
0
VERTEX
8
CUT
10
136.7379
20
64.5155
0
VERTEX
8
CUT
10
136.7391
20
64.5161
0
VERTEX
8
CUT
10
136.8973
20
64.5987
0
VERTEX
8
CUT
10
136.9840
20
64.6439
0
VERTEX
8
CUT
10
138.0525
20
65.2016
0
VERTEX
8
CUT
10
138.2107
20
65.2739
0
VERTEX
8
CUT
10
139.8086
20
65.9662
0
VERTEX
8
CUT
10
139.8673
20
65.9878
0
VERTEX
8
CUT
10
141.9196
20
66.5062
0
VERTEX
8
CUT
10
145.2772
20
66.6906
0
VERTEX
8
CUT
10
147.9328
20
66.1170
0
VERTEX
8
CUT
10
149.7116
20
64.9128
0
VERTEX
8
CUT
10
150.0115
20
64.5626
0
VERTEX
8
CUT
10
150.7240
20
63.6915
0
VERTEX
8
CUT
10
151.3394
20
62.5902
0
VERTEX
8
CUT
10
151.7938
20
60.4087
0
VERTEX
8
CUT
10
151.6913
20
59.2804
0
VERTEX
8
CUT
10
151.6600
20
59.0453
0
VERTEX
8
CUT
10
151.6533
20
58.9942
0
VERTEX
8
CUT
10
151.6420
20
58.9091
0
VERTEX
8
CUT
10
151.5946
20
58.5528
0
VERTEX
8
CUT
10
151.0891
20
56.8185
0
VERTEX
8
CUT
10
149.0534
20
52.2335
0
VERTEX
8
CUT
10
148.6829
20
50.0065
0
VERTEX
8
CUT
10
148.6887
20
49.6126
0
VERTEX
8
CUT
10
148.6549
20
49.4092
0
VERTEX
8
CUT
10
148.6991
20
48.9071
0
VERTEX
8
CUT
10
148.7136
20
47.9298
0
VERTEX
8
CUT
10
148.9792
20
46.5040
0
VERTEX
8
CUT
10
149.6327
20
44.9971
0
VERTEX
8
CUT
10
149.7999
20
44.7428
0
VERTEX
8
CUT
10
149.8404
20
44.6472
0
VERTEX
8
CUT
10
150.6634
20
43.3705
0
VERTEX
8
CUT
10
150.8182
20
43.1951
0
VERTEX
8
CUT
10
151.2286
20
42.5714
0
VERTEX
8
CUT
10
153.1560
20
40.8718
0
VERTEX
8
CUT
10
155.4149
20
39.8274
0
VERTEX
8
CUT
10
157.7213
20
39.4946
0
VERTEX
8
CUT
10
160.0131
20
39.8456
0
VERTEX
8
CUT
10
162.1384
20
40.8354
0
VERTEX
8
CUT
10
164.1584
20
42.5725
0
VERTEX
8
CUT
10
165.7513
20
44.9447
0
VERTEX
8
CUT
10
166.3334
20
46.2524
0
VERTEX
8
CUT
10
166.7192
20
47.6667
0
VERTEX
8
CUT
10
166.8798
20
48.1232
0
VERTEX
8
CUT
10
166.9199
20
48.4023
0
VERTEX
8
CUT
10
167.0297
20
48.8047
0
VERTEX
8
CUT
10
167.1818
20
50.2608
0
VERTEX
8
CUT
10
167.1639
20
50.7207
0
VERTEX
8
CUT
10
167.1832
20
50.8371
0
VERTEX
8
CUT
10
167.1451
20
51.2043
0
VERTEX
8
CUT
10
167.0644
20
53.2736
0
VERTEX
8
CUT
10
165.8646
20
60.0463
0
VERTEX
8
CUT
10
165.8887
20
62.1453
0
VERTEX
8
CUT
10
165.8945
20
62.2821
0
VERTEX
8
CUT
10
165.8966
20
62.3300
0
VERTEX
8
CUT
10
165.8980
20
62.3641
0
VERTEX
8
CUT
10
165.9140
20
62.7380
0
VERTEX
8
CUT
10
166.1670
20
63.7675
0
VERTEX
8
CUT
10
166.5951
20
64.8140
0
VERTEX
8
CUT
10
167.8872
20
66.4057
0
VERTEX
8
CUT
10
169.2197
20
67.2623
0
VERTEX
8
CUT
10
169.4031
20
67.3406
0
VERTEX
8
CUT
10
170.8436
20
67.7712
0
VERTEX
8
CUT
10
172.0129
20
67.7686
0
VERTEX
8
CUT
10
173.0528
20
67.6048
0
VERTEX
8
CUT
10
174.2849
20
67.2680
0
VERTEX
8
CUT
10
176.3162
20
66.2942
0
VERTEX
8
CUT
10
181.1632
20
62.8830
0
VERTEX
8
CUT
10
185.6433
20
58.9455
0
VERTEX
8
CUT
10
203.3086
20
41.9693
0
VERTEX
8
CUT
10
207.8298
20
38.3406
0
VERTEX
8
CUT
10
208.1601
20
38.1212
0
VERTEX
8
CUT
10
209.6351
20
37.0775
0
VERTEX
8
CUT
10
210.9698
20
36.2553
0
VERTEX
8
CUT
10
211.8393
20
35.6778
0
VERTEX
8
CUT
10
213.9416
20
34.5384
0
VERTEX
8
CUT
10
216.7795
20
33.5005
0
VERTEX
8
CUT
10
219.5868
20
32.9596
0
VERTEX
8
CUT
10
222.2778
20
32.9654
0
VERTEX
8
CUT
10
224.7430
20
33.4604
0
VERTEX
8
CUT
10
227.0668
20
34.4315
0
VERTEX
8
CUT
10
229.1565
20
35.9026
0
VERTEX
8
CUT
10
230.9598
20
37.7904
0
VERTEX
8
CUT
10
232.5090
20
40.1905
0
VERTEX
8
CUT
10
233.6123
20
42.5672
0
VERTEX
8
CUT
10
234.4736
20
45.0560
0
VERTEX
8
CUT
10
235.0716
20
47.7940
0
VERTEX
8
CUT
10
235.4628
20
50.8625
0
VERTEX
8
CUT
10
235.5516
20
58.4140
0
VERTEX
8
CUT
10
235.1228
20
63.9784
0
VERTEX
8
CUT
10
234.4672
20
73.0371
0
VERTEX
8
CUT
10
234.4507
20
74.5849
0
VERTEX
8
CUT
10
234.4728
20
78.7500
0
VERTEX
8
CUT
10
234.6267
20
80.5906
0
VERTEX
8
CUT
10
235.3816
20
84.6877
0
VERTEX
8
CUT
10
235.9275
20
86.5928
0
VERTEX
8
CUT
10
237.4539
20
90.1842
0
VERTEX
8
CUT
10
239.6826
20
93.9223
0
VERTEX
8
CUT
10
242.1491
20
97.3829
0
VERTEX
8
CUT
10
244.4909
20
101.1172
0
VERTEX
8
CUT
10
245.5982
20
103.4816
0
VERTEX
8
CUT
10
247.9885
20
109.9953
0
VERTEX
8
CUT
10
249.2907
20
112.2110
0
VERTEX
8
CUT
10
250.8932
20
114.2397
0
VERTEX
8
CUT
10
254.1213
20
117.2597
0
VERTEX
8
CUT
10
256.6603
20
118.8947
0
VERTEX
8
CUT
10
259.1713
20
120.0991
0
VERTEX
8
CUT
10
259.9479
20
120.4298
0
VERTEX
8
CUT
10
264.7941
20
122.0923
0
VERTEX
8
CUT
10
269.1405
20
123.9089
0
VERTEX
8
CUT
10
269.6850
20
124.2193
0
VERTEX
8
CUT
10
270.3396
20
124.5405
0
VERTEX
8
CUT
10
270.8152
20
124.8635
0
VERTEX
8
CUT
10
272.7182
20
125.9482
0
VERTEX
8
CUT
10
275.4631
20
128.2476
0
VERTEX
8
CUT
10
277.0654
20
130.1215
0
VERTEX
8
CUT
10
279.4391
20
134.2242
0
VERTEX
8
CUT
10
280.2132
20
136.4162
0
VERTEX
8
CUT
10
280.7186
20
138.6636
0
VERTEX
8
CUT
10
280.9291
20
140.9012
0
VERTEX
8
CUT
10
280.4333
20
144.6279
0
VERTEX
8
CUT
10
279.5145
20
147.0241
0
VERTEX
8
CUT
10
279.5052
20
147.0537
0
VERTEX
8
CUT
10
279.4993
20
147.0636
0
VERTEX
8
CUT
10
279.3558
20
147.4379
0
VERTEX
8
CUT
10
278.6180
20
148.6105
0
VERTEX
8
CUT
10
276.8834
20
150.3748
0
VERTEX
8
CUT
10
274.6642
20
151.4674
0
VERTEX
8
CUT
10
273.6798
20
151.7100
0
VERTEX
8
CUT
10
271.9936
20
151.7104
0
VERTEX
8
CUT
10
270.2082
20
151.1359
0
VERTEX
8
CUT
10
268.3236
20
149.9644
0
VERTEX
8
CUT
10
265.0645
20
147.4145
0
VERTEX
8
CUT
10
263.6182
20
146.7424
0
VERTEX
8
CUT
10
261.2741
20
146.2589
0
VERTEX
8
CUT
10
258.9908
20
146.3802
0
VERTEX
8
CUT
10
256.8652
20
147.0733
0
VERTEX
8
CUT
10
255.5037
20
147.9437
0
VERTEX
8
CUT
10
254.8755
20
148.4310
0
VERTEX
8
CUT
10
253.5568
20
149.8638
0
VERTEX
8
CUT
10
252.5296
20
151.7466
0
VERTEX
8
CUT
10
251.8972
20
153.8959
0
VERTEX
8
CUT
10
251.8092
20
156.1288
0
VERTEX
8
CUT
10
251.8125
20
156.1856
0
VERTEX
8
CUT
10
251.8125
20
156.1860
0
VERTEX
8
CUT
10
251.8160
20
156.2459
0
VERTEX
8
CUT
10
251.8164
20
156.2520
0
VERTEX
8
CUT
10
252.6050
20
159.7010
0
VERTEX
8
CUT
10
253.5777
20
161.7022
0
VERTEX
8
CUT
10
255.0527
20
163.8985
0
VERTEX
8
CUT
10
261.0143
20
171.1185
0
VERTEX
8
CUT
10
263.1238
20
173.9409
0
VERTEX
8
CUT
10
264.9095
20
176.7674
0
VERTEX
8
CUT
10
266.5191
20
179.8659
0
VERTEX
8
CUT
10
268.0381
20
183.2899
0
VERTEX
8
CUT
10
269.2701
20
186.8064
0
VERTEX
8
CUT
10
270.1558
20
190.2903
0
VERTEX
8
CUT
10
270.7521
20
193.7418
0
VERTEX
8
CUT
10
271.0228
20
197.2309
0
VERTEX
8
CUT
10
270.9639
20
200.5876
0
VERTEX
8
CUT
10
270.6085
20
203.8605
0
VERTEX
8
CUT
10
269.9451
20
207.0818
0
VERTEX
8
CUT
10
268.5200
20
210.7799
0
VERTEX
8
CUT
10
266.6180
20
213.5556
0
VERTEX
8
CUT
10
266.0260
20
214.0168
0
VERTEX
8
CUT
10
265.7934
20
214.2606
0
VERTEX
8
CUT
10
264.6125
20
215.1619
0
VERTEX
8
CUT
10
264.4885
20
215.2144
0
VERTEX
8
CUT
10
264.3719
20
215.3052
0
VERTEX
8
CUT
10
263.5693
20
215.6039
0
VERTEX
8
CUT
10
263.2882
20
215.7230
0
VERTEX
8
CUT
10
263.2221
20
215.7331
0
VERTEX
8
CUT
10
263.1287
20
215.7678
0
VERTEX
8
CUT
10
261.9027
20
215.9374
0
VERTEX
8
CUT
10
261.8953
20
215.9359
0
VERTEX
8
CUT
10
261.8730
20
215.9393
0
VERTEX
8
CUT
10
260.4469
20
215.6388
0
VERTEX
8
CUT
10
260.1187
20
215.5715
0
VERTEX
8
CUT
10
256.9976
20
214.1535
0
VERTEX
8
CUT
10
256.4442
20
214.1400
0
VERTEX
8
CUT
10
255.8407
20
214.7409
0
VERTEX
8
CUT
10
255.4032
20
216.3754
0
VERTEX
8
CUT
10
255.3398
20
217.7731
0
VERTEX
8
CUT
10
255.7873
20
219.8237
0
VERTEX
8
CUT
10
255.8169
20
219.8962
0
VERTEX
8
CUT
10
257.1340
20
225.9129
0
VERTEX
8
CUT
10
257.2837
20
228.0083
0
VERTEX
8
CUT
10
257.2238
20
228.5172
0
VERTEX
8
CUT
10
256.9965
20
228.6619
0
VERTEX
8
CUT
10
256.9508
20
229.5047
0
VERTEX
8
CUT
10
256.5622
20
231.6044
0
VERTEX
8
CUT
10
255.9308
20
233.4698
0
VERTEX
8
CUT
10
255.0678
20
235.2003
0
VERTEX
8
CUT
10
253.9553
20
236.6619
0
VERTEX
8
CUT
10
251.8766
20
238.2259
0
VERTEX
8
CUT
10
248.2567
20
234.9404
0
VERTEX
8
CUT
10
245.7307
20
232.9679
0
VERTEX
8
CUT
10
243.2263
20
232.0016
0
VERTEX
8
CUT
10
240.9670
20
231.6915
0
VERTEX
8
CUT
10
238.6352
20
231.8780
0
VERTEX
8
CUT
10
235.7236
20
232.9003
0
VERTEX
8
CUT
10
234.2689
20
234.0232
0
VERTEX
8
CUT
10
232.8573
20
235.4347
0
VERTEX
8
CUT
10
230.7817
20
238.6364
0
VERTEX
8
CUT
10
230.2997
20
238.5256
0
VERTEX
8
CUT
10
229.4658
20
236.8002
0
VERTEX
8
CUT
10
229.1132
20
235.1456
0
VERTEX
8
CUT
10
229.0850
20
233.3998
0
VERTEX
8
CUT
10
229.3762
20
231.4597
0
VERTEX
8
CUT
10
230.0719
20
228.7852
0
VERTEX
8
CUT
10
230.2346
20
226.7280
0
VERTEX
8
CUT
10
230.8468
20
226.1473
0
VERTEX
8
CUT
10
232.1761
20
226.0590
0
VERTEX
8
CUT
10
233.2204
20
225.6512
0
VERTEX
8
CUT
10
235.6960
20
223.9398
0
VERTEX
8
CUT
10
238.2985
20
221.4868
0
VERTEX
8
CUT
10
239.5079
20
220.0679
0
VERTEX
8
CUT
10
241.7105
20
216.8132
0
VERTEX
8
CUT
10
243.2935
20
213.5941
0
VERTEX
8
CUT
10
243.4471
20
213.2201
0
VERTEX
8
CUT
10
243.4615
20
213.1852
0
VERTEX
8
CUT
10
243.5025
20
213.0853
0
VERTEX
8
CUT
10
243.6608
20
212.6997
0
VERTEX
8
CUT
10
244.7022
20
209.3617
0
VERTEX
8
CUT
10
245.2784
20
205.3773
0
VERTEX
8
CUT
10
245.3393
20
201.7062
0
VERTEX
8
CUT
10
245.1259
20
199.0771
0
VERTEX
8
CUT
10
244.6172
20
196.7726
0
VERTEX
8
CUT
10
243.7002
20
194.3554
0
VERTEX
8
CUT
10
242.2962
20
191.5771
0
VERTEX
8
CUT
10
239.8744
20
188.5417
0
VERTEX
8
CUT
10
234.2302
20
182.4801
0
VERTEX
8
CUT
10
232.2414
20
179.4260
0
VERTEX
8
CUT
10
231.2656
20
176.1333
0
VERTEX
8
CUT
10
230.7306
20
169.3103
0
VERTEX
8
CUT
10
230.2484
20
166.6275
0
VERTEX
8
CUT
10
228.7719
20
163.7299
0
VERTEX
8
CUT
10
226.9970
20
161.6837
0
VERTEX
8
CUT
10
225.4702
20
160.5299
0
VERTEX
8
CUT
10
223.1192
20
159.4297
0
VERTEX
8
CUT
10
220.8730
20
159.2203
0
VERTEX
8
CUT
10
213.4342
20
159.0718
0
VERTEX
8
CUT
10
211.7004
20
158.7211
0
VERTEX
8
CUT
10
209.1593
20
157.8767
0
VERTEX
8
CUT
10
208.6270
20
158.1220
0
VERTEX
8
CUT
10
208.8953
20
159.0511
0
VERTEX
8
CUT
10
210.5770
20
161.2454
0
VERTEX
8
CUT
10
212.1365
20
163.9871
0
VERTEX
8
CUT
10
213.0879
20
166.2194
0
VERTEX
8
CUT
10
215.0870
20
172.3072
0
VERTEX
8
CUT
10
216.3631
20
175.1323
0
VERTEX
8
CUT
10
217.8489
20
177.5241
0
VERTEX
8
CUT
10
220.5274
20
180.8081
0
VERTEX
8
CUT
10
220.1937
20
181.2422
0
VERTEX
8
CUT
10
218.9102
20
181.0199
0
VERTEX
8
CUT
10
215.9520
20
180.0640
0
VERTEX
8
CUT
10
211.6180
20
177.8836
0
VERTEX
8
CUT
10
209.9348
20
176.5930
0
VERTEX
8
CUT
10
208.7702
20
175.4709
0
VERTEX
8
CUT
10
208.7079
20
175.4219
0
VERTEX
8
CUT
10
208.6262
20
175.3321
0
VERTEX
8
CUT
10
207.5129
20
174.2594
0
VERTEX
8
CUT
10
206.4334
20
172.9217
0
VERTEX
8
CUT
10
206.3681
20
172.8500
0
VERTEX
8
CUT
10
206.3426
20
172.8093
0
VERTEX
8
CUT
10
205.6347
20
171.9321
0
VERTEX
8
CUT
10
201.0141
20
163.2538
0
VERTEX
8
CUT
10
199.6408
20
161.3888
0
VERTEX
8
CUT
10
196.5452
20
158.5970
0
VERTEX
8
CUT
10
189.7473
20
154.3128
0
VERTEX
8
CUT
10
187.1774
20
151.8852
0
VERTEX
8
CUT
10
185.2306
20
148.9865
0
VERTEX
8
CUT
10
183.2650
20
143.8599
0
VERTEX
8
CUT
10
181.8867
20
141.1035
0
VERTEX
8
CUT
10
180.1767
20
139.1697
0
VERTEX
8
CUT
10
179.1615
20
138.5286
0
VERTEX
8
CUT
10
176.9450
20
137.8763
0
VERTEX
8
CUT
10
175.4159
20
137.8484
0
VERTEX
8
CUT
10
174.2277
20
138.1017
0
VERTEX
8
CUT
10
173.0661
20
138.7918
0
VERTEX
8
CUT
10
169.8259
20
141.4674
0
VERTEX
8
CUT
10
168.0158
20
142.6744
0
VERTEX
8
CUT
10
166.2023
20
143.6517
0
VERTEX
8
CUT
10
164.3419
20
144.3571
0
VERTEX
8
CUT
10
162.4396
20
144.8182
0
VERTEX
8
CUT
10
158.1063
20
145.1198
0
VERTEX
8
CUT
10
152.7442
20
144.7323
0
VERTEX
8
CUT
10
151.8700
20
144.8727
0
VERTEX
8
CUT
10
151.7363
20
145.1846
0
VERTEX
8
CUT
10
151.8693
20
145.5186
0
VERTEX
8
CUT
10
152.9204
20
146.5312
0
VERTEX
8
CUT
10
154.8226
20
147.6468
0
VERTEX
8
CUT
10
157.9595
20
148.9502
0
VERTEX
8
CUT
10
161.6271
20
149.4009
0
VERTEX
8
CUT
10
171.8206
20
149.4915
0
VERTEX
8
CUT
10
174.3875
20
150.9057
0
VERTEX
8
CUT
10
176.2679
20
152.4677
0
VERTEX
8
CUT
10
177.3838
20
153.8735
0
VERTEX
8
CUT
10
179.3890
20
157.2226
0
VERTEX
8
CUT
10
180.0920
20
158.1206
0
VERTEX
8
CUT
10
180.7215
20
158.7948
0
VERTEX
8
CUT
10
182.5726
20
160.4301
0
VERTEX
8
CUT
10
182.6509
20
160.4926
0
VERTEX
8
CUT
10
182.6785
20
160.5146
0
VERTEX
8
CUT
10
182.6863
20
160.5208
0
VERTEX
8
CUT
10
182.6961
20
160.5287
0
VERTEX
8
CUT
10
185.5477
20
161.8798
0
VERTEX
8
CUT
10
190.9453
20
163.0653
0
VERTEX
8
CUT
10
191.0174
20
163.0767
0
VERTEX
8
CUT
10
191.0539
20
163.0892
0
VERTEX
8
CUT
10
192.4568
20
163.3973
0
VERTEX
8
CUT
10
194.1420
20
164.2575
0
VERTEX
8
CUT
10
195.8025
20
165.8041
0
VERTEX
8
CUT
10
197.2486
20
167.9797
0
VERTEX
8
CUT
10
198.3776
20
170.7340
0
VERTEX
8
CUT
10
199.3785
20
174.1812
0
VERTEX
8
CUT
10
200.8141
20
177.4714
0
VERTEX
8
CUT
10
202.8089
20
180.4402
0
VERTEX
8
CUT
10
203.9367
20
181.7403
0
VERTEX
8
CUT
10
203.9582
20
181.7611
0
VERTEX
8
CUT
10
203.9970
20
181.7988
0
VERTEX
8
CUT
10
204.0785
20
181.8779
0
VERTEX
8
CUT
10
204.1572
20
181.9543
0
VERTEX
8
CUT
10
206.5675
20
184.0501
0
VERTEX
8
CUT
10
207.0711
20
184.4217
0
VERTEX
8
CUT
10
208.7626
20
185.5259
0
VERTEX
8
CUT
10
212.5062
20
187.5492
0
VERTEX
8
CUT
10
215.0056
20
188.5240
0
VERTEX
8
CUT
10
215.4427
20
188.2910
0
VERTEX
8
CUT
10
215.5184
20
187.4838
0
VERTEX
8
CUT
10
214.7933
20
186.5966
0
VERTEX
8
CUT
10
214.0206
20
184.9290
0
VERTEX
8
CUT
10
214.2377
20
184.5606
0
VERTEX
8
CUT
10
214.6620
20
184.6134
0
VERTEX
8
CUT
10
216.2106
20
186.7828
0
VERTEX
8
CUT
10
218.1865
20
188.7551
0
VERTEX
8
CUT
10
221.1332
20
190.8891
0
VERTEX
8
CUT
10
225.1673
20
193.4236
0
VERTEX
8
CUT
10
225.4892
20
193.5946
0
VERTEX
8
CUT
10
225.8953
20
193.8810
0
VERTEX
8
CUT
10
227.3311
20
194.7831
0
VERTEX
8
CUT
10
228.1379
20
195.4627
0
VERTEX
8
CUT
10
228.2790
20
195.5622
0
VERTEX
8
CUT
10
228.7131
20
195.9472
0
VERTEX
8
CUT
10
230.5047
20
197.4562
0
VERTEX
8
CUT
10
231.8397
20
198.9132
0
VERTEX
8
CUT
10
232.4164
20
199.7783
0
VERTEX
8
CUT
10
232.5946
20
199.9922
0
VERTEX
8
CUT
10
232.8635
20
200.4490
0
VERTEX
8
CUT
10
233.9508
20
202.0802
0
VERTEX
8
CUT
10
234.7960
20
203.8330
0
VERTEX
8
CUT
10
235.6467
20
206.6297
0
VERTEX
8
CUT
10
235.9403
20
210.7585
0
VERTEX
8
CUT
10
235.6697
20
215.0014
0
VERTEX
8
CUT
10
234.9295
20
217.7137
0
VERTEX
8
CUT
10
233.0243
20
221.8506
0
VERTEX
8
CUT
10
232.6985
20
222.0231
0
VERTEX
8
CUT
10
232.3555
20
221.8135
0
VERTEX
8
CUT
10
232.5210
20
220.5886
0
VERTEX
8
CUT
10
231.9034
20
219.6064
0
VERTEX
8
CUT
10
231.0545
20
218.9847
0
VERTEX
8
CUT
10
229.2857
20
218.2562
0
VERTEX
8
CUT
10
227.4217
20
218.2643
0
VERTEX
8
CUT
10
226.1524
20
218.7955
0
VERTEX
8
CUT
10
224.8108
20
219.6901
0
VERTEX
8
CUT
10
222.5673
20
221.8418
0
VERTEX
8
CUT
10
220.9591
20
224.3363
0
VERTEX
8
CUT
10
220.0939
20
226.3651
0
VERTEX
8
CUT
10
219.1888
20
229.4657
0
VERTEX
8
CUT
10
218.6738
20
232.4496
0
VERTEX
8
CUT
10
218.5792
20
235.3524
0
VERTEX
8
CUT
10
218.9426
20
238.1388
0
VERTEX
8
CUT
10
219.7296
20
240.8632
0
VERTEX
8
CUT
10
220.9273
20
243.4703
0
VERTEX
8
CUT
10
222.6143
20
246.1401
0
VERTEX
8
CUT
10
227.1965
20
251.8798
0
VERTEX
8
CUT
10
227.4732
20
252.4612
0
VERTEX
8
CUT
10
227.6615
20
252.7531
0
VERTEX
8
CUT
10
228.1759
20
253.9375
0
VERTEX
8
CUT
10
229.2385
20
256.1701
0
VERTEX
8
CUT
10
229.6344
20
256.4459
0
VERTEX
8
CUT
10
230.3347
20
256.2178
0
VERTEX
8
CUT
10
230.6312
20
256.4878
0
VERTEX
8
CUT
10
230.2642
20
257.7137
0
VERTEX
8
CUT
10
229.6487
20
258.4129
0
VERTEX
8
CUT
10
228.1259
20
261.3971
0
VERTEX
8
CUT
10
227.9901
20
261.5547
0
VERTEX
8
CUT
10
227.9370
20
261.6845
0
VERTEX
8
CUT
10
226.9021
20
262.8174
0
VERTEX
8
CUT
10
226.7116
20
263.0384
0
VERTEX
8
CUT
10
225.7876
20
263.6795
0
VERTEX
8
CUT
10
224.7462
20
264.0847
0
VERTEX
8
CUT
10
222.6767
20
264.2571
0
VERTEX
8
CUT
10
220.7802
20
263.6116
0
VERTEX
8
CUT
10
219.8566
20
262.9614
0
VERTEX
8
CUT
10
218.5556
20
261.2550
0
VERTEX
8
CUT
10
216.9090
20
255.7494
0
VERTEX
8
CUT
10
216.0299
20
253.9661
0
VERTEX
8
CUT
10
214.8156
20
252.5953
0
VERTEX
8
CUT
10
213.2029
20
251.5190
0
VERTEX
8
CUT
10
212.0788
20
251.0655
0
VERTEX
8
CUT
10
210.8963
20
250.8815
0
VERTEX
8
CUT
10
209.5792
20
250.9134
0
VERTEX
8
CUT
10
207.2044
20
251.5866
0
VERTEX
8
CUT
10
206.0714
20
252.2525
0
VERTEX
8
CUT
10
204.3829
20
254.0308
0
VERTEX
8
CUT
10
202.9986
20
256.9938
0
VERTEX
8
CUT
10
202.9614
20
257.2429
0
VERTEX
8
CUT
10
202.7736
20
259.4918
0
VERTEX
8
CUT
10
202.7968
20
261.7564
0
VERTEX
8
CUT
10
203.0724
20
266.4868
0
VERTEX
8
CUT
10
202.8626
20
268.9094
0
VERTEX
8
CUT
10
202.5769
20
269.9016
0
VERTEX
8
CUT
10
202.5070
20
270.3233
0
VERTEX
8
CUT
10
202.3016
20
270.8571
0
VERTEX
8
CUT
10
201.8848
20
272.3044
0
VERTEX
8
CUT
10
200.5433
20
274.9001
0
VERTEX
8
CUT
10
199.4541
20
276.3837
0
VERTEX
8
CUT
10
198.5718
20
277.3466
0
VERTEX
8
CUT
10
198.5642
20
277.3562
0
VERTEX
8
CUT
10
198.5543
20
277.3657
0
VERTEX
8
CUT
10
198.1824
20
277.7716
0
VERTEX
8
CUT
10
197.6984
20
278.1839
0
VERTEX
8
CUT
10
196.6706
20
279.1664
0
VERTEX
8
CUT
10
195.7909
20
279.8087
0
VERTEX
8
CUT
10
195.1533
20
280.3519
0
VERTEX
8
CUT
10
194.5248
20
280.7333
0
VERTEX
8
CUT
10
194.4387
20
280.7962
0
VERTEX
8
CUT
10
194.1489
20
280.9614
0
VERTEX
8
CUT
10
191.7110
20
282.4410
0
VERTEX
8
CUT
10
189.8751
20
283.2423
0
VERTEX
8
CUT
10
185.8738
20
284.5342
0
VERTEX
8
CUT
10
181.7430
20
285.2749
0
VERTEX
8
CUT
10
177.5902
20
285.5694
0
VERTEX
8
CUT
10
173.3608
20
285.3637
0
VERTEX
8
CUT
10
171.2506
20
285.0332
0
VERTEX
8
CUT
10
170.8796
20
285.0020
0
VERTEX
8
CUT
10
170.4793
20
284.9124
0
VERTEX
8
CUT
10
169.1954
20
284.7114
0
VERTEX
8
CUT
10
165.1334
20
283.5676
0
VERTEX
8
CUT
10
161.4004
20
281.9803
0
VERTEX
8
CUT
10
157.8889
20
279.9600
0
VERTEX
8
CUT
10
156.3166
20
278.7824
0
VERTEX
8
CUT
10
153.4306
20
276.0436
0
VERTEX
8
CUT
10
150.9316
20
272.8350
0
VERTEX
8
CUT
10
149.8918
20
271.1439
0
VERTEX
8
CUT
10
149.0171
20
269.4236
0
VERTEX
8
CUT
10
148.4426
20
267.7791
0
VERTEX
8
CUT
10
148.3505
20
267.5661
0
VERTEX
8
CUT
10
148.3273
20
267.4492
0
VERTEX
8
CUT
10
147.9856
20
266.4710
0
VERTEX
8
CUT
10
147.4862
20
263.8280
0
VERTEX
8
CUT
10
147.3362
20
261.0106
0
VERTEX
8
CUT
10
147.5416
20
258.3180
0
VERTEX
8
CUT
10
148.0845
20
255.5202
0
VERTEX
8
CUT
10
148.1102
20
254.6410
0
VERTEX
8
CUT
10
147.9155
20
254.3167
0
VERTEX
8
CUT
10
147.5825
20
254.3077
0
VERTEX
8
CUT
10
147.2921
20
254.5475
0
VERTEX
8
CUT
10
145.4024
20
256.9182
0
VERTEX
8
CUT
10
144.0610
20
259.2933
0
VERTEX
8
CUT
10
143.6838
20
261.3730
0
VERTEX
8
CUT
10
143.5906
20
266.6253
0
VERTEX
8
CUT
10
143.4100
20
266.9414
0
VERTEX
8
CUT
10
142.8755
20
266.8259
0
VERTEX
8
CUT
10
142.0309
20
264.8594
0
VERTEX
8
CUT
10
141.2034
20
261.5392
0
VERTEX
8
CUT
10
141.2631
20
258.0949
0
VERTEX
8
CUT
10
142.1819
20
254.6460
0
VERTEX
8
CUT
10
142.8595
20
253.3363
0
VERTEX
8
CUT
10
143.0825
20
252.7296
0
VERTEX
8
CUT
10
143.7118
20
251.6890
0
VERTEX
8
CUT
10
144.3554
20
250.4451
0
VERTEX
8
CUT
10
145.6679
20
248.9387
0
VERTEX
8
CUT
10
146.2586
20
248.1810
0
VERTEX
8
CUT
10
146.6221
20
247.8436
0
VERTEX
8
CUT
10
147.4011
20
246.9495
0
VERTEX
8
CUT
10
148.8301
20
245.7945
0
VERTEX
8
CUT
10
149.1423
20
245.5047
0
VERTEX
8
CUT
10
151.5008
20
243.6358
0
VERTEX
8
CUT
10
155.2416
20
240.6121
0
VERTEX
8
CUT
10
157.6046
20
238.5110
0
VERTEX
8
CUT
10
157.9317
20
238.2202
0
VERTEX
8
CUT
10
158.4867
20
237.7267
0
VERTEX
8
CUT
10
158.6355
20
237.5944
0
VERTEX
8
CUT
10
158.7032
20
237.5305
0
VERTEX
8
CUT
10
160.7125
20
235.3693
0
VERTEX
8
CUT
10
162.2571
20
233.4675
0
VERTEX
8
CUT
10
163.6802
20
231.3787
0
VERTEX
8
CUT
10
165.0668
20
228.8764
0
VERTEX
8
CUT
10
165.2063
20
227.7272
0
VERTEX
8
CUT
10
163.5535
20
219.8138
0
VERTEX
8
CUT
10
162.4435
20
215.8837
0
VERTEX
8
CUT
10
159.9549
20
209.2561
0
VERTEX
8
CUT
10
157.5718
20
204.6389
0
VERTEX
8
CUT
10
154.9781
20
200.5413
0
VERTEX
8
CUT
10
153.2539
20
198.5474
0
VERTEX
8
CUT
10
151.8351
20
197.3399
0
VERTEX
8
CUT
10
151.2467
20
197.1768
0
VERTEX
8
CUT
10
150.7992
20
197.4301
0
VERTEX
8
CUT
10
150.3883
20
199.0898
0
VERTEX
8
CUT
10
150.0978
20
199.2586
0
VERTEX
8
CUT
10
149.7589
20
199.1094
0
VERTEX
8
CUT
10
148.4890
20
194.5557
0
VERTEX
8
CUT
10
146.9307
20
190.8989
0
VERTEX
8
CUT
10
146.0672
20
189.4176
0
VERTEX
8
CUT
10
144.9201
20
187.7594
0
VERTEX
8
CUT
10
141.1521
20
183.1840
0
VERTEX
8
CUT
10
133.7310
20
174.7456
0
VERTEX
8
CUT
10
133.6717
20
174.5953
0
VERTEX
8
CUT
10
133.4133
20
174.3158
0
VERTEX
8
CUT
10
133.4858
20
174.1243
0
VERTEX
8
CUT
10
133.4613
20
174.0622
0
VERTEX
8
CUT
10
133.5061
20
173.9944
0
VERTEX
8
CUT
10
133.5061
20
173.7677
0
VERTEX
8
CUT
10
133.7871
20
173.5693
0
VERTEX
8
CUT
10
134.3648
20
172.6956
0
VERTEX
8
CUT
10
135.4257
20
173.1548
0
VERTEX
8
CUT
10
135.6614
20
173.1989
0
VERTEX
8
CUT
10
136.4097
20
173.7078
0
VERTEX
8
CUT
10
136.4954
20
173.9990
0
VERTEX
8
CUT
10
140.0730
20
177.0687
0
VERTEX
8
CUT
10
144.3870
20
181.4947
0
VERTEX
8
CUT
10
145.7978
20
182.9130
0
VERTEX
8
CUT
10
145.9616
20
183.1102
0
VERTEX
8
CUT
10
146.9635
20
184.1381
0
VERTEX
8
CUT
10
151.1554
20
189.2284
0
VERTEX
8
CUT
10
154.8439
20
194.4335
0
VERTEX
8
CUT
10
157.7238
20
199.3537
0
VERTEX
8
CUT
10
160.2308
20
204.4604
0
VERTEX
8
CUT
10
162.2882
20
209.7709
0
VERTEX
8
CUT
10
163.9590
20
215.2352
0
VERTEX
8
CUT
10
165.1757
20
220.7845
0
VERTEX
8
CUT
10
165.9235
20
226.4274
0
VERTEX
8
CUT
10
166.0288
20
228.2402
0
VERTEX
8
CUT
10
166.0744
20
228.2478
0
VERTEX
8
CUT
10
166.2840
20
229.4152
0
VERTEX
8
CUT
10
166.1511
20
230.3456
0
VERTEX
8
CUT
10
166.2528
20
232.0962
0
VERTEX
8
CUT
10
166.1047
20
237.7742
0
VERTEX
8
CUT
10
165.8931
20
240.1299
0
VERTEX
8
CUT
10
165.8941
20
240.1848
0
VERTEX
8
CUT
10
165.8780
20
240.2973
0
VERTEX
8
CUT
10
165.6253
20
243.1101
0
VERTEX
8
CUT
10
164.6375
20
249.1926
0
VERTEX
8
CUT
10
164.6434
20
249.8776
0
VERTEX
8
CUT
10
164.8667
20
250.1471
0
VERTEX
8
CUT
10
165.3944
20
249.9987
0
VERTEX
8
CUT
10
166.1225
20
248.9689
0
VERTEX
8
CUT
10
166.9690
20
247.0258
0
VERTEX
8
CUT
10
167.6383
20
244.9311
0
VERTEX
8
CUT
10
167.8844
20
244.1610
0
VERTEX
8
CUT
10
167.9227
20
244.0412
0
VERTEX
8
CUT
10
167.9299
20
244.0184
0
VERTEX
8
CUT
10
169.0341
20
238.5264
0
VERTEX
8
CUT
10
169.6069
20
232.3152
0
VERTEX
8
CUT
10
169.6364
20
229.2518
0
VERTEX
8
CUT
10
169.2081
20
222.5766
0
VERTEX
8
CUT
10
172.2307
20
216.3396
0
VERTEX
8
CUT
10
173.4883
20
212.4769
0
VERTEX
8
CUT
10
174.2899
20
208.6231
0
VERTEX
8
CUT
10
174.3039
20
208.5249
0
VERTEX
8
CUT
10
174.4528
20
205.6716
0
VERTEX
8
CUT
10
174.4861
20
203.3111
0
VERTEX
8
CUT
10
174.4646
20
202.9525
0
VERTEX
8
CUT
10
174.2757
20
200.7484
0
VERTEX
8
CUT
10
173.8114
20
198.2322
0
VERTEX
8
CUT
10
173.2021
20
197.2422
0
VERTEX
8
CUT
10
169.9607
20
193.7912
0
VERTEX
8
CUT
10
164.5737
20
188.6436
0
VERTEX
8
CUT
10
162.1283
20
186.7213
0
VERTEX
8
CUT
10
161.2556
20
186.3125
0
VERTEX
8
CUT
10
159.0488
20
187.1225
0
VERTEX
8
CUT
10
158.1125
20
187.1535
0
VERTEX
8
CUT
10
155.5064
20
186.4374
0
VERTEX
8
CUT
10
153.0706
20
185.3641
0
VERTEX
8
CUT
10
151.0476
20
182.8405
0
VERTEX
8
CUT
10
147.3916
20
179.0049
0
VERTEX
8
CUT
10
143.2241
20
174.9577
0
VERTEX
8
CUT
10
138.7643
20
171.0803
0
VERTEX
8
CUT
10
138.7545
20
171.0312
0
VERTEX
8
CUT
10
138.6847
20
171.0138
0
VERTEX
8
CUT
10
138.6847
20
170.4749
0
VERTEX
8
CUT
10
139.1117
20
169.8438
0
VERTEX
8
CUT
10
139.4927
20
169.0546
0
VERTEX
8
CUT
10
139.3185
20
167.8770
0
VERTEX
8
CUT
10
139.6792
20
167.7050
0
VERTEX
8
CUT
10
140.3184
20
167.9494
0
VERTEX
8
CUT
10
144.9579
20
170.4782
0
VERTEX
8
CUT
10
150.8400
20
174.0611
0
VERTEX
8
CUT
10
152.3125
20
175.0585
0
VERTEX
8
CUT
10
152.6025
20
175.2263
0
VERTEX
8
CUT
10
153.0383
20
175.5502
0
VERTEX
8
CUT
10
156.4995
20
177.8946
0
VERTEX
8
CUT
10
161.1131
20
181.4665
0
VERTEX
8
CUT
10
165.4746
20
185.2595
0
VERTEX
8
CUT
10
169.5068
20
189.2011
0
VERTEX
8
CUT
10
173.1961
20
193.2805
0
VERTEX
8
CUT
10
176.5246
20
197.4708
0
VERTEX
8
CUT
10
179.4950
20
201.7617
0
VERTEX
8
CUT
10
182.0461
20
206.0926
0
VERTEX
8
CUT
10
184.1975
20
210.5122
0
VERTEX
8
CUT
10
185.0269
20
212.7722
0
VERTEX
8
CUT
10
185.3003
20
213.4033
0
VERTEX
8
CUT
10
186.0176
20
215.4719
0
VERTEX
8
CUT
10
186.9194
20
217.9293
0
VERTEX
8
CUT
10
187.3208
20
219.7496
0
VERTEX
8
CUT
10
187.6351
20
220.8872
0
VERTEX
8
CUT
10
187.9883
20
222.7771
0
VERTEX
8
CUT
10
188.7690
20
226.3179
0
VERTEX
8
CUT
10
189.0750
20
226.9091
0
VERTEX
8
CUT
10
189.5143
20
227.1376
0
VERTEX
8
CUT
10
189.8642
20
226.9648
0
VERTEX
8
CUT
10
189.9892
20
226.6670
0
VERTEX
8
CUT
10
190.1417
20
224.8009
0
VERTEX
8
CUT
10
190.0628
20
222.0117
0
VERTEX
8
CUT
10
190.0592
20
221.9755
0
VERTEX
8
CUT
10
190.0507
20
221.8880
0
VERTEX
8
CUT
10
190.0129
20
221.4986
0
VERTEX
8
CUT
10
189.9440
20
220.7891
0
VERTEX
8
CUT
10
189.5404
20
217.7980
0
VERTEX
8
CUT
10
189.0808
20
215.6292
0
VERTEX
8
CUT
10
188.9740
20
215.1513
0
VERTEX
8
CUT
10
187.3234
20
209.3748
0
VERTEX
8
CUT
10
186.4055
20
207.6706
0
VERTEX
8
CUT
10
185.8639
20
206.0494
0
VERTEX
8
CUT
10
186.0786
20
205.6695
0
VERTEX
8
CUT
10
186.9135
20
205.4783
0
VERTEX
8
CUT
10
187.1159
20
204.8123
0
VERTEX
8
CUT
10
187.0261
20
204.1182
0
VERTEX
8
CUT
10
186.7171
20
203.6040
0
VERTEX
8
CUT
10
186.2306
20
203.4635
0
VERTEX
8
CUT
10
185.4034
20
204.2838
0
VERTEX
8
CUT
10
184.9695
20
204.2941
0
VERTEX
8
CUT
10
184.3093
20
203.0416
0
VERTEX
8
CUT
10
185.2362
20
203.1818
0
VERTEX
8
CUT
10
185.3541
20
203.1937
0
VERTEX
8
CUT
10
185.4726
20
203.1940
0
VERTEX
8
CUT
10
185.5906
20
203.1825
0
VERTEX
8
CUT
10
185.7068
20
203.1595
0
VERTEX
8
CUT
10
185.8203
20
203.1251
0
VERTEX
8
CUT
10
186.4033
20
202.9163
0
VERTEX
8
CUT
10
186.5154
20
202.8696
0
VERTEX
8
CUT
10
186.6221
20
202.8119
0
VERTEX
8
CUT
10
186.7225
20
202.7437
0
VERTEX
8
CUT
10
186.8155
20
202.6657
0
VERTEX
8
CUT
10
186.8197
20
202.6614
0
VERTEX
8
CUT
10
185.8828
20
198.9140
0
VERTEX
8
CUT
10
184.3130
20
194.7787
0
VERTEX
8
CUT
10
183.1981
20
192.4955
0
VERTEX
8
CUT
10
183.0204
20
192.4152
0
VERTEX
8
CUT
10
182.8977
20
192.3676
0
VERTEX
8
CUT
10
182.7705
20
192.3338
0
VERTEX
8
CUT
10
181.9020
20
192.1532
0
VERTEX
8
CUT
10
181.4376
20
190.8117
0
VERTEX
8
CUT
10
181.3937
20
190.7024
0
VERTEX
8
CUT
10
181.3392
20
190.5980
0
VERTEX
8
CUT
10
181.2747
20
190.4994
0
VERTEX
8
CUT
10
181.2009
20
190.4075
0
VERTEX
8
CUT
10
181.1185
20
190.3234
0
VERTEX
8
CUT
10
181.0282
20
190.2477
0
VERTEX
8
CUT
10
180.9309
20
190.1813
0
VERTEX
8
CUT
10
180.3842
20
189.8460
0
VERTEX
8
CUT
10
180.2736
20
189.7860
0
VERTEX
8
CUT
10
180.1573
20
189.7378
0
VERTEX
8
CUT
10
180.0366
20
189.7021
0
VERTEX
8
CUT
10
179.9129
20
189.6792
0
VERTEX
8
CUT
10
179.7874
20
189.6694
0
VERTEX
8
CUT
10
179.6616
20
189.6728
0
VERTEX
8
CUT
10
179.5368
20
189.6894
0
VERTEX
8
CUT
10
179.0139
20
189.7869
0
VERTEX
8
CUT
10
178.8932
20
189.8160
0
VERTEX
8
CUT
10
178.7761
20
189.8574
0
VERTEX
8
CUT
10
178.6639
20
189.9106
0
VERTEX
8
CUT
10
178.5578
20
189.9752
0
VERTEX
8
CUT
10
178.4590
20
190.0504
0
VERTEX
8
CUT
10
178.3684
20
190.1354
0
VERTEX
8
CUT
10
178.2872
20
190.2293
0
VERTEX
8
CUT
10
178.2161
20
190.3311
0
VERTEX
8
CUT
10
178.1558
20
190.4397
0
VERTEX
8
CUT
10
177.7292
20
191.3127
0
VERTEX
8
CUT
10
177.6829
20
191.4205
0
VERTEX
8
CUT
10
177.6473
20
191.5324
0
VERTEX
8
CUT
10
177.6229
20
191.6472
0
VERTEX
8
CUT
10
177.6097
20
191.7639
0
VERTEX
8
CUT
10
177.5463
20
192.7673
0
VERTEX
8
CUT
10
175.9547
20
190.6928
0
VERTEX
8
CUT
10
175.6180
20
189.8303
0
VERTEX
8
CUT
10
176.8552
20
188.9961
0
VERTEX
8
CUT
10
177.1198
20
188.3157
0
VERTEX
8
CUT
10
176.8712
20
187.5642
0
VERTEX
8
CUT
10
175.9821
20
186.4914
0
VERTEX
8
CUT
10
174.9651
20
186.0489
0
VERTEX
8
CUT
10
174.3936
20
186.2600
0
VERTEX
8
CUT
10
173.4321
20
187.1929
0
VERTEX
8
CUT
10
173.0245
20
187.1831
0
VERTEX
8
CUT
10
164.9883
20
179.6593
0
VERTEX
8
CUT
10
159.2780
20
175.1211
0
VERTEX
8
CUT
10
153.2182
20
170.9820
0
VERTEX
8
CUT
10
143.4858
20
165.4222
0
VERTEX
8
CUT
10
142.4246
20
164.8987
0
VERTEX
8
CUT
10
142.2490
20
164.6106
0
VERTEX
8
CUT
10
142.2487
20
164.3257
0
VERTEX
8
CUT
10
142.2148
20
164.2461
0
VERTEX
8
CUT
10
142.1495
20
162.1591
0
VERTEX
8
CUT
10
141.9387
20
161.7889
0
VERTEX
8
CUT
10
141.2491
20
161.4033
0
VERTEX
8
CUT
10
141.2721
20
160.9091
0
VERTEX
8
CUT
10
141.9191
20
160.8581
0
VERTEX
8
CUT
10
150.0542
20
163.1608
0
VERTEX
8
CUT
10
155.9997
20
165.1624
0
VERTEX
8
CUT
10
161.9274
20
167.4675
0
VERTEX
8
CUT
10
167.2611
20
169.7916
0
VERTEX
8
CUT
10
173.6831
20
173.1065
0
VERTEX
8
CUT
10
179.7463
20
176.7792
0
VERTEX
8
CUT
10
182.0596
20
178.4281
0
VERTEX
8
CUT
10
182.3741
20
178.6304
0
VERTEX
8
CUT
10
182.7802
20
178.9417
0
VERTEX
8
CUT
10
185.3848
20
180.7982
0
VERTEX
8
CUT
10
187.5135
20
182.5701
0
VERTEX
8
CUT
10
188.2831
20
183.1600
0
VERTEX
8
CUT
10
188.8524
20
183.6845
0
VERTEX
8
CUT
10
190.5281
20
185.0793
0
VERTEX
8
CUT
10
193.3362
20
187.8156
0
VERTEX
8
CUT
10
193.5699
20
188.0309
0
VERTEX
8
CUT
10
193.6549
20
188.1262
0
VERTEX
8
CUT
10
195.2082
20
189.6398
0
VERTEX
8
CUT
10
199.2963
20
194.3870
0
VERTEX
8
CUT
10
202.7857
20
199.3115
0
VERTEX
8
CUT
10
206.8105
20
206.4074
0
VERTEX
8
CUT
10
207.4404
20
207.0444
0
VERTEX
8
CUT
10
207.7885
20
207.1090
0
VERTEX
8
CUT
10
208.0683
20
206.7929
0
VERTEX
8
CUT
10
208.0372
20
205.9024
0
VERTEX
8
CUT
10
206.3529
20
201.1144
0
VERTEX
8
CUT
10
203.5602
20
195.7355
0
VERTEX
8
CUT
10
201.2149
20
192.2747
0
VERTEX
8
CUT
10
198.5246
20
188.8588
0
VERTEX
8
CUT
10
195.4800
20
185.4858
0
VERTEX
8
CUT
10
192.1853
20
182.2789
0
VERTEX
8
CUT
10
191.5177
20
181.6866
0
VERTEX
8
CUT
10
191.4367
20
181.6147
0
VERTEX
8
CUT
10
191.4161
20
181.5965
0
VERTEX
8
CUT
10
191.4135
20
181.5941
0
VERTEX
8
CUT
10
188.4398
20
178.9869
0
VERTEX
8
CUT
10
185.5406
20
176.7300
0
VERTEX
8
CUT
10
185.5210
20
176.7154
0
VERTEX
8
CUT
10
185.4287
20
176.6470
0
VERTEX
8
CUT
10
185.3011
20
176.5525
0
VERTEX
8
CUT
10
183.5491
20
175.2550
0
VERTEX
8
CUT
10
180.3780
20
173.0353
0
VERTEX
8
CUT
10
180.2844
20
172.9775
0
VERTEX
8
CUT
10
180.2505
20
172.9566
0
VERTEX
8
CUT
10
180.2279
20
172.9426
0
VERTEX
8
CUT
10
180.2060
20
172.9291
0
VERTEX
8
CUT
10
172.1890
20
168.2539
0
VERTEX
8
CUT
10
163.8163
20
164.1432
0
VERTEX
8
CUT
10
157.1675
20
161.6275
0
VERTEX
8
CUT
10
151.9806
20
159.9183
0
VERTEX
8
CUT
10
147.2067
20
158.4774
0
VERTEX
8
CUT
10
141.7957
20
157.1367
0
VERTEX
8
CUT
10
138.0936
20
152.8842
0
VERTEX
8
CUT
10
135.7911
20
151.0922
0
VERTEX
8
CUT
10
134.5471
20
150.3620
0
VERTEX
8
CUT
10
131.7556
20
149.2056
0
VERTEX
8
CUT
10
125.4997
20
147.4689
0
VERTEX
8
CUT
10
123.7704
20
146.7765
0
VERTEX
8
CUT
10
123.2955
20
146.1496
0
VERTEX
8
CUT
10
123.3562
20
144.4583
0
VERTEX
8
CUT
10
123.0083
20
143.5465
0
VERTEX
8
CUT
10
121.2562
20
141.7406
0
VERTEX
8
CUT
10
119.1661
20
140.5599
0
VERTEX
8
CUT
10
116.4278
20
140.2416
0
VERTEX
8
CUT
10
113.4806
20
140.4890
0
VERTEX
8
CUT
10
110.8582
20
141.3799
0
VERTEX
8
CUT
10
110.0079
20
141.7681
0
VERTEX
8
CUT
10
109.7217
20
141.7681
0
VERTEX
8
CUT
10
109.6913
20
141.7763
0
VERTEX
8
CUT
10
108.8009
20
142.0788
0
VERTEX
8
CUT
10
106.2476
20
142.7057
0
VERTEX
8
CUT
10
105.7035
20
142.8525
0
VERTEX
8
CUT
10
104.4316
20
143.3602
0
VERTEX
8
CUT
10
104.1323
20
143.5061
0
VERTEX
8
CUT
10
103.4142
20
144.0842
0
VERTEX
8
CUT
10
101.5557
20
146.0633
0
VERTEX
8
CUT
10
98.3988
20
150.2236
0
VERTEX
8
CUT
10
98.3924
20
150.2372
0
VERTEX
8
CUT
10
98.3766
20
150.2706
0
VERTEX
8
CUT
10
98.3731
20
150.2779
0
VERTEX
8
CUT
10
98.2778
20
150.4794
0
VERTEX
8
CUT
10
97.9445
20
153.2442
0
VERTEX
8
CUT
10
98.2563
20
155.9061
0
VERTEX
8
CUT
10
98.2670
20
155.9412
0
VERTEX
8
CUT
10
98.5676
20
156.9258
0
VERTEX
8
CUT
10
98.7166
20
157.2251
0
VERTEX
8
CUT
10
99.5647
20
158.8629
0
VERTEX
8
CUT
10
99.6674
20
159.0312
0
VERTEX
8
CUT
10
99.7010
20
159.0862
0
VERTEX
8
CUT
10
102.1505
20
161.8655
0
VERTEX
8
CUT
10
105.9244
20
165.0701
0
VERTEX
8
CUT
10
111.6955
20
169.2776
0
VERTEX
8
CUT
10
116.6338
20
172.2406
0
VERTEX
8
CUT
10
118.9251
20
173.3094
0
VERTEX
8
CUT
10
123.1458
20
174.6266
0
VERTEX
8
CUT
10
126.7393
20
175.1726
0
VERTEX
8
CUT
10
126.7807
20
175.1870
0
VERTEX
8
CUT
10
127.1304
20
175.2288
0
VERTEX
8
CUT
10
127.2365
20
175.3453
0
VERTEX
8
CUT
10
127.5227
20
175.4447
0
VERTEX
8
CUT
10
128.2199
20
176.4248
0
VERTEX
8
CUT
10
128.3723
20
176.5921
0
VERTEX
8
CUT
10
128.4692
20
176.7752
0
VERTEX
8
CUT
10
129.3442
20
178.0051
0
VERTEX
8
CUT
10
131.8254
20
182.4305
0
VERTEX
8
CUT
10
133.6130
20
186.5148
0
VERTEX
8
CUT
10
134.0848
20
187.9510
0
VERTEX
8
CUT
10
134.0192
20
187.9064
0
VERTEX
8
CUT
10
133.9140
20
187.8495
0
VERTEX
8
CUT
10
133.8036
20
187.8033
0
VERTEX
8
CUT
10
133.6892
20
187.7683
0
VERTEX
8
CUT
10
133.5719
20
187.7449
0
VERTEX
8
CUT
10
133.4528
20
187.7333
0
VERTEX
8
CUT
10
133.3332
20
187.7336
0
VERTEX
8
CUT
10
133.2142
20
187.7458
0
VERTEX
8
CUT
10
133.0970
20
187.7698
0
VERTEX
8
CUT
10
132.9828
20
187.8053
0
VERTEX
8
CUT
10
132.8726
20
187.8521
0
VERTEX
8
CUT
10
132.7940
20
187.8951
0
VERTEX
8
CUT
10
130.1554
20
183.3509
0
VERTEX
8
CUT
10
128.3336
20
181.3202
0
VERTEX
8
CUT
10
126.3778
20
179.5730
0
VERTEX
8
CUT
10
123.9436
20
178.3917
0
VERTEX
8
CUT
10
116.2296
20
175.4284
0
VERTEX
8
CUT
10
111.7880
20
172.4160
0
VERTEX
8
CUT
10
102.7857
20
165.6575
0
VERTEX
8
CUT
10
100.5490
20
164.3468
0
VERTEX
8
CUT
10
99.0413
20
163.8598
0
VERTEX
8
CUT
10
96.3654
20
163.6198
0
VERTEX
8
CUT
10
95.5227
20
163.6983
0
VERTEX
8
CUT
10
94.1599
20
164.4457
0
VERTEX
8
CUT
10
92.5959
20
165.9523
0
VERTEX
8
CUT
10
91.4967
20
167.8169
0
VERTEX
8
CUT
10
90.9779
20
169.5452
0
VERTEX
8
CUT
10
90.9392
20
169.6974
0
VERTEX
8
CUT
10
90.9286
20
169.7392
0
VERTEX
8
CUT
10
90.9215
20
169.7671
0
VERTEX
8
CUT
10
90.8472
20
170.0589
0
VERTEX
8
CUT
10
90.7834
20
171.0370
0
VERTEX
8
CUT
10
90.7667
20
172.8926
0
VERTEX
8
CUT
10
90.9582
20
174.5939
0
VERTEX
8
CUT
10
90.9691
20
174.6459
0
VERTEX
8
CUT
10
90.9895
20
174.7439
0
VERTEX
8
CUT
10
90.9904
20
174.7480
0
VERTEX
8
CUT
10
91.0166
20
174.8735
0
VERTEX
8
CUT
10
91.7286
20
177.1527
0
VERTEX
8
CUT
10
91.7423
20
177.1860
0
VERTEX
8
CUT
10
92.7638
20
179.1778
0
VERTEX
8
CUT
10
93.1510
20
179.8030
0
VERTEX
8
CUT
10
94.0024
20
180.9186
0
VERTEX
8
CUT
10
94.0025
20
180.9188
0
VERTEX
8
CUT
10
94.0073
20
180.9242
0
VERTEX
8
CUT
10
94.9789
20
182.0364
0
VERTEX
8
CUT
10
97.0327
20
183.8585
0
VERTEX
8
CUT
10
100.7737
20
185.9534
0
VERTEX
8
CUT
10
102.6746
20
186.7694
0
VERTEX
8
CUT
10
106.6265
20
187.9186
0
VERTEX
8
CUT
10
110.8892
20
188.2854
0
VERTEX
8
CUT
10
115.5293
20
187.9563
0
VERTEX
8
CUT
10
122.1361
20
186.8201
0
VERTEX
8
CUT
10
122.9979
20
186.8357
0
VERTEX
8
CUT
10
123.8089
20
186.7593
0
VERTEX
8
CUT
10
124.3489
20
186.8602
0
VERTEX
8
CUT
10
125.1973
20
186.8755
0
VERTEX
8
CUT
10
127.1108
20
187.3241
0
VERTEX
8
CUT
10
129.6533
20
188.5239
0
VERTEX
8
CUT
10
131.0639
20
189.4803
0
VERTEX
8
CUT
10
131.0334
20
189.5244
0
VERTEX
8
CUT
10
130.9941
20
189.5949
0
VERTEX
8
CUT
10
131.2610
20
189.8264
0
VERTEX
8
CUT
10
131.7336
20
190.1614
0
VERTEX
8
CUT
10
132.1985
20
190.6394
0
VERTEX
8
CUT
10
132.4991
20
190.9001
0
VERTEX
8
CUT
10
132.8965
20
191.3573
0
VERTEX
8
CUT
10
132.9067
20
191.3677
0
VERTEX
8
CUT
10
132.9110
20
191.3739
0
VERTEX
8
CUT
10
133.5022
20
192.0539
0
VERTEX
8
CUT
10
133.8513
20
192.5920
0
VERTEX
8
CUT
10
133.8656
20
192.5916
0
VERTEX
8
CUT
10
133.9837
20
192.5826
0
VERTEX
8
CUT
10
134.1004
20
192.5621
0
VERTEX
8
CUT
10
134.2144
20
192.5301
0
VERTEX
8
CUT
10
134.3248
20
192.4870
0
VERTEX
8
CUT
10
134.4304
20
192.4333
0
VERTEX
8
CUT
10
134.5301
20
192.3694
0
VERTEX
8
CUT
10
134.6231
20
192.2960
0
VERTEX
8
CUT
10
134.7084
20
192.2138
0
VERTEX
8
CUT
10
134.7851
20
192.1235
0
VERTEX
8
CUT
10
134.8526
20
192.0262
0
VERTEX
8
CUT
10
135.0007
20
191.7883
0
VERTEX
8
CUT
10
135.0177
20
191.7851
0
VERTEX
8
CUT
10
135.0891
20
191.7643
0
VERTEX
8
CUT
10
135.9066
20
196.6870
0
VERTEX
8
CUT
10
136.8313
20
199.4721
0
VERTEX
8
CUT
10
137.0072
20
201.3844
0
VERTEX
8
CUT
10
136.8969
20
202.7680
0
VERTEX
8
CUT
10
136.9141
20
203.3226
0
VERTEX
8
CUT
10
136.7942
20
204.0553
0
VERTEX
8
CUT
10
136.7099
20
205.1134
0
VERTEX
8
CUT
10
136.1852
20
207.3896
0
VERTEX
8
CUT
10
135.5503
20
209.0526
0
VERTEX
8
CUT
10
133.8893
20
212.0715
0
VERTEX
8
CUT
10
131.5480
20
214.9722
0
VERTEX
8
CUT
10
128.3788
20
217.9635
0
VERTEX
8
CUT
10
121.6974
20
223.5367
0
VERTEX
8
CUT
10
118.3258
20
227.2064
0
VERTEX
8
CUT
10
116.0262
20
230.8903
0
VERTEX
8
CUT
10
114.5697
20
234.8823
0
VERTEX
8
CUT
10
114.0216
20
238.1508
0
VERTEX
8
CUT
10
113.9594
20
239.7857
0
VERTEX
8
CUT
10
114.2286
20
243.0492
0
VERTEX
8
CUT
10
114.5604
20
244.5968
0
VERTEX
8
CUT
10
114.9256
20
245.7377
0
VERTEX
8
CUT
10
115.3506
20
246.6544
0
VERTEX
8
CUT
10
115.5446
20
247.0729
0
VERTEX
8
CUT
10
115.7576
20
247.5321
0
VERTEX
8
CUT
10
116.1818
20
248.4469
0
VERTEX
8
CUT
10
118.0703
20
251.0020
0
VERTEX
8
CUT
10
119.0375
20
251.8396
0
VERTEX
8
CUT
10
119.6494
20
251.9157
0
VERTEX
8
CUT
10
119.9651
20
251.0961
0
VERTEX
8
CUT
10
120.2068
20
248.3313
0
VERTEX
8
CUT
10
120.1992
20
248.3223
0
VERTEX
8
CUT
10
120.2236
20
248.1393
0
VERTEX
8
CUT
10
120.4501
20
245.5492
0
VERTEX
8
CUT
10
121.0756
20
242.8592
0
VERTEX
8
CUT
10
122.0812
20
240.3458
0
VERTEX
8
CUT
10
123.5467
20
237.9271
0
VERTEX
8
CUT
10
125.4471
20
235.5563
0
VERTEX
8
CUT
10
127.8514
20
233.2132
0
VERTEX
8
CUT
10
130.8014
20
230.7709
0
VERTEX
8
CUT
10
137.2789
20
226.1144
0
VERTEX
8
CUT
10
139.8464
20
223.9401
0
VERTEX
8
CUT
10
147.0069
20
216.4807
0
VERTEX
8
CUT
10
147.6809
20
215.5421
0
VERTEX
8
CUT
10
148.5499
20
213.2945
0
VERTEX
8
CUT
10
149.4275
20
210.1177
0
VERTEX
8
CUT
10
150.0262
20
207.0163
0
VERTEX
8
CUT
10
150.2118
20
206.7783
0
VERTEX
8
CUT
10
150.7457
20
206.9347
0
VERTEX
8
CUT
10
151.6611
20
209.1991
0
VERTEX
8
CUT
10
153.2318
20
215.0955
0
VERTEX
8
CUT
10
153.4710
20
218.7052
0
VERTEX
8
CUT
10
153.2331
20
221.1621
0
VERTEX
8
CUT
10
152.7349
20
223.5078
0
VERTEX
8
CUT
10
151.6127
20
226.4951
0
VERTEX
8
CUT
10
150.7273
20
228.1813
0
VERTEX
8
CUT
10
149.6673
20
229.7546
0
VERTEX
8
CUT
10
146.9779
20
232.4667
0
VERTEX
8
CUT
10
143.2279
20
235.0055
0
VERTEX
8
CUT
10
136.8700
20
238.6948
0
VERTEX
8
CUT
10
133.4962
20
241.4320
0
VERTEX
8
CUT
10
130.8062
20
244.4807
0
VERTEX
8
CUT
10
129.6853
20
246.1433
0
VERTEX
8
CUT
10
128.1724
20
249.0429
0
VERTEX
8
CUT
10
127.3564
20
251.1840
0
VERTEX
8
CUT
10
126.8314
20
253.4024
0
VERTEX
8
CUT
10
126.5922
20
255.6457
0
VERTEX
8
CUT
10
126.5911
20
258.0320
0
VERTEX
8
CUT
10
126.8253
20
260.1228
0
VERTEX
8
CUT
10
126.8327
20
260.1557
0
VERTEX
8
CUT
10
126.8356
20
260.1685
0
VERTEX
8
CUT
10
126.8366
20
260.1730
0
VERTEX
8
CUT
10
126.8609
20
260.2810
0
VERTEX
8
CUT
10
127.8353
20
263.6526
0
VERTEX
8
CUT
10
130.1980
20
269.2485
0
VERTEX
8
CUT
10
130.4864
20
270.4459
0
VERTEX
8
CUT
10
130.5354
20
271.4127
0
VERTEX
8
CUT
10
130.6613
20
272.2523
0
VERTEX
8
CUT
10
130.6350
20
273.9404
0
VERTEX
8
CUT
10
130.5549
20
274.3274
0
VERTEX
8
CUT
10
130.5393
20
274.8548
0
VERTEX
8
CUT
10
130.0555
20
276.6746
0
VERTEX
8
CUT
10
128.9753
20
278.6382
0
VERTEX
8
CUT
10
127.8291
20
280.0529
0
VERTEX
8
CUT
10
126.4749
20
281.2870
0
VERTEX
8
CUT
10
124.5043
20
282.4026
0
VERTEX
8
CUT
10
122.8397
20
282.7909
0
VERTEX
8
CUT
10
120.1288
20
282.9671
0
VERTEX
8
CUT
10
118.6648
20
282.7270
0
VERTEX
8
CUT
10
116.5507
20
281.7262
0
VERTEX
8
CUT
10
115.4363
20
280.7653
0
VERTEX
8
CUT
10
114.4851
20
279.5720
0
VERTEX
8
CUT
10
113.9352
20
278.3375
0
VERTEX
8
CUT
10
113.8982
20
278.3443
0
VERTEX
8
CUT
10
113.5816
20
277.8359
0
VERTEX
8
CUT
10
113.4755
20
277.3054
0
VERTEX
8
CUT
10
113.4664
20
277.2851
0
VERTEX
8
CUT
10
113.4612
20
277.2341
0
VERTEX
8
CUT
10
113.3290
20
276.5733
0
VERTEX
8
CUT
10
113.3477
20
276.1241
0
VERTEX
8
CUT
10
113.2409
20
275.0789
0
VERTEX
8
CUT
10
113.5400
20
273.4232
0
VERTEX
8
CUT
10
114.9745
20
269.4036
0
VERTEX
8
CUT
10
115.2382
20
268.5618
0
VERTEX
8
CUT
10
115.3029
20
268.3551
0
VERTEX
8
CUT
10
115.3430
20
268.2272
0
VERTEX
8
CUT
10
115.4618
20
267.8477
0
VERTEX
8
CUT
10
115.9006
20
265.8596
0
VERTEX
8
CUT
10
115.9020
20
262.4856
0
VERTEX
8
CUT
10
115.3335
20
259.3434
0
VERTEX
8
CUT
10
114.7725
20
257.7827
0
VERTEX
8
CUT
10
113.0659
20
254.6093
0
VERTEX
8
CUT
10
108.5883
20
248.5954
0
VERTEX
8
CUT
10
106.4890
20
245.2864
0
VERTEX
8
CUT
10
105.2475
20
242.1601
0
VERTEX
8
CUT
10
104.6787
20
238.8703
0
VERTEX
8
CUT
10
104.6216
20
237.2110
0
VERTEX
8
CUT
10
104.7150
20
236.3997
0
VERTEX
8
CUT
10
104.6197
20
235.9708
0
VERTEX
8
CUT
10
104.9490
20
233.7257
0
VERTEX
8
CUT
10
105.7871
20
230.9718
0
VERTEX
8
CUT
10
107.0144
20
228.1580
0
VERTEX
8
CUT
10
108.4513
20
225.6435
0
VERTEX
8
CUT
10
110.1276
20
223.5182
0
VERTEX
8
CUT
10
112.1930
20
221.3629
0
VERTEX
8
CUT
10
112.3831
20
221.2869
0
VERTEX
8
CUT
10
116.5138
20
216.8889
0
VERTEX
8
CUT
10
119.3579
20
213.5059
0
VERTEX
8
CUT
10
120.4352
20
211.9636
0
VERTEX
8
CUT
10
121.8994
20
209.0051
0
VERTEX
8
CUT
10
122.7888
20
205.7600
0
VERTEX
8
CUT
10
123.0295
20
201.8182
0
VERTEX
8
CUT
10
122.6878
20
199.2897
0
VERTEX
8
CUT
10
122.0581
20
197.5506
0
VERTEX
8
CUT
10
121.5770
20
197.0247
0
VERTEX
8
CUT
10
119.7695
20
197.1776
0
VERTEX
8
CUT
10
115.0824
20
198.2136
0
VERTEX
8
CUT
10
113.8526
20
204.1640
0
VERTEX
8
CUT
10
112.9411
20
206.1785
0
VERTEX
8
CUT
10
112.6006
20
207.0555
0
VERTEX
8
CUT
10
112.4485
20
207.2671
0
VERTEX
8
CUT
10
112.1554
20
207.9149
0
VERTEX
8
CUT
10
110.5977
20
209.8424
0
VERTEX
8
CUT
10
110.4995
20
209.9791
0
VERTEX
8
CUT
10
110.4495
20
210.0258
0
VERTEX
8
CUT
10
109.6858
20
210.9708
0
VERTEX
8
CUT
10
100.0423
20
220.3155
0
VERTEX
8
CUT
10
96.7096
20
224.1275
0
VERTEX
8
CUT
10
95.6025
20
225.8767
0
VERTEX
8
CUT
10
93.5601
20
231.4286
0
VERTEX
8
CUT
10
93.1097
20
233.6661
0
VERTEX
8
CUT
10
93.1095
20
233.6670
0
VERTEX
8
CUT
10
93.1076
20
233.6766
0
VERTEX
8
CUT
10
93.0959
20
233.7368
0
VERTEX
8
CUT
10
92.9497
20
234.4859
0
VERTEX
8
CUT
10
92.8959
20
235.3681
0
VERTEX
8
CUT
10
92.8364
20
237.2191
0
VERTEX
8
CUT
10
92.8566
20
237.7727
0
VERTEX
8
CUT
10
92.8688
20
238.1084
0
VERTEX
8
CUT
10
92.8948
20
238.8229
0
VERTEX
8
CUT
10
92.8997
20
238.9566
0
VERTEX
8
CUT
10
92.9413
20
239.4094
0
VERTEX
8
CUT
10
93.1712
20
240.9826
0
VERTEX
8
CUT
10
93.7866
20
243.3735
0
VERTEX
8
CUT
10
95.0146
20
246.3231
0
VERTEX
8
CUT
10
96.6490
20
249.1759
0
VERTEX
8
CUT
10
99.2572
20
252.7359
0
VERTEX
8
CUT
10
101.8059
20
256.0566
0
VERTEX
8
CUT
10
102.4645
20
257.6431
0
VERTEX
8
CUT
10
102.4498
20
257.7552
0
VERTEX
8
CUT
10
102.5874
20
258.0504
0
VERTEX
8
CUT
10
102.6378
20
258.2829
0
VERTEX
8
CUT
10
102.9201
20
259.0174
0
VERTEX
8
CUT
10
102.9489
20
259.7196
0
VERTEX
8
CUT
10
103.0654
20
260.2575
0
VERTEX
8
CUT
10
103.1194
20
263.9147
0
VERTEX
8
CUT
10
102.6584
20
265.2589
0
VERTEX
8
CUT
10
102.3351
20
265.8899
0
VERTEX
8
CUT
10
102.1716
20
266.3429
0
VERTEX
8
CUT
10
101.9437
20
266.6539
0
VERTEX
8
CUT
10
101.4916
20
267.5364
0
VERTEX
8
CUT
10
99.8575
20
269.4395
0
VERTEX
8
CUT
10
98.5129
20
270.3833
0
VERTEX
8
CUT
10
96.6051
20
271.3252
0
VERTEX
8
CUT
10
95.6544
20
271.6245
0
VERTEX
8
CUT
10
94.4980
20
271.7280
0
VERTEX
8
CUT
10
94.1229
20
271.8000
0
VERTEX
8
CUT
10
92.4265
20
271.8000
0
VERTEX
8
CUT
10
92.1385
20
271.7457
0
VERTEX
8
CUT
10
91.8122
20
271.7411
0
VERTEX
8
CUT
10
90.2909
20
271.4540
0
VERTEX
8
CUT
10
89.1708
20
270.9119
0
VERTEX
8
CUT
10
88.2343
20
270.5723
0
VERTEX
8
CUT
10
87.2123
20
269.9638
0
VERTEX
8
CUT
10
86.8418
20
269.7844
0
VERTEX
8
CUT
10
85.3963
20
268.7472
0
VERTEX
8
CUT
10
84.1338
20
267.5389
0
VERTEX
8
CUT
10
83.6951
20
266.9234
0
VERTEX
8
CUT
10
83.3209
20
266.5480
0
VERTEX
8
CUT
10
82.4857
20
265.3128
0
VERTEX
8
CUT
10
82.3478
20
265.0329
0
VERTEX
8
CUT
10
82.0352
20
264.5942
0
VERTEX
8
CUT
10
81.6543
20
263.8069
0
VERTEX
8
CUT
10
81.5594
20
263.6466
0
VERTEX
8
CUT
10
81.5027
20
263.4935
0
VERTEX
8
CUT
10
81.1585
20
262.7821
0
VERTEX
8
CUT
10
80.4186
20
260.7943
0
VERTEX
8
CUT
10
78.7631
20
254.4182
0
VERTEX
8
CUT
10
77.6584
20
250.3367
0
VERTEX
8
CUT
10
76.4249
20
247.2529
0
VERTEX
8
CUT
10
76.0324
20
246.3496
0
VERTEX
8
CUT
10
76.0036
20
246.2833
0
VERTEX
8
CUT
10
75.9779
20
246.2242
0
VERTEX
8
CUT
10
75.9705
20
246.2073
0
VERTEX
8
CUT
10
74.6753
20
243.8391
0
VERTEX
8
CUT
10
73.1522
20
241.6889
0
VERTEX
8
CUT
10
71.4550
20
239.8672
0
VERTEX
8
CUT
10
69.5535
20
238.2657
0
VERTEX
8
CUT
10
66.9292
20
236.6780
0
VERTEX
8
CUT
10
64.1292
20
235.8207
0
VERTEX
8
CUT
10
60.6650
20
235.5817
0
VERTEX
8
CUT
10
52.9586
20
235.9407
0
VERTEX
8
CUT
10
50.9489
20
235.5888
0
VERTEX
8
CUT
10
48.7947
20
234.7622
0
VERTEX
8
CUT
10
46.7893
20
233.5826
0
VERTEX
8
CUT
10
44.9886
20
232.0774
0
VERTEX
8
CUT
10
43.3465
20
230.2224
0
VERTEX
8
CUT
10
41.9290
20
228.0902
0
VERTEX
8
CUT
10
40.7466
20
225.6898
0
VERTEX
8
CUT
10
39.7993
20
223.0195
0
VERTEX
8
CUT
10
39.0955
20
220.1160
0
VERTEX
8
CUT
10
38.7951
20
217.2583
0
VERTEX
8
CUT
10
38.7349
20
213.7744
0
VERTEX
8
CUT
10
38.7693
20
213.3434
0
VERTEX
8
CUT
10
38.7674
20
213.0946
0
VERTEX
8
CUT
10
38.8253
20
212.6414
0
VERTEX
8
CUT
10
39.1504
20
208.5630
0
VERTEX
8
CUT
10
40.9334
20
201.5159
0
VERTEX
8
CUT
10
43.1680
20
195.9671
0
VERTEX
8
CUT
10
45.7140
20
191.1891
0
VERTEX
8
CUT
10
45.8520
20
190.9231
0
VERTEX
8
CUT
10
45.8728
20
190.8912
0
VERTEX
8
CUT
10
46.0796
20
190.5031
0
VERTEX
8
CUT
10
49.3318
20
185.5830
0
VERTEX
8
CUT
10
49.3336
20
185.5803
0
VERTEX
8
CUT
10
49.3337
20
185.5802
0
VERTEX
8
CUT
10
49.5514
20
185.2509
0
VERTEX
8
CUT
10
53.6027
20
180.1794
0
VERTEX
8
CUT
10
58.1402
20
175.4650
0
VERTEX
8
CUT
10
63.1259
20
171.1381
0
VERTEX
8
CUT
10
68.4967
20
167.2600
0
VERTEX
8
CUT
10
73.0878
20
164.4283
0
VERTEX
8
CUT
10
77.3847
20
162.2165
0
VERTEX
8
CUT
10
77.5786
20
162.1886
0
VERTEX
8
CUT
10
77.8954
20
162.0571
0
VERTEX
8
CUT
10
78.1106
20
162.1119
0
VERTEX
8
CUT
10
78.2266
20
162.0952
0
VERTEX
8
CUT
10
78.5749
20
162.3002
0
VERTEX
8
CUT
10
79.2490
20
163.8641
0
VERTEX
8
CUT
10
79.2078
20
164.2179
0
VERTEX
8
CUT
10
72.4442
20
170.4142
0
VERTEX
8
CUT
10
67.7492
20
175.4402
0
VERTEX
8
CUT
10
67.6558
20
175.5614
0
VERTEX
8
CUT
10
67.6542
20
175.5636
0
VERTEX
8
CUT
10
67.6468
20
175.5731
0
VERTEX
8
CUT
10
67.6437
20
175.5772
0
VERTEX
8
CUT
10
63.8172
20
180.8773
0
VERTEX
8
CUT
10
60.4349
20
186.7440
0
VERTEX
8
CUT
10
58.9928
20
189.7472
0
VERTEX
8
CUT
10
56.7090
20
195.6638
0
VERTEX
8
CUT
10
55.5507
20
200.2683
0
VERTEX
8
CUT
10
55.2386
20
202.3441
0
VERTEX
8
CUT
10
54.9589
20
204.3519
0
VERTEX
8
CUT
10
54.8391
20
207.6159
0
VERTEX
8
CUT
10
55.1522
20
209.6723
0
VERTEX
8
CUT
10
55.6944
20
210.0722
0
VERTEX
8
CUT
10
56.2065
20
209.4513
0
VERTEX
8
CUT
10
56.9916
20
204.8173
0
VERTEX
8
CUT
10
57.9024
20
201.4533
0
VERTEX
8
CUT
10
57.9495
20
201.2604
0
VERTEX
8
CUT
10
57.9772
20
201.1770
0
VERTEX
8
CUT
10
58.4478
20
199.4385
0
VERTEX
8
CUT
10
59.1576
20
197.6124
0
VERTEX
8
CUT
10
59.2920
20
197.2063
0
VERTEX
8
CUT
10
59.6842
20
196.2574
0
VERTEX
8
CUT
10
60.9536
20
192.9912
0
VERTEX
8
CUT
10
62.7457
20
189.5349
0
VERTEX
8
CUT
10
63.0230
20
188.9724
0
VERTEX
8
CUT
10
63.1722
20
188.7125
0
VERTEX
8
CUT
10
64.2664
20
186.6020
0
VERTEX
8
CUT
10
65.2743
20
185.0488
0
VERTEX
8
CUT
10
65.3522
20
184.9129
0
VERTEX
8
CUT
10
65.7308
20
184.3453
0
VERTEX
8
CUT
10
68.2946
20
180.3942
0
VERTEX
8
CUT
10
71.6066
20
176.1557
0
VERTEX
8
CUT
10
74.4165
20
173.0763
0
VERTEX
8
CUT
10
78.8075
20
168.6550
0
VERTEX
8
CUT
10
80.9642
20
166.8593
0
VERTEX
8
CUT
10
81.4039
20
166.8959
0
VERTEX
8
CUT
10
83.4055
20
168.8440
0
VERTEX
8
CUT
10
83.9943
20
169.3093
0
VERTEX
8
CUT
10
85.5316
20
170.0703
0
VERTEX
8
CUT
10
87.1609
20
170.1984
0
VERTEX
8
CUT
10
88.4787
20
169.4176
0
VERTEX
8
CUT
10
88.5852
20
169.2776
0
VERTEX
8
CUT
10
88.6399
20
169.2056
0
VERTEX
8
CUT
10
88.6834
20
169.1484
0
VERTEX
8
CUT
10
88.7978
20
168.9978
0
VERTEX
8
CUT
10
95.1191
20
160.1835
0
VERTEX
8
CUT
10
96.2121
20
158.1842
0
VERTEX
8
CUT
10
96.8566
20
156.2920
0
VERTEX
8
CUT
10
96.9662
20
155.4665
0
VERTEX
8
CUT
10
96.8720
20
153.2243
0
VERTEX
8
CUT
10
96.8622
20
152.9908
0
VERTEX
8
CUT
10
96.8543
20
152.8038
0
VERTEX
8
CUT
10
96.8226
20
152.0493
0
VERTEX
8
CUT
10
95.9822
20
149.7973
0
VERTEX
8
CUT
10
94.8410
20
147.9776
0
VERTEX
8
CUT
10
93.9583
20
146.6638
0
VERTEX
8
CUT
10
93.9155
20
146.5016
0
VERTEX
8
CUT
10
93.7872
20
146.2970
0
VERTEX
8
CUT
10
93.5144
20
145.3313
0
VERTEX
8
CUT
10
93.3636
20
142.7329
0
VERTEX
8
CUT
10
92.9783
20
141.9231
0
VERTEX
8
CUT
10
89.5873
20
138.3736
0
VERTEX
8
CUT
10
88.3848
20
138.5088
0
VERTEX
8
CUT
10
87.0404
20
139.0220
0
VERTEX
8
CUT
10
86.2427
20
138.7238
0
VERTEX
8
CUT
10
85.7498
20
138.7491
0
VERTEX
8
CUT
10
85.1610
20
139.1389
0
VERTEX
8
CUT
10
84.6604
20
139.8529
0
VERTEX
8
CUT
10
83.5761
20
142.4649
0
VERTEX
8
CUT
10
82.7096
20
143.7413
0
VERTEX
8
CUT
10
78.8965
20
147.6065
0
VERTEX
8
CUT
10
69.1157
20
147.8744
0
VERTEX
8
CUT
10
64.1055
20
148.4177
0
VERTEX
8
CUT
10
59.2113
20
149.2895
0
VERTEX
8
CUT
10
54.4943
20
150.4837
0
VERTEX
8
CUT
10
49.9037
20
151.9531
0
VERTEX
8
CUT
10
45.5461
20
153.7548
0
VERTEX
8
CUT
10
41.4033
20
155.8414
0
VERTEX
8
CUT
10
37.6139
20
158.1389
0
VERTEX
8
CUT
10
35.4709
20
159.6768
0
VERTEX
8
CUT
10
33.7057
20
161.1083
0
VERTEX
8
CUT
10
32.4037
20
162.5551
0
VERTEX
8
CUT
10
32.5968
20
162.9819
0
VERTEX
8
CUT
10
33.3404
20
162.7942
0
VERTEX
8
CUT
10
38.9953
20
159.5485
0
VERTEX
8
CUT
10
42.2959
20
158.0303
0
VERTEX
8
CUT
10
43.4710
20
157.4611
0
VERTEX
8
CUT
10
44.1041
20
157.1985
0
VERTEX
8
CUT
10
46.4360
20
156.1259
0
VERTEX
8
CUT
10
50.3668
20
154.6859
0
VERTEX
8
CUT
10
54.4546
20
153.4630
0
VERTEX
8
CUT
10
55.6440
20
153.2019
0
VERTEX
8
CUT
10
55.9519
20
153.1040
0
VERTEX
8
CUT
10
57.5024
20
152.7939
0
VERTEX
8
CUT
10
63.0039
20
151.5862
0
VERTEX
8
CUT
10
64.5974
20
151.3749
0
VERTEX
8
CUT
10
64.7358
20
151.3472
0
VERTEX
8
CUT
10
64.9915
20
151.3227
0
VERTEX
8
CUT
10
67.5199
20
150.9874
0
VERTEX
8
CUT
10
70.9309
20
150.7519
0
VERTEX
8
CUT
10
72.2156
20
150.6284
0
VERTEX
8
CUT
10
72.6286
20
150.6346
0
VERTEX
8
CUT
10
74.4428
20
150.5093
0
VERTEX
8
CUT
10
75.8085
20
150.5765
0
VERTEX
8
CUT
10
75.9215
20
150.5690
0
VERTEX
8
CUT
10
77.1680
20
150.5990
0
VERTEX
8
CUT
10
77.2482
20
150.6473
0
VERTEX
8
CUT
10
77.7206
20
150.6705
0
VERTEX
8
CUT
10
77.9579
20
151.0192
0
VERTEX
8
CUT
10
77.7753
20
151.8918
0
VERTEX
8
CUT
10
77.4691
20
152.5235
0
VERTEX
8
CUT
10
76.9734
20
152.9153
0
VERTEX
8
CUT
10
70.1945
20
154.6187
0
VERTEX
8
CUT
10
66.6377
20
155.7031
0
VERTEX
8
CUT
10
64.9010
20
156.2935
0
VERTEX
8
CUT
10
64.8743
20
156.3026
0
VERTEX
8
CUT
10
64.6099
20
156.3924
0
VERTEX
8
CUT
10
62.5391
20
157.0964
0
VERTEX
8
CUT
10
59.5395
20
158.2217
0
VERTEX
8
CUT
10
52.6839
20
161.4250
0
VERTEX
8
CUT
10
45.2928
20
165.6313
0
VERTEX
8
CUT
10
34.9341
20
172.6063
0
VERTEX
8
CUT
10
31.3652
20
174.5539
0
VERTEX
8
CUT
10
29.9355
20
175.0910
0
VERTEX
8
CUT
10
28.6208
20
175.3565
0
VERTEX
8
CUT
10
26.3018
20
175.2724
0
VERTEX
8
CUT
10
24.8665
20
174.8289
0
VERTEX
8
CUT
10
23.5858
20
174.1589
0
VERTEX
8
CUT
10
22.4498
20
173.2274
0
VERTEX
8
CUT
10
21.4847
20
172.0874
0
VERTEX
8
CUT
10
20.0168
20
169.2101
0
VERTEX
8
CUT
10
19.7846
20
167.9618
0
VERTEX
8
CUT
10
19.6945
20
167.7043
0
SEQEND
0
POLYLINE
8
CUT
66
1
70
1
10
0.0
20
0.0
30
0.0
0
VERTEX
8
CUT
10
275.5074
20
178.9370
0
VERTEX
8
CUT
10
275.4777
20
178.9251
0
VERTEX
8
CUT
10
275.1503
20
178.8900
0
VERTEX
8
CUT
10
274.2569
20
178.4353
0
VERTEX
8
CUT
10
274.1411
20
178.3888
0
VERTEX
8
CUT
10
274.1074
20
178.3591
0
VERTEX
8
CUT
10
273.6365
20
178.1194
0
VERTEX
8
CUT
10
272.5490
20
176.9290
0
VERTEX
8
CUT
10
271.9583
20
175.3202
0
VERTEX
8
CUT
10
271.8667
20
174.3000
0
VERTEX
8
CUT
10
271.8818
20
174.1656
0
VERTEX
8
CUT
10
271.8659
20
174.0711
0
VERTEX
8
CUT
10
271.9044
20
173.7935
0
VERTEX
8
CUT
10
271.8982
20
173.6501
0
VERTEX
8
CUT
10
271.9617
20
173.3812
0
VERTEX
8
CUT
10
272.0066
20
173.0581
0
VERTEX
8
CUT
10
272.0242
20
172.9018
0
VERTEX
8
CUT
10
272.0308
20
172.8839
0
VERTEX
8
CUT
10
272.0583
20
172.6860
0
VERTEX
8
CUT
10
272.1788
20
172.4632
0
VERTEX
8
CUT
10
272.2034
20
172.3590
0
VERTEX
8
CUT
10
272.2720
20
172.2288
0
VERTEX
8
CUT
10
272.4418
20
171.7676
0
VERTEX
8
CUT
10
273.1089
20
170.7573
0
VERTEX
8
CUT
10
273.8842
20
170.0642
0
VERTEX
8
CUT
10
274.8060
20
169.5964
0
VERTEX
8
CUT
10
275.9904
20
169.4061
0
VERTEX
8
CUT
10
276.1512
20
169.4266
0
VERTEX
8
CUT
10
276.2763
20
169.4028
0
VERTEX
8
CUT
10
276.4289
20
169.4621
0
VERTEX
8
CUT
10
277.1221
20
169.5505
0
VERTEX
8
CUT
10
278.2843
20
170.0333
0
VERTEX
8
CUT
10
279.7087
20
171.2665
0
VERTEX
8
CUT
10
280.1880
20
172.0422
0
VERTEX
8
CUT
10
280.6532
20
173.6823
0
VERTEX
8
CUT
10
280.4669
20
175.5850
0
VERTEX
8
CUT
10
279.6914
20
177.2358
0
VERTEX
8
CUT
10
279.5069
20
177.4195
0
VERTEX
8
CUT
10
279.4691
20
177.4957
0
VERTEX
8
CUT
10
279.0675
20
177.8568
0
VERTEX
8
CUT
10
278.3645
20
178.5566
0
VERTEX
8
CUT
10
277.2383
20
178.9049
0
VERTEX
8
CUT
10
276.9771
20
178.9975
0
VERTEX
8
CUT
10
276.9434
20
178.9961
0
VERTEX
8
CUT
10
276.7370
20
179.0600
0
VERTEX
8
CUT
10
275.6400
20
178.9425
0
SEQEND
0
POLYLINE
8
CUT
66
1
70
1
10
0.0
20
0.0
30
0.0
0
VERTEX
8
CUT
10
259.9889
20
113.4555
0
VERTEX
8
CUT
10
259.9197
20
113.4196
0
VERTEX
8
CUT
10
259.8333
20
113.3314
0
VERTEX
8
CUT
10
259.2534
20
112.8688
0
VERTEX
8
CUT
10
258.9056
20
112.3835
0
VERTEX
8
CUT
10
258.8063
20
112.2820
0
VERTEX
8
CUT
10
258.7842
20
112.2327
0
VERTEX
8
CUT
10
258.7487
20
112.1963
0
VERTEX
8
CUT
10
258.7186
20
112.1224
0
VERTEX
8
CUT
10
258.5830
20
111.9333
0
VERTEX
8
CUT
10
258.3336
20
111.2290
0
VERTEX
8
CUT
10
258.1800
20
110.8868
0
VERTEX
8
CUT
10
258.1800
20
110.7953
0
VERTEX
8
CUT
10
258.1597
20
110.7380
0
VERTEX
8
CUT
10
258.1313
20
109.4189
0
VERTEX
8
CUT
10
258.5350
20
108.1393
0
VERTEX
8
CUT
10
259.4798
20
107.0325
0
VERTEX
8
CUT
10
260.7417
20
106.3946
0
VERTEX
8
CUT
10
261.3429
20
106.3448
0
VERTEX
8
CUT
10
261.3533
20
106.3420
0
VERTEX
8
CUT
10
261.5103
20
106.2714
0
VERTEX
8
CUT
10
261.5769
20
106.2818
0
VERTEX
8
CUT
10
261.8562
20
106.2066
0
VERTEX
8
CUT
10
262.0844
20
106.2834
0
VERTEX
8
CUT
10
262.2585
20
106.2690
0
VERTEX
8
CUT
10
263.6484
20
106.7645
0
VERTEX
8
CUT
10
264.8689
20
107.8029
0
VERTEX
8
CUT
10
265.4643
20
109.1204
0
VERTEX
8
CUT
10
265.5425
20
110.7859
0
VERTEX
8
CUT
10
265.1077
20
112.2036
0
VERTEX
8
CUT
10
264.5411
20
112.8259
0
VERTEX
8
CUT
10
264.1422
20
113.3401
0
VERTEX
8
CUT
10
263.1280
20
113.9439
0
VERTEX
8
CUT
10
262.5277
20
114.0482
0
VERTEX
8
CUT
10
262.4822
20
114.0698
0
VERTEX
8
CUT
10
262.4136
20
114.0680
0
VERTEX
8
CUT
10
261.8776
20
114.1612
0
VERTEX
8
CUT
10
261.1963
20
114.0810
0
VERTEX
8
CUT
10
260.5480
20
113.7451
0
VERTEX
8
CUT
10
260.1561
20
113.5889
0
SEQEND
0
POLYLINE
8
CUT
66
1
70
1
10
0.0
20
0.0
30
0.0
0
VERTEX
8
CUT
10
249.4605
20
88.5756
0
VERTEX
8
CUT
10
249.3655
20
88.4889
0
VERTEX
8
CUT
10
248.5677
20
87.9714
0
VERTEX
8
CUT
10
248.0058
20
87.2471
0
VERTEX
8
CUT
10
247.8839
20
87.1358
0
VERTEX
8
CUT
10
247.7610
20
86.9316
0
VERTEX
8
CUT
10
247.0075
20
85.9604
0
VERTEX
8
CUT
10
246.7284
20
85.2159
0
VERTEX
8
CUT
10
246.6551
20
85.0942
0
VERTEX
8
CUT
10
246.3995
20
84.3386
0
VERTEX
8
CUT
10
246.1522
20
83.6791
0
VERTEX
8
CUT
10
245.9688
20
82.3672
0
VERTEX
8
CUT
10
245.9760
20
81.1349
0
VERTEX
8
CUT
10
246.4533
20
79.2803
0
VERTEX
8
CUT
10
246.7372
20
78.7741
0
VERTEX
8
CUT
10
246.7788
20
78.6608
0
VERTEX
8
CUT
10
246.9526
20
78.3900
0
VERTEX
8
CUT
10
246.9664
20
78.3654
0
VERTEX
8
CUT
10
247.1230
20
78.0650
0
VERTEX
8
CUT
10
247.1588
20
78.0225
0
VERTEX
8
CUT
10
247.2581
20
77.8454
0
VERTEX
8
CUT
10
247.4678
20
77.5878
0
VERTEX
8
CUT
10
247.9501
20
76.8368
0
VERTEX
8
CUT
10
249.3628
20
75.7582
0
VERTEX
8
CUT
10
249.5285
20
75.6852
0
VERTEX
8
CUT
10
250.0335
20
75.3160
0
VERTEX
8
CUT
10
251.3232
20
74.9543
0
VERTEX
8
CUT
10
251.9061
20
74.9375
0
VERTEX
8
CUT
10
252.2656
20
74.8642
0
VERTEX
8
CUT
10
252.8126
20
74.8845
0
VERTEX
8
CUT
10
253.2203
20
74.8373
0
VERTEX
8
CUT
10
253.9366
20
74.8793
0
VERTEX
8
CUT
10
254.5348
20
74.8621
0
VERTEX
8
CUT
10
255.8286
20
75.1822
0
VERTEX
8
CUT
10
256.9650
20
75.8334
0
VERTEX
8
CUT
10
258.1068
20
76.7955
0
VERTEX
8
CUT
10
259.0749
20
77.9628
0
VERTEX
8
CUT
10
259.7830
20
79.1989
0
VERTEX
8
CUT
10
260.3667
20
82.0161
0
VERTEX
8
CUT
10
260.0369
20
84.9784
0
VERTEX
8
CUT
10
259.3371
20
86.6054
0
VERTEX
8
CUT
10
258.4468
20
87.7690
0
VERTEX
8
CUT
10
257.3726
20
88.6699
0
VERTEX
8
CUT
10
256.1794
20
89.3393
0
VERTEX
8
CUT
10
254.9028
20
89.7737
0
VERTEX
8
CUT
10
253.5397
20
89.9193
0
VERTEX
8
CUT
10
252.1725
20
89.8031
0
VERTEX
8
CUT
10
250.8083
20
89.4248
0
VERTEX
8
CUT
10
249.6342
20
88.6632
0
SEQEND
0
POLYLINE
8
CUT
66
1
70
1
10
0.0
20
0.0
30
0.0
0
VERTEX
8
CUT
10
244.7588
20
247.8159
0
VERTEX
8
CUT
10
244.5400
20
248.3839
0
VERTEX
8
CUT
10
244.4390
20
248.7028
0
VERTEX
8
CUT
10
244.3899
20
248.7738
0
VERTEX
8
CUT
10
244.0386
20
249.6858
0
VERTEX
8
CUT
10
243.2797
20
250.4472
0
VERTEX
8
CUT
10
241.6286
20
251.1852
0
VERTEX
8
CUT
10
240.7905
20
251.1633
0
VERTEX
8
CUT
10
239.9296
20
250.7395
0
VERTEX
8
CUT
10
239.8365
20
250.7172
0
VERTEX
8
CUT
10
239.7806
20
250.6662
0
VERTEX
8
CUT
10
239.7553
20
250.6537
0
VERTEX
8
CUT
10
239.6015
20
250.5029
0
VERTEX
8
CUT
10
238.8633
20
249.8296
0
VERTEX
8
CUT
10
238.8041
20
249.7205
0
VERTEX
8
CUT
10
238.6371
20
249.5565
0
VERTEX
8
CUT
10
238.3900
20
248.9570
0
VERTEX
8
CUT
10
238.2876
20
248.7683
0
VERTEX
8
CUT
10
238.2797
20
248.6893
0
VERTEX
8
CUT
10
238.1348
20
248.3377
0
VERTEX
8
CUT
10
238.0760
20
247.1403
0
VERTEX
8
CUT
10
238.4115
20
246.0381
0
VERTEX
8
CUT
10
238.9942
20
245.1669
0
VERTEX
8
CUT
10
239.5965
20
244.6412
0
VERTEX
8
CUT
10
239.6451
20
244.5939
0
VERTEX
8
CUT
10
239.6596
20
244.5862
0
VERTEX
8
CUT
10
239.7768
20
244.4838
0
VERTEX
8
CUT
10
240.1578
20
244.3179
0
VERTEX
8
CUT
10
240.3914
20
244.1599
0
VERTEX
8
CUT
10
240.4781
20
244.1464
0
VERTEX
8
CUT
10
240.5073
20
244.1307
0
VERTEX
8
CUT
10
240.6496
20
244.1037
0
VERTEX
8
CUT
10
240.8058
20
244.0357
0
VERTEX
8
CUT
10
241.0924
20
244.0197
0
VERTEX
8
CUT
10
241.5033
20
243.9417
0
VERTEX
8
CUT
10
241.7421
20
243.9834
0
VERTEX
8
CUT
10
241.9592
20
243.9712
0
VERTEX
8
CUT
10
242.3041
20
244.0815
0
VERTEX
8
CUT
10
242.4909
20
244.1141
0
VERTEX
8
CUT
10
242.5518
20
244.1607
0
VERTEX
8
CUT
10
243.1346
20
244.3470
0
VERTEX
8
CUT
10
243.9961
20
245.0092
0
VERTEX
8
CUT
10
244.4921
20
245.8049
0
VERTEX
8
CUT
10
244.7640
20
246.7296
0
SEQEND
0
POLYLINE
8
CUT
66
1
70
1
10
0.0
20
0.0
30
0.0
0
VERTEX
8
CUT
10
228.9683
20
246.0015
0
VERTEX
8
CUT
10
229.1996
20
242.7603
0
VERTEX
8
CUT
10
229.4688
20
241.6640
0
VERTEX
8
CUT
10
229.8060
20
241.4414
0
VERTEX
8
CUT
10
230.2074
20
241.7834
0
VERTEX
8
CUT
10
230.3429
20
244.7512
0
VERTEX
8
CUT
10
231.3276
20
252.3337
0
VERTEX
8
CUT
10
230.9765
20
255.3163
0
VERTEX
8
CUT
10
230.5851
20
255.5147
0
VERTEX
8
CUT
10
230.2574
20
255.2229
0
SEQEND
0
POLYLINE
8
CUT
66
1
70
1
10
0.0
20
0.0
30
0.0
0
VERTEX
8
CUT
10
182.6481
20
47.0605
0
VERTEX
8
CUT
10
182.3574
20
47.2152
0
VERTEX
8
CUT
10
181.8133
20
47.2562
0
VERTEX
8
CUT
10
181.2452
20
47.4156
0
VERTEX
8
CUT
10
181.0944
20
47.3688
0
VERTEX
8
CUT
10
180.8722
20
47.3272
0
VERTEX
8
CUT
10
180.4866
20
47.3563
0
VERTEX
8
CUT
10
179.2717
20
46.8275
0
VERTEX
8
CUT
10
178.9023
20
46.4422
0
VERTEX
8
CUT
10
178.5387
20
46.2252
0
VERTEX
8
CUT
10
177.8184
20
45.3177
0
VERTEX
8
CUT
10
177.5017
20
44.3826
0
VERTEX
8
CUT
10
177.4177
20
44.1732
0
VERTEX
8
CUT
10
177.4179
20
44.1353
0
VERTEX
8
CUT
10
177.3299
20
43.8752
0
VERTEX
8
CUT
10
177.4732
20
42.4789
0
VERTEX
8
CUT
10
178.1846
20
41.1415
0
VERTEX
8
CUT
10
178.7061
20
40.7069
0
VERTEX
8
CUT
10
179.0633
20
40.3100
0
VERTEX
8
CUT
10
179.2965
20
40.2150
0
VERTEX
8
CUT
10
179.4302
20
40.1035
0
VERTEX
8
CUT
10
181.0889
20
39.4874
0
VERTEX
8
CUT
10
182.3410
20
39.6889
0
VERTEX
8
CUT
10
183.4887
20
40.2842
0
VERTEX
8
CUT
10
184.4136
20
41.5225
0
VERTEX
8
CUT
10
184.5375
20
41.9791
0
VERTEX
8
CUT
10
184.7657
20
42.5026
0
VERTEX
8
CUT
10
184.8344
20
43.0732
0
VERTEX
8
CUT
10
184.8729
20
43.2148
0
VERTEX
8
CUT
10
184.8629
20
43.3097
0
VERTEX
8
CUT
10
184.8713
20
43.3795
0
VERTEX
8
CUT
10
184.9272
20
43.6016
0
VERTEX
8
CUT
10
184.8585
20
43.8622
0
VERTEX
8
CUT
10
184.7391
20
44.6897
0
VERTEX
8
CUT
10
184.7126
20
44.7461
0
VERTEX
8
CUT
10
184.7001
20
44.8660
0
VERTEX
8
CUT
10
184.5152
20
45.1659
0
VERTEX
8
CUT
10
184.2263
20
45.7804
0
VERTEX
8
CUT
10
183.9629
20
46.0619
0
VERTEX
8
CUT
10
183.7492
20
46.4085
0
VERTEX
8
CUT
10
183.4265
20
46.6353
0
VERTEX
8
CUT
10
183.4059
20
46.6573
0
VERTEX
8
CUT
10
183.3616
20
46.6808
0
VERTEX
8
CUT
10
182.8976
20
47.0069
0
SEQEND
0
POLYLINE
8
CUT
66
1
70
1
10
0.0
20
0.0
30
0.0
0
VERTEX
8
CUT
10
179.3509
20
195.1195
0
VERTEX
8
CUT
10
179.3960
20
195.1523
0
VERTEX
8
CUT
10
179.4030
20
195.1873
0
SEQEND
0
POLYLINE
8
CUT
66
1
70
1
10
0.0
20
0.0
30
0.0
0
VERTEX
8
CUT
10
164.9010
20
31.8719
0
VERTEX
8
CUT
10
164.7468
20
31.8308
0
VERTEX
8
CUT
10
164.5059
20
31.7003
0
VERTEX
8
CUT
10
163.5093
20
31.2674
0
VERTEX
8
CUT
10
162.3833
20
30.3109
0
VERTEX
8
CUT
10
161.5355
20
29.1056
0
VERTEX
8
CUT
10
161.0212
20
27.6356
0
VERTEX
8
CUT
10
160.9294
20
26.0745
0
VERTEX
8
CUT
10
161.2350
20
24.5185
0
VERTEX
8
CUT
10
162.0619
20
22.8676
0
VERTEX
8
CUT
10
163.3779
20
21.5802
0
VERTEX
8
CUT
10
165.1484
20
20.8057
0
VERTEX
8
CUT
10
166.1925
20
20.5934
0
VERTEX
8
CUT
10
167.9533
20
20.6741
0
VERTEX
8
CUT
10
169.5111
20
21.4236
0
VERTEX
8
CUT
10
171.2055
20
23.3309
0
VERTEX
8
CUT
10
171.7297
20
24.7159
0
VERTEX
8
CUT
10
171.8863
20
25.0483
0
VERTEX
8
CUT
10
171.8935
20
25.1486
0
VERTEX
8
CUT
10
172.0844
20
25.6533
0
VERTEX
8
CUT
10
172.0612
20
27.6505
0
VERTEX
8
CUT
10
171.8943
20
28.0536
0
VERTEX
8
CUT
10
171.8859
20
28.1153
0
VERTEX
8
CUT
10
171.5025
20
29.0810
0
VERTEX
8
CUT
10
171.4262
20
29.1841
0
VERTEX
8
CUT
10
171.2260
20
29.6676
0
VERTEX
8
CUT
10
169.7542
20
31.1969
0
VERTEX
8
CUT
10
168.8349
20
31.7134
0
VERTEX
8
CUT
10
167.7691
20
32.0311
0
VERTEX
8
CUT
10
166.6763
20
32.1449
0
VERTEX
8
CUT
10
166.1717
20
32.0774
0
VERTEX
8
CUT
10
165.7216
20
32.0902
0
VERTEX
8
CUT
10
165.1685
20
31.9431
0
VERTEX
8
CUT
10
165.0188
20
31.9230
0
SEQEND
0
POLYLINE
8
CUT
66
1
70
1
10
0.0
20
0.0
30
0.0
0
VERTEX
8
CUT
10
134.5207
20
179.9289
0
VERTEX
8
CUT
10
135.6265
20
181.1240
0
VERTEX
8
CUT
10
138.1616
20
184.2862
0
VERTEX
8
CUT
10
141.2221
20
188.9215
0
VERTEX
8
CUT
10
142.8911
20
192.1383
0
VERTEX
8
CUT
10
144.2040
20
195.2995
0
VERTEX
8
CUT
10
145.5334
20
199.3425
0
VERTEX
8
CUT
10
145.3412
20
199.7950
0
VERTEX
8
CUT
10
144.8364
20
199.6685
0
VERTEX
8
CUT
10
142.5117
20
194.9051
0
VERTEX
8
CUT
10
141.6320
20
193.4822
0
VERTEX
8
CUT
10
140.1589
20
191.7087
0
VERTEX
8
CUT
10
139.4465
20
191.2627
0
VERTEX
8
CUT
10
138.8652
20
191.2216
0
VERTEX
8
CUT
10
138.3485
20
191.6493
0
VERTEX
8
CUT
10
138.0380
20
192.2433
0
VERTEX
8
CUT
10
137.4994
20
192.1156
0
VERTEX
8
CUT
10
136.3400
20
186.6350
0
VERTEX
8
CUT
10
135.5255
20
184.0435
0
VERTEX
8
CUT
10
133.9675
20
180.3404
0
VERTEX
8
CUT
10
134.1198
20
179.9675
0
SEQEND
0
POLYLINE
8
CUT
66
1
70
1
10
0.0
20
0.0
30
0.0
0
VERTEX
8
CUT
10
129.8188
20
39.5532
0
VERTEX
8
CUT
10
129.9425
20
39.7880
0
VERTEX
8
CUT
10
130.1495
20
41.0648
0
VERTEX
8
CUT
10
129.8376
20
42.2299
0
VERTEX
8
CUT
10
129.8055
20
42.4303
0
VERTEX
8
CUT
10
129.7702
20
42.4819
0
VERTEX
8
CUT
10
129.7256
20
42.6485
0
VERTEX
8
CUT
10
129.2582
20
43.2297
0
VERTEX
8
CUT
10
128.8805
20
43.7813
0
VERTEX
8
CUT
10
128.7295
20
43.8871
0
VERTEX
8
CUT
10
128.6685
20
43.9629
0
VERTEX
8
CUT
10
128.4070
20
44.1130
0
VERTEX
8
CUT
10
127.6680
20
44.6307
0
VERTEX
8
CUT
10
127.5118
20
44.6268
0
VERTEX
8
CUT
10
127.2974
20
44.7499
0
VERTEX
8
CUT
10
125.8279
20
44.7504
0
VERTEX
8
CUT
10
124.9710
20
44.3346
0
VERTEX
8
CUT
10
124.1605
20
43.6082
0
VERTEX
8
CUT
10
121.0689
20
38.9646
0
VERTEX
8
CUT
10
116.6985
20
33.6649
0
VERTEX
8
CUT
10
115.8035
20
32.1645
0
VERTEX
8
CUT
10
115.1867
20
30.6152
0
VERTEX
8
CUT
10
114.8035
20
28.6390
0
VERTEX
8
CUT
10
114.8312
20
27.5036
0
VERTEX
8
CUT
10
115.3136
20
25.4302
0
VERTEX
8
CUT
10
115.7882
20
24.4431
0
VERTEX
8
CUT
10
116.9951
20
22.9464
0
VERTEX
8
CUT
10
117.8171
20
22.4052
0
VERTEX
8
CUT
10
118.9016
20
21.9713
0
VERTEX
8
CUT
10
119.6923
20
21.8701
0
VERTEX
8
CUT
10
119.7171
20
21.8623
0
VERTEX
8
CUT
10
119.7468
20
21.8632
0
VERTEX
8
CUT
10
120.0560
20
21.8236
0
VERTEX
8
CUT
10
121.1213
20
21.9594
0
VERTEX
8
CUT
10
122.1137
20
22.3644
0
VERTEX
8
CUT
10
123.1340
20
23.2414
0
VERTEX
8
CUT
10
123.8261
20
24.1861
0
VERTEX
8
CUT
10
124.0234
20
25.0111
0
VERTEX
8
CUT
10
124.0490
20
25.0531
0
VERTEX
8
CUT
10
124.0451
20
25.1020
0
VERTEX
8
CUT
10
124.0754
20
25.2287
0
VERTEX
8
CUT
10
124.0484
20
25.5365
0
VERTEX
8
CUT
10
124.0742
20
25.6845
0
VERTEX
8
CUT
10
123.6467
20
30.4408
0
VERTEX
8
CUT
10
123.8791
20
31.8885
0
VERTEX
8
CUT
10
125.0455
20
33.7480
0
VERTEX
8
CUT
10
125.5940
20
34.4412
0
VERTEX
8
CUT
10
126.3830
20
35.2631
0
VERTEX
8
CUT
10
126.4485
20
35.3307
0
VERTEX
8
CUT
10
126.8965
20
35.7654
0
VERTEX
8
CUT
10
127.1002
20
35.9211
0
VERTEX
8
CUT
10
129.1956
20
38.1063
0
VERTEX
8
CUT
10
129.6746
20
38.9445
0
VERTEX
8
CUT
10
129.6746
20
39.0880
0
VERTEX
8
CUT
10
129.7581
20
39.2332
0
SEQEND
0
POLYLINE
8
CUT
66
1
70
1
10
0.0
20
0.0
30
0.0
0
VERTEX
8
CUT
10
33.3761
20
203.9715
0
VERTEX
8
CUT
10
31.8182
20
205.1247
0
VERTEX
8
CUT
10
30.2343
20
205.4643
0
VERTEX
8
CUT
10
28.7111
20
205.0683
0
VERTEX
8
CUT
10
27.2289
20
203.9608
0
VERTEX
8
CUT
10
26.7461
20
203.1921
0
VERTEX
8
CUT
10
26.6519
20
203.1105
0
VERTEX
8
CUT
10
26.4636
20
202.7423
0
VERTEX
8
CUT
10
26.0815
20
202.1339
0
VERTEX
8
CUT
10
26.0176
20
201.8703
0
VERTEX
8
CUT
10
25.9764
20
201.7898
0
VERTEX
8
CUT
10
25.8600
20
201.2206
0
VERTEX
8
CUT
10
25.5965
20
200.1337
0
VERTEX
8
CUT
10
25.5051
20
198.9490
0
VERTEX
8
CUT
10
25.7969
20
195.2270
0
VERTEX
8
CUT
10
26.7718
20
192.0884
0
VERTEX
8
CUT
10
28.7014
20
188.1353
0
VERTEX
8
CUT
10
30.0246
20
186.0595
0
VERTEX
8
CUT
10
31.1284
20
184.6159
0
VERTEX
8
CUT
10
31.6384
20
183.8799
0
VERTEX
8
CUT
10
32.3930
20
182.9619
0
VERTEX
8
CUT
10
33.2140
20
181.8882
0
VERTEX
8
CUT
10
33.7694
20
181.2877
0
VERTEX
8
CUT
10
34.1114
20
180.8717
0
VERTEX
8
CUT
10
36.9292
20
177.8462
0
VERTEX
8
CUT
10
37.1111
20
177.6747
0
VERTEX
8
CUT
10
37.2429
20
177.5322
0
VERTEX
8
CUT
10
40.1702
20
174.7551
0
VERTEX
8
CUT
10
41.6418
20
173.5566
0
VERTEX
8
CUT
10
43.5442
20
171.9494
0
VERTEX
8
CUT
10
44.1183
20
171.5397
0
VERTEX
8
CUT
10
46.2915
20
169.7698
0
VERTEX
8
CUT
10
50.2967
20
167.1300
0
VERTEX
8
CUT
10
51.1416
20
166.5270
0
VERTEX
8
CUT
10
51.5157
20
166.3266
0
VERTEX
8
CUT
10
52.8422
20
165.4523
0
VERTEX
8
CUT
10
56.2732
20
163.5423
0
VERTEX
8
CUT
10
63.5353
20
160.2240
0
VERTEX
8
CUT
10
67.4453
20
158.7611
0
VERTEX
8
CUT
10
68.4972
20
158.4463
0
VERTEX
8
CUT
10
68.6976
20
158.3736
0
VERTEX
8
CUT
10
69.4800
20
158.1521
0
VERTEX
8
CUT
10
74.7223
20
156.5831
0
VERTEX
8
CUT
10
75.7306
20
156.3832
0
VERTEX
8
CUT
10
75.9697
20
156.3156
0
VERTEX
8
CUT
10
76.6218
20
156.2286
0
VERTEX
8
CUT
10
76.8744
20
156.3533
0
VERTEX
8
CUT
10
77.0545
20
156.3553
0
VERTEX
8
CUT
10
77.2788
20
156.6611
0
VERTEX
8
CUT
10
77.2848
20
156.8517
0
VERTEX
8
CUT
10
77.4041
20
157.1698
0
VERTEX
8
CUT
10
77.3923
20
157.6733
0
VERTEX
8
CUT
10
77.4394
20
157.7726
0
VERTEX
8
CUT
10
77.3816
20
158.0966
0
VERTEX
8
CUT
10
77.2572
20
158.2170
0
VERTEX
8
CUT
10
77.1914
20
158.5478
0
VERTEX
8
CUT
10
76.9000
20
158.8714
0
VERTEX
8
CUT
10
67.7913
20
163.7944
0
VERTEX
8
CUT
10
64.0515
20
166.2072
0
VERTEX
8
CUT
10
60.5691
20
168.7298
0
VERTEX
8
CUT
10
57.2671
20
171.4323
0
VERTEX
8
CUT
10
55.7644
20
172.8199
0
VERTEX
8
CUT
10
55.7164
20
172.8648
0
VERTEX
8
CUT
10
55.6066
20
172.9676
0
VERTEX
8
CUT
10
55.2206
20
173.3289
0
VERTEX
8
CUT
10
53.9465
20
174.5216
0
VERTEX
8
CUT
10
51.1294
20
177.4503
0
VERTEX
8
CUT
10
46.5961
20
182.7931
0
VERTEX
8
CUT
10
43.7059
20
186.7371
0
VERTEX
8
CUT
10
39.6318
20
193.3277
0
VERTEX
8
CUT
10
35.8830
20
200.3441
0
SEQEND
0
POLYLINE
8
CUT
66
1
70
1
10
0.0
20
0.0
30
0.0
0
VERTEX
8
CUT
10
66.3367
20
256.6551
0
VERTEX
8
CUT
10
66.0926
20
256.6235
0
VERTEX
8
CUT
10
66.0043
20
256.6159
0
VERTEX
8
CUT
10
65.9881
20
256.6198
0
VERTEX
8
CUT
10
65.9544
20
256.6116
0
VERTEX
8
CUT
10
64.6477
20
256.4992
0
VERTEX
8
CUT
10
63.6351
20
255.7541
0
VERTEX
8
CUT
10
63.6074
20
255.7132
0
VERTEX
8
CUT
10
63.5984
20
255.7069
0
VERTEX
8
CUT
10
63.0281
20
254.9215
0
VERTEX
8
CUT
10
62.9973
20
254.8128
0
VERTEX
8
CUT
10
62.6579
20
254.3120
0
VERTEX
8
CUT
10
62.4447
20
253.2366
0
VERTEX
8
CUT
10
62.5855
20
252.1687
0
VERTEX
8
CUT
10
62.8726
20
251.6703
0
VERTEX
8
CUT
10
62.9004
20
251.4937
0
VERTEX
8
CUT
10
63.0437
20
251.3386
0
VERTEX
8
CUT
10
63.1136
20
251.1207
0
VERTEX
8
CUT
10
63.3158
20
250.9009
0
VERTEX
8
CUT
10
63.3938
20
250.7655
0
VERTEX
8
CUT
10
63.4200
20
250.7443
0
VERTEX
8
CUT
10
63.5018
20
250.5997
0
VERTEX
8
CUT
10
63.7909
20
250.3845
0
VERTEX
8
CUT
10
64.0008
20
250.1563
0
VERTEX
8
CUT
10
64.2189
20
250.0658
0
VERTEX
8
CUT
10
64.7194
20
249.6931
0
VERTEX
8
CUT
10
64.9337
20
249.6448
0
VERTEX
8
CUT
10
66.0445
20
249.2916
0
VERTEX
8
CUT
10
67.0220
20
249.5714
0
VERTEX
8
CUT
10
67.4380
20
249.8501
0
VERTEX
8
CUT
10
67.7182
20
249.9141
0
VERTEX
8
CUT
10
67.8507
20
250.0294
0
VERTEX
8
CUT
10
67.8778
20
250.0407
0
VERTEX
8
CUT
10
68.3400
20
250.4543
0
VERTEX
8
CUT
10
68.4008
20
250.4950
0
VERTEX
8
CUT
10
68.4394
20
250.5416
0
VERTEX
8
CUT
10
68.5190
20
250.6109
0
VERTEX
8
CUT
10
68.5596
20
250.6866
0
VERTEX
8
CUT
10
69.0212
20
251.2435
0
VERTEX
8
CUT
10
69.2195
20
251.8051
0
VERTEX
8
CUT
10
69.3290
20
251.9497
0
VERTEX
8
CUT
10
69.3055
20
252.0488
0
VERTEX
8
CUT
10
69.5344
20
252.6973
0
VERTEX
8
CUT
10
69.3703
20
254.2584
0
VERTEX
8
CUT
10
69.0184
20
254.7919
0
VERTEX
8
CUT
10
68.9813
20
254.9215
0
VERTEX
8
CUT
10
68.4515
20
255.6512
0
VERTEX
8
CUT
10
68.4061
20
255.7200
0
VERTEX
8
CUT
10
67.4240
20
256.4745
0
VERTEX
8
CUT
10
66.4587
20
256.6551
0
VERTEX
8
CUT
10
66.3698
20
256.6474
0
SEQEND
0
POLYLINE
8
CUT
66
1
70
1
10
0.0
20
0.0
30
0.0
0
VERTEX
8
CUT
10
61.3110
20
78.9349
0
VERTEX
8
CUT
10
61.1547
20
79.0087
0
VERTEX
8
CUT
10
60.7607
20
79.3448
0
VERTEX
8
CUT
10
59.0202
20
79.7728
0
VERTEX
8
CUT
10
58.2575
20
79.6671
0
VERTEX
8
CUT
10
57.6942
20
79.6311
0
VERTEX
8
CUT
10
57.5038
20
79.5626
0
VERTEX
8
CUT
10
57.1517
20
79.5138
0
VERTEX
8
CUT
10
56.7555
20
79.2933
0
VERTEX
8
CUT
10
56.4226
20
79.1735
0
VERTEX
8
CUT
10
56.1452
20
78.9536
0
VERTEX
8
CUT
10
55.4569
20
78.5705
0
VERTEX
8
CUT
10
54.9989
20
78.0452
0
VERTEX
8
CUT
10
54.8339
20
77.9144
0
VERTEX
8
CUT
10
54.4995
20
77.4723
0
VERTEX
8
CUT
10
54.2104
20
77.1407
0
VERTEX
8
CUT
10
54.1492
20
76.9371
0
VERTEX
8
CUT
10
53.8375
20
76.1858
0
VERTEX
8
CUT
10
53.7836
20
75.7216
0
VERTEX
8
CUT
10
53.5523
20
74.9527
0
VERTEX
8
CUT
10
53.7845
20
72.8358
0
VERTEX
8
CUT
10
54.2245
20
72.0564
0
VERTEX
8
CUT
10
54.3304
20
71.7835
0
VERTEX
8
CUT
10
54.5237
20
71.5265
0
VERTEX
8
CUT
10
54.8750
20
70.9043
0
VERTEX
8
CUT
10
55.6640
20
70.0906
0
VERTEX
8
CUT
10
56.6728
20
69.4274
0
VERTEX
8
CUT
10
57.5603
20
69.1736
0
VERTEX
8
CUT
10
58.1206
20
69.1809
0
VERTEX
8
CUT
10
58.3071
20
69.1454
0
VERTEX
8
CUT
10
58.3662
20
69.1239
0
VERTEX
8
CUT
10
58.4072
20
69.1263
0
VERTEX
8
CUT
10
58.5741
20
69.0945
0
VERTEX
8
CUT
10
59.8779
20
69.1994
0
VERTEX
8
CUT
10
59.8890
20
69.2039
0
VERTEX
8
CUT
10
60.1294
20
69.2070
0
VERTEX
8
CUT
10
61.0227
20
69.4745
0
VERTEX
8
CUT
10
62.1881
20
70.3298
0
VERTEX
8
CUT
10
62.8718
20
71.2989
0
VERTEX
8
CUT
10
63.0479
20
71.5020
0
VERTEX
8
CUT
10
63.0971
20
71.6183
0
VERTEX
8
CUT
10
63.5081
20
72.2009
0
VERTEX
8
CUT
10
63.7169
20
73.0833
0
VERTEX
8
CUT
10
63.7322
20
73.1195
0
VERTEX
8
CUT
10
63.7347
20
73.1588
0
VERTEX
8
CUT
10
63.9969
20
74.2671
0
VERTEX
8
CUT
10
63.4597
20
76.3977
0
VERTEX
8
CUT
10
63.2388
20
76.7404
0
VERTEX
8
CUT
10
63.1540
20
77.0053
0
VERTEX
8
CUT
10
62.3104
20
78.1333
0
SEQEND
0
POLYLINE
8
CUT
66
1
70
1
10
0.0
20
0.0
30
0.0
0
VERTEX
8
CUT
10
26.3216
20
135.7475
0
VERTEX
8
CUT
10
25.2290
20
136.2368
0
VERTEX
8
CUT
10
24.1082
20
136.4665
0
VERTEX
8
CUT
10
23.0713
20
136.4394
0
VERTEX
8
CUT
10
22.0441
20
136.1307
0
VERTEX
8
CUT
10
21.1291
20
135.5824
0
VERTEX
8
CUT
10
20.2849
20
134.7231
0
VERTEX
8
CUT
10
20.0321
20
134.2819
0
VERTEX
8
CUT
10
19.9724
20
134.2216
0
VERTEX
8
CUT
10
19.9188
20
134.0841
0
VERTEX
8
CUT
10
19.4672
20
133.2959
0
VERTEX
8
CUT
10
18.9280
20
131.5209
0
VERTEX
8
CUT
10
19.5196
20
129.3047
0
VERTEX
8
CUT
10
19.7232
20
128.9771
0
VERTEX
8
CUT
10
19.9244
20
128.4610
0
VERTEX
8
CUT
10
20.3762
20
127.9266
0
VERTEX
8
CUT
10
20.4472
20
127.8123
0
VERTEX
8
CUT
10
20.5786
20
127.6871
0
VERTEX
8
CUT
10
20.8790
20
127.3319
0
VERTEX
8
CUT
10
21.0505
20
127.2376
0
VERTEX
8
CUT
10
21.5814
20
126.7319
0
VERTEX
8
CUT
10
22.2105
20
126.3791
0
VERTEX
8
CUT
10
23.3052
20
126.1424
0
VERTEX
8
CUT
10
23.3813
20
126.1124
0
VERTEX
8
CUT
10
23.8849
20
126.0170
0
VERTEX
8
CUT
10
23.9959
20
125.9930
0
VERTEX
8
CUT
10
24.0218
20
125.9973
0
VERTEX
8
CUT
10
24.0254
20
125.9965
0
VERTEX
8
CUT
10
24.8591
20
126.0485
0
VERTEX
8
CUT
10
25.2445
20
126.1990
0
VERTEX
8
CUT
10
25.7193
20
126.2773
0
VERTEX
8
CUT
10
26.4507
20
126.6699
0
VERTEX
8
CUT
10
26.6545
20
126.7495
0
VERTEX
8
CUT
10
26.7090
20
126.8085
0
VERTEX
8
CUT
10
26.8886
20
126.9050
0
VERTEX
8
CUT
10
27.8098
20
127.7901
0
VERTEX
8
CUT
10
28.4980
20
128.9396
0
VERTEX
8
CUT
10
28.8560
20
130.1322
0
VERTEX
8
CUT
10
28.9426
20
131.4017
0
VERTEX
8
CUT
10
28.8589
20
131.9426
0
VERTEX
8
CUT
10
28.8593
20
132.2759
0
VERTEX
8
CUT
10
28.7805
20
132.4486
0
VERTEX
8
CUT
10
28.7445
20
132.6815
0
VERTEX
8
CUT
10
28.2479
20
133.8271
0
VERTEX
8
CUT
10
27.3264
20
134.9695
0
VERTEX
8
CUT
10
26.6934
20
135.4596
0
VERTEX
8
CUT
10
26.5830
20
135.5762
0
VERTEX
8
CUT
10
26.4877
20
135.6189
0
SEQEND
0
POLYLINE
8
CUT
66
1
70
1
10
0.0
20
0.0
30
0.0
0
VERTEX
8
CUT
10
90.2049
20
225.2716
0
VERTEX
8
CUT
10
90.0492
20
226.1721
0
VERTEX
8
CUT
10
88.8829
20
227.2716
0
VERTEX
8
CUT
10
87.8640
20
227.7640
0
VERTEX
8
CUT
10
86.6827
20
228.9532
0
VERTEX
8
CUT
10
86.1910
20
228.7479
0
VERTEX
8
CUT
10
85.8084
20
226.9560
0
VERTEX
8
CUT
10
86.4446
20
226.0511
0
VERTEX
8
CUT
10
87.0159
20
226.0905
0
VERTEX
8
CUT
10
87.3421
20
225.9148
0
VERTEX
8
CUT
10
88.4673
20
224.1738
0
VERTEX
8
CUT
10
90.3382
20
223.5407
0
VERTEX
8
CUT
10
90.3769
20
222.8824
0
VERTEX
8
CUT
10
89.3563
20
222.3928
0
VERTEX
8
CUT
10
89.1752
20
221.5165
0
VERTEX
8
CUT
10
89.9689
20
220.6298
0
VERTEX
8
CUT
10
90.8448
20
220.1329
0
VERTEX
8
CUT
10
91.3255
20
218.9481
0
VERTEX
8
CUT
10
91.8583
20
218.5766
0
VERTEX
8
CUT
10
92.2635
20
218.5445
0
VERTEX
8
CUT
10
93.1930
20
219.6849
0
VERTEX
8
CUT
10
93.8527
20
220.0892
0
VERTEX
8
CUT
10
94.5644
20
220.1865
0
VERTEX
8
CUT
10
95.1122
20
219.9692
0
VERTEX
8
CUT
10
95.6980
20
219.2289
0
VERTEX
8
CUT
10
95.8492
20
218.4804
0
VERTEX
8
CUT
10
95.7047
20
217.8688
0
VERTEX
8
CUT
10
95.1314
20
217.9165
0
VERTEX
8
CUT
10
94.2737
20
217.6452
0
VERTEX
8
CUT
10
93.0546
20
216.6943
0
VERTEX
8
CUT
10
92.2800
20
217.3268
0
VERTEX
8
CUT
10
91.7451
20
217.4251
0
VERTEX
8
CUT
10
90.1699
20
215.7465
0
VERTEX
8
CUT
10
89.3819
20
215.2051
0
VERTEX
8
CUT
10
88.9926
20
215.3251
0
VERTEX
8
CUT
10
88.2960
20
215.9580
0
VERTEX
8
CUT
10
86.7309
20
217.9144
0
VERTEX
8
CUT
10
85.0129
20
220.7456
0
VERTEX
8
CUT
10
82.1595
20
226.4504
0
VERTEX
8
CUT
10
81.1510
20
230.7015
0
VERTEX
8
CUT
10
81.1812
20
232.3037
0
VERTEX
8
CUT
10
81.5302
20
233.0226
0
VERTEX
8
CUT
10
81.5165
20
233.3863
0
VERTEX
8
CUT
10
81.0692
20
233.9112
0
VERTEX
8
CUT
10
80.8226
20
235.5043
0
VERTEX
8
CUT
10
80.7948
20
236.6909
0
VERTEX
8
CUT
10
81.0888
20
237.4612
0
VERTEX
8
CUT
10
81.7640
20
237.9020
0
VERTEX
8
CUT
10
83.0510
20
238.1861
0
VERTEX
8
CUT
10
83.5726
20
238.1072
0
VERTEX
8
CUT
10
84.0424
20
237.7217
0
VERTEX
8
CUT
10
85.3915
20
237.6759
0
VERTEX
8
CUT
10
85.8746
20
237.4702
0
VERTEX
8
CUT
10
87.6140
20
234.0798
0
VERTEX
8
CUT
10
89.3628
20
231.2040
0
VERTEX
8
CUT
10
90.8433
20
229.3543
0
VERTEX
8
CUT
10
91.7030
20
227.6642
0
VERTEX
8
CUT
10
92.6818
20
226.9378
0
VERTEX
8
CUT
10
93.2999
20
224.5197
0
VERTEX
8
CUT
10
93.2593
20
223.9492
0
VERTEX
8
CUT
10
92.5076
20
223.6090
0
VERTEX
8
CUT
10
91.6434
20
224.1139
0
VERTEX
8
CUT
10
90.6677
20
224.2274
0
SEQEND
0
ENDSEC
0
EOF
