0
SECTION
2
HEADER
9
$ACADVER
1
AC1009
9
$INSUNITS
70
4
0
ENDSEC
0
SECTION
2
TABLES
0
TABLE
2
LAYER
70
1
0
LAYER
2
CUT
70
0
62
7
6
CONTINUOUS
0
ENDTAB
0
ENDSEC
0
SECTION
2
ENTITIES
0
POLYLINE
8
CUT
66
1
70
1
10
0.0
20
0.0
30
0.0
0
VERTEX
8
CUT
10
140.2748
20
0.1213
0
VERTEX
8
CUT
10
131.5152
20
0.9883
0
VERTEX
8
CUT
10
122.8528
20
2.3365
0
VERTEX
8
CUT
10
114.3458
20
4.1703
0
VERTEX
8
CUT
10
106.0129
20
6.5090
0
VERTEX
8
CUT
10
97.8516
20
9.3191
0
VERTEX
8
CUT
10
89.8265
20
12.6252
0
VERTEX
8
CUT
10
81.9427
20
16.4031
0
VERTEX
8
CUT
10
74.2087
20
20.6906
0
VERTEX
8
CUT
10
67.1047
20
25.2176
0
VERTEX
8
CUT
10
60.2102
20
30.1945
0
VERTEX
8
CUT
10
53.5566
20
35.6200
0
VERTEX
8
CUT
10
47.1413
20
41.4667
0
VERTEX
8
CUT
10
41.0579
20
47.7308
0
VERTEX
8
CUT
10
35.2875
20
54.3383
0
VERTEX
8
CUT
10
29.8022
20
61.3514
0
VERTEX
8
CUT
10
24.7064
20
68.6642
0
VERTEX
8
CUT
10
19.5094
20
77.1355
0
VERTEX
8
CUT
10
14.9230
20
85.6510
0
VERTEX
8
CUT
10
11.0068
20
94.2904
0
VERTEX
8
CUT
10
7.6400
20
103.1289
0
VERTEX
8
CUT
10
4.9131
20
112.1513
0
VERTEX
8
CUT
10
2.7608
20
121.3287
0
VERTEX
8
CUT
10
1.1976
20
130.8270
0
VERTEX
8
CUT
10
0.2110
20
140.5444
0
VERTEX
8
CUT
10
0.0000
20
146.0694
0
VERTEX
8
CUT
10
0.1196
20
156.4094
0
VERTEX
8
CUT
10
0.4490
20
162.8209
0
VERTEX
8
CUT
10
2.5452
20
178.0405
0
VERTEX
8
CUT
10
5.4516
20
190.3018
0
VERTEX
8
CUT
10
9.3471
20
202.1727
0
VERTEX
8
CUT
10
14.2473
20
213.6564
0
VERTEX
8
CUT
10
20.1240
20
224.6572
0
VERTEX
8
CUT
10
26.9596
20
235.1778
0
VERTEX
8
CUT
10
34.7025
20
245.1628
0
VERTEX
8
CUT
10
43.3947
20
254.6065
0
VERTEX
8
CUT
10
52.7991
20
263.3499
0
VERTEX
8
CUT
10
62.6355
20
271.1533
0
VERTEX
8
CUT
10
72.9155
20
278.0780
0
VERTEX
8
CUT
10
83.6458
20
284.1041
0
VERTEX
8
CUT
10
94.7672
20
289.1717
0
VERTEX
8
CUT
10
106.2769
20
293.3394
0
VERTEX
8
CUT
10
118.1497
20
296.5556
0
VERTEX
8
CUT
10
130.3212
20
298.7985
0
VERTEX
8
CUT
10
135.0954
20
299.4295
0
VERTEX
8
CUT
10
141.6643
20
299.9098
0
VERTEX
8
CUT
10
147.1230
20
300.0000
0
VERTEX
8
CUT
10
155.0671
20
299.9699
0
VERTEX
8
CUT
10
162.8328
20
299.6697
0
VERTEX
8
CUT
10
169.7898
20
298.9796
0
VERTEX
8
CUT
10
176.9155
20
297.8119
0
VERTEX
8
CUT
10
189.4087
20
294.8464
0
VERTEX
8
CUT
10
198.0348
20
292.1114
0
VERTEX
8
CUT
10
206.5252
20
288.8527
0
VERTEX
8
CUT
10
214.9104
20
285.0358
0
VERTEX
8
CUT
10
223.0427
20
280.7305
0
VERTEX
8
CUT
10
230.9249
20
275.9959
0
VERTEX
8
CUT
10
238.4991
20
270.7961
0
VERTEX
8
CUT
10
245.6055
20
265.2476
0
VERTEX
8
CUT
10
254.5751
20
257.1451
0
VERTEX
8
CUT
10
262.8701
20
248.4290
0
VERTEX
8
CUT
10
270.3327
20
239.1661
0
VERTEX
8
CUT
10
277.0166
20
229.3927
0
VERTEX
8
CUT
10
282.8906
20
219.1107
0
VERTEX
8
CUT
10
287.9429
20
208.4083
0
VERTEX
8
CUT
10
292.1509
20
197.2274
0
VERTEX
8
CUT
10
295.4996
20
185.6862
0
VERTEX
8
CUT
10
296.9107
20
179.2655
0
VERTEX
8
CUT
10
298.0231
20
172.6219
0
VERTEX
8
CUT
10
298.8603
20
165.8648
0
VERTEX
8
CUT
10
299.4300
20
159.0323
0
VERTEX
8
CUT
10
299.6703
20
152.1964
0
VERTEX
8
CUT
10
299.6406
20
145.4240
0
VERTEX
8
CUT
10
299.2814
20
138.7681
0
VERTEX
8
CUT
10
298.6222
20
132.3218
0
VERTEX
8
CUT
10
297.7204
20
126.1892
0
VERTEX
8
CUT
10
296.5807
20
120.1928
0
VERTEX
8
CUT
10
295.1716
20
114.2581
0
VERTEX
8
CUT
10
293.5274
20
108.3989
0
VERTEX
8
CUT
10
291.6034
20
102.5366
0
VERTEX
8
CUT
10
286.9939
20
90.9230
0
VERTEX
8
CUT
10
284.2661
20
85.1069
0
VERTEX
8
CUT
10
281.3890
20
79.5319
0
VERTEX
8
CUT
10
278.3326
20
74.1076
0
VERTEX
8
CUT
10
275.0571
20
68.8485
0
VERTEX
8
CUT
10
271.6078
20
63.7205
0
VERTEX
8
CUT
10
267.9213
20
58.7757
0
VERTEX
8
CUT
10
259.8693
20
49.1672
0
VERTEX
8
CUT
10
255.4948
20
44.5225
0
VERTEX
8
CUT
10
245.9085
20
35.5343
0
VERTEX
8
CUT
10
235.7479
20
27.4999
0
VERTEX
8
CUT
10
225.0166
20
20.4061
0
VERTEX
8
CUT
10
213.7742
20
14.3519
0
VERTEX
8
CUT
10
202.0833
20
9.3475
0
VERTEX
8
CUT
10
189.9412
20
5.3318
0
VERTEX
8
CUT
10
177.3812
20
2.3957
0
VERTEX
8
CUT
10
164.5243
20
0.5419
0
VERTEX
8
CUT
10
162.1611
20
0.3594
0
VERTEX
8
CUT
10
152.3049
20
0.0000
0
SEQEND
0
POLYLINE
8
CUT
66
1
70
1
10
0.0
20
0.0
30
0.0
0
VERTEX
8
CUT
10
245.6850
20
189.3662
0
VERTEX
8
CUT
10
245.7106
20
188.9061
0
VERTEX
8
CUT
10
246.1213
20
188.7799
0
VERTEX
8
CUT
10
250.1159
20
190.5490
0
VERTEX
8
CUT
10
251.3725
20
191.5906
0
VERTEX
8
CUT
10
253.2748
20
192.6835
0
VERTEX
8
CUT
10
254.1549
20
193.6694
0
VERTEX
8
CUT
10
254.2043
20
194.1290
0
VERTEX
8
CUT
10
253.6946
20
194.3568
0
VERTEX
8
CUT
10
252.8619
20
194.1003
0
VERTEX
8
CUT
10
250.5649
20
192.2118
0
VERTEX
8
CUT
10
248.3695
20
192.1218
0
SEQEND
0
POLYLINE
8
CUT
66
1
70
1
10
0.0
20
0.0
30
0.0
0
VERTEX
8
CUT
10
232.4384
20
123.7179
0
VERTEX
8
CUT
10
234.7134
20
126.7113
0
VERTEX
8
CUT
10
236.7189
20
128.4774
0
VERTEX
8
CUT
10
238.8742
20
129.7646
0
VERTEX
8
CUT
10
243.4541
20
131.6504
0
VERTEX
8
CUT
10
244.0827
20
132.1892
0
VERTEX
8
CUT
10
244.0229
20
132.5484
0
VERTEX
8
CUT
10
243.3942
20
132.6382
0
VERTEX
8
CUT
10
242.2867
20
132.4586
0
VERTEX
8
CUT
10
240.0117
20
131.7402
0
VERTEX
8
CUT
10
237.8864
20
130.6925
0
VERTEX
8
CUT
10
235.9706
20
129.4053
0
VERTEX
8
CUT
10
234.0548
20
127.3998
0
VERTEX
8
CUT
10
233.3663
20
126.0827
0
VERTEX
8
CUT
10
232.1390
20
124.5261
0
VERTEX
8
CUT
10
231.8696
20
124.0471
0
VERTEX
8
CUT
10
231.9295
20
123.7478
0
SEQEND
0
POLYLINE
8
CUT
66
1
70
1
10
0.0
20
0.0
30
0.0
0
VERTEX
8
CUT
10
228.5972
20
149.5116
0
VERTEX
8
CUT
10
228.5715
20
149.0520
0
VERTEX
8
CUT
10
229.0379
20
148.9007
0
VERTEX
8
CUT
10
230.7580
20
149.5750
0
VERTEX
8
CUT
10
233.2580
20
151.0877
0
VERTEX
8
CUT
10
235.3887
20
152.8574
0
VERTEX
8
CUT
10
236.9836
20
154.5086
0
VERTEX
8
CUT
10
237.4741
20
155.2592
0
VERTEX
8
CUT
10
237.5088
20
155.8902
0
VERTEX
8
CUT
10
236.9889
20
156.0715
0
VERTEX
8
CUT
10
236.1055
20
155.8314
0
VERTEX
8
CUT
10
232.9594
20
154.1417
0
SEQEND
0
POLYLINE
8
CUT
66
1
70
1
10
0.0
20
0.0
30
0.0
0
VERTEX
8
CUT
10
224.8754
20
39.6780
0
VERTEX
8
CUT
10
227.2098
20
41.1688
0
VERTEX
8
CUT
10
228.8932
20
43.6407
0
VERTEX
8
CUT
10
230.5272
20
47.7634
0
VERTEX
8
CUT
10
230.9659
20
49.7643
0
VERTEX
8
CUT
10
230.8173
20
50.1302
0
VERTEX
8
CUT
10
230.3021
20
50.0934
0
VERTEX
8
CUT
10
229.0591
20
48.3498
0
VERTEX
8
CUT
10
227.3862
20
46.7501
0
VERTEX
8
CUT
10
225.2152
20
45.6255
0
VERTEX
8
CUT
10
222.5775
20
44.9663
0
VERTEX
8
CUT
10
219.4010
20
44.7219
0
VERTEX
8
CUT
10
216.3747
20
44.9318
0
VERTEX
8
CUT
10
214.5227
20
45.3639
0
VERTEX
8
CUT
10
211.8285
20
46.4559
0
VERTEX
8
CUT
10
208.9555
20
48.2124
0
VERTEX
8
CUT
10
205.2304
20
51.3378
0
VERTEX
8
CUT
10
199.0938
20
57.3546
0
VERTEX
8
CUT
10
186.0097
20
70.7380
0
VERTEX
8
CUT
10
179.8914
20
76.6778
0
VERTEX
8
CUT
10
176.7847
20
78.9860
0
VERTEX
8
CUT
10
176.1922
20
79.1265
0
VERTEX
8
CUT
10
175.6046
20
78.8411
0
VERTEX
8
CUT
10
175.2082
20
77.6728
0
VERTEX
8
CUT
10
175.3586
20
76.3550
0
VERTEX
8
CUT
10
176.2013
20
74.6467
0
VERTEX
8
CUT
10
177.3704
20
73.2650
0
VERTEX
8
CUT
10
187.4129
20
63.8514
0
VERTEX
8
CUT
10
202.4724
20
48.9118
0
VERTEX
8
CUT
10
208.9706
20
43.0686
0
VERTEX
8
CUT
10
210.5663
20
41.8945
0
VERTEX
8
CUT
10
213.5096
20
40.1577
0
VERTEX
8
CUT
10
216.6096
20
38.9146
0
VERTEX
8
CUT
10
218.0524
20
38.5879
0
VERTEX
8
CUT
10
219.4807
20
38.4366
0
VERTEX
8
CUT
10
222.1265
20
38.6663
0
SEQEND
0
POLYLINE
8
CUT
66
1
70
1
10
0.0
20
0.0
30
0.0
0
VERTEX
8
CUT
10
226.9968
20
97.4948
0
VERTEX
8
CUT
10
227.3133
20
97.1239
0
VERTEX
8
CUT
10
227.7439
20
97.3526
0
VERTEX
8
CUT
10
228.2006
20
99.3104
0
VERTEX
8
CUT
10
227.9821
20
99.6909
0
VERTEX
8
CUT
10
227.6100
20
99.6732
0
VERTEX
8
CUT
10
227.4005
20
99.3758
0
SEQEND
0
POLYLINE
8
CUT
66
1
70
1
10
0.0
20
0.0
30
0.0
0
VERTEX
8
CUT
10
223.0954
20
94.4533
0
VERTEX
8
CUT
10
222.7273
20
94.0353
0
VERTEX
8
CUT
10
222.3484
20
93.0524
0
VERTEX
8
CUT
10
222.2656
20
91.9601
0
VERTEX
8
CUT
10
225.2316
20
81.2969
0
VERTEX
8
CUT
10
225.6825
20
81.0382
0
VERTEX
8
CUT
10
225.9892
20
81.3823
0
VERTEX
8
CUT
10
226.6915
20
89.8193
0
VERTEX
8
CUT
10
227.3891
20
95.6983
0
VERTEX
8
CUT
10
227.1318
20
95.9530
0
VERTEX
8
CUT
10
226.8067
20
95.9079
0
VERTEX
8
CUT
10
226.0788
20
94.7928
0
VERTEX
8
CUT
10
225.5190
20
94.4801
0
SEQEND
0
POLYLINE
8
CUT
66
1
70
1
10
0.0
20
0.0
30
0.0
0
VERTEX
8
CUT
10
202.5043
20
216.4837
0
VERTEX
8
CUT
10
203.2825
20
218.1001
0
VERTEX
8
CUT
10
202.3845
20
218.6689
0
VERTEX
8
CUT
10
201.9654
20
218.4593
0
VERTEX
8
CUT
10
201.6960
20
217.9205
0
VERTEX
8
CUT
10
201.7559
20
215.9748
0
VERTEX
8
CUT
10
202.0552
20
215.9748
0
SEQEND
0
POLYLINE
8
CUT
66
1
70
1
10
0.0
20
0.0
30
0.0
0
VERTEX
8
CUT
10
179.3907
20
41.2202
0
VERTEX
8
CUT
10
179.2085
20
40.8714
0
VERTEX
8
CUT
10
179.3907
20
40.5602
0
VERTEX
8
CUT
10
180.3103
20
40.1696
0
VERTEX
8
CUT
10
181.1454
20
40.0857
0
VERTEX
8
CUT
10
182.3307
20
40.3528
0
VERTEX
8
CUT
10
183.0160
20
41.0151
0
VERTEX
8
CUT
10
182.6841
20
41.4911
0
VERTEX
8
CUT
10
181.5134
20
41.7264
0
VERTEX
8
CUT
10
180.4684
20
41.6076
0
SEQEND
0
POLYLINE
8
CUT
66
1
70
1
10
0.0
20
0.0
30
0.0
0
VERTEX
8
CUT
10
132.7519
20
120.3360
0
VERTEX
8
CUT
10
132.4074
20
120.1376
0
VERTEX
8
CUT
10
132.4380
20
119.7090
0
VERTEX
8
CUT
10
136.5835
20
114.1682
0
VERTEX
8
CUT
10
138.0998
20
112.3863
0
VERTEX
8
CUT
10
139.7132
20
110.8612
0
VERTEX
8
CUT
10
141.4170
20
109.5466
0
VERTEX
8
CUT
10
143.3319
20
108.5020
0
VERTEX
8
CUT
10
144.5460
20
108.0480
0
VERTEX
8
CUT
10
147.1956
20
107.5216
0
VERTEX
8
CUT
10
149.9713
20
107.4647
0
VERTEX
8
CUT
10
152.6310
20
107.8529
0
VERTEX
8
CUT
10
155.1337
20
108.7684
0
VERTEX
8
CUT
10
158.3009
20
110.6749
0
VERTEX
8
CUT
10
159.7106
20
111.9032
0
VERTEX
8
CUT
10
160.2783
20
112.6544
0
VERTEX
8
CUT
10
161.5910
20
115.8415
0
VERTEX
8
CUT
10
162.1245
20
118.0923
0
VERTEX
8
CUT
10
162.1510
20
119.1169
0
VERTEX
8
CUT
10
161.8033
20
121.3747
0
VERTEX
8
CUT
10
160.8223
20
124.0245
0
VERTEX
8
CUT
10
159.3935
20
126.3626
0
VERTEX
8
CUT
10
157.8417
20
127.8343
0
VERTEX
8
CUT
10
157.4080
20
127.8798
0
VERTEX
8
CUT
10
157.2330
20
127.3830
0
VERTEX
8
CUT
10
158.7516
20
125.3927
0
VERTEX
8
CUT
10
159.5903
20
123.5654
0
VERTEX
8
CUT
10
159.8397
20
122.5807
0
VERTEX
8
CUT
10
160.0279
20
118.9991
0
VERTEX
8
CUT
10
159.6561
20
117.1204
0
VERTEX
8
CUT
10
158.0156
20
114.4342
0
VERTEX
8
CUT
10
155.6081
20
112.4175
0
VERTEX
8
CUT
10
152.5187
20
111.2152
0
VERTEX
8
CUT
10
151.4332
20
111.0559
0
VERTEX
8
CUT
10
150.8325
20
111.2278
0
VERTEX
8
CUT
10
150.7297
20
111.9018
0
VERTEX
8
CUT
10
152.1878
20
114.2522
0
VERTEX
8
CUT
10
152.6609
20
116.3214
0
VERTEX
8
CUT
10
152.6651
20
119.1677
0
VERTEX
8
CUT
10
152.3372
20
121.1343
0
VERTEX
8
CUT
10
151.3280
20
123.6459
0
VERTEX
8
CUT
10
150.1941
20
125.1438
0
VERTEX
8
CUT
10
148.1967
20
126.8728
0
VERTEX
8
CUT
10
147.1946
20
127.4562
0
VERTEX
8
CUT
10
146.4937
20
127.6017
0
VERTEX
8
CUT
10
145.2066
20
126.6200
0
VERTEX
8
CUT
10
143.9791
20
124.9722
0
VERTEX
8
CUT
10
143.2270
20
122.8112
0
VERTEX
8
CUT
10
143.0282
20
120.4684
0
VERTEX
8
CUT
10
143.4027
20
118.2838
0
VERTEX
8
CUT
10
143.7870
20
117.4561
0
VERTEX
8
CUT
10
144.1539
20
117.3986
0
VERTEX
8
CUT
10
145.5370
20
118.3081
0
VERTEX
8
CUT
10
146.2685
20
118.4153
0
VERTEX
8
CUT
10
147.3326
20
117.7914
0
VERTEX
8
CUT
10
148.5250
20
116.3855
0
VERTEX
8
CUT
10
148.7724
20
115.8312
0
VERTEX
8
CUT
10
148.7839
20
114.8300
0
VERTEX
8
CUT
10
148.2737
20
113.9138
0
VERTEX
8
CUT
10
147.2325
20
112.8399
0
VERTEX
8
CUT
10
148.0494
20
111.6508
0
VERTEX
8
CUT
10
148.1356
20
111.1779
0
VERTEX
8
CUT
10
147.6244
20
110.9059
0
VERTEX
8
CUT
10
145.6591
20
111.1773
0
VERTEX
8
CUT
10
142.6635
20
112.2620
0
VERTEX
8
CUT
10
140.5799
20
113.9231
0
VERTEX
8
CUT
10
138.6508
20
116.1924
0
VERTEX
8
CUT
10
137.7750
20
117.7057
0
VERTEX
8
CUT
10
137.1433
20
119.4777
0
VERTEX
8
CUT
10
136.8629
20
121.3383
0
VERTEX
8
CUT
10
136.8638
20
123.2263
0
VERTEX
8
CUT
10
137.1956
20
125.0003
0
VERTEX
8
CUT
10
137.7962
20
126.6551
0
VERTEX
8
CUT
10
138.7136
20
128.2344
0
VERTEX
8
CUT
10
139.8605
20
129.5296
0
VERTEX
8
CUT
10
141.0328
20
130.4194
0
VERTEX
8
CUT
10
141.0704
20
130.8209
0
VERTEX
8
CUT
10
140.7322
20
131.0405
0
VERTEX
8
CUT
10
139.1799
20
130.4348
0
VERTEX
8
CUT
10
137.6799
20
129.4492
0
VERTEX
8
CUT
10
135.4425
20
126.1996
0
VERTEX
8
CUT
10
133.9360
20
124.6663
0
VERTEX
8
CUT
10
133.8527
20
124.3670
0
VERTEX
8
CUT
10
134.4031
20
122.1256
0
VERTEX
8
CUT
10
134.4826
20
121.0143
0
VERTEX
8
CUT
10
134.0694
20
120.3832
0
SEQEND
0
POLYLINE
8
CUT
66
1
70
1
10
0.0
20
0.0
30
0.0
0
VERTEX
8
CUT
10
117.0401
20
24.7230
0
VERTEX
8
CUT
10
116.6131
20
24.5312
0
VERTEX
8
CUT
10
116.6695
20
24.0768
0
VERTEX
8
CUT
10
118.0769
20
22.8923
0
VERTEX
8
CUT
10
118.9436
20
22.5611
0
VERTEX
8
CUT
10
121.2920
20
22.6296
0
VERTEX
8
CUT
10
122.3401
20
22.9438
0
VERTEX
8
CUT
10
123.0871
20
23.5943
0
VERTEX
8
CUT
10
122.7788
20
24.0525
0
VERTEX
8
CUT
10
119.3997
20
24.1269
0
SEQEND
0
POLYLINE
8
CUT
66
1
70
1
10
0.0
20
0.0
30
0.0
0
VERTEX
8
CUT
10
89.2375
20
42.7055
0
VERTEX
8
CUT
10
88.7704
20
42.6731
0
VERTEX
8
CUT
10
88.6574
20
42.2513
0
VERTEX
8
CUT
10
89.2201
20
40.9088
0
VERTEX
8
CUT
10
90.4137
20
38.9001
0
VERTEX
8
CUT
10
92.7380
20
36.4228
0
VERTEX
8
CUT
10
94.4978
20
35.2626
0
VERTEX
8
CUT
10
95.3754
20
34.9186
0
VERTEX
8
CUT
10
96.5900
20
34.7552
0
VERTEX
8
CUT
10
99.0321
20
34.9879
0
VERTEX
8
CUT
10
101.2659
20
35.7081
0
VERTEX
8
CUT
10
103.0111
20
36.8559
0
VERTEX
8
CUT
10
106.0282
20
39.6921
0
VERTEX
8
CUT
10
109.0835
20
43.4001
0
VERTEX
8
CUT
10
118.3031
20
57.4081
0
VERTEX
8
CUT
10
122.5866
20
64.6271
0
VERTEX
8
CUT
10
123.0863
20
67.3307
0
VERTEX
8
CUT
10
122.6777
20
68.5975
0
VERTEX
8
CUT
10
122.1342
20
68.8128
0
VERTEX
8
CUT
10
121.3990
20
68.0816
0
VERTEX
8
CUT
10
120.8246
20
66.9034
0
VERTEX
8
CUT
10
118.0986
20
62.8850
0
VERTEX
8
CUT
10
116.7060
20
60.4676
0
VERTEX
8
CUT
10
114.8120
20
58.1791
0
VERTEX
8
CUT
10
114.0621
20
56.4441
0
VERTEX
8
CUT
10
111.9020
20
54.8146
0
VERTEX
8
CUT
10
110.9230
20
53.0357
0
VERTEX
8
CUT
10
109.0932
20
51.6494
0
VERTEX
8
CUT
10
108.2706
20
50.7720
0
VERTEX
8
CUT
10
104.6347
20
45.8790
0
VERTEX
8
CUT
10
101.6239
20
42.8713
0
VERTEX
8
CUT
10
99.8340
20
41.6607
0
VERTEX
8
CUT
10
97.9093
20
40.8783
0
VERTEX
8
CUT
10
96.3323
20
39.0413
0
VERTEX
8
CUT
10
95.7502
20
38.7647
0
VERTEX
8
CUT
10
92.5562
20
40.1489
0
VERTEX
8
CUT
10
90.9646
20
41.2006
0
SEQEND
0
POLYLINE
8
CUT
66
1
70
1
10
0.0
20
0.0
30
0.0
0
VERTEX
8
CUT
10
112.6720
20
139.2237
0
VERTEX
8
CUT
10
112.4325
20
140.1218
0
VERTEX
8
CUT
10
111.3848
20
141.1395
0
VERTEX
8
CUT
10
110.0079
20
141.7681
0
VERTEX
8
CUT
10
108.9003
20
141.7681
0
VERTEX
8
CUT
10
108.9901
20
141.3790
0
VERTEX
8
CUT
10
111.6842
20
139.2537
0
VERTEX
8
CUT
10
112.2529
20
138.9843
0
SEQEND
0
POLYLINE
8
CUT
66
1
70
1
10
0.0
20
0.0
30
0.0
0
VERTEX
8
CUT
10
104.2306
20
139.7625
0
VERTEX
8
CUT
10
104.3204
20
139.9721
0
VERTEX
8
CUT
10
104.0809
20
140.3612
0
VERTEX
8
CUT
10
102.7638
20
141.1695
0
VERTEX
8
CUT
10
101.8358
20
141.2892
0
VERTEX
8
CUT
10
101.4168
20
140.8102
0
VERTEX
8
CUT
10
101.4467
20
140.3313
0
VERTEX
8
CUT
10
102.1053
20
139.7326
0
VERTEX
8
CUT
10
103.3326
20
139.5231
0
SEQEND
0
POLYLINE
8
CUT
66
1
70
1
10
0.0
20
0.0
30
0.0
0
VERTEX
8
CUT
10
91.5576
20
112.2134
0
VERTEX
8
CUT
10
91.1072
20
112.3159
0
VERTEX
8
CUT
10
90.8817
20
111.8786
0
VERTEX
8
CUT
10
91.7524
20
108.9813
0
VERTEX
8
CUT
10
92.5062
20
107.5218
0
VERTEX
8
CUT
10
93.4584
20
106.3280
0
VERTEX
8
CUT
10
94.4190
20
105.5615
0
VERTEX
8
CUT
10
95.5313
20
105.0718
0
VERTEX
8
CUT
10
96.7600
20
104.8955
0
VERTEX
8
CUT
10
98.0267
20
105.0580
0
VERTEX
8
CUT
10
99.4665
20
105.6026
0
VERTEX
8
CUT
10
100.8046
20
106.5494
0
VERTEX
8
CUT
10
102.3498
20
108.4804
0
VERTEX
8
CUT
10
103.1499
20
110.2192
0
VERTEX
8
CUT
10
103.3016
20
111.1209
0
VERTEX
8
CUT
10
103.3333
20
114.8313
0
VERTEX
8
CUT
10
103.0803
20
116.4145
0
VERTEX
8
CUT
10
101.1158
20
120.0773
0
VERTEX
8
CUT
10
99.7548
20
121.7605
0
VERTEX
8
CUT
10
97.9304
20
123.3320
0
VERTEX
8
CUT
10
97.4899
20
123.4347
0
VERTEX
8
CUT
10
96.7681
20
123.2063
0
VERTEX
8
CUT
10
95.7927
20
121.9340
0
VERTEX
8
CUT
10
95.1011
20
119.5290
0
VERTEX
8
CUT
10
95.2160
20
116.8831
0
VERTEX
8
CUT
10
95.5459
20
115.5042
0
VERTEX
8
CUT
10
96.0525
20
114.5294
0
VERTEX
8
CUT
10
96.4243
20
114.4857
0
VERTEX
8
CUT
10
97.4405
20
115.0958
0
VERTEX
8
CUT
10
98.6150
20
115.0630
0
VERTEX
8
CUT
10
99.4619
20
114.5635
0
VERTEX
8
CUT
10
100.3957
20
113.3252
0
VERTEX
8
CUT
10
100.6080
20
112.4134
0
VERTEX
8
CUT
10
100.4211
20
111.5963
0
VERTEX
8
CUT
10
99.2215
20
109.9946
0
VERTEX
8
CUT
10
100.0138
20
109.0323
0
VERTEX
8
CUT
10
99.9258
20
108.4442
0
VERTEX
8
CUT
10
99.5035
20
108.1313
0
VERTEX
8
CUT
10
98.4629
20
107.8833
0
VERTEX
8
CUT
10
97.1014
20
108.0121
0
VERTEX
8
CUT
10
95.7249
20
108.4609
0
VERTEX
8
CUT
10
93.7582
20
109.9164
0
SEQEND
0
POLYLINE
8
CUT
66
1
70
1
10
0.0
20
0.0
30
0.0
0
VERTEX
8
CUT
10
97.4917
20
73.8735
0
VERTEX
8
CUT
10
97.7445
20
74.4884
0
VERTEX
8
CUT
10
97.8823
20
75.9367
0
VERTEX
8
CUT
10
97.7900
20
76.5619
0
VERTEX
8
CUT
10
97.4473
20
76.7834
0
VERTEX
8
CUT
10
96.0183
20
76.0552
0
VERTEX
8
CUT
10
95.4232
20
75.3945
0
VERTEX
8
CUT
10
95.2289
20
74.7264
0
VERTEX
8
CUT
10
95.4220
20
74.1544
0
VERTEX
8
CUT
10
96.1416
20
73.6931
0
VERTEX
8
CUT
10
96.9003
20
73.6001
0
SEQEND
0
POLYLINE
8
CUT
66
1
70
1
10
0.0
20
0.0
30
0.0
0
VERTEX
8
CUT
10
95.9851
20
63.3618
0
VERTEX
8
CUT
10
96.3082
20
64.1304
0
VERTEX
8
CUT
10
96.5068
20
65.8206
0
VERTEX
8
CUT
10
96.4631
20
66.3862
0
VERTEX
8
CUT
10
96.1297
20
66.5952
0
VERTEX
8
CUT
10
95.7521
20
66.4163
0
VERTEX
8
CUT
10
95.1365
20
65.6637
0
VERTEX
8
CUT
10
94.6577
20
64.4637
0
VERTEX
8
CUT
10
94.8173
20
63.6675
0
VERTEX
8
CUT
10
95.1368
20
63.2443
0
VERTEX
8
CUT
10
95.5594
20
63.1333
0
SEQEND
0
POLYLINE
8
CUT
66
1
70
1
10
0.0
20
0.0
30
0.0
0
VERTEX
8
CUT
10
89.1176
20
122.4384
0
VERTEX
8
CUT
10
89.3984
20
122.0658
0
VERTEX
8
CUT
10
89.8352
20
122.2299
0
VERTEX
8
CUT
10
90.8859
20
124.6440
0
VERTEX
8
CUT
10
92.4950
20
126.6998
0
VERTEX
8
CUT
10
92.3757
20
127.1820
0
VERTEX
8
CUT
10
92.0468
20
127.2460
0
VERTEX
8
CUT
10
91.0758
20
126.7835
0
VERTEX
8
CUT
10
90.0102
20
125.6667
0
VERTEX
8
CUT
10
89.3832
20
124.1052
0
SEQEND
0
POLYLINE
8
CUT
66
1
70
1
10
0.0
20
0.0
30
0.0
0
VERTEX
8
CUT
10
74.7195
20
216.1973
0
VERTEX
8
CUT
10
74.5280
20
215.9256
0
VERTEX
8
CUT
10
74.6385
20
215.5722
0
VERTEX
8
CUT
10
77.1888
20
213.4911
0
VERTEX
8
CUT
10
83.8902
20
209.3843
0
VERTEX
8
CUT
10
84.4015
20
209.5190
0
VERTEX
8
CUT
10
84.4417
20
209.8539
0
VERTEX
8
CUT
10
84.0626
20
210.4063
0
VERTEX
8
CUT
10
81.0623
20
213.9466
0
VERTEX
8
CUT
10
79.6734
20
214.2207
0
VERTEX
8
CUT
10
78.2022
20
214.7912
0
VERTEX
8
CUT
10
75.6574
20
216.2251
0
SEQEND
0
POLYLINE
8
CUT
66
1
70
1
10
0.0
20
0.0
30
0.0
0
VERTEX
8
CUT
10
76.2643
20
194.0920
0
VERTEX
8
CUT
10
76.0821
20
193.7440
0
VERTEX
8
CUT
10
76.2640
20
193.4154
0
VERTEX
8
CUT
10
79.6304
20
190.9385
0
VERTEX
8
CUT
10
82.0000
20
188.7193
0
VERTEX
8
CUT
10
82.5266
20
188.7840
0
VERTEX
8
CUT
10
82.6140
20
189.2561
0
VERTEX
8
CUT
10
82.3791
20
190.4301
0
VERTEX
8
CUT
10
81.9612
20
191.3440
0
VERTEX
8
CUT
10
81.3771
20
192.0108
0
VERTEX
8
CUT
10
79.4554
20
192.8362
0
VERTEX
8
CUT
10
77.4752
20
194.0780
0
VERTEX
8
CUT
10
76.8414
20
194.2424
0
SEQEND
0
POLYLINE
8
CUT
66
1
70
1
10
0.0
20
0.0
30
0.0
0
VERTEX
8
CUT
10
72.4652
20
179.2809
0
VERTEX
8
CUT
10
72.0671
20
179.3126
0
VERTEX
8
CUT
10
71.8503
20
178.9772
0
VERTEX
8
CUT
10
72.3320
20
177.5980
0
VERTEX
8
CUT
10
73.3791
20
175.3851
0
VERTEX
8
CUT
10
74.6597
20
173.4639
0
VERTEX
8
CUT
10
76.4874
20
171.4544
0
VERTEX
8
CUT
10
79.5470
20
168.6029
0
VERTEX
8
CUT
10
80.9995
20
167.4108
0
VERTEX
8
CUT
10
81.5303
20
167.5040
0
VERTEX
8
CUT
10
82.0179
20
168.2342
0
VERTEX
8
CUT
10
82.0791
20
169.2063
0
VERTEX
8
CUT
10
81.3398
20
174.0004
0
VERTEX
8
CUT
10
80.7822
20
175.6234
0
VERTEX
8
CUT
10
80.1828
20
176.1462
0
VERTEX
8
CUT
10
78.0801
20
176.0137
0
VERTEX
8
CUT
10
75.9312
20
176.6535
0
VERTEX
8
CUT
10
74.4571
20
177.5615
0
SEQEND
0
POLYLINE
8
CUT
66
1
70
1
10
0.0
20
0.0
30
0.0
0
VERTEX
8
CUT
10
75.6377
20
163.8219
0
VERTEX
8
CUT
10
75.6786
20
163.4123
0
VERTEX
8
CUT
10
76.3179
20
162.9805
0
VERTEX
8
CUT
10
77.7614
20
162.6025
0
VERTEX
8
CUT
10
78.4705
20
163.0351
0
VERTEX
8
CUT
10
78.9260
20
163.9627
0
VERTEX
8
CUT
10
78.1010
20
164.9656
0
VERTEX
8
CUT
10
77.3368
20
165.3112
0
VERTEX
8
CUT
10
76.5810
20
164.8909
0
SEQEND
0
ENDSEC
0
EOF
