0
SECTION
2
HEADER
9
$ACADVER
1
AC1009
9
$INSUNITS
70
4
0
ENDSEC
0
SECTION
2
TABLES
0
TABLE
2
LAYER
70
1
0
LAYER
2
CUT
70
0
62
7
6
CONTINUOUS
0
ENDTAB
0
ENDSEC
0
SECTION
2
ENTITIES
0
POLYLINE
8
CUT
66
1
70
1
10
0.0
20
0.0
30
0.0
0
VERTEX
8
CUT
10
109.4443
20
5.5316
0
VERTEX
8
CUT
10
98.9074
20
8.9107
0
VERTEX
8
CUT
10
88.6509
20
13.0665
0
VERTEX
8
CUT
10
78.7134
20
17.9604
0
VERTEX
8
CUT
10
69.1393
20
23.5963
0
VERTEX
8
CUT
10
59.9718
20
29.9290
0
VERTEX
8
CUT
10
49.9814
20
38.1058
0
VERTEX
8
CUT
10
40.7474
20
47.0898
0
VERTEX
8
CUT
10
32.3918
20
56.7385
0
VERTEX
8
CUT
10
24.8769
20
67.0773
0
VERTEX
8
CUT
10
18.2762
20
78.0147
0
VERTEX
8
CUT
10
12.6229
20
89.5009
0
VERTEX
8
CUT
10
7.9339
20
101.4853
0
VERTEX
8
CUT
10
4.2666
20
113.9381
0
VERTEX
8
CUT
10
1.3760
20
128.6513
0
VERTEX
8
CUT
10
0.0000
20
143.4557
0
VERTEX
8
CUT
10
0.0977
20
158.3004
0
VERTEX
8
CUT
10
1.6644
20
173.0679
0
VERTEX
8
CUT
10
4.6587
20
187.5967
0
VERTEX
8
CUT
10
9.0990
20
201.7923
0
VERTEX
8
CUT
10
14.9347
20
215.5028
0
VERTEX
8
CUT
10
22.1642
20
228.6862
0
VERTEX
8
CUT
10
29.4616
20
239.4445
0
VERTEX
8
CUT
10
37.6391
20
249.5025
0
VERTEX
8
CUT
10
46.6733
20
258.8202
0
VERTEX
8
CUT
10
56.4482
20
267.2965
0
VERTEX
8
CUT
10
66.9053
20
274.9255
0
VERTEX
8
CUT
10
77.9770
20
281.6233
0
VERTEX
8
CUT
10
89.5980
20
287.3572
0
VERTEX
8
CUT
10
101.6872
20
292.0445
0
VERTEX
8
CUT
10
117.7801
20
296.5140
0
VERTEX
8
CUT
10
134.0437
20
299.1500
0
VERTEX
8
CUT
10
150.4782
20
300.0000
0
VERTEX
8
CUT
10
166.7856
20
299.0501
0
VERTEX
8
CUT
10
182.9096
20
296.3215
0
VERTEX
8
CUT
10
198.6680
20
291.8474
0
VERTEX
8
CUT
10
213.9233
20
285.6365
0
VERTEX
8
CUT
10
228.5781
20
277.6956
0
VERTEX
8
CUT
10
238.3700
20
271.0538
0
VERTEX
8
CUT
10
239.6065
20
270.1634
0
VERTEX
8
CUT
10
239.9194
20
269.9230
0
VERTEX
8
CUT
10
248.3174
20
263.0952
0
VERTEX
8
CUT
10
248.6852
20
262.7734
0
VERTEX
8
CUT
10
252.9103
20
258.8100
0
VERTEX
8
CUT
10
258.0727
20
253.8057
0
VERTEX
8
CUT
10
259.1676
20
252.6547
0
VERTEX
8
CUT
10
265.5652
20
245.2803
0
VERTEX
8
CUT
10
267.4921
20
242.9866
0
VERTEX
8
CUT
10
271.5063
20
237.4870
0
VERTEX
8
CUT
10
271.3872
20
237.0735
0
VERTEX
8
CUT
10
270.7304
20
236.6376
0
VERTEX
8
CUT
10
269.0097
20
236.3816
0
VERTEX
8
CUT
10
267.2984
20
234.8014
0
VERTEX
8
CUT
10
267.0851
20
234.4415
0
VERTEX
8
CUT
10
267.0460
20
233.4208
0
VERTEX
8
CUT
10
266.1405
20
232.5840
0
VERTEX
8
CUT
10
265.7534
20
231.7283
0
VERTEX
8
CUT
10
263.3487
20
230.1920
0
VERTEX
8
CUT
10
263.4493
20
228.5710
0
VERTEX
8
CUT
10
263.1589
20
228.3141
0
VERTEX
8
CUT
10
262.4438
20
228.1418
0
VERTEX
8
CUT
10
261.9811
20
226.6099
0
VERTEX
8
CUT
10
258.8301
20
225.7076
0
VERTEX
8
CUT
10
257.8616
20
224.8653
0
VERTEX
8
CUT
10
257.4464
20
224.2230
0
VERTEX
8
CUT
10
257.4334
20
223.8406
0
VERTEX
8
CUT
10
257.6772
20
223.5191
0
VERTEX
8
CUT
10
259.6125
20
223.3264
0
VERTEX
8
CUT
10
260.5308
20
222.3654
0
VERTEX
8
CUT
10
261.0657
20
222.4319
0
VERTEX
8
CUT
10
262.2367
20
223.0725
0
VERTEX
8
CUT
10
262.8253
20
222.8272
0
VERTEX
8
CUT
10
263.4851
20
221.3710
0
VERTEX
8
CUT
10
263.5025
20
220.9446
0
VERTEX
8
CUT
10
263.2832
20
220.5979
0
VERTEX
8
CUT
10
262.4778
20
220.1914
0
VERTEX
8
CUT
10
262.2247
20
219.2964
0
VERTEX
8
CUT
10
261.4935
20
218.5117
0
VERTEX
8
CUT
10
261.4326
20
218.1811
0
VERTEX
8
CUT
10
261.6410
20
217.7929
0
VERTEX
8
CUT
10
263.0329
20
216.7051
0
VERTEX
8
CUT
10
264.0447
20
216.3634
0
VERTEX
8
CUT
10
264.3407
20
216.0012
0
VERTEX
8
CUT
10
263.4523
20
214.6705
0
VERTEX
8
CUT
10
260.5952
20
211.4843
0
VERTEX
8
CUT
10
259.1154
20
207.9473
0
VERTEX
8
CUT
10
259.3628
20
207.5568
0
VERTEX
8
CUT
10
259.7498
20
207.4267
0
VERTEX
8
CUT
10
261.3120
20
207.7337
0
VERTEX
8
CUT
10
263.0325
20
208.6981
0
VERTEX
8
CUT
10
264.2078
20
209.7125
0
VERTEX
8
CUT
10
264.7264
20
209.4390
0
VERTEX
8
CUT
10
266.0491
20
208.1599
0
VERTEX
8
CUT
10
265.8874
20
204.8176
0
VERTEX
8
CUT
10
267.4219
20
202.8559
0
VERTEX
8
CUT
10
267.9156
20
201.8473
0
VERTEX
8
CUT
10
268.5710
20
201.7151
0
VERTEX
8
CUT
10
268.8219
20
201.4723
0
VERTEX
8
CUT
10
268.8202
20
201.1129
0
VERTEX
8
CUT
10
268.3883
20
200.5938
0
VERTEX
8
CUT
10
268.4313
20
199.9947
0
VERTEX
8
CUT
10
268.8155
20
199.5188
0
VERTEX
8
CUT
10
270.4077
20
198.4005
0
VERTEX
8
CUT
10
270.7075
20
195.5849
0
VERTEX
8
CUT
10
271.2022
20
195.1637
0
VERTEX
8
CUT
10
272.4026
20
195.3203
0
VERTEX
8
CUT
10
272.7570
20
195.2079
0
VERTEX
8
CUT
10
273.1287
20
194.1910
0
VERTEX
8
CUT
10
274.1065
20
193.1086
0
VERTEX
8
CUT
10
274.0775
20
191.4820
0
VERTEX
8
CUT
10
274.7910
20
191.1221
0
VERTEX
8
CUT
10
275.0645
20
190.7178
0
VERTEX
8
CUT
10
274.9168
20
189.5168
0
VERTEX
8
CUT
10
275.1150
20
186.5052
0
VERTEX
8
CUT
10
274.9052
20
185.7173
0
VERTEX
8
CUT
10
274.0187
20
185.1578
0
VERTEX
8
CUT
10
272.9299
20
184.1124
0
VERTEX
8
CUT
10
271.9150
20
183.5134
0
VERTEX
8
CUT
10
271.5921
20
183.0622
0
VERTEX
8
CUT
10
271.5659
20
182.4403
0
VERTEX
8
CUT
10
272.2140
20
182.3066
0
VERTEX
8
CUT
10
272.4451
20
182.0404
0
VERTEX
8
CUT
10
272.3966
20
180.8620
0
VERTEX
8
CUT
10
271.6013
20
180.2021
0
VERTEX
8
CUT
10
270.5353
20
178.5578
0
VERTEX
8
CUT
10
268.6127
20
176.9386
0
VERTEX
8
CUT
10
268.4332
20
174.7129
0
VERTEX
8
CUT
10
266.5803
20
172.2725
0
VERTEX
8
CUT
10
265.6909
20
168.9169
0
VERTEX
8
CUT
10
264.5587
20
167.7914
0
VERTEX
8
CUT
10
262.8320
20
167.0937
0
VERTEX
8
CUT
10
262.1375
20
166.5151
0
VERTEX
8
CUT
10
263.6103
20
163.3836
0
VERTEX
8
CUT
10
263.5038
20
158.9396
0
VERTEX
8
CUT
10
265.1057
20
156.5000
0
VERTEX
8
CUT
10
264.0845
20
154.2993
0
VERTEX
8
CUT
10
264.2606
20
151.6737
0
VERTEX
8
CUT
10
264.0341
20
151.3789
0
VERTEX
8
CUT
10
263.3605
20
151.0791
0
VERTEX
8
CUT
10
262.2693
20
148.6389
0
VERTEX
8
CUT
10
261.9515
20
137.4255
0
VERTEX
8
CUT
10
261.7174
20
135.4342
0
VERTEX
8
CUT
10
261.2238
20
134.1507
0
VERTEX
8
CUT
10
261.7861
20
132.4903
0
VERTEX
8
CUT
10
261.6456
20
131.0864
0
VERTEX
8
CUT
10
262.3513
20
130.3607
0
VERTEX
8
CUT
10
265.1975
20
128.8332
0
VERTEX
8
CUT
10
267.1794
20
128.8360
0
VERTEX
8
CUT
10
268.3816
20
128.2986
0
VERTEX
8
CUT
10
269.3900
20
127.2373
0
VERTEX
8
CUT
10
272.0695
20
125.2859
0
VERTEX
8
CUT
10
274.1455
20
123.1947
0
VERTEX
8
CUT
10
274.6251
20
122.2003
0
VERTEX
8
CUT
10
274.6179
20
121.3957
0
VERTEX
8
CUT
10
273.6803
20
118.7050
0
VERTEX
8
CUT
10
274.5717
20
115.2558
0
VERTEX
8
CUT
10
274.9890
20
114.5973
0
VERTEX
8
CUT
10
275.8653
20
113.8307
0
VERTEX
8
CUT
10
276.4767
20
114.0003
0
VERTEX
8
CUT
10
277.9380
20
116.1193
0
VERTEX
8
CUT
10
279.5848
20
117.7795
0
VERTEX
8
CUT
10
285.4383
20
117.4995
0
VERTEX
8
CUT
10
287.3160
20
117.1187
0
VERTEX
8
CUT
10
288.7305
20
117.1170
0
VERTEX
8
CUT
10
289.5762
20
117.8906
0
VERTEX
8
CUT
10
289.6918
20
119.3800
0
VERTEX
8
CUT
10
289.9307
20
119.7600
0
VERTEX
8
CUT
10
290.3026
20
119.9059
0
VERTEX
8
CUT
10
290.8207
20
119.5503
0
VERTEX
8
CUT
10
292.1749
20
118.0017
0
VERTEX
8
CUT
10
293.1436
20
117.4520
0
VERTEX
8
CUT
10
294.1178
20
116.5845
0
VERTEX
8
CUT
10
295.3826
20
114.5881
0
VERTEX
8
CUT
10
295.4805
20
114.1474
0
VERTEX
8
CUT
10
295.1749
20
113.0082
0
VERTEX
8
CUT
10
294.7744
20
112.4922
0
VERTEX
8
CUT
10
291.4598
20
110.3775
0
VERTEX
8
CUT
10
289.0951
20
109.3869
0
VERTEX
8
CUT
10
285.7105
20
108.9427
0
VERTEX
8
CUT
10
284.6967
20
108.2591
0
VERTEX
8
CUT
10
283.5645
20
107.0347
0
VERTEX
8
CUT
10
283.5851
20
106.2970
0
VERTEX
8
CUT
10
284.5260
20
104.5084
0
VERTEX
8
CUT
10
284.7184
20
102.3996
0
VERTEX
8
CUT
10
286.3999
20
100.0329
0
VERTEX
8
CUT
10
286.7039
20
98.0646
0
VERTEX
8
CUT
10
287.1969
20
97.0926
0
VERTEX
8
CUT
10
286.9925
20
96.4328
0
VERTEX
8
CUT
10
285.6965
20
96.1382
0
VERTEX
8
CUT
10
285.3119
20
95.7250
0
VERTEX
8
CUT
10
286.3200
20
92.9036
0
VERTEX
8
CUT
10
285.6762
20
91.4432
0
VERTEX
8
CUT
10
286.9304
20
89.1822
0
VERTEX
8
CUT
10
286.8624
20
89.0216
0
VERTEX
8
CUT
10
284.8659
20
84.7349
0
VERTEX
8
CUT
10
283.4791
20
82.0046
0
VERTEX
8
CUT
10
282.7238
20
80.8055
0
VERTEX
8
CUT
10
281.7265
20
80.3607
0
VERTEX
8
CUT
10
278.7313
20
79.9733
0
VERTEX
8
CUT
10
278.0535
20
79.5552
0
VERTEX
8
CUT
10
277.4188
20
78.8278
0
VERTEX
8
CUT
10
277.3742
20
78.4464
0
VERTEX
8
CUT
10
277.6030
20
78.2012
0
VERTEX
8
CUT
10
278.9335
20
77.9657
0
VERTEX
8
CUT
10
279.8831
20
77.5010
0
VERTEX
8
CUT
10
280.3947
20
76.8831
0
VERTEX
8
CUT
10
280.4117
20
76.3987
0
VERTEX
8
CUT
10
280.0062
20
75.5367
0
VERTEX
8
CUT
10
277.5256
20
71.3861
0
VERTEX
8
CUT
10
275.7312
20
68.4800
0
VERTEX
8
CUT
10
270.5209
20
60.9292
0
VERTEX
8
CUT
10
270.3634
20
60.7026
0
VERTEX
8
CUT
10
270.2904
20
60.5975
0
VERTEX
8
CUT
10
270.1804
20
60.4392
0
VERTEX
8
CUT
10
269.9587
20
60.1200
0
VERTEX
8
CUT
10
261.7544
20
50.1066
0
VERTEX
8
CUT
10
253.0472
20
41.1431
0
VERTEX
8
CUT
10
253.0291
20
41.1246
0
VERTEX
8
CUT
10
252.9082
20
41.0003
0
VERTEX
8
CUT
10
252.8769
20
40.9681
0
VERTEX
8
CUT
10
252.7904
20
40.8792
0
VERTEX
8
CUT
10
243.1012
20
32.5048
0
VERTEX
8
CUT
10
232.7771
20
24.9921
0
VERTEX
8
CUT
10
228.7273
20
22.5432
0
VERTEX
8
CUT
10
221.8517
20
18.3938
0
VERTEX
8
CUT
10
211.9512
20
13.5209
0
VERTEX
8
CUT
10
210.3498
20
12.7343
0
VERTEX
8
CUT
10
209.8964
20
12.5569
0
VERTEX
8
CUT
10
209.7060
20
12.4824
0
VERTEX
8
CUT
10
207.4916
20
11.6160
0
VERTEX
8
CUT
10
204.4962
20
10.4441
0
VERTEX
8
CUT
10
198.3643
20
8.0466
0
VERTEX
8
CUT
10
185.9373
20
4.3859
0
VERTEX
8
CUT
10
175.2224
20
2.1439
0
VERTEX
8
CUT
10
175.2014
20
2.1407
0
VERTEX
8
CUT
10
164.2131
20
0.6806
0
VERTEX
8
CUT
10
153.1748
20
0.0000
0
VERTEX
8
CUT
10
142.3061
20
0.1502
0
VERTEX
8
CUT
10
131.1876
20
1.1452
0
VERTEX
8
CUT
10
120.2019
20
2.9429
0
SEQEND
0
POLYLINE
8
CUT
66
1
70
1
10
0.0
20
0.0
30
0.0
0
VERTEX
8
CUT
10
135.0884
20
25.4022
0
VERTEX
8
CUT
10
137.5939
20
25.0041
0
VERTEX
8
CUT
10
138.0502
20
25.0685
0
VERTEX
8
CUT
10
138.2376
20
25.3442
0
VERTEX
8
CUT
10
138.2089
20
26.5453
0
VERTEX
8
CUT
10
137.5447
20
26.8618
0
VERTEX
8
CUT
10
136.3751
20
26.8998
0
VERTEX
8
CUT
10
134.8037
20
26.2456
0
VERTEX
8
CUT
10
132.6911
20
26.4531
0
VERTEX
8
CUT
10
132.0919
20
26.0527
0
VERTEX
8
CUT
10
132.1964
20
25.5196
0
VERTEX
8
CUT
10
133.2980
20
25.1493
0
VERTEX
8
CUT
10
134.3490
20
25.1353
0
SEQEND
0
POLYLINE
8
CUT
66
1
70
1
10
0.0
20
0.0
30
0.0
0
VERTEX
8
CUT
10
64.5086
20
140.1195
0
VERTEX
8
CUT
10
63.9496
20
142.3349
0
VERTEX
8
CUT
10
63.5174
20
142.8384
0
VERTEX
8
CUT
10
62.9302
20
142.8551
0
VERTEX
8
CUT
10
62.6679
20
142.5929
0
VERTEX
8
CUT
10
62.6502
20
140.1670
0
VERTEX
8
CUT
10
62.8828
20
139.8973
0
VERTEX
8
CUT
10
63.5124
20
139.8266
0
VERTEX
8
CUT
10
64.2463
20
139.8574
0
SEQEND
0
POLYLINE
8
CUT
66
1
70
1
10
0.0
20
0.0
30
0.0
0
VERTEX
8
CUT
10
63.3547
20
149.3446
0
VERTEX
8
CUT
10
63.3215
20
148.5146
0
VERTEX
8
CUT
10
62.6575
20
146.4894
0
VERTEX
8
CUT
10
62.9065
20
145.6926
0
VERTEX
8
CUT
10
63.2385
20
145.4436
0
VERTEX
8
CUT
10
63.5705
20
145.5598
0
VERTEX
8
CUT
10
63.9191
20
146.0246
0
VERTEX
8
CUT
10
64.0519
20
146.9376
0
VERTEX
8
CUT
10
63.8693
20
149.5604
0
SEQEND
0
ENDSEC
0
EOF
