0
SECTION
2
HEADER
9
$ACADVER
1
AC1009
9
$INSUNITS
70
4
0
ENDSEC
0
SECTION
2
TABLES
0
TABLE
2
LAYER
70
1
0
LAYER
2
CUT
70
0
62
7
6
CONTINUOUS
0
ENDTAB
0
ENDSEC
0
SECTION
2
ENTITIES
0
POLYLINE
8
CUT
66
1
70
1
10
0.0
20
0.0
30
0.0
0
VERTEX
8
CUT
10
78.7134
20
17.9604
0
VERTEX
8
CUT
10
69.1393
20
23.5963
0
VERTEX
8
CUT
10
59.9718
20
29.9290
0
VERTEX
8
CUT
10
49.9814
20
38.1058
0
VERTEX
8
CUT
10
40.7474
20
47.0898
0
VERTEX
8
CUT
10
32.3918
20
56.7385
0
VERTEX
8
CUT
10
24.8769
20
67.0773
0
VERTEX
8
CUT
10
18.2762
20
78.0147
0
VERTEX
8
CUT
10
12.6229
20
89.5009
0
VERTEX
8
CUT
10
7.9339
20
101.4853
0
VERTEX
8
CUT
10
4.2666
20
113.9381
0
VERTEX
8
CUT
10
1.3760
20
128.6513
0
VERTEX
8
CUT
10
0.0000
20
143.4557
0
VERTEX
8
CUT
10
0.0977
20
158.3004
0
VERTEX
8
CUT
10
1.6644
20
173.0679
0
VERTEX
8
CUT
10
4.6587
20
187.5967
0
VERTEX
8
CUT
10
9.0990
20
201.7923
0
VERTEX
8
CUT
10
14.9347
20
215.5028
0
VERTEX
8
CUT
10
22.1642
20
228.6862
0
VERTEX
8
CUT
10
29.4616
20
239.4445
0
VERTEX
8
CUT
10
37.6391
20
249.5025
0
VERTEX
8
CUT
10
46.6733
20
258.8202
0
VERTEX
8
CUT
10
56.4482
20
267.2965
0
VERTEX
8
CUT
10
66.9053
20
274.9255
0
VERTEX
8
CUT
10
77.9770
20
281.6233
0
VERTEX
8
CUT
10
89.5980
20
287.3572
0
VERTEX
8
CUT
10
101.6872
20
292.0445
0
VERTEX
8
CUT
10
117.7801
20
296.5140
0
VERTEX
8
CUT
10
134.0437
20
299.1500
0
VERTEX
8
CUT
10
150.4782
20
300.0000
0
VERTEX
8
CUT
10
166.7856
20
299.0501
0
VERTEX
8
CUT
10
182.9096
20
296.3215
0
VERTEX
8
CUT
10
198.6680
20
291.8474
0
VERTEX
8
CUT
10
213.9037
20
285.6471
0
VERTEX
8
CUT
10
228.5781
20
277.6956
0
VERTEX
8
CUT
10
238.3700
20
271.0538
0
VERTEX
8
CUT
10
239.7576
20
270.0546
0
VERTEX
8
CUT
10
248.3174
20
263.0952
0
VERTEX
8
CUT
10
250.0836
20
261.5500
0
VERTEX
8
CUT
10
258.0727
20
253.8057
0
VERTEX
8
CUT
10
259.1676
20
252.6547
0
VERTEX
8
CUT
10
266.8993
20
243.7426
0
VERTEX
8
CUT
10
267.4917
20
242.9871
0
VERTEX
8
CUT
10
272.6286
20
235.9493
0
VERTEX
8
CUT
10
273.0415
20
235.3836
0
VERTEX
8
CUT
10
273.1744
20
235.2016
0
VERTEX
8
CUT
10
273.2068
20
235.1572
0
VERTEX
8
CUT
10
273.2483
20
234.8272
0
VERTEX
8
CUT
10
272.8429
20
234.2522
0
VERTEX
8
CUT
10
272.0666
20
233.7389
0
VERTEX
8
CUT
10
270.6166
20
233.2813
0
VERTEX
8
CUT
10
269.8137
20
231.9690
0
VERTEX
8
CUT
10
268.6618
20
230.9508
0
VERTEX
8
CUT
10
267.5879
20
229.0158
0
VERTEX
8
CUT
10
266.2843
20
228.0355
0
VERTEX
8
CUT
10
265.6336
20
226.7776
0
VERTEX
8
CUT
10
264.5039
20
226.2042
0
VERTEX
8
CUT
10
264.3310
20
225.8491
0
VERTEX
8
CUT
10
264.5239
20
225.5427
0
VERTEX
8
CUT
10
266.0156
20
224.8493
0
VERTEX
8
CUT
10
266.5682
20
224.1236
0
VERTEX
8
CUT
10
266.6927
20
223.6024
0
VERTEX
8
CUT
10
266.0905
20
219.8971
0
VERTEX
8
CUT
10
267.2457
20
217.9233
0
VERTEX
8
CUT
10
267.4628
20
216.3894
0
VERTEX
8
CUT
10
268.0269
20
214.6439
0
VERTEX
8
CUT
10
267.9127
20
213.9732
0
VERTEX
8
CUT
10
266.9262
20
212.8107
0
VERTEX
8
CUT
10
266.8787
20
212.4541
0
VERTEX
8
CUT
10
267.9530
20
211.8669
0
VERTEX
8
CUT
10
268.4992
20
211.2480
0
VERTEX
8
CUT
10
269.3804
20
206.9127
0
VERTEX
8
CUT
10
271.0405
20
203.8429
0
VERTEX
8
CUT
10
273.1639
20
198.8700
0
VERTEX
8
CUT
10
274.7066
20
196.9333
0
VERTEX
8
CUT
10
275.9706
20
194.7476
0
VERTEX
8
CUT
10
277.3897
20
192.7710
0
VERTEX
8
CUT
10
278.3215
20
190.5079
0
VERTEX
8
CUT
10
278.5028
20
189.5984
0
VERTEX
8
CUT
10
278.5513
20
187.1050
0
VERTEX
8
CUT
10
278.1859
20
184.6842
0
VERTEX
8
CUT
10
277.0970
20
182.6681
0
VERTEX
8
CUT
10
276.8891
20
181.3620
0
VERTEX
8
CUT
10
276.5831
20
180.7483
0
VERTEX
8
CUT
10
276.0738
20
180.2496
0
VERTEX
8
CUT
10
274.8484
20
179.6031
0
VERTEX
8
CUT
10
274.4753
20
179.0419
0
VERTEX
8
CUT
10
274.3535
20
178.1917
0
VERTEX
8
CUT
10
274.6331
20
176.0983
0
VERTEX
8
CUT
10
274.5182
20
175.2240
0
VERTEX
8
CUT
10
274.1555
20
174.4432
0
VERTEX
8
CUT
10
272.2169
20
171.6831
0
VERTEX
8
CUT
10
270.3262
20
165.9325
0
VERTEX
8
CUT
10
269.0795
20
163.9781
0
VERTEX
8
CUT
10
268.6710
20
162.9725
0
VERTEX
8
CUT
10
268.6099
20
161.0054
0
VERTEX
8
CUT
10
269.3711
20
157.2034
0
VERTEX
8
CUT
10
269.7931
20
152.4716
0
VERTEX
8
CUT
10
270.2421
20
151.8847
0
VERTEX
8
CUT
10
270.7543
20
151.5823
0
VERTEX
8
CUT
10
273.3555
20
151.0512
0
VERTEX
8
CUT
10
274.5439
20
151.0968
0
VERTEX
8
CUT
10
275.1177
20
150.9397
0
VERTEX
8
CUT
10
277.6640
20
149.0196
0
VERTEX
8
CUT
10
278.6058
20
148.9969
0
VERTEX
8
CUT
10
280.0274
20
149.7114
0
VERTEX
8
CUT
10
280.7000
20
149.7302
0
VERTEX
8
CUT
10
281.2974
20
149.3750
0
VERTEX
8
CUT
10
282.1227
20
148.1231
0
VERTEX
8
CUT
10
282.5452
20
147.8093
0
VERTEX
8
CUT
10
285.7549
20
147.4419
0
VERTEX
8
CUT
10
287.9909
20
146.8216
0
VERTEX
8
CUT
10
290.7896
20
144.5887
0
VERTEX
8
CUT
10
292.2920
20
144.4209
0
VERTEX
8
CUT
10
293.1978
20
144.0585
0
VERTEX
8
CUT
10
295.0000
20
142.3721
0
VERTEX
8
CUT
10
298.1551
20
140.3499
0
VERTEX
8
CUT
10
299.1357
20
139.3689
0
VERTEX
8
CUT
10
299.3934
20
138.0799
0
VERTEX
8
CUT
10
299.3695
20
137.6962
0
VERTEX
8
CUT
10
299.2154
20
136.0346
0
VERTEX
8
CUT
10
299.1890
20
135.8237
0
VERTEX
8
CUT
10
299.1000
20
135.1103
0
VERTEX
8
CUT
10
298.9841
20
134.1816
0
VERTEX
8
CUT
10
298.7640
20
132.4181
0
VERTEX
8
CUT
10
298.6605
20
131.9856
0
VERTEX
8
CUT
10
298.3688
20
131.8210
0
VERTEX
8
CUT
10
296.5101
20
132.0019
0
VERTEX
8
CUT
10
295.2972
20
131.8337
0
VERTEX
8
CUT
10
293.8357
20
131.0990
0
VERTEX
8
CUT
10
293.0798
20
130.1015
0
VERTEX
8
CUT
10
293.0049
20
129.5761
0
VERTEX
8
CUT
10
293.2738
20
129.2853
0
VERTEX
8
CUT
10
296.0211
20
129.4684
0
VERTEX
8
CUT
10
296.7381
20
129.1013
0
VERTEX
8
CUT
10
298.0556
20
126.7418
0
VERTEX
8
CUT
10
298.0234
20
126.4834
0
VERTEX
8
CUT
10
296.1387
20
116.7438
0
VERTEX
8
CUT
10
296.0176
20
116.1500
0
VERTEX
8
CUT
10
293.4766
20
106.6760
0
VERTEX
8
CUT
10
292.6894
20
104.2808
0
VERTEX
8
CUT
10
290.4193
20
97.6594
0
VERTEX
8
CUT
10
288.8662
20
93.7559
0
VERTEX
8
CUT
10
288.5396
20
92.9844
0
VERTEX
8
CUT
10
288.2924
20
92.4003
0
VERTEX
8
CUT
10
288.0413
20
91.8071
0
VERTEX
8
CUT
10
286.8624
20
89.0216
0
VERTEX
8
CUT
10
284.8659
20
84.7349
0
VERTEX
8
CUT
10
282.5557
20
80.1869
0
VERTEX
8
CUT
10
280.3909
20
76.1804
0
VERTEX
8
CUT
10
277.5256
20
71.3861
0
VERTEX
8
CUT
10
275.4411
20
68.0101
0
VERTEX
8
CUT
10
269.9369
20
60.0887
0
VERTEX
8
CUT
10
261.7606
20
50.0990
0
VERTEX
8
CUT
10
252.7766
20
40.8650
0
VERTEX
8
CUT
10
243.1279
20
32.5094
0
VERTEX
8
CUT
10
232.7891
20
24.9945
0
VERTEX
8
CUT
10
221.8517
20
18.3938
0
VERTEX
8
CUT
10
210.3655
20
12.7405
0
VERTEX
8
CUT
10
198.3811
20
8.0515
0
VERTEX
8
CUT
10
185.9373
20
4.3859
0
VERTEX
8
CUT
10
175.2325
20
2.1454
0
VERTEX
8
CUT
10
169.7464
20
1.3139
0
VERTEX
8
CUT
10
164.2131
20
0.6806
0
VERTEX
8
CUT
10
153.1748
20
0.0000
0
VERTEX
8
CUT
10
142.3061
20
0.1502
0
VERTEX
8
CUT
10
131.1876
20
1.1452
0
VERTEX
8
CUT
10
120.2019
20
2.9429
0
VERTEX
8
CUT
10
109.4443
20
5.5316
0
VERTEX
8
CUT
10
98.9074
20
8.9107
0
VERTEX
8
CUT
10
88.6372
20
13.0720
0
SEQEND
0
POLYLINE
8
CUT
66
1
70
1
10
0.0
20
0.0
30
0.0
0
VERTEX
8
CUT
10
289.4978
20
129.0095
0
VERTEX
8
CUT
10
289.2322
20
128.6775
0
VERTEX
8
CUT
10
289.3982
20
128.1961
0
VERTEX
8
CUT
10
290.1286
20
127.5653
0
VERTEX
8
CUT
10
290.6266
20
127.5653
0
VERTEX
8
CUT
10
291.2740
20
127.8807
0
VERTEX
8
CUT
10
291.7720
20
128.4451
0
VERTEX
8
CUT
10
291.5230
20
128.8767
0
VERTEX
8
CUT
10
290.1452
20
129.1257
0
SEQEND
0
ENDSEC
0
EOF
