0
SECTION
2
HEADER
9
$ACADVER
1
AC1009
9
$INSUNITS
70
4
0
ENDSEC
0
SECTION
2
TABLES
0
TABLE
2
LAYER
70
1
0
LAYER
2
CUT
70
0
62
7
6
CONTINUOUS
0
ENDTAB
0
ENDSEC
0
SECTION
2
ENTITIES
0
POLYLINE
8
CUT
66
1
70
1
10
0.0
20
0.0
30
0.0
0
VERTEX
8
CUT
10
232.0119
20
104.7042
0
VERTEX
8
CUT
10
232.3854
20
104.9453
0
VERTEX
8
CUT
10
232.7422
20
104.8578
0
VERTEX
8
CUT
10
235.5158
20
103.1149
0
VERTEX
8
CUT
10
236.1662
20
102.5221
0
VERTEX
8
CUT
10
237.6110
20
100.2189
0
VERTEX
8
CUT
10
238.1296
20
98.0079
0
VERTEX
8
CUT
10
238.5382
20
97.3266
0
VERTEX
8
CUT
10
239.3051
20
97.4516
0
VERTEX
8
CUT
10
239.8375
20
97.8616
0
VERTEX
8
CUT
10
241.0185
20
100.4096
0
VERTEX
8
CUT
10
240.9650
20
102.6216
0
VERTEX
8
CUT
10
240.5289
20
105.5762
0
VERTEX
8
CUT
10
238.7176
20
107.4443
0
VERTEX
8
CUT
10
238.1927
20
110.1829
0
VERTEX
8
CUT
10
236.1038
20
112.9726
0
VERTEX
8
CUT
10
235.7454
20
113.7930
0
VERTEX
8
CUT
10
235.3527
20
115.7489
0
VERTEX
8
CUT
10
232.9397
20
119.1867
0
VERTEX
8
CUT
10
232.7797
20
120.2218
0
VERTEX
8
CUT
10
233.6058
20
121.0408
0
VERTEX
8
CUT
10
234.1933
20
120.8783
0
VERTEX
8
CUT
10
235.3246
20
119.8005
0
VERTEX
8
CUT
10
237.3723
20
117.4858
0
VERTEX
8
CUT
10
239.3004
20
114.8465
0
VERTEX
8
CUT
10
240.0160
20
114.3759
0
VERTEX
8
CUT
10
241.6614
20
113.7421
0
VERTEX
8
CUT
10
243.1855
20
111.6940
0
VERTEX
8
CUT
10
244.1958
20
111.1257
0
VERTEX
8
CUT
10
246.7517
20
110.8629
0
VERTEX
8
CUT
10
248.2580
20
111.3394
0
VERTEX
8
CUT
10
248.7364
20
111.7758
0
VERTEX
8
CUT
10
248.8020
20
113.8383
0
VERTEX
8
CUT
10
250.6526
20
116.4570
0
VERTEX
8
CUT
10
251.2816
20
116.7014
0
VERTEX
8
CUT
10
252.4682
20
116.5793
0
VERTEX
8
CUT
10
254.2111
20
118.1530
0
VERTEX
8
CUT
10
254.9085
20
118.5355
0
VERTEX
8
CUT
10
255.5796
20
118.5762
0
VERTEX
8
CUT
10
256.2890
20
118.3161
0
VERTEX
8
CUT
10
257.3104
20
117.2685
0
VERTEX
8
CUT
10
257.6858
20
116.2776
0
VERTEX
8
CUT
10
259.4353
20
113.9026
0
VERTEX
8
CUT
10
259.8132
20
111.6991
0
VERTEX
8
CUT
10
260.4716
20
109.6402
0
VERTEX
8
CUT
10
260.8472
20
107.0310
0
VERTEX
8
CUT
10
261.2730
20
106.8956
0
VERTEX
8
CUT
10
263.6644
20
107.2637
0
VERTEX
8
CUT
10
265.8287
20
105.4262
0
VERTEX
8
CUT
10
268.1192
20
105.0807
0
VERTEX
8
CUT
10
268.6451
20
104.7728
0
VERTEX
8
CUT
10
269.1242
20
103.9741
0
VERTEX
8
CUT
10
268.9941
20
102.7592
0
VERTEX
8
CUT
10
268.2599
20
101.0367
0
VERTEX
8
CUT
10
267.9121
20
99.4157
0
VERTEX
8
CUT
10
267.4664
20
98.7636
0
VERTEX
8
CUT
10
266.5294
20
98.2721
0
VERTEX
8
CUT
10
264.4331
20
98.5176
0
VERTEX
8
CUT
10
263.7413
20
98.4272
0
VERTEX
8
CUT
10
263.0114
20
98.0046
0
VERTEX
8
CUT
10
262.6112
20
97.2661
0
VERTEX
8
CUT
10
262.6634
20
96.3744
0
VERTEX
8
CUT
10
263.2428
20
95.6848
0
VERTEX
8
CUT
10
265.6233
20
95.4229
0
VERTEX
8
CUT
10
266.4042
20
94.8445
0
VERTEX
8
CUT
10
266.6667
20
94.0087
0
VERTEX
8
CUT
10
266.1349
20
92.9555
0
VERTEX
8
CUT
10
265.5490
20
92.4836
0
VERTEX
8
CUT
10
264.7225
20
92.1767
0
VERTEX
8
CUT
10
261.2445
20
91.7685
0
VERTEX
8
CUT
10
261.0569
20
91.3156
0
VERTEX
8
CUT
10
262.0153
20
89.5342
0
VERTEX
8
CUT
10
261.8086
20
88.8899
0
VERTEX
8
CUT
10
259.5059
20
87.8050
0
VERTEX
8
CUT
10
257.0586
20
87.7624
0
VERTEX
8
CUT
10
256.7148
20
87.4508
0
VERTEX
8
CUT
10
256.8214
20
87.0994
0
VERTEX
8
CUT
10
258.1023
20
85.9401
0
VERTEX
8
CUT
10
260.2742
20
84.8832
0
VERTEX
8
CUT
10
261.3164
20
84.1649
0
VERTEX
8
CUT
10
262.8170
20
82.2825
0
VERTEX
8
CUT
10
264.3940
20
81.0697
0
VERTEX
8
CUT
10
264.4742
20
80.5854
0
VERTEX
8
CUT
10
264.2733
20
80.1215
0
VERTEX
8
CUT
10
263.7808
20
79.6622
0
VERTEX
8
CUT
10
262.7348
20
79.3364
0
VERTEX
8
CUT
10
261.8873
20
79.3932
0
VERTEX
8
CUT
10
260.5581
20
79.9434
0
VERTEX
8
CUT
10
259.9341
20
79.5256
0
VERTEX
8
CUT
10
259.6195
20
78.9501
0
VERTEX
8
CUT
10
259.5783
20
78.4272
0
VERTEX
8
CUT
10
260.0239
20
76.2726
0
VERTEX
8
CUT
10
259.9602
20
75.0480
0
VERTEX
8
CUT
10
259.6199
20
73.9818
0
VERTEX
8
CUT
10
258.9994
20
73.3156
0
VERTEX
8
CUT
10
258.2293
20
73.3150
0
VERTEX
8
CUT
10
257.4232
20
73.8046
0
VERTEX
8
CUT
10
256.6623
20
74.6909
0
VERTEX
8
CUT
10
255.4622
20
76.6502
0
VERTEX
8
CUT
10
254.9386
20
76.8852
0
VERTEX
8
CUT
10
254.4096
20
76.6543
0
VERTEX
8
CUT
10
253.9833
20
75.6237
0
VERTEX
8
CUT
10
254.0339
20
73.4421
0
VERTEX
8
CUT
10
253.8664
20
72.7867
0
VERTEX
8
CUT
10
253.2465
20
72.3940
0
VERTEX
8
CUT
10
251.9489
20
72.6353
0
VERTEX
8
CUT
10
251.5520
20
72.4951
0
VERTEX
8
CUT
10
251.0150
20
71.6777
0
VERTEX
8
CUT
10
250.1671
20
69.5194
0
VERTEX
8
CUT
10
250.4871
20
69.0558
0
VERTEX
8
CUT
10
251.8922
20
68.7633
0
VERTEX
8
CUT
10
252.8559
20
68.0066
0
VERTEX
8
CUT
10
253.2035
20
66.6893
0
VERTEX
8
CUT
10
252.8970
20
65.7717
0
VERTEX
8
CUT
10
252.1364
20
65.1343
0
VERTEX
8
CUT
10
250.0800
20
64.5594
0
VERTEX
8
CUT
10
248.3572
20
63.3886
0
VERTEX
8
CUT
10
247.8337
20
62.7193
0
VERTEX
8
CUT
10
247.6197
20
61.3856
0
VERTEX
8
CUT
10
247.1485
20
60.9386
0
VERTEX
8
CUT
10
246.3745
20
61.0879
0
VERTEX
8
CUT
10
244.4811
20
62.6341
0
VERTEX
8
CUT
10
243.2433
20
62.4795
0
VERTEX
8
CUT
10
242.0449
20
61.8379
0
VERTEX
8
CUT
10
241.8494
20
61.4624
0
VERTEX
8
CUT
10
242.0323
20
59.8508
0
VERTEX
8
CUT
10
241.8029
20
59.3242
0
VERTEX
8
CUT
10
240.3651
20
58.2301
0
VERTEX
8
CUT
10
238.7436
20
56.0173
0
VERTEX
8
CUT
10
236.8360
20
55.2254
0
VERTEX
8
CUT
10
237.5274
20
52.7506
0
VERTEX
8
CUT
10
237.3266
20
51.4951
0
VERTEX
8
CUT
10
234.9228
20
49.1913
0
VERTEX
8
CUT
10
234.0467
20
48.7882
0
VERTEX
8
CUT
10
232.3396
20
49.1023
0
VERTEX
8
CUT
10
229.8874
20
49.0873
0
VERTEX
8
CUT
10
225.0291
20
52.6949
0
VERTEX
8
CUT
10
223.2418
20
54.5152
0
VERTEX
8
CUT
10
223.4414
20
57.6414
0
VERTEX
8
CUT
10
226.4084
20
62.3320
0
VERTEX
8
CUT
10
226.7023
20
63.2388
0
VERTEX
8
CUT
10
226.6565
20
65.8219
0
VERTEX
8
CUT
10
225.0973
20
67.9218
0
VERTEX
8
CUT
10
224.8401
20
68.6670
0
VERTEX
8
CUT
10
225.4021
20
69.4760
0
VERTEX
8
CUT
10
227.3582
20
70.3724
0
VERTEX
8
CUT
10
227.6790
20
70.8693
0
VERTEX
8
CUT
10
227.9348
20
72.1857
0
VERTEX
8
CUT
10
228.5532
20
72.4872
0
VERTEX
8
CUT
10
228.9823
20
71.6533
0
VERTEX
8
CUT
10
229.3670
20
68.0025
0
VERTEX
8
CUT
10
229.6593
20
67.2018
0
VERTEX
8
CUT
10
230.5790
20
66.3574
0
VERTEX
8
CUT
10
231.2702
20
66.0008
0
VERTEX
8
CUT
10
232.3978
20
65.9891
0
VERTEX
8
CUT
10
233.2053
20
66.3088
0
VERTEX
8
CUT
10
234.2050
20
67.0965
0
VERTEX
8
CUT
10
234.7209
20
68.1288
0
VERTEX
8
CUT
10
234.6328
20
68.9957
0
VERTEX
8
CUT
10
233.4863
20
71.6322
0
VERTEX
8
CUT
10
233.6528
20
72.6782
0
VERTEX
8
CUT
10
234.2626
20
73.2972
0
VERTEX
8
CUT
10
234.8033
20
73.3751
0
VERTEX
8
CUT
10
237.0138
20
72.1285
0
VERTEX
8
CUT
10
237.7979
20
72.1138
0
VERTEX
8
CUT
10
238.2228
20
72.3596
0
VERTEX
8
CUT
10
239.4805
20
73.7152
0
VERTEX
8
CUT
10
240.0149
20
74.7573
0
VERTEX
8
CUT
10
240.0726
20
75.8635
0
VERTEX
8
CUT
10
239.7534
20
77.5447
0
VERTEX
8
CUT
10
239.8391
20
78.3660
0
VERTEX
8
CUT
10
240.3397
20
78.9009
0
VERTEX
8
CUT
10
241.6518
20
79.2486
0
VERTEX
8
CUT
10
241.8321
20
79.8810
0
VERTEX
8
CUT
10
240.8311
20
83.6929
0
VERTEX
8
CUT
10
239.5326
20
86.6105
0
VERTEX
8
CUT
10
239.0770
20
88.4734
0
VERTEX
8
CUT
10
237.3502
20
93.2113
0
VERTEX
8
CUT
10
236.8011
20
93.1639
0
VERTEX
8
CUT
10
234.1345
20
89.4102
0
VERTEX
8
CUT
10
233.0395
20
87.5521
0
VERTEX
8
CUT
10
231.8114
20
84.8153
0
VERTEX
8
CUT
10
231.2867
20
84.3653
0
VERTEX
8
CUT
10
230.8444
20
84.4505
0
VERTEX
8
CUT
10
230.4919
20
84.8775
0
VERTEX
8
CUT
10
230.8698
20
87.9178
0
VERTEX
8
CUT
10
230.1342
20
90.2043
0
VERTEX
8
CUT
10
230.1607
20
90.5843
0
VERTEX
8
CUT
10
231.1449
20
91.8520
0
VERTEX
8
CUT
10
231.3809
20
92.5432
0
VERTEX
8
CUT
10
230.0529
20
95.2946
0
VERTEX
8
CUT
10
229.6444
20
96.8882
0
VERTEX
8
CUT
10
231.4041
20
98.9026
0
VERTEX
8
CUT
10
232.1506
20
100.3341
0
VERTEX
8
CUT
10
232.3140
20
101.3151
0
VERTEX
8
CUT
10
231.9179
20
103.8067
0
SEQEND
0
POLYLINE
8
CUT
66
1
70
1
10
0.0
20
0.0
30
0.0
0
VERTEX
8
CUT
10
236.0772
20
208.8653
0
VERTEX
8
CUT
10
237.3035
20
210.8419
0
VERTEX
8
CUT
10
237.5922
20
213.3460
0
VERTEX
8
CUT
10
238.8407
20
214.5905
0
VERTEX
8
CUT
10
239.0542
20
215.1011
0
VERTEX
8
CUT
10
238.3346
20
216.4459
0
VERTEX
8
CUT
10
236.7498
20
217.6493
0
VERTEX
8
CUT
10
236.1382
20
218.3487
0
VERTEX
8
CUT
10
235.9377
20
218.8237
0
VERTEX
8
CUT
10
236.0219
20
219.7017
0
VERTEX
8
CUT
10
236.6440
20
220.8381
0
VERTEX
8
CUT
10
238.5837
20
222.4628
0
VERTEX
8
CUT
10
238.3004
20
224.4846
0
VERTEX
8
CUT
10
239.2607
20
226.8263
0
VERTEX
8
CUT
10
239.5252
20
228.4697
0
VERTEX
8
CUT
10
240.3142
20
230.6219
0
VERTEX
8
CUT
10
240.7146
20
232.6723
0
VERTEX
8
CUT
10
241.7195
20
233.6962
0
VERTEX
8
CUT
10
242.4927
20
234.0512
0
VERTEX
8
CUT
10
242.9633
20
234.0389
0
VERTEX
8
CUT
10
243.9107
20
233.1503
0
VERTEX
8
CUT
10
244.4946
20
231.4252
0
VERTEX
8
CUT
10
244.8773
20
231.0497
0
VERTEX
8
CUT
10
245.9058
20
230.5978
0
VERTEX
8
CUT
10
246.2460
20
230.0670
0
VERTEX
8
CUT
10
246.2237
20
229.2645
0
VERTEX
8
CUT
10
245.7771
20
227.5942
0
VERTEX
8
CUT
10
244.6670
20
225.7461
0
VERTEX
8
CUT
10
244.3671
20
224.7010
0
VERTEX
8
CUT
10
244.2237
20
222.4427
0
VERTEX
8
CUT
10
244.5304
20
219.1119
0
VERTEX
8
CUT
10
244.8665
20
218.6198
0
VERTEX
8
CUT
10
245.2624
20
218.4411
0
VERTEX
8
CUT
10
247.4840
20
218.2616
0
VERTEX
8
CUT
10
248.8903
20
217.7655
0
VERTEX
8
CUT
10
250.0306
20
216.8637
0
VERTEX
8
CUT
10
250.5632
20
215.8970
0
VERTEX
8
CUT
10
249.8424
20
214.2325
0
VERTEX
8
CUT
10
249.4657
20
212.4020
0
VERTEX
8
CUT
10
248.7860
20
211.0743
0
VERTEX
8
CUT
10
248.6600
20
207.7909
0
VERTEX
8
CUT
10
246.8918
20
204.9459
0
VERTEX
8
CUT
10
246.1414
20
203.2557
0
VERTEX
8
CUT
10
246.7627
20
200.8154
0
VERTEX
8
CUT
10
246.6244
20
200.1451
0
VERTEX
8
CUT
10
246.0236
20
198.9900
0
VERTEX
8
CUT
10
245.7098
20
195.9703
0
VERTEX
8
CUT
10
246.0726
20
195.2535
0
VERTEX
8
CUT
10
246.4258
20
194.9975
0
VERTEX
8
CUT
10
248.5664
20
194.8731
0
VERTEX
8
CUT
10
249.5647
20
195.0134
0
VERTEX
8
CUT
10
253.3643
20
196.4283
0
VERTEX
8
CUT
10
257.7690
20
196.5812
0
VERTEX
8
CUT
10
259.2131
20
196.9144
0
VERTEX
8
CUT
10
259.9467
20
196.4978
0
VERTEX
8
CUT
10
260.1850
20
195.9647
0
VERTEX
8
CUT
10
260.3378
20
194.5771
0
VERTEX
8
CUT
10
261.8628
20
192.9763
0
VERTEX
8
CUT
10
262.6140
20
191.7287
0
VERTEX
8
CUT
10
262.6827
20
190.6879
0
VERTEX
8
CUT
10
262.3934
20
190.0007
0
VERTEX
8
CUT
10
261.4259
20
189.3402
0
VERTEX
8
CUT
10
259.8556
20
189.1131
0
VERTEX
8
CUT
10
254.9014
20
187.4139
0
VERTEX
8
CUT
10
254.0742
20
186.8069
0
VERTEX
8
CUT
10
252.9477
20
184.9298
0
VERTEX
8
CUT
10
253.3812
20
184.4283
0
VERTEX
8
CUT
10
255.4982
20
183.5226
0
VERTEX
8
CUT
10
257.5273
20
181.5759
0
VERTEX
8
CUT
10
259.4740
20
180.6900
0
VERTEX
8
CUT
10
259.7914
20
179.7040
0
VERTEX
8
CUT
10
259.1057
20
177.0590
0
VERTEX
8
CUT
10
258.6571
20
176.7006
0
VERTEX
8
CUT
10
258.2642
20
176.6578
0
VERTEX
8
CUT
10
253.5104
20
176.9234
0
VERTEX
8
CUT
10
251.9962
20
176.7746
0
VERTEX
8
CUT
10
251.0856
20
175.8438
0
VERTEX
8
CUT
10
251.1909
20
173.4376
0
VERTEX
8
CUT
10
250.9864
20
172.7162
0
VERTEX
8
CUT
10
250.5485
20
172.1671
0
VERTEX
8
CUT
10
249.2753
20
171.2545
0
VERTEX
8
CUT
10
244.0244
20
168.4760
0
VERTEX
8
CUT
10
241.2857
20
166.0906
0
VERTEX
8
CUT
10
240.4940
20
165.6750
0
VERTEX
8
CUT
10
239.7283
20
165.8451
0
VERTEX
8
CUT
10
237.5862
20
167.4050
0
VERTEX
8
CUT
10
235.8960
20
167.9841
0
VERTEX
8
CUT
10
233.8776
20
169.1669
0
VERTEX
8
CUT
10
232.9593
20
169.3700
0
VERTEX
8
CUT
10
231.9586
20
169.8619
0
VERTEX
8
CUT
10
230.9782
20
170.6828
0
VERTEX
8
CUT
10
230.2783
20
171.6689
0
VERTEX
8
CUT
10
229.9103
20
173.5182
0
VERTEX
8
CUT
10
230.2206
20
175.6603
0
VERTEX
8
CUT
10
231.4696
20
178.6661
0
VERTEX
8
CUT
10
231.4529
20
181.1185
0
VERTEX
8
CUT
10
232.0515
20
183.1816
0
VERTEX
8
CUT
10
231.3068
20
184.5300
0
VERTEX
8
CUT
10
229.2762
20
185.9650
0
VERTEX
8
CUT
10
228.8513
20
186.6364
0
VERTEX
8
CUT
10
228.9215
20
187.4064
0
VERTEX
8
CUT
10
229.8827
20
188.2729
0
VERTEX
8
CUT
10
229.9972
20
188.6912
0
VERTEX
8
CUT
10
227.8017
20
193.4017
0
VERTEX
8
CUT
10
227.8718
20
193.8862
0
VERTEX
8
CUT
10
228.4974
20
194.5413
0
VERTEX
8
CUT
10
231.7036
20
195.7834
0
VERTEX
8
CUT
10
231.7077
20
196.3153
0
VERTEX
8
CUT
10
229.9100
20
197.7983
0
VERTEX
8
CUT
10
229.1747
20
198.7241
0
VERTEX
8
CUT
10
228.8169
20
199.7092
0
VERTEX
8
CUT
10
228.8551
20
200.6774
0
VERTEX
8
CUT
10
229.3813
20
201.5743
0
VERTEX
8
CUT
10
230.0776
20
201.7285
0
VERTEX
8
CUT
10
230.5717
20
201.4285
0
VERTEX
8
CUT
10
231.5650
20
200.2093
0
VERTEX
8
CUT
10
232.1198
20
200.2174
0
VERTEX
8
CUT
10
233.3502
20
201.4579
0
VERTEX
8
CUT
10
233.8520
20
203.7180
0
VERTEX
8
CUT
10
235.5447
20
204.8527
0
VERTEX
8
CUT
10
235.9253
20
205.3284
0
VERTEX
8
CUT
10
236.1172
20
206.5263
0
SEQEND
0
POLYLINE
8
CUT
66
1
70
1
10
0.0
20
0.0
30
0.0
0
VERTEX
8
CUT
10
79.3325
20
271.6668
0
VERTEX
8
CUT
10
82.6500
20
272.2456
0
VERTEX
8
CUT
10
83.1525
20
272.0912
0
VERTEX
8
CUT
10
83.7009
20
271.5572
0
VERTEX
8
CUT
10
83.8829
20
270.8476
0
VERTEX
8
CUT
10
83.6478
20
269.3273
0
VERTEX
8
CUT
10
82.6618
20
267.5679
0
VERTEX
8
CUT
10
82.1921
20
264.6401
0
VERTEX
8
CUT
10
80.9692
20
262.5004
0
VERTEX
8
CUT
10
80.9870
20
261.6912
0
VERTEX
8
CUT
10
81.3981
20
261.1197
0
VERTEX
8
CUT
10
81.8103
20
261.0864
0
VERTEX
8
CUT
10
83.1168
20
261.6050
0
VERTEX
8
CUT
10
84.7072
20
261.5587
0
VERTEX
8
CUT
10
86.1809
20
262.2999
0
VERTEX
8
CUT
10
86.3719
20
262.5792
0
VERTEX
8
CUT
10
86.3198
20
263.3711
0
VERTEX
8
CUT
10
87.2390
20
264.2886
0
VERTEX
8
CUT
10
87.5395
20
265.4248
0
VERTEX
8
CUT
10
88.1413
20
265.7658
0
VERTEX
8
CUT
10
89.2918
20
265.7582
0
VERTEX
8
CUT
10
89.8554
20
265.4199
0
VERTEX
8
CUT
10
90.4395
20
264.3436
0
VERTEX
8
CUT
10
91.5383
20
263.5704
0
VERTEX
8
CUT
10
92.1683
20
262.7829
0
VERTEX
8
CUT
10
92.5774
20
261.8186
0
VERTEX
8
CUT
10
92.8367
20
260.4591
0
VERTEX
8
CUT
10
93.3281
20
259.6929
0
VERTEX
8
CUT
10
95.7371
20
258.0774
0
VERTEX
8
CUT
10
96.3143
20
257.5283
0
VERTEX
8
CUT
10
96.8524
20
256.6328
0
VERTEX
8
CUT
10
96.9805
20
254.3692
0
VERTEX
8
CUT
10
96.4555
20
252.2652
0
VERTEX
8
CUT
10
95.8867
20
251.4163
0
VERTEX
8
CUT
10
93.8971
20
249.5302
0
VERTEX
8
CUT
10
93.4726
20
248.8400
0
VERTEX
8
CUT
10
93.4414
20
247.0991
0
VERTEX
8
CUT
10
93.9751
20
244.5807
0
VERTEX
8
CUT
10
93.6848
20
243.5897
0
VERTEX
8
CUT
10
89.9750
20
239.8465
0
VERTEX
8
CUT
10
87.2941
20
235.7932
0
VERTEX
8
CUT
10
86.8803
20
233.7414
0
VERTEX
8
CUT
10
86.3232
20
232.6738
0
VERTEX
8
CUT
10
85.5924
20
231.9088
0
VERTEX
8
CUT
10
82.8799
20
230.8235
0
VERTEX
8
CUT
10
78.1814
20
231.3224
0
VERTEX
8
CUT
10
77.4353
20
231.2227
0
VERTEX
8
CUT
10
76.4257
20
230.5552
0
VERTEX
8
CUT
10
75.7537
20
229.4513
0
VERTEX
8
CUT
10
75.5652
20
228.7561
0
VERTEX
8
CUT
10
75.5657
20
227.3748
0
VERTEX
8
CUT
10
76.1298
20
225.1176
0
VERTEX
8
CUT
10
75.9603
20
224.1378
0
VERTEX
8
CUT
10
75.3996
20
223.6170
0
VERTEX
8
CUT
10
74.8415
20
223.7549
0
VERTEX
8
CUT
10
74.0754
20
224.4519
0
VERTEX
8
CUT
10
72.6788
20
226.9394
0
VERTEX
8
CUT
10
72.3587
20
228.3780
0
VERTEX
8
CUT
10
72.3752
20
230.5205
0
VERTEX
8
CUT
10
72.8013
20
231.4958
0
VERTEX
8
CUT
10
73.5570
20
232.4187
0
VERTEX
8
CUT
10
76.2137
20
235.0089
0
VERTEX
8
CUT
10
77.3091
20
235.6994
0
VERTEX
8
CUT
10
77.5893
20
236.4992
0
VERTEX
8
CUT
10
78.6077
20
238.1867
0
VERTEX
8
CUT
10
78.9060
20
240.6105
0
VERTEX
8
CUT
10
81.1073
20
243.7375
0
VERTEX
8
CUT
10
82.2779
20
246.5126
0
VERTEX
8
CUT
10
82.4343
20
249.5938
0
VERTEX
8
CUT
10
82.2573
20
251.0549
0
VERTEX
8
CUT
10
81.8790
20
251.6516
0
VERTEX
8
CUT
10
80.6093
20
252.6483
0
VERTEX
8
CUT
10
80.1180
20
252.6904
0
VERTEX
8
CUT
10
78.9782
20
251.8295
0
VERTEX
8
CUT
10
79.0647
20
250.9778
0
VERTEX
8
CUT
10
78.7190
20
250.1757
0
VERTEX
8
CUT
10
78.4299
20
248.5213
0
VERTEX
8
CUT
10
77.5692
20
247.1211
0
VERTEX
8
CUT
10
76.8993
20
245.4709
0
VERTEX
8
CUT
10
76.3881
20
244.8003
0
VERTEX
8
CUT
10
73.3220
20
242.7968
0
VERTEX
8
CUT
10
71.6890
20
242.7248
0
VERTEX
8
CUT
10
69.2028
20
241.4934
0
VERTEX
8
CUT
10
67.0605
20
240.7831
0
VERTEX
8
CUT
10
64.7342
20
238.1676
0
VERTEX
8
CUT
10
64.1991
20
236.5947
0
VERTEX
8
CUT
10
59.2586
20
236.5030
0
VERTEX
8
CUT
10
58.2654
20
236.6711
0
VERTEX
8
CUT
10
57.4887
20
237.1232
0
VERTEX
8
CUT
10
57.3533
20
237.5696
0
VERTEX
8
CUT
10
57.5461
20
238.2611
0
VERTEX
8
CUT
10
58.9003
20
240.2204
0
VERTEX
8
CUT
10
60.0720
20
242.4627
0
VERTEX
8
CUT
10
59.3873
20
243.6696
0
VERTEX
8
CUT
10
58.2420
20
244.4477
0
VERTEX
8
CUT
10
57.8037
20
244.4446
0
VERTEX
8
CUT
10
55.8424
20
243.5973
0
VERTEX
8
CUT
10
53.4285
20
242.9765
0
VERTEX
8
CUT
10
49.3640
20
240.2818
0
VERTEX
8
CUT
10
48.7220
20
240.3273
0
VERTEX
8
CUT
10
48.1965
20
241.1860
0
VERTEX
8
CUT
10
48.1640
20
241.6529
0
VERTEX
8
CUT
10
48.4224
20
242.3415
0
VERTEX
8
CUT
10
49.1402
20
243.0270
0
VERTEX
8
CUT
10
54.1141
20
244.9660
0
VERTEX
8
CUT
10
57.6967
20
247.5683
0
VERTEX
8
CUT
10
61.6242
20
248.2820
0
VERTEX
8
CUT
10
62.5176
20
249.0039
0
VERTEX
8
CUT
10
63.5784
20
251.6544
0
VERTEX
8
CUT
10
64.9244
20
252.9725
0
VERTEX
8
CUT
10
65.4936
20
254.4340
0
VERTEX
8
CUT
10
64.0276
20
258.2558
0
VERTEX
8
CUT
10
63.7681
20
261.9158
0
VERTEX
8
CUT
10
62.2571
20
263.8756
0
VERTEX
8
CUT
10
61.8165
20
265.0102
0
VERTEX
8
CUT
10
61.8170
20
266.7333
0
VERTEX
8
CUT
10
62.3702
20
268.8342
0
VERTEX
8
CUT
10
62.4489
20
271.1411
0
VERTEX
8
CUT
10
62.6282
20
271.7633
0
VERTEX
8
CUT
10
62.7667
20
271.9061
0
VERTEX
8
CUT
10
63.7577
20
272.6291
0
VERTEX
8
CUT
10
64.7726
20
273.3695
0
VERTEX
8
CUT
10
64.8495
20
273.4256
0
VERTEX
8
CUT
10
65.1807
20
273.6673
0
VERTEX
8
CUT
10
68.4090
20
273.8852
0
VERTEX
8
CUT
10
71.4342
20
275.2788
0
VERTEX
8
CUT
10
72.1637
20
274.9203
0
VERTEX
8
CUT
10
73.5464
20
273.6116
0
VERTEX
8
CUT
10
76.1615
20
273.7230
0
VERTEX
8
CUT
10
76.9849
20
273.5886
0
SEQEND
0
ENDSEC
0
EOF
