0
SECTION
2
HEADER
9
$ACADVER
1
AC1009
9
$INSUNITS
70
4
0
ENDSEC
0
SECTION
2
TABLES
0
TABLE
2
LAYER
70
1
0
LAYER
2
CUT
70
0
62
7
6
CONTINUOUS
0
ENDTAB
0
ENDSEC
0
SECTION
2
ENTITIES
0
POLYLINE
8
CUT
66
1
70
1
10
0.0
20
0.0
30
0.0
0
VERTEX
8
CUT
10
299.9634
20
0.0614
0
VERTEX
8
CUT
10
299.9606
20
0.0029
0
VERTEX
8
CUT
10
299.9192
20
0.0008
0
VERTEX
8
CUT
10
299.9021
20
-0.0000
0
VERTEX
8
CUT
10
0.0614
20
-0.0000
0
VERTEX
8
CUT
10
0.0501
20
0.0006
0
VERTEX
8
CUT
10
0.0029
20
0.0029
0
VERTEX
8
CUT
10
0.0006
20
0.0501
0
VERTEX
8
CUT
10
0.0000
20
0.0614
0
VERTEX
8
CUT
10
0.0000
20
299.9386
0
VERTEX
8
CUT
10
0.0006
20
299.9499
0
VERTEX
8
CUT
10
0.0029
20
299.9971
0
VERTEX
8
CUT
10
0.0501
20
299.9994
0
VERTEX
8
CUT
10
0.0614
20
300.0000
0
VERTEX
8
CUT
10
299.9021
20
300.0000
0
VERTEX
8
CUT
10
299.9192
20
299.9992
0
VERTEX
8
CUT
10
299.9606
20
299.9971
0
VERTEX
8
CUT
10
299.9634
20
299.9386
0
SEQEND
0
POLYLINE
8
CUT
66
1
70
1
10
0.0
20
0.0
30
0.0
0
VERTEX
8
CUT
10
8.7962
20
100.7220
0
VERTEX
8
CUT
10
8.9408
20
100.5291
0
VERTEX
8
CUT
10
9.1033
20
100.3510
0
VERTEX
8
CUT
10
9.2822
20
100.1894
0
VERTEX
8
CUT
10
9.4758
20
100.0457
0
VERTEX
8
CUT
10
9.6824
20
99.9214
0
VERTEX
8
CUT
10
9.9000
20
99.8175
0
VERTEX
8
CUT
10
10.1266
20
99.7351
0
VERTEX
8
CUT
10
10.3600
20
99.6749
0
VERTEX
8
CUT
10
10.5982
20
99.6375
0
VERTEX
8
CUT
10
10.8389
20
99.6232
0
VERTEX
8
CUT
10
11.0798
20
99.6321
0
VERTEX
8
CUT
10
11.3188
20
99.6642
0
VERTEX
8
CUT
10
11.5535
20
99.7192
0
VERTEX
8
CUT
10
11.7819
20
99.7965
0
VERTEX
8
CUT
10
12.0017
20
99.8955
0
VERTEX
8
CUT
10
12.2110
20
100.0151
0
VERTEX
8
CUT
10
12.4078
20
100.1544
0
VERTEX
8
CUT
10
16.6634
20
103.4857
0
VERTEX
8
CUT
10
16.6976
20
103.5115
0
VERTEX
8
CUT
10
16.7326
20
103.5360
0
VERTEX
8
CUT
10
23.9617
20
108.4017
0
VERTEX
8
CUT
10
24.0380
20
108.4551
0
VERTEX
8
CUT
10
30.0721
20
112.8515
0
VERTEX
8
CUT
10
30.2098
20
112.9594
0
VERTEX
8
CUT
10
41.2862
20
122.2828
0
VERTEX
8
CUT
10
41.2990
20
122.2934
0
VERTEX
8
CUT
10
41.3269
20
122.3156
0
VERTEX
8
CUT
10
47.4523
20
127.0610
0
VERTEX
8
CUT
10
47.4913
20
127.0899
0
VERTEX
8
CUT
10
47.5314
20
127.1173
0
VERTEX
8
CUT
10
52.1706
20
130.1411
0
VERTEX
8
CUT
10
52.2382
20
130.1820
0
VERTEX
8
CUT
10
52.3084
20
130.2184
0
VERTEX
8
CUT
10
58.5984
20
133.2172
0
VERTEX
8
CUT
10
58.6141
20
133.2243
0
VERTEX
8
CUT
10
58.6489
20
133.2371
0
VERTEX
8
CUT
10
58.6860
20
133.2399
0
VERTEX
8
CUT
10
58.7027
20
133.2400
0
VERTEX
8
CUT
10
59.5099
20
133.2272
0
VERTEX
8
CUT
10
59.5288
20
133.2264
0
VERTEX
8
CUT
10
59.5686
20
133.2217
0
VERTEX
8
CUT
10
59.5922
20
133.1892
0
VERTEX
8
CUT
10
59.6021
20
133.1730
0
VERTEX
8
CUT
10
60.0446
20
132.4086
0
VERTEX
8
CUT
10
60.0529
20
132.3934
0
VERTEX
8
CUT
10
60.0683
20
132.3599
0
VERTEX
8
CUT
10
60.0601
20
132.3240
0
VERTEX
8
CUT
10
60.0551
20
132.3074
0
VERTEX
8
CUT
10
57.9923
20
126.0118
0
VERTEX
8
CUT
10
57.9421
20
125.8374
0
VERTEX
8
CUT
10
57.4567
20
123.8878
0
VERTEX
8
CUT
10
57.4132
20
123.6734
0
VERTEX
8
CUT
10
57.3886
20
123.4560
0
VERTEX
8
CUT
10
57.3624
20
123.0764
0
VERTEX
8
CUT
10
57.3414
20
122.7727
0
VERTEX
8
CUT
10
57.3397
20
122.7541
0
VERTEX
8
CUT
10
57.3329
20
122.7146
0
VERTEX
8
CUT
10
57.3185
20
122.6772
0
VERTEX
8
CUT
10
57.3105
20
122.6603
0
VERTEX
8
CUT
10
57.1103
20
122.2639
0
VERTEX
8
CUT
10
57.0987
20
122.2410
0
VERTEX
8
CUT
10
57.0560
20
122.1564
0
VERTEX
8
CUT
10
56.9659
20
121.9567
0
VERTEX
8
CUT
10
56.8936
20
121.7498
0
VERTEX
8
CUT
10
56.8397
20
121.5374
0
VERTEX
8
CUT
10
56.8046
20
121.3211
0
VERTEX
8
CUT
10
56.6865
20
120.3158
0
VERTEX
8
CUT
10
56.6829
20
120.3063
0
VERTEX
8
CUT
10
56.6203
20
120.0840
0
VERTEX
8
CUT
10
56.5786
20
119.8569
0
VERTEX
8
CUT
10
56.5580
20
119.6269
0
VERTEX
8
CUT
10
56.5312
20
119.0067
0
VERTEX
8
CUT
10
56.5300
20
118.9895
0
VERTEX
8
CUT
10
56.5250
20
118.9526
0
VERTEX
8
CUT
10
56.5134
20
118.9176
0
VERTEX
8
CUT
10
56.5068
20
118.9014
0
VERTEX
8
CUT
10
56.4290
20
118.7234
0
VERTEX
8
CUT
10
56.3509
20
118.5210
0
VERTEX
8
CUT
10
56.2906
20
118.3126
0
VERTEX
8
CUT
10
56.2486
20
118.0998
0
VERTEX
8
CUT
10
56.1284
20
117.3120
0
VERTEX
8
CUT
10
56.1009
20
117.2004
0
VERTEX
8
CUT
10
56.0461
20
116.9005
0
VERTEX
8
CUT
10
56.0315
20
116.6527
0
VERTEX
8
CUT
10
56.0199
20
116.5501
0
VERTEX
8
CUT
10
56.0132
20
116.3551
0
VERTEX
8
CUT
10
56.0399
20
110.7591
0
VERTEX
8
CUT
10
56.0529
20
110.5159
0
VERTEX
8
CUT
10
56.0895
20
110.2751
0
VERTEX
8
CUT
10
56.1494
20
110.0391
0
VERTEX
8
CUT
10
56.1503
20
110.0359
0
VERTEX
8
CUT
10
56.4934
20
108.9154
0
VERTEX
8
CUT
10
56.5124
20
108.8462
0
VERTEX
8
CUT
10
56.5146
20
108.8354
0
VERTEX
8
CUT
10
56.5271
20
108.7759
0
VERTEX
8
CUT
10
57.0908
20
105.6193
0
VERTEX
8
CUT
10
57.1392
20
105.4036
0
VERTEX
8
CUT
10
57.2066
20
105.1930
0
VERTEX
8
CUT
10
58.4966
20
101.6986
0
VERTEX
8
CUT
10
58.7464
20
100.3725
0
VERTEX
8
CUT
10
58.7613
20
100.1388
0
VERTEX
8
CUT
10
58.7617
20
100.1257
0
VERTEX
8
CUT
10
58.1433
20
96.7680
0
VERTEX
8
CUT
10
58.0096
20
96.0418
0
VERTEX
8
CUT
10
57.8978
20
95.4349
0
VERTEX
8
CUT
10
57.8648
20
95.2557
0
VERTEX
8
CUT
10
57.8630
20
95.2516
0
VERTEX
8
CUT
10
57.8639
20
95.2512
0
VERTEX
8
CUT
10
57.8629
20
95.2456
0
VERTEX
8
CUT
10
57.7972
20
95.0891
0
VERTEX
8
CUT
10
57.7260
20
94.8599
0
VERTEX
8
CUT
10
57.6770
20
94.6250
0
VERTEX
8
CUT
10
57.6509
20
94.3864
0
VERTEX
8
CUT
10
57.6276
20
94.0070
0
VERTEX
8
CUT
10
57.6260
20
93.9886
0
VERTEX
8
CUT
10
57.6197
20
93.9495
0
VERTEX
8
CUT
10
57.5992
20
93.8944
0
VERTEX
8
CUT
10
57.5290
20
93.7202
0
VERTEX
8
CUT
10
57.5225
20
93.7041
0
VERTEX
8
CUT
10
57.5224
20
93.7038
0
VERTEX
8
CUT
10
57.5212
20
93.7009
0
VERTEX
8
CUT
10
57.4572
20
93.4845
0
VERTEX
8
CUT
10
57.4542
20
93.4746
0
VERTEX
8
CUT
10
57.4542
20
93.4744
0
VERTEX
8
CUT
10
57.4536
20
93.4725
0
VERTEX
8
CUT
10
57.4081
20
93.2387
0
VERTEX
8
CUT
10
57.3850
20
93.0016
0
VERTEX
8
CUT
10
57.3694
20
92.6853
0
VERTEX
8
CUT
10
57.3534
20
92.3628
0
VERTEX
8
CUT
10
57.3533
20
92.3601
0
VERTEX
8
CUT
10
57.3531
20
92.3575
0
VERTEX
8
CUT
10
57.3465
20
92.3072
0
VERTEX
8
CUT
10
57.3407
20
92.2816
0
VERTEX
8
CUT
10
57.3342
20
92.2590
0
VERTEX
8
CUT
10
56.9224
20
90.9520
0
VERTEX
8
CUT
10
56.8792
20
90.7903
0
VERTEX
8
CUT
10
56.8657
20
90.7400
0
VERTEX
8
CUT
10
56.8278
20
90.5238
0
VERTEX
8
CUT
10
56.5259
20
88.2073
0
VERTEX
8
CUT
10
56.5138
20
88.1328
0
VERTEX
8
CUT
10
56.5074
20
88.1046
0
VERTEX
8
CUT
10
56.4970
20
88.0592
0
VERTEX
8
CUT
10
55.7960
20
85.3844
0
VERTEX
8
CUT
10
55.7554
20
85.2018
0
VERTEX
8
CUT
10
55.7286
20
85.0168
0
VERTEX
8
CUT
10
55.4197
20
82.1320
0
VERTEX
8
CUT
10
55.4191
20
82.1273
0
VERTEX
8
CUT
10
55.4063
20
82.0563
0
VERTEX
8
CUT
10
55.4025
20
82.0403
0
VERTEX
8
CUT
10
54.9868
20
80.4538
0
VERTEX
8
CUT
10
54.9307
20
80.1765
0
VERTEX
8
CUT
10
54.9063
20
79.8946
0
VERTEX
8
CUT
10
54.8815
20
79.0623
0
VERTEX
8
CUT
10
54.8572
20
78.2467
0
VERTEX
8
CUT
10
54.8564
20
78.2299
0
VERTEX
8
CUT
10
54.8520
20
78.1938
0
VERTEX
8
CUT
10
54.8445
20
78.1581
0
VERTEX
8
CUT
10
54.8400
20
78.1424
0
VERTEX
8
CUT
10
54.8239
20
78.0901
0
VERTEX
8
CUT
10
54.4412
20
76.8458
0
VERTEX
8
CUT
10
54.4209
20
76.7641
0
VERTEX
8
CUT
10
54.3750
20
76.5793
0
VERTEX
8
CUT
10
54.3384
20
76.3071
0
VERTEX
8
CUT
10
54.1473
20
73.8805
0
VERTEX
8
CUT
10
54.0380
20
72.4920
0
VERTEX
8
CUT
10
54.0362
20
72.4746
0
VERTEX
8
CUT
10
54.0297
20
72.4373
0
VERTEX
8
CUT
10
54.0198
20
72.4008
0
VERTEX
8
CUT
10
54.0140
20
72.3842
0
VERTEX
8
CUT
10
53.9927
20
72.3274
0
VERTEX
8
CUT
10
53.9526
20
72.2206
0
VERTEX
8
CUT
10
53.9117
20
72.0896
0
VERTEX
8
CUT
10
53.8686
20
71.9519
0
VERTEX
8
CUT
10
53.8415
20
71.8109
0
VERTEX
8
CUT
10
53.8155
20
71.6754
0
VERTEX
8
CUT
10
53.8043
20
71.5319
0
VERTEX
8
CUT
10
53.7937
20
71.3947
0
VERTEX
8
CUT
10
53.7590
20
69.7479
0
VERTEX
8
CUT
10
53.7581
20
69.7286
0
VERTEX
8
CUT
10
53.7530
20
69.6874
0
VERTEX
8
CUT
10
53.7436
20
69.6470
0
VERTEX
8
CUT
10
53.7379
20
69.6286
0
VERTEX
8
CUT
10
53.6603
20
69.4014
0
VERTEX
8
CUT
10
53.5880
20
69.1462
0
VERTEX
8
CUT
10
53.5775
20
69.0854
0
VERTEX
8
CUT
10
53.5699
20
69.0566
0
VERTEX
8
CUT
10
53.5317
20
68.8342
0
VERTEX
8
CUT
10
53.5138
20
68.6093
0
VERTEX
8
CUT
10
53.3458
20
63.7240
0
VERTEX
8
CUT
10
53.2220
20
62.4524
0
VERTEX
8
CUT
10
53.2106
20
62.1640
0
VERTEX
8
CUT
10
53.2391
20
60.6199
0
VERTEX
8
CUT
10
53.2353
20
60.5085
0
VERTEX
8
CUT
10
53.2368
20
60.2995
0
VERTEX
8
CUT
10
53.2471
20
60.1873
0
VERTEX
8
CUT
10
53.2544
20
59.7925
0
VERTEX
8
CUT
10
53.2693
20
59.5620
0
VERTEX
8
CUT
10
53.4828
20
57.6434
0
VERTEX
8
CUT
10
53.5213
20
57.4039
0
VERTEX
8
CUT
10
53.5828
20
57.1693
0
VERTEX
8
CUT
10
53.6668
20
56.9417
0
VERTEX
8
CUT
10
53.6813
20
56.9076
0
VERTEX
8
CUT
10
53.7002
20
56.7665
0
VERTEX
8
CUT
10
53.7101
20
56.6919
0
VERTEX
8
CUT
10
53.7194
20
56.6227
0
VERTEX
8
CUT
10
53.7752
20
56.2051
0
VERTEX
8
CUT
10
53.7817
20
56.0597
0
VERTEX
8
CUT
10
53.8033
20
55.8252
0
VERTEX
8
CUT
10
53.8469
20
55.5937
0
VERTEX
8
CUT
10
53.8656
20
55.5288
0
VERTEX
8
CUT
10
54.0600
20
54.0739
0
VERTEX
8
CUT
10
54.1253
20
53.7503
0
VERTEX
8
CUT
10
54.2722
20
53.2089
0
VERTEX
8
CUT
10
54.3352
20
52.7251
0
VERTEX
8
CUT
10
54.3780
20
52.4872
0
VERTEX
8
CUT
10
54.4436
20
52.2545
0
VERTEX
8
CUT
10
54.8840
20
50.9392
0
VERTEX
8
CUT
10
55.0208
20
50.6104
0
VERTEX
8
CUT
10
56.2277
20
48.2088
0
VERTEX
8
CUT
10
56.3263
20
48.0310
0
VERTEX
8
CUT
10
56.4391
20
47.8618
0
VERTEX
8
CUT
10
56.9529
20
47.1547
0
VERTEX
8
CUT
10
57.0685
20
47.0075
0
VERTEX
8
CUT
10
57.1948
20
46.8694
0
VERTEX
8
CUT
10
58.4773
20
45.5682
0
VERTEX
8
CUT
10
58.7401
20
45.3366
0
VERTEX
8
CUT
10
59.6572
20
44.6359
0
VERTEX
8
CUT
10
59.8447
20
44.5058
0
VERTEX
8
CUT
10
60.0432
20
44.3933
0
VERTEX
8
CUT
10
60.2512
20
44.2994
0
VERTEX
8
CUT
10
60.4387
20
44.2248
0
VERTEX
8
CUT
10
60.4932
20
44.1966
0
VERTEX
8
CUT
10
60.7111
20
44.1084
0
VERTEX
8
CUT
10
60.7935
20
44.0838
0
VERTEX
8
CUT
10
61.1303
20
43.9498
0
VERTEX
8
CUT
10
61.3210
20
43.8828
0
VERTEX
8
CUT
10
61.5164
20
43.8314
0
VERTEX
8
CUT
10
63.5899
20
43.3748
0
VERTEX
8
CUT
10
63.8516
20
43.3315
0
VERTEX
8
CUT
10
64.1165
20
43.3163
0
VERTEX
8
CUT
10
64.1502
20
43.3161
0
VERTEX
8
CUT
10
64.6498
20
43.3139
0
VERTEX
8
CUT
10
64.8175
20
43.3216
0
VERTEX
8
CUT
10
64.9000
20
43.3253
0
VERTEX
8
CUT
10
65.1478
20
43.3618
0
VERTEX
8
CUT
10
65.3515
20
43.4129
0
VERTEX
8
CUT
10
65.3907
20
43.4228
0
VERTEX
8
CUT
10
65.4570
20
43.4467
0
VERTEX
8
CUT
10
65.6263
20
43.5078
0
VERTEX
8
CUT
10
65.6509
20
43.5181
0
VERTEX
8
CUT
10
65.6672
20
43.5245
0
VERTEX
8
CUT
10
65.7033
20
43.5358
0
VERTEX
8
CUT
10
65.7355
20
43.5426
0
VERTEX
8
CUT
10
65.7403
20
43.5436
0
VERTEX
8
CUT
10
65.7577
20
43.5461
0
VERTEX
8
CUT
10
65.9438
20
43.5678
0
VERTEX
8
CUT
10
68.3348
20
43.8466
0
VERTEX
8
CUT
10
68.5338
20
43.8780
0
VERTEX
8
CUT
10
68.7297
20
43.9253
0
VERTEX
8
CUT
10
70.3881
20
44.3974
0
VERTEX
8
CUT
10
70.6325
20
44.4808
0
VERTEX
8
CUT
10
72.6043
20
45.2699
0
VERTEX
8
CUT
10
73.2314
20
45.5209
0
VERTEX
8
CUT
10
73.4223
20
45.6067
0
VERTEX
8
CUT
10
77.0321
20
47.4152
0
VERTEX
8
CUT
10
77.2562
20
47.5423
0
VERTEX
8
CUT
10
79.1999
20
48.7814
0
VERTEX
8
CUT
10
83.1964
20
51.3292
0
VERTEX
8
CUT
10
83.3374
20
51.4260
0
VERTEX
8
CUT
10
88.5253
20
55.2561
0
VERTEX
8
CUT
10
88.6328
20
55.3401
0
VERTEX
8
CUT
10
99.7104
20
64.4929
0
VERTEX
8
CUT
10
99.8075
20
64.5774
0
VERTEX
8
CUT
10
103.4296
20
67.8982
0
VERTEX
8
CUT
10
104.3613
20
68.7524
0
VERTEX
8
CUT
10
104.4245
20
68.8064
0
VERTEX
8
CUT
10
104.4913
20
68.8559
0
VERTEX
8
CUT
10
105.3281
20
69.4314
0
VERTEX
8
CUT
10
105.4727
20
69.5423
0
VERTEX
8
CUT
10
105.5348
20
69.5900
0
VERTEX
8
CUT
10
105.7239
20
69.7694
0
VERTEX
8
CUT
10
105.8933
20
69.9674
0
VERTEX
8
CUT
10
106.0987
20
70.2345
0
VERTEX
8
CUT
10
106.1091
20
70.2475
0
VERTEX
8
CUT
10
106.1097
20
70.2481
0
VERTEX
8
CUT
10
106.1334
20
70.2738
0
VERTEX
8
CUT
10
106.1619
20
70.2955
0
VERTEX
8
CUT
10
106.1758
20
70.3046
0
VERTEX
8
CUT
10
107.2891
20
71.0031
0
VERTEX
8
CUT
10
107.5095
20
71.1585
0
VERTEX
8
CUT
10
111.1637
20
74.0431
0
VERTEX
8
CUT
10
111.1648
20
74.0440
0
VERTEX
8
CUT
10
111.3131
20
74.1707
0
VERTEX
8
CUT
10
113.4108
20
76.1103
0
VERTEX
8
CUT
10
113.4194
20
76.1159
0
VERTEX
8
CUT
10
113.4403
20
76.1277
0
VERTEX
8
CUT
10
114.1131
20
76.4850
0
VERTEX
8
CUT
10
114.2837
20
76.5844
0
VERTEX
8
CUT
10
114.4459
20
76.6970
0
VERTEX
8
CUT
10
115.8379
20
77.7467
0
VERTEX
8
CUT
10
116.8844
20
78.4472
0
VERTEX
8
CUT
10
117.4340
20
78.8151
0
VERTEX
8
CUT
10
117.5029
20
78.8428
0
VERTEX
8
CUT
10
117.5309
20
78.8541
0
VERTEX
8
CUT
10
117.8090
20
78.9661
0
VERTEX
8
CUT
10
117.9937
20
79.0405
0
VERTEX
8
CUT
10
118.2119
20
79.0909
0
VERTEX
8
CUT
10
119.0641
20
79.2878
0
VERTEX
8
CUT
10
119.2607
20
79.3023
0
VERTEX
8
CUT
10
119.4891
20
79.3298
0
VERTEX
8
CUT
10
119.7141
20
79.3782
0
VERTEX
8
CUT
10
121.3558
20
79.8110
0
VERTEX
8
CUT
10
121.3889
20
79.8150
0
VERTEX
8
CUT
10
121.4089
20
79.8158
0
VERTEX
8
CUT
10
122.8671
20
79.8371
0
VERTEX
8
CUT
10
122.9503
20
79.8378
0
VERTEX
8
CUT
10
122.9618
20
79.8376
0
VERTEX
8
CUT
10
122.9927
20
79.8352
0
VERTEX
8
CUT
10
123.0277
20
79.8260
0
VERTEX
8
CUT
10
123.0441
20
79.8205
0
VERTEX
8
CUT
10
123.2872
20
79.7322
0
VERTEX
8
CUT
10
123.5301
20
79.6577
0
VERTEX
8
CUT
10
123.7794
20
79.6083
0
VERTEX
8
CUT
10
124.0323
20
79.5844
0
VERTEX
8
CUT
10
124.0379
20
79.5842
0
VERTEX
8
CUT
10
124.0820
20
79.5823
0
VERTEX
8
CUT
10
124.2596
20
79.5746
0
VERTEX
8
CUT
10
124.3068
20
79.5725
0
VERTEX
8
CUT
10
124.3385
20
79.5712
0
VERTEX
8
CUT
10
124.7266
20
79.5544
0
VERTEX
8
CUT
10
124.7468
20
79.5529
0
VERTEX
8
CUT
10
124.7515
20
79.5522
0
VERTEX
8
CUT
10
124.8334
20
79.5397
0
VERTEX
8
CUT
10
124.8345
20
79.5395
0
VERTEX
8
CUT
10
124.8531
20
79.5351
0
VERTEX
8
CUT
10
125.3968
20
79.3910
0
VERTEX
8
CUT
10
126.4750
20
79.1052
0
VERTEX
8
CUT
10
126.7167
20
79.0538
0
VERTEX
8
CUT
10
126.8835
20
79.0353
0
VERTEX
8
CUT
10
126.9623
20
79.0265
0
VERTEX
8
CUT
10
127.3406
20
79.0033
0
VERTEX
8
CUT
10
127.5821
20
78.9885
0
VERTEX
8
CUT
10
127.5904
20
78.9878
0
VERTEX
8
CUT
10
127.5997
20
78.9870
0
VERTEX
8
CUT
10
127.6371
20
78.9811
0
VERTEX
8
CUT
10
127.6383
20
78.9807
0
VERTEX
8
CUT
10
127.6396
20
78.9802
0
VERTEX
8
CUT
10
127.6406
20
78.9799
0
VERTEX
8
CUT
10
127.6418
20
78.9794
0
VERTEX
8
CUT
10
127.6425
20
78.9792
0
VERTEX
8
CUT
10
127.6508
20
78.9762
0
VERTEX
8
CUT
10
127.6727
20
78.9684
0
VERTEX
8
CUT
10
127.6889
20
78.9613
0
VERTEX
8
CUT
10
127.7154
20
78.9489
0
VERTEX
8
CUT
10
127.9778
20
78.8439
0
VERTEX
8
CUT
10
128.2504
20
78.7692
0
VERTEX
8
CUT
10
128.3934
20
78.7470
0
VERTEX
8
CUT
10
128.5297
20
78.7258
0
VERTEX
8
CUT
10
130.9652
20
78.4869
0
VERTEX
8
CUT
10
131.4150
20
78.4428
0
VERTEX
8
CUT
10
131.4204
20
78.4421
0
VERTEX
8
CUT
10
131.4717
20
78.4327
0
VERTEX
8
CUT
10
131.4977
20
78.4255
0
VERTEX
8
CUT
10
131.5206
20
78.4175
0
VERTEX
8
CUT
10
132.3934
20
78.0880
0
VERTEX
8
CUT
10
132.6504
20
78.0065
0
VERTEX
8
CUT
10
132.9147
20
77.9532
0
VERTEX
8
CUT
10
133.1832
20
77.9286
0
VERTEX
8
CUT
10
134.0261
20
77.8972
0
VERTEX
8
CUT
10
134.1301
20
77.8933
0
VERTEX
8
CUT
10
134.1471
20
77.8923
0
VERTEX
8
CUT
10
134.1834
20
77.8876
0
VERTEX
8
CUT
10
134.2179
20
77.8766
0
VERTEX
8
CUT
10
134.2338
20
77.8703
0
VERTEX
8
CUT
10
134.2956
20
77.8442
0
VERTEX
8
CUT
10
134.3457
20
77.8257
0
VERTEX
8
CUT
10
134.5082
20
77.7656
0
VERTEX
8
CUT
10
134.6693
20
77.7222
0
VERTEX
8
CUT
10
134.7270
20
77.7066
0
VERTEX
8
CUT
10
134.9503
20
77.6677
0
VERTEX
8
CUT
10
135.1761
20
77.6491
0
VERTEX
8
CUT
10
136.0558
20
77.6168
0
VERTEX
8
CUT
10
136.0768
20
77.6154
0
VERTEX
8
CUT
10
136.1216
20
77.6087
0
VERTEX
8
CUT
10
136.1653
20
77.5970
0
VERTEX
8
CUT
10
136.1851
20
77.5899
0
VERTEX
8
CUT
10
136.2604
20
77.5604
0
VERTEX
8
CUT
10
136.4683
20
77.4893
0
VERTEX
8
CUT
10
136.6816
20
77.4368
0
VERTEX
8
CUT
10
136.8988
20
77.4032
0
VERTEX
8
CUT
10
136.9320
20
77.4010
0
VERTEX
8
CUT
10
136.9335
20
77.4008
0
VERTEX
8
CUT
10
136.9434
20
77.4002
0
VERTEX
8
CUT
10
137.1180
20
77.3887
0
VERTEX
8
CUT
10
141.9852
20
77.2830
0
VERTEX
8
CUT
10
142.1366
20
77.2524
0
VERTEX
8
CUT
10
142.1392
20
77.2503
0
VERTEX
8
CUT
10
142.1537
20
77.2373
0
VERTEX
8
CUT
10
142.5858
20
76.8295
0
VERTEX
8
CUT
10
142.5991
20
76.8163
0
VERTEX
8
CUT
10
142.6252
20
76.7862
0
VERTEX
8
CUT
10
142.6294
20
76.7466
0
VERTEX
8
CUT
10
142.6300
20
76.7280
0
VERTEX
8
CUT
10
142.6334
20
76.2442
0
VERTEX
8
CUT
10
142.6331
20
76.2270
0
VERTEX
8
CUT
10
142.6299
20
76.1903
0
VERTEX
8
CUT
10
142.6106
20
76.1586
0
VERTEX
8
CUT
10
142.6009
20
76.1450
0
VERTEX
8
CUT
10
139.7836
20
72.3689
0
VERTEX
8
CUT
10
139.6312
20
72.1391
0
VERTEX
8
CUT
10
137.8588
20
69.1186
0
VERTEX
8
CUT
10
137.7583
20
68.9290
0
VERTEX
8
CUT
10
137.6743
20
68.7315
0
VERTEX
8
CUT
10
136.1454
20
64.6557
0
VERTEX
8
CUT
10
136.0752
20
64.4390
0
VERTEX
8
CUT
10
136.0250
20
64.2167
0
VERTEX
8
CUT
10
135.5754
20
61.6962
0
VERTEX
8
CUT
10
135.5466
20
61.4813
0
VERTEX
8
CUT
10
135.5365
20
61.2647
0
VERTEX
8
CUT
10
135.5243
20
57.2301
0
VERTEX
8
CUT
10
135.5350
20
56.9915
0
VERTEX
8
CUT
10
135.5684
20
56.7550
0
VERTEX
8
CUT
10
136.0168
20
54.3999
0
VERTEX
8
CUT
10
136.0727
20
54.1677
0
VERTEX
8
CUT
10
136.1504
20
53.9419
0
VERTEX
8
CUT
10
137.0819
20
51.6047
0
VERTEX
8
CUT
10
137.1807
20
51.3876
0
VERTEX
8
CUT
10
137.2997
20
51.1808
0
VERTEX
8
CUT
10
139.0416
20
48.4644
0
VERTEX
8
CUT
10
139.2279
20
48.2106
0
VERTEX
8
CUT
10
140.7196
20
46.4258
0
VERTEX
8
CUT
10
140.8661
20
46.2653
0
VERTEX
8
CUT
10
141.0260
20
46.1181
0
VERTEX
8
CUT
10
142.9022
20
44.5356
0
VERTEX
8
CUT
10
143.0463
20
44.4228
0
VERTEX
8
CUT
10
144.7901
20
43.1582
0
VERTEX
8
CUT
10
145.0690
20
42.9828
0
VERTEX
8
CUT
10
148.3273
20
41.2214
0
VERTEX
8
CUT
10
148.5022
20
41.1355
0
VERTEX
8
CUT
10
148.6833
20
41.0635
0
VERTEX
8
CUT
10
152.9815
20
39.5447
0
VERTEX
8
CUT
10
153.2713
20
39.4616
0
VERTEX
8
CUT
10
153.5690
20
39.4140
0
VERTEX
8
CUT
10
153.9228
20
39.3791
0
VERTEX
8
CUT
10
153.9409
20
39.3769
0
VERTEX
8
CUT
10
154.0181
20
39.3616
0
VERTEX
8
CUT
10
154.0357
20
39.3568
0
VERTEX
8
CUT
10
157.1607
20
38.4174
0
VERTEX
8
CUT
10
157.4490
20
38.3490
0
VERTEX
8
CUT
10
157.7435
20
38.3153
0
VERTEX
8
CUT
10
158.2715
20
38.2863
0
VERTEX
8
CUT
10
158.2892
20
38.2849
0
VERTEX
8
CUT
10
158.3650
20
38.2735
0
VERTEX
8
CUT
10
158.3824
20
38.2696
0
VERTEX
8
CUT
10
160.5507
20
37.7307
0
VERTEX
8
CUT
10
160.6264
20
37.7092
0
VERTEX
8
CUT
10
160.7006
20
37.6828
0
VERTEX
8
CUT
10
161.6860
20
37.2939
0
VERTEX
8
CUT
10
162.0275
20
37.1868
0
VERTEX
8
CUT
10
164.5025
20
36.6006
0
VERTEX
8
CUT
10
164.5075
20
36.5993
0
VERTEX
8
CUT
10
164.5545
20
36.5842
0
VERTEX
8
CUT
10
164.5781
20
36.5743
0
VERTEX
8
CUT
10
164.5987
20
36.5641
0
VERTEX
8
CUT
10
165.2270
20
36.2355
0
VERTEX
8
CUT
10
165.4443
20
36.1348
0
VERTEX
8
CUT
10
165.6703
20
36.0554
0
VERTEX
8
CUT
10
167.5543
20
35.4928
0
VERTEX
8
CUT
10
167.5588
20
35.4914
0
VERTEX
8
CUT
10
167.6263
20
35.4659
0
VERTEX
8
CUT
10
167.6413
20
35.4593
0
VERTEX
8
CUT
10
172.2728
20
33.2807
0
VERTEX
8
CUT
10
172.3335
20
33.2500
0
VERTEX
8
CUT
10
172.3923
20
33.2159
0
VERTEX
8
CUT
10
175.9642
20
31.0071
0
VERTEX
8
CUT
10
176.0174
20
30.9723
0
VERTEX
8
CUT
10
176.0686
20
30.9346
0
VERTEX
8
CUT
10
179.5598
20
28.2219
0
VERTEX
8
CUT
10
179.6075
20
28.1828
0
VERTEX
8
CUT
10
179.6531
20
28.1413
0
VERTEX
8
CUT
10
181.7283
20
26.1527
0
VERTEX
8
CUT
10
181.7408
20
26.1405
0
VERTEX
8
CUT
10
181.7672
20
26.1138
0
VERTEX
8
CUT
10
183.7540
20
24.0404
0
VERTEX
8
CUT
10
183.7954
20
23.9948
0
VERTEX
8
CUT
10
183.8344
20
23.9473
0
VERTEX
8
CUT
10
186.5372
20
20.4708
0
VERTEX
8
CUT
10
186.5622
20
20.4374
0
VERTEX
8
CUT
10
186.5860
20
20.4032
0
VERTEX
8
CUT
10
188.2689
20
17.8946
0
VERTEX
8
CUT
10
188.2972
20
17.8503
0
VERTEX
8
CUT
10
188.3235
20
17.8049
0
VERTEX
8
CUT
10
189.9523
20
14.8428
0
VERTEX
8
CUT
10
189.9703
20
14.8088
0
VERTEX
8
CUT
10
189.9872
20
14.7743
0
VERTEX
8
CUT
10
192.1521
20
10.1548
0
VERTEX
8
CUT
10
192.1788
20
10.0934
0
VERTEX
8
CUT
10
192.2020
20
10.0307
0
VERTEX
8
CUT
10
192.2151
20
9.9919
0
VERTEX
8
CUT
10
192.3042
20
9.7654
0
VERTEX
8
CUT
10
192.4148
20
9.5487
0
VERTEX
8
CUT
10
192.5459
20
9.3438
0
VERTEX
8
CUT
10
192.6964
20
9.1526
0
VERTEX
8
CUT
10
192.8647
20
8.9770
0
VERTEX
8
CUT
10
193.0493
20
8.8185
0
VERTEX
8
CUT
10
193.2485
20
8.6787
0
VERTEX
8
CUT
10
193.4603
20
8.5589
0
VERTEX
8
CUT
10
193.6827
20
8.4603
0
VERTEX
8
CUT
10
193.9136
20
8.3838
0
VERTEX
8
CUT
10
194.1509
20
8.3301
0
VERTEX
8
CUT
10
194.3923
20
8.2997
0
VERTEX
8
CUT
10
194.6355
20
8.2930
0
VERTEX
8
CUT
10
206.5513
20
8.5411
0
VERTEX
8
CUT
10
206.6334
20
8.5441
0
VERTEX
8
CUT
10
224.1097
20
9.4829
0
VERTEX
8
CUT
10
224.2091
20
9.4902
0
VERTEX
8
CUT
10
231.9124
20
10.2129
0
VERTEX
8
CUT
10
232.0034
20
10.2231
0
VERTEX
8
CUT
10
239.0775
20
11.1493
0
VERTEX
8
CUT
10
239.1919
20
11.1669
0
VERTEX
8
CUT
10
245.6453
20
12.3179
0
VERTEX
8
CUT
10
245.7865
20
12.3473
0
VERTEX
8
CUT
10
251.6423
20
13.7441
0
VERTEX
8
CUT
10
251.8131
20
13.7913
0
VERTEX
8
CUT
10
252.9737
20
14.1568
0
VERTEX
8
CUT
10
253.2040
20
14.2419
0
VERTEX
8
CUT
10
253.4248
20
14.3492
0
VERTEX
8
CUT
10
253.6339
20
14.4777
0
VERTEX
8
CUT
10
253.8295
20
14.6260
0
VERTEX
8
CUT
10
254.0096
20
14.7928
0
VERTEX
8
CUT
10
254.1725
20
14.9765
0
VERTEX
8
CUT
10
254.3166
20
15.1752
0
VERTEX
8
CUT
10
254.4404
20
15.3872
0
VERTEX
8
CUT
10
254.5429
20
15.6102
0
VERTEX
8
CUT
10
254.6231
20
15.8422
0
VERTEX
8
CUT
10
254.6801
20
16.0810
0
VERTEX
8
CUT
10
254.7134
20
16.3242
0
VERTEX
8
CUT
10
254.7227
20
16.5695
0
VERTEX
8
CUT
10
254.7079
20
16.8145
0
VERTEX
8
CUT
10
254.6691
20
17.0569
0
VERTEX
8
CUT
10
254.6067
20
17.2943
0
VERTEX
8
CUT
10
254.5214
20
17.5245
0
VERTEX
8
CUT
10
254.4139
20
17.7452
0
VERTEX
8
CUT
10
254.2853
20
17.9542
0
VERTEX
8
CUT
10
254.1368
20
18.1497
0
VERTEX
8
CUT
10
253.9698
20
18.3297
0
VERTEX
8
CUT
10
253.7860
20
18.4924
0
VERTEX
8
CUT
10
253.5871
20
18.6363
0
VERTEX
8
CUT
10
250.0529
20
20.9380
0
VERTEX
8
CUT
10
249.8793
20
21.0413
0
VERTEX
8
CUT
10
246.4476
20
22.9001
0
VERTEX
8
CUT
10
246.3099
20
22.9693
0
VERTEX
8
CUT
10
242.3320
20
24.8167
0
VERTEX
8
CUT
10
242.2078
20
24.8704
0
VERTEX
8
CUT
10
239.5369
20
25.9393
0
VERTEX
8
CUT
10
239.3699
20
25.9993
0
VERTEX
8
CUT
10
232.5947
20
28.1670
0
VERTEX
8
CUT
10
232.4385
20
28.2115
0
VERTEX
8
CUT
10
227.1848
20
29.5232
0
VERTEX
8
CUT
10
226.9522
20
29.5697
0
VERTEX
8
CUT
10
226.7161
20
29.5939
0
VERTEX
8
CUT
10
226.1275
20
29.6262
0
VERTEX
8
CUT
10
226.1101
20
29.6276
0
VERTEX
8
CUT
10
226.0730
20
29.6331
0
VERTEX
8
CUT
10
226.0376
20
29.6453
0
VERTEX
8
CUT
10
226.0216
20
29.6522
0
VERTEX
8
CUT
10
225.9971
20
29.6633
0
VERTEX
8
CUT
10
225.7814
20
29.7495
0
VERTEX
8
CUT
10
225.5586
20
29.8153
0
VERTEX
8
CUT
10
225.3307
20
29.8601
0
VERTEX
8
CUT
10
225.0996
20
29.8836
0
VERTEX
8
CUT
10
224.7427
20
29.9032
0
VERTEX
8
CUT
10
224.7253
20
29.9045
0
VERTEX
8
CUT
10
224.6883
20
29.9100
0
VERTEX
8
CUT
10
224.6529
20
29.9223
0
VERTEX
8
CUT
10
224.6368
20
29.9291
0
VERTEX
8
CUT
10
224.6123
20
29.9403
0
VERTEX
8
CUT
10
224.3966
20
30.0264
0
VERTEX
8
CUT
10
224.1739
20
30.0922
0
VERTEX
8
CUT
10
223.9459
20
30.1371
0
VERTEX
8
CUT
10
223.7149
20
30.1605
0
VERTEX
8
CUT
10
223.3528
20
30.1804
0
VERTEX
8
CUT
10
223.3475
20
30.1808
0
VERTEX
8
CUT
10
223.2669
20
30.1917
0
VERTEX
8
CUT
10
223.2488
20
30.1954
0
VERTEX
8
CUT
10
218.7739
20
31.2122
0
VERTEX
8
CUT
10
218.5430
20
31.2534
0
VERTEX
8
CUT
10
216.1021
20
31.5715
0
VERTEX
8
CUT
10
216.0856
20
31.5740
0
VERTEX
8
CUT
10
216.0150
20
31.5897
0
VERTEX
8
CUT
10
215.9989
20
31.5944
0
VERTEX
8
CUT
10
214.7839
20
31.9804
0
VERTEX
8
CUT
10
214.4874
20
32.0550
0
VERTEX
8
CUT
10
214.1841
20
32.0928
0
VERTEX
8
CUT
10
213.6111
20
32.1289
0
VERTEX
8
CUT
10
213.5940
20
32.1303
0
VERTEX
8
CUT
10
213.5210
20
32.1416
0
VERTEX
8
CUT
10
213.5043
20
32.1454
0
VERTEX
8
CUT
10
210.2442
20
32.9597
0
VERTEX
8
CUT
10
210.2021
20
32.9711
0
VERTEX
8
CUT
10
210.1604
20
32.9839
0
VERTEX
8
CUT
10
206.4526
20
34.2039
0
VERTEX
8
CUT
10
206.2038
20
34.2717
0
VERTEX
8
CUT
10
205.9493
20
34.3136
0
VERTEX
8
CUT
10
205.4988
20
34.3640
0
VERTEX
8
CUT
10
205.4935
20
34.3647
0
VERTEX
8
CUT
10
205.4430
20
34.3746
0
VERTEX
8
CUT
10
205.4174
20
34.3821
0
VERTEX
8
CUT
10
205.3949
20
34.3902
0
VERTEX
8
CUT
10
200.4656
20
36.3096
0
VERTEX
8
CUT
10
200.4146
20
36.3309
0
VERTEX
8
CUT
10
200.3646
20
36.3544
0
VERTEX
8
CUT
10
195.5077
20
38.7853
0
VERTEX
8
CUT
10
195.4491
20
38.8167
0
VERTEX
8
CUT
10
195.3924
20
38.8513
0
VERTEX
8
CUT
10
190.7073
20
41.8910
0
VERTEX
8
CUT
10
190.6574
20
41.9252
0
VERTEX
8
CUT
10
190.6092
20
41.9620
0
VERTEX
8
CUT
10
187.8481
20
44.1822
0
VERTEX
8
CUT
10
187.7971
20
44.2256
0
VERTEX
8
CUT
10
187.7486
20
44.2718
0
VERTEX
8
CUT
10
183.4937
20
48.5625
0
VERTEX
8
CUT
10
183.4480
20
48.6112
0
VERTEX
8
CUT
10
183.4052
20
48.6624
0
VERTEX
8
CUT
10
181.5257
20
51.0385
0
VERTEX
8
CUT
10
181.4975
20
51.0756
0
VERTEX
8
CUT
10
181.4708
20
51.1137
0
VERTEX
8
CUT
10
179.8052
20
53.5950
0
VERTEX
8
CUT
10
179.7762
20
53.6404
0
VERTEX
8
CUT
10
179.7492
20
53.6871
0
VERTEX
8
CUT
10
178.1329
20
56.6405
0
VERTEX
8
CUT
10
178.0970
20
56.7116
0
VERTEX
8
CUT
10
178.0660
20
56.7850
0
VERTEX
8
CUT
10
176.7007
20
60.3361
0
VERTEX
8
CUT
10
176.6765
20
60.4053
0
VERTEX
8
CUT
10
176.6566
20
60.4758
0
VERTEX
8
CUT
10
175.8472
20
63.7268
0
VERTEX
8
CUT
10
175.8331
20
63.7906
0
VERTEX
8
CUT
10
175.8226
20
63.8552
0
VERTEX
8
CUT
10
175.5468
20
65.8964
0
VERTEX
8
CUT
10
175.5388
20
65.9754
0
VERTEX
8
CUT
10
175.5361
20
66.0547
0
VERTEX
8
CUT
10
175.5311
20
70.8616
0
VERTEX
8
CUT
10
175.5333
20
70.9351
0
VERTEX
8
CUT
10
175.5400
20
71.0082
0
VERTEX
8
CUT
10
175.8176
20
73.2670
0
VERTEX
8
CUT
10
175.8183
20
73.2719
0
VERTEX
8
CUT
10
175.8329
20
73.3455
0
VERTEX
8
CUT
10
175.8372
20
73.3620
0
VERTEX
8
CUT
10
176.9765
20
77.3580
0
VERTEX
8
CUT
10
176.9815
20
77.3740
0
VERTEX
8
CUT
10
176.9945
20
77.4078
0
VERTEX
8
CUT
10
177.0161
20
77.4370
0
VERTEX
8
CUT
10
177.0267
20
77.4494
0
VERTEX
8
CUT
10
177.2808
20
77.7351
0
VERTEX
8
CUT
10
177.2940
20
77.7492
0
VERTEX
8
CUT
10
177.3245
20
77.7770
0
VERTEX
8
CUT
10
177.3636
20
77.7902
0
VERTEX
8
CUT
10
177.3823
20
77.7949
0
VERTEX
8
CUT
10
177.6780
20
77.8615
0
VERTEX
8
CUT
10
177.6954
20
77.8650
0
VERTEX
8
CUT
10
177.7329
20
77.8698
0
VERTEX
8
CUT
10
177.7670
20
77.8534
0
VERTEX
8
CUT
10
177.7824
20
77.8446
0
VERTEX
8
CUT
10
180.7486
20
76.0535
0
VERTEX
8
CUT
10
185.7883
20
72.3693
0
VERTEX
8
CUT
10
186.1287
20
72.1123
0
VERTEX
8
CUT
10
186.1344
20
72.1078
0
VERTEX
8
CUT
10
186.4260
20
71.8557
0
VERTEX
8
CUT
10
186.4780
20
71.8150
0
VERTEX
8
CUT
10
195.5922
20
64.0310
0
VERTEX
8
CUT
10
195.6015
20
64.0229
0
VERTEX
8
CUT
10
195.6213
20
64.0053
0
VERTEX
8
CUT
10
199.6010
20
60.3937
0
VERTEX
8
CUT
10
199.6923
20
60.3148
0
VERTEX
8
CUT
10
202.2652
20
58.1969
0
VERTEX
8
CUT
10
202.2663
20
58.1959
0
VERTEX
8
CUT
10
207.4193
20
53.9541
0
VERTEX
8
CUT
10
207.5056
20
53.8862
0
VERTEX
8
CUT
10
210.8007
20
51.4084
0
VERTEX
8
CUT
10
210.9140
20
51.3280
0
VERTEX
8
CUT
10
211.5495
20
50.9033
0
VERTEX
8
CUT
10
211.5951
20
50.8697
0
VERTEX
8
CUT
10
211.6923
20
50.8014
0
VERTEX
8
CUT
10
215.7445
20
48.0994
0
VERTEX
8
CUT
10
215.7467
20
48.0981
0
VERTEX
8
CUT
10
215.7515
20
48.0949
0
VERTEX
8
CUT
10
215.8996
20
48.0032
0
VERTEX
8
CUT
10
217.7341
20
46.9541
0
VERTEX
8
CUT
10
217.8575
20
46.8880
0
VERTEX
8
CUT
10
218.1234
20
46.7551
0
VERTEX
8
CUT
10
218.2455
20
46.6865
0
VERTEX
8
CUT
10
218.3550
20
46.6286
0
VERTEX
8
CUT
10
221.9582
20
44.8339
0
VERTEX
8
CUT
10
222.1729
20
44.7393
0
VERTEX
8
CUT
10
222.1923
20
44.7328
0
VERTEX
8
CUT
10
222.2198
20
44.7207
0
VERTEX
8
CUT
10
222.4494
20
44.6450
0
VERTEX
8
CUT
10
223.4820
20
44.3591
0
VERTEX
8
CUT
10
223.5007
20
44.3534
0
VERTEX
8
CUT
10
223.5294
20
44.3422
0
VERTEX
8
CUT
10
223.5793
20
44.3223
0
VERTEX
8
CUT
10
223.5969
20
44.3136
0
VERTEX
8
CUT
10
224.1475
20
44.0247
0
VERTEX
8
CUT
10
224.4187
20
43.9023
0
VERTEX
8
CUT
10
224.5416
20
43.8637
0
VERTEX
8
CUT
10
224.5521
20
43.8599
0
VERTEX
8
CUT
10
224.5647
20
43.8564
0
VERTEX
8
CUT
10
224.7026
20
43.8131
0
VERTEX
8
CUT
10
226.5577
20
43.3490
0
VERTEX
8
CUT
10
226.8356
20
43.2960
0
VERTEX
8
CUT
10
227.2280
20
43.2439
0
VERTEX
8
CUT
10
227.7977
20
43.1148
0
VERTEX
8
CUT
10
228.0723
20
43.0684
0
VERTEX
8
CUT
10
228.3504
20
43.0529
0
VERTEX
8
CUT
10
228.6679
20
43.0529
0
VERTEX
8
CUT
10
228.7393
20
43.0434
0
VERTEX
8
CUT
10
229.0889
20
43.0218
0
VERTEX
8
CUT
10
231.8841
20
43.0450
0
VERTEX
8
CUT
10
232.1694
20
43.0637
0
VERTEX
8
CUT
10
232.2050
20
43.0702
0
VERTEX
8
CUT
10
232.2135
20
43.0707
0
VERTEX
8
CUT
10
232.5077
20
43.1241
0
VERTEX
8
CUT
10
234.2155
20
43.5408
0
VERTEX
8
CUT
10
234.4758
20
43.6195
0
VERTEX
8
CUT
10
234.7260
20
43.7261
0
VERTEX
8
CUT
10
235.4624
20
44.0882
0
VERTEX
8
CUT
10
235.7192
20
44.2370
0
VERTEX
8
CUT
10
235.7387
20
44.2469
0
VERTEX
8
CUT
10
235.7457
20
44.2504
0
VERTEX
8
CUT
10
235.9691
20
44.3785
0
VERTEX
8
CUT
10
235.9855
20
44.3902
0
VERTEX
8
CUT
10
236.0045
20
44.4012
0
VERTEX
8
CUT
10
236.2097
20
44.5495
0
VERTEX
8
CUT
10
236.3081
20
44.6370
0
VERTEX
8
CUT
10
236.4230
20
44.7232
0
VERTEX
8
CUT
10
236.6068
20
44.8921
0
VERTEX
8
CUT
10
237.5816
20
45.8825
0
VERTEX
8
CUT
10
238.0064
20
46.3007
0
VERTEX
8
CUT
10
238.1481
20
46.4524
0
VERTEX
8
CUT
10
238.2768
20
46.6153
0
VERTEX
8
CUT
10
238.8016
20
47.3397
0
VERTEX
8
CUT
10
238.9134
20
47.5079
0
VERTEX
8
CUT
10
239.0113
20
47.6846
0
VERTEX
8
CUT
10
239.1764
20
48.0135
0
VERTEX
8
CUT
10
239.2487
20
48.1414
0
VERTEX
8
CUT
10
239.5755
20
48.8084
0
VERTEX
8
CUT
10
239.6325
20
48.9218
0
VERTEX
8
CUT
10
239.6485
20
48.9573
0
VERTEX
8
CUT
10
239.6715
20
49.0042
0
VERTEX
8
CUT
10
239.6894
20
49.0480
0
VERTEX
8
CUT
10
239.7180
20
49.1114
0
VERTEX
8
CUT
10
239.7350
20
49.1594
0
VERTEX
8
CUT
10
239.7983
20
49.3140
0
VERTEX
8
CUT
10
239.8210
20
49.3821
0
VERTEX
8
CUT
10
239.8253
20
49.3951
0
VERTEX
8
CUT
10
240.2952
20
50.8059
0
VERTEX
8
CUT
10
240.2953
20
50.8060
0
VERTEX
8
CUT
10
240.5383
20
51.5357
0
VERTEX
8
CUT
10
240.5385
20
51.5361
0
VERTEX
8
CUT
10
240.5573
20
51.6042
0
VERTEX
8
CUT
10
240.6082
20
51.7891
0
VERTEX
8
CUT
10
240.7486
20
52.4272
0
VERTEX
8
CUT
10
240.7710
20
52.4999
0
VERTEX
8
CUT
10
240.8428
20
52.7962
0
VERTEX
8
CUT
10
240.8575
20
52.9222
0
VERTEX
8
CUT
10
240.9613
20
53.3943
0
VERTEX
8
CUT
10
241.0843
20
53.9530
0
VERTEX
8
CUT
10
241.1160
20
54.1386
0
VERTEX
8
CUT
10
241.1239
20
54.1843
0
VERTEX
8
CUT
10
241.1241
20
54.1867
0
VERTEX
8
CUT
10
241.1264
20
54.2003
0
VERTEX
8
CUT
10
241.1439
20
54.4356
0
VERTEX
8
CUT
10
241.1491
20
54.6221
0
VERTEX
8
CUT
10
241.1542
20
54.6906
0
VERTEX
8
CUT
10
241.1866
20
55.8091
0
VERTEX
8
CUT
10
241.1875
20
55.8238
0
VERTEX
8
CUT
10
241.1955
20
55.8585
0
VERTEX
8
CUT
10
241.2012
20
55.8764
0
VERTEX
8
CUT
10
241.2278
20
55.9546
0
VERTEX
8
CUT
10
241.2903
20
56.1376
0
VERTEX
8
CUT
10
241.2904
20
56.1379
0
VERTEX
8
CUT
10
241.3486
20
56.3429
0
VERTEX
8
CUT
10
241.3613
20
56.3840
0
VERTEX
8
CUT
10
241.4109
20
56.6303
0
VERTEX
8
CUT
10
241.4355
20
56.8804
0
VERTEX
8
CUT
10
241.5697
20
59.6909
0
VERTEX
8
CUT
10
241.6259
20
59.8792
0
VERTEX
8
CUT
10
241.6740
20
60.1341
0
VERTEX
8
CUT
10
241.6954
20
60.3926
0
VERTEX
8
CUT
10
241.7063
20
60.7467
0
VERTEX
8
CUT
10
241.7083
20
60.7613
0
VERTEX
8
CUT
10
241.7173
20
61.0112
0
VERTEX
8
CUT
10
241.7034
20
62.0111
0
VERTEX
8
CUT
10
241.7049
20
62.3694
0
VERTEX
8
CUT
10
241.6972
20
62.5765
0
VERTEX
8
CUT
10
241.6964
20
62.5833
0
VERTEX
8
CUT
10
241.6959
20
62.6293
0
VERTEX
8
CUT
10
241.6845
20
62.8412
0
VERTEX
8
CUT
10
241.6552
20
63.0513
0
VERTEX
8
CUT
10
241.6082
20
63.2581
0
VERTEX
8
CUT
10
241.4683
20
63.7722
0
VERTEX
8
CUT
10
241.4670
20
63.7773
0
VERTEX
8
CUT
10
241.4647
20
63.7895
0
VERTEX
8
CUT
10
241.4194
20
67.5008
0
VERTEX
8
CUT
10
241.4038
20
67.7507
0
VERTEX
8
CUT
10
241.3996
20
67.7759
0
VERTEX
8
CUT
10
241.3990
20
67.7865
0
VERTEX
8
CUT
10
241.3988
20
67.7876
0
VERTEX
8
CUT
10
241.3985
20
67.7925
0
VERTEX
8
CUT
10
241.3665
20
67.9778
0
VERTEX
8
CUT
10
241.3633
20
67.9978
0
VERTEX
8
CUT
10
241.3628
20
67.9995
0
VERTEX
8
CUT
10
241.3535
20
68.0534
0
VERTEX
8
CUT
10
241.2812
20
68.3081
0
VERTEX
8
CUT
10
241.2069
20
68.5252
0
VERTEX
8
CUT
10
241.2011
20
68.5438
0
VERTEX
8
CUT
10
241.1917
20
68.5846
0
VERTEX
8
CUT
10
241.1866
20
68.6261
0
VERTEX
8
CUT
10
241.1858
20
68.6450
0
VERTEX
8
CUT
10
241.1587
20
70.1061
0
VERTEX
8
CUT
10
241.1505
20
70.5480
0
VERTEX
8
CUT
10
241.1313
20
70.8141
0
VERTEX
8
CUT
10
241.1307
20
70.8175
0
VERTEX
8
CUT
10
241.1304
20
70.8214
0
VERTEX
8
CUT
10
241.0862
20
71.0637
0
VERTEX
8
CUT
10
241.0839
20
71.0767
0
VERTEX
8
CUT
10
241.0838
20
71.0769
0
VERTEX
8
CUT
10
241.0821
20
71.0863
0
VERTEX
8
CUT
10
241.0056
20
71.3445
0
VERTEX
8
CUT
10
240.9276
20
71.5635
0
VERTEX
8
CUT
10
240.9215
20
71.5820
0
VERTEX
8
CUT
10
240.9117
20
71.6227
0
VERTEX
8
CUT
10
240.9113
20
71.6256
0
VERTEX
8
CUT
10
240.9061
20
71.6641
0
VERTEX
8
CUT
10
240.9051
20
71.6835
0
VERTEX
8
CUT
10
240.8723
20
72.8462
0
VERTEX
8
CUT
10
240.8497
20
73.1185
0
VERTEX
8
CUT
10
240.8224
20
73.2586
0
VERTEX
8
CUT
10
240.7975
20
73.3866
0
VERTEX
8
CUT
10
240.7163
20
73.6475
0
VERTEX
8
CUT
10
240.6489
20
73.8288
0
VERTEX
8
CUT
10
240.6422
20
73.8485
0
VERTEX
8
CUT
10
240.6328
20
73.8859
0
VERTEX
8
CUT
10
240.5962
20
75.2756
0
VERTEX
8
CUT
10
240.5937
20
75.3106
0
VERTEX
8
CUT
10
240.5897
20
75.4870
0
VERTEX
8
CUT
10
240.5712
20
75.7391
0
VERTEX
8
CUT
10
240.5273
20
75.9880
0
VERTEX
8
CUT
10
240.2665
20
77.1281
0
VERTEX
8
CUT
10
240.0670
20
79.0113
0
VERTEX
8
CUT
10
240.0574
20
79.0742
0
VERTEX
8
CUT
10
240.0321
20
79.2392
0
VERTEX
8
CUT
10
239.9764
20
79.4630
0
VERTEX
8
CUT
10
239.9165
20
79.6344
0
VERTEX
8
CUT
10
239.7781
20
81.0436
0
VERTEX
8
CUT
10
239.7407
20
81.2939
0
VERTEX
8
CUT
10
239.6781
20
81.5392
0
VERTEX
8
CUT
10
239.6534
20
81.6191
0
VERTEX
8
CUT
10
239.2691
20
82.8592
0
VERTEX
8
CUT
10
239.2676
20
82.8644
0
VERTEX
8
CUT
10
239.2564
20
82.9152
0
VERTEX
8
CUT
10
239.2545
20
82.9303
0
VERTEX
8
CUT
10
239.2530
20
82.9420
0
VERTEX
8
CUT
10
239.2525
20
82.9496
0
VERTEX
8
CUT
10
239.2515
20
82.9661
0
VERTEX
8
CUT
10
239.2263
20
83.6307
0
VERTEX
8
CUT
10
239.2178
20
83.8573
0
VERTEX
8
CUT
10
239.2170
20
83.8779
0
VERTEX
8
CUT
10
239.1978
20
84.1070
0
VERTEX
8
CUT
10
239.1576
20
84.3333
0
VERTEX
8
CUT
10
239.0967
20
84.5550
0
VERTEX
8
CUT
10
239.0158
20
84.7702
0
VERTEX
8
CUT
10
238.9921
20
84.8254
0
VERTEX
8
CUT
10
238.9857
20
84.8413
0
VERTEX
8
CUT
10
238.9768
20
84.8686
0
VERTEX
8
CUT
10
238.9756
20
84.8773
0
VERTEX
8
CUT
10
238.9747
20
84.8899
0
VERTEX
8
CUT
10
238.9744
20
84.8950
0
VERTEX
8
CUT
10
238.9463
20
85.5225
0
VERTEX
8
CUT
10
238.9331
20
85.6664
0
VERTEX
8
CUT
10
238.9252
20
85.7516
0
VERTEX
8
CUT
10
238.9241
20
85.7649
0
VERTEX
8
CUT
10
238.8837
20
85.9896
0
VERTEX
8
CUT
10
238.8231
20
86.2097
0
VERTEX
8
CUT
10
238.7426
20
86.4233
0
VERTEX
8
CUT
10
238.7152
20
86.4871
0
VERTEX
8
CUT
10
238.7088
20
86.5030
0
VERTEX
8
CUT
10
238.6999
20
86.5303
0
VERTEX
8
CUT
10
238.6986
20
86.5391
0
VERTEX
8
CUT
10
238.6974
20
86.5567
0
VERTEX
8
CUT
10
238.6821
20
86.8986
0
VERTEX
8
CUT
10
238.6694
20
87.1842
0
VERTEX
8
CUT
10
238.6555
20
87.3344
0
VERTEX
8
CUT
10
238.6483
20
87.4133
0
VERTEX
8
CUT
10
238.6471
20
87.4266
0
VERTEX
8
CUT
10
238.6068
20
87.6513
0
VERTEX
8
CUT
10
238.5461
20
87.8714
0
VERTEX
8
CUT
10
238.4656
20
88.0850
0
VERTEX
8
CUT
10
238.4382
20
88.1488
0
VERTEX
8
CUT
10
238.4318
20
88.1647
0
VERTEX
8
CUT
10
238.4229
20
88.1920
0
VERTEX
8
CUT
10
238.4217
20
88.2008
0
VERTEX
8
CUT
10
238.4205
20
88.2184
0
VERTEX
8
CUT
10
238.4069
20
88.5222
0
VERTEX
8
CUT
10
238.3924
20
88.8460
0
VERTEX
8
CUT
10
238.3780
20
89.0024
0
VERTEX
8
CUT
10
238.3713
20
89.0750
0
VERTEX
8
CUT
10
238.3702
20
89.0883
0
VERTEX
8
CUT
10
238.3298
20
89.3130
0
VERTEX
8
CUT
10
238.2692
20
89.5331
0
VERTEX
8
CUT
10
238.1887
20
89.7467
0
VERTEX
8
CUT
10
238.1609
20
89.8113
0
VERTEX
8
CUT
10
238.1546
20
89.8269
0
VERTEX
8
CUT
10
238.1460
20
89.8532
0
VERTEX
8
CUT
10
238.1456
20
89.8560
0
VERTEX
8
CUT
10
238.1453
20
89.8582
0
VERTEX
8
CUT
10
238.1452
20
89.8594
0
VERTEX
8
CUT
10
238.1447
20
89.8625
0
VERTEX
8
CUT
10
238.1435
20
89.8802
0
VERTEX
8
CUT
10
238.1309
20
90.1626
0
VERTEX
8
CUT
10
238.1154
20
90.5077
0
VERTEX
8
CUT
10
238.0977
20
90.7004
0
VERTEX
8
CUT
10
238.0938
20
90.7422
0
VERTEX
8
CUT
10
238.0848
20
90.7900
0
VERTEX
8
CUT
10
238.0503
20
90.9737
0
VERTEX
8
CUT
10
237.9851
20
91.2001
0
VERTEX
8
CUT
10
237.9506
20
91.2879
0
VERTEX
8
CUT
10
237.9408
20
91.3128
0
VERTEX
8
CUT
10
237.9249
20
91.4288
0
VERTEX
8
CUT
10
237.9083
20
91.5493
0
VERTEX
8
CUT
10
237.8774
20
91.7751
0
VERTEX
8
CUT
10
237.8458
20
92.0056
0
VERTEX
8
CUT
10
237.8432
20
92.0640
0
VERTEX
8
CUT
10
237.8385
20
92.1694
0
VERTEX
8
CUT
10
237.8201
20
92.3695
0
VERTEX
8
CUT
10
237.8201
20
92.3696
0
VERTEX
8
CUT
10
237.8169
20
92.4040
0
VERTEX
8
CUT
10
237.8071
20
92.4558
0
VERTEX
8
CUT
10
237.7733
20
92.6354
0
VERTEX
8
CUT
10
237.7470
20
92.7268
0
VERTEX
8
CUT
10
237.6984
20
93.0818
0
VERTEX
8
CUT
10
237.6528
20
93.3245
0
VERTEX
8
CUT
10
237.5835
20
93.5616
0
VERTEX
8
CUT
10
237.5074
20
93.7502
0
VERTEX
8
CUT
10
237.2941
20
95.2684
0
VERTEX
8
CUT
10
237.2938
20
95.2710
0
VERTEX
8
CUT
10
237.2934
20
95.2736
0
VERTEX
8
CUT
10
237.2886
20
95.3531
0
VERTEX
8
CUT
10
237.2886
20
95.3712
0
VERTEX
8
CUT
10
237.3351
20
97.1910
0
VERTEX
8
CUT
10
237.3362
20
97.2119
0
VERTEX
8
CUT
10
237.3409
20
97.2454
0
VERTEX
8
CUT
10
237.3424
20
97.2567
0
VERTEX
8
CUT
10
237.3437
20
97.2617
0
VERTEX
8
CUT
10
237.3536
20
97.3006
0
VERTEX
8
CUT
10
237.3544
20
97.3028
0
VERTEX
8
CUT
10
237.3605
20
97.3204
0
VERTEX
8
CUT
10
239.4195
20
102.7582
0
VERTEX
8
CUT
10
239.5080
20
103.0416
0
VERTEX
8
CUT
10
240.2392
20
105.9891
0
VERTEX
8
CUT
10
240.2505
20
106.0478
0
VERTEX
8
CUT
10
240.2897
20
106.2522
0
VERTEX
8
CUT
10
240.3117
20
106.5192
0
VERTEX
8
CUT
10
240.3394
20
107.4830
0
VERTEX
8
CUT
10
240.3489
20
107.8154
0
VERTEX
8
CUT
10
240.3503
20
107.8379
0
VERTEX
8
CUT
10
240.3648
20
107.9346
0
VERTEX
8
CUT
10
240.3702
20
107.9566
0
VERTEX
8
CUT
10
240.4981
20
108.4189
0
VERTEX
8
CUT
10
240.5480
20
108.6367
0
VERTEX
8
CUT
10
240.5782
20
108.8581
0
VERTEX
8
CUT
10
240.5819
20
108.9384
0
VERTEX
8
CUT
10
240.5827
20
108.9450
0
VERTEX
8
CUT
10
240.5857
20
109.0206
0
VERTEX
8
CUT
10
240.5885
20
109.0813
0
VERTEX
8
CUT
10
240.5886
20
109.0922
0
VERTEX
8
CUT
10
240.5910
20
109.1528
0
VERTEX
8
CUT
10
240.5897
20
109.7754
0
VERTEX
8
CUT
10
240.5959
20
113.5492
0
VERTEX
8
CUT
10
240.5729
20
113.8916
0
VERTEX
8
CUT
10
240.5697
20
113.9152
0
VERTEX
8
CUT
10
240.5661
20
113.9781
0
VERTEX
8
CUT
10
240.5657
20
113.9807
0
VERTEX
8
CUT
10
240.5656
20
113.9826
0
VERTEX
8
CUT
10
240.5390
20
114.1402
0
VERTEX
8
CUT
10
240.0736
20
117.5476
0
VERTEX
8
CUT
10
240.0366
20
117.7535
0
VERTEX
8
CUT
10
239.9826
20
117.9556
0
VERTEX
8
CUT
10
239.9118
20
118.1525
0
VERTEX
8
CUT
10
239.8164
20
118.3866
0
VERTEX
8
CUT
10
239.8144
20
118.3918
0
VERTEX
8
CUT
10
239.8049
20
118.4222
0
VERTEX
8
CUT
10
239.7633
20
119.4168
0
VERTEX
8
CUT
10
239.7370
20
119.6887
0
VERTEX
8
CUT
10
239.6812
20
119.9562
0
VERTEX
8
CUT
10
239.5965
20
120.2160
0
VERTEX
8
CUT
10
239.3263
20
120.9131
0
VERTEX
8
CUT
10
239.2821
20
121.0272
0
VERTEX
8
CUT
10
239.2756
20
121.0452
0
VERTEX
8
CUT
10
239.2647
20
121.0850
0
VERTEX
8
CUT
10
239.2579
20
121.1256
0
VERTEX
8
CUT
10
239.2563
20
121.1434
0
VERTEX
8
CUT
10
239.2562
20
121.1447
0
VERTEX
8
CUT
10
239.2246
20
121.6407
0
VERTEX
8
CUT
10
239.2137
20
121.7356
0
VERTEX
8
CUT
10
239.1957
20
121.8925
0
VERTEX
8
CUT
10
239.1414
20
122.1400
0
VERTEX
8
CUT
10
239.0995
20
122.2677
0
VERTEX
8
CUT
10
239.0624
20
122.3807
0
VERTEX
8
CUT
10
238.7216
20
123.2651
0
VERTEX
8
CUT
10
238.7151
20
123.2834
0
VERTEX
8
CUT
10
238.7078
20
123.3104
0
VERTEX
8
CUT
10
238.6932
20
123.3641
0
VERTEX
8
CUT
10
238.6896
20
123.3832
0
VERTEX
8
CUT
10
238.3873
20
125.2367
0
VERTEX
8
CUT
10
238.3647
20
125.3445
0
VERTEX
8
CUT
10
238.3417
20
125.4545
0
VERTEX
8
CUT
10
237.0539
20
130.4832
0
VERTEX
8
CUT
10
237.0527
20
130.4883
0
VERTEX
8
CUT
10
237.0494
20
130.5028
0
VERTEX
8
CUT
10
237.0370
20
130.5890
0
VERTEX
8
CUT
10
237.0357
20
130.6091
0
VERTEX
8
CUT
10
237.0005
20
131.5823
0
VERTEX
8
CUT
10
236.9792
20
131.8293
0
VERTEX
8
CUT
10
236.9598
20
131.9333
0
VERTEX
8
CUT
10
236.9336
20
132.0731
0
VERTEX
8
CUT
10
236.8694
20
132.2929
0
VERTEX
8
CUT
10
236.8241
20
132.7621
0
VERTEX
8
CUT
10
236.7285
20
133.7538
0
VERTEX
8
CUT
10
236.7108
20
134.7667
0
VERTEX
8
CUT
10
236.6981
20
134.9791
0
VERTEX
8
CUT
10
236.6673
20
135.1897
0
VERTEX
8
CUT
10
236.5102
20
136.0168
0
VERTEX
8
CUT
10
236.4981
20
136.1424
0
VERTEX
8
CUT
10
236.5410
20
136.5271
0
VERTEX
8
CUT
10
236.5560
20
136.7724
0
VERTEX
8
CUT
10
236.6159
20
136.9878
0
VERTEX
8
CUT
10
236.6640
20
137.1939
0
VERTEX
8
CUT
10
236.6945
20
137.4034
0
VERTEX
8
CUT
10
236.6969
20
137.4440
0
VERTEX
8
CUT
10
236.7033
20
137.4833
0
VERTEX
8
CUT
10
236.7198
20
137.6994
0
VERTEX
8
CUT
10
236.8011
20
140.1743
0
VERTEX
8
CUT
10
236.8177
20
140.2331
0
VERTEX
8
CUT
10
236.8317
20
140.2825
0
VERTEX
8
CUT
10
236.8486
20
140.3425
0
VERTEX
8
CUT
10
236.8892
20
140.4860
0
VERTEX
8
CUT
10
237.4011
20
141.0889
0
VERTEX
8
CUT
10
237.5396
20
141.2068
0
VERTEX
8
CUT
10
237.5481
20
141.2140
0
VERTEX
8
CUT
10
237.7029
20
141.3458
0
VERTEX
8
CUT
10
237.8728
20
141.4905
0
VERTEX
8
CUT
10
238.1017
20
141.5526
0
VERTEX
8
CUT
10
238.4721
20
141.5593
0
VERTEX
8
CUT
10
238.9057
20
141.5671
0
VERTEX
8
CUT
10
239.2679
20
141.5737
0
VERTEX
8
CUT
10
239.9183
20
141.5854
0
VERTEX
8
CUT
10
239.9555
20
141.5850
0
VERTEX
8
CUT
10
239.9608
20
141.5849
0
VERTEX
8
CUT
10
239.9954
20
141.5817
0
VERTEX
8
CUT
10
240.0267
20
141.5764
0
VERTEX
8
CUT
10
240.0438
20
141.5722
0
VERTEX
8
CUT
10
240.7966
20
141.3699
0
VERTEX
8
CUT
10
243.1851
20
140.7214
0
VERTEX
8
CUT
10
243.2066
20
140.7148
0
VERTEX
8
CUT
10
243.2514
20
140.6967
0
VERTEX
8
CUT
10
243.2683
20
140.6880
0
VERTEX
8
CUT
10
246.2553
20
139.0444
0
VERTEX
8
CUT
10
246.2600
20
139.0416
0
VERTEX
8
CUT
10
246.2945
20
139.0187
0
VERTEX
8
CUT
10
246.3125
20
139.0041
0
VERTEX
8
CUT
10
246.3244
20
138.9930
0
VERTEX
8
CUT
10
248.2507
20
137.1189
0
VERTEX
8
CUT
10
248.5707
20
136.7346
0
VERTEX
8
CUT
10
249.1912
20
135.9311
0
VERTEX
8
CUT
10
249.8896
20
135.0266
0
VERTEX
8
CUT
10
250.5579
20
133.8947
0
VERTEX
8
CUT
10
251.2885
20
132.0717
0
VERTEX
8
CUT
10
251.5051
20
131.3655
0
VERTEX
8
CUT
10
251.5193
20
131.2177
0
VERTEX
8
CUT
10
251.5506
20
130.9957
0
VERTEX
8
CUT
10
251.6017
20
130.7774
0
VERTEX
8
CUT
10
251.6722
20
130.5646
0
VERTEX
8
CUT
10
252.0319
20
129.6222
0
VERTEX
8
CUT
10
252.0337
20
129.6171
0
VERTEX
8
CUT
10
252.0432
20
129.5844
0
VERTEX
8
CUT
10
252.0439
20
129.5788
0
VERTEX
8
CUT
10
252.0454
20
129.5551
0
VERTEX
8
CUT
10
252.0924
20
128.3879
0
VERTEX
8
CUT
10
252.1117
20
128.1630
0
VERTEX
8
CUT
10
252.1511
20
127.9409
0
VERTEX
8
CUT
10
252.2749
20
127.3894
0
VERTEX
8
CUT
10
252.2982
20
127.1630
0
VERTEX
8
CUT
10
252.3280
20
126.8725
0
VERTEX
8
CUT
10
252.1580
20
126.0911
0
VERTEX
8
CUT
10
252.1177
20
125.8493
0
VERTEX
8
CUT
10
252.1012
20
125.6047
0
VERTEX
8
CUT
10
252.0991
20
125.4877
0
VERTEX
8
CUT
10
252.0642
20
123.5602
0
VERTEX
8
CUT
10
252.0634
20
123.5405
0
VERTEX
8
CUT
10
252.0581
20
123.4983
0
VERTEX
8
CUT
10
252.0485
20
123.4569
0
VERTEX
8
CUT
10
252.0425
20
123.4381
0
VERTEX
8
CUT
10
251.9470
20
123.1627
0
VERTEX
8
CUT
10
251.8772
20
122.9235
0
VERTEX
8
CUT
10
251.8315
20
122.6785
0
VERTEX
8
CUT
10
251.8105
20
122.4301
0
VERTEX
8
CUT
10
251.7774
20
121.4732
0
VERTEX
8
CUT
10
251.7763
20
121.4550
0
VERTEX
8
CUT
10
251.7711
20
121.4161
0
VERTEX
8
CUT
10
251.7585
20
121.3790
0
VERTEX
8
CUT
10
251.7529
20
121.3657
0
VERTEX
8
CUT
10
251.7514
20
121.3622
0
VERTEX
8
CUT
10
251.7496
20
121.3581
0
VERTEX
8
CUT
10
251.7478
20
121.3536
0
VERTEX
8
CUT
10
251.7396
20
121.3341
0
VERTEX
8
CUT
10
251.7400
20
121.3339
0
VERTEX
8
CUT
10
251.6631
20
121.1398
0
VERTEX
8
CUT
10
251.5974
20
120.9145
0
VERTEX
8
CUT
10
251.5532
20
120.6839
0
VERTEX
8
CUT
10
251.5308
20
120.4502
0
VERTEX
8
CUT
10
251.4986
20
119.7882
0
VERTEX
8
CUT
10
251.4973
20
119.7706
0
VERTEX
8
CUT
10
251.4927
20
119.7402
0
VERTEX
8
CUT
10
251.4886
20
119.7229
0
VERTEX
8
CUT
10
251.4786
20
119.6947
0
VERTEX
8
CUT
10
251.4713
20
119.6780
0
VERTEX
8
CUT
10
251.4377
20
119.6060
0
VERTEX
8
CUT
10
251.3414
20
119.3682
0
VERTEX
8
CUT
10
251.2699
20
119.1218
0
VERTEX
8
CUT
10
251.2240
20
118.8694
0
VERTEX
8
CUT
10
251.1875
20
118.5869
0
VERTEX
8
CUT
10
251.0424
20
118.0393
0
VERTEX
8
CUT
10
250.9802
20
117.7240
0
VERTEX
8
CUT
10
250.7691
20
116.1149
0
VERTEX
8
CUT
10
250.7661
20
116.0716
0
VERTEX
8
CUT
10
250.7436
20
115.9148
0
VERTEX
8
CUT
10
250.7325
20
115.6772
0
VERTEX
8
CUT
10
250.7334
20
114.2656
0
VERTEX
8
CUT
10
250.7061
20
111.3571
0
VERTEX
8
CUT
10
250.7233
20
111.0397
0
VERTEX
8
CUT
10
250.7356
20
110.9356
0
VERTEX
8
CUT
10
250.7360
20
110.4121
0
VERTEX
8
CUT
10
250.7513
20
110.1370
0
VERTEX
8
CUT
10
250.7969
20
109.8653
0
VERTEX
8
CUT
10
250.9351
20
109.2503
0
VERTEX
8
CUT
10
250.9766
20
108.9004
0
VERTEX
8
CUT
10
251.0338
20
108.5881
0
VERTEX
8
CUT
10
251.5042
20
106.7062
0
VERTEX
8
CUT
10
251.5285
20
106.6254
0
VERTEX
8
CUT
10
251.5590
20
106.5112
0
VERTEX
8
CUT
10
251.6249
20
106.3248
0
VERTEX
8
CUT
10
252.0924
20
105.1521
0
VERTEX
8
CUT
10
252.1799
20
104.9574
0
VERTEX
8
CUT
10
253.4181
20
102.4878
0
VERTEX
8
CUT
10
253.4578
20
102.4200
0
VERTEX
8
CUT
10
253.5616
20
102.2259
0
VERTEX
8
CUT
10
254.2744
20
101.0508
0
VERTEX
8
CUT
10
254.4603
20
100.7849
0
VERTEX
8
CUT
10
255.0126
20
100.0950
0
VERTEX
8
CUT
10
255.1770
20
99.8522
0
VERTEX
8
CUT
10
255.3374
20
99.6405
0
VERTEX
8
CUT
10
256.0836
20
98.7571
0
VERTEX
8
CUT
10
256.5171
20
98.2156
0
VERTEX
8
CUT
10
256.6777
20
98.0339
0
VERTEX
8
CUT
10
256.7573
20
97.9597
0
VERTEX
8
CUT
10
256.8545
20
97.8447
0
VERTEX
8
CUT
10
256.9909
20
97.6957
0
VERTEX
8
CUT
10
257.1390
20
97.5583
0
VERTEX
8
CUT
10
259.1903
20
95.8034
0
VERTEX
8
CUT
10
259.3688
20
95.6641
0
VERTEX
8
CUT
10
259.9587
20
95.2456
0
VERTEX
8
CUT
10
260.2673
20
94.9848
0
VERTEX
8
CUT
10
260.4226
20
94.8637
0
VERTEX
8
CUT
10
260.5870
20
94.7552
0
VERTEX
8
CUT
10
261.0138
20
94.4970
0
VERTEX
8
CUT
10
261.9678
20
93.8202
0
VERTEX
8
CUT
10
262.1903
20
93.6793
0
VERTEX
8
CUT
10
264.4407
20
92.4155
0
VERTEX
8
CUT
10
264.6667
20
92.3032
0
VERTEX
8
CUT
10
264.7105
20
92.2841
0
VERTEX
8
CUT
10
264.7417
20
92.2680
0
VERTEX
8
CUT
10
268.9193
20
90.4513
0
VERTEX
8
CUT
10
269.1259
20
90.3721
0
VERTEX
8
CUT
10
269.1265
20
90.3719
0
VERTEX
8
CUT
10
274.6000
20
88.5480
0
VERTEX
8
CUT
10
274.8532
20
88.4782
0
VERTEX
8
CUT
10
274.9789
20
88.4573
0
VERTEX
8
CUT
10
275.1123
20
88.4353
0
VERTEX
8
CUT
10
275.4251
20
88.4003
0
VERTEX
8
CUT
10
275.5509
20
88.3862
0
VERTEX
8
CUT
10
275.5573
20
88.3853
0
VERTEX
8
CUT
10
275.5692
20
88.3837
0
VERTEX
8
CUT
10
275.6082
20
88.3754
0
VERTEX
8
CUT
10
275.6462
20
88.3632
0
VERTEX
8
CUT
10
275.6633
20
88.3563
0
VERTEX
8
CUT
10
277.2121
20
87.6882
0
VERTEX
8
CUT
10
277.4514
20
87.5992
0
VERTEX
8
CUT
10
281.1389
20
86.4378
0
VERTEX
8
CUT
10
281.1961
20
86.4182
0
VERTEX
8
CUT
10
281.2145
20
86.4108
0
VERTEX
8
CUT
10
281.2522
20
86.3958
0
VERTEX
8
CUT
10
283.2234
20
85.5472
0
VERTEX
8
CUT
10
285.0379
20
84.7662
0
VERTEX
8
CUT
10
285.0427
20
84.7640
0
VERTEX
8
CUT
10
285.0534
20
84.7583
0
VERTEX
8
CUT
10
285.0872
20
84.7405
0
VERTEX
8
CUT
10
285.0982
20
84.7333
0
VERTEX
8
CUT
10
285.1090
20
84.7263
0
VERTEX
8
CUT
10
285.1278
20
84.7124
0
VERTEX
8
CUT
10
285.4483
20
84.4637
0
VERTEX
8
CUT
10
285.5103
20
84.4204
0
VERTEX
8
CUT
10
285.6554
20
84.3190
0
VERTEX
8
CUT
10
285.7648
20
84.2581
0
VERTEX
8
CUT
10
285.8761
20
84.1960
0
VERTEX
8
CUT
10
286.4512
20
83.9126
0
VERTEX
8
CUT
10
287.4812
20
83.4050
0
VERTEX
8
CUT
10
287.7089
20
83.3066
0
VERTEX
8
CUT
10
287.9452
20
83.2311
0
VERTEX
8
CUT
10
288.1878
20
83.1795
0
VERTEX
8
CUT
10
288.4344
20
83.1521
0
VERTEX
8
CUT
10
288.6825
20
83.1494
0
VERTEX
8
CUT
10
288.9296
20
83.1712
0
VERTEX
8
CUT
10
289.1733
20
83.2174
0
VERTEX
8
CUT
10
289.4113
20
83.2876
0
VERTEX
8
CUT
10
289.5204
20
83.3319
0
VERTEX
8
CUT
10
289.6411
20
83.3810
0
VERTEX
8
CUT
10
289.8606
20
83.4967
0
VERTEX
8
CUT
10
290.0675
20
83.6336
0
VERTEX
8
CUT
10
290.2598
20
83.7903
0
VERTEX
8
CUT
10
290.4356
20
83.9653
0
VERTEX
8
CUT
10
290.5643
20
84.1216
0
VERTEX
8
CUT
10
290.5932
20
84.1569
0
VERTEX
8
CUT
10
290.7311
20
84.3631
0
VERTEX
8
CUT
10
290.8478
20
84.5820
0
VERTEX
8
CUT
10
290.9423
20
84.8114
0
VERTEX
8
CUT
10
291.0136
20
85.0490
0
VERTEX
8
CUT
10
291.0609
20
85.2926
0
VERTEX
8
CUT
10
291.0839
20
85.5396
0
VERTEX
8
CUT
10
291.4213
20
93.3441
0
VERTEX
8
CUT
10
291.4231
20
93.4000
0
VERTEX
8
CUT
10
291.8459
20
113.7049
0
VERTEX
8
CUT
10
291.8461
20
113.7206
0
VERTEX
8
CUT
10
291.8464
20
113.7489
0
VERTEX
8
CUT
10
291.8842
20
125.4164
0
VERTEX
8
CUT
10
291.8842
20
125.4165
0
VERTEX
8
CUT
10
291.8843
20
125.4460
0
VERTEX
8
CUT
10
291.8842
20
125.4480
0
VERTEX
8
CUT
10
291.9634
20
149.9885
0
VERTEX
8
CUT
10
291.9634
20
150.0046
0
VERTEX
8
CUT
10
291.8467
20
186.2311
0
VERTEX
8
CUT
10
291.8461
20
186.2751
0
VERTEX
8
CUT
10
291.8117
20
187.9314
0
VERTEX
8
CUT
10
291.8083
20
188.0942
0
VERTEX
8
CUT
10
291.4231
20
206.6000
0
VERTEX
8
CUT
10
291.4222
20
206.6274
0
VERTEX
8
CUT
10
291.4213
20
206.6559
0
VERTEX
8
CUT
10
291.0299
20
215.7173
0
VERTEX
8
CUT
10
291.0293
20
215.7275
0
VERTEX
8
CUT
10
291.0269
20
215.7717
0
VERTEX
8
CUT
10
290.6699
20
221.2597
0
VERTEX
8
CUT
10
290.4812
20
224.1593
0
VERTEX
8
CUT
10
290.4756
20
224.2306
0
VERTEX
8
CUT
10
290.0613
20
228.6447
0
VERTEX
8
CUT
10
290.0335
20
228.8388
0
VERTEX
8
CUT
10
290.0267
20
228.8859
0
VERTEX
8
CUT
10
290.0130
20
228.9422
0
VERTEX
8
CUT
10
289.9689
20
229.1225
0
VERTEX
8
CUT
10
289.8979
20
229.3248
0
VERTEX
8
CUT
10
289.8883
20
229.3524
0
VERTEX
8
CUT
10
289.8752
20
229.3805
0
VERTEX
8
CUT
10
289.8752
20
229.3806
0
VERTEX
8
CUT
10
289.7857
20
229.5733
0
VERTEX
8
CUT
10
289.6620
20
229.7832
0
VERTEX
8
CUT
10
289.5186
20
229.9801
0
VERTEX
8
CUT
10
289.3865
20
230.1286
0
VERTEX
8
CUT
10
289.3566
20
230.1621
0
VERTEX
8
CUT
10
289.2844
20
230.2289
0
VERTEX
8
CUT
10
289.1777
20
230.3275
0
VERTEX
8
CUT
10
289.1151
20
230.3749
0
VERTEX
8
CUT
10
288.9836
20
230.4746
0
VERTEX
8
CUT
10
288.8719
20
230.5433
0
VERTEX
8
CUT
10
288.7761
20
230.6022
0
VERTEX
8
CUT
10
288.5571
20
230.7089
0
VERTEX
8
CUT
10
288.3288
20
230.7939
0
VERTEX
8
CUT
10
288.2260
20
230.8211
0
VERTEX
8
CUT
10
288.0933
20
230.8562
0
VERTEX
8
CUT
10
287.8936
20
230.8887
0
VERTEX
8
CUT
10
287.8528
20
230.8953
0
VERTEX
8
CUT
10
287.8015
20
230.8986
0
VERTEX
8
CUT
10
287.6097
20
230.9108
0
VERTEX
8
CUT
10
287.3662
20
230.9026
0
VERTEX
8
CUT
10
287.1247
20
230.8707
0
VERTEX
8
CUT
10
286.8875
20
230.8155
0
VERTEX
8
CUT
10
286.6567
20
230.7374
0
VERTEX
8
CUT
10
286.6203
20
230.7231
0
VERTEX
8
CUT
10
286.6047
20
230.7174
0
VERTEX
8
CUT
10
286.5699
20
230.7072
0
VERTEX
8
CUT
10
286.5459
20
230.7024
0
VERTEX
8
CUT
10
286.5343
20
230.7001
0
VERTEX
8
CUT
10
286.5182
20
230.6980
0
VERTEX
8
CUT
10
283.7419
20
230.3986
0
VERTEX
8
CUT
10
283.6070
20
230.3785
0
VERTEX
8
CUT
10
283.5390
20
230.3683
0
VERTEX
8
CUT
10
283.3393
20
230.3214
0
VERTEX
8
CUT
10
283.2199
20
230.2828
0
VERTEX
8
CUT
10
283.2198
20
230.2828
0
VERTEX
8
CUT
10
283.1441
20
230.2584
0
VERTEX
8
CUT
10
282.5368
20
230.0341
0
VERTEX
8
CUT
10
282.5367
20
230.0341
0
VERTEX
8
CUT
10
281.4550
20
229.6348
0
VERTEX
8
CUT
10
281.4388
20
229.6293
0
VERTEX
8
CUT
10
281.4030
20
229.6196
0
VERTEX
8
CUT
10
281.3663
20
229.6133
0
VERTEX
8
CUT
10
281.3498
20
229.6116
0
VERTEX
8
CUT
10
281.2885
20
229.6067
0
VERTEX
8
CUT
10
280.8073
20
229.5683
0
VERTEX
8
CUT
10
280.6588
20
229.5479
0
VERTEX
8
CUT
10
280.5279
20
229.5300
0
VERTEX
8
CUT
10
280.3801
20
229.4924
0
VERTEX
8
CUT
10
280.2545
20
229.4604
0
VERTEX
8
CUT
10
279.9907
20
229.3605
0
VERTEX
8
CUT
10
279.4231
20
229.1081
0
VERTEX
8
CUT
10
279.4230
20
229.1081
0
VERTEX
8
CUT
10
279.4229
20
229.1080
0
VERTEX
8
CUT
10
278.1108
20
228.5245
0
VERTEX
8
CUT
10
278.0935
20
228.5173
0
VERTEX
8
CUT
10
278.0552
20
228.5047
0
VERTEX
8
CUT
10
278.0245
20
228.4979
0
VERTEX
8
CUT
10
278.0159
20
228.4960
0
VERTEX
8
CUT
10
277.9974
20
228.4933
0
VERTEX
8
CUT
10
277.8163
20
228.4715
0
VERTEX
8
CUT
10
277.5559
20
228.4262
0
VERTEX
8
CUT
10
277.3525
20
228.3681
0
VERTEX
8
CUT
10
277.3017
20
228.3535
0
VERTEX
8
CUT
10
277.2670
20
228.3396
0
VERTEX
8
CUT
10
277.0565
20
228.2545
0
VERTEX
8
CUT
10
276.8233
20
228.1301
0
VERTEX
8
CUT
10
276.1136
20
227.7021
0
VERTEX
8
CUT
10
275.7000
20
227.4526
0
VERTEX
8
CUT
10
275.6832
20
227.4431
0
VERTEX
8
CUT
10
275.6455
20
227.4254
0
VERTEX
8
CUT
10
275.6066
20
227.4162
0
VERTEX
8
CUT
10
275.6051
20
227.4158
0
VERTEX
8
CUT
10
275.5978
20
227.4147
0
VERTEX
8
CUT
10
275.5859
20
227.4128
0
VERTEX
8
CUT
10
275.2459
20
227.3688
0
VERTEX
8
CUT
10
275.0086
20
227.3244
0
VERTEX
8
CUT
10
274.9707
20
227.3173
0
VERTEX
8
CUT
10
274.7030
20
227.2354
0
VERTEX
8
CUT
10
274.4461
20
227.1241
0
VERTEX
8
CUT
10
273.9142
20
226.8572
0
VERTEX
8
CUT
10
273.7448
20
226.7639
0
VERTEX
8
CUT
10
273.5831
20
226.6577
0
VERTEX
8
CUT
10
273.2982
20
226.4544
0
VERTEX
8
CUT
10
272.4166
20
225.8254
0
VERTEX
8
CUT
10
272.4021
20
225.8155
0
VERTEX
8
CUT
10
272.3736
20
225.7989
0
VERTEX
8
CUT
10
272.3697
20
225.7967
0
VERTEX
8
CUT
10
272.3598
20
225.7932
0
VERTEX
8
CUT
10
272.3342
20
225.7841
0
VERTEX
8
CUT
10
272.3174
20
225.7795
0
VERTEX
8
CUT
10
272.2446
20
225.7611
0
VERTEX
8
CUT
10
272.2235
20
225.7558
0
VERTEX
8
CUT
10
272.1128
20
225.7223
0
VERTEX
8
CUT
10
272.0004
20
225.6884
0
VERTEX
8
CUT
10
271.7844
20
225.6004
0
VERTEX
8
CUT
10
271.5776
20
225.4927
0
VERTEX
8
CUT
10
271.5562
20
225.4789
0
VERTEX
8
CUT
10
271.3817
20
225.3662
0
VERTEX
8
CUT
10
271.1774
20
225.2203
0
VERTEX
8
CUT
10
270.4378
20
224.6922
0
VERTEX
8
CUT
10
270.4343
20
224.6899
0
VERTEX
8
CUT
10
270.4334
20
224.6893
0
VERTEX
8
CUT
10
270.3649
20
224.6481
0
VERTEX
8
CUT
10
270.3636
20
224.6474
0
VERTEX
8
CUT
10
270.3487
20
224.6397
0
VERTEX
8
CUT
10
269.1491
20
224.0540
0
VERTEX
8
CUT
10
268.8627
20
223.8900
0
VERTEX
8
CUT
10
256.2913
20
215.5401
0
VERTEX
8
CUT
10
256.2792
20
215.5326
0
VERTEX
8
CUT
10
256.2287
20
215.5012
0
VERTEX
8
CUT
10
256.1638
20
215.4663
0
VERTEX
8
CUT
10
255.6974
20
215.2337
0
VERTEX
8
CUT
10
253.5279
20
214.1518
0
VERTEX
8
CUT
10
253.4516
20
214.1170
0
VERTEX
8
CUT
10
253.3731
20
214.0877
0
VERTEX
8
CUT
10
251.7162
20
213.5352
0
VERTEX
8
CUT
10
251.7161
20
213.5352
0
VERTEX
8
CUT
10
251.7160
20
213.5351
0
VERTEX
8
CUT
10
251.7158
20
213.5351
0
VERTEX
8
CUT
10
250.1447
20
213.0111
0
VERTEX
8
CUT
10
250.1423
20
213.0104
0
VERTEX
8
CUT
10
250.0836
20
212.9926
0
VERTEX
8
CUT
10
250.0508
20
212.9845
0
VERTEX
8
CUT
10
250.0217
20
212.9773
0
VERTEX
8
CUT
10
249.1272
20
212.7821
0
VERTEX
8
CUT
10
249.1271
20
212.7821
0
VERTEX
8
CUT
10
247.5649
20
212.4412
0
VERTEX
8
CUT
10
247.5479
20
212.4380
0
VERTEX
8
CUT
10
247.5453
20
212.4375
0
VERTEX
8
CUT
10
247.4601
20
212.4281
0
VERTEX
8
CUT
10
247.4403
20
212.4276
0
VERTEX
8
CUT
10
244.7858
20
212.4180
0
VERTEX
8
CUT
10
244.7795
20
212.4182
0
VERTEX
8
CUT
10
244.7634
20
212.4186
0
VERTEX
8
CUT
10
244.6671
20
212.4298
0
VERTEX
8
CUT
10
244.6451
20
212.4344
0
VERTEX
8
CUT
10
243.6666
20
212.6693
0
VERTEX
8
CUT
10
242.3943
20
212.9747
0
VERTEX
8
CUT
10
242.3737
20
212.9802
0
VERTEX
8
CUT
10
242.2873
20
213.0117
0
VERTEX
8
CUT
10
242.2842
20
213.0131
0
VERTEX
8
CUT
10
242.2680
20
213.0206
0
VERTEX
8
CUT
10
240.1109
20
214.0956
0
VERTEX
8
CUT
10
240.0952
20
214.1039
0
VERTEX
8
CUT
10
240.0774
20
214.1149
0
VERTEX
8
CUT
10
240.0629
20
214.1240
0
VERTEX
8
CUT
10
240.0326
20
214.1471
0
VERTEX
8
CUT
10
240.0259
20
214.1529
0
VERTEX
8
CUT
10
240.0193
20
214.1587
0
VERTEX
8
CUT
10
239.2122
20
214.9029
0
VERTEX
8
CUT
10
239.0272
20
215.0735
0
VERTEX
8
CUT
10
239.0123
20
215.0880
0
VERTEX
8
CUT
10
238.9537
20
215.1554
0
VERTEX
8
CUT
10
238.9415
20
215.1721
0
VERTEX
8
CUT
10
237.6668
20
217.0126
0
VERTEX
8
CUT
10
237.6572
20
217.0272
0
VERTEX
8
CUT
10
237.6568
20
217.0278
0
VERTEX
8
CUT
10
237.6377
20
217.0621
0
VERTEX
8
CUT
10
237.6339
20
217.0708
0
VERTEX
8
CUT
10
237.6220
20
217.0981
0
VERTEX
8
CUT
10
237.6174
20
217.1111
0
VERTEX
8
CUT
10
237.6159
20
217.1153
0
VERTEX
8
CUT
10
237.5578
20
217.2940
0
VERTEX
8
CUT
10
237.4275
20
217.6948
0
VERTEX
8
CUT
10
237.4270
20
217.6961
0
VERTEX
8
CUT
10
237.0796
20
218.7643
0
VERTEX
8
CUT
10
237.0796
20
218.7645
0
VERTEX
8
CUT
10
237.0796
20
218.7646
0
VERTEX
8
CUT
10
237.0795
20
218.7646
0
VERTEX
8
CUT
10
237.0741
20
218.7828
0
VERTEX
8
CUT
10
237.0655
20
218.8227
0
VERTEX
8
CUT
10
237.0609
20
218.8633
0
VERTEX
8
CUT
10
237.0602
20
218.8822
0
VERTEX
8
CUT
10
237.0198
20
222.4486
0
VERTEX
8
CUT
10
237.0205
20
222.4575
0
VERTEX
8
CUT
10
237.0272
20
222.4951
0
VERTEX
8
CUT
10
237.0316
20
222.5122
0
VERTEX
8
CUT
10
238.1587
20
226.5698
0
VERTEX
8
CUT
10
238.1638
20
226.5867
0
VERTEX
8
CUT
10
238.1847
20
226.6413
0
VERTEX
8
CUT
10
238.2099
20
226.6970
0
VERTEX
8
CUT
10
238.8456
20
227.9838
0
VERTEX
8
CUT
10
238.8456
20
227.9839
0
VERTEX
8
CUT
10
239.2782
20
228.8594
0
VERTEX
8
CUT
10
239.2860
20
228.8745
0
VERTEX
8
CUT
10
239.2961
20
228.8943
0
VERTEX
8
CUT
10
239.3152
20
228.9286
0
VERTEX
8
CUT
10
239.6777
20
229.5548
0
VERTEX
8
CUT
10
240.0970
20
230.2793
0
VERTEX
8
CUT
10
240.0971
20
230.2793
0
VERTEX
8
CUT
10
240.3960
20
230.7957
0
VERTEX
8
CUT
10
240.4028
20
230.8069
0
VERTEX
8
CUT
10
240.4235
20
230.8409
0
VERTEX
8
CUT
10
240.4529
20
230.8848
0
VERTEX
8
CUT
10
242.0538
20
233.1587
0
VERTEX
8
CUT
10
242.4311
20
233.6947
0
VERTEX
8
CUT
10
242.4632
20
233.7380
0
VERTEX
8
CUT
10
242.4971
20
233.7799
0
VERTEX
8
CUT
10
243.2408
20
234.6561
0
VERTEX
8
CUT
10
245.7272
20
237.5852
0
VERTEX
8
CUT
10
245.8518
20
237.7320
0
VERTEX
8
CUT
10
246.7410
20
238.7796
0
VERTEX
8
CUT
10
246.7411
20
238.7797
0
VERTEX
8
CUT
10
246.7412
20
238.7798
0
VERTEX
8
CUT
10
247.0483
20
239.1416
0
VERTEX
8
CUT
10
247.0485
20
239.1418
0
VERTEX
8
CUT
10
247.0684
20
239.1647
0
VERTEX
8
CUT
10
247.0871
20
239.1851
0
VERTEX
8
CUT
10
247.0891
20
239.1873
0
VERTEX
8
CUT
10
257.3989
20
250.1401
0
VERTEX
8
CUT
10
257.4667
20
250.2151
0
VERTEX
8
CUT
10
261.1014
20
254.4037
0
VERTEX
8
CUT
10
261.1014
20
254.4038
0
VERTEX
8
CUT
10
261.1015
20
254.4038
0
VERTEX
8
CUT
10
262.8353
20
256.4018
0
VERTEX
8
CUT
10
262.8569
20
256.4282
0
VERTEX
8
CUT
10
262.9238
20
256.5098
0
VERTEX
8
CUT
10
267.5222
20
262.4489
0
VERTEX
8
CUT
10
267.6451
20
262.6076
0
VERTEX
8
CUT
10
267.7335
20
262.7293
0
VERTEX
8
CUT
10
270.0990
20
266.1970
0
VERTEX
8
CUT
10
270.0991
20
266.1971
0
VERTEX
8
CUT
10
270.0991
20
266.1972
0
VERTEX
8
CUT
10
272.3629
20
269.5159
0
VERTEX
8
CUT
10
272.4254
20
269.6147
0
VERTEX
8
CUT
10
272.4570
20
269.6648
0
VERTEX
8
CUT
10
273.7591
20
271.8964
0
VERTEX
8
CUT
10
273.8454
20
272.0625
0
VERTEX
8
CUT
10
273.8723
20
272.1143
0
VERTEX
8
CUT
10
273.9635
20
272.3422
0
VERTEX
8
CUT
10
274.0320
20
272.5779
0
VERTEX
8
CUT
10
274.0360
20
272.5992
0
VERTEX
8
CUT
10
274.0770
20
272.8193
0
VERTEX
8
CUT
10
274.0906
20
272.9765
0
VERTEX
8
CUT
10
274.0981
20
273.0638
0
VERTEX
8
CUT
10
274.0968
20
273.1716
0
VERTEX
8
CUT
10
274.0951
20
273.3093
0
VERTEX
8
CUT
10
274.0801
20
273.4452
0
VERTEX
8
CUT
10
274.0681
20
273.5533
0
VERTEX
8
CUT
10
274.0173
20
273.7935
0
VERTEX
8
CUT
10
273.9698
20
273.9435
0
VERTEX
8
CUT
10
273.9431
20
274.0275
0
VERTEX
8
CUT
10
273.9041
20
274.1185
0
VERTEX
8
CUT
10
273.8464
20
274.2531
0
VERTEX
8
CUT
10
273.7280
20
274.4682
0
VERTEX
8
CUT
10
273.5891
20
274.6706
0
VERTEX
8
CUT
10
273.4310
20
274.8584
0
VERTEX
8
CUT
10
273.2552
20
275.0298
0
VERTEX
8
CUT
10
270.7585
20
277.2359
0
VERTEX
8
CUT
10
270.5183
20
277.4233
0
VERTEX
8
CUT
10
266.7280
20
280.0263
0
VERTEX
8
CUT
10
266.4871
20
280.1725
0
VERTEX
8
CUT
10
265.6132
20
280.6375
0
VERTEX
8
CUT
10
262.2596
20
282.4221
0
VERTEX
8
CUT
10
262.0356
20
282.5274
0
VERTEX
8
CUT
10
258.2612
20
284.0788
0
VERTEX
8
CUT
10
257.3266
20
284.4630
0
VERTEX
8
CUT
10
257.2680
20
284.4842
0
VERTEX
8
CUT
10
257.1271
20
284.5353
0
VERTEX
8
CUT
10
251.8131
20
286.2087
0
VERTEX
8
CUT
10
251.7477
20
286.2268
0
VERTEX
8
CUT
10
251.6423
20
286.2559
0
VERTEX
8
CUT
10
248.8434
20
286.9235
0
VERTEX
8
CUT
10
245.7864
20
287.6528
0
VERTEX
8
CUT
10
245.6464
20
287.6819
0
VERTEX
8
CUT
10
245.6463
20
287.6819
0
VERTEX
8
CUT
10
245.6454
20
287.6821
0
VERTEX
8
CUT
10
239.2094
20
288.8304
0
VERTEX
8
CUT
10
239.1800
20
288.8349
0
VERTEX
8
CUT
10
239.0950
20
288.8480
0
VERTEX
8
CUT
10
235.7541
20
289.2856
0
VERTEX
8
CUT
10
232.0035
20
289.7769
0
VERTEX
8
CUT
10
231.9625
20
289.7815
0
VERTEX
8
CUT
10
231.9123
20
289.7871
0
VERTEX
8
CUT
10
224.1950
20
290.5112
0
VERTEX
8
CUT
10
224.1334
20
290.5160
0
VERTEX
8
CUT
10
224.1238
20
290.5168
0
VERTEX
8
CUT
10
223.5982
20
290.5510
0
VERTEX
8
CUT
10
223.5980
20
290.5510
0
VERTEX
8
CUT
10
221.1362
20
290.7113
0
VERTEX
8
CUT
10
220.5125
20
290.7519
0
VERTEX
8
CUT
10
219.0844
20
290.8448
0
VERTEX
8
CUT
10
215.7609
20
291.0612
0
VERTEX
8
CUT
10
215.7064
20
291.0641
0
VERTEX
8
CUT
10
212.4355
20
291.2055
0
VERTEX
8
CUT
10
206.6203
20
291.4569
0
VERTEX
8
CUT
10
206.5731
20
291.4584
0
VERTEX
8
CUT
10
206.5644
20
291.4587
0
VERTEX
8
CUT
10
203.7159
20
291.5180
0
VERTEX
8
CUT
10
195.8600
20
291.6816
0
VERTEX
8
CUT
10
186.2595
20
291.8815
0
VERTEX
8
CUT
10
186.2155
20
291.8820
0
VERTEX
8
CUT
10
179.5049
20
291.9038
0
VERTEX
8
CUT
10
179.4140
20
291.9041
0
VERTEX
8
CUT
10
179.4119
20
291.9040
0
VERTEX
8
CUT
10
162.5089
20
291.9586
0
VERTEX
8
CUT
10
162.5080
20
291.9585
0
VERTEX
8
CUT
10
149.9759
20
291.9990
0
VERTEX
8
CUT
10
149.9598
20
291.9990
0
VERTEX
8
CUT
10
132.5243
20
291.9428
0
VERTEX
8
CUT
10
132.5240
20
291.9428
0
VERTEX
8
CUT
10
113.7333
20
291.8823
0
VERTEX
8
CUT
10
113.6893
20
291.8817
0
VERTEX
8
CUT
10
93.3644
20
291.4587
0
VERTEX
8
CUT
10
93.3085
20
291.4569
0
VERTEX
8
CUT
10
84.2471
20
291.0655
0
VERTEX
8
CUT
10
84.1927
20
291.0625
0
VERTEX
8
CUT
10
75.8051
20
290.5168
0
VERTEX
8
CUT
10
75.7338
20
290.5111
0
VERTEX
8
CUT
10
68.0025
20
289.7856
0
VERTEX
8
CUT
10
67.9114
20
289.7753
0
VERTEX
8
CUT
10
60.8514
20
288.8508
0
VERTEX
8
CUT
10
60.7369
20
288.8330
0
VERTEX
8
CUT
10
54.2619
20
287.6776
0
VERTEX
8
CUT
10
54.1207
20
287.6482
0
VERTEX
8
CUT
10
48.4841
20
286.3031
0
VERTEX
8
CUT
10
48.2864
20
286.2559
0
VERTEX
8
CUT
10
48.1158
20
286.2087
0
VERTEX
8
CUT
10
42.8017
20
284.5353
0
VERTEX
8
CUT
10
42.6022
20
284.4630
0
VERTEX
8
CUT
10
37.8937
20
282.5276
0
VERTEX
8
CUT
10
37.6687
20
282.4218
0
VERTEX
8
CUT
10
33.4043
20
280.1499
0
VERTEX
8
CUT
10
33.1647
20
280.0044
0
VERTEX
8
CUT
10
30.1487
20
277.9336
0
VERTEX
8
CUT
10
29.4466
20
277.4515
0
VERTEX
8
CUT
10
29.2074
20
277.2650
0
VERTEX
8
CUT
10
27.4651
20
275.7273
0
VERTEX
8
CUT
10
25.8887
20
274.3360
0
VERTEX
8
CUT
10
25.8500
20
274.3019
0
VERTEX
8
CUT
10
25.7160
20
274.1678
0
VERTEX
8
CUT
10
25.7124
20
274.1643
0
VERTEX
8
CUT
10
25.7119
20
274.1637
0
VERTEX
8
CUT
10
25.6289
20
274.0806
0
VERTEX
8
CUT
10
22.6993
20
270.7570
0
VERTEX
8
CUT
10
22.5131
20
270.5179
0
VERTEX
8
CUT
10
19.9376
20
266.7630
0
VERTEX
8
CUT
10
19.7923
20
266.5234
0
VERTEX
8
CUT
10
17.5425
20
262.2955
0
VERTEX
8
CUT
10
17.4369
20
262.0709
0
VERTEX
8
CUT
10
15.4903
20
257.3316
0
VERTEX
8
CUT
10
15.4181
20
257.1321
0
VERTEX
8
CUT
10
13.7556
20
251.8484
0
VERTEX
8
CUT
10
13.7086
20
251.6782
0
VERTEX
8
CUT
10
12.3117
20
245.8220
0
VERTEX
8
CUT
10
12.2823
20
245.6809
0
VERTEX
8
CUT
10
11.1314
20
239.2275
0
VERTEX
8
CUT
10
11.1137
20
239.1131
0
VERTEX
8
CUT
10
10.1875
20
232.0390
0
VERTEX
8
CUT
10
10.1773
20
231.9480
0
VERTEX
8
CUT
10
9.4533
20
224.2306
0
VERTEX
8
CUT
10
9.4476
20
224.1594
0
VERTEX
8
CUT
10
8.9027
20
215.7863
0
VERTEX
8
CUT
10
8.8989
20
215.7107
0
VERTEX
8
CUT
10
8.2434
20
196.8367
0
VERTEX
8
CUT
10
8.2420
20
196.7777
0
VERTEX
8
CUT
10
8.0002
20
174.9803
0
VERTEX
8
CUT
10
8.0001
20
174.9526
0
VERTEX
8
CUT
10
8.0000
20
125.0572
0
VERTEX
8
CUT
10
8.0003
20
125.0172
0
VERTEX
8
CUT
10
8.0438
20
122.3011
0
VERTEX
8
CUT
10
8.3671
20
102.0830
0
VERTEX
8
CUT
10
8.3826
20
101.8424
0
VERTEX
8
CUT
10
8.4212
20
101.6044
0
VERTEX
8
CUT
10
8.4825
20
101.3713
0
VERTEX
8
CUT
10
8.5660
20
101.1451
0
VERTEX
8
CUT
10
8.6709
20
100.9280
0
SEQEND
0
POLYLINE
8
CUT
66
1
70
1
10
0.0
20
0.0
30
0.0
0
VERTEX
8
CUT
10
265.3144
20
29.6980
0
VERTEX
8
CUT
10
265.3292
20
29.6650
0
VERTEX
8
CUT
10
265.4070
20
29.4913
0
VERTEX
8
CUT
10
265.7797
20
28.7511
0
VERTEX
8
CUT
10
265.8809
20
28.5743
0
VERTEX
8
CUT
10
265.9124
20
28.5188
0
VERTEX
8
CUT
10
266.0651
20
28.3057
0
VERTEX
8
CUT
10
266.2394
20
28.1097
0
VERTEX
8
CUT
10
266.4415
20
27.9050
0
VERTEX
8
CUT
10
266.6173
20
27.7433
0
VERTEX
8
CUT
10
266.8078
20
27.5990
0
VERTEX
8
CUT
10
266.8349
20
27.5823
0
VERTEX
8
CUT
10
266.8405
20
27.5781
0
VERTEX
8
CUT
10
266.8974
20
27.5438
0
VERTEX
8
CUT
10
267.0112
20
27.4736
0
VERTEX
8
CUT
10
267.0240
20
27.4673
0
VERTEX
8
CUT
10
267.0476
20
27.4530
0
VERTEX
8
CUT
10
267.1935
20
27.3832
0
VERTEX
8
CUT
10
267.2659
20
27.3485
0
VERTEX
8
CUT
10
267.4310
20
27.2791
0
VERTEX
8
CUT
10
268.2543
20
26.9221
0
VERTEX
8
CUT
10
268.4988
20
26.8309
0
VERTEX
8
CUT
10
268.7515
20
26.7657
0
VERTEX
8
CUT
10
269.0096
20
26.7272
0
VERTEX
8
CUT
10
269.2703
20
26.7158
0
VERTEX
8
CUT
10
269.5308
20
26.7317
0
VERTEX
8
CUT
10
269.7882
20
26.7746
0
VERTEX
8
CUT
10
270.0397
20
26.8441
0
VERTEX
8
CUT
10
270.2356
20
26.9094
0
VERTEX
8
CUT
10
270.3559
20
26.9334
0
VERTEX
8
CUT
10
270.5857
20
27.0028
0
VERTEX
8
CUT
10
270.7268
20
27.0606
0
VERTEX
8
CUT
10
270.8077
20
27.0938
0
VERTEX
8
CUT
10
270.8843
20
27.1342
0
VERTEX
8
CUT
10
270.9355
20
27.1539
0
VERTEX
8
CUT
10
271.1415
20
27.2559
0
VERTEX
8
CUT
10
271.3372
20
27.3764
0
VERTEX
8
CUT
10
271.5210
20
27.5143
0
VERTEX
8
CUT
10
271.6914
20
27.6686
0
VERTEX
8
CUT
10
271.7556
20
27.7323
0
VERTEX
8
CUT
10
271.8729
20
27.8267
0
VERTEX
8
CUT
10
272.0451
20
27.9948
0
VERTEX
8
CUT
10
272.1741
20
28.1477
0
VERTEX
8
CUT
10
272.3903
20
28.3623
0
VERTEX
8
CUT
10
272.5749
20
28.5669
0
VERTEX
8
CUT
10
272.7358
20
28.7906
0
VERTEX
8
CUT
10
272.8712
20
29.0307
0
VERTEX
8
CUT
10
273.0007
20
29.2933
0
VERTEX
8
CUT
10
273.0931
20
29.5046
0
VERTEX
8
CUT
10
273.1635
20
29.7171
0
VERTEX
8
CUT
10
273.1695
20
29.7350
0
VERTEX
8
CUT
10
273.2229
20
29.9643
0
VERTEX
8
CUT
10
273.2545
20
30.1975
0
VERTEX
8
CUT
10
273.2640
20
30.4327
0
VERTEX
8
CUT
10
273.2573
20
31.4499
0
VERTEX
8
CUT
10
273.2451
20
31.6810
0
VERTEX
8
CUT
10
273.2116
20
31.9099
0
VERTEX
8
CUT
10
273.1570
20
32.1347
0
VERTEX
8
CUT
10
273.0819
20
32.3536
0
VERTEX
8
CUT
10
272.9869
20
32.5645
0
VERTEX
8
CUT
10
272.9849
20
32.5685
0
VERTEX
8
CUT
10
272.8574
20
32.8198
0
VERTEX
8
CUT
10
272.7256
20
33.0488
0
VERTEX
8
CUT
10
272.5704
20
33.2625
0
VERTEX
8
CUT
10
272.3935
20
33.4587
0
VERTEX
8
CUT
10
271.6284
20
34.2220
0
VERTEX
8
CUT
10
271.4399
20
34.3919
0
VERTEX
8
CUT
10
271.2351
20
34.5418
0
VERTEX
8
CUT
10
271.0162
20
34.6702
0
VERTEX
8
CUT
10
270.7853
20
34.7757
0
VERTEX
8
CUT
10
270.5450
20
34.8572
0
VERTEX
8
CUT
10
270.2976
20
34.9140
0
VERTEX
8
CUT
10
269.8144
20
34.9993
0
VERTEX
8
CUT
10
269.5752
20
35.0298
0
VERTEX
8
CUT
10
269.3343
20
35.0370
0
VERTEX
8
CUT
10
269.0937
20
35.0211
0
VERTEX
8
CUT
10
268.8558
20
34.9820
0
VERTEX
8
CUT
10
268.7259
20
34.9475
0
VERTEX
8
CUT
10
268.6228
20
34.9202
0
VERTEX
8
CUT
10
268.4632
20
34.8609
0
VERTEX
8
CUT
10
268.3968
20
34.8362
0
VERTEX
8
CUT
10
267.5481
20
34.4734
0
VERTEX
8
CUT
10
267.3364
20
34.3708
0
VERTEX
8
CUT
10
267.1353
20
34.2488
0
VERTEX
8
CUT
10
266.9465
20
34.1085
0
VERTEX
8
CUT
10
266.7718
20
33.9510
0
VERTEX
8
CUT
10
266.5924
20
33.7734
0
VERTEX
8
CUT
10
266.0019
20
33.1887
0
VERTEX
8
CUT
10
265.8657
20
33.0383
0
VERTEX
8
CUT
10
265.8196
20
32.9874
0
VERTEX
8
CUT
10
265.7433
20
32.8822
0
VERTEX
8
CUT
10
265.6603
20
32.7677
0
VERTEX
8
CUT
10
265.5257
20
32.5319
0
VERTEX
8
CUT
10
265.4472
20
32.3752
0
VERTEX
8
CUT
10
265.3975
20
32.2759
0
VERTEX
8
CUT
10
265.3936
20
32.2682
0
VERTEX
8
CUT
10
265.2982
20
32.0529
0
VERTEX
8
CUT
10
265.2234
20
31.8296
0
VERTEX
8
CUT
10
265.1700
20
31.6003
0
VERTEX
8
CUT
10
265.1384
20
31.3669
0
VERTEX
8
CUT
10
265.1289
20
31.1316
0
VERTEX
8
CUT
10
265.1324
20
30.6196
0
VERTEX
8
CUT
10
265.1444
20
30.3912
0
VERTEX
8
CUT
10
265.1772
20
30.1648
0
VERTEX
8
CUT
10
265.2306
20
29.9424
0
VERTEX
8
CUT
10
265.3041
20
29.7258
0
VERTEX
8
CUT
10
265.3074
20
29.7185
0
SEQEND
0
POLYLINE
8
CUT
66
1
70
1
10
0.0
20
0.0
30
0.0
0
VERTEX
8
CUT
10
259.8107
20
65.5422
0
VERTEX
8
CUT
10
260.3310
20
64.3308
0
VERTEX
8
CUT
10
260.3310
20
64.3307
0
VERTEX
8
CUT
10
260.3348
20
64.3219
0
VERTEX
8
CUT
10
260.4455
20
64.0962
0
VERTEX
8
CUT
10
260.5783
20
63.8828
0
VERTEX
8
CUT
10
260.5796
20
63.8809
0
VERTEX
8
CUT
10
260.9446
20
63.3551
0
VERTEX
8
CUT
10
261.0853
20
63.1713
0
VERTEX
8
CUT
10
261.1219
20
63.1316
0
VERTEX
8
CUT
10
261.1453
20
63.1016
0
VERTEX
8
CUT
10
261.3051
20
62.9316
0
VERTEX
8
CUT
10
261.7372
20
62.5129
0
VERTEX
8
CUT
10
261.7458
20
62.5045
0
VERTEX
8
CUT
10
261.7482
20
62.5023
0
VERTEX
8
CUT
10
261.7765
20
62.4749
0
VERTEX
8
CUT
10
261.8219
20
62.4356
0
VERTEX
8
CUT
10
261.9065
20
62.3591
0
VERTEX
8
CUT
10
261.9382
20
62.3351
0
VERTEX
8
CUT
10
261.9905
20
62.2898
0
VERTEX
8
CUT
10
262.0654
20
62.2386
0
VERTEX
8
CUT
10
262.0791
20
62.2283
0
VERTEX
8
CUT
10
262.0980
20
62.2164
0
VERTEX
8
CUT
10
262.2242
20
62.1301
0
VERTEX
8
CUT
10
262.4151
20
62.0291
0
VERTEX
8
CUT
10
262.4743
20
61.9978
0
VERTEX
8
CUT
10
263.1328
20
61.6960
0
VERTEX
8
CUT
10
264.6433
20
61.0036
0
VERTEX
8
CUT
10
264.8854
20
60.9076
0
VERTEX
8
CUT
10
265.1362
20
60.8373
0
VERTEX
8
CUT
10
265.3929
20
60.7934
0
VERTEX
8
CUT
10
265.6528
20
60.7765
0
VERTEX
8
CUT
10
266.1542
20
60.7700
0
VERTEX
8
CUT
10
266.2236
20
60.7691
0
VERTEX
8
CUT
10
266.4354
20
60.7754
0
VERTEX
8
CUT
10
266.6459
20
60.7996
0
VERTEX
8
CUT
10
266.7184
20
60.8142
0
VERTEX
8
CUT
10
266.8535
20
60.8414
0
VERTEX
8
CUT
10
267.4353
20
60.9847
0
VERTEX
8
CUT
10
267.5877
20
61.0317
0
VERTEX
8
CUT
10
267.7096
20
61.0692
0
VERTEX
8
CUT
10
267.9409
20
61.1708
0
VERTEX
8
CUT
10
267.9724
20
61.1846
0
VERTEX
8
CUT
10
268.9918
20
61.7040
0
VERTEX
8
CUT
10
269.2012
20
61.8248
0
VERTEX
8
CUT
10
269.2172
20
61.8340
0
VERTEX
8
CUT
10
269.2545
20
61.8611
0
VERTEX
8
CUT
10
269.4278
20
61.9867
0
VERTEX
8
CUT
10
269.6215
20
62.1605
0
VERTEX
8
CUT
10
270.8804
20
63.4149
0
VERTEX
8
CUT
10
271.0362
20
63.5851
0
VERTEX
8
CUT
10
271.1755
20
63.7689
0
VERTEX
8
CUT
10
271.2974
20
63.9647
0
VERTEX
8
CUT
10
271.3593
20
64.0883
0
VERTEX
8
CUT
10
271.3593
20
64.0884
0
VERTEX
8
CUT
10
271.4006
20
64.1710
0
VERTEX
8
CUT
10
271.4477
20
64.2916
0
VERTEX
8
CUT
10
271.4845
20
64.3859
0
VERTEX
8
CUT
10
272.0202
20
65.9720
0
VERTEX
8
CUT
10
272.0627
20
66.1247
0
VERTEX
8
CUT
10
272.0927
20
66.2326
0
VERTEX
8
CUT
10
272.1367
20
66.4995
0
VERTEX
8
CUT
10
272.1516
20
66.7696
0
VERTEX
8
CUT
10
272.1523
20
67.4298
0
VERTEX
8
CUT
10
272.1526
20
67.7597
0
VERTEX
8
CUT
10
272.1435
20
67.9378
0
VERTEX
8
CUT
10
272.1393
20
68.0197
0
VERTEX
8
CUT
10
272.0990
20
68.2770
0
VERTEX
8
CUT
10
272.0321
20
68.5287
0
VERTEX
8
CUT
10
271.9607
20
68.7163
0
VERTEX
8
CUT
10
271.9395
20
68.7721
0
VERTEX
8
CUT
10
271.2349
20
70.3674
0
VERTEX
8
CUT
10
271.1330
20
70.5723
0
VERTEX
8
CUT
10
271.0868
20
70.6471
0
VERTEX
8
CUT
10
271.0127
20
70.7670
0
VERTEX
8
CUT
10
270.8752
20
70.9499
0
VERTEX
8
CUT
10
270.7215
20
71.1194
0
VERTEX
8
CUT
10
270.0861
20
71.7589
0
VERTEX
8
CUT
10
269.6920
20
72.1556
0
VERTEX
8
CUT
10
269.5230
20
72.3107
0
VERTEX
8
CUT
10
269.3406
20
72.4497
0
VERTEX
8
CUT
10
269.1995
20
72.5379
0
VERTEX
8
CUT
10
269.1462
20
72.5713
0
VERTEX
8
CUT
10
268.9466
20
72.6721
0
VERTEX
8
CUT
10
268.9414
20
72.6747
0
VERTEX
8
CUT
10
268.6146
20
72.8212
0
VERTEX
8
CUT
10
267.3501
20
73.3883
0
VERTEX
8
CUT
10
267.3179
20
73.4007
0
VERTEX
8
CUT
10
267.1060
20
73.4827
0
VERTEX
8
CUT
10
266.8535
20
73.5511
0
VERTEX
8
CUT
10
266.5952
20
73.5927
0
VERTEX
8
CUT
10
266.3339
20
73.6071
0
VERTEX
8
CUT
10
266.3071
20
73.6072
0
VERTEX
8
CUT
10
265.4756
20
73.6094
0
VERTEX
8
CUT
10
265.3495
20
73.6020
0
VERTEX
8
CUT
10
265.1704
20
73.5916
0
VERTEX
8
CUT
10
265.0168
20
73.5635
0
VERTEX
8
CUT
10
264.8696
20
73.5365
0
VERTEX
8
CUT
10
264.5352
20
73.4540
0
VERTEX
8
CUT
10
264.2238
20
73.3771
0
VERTEX
8
CUT
10
264.1400
20
73.3527
0
VERTEX
8
CUT
10
264.0268
20
73.3198
0
VERTEX
8
CUT
10
263.8885
20
73.2669
0
VERTEX
8
CUT
10
263.8351
20
73.2465
0
VERTEX
8
CUT
10
263.4278
20
73.0713
0
VERTEX
8
CUT
10
262.5796
20
72.7064
0
VERTEX
8
CUT
10
262.3804
20
72.6095
0
VERTEX
8
CUT
10
262.3722
20
72.6055
0
VERTEX
8
CUT
10
262.1749
20
72.4860
0
VERTEX
8
CUT
10
262.0976
20
72.4288
0
VERTEX
8
CUT
10
261.9895
20
72.3488
0
VERTEX
8
CUT
10
261.8659
20
72.2383
0
VERTEX
8
CUT
10
261.8175
20
72.1951
0
VERTEX
8
CUT
10
261.2071
20
71.5967
0
VERTEX
8
CUT
10
261.0464
20
71.4187
0
VERTEX
8
CUT
10
261.0028
20
71.3704
0
VERTEX
8
CUT
10
260.8276
20
71.1209
0
VERTEX
8
CUT
10
260.5984
20
70.7483
0
VERTEX
8
CUT
10
260.5984
20
70.7482
0
VERTEX
8
CUT
10
260.3133
20
70.2845
0
VERTEX
8
CUT
10
260.2817
20
70.2260
0
VERTEX
8
CUT
10
260.1791
20
70.0359
0
VERTEX
8
CUT
10
260.0739
20
69.7737
0
VERTEX
8
CUT
10
259.9770
20
69.4863
0
VERTEX
8
CUT
10
259.9020
20
69.2637
0
VERTEX
8
CUT
10
259.8577
20
69.1083
0
VERTEX
8
CUT
10
259.8577
20
69.1082
0
VERTEX
8
CUT
10
259.8363
20
69.0330
0
VERTEX
8
CUT
10
259.6477
20
68.2244
0
VERTEX
8
CUT
10
259.6456
20
68.2154
0
VERTEX
8
CUT
10
259.6440
20
68.2084
0
VERTEX
8
CUT
10
259.6374
20
68.1702
0
VERTEX
8
CUT
10
259.6086
20
68.0182
0
VERTEX
8
CUT
10
259.6043
20
67.9770
0
VERTEX
8
CUT
10
259.5936
20
67.9142
0
VERTEX
8
CUT
10
259.5897
20
67.8353
0
VERTEX
8
CUT
10
259.5870
20
67.8096
0
VERTEX
8
CUT
10
259.5861
20
67.7647
0
VERTEX
8
CUT
10
259.5787
20
67.6162
0
VERTEX
8
CUT
10
259.5890
20
66.5561
0
VERTEX
8
CUT
10
259.6035
20
66.3102
0
VERTEX
8
CUT
10
259.6421
20
66.0670
0
VERTEX
8
CUT
10
259.7045
20
65.8287
0
VERTEX
8
CUT
10
259.7099
20
65.8143
0
VERTEX
8
CUT
10
259.7147
20
65.7960
0
VERTEX
8
CUT
10
259.7999
20
65.5675
0
VERTEX
8
CUT
10
259.8104
20
65.5429
0
SEQEND
0
POLYLINE
8
CUT
66
1
70
1
10
0.0
20
0.0
30
0.0
0
VERTEX
8
CUT
10
115.8354
20
52.3722
0
VERTEX
8
CUT
10
115.9671
20
52.2948
0
VERTEX
8
CUT
10
116.1715
20
52.1892
0
VERTEX
8
CUT
10
116.3881
20
52.0900
0
VERTEX
8
CUT
10
116.4325
20
52.0746
0
VERTEX
8
CUT
10
116.6132
20
52.0119
0
VERTEX
8
CUT
10
116.6777
20
51.9962
0
VERTEX
8
CUT
10
116.8447
20
51.9556
0
VERTEX
8
CUT
10
117.0805
20
51.9216
0
VERTEX
8
CUT
10
117.2208
20
51.9148
0
VERTEX
8
CUT
10
117.3184
20
51.9102
0
VERTEX
8
CUT
10
117.5464
20
51.9101
0
VERTEX
8
CUT
10
117.7767
20
51.9207
0
VERTEX
8
CUT
10
118.0051
20
51.9524
0
VERTEX
8
CUT
10
118.0495
20
51.9628
0
VERTEX
8
CUT
10
118.2296
20
52.0050
0
VERTEX
8
CUT
10
118.4483
20
52.0782
0
VERTEX
8
CUT
10
118.6021
20
52.1459
0
VERTEX
8
CUT
10
118.6593
20
52.1711
0
VERTEX
8
CUT
10
118.7615
20
52.2219
0
VERTEX
8
CUT
10
118.8802
20
52.2808
0
VERTEX
8
CUT
10
119.0829
20
52.3935
0
VERTEX
8
CUT
10
119.2742
20
52.5245
0
VERTEX
8
CUT
10
119.3271
20
52.5684
0
VERTEX
8
CUT
10
119.4526
20
52.6726
0
VERTEX
8
CUT
10
119.6165
20
52.8366
0
VERTEX
8
CUT
10
119.7645
20
53.0151
0
VERTEX
8
CUT
10
119.8766
20
53.1791
0
VERTEX
8
CUT
10
119.8953
20
53.2065
0
VERTEX
8
CUT
10
120.0078
20
53.4092
0
VERTEX
8
CUT
10
120.0492
20
53.4927
0
VERTEX
8
CUT
10
120.1202
20
53.6359
0
VERTEX
8
CUT
10
120.1897
20
53.7941
0
VERTEX
8
CUT
10
120.2132
20
53.8476
0
VERTEX
8
CUT
10
120.2863
20
54.0670
0
VERTEX
8
CUT
10
120.3388
20
54.2923
0
VERTEX
8
CUT
10
120.3703
20
54.5214
0
VERTEX
8
CUT
10
120.3804
20
54.7525
0
VERTEX
8
CUT
10
120.3802
20
54.8241
0
VERTEX
8
CUT
10
120.3685
20
55.0606
0
VERTEX
8
CUT
10
120.3344
20
55.2950
0
VERTEX
8
CUT
10
120.2782
20
55.5250
0
VERTEX
8
CUT
10
120.2006
20
55.7487
0
VERTEX
8
CUT
10
120.0310
20
56.1717
0
VERTEX
8
CUT
10
119.9665
20
56.3109
0
VERTEX
8
CUT
10
119.9217
20
56.4077
0
VERTEX
8
CUT
10
119.8058
20
56.6021
0
VERTEX
8
CUT
10
119.7885
20
56.6311
0
VERTEX
8
CUT
10
119.7624
20
56.6662
0
VERTEX
8
CUT
10
119.6329
20
56.8395
0
VERTEX
8
CUT
10
119.4564
20
57.0306
0
VERTEX
8
CUT
10
119.4133
20
57.0685
0
VERTEX
8
CUT
10
119.2610
20
57.2023
0
VERTEX
8
CUT
10
119.1467
20
57.2833
0
VERTEX
8
CUT
10
119.0488
20
57.3528
0
VERTEX
8
CUT
10
118.8222
20
57.4804
0
VERTEX
8
CUT
10
118.6492
20
57.5662
0
VERTEX
8
CUT
10
118.4422
20
57.6576
0
VERTEX
8
CUT
10
118.2278
20
57.7298
0
VERTEX
8
CUT
10
118.0077
20
57.7823
0
VERTEX
8
CUT
10
117.7838
20
57.8148
0
VERTEX
8
CUT
10
117.5579
20
57.8268
0
VERTEX
8
CUT
10
117.5468
20
57.8269
0
VERTEX
8
CUT
10
117.4901
20
57.8274
0
VERTEX
8
CUT
10
117.4898
20
57.8274
0
VERTEX
8
CUT
10
117.2468
20
57.8175
0
VERTEX
8
CUT
10
117.0059
20
57.7841
0
VERTEX
8
CUT
10
116.7694
20
57.7274
0
VERTEX
8
CUT
10
116.5395
20
57.6480
0
VERTEX
8
CUT
10
116.3184
20
57.5466
0
VERTEX
8
CUT
10
116.1082
20
57.4243
0
VERTEX
8
CUT
10
115.9108
20
57.2820
0
VERTEX
8
CUT
10
115.7283
20
57.1213
0
VERTEX
8
CUT
10
115.1931
20
56.6018
0
VERTEX
8
CUT
10
115.0012
20
56.3932
0
VERTEX
8
CUT
10
115.0000
20
56.3915
0
VERTEX
8
CUT
10
114.9971
20
56.3883
0
VERTEX
8
CUT
10
114.8300
20
56.1588
0
VERTEX
8
CUT
10
114.6899
20
55.9118
0
VERTEX
8
CUT
10
114.6745
20
55.8806
0
VERTEX
8
CUT
10
114.5737
20
55.6475
0
VERTEX
8
CUT
10
114.4970
20
55.4054
0
VERTEX
8
CUT
10
114.4454
20
55.1568
0
VERTEX
8
CUT
10
114.4192
20
54.9042
0
VERTEX
8
CUT
10
114.4189
20
54.7578
0
VERTEX
8
CUT
10
114.4187
20
54.6503
0
VERTEX
8
CUT
10
114.4440
20
54.3976
0
VERTEX
8
CUT
10
114.4949
20
54.1488
0
VERTEX
8
CUT
10
114.5246
20
54.0539
0
VERTEX
8
CUT
10
114.5707
20
53.9065
0
VERTEX
8
CUT
10
114.6707
20
53.6731
0
VERTEX
8
CUT
10
114.7938
20
53.4510
0
VERTEX
8
CUT
10
114.9389
20
53.2425
0
VERTEX
8
CUT
10
114.9397
20
53.2415
0
VERTEX
8
CUT
10
115.1380
20
52.9854
0
VERTEX
8
CUT
10
115.3158
20
52.7798
0
VERTEX
8
CUT
10
115.5149
20
52.5948
0
VERTEX
8
CUT
10
115.6411
20
52.5008
0
VERTEX
8
CUT
10
115.7328
20
52.4325
0
SEQEND
0
POLYLINE
8
CUT
66
1
70
1
10
0.0
20
0.0
30
0.0
0
VERTEX
8
CUT
10
87.0893
20
27.1771
0
VERTEX
8
CUT
10
87.1418
20
26.9544
0
VERTEX
8
CUT
10
87.5347
20
25.5733
0
VERTEX
8
CUT
10
87.6132
20
25.3412
0
VERTEX
8
CUT
10
87.7141
20
25.1180
0
VERTEX
8
CUT
10
87.7159
20
25.1144
0
VERTEX
8
CUT
10
87.8555
20
24.8417
0
VERTEX
8
CUT
10
87.9792
20
24.6002
0
VERTEX
8
CUT
10
88.1090
20
24.3761
0
VERTEX
8
CUT
10
88.2613
20
24.1667
0
VERTEX
8
CUT
10
88.4345
20
23.9741
0
VERTEX
8
CUT
10
89.9041
20
22.5008
0
VERTEX
8
CUT
10
89.9383
20
22.4702
0
VERTEX
8
CUT
10
90.1191
20
22.3087
0
VERTEX
8
CUT
10
90.3549
20
22.1427
0
VERTEX
8
CUT
10
91.1903
20
21.6238
0
VERTEX
8
CUT
10
91.3910
20
21.5151
0
VERTEX
8
CUT
10
91.4522
20
21.4819
0
VERTEX
8
CUT
10
91.5052
20
21.4610
0
VERTEX
8
CUT
10
91.7292
20
21.3723
0
VERTEX
8
CUT
10
91.9540
20
21.2984
0
VERTEX
8
CUT
10
92.2068
20
21.2298
0
VERTEX
8
CUT
10
92.4653
20
21.1880
0
VERTEX
8
CUT
10
92.7269
20
21.1736
0
VERTEX
8
CUT
10
94.4394
20
21.1685
0
VERTEX
8
CUT
10
94.6183
20
21.1775
0
VERTEX
8
CUT
10
94.7058
20
21.1819
0
VERTEX
8
CUT
10
94.8381
20
21.2029
0
VERTEX
8
CUT
10
94.9692
20
21.2237
0
VERTEX
8
CUT
10
95.1619
20
21.2757
0
VERTEX
8
CUT
10
95.2266
20
21.2932
0
VERTEX
8
CUT
10
95.5044
20
21.3844
0
VERTEX
8
CUT
10
95.5045
20
21.3844
0
VERTEX
8
CUT
10
96.3173
20
21.6513
0
VERTEX
8
CUT
10
96.5858
20
21.7570
0
VERTEX
8
CUT
10
96.8402
20
21.8928
0
VERTEX
8
CUT
10
97.5726
20
22.3399
0
VERTEX
8
CUT
10
97.7935
20
22.4917
0
VERTEX
8
CUT
10
97.9969
20
22.6661
0
VERTEX
8
CUT
10
98.1805
20
22.8614
0
VERTEX
8
CUT
10
99.0707
20
23.9163
0
VERTEX
8
CUT
10
99.2232
20
24.1167
0
VERTEX
8
CUT
10
99.3548
20
24.3314
0
VERTEX
8
CUT
10
99.4641
20
24.5583
0
VERTEX
8
CUT
10
99.8831
20
25.5534
0
VERTEX
8
CUT
10
99.9637
20
25.7448
0
VERTEX
8
CUT
10
99.9856
20
25.8050
0
VERTEX
8
CUT
10
100.0487
20
25.9786
0
VERTEX
8
CUT
10
100.1101
20
26.2197
0
VERTEX
8
CUT
10
100.1472
20
26.4658
0
VERTEX
8
CUT
10
100.1522
20
26.5651
0
VERTEX
8
CUT
10
100.1597
20
26.7143
0
VERTEX
8
CUT
10
100.1602
20
28.2679
0
VERTEX
8
CUT
10
100.1602
20
28.2680
0
VERTEX
8
CUT
10
100.1603
20
28.7223
0
VERTEX
8
CUT
10
100.1534
20
28.8596
0
VERTEX
8
CUT
10
100.1476
20
28.9749
0
VERTEX
8
CUT
10
100.1094
20
29.2248
0
VERTEX
8
CUT
10
100.0462
20
29.4696
0
VERTEX
8
CUT
10
99.9586
20
29.7068
0
VERTEX
8
CUT
10
99.5039
20
30.7692
0
VERTEX
8
CUT
10
99.3993
20
30.9846
0
VERTEX
8
CUT
10
99.3856
20
31.0071
0
VERTEX
8
CUT
10
99.2745
20
31.1889
0
VERTEX
8
CUT
10
99.1308
20
31.3804
0
VERTEX
8
CUT
10
98.9694
20
31.5573
0
VERTEX
8
CUT
10
98.1098
20
32.4130
0
VERTEX
8
CUT
10
98.1097
20
32.4130
0
VERTEX
8
CUT
10
97.3365
20
33.1828
0
VERTEX
8
CUT
10
97.2603
20
33.2513
0
VERTEX
8
CUT
10
97.1458
20
33.3541
0
VERTEX
8
CUT
10
96.9385
20
33.5050
0
VERTEX
8
CUT
10
96.8273
20
33.5696
0
VERTEX
8
CUT
10
96.7168
20
33.6339
0
VERTEX
8
CUT
10
96.5206
20
33.7349
0
VERTEX
8
CUT
10
96.2724
20
33.8626
0
VERTEX
8
CUT
10
96.0050
20
33.9810
0
VERTEX
8
CUT
10
95.7257
20
34.0674
0
VERTEX
8
CUT
10
95.1612
20
34.2063
0
VERTEX
8
CUT
10
94.8685
20
34.2600
0
VERTEX
8
CUT
10
94.5715
20
34.2786
0
VERTEX
8
CUT
10
93.1846
20
34.2829
0
VERTEX
8
CUT
10
92.9216
20
34.2698
0
VERTEX
8
CUT
10
92.6614
20
34.2292
0
VERTEX
8
CUT
10
92.4069
20
34.1614
0
VERTEX
8
CUT
10
92.1609
20
34.0672
0
VERTEX
8
CUT
10
90.5373
20
33.3450
0
VERTEX
8
CUT
10
90.5368
20
33.3448
0
VERTEX
8
CUT
10
90.3323
20
33.2423
0
VERTEX
8
CUT
10
90.1380
20
33.1216
0
VERTEX
8
CUT
10
89.9555
20
32.9837
0
VERTEX
8
CUT
10
89.7864
20
32.8296
0
VERTEX
8
CUT
10
88.3192
20
31.3647
0
VERTEX
8
CUT
10
88.1652
20
31.1962
0
VERTEX
8
CUT
10
88.1609
20
31.1905
0
VERTEX
8
CUT
10
88.1590
20
31.1884
0
VERTEX
8
CUT
10
88.0208
20
31.0061
0
VERTEX
8
CUT
10
87.8999
20
30.8119
0
VERTEX
8
CUT
10
87.7972
20
30.6074
0
VERTEX
8
CUT
10
87.7137
20
30.3944
0
VERTEX
8
CUT
10
87.1875
20
28.8482
0
VERTEX
8
CUT
10
87.1837
20
28.8353
0
VERTEX
8
CUT
10
87.1798
20
28.8238
0
VERTEX
8
CUT
10
87.1648
20
28.7706
0
VERTEX
8
CUT
10
87.1477
20
28.7118
0
VERTEX
8
CUT
10
87.1259
20
28.6372
0
VERTEX
8
CUT
10
87.1224
20
28.6197
0
VERTEX
8
CUT
10
87.1050
20
28.5576
0
VERTEX
8
CUT
10
87.0600
20
28.2848
0
VERTEX
8
CUT
10
87.0454
20
28.0087
0
VERTEX
8
CUT
10
87.0464
20
27.6322
0
VERTEX
8
CUT
10
87.0574
20
27.4036
0
SEQEND
0
POLYLINE
8
CUT
66
1
70
1
10
0.0
20
0.0
30
0.0
0
VERTEX
8
CUT
10
32.3387
20
75.0049
0
VERTEX
8
CUT
10
32.4011
20
74.7746
0
VERTEX
8
CUT
10
32.4852
20
74.5513
0
VERTEX
8
CUT
10
32.8678
20
73.6658
0
VERTEX
8
CUT
10
32.8900
20
73.6215
0
VERTEX
8
CUT
10
32.9607
20
73.4748
0
VERTEX
8
CUT
10
32.9791
20
73.4439
0
VERTEX
8
CUT
10
32.9954
20
73.4113
0
VERTEX
8
CUT
10
33.0275
20
73.3621
0
VERTEX
8
CUT
10
33.0276
20
73.3620
0
VERTEX
8
CUT
10
33.0287
20
73.3602
0
VERTEX
8
CUT
10
33.0320
20
73.3547
0
VERTEX
8
CUT
10
33.0326
20
73.3537
0
VERTEX
8
CUT
10
33.0702
20
73.2901
0
VERTEX
8
CUT
10
33.1123
20
73.2313
0
VERTEX
8
CUT
10
33.1204
20
73.2201
0
VERTEX
8
CUT
10
33.1511
20
73.1730
0
VERTEX
8
CUT
10
33.1724
20
73.1474
0
VERTEX
8
CUT
10
33.1952
20
73.1155
0
VERTEX
8
CUT
10
33.2759
20
73.0211
0
VERTEX
8
CUT
10
33.2908
20
73.0037
0
VERTEX
8
CUT
10
33.3122
20
72.9785
0
VERTEX
8
CUT
10
33.3224
20
72.9667
0
VERTEX
8
CUT
10
33.3330
20
72.9539
0
VERTEX
8
CUT
10
33.5640
20
72.7057
0
VERTEX
8
CUT
10
33.7306
20
72.5428
0
VERTEX
8
CUT
10
33.7314
20
72.5421
0
VERTEX
8
CUT
10
33.7342
20
72.5393
0
VERTEX
8
CUT
10
33.9155
20
72.3925
0
VERTEX
8
CUT
10
34.1096
20
72.2632
0
VERTEX
8
CUT
10
34.4532
20
72.0569
0
VERTEX
8
CUT
10
34.9342
20
71.7680
0
VERTEX
8
CUT
10
35.0849
20
71.6865
0
VERTEX
8
CUT
10
35.1318
20
71.6612
0
VERTEX
8
CUT
10
35.1937
20
71.6345
0
VERTEX
8
CUT
10
35.3381
20
71.5725
0
VERTEX
8
CUT
10
35.5515
20
71.5027
0
VERTEX
8
CUT
10
35.5523
20
71.5024
0
VERTEX
8
CUT
10
35.5836
20
71.4937
0
VERTEX
8
CUT
10
35.8389
20
71.4369
0
VERTEX
8
CUT
10
36.0988
20
71.4071
0
VERTEX
8
CUT
10
36.3604
20
71.4046
0
VERTEX
8
CUT
10
36.6208
20
71.4295
0
VERTEX
8
CUT
10
36.6276
20
71.4309
0
VERTEX
8
CUT
10
36.8772
20
71.4814
0
VERTEX
8
CUT
10
37.1267
20
71.5598
0
VERTEX
8
CUT
10
38.1388
20
71.9371
0
VERTEX
8
CUT
10
38.3817
20
72.0427
0
VERTEX
8
CUT
10
38.6120
20
72.1733
0
VERTEX
8
CUT
10
38.8273
20
72.3275
0
VERTEX
8
CUT
10
39.0103
20
72.4906
0
VERTEX
8
CUT
10
39.0250
20
72.5037
0
VERTEX
8
CUT
10
39.4673
20
72.9419
0
VERTEX
8
CUT
10
39.6532
20
73.1477
0
VERTEX
8
CUT
10
39.8151
20
73.3729
0
VERTEX
8
CUT
10
39.8757
20
73.4805
0
VERTEX
8
CUT
10
39.9512
20
73.6146
0
VERTEX
8
CUT
10
40.0855
20
73.8878
0
VERTEX
8
CUT
10
40.1768
20
74.0972
0
VERTEX
8
CUT
10
40.2487
20
74.3140
0
VERTEX
8
CUT
10
40.3004
20
74.5365
0
VERTEX
8
CUT
10
40.3226
20
74.6976
0
VERTEX
8
CUT
10
40.3316
20
74.7628
0
VERTEX
8
CUT
10
40.3338
20
74.8110
0
VERTEX
8
CUT
10
40.3421
20
74.9910
0
VERTEX
8
CUT
10
40.3421
20
75.6494
0
VERTEX
8
CUT
10
40.3421
20
76.0045
0
VERTEX
8
CUT
10
40.3390
20
76.0705
0
VERTEX
8
CUT
10
40.3314
20
76.2348
0
VERTEX
8
CUT
10
40.2996
20
76.4633
0
VERTEX
8
CUT
10
40.2468
20
76.6878
0
VERTEX
8
CUT
10
40.2229
20
76.7592
0
VERTEX
8
CUT
10
40.1736
20
76.9065
0
VERTEX
8
CUT
10
40.0806
20
77.1175
0
VERTEX
8
CUT
10
39.9407
20
77.3988
0
VERTEX
8
CUT
10
39.8072
20
77.6344
0
VERTEX
8
CUT
10
39.6489
20
77.8542
0
VERTEX
8
CUT
10
39.5396
20
77.9758
0
VERTEX
8
CUT
10
39.4678
20
78.0556
0
VERTEX
8
CUT
10
38.7085
20
78.8131
0
VERTEX
8
CUT
10
38.5192
20
78.9836
0
VERTEX
8
CUT
10
38.4141
20
79.0605
0
VERTEX
8
CUT
10
38.3136
20
79.1339
0
VERTEX
8
CUT
10
38.2111
20
79.1939
0
VERTEX
8
CUT
10
38.0937
20
79.2626
0
VERTEX
8
CUT
10
37.9551
20
79.3257
0
VERTEX
8
CUT
10
37.8619
20
79.3682
0
VERTEX
8
CUT
10
37.7426
20
79.4084
0
VERTEX
8
CUT
10
37.6206
20
79.4496
0
VERTEX
8
CUT
10
37.3870
20
79.5027
0
VERTEX
8
CUT
10
37.3722
20
79.5061
0
VERTEX
8
CUT
10
36.8947
20
79.5893
0
VERTEX
8
CUT
10
36.6568
20
79.6191
0
VERTEX
8
CUT
10
36.4979
20
79.6237
0
VERTEX
8
CUT
10
36.4172
20
79.6260
0
VERTEX
8
CUT
10
36.3427
20
79.6210
0
VERTEX
8
CUT
10
36.1779
20
79.6099
0
VERTEX
8
CUT
10
36.0614
20
79.5907
0
VERTEX
8
CUT
10
35.9414
20
79.5709
0
VERTEX
8
CUT
10
35.8556
20
79.5482
0
VERTEX
8
CUT
10
35.7096
20
79.5095
0
VERTEX
8
CUT
10
35.4848
20
79.4261
0
VERTEX
8
CUT
10
35.1396
20
79.2789
0
VERTEX
8
CUT
10
34.6161
20
79.0557
0
VERTEX
8
CUT
10
34.6156
20
79.0555
0
VERTEX
8
CUT
10
34.4127
20
78.9580
0
VERTEX
8
CUT
10
34.2195
20
78.8426
0
VERTEX
8
CUT
10
34.0373
20
78.7103
0
VERTEX
8
CUT
10
33.8679
20
78.5622
0
VERTEX
8
CUT
10
33.3011
20
78.0199
0
VERTEX
8
CUT
10
33.1452
20
77.8567
0
VERTEX
8
CUT
10
33.1428
20
77.8537
0
VERTEX
8
CUT
10
33.1406
20
77.8513
0
VERTEX
8
CUT
10
33.0584
20
77.7479
0
VERTEX
8
CUT
10
32.9999
20
77.6742
0
VERTEX
8
CUT
10
32.8758
20
77.4851
0
VERTEX
8
CUT
10
32.7693
20
77.2855
0
VERTEX
8
CUT
10
32.6812
20
77.0772
0
VERTEX
8
CUT
10
32.5678
20
76.7708
0
VERTEX
8
CUT
10
32.4361
20
76.4149
0
VERTEX
8
CUT
10
32.3643
20
76.1884
0
VERTEX
8
CUT
10
32.3143
20
75.9560
0
VERTEX
8
CUT
10
32.3104
20
75.9222
0
VERTEX
8
CUT
10
32.2861
20
75.7166
0
VERTEX
8
CUT
10
32.2809
20
75.4780
0
VERTEX
8
CUT
10
32.2985
20
75.2401
0
SEQEND
0
POLYLINE
8
CUT
66
1
70
1
10
0.0
20
0.0
30
0.0
0
VERTEX
8
CUT
10
34.1879
20
36.1015
0
VERTEX
8
CUT
10
34.4353
20
35.8556
0
VERTEX
8
CUT
10
34.5095
20
35.7810
0
VERTEX
8
CUT
10
34.5209
20
35.7706
0
VERTEX
8
CUT
10
34.5236
20
35.7678
0
VERTEX
8
CUT
10
34.5435
20
35.7499
0
VERTEX
8
CUT
10
34.6874
20
35.6185
0
VERTEX
8
CUT
10
34.6978
20
35.6106
0
VERTEX
8
CUT
10
34.7020
20
35.6068
0
VERTEX
8
CUT
10
34.7732
20
35.5540
0
VERTEX
8
CUT
10
34.8800
20
35.4738
0
VERTEX
8
CUT
10
34.8874
20
35.4694
0
VERTEX
8
CUT
10
34.8951
20
35.4637
0
VERTEX
8
CUT
10
35.0287
20
35.3832
0
VERTEX
8
CUT
10
35.0858
20
35.3484
0
VERTEX
8
CUT
10
35.0895
20
35.3466
0
VERTEX
8
CUT
10
35.1010
20
35.3397
0
VERTEX
8
CUT
10
35.3179
20
35.2361
0
VERTEX
8
CUT
10
35.5437
20
35.1538
0
VERTEX
8
CUT
10
35.7763
20
35.0935
0
VERTEX
8
CUT
10
36.0137
20
35.0559
0
VERTEX
8
CUT
10
36.1312
20
35.0487
0
VERTEX
8
CUT
10
36.2536
20
35.0413
0
VERTEX
8
CUT
10
36.4846
20
35.0494
0
VERTEX
8
CUT
10
36.4938
20
35.0497
0
VERTEX
8
CUT
10
36.7321
20
35.0812
0
VERTEX
8
CUT
10
36.9662
20
35.1354
0
VERTEX
8
CUT
10
37.1941
20
35.2118
0
VERTEX
8
CUT
10
37.4940
20
35.3288
0
VERTEX
8
CUT
10
37.6018
20
35.3773
0
VERTEX
8
CUT
10
37.7279
20
35.4341
0
VERTEX
8
CUT
10
37.9497
20
35.5628
0
VERTEX
8
CUT
10
38.1572
20
35.7136
0
VERTEX
8
CUT
10
38.2502
20
35.7969
0
VERTEX
8
CUT
10
38.3440
20
35.8804
0
VERTEX
8
CUT
10
38.3481
20
35.8848
0
VERTEX
8
CUT
10
38.3482
20
35.8848
0
VERTEX
8
CUT
10
38.3488
20
35.8855
0
VERTEX
8
CUT
10
38.5168
20
36.0687
0
VERTEX
8
CUT
10
38.6694
20
36.2737
0
VERTEX
8
CUT
10
38.8002
20
36.4931
0
VERTEX
8
CUT
10
38.9080
20
36.7248
0
VERTEX
8
CUT
10
38.9916
20
36.9663
0
VERTEX
8
CUT
10
39.0500
20
37.2151
0
VERTEX
8
CUT
10
39.1063
20
37.5244
0
VERTEX
8
CUT
10
39.1394
20
37.7831
0
VERTEX
8
CUT
10
39.1455
20
38.0438
0
VERTEX
8
CUT
10
39.1243
20
38.3038
0
VERTEX
8
CUT
10
39.1192
20
38.3311
0
VERTEX
8
CUT
10
39.1184
20
38.3401
0
VERTEX
8
CUT
10
39.0976
20
38.4462
0
VERTEX
8
CUT
10
39.0762
20
38.5601
0
VERTEX
8
CUT
10
39.0734
20
38.5694
0
VERTEX
8
CUT
10
39.0681
20
38.5966
0
VERTEX
8
CUT
10
38.9913
20
38.8465
0
VERTEX
8
CUT
10
38.9370
20
38.9740
0
VERTEX
8
CUT
10
38.8888
20
39.0870
0
VERTEX
8
CUT
10
38.8279
20
39.2114
0
VERTEX
8
CUT
10
38.7481
20
39.3573
0
VERTEX
8
CUT
10
38.7183
20
39.4117
0
VERTEX
8
CUT
10
38.5909
20
39.6011
0
VERTEX
8
CUT
10
38.4467
20
39.7781
0
VERTEX
8
CUT
10
38.4435
20
39.7817
0
VERTEX
8
CUT
10
38.4402
20
39.7858
0
VERTEX
8
CUT
10
38.4059
20
39.8242
0
VERTEX
8
CUT
10
38.4019
20
39.8283
0
VERTEX
8
CUT
10
38.4009
20
39.8293
0
VERTEX
8
CUT
10
38.3297
20
39.9013
0
VERTEX
8
CUT
10
38.2265
20
40.0057
0
VERTEX
8
CUT
10
38.2257
20
40.0064
0
VERTEX
8
CUT
10
38.2214
20
40.0107
0
VERTEX
8
CUT
10
38.0243
20
40.1728
0
VERTEX
8
CUT
10
37.7439
20
40.3805
0
VERTEX
8
CUT
10
37.5347
20
40.5197
0
VERTEX
8
CUT
10
37.3126
20
40.6372
0
VERTEX
8
CUT
10
37.0973
20
40.7246
0
VERTEX
8
CUT
10
37.0798
20
40.7318
0
VERTEX
8
CUT
10
36.8386
20
40.8025
0
VERTEX
8
CUT
10
36.5916
20
40.8487
0
VERTEX
8
CUT
10
36.3412
20
40.8699
0
VERTEX
8
CUT
10
36.0900
20
40.8658
0
VERTEX
8
CUT
10
35.8404
20
40.8365
0
VERTEX
8
CUT
10
35.6125
20
40.7862
0
VERTEX
8
CUT
10
35.5957
20
40.7825
0
VERTEX
8
CUT
10
35.5956
20
40.7824
0
VERTEX
8
CUT
10
35.5951
20
40.7823
0
VERTEX
8
CUT
10
35.4995
20
40.7509
0
VERTEX
8
CUT
10
35.3569
20
40.7040
0
VERTEX
8
CUT
10
35.1272
20
40.6020
0
VERTEX
8
CUT
10
34.9089
20
40.4775
0
VERTEX
8
CUT
10
34.7043
20
40.3316
0
VERTEX
8
CUT
10
34.5153
20
40.1660
0
VERTEX
8
CUT
10
34.1412
20
39.8033
0
VERTEX
8
CUT
10
33.9746
20
39.6252
0
VERTEX
8
CUT
10
33.8262
20
39.4318
0
VERTEX
8
CUT
10
33.6973
20
39.2248
0
VERTEX
8
CUT
10
33.6940
20
39.2181
0
VERTEX
8
CUT
10
33.6932
20
39.2167
0
VERTEX
8
CUT
10
33.6752
20
39.1801
0
VERTEX
8
CUT
10
33.5892
20
39.0063
0
VERTEX
8
CUT
10
33.5865
20
38.9992
0
VERTEX
8
CUT
10
33.5849
20
38.9958
0
VERTEX
8
CUT
10
33.5574
20
38.9223
0
VERTEX
8
CUT
10
33.5029
20
38.7782
0
VERTEX
8
CUT
10
33.5009
20
38.7709
0
VERTEX
8
CUT
10
33.4988
20
38.7652
0
VERTEX
8
CUT
10
33.4723
20
38.6652
0
VERTEX
8
CUT
10
33.4392
20
38.5429
0
VERTEX
8
CUT
10
33.4380
20
38.5354
0
VERTEX
8
CUT
10
33.4358
20
38.5273
0
VERTEX
8
CUT
10
33.4165
20
38.4078
0
VERTEX
8
CUT
10
33.3988
20
38.3024
0
VERTEX
8
CUT
10
33.3983
20
38.2950
0
VERTEX
8
CUT
10
33.3966
20
38.2844
0
VERTEX
8
CUT
10
33.3883
20
38.1508
0
VERTEX
8
CUT
10
33.3820
20
38.0592
0
VERTEX
8
CUT
10
33.3822
20
38.0518
0
VERTEX
8
CUT
10
33.3814
20
38.0387
0
VERTEX
8
CUT
10
33.3866
20
37.8956
0
VERTEX
8
CUT
10
33.3889
20
37.8155
0
VERTEX
8
CUT
10
33.3898
20
37.8082
0
VERTEX
8
CUT
10
33.3904
20
37.7928
0
VERTEX
8
CUT
10
33.4106
20
37.6439
0
VERTEX
8
CUT
10
33.4195
20
37.5736
0
VERTEX
8
CUT
10
33.4212
20
37.5665
0
VERTEX
8
CUT
10
33.4235
20
37.5490
0
VERTEX
8
CUT
10
33.4595
20
37.3977
0
VERTEX
8
CUT
10
33.4736
20
37.3358
0
VERTEX
8
CUT
10
33.4759
20
37.3289
0
VERTEX
8
CUT
10
33.4805
20
37.3096
0
VERTEX
8
CUT
10
33.5324
20
37.1591
0
VERTEX
8
CUT
10
33.5506
20
37.1045
0
VERTEX
8
CUT
10
33.5535
20
37.0978
0
VERTEX
8
CUT
10
33.5608
20
37.0769
0
VERTEX
8
CUT
10
33.6282
20
36.9300
0
VERTEX
8
CUT
10
33.6497
20
36.8817
0
VERTEX
8
CUT
10
33.6574
20
36.8666
0
VERTEX
8
CUT
10
33.6635
20
36.8533
0
VERTEX
8
CUT
10
33.6838
20
36.8143
0
VERTEX
8
CUT
10
33.7127
20
36.7569
0
VERTEX
8
CUT
10
33.7225
20
36.7398
0
VERTEX
8
CUT
10
33.7325
20
36.7207
0
VERTEX
8
CUT
10
33.7714
20
36.6544
0
VERTEX
8
CUT
10
33.8430
20
36.5293
0
VERTEX
8
CUT
10
33.8532
20
36.5153
0
VERTEX
8
CUT
10
33.8627
20
36.4990
0
VERTEX
8
CUT
10
33.9759
20
36.3452
0
VERTEX
8
CUT
10
33.9964
20
36.3167
0
VERTEX
8
CUT
10
33.9987
20
36.3142
0
VERTEX
8
CUT
10
34.0151
20
36.2919
0
SEQEND
0
ENDSEC
0
EOF
