0
SECTION
2
HEADER
9
$ACADVER
1
AC1009
9
$INSUNITS
70
4
0
ENDSEC
0
SECTION
2
TABLES
0
TABLE
2
LAYER
70
1
0
LAYER
2
CUT
70
0
62
7
6
CONTINUOUS
0
ENDTAB
0
ENDSEC
0
SECTION
2
ENTITIES
0
POLYLINE
8
CUT
66
1
70
1
10
0.0
20
0.0
30
0.0
0
VERTEX
8
CUT
10
299.9634
20
299.9386
0
VERTEX
8
CUT
10
299.9634
20
0.0614
0
VERTEX
8
CUT
10
299.9606
20
0.0029
0
VERTEX
8
CUT
10
299.9021
20
-0.0000
0
VERTEX
8
CUT
10
0.0614
20
-0.0000
0
VERTEX
8
CUT
10
0.0029
20
0.0029
0
VERTEX
8
CUT
10
0.0000
20
0.0614
0
VERTEX
8
CUT
10
0.0000
20
299.9386
0
VERTEX
8
CUT
10
0.0029
20
299.9971
0
VERTEX
8
CUT
10
0.0614
20
300.0000
0
VERTEX
8
CUT
10
299.9021
20
300.0000
0
VERTEX
8
CUT
10
299.9606
20
299.9971
0
SEQEND
0
POLYLINE
8
CUT
66
1
70
1
10
0.0
20
0.0
30
0.0
0
VERTEX
8
CUT
10
178.2220
20
291.6061
0
VERTEX
8
CUT
10
178.0096
20
291.4779
0
VERTEX
8
CUT
10
177.8109
20
291.3292
0
VERTEX
8
CUT
10
177.6279
20
291.1616
0
VERTEX
8
CUT
10
177.4624
20
290.9767
0
VERTEX
8
CUT
10
177.3160
20
290.7762
0
VERTEX
8
CUT
10
177.1903
20
290.5623
0
VERTEX
8
CUT
10
177.0864
20
290.3369
0
VERTEX
8
CUT
10
177.0053
20
290.1024
0
VERTEX
8
CUT
10
176.9479
20
289.8609
0
VERTEX
8
CUT
10
176.9148
20
289.6150
0
VERTEX
8
CUT
10
176.7484
20
287.6500
0
VERTEX
8
CUT
10
176.7439
20
287.2895
0
VERTEX
8
CUT
10
177.0415
20
282.3242
0
VERTEX
8
CUT
10
177.0623
20
282.1192
0
VERTEX
8
CUT
10
177.0999
20
281.9165
0
VERTEX
8
CUT
10
177.8548
20
278.6150
0
VERTEX
8
CUT
10
177.9199
20
278.3828
0
VERTEX
8
CUT
10
178.4140
20
276.8983
0
VERTEX
8
CUT
10
178.4783
20
276.7264
0
VERTEX
8
CUT
10
179.7916
20
273.5738
0
VERTEX
8
CUT
10
179.9172
20
273.3154
0
VERTEX
8
CUT
10
181.1552
20
271.1006
0
VERTEX
8
CUT
10
181.3098
20
270.8579
0
VERTEX
8
CUT
10
183.9453
20
267.2041
0
VERTEX
8
CUT
10
184.1041
20
267.0059
0
VERTEX
8
CUT
10
186.6179
20
264.1773
0
VERTEX
8
CUT
10
186.8495
20
263.9486
0
VERTEX
8
CUT
10
191.0142
20
260.3400
0
VERTEX
8
CUT
10
191.1350
20
260.2416
0
VERTEX
8
CUT
10
198.6527
20
254.5071
0
VERTEX
8
CUT
10
198.7092
20
254.4612
0
VERTEX
8
CUT
10
198.7627
20
254.4120
0
VERTEX
8
CUT
10
201.7602
20
251.4833
0
VERTEX
8
CUT
10
201.8003
20
251.4422
0
VERTEX
8
CUT
10
201.8384
20
251.3992
0
VERTEX
8
CUT
10
203.4080
20
249.5380
0
VERTEX
8
CUT
10
203.4480
20
249.4879
0
VERTEX
8
CUT
10
203.4853
20
249.4357
0
VERTEX
8
CUT
10
204.5819
20
247.8086
0
VERTEX
8
CUT
10
204.6226
20
247.7438
0
VERTEX
8
CUT
10
204.6591
20
247.6764
0
VERTEX
8
CUT
10
205.7447
20
245.5098
0
VERTEX
8
CUT
10
205.7526
20
245.4928
0
VERTEX
8
CUT
10
205.7815
20
245.4173
0
VERTEX
8
CUT
10
205.7868
20
245.3994
0
VERTEX
8
CUT
10
206.6061
20
242.3852
0
VERTEX
8
CUT
10
206.6112
20
242.3640
0
VERTEX
8
CUT
10
206.6252
20
242.2709
0
VERTEX
8
CUT
10
206.6266
20
242.2491
0
VERTEX
8
CUT
10
206.6691
20
240.9662
0
VERTEX
8
CUT
10
206.6871
20
240.7385
0
VERTEX
8
CUT
10
206.7258
20
240.5134
0
VERTEX
8
CUT
10
206.7849
20
240.2928
0
VERTEX
8
CUT
10
206.9182
20
239.8727
0
VERTEX
8
CUT
10
206.9234
20
239.8546
0
VERTEX
8
CUT
10
206.9318
20
239.8148
0
VERTEX
8
CUT
10
206.9319
20
239.7742
0
VERTEX
8
CUT
10
206.9306
20
239.7553
0
VERTEX
8
CUT
10
206.6292
20
236.6479
0
VERTEX
8
CUT
10
206.6269
20
236.6291
0
VERTEX
8
CUT
10
206.6108
20
236.5488
0
VERTEX
8
CUT
10
206.6057
20
236.5305
0
VERTEX
8
CUT
10
205.4921
20
232.9109
0
VERTEX
8
CUT
10
205.4860
20
232.8929
0
VERTEX
8
CUT
10
205.4541
20
232.8173
0
VERTEX
8
CUT
10
205.4454
20
232.8004
0
VERTEX
8
CUT
10
202.1303
20
226.7404
0
VERTEX
8
CUT
10
202.0012
20
226.4663
0
VERTEX
8
CUT
10
201.9063
20
226.1787
0
VERTEX
8
CUT
10
201.2198
20
223.5780
0
VERTEX
8
CUT
10
201.1729
20
223.3619
0
VERTEX
8
CUT
10
201.1453
20
223.1425
0
VERTEX
8
CUT
10
201.1371
20
222.9216
0
VERTEX
8
CUT
10
201.1435
20
222.0536
0
VERTEX
8
CUT
10
201.1634
20
221.7571
0
VERTEX
8
CUT
10
201.2182
20
221.4650
0
VERTEX
8
CUT
10
201.6579
20
219.7085
0
VERTEX
8
CUT
10
201.7412
20
219.4405
0
VERTEX
8
CUT
10
201.8540
20
219.1835
0
VERTEX
8
CUT
10
202.6436
20
217.6286
0
VERTEX
8
CUT
10
202.7630
20
217.4192
0
VERTEX
8
CUT
10
202.9021
20
217.2222
0
VERTEX
8
CUT
10
203.0594
20
217.0396
0
VERTEX
8
CUT
10
204.1112
20
215.9314
0
VERTEX
8
CUT
10
204.2447
20
215.8009
0
VERTEX
8
CUT
10
204.3875
20
215.6807
0
VERTEX
8
CUT
10
206.9095
20
213.7147
0
VERTEX
8
CUT
10
207.0248
20
213.6300
0
VERTEX
8
CUT
10
212.8434
20
209.6070
0
VERTEX
8
CUT
10
212.8884
20
209.5743
0
VERTEX
8
CUT
10
212.9319
20
209.5396
0
VERTEX
8
CUT
10
218.0407
20
205.2517
0
VERTEX
8
CUT
10
218.0775
20
205.2196
0
VERTEX
8
CUT
10
218.1128
20
205.1861
0
VERTEX
8
CUT
10
220.3876
20
202.9355
0
VERTEX
8
CUT
10
220.3879
20
202.9353
0
VERTEX
8
CUT
10
220.3933
20
202.9292
0
VERTEX
8
CUT
10
220.5400
20
202.7655
0
VERTEX
8
CUT
10
223.0009
20
200.0200
0
VERTEX
8
CUT
10
223.0039
20
200.0162
0
VERTEX
8
CUT
10
226.1306
20
195.9172
0
VERTEX
8
CUT
10
226.2726
20
195.7473
0
VERTEX
8
CUT
10
226.4291
20
195.5905
0
VERTEX
8
CUT
10
226.5874
20
195.4578
0
VERTEX
8
CUT
10
226.6027
20
195.4429
0
VERTEX
8
CUT
10
226.7847
20
195.2961
0
VERTEX
8
CUT
10
226.9796
20
195.1669
0
VERTEX
8
CUT
10
227.1857
20
195.0565
0
VERTEX
8
CUT
10
227.4012
20
194.9659
0
VERTEX
8
CUT
10
227.6243
20
194.8958
0
VERTEX
8
CUT
10
227.8529
20
194.8468
0
VERTEX
8
CUT
10
228.0851
20
194.8194
0
VERTEX
8
CUT
10
228.4188
20
194.7958
0
VERTEX
8
CUT
10
228.6188
20
194.7896
0
VERTEX
8
CUT
10
230.3039
20
194.8055
0
VERTEX
8
CUT
10
230.5697
20
194.8221
0
VERTEX
8
CUT
10
230.8322
20
194.8670
0
VERTEX
8
CUT
10
231.0884
20
194.9395
0
VERTEX
8
CUT
10
231.3321
20
195.0227
0
VERTEX
8
CUT
10
231.3501
20
195.0284
0
VERTEX
8
CUT
10
231.3895
20
195.0375
0
VERTEX
8
CUT
10
231.4297
20
195.0427
0
VERTEX
8
CUT
10
231.4485
20
195.0437
0
VERTEX
8
CUT
10
232.5547
20
195.0750
0
VERTEX
8
CUT
10
232.7874
20
195.0924
0
VERTEX
8
CUT
10
233.0174
20
195.1315
0
VERTEX
8
CUT
10
233.2428
20
195.1919
0
VERTEX
8
CUT
10
233.4616
20
195.2730
0
VERTEX
8
CUT
10
233.5156
20
195.2959
0
VERTEX
8
CUT
10
233.5207
20
195.2980
0
VERTEX
8
CUT
10
233.5679
20
195.3135
0
VERTEX
8
CUT
10
233.5972
20
195.3175
0
VERTEX
8
CUT
10
233.6221
20
195.3193
0
VERTEX
8
CUT
10
234.4277
20
195.3574
0
VERTEX
8
CUT
10
234.7318
20
195.3905
0
VERTEX
8
CUT
10
235.0296
20
195.4605
0
VERTEX
8
CUT
10
238.1174
20
196.3891
0
VERTEX
8
CUT
10
238.1352
20
196.3940
0
VERTEX
8
CUT
10
238.2136
20
196.4093
0
VERTEX
8
CUT
10
238.2319
20
196.4116
0
VERTEX
8
CUT
10
238.5538
20
196.4424
0
VERTEX
8
CUT
10
238.7663
20
196.4720
0
VERTEX
8
CUT
10
238.9755
20
196.5197
0
VERTEX
8
CUT
10
238.9912
20
196.5247
0
VERTEX
8
CUT
10
239.0078
20
196.5286
0
VERTEX
8
CUT
10
239.2043
20
196.5920
0
VERTEX
8
CUT
10
244.1040
20
198.3996
0
VERTEX
8
CUT
10
244.3108
20
198.4866
0
VERTEX
8
CUT
10
244.3112
20
198.4869
0
VERTEX
8
CUT
10
248.5758
20
200.5113
0
VERTEX
8
CUT
10
248.6043
20
200.5244
0
VERTEX
8
CUT
10
248.6331
20
200.5367
0
VERTEX
8
CUT
10
253.3031
20
202.4597
0
VERTEX
8
CUT
10
253.3613
20
202.4819
0
VERTEX
8
CUT
10
253.4206
20
202.5010
0
VERTEX
8
CUT
10
257.4403
20
203.6836
0
VERTEX
8
CUT
10
258.4131
20
203.9068
0
VERTEX
8
CUT
10
258.6931
20
203.9245
0
VERTEX
8
CUT
10
258.9450
20
203.9533
0
VERTEX
8
CUT
10
259.1926
20
204.0074
0
VERTEX
8
CUT
10
259.4336
20
204.0864
0
VERTEX
8
CUT
10
259.6374
20
204.1648
0
VERTEX
8
CUT
10
259.6390
20
204.1654
0
VERTEX
8
CUT
10
261.2616
20
204.2157
0
VERTEX
8
CUT
10
261.5012
20
204.2347
0
VERTEX
8
CUT
10
261.7377
20
204.2766
0
VERTEX
8
CUT
10
262.1570
20
204.3718
0
VERTEX
8
CUT
10
263.4646
20
204.4705
0
VERTEX
8
CUT
10
264.0879
20
204.4625
0
VERTEX
8
CUT
10
264.6825
20
204.3950
0
VERTEX
8
CUT
10
264.8141
20
204.3800
0
VERTEX
8
CUT
10
264.8795
20
204.3726
0
VERTEX
8
CUT
10
265.1654
20
204.3401
0
VERTEX
8
CUT
10
267.5289
20
203.9729
0
VERTEX
8
CUT
10
268.5070
20
203.7554
0
VERTEX
8
CUT
10
270.8005
20
203.0674
0
VERTEX
8
CUT
10
270.8699
20
203.0441
0
VERTEX
8
CUT
10
270.9368
20
203.0189
0
VERTEX
8
CUT
10
270.9512
20
203.0122
0
VERTEX
8
CUT
10
272.8147
20
202.0815
0
VERTEX
8
CUT
10
274.2467
20
201.3630
0
VERTEX
8
CUT
10
274.2510
20
201.3607
0
VERTEX
8
CUT
10
274.2801
20
201.3434
0
VERTEX
8
CUT
10
274.3167
20
201.3205
0
VERTEX
8
CUT
10
274.3478
20
201.2997
0
VERTEX
8
CUT
10
275.6827
20
200.3491
0
VERTEX
8
CUT
10
276.0926
20
200.0572
0
VERTEX
8
CUT
10
276.1151
20
200.0411
0
VERTEX
8
CUT
10
276.6824
20
199.6372
0
VERTEX
8
CUT
10
277.3574
20
199.0887
0
VERTEX
8
CUT
10
278.7864
20
197.6983
0
VERTEX
8
CUT
10
280.2717
20
196.2125
0
VERTEX
8
CUT
10
281.4235
20
194.8987
0
VERTEX
8
CUT
10
283.0754
20
192.7692
0
VERTEX
8
CUT
10
287.2278
20
186.4990
0
VERTEX
8
CUT
10
287.3747
20
186.2995
0
VERTEX
8
CUT
10
287.5406
20
186.1155
0
VERTEX
8
CUT
10
287.7238
20
185.9488
0
VERTEX
8
CUT
10
287.9227
20
185.8011
0
VERTEX
8
CUT
10
288.1352
20
185.6738
0
VERTEX
8
CUT
10
288.3593
20
185.5681
0
VERTEX
8
CUT
10
288.5927
20
185.4851
0
VERTEX
8
CUT
10
288.8332
20
185.4257
0
VERTEX
8
CUT
10
289.0784
20
185.3903
0
VERTEX
8
CUT
10
289.3259
20
185.3794
0
VERTEX
8
CUT
10
289.5732
20
185.3930
0
VERTEX
8
CUT
10
289.8180
20
185.4311
0
VERTEX
8
CUT
10
290.0579
20
185.4931
0
VERTEX
8
CUT
10
290.2904
20
185.5787
0
VERTEX
8
CUT
10
290.5133
20
185.6868
0
VERTEX
8
CUT
10
290.7244
20
185.8164
0
VERTEX
8
CUT
10
290.9216
20
185.9663
0
VERTEX
8
CUT
10
291.1031
20
186.1350
0
VERTEX
8
CUT
10
291.2669
20
186.3208
0
VERTEX
8
CUT
10
291.4116
20
186.5219
0
VERTEX
8
CUT
10
291.5356
20
186.7363
0
VERTEX
8
CUT
10
291.6378
20
186.9620
0
VERTEX
8
CUT
10
291.7172
20
187.1967
0
VERTEX
8
CUT
10
291.7729
20
187.4380
0
VERTEX
8
CUT
10
291.8045
20
187.6838
0
VERTEX
8
CUT
10
291.8117
20
187.9314
0
VERTEX
8
CUT
10
291.8083
20
188.0942
0
VERTEX
8
CUT
10
291.4231
20
206.6000
0
VERTEX
8
CUT
10
291.4213
20
206.6559
0
VERTEX
8
CUT
10
291.0299
20
215.7173
0
VERTEX
8
CUT
10
291.0269
20
215.7717
0
VERTEX
8
CUT
10
290.4812
20
224.1593
0
VERTEX
8
CUT
10
290.4756
20
224.2306
0
VERTEX
8
CUT
10
290.0613
20
228.6447
0
VERTEX
8
CUT
10
290.0267
20
228.8859
0
VERTEX
8
CUT
10
289.9689
20
229.1225
0
VERTEX
8
CUT
10
289.8883
20
229.3524
0
VERTEX
8
CUT
10
289.7857
20
229.5733
0
VERTEX
8
CUT
10
289.6620
20
229.7832
0
VERTEX
8
CUT
10
289.5186
20
229.9801
0
VERTEX
8
CUT
10
289.3566
20
230.1621
0
VERTEX
8
CUT
10
289.1777
20
230.3275
0
VERTEX
8
CUT
10
288.9836
20
230.4746
0
VERTEX
8
CUT
10
288.7761
20
230.6022
0
VERTEX
8
CUT
10
288.5571
20
230.7089
0
VERTEX
8
CUT
10
288.3288
20
230.7939
0
VERTEX
8
CUT
10
288.0933
20
230.8562
0
VERTEX
8
CUT
10
287.8528
20
230.8953
0
VERTEX
8
CUT
10
287.6097
20
230.9108
0
VERTEX
8
CUT
10
287.3662
20
230.9026
0
VERTEX
8
CUT
10
287.1247
20
230.8707
0
VERTEX
8
CUT
10
286.8875
20
230.8155
0
VERTEX
8
CUT
10
286.6567
20
230.7374
0
VERTEX
8
CUT
10
286.6203
20
230.7231
0
VERTEX
8
CUT
10
286.6047
20
230.7174
0
VERTEX
8
CUT
10
286.5699
20
230.7072
0
VERTEX
8
CUT
10
286.5343
20
230.7001
0
VERTEX
8
CUT
10
286.5182
20
230.6980
0
VERTEX
8
CUT
10
283.7419
20
230.3986
0
VERTEX
8
CUT
10
283.5390
20
230.3683
0
VERTEX
8
CUT
10
283.3393
20
230.3214
0
VERTEX
8
CUT
10
283.1441
20
230.2584
0
VERTEX
8
CUT
10
281.4550
20
229.6348
0
VERTEX
8
CUT
10
281.4388
20
229.6293
0
VERTEX
8
CUT
10
281.4030
20
229.6196
0
VERTEX
8
CUT
10
281.3663
20
229.6133
0
VERTEX
8
CUT
10
281.3498
20
229.6116
0
VERTEX
8
CUT
10
280.8073
20
229.5683
0
VERTEX
8
CUT
10
280.5279
20
229.5300
0
VERTEX
8
CUT
10
280.2545
20
229.4604
0
VERTEX
8
CUT
10
279.9907
20
229.3605
0
VERTEX
8
CUT
10
278.1108
20
228.5245
0
VERTEX
8
CUT
10
278.0935
20
228.5173
0
VERTEX
8
CUT
10
278.0552
20
228.5047
0
VERTEX
8
CUT
10
278.0159
20
228.4960
0
VERTEX
8
CUT
10
277.9974
20
228.4933
0
VERTEX
8
CUT
10
277.8163
20
228.4715
0
VERTEX
8
CUT
10
277.5559
20
228.4262
0
VERTEX
8
CUT
10
277.3017
20
228.3535
0
VERTEX
8
CUT
10
277.0565
20
228.2545
0
VERTEX
8
CUT
10
276.8233
20
228.1301
0
VERTEX
8
CUT
10
275.7000
20
227.4526
0
VERTEX
8
CUT
10
275.6832
20
227.4431
0
VERTEX
8
CUT
10
275.6455
20
227.4254
0
VERTEX
8
CUT
10
275.6051
20
227.4158
0
VERTEX
8
CUT
10
275.5859
20
227.4128
0
VERTEX
8
CUT
10
275.2459
20
227.3688
0
VERTEX
8
CUT
10
274.9707
20
227.3173
0
VERTEX
8
CUT
10
274.7030
20
227.2354
0
VERTEX
8
CUT
10
274.4461
20
227.1241
0
VERTEX
8
CUT
10
273.9142
20
226.8572
0
VERTEX
8
CUT
10
273.7448
20
226.7639
0
VERTEX
8
CUT
10
273.5831
20
226.6577
0
VERTEX
8
CUT
10
272.4166
20
225.8254
0
VERTEX
8
CUT
10
272.4021
20
225.8155
0
VERTEX
8
CUT
10
272.3697
20
225.7967
0
VERTEX
8
CUT
10
272.3342
20
225.7841
0
VERTEX
8
CUT
10
272.3174
20
225.7795
0
VERTEX
8
CUT
10
272.2235
20
225.7558
0
VERTEX
8
CUT
10
272.0004
20
225.6884
0
VERTEX
8
CUT
10
271.7844
20
225.6004
0
VERTEX
8
CUT
10
271.5776
20
225.4927
0
VERTEX
8
CUT
10
271.3817
20
225.3662
0
VERTEX
8
CUT
10
270.4378
20
224.6922
0
VERTEX
8
CUT
10
270.4334
20
224.6893
0
VERTEX
8
CUT
10
270.3649
20
224.6481
0
VERTEX
8
CUT
10
270.3487
20
224.6397
0
VERTEX
8
CUT
10
269.1491
20
224.0540
0
VERTEX
8
CUT
10
268.8627
20
223.8900
0
VERTEX
8
CUT
10
256.2913
20
215.5401
0
VERTEX
8
CUT
10
256.2287
20
215.5012
0
VERTEX
8
CUT
10
256.1638
20
215.4663
0
VERTEX
8
CUT
10
253.5279
20
214.1518
0
VERTEX
8
CUT
10
253.4516
20
214.1170
0
VERTEX
8
CUT
10
253.3731
20
214.0877
0
VERTEX
8
CUT
10
250.1447
20
213.0111
0
VERTEX
8
CUT
10
250.0836
20
212.9926
0
VERTEX
8
CUT
10
250.0217
20
212.9773
0
VERTEX
8
CUT
10
247.5649
20
212.4412
0
VERTEX
8
CUT
10
247.5453
20
212.4375
0
VERTEX
8
CUT
10
247.4601
20
212.4281
0
VERTEX
8
CUT
10
247.4403
20
212.4276
0
VERTEX
8
CUT
10
244.7858
20
212.4180
0
VERTEX
8
CUT
10
244.7634
20
212.4186
0
VERTEX
8
CUT
10
244.6671
20
212.4298
0
VERTEX
8
CUT
10
244.6451
20
212.4344
0
VERTEX
8
CUT
10
242.3943
20
212.9747
0
VERTEX
8
CUT
10
242.3737
20
212.9802
0
VERTEX
8
CUT
10
242.2873
20
213.0117
0
VERTEX
8
CUT
10
242.2680
20
213.0206
0
VERTEX
8
CUT
10
240.1109
20
214.0956
0
VERTEX
8
CUT
10
240.0952
20
214.1039
0
VERTEX
8
CUT
10
240.0629
20
214.1240
0
VERTEX
8
CUT
10
240.0326
20
214.1471
0
VERTEX
8
CUT
10
240.0193
20
214.1587
0
VERTEX
8
CUT
10
239.0272
20
215.0735
0
VERTEX
8
CUT
10
239.0123
20
215.0880
0
VERTEX
8
CUT
10
238.9537
20
215.1554
0
VERTEX
8
CUT
10
238.9415
20
215.1721
0
VERTEX
8
CUT
10
237.6668
20
217.0126
0
VERTEX
8
CUT
10
237.6568
20
217.0278
0
VERTEX
8
CUT
10
237.6377
20
217.0621
0
VERTEX
8
CUT
10
237.6220
20
217.0981
0
VERTEX
8
CUT
10
237.6159
20
217.1153
0
VERTEX
8
CUT
10
237.0795
20
218.7648
0
VERTEX
8
CUT
10
237.0741
20
218.7829
0
VERTEX
8
CUT
10
237.0655
20
218.8227
0
VERTEX
8
CUT
10
237.0609
20
218.8631
0
VERTEX
8
CUT
10
237.0602
20
218.8820
0
VERTEX
8
CUT
10
237.0172
20
222.4017
0
VERTEX
8
CUT
10
237.0174
20
222.4194
0
VERTEX
8
CUT
10
237.0205
20
222.4575
0
VERTEX
8
CUT
10
237.0272
20
222.4951
0
VERTEX
8
CUT
10
237.0316
20
222.5122
0
VERTEX
8
CUT
10
238.1587
20
226.5698
0
VERTEX
8
CUT
10
238.1638
20
226.5867
0
VERTEX
8
CUT
10
238.1911
20
226.6580
0
VERTEX
8
CUT
10
238.1985
20
226.6741
0
VERTEX
8
CUT
10
239.2782
20
228.8594
0
VERTEX
8
CUT
10
239.2961
20
228.8943
0
VERTEX
8
CUT
10
239.3152
20
228.9286
0
VERTEX
8
CUT
10
239.6777
20
229.5548
0
VERTEX
8
CUT
10
240.3960
20
230.7957
0
VERTEX
8
CUT
10
240.4235
20
230.8409
0
VERTEX
8
CUT
10
240.4529
20
230.8848
0
VERTEX
8
CUT
10
242.4311
20
233.6947
0
VERTEX
8
CUT
10
242.4632
20
233.7380
0
VERTEX
8
CUT
10
242.4971
20
233.7799
0
VERTEX
8
CUT
10
243.2408
20
234.6561
0
VERTEX
8
CUT
10
247.0483
20
239.1416
0
VERTEX
8
CUT
10
247.0684
20
239.1647
0
VERTEX
8
CUT
10
247.0891
20
239.1873
0
VERTEX
8
CUT
10
257.3989
20
250.1401
0
VERTEX
8
CUT
10
257.4667
20
250.2151
0
VERTEX
8
CUT
10
262.8353
20
256.4018
0
VERTEX
8
CUT
10
262.9238
20
256.5098
0
VERTEX
8
CUT
10
267.6451
20
262.6076
0
VERTEX
8
CUT
10
267.7335
20
262.7293
0
VERTEX
8
CUT
10
272.3629
20
269.5159
0
VERTEX
8
CUT
10
272.4570
20
269.6648
0
VERTEX
8
CUT
10
273.7591
20
271.8964
0
VERTEX
8
CUT
10
273.8723
20
272.1143
0
VERTEX
8
CUT
10
273.9635
20
272.3422
0
VERTEX
8
CUT
10
274.0320
20
272.5779
0
VERTEX
8
CUT
10
274.0770
20
272.8193
0
VERTEX
8
CUT
10
274.0981
20
273.0638
0
VERTEX
8
CUT
10
274.0951
20
273.3093
0
VERTEX
8
CUT
10
274.0681
20
273.5533
0
VERTEX
8
CUT
10
274.0173
20
273.7935
0
VERTEX
8
CUT
10
273.9431
20
274.0275
0
VERTEX
8
CUT
10
273.8464
20
274.2531
0
VERTEX
8
CUT
10
273.7280
20
274.4682
0
VERTEX
8
CUT
10
273.5891
20
274.6706
0
VERTEX
8
CUT
10
273.4310
20
274.8584
0
VERTEX
8
CUT
10
273.2552
20
275.0298
0
VERTEX
8
CUT
10
270.7585
20
277.2359
0
VERTEX
8
CUT
10
270.5183
20
277.4233
0
VERTEX
8
CUT
10
266.7280
20
280.0263
0
VERTEX
8
CUT
10
266.4871
20
280.1725
0
VERTEX
8
CUT
10
262.2596
20
282.4221
0
VERTEX
8
CUT
10
262.0356
20
282.5274
0
VERTEX
8
CUT
10
257.3266
20
284.4630
0
VERTEX
8
CUT
10
257.1271
20
284.5353
0
VERTEX
8
CUT
10
251.8131
20
286.2087
0
VERTEX
8
CUT
10
251.6423
20
286.2559
0
VERTEX
8
CUT
10
245.7864
20
287.6528
0
VERTEX
8
CUT
10
245.6454
20
287.6821
0
VERTEX
8
CUT
10
239.2094
20
288.8304
0
VERTEX
8
CUT
10
239.0950
20
288.8480
0
VERTEX
8
CUT
10
232.0035
20
289.7769
0
VERTEX
8
CUT
10
231.9123
20
289.7871
0
VERTEX
8
CUT
10
224.1950
20
290.5112
0
VERTEX
8
CUT
10
224.1238
20
290.5168
0
VERTEX
8
CUT
10
219.0844
20
290.8448
0
VERTEX
8
CUT
10
215.7609
20
291.0612
0
VERTEX
8
CUT
10
215.7064
20
291.0641
0
VERTEX
8
CUT
10
206.6203
20
291.4569
0
VERTEX
8
CUT
10
206.5644
20
291.4587
0
VERTEX
8
CUT
10
186.2595
20
291.8815
0
VERTEX
8
CUT
10
186.2155
20
291.8820
0
VERTEX
8
CUT
10
179.4140
20
291.9041
0
VERTEX
8
CUT
10
179.1661
20
291.8926
0
VERTEX
8
CUT
10
178.9205
20
291.8565
0
VERTEX
8
CUT
10
178.6798
20
291.7964
0
VERTEX
8
CUT
10
178.4462
20
291.7126
0
SEQEND
0
POLYLINE
8
CUT
66
1
70
1
10
0.0
20
0.0
30
0.0
0
VERTEX
8
CUT
10
276.1853
20
149.3702
0
VERTEX
8
CUT
10
276.4301
20
149.2825
0
VERTEX
8
CUT
10
276.6826
20
149.2207
0
VERTEX
8
CUT
10
276.9403
20
149.1855
0
VERTEX
8
CUT
10
277.2001
20
149.1772
0
VERTEX
8
CUT
10
277.4595
20
149.1960
0
VERTEX
8
CUT
10
277.7155
20
149.2416
0
VERTEX
8
CUT
10
277.9653
20
149.3135
0
VERTEX
8
CUT
10
278.2064
20
149.4110
0
VERTEX
8
CUT
10
278.3907
20
149.4970
0
VERTEX
8
CUT
10
278.6362
20
149.6286
0
VERTEX
8
CUT
10
278.8656
20
149.7868
0
VERTEX
8
CUT
10
279.0759
20
149.9694
0
VERTEX
8
CUT
10
279.2722
20
150.1601
0
VERTEX
8
CUT
10
279.4539
20
150.3565
0
VERTEX
8
CUT
10
279.6135
20
150.5712
0
VERTEX
8
CUT
10
279.7493
20
150.8017
0
VERTEX
8
CUT
10
279.8433
20
150.9829
0
VERTEX
8
CUT
10
279.9413
20
151.1955
0
VERTEX
8
CUT
10
280.0190
20
151.4164
0
VERTEX
8
CUT
10
280.0757
20
151.6436
0
VERTEX
8
CUT
10
280.1108
20
151.8751
0
VERTEX
8
CUT
10
280.1242
20
152.1089
0
VERTEX
8
CUT
10
280.1156
20
152.3429
0
VERTEX
8
CUT
10
280.0852
20
152.5751
0
VERTEX
8
CUT
10
280.0332
20
152.8034
0
VERTEX
8
CUT
10
279.9601
20
153.0258
0
VERTEX
8
CUT
10
279.8134
20
153.4102
0
VERTEX
8
CUT
10
279.7110
20
153.6425
0
VERTEX
8
CUT
10
279.5855
20
153.8631
0
VERTEX
8
CUT
10
279.4384
20
154.0699
0
VERTEX
8
CUT
10
279.2710
20
154.2608
0
VERTEX
8
CUT
10
278.9784
20
154.5620
0
VERTEX
8
CUT
10
278.7989
20
154.7296
0
VERTEX
8
CUT
10
278.6037
20
154.8787
0
VERTEX
8
CUT
10
278.3949
20
155.0079
0
VERTEX
8
CUT
10
278.1744
20
155.1161
0
VERTEX
8
CUT
10
277.9444
20
155.2021
0
VERTEX
8
CUT
10
277.7070
20
155.2651
0
VERTEX
8
CUT
10
277.4646
20
155.3045
0
VERTEX
8
CUT
10
277.2195
20
155.3200
0
VERTEX
8
CUT
10
277.2077
20
155.3201
0
VERTEX
8
CUT
10
276.9852
20
155.3133
0
VERTEX
8
CUT
10
276.7642
20
155.2867
0
VERTEX
8
CUT
10
276.5464
20
155.2405
0
VERTEX
8
CUT
10
276.3337
20
155.1752
0
VERTEX
8
CUT
10
276.1275
20
155.0911
0
VERTEX
8
CUT
10
275.7905
20
154.9359
0
VERTEX
8
CUT
10
275.5397
20
154.8027
0
VERTEX
8
CUT
10
275.3056
20
154.6418
0
VERTEX
8
CUT
10
275.0913
20
154.4555
0
VERTEX
8
CUT
10
274.9657
20
154.3331
0
VERTEX
8
CUT
10
274.7948
20
154.1490
0
VERTEX
8
CUT
10
274.6433
20
153.9486
0
VERTEX
8
CUT
10
274.5127
20
153.7341
0
VERTEX
8
CUT
10
274.4043
20
153.5075
0
VERTEX
8
CUT
10
274.2611
20
153.1654
0
VERTEX
8
CUT
10
274.1782
20
152.9365
0
VERTEX
8
CUT
10
274.1180
20
152.7005
0
VERTEX
8
CUT
10
274.0810
20
152.4599
0
VERTEX
8
CUT
10
274.0675
20
152.2167
0
VERTEX
8
CUT
10
274.0778
20
151.9734
0
VERTEX
8
CUT
10
274.1118
20
151.7323
0
VERTEX
8
CUT
10
274.1690
20
151.4956
0
VERTEX
8
CUT
10
274.2489
20
151.2656
0
VERTEX
8
CUT
10
274.3618
20
150.9858
0
VERTEX
8
CUT
10
274.4636
20
150.7649
0
VERTEX
8
CUT
10
274.5864
20
150.5551
0
VERTEX
8
CUT
10
274.7290
20
150.3581
0
VERTEX
8
CUT
10
274.8900
20
150.1759
0
VERTEX
8
CUT
10
274.9687
20
150.0951
0
VERTEX
8
CUT
10
275.1530
20
149.9242
0
VERTEX
8
CUT
10
275.3534
20
149.7727
0
VERTEX
8
CUT
10
275.5680
20
149.6420
0
VERTEX
8
CUT
10
275.7947
20
149.5335
0
SEQEND
0
POLYLINE
8
CUT
66
1
70
1
10
0.0
20
0.0
30
0.0
0
VERTEX
8
CUT
10
260.3344
20
64.3241
0
VERTEX
8
CUT
10
260.4457
20
64.0963
0
VERTEX
8
CUT
10
260.5796
20
63.8809
0
VERTEX
8
CUT
10
260.9446
20
63.3551
0
VERTEX
8
CUT
10
261.0853
20
63.1713
0
VERTEX
8
CUT
10
261.2424
20
63.0012
0
VERTEX
8
CUT
10
261.7458
20
62.5045
0
VERTEX
8
CUT
10
261.9065
20
62.3591
0
VERTEX
8
CUT
10
262.0791
20
62.2283
0
VERTEX
8
CUT
10
262.2624
20
62.1128
0
VERTEX
8
CUT
10
262.4550
20
62.0137
0
VERTEX
8
CUT
10
264.6412
20
61.0059
0
VERTEX
8
CUT
10
264.8844
20
60.9089
0
VERTEX
8
CUT
10
265.1364
20
60.8378
0
VERTEX
8
CUT
10
265.3944
20
60.7935
0
VERTEX
8
CUT
10
265.6557
20
60.7764
0
VERTEX
8
CUT
10
266.2236
20
60.7691
0
VERTEX
8
CUT
10
266.4354
20
60.7754
0
VERTEX
8
CUT
10
266.6459
20
60.7996
0
VERTEX
8
CUT
10
266.8535
20
60.8414
0
VERTEX
8
CUT
10
267.4353
20
60.9847
0
VERTEX
8
CUT
10
267.7096
20
61.0692
0
VERTEX
8
CUT
10
267.9724
20
61.1846
0
VERTEX
8
CUT
10
268.9918
20
61.7040
0
VERTEX
8
CUT
10
269.2172
20
61.8340
0
VERTEX
8
CUT
10
269.4278
20
61.9867
0
VERTEX
8
CUT
10
269.6215
20
62.1605
0
VERTEX
8
CUT
10
270.8804
20
63.4149
0
VERTEX
8
CUT
10
271.0362
20
63.5851
0
VERTEX
8
CUT
10
271.1755
20
63.7689
0
VERTEX
8
CUT
10
271.2974
20
63.9647
0
VERTEX
8
CUT
10
271.4006
20
64.1710
0
VERTEX
8
CUT
10
271.4845
20
64.3859
0
VERTEX
8
CUT
10
272.0202
20
65.9720
0
VERTEX
8
CUT
10
272.0927
20
66.2326
0
VERTEX
8
CUT
10
272.1367
20
66.4995
0
VERTEX
8
CUT
10
272.1516
20
66.7696
0
VERTEX
8
CUT
10
272.1526
20
67.7597
0
VERTEX
8
CUT
10
272.1393
20
68.0197
0
VERTEX
8
CUT
10
272.0990
20
68.2770
0
VERTEX
8
CUT
10
272.0321
20
68.5287
0
VERTEX
8
CUT
10
271.9395
20
68.7721
0
VERTEX
8
CUT
10
271.2349
20
70.3674
0
VERTEX
8
CUT
10
271.1330
20
70.5723
0
VERTEX
8
CUT
10
271.0127
20
70.7670
0
VERTEX
8
CUT
10
270.8752
20
70.9499
0
VERTEX
8
CUT
10
270.7215
20
71.1194
0
VERTEX
8
CUT
10
269.6920
20
72.1556
0
VERTEX
8
CUT
10
269.5230
20
72.3107
0
VERTEX
8
CUT
10
269.3406
20
72.4497
0
VERTEX
8
CUT
10
269.1462
20
72.5713
0
VERTEX
8
CUT
10
268.9414
20
72.6747
0
VERTEX
8
CUT
10
267.3501
20
73.3883
0
VERTEX
8
CUT
10
267.1060
20
73.4827
0
VERTEX
8
CUT
10
266.8535
20
73.5511
0
VERTEX
8
CUT
10
266.5952
20
73.5927
0
VERTEX
8
CUT
10
266.3339
20
73.6071
0
VERTEX
8
CUT
10
265.4756
20
73.6094
0
VERTEX
8
CUT
10
265.1704
20
73.5916
0
VERTEX
8
CUT
10
264.8696
20
73.5365
0
VERTEX
8
CUT
10
264.2238
20
73.3771
0
VERTEX
8
CUT
10
264.0268
20
73.3198
0
VERTEX
8
CUT
10
263.8351
20
73.2465
0
VERTEX
8
CUT
10
262.5796
20
72.7064
0
VERTEX
8
CUT
10
262.3722
20
72.6055
0
VERTEX
8
CUT
10
262.1749
20
72.4860
0
VERTEX
8
CUT
10
261.9895
20
72.3488
0
VERTEX
8
CUT
10
261.8175
20
72.1951
0
VERTEX
8
CUT
10
261.2071
20
71.5967
0
VERTEX
8
CUT
10
261.0028
20
71.3704
0
VERTEX
8
CUT
10
260.8276
20
71.1209
0
VERTEX
8
CUT
10
260.3133
20
70.2845
0
VERTEX
8
CUT
10
260.1791
20
70.0359
0
VERTEX
8
CUT
10
260.0739
20
69.7737
0
VERTEX
8
CUT
10
259.9020
20
69.2637
0
VERTEX
8
CUT
10
259.8363
20
69.0330
0
VERTEX
8
CUT
10
259.6440
20
68.2084
0
VERTEX
8
CUT
10
259.5936
20
67.9142
0
VERTEX
8
CUT
10
259.5787
20
67.6162
0
VERTEX
8
CUT
10
259.5890
20
66.5561
0
VERTEX
8
CUT
10
259.6035
20
66.3102
0
VERTEX
8
CUT
10
259.6421
20
66.0670
0
VERTEX
8
CUT
10
259.7045
20
65.8287
0
VERTEX
8
CUT
10
259.7900
20
65.5978
0
SEQEND
0
POLYLINE
8
CUT
66
1
70
1
10
0.0
20
0.0
30
0.0
0
VERTEX
8
CUT
10
211.3641
20
83.1035
0
VERTEX
8
CUT
10
211.3507
20
82.5251
0
VERTEX
8
CUT
10
211.3575
20
82.2746
0
VERTEX
8
CUT
10
211.3893
20
82.0260
0
VERTEX
8
CUT
10
211.4459
20
81.7818
0
VERTEX
8
CUT
10
211.8780
20
80.2664
0
VERTEX
8
CUT
10
211.9707
20
79.9994
0
VERTEX
8
CUT
10
212.0930
20
79.7446
0
VERTEX
8
CUT
10
213.6171
20
76.9809
0
VERTEX
8
CUT
10
213.7309
20
76.7944
0
VERTEX
8
CUT
10
213.8604
20
76.6186
0
VERTEX
8
CUT
10
216.2090
20
73.7069
0
VERTEX
8
CUT
10
216.3436
20
73.5533
0
VERTEX
8
CUT
10
216.4903
20
73.4112
0
VERTEX
8
CUT
10
219.3467
20
70.8622
0
VERTEX
8
CUT
10
219.6059
20
70.6599
0
VERTEX
8
CUT
10
223.8900
20
67.7478
0
VERTEX
8
CUT
10
223.9367
20
67.7128
0
VERTEX
8
CUT
10
223.9623
20
67.6603
0
VERTEX
8
CUT
10
224.3124
20
66.8463
0
VERTEX
8
CUT
10
224.3192
20
66.8296
0
VERTEX
8
CUT
10
224.3310
20
66.7926
0
VERTEX
8
CUT
10
224.3355
20
66.7540
0
VERTEX
8
CUT
10
224.3363
20
66.7360
0
VERTEX
8
CUT
10
224.3653
20
65.3278
0
VERTEX
8
CUT
10
224.3652
20
65.3078
0
VERTEX
8
CUT
10
224.3615
20
65.2650
0
VERTEX
8
CUT
10
224.3533
20
65.2228
0
VERTEX
8
CUT
10
224.3479
20
65.2036
0
VERTEX
8
CUT
10
224.0647
20
64.2835
0
VERTEX
8
CUT
10
224.0630
20
64.2786
0
VERTEX
8
CUT
10
224.0339
20
64.2049
0
VERTEX
8
CUT
10
224.0262
20
64.1886
0
VERTEX
8
CUT
10
223.5001
20
63.1345
0
VERTEX
8
CUT
10
223.4911
20
63.1175
0
VERTEX
8
CUT
10
223.4688
20
63.0824
0
VERTEX
8
CUT
10
223.4430
20
63.0498
0
VERTEX
8
CUT
10
223.4299
20
63.0356
0
VERTEX
8
CUT
10
222.8629
20
62.4526
0
VERTEX
8
CUT
10
222.8483
20
62.4384
0
VERTEX
8
CUT
10
222.8146
20
62.4106
0
VERTEX
8
CUT
10
222.7781
20
62.3865
0
VERTEX
8
CUT
10
222.7603
20
62.3768
0
VERTEX
8
CUT
10
221.7035
20
61.8342
0
VERTEX
8
CUT
10
221.6836
20
61.8247
0
VERTEX
8
CUT
10
221.5942
20
61.7914
0
VERTEX
8
CUT
10
221.5729
20
61.7856
0
VERTEX
8
CUT
10
220.4271
20
61.5064
0
VERTEX
8
CUT
10
220.4071
20
61.5021
0
VERTEX
8
CUT
10
220.3194
20
61.4907
0
VERTEX
8
CUT
10
220.2990
20
61.4897
0
VERTEX
8
CUT
10
218.1182
20
61.4436
0
VERTEX
8
CUT
10
217.8789
20
61.4270
0
VERTEX
8
CUT
10
217.6423
20
61.3876
0
VERTEX
8
CUT
10
217.4106
20
61.3257
0
VERTEX
8
CUT
10
217.1859
20
61.2419
0
VERTEX
8
CUT
10
216.9703
20
61.1369
0
VERTEX
8
CUT
10
216.7657
20
61.0118
0
VERTEX
8
CUT
10
216.5740
20
60.8676
0
VERTEX
8
CUT
10
216.3970
20
60.7057
0
VERTEX
8
CUT
10
216.2364
20
60.5276
0
VERTEX
8
CUT
10
216.0936
20
60.3349
0
VERTEX
8
CUT
10
215.9698
20
60.1294
0
VERTEX
8
CUT
10
215.8664
20
59.9130
0
VERTEX
8
CUT
10
215.7841
20
59.6877
0
VERTEX
8
CUT
10
215.7239
20
59.4556
0
VERTEX
8
CUT
10
215.6861
20
59.2187
0
VERTEX
8
CUT
10
215.6712
20
58.9794
0
VERTEX
8
CUT
10
215.6794
20
58.7397
0
VERTEX
8
CUT
10
215.7104
20
58.5018
0
VERTEX
8
CUT
10
215.7641
20
58.2681
0
VERTEX
8
CUT
10
215.8400
20
58.0406
0
VERTEX
8
CUT
10
215.9373
20
57.8213
0
VERTEX
8
CUT
10
216.2840
20
57.1317
0
VERTEX
8
CUT
10
216.4160
20
56.9006
0
VERTEX
8
CUT
10
216.5719
20
56.6848
0
VERTEX
8
CUT
10
219.7585
20
52.7346
0
VERTEX
8
CUT
10
219.9192
20
52.5540
0
VERTEX
8
CUT
10
222.0187
20
50.4126
0
VERTEX
8
CUT
10
222.1588
20
50.2803
0
VERTEX
8
CUT
10
224.5969
20
48.1498
0
VERTEX
8
CUT
10
224.8101
20
47.9830
0
VERTEX
8
CUT
10
228.1377
20
45.6581
0
VERTEX
8
CUT
10
228.4496
20
45.4723
0
VERTEX
8
CUT
10
230.2995
20
44.5453
0
VERTEX
8
CUT
10
230.5287
20
44.4445
0
VERTEX
8
CUT
10
230.7668
20
44.3672
0
VERTEX
8
CUT
10
233.2364
20
43.6992
0
VERTEX
8
CUT
10
233.4922
20
43.6442
0
VERTEX
8
CUT
10
233.7524
20
43.6162
0
VERTEX
8
CUT
10
234.0140
20
43.6156
0
VERTEX
8
CUT
10
234.2743
20
43.6423
0
VERTEX
8
CUT
10
234.5304
20
43.6961
0
VERTEX
8
CUT
10
234.7794
20
43.7764
0
VERTEX
8
CUT
10
235.0187
20
43.8822
0
VERTEX
8
CUT
10
235.7387
20
44.2469
0
VERTEX
8
CUT
10
235.7457
20
44.2504
0
VERTEX
8
CUT
10
235.9691
20
44.3785
0
VERTEX
8
CUT
10
236.1782
20
44.5288
0
VERTEX
8
CUT
10
236.3707
20
44.6998
0
VERTEX
8
CUT
10
238.0313
20
46.3359
0
VERTEX
8
CUT
10
238.2153
20
46.5382
0
VERTEX
8
CUT
10
238.2926
20
46.6446
0
VERTEX
8
CUT
10
238.4008
20
46.7870
0
VERTEX
8
CUT
10
238.5218
20
46.9807
0
VERTEX
8
CUT
10
238.5393
20
47.0118
0
VERTEX
8
CUT
10
239.1032
20
47.8840
0
VERTEX
8
CUT
10
239.2487
20
48.1414
0
VERTEX
8
CUT
10
239.6715
20
49.0042
0
VERTEX
8
CUT
10
239.7983
20
49.3140
0
VERTEX
8
CUT
10
239.8210
20
49.3821
0
VERTEX
8
CUT
10
239.8253
20
49.3951
0
VERTEX
8
CUT
10
240.5383
20
51.5357
0
VERTEX
8
CUT
10
240.5385
20
51.5361
0
VERTEX
8
CUT
10
240.6082
20
51.7891
0
VERTEX
8
CUT
10
241.0843
20
53.9530
0
VERTEX
8
CUT
10
241.1239
20
54.1843
0
VERTEX
8
CUT
10
241.1241
20
54.1867
0
VERTEX
8
CUT
10
241.1264
20
54.2003
0
VERTEX
8
CUT
10
241.1439
20
54.4356
0
VERTEX
8
CUT
10
241.1803
20
55.7632
0
VERTEX
8
CUT
10
241.1812
20
55.7790
0
VERTEX
8
CUT
10
241.1864
20
55.8191
0
VERTEX
8
CUT
10
241.1955
20
55.8585
0
VERTEX
8
CUT
10
241.2012
20
55.8764
0
VERTEX
8
CUT
10
241.2903
20
56.1376
0
VERTEX
8
CUT
10
241.3618
20
56.3893
0
VERTEX
8
CUT
10
241.4065
20
56.6470
0
VERTEX
8
CUT
10
241.4097
20
56.6942
0
VERTEX
8
CUT
10
241.4136
20
56.7185
0
VERTEX
8
CUT
10
241.4284
20
56.9582
0
VERTEX
8
CUT
10
241.4608
20
59.3250
0
VERTEX
8
CUT
10
241.4611
20
59.3340
0
VERTEX
8
CUT
10
241.4662
20
59.3745
0
VERTEX
8
CUT
10
241.4763
20
59.4173
0
VERTEX
8
CUT
10
241.4827
20
59.4368
0
VERTEX
8
CUT
10
241.5517
20
59.6306
0
VERTEX
8
CUT
10
241.6259
20
59.8792
0
VERTEX
8
CUT
10
241.6740
20
60.1341
0
VERTEX
8
CUT
10
241.6954
20
60.3926
0
VERTEX
8
CUT
10
241.7124
20
60.9473
0
VERTEX
8
CUT
10
241.7135
20
61.0520
0
VERTEX
8
CUT
10
241.7032
20
61.9725
0
VERTEX
8
CUT
10
241.7049
20
62.3694
0
VERTEX
8
CUT
10
241.6972
20
62.5765
0
VERTEX
8
CUT
10
241.6964
20
62.5833
0
VERTEX
8
CUT
10
241.6959
20
62.6293
0
VERTEX
8
CUT
10
241.6845
20
62.8412
0
VERTEX
8
CUT
10
241.6552
20
63.0513
0
VERTEX
8
CUT
10
241.6082
20
63.2581
0
VERTEX
8
CUT
10
241.4683
20
63.7722
0
VERTEX
8
CUT
10
241.4670
20
63.7773
0
VERTEX
8
CUT
10
241.4647
20
63.7895
0
VERTEX
8
CUT
10
241.4194
20
67.5008
0
VERTEX
8
CUT
10
241.4038
20
67.7507
0
VERTEX
8
CUT
10
241.3996
20
67.7759
0
VERTEX
8
CUT
10
241.3990
20
67.7865
0
VERTEX
8
CUT
10
241.3715
20
67.9476
0
VERTEX
8
CUT
10
241.3633
20
67.9978
0
VERTEX
8
CUT
10
241.3623
20
68.0012
0
VERTEX
8
CUT
10
241.3546
20
68.0466
0
VERTEX
8
CUT
10
241.2831
20
68.3005
0
VERTEX
8
CUT
10
241.2066
20
68.5256
0
VERTEX
8
CUT
10
241.2009
20
68.5440
0
VERTEX
8
CUT
10
241.1917
20
68.5846
0
VERTEX
8
CUT
10
241.1866
20
68.6258
0
VERTEX
8
CUT
10
241.1858
20
68.6445
0
VERTEX
8
CUT
10
241.1505
20
70.5480
0
VERTEX
8
CUT
10
241.1313
20
70.8141
0
VERTEX
8
CUT
10
241.1307
20
70.8175
0
VERTEX
8
CUT
10
241.1304
20
70.8214
0
VERTEX
8
CUT
10
241.0862
20
71.0637
0
VERTEX
8
CUT
10
241.0839
20
71.0767
0
VERTEX
8
CUT
10
241.0838
20
71.0769
0
VERTEX
8
CUT
10
241.0821
20
71.0863
0
VERTEX
8
CUT
10
241.0056
20
71.3445
0
VERTEX
8
CUT
10
240.9276
20
71.5635
0
VERTEX
8
CUT
10
240.9215
20
71.5820
0
VERTEX
8
CUT
10
240.9117
20
71.6227
0
VERTEX
8
CUT
10
240.9113
20
71.6256
0
VERTEX
8
CUT
10
240.9061
20
71.6641
0
VERTEX
8
CUT
10
240.9051
20
71.6835
0
VERTEX
8
CUT
10
240.8723
20
72.8462
0
VERTEX
8
CUT
10
240.8497
20
73.1185
0
VERTEX
8
CUT
10
240.7975
20
73.3866
0
VERTEX
8
CUT
10
240.7163
20
73.6475
0
VERTEX
8
CUT
10
240.6489
20
73.8288
0
VERTEX
8
CUT
10
240.6422
20
73.8485
0
VERTEX
8
CUT
10
240.6328
20
73.8859
0
VERTEX
8
CUT
10
240.5962
20
75.2756
0
VERTEX
8
CUT
10
240.5937
20
75.3106
0
VERTEX
8
CUT
10
240.5897
20
75.4870
0
VERTEX
8
CUT
10
240.5712
20
75.7391
0
VERTEX
8
CUT
10
240.5273
20
75.9880
0
VERTEX
8
CUT
10
240.2665
20
77.1281
0
VERTEX
8
CUT
10
240.0670
20
79.0113
0
VERTEX
8
CUT
10
240.0321
20
79.2392
0
VERTEX
8
CUT
10
239.9764
20
79.4630
0
VERTEX
8
CUT
10
239.9165
20
79.6344
0
VERTEX
8
CUT
10
239.7781
20
81.0436
0
VERTEX
8
CUT
10
239.7407
20
81.2939
0
VERTEX
8
CUT
10
239.6781
20
81.5392
0
VERTEX
8
CUT
10
239.6534
20
81.6191
0
VERTEX
8
CUT
10
239.2691
20
82.8592
0
VERTEX
8
CUT
10
239.2676
20
82.8644
0
VERTEX
8
CUT
10
239.2564
20
82.9152
0
VERTEX
8
CUT
10
239.2530
20
82.9420
0
VERTEX
8
CUT
10
239.2515
20
82.9661
0
VERTEX
8
CUT
10
239.2178
20
83.8573
0
VERTEX
8
CUT
10
239.2170
20
83.8779
0
VERTEX
8
CUT
10
239.1978
20
84.1070
0
VERTEX
8
CUT
10
239.1576
20
84.3333
0
VERTEX
8
CUT
10
239.0967
20
84.5550
0
VERTEX
8
CUT
10
239.0158
20
84.7702
0
VERTEX
8
CUT
10
238.9921
20
84.8254
0
VERTEX
8
CUT
10
238.9857
20
84.8413
0
VERTEX
8
CUT
10
238.9768
20
84.8686
0
VERTEX
8
CUT
10
238.9756
20
84.8773
0
VERTEX
8
CUT
10
238.9744
20
84.8950
0
VERTEX
8
CUT
10
238.9463
20
85.5225
0
VERTEX
8
CUT
10
238.9252
20
85.7516
0
VERTEX
8
CUT
10
238.9241
20
85.7649
0
VERTEX
8
CUT
10
238.8837
20
85.9896
0
VERTEX
8
CUT
10
238.8231
20
86.2097
0
VERTEX
8
CUT
10
238.7426
20
86.4233
0
VERTEX
8
CUT
10
238.7152
20
86.4871
0
VERTEX
8
CUT
10
238.7088
20
86.5030
0
VERTEX
8
CUT
10
238.6999
20
86.5303
0
VERTEX
8
CUT
10
238.6986
20
86.5391
0
VERTEX
8
CUT
10
238.6974
20
86.5567
0
VERTEX
8
CUT
10
238.6694
20
87.1842
0
VERTEX
8
CUT
10
238.6483
20
87.4133
0
VERTEX
8
CUT
10
238.6471
20
87.4266
0
VERTEX
8
CUT
10
238.6068
20
87.6513
0
VERTEX
8
CUT
10
238.5461
20
87.8714
0
VERTEX
8
CUT
10
238.4656
20
88.0850
0
VERTEX
8
CUT
10
238.4382
20
88.1488
0
VERTEX
8
CUT
10
238.4318
20
88.1647
0
VERTEX
8
CUT
10
238.4229
20
88.1920
0
VERTEX
8
CUT
10
238.4217
20
88.2008
0
VERTEX
8
CUT
10
238.4205
20
88.2184
0
VERTEX
8
CUT
10
238.3924
20
88.8460
0
VERTEX
8
CUT
10
238.3713
20
89.0750
0
VERTEX
8
CUT
10
238.3702
20
89.0883
0
VERTEX
8
CUT
10
238.3298
20
89.3130
0
VERTEX
8
CUT
10
238.2692
20
89.5331
0
VERTEX
8
CUT
10
238.1887
20
89.7467
0
VERTEX
8
CUT
10
238.1609
20
89.8113
0
VERTEX
8
CUT
10
238.1546
20
89.8269
0
VERTEX
8
CUT
10
238.1460
20
89.8532
0
VERTEX
8
CUT
10
238.1447
20
89.8625
0
VERTEX
8
CUT
10
238.1435
20
89.8802
0
VERTEX
8
CUT
10
238.1154
20
90.5077
0
VERTEX
8
CUT
10
238.0938
20
90.7422
0
VERTEX
8
CUT
10
238.0503
20
90.9737
0
VERTEX
8
CUT
10
237.9851
20
91.2001
0
VERTEX
8
CUT
10
237.9408
20
91.3128
0
VERTEX
8
CUT
10
237.9249
20
91.4288
0
VERTEX
8
CUT
10
237.9083
20
91.5493
0
VERTEX
8
CUT
10
237.8774
20
91.7751
0
VERTEX
8
CUT
10
237.8458
20
92.0056
0
VERTEX
8
CUT
10
237.8385
20
92.1694
0
VERTEX
8
CUT
10
237.8169
20
92.4040
0
VERTEX
8
CUT
10
237.7733
20
92.6354
0
VERTEX
8
CUT
10
237.7470
20
92.7268
0
VERTEX
8
CUT
10
237.6984
20
93.0818
0
VERTEX
8
CUT
10
237.6528
20
93.3245
0
VERTEX
8
CUT
10
237.5835
20
93.5616
0
VERTEX
8
CUT
10
237.5074
20
93.7502
0
VERTEX
8
CUT
10
237.2941
20
95.2684
0
VERTEX
8
CUT
10
237.2934
20
95.2736
0
VERTEX
8
CUT
10
237.2886
20
95.3531
0
VERTEX
8
CUT
10
237.2886
20
95.3712
0
VERTEX
8
CUT
10
237.3351
20
97.1910
0
VERTEX
8
CUT
10
237.3362
20
97.2119
0
VERTEX
8
CUT
10
237.3424
20
97.2567
0
VERTEX
8
CUT
10
237.3536
20
97.3006
0
VERTEX
8
CUT
10
237.3605
20
97.3204
0
VERTEX
8
CUT
10
239.4195
20
102.7582
0
VERTEX
8
CUT
10
239.5080
20
103.0416
0
VERTEX
8
CUT
10
240.2392
20
105.9891
0
VERTEX
8
CUT
10
240.2897
20
106.2522
0
VERTEX
8
CUT
10
240.3117
20
106.5192
0
VERTEX
8
CUT
10
240.3491
20
107.8220
0
VERTEX
8
CUT
10
240.3503
20
107.8425
0
VERTEX
8
CUT
10
240.3625
20
107.9305
0
VERTEX
8
CUT
10
240.3670
20
107.9506
0
VERTEX
8
CUT
10
240.5148
20
108.5351
0
VERTEX
8
CUT
10
240.5573
20
108.7387
0
VERTEX
8
CUT
10
240.5827
20
108.9450
0
VERTEX
8
CUT
10
240.5910
20
109.1528
0
VERTEX
8
CUT
10
240.5816
20
113.7051
0
VERTEX
8
CUT
10
240.5661
20
113.9781
0
VERTEX
8
CUT
10
240.5209
20
114.2478
0
VERTEX
8
CUT
10
240.4464
20
114.5110
0
VERTEX
8
CUT
10
240.3832
20
114.6955
0
VERTEX
8
CUT
10
240.3769
20
114.7156
0
VERTEX
8
CUT
10
240.3572
20
114.8044
0
VERTEX
8
CUT
10
240.3544
20
114.8253
0
VERTEX
8
CUT
10
240.0729
20
117.4659
0
VERTEX
8
CUT
10
240.0315
20
117.7247
0
VERTEX
8
CUT
10
239.9632
20
117.9777
0
VERTEX
8
CUT
10
239.8688
20
118.2222
0
VERTEX
8
CUT
10
239.8306
20
118.3076
0
VERTEX
8
CUT
10
239.8238
20
118.3240
0
VERTEX
8
CUT
10
239.8115
20
118.3601
0
VERTEX
8
CUT
10
239.8063
20
118.3979
0
VERTEX
8
CUT
10
239.8052
20
118.4157
0
VERTEX
8
CUT
10
239.7633
20
119.4168
0
VERTEX
8
CUT
10
239.7370
20
119.6887
0
VERTEX
8
CUT
10
239.6812
20
119.9562
0
VERTEX
8
CUT
10
239.5965
20
120.2160
0
VERTEX
8
CUT
10
239.2821
20
121.0272
0
VERTEX
8
CUT
10
239.2756
20
121.0452
0
VERTEX
8
CUT
10
239.2647
20
121.0850
0
VERTEX
8
CUT
10
239.2579
20
121.1256
0
VERTEX
8
CUT
10
239.2562
20
121.1447
0
VERTEX
8
CUT
10
239.2246
20
121.6407
0
VERTEX
8
CUT
10
239.1957
20
121.8925
0
VERTEX
8
CUT
10
239.1414
20
122.1400
0
VERTEX
8
CUT
10
239.0624
20
122.3807
0
VERTEX
8
CUT
10
238.7216
20
123.2651
0
VERTEX
8
CUT
10
238.7151
20
123.2834
0
VERTEX
8
CUT
10
238.6932
20
123.3641
0
VERTEX
8
CUT
10
238.6896
20
123.3832
0
VERTEX
8
CUT
10
238.3873
20
125.2367
0
VERTEX
8
CUT
10
238.3417
20
125.4545
0
VERTEX
8
CUT
10
237.0539
20
130.4832
0
VERTEX
8
CUT
10
237.0494
20
130.5028
0
VERTEX
8
CUT
10
237.0370
20
130.5890
0
VERTEX
8
CUT
10
237.0357
20
130.6091
0
VERTEX
8
CUT
10
237.0005
20
131.5823
0
VERTEX
8
CUT
10
236.9792
20
131.8293
0
VERTEX
8
CUT
10
236.9336
20
132.0731
0
VERTEX
8
CUT
10
236.8641
20
132.3111
0
VERTEX
8
CUT
10
236.7684
20
132.5871
0
VERTEX
8
CUT
10
236.7624
20
132.6059
0
VERTEX
8
CUT
10
236.7528
20
132.6474
0
VERTEX
8
CUT
10
236.7475
20
132.6896
0
VERTEX
8
CUT
10
236.7467
20
132.7093
0
VERTEX
8
CUT
10
236.7123
20
134.6329
0
VERTEX
8
CUT
10
236.6969
20
134.8696
0
VERTEX
8
CUT
10
236.6590
20
135.1037
0
VERTEX
8
CUT
10
236.5992
20
135.3331
0
VERTEX
8
CUT
10
236.4766
20
135.7261
0
VERTEX
8
CUT
10
236.4713
20
135.7447
0
VERTEX
8
CUT
10
236.4631
20
135.7854
0
VERTEX
8
CUT
10
236.4634
20
135.8270
0
VERTEX
8
CUT
10
236.4650
20
135.8463
0
VERTEX
8
CUT
10
236.5410
20
136.5271
0
VERTEX
8
CUT
10
236.5562
20
136.7764
0
VERTEX
8
CUT
10
236.5465
20
137.0260
0
VERTEX
8
CUT
10
236.5119
20
137.2734
0
VERTEX
8
CUT
10
236.4529
20
137.5161
0
VERTEX
8
CUT
10
236.3699
20
137.7517
0
VERTEX
8
CUT
10
236.2638
20
137.9779
0
VERTEX
8
CUT
10
236.1356
20
138.1923
0
VERTEX
8
CUT
10
235.9867
20
138.3928
0
VERTEX
8
CUT
10
235.8185
20
138.5776
0
VERTEX
8
CUT
10
235.6328
20
138.7446
0
VERTEX
8
CUT
10
235.4313
20
138.8922
0
VERTEX
8
CUT
10
235.2160
20
139.0190
0
VERTEX
8
CUT
10
234.9892
20
139.1236
0
VERTEX
8
CUT
10
234.7531
20
139.2052
0
VERTEX
8
CUT
10
234.5100
20
139.2627
0
VERTEX
8
CUT
10
234.2624
20
139.2957
0
VERTEX
8
CUT
10
234.0127
20
139.3038
0
VERTEX
8
CUT
10
233.7635
20
139.2870
0
VERTEX
8
CUT
10
233.5172
20
139.2454
0
VERTEX
8
CUT
10
233.2763
20
139.1794
0
VERTEX
8
CUT
10
233.0431
20
139.0897
0
VERTEX
8
CUT
10
232.8201
20
138.9771
0
VERTEX
8
CUT
10
232.6094
20
138.8429
0
VERTEX
8
CUT
10
232.1910
20
138.5460
0
VERTEX
8
CUT
10
232.1763
20
138.5360
0
VERTEX
8
CUT
10
232.0403
20
138.4578
0
VERTEX
8
CUT
10
232.0354
20
138.4553
0
VERTEX
8
CUT
10
231.8336
20
138.3256
0
VERTEX
8
CUT
10
231.6452
20
138.1772
0
VERTEX
8
CUT
10
231.4719
20
138.0114
0
VERTEX
8
CUT
10
231.3152
20
137.8297
0
VERTEX
8
CUT
10
231.1767
20
137.6339
0
VERTEX
8
CUT
10
231.0575
20
137.4257
0
VERTEX
8
CUT
10
230.9589
20
137.2071
0
VERTEX
8
CUT
10
230.8817
20
136.9800
0
VERTEX
8
CUT
10
230.8537
20
136.8826
0
VERTEX
8
CUT
10
230.8215
20
136.8572
0
VERTEX
8
CUT
10
230.8054
20
136.8466
0
VERTEX
8
CUT
10
230.2845
20
136.5188
0
VERTEX
8
CUT
10
230.2691
20
136.5097
0
VERTEX
8
CUT
10
230.2342
20
136.4922
0
VERTEX
8
CUT
10
230.1239
20
136.4497
0
VERTEX
8
CUT
10
229.8944
20
136.3478
0
VERTEX
8
CUT
10
229.6763
20
136.2235
0
VERTEX
8
CUT
10
229.4718
20
136.0778
0
VERTEX
8
CUT
10
229.2829
20
135.9124
0
VERTEX
8
CUT
10
229.1115
20
135.7289
0
VERTEX
8
CUT
10
228.9594
20
135.5292
0
VERTEX
8
CUT
10
228.8281
20
135.3151
0
VERTEX
8
CUT
10
228.7190
20
135.0890
0
VERTEX
8
CUT
10
228.6331
20
134.8531
0
VERTEX
8
CUT
10
228.5712
20
134.6098
0
VERTEX
8
CUT
10
228.5341
20
134.3614
0
VERTEX
8
CUT
10
228.5221
20
134.1107
0
VERTEX
8
CUT
10
228.5222
20
134.1029
0
VERTEX
8
CUT
10
228.5217
20
134.0829
0
VERTEX
8
CUT
10
228.5128
20
133.9972
0
VERTEX
8
CUT
10
228.5091
20
133.9776
0
VERTEX
8
CUT
10
228.3629
20
133.2910
0
VERTEX
8
CUT
10
228.3248
20
133.0597
0
VERTEX
8
CUT
10
228.3086
20
132.8259
0
VERTEX
8
CUT
10
228.3144
20
132.5916
0
VERTEX
8
CUT
10
228.3421
20
132.3588
0
VERTEX
8
CUT
10
228.5247
20
131.2642
0
VERTEX
8
CUT
10
228.5272
20
131.2464
0
VERTEX
8
CUT
10
228.5298
20
131.2081
0
VERTEX
8
CUT
10
228.5109
20
131.1747
0
VERTEX
8
CUT
10
228.5010
20
131.1597
0
VERTEX
8
CUT
10
227.5656
20
129.8239
0
VERTEX
8
CUT
10
227.4352
20
129.6168
0
VERTEX
8
CUT
10
227.3256
20
129.3979
0
VERTEX
8
CUT
10
227.2380
20
129.1694
0
VERTEX
8
CUT
10
227.1732
20
128.9334
0
VERTEX
8
CUT
10
227.1318
20
128.6922
0
VERTEX
8
CUT
10
227.1207
20
128.6013
0
VERTEX
8
CUT
10
227.1176
20
128.5809
0
VERTEX
8
CUT
10
227.1074
20
128.5376
0
VERTEX
8
CUT
10
227.0925
20
128.4956
0
VERTEX
8
CUT
10
227.0839
20
128.4768
0
VERTEX
8
CUT
10
226.8353
20
127.9651
0
VERTEX
8
CUT
10
226.8055
20
127.9078
0
VERTEX
8
CUT
10
226.7727
20
127.8522
0
VERTEX
8
CUT
10
225.9302
20
126.5103
0
VERTEX
8
CUT
10
225.8099
20
126.2960
0
VERTEX
8
CUT
10
225.7113
20
126.0709
0
VERTEX
8
CUT
10
225.6352
20
125.8372
0
VERTEX
8
CUT
10
225.5824
20
125.5972
0
VERTEX
8
CUT
10
225.5534
20
125.3532
0
VERTEX
8
CUT
10
225.5486
20
125.1075
0
VERTEX
8
CUT
10
225.5679
20
124.8624
0
VERTEX
8
CUT
10
225.6111
20
124.6205
0
VERTEX
8
CUT
10
225.6780
20
124.3840
0
VERTEX
8
CUT
10
225.7677
20
124.1552
0
VERTEX
8
CUT
10
225.8794
20
123.9363
0
VERTEX
8
CUT
10
226.0121
20
123.7295
0
VERTEX
8
CUT
10
226.1644
20
123.5366
0
VERTEX
8
CUT
10
226.3350
20
123.3597
0
VERTEX
8
CUT
10
226.5221
20
123.2003
0
VERTEX
8
CUT
10
226.7239
20
123.0601
0
VERTEX
8
CUT
10
226.9386
20
122.9404
0
VERTEX
8
CUT
10
227.0021
20
122.9090
0
VERTEX
8
CUT
10
227.0547
20
122.8810
0
VERTEX
8
CUT
10
227.1181
20
122.8449
0
VERTEX
8
CUT
10
227.5462
20
122.5841
0
VERTEX
8
CUT
10
227.6098
20
122.5426
0
VERTEX
8
CUT
10
227.6295
20
122.5289
0
VERTEX
8
CUT
10
227.7486
20
122.4349
0
VERTEX
8
CUT
10
227.7665
20
122.4189
0
VERTEX
8
CUT
10
227.8215
20
122.3666
0
VERTEX
8
CUT
10
228.3203
20
121.8630
0
VERTEX
8
CUT
10
228.3593
20
121.8195
0
VERTEX
8
CUT
10
228.3503
20
121.8145
0
VERTEX
8
CUT
10
228.1145
20
121.6671
0
VERTEX
8
CUT
10
227.8965
20
121.4944
0
VERTEX
8
CUT
10
227.6990
20
121.2986
0
VERTEX
8
CUT
10
227.5664
20
121.1515
0
VERTEX
8
CUT
10
223.3093
20
116.4319
0
VERTEX
8
CUT
10
223.2556
20
116.3760
0
VERTEX
8
CUT
10
223.1985
20
116.3236
0
VERTEX
8
CUT
10
218.8469
20
112.5819
0
VERTEX
8
CUT
10
218.7950
20
112.5397
0
VERTEX
8
CUT
10
218.7410
20
112.5005
0
VERTEX
8
CUT
10
216.6792
20
111.0868
0
VERTEX
8
CUT
10
216.4796
20
110.9346
0
VERTEX
8
CUT
10
216.2962
20
110.7632
0
VERTEX
8
CUT
10
216.1309
20
110.5742
0
VERTEX
8
CUT
10
215.9854
20
110.3696
0
VERTEX
8
CUT
10
215.8517
20
110.1600
0
VERTEX
8
CUT
10
215.7537
20
109.9925
0
VERTEX
8
CUT
10
215.6691
20
109.8179
0
VERTEX
8
CUT
10
215.6424
20
109.7569
0
VERTEX
8
CUT
10
215.5545
20
109.5256
0
VERTEX
8
CUT
10
215.4899
20
109.2867
0
VERTEX
8
CUT
10
215.4492
20
109.0426
0
VERTEX
8
CUT
10
215.4329
20
108.7957
0
VERTEX
8
CUT
10
215.4152
20
107.7305
0
VERTEX
8
CUT
10
215.4162
20
107.6081
0
VERTEX
8
CUT
10
215.4340
20
107.0590
0
VERTEX
8
CUT
10
215.4526
20
106.8255
0
VERTEX
8
CUT
10
215.4929
20
106.5947
0
VERTEX
8
CUT
10
215.5547
20
106.3687
0
VERTEX
8
CUT
10
215.6970
20
105.9300
0
VERTEX
8
CUT
10
215.7666
20
105.7416
0
VERTEX
8
CUT
10
215.8511
20
105.5594
0
VERTEX
8
CUT
10
216.8163
20
103.6800
0
VERTEX
8
CUT
10
216.9242
20
103.4907
0
VERTEX
8
CUT
10
217.0481
20
103.3115
0
VERTEX
8
CUT
10
217.1872
20
103.1438
0
VERTEX
8
CUT
10
221.0225
20
98.9093
0
VERTEX
8
CUT
10
221.0651
20
98.8597
0
VERTEX
8
CUT
10
221.1049
20
98.8079
0
VERTEX
8
CUT
10
222.6345
20
96.7061
0
VERTEX
8
CUT
10
222.6441
20
96.6924
0
VERTEX
8
CUT
10
222.6800
20
96.6332
0
VERTEX
8
CUT
10
222.6877
20
96.6184
0
VERTEX
8
CUT
10
223.2251
20
95.5366
0
VERTEX
8
CUT
10
223.2329
20
95.5201
0
VERTEX
8
CUT
10
223.2601
20
95.4497
0
VERTEX
8
CUT
10
223.2621
20
95.4433
0
VERTEX
8
CUT
10
223.2655
20
95.4323
0
VERTEX
8
CUT
10
223.8348
20
93.4348
0
VERTEX
8
CUT
10
223.8393
20
93.4176
0
VERTEX
8
CUT
10
223.8462
20
93.3812
0
VERTEX
8
CUT
10
223.8498
20
93.3443
0
VERTEX
8
CUT
10
223.8503
20
93.3270
0
VERTEX
8
CUT
10
223.8652
20
91.4788
0
VERTEX
8
CUT
10
223.8651
20
91.4734
0
VERTEX
8
CUT
10
223.8615
20
91.4227
0
VERTEX
8
CUT
10
223.8575
20
91.3975
0
VERTEX
8
CUT
10
223.8522
20
91.3737
0
VERTEX
8
CUT
10
223.5609
20
90.1911
0
VERTEX
8
CUT
10
223.5548
20
90.1692
0
VERTEX
8
CUT
10
223.5219
20
90.0807
0
VERTEX
8
CUT
10
223.5122
20
90.0601
0
VERTEX
8
CUT
10
223.4700
20
89.9773
0
VERTEX
8
CUT
10
223.4638
20
89.9652
0
VERTEX
8
CUT
10
223.4546
20
89.9472
0
VERTEX
8
CUT
10
223.4543
20
89.9466
0
VERTEX
8
CUT
10
223.4512
20
89.9405
0
VERTEX
8
CUT
10
223.4396
20
89.9178
0
VERTEX
8
CUT
10
223.4394
20
89.9174
0
VERTEX
8
CUT
10
223.4386
20
89.9157
0
VERTEX
8
CUT
10
223.4314
20
89.9017
0
VERTEX
8
CUT
10
223.3999
20
89.8399
0
VERTEX
8
CUT
10
223.3147
20
89.6725
0
VERTEX
8
CUT
10
222.9440
20
88.9450
0
VERTEX
8
CUT
10
222.9346
20
88.9276
0
VERTEX
8
CUT
10
222.9127
20
88.8934
0
VERTEX
8
CUT
10
222.8874
20
88.8615
0
VERTEX
8
CUT
10
222.8740
20
88.8470
0
VERTEX
8
CUT
10
221.8133
20
87.7517
0
VERTEX
8
CUT
10
221.8009
20
87.7395
0
VERTEX
8
CUT
10
221.7735
20
87.7158
0
VERTEX
8
CUT
10
221.7441
20
87.6945
0
VERTEX
8
CUT
10
221.7297
20
87.6855
0
VERTEX
8
CUT
10
221.0620
20
87.2877
0
VERTEX
8
CUT
10
221.0468
20
87.2791
0
VERTEX
8
CUT
10
220.9819
20
87.2478
0
VERTEX
8
CUT
10
220.9658
20
87.2413
0
VERTEX
8
CUT
10
219.4417
20
86.6637
0
VERTEX
8
CUT
10
219.4256
20
86.6580
0
VERTEX
8
CUT
10
219.3917
20
86.6484
0
VERTEX
8
CUT
10
219.3569
20
86.6448
0
VERTEX
8
CUT
10
219.3397
20
86.6441
0
VERTEX
8
CUT
10
215.3374
20
86.5725
0
VERTEX
8
CUT
10
215.0900
20
86.5557
0
VERTEX
8
CUT
10
214.8456
20
86.5146
0
VERTEX
8
CUT
10
214.6064
20
86.4495
0
VERTEX
8
CUT
10
213.6725
20
86.1447
0
VERTEX
8
CUT
10
213.4543
20
86.0620
0
VERTEX
8
CUT
10
213.2448
20
85.9594
0
VERTEX
8
CUT
10
213.0458
20
85.8376
0
VERTEX
8
CUT
10
212.8589
20
85.6978
0
VERTEX
8
CUT
10
212.6859
20
85.5413
0
VERTEX
8
CUT
10
212.2529
20
85.1109
0
VERTEX
8
CUT
10
212.0800
20
84.9204
0
VERTEX
8
CUT
10
211.9276
20
84.7131
0
VERTEX
8
CUT
10
211.7973
20
84.4913
0
VERTEX
8
CUT
10
211.6454
20
84.1993
0
VERTEX
8
CUT
10
211.5495
20
83.9923
0
VERTEX
8
CUT
10
211.4728
20
83.7774
0
VERTEX
8
CUT
10
211.4161
20
83.5564
0
VERTEX
8
CUT
10
211.3797
20
83.3311
0
SEQEND
0
POLYLINE
8
CUT
66
1
70
1
10
0.0
20
0.0
30
0.0
0
VERTEX
8
CUT
10
170.6044
20
150.4353
0
VERTEX
8
CUT
10
170.7750
20
150.1158
0
VERTEX
8
CUT
10
173.5376
20
145.7378
0
VERTEX
8
CUT
10
173.6656
20
145.5537
0
VERTEX
8
CUT
10
173.8095
20
145.3819
0
VERTEX
8
CUT
10
173.9683
20
145.2237
0
VERTEX
8
CUT
10
177.2796
20
142.2075
0
VERTEX
8
CUT
10
177.5167
20
142.0167
0
VERTEX
8
CUT
10
180.2081
20
140.1075
0
VERTEX
8
CUT
10
180.3688
20
140.0025
0
VERTEX
8
CUT
10
180.5370
20
139.9102
0
VERTEX
8
CUT
10
181.4509
20
139.4535
0
VERTEX
8
CUT
10
182.8795
20
138.7396
0
VERTEX
8
CUT
10
182.9448
20
138.7028
0
VERTEX
8
CUT
10
183.1860
20
138.5836
0
VERTEX
8
CUT
10
183.2780
20
138.5498
0
VERTEX
8
CUT
10
183.2826
20
138.5478
0
VERTEX
8
CUT
10
183.3096
20
138.5383
0
VERTEX
8
CUT
10
183.4387
20
138.4909
0
VERTEX
8
CUT
10
183.4780
20
138.4789
0
VERTEX
8
CUT
10
186.9636
20
137.4096
0
VERTEX
8
CUT
10
187.2864
20
137.3336
0
VERTEX
8
CUT
10
188.7032
20
137.0979
0
VERTEX
8
CUT
10
188.9176
20
137.0717
0
VERTEX
8
CUT
10
189.1334
20
137.0640
0
VERTEX
8
CUT
10
193.9671
20
137.1024
0
VERTEX
8
CUT
10
194.2360
20
137.1191
0
VERTEX
8
CUT
10
194.5016
20
137.1645
0
VERTEX
8
CUT
10
194.7607
20
137.2383
0
VERTEX
8
CUT
10
195.0104
20
137.3396
0
VERTEX
8
CUT
10
198.1654
20
138.8219
0
VERTEX
8
CUT
10
198.2294
20
138.8477
0
VERTEX
8
CUT
10
198.2528
20
138.8515
0
VERTEX
8
CUT
10
198.5164
20
138.9091
0
VERTEX
8
CUT
10
198.7723
20
138.9948
0
VERTEX
8
CUT
10
200.0013
20
139.4817
0
VERTEX
8
CUT
10
200.5582
20
139.6676
0
VERTEX
8
CUT
10
200.8872
20
139.8043
0
VERTEX
8
CUT
10
201.1786
20
139.9505
0
VERTEX
8
CUT
10
201.3356
20
140.0208
0
VERTEX
8
CUT
10
204.0249
20
141.3735
0
VERTEX
8
CUT
10
204.2361
20
141.4929
0
VERTEX
8
CUT
10
204.4347
20
141.6322
0
VERTEX
8
CUT
10
204.6189
20
141.7901
0
VERTEX
8
CUT
10
204.7870
20
141.9652
0
VERTEX
8
CUT
10
204.9372
20
142.1557
0
VERTEX
8
CUT
10
204.9962
20
142.2475
0
VERTEX
8
CUT
10
205.0795
20
142.2537
0
VERTEX
8
CUT
10
205.3201
20
142.2955
0
VERTEX
8
CUT
10
205.5554
20
142.3606
0
VERTEX
8
CUT
10
205.7833
20
142.4483
0
VERTEX
8
CUT
10
206.0015
20
142.5579
0
VERTEX
8
CUT
10
206.2080
20
142.6882
0
VERTEX
8
CUT
10
207.7803
20
143.7912
0
VERTEX
8
CUT
10
208.3212
20
143.8140
0
VERTEX
8
CUT
10
208.3384
20
143.8143
0
VERTEX
8
CUT
10
208.3758
20
143.8125
0
VERTEX
8
CUT
10
208.4129
20
143.8071
0
VERTEX
8
CUT
10
208.4293
20
143.8036
0
VERTEX
8
CUT
10
208.5881
20
143.7657
0
VERTEX
8
CUT
10
208.8253
20
143.7211
0
VERTEX
8
CUT
10
209.0656
20
143.6996
0
VERTEX
8
CUT
10
209.3070
20
143.7014
0
VERTEX
8
CUT
10
209.5470
20
143.7264
0
VERTEX
8
CUT
10
209.7835
20
143.7744
0
VERTEX
8
CUT
10
210.0143
20
143.8451
0
VERTEX
8
CUT
10
210.2372
20
143.9376
0
VERTEX
8
CUT
10
211.0667
20
144.3300
0
VERTEX
8
CUT
10
211.0854
20
144.3383
0
VERTEX
8
CUT
10
211.1270
20
144.3526
0
VERTEX
8
CUT
10
211.1706
20
144.3576
0
VERTEX
8
CUT
10
211.1911
20
144.3582
0
VERTEX
8
CUT
10
211.9762
20
144.3611
0
VERTEX
8
CUT
10
211.9817
20
144.3610
0
VERTEX
8
CUT
10
212.0298
20
144.3573
0
VERTEX
8
CUT
10
212.1311
20
144.3309
0
VERTEX
8
CUT
10
212.1315
20
144.3326
0
VERTEX
8
CUT
10
212.2918
20
144.2919
0
VERTEX
8
CUT
10
212.5396
20
144.2547
0
VERTEX
8
CUT
10
212.7899
20
144.2425
0
VERTEX
8
CUT
10
213.0402
20
144.2554
0
VERTEX
8
CUT
10
213.2879
20
144.2934
0
VERTEX
8
CUT
10
213.5306
20
144.3559
0
VERTEX
8
CUT
10
214.3214
20
144.6026
0
VERTEX
8
CUT
10
214.3406
20
144.6080
0
VERTEX
8
CUT
10
214.4428
20
144.6283
0
VERTEX
8
CUT
10
214.6851
20
144.6892
0
VERTEX
8
CUT
10
214.9201
20
144.7740
0
VERTEX
8
CUT
10
215.1455
20
144.8817
0
VERTEX
8
CUT
10
215.3590
20
145.0115
0
VERTEX
8
CUT
10
215.5584
20
145.1619
0
VERTEX
8
CUT
10
215.7419
20
145.3314
0
VERTEX
8
CUT
10
215.9075
20
145.5184
0
VERTEX
8
CUT
10
216.0537
20
145.7210
0
VERTEX
8
CUT
10
216.1789
20
145.9372
0
VERTEX
8
CUT
10
216.2819
20
146.1648
0
VERTEX
8
CUT
10
216.3301
20
146.3079
0
VERTEX
8
CUT
10
216.3477
20
146.3523
0
VERTEX
8
CUT
10
216.3734
20
146.3839
0
VERTEX
8
CUT
10
216.3865
20
146.3977
0
VERTEX
8
CUT
10
217.2705
20
147.2817
0
VERTEX
8
CUT
10
217.2829
20
147.2935
0
VERTEX
8
CUT
10
217.3113
20
147.3172
0
VERTEX
8
CUT
10
217.3453
20
147.3322
0
VERTEX
8
CUT
10
217.3610
20
147.3379
0
VERTEX
8
CUT
10
218.0191
20
147.5602
0
VERTEX
8
CUT
10
218.2484
20
147.6504
0
VERTEX
8
CUT
10
218.4677
20
147.7628
0
VERTEX
8
CUT
10
218.6748
20
147.8962
0
VERTEX
8
CUT
10
218.8678
20
148.0494
0
VERTEX
8
CUT
10
219.0448
20
148.2208
0
VERTEX
8
CUT
10
219.2041
20
148.4088
0
VERTEX
8
CUT
10
219.3441
20
148.6116
0
VERTEX
8
CUT
10
219.4634
20
148.8271
0
VERTEX
8
CUT
10
219.5610
20
149.0534
0
VERTEX
8
CUT
10
219.6358
20
149.2882
0
VERTEX
8
CUT
10
219.6871
20
149.5292
0
VERTEX
8
CUT
10
219.7144
20
149.7740
0
VERTEX
8
CUT
10
219.7176
20
150.0204
0
VERTEX
8
CUT
10
219.6964
20
150.2659
0
VERTEX
8
CUT
10
219.6512
20
150.5081
0
VERTEX
8
CUT
10
219.5823
20
150.7447
0
VERTEX
8
CUT
10
219.4905
20
150.9734
0
VERTEX
8
CUT
10
219.3767
20
151.1919
0
VERTEX
8
CUT
10
219.2419
20
151.3981
0
VERTEX
8
CUT
10
218.8687
20
151.9118
0
VERTEX
8
CUT
10
218.8588
20
151.9261
0
VERTEX
8
CUT
10
218.8397
20
151.9583
0
VERTEX
8
CUT
10
218.8270
20
151.9931
0
VERTEX
8
CUT
10
218.8221
20
152.0101
0
VERTEX
8
CUT
10
218.7271
20
152.3715
0
VERTEX
8
CUT
10
218.7228
20
152.3893
0
VERTEX
8
CUT
10
218.7167
20
152.4278
0
VERTEX
8
CUT
10
218.7331
20
152.4632
0
VERTEX
8
CUT
10
218.7420
20
152.4792
0
VERTEX
8
CUT
10
219.0566
20
153.0128
0
VERTEX
8
CUT
10
219.0654
20
153.0270
0
VERTEX
8
CUT
10
219.0863
20
153.0562
0
VERTEX
8
CUT
10
219.1117
20
153.0809
0
VERTEX
8
CUT
10
219.1245
20
153.0918
0
VERTEX
8
CUT
10
220.2785
20
154.0315
0
VERTEX
8
CUT
10
220.4627
20
154.1973
0
VERTEX
8
CUT
10
220.6296
20
154.3806
0
VERTEX
8
CUT
10
221.5535
20
155.5022
0
VERTEX
8
CUT
10
221.5645
20
155.5150
0
VERTEX
8
CUT
10
221.5902
20
155.5410
0
VERTEX
8
CUT
10
221.6182
20
155.5647
0
VERTEX
8
CUT
10
221.6314
20
155.5744
0
VERTEX
8
CUT
10
224.4697
20
157.5657
0
VERTEX
8
CUT
10
224.4737
20
157.5684
0
VERTEX
8
CUT
10
224.5370
20
157.6063
0
VERTEX
8
CUT
10
224.5519
20
157.6141
0
VERTEX
8
CUT
10
226.2283
20
158.4421
0
VERTEX
8
CUT
10
226.4345
20
158.5564
0
VERTEX
8
CUT
10
226.6291
20
158.6896
0
VERTEX
8
CUT
10
228.0640
20
159.7747
0
VERTEX
8
CUT
10
228.0779
20
159.7847
0
VERTEX
8
CUT
10
228.1409
20
159.8239
0
VERTEX
8
CUT
10
228.1561
20
159.8319
0
VERTEX
8
CUT
10
230.8242
20
161.1698
0
VERTEX
8
CUT
10
230.8416
20
161.1780
0
VERTEX
8
CUT
10
230.8805
20
161.1927
0
VERTEX
8
CUT
10
230.9207
20
161.2033
0
VERTEX
8
CUT
10
230.9397
20
161.2068
0
VERTEX
8
CUT
10
231.2920
20
161.2623
0
VERTEX
8
CUT
10
231.3089
20
161.2645
0
VERTEX
8
CUT
10
231.3455
20
161.2669
0
VERTEX
8
CUT
10
231.3801
20
161.2561
0
VERTEX
8
CUT
10
231.3962
20
161.2499
0
VERTEX
8
CUT
10
231.5628
20
161.1810
0
VERTEX
8
CUT
10
231.8216
20
161.0903
0
VERTEX
8
CUT
10
232.0888
20
161.0284
0
VERTEX
8
CUT
10
232.3612
20
160.9962
0
VERTEX
8
CUT
10
232.7528
20
160.9715
0
VERTEX
8
CUT
10
232.9879
20
160.9678
0
VERTEX
8
CUT
10
233.2224
20
160.9862
0
VERTEX
8
CUT
10
233.4540
20
161.0265
0
VERTEX
8
CUT
10
233.6809
20
161.0885
0
VERTEX
8
CUT
10
233.9010
20
161.1714
0
VERTEX
8
CUT
10
234.1122
20
161.2747
0
VERTEX
8
CUT
10
234.3129
20
161.3974
0
VERTEX
8
CUT
10
234.5011
20
161.5384
0
VERTEX
8
CUT
10
234.6752
20
161.6964
0
VERTEX
8
CUT
10
235.1437
20
162.1636
0
VERTEX
8
CUT
10
235.1563
20
162.1756
0
VERTEX
8
CUT
10
235.1851
20
162.1994
0
VERTEX
8
CUT
10
235.2193
20
162.2144
0
VERTEX
8
CUT
10
235.2357
20
162.2202
0
VERTEX
8
CUT
10
235.3609
20
162.2615
0
VERTEX
8
CUT
10
235.5914
20
162.3505
0
VERTEX
8
CUT
10
235.8121
20
162.4618
0
VERTEX
8
CUT
10
236.0206
20
162.5944
0
VERTEX
8
CUT
10
236.2151
20
162.7469
0
VERTEX
8
CUT
10
236.3936
20
162.9178
0
VERTEX
8
CUT
10
236.5543
20
163.1056
0
VERTEX
8
CUT
10
236.6957
20
163.3082
0
VERTEX
8
CUT
10
236.8163
20
163.5239
0
VERTEX
8
CUT
10
236.9152
20
163.7504
0
VERTEX
8
CUT
10
236.9911
20
163.9856
0
VERTEX
8
CUT
10
237.0435
20
164.2271
0
VERTEX
8
CUT
10
237.0718
20
164.4726
0
VERTEX
8
CUT
10
237.0757
20
164.7197
0
VERTEX
8
CUT
10
237.0551
20
164.9660
0
VERTEX
8
CUT
10
237.0104
20
165.2090
0
VERTEX
8
CUT
10
235.0704
20
173.4401
0
VERTEX
8
CUT
10
235.0085
20
173.6581
0
VERTEX
8
CUT
10
232.8707
20
180.0632
0
VERTEX
8
CUT
10
232.7936
20
180.2648
0
VERTEX
8
CUT
10
232.6994
20
180.4590
0
VERTEX
8
CUT
10
232.3771
20
181.0563
0
VERTEX
8
CUT
10
232.2544
20
181.2598
0
VERTEX
8
CUT
10
232.1130
20
181.4507
0
VERTEX
8
CUT
10
231.9541
20
181.6274
0
VERTEX
8
CUT
10
229.6507
20
183.9553
0
VERTEX
8
CUT
10
229.5161
20
184.0817
0
VERTEX
8
CUT
10
229.3725
20
184.1978
0
VERTEX
8
CUT
10
228.7654
20
184.6526
0
VERTEX
8
CUT
10
228.5726
20
184.7835
0
VERTEX
8
CUT
10
228.3684
20
184.8958
0
VERTEX
8
CUT
10
228.1547
20
184.9887
0
VERTEX
8
CUT
10
227.9332
20
185.0613
0
VERTEX
8
CUT
10
227.7049
20
185.1244
0
VERTEX
8
CUT
10
227.4805
20
185.1755
0
VERTEX
8
CUT
10
227.2523
20
185.2058
0
VERTEX
8
CUT
10
227.0223
20
185.2149
0
VERTEX
8
CUT
10
225.4966
20
185.2052
0
VERTEX
8
CUT
10
225.2802
20
185.1944
0
VERTEX
8
CUT
10
225.0656
20
185.1650
0
VERTEX
8
CUT
10
224.8544
20
185.1171
0
VERTEX
8
CUT
10
224.6481
20
185.0511
0
VERTEX
8
CUT
10
223.8330
20
184.7507
0
VERTEX
8
CUT
10
223.5617
20
184.6320
0
VERTEX
8
CUT
10
223.3063
20
184.4821
0
VERTEX
8
CUT
10
221.2978
20
183.1370
0
VERTEX
8
CUT
10
221.1263
20
183.0112
0
VERTEX
8
CUT
10
220.9661
20
182.8713
0
VERTEX
8
CUT
10
220.8183
20
182.7183
0
VERTEX
8
CUT
10
219.7286
20
181.4893
0
VERTEX
8
CUT
10
219.7171
20
181.4769
0
VERTEX
8
CUT
10
219.6908
20
181.4521
0
VERTEX
8
CUT
10
219.6586
20
181.4352
0
VERTEX
8
CUT
10
219.6437
20
181.4285
0
VERTEX
8
CUT
10
216.3969
20
180.0723
0
VERTEX
8
CUT
10
216.3404
20
180.0504
0
VERTEX
8
CUT
10
216.2829
20
180.0314
0
VERTEX
8
CUT
10
213.4645
20
179.1778
0
VERTEX
8
CUT
10
213.4624
20
179.1772
0
VERTEX
8
CUT
10
213.4337
20
179.1785
0
VERTEX
8
CUT
10
213.4172
20
179.1796
0
VERTEX
8
CUT
10
213.3814
20
179.1844
0
VERTEX
8
CUT
10
213.3462
20
179.1923
0
VERTEX
8
CUT
10
213.3307
20
179.1969
0
VERTEX
8
CUT
10
213.0006
20
179.3027
0
VERTEX
8
CUT
10
212.7626
20
179.3663
0
VERTEX
8
CUT
10
212.5194
20
179.4061
0
VERTEX
8
CUT
10
212.2736
20
179.4219
0
VERTEX
8
CUT
10
208.6870
20
179.4738
0
VERTEX
8
CUT
10
208.6689
20
179.4745
0
VERTEX
8
CUT
10
208.6302
20
179.4789
0
VERTEX
8
CUT
10
208.5930
20
179.4905
0
VERTEX
8
CUT
10
208.5762
20
179.4972
0
VERTEX
8
CUT
10
208.5463
20
179.5099
0
VERTEX
8
CUT
10
208.3365
20
179.5881
0
VERTEX
8
CUT
10
208.1207
20
179.6471
0
VERTEX
8
CUT
10
207.9003
20
179.6867
0
VERTEX
8
CUT
10
207.6774
20
179.7063
0
VERTEX
8
CUT
10
207.0443
20
179.7337
0
VERTEX
8
CUT
10
207.0265
20
179.7349
0
VERTEX
8
CUT
10
206.9499
20
179.7456
0
VERTEX
8
CUT
10
206.9324
20
179.7493
0
VERTEX
8
CUT
10
203.8890
20
180.4731
0
VERTEX
8
CUT
10
203.6777
20
180.5138
0
VERTEX
8
CUT
10
203.4637
20
180.5362
0
VERTEX
8
CUT
10
202.8129
20
180.5762
0
VERTEX
8
CUT
10
202.7950
20
180.5777
0
VERTEX
8
CUT
10
202.7568
20
180.5838
0
VERTEX
8
CUT
10
202.7204
20
180.5970
0
VERTEX
8
CUT
10
202.6787
20
180.6157
0
VERTEX
8
CUT
10
202.4694
20
180.6984
0
VERTEX
8
CUT
10
202.2536
20
180.7620
0
VERTEX
8
CUT
10
202.0329
20
180.8059
0
VERTEX
8
CUT
10
201.8092
20
180.8297
0
VERTEX
8
CUT
10
201.4434
20
180.8522
0
VERTEX
8
CUT
10
201.4206
20
180.8543
0
VERTEX
8
CUT
10
201.3237
20
180.8722
0
VERTEX
8
CUT
10
201.3073
20
180.8768
0
VERTEX
8
CUT
10
200.8781
20
181.0129
0
VERTEX
8
CUT
10
200.8503
20
181.0202
0
VERTEX
8
CUT
10
200.7053
20
181.0658
0
VERTEX
8
CUT
10
200.4716
20
181.1270
0
VERTEX
8
CUT
10
200.2330
20
181.1654
0
VERTEX
8
CUT
10
199.9919
20
181.1806
0
VERTEX
8
CUT
10
199.7505
20
181.1724
0
VERTEX
8
CUT
10
199.5109
20
181.1409
0
VERTEX
8
CUT
10
199.2755
20
181.0865
0
VERTEX
8
CUT
10
199.0465
20
181.0096
0
VERTEX
8
CUT
10
198.8260
20
180.9110
0
VERTEX
8
CUT
10
198.6160
20
180.7915
0
VERTEX
8
CUT
10
198.4185
20
180.6524
0
VERTEX
8
CUT
10
198.2354
20
180.4948
0
VERTEX
8
CUT
10
198.0683
20
180.3203
0
VERTEX
8
CUT
10
197.9189
20
180.1304
0
VERTEX
8
CUT
10
197.7885
20
179.9271
0
VERTEX
8
CUT
10
197.6783
20
179.7121
0
VERTEX
8
CUT
10
197.5894
20
179.4874
0
VERTEX
8
CUT
10
197.5226
20
179.2552
0
VERTEX
8
CUT
10
197.4785
20
179.0177
0
VERTEX
8
CUT
10
197.4576
20
178.7770
0
VERTEX
8
CUT
10
197.4600
20
178.5354
0
VERTEX
8
CUT
10
197.4856
20
178.2952
0
VERTEX
8
CUT
10
197.5344
20
178.0586
0
VERTEX
8
CUT
10
197.6058
20
177.8278
0
VERTEX
8
CUT
10
197.6991
20
177.6050
0
VERTEX
8
CUT
10
197.8135
20
177.3922
0
VERTEX
8
CUT
10
197.9478
20
177.1914
0
VERTEX
8
CUT
10
198.1010
20
177.0045
0
VERTEX
8
CUT
10
198.2715
20
176.8333
0
VERTEX
8
CUT
10
198.4576
20
176.6794
0
VERTEX
8
CUT
10
198.6578
20
176.5441
0
VERTEX
8
CUT
10
200.8650
20
175.2034
0
VERTEX
8
CUT
10
201.0432
20
175.0817
0
VERTEX
8
CUT
10
201.0811
20
175.0558
0
VERTEX
8
CUT
10
201.0922
20
175.0482
0
VERTEX
8
CUT
10
201.1874
20
174.9831
0
VERTEX
8
CUT
10
201.5179
20
174.6828
0
VERTEX
8
CUT
10
203.0792
20
173.1472
0
VERTEX
8
CUT
10
203.1643
20
173.0636
0
VERTEX
8
CUT
10
203.1749
20
173.0531
0
VERTEX
8
CUT
10
203.1759
20
173.0522
0
VERTEX
8
CUT
10
204.2171
20
171.9827
0
VERTEX
8
CUT
10
205.7353
20
170.1642
0
VERTEX
8
CUT
10
205.7388
20
170.1599
0
VERTEX
8
CUT
10
205.7747
20
170.1087
0
VERTEX
8
CUT
10
205.8255
20
170.0252
0
VERTEX
8
CUT
10
207.4967
20
167.1101
0
VERTEX
8
CUT
10
208.2164
20
165.7927
0
VERTEX
8
CUT
10
208.2247
20
165.7766
0
VERTEX
8
CUT
10
208.2554
20
165.7048
0
VERTEX
8
CUT
10
208.2613
20
165.6876
0
VERTEX
8
CUT
10
208.5502
20
164.7780
0
VERTEX
8
CUT
10
208.5517
20
164.7729
0
VERTEX
8
CUT
10
208.5631
20
164.7236
0
VERTEX
8
CUT
10
208.5667
20
164.6976
0
VERTEX
8
CUT
10
208.5685
20
164.6742
0
VERTEX
8
CUT
10
208.8655
20
158.9812
0
VERTEX
8
CUT
10
208.8660
20
158.9594
0
VERTEX
8
CUT
10
208.8600
20
158.8653
0
VERTEX
8
CUT
10
208.8567
20
158.8438
0
VERTEX
8
CUT
10
208.2925
20
155.7469
0
VERTEX
8
CUT
10
208.2879
20
155.7252
0
VERTEX
8
CUT
10
208.2597
20
155.6335
0
VERTEX
8
CUT
10
208.2513
20
155.6130
0
VERTEX
8
CUT
10
207.1657
20
153.1604
0
VERTEX
8
CUT
10
207.1624
20
153.1539
0
VERTEX
8
CUT
10
207.1201
20
153.0773
0
VERTEX
8
CUT
10
207.0918
20
153.0338
0
VERTEX
8
CUT
10
207.0525
20
152.9759
0
VERTEX
8
CUT
10
206.1924
20
151.7576
0
VERTEX
8
CUT
10
205.7760
20
151.1679
0
VERTEX
8
CUT
10
205.5605
20
150.8627
0
VERTEX
8
CUT
10
205.1474
20
150.2776
0
VERTEX
8
CUT
10
203.3329
20
148.4567
0
VERTEX
8
CUT
10
203.2534
20
148.3685
0
VERTEX
8
CUT
10
203.2532
20
148.3731
0
VERTEX
8
CUT
10
203.2795
20
148.4278
0
VERTEX
8
CUT
10
204.2914
20
150.2940
0
VERTEX
8
CUT
10
204.4142
20
150.5556
0
VERTEX
8
CUT
10
204.5061
20
150.8297
0
VERTEX
8
CUT
10
205.2386
20
153.5243
0
VERTEX
8
CUT
10
205.2963
20
153.7948
0
VERTEX
8
CUT
10
205.3238
20
154.0701
0
VERTEX
8
CUT
10
205.3620
20
154.9385
0
VERTEX
8
CUT
10
205.3636
20
154.9598
0
VERTEX
8
CUT
10
205.3702
20
155.0034
0
VERTEX
8
CUT
10
205.3816
20
155.0460
0
VERTEX
8
CUT
10
205.3887
20
155.0662
0
VERTEX
8
CUT
10
205.4440
20
155.2096
0
VERTEX
8
CUT
10
205.5136
20
155.4169
0
VERTEX
8
CUT
10
205.5648
20
155.6295
0
VERTEX
8
CUT
10
205.5972
20
155.8457
0
VERTEX
8
CUT
10
205.6106
20
156.0640
0
VERTEX
8
CUT
10
205.6318
20
157.2612
0
VERTEX
8
CUT
10
205.6321
20
157.3310
0
VERTEX
8
CUT
10
205.6141
20
159.0936
0
VERTEX
8
CUT
10
205.5963
20
159.3673
0
VERTEX
8
CUT
10
205.5485
20
159.6374
0
VERTEX
8
CUT
10
205.4715
20
159.9007
0
VERTEX
8
CUT
10
205.3871
20
160.1396
0
VERTEX
8
CUT
10
205.3810
20
160.1584
0
VERTEX
8
CUT
10
205.3714
20
160.1978
0
VERTEX
8
CUT
10
205.3657
20
160.2380
0
VERTEX
8
CUT
10
205.3643
20
160.2577
0
VERTEX
8
CUT
10
205.3301
20
161.0741
0
VERTEX
8
CUT
10
205.3121
20
161.2870
0
VERTEX
8
CUT
10
205.2759
20
161.4975
0
VERTEX
8
CUT
10
205.2219
20
161.7042
0
VERTEX
8
CUT
10
204.1926
20
165.0523
0
VERTEX
8
CUT
10
204.1048
20
165.2930
0
VERTEX
8
CUT
10
203.9929
20
165.5234
0
VERTEX
8
CUT
10
202.4602
20
168.3072
0
VERTEX
8
CUT
10
202.3557
20
168.4801
0
VERTEX
8
CUT
10
202.2376
20
168.6440
0
VERTEX
8
CUT
10
201.3425
20
169.7856
0
VERTEX
8
CUT
10
201.1547
20
169.9989
0
VERTEX
8
CUT
10
199.5657
20
171.6093
0
VERTEX
8
CUT
10
199.3036
20
171.8402
0
VERTEX
8
CUT
10
196.9857
20
173.6104
0
VERTEX
8
CUT
10
196.7916
20
173.7446
0
VERTEX
8
CUT
10
196.5857
20
173.8599
0
VERTEX
8
CUT
10
194.6663
20
174.8189
0
VERTEX
8
CUT
10
194.4646
20
174.9088
0
VERTEX
8
CUT
10
194.2557
20
174.9806
0
VERTEX
8
CUT
10
191.8831
20
175.6799
0
VERTEX
8
CUT
10
191.6566
20
175.7353
0
VERTEX
8
CUT
10
191.4259
20
175.7694
0
VERTEX
8
CUT
10
191.1931
20
175.7818
0
VERTEX
8
CUT
10
186.5869
20
175.8128
0
VERTEX
8
CUT
10
186.3742
20
175.8051
0
VERTEX
8
CUT
10
186.1629
20
175.7794
0
VERTEX
8
CUT
10
184.7645
20
175.5486
0
VERTEX
8
CUT
10
184.5392
20
175.5006
0
VERTEX
8
CUT
10
184.3193
20
175.4321
0
VERTEX
8
CUT
10
184.1067
20
175.3437
0
VERTEX
8
CUT
10
179.7002
20
173.2688
0
VERTEX
8
CUT
10
179.4942
20
173.1598
0
VERTEX
8
CUT
10
179.2993
20
173.0321
0
VERTEX
8
CUT
10
177.5081
20
171.7355
0
VERTEX
8
CUT
10
177.2445
20
171.5156
0
VERTEX
8
CUT
10
176.3330
20
170.6423
0
VERTEX
8
CUT
10
176.1836
20
170.4863
0
VERTEX
8
CUT
10
176.0483
20
170.3179
0
VERTEX
8
CUT
10
173.8032
20
167.2641
0
VERTEX
8
CUT
10
173.6794
20
167.0789
0
VERTEX
8
CUT
10
173.5725
20
166.8833
0
VERTEX
8
CUT
10
173.4834
20
166.6790
0
VERTEX
8
CUT
10
172.2329
20
163.4199
0
VERTEX
8
CUT
10
172.1554
20
163.1836
0
VERTEX
8
CUT
10
172.1019
20
162.9407
0
VERTEX
8
CUT
10
171.4779
20
159.2476
0
VERTEX
8
CUT
10
171.4740
20
159.2277
0
VERTEX
8
CUT
10
171.4630
20
159.1879
0
VERTEX
8
CUT
10
171.4308
20
159.1619
0
VERTEX
8
CUT
10
171.4140
20
159.1505
0
VERTEX
8
CUT
10
171.0173
20
158.8938
0
VERTEX
8
CUT
10
171.0013
20
158.8840
0
VERTEX
8
CUT
10
170.9668
20
158.8662
0
VERTEX
8
CUT
10
170.8961
20
158.8595
0
VERTEX
8
CUT
10
170.7936
20
158.8549
0
VERTEX
8
CUT
10
170.5522
20
158.8200
0
VERTEX
8
CUT
10
170.3153
20
158.7619
0
VERTEX
8
CUT
10
170.0852
20
158.6809
0
VERTEX
8
CUT
10
169.8641
20
158.5778
0
VERTEX
8
CUT
10
169.6541
20
158.4537
0
VERTEX
8
CUT
10
169.4572
20
158.3098
0
VERTEX
8
CUT
10
169.2752
20
158.1473
0
VERTEX
8
CUT
10
169.1100
20
157.9678
0
VERTEX
8
CUT
10
168.9630
20
157.7732
0
VERTEX
8
CUT
10
168.8357
20
157.5651
0
VERTEX
8
CUT
10
168.7293
20
157.3456
0
VERTEX
8
CUT
10
168.6448
20
157.1167
0
VERTEX
8
CUT
10
168.5829
20
156.8808
0
VERTEX
8
CUT
10
168.5444
20
156.6399
0
VERTEX
8
CUT
10
168.5296
20
156.3964
0
VERTEX
8
CUT
10
168.5385
20
156.1527
0
VERTEX
8
CUT
10
168.5711
20
155.9109
0
VERTEX
8
CUT
10
168.6272
20
155.6735
0
VERTEX
8
CUT
10
168.7061
20
155.4427
0
VERTEX
8
CUT
10
168.8072
20
155.2207
0
VERTEX
8
CUT
10
168.8081
20
155.2189
0
VERTEX
8
CUT
10
168.8161
20
155.2023
0
VERTEX
8
CUT
10
168.8447
20
155.1314
0
VERTEX
8
CUT
10
168.8504
20
155.1139
0
VERTEX
8
CUT
10
169.4687
20
153.0430
0
VERTEX
8
CUT
10
169.5794
20
152.7437
0
SEQEND
0
POLYLINE
8
CUT
66
1
70
1
10
0.0
20
0.0
30
0.0
0
VERTEX
8
CUT
10
138.0364
20
80.4161
0
VERTEX
8
CUT
10
137.9923
20
80.1716
0
VERTEX
8
CUT
10
137.9728
20
79.9239
0
VERTEX
8
CUT
10
137.9779
20
79.6754
0
VERTEX
8
CUT
10
138.0077
20
79.4287
0
VERTEX
8
CUT
10
138.0618
20
79.1862
0
VERTEX
8
CUT
10
138.1397
20
78.9503
0
VERTEX
8
CUT
10
138.2407
20
78.7232
0
VERTEX
8
CUT
10
138.3637
20
78.5073
0
VERTEX
8
CUT
10
138.5076
20
78.3047
0
VERTEX
8
CUT
10
138.6708
20
78.1173
0
VERTEX
8
CUT
10
138.8518
20
77.9471
0
VERTEX
8
CUT
10
139.0489
20
77.7957
0
VERTEX
8
CUT
10
139.2600
20
77.6646
0
VERTEX
8
CUT
10
139.4830
20
77.5551
0
VERTEX
8
CUT
10
139.7158
20
77.4683
0
VERTEX
8
CUT
10
139.9561
20
77.4050
0
VERTEX
8
CUT
10
140.2015
20
77.3659
0
VERTEX
8
CUT
10
140.4496
20
77.3514
0
VERTEX
8
CUT
10
141.6466
20
77.3408
0
VERTEX
8
CUT
10
141.6522
20
77.3406
0
VERTEX
8
CUT
10
141.7364
20
77.3328
0
VERTEX
8
CUT
10
141.7553
20
77.3298
0
VERTEX
8
CUT
10
142.7953
20
77.1361
0
VERTEX
8
CUT
10
142.7971
20
77.1358
0
VERTEX
8
CUT
10
143.0283
20
77.1038
0
VERTEX
8
CUT
10
143.2614
20
77.0935
0
VERTEX
8
CUT
10
147.4638
20
77.1042
0
VERTEX
8
CUT
10
147.7045
20
77.1164
0
VERTEX
8
CUT
10
147.7568
20
77.1242
0
VERTEX
8
CUT
10
147.7968
20
77.1265
0
VERTEX
8
CUT
10
148.0614
20
77.1706
0
VERTEX
8
CUT
10
148.3198
20
77.2428
0
VERTEX
8
CUT
10
148.5389
20
77.3169
0
VERTEX
8
CUT
10
148.5440
20
77.3185
0
VERTEX
8
CUT
10
148.5897
20
77.3298
0
VERTEX
8
CUT
10
148.6254
20
77.3338
0
VERTEX
8
CUT
10
148.6419
20
77.3344
0
VERTEX
8
CUT
10
150.5477
20
77.3702
0
VERTEX
8
CUT
10
150.8222
20
77.3905
0
VERTEX
8
CUT
10
151.0929
20
77.4409
0
VERTEX
8
CUT
10
151.3368
20
77.5148
0
VERTEX
8
CUT
10
153.1044
20
77.6314
0
VERTEX
8
CUT
10
153.3833
20
77.6657
0
VERTEX
8
CUT
10
153.6566
20
77.7310
0
VERTEX
8
CUT
10
153.8409
20
77.7976
0
VERTEX
8
CUT
10
155.0598
20
77.9004
0
VERTEX
8
CUT
10
155.2375
20
77.9255
0
VERTEX
8
CUT
10
155.4609
20
77.9442
0
VERTEX
8
CUT
10
155.6940
20
77.9862
0
VERTEX
8
CUT
10
156.9259
20
78.2691
0
VERTEX
8
CUT
10
158.4012
20
78.4413
0
VERTEX
8
CUT
10
158.6679
20
78.4874
0
VERTEX
8
CUT
10
158.8125
20
78.5002
0
VERTEX
8
CUT
10
159.0405
20
78.5419
0
VERTEX
8
CUT
10
159.9327
20
78.7483
0
VERTEX
8
CUT
10
159.9609
20
78.7501
0
VERTEX
8
CUT
10
160.2013
20
78.7770
0
VERTEX
8
CUT
10
160.4378
20
78.8270
0
VERTEX
8
CUT
10
161.6735
20
79.1511
0
VERTEX
8
CUT
10
163.5947
20
79.5957
0
VERTEX
8
CUT
10
165.4173
20
79.8326
0
VERTEX
8
CUT
10
165.6279
20
79.8692
0
VERTEX
8
CUT
10
165.8346
20
79.9236
0
VERTEX
8
CUT
10
166.0359
20
79.9955
0
VERTEX
8
CUT
10
166.2032
20
80.0635
0
VERTEX
8
CUT
10
166.2202
20
80.0699
0
VERTEX
8
CUT
10
166.2576
20
80.0810
0
VERTEX
8
CUT
10
166.2965
20
80.0847
0
VERTEX
8
CUT
10
166.3147
20
80.0851
0
VERTEX
8
CUT
10
172.4782
20
80.0707
0
VERTEX
8
CUT
10
172.4961
20
80.0702
0
VERTEX
8
CUT
10
172.5346
20
80.0664
0
VERTEX
8
CUT
10
172.5725
20
80.0590
0
VERTEX
8
CUT
10
172.5898
20
80.0543
0
VERTEX
8
CUT
10
175.3500
20
79.2338
0
VERTEX
8
CUT
10
175.3552
20
79.2321
0
VERTEX
8
CUT
10
175.4341
20
79.2013
0
VERTEX
8
CUT
10
175.4515
20
79.1931
0
VERTEX
8
CUT
10
177.5465
20
78.1434
0
VERTEX
8
CUT
10
177.5959
20
78.1171
0
VERTEX
8
CUT
10
177.6440
20
78.0887
0
VERTEX
8
CUT
10
179.8095
20
76.7361
0
VERTEX
8
CUT
10
179.8459
20
76.7124
0
VERTEX
8
CUT
10
179.8815
20
76.6874
0
VERTEX
8
CUT
10
186.0322
20
72.1910
0
VERTEX
8
CUT
10
186.0709
20
72.1615
0
VERTEX
8
CUT
10
186.1083
20
72.1304
0
VERTEX
8
CUT
10
186.4260
20
71.8557
0
VERTEX
8
CUT
10
186.6177
20
71.7057
0
VERTEX
8
CUT
10
186.8230
20
71.5750
0
VERTEX
8
CUT
10
187.0400
20
71.4650
0
VERTEX
8
CUT
10
187.2668
20
71.3765
0
VERTEX
8
CUT
10
187.5010
20
71.3105
0
VERTEX
8
CUT
10
187.7406
20
71.2676
0
VERTEX
8
CUT
10
187.9832
20
71.2482
0
VERTEX
8
CUT
10
188.2265
20
71.2524
0
VERTEX
8
CUT
10
188.4683
20
71.2804
0
VERTEX
8
CUT
10
188.7062
20
71.3316
0
VERTEX
8
CUT
10
188.9380
20
71.4058
0
VERTEX
8
CUT
10
189.1615
20
71.5022
0
VERTEX
8
CUT
10
189.3745
20
71.6198
0
VERTEX
8
CUT
10
189.5752
20
71.7576
0
VERTEX
8
CUT
10
189.7614
20
71.9143
0
VERTEX
8
CUT
10
189.9316
20
72.0883
0
VERTEX
8
CUT
10
190.0840
20
72.2780
0
VERTEX
8
CUT
10
190.2172
20
72.4817
0
VERTEX
8
CUT
10
190.3300
20
72.6974
0
VERTEX
8
CUT
10
190.4213
20
72.9229
0
VERTEX
8
CUT
10
190.4903
20
73.1564
0
VERTEX
8
CUT
10
190.5362
20
73.3954
0
VERTEX
8
CUT
10
190.5586
20
73.6377
0
VERTEX
8
CUT
10
190.5574
20
73.8811
0
VERTEX
8
CUT
10
190.5326
20
74.1232
0
VERTEX
8
CUT
10
190.4843
20
74.3617
0
VERTEX
8
CUT
10
190.4130
20
74.5944
0
VERTEX
8
CUT
10
190.3195
20
74.8191
0
VERTEX
8
CUT
10
189.4788
20
76.5899
0
VERTEX
8
CUT
10
189.4702
20
76.6094
0
VERTEX
8
CUT
10
189.4404
20
76.6968
0
VERTEX
8
CUT
10
189.4352
20
76.7175
0
VERTEX
8
CUT
10
189.3984
20
76.8853
0
VERTEX
8
CUT
10
189.3355
20
77.1183
0
VERTEX
8
CUT
10
189.2503
20
77.3442
0
VERTEX
8
CUT
10
189.1438
20
77.5607
0
VERTEX
8
CUT
10
186.4522
20
82.4252
0
VERTEX
8
CUT
10
186.3244
20
82.6317
0
VERTEX
8
CUT
10
186.1772
20
82.8248
0
VERTEX
8
CUT
10
186.0120
20
83.0028
0
VERTEX
8
CUT
10
185.4746
20
83.5279
0
VERTEX
8
CUT
10
185.2901
20
83.6913
0
VERTEX
8
CUT
10
185.0904
20
83.8356
0
VERTEX
8
CUT
10
184.8775
20
83.9596
0
VERTEX
8
CUT
10
184.6533
20
84.0621
0
VERTEX
8
CUT
10
184.1448
20
84.2649
0
VERTEX
8
CUT
10
183.9001
20
84.3481
0
VERTEX
8
CUT
10
183.6480
20
84.4056
0
VERTEX
8
CUT
10
183.3913
20
84.4367
0
VERTEX
8
CUT
10
182.8654
20
84.4731
0
VERTEX
8
CUT
10
182.8601
20
84.4736
0
VERTEX
8
CUT
10
182.8104
20
84.4811
0
VERTEX
8
CUT
10
182.7851
20
84.4872
0
VERTEX
8
CUT
10
182.7627
20
84.4941
0
VERTEX
8
CUT
10
181.9414
20
84.7688
0
VERTEX
8
CUT
10
181.8594
20
84.7996
0
VERTEX
8
CUT
10
181.7799
20
84.8364
0
VERTEX
8
CUT
10
180.8107
20
85.3286
0
VERTEX
8
CUT
10
180.8058
20
85.3312
0
VERTEX
8
CUT
10
180.7344
20
85.3752
0
VERTEX
8
CUT
10
180.7189
20
85.3862
0
VERTEX
8
CUT
10
179.5981
20
86.2273
0
VERTEX
8
CUT
10
179.5827
20
86.2395
0
VERTEX
8
CUT
10
179.5206
20
86.2971
0
VERTEX
8
CUT
10
179.5073
20
86.3116
0
VERTEX
8
CUT
10
177.6146
20
88.4774
0
VERTEX
8
CUT
10
177.6113
20
88.4813
0
VERTEX
8
CUT
10
177.5819
20
88.5208
0
VERTEX
8
CUT
10
177.5685
20
88.5424
0
VERTEX
8
CUT
10
177.5577
20
88.5626
0
VERTEX
8
CUT
10
176.7142
20
90.2225
0
VERTEX
8
CUT
10
176.7069
20
90.2378
0
VERTEX
8
CUT
10
176.6797
20
90.3057
0
VERTEX
8
CUT
10
176.6745
20
90.3219
0
VERTEX
8
CUT
10
175.8523
20
93.0773
0
VERTEX
8
CUT
10
175.8464
20
93.0996
0
VERTEX
8
CUT
10
175.8298
20
93.1976
0
VERTEX
8
CUT
10
175.8281
20
93.2205
0
VERTEX
8
CUT
10
175.7965
20
93.9276
0
VERTEX
8
CUT
10
175.7726
20
94.1780
0
VERTEX
8
CUT
10
175.7237
20
94.4247
0
VERTEX
8
CUT
10
175.6502
20
94.6653
0
VERTEX
8
CUT
10
175.5547
20
94.9298
0
VERTEX
8
CUT
10
175.5529
20
94.9350
0
VERTEX
8
CUT
10
175.5401
20
94.9823
0
VERTEX
8
CUT
10
175.5377
20
95.0115
0
VERTEX
8
CUT
10
175.5371
20
95.0361
0
VERTEX
8
CUT
10
175.5420
20
96.4625
0
VERTEX
8
CUT
10
175.5424
20
96.4797
0
VERTEX
8
CUT
10
175.5460
20
96.5166
0
VERTEX
8
CUT
10
175.5560
20
96.5518
0
VERTEX
8
CUT
10
175.5620
20
96.5682
0
VERTEX
8
CUT
10
175.6243
20
96.7287
0
VERTEX
8
CUT
10
175.7102
20
96.9926
0
VERTEX
8
CUT
10
175.7663
20
97.2643
0
VERTEX
8
CUT
10
175.7920
20
97.5406
0
VERTEX
8
CUT
10
175.8273
20
98.4915
0
VERTEX
8
CUT
10
175.8283
20
98.5084
0
VERTEX
8
CUT
10
175.8376
20
98.5809
0
VERTEX
8
CUT
10
175.8409
20
98.5976
0
VERTEX
8
CUT
10
176.3835
20
101.0567
0
VERTEX
8
CUT
10
176.3985
20
101.1172
0
VERTEX
8
CUT
10
176.4167
20
101.1769
0
VERTEX
8
CUT
10
178.3369
20
106.9355
0
VERTEX
8
CUT
10
178.3385
20
106.9401
0
VERTEX
8
CUT
10
178.3676
20
107.0096
0
VERTEX
8
CUT
10
178.3751
20
107.0250
0
VERTEX
8
CUT
10
178.6840
20
107.6214
0
VERTEX
8
CUT
10
178.8031
20
107.8885
0
VERTEX
8
CUT
10
178.8902
20
108.1677
0
VERTEX
8
CUT
10
179.8720
20
112.1140
0
VERTEX
8
CUT
10
179.9209
20
112.3648
0
VERTEX
8
CUT
10
179.9440
20
112.6192
0
VERTEX
8
CUT
10
179.9755
20
113.4200
0
VERTEX
8
CUT
10
179.9758
20
113.4253
0
VERTEX
8
CUT
10
179.9821
20
113.4762
0
VERTEX
8
CUT
10
179.9876
20
113.5022
0
VERTEX
8
CUT
10
179.9941
20
113.5251
0
VERTEX
8
CUT
10
180.1040
20
113.8829
0
VERTEX
8
CUT
10
180.1648
20
114.1223
0
VERTEX
8
CUT
10
180.2017
20
114.3666
0
VERTEX
8
CUT
10
180.2143
20
114.6134
0
VERTEX
8
CUT
10
180.2193
20
117.7083
0
VERTEX
8
CUT
10
180.2110
20
117.9159
0
VERTEX
8
CUT
10
180.1855
20
118.1221
0
VERTEX
8
CUT
10
180.1429
20
118.3255
0
VERTEX
8
CUT
10
179.7190
20
120.0007
0
VERTEX
8
CUT
10
179.7146
20
120.0204
0
VERTEX
8
CUT
10
179.7024
20
120.1066
0
VERTEX
8
CUT
10
179.7012
20
120.1267
0
VERTEX
8
CUT
10
179.6588
20
121.4036
0
VERTEX
8
CUT
10
179.6393
20
121.6428
0
VERTEX
8
CUT
10
179.5970
20
121.8789
0
VERTEX
8
CUT
10
179.5323
20
122.1100
0
VERTEX
8
CUT
10
178.7641
20
124.4188
0
VERTEX
8
CUT
10
178.5963
20
124.9311
0
VERTEX
8
CUT
10
178.5320
20
125.1053
0
VERTEX
8
CUT
10
178.4601
20
125.2630
0
VERTEX
8
CUT
10
178.4381
20
125.3161
0
VERTEX
8
CUT
10
177.7853
20
126.6155
0
VERTEX
8
CUT
10
177.6248
20
126.8900
0
VERTEX
8
CUT
10
176.5869
20
128.4309
0
VERTEX
8
CUT
10
176.4471
20
128.6188
0
VERTEX
8
CUT
10
174.8962
20
130.5113
0
VERTEX
8
CUT
10
174.3976
20
131.1743
0
VERTEX
8
CUT
10
174.2449
20
131.3584
0
VERTEX
8
CUT
10
174.0753
20
131.5270
0
VERTEX
8
CUT
10
173.8903
20
131.6787
0
VERTEX
8
CUT
10
173.6917
20
131.8119
0
VERTEX
8
CUT
10
173.4813
20
131.9256
0
VERTEX
8
CUT
10
171.7854
20
132.7396
0
VERTEX
8
CUT
10
171.7723
20
132.7462
0
VERTEX
8
CUT
10
171.7649
20
132.7625
0
VERTEX
8
CUT
10
171.1915
20
134.1195
0
VERTEX
8
CUT
10
171.0894
20
134.3324
0
VERTEX
8
CUT
10
170.9676
20
134.5348
0
VERTEX
8
CUT
10
170.8274
20
134.7247
0
VERTEX
8
CUT
10
170.6698
20
134.9006
0
VERTEX
8
CUT
10
170.4903
20
135.0828
0
VERTEX
8
CUT
10
170.3105
20
135.2484
0
VERTEX
8
CUT
10
170.1153
20
135.3956
0
VERTEX
8
CUT
10
169.9066
20
135.5231
0
VERTEX
8
CUT
10
169.6865
20
135.6295
0
VERTEX
8
CUT
10
169.4571
20
135.7140
0
VERTEX
8
CUT
10
169.2205
20
135.7757
0
VERTEX
8
CUT
10
168.9790
20
135.8139
0
VERTEX
8
CUT
10
168.7350
20
135.8284
0
VERTEX
8
CUT
10
168.4907
20
135.8189
0
VERTEX
8
CUT
10
168.2484
20
135.7857
0
VERTEX
8
CUT
10
168.0106
20
135.7289
0
VERTEX
8
CUT
10
167.7795
20
135.6492
0
VERTEX
8
CUT
10
167.5573
20
135.5473
0
VERTEX
8
CUT
10
167.3460
20
135.4242
0
VERTEX
8
CUT
10
167.1479
20
135.2810
0
VERTEX
8
CUT
10
166.9646
20
135.1192
0
VERTEX
8
CUT
10
166.7980
20
134.9402
0
VERTEX
8
CUT
10
166.6497
20
134.7458
0
VERTEX
8
CUT
10
166.5212
20
134.5378
0
VERTEX
8
CUT
10
166.4135
20
134.3183
0
VERTEX
8
CUT
10
166.3278
20
134.0894
0
VERTEX
8
CUT
10
166.2649
20
133.8531
0
VERTEX
8
CUT
10
166.2253
20
133.6118
0
VERTEX
8
CUT
10
166.2095
20
133.3679
0
VERTEX
8
CUT
10
166.2085
20
133.3066
0
VERTEX
8
CUT
10
166.2076
20
133.2852
0
VERTEX
8
CUT
10
166.1956
20
133.1935
0
VERTEX
8
CUT
10
166.1911
20
133.1726
0
VERTEX
8
CUT
10
166.0369
20
132.5526
0
VERTEX
8
CUT
10
165.9831
20
132.2661
0
VERTEX
8
CUT
10
165.9631
20
131.9754
0
VERTEX
8
CUT
10
165.9181
20
127.6663
0
VERTEX
8
CUT
10
165.9173
20
127.6463
0
VERTEX
8
CUT
10
165.9122
20
127.6034
0
VERTEX
8
CUT
10
165.9026
20
127.5613
0
VERTEX
8
CUT
10
165.8966
20
127.5422
0
VERTEX
8
CUT
10
165.8218
20
127.3247
0
VERTEX
8
CUT
10
165.7502
20
127.0752
0
VERTEX
8
CUT
10
165.7049
20
126.8196
0
VERTEX
8
CUT
10
165.6863
20
126.5607
0
VERTEX
8
CUT
10
165.6538
20
124.9186
0
VERTEX
8
CUT
10
165.6528
20
124.8983
0
VERTEX
8
CUT
10
165.6472
20
124.8548
0
VERTEX
8
CUT
10
165.6369
20
124.8121
0
VERTEX
8
CUT
10
165.6305
20
124.7928
0
VERTEX
8
CUT
10
165.5457
20
124.5575
0
VERTEX
8
CUT
10
165.4711
20
124.3114
0
VERTEX
8
CUT
10
165.4222
20
124.0589
0
VERTEX
8
CUT
10
165.3995
20
123.8027
0
VERTEX
8
CUT
10
165.3634
20
122.8303
0
VERTEX
8
CUT
10
165.3624
20
122.8131
0
VERTEX
8
CUT
10
165.3576
20
122.7761
0
VERTEX
8
CUT
10
165.3462
20
122.7411
0
VERTEX
8
CUT
10
165.3397
20
122.7249
0
VERTEX
8
CUT
10
165.3221
20
122.6839
0
VERTEX
8
CUT
10
165.2406
20
122.4669
0
VERTEX
8
CUT
10
165.1795
20
122.2433
0
VERTEX
8
CUT
10
165.1394
20
122.0149
0
VERTEX
8
CUT
10
165.1207
20
121.7839
0
VERTEX
8
CUT
10
165.0911
20
120.9284
0
VERTEX
8
CUT
10
165.0897
20
120.9073
0
VERTEX
8
CUT
10
165.0763
20
120.8169
0
VERTEX
8
CUT
10
165.0715
20
120.7963
0
VERTEX
8
CUT
10
164.6489
20
119.2074
0
VERTEX
8
CUT
10
164.5972
20
118.9647
0
VERTEX
8
CUT
10
164.5697
20
118.7181
0
VERTEX
8
CUT
10
164.5320
20
118.1040
0
VERTEX
8
CUT
10
164.5303
20
118.0849
0
VERTEX
8
CUT
10
164.5169
20
118.0033
0
VERTEX
8
CUT
10
164.5124
20
117.9847
0
VERTEX
8
CUT
10
163.3888
20
113.8426
0
VERTEX
8
CUT
10
163.3831
20
113.8237
0
VERTEX
8
CUT
10
163.3678
20
113.7843
0
VERTEX
8
CUT
10
163.3410
20
113.7517
0
VERTEX
8
CUT
10
163.3273
20
113.7375
0
VERTEX
8
CUT
10
162.9875
20
113.4030
0
VERTEX
8
CUT
10
162.9729
20
113.3894
0
VERTEX
8
CUT
10
162.9394
20
113.3628
0
VERTEX
8
CUT
10
162.8993
20
113.3482
0
VERTEX
8
CUT
10
162.8801
20
113.3429
0
VERTEX
8
CUT
10
162.4111
20
113.2265
0
VERTEX
8
CUT
10
162.3926
20
113.2224
0
VERTEX
8
CUT
10
162.3525
20
113.2167
0
VERTEX
8
CUT
10
162.3134
20
113.2273
0
VERTEX
8
CUT
10
162.2956
20
113.2337
0
VERTEX
8
CUT
10
161.5019
20
113.5386
0
VERTEX
8
CUT
10
161.4826
20
113.5467
0
VERTEX
8
CUT
10
161.4508
20
113.5632
0
VERTEX
8
CUT
10
161.3807
20
113.6270
0
VERTEX
8
CUT
10
161.1882
20
113.7708
0
VERTEX
8
CUT
10
160.3780
20
114.3174
0
VERTEX
8
CUT
10
159.5283
20
115.1425
0
VERTEX
8
CUT
10
159.3158
20
115.3611
0
VERTEX
8
CUT
10
159.2904
20
115.3872
0
VERTEX
8
CUT
10
159.2393
20
115.4398
0
VERTEX
8
CUT
10
159.1205
20
115.5620
0
VERTEX
8
CUT
10
158.7799
20
116.0569
0
VERTEX
8
CUT
10
158.1435
20
117.0468
0
VERTEX
8
CUT
10
157.9266
20
117.3842
0
VERTEX
8
CUT
10
157.7577
20
117.6470
0
VERTEX
8
CUT
10
157.5445
20
117.9786
0
VERTEX
8
CUT
10
156.2408
20
120.3633
0
VERTEX
8
CUT
10
156.2343
20
120.3758
0
VERTEX
8
CUT
10
156.2302
20
120.3847
0
VERTEX
8
CUT
10
156.2145
20
120.4206
0
VERTEX
8
CUT
10
156.1881
20
120.4912
0
VERTEX
8
CUT
10
154.2533
20
126.2916
0
VERTEX
8
CUT
10
154.2480
20
126.3089
0
VERTEX
8
CUT
10
154.2305
20
126.3852
0
VERTEX
8
CUT
10
154.2277
20
126.4031
0
VERTEX
8
CUT
10
153.9438
20
128.5871
0
VERTEX
8
CUT
10
153.9027
20
128.8180
0
VERTEX
8
CUT
10
153.8401
20
129.0441
0
VERTEX
8
CUT
10
153.7566
20
129.2633
0
VERTEX
8
CUT
10
153.6907
20
129.4146
0
VERTEX
8
CUT
10
153.6842
20
129.4306
0
VERTEX
8
CUT
10
153.6725
20
129.4660
0
VERTEX
8
CUT
10
153.6676
20
129.5026
0
VERTEX
8
CUT
10
153.6664
20
129.5200
0
VERTEX
8
CUT
10
153.6407
20
130.1341
0
VERTEX
8
CUT
10
153.6205
20
130.3637
0
VERTEX
8
CUT
10
153.5791
20
130.5905
0
VERTEX
8
CUT
10
153.5171
20
130.8125
0
VERTEX
8
CUT
10
153.4349
20
131.0279
0
VERTEX
8
CUT
10
153.4138
20
131.0763
0
VERTEX
8
CUT
10
153.4072
20
131.0923
0
VERTEX
8
CUT
10
153.3955
20
131.1278
0
VERTEX
8
CUT
10
153.3906
20
131.1643
0
VERTEX
8
CUT
10
153.3895
20
131.1818
0
VERTEX
8
CUT
10
153.3656
20
131.7528
0
VERTEX
8
CUT
10
153.3543
20
132.0219
0
VERTEX
8
CUT
10
153.3328
20
132.2604
0
VERTEX
8
CUT
10
153.2886
20
132.4957
0
VERTEX
8
CUT
10
152.7991
20
134.5541
0
VERTEX
8
CUT
10
152.5558
20
135.9168
0
VERTEX
8
CUT
10
152.5002
20
136.1583
0
VERTEX
8
CUT
10
152.4209
20
136.3931
0
VERTEX
8
CUT
10
152.2714
20
136.7730
0
VERTEX
8
CUT
10
152.0153
20
137.8498
0
VERTEX
8
CUT
10
151.9309
20
138.1305
0
VERTEX
8
CUT
10
151.8142
20
138.3994
0
VERTEX
8
CUT
10
151.7507
20
138.5249
0
VERTEX
8
CUT
10
151.7425
20
138.5433
0
VERTEX
8
CUT
10
151.0604
20
139.8994
0
VERTEX
8
CUT
10
150.9384
20
140.1147
0
VERTEX
8
CUT
10
150.7957
20
140.3169
0
VERTEX
8
CUT
10
150.6338
20
140.5039
0
VERTEX
8
CUT
10
150.4541
20
140.6741
0
VERTEX
8
CUT
10
150.2585
20
140.8256
0
VERTEX
8
CUT
10
150.0489
20
140.9571
0
VERTEX
8
CUT
10
149.8273
20
141.0672
0
VERTEX
8
CUT
10
149.5960
20
141.1549
0
VERTEX
8
CUT
10
149.3570
20
141.2192
0
VERTEX
8
CUT
10
149.1129
20
141.2597
0
VERTEX
8
CUT
10
148.8660
20
141.2758
0
VERTEX
8
CUT
10
148.6187
20
141.2674
0
VERTEX
8
CUT
10
148.3735
20
141.2346
0
VERTEX
8
CUT
10
148.1327
20
141.1777
0
VERTEX
8
CUT
10
147.8987
20
141.0973
0
VERTEX
8
CUT
10
147.6738
20
140.9942
0
VERTEX
8
CUT
10
147.4601
20
140.8693
0
VERTEX
8
CUT
10
147.2599
20
140.7240
0
VERTEX
8
CUT
10
147.0750
20
140.5595
0
VERTEX
8
CUT
10
146.7251
20
140.2158
0
VERTEX
8
CUT
10
146.5373
20
140.0094
0
VERTEX
8
CUT
10
146.4970
20
139.9538
0
VERTEX
8
CUT
10
146.4119
20
139.8594
0
VERTEX
8
CUT
10
146.2872
20
139.6957
0
VERTEX
8
CUT
10
146.1763
20
139.5223
0
VERTEX
8
CUT
10
145.8867
20
139.0253
0
VERTEX
8
CUT
10
145.6017
20
138.5816
0
VERTEX
8
CUT
10
145.4885
20
138.3865
0
VERTEX
8
CUT
10
145.3933
20
138.1821
0
VERTEX
8
CUT
10
145.3886
20
138.1707
0
VERTEX
8
CUT
10
145.3203
20
138.0535
0
VERTEX
8
CUT
10
145.1593
20
137.7238
0
VERTEX
8
CUT
10
143.6810
20
134.0307
0
VERTEX
8
CUT
10
143.6062
20
133.8163
0
VERTEX
8
CUT
10
143.5513
20
133.5960
0
VERTEX
8
CUT
10
143.5165
20
133.3717
0
VERTEX
8
CUT
10
143.5152
20
133.3594
0
VERTEX
8
CUT
10
143.4779
20
133.0158
0
VERTEX
8
CUT
10
143.4772
20
133.0108
0
VERTEX
8
CUT
10
143.4682
20
132.9629
0
VERTEX
8
CUT
10
143.4614
20
132.9386
0
VERTEX
8
CUT
10
143.4541
20
132.9172
0
VERTEX
8
CUT
10
142.8433
20
131.2641
0
VERTEX
8
CUT
10
142.8400
20
131.2552
0
VERTEX
8
CUT
10
142.7684
20
131.0289
0
VERTEX
8
CUT
10
142.7186
20
130.7969
0
VERTEX
8
CUT
10
142.6910
20
130.5612
0
VERTEX
8
CUT
10
142.6537
20
130.0224
0
VERTEX
8
CUT
10
142.6516
20
130.0004
0
VERTEX
8
CUT
10
142.6427
20
129.9534
0
VERTEX
8
CUT
10
142.6377
20
129.9356
0
VERTEX
8
CUT
10
142.2561
20
128.7198
0
VERTEX
8
CUT
10
142.2002
20
128.5104
0
VERTEX
8
CUT
10
142.1970
20
128.4921
0
VERTEX
8
CUT
10
142.1645
20
128.3662
0
VERTEX
8
CUT
10
142.1260
20
128.1100
0
VERTEX
8
CUT
10
142.0232
20
127.0544
0
VERTEX
8
CUT
10
141.9438
20
126.8321
0
VERTEX
8
CUT
10
141.8814
20
126.5726
0
VERTEX
8
CUT
10
141.8470
20
126.3079
0
VERTEX
8
CUT
10
141.7290
20
124.7565
0
VERTEX
8
CUT
10
141.6908
20
124.6350
0
VERTEX
8
CUT
10
141.6440
20
124.4237
0
VERTEX
8
CUT
10
141.6157
20
124.2091
0
VERTEX
8
CUT
10
141.6060
20
123.9928
0
VERTEX
8
CUT
10
141.6049
20
123.1237
0
VERTEX
8
CUT
10
141.5858
20
122.8736
0
VERTEX
8
CUT
10
141.5787
20
122.6626
0
VERTEX
8
CUT
10
141.6007
20
120.1029
0
VERTEX
8
CUT
10
141.6004
20
119.8435
0
VERTEX
8
CUT
10
141.6035
20
119.7837
0
VERTEX
8
CUT
10
141.6051
20
119.6019
0
VERTEX
8
CUT
10
141.6209
20
119.3415
0
VERTEX
8
CUT
10
141.6638
20
119.0843
0
VERTEX
8
CUT
10
141.8499
20
118.2415
0
VERTEX
8
CUT
10
141.8569
20
118.0755
0
VERTEX
8
CUT
10
141.8771
20
117.8459
0
VERTEX
8
CUT
10
141.9184
20
117.6191
0
VERTEX
8
CUT
10
141.9805
20
117.3971
0
VERTEX
8
CUT
10
142.0627
20
117.1817
0
VERTEX
8
CUT
10
142.0838
20
117.1333
0
VERTEX
8
CUT
10
142.0903
20
117.1172
0
VERTEX
8
CUT
10
142.1018
20
117.0827
0
VERTEX
8
CUT
10
142.1069
20
117.0446
0
VERTEX
8
CUT
10
142.1082
20
117.0255
0
VERTEX
8
CUT
10
142.1391
20
116.2878
0
VERTEX
8
CUT
10
142.1587
20
116.0631
0
VERTEX
8
CUT
10
142.1985
20
115.8411
0
VERTEX
8
CUT
10
142.2581
20
115.6236
0
VERTEX
8
CUT
10
142.8992
20
113.6401
0
VERTEX
8
CUT
10
142.9047
20
113.6214
0
VERTEX
8
CUT
10
142.9222
20
113.5392
0
VERTEX
8
CUT
10
142.9247
20
113.5199
0
VERTEX
8
CUT
10
142.9462
20
113.3171
0
VERTEX
8
CUT
10
142.9821
20
113.0843
0
VERTEX
8
CUT
10
143.0397
20
112.8558
0
VERTEX
8
CUT
10
143.1185
20
112.6338
0
VERTEX
8
CUT
10
143.2179
20
112.4202
0
VERTEX
8
CUT
10
143.4343
20
112.0073
0
VERTEX
8
CUT
10
143.4366
20
112.0027
0
VERTEX
8
CUT
10
143.4673
20
111.9315
0
VERTEX
8
CUT
10
143.4732
20
111.9149
0
VERTEX
8
CUT
10
144.5618
20
108.6505
0
VERTEX
8
CUT
10
144.5786
20
108.5957
0
VERTEX
8
CUT
10
144.5928
20
108.5402
0
VERTEX
8
CUT
10
145.4082
20
104.9897
0
VERTEX
8
CUT
10
145.4170
20
104.9242
0
VERTEX
8
CUT
10
145.4181
20
104.9067
0
VERTEX
8
CUT
10
145.4582
20
103.9110
0
VERTEX
8
CUT
10
145.4608
20
103.8823
0
VERTEX
8
CUT
10
145.4611
20
103.8765
0
VERTEX
8
CUT
10
145.4813
20
103.6365
0
VERTEX
8
CUT
10
145.5246
20
103.3996
0
VERTEX
8
CUT
10
145.5905
20
103.1679
0
VERTEX
8
CUT
10
145.6842
20
102.8901
0
VERTEX
8
CUT
10
145.6900
20
102.8715
0
VERTEX
8
CUT
10
145.6964
20
102.8429
0
VERTEX
8
CUT
10
145.7080
20
98.1399
0
VERTEX
8
CUT
10
145.7075
20
98.1203
0
VERTEX
8
CUT
10
145.7033
20
98.0784
0
VERTEX
8
CUT
10
145.6946
20
98.0372
0
VERTEX
8
CUT
10
145.6891
20
98.0184
0
VERTEX
8
CUT
10
145.5848
20
97.6932
0
VERTEX
8
CUT
10
145.5243
20
97.4693
0
VERTEX
8
CUT
10
145.5203
20
97.4459
0
VERTEX
8
CUT
10
145.5169
20
97.4330
0
VERTEX
8
CUT
10
145.4792
20
97.2123
0
VERTEX
8
CUT
10
145.4615
20
96.9892
0
VERTEX
8
CUT
10
145.4274
20
96.0055
0
VERTEX
8
CUT
10
145.4265
20
95.9919
0
VERTEX
8
CUT
10
145.4207
20
95.9729
0
VERTEX
8
CUT
10
145.4147
20
95.9572
0
VERTEX
8
CUT
10
145.3531
20
95.8058
0
VERTEX
8
CUT
10
145.2645
20
95.5495
0
VERTEX
8
CUT
10
145.2043
20
95.2851
0
VERTEX
8
CUT
10
145.1748
20
95.0314
0
VERTEX
8
CUT
10
144.0240
20
90.8731
0
VERTEX
8
CUT
10
144.0225
20
90.8679
0
VERTEX
8
CUT
10
144.0021
20
90.8122
0
VERTEX
8
CUT
10
143.9746
20
90.7480
0
VERTEX
8
CUT
10
141.8132
20
86.1528
0
VERTEX
8
CUT
10
141.7802
20
86.0880
0
VERTEX
8
CUT
10
141.7433
20
86.0252
0
VERTEX
8
CUT
10
140.3631
20
83.8324
0
VERTEX
8
CUT
10
140.3340
20
83.7884
0
VERTEX
8
CUT
10
140.3030
20
83.7457
0
VERTEX
8
CUT
10
138.6329
20
81.5502
0
VERTEX
8
CUT
10
138.5939
20
81.5015
0
VERTEX
8
CUT
10
138.5776
20
81.4821
0
VERTEX
8
CUT
10
138.5783
20
81.4814
0
VERTEX
8
CUT
10
138.4453
20
81.3154
0
VERTEX
8
CUT
10
138.3099
20
81.1070
0
VERTEX
8
CUT
10
138.1960
20
80.8861
0
VERTEX
8
CUT
10
138.1045
20
80.6551
0
SEQEND
0
POLYLINE
8
CUT
66
1
70
1
10
0.0
20
0.0
30
0.0
0
VERTEX
8
CUT
10
140.1605
20
187.3151
0
VERTEX
8
CUT
10
139.9245
20
187.2125
0
VERTEX
8
CUT
10
139.7003
20
187.0863
0
VERTEX
8
CUT
10
139.4902
20
186.9377
0
VERTEX
8
CUT
10
139.2965
20
186.7683
0
VERTEX
8
CUT
10
138.9097
20
186.3931
0
VERTEX
8
CUT
10
138.7538
20
186.2275
0
VERTEX
8
CUT
10
138.6137
20
186.0485
0
VERTEX
8
CUT
10
138.4903
20
185.8574
0
VERTEX
8
CUT
10
138.3535
20
185.6227
0
VERTEX
8
CUT
10
138.2116
20
185.3393
0
VERTEX
8
CUT
10
138.2031
20
185.3192
0
VERTEX
8
CUT
10
138.1142
20
185.0746
0
VERTEX
8
CUT
10
138.0511
20
184.8220
0
VERTEX
8
CUT
10
138.0147
20
184.5643
0
VERTEX
8
CUT
10
138.0053
20
184.3042
0
VERTEX
8
CUT
10
138.0104
20
183.9801
0
VERTEX
8
CUT
10
138.0130
20
183.9405
0
VERTEX
8
CUT
10
138.0133
20
183.8404
0
VERTEX
8
CUT
10
138.0357
20
183.6070
0
VERTEX
8
CUT
10
138.0799
20
183.3768
0
VERTEX
8
CUT
10
138.1455
20
183.1517
0
VERTEX
8
CUT
10
138.2318
20
182.9338
0
VERTEX
8
CUT
10
138.3382
20
182.7248
0
VERTEX
8
CUT
10
138.4638
20
182.5268
0
VERTEX
8
CUT
10
138.6073
20
182.3414
0
VERTEX
8
CUT
10
138.7675
20
182.1703
0
VERTEX
8
CUT
10
139.0496
20
181.8961
0
VERTEX
8
CUT
10
139.2491
20
181.7216
0
VERTEX
8
CUT
10
139.4661
20
181.5693
0
VERTEX
8
CUT
10
139.6979
20
181.4408
0
VERTEX
8
CUT
10
139.9420
20
181.3375
0
VERTEX
8
CUT
10
140.5674
20
181.1114
0
VERTEX
8
CUT
10
140.7739
20
181.0467
0
VERTEX
8
CUT
10
140.9852
20
181.0000
0
VERTEX
8
CUT
10
141.1997
20
180.9719
0
VERTEX
8
CUT
10
141.4159
20
180.9624
0
VERTEX
8
CUT
10
141.4421
20
180.9623
0
VERTEX
8
CUT
10
141.4520
20
180.9619
0
VERTEX
8
CUT
10
144.6855
20
180.9601
0
VERTEX
8
CUT
10
144.9318
20
180.9721
0
VERTEX
8
CUT
10
145.1756
20
181.0083
0
VERTEX
8
CUT
10
145.4147
20
181.0684
0
VERTEX
8
CUT
10
145.4148
20
181.0684
0
VERTEX
8
CUT
10
145.7657
20
181.1752
0
VERTEX
8
CUT
10
145.7823
20
181.1798
0
VERTEX
8
CUT
10
145.8190
20
181.1874
0
VERTEX
8
CUT
10
145.8564
20
181.1915
0
VERTEX
8
CUT
10
145.8731
20
181.1922
0
VERTEX
8
CUT
10
147.7723
20
181.2275
0
VERTEX
8
CUT
10
148.0451
20
181.2475
0
VERTEX
8
CUT
10
148.3140
20
181.2972
0
VERTEX
8
CUT
10
148.5759
20
181.3760
0
VERTEX
8
CUT
10
148.7690
20
181.4457
0
VERTEX
8
CUT
10
148.7884
20
181.4522
0
VERTEX
8
CUT
10
148.8314
20
181.4626
0
VERTEX
8
CUT
10
148.8752
20
181.4682
0
VERTEX
8
CUT
10
148.8957
20
181.4692
0
VERTEX
8
CUT
10
150.0665
20
181.4908
0
VERTEX
8
CUT
10
150.0800
20
181.4907
0
VERTEX
8
CUT
10
150.0963
20
181.4898
0
VERTEX
8
CUT
10
150.1198
20
181.4881
0
VERTEX
8
CUT
10
150.1560
20
181.4822
0
VERTEX
8
CUT
10
150.1720
20
181.4785
0
VERTEX
8
CUT
10
150.9098
20
181.2888
0
VERTEX
8
CUT
10
151.0986
20
181.2480
0
VERTEX
8
CUT
10
151.2899
20
181.2219
0
VERTEX
8
CUT
10
153.5244
20
181.0044
0
VERTEX
8
CUT
10
154.5880
20
180.8522
0
VERTEX
8
CUT
10
154.7484
20
180.7937
0
VERTEX
8
CUT
10
154.9883
20
180.7324
0
VERTEX
8
CUT
10
155.2330
20
180.6950
0
VERTEX
8
CUT
10
155.4803
20
180.6821
0
VERTEX
8
CUT
10
155.4939
20
180.6820
0
VERTEX
8
CUT
10
155.7484
20
180.6943
0
VERTEX
8
CUT
10
156.0002
20
180.7324
0
VERTEX
8
CUT
10
156.2469
20
180.7959
0
VERTEX
8
CUT
10
156.3501
20
180.8341
0
VERTEX
8
CUT
10
156.4252
20
180.8552
0
VERTEX
8
CUT
10
156.5668
20
180.9023
0
VERTEX
8
CUT
10
156.5833
20
180.9074
0
VERTEX
8
CUT
10
156.5999
20
180.9112
0
VERTEX
8
CUT
10
157.4818
20
180.9482
0
VERTEX
8
CUT
10
157.7433
20
180.9730
0
VERTEX
8
CUT
10
158.0008
20
181.0251
0
VERTEX
8
CUT
10
158.2515
20
181.1039
0
VERTEX
8
CUT
10
158.2597
20
181.1075
0
VERTEX
8
CUT
10
158.2889
20
181.1168
0
VERTEX
8
CUT
10
158.5307
20
181.2227
0
VERTEX
8
CUT
10
159.3397
20
181.6295
0
VERTEX
8
CUT
10
159.5605
20
181.7550
0
VERTEX
8
CUT
10
159.7675
20
181.9022
0
VERTEX
8
CUT
10
159.9585
20
182.0698
0
VERTEX
8
CUT
10
160.0545
20
182.1630
0
VERTEX
8
CUT
10
160.2275
20
182.3491
0
VERTEX
8
CUT
10
160.3808
20
182.5517
0
VERTEX
8
CUT
10
160.5127
20
182.7689
0
VERTEX
8
CUT
10
160.6218
20
182.9984
0
VERTEX
8
CUT
10
160.7071
20
183.2377
0
VERTEX
8
CUT
10
160.7677
20
183.4845
0
VERTEX
8
CUT
10
160.8029
20
183.7361
0
VERTEX
8
CUT
10
160.8124
20
183.9900
0
VERTEX
8
CUT
10
160.7960
20
184.2436
0
VERTEX
8
CUT
10
160.7540
20
184.4942
0
VERTEX
8
CUT
10
160.6868
20
184.7392
0
VERTEX
8
CUT
10
160.5962
20
185.0140
0
VERTEX
8
CUT
10
160.5056
20
185.2485
0
VERTEX
8
CUT
10
160.3918
20
185.4728
0
VERTEX
8
CUT
10
160.0856
20
186.0078
0
VERTEX
8
CUT
10
159.9452
20
186.2260
0
VERTEX
8
CUT
10
159.7829
20
186.4285
0
VERTEX
8
CUT
10
159.6006
20
186.6131
0
VERTEX
8
CUT
10
159.4001
20
186.7777
0
VERTEX
8
CUT
10
159.1836
20
186.9207
0
VERTEX
8
CUT
10
158.8745
20
187.1026
0
VERTEX
8
CUT
10
158.6559
20
187.2171
0
VERTEX
8
CUT
10
158.4272
20
187.3094
0
VERTEX
8
CUT
10
158.1904
20
187.3788
0
VERTEX
8
CUT
10
157.9480
20
187.4245
0
VERTEX
8
CUT
10
157.7023
20
187.4461
0
VERTEX
8
CUT
10
155.9831
20
187.5119
0
VERTEX
8
CUT
10
155.9759
20
187.5123
0
VERTEX
8
CUT
10
155.9460
20
187.5236
0
VERTEX
8
CUT
10
155.9276
20
187.5324
0
VERTEX
8
CUT
10
155.8132
20
187.5906
0
VERTEX
8
CUT
10
154.9757
20
188.1468
0
VERTEX
8
CUT
10
154.2982
20
189.3313
0
VERTEX
8
CUT
10
154.2895
20
189.3474
0
VERTEX
8
CUT
10
154.2796
20
189.3695
0
VERTEX
8
CUT
10
154.2716
20
189.3913
0
VERTEX
8
CUT
10
154.2646
20
189.4216
0
VERTEX
8
CUT
10
154.2618
20
189.4397
0
VERTEX
8
CUT
10
154.2192
20
189.7680
0
VERTEX
8
CUT
10
154.1820
20
189.9822
0
VERTEX
8
CUT
10
154.1262
20
190.1924
0
VERTEX
8
CUT
10
154.0788
20
190.3238
0
VERTEX
8
CUT
10
154.0669
20
190.3615
0
VERTEX
8
CUT
10
154.0575
20
190.3826
0
VERTEX
8
CUT
10
154.0524
20
190.3969
0
VERTEX
8
CUT
10
154.0226
20
190.4614
0
VERTEX
8
CUT
10
153.9518
20
190.6205
0
VERTEX
8
CUT
10
153.4816
20
191.5356
0
VERTEX
8
CUT
10
153.3790
20
191.7163
0
VERTEX
8
CUT
10
153.2617
20
191.8879
0
VERTEX
8
CUT
10
153.1306
20
192.0491
0
VERTEX
8
CUT
10
151.4841
20
193.9107
0
VERTEX
8
CUT
10
151.3104
20
194.0884
0
VERTEX
8
CUT
10
151.1200
20
194.2479
0
VERTEX
8
CUT
10
150.9147
20
194.3878
0
VERTEX
8
CUT
10
150.6966
20
194.5066
0
VERTEX
8
CUT
10
150.4677
20
194.6032
0
VERTEX
8
CUT
10
150.2304
20
194.6766
0
VERTEX
8
CUT
10
149.9869
20
194.7260
0
VERTEX
8
CUT
10
149.7397
20
194.7511
0
VERTEX
8
CUT
10
149.4913
20
194.7515
0
VERTEX
8
CUT
10
149.2441
20
194.7272
0
VERTEX
8
CUT
10
149.0005
20
194.6786
0
VERTEX
8
CUT
10
148.7629
20
194.6060
0
VERTEX
8
CUT
10
148.5337
20
194.5101
0
VERTEX
8
CUT
10
148.3152
20
194.3920
0
VERTEX
8
CUT
10
148.1094
20
194.2528
0
VERTEX
8
CUT
10
147.9185
20
194.0939
0
VERTEX
8
CUT
10
147.8384
20
194.0125
0
VERTEX
8
CUT
10
147.7981
20
193.9770
0
VERTEX
8
CUT
10
147.7692
20
193.9490
0
VERTEX
8
CUT
10
147.5797
20
193.7729
0
VERTEX
8
CUT
10
146.9778
20
193.3306
0
VERTEX
8
CUT
10
146.8135
20
193.1989
0
VERTEX
8
CUT
10
146.6609
20
193.0538
0
VERTEX
8
CUT
10
145.7594
20
192.1214
0
VERTEX
8
CUT
10
145.5968
20
191.9356
0
VERTEX
8
CUT
10
145.4532
20
191.7348
0
VERTEX
8
CUT
10
145.3302
20
191.5207
0
VERTEX
8
CUT
10
145.3169
20
191.4946
0
VERTEX
8
CUT
10
145.2772
20
191.4243
0
VERTEX
8
CUT
10
144.8426
20
190.5681
0
VERTEX
8
CUT
10
144.7355
20
190.3262
0
VERTEX
8
CUT
10
144.6546
20
190.0743
0
VERTEX
8
CUT
10
144.6007
20
189.8153
0
VERTEX
8
CUT
10
144.5345
20
189.3834
0
VERTEX
8
CUT
10
144.5327
20
189.3728
0
VERTEX
8
CUT
10
144.4676
20
189.2459
0
VERTEX
8
CUT
10
144.4366
20
189.2020
0
VERTEX
8
CUT
10
144.4252
20
189.1860
0
VERTEX
8
CUT
10
144.3041
20
189.0147
0
VERTEX
8
CUT
10
143.9806
20
188.5571
0
VERTEX
8
CUT
10
143.1402
20
187.7830
0
VERTEX
8
CUT
10
142.8689
20
187.5782
0
VERTEX
8
CUT
10
142.8536
20
187.5672
0
VERTEX
8
CUT
10
142.8527
20
187.5667
0
VERTEX
8
CUT
10
142.8491
20
187.5664
0
VERTEX
8
CUT
10
140.9137
20
187.4708
0
VERTEX
8
CUT
10
140.6577
20
187.4448
0
VERTEX
8
CUT
10
140.4058
20
187.3928
0
SEQEND
0
POLYLINE
8
CUT
66
1
70
1
10
0.0
20
0.0
30
0.0
0
VERTEX
8
CUT
10
121.1430
20
82.9246
0
VERTEX
8
CUT
10
121.0922
20
82.6890
0
VERTEX
8
CUT
10
121.0644
20
82.4497
0
VERTEX
8
CUT
10
121.0598
20
82.2087
0
VERTEX
8
CUT
10
121.0784
20
81.9685
0
VERTEX
8
CUT
10
121.1200
20
81.7312
0
VERTEX
8
CUT
10
121.1843
20
81.4990
0
VERTEX
8
CUT
10
121.2706
20
81.2740
0
VERTEX
8
CUT
10
121.3782
20
81.0584
0
VERTEX
8
CUT
10
121.5060
20
80.8542
0
VERTEX
8
CUT
10
121.6529
20
80.6632
0
VERTEX
8
CUT
10
121.8176
20
80.4872
0
VERTEX
8
CUT
10
121.9984
20
80.3279
0
VERTEX
8
CUT
10
122.1936
20
80.1868
0
VERTEX
8
CUT
10
122.4016
20
80.0651
0
VERTEX
8
CUT
10
122.6203
20
79.9640
0
VERTEX
8
CUT
10
122.8478
20
79.8844
0
VERTEX
8
CUT
10
123.0818
20
79.8271
0
VERTEX
8
CUT
10
123.0832
20
79.8268
0
VERTEX
8
CUT
10
123.1210
20
79.8156
0
VERTEX
8
CUT
10
123.1380
20
79.8091
0
VERTEX
8
CUT
10
123.2465
20
79.7649
0
VERTEX
8
CUT
10
123.4487
20
79.6924
0
VERTEX
8
CUT
10
123.6564
20
79.6376
0
VERTEX
8
CUT
10
123.8680
20
79.6008
0
VERTEX
8
CUT
10
124.0820
20
79.5823
0
VERTEX
8
CUT
10
124.7266
20
79.5544
0
VERTEX
8
CUT
10
124.7468
20
79.5529
0
VERTEX
8
CUT
10
124.8334
20
79.5397
0
VERTEX
8
CUT
10
124.8531
20
79.5351
0
VERTEX
8
CUT
10
126.4750
20
79.1052
0
VERTEX
8
CUT
10
126.7167
20
79.0538
0
VERTEX
8
CUT
10
126.9623
20
79.0265
0
VERTEX
8
CUT
10
127.5821
20
78.9885
0
VERTEX
8
CUT
10
127.5997
20
78.9870
0
VERTEX
8
CUT
10
127.6371
20
78.9811
0
VERTEX
8
CUT
10
127.6727
20
78.9684
0
VERTEX
8
CUT
10
127.6889
20
78.9613
0
VERTEX
8
CUT
10
127.7154
20
78.9489
0
VERTEX
8
CUT
10
127.9778
20
78.8439
0
VERTEX
8
CUT
10
128.2504
20
78.7692
0
VERTEX
8
CUT
10
128.5297
20
78.7258
0
VERTEX
8
CUT
10
130.9652
20
78.4869
0
VERTEX
8
CUT
10
131.2056
20
78.4750
0
VERTEX
8
CUT
10
131.4461
20
78.4862
0
VERTEX
8
CUT
10
131.6843
20
78.5205
0
VERTEX
8
CUT
10
131.9182
20
78.5776
0
VERTEX
8
CUT
10
132.1455
20
78.6569
0
VERTEX
8
CUT
10
132.3641
20
78.7577
0
VERTEX
8
CUT
10
132.5720
20
78.8790
0
VERTEX
8
CUT
10
132.7672
20
79.0198
0
VERTEX
8
CUT
10
132.9480
20
79.1787
0
VERTEX
8
CUT
10
133.1127
20
79.3543
0
VERTEX
8
CUT
10
133.2598
20
79.5449
0
VERTEX
8
CUT
10
133.3878
20
79.7487
0
VERTEX
8
CUT
10
133.4956
20
79.9639
0
VERTEX
8
CUT
10
133.5823
20
80.1885
0
VERTEX
8
CUT
10
133.8814
20
81.0911
0
VERTEX
8
CUT
10
133.9458
20
81.3218
0
VERTEX
8
CUT
10
133.9878
20
81.5575
0
VERTEX
8
CUT
10
134.2817
20
83.8345
0
VERTEX
8
CUT
10
134.2844
20
83.8518
0
VERTEX
8
CUT
10
134.2926
20
83.8885
0
VERTEX
8
CUT
10
134.3043
20
83.9243
0
VERTEX
8
CUT
10
134.3108
20
83.9405
0
VERTEX
8
CUT
10
134.3282
20
83.9809
0
VERTEX
8
CUT
10
134.4104
20
84.1988
0
VERTEX
8
CUT
10
134.4720
20
84.4233
0
VERTEX
8
CUT
10
134.5124
20
84.6526
0
VERTEX
8
CUT
10
134.5313
20
84.8847
0
VERTEX
8
CUT
10
134.5613
20
85.7514
0
VERTEX
8
CUT
10
134.5622
20
85.7683
0
VERTEX
8
CUT
10
134.5668
20
85.8045
0
VERTEX
8
CUT
10
134.5777
20
85.8390
0
VERTEX
8
CUT
10
134.5839
20
85.8550
0
VERTEX
8
CUT
10
134.6157
20
85.9309
0
VERTEX
8
CUT
10
134.6933
20
86.1430
0
VERTEX
8
CUT
10
134.7515
20
86.3612
0
VERTEX
8
CUT
10
134.7897
20
86.5838
0
VERTEX
8
CUT
10
134.8077
20
86.8089
0
VERTEX
8
CUT
10
134.8383
20
87.6921
0
VERTEX
8
CUT
10
134.8386
20
87.6975
0
VERTEX
8
CUT
10
134.8443
20
87.7459
0
VERTEX
8
CUT
10
134.8528
20
87.7737
0
VERTEX
8
CUT
10
134.8613
20
87.7967
0
VERTEX
8
CUT
10
134.8669
20
87.8105
0
VERTEX
8
CUT
10
134.9450
20
88.0349
0
VERTEX
8
CUT
10
135.0015
20
88.2657
0
VERTEX
8
CUT
10
135.0358
20
88.5008
0
VERTEX
8
CUT
10
135.0476
20
88.7381
0
VERTEX
8
CUT
10
135.0610
20
94.7679
0
VERTEX
8
CUT
10
135.0537
20
94.9643
0
VERTEX
8
CUT
10
135.0310
20
95.1596
0
VERTEX
8
CUT
10
134.5378
20
98.3144
0
VERTEX
8
CUT
10
134.4630
20
98.6446
0
VERTEX
8
CUT
10
133.9125
20
100.4852
0
VERTEX
8
CUT
10
133.8323
20
100.7127
0
VERTEX
8
CUT
10
133.7306
20
100.9314
0
VERTEX
8
CUT
10
133.6083
20
101.1392
0
VERTEX
8
CUT
10
133.4666
20
101.3343
0
VERTEX
8
CUT
10
133.3067
20
101.5149
0
VERTEX
8
CUT
10
133.1301
20
101.6792
0
VERTEX
8
CUT
10
132.9385
20
101.8257
0
VERTEX
8
CUT
10
132.7338
20
101.9530
0
VERTEX
8
CUT
10
132.5176
20
102.0601
0
VERTEX
8
CUT
10
132.2922
20
102.1458
0
VERTEX
8
CUT
10
132.0596
20
102.2094
0
VERTEX
8
CUT
10
131.8219
20
102.2503
0
VERTEX
8
CUT
10
131.5814
20
102.2681
0
VERTEX
8
CUT
10
131.3403
20
102.2627
0
VERTEX
8
CUT
10
131.1009
20
102.2340
0
VERTEX
8
CUT
10
130.8653
20
102.1824
0
VERTEX
8
CUT
10
130.6358
20
102.1084
0
VERTEX
8
CUT
10
130.4144
20
102.0125
0
VERTEX
8
CUT
10
130.2034
20
101.8958
0
VERTEX
8
CUT
10
130.0046
20
101.7593
0
VERTEX
8
CUT
10
129.8198
20
101.6043
0
VERTEX
8
CUT
10
129.6509
20
101.4322
0
VERTEX
8
CUT
10
129.4993
20
101.2446
0
VERTEX
8
CUT
10
129.3665
20
101.0433
0
VERTEX
8
CUT
10
129.2537
20
100.8302
0
VERTEX
8
CUT
10
129.1620
20
100.6071
0
VERTEX
8
CUT
10
129.0922
20
100.3763
0
VERTEX
8
CUT
10
127.9656
20
95.8777
0
VERTEX
8
CUT
10
127.9596
20
95.8563
0
VERTEX
8
CUT
10
127.9255
20
95.7667
0
VERTEX
8
CUT
10
127.9158
20
95.7467
0
VERTEX
8
CUT
10
127.5723
20
95.0900
0
VERTEX
8
CUT
10
127.4902
20
94.9171
0
VERTEX
8
CUT
10
127.4215
20
94.7384
0
VERTEX
8
CUT
10
126.5685
20
92.2371
0
VERTEX
8
CUT
10
126.5399
20
92.1617
0
VERTEX
8
CUT
10
126.5063
20
92.0884
0
VERTEX
8
CUT
10
124.3628
20
87.8060
0
VERTEX
8
CUT
10
124.3325
20
87.7495
0
VERTEX
8
CUT
10
124.2993
20
87.6946
0
VERTEX
8
CUT
10
122.3714
20
84.6978
0
VERTEX
8
CUT
10
122.3684
20
84.6933
0
VERTEX
8
CUT
10
122.3184
20
84.6279
0
VERTEX
8
CUT
10
122.3061
20
84.6138
0
VERTEX
8
CUT
10
121.7166
20
83.9713
0
VERTEX
8
CUT
10
121.5624
20
83.7861
0
VERTEX
8
CUT
10
121.4268
20
83.5869
0
VERTEX
8
CUT
10
121.3110
20
83.3756
0
VERTEX
8
CUT
10
121.2161
20
83.1541
0
SEQEND
0
POLYLINE
8
CUT
66
1
70
1
10
0.0
20
0.0
30
0.0
0
VERTEX
8
CUT
10
115.8830
20
118.5719
0
VERTEX
8
CUT
10
116.0105
20
118.3625
0
VERTEX
8
CUT
10
116.1579
20
118.1666
0
VERTEX
8
CUT
10
116.3238
20
117.9860
0
VERTEX
8
CUT
10
116.5066
20
117.8226
0
VERTEX
8
CUT
10
116.7044
20
117.6779
0
VERTEX
8
CUT
10
116.9156
20
117.5532
0
VERTEX
8
CUT
10
117.1379
20
117.4499
0
VERTEX
8
CUT
10
117.3692
20
117.3688
0
VERTEX
8
CUT
10
117.6074
20
117.3107
0
VERTEX
8
CUT
10
117.8502
20
117.2763
0
VERTEX
8
CUT
10
118.0951
20
117.2658
0
VERTEX
8
CUT
10
118.4322
20
117.2679
0
VERTEX
8
CUT
10
118.6921
20
117.2830
0
VERTEX
8
CUT
10
118.9491
20
117.3252
0
VERTEX
8
CUT
10
119.2002
20
117.3938
0
VERTEX
8
CUT
10
119.4429
20
117.4882
0
VERTEX
8
CUT
10
121.0463
20
118.2100
0
VERTEX
8
CUT
10
121.2495
20
118.3128
0
VERTEX
8
CUT
10
121.4424
20
118.4337
0
VERTEX
8
CUT
10
121.6236
20
118.5717
0
VERTEX
8
CUT
10
121.7915
20
118.7255
0
VERTEX
8
CUT
10
124.1002
20
121.0438
0
VERTEX
8
CUT
10
124.2570
20
121.2167
0
VERTEX
8
CUT
10
124.3970
20
121.4035
0
VERTEX
8
CUT
10
125.2764
20
122.6984
0
VERTEX
8
CUT
10
125.4433
20
122.9830
0
VERTEX
8
CUT
10
126.9260
20
125.9424
0
VERTEX
8
CUT
10
127.0621
20
126.2701
0
VERTEX
8
CUT
10
128.3572
20
130.1469
0
VERTEX
8
CUT
10
128.4455
20
130.4908
0
VERTEX
8
CUT
10
128.7757
20
132.3027
0
VERTEX
8
CUT
10
128.8075
20
132.5417
0
VERTEX
8
CUT
10
128.8160
20
132.7827
0
VERTEX
8
CUT
10
128.8013
20
133.0234
0
VERTEX
8
CUT
10
128.7635
20
133.2616
0
VERTEX
8
CUT
10
128.7029
20
133.4950
0
VERTEX
8
CUT
10
128.6201
20
133.7215
0
VERTEX
8
CUT
10
128.5159
20
133.9389
0
VERTEX
8
CUT
10
128.3912
20
134.1453
0
VERTEX
8
CUT
10
128.2472
20
134.3388
0
VERTEX
8
CUT
10
128.0853
20
134.5174
0
VERTEX
8
CUT
10
127.9068
20
134.6797
0
VERTEX
8
CUT
10
127.7136
20
134.8239
0
VERTEX
8
CUT
10
127.5074
20
134.9489
0
VERTEX
8
CUT
10
127.2901
20
135.0535
0
VERTEX
8
CUT
10
127.0637
20
135.1366
0
VERTEX
8
CUT
10
126.8304
20
135.1975
0
VERTEX
8
CUT
10
126.5922
20
135.2356
0
VERTEX
8
CUT
10
126.3516
20
135.2507
0
VERTEX
8
CUT
10
126.1106
20
135.2424
0
VERTEX
8
CUT
10
125.8715
20
135.2110
0
VERTEX
8
CUT
10
125.6365
20
135.1567
0
VERTEX
8
CUT
10
125.4079
20
135.0801
0
VERTEX
8
CUT
10
125.1877
20
134.9817
0
VERTEX
8
CUT
10
124.9780
20
134.8626
0
VERTEX
8
CUT
10
124.7808
20
134.7238
0
VERTEX
8
CUT
10
124.5978
20
134.5667
0
VERTEX
8
CUT
10
121.4436
20
131.5817
0
VERTEX
8
CUT
10
121.3040
20
131.4386
0
VERTEX
8
CUT
10
118.4821
20
128.3041
0
VERTEX
8
CUT
10
118.2637
20
128.0237
0
VERTEX
8
CUT
10
117.3193
20
126.6153
0
VERTEX
8
CUT
10
117.1585
20
126.3388
0
VERTEX
8
CUT
10
115.9859
20
123.9875
0
VERTEX
8
CUT
10
115.9018
20
123.7998
0
VERTEX
8
CUT
10
115.8333
20
123.6058
0
VERTEX
8
CUT
10
115.7811
20
123.4069
0
VERTEX
8
CUT
10
115.6202
20
122.6727
0
VERTEX
8
CUT
10
115.5758
20
122.3976
0
VERTEX
8
CUT
10
115.5623
20
122.1192
0
VERTEX
8
CUT
10
115.5796
20
119.7474
0
VERTEX
8
CUT
10
115.5935
20
119.5027
0
VERTEX
8
CUT
10
115.6312
20
119.2604
0
VERTEX
8
CUT
10
115.6924
20
119.0230
0
VERTEX
8
CUT
10
115.7767
20
118.7928
0
SEQEND
0
POLYLINE
8
CUT
66
1
70
1
10
0.0
20
0.0
30
0.0
0
VERTEX
8
CUT
10
60.5027
20
164.4061
0
VERTEX
8
CUT
10
60.5720
20
164.1766
0
VERTEX
8
CUT
10
60.6630
20
163.9549
0
VERTEX
8
CUT
10
60.7749
20
163.7428
0
VERTEX
8
CUT
10
60.9065
20
163.5425
0
VERTEX
8
CUT
10
61.0567
20
163.3557
0
VERTEX
8
CUT
10
61.2242
20
163.1841
0
VERTEX
8
CUT
10
61.4072
20
163.0294
0
VERTEX
8
CUT
10
61.6043
20
162.8929
0
VERTEX
8
CUT
10
61.8135
20
162.7759
0
VERTEX
8
CUT
10
62.0330
20
162.6795
0
VERTEX
8
CUT
10
62.1162
20
162.6521
0
VERTEX
8
CUT
10
62.1162
20
162.6519
0
VERTEX
8
CUT
10
62.2148
20
162.6154
0
VERTEX
8
CUT
10
62.3828
20
162.5478
0
VERTEX
8
CUT
10
62.6224
20
162.4653
0
VERTEX
8
CUT
10
62.8691
20
162.4075
0
VERTEX
8
CUT
10
63.1203
20
162.3750
0
VERTEX
8
CUT
10
63.6896
20
162.3304
0
VERTEX
8
CUT
10
63.6947
20
162.3299
0
VERTEX
8
CUT
10
63.7429
20
162.3223
0
VERTEX
8
CUT
10
63.7675
20
162.3162
0
VERTEX
8
CUT
10
63.7892
20
162.3095
0
VERTEX
8
CUT
10
65.3700
20
161.7779
0
VERTEX
8
CUT
10
65.4482
20
161.7485
0
VERTEX
8
CUT
10
65.5243
20
161.7136
0
VERTEX
8
CUT
10
69.2639
20
159.8383
0
VERTEX
8
CUT
10
69.3400
20
159.7966
0
VERTEX
8
CUT
10
69.4130
20
159.7494
0
VERTEX
8
CUT
10
73.0318
20
157.2166
0
VERTEX
8
CUT
10
73.0814
20
157.1800
0
VERTEX
8
CUT
10
73.1290
20
157.1408
0
VERTEX
8
CUT
10
84.1469
20
147.5912
0
VERTEX
8
CUT
10
84.3059
20
147.4643
0
VERTEX
8
CUT
10
87.2229
20
145.3253
0
VERTEX
8
CUT
10
87.3612
20
145.2308
0
VERTEX
8
CUT
10
92.4302
20
142.0124
0
VERTEX
8
CUT
10
92.7040
20
141.8616
0
VERTEX
8
CUT
10
95.1189
20
140.7230
0
VERTEX
8
CUT
10
95.1705
20
140.6956
0
VERTEX
8
CUT
10
95.2125
20
140.6549
0
VERTEX
8
CUT
10
96.6476
20
139.1241
0
VERTEX
8
CUT
10
96.8487
20
138.9322
0
VERTEX
8
CUT
10
97.0698
20
138.7638
0
VERTEX
8
CUT
10
97.5198
20
138.4592
0
VERTEX
8
CUT
10
97.7128
20
138.3409
0
VERTEX
8
CUT
10
97.9158
20
138.2405
0
VERTEX
8
CUT
10
98.1269
20
138.1589
0
VERTEX
8
CUT
10
99.4886
20
137.7026
0
VERTEX
8
CUT
10
99.7586
20
137.6286
0
VERTEX
8
CUT
10
102.0516
20
137.1367
0
VERTEX
8
CUT
10
102.3083
20
137.0955
0
VERTEX
8
CUT
10
102.5678
20
137.0811
0
VERTEX
8
CUT
10
107.3179
20
137.0655
0
VERTEX
8
CUT
10
107.5708
20
137.0774
0
VERTEX
8
CUT
10
107.8211
20
137.1149
0
VERTEX
8
CUT
10
111.7234
20
137.9031
0
VERTEX
8
CUT
10
111.9379
20
137.9563
0
VERTEX
8
CUT
10
112.1468
20
138.0284
0
VERTEX
8
CUT
10
113.1004
20
138.4050
0
VERTEX
8
CUT
10
113.1200
20
138.4127
0
VERTEX
8
CUT
10
113.1272
20
138.4156
0
VERTEX
8
CUT
10
113.1301
20
138.4167
0
VERTEX
8
CUT
10
113.1485
20
138.4240
0
VERTEX
8
CUT
10
114.7855
20
139.0705
0
VERTEX
8
CUT
10
114.9975
20
139.1659
0
VERTEX
8
CUT
10
116.4969
20
139.9260
0
VERTEX
8
CUT
10
116.7632
20
140.0824
0
VERTEX
8
CUT
10
118.4157
20
141.1955
0
VERTEX
8
CUT
10
118.5887
20
141.3232
0
VERTEX
8
CUT
10
119.9199
20
142.3971
0
VERTEX
8
CUT
10
120.1213
20
142.5784
0
VERTEX
8
CUT
10
122.3416
20
144.8070
0
VERTEX
8
CUT
10
122.4793
20
144.9570
0
VERTEX
8
CUT
10
122.6043
20
145.1177
0
VERTEX
8
CUT
10
125.3117
20
148.9054
0
VERTEX
8
CUT
10
125.4184
20
149.0676
0
VERTEX
8
CUT
10
125.5121
20
149.2376
0
VERTEX
8
CUT
10
127.0936
20
152.3880
0
VERTEX
8
CUT
10
127.2306
20
152.7177
0
VERTEX
8
CUT
10
127.9989
20
155.0182
0
VERTEX
8
CUT
10
128.0656
20
155.2570
0
VERTEX
8
CUT
10
128.1084
20
155.5013
0
VERTEX
8
CUT
10
128.1268
20
155.7486
0
VERTEX
8
CUT
10
128.1206
20
155.9965
0
VERTEX
8
CUT
10
128.0899
20
156.2426
0
VERTEX
8
CUT
10
128.0349
20
156.4844
0
VERTEX
8
CUT
10
127.9563
20
156.7195
0
VERTEX
8
CUT
10
127.8547
20
156.9458
0
VERTEX
8
CUT
10
127.7313
20
157.1608
0
VERTEX
8
CUT
10
127.5871
20
157.3626
0
VERTEX
8
CUT
10
127.4236
20
157.5491
0
VERTEX
8
CUT
10
127.2425
20
157.7185
0
VERTEX
8
CUT
10
127.0455
20
157.8691
0
VERTEX
8
CUT
10
126.8346
20
157.9994
0
VERTEX
8
CUT
10
126.6117
20
158.1082
0
VERTEX
8
CUT
10
126.3792
20
158.1944
0
VERTEX
8
CUT
10
126.1393
20
158.2572
0
VERTEX
8
CUT
10
125.9891
20
158.2886
0
VERTEX
8
CUT
10
125.9704
20
158.2939
0
VERTEX
8
CUT
10
125.7474
20
158.3641
0
VERTEX
8
CUT
10
125.7287
20
158.3705
0
VERTEX
8
CUT
10
125.6915
20
158.3865
0
VERTEX
8
CUT
10
125.6701
20
158.4208
0
VERTEX
8
CUT
10
125.6610
20
158.4384
0
VERTEX
8
CUT
10
125.5458
20
158.6730
0
VERTEX
8
CUT
10
125.5370
20
158.6922
0
VERTEX
8
CUT
10
125.5221
20
158.7332
0
VERTEX
8
CUT
10
125.5163
20
158.7763
0
VERTEX
8
CUT
10
125.5151
20
158.7974
0
VERTEX
8
CUT
10
125.4498
20
161.1214
0
VERTEX
8
CUT
10
125.4284
20
161.3854
0
VERTEX
8
CUT
10
125.3791
20
161.6457
0
VERTEX
8
CUT
10
124.9072
20
163.5733
0
VERTEX
8
CUT
10
124.8545
20
163.7579
0
VERTEX
8
CUT
10
124.7877
20
163.9379
0
VERTEX
8
CUT
10
123.5077
20
167.0192
0
VERTEX
8
CUT
10
123.3832
20
167.2762
0
VERTEX
8
CUT
10
123.2303
20
167.5174
0
VERTEX
8
CUT
10
121.1815
20
170.3732
0
VERTEX
8
CUT
10
121.0436
20
170.5483
0
VERTEX
8
CUT
10
120.8907
20
170.7104
0
VERTEX
8
CUT
10
119.4775
20
172.0811
0
VERTEX
8
CUT
10
119.2113
20
172.3055
0
VERTEX
8
CUT
10
118.9764
20
172.4771
0
VERTEX
8
CUT
10
117.4221
20
173.6120
0
VERTEX
8
CUT
10
117.2510
20
173.7264
0
VERTEX
8
CUT
10
117.0711
20
173.8264
0
VERTEX
8
CUT
10
115.1010
20
174.8174
0
VERTEX
8
CUT
10
114.7720
20
174.9544
0
VERTEX
8
CUT
10
113.2209
20
175.4742
0
VERTEX
8
CUT
10
113.0221
20
175.5318
0
VERTEX
8
CUT
10
112.1333
20
175.7498
0
VERTEX
8
CUT
10
111.8988
20
175.7956
0
VERTEX
8
CUT
10
111.6609
20
175.8188
0
VERTEX
8
CUT
10
110.6977
20
175.8663
0
VERTEX
8
CUT
10
110.6797
20
175.8676
0
VERTEX
8
CUT
10
110.6427
20
175.8728
0
VERTEX
8
CUT
10
110.6061
20
175.8814
0
VERTEX
8
CUT
10
110.5894
20
175.8866
0
VERTEX
8
CUT
10
109.6334
20
176.2058
0
VERTEX
8
CUT
10
109.3869
20
176.2743
0
VERTEX
8
CUT
10
109.1347
20
176.3172
0
VERTEX
8
CUT
10
108.8794
20
176.3341
0
VERTEX
8
CUT
10
108.6237
20
176.3249
0
VERTEX
8
CUT
10
108.3703
20
176.2896
0
VERTEX
8
CUT
10
104.5325
20
175.5527
0
VERTEX
8
CUT
10
104.3170
20
175.5013
0
VERTEX
8
CUT
10
104.1069
20
175.4311
0
VERTEX
8
CUT
10
100.7798
20
174.1522
0
VERTEX
8
CUT
10
100.5568
20
174.0537
0
VERTEX
8
CUT
10
100.3444
20
173.9340
0
VERTEX
8
CUT
10
100.1447
20
173.7942
0
VERTEX
8
CUT
10
96.7324
20
171.1479
0
VERTEX
8
CUT
10
96.4862
20
170.9295
0
VERTEX
8
CUT
10
96.0971
20
170.5358
0
VERTEX
8
CUT
10
95.9200
20
170.3363
0
VERTEX
8
CUT
10
95.7651
20
170.1190
0
VERTEX
8
CUT
10
95.6343
20
169.8865
0
VERTEX
8
CUT
10
95.4045
20
169.4216
0
VERTEX
8
CUT
10
95.3959
20
169.4051
0
VERTEX
8
CUT
10
95.3555
20
169.3397
0
VERTEX
8
CUT
10
95.3446
20
169.3246
0
VERTEX
8
CUT
10
94.1646
20
167.7595
0
VERTEX
8
CUT
10
94.0366
20
167.5728
0
VERTEX
8
CUT
10
93.9260
20
167.3752
0
VERTEX
8
CUT
10
92.9648
20
165.4587
0
VERTEX
8
CUT
10
92.8275
20
165.1277
0
VERTEX
8
CUT
10
91.7861
20
162.0002
0
VERTEX
8
CUT
10
91.7103
20
161.7191
0
VERTEX
8
CUT
10
91.6678
20
161.4310
0
VERTEX
8
CUT
10
91.3798
20
158.1800
0
VERTEX
8
CUT
10
91.3702
20
157.9326
0
VERTEX
8
CUT
10
91.3867
20
156.3867
0
VERTEX
8
CUT
10
91.4036
20
156.1221
0
VERTEX
8
CUT
10
91.4484
20
155.8608
0
VERTEX
8
CUT
10
91.5206
20
155.6058
0
VERTEX
8
CUT
10
91.6198
20
155.3152
0
VERTEX
8
CUT
10
91.6257
20
155.2965
0
VERTEX
8
CUT
10
91.6350
20
155.2570
0
VERTEX
8
CUT
10
91.6403
20
155.2168
0
VERTEX
8
CUT
10
91.6414
20
155.1972
0
VERTEX
8
CUT
10
91.6768
20
154.0881
0
VERTEX
8
CUT
10
91.6991
20
153.8252
0
VERTEX
8
CUT
10
91.7491
20
153.5660
0
VERTEX
8
CUT
10
92.2412
20
151.5824
0
VERTEX
8
CUT
10
92.3470
20
151.2545
0
VERTEX
8
CUT
10
92.8025
20
150.1176
0
VERTEX
8
CUT
10
92.9451
20
149.8203
0
VERTEX
8
CUT
10
93.4255
20
148.9678
0
VERTEX
8
CUT
10
93.4466
20
148.9257
0
VERTEX
8
CUT
10
93.4098
20
148.9551
0
VERTEX
8
CUT
10
92.4552
20
149.7956
0
VERTEX
8
CUT
10
92.4413
20
149.8085
0
VERTEX
8
CUT
10
92.3854
20
149.8687
0
VERTEX
8
CUT
10
92.3736
20
149.8836
0
VERTEX
8
CUT
10
90.6147
20
152.2144
0
VERTEX
8
CUT
10
90.6047
20
152.2283
0
VERTEX
8
CUT
10
90.5659
20
152.2908
0
VERTEX
8
CUT
10
90.5578
20
152.3059
0
VERTEX
8
CUT
10
88.9374
20
155.5351
0
VERTEX
8
CUT
10
88.9287
20
155.5537
0
VERTEX
8
CUT
10
88.8977
20
155.6371
0
VERTEX
8
CUT
10
88.8922
20
155.6570
0
VERTEX
8
CUT
10
88.5993
20
156.8245
0
VERTEX
8
CUT
10
88.5951
20
156.8432
0
VERTEX
8
CUT
10
88.5833
20
156.9251
0
VERTEX
8
CUT
10
88.5820
20
156.9443
0
VERTEX
8
CUT
10
88.5565
20
157.5533
0
VERTEX
8
CUT
10
88.5363
20
157.7824
0
VERTEX
8
CUT
10
88.4951
20
158.0087
0
VERTEX
8
CUT
10
88.4334
20
158.2303
0
VERTEX
8
CUT
10
88.3515
20
158.4452
0
VERTEX
8
CUT
10
88.3429
20
158.4650
0
VERTEX
8
CUT
10
88.3363
20
158.4812
0
VERTEX
8
CUT
10
88.3246
20
158.5171
0
VERTEX
8
CUT
10
88.3197
20
158.5546
0
VERTEX
8
CUT
10
88.3187
20
158.5721
0
VERTEX
8
CUT
10
88.2837
20
159.5642
0
VERTEX
8
CUT
10
88.2831
20
159.5937
0
VERTEX
8
CUT
10
88.2831
20
159.6232
0
VERTEX
8
CUT
10
88.3110
20
161.5835
0
VERTEX
8
CUT
10
88.3116
20
161.6004
0
VERTEX
8
CUT
10
88.3191
20
161.6727
0
VERTEX
8
CUT
10
88.3220
20
161.6893
0
VERTEX
8
CUT
10
88.8699
20
164.4916
0
VERTEX
8
CUT
10
88.8711
20
164.4967
0
VERTEX
8
CUT
10
88.8925
20
164.5738
0
VERTEX
8
CUT
10
88.8985
20
164.5910
0
VERTEX
8
CUT
10
89.7237
20
166.7902
0
VERTEX
8
CUT
10
89.7478
20
166.8495
0
VERTEX
8
CUT
10
89.7751
20
166.9074
0
VERTEX
8
CUT
10
90.5698
20
168.4861
0
VERTEX
8
CUT
10
90.5721
20
168.4904
0
VERTEX
8
CUT
10
90.6099
20
168.5537
0
VERTEX
8
CUT
10
90.6193
20
168.5675
0
VERTEX
8
CUT
10
92.6231
20
171.3793
0
VERTEX
8
CUT
10
92.6262
20
171.3835
0
VERTEX
8
CUT
10
92.6777
20
171.4448
0
VERTEX
8
CUT
10
92.6902
20
171.4580
0
VERTEX
8
CUT
10
94.9879
20
173.7565
0
VERTEX
8
CUT
10
95.0008
20
173.7688
0
VERTEX
8
CUT
10
95.0601
20
173.8178
0
VERTEX
8
CUT
10
95.0746
20
173.8282
0
VERTEX
8
CUT
10
96.9663
20
175.1119
0
VERTEX
8
CUT
10
97.1616
20
175.2589
0
VERTEX
8
CUT
10
97.3417
20
175.4243
0
VERTEX
8
CUT
10
97.5048
20
175.6065
0
VERTEX
8
CUT
10
97.6492
20
175.8038
0
VERTEX
8
CUT
10
97.7737
20
176.0142
0
VERTEX
8
CUT
10
97.8771
20
176.2358
0
VERTEX
8
CUT
10
97.9583
20
176.4664
0
VERTEX
8
CUT
10
98.0166
20
176.7039
0
VERTEX
8
CUT
10
98.0515
20
176.9459
0
VERTEX
8
CUT
10
98.0625
20
177.1902
0
VERTEX
8
CUT
10
98.0496
20
177.4343
0
VERTEX
8
CUT
10
98.0129
20
177.6761
0
VERTEX
8
CUT
10
97.9528
20
177.9131
0
VERTEX
8
CUT
10
97.8698
20
178.1431
0
VERTEX
8
CUT
10
97.7647
20
178.3639
0
VERTEX
8
CUT
10
97.6386
20
178.5733
0
VERTEX
8
CUT
10
97.4926
20
178.7695
0
VERTEX
8
CUT
10
97.3281
20
178.9504
0
VERTEX
8
CUT
10
97.1468
20
179.1144
0
VERTEX
8
CUT
10
96.9503
20
179.2600
0
VERTEX
8
CUT
10
96.7405
20
179.3856
0
VERTEX
8
CUT
10
96.5195
20
179.4901
0
VERTEX
8
CUT
10
96.2893
20
179.5726
0
VERTEX
8
CUT
10
96.0521
20
179.6321
0
VERTEX
8
CUT
10
95.8103
20
179.6682
0
VERTEX
8
CUT
10
95.5661
20
179.6805
0
VERTEX
8
CUT
10
95.3219
20
179.6689
0
VERTEX
8
CUT
10
95.0799
20
179.6335
0
VERTEX
8
CUT
10
94.8426
20
179.5747
0
VERTEX
8
CUT
10
93.6783
20
179.2246
0
VERTEX
8
CUT
10
93.6044
20
179.2049
0
VERTEX
8
CUT
10
93.5295
20
179.1900
0
VERTEX
8
CUT
10
91.7059
20
178.8886
0
VERTEX
8
CUT
10
91.3630
20
178.8067
0
VERTEX
8
CUT
10
89.9917
20
178.3751
0
VERTEX
8
CUT
10
89.9865
20
178.3736
0
VERTEX
8
CUT
10
89.9362
20
178.3622
0
VERTEX
8
CUT
10
89.9097
20
178.3587
0
VERTEX
8
CUT
10
89.8859
20
178.3570
0
VERTEX
8
CUT
10
89.1032
20
178.3220
0
VERTEX
8
CUT
10
88.8910
20
178.3034
0
VERTEX
8
CUT
10
88.6812
20
178.2669
0
VERTEX
8
CUT
10
88.4753
20
178.2126
0
VERTEX
8
CUT
10
88.0664
20
178.0859
0
VERTEX
8
CUT
10
88.0481
20
178.0808
0
VERTEX
8
CUT
10
88.0082
20
178.0727
0
VERTEX
8
CUT
10
87.9676
20
178.0687
0
VERTEX
8
CUT
10
87.9486
20
178.0682
0
VERTEX
8
CUT
10
84.4393
20
178.0768
0
VERTEX
8
CUT
10
84.4340
20
178.0769
0
VERTEX
8
CUT
10
84.3834
20
178.0812
0
VERTEX
8
CUT
10
84.3575
20
178.0857
0
VERTEX
8
CUT
10
84.3346
20
178.0912
0
VERTEX
8
CUT
10
81.1062
20
178.9454
0
VERTEX
8
CUT
10
81.0876
20
178.9508
0
VERTEX
8
CUT
10
81.0095
20
178.9803
0
VERTEX
8
CUT
10
80.9920
20
178.9885
0
VERTEX
8
CUT
10
78.3724
20
180.3006
0
VERTEX
8
CUT
10
78.2981
20
180.3412
0
VERTEX
8
CUT
10
78.2269
20
180.3870
0
VERTEX
8
CUT
10
76.1883
20
181.8013
0
VERTEX
8
CUT
10
75.8806
20
181.9836
0
VERTEX
8
CUT
10
74.1669
20
182.8399
0
VERTEX
8
CUT
10
73.9428
20
182.9384
0
VERTEX
8
CUT
10
73.7101
20
183.0146
0
VERTEX
8
CUT
10
73.4711
20
183.0677
0
VERTEX
8
CUT
10
72.3362
20
183.2619
0
VERTEX
8
CUT
10
72.0636
20
183.2932
0
VERTEX
8
CUT
10
71.7892
20
183.2945
0
VERTEX
8
CUT
10
71.5163
20
183.2658
0
VERTEX
8
CUT
10
70.3034
20
183.0700
0
VERTEX
8
CUT
10
70.0265
20
183.0091
0
VERTEX
8
CUT
10
69.7583
20
182.9172
0
VERTEX
8
CUT
10
69.5023
20
182.7955
0
VERTEX
8
CUT
10
67.7477
20
181.8361
0
VERTEX
8
CUT
10
67.5417
20
181.7102
0
VERTEX
8
CUT
10
67.3487
20
181.5649
0
VERTEX
8
CUT
10
67.1707
20
181.4017
0
VERTEX
8
CUT
10
65.4452
20
179.6592
0
VERTEX
8
CUT
10
65.2699
20
179.4624
0
VERTEX
8
CUT
10
65.1162
20
179.2483
0
VERTEX
8
CUT
10
64.4186
20
178.1588
0
VERTEX
8
CUT
10
64.2854
20
177.9238
0
VERTEX
8
CUT
10
63.0493
20
175.4382
0
VERTEX
8
CUT
10
62.9174
20
175.1194
0
VERTEX
8
CUT
10
62.4308
20
173.6676
0
VERTEX
8
CUT
10
62.3694
20
173.4529
0
VERTEX
8
CUT
10
60.4958
20
165.5937
0
VERTEX
8
CUT
10
60.4515
20
165.3581
0
VERTEX
8
CUT
10
60.4299
20
165.1193
0
VERTEX
8
CUT
10
60.4313
20
164.8796
0
VERTEX
8
CUT
10
60.4556
20
164.6411
0
SEQEND
0
POLYLINE
8
CUT
66
1
70
1
10
0.0
20
0.0
30
0.0
0
VERTEX
8
CUT
10
101.9895
20
71.9833
0
VERTEX
8
CUT
10
102.0178
20
71.7415
0
VERTEX
8
CUT
10
102.0695
20
71.5035
0
VERTEX
8
CUT
10
102.1441
20
71.2718
0
VERTEX
8
CUT
10
102.2409
20
71.0484
0
VERTEX
8
CUT
10
102.3589
20
70.8355
0
VERTEX
8
CUT
10
102.4971
20
70.6350
0
VERTEX
8
CUT
10
102.6542
20
70.4490
0
VERTEX
8
CUT
10
102.8286
20
70.2791
0
VERTEX
8
CUT
10
103.0187
20
70.1270
0
VERTEX
8
CUT
10
103.2227
20
69.9941
0
VERTEX
8
CUT
10
103.4387
20
69.8817
0
VERTEX
8
CUT
10
103.6645
20
69.7908
0
VERTEX
8
CUT
10
103.8982
20
69.7223
0
VERTEX
8
CUT
10
104.1373
20
69.6769
0
VERTEX
8
CUT
10
104.3798
20
69.6549
0
VERTEX
8
CUT
10
104.6233
20
69.6567
0
VERTEX
8
CUT
10
104.8654
20
69.6821
0
VERTEX
8
CUT
10
105.1039
20
69.7309
0
VERTEX
8
CUT
10
105.3366
20
69.8028
0
VERTEX
8
CUT
10
105.5611
20
69.8969
0
VERTEX
8
CUT
10
105.7754
20
70.0123
0
VERTEX
8
CUT
10
105.9775
20
70.1481
0
VERTEX
8
CUT
10
106.0913
20
70.2419
0
VERTEX
8
CUT
10
106.1619
20
70.2955
0
VERTEX
8
CUT
10
106.1758
20
70.3046
0
VERTEX
8
CUT
10
107.2891
20
71.0031
0
VERTEX
8
CUT
10
107.5095
20
71.1585
0
VERTEX
8
CUT
10
111.1637
20
74.0431
0
VERTEX
8
CUT
10
111.3141
20
74.1718
0
VERTEX
8
CUT
10
113.3955
20
76.1007
0
VERTEX
8
CUT
10
113.3991
20
76.1039
0
VERTEX
8
CUT
10
113.4575
20
76.1506
0
VERTEX
8
CUT
10
113.4743
20
76.1626
0
VERTEX
8
CUT
10
113.6621
20
76.3103
0
VERTEX
8
CUT
10
113.8350
20
76.4754
0
VERTEX
8
CUT
10
113.9914
20
76.6561
0
VERTEX
8
CUT
10
114.1297
20
76.8510
0
VERTEX
8
CUT
10
114.2489
20
77.0582
0
VERTEX
8
CUT
10
114.3477
20
77.2758
0
VERTEX
8
CUT
10
114.4252
20
77.5019
0
VERTEX
8
CUT
10
114.4809
20
77.7343
0
VERTEX
8
CUT
10
114.5140
20
77.9710
0
VERTEX
8
CUT
10
114.5245
20
78.2098
0
VERTEX
8
CUT
10
114.5120
20
78.4485
0
VERTEX
8
CUT
10
114.4769
20
78.6849
0
VERTEX
8
CUT
10
114.4193
20
78.9168
0
VERTEX
8
CUT
10
114.3398
20
79.1422
0
VERTEX
8
CUT
10
114.2392
20
79.3590
0
VERTEX
8
CUT
10
114.1184
20
79.5652
0
VERTEX
8
CUT
10
113.9784
20
79.7589
0
VERTEX
8
CUT
10
113.8205
20
79.9384
0
VERTEX
8
CUT
10
113.1076
20
80.6747
0
VERTEX
8
CUT
10
113.0955
20
80.6877
0
VERTEX
8
CUT
10
113.0476
20
80.7475
0
VERTEX
8
CUT
10
113.0376
20
80.7621
0
VERTEX
8
CUT
10
112.4746
20
81.6201
0
VERTEX
8
CUT
10
112.4655
20
81.6348
0
VERTEX
8
CUT
10
112.4381
20
81.6863
0
VERTEX
8
CUT
10
112.3491
20
81.8731
0
VERTEX
8
CUT
10
112.2219
20
82.0838
0
VERTEX
8
CUT
10
112.0746
20
82.2809
0
VERTEX
8
CUT
10
111.9087
20
82.4627
0
VERTEX
8
CUT
10
111.7256
20
82.6272
0
VERTEX
8
CUT
10
111.5273
20
82.7729
0
VERTEX
8
CUT
10
111.3156
20
82.8985
0
VERTEX
8
CUT
10
111.0926
20
83.0026
0
VERTEX
8
CUT
10
110.8605
20
83.0842
0
VERTEX
8
CUT
10
110.6214
20
83.1427
0
VERTEX
8
CUT
10
110.3778
20
83.1774
0
VERTEX
8
CUT
10
110.1319
20
83.1879
0
VERTEX
8
CUT
10
109.8862
20
83.1742
0
VERTEX
8
CUT
10
109.6430
20
83.1364
0
VERTEX
8
CUT
10
109.4047
20
83.0749
0
VERTEX
8
CUT
10
109.1736
20
82.9903
0
VERTEX
8
CUT
10
108.9519
20
82.8833
0
VERTEX
8
CUT
10
108.9075
20
82.8591
0
VERTEX
8
CUT
10
108.7894
20
82.8490
0
VERTEX
8
CUT
10
108.5428
20
82.8153
0
VERTEX
8
CUT
10
108.3007
20
82.7573
0
VERTEX
8
CUT
10
108.0656
20
82.6755
0
VERTEX
8
CUT
10
107.8398
20
82.5707
0
VERTEX
8
CUT
10
107.6256
20
82.4440
0
VERTEX
8
CUT
10
107.4250
20
82.2966
0
VERTEX
8
CUT
10
107.2400
20
82.1300
0
VERTEX
8
CUT
10
107.0725
20
81.9458
0
VERTEX
8
CUT
10
106.9242
20
81.7459
0
VERTEX
8
CUT
10
106.7965
20
81.5322
0
VERTEX
8
CUT
10
106.6907
20
81.3069
0
VERTEX
8
CUT
10
106.6389
20
81.1806
0
VERTEX
8
CUT
10
106.6142
20
81.1450
0
VERTEX
8
CUT
10
106.6013
20
81.1294
0
VERTEX
8
CUT
10
105.5262
20
79.8920
0
VERTEX
8
CUT
10
105.3977
20
79.7312
0
VERTEX
8
CUT
10
105.2829
20
79.5603
0
VERTEX
8
CUT
10
105.1825
20
79.3806
0
VERTEX
8
CUT
10
103.4050
20
75.8664
0
VERTEX
8
CUT
10
103.3524
20
75.7557
0
VERTEX
8
CUT
10
102.2002
20
73.1705
0
VERTEX
8
CUT
10
102.1121
20
72.9436
0
VERTEX
8
CUT
10
102.0464
20
72.7091
0
VERTEX
8
CUT
10
102.0038
20
72.4694
0
VERTEX
8
CUT
10
101.9848
20
72.2267
0
SEQEND
0
POLYLINE
8
CUT
66
1
70
1
10
0.0
20
0.0
30
0.0
0
VERTEX
8
CUT
10
80.9725
20
271.6676
0
VERTEX
8
CUT
10
81.0039
20
271.4412
0
VERTEX
8
CUT
10
81.0557
20
271.2186
0
VERTEX
8
CUT
10
81.4441
20
269.8408
0
VERTEX
8
CUT
10
81.5197
20
269.6145
0
VERTEX
8
CUT
10
81.6165
20
269.3964
0
VERTEX
8
CUT
10
81.9832
20
268.6667
0
VERTEX
8
CUT
10
82.0832
20
268.4866
0
VERTEX
8
CUT
10
82.1977
20
268.3154
0
VERTEX
8
CUT
10
82.7408
20
267.5713
0
VERTEX
8
CUT
10
82.8721
20
267.4064
0
VERTEX
8
CUT
10
83.0168
20
267.2532
0
VERTEX
8
CUT
10
83.9811
20
266.3151
0
VERTEX
8
CUT
10
84.1423
20
266.1713
0
VERTEX
8
CUT
10
84.3154
20
266.0419
0
VERTEX
8
CUT
10
84.4989
20
265.9280
0
VERTEX
8
CUT
10
84.6917
20
265.8303
0
VERTEX
8
CUT
10
86.8793
20
264.8380
0
VERTEX
8
CUT
10
87.1261
20
264.7414
0
VERTEX
8
CUT
10
87.3817
20
264.6716
0
VERTEX
8
CUT
10
87.6433
20
264.6292
0
VERTEX
8
CUT
10
87.9078
20
264.6147
0
VERTEX
8
CUT
10
90.4872
20
264.6103
0
VERTEX
8
CUT
10
90.7073
20
264.6197
0
VERTEX
8
CUT
10
90.9256
20
264.6483
0
VERTEX
8
CUT
10
91.1406
20
264.6961
0
VERTEX
8
CUT
10
91.3506
20
264.7626
0
VERTEX
8
CUT
10
92.9130
20
265.3344
0
VERTEX
8
CUT
10
93.1275
20
265.4244
0
VERTEX
8
CUT
10
93.3328
20
265.5340
0
VERTEX
8
CUT
10
93.5269
20
265.6622
0
VERTEX
8
CUT
10
94.1528
20
266.1187
0
VERTEX
8
CUT
10
94.3195
20
266.2515
0
VERTEX
8
CUT
10
94.4743
20
266.3980
0
VERTEX
8
CUT
10
95.5336
20
267.4902
0
VERTEX
8
CUT
10
95.7103
20
267.6932
0
VERTEX
8
CUT
10
95.8642
20
267.9141
0
VERTEX
8
CUT
10
96.4505
20
268.8603
0
VERTEX
8
CUT
10
96.5617
20
269.0596
0
VERTEX
8
CUT
10
96.6542
20
269.2681
0
VERTEX
8
CUT
10
96.9718
20
270.0819
0
VERTEX
8
CUT
10
97.0532
20
270.3273
0
VERTEX
8
CUT
10
97.1089
20
270.5799
0
VERTEX
8
CUT
10
97.1381
20
270.8368
0
VERTEX
8
CUT
10
97.1663
20
271.2938
0
VERTEX
8
CUT
10
97.1682
20
271.3147
0
VERTEX
8
CUT
10
97.1760
20
271.3593
0
VERTEX
8
CUT
10
97.1888
20
271.4027
0
VERTEX
8
CUT
10
97.1964
20
271.4223
0
VERTEX
8
CUT
10
97.2063
20
271.4458
0
VERTEX
8
CUT
10
97.2911
20
271.6792
0
VERTEX
8
CUT
10
97.3523
20
271.9198
0
VERTEX
8
CUT
10
97.3893
20
272.1654
0
VERTEX
8
CUT
10
97.4018
20
272.4134
0
VERTEX
8
CUT
10
97.4022
20
272.9677
0
VERTEX
8
CUT
10
97.3904
20
273.2123
0
VERTEX
8
CUT
10
97.3547
20
273.4546
0
VERTEX
8
CUT
10
97.2955
20
273.6922
0
VERTEX
8
CUT
10
97.2133
20
273.9228
0
VERTEX
8
CUT
10
97.1943
20
273.9690
0
VERTEX
8
CUT
10
97.1869
20
273.9884
0
VERTEX
8
CUT
10
97.1746
20
274.0312
0
VERTEX
8
CUT
10
97.1670
20
274.0751
0
VERTEX
8
CUT
10
97.1652
20
274.0957
0
VERTEX
8
CUT
10
97.1408
20
274.5010
0
VERTEX
8
CUT
10
97.1073
20
274.7852
0
VERTEX
8
CUT
10
97.0416
20
275.0637
0
VERTEX
8
CUT
10
96.9445
20
275.3329
0
VERTEX
8
CUT
10
96.3956
20
276.6180
0
VERTEX
8
CUT
10
96.2766
20
276.8598
0
VERTEX
8
CUT
10
96.1321
20
277.0874
0
VERTEX
8
CUT
10
95.6710
20
277.7342
0
VERTEX
8
CUT
10
95.5437
20
277.8980
0
VERTEX
8
CUT
10
95.4031
20
278.0507
0
VERTEX
8
CUT
10
94.4641
20
278.9897
0
VERTEX
8
CUT
10
94.2359
20
279.1917
0
VERTEX
8
CUT
10
93.9849
20
279.3644
0
VERTEX
8
CUT
10
92.4005
20
280.3172
0
VERTEX
8
CUT
10
92.1960
20
280.4277
0
VERTEX
8
CUT
10
91.9820
20
280.5186
0
VERTEX
8
CUT
10
91.7606
20
280.5893
0
VERTEX
8
CUT
10
90.3596
20
280.9656
0
VERTEX
8
CUT
10
90.1555
20
281.0113
0
VERTEX
8
CUT
10
89.9483
20
281.0399
0
VERTEX
8
CUT
10
89.7395
20
281.0510
0
VERTEX
8
CUT
10
88.9194
20
281.0603
0
VERTEX
8
CUT
10
88.6815
20
281.0517
0
VERTEX
8
CUT
10
88.4454
20
281.0205
0
VERTEX
8
CUT
10
87.3454
20
280.8212
0
VERTEX
8
CUT
10
87.0727
20
280.7558
0
VERTEX
8
CUT
10
86.8091
20
280.6604
0
VERTEX
8
CUT
10
85.3946
20
280.0563
0
VERTEX
8
CUT
10
85.1430
20
279.9317
0
VERTEX
8
CUT
10
84.9069
20
279.7797
0
VERTEX
8
CUT
10
84.2041
20
279.2690
0
VERTEX
8
CUT
10
84.0420
20
279.1407
0
VERTEX
8
CUT
10
83.8910
20
278.9993
0
VERTEX
8
CUT
10
82.5869
20
277.6730
0
VERTEX
8
CUT
10
82.4075
20
277.4696
0
VERTEX
8
CUT
10
82.2512
20
277.2480
0
VERTEX
8
CUT
10
81.7171
20
276.3960
0
VERTEX
8
CUT
10
81.6016
20
276.1909
0
VERTEX
8
CUT
10
81.5059
20
275.9758
0
VERTEX
8
CUT
10
81.4309
20
275.7526
0
VERTEX
8
CUT
10
81.0568
20
274.4386
0
VERTEX
8
CUT
10
81.0039
20
274.2134
0
VERTEX
8
CUT
10
80.9720
20
273.9843
0
VERTEX
8
CUT
10
80.9613
20
273.7533
0
VERTEX
8
CUT
10
80.9620
20
271.8959
0
SEQEND
0
POLYLINE
8
CUT
66
1
70
1
10
0.0
20
0.0
30
0.0
0
VERTEX
8
CUT
10
58.4479
20
63.8774
0
VERTEX
8
CUT
10
58.4550
20
63.8572
0
VERTEX
8
CUT
10
58.4664
20
63.8128
0
VERTEX
8
CUT
10
58.4727
20
63.7673
0
VERTEX
8
CUT
10
58.4739
20
63.7460
0
VERTEX
8
CUT
10
58.5114
20
62.1943
0
VERTEX
8
CUT
10
58.5304
20
61.9411
0
VERTEX
8
CUT
10
58.5750
20
61.6911
0
VERTEX
8
CUT
10
59.2985
20
58.5650
0
VERTEX
8
CUT
10
59.3562
20
58.3570
0
VERTEX
8
CUT
10
59.4316
20
58.1547
0
VERTEX
8
CUT
10
59.5242
20
57.9597
0
VERTEX
8
CUT
10
60.4201
20
56.2661
0
VERTEX
8
CUT
10
60.5518
20
56.0454
0
VERTEX
8
CUT
10
60.7055
20
55.8394
0
VERTEX
8
CUT
10
60.8795
20
55.6502
0
VERTEX
8
CUT
10
61.5727
20
54.9704
0
VERTEX
8
CUT
10
61.7593
20
54.8049
0
VERTEX
8
CUT
10
61.9615
20
54.6587
0
VERTEX
8
CUT
10
62.1772
20
54.5334
0
VERTEX
8
CUT
10
62.7842
20
54.2204
0
VERTEX
8
CUT
10
62.9702
20
54.1340
0
VERTEX
8
CUT
10
63.1627
20
54.0630
0
VERTEX
8
CUT
10
63.4981
20
53.9549
0
VERTEX
8
CUT
10
63.7278
20
53.8927
0
VERTEX
8
CUT
10
63.9625
20
53.8526
0
VERTEX
8
CUT
10
64.1999
20
53.8350
0
VERTEX
8
CUT
10
64.6017
20
53.8245
0
VERTEX
8
CUT
10
64.8207
20
53.8283
0
VERTEX
8
CUT
10
65.0386
20
53.8513
0
VERTEX
8
CUT
10
66.5450
20
54.0776
0
VERTEX
8
CUT
10
66.8028
20
54.1303
0
VERTEX
8
CUT
10
67.0537
20
54.2098
0
VERTEX
8
CUT
10
67.2948
20
54.3153
0
VERTEX
8
CUT
10
70.0448
20
55.6950
0
VERTEX
8
CUT
10
70.2499
20
55.8103
0
VERTEX
8
CUT
10
70.4433
20
55.9444
0
VERTEX
8
CUT
10
73.7097
20
58.4448
0
VERTEX
8
CUT
10
73.8689
20
58.5775
0
VERTEX
8
CUT
10
74.0165
20
58.7228
0
VERTEX
8
CUT
10
74.1515
20
58.8799
0
VERTEX
8
CUT
10
74.9047
20
59.8329
0
VERTEX
8
CUT
10
74.9155
20
59.8460
0
VERTEX
8
CUT
10
74.9657
20
59.8989
0
VERTEX
8
CUT
10
74.9781
20
59.9103
0
VERTEX
8
CUT
10
76.8263
20
61.5395
0
VERTEX
8
CUT
10
77.0832
20
61.8020
0
VERTEX
8
CUT
10
81.4487
20
66.9721
0
VERTEX
8
CUT
10
81.6463
20
67.2406
0
VERTEX
8
CUT
10
82.9096
20
69.2211
0
VERTEX
8
CUT
10
83.0409
20
69.4535
0
VERTEX
8
CUT
10
83.7243
20
70.8296
0
VERTEX
8
CUT
10
83.8244
20
71.0594
0
VERTEX
8
CUT
10
83.9010
20
71.2979
0
VERTEX
8
CUT
10
83.9533
20
71.5430
0
VERTEX
8
CUT
10
83.9808
20
71.7920
0
VERTEX
8
CUT
10
83.9832
20
72.0426
0
VERTEX
8
CUT
10
83.9606
20
72.2921
0
VERTEX
8
CUT
10
83.9130
20
72.5381
0
VERTEX
8
CUT
10
83.8411
20
72.7782
0
VERTEX
8
CUT
10
83.7456
20
73.0098
0
VERTEX
8
CUT
10
83.6273
20
73.2307
0
VERTEX
8
CUT
10
83.4875
20
73.4386
0
VERTEX
8
CUT
10
83.3276
20
73.6315
0
VERTEX
8
CUT
10
83.1492
20
73.8075
0
VERTEX
8
CUT
10
82.9541
20
73.9647
0
VERTEX
8
CUT
10
82.7442
20
74.1015
0
VERTEX
8
CUT
10
82.5217
20
74.2167
0
VERTEX
8
CUT
10
82.2887
20
74.3090
0
VERTEX
8
CUT
10
82.0477
20
74.3776
0
VERTEX
8
CUT
10
81.8011
20
74.4216
0
VERTEX
8
CUT
10
81.5512
20
74.4408
0
VERTEX
8
CUT
10
78.7400
20
74.5150
0
VERTEX
8
CUT
10
78.7214
20
74.5159
0
VERTEX
8
CUT
10
78.6818
20
74.5210
0
VERTEX
8
CUT
10
78.6439
20
74.5337
0
VERTEX
8
CUT
10
78.6267
20
74.5409
0
VERTEX
8
CUT
10
76.4955
20
75.5024
0
VERTEX
8
CUT
10
76.4793
20
75.5102
0
VERTEX
8
CUT
10
76.4458
20
75.5294
0
VERTEX
8
CUT
10
76.4166
20
75.5546
0
VERTEX
8
CUT
10
76.4039
20
75.5672
0
VERTEX
8
CUT
10
75.3748
20
76.6419
0
VERTEX
8
CUT
10
75.3627
20
76.6552
0
VERTEX
8
CUT
10
75.3387
20
76.6855
0
VERTEX
8
CUT
10
75.3210
20
76.7198
0
VERTEX
8
CUT
10
75.3140
20
76.7364
0
VERTEX
8
CUT
10
74.7762
20
78.0830
0
VERTEX
8
CUT
10
74.7703
20
78.0988
0
VERTEX
8
CUT
10
74.7599
20
78.1338
0
VERTEX
8
CUT
10
74.7559
20
78.1696
0
VERTEX
8
CUT
10
74.7552
20
78.1867
0
VERTEX
8
CUT
10
74.7331
20
79.3182
0
VERTEX
8
CUT
10
74.7333
20
79.3386
0
VERTEX
8
CUT
10
74.7372
20
79.3824
0
VERTEX
8
CUT
10
74.7459
20
79.4255
0
VERTEX
8
CUT
10
74.7516
20
79.4452
0
VERTEX
8
CUT
10
75.0502
20
80.3854
0
VERTEX
8
CUT
10
75.0561
20
80.4026
0
VERTEX
8
CUT
10
75.0871
20
80.4750
0
VERTEX
8
CUT
10
75.0955
20
80.4912
0
VERTEX
8
CUT
10
75.7162
20
81.6239
0
VERTEX
8
CUT
10
75.7253
20
81.6396
0
VERTEX
8
CUT
10
75.7473
20
81.6718
0
VERTEX
8
CUT
10
75.7722
20
81.7018
0
VERTEX
8
CUT
10
75.7848
20
81.7149
0
VERTEX
8
CUT
10
77.9596
20
83.8663
0
VERTEX
8
CUT
10
77.9721
20
83.8780
0
VERTEX
8
CUT
10
78.0008
20
83.9017
0
VERTEX
8
CUT
10
78.0318
20
83.9227
0
VERTEX
8
CUT
10
78.0462
20
83.9311
0
VERTEX
8
CUT
10
83.1220
20
86.7365
0
VERTEX
8
CUT
10
83.4105
20
86.9229
0
VERTEX
8
CUT
10
86.5171
20
89.2478
0
VERTEX
8
CUT
10
86.7195
20
89.4166
0
VERTEX
8
CUT
10
86.9030
20
89.6058
0
VERTEX
8
CUT
10
88.9307
20
91.9300
0
VERTEX
8
CUT
10
89.0790
20
92.1174
0
VERTEX
8
CUT
10
89.2088
20
92.3181
0
VERTEX
8
CUT
10
90.0406
20
93.7504
0
VERTEX
8
CUT
10
90.1586
20
93.9803
0
VERTEX
8
CUT
10
90.2523
20
94.2210
0
VERTEX
8
CUT
10
90.6114
20
95.3071
0
VERTEX
8
CUT
10
90.6814
20
95.5639
0
VERTEX
8
CUT
10
90.7237
20
95.8266
0
VERTEX
8
CUT
10
90.7378
20
96.0924
0
VERTEX
8
CUT
10
90.7375
20
97.6504
0
VERTEX
8
CUT
10
90.7267
20
97.8817
0
VERTEX
8
CUT
10
90.6946
20
98.1110
0
VERTEX
8
CUT
10
90.6414
20
98.3364
0
VERTEX
8
CUT
10
90.5676
20
98.5558
0
VERTEX
8
CUT
10
90.4738
20
98.7675
0
VERTEX
8
CUT
10
90.3605
20
98.9943
0
VERTEX
8
CUT
10
90.2289
20
99.2259
0
VERTEX
8
CUT
10
90.0734
20
99.4422
0
VERTEX
8
CUT
10
89.8958
20
99.6407
0
VERTEX
8
CUT
10
89.7285
20
99.8087
0
VERTEX
8
CUT
10
89.5385
20
99.9809
0
VERTEX
8
CUT
10
89.3319
20
100.1327
0
VERTEX
8
CUT
10
89.1108
20
100.2625
0
VERTEX
8
CUT
10
88.8776
20
100.3691
0
VERTEX
8
CUT
10
88.3492
20
100.5784
0
VERTEX
8
CUT
10
88.1359
20
100.6519
0
VERTEX
8
CUT
10
87.9169
20
100.7059
0
VERTEX
8
CUT
10
87.6939
20
100.7399
0
VERTEX
8
CUT
10
87.4687
20
100.7538
0
VERTEX
8
CUT
10
84.4743
20
100.8020
0
VERTEX
8
CUT
10
84.4690
20
100.8022
0
VERTEX
8
CUT
10
84.3877
20
100.8100
0
VERTEX
8
CUT
10
84.3693
20
100.8130
0
VERTEX
8
CUT
10
82.8238
20
101.1031
0
VERTEX
8
CUT
10
82.8032
20
101.1076
0
VERTEX
8
CUT
10
82.7158
20
101.1344
0
VERTEX
8
CUT
10
82.6962
20
101.1423
0
VERTEX
8
CUT
10
80.8275
20
101.9562
0
VERTEX
8
CUT
10
80.8114
20
101.9637
0
VERTEX
8
CUT
10
80.7780
20
101.9821
0
VERTEX
8
CUT
10
80.7487
20
102.0065
0
VERTEX
8
CUT
10
80.7360
20
102.0188
0
VERTEX
8
CUT
10
79.2475
20
103.5186
0
VERTEX
8
CUT
10
79.2355
20
103.5313
0
VERTEX
8
CUT
10
79.2119
20
103.5601
0
VERTEX
8
CUT
10
79.1970
20
103.5942
0
VERTEX
8
CUT
10
79.1912
20
103.6106
0
VERTEX
8
CUT
10
78.3473
20
106.1814
0
VERTEX
8
CUT
10
78.3457
20
106.1867
0
VERTEX
8
CUT
10
78.3345
20
106.2340
0
VERTEX
8
CUT
10
78.3356
20
106.2645
0
VERTEX
8
CUT
10
78.3381
20
106.2888
0
VERTEX
8
CUT
10
78.6167
20
108.4983
0
VERTEX
8
CUT
10
78.6199
20
108.5188
0
VERTEX
8
CUT
10
78.6303
20
108.5622
0
VERTEX
8
CUT
10
78.6455
20
108.6042
0
VERTEX
8
CUT
10
78.6541
20
108.6231
0
VERTEX
8
CUT
10
79.7489
20
110.8461
0
VERTEX
8
CUT
10
79.7511
20
110.8503
0
VERTEX
8
CUT
10
79.7876
20
110.9127
0
VERTEX
8
CUT
10
79.7966
20
110.9264
0
VERTEX
8
CUT
10
81.2130
20
112.9640
0
VERTEX
8
CUT
10
81.3939
20
113.2680
0
VERTEX
8
CUT
10
81.8706
20
114.2162
0
VERTEX
8
CUT
10
81.9631
20
114.4232
0
VERTEX
8
CUT
10
82.0365
20
114.6376
0
VERTEX
8
CUT
10
82.0902
20
114.8579
0
VERTEX
8
CUT
10
82.1237
20
115.0821
0
VERTEX
8
CUT
10
82.1367
20
115.3084
0
VERTEX
8
CUT
10
82.1423
20
115.7655
0
VERTEX
8
CUT
10
82.1335
20
116.0087
0
VERTEX
8
CUT
10
82.1010
20
116.2499
0
VERTEX
8
CUT
10
82.0453
20
116.4868
0
VERTEX
8
CUT
10
81.9667
20
116.7171
0
VERTEX
8
CUT
10
81.8662
20
116.9388
0
VERTEX
8
CUT
10
81.7446
20
117.1496
0
VERTEX
8
CUT
10
81.6030
20
117.3475
0
VERTEX
8
CUT
10
81.4429
20
117.5308
0
VERTEX
8
CUT
10
81.1591
20
117.8254
0
VERTEX
8
CUT
10
81.0223
20
117.9570
0
VERTEX
8
CUT
10
80.8759
20
118.0778
0
VERTEX
8
CUT
10
77.8059
20
120.4219
0
VERTEX
8
CUT
10
77.7682
20
120.4519
0
VERTEX
8
CUT
10
77.7318
20
120.4834
0
VERTEX
8
CUT
10
74.1725
20
123.6873
0
VERTEX
8
CUT
10
73.9543
20
123.8627
0
VERTEX
8
CUT
10
73.7179
20
124.0125
0
VERTEX
8
CUT
10
73.4662
20
124.1350
0
VERTEX
8
CUT
10
72.9144
20
124.3662
0
VERTEX
8
CUT
10
72.6733
20
124.4530
0
VERTEX
8
CUT
10
72.4246
20
124.5147
0
VERTEX
8
CUT
10
72.1709
20
124.5505
0
VERTEX
8
CUT
10
71.9148
20
124.5603
0
VERTEX
8
CUT
10
71.6591
20
124.5437
0
VERTEX
8
CUT
10
71.4064
20
124.5011
0
VERTEX
8
CUT
10
71.1594
20
124.4328
0
VERTEX
8
CUT
10
70.9515
20
124.3637
0
VERTEX
8
CUT
10
70.6822
20
124.2564
0
VERTEX
8
CUT
10
70.4270
20
124.1187
0
VERTEX
8
CUT
10
68.8546
20
123.1481
0
VERTEX
8
CUT
10
68.6683
20
123.0211
0
VERTEX
8
CUT
10
68.4941
20
122.8778
0
VERTEX
8
CUT
10
68.3335
20
122.7194
0
VERTEX
8
CUT
10
68.1879
20
122.5472
0
VERTEX
8
CUT
10
67.5255
20
121.6879
0
VERTEX
8
CUT
10
67.3882
20
121.4909
0
VERTEX
8
CUT
10
67.2704
20
121.2816
0
VERTEX
8
CUT
10
66.6879
20
120.1193
0
VERTEX
8
CUT
10
66.5755
20
119.8592
0
VERTEX
8
CUT
10
66.4933
20
119.5880
0
VERTEX
8
CUT
10
66.3584
20
119.0316
0
VERTEX
8
CUT
10
66.3059
20
118.7401
0
VERTEX
8
CUT
10
66.2881
20
118.4444
0
VERTEX
8
CUT
10
66.2863
20
115.4757
0
VERTEX
8
CUT
10
66.3002
20
115.2106
0
VERTEX
8
CUT
10
66.3421
20
114.9486
0
VERTEX
8
CUT
10
66.4116
20
114.6925
0
VERTEX
8
CUT
10
66.7916
20
113.5380
0
VERTEX
8
CUT
10
66.8560
20
113.3642
0
VERTEX
8
CUT
10
66.9332
20
113.1956
0
VERTEX
8
CUT
10
68.6131
20
109.8579
0
VERTEX
8
CUT
10
68.6217
20
109.8396
0
VERTEX
8
CUT
10
68.6370
20
109.7988
0
VERTEX
8
CUT
10
68.6431
20
109.7556
0
VERTEX
8
CUT
10
68.6443
20
109.7354
0
VERTEX
8
CUT
10
68.7008
20
107.9916
0
VERTEX
8
CUT
10
68.7009
20
107.9709
0
VERTEX
8
CUT
10
68.6974
20
107.9263
0
VERTEX
8
CUT
10
68.6890
20
107.8824
0
VERTEX
8
CUT
10
68.6834
20
107.8625
0
VERTEX
8
CUT
10
68.1436
20
106.1169
0
VERTEX
8
CUT
10
68.1235
20
106.0574
0
VERTEX
8
CUT
10
68.1003
20
105.9990
0
VERTEX
8
CUT
10
64.9330
20
98.6165
0
VERTEX
8
CUT
10
64.8587
20
98.4212
0
VERTEX
8
CUT
10
62.4223
20
91.1103
0
VERTEX
8
CUT
10
62.3739
20
90.9467
0
VERTEX
8
CUT
10
60.5122
20
83.7585
0
VERTEX
8
CUT
10
60.4636
20
83.5254
0
VERTEX
8
CUT
10
60.4373
20
83.2887
0
VERTEX
8
CUT
10
60.3971
20
82.6505
0
VERTEX
8
CUT
10
60.3956
20
82.6324
0
VERTEX
8
CUT
10
60.3832
20
82.5553
0
VERTEX
8
CUT
10
60.3790
20
82.5377
0
VERTEX
8
CUT
10
59.6873
20
79.8871
0
VERTEX
8
CUT
10
59.6334
20
79.6228
0
VERTEX
8
CUT
10
59.6083
20
79.3542
0
VERTEX
8
CUT
10
59.5775
20
78.5716
0
VERTEX
8
CUT
10
59.5764
20
78.5542
0
VERTEX
8
CUT
10
59.5665
20
78.4798
0
VERTEX
8
CUT
10
59.5630
20
78.4627
0
VERTEX
8
CUT
10
59.1024
20
76.4437
0
VERTEX
8
CUT
10
59.0500
20
76.1131
0
VERTEX
8
CUT
10
58.7438
20
72.7310
0
VERTEX
8
CUT
10
58.7416
20
72.7123
0
VERTEX
8
CUT
10
58.7339
20
72.6723
0
VERTEX
8
CUT
10
58.7222
20
72.6334
0
VERTEX
8
CUT
10
58.7154
20
72.6157
0
VERTEX
8
CUT
10
58.6991
20
72.5764
0
VERTEX
8
CUT
10
58.6231
20
72.3667
0
VERTEX
8
CUT
10
58.5661
20
72.1511
0
VERTEX
8
CUT
10
58.5286
20
71.9313
0
VERTEX
8
CUT
10
58.5108
20
71.7090
0
VERTEX
8
CUT
10
58.2699
20
64.8971
0
VERTEX
8
CUT
10
58.2736
20
64.6465
0
VERTEX
8
CUT
10
58.3023
20
64.3976
0
VERTEX
8
CUT
10
58.3559
20
64.1528
0
VERTEX
8
CUT
10
58.4336
20
63.9146
0
SEQEND
0
POLYLINE
8
CUT
66
1
70
1
10
0.0
20
0.0
30
0.0
0
VERTEX
8
CUT
10
47.4906
20
234.3587
0
VERTEX
8
CUT
10
47.5285
20
234.1023
0
VERTEX
8
CUT
10
47.5927
20
233.8512
0
VERTEX
8
CUT
10
47.6825
20
233.6080
0
VERTEX
8
CUT
10
48.0882
20
232.6641
0
VERTEX
8
CUT
10
48.1901
20
232.4543
0
VERTEX
8
CUT
10
48.3112
20
232.2549
0
VERTEX
8
CUT
10
48.4504
20
232.0677
0
VERTEX
8
CUT
10
48.6064
20
231.8943
0
VERTEX
8
CUT
10
48.7539
20
231.7450
0
VERTEX
8
CUT
10
48.9306
20
231.5825
0
VERTEX
8
CUT
10
49.1221
20
231.4377
0
VERTEX
8
CUT
10
49.3266
20
231.3119
0
VERTEX
8
CUT
10
49.5422
20
231.2063
0
VERTEX
8
CUT
10
50.6001
20
230.7499
0
VERTEX
8
CUT
10
50.8384
20
230.6612
0
VERTEX
8
CUT
10
51.0845
20
230.5971
0
VERTEX
8
CUT
10
51.3358
20
230.5584
0
VERTEX
8
CUT
10
51.5897
20
230.5454
0
VERTEX
8
CUT
10
52.0134
20
230.5453
0
VERTEX
8
CUT
10
52.2508
20
230.5565
0
VERTEX
8
CUT
10
52.4861
20
230.5902
0
VERTEX
8
CUT
10
52.7171
20
230.6461
0
VERTEX
8
CUT
10
52.9417
20
230.7237
0
VERTEX
8
CUT
10
53.3983
20
230.9062
0
VERTEX
8
CUT
10
53.6284
20
231.0119
0
VERTEX
8
CUT
10
53.8466
20
231.1403
0
VERTEX
8
CUT
10
54.0507
20
231.2902
0
VERTEX
8
CUT
10
54.2385
20
231.4599
0
VERTEX
8
CUT
10
54.7225
20
231.9439
0
VERTEX
8
CUT
10
54.9077
20
232.1509
0
VERTEX
8
CUT
10
55.0687
20
232.3771
0
VERTEX
8
CUT
10
55.2037
20
232.6198
0
VERTEX
8
CUT
10
55.3194
20
232.8582
0
VERTEX
8
CUT
10
55.4093
20
233.0669
0
VERTEX
8
CUT
10
55.4798
20
233.2830
0
VERTEX
8
CUT
10
55.5305
20
233.5046
0
VERTEX
8
CUT
10
55.5608
20
233.7298
0
VERTEX
8
CUT
10
55.5705
20
233.9569
0
VERTEX
8
CUT
10
55.5664
20
235.4259
0
VERTEX
8
CUT
10
55.5534
20
235.6744
0
VERTEX
8
CUT
10
55.5157
20
235.9204
0
VERTEX
8
CUT
10
55.4537
20
236.1614
0
VERTEX
8
CUT
10
55.3681
20
236.3950
0
VERTEX
8
CUT
10
55.2597
20
236.6190
0
VERTEX
8
CUT
10
55.1295
20
236.8311
0
VERTEX
8
CUT
10
54.9789
20
237.0292
0
VERTEX
8
CUT
10
54.8094
20
237.2113
0
VERTEX
8
CUT
10
53.9921
20
238.0062
0
VERTEX
8
CUT
10
53.8249
20
238.1548
0
VERTEX
8
CUT
10
53.6451
20
238.2879
0
VERTEX
8
CUT
10
53.4541
20
238.4044
0
VERTEX
8
CUT
10
53.2535
20
238.5033
0
VERTEX
8
CUT
10
53.0449
20
238.5840
0
VERTEX
8
CUT
10
52.5167
20
238.7613
0
VERTEX
8
CUT
10
52.2658
20
238.8312
0
VERTEX
8
CUT
10
52.0090
20
238.8747
0
VERTEX
8
CUT
10
51.7490
20
238.8912
0
VERTEX
8
CUT
10
51.4888
20
238.8805
0
VERTEX
8
CUT
10
51.2311
20
238.8429
0
VERTEX
8
CUT
10
50.9786
20
238.7786
0
VERTEX
8
CUT
10
50.7343
20
238.6884
0
VERTEX
8
CUT
10
49.8402
20
238.3044
0
VERTEX
8
CUT
10
49.6349
20
238.2049
0
VERTEX
8
CUT
10
49.4395
20
238.0871
0
VERTEX
8
CUT
10
49.2557
20
237.9520
0
VERTEX
8
CUT
10
49.0850
20
237.8007
0
VERTEX
8
CUT
10
48.7112
20
237.4377
0
VERTEX
8
CUT
10
48.5506
20
237.2663
0
VERTEX
8
CUT
10
48.4068
20
237.0805
0
VERTEX
8
CUT
10
48.2810
20
236.8821
0
VERTEX
8
CUT
10
48.1744
20
236.6728
0
VERTEX
8
CUT
10
47.7008
20
235.6236
0
VERTEX
8
CUT
10
47.6065
20
235.3821
0
VERTEX
8
CUT
10
47.5378
20
235.1322
0
VERTEX
8
CUT
10
47.4953
20
234.8765
0
VERTEX
8
CUT
10
47.4795
20
234.6177
0
SEQEND
0
POLYLINE
8
CUT
66
1
70
1
10
0.0
20
0.0
30
0.0
0
VERTEX
8
CUT
10
34.6874
20
35.6185
0
VERTEX
8
CUT
10
34.8800
20
35.4738
0
VERTEX
8
CUT
10
35.0858
20
35.3484
0
VERTEX
8
CUT
10
35.3026
20
35.2434
0
VERTEX
8
CUT
10
35.5285
20
35.1597
0
VERTEX
8
CUT
10
35.7615
20
35.0982
0
VERTEX
8
CUT
10
35.9993
20
35.0594
0
VERTEX
8
CUT
10
36.2397
20
35.0437
0
VERTEX
8
CUT
10
36.4805
20
35.0511
0
VERTEX
8
CUT
10
36.7195
20
35.0817
0
VERTEX
8
CUT
10
36.9544
20
35.1352
0
VERTEX
8
CUT
10
37.1831
20
35.2111
0
VERTEX
8
CUT
10
37.4907
20
35.3298
0
VERTEX
8
CUT
10
37.7241
20
35.4339
0
VERTEX
8
CUT
10
37.9456
20
35.5613
0
VERTEX
8
CUT
10
38.1530
20
35.7106
0
VERTEX
8
CUT
10
38.3440
20
35.8804
0
VERTEX
8
CUT
10
38.5168
20
36.0687
0
VERTEX
8
CUT
10
38.6694
20
36.2737
0
VERTEX
8
CUT
10
38.8002
20
36.4931
0
VERTEX
8
CUT
10
38.9080
20
36.7248
0
VERTEX
8
CUT
10
38.9916
20
36.9663
0
VERTEX
8
CUT
10
39.0500
20
37.2151
0
VERTEX
8
CUT
10
39.1063
20
37.5244
0
VERTEX
8
CUT
10
39.1394
20
37.7831
0
VERTEX
8
CUT
10
39.1455
20
38.0438
0
VERTEX
8
CUT
10
39.1243
20
38.3038
0
VERTEX
8
CUT
10
39.0762
20
38.5601
0
VERTEX
8
CUT
10
39.0017
20
38.8100
0
VERTEX
8
CUT
10
38.9015
20
39.0508
0
VERTEX
8
CUT
10
38.8296
20
39.2009
0
VERTEX
8
CUT
10
38.7183
20
39.4078
0
VERTEX
8
CUT
10
38.5881
20
39.6034
0
VERTEX
8
CUT
10
38.4402
20
39.7858
0
VERTEX
8
CUT
10
38.4059
20
39.8242
0
VERTEX
8
CUT
10
38.2265
20
40.0057
0
VERTEX
8
CUT
10
38.0294
20
40.1680
0
VERTEX
8
CUT
10
37.7445
20
40.3793
0
VERTEX
8
CUT
10
37.5354
20
40.5187
0
VERTEX
8
CUT
10
37.3133
20
40.6363
0
VERTEX
8
CUT
10
37.0805
20
40.7311
0
VERTEX
8
CUT
10
36.8394
20
40.8020
0
VERTEX
8
CUT
10
36.5924
20
40.8483
0
VERTEX
8
CUT
10
36.3420
20
40.8696
0
VERTEX
8
CUT
10
36.0907
20
40.8657
0
VERTEX
8
CUT
10
35.8411
20
40.8365
0
VERTEX
8
CUT
10
35.5957
20
40.7825
0
VERTEX
8
CUT
10
35.3569
20
40.7040
0
VERTEX
8
CUT
10
35.1272
20
40.6020
0
VERTEX
8
CUT
10
34.9089
20
40.4775
0
VERTEX
8
CUT
10
34.7043
20
40.3316
0
VERTEX
8
CUT
10
34.5153
20
40.1660
0
VERTEX
8
CUT
10
34.1412
20
39.8033
0
VERTEX
8
CUT
10
33.9746
20
39.6252
0
VERTEX
8
CUT
10
33.8262
20
39.4318
0
VERTEX
8
CUT
10
33.6973
20
39.2248
0
VERTEX
8
CUT
10
33.5892
20
39.0063
0
VERTEX
8
CUT
10
33.5029
20
38.7782
0
VERTEX
8
CUT
10
33.4392
20
38.5429
0
VERTEX
8
CUT
10
33.3988
20
38.3024
0
VERTEX
8
CUT
10
33.3820
20
38.0592
0
VERTEX
8
CUT
10
33.3889
20
37.8155
0
VERTEX
8
CUT
10
33.4195
20
37.5736
0
VERTEX
8
CUT
10
33.4736
20
37.3358
0
VERTEX
8
CUT
10
33.5506
20
37.1045
0
VERTEX
8
CUT
10
33.6497
20
36.8817
0
VERTEX
8
CUT
10
33.7127
20
36.7569
0
VERTEX
8
CUT
10
33.8430
20
36.5293
0
VERTEX
8
CUT
10
33.9964
20
36.3167
0
VERTEX
8
CUT
10
34.1713
20
36.1213
0
VERTEX
8
CUT
10
34.5095
20
35.7810
0
SEQEND
0
ENDSEC
0
EOF
