0
SECTION
2
HEADER
9
$ACADVER
1
AC1009
9
$INSUNITS
70
4
0
ENDSEC
0
SECTION
2
TABLES
0
TABLE
2
LAYER
70
1
0
LAYER
2
CUT
70
0
62
7
6
CONTINUOUS
0
ENDTAB
0
ENDSEC
0
SECTION
2
ENTITIES
0
POLYLINE
8
CUT
66
1
70
1
10
0.0
20
0.0
30
0.0
0
VERTEX
8
CUT
10
0.0000
20
299.9386
0
VERTEX
8
CUT
10
0.0029
20
299.9971
0
VERTEX
8
CUT
10
0.0614
20
300.0000
0
VERTEX
8
CUT
10
299.9021
20
300.0000
0
VERTEX
8
CUT
10
299.9606
20
299.9971
0
VERTEX
8
CUT
10
299.9634
20
299.9386
0
VERTEX
8
CUT
10
299.9634
20
0.0614
0
VERTEX
8
CUT
10
299.9606
20
0.0029
0
VERTEX
8
CUT
10
299.9021
20
-0.0000
0
VERTEX
8
CUT
10
0.0614
20
-0.0000
0
VERTEX
8
CUT
10
0.0029
20
0.0029
0
VERTEX
8
CUT
10
0.0000
20
0.0614
0
SEQEND
0
POLYLINE
8
CUT
66
1
70
1
10
0.0
20
0.0
30
0.0
0
VERTEX
8
CUT
10
218.7950
20
112.5397
0
VERTEX
8
CUT
10
218.7410
20
112.5005
0
VERTEX
8
CUT
10
216.6792
20
111.0868
0
VERTEX
8
CUT
10
216.4796
20
110.9346
0
VERTEX
8
CUT
10
216.2962
20
110.7632
0
VERTEX
8
CUT
10
216.1309
20
110.5742
0
VERTEX
8
CUT
10
215.9854
20
110.3696
0
VERTEX
8
CUT
10
215.8517
20
110.1600
0
VERTEX
8
CUT
10
215.7537
20
109.9925
0
VERTEX
8
CUT
10
215.6691
20
109.8179
0
VERTEX
8
CUT
10
215.6424
20
109.7569
0
VERTEX
8
CUT
10
215.5545
20
109.5256
0
VERTEX
8
CUT
10
215.4899
20
109.2867
0
VERTEX
8
CUT
10
215.4492
20
109.0426
0
VERTEX
8
CUT
10
215.4329
20
108.7957
0
VERTEX
8
CUT
10
215.4152
20
107.7305
0
VERTEX
8
CUT
10
215.4162
20
107.6081
0
VERTEX
8
CUT
10
215.4340
20
107.0590
0
VERTEX
8
CUT
10
215.4526
20
106.8255
0
VERTEX
8
CUT
10
215.4929
20
106.5947
0
VERTEX
8
CUT
10
215.5547
20
106.3687
0
VERTEX
8
CUT
10
215.6970
20
105.9300
0
VERTEX
8
CUT
10
215.7666
20
105.7416
0
VERTEX
8
CUT
10
215.8511
20
105.5594
0
VERTEX
8
CUT
10
216.8163
20
103.6800
0
VERTEX
8
CUT
10
216.9242
20
103.4907
0
VERTEX
8
CUT
10
217.0481
20
103.3115
0
VERTEX
8
CUT
10
217.1872
20
103.1438
0
VERTEX
8
CUT
10
221.0225
20
98.9093
0
VERTEX
8
CUT
10
221.0651
20
98.8597
0
VERTEX
8
CUT
10
221.1049
20
98.8079
0
VERTEX
8
CUT
10
222.6345
20
96.7061
0
VERTEX
8
CUT
10
222.6441
20
96.6924
0
VERTEX
8
CUT
10
222.6800
20
96.6332
0
VERTEX
8
CUT
10
222.6877
20
96.6184
0
VERTEX
8
CUT
10
223.2251
20
95.5366
0
VERTEX
8
CUT
10
223.2329
20
95.5201
0
VERTEX
8
CUT
10
223.2601
20
95.4497
0
VERTEX
8
CUT
10
223.2655
20
95.4323
0
VERTEX
8
CUT
10
223.4679
20
94.7223
0
VERTEX
8
CUT
10
223.5456
20
94.4925
0
VERTEX
8
CUT
10
223.6452
20
94.2713
0
VERTEX
8
CUT
10
223.7658
20
94.0609
0
VERTEX
8
CUT
10
223.9062
20
93.8631
0
VERTEX
8
CUT
10
224.0652
20
93.6798
0
VERTEX
8
CUT
10
224.2411
20
93.5128
0
VERTEX
8
CUT
10
224.4324
20
93.3637
0
VERTEX
8
CUT
10
224.6373
20
93.2338
0
VERTEX
8
CUT
10
224.8538
20
93.1243
0
VERTEX
8
CUT
10
225.0799
20
93.0364
0
VERTEX
8
CUT
10
225.3134
20
92.9708
0
VERTEX
8
CUT
10
225.5522
20
92.9281
0
VERTEX
8
CUT
10
225.7940
20
92.9087
0
VERTEX
8
CUT
10
226.0365
20
92.9129
0
VERTEX
8
CUT
10
226.2775
20
92.9406
0
VERTEX
8
CUT
10
226.5147
20
92.9915
0
VERTEX
8
CUT
10
226.7458
20
93.0652
0
VERTEX
8
CUT
10
226.9687
20
93.1609
0
VERTEX
8
CUT
10
227.1813
20
93.2777
0
VERTEX
8
CUT
10
227.3815
20
93.4146
0
VERTEX
8
CUT
10
227.5676
20
93.5703
0
VERTEX
8
CUT
10
227.7377
20
93.7432
0
VERTEX
8
CUT
10
227.8902
20
93.9319
0
VERTEX
8
CUT
10
228.0237
20
94.1344
0
VERTEX
8
CUT
10
228.1369
20
94.3489
0
VERTEX
8
CUT
10
228.2289
20
94.5734
0
VERTEX
8
CUT
10
228.2986
20
94.8057
0
VERTEX
8
CUT
10
228.3697
20
95.0923
0
VERTEX
8
CUT
10
228.4191
20
95.3480
0
VERTEX
8
CUT
10
228.4417
20
95.6075
0
VERTEX
8
CUT
10
228.4810
20
96.7424
0
VERTEX
8
CUT
10
228.4825
20
96.7662
0
VERTEX
8
CUT
10
228.4978
20
96.8640
0
VERTEX
8
CUT
10
228.5036
20
96.8871
0
VERTEX
8
CUT
10
229.0802
20
98.9267
0
VERTEX
8
CUT
10
229.1021
20
98.9963
0
VERTEX
8
CUT
10
229.1281
20
99.0644
0
VERTEX
8
CUT
10
230.5526
20
102.4836
0
VERTEX
8
CUT
10
230.5864
20
102.5577
0
VERTEX
8
CUT
10
230.6250
20
102.6294
0
VERTEX
8
CUT
10
232.7745
20
106.3155
0
VERTEX
8
CUT
10
232.8500
20
106.4550
0
VERTEX
8
CUT
10
234.4273
20
109.6031
0
VERTEX
8
CUT
10
234.5307
20
109.8390
0
VERTEX
8
CUT
10
234.6092
20
110.0844
0
VERTEX
8
CUT
10
235.0819
20
111.8733
0
VERTEX
8
CUT
10
235.1285
20
112.0875
0
VERTEX
8
CUT
10
235.1562
20
112.3049
0
VERTEX
8
CUT
10
235.1648
20
112.5239
0
VERTEX
8
CUT
10
235.1537
20
114.8452
0
VERTEX
8
CUT
10
235.1348
20
115.1409
0
VERTEX
8
CUT
10
235.0809
20
115.4324
0
VERTEX
8
CUT
10
234.6314
20
117.2533
0
VERTEX
8
CUT
10
234.5615
20
117.4868
0
VERTEX
8
CUT
10
234.4692
20
117.7125
0
VERTEX
8
CUT
10
234.3554
20
117.9280
0
VERTEX
8
CUT
10
233.4633
20
119.4345
0
VERTEX
8
CUT
10
233.3518
20
119.6064
0
VERTEX
8
CUT
10
233.2266
20
119.7686
0
VERTEX
8
CUT
10
233.0885
20
119.9199
0
VERTEX
8
CUT
10
232.2909
20
120.7252
0
VERTEX
8
CUT
10
232.0645
20
120.9276
0
VERTEX
8
CUT
10
231.8153
20
121.1011
0
VERTEX
8
CUT
10
231.4963
20
121.2954
0
VERTEX
8
CUT
10
231.2387
20
121.4323
0
VERTEX
8
CUT
10
230.5478
20
121.7495
0
VERTEX
8
CUT
10
230.2946
20
121.8495
0
VERTEX
8
CUT
10
230.0321
20
121.9213
0
VERTEX
8
CUT
10
229.7633
20
121.9641
0
VERTEX
8
CUT
10
229.4915
20
121.9775
0
VERTEX
8
CUT
10
229.4095
20
121.9771
0
VERTEX
8
CUT
10
229.1502
20
121.9622
0
VERTEX
8
CUT
10
228.8938
20
121.9205
0
VERTEX
8
CUT
10
228.6431
20
121.8524
0
VERTEX
8
CUT
10
228.4009
20
121.7587
0
VERTEX
8
CUT
10
228.1696
20
121.6404
0
VERTEX
8
CUT
10
227.9519
20
121.4987
0
VERTEX
8
CUT
10
227.7501
20
121.3351
0
VERTEX
8
CUT
10
227.5664
20
121.1515
0
VERTEX
8
CUT
10
223.3093
20
116.4319
0
VERTEX
8
CUT
10
223.2556
20
116.3760
0
VERTEX
8
CUT
10
223.1985
20
116.3236
0
VERTEX
8
CUT
10
218.8469
20
112.5819
0
SEQEND
0
POLYLINE
8
CUT
66
1
70
1
10
0.0
20
0.0
30
0.0
0
VERTEX
8
CUT
10
211.6454
20
84.1993
0
VERTEX
8
CUT
10
211.5495
20
83.9923
0
VERTEX
8
CUT
10
211.4728
20
83.7774
0
VERTEX
8
CUT
10
211.4161
20
83.5564
0
VERTEX
8
CUT
10
211.3797
20
83.3311
0
VERTEX
8
CUT
10
211.3641
20
83.1035
0
VERTEX
8
CUT
10
211.3507
20
82.5251
0
VERTEX
8
CUT
10
211.3575
20
82.2746
0
VERTEX
8
CUT
10
211.3893
20
82.0260
0
VERTEX
8
CUT
10
211.4459
20
81.7818
0
VERTEX
8
CUT
10
211.8780
20
80.2664
0
VERTEX
8
CUT
10
211.9707
20
79.9994
0
VERTEX
8
CUT
10
212.0930
20
79.7446
0
VERTEX
8
CUT
10
213.6171
20
76.9809
0
VERTEX
8
CUT
10
213.7309
20
76.7944
0
VERTEX
8
CUT
10
213.8604
20
76.6186
0
VERTEX
8
CUT
10
216.2090
20
73.7069
0
VERTEX
8
CUT
10
216.3436
20
73.5533
0
VERTEX
8
CUT
10
216.4903
20
73.4112
0
VERTEX
8
CUT
10
219.3467
20
70.8622
0
VERTEX
8
CUT
10
219.6059
20
70.6599
0
VERTEX
8
CUT
10
224.6927
20
67.2022
0
VERTEX
8
CUT
10
224.9034
20
67.0737
0
VERTEX
8
CUT
10
225.1257
20
66.9667
0
VERTEX
8
CUT
10
225.3575
20
66.8820
0
VERTEX
8
CUT
10
225.5964
20
66.8206
0
VERTEX
8
CUT
10
225.8403
20
66.7831
0
VERTEX
8
CUT
10
226.0867
20
66.7698
0
VERTEX
8
CUT
10
226.3332
20
66.7809
0
VERTEX
8
CUT
10
226.5775
20
66.8162
0
VERTEX
8
CUT
10
226.8170
20
66.8754
0
VERTEX
8
CUT
10
227.0495
20
66.9579
0
VERTEX
8
CUT
10
227.2728
20
67.0630
0
VERTEX
8
CUT
10
227.4846
20
67.1895
0
VERTEX
8
CUT
10
227.6830
20
67.3364
0
VERTEX
8
CUT
10
227.8658
20
67.5020
0
VERTEX
8
CUT
10
228.4724
20
68.1086
0
VERTEX
8
CUT
10
228.6631
20
68.3225
0
VERTEX
8
CUT
10
228.8280
20
68.5567
0
VERTEX
8
CUT
10
229.4965
20
69.6323
0
VERTEX
8
CUT
10
229.5945
20
69.8051
0
VERTEX
8
CUT
10
229.6786
20
69.9850
0
VERTEX
8
CUT
10
230.2991
20
71.4645
0
VERTEX
8
CUT
10
230.3754
20
71.6715
0
VERTEX
8
CUT
10
230.4331
20
71.8844
0
VERTEX
8
CUT
10
230.4718
20
72.1016
0
VERTEX
8
CUT
10
230.4913
20
72.3213
0
VERTEX
8
CUT
10
230.5224
20
73.0271
0
VERTEX
8
CUT
10
230.5237
20
73.0468
0
VERTEX
8
CUT
10
230.5295
20
73.0871
0
VERTEX
8
CUT
10
230.5393
20
73.1265
0
VERTEX
8
CUT
10
230.5455
20
73.1453
0
VERTEX
8
CUT
10
230.6332
20
73.3916
0
VERTEX
8
CUT
10
230.7117
20
73.6582
0
VERTEX
8
CUT
10
230.7602
20
73.9319
0
VERTEX
8
CUT
10
230.7780
20
74.2092
0
VERTEX
8
CUT
10
230.7896
20
75.5746
0
VERTEX
8
CUT
10
230.7842
20
75.7602
0
VERTEX
8
CUT
10
230.7652
20
75.9449
0
VERTEX
8
CUT
10
230.2070
20
79.9030
0
VERTEX
8
CUT
10
230.1405
20
80.2221
0
VERTEX
8
CUT
10
229.0943
20
83.9939
0
VERTEX
8
CUT
10
229.0893
20
84.0139
0
VERTEX
8
CUT
10
229.0752
20
84.0978
0
VERTEX
8
CUT
10
229.0733
20
84.1183
0
VERTEX
8
CUT
10
229.0288
20
84.8172
0
VERTEX
8
CUT
10
229.0037
20
85.0455
0
VERTEX
8
CUT
10
228.9577
20
85.2705
0
VERTEX
8
CUT
10
228.2181
20
88.1989
0
VERTEX
8
CUT
10
228.2129
20
88.2225
0
VERTEX
8
CUT
10
228.2003
20
88.3217
0
VERTEX
8
CUT
10
228.1995
20
88.3459
0
VERTEX
8
CUT
10
228.1975
20
88.8522
0
VERTEX
8
CUT
10
228.1844
20
89.0987
0
VERTEX
8
CUT
10
228.1470
20
89.3426
0
VERTEX
8
CUT
10
228.0858
20
89.5817
0
VERTEX
8
CUT
10
228.0012
20
89.8136
0
VERTEX
8
CUT
10
227.8943
20
90.0360
0
VERTEX
8
CUT
10
227.7659
20
90.2468
0
VERTEX
8
CUT
10
227.6173
20
90.4439
0
VERTEX
8
CUT
10
227.4501
20
90.6253
0
VERTEX
8
CUT
10
227.2658
20
90.7895
0
VERTEX
8
CUT
10
227.0661
20
90.9346
0
VERTEX
8
CUT
10
226.8532
20
91.0593
0
VERTEX
8
CUT
10
226.6290
20
91.1625
0
VERTEX
8
CUT
10
226.3957
20
91.2430
0
VERTEX
8
CUT
10
226.1556
20
91.3002
0
VERTEX
8
CUT
10
225.9110
20
91.3333
0
VERTEX
8
CUT
10
225.6644
20
91.3423
0
VERTEX
8
CUT
10
225.4181
20
91.3268
0
VERTEX
8
CUT
10
225.1745
20
91.2872
0
VERTEX
8
CUT
10
224.9360
20
91.2237
0
VERTEX
8
CUT
10
224.7049
20
91.1370
0
VERTEX
8
CUT
10
224.4835
20
91.0279
0
VERTEX
8
CUT
10
224.2740
20
90.8976
0
VERTEX
8
CUT
10
224.0783
20
90.7472
0
VERTEX
8
CUT
10
223.8984
20
90.5783
0
VERTEX
8
CUT
10
223.7360
20
90.3924
0
VERTEX
8
CUT
10
223.5927
20
90.1914
0
VERTEX
8
CUT
10
223.4700
20
89.9773
0
VERTEX
8
CUT
10
222.9440
20
88.9450
0
VERTEX
8
CUT
10
222.9346
20
88.9276
0
VERTEX
8
CUT
10
222.9127
20
88.8934
0
VERTEX
8
CUT
10
222.8874
20
88.8615
0
VERTEX
8
CUT
10
222.8740
20
88.8470
0
VERTEX
8
CUT
10
221.8133
20
87.7517
0
VERTEX
8
CUT
10
221.8009
20
87.7395
0
VERTEX
8
CUT
10
221.7735
20
87.7158
0
VERTEX
8
CUT
10
221.7441
20
87.6945
0
VERTEX
8
CUT
10
221.7297
20
87.6855
0
VERTEX
8
CUT
10
221.0620
20
87.2877
0
VERTEX
8
CUT
10
221.0468
20
87.2791
0
VERTEX
8
CUT
10
220.9819
20
87.2478
0
VERTEX
8
CUT
10
220.9658
20
87.2413
0
VERTEX
8
CUT
10
219.4417
20
86.6637
0
VERTEX
8
CUT
10
219.4256
20
86.6580
0
VERTEX
8
CUT
10
219.3917
20
86.6484
0
VERTEX
8
CUT
10
219.3569
20
86.6448
0
VERTEX
8
CUT
10
219.3397
20
86.6441
0
VERTEX
8
CUT
10
215.3374
20
86.5725
0
VERTEX
8
CUT
10
215.0900
20
86.5557
0
VERTEX
8
CUT
10
214.8456
20
86.5146
0
VERTEX
8
CUT
10
214.6064
20
86.4495
0
VERTEX
8
CUT
10
213.6725
20
86.1447
0
VERTEX
8
CUT
10
213.4543
20
86.0620
0
VERTEX
8
CUT
10
213.2448
20
85.9594
0
VERTEX
8
CUT
10
213.0458
20
85.8376
0
VERTEX
8
CUT
10
212.8589
20
85.6978
0
VERTEX
8
CUT
10
212.6859
20
85.5413
0
VERTEX
8
CUT
10
212.2529
20
85.1109
0
VERTEX
8
CUT
10
212.0800
20
84.9204
0
VERTEX
8
CUT
10
211.9276
20
84.7131
0
VERTEX
8
CUT
10
211.7973
20
84.4913
0
SEQEND
0
POLYLINE
8
CUT
66
1
70
1
10
0.0
20
0.0
30
0.0
0
VERTEX
8
CUT
10
168.8161
20
155.2023
0
VERTEX
8
CUT
10
168.8447
20
155.1314
0
VERTEX
8
CUT
10
168.8504
20
155.1139
0
VERTEX
8
CUT
10
169.4687
20
153.0430
0
VERTEX
8
CUT
10
169.5794
20
152.7437
0
VERTEX
8
CUT
10
170.6044
20
150.4353
0
VERTEX
8
CUT
10
170.7750
20
150.1158
0
VERTEX
8
CUT
10
173.5376
20
145.7378
0
VERTEX
8
CUT
10
173.6656
20
145.5537
0
VERTEX
8
CUT
10
173.8095
20
145.3819
0
VERTEX
8
CUT
10
173.9683
20
145.2237
0
VERTEX
8
CUT
10
177.2796
20
142.2075
0
VERTEX
8
CUT
10
177.5167
20
142.0167
0
VERTEX
8
CUT
10
180.2081
20
140.1075
0
VERTEX
8
CUT
10
180.3688
20
140.0025
0
VERTEX
8
CUT
10
180.5370
20
139.9102
0
VERTEX
8
CUT
10
183.0936
20
138.6326
0
VERTEX
8
CUT
10
183.2826
20
138.5478
0
VERTEX
8
CUT
10
183.4780
20
138.4789
0
VERTEX
8
CUT
10
186.9636
20
137.4096
0
VERTEX
8
CUT
10
187.2864
20
137.3336
0
VERTEX
8
CUT
10
188.7032
20
137.0979
0
VERTEX
8
CUT
10
188.9176
20
137.0717
0
VERTEX
8
CUT
10
189.1334
20
137.0640
0
VERTEX
8
CUT
10
193.9671
20
137.1024
0
VERTEX
8
CUT
10
194.2360
20
137.1191
0
VERTEX
8
CUT
10
194.5016
20
137.1645
0
VERTEX
8
CUT
10
194.7607
20
137.2383
0
VERTEX
8
CUT
10
195.0104
20
137.3396
0
VERTEX
8
CUT
10
199.1947
20
139.3054
0
VERTEX
8
CUT
10
199.4088
20
139.4190
0
VERTEX
8
CUT
10
199.6109
20
139.5528
0
VERTEX
8
CUT
10
202.5953
20
141.7432
0
VERTEX
8
CUT
10
202.7470
20
141.8639
0
VERTEX
8
CUT
10
202.8890
20
141.9960
0
VERTEX
8
CUT
10
203.1031
20
142.2114
0
VERTEX
8
CUT
10
203.2670
20
142.3932
0
VERTEX
8
CUT
10
203.4123
20
142.5902
0
VERTEX
8
CUT
10
203.5376
20
142.8005
0
VERTEX
8
CUT
10
203.6418
20
143.0220
0
VERTEX
8
CUT
10
203.7239
20
143.2527
0
VERTEX
8
CUT
10
203.7829
20
143.4903
0
VERTEX
8
CUT
10
203.8185
20
143.7325
0
VERTEX
8
CUT
10
203.8302
20
143.9770
0
VERTEX
8
CUT
10
203.8179
20
144.2215
0
VERTEX
8
CUT
10
203.7818
20
144.4636
0
VERTEX
8
CUT
10
203.7221
20
144.7011
0
VERTEX
8
CUT
10
203.6395
20
144.9315
0
VERTEX
8
CUT
10
203.5348
20
145.1528
0
VERTEX
8
CUT
10
203.4090
20
145.3628
0
VERTEX
8
CUT
10
203.2632
20
145.5594
0
VERTEX
8
CUT
10
203.0988
20
145.7409
0
VERTEX
8
CUT
10
202.9176
20
145.9054
0
VERTEX
8
CUT
10
202.7728
20
146.0129
0
VERTEX
8
CUT
10
202.7169
20
146.0588
0
VERTEX
8
CUT
10
202.7030
20
146.0720
0
VERTEX
8
CUT
10
202.4981
20
146.2770
0
VERTEX
8
CUT
10
202.4853
20
146.2904
0
VERTEX
8
CUT
10
202.4612
20
146.3196
0
VERTEX
8
CUT
10
202.4602
20
146.3574
0
VERTEX
8
CUT
10
202.4610
20
146.3759
0
VERTEX
8
CUT
10
202.4981
20
146.9292
0
VERTEX
8
CUT
10
202.5001
20
146.9503
0
VERTEX
8
CUT
10
202.5077
20
146.9933
0
VERTEX
8
CUT
10
202.5243
20
147.0338
0
VERTEX
8
CUT
10
202.5339
20
147.0527
0
VERTEX
8
CUT
10
204.2914
20
150.2940
0
VERTEX
8
CUT
10
204.4142
20
150.5556
0
VERTEX
8
CUT
10
204.5061
20
150.8297
0
VERTEX
8
CUT
10
205.2386
20
153.5243
0
VERTEX
8
CUT
10
205.2963
20
153.7948
0
VERTEX
8
CUT
10
205.3238
20
154.0701
0
VERTEX
8
CUT
10
205.3620
20
154.9385
0
VERTEX
8
CUT
10
205.3636
20
154.9598
0
VERTEX
8
CUT
10
205.3702
20
155.0034
0
VERTEX
8
CUT
10
205.3816
20
155.0460
0
VERTEX
8
CUT
10
205.3887
20
155.0662
0
VERTEX
8
CUT
10
205.4440
20
155.2096
0
VERTEX
8
CUT
10
205.5136
20
155.4169
0
VERTEX
8
CUT
10
205.5648
20
155.6295
0
VERTEX
8
CUT
10
205.5972
20
155.8457
0
VERTEX
8
CUT
10
205.6106
20
156.0640
0
VERTEX
8
CUT
10
205.6318
20
157.2612
0
VERTEX
8
CUT
10
205.6321
20
157.3310
0
VERTEX
8
CUT
10
205.6141
20
159.0936
0
VERTEX
8
CUT
10
205.5963
20
159.3673
0
VERTEX
8
CUT
10
205.5485
20
159.6374
0
VERTEX
8
CUT
10
205.4715
20
159.9007
0
VERTEX
8
CUT
10
205.3871
20
160.1396
0
VERTEX
8
CUT
10
205.3810
20
160.1584
0
VERTEX
8
CUT
10
205.3714
20
160.1978
0
VERTEX
8
CUT
10
205.3657
20
160.2380
0
VERTEX
8
CUT
10
205.3643
20
160.2577
0
VERTEX
8
CUT
10
205.3301
20
161.0741
0
VERTEX
8
CUT
10
205.3121
20
161.2870
0
VERTEX
8
CUT
10
205.2759
20
161.4975
0
VERTEX
8
CUT
10
205.2219
20
161.7042
0
VERTEX
8
CUT
10
204.1926
20
165.0523
0
VERTEX
8
CUT
10
204.1048
20
165.2930
0
VERTEX
8
CUT
10
203.9929
20
165.5234
0
VERTEX
8
CUT
10
202.4602
20
168.3072
0
VERTEX
8
CUT
10
202.3557
20
168.4801
0
VERTEX
8
CUT
10
202.2376
20
168.6440
0
VERTEX
8
CUT
10
201.3425
20
169.7856
0
VERTEX
8
CUT
10
201.1547
20
169.9989
0
VERTEX
8
CUT
10
199.5657
20
171.6093
0
VERTEX
8
CUT
10
199.3036
20
171.8402
0
VERTEX
8
CUT
10
196.9857
20
173.6104
0
VERTEX
8
CUT
10
196.7916
20
173.7446
0
VERTEX
8
CUT
10
196.5857
20
173.8599
0
VERTEX
8
CUT
10
194.6663
20
174.8189
0
VERTEX
8
CUT
10
194.4646
20
174.9088
0
VERTEX
8
CUT
10
194.2557
20
174.9806
0
VERTEX
8
CUT
10
191.8831
20
175.6799
0
VERTEX
8
CUT
10
191.6566
20
175.7353
0
VERTEX
8
CUT
10
191.4259
20
175.7694
0
VERTEX
8
CUT
10
191.1931
20
175.7818
0
VERTEX
8
CUT
10
186.5869
20
175.8128
0
VERTEX
8
CUT
10
186.3742
20
175.8051
0
VERTEX
8
CUT
10
186.1629
20
175.7794
0
VERTEX
8
CUT
10
184.7645
20
175.5486
0
VERTEX
8
CUT
10
184.5392
20
175.5006
0
VERTEX
8
CUT
10
184.3193
20
175.4321
0
VERTEX
8
CUT
10
184.1067
20
175.3437
0
VERTEX
8
CUT
10
179.7002
20
173.2688
0
VERTEX
8
CUT
10
179.4942
20
173.1598
0
VERTEX
8
CUT
10
179.2993
20
173.0321
0
VERTEX
8
CUT
10
177.5081
20
171.7355
0
VERTEX
8
CUT
10
177.2445
20
171.5156
0
VERTEX
8
CUT
10
176.3330
20
170.6423
0
VERTEX
8
CUT
10
176.1836
20
170.4863
0
VERTEX
8
CUT
10
176.0483
20
170.3179
0
VERTEX
8
CUT
10
173.8032
20
167.2641
0
VERTEX
8
CUT
10
173.6794
20
167.0789
0
VERTEX
8
CUT
10
173.5725
20
166.8833
0
VERTEX
8
CUT
10
173.4834
20
166.6790
0
VERTEX
8
CUT
10
172.2329
20
163.4199
0
VERTEX
8
CUT
10
172.1554
20
163.1836
0
VERTEX
8
CUT
10
172.1019
20
162.9407
0
VERTEX
8
CUT
10
171.4779
20
159.2476
0
VERTEX
8
CUT
10
171.4740
20
159.2277
0
VERTEX
8
CUT
10
171.4630
20
159.1879
0
VERTEX
8
CUT
10
171.4308
20
159.1619
0
VERTEX
8
CUT
10
171.4140
20
159.1505
0
VERTEX
8
CUT
10
171.0173
20
158.8938
0
VERTEX
8
CUT
10
171.0013
20
158.8840
0
VERTEX
8
CUT
10
170.9668
20
158.8662
0
VERTEX
8
CUT
10
170.8961
20
158.8595
0
VERTEX
8
CUT
10
170.7936
20
158.8549
0
VERTEX
8
CUT
10
170.5522
20
158.8200
0
VERTEX
8
CUT
10
170.3153
20
158.7619
0
VERTEX
8
CUT
10
170.0852
20
158.6809
0
VERTEX
8
CUT
10
169.8641
20
158.5778
0
VERTEX
8
CUT
10
169.6541
20
158.4537
0
VERTEX
8
CUT
10
169.4572
20
158.3098
0
VERTEX
8
CUT
10
169.2752
20
158.1473
0
VERTEX
8
CUT
10
169.1100
20
157.9678
0
VERTEX
8
CUT
10
168.9630
20
157.7732
0
VERTEX
8
CUT
10
168.8357
20
157.5651
0
VERTEX
8
CUT
10
168.7293
20
157.3456
0
VERTEX
8
CUT
10
168.6448
20
157.1167
0
VERTEX
8
CUT
10
168.5829
20
156.8808
0
VERTEX
8
CUT
10
168.5444
20
156.6399
0
VERTEX
8
CUT
10
168.5296
20
156.3964
0
VERTEX
8
CUT
10
168.5385
20
156.1527
0
VERTEX
8
CUT
10
168.5711
20
155.9109
0
VERTEX
8
CUT
10
168.6272
20
155.6735
0
VERTEX
8
CUT
10
168.7061
20
155.4427
0
VERTEX
8
CUT
10
168.8072
20
155.2207
0
VERTEX
8
CUT
10
168.8081
20
155.2189
0
SEQEND
0
POLYLINE
8
CUT
66
1
70
1
10
0.0
20
0.0
30
0.0
0
VERTEX
8
CUT
10
91.6257
20
155.2965
0
VERTEX
8
CUT
10
91.6350
20
155.2570
0
VERTEX
8
CUT
10
91.6403
20
155.2168
0
VERTEX
8
CUT
10
91.6414
20
155.1972
0
VERTEX
8
CUT
10
91.6768
20
154.0881
0
VERTEX
8
CUT
10
91.6991
20
153.8252
0
VERTEX
8
CUT
10
91.7491
20
153.5660
0
VERTEX
8
CUT
10
92.2412
20
151.5824
0
VERTEX
8
CUT
10
92.3470
20
151.2545
0
VERTEX
8
CUT
10
92.8025
20
150.1176
0
VERTEX
8
CUT
10
92.9451
20
149.8203
0
VERTEX
8
CUT
10
94.2251
20
147.5486
0
VERTEX
8
CUT
10
94.2340
20
147.5319
0
VERTEX
8
CUT
10
94.2497
20
147.4965
0
VERTEX
8
CUT
10
94.2472
20
147.4578
0
VERTEX
8
CUT
10
94.2447
20
147.4391
0
VERTEX
8
CUT
10
94.1269
20
146.7106
0
VERTEX
8
CUT
10
94.1234
20
146.6917
0
VERTEX
8
CUT
10
94.1134
20
146.6538
0
VERTEX
8
CUT
10
94.0794
20
146.6343
0
VERTEX
8
CUT
10
94.0710
20
146.6303
0
VERTEX
8
CUT
10
93.8538
20
146.5128
0
VERTEX
8
CUT
10
93.6494
20
146.3744
0
VERTEX
8
CUT
10
93.4595
20
146.2165
0
VERTEX
8
CUT
10
93.2862
20
146.0407
0
VERTEX
8
CUT
10
93.1311
20
145.8486
0
VERTEX
8
CUT
10
92.9956
20
145.6422
0
VERTEX
8
CUT
10
92.8812
20
145.4234
0
VERTEX
8
CUT
10
92.7889
20
145.1944
0
VERTEX
8
CUT
10
92.7197
20
144.9574
0
VERTEX
8
CUT
10
92.6742
20
144.7147
0
VERTEX
8
CUT
10
92.6528
20
144.4688
0
VERTEX
8
CUT
10
92.6558
20
144.2219
0
VERTEX
8
CUT
10
92.6831
20
143.9765
0
VERTEX
8
CUT
10
92.7345
20
143.7350
0
VERTEX
8
CUT
10
92.8095
20
143.4998
0
VERTEX
8
CUT
10
92.9073
20
143.2731
0
VERTEX
8
CUT
10
93.0270
20
143.0571
0
VERTEX
8
CUT
10
93.1675
20
142.8541
0
VERTEX
8
CUT
10
93.3272
20
142.6658
0
VERTEX
8
CUT
10
96.6476
20
139.1241
0
VERTEX
8
CUT
10
96.8487
20
138.9322
0
VERTEX
8
CUT
10
97.0698
20
138.7638
0
VERTEX
8
CUT
10
97.5198
20
138.4592
0
VERTEX
8
CUT
10
97.7128
20
138.3409
0
VERTEX
8
CUT
10
97.9158
20
138.2405
0
VERTEX
8
CUT
10
98.1269
20
138.1589
0
VERTEX
8
CUT
10
99.4886
20
137.7026
0
VERTEX
8
CUT
10
99.7586
20
137.6286
0
VERTEX
8
CUT
10
102.0516
20
137.1367
0
VERTEX
8
CUT
10
102.3083
20
137.0955
0
VERTEX
8
CUT
10
102.5678
20
137.0811
0
VERTEX
8
CUT
10
107.3179
20
137.0655
0
VERTEX
8
CUT
10
107.5708
20
137.0774
0
VERTEX
8
CUT
10
107.8211
20
137.1149
0
VERTEX
8
CUT
10
111.7234
20
137.9031
0
VERTEX
8
CUT
10
111.9379
20
137.9563
0
VERTEX
8
CUT
10
112.1468
20
138.0284
0
VERTEX
8
CUT
10
114.7855
20
139.0705
0
VERTEX
8
CUT
10
114.9975
20
139.1659
0
VERTEX
8
CUT
10
116.4969
20
139.9260
0
VERTEX
8
CUT
10
116.7632
20
140.0824
0
VERTEX
8
CUT
10
118.4157
20
141.1955
0
VERTEX
8
CUT
10
118.5887
20
141.3232
0
VERTEX
8
CUT
10
119.9199
20
142.3971
0
VERTEX
8
CUT
10
120.1213
20
142.5784
0
VERTEX
8
CUT
10
122.3416
20
144.8070
0
VERTEX
8
CUT
10
122.4793
20
144.9570
0
VERTEX
8
CUT
10
122.6043
20
145.1177
0
VERTEX
8
CUT
10
125.3117
20
148.9054
0
VERTEX
8
CUT
10
125.4184
20
149.0676
0
VERTEX
8
CUT
10
125.5121
20
149.2376
0
VERTEX
8
CUT
10
127.0936
20
152.3880
0
VERTEX
8
CUT
10
127.2306
20
152.7177
0
VERTEX
8
CUT
10
127.9989
20
155.0182
0
VERTEX
8
CUT
10
128.0656
20
155.2570
0
VERTEX
8
CUT
10
128.1084
20
155.5013
0
VERTEX
8
CUT
10
128.1268
20
155.7486
0
VERTEX
8
CUT
10
128.1206
20
155.9965
0
VERTEX
8
CUT
10
128.0899
20
156.2426
0
VERTEX
8
CUT
10
128.0349
20
156.4844
0
VERTEX
8
CUT
10
127.9563
20
156.7195
0
VERTEX
8
CUT
10
127.8547
20
156.9458
0
VERTEX
8
CUT
10
127.7313
20
157.1608
0
VERTEX
8
CUT
10
127.5871
20
157.3626
0
VERTEX
8
CUT
10
127.4236
20
157.5491
0
VERTEX
8
CUT
10
127.2425
20
157.7185
0
VERTEX
8
CUT
10
127.0455
20
157.8691
0
VERTEX
8
CUT
10
126.8346
20
157.9994
0
VERTEX
8
CUT
10
126.6117
20
158.1082
0
VERTEX
8
CUT
10
126.3792
20
158.1944
0
VERTEX
8
CUT
10
126.1393
20
158.2572
0
VERTEX
8
CUT
10
125.9891
20
158.2886
0
VERTEX
8
CUT
10
125.9704
20
158.2939
0
VERTEX
8
CUT
10
125.7474
20
158.3641
0
VERTEX
8
CUT
10
125.7287
20
158.3705
0
VERTEX
8
CUT
10
125.6915
20
158.3865
0
VERTEX
8
CUT
10
125.6701
20
158.4208
0
VERTEX
8
CUT
10
125.6610
20
158.4384
0
VERTEX
8
CUT
10
125.5458
20
158.6730
0
VERTEX
8
CUT
10
125.5370
20
158.6922
0
VERTEX
8
CUT
10
125.5221
20
158.7332
0
VERTEX
8
CUT
10
125.5163
20
158.7763
0
VERTEX
8
CUT
10
125.5151
20
158.7974
0
VERTEX
8
CUT
10
125.4498
20
161.1214
0
VERTEX
8
CUT
10
125.4284
20
161.3854
0
VERTEX
8
CUT
10
125.3791
20
161.6457
0
VERTEX
8
CUT
10
124.9072
20
163.5733
0
VERTEX
8
CUT
10
124.8545
20
163.7579
0
VERTEX
8
CUT
10
124.7877
20
163.9379
0
VERTEX
8
CUT
10
123.5077
20
167.0192
0
VERTEX
8
CUT
10
123.3832
20
167.2762
0
VERTEX
8
CUT
10
123.2303
20
167.5174
0
VERTEX
8
CUT
10
121.1815
20
170.3732
0
VERTEX
8
CUT
10
121.0436
20
170.5483
0
VERTEX
8
CUT
10
120.8907
20
170.7104
0
VERTEX
8
CUT
10
119.4775
20
172.0811
0
VERTEX
8
CUT
10
119.2113
20
172.3055
0
VERTEX
8
CUT
10
117.4221
20
173.6120
0
VERTEX
8
CUT
10
117.2510
20
173.7264
0
VERTEX
8
CUT
10
117.0711
20
173.8264
0
VERTEX
8
CUT
10
115.1010
20
174.8174
0
VERTEX
8
CUT
10
114.7720
20
174.9544
0
VERTEX
8
CUT
10
113.2209
20
175.4742
0
VERTEX
8
CUT
10
113.0221
20
175.5318
0
VERTEX
8
CUT
10
112.1333
20
175.7498
0
VERTEX
8
CUT
10
111.8988
20
175.7956
0
VERTEX
8
CUT
10
111.6609
20
175.8188
0
VERTEX
8
CUT
10
110.6977
20
175.8663
0
VERTEX
8
CUT
10
110.6797
20
175.8676
0
VERTEX
8
CUT
10
110.6427
20
175.8728
0
VERTEX
8
CUT
10
110.6061
20
175.8814
0
VERTEX
8
CUT
10
110.5894
20
175.8866
0
VERTEX
8
CUT
10
109.6334
20
176.2058
0
VERTEX
8
CUT
10
109.3869
20
176.2743
0
VERTEX
8
CUT
10
109.1347
20
176.3172
0
VERTEX
8
CUT
10
108.8794
20
176.3341
0
VERTEX
8
CUT
10
108.6237
20
176.3249
0
VERTEX
8
CUT
10
108.3703
20
176.2896
0
VERTEX
8
CUT
10
104.5325
20
175.5527
0
VERTEX
8
CUT
10
104.3170
20
175.5013
0
VERTEX
8
CUT
10
104.1069
20
175.4311
0
VERTEX
8
CUT
10
100.7798
20
174.1522
0
VERTEX
8
CUT
10
100.5568
20
174.0537
0
VERTEX
8
CUT
10
100.3444
20
173.9340
0
VERTEX
8
CUT
10
100.1447
20
173.7942
0
VERTEX
8
CUT
10
96.7324
20
171.1479
0
VERTEX
8
CUT
10
96.4862
20
170.9295
0
VERTEX
8
CUT
10
96.0971
20
170.5358
0
VERTEX
8
CUT
10
95.9200
20
170.3363
0
VERTEX
8
CUT
10
95.7651
20
170.1190
0
VERTEX
8
CUT
10
95.6343
20
169.8865
0
VERTEX
8
CUT
10
95.4045
20
169.4216
0
VERTEX
8
CUT
10
95.3959
20
169.4051
0
VERTEX
8
CUT
10
95.3555
20
169.3397
0
VERTEX
8
CUT
10
95.3446
20
169.3246
0
VERTEX
8
CUT
10
94.1646
20
167.7595
0
VERTEX
8
CUT
10
94.0366
20
167.5728
0
VERTEX
8
CUT
10
93.9260
20
167.3752
0
VERTEX
8
CUT
10
92.9648
20
165.4587
0
VERTEX
8
CUT
10
92.8275
20
165.1277
0
VERTEX
8
CUT
10
91.7861
20
162.0002
0
VERTEX
8
CUT
10
91.7103
20
161.7191
0
VERTEX
8
CUT
10
91.6678
20
161.4310
0
VERTEX
8
CUT
10
91.3798
20
158.1800
0
VERTEX
8
CUT
10
91.3702
20
157.9326
0
VERTEX
8
CUT
10
91.3867
20
156.3867
0
VERTEX
8
CUT
10
91.4036
20
156.1221
0
VERTEX
8
CUT
10
91.4484
20
155.8608
0
VERTEX
8
CUT
10
91.5206
20
155.6058
0
VERTEX
8
CUT
10
91.6198
20
155.3152
0
SEQEND
0
ENDSEC
0
EOF
