0
SECTION
2
HEADER
9
$ACADVER
1
AC1009
9
$INSUNITS
70
4
0
ENDSEC
0
SECTION
2
TABLES
0
TABLE
2
LAYER
70
1
0
LAYER
2
CUT
70
0
62
7
6
CONTINUOUS
0
ENDTAB
0
ENDSEC
0
SECTION
2
ENTITIES
0
POLYLINE
8
CUT
66
1
70
1
10
0.0
20
0.0
30
0.0
0
VERTEX
8
CUT
10
107.0282
20
143.8161
0
VERTEX
8
CUT
10
106.8150
20
144.3051
0
VERTEX
8
CUT
10
106.3333
20
148.6311
0
VERTEX
8
CUT
10
106.2756
20
153.1247
0
VERTEX
8
CUT
10
106.4599
20
154.6186
0
VERTEX
8
CUT
10
106.8423
20
155.3187
0
VERTEX
8
CUT
10
106.8981
20
155.3529
0
VERTEX
8
CUT
10
106.9050
20
155.3571
0
VERTEX
8
CUT
10
106.9241
20
155.3688
0
VERTEX
8
CUT
10
106.9402
20
155.3786
0
VERTEX
8
CUT
10
107.5123
20
155.2750
0
VERTEX
8
CUT
10
107.9964
20
155.1398
0
VERTEX
8
CUT
10
108.0965
20
155.1118
0
VERTEX
8
CUT
10
108.1696
20
155.0914
0
VERTEX
8
CUT
10
108.2857
20
155.0590
0
VERTEX
8
CUT
10
115.5240
20
151.8323
0
VERTEX
8
CUT
10
119.5124
20
150.2907
0
VERTEX
8
CUT
10
123.5285
20
148.9917
0
VERTEX
8
CUT
10
127.6304
20
147.9585
0
VERTEX
8
CUT
10
131.7998
20
147.1736
0
VERTEX
8
CUT
10
136.1196
20
146.6304
0
VERTEX
8
CUT
10
140.5634
20
146.2983
0
VERTEX
8
CUT
10
145.2358
20
146.2198
0
VERTEX
8
CUT
10
145.3256
20
146.1783
0
VERTEX
8
CUT
10
147.4815
20
146.1821
0
VERTEX
8
CUT
10
149.6275
20
146.1461
0
VERTEX
8
CUT
10
149.8227
20
146.1282
0
VERTEX
8
CUT
10
151.6453
20
145.8148
0
VERTEX
8
CUT
10
152.0100
20
145.6951
0
VERTEX
8
CUT
10
152.2907
20
145.8853
0
VERTEX
8
CUT
10
152.3164
20
146.2235
0
VERTEX
8
CUT
10
149.8968
20
151.0643
0
VERTEX
8
CUT
10
149.2497
20
152.9293
0
VERTEX
8
CUT
10
151.5454
20
156.9246
0
VERTEX
8
CUT
10
155.0052
20
162.0844
0
VERTEX
8
CUT
10
156.5703
20
163.9885
0
VERTEX
8
CUT
10
157.0213
20
164.1240
0
VERTEX
8
CUT
10
157.5551
20
163.8910
0
VERTEX
8
CUT
10
157.5906
20
163.8623
0
VERTEX
8
CUT
10
158.0164
20
163.4290
0
VERTEX
8
CUT
10
158.0985
20
163.3314
0
VERTEX
8
CUT
10
158.1101
20
163.3176
0
VERTEX
8
CUT
10
158.1207
20
163.3051
0
VERTEX
8
CUT
10
160.4828
20
159.4058
0
VERTEX
8
CUT
10
163.8792
20
153.1591
0
VERTEX
8
CUT
10
165.8027
20
149.3238
0
VERTEX
8
CUT
10
167.0701
20
146.7502
0
VERTEX
8
CUT
10
167.0968
20
146.7435
0
VERTEX
8
CUT
10
167.3583
20
146.2222
0
VERTEX
8
CUT
10
167.8028
20
146.3487
0
VERTEX
8
CUT
10
167.8895
20
147.1487
0
VERTEX
8
CUT
10
167.8903
20
147.1502
0
VERTEX
8
CUT
10
167.8939
20
147.1568
0
VERTEX
8
CUT
10
167.8996
20
147.1673
0
VERTEX
8
CUT
10
167.9582
20
147.2748
0
VERTEX
8
CUT
10
168.4321
20
147.5657
0
VERTEX
8
CUT
10
176.6348
20
149.4119
0
VERTEX
8
CUT
10
180.9569
20
150.5900
0
VERTEX
8
CUT
10
185.1280
20
151.9798
0
VERTEX
8
CUT
10
189.1743
20
153.5796
0
VERTEX
8
CUT
10
193.1037
20
155.4526
0
VERTEX
8
CUT
10
196.9404
20
157.5665
0
VERTEX
8
CUT
10
204.4040
20
162.5808
0
VERTEX
8
CUT
10
208.7172
20
166.1347
0
VERTEX
8
CUT
10
212.8361
20
170.0731
0
VERTEX
8
CUT
10
216.7674
20
174.4564
0
VERTEX
8
CUT
10
220.4720
20
179.1935
0
VERTEX
8
CUT
10
221.8630
20
181.2613
0
VERTEX
8
CUT
10
222.1324
20
181.6397
0
VERTEX
8
CUT
10
222.2358
20
181.8154
0
VERTEX
8
CUT
10
222.4400
20
182.1189
0
VERTEX
8
CUT
10
222.4507
20
182.1333
0
VERTEX
8
CUT
10
222.4605
20
182.1494
0
VERTEX
8
CUT
10
223.8131
20
184.1600
0
VERTEX
8
CUT
10
225.6818
20
187.3546
0
VERTEX
8
CUT
10
225.6897
20
187.3672
0
VERTEX
8
CUT
10
225.6939
20
187.3752
0
VERTEX
8
CUT
10
226.8366
20
189.3287
0
VERTEX
8
CUT
10
229.4785
20
194.6431
0
VERTEX
8
CUT
10
231.6533
20
199.9611
0
VERTEX
8
CUT
10
231.7913
20
200.5318
0
VERTEX
8
CUT
10
231.8507
20
200.6770
0
VERTEX
8
CUT
10
232.0689
20
201.6797
0
VERTEX
8
CUT
10
232.1124
20
201.8596
0
VERTEX
8
CUT
10
232.0324
20
201.9450
0
VERTEX
8
CUT
10
231.9178
20
202.2665
0
VERTEX
8
CUT
10
231.6823
20
202.2988
0
VERTEX
8
CUT
10
230.2862
20
202.6055
0
VERTEX
8
CUT
10
224.8265
20
202.9999
0
VERTEX
8
CUT
10
220.5374
20
202.9683
0
VERTEX
8
CUT
10
216.1923
20
202.5750
0
VERTEX
8
CUT
10
211.7784
20
201.8544
0
VERTEX
8
CUT
10
207.3125
20
200.8215
0
VERTEX
8
CUT
10
202.7801
20
199.4609
0
VERTEX
8
CUT
10
198.2485
20
197.7684
0
VERTEX
8
CUT
10
189.3312
20
193.9399
0
VERTEX
8
CUT
10
188.3317
20
194.4876
0
VERTEX
8
CUT
10
180.7623
20
201.2396
0
VERTEX
8
CUT
10
179.5965
20
202.3578
0
VERTEX
8
CUT
10
179.5204
20
202.6824
0
VERTEX
8
CUT
10
179.9749
20
203.3138
0
VERTEX
8
CUT
10
180.5454
20
203.7499
0
VERTEX
8
CUT
10
182.1709
20
204.6974
0
VERTEX
8
CUT
10
182.9777
20
205.1675
0
VERTEX
8
CUT
10
183.3374
20
205.3772
0
VERTEX
8
CUT
10
184.8586
20
206.2638
0
VERTEX
8
CUT
10
184.9225
20
206.3006
0
VERTEX
8
CUT
10
189.6213
20
208.6503
0
VERTEX
8
CUT
10
191.6353
20
209.5596
0
VERTEX
8
CUT
10
192.2116
20
209.8198
0
VERTEX
8
CUT
10
192.4721
20
209.9374
0
VERTEX
8
CUT
10
193.2786
20
210.3015
0
VERTEX
8
CUT
10
197.1535
20
211.7994
0
VERTEX
8
CUT
10
201.3435
20
213.1593
0
VERTEX
8
CUT
10
206.0528
20
214.5004
0
VERTEX
8
CUT
10
213.4716
20
215.8744
0
VERTEX
8
CUT
10
220.0315
20
216.4936
0
VERTEX
8
CUT
10
223.4008
20
216.5604
0
VERTEX
8
CUT
10
227.1853
20
216.5438
0
VERTEX
8
CUT
10
228.7139
20
216.4917
0
VERTEX
8
CUT
10
235.4637
20
215.8139
0
VERTEX
8
CUT
10
242.5177
20
214.3869
0
VERTEX
8
CUT
10
244.8759
20
213.6891
0
VERTEX
8
CUT
10
246.9184
20
212.9766
0
VERTEX
8
CUT
10
247.5857
20
212.4426
0
VERTEX
8
CUT
10
247.8128
20
211.6750
0
VERTEX
8
CUT
10
247.8130
20
210.4913
0
VERTEX
8
CUT
10
247.6302
20
208.9390
0
VERTEX
8
CUT
10
246.1432
20
201.4108
0
VERTEX
8
CUT
10
242.8087
20
191.6191
0
VERTEX
8
CUT
10
242.6895
20
191.3105
0
VERTEX
8
CUT
10
242.6776
20
191.2797
0
VERTEX
8
CUT
10
242.6730
20
191.2679
0
VERTEX
8
CUT
10
242.6726
20
191.2666
0
VERTEX
8
CUT
10
240.0124
20
185.7241
0
VERTEX
8
CUT
10
239.9788
20
185.6551
0
VERTEX
8
CUT
10
239.9711
20
185.6393
0
VERTEX
8
CUT
10
239.7668
20
185.2204
0
VERTEX
8
CUT
10
238.6752
20
182.9819
0
VERTEX
8
CUT
10
233.9703
20
175.1700
0
VERTEX
8
CUT
10
228.3538
20
167.5468
0
VERTEX
8
CUT
10
222.1011
20
160.4419
0
VERTEX
8
CUT
10
215.2710
20
154.0386
0
VERTEX
8
CUT
10
208.1267
20
148.4919
0
VERTEX
8
CUT
10
208.1206
20
148.4878
0
VERTEX
8
CUT
10
208.1023
20
148.4753
0
VERTEX
8
CUT
10
208.0782
20
148.4588
0
VERTEX
8
CUT
10
200.5977
20
143.9129
0
VERTEX
8
CUT
10
193.4141
20
140.6231
0
VERTEX
8
CUT
10
185.3029
20
137.9186
0
VERTEX
8
CUT
10
176.5088
20
135.9107
0
VERTEX
8
CUT
10
173.6046
20
135.5473
0
VERTEX
8
CUT
10
172.7044
20
135.6346
0
VERTEX
8
CUT
10
172.5182
20
135.7017
0
VERTEX
8
CUT
10
172.1331
20
135.9413
0
VERTEX
8
CUT
10
171.8196
20
135.8420
0
VERTEX
8
CUT
10
171.7038
20
135.4638
0
VERTEX
8
CUT
10
172.7725
20
132.1789
0
VERTEX
8
CUT
10
174.1737
20
127.5268
0
VERTEX
8
CUT
10
175.1316
20
124.0889
0
VERTEX
8
CUT
10
175.3571
20
123.0570
0
VERTEX
8
CUT
10
175.3906
20
122.5900
0
VERTEX
8
CUT
10
175.3522
20
122.0275
0
VERTEX
8
CUT
10
174.1993
20
120.8718
0
VERTEX
8
CUT
10
169.8498
20
118.5981
0
VERTEX
8
CUT
10
166.6247
20
117.2588
0
VERTEX
8
CUT
10
164.4531
20
116.6712
0
VERTEX
8
CUT
10
163.8260
20
117.0177
0
VERTEX
8
CUT
10
163.5047
20
117.5662
0
VERTEX
8
CUT
10
163.3543
20
117.9659
0
VERTEX
8
CUT
10
160.8880
20
126.2993
0
VERTEX
8
CUT
10
159.5358
20
129.9423
0
VERTEX
8
CUT
10
159.4402
20
130.2496
0
VERTEX
8
CUT
10
159.3249
20
130.5106
0
VERTEX
8
CUT
10
158.3203
20
133.2170
0
VERTEX
8
CUT
10
157.6147
20
134.6912
0
VERTEX
8
CUT
10
157.4567
20
135.0902
0
VERTEX
8
CUT
10
157.4199
20
135.0980
0
VERTEX
8
CUT
10
157.2848
20
135.3802
0
VERTEX
8
CUT
10
156.8573
20
135.2855
0
VERTEX
8
CUT
10
156.6086
20
134.7976
0
VERTEX
8
CUT
10
156.2898
20
134.5315
0
VERTEX
8
CUT
10
154.4761
20
134.1302
0
VERTEX
8
CUT
10
146.0403
20
133.5458
0
VERTEX
8
CUT
10
138.8230
20
133.3942
0
VERTEX
8
CUT
10
138.5205
20
133.1906
0
VERTEX
8
CUT
10
138.6750
20
132.6653
0
VERTEX
8
CUT
10
140.7708
20
132.3454
0
VERTEX
8
CUT
10
140.8871
20
132.2857
0
VERTEX
8
CUT
10
140.9841
20
132.0806
0
VERTEX
8
CUT
10
141.0049
20
132.0366
0
VERTEX
8
CUT
10
141.0539
20
131.9330
0
VERTEX
8
CUT
10
141.1447
20
131.7408
0
VERTEX
8
CUT
10
137.6003
20
119.8407
0
VERTEX
8
CUT
10
136.8695
20
116.3494
0
VERTEX
8
CUT
10
136.4370
20
114.5009
0
VERTEX
8
CUT
10
136.4671
20
114.4269
0
VERTEX
8
CUT
10
135.9608
20
112.0079
0
VERTEX
8
CUT
10
135.0254
20
104.4174
0
VERTEX
8
CUT
10
134.9682
20
101.6046
0
VERTEX
8
CUT
10
134.9676
20
101.6039
0
VERTEX
8
CUT
10
134.7252
20
98.7858
0
VERTEX
8
CUT
10
134.8810
20
97.3138
0
VERTEX
8
CUT
10
134.8751
20
97.0235
0
VERTEX
8
CUT
10
135.4524
20
89.7631
0
VERTEX
8
CUT
10
136.7538
20
82.7240
0
VERTEX
8
CUT
10
138.7959
20
75.8770
0
VERTEX
8
CUT
10
140.2498
20
72.4188
0
VERTEX
8
CUT
10
140.3710
20
72.0852
0
VERTEX
8
CUT
10
140.5051
20
71.8116
0
VERTEX
8
CUT
10
141.2243
20
70.1011
0
VERTEX
8
CUT
10
141.2760
20
69.9729
0
VERTEX
8
CUT
10
141.2876
20
69.9505
0
VERTEX
8
CUT
10
141.6081
20
69.1883
0
VERTEX
8
CUT
10
143.6937
20
65.1657
0
VERTEX
8
CUT
10
145.5926
20
62.0907
0
VERTEX
8
CUT
10
147.3193
20
59.7397
0
VERTEX
8
CUT
10
147.3956
20
59.6266
0
VERTEX
8
CUT
10
147.4325
20
59.5855
0
VERTEX
8
CUT
10
148.1048
20
58.6701
0
VERTEX
8
CUT
10
148.8069
20
57.8735
0
VERTEX
8
CUT
10
149.4221
20
56.9373
0
VERTEX
8
CUT
10
149.7555
20
56.6948
0
VERTEX
8
CUT
10
149.7959
20
56.6930
0
VERTEX
8
CUT
10
149.8816
20
56.6540
0
VERTEX
8
CUT
10
149.9139
20
56.6174
0
VERTEX
8
CUT
10
149.9719
20
56.6130
0
VERTEX
8
CUT
10
150.0585
20
56.5736
0
VERTEX
8
CUT
10
150.1154
20
56.6021
0
VERTEX
8
CUT
10
150.2487
20
56.5920
0
VERTEX
8
CUT
10
150.3527
20
56.6677
0
VERTEX
8
CUT
10
150.4221
20
56.6645
0
VERTEX
8
CUT
10
150.6037
20
56.8505
0
VERTEX
8
CUT
10
150.6278
20
56.8681
0
VERTEX
8
CUT
10
150.7650
20
57.0158
0
VERTEX
8
CUT
10
151.6645
20
57.9373
0
VERTEX
8
CUT
10
151.7716
20
58.1086
0
VERTEX
8
CUT
10
152.5536
20
59.1771
0
VERTEX
8
CUT
10
152.7337
20
59.3900
0
VERTEX
8
CUT
10
152.9607
20
59.7334
0
VERTEX
8
CUT
10
154.7957
20
62.2409
0
VERTEX
8
CUT
10
157.1538
20
66.1738
0
VERTEX
8
CUT
10
158.1788
20
68.2685
0
VERTEX
8
CUT
10
158.8346
20
69.4742
0
VERTEX
8
CUT
10
160.8347
20
74.1715
0
VERTEX
8
CUT
10
161.0403
20
74.8141
0
VERTEX
8
CUT
10
161.1384
20
75.0531
0
VERTEX
8
CUT
10
162.7393
20
79.8285
0
VERTEX
8
CUT
10
163.1421
20
81.3822
0
VERTEX
8
CUT
10
163.2473
20
81.7110
0
VERTEX
8
CUT
10
163.3940
20
82.3539
0
VERTEX
8
CUT
10
164.0019
20
84.6985
0
VERTEX
8
CUT
10
164.3824
20
86.6854
0
VERTEX
8
CUT
10
164.4254
20
86.8738
0
VERTEX
8
CUT
10
164.4383
20
86.9770
0
VERTEX
8
CUT
10
164.9395
20
89.5940
0
VERTEX
8
CUT
10
165.5441
20
94.4245
0
VERTEX
8
CUT
10
165.7893
20
100.4173
0
VERTEX
8
CUT
10
166.0338
20
101.7474
0
VERTEX
8
CUT
10
167.6373
20
102.6129
0
VERTEX
8
CUT
10
176.7173
20
106.3563
0
VERTEX
8
CUT
10
177.2901
20
106.4912
0
VERTEX
8
CUT
10
177.2938
20
106.4894
0
VERTEX
8
CUT
10
177.3141
20
106.4799
0
VERTEX
8
CUT
10
177.3431
20
106.4661
0
VERTEX
8
CUT
10
177.9076
20
106.1990
0
VERTEX
8
CUT
10
178.0213
20
105.8907
0
VERTEX
8
CUT
10
178.3494
20
103.6564
0
VERTEX
8
CUT
10
178.3591
20
103.4691
0
VERTEX
8
CUT
10
178.3603
20
103.3166
0
VERTEX
8
CUT
10
178.3914
20
99.1513
0
VERTEX
8
CUT
10
178.3968
20
98.4309
0
VERTEX
8
CUT
10
178.4103
20
96.6249
0
VERTEX
8
CUT
10
178.3897
20
95.2997
0
VERTEX
8
CUT
10
177.7886
20
87.7843
0
VERTEX
8
CUT
10
177.7722
20
87.6684
0
VERTEX
8
CUT
10
177.6737
20
86.9732
0
VERTEX
8
CUT
10
177.6587
20
86.8677
0
VERTEX
8
CUT
10
177.6583
20
86.8647
0
VERTEX
8
CUT
10
177.6527
20
86.8252
0
VERTEX
8
CUT
10
177.6456
20
86.7755
0
VERTEX
8
CUT
10
176.1432
20
79.3201
0
VERTEX
8
CUT
10
175.1112
20
75.4335
0
VERTEX
8
CUT
10
172.5608
20
67.9314
0
VERTEX
8
CUT
10
171.0418
20
64.3148
0
VERTEX
8
CUT
10
169.3621
20
60.8029
0
VERTEX
8
CUT
10
166.5750
20
55.7739
0
VERTEX
8
CUT
10
162.6904
20
50.2833
0
VERTEX
8
CUT
10
162.2878
20
49.7928
0
VERTEX
8
CUT
10
158.7254
20
45.9739
0
VERTEX
8
CUT
10
156.1913
20
43.6231
0
VERTEX
8
CUT
10
152.4742
20
40.6691
0
VERTEX
8
CUT
10
150.1797
20
39.4426
0
VERTEX
8
CUT
10
149.4721
20
39.7410
0
VERTEX
8
CUT
10
148.5914
20
40.1709
0
VERTEX
8
CUT
10
147.1994
20
41.1070
0
VERTEX
8
CUT
10
141.9693
20
45.4264
0
VERTEX
8
CUT
10
139.1971
20
48.2813
0
VERTEX
8
CUT
10
138.9598
20
48.5486
0
VERTEX
8
CUT
10
138.4011
20
49.2295
0
VERTEX
8
CUT
10
134.8232
20
53.9066
0
VERTEX
8
CUT
10
134.7110
20
54.0821
0
VERTEX
8
CUT
10
134.5197
20
54.3814
0
VERTEX
8
CUT
10
131.3901
20
59.8654
0
VERTEX
8
CUT
10
128.2239
20
66.9283
0
VERTEX
8
CUT
10
125.5521
20
74.4606
0
VERTEX
8
CUT
10
124.1939
20
79.6990
0
VERTEX
8
CUT
10
124.1829
20
79.7439
0
VERTEX
8
CUT
10
124.1677
20
79.8061
0
VERTEX
8
CUT
10
124.1182
20
80.0083
0
VERTEX
8
CUT
10
123.5609
20
82.2848
0
VERTEX
8
CUT
10
122.7887
20
86.6149
0
VERTEX
8
CUT
10
122.2122
20
91.4448
0
VERTEX
8
CUT
10
122.0393
20
94.2113
0
VERTEX
8
CUT
10
121.9036
20
97.2887
0
VERTEX
8
CUT
10
121.8967
20
98.3973
0
VERTEX
8
CUT
10
122.1602
20
106.4513
0
VERTEX
8
CUT
10
122.6066
20
110.8922
0
VERTEX
8
CUT
10
123.3702
20
115.7170
0
VERTEX
8
CUT
10
124.8848
20
122.1991
0
VERTEX
8
CUT
10
126.0388
20
126.2087
0
VERTEX
8
CUT
10
128.1443
20
132.4878
0
VERTEX
8
CUT
10
128.5463
20
133.1633
0
VERTEX
8
CUT
10
128.6382
20
133.2088
0
VERTEX
8
CUT
10
129.3398
20
133.3779
0
VERTEX
8
CUT
10
129.6572
20
133.7243
0
VERTEX
8
CUT
10
129.4113
20
134.1245
0
VERTEX
8
CUT
10
122.5312
20
135.5800
0
VERTEX
8
CUT
10
116.6632
20
137.2821
0
VERTEX
8
CUT
10
110.9299
20
139.3617
0
VERTEX
8
CUT
10
108.9316
20
140.2823
0
VERTEX
8
CUT
10
107.7633
20
140.9969
0
VERTEX
8
CUT
10
107.2529
20
142.1459
0
VERTEX
8
CUT
10
107.0560
20
143.0363
0
SEQEND
0
POLYLINE
8
CUT
66
1
70
1
10
0.0
20
0.0
30
0.0
0
VERTEX
8
CUT
10
134.7555
20
133.0888
0
VERTEX
8
CUT
10
134.9070
20
132.7858
0
VERTEX
8
CUT
10
135.4827
20
132.6645
0
VERTEX
8
CUT
10
137.3312
20
132.7858
0
VERTEX
8
CUT
10
137.4221
20
133.3009
0
VERTEX
8
CUT
10
136.7555
20
133.5130
0
VERTEX
8
CUT
10
135.0585
20
133.4524
0
SEQEND
0
POLYLINE
8
CUT
66
1
70
1
10
0.0
20
0.0
30
0.0
0
VERTEX
8
CUT
10
73.7200
20
188.0817
0
VERTEX
8
CUT
10
76.6911
20
183.4434
0
VERTEX
8
CUT
10
79.4592
20
179.7726
0
VERTEX
8
CUT
10
82.6274
20
176.1433
0
VERTEX
8
CUT
10
83.3285
20
175.3288
0
VERTEX
8
CUT
10
83.6677
20
174.9745
0
VERTEX
8
CUT
10
85.0822
20
173.3627
0
VERTEX
8
CUT
10
87.9365
20
170.5386
0
VERTEX
8
CUT
10
89.1329
20
169.4701
0
VERTEX
8
CUT
10
93.3277
20
165.3964
0
VERTEX
8
CUT
10
93.5966
20
164.5387
0
VERTEX
8
CUT
10
93.6322
20
164.0489
0
VERTEX
8
CUT
10
92.9313
20
160.4404
0
VERTEX
8
CUT
10
91.9942
20
152.2434
0
VERTEX
8
CUT
10
91.6298
20
151.4547
0
VERTEX
8
CUT
10
91.3425
20
151.3740
0
VERTEX
8
CUT
10
91.0142
20
151.3476
0
VERTEX
8
CUT
10
89.8837
20
151.9678
0
VERTEX
8
CUT
10
88.7248
20
152.7599
0
VERTEX
8
CUT
10
88.1460
20
153.1800
0
VERTEX
8
CUT
10
83.8569
20
156.6019
0
VERTEX
8
CUT
10
80.1440
20
159.8726
0
VERTEX
8
CUT
10
78.5455
20
161.3440
0
VERTEX
8
CUT
10
73.8430
20
166.1387
0
VERTEX
8
CUT
10
72.3466
20
167.7182
0
VERTEX
8
CUT
10
67.8399
20
173.1927
0
VERTEX
8
CUT
10
63.7539
20
178.8952
0
VERTEX
8
CUT
10
60.6617
20
183.9868
0
VERTEX
8
CUT
10
60.3398
20
184.5760
0
VERTEX
8
CUT
10
59.5855
20
186.0106
0
VERTEX
8
CUT
10
56.5133
20
192.4905
0
VERTEX
8
CUT
10
55.6835
20
194.5750
0
VERTEX
8
CUT
10
54.5171
20
197.8334
0
VERTEX
8
CUT
10
53.3716
20
201.7283
0
VERTEX
8
CUT
10
52.3046
20
206.6382
0
VERTEX
8
CUT
10
51.8796
20
210.4444
0
VERTEX
8
CUT
10
51.9272
20
211.3426
0
VERTEX
8
CUT
10
51.9673
20
211.7281
0
VERTEX
8
CUT
10
52.3077
20
212.4461
0
VERTEX
8
CUT
10
54.4974
20
213.3452
0
VERTEX
8
CUT
10
58.1937
20
214.2639
0
VERTEX
8
CUT
10
58.5367
20
214.3337
0
VERTEX
8
CUT
10
58.5585
20
214.3381
0
VERTEX
8
CUT
10
58.6892
20
214.3648
0
VERTEX
8
CUT
10
59.0220
20
214.4325
0
VERTEX
8
CUT
10
65.5550
20
215.5395
0
VERTEX
8
CUT
10
66.1926
20
215.6114
0
VERTEX
8
CUT
10
66.8540
20
215.6860
0
VERTEX
8
CUT
10
67.1328
20
215.7175
0
VERTEX
8
CUT
10
67.4631
20
215.7547
0
VERTEX
8
CUT
10
70.7813
20
216.0563
0
VERTEX
8
CUT
10
78.8790
20
216.0867
0
VERTEX
8
CUT
10
84.2910
20
215.7826
0
VERTEX
8
CUT
10
88.7469
20
215.2620
0
VERTEX
8
CUT
10
96.9436
20
213.4473
0
VERTEX
8
CUT
10
104.8478
20
210.9140
0
VERTEX
8
CUT
10
111.8005
20
207.8999
0
VERTEX
8
CUT
10
114.6363
20
206.3729
0
VERTEX
8
CUT
10
119.5181
20
203.6204
0
VERTEX
8
CUT
10
126.4438
20
198.8491
0
VERTEX
8
CUT
10
133.0906
20
193.2325
0
VERTEX
8
CUT
10
138.9347
20
187.4433
0
VERTEX
8
CUT
10
141.0796
20
185.0548
0
VERTEX
8
CUT
10
146.1751
20
179.1378
0
VERTEX
8
CUT
10
146.2015
20
179.1048
0
VERTEX
8
CUT
10
146.3716
20
178.8925
0
VERTEX
8
CUT
10
146.3922
20
178.8667
0
VERTEX
8
CUT
10
146.4430
20
178.8033
0
VERTEX
8
CUT
10
147.8153
20
176.9562
0
VERTEX
8
CUT
10
148.1283
20
176.4272
0
VERTEX
8
CUT
10
148.2444
20
175.9750
0
VERTEX
8
CUT
10
148.2268
20
175.8863
0
VERTEX
8
CUT
10
142.0170
20
166.9664
0
VERTEX
8
CUT
10
141.1600
20
165.8948
0
VERTEX
8
CUT
10
140.4256
20
165.4629
0
VERTEX
8
CUT
10
139.6440
20
166.0565
0
VERTEX
8
CUT
10
139.6297
20
166.0708
0
VERTEX
8
CUT
10
138.4786
20
167.3545
0
VERTEX
8
CUT
10
138.1787
20
167.7097
0
VERTEX
8
CUT
10
138.1336
20
167.7632
0
VERTEX
8
CUT
10
137.7956
20
168.1635
0
VERTEX
8
CUT
10
136.0216
20
170.2647
0
VERTEX
8
CUT
10
130.6263
20
176.6791
0
VERTEX
8
CUT
10
129.4605
20
177.8905
0
VERTEX
8
CUT
10
127.8125
20
179.6438
0
VERTEX
8
CUT
10
127.3477
20
180.0861
0
VERTEX
8
CUT
10
125.9986
20
181.4880
0
VERTEX
8
CUT
10
121.5314
20
185.6836
0
VERTEX
8
CUT
10
115.4713
20
190.4395
0
VERTEX
8
CUT
10
111.3646
20
193.0657
0
VERTEX
8
CUT
10
110.0501
20
193.7977
0
VERTEX
8
CUT
10
110.0467
20
193.8007
0
VERTEX
8
CUT
10
110.0270
20
193.8105
0
VERTEX
8
CUT
10
108.8358
20
194.4738
0
VERTEX
8
CUT
10
108.4221
20
194.7252
0
VERTEX
8
CUT
10
108.2332
20
194.8094
0
VERTEX
8
CUT
10
107.1314
20
195.4229
0
VERTEX
8
CUT
10
105.1466
20
196.3321
0
VERTEX
8
CUT
10
104.4757
20
196.6899
0
VERTEX
8
CUT
10
103.7908
20
196.9532
0
VERTEX
8
CUT
10
102.7833
20
197.4148
0
VERTEX
8
CUT
10
100.2431
20
198.3753
0
VERTEX
8
CUT
10
99.8747
20
198.5340
0
VERTEX
8
CUT
10
99.6041
20
198.6169
0
VERTEX
8
CUT
10
98.3113
20
199.1058
0
VERTEX
8
CUT
10
93.7795
20
200.4643
0
VERTEX
8
CUT
10
91.6944
20
200.9271
0
VERTEX
8
CUT
10
91.5166
20
200.9769
0
VERTEX
8
CUT
10
91.2720
20
201.0208
0
VERTEX
8
CUT
10
89.1574
20
201.4902
0
VERTEX
8
CUT
10
86.7828
20
201.8266
0
VERTEX
8
CUT
10
86.4809
20
201.8808
0
VERTEX
8
CUT
10
86.3411
20
201.8892
0
VERTEX
8
CUT
10
84.4763
20
202.1534
0
VERTEX
8
CUT
10
80.0787
20
202.3637
0
VERTEX
8
CUT
10
79.7436
20
202.3612
0
VERTEX
8
CUT
10
79.6342
20
202.4827
0
VERTEX
8
CUT
10
77.9373
20
202.6342
0
VERTEX
8
CUT
10
74.9979
20
202.5433
0
VERTEX
8
CUT
10
74.6667
20
202.3225
0
VERTEX
8
CUT
10
74.6657
20
202.3225
0
VERTEX
8
CUT
10
72.1474
20
202.3327
0
VERTEX
8
CUT
10
68.5447
20
202.0061
0
VERTEX
8
CUT
10
68.2864
20
201.9305
0
VERTEX
8
CUT
10
67.8765
20
201.8907
0
VERTEX
8
CUT
10
67.6340
20
201.5675
0
VERTEX
8
CUT
10
67.7845
20
200.6981
0
VERTEX
8
CUT
10
68.8366
20
198.0774
0
VERTEX
8
CUT
10
68.8578
20
198.0196
0
VERTEX
8
CUT
10
68.8751
20
197.9814
0
VERTEX
8
CUT
10
70.0400
20
195.0798
0
VERTEX
8
CUT
10
71.1238
20
193.0188
0
VERTEX
8
CUT
10
71.6343
20
191.8920
0
VERTEX
8
CUT
10
72.4388
20
190.5182
0
SEQEND
0
ENDSEC
0
EOF
