0
SECTION
2
HEADER
9
$ACADVER
1
AC1009
9
$INSUNITS
70
4
0
ENDSEC
0
SECTION
2
TABLES
0
TABLE
2
LAYER
70
1
0
LAYER
2
CUT
70
0
62
7
6
CONTINUOUS
0
ENDTAB
0
ENDSEC
0
SECTION
2
ENTITIES
0
POLYLINE
8
CUT
66
1
70
1
10
0.0
20
0.0
30
0.0
0
VERTEX
8
CUT
10
191.3314
20
56.7739
0
VERTEX
8
CUT
10
191.3325
20
56.8423
0
VERTEX
8
CUT
10
191.2726
20
57.4857
0
VERTEX
8
CUT
10
191.0560
20
60.1098
0
VERTEX
8
CUT
10
190.0762
20
67.0906
0
VERTEX
8
CUT
10
187.8450
20
77.9925
0
VERTEX
8
CUT
10
187.9095
20
78.1667
0
VERTEX
8
CUT
10
188.1771
20
78.6582
0
VERTEX
8
CUT
10
189.3846
20
79.8019
0
VERTEX
8
CUT
10
189.9967
20
80.2934
0
VERTEX
8
CUT
10
190.5412
20
81.3322
0
VERTEX
8
CUT
10
190.7104
20
81.6003
0
VERTEX
8
CUT
10
190.9282
20
83.0490
0
VERTEX
8
CUT
10
190.3182
20
86.6943
0
VERTEX
8
CUT
10
190.9826
20
88.4689
0
VERTEX
8
CUT
10
192.0518
20
89.6906
0
VERTEX
8
CUT
10
193.9621
20
91.0473
0
VERTEX
8
CUT
10
197.6940
20
94.2839
0
VERTEX
8
CUT
10
198.8803
20
95.0762
0
VERTEX
8
CUT
10
199.7567
20
95.1599
0
VERTEX
8
CUT
10
199.8936
20
94.8468
0
VERTEX
8
CUT
10
199.5720
20
92.7853
0
VERTEX
8
CUT
10
199.4692
20
92.5113
0
VERTEX
8
CUT
10
199.5992
20
91.7316
0
VERTEX
8
CUT
10
199.6246
20
91.0992
0
VERTEX
8
CUT
10
199.7966
20
90.5471
0
VERTEX
8
CUT
10
199.8994
20
89.9303
0
VERTEX
8
CUT
10
200.3364
20
88.9880
0
VERTEX
8
CUT
10
200.3603
20
88.9163
0
VERTEX
8
CUT
10
200.4001
20
88.8506
0
VERTEX
8
CUT
10
200.8826
20
87.8101
0
VERTEX
8
CUT
10
201.3288
20
87.1481
0
VERTEX
8
CUT
10
202.0882
20
85.6528
0
VERTEX
8
CUT
10
202.2534
20
84.4391
0
VERTEX
8
CUT
10
202.0022
20
83.6223
0
VERTEX
8
CUT
10
201.6910
20
83.2533
0
VERTEX
8
CUT
10
200.6874
20
82.7209
0
VERTEX
8
CUT
10
199.2801
20
82.9019
0
VERTEX
8
CUT
10
195.6218
20
84.1547
0
VERTEX
8
CUT
10
194.8016
20
83.8597
0
VERTEX
8
CUT
10
194.1107
20
82.9377
0
VERTEX
8
CUT
10
194.1197
20
82.8273
0
VERTEX
8
CUT
10
194.0921
20
82.8018
0
VERTEX
8
CUT
10
194.1405
20
82.4146
0
VERTEX
8
CUT
10
194.1459
20
81.8656
0
VERTEX
8
CUT
10
194.2116
20
81.7022
0
VERTEX
8
CUT
10
194.2420
20
81.3294
0
VERTEX
8
CUT
10
194.2906
20
81.2136
0
VERTEX
8
CUT
10
194.3072
20
81.0811
0
VERTEX
8
CUT
10
195.3826
20
78.4079
0
VERTEX
8
CUT
10
195.6703
20
77.9304
0
VERTEX
8
CUT
10
197.0659
20
74.6092
0
VERTEX
8
CUT
10
196.5372
20
73.7967
0
VERTEX
8
CUT
10
195.6365
20
73.0314
0
VERTEX
8
CUT
10
194.9607
20
72.8833
0
VERTEX
8
CUT
10
193.8844
20
72.9783
0
VERTEX
8
CUT
10
193.3267
20
72.7061
0
VERTEX
8
CUT
10
192.8773
20
72.1909
0
VERTEX
8
CUT
10
192.7731
20
71.9155
0
VERTEX
8
CUT
10
192.6480
20
71.8018
0
VERTEX
8
CUT
10
192.5865
20
71.3716
0
VERTEX
8
CUT
10
192.7402
20
68.6984
0
VERTEX
8
CUT
10
193.6237
20
61.4582
0
VERTEX
8
CUT
10
193.7793
20
59.9192
0
VERTEX
8
CUT
10
193.9636
20
55.3733
0
VERTEX
8
CUT
10
193.8718
20
51.7384
0
VERTEX
8
CUT
10
193.7072
20
50.4724
0
VERTEX
8
CUT
10
192.7804
20
47.9702
0
VERTEX
8
CUT
10
192.1012
20
46.9631
0
VERTEX
8
CUT
10
191.3044
20
46.1974
0
VERTEX
8
CUT
10
189.3959
20
45.3932
0
VERTEX
8
CUT
10
188.2565
20
45.3542
0
VERTEX
8
CUT
10
186.5163
20
45.7977
0
VERTEX
8
CUT
10
186.4768
20
45.8193
0
VERTEX
8
CUT
10
186.4336
20
45.7443
0
VERTEX
8
CUT
10
186.3636
20
45.6470
0
VERTEX
8
CUT
10
186.2843
20
45.5572
0
VERTEX
8
CUT
10
186.1965
20
45.4757
0
VERTEX
8
CUT
10
186.1009
20
45.4034
0
VERTEX
8
CUT
10
185.9986
20
45.3409
0
VERTEX
8
CUT
10
185.8906
20
45.2890
0
VERTEX
8
CUT
10
185.7779
20
45.2481
0
VERTEX
8
CUT
10
185.6618
20
45.2187
0
VERTEX
8
CUT
10
185.5433
20
45.2010
0
VERTEX
8
CUT
10
185.4236
20
45.1952
0
VERTEX
8
CUT
10
185.3039
20
45.2013
0
VERTEX
8
CUT
10
185.1854
20
45.2194
0
VERTEX
8
CUT
10
185.0693
20
45.2492
0
VERTEX
8
CUT
10
184.9568
20
45.2904
0
VERTEX
8
CUT
10
184.8489
20
45.3427
0
VERTEX
8
CUT
10
183.3127
20
46.1840
0
VERTEX
8
CUT
10
183.2336
20
46.2314
0
VERTEX
8
CUT
10
183.1584
20
46.2847
0
VERTEX
8
CUT
10
181.4364
20
47.6067
0
VERTEX
8
CUT
10
181.3635
20
47.6674
0
VERTEX
8
CUT
10
181.2957
20
47.7337
0
VERTEX
8
CUT
10
180.2551
20
48.8331
0
VERTEX
8
CUT
10
180.1827
20
48.9170
0
VERTEX
8
CUT
10
176.4675
20
53.6501
0
VERTEX
8
CUT
10
176.3983
20
53.7479
0
VERTEX
8
CUT
10
176.3392
20
53.8522
0
VERTEX
8
CUT
10
176.2908
20
53.9618
0
VERTEX
8
CUT
10
176.2536
20
54.0757
0
VERTEX
8
CUT
10
176.2279
20
54.1927
0
VERTEX
8
CUT
10
176.2140
20
54.3117
0
VERTEX
8
CUT
10
176.2121
20
54.4316
0
VERTEX
8
CUT
10
176.2221
20
54.5510
0
VERTEX
8
CUT
10
176.2440
20
54.6688
0
VERTEX
8
CUT
10
176.2775
20
54.7838
0
VERTEX
8
CUT
10
176.3223
20
54.8949
0
VERTEX
8
CUT
10
176.3780
20
55.0010
0
VERTEX
8
CUT
10
176.4440
20
55.1010
0
VERTEX
8
CUT
10
176.5196
20
55.1940
0
VERTEX
8
CUT
10
176.6041
20
55.2789
0
VERTEX
8
CUT
10
176.6712
20
55.3341
0
VERTEX
8
CUT
10
175.3980
20
56.9560
0
VERTEX
8
CUT
10
169.8255
20
64.7764
0
VERTEX
8
CUT
10
164.7068
20
72.9868
0
VERTEX
8
CUT
10
165.3668
20
74.7651
0
VERTEX
8
CUT
10
165.1124
20
75.1716
0
VERTEX
8
CUT
10
164.3064
20
75.4521
0
VERTEX
8
CUT
10
163.9427
20
76.0480
0
VERTEX
8
CUT
10
163.8340
20
76.8947
0
VERTEX
8
CUT
10
164.2048
20
78.0617
0
VERTEX
8
CUT
10
165.1382
20
78.9741
0
VERTEX
8
CUT
10
166.2618
20
79.3225
0
VERTEX
8
CUT
10
166.9122
20
79.2578
0
VERTEX
8
CUT
10
167.5344
20
78.9291
0
VERTEX
8
CUT
10
167.8661
20
78.4126
0
VERTEX
8
CUT
10
167.8716
20
77.8086
0
VERTEX
8
CUT
10
167.5995
20
77.3911
0
VERTEX
8
CUT
10
167.6925
20
76.8626
0
VERTEX
8
CUT
10
169.0096
20
76.4023
0
VERTEX
8
CUT
10
169.5668
20
75.7531
0
VERTEX
8
CUT
10
170.3622
20
73.2251
0
VERTEX
8
CUT
10
170.8298
20
70.3095
0
VERTEX
8
CUT
10
174.0865
20
63.5507
0
VERTEX
8
CUT
10
175.6795
20
60.6697
0
VERTEX
8
CUT
10
176.0506
20
60.0983
0
VERTEX
8
CUT
10
176.2402
20
59.7571
0
VERTEX
8
CUT
10
177.1556
20
58.3926
0
VERTEX
8
CUT
10
177.6075
20
57.6088
0
VERTEX
8
CUT
10
178.0519
20
57.0171
0
VERTEX
8
CUT
10
178.3605
20
56.5420
0
VERTEX
8
CUT
10
178.3864
20
56.5580
0
VERTEX
8
CUT
10
179.4972
20
54.9024
0
VERTEX
8
CUT
10
180.1909
20
54.1124
0
VERTEX
8
CUT
10
180.2860
20
53.9759
0
VERTEX
8
CUT
10
180.5973
20
53.6285
0
VERTEX
8
CUT
10
181.3992
20
52.5608
0
VERTEX
8
CUT
10
182.5394
20
51.4301
0
VERTEX
8
CUT
10
182.8551
20
51.0732
0
VERTEX
8
CUT
10
182.8781
20
51.0526
0
VERTEX
8
CUT
10
183.7067
20
50.1091
0
VERTEX
8
CUT
10
185.1201
20
48.8493
0
VERTEX
8
CUT
10
185.6136
20
48.6183
0
VERTEX
8
CUT
10
186.4210
20
48.1020
0
VERTEX
8
CUT
10
187.4338
20
47.8079
0
VERTEX
8
CUT
10
187.5827
20
47.7647
0
VERTEX
8
CUT
10
187.7378
20
47.8147
0
VERTEX
8
CUT
10
187.8672
20
47.8031
0
VERTEX
8
CUT
10
188.6420
20
48.0361
0
VERTEX
8
CUT
10
188.9853
20
48.3170
0
VERTEX
8
CUT
10
189.1178
20
48.3441
0
VERTEX
8
CUT
10
189.5323
20
48.7646
0
VERTEX
8
CUT
10
189.6442
20
48.8562
0
VERTEX
8
CUT
10
189.6598
20
48.8669
0
VERTEX
8
CUT
10
189.6635
20
48.8720
0
VERTEX
8
CUT
10
190.0283
20
49.1705
0
VERTEX
8
CUT
10
190.7986
20
50.5408
0
VERTEX
8
CUT
10
191.3614
20
53.4864
0
VERTEX
8
CUT
10
191.3632
20
56.3880
0
SEQEND
0
POLYLINE
8
CUT
66
1
70
1
10
0.0
20
0.0
30
0.0
0
VERTEX
8
CUT
10
75.3913
20
127.6423
0
VERTEX
8
CUT
10
75.9190
20
128.1714
0
VERTEX
8
CUT
10
76.0082
20
128.2609
0
VERTEX
8
CUT
10
76.0268
20
128.2796
0
VERTEX
8
CUT
10
77.7321
20
129.5838
0
VERTEX
8
CUT
10
78.7840
20
129.9843
0
VERTEX
8
CUT
10
79.7696
20
130.0525
0
VERTEX
8
CUT
10
80.6069
20
129.7987
0
VERTEX
8
CUT
10
81.0390
20
129.4462
0
VERTEX
8
CUT
10
81.3391
20
129.1725
0
VERTEX
8
CUT
10
81.8282
20
128.2321
0
VERTEX
8
CUT
10
81.9670
20
126.4660
0
VERTEX
8
CUT
10
81.7080
20
125.3152
0
VERTEX
8
CUT
10
79.9491
20
121.1805
0
VERTEX
8
CUT
10
75.3646
20
113.5985
0
VERTEX
8
CUT
10
75.0588
20
113.3436
0
VERTEX
8
CUT
10
74.8338
20
112.7206
0
VERTEX
8
CUT
10
74.4506
20
112.0868
0
VERTEX
8
CUT
10
71.9605
20
106.8607
0
VERTEX
8
CUT
10
70.9519
20
104.2000
0
VERTEX
8
CUT
10
69.3350
20
98.5860
0
VERTEX
8
CUT
10
69.1523
20
97.5735
0
VERTEX
8
CUT
10
69.1459
20
97.5501
0
VERTEX
8
CUT
10
68.2619
20
92.9472
0
VERTEX
8
CUT
10
68.0625
20
91.5341
0
VERTEX
8
CUT
10
67.5231
20
88.5445
0
VERTEX
8
CUT
10
67.1253
20
84.3466
0
VERTEX
8
CUT
10
67.0665
20
82.5672
0
VERTEX
8
CUT
10
67.0651
20
82.5519
0
VERTEX
8
CUT
10
66.8502
20
77.2840
0
VERTEX
8
CUT
10
67.0024
20
72.3496
0
VERTEX
8
CUT
10
67.4299
20
67.8219
0
VERTEX
8
CUT
10
67.4957
20
67.4607
0
VERTEX
8
CUT
10
67.5222
20
67.1758
0
VERTEX
8
CUT
10
68.2232
20
63.2367
0
VERTEX
8
CUT
10
69.2034
20
59.8937
0
VERTEX
8
CUT
10
70.4479
20
57.2549
0
VERTEX
8
CUT
10
71.9680
20
55.2258
0
VERTEX
8
CUT
10
73.6997
20
53.9057
0
VERTEX
8
CUT
10
75.7327
20
53.1893
0
VERTEX
8
CUT
10
76.8063
20
53.0873
0
VERTEX
8
CUT
10
77.9951
20
53.2302
0
VERTEX
8
CUT
10
79.0808
20
53.6009
0
VERTEX
8
CUT
10
79.3697
20
53.6546
0
VERTEX
8
CUT
10
79.6250
20
53.7742
0
VERTEX
8
CUT
10
79.8730
20
53.8417
0
VERTEX
8
CUT
10
80.1507
20
53.9663
0
VERTEX
8
CUT
10
80.8255
20
54.1967
0
VERTEX
8
CUT
10
82.4130
20
54.9885
0
VERTEX
8
CUT
10
82.9555
20
55.3339
0
VERTEX
8
CUT
10
83.3874
20
55.5362
0
VERTEX
8
CUT
10
84.0550
20
56.0134
0
VERTEX
8
CUT
10
84.2077
20
56.1030
0
VERTEX
8
CUT
10
84.5300
20
56.3363
0
VERTEX
8
CUT
10
85.8661
20
57.1868
0
VERTEX
8
CUT
10
86.9787
20
58.1030
0
VERTEX
8
CUT
10
87.3636
20
58.3781
0
VERTEX
8
CUT
10
88.0413
20
58.9781
0
VERTEX
8
CUT
10
90.0414
20
60.6253
0
VERTEX
8
CUT
10
91.3859
20
61.9391
0
VERTEX
8
CUT
10
92.1873
20
62.6486
0
VERTEX
8
CUT
10
93.5241
20
64.0111
0
VERTEX
8
CUT
10
94.7256
20
65.2026
0
VERTEX
8
CUT
10
96.7540
20
67.1848
0
VERTEX
8
CUT
10
104.4045
20
75.1424
0
VERTEX
8
CUT
10
110.6988
20
82.1434
0
VERTEX
8
CUT
10
112.6633
20
84.5406
0
VERTEX
8
CUT
10
114.5783
20
87.6139
0
VERTEX
8
CUT
10
114.5847
20
87.6281
0
VERTEX
8
CUT
10
114.6429
20
87.7140
0
VERTEX
8
CUT
10
114.9807
20
88.5079
0
VERTEX
8
CUT
10
115.9367
20
90.6321
0
VERTEX
8
CUT
10
116.5842
20
93.4323
0
VERTEX
8
CUT
10
116.9058
20
94.0963
0
VERTEX
8
CUT
10
117.6425
20
94.0954
0
VERTEX
8
CUT
10
119.2142
20
93.1925
0
VERTEX
8
CUT
10
120.1197
20
92.9413
0
VERTEX
8
CUT
10
123.9353
20
93.0518
0
VERTEX
8
CUT
10
124.0902
20
92.8762
0
VERTEX
8
CUT
10
124.0313
20
91.9555
0
VERTEX
8
CUT
10
123.8671
20
91.1233
0
VERTEX
8
CUT
10
123.8389
20
91.0408
0
VERTEX
8
CUT
10
123.7291
20
90.9749
0
VERTEX
8
CUT
10
122.3758
20
88.4968
0
VERTEX
8
CUT
10
119.0933
20
84.4762
0
VERTEX
8
CUT
10
98.8057
20
62.9281
0
VERTEX
8
CUT
10
90.8126
20
55.1194
0
VERTEX
8
CUT
10
86.4684
20
51.7387
0
VERTEX
8
CUT
10
84.4003
20
50.4741
0
VERTEX
8
CUT
10
80.8847
20
48.7170
0
VERTEX
8
CUT
10
78.4682
20
48.0863
0
VERTEX
8
CUT
10
75.3455
20
47.9644
0
VERTEX
8
CUT
10
73.7645
20
48.1582
0
VERTEX
8
CUT
10
72.3342
20
48.7176
0
VERTEX
8
CUT
10
70.8540
20
49.5675
0
VERTEX
8
CUT
10
69.5687
20
50.6020
0
VERTEX
8
CUT
10
68.3631
20
51.9392
0
VERTEX
8
CUT
10
66.4100
20
55.2965
0
VERTEX
8
CUT
10
64.8985
20
59.7741
0
VERTEX
8
CUT
10
64.2489
20
62.4751
0
VERTEX
8
CUT
10
63.2651
20
70.0553
0
VERTEX
8
CUT
10
63.0533
20
78.5215
0
VERTEX
8
CUT
10
63.1984
20
79.9442
0
VERTEX
8
CUT
10
63.1528
20
80.3913
0
VERTEX
8
CUT
10
63.5725
20
87.7233
0
VERTEX
8
CUT
10
64.7453
20
97.0133
0
VERTEX
8
CUT
10
66.4941
20
105.9412
0
VERTEX
8
CUT
10
68.7524
20
114.1972
0
VERTEX
8
CUT
10
71.1349
20
120.3274
0
VERTEX
8
CUT
10
71.4333
20
120.9803
0
VERTEX
8
CUT
10
71.4863
20
121.0962
0
VERTEX
8
CUT
10
71.5850
20
121.3123
0
VERTEX
8
CUT
10
71.7957
20
121.7733
0
VERTEX
8
CUT
10
74.3009
20
126.2124
0
VERTEX
8
CUT
10
75.3135
20
127.5626
0
SEQEND
0
POLYLINE
8
CUT
66
1
70
1
10
0.0
20
0.0
30
0.0
0
VERTEX
8
CUT
10
95.9711
20
108.5688
0
VERTEX
8
CUT
10
95.1772
20
108.8271
0
VERTEX
8
CUT
10
94.5421
20
109.2744
0
VERTEX
8
CUT
10
94.0254
20
110.5543
0
VERTEX
8
CUT
10
94.4326
20
112.0287
0
VERTEX
8
CUT
10
95.0079
20
112.8733
0
VERTEX
8
CUT
10
96.5261
20
114.2739
0
VERTEX
8
CUT
10
97.8226
20
114.9434
0
VERTEX
8
CUT
10
100.5598
20
115.6258
0
VERTEX
8
CUT
10
100.7459
20
115.6481
0
VERTEX
8
CUT
10
105.0324
20
115.4482
0
VERTEX
8
CUT
10
105.3182
20
115.3785
0
VERTEX
8
CUT
10
106.8677
20
114.6134
0
VERTEX
8
CUT
10
107.3081
20
113.8904
0
VERTEX
8
CUT
10
107.3462
20
112.9603
0
VERTEX
8
CUT
10
106.5662
20
106.9420
0
VERTEX
8
CUT
10
105.2939
20
102.6433
0
VERTEX
8
CUT
10
103.4923
20
98.7041
0
VERTEX
8
CUT
10
101.2521
20
95.1519
0
VERTEX
8
CUT
10
98.6789
20
92.1763
0
VERTEX
8
CUT
10
95.7893
20
89.8601
0
VERTEX
8
CUT
10
92.7838
20
88.4008
0
VERTEX
8
CUT
10
89.7639
20
87.8781
0
VERTEX
8
CUT
10
87.8296
20
88.1660
0
VERTEX
8
CUT
10
86.5683
20
89.3417
0
VERTEX
8
CUT
10
86.2027
20
90.2203
0
VERTEX
8
CUT
10
86.1935
20
90.2990
0
VERTEX
8
CUT
10
86.1887
20
90.3397
0
VERTEX
8
CUT
10
86.1747
20
90.4584
0
VERTEX
8
CUT
10
86.0737
20
91.3142
0
VERTEX
8
CUT
10
86.0816
20
91.4930
0
VERTEX
8
CUT
10
86.2298
20
92.3229
0
VERTEX
8
CUT
10
86.7387
20
93.6749
0
VERTEX
8
CUT
10
86.7470
20
93.6934
0
VERTEX
8
CUT
10
86.7494
20
93.6987
0
VERTEX
8
CUT
10
86.7541
20
93.7093
0
VERTEX
8
CUT
10
86.7621
20
93.7272
0
VERTEX
8
CUT
10
87.3573
20
94.5303
0
VERTEX
8
CUT
10
87.3575
20
94.5304
0
VERTEX
8
CUT
10
87.3644
20
94.5372
0
VERTEX
8
CUT
10
87.3743
20
94.5468
0
VERTEX
8
CUT
10
87.4044
20
94.5762
0
VERTEX
8
CUT
10
89.0098
20
95.8873
0
VERTEX
8
CUT
10
90.6202
20
96.8558
0
VERTEX
8
CUT
10
93.8891
20
98.7211
0
VERTEX
8
CUT
10
94.7293
20
99.3272
0
VERTEX
8
CUT
10
96.4749
20
100.3772
0
VERTEX
8
CUT
10
97.4906
20
101.5553
0
VERTEX
8
CUT
10
98.8987
20
103.0604
0
VERTEX
8
CUT
10
100.0169
20
105.2554
0
VERTEX
8
CUT
10
100.1017
20
106.6954
0
VERTEX
8
CUT
10
99.2413
20
107.7923
0
VERTEX
8
CUT
10
98.1864
20
108.2947
0
SEQEND
0
POLYLINE
8
CUT
66
1
70
1
10
0.0
20
0.0
30
0.0
0
VERTEX
8
CUT
10
212.4668
20
112.6578
0
VERTEX
8
CUT
10
217.5926
20
115.7857
0
VERTEX
8
CUT
10
219.0894
20
116.1640
0
VERTEX
8
CUT
10
219.5237
20
116.0470
0
VERTEX
8
CUT
10
219.6008
20
116.0173
0
VERTEX
8
CUT
10
220.0973
20
115.4742
0
VERTEX
8
CUT
10
220.2924
20
115.0089
0
VERTEX
8
CUT
10
220.2545
20
114.0770
0
VERTEX
8
CUT
10
219.8059
20
113.0535
0
VERTEX
8
CUT
10
219.0143
20
112.0066
0
VERTEX
8
CUT
10
216.5691
20
109.9377
0
VERTEX
8
CUT
10
213.4597
20
108.1826
0
VERTEX
8
CUT
10
210.8088
20
107.3055
0
VERTEX
8
CUT
10
208.8381
20
106.9885
0
VERTEX
8
CUT
10
206.0987
20
107.0536
0
VERTEX
8
CUT
10
203.1562
20
107.8426
0
VERTEX
8
CUT
10
202.2167
20
107.6072
0
VERTEX
8
CUT
10
201.5705
20
106.6270
0
VERTEX
8
CUT
10
201.5446
20
106.5969
0
VERTEX
8
CUT
10
201.5425
20
106.5846
0
VERTEX
8
CUT
10
201.5095
20
106.5346
0
VERTEX
8
CUT
10
200.4943
20
102.6360
0
VERTEX
8
CUT
10
199.6612
20
100.6604
0
VERTEX
8
CUT
10
197.8411
20
98.4832
0
VERTEX
8
CUT
10
196.6949
20
97.7418
0
VERTEX
8
CUT
10
196.1938
20
97.8877
0
VERTEX
8
CUT
10
196.0958
20
98.2722
0
VERTEX
8
CUT
10
197.3882
20
103.7318
0
VERTEX
8
CUT
10
198.0921
20
113.1998
0
VERTEX
8
CUT
10
198.4930
20
115.9218
0
VERTEX
8
CUT
10
199.1645
20
117.9654
0
VERTEX
8
CUT
10
200.8760
20
120.6671
0
VERTEX
8
CUT
10
201.2114
20
120.5399
0
VERTEX
8
CUT
10
201.6390
20
116.3481
0
VERTEX
8
CUT
10
202.3259
20
114.3442
0
VERTEX
8
CUT
10
203.6425
20
112.8815
0
VERTEX
8
CUT
10
203.9184
20
112.7254
0
VERTEX
8
CUT
10
204.6725
20
112.2080
0
VERTEX
8
CUT
10
205.0742
20
112.0714
0
VERTEX
8
CUT
10
205.8326
20
111.6423
0
VERTEX
8
CUT
10
206.5738
20
111.5614
0
VERTEX
8
CUT
10
206.7531
20
111.5004
0
VERTEX
8
CUT
10
207.9754
20
111.4053
0
VERTEX
8
CUT
10
207.9884
20
111.4069
0
VERTEX
8
CUT
10
208.2996
20
111.3730
0
VERTEX
8
CUT
10
209.6795
20
111.5898
0
SEQEND
0
POLYLINE
8
CUT
66
1
70
1
10
0.0
20
0.0
30
0.0
0
VERTEX
8
CUT
10
149.4694
20
103.9919
0
VERTEX
8
CUT
10
148.0682
20
106.6260
0
VERTEX
8
CUT
10
147.5213
20
107.3189
0
VERTEX
8
CUT
10
145.9482
20
108.3292
0
VERTEX
8
CUT
10
143.9381
20
109.0818
0
VERTEX
8
CUT
10
139.9321
20
109.2010
0
VERTEX
8
CUT
10
138.2841
20
109.0788
0
VERTEX
8
CUT
10
136.7033
20
108.7728
0
VERTEX
8
CUT
10
128.6807
20
106.2849
0
VERTEX
8
CUT
10
127.0091
20
106.0677
0
VERTEX
8
CUT
10
125.7993
20
106.3678
0
VERTEX
8
CUT
10
124.9279
20
107.4353
0
VERTEX
8
CUT
10
124.7843
20
108.4435
0
VERTEX
8
CUT
10
125.3293
20
110.0681
0
VERTEX
8
CUT
10
126.6580
20
111.9416
0
VERTEX
8
CUT
10
126.7342
20
112.0112
0
VERTEX
8
CUT
10
126.7418
20
112.0181
0
VERTEX
8
CUT
10
126.8043
20
112.0752
0
VERTEX
8
CUT
10
126.8096
20
112.0801
0
VERTEX
8
CUT
10
129.0160
20
113.6867
0
VERTEX
8
CUT
10
132.6488
20
115.2974
0
VERTEX
8
CUT
10
134.0224
20
115.7710
0
VERTEX
8
CUT
10
134.7291
20
116.1704
0
VERTEX
8
CUT
10
134.7607
20
116.2337
0
VERTEX
8
CUT
10
134.9479
20
116.3167
0
VERTEX
8
CUT
10
135.4161
20
116.8136
0
VERTEX
8
CUT
10
135.2910
20
117.3406
0
VERTEX
8
CUT
10
134.5972
20
117.9684
0
VERTEX
8
CUT
10
133.4254
20
118.4227
0
VERTEX
8
CUT
10
131.8358
20
118.7544
0
VERTEX
8
CUT
10
130.1037
20
118.8484
0
VERTEX
8
CUT
10
127.3007
20
118.4284
0
VERTEX
8
CUT
10
121.2441
20
116.8238
0
VERTEX
8
CUT
10
120.0322
20
116.8640
0
VERTEX
8
CUT
10
118.5103
20
117.5588
0
VERTEX
8
CUT
10
117.8060
20
118.3331
0
VERTEX
8
CUT
10
117.3547
20
119.4820
0
VERTEX
8
CUT
10
116.9314
20
122.8473
0
VERTEX
8
CUT
10
116.8464
20
124.3129
0
VERTEX
8
CUT
10
116.4939
20
125.1187
0
VERTEX
8
CUT
10
116.3231
20
125.7154
0
VERTEX
8
CUT
10
115.6012
20
127.0127
0
VERTEX
8
CUT
10
114.5275
20
128.1178
0
VERTEX
8
CUT
10
113.3694
20
129.0299
0
VERTEX
8
CUT
10
111.1557
20
130.1358
0
VERTEX
8
CUT
10
104.0616
20
132.6242
0
VERTEX
8
CUT
10
101.2348
20
133.9769
0
VERTEX
8
CUT
10
98.8595
20
135.5300
0
VERTEX
8
CUT
10
96.7131
20
137.3608
0
VERTEX
8
CUT
10
94.8797
20
139.4993
0
VERTEX
8
CUT
10
93.2395
20
142.0218
0
VERTEX
8
CUT
10
91.8662
20
144.8293
0
VERTEX
8
CUT
10
88.6616
20
153.0816
0
VERTEX
8
CUT
10
85.0478
20
158.8354
0
VERTEX
8
CUT
10
84.8358
20
159.6377
0
VERTEX
8
CUT
10
84.9662
20
160.3529
0
VERTEX
8
CUT
10
85.3785
20
160.8281
0
VERTEX
8
CUT
10
86.0533
20
161.1551
0
VERTEX
8
CUT
10
87.1071
20
161.3637
0
VERTEX
8
CUT
10
90.6080
20
161.3021
0
VERTEX
8
CUT
10
90.7966
20
161.2727
0
VERTEX
8
CUT
10
92.4356
20
160.9472
0
VERTEX
8
CUT
10
92.7566
20
160.8835
0
VERTEX
8
CUT
10
93.5068
20
160.7344
0
VERTEX
8
CUT
10
94.1848
20
160.5998
0
VERTEX
8
CUT
10
97.9757
20
159.5316
0
VERTEX
8
CUT
10
102.6441
20
157.4431
0
VERTEX
8
CUT
10
104.3822
20
156.4343
0
VERTEX
8
CUT
10
104.8471
20
156.1427
0
VERTEX
8
CUT
10
104.9713
20
156.0589
0
VERTEX
8
CUT
10
106.6051
20
154.7687
0
VERTEX
8
CUT
10
106.7274
20
154.6657
0
VERTEX
8
CUT
10
108.5196
20
153.0726
0
VERTEX
8
CUT
10
110.0804
20
151.3091
0
VERTEX
8
CUT
10
111.4511
20
149.5137
0
VERTEX
8
CUT
10
113.3072
20
146.1743
0
VERTEX
8
CUT
10
113.8025
20
145.0921
0
VERTEX
8
CUT
10
116.4280
20
138.8297
0
VERTEX
8
CUT
10
118.2975
20
134.9405
0
VERTEX
8
CUT
10
119.5551
20
133.0729
0
VERTEX
8
CUT
10
120.0976
20
132.1990
0
VERTEX
8
CUT
10
120.2927
20
131.9773
0
VERTEX
8
CUT
10
121.2316
20
130.5829
0
VERTEX
8
CUT
10
123.4879
20
128.4131
0
VERTEX
8
CUT
10
125.0525
20
127.2479
0
VERTEX
8
CUT
10
126.7457
20
126.3434
0
VERTEX
8
CUT
10
130.1679
20
125.1324
0
VERTEX
8
CUT
10
135.6126
20
123.5917
0
VERTEX
8
CUT
10
137.0641
20
122.9173
0
VERTEX
8
CUT
10
137.1941
20
122.8569
0
VERTEX
8
CUT
10
137.5959
20
122.6703
0
VERTEX
8
CUT
10
138.7186
20
122.1486
0
VERTEX
8
CUT
10
141.9481
20
119.9979
0
VERTEX
8
CUT
10
145.8546
20
116.9356
0
VERTEX
8
CUT
10
147.5145
20
115.6007
0
VERTEX
8
CUT
10
147.8702
20
115.3555
0
VERTEX
8
CUT
10
149.1966
20
114.3158
0
VERTEX
8
CUT
10
151.6400
20
112.9131
0
VERTEX
8
CUT
10
152.6791
20
112.5349
0
VERTEX
8
CUT
10
153.5028
20
112.1453
0
VERTEX
8
CUT
10
154.1302
20
112.0068
0
VERTEX
8
CUT
10
154.9379
20
111.7129
0
VERTEX
8
CUT
10
156.2083
20
111.5776
0
VERTEX
8
CUT
10
156.4192
20
111.5309
0
VERTEX
8
CUT
10
156.8956
20
111.5044
0
VERTEX
8
CUT
10
158.4103
20
111.3431
0
VERTEX
8
CUT
10
159.7273
20
111.5165
0
VERTEX
8
CUT
10
160.1514
20
111.5623
0
VERTEX
8
CUT
10
160.5068
20
111.5866
0
VERTEX
8
CUT
10
160.6121
20
111.6121
0
VERTEX
8
CUT
10
160.9302
20
111.6465
0
VERTEX
8
CUT
10
161.1357
20
111.7019
0
VERTEX
8
CUT
10
161.8188
20
111.7919
0
VERTEX
8
CUT
10
162.1759
20
111.9207
0
VERTEX
8
CUT
10
162.4134
20
111.9609
0
VERTEX
8
CUT
10
162.9562
20
112.1929
0
VERTEX
8
CUT
10
163.1498
20
112.2452
0
VERTEX
8
CUT
10
163.4126
20
112.3668
0
VERTEX
8
CUT
10
165.3433
20
113.0633
0
VERTEX
8
CUT
10
166.2226
20
113.5891
0
VERTEX
8
CUT
10
166.2234
20
113.5894
0
VERTEX
8
CUT
10
166.2250
20
113.5905
0
VERTEX
8
CUT
10
167.4688
20
114.3342
0
VERTEX
8
CUT
10
168.4962
20
115.1441
0
VERTEX
8
CUT
10
170.5278
20
117.2392
0
VERTEX
8
CUT
10
176.2906
20
125.1801
0
VERTEX
8
CUT
10
177.6387
20
126.8021
0
VERTEX
8
CUT
10
177.7122
20
126.8784
0
VERTEX
8
CUT
10
178.0080
20
127.1856
0
VERTEX
8
CUT
10
178.2960
20
127.4848
0
VERTEX
8
CUT
10
180.1333
20
129.3930
0
VERTEX
8
CUT
10
180.6646
20
129.8599
0
VERTEX
8
CUT
10
182.7679
20
131.3598
0
VERTEX
8
CUT
10
183.6674
20
131.7921
0
VERTEX
8
CUT
10
184.2534
20
131.8695
0
VERTEX
8
CUT
10
185.1065
20
131.5284
0
VERTEX
8
CUT
10
185.6631
20
130.9317
0
VERTEX
8
CUT
10
186.0953
20
128.7718
0
VERTEX
8
CUT
10
186.1590
20
126.2051
0
VERTEX
8
CUT
10
185.9965
20
124.2807
0
VERTEX
8
CUT
10
185.1911
20
122.1127
0
VERTEX
8
CUT
10
184.2877
20
120.5821
0
VERTEX
8
CUT
10
180.4679
20
115.6508
0
VERTEX
8
CUT
10
179.0396
20
113.2761
0
VERTEX
8
CUT
10
178.5968
20
111.6390
0
VERTEX
8
CUT
10
178.5070
20
110.1826
0
VERTEX
8
CUT
10
178.3296
20
110.0559
0
VERTEX
8
CUT
10
178.1759
20
109.0112
0
VERTEX
8
CUT
10
178.2378
20
105.8170
0
VERTEX
8
CUT
10
178.1070
20
103.6959
0
VERTEX
8
CUT
10
177.4730
20
100.4066
0
VERTEX
8
CUT
10
176.6585
20
98.7830
0
VERTEX
8
CUT
10
175.2373
20
96.8970
0
VERTEX
8
CUT
10
173.2543
20
95.2696
0
VERTEX
8
CUT
10
171.2659
20
94.4625
0
VERTEX
8
CUT
10
170.2897
20
94.3617
0
VERTEX
8
CUT
10
169.4176
20
94.5543
0
VERTEX
8
CUT
10
168.4068
20
95.4080
0
VERTEX
8
CUT
10
167.9231
20
96.4650
0
VERTEX
8
CUT
10
168.0425
20
98.7994
0
VERTEX
8
CUT
10
169.3038
20
104.1590
0
VERTEX
8
CUT
10
169.5780
20
106.0628
0
VERTEX
8
CUT
10
169.2952
20
107.5829
0
VERTEX
8
CUT
10
168.2211
20
108.4581
0
VERTEX
8
CUT
10
167.3251
20
108.3647
0
VERTEX
8
CUT
10
166.6122
20
108.0023
0
VERTEX
8
CUT
10
166.3844
20
107.8168
0
VERTEX
8
CUT
10
166.3570
20
107.8123
0
VERTEX
8
CUT
10
165.9687
20
107.4783
0
VERTEX
8
CUT
10
161.9769
20
104.2279
0
VERTEX
8
CUT
10
158.9907
20
102.3190
0
VERTEX
8
CUT
10
157.5452
20
101.6785
0
VERTEX
8
CUT
10
154.8618
20
101.1512
0
VERTEX
8
CUT
10
153.6243
20
101.2152
0
VERTEX
8
CUT
10
152.4488
20
101.5228
0
VERTEX
8
CUT
10
150.7796
20
102.4423
0
SEQEND
0
POLYLINE
8
CUT
66
1
70
1
10
0.0
20
0.0
30
0.0
0
VERTEX
8
CUT
10
159.4648
20
141.4815
0
VERTEX
8
CUT
10
166.5639
20
141.5142
0
VERTEX
8
CUT
10
169.3717
20
141.1100
0
VERTEX
8
CUT
10
171.7364
20
140.3023
0
VERTEX
8
CUT
10
173.1590
20
139.3924
0
VERTEX
8
CUT
10
174.6416
20
138.7896
0
VERTEX
8
CUT
10
175.6764
20
137.9554
0
VERTEX
8
CUT
10
176.1015
20
137.2505
0
VERTEX
8
CUT
10
176.1587
20
136.6811
0
VERTEX
8
CUT
10
175.4889
20
135.5590
0
VERTEX
8
CUT
10
174.8200
20
135.0604
0
VERTEX
8
CUT
10
174.1078
20
134.9554
0
VERTEX
8
CUT
10
173.3044
20
135.1434
0
VERTEX
8
CUT
10
173.1682
20
135.1753
0
VERTEX
8
CUT
10
173.1283
20
135.1846
0
VERTEX
8
CUT
10
172.0445
20
135.4383
0
VERTEX
8
CUT
10
169.1503
20
136.7477
0
VERTEX
8
CUT
10
165.1651
20
137.7192
0
VERTEX
8
CUT
10
161.0804
20
138.0831
0
VERTEX
8
CUT
10
158.8818
20
137.9580
0
VERTEX
8
CUT
10
156.7572
20
137.5923
0
VERTEX
8
CUT
10
154.6526
20
137.0406
0
VERTEX
8
CUT
10
150.6713
20
135.2742
0
VERTEX
8
CUT
10
148.7813
20
134.1130
0
VERTEX
8
CUT
10
147.0458
20
132.7665
0
VERTEX
8
CUT
10
143.2901
20
129.3276
0
VERTEX
8
CUT
10
142.3686
20
128.6974
0
VERTEX
8
CUT
10
140.6724
20
128.0412
0
VERTEX
8
CUT
10
139.7518
20
128.0105
0
VERTEX
8
CUT
10
137.9664
20
128.4415
0
VERTEX
8
CUT
10
134.0826
20
130.3317
0
VERTEX
8
CUT
10
132.1072
20
131.6801
0
VERTEX
8
CUT
10
131.9076
20
132.0477
0
VERTEX
8
CUT
10
131.9655
20
132.8340
0
VERTEX
8
CUT
10
132.2703
20
133.1659
0
VERTEX
8
CUT
10
133.2299
20
133.5242
0
VERTEX
8
CUT
10
137.2191
20
133.8631
0
VERTEX
8
CUT
10
137.2523
20
133.8628
0
VERTEX
8
CUT
10
137.2939
20
133.8695
0
VERTEX
8
CUT
10
138.9874
20
134.0134
0
VERTEX
8
CUT
10
140.9123
20
134.4620
0
VERTEX
8
CUT
10
144.0888
20
135.7727
0
VERTEX
8
CUT
10
147.7006
20
137.8696
0
VERTEX
8
CUT
10
151.0533
20
139.3429
0
VERTEX
8
CUT
10
151.2508
20
139.4227
0
VERTEX
8
CUT
10
151.3259
20
139.4530
0
VERTEX
8
CUT
10
151.3265
20
139.4533
0
VERTEX
8
CUT
10
151.3748
20
139.4728
0
VERTEX
8
CUT
10
156.1742
20
140.9822
0
SEQEND
0
POLYLINE
8
CUT
66
1
70
1
10
0.0
20
0.0
30
0.0
0
VERTEX
8
CUT
10
226.8880
20
175.0074
0
VERTEX
8
CUT
10
226.9031
20
174.9883
0
VERTEX
8
CUT
10
227.0303
20
174.8279
0
VERTEX
8
CUT
10
227.2338
20
174.5709
0
VERTEX
8
CUT
10
228.0744
20
173.3922
0
VERTEX
8
CUT
10
229.5845
20
170.5905
0
VERTEX
8
CUT
10
229.7736
20
170.3867
0
VERTEX
8
CUT
10
229.7653
20
170.3408
0
VERTEX
8
CUT
10
230.1032
20
169.8799
0
VERTEX
8
CUT
10
230.4919
20
169.6126
0
VERTEX
8
CUT
10
230.5755
20
169.5226
0
VERTEX
8
CUT
10
231.2195
20
169.5848
0
VERTEX
8
CUT
10
233.0122
20
170.4932
0
VERTEX
8
CUT
10
237.0964
20
172.8579
0
VERTEX
8
CUT
10
242.8342
20
176.6022
0
VERTEX
8
CUT
10
248.7366
20
181.1591
0
VERTEX
8
CUT
10
251.4942
20
183.5485
0
VERTEX
8
CUT
10
256.7479
20
188.7713
0
VERTEX
8
CUT
10
258.6143
20
190.9584
0
VERTEX
8
CUT
10
258.7896
20
191.1492
0
VERTEX
8
CUT
10
259.1127
20
191.5424
0
VERTEX
8
CUT
10
261.7365
20
194.6170
0
VERTEX
8
CUT
10
266.4387
20
200.6409
0
VERTEX
8
CUT
10
267.1956
20
201.0168
0
VERTEX
8
CUT
10
267.3027
20
200.5341
0
VERTEX
8
CUT
10
266.9100
20
199.6090
0
VERTEX
8
CUT
10
263.4870
20
193.9061
0
VERTEX
8
CUT
10
260.8361
20
190.1467
0
VERTEX
8
CUT
10
257.9248
20
186.4999
0
VERTEX
8
CUT
10
254.6582
20
182.9238
0
VERTEX
8
CUT
10
251.1304
20
179.4581
0
VERTEX
8
CUT
10
247.3130
20
176.1339
0
VERTEX
8
CUT
10
243.2649
20
172.9445
0
VERTEX
8
CUT
10
238.9543
20
169.8956
0
VERTEX
8
CUT
10
232.5065
20
165.6751
0
VERTEX
8
CUT
10
231.9413
20
165.3567
0
VERTEX
8
CUT
10
231.8350
20
165.2356
0
VERTEX
8
CUT
10
231.3093
20
164.8915
0
VERTEX
8
CUT
10
230.9889
20
164.2688
0
VERTEX
8
CUT
10
231.2091
20
163.2210
0
VERTEX
8
CUT
10
231.2047
20
163.1511
0
VERTEX
8
CUT
10
231.2500
20
163.0261
0
VERTEX
8
CUT
10
231.3408
20
162.5939
0
VERTEX
8
CUT
10
231.4600
20
162.4473
0
VERTEX
8
CUT
10
231.5556
20
162.1836
0
VERTEX
8
CUT
10
231.9097
20
161.8564
0
VERTEX
8
CUT
10
232.4330
20
161.7535
0
VERTEX
8
CUT
10
232.9970
20
161.9176
0
VERTEX
8
CUT
10
235.6489
20
162.4648
0
VERTEX
8
CUT
10
240.6781
20
163.9988
0
VERTEX
8
CUT
10
245.5825
20
165.8079
0
VERTEX
8
CUT
10
250.3350
20
167.8630
0
VERTEX
8
CUT
10
254.9618
20
170.2231
0
VERTEX
8
CUT
10
259.4791
20
172.8480
0
VERTEX
8
CUT
10
263.8957
20
175.7915
0
VERTEX
8
CUT
10
268.2357
20
179.0235
0
VERTEX
8
CUT
10
274.6259
20
184.3685
0
VERTEX
8
CUT
10
275.3509
20
184.7603
0
VERTEX
8
CUT
10
275.6938
20
184.3751
0
VERTEX
8
CUT
10
275.4698
20
183.7319
0
VERTEX
8
CUT
10
274.0266
20
181.7083
0
VERTEX
8
CUT
10
271.5735
20
179.0062
0
VERTEX
8
CUT
10
268.6089
20
176.1974
0
VERTEX
8
CUT
10
261.3583
20
170.5444
0
VERTEX
8
CUT
10
257.5083
20
168.0180
0
VERTEX
8
CUT
10
253.4198
20
165.6948
0
VERTEX
8
CUT
10
244.6019
20
161.6085
0
VERTEX
8
CUT
10
231.6841
20
157.0541
0
VERTEX
8
CUT
10
231.4305
20
156.8643
0
VERTEX
8
CUT
10
230.8850
20
156.6771
0
VERTEX
8
CUT
10
230.6194
20
156.2576
0
VERTEX
8
CUT
10
230.4331
20
156.1183
0
VERTEX
8
CUT
10
230.3594
20
155.8470
0
VERTEX
8
CUT
10
230.3469
20
155.8273
0
VERTEX
8
CUT
10
230.3474
20
155.8030
0
VERTEX
8
CUT
10
230.0650
20
154.7635
0
VERTEX
8
CUT
10
230.4348
20
154.2108
0
VERTEX
8
CUT
10
231.0478
20
153.8220
0
VERTEX
8
CUT
10
233.4695
20
153.4360
0
VERTEX
8
CUT
10
240.9283
20
153.7423
0
VERTEX
8
CUT
10
248.9155
20
154.6026
0
VERTEX
8
CUT
10
252.6579
20
155.2167
0
VERTEX
8
CUT
10
259.7662
20
156.9333
0
VERTEX
8
CUT
10
265.1614
20
158.7476
0
VERTEX
8
CUT
10
265.8149
20
158.9499
0
VERTEX
8
CUT
10
266.0666
20
159.0521
0
VERTEX
8
CUT
10
266.6775
20
159.2575
0
VERTEX
8
CUT
10
274.2769
20
162.3035
0
VERTEX
8
CUT
10
274.6774
20
162.2886
0
VERTEX
8
CUT
10
274.8682
20
161.7755
0
VERTEX
8
CUT
10
274.3451
20
161.1958
0
VERTEX
8
CUT
10
271.8738
20
159.4362
0
VERTEX
8
CUT
10
266.1841
20
156.2377
0
VERTEX
8
CUT
10
261.0061
20
153.9868
0
VERTEX
8
CUT
10
257.7078
20
152.8456
0
VERTEX
8
CUT
10
250.7723
20
151.0872
0
VERTEX
8
CUT
10
243.0691
20
149.9768
0
VERTEX
8
CUT
10
238.7748
20
149.6367
0
VERTEX
8
CUT
10
227.9408
20
149.2361
0
VERTEX
8
CUT
10
225.0201
20
145.9725
0
VERTEX
8
CUT
10
222.6819
20
143.8802
0
VERTEX
8
CUT
10
221.3933
20
143.2461
0
VERTEX
8
CUT
10
220.6479
20
143.1859
0
VERTEX
8
CUT
10
219.7359
20
143.4343
0
VERTEX
8
CUT
10
218.7301
20
144.0235
0
VERTEX
8
CUT
10
217.7370
20
145.2653
0
VERTEX
8
CUT
10
214.1545
20
151.8390
0
VERTEX
8
CUT
10
213.3091
20
154.2104
0
VERTEX
8
CUT
10
213.2099
20
154.6382
0
VERTEX
8
CUT
10
213.0255
20
156.0520
0
VERTEX
8
CUT
10
213.0268
20
157.0493
0
VERTEX
8
CUT
10
213.0479
20
157.4097
0
VERTEX
8
CUT
10
213.0785
20
157.9311
0
VERTEX
8
CUT
10
213.0792
20
157.9429
0
VERTEX
8
CUT
10
213.0797
20
157.9529
0
VERTEX
8
CUT
10
213.0803
20
157.9620
0
VERTEX
8
CUT
10
213.5750
20
160.6962
0
VERTEX
8
CUT
10
213.5858
20
160.7447
0
VERTEX
8
CUT
10
213.7692
20
161.2419
0
VERTEX
8
CUT
10
214.6788
20
163.2203
0
VERTEX
8
CUT
10
218.2493
20
169.2246
0
VERTEX
8
CUT
10
221.6867
20
176.4474
0
VERTEX
8
CUT
10
222.1219
20
176.9222
0
VERTEX
8
CUT
10
222.9065
20
177.1916
0
VERTEX
8
CUT
10
223.9580
20
177.0618
0
VERTEX
8
CUT
10
225.2002
20
176.5843
0
VERTEX
8
CUT
10
226.8840
20
175.0125
0
SEQEND
0
POLYLINE
8
CUT
66
1
70
1
10
0.0
20
0.0
30
0.0
0
VERTEX
8
CUT
10
119.6291
20
234.0277
0
VERTEX
8
CUT
10
118.6588
20
237.8554
0
VERTEX
8
CUT
10
118.6246
20
238.0172
0
VERTEX
8
CUT
10
118.5535
20
238.3534
0
VERTEX
8
CUT
10
118.5479
20
238.3798
0
VERTEX
8
CUT
10
118.5194
20
238.5145
0
VERTEX
8
CUT
10
117.8359
20
244.3412
0
VERTEX
8
CUT
10
117.9306
20
250.2673
0
VERTEX
8
CUT
10
118.1549
20
251.7450
0
VERTEX
8
CUT
10
118.7380
20
253.1316
0
VERTEX
8
CUT
10
118.7390
20
253.1333
0
VERTEX
8
CUT
10
118.7429
20
253.1394
0
VERTEX
8
CUT
10
118.7434
20
253.1402
0
VERTEX
8
CUT
10
118.8206
20
253.2621
0
VERTEX
8
CUT
10
118.8532
20
253.3136
0
VERTEX
8
CUT
10
119.9519
20
254.1672
0
VERTEX
8
CUT
10
120.8362
20
254.0874
0
VERTEX
8
CUT
10
121.4378
20
253.5197
0
VERTEX
8
CUT
10
121.4927
20
253.4440
0
VERTEX
8
CUT
10
121.5150
20
253.4133
0
VERTEX
8
CUT
10
121.5752
20
253.3303
0
VERTEX
8
CUT
10
121.6597
20
253.2140
0
VERTEX
8
CUT
10
122.3027
20
251.0533
0
VERTEX
8
CUT
10
124.7619
20
238.6364
0
VERTEX
8
CUT
10
125.3630
20
236.3839
0
VERTEX
8
CUT
10
125.4386
20
236.0215
0
VERTEX
8
CUT
10
125.6615
20
235.2656
0
VERTEX
8
CUT
10
126.5692
20
231.8647
0
VERTEX
8
CUT
10
127.6473
20
228.6919
0
VERTEX
8
CUT
10
128.4006
20
226.8614
0
VERTEX
8
CUT
10
128.6601
20
226.1454
0
VERTEX
8
CUT
10
130.0799
20
222.7803
0
VERTEX
8
CUT
10
130.2770
20
222.3014
0
VERTEX
8
CUT
10
130.3119
20
222.2303
0
VERTEX
8
CUT
10
130.5615
20
221.6387
0
VERTEX
8
CUT
10
131.4712
20
219.8747
0
VERTEX
8
CUT
10
133.1904
20
216.3812
0
VERTEX
8
CUT
10
134.1121
20
214.7534
0
VERTEX
8
CUT
10
135.0899
20
212.8574
0
VERTEX
8
CUT
10
137.7572
20
208.5334
0
VERTEX
8
CUT
10
138.5932
20
207.3738
0
VERTEX
8
CUT
10
138.8302
20
207.0006
0
VERTEX
8
CUT
10
139.1719
20
206.5228
0
VERTEX
8
CUT
10
140.9185
20
203.8365
0
VERTEX
8
CUT
10
144.3610
20
199.2878
0
VERTEX
8
CUT
10
147.9161
20
195.2124
0
VERTEX
8
CUT
10
148.8884
20
194.2155
0
VERTEX
8
CUT
10
151.8755
20
191.0079
0
VERTEX
8
CUT
10
156.3759
20
186.7416
0
VERTEX
8
CUT
10
157.7284
20
185.4308
0
VERTEX
8
CUT
10
161.8157
20
181.8359
0
VERTEX
8
CUT
10
163.8488
20
180.3695
0
VERTEX
8
CUT
10
164.6564
20
179.6815
0
VERTEX
8
CUT
10
164.8991
20
179.5669
0
VERTEX
8
CUT
10
164.9574
20
179.5185
0
VERTEX
8
CUT
10
165.6393
20
179.0780
0
VERTEX
8
CUT
10
165.8086
20
178.9560
0
VERTEX
8
CUT
10
166.6677
20
178.2970
0
VERTEX
8
CUT
10
166.9451
20
178.1362
0
VERTEX
8
CUT
10
169.2856
20
176.4481
0
VERTEX
8
CUT
10
176.6741
20
171.7875
0
VERTEX
8
CUT
10
178.4542
20
170.9505
0
VERTEX
8
CUT
10
178.6983
20
170.8324
0
VERTEX
8
CUT
10
178.7037
20
170.8332
0
VERTEX
8
CUT
10
179.0728
20
170.6596
0
VERTEX
8
CUT
10
179.2609
20
170.7666
0
VERTEX
8
CUT
10
179.4795
20
170.7634
0
VERTEX
8
CUT
10
179.7363
20
170.9850
0
VERTEX
8
CUT
10
179.7430
20
170.9860
0
VERTEX
8
CUT
10
179.7573
20
171.0031
0
VERTEX
8
CUT
10
179.8158
20
171.0537
0
VERTEX
8
CUT
10
179.8392
20
171.0954
0
VERTEX
8
CUT
10
180.1037
20
171.2458
0
VERTEX
8
CUT
10
180.3102
20
171.7235
0
VERTEX
8
CUT
10
179.9269
20
172.2571
0
VERTEX
8
CUT
10
172.0878
20
179.8507
0
VERTEX
8
CUT
10
167.1178
20
185.2195
0
VERTEX
8
CUT
10
162.6248
20
190.6348
0
VERTEX
8
CUT
10
158.6828
20
196.0843
0
VERTEX
8
CUT
10
155.2490
20
201.5299
0
VERTEX
8
CUT
10
152.4296
20
206.9236
0
VERTEX
8
CUT
10
150.1792
20
212.2532
0
VERTEX
8
CUT
10
148.5336
20
217.5304
0
VERTEX
8
CUT
10
147.7972
20
221.3092
0
VERTEX
8
CUT
10
147.7241
20
222.0432
0
VERTEX
8
CUT
10
147.5176
20
225.0263
0
VERTEX
8
CUT
10
147.8046
20
227.5348
0
VERTEX
8
CUT
10
147.8170
20
227.5891
0
VERTEX
8
CUT
10
147.8208
20
227.6060
0
VERTEX
8
CUT
10
147.8224
20
227.6127
0
VERTEX
8
CUT
10
147.8317
20
227.6536
0
VERTEX
8
CUT
10
148.1296
20
228.3152
0
VERTEX
8
CUT
10
148.1571
20
228.3397
0
VERTEX
8
CUT
10
148.1605
20
228.3428
0
VERTEX
8
CUT
10
148.1966
20
228.3750
0
VERTEX
8
CUT
10
148.2861
20
228.4549
0
VERTEX
8
CUT
10
149.0168
20
228.6790
0
VERTEX
8
CUT
10
149.0181
20
228.6784
0
VERTEX
8
CUT
10
149.0211
20
228.6769
0
VERTEX
8
CUT
10
149.0231
20
228.6760
0
VERTEX
8
CUT
10
149.0700
20
228.6534
0
VERTEX
8
CUT
10
149.6155
20
228.1995
0
VERTEX
8
CUT
10
150.0992
20
227.2396
0
VERTEX
8
CUT
10
154.0956
20
214.5772
0
VERTEX
8
CUT
10
155.2000
20
211.9941
0
VERTEX
8
CUT
10
155.6055
20
210.9400
0
VERTEX
8
CUT
10
156.2360
20
209.5710
0
VERTEX
8
CUT
10
157.8132
20
205.8820
0
VERTEX
8
CUT
10
159.9296
20
201.8042
0
VERTEX
8
CUT
10
161.5900
20
199.1660
0
VERTEX
8
CUT
10
161.8196
20
198.7567
0
VERTEX
8
CUT
10
162.9170
20
197.0573
0
VERTEX
8
CUT
10
164.9151
20
193.8826
0
VERTEX
8
CUT
10
167.8399
20
189.9111
0
VERTEX
8
CUT
10
170.8591
20
186.4043
0
VERTEX
8
CUT
10
172.0996
20
185.1380
0
VERTEX
8
CUT
10
173.2574
20
183.8214
0
VERTEX
8
CUT
10
175.9524
20
181.0122
0
VERTEX
8
CUT
10
176.1482
20
181.0053
0
VERTEX
8
CUT
10
176.7881
20
180.3521
0
VERTEX
8
CUT
10
178.4476
20
178.7859
0
VERTEX
8
CUT
10
180.2007
20
177.4582
0
VERTEX
8
CUT
10
180.6877
20
177.5112
0
VERTEX
8
CUT
10
180.9838
20
177.9333
0
VERTEX
8
CUT
10
181.2245
20
180.2857
0
VERTEX
8
CUT
10
184.6726
20
180.1676
0
VERTEX
8
CUT
10
188.3556
20
178.9831
0
VERTEX
8
CUT
10
188.7854
20
178.8189
0
VERTEX
8
CUT
10
194.5494
20
175.8597
0
VERTEX
8
CUT
10
197.7111
20
173.7110
0
VERTEX
8
CUT
10
200.6979
20
171.2807
0
VERTEX
8
CUT
10
200.9727
20
171.0413
0
VERTEX
8
CUT
10
205.9154
20
166.2192
0
VERTEX
8
CUT
10
208.6653
20
162.8534
0
VERTEX
8
CUT
10
209.6434
20
161.3047
0
VERTEX
8
CUT
10
209.6488
20
161.2945
0
VERTEX
8
CUT
10
209.6500
20
161.2921
0
VERTEX
8
CUT
10
209.6505
20
161.2912
0
VERTEX
8
CUT
10
209.6523
20
161.2879
0
VERTEX
8
CUT
10
210.8188
20
158.3716
0
VERTEX
8
CUT
10
211.1094
20
156.7848
0
VERTEX
8
CUT
10
211.1680
20
154.2985
0
VERTEX
8
CUT
10
210.6789
20
151.9734
0
VERTEX
8
CUT
10
210.6658
20
151.9349
0
VERTEX
8
CUT
10
210.2010
20
151.0161
0
VERTEX
8
CUT
10
209.2673
20
149.7120
0
VERTEX
8
CUT
10
208.9422
20
149.2815
0
VERTEX
8
CUT
10
208.8168
20
149.1274
0
VERTEX
8
CUT
10
208.6039
20
148.9280
0
VERTEX
8
CUT
10
207.7327
20
148.2028
0
VERTEX
8
CUT
10
206.5006
20
147.1990
0
VERTEX
8
CUT
10
206.1403
20
146.9586
0
VERTEX
8
CUT
10
204.2701
20
145.9401
0
VERTEX
8
CUT
10
203.5590
20
145.5908
0
VERTEX
8
CUT
10
199.0440
20
144.1165
0
VERTEX
8
CUT
10
196.6575
20
143.7113
0
VERTEX
8
CUT
10
194.3289
20
143.5845
0
VERTEX
8
CUT
10
192.0933
20
143.7063
0
VERTEX
8
CUT
10
187.3622
20
144.6070
0
VERTEX
8
CUT
10
182.5791
20
146.0894
0
VERTEX
8
CUT
10
178.0950
20
147.9936
0
VERTEX
8
CUT
10
176.0640
20
149.0562
0
VERTEX
8
CUT
10
172.8737
20
151.1959
0
VERTEX
8
CUT
10
170.9023
20
153.0441
0
VERTEX
8
CUT
10
168.9500
20
155.2889
0
VERTEX
8
CUT
10
168.8689
20
155.4056
0
VERTEX
8
CUT
10
168.4331
20
155.6663
0
VERTEX
8
CUT
10
168.1576
20
155.7561
0
VERTEX
8
CUT
10
167.5161
20
156.0967
0
VERTEX
8
CUT
10
128.8598
20
166.2689
0
VERTEX
8
CUT
10
116.8143
20
170.0792
0
VERTEX
8
CUT
10
107.3672
20
173.8635
0
VERTEX
8
CUT
10
97.5497
20
178.8175
0
VERTEX
8
CUT
10
92.3922
20
181.8440
0
VERTEX
8
CUT
10
87.6518
20
184.9536
0
VERTEX
8
CUT
10
83.3277
20
188.1124
0
VERTEX
8
CUT
10
79.4173
20
191.3137
0
VERTEX
8
CUT
10
75.9735
20
194.5717
0
VERTEX
8
CUT
10
73.0961
20
197.7552
0
VERTEX
8
CUT
10
70.7191
20
200.9014
0
VERTEX
8
CUT
10
68.8669
20
204.5700
0
VERTEX
8
CUT
10
68.5822
20
206.3879
0
VERTEX
8
CUT
10
68.5825
20
206.3890
0
VERTEX
8
CUT
10
68.6069
20
206.4488
0
VERTEX
8
CUT
10
68.6816
20
206.6312
0
VERTEX
8
CUT
10
68.7635
20
206.8313
0
VERTEX
8
CUT
10
69.0526
20
207.5377
0
VERTEX
8
CUT
10
69.0852
20
207.5813
0
VERTEX
8
CUT
10
69.2389
20
207.6941
0
VERTEX
8
CUT
10
69.2847
20
207.7277
0
VERTEX
8
CUT
10
69.2857
20
207.7284
0
VERTEX
8
CUT
10
69.2981
20
207.7375
0
VERTEX
8
CUT
10
70.3262
20
208.0665
0
VERTEX
8
CUT
10
70.9351
20
207.9875
0
VERTEX
8
CUT
10
72.2919
20
207.3095
0
VERTEX
8
CUT
10
72.3048
20
207.3002
0
VERTEX
8
CUT
10
78.6630
20
201.7834
0
VERTEX
8
CUT
10
81.7571
20
198.9776
0
VERTEX
8
CUT
10
86.2431
20
195.1983
0
VERTEX
8
CUT
10
86.3067
20
195.1510
0
VERTEX
8
CUT
10
87.4738
20
194.1384
0
VERTEX
8
CUT
10
92.5698
20
190.4241
0
VERTEX
8
CUT
10
94.1444
20
189.2200
0
VERTEX
8
CUT
10
95.9225
20
188.0824
0
VERTEX
8
CUT
10
102.8129
20
183.6454
0
VERTEX
8
CUT
10
103.5203
20
183.2422
0
VERTEX
8
CUT
10
103.8492
20
183.0307
0
VERTEX
8
CUT
10
104.6012
20
182.6262
0
VERTEX
8
CUT
10
108.3048
20
180.5154
0
VERTEX
8
CUT
10
113.9962
20
177.5928
0
VERTEX
8
CUT
10
118.5122
20
175.5230
0
VERTEX
8
CUT
10
118.5978
20
175.4413
0
VERTEX
8
CUT
10
119.1354
20
175.2374
0
VERTEX
8
CUT
10
119.8722
20
174.8997
0
VERTEX
8
CUT
10
126.1160
20
172.3467
0
VERTEX
8
CUT
10
132.7150
20
169.9222
0
VERTEX
8
CUT
10
139.8055
20
167.5896
0
VERTEX
8
CUT
10
150.6032
20
164.4300
0
VERTEX
8
CUT
10
161.3277
20
161.7257
0
VERTEX
8
CUT
10
170.4349
20
159.7019
0
VERTEX
8
CUT
10
173.5266
20
159.3073
0
VERTEX
8
CUT
10
173.5786
20
159.3151
0
VERTEX
8
CUT
10
173.6175
20
159.3077
0
VERTEX
8
CUT
10
174.1745
20
159.3237
0
VERTEX
8
CUT
10
174.3118
20
159.4256
0
VERTEX
8
CUT
10
174.3214
20
159.4271
0
VERTEX
8
CUT
10
174.7698
20
159.7128
0
VERTEX
8
CUT
10
174.9216
20
160.0850
0
VERTEX
8
CUT
10
174.7942
20
160.5680
0
VERTEX
8
CUT
10
173.6321
20
161.7450
0
VERTEX
8
CUT
10
170.5156
20
163.3365
0
VERTEX
8
CUT
10
152.6577
20
173.5099
0
VERTEX
8
CUT
10
141.9963
20
179.9313
0
VERTEX
8
CUT
10
137.4359
20
183.0738
0
VERTEX
8
CUT
10
128.4855
20
189.9017
0
VERTEX
8
CUT
10
122.6110
20
194.9762
0
VERTEX
8
CUT
10
118.3019
20
199.1307
0
VERTEX
8
CUT
10
114.2393
20
203.4389
0
VERTEX
8
CUT
10
110.4827
20
207.8720
0
VERTEX
8
CUT
10
107.0047
20
212.3958
0
VERTEX
8
CUT
10
103.8640
20
216.9825
0
VERTEX
8
CUT
10
101.0796
20
221.6540
0
VERTEX
8
CUT
10
97.9087
20
227.9359
0
VERTEX
8
CUT
10
96.7240
20
230.8520
0
VERTEX
8
CUT
10
96.7064
20
230.9007
0
VERTEX
8
CUT
10
96.7059
20
230.9020
0
VERTEX
8
CUT
10
96.7051
20
230.9043
0
VERTEX
8
CUT
10
95.9003
20
233.5353
0
VERTEX
8
CUT
10
95.4394
20
235.9316
0
VERTEX
8
CUT
10
95.2820
20
238.2512
0
VERTEX
8
CUT
10
95.3742
20
240.5002
0
VERTEX
8
CUT
10
95.3827
20
240.5213
0
VERTEX
8
CUT
10
95.9635
20
241.5922
0
VERTEX
8
CUT
10
96.2193
20
241.7814
0
VERTEX
8
CUT
10
96.6314
20
242.0101
0
VERTEX
8
CUT
10
96.9624
20
242.1179
0
VERTEX
8
CUT
10
97.1741
20
242.1309
0
VERTEX
8
CUT
10
97.1947
20
242.1295
0
VERTEX
8
CUT
10
97.4480
20
242.0716
0
VERTEX
8
CUT
10
97.6881
20
241.9739
0
VERTEX
8
CUT
10
98.2106
20
241.6399
0
VERTEX
8
CUT
10
98.4833
20
241.4018
0
VERTEX
8
CUT
10
99.0213
20
240.7360
0
VERTEX
8
CUT
10
99.3135
20
240.3201
0
VERTEX
8
CUT
10
100.3975
20
238.1558
0
VERTEX
8
CUT
10
104.8633
20
228.7596
0
VERTEX
8
CUT
10
107.3462
20
224.0077
0
VERTEX
8
CUT
10
112.8347
20
215.1751
0
VERTEX
8
CUT
10
115.9125
20
210.9583
0
VERTEX
8
CUT
10
119.2131
20
206.8632
0
VERTEX
8
CUT
10
120.1164
20
205.8867
0
VERTEX
8
CUT
10
120.7153
20
205.1466
0
VERTEX
8
CUT
10
126.0389
20
199.3616
0
VERTEX
8
CUT
10
131.8357
20
193.8416
0
VERTEX
8
CUT
10
132.7440
20
193.0662
0
VERTEX
8
CUT
10
134.6576
20
191.2649
0
VERTEX
8
CUT
10
138.6151
20
187.9521
0
VERTEX
8
CUT
10
146.9612
20
181.7240
0
VERTEX
8
CUT
10
150.7084
20
179.3383
0
VERTEX
8
CUT
10
151.1676
20
178.9748
0
VERTEX
8
CUT
10
154.0251
20
177.1927
0
VERTEX
8
CUT
10
154.5151
20
176.9148
0
VERTEX
8
CUT
10
156.4933
20
175.6554
0
VERTEX
8
CUT
10
161.9282
20
172.5232
0
VERTEX
8
CUT
10
169.2103
20
168.6825
0
VERTEX
8
CUT
10
173.6545
20
166.6782
0
VERTEX
8
CUT
10
174.2170
20
166.9856
0
VERTEX
8
CUT
10
174.7298
20
167.6374
0
VERTEX
8
CUT
10
174.5008
20
168.2360
0
VERTEX
8
CUT
10
173.9930
20
168.7287
0
VERTEX
8
CUT
10
173.9730
20
168.7431
0
VERTEX
8
CUT
10
173.8320
20
168.9238
0
VERTEX
8
CUT
10
173.3330
20
169.2035
0
VERTEX
8
CUT
10
160.1734
20
178.6698
0
VERTEX
8
CUT
10
158.0104
20
180.3894
0
VERTEX
8
CUT
10
154.9894
20
182.8455
0
VERTEX
8
CUT
10
146.3527
20
190.7839
0
VERTEX
8
CUT
10
145.9239
20
191.2429
0
VERTEX
8
CUT
10
144.9284
20
192.3084
0
VERTEX
8
CUT
10
142.3356
20
195.0836
0
VERTEX
8
CUT
10
141.3706
20
196.1165
0
VERTEX
8
CUT
10
138.6476
20
199.2515
0
VERTEX
8
CUT
10
135.2919
20
203.5317
0
VERTEX
8
CUT
10
129.4455
20
212.2411
0
VERTEX
8
CUT
10
126.8893
20
216.6154
0
VERTEX
8
CUT
10
124.6513
20
220.9689
0
VERTEX
8
CUT
10
122.7097
20
225.3435
0
VERTEX
8
CUT
10
121.0160
20
229.7149
0
SEQEND
0
POLYLINE
8
CUT
66
1
70
1
10
0.0
20
0.0
30
0.0
0
VERTEX
8
CUT
10
191.9359
20
162.1858
0
VERTEX
8
CUT
10
191.3412
20
161.9797
0
VERTEX
8
CUT
10
190.6654
20
161.1992
0
VERTEX
8
CUT
10
191.0699
20
160.3900
0
VERTEX
8
CUT
10
191.7622
20
159.9404
0
VERTEX
8
CUT
10
192.5882
20
160.1076
0
VERTEX
8
CUT
10
193.2155
20
160.8569
0
VERTEX
8
CUT
10
192.9305
20
161.4656
0
SEQEND
0
POLYLINE
8
CUT
66
1
70
1
10
0.0
20
0.0
30
0.0
0
VERTEX
8
CUT
10
191.0863
20
153.8365
0
VERTEX
8
CUT
10
190.7909
20
154.5374
0
VERTEX
8
CUT
10
189.9968
20
155.1023
0
VERTEX
8
CUT
10
189.0854
20
154.7226
0
VERTEX
8
CUT
10
188.7761
20
154.0227
0
VERTEX
8
CUT
10
189.1706
20
153.1051
0
VERTEX
8
CUT
10
190.0077
20
152.8214
0
VERTEX
8
CUT
10
190.8282
20
153.1537
0
SEQEND
0
POLYLINE
8
CUT
66
1
70
1
10
0.0
20
0.0
30
0.0
0
VERTEX
8
CUT
10
189.5172
20
170.7935
0
VERTEX
8
CUT
10
188.9135
20
170.4885
0
VERTEX
8
CUT
10
188.2096
20
169.5912
0
VERTEX
8
CUT
10
188.7372
20
168.7135
0
VERTEX
8
CUT
10
189.6083
20
168.1993
0
VERTEX
8
CUT
10
190.3175
20
168.5527
0
VERTEX
8
CUT
10
190.7951
20
169.3139
0
VERTEX
8
CUT
10
190.2808
20
170.2571
0
SEQEND
0
POLYLINE
8
CUT
66
1
70
1
10
0.0
20
0.0
30
0.0
0
VERTEX
8
CUT
10
184.6457
20
163.1290
0
VERTEX
8
CUT
10
185.2066
20
164.0952
0
VERTEX
8
CUT
10
184.9060
20
164.7275
0
VERTEX
8
CUT
10
183.8559
20
165.5609
0
VERTEX
8
CUT
10
183.2002
20
165.2600
0
VERTEX
8
CUT
10
182.4502
20
164.3830
0
VERTEX
8
CUT
10
182.4679
20
164.0538
0
VERTEX
8
CUT
10
182.9884
20
163.3400
0
VERTEX
8
CUT
10
183.9202
20
162.9425
0
SEQEND
0
POLYLINE
8
CUT
66
1
70
1
10
0.0
20
0.0
30
0.0
0
VERTEX
8
CUT
10
181.1580
20
156.4219
0
VERTEX
8
CUT
10
181.7521
20
155.5723
0
VERTEX
8
CUT
10
182.6372
20
155.3125
0
VERTEX
8
CUT
10
183.4108
20
155.8135
0
VERTEX
8
CUT
10
183.7057
20
156.6559
0
VERTEX
8
CUT
10
182.7916
20
157.5180
0
VERTEX
8
CUT
10
181.8720
20
157.5615
0
VERTEX
8
CUT
10
181.2312
20
157.0931
0
SEQEND
0
ENDSEC
0
EOF
