0
SECTION
2
HEADER
9
$ACADVER
1
AC1009
9
$INSUNITS
70
4
0
ENDSEC
0
SECTION
2
TABLES
0
TABLE
2
LAYER
70
1
0
LAYER
2
CUT
70
0
62
7
6
CONTINUOUS
0
ENDTAB
0
ENDSEC
0
SECTION
2
ENTITIES
0
POLYLINE
8
CUT
66
1
70
1
10
0.0
20
0.0
30
0.0
0
VERTEX
8
CUT
10
299.5638
20
299.7853
0
VERTEX
8
CUT
10
299.6800
20
299.6800
0
VERTEX
8
CUT
10
299.7853
20
299.5638
0
VERTEX
8
CUT
10
299.8787
20
299.4378
0
VERTEX
8
CUT
10
299.9594
20
299.3033
0
VERTEX
8
CUT
10
300.0264
20
299.1616
0
VERTEX
8
CUT
10
300.0793
20
299.0139
0
VERTEX
8
CUT
10
300.1174
20
298.8618
0
VERTEX
8
CUT
10
300.1404
20
298.7066
0
VERTEX
8
CUT
10
300.1500
20
298.5107
0
VERTEX
8
CUT
10
300.1500
20
1.4893
0
VERTEX
8
CUT
10
300.1404
20
1.2934
0
VERTEX
8
CUT
10
300.1174
20
1.1382
0
VERTEX
8
CUT
10
300.0793
20
0.9861
0
VERTEX
8
CUT
10
300.0264
20
0.8384
0
VERTEX
8
CUT
10
299.9594
20
0.6967
0
VERTEX
8
CUT
10
299.8787
20
0.5622
0
VERTEX
8
CUT
10
299.7853
20
0.4362
0
VERTEX
8
CUT
10
299.6800
20
0.3200
0
VERTEX
8
CUT
10
299.5638
20
0.2147
0
VERTEX
8
CUT
10
299.4378
20
0.1213
0
VERTEX
8
CUT
10
299.3033
20
0.0406
0
VERTEX
8
CUT
10
299.1616
20
-0.0264
0
VERTEX
8
CUT
10
299.0139
20
-0.0793
0
VERTEX
8
CUT
10
298.8618
20
-0.1174
0
VERTEX
8
CUT
10
298.7066
20
-0.1404
0
VERTEX
8
CUT
10
298.5107
20
-0.1500
0
VERTEX
8
CUT
10
1.4893
20
-0.1500
0
VERTEX
8
CUT
10
1.2934
20
-0.1404
0
VERTEX
8
CUT
10
1.1382
20
-0.1174
0
VERTEX
8
CUT
10
0.9861
20
-0.0793
0
VERTEX
8
CUT
10
0.8384
20
-0.0264
0
VERTEX
8
CUT
10
0.6967
20
0.0406
0
VERTEX
8
CUT
10
0.5622
20
0.1213
0
VERTEX
8
CUT
10
0.4362
20
0.2147
0
VERTEX
8
CUT
10
0.3200
20
0.3200
0
VERTEX
8
CUT
10
0.2147
20
0.4362
0
VERTEX
8
CUT
10
0.1213
20
0.5622
0
VERTEX
8
CUT
10
0.0406
20
0.6967
0
VERTEX
8
CUT
10
-0.0264
20
0.8384
0
VERTEX
8
CUT
10
-0.0793
20
0.9861
0
VERTEX
8
CUT
10
-0.1174
20
1.1382
0
VERTEX
8
CUT
10
-0.1404
20
1.2934
0
VERTEX
8
CUT
10
-0.1500
20
1.4893
0
VERTEX
8
CUT
10
-0.1500
20
298.5107
0
VERTEX
8
CUT
10
-0.1404
20
298.7066
0
VERTEX
8
CUT
10
-0.1174
20
298.8618
0
VERTEX
8
CUT
10
-0.0793
20
299.0139
0
VERTEX
8
CUT
10
-0.0264
20
299.1616
0
VERTEX
8
CUT
10
0.0406
20
299.3033
0
VERTEX
8
CUT
10
0.1213
20
299.4378
0
VERTEX
8
CUT
10
0.2147
20
299.5638
0
VERTEX
8
CUT
10
0.3200
20
299.6800
0
VERTEX
8
CUT
10
0.4362
20
299.7853
0
VERTEX
8
CUT
10
0.5622
20
299.8787
0
VERTEX
8
CUT
10
0.6967
20
299.9594
0
VERTEX
8
CUT
10
0.8384
20
300.0264
0
VERTEX
8
CUT
10
0.9861
20
300.0793
0
VERTEX
8
CUT
10
1.1382
20
300.1174
0
VERTEX
8
CUT
10
1.2934
20
300.1404
0
VERTEX
8
CUT
10
1.4893
20
300.1500
0
VERTEX
8
CUT
10
298.5107
20
300.1500
0
VERTEX
8
CUT
10
298.7066
20
300.1404
0
VERTEX
8
CUT
10
298.8618
20
300.1174
0
VERTEX
8
CUT
10
299.0139
20
300.0793
0
VERTEX
8
CUT
10
299.1616
20
300.0264
0
VERTEX
8
CUT
10
299.3033
20
299.9594
0
VERTEX
8
CUT
10
299.4378
20
299.8787
0
SEQEND
0
POLYLINE
8
CUT
66
1
70
1
10
0.0
20
0.0
30
0.0
0
VERTEX
8
CUT
10
182.3323
20
244.2498
0
VERTEX
8
CUT
10
182.3121
20
244.2609
0
VERTEX
8
CUT
10
182.3103
20
244.2579
0
VERTEX
8
CUT
10
182.3098
20
244.2581
0
VERTEX
8
CUT
10
181.9536
20
243.6643
0
VERTEX
8
CUT
10
181.9330
20
243.6305
0
VERTEX
8
CUT
10
181.8978
20
243.5741
0
VERTEX
8
CUT
10
181.8698
20
243.5305
0
VERTEX
8
CUT
10
181.8064
20
243.4403
0
VERTEX
8
CUT
10
181.6700
20
243.2594
0
VERTEX
8
CUT
10
181.5662
20
243.1314
0
VERTEX
8
CUT
10
181.5375
20
243.0986
0
VERTEX
8
CUT
10
181.4977
20
243.0543
0
VERTEX
8
CUT
10
181.4765
20
243.0312
0
VERTEX
8
CUT
10
181.4596
20
243.0131
0
VERTEX
8
CUT
10
180.1845
20
241.6583
0
VERTEX
8
CUT
10
180.1632
20
241.6360
0
VERTEX
8
CUT
10
180.1342
20
241.6060
0
VERTEX
8
CUT
10
179.5564
20
241.1284
0
VERTEX
8
CUT
10
179.5487
20
241.1233
0
VERTEX
8
CUT
10
179.5289
20
241.1104
0
VERTEX
8
CUT
10
179.5132
20
241.1003
0
VERTEX
8
CUT
10
178.7136
20
240.5903
0
VERTEX
8
CUT
10
176.9139
20
239.4515
0
VERTEX
8
CUT
10
176.8520
20
239.4101
0
VERTEX
8
CUT
10
176.6104
20
239.2401
0
VERTEX
8
CUT
10
176.4928
20
239.1484
0
VERTEX
8
CUT
10
176.3592
20
239.0332
0
VERTEX
8
CUT
10
176.2512
20
238.9305
0
VERTEX
8
CUT
10
176.1295
20
238.8028
0
VERTEX
8
CUT
10
176.0321
20
238.6900
0
VERTEX
8
CUT
10
175.9235
20
238.5510
0
VERTEX
8
CUT
10
175.8376
20
238.4292
0
VERTEX
8
CUT
10
175.7431
20
238.2802
0
VERTEX
8
CUT
10
175.6695
20
238.1506
0
VERTEX
8
CUT
10
175.5901
20
237.9931
0
VERTEX
8
CUT
10
175.5296
20
237.8569
0
VERTEX
8
CUT
10
175.4660
20
237.6923
0
VERTEX
8
CUT
10
175.4191
20
237.5509
0
VERTEX
8
CUT
10
175.3719
20
237.3809
0
VERTEX
8
CUT
10
175.3391
20
237.2355
0
VERTEX
8
CUT
10
175.3087
20
237.0617
0
VERTEX
8
CUT
10
175.2903
20
236.9139
0
VERTEX
8
CUT
10
175.2683
20
236.6193
0
VERTEX
8
CUT
10
175.2645
20
236.5449
0
VERTEX
8
CUT
10
175.2284
20
235.1378
0
VERTEX
8
CUT
10
175.1903
20
234.6442
0
VERTEX
8
CUT
10
175.1876
20
234.6022
0
VERTEX
8
CUT
10
175.1774
20
234.3960
0
VERTEX
8
CUT
10
175.1756
20
234.3118
0
VERTEX
8
CUT
10
175.1768
20
234.1054
0
VERTEX
8
CUT
10
175.1777
20
234.0633
0
VERTEX
8
CUT
10
175.1908
20
233.6757
0
VERTEX
8
CUT
10
175.1723
20
232.9590
0
VERTEX
8
CUT
10
175.1719
20
232.9366
0
VERTEX
8
CUT
10
175.1705
20
232.8075
0
VERTEX
8
CUT
10
175.1708
20
232.7579
0
VERTEX
8
CUT
10
175.1730
20
232.6529
0
VERTEX
8
CUT
10
175.1738
20
232.6290
0
VERTEX
8
CUT
10
175.2041
20
231.8180
0
VERTEX
8
CUT
10
175.2002
20
231.5416
0
VERTEX
8
CUT
10
175.2003
20
231.4970
0
VERTEX
8
CUT
10
175.2036
20
231.2782
0
VERTEX
8
CUT
10
175.2076
20
231.1890
0
VERTEX
8
CUT
10
175.2238
20
230.9707
0
VERTEX
8
CUT
10
175.2278
20
230.9263
0
VERTEX
8
CUT
10
175.2430
20
230.7799
0
VERTEX
8
CUT
10
175.2705
20
230.0433
0
VERTEX
8
CUT
10
175.2720
20
230.0121
0
VERTEX
8
CUT
10
175.2808
20
229.8602
0
VERTEX
8
CUT
10
175.2857
20
229.7983
0
VERTEX
8
CUT
10
175.3007
20
229.6468
0
VERTEX
8
CUT
10
175.3041
20
229.6159
0
VERTEX
8
CUT
10
175.3372
20
229.3397
0
VERTEX
8
CUT
10
175.3478
20
229.0238
0
VERTEX
8
CUT
10
175.3505
20
228.9712
0
VERTEX
8
CUT
10
175.3682
20
228.7135
0
VERTEX
8
CUT
10
175.3791
20
228.6086
0
VERTEX
8
CUT
10
175.4145
20
228.3528
0
VERTEX
8
CUT
10
175.4227
20
228.3007
0
VERTEX
8
CUT
10
175.5473
20
227.5855
0
VERTEX
8
CUT
10
175.7256
20
226.0962
0
VERTEX
8
CUT
10
175.7285
20
226.0739
0
VERTEX
8
CUT
10
175.7457
20
225.9457
0
VERTEX
8
CUT
10
175.7532
20
225.8965
0
VERTEX
8
CUT
10
175.7707
20
225.7927
0
VERTEX
8
CUT
10
175.7748
20
225.7691
0
VERTEX
8
CUT
10
176.8635
20
219.8709
0
VERTEX
8
CUT
10
176.8655
20
219.8604
0
VERTEX
8
CUT
10
176.8719
20
219.8271
0
VERTEX
8
CUT
10
176.8790
20
219.7920
0
VERTEX
8
CUT
10
176.9023
20
219.6847
0
VERTEX
8
CUT
10
176.9077
20
219.6605
0
VERTEX
8
CUT
10
177.4321
20
217.4151
0
VERTEX
8
CUT
10
177.5351
20
216.8958
0
VERTEX
8
CUT
10
177.5408
20
216.8684
0
VERTEX
8
CUT
10
177.5750
20
216.7112
0
VERTEX
8
CUT
10
177.5893
20
216.6510
0
VERTEX
8
CUT
10
177.6223
20
216.5243
0
VERTEX
8
CUT
10
177.6302
20
216.4954
0
VERTEX
8
CUT
10
177.7286
20
216.1460
0
VERTEX
8
CUT
10
178.2245
20
214.0228
0
VERTEX
8
CUT
10
178.2302
20
213.9991
0
VERTEX
8
CUT
10
178.2643
20
213.8630
0
VERTEX
8
CUT
10
178.2783
20
213.8109
0
VERTEX
8
CUT
10
178.3100
20
213.7011
0
VERTEX
8
CUT
10
178.3175
20
213.6762
0
VERTEX
8
CUT
10
178.4313
20
213.3058
0
VERTEX
8
CUT
10
179.7538
20
207.7309
0
VERTEX
8
CUT
10
179.7557
20
207.7227
0
VERTEX
8
CUT
10
179.7596
20
207.7069
0
VERTEX
8
CUT
10
179.7659
20
207.6817
0
VERTEX
8
CUT
10
179.7914
20
207.5841
0
VERTEX
8
CUT
10
179.7972
20
207.5625
0
VERTEX
8
CUT
10
192.2633
20
162.5736
0
VERTEX
8
CUT
10
192.2687
20
162.5542
0
VERTEX
8
CUT
10
192.2729
20
162.5385
0
VERTEX
8
CUT
10
192.2759
20
162.5275
0
VERTEX
8
CUT
10
192.2817
20
162.5054
0
VERTEX
8
CUT
10
192.2848
20
162.4938
0
VERTEX
8
CUT
10
193.3821
20
158.2658
0
VERTEX
8
CUT
10
193.3870
20
158.2464
0
VERTEX
8
CUT
10
193.3963
20
158.2092
0
VERTEX
8
CUT
10
193.4011
20
158.1898
0
VERTEX
8
CUT
10
193.4094
20
158.1552
0
VERTEX
8
CUT
10
193.4168
20
158.1235
0
VERTEX
8
CUT
10
193.4306
20
158.0627
0
VERTEX
8
CUT
10
193.4375
20
158.0310
0
VERTEX
8
CUT
10
194.7994
20
151.5738
0
VERTEX
8
CUT
10
194.8059
20
151.5415
0
VERTEX
8
CUT
10
194.8166
20
151.4872
0
VERTEX
8
CUT
10
194.8254
20
151.4392
0
VERTEX
8
CUT
10
194.8297
20
151.4144
0
VERTEX
8
CUT
10
194.8331
20
151.3946
0
VERTEX
8
CUT
10
194.8468
20
151.3113
0
VERTEX
8
CUT
10
194.8519
20
151.2789
0
VERTEX
8
CUT
10
194.8600
20
151.2245
0
VERTEX
8
CUT
10
194.8667
20
151.1765
0
VERTEX
8
CUT
10
194.8700
20
151.1511
0
VERTEX
8
CUT
10
194.8724
20
151.1310
0
VERTEX
8
CUT
10
195.4618
20
146.1857
0
VERTEX
8
CUT
10
195.4663
20
146.1446
0
VERTEX
8
CUT
10
195.4743
20
146.0656
0
VERTEX
8
CUT
10
195.4781
20
146.0244
0
VERTEX
8
CUT
10
195.4828
20
145.9666
0
VERTEX
8
CUT
10
195.4862
20
145.9199
0
VERTEX
8
CUT
10
195.4917
20
145.8303
0
VERTEX
8
CUT
10
195.4941
20
145.7836
0
VERTEX
8
CUT
10
195.5946
20
143.3470
0
VERTEX
8
CUT
10
195.5952
20
143.3314
0
VERTEX
8
CUT
10
195.5962
20
143.3017
0
VERTEX
8
CUT
10
195.5967
20
143.2861
0
VERTEX
8
CUT
10
195.5975
20
143.2597
0
VERTEX
8
CUT
10
195.5980
20
143.2348
0
VERTEX
8
CUT
10
195.5988
20
143.1872
0
VERTEX
8
CUT
10
195.5991
20
143.1623
0
VERTEX
8
CUT
10
195.6267
20
138.3790
0
VERTEX
8
CUT
10
195.6266
20
138.3455
0
VERTEX
8
CUT
10
195.6261
20
138.2814
0
VERTEX
8
CUT
10
195.6255
20
138.2479
0
VERTEX
8
CUT
10
195.6244
20
138.2018
0
VERTEX
8
CUT
10
195.6232
20
138.1641
0
VERTEX
8
CUT
10
195.6203
20
138.0918
0
VERTEX
8
CUT
10
195.6185
20
138.0540
0
VERTEX
8
CUT
10
195.3926
20
134.0750
0
VERTEX
8
CUT
10
195.3899
20
134.0342
0
VERTEX
8
CUT
10
195.3848
20
133.9657
0
VERTEX
8
CUT
10
195.3794
20
133.9053
0
VERTEX
8
CUT
10
195.3762
20
133.8739
0
VERTEX
8
CUT
10
195.3736
20
133.8489
0
VERTEX
8
CUT
10
195.3618
20
133.7445
0
VERTEX
8
CUT
10
195.3568
20
133.7040
0
VERTEX
8
CUT
10
195.3480
20
133.6361
0
VERTEX
8
CUT
10
195.3393
20
133.5762
0
VERTEX
8
CUT
10
195.3343
20
133.5448
0
VERTEX
8
CUT
10
195.3303
20
133.5200
0
VERTEX
8
CUT
10
194.3250
20
127.5842
0
VERTEX
8
CUT
10
194.3193
20
127.5518
0
VERTEX
8
CUT
10
194.3093
20
127.4976
0
VERTEX
8
CUT
10
194.3000
20
127.4498
0
VERTEX
8
CUT
10
194.2948
20
127.4247
0
VERTEX
8
CUT
10
194.2906
20
127.4049
0
VERTEX
8
CUT
10
194.2728
20
127.3222
0
VERTEX
8
CUT
10
194.2656
20
127.2901
0
VERTEX
8
CUT
10
194.2532
20
127.2364
0
VERTEX
8
CUT
10
194.2417
20
127.1891
0
VERTEX
8
CUT
10
194.2354
20
127.1643
0
VERTEX
8
CUT
10
194.2304
20
127.1446
0
VERTEX
8
CUT
10
192.8529
20
121.9053
0
VERTEX
8
CUT
10
192.8358
20
121.8330
0
VERTEX
8
CUT
10
192.7750
20
121.5452
0
VERTEX
8
CUT
10
192.7514
20
121.3986
0
VERTEX
8
CUT
10
192.7320
20
121.2240
0
VERTEX
8
CUT
10
192.7229
20
121.0758
0
VERTEX
8
CUT
10
192.7206
20
120.9001
0
VERTEX
8
CUT
10
192.7260
20
120.7518
0
VERTEX
8
CUT
10
192.7409
20
120.5768
0
VERTEX
8
CUT
10
192.7606
20
120.4297
0
VERTEX
8
CUT
10
192.7925
20
120.2569
0
VERTEX
8
CUT
10
192.8266
20
120.1124
0
VERTEX
8
CUT
10
192.8752
20
119.9436
0
VERTEX
8
CUT
10
192.9231
20
119.8031
0
VERTEX
8
CUT
10
192.9879
20
119.6398
0
VERTEX
8
CUT
10
193.0494
20
119.5047
0
VERTEX
8
CUT
10
193.1298
20
119.3485
0
VERTEX
8
CUT
10
193.2041
20
119.2200
0
VERTEX
8
CUT
10
193.2994
20
119.0724
0
VERTEX
8
CUT
10
193.3859
20
118.9518
0
VERTEX
8
CUT
10
193.4952
20
118.8142
0
VERTEX
8
CUT
10
193.5930
20
118.7026
0
VERTEX
8
CUT
10
193.7151
20
118.5763
0
VERTEX
8
CUT
10
193.8234
20
118.4748
0
VERTEX
8
CUT
10
193.9573
20
118.3610
0
VERTEX
8
CUT
10
194.0749
20
118.2705
0
VERTEX
8
CUT
10
194.2193
20
118.1703
0
VERTEX
8
CUT
10
194.3452
20
118.0917
0
VERTEX
8
CUT
10
194.4986
20
118.0061
0
VERTEX
8
CUT
10
194.6316
20
117.9402
0
VERTEX
8
CUT
10
194.7926
20
117.8699
0
VERTEX
8
CUT
10
194.9314
20
117.8173
0
VERTEX
8
CUT
10
195.0985
20
117.7631
0
VERTEX
8
CUT
10
195.2417
20
117.7242
0
VERTEX
8
CUT
10
195.4134
20
117.6866
0
VERTEX
8
CUT
10
195.5597
20
117.6619
0
VERTEX
8
CUT
10
195.7342
20
117.6411
0
VERTEX
8
CUT
10
195.8822
20
117.6308
0
VERTEX
8
CUT
10
196.0579
20
117.6272
0
VERTEX
8
CUT
10
196.2063
20
117.6314
0
VERTEX
8
CUT
10
196.3814
20
117.6449
0
VERTEX
8
CUT
10
196.5287
20
117.6635
0
VERTEX
8
CUT
10
196.8183
20
117.7147
0
VERTEX
8
CUT
10
196.8911
20
117.7293
0
VERTEX
8
CUT
10
208.5869
20
120.3883
0
VERTEX
8
CUT
10
212.0797
20
120.8147
0
VERTEX
8
CUT
10
212.1145
20
120.8187
0
VERTEX
8
CUT
10
212.1729
20
120.8249
0
VERTEX
8
CUT
10
212.2245
20
120.8298
0
VERTEX
8
CUT
10
212.2517
20
120.8321
0
VERTEX
8
CUT
10
212.2733
20
120.8338
0
VERTEX
8
CUT
10
212.3631
20
120.8405
0
VERTEX
8
CUT
10
212.3981
20
120.8428
0
VERTEX
8
CUT
10
212.4567
20
120.8462
0
VERTEX
8
CUT
10
212.5085
20
120.8487
0
VERTEX
8
CUT
10
212.5357
20
120.8497
0
VERTEX
8
CUT
10
212.5573
20
120.8503
0
VERTEX
8
CUT
10
215.3001
20
120.9226
0
VERTEX
8
CUT
10
215.3316
20
120.9232
0
VERTEX
8
CUT
10
215.3845
20
120.9239
0
VERTEX
8
CUT
10
215.4311
20
120.9240
0
VERTEX
8
CUT
10
215.4557
20
120.9238
0
VERTEX
8
CUT
10
215.4564
20
120.9238
0
VERTEX
8
CUT
10
215.5234
20
120.9227
0
VERTEX
8
CUT
10
215.5552
20
120.9220
0
VERTEX
8
CUT
10
215.6083
20
120.9203
0
VERTEX
8
CUT
10
215.6552
20
120.9184
0
VERTEX
8
CUT
10
215.6799
20
120.9172
0
VERTEX
8
CUT
10
215.6995
20
120.9161
0
VERTEX
8
CUT
10
218.5835
20
120.7447
0
VERTEX
8
CUT
10
218.6194
20
120.7422
0
VERTEX
8
CUT
10
218.6795
20
120.7377
0
VERTEX
8
CUT
10
218.7325
20
120.7331
0
VERTEX
8
CUT
10
218.7604
20
120.7304
0
VERTEX
8
CUT
10
218.7820
20
120.7281
0
VERTEX
8
CUT
10
218.7973
20
120.7264
0
VERTEX
8
CUT
10
218.8377
20
120.7221
0
VERTEX
8
CUT
10
218.8727
20
120.7180
0
VERTEX
8
CUT
10
218.9325
20
120.7105
0
VERTEX
8
CUT
10
218.9852
20
120.7034
0
VERTEX
8
CUT
10
219.0129
20
120.6992
0
VERTEX
8
CUT
10
219.0348
20
120.6959
0
VERTEX
8
CUT
10
221.9829
20
120.2295
0
VERTEX
8
CUT
10
222.0136
20
120.2245
0
VERTEX
8
CUT
10
222.0650
20
120.2156
0
VERTEX
8
CUT
10
222.1103
20
120.2073
0
VERTEX
8
CUT
10
222.1341
20
120.2027
0
VERTEX
8
CUT
10
222.1529
20
120.1990
0
VERTEX
8
CUT
10
222.2093
20
120.1876
0
VERTEX
8
CUT
10
222.2297
20
120.1834
0
VERTEX
8
CUT
10
222.2804
20
120.1724
0
VERTEX
8
CUT
10
222.3250
20
120.1623
0
VERTEX
8
CUT
10
222.3485
20
120.1568
0
VERTEX
8
CUT
10
222.3670
20
120.1523
0
VERTEX
8
CUT
10
225.4212
20
119.4016
0
VERTEX
8
CUT
10
225.4579
20
119.3923
0
VERTEX
8
CUT
10
225.5281
20
119.3738
0
VERTEX
8
CUT
10
225.5647
20
119.3638
0
VERTEX
8
CUT
10
225.6156
20
119.3495
0
VERTEX
8
CUT
10
225.6283
20
119.3458
0
VERTEX
8
CUT
10
225.6568
20
119.3375
0
VERTEX
8
CUT
10
225.7354
20
119.3137
0
VERTEX
8
CUT
10
225.7764
20
119.3009
0
VERTEX
8
CUT
10
228.8787
20
118.2996
0
VERTEX
8
CUT
10
228.9183
20
118.2864
0
VERTEX
8
CUT
10
228.9941
20
118.2604
0
VERTEX
8
CUT
10
229.0335
20
118.2465
0
VERTEX
8
CUT
10
229.0661
20
118.2346
0
VERTEX
8
CUT
10
229.1038
20
118.2205
0
VERTEX
8
CUT
10
229.1880
20
118.1879
0
VERTEX
8
CUT
10
229.2317
20
118.1705
0
VERTEX
8
CUT
10
231.6999
20
117.1562
0
VERTEX
8
CUT
10
231.7083
20
117.1530
0
VERTEX
8
CUT
10
232.0123
20
117.0280
0
VERTEX
8
CUT
10
232.0821
20
117.0013
0
VERTEX
8
CUT
10
232.3611
20
116.9023
0
VERTEX
8
CUT
10
232.5042
20
116.8593
0
VERTEX
8
CUT
10
232.6758
20
116.8168
0
VERTEX
8
CUT
10
232.8223
20
116.7880
0
VERTEX
8
CUT
10
232.9973
20
116.7626
0
VERTEX
8
CUT
10
233.1459
20
116.7484
0
VERTEX
8
CUT
10
233.3225
20
116.7402
0
VERTEX
8
CUT
10
233.4719
20
116.7407
0
VERTEX
8
CUT
10
233.6484
20
116.7499
0
VERTEX
8
CUT
10
233.7970
20
116.7650
0
VERTEX
8
CUT
10
233.9718
20
116.7915
0
VERTEX
8
CUT
10
234.1182
20
116.8211
0
VERTEX
8
CUT
10
234.2089
20
116.8442
0
VERTEX
8
CUT
10
234.3181
20
116.8691
0
VERTEX
8
CUT
10
234.4735
20
116.9005
0
VERTEX
8
CUT
10
234.6949
20
116.9340
0
VERTEX
8
CUT
10
234.7968
20
116.9444
0
VERTEX
8
CUT
10
234.9233
20
116.9510
0
VERTEX
8
CUT
10
234.9659
20
116.9450
0
VERTEX
8
CUT
10
235.0635
20
116.9266
0
VERTEX
8
CUT
10
235.2749
20
116.8760
0
VERTEX
8
CUT
10
235.3704
20
116.8484
0
VERTEX
8
CUT
10
235.5759
20
116.7780
0
VERTEX
8
CUT
10
235.6683
20
116.7413
0
VERTEX
8
CUT
10
235.8663
20
116.6516
0
VERTEX
8
CUT
10
235.9547
20
116.6064
0
VERTEX
8
CUT
10
236.1432
20
116.4983
0
VERTEX
8
CUT
10
236.2270
20
116.4448
0
VERTEX
8
CUT
10
236.4044
20
116.3192
0
VERTEX
8
CUT
10
236.4827
20
116.2580
0
VERTEX
8
CUT
10
236.6473
20
116.1161
0
VERTEX
8
CUT
10
236.7194
20
116.0477
0
VERTEX
8
CUT
10
236.8697
20
115.8908
0
VERTEX
8
CUT
10
236.9350
20
115.8158
0
VERTEX
8
CUT
10
237.0697
20
115.6453
0
VERTEX
8
CUT
10
237.1275
20
115.5645
0
VERTEX
8
CUT
10
237.2454
20
115.3819
0
VERTEX
8
CUT
10
237.2953
20
115.2960
0
VERTEX
8
CUT
10
237.3952
20
115.1030
0
VERTEX
8
CUT
10
237.4657
20
114.9494
0
VERTEX
8
CUT
10
237.5000
20
114.8795
0
VERTEX
8
CUT
10
237.5120
20
114.8566
0
VERTEX
8
CUT
10
237.5189
20
114.8426
0
VERTEX
8
CUT
10
237.6022
20
114.6835
0
VERTEX
8
CUT
10
237.6792
20
114.5529
0
VERTEX
8
CUT
10
237.7779
20
114.4030
0
VERTEX
8
CUT
10
237.8674
20
114.2806
0
VERTEX
8
CUT
10
237.9806
20
114.1413
0
VERTEX
8
CUT
10
238.0819
20
114.0285
0
VERTEX
8
CUT
10
238.2083
20
113.9012
0
VERTEX
8
CUT
10
238.3204
20
113.7991
0
VERTEX
8
CUT
10
238.4589
20
113.6849
0
VERTEX
8
CUT
10
238.5806
20
113.5945
0
VERTEX
8
CUT
10
238.8304
20
113.4275
0
VERTEX
8
CUT
10
238.8944
20
113.3869
0
VERTEX
8
CUT
10
240.1024
20
112.6636
0
VERTEX
8
CUT
10
243.5774
20
110.1972
0
VERTEX
8
CUT
10
243.6108
20
110.1730
0
VERTEX
8
CUT
10
243.6745
20
110.1260
0
VERTEX
8
CUT
10
243.7075
20
110.1012
0
VERTEX
8
CUT
10
243.7532
20
110.0662
0
VERTEX
8
CUT
10
243.7901
20
110.0374
0
VERTEX
8
CUT
10
243.8602
20
109.9814
0
VERTEX
8
CUT
10
243.8965
20
109.9518
0
VERTEX
8
CUT
10
246.9879
20
107.3768
0
VERTEX
8
CUT
10
247.0103
20
107.3579
0
VERTEX
8
CUT
10
247.0529
20
107.3215
0
VERTEX
8
CUT
10
247.0750
20
107.3023
0
VERTEX
8
CUT
10
247.1052
20
107.2759
0
VERTEX
8
CUT
10
247.1298
20
107.2539
0
VERTEX
8
CUT
10
247.1769
20
107.2114
0
VERTEX
8
CUT
10
247.2012
20
107.1891
0
VERTEX
8
CUT
10
255.7972
20
99.1944
0
VERTEX
8
CUT
10
255.8059
20
99.1863
0
VERTEX
8
CUT
10
255.8440
20
99.1515
0
VERTEX
8
CUT
10
255.8603
20
99.1367
0
VERTEX
8
CUT
10
255.9189
20
99.0846
0
VERTEX
8
CUT
10
255.9320
20
99.0732
0
VERTEX
8
CUT
10
257.0026
20
98.1428
0
VERTEX
8
CUT
10
258.1543
20
97.0797
0
VERTEX
8
CUT
10
258.1733
20
97.0626
0
VERTEX
8
CUT
10
258.2831
20
96.9645
0
VERTEX
8
CUT
10
258.3261
20
96.9276
0
VERTEX
8
CUT
10
258.4192
20
96.8505
0
VERTEX
8
CUT
10
258.4396
20
96.8339
0
VERTEX
8
CUT
10
258.6514
20
96.6648
0
VERTEX
8
CUT
10
258.7113
20
96.6193
0
VERTEX
8
CUT
10
258.9493
20
96.4478
0
VERTEX
8
CUT
10
259.0737
20
96.3671
0
VERTEX
8
CUT
10
259.2253
20
96.2788
0
VERTEX
8
CUT
10
259.3570
20
96.2106
0
VERTEX
8
CUT
10
259.5165
20
96.1376
0
VERTEX
8
CUT
10
259.6542
20
96.0825
0
VERTEX
8
CUT
10
259.8201
20
96.0254
0
VERTEX
8
CUT
10
259.9624
20
95.9840
0
VERTEX
8
CUT
10
260.1331
20
95.9432
0
VERTEX
8
CUT
10
260.2788
20
95.9159
0
VERTEX
8
CUT
10
260.4526
20
95.8920
0
VERTEX
8
CUT
10
260.6003
20
95.8790
0
VERTEX
8
CUT
10
260.7757
20
95.8722
0
VERTEX
8
CUT
10
260.9239
20
95.8736
0
VERTEX
8
CUT
10
261.0991
20
95.8839
0
VERTEX
8
CUT
10
261.2465
20
95.8997
0
VERTEX
8
CUT
10
261.4198
20
95.9270
0
VERTEX
8
CUT
10
261.5650
20
95.9572
0
VERTEX
8
CUT
10
261.7348
20
96.0012
0
VERTEX
8
CUT
10
261.8763
20
96.0454
0
VERTEX
8
CUT
10
262.0411
20
96.1057
0
VERTEX
8
CUT
10
262.1776
20
96.1635
0
VERTEX
8
CUT
10
262.3357
20
96.2396
0
VERTEX
8
CUT
10
262.4660
20
96.3104
0
VERTEX
8
CUT
10
262.6159
20
96.4015
0
VERTEX
8
CUT
10
262.7387
20
96.4846
0
VERTEX
8
CUT
10
262.8790
20
96.5900
0
VERTEX
8
CUT
10
262.9931
20
96.6847
0
VERTEX
8
CUT
10
263.1225
20
96.8032
0
VERTEX
8
CUT
10
263.2268
20
96.9085
0
VERTEX
8
CUT
10
263.3441
20
97.0391
0
VERTEX
8
CUT
10
263.4376
20
97.1541
0
VERTEX
8
CUT
10
263.5416
20
97.2954
0
VERTEX
8
CUT
10
263.6235
20
97.4190
0
VERTEX
8
CUT
10
263.7132
20
97.5698
0
VERTEX
8
CUT
10
263.7827
20
97.7008
0
VERTEX
8
CUT
10
263.8573
20
97.8596
0
VERTEX
8
CUT
10
263.9137
20
97.9967
0
VERTEX
8
CUT
10
263.9725
20
98.1620
0
VERTEX
8
CUT
10
264.0152
20
98.3040
0
VERTEX
8
CUT
10
264.0576
20
98.4743
0
VERTEX
8
CUT
10
264.0863
20
98.6197
0
VERTEX
8
CUT
10
264.1119
20
98.7933
0
VERTEX
8
CUT
10
264.1264
20
98.9408
0
VERTEX
8
CUT
10
264.1407
20
99.2343
0
VERTEX
8
CUT
10
264.1425
20
99.3084
0
VERTEX
8
CUT
10
264.1425
20
99.3532
0
VERTEX
8
CUT
10
264.1425
20
110.0306
0
VERTEX
8
CUT
10
264.1425
20
110.3462
0
VERTEX
8
CUT
10
264.1407
20
110.4200
0
VERTEX
8
CUT
10
264.1265
20
110.7123
0
VERTEX
8
CUT
10
264.1122
20
110.8592
0
VERTEX
8
CUT
10
264.0868
20
111.0321
0
VERTEX
8
CUT
10
264.0583
20
111.1769
0
VERTEX
8
CUT
10
264.0163
20
111.3465
0
VERTEX
8
CUT
10
263.9739
20
111.4879
0
VERTEX
8
CUT
10
263.9156
20
111.6526
0
VERTEX
8
CUT
10
263.8597
20
111.7892
0
VERTEX
8
CUT
10
263.7857
20
111.9475
0
VERTEX
8
CUT
10
263.7168
20
112.0780
0
VERTEX
8
CUT
10
263.6278
20
112.2283
0
VERTEX
8
CUT
10
263.5466
20
112.3516
0
VERTEX
8
CUT
10
263.4434
20
112.4926
0
VERTEX
8
CUT
10
263.3506
20
112.6074
0
VERTEX
8
CUT
10
263.2343
20
112.7377
0
VERTEX
8
CUT
10
263.1308
20
112.8430
0
VERTEX
8
CUT
10
263.0024
20
112.9614
0
VERTEX
8
CUT
10
262.8891
20
113.0561
0
VERTEX
8
CUT
10
262.7498
20
113.1615
0
VERTEX
8
CUT
10
262.6280
20
113.2448
0
VERTEX
8
CUT
10
262.4791
20
113.3362
0
VERTEX
8
CUT
10
262.3497
20
113.4073
0
VERTEX
8
CUT
10
262.1926
20
113.4839
0
VERTEX
8
CUT
10
262.0570
20
113.5420
0
VERTEX
8
CUT
10
261.8933
20
113.6030
0
VERTEX
8
CUT
10
261.7526
20
113.6477
0
VERTEX
8
CUT
10
261.4699
20
113.7227
0
VERTEX
8
CUT
10
261.3981
20
113.7399
0
VERTEX
8
CUT
10
255.6015
20
114.9802
0
VERTEX
8
CUT
10
251.5024
20
115.9933
0
VERTEX
8
CUT
10
247.8081
20
117.0834
0
VERTEX
8
CUT
10
244.5694
20
118.2176
0
VERTEX
8
CUT
10
241.8801
20
119.3287
0
VERTEX
8
CUT
10
241.8093
20
119.3559
0
VERTEX
8
CUT
10
241.5261
20
119.4566
0
VERTEX
8
CUT
10
241.3809
20
119.5003
0
VERTEX
8
CUT
10
241.2067
20
119.5433
0
VERTEX
8
CUT
10
241.0578
20
119.5723
0
VERTEX
8
CUT
10
240.8802
20
119.5977
0
VERTEX
8
CUT
10
240.7292
20
119.6117
0
VERTEX
8
CUT
10
240.5499
20
119.6193
0
VERTEX
8
CUT
10
240.3983
20
119.6182
0
VERTEX
8
CUT
10
240.2191
20
119.6079
0
VERTEX
8
CUT
10
240.0684
20
119.5917
0
VERTEX
8
CUT
10
239.7497
20
119.5412
0
VERTEX
8
CUT
10
239.6362
20
119.5261
0
VERTEX
8
CUT
10
239.4751
20
119.5089
0
VERTEX
8
CUT
10
239.2465
20
119.4959
0
VERTEX
8
CUT
10
239.1418
20
119.4952
0
VERTEX
8
CUT
10
238.9131
20
119.5053
0
VERTEX
8
CUT
10
238.8089
20
119.5151
0
VERTEX
8
CUT
10
238.5823
20
119.5480
0
VERTEX
8
CUT
10
238.4796
20
119.5683
0
VERTEX
8
CUT
10
238.2575
20
119.6238
0
VERTEX
8
CUT
10
238.1573
20
119.6542
0
VERTEX
8
CUT
10
237.9419
20
119.7317
0
VERTEX
8
CUT
10
237.8452
20
119.7720
0
VERTEX
8
CUT
10
237.6387
20
119.8707
0
VERTEX
8
CUT
10
237.5466
20
119.9206
0
VERTEX
8
CUT
10
237.3510
20
120.0395
0
VERTEX
8
CUT
10
237.2643
20
120.0983
0
VERTEX
8
CUT
10
237.0816
20
120.2363
0
VERTEX
8
CUT
10
237.0013
20
120.3035
0
VERTEX
8
CUT
10
236.9325
20
120.3672
0
VERTEX
8
CUT
10
236.9175
20
120.3873
0
VERTEX
8
CUT
10
236.8612
20
120.4713
0
VERTEX
8
CUT
10
236.7469
20
120.6605
0
VERTEX
8
CUT
10
236.6990
20
120.7495
0
VERTEX
8
CUT
10
236.6036
20
120.9489
0
VERTEX
8
CUT
10
236.5431
20
121.0932
0
VERTEX
8
CUT
10
236.5028
20
121.1961
0
VERTEX
8
CUT
10
236.4741
20
121.2750
0
VERTEX
8
CUT
10
236.4162
20
121.4127
0
VERTEX
8
CUT
10
236.3397
20
121.5721
0
VERTEX
8
CUT
10
236.2686
20
121.7034
0
VERTEX
8
CUT
10
236.1768
20
121.8545
0
VERTEX
8
CUT
10
236.0932
20
121.9782
0
VERTEX
8
CUT
10
235.9870
20
122.1196
0
VERTEX
8
CUT
10
235.8916
20
122.2345
0
VERTEX
8
CUT
10
235.7721
20
122.3648
0
VERTEX
8
CUT
10
235.6659
20
122.4698
0
VERTEX
8
CUT
10
235.5342
20
122.5877
0
VERTEX
8
CUT
10
235.4182
20
122.6817
0
VERTEX
8
CUT
10
235.1794
20
122.8566
0
VERTEX
8
CUT
10
235.1181
20
122.8992
0
VERTEX
8
CUT
10
232.8060
20
124.4237
0
VERTEX
8
CUT
10
230.9746
20
125.7938
0
VERTEX
8
CUT
10
230.1222
20
126.5161
0
VERTEX
8
CUT
10
227.9878
20
128.4925
0
VERTEX
8
CUT
10
227.0595
20
129.4024
0
VERTEX
8
CUT
10
225.8301
20
130.6075
0
VERTEX
8
CUT
10
225.6031
20
130.8299
0
VERTEX
8
CUT
10
224.1517
20
132.3985
0
VERTEX
8
CUT
10
218.0708
20
139.3955
0
VERTEX
8
CUT
10
218.0636
20
139.4037
0
VERTEX
8
CUT
10
218.0406
20
139.4298
0
VERTEX
8
CUT
10
218.0159
20
139.4571
0
VERTEX
8
CUT
10
217.9390
20
139.5402
0
VERTEX
8
CUT
10
217.9215
20
139.5588
0
VERTEX
8
CUT
10
215.0200
20
142.5889
0
VERTEX
8
CUT
10
214.9970
20
142.6124
0
VERTEX
8
CUT
10
214.8833
20
142.7261
0
VERTEX
8
CUT
10
214.8359
20
142.7715
0
VERTEX
8
CUT
10
214.7174
20
142.8802
0
VERTEX
8
CUT
10
214.6930
20
142.9021
0
VERTEX
8
CUT
10
214.1100
20
143.4142
0
VERTEX
8
CUT
10
213.5196
20
144.0117
0
VERTEX
8
CUT
10
213.4948
20
144.0362
0
VERTEX
8
CUT
10
213.3722
20
144.1547
0
VERTEX
8
CUT
10
213.3211
20
144.2019
0
VERTEX
8
CUT
10
213.1932
20
144.3147
0
VERTEX
8
CUT
10
213.1668
20
144.3374
0
VERTEX
8
CUT
10
210.7068
20
146.4086
0
VERTEX
8
CUT
10
210.6892
20
146.4231
0
VERTEX
8
CUT
10
210.5875
20
146.5062
0
VERTEX
8
CUT
10
210.5478
20
146.5375
0
VERTEX
8
CUT
10
210.4628
20
146.6023
0
VERTEX
8
CUT
10
210.4433
20
146.6169
0
VERTEX
8
CUT
10
208.2313
20
148.2485
0
VERTEX
8
CUT
10
208.1409
20
148.3188
0
VERTEX
8
CUT
10
208.0152
20
148.4216
0
VERTEX
8
CUT
10
207.8452
20
148.5756
0
VERTEX
8
CUT
10
207.7711
20
148.6499
0
VERTEX
8
CUT
10
207.6175
20
148.8202
0
VERTEX
8
CUT
10
207.5512
20
148.9015
0
VERTEX
8
CUT
10
207.4155
20
149.0863
0
VERTEX
8
CUT
10
207.3577
20
149.1739
0
VERTEX
8
CUT
10
207.2413
20
149.3715
0
VERTEX
8
CUT
10
207.1926
20
149.4644
0
VERTEX
8
CUT
10
207.0965
20
149.6727
0
VERTEX
8
CUT
10
207.0575
20
149.7700
0
VERTEX
8
CUT
10
206.9828
20
149.9869
0
VERTEX
8
CUT
10
206.9537
20
150.0877
0
VERTEX
8
CUT
10
206.9013
20
150.3109
0
VERTEX
8
CUT
10
206.8825
20
150.4141
0
VERTEX
8
CUT
10
206.8527
20
150.6415
0
VERTEX
8
CUT
10
206.8443
20
150.7461
0
VERTEX
8
CUT
10
206.8376
20
150.9753
0
VERTEX
8
CUT
10
206.8398
20
151.0802
0
VERTEX
8
CUT
10
206.8561
20
151.3090
0
VERTEX
8
CUT
10
206.8688
20
151.4131
0
VERTEX
8
CUT
10
206.9080
20
151.6391
0
VERTEX
8
CUT
10
206.9311
20
151.7414
0
VERTEX
8
CUT
10
206.9929
20
151.9623
0
VERTEX
8
CUT
10
207.0444
20
152.1162
0
VERTEX
8
CUT
10
207.0835
20
152.2241
0
VERTEX
8
CUT
10
208.6092
20
156.1211
0
VERTEX
8
CUT
10
208.6134
20
156.1320
0
VERTEX
8
CUT
10
208.6315
20
156.1791
0
VERTEX
8
CUT
10
208.6390
20
156.1993
0
VERTEX
8
CUT
10
208.6654
20
156.2712
0
VERTEX
8
CUT
10
208.6711
20
156.2873
0
VERTEX
8
CUT
10
211.7664
20
165.0346
0
VERTEX
8
CUT
10
211.7703
20
165.0457
0
VERTEX
8
CUT
10
211.7825
20
165.0811
0
VERTEX
8
CUT
10
211.7949
20
165.1186
0
VERTEX
8
CUT
10
211.8314
20
165.2339
0
VERTEX
8
CUT
10
211.8394
20
165.2600
0
VERTEX
8
CUT
10
213.8495
20
172.0347
0
VERTEX
8
CUT
10
213.8534
20
172.0479
0
VERTEX
8
CUT
10
213.8654
20
172.0900
0
VERTEX
8
CUT
10
213.8775
20
172.1346
0
VERTEX
8
CUT
10
213.9163
20
172.2872
0
VERTEX
8
CUT
10
213.9238
20
172.3183
0
VERTEX
8
CUT
10
215.1629
20
177.6611
0
VERTEX
8
CUT
10
215.2104
20
177.7647
0
VERTEX
8
CUT
10
215.2768
20
177.9311
0
VERTEX
8
CUT
10
215.3258
20
178.0743
0
VERTEX
8
CUT
10
215.4087
20
178.3625
0
VERTEX
8
CUT
10
215.4279
20
178.4358
0
VERTEX
8
CUT
10
215.6050
20
179.1913
0
VERTEX
8
CUT
10
215.6078
20
179.2037
0
VERTEX
8
CUT
10
215.6168
20
179.2433
0
VERTEX
8
CUT
10
215.6256
20
179.2852
0
VERTEX
8
CUT
10
215.6509
20
179.4140
0
VERTEX
8
CUT
10
215.6563
20
179.4431
0
VERTEX
8
CUT
10
215.9085
20
180.8759
0
VERTEX
8
CUT
10
215.9772
20
181.1723
0
VERTEX
8
CUT
10
215.9826
20
181.1960
0
VERTEX
8
CUT
10
216.0121
20
181.3332
0
VERTEX
8
CUT
10
216.0225
20
181.3862
0
VERTEX
8
CUT
10
216.0425
20
181.4987
0
VERTEX
8
CUT
10
216.0469
20
181.5244
0
VERTEX
8
CUT
10
216.2980
20
183.0888
0
VERTEX
8
CUT
10
216.8801
20
186.3957
0
VERTEX
8
CUT
10
216.9048
20
186.5359
0
VERTEX
8
CUT
10
216.9060
20
186.5431
0
VERTEX
8
CUT
10
216.9087
20
186.5594
0
VERTEX
8
CUT
10
216.9303
20
186.6946
0
VERTEX
8
CUT
10
216.9378
20
186.7468
0
VERTEX
8
CUT
10
216.9515
20
186.8573
0
VERTEX
8
CUT
10
216.9545
20
186.8826
0
VERTEX
8
CUT
10
217.0507
20
187.7770
0
VERTEX
8
CUT
10
217.0736
20
187.9199
0
VERTEX
8
CUT
10
217.0772
20
187.9434
0
VERTEX
8
CUT
10
217.0967
20
188.0782
0
VERTEX
8
CUT
10
217.1033
20
188.1303
0
VERTEX
8
CUT
10
217.1154
20
188.2405
0
VERTEX
8
CUT
10
217.1179
20
188.2657
0
VERTEX
8
CUT
10
217.2092
20
189.2513
0
VERTEX
8
CUT
10
217.7488
20
194.2675
0
VERTEX
8
CUT
10
217.7510
20
194.2893
0
VERTEX
8
CUT
10
217.7626
20
194.4142
0
VERTEX
8
CUT
10
217.7663
20
194.4624
0
VERTEX
8
CUT
10
217.7725
20
194.5643
0
VERTEX
8
CUT
10
217.7738
20
194.5876
0
VERTEX
8
CUT
10
217.8420
20
196.0801
0
VERTEX
8
CUT
10
217.9068
20
196.7789
0
VERTEX
8
CUT
10
217.9100
20
196.8201
0
VERTEX
8
CUT
10
217.9232
20
197.0218
0
VERTEX
8
CUT
10
217.9264
20
197.1043
0
VERTEX
8
CUT
10
217.9286
20
197.3065
0
VERTEX
8
CUT
10
217.9285
20
197.3477
0
VERTEX
8
CUT
10
217.9210
20
197.8078
0
VERTEX
8
CUT
10
217.9230
20
197.8510
0
VERTEX
8
CUT
10
217.9242
20
197.8839
0
VERTEX
8
CUT
10
217.9280
20
198.0446
0
VERTEX
8
CUT
10
217.9282
20
198.1102
0
VERTEX
8
CUT
10
217.9251
20
198.2710
0
VERTEX
8
CUT
10
217.9241
20
198.3038
0
VERTEX
8
CUT
10
217.9057
20
198.7576
0
VERTEX
8
CUT
10
217.8536
20
201.9789
0
VERTEX
8
CUT
10
217.8527
20
202.0100
0
VERTEX
8
CUT
10
217.8471
20
202.1625
0
VERTEX
8
CUT
10
217.8436
20
202.2246
0
VERTEX
8
CUT
10
217.8318
20
202.3767
0
VERTEX
8
CUT
10
217.8290
20
202.4077
0
VERTEX
8
CUT
10
217.7063
20
203.6552
0
VERTEX
8
CUT
10
217.6683
20
204.5897
0
VERTEX
8
CUT
10
217.6658
20
204.6356
0
VERTEX
8
CUT
10
217.6498
20
204.8604
0
VERTEX
8
CUT
10
217.6405
20
204.9519
0
VERTEX
8
CUT
10
217.6110
20
205.1753
0
VERTEX
8
CUT
10
217.6042
20
205.2208
0
VERTEX
8
CUT
10
217.4735
20
206.0222
0
VERTEX
8
CUT
10
217.3729
20
207.0451
0
VERTEX
8
CUT
10
217.3704
20
207.0693
0
VERTEX
8
CUT
10
217.3544
20
207.2088
0
VERTEX
8
CUT
10
217.3473
20
207.2623
0
VERTEX
8
CUT
10
217.3302
20
207.3754
0
VERTEX
8
CUT
10
217.3261
20
207.4010
0
VERTEX
8
CUT
10
216.9748
20
209.4892
0
VERTEX
8
CUT
10
216.9701
20
209.5153
0
VERTEX
8
CUT
10
216.9424
20
209.6642
0
VERTEX
8
CUT
10
216.9306
20
209.7214
0
VERTEX
8
CUT
10
216.9034
20
209.8418
0
VERTEX
8
CUT
10
216.8969
20
209.8692
0
VERTEX
8
CUT
10
216.7460
20
210.4832
0
VERTEX
8
CUT
10
216.6481
20
211.0833
0
VERTEX
8
CUT
10
216.6421
20
211.1178
0
VERTEX
8
CUT
10
216.6106
20
211.2864
0
VERTEX
8
CUT
10
216.5961
20
211.3549
0
VERTEX
8
CUT
10
216.5569
20
211.5219
0
VERTEX
8
CUT
10
216.5485
20
211.5558
0
VERTEX
8
CUT
10
215.7313
20
214.7071
0
VERTEX
8
CUT
10
215.7052
20
214.8194
0
VERTEX
8
CUT
10
215.6722
20
214.9793
0
VERTEX
8
CUT
10
215.6372
20
215.2072
0
VERTEX
8
CUT
10
215.6265
20
215.3121
0
VERTEX
8
CUT
10
215.6146
20
215.5424
0
VERTEX
8
CUT
10
215.6146
20
215.6478
0
VERTEX
8
CUT
10
215.6259
20
215.8751
0
VERTEX
8
CUT
10
215.6261
20
215.8781
0
VERTEX
8
CUT
10
215.6366
20
215.9831
0
VERTEX
8
CUT
10
215.6713
20
216.2110
0
VERTEX
8
CUT
10
215.6843
20
216.2742
0
VERTEX
8
CUT
10
215.6925
20
216.3144
0
VERTEX
8
CUT
10
215.7500
20
216.5377
0
VERTEX
8
CUT
10
215.7815
20
216.6383
0
VERTEX
8
CUT
10
215.8613
20
216.8547
0
VERTEX
8
CUT
10
215.9027
20
216.9516
0
VERTEX
8
CUT
10
216.0040
20
217.1588
0
VERTEX
8
CUT
10
216.0551
20
217.2511
0
VERTEX
8
CUT
10
216.1767
20
217.4469
0
VERTEX
8
CUT
10
216.2368
20
217.5336
0
VERTEX
8
CUT
10
216.3431
20
217.6714
0
VERTEX
8
CUT
10
216.3777
20
217.7162
0
VERTEX
8
CUT
10
216.4838
20
217.8402
0
VERTEX
8
CUT
10
216.5204
20
217.8809
0
VERTEX
8
CUT
10
216.5610
20
217.9259
0
VERTEX
8
CUT
10
218.5745
20
220.0518
0
VERTEX
8
CUT
10
219.1475
20
220.6568
0
VERTEX
8
CUT
10
218.9007
20
220.4098
0
VERTEX
8
CUT
10
218.8475
20
220.3591
0
VERTEX
8
CUT
10
218.6318
20
220.1632
0
VERTEX
8
CUT
10
218.5183
20
220.0698
0
VERTEX
8
CUT
10
218.3788
20
219.9658
0
VERTEX
8
CUT
10
218.2568
20
219.8837
0
VERTEX
8
CUT
10
218.1079
20
219.7937
0
VERTEX
8
CUT
10
217.9785
20
219.7238
0
VERTEX
8
CUT
10
217.8216
20
219.6485
0
VERTEX
8
CUT
10
217.6861
20
219.5915
0
VERTEX
8
CUT
10
217.5227
20
219.5318
0
VERTEX
8
CUT
10
217.3823
20
219.4880
0
VERTEX
8
CUT
10
217.2138
20
219.4444
0
VERTEX
8
CUT
10
217.0699
20
219.4144
0
VERTEX
8
CUT
10
216.8980
20
219.3873
0
VERTEX
8
CUT
10
216.7518
20
219.3714
0
VERTEX
8
CUT
10
216.5781
20
219.3609
0
VERTEX
8
CUT
10
216.4311
20
219.3592
0
VERTEX
8
CUT
10
216.2572
20
219.3656
0
VERTEX
8
CUT
10
216.1107
20
219.3781
0
VERTEX
8
CUT
10
215.9382
20
219.4013
0
VERTEX
8
CUT
10
215.7936
20
219.4279
0
VERTEX
8
CUT
10
215.6242
20
219.4676
0
VERTEX
8
CUT
10
215.4828
20
219.5080
0
VERTEX
8
CUT
10
215.3180
20
219.5639
0
VERTEX
8
CUT
10
215.1812
20
219.6178
0
VERTEX
8
CUT
10
215.0226
20
219.6894
0
VERTEX
8
CUT
10
214.8917
20
219.7563
0
VERTEX
8
CUT
10
214.7407
20
219.8428
0
VERTEX
8
CUT
10
214.6168
20
219.9220
0
VERTEX
8
CUT
10
214.4749
20
220.0228
0
VERTEX
8
CUT
10
214.3593
20
220.1136
0
VERTEX
8
CUT
10
214.2278
20
220.2275
0
VERTEX
8
CUT
10
214.1215
20
220.3291
0
VERTEX
8
CUT
10
214.0016
20
220.4552
0
VERTEX
8
CUT
10
213.9056
20
220.5666
0
VERTEX
8
CUT
10
213.7984
20
220.7037
0
VERTEX
8
CUT
10
213.7136
20
220.8238
0
VERTEX
8
CUT
10
213.5572
20
221.0698
0
VERTEX
8
CUT
10
213.5193
20
221.1327
0
VERTEX
8
CUT
10
212.0468
20
223.7162
0
VERTEX
8
CUT
10
212.0253
20
223.7531
0
VERTEX
8
CUT
10
211.9995
20
223.7964
0
VERTEX
8
CUT
10
211.9290
20
223.9075
0
VERTEX
8
CUT
10
211.8424
20
224.0355
0
VERTEX
8
CUT
10
211.7909
20
224.1084
0
VERTEX
8
CUT
10
211.7753
20
224.1292
0
VERTEX
8
CUT
10
211.7288
20
224.1903
0
VERTEX
8
CUT
10
211.7042
20
224.2220
0
VERTEX
8
CUT
10
209.0904
20
227.5300
0
VERTEX
8
CUT
10
209.0636
20
227.5633
0
VERTEX
8
CUT
10
209.0316
20
227.6022
0
VERTEX
8
CUT
10
208.9453
20
227.7014
0
VERTEX
8
CUT
10
208.8407
20
227.8147
0
VERTEX
8
CUT
10
208.7787
20
227.8792
0
VERTEX
8
CUT
10
208.7603
20
227.8974
0
VERTEX
8
CUT
10
208.7054
20
227.9505
0
VERTEX
8
CUT
10
208.6765
20
227.9780
0
VERTEX
8
CUT
10
205.6481
20
230.8088
0
VERTEX
8
CUT
10
205.5877
20
230.8634
0
VERTEX
8
CUT
10
205.4700
20
230.9658
0
VERTEX
8
CUT
10
205.4076
20
231.0181
0
VERTEX
8
CUT
10
205.3235
20
231.0861
0
VERTEX
8
CUT
10
205.2593
20
231.1362
0
VERTEX
8
CUT
10
205.1346
20
231.2300
0
VERTEX
8
CUT
10
205.0687
20
231.2777
0
VERTEX
8
CUT
10
201.7332
20
233.6032
0
VERTEX
8
CUT
10
201.6669
20
233.6477
0
VERTEX
8
CUT
10
201.5384
20
233.7307
0
VERTEX
8
CUT
10
201.4707
20
233.7728
0
VERTEX
8
CUT
10
201.3797
20
233.8272
0
VERTEX
8
CUT
10
201.3105
20
233.8670
0
VERTEX
8
CUT
10
201.1765
20
233.9408
0
VERTEX
8
CUT
10
201.1060
20
233.9781
0
VERTEX
8
CUT
10
197.2614
20
235.9252
0
VERTEX
8
CUT
10
197.1936
20
235.9581
0
VERTEX
8
CUT
10
197.0627
20
236.0190
0
VERTEX
8
CUT
10
196.9939
20
236.0497
0
VERTEX
8
CUT
10
196.9018
20
236.0889
0
VERTEX
8
CUT
10
196.8320
20
236.1173
0
VERTEX
8
CUT
10
196.6974
20
236.1695
0
VERTEX
8
CUT
10
196.6267
20
236.1955
0
VERTEX
8
CUT
10
192.3861
20
237.6793
0
VERTEX
8
CUT
10
192.3178
20
237.7020
0
VERTEX
8
CUT
10
192.1862
20
237.7435
0
VERTEX
8
CUT
10
192.1172
20
237.7640
0
VERTEX
8
CUT
10
192.0251
20
237.7898
0
VERTEX
8
CUT
10
191.9555
20
237.8082
0
VERTEX
8
CUT
10
191.8215
20
237.8412
0
VERTEX
8
CUT
10
191.7514
20
237.8573
0
VERTEX
8
CUT
10
187.1534
20
238.8387
0
VERTEX
8
CUT
10
187.0844
20
238.8523
0
VERTEX
8
CUT
10
186.9517
20
238.8764
0
VERTEX
8
CUT
10
186.8823
20
238.8879
0
VERTEX
8
CUT
10
186.7899
20
238.9017
0
VERTEX
8
CUT
10
186.7202
20
238.9111
0
VERTEX
8
CUT
10
186.5863
20
238.9269
0
VERTEX
8
CUT
10
186.5163
20
238.9341
0
VERTEX
8
CUT
10
184.9386
20
239.0715
0
VERTEX
8
CUT
10
184.8629
20
239.0800
0
VERTEX
8
CUT
10
184.5640
20
239.1212
0
VERTEX
8
CUT
10
184.4145
20
239.1495
0
VERTEX
8
CUT
10
184.2393
20
239.1918
0
VERTEX
8
CUT
10
184.0933
20
239.2349
0
VERTEX
8
CUT
10
183.9233
20
239.2946
0
VERTEX
8
CUT
10
183.7823
20
239.3521
0
VERTEX
8
CUT
10
183.6191
20
239.4284
0
VERTEX
8
CUT
10
183.4846
20
239.4998
0
VERTEX
8
CUT
10
183.3298
20
239.5921
0
VERTEX
8
CUT
10
183.2032
20
239.6765
0
VERTEX
8
CUT
10
183.0584
20
239.7838
0
VERTEX
8
CUT
10
182.9408
20
239.8805
0
VERTEX
8
CUT
10
182.8075
20
240.0018
0
VERTEX
8
CUT
10
182.7002
20
240.1097
0
VERTEX
8
CUT
10
182.5797
20
240.2437
0
VERTEX
8
CUT
10
182.4837
20
240.3619
0
VERTEX
8
CUT
10
182.3772
20
240.5072
0
VERTEX
8
CUT
10
182.2935
20
240.6344
0
VERTEX
8
CUT
10
182.2021
20
240.7897
0
VERTEX
8
CUT
10
182.1315
20
240.9246
0
VERTEX
8
CUT
10
182.0561
20
241.0882
0
VERTEX
8
CUT
10
181.9994
20
241.2295
0
VERTEX
8
CUT
10
181.9408
20
241.3999
0
VERTEX
8
CUT
10
181.8985
20
241.5462
0
VERTEX
8
CUT
10
181.8571
20
241.7215
0
VERTEX
8
CUT
10
181.8297
20
241.8713
0
VERTEX
8
CUT
10
181.8061
20
242.0499
0
VERTEX
8
CUT
10
181.7938
20
242.2017
0
VERTEX
8
CUT
10
181.7882
20
242.3818
0
VERTEX
8
CUT
10
181.7911
20
242.5340
0
VERTEX
8
CUT
10
181.8036
20
242.7138
0
VERTEX
8
CUT
10
181.8217
20
242.8649
0
VERTEX
8
CUT
10
181.8521
20
243.0425
0
VERTEX
8
CUT
10
181.8852
20
243.1911
0
VERTEX
8
CUT
10
181.9332
20
243.3648
0
VERTEX
8
CUT
10
181.9811
20
243.5093
0
VERTEX
8
CUT
10
182.0462
20
243.6773
0
VERTEX
8
CUT
10
182.1083
20
243.8164
0
VERTEX
8
CUT
10
182.2504
20
244.0960
0
VERTEX
8
CUT
10
182.2715
20
244.1356
0
VERTEX
8
CUT
10
182.2713
20
244.1357
0
VERTEX
8
CUT
10
182.3032
20
244.1944
0
VERTEX
8
CUT
10
182.3306
20
244.2466
0
SEQEND
0
POLYLINE
8
CUT
66
1
70
1
10
0.0
20
0.0
30
0.0
0
VERTEX
8
CUT
10
257.2150
20
251.1825
0
VERTEX
8
CUT
10
257.3512
20
251.1259
0
VERTEX
8
CUT
10
257.5155
20
251.0668
0
VERTEX
8
CUT
10
257.6565
20
251.0238
0
VERTEX
8
CUT
10
257.8257
20
250.9809
0
VERTEX
8
CUT
10
257.9702
20
250.9517
0
VERTEX
8
CUT
10
258.1428
20
250.9254
0
VERTEX
8
CUT
10
258.2894
20
250.9103
0
VERTEX
8
CUT
10
258.5812
20
250.8946
0
VERTEX
8
CUT
10
258.6549
20
250.8924
0
VERTEX
8
CUT
10
259.4077
20
250.8882
0
VERTEX
8
CUT
10
259.4725
20
250.8893
0
VERTEX
8
CUT
10
259.7293
20
250.8988
0
VERTEX
8
CUT
10
259.8585
20
250.9091
0
VERTEX
8
CUT
10
260.0108
20
250.9279
0
VERTEX
8
CUT
10
260.1386
20
250.9492
0
VERTEX
8
CUT
10
260.3900
20
251.0021
0
VERTEX
8
CUT
10
260.4531
20
251.0169
0
VERTEX
8
CUT
10
260.8600
20
251.1209
0
VERTEX
8
CUT
10
260.9409
20
251.1440
0
VERTEX
8
CUT
10
261.2590
20
251.2444
0
VERTEX
8
CUT
10
261.4165
20
251.3039
0
VERTEX
8
CUT
10
261.5985
20
251.3844
0
VERTEX
8
CUT
10
261.7484
20
251.4609
0
VERTEX
8
CUT
10
262.0365
20
251.6287
0
VERTEX
8
CUT
10
262.1081
20
251.6731
0
VERTEX
8
CUT
10
262.5473
20
251.9626
0
VERTEX
8
CUT
10
262.6089
20
252.0054
0
VERTEX
8
CUT
10
262.8490
20
252.1812
0
VERTEX
8
CUT
10
262.9656
20
252.2758
0
VERTEX
8
CUT
10
263.0979
20
252.3945
0
VERTEX
8
CUT
10
263.2046
20
252.5001
0
VERTEX
8
CUT
10
263.3246
20
252.6312
0
VERTEX
8
CUT
10
263.4203
20
252.7468
0
VERTEX
8
CUT
10
263.5268
20
252.8891
0
VERTEX
8
CUT
10
263.6106
20
253.0136
0
VERTEX
8
CUT
10
263.7025
20
253.1657
0
VERTEX
8
CUT
10
263.7737
20
253.2979
0
VERTEX
8
CUT
10
263.8501
20
253.4583
0
VERTEX
8
CUT
10
263.9079
20
253.5968
0
VERTEX
8
CUT
10
263.9682
20
253.7640
0
VERTEX
8
CUT
10
264.0120
20
253.9076
0
VERTEX
8
CUT
10
264.0554
20
254.0799
0
VERTEX
8
CUT
10
264.0849
20
254.2271
0
VERTEX
8
CUT
10
264.1112
20
254.4029
0
VERTEX
8
CUT
10
264.1260
20
254.5522
0
VERTEX
8
CUT
10
264.1406
20
254.8494
0
VERTEX
8
CUT
10
264.1425
20
254.9244
0
VERTEX
8
CUT
10
264.1425
20
258.7891
0
VERTEX
8
CUT
10
264.1405
20
258.8664
0
VERTEX
8
CUT
10
264.1250
20
259.1723
0
VERTEX
8
CUT
10
264.1093
20
259.3260
0
VERTEX
8
CUT
10
264.0815
20
259.5068
0
VERTEX
8
CUT
10
264.0503
20
259.6581
0
VERTEX
8
CUT
10
264.0042
20
259.8351
0
VERTEX
8
CUT
10
263.9578
20
259.9825
0
VERTEX
8
CUT
10
263.8941
20
260.1539
0
VERTEX
8
CUT
10
263.8329
20
260.2958
0
VERTEX
8
CUT
10
263.7521
20
260.4598
0
VERTEX
8
CUT
10
263.6769
20
260.5948
0
VERTEX
8
CUT
10
263.5798
20
260.7498
0
VERTEX
8
CUT
10
263.4913
20
260.8764
0
VERTEX
8
CUT
10
263.3790
20
261.0208
0
VERTEX
8
CUT
10
263.2780
20
261.1378
0
VERTEX
8
CUT
10
263.1517
20
261.2700
0
VERTEX
8
CUT
10
263.0394
20
261.3761
0
VERTEX
8
CUT
10
262.9002
20
261.4948
0
VERTEX
8
CUT
10
262.7777
20
261.5889
0
VERTEX
8
CUT
10
262.5258
20
261.7630
0
VERTEX
8
CUT
10
262.4611
20
261.8053
0
VERTEX
8
CUT
10
261.9762
20
262.1051
0
VERTEX
8
CUT
10
261.9142
20
262.1414
0
VERTEX
8
CUT
10
261.6652
20
262.2795
0
VERTEX
8
CUT
10
261.5365
20
262.3432
0
VERTEX
8
CUT
10
261.3806
20
262.4113
0
VERTEX
8
CUT
10
261.2465
20
262.4625
0
VERTEX
8
CUT
10
260.9760
20
262.5513
0
VERTEX
8
CUT
10
260.9073
20
262.5721
0
VERTEX
8
CUT
10
260.1687
20
262.7766
0
VERTEX
8
CUT
10
260.0882
20
262.7966
0
VERTEX
8
CUT
10
259.7671
20
262.8669
0
VERTEX
8
CUT
10
259.6033
20
262.8935
0
VERTEX
8
CUT
10
259.4082
20
262.9143
0
VERTEX
8
CUT
10
259.2426
20
262.9229
0
VERTEX
8
CUT
10
258.9140
20
262.9219
0
VERTEX
8
CUT
10
258.8311
20
262.9194
0
VERTEX
8
CUT
10
258.3793
20
262.8935
0
VERTEX
8
CUT
10
258.3007
20
262.8869
0
VERTEX
8
CUT
10
257.9897
20
262.8528
0
VERTEX
8
CUT
10
257.8339
20
262.8274
0
VERTEX
8
CUT
10
257.6514
20
262.7879
0
VERTEX
8
CUT
10
257.4991
20
262.7465
0
VERTEX
8
CUT
10
257.2020
20
262.6490
0
VERTEX
8
CUT
10
257.1277
20
262.6225
0
VERTEX
8
CUT
10
256.6658
20
262.4438
0
VERTEX
8
CUT
10
256.5919
20
262.4130
0
VERTEX
8
CUT
10
256.3024
20
262.2831
0
VERTEX
8
CUT
10
256.1600
20
262.2100
0
VERTEX
8
CUT
10
255.9963
20
262.1147
0
VERTEX
8
CUT
10
255.8624
20
262.0271
0
VERTEX
8
CUT
10
255.6066
20
261.8396
0
VERTEX
8
CUT
10
255.5433
20
261.7906
0
VERTEX
8
CUT
10
255.0571
20
261.3933
0
VERTEX
8
CUT
10
255.0036
20
261.3474
0
VERTEX
8
CUT
10
254.7955
20
261.1607
0
VERTEX
8
CUT
10
254.6951
20
261.0617
0
VERTEX
8
CUT
10
254.5817
20
260.9392
0
VERTEX
8
CUT
10
254.4909
20
260.8313
0
VERTEX
8
CUT
10
254.3209
20
260.6095
0
VERTEX
8
CUT
10
254.2794
20
260.5525
0
VERTEX
8
CUT
10
253.9685
20
260.1052
0
VERTEX
8
CUT
10
253.9280
20
260.0437
0
VERTEX
8
CUT
10
253.7731
20
259.7962
0
VERTEX
8
CUT
10
253.7012
20
259.6676
0
VERTEX
8
CUT
10
253.6235
20
259.5115
0
VERTEX
8
CUT
10
253.5643
20
259.3766
0
VERTEX
8
CUT
10
253.4601
20
259.1040
0
VERTEX
8
CUT
10
253.4355
20
259.0345
0
VERTEX
8
CUT
10
253.2685
20
258.5244
0
VERTEX
8
CUT
10
253.2468
20
258.4523
0
VERTEX
8
CUT
10
253.1681
20
258.1646
0
VERTEX
8
CUT
10
253.1357
20
258.0177
0
VERTEX
8
CUT
10
253.1059
20
257.8421
0
VERTEX
8
CUT
10
253.0881
20
257.6927
0
VERTEX
8
CUT
10
253.0676
20
257.3952
0
VERTEX
8
CUT
10
253.0643
20
257.3201
0
VERTEX
8
CUT
10
253.0520
20
256.6866
0
VERTEX
8
CUT
10
253.0522
20
256.6203
0
VERTEX
8
CUT
10
253.0586
20
256.3575
0
VERTEX
8
CUT
10
253.0676
20
256.2252
0
VERTEX
8
CUT
10
253.0850
20
256.0692
0
VERTEX
8
CUT
10
253.1055
20
255.9382
0
VERTEX
8
CUT
10
253.1365
20
255.7843
0
VERTEX
8
CUT
10
253.1683
20
255.6556
0
VERTEX
8
CUT
10
253.2425
20
255.4035
0
VERTEX
8
CUT
10
253.2625
20
255.3403
0
VERTEX
8
CUT
10
253.5487
20
254.5038
0
VERTEX
8
CUT
10
253.5783
20
254.4246
0
VERTEX
8
CUT
10
253.7040
20
254.1145
0
VERTEX
8
CUT
10
253.7761
20
253.9618
0
VERTEX
8
CUT
10
253.9354
20
253.6676
0
VERTEX
8
CUT
10
253.9776
20
253.5945
0
VERTEX
8
CUT
10
254.0406
20
253.4923
0
VERTEX
8
CUT
10
254.0744
20
253.4398
0
VERTEX
8
CUT
10
254.2126
20
253.2348
0
VERTEX
8
CUT
10
254.2864
20
253.1343
0
VERTEX
8
CUT
10
254.3788
20
253.0189
0
VERTEX
8
CUT
10
254.4607
20
252.9248
0
VERTEX
8
CUT
10
254.6235
20
252.7525
0
VERTEX
8
CUT
10
254.7196
20
252.6594
0
VERTEX
8
CUT
10
254.9247
20
252.4774
0
VERTEX
8
CUT
10
255.0359
20
252.3877
0
VERTEX
8
CUT
10
255.1724
20
252.2879
0
VERTEX
8
CUT
10
255.2914
20
252.2091
0
VERTEX
8
CUT
10
255.5345
20
252.0641
0
VERTEX
8
CUT
10
255.5967
20
252.0290
0
VERTEX
8
CUT
10
256.8850
20
251.3407
0
VERTEX
8
CUT
10
256.9508
20
251.3075
0
SEQEND
0
POLYLINE
8
CUT
66
1
70
1
10
0.0
20
0.0
30
0.0
0
VERTEX
8
CUT
10
263.7569
20
146.1085
0
VERTEX
8
CUT
10
263.6825
20
146.2428
0
VERTEX
8
CUT
10
263.5866
20
146.3972
0
VERTEX
8
CUT
10
263.4991
20
146.5234
0
VERTEX
8
CUT
10
263.3881
20
146.6673
0
VERTEX
8
CUT
10
263.2883
20
146.7840
0
VERTEX
8
CUT
10
263.1634
20
146.9160
0
VERTEX
8
CUT
10
263.0523
20
147.0220
0
VERTEX
8
CUT
10
262.9147
20
147.1407
0
VERTEX
8
CUT
10
262.7935
20
147.2350
0
VERTEX
8
CUT
10
262.6446
20
147.3392
0
VERTEX
8
CUT
10
262.5145
20
147.4207
0
VERTEX
8
CUT
10
262.3558
20
147.5094
0
VERTEX
8
CUT
10
262.2182
20
147.5774
0
VERTEX
8
CUT
10
262.0514
20
147.6496
0
VERTEX
8
CUT
10
261.9076
20
147.7034
0
VERTEX
8
CUT
10
261.7343
20
147.7584
0
VERTEX
8
CUT
10
261.5858
20
147.7974
0
VERTEX
8
CUT
10
261.4079
20
147.8346
0
VERTEX
8
CUT
10
261.2562
20
147.8584
0
VERTEX
8
CUT
10
261.0755
20
147.8775
0
VERTEX
8
CUT
10
260.9222
20
147.8859
0
VERTEX
8
CUT
10
260.6747
20
147.8870
0
VERTEX
8
CUT
10
260.5136
20
147.8791
0
VERTEX
8
CUT
10
260.2316
20
147.8502
0
VERTEX
8
CUT
10
260.0646
20
147.8236
0
VERTEX
8
CUT
10
259.8692
20
147.7813
0
VERTEX
8
CUT
10
259.7062
20
147.7364
0
VERTEX
8
CUT
10
259.5034
20
147.6681
0
VERTEX
8
CUT
10
259.3543
20
147.6090
0
VERTEX
8
CUT
10
259.1852
20
147.5314
0
VERTEX
8
CUT
10
259.0465
20
147.4589
0
VERTEX
8
CUT
10
258.8910
20
147.3671
0
VERTEX
8
CUT
10
258.7618
20
147.2817
0
VERTEX
8
CUT
10
258.6143
20
147.1731
0
VERTEX
8
CUT
10
258.4945
20
147.0750
0
VERTEX
8
CUT
10
258.3588
20
146.9518
0
VERTEX
8
CUT
10
258.2496
20
146.8421
0
VERTEX
8
CUT
10
258.1272
20
146.7058
0
VERTEX
8
CUT
10
258.0297
20
146.5855
0
VERTEX
8
CUT
10
257.9218
20
146.4375
0
VERTEX
8
CUT
10
257.8370
20
146.3079
0
VERTEX
8
CUT
10
257.7447
20
146.1496
0
VERTEX
8
CUT
10
257.6736
20
146.0121
0
VERTEX
8
CUT
10
257.5979
20
145.8453
0
VERTEX
8
CUT
10
257.5411
20
145.7012
0
VERTEX
8
CUT
10
257.4827
20
145.5275
0
VERTEX
8
CUT
10
257.4409
20
145.3785
0
VERTEX
8
CUT
10
257.4005
20
145.1998
0
VERTEX
8
CUT
10
257.3741
20
145.0472
0
VERTEX
8
CUT
10
257.3372
20
144.7427
0
VERTEX
8
CUT
10
257.3299
20
144.6656
0
VERTEX
8
CUT
10
257.2440
20
143.4338
0
VERTEX
8
CUT
10
257.2407
20
143.3604
0
VERTEX
8
CUT
10
257.2345
20
143.0692
0
VERTEX
8
CUT
10
257.2385
20
142.9223
0
VERTEX
8
CUT
10
257.2516
20
142.7488
0
VERTEX
8
CUT
10
257.2698
20
142.6030
0
VERTEX
8
CUT
10
257.2996
20
142.4317
0
VERTEX
8
CUT
10
257.3317
20
142.2883
0
VERTEX
8
CUT
10
257.3779
20
142.1206
0
VERTEX
8
CUT
10
257.4238
20
141.9810
0
VERTEX
8
CUT
10
257.4859
20
141.8186
0
VERTEX
8
CUT
10
257.5450
20
141.6841
0
VERTEX
8
CUT
10
257.6226
20
141.5284
0
VERTEX
8
CUT
10
257.6944
20
141.4002
0
VERTEX
8
CUT
10
257.7867
20
141.2528
0
VERTEX
8
CUT
10
257.8705
20
141.1321
0
VERTEX
8
CUT
10
257.9766
20
140.9943
0
VERTEX
8
CUT
10
258.0717
20
140.8823
0
VERTEX
8
CUT
10
258.1905
20
140.7553
0
VERTEX
8
CUT
10
258.2960
20
140.6530
0
VERTEX
8
CUT
10
258.4266
20
140.5381
0
VERTEX
8
CUT
10
258.5415
20
140.4465
0
VERTEX
8
CUT
10
258.6825
20
140.3447
0
VERTEX
8
CUT
10
258.8057
20
140.2646
0
VERTEX
8
CUT
10
258.9559
20
140.1769
0
VERTEX
8
CUT
10
259.0862
20
140.1091
0
VERTEX
8
CUT
10
259.3507
20
139.9873
0
VERTEX
8
CUT
10
259.4182
20
139.9582
0
VERTEX
8
CUT
10
259.4644
20
139.9395
0
VERTEX
8
CUT
10
259.5339
20
139.9135
0
VERTEX
8
CUT
10
259.8119
20
139.8169
0
VERTEX
8
CUT
10
259.9543
20
139.7751
0
VERTEX
8
CUT
10
260.1252
20
139.7339
0
VERTEX
8
CUT
10
260.2710
20
139.7061
0
VERTEX
8
CUT
10
260.4450
20
139.6818
0
VERTEX
8
CUT
10
260.5929
20
139.6684
0
VERTEX
8
CUT
10
260.7684
20
139.6612
0
VERTEX
8
CUT
10
260.9169
20
139.6623
0
VERTEX
8
CUT
10
261.0923
20
139.6722
0
VERTEX
8
CUT
10
261.2399
20
139.6878
0
VERTEX
8
CUT
10
261.4136
20
139.7148
0
VERTEX
8
CUT
10
261.5590
20
139.7447
0
VERTEX
8
CUT
10
261.7291
20
139.7885
0
VERTEX
8
CUT
10
261.8709
20
139.8325
0
VERTEX
8
CUT
10
262.0360
20
139.8927
0
VERTEX
8
CUT
10
262.1729
20
139.9503
0
VERTEX
8
CUT
10
262.3313
20
140.0262
0
VERTEX
8
CUT
10
262.4618
20
140.0969
0
VERTEX
8
CUT
10
262.6121
20
140.1880
0
VERTEX
8
CUT
10
262.7351
20
140.2711
0
VERTEX
8
CUT
10
262.8758
20
140.3764
0
VERTEX
8
CUT
10
262.9902
20
140.4710
0
VERTEX
8
CUT
10
263.1199
20
140.5896
0
VERTEX
8
CUT
10
263.2244
20
140.6949
0
VERTEX
8
CUT
10
263.3420
20
140.8255
0
VERTEX
8
CUT
10
263.4358
20
140.9406
0
VERTEX
8
CUT
10
263.5400
20
141.0821
0
VERTEX
8
CUT
10
263.6221
20
141.2057
0
VERTEX
8
CUT
10
263.7121
20
141.3567
0
VERTEX
8
CUT
10
263.7817
20
141.4878
0
VERTEX
8
CUT
10
263.8565
20
141.6468
0
VERTEX
8
CUT
10
263.9131
20
141.7840
0
VERTEX
8
CUT
10
263.9720
20
141.9496
0
VERTEX
8
CUT
10
264.0149
20
142.0917
0
VERTEX
8
CUT
10
264.0574
20
142.2622
0
VERTEX
8
CUT
10
264.0862
20
142.4078
0
VERTEX
8
CUT
10
264.1119
20
142.5817
0
VERTEX
8
CUT
10
264.1263
20
142.7294
0
VERTEX
8
CUT
10
264.1407
20
143.0232
0
VERTEX
8
CUT
10
264.1425
20
143.0974
0
VERTEX
8
CUT
10
264.1425
20
144.4474
0
VERTEX
8
CUT
10
264.1406
20
144.5242
0
VERTEX
8
CUT
10
264.1252
20
144.8281
0
VERTEX
8
CUT
10
264.1097
20
144.9810
0
VERTEX
8
CUT
10
264.0822
20
145.1606
0
VERTEX
8
CUT
10
264.0514
20
145.3110
0
VERTEX
8
CUT
10
264.0060
20
145.4870
0
VERTEX
8
CUT
10
263.9601
20
145.6336
0
VERTEX
8
CUT
10
263.8971
20
145.8040
0
VERTEX
8
CUT
10
263.8367
20
145.9452
0
SEQEND
0
POLYLINE
8
CUT
66
1
70
1
10
0.0
20
0.0
30
0.0
0
VERTEX
8
CUT
10
230.9398
20
75.0199
0
VERTEX
8
CUT
10
230.9572
20
74.9454
0
VERTEX
8
CUT
10
230.9767
20
74.8704
0
VERTEX
8
CUT
10
230.9947
20
74.8070
0
VERTEX
8
CUT
10
231.0715
20
74.5571
0
VERTEX
8
CUT
10
231.1157
20
74.4328
0
VERTEX
8
CUT
10
231.2138
20
74.1906
0
VERTEX
8
CUT
10
231.2399
20
74.1300
0
VERTEX
8
CUT
10
231.6278
20
73.2803
0
VERTEX
8
CUT
10
231.6620
20
73.2102
0
VERTEX
8
CUT
10
231.8046
20
72.9359
0
VERTEX
8
CUT
10
231.8836
20
72.8014
0
VERTEX
8
CUT
10
231.9851
20
72.6473
0
VERTEX
8
CUT
10
232.0774
20
72.5216
0
VERTEX
8
CUT
10
232.1942
20
72.3787
0
VERTEX
8
CUT
10
232.2989
20
72.2631
0
VERTEX
8
CUT
10
232.4297
20
72.1329
0
VERTEX
8
CUT
10
232.5457
20
72.0287
0
VERTEX
8
CUT
10
232.7859
20
71.8342
0
VERTEX
8
CUT
10
232.8477
20
71.7867
0
VERTEX
8
CUT
10
233.5042
20
71.3088
0
VERTEX
8
CUT
10
233.5620
20
71.2687
0
VERTEX
8
CUT
10
233.7948
20
71.1152
0
VERTEX
8
CUT
10
233.9156
20
71.0433
0
VERTEX
8
CUT
10
234.0625
20
70.9649
0
VERTEX
8
CUT
10
234.1895
20
70.9045
0
VERTEX
8
CUT
10
234.4464
20
70.7965
0
VERTEX
8
CUT
10
234.5118
20
70.7707
0
VERTEX
8
CUT
10
234.5778
20
70.7466
0
VERTEX
8
CUT
10
234.6469
20
70.7231
0
VERTEX
8
CUT
10
234.9231
20
70.6365
0
VERTEX
8
CUT
10
235.0644
20
70.5996
0
VERTEX
8
CUT
10
235.3476
20
70.5400
0
VERTEX
8
CUT
10
235.4194
20
70.5267
0
VERTEX
8
CUT
10
236.4974
20
70.3533
0
VERTEX
8
CUT
10
236.5706
20
70.3434
0
VERTEX
8
CUT
10
236.8617
20
70.3110
0
VERTEX
8
CUT
10
237.0093
20
70.3018
0
VERTEX
8
CUT
10
237.1842
20
70.2994
0
VERTEX
8
CUT
10
237.3319
20
70.3046
0
VERTEX
8
CUT
10
237.6237
20
70.3291
0
VERTEX
8
CUT
10
237.6971
20
70.3371
0
VERTEX
8
CUT
10
238.7413
20
70.4761
0
VERTEX
8
CUT
10
238.8312
20
70.4908
0
VERTEX
8
CUT
10
239.1855
20
70.5598
0
VERTEX
8
CUT
10
239.3620
20
70.6053
0
VERTEX
8
CUT
10
239.6569
20
70.7005
0
VERTEX
8
CUT
10
239.8276
20
70.7672
0
VERTEX
8
CUT
10
240.1130
20
70.8991
0
VERTEX
8
CUT
10
240.2753
20
70.9864
0
VERTEX
8
CUT
10
240.5855
20
71.1784
0
VERTEX
8
CUT
10
240.6623
20
71.2292
0
VERTEX
8
CUT
10
241.2443
20
71.6401
0
VERTEX
8
CUT
10
241.3030
20
71.6837
0
VERTEX
8
CUT
10
241.5315
20
71.8621
0
VERTEX
8
CUT
10
241.6423
20
71.9575
0
VERTEX
8
CUT
10
241.7679
20
72.0767
0
VERTEX
8
CUT
10
241.8690
20
72.1823
0
VERTEX
8
CUT
10
242.0590
20
72.4011
0
VERTEX
8
CUT
10
242.1057
20
72.4574
0
VERTEX
8
CUT
10
242.4357
20
72.8763
0
VERTEX
8
CUT
10
242.4824
20
72.9387
0
VERTEX
8
CUT
10
242.6609
20
73.1910
0
VERTEX
8
CUT
10
242.7444
20
73.3227
0
VERTEX
8
CUT
10
242.8350
20
73.4834
0
VERTEX
8
CUT
10
242.9045
20
73.6230
0
VERTEX
8
CUT
10
243.0278
20
73.9063
0
VERTEX
8
CUT
10
243.0571
20
73.9785
0
VERTEX
8
CUT
10
243.2402
20
74.4658
0
VERTEX
8
CUT
10
243.2627
20
74.5298
0
VERTEX
8
CUT
10
243.3460
20
74.7856
0
VERTEX
8
CUT
10
243.3822
20
74.9165
0
VERTEX
8
CUT
10
243.4181
20
75.0731
0
VERTEX
8
CUT
10
243.4425
20
75.2066
0
VERTEX
8
CUT
10
243.4790
20
75.4731
0
VERTEX
8
CUT
10
243.4867
20
75.5405
0
VERTEX
8
CUT
10
243.5354
20
76.0715
0
VERTEX
8
CUT
10
243.5401
20
76.1376
0
VERTEX
8
CUT
10
243.5526
20
76.4001
0
VERTEX
8
CUT
10
243.5532
20
76.5327
0
VERTEX
8
CUT
10
243.5470
20
76.6896
0
VERTEX
8
CUT
10
243.5360
20
76.8217
0
VERTEX
8
CUT
10
243.5028
20
77.0824
0
VERTEX
8
CUT
10
243.4930
20
77.1479
0
VERTEX
8
CUT
10
243.3932
20
77.7288
0
VERTEX
8
CUT
10
243.3804
20
77.7945
0
VERTEX
8
CUT
10
243.3241
20
78.0535
0
VERTEX
8
CUT
10
243.2899
20
78.1829
0
VERTEX
8
CUT
10
243.2428
20
78.3341
0
VERTEX
8
CUT
10
243.1974
20
78.4599
0
VERTEX
8
CUT
10
243.0965
20
78.7050
0
VERTEX
8
CUT
10
243.0697
20
78.7663
0
VERTEX
8
CUT
10
242.8067
20
79.3334
0
VERTEX
8
CUT
10
242.7759
20
79.3960
0
VERTEX
8
CUT
10
242.6480
20
79.6416
0
VERTEX
8
CUT
10
242.5779
20
79.7623
0
VERTEX
8
CUT
10
242.4884
20
79.9013
0
VERTEX
8
CUT
10
242.4075
20
80.0151
0
VERTEX
8
CUT
10
242.2369
20
80.2331
0
VERTEX
8
CUT
10
242.1927
20
80.2870
0
VERTEX
8
CUT
10
241.7413
20
80.8123
0
VERTEX
8
CUT
10
241.6985
20
80.8599
0
VERTEX
8
CUT
10
241.5251
20
81.0453
0
VERTEX
8
CUT
10
241.4338
20
81.1350
0
VERTEX
8
CUT
10
241.3213
20
81.2367
0
VERTEX
8
CUT
10
241.2227
20
81.3184
0
VERTEX
8
CUT
10
241.0207
20
81.4720
0
VERTEX
8
CUT
10
240.9690
20
81.5097
0
VERTEX
8
CUT
10
240.2214
20
82.0301
0
VERTEX
8
CUT
10
240.1641
20
82.0681
0
VERTEX
8
CUT
10
239.9336
20
82.2136
0
VERTEX
8
CUT
10
239.8142
20
82.2816
0
VERTEX
8
CUT
10
239.6692
20
82.3557
0
VERTEX
8
CUT
10
239.5441
20
82.4126
0
VERTEX
8
CUT
10
239.2913
20
82.5142
0
VERTEX
8
CUT
10
239.2269
20
82.5384
0
VERTEX
8
CUT
10
239.2134
20
82.5431
0
VERTEX
8
CUT
10
239.1305
20
82.5695
0
VERTEX
8
CUT
10
238.7992
20
82.6646
0
VERTEX
8
CUT
10
238.6295
20
82.7029
0
VERTEX
8
CUT
10
238.4267
20
82.7367
0
VERTEX
8
CUT
10
238.2538
20
82.7554
0
VERTEX
8
CUT
10
237.9097
20
82.7728
0
VERTEX
8
CUT
10
237.8228
20
82.7747
0
VERTEX
8
CUT
10
236.7961
20
82.7678
0
VERTEX
8
CUT
10
236.7237
20
82.7656
0
VERTEX
8
CUT
10
236.4369
20
82.7499
0
VERTEX
8
CUT
10
236.2927
20
82.7352
0
VERTEX
8
CUT
10
236.1231
20
82.7096
0
VERTEX
8
CUT
10
235.9811
20
82.6812
0
VERTEX
8
CUT
10
235.8147
20
82.6395
0
VERTEX
8
CUT
10
235.6760
20
82.5977
0
VERTEX
8
CUT
10
235.4053
20
82.5019
0
VERTEX
8
CUT
10
235.3377
20
82.4760
0
VERTEX
8
CUT
10
234.1498
20
81.9904
0
VERTEX
8
CUT
10
234.0904
20
81.9646
0
VERTEX
8
CUT
10
233.8569
20
81.8573
0
VERTEX
8
CUT
10
233.7415
20
81.7982
0
VERTEX
8
CUT
10
233.6080
20
81.7225
0
VERTEX
8
CUT
10
233.4981
20
81.6538
0
VERTEX
8
CUT
10
233.2863
20
81.5084
0
VERTEX
8
CUT
10
233.2337
20
81.4707
0
VERTEX
8
CUT
10
233.0020
20
81.2968
0
VERTEX
8
CUT
10
232.9372
20
81.2453
0
VERTEX
8
CUT
10
232.6860
20
81.0344
0
VERTEX
8
CUT
10
232.5652
20
80.9212
0
VERTEX
8
CUT
10
232.3386
20
80.6843
0
VERTEX
8
CUT
10
232.2830
20
80.6230
0
VERTEX
8
CUT
10
232.0472
20
80.3481
0
VERTEX
8
CUT
10
231.9980
20
80.2876
0
VERTEX
8
CUT
10
231.8090
20
80.0430
0
VERTEX
8
CUT
10
231.7201
20
79.9148
0
VERTEX
8
CUT
10
231.5573
20
79.6522
0
VERTEX
8
CUT
10
231.5179
20
79.5849
0
VERTEX
8
CUT
10
231.3942
20
79.3604
0
VERTEX
8
CUT
10
231.3621
20
79.2988
0
VERTEX
8
CUT
10
231.2404
20
79.0519
0
VERTEX
8
CUT
10
231.1848
20
78.9246
0
VERTEX
8
CUT
10
231.1258
20
78.7711
0
VERTEX
8
CUT
10
231.0820
20
78.6394
0
VERTEX
8
CUT
10
231.0072
20
78.3745
0
VERTEX
8
CUT
10
230.9899
20
78.3073
0
VERTEX
8
CUT
10
230.8763
20
77.8208
0
VERTEX
8
CUT
10
230.8616
20
77.7507
0
VERTEX
8
CUT
10
230.8101
20
77.4715
0
VERTEX
8
CUT
10
230.7908
20
77.3296
0
VERTEX
8
CUT
10
230.7759
20
77.1606
0
VERTEX
8
CUT
10
230.7700
20
77.0176
0
VERTEX
8
CUT
10
230.7718
20
76.7337
0
VERTEX
8
CUT
10
230.7739
20
76.6621
0
VERTEX
8
CUT
10
230.8174
20
75.8460
0
VERTEX
8
CUT
10
230.8234
20
75.7697
0
VERTEX
8
CUT
10
230.8548
20
75.4680
0
VERTEX
8
CUT
10
230.8783
20
75.3168
0
SEQEND
0
POLYLINE
8
CUT
66
1
70
1
10
0.0
20
0.0
30
0.0
0
VERTEX
8
CUT
10
185.2470
20
244.2103
0
VERTEX
8
CUT
10
185.3885
20
244.1352
0
VERTEX
8
CUT
10
185.5603
20
244.0548
0
VERTEX
8
CUT
10
185.7087
20
243.9943
0
VERTEX
8
CUT
10
185.8877
20
243.9315
0
VERTEX
8
CUT
10
186.0414
20
243.8861
0
VERTEX
8
CUT
10
186.2257
20
243.8415
0
VERTEX
8
CUT
10
186.3832
20
243.8117
0
VERTEX
8
CUT
10
186.6978
20
243.7684
0
VERTEX
8
CUT
10
186.7774
20
243.7594
0
VERTEX
8
CUT
10
188.4382
20
243.6148
0
VERTEX
8
CUT
10
188.5119
20
243.6073
0
VERTEX
8
CUT
10
188.6528
20
243.5906
0
VERTEX
8
CUT
10
188.7262
20
243.5808
0
VERTEX
8
CUT
10
188.8235
20
243.5662
0
VERTEX
8
CUT
10
188.8966
20
243.5541
0
VERTEX
8
CUT
10
189.0362
20
243.5288
0
VERTEX
8
CUT
10
189.1088
20
243.5144
0
VERTEX
8
CUT
10
193.9488
20
242.4814
0
VERTEX
8
CUT
10
194.0227
20
242.4644
0
VERTEX
8
CUT
10
194.1637
20
242.4296
0
VERTEX
8
CUT
10
194.2370
20
242.4103
0
VERTEX
8
CUT
10
194.3339
20
242.3831
0
VERTEX
8
CUT
10
194.4066
20
242.3615
0
VERTEX
8
CUT
10
194.5451
20
242.3179
0
VERTEX
8
CUT
10
194.6170
20
242.2940
0
VERTEX
8
CUT
10
199.0807
20
240.7321
0
VERTEX
8
CUT
10
199.1552
20
240.7047
0
VERTEX
8
CUT
10
199.2969
20
240.6498
0
VERTEX
8
CUT
10
199.3703
20
240.6199
0
VERTEX
8
CUT
10
199.4673
20
240.5786
0
VERTEX
8
CUT
10
199.5397
20
240.5463
0
VERTEX
8
CUT
10
199.6775
20
240.4822
0
VERTEX
8
CUT
10
199.7488
20
240.4475
0
VERTEX
8
CUT
10
203.7957
20
238.3980
0
VERTEX
8
CUT
10
203.8700
20
238.3587
0
VERTEX
8
CUT
10
204.0110
20
238.2810
0
VERTEX
8
CUT
10
204.0839
20
238.2392
0
VERTEX
8
CUT
10
204.1796
20
238.1819
0
VERTEX
8
CUT
10
204.2510
20
238.1376
0
VERTEX
8
CUT
10
204.3862
20
238.0502
0
VERTEX
8
CUT
10
204.4560
20
238.0033
0
VERTEX
8
CUT
10
207.9670
20
235.5555
0
VERTEX
8
CUT
10
208.0364
20
235.5052
0
VERTEX
8
CUT
10
208.1677
20
235.4065
0
VERTEX
8
CUT
10
208.2353
20
235.3538
0
VERTEX
8
CUT
10
208.3238
20
235.2822
0
VERTEX
8
CUT
10
208.3894
20
235.2271
0
VERTEX
8
CUT
10
208.5133
20
235.1194
0
VERTEX
8
CUT
10
208.5770
20
235.0619
0
VERTEX
8
CUT
10
211.7648
20
232.0821
0
VERTEX
8
CUT
10
211.7952
20
232.0532
0
VERTEX
8
CUT
10
211.8529
20
231.9972
0
VERTEX
8
CUT
10
211.8724
20
231.9781
0
VERTEX
8
CUT
10
211.9376
20
231.9103
0
VERTEX
8
CUT
10
212.0476
20
231.7910
0
VERTEX
8
CUT
10
212.1386
20
231.6865
0
VERTEX
8
CUT
10
212.1722
20
231.6456
0
VERTEX
8
CUT
10
212.2004
20
231.6106
0
VERTEX
8
CUT
10
214.9518
20
228.1284
0
VERTEX
8
CUT
10
214.9777
20
228.0951
0
VERTEX
8
CUT
10
215.0267
20
228.0308
0
VERTEX
8
CUT
10
215.0431
20
228.0088
0
VERTEX
8
CUT
10
215.0973
20
227.9321
0
VERTEX
8
CUT
10
215.1884
20
227.7974
0
VERTEX
8
CUT
10
215.2627
20
227.6804
0
VERTEX
8
CUT
10
215.2898
20
227.6349
0
VERTEX
8
CUT
10
215.3124
20
227.5960
0
VERTEX
8
CUT
10
216.8624
20
224.8766
0
VERTEX
8
CUT
10
216.9023
20
224.8103
0
VERTEX
8
CUT
10
217.0669
20
224.5514
0
VERTEX
8
CUT
10
217.1562
20
224.4250
0
VERTEX
8
CUT
10
217.2690
20
224.2806
0
VERTEX
8
CUT
10
217.3701
20
224.1634
0
VERTEX
8
CUT
10
217.4963
20
224.0306
0
VERTEX
8
CUT
10
217.6082
20
223.9237
0
VERTEX
8
CUT
10
217.7466
20
223.8038
0
VERTEX
8
CUT
10
217.8683
20
223.7082
0
VERTEX
8
CUT
10
218.0177
20
223.6021
0
VERTEX
8
CUT
10
218.1481
20
223.5188
0
VERTEX
8
CUT
10
218.3070
20
223.4277
0
VERTEX
8
CUT
10
218.4176
20
223.3712
0
VERTEX
8
CUT
10
218.4449
20
223.3573
0
VERTEX
8
CUT
10
218.6118
20
223.2819
0
VERTEX
8
CUT
10
218.7558
20
223.2252
0
VERTEX
8
CUT
10
218.9293
20
223.1664
0
VERTEX
8
CUT
10
219.0781
20
223.1238
0
VERTEX
8
CUT
10
219.2564
20
223.0820
0
VERTEX
8
CUT
10
219.4086
20
223.0540
0
VERTEX
8
CUT
10
219.5902
20
223.0296
0
VERTEX
8
CUT
10
219.7444
20
223.0164
0
VERTEX
8
CUT
10
219.9275
20
223.0097
0
VERTEX
8
CUT
10
220.0822
20
223.0115
0
VERTEX
8
CUT
10
220.2651
20
223.0225
0
VERTEX
8
CUT
10
220.4189
20
223.0392
0
VERTEX
8
CUT
10
220.5999
20
223.0678
0
VERTEX
8
CUT
10
220.7514
20
223.0994
0
VERTEX
8
CUT
10
220.9287
20
223.1453
0
VERTEX
8
CUT
10
221.0765
20
223.1913
0
VERTEX
8
CUT
10
221.2485
20
223.2542
0
VERTEX
8
CUT
10
221.3912
20
223.3143
0
VERTEX
8
CUT
10
221.5564
20
223.3935
0
VERTEX
8
CUT
10
221.6925
20
223.4670
0
VERTEX
8
CUT
10
221.8493
20
223.5618
0
VERTEX
8
CUT
10
221.9777
20
223.6482
0
VERTEX
8
CUT
10
222.1246
20
223.7577
0
VERTEX
8
CUT
10
222.2440
20
223.8560
0
VERTEX
8
CUT
10
222.3677
20
223.9684
0
VERTEX
8
CUT
10
222.4710
20
224.0622
0
VERTEX
8
CUT
10
222.5270
20
224.1156
0
VERTEX
8
CUT
10
222.9523
20
224.5411
0
VERTEX
8
CUT
10
222.9778
20
224.5672
0
VERTEX
8
CUT
10
223.1013
20
224.6966
0
VERTEX
8
CUT
10
223.1505
20
224.7504
0
VERTEX
8
CUT
10
223.2679
20
224.8853
0
VERTEX
8
CUT
10
223.2916
20
224.9130
0
VERTEX
8
CUT
10
225.3370
20
227.3715
0
VERTEX
8
CUT
10
225.3671
20
227.4089
0
VERTEX
8
CUT
10
225.5121
20
227.5941
0
VERTEX
8
CUT
10
225.5689
20
227.6714
0
VERTEX
8
CUT
10
225.7025
20
227.8650
0
VERTEX
8
CUT
10
225.7291
20
227.9049
0
VERTEX
8
CUT
10
226.2646
20
228.7331
0
VERTEX
8
CUT
10
226.3080
20
228.8042
0
VERTEX
8
CUT
10
226.4725
20
229.0901
0
VERTEX
8
CUT
10
226.5478
20
229.2386
0
VERTEX
8
CUT
10
226.6278
20
229.4185
0
VERTEX
8
CUT
10
226.6873
20
229.5740
0
VERTEX
8
CUT
10
226.7481
20
229.7613
0
VERTEX
8
CUT
10
226.7911
20
229.9220
0
VERTEX
8
CUT
10
226.8321
20
230.1147
0
VERTEX
8
CUT
10
226.8583
20
230.2790
0
VERTEX
8
CUT
10
226.8790
20
230.4749
0
VERTEX
8
CUT
10
226.8879
20
230.6410
0
VERTEX
8
CUT
10
226.8885
20
230.9708
0
VERTEX
8
CUT
10
226.8864
20
231.0540
0
VERTEX
8
CUT
10
226.8518
20
231.7397
0
VERTEX
8
CUT
10
226.8492
20
231.7806
0
VERTEX
8
CUT
10
226.8340
20
231.9809
0
VERTEX
8
CUT
10
226.8257
20
232.0624
0
VERTEX
8
CUT
10
226.8002
20
232.2617
0
VERTEX
8
CUT
10
226.7944
20
232.3023
0
VERTEX
8
CUT
10
226.5212
20
234.0757
0
VERTEX
8
CUT
10
226.5111
20
234.1341
0
VERTEX
8
CUT
10
226.4667
20
234.3650
0
VERTEX
8
CUT
10
226.4400
20
234.4805
0
VERTEX
8
CUT
10
226.3787
20
234.7074
0
VERTEX
8
CUT
10
226.3621
20
234.7643
0
VERTEX
8
CUT
10
226.0248
20
235.8507
0
VERTEX
8
CUT
10
226.0457
20
236.0450
0
VERTEX
8
CUT
10
226.0545
20
236.2001
0
VERTEX
8
CUT
10
226.0561
20
236.5078
0
VERTEX
8
CUT
10
226.0561
20
236.5087
0
VERTEX
8
CUT
10
226.0545
20
236.5855
0
VERTEX
8
CUT
10
226.0545
20
236.5859
0
VERTEX
8
CUT
10
225.9039
20
239.8727
0
VERTEX
8
CUT
10
225.8989
20
239.9435
0
VERTEX
8
CUT
10
225.8730
20
240.2237
0
VERTEX
8
CUT
10
225.8533
20
240.3642
0
VERTEX
8
CUT
10
225.8013
20
240.6406
0
VERTEX
8
CUT
10
225.7865
20
240.7101
0
VERTEX
8
CUT
10
225.0023
20
244.0208
0
VERTEX
8
CUT
10
224.9832
20
244.0934
0
VERTEX
8
CUT
10
224.9004
20
244.3791
0
VERTEX
8
CUT
10
224.8516
20
244.5210
0
VERTEX
8
CUT
10
224.8391
20
244.5522
0
VERTEX
8
CUT
10
224.8383
20
244.5545
0
VERTEX
8
CUT
10
224.7646
20
244.7383
0
VERTEX
8
CUT
10
224.7411
20
244.7970
0
VERTEX
8
CUT
10
224.7404
20
244.7985
0
VERTEX
8
CUT
10
224.7281
20
244.8294
0
VERTEX
8
CUT
10
224.6986
20
244.8980
0
VERTEX
8
CUT
10
223.2214
20
248.1143
0
VERTEX
8
CUT
10
223.1937
20
248.1715
0
VERTEX
8
CUT
10
223.0792
20
248.3957
0
VERTEX
8
CUT
10
223.0167
20
248.5063
0
VERTEX
8
CUT
10
222.8838
20
248.7202
0
VERTEX
8
CUT
10
222.8492
20
248.7734
0
VERTEX
8
CUT
10
222.8487
20
248.7742
0
VERTEX
8
CUT
10
220.8158
20
251.7604
0
VERTEX
8
CUT
10
220.7093
20
251.9168
0
VERTEX
8
CUT
10
220.7083
20
251.9183
0
VERTEX
8
CUT
10
220.7082
20
251.9185
0
VERTEX
8
CUT
10
220.6723
20
251.9689
0
VERTEX
8
CUT
10
220.5261
20
252.1660
0
VERTEX
8
CUT
10
220.4483
20
252.2624
0
VERTEX
8
CUT
10
220.2865
20
252.4469
0
VERTEX
8
CUT
10
220.2448
20
252.4925
0
VERTEX
8
CUT
10
217.3567
20
255.5277
0
VERTEX
8
CUT
10
217.3163
20
255.5685
0
VERTEX
8
CUT
10
217.1532
20
255.7274
0
VERTEX
8
CUT
10
217.0680
20
255.8044
0
VERTEX
8
CUT
10
217.0651
20
255.8068
0
VERTEX
8
CUT
10
217.0264
20
255.8417
0
VERTEX
8
CUT
10
216.8511
20
255.9880
0
VERTEX
8
CUT
10
216.8062
20
256.0241
0
VERTEX
8
CUT
10
214.5657
20
257.7549
0
VERTEX
8
CUT
10
213.2347
20
258.7859
0
VERTEX
8
CUT
10
213.2341
20
258.7864
0
VERTEX
8
CUT
10
213.1977
20
258.8138
0
VERTEX
8
CUT
10
213.0170
20
258.9453
0
VERTEX
8
CUT
10
212.9847
20
258.9674
0
VERTEX
8
CUT
10
212.9804
20
258.9704
0
VERTEX
8
CUT
10
212.9056
20
259.0214
0
VERTEX
8
CUT
10
212.7186
20
259.1409
0
VERTEX
8
CUT
10
212.6801
20
259.1647
0
VERTEX
8
CUT
10
208.6634
20
261.5649
0
VERTEX
8
CUT
10
208.6329
20
261.5826
0
VERTEX
8
CUT
10
208.4827
20
261.6677
0
VERTEX
8
CUT
10
208.4206
20
261.7010
0
VERTEX
8
CUT
10
208.4181
20
261.7023
0
VERTEX
8
CUT
10
208.3902
20
261.7172
0
VERTEX
8
CUT
10
208.2354
20
261.7957
0
VERTEX
8
CUT
10
208.2037
20
261.8113
0
VERTEX
8
CUT
10
204.1168
20
263.7638
0
VERTEX
8
CUT
10
204.0550
20
263.7916
0
VERTEX
8
CUT
10
203.8078
20
263.8965
0
VERTEX
8
CUT
10
203.6809
20
263.9437
0
VERTEX
8
CUT
10
203.5283
20
263.9930
0
VERTEX
8
CUT
10
203.3977
20
264.0288
0
VERTEX
8
CUT
10
203.2412
20
264.0642
0
VERTEX
8
CUT
10
203.1080
20
264.0882
0
VERTEX
8
CUT
10
203.1079
20
264.0882
0
VERTEX
8
CUT
10
203.1076
20
264.0883
0
VERTEX
8
CUT
10
202.9485
20
264.1097
0
VERTEX
8
CUT
10
202.8136
20
264.1218
0
VERTEX
8
CUT
10
202.5452
20
264.1338
0
VERTEX
8
CUT
10
202.4775
20
264.1353
0
VERTEX
8
CUT
10
109.7702
20
264.1420
0
VERTEX
8
CUT
10
110.1743
20
264.9103
0
VERTEX
8
CUT
10
110.2090
20
264.9804
0
VERTEX
8
CUT
10
110.3398
20
265.2617
0
VERTEX
8
CUT
10
110.3988
20
265.4067
0
VERTEX
8
CUT
10
110.4601
20
265.5815
0
VERTEX
8
CUT
10
110.5047
20
265.7316
0
VERTEX
8
CUT
10
110.5486
20
265.9115
0
VERTEX
8
CUT
10
110.5783
20
266.0652
0
VERTEX
8
CUT
10
110.6044
20
266.2486
0
VERTEX
8
CUT
10
110.6189
20
266.4045
0
VERTEX
8
CUT
10
110.6271
20
266.5895
0
VERTEX
8
CUT
10
110.6263
20
266.7461
0
VERTEX
8
CUT
10
110.6163
20
266.9310
0
VERTEX
8
CUT
10
110.6002
20
267.0867
0
VERTEX
8
CUT
10
110.5721
20
267.2698
0
VERTEX
8
CUT
10
110.5409
20
267.4232
0
VERTEX
8
CUT
10
110.4951
20
267.6027
0
VERTEX
8
CUT
10
110.4491
20
267.7523
0
VERTEX
8
CUT
10
110.3860
20
267.9265
0
VERTEX
8
CUT
10
110.3255
20
268.0708
0
VERTEX
8
CUT
10
110.2457
20
268.2380
0
VERTEX
8
CUT
10
110.1714
20
268.3758
0
VERTEX
8
CUT
10
110.0757
20
268.5344
0
VERTEX
8
CUT
10
109.9883
20
268.6642
0
VERTEX
8
CUT
10
109.8775
20
268.8127
0
VERTEX
8
CUT
10
109.7779
20
268.9334
0
VERTEX
8
CUT
10
109.6531
20
269.0703
0
VERTEX
8
CUT
10
109.5421
20
269.1807
0
VERTEX
8
CUT
10
109.4045
20
269.3048
0
VERTEX
8
CUT
10
109.2833
20
269.4038
0
VERTEX
8
CUT
10
109.1343
20
269.5139
0
VERTEX
8
CUT
10
109.0040
20
269.6006
0
VERTEX
8
CUT
10
108.8449
20
269.6955
0
VERTEX
8
CUT
10
108.7068
20
269.7691
0
VERTEX
8
CUT
10
108.5392
20
269.8480
0
VERTEX
8
CUT
10
108.3945
20
269.9077
0
VERTEX
8
CUT
10
108.2200
20
269.9700
0
VERTEX
8
CUT
10
108.0702
20
270.0152
0
VERTEX
8
CUT
10
107.8905
20
270.0601
0
VERTEX
8
CUT
10
107.7370
20
270.0905
0
VERTEX
8
CUT
10
107.5537
20
270.1176
0
VERTEX
8
CUT
10
107.3979
20
270.1329
0
VERTEX
8
CUT
10
107.0882
20
270.1481
0
VERTEX
8
CUT
10
107.0099
20
270.1500
0
VERTEX
8
CUT
10
102.0704
20
270.1500
0
VERTEX
8
CUT
10
101.9879
20
270.1479
0
VERTEX
8
CUT
10
101.6612
20
270.1310
0
VERTEX
8
CUT
10
101.4970
20
270.1140
0
VERTEX
8
CUT
10
101.3040
20
270.0839
0
VERTEX
8
CUT
10
101.1425
20
270.0501
0
VERTEX
8
CUT
10
100.9537
20
270.0002
0
VERTEX
8
CUT
10
100.7965
20
269.9499
0
VERTEX
8
CUT
10
100.4906
20
269.8344
0
VERTEX
8
CUT
10
100.4142
20
269.8032
0
VERTEX
8
CUT
10
97.3059
20
268.4420
0
VERTEX
8
CUT
10
97.2669
20
268.4243
0
VERTEX
8
CUT
10
97.0771
20
268.3350
0
VERTEX
8
CUT
10
97.0006
20
268.2965
0
VERTEX
8
CUT
10
96.8158
20
268.1972
0
VERTEX
8
CUT
10
96.7784
20
268.1765
0
VERTEX
8
CUT
10
92.3576
20
265.6467
0
VERTEX
8
CUT
10
92.3134
20
265.6205
0
VERTEX
8
CUT
10
92.0989
20
265.4884
0
VERTEX
8
CUT
10
92.0132
20
265.4317
0
VERTEX
8
CUT
10
91.8076
20
265.2862
0
VERTEX
8
CUT
10
91.7662
20
265.2558
0
VERTEX
8
CUT
10
88.1390
20
262.5084
0
VERTEX
8
CUT
10
88.0887
20
262.4687
0
VERTEX
8
CUT
10
87.8926
20
262.3074
0
VERTEX
8
CUT
10
87.7970
20
262.2221
0
VERTEX
8
CUT
10
87.6144
20
262.0457
0
VERTEX
8
CUT
10
87.5693
20
262.0003
0
VERTEX
8
CUT
10
84.8620
20
259.1656
0
VERTEX
8
CUT
10
84.8101
20
259.1085
0
VERTEX
8
CUT
10
84.6096
20
258.8772
0
VERTEX
8
CUT
10
84.5142
20
258.7558
0
VERTEX
8
CUT
10
84.3370
20
258.5064
0
VERTEX
8
CUT
10
84.2939
20
258.4424
0
VERTEX
8
CUT
10
82.4479
20
255.5582
0
VERTEX
8
CUT
10
82.4085
20
255.4933
0
VERTEX
8
CUT
10
82.2584
20
255.2323
0
VERTEX
8
CUT
10
82.1890
20
255.0972
0
VERTEX
8
CUT
10
82.0644
20
254.8232
0
VERTEX
8
CUT
10
82.0346
20
254.7534
0
VERTEX
8
CUT
10
81.1354
20
252.4986
0
VERTEX
8
CUT
10
81.1109
20
252.4329
0
VERTEX
8
CUT
10
81.0193
20
252.1703
0
VERTEX
8
CUT
10
80.9790
20
252.0360
0
VERTEX
8
CUT
10
80.9107
20
251.7664
0
VERTEX
8
CUT
10
80.8950
20
251.6981
0
VERTEX
8
CUT
10
80.3976
20
249.2942
0
VERTEX
8
CUT
10
80.3841
20
249.2207
0
VERTEX
8
CUT
10
80.3377
20
248.9283
0
VERTEX
8
CUT
10
80.3212
20
248.7798
0
VERTEX
8
CUT
10
80.3023
20
248.4843
0
VERTEX
8
CUT
10
80.2993
20
248.4097
0
VERTEX
8
CUT
10
80.2586
20
246.0555
0
VERTEX
8
CUT
10
80.2589
20
245.9878
0
VERTEX
8
CUT
10
80.2656
20
245.7194
0
VERTEX
8
CUT
10
80.2747
20
245.5843
0
VERTEX
8
CUT
10
80.3041
20
245.3174
0
VERTEX
8
CUT
10
80.3130
20
245.2503
0
VERTEX
8
CUT
10
80.6858
20
242.8172
0
VERTEX
8
CUT
10
80.6979
20
242.7480
0
VERTEX
8
CUT
10
80.7522
20
242.4749
0
VERTEX
8
CUT
10
80.7855
20
242.3385
0
VERTEX
8
CUT
10
80.8634
20
242.0713
0
VERTEX
8
CUT
10
80.8846
20
242.0043
0
VERTEX
8
CUT
10
81.6777
20
239.6709
0
VERTEX
8
CUT
10
81.6998
20
239.6099
0
VERTEX
8
CUT
10
81.7924
20
239.3698
0
VERTEX
8
CUT
10
81.8440
20
239.2507
0
VERTEX
8
CUT
10
81.9558
20
239.0189
0
VERTEX
8
CUT
10
81.9852
20
238.9610
0
VERTEX
8
CUT
10
83.2434
20
236.6017
0
VERTEX
8
CUT
10
83.2730
20
236.5486
0
VERTEX
8
CUT
10
83.3944
20
236.3404
0
VERTEX
8
CUT
10
83.4596
20
236.2378
0
VERTEX
8
CUT
10
83.5964
20
236.0394
0
VERTEX
8
CUT
10
83.6318
20
235.9900
0
VERTEX
8
CUT
10
85.3343
20
233.7124
0
VERTEX
8
CUT
10
85.3708
20
233.6654
0
VERTEX
8
CUT
10
85.5189
20
233.4819
0
VERTEX
8
CUT
10
85.5970
20
233.3922
0
VERTEX
8
CUT
10
85.7583
20
233.2202
0
VERTEX
8
CUT
10
85.7998
20
233.1776
0
VERTEX
8
CUT
10
86.4189
20
232.5648
0
VERTEX
8
CUT
10
86.4255
20
232.5548
0
VERTEX
8
CUT
10
86.4454
20
232.5262
0
VERTEX
8
CUT
10
86.4314
20
232.5525
0
VERTEX
8
CUT
10
87.9517
20
231.0478
0
VERTEX
8
CUT
10
87.9863
20
231.0146
0
VERTEX
8
CUT
10
88.1582
20
230.8543
0
VERTEX
8
CUT
10
88.2303
20
230.7911
0
VERTEX
8
CUT
10
88.4115
20
230.6414
0
VERTEX
8
CUT
10
88.4489
20
230.6115
0
VERTEX
8
CUT
10
90.5148
20
229.0070
0
VERTEX
8
CUT
10
90.5504
20
228.9801
0
VERTEX
8
CUT
10
90.7267
20
228.8509
0
VERTEX
8
CUT
10
90.8001
20
228.8002
0
VERTEX
8
CUT
10
90.8015
20
228.7993
0
VERTEX
8
CUT
10
90.8606
20
228.7608
0
VERTEX
8
CUT
10
90.9833
20
228.6810
0
VERTEX
8
CUT
10
91.0210
20
228.6572
0
VERTEX
8
CUT
10
93.2675
20
227.2834
0
VERTEX
8
CUT
10
93.3022
20
227.2628
0
VERTEX
8
CUT
10
93.4739
20
227.1637
0
VERTEX
8
CUT
10
93.5449
20
227.1250
0
VERTEX
8
CUT
10
93.7213
20
227.0347
0
VERTEX
8
CUT
10
93.7575
20
227.0168
0
VERTEX
8
CUT
10
94.4242
20
226.6965
0
VERTEX
8
CUT
10
94.3558
20
226.6826
0
VERTEX
8
CUT
10
94.2368
20
226.6458
0
VERTEX
8
CUT
10
94.1220
20
226.5974
0
VERTEX
8
CUT
10
94.0127
20
226.5377
0
VERTEX
8
CUT
10
93.9098
20
226.4675
0
VERTEX
8
CUT
10
93.8144
20
226.3874
0
VERTEX
8
CUT
10
93.7275
20
226.2982
0
VERTEX
8
CUT
10
93.6498
20
226.2008
0
VERTEX
8
CUT
10
93.5823
20
226.0962
0
VERTEX
8
CUT
10
93.5255
20
225.9853
0
VERTEX
8
CUT
10
93.4800
20
225.8694
0
VERTEX
8
CUT
10
93.4463
20
225.7494
0
VERTEX
8
CUT
10
93.4247
20
225.6268
0
VERTEX
8
CUT
10
93.4154
20
225.5026
0
VERTEX
8
CUT
10
93.4185
20
225.3781
0
VERTEX
8
CUT
10
93.4340
20
225.2545
0
VERTEX
8
CUT
10
93.4617
20
225.1330
0
VERTEX
8
CUT
10
93.5013
20
225.0150
0
VERTEX
8
CUT
10
93.5525
20
224.9014
0
VERTEX
8
CUT
10
93.6148
20
224.7935
0
VERTEX
8
CUT
10
93.6875
20
224.6924
0
VERTEX
8
CUT
10
93.7698
20
224.5990
0
VERTEX
8
CUT
10
93.8611
20
224.5142
0
VERTEX
8
CUT
10
93.9604
20
224.4390
0
VERTEX
8
CUT
10
94.0145
20
224.4058
0
VERTEX
8
CUT
10
94.0137
20
224.4046
0
VERTEX
8
CUT
10
94.6299
20
224.0277
0
VERTEX
8
CUT
10
94.6546
20
224.0109
0
VERTEX
8
CUT
10
94.7341
20
223.9624
0
VERTEX
8
CUT
10
94.7175
20
223.9440
0
VERTEX
8
CUT
10
94.6310
20
223.8653
0
VERTEX
8
CUT
10
94.5374
20
223.7953
0
VERTEX
8
CUT
10
94.4374
20
223.7348
0
VERTEX
8
CUT
10
94.3319
20
223.6843
0
VERTEX
8
CUT
10
94.2221
20
223.6443
0
VERTEX
8
CUT
10
94.1089
20
223.6152
0
VERTEX
8
CUT
10
93.9933
20
223.5973
0
VERTEX
8
CUT
10
93.8766
20
223.5907
0
VERTEX
8
CUT
10
93.7598
20
223.5954
0
VERTEX
8
CUT
10
93.6440
20
223.6115
0
VERTEX
8
CUT
10
93.5304
20
223.6388
0
VERTEX
8
CUT
10
93.4199
20
223.6770
0
VERTEX
8
CUT
10
93.3137
20
223.7258
0
VERTEX
8
CUT
10
93.2127
20
223.7847
0
VERTEX
8
CUT
10
93.1057
20
223.8543
0
VERTEX
8
CUT
10
93.0779
20
223.8729
0
VERTEX
8
CUT
10
93.0082
20
223.9211
0
VERTEX
8
CUT
10
92.9810
20
223.9405
0
VERTEX
8
CUT
10
92.8135
20
224.0633
0
VERTEX
8
CUT
10
92.8001
20
224.0732
0
VERTEX
8
CUT
10
92.7662
20
224.0988
0
VERTEX
8
CUT
10
92.7530
20
224.1089
0
VERTEX
8
CUT
10
92.7200
20
224.1345
0
VERTEX
8
CUT
10
92.7238
20
223.9847
0
VERTEX
8
CUT
10
92.7215
20
223.8855
0
VERTEX
8
CUT
10
92.7064
20
223.6692
0
VERTEX
8
CUT
10
92.6948
20
223.5707
0
VERTEX
8
CUT
10
92.6591
20
223.3568
0
VERTEX
8
CUT
10
92.6382
20
223.2598
0
VERTEX
8
CUT
10
92.5824
20
223.0503
0
VERTEX
8
CUT
10
92.5359
20
222.9040
0
VERTEX
8
CUT
10
92.5005
20
222.8014
0
VERTEX
8
CUT
10
91.6875
20
220.6112
0
VERTEX
8
CUT
10
91.6782
20
220.5855
0
VERTEX
8
CUT
10
91.6262
20
220.4372
0
VERTEX
8
CUT
10
91.6073
20
220.3797
0
VERTEX
8
CUT
10
91.5698
20
220.2574
0
VERTEX
8
CUT
10
91.5615
20
220.2294
0
VERTEX
8
CUT
10
90.1141
20
215.1667
0
VERTEX
8
CUT
10
90.1006
20
215.1162
0
VERTEX
8
CUT
10
90.0388
20
214.8682
0
VERTEX
8
CUT
10
90.0171
20
214.7662
0
VERTEX
8
CUT
10
89.9724
20
214.5144
0
VERTEX
8
CUT
10
89.9642
20
214.4629
0
VERTEX
8
CUT
10
89.5303
20
211.4087
0
VERTEX
8
CUT
10
89.5253
20
211.3694
0
VERTEX
8
CUT
10
89.5030
20
211.1769
0
VERTEX
8
CUT
10
89.4960
20
211.0982
0
VERTEX
8
CUT
10
89.4838
20
210.9047
0
VERTEX
8
CUT
10
89.4818
20
210.8652
0
VERTEX
8
CUT
10
89.3329
20
206.8501
0
VERTEX
8
CUT
10
89.3321
20
206.8238
0
VERTEX
8
CUT
10
89.3291
20
206.6726
0
VERTEX
8
CUT
10
89.3291
20
206.6145
0
VERTEX
8
CUT
10
89.3314
20
206.4914
0
VERTEX
8
CUT
10
89.3321
20
206.4633
0
VERTEX
8
CUT
10
89.4826
20
202.3926
0
VERTEX
8
CUT
10
89.4844
20
202.3557
0
VERTEX
8
CUT
10
89.4954
20
202.1755
0
VERTEX
8
CUT
10
89.5017
20
202.1022
0
VERTEX
8
CUT
10
89.5215
20
201.9227
0
VERTEX
8
CUT
10
89.5259
20
201.8861
0
VERTEX
8
CUT
10
89.9404
20
198.8101
0
VERTEX
8
CUT
10
89.9438
20
198.7841
0
VERTEX
8
CUT
10
89.9524
20
198.7287
0
VERTEX
8
CUT
10
89.9902
20
198.5094
0
VERTEX
8
CUT
10
89.9987
20
198.4690
0
VERTEX
8
CUT
10
90.0124
20
198.4024
0
VERTEX
8
CUT
10
90.0728
20
198.1527
0
VERTEX
8
CUT
10
90.0860
20
198.1020
0
VERTEX
8
CUT
10
91.4577
20
193.1811
0
VERTEX
8
CUT
10
91.4688
20
193.1433
0
VERTEX
8
CUT
10
91.5254
20
192.9587
0
VERTEX
8
CUT
10
91.5505
20
192.8841
0
VERTEX
8
CUT
10
91.6166
20
192.7027
0
VERTEX
8
CUT
10
91.6306
20
192.6659
0
VERTEX
8
CUT
10
91.7503
20
192.3619
0
VERTEX
8
CUT
10
91.8777
20
191.9217
0
VERTEX
8
CUT
10
91.8923
20
191.8742
0
VERTEX
8
CUT
10
91.9676
20
191.6425
0
VERTEX
8
CUT
10
92.0014
20
191.5490
0
VERTEX
8
CUT
10
92.0917
20
191.3227
0
VERTEX
8
CUT
10
92.1109
20
191.2769
0
VERTEX
8
CUT
10
92.7557
20
189.8031
0
VERTEX
8
CUT
10
92.6950
20
189.7303
0
VERTEX
8
CUT
10
92.5804
20
189.5782
0
VERTEX
8
CUT
10
92.4902
20
189.4448
0
VERTEX
8
CUT
10
92.3915
20
189.2819
0
VERTEX
8
CUT
10
92.3152
20
189.1402
0
VERTEX
8
CUT
10
92.2333
20
188.9682
0
VERTEX
8
CUT
10
92.1716
20
188.8195
0
VERTEX
8
CUT
10
92.1074
20
188.6401
0
VERTEX
8
CUT
10
92.0610
20
188.4860
0
VERTEX
8
CUT
10
92.0152
20
188.3011
0
VERTEX
8
CUT
10
91.9844
20
188.1431
0
VERTEX
8
CUT
10
91.9574
20
187.9545
0
VERTEX
8
CUT
10
91.9427
20
187.7942
0
VERTEX
8
CUT
10
91.9348
20
187.6039
0
VERTEX
8
CUT
10
91.9362
20
187.4429
0
VERTEX
8
CUT
10
91.9475
20
187.2528
0
VERTEX
8
CUT
10
91.9651
20
187.0928
0
VERTEX
8
CUT
10
91.9955
20
186.9047
0
VERTEX
8
CUT
10
92.0290
20
186.7473
0
VERTEX
8
CUT
10
92.0781
20
186.5632
0
VERTEX
8
CUT
10
92.1274
20
186.4099
0
VERTEX
8
CUT
10
92.2401
20
186.1116
0
VERTEX
8
CUT
10
92.2704
20
186.0370
0
VERTEX
8
CUT
10
92.9982
20
184.3693
0
VERTEX
8
CUT
10
92.8647
20
183.7745
0
VERTEX
8
CUT
10
92.8472
20
183.7024
0
VERTEX
8
CUT
10
92.8116
20
183.5648
0
VERTEX
8
CUT
10
92.7918
20
183.4932
0
VERTEX
8
CUT
10
92.7640
20
183.3987
0
VERTEX
8
CUT
10
92.7419
20
183.3278
0
VERTEX
8
CUT
10
92.6974
20
183.1928
0
VERTEX
8
CUT
10
92.6730
20
183.1227
0
VERTEX
8
CUT
10
92.0822
20
181.5092
0
VERTEX
8
CUT
10
92.0681
20
181.4717
0
VERTEX
8
CUT
10
92.0404
20
181.4001
0
VERTEX
8
CUT
10
92.0308
20
181.3759
0
VERTEX
8
CUT
10
91.9954
20
181.2932
0
VERTEX
8
CUT
10
91.9315
20
181.1520
0
VERTEX
8
CUT
10
91.8734
20
181.0332
0
VERTEX
8
CUT
10
91.8499
20
180.9884
0
VERTEX
8
CUT
10
91.8296
20
180.9506
0
VERTEX
8
CUT
10
89.9146
20
177.4637
0
VERTEX
8
CUT
10
89.8941
20
177.4272
0
VERTEX
8
CUT
10
89.8541
20
177.3575
0
VERTEX
8
CUT
10
89.8404
20
177.3340
0
VERTEX
8
CUT
10
89.7909
20
177.2548
0
VERTEX
8
CUT
10
89.7023
20
177.1195
0
VERTEX
8
CUT
10
89.6235
20
177.0068
0
VERTEX
8
CUT
10
89.5921
20
176.9646
0
VERTEX
8
CUT
10
89.5652
20
176.9292
0
VERTEX
8
CUT
10
88.5798
20
175.6586
0
VERTEX
8
CUT
10
88.5378
20
175.6060
0
VERTEX
8
CUT
10
88.4558
20
175.5066
0
VERTEX
8
CUT
10
88.4123
20
175.4553
0
VERTEX
8
CUT
10
88.3542
20
175.3888
0
VERTEX
8
CUT
10
88.3094
20
175.3391
0
VERTEX
8
CUT
10
88.2223
20
175.2452
0
VERTEX
8
CUT
10
88.1761
20
175.1969
0
VERTEX
8
CUT
10
87.1023
20
174.1056
0
VERTEX
8
CUT
10
87.0549
20
174.0588
0
VERTEX
8
CUT
10
86.9626
20
173.9704
0
VERTEX
8
CUT
10
86.9138
20
173.9249
0
VERTEX
8
CUT
10
86.8481
20
173.8655
0
VERTEX
8
CUT
10
86.7980
20
173.8215
0
VERTEX
8
CUT
10
86.7007
20
173.7386
0
VERTEX
8
CUT
10
86.6493
20
173.6961
0
VERTEX
8
CUT
10
85.5565
20
172.8187
0
VERTEX
8
CUT
10
85.5257
20
172.7944
0
VERTEX
8
CUT
10
85.4663
20
172.7484
0
VERTEX
8
CUT
10
85.4461
20
172.7329
0
VERTEX
8
CUT
10
85.3747
20
172.6816
0
VERTEX
8
CUT
10
85.2497
20
172.5953
0
VERTEX
8
CUT
10
85.1414
20
172.5251
0
VERTEX
8
CUT
10
85.0992
20
172.4994
0
VERTEX
8
CUT
10
85.0634
20
172.4780
0
VERTEX
8
CUT
10
83.9062
20
171.8017
0
VERTEX
8
CUT
10
83.8699
20
171.7810
0
VERTEX
8
CUT
10
83.8001
20
171.7419
0
VERTEX
8
CUT
10
83.7762
20
171.7288
0
VERTEX
8
CUT
10
83.6943
20
171.6869
0
VERTEX
8
CUT
10
83.5503
20
171.6170
0
VERTEX
8
CUT
10
83.4259
20
171.5611
0
VERTEX
8
CUT
10
83.3777
20
171.5412
0
VERTEX
8
CUT
10
83.3367
20
171.5247
0
VERTEX
8
CUT
10
80.9461
20
170.5904
0
VERTEX
8
CUT
10
80.9151
20
170.5785
0
VERTEX
8
CUT
10
80.8630
20
170.5590
0
VERTEX
8
CUT
10
80.8168
20
170.5423
0
VERTEX
8
CUT
10
80.8101
20
170.5399
0
VERTEX
8
CUT
10
80.6937
20
170.5027
0
VERTEX
8
CUT
10
80.5157
20
170.4509
0
VERTEX
8
CUT
10
80.3851
20
170.4171
0
VERTEX
8
CUT
10
80.3503
20
170.4092
0
VERTEX
8
CUT
10
80.3026
20
170.3989
0
VERTEX
8
CUT
10
80.2775
20
170.3938
0
VERTEX
8
CUT
10
80.2576
20
170.3898
0
VERTEX
8
CUT
10
78.9523
20
170.1340
0
VERTEX
8
CUT
10
78.8717
20
170.1197
0
VERTEX
8
CUT
10
78.7167
20
170.0951
0
VERTEX
8
CUT
10
78.6356
20
170.0837
0
VERTEX
8
CUT
10
78.5277
20
170.0705
0
VERTEX
8
CUT
10
78.4463
20
170.0620
0
VERTEX
8
CUT
10
78.2900
20
170.0486
0
VERTEX
8
CUT
10
78.2083
20
170.0430
0
VERTEX
8
CUT
10
76.6620
20
169.9659
0
VERTEX
8
CUT
10
76.5930
20
169.9635
0
VERTEX
8
CUT
10
76.4607
20
169.9609
0
VERTEX
8
CUT
10
76.3917
20
169.9606
0
VERTEX
8
CUT
10
76.2999
20
169.9616
0
VERTEX
8
CUT
10
76.2309
20
169.9633
0
VERTEX
8
CUT
10
76.0987
20
169.9688
0
VERTEX
8
CUT
10
76.0297
20
169.9726
0
VERTEX
8
CUT
10
72.7596
20
170.2062
0
VERTEX
8
CUT
10
72.7301
20
170.2085
0
VERTEX
8
CUT
10
72.6807
20
170.2126
0
VERTEX
8
CUT
10
72.6372
20
170.2167
0
VERTEX
8
CUT
10
72.6303
20
170.2174
0
VERTEX
8
CUT
10
72.5214
20
170.2314
0
VERTEX
8
CUT
10
72.3568
20
170.2566
0
VERTEX
8
CUT
10
72.2376
20
170.2780
0
VERTEX
8
CUT
10
72.2062
20
170.2845
0
VERTEX
8
CUT
10
72.1634
20
170.2938
0
VERTEX
8
CUT
10
72.1410
20
170.2990
0
VERTEX
8
CUT
10
72.1232
20
170.3031
0
VERTEX
8
CUT
10
70.0710
20
170.7877
0
VERTEX
8
CUT
10
70.0067
20
170.8038
0
VERTEX
8
CUT
10
69.8838
20
170.8366
0
VERTEX
8
CUT
10
69.8200
20
170.8547
0
VERTEX
8
CUT
10
69.7355
20
170.8799
0
VERTEX
8
CUT
10
69.6722
20
170.8998
0
VERTEX
8
CUT
10
69.5515
20
170.9397
0
VERTEX
8
CUT
10
69.4888
20
170.9614
0
VERTEX
8
CUT
10
66.7700
20
171.9486
0
VERTEX
8
CUT
10
66.7385
20
171.9603
0
VERTEX
8
CUT
10
66.6781
20
171.9832
0
VERTEX
8
CUT
10
66.6467
20
171.9954
0
VERTEX
8
CUT
10
66.6033
20
172.0127
0
VERTEX
8
CUT
10
66.5678
20
172.0271
0
VERTEX
8
CUT
10
66.5001
20
172.0553
0
VERTEX
8
CUT
10
66.4649
20
172.0703
0
VERTEX
8
CUT
10
56.5913
20
176.3781
0
VERTEX
8
CUT
10
56.5592
20
176.3916
0
VERTEX
8
CUT
10
56.4013
20
176.4563
0
VERTEX
8
CUT
10
56.3363
20
176.4811
0
VERTEX
8
CUT
10
56.1754
20
176.5385
0
VERTEX
8
CUT
10
56.1425
20
176.5499
0
VERTEX
8
CUT
10
52.0543
20
177.9037
0
VERTEX
8
CUT
10
52.0012
20
177.9202
0
VERTEX
8
CUT
10
51.7398
20
177.9963
0
VERTEX
8
CUT
10
51.6320
20
178.0234
0
VERTEX
8
CUT
10
51.3658
20
178.0802
0
VERTEX
8
CUT
10
51.3112
20
178.0908
0
VERTEX
8
CUT
10
47.7729
20
178.7111
0
VERTEX
8
CUT
10
47.7311
20
178.7178
0
VERTEX
8
CUT
10
47.5259
20
178.7480
0
VERTEX
8
CUT
10
47.4418
20
178.7579
0
VERTEX
8
CUT
10
47.2352
20
178.7766
0
VERTEX
8
CUT
10
47.1930
20
178.7798
0
VERTEX
8
CUT
10
45.4602
20
178.8877
0
VERTEX
8
CUT
10
45.4340
20
178.8891
0
VERTEX
8
CUT
10
45.2830
20
178.8959
0
VERTEX
8
CUT
10
45.2248
20
178.8974
0
VERTEX
8
CUT
10
45.1018
20
178.8982
0
VERTEX
8
CUT
10
45.0737
20
178.8981
0
VERTEX
8
CUT
10
39.2611
20
178.8294
0
VERTEX
8
CUT
10
39.1870
20
178.8267
0
VERTEX
8
CUT
10
38.8942
20
178.8090
0
VERTEX
8
CUT
10
38.7470
20
178.7928
0
VERTEX
8
CUT
10
38.5739
20
178.7652
0
VERTEX
8
CUT
10
38.4290
20
178.7348
0
VERTEX
8
CUT
10
38.2595
20
178.6905
0
VERTEX
8
CUT
10
38.1182
20
178.6462
0
VERTEX
8
CUT
10
37.9538
20
178.5856
0
VERTEX
8
CUT
10
37.8175
20
178.5278
0
VERTEX
8
CUT
10
37.6598
20
178.4515
0
VERTEX
8
CUT
10
37.5298
20
178.3806
0
VERTEX
8
CUT
10
37.3802
20
178.2894
0
VERTEX
8
CUT
10
37.2577
20
178.2062
0
VERTEX
8
CUT
10
37.1177
20
178.1008
0
VERTEX
8
CUT
10
37.0039
20
178.0062
0
VERTEX
8
CUT
10
36.8748
20
177.8877
0
VERTEX
8
CUT
10
36.7708
20
177.7824
0
VERTEX
8
CUT
10
36.6538
20
177.6519
0
VERTEX
8
CUT
10
36.5605
20
177.5369
0
VERTEX
8
CUT
10
36.4568
20
177.3957
0
VERTEX
8
CUT
10
36.3751
20
177.2722
0
VERTEX
8
CUT
10
36.2856
20
177.1216
0
VERTEX
8
CUT
10
36.2163
20
176.9907
0
VERTEX
8
CUT
10
36.1419
20
176.8321
0
VERTEX
8
CUT
10
36.0857
20
176.6951
0
VERTEX
8
CUT
10
36.0271
20
176.5300
0
VERTEX
8
CUT
10
35.9844
20
176.3882
0
VERTEX
8
CUT
10
35.9422
20
176.2182
0
VERTEX
8
CUT
10
35.9135
20
176.0729
0
VERTEX
8
CUT
10
35.8880
20
175.8995
0
VERTEX
8
CUT
10
35.8736
20
175.7522
0
VERTEX
8
CUT
10
35.8593
20
175.4592
0
VERTEX
8
CUT
10
35.8575
20
175.3852
0
VERTEX
8
CUT
10
35.8575
20
159.7192
0
VERTEX
8
CUT
10
35.8594
20
159.6440
0
VERTEX
8
CUT
10
35.8741
20
159.3460
0
VERTEX
8
CUT
10
35.8890
20
159.1962
0
VERTEX
8
CUT
10
35.9154
20
159.0201
0
VERTEX
8
CUT
10
35.9450
20
158.8725
0
VERTEX
8
CUT
10
35.9887
20
158.6998
0
VERTEX
8
CUT
10
36.0327
20
158.5559
0
VERTEX
8
CUT
10
36.0933
20
158.3884
0
VERTEX
8
CUT
10
36.1514
20
158.2496
0
VERTEX
8
CUT
10
36.2282
20
158.0888
0
VERTEX
8
CUT
10
36.2997
20
157.9564
0
VERTEX
8
CUT
10
36.3920
20
157.8041
0
VERTEX
8
CUT
10
36.4763
20
157.6794
0
VERTEX
8
CUT
10
36.5832
20
157.5369
0
VERTEX
8
CUT
10
36.6794
20
157.4212
0
VERTEX
8
CUT
10
36.7999
20
157.2900
0
VERTEX
8
CUT
10
36.9070
20
157.1843
0
VERTEX
8
CUT
10
37.0399
20
157.0657
0
VERTEX
8
CUT
10
37.1570
20
156.9712
0
VERTEX
8
CUT
10
37.3010
20
156.8663
0
VERTEX
8
CUT
10
37.4268
20
156.7837
0
VERTEX
8
CUT
10
37.5804
20
156.6936
0
VERTEX
8
CUT
10
37.7138
20
156.6239
0
VERTEX
8
CUT
10
37.9847
20
156.4992
0
VERTEX
8
CUT
10
38.0538
20
156.4694
0
VERTEX
8
CUT
10
39.7089
20
155.8041
0
VERTEX
8
CUT
10
39.7494
20
155.7885
0
VERTEX
8
CUT
10
39.9492
20
155.7147
0
VERTEX
8
CUT
10
40.0316
20
155.6870
0
VERTEX
8
CUT
10
40.2353
20
155.6248
0
VERTEX
8
CUT
10
40.2770
20
155.6127
0
VERTEX
8
CUT
10
44.5687
20
154.4349
0
VERTEX
8
CUT
10
44.6072
20
154.4249
0
VERTEX
8
CUT
10
44.7966
20
154.3782
0
VERTEX
8
CUT
10
44.8743
20
154.3612
0
VERTEX
8
CUT
10
45.0659
20
154.3245
0
VERTEX
8
CUT
10
45.1050
20
154.3175
0
VERTEX
8
CUT
10
51.2551
20
153.3052
0
VERTEX
8
CUT
10
51.2968
20
153.2989
0
VERTEX
8
CUT
10
51.5016
20
153.2710
0
VERTEX
8
CUT
10
51.5854
20
153.2619
0
VERTEX
8
CUT
10
51.7914
20
153.2454
0
VERTEX
8
CUT
10
51.8335
20
153.2426
0
VERTEX
8
CUT
10
59.2403
20
152.8557
0
VERTEX
8
CUT
10
59.2774
20
152.8542
0
VERTEX
8
CUT
10
59.4592
20
152.8491
0
VERTEX
8
CUT
10
59.5334
20
152.8489
0
VERTEX
8
CUT
10
59.7153
20
152.8527
0
VERTEX
8
CUT
10
59.7524
20
152.8539
0
VERTEX
8
CUT
10
67.8075
20
153.2202
0
VERTEX
8
CUT
10
67.8337
20
153.2216
0
VERTEX
8
CUT
10
67.9844
20
153.2310
0
VERTEX
8
CUT
10
68.0423
20
153.2358
0
VERTEX
8
CUT
10
68.1646
20
153.2482
0
VERTEX
8
CUT
10
68.1925
20
153.2512
0
VERTEX
8
CUT
10
81.0740
20
154.7965
0
VERTEX
8
CUT
10
81.0923
20
154.7986
0
VERTEX
8
CUT
10
81.1274
20
154.8025
0
VERTEX
8
CUT
10
81.1457
20
154.8045
0
VERTEX
8
CUT
10
81.1783
20
154.8078
0
VERTEX
8
CUT
10
81.2082
20
154.8107
0
VERTEX
8
CUT
10
81.2656
20
154.8159
0
VERTEX
8
CUT
10
81.2955
20
154.8184
0
VERTEX
8
CUT
10
90.0500
20
155.4929
0
VERTEX
8
CUT
10
90.0839
20
155.4953
0
VERTEX
8
CUT
10
90.1408
20
155.4988
0
VERTEX
8
CUT
10
90.1911
20
155.5014
0
VERTEX
8
CUT
10
90.2172
20
155.5024
0
VERTEX
8
CUT
10
90.2381
20
155.5032
0
VERTEX
8
CUT
10
90.3252
20
155.5058
0
VERTEX
8
CUT
10
90.3591
20
155.5066
0
VERTEX
8
CUT
10
90.4159
20
155.5075
0
VERTEX
8
CUT
10
90.4661
20
155.5078
0
VERTEX
8
CUT
10
90.4925
20
155.5076
0
VERTEX
8
CUT
10
90.5134
20
155.5074
0
VERTEX
8
CUT
10
97.4169
20
155.4018
0
VERTEX
8
CUT
10
97.4523
20
155.4010
0
VERTEX
8
CUT
10
97.5116
20
155.3992
0
VERTEX
8
CUT
10
97.5640
20
155.3970
0
VERTEX
8
CUT
10
97.5915
20
155.3955
0
VERTEX
8
CUT
10
97.6133
20
155.3942
0
VERTEX
8
CUT
10
97.7042
20
155.3884
0
VERTEX
8
CUT
10
97.7395
20
155.3859
0
VERTEX
8
CUT
10
97.7986
20
155.3813
0
VERTEX
8
CUT
10
97.8508
20
155.3765
0
VERTEX
8
CUT
10
97.8782
20
155.3737
0
VERTEX
8
CUT
10
97.8999
20
155.3714
0
VERTEX
8
CUT
10
102.0546
20
154.9065
0
VERTEX
8
CUT
10
102.1336
20
154.8962
0
VERTEX
8
CUT
10
102.2848
20
154.8740
0
VERTEX
8
CUT
10
102.3635
20
154.8609
0
VERTEX
8
CUT
10
102.4676
20
154.8418
0
VERTEX
8
CUT
10
102.5458
20
154.8261
0
VERTEX
8
CUT
10
102.6950
20
154.7933
0
VERTEX
8
CUT
10
102.7718
20
154.7750
0
VERTEX
8
CUT
10
102.8796
20
154.7445
0
VERTEX
8
CUT
10
103.0317
20
154.6973
0
VERTEX
8
CUT
10
103.2431
20
154.6201
0
VERTEX
8
CUT
10
103.3380
20
154.5800
0
VERTEX
8
CUT
10
103.5407
20
154.4824
0
VERTEX
8
CUT
10
103.6312
20
154.4332
0
VERTEX
8
CUT
10
103.8233
20
154.3160
0
VERTEX
8
CUT
10
103.9085
20
154.2581
0
VERTEX
8
CUT
10
104.0881
20
154.1226
0
VERTEX
8
CUT
10
104.1671
20
154.0566
0
VERTEX
8
CUT
10
104.3325
20
153.9039
0
VERTEX
8
CUT
10
104.4047
20
153.8305
0
VERTEX
8
CUT
10
104.5542
20
153.6623
0
VERTEX
8
CUT
10
104.6187
20
153.5821
0
VERTEX
8
CUT
10
104.7510
20
153.4000
0
VERTEX
8
CUT
10
104.8073
20
153.3138
0
VERTEX
8
CUT
10
104.9209
20
153.1195
0
VERTEX
8
CUT
10
104.9685
20
153.0282
0
VERTEX
8
CUT
10
105.0624
20
152.8237
0
VERTEX
8
CUT
10
105.1007
20
152.7281
0
VERTEX
8
CUT
10
105.1740
20
152.5153
0
VERTEX
8
CUT
10
105.2027
20
152.4165
0
VERTEX
8
CUT
10
105.2546
20
152.1975
0
VERTEX
8
CUT
10
105.2837
20
152.0408
0
VERTEX
8
CUT
10
105.3015
20
151.9297
0
VERTEX
8
CUT
10
105.3310
20
151.7110
0
VERTEX
8
CUT
10
105.3388
20
151.6469
0
VERTEX
8
CUT
10
105.3490
20
151.5510
0
VERTEX
8
CUT
10
105.3612
20
151.3579
0
VERTEX
8
CUT
10
105.3658
20
151.1380
0
VERTEX
8
CUT
10
105.3617
20
150.9445
0
VERTEX
8
CUT
10
105.3555
20
150.8483
0
VERTEX
8
CUT
10
105.3505
20
150.7840
0
VERTEX
8
CUT
10
104.5793
20
142.4445
0
VERTEX
8
CUT
10
104.5766
20
142.4114
0
VERTEX
8
CUT
10
104.5652
20
142.2491
0
VERTEX
8
CUT
10
104.5620
20
142.1828
0
VERTEX
8
CUT
10
104.5576
20
142.0202
0
VERTEX
8
CUT
10
104.5571
20
141.9870
0
VERTEX
8
CUT
10
104.5324
20
136.9278
0
VERTEX
8
CUT
10
104.5326
20
136.8968
0
VERTEX
8
CUT
10
104.5349
20
136.7446
0
VERTEX
8
CUT
10
104.5371
20
136.6826
0
VERTEX
8
CUT
10
104.5457
20
136.5307
0
VERTEX
8
CUT
10
104.5478
20
136.4997
0
VERTEX
8
CUT
10
104.9237
20
131.6134
0
VERTEX
8
CUT
10
104.9272
20
131.5739
0
VERTEX
8
CUT
10
104.9472
20
131.3804
0
VERTEX
8
CUT
10
104.9574
20
131.3017
0
VERTEX
8
CUT
10
104.9874
20
131.1095
0
VERTEX
8
CUT
10
104.9941
20
131.0704
0
VERTEX
8
CUT
10
105.6213
20
127.6465
0
VERTEX
8
CUT
10
105.6368
20
127.5723
0
VERTEX
8
CUT
10
105.7056
20
127.2798
0
VERTEX
8
CUT
10
105.7477
20
127.1341
0
VERTEX
8
CUT
10
105.8059
20
126.9645
0
VERTEX
8
CUT
10
105.8623
20
126.8237
0
VERTEX
8
CUT
10
105.9372
20
126.6607
0
VERTEX
8
CUT
10
106.0072
20
126.5263
0
VERTEX
8
CUT
10
106.0980
20
126.3716
0
VERTEX
8
CUT
10
106.1811
20
126.2448
0
VERTEX
8
CUT
10
106.2868
20
126.0999
0
VERTEX
8
CUT
10
106.3821
20
125.9820
0
VERTEX
8
CUT
10
106.5017
20
125.8483
0
VERTEX
8
CUT
10
106.6083
20
125.7405
0
VERTEX
8
CUT
10
106.7406
20
125.6194
0
VERTEX
8
CUT
10
106.8574
20
125.5228
0
VERTEX
8
CUT
10
107.0012
20
125.4154
0
VERTEX
8
CUT
10
107.1270
20
125.3309
0
VERTEX
8
CUT
10
107.2807
20
125.2384
0
VERTEX
8
CUT
10
107.4143
20
125.1669
0
VERTEX
8
CUT
10
107.5765
20
125.0902
0
VERTEX
8
CUT
10
107.7166
20
125.0323
0
VERTEX
8
CUT
10
107.8856
20
124.9721
0
VERTEX
8
CUT
10
108.0307
20
124.9284
0
VERTEX
8
CUT
10
108.2049
20
124.8854
0
VERTEX
8
CUT
10
108.3536
20
124.8564
0
VERTEX
8
CUT
10
108.5312
20
124.8309
0
VERTEX
8
CUT
10
108.6821
20
124.8169
0
VERTEX
8
CUT
10
108.8614
20
124.8092
0
VERTEX
8
CUT
10
109.0129
20
124.8103
0
VERTEX
8
CUT
10
109.1921
20
124.8205
0
VERTEX
8
CUT
10
109.3428
20
124.8367
0
VERTEX
8
CUT
10
109.5200
20
124.8647
0
VERTEX
8
CUT
10
109.6683
20
124.8957
0
VERTEX
8
CUT
10
109.8418
20
124.9413
0
VERTEX
8
CUT
10
109.9864
20
124.9870
0
VERTEX
8
CUT
10
110.1545
20
125.0495
0
VERTEX
8
CUT
10
110.2937
20
125.1094
0
VERTEX
8
CUT
10
110.4548
20
125.1884
0
VERTEX
8
CUT
10
110.5874
20
125.2619
0
VERTEX
8
CUT
10
110.7398
20
125.3565
0
VERTEX
8
CUT
10
110.8644
20
125.4428
0
VERTEX
8
CUT
10
111.0066
20
125.5522
0
VERTEX
8
CUT
10
111.1220
20
125.6504
0
VERTEX
8
CUT
10
111.2526
20
125.7734
0
VERTEX
8
CUT
10
111.3577
20
125.8827
0
VERTEX
8
CUT
10
111.4754
20
126.0181
0
VERTEX
8
CUT
10
111.5690
20
126.1373
0
VERTEX
8
CUT
10
111.6726
20
126.2837
0
VERTEX
8
CUT
10
111.7539
20
126.4116
0
VERTEX
8
CUT
10
111.9141
20
126.6939
0
VERTEX
8
CUT
10
111.9279
20
126.7186
0
VERTEX
8
CUT
10
111.9306
20
126.7236
0
VERTEX
8
CUT
10
111.9394
20
126.7400
0
VERTEX
8
CUT
10
111.9473
20
126.7551
0
VERTEX
8
CUT
10
113.3519
20
129.3777
0
VERTEX
8
CUT
10
113.3838
20
129.4352
0
VERTEX
8
CUT
10
113.4464
20
129.5445
0
VERTEX
8
CUT
10
113.4799
20
129.6010
0
VERTEX
8
CUT
10
113.5255
20
129.6755
0
VERTEX
8
CUT
10
113.5607
20
129.7311
0
VERTEX
8
CUT
10
113.6295
20
129.8365
0
VERTEX
8
CUT
10
113.6662
20
129.8910
0
VERTEX
8
CUT
10
115.4075
20
132.3985
0
VERTEX
8
CUT
10
115.4479
20
132.4549
0
VERTEX
8
CUT
10
115.5270
20
132.5617
0
VERTEX
8
CUT
10
115.5691
20
132.6168
0
VERTEX
8
CUT
10
115.6262
20
132.6892
0
VERTEX
8
CUT
10
115.6700
20
132.7430
0
VERTEX
8
CUT
10
115.7554
20
132.8448
0
VERTEX
8
CUT
10
115.8008
20
132.8972
0
VERTEX
8
CUT
10
118.0022
20
135.3636
0
VERTEX
8
CUT
10
118.0271
20
135.3911
0
VERTEX
8
CUT
10
118.0693
20
135.4368
0
VERTEX
8
CUT
10
118.1070
20
135.4767
0
VERTEX
8
CUT
10
118.1271
20
135.4975
0
VERTEX
8
CUT
10
118.1431
20
135.5138
0
VERTEX
8
CUT
10
118.2101
20
135.5817
0
VERTEX
8
CUT
10
118.2364
20
135.6079
0
VERTEX
8
CUT
10
118.2808
20
135.6515
0
VERTEX
8
CUT
10
118.3205
20
135.6894
0
VERTEX
8
CUT
10
118.3416
20
135.7092
0
VERTEX
8
CUT
10
118.3584
20
135.7247
0
VERTEX
8
CUT
10
119.7125
20
136.9645
0
VERTEX
8
CUT
10
119.7386
20
136.9880
0
VERTEX
8
CUT
10
119.7890
20
137.0327
0
VERTEX
8
CUT
10
119.8154
20
137.0558
0
VERTEX
8
CUT
10
119.8524
20
137.0877
0
VERTEX
8
CUT
10
119.8829
20
137.1134
0
VERTEX
8
CUT
10
119.9416
20
137.1622
0
VERTEX
8
CUT
10
119.9725
20
137.1874
0
VERTEX
8
CUT
10
124.2257
20
140.5957
0
VERTEX
8
CUT
10
124.2381
20
140.6056
0
VERTEX
8
CUT
10
124.2620
20
140.6245
0
VERTEX
8
CUT
10
124.2745
20
140.6342
0
VERTEX
8
CUT
10
124.2963
20
140.6513
0
VERTEX
8
CUT
10
124.3167
20
140.6670
0
VERTEX
8
CUT
10
124.3561
20
140.6969
0
VERTEX
8
CUT
10
124.3767
20
140.7124
0
VERTEX
8
CUT
10
132.9688
20
147.0967
0
VERTEX
8
CUT
10
132.9984
20
147.1193
0
VERTEX
8
CUT
10
133.1424
20
147.2319
0
VERTEX
8
CUT
10
133.2001
20
147.2793
0
VERTEX
8
CUT
10
133.3386
20
147.3991
0
VERTEX
8
CUT
10
133.3666
20
147.4238
0
VERTEX
8
CUT
10
135.0657
20
148.9666
0
VERTEX
8
CUT
10
135.0973
20
148.9961
0
VERTEX
8
CUT
10
135.2501
20
149.1431
0
VERTEX
8
CUT
10
135.3108
20
149.2048
0
VERTEX
8
CUT
10
135.4550
20
149.3602
0
VERTEX
8
CUT
10
135.4840
20
149.3923
0
VERTEX
8
CUT
10
138.7898
20
153.1634
0
VERTEX
8
CUT
10
138.8183
20
153.1968
0
VERTEX
8
CUT
10
138.9552
20
153.3624
0
VERTEX
8
CUT
10
139.0091
20
153.4315
0
VERTEX
8
CUT
10
139.1362
20
153.6047
0
VERTEX
8
CUT
10
139.1616
20
153.6404
0
VERTEX
8
CUT
10
140.4844
20
155.5557
0
VERTEX
8
CUT
10
140.4992
20
155.5775
0
VERTEX
8
CUT
10
140.5831
20
155.7036
0
VERTEX
8
CUT
10
140.6144
20
155.7527
0
VERTEX
8
CUT
10
140.6788
20
155.8580
0
VERTEX
8
CUT
10
140.6932
20
155.8820
0
VERTEX
8
CUT
10
141.8797
20
157.9055
0
VERTEX
8
CUT
10
141.8956
20
157.9334
0
VERTEX
8
CUT
10
141.9719
20
158.0700
0
VERTEX
8
CUT
10
142.0018
20
158.1264
0
VERTEX
8
CUT
10
142.0723
20
158.2662
0
VERTEX
8
CUT
10
142.0864
20
158.2948
0
VERTEX
8
CUT
10
143.0747
20
160.3608
0
VERTEX
8
CUT
10
143.0889
20
160.3912
0
VERTEX
8
CUT
10
143.1566
20
160.5412
0
VERTEX
8
CUT
10
143.1828
20
160.6029
0
VERTEX
8
CUT
10
143.2438
20
160.7557
0
VERTEX
8
CUT
10
143.2559
20
160.7870
0
VERTEX
8
CUT
10
144.0512
20
162.9134
0
VERTEX
8
CUT
10
144.0599
20
162.9371
0
VERTEX
8
CUT
10
144.1086
20
163.0744
0
VERTEX
8
CUT
10
144.1264
20
163.1275
0
VERTEX
8
CUT
10
144.1620
20
163.2407
0
VERTEX
8
CUT
10
144.1698
20
163.2665
0
VERTEX
8
CUT
10
144.8631
20
165.6184
0
VERTEX
8
CUT
10
144.8779
20
165.6725
0
VERTEX
8
CUT
10
144.9456
20
165.9379
0
VERTEX
8
CUT
10
144.9693
20
166.0472
0
VERTEX
8
CUT
10
145.0173
20
166.3171
0
VERTEX
8
CUT
10
145.0261
20
166.3723
0
VERTEX
8
CUT
10
145.5869
20
170.3708
0
VERTEX
8
CUT
10
145.5923
20
170.4140
0
VERTEX
8
CUT
10
145.6159
20
170.6261
0
VERTEX
8
CUT
10
145.6230
20
170.7128
0
VERTEX
8
CUT
10
145.6344
20
170.9259
0
VERTEX
8
CUT
10
145.6361
20
170.9694
0
VERTEX
8
CUT
10
145.9839
20
184.9936
0
VERTEX
8
CUT
10
145.9852
20
185.0326
0
VERTEX
8
CUT
10
145.9879
20
185.0980
0
VERTEX
8
CUT
10
145.9911
20
185.1557
0
VERTEX
8
CUT
10
145.9931
20
185.1861
0
VERTEX
8
CUT
10
145.9949
20
185.2101
0
VERTEX
8
CUT
10
146.0027
20
185.3102
0
VERTEX
8
CUT
10
146.0060
20
185.3491
0
VERTEX
8
CUT
10
146.0123
20
185.4143
0
VERTEX
8
CUT
10
146.0185
20
185.4718
0
VERTEX
8
CUT
10
146.0221
20
185.5020
0
VERTEX
8
CUT
10
146.0251
20
185.5259
0
VERTEX
8
CUT
10
146.7648
20
191.1452
0
VERTEX
8
CUT
10
146.7703
20
191.1844
0
VERTEX
8
CUT
10
146.7801
20
191.2500
0
VERTEX
8
CUT
10
146.7895
20
191.3079
0
VERTEX
8
CUT
10
146.7948
20
191.3382
0
VERTEX
8
CUT
10
146.7992
20
191.3622
0
VERTEX
8
CUT
10
146.8178
20
191.4623
0
VERTEX
8
CUT
10
146.8254
20
191.5011
0
VERTEX
8
CUT
10
146.8388
20
191.5662
0
VERTEX
8
CUT
10
146.8512
20
191.6234
0
VERTEX
8
CUT
10
146.8582
20
191.6534
0
VERTEX
8
CUT
10
146.8638
20
191.6772
0
VERTEX
8
CUT
10
147.4891
20
194.2501
0
VERTEX
8
CUT
10
147.4986
20
194.2878
0
VERTEX
8
CUT
10
147.5175
20
194.3600
0
VERTEX
8
CUT
10
147.5276
20
194.3976
0
VERTEX
8
CUT
10
147.5423
20
194.4500
0
VERTEX
8
CUT
10
147.5545
20
194.4923
0
VERTEX
8
CUT
10
147.5789
20
194.5733
0
VERTEX
8
CUT
10
147.5920
20
194.6154
0
VERTEX
8
CUT
10
148.5242
20
197.5133
0
VERTEX
8
CUT
10
148.5334
20
197.5412
0
VERTEX
8
CUT
10
148.5513
20
197.5945
0
VERTEX
8
CUT
10
148.5608
20
197.6222
0
VERTEX
8
CUT
10
148.5740
20
197.6600
0
VERTEX
8
CUT
10
148.5852
20
197.6912
0
VERTEX
8
CUT
10
148.6070
20
197.7508
0
VERTEX
8
CUT
10
148.6187
20
197.7818
0
VERTEX
8
CUT
10
152.9510
20
209.0851
0
VERTEX
8
CUT
10
152.9761
20
209.1558
0
VERTEX
8
CUT
10
153.0688
20
209.4386
0
VERTEX
8
CUT
10
153.1084
20
209.5835
0
VERTEX
8
CUT
10
153.1727
20
209.8740
0
VERTEX
8
CUT
10
153.1871
20
209.9476
0
VERTEX
8
CUT
10
153.7105
20
213.0267
0
VERTEX
8
CUT
10
153.7196
20
213.0880
0
VERTEX
8
CUT
10
153.7509
20
213.3316
0
VERTEX
8
CUT
10
153.7616
20
213.4550
0
VERTEX
8
CUT
10
153.7729
20
213.7002
0
VERTEX
8
CUT
10
153.7745
20
213.7622
0
VERTEX
8
CUT
10
153.7888
20
216.4150
0
VERTEX
8
CUT
10
153.7873
20
216.4902
0
VERTEX
8
CUT
10
153.7742
20
216.7878
0
VERTEX
8
CUT
10
153.7602
20
216.9375
0
VERTEX
8
CUT
10
153.7348
20
217.1136
0
VERTEX
8
CUT
10
153.7060
20
217.2611
0
VERTEX
8
CUT
10
153.6634
20
217.4338
0
VERTEX
8
CUT
10
153.6202
20
217.5777
0
VERTEX
8
CUT
10
153.5608
20
217.7454
0
VERTEX
8
CUT
10
153.5036
20
217.8844
0
VERTEX
8
CUT
10
153.4279
20
218.0453
0
VERTEX
8
CUT
10
153.3572
20
218.1780
0
VERTEX
8
CUT
10
153.2660
20
218.3307
0
VERTEX
8
CUT
10
153.1826
20
218.4557
0
VERTEX
8
CUT
10
153.0767
20
218.5987
0
VERTEX
8
CUT
10
152.9814
20
218.7149
0
VERTEX
8
CUT
10
152.8619
20
218.8466
0
VERTEX
8
CUT
10
152.7555
20
218.9529
0
VERTEX
8
CUT
10
152.6236
20
219.0722
0
VERTEX
8
CUT
10
152.5073
20
219.1674
0
VERTEX
8
CUT
10
152.3642
20
219.2731
0
VERTEX
8
CUT
10
152.2391
20
219.3563
0
VERTEX
8
CUT
10
152.0863
20
219.4474
0
VERTEX
8
CUT
10
151.9535
20
219.5179
0
VERTEX
8
CUT
10
151.7925
20
219.5934
0
VERTEX
8
CUT
10
151.6534
20
219.6504
0
VERTEX
8
CUT
10
151.4857
20
219.7097
0
VERTEX
8
CUT
10
151.3417
20
219.7527
0
VERTEX
8
CUT
10
151.1689
20
219.7951
0
VERTEX
8
CUT
10
151.0214
20
219.8237
0
VERTEX
8
CUT
10
150.8453
20
219.8489
0
VERTEX
8
CUT
10
150.6956
20
219.8627
0
VERTEX
8
CUT
10
150.5179
20
219.8703
0
VERTEX
8
CUT
10
150.3676
20
219.8694
0
VERTEX
8
CUT
10
150.1900
20
219.8594
0
VERTEX
8
CUT
10
150.0405
20
219.8436
0
VERTEX
8
CUT
10
149.8648
20
219.8161
0
VERTEX
8
CUT
10
149.7176
20
219.7856
0
VERTEX
8
CUT
10
149.5454
20
219.7410
0
VERTEX
8
CUT
10
149.4020
20
219.6961
0
VERTEX
8
CUT
10
149.2351
20
219.6346
0
VERTEX
8
CUT
10
149.0968
20
219.5758
0
VERTEX
8
CUT
10
148.9367
20
219.4981
0
VERTEX
8
CUT
10
148.8049
20
219.4259
0
VERTEX
8
CUT
10
148.6533
20
219.3329
0
VERTEX
8
CUT
10
148.5293
20
219.2480
0
VERTEX
8
CUT
10
148.3876
20
219.1404
0
VERTEX
8
CUT
10
148.2725
20
219.0437
0
VERTEX
8
CUT
10
148.1422
20
218.9226
0
VERTEX
8
CUT
10
148.0373
20
218.8151
0
VERTEX
8
CUT
10
147.9195
20
218.6817
0
VERTEX
8
CUT
10
147.8257
20
218.5643
0
VERTEX
8
CUT
10
147.7217
20
218.4200
0
VERTEX
8
CUT
10
147.6400
20
218.2939
0
VERTEX
8
CUT
10
147.5507
20
218.1400
0
VERTEX
8
CUT
10
147.4818
20
218.0064
0
VERTEX
8
CUT
10
147.4082
20
217.8445
0
VERTEX
8
CUT
10
147.3528
20
217.7048
0
VERTEX
8
CUT
10
147.2569
20
217.4228
0
VERTEX
8
CUT
10
147.2345
20
217.3511
0
VERTEX
8
CUT
10
146.9098
20
216.2147
0
VERTEX
8
CUT
10
146.8902
20
216.1497
0
VERTEX
8
CUT
10
146.8507
20
216.0257
0
VERTEX
8
CUT
10
146.8292
20
215.9613
0
VERTEX
8
CUT
10
146.7992
20
215.8762
0
VERTEX
8
CUT
10
146.7758
20
215.8125
0
VERTEX
8
CUT
10
146.7290
20
215.6910
0
VERTEX
8
CUT
10
146.7037
20
215.6280
0
VERTEX
8
CUT
10
145.5845
20
212.9622
0
VERTEX
8
CUT
10
145.5711
20
212.9310
0
VERTEX
8
CUT
10
145.5484
20
212.8790
0
VERTEX
8
CUT
10
145.5278
20
212.8333
0
VERTEX
8
CUT
10
145.5167
20
212.8093
0
VERTEX
8
CUT
10
145.5078
20
212.7904
0
VERTEX
8
CUT
10
145.4704
20
212.7117
0
VERTEX
8
CUT
10
145.4556
20
212.6812
0
VERTEX
8
CUT
10
145.4305
20
212.6302
0
VERTEX
8
CUT
10
145.4078
20
212.5855
0
VERTEX
8
CUT
10
145.3956
20
212.5621
0
VERTEX
8
CUT
10
145.3858
20
212.5436
0
VERTEX
8
CUT
10
143.9786
20
209.9022
0
VERTEX
8
CUT
10
143.9617
20
209.8711
0
VERTEX
8
CUT
10
143.9330
20
209.8192
0
VERTEX
8
CUT
10
143.9071
20
209.7737
0
VERTEX
8
CUT
10
143.8932
20
209.7499
0
VERTEX
8
CUT
10
143.8822
20
209.7311
0
VERTEX
8
CUT
10
143.8356
20
209.6529
0
VERTEX
8
CUT
10
143.8172
20
209.6226
0
VERTEX
8
CUT
10
143.7860
20
209.5721
0
VERTEX
8
CUT
10
143.7580
20
209.5279
0
VERTEX
8
CUT
10
143.7430
20
209.5048
0
VERTEX
8
CUT
10
143.7310
20
209.4865
0
VERTEX
8
CUT
10
142.2068
20
207.1884
0
VERTEX
8
CUT
10
142.1851
20
207.1564
0
VERTEX
8
CUT
10
142.1484
20
207.1030
0
VERTEX
8
CUT
10
142.1154
20
207.0563
0
VERTEX
8
CUT
10
142.0977
20
207.0319
0
VERTEX
8
CUT
10
142.0836
20
207.0127
0
VERTEX
8
CUT
10
142.0244
20
206.9328
0
VERTEX
8
CUT
10
142.0011
20
206.9020
0
VERTEX
8
CUT
10
141.9616
20
206.8506
0
VERTEX
8
CUT
10
141.9262
20
206.8056
0
VERTEX
8
CUT
10
141.9072
20
206.7822
0
VERTEX
8
CUT
10
141.8921
20
206.7638
0
VERTEX
8
CUT
10
140.2251
20
204.7467
0
VERTEX
8
CUT
10
140.1833
20
204.6975
0
VERTEX
8
CUT
10
140.1018
20
204.6044
0
VERTEX
8
CUT
10
140.0586
20
204.5564
0
VERTEX
8
CUT
10
140.0002
20
204.4935
0
VERTEX
8
CUT
10
139.9557
20
204.4467
0
VERTEX
8
CUT
10
139.8690
20
204.3584
0
VERTEX
8
CUT
10
139.8232
20
204.3129
0
VERTEX
8
CUT
10
138.0345
20
202.5894
0
VERTEX
8
CUT
10
137.9858
20
202.5439
0
VERTEX
8
CUT
10
137.8913
20
202.4579
0
VERTEX
8
CUT
10
137.8413
20
202.4138
0
VERTEX
8
CUT
10
137.7739
20
202.3561
0
VERTEX
8
CUT
10
137.7227
20
202.3135
0
VERTEX
8
CUT
10
137.6232
20
202.2332
0
VERTEX
8
CUT
10
137.5707
20
202.1921
0
VERTEX
8
CUT
10
135.6145
20
200.7054
0
VERTEX
8
CUT
10
135.5597
20
200.6650
0
VERTEX
8
CUT
10
135.4534
20
200.5891
0
VERTEX
8
CUT
10
135.3973
20
200.5504
0
VERTEX
8
CUT
10
135.3220
20
200.5000
0
VERTEX
8
CUT
10
135.2649
20
200.4629
0
VERTEX
8
CUT
10
135.1542
20
200.3935
0
VERTEX
8
CUT
10
135.0960
20
200.3582
0
VERTEX
8
CUT
10
132.9943
20
199.1259
0
VERTEX
8
CUT
10
132.9337
20
199.0916
0
VERTEX
8
CUT
10
132.8166
20
199.0277
0
VERTEX
8
CUT
10
132.7550
20
198.9953
0
VERTEX
8
CUT
10
132.6725
20
198.9534
0
VERTEX
8
CUT
10
132.6099
20
198.9229
0
VERTEX
8
CUT
10
132.4892
20
198.8663
0
VERTEX
8
CUT
10
132.4257
20
198.8377
0
VERTEX
8
CUT
10
130.1358
20
197.8473
0
VERTEX
8
CUT
10
130.0720
20
197.8209
0
VERTEX
8
CUT
10
129.9489
20
197.7720
0
VERTEX
8
CUT
10
129.8843
20
197.7475
0
VERTEX
8
CUT
10
129.7979
20
197.7162
0
VERTEX
8
CUT
10
129.7326
20
197.6937
0
VERTEX
8
CUT
10
129.6068
20
197.6524
0
VERTEX
8
CUT
10
129.5408
20
197.6318
0
VERTEX
8
CUT
10
122.5060
20
195.5560
0
VERTEX
8
CUT
10
122.4001
20
195.5275
0
VERTEX
8
CUT
10
122.2494
20
195.4908
0
VERTEX
8
CUT
10
122.0342
20
195.4493
0
VERTEX
8
CUT
10
121.9350
20
195.4350
0
VERTEX
8
CUT
10
121.7168
20
195.4143
0
VERTEX
8
CUT
10
121.6166
20
195.4097
0
VERTEX
8
CUT
10
121.3975
20
195.4100
0
VERTEX
8
CUT
10
121.2973
20
195.4150
0
VERTEX
8
CUT
10
121.0792
20
195.4364
0
VERTEX
8
CUT
10
120.9800
20
195.4510
0
VERTEX
8
CUT
10
120.7650
20
195.4932
0
VERTEX
8
CUT
10
120.6676
20
195.5173
0
VERTEX
8
CUT
10
120.4576
20
195.5800
0
VERTEX
8
CUT
10
120.3631
20
195.6132
0
VERTEX
8
CUT
10
120.1600
20
195.6958
0
VERTEX
8
CUT
10
120.0691
20
195.7380
0
VERTEX
8
CUT
10
119.8750
20
195.8397
0
VERTEX
8
CUT
10
119.7885
20
195.8904
0
VERTEX
8
CUT
10
119.6050
20
196.0103
0
VERTEX
8
CUT
10
119.5238
20
196.0691
0
VERTEX
8
CUT
10
119.3527
20
196.2060
0
VERTEX
8
CUT
10
119.2775
20
196.2724
0
VERTEX
8
CUT
10
119.1203
20
196.4251
0
VERTEX
8
CUT
10
119.0519
20
196.4984
0
VERTEX
8
CUT
10
118.9101
20
196.6655
0
VERTEX
8
CUT
10
118.8490
20
196.7450
0
VERTEX
8
CUT
10
118.7239
20
196.9249
0
VERTEX
8
CUT
10
118.6707
20
197.0099
0
VERTEX
8
CUT
10
118.5635
20
197.2011
0
VERTEX
8
CUT
10
118.5187
20
197.2907
0
VERTEX
8
CUT
10
118.4303
20
197.4913
0
VERTEX
8
CUT
10
118.3943
20
197.5849
0
VERTEX
8
CUT
10
118.3256
20
197.7930
0
VERTEX
8
CUT
10
118.2988
20
197.8896
0
VERTEX
8
CUT
10
118.2504
20
198.1034
0
VERTEX
8
CUT
10
118.2330
20
198.2021
0
VERTEX
8
CUT
10
118.2054
20
198.4195
0
VERTEX
8
CUT
10
118.1975
20
198.5195
0
VERTEX
8
CUT
10
118.1909
20
198.7385
0
VERTEX
8
CUT
10
118.1927
20
198.8388
0
VERTEX
8
CUT
10
118.2003
20
198.9550
0
VERTEX
8
CUT
10
118.8220
20
201.4158
0
VERTEX
8
CUT
10
119.0073
20
202.1495
0
VERTEX
8
CUT
10
119.2612
20
203.1544
0
VERTEX
8
CUT
10
119.5427
20
204.2687
0
VERTEX
8
CUT
10
119.6253
20
204.5957
0
VERTEX
8
CUT
10
119.6800
20
204.8122
0
VERTEX
8
CUT
10
120.7173
20
208.7395
0
VERTEX
8
CUT
10
120.7187
20
208.7448
0
VERTEX
8
CUT
10
120.7226
20
208.7595
0
VERTEX
8
CUT
10
120.7262
20
208.7737
0
VERTEX
8
CUT
10
120.7400
20
208.8291
0
VERTEX
8
CUT
10
120.7430
20
208.8413
0
VERTEX
8
CUT
10
121.7000
20
212.8082
0
VERTEX
8
CUT
10
122.4061
20
215.6032
0
VERTEX
8
CUT
10
122.4084
20
215.6127
0
VERTEX
8
CUT
10
122.4186
20
215.6540
0
VERTEX
8
CUT
10
122.4228
20
215.6717
0
VERTEX
8
CUT
10
122.4375
20
215.7345
0
VERTEX
8
CUT
10
122.4406
20
215.7485
0
VERTEX
8
CUT
10
122.8290
20
217.4883
0
VERTEX
8
CUT
10
123.7641
20
221.3647
0
VERTEX
8
CUT
10
123.7669
20
221.3763
0
VERTEX
8
CUT
10
123.7787
20
221.4270
0
VERTEX
8
CUT
10
123.7835
20
221.4486
0
VERTEX
8
CUT
10
123.8003
20
221.5256
0
VERTEX
8
CUT
10
123.8039
20
221.5428
0
VERTEX
8
CUT
10
124.5930
20
225.3825
0
VERTEX
8
CUT
10
124.5956
20
225.3951
0
VERTEX
8
CUT
10
124.6035
20
225.4354
0
VERTEX
8
CUT
10
124.6112
20
225.4779
0
VERTEX
8
CUT
10
124.6331
20
225.6085
0
VERTEX
8
CUT
10
124.6377
20
225.6381
0
VERTEX
8
CUT
10
125.4135
20
230.9107
0
VERTEX
8
CUT
10
125.4181
20
230.9444
0
VERTEX
8
CUT
10
125.4386
20
231.1094
0
VERTEX
8
CUT
10
125.4455
20
231.1769
0
VERTEX
8
CUT
10
125.4586
20
231.3427
0
VERTEX
8
CUT
10
125.4609
20
231.3765
0
VERTEX
8
CUT
10
125.5141
20
232.3122
0
VERTEX
8
CUT
10
125.5570
20
232.6375
0
VERTEX
8
CUT
10
125.5609
20
232.6704
0
VERTEX
8
CUT
10
125.5786
20
232.8314
0
VERTEX
8
CUT
10
125.5843
20
232.8972
0
VERTEX
8
CUT
10
125.5950
20
233.0589
0
VERTEX
8
CUT
10
125.5968
20
233.0919
0
VERTEX
8
CUT
10
125.7147
20
235.7749
0
VERTEX
8
CUT
10
125.7158
20
235.8077
0
VERTEX
8
CUT
10
125.7194
20
235.9682
0
VERTEX
8
CUT
10
125.7195
20
236.0337
0
VERTEX
8
CUT
10
125.7162
20
236.1943
0
VERTEX
8
CUT
10
125.7151
20
236.2270
0
VERTEX
8
CUT
10
125.7147
20
236.2360
0
VERTEX
8
CUT
10
125.7147
20
236.2386
0
VERTEX
8
CUT
10
125.7136
20
236.2763
0
VERTEX
8
CUT
10
125.6267
20
238.3199
0
VERTEX
8
CUT
10
125.6247
20
238.3574
0
VERTEX
8
CUT
10
125.6123
20
238.5413
0
VERTEX
8
CUT
10
125.6054
20
238.6162
0
VERTEX
8
CUT
10
125.5839
20
238.7993
0
VERTEX
8
CUT
10
125.5791
20
238.8365
0
VERTEX
8
CUT
10
125.3729
20
240.2849
0
VERTEX
8
CUT
10
125.3621
20
240.3504
0
VERTEX
8
CUT
10
125.3621
20
240.3506
0
VERTEX
8
CUT
10
125.3562
20
240.3869
0
VERTEX
8
CUT
10
125.3093
20
240.6481
0
VERTEX
8
CUT
10
125.2864
20
240.7540
0
VERTEX
8
CUT
10
125.2210
20
241.0112
0
VERTEX
8
CUT
10
125.2068
20
241.0634
0
VERTEX
8
CUT
10
124.8994
20
242.1142
0
VERTEX
8
CUT
10
124.8824
20
242.1686
0
VERTEX
8
CUT
10
124.8109
20
242.3829
0
VERTEX
8
CUT
10
124.7708
20
242.4896
0
VERTEX
8
CUT
10
124.6834
20
242.6979
0
VERTEX
8
CUT
10
124.6604
20
242.7500
0
VERTEX
8
CUT
10
124.5613
20
242.9635
0
VERTEX
8
CUT
10
124.4741
20
243.1872
0
VERTEX
8
CUT
10
124.4038
20
243.3414
0
VERTEX
8
CUT
10
124.3404
20
243.4622
0
VERTEX
8
CUT
10
124.2905
20
243.5632
0
VERTEX
8
CUT
10
124.2235
20
243.7079
0
VERTEX
8
CUT
10
124.1390
20
243.9167
0
VERTEX
8
CUT
10
124.1051
20
244.0140
0
VERTEX
8
CUT
10
124.0416
20
244.2302
0
VERTEX
8
CUT
10
124.0175
20
244.3304
0
VERTEX
8
CUT
10
123.9757
20
244.5517
0
VERTEX
8
CUT
10
123.9616
20
244.6538
0
VERTEX
8
CUT
10
123.9418
20
244.8782
0
VERTEX
8
CUT
10
123.9379
20
244.9812
0
VERTEX
8
CUT
10
123.9403
20
245.2065
0
VERTEX
8
CUT
10
123.9466
20
245.3093
0
VERTEX
8
CUT
10
123.9713
20
245.5333
0
VERTEX
8
CUT
10
123.9876
20
245.6350
0
VERTEX
8
CUT
10
124.0343
20
245.8554
0
VERTEX
8
CUT
10
124.0606
20
245.9550
0
VERTEX
8
CUT
10
124.1288
20
246.1698
0
VERTEX
8
CUT
10
124.1648
20
246.2663
0
VERTEX
8
CUT
10
124.2539
20
246.4732
0
VERTEX
8
CUT
10
124.2993
20
246.5658
0
VERTEX
8
CUT
10
124.4083
20
246.7629
0
VERTEX
8
CUT
10
124.4626
20
246.8505
0
VERTEX
8
CUT
10
124.5906
20
247.0359
0
VERTEX
8
CUT
10
124.6533
20
247.1177
0
VERTEX
8
CUT
10
124.7989
20
247.2896
0
VERTEX
8
CUT
10
124.8694
20
247.3648
0
VERTEX
8
CUT
10
125.0313
20
247.5214
0
VERTEX
8
CUT
10
125.1088
20
247.5893
0
VERTEX
8
CUT
10
125.2854
20
247.7292
0
VERTEX
8
CUT
10
125.3692
20
247.7891
0
VERTEX
8
CUT
10
125.5588
20
247.9109
0
VERTEX
8
CUT
10
125.6481
20
247.9623
0
VERTEX
8
CUT
10
125.8487
20
248.0647
0
VERTEX
8
CUT
10
125.9942
20
248.1302
0
VERTEX
8
CUT
10
126.0981
20
248.1739
0
VERTEX
8
CUT
10
126.3277
20
248.2638
0
VERTEX
8
CUT
10
126.3475
20
248.2714
0
VERTEX
8
CUT
10
126.9637
20
248.4612
0
VERTEX
8
CUT
10
126.9707
20
248.4634
0
VERTEX
8
CUT
10
126.9853
20
248.4679
0
VERTEX
8
CUT
10
127.0017
20
248.4729
0
VERTEX
8
CUT
10
127.0407
20
248.4850
0
VERTEX
8
CUT
10
127.0874
20
248.4994
0
VERTEX
8
CUT
10
127.0965
20
248.5022
0
VERTEX
8
CUT
10
127.1075
20
248.5055
0
VERTEX
8
CUT
10
132.5747
20
249.9725
0
VERTEX
8
CUT
10
132.7589
20
250.0124
0
VERTEX
8
CUT
10
132.7932
20
250.0196
0
VERTEX
8
CUT
10
132.8591
20
250.0328
0
VERTEX
8
CUT
10
132.8935
20
250.0394
0
VERTEX
8
CUT
10
132.9414
20
250.0482
0
VERTEX
8
CUT
10
132.9806
20
250.0551
0
VERTEX
8
CUT
10
133.0558
20
250.0677
0
VERTEX
8
CUT
10
133.0951
20
250.0738
0
VERTEX
8
CUT
10
134.6792
20
250.3095
0
VERTEX
8
CUT
10
140.4090
20
251.0387
0
VERTEX
8
CUT
10
146.3037
20
251.3557
0
VERTEX
8
CUT
10
146.4554
20
251.3138
0
VERTEX
8
CUT
10
146.5524
20
251.2817
0
VERTEX
8
CUT
10
146.7608
20
251.2015
0
VERTEX
8
CUT
10
146.8543
20
251.1601
0
VERTEX
8
CUT
10
147.0538
20
251.0598
0
VERTEX
8
CUT
10
147.1427
20
251.0095
0
VERTEX
8
CUT
10
147.3315
20
250.8901
0
VERTEX
8
CUT
10
147.4151
20
250.8314
0
VERTEX
8
CUT
10
147.5912
20
250.6941
0
VERTEX
8
CUT
10
147.6687
20
250.6275
0
VERTEX
8
CUT
10
147.8209
20
250.4829
0
VERTEX
8
CUT
10
147.8582
20
250.4424
0
VERTEX
8
CUT
10
147.9287
20
250.3624
0
VERTEX
8
CUT
10
147.9895
20
250.2900
0
VERTEX
8
CUT
10
148.0137
20
250.2620
0
VERTEX
8
CUT
10
148.0259
20
250.2481
0
VERTEX
8
CUT
10
148.0876
20
250.1745
0
VERTEX
8
CUT
10
148.1887
20
250.0651
0
VERTEX
8
CUT
10
148.3146
20
249.9417
0
VERTEX
8
CUT
10
148.4260
20
249.8427
0
VERTEX
8
CUT
10
148.5634
20
249.7322
0
VERTEX
8
CUT
10
148.6839
20
249.6446
0
VERTEX
8
CUT
10
148.8315
20
249.5481
0
VERTEX
8
CUT
10
148.9600
20
249.4727
0
VERTEX
8
CUT
10
149.1163
20
249.3911
0
VERTEX
8
CUT
10
149.2515
20
249.3287
0
VERTEX
8
CUT
10
149.4151
20
249.2627
0
VERTEX
8
CUT
10
149.5558
20
249.2139
0
VERTEX
8
CUT
10
149.7250
20
249.1643
0
VERTEX
8
CUT
10
149.8698
20
249.1294
0
VERTEX
8
CUT
10
150.0431
20
249.0966
0
VERTEX
8
CUT
10
150.1906
20
249.0761
0
VERTEX
8
CUT
10
150.3662
20
249.0604
0
VERTEX
8
CUT
10
150.5151
20
249.0544
0
VERTEX
8
CUT
10
150.6914
20
249.0560
0
VERTEX
8
CUT
10
150.8401
20
249.0646
0
VERTEX
8
CUT
10
151.0154
20
249.0834
0
VERTEX
8
CUT
10
151.1626
20
249.1065
0
VERTEX
8
CUT
10
151.3352
20
249.1424
0
VERTEX
8
CUT
10
151.4794
20
249.1799
0
VERTEX
8
CUT
10
151.6477
20
249.2325
0
VERTEX
8
CUT
10
151.7875
20
249.2838
0
VERTEX
8
CUT
10
151.9499
20
249.3527
0
VERTEX
8
CUT
10
152.0840
20
249.4175
0
VERTEX
8
CUT
10
152.2388
20
249.5019
0
VERTEX
8
CUT
10
152.3660
20
249.5795
0
VERTEX
8
CUT
10
152.5118
20
249.6787
0
VERTEX
8
CUT
10
152.6307
20
249.7683
0
VERTEX
8
CUT
10
152.7661
20
249.8813
0
VERTEX
8
CUT
10
152.8757
20
249.9822
0
VERTEX
8
CUT
10
152.9994
20
250.1079
0
VERTEX
8
CUT
10
153.0986
20
250.2190
0
VERTEX
8
CUT
10
153.2875
20
250.4528
0
VERTEX
8
CUT
10
153.3601
20
250.5383
0
VERTEX
8
CUT
10
153.4658
20
250.6567
0
VERTEX
8
CUT
10
153.6232
20
250.8165
0
VERTEX
8
CUT
10
153.6987
20
250.8860
0
VERTEX
8
CUT
10
153.8711
20
251.0295
0
VERTEX
8
CUT
10
153.9531
20
251.0912
0
VERTEX
8
CUT
10
154.1387
20
251.2171
0
VERTEX
8
CUT
10
154.2263
20
251.2704
0
VERTEX
8
CUT
10
154.4235
20
251.3775
0
VERTEX
8
CUT
10
154.5159
20
251.4219
0
VERTEX
8
CUT
10
154.7226
20
251.5091
0
VERTEX
8
CUT
10
154.8190
20
251.5443
0
VERTEX
8
CUT
10
155.0332
20
251.6107
0
VERTEX
8
CUT
10
155.0545
20
251.6162
0
VERTEX
8
CUT
10
156.8208
20
251.6379
0
VERTEX
8
CUT
10
156.8341
20
251.6380
0
VERTEX
8
CUT
10
156.8594
20
251.6382
0
VERTEX
8
CUT
10
156.8727
20
251.6382
0
VERTEX
8
CUT
10
156.8952
20
251.6382
0
VERTEX
8
CUT
10
156.9166
20
251.6381
0
VERTEX
8
CUT
10
156.9576
20
251.6378
0
VERTEX
8
CUT
10
156.9790
20
251.6375
0
VERTEX
8
CUT
10
169.3440
20
251.4141
0
VERTEX
8
CUT
10
169.9466
20
251.3939
0
VERTEX
8
CUT
10
172.4253
20
251.2719
0
VERTEX
8
CUT
10
173.4646
20
251.1994
0
VERTEX
8
CUT
10
173.5428
20
251.1940
0
VERTEX
8
CUT
10
174.8606
20
251.1020
0
VERTEX
8
CUT
10
176.7348
20
250.9712
0
VERTEX
8
CUT
10
177.9803
20
250.8714
0
VERTEX
8
CUT
10
180.3460
20
250.6227
0
VERTEX
8
CUT
10
180.4545
20
250.6087
0
VERTEX
8
CUT
10
180.6075
20
250.5851
0
VERTEX
8
CUT
10
180.8219
20
250.5415
0
VERTEX
8
CUT
10
180.9188
20
250.5169
0
VERTEX
8
CUT
10
181.1280
20
250.4530
0
VERTEX
8
CUT
10
181.2222
20
250.4192
0
VERTEX
8
CUT
10
181.4243
20
250.3355
0
VERTEX
8
CUT
10
181.5148
20
250.2928
0
VERTEX
8
CUT
10
181.7079
20
250.1901
0
VERTEX
8
CUT
10
181.7939
20
250.1389
0
VERTEX
8
CUT
10
181.9763
20
250.0182
0
VERTEX
8
CUT
10
182.0570
20
249.9591
0
VERTEX
8
CUT
10
182.2270
20
249.8214
0
VERTEX
8
CUT
10
182.3016
20
249.7548
0
VERTEX
8
CUT
10
182.4576
20
249.6015
0
VERTEX
8
CUT
10
182.5256
20
249.5280
0
VERTEX
8
CUT
10
182.6662
20
249.3605
0
VERTEX
8
CUT
10
182.7267
20
249.2808
0
VERTEX
8
CUT
10
182.8506
20
249.1006
0
VERTEX
8
CUT
10
182.9033
20
249.0155
0
VERTEX
8
CUT
10
183.0093
20
248.8242
0
VERTEX
8
CUT
10
183.0536
20
248.7344
0
VERTEX
8
CUT
10
183.1408
20
248.5339
0
VERTEX
8
CUT
10
183.1763
20
248.4403
0
VERTEX
8
CUT
10
183.2439
20
248.2323
0
VERTEX
8
CUT
10
183.2474
20
248.2193
0
VERTEX
8
CUT
10
183.2808
20
248.2262
0
VERTEX
8
CUT
10
183.3032
20
248.2287
0
VERTEX
8
CUT
10
183.3963
20
248.2388
0
VERTEX
8
CUT
10
183.5125
20
248.2401
0
VERTEX
8
CUT
10
183.6012
20
248.2326
0
VERTEX
8
CUT
10
183.5634
20
248.0959
0
VERTEX
8
CUT
10
183.5285
20
247.9395
0
VERTEX
8
CUT
10
183.4965
20
247.7525
0
VERTEX
8
CUT
10
183.4775
20
247.5934
0
VERTEX
8
CUT
10
183.4643
20
247.4042
0
VERTEX
8
CUT
10
183.4613
20
247.2440
0
VERTEX
8
CUT
10
183.4671
20
247.0544
0
VERTEX
8
CUT
10
183.4801
20
246.8947
0
VERTEX
8
CUT
10
183.5049
20
246.7066
0
VERTEX
8
CUT
10
183.5338
20
246.5490
0
VERTEX
8
CUT
10
183.5773
20
246.3644
0
VERTEX
8
CUT
10
183.6219
20
246.2104
0
VERTEX
8
CUT
10
183.6836
20
246.0311
0
VERTEX
8
CUT
10
183.7433
20
245.8824
0
VERTEX
8
CUT
10
183.8227
20
245.7101
0
VERTEX
8
CUT
10
183.8969
20
245.5681
0
VERTEX
8
CUT
10
183.9932
20
245.4046
0
VERTEX
8
CUT
10
184.0813
20
245.2708
0
VERTEX
8
CUT
10
184.1934
20
245.1178
0
VERTEX
8
CUT
10
184.2944
20
244.9934
0
VERTEX
8
CUT
10
184.4212
20
244.8523
0
VERTEX
8
CUT
10
184.5342
20
244.7387
0
VERTEX
8
CUT
10
184.6745
20
244.6111
0
VERTEX
8
CUT
10
184.7983
20
244.5093
0
VERTEX
8
CUT
10
184.9191
20
244.4197
0
VERTEX
8
CUT
10
184.9507
20
244.3963
0
VERTEX
8
CUT
10
185.0841
20
244.3074
0
SEQEND
0
POLYLINE
8
CUT
66
1
70
1
10
0.0
20
0.0
30
0.0
0
VERTEX
8
CUT
10
188.2818
20
77.2501
0
VERTEX
8
CUT
10
188.2629
20
77.3522
0
VERTEX
8
CUT
10
188.2394
20
77.4973
0
VERTEX
8
CUT
10
188.2157
20
77.7036
0
VERTEX
8
CUT
10
188.2091
20
77.7984
0
VERTEX
8
CUT
10
188.2043
20
78.0060
0
VERTEX
8
CUT
10
188.2064
20
78.1010
0
VERTEX
8
CUT
10
188.2204
20
78.3082
0
VERTEX
8
CUT
10
188.2312
20
78.4026
0
VERTEX
8
CUT
10
188.2640
20
78.6076
0
VERTEX
8
CUT
10
188.2827
20
78.6979
0
VERTEX
8
CUT
10
188.2947
20
78.7452
0
VERTEX
8
CUT
10
188.3306
20
78.8860
0
VERTEX
8
CUT
10
188.3703
20
79.0178
0
VERTEX
8
CUT
10
188.4024
20
79.1161
0
VERTEX
8
CUT
10
188.4146
20
79.1508
0
VERTEX
8
CUT
10
188.4427
20
79.2265
0
VERTEX
8
CUT
10
188.4991
20
79.3705
0
VERTEX
8
CUT
10
188.5298
20
79.4451
0
VERTEX
8
CUT
10
190.9606
20
85.0571
0
VERTEX
8
CUT
10
190.9760
20
85.0938
0
VERTEX
8
CUT
10
191.0489
20
85.2749
0
VERTEX
8
CUT
10
191.0766
20
85.3496
0
VERTEX
8
CUT
10
191.1399
20
85.5343
0
VERTEX
8
CUT
10
191.1523
20
85.5721
0
VERTEX
8
CUT
10
192.1406
20
88.7227
0
VERTEX
8
CUT
10
192.1526
20
88.7627
0
VERTEX
8
CUT
10
192.2084
20
88.9595
0
VERTEX
8
CUT
10
192.2290
20
89.0404
0
VERTEX
8
CUT
10
192.2739
20
89.2399
0
VERTEX
8
CUT
10
192.2825
20
89.2808
0
VERTEX
8
CUT
10
192.3244
20
89.4938
0
VERTEX
8
CUT
10
192.3369
20
89.5663
0
VERTEX
8
CUT
10
192.3792
20
89.8546
0
VERTEX
8
CUT
10
192.3935
20
90.0009
0
VERTEX
8
CUT
10
192.4020
20
90.1747
0
VERTEX
8
CUT
10
192.4021
20
90.3217
0
VERTEX
8
CUT
10
192.3938
20
90.4956
0
VERTEX
8
CUT
10
192.3797
20
90.6419
0
VERTEX
8
CUT
10
192.3546
20
90.8141
0
VERTEX
8
CUT
10
192.3265
20
90.9583
0
VERTEX
8
CUT
10
192.2849
20
91.1273
0
VERTEX
8
CUT
10
192.2429
20
91.2682
0
VERTEX
8
CUT
10
192.1852
20
91.4324
0
VERTEX
8
CUT
10
192.1298
20
91.5685
0
VERTEX
8
CUT
10
192.0565
20
91.7263
0
VERTEX
8
CUT
10
191.9883
20
91.8565
0
VERTEX
8
CUT
10
191.9634
20
91.8988
0
VERTEX
8
CUT
10
191.9596
20
91.9060
0
VERTEX
8
CUT
10
191.9171
20
91.9775
0
VERTEX
8
CUT
10
191.9001
20
92.0065
0
VERTEX
8
CUT
10
191.8982
20
92.0094
0
VERTEX
8
CUT
10
191.8819
20
92.0368
0
VERTEX
8
CUT
10
191.7823
20
92.1868
0
VERTEX
8
CUT
10
191.6919
20
92.3092
0
VERTEX
8
CUT
10
191.5778
20
92.4485
0
VERTEX
8
CUT
10
191.4757
20
92.5612
0
VERTEX
8
CUT
10
191.3483
20
92.6884
0
VERTEX
8
CUT
10
191.2353
20
92.7904
0
VERTEX
8
CUT
10
191.0958
20
92.9042
0
VERTEX
8
CUT
10
190.9733
20
92.9944
0
VERTEX
8
CUT
10
190.8231
20
93.0937
0
VERTEX
8
CUT
10
190.6922
20
93.1711
0
VERTEX
8
CUT
10
190.5328
20
93.2549
0
VERTEX
8
CUT
10
190.3948
20
93.3189
0
VERTEX
8
CUT
10
190.2278
20
93.3864
0
VERTEX
8
CUT
10
190.0841
20
93.4362
0
VERTEX
8
CUT
10
189.9113
20
93.4866
0
VERTEX
8
CUT
10
189.7633
20
93.5219
0
VERTEX
8
CUT
10
189.5863
20
93.5548
0
VERTEX
8
CUT
10
189.4355
20
93.5750
0
VERTEX
8
CUT
10
189.2561
20
93.5901
0
VERTEX
8
CUT
10
189.1040
20
93.5952
0
VERTEX
8
CUT
10
188.9240
20
93.5922
0
VERTEX
8
CUT
10
188.7722
20
93.5821
0
VERTEX
8
CUT
10
188.5934
20
93.5611
0
VERTEX
8
CUT
10
188.4433
20
93.5359
0
VERTEX
8
CUT
10
188.2675
20
93.4971
0
VERTEX
8
CUT
10
188.1208
20
93.4570
0
VERTEX
8
CUT
10
187.9497
20
93.4009
0
VERTEX
8
CUT
10
187.8077
20
93.3463
0
VERTEX
8
CUT
10
187.6431
20
93.2734
0
VERTEX
8
CUT
10
187.5072
20
93.2049
0
VERTEX
8
CUT
10
187.2452
20
93.0558
0
VERTEX
8
CUT
10
187.1801
20
93.0166
0
VERTEX
8
CUT
10
185.0090
20
91.6335
0
VERTEX
8
CUT
10
184.9434
20
91.5932
0
VERTEX
8
CUT
10
184.8164
20
91.5182
0
VERTEX
8
CUT
10
184.7495
20
91.4802
0
VERTEX
8
CUT
10
184.6598
20
91.4312
0
VERTEX
8
CUT
10
184.5916
20
91.3955
0
VERTEX
8
CUT
10
184.4598
20
91.3292
0
VERTEX
8
CUT
10
184.3905
20
91.2958
0
VERTEX
8
CUT
10
182.5881
20
90.4644
0
VERTEX
8
CUT
10
182.5566
20
90.4502
0
VERTEX
8
CUT
10
182.5035
20
90.4267
0
VERTEX
8
CUT
10
182.4564
20
90.4064
0
VERTEX
8
CUT
10
182.4490
20
90.4033
0
VERTEX
8
CUT
10
182.3289
20
90.3573
0
VERTEX
8
CUT
10
182.1448
20
90.2926
0
VERTEX
8
CUT
10
182.0096
20
90.2497
0
VERTEX
8
CUT
10
181.9734
20
90.2395
0
VERTEX
8
CUT
10
181.9240
20
90.2261
0
VERTEX
8
CUT
10
181.8978
20
90.2193
0
VERTEX
8
CUT
10
181.8771
20
90.2140
0
VERTEX
8
CUT
10
180.2520
20
89.8094
0
VERTEX
8
CUT
10
180.2213
20
89.8020
0
VERTEX
8
CUT
10
180.1696
20
89.7899
0
VERTEX
8
CUT
10
180.1271
20
89.7804
0
VERTEX
8
CUT
10
180.0129
20
89.7592
0
VERTEX
8
CUT
10
179.8816
20
89.7383
0
VERTEX
8
CUT
10
179.6869
20
89.7158
0
VERTEX
8
CUT
10
179.5581
20
89.7065
0
VERTEX
8
CUT
10
179.4285
20
89.7008
0
VERTEX
8
CUT
10
179.4051
20
89.7005
0
VERTEX
8
CUT
10
179.3582
20
89.7003
0
VERTEX
8
CUT
10
179.3335
20
89.7004
0
VERTEX
8
CUT
10
179.3140
20
89.7006
0
VERTEX
8
CUT
10
178.2293
20
89.7158
0
VERTEX
8
CUT
10
178.1625
20
89.7177
0
VERTEX
8
CUT
10
178.0346
20
89.7232
0
VERTEX
8
CUT
10
177.9679
20
89.7271
0
VERTEX
8
CUT
10
177.9321
20
89.7297
0
VERTEX
8
CUT
10
177.8932
20
89.7328
0
VERTEX
8
CUT
10
177.8932
20
89.7327
0
VERTEX
8
CUT
10
177.8611
20
89.7351
0
VERTEX
8
CUT
10
177.8191
20
89.7376
0
VERTEX
8
CUT
10
177.8191
20
89.7374
0
VERTEX
8
CUT
10
177.8138
20
89.7380
0
VERTEX
8
CUT
10
177.7375
20
89.7423
0
VERTEX
8
CUT
10
177.5168
20
89.7601
0
VERTEX
8
CUT
10
177.3621
20
89.7646
0
VERTEX
8
CUT
10
177.1791
20
89.7607
0
VERTEX
8
CUT
10
177.0248
20
89.7495
0
VERTEX
8
CUT
10
176.8432
20
89.7269
0
VERTEX
8
CUT
10
176.6908
20
89.7001
0
VERTEX
8
CUT
10
176.5124
20
89.6593
0
VERTEX
8
CUT
10
176.3636
20
89.6171
0
VERTEX
8
CUT
10
176.1902
20
89.5583
0
VERTEX
8
CUT
10
176.1176
20
89.5316
0
VERTEX
8
CUT
10
176.0886
20
89.5201
0
VERTEX
8
CUT
10
176.0512
20
89.5047
0
VERTEX
8
CUT
10
175.9930
20
89.4797
0
VERTEX
8
CUT
10
175.8477
20
89.4217
0
VERTEX
8
CUT
10
175.6387
20
89.3497
0
VERTEX
8
CUT
10
175.5416
20
89.3214
0
VERTEX
8
CUT
10
175.3267
20
89.2700
0
VERTEX
8
CUT
10
175.2273
20
89.2513
0
VERTEX
8
CUT
10
175.0083
20
89.2209
0
VERTEX
8
CUT
10
174.9076
20
89.2119
0
VERTEX
8
CUT
10
174.6868
20
89.2029
0
VERTEX
8
CUT
10
174.5857
20
89.2037
0
VERTEX
8
CUT
10
174.3650
20
89.2161
0
VERTEX
8
CUT
10
174.2644
20
89.2267
0
VERTEX
8
CUT
10
174.0460
20
89.2604
0
VERTEX
8
CUT
10
173.9469
20
89.2807
0
VERTEX
8
CUT
10
173.7328
20
89.3355
0
VERTEX
8
CUT
10
173.6362
20
89.3652
0
VERTEX
8
CUT
10
173.4283
20
89.4404
0
VERTEX
8
CUT
10
173.3350
20
89.4794
0
VERTEX
8
CUT
10
173.1354
20
89.5744
0
VERTEX
8
CUT
10
173.0464
20
89.6222
0
VERTEX
8
CUT
10
172.8569
20
89.7361
0
VERTEX
8
CUT
10
172.7729
20
89.7924
0
VERTEX
8
CUT
10
172.5954
20
89.9241
0
VERTEX
8
CUT
10
172.5172
20
89.9882
0
VERTEX
8
CUT
10
172.3533
20
90.1364
0
VERTEX
8
CUT
10
172.2816
20
90.2078
0
VERTEX
8
CUT
10
172.1328
20
90.3713
0
VERTEX
8
CUT
10
172.1182
20
90.3890
0
VERTEX
8
CUT
10
171.9891
20
90.7261
0
VERTEX
8
CUT
10
171.9609
20
90.7950
0
VERTEX
8
CUT
10
171.8427
20
91.0653
0
VERTEX
8
CUT
10
171.7768
20
91.1988
0
VERTEX
8
CUT
10
171.6915
20
91.3530
0
VERTEX
8
CUT
10
171.6135
20
91.4797
0
VERTEX
8
CUT
10
171.5142
20
91.6253
0
VERTEX
8
CUT
10
171.4402
20
91.7237
0
VERTEX
8
CUT
10
171.4207
20
91.7987
0
VERTEX
8
CUT
10
171.3889
20
91.9519
0
VERTEX
8
CUT
10
171.3690
20
92.0607
0
VERTEX
8
CUT
10
171.3398
20
92.2461
0
VERTEX
8
CUT
10
171.3252
20
92.3250
0
VERTEX
8
CUT
10
171.2590
20
92.6363
0
VERTEX
8
CUT
10
171.2174
20
92.7913
0
VERTEX
8
CUT
10
171.1189
20
93.0938
0
VERTEX
8
CUT
10
171.0920
20
93.1694
0
VERTEX
8
CUT
10
170.9164
20
93.6251
0
VERTEX
8
CUT
10
170.8914
20
93.6852
0
VERTEX
8
CUT
10
171.0896
20
93.1676
0
VERTEX
8
CUT
10
171.0898
20
93.1672
0
VERTEX
8
CUT
10
171.0898
20
93.1671
0
VERTEX
8
CUT
10
171.1178
20
93.0877
0
VERTEX
8
CUT
10
171.2196
20
92.7700
0
VERTEX
8
CUT
10
171.2621
20
92.6070
0
VERTEX
8
CUT
10
171.3282
20
92.2798
0
VERTEX
8
CUT
10
171.3426
20
92.1968
0
VERTEX
8
CUT
10
171.4047
20
91.7685
0
VERTEX
8
CUT
10
171.2665
20
91.9355
0
VERTEX
8
CUT
10
171.1643
20
92.0477
0
VERTEX
8
CUT
10
170.9789
20
92.2327
0
VERTEX
8
CUT
10
170.8642
20
92.3366
0
VERTEX
8
CUT
10
170.7227
20
92.4529
0
VERTEX
8
CUT
10
170.5984
20
92.5453
0
VERTEX
8
CUT
10
170.4463
20
92.6474
0
VERTEX
8
CUT
10
170.3138
20
92.7273
0
VERTEX
8
CUT
10
170.1525
20
92.8142
0
VERTEX
8
CUT
10
170.0128
20
92.8809
0
VERTEX
8
CUT
10
169.8439
20
92.9518
0
VERTEX
8
CUT
10
169.6984
20
93.0048
0
VERTEX
8
CUT
10
169.5234
20
93.0590
0
VERTEX
8
CUT
10
169.3735
20
93.0977
0
VERTEX
8
CUT
10
169.1941
20
93.1347
0
VERTEX
8
CUT
10
169.0412
20
93.1587
0
VERTEX
8
CUT
10
168.8590
20
93.1783
0
VERTEX
8
CUT
10
168.7045
20
93.1874
0
VERTEX
8
CUT
10
168.5213
20
93.1893
0
VERTEX
8
CUT
10
168.3667
20
93.1834
0
VERTEX
8
CUT
10
168.1841
20
93.1676
0
VERTEX
8
CUT
10
168.0308
20
93.1468
0
VERTEX
8
CUT
10
167.8506
20
93.1134
0
VERTEX
8
CUT
10
167.7000
20
93.0779
0
VERTEX
8
CUT
10
167.5239
20
93.0272
0
VERTEX
8
CUT
10
167.3774
20
92.9773
0
VERTEX
8
CUT
10
167.2070
20
92.9099
0
VERTEX
8
CUT
10
167.0660
20
92.8461
0
VERTEX
8
CUT
10
166.9029
20
92.7625
0
VERTEX
8
CUT
10
166.7688
20
92.6853
0
VERTEX
8
CUT
10
166.6146
20
92.5864
0
VERTEX
8
CUT
10
166.4885
20
92.4967
0
VERTEX
8
CUT
10
166.3445
20
92.3833
0
VERTEX
8
CUT
10
166.2277
20
92.2818
0
VERTEX
8
CUT
10
166.0718
20
92.1324
0
VERTEX
8
CUT
10
165.9650
20
92.0197
0
VERTEX
8
CUT
10
165.8227
20
91.8541
0
VERTEX
8
CUT
10
165.7271
20
91.7313
0
VERTEX
8
CUT
10
165.6211
20
91.5805
0
VERTEX
8
CUT
10
165.5379
20
91.4489
0
VERTEX
8
CUT
10
165.3859
20
91.1804
0
VERTEX
8
CUT
10
165.3492
20
91.1117
0
VERTEX
8
CUT
10
165.0544
20
90.5263
0
VERTEX
8
CUT
10
165.0243
20
90.4632
0
VERTEX
8
CUT
10
164.9106
20
90.2105
0
VERTEX
8
CUT
10
164.8588
20
90.0806
0
VERTEX
8
CUT
10
164.8043
20
89.9242
0
VERTEX
8
CUT
10
164.7641
20
89.7904
0
VERTEX
8
CUT
10
164.7235
20
89.6299
0
VERTEX
8
CUT
10
164.6951
20
89.4930
0
VERTEX
8
CUT
10
164.6508
20
89.2195
0
VERTEX
8
CUT
10
164.6411
20
89.1503
0
VERTEX
8
CUT
10
164.4393
20
87.4332
0
VERTEX
8
CUT
10
164.3480
20
87.5428
0
VERTEX
8
CUT
10
164.2607
20
87.6586
0
VERTEX
8
CUT
10
164.1638
20
87.8004
0
VERTEX
8
CUT
10
164.0879
20
87.9240
0
VERTEX
8
CUT
10
164.0050
20
88.0744
0
VERTEX
8
CUT
10
163.9412
20
88.2046
0
VERTEX
8
CUT
10
163.8731
20
88.3622
0
VERTEX
8
CUT
10
163.8219
20
88.4979
0
VERTEX
8
CUT
10
163.7691
20
88.6613
0
VERTEX
8
CUT
10
163.7312
20
88.8013
0
VERTEX
8
CUT
10
163.6942
20
88.9690
0
VERTEX
8
CUT
10
163.6697
20
89.1119
0
VERTEX
8
CUT
10
163.6489
20
89.2824
0
VERTEX
8
CUT
10
163.6382
20
89.4270
0
VERTEX
8
CUT
10
163.6337
20
89.5986
0
VERTEX
8
CUT
10
163.6368
20
89.7437
0
VERTEX
8
CUT
10
163.6567
20
90.0305
0
VERTEX
8
CUT
10
163.6634
20
90.1027
0
VERTEX
8
CUT
10
163.9091
20
92.1928
0
VERTEX
8
CUT
10
163.9183
20
92.2586
0
VERTEX
8
CUT
10
163.9604
20
92.5184
0
VERTEX
8
CUT
10
163.9873
20
92.6484
0
VERTEX
8
CUT
10
164.0259
20
92.8009
0
VERTEX
8
CUT
10
164.0641
20
92.9280
0
VERTEX
8
CUT
10
164.1159
20
93.0765
0
VERTEX
8
CUT
10
164.1651
20
93.1999
0
VERTEX
8
CUT
10
164.2731
20
93.4400
0
VERTEX
8
CUT
10
164.3017
20
93.5000
0
VERTEX
8
CUT
10
164.5818
20
94.0561
0
VERTEX
8
CUT
10
164.6166
20
94.1214
0
VERTEX
8
CUT
10
164.7433
20
94.3450
0
VERTEX
8
CUT
10
164.6830
20
94.2671
0
VERTEX
8
CUT
10
164.5860
20
94.1259
0
VERTEX
8
CUT
10
164.4810
20
93.9528
0
VERTEX
8
CUT
10
164.4005
20
93.8016
0
VERTEX
8
CUT
10
164.2582
20
93.4937
0
VERTEX
8
CUT
10
164.2245
20
93.4149
0
VERTEX
8
CUT
10
164.1952
20
93.3408
0
VERTEX
8
CUT
10
164.1523
20
93.2394
0
VERTEX
8
CUT
10
164.0881
20
93.0974
0
VERTEX
8
CUT
10
163.9877
20
92.9014
0
VERTEX
8
CUT
10
163.9376
20
92.8140
0
VERTEX
8
CUT
10
163.8188
20
92.6286
0
VERTEX
8
CUT
10
163.7605
20
92.5466
0
VERTEX
8
CUT
10
163.6244
20
92.3735
0
VERTEX
8
CUT
10
163.5584
20
92.2974
0
VERTEX
8
CUT
10
163.4063
20
92.1383
0
VERTEX
8
CUT
10
163.3333
20
92.0689
0
VERTEX
8
CUT
10
163.1665
20
91.9252
0
VERTEX
8
CUT
10
163.0871
20
91.8632
0
VERTEX
8
CUT
10
162.9072
20
91.7362
0
VERTEX
8
CUT
10
162.8222
20
91.6822
0
VERTEX
8
CUT
10
162.6310
20
91.5732
0
VERTEX
8
CUT
10
162.5412
20
91.5276
0
VERTEX
8
CUT
10
162.3403
20
91.4375
0
VERTEX
8
CUT
10
162.2465
20
91.4008
0
VERTEX
8
CUT
10
162.0378
20
91.3305
0
VERTEX
8
CUT
10
161.9409
20
91.3031
0
VERTEX
8
CUT
10
161.7265
20
91.2532
0
VERTEX
8
CUT
10
161.6274
20
91.2352
0
VERTEX
8
CUT
10
161.4091
20
91.2063
0
VERTEX
8
CUT
10
161.3088
20
91.1980
0
VERTEX
8
CUT
10
161.0887
20
91.1903
0
VERTEX
8
CUT
10
160.9880
20
91.1916
0
VERTEX
8
CUT
10
160.7683
20
91.2052
0
VERTEX
8
CUT
10
160.6682
20
91.2162
0
VERTEX
8
CUT
10
160.4508
20
91.2509
0
VERTEX
8
CUT
10
160.3522
20
91.2716
0
VERTEX
8
CUT
10
160.1392
20
91.3271
0
VERTEX
8
CUT
10
160.0430
20
91.3572
0
VERTEX
8
CUT
10
159.8363
20
91.4330
0
VERTEX
8
CUT
10
159.7436
20
91.4722
0
VERTEX
8
CUT
10
159.5451
20
91.5676
0
VERTEX
8
CUT
10
159.4566
20
91.6156
0
VERTEX
8
CUT
10
159.2683
20
91.7297
0
VERTEX
8
CUT
10
159.1848
20
91.7860
0
VERTEX
8
CUT
10
159.0084
20
91.9177
0
VERTEX
8
CUT
10
158.9307
20
91.9818
0
VERTEX
8
CUT
10
158.7678
20
92.1299
0
VERTEX
8
CUT
10
158.6966
20
92.2012
0
VERTEX
8
CUT
10
158.5488
20
92.3643
0
VERTEX
8
CUT
10
158.4849
20
92.4421
0
VERTEX
8
CUT
10
158.3535
20
92.6188
0
VERTEX
8
CUT
10
158.2973
20
92.7024
0
VERTEX
8
CUT
10
158.1836
20
92.8909
0
VERTEX
8
CUT
10
158.1096
20
93.0281
0
VERTEX
8
CUT
10
158.0597
20
93.1262
0
VERTEX
8
CUT
10
157.8931
20
93.4743
0
VERTEX
8
CUT
10
157.8640
20
93.5377
0
VERTEX
8
CUT
10
157.8219
20
93.6330
0
VERTEX
8
CUT
10
157.7463
20
93.8281
0
VERTEX
8
CUT
10
157.6706
20
94.0535
0
VERTEX
8
CUT
10
157.6132
20
94.2546
0
VERTEX
8
CUT
10
157.5892
20
94.3560
0
VERTEX
8
CUT
10
157.5742
20
94.4241
0
VERTEX
8
CUT
10
157.2864
20
95.8327
0
VERTEX
8
CUT
10
157.2736
20
95.9009
0
VERTEX
8
CUT
10
157.2509
20
96.0320
0
VERTEX
8
CUT
10
157.2402
20
96.1005
0
VERTEX
8
CUT
10
157.2272
20
96.1918
0
VERTEX
8
CUT
10
157.2185
20
96.2607
0
VERTEX
8
CUT
10
157.2039
20
96.3929
0
VERTEX
8
CUT
10
157.1973
20
96.4619
0
VERTEX
8
CUT
10
156.8331
20
101.0172
0
VERTEX
8
CUT
10
156.8239
20
101.1023
0
VERTEX
8
CUT
10
156.7780
20
101.4380
0
VERTEX
8
CUT
10
156.7453
20
101.6059
0
VERTEX
8
CUT
10
156.6955
20
101.8018
0
VERTEX
8
CUT
10
156.6442
20
101.9649
0
VERTEX
8
CUT
10
156.5245
20
102.2818
0
VERTEX
8
CUT
10
156.4920
20
102.3609
0
VERTEX
8
CUT
10
156.0642
20
103.3254
0
VERTEX
8
CUT
10
156.0500
20
103.3582
0
VERTEX
8
CUT
10
156.0265
20
103.4134
0
VERTEX
8
CUT
10
156.0064
20
103.4624
0
VERTEX
8
CUT
10
156.0034
20
103.4701
0
VERTEX
8
CUT
10
155.9579
20
103.5949
0
VERTEX
8
CUT
10
155.8945
20
103.7860
0
VERTEX
8
CUT
10
155.8528
20
103.9265
0
VERTEX
8
CUT
10
155.8430
20
103.9640
0
VERTEX
8
CUT
10
155.8302
20
104.0154
0
VERTEX
8
CUT
10
155.8238
20
104.0425
0
VERTEX
8
CUT
10
155.8188
20
104.0640
0
VERTEX
8
CUT
10
155.6150
20
104.9623
0
VERTEX
8
CUT
10
155.5937
20
105.0676
0
VERTEX
8
CUT
10
155.5670
20
105.2173
0
VERTEX
8
CUT
10
155.5394
20
105.4304
0
VERTEX
8
CUT
10
155.5314
20
105.5284
0
VERTEX
8
CUT
10
155.5240
20
105.7431
0
VERTEX
8
CUT
10
155.5252
20
105.8414
0
VERTEX
8
CUT
10
155.5380
20
106.0558
0
VERTEX
8
CUT
10
155.5485
20
106.1535
0
VERTEX
8
CUT
10
155.5815
20
106.3658
0
VERTEX
8
CUT
10
155.6099
20
106.5055
0
VERTEX
8
CUT
10
155.6426
20
106.6437
0
VERTEX
8
CUT
10
155.6521
20
106.6788
0
VERTEX
8
CUT
10
155.6614
20
106.7121
0
VERTEX
8
CUT
10
155.7541
20
107.0364
0
VERTEX
8
CUT
10
155.7876
20
107.1795
0
VERTEX
8
CUT
10
155.8191
20
107.3505
0
VERTEX
8
CUT
10
155.8387
20
107.4961
0
VERTEX
8
CUT
10
155.8534
20
107.6693
0
VERTEX
8
CUT
10
155.8589
20
107.8161
0
VERTEX
8
CUT
10
155.8569
20
107.9900
0
VERTEX
8
CUT
10
155.8481
20
108.1367
0
VERTEX
8
CUT
10
155.8293
20
108.3096
0
VERTEX
8
CUT
10
155.8064
20
108.4547
0
VERTEX
8
CUT
10
155.7710
20
108.6249
0
VERTEX
8
CUT
10
155.7342
20
108.7671
0
VERTEX
8
CUT
10
155.6826
20
108.9332
0
VERTEX
8
CUT
10
155.6322
20
109.0712
0
VERTEX
8
CUT
10
155.5648
20
109.2315
0
VERTEX
8
CUT
10
155.5013
20
109.3640
0
VERTEX
8
CUT
10
155.4188
20
109.5170
0
VERTEX
8
CUT
10
155.3428
20
109.6428
0
VERTEX
8
CUT
10
155.2458
20
109.7871
0
VERTEX
8
CUT
10
155.1581
20
109.9049
0
VERTEX
8
CUT
10
155.0477
20
110.0392
0
VERTEX
8
CUT
10
154.9490
20
110.1481
0
VERTEX
8
CUT
10
154.8261
20
110.2711
0
VERTEX
8
CUT
10
154.7173
20
110.3699
0
VERTEX
8
CUT
10
154.5831
20
110.4804
0
VERTEX
8
CUT
10
154.4654
20
110.5683
0
VERTEX
8
CUT
10
154.1321
20
110.7926
0
VERTEX
8
CUT
10
154.1288
20
110.7948
0
VERTEX
8
CUT
10
154.0764
20
110.8299
0
VERTEX
8
CUT
10
153.9573
20
110.9156
0
VERTEX
8
CUT
10
153.8649
20
110.9866
0
VERTEX
8
CUT
10
153.7723
20
111.0618
0
VERTEX
8
CUT
10
153.7421
20
111.0877
0
VERTEX
8
CUT
10
153.7037
20
111.1213
0
VERTEX
8
CUT
10
153.6837
20
111.1393
0
VERTEX
8
CUT
10
153.6679
20
111.1535
0
VERTEX
8
CUT
10
153.3601
20
111.4345
0
VERTEX
8
CUT
10
153.0792
20
111.6909
0
VERTEX
8
CUT
10
153.0559
20
111.7125
0
VERTEX
8
CUT
10
153.0170
20
111.7490
0
VERTEX
8
CUT
10
153.0032
20
111.7623
0
VERTEX
8
CUT
10
152.9884
20
111.7764
0
VERTEX
8
CUT
10
152.9879
20
111.7769
0
VERTEX
8
CUT
10
152.8949
20
111.8735
0
VERTEX
8
CUT
10
152.7486
20
112.0349
0
VERTEX
8
CUT
10
152.6724
20
112.1234
0
VERTEX
8
CUT
10
152.4357
20
112.4129
0
VERTEX
8
CUT
10
152.3331
20
112.5263
0
VERTEX
8
CUT
10
152.2081
20
112.6511
0
VERTEX
8
CUT
10
152.0959
20
112.7526
0
VERTEX
8
CUT
10
151.9572
20
112.8659
0
VERTEX
8
CUT
10
151.8354
20
112.9557
0
VERTEX
8
CUT
10
151.6861
20
113.0547
0
VERTEX
8
CUT
10
151.5559
20
113.1320
0
VERTEX
8
CUT
10
151.3976
20
113.2157
0
VERTEX
8
CUT
10
151.2604
20
113.2796
0
VERTEX
8
CUT
10
151.0945
20
113.3471
0
VERTEX
8
CUT
10
150.9516
20
113.3971
0
VERTEX
8
CUT
10
150.7798
20
113.4477
0
VERTEX
8
CUT
10
150.6327
20
113.4833
0
VERTEX
8
CUT
10
150.4567
20
113.5166
0
VERTEX
8
CUT
10
150.3068
20
113.5373
0
VERTEX
8
CUT
10
150.1284
20
113.5530
0
VERTEX
8
CUT
10
149.9771
20
113.5587
0
VERTEX
8
CUT
10
149.7980
20
113.5565
0
VERTEX
8
CUT
10
149.6470
20
113.5472
0
VERTEX
8
CUT
10
149.4690
20
113.5272
0
VERTEX
8
CUT
10
149.3196
20
113.5029
0
VERTEX
8
CUT
10
149.1444
20
113.4653
0
VERTEX
8
CUT
10
148.9982
20
113.4262
0
VERTEX
8
CUT
10
148.8277
20
113.3714
0
VERTEX
8
CUT
10
148.6861
20
113.3180
0
VERTEX
8
CUT
10
148.5219
20
113.2466
0
VERTEX
8
CUT
10
148.3863
20
113.1793
0
VERTEX
8
CUT
10
148.2299
20
113.0919
0
VERTEX
8
CUT
10
148.1017
20
113.0115
0
VERTEX
8
CUT
10
147.9549
20
112.9089
0
VERTEX
8
CUT
10
147.8353
20
112.8162
0
VERTEX
8
CUT
10
147.6993
20
112.6995
0
VERTEX
8
CUT
10
147.5896
20
112.5954
0
VERTEX
8
CUT
10
147.3808
20
112.3765
0
VERTEX
8
CUT
10
147.3701
20
112.3652
0
VERTEX
8
CUT
10
147.3200
20
112.3115
0
VERTEX
8
CUT
10
147.1434
20
112.1281
0
VERTEX
8
CUT
10
147.0279
20
112.0162
0
VERTEX
8
CUT
10
147.0046
20
111.9952
0
VERTEX
8
CUT
10
146.9630
20
111.9586
0
VERTEX
8
CUT
10
146.9409
20
111.9396
0
VERTEX
8
CUT
10
146.9233
20
111.9246
0
VERTEX
8
CUT
10
145.1731
20
110.4517
0
VERTEX
8
CUT
10
145.1362
20
110.4197
0
VERTEX
8
CUT
10
144.9583
20
110.2599
0
VERTEX
8
CUT
10
144.8878
20
110.1924
0
VERTEX
8
CUT
10
144.7204
20
110.0215
0
VERTEX
8
CUT
10
144.6868
20
109.9861
0
VERTEX
8
CUT
10
144.3131
20
109.5790
0
VERTEX
8
CUT
10
144.2661
20
109.5254
0
VERTEX
8
CUT
10
144.0850
20
109.3086
0
VERTEX
8
CUT
10
143.9989
20
109.1951
0
VERTEX
8
CUT
10
143.9034
20
109.0561
0
VERTEX
8
CUT
10
143.8283
20
108.9350
0
VERTEX
8
CUT
10
143.7462
20
108.7876
0
VERTEX
8
CUT
10
143.6827
20
108.6601
0
VERTEX
8
CUT
10
143.6148
20
108.5057
0
VERTEX
8
CUT
10
143.5636
20
108.3727
0
VERTEX
8
CUT
10
143.5231
20
108.2510
0
VERTEX
8
CUT
10
143.5129
20
108.2268
0
VERTEX
8
CUT
10
143.4502
20
108.0549
0
VERTEX
8
CUT
10
143.4047
20
107.9070
0
VERTEX
8
CUT
10
143.3598
20
107.7296
0
VERTEX
8
CUT
10
143.3295
20
107.5779
0
VERTEX
8
CUT
10
143.2849
20
107.2746
0
VERTEX
8
CUT
10
143.2756
20
107.1978
0
VERTEX
8
CUT
10
143.2022
20
106.4281
0
VERTEX
8
CUT
10
143.1986
20
106.3827
0
VERTEX
8
CUT
10
143.1840
20
106.1595
0
VERTEX
8
CUT
10
143.1808
20
106.0684
0
VERTEX
8
CUT
10
143.1797
20
105.8448
0
VERTEX
8
CUT
10
143.1801
20
105.7992
0
VERTEX
8
CUT
10
143.2203
20
104.1878
0
VERTEX
8
CUT
10
143.2201
20
104.1518
0
VERTEX
8
CUT
10
143.1016
20
97.1909
0
VERTEX
8
CUT
10
143.0969
20
97.0790
0
VERTEX
8
CUT
10
143.0864
20
96.9207
0
VERTEX
8
CUT
10
143.0606
20
96.6980
0
VERTEX
8
CUT
10
143.0438
20
96.5969
0
VERTEX
8
CUT
10
142.9963
20
96.3778
0
VERTEX
8
CUT
10
142.9697
20
96.2788
0
VERTEX
8
CUT
10
142.9008
20
96.0655
0
VERTEX
8
CUT
10
142.8646
20
95.9696
0
VERTEX
8
CUT
10
142.7752
20
95.7641
0
VERTEX
8
CUT
10
142.7297
20
95.6722
0
VERTEX
8
CUT
10
142.6205
20
95.4765
0
VERTEX
8
CUT
10
142.5662
20
95.3895
0
VERTEX
8
CUT
10
142.4383
20
95.2054
0
VERTEX
8
CUT
10
142.3757
20
95.1242
0
VERTEX
8
CUT
10
142.2304
20
94.9536
0
VERTEX
8
CUT
10
142.1602
20
94.8789
0
VERTEX
8
CUT
10
141.9988
20
94.7233
0
VERTEX
8
CUT
10
141.9215
20
94.6559
0
VERTEX
8
CUT
10
141.7456
20
94.5170
0
VERTEX
8
CUT
10
141.6621
20
94.4575
0
VERTEX
8
CUT
10
141.4735
20
94.3365
0
VERTEX
8
CUT
10
141.3845
20
94.2855
0
VERTEX
8
CUT
10
141.1849
20
94.1836
0
VERTEX
8
CUT
10
141.0914
20
94.1416
0
VERTEX
8
CUT
10
140.8827
20
94.0598
0
VERTEX
8
CUT
10
140.7855
20
94.0271
0
VERTEX
8
CUT
10
140.5698
20
93.9663
0
VERTEX
8
CUT
10
140.4699
20
93.9433
0
VERTEX
8
CUT
10
140.2492
20
93.9039
0
VERTEX
8
CUT
10
140.1475
20
93.8909
0
VERTEX
8
CUT
10
139.9241
20
93.8733
0
VERTEX
8
CUT
10
139.8216
20
93.8704
0
VERTEX
8
CUT
10
139.5975
20
93.8749
0
VERTEX
8
CUT
10
139.4952
20
93.8820
0
VERTEX
8
CUT
10
139.2726
20
93.9084
0
VERTEX
8
CUT
10
139.1715
20
93.9255
0
VERTEX
8
CUT
10
138.9526
20
93.9738
0
VERTEX
8
CUT
10
138.8537
20
94.0007
0
VERTEX
8
CUT
10
138.7142
20
94.0462
0
VERTEX
8
CUT
10
138.7218
20
94.0104
0
VERTEX
8
CUT
10
138.5950
20
94.0543
0
VERTEX
8
CUT
10
138.5010
20
94.0921
0
VERTEX
8
CUT
10
138.2996
20
94.1845
0
VERTEX
8
CUT
10
138.2097
20
94.2312
0
VERTEX
8
CUT
10
138.0183
20
94.3427
0
VERTEX
8
CUT
10
137.9333
20
94.3979
0
VERTEX
8
CUT
10
137.7536
20
94.5275
0
VERTEX
8
CUT
10
137.6744
20
94.5907
0
VERTEX
8
CUT
10
137.5081
20
94.7371
0
VERTEX
8
CUT
10
137.3956
20
94.8464
0
VERTEX
8
CUT
10
137.3180
20
94.9255
0
VERTEX
8
CUT
10
137.0863
20
95.1735
0
VERTEX
8
CUT
10
137.0390
20
95.2218
0
VERTEX
8
CUT
10
136.9932
20
95.2666
0
VERTEX
8
CUT
10
136.9424
20
95.3142
0
VERTEX
8
CUT
10
136.7365
20
95.4980
0
VERTEX
8
CUT
10
136.6286
20
95.5859
0
VERTEX
8
CUT
10
136.4961
20
95.6840
0
VERTEX
8
CUT
10
136.3805
20
95.7616
0
VERTEX
8
CUT
10
136.1447
20
95.9048
0
VERTEX
8
CUT
10
136.0844
20
95.9396
0
VERTEX
8
CUT
10
135.7822
20
96.1046
0
VERTEX
8
CUT
10
135.8452
20
96.0683
0
VERTEX
8
CUT
10
136.0910
20
95.9183
0
VERTEX
8
CUT
10
136.2113
20
95.8368
0
VERTEX
8
CUT
10
136.3489
20
95.7336
0
VERTEX
8
CUT
10
136.4609
20
95.6410
0
VERTEX
8
CUT
10
136.5880
20
95.5251
0
VERTEX
8
CUT
10
136.6906
20
95.4222
0
VERTEX
8
CUT
10
136.8061
20
95.2947
0
VERTEX
8
CUT
10
136.8984
20
95.1825
0
VERTEX
8
CUT
10
137.0012
20
95.0446
0
VERTEX
8
CUT
10
137.0824
20
94.9241
0
VERTEX
8
CUT
10
137.1716
20
94.7770
0
VERTEX
8
CUT
10
137.2409
20
94.6492
0
VERTEX
8
CUT
10
137.3156
20
94.4943
0
VERTEX
8
CUT
10
137.3724
20
94.3605
0
VERTEX
8
CUT
10
137.4319
20
94.1992
0
VERTEX
8
CUT
10
137.4757
20
94.0606
0
VERTEX
8
CUT
10
137.5196
20
93.8943
0
VERTEX
8
CUT
10
137.5499
20
93.7522
0
VERTEX
8
CUT
10
137.5777
20
93.5824
0
VERTEX
8
CUT
10
137.5943
20
93.4380
0
VERTEX
8
CUT
10
137.6058
20
93.2664
0
VERTEX
8
CUT
10
137.6085
20
93.1211
0
VERTEX
8
CUT
10
137.6036
20
92.9492
0
VERTEX
8
CUT
10
137.5924
20
92.8043
0
VERTEX
8
CUT
10
137.5566
20
92.5184
0
VERTEX
8
CUT
10
137.5459
20
92.4466
0
VERTEX
8
CUT
10
137.4527
20
91.9116
0
VERTEX
8
CUT
10
137.4400
20
91.8467
0
VERTEX
8
CUT
10
137.3838
20
91.5904
0
VERTEX
8
CUT
10
137.3498
20
91.4624
0
VERTEX
8
CUT
10
137.2715
20
91.2119
0
VERTEX
8
CUT
10
137.2503
20
91.1492
0
VERTEX
8
CUT
10
136.9508
20
90.3199
0
VERTEX
8
CUT
10
136.9414
20
90.4611
0
VERTEX
8
CUT
10
136.9239
20
90.6130
0
VERTEX
8
CUT
10
136.8946
20
90.7917
0
VERTEX
8
CUT
10
136.8627
20
90.9413
0
VERTEX
8
CUT
10
136.8165
20
91.1164
0
VERTEX
8
CUT
10
136.7705
20
91.2623
0
VERTEX
8
CUT
10
136.7077
20
91.4321
0
VERTEX
8
CUT
10
136.6480
20
91.5729
0
VERTEX
8
CUT
10
136.5693
20
91.7360
0
VERTEX
8
CUT
10
136.4964
20
91.8705
0
VERTEX
8
CUT
10
136.4025
20
92.0253
0
VERTEX
8
CUT
10
136.3171
20
92.1522
0
VERTEX
8
CUT
10
136.2089
20
92.2974
0
VERTEX
8
CUT
10
136.1117
20
92.4155
0
VERTEX
8
CUT
10
135.9901
20
92.5497
0
VERTEX
8
CUT
10
135.8821
20
92.6580
0
VERTEX
8
CUT
10
135.7483
20
92.7800
0
VERTEX
8
CUT
10
135.6304
20
92.8775
0
VERTEX
8
CUT
10
135.4856
20
92.9861
0
VERTEX
8
CUT
10
135.3589
20
93.0719
0
VERTEX
8
CUT
10
135.1002
20
93.2298
0
VERTEX
8
CUT
10
135.0339
20
93.2680
0
VERTEX
8
CUT
10
134.2670
20
93.6869
0
VERTEX
8
CUT
10
134.2124
20
93.7154
0
VERTEX
8
CUT
10
133.9934
20
93.8243
0
VERTEX
8
CUT
10
133.8809
20
93.8749
0
VERTEX
8
CUT
10
133.6543
20
93.9665
0
VERTEX
8
CUT
10
133.5967
20
93.9886
0
VERTEX
8
CUT
10
133.4508
20
94.0411
0
VERTEX
8
CUT
10
133.3778
20
94.0655
0
VERTEX
8
CUT
10
133.0863
20
94.1549
0
VERTEX
8
CUT
10
132.9372
20
94.1929
0
VERTEX
8
CUT
10
132.7589
20
94.2293
0
VERTEX
8
CUT
10
132.6069
20
94.2528
0
VERTEX
8
CUT
10
132.4258
20
94.2720
0
VERTEX
8
CUT
10
132.2722
20
94.2808
0
VERTEX
8
CUT
10
132.0902
20
94.2824
0
VERTEX
8
CUT
10
131.9365
20
94.2764
0
VERTEX
8
CUT
10
131.7551
20
94.2606
0
VERTEX
8
CUT
10
131.6027
20
94.2399
0
VERTEX
8
CUT
10
131.4237
20
94.2067
0
VERTEX
8
CUT
10
131.2740
20
94.1715
0
VERTEX
8
CUT
10
131.0990
20
94.1213
0
VERTEX
8
CUT
10
130.9533
20
94.0718
0
VERTEX
8
CUT
10
130.7839
20
94.0051
0
VERTEX
8
CUT
10
130.6437
20
93.9419
0
VERTEX
8
CUT
10
130.4815
20
93.8591
0
VERTEX
8
CUT
10
130.3480
20
93.7827
0
VERTEX
8
CUT
10
130.1945
20
93.6848
0
VERTEX
8
CUT
10
130.0690
20
93.5960
0
VERTEX
8
CUT
10
129.9256
20
93.4838
0
VERTEX
8
CUT
10
129.8092
20
93.3833
0
VERTEX
8
CUT
10
129.6772
20
93.2578
0
VERTEX
8
CUT
10
129.5710
20
93.1466
0
VERTEX
8
CUT
10
129.4517
20
93.0091
0
VERTEX
8
CUT
10
129.3566
20
92.8882
0
VERTEX
8
CUT
10
129.1799
20
92.6398
0
VERTEX
8
CUT
10
129.1369
20
92.5761
0
VERTEX
8
CUT
10
128.2212
20
91.1484
0
VERTEX
8
CUT
10
128.1830
20
91.0857
0
VERTEX
8
CUT
10
128.0372
20
90.8338
0
VERTEX
8
CUT
10
127.9696
20
90.7034
0
VERTEX
8
CUT
10
127.9306
20
90.6188
0
VERTEX
8
CUT
10
127.9206
20
90.6242
0
VERTEX
8
CUT
10
127.8245
20
90.6890
0
VERTEX
8
CUT
10
127.7351
20
90.7628
0
VERTEX
8
CUT
10
127.6533
20
90.8449
0
VERTEX
8
CUT
10
127.5798
20
90.9344
0
VERTEX
8
CUT
10
127.5152
20
91.0307
0
VERTEX
8
CUT
10
127.4603
20
91.1327
0
VERTEX
8
CUT
10
127.4154
20
91.2396
0
VERTEX
8
CUT
10
127.3811
20
91.3503
0
VERTEX
8
CUT
10
127.3575
20
91.4637
0
VERTEX
8
CUT
10
127.3451
20
91.5790
0
VERTEX
8
CUT
10
127.3438
20
91.6948
0
VERTEX
8
CUT
10
127.3537
20
91.8103
0
VERTEX
8
CUT
10
127.4139
20
92.2569
0
VERTEX
8
CUT
10
127.4173
20
92.2808
0
VERTEX
8
CUT
10
127.4267
20
92.3412
0
VERTEX
8
CUT
10
127.4306
20
92.3651
0
VERTEX
8
CUT
10
127.4727
20
92.6040
0
VERTEX
8
CUT
10
127.4820
20
92.6514
0
VERTEX
8
CUT
10
127.5080
20
92.7710
0
VERTEX
8
CUT
10
127.5193
20
92.8180
0
VERTEX
8
CUT
10
127.5804
20
93.0528
0
VERTEX
8
CUT
10
127.5867
20
93.0761
0
VERTEX
8
CUT
10
127.6033
20
93.1350
0
VERTEX
8
CUT
10
127.6101
20
93.1582
0
VERTEX
8
CUT
10
127.6869
20
93.4111
0
VERTEX
8
CUT
10
127.6952
20
93.4374
0
VERTEX
8
CUT
10
127.7170
20
93.5036
0
VERTEX
8
CUT
10
127.7259
20
93.5297
0
VERTEX
8
CUT
10
127.8183
20
93.7902
0
VERTEX
8
CUT
10
127.8379
20
93.8417
0
VERTEX
8
CUT
10
127.8905
20
93.9708
0
VERTEX
8
CUT
10
127.9124
20
94.0213
0
VERTEX
8
CUT
10
127.9817
20
94.1713
0
VERTEX
8
CUT
10
128.0059
20
94.2207
0
VERTEX
8
CUT
10
128.0701
20
94.3446
0
VERTEX
8
CUT
10
128.0966
20
94.3929
0
VERTEX
8
CUT
10
128.2351
20
94.6322
0
VERTEX
8
CUT
10
128.2491
20
94.6559
0
VERTEX
8
CUT
10
128.2854
20
94.7155
0
VERTEX
8
CUT
10
128.3000
20
94.7388
0
VERTEX
8
CUT
10
129.1699
20
96.0952
0
VERTEX
8
CUT
10
129.1858
20
96.1192
0
VERTEX
8
CUT
10
129.2267
20
96.1798
0
VERTEX
8
CUT
10
129.2431
20
96.2035
0
VERTEX
8
CUT
10
129.4110
20
96.4394
0
VERTEX
8
CUT
10
129.4455
20
96.4856
0
VERTEX
8
CUT
10
129.5359
20
96.6005
0
VERTEX
8
CUT
10
129.5726
20
96.6449
0
VERTEX
8
CUT
10
129.6859
20
96.7756
0
VERTEX
8
CUT
10
129.7248
20
96.8183
0
VERTEX
8
CUT
10
129.8257
20
96.9239
0
VERTEX
8
CUT
10
129.8665
20
96.9646
0
VERTEX
8
CUT
10
129.9919
20
97.0838
0
VERTEX
8
CUT
10
130.0347
20
97.1226
0
VERTEX
8
CUT
10
130.1453
20
97.2180
0
VERTEX
8
CUT
10
130.1898
20
97.2547
0
VERTEX
8
CUT
10
130.3261
20
97.3612
0
VERTEX
8
CUT
10
130.3723
20
97.3957
0
VERTEX
8
CUT
10
130.4916
20
97.4801
0
VERTEX
8
CUT
10
130.5395
20
97.5123
0
VERTEX
8
CUT
10
130.6853
20
97.6053
0
VERTEX
8
CUT
10
130.7347
20
97.6352
0
VERTEX
8
CUT
10
130.8615
20
97.7077
0
VERTEX
8
CUT
10
130.9122
20
97.7352
0
VERTEX
8
CUT
10
131.0663
20
97.8138
0
VERTEX
8
CUT
10
131.1183
20
97.8387
0
VERTEX
8
CUT
10
131.2515
20
97.8988
0
VERTEX
8
CUT
10
131.3047
20
97.9212
0
VERTEX
8
CUT
10
131.3202
20
97.9273
0
VERTEX
8
CUT
10
131.3314
20
97.9317
0
VERTEX
8
CUT
10
131.2775
20
97.9770
0
VERTEX
8
CUT
10
131.1131
20
98.1298
0
VERTEX
8
CUT
10
131.0414
20
98.2033
0
VERTEX
8
CUT
10
130.8927
20
98.3715
0
VERTEX
8
CUT
10
130.8286
20
98.4517
0
VERTEX
8
CUT
10
130.6972
20
98.6337
0
VERTEX
8
CUT
10
130.6413
20
98.7198
0
VERTEX
8
CUT
10
130.5284
20
98.9139
0
VERTEX
8
CUT
10
130.4812
20
99.0051
0
VERTEX
8
CUT
10
130.3880
20
99.2093
0
VERTEX
8
CUT
10
130.3500
20
99.3047
0
VERTEX
8
CUT
10
130.2773
20
99.5171
0
VERTEX
8
CUT
10
130.2489
20
99.6158
0
VERTEX
8
CUT
10
130.1975
20
99.8343
0
VERTEX
8
CUT
10
130.1789
20
99.9353
0
VERTEX
8
CUT
10
130.1492
20
100.1578
0
VERTEX
8
CUT
10
130.1407
20
100.2601
0
VERTEX
8
CUT
10
130.1330
20
100.4845
0
VERTEX
8
CUT
10
130.1346
20
100.5871
0
VERTEX
8
CUT
10
130.1490
20
100.8112
0
VERTEX
8
CUT
10
130.1607
20
100.9132
0
VERTEX
8
CUT
10
130.1971
20
101.1347
0
VERTEX
8
CUT
10
130.2187
20
101.2351
0
VERTEX
8
CUT
10
130.2767
20
101.4519
0
VERTEX
8
CUT
10
130.3081
20
101.5497
0
VERTEX
8
CUT
10
130.3872
20
101.7598
0
VERTEX
8
CUT
10
130.4280
20
101.8540
0
VERTEX
8
CUT
10
130.5274
20
102.0553
0
VERTEX
8
CUT
10
130.5773
20
102.1450
0
VERTEX
8
CUT
10
130.6960
20
102.3356
0
VERTEX
8
CUT
10
130.7545
20
102.4200
0
VERTEX
8
CUT
10
130.8913
20
102.5979
0
VERTEX
8
CUT
10
130.9943
20
102.7190
0
VERTEX
8
CUT
10
131.0691
20
102.8027
0
VERTEX
8
CUT
10
131.1643
20
102.9041
0
VERTEX
8
CUT
10
131.1969
20
102.9400
0
VERTEX
8
CUT
10
131.8505
20
103.6820
0
VERTEX
8
CUT
10
131.8914
20
103.7304
0
VERTEX
8
CUT
10
132.0495
20
103.9257
0
VERTEX
8
CUT
10
132.1251
20
104.0275
0
VERTEX
8
CUT
10
132.2095
20
104.1517
0
VERTEX
8
CUT
10
132.2763
20
104.2594
0
VERTEX
8
CUT
10
132.3998
20
104.4782
0
VERTEX
8
CUT
10
132.4298
20
104.5341
0
VERTEX
8
CUT
10
132.4313
20
104.5371
0
VERTEX
8
CUT
10
132.9128
20
105.4806
0
VERTEX
8
CUT
10
132.9426
20
105.5423
0
VERTEX
8
CUT
10
133.0549
20
105.7893
0
VERTEX
8
CUT
10
133.1059
20
105.9163
0
VERTEX
8
CUT
10
133.1595
20
106.0693
0
VERTEX
8
CUT
10
133.1989
20
106.2004
0
VERTEX
8
CUT
10
133.2651
20
106.4635
0
VERTEX
8
CUT
10
133.2803
20
106.5302
0
VERTEX
8
CUT
10
133.3516
20
106.8788
0
VERTEX
8
CUT
10
133.3664
20
106.9630
0
VERTEX
8
CUT
10
133.4154
20
107.2980
0
VERTEX
8
CUT
10
133.4306
20
107.4682
0
VERTEX
8
CUT
10
133.4418
20
107.8064
0
VERTEX
8
CUT
10
133.4422
20
107.8919
0
VERTEX
8
CUT
10
133.4351
20
108.1984
0
VERTEX
8
CUT
10
133.4306
20
108.2853
0
VERTEX
8
CUT
10
133.4029
20
108.6286
0
VERTEX
8
CUT
10
133.3790
20
108.8008
0
VERTEX
8
CUT
10
133.3123
20
109.1386
0
VERTEX
8
CUT
10
133.2931
20
109.2234
0
VERTEX
8
CUT
10
133.1901
20
109.6233
0
VERTEX
8
CUT
10
133.1694
20
109.6960
0
VERTEX
8
CUT
10
133.0803
20
109.9822
0
VERTEX
8
CUT
10
133.0282
20
110.1242
0
VERTEX
8
CUT
10
132.9111
20
110.4000
0
VERTEX
8
CUT
10
132.8798
20
110.4688
0
VERTEX
8
CUT
10
132.2262
20
111.8178
0
VERTEX
8
CUT
10
132.1891
20
111.8895
0
VERTEX
8
CUT
10
132.0345
20
112.1697
0
VERTEX
8
CUT
10
131.9491
20
112.3067
0
VERTEX
8
CUT
10
131.7657
20
112.5688
0
VERTEX
8
CUT
10
131.7177
20
112.6337
0
VERTEX
8
CUT
10
131.3380
20
113.1192
0
VERTEX
8
CUT
10
131.2938
20
113.1730
0
VERTEX
8
CUT
10
131.1139
20
113.3825
0
VERTEX
8
CUT
10
131.0185
20
113.4839
0
VERTEX
8
CUT
10
130.8202
20
113.6760
0
VERTEX
8
CUT
10
130.7691
20
113.7233
0
VERTEX
8
CUT
10
130.2558
20
114.1770
0
VERTEX
8
CUT
10
130.1967
20
114.2266
0
VERTEX
8
CUT
10
129.9579
20
114.4170
0
VERTEX
8
CUT
10
129.8326
20
114.5068
0
VERTEX
8
CUT
10
129.6514
20
114.6234
0
VERTEX
8
CUT
10
129.5519
20
114.7053
0
VERTEX
8
CUT
10
129.4965
20
114.7488
0
VERTEX
8
CUT
10
129.2730
20
114.9160
0
VERTEX
8
CUT
10
129.1565
20
114.9950
0
VERTEX
8
CUT
10
128.9186
20
115.1407
0
VERTEX
8
CUT
10
128.8577
20
115.1761
0
VERTEX
8
CUT
10
127.9743
20
115.6625
0
VERTEX
8
CUT
10
127.9217
20
115.6902
0
VERTEX
8
CUT
10
127.7109
20
115.7957
0
VERTEX
8
CUT
10
127.6027
20
115.8447
0
VERTEX
8
CUT
10
127.3843
20
115.9334
0
VERTEX
8
CUT
10
127.3289
20
115.9547
0
VERTEX
8
CUT
10
127.1852
20
116.0067
0
VERTEX
8
CUT
10
127.1024
20
116.0405
0
VERTEX
8
CUT
10
126.9763
20
116.0858
0
VERTEX
8
CUT
10
126.9061
20
116.1075
0
VERTEX
8
CUT
10
126.3129
20
116.3220
0
VERTEX
8
CUT
10
126.2292
20
116.3495
0
VERTEX
8
CUT
10
125.8947
20
116.4489
0
VERTEX
8
CUT
10
125.7232
20
116.4892
0
VERTEX
8
CUT
10
125.3796
20
116.5493
0
VERTEX
8
CUT
10
125.2925
20
116.5619
0
VERTEX
8
CUT
10
125.0831
20
116.5861
0
VERTEX
8
CUT
10
124.9115
20
116.6217
0
VERTEX
8
CUT
10
124.7555
20
116.6456
0
VERTEX
8
CUT
10
124.4444
20
116.6770
0
VERTEX
8
CUT
10
124.3657
20
116.6829
0
VERTEX
8
CUT
10
124.1576
20
116.6930
0
VERTEX
8
CUT
10
123.8308
20
116.7308
0
VERTEX
8
CUT
10
123.7803
20
116.7357
0
VERTEX
8
CUT
10
123.5327
20
116.7560
0
VERTEX
8
CUT
10
123.4315
20
116.7609
0
VERTEX
8
CUT
10
123.1831
20
116.7646
0
VERTEX
8
CUT
10
123.1325
20
116.7645
0
VERTEX
8
CUT
10
122.8088
20
116.7586
0
VERTEX
8
CUT
10
122.3870
20
116.7791
0
VERTEX
8
CUT
10
122.3269
20
116.7808
0
VERTEX
8
CUT
10
122.0887
20
116.7830
0
VERTEX
8
CUT
10
121.9687
20
116.7793
0
VERTEX
8
CUT
10
121.7311
20
116.7627
0
VERTEX
8
CUT
10
121.6713
20
116.7573
0
VERTEX
8
CUT
10
121.4572
20
116.7337
0
VERTEX
8
CUT
10
120.9432
20
116.7243
0
VERTEX
8
CUT
10
120.8793
20
116.7218
0
VERTEX
8
CUT
10
120.6261
20
116.7064
0
VERTEX
8
CUT
10
120.4988
20
116.6933
0
VERTEX
8
CUT
10
120.2478
20
116.6568
0
VERTEX
8
CUT
10
120.1847
20
116.6462
0
VERTEX
8
CUT
10
119.3969
20
116.4974
0
VERTEX
8
CUT
10
119.3944
20
116.4970
0
VERTEX
8
CUT
10
119.2906
20
116.4782
0
VERTEX
8
CUT
10
119.2566
20
116.4709
0
VERTEX
8
CUT
10
119.1876
20
116.4578
0
VERTEX
8
CUT
10
119.1392
20
116.4478
0
VERTEX
8
CUT
10
118.9027
20
116.3951
0
VERTEX
8
CUT
10
118.8070
20
116.3705
0
VERTEX
8
CUT
10
118.6845
20
116.3347
0
VERTEX
8
CUT
10
118.4170
20
116.2669
0
VERTEX
8
CUT
10
118.3598
20
116.2512
0
VERTEX
8
CUT
10
118.1343
20
116.1845
0
VERTEX
8
CUT
10
118.0219
20
116.1465
0
VERTEX
8
CUT
10
117.8023
20
116.0625
0
VERTEX
8
CUT
10
117.7474
20
116.0402
0
VERTEX
8
CUT
10
117.6675
20
116.0060
0
VERTEX
8
CUT
10
117.5450
20
115.9659
0
VERTEX
8
CUT
10
117.4923
20
115.9475
0
VERTEX
8
CUT
10
117.2356
20
115.8528
0
VERTEX
8
CUT
10
117.1324
20
115.8103
0
VERTEX
8
CUT
10
116.8834
20
115.6970
0
VERTEX
8
CUT
10
116.8331
20
115.6730
0
VERTEX
8
CUT
10
116.4985
20
115.5057
0
VERTEX
8
CUT
10
115.9176
20
115.2570
0
VERTEX
8
CUT
10
115.8599
20
115.2309
0
VERTEX
8
CUT
10
115.6334
20
115.1225
0
VERTEX
8
CUT
10
115.5215
20
115.0632
0
VERTEX
8
CUT
10
115.3048
20
114.9364
0
VERTEX
8
CUT
10
115.2508
20
114.9032
0
VERTEX
8
CUT
10
115.0992
20
114.8058
0
VERTEX
8
CUT
10
115.0045
20
114.7585
0
VERTEX
8
CUT
10
114.9602
20
114.7354
0
VERTEX
8
CUT
10
114.7445
20
114.6185
0
VERTEX
8
CUT
10
114.6581
20
114.5679
0
VERTEX
8
CUT
10
114.4507
20
114.4371
0
VERTEX
8
CUT
10
114.4088
20
114.4097
0
VERTEX
8
CUT
10
113.6561
20
113.8998
0
VERTEX
8
CUT
10
113.5922
20
113.8541
0
VERTEX
8
CUT
10
113.4366
20
113.7365
0
VERTEX
8
CUT
10
113.4152
20
113.7221
0
VERTEX
8
CUT
10
113.2036
20
113.5729
0
VERTEX
8
CUT
10
113.1002
20
113.4931
0
VERTEX
8
CUT
10
112.9022
20
113.3263
0
VERTEX
8
CUT
10
112.8532
20
113.2832
0
VERTEX
8
CUT
10
112.1357
20
112.6241
0
VERTEX
8
CUT
10
112.0980
20
112.5883
0
VERTEX
8
CUT
10
111.9164
20
112.4096
0
VERTEX
8
CUT
10
111.8448
20
112.3342
0
VERTEX
8
CUT
10
111.6758
20
112.1435
0
VERTEX
8
CUT
10
111.6420
20
112.1040
0
VERTEX
8
CUT
10
110.9743
20
111.2966
0
VERTEX
8
CUT
10
110.9411
20
111.2549
0
VERTEX
8
CUT
10
110.7815
20
111.0475
0
VERTEX
8
CUT
10
110.7194
20
110.9607
0
VERTEX
8
CUT
10
110.5749
20
110.7427
0
VERTEX
8
CUT
10
110.5462
20
110.6977
0
VERTEX
8
CUT
10
109.8785
20
109.6099
0
VERTEX
8
CUT
10
109.8468
20
109.5557
0
VERTEX
8
CUT
10
109.7253
20
109.3381
0
VERTEX
8
CUT
10
109.6687
20
109.2259
0
VERTEX
8
CUT
10
109.5656
20
108.9991
0
VERTEX
8
CUT
10
109.5408
20
108.9414
0
VERTEX
8
CUT
10
109.3915
20
108.5729
0
VERTEX
8
CUT
10
109.2477
20
108.3216
0
VERTEX
8
CUT
10
109.2221
20
108.2751
0
VERTEX
8
CUT
10
109.1009
20
108.0451
0
VERTEX
8
CUT
10
109.0548
20
107.9496
0
VERTEX
8
CUT
10
108.9499
20
107.7117
0
VERTEX
8
CUT
10
108.9294
20
107.6628
0
VERTEX
8
CUT
10
108.3912
20
106.3163
0
VERTEX
8
CUT
10
108.3768
20
106.2788
0
VERTEX
8
CUT
10
108.3087
20
106.0944
0
VERTEX
8
CUT
10
108.2829
20
106.0185
0
VERTEX
8
CUT
10
108.2246
20
105.8308
0
VERTEX
8
CUT
10
108.2132
20
105.7923
0
VERTEX
8
CUT
10
108.0588
20
105.2444
0
VERTEX
8
CUT
10
108.0487
20
105.2133
0
VERTEX
8
CUT
10
107.9767
20
104.9630
0
VERTEX
8
CUT
10
107.9629
20
104.9117
0
VERTEX
8
CUT
10
107.9456
20
104.8426
0
VERTEX
8
CUT
10
107.5281
20
103.3614
0
VERTEX
8
CUT
10
107.5165
20
103.3175
0
VERTEX
8
CUT
10
107.4625
20
103.1016
0
VERTEX
8
CUT
10
107.4431
20
103.0128
0
VERTEX
8
CUT
10
107.4022
20
102.7940
0
VERTEX
8
CUT
10
107.3945
20
102.7493
0
VERTEX
8
CUT
10
107.0326
20
100.4363
0
VERTEX
8
CUT
10
107.0246
20
100.3779
0
VERTEX
8
CUT
10
106.9975
20
100.1459
0
VERTEX
8
CUT
10
106.9883
20
100.0284
0
VERTEX
8
CUT
10
106.9793
20
99.7949
0
VERTEX
8
CUT
10
106.9781
20
99.7360
0
VERTEX
8
CUT
10
106.9780
20
99.2366
0
VERTEX
8
CUT
10
106.8616
20
98.3583
0
VERTEX
8
CUT
10
106.8554
20
98.3039
0
VERTEX
8
CUT
10
106.8297
20
98.0366
0
VERTEX
8
CUT
10
106.8231
20
97.9273
0
VERTEX
8
CUT
10
106.8168
20
97.6589
0
VERTEX
8
CUT
10
106.8165
20
97.6042
0
VERTEX
8
CUT
10
106.8602
20
94.0591
0
VERTEX
8
CUT
10
106.8618
20
94.0060
0
VERTEX
8
CUT
10
106.8741
20
93.7462
0
VERTEX
8
CUT
10
106.8828
20
93.6404
0
VERTEX
8
CUT
10
106.9132
20
93.3820
0
VERTEX
8
CUT
10
106.9203
20
93.3294
0
VERTEX
8
CUT
10
106.9798
20
92.9415
0
VERTEX
8
CUT
10
106.9941
20
92.6542
0
VERTEX
8
CUT
10
107.0091
20
92.5036
0
VERTEX
8
CUT
10
107.0357
20
92.3265
0
VERTEX
8
CUT
10
107.0656
20
92.1782
0
VERTEX
8
CUT
10
107.1097
20
92.0046
0
VERTEX
8
CUT
10
107.1368
20
91.9168
0
VERTEX
8
CUT
10
107.4467
20
89.8941
0
VERTEX
8
CUT
10
107.4554
20
89.8435
0
VERTEX
8
CUT
10
107.5018
20
89.5962
0
VERTEX
8
CUT
10
107.5242
20
89.4960
0
VERTEX
8
CUT
10
107.5873
20
89.2524
0
VERTEX
8
CUT
10
107.6010
20
89.2030
0
VERTEX
8
CUT
10
108.5967
20
85.8312
0
VERTEX
8
CUT
10
108.6132
20
85.7790
0
VERTEX
8
CUT
10
108.6984
20
85.5245
0
VERTEX
8
CUT
10
108.7369
20
85.4219
0
VERTEX
8
CUT
10
108.8403
20
85.1742
0
VERTEX
8
CUT
10
108.8623
20
85.1241
0
VERTEX
8
CUT
10
111.5314
20
79.3244
0
VERTEX
8
CUT
10
111.5772
20
79.2178
0
VERTEX
8
CUT
10
111.6381
20
79.0654
0
VERTEX
8
CUT
10
111.7132
20
78.8459
0
VERTEX
8
CUT
10
111.7424
20
78.7439
0
VERTEX
8
CUT
10
111.7947
20
78.5180
0
VERTEX
8
CUT
10
111.8134
20
78.4135
0
VERTEX
8
CUT
10
111.8425
20
78.1834
0
VERTEX
8
CUT
10
111.8505
20
78.0776
0
VERTEX
8
CUT
10
111.8561
20
77.8457
0
VERTEX
8
CUT
10
111.8532
20
77.7397
0
VERTEX
8
CUT
10
111.8352
20
77.5084
0
VERTEX
8
CUT
10
111.8216
20
77.4032
0
VERTEX
8
CUT
10
111.7802
20
77.1750
0
VERTEX
8
CUT
10
111.7427
20
77.0151
0
VERTEX
8
CUT
10
111.7133
20
76.9029
0
VERTEX
8
CUT
10
110.3507
20
72.1871
0
VERTEX
8
CUT
10
110.3445
20
72.1650
0
VERTEX
8
CUT
10
110.3098
20
72.0378
0
VERTEX
8
CUT
10
110.2972
20
71.9886
0
VERTEX
8
CUT
10
110.2725
20
71.8841
0
VERTEX
8
CUT
10
110.2670
20
71.8602
0
VERTEX
8
CUT
10
109.9372
20
70.3625
0
VERTEX
8
CUT
10
109.9003
20
70.3396
0
VERTEX
8
CUT
10
109.7482
20
70.2346
0
VERTEX
8
CUT
10
109.6243
20
70.1398
0
VERTEX
8
CUT
10
109.4832
20
70.0206
0
VERTEX
8
CUT
10
109.3691
20
69.9141
0
VERTEX
8
CUT
10
109.2403
20
69.7817
0
VERTEX
8
CUT
10
109.1371
20
69.6647
0
VERTEX
8
CUT
10
109.0219
20
69.5203
0
VERTEX
8
CUT
10
108.9305
20
69.3938
0
VERTEX
8
CUT
10
108.8299
20
69.2389
0
VERTEX
8
CUT
10
108.7513
20
69.1040
0
VERTEX
8
CUT
10
108.6662
20
68.9401
0
VERTEX
8
CUT
10
108.6012
20
68.7982
0
VERTEX
8
CUT
10
108.5325
20
68.6268
0
VERTEX
8
CUT
10
108.4816
20
68.4793
0
VERTEX
8
CUT
10
108.3950
20
68.1824
0
VERTEX
8
CUT
10
108.3750
20
68.1070
0
VERTEX
8
CUT
10
106.7395
20
61.2707
0
VERTEX
8
CUT
10
106.7340
20
61.2469
0
VERTEX
8
CUT
10
106.7033
20
61.1093
0
VERTEX
8
CUT
10
106.6924
20
61.0561
0
VERTEX
8
CUT
10
106.6712
20
60.9434
0
VERTEX
8
CUT
10
106.6666
20
60.9176
0
VERTEX
8
CUT
10
105.5713
20
54.5082
0
VERTEX
8
CUT
10
105.5655
20
54.4716
0
VERTEX
8
CUT
10
105.5392
20
54.2925
0
VERTEX
8
CUT
10
105.5301
20
54.2193
0
VERTEX
8
CUT
10
105.5120
20
54.0391
0
VERTEX
8
CUT
10
105.5088
20
54.0023
0
VERTEX
8
CUT
10
104.8252
20
45.1313
0
VERTEX
8
CUT
10
104.8223
20
45.0856
0
VERTEX
8
CUT
10
104.8115
20
44.8613
0
VERTEX
8
CUT
10
104.8097
20
44.7697
0
VERTEX
8
CUT
10
104.8117
20
44.5452
0
VERTEX
8
CUT
10
104.8128
20
44.4994
0
VERTEX
8
CUT
10
105.0737
20
37.5652
0
VERTEX
8
CUT
10
105.0781
20
37.4933
0
VERTEX
8
CUT
10
105.1016
20
37.2088
0
VERTEX
8
CUT
10
105.1200
20
37.0660
0
VERTEX
8
CUT
10
105.1690
20
36.7848
0
VERTEX
8
CUT
10
105.1830
20
36.7142
0
VERTEX
8
CUT
10
105.6492
20
34.6063
0
VERTEX
8
CUT
10
105.6685
20
34.5283
0
VERTEX
8
CUT
10
105.7528
20
34.2212
0
VERTEX
8
CUT
10
105.8030
20
34.0686
0
VERTEX
8
CUT
10
105.9177
20
33.7716
0
VERTEX
8
CUT
10
105.9485
20
33.6974
0
VERTEX
8
CUT
10
106.2894
20
32.9310
0
VERTEX
8
CUT
10
106.3190
20
32.8682
0
VERTEX
8
CUT
10
106.4418
20
32.6216
0
VERTEX
8
CUT
10
106.5091
20
32.5000
0
VERTEX
8
CUT
10
106.5950
20
32.3596
0
VERTEX
8
CUT
10
106.6725
20
32.2443
0
VERTEX
8
CUT
10
106.8361
20
32.0227
0
VERTEX
8
CUT
10
106.8785
20
31.9677
0
VERTEX
8
CUT
10
106.9483
20
31.8813
0
VERTEX
8
CUT
10
106.9980
20
31.8227
0
VERTEX
8
CUT
10
107.2006
20
31.5950
0
VERTEX
8
CUT
10
107.3082
20
31.4852
0
VERTEX
8
CUT
10
107.4417
20
31.3615
0
VERTEX
8
CUT
10
107.5594
20
31.2625
0
VERTEX
8
CUT
10
107.7041
20
31.1522
0
VERTEX
8
CUT
10
107.8307
20
31.0649
0
VERTEX
8
CUT
10
107.9854
20
30.9690
0
VERTEX
8
CUT
10
108.1198
20
30.8944
0
VERTEX
8
CUT
10
108.2829
20
30.8137
0
VERTEX
8
CUT
10
108.4239
20
30.7523
0
VERTEX
8
CUT
10
108.5940
20
30.6877
0
VERTEX
8
CUT
10
108.7402
20
30.6401
0
VERTEX
8
CUT
10
109.0341
20
30.5597
0
VERTEX
8
CUT
10
109.1087
20
30.5413
0
VERTEX
8
CUT
10
109.1950
20
30.5221
0
VERTEX
8
CUT
10
109.2653
20
30.5081
0
VERTEX
8
CUT
10
109.5453
20
30.4589
0
VERTEX
8
CUT
10
109.6876
20
30.4404
0
VERTEX
8
CUT
10
109.8568
20
30.4261
0
VERTEX
8
CUT
10
110.0001
20
30.4205
0
VERTEX
8
CUT
10
110.1700
20
30.4214
0
VERTEX
8
CUT
10
110.3132
20
30.4286
0
VERTEX
8
CUT
10
110.5962
20
30.4556
0
VERTEX
8
CUT
10
110.6674
20
30.4640
0
VERTEX
8
CUT
10
111.2398
20
30.5446
0
VERTEX
8
CUT
10
111.3181
20
30.5576
0
VERTEX
8
CUT
10
111.6272
20
30.6169
0
VERTEX
8
CUT
10
111.7816
20
30.6546
0
VERTEX
8
CUT
10
111.9617
20
30.7081
0
VERTEX
8
CUT
10
112.1115
20
30.7608
0
VERTEX
8
CUT
10
112.4028
20
30.8799
0
VERTEX
8
CUT
10
112.4755
20
30.9118
0
VERTEX
8
CUT
10
114.1969
20
31.7175
0
VERTEX
8
CUT
10
114.2644
20
31.7511
0
VERTEX
8
CUT
10
114.5288
20
31.8904
0
VERTEX
8
CUT
10
114.6588
20
31.9669
0
VERTEX
8
CUT
10
114.9088
20
32.1305
0
VERTEX
8
CUT
10
114.9709
20
32.1732
0
VERTEX
8
CUT
10
116.8469
20
33.5304
0
VERTEX
8
CUT
10
116.8844
20
33.5583
0
VERTEX
8
CUT
10
117.0659
20
33.6979
0
VERTEX
8
CUT
10
117.1382
20
33.7570
0
VERTEX
8
CUT
10
117.3112
20
33.9069
0
VERTEX
8
CUT
10
117.3461
20
33.9379
0
VERTEX
8
CUT
10
120.1762
20
36.5380
0
VERTEX
8
CUT
10
120.1971
20
36.5575
0
VERTEX
8
CUT
10
120.3164
20
36.6711
0
VERTEX
8
CUT
10
120.3614
20
36.7157
0
VERTEX
8
CUT
10
120.4547
20
36.8120
0
VERTEX
8
CUT
10
120.4758
20
36.8341
0
VERTEX
8
CUT
10
124.3143
20
40.9451
0
VERTEX
8
CUT
10
124.3319
20
40.9642
0
VERTEX
8
CUT
10
124.4315
20
41.0745
0
VERTEX
8
CUT
10
124.4692
20
41.1176
0
VERTEX
8
CUT
10
124.5471
20
41.2102
0
VERTEX
8
CUT
10
124.5647
20
41.2316
0
VERTEX
8
CUT
10
129.9027
20
47.8072
0
VERTEX
8
CUT
10
129.9307
20
47.8427
0
VERTEX
8
CUT
10
130.0651
20
48.0182
0
VERTEX
8
CUT
10
130.1179
20
48.0913
0
VERTEX
8
CUT
10
130.2423
20
48.2741
0
VERTEX
8
CUT
10
130.2671
20
48.3117
0
VERTEX
8
CUT
10
131.3065
20
49.9365
0
VERTEX
8
CUT
10
131.3494
20
50.0076
0
VERTEX
8
CUT
10
131.5123
20
50.2941
0
VERTEX
8
CUT
10
131.5869
20
50.4427
0
VERTEX
8
CUT
10
131.6659
20
50.6228
0
VERTEX
8
CUT
10
131.7246
20
50.7783
0
VERTEX
8
CUT
10
131.8249
20
51.0921
0
VERTEX
8
CUT
10
131.8481
20
51.1719
0
VERTEX
8
CUT
10
132.0130
20
51.7986
0
VERTEX
8
CUT
10
132.0314
20
51.8762
0
VERTEX
8
CUT
10
132.0964
20
52.1854
0
VERTEX
8
CUT
10
132.1215
20
52.3429
0
VERTEX
8
CUT
10
132.1417
20
52.5304
0
VERTEX
8
CUT
10
132.1510
20
52.6895
0
VERTEX
8
CUT
10
132.1525
20
52.8782
0
VERTEX
8
CUT
10
132.1458
20
53.0374
0
VERTEX
8
CUT
10
132.1170
20
53.3520
0
VERTEX
8
CUT
10
132.1077
20
53.4311
0
VERTEX
8
CUT
10
132.0154
20
54.0791
0
VERTEX
8
CUT
10
132.0037
20
54.1504
0
VERTEX
8
CUT
10
131.9631
20
54.3652
0
VERTEX
8
CUT
10
133.1405
20
55.9162
0
VERTEX
8
CUT
10
133.1805
20
55.9673
0
VERTEX
8
CUT
10
133.2415
20
56.0430
0
VERTEX
8
CUT
10
133.3700
20
56.1894
0
VERTEX
8
CUT
10
133.5232
20
56.3495
0
VERTEX
8
CUT
10
133.6638
20
56.4844
0
VERTEX
8
CUT
10
133.7366
20
56.5486
0
VERTEX
8
CUT
10
133.7860
20
56.5908
0
VERTEX
8
CUT
10
134.4910
20
57.1768
0
VERTEX
8
CUT
10
134.5200
20
57.2005
0
VERTEX
8
CUT
10
134.5690
20
57.2399
0
VERTEX
8
CUT
10
134.6126
20
57.2741
0
VERTEX
8
CUT
10
134.6195
20
57.2794
0
VERTEX
8
CUT
10
134.7325
20
57.3605
0
VERTEX
8
CUT
10
134.9077
20
57.4782
0
VERTEX
8
CUT
10
135.0379
20
57.5594
0
VERTEX
8
CUT
10
135.0731
20
57.5798
0
VERTEX
8
CUT
10
135.1214
20
57.6069
0
VERTEX
8
CUT
10
135.1470
20
57.6209
0
VERTEX
8
CUT
10
135.1674
20
57.6319
0
VERTEX
8
CUT
10
135.9093
20
58.0276
0
VERTEX
8
CUT
10
135.9418
20
58.0446
0
VERTEX
8
CUT
10
135.9966
20
58.0726
0
VERTEX
8
CUT
10
136.0259
20
58.0872
0
VERTEX
8
CUT
10
136.1431
20
58.1398
0
VERTEX
8
CUT
10
136.2901
20
58.2005
0
VERTEX
8
CUT
10
136.5073
20
58.2776
0
VERTEX
8
CUT
10
136.6052
20
58.3069
0
VERTEX
8
CUT
10
136.8259
20
58.3611
0
VERTEX
8
CUT
10
136.9676
20
58.3884
0
VERTEX
8
CUT
10
137.1122
20
58.4116
0
VERTEX
8
CUT
10
137.1293
20
58.4138
0
VERTEX
8
CUT
10
137.1871
20
58.4204
0
VERTEX
8
CUT
10
137.2136
20
58.4231
0
VERTEX
8
CUT
10
137.2362
20
58.4252
0
VERTEX
8
CUT
10
137.8976
20
58.4857
0
VERTEX
8
CUT
10
137.9331
20
58.4886
0
VERTEX
8
CUT
10
137.9927
20
58.4931
0
VERTEX
8
CUT
10
138.0452
20
58.4965
0
VERTEX
8
CUT
10
138.0535
20
58.4969
0
VERTEX
8
CUT
10
138.1857
20
58.5000
0
VERTEX
8
CUT
10
138.3862
20
58.4989
0
VERTEX
8
CUT
10
138.5320
20
58.4934
0
VERTEX
8
CUT
10
138.5705
20
58.4907
0
VERTEX
8
CUT
10
138.6231
20
58.4865
0
VERTEX
8
CUT
10
138.6507
20
58.4839
0
VERTEX
8
CUT
10
138.6726
20
58.4818
0
VERTEX
8
CUT
10
144.6028
20
57.8727
0
VERTEX
8
CUT
10
144.6267
20
57.8705
0
VERTEX
8
CUT
10
144.7643
20
57.8585
0
VERTEX
8
CUT
10
144.8173
20
57.8548
0
VERTEX
8
CUT
10
144.9295
20
57.8491
0
VERTEX
8
CUT
10
144.9551
20
57.8479
0
VERTEX
8
CUT
10
148.6186
20
57.7205
0
VERTEX
8
CUT
10
148.6402
20
57.7199
0
VERTEX
8
CUT
10
148.7639
20
57.7174
0
VERTEX
8
CUT
10
148.8116
20
57.7172
0
VERTEX
8
CUT
10
148.9123
20
57.7183
0
VERTEX
8
CUT
10
148.9354
20
57.7187
0
VERTEX
8
CUT
10
149.1982
20
57.7255
0
VERTEX
8
CUT
10
151.0613
20
57.7152
0
VERTEX
8
CUT
10
151.0720
20
57.7152
0
VERTEX
8
CUT
10
151.1060
20
57.7152
0
VERTEX
8
CUT
10
151.1418
20
57.7157
0
VERTEX
8
CUT
10
151.2516
20
57.7184
0
VERTEX
8
CUT
10
151.2763
20
57.7193
0
VERTEX
8
CUT
10
151.8271
20
57.7420
0
VERTEX
8
CUT
10
152.2513
20
57.7421
0
VERTEX
8
CUT
10
152.2638
20
57.7421
0
VERTEX
8
CUT
10
152.3037
20
57.7424
0
VERTEX
8
CUT
10
152.3457
20
57.7434
0
VERTEX
8
CUT
10
152.4745
20
57.7480
0
VERTEX
8
CUT
10
152.5035
20
57.7493
0
VERTEX
8
CUT
10
154.0106
20
57.8324
0
VERTEX
8
CUT
10
155.7070
20
57.9026
0
VERTEX
8
CUT
10
155.7204
20
57.9032
0
VERTEX
8
CUT
10
155.7628
20
57.9053
0
VERTEX
8
CUT
10
155.8076
20
57.9082
0
VERTEX
8
CUT
10
155.9600
20
57.9204
0
VERTEX
8
CUT
10
155.9909
20
57.9232
0
VERTEX
8
CUT
10
156.3953
20
57.9638
0
VERTEX
8
CUT
10
156.7857
20
57.9853
0
VERTEX
8
CUT
10
156.7968
20
57.9860
0
VERTEX
8
CUT
10
156.8320
20
57.9882
0
VERTEX
8
CUT
10
156.8691
20
57.9910
0
VERTEX
8
CUT
10
156.9827
20
58.0009
0
VERTEX
8
CUT
10
157.0084
20
58.0033
0
VERTEX
8
CUT
10
161.5768
20
58.4794
0
VERTEX
8
CUT
10
161.6118
20
58.4828
0
VERTEX
8
CUT
10
161.6707
20
58.4880
0
VERTEX
8
CUT
10
161.7021
20
58.4904
0
VERTEX
8
CUT
10
161.8254
20
58.4951
0
VERTEX
8
CUT
10
161.9783
20
58.4966
0
VERTEX
8
CUT
10
162.1998
20
58.4879
0
VERTEX
8
CUT
10
162.2976
20
58.4793
0
VERTEX
8
CUT
10
162.5139
20
58.4498
0
VERTEX
8
CUT
10
162.6504
20
58.4245
0
VERTEX
8
CUT
10
162.7879
20
58.3945
0
VERTEX
8
CUT
10
162.8040
20
58.3905
0
VERTEX
8
CUT
10
162.8581
20
58.3762
0
VERTEX
8
CUT
10
162.8828
20
58.3694
0
VERTEX
8
CUT
10
162.9038
20
58.3635
0
VERTEX
8
CUT
10
162.9223
20
58.3582
0
VERTEX
8
CUT
10
162.9225
20
58.3582
0
VERTEX
8
CUT
10
162.9232
20
58.3579
0
VERTEX
8
CUT
10
162.9334
20
58.3550
0
VERTEX
8
CUT
10
163.2804
20
58.2555
0
VERTEX
8
CUT
10
163.3419
20
58.2369
0
VERTEX
8
CUT
10
163.4213
20
58.2117
0
VERTEX
8
CUT
10
163.6023
20
58.1457
0
VERTEX
8
CUT
10
163.7518
20
58.0838
0
VERTEX
8
CUT
10
163.9596
20
57.9839
0
VERTEX
8
CUT
10
163.9689
20
57.9785
0
VERTEX
8
CUT
10
164.2904
20
57.7934
0
VERTEX
8
CUT
10
164.3585
20
57.7478
0
VERTEX
8
CUT
10
164.4114
20
57.7114
0
VERTEX
8
CUT
10
165.0392
20
57.2656
0
VERTEX
8
CUT
10
165.0667
20
57.2458
0
VERTEX
8
CUT
10
165.1124
20
57.2123
0
VERTEX
8
CUT
10
165.1496
20
57.1844
0
VERTEX
8
CUT
10
165.2459
20
57.1062
0
VERTEX
8
CUT
10
165.2871
20
57.0709
0
VERTEX
8
CUT
10
165.2910
20
57.0670
0
VERTEX
8
CUT
10
165.2923
20
57.0657
0
VERTEX
8
CUT
10
165.2977
20
57.0602
0
VERTEX
8
CUT
10
165.3013
20
57.0566
0
VERTEX
8
CUT
10
165.3062
20
57.0517
0
VERTEX
8
CUT
10
165.3070
20
57.0509
0
VERTEX
8
CUT
10
165.3218
20
57.0358
0
VERTEX
8
CUT
10
165.7801
20
56.5621
0
VERTEX
8
CUT
10
165.8037
20
56.5376
0
VERTEX
8
CUT
10
167.5972
20
54.3094
0
VERTEX
8
CUT
10
167.5311
20
54.1029
0
VERTEX
8
CUT
10
167.4911
20
53.9534
0
VERTEX
8
CUT
10
167.4524
20
53.7745
0
VERTEX
8
CUT
10
167.4271
20
53.6220
0
VERTEX
8
CUT
10
167.3969
20
53.3632
0
VERTEX
8
CUT
10
167.3957
20
53.3464
0
VERTEX
8
CUT
10
167.3866
20
53.2201
0
VERTEX
8
CUT
10
167.3811
20
53.0116
0
VERTEX
8
CUT
10
167.3830
20
52.8793
0
VERTEX
8
CUT
10
167.3977
20
52.6175
0
VERTEX
8
CUT
10
167.4028
20
52.5515
0
VERTEX
8
CUT
10
167.4247
20
52.3277
0
VERTEX
8
CUT
10
167.4368
20
52.2329
0
VERTEX
8
CUT
10
167.4960
20
51.8594
0
VERTEX
8
CUT
10
167.5371
20
51.6729
0
VERTEX
8
CUT
10
167.6403
20
51.3092
0
VERTEX
8
CUT
10
167.6691
20
51.2182
0
VERTEX
8
CUT
10
167.6951
20
51.1436
0
VERTEX
8
CUT
10
167.7279
20
51.0579
0
VERTEX
8
CUT
10
167.8674
20
50.7220
0
VERTEX
8
CUT
10
167.9474
20
50.5567
0
VERTEX
8
CUT
10
168.1244
20
50.2391
0
VERTEX
8
CUT
10
168.1714
20
50.1602
0
VERTEX
8
CUT
10
169.3428
20
48.3155
0
VERTEX
8
CUT
10
169.3642
20
48.2827
0
VERTEX
8
CUT
10
169.4712
20
48.1231
0
VERTEX
8
CUT
10
169.5163
20
48.0591
0
VERTEX
8
CUT
10
169.6309
20
47.9049
0
VERTEX
8
CUT
10
169.6547
20
47.8738
0
VERTEX
8
CUT
10
173.9790
20
42.3447
0
VERTEX
8
CUT
10
173.9938
20
42.3260
0
VERTEX
8
CUT
10
174.0799
20
42.2193
0
VERTEX
8
CUT
10
174.1136
20
42.1788
0
VERTEX
8
CUT
10
174.1865
20
42.0943
0
VERTEX
8
CUT
10
174.2033
20
42.0752
0
VERTEX
8
CUT
10
177.7601
20
38.0804
0
VERTEX
8
CUT
10
177.7767
20
38.0621
0
VERTEX
8
CUT
10
177.8728
20
37.9575
0
VERTEX
8
CUT
10
177.9104
20
37.9178
0
VERTEX
8
CUT
10
177.9915
20
37.8354
0
VERTEX
8
CUT
10
178.0102
20
37.8168
0
VERTEX
8
CUT
10
181.2144
20
34.6645
0
VERTEX
8
CUT
10
181.2453
20
34.6349
0
VERTEX
8
CUT
10
181.3983
20
34.4922
0
VERTEX
8
CUT
10
181.4623
20
34.4357
0
VERTEX
8
CUT
10
181.6227
20
34.3013
0
VERTEX
8
CUT
10
181.6558
20
34.2743
0
VERTEX
8
CUT
10
183.9865
20
32.4262
0
VERTEX
8
CUT
10
184.0448
20
32.3821
0
VERTEX
8
CUT
10
184.2797
20
32.2127
0
VERTEX
8
CUT
10
184.4019
20
32.1327
0
VERTEX
8
CUT
10
184.6512
20
31.9855
0
VERTEX
8
CUT
10
184.7150
20
31.9498
0
VERTEX
8
CUT
10
186.3449
20
31.0851
0
VERTEX
8
CUT
10
186.4114
20
31.0517
0
VERTEX
8
CUT
10
186.6779
20
30.9258
0
VERTEX
8
CUT
10
186.8152
20
30.8686
0
VERTEX
8
CUT
10
187.0922
20
30.7680
0
VERTEX
8
CUT
10
187.1627
20
30.7443
0
VERTEX
8
CUT
10
188.3042
20
30.3889
0
VERTEX
8
CUT
10
188.3843
20
30.3662
0
VERTEX
8
CUT
10
188.7040
20
30.2846
0
VERTEX
8
CUT
10
188.8672
20
30.2519
0
VERTEX
8
CUT
10
189.1144
20
30.2156
0
VERTEX
8
CUT
10
189.2700
20
30.2005
0
VERTEX
8
CUT
10
189.4685
20
30.1910
0
VERTEX
8
CUT
10
189.6147
20
30.1907
0
VERTEX
8
CUT
10
189.7877
20
30.1982
0
VERTEX
8
CUT
10
189.9333
20
30.2112
0
VERTEX
8
CUT
10
190.2204
20
30.2501
0
VERTEX
8
CUT
10
190.2926
20
30.2616
0
VERTEX
8
CUT
10
190.4070
20
30.2825
0
VERTEX
8
CUT
10
190.4791
20
30.2974
0
VERTEX
8
CUT
10
190.7636
20
30.3629
0
VERTEX
8
CUT
10
190.9054
20
30.4026
0
VERTEX
8
CUT
10
191.0710
20
30.4572
0
VERTEX
8
CUT
10
191.2086
20
30.5097
0
VERTEX
8
CUT
10
191.3685
20
30.5794
0
VERTEX
8
CUT
10
191.5006
20
30.6443
0
VERTEX
8
CUT
10
191.6534
20
30.7283
0
VERTEX
8
CUT
10
191.7790
20
30.8051
0
VERTEX
8
CUT
10
191.9235
20
30.9029
0
VERTEX
8
CUT
10
192.0415
20
30.9909
0
VERTEX
8
CUT
10
192.1763
20
31.1015
0
VERTEX
8
CUT
10
192.2858
20
31.2000
0
VERTEX
8
CUT
10
192.4935
20
31.4050
0
VERTEX
8
CUT
10
192.5447
20
31.4580
0
VERTEX
8
CUT
10
192.7960
20
31.7301
0
VERTEX
8
CUT
10
192.8429
20
31.7832
0
VERTEX
8
CUT
10
193.0242
20
31.9976
0
VERTEX
8
CUT
10
193.1107
20
32.1098
0
VERTEX
8
CUT
10
193.2072
20
32.2470
0
VERTEX
8
CUT
10
193.2835
20
32.3663
0
VERTEX
8
CUT
10
193.4240
20
32.6093
0
VERTEX
8
CUT
10
193.4581
20
32.6714
0
VERTEX
8
CUT
10
193.4785
20
32.7106
0
VERTEX
8
CUT
10
193.5146
20
32.7844
0
VERTEX
8
CUT
10
193.6500
20
33.0805
0
VERTEX
8
CUT
10
193.7105
20
33.2333
0
VERTEX
8
CUT
10
193.8148
20
33.5417
0
VERTEX
8
CUT
10
193.8391
20
33.6202
0
VERTEX
8
CUT
10
194.3266
20
35.3497
0
VERTEX
8
CUT
10
194.3454
20
35.4232
0
VERTEX
8
CUT
10
194.4131
20
35.7160
0
VERTEX
8
CUT
10
194.4403
20
35.8651
0
VERTEX
8
CUT
10
194.4800
20
36.1630
0
VERTEX
8
CUT
10
194.4882
20
36.2383
0
VERTEX
8
CUT
10
194.9399
20
41.5304
0
VERTEX
8
CUT
10
194.9432
20
41.5788
0
VERTEX
8
CUT
10
194.9563
20
41.8165
0
VERTEX
8
CUT
10
194.9587
20
41.9135
0
VERTEX
8
CUT
10
194.9573
20
42.1515
0
VERTEX
8
CUT
10
194.9562
20
42.2000
0
VERTEX
8
CUT
10
194.6870
20
49.6282
0
VERTEX
8
CUT
10
194.6852
20
49.6653
0
VERTEX
8
CUT
10
194.6744
20
49.8470
0
VERTEX
8
CUT
10
194.6682
20
49.9210
0
VERTEX
8
CUT
10
194.6490
20
50.1020
0
VERTEX
8
CUT
10
194.6446
20
50.1389
0
VERTEX
8
CUT
10
193.9135
20
55.7732
0
VERTEX
8
CUT
10
193.9103
20
55.7963
0
VERTEX
8
CUT
10
193.8911
20
55.9292
0
VERTEX
8
CUT
10
193.8829
20
55.9802
0
VERTEX
8
CUT
10
193.8638
20
56.0878
0
VERTEX
8
CUT
10
193.8592
20
56.1123
0
VERTEX
8
CUT
10
191.8699
20
66.3724
0
VERTEX
8
CUT
10
191.8676
20
66.3839
0
VERTEX
8
CUT
10
191.8603
20
66.4203
0
VERTEX
8
CUT
10
191.8521
20
66.4587
0
VERTEX
8
CUT
10
191.8254
20
66.5760
0
VERTEX
8
CUT
10
191.8192
20
66.6023
0
VERTEX
8
CUT
10
191.4642
20
68.0518
0
VERTEX
8
CUT
10
191.4436
20
68.1278
0
VERTEX
8
CUT
10
191.3549
20
68.4256
0
VERTEX
8
CUT
10
191.3028
20
68.5736
0
VERTEX
8
CUT
10
191.2327
20
68.7455
0
VERTEX
8
CUT
10
191.1663
20
68.8877
0
VERTEX
8
CUT
10
191.0797
20
69.0520
0
VERTEX
8
CUT
10
190.9997
20
69.1870
0
VERTEX
8
CUT
10
190.8974
20
69.3419
0
VERTEX
8
CUT
10
190.8046
20
69.4684
0
VERTEX
8
CUT
10
190.6876
20
69.6126
0
VERTEX
8
CUT
10
190.5828
20
69.7295
0
VERTEX
8
CUT
10
190.4522
20
69.8615
0
VERTEX
8
CUT
10
190.3366
20
69.9675
0
VERTEX
8
CUT
10
190.1937
20
70.0861
0
VERTEX
8
CUT
10
190.1909
20
70.0882
0
VERTEX
8
CUT
10
190.0682
20
70.1803
0
VERTEX
8
CUT
10
189.9144
20
70.2843
0
VERTEX
8
CUT
10
189.7803
20
70.3658
0
VERTEX
8
CUT
10
189.6170
20
70.4542
0
VERTEX
8
CUT
10
189.4755
20
70.5221
0
VERTEX
8
CUT
10
189.3044
20
70.5942
0
VERTEX
8
CUT
10
189.1570
20
70.6479
0
VERTEX
8
CUT
10
189.0418
20
70.6836
0
VERTEX
8
CUT
10
189.0681
20
70.6955
0
VERTEX
8
CUT
10
189.1724
20
70.7555
0
VERTEX
8
CUT
10
189.2705
20
70.8252
0
VERTEX
8
CUT
10
189.3614
20
70.9041
0
VERTEX
8
CUT
10
189.4443
20
70.9913
0
VERTEX
8
CUT
10
189.5184
20
71.0861
0
VERTEX
8
CUT
10
189.5831
20
71.1876
0
VERTEX
8
CUT
10
189.6377
20
71.2948
0
VERTEX
8
CUT
10
189.6818
20
71.4068
0
VERTEX
8
CUT
10
189.7149
20
71.5225
0
VERTEX
8
CUT
10
189.7367
20
71.6409
0
VERTEX
8
CUT
10
189.7470
20
71.7608
0
VERTEX
8
CUT
10
189.7457
20
71.8811
0
VERTEX
8
CUT
10
189.7329
20
72.0008
0
VERTEX
8
CUT
10
189.7086
20
72.1187
0
VERTEX
8
CUT
10
189.6731
20
72.2336
0
VERTEX
8
CUT
10
189.6267
20
72.3447
0
VERTEX
8
CUT
10
189.5699
20
72.4508
0
VERTEX
8
CUT
10
189.5674
20
72.4545
0
VERTEX
8
CUT
10
189.5584
20
72.4696
0
VERTEX
8
CUT
10
189.5338
20
72.5522
0
VERTEX
8
CUT
10
189.5149
20
72.6105
0
VERTEX
8
CUT
10
189.4817
20
72.7048
0
VERTEX
8
CUT
10
189.4599
20
72.7621
0
VERTEX
8
CUT
10
189.4118
20
72.8800
0
VERTEX
8
CUT
10
189.3872
20
72.9362
0
VERTEX
8
CUT
10
189.3449
20
73.0268
0
VERTEX
8
CUT
10
189.3177
20
73.0817
0
VERTEX
8
CUT
10
189.2582
20
73.1944
0
VERTEX
8
CUT
10
189.2283
20
73.2479
0
VERTEX
8
CUT
10
189.1773
20
73.3339
0
VERTEX
8
CUT
10
189.1448
20
73.3859
0
VERTEX
8
CUT
10
189.0746
20
73.4921
0
VERTEX
8
CUT
10
189.0619
20
73.5104
0
SEQEND
0
POLYLINE
8
CUT
66
1
70
1
10
0.0
20
0.0
30
0.0
0
VERTEX
8
CUT
10
91.8729
20
226.2996
0
VERTEX
8
CUT
10
91.9114
20
226.2701
0
VERTEX
8
CUT
10
92.2563
20
226.0141
0
VERTEX
8
CUT
10
91.5807
20
226.5388
0
VERTEX
8
CUT
10
91.6124
20
226.5101
0
VERTEX
8
CUT
10
91.6865
20
226.4474
0
SEQEND
0
POLYLINE
8
CUT
66
1
70
1
10
0.0
20
0.0
30
0.0
0
VERTEX
8
CUT
10
89.5593
20
228.4745
0
VERTEX
8
CUT
10
89.5701
20
228.4641
0
VERTEX
8
CUT
10
89.5198
20
228.5139
0
VERTEX
8
CUT
10
89.5272
20
228.5064
0
SEQEND
0
POLYLINE
8
CUT
66
1
70
1
10
0.0
20
0.0
30
0.0
0
VERTEX
8
CUT
10
88.4745
20
229.6513
0
VERTEX
8
CUT
10
88.0273
20
230.2496
0
VERTEX
8
CUT
10
88.1853
20
230.0222
0
VERTEX
8
CUT
10
88.2250
20
229.9677
0
VERTEX
8
CUT
10
88.3872
20
229.7551
0
VERTEX
8
CUT
10
88.4736
20
229.6516
0
VERTEX
8
CUT
10
88.4771
20
229.6478
0
SEQEND
0
POLYLINE
8
CUT
66
1
70
1
10
0.0
20
0.0
30
0.0
0
VERTEX
8
CUT
10
87.2351
20
231.3094
0
VERTEX
8
CUT
10
87.3118
20
231.1925
0
VERTEX
8
CUT
10
87.3733
20
231.1054
0
VERTEX
8
CUT
10
87.5315
20
230.8975
0
VERTEX
8
CUT
10
87.5645
20
230.8557
0
VERTEX
8
CUT
10
87.6790
20
230.7156
0
SEQEND
0
POLYLINE
8
CUT
66
1
70
1
10
0.0
20
0.0
30
0.0
0
VERTEX
8
CUT
10
45.3380
20
245.6492
0
VERTEX
8
CUT
10
45.3785
20
245.5313
0
VERTEX
8
CUT
10
45.4685
20
245.3011
0
VERTEX
8
CUT
10
45.4923
20
245.2435
0
VERTEX
8
CUT
10
45.7104
20
244.7466
0
VERTEX
8
CUT
10
45.7390
20
244.6852
0
VERTEX
8
CUT
10
45.8578
20
244.4442
0
VERTEX
8
CUT
10
45.9231
20
244.3255
0
VERTEX
8
CUT
10
46.0066
20
244.1884
0
VERTEX
8
CUT
10
46.0822
20
244.0760
0
VERTEX
8
CUT
10
46.2418
20
243.8600
0
VERTEX
8
CUT
10
46.2832
20
243.8064
0
VERTEX
8
CUT
10
46.5990
20
243.4168
0
VERTEX
8
CUT
10
46.6441
20
243.3636
0
VERTEX
8
CUT
10
46.8278
20
243.1571
0
VERTEX
8
CUT
10
46.9252
20
243.0572
0
VERTEX
8
CUT
10
47.0458
20
242.9444
0
VERTEX
8
CUT
10
47.1518
20
242.8539
0
VERTEX
8
CUT
10
47.3701
20
242.6844
0
VERTEX
8
CUT
10
47.4262
20
242.6429
0
VERTEX
8
CUT
10
48.0030
20
242.2358
0
VERTEX
8
CUT
10
48.0615
20
242.1966
0
VERTEX
8
CUT
10
48.2969
20
242.0463
0
VERTEX
8
CUT
10
48.4191
20
241.9760
0
VERTEX
8
CUT
10
48.5674
20
241.8997
0
VERTEX
8
CUT
10
48.6955
20
241.8411
0
VERTEX
8
CUT
10
48.9546
20
241.7368
0
VERTEX
8
CUT
10
49.0205
20
241.7121
0
VERTEX
8
CUT
10
49.5313
20
241.5335
0
VERTEX
8
CUT
10
49.6104
20
241.5082
0
VERTEX
8
CUT
10
49.9264
20
241.4168
0
VERTEX
8
CUT
10
50.0882
20
241.3794
0
VERTEX
8
CUT
10
50.4122
20
241.3230
0
VERTEX
8
CUT
10
50.4943
20
241.3110
0
VERTEX
8
CUT
10
50.9416
20
241.2581
0
VERTEX
8
CUT
10
51.0122
20
241.2514
0
VERTEX
8
CUT
10
51.2927
20
241.2314
0
VERTEX
8
CUT
10
51.4346
20
241.2279
0
VERTEX
8
CUT
10
51.6025
20
241.2317
0
VERTEX
8
CUT
10
51.7440
20
241.2414
0
VERTEX
8
CUT
10
52.0233
20
241.2739
0
VERTEX
8
CUT
10
52.0936
20
241.2837
0
VERTEX
8
CUT
10
53.1391
20
241.4549
0
VERTEX
8
CUT
10
53.2056
20
241.4673
0
VERTEX
8
CUT
10
53.4680
20
241.5224
0
VERTEX
8
CUT
10
53.5991
20
241.5561
0
VERTEX
8
CUT
10
53.7523
20
241.6028
0
VERTEX
8
CUT
10
53.8798
20
241.6479
0
VERTEX
8
CUT
10
54.0283
20
241.7081
0
VERTEX
8
CUT
10
54.1513
20
241.7644
0
VERTEX
8
CUT
10
54.3898
20
241.8867
0
VERTEX
8
CUT
10
54.4493
20
241.9189
0
VERTEX
8
CUT
10
55.1244
20
242.3040
0
VERTEX
8
CUT
10
55.1793
20
242.3368
0
VERTEX
8
CUT
10
55.3938
20
242.4715
0
VERTEX
8
CUT
10
55.4991
20
242.5439
0
VERTEX
8
CUT
10
55.6200
20
242.6348
0
VERTEX
8
CUT
10
55.7188
20
242.7157
0
VERTEX
8
CUT
10
55.9078
20
242.8843
0
VERTEX
8
CUT
10
55.9545
20
242.9278
0
VERTEX
8
CUT
10
56.1459
20
243.1136
0
VERTEX
8
CUT
10
56.1991
20
243.1679
0
VERTEX
8
CUT
10
56.4045
20
243.3883
0
VERTEX
8
CUT
10
56.5025
20
243.5046
0
VERTEX
8
CUT
10
56.6848
20
243.7444
0
VERTEX
8
CUT
10
56.7293
20
243.8060
0
VERTEX
8
CUT
10
56.9062
20
244.0645
0
VERTEX
8
CUT
10
56.9466
20
244.1267
0
VERTEX
8
CUT
10
57.1005
20
244.3770
0
VERTEX
8
CUT
10
57.1719
20
244.5069
0
VERTEX
8
CUT
10
57.3006
20
244.7709
0
VERTEX
8
CUT
10
57.3315
20
244.8383
0
VERTEX
8
CUT
10
57.4643
20
245.1480
0
VERTEX
8
CUT
10
57.4907
20
245.2138
0
VERTEX
8
CUT
10
57.5892
20
245.4769
0
VERTEX
8
CUT
10
57.6327
20
245.6117
0
VERTEX
8
CUT
10
57.7063
20
245.8827
0
VERTEX
8
CUT
10
57.7232
20
245.9515
0
VERTEX
8
CUT
10
57.7660
20
246.1440
0
VERTEX
8
CUT
10
57.7799
20
246.2143
0
VERTEX
8
CUT
10
57.8283
20
246.4944
0
VERTEX
8
CUT
10
57.8461
20
246.6367
0
VERTEX
8
CUT
10
57.8591
20
246.8060
0
VERTEX
8
CUT
10
57.8634
20
246.9493
0
VERTEX
8
CUT
10
57.8584
20
247.2334
0
VERTEX
8
CUT
10
57.8555
20
247.3051
0
VERTEX
8
CUT
10
57.7755
20
248.5424
0
VERTEX
8
CUT
10
57.7684
20
248.6205
0
VERTEX
8
CUT
10
57.7324
20
248.9289
0
VERTEX
8
CUT
10
57.7062
20
249.0835
0
VERTEX
8
CUT
10
57.6659
20
249.2644
0
VERTEX
8
CUT
10
57.6240
20
249.4154
0
VERTEX
8
CUT
10
57.5256
20
249.7099
0
VERTEX
8
CUT
10
57.4989
20
249.7835
0
VERTEX
8
CUT
10
57.4011
20
250.0326
0
VERTEX
8
CUT
10
57.3743
20
250.0967
0
VERTEX
8
CUT
10
57.2619
20
250.3484
0
VERTEX
8
CUT
10
57.1995
20
250.4726
0
VERTEX
8
CUT
10
57.0647
20
250.7129
0
VERTEX
8
CUT
10
57.0294
20
250.7727
0
VERTEX
8
CUT
10
56.8146
20
251.1176
0
VERTEX
8
CUT
10
56.7790
20
251.1721
0
VERTEX
8
CUT
10
56.6332
20
251.3853
0
VERTEX
8
CUT
10
56.5551
20
251.4896
0
VERTEX
8
CUT
10
56.4574
20
251.6091
0
VERTEX
8
CUT
10
56.3707
20
251.7063
0
VERTEX
8
CUT
10
56.1907
20
251.8915
0
VERTEX
8
CUT
10
56.1443
20
251.9372
0
VERTEX
8
CUT
10
55.4809
20
252.5635
0
VERTEX
8
CUT
10
55.4308
20
252.6087
0
VERTEX
8
CUT
10
55.2283
20
252.7836
0
VERTEX
8
CUT
10
55.1223
20
252.8671
0
VERTEX
8
CUT
10
54.9925
20
252.9604
0
VERTEX
8
CUT
10
54.8796
20
253.0343
0
VERTEX
8
CUT
10
54.6494
20
253.1706
0
VERTEX
8
CUT
10
54.5906
20
253.2036
0
VERTEX
8
CUT
10
54.3446
20
253.3349
0
VERTEX
8
CUT
10
54.2752
20
253.3697
0
VERTEX
8
CUT
10
53.9969
20
253.5005
0
VERTEX
8
CUT
10
53.8532
20
253.5592
0
VERTEX
8
CUT
10
53.5631
20
253.6608
0
VERTEX
8
CUT
10
53.4892
20
253.6846
0
VERTEX
8
CUT
10
52.9834
20
253.8334
0
VERTEX
8
CUT
10
52.9075
20
253.8536
0
VERTEX
8
CUT
10
52.6046
20
253.9258
0
VERTEX
8
CUT
10
52.4501
20
253.9544
0
VERTEX
8
CUT
10
52.1415
20
253.9950
0
VERTEX
8
CUT
10
52.0634
20
254.0032
0
VERTEX
8
CUT
10
51.8068
20
254.0236
0
VERTEX
8
CUT
10
51.7177
20
254.0280
0
VERTEX
8
CUT
10
51.3645
20
254.0353
0
VERTEX
8
CUT
10
51.1862
20
254.0284
0
VERTEX
8
CUT
10
50.8347
20
253.9943
0
VERTEX
8
CUT
10
50.7462
20
253.9830
0
VERTEX
8
CUT
10
50.6446
20
253.9671
0
VERTEX
8
CUT
10
50.5764
20
253.9548
0
VERTEX
8
CUT
10
50.3073
20
253.8999
0
VERTEX
8
CUT
10
50.1730
20
253.8661
0
VERTEX
8
CUT
10
50.0160
20
253.8188
0
VERTEX
8
CUT
10
49.8853
20
253.7729
0
VERTEX
8
CUT
10
49.6307
20
253.6702
0
VERTEX
8
CUT
10
49.5671
20
253.6428
0
VERTEX
8
CUT
10
48.6212
20
253.2101
0
VERTEX
8
CUT
10
48.5634
20
253.1822
0
VERTEX
8
CUT
10
48.3368
20
253.0667
0
VERTEX
8
CUT
10
48.2250
20
253.0036
0
VERTEX
8
CUT
10
48.0959
20
252.9235
0
VERTEX
8
CUT
10
47.9898
20
252.8512
0
VERTEX
8
CUT
10
47.7858
20
252.6993
0
VERTEX
8
CUT
10
47.7352
20
252.6599
0
VERTEX
8
CUT
10
47.1805
20
252.2091
0
VERTEX
8
CUT
10
47.1312
20
252.1673
0
VERTEX
8
CUT
10
46.9394
20
251.9974
0
VERTEX
8
CUT
10
46.8464
20
251.9077
0
VERTEX
8
CUT
10
46.7408
20
251.7969
0
VERTEX
8
CUT
10
46.6558
20
251.6996
0
VERTEX
8
CUT
10
46.4956
20
251.4998
0
VERTEX
8
CUT
10
46.4562
20
251.4485
0
VERTEX
8
CUT
10
46.1096
20
250.9764
0
VERTEX
8
CUT
10
46.0690
20
250.9183
0
VERTEX
8
CUT
10
45.9134
20
250.6842
0
VERTEX
8
CUT
10
45.8404
20
250.5625
0
VERTEX
8
CUT
10
45.7609
20
250.4146
0
VERTEX
8
CUT
10
45.6996
20
250.2867
0
VERTEX
8
CUT
10
45.5902
20
250.0278
0
VERTEX
8
CUT
10
45.5641
20
249.9618
0
VERTEX
8
CUT
10
45.3568
20
249.3996
0
VERTEX
8
CUT
10
45.3353
20
249.3372
0
VERTEX
8
CUT
10
45.2556
20
249.0883
0
VERTEX
8
CUT
10
45.2208
20
248.9611
0
VERTEX
8
CUT
10
45.1863
20
248.8089
0
VERTEX
8
CUT
10
45.1627
20
248.6792
0
VERTEX
8
CUT
10
45.1272
20
248.4203
0
VERTEX
8
CUT
10
45.1196
20
248.3548
0
VERTEX
8
CUT
10
45.0705
20
247.8289
0
VERTEX
8
CUT
10
45.0658
20
247.7631
0
VERTEX
8
CUT
10
45.0528
20
247.5019
0
VERTEX
8
CUT
10
45.0520
20
247.3700
0
VERTEX
8
CUT
10
45.0578
20
247.2138
0
VERTEX
8
CUT
10
45.0684
20
247.0823
0
VERTEX
8
CUT
10
45.1008
20
246.8228
0
VERTEX
8
CUT
10
45.1104
20
246.7576
0
VERTEX
8
CUT
10
45.2021
20
246.2146
0
VERTEX
8
CUT
10
45.2137
20
246.1533
0
VERTEX
8
CUT
10
45.2649
20
245.9115
0
VERTEX
8
CUT
10
45.2957
20
245.7907
0
SEQEND
0
ENDSEC
0
EOF
