0
SECTION
2
HEADER
9
$ACADVER
1
AC1009
9
$INSUNITS
70
4
0
ENDSEC
0
SECTION
2
TABLES
0
TABLE
2
LAYER
70
1
0
LAYER
2
CUT
70
0
62
7
6
CONTINUOUS
0
ENDTAB
0
ENDSEC
0
SECTION
2
ENTITIES
0
POLYLINE
8
CUT
66
1
70
1
10
0.0
20
0.0
30
0.0
0
VERTEX
8
CUT
10
133.2076
20
114.7855
0
VERTEX
8
CUT
10
133.2469
20
114.6676
0
VERTEX
8
CUT
10
133.4022
20
114.2015
0
VERTEX
8
CUT
10
133.4557
20
113.4930
0
VERTEX
8
CUT
10
133.4069
20
113.1869
0
VERTEX
8
CUT
10
133.2160
20
112.3608
0
VERTEX
8
CUT
10
132.7068
20
111.6082
0
VERTEX
8
CUT
10
132.2252
20
111.0180
0
VERTEX
8
CUT
10
132.1850
20
110.9881
0
VERTEX
8
CUT
10
131.4806
20
110.6174
0
VERTEX
8
CUT
10
130.9331
20
110.3407
0
VERTEX
8
CUT
10
130.9062
20
110.3379
0
VERTEX
8
CUT
10
130.8567
20
110.3326
0
VERTEX
8
CUT
10
130.5656
20
110.3017
0
VERTEX
8
CUT
10
129.5101
20
110.1896
0
VERTEX
8
CUT
10
127.3568
20
111.1342
0
VERTEX
8
CUT
10
125.2288
20
110.9351
0
VERTEX
8
CUT
10
118.7349
20
113.0216
0
VERTEX
8
CUT
10
117.0148
20
113.7823
0
VERTEX
8
CUT
10
116.0781
20
114.4412
0
VERTEX
8
CUT
10
116.0728
20
114.4517
0
VERTEX
8
CUT
10
116.0724
20
114.4525
0
VERTEX
8
CUT
10
116.0535
20
114.4898
0
VERTEX
8
CUT
10
115.9807
20
114.6335
0
VERTEX
8
CUT
10
115.4804
20
116.5333
0
VERTEX
8
CUT
10
115.3779
20
118.4370
0
VERTEX
8
CUT
10
115.9203
20
121.6641
0
VERTEX
8
CUT
10
117.2048
20
124.8257
0
VERTEX
8
CUT
10
118.1014
20
126.3899
0
VERTEX
8
CUT
10
120.4644
20
129.3585
0
VERTEX
8
CUT
10
123.7521
20
132.1654
0
VERTEX
8
CUT
10
123.9312
20
132.2997
0
VERTEX
8
CUT
10
127.4572
20
134.2500
0
VERTEX
8
CUT
10
127.4585
20
134.2505
0
VERTEX
8
CUT
10
127.4696
20
134.2548
0
VERTEX
8
CUT
10
127.5159
20
134.2728
0
VERTEX
8
CUT
10
127.9457
20
134.4405
0
VERTEX
8
CUT
10
131.4731
20
135.4910
0
VERTEX
8
CUT
10
131.6251
20
135.5130
0
VERTEX
8
CUT
10
131.7784
20
135.5352
0
VERTEX
8
CUT
10
131.9692
20
135.5629
0
VERTEX
8
CUT
10
132.4261
20
135.6292
0
VERTEX
8
CUT
10
135.2060
20
135.8828
0
VERTEX
8
CUT
10
135.9948
20
135.8739
0
VERTEX
8
CUT
10
136.0796
20
135.8729
0
VERTEX
8
CUT
10
136.1118
20
135.8726
0
VERTEX
8
CUT
10
136.1338
20
135.8723
0
VERTEX
8
CUT
10
139.5235
20
135.4591
0
VERTEX
8
CUT
10
142.9269
20
134.1588
0
VERTEX
8
CUT
10
145.6065
20
132.1087
0
VERTEX
8
CUT
10
145.8062
20
131.8783
0
VERTEX
8
CUT
10
145.8118
20
131.8718
0
VERTEX
8
CUT
10
145.8122
20
131.8714
0
VERTEX
8
CUT
10
146.0331
20
131.6166
0
VERTEX
8
CUT
10
147.7105
20
129.1746
0
VERTEX
8
CUT
10
147.8074
20
129.0043
0
VERTEX
8
CUT
10
148.7352
20
126.3693
0
VERTEX
8
CUT
10
148.9073
20
124.7682
0
VERTEX
8
CUT
10
148.4737
20
122.8830
0
VERTEX
8
CUT
10
147.3672
20
120.7918
0
VERTEX
8
CUT
10
145.5410
20
118.2323
0
VERTEX
8
CUT
10
144.3458
20
117.0027
0
VERTEX
8
CUT
10
143.2185
20
116.1544
0
VERTEX
8
CUT
10
141.4239
20
115.4232
0
VERTEX
8
CUT
10
140.5749
20
115.4825
0
VERTEX
8
CUT
10
140.2755
20
115.7731
0
VERTEX
8
CUT
10
140.0897
20
116.2816
0
VERTEX
8
CUT
10
139.9191
20
118.2445
0
VERTEX
8
CUT
10
139.9224
20
118.6423
0
VERTEX
8
CUT
10
139.8215
20
119.3667
0
VERTEX
8
CUT
10
139.6908
20
120.8708
0
VERTEX
8
CUT
10
139.1238
20
122.9288
0
VERTEX
8
CUT
10
139.0482
20
123.2411
0
VERTEX
8
CUT
10
139.0123
20
123.3333
0
VERTEX
8
CUT
10
138.8204
20
124.0302
0
VERTEX
8
CUT
10
138.2036
20
125.4957
0
VERTEX
8
CUT
10
137.6739
20
126.3619
0
VERTEX
8
CUT
10
137.2532
20
127.1349
0
VERTEX
8
CUT
10
137.2252
20
127.1714
0
VERTEX
8
CUT
10
137.1764
20
127.2664
0
VERTEX
8
CUT
10
136.9699
20
127.5131
0
VERTEX
8
CUT
10
136.6549
20
128.0282
0
VERTEX
8
CUT
10
136.3412
20
128.3249
0
VERTEX
8
CUT
10
136.2205
20
128.4824
0
VERTEX
8
CUT
10
135.8808
20
128.7604
0
VERTEX
8
CUT
10
134.9187
20
129.6705
0
VERTEX
8
CUT
10
134.0498
20
130.0042
0
VERTEX
8
CUT
10
132.9243
20
129.4933
0
VERTEX
8
CUT
10
131.9157
20
128.7162
0
VERTEX
8
CUT
10
131.4432
20
128.1161
0
VERTEX
8
CUT
10
130.9144
20
127.4895
0
VERTEX
8
CUT
10
130.8414
20
127.3516
0
VERTEX
8
CUT
10
130.2803
20
126.6388
0
VERTEX
8
CUT
10
129.5589
20
125.2048
0
VERTEX
8
CUT
10
129.1613
20
124.1792
0
VERTEX
8
CUT
10
129.1374
20
124.1341
0
VERTEX
8
CUT
10
129.1244
20
124.0841
0
VERTEX
8
CUT
10
128.9269
20
123.5744
0
VERTEX
8
CUT
10
128.0211
20
119.9508
0
VERTEX
8
CUT
10
127.7200
20
116.1722
0
VERTEX
8
CUT
10
128.1865
20
115.8948
0
VERTEX
8
CUT
10
129.5346
20
116.7019
0
VERTEX
8
CUT
10
130.8162
20
116.8837
0
VERTEX
8
CUT
10
131.7335
20
116.5494
0
VERTEX
8
CUT
10
132.2420
20
116.1666
0
VERTEX
8
CUT
10
132.5005
20
115.9679
0
VERTEX
8
CUT
10
132.5211
20
115.9415
0
VERTEX
8
CUT
10
133.1843
20
114.8554
0
VERTEX
8
CUT
10
133.1931
20
114.8291
0
SEQEND
0
POLYLINE
8
CUT
66
1
70
1
10
0.0
20
0.0
30
0.0
0
VERTEX
8
CUT
10
25.3532
20
237.7188
0
VERTEX
8
CUT
10
25.6197
20
238.0091
0
VERTEX
8
CUT
10
25.8967
20
238.2298
0
VERTEX
8
CUT
10
25.9044
20
238.2333
0
VERTEX
8
CUT
10
26.2910
20
238.3456
0
VERTEX
8
CUT
10
26.5046
20
238.3929
0
VERTEX
8
CUT
10
27.0802
20
238.3052
0
VERTEX
8
CUT
10
27.3306
20
238.2135
0
VERTEX
8
CUT
10
27.4246
20
238.1577
0
VERTEX
8
CUT
10
27.5531
20
238.0813
0
VERTEX
8
CUT
10
27.8040
20
237.9323
0
VERTEX
8
CUT
10
28.3136
20
237.6296
0
VERTEX
8
CUT
10
28.5213
20
237.4775
0
VERTEX
8
CUT
10
44.1621
20
223.1535
0
VERTEX
8
CUT
10
48.7282
20
219.3999
0
VERTEX
8
CUT
10
49.3354
20
219.3520
0
VERTEX
8
CUT
10
49.7221
20
220.2121
0
VERTEX
8
CUT
10
50.3052
20
223.6353
0
VERTEX
8
CUT
10
50.2713
20
225.3729
0
VERTEX
8
CUT
10
49.9780
20
227.1515
0
VERTEX
8
CUT
10
48.5722
20
231.5582
0
VERTEX
8
CUT
10
44.7165
20
240.4915
0
VERTEX
8
CUT
10
43.8231
20
243.1088
0
VERTEX
8
CUT
10
42.7346
20
247.9265
0
VERTEX
8
CUT
10
42.7039
20
248.1407
0
VERTEX
8
CUT
10
42.7003
20
248.1660
0
VERTEX
8
CUT
10
42.6937
20
248.2125
0
VERTEX
8
CUT
10
42.6921
20
248.2237
0
VERTEX
8
CUT
10
42.5198
20
252.3309
0
VERTEX
8
CUT
10
42.5250
20
253.0807
0
VERTEX
8
CUT
10
42.7046
20
255.1032
0
VERTEX
8
CUT
10
43.1725
20
257.3312
0
VERTEX
8
CUT
10
43.9893
20
259.8469
0
VERTEX
8
CUT
10
45.1070
20
262.2521
0
VERTEX
8
CUT
10
46.4118
20
264.3725
0
VERTEX
8
CUT
10
47.9757
20
266.2751
0
VERTEX
8
CUT
10
49.6741
20
267.8454
0
VERTEX
8
CUT
10
51.4303
20
269.0634
0
VERTEX
8
CUT
10
51.6404
20
269.1649
0
VERTEX
8
CUT
10
51.6554
20
269.1722
0
VERTEX
8
CUT
10
51.6696
20
269.1790
0
VERTEX
8
CUT
10
51.8548
20
269.2685
0
VERTEX
8
CUT
10
53.4850
20
269.9753
0
VERTEX
8
CUT
10
57.3508
20
270.8373
0
VERTEX
8
CUT
10
58.3837
20
271.4439
0
VERTEX
8
CUT
10
58.9245
20
271.6561
0
VERTEX
8
CUT
10
58.9369
20
271.6601
0
VERTEX
8
CUT
10
59.1561
20
271.5619
0
VERTEX
8
CUT
10
60.0281
20
270.7898
0
VERTEX
8
CUT
10
60.4688
20
270.2674
0
VERTEX
8
CUT
10
61.6694
20
268.2034
0
VERTEX
8
CUT
10
67.0499
20
256.7847
0
VERTEX
8
CUT
10
71.2509
20
248.7759
0
VERTEX
8
CUT
10
72.4816
20
246.9722
0
VERTEX
8
CUT
10
72.5762
20
246.8233
0
VERTEX
8
CUT
10
72.6095
20
246.7847
0
VERTEX
8
CUT
10
73.0576
20
246.1280
0
VERTEX
8
CUT
10
73.4140
20
245.9070
0
VERTEX
8
CUT
10
73.7140
20
245.9628
0
VERTEX
8
CUT
10
74.6279
20
247.5289
0
VERTEX
8
CUT
10
74.7250
20
247.8626
0
VERTEX
8
CUT
10
74.7295
20
247.8695
0
VERTEX
8
CUT
10
74.7377
20
247.9062
0
VERTEX
8
CUT
10
75.3466
20
249.9972
0
VERTEX
8
CUT
10
75.6096
20
252.5221
0
VERTEX
8
CUT
10
75.4929
20
253.7696
0
VERTEX
8
CUT
10
75.2855
20
253.9802
0
VERTEX
8
CUT
10
74.9554
20
253.9690
0
VERTEX
8
CUT
10
74.4776
20
253.1796
0
VERTEX
8
CUT
10
73.9310
20
252.9951
0
VERTEX
8
CUT
10
73.3222
20
253.2681
0
VERTEX
8
CUT
10
72.6830
20
253.8755
0
VERTEX
8
CUT
10
71.2194
20
256.0734
0
VERTEX
8
CUT
10
67.1771
20
263.6002
0
VERTEX
8
CUT
10
66.8947
20
264.4476
0
VERTEX
8
CUT
10
67.2773
20
264.8815
0
VERTEX
8
CUT
10
70.2311
20
266.6860
0
VERTEX
8
CUT
10
73.1855
20
268.8545
0
VERTEX
8
CUT
10
73.6291
20
268.8157
0
VERTEX
8
CUT
10
73.9174
20
268.5445
0
VERTEX
8
CUT
10
74.3122
20
267.2140
0
VERTEX
8
CUT
10
74.8607
20
267.2348
0
VERTEX
8
CUT
10
75.9243
20
271.9674
0
VERTEX
8
CUT
10
77.1346
20
275.3366
0
VERTEX
8
CUT
10
78.3158
20
277.6024
0
VERTEX
8
CUT
10
78.5344
20
278.0112
0
VERTEX
8
CUT
10
79.3047
20
279.2344
0
VERTEX
8
CUT
10
80.4492
20
280.8435
0
VERTEX
8
CUT
10
82.9740
20
283.5126
0
VERTEX
8
CUT
10
83.1329
20
283.6415
0
VERTEX
8
CUT
10
85.2784
20
285.2353
0
VERTEX
8
CUT
10
85.7080
20
285.4868
0
VERTEX
8
CUT
10
88.1110
20
286.5998
0
VERTEX
8
CUT
10
90.4676
20
287.1161
0
VERTEX
8
CUT
10
90.7476
20
287.1162
0
VERTEX
8
CUT
10
91.1471
20
287.1164
0
VERTEX
8
CUT
10
91.7228
20
287.1167
0
VERTEX
8
CUT
10
93.1225
20
287.1174
0
VERTEX
8
CUT
10
93.9420
20
286.9835
0
VERTEX
8
CUT
10
94.6704
20
286.7816
0
VERTEX
8
CUT
10
94.9819
20
286.6952
0
VERTEX
8
CUT
10
95.0689
20
286.6711
0
VERTEX
8
CUT
10
95.2045
20
286.6335
0
VERTEX
8
CUT
10
96.5467
20
285.9418
0
VERTEX
8
CUT
10
96.9582
20
285.7075
0
VERTEX
8
CUT
10
96.9968
20
285.6856
0
VERTEX
8
CUT
10
97.0114
20
285.6773
0
VERTEX
8
CUT
10
97.0134
20
285.6761
0
VERTEX
8
CUT
10
98.7011
20
283.9521
0
VERTEX
8
CUT
10
99.4358
20
282.8463
0
VERTEX
8
CUT
10
100.1338
20
281.2831
0
VERTEX
8
CUT
10
100.4431
20
279.2504
0
VERTEX
8
CUT
10
100.7719
20
273.4800
0
VERTEX
8
CUT
10
101.0519
20
273.2938
0
VERTEX
8
CUT
10
102.8991
20
273.2149
0
VERTEX
8
CUT
10
103.1864
20
273.2272
0
VERTEX
8
CUT
10
103.3148
20
273.2154
0
VERTEX
8
CUT
10
103.6237
20
273.2460
0
VERTEX
8
CUT
10
105.0827
20
273.3088
0
VERTEX
8
CUT
10
107.0122
20
273.8806
0
VERTEX
8
CUT
10
107.9875
20
274.3851
0
VERTEX
8
CUT
10
109.8678
20
275.8203
0
VERTEX
8
CUT
10
111.5890
20
277.5097
0
VERTEX
8
CUT
10
112.7204
20
278.9684
0
VERTEX
8
CUT
10
113.9148
20
281.0353
0
VERTEX
8
CUT
10
117.6588
20
288.5818
0
VERTEX
8
CUT
10
118.5539
20
289.9204
0
VERTEX
8
CUT
10
118.6287
20
290.0056
0
VERTEX
8
CUT
10
118.6414
20
290.0201
0
VERTEX
8
CUT
10
118.7773
20
290.1750
0
VERTEX
8
CUT
10
119.1417
20
290.5906
0
VERTEX
8
CUT
10
120.7064
20
292.2488
0
VERTEX
8
CUT
10
121.4183
20
292.8118
0
VERTEX
8
CUT
10
122.1881
20
293.3589
0
VERTEX
8
CUT
10
124.9471
20
294.5289
0
VERTEX
8
CUT
10
125.5382
20
294.6356
0
VERTEX
8
CUT
10
128.0871
20
294.7394
0
VERTEX
8
CUT
10
128.6178
20
294.7542
0
VERTEX
8
CUT
10
130.5783
20
294.5090
0
VERTEX
8
CUT
10
130.8330
20
294.9309
0
VERTEX
8
CUT
10
131.1247
20
296.6352
0
VERTEX
8
CUT
10
131.3760
20
297.3733
0
VERTEX
8
CUT
10
131.8220
20
298.1057
0
VERTEX
8
CUT
10
132.2672
20
298.5713
0
VERTEX
8
CUT
10
132.5555
20
298.8369
0
VERTEX
8
CUT
10
132.8604
20
299.0395
0
VERTEX
8
CUT
10
133.7617
20
299.4904
0
VERTEX
8
CUT
10
135.0370
20
299.7625
0
VERTEX
8
CUT
10
136.3277
20
299.6767
0
VERTEX
8
CUT
10
136.4739
20
299.6670
0
VERTEX
8
CUT
10
136.7780
20
299.6468
0
VERTEX
8
CUT
10
137.3940
20
299.6059
0
VERTEX
8
CUT
10
138.0089
20
299.4991
0
VERTEX
8
CUT
10
140.4864
20
298.5434
0
VERTEX
8
CUT
10
141.5617
20
297.8667
0
VERTEX
8
CUT
10
142.5700
20
296.8692
0
VERTEX
8
CUT
10
143.7523
20
297.5272
0
VERTEX
8
CUT
10
145.0277
20
297.2088
0
VERTEX
8
CUT
10
145.2587
20
297.0680
0
VERTEX
8
CUT
10
145.4189
20
296.9704
0
VERTEX
8
CUT
10
146.0376
20
296.5932
0
VERTEX
8
CUT
10
146.9722
20
296.0236
0
VERTEX
8
CUT
10
148.1245
20
295.1256
0
VERTEX
8
CUT
10
150.8629
20
292.1563
0
VERTEX
8
CUT
10
154.6800
20
286.3208
0
VERTEX
8
CUT
10
154.8481
20
286.1044
0
VERTEX
8
CUT
10
154.8743
20
286.0615
0
VERTEX
8
CUT
10
155.9665
20
284.6125
0
VERTEX
8
CUT
10
156.0879
20
284.4250
0
VERTEX
8
CUT
10
156.1689
20
284.3441
0
VERTEX
8
CUT
10
156.3577
20
284.0936
0
VERTEX
8
CUT
10
156.5790
20
283.8779
0
VERTEX
8
CUT
10
156.9372
20
283.4171
0
VERTEX
8
CUT
10
157.9823
20
282.4784
0
VERTEX
8
CUT
10
158.8741
20
281.9459
0
VERTEX
8
CUT
10
159.6826
20
281.7637
0
VERTEX
8
CUT
10
160.4331
20
281.9367
0
VERTEX
8
CUT
10
161.0909
20
282.4076
0
VERTEX
8
CUT
10
161.1865
20
282.5976
0
VERTEX
8
CUT
10
161.2643
20
282.6650
0
VERTEX
8
CUT
10
161.3750
20
282.8690
0
VERTEX
8
CUT
10
161.3955
20
282.8932
0
VERTEX
8
CUT
10
161.4068
20
282.9279
0
VERTEX
8
CUT
10
161.5398
20
283.1731
0
VERTEX
8
CUT
10
161.6187
20
283.2756
0
VERTEX
8
CUT
10
161.6143
20
283.3107
0
VERTEX
8
CUT
10
161.6427
20
283.3630
0
VERTEX
8
CUT
10
161.6494
20
283.5173
0
VERTEX
8
CUT
10
161.6694
20
283.5570
0
VERTEX
8
CUT
10
161.6642
20
283.8574
0
VERTEX
8
CUT
10
161.6977
20
284.6307
0
VERTEX
8
CUT
10
161.6466
20
284.8632
0
VERTEX
8
CUT
10
161.6381
20
285.3481
0
VERTEX
8
CUT
10
161.1502
20
287.7948
0
VERTEX
8
CUT
10
160.9104
20
289.1904
0
VERTEX
8
CUT
10
160.9103
20
290.7811
0
VERTEX
8
CUT
10
161.1687
20
292.2458
0
VERTEX
8
CUT
10
161.4513
20
293.1710
0
VERTEX
8
CUT
10
161.7203
20
293.9319
0
VERTEX
8
CUT
10
161.7669
20
294.0327
0
VERTEX
8
CUT
10
163.0472
20
296.0573
0
VERTEX
8
CUT
10
163.2162
20
296.2569
0
VERTEX
8
CUT
10
163.9746
20
297.0695
0
VERTEX
8
CUT
10
164.2392
20
297.2882
0
VERTEX
8
CUT
10
164.9236
20
297.7774
0
VERTEX
8
CUT
10
164.9467
20
297.7939
0
VERTEX
8
CUT
10
165.0557
20
297.8718
0
VERTEX
8
CUT
10
165.6018
20
298.2622
0
VERTEX
8
CUT
10
167.0309
20
299.0394
0
VERTEX
8
CUT
10
167.2179
20
299.1108
0
VERTEX
8
CUT
10
169.6429
20
299.6329
0
VERTEX
8
CUT
10
169.6448
20
299.6331
0
VERTEX
8
CUT
10
169.6492
20
299.6335
0
VERTEX
8
CUT
10
169.6507
20
299.6336
0
VERTEX
8
CUT
10
169.6694
20
299.6353
0
VERTEX
8
CUT
10
170.8029
20
299.6354
0
VERTEX
8
CUT
10
172.8363
20
299.5406
0
VERTEX
8
CUT
10
174.1261
20
299.2989
0
VERTEX
8
CUT
10
175.6619
20
298.6651
0
VERTEX
8
CUT
10
176.3000
20
298.3449
0
VERTEX
8
CUT
10
178.3755
20
296.9614
0
VERTEX
8
CUT
10
178.3788
20
296.9590
0
VERTEX
8
CUT
10
178.3811
20
296.9572
0
VERTEX
8
CUT
10
178.4033
20
296.9404
0
VERTEX
8
CUT
10
178.8024
20
296.6388
0
VERTEX
8
CUT
10
179.3268
20
296.1443
0
VERTEX
8
CUT
10
180.7835
20
294.5029
0
VERTEX
8
CUT
10
181.8215
20
293.2082
0
VERTEX
8
CUT
10
181.8256
20
293.2019
0
VERTEX
8
CUT
10
181.8899
20
293.1026
0
VERTEX
8
CUT
10
182.0740
20
292.8185
0
VERTEX
8
CUT
10
182.7899
20
291.5964
0
VERTEX
8
CUT
10
182.8440
20
291.4999
0
VERTEX
8
CUT
10
184.1593
20
287.8315
0
VERTEX
8
CUT
10
184.5361
20
287.8505
0
VERTEX
8
CUT
10
186.9770
20
289.5941
0
VERTEX
8
CUT
10
188.3613
20
290.2326
0
VERTEX
8
CUT
10
189.0470
20
290.4780
0
VERTEX
8
CUT
10
190.3345
20
290.7883
0
VERTEX
8
CUT
10
190.3793
20
290.7974
0
VERTEX
8
CUT
10
190.4893
20
290.8196
0
VERTEX
8
CUT
10
190.5373
20
290.8293
0
VERTEX
8
CUT
10
190.6016
20
290.8423
0
VERTEX
8
CUT
10
191.7676
20
290.9239
0
VERTEX
8
CUT
10
192.4690
20
290.9394
0
VERTEX
8
CUT
10
193.0443
20
290.8900
0
VERTEX
8
CUT
10
194.2407
20
290.7371
0
VERTEX
8
CUT
10
195.9947
20
290.2086
0
VERTEX
8
CUT
10
197.7000
20
289.3028
0
VERTEX
8
CUT
10
199.1346
20
288.0982
0
VERTEX
8
CUT
10
200.2107
20
286.8810
0
VERTEX
8
CUT
10
201.0111
20
285.5435
0
VERTEX
8
CUT
10
202.0209
20
283.2133
0
VERTEX
8
CUT
10
202.3829
20
283.2362
0
VERTEX
8
CUT
10
202.5652
20
283.5099
0
VERTEX
8
CUT
10
202.5223
20
286.0821
0
VERTEX
8
CUT
10
202.7484
20
286.8929
0
VERTEX
8
CUT
10
202.9878
20
286.9839
0
VERTEX
8
CUT
10
203.3034
20
286.8452
0
VERTEX
8
CUT
10
203.9319
20
286.3325
0
VERTEX
8
CUT
10
205.0394
20
285.1702
0
VERTEX
8
CUT
10
207.3770
20
282.1047
0
VERTEX
8
CUT
10
207.4199
20
282.0323
0
VERTEX
8
CUT
10
207.4592
20
281.9554
0
VERTEX
8
CUT
10
208.7322
20
279.1513
0
VERTEX
8
CUT
10
209.6267
20
275.5325
0
VERTEX
8
CUT
10
210.6151
20
266.4416
0
VERTEX
8
CUT
10
211.1343
20
264.0403
0
VERTEX
8
CUT
10
211.8468
20
261.8985
0
VERTEX
8
CUT
10
213.2067
20
259.2386
0
VERTEX
8
CUT
10
214.3093
20
257.7402
0
VERTEX
8
CUT
10
215.6567
20
256.4632
0
VERTEX
8
CUT
10
215.9895
20
256.0885
0
VERTEX
8
CUT
10
216.2454
20
255.9053
0
VERTEX
8
CUT
10
216.7215
20
255.4540
0
VERTEX
8
CUT
10
217.9046
20
254.7832
0
VERTEX
8
CUT
10
219.0348
20
254.4414
0
VERTEX
8
CUT
10
219.2237
20
254.4596
0
VERTEX
8
CUT
10
219.3843
20
254.3898
0
VERTEX
8
CUT
10
219.7612
20
254.4478
0
VERTEX
8
CUT
10
219.8244
20
254.5173
0
VERTEX
8
CUT
10
219.9445
20
254.5289
0
VERTEX
8
CUT
10
220.1613
20
254.6965
0
VERTEX
8
CUT
10
220.2550
20
254.7215
0
VERTEX
8
CUT
10
220.3602
20
254.8503
0
VERTEX
8
CUT
10
220.8302
20
255.2138
0
VERTEX
8
CUT
10
221.0068
20
255.7595
0
VERTEX
8
CUT
10
221.0025
20
255.8134
0
VERTEX
8
CUT
10
221.0946
20
255.9147
0
VERTEX
8
CUT
10
220.9676
20
256.2493
0
VERTEX
8
CUT
10
220.9442
20
256.5424
0
VERTEX
8
CUT
10
220.1278
20
258.8163
0
VERTEX
8
CUT
10
219.6900
20
260.1484
0
VERTEX
8
CUT
10
219.5484
20
261.0001
0
VERTEX
8
CUT
10
219.5440
20
261.3063
0
VERTEX
8
CUT
10
219.5396
20
261.6146
0
VERTEX
8
CUT
10
219.5381
20
261.7218
0
VERTEX
8
CUT
10
219.5360
20
261.8680
0
VERTEX
8
CUT
10
220.0024
20
263.8022
0
VERTEX
8
CUT
10
220.0120
20
263.8164
0
VERTEX
8
CUT
10
220.0211
20
263.8299
0
VERTEX
8
CUT
10
220.1206
20
263.9775
0
VERTEX
8
CUT
10
220.2654
20
264.1922
0
VERTEX
8
CUT
10
220.5065
20
264.5111
0
VERTEX
8
CUT
10
221.5984
20
265.3798
0
VERTEX
8
CUT
10
221.7933
20
265.5062
0
VERTEX
8
CUT
10
223.9953
20
265.8999
0
VERTEX
8
CUT
10
225.7174
20
265.6501
0
VERTEX
8
CUT
10
227.3050
20
265.0001
0
VERTEX
8
CUT
10
228.8253
20
263.9412
0
VERTEX
8
CUT
10
230.2987
20
262.5015
0
VERTEX
8
CUT
10
231.6466
20
260.7122
0
VERTEX
8
CUT
10
232.8212
20
258.6893
0
VERTEX
8
CUT
10
233.8688
20
256.2920
0
VERTEX
8
CUT
10
235.0572
20
252.0656
0
VERTEX
8
CUT
10
235.4896
20
248.2201
0
VERTEX
8
CUT
10
235.4895
20
244.0861
0
VERTEX
8
CUT
10
235.0557
20
240.4003
0
VERTEX
8
CUT
10
234.7160
20
238.9203
0
VERTEX
8
CUT
10
233.6352
20
236.0054
0
VERTEX
8
CUT
10
231.9694
20
232.7992
0
VERTEX
8
CUT
10
232.0701
20
232.3822
0
VERTEX
8
CUT
10
232.6163
20
232.3966
0
VERTEX
8
CUT
10
232.8096
20
232.6257
0
VERTEX
8
CUT
10
232.8690
20
232.6245
0
VERTEX
8
CUT
10
234.1332
20
234.1947
0
VERTEX
8
CUT
10
235.3625
20
235.6518
0
VERTEX
8
CUT
10
238.6241
20
241.1510
0
VERTEX
8
CUT
10
240.0063
20
242.9343
0
VERTEX
8
CUT
10
242.2091
20
244.5306
0
VERTEX
8
CUT
10
242.2706
20
244.5524
0
VERTEX
8
CUT
10
244.3698
20
245.0118
0
VERTEX
8
CUT
10
245.6872
20
244.8702
0
VERTEX
8
CUT
10
246.7511
20
244.4404
0
VERTEX
8
CUT
10
248.3359
20
243.2281
0
VERTEX
8
CUT
10
248.7202
20
242.7906
0
VERTEX
8
CUT
10
248.7408
20
242.7576
0
VERTEX
8
CUT
10
248.7765
20
242.7002
0
VERTEX
8
CUT
10
248.8466
20
242.5877
0
VERTEX
8
CUT
10
249.3393
20
241.7973
0
VERTEX
8
CUT
10
249.6746
20
241.1593
0
VERTEX
8
CUT
10
250.1516
20
239.5824
0
VERTEX
8
CUT
10
250.3782
20
238.0894
0
VERTEX
8
CUT
10
250.4121
20
237.7772
0
VERTEX
8
CUT
10
250.2584
20
234.8216
0
VERTEX
8
CUT
10
249.8303
20
233.0121
0
VERTEX
8
CUT
10
248.4875
20
229.9919
0
VERTEX
8
CUT
10
247.4198
20
228.3522
0
VERTEX
8
CUT
10
242.3544
20
221.9931
0
VERTEX
8
CUT
10
242.2194
20
221.8324
0
VERTEX
8
CUT
10
242.1997
20
221.7988
0
VERTEX
8
CUT
10
242.1045
20
221.6794
0
VERTEX
8
CUT
10
240.8943
20
219.6808
0
VERTEX
8
CUT
10
239.7394
20
216.9225
0
VERTEX
8
CUT
10
239.3775
20
214.9506
0
VERTEX
8
CUT
10
239.3911
20
214.5078
0
VERTEX
8
CUT
10
239.3818
20
214.4377
0
VERTEX
8
CUT
10
239.4029
20
214.1215
0
VERTEX
8
CUT
10
239.4737
20
211.8063
0
VERTEX
8
CUT
10
239.9221
20
209.9329
0
VERTEX
8
CUT
10
240.7841
20
207.7734
0
VERTEX
8
CUT
10
240.7924
20
207.0947
0
VERTEX
8
CUT
10
236.9916
20
204.0804
0
VERTEX
8
CUT
10
233.3983
20
201.6985
0
VERTEX
8
CUT
10
230.9902
20
199.5635
0
VERTEX
8
CUT
10
228.9022
20
198.3484
0
VERTEX
8
CUT
10
226.5919
20
196.3471
0
VERTEX
8
CUT
10
225.7529
20
195.9073
0
VERTEX
8
CUT
10
224.9397
20
196.0075
0
VERTEX
8
CUT
10
222.8466
20
197.9971
0
VERTEX
8
CUT
10
220.8347
20
199.2409
0
VERTEX
8
CUT
10
215.7341
20
201.2497
0
VERTEX
8
CUT
10
213.8837
20
202.1918
0
VERTEX
8
CUT
10
211.5295
20
203.9486
0
VERTEX
8
CUT
10
209.5656
20
206.0089
0
VERTEX
8
CUT
10
207.6627
20
208.9053
0
VERTEX
8
CUT
10
206.4428
20
212.1225
0
VERTEX
8
CUT
10
205.9803
20
215.4347
0
VERTEX
8
CUT
10
206.3675
20
220.0178
0
VERTEX
8
CUT
10
205.8810
20
220.2846
0
VERTEX
8
CUT
10
205.1039
20
219.6672
0
VERTEX
8
CUT
10
202.6956
20
217.1496
0
VERTEX
8
CUT
10
202.6608
20
217.1213
0
VERTEX
8
CUT
10
202.6002
20
217.0499
0
VERTEX
8
CUT
10
201.5211
20
215.9218
0
VERTEX
8
CUT
10
200.9678
20
215.1251
0
VERTEX
8
CUT
10
200.7139
20
214.8258
0
VERTEX
8
CUT
10
200.6035
20
214.6006
0
VERTEX
8
CUT
10
200.1678
20
213.9730
0
VERTEX
8
CUT
10
199.2994
20
212.0690
0
VERTEX
8
CUT
10
198.1832
20
207.8985
0
VERTEX
8
CUT
10
197.5659
20
206.7452
0
VERTEX
8
CUT
10
201.3156
20
200.2261
0
VERTEX
8
CUT
10
202.2060
20
199.2645
0
VERTEX
8
CUT
10
202.6361
20
198.4047
0
VERTEX
8
CUT
10
203.1968
20
196.3268
0
VERTEX
8
CUT
10
203.3023
20
195.0459
0
VERTEX
8
CUT
10
203.1707
20
192.6386
0
VERTEX
8
CUT
10
203.0091
20
191.9872
0
VERTEX
8
CUT
10
202.2894
20
190.2418
0
VERTEX
8
CUT
10
202.0809
20
189.7997
0
VERTEX
8
CUT
10
200.5373
20
187.5418
0
VERTEX
8
CUT
10
199.6082
20
186.4299
0
VERTEX
8
CUT
10
196.4108
20
183.6279
0
VERTEX
8
CUT
10
192.9167
20
181.7440
0
VERTEX
8
CUT
10
191.2032
20
181.3029
0
VERTEX
8
CUT
10
188.9857
20
181.3358
0
VERTEX
8
CUT
10
184.7742
20
182.5327
0
VERTEX
8
CUT
10
181.7859
20
183.9257
0
VERTEX
8
CUT
10
179.0719
20
185.4623
0
VERTEX
8
CUT
10
175.8454
20
186.8631
0
VERTEX
8
CUT
10
166.1910
20
191.9701
0
VERTEX
8
CUT
10
161.4039
20
194.0998
0
VERTEX
8
CUT
10
157.6059
20
194.8778
0
VERTEX
8
CUT
10
153.0673
20
195.2064
0
VERTEX
8
CUT
10
150.0540
20
195.1402
0
VERTEX
8
CUT
10
144.7118
20
194.4183
0
VERTEX
8
CUT
10
143.8588
20
194.4506
0
VERTEX
8
CUT
10
141.0511
20
195.9906
0
VERTEX
8
CUT
10
137.7943
20
198.5767
0
VERTEX
8
CUT
10
136.8561
20
198.9272
0
VERTEX
8
CUT
10
136.5011
20
198.8309
0
VERTEX
8
CUT
10
136.3845
20
198.4820
0
VERTEX
8
CUT
10
136.6197
20
198.1384
0
VERTEX
8
CUT
10
142.3560
20
192.6113
0
VERTEX
8
CUT
10
143.3067
20
191.5803
0
VERTEX
8
CUT
10
143.6128
20
191.4003
0
VERTEX
8
CUT
10
143.8636
20
191.1587
0
VERTEX
8
CUT
10
144.6619
20
190.6379
0
VERTEX
8
CUT
10
145.1303
20
190.5523
0
VERTEX
8
CUT
10
149.2588
20
191.4207
0
VERTEX
8
CUT
10
151.8436
20
191.6388
0
VERTEX
8
CUT
10
155.4784
20
191.6183
0
VERTEX
8
CUT
10
157.7561
20
191.5055
0
VERTEX
8
CUT
10
162.6377
20
190.7139
0
VERTEX
8
CUT
10
164.0172
20
190.3508
0
VERTEX
8
CUT
10
164.4323
20
190.2329
0
VERTEX
8
CUT
10
164.6585
20
190.1686
0
VERTEX
8
CUT
10
164.9126
20
190.0963
0
VERTEX
8
CUT
10
165.5064
20
189.9276
0
VERTEX
8
CUT
10
170.5294
20
188.1285
0
VERTEX
8
CUT
10
176.5599
20
185.3604
0
VERTEX
8
CUT
10
181.0119
20
182.9863
0
VERTEX
8
CUT
10
184.8256
20
180.5645
0
VERTEX
8
CUT
10
184.8556
20
180.5439
0
VERTEX
8
CUT
10
187.8923
20
178.1602
0
VERTEX
8
CUT
10
190.3868
20
175.6306
0
VERTEX
8
CUT
10
192.1063
20
173.1810
0
VERTEX
8
CUT
10
193.2144
20
170.6244
0
VERTEX
8
CUT
10
193.5973
20
168.1532
0
VERTEX
8
CUT
10
193.3313
20
165.2384
0
VERTEX
8
CUT
10
193.3378
20
165.2277
0
VERTEX
8
CUT
10
193.2912
20
164.7564
0
VERTEX
8
CUT
10
193.5416
20
164.5280
0
VERTEX
8
CUT
10
194.7889
20
164.3362
0
VERTEX
8
CUT
10
195.5230
20
163.3234
0
VERTEX
8
CUT
10
195.8374
20
163.2039
0
VERTEX
8
CUT
10
196.1644
20
163.4416
0
VERTEX
8
CUT
10
196.2739
20
164.4861
0
VERTEX
8
CUT
10
196.8771
20
165.5455
0
VERTEX
8
CUT
10
195.4410
20
168.3531
0
VERTEX
8
CUT
10
195.1145
20
169.1814
0
VERTEX
8
CUT
10
194.5667
20
171.5735
0
VERTEX
8
CUT
10
194.5348
20
171.7521
0
VERTEX
8
CUT
10
194.5297
20
171.7810
0
VERTEX
8
CUT
10
194.5234
20
171.8165
0
VERTEX
8
CUT
10
194.5188
20
171.8422
0
VERTEX
8
CUT
10
194.5000
20
173.5127
0
VERTEX
8
CUT
10
194.5668
20
175.2384
0
VERTEX
8
CUT
10
195.0495
20
177.4475
0
VERTEX
8
CUT
10
195.0714
20
177.4974
0
VERTEX
8
CUT
10
195.0923
20
177.5451
0
VERTEX
8
CUT
10
195.1767
20
177.7377
0
VERTEX
8
CUT
10
195.3711
20
178.1812
0
VERTEX
8
CUT
10
196.2104
20
179.7970
0
VERTEX
8
CUT
10
198.9482
20
183.2822
0
VERTEX
8
CUT
10
203.5349
20
188.3121
0
VERTEX
8
CUT
10
203.7177
20
188.4900
0
VERTEX
8
CUT
10
203.9865
20
188.7515
0
VERTEX
8
CUT
10
204.4418
20
189.1944
0
VERTEX
8
CUT
10
205.6084
20
190.3294
0
VERTEX
8
CUT
10
206.3688
20
191.0496
0
VERTEX
8
CUT
10
208.3153
20
192.3305
0
VERTEX
8
CUT
10
209.2644
20
192.6860
0
VERTEX
8
CUT
10
211.2031
20
192.9230
0
VERTEX
8
CUT
10
212.9922
20
192.7277
0
VERTEX
8
CUT
10
213.1819
20
192.6879
0
VERTEX
8
CUT
10
214.4104
20
192.2118
0
VERTEX
8
CUT
10
214.5783
20
192.1284
0
VERTEX
8
CUT
10
214.5932
20
192.1210
0
VERTEX
8
CUT
10
214.7369
20
192.0496
0
VERTEX
8
CUT
10
215.0063
20
191.9157
0
VERTEX
8
CUT
10
215.5919
20
191.5494
0
VERTEX
8
CUT
10
220.0162
20
187.1592
0
VERTEX
8
CUT
10
220.3759
20
186.9365
0
VERTEX
8
CUT
10
220.7310
20
187.0436
0
VERTEX
8
CUT
10
224.7884
20
189.7608
0
VERTEX
8
CUT
10
231.7884
20
194.9203
0
VERTEX
8
CUT
10
243.2500
20
204.3728
0
VERTEX
8
CUT
10
246.6747
20
207.4356
0
VERTEX
8
CUT
10
253.2157
20
213.8123
0
VERTEX
8
CUT
10
262.7578
20
224.0579
0
VERTEX
8
CUT
10
264.0566
20
225.4231
0
VERTEX
8
CUT
10
265.3972
20
226.6607
0
VERTEX
8
CUT
10
265.6944
20
226.9122
0
VERTEX
8
CUT
10
265.8726
20
227.0286
0
VERTEX
8
CUT
10
265.9091
20
227.0525
0
VERTEX
8
CUT
10
265.9469
20
227.0772
0
VERTEX
8
CUT
10
265.9789
20
227.0981
0
VERTEX
8
CUT
10
266.0605
20
227.1114
0
VERTEX
8
CUT
10
266.6784
20
227.0099
0
VERTEX
8
CUT
10
267.1845
20
226.0810
0
VERTEX
8
CUT
10
266.9251
20
225.1941
0
VERTEX
8
CUT
10
266.9055
20
225.1470
0
VERTEX
8
CUT
10
266.8893
20
225.1082
0
VERTEX
8
CUT
10
266.8708
20
225.0639
0
VERTEX
8
CUT
10
266.8455
20
225.0034
0
VERTEX
8
CUT
10
266.8355
20
224.9794
0
VERTEX
8
CUT
10
265.6697
20
222.6817
0
VERTEX
8
CUT
10
263.4290
20
219.1559
0
VERTEX
8
CUT
10
260.5900
20
215.1940
0
VERTEX
8
CUT
10
258.3008
20
212.3867
0
VERTEX
8
CUT
10
255.0387
20
208.4599
0
VERTEX
8
CUT
10
254.8998
20
208.2158
0
VERTEX
8
CUT
10
254.5924
20
207.8388
0
VERTEX
8
CUT
10
254.8962
20
203.8118
0
VERTEX
8
CUT
10
254.7630
20
201.3864
0
VERTEX
8
CUT
10
254.6629
20
200.8888
0
VERTEX
8
CUT
10
254.6383
20
200.7667
0
VERTEX
8
CUT
10
254.5731
20
200.4425
0
VERTEX
8
CUT
10
254.5127
20
200.1423
0
VERTEX
8
CUT
10
253.8844
20
198.6971
0
VERTEX
8
CUT
10
253.5254
20
198.0841
0
VERTEX
8
CUT
10
250.9288
20
194.7239
0
VERTEX
8
CUT
10
247.2605
20
191.0538
0
VERTEX
8
CUT
10
245.6878
20
190.0561
0
VERTEX
8
CUT
10
233.8004
20
186.4455
0
VERTEX
8
CUT
10
232.1544
20
186.1811
0
VERTEX
8
CUT
10
230.4693
20
186.7063
0
VERTEX
8
CUT
10
229.6893
20
186.4186
0
VERTEX
8
CUT
10
228.4097
20
185.5778
0
VERTEX
8
CUT
10
227.9046
20
185.0113
0
VERTEX
8
CUT
10
227.9007
20
184.5054
0
VERTEX
8
CUT
10
228.5833
20
183.5814
0
VERTEX
8
CUT
10
228.7029
20
183.0444
0
VERTEX
8
CUT
10
228.6030
20
182.6826
0
VERTEX
8
CUT
10
228.1524
20
182.2636
0
VERTEX
8
CUT
10
227.3232
20
181.9351
0
VERTEX
8
CUT
10
226.5623
20
181.9629
0
VERTEX
8
CUT
10
224.3544
20
182.9086
0
VERTEX
8
CUT
10
223.2757
20
182.1461
0
VERTEX
8
CUT
10
223.4255
20
181.0754
0
VERTEX
8
CUT
10
224.1926
20
179.1293
0
VERTEX
8
CUT
10
224.5083
20
178.7807
0
VERTEX
8
CUT
10
225.1270
20
178.6048
0
VERTEX
8
CUT
10
227.0761
20
179.0105
0
VERTEX
8
CUT
10
234.3921
20
181.4487
0
VERTEX
8
CUT
10
243.6133
20
184.7421
0
VERTEX
8
CUT
10
254.4780
20
189.0554
0
VERTEX
8
CUT
10
264.6183
20
193.7814
0
VERTEX
8
CUT
10
264.6398
20
193.7912
0
VERTEX
8
CUT
10
264.6462
20
193.7944
0
VERTEX
8
CUT
10
264.6468
20
193.7947
0
VERTEX
8
CUT
10
264.6477
20
193.7951
0
VERTEX
8
CUT
10
269.8166
20
196.3632
0
VERTEX
8
CUT
10
274.0732
20
198.6814
0
VERTEX
8
CUT
10
276.2608
20
199.8155
0
VERTEX
8
CUT
10
279.5215
20
201.6486
0
VERTEX
8
CUT
10
280.5072
20
202.1855
0
VERTEX
8
CUT
10
281.4050
20
202.7075
0
VERTEX
8
CUT
10
289.6536
20
207.3449
0
VERTEX
8
CUT
10
290.9281
20
207.8485
0
VERTEX
8
CUT
10
291.3074
20
207.7686
0
VERTEX
8
CUT
10
291.4270
20
207.5989
0
VERTEX
8
CUT
10
291.4508
20
207.5651
0
VERTEX
8
CUT
10
291.4537
20
207.5610
0
VERTEX
8
CUT
10
291.4580
20
207.5549
0
VERTEX
8
CUT
10
291.6235
20
207.1732
0
VERTEX
8
CUT
10
291.6105
20
207.1238
0
VERTEX
8
CUT
10
291.5105
20
206.8564
0
VERTEX
8
CUT
10
290.5698
20
205.5359
0
VERTEX
8
CUT
10
287.7883
20
203.0542
0
VERTEX
8
CUT
10
287.4746
20
202.8229
0
VERTEX
8
CUT
10
283.0310
20
199.6823
0
VERTEX
8
CUT
10
282.1647
20
199.0700
0
VERTEX
8
CUT
10
281.1390
20
198.3451
0
VERTEX
8
CUT
10
280.0289
20
197.5605
0
VERTEX
8
CUT
10
274.8207
20
194.3132
0
VERTEX
8
CUT
10
274.7376
20
194.2621
0
VERTEX
8
CUT
10
274.2411
20
193.9569
0
VERTEX
8
CUT
10
273.7303
20
193.6428
0
VERTEX
8
CUT
10
270.6482
20
191.7478
0
VERTEX
8
CUT
10
257.4615
20
184.6489
0
VERTEX
8
CUT
10
257.3195
20
184.5741
0
VERTEX
8
CUT
10
257.3185
20
184.5719
0
VERTEX
8
CUT
10
256.9845
20
184.3921
0
VERTEX
8
CUT
10
256.8898
20
183.9710
0
VERTEX
8
CUT
10
258.0985
20
181.8789
0
VERTEX
8
CUT
10
258.3519
20
180.6635
0
VERTEX
8
CUT
10
258.3225
20
178.0421
0
VERTEX
8
CUT
10
258.1757
20
177.2188
0
VERTEX
8
CUT
10
257.9133
20
176.9126
0
VERTEX
8
CUT
10
256.2064
20
176.5950
0
VERTEX
8
CUT
10
253.4427
20
176.4925
0
VERTEX
8
CUT
10
250.1742
20
176.0314
0
VERTEX
8
CUT
10
246.5243
20
175.8671
0
VERTEX
8
CUT
10
242.2835
20
175.8675
0
VERTEX
8
CUT
10
239.1579
20
176.0976
0
VERTEX
8
CUT
10
237.9634
20
176.4634
0
VERTEX
8
CUT
10
236.5533
20
176.3946
0
VERTEX
8
CUT
10
234.2241
20
175.7888
0
VERTEX
8
CUT
10
233.6897
20
175.4892
0
VERTEX
8
CUT
10
233.5940
20
175.5016
0
VERTEX
8
CUT
10
233.1906
20
175.2152
0
VERTEX
8
CUT
10
233.3905
20
174.3714
0
VERTEX
8
CUT
10
233.4462
20
172.8884
0
VERTEX
8
CUT
10
233.2121
20
172.2665
0
VERTEX
8
CUT
10
232.9012
20
172.0532
0
VERTEX
8
CUT
10
231.5300
20
171.7190
0
VERTEX
8
CUT
10
229.7825
20
171.6498
0
VERTEX
8
CUT
10
227.0677
20
171.8852
0
VERTEX
8
CUT
10
225.5519
20
172.4364
0
VERTEX
8
CUT
10
225.1598
20
172.1816
0
VERTEX
8
CUT
10
224.9879
20
170.2135
0
VERTEX
8
CUT
10
225.2848
20
169.8480
0
VERTEX
8
CUT
10
233.6607
20
169.9610
0
VERTEX
8
CUT
10
243.5682
20
170.7510
0
VERTEX
8
CUT
10
247.4465
20
171.1785
0
VERTEX
8
CUT
10
247.4517
20
171.1790
0
VERTEX
8
CUT
10
247.4635
20
171.1804
0
VERTEX
8
CUT
10
259.7042
20
172.5295
0
VERTEX
8
CUT
10
270.9298
20
174.3074
0
VERTEX
8
CUT
10
282.4231
20
176.4920
0
VERTEX
8
CUT
10
286.1412
20
177.1393
0
VERTEX
8
CUT
10
287.3556
20
177.0766
0
VERTEX
8
CUT
10
287.5023
20
176.9989
0
VERTEX
8
CUT
10
287.7102
20
176.4449
0
VERTEX
8
CUT
10
286.7936
20
175.3898
0
VERTEX
8
CUT
10
284.5979
20
174.3276
0
VERTEX
8
CUT
10
282.0785
20
173.4143
0
VERTEX
8
CUT
10
280.9585
20
173.0258
0
VERTEX
8
CUT
10
279.4758
20
172.5846
0
VERTEX
8
CUT
10
279.0320
20
172.4602
0
VERTEX
8
CUT
10
277.6052
20
172.0603
0
VERTEX
8
CUT
10
275.8609
20
171.5714
0
VERTEX
8
CUT
10
269.4061
20
170.0374
0
VERTEX
8
CUT
10
265.6104
20
169.1683
0
VERTEX
8
CUT
10
251.7873
20
166.6153
0
VERTEX
8
CUT
10
251.7489
20
166.6088
0
VERTEX
8
CUT
10
251.7467
20
166.6078
0
VERTEX
8
CUT
10
251.0986
20
166.4881
0
VERTEX
8
CUT
10
249.4567
20
165.8208
0
VERTEX
8
CUT
10
248.8365
20
164.7252
0
VERTEX
8
CUT
10
248.0951
20
164.4114
0
VERTEX
8
CUT
10
247.1837
20
164.4216
0
VERTEX
8
CUT
10
245.4691
20
165.5050
0
VERTEX
8
CUT
10
244.2994
20
165.7874
0
VERTEX
8
CUT
10
243.2082
20
165.7239
0
VERTEX
8
CUT
10
241.8268
20
165.0953
0
VERTEX
8
CUT
10
240.4769
20
165.5218
0
VERTEX
8
CUT
10
238.1357
20
165.1793
0
VERTEX
8
CUT
10
237.8649
20
164.8450
0
VERTEX
8
CUT
10
237.9948
20
161.9528
0
VERTEX
8
CUT
10
237.6946
20
160.1238
0
VERTEX
8
CUT
10
236.9089
20
158.7019
0
VERTEX
8
CUT
10
236.2738
20
158.0606
0
VERTEX
8
CUT
10
234.6596
20
157.0156
0
VERTEX
8
CUT
10
233.7665
20
156.8265
0
VERTEX
8
CUT
10
229.6249
20
157.3484
0
VERTEX
8
CUT
10
228.6657
20
157.2712
0
VERTEX
8
CUT
10
227.6571
20
156.5255
0
VERTEX
8
CUT
10
226.9812
20
155.7055
0
VERTEX
8
CUT
10
226.8335
20
154.8752
0
VERTEX
8
CUT
10
227.3518
20
153.3324
0
VERTEX
8
CUT
10
228.2688
20
152.1210
0
VERTEX
8
CUT
10
229.3766
20
151.2011
0
VERTEX
8
CUT
10
230.5585
20
150.8495
0
VERTEX
8
CUT
10
230.6415
20
150.8474
0
VERTEX
8
CUT
10
230.7019
20
150.8201
0
VERTEX
8
CUT
10
232.2987
20
150.6213
0
VERTEX
8
CUT
10
235.9524
20
150.7126
0
VERTEX
8
CUT
10
238.2488
20
150.6544
0
VERTEX
8
CUT
10
239.7886
20
150.4353
0
VERTEX
8
CUT
10
240.9938
20
149.6072
0
VERTEX
8
CUT
10
241.7965
20
148.6405
0
VERTEX
8
CUT
10
242.6511
20
147.0135
0
VERTEX
8
CUT
10
242.9089
20
145.8861
0
VERTEX
8
CUT
10
243.2121
20
145.6828
0
VERTEX
8
CUT
10
243.6102
20
145.9164
0
VERTEX
8
CUT
10
243.7996
20
147.2435
0
VERTEX
8
CUT
10
242.8469
20
151.4198
0
VERTEX
8
CUT
10
242.9833
20
153.2250
0
VERTEX
8
CUT
10
243.7994
20
154.4826
0
VERTEX
8
CUT
10
246.7808
20
157.2857
0
VERTEX
8
CUT
10
248.6001
20
158.3430
0
VERTEX
8
CUT
10
250.0325
20
158.7573
0
VERTEX
8
CUT
10
252.1593
20
158.7149
0
VERTEX
8
CUT
10
252.7311
20
158.4595
0
VERTEX
8
CUT
10
253.3308
20
158.0949
0
VERTEX
8
CUT
10
253.3657
20
158.0737
0
VERTEX
8
CUT
10
253.4975
20
157.9936
0
VERTEX
8
CUT
10
253.5997
20
157.9315
0
VERTEX
8
CUT
10
253.6742
20
157.8567
0
VERTEX
8
CUT
10
254.6698
20
156.6481
0
VERTEX
8
CUT
10
255.1879
20
155.3962
0
VERTEX
8
CUT
10
255.4229
20
153.2833
0
VERTEX
8
CUT
10
255.1802
20
151.0638
0
VERTEX
8
CUT
10
254.3646
20
149.0065
0
VERTEX
8
CUT
10
252.8268
20
146.7724
0
VERTEX
8
CUT
10
248.5970
20
142.1163
0
VERTEX
8
CUT
10
247.1908
20
140.3196
0
VERTEX
8
CUT
10
246.3774
20
138.9115
0
VERTEX
8
CUT
10
245.9206
20
138.1906
0
VERTEX
8
CUT
10
245.8247
20
138.0459
0
VERTEX
8
CUT
10
245.8146
20
138.0234
0
VERTEX
8
CUT
10
245.7300
20
137.8898
0
VERTEX
8
CUT
10
245.5985
20
137.5634
0
VERTEX
8
CUT
10
245.2516
20
136.9628
0
VERTEX
8
CUT
10
244.7104
20
135.3996
0
VERTEX
8
CUT
10
244.4182
20
133.8187
0
VERTEX
8
CUT
10
244.3899
20
132.2415
0
VERTEX
8
CUT
10
245.0772
20
126.1537
0
VERTEX
8
CUT
10
245.0303
20
125.1607
0
VERTEX
8
CUT
10
244.7781
20
122.9977
0
VERTEX
8
CUT
10
244.6389
20
122.2430
0
VERTEX
8
CUT
10
243.7670
20
119.7546
0
VERTEX
8
CUT
10
243.6393
20
119.4908
0
VERTEX
8
CUT
10
242.7166
20
117.7200
0
VERTEX
8
CUT
10
241.8359
20
116.2789
0
VERTEX
8
CUT
10
238.5890
20
111.9504
0
VERTEX
8
CUT
10
237.6511
20
110.3973
0
VERTEX
8
CUT
10
237.4812
20
109.6854
0
VERTEX
8
CUT
10
237.4811
20
109.6851
0
VERTEX
8
CUT
10
237.4811
20
109.6848
0
VERTEX
8
CUT
10
237.3744
20
109.2378
0
VERTEX
8
CUT
10
237.4409
20
108.7756
0
VERTEX
8
CUT
10
237.4347
20
108.6352
0
VERTEX
8
CUT
10
237.4915
20
108.4240
0
VERTEX
8
CUT
10
237.8939
20
105.6274
0
VERTEX
8
CUT
10
237.8950
20
105.4043
0
VERTEX
8
CUT
10
237.8817
20
105.2003
0
VERTEX
8
CUT
10
237.8817
20
105.1990
0
VERTEX
8
CUT
10
237.4748
20
103.5982
0
VERTEX
8
CUT
10
237.3358
20
103.1632
0
VERTEX
8
CUT
10
237.1342
20
102.6781
0
VERTEX
8
CUT
10
235.7408
20
100.6718
0
VERTEX
8
CUT
10
235.3035
20
100.2547
0
VERTEX
8
CUT
10
233.8327
20
99.0506
0
VERTEX
8
CUT
10
227.4948
20
95.5461
0
VERTEX
8
CUT
10
226.4711
20
95.0196
0
VERTEX
8
CUT
10
225.4623
20
94.2498
0
VERTEX
8
CUT
10
225.1929
20
94.0684
0
VERTEX
8
CUT
10
224.6086
20
93.5118
0
VERTEX
8
CUT
10
223.5297
20
91.8028
0
VERTEX
8
CUT
10
222.8332
20
90.0274
0
VERTEX
8
CUT
10
222.4805
20
88.2576
0
VERTEX
8
CUT
10
222.5440
20
86.4917
0
VERTEX
8
CUT
10
222.6129
20
86.2054
0
VERTEX
8
CUT
10
222.6193
20
86.0936
0
VERTEX
8
CUT
10
222.7403
20
85.6761
0
VERTEX
8
CUT
10
222.9624
20
84.7534
0
VERTEX
8
CUT
10
223.0843
20
84.4885
0
VERTEX
8
CUT
10
223.0908
20
84.4661
0
VERTEX
8
CUT
10
223.1242
20
84.4019
0
VERTEX
8
CUT
10
223.7173
20
83.1133
0
VERTEX
8
CUT
10
224.8982
20
81.4949
0
VERTEX
8
CUT
10
228.1426
20
78.3802
0
VERTEX
8
CUT
10
228.6500
20
77.4775
0
VERTEX
8
CUT
10
229.8231
20
76.5290
0
VERTEX
8
CUT
10
230.4408
20
75.3456
0
VERTEX
8
CUT
10
230.4893
20
75.1953
0
VERTEX
8
CUT
10
230.6021
20
74.4077
0
VERTEX
8
CUT
10
230.6341
20
73.0861
0
VERTEX
8
CUT
10
230.5936
20
72.8031
0
VERTEX
8
CUT
10
230.5538
20
72.6947
0
VERTEX
8
CUT
10
230.5249
20
72.6161
0
VERTEX
8
CUT
10
230.5143
20
72.5873
0
VERTEX
8
CUT
10
230.4469
20
72.4038
0
VERTEX
8
CUT
10
230.1556
20
71.7919
0
VERTEX
8
CUT
10
228.8485
20
70.3212
0
VERTEX
8
CUT
10
228.7514
20
70.2509
0
VERTEX
8
CUT
10
228.6965
20
70.2112
0
VERTEX
8
CUT
10
228.6769
20
70.1970
0
VERTEX
8
CUT
10
228.6698
20
70.1918
0
VERTEX
8
CUT
10
227.3587
20
69.5112
0
VERTEX
8
CUT
10
226.7236
20
69.3704
0
VERTEX
8
CUT
10
226.5406
20
69.3298
0
VERTEX
8
CUT
10
226.2461
20
69.2646
0
VERTEX
8
CUT
10
225.8858
20
69.1847
0
VERTEX
8
CUT
10
225.0344
20
69.3103
0
VERTEX
8
CUT
10
224.5717
20
69.1883
0
VERTEX
8
CUT
10
224.4766
20
69.1042
0
VERTEX
8
CUT
10
224.3815
20
69.1030
0
VERTEX
8
CUT
10
224.1636
20
68.8600
0
VERTEX
8
CUT
10
224.1615
20
68.8253
0
VERTEX
8
CUT
10
223.9284
20
68.6191
0
VERTEX
8
CUT
10
223.8176
20
68.1813
0
VERTEX
8
CUT
10
224.4127
20
67.3141
0
VERTEX
8
CUT
10
224.4530
20
67.2084
0
VERTEX
8
CUT
10
224.5936
20
67.0506
0
VERTEX
8
CUT
10
225.7723
20
65.3330
0
VERTEX
8
CUT
10
228.0483
20
63.4509
0
VERTEX
8
CUT
10
230.9626
20
60.4718
0
VERTEX
8
CUT
10
231.5048
20
59.5320
0
VERTEX
8
CUT
10
231.6667
20
59.2514
0
VERTEX
8
CUT
10
231.7083
20
59.1794
0
VERTEX
8
CUT
10
231.7952
20
59.0288
0
VERTEX
8
CUT
10
232.0298
20
57.5966
0
VERTEX
8
CUT
10
231.9286
20
56.0480
0
VERTEX
8
CUT
10
231.7363
20
55.3850
0
VERTEX
8
CUT
10
231.3722
20
54.6652
0
VERTEX
8
CUT
10
230.6946
20
53.7854
0
VERTEX
8
CUT
10
230.6840
20
53.7727
0
VERTEX
8
CUT
10
230.1645
20
53.2336
0
VERTEX
8
CUT
10
228.2982
20
52.3210
0
VERTEX
8
CUT
10
226.9808
20
52.0546
0
VERTEX
8
CUT
10
223.9067
20
51.9600
0
VERTEX
8
CUT
10
223.5828
20
51.7715
0
VERTEX
8
CUT
10
223.6976
20
51.0679
0
VERTEX
8
CUT
10
225.3282
20
50.5184
0
VERTEX
8
CUT
10
226.0951
20
49.3827
0
VERTEX
8
CUT
10
226.3306
20
48.3599
0
VERTEX
8
CUT
10
226.2962
20
47.2931
0
VERTEX
8
CUT
10
225.9720
20
46.4240
0
VERTEX
8
CUT
10
225.4622
20
45.8404
0
VERTEX
8
CUT
10
224.6722
20
45.4652
0
VERTEX
8
CUT
10
223.9144
20
45.4357
0
VERTEX
8
CUT
10
223.1912
20
45.7059
0
VERTEX
8
CUT
10
222.4662
20
46.3023
0
VERTEX
8
CUT
10
221.7282
20
47.5049
0
VERTEX
8
CUT
10
219.2629
20
48.5809
0
VERTEX
8
CUT
10
218.5624
20
49.3884
0
VERTEX
8
CUT
10
218.0803
20
50.7516
0
VERTEX
8
CUT
10
215.0734
20
52.7701
0
VERTEX
8
CUT
10
212.9637
20
54.7480
0
VERTEX
8
CUT
10
211.4572
20
56.4552
0
VERTEX
8
CUT
10
209.7445
20
58.6629
0
VERTEX
8
CUT
10
209.9333
20
61.6017
0
VERTEX
8
CUT
10
209.5775
20
62.8055
0
VERTEX
8
CUT
10
201.2279
20
75.2890
0
VERTEX
8
CUT
10
199.9816
20
76.6011
0
VERTEX
8
CUT
10
199.2938
20
76.3073
0
VERTEX
8
CUT
10
198.1834
20
75.2937
0
VERTEX
8
CUT
10
197.4450
20
74.2891
0
VERTEX
8
CUT
10
197.4312
20
74.2779
0
VERTEX
8
CUT
10
197.4210
20
74.2565
0
VERTEX
8
CUT
10
196.7102
20
73.2894
0
VERTEX
8
CUT
10
196.2804
20
71.7590
0
VERTEX
8
CUT
10
195.7101
20
68.0347
0
VERTEX
8
CUT
10
195.0460
20
66.6212
0
VERTEX
8
CUT
10
194.0466
20
65.5556
0
VERTEX
8
CUT
10
192.5313
20
64.8538
0
VERTEX
8
CUT
10
191.5835
20
64.6473
0
VERTEX
8
CUT
10
186.4332
20
64.2483
0
VERTEX
8
CUT
10
184.6864
20
63.3746
0
VERTEX
8
CUT
10
183.6516
20
62.4401
0
VERTEX
8
CUT
10
182.9912
20
61.3716
0
VERTEX
8
CUT
10
182.7146
20
60.3239
0
VERTEX
8
CUT
10
183.1722
20
56.7164
0
VERTEX
8
CUT
10
183.1002
20
54.9839
0
VERTEX
8
CUT
10
183.0023
20
54.7657
0
VERTEX
8
CUT
10
182.6643
20
54.1570
0
VERTEX
8
CUT
10
181.8021
20
53.2618
0
VERTEX
8
CUT
10
181.6496
20
53.1560
0
VERTEX
8
CUT
10
181.4797
20
53.0582
0
VERTEX
8
CUT
10
181.3755
20
52.9982
0
VERTEX
8
CUT
10
181.3531
20
52.9853
0
VERTEX
8
CUT
10
181.2733
20
52.9394
0
VERTEX
8
CUT
10
180.0753
20
52.5993
0
VERTEX
8
CUT
10
179.1685
20
52.4321
0
VERTEX
8
CUT
10
177.0661
20
52.5084
0
VERTEX
8
CUT
10
176.6210
20
52.6038
0
VERTEX
8
CUT
10
176.5241
20
52.6246
0
VERTEX
8
CUT
10
176.3376
20
52.6645
0
VERTEX
8
CUT
10
176.1950
20
52.6951
0
VERTEX
8
CUT
10
168.3116
20
54.8294
0
VERTEX
8
CUT
10
164.2853
20
55.4789
0
VERTEX
8
CUT
10
161.6449
20
55.4801
0
VERTEX
8
CUT
10
157.3486
20
54.8613
0
VERTEX
8
CUT
10
154.6558
20
54.1055
0
VERTEX
8
CUT
10
150.6834
20
52.4781
0
VERTEX
8
CUT
10
150.1906
20
51.4936
0
VERTEX
8
CUT
10
149.5462
20
49.1751
0
VERTEX
8
CUT
10
148.8965
20
47.8519
0
VERTEX
8
CUT
10
147.5002
20
46.2606
0
VERTEX
8
CUT
10
146.6228
20
45.6677
0
VERTEX
8
CUT
10
145.5231
20
45.2686
0
VERTEX
8
CUT
10
144.9465
20
45.1871
0
VERTEX
8
CUT
10
142.8949
20
45.2345
0
VERTEX
8
CUT
10
141.3047
20
45.6457
0
VERTEX
8
CUT
10
139.9340
20
46.2767
0
VERTEX
8
CUT
10
136.9215
20
48.0008
0
VERTEX
8
CUT
10
135.2700
20
49.0589
0
VERTEX
8
CUT
10
133.7034
20
49.8426
0
VERTEX
8
CUT
10
133.5089
20
49.9539
0
VERTEX
8
CUT
10
133.4388
20
49.9750
0
VERTEX
8
CUT
10
132.6981
20
50.3456
0
VERTEX
8
CUT
10
130.2359
20
50.9984
0
VERTEX
8
CUT
10
128.9304
20
51.1313
0
VERTEX
8
CUT
10
126.3374
20
50.9707
0
VERTEX
8
CUT
10
124.4535
20
50.5678
0
VERTEX
8
CUT
10
123.6221
20
50.1285
0
VERTEX
8
CUT
10
122.2932
20
49.0012
0
VERTEX
8
CUT
10
120.8835
20
47.8830
0
VERTEX
8
CUT
10
120.6181
20
47.6725
0
VERTEX
8
CUT
10
120.6015
20
47.6594
0
VERTEX
8
CUT
10
120.4301
20
47.5234
0
VERTEX
8
CUT
10
118.2787
20
46.2965
0
VERTEX
8
CUT
10
115.7325
20
45.6969
0
VERTEX
8
CUT
10
113.2642
20
45.9764
0
VERTEX
8
CUT
10
112.1314
20
46.4114
0
VERTEX
8
CUT
10
111.2146
20
47.0166
0
VERTEX
8
CUT
10
110.8316
20
47.4055
0
VERTEX
8
CUT
10
110.3815
20
47.9781
0
VERTEX
8
CUT
10
109.6290
20
49.5120
0
VERTEX
8
CUT
10
109.4845
20
51.8153
0
VERTEX
8
CUT
10
110.3688
20
55.8276
0
VERTEX
8
CUT
10
110.4117
20
55.9558
0
VERTEX
8
CUT
10
110.4268
20
56.0906
0
VERTEX
8
CUT
10
110.6637
20
57.1656
0
VERTEX
8
CUT
10
110.5768
20
57.4372
0
VERTEX
8
CUT
10
110.5790
20
57.4574
0
VERTEX
8
CUT
10
110.5659
20
57.4711
0
VERTEX
8
CUT
10
110.3610
20
58.1112
0
VERTEX
8
CUT
10
109.7974
20
58.4311
0
VERTEX
8
CUT
10
109.2078
20
58.5006
0
VERTEX
8
CUT
10
108.0105
20
57.9316
0
VERTEX
8
CUT
10
106.5311
20
56.8157
0
VERTEX
8
CUT
10
103.5797
20
54.0605
0
VERTEX
8
CUT
10
99.0829
20
48.5459
0
VERTEX
8
CUT
10
81.9945
20
26.2940
0
VERTEX
8
CUT
10
78.2852
20
21.6727
0
VERTEX
8
CUT
10
75.6227
20
18.4298
0
VERTEX
8
CUT
10
72.5402
20
14.9242
0
VERTEX
8
CUT
10
69.6184
20
11.8122
0
VERTEX
8
CUT
10
68.4762
20
10.6593
0
VERTEX
8
CUT
10
64.5676
20
7.0974
0
VERTEX
8
CUT
10
63.1626
20
6.0336
0
VERTEX
8
CUT
10
60.8923
20
4.4368
0
VERTEX
8
CUT
10
55.9821
20
1.8336
0
VERTEX
8
CUT
10
52.7006
20
0.6953
0
VERTEX
8
CUT
10
49.8378
20
0.1720
0
VERTEX
8
CUT
10
49.2569
20
0.1344
0
VERTEX
8
CUT
10
46.6515
20
0.1363
0
VERTEX
8
CUT
10
46.6514
20
0.1363
0
VERTEX
8
CUT
10
46.6513
20
0.1363
0
VERTEX
8
CUT
10
46.6512
20
0.1363
0
VERTEX
8
CUT
10
46.6471
20
0.1367
0
VERTEX
8
CUT
10
45.2947
20
0.3685
0
VERTEX
8
CUT
10
42.7191
20
1.2261
0
VERTEX
8
CUT
10
40.9719
20
2.2496
0
VERTEX
8
CUT
10
40.8981
20
2.3005
0
VERTEX
8
CUT
10
40.8582
20
2.3280
0
VERTEX
8
CUT
10
40.7475
20
2.4044
0
VERTEX
8
CUT
10
40.1680
20
2.8043
0
VERTEX
8
CUT
10
38.5082
20
4.3514
0
VERTEX
8
CUT
10
38.4001
20
4.4626
0
VERTEX
8
CUT
10
36.6659
20
6.8883
0
VERTEX
8
CUT
10
35.2561
20
9.7060
0
VERTEX
8
CUT
10
35.0930
20
10.1121
0
VERTEX
8
CUT
10
33.9483
20
13.4431
0
VERTEX
8
CUT
10
32.9149
20
17.7062
0
VERTEX
8
CUT
10
32.5679
20
19.6678
0
VERTEX
8
CUT
10
31.9445
20
23.6922
0
VERTEX
8
CUT
10
31.8914
20
24.2208
0
VERTEX
8
CUT
10
31.8562
20
24.6455
0
VERTEX
8
CUT
10
31.8474
20
24.7517
0
VERTEX
8
CUT
10
31.8342
20
24.9121
0
VERTEX
8
CUT
10
31.7740
20
25.6386
0
VERTEX
8
CUT
10
31.4631
20
32.5964
0
VERTEX
8
CUT
10
31.5953
20
45.2604
0
VERTEX
8
CUT
10
32.0234
20
51.3925
0
VERTEX
8
CUT
10
32.0513
20
51.6963
0
VERTEX
8
CUT
10
32.0517
20
51.7008
0
VERTEX
8
CUT
10
32.0517
20
51.7009
0
VERTEX
8
CUT
10
32.0846
20
52.0591
0
VERTEX
8
CUT
10
33.8079
20
62.4932
0
VERTEX
8
CUT
10
35.0284
20
68.0669
0
VERTEX
8
CUT
10
37.8990
20
78.8546
0
VERTEX
8
CUT
10
41.0944
20
88.0784
0
VERTEX
8
CUT
10
42.7127
20
91.7135
0
VERTEX
8
CUT
10
43.8874
20
93.8623
0
VERTEX
8
CUT
10
46.4555
20
97.5228
0
VERTEX
8
CUT
10
49.1576
20
100.0343
0
VERTEX
8
CUT
10
49.1601
20
100.0361
0
VERTEX
8
CUT
10
49.1698
20
100.0430
0
VERTEX
8
CUT
10
49.1868
20
100.0550
0
VERTEX
8
CUT
10
49.5042
20
100.2798
0
VERTEX
8
CUT
10
50.7136
20
101.0353
0
VERTEX
8
CUT
10
50.9759
20
101.1612
0
VERTEX
8
CUT
10
52.2991
20
101.7269
0
VERTEX
8
CUT
10
54.9460
20
102.0856
0
VERTEX
8
CUT
10
55.0014
20
102.0873
0
VERTEX
8
CUT
10
56.2989
20
101.6474
0
VERTEX
8
CUT
10
57.7636
20
100.4531
0
VERTEX
8
CUT
10
58.1602
20
100.5163
0
VERTEX
8
CUT
10
58.2903
20
100.8963
0
VERTEX
8
CUT
10
57.9192
20
101.9045
0
VERTEX
8
CUT
10
57.7714
20
102.6455
0
VERTEX
8
CUT
10
56.8477
20
104.7644
0
VERTEX
8
CUT
10
56.1666
20
105.9047
0
VERTEX
8
CUT
10
55.2577
20
107.5525
0
VERTEX
8
CUT
10
54.4864
20
108.3085
0
VERTEX
8
CUT
10
54.4223
20
108.3860
0
VERTEX
8
CUT
10
54.3754
20
108.4173
0
VERTEX
8
CUT
10
53.9364
20
108.8476
0
VERTEX
8
CUT
10
52.4820
20
109.1489
0
VERTEX
8
CUT
10
50.1378
20
108.4090
0
VERTEX
8
CUT
10
48.4313
20
107.6048
0
VERTEX
8
CUT
10
47.1592
20
106.7597
0
VERTEX
8
CUT
10
44.5377
20
104.4341
0
VERTEX
8
CUT
10
37.1415
20
97.2374
0
VERTEX
8
CUT
10
34.9497
20
95.7420
0
VERTEX
8
CUT
10
32.6531
20
94.6748
0
VERTEX
8
CUT
10
30.3260
20
94.0941
0
VERTEX
8
CUT
10
26.7641
20
94.1882
0
VERTEX
8
CUT
10
25.6184
20
94.4622
0
VERTEX
8
CUT
10
24.1236
20
95.3074
0
VERTEX
8
CUT
10
22.9758
20
96.4140
0
VERTEX
8
CUT
10
22.2001
20
97.7244
0
VERTEX
8
CUT
10
21.9424
20
98.5312
0
VERTEX
8
CUT
10
21.7443
20
100.1362
0
VERTEX
8
CUT
10
21.9194
20
101.6855
0
VERTEX
8
CUT
10
22.3781
20
103.1273
0
VERTEX
8
CUT
10
23.2086
20
104.6378
0
VERTEX
8
CUT
10
23.3261
20
104.8128
0
VERTEX
8
CUT
10
25.2161
20
107.2846
0
VERTEX
8
CUT
10
26.5124
20
109.4013
0
VERTEX
8
CUT
10
26.9838
20
111.4069
0
VERTEX
8
CUT
10
26.9581
20
111.7350
0
VERTEX
8
CUT
10
27.0080
20
111.9886
0
VERTEX
8
CUT
10
26.9485
20
112.6296
0
VERTEX
8
CUT
10
26.9494
20
112.6454
0
VERTEX
8
CUT
10
26.9455
20
112.6625
0
VERTEX
8
CUT
10
26.8452
20
113.7424
0
VERTEX
8
CUT
10
26.7907
20
113.8761
0
VERTEX
8
CUT
10
26.7640
20
114.2178
0
VERTEX
8
CUT
10
26.3918
20
115.2653
0
VERTEX
8
CUT
10
25.1998
20
117.1194
0
VERTEX
8
CUT
10
23.2122
20
119.0092
0
VERTEX
8
CUT
10
19.1508
20
122.3118
0
VERTEX
8
CUT
10
17.4451
20
124.2709
0
VERTEX
8
CUT
10
17.4076
20
124.3332
0
VERTEX
8
CUT
10
17.4020
20
124.3425
0
VERTEX
8
CUT
10
17.3845
20
124.3716
0
VERTEX
8
CUT
10
17.3088
20
124.4973
0
VERTEX
8
CUT
10
16.4694
20
126.3178
0
VERTEX
8
CUT
10
16.3978
20
126.5834
0
VERTEX
8
CUT
10
16.1439
20
128.7780
0
VERTEX
8
CUT
10
16.2822
20
130.5020
0
VERTEX
8
CUT
10
16.7229
20
131.9838
0
VERTEX
8
CUT
10
17.6125
20
133.4850
0
VERTEX
8
CUT
10
20.0456
20
136.5120
0
VERTEX
8
CUT
10
20.1586
20
136.7190
0
VERTEX
8
CUT
10
20.1764
20
136.7408
0
VERTEX
8
CUT
10
20.2583
20
136.9017
0
VERTEX
8
CUT
10
21.3559
20
138.9124
0
VERTEX
8
CUT
10
21.6099
20
140.0891
0
VERTEX
8
CUT
10
21.6121
20
141.2920
0
VERTEX
8
CUT
10
21.3462
20
142.6397
0
VERTEX
8
CUT
10
21.0422
20
143.3701
0
VERTEX
8
CUT
10
21.0022
20
143.6325
0
VERTEX
8
CUT
10
20.4632
20
144.9751
0
VERTEX
8
CUT
10
20.2567
20
145.2575
0
VERTEX
8
CUT
10
20.0799
20
145.6824
0
VERTEX
8
CUT
10
19.2591
20
147.1551
0
VERTEX
8
CUT
10
18.4314
20
148.1667
0
VERTEX
8
CUT
10
10.7693
20
153.6289
0
VERTEX
8
CUT
10
7.6556
20
156.3756
0
VERTEX
8
CUT
10
5.0376
20
159.2223
0
VERTEX
8
CUT
10
2.9455
20
162.1394
0
VERTEX
8
CUT
10
2.0189
20
163.8908
0
VERTEX
8
CUT
10
1.8118
20
164.3411
0
VERTEX
8
CUT
10
1.4688
20
165.0870
0
VERTEX
8
CUT
10
1.3125
20
165.4269
0
VERTEX
8
CUT
10
1.1603
20
165.7578
0
VERTEX
8
CUT
10
0.9762
20
166.3230
0
VERTEX
8
CUT
10
0.2678
20
169.2548
0
VERTEX
8
CUT
10
0.1647
20
170.1623
0
VERTEX
8
CUT
10
0.1689
20
172.2929
0
VERTEX
8
CUT
10
0.2854
20
173.7169
0
VERTEX
8
CUT
10
0.3567
20
174.0400
0
VERTEX
8
CUT
10
0.8191
20
175.5338
0
VERTEX
8
CUT
10
0.8964
20
175.7196
0
VERTEX
8
CUT
10
0.9130
20
175.7595
0
VERTEX
8
CUT
10
0.9161
20
175.7668
0
VERTEX
8
CUT
10
1.2171
20
176.4902
0
VERTEX
8
CUT
10
1.8095
20
177.6104
0
VERTEX
8
CUT
10
2.2300
20
178.1679
0
VERTEX
8
CUT
10
3.1610
20
179.2259
0
VERTEX
8
CUT
10
4.0207
20
179.8136
0
VERTEX
8
CUT
10
4.0689
20
179.8407
0
VERTEX
8
CUT
10
4.1198
20
179.8693
0
VERTEX
8
CUT
10
4.4520
20
180.0562
0
VERTEX
8
CUT
10
4.6286
20
180.1555
0
VERTEX
8
CUT
10
4.9080
20
180.3126
0
VERTEX
8
CUT
10
5.0203
20
180.3758
0
VERTEX
8
CUT
10
5.0408
20
180.3874
0
VERTEX
8
CUT
10
5.0435
20
180.3889
0
VERTEX
8
CUT
10
6.3240
20
180.8585
0
VERTEX
8
CUT
10
6.3497
20
180.8638
0
VERTEX
8
CUT
10
8.1576
20
180.9970
0
VERTEX
8
CUT
10
10.1139
20
180.6937
0
VERTEX
8
CUT
10
12.1052
20
179.9323
0
VERTEX
8
CUT
10
14.0923
20
178.7415
0
VERTEX
8
CUT
10
14.1477
20
178.6946
0
VERTEX
8
CUT
10
14.1934
20
178.6561
0
VERTEX
8
CUT
10
14.3484
20
178.5252
0
VERTEX
8
CUT
10
14.3658
20
178.5105
0
VERTEX
8
CUT
10
16.8936
20
176.2021
0
VERTEX
8
CUT
10
17.2535
20
175.7793
0
VERTEX
8
CUT
10
18.5104
20
174.3032
0
VERTEX
8
CUT
10
19.0569
20
173.6613
0
VERTEX
8
CUT
10
21.4725
20
170.8241
0
VERTEX
8
CUT
10
25.5670
20
165.9403
0
VERTEX
8
CUT
10
29.1419
20
162.1677
0
VERTEX
8
CUT
10
32.5477
20
159.2842
0
VERTEX
8
CUT
10
36.2216
20
156.8228
0
VERTEX
8
CUT
10
39.7434
20
154.9471
0
VERTEX
8
CUT
10
39.7804
20
154.9331
0
VERTEX
8
CUT
10
39.8436
20
154.8923
0
VERTEX
8
CUT
10
42.7428
20
153.6073
0
VERTEX
8
CUT
10
45.7409
20
152.7178
0
VERTEX
8
CUT
10
45.9699
20
152.9324
0
VERTEX
8
CUT
10
48.0330
20
152.4275
0
VERTEX
8
CUT
10
55.8617
20
151.1271
0
VERTEX
8
CUT
10
55.8884
20
151.1034
0
VERTEX
8
CUT
10
56.0675
20
151.0827
0
VERTEX
8
CUT
10
58.9122
20
150.2837
0
VERTEX
8
CUT
10
60.8516
20
149.5166
0
VERTEX
8
CUT
10
61.9896
20
148.9511
0
VERTEX
8
CUT
10
62.1620
20
148.9983
0
VERTEX
8
CUT
10
62.4673
20
148.8775
0
VERTEX
8
CUT
10
62.7269
20
149.1273
0
VERTEX
8
CUT
10
62.6908
20
149.4752
0
VERTEX
8
CUT
10
61.3403
20
151.5115
0
VERTEX
8
CUT
10
60.5352
20
152.3837
0
VERTEX
8
CUT
10
58.6606
20
153.7996
0
VERTEX
8
CUT
10
57.4940
20
154.4127
0
VERTEX
8
CUT
10
54.5007
20
155.4845
0
VERTEX
8
CUT
10
45.1532
20
157.6236
0
VERTEX
8
CUT
10
42.5092
20
158.5487
0
VERTEX
8
CUT
10
40.8809
20
159.3295
0
VERTEX
8
CUT
10
37.9836
20
161.2063
0
VERTEX
8
CUT
10
35.5250
20
163.4303
0
VERTEX
8
CUT
10
33.8057
20
165.8109
0
VERTEX
8
CUT
10
32.9831
20
167.8312
0
VERTEX
8
CUT
10
32.8142
20
169.6668
0
VERTEX
8
CUT
10
32.9142
20
173.6349
0
VERTEX
8
CUT
10
33.0457
20
175.4098
0
VERTEX
8
CUT
10
32.9684
20
175.7856
0
VERTEX
8
CUT
10
32.9806
20
176.2709
0
VERTEX
8
CUT
10
32.7216
20
177.5691
0
VERTEX
8
CUT
10
31.8895
20
179.3915
0
VERTEX
8
CUT
10
30.6541
20
181.2804
0
VERTEX
8
CUT
10
29.0269
20
183.2022
0
VERTEX
8
CUT
10
21.3868
20
190.0861
0
VERTEX
8
CUT
10
18.2483
20
193.6279
0
VERTEX
8
CUT
10
16.2429
20
196.8823
0
VERTEX
8
CUT
10
15.6245
20
198.4879
0
VERTEX
8
CUT
10
15.2842
20
201.2489
0
VERTEX
8
CUT
10
15.2795
20
201.4881
0
VERTEX
8
CUT
10
15.2786
20
201.5346
0
VERTEX
8
CUT
10
15.2771
20
201.6085
0
VERTEX
8
CUT
10
15.2763
20
201.6488
0
VERTEX
8
CUT
10
15.4522
20
202.8844
0
VERTEX
8
CUT
10
15.9904
20
204.1784
0
VERTEX
8
CUT
10
16.7241
20
205.2089
0
VERTEX
8
CUT
10
17.7123
20
206.0829
0
VERTEX
8
CUT
10
18.8758
20
206.7126
0
VERTEX
8
CUT
10
20.1754
20
207.0931
0
VERTEX
8
CUT
10
20.2501
20
207.1056
0
VERTEX
8
CUT
10
20.2738
20
207.1095
0
VERTEX
8
CUT
10
20.2937
20
207.1128
0
VERTEX
8
CUT
10
20.3499
20
207.1222
0
VERTEX
8
CUT
10
22.8068
20
207.1824
0
VERTEX
8
CUT
10
23.1494
20
207.1229
0
VERTEX
8
CUT
10
23.1860
20
207.1165
0
VERTEX
8
CUT
10
23.3584
20
207.0865
0
VERTEX
8
CUT
10
23.5643
20
207.0507
0
VERTEX
8
CUT
10
25.7656
20
206.4787
0
VERTEX
8
CUT
10
28.9560
20
205.0643
0
VERTEX
8
CUT
10
32.8303
20
202.8471
0
VERTEX
8
CUT
10
40.1872
20
198.1629
0
VERTEX
8
CUT
10
44.4151
20
195.7703
0
VERTEX
8
CUT
10
48.2509
20
193.9664
0
VERTEX
8
CUT
10
52.0181
20
192.5897
0
VERTEX
8
CUT
10
55.9979
20
191.7390
0
VERTEX
8
CUT
10
59.4482
20
191.7117
0
VERTEX
8
CUT
10
60.8266
20
192.1751
0
VERTEX
8
CUT
10
61.6512
20
192.8437
0
VERTEX
8
CUT
10
62.3911
20
193.9611
0
VERTEX
8
CUT
10
62.4977
20
194.8621
0
VERTEX
8
CUT
10
62.3310
20
195.7676
0
VERTEX
8
CUT
10
61.8869
20
196.1968
0
VERTEX
8
CUT
10
61.3886
20
195.8733
0
VERTEX
8
CUT
10
60.1146
20
194.2400
0
VERTEX
8
CUT
10
59.3017
20
193.7905
0
VERTEX
8
CUT
10
58.5314
20
193.6922
0
VERTEX
8
CUT
10
56.6196
20
193.9557
0
VERTEX
8
CUT
10
54.1902
20
194.9273
0
VERTEX
8
CUT
10
49.5956
20
197.5197
0
VERTEX
8
CUT
10
46.7588
20
198.6269
0
VERTEX
8
CUT
10
42.8815
20
201.1891
0
VERTEX
8
CUT
10
38.8673
20
203.3824
0
VERTEX
8
CUT
10
34.3179
20
207.2377
0
VERTEX
8
CUT
10
30.0764
20
210.5212
0
VERTEX
8
CUT
10
29.6943
20
211.6588
0
VERTEX
8
CUT
10
28.9616
20
215.6698
0
VERTEX
8
CUT
10
26.3654
20
222.3053
0
VERTEX
8
CUT
10
25.3367
20
226.1290
0
VERTEX
8
CUT
10
25.1965
20
227.6448
0
VERTEX
8
CUT
10
25.1593
20
228.2320
0
VERTEX
8
CUT
10
25.1686
20
228.4511
0
VERTEX
8
CUT
10
25.1741
20
228.5792
0
VERTEX
8
CUT
10
25.4019
20
230.4610
0
VERTEX
8
CUT
10
25.9269
20
231.9663
0
VERTEX
8
CUT
10
26.6236
20
233.0324
0
VERTEX
8
CUT
10
26.3399
20
233.7775
0
VERTEX
8
CUT
10
26.3478
20
233.8034
0
VERTEX
8
CUT
10
26.2991
20
233.9388
0
VERTEX
8
CUT
10
26.3096
20
233.9763
0
VERTEX
8
CUT
10
26.1088
20
234.4676
0
VERTEX
8
CUT
10
25.3336
20
236.6216
0
VERTEX
8
CUT
10
25.2367
20
237.2602
0
VERTEX
8
CUT
10
25.3235
20
237.6511
0
SEQEND
0
POLYLINE
8
CUT
66
1
70
1
10
0.0
20
0.0
30
0.0
0
VERTEX
8
CUT
10
201.4829
20
113.3753
0
VERTEX
8
CUT
10
201.5543
20
113.3110
0
VERTEX
8
CUT
10
201.6495
20
113.1810
0
VERTEX
8
CUT
10
202.6406
20
112.2933
0
VERTEX
8
CUT
10
203.0487
20
111.8741
0
VERTEX
8
CUT
10
203.7138
20
111.3660
0
VERTEX
8
CUT
10
203.8252
20
111.2656
0
VERTEX
8
CUT
10
203.9181
20
111.2099
0
VERTEX
8
CUT
10
204.4186
20
110.8275
0
VERTEX
8
CUT
10
205.8844
20
109.8965
0
VERTEX
8
CUT
10
208.7143
20
108.7360
0
VERTEX
8
CUT
10
209.4155
20
108.6992
0
VERTEX
8
CUT
10
209.8771
20
108.5812
0
VERTEX
8
CUT
10
210.5831
20
108.5454
0
VERTEX
8
CUT
10
210.7005
20
108.5196
0
VERTEX
8
CUT
10
211.0921
20
108.5108
0
VERTEX
8
CUT
10
211.0985
20
108.5038
0
VERTEX
8
CUT
10
211.9880
20
108.2403
0
VERTEX
8
CUT
10
212.9105
20
108.3721
0
VERTEX
8
CUT
10
213.0281
20
108.4676
0
VERTEX
8
CUT
10
213.6793
20
108.4531
0
VERTEX
8
CUT
10
214.5438
20
108.6706
0
VERTEX
8
CUT
10
217.1793
20
108.8122
0
VERTEX
8
CUT
10
218.5608
20
108.9786
0
VERTEX
8
CUT
10
221.8343
20
109.7955
0
VERTEX
8
CUT
10
221.9981
20
110.1257
0
VERTEX
8
CUT
10
221.7798
20
110.4632
0
VERTEX
8
CUT
10
220.0477
20
110.5728
0
VERTEX
8
CUT
10
219.6215
20
110.9492
0
VERTEX
8
CUT
10
219.8099
20
111.4499
0
VERTEX
8
CUT
10
221.3156
20
112.9532
0
VERTEX
8
CUT
10
224.7143
20
115.7245
0
VERTEX
8
CUT
10
226.7993
20
117.1226
0
VERTEX
8
CUT
10
227.2849
20
117.4399
0
VERTEX
8
CUT
10
230.3212
20
118.8766
0
VERTEX
8
CUT
10
231.7875
20
119.4349
0
VERTEX
8
CUT
10
234.2240
20
120.3218
0
VERTEX
8
CUT
10
234.2546
20
120.3744
0
VERTEX
8
CUT
10
235.8342
20
120.9759
0
VERTEX
8
CUT
10
238.2720
20
122.4019
0
VERTEX
8
CUT
10
241.3296
20
125.1620
0
VERTEX
8
CUT
10
242.8698
20
126.9896
0
VERTEX
8
CUT
10
243.1395
20
127.5994
0
VERTEX
8
CUT
10
242.9203
20
127.8960
0
VERTEX
8
CUT
10
242.5521
20
127.8769
0
VERTEX
8
CUT
10
239.1577
20
124.6407
0
VERTEX
8
CUT
10
236.9072
20
123.2501
0
VERTEX
8
CUT
10
235.6600
20
122.6973
0
VERTEX
8
CUT
10
232.7018
20
122.1987
0
VERTEX
8
CUT
10
223.8861
20
121.3884
0
VERTEX
8
CUT
10
223.5775
20
121.3898
0
VERTEX
8
CUT
10
222.7741
20
121.4588
0
VERTEX
8
CUT
10
222.6252
20
121.9755
0
VERTEX
8
CUT
10
222.6276
20
122.5224
0
VERTEX
8
CUT
10
222.9445
20
125.5598
0
VERTEX
8
CUT
10
222.9471
20
127.4273
0
VERTEX
8
CUT
10
222.5561
20
131.2559
0
VERTEX
8
CUT
10
221.9118
20
133.8667
0
VERTEX
8
CUT
10
221.8935
20
133.9688
0
VERTEX
8
CUT
10
221.8723
20
134.0265
0
VERTEX
8
CUT
10
221.7137
20
134.6692
0
VERTEX
8
CUT
10
221.4201
20
135.2580
0
VERTEX
8
CUT
10
221.1021
20
136.1238
0
VERTEX
8
CUT
10
220.6324
20
136.9144
0
VERTEX
8
CUT
10
220.5631
20
136.9763
0
VERTEX
8
CUT
10
220.5151
20
137.0724
0
VERTEX
8
CUT
10
218.6972
20
138.7896
0
VERTEX
8
CUT
10
216.5701
20
140.0278
0
VERTEX
8
CUT
10
215.3394
20
140.4843
0
VERTEX
8
CUT
10
213.9332
20
140.7584
0
VERTEX
8
CUT
10
213.8416
20
140.7831
0
VERTEX
8
CUT
10
213.7981
20
140.7848
0
VERTEX
8
CUT
10
212.6394
20
141.0106
0
VERTEX
8
CUT
10
209.1611
20
140.9137
0
VERTEX
8
CUT
10
207.4376
20
140.4859
0
VERTEX
8
CUT
10
207.1741
20
140.4498
0
VERTEX
8
CUT
10
207.0520
20
140.4108
0
VERTEX
8
CUT
10
206.7825
20
140.3959
0
VERTEX
8
CUT
10
204.9046
20
139.8687
0
VERTEX
8
CUT
10
204.5092
20
139.6711
0
VERTEX
8
CUT
10
204.1468
20
139.1769
0
VERTEX
8
CUT
10
204.4763
20
138.8803
0
VERTEX
8
CUT
10
205.2484
20
139.0770
0
VERTEX
8
CUT
10
205.2853
20
139.0526
0
VERTEX
8
CUT
10
208.1664
20
139.5818
0
VERTEX
8
CUT
10
210.1864
20
139.5841
0
VERTEX
8
CUT
10
212.0986
20
139.2501
0
VERTEX
8
CUT
10
213.9442
20
138.5480
0
VERTEX
8
CUT
10
215.0855
20
137.8428
0
VERTEX
8
CUT
10
215.7589
20
137.3551
0
VERTEX
8
CUT
10
216.3161
20
136.8116
0
VERTEX
8
CUT
10
216.5737
20
136.5245
0
VERTEX
8
CUT
10
216.7343
20
136.3456
0
VERTEX
8
CUT
10
216.9484
20
136.1069
0
VERTEX
8
CUT
10
217.1643
20
135.8663
0
VERTEX
8
CUT
10
217.7677
20
135.0230
0
VERTEX
8
CUT
10
218.2838
20
134.1761
0
VERTEX
8
CUT
10
218.8146
20
133.1334
0
VERTEX
8
CUT
10
219.5261
20
131.2914
0
VERTEX
8
CUT
10
219.9122
20
129.1069
0
VERTEX
8
CUT
10
219.9731
20
125.6436
0
VERTEX
8
CUT
10
219.5427
20
122.1459
0
VERTEX
8
CUT
10
218.5538
20
119.3906
0
VERTEX
8
CUT
10
217.5525
20
117.9907
0
VERTEX
8
CUT
10
216.4650
20
117.3637
0
VERTEX
8
CUT
10
212.4025
20
116.4001
0
VERTEX
8
CUT
10
211.2290
20
116.5093
0
VERTEX
8
CUT
10
210.9364
20
116.8375
0
VERTEX
8
CUT
10
210.8248
20
117.4296
0
VERTEX
8
CUT
10
211.3210
20
120.0213
0
VERTEX
8
CUT
10
211.4815
20
122.8768
0
VERTEX
8
CUT
10
211.3189
20
126.0657
0
VERTEX
8
CUT
10
211.1822
20
126.9832
0
VERTEX
8
CUT
10
211.1570
20
127.3301
0
VERTEX
8
CUT
10
211.0683
20
127.7477
0
VERTEX
8
CUT
10
210.8980
20
128.8912
0
VERTEX
8
CUT
10
210.2580
20
130.7318
0
VERTEX
8
CUT
10
210.1610
20
130.9088
0
VERTEX
8
CUT
10
210.0996
20
131.0795
0
VERTEX
8
CUT
10
209.7177
20
131.7326
0
VERTEX
8
CUT
10
209.3960
20
132.3433
0
VERTEX
8
CUT
10
209.3109
20
132.4283
0
VERTEX
8
CUT
10
209.3098
20
132.4303
0
VERTEX
8
CUT
10
209.2992
20
132.4401
0
VERTEX
8
CUT
10
209.0774
20
132.6617
0
VERTEX
8
CUT
10
208.7227
20
133.1163
0
VERTEX
8
CUT
10
207.8657
20
133.6774
0
VERTEX
8
CUT
10
207.7053
20
133.6167
0
VERTEX
8
CUT
10
207.6991
20
133.6188
0
VERTEX
8
CUT
10
207.6877
20
133.6100
0
VERTEX
8
CUT
10
207.1338
20
133.4001
0
VERTEX
8
CUT
10
206.2332
20
132.5340
0
VERTEX
8
CUT
10
206.0166
20
132.2095
0
VERTEX
8
CUT
10
205.6918
20
131.7897
0
VERTEX
8
CUT
10
205.4915
20
131.4230
0
VERTEX
8
CUT
10
204.7870
20
130.3679
0
VERTEX
8
CUT
10
204.5715
20
129.8423
0
VERTEX
8
CUT
10
204.1787
20
129.0203
0
VERTEX
8
CUT
10
203.7830
20
127.9191
0
VERTEX
8
CUT
10
203.2302
20
126.5707
0
VERTEX
8
CUT
10
202.4475
20
123.1405
0
VERTEX
8
CUT
10
202.4656
20
122.4940
0
VERTEX
8
CUT
10
202.6784
20
122.2342
0
VERTEX
8
CUT
10
202.7653
20
122.2431
0
VERTEX
8
CUT
10
202.8760
20
122.0867
0
VERTEX
8
CUT
10
203.7680
20
122.3448
0
VERTEX
8
CUT
10
204.7362
20
122.4430
0
VERTEX
8
CUT
10
205.7767
20
122.0225
0
VERTEX
8
CUT
10
206.4887
20
121.3639
0
VERTEX
8
CUT
10
206.7765
20
120.9781
0
VERTEX
8
CUT
10
207.2171
20
119.9504
0
VERTEX
8
CUT
10
207.2858
20
119.3728
0
VERTEX
8
CUT
10
207.0593
20
118.3093
0
VERTEX
8
CUT
10
206.4144
20
117.3288
0
VERTEX
8
CUT
10
206.2551
20
117.1889
0
VERTEX
8
CUT
10
204.9693
20
116.3300
0
VERTEX
8
CUT
10
204.6171
20
116.3027
0
VERTEX
8
CUT
10
204.0259
20
116.3061
0
VERTEX
8
CUT
10
203.7440
20
116.3900
0
VERTEX
8
CUT
10
202.9786
20
116.7294
0
VERTEX
8
CUT
10
201.8854
20
117.9292
0
VERTEX
8
CUT
10
201.5011
20
119.4758
0
VERTEX
8
CUT
10
200.2439
20
119.9083
0
VERTEX
8
CUT
10
199.5715
20
120.3624
0
VERTEX
8
CUT
10
198.2707
20
122.3185
0
VERTEX
8
CUT
10
197.9246
20
122.4204
0
VERTEX
8
CUT
10
197.6299
20
122.1596
0
VERTEX
8
CUT
10
197.7623
20
120.5838
0
VERTEX
8
CUT
10
198.9105
20
117.0112
0
VERTEX
8
CUT
10
199.6782
20
115.8348
0
VERTEX
8
CUT
10
199.7847
20
115.6228
0
VERTEX
8
CUT
10
200.0183
20
115.3137
0
VERTEX
8
CUT
10
200.6659
20
114.3214
0
VERTEX
8
CUT
10
201.1221
20
113.8529
0
SEQEND
0
POLYLINE
8
CUT
66
1
70
1
10
0.0
20
0.0
30
0.0
0
VERTEX
8
CUT
10
212.5152
20
85.8038
0
VERTEX
8
CUT
10
211.7904
20
85.5403
0
VERTEX
8
CUT
10
211.8562
20
85.1449
0
VERTEX
8
CUT
10
212.3834
20
84.6837
0
VERTEX
8
CUT
10
214.2943
20
83.8929
0
VERTEX
8
CUT
10
214.3272
20
84.3542
0
VERTEX
8
CUT
10
213.4377
20
85.4414
0
SEQEND
0
POLYLINE
8
CUT
66
1
70
1
10
0.0
20
0.0
30
0.0
0
VERTEX
8
CUT
10
197.9487
20
251.3316
0
VERTEX
8
CUT
10
200.0801
20
249.7217
0
VERTEX
8
CUT
10
200.8334
20
249.4997
0
VERTEX
8
CUT
10
203.2573
20
249.9870
0
VERTEX
8
CUT
10
204.7089
20
249.7450
0
VERTEX
8
CUT
10
206.9942
20
248.3733
0
VERTEX
8
CUT
10
208.9360
20
246.4716
0
VERTEX
8
CUT
10
210.7348
20
243.7242
0
VERTEX
8
CUT
10
211.9201
20
240.6620
0
VERTEX
8
CUT
10
212.5244
20
237.1623
0
VERTEX
8
CUT
10
212.6458
20
233.6042
0
VERTEX
8
CUT
10
212.8725
20
233.3121
0
VERTEX
8
CUT
10
213.2411
20
233.3409
0
VERTEX
8
CUT
10
213.4289
20
233.6899
0
VERTEX
8
CUT
10
213.5244
20
237.1852
0
VERTEX
8
CUT
10
213.2326
20
242.0858
0
VERTEX
8
CUT
10
212.1979
20
245.4265
0
VERTEX
8
CUT
10
210.9928
20
247.6133
0
VERTEX
8
CUT
10
208.7148
20
250.4148
0
VERTEX
8
CUT
10
206.2252
20
252.5083
0
VERTEX
8
CUT
10
204.1313
20
253.2893
0
VERTEX
8
CUT
10
199.9248
20
253.6662
0
VERTEX
8
CUT
10
196.7856
20
255.8874
0
VERTEX
8
CUT
10
196.0637
20
256.7805
0
VERTEX
8
CUT
10
195.5140
20
257.9793
0
VERTEX
8
CUT
10
194.3899
20
261.2869
0
VERTEX
8
CUT
10
193.4367
20
265.1888
0
VERTEX
8
CUT
10
192.9949
20
265.4245
0
VERTEX
8
CUT
10
192.6635
20
265.0140
0
VERTEX
8
CUT
10
192.4967
20
262.9488
0
VERTEX
8
CUT
10
192.6270
20
261.2430
0
VERTEX
8
CUT
10
193.6770
20
257.6440
0
VERTEX
8
CUT
10
195.5146
20
254.2274
0
VERTEX
8
CUT
10
196.3535
20
253.2294
0
VERTEX
8
CUT
10
196.3535
20
253.2247
0
VERTEX
8
CUT
10
196.4158
20
253.1553
0
SEQEND
0
POLYLINE
8
CUT
66
1
70
1
10
0.0
20
0.0
30
0.0
0
VERTEX
8
CUT
10
201.8358
20
155.9551
0
VERTEX
8
CUT
10
201.9096
20
154.4674
0
VERTEX
8
CUT
10
202.5353
20
152.9780
0
VERTEX
8
CUT
10
203.5889
20
151.7290
0
VERTEX
8
CUT
10
204.1154
20
151.3476
0
VERTEX
8
CUT
10
204.4609
20
151.3500
0
VERTEX
8
CUT
10
204.6416
20
151.3218
0
VERTEX
8
CUT
10
205.4225
20
151.8176
0
VERTEX
8
CUT
10
206.7820
20
152.6271
0
VERTEX
8
CUT
10
206.7844
20
153.1765
0
VERTEX
8
CUT
10
206.2483
20
153.6204
0
VERTEX
8
CUT
10
206.0017
20
153.8960
0
VERTEX
8
CUT
10
203.4171
20
155.9849
0
VERTEX
8
CUT
10
202.4643
20
157.2439
0
VERTEX
8
CUT
10
202.4138
20
157.2602
0
VERTEX
8
CUT
10
202.0900
20
157.3799
0
VERTEX
8
CUT
10
202.0782
20
157.3688
0
VERTEX
8
CUT
10
201.9871
20
157.3982
0
VERTEX
8
CUT
10
201.8360
20
157.1411
0
VERTEX
8
CUT
10
201.7797
20
157.0883
0
VERTEX
8
CUT
10
201.7816
20
157.0487
0
VERTEX
8
CUT
10
201.7226
20
156.9482
0
VERTEX
8
CUT
10
201.7557
20
156.6943
0
VERTEX
8
CUT
10
201.7234
20
156.5942
0
SEQEND
0
POLYLINE
8
CUT
66
1
70
1
10
0.0
20
0.0
30
0.0
0
VERTEX
8
CUT
10
139.9436
20
207.5652
0
VERTEX
8
CUT
10
140.2989
20
208.4814
0
VERTEX
8
CUT
10
140.3520
20
208.5569
0
VERTEX
8
CUT
10
140.4874
20
208.7493
0
VERTEX
8
CUT
10
140.6179
20
208.9348
0
VERTEX
8
CUT
10
140.7852
20
209.1725
0
VERTEX
8
CUT
10
141.4157
20
209.8737
0
VERTEX
8
CUT
10
141.5745
20
209.9952
0
VERTEX
8
CUT
10
141.5973
20
210.0127
0
VERTEX
8
CUT
10
141.6013
20
210.0157
0
VERTEX
8
CUT
10
141.6311
20
210.0385
0
VERTEX
8
CUT
10
143.0806
20
211.0103
0
VERTEX
8
CUT
10
143.9558
20
211.4143
0
VERTEX
8
CUT
10
145.2980
20
211.8747
0
VERTEX
8
CUT
10
145.4591
20
211.9013
0
VERTEX
8
CUT
10
152.8318
20
212.1530
0
VERTEX
8
CUT
10
154.7210
20
212.0342
0
VERTEX
8
CUT
10
155.9208
20
212.1362
0
VERTEX
8
CUT
10
156.3769
20
212.4397
0
VERTEX
8
CUT
10
156.4841
20
212.8290
0
VERTEX
8
CUT
10
156.7986
20
213.8921
0
VERTEX
8
CUT
10
157.8218
20
215.0849
0
VERTEX
8
CUT
10
158.2365
20
215.4148
0
VERTEX
8
CUT
10
159.3100
20
216.0412
0
VERTEX
8
CUT
10
159.4562
20
216.1133
0
VERTEX
8
CUT
10
159.5003
20
216.1350
0
VERTEX
8
CUT
10
159.5158
20
216.1426
0
VERTEX
8
CUT
10
159.6050
20
216.1866
0
VERTEX
8
CUT
10
161.2420
20
216.5101
0
VERTEX
8
CUT
10
163.3503
20
216.5127
0
VERTEX
8
CUT
10
165.6737
20
216.2134
0
VERTEX
8
CUT
10
171.2931
20
214.7265
0
VERTEX
8
CUT
10
173.9305
20
214.2121
0
VERTEX
8
CUT
10
174.4834
20
214.4529
0
VERTEX
8
CUT
10
175.6338
20
215.6902
0
VERTEX
8
CUT
10
177.0583
20
216.5333
0
VERTEX
8
CUT
10
178.8234
20
216.7769
0
VERTEX
8
CUT
10
181.0109
20
216.4797
0
VERTEX
8
CUT
10
183.8712
20
215.5734
0
VERTEX
8
CUT
10
186.9549
20
214.2126
0
VERTEX
8
CUT
10
190.1529
20
212.3663
0
VERTEX
8
CUT
10
193.0456
20
210.4018
0
VERTEX
8
CUT
10
193.4447
20
210.4477
0
VERTEX
8
CUT
10
193.5956
20
210.7837
0
VERTEX
8
CUT
10
191.4105
20
212.7364
0
VERTEX
8
CUT
10
187.7318
20
215.1347
0
VERTEX
8
CUT
10
186.3554
20
216.4323
0
VERTEX
8
CUT
10
184.3121
20
217.5343
0
VERTEX
8
CUT
10
181.6109
20
218.4345
0
VERTEX
8
CUT
10
180.1169
20
218.7346
0
VERTEX
8
CUT
10
174.1693
20
219.2664
0
VERTEX
8
CUT
10
169.7312
20
220.5271
0
VERTEX
8
CUT
10
168.1975
20
221.3270
0
VERTEX
8
CUT
10
166.3414
20
223.0410
0
VERTEX
8
CUT
10
164.4471
20
225.3654
0
VERTEX
8
CUT
10
161.2380
20
230.5568
0
VERTEX
8
CUT
10
158.9082
20
233.8044
0
VERTEX
8
CUT
10
156.3162
20
236.6227
0
VERTEX
8
CUT
10
154.1844
20
238.2804
0
VERTEX
8
CUT
10
152.0101
20
238.9911
0
VERTEX
8
CUT
10
149.2063
20
239.0939
0
VERTEX
8
CUT
10
148.2792
20
238.8529
0
VERTEX
8
CUT
10
146.3118
20
237.3630
0
VERTEX
8
CUT
10
145.6337
20
237.4253
0
VERTEX
8
CUT
10
145.0484
20
238.9804
0
VERTEX
8
CUT
10
142.1537
20
243.2556
0
VERTEX
8
CUT
10
138.6255
20
249.9165
0
VERTEX
8
CUT
10
138.0821
20
251.7414
0
VERTEX
8
CUT
10
137.9417
20
256.0343
0
VERTEX
8
CUT
10
137.5025
20
256.3608
0
VERTEX
8
CUT
10
137.1921
20
256.1124
0
VERTEX
8
CUT
10
136.8158
20
254.6573
0
VERTEX
8
CUT
10
136.4884
20
252.0760
0
VERTEX
8
CUT
10
136.8082
20
249.2871
0
VERTEX
8
CUT
10
137.2297
20
247.8175
0
VERTEX
8
CUT
10
137.8274
20
246.2558
0
VERTEX
8
CUT
10
139.4825
20
243.0108
0
VERTEX
8
CUT
10
139.9186
20
242.3773
0
VERTEX
8
CUT
10
139.9015
20
242.3318
0
VERTEX
8
CUT
10
140.3957
20
241.4093
0
VERTEX
8
CUT
10
142.9326
20
237.7193
0
VERTEX
8
CUT
10
143.4357
20
237.2324
0
VERTEX
8
CUT
10
145.0529
20
234.5243
0
VERTEX
8
CUT
10
146.1942
20
231.3936
0
VERTEX
8
CUT
10
146.3425
20
231.3151
0
VERTEX
8
CUT
10
146.4032
20
231.1522
0
VERTEX
8
CUT
10
146.6349
20
229.7375
0
VERTEX
8
CUT
10
146.5661
20
226.9477
0
VERTEX
8
CUT
10
146.0473
20
225.3597
0
VERTEX
8
CUT
10
144.9374
20
223.8446
0
VERTEX
8
CUT
10
142.9241
20
222.2621
0
VERTEX
8
CUT
10
141.6979
20
221.8275
0
VERTEX
8
CUT
10
140.4034
20
221.6636
0
VERTEX
8
CUT
10
137.4609
20
222.1263
0
VERTEX
8
CUT
10
130.8078
20
224.8356
0
VERTEX
8
CUT
10
128.7447
20
225.4218
0
VERTEX
8
CUT
10
127.9433
20
225.4806
0
VERTEX
8
CUT
10
126.5303
20
225.2305
0
VERTEX
8
CUT
10
124.9854
20
224.3698
0
VERTEX
8
CUT
10
124.2590
20
223.6219
0
VERTEX
8
CUT
10
123.4389
20
221.6982
0
VERTEX
8
CUT
10
123.3725
20
219.0891
0
VERTEX
8
CUT
10
124.9498
20
212.3767
0
VERTEX
8
CUT
10
125.5836
20
211.2428
0
VERTEX
8
CUT
10
126.7431
20
209.6969
0
VERTEX
8
CUT
10
126.8062
20
209.5768
0
VERTEX
8
CUT
10
126.9636
20
209.4028
0
VERTEX
8
CUT
10
127.8357
20
208.2400
0
VERTEX
8
CUT
10
129.9817
20
206.0929
0
VERTEX
8
CUT
10
130.5564
20
204.8701
0
VERTEX
8
CUT
10
131.0127
20
204.7672
0
VERTEX
8
CUT
10
131.5315
20
205.3197
0
VERTEX
8
CUT
10
132.2234
20
205.5406
0
VERTEX
8
CUT
10
137.1861
20
204.2189
0
VERTEX
8
CUT
10
139.5281
20
204.1197
0
VERTEX
8
CUT
10
139.7415
20
204.3909
0
VERTEX
8
CUT
10
139.8531
20
204.4555
0
VERTEX
8
CUT
10
139.8080
20
205.2205
0
VERTEX
8
CUT
10
139.8569
20
207.1850
0
SEQEND
0
POLYLINE
8
CUT
66
1
70
1
10
0.0
20
0.0
30
0.0
0
VERTEX
8
CUT
10
186.4455
20
151.4702
0
VERTEX
8
CUT
10
188.8692
20
150.3886
0
VERTEX
8
CUT
10
189.2941
20
150.3926
0
VERTEX
8
CUT
10
189.6007
20
150.3218
0
VERTEX
8
CUT
10
189.6732
20
150.3275
0
VERTEX
8
CUT
10
189.8067
20
150.2990
0
VERTEX
8
CUT
10
190.0398
20
150.3563
0
VERTEX
8
CUT
10
190.3763
20
150.3827
0
VERTEX
8
CUT
10
190.4101
20
150.4031
0
VERTEX
8
CUT
10
190.8015
20
150.4068
0
VERTEX
8
CUT
10
191.7387
20
151.0467
0
VERTEX
8
CUT
10
192.4415
20
152.3418
0
VERTEX
8
CUT
10
192.7056
20
153.3635
0
VERTEX
8
CUT
10
192.6333
20
154.3424
0
VERTEX
8
CUT
10
191.6946
20
156.6218
0
VERTEX
8
CUT
10
191.3326
20
157.1700
0
VERTEX
8
CUT
10
191.0679
20
157.7230
0
VERTEX
8
CUT
10
190.6470
20
158.2257
0
VERTEX
8
CUT
10
190.2735
20
158.2715
0
VERTEX
8
CUT
10
190.2697
20
158.2663
0
VERTEX
8
CUT
10
190.1434
20
158.3433
0
VERTEX
8
CUT
10
189.8992
20
158.1600
0
VERTEX
8
CUT
10
189.5055
20
157.2287
0
VERTEX
8
CUT
10
189.3981
20
157.0829
0
VERTEX
8
CUT
10
187.9435
20
155.7317
0
VERTEX
8
CUT
10
187.6241
20
155.5408
0
VERTEX
8
CUT
10
181.3040
20
152.6245
0
VERTEX
8
CUT
10
181.2831
20
152.6108
0
VERTEX
8
CUT
10
181.1978
20
152.5736
0
VERTEX
8
CUT
10
180.1277
20
151.8924
0
VERTEX
8
CUT
10
180.0361
20
151.7952
0
VERTEX
8
CUT
10
180.0118
20
151.7793
0
VERTEX
8
CUT
10
179.9745
20
151.7298
0
VERTEX
8
CUT
10
179.2212
20
150.9304
0
VERTEX
8
CUT
10
179.4323
20
150.3891
0
VERTEX
8
CUT
10
180.0069
20
150.0096
0
VERTEX
8
CUT
10
180.3882
20
149.9875
0
VERTEX
8
CUT
10
181.4581
20
150.7961
0
VERTEX
8
CUT
10
182.0913
20
151.1832
0
VERTEX
8
CUT
10
182.2332
20
151.2699
0
VERTEX
8
CUT
10
182.3232
20
151.3249
0
VERTEX
8
CUT
10
182.5853
20
151.4851
0
VERTEX
8
CUT
10
183.8362
20
151.8348
0
VERTEX
8
CUT
10
184.7203
20
151.8725
0
SEQEND
0
POLYLINE
8
CUT
66
1
70
1
10
0.0
20
0.0
30
0.0
0
VERTEX
8
CUT
10
108.8405
20
110.9174
0
VERTEX
8
CUT
10
113.6573
20
108.9614
0
VERTEX
8
CUT
10
115.6771
20
107.9799
0
VERTEX
8
CUT
10
118.9156
20
106.2835
0
VERTEX
8
CUT
10
122.7369
20
104.5525
0
VERTEX
8
CUT
10
125.0455
20
103.7606
0
VERTEX
8
CUT
10
125.1369
20
103.7393
0
VERTEX
8
CUT
10
125.6089
20
103.5626
0
VERTEX
8
CUT
10
127.2120
20
103.1728
0
VERTEX
8
CUT
10
128.8915
20
103.0422
0
VERTEX
8
CUT
10
130.3058
20
102.8816
0
VERTEX
8
CUT
10
130.8208
20
102.8931
0
VERTEX
8
CUT
10
131.3568
20
102.8492
0
VERTEX
8
CUT
10
134.0998
20
102.9163
0
VERTEX
8
CUT
10
134.4843
20
102.9743
0
VERTEX
8
CUT
10
134.6926
20
102.9790
0
VERTEX
8
CUT
10
135.3456
20
103.0993
0
VERTEX
8
CUT
10
135.6538
20
103.1111
0
VERTEX
8
CUT
10
137.8008
20
103.5001
0
VERTEX
8
CUT
10
141.0162
20
104.6508
0
VERTEX
8
CUT
10
142.2146
20
105.3323
0
VERTEX
8
CUT
10
142.5899
20
105.5060
0
VERTEX
8
CUT
10
143.2728
20
105.9341
0
VERTEX
8
CUT
10
144.3175
20
106.5282
0
VERTEX
8
CUT
10
144.8804
20
106.9418
0
VERTEX
8
CUT
10
144.9383
20
106.9781
0
VERTEX
8
CUT
10
144.9992
20
107.0291
0
VERTEX
8
CUT
10
145.9434
20
107.7229
0
VERTEX
8
CUT
10
146.8514
20
108.5800
0
VERTEX
8
CUT
10
147.1201
20
108.8049
0
VERTEX
8
CUT
10
147.3942
20
109.0923
0
VERTEX
8
CUT
10
148.4142
20
110.0550
0
VERTEX
8
CUT
10
148.5954
20
110.2143
0
VERTEX
8
CUT
10
148.6438
20
110.2718
0
VERTEX
8
CUT
10
148.8302
20
110.4478
0
VERTEX
8
CUT
10
149.3473
20
111.1071
0
VERTEX
8
CUT
10
149.8258
20
111.6752
0
VERTEX
8
CUT
10
150.0118
20
111.9544
0
VERTEX
8
CUT
10
151.3188
20
113.6209
0
VERTEX
8
CUT
10
152.4035
20
115.4274
0
VERTEX
8
CUT
10
154.3097
20
119.0760
0
VERTEX
8
CUT
10
156.1014
20
122.9258
0
VERTEX
8
CUT
10
156.6049
20
123.9434
0
VERTEX
8
CUT
10
156.7925
20
124.3226
0
VERTEX
8
CUT
10
157.1666
20
125.0785
0
VERTEX
8
CUT
10
158.0187
20
126.8006
0
VERTEX
8
CUT
10
159.4310
20
129.2675
0
VERTEX
8
CUT
10
159.7352
20
129.6224
0
VERTEX
8
CUT
10
160.5154
20
130.7827
0
VERTEX
8
CUT
10
161.0661
20
131.3821
0
VERTEX
8
CUT
10
162.1750
20
132.0958
0
VERTEX
8
CUT
10
163.0560
20
132.3977
0
VERTEX
8
CUT
10
163.9222
20
132.3986
0
VERTEX
8
CUT
10
165.6963
20
131.4943
0
VERTEX
8
CUT
10
166.0239
20
131.7683
0
VERTEX
8
CUT
10
166.0120
20
132.6229
0
VERTEX
8
CUT
10
165.1772
20
133.6815
0
VERTEX
8
CUT
10
163.3435
20
134.1741
0
VERTEX
8
CUT
10
162.8440
20
134.6181
0
VERTEX
8
CUT
10
162.5341
20
135.3541
0
VERTEX
8
CUT
10
162.3884
20
137.1262
0
VERTEX
8
CUT
10
162.1113
20
137.9421
0
VERTEX
8
CUT
10
161.3322
20
138.9596
0
VERTEX
8
CUT
10
161.2412
20
139.0873
0
VERTEX
8
CUT
10
161.2302
20
139.0929
0
VERTEX
8
CUT
10
161.1045
20
139.2570
0
VERTEX
8
CUT
10
160.4038
20
139.5907
0
VERTEX
8
CUT
10
158.9754
20
139.4913
0
VERTEX
8
CUT
10
158.8234
20
139.4966
0
VERTEX
8
CUT
10
158.7254
20
139.4739
0
VERTEX
8
CUT
10
158.0776
20
139.4289
0
VERTEX
8
CUT
10
155.8857
20
138.7613
0
VERTEX
8
CUT
10
154.9612
20
138.0106
0
VERTEX
8
CUT
10
153.7832
20
135.5970
0
VERTEX
8
CUT
10
153.7714
20
135.5842
0
VERTEX
8
CUT
10
153.7478
20
135.5588
0
VERTEX
8
CUT
10
153.7092
20
135.5172
0
VERTEX
8
CUT
10
153.5896
20
135.3884
0
VERTEX
8
CUT
10
153.0326
20
135.0447
0
VERTEX
8
CUT
10
152.6863
20
134.9116
0
VERTEX
8
CUT
10
152.6615
20
134.9021
0
VERTEX
8
CUT
10
152.2030
20
134.7258
0
VERTEX
8
CUT
10
151.7653
20
134.5575
0
VERTEX
8
CUT
10
149.5878
20
134.7195
0
VERTEX
8
CUT
10
144.5454
20
136.2095
0
VERTEX
8
CUT
10
143.8636
20
136.3393
0
VERTEX
8
CUT
10
143.7563
20
136.3739
0
VERTEX
8
CUT
10
140.9456
20
136.9614
0
VERTEX
8
CUT
10
140.1237
20
137.0517
0
VERTEX
8
CUT
10
139.3982
20
137.1900
0
VERTEX
8
CUT
10
138.8307
20
137.1938
0
VERTEX
8
CUT
10
138.2937
20
137.2528
0
VERTEX
8
CUT
10
137.5471
20
137.2026
0
VERTEX
8
CUT
10
134.6395
20
137.2225
0
VERTEX
8
CUT
10
132.9337
20
136.8923
0
VERTEX
8
CUT
10
132.8980
20
136.8898
0
VERTEX
8
CUT
10
132.6348
20
136.8344
0
VERTEX
8
CUT
10
129.9288
20
136.3105
0
VERTEX
8
CUT
10
128.3119
20
135.7012
0
VERTEX
8
CUT
10
127.7357
20
135.5137
0
VERTEX
8
CUT
10
127.2110
20
135.2864
0
VERTEX
8
CUT
10
125.6459
20
134.6966
0
VERTEX
8
CUT
10
123.8182
20
133.7161
0
VERTEX
8
CUT
10
123.2183
20
133.2998
0
VERTEX
8
CUT
10
122.9965
20
133.1767
0
VERTEX
8
CUT
10
120.7362
20
131.6066
0
VERTEX
8
CUT
10
120.5293
20
131.4342
0
VERTEX
8
CUT
10
120.2062
20
131.2101
0
VERTEX
8
CUT
10
119.5750
20
130.6391
0
VERTEX
8
CUT
10
118.5500
20
129.7850
0
VERTEX
8
CUT
10
117.9240
20
129.1456
0
VERTEX
8
CUT
10
116.7530
20
128.0862
0
VERTEX
8
CUT
10
115.5414
20
126.7116
0
VERTEX
8
CUT
10
115.5170
20
126.6867
0
VERTEX
8
CUT
10
115.4929
20
126.6566
0
VERTEX
8
CUT
10
111.8572
20
122.5318
0
VERTEX
8
CUT
10
109.8746
20
121.1470
0
VERTEX
8
CUT
10
107.4744
20
120.2877
0
VERTEX
8
CUT
10
101.7091
20
119.4552
0
VERTEX
8
CUT
10
101.0600
20
118.8163
0
VERTEX
8
CUT
10
98.9988
20
115.1162
0
VERTEX
8
CUT
10
94.3276
20
114.5952
0
VERTEX
8
CUT
10
94.0903
20
114.3204
0
VERTEX
8
CUT
10
94.1826
20
113.9693
0
VERTEX
8
CUT
10
95.7632
20
112.6382
0
VERTEX
8
CUT
10
96.8640
20
112.0059
0
VERTEX
8
CUT
10
97.5327
20
110.8073
0
VERTEX
8
CUT
10
101.1854
20
111.3377
0
VERTEX
8
CUT
10
104.8715
20
111.6116
0
VERTEX
8
CUT
10
104.8878
20
111.6104
0
VERTEX
8
CUT
10
106.8307
20
111.4156
0
SEQEND
0
POLYLINE
8
CUT
66
1
70
1
10
0.0
20
0.0
30
0.0
0
VERTEX
8
CUT
10
148.9617
20
265.0977
0
VERTEX
8
CUT
10
149.8183
20
267.0085
0
VERTEX
8
CUT
10
150.1149
20
268.1617
0
VERTEX
8
CUT
10
149.7195
20
269.4136
0
VERTEX
8
CUT
10
148.7970
20
269.9737
0
VERTEX
8
CUT
10
148.3358
20
269.9078
0
VERTEX
8
CUT
10
148.1710
20
269.6443
0
VERTEX
8
CUT
10
148.7641
20
267.7993
0
VERTEX
8
CUT
10
147.8745
20
264.5046
0
VERTEX
8
CUT
10
148.3687
20
264.4058
0
SEQEND
0
POLYLINE
8
CUT
66
1
70
1
10
0.0
20
0.0
30
0.0
0
VERTEX
8
CUT
10
116.5367
20
200.3944
0
VERTEX
8
CUT
10
117.9142
20
199.4838
0
VERTEX
8
CUT
10
120.3539
20
197.7290
0
VERTEX
8
CUT
10
124.3318
20
195.2414
0
VERTEX
8
CUT
10
125.8719
20
194.2234
0
VERTEX
8
CUT
10
125.9370
20
194.2376
0
VERTEX
8
CUT
10
132.0283
20
190.4284
0
VERTEX
8
CUT
10
136.4076
20
188.0975
0
VERTEX
8
CUT
10
137.2267
20
187.6325
0
VERTEX
8
CUT
10
137.3284
20
187.6074
0
VERTEX
8
CUT
10
137.9659
20
187.2681
0
VERTEX
8
CUT
10
138.4067
20
187.2623
0
VERTEX
8
CUT
10
139.5286
20
187.9326
0
VERTEX
8
CUT
10
139.5886
20
188.4013
0
VERTEX
8
CUT
10
139.5149
20
188.4902
0
VERTEX
8
CUT
10
139.3985
20
188.9597
0
VERTEX
8
CUT
10
138.5428
20
189.6563
0
VERTEX
8
CUT
10
132.1804
20
195.7901
0
VERTEX
8
CUT
10
130.8766
20
197.3829
0
VERTEX
8
CUT
10
130.3043
20
197.5762
0
VERTEX
8
CUT
10
128.8790
20
197.0905
0
VERTEX
8
CUT
10
128.2454
20
197.0925
0
VERTEX
8
CUT
10
127.0971
20
197.5312
0
VERTEX
8
CUT
10
125.9278
20
198.4877
0
VERTEX
8
CUT
10
125.0206
20
199.8345
0
VERTEX
8
CUT
10
124.4046
20
201.2901
0
VERTEX
8
CUT
10
124.5743
20
201.8944
0
VERTEX
8
CUT
10
125.6891
20
202.7411
0
VERTEX
8
CUT
10
125.7633
20
203.1921
0
VERTEX
8
CUT
10
125.4398
20
203.6948
0
VERTEX
8
CUT
10
125.4395
20
203.6989
0
VERTEX
8
CUT
10
124.7066
20
204.9149
0
VERTEX
8
CUT
10
124.3476
20
205.3917
0
VERTEX
8
CUT
10
119.1465
20
213.4722
0
VERTEX
8
CUT
10
118.7136
20
213.5133
0
VERTEX
8
CUT
10
118.5099
20
213.1662
0
VERTEX
8
CUT
10
118.9269
20
209.0551
0
VERTEX
8
CUT
10
118.9268
20
206.2785
0
VERTEX
8
CUT
10
118.5528
20
205.5000
0
VERTEX
8
CUT
10
118.1240
20
205.3892
0
VERTEX
8
CUT
10
116.2694
20
206.3968
0
VERTEX
8
CUT
10
115.1606
20
206.7288
0
VERTEX
8
CUT
10
114.2906
20
207.2961
0
VERTEX
8
CUT
10
107.4597
20
212.5459
0
VERTEX
8
CUT
10
107.1182
20
212.4919
0
VERTEX
8
CUT
10
106.7409
20
212.0135
0
VERTEX
8
CUT
10
105.2213
20
209.0641
0
VERTEX
8
CUT
10
109.0979
20
205.8249
0
VERTEX
8
CUT
10
110.6874
20
204.6817
0
VERTEX
8
CUT
10
111.0076
20
204.3447
0
VERTEX
8
CUT
10
112.2925
20
203.4222
0
VERTEX
8
CUT
10
112.5849
20
203.3169
0
VERTEX
8
CUT
10
114.9284
20
201.6314
0
SEQEND
0
POLYLINE
8
CUT
66
1
70
1
10
0.0
20
0.0
30
0.0
0
VERTEX
8
CUT
10
136.0797
20
168.6638
0
VERTEX
8
CUT
10
136.4751
20
168.8615
0
VERTEX
8
CUT
10
136.5080
20
169.2239
0
VERTEX
8
CUT
10
135.3549
20
169.7840
0
VERTEX
8
CUT
10
133.3781
20
170.0476
0
VERTEX
8
CUT
10
131.0389
20
169.9158
0
VERTEX
8
CUT
10
130.3471
20
169.4545
0
VERTEX
8
CUT
10
131.2366
20
168.9274
0
VERTEX
8
CUT
10
134.3336
20
168.5320
0
SEQEND
0
POLYLINE
8
CUT
66
1
70
1
10
0.0
20
0.0
30
0.0
0
VERTEX
8
CUT
10
131.2619
20
279.5853
0
VERTEX
8
CUT
10
132.1381
20
280.5550
0
VERTEX
8
CUT
10
133.4857
20
283.0222
0
VERTEX
8
CUT
10
133.9918
20
285.5027
0
VERTEX
8
CUT
10
133.8215
20
286.0676
0
VERTEX
8
CUT
10
133.2810
20
285.9289
0
VERTEX
8
CUT
10
132.4799
20
283.7859
0
VERTEX
8
CUT
10
131.5167
20
282.4106
0
VERTEX
8
CUT
10
122.9670
20
274.4541
0
VERTEX
8
CUT
10
119.7437
20
270.3436
0
VERTEX
8
CUT
10
118.3096
20
267.7320
0
VERTEX
8
CUT
10
117.0041
20
264.2001
0
VERTEX
8
CUT
10
116.5853
20
262.0302
0
VERTEX
8
CUT
10
116.4008
20
258.1057
0
VERTEX
8
CUT
10
116.7360
20
257.7868
0
VERTEX
8
CUT
10
117.1396
20
258.0132
0
VERTEX
8
CUT
10
117.3268
20
260.3698
0
VERTEX
8
CUT
10
118.0560
20
263.2839
0
VERTEX
8
CUT
10
119.3115
20
266.4574
0
VERTEX
8
CUT
10
120.9707
20
269.2837
0
VERTEX
8
CUT
10
122.8874
20
271.5868
0
VERTEX
8
CUT
10
130.1164
20
278.0126
0
VERTEX
8
CUT
10
131.2366
20
279.2316
0
SEQEND
0
POLYLINE
8
CUT
66
1
70
1
10
0.0
20
0.0
30
0.0
0
VERTEX
8
CUT
10
93.1629
20
192.4863
0
VERTEX
8
CUT
10
96.4573
20
190.9657
0
VERTEX
8
CUT
10
98.7433
20
190.0579
0
VERTEX
8
CUT
10
99.6777
20
189.6513
0
VERTEX
8
CUT
10
101.5035
20
188.9618
0
VERTEX
8
CUT
10
107.8215
20
186.4529
0
VERTEX
8
CUT
10
110.9010
20
185.4130
0
VERTEX
8
CUT
10
112.3312
20
184.8729
0
VERTEX
8
CUT
10
117.6150
20
183.1458
0
VERTEX
8
CUT
10
122.9327
20
181.3502
0
VERTEX
8
CUT
10
130.4302
20
179.2316
0
VERTEX
8
CUT
10
130.8842
20
179.4292
0
VERTEX
8
CUT
10
130.8329
20
179.8598
0
VERTEX
8
CUT
10
129.5995
20
180.8107
0
VERTEX
8
CUT
10
129.1513
20
181.4841
0
VERTEX
8
CUT
10
129.4248
20
182.0968
0
VERTEX
8
CUT
10
130.8108
20
183.9921
0
VERTEX
8
CUT
10
130.8004
20
184.0954
0
VERTEX
8
CUT
10
131.2183
20
184.6836
0
VERTEX
8
CUT
10
131.0779
20
185.0546
0
VERTEX
8
CUT
10
129.8373
20
185.8162
0
VERTEX
8
CUT
10
128.6260
20
186.4011
0
VERTEX
8
CUT
10
127.6611
20
186.6341
0
VERTEX
8
CUT
10
125.2542
20
186.5416
0
VERTEX
8
CUT
10
123.6874
20
186.8171
0
VERTEX
8
CUT
10
117.3504
20
189.1960
0
VERTEX
8
CUT
10
115.3787
20
188.8149
0
VERTEX
8
CUT
10
113.2148
20
189.0890
0
VERTEX
8
CUT
10
108.4805
20
190.9300
0
VERTEX
8
CUT
10
104.3338
20
192.2919
0
VERTEX
8
CUT
10
101.1957
20
193.6136
0
VERTEX
8
CUT
10
98.1327
20
195.2128
0
VERTEX
8
CUT
10
93.1570
20
197.1388
0
VERTEX
8
CUT
10
87.6694
20
200.0638
0
VERTEX
8
CUT
10
86.3488
20
200.5110
0
VERTEX
8
CUT
10
84.2324
20
201.7659
0
VERTEX
8
CUT
10
81.5176
20
202.8105
0
VERTEX
8
CUT
10
79.3756
20
204.1182
0
VERTEX
8
CUT
10
73.9294
20
208.5771
0
VERTEX
8
CUT
10
73.4993
20
208.5331
0
VERTEX
8
CUT
10
73.3653
20
208.1562
0
VERTEX
8
CUT
10
74.2882
20
206.5939
0
VERTEX
8
CUT
10
77.6571
20
202.0806
0
VERTEX
8
CUT
10
80.1938
20
199.2494
0
VERTEX
8
CUT
10
81.3338
20
198.3433
0
VERTEX
8
CUT
10
85.7630
20
195.9018
0
VERTEX
8
CUT
10
89.3183
20
194.2608
0
VERTEX
8
CUT
10
91.8230
20
193.0694
0
SEQEND
0
POLYLINE
8
CUT
66
1
70
1
10
0.0
20
0.0
30
0.0
0
VERTEX
8
CUT
10
128.9764
20
169.1506
0
VERTEX
8
CUT
10
129.1524
20
169.4277
0
VERTEX
8
CUT
10
128.9671
20
169.8123
0
VERTEX
8
CUT
10
127.3604
20
170.1538
0
VERTEX
8
CUT
10
126.8095
20
170.7267
0
VERTEX
8
CUT
10
126.2919
20
172.1590
0
VERTEX
8
CUT
10
126.1302
20
174.1609
0
VERTEX
8
CUT
10
125.7920
20
174.4463
0
VERTEX
8
CUT
10
124.4986
20
173.8078
0
VERTEX
8
CUT
10
123.5472
20
173.6596
0
VERTEX
8
CUT
10
117.3434
20
173.8914
0
VERTEX
8
CUT
10
114.8380
20
174.1551
0
VERTEX
8
CUT
10
107.6755
20
175.4088
0
VERTEX
8
CUT
10
102.0952
20
175.9332
0
VERTEX
8
CUT
10
99.9686
20
176.6815
0
VERTEX
8
CUT
10
99.6397
20
176.4475
0
VERTEX
8
CUT
10
99.3678
20
175.3238
0
VERTEX
8
CUT
10
98.4414
20
173.3483
0
VERTEX
8
CUT
10
98.6323
20
173.0835
0
VERTEX
8
CUT
10
99.4768
20
172.7944
0
VERTEX
8
CUT
10
100.8813
20
172.4994
0
VERTEX
8
CUT
10
101.2450
20
172.3927
0
VERTEX
8
CUT
10
101.6726
20
172.3331
0
VERTEX
8
CUT
10
101.6965
20
172.3281
0
VERTEX
8
CUT
10
112.7856
20
170.6174
0
VERTEX
8
CUT
10
120.9402
20
169.6968
0
VERTEX
8
CUT
10
128.6219
20
169.0732
0
SEQEND
0
POLYLINE
8
CUT
66
1
70
1
10
0.0
20
0.0
30
0.0
0
VERTEX
8
CUT
10
110.7111
20
157.3632
0
VERTEX
8
CUT
10
115.1259
20
157.8574
0
VERTEX
8
CUT
10
119.0794
20
157.7256
0
VERTEX
8
CUT
10
122.9012
20
157.0667
0
VERTEX
8
CUT
10
125.5040
20
156.0783
0
VERTEX
8
CUT
10
126.1958
20
156.0124
0
VERTEX
8
CUT
10
126.0641
20
156.4737
0
VERTEX
8
CUT
10
125.4381
20
156.9349
0
VERTEX
8
CUT
10
121.8799
20
158.2528
0
VERTEX
8
CUT
10
120.0019
20
158.6481
0
VERTEX
8
CUT
10
113.3138
20
158.8788
0
VERTEX
8
CUT
10
111.5018
20
158.4834
0
VERTEX
8
CUT
10
110.6452
20
158.0222
0
VERTEX
8
CUT
10
110.2498
20
157.5938
0
VERTEX
8
CUT
10
110.4146
20
157.3632
0
SEQEND
0
POLYLINE
8
CUT
66
1
70
1
10
0.0
20
0.0
30
0.0
0
VERTEX
8
CUT
10
118.4772
20
243.8032
0
VERTEX
8
CUT
10
118.8770
20
244.7352
0
VERTEX
8
CUT
10
118.7131
20
246.5873
0
VERTEX
8
CUT
10
117.7663
20
249.3751
0
VERTEX
8
CUT
10
117.3732
20
249.3930
0
VERTEX
8
CUT
10
116.6237
20
248.5808
0
VERTEX
8
CUT
10
116.1039
20
248.4847
0
VERTEX
8
CUT
10
112.5451
20
249.9322
0
VERTEX
8
CUT
10
111.1661
20
250.2208
0
VERTEX
8
CUT
10
109.7810
20
250.0570
0
VERTEX
8
CUT
10
107.7178
20
249.0673
0
VERTEX
8
CUT
10
106.1123
20
247.7156
0
VERTEX
8
CUT
10
105.2890
20
246.3443
0
VERTEX
8
CUT
10
105.4682
20
245.9425
0
VERTEX
8
CUT
10
105.8754
20
245.9419
0
VERTEX
8
CUT
10
107.7416
20
247.7295
0
VERTEX
8
CUT
10
108.8120
20
248.3215
0
VERTEX
8
CUT
10
111.1640
20
248.4042
0
VERTEX
8
CUT
10
112.8487
20
247.9883
0
VERTEX
8
CUT
10
114.4086
20
247.2005
0
VERTEX
8
CUT
10
115.8533
20
245.9854
0
VERTEX
8
CUT
10
117.9922
20
243.7065
0
SEQEND
0
POLYLINE
8
CUT
66
1
70
1
10
0.0
20
0.0
30
0.0
0
VERTEX
8
CUT
10
116.8720
20
217.7868
0
VERTEX
8
CUT
10
116.5096
20
217.7538
0
VERTEX
8
CUT
10
116.2790
20
217.3585
0
VERTEX
8
CUT
10
116.4437
20
216.7984
0
VERTEX
8
CUT
10
117.3003
20
215.6452
0
VERTEX
8
CUT
10
117.9922
20
215.1511
0
VERTEX
8
CUT
10
117.9593
20
216.2712
0
VERTEX
8
CUT
10
117.2674
20
217.5232
0
SEQEND
0
POLYLINE
8
CUT
66
1
70
1
10
0.0
20
0.0
30
0.0
0
VERTEX
8
CUT
10
106.9886
20
221.3447
0
VERTEX
8
CUT
10
107.5059
20
221.1666
0
VERTEX
8
CUT
10
107.7152
20
221.4222
0
VERTEX
8
CUT
10
107.7006
20
222.1103
0
VERTEX
8
CUT
10
107.0145
20
224.8836
0
VERTEX
8
CUT
10
104.2020
20
231.1268
0
VERTEX
8
CUT
10
102.4589
20
234.0184
0
VERTEX
8
CUT
10
95.2313
20
242.8547
0
VERTEX
8
CUT
10
94.0350
20
244.5478
0
VERTEX
8
CUT
10
92.4256
20
247.7311
0
VERTEX
8
CUT
10
90.8133
20
252.5876
0
VERTEX
8
CUT
10
90.4144
20
252.8210
0
VERTEX
8
CUT
10
90.0732
20
252.5092
0
VERTEX
8
CUT
10
90.3311
20
249.7918
0
VERTEX
8
CUT
10
91.1832
20
246.4001
0
VERTEX
8
CUT
10
92.7008
20
243.1725
0
VERTEX
8
CUT
10
95.0268
20
239.7297
0
VERTEX
8
CUT
10
101.0872
20
232.3187
0
VERTEX
8
CUT
10
102.9430
20
229.7346
0
VERTEX
8
CUT
10
105.3331
20
225.4863
0
SEQEND
0
POLYLINE
8
CUT
66
1
70
1
10
0.0
20
0.0
30
0.0
0
VERTEX
8
CUT
10
64.0997
20
13.8458
0
VERTEX
8
CUT
10
64.7922
20
14.4844
0
VERTEX
8
CUT
10
65.7179
20
15.5104
0
VERTEX
8
CUT
10
67.9607
20
17.8173
0
VERTEX
8
CUT
10
68.8802
20
18.9492
0
VERTEX
8
CUT
10
70.2203
20
20.3385
0
VERTEX
8
CUT
10
74.8892
20
26.3876
0
VERTEX
8
CUT
10
76.2062
20
28.3500
0
VERTEX
8
CUT
10
77.5630
20
30.2497
0
VERTEX
8
CUT
10
80.5020
20
34.7511
0
VERTEX
8
CUT
10
81.6043
20
36.3937
0
VERTEX
8
CUT
10
83.0624
20
38.8454
0
VERTEX
8
CUT
10
84.6515
20
41.4280
0
VERTEX
8
CUT
10
84.9471
20
41.7546
0
VERTEX
8
CUT
10
85.8037
20
43.3360
0
VERTEX
8
CUT
10
85.7985
20
43.4141
0
VERTEX
8
CUT
10
86.1993
20
44.1203
0
VERTEX
8
CUT
10
88.2212
20
47.5202
0
VERTEX
8
CUT
10
94.2773
20
58.9735
0
VERTEX
8
CUT
10
98.7592
20
68.3654
0
VERTEX
8
CUT
10
99.6599
20
69.7460
0
VERTEX
8
CUT
10
99.5133
20
70.2075
0
VERTEX
8
CUT
10
99.0701
20
70.5593
0
VERTEX
8
CUT
10
98.7624
20
70.6158
0
VERTEX
8
CUT
10
98.6545
20
70.6813
0
VERTEX
8
CUT
10
98.4321
20
70.6764
0
VERTEX
8
CUT
10
98.1422
20
70.7295
0
VERTEX
8
CUT
10
97.3813
20
70.6310
0
VERTEX
8
CUT
10
95.9387
20
70.0224
0
VERTEX
8
CUT
10
95.0739
20
69.2808
0
VERTEX
8
CUT
10
94.8044
20
69.1010
0
VERTEX
8
CUT
10
94.6743
20
68.9380
0
VERTEX
8
CUT
10
94.6494
20
68.9167
0
VERTEX
8
CUT
10
94.4998
20
68.7195
0
VERTEX
8
CUT
10
93.9783
20
68.0665
0
VERTEX
8
CUT
10
93.1700
20
66.3514
0
VERTEX
8
CUT
10
87.3711
20
54.7331
0
VERTEX
8
CUT
10
81.2357
20
43.9801
0
VERTEX
8
CUT
10
75.3923
20
35.1338
0
VERTEX
8
CUT
10
70.5823
20
29.1048
0
VERTEX
8
CUT
10
68.4073
20
26.8654
0
VERTEX
8
CUT
10
68.1806
20
26.6534
0
VERTEX
8
CUT
10
66.0803
20
24.8644
0
VERTEX
8
CUT
10
63.8821
20
23.3438
0
VERTEX
8
CUT
10
61.7364
20
22.2225
0
VERTEX
8
CUT
10
59.5372
20
21.4815
0
VERTEX
8
CUT
10
57.3353
20
21.1935
0
VERTEX
8
CUT
10
55.3539
20
21.2368
0
VERTEX
8
CUT
10
52.9587
20
21.9185
0
VERTEX
8
CUT
10
51.7771
20
22.5884
0
VERTEX
8
CUT
10
49.6202
20
24.4704
0
VERTEX
8
CUT
10
48.2733
20
26.3431
0
VERTEX
8
CUT
10
47.7120
20
27.4686
0
VERTEX
8
CUT
10
47.1310
20
29.4735
0
VERTEX
8
CUT
10
46.8959
20
31.5163
0
VERTEX
8
CUT
10
47.0527
20
36.0399
0
VERTEX
8
CUT
10
47.9225
20
39.6685
0
VERTEX
8
CUT
10
49.3525
20
42.7368
0
VERTEX
8
CUT
10
50.8296
20
44.9412
0
VERTEX
8
CUT
10
51.4440
20
45.8119
0
VERTEX
8
CUT
10
52.9409
20
47.6323
0
VERTEX
8
CUT
10
56.6207
20
51.7675
0
VERTEX
8
CUT
10
57.2279
20
53.0994
0
VERTEX
8
CUT
10
57.2224
20
53.4497
0
VERTEX
8
CUT
10
57.2603
20
53.5515
0
VERTEX
8
CUT
10
57.2276
20
54.1298
0
VERTEX
8
CUT
10
57.2288
20
54.1470
0
VERTEX
8
CUT
10
57.2264
20
54.1513
0
VERTEX
8
CUT
10
57.2175
20
54.3076
0
VERTEX
8
CUT
10
56.9390
20
54.7174
0
VERTEX
8
CUT
10
56.5883
20
55.2741
0
VERTEX
8
CUT
10
55.5762
20
55.6118
0
VERTEX
8
CUT
10
50.5203
20
54.7562
0
VERTEX
8
CUT
10
49.0287
20
54.7888
0
VERTEX
8
CUT
10
48.9244
20
54.7983
0
VERTEX
8
CUT
10
48.8579
20
54.8043
0
VERTEX
8
CUT
10
48.7561
20
54.8136
0
VERTEX
8
CUT
10
48.7046
20
54.8183
0
VERTEX
8
CUT
10
47.5127
20
55.1463
0
VERTEX
8
CUT
10
47.2613
20
55.2404
0
VERTEX
8
CUT
10
45.6828
20
56.4554
0
VERTEX
8
CUT
10
45.5030
20
56.6788
0
VERTEX
8
CUT
10
44.6219
20
57.9897
0
VERTEX
8
CUT
10
44.3450
20
58.8830
0
VERTEX
8
CUT
10
44.4852
20
60.8221
0
VERTEX
8
CUT
10
44.8947
20
61.9121
0
VERTEX
8
CUT
10
45.5568
20
62.9530
0
VERTEX
8
CUT
10
46.4054
20
63.8975
0
VERTEX
8
CUT
10
48.6770
20
65.5768
0
VERTEX
8
CUT
10
50.1892
20
66.3345
0
VERTEX
8
CUT
10
56.4842
20
68.4657
0
VERTEX
8
CUT
10
59.1722
20
69.6761
0
VERTEX
8
CUT
10
60.1167
20
70.2029
0
VERTEX
8
CUT
10
60.7439
20
70.5118
0
VERTEX
8
CUT
10
61.1315
20
70.7690
0
VERTEX
8
CUT
10
61.6881
20
71.0794
0
VERTEX
8
CUT
10
62.9496
20
71.9749
0
VERTEX
8
CUT
10
64.1077
20
72.7431
0
VERTEX
8
CUT
10
65.5377
20
74.0399
0
VERTEX
8
CUT
10
65.5867
20
74.0995
0
VERTEX
8
CUT
10
65.9024
20
74.3731
0
VERTEX
8
CUT
10
67.5484
20
76.2134
0
VERTEX
8
CUT
10
68.7809
20
78.0955
0
VERTEX
8
CUT
10
69.7778
20
80.7144
0
VERTEX
8
CUT
10
69.7039
20
81.2879
0
VERTEX
8
CUT
10
69.1642
20
81.9481
0
VERTEX
8
CUT
10
68.9318
20
82.1378
0
VERTEX
8
CUT
10
68.7273
20
82.3593
0
VERTEX
8
CUT
10
68.5934
20
82.4140
0
VERTEX
8
CUT
10
68.4625
20
82.5209
0
VERTEX
8
CUT
10
68.3429
20
82.5164
0
VERTEX
8
CUT
10
68.2477
20
82.5554
0
VERTEX
8
CUT
10
68.1385
20
82.5089
0
VERTEX
8
CUT
10
68.0007
20
82.5038
0
VERTEX
8
CUT
10
67.4503
20
82.2159
0
VERTEX
8
CUT
10
67.1185
20
82.0747
0
VERTEX
8
CUT
10
66.8335
20
81.8934
0
VERTEX
8
CUT
10
66.7425
20
81.8458
0
VERTEX
8
CUT
10
66.3107
20
81.6242
0
VERTEX
8
CUT
10
66.1275
20
81.4619
0
VERTEX
8
CUT
10
65.9634
20
81.3399
0
VERTEX
8
CUT
10
65.5686
20
81.0887
0
VERTEX
8
CUT
10
62.1124
20
78.5807
0
VERTEX
8
CUT
10
61.3450
20
78.1190
0
VERTEX
8
CUT
10
58.6079
20
77.1609
0
VERTEX
8
CUT
10
57.5486
20
77.1620
0
VERTEX
8
CUT
10
57.2599
20
77.2084
0
VERTEX
8
CUT
10
57.1933
20
77.2191
0
VERTEX
8
CUT
10
57.1805
20
77.2211
0
VERTEX
8
CUT
10
57.1644
20
77.2237
0
VERTEX
8
CUT
10
56.3101
20
77.4369
0
VERTEX
8
CUT
10
55.3288
20
78.0633
0
VERTEX
8
CUT
10
54.4281
20
78.9674
0
VERTEX
8
CUT
10
54.0742
20
79.5124
0
VERTEX
8
CUT
10
53.7347
20
80.7544
0
VERTEX
8
CUT
10
53.9222
20
83.2586
0
VERTEX
8
CUT
10
54.6647
20
85.2361
0
VERTEX
8
CUT
10
56.5993
20
88.7512
0
VERTEX
8
CUT
10
57.5159
20
90.9193
0
VERTEX
8
CUT
10
57.6414
20
91.1662
0
VERTEX
8
CUT
10
57.6807
20
91.3090
0
VERTEX
8
CUT
10
57.9243
20
91.8853
0
VERTEX
8
CUT
10
58.6127
20
94.7836
0
VERTEX
8
CUT
10
58.6131
20
95.9888
0
VERTEX
8
CUT
10
58.2496
20
96.2816
0
VERTEX
8
CUT
10
57.9182
20
96.1181
0
VERTEX
8
CUT
10
57.0342
20
94.1491
0
VERTEX
8
CUT
10
55.7075
20
92.3766
0
VERTEX
8
CUT
10
49.2036
20
86.3561
0
VERTEX
8
CUT
10
47.9622
20
84.5897
0
VERTEX
8
CUT
10
47.6773
20
84.2562
0
VERTEX
8
CUT
10
47.4091
20
83.8027
0
VERTEX
8
CUT
10
46.3368
20
82.2768
0
VERTEX
8
CUT
10
45.3337
20
80.2937
0
VERTEX
8
CUT
10
44.9960
20
79.7227
0
VERTEX
8
CUT
10
44.7031
20
79.0470
0
VERTEX
8
CUT
10
43.7184
20
77.1001
0
VERTEX
8
CUT
10
42.8631
20
74.8017
0
VERTEX
8
CUT
10
42.6370
20
74.2801
0
VERTEX
8
CUT
10
42.3770
20
73.4955
0
VERTEX
8
CUT
10
41.4226
20
70.9306
0
VERTEX
8
CUT
10
40.8106
20
68.7682
0
VERTEX
8
CUT
10
40.5687
20
68.0384
0
VERTEX
8
CUT
10
40.3487
20
67.1363
0
VERTEX
8
CUT
10
39.4586
20
63.9913
0
VERTEX
8
CUT
10
37.9114
20
56.3270
0
VERTEX
8
CUT
10
36.7897
20
48.1121
0
VERTEX
8
CUT
10
36.1662
20
39.5139
0
VERTEX
8
CUT
10
36.2639
20
30.6049
0
VERTEX
8
CUT
10
36.8238
20
24.6761
0
VERTEX
8
CUT
10
37.4185
20
21.5026
0
VERTEX
8
CUT
10
37.6406
20
20.0751
0
VERTEX
8
CUT
10
37.7870
20
19.5364
0
VERTEX
8
CUT
10
38.1978
20
17.3439
0
VERTEX
8
CUT
10
38.9237
20
15.1659
0
VERTEX
8
CUT
10
39.9016
20
13.0161
0
VERTEX
8
CUT
10
40.9820
20
11.0530
0
VERTEX
8
CUT
10
42.2420
20
9.3456
0
VERTEX
8
CUT
10
43.8659
20
8.0486
0
VERTEX
8
CUT
10
44.0697
20
7.9296
0
VERTEX
8
CUT
10
44.1623
20
7.8476
0
VERTEX
8
CUT
10
44.3794
20
7.7489
0
VERTEX
8
CUT
10
45.1863
20
7.2779
0
VERTEX
8
CUT
10
46.4325
20
6.8150
0
VERTEX
8
CUT
10
46.6761
20
6.7042
0
VERTEX
8
CUT
10
46.7672
20
6.6907
0
VERTEX
8
CUT
10
46.8627
20
6.6552
0
VERTEX
8
CUT
10
47.0307
20
6.5802
0
VERTEX
8
CUT
10
47.0773
20
6.5755
0
VERTEX
8
CUT
10
47.1543
20
6.5469
0
VERTEX
8
CUT
10
49.3157
20
6.2529
0
VERTEX
8
CUT
10
51.6444
20
6.4101
0
VERTEX
8
CUT
10
52.4878
20
6.6623
0
VERTEX
8
CUT
10
52.8364
20
6.7051
0
VERTEX
8
CUT
10
54.1169
20
7.1495
0
VERTEX
8
CUT
10
55.2561
20
7.4902
0
VERTEX
8
CUT
10
58.6566
20
9.2379
0
VERTEX
8
CUT
10
60.1281
20
10.4686
0
VERTEX
8
CUT
10
62.2865
20
12.1739
0
VERTEX
8
CUT
10
62.7260
20
12.5792
0
VERTEX
8
CUT
10
63.3798
20
13.1054
0
SEQEND
0
POLYLINE
8
CUT
66
1
70
1
10
0.0
20
0.0
30
0.0
0
VERTEX
8
CUT
10
96.2806
20
174.2317
0
VERTEX
8
CUT
10
95.0286
20
174.3965
0
VERTEX
8
CUT
10
94.4356
20
174.0011
0
VERTEX
8
CUT
10
94.4685
20
173.6387
0
VERTEX
8
CUT
10
94.8309
20
173.3422
0
VERTEX
8
CUT
10
97.0054
20
173.2763
0
VERTEX
8
CUT
10
97.0384
20
173.5728
0
SEQEND
0
POLYLINE
8
CUT
66
1
70
1
10
0.0
20
0.0
30
0.0
0
VERTEX
8
CUT
10
96.7089
20
110.4147
0
VERTEX
8
CUT
10
95.8852
20
110.4806
0
VERTEX
8
CUT
10
94.1061
20
109.6570
0
VERTEX
8
CUT
10
93.4472
20
108.9651
0
VERTEX
8
CUT
10
93.5460
20
108.6027
0
VERTEX
8
CUT
10
96.1488
20
109.6899
0
VERTEX
8
CUT
10
96.6430
20
110.1182
0
SEQEND
0
POLYLINE
8
CUT
66
1
70
1
10
0.0
20
0.0
30
0.0
0
VERTEX
8
CUT
10
79.3387
20
122.2318
0
VERTEX
8
CUT
10
78.4992
20
122.3046
0
VERTEX
8
CUT
10
78.1492
20
122.1229
0
VERTEX
8
CUT
10
78.1567
20
121.6966
0
VERTEX
8
CUT
10
79.2249
20
121.1887
0
VERTEX
8
CUT
10
84.4722
20
120.6065
0
VERTEX
8
CUT
10
87.0516
20
119.9069
0
VERTEX
8
CUT
10
87.4757
20
120.2155
0
VERTEX
8
CUT
10
87.3117
20
120.6173
0
VERTEX
8
CUT
10
83.9991
20
122.4330
0
VERTEX
8
CUT
10
82.8516
20
122.5587
0
SEQEND
0
POLYLINE
8
CUT
66
1
70
1
10
0.0
20
0.0
30
0.0
0
VERTEX
8
CUT
10
85.5237
20
152.7945
0
VERTEX
8
CUT
10
85.5056
20
153.8341
0
VERTEX
8
CUT
10
84.9769
20
153.8810
0
VERTEX
8
CUT
10
82.0992
20
151.3246
0
VERTEX
8
CUT
10
80.6194
20
150.2723
0
VERTEX
8
CUT
10
76.3641
20
148.4051
0
VERTEX
8
CUT
10
74.6658
20
147.2098
0
VERTEX
8
CUT
10
72.8019
20
144.8609
0
VERTEX
8
CUT
10
72.3260
20
143.8057
0
VERTEX
8
CUT
10
72.2532
20
142.8156
0
VERTEX
8
CUT
10
72.4599
20
142.6015
0
VERTEX
8
CUT
10
72.7922
20
142.6113
0
VERTEX
8
CUT
10
74.1155
20
143.9252
0
VERTEX
8
CUT
10
75.5604
20
144.7082
0
VERTEX
8
CUT
10
76.3863
20
145.4271
0
VERTEX
8
CUT
10
80.6158
20
147.3444
0
VERTEX
8
CUT
10
83.0353
20
148.8303
0
VERTEX
8
CUT
10
84.1270
20
149.8899
0
VERTEX
8
CUT
10
84.8678
20
151.0198
0
SEQEND
0
POLYLINE
8
CUT
66
1
70
1
10
0.0
20
0.0
30
0.0
0
VERTEX
8
CUT
10
77.2931
20
123.2196
0
VERTEX
8
CUT
10
76.6867
20
124.3836
0
VERTEX
8
CUT
10
75.4514
20
126.0053
0
VERTEX
8
CUT
10
74.1259
20
127.2280
0
VERTEX
8
CUT
10
71.5586
20
128.7678
0
VERTEX
8
CUT
10
69.5234
20
129.5565
0
VERTEX
8
CUT
10
65.9601
20
130.5352
0
VERTEX
8
CUT
10
65.5715
20
130.3550
0
VERTEX
8
CUT
10
65.3613
20
129.5472
0
VERTEX
8
CUT
10
64.5506
20
129.5143
0
VERTEX
8
CUT
10
63.3561
20
130.1164
0
VERTEX
8
CUT
10
61.9560
20
130.4557
0
VERTEX
8
CUT
10
60.0460
20
131.4123
0
VERTEX
8
CUT
10
59.5852
20
131.2434
0
VERTEX
8
CUT
10
59.6552
20
130.7577
0
VERTEX
8
CUT
10
62.2575
20
129.3575
0
VERTEX
8
CUT
10
69.8689
20
126.6403
0
VERTEX
8
CUT
10
72.1968
20
125.5700
0
VERTEX
8
CUT
10
72.5981
20
125.4828
0
VERTEX
8
CUT
10
73.8322
20
124.8198
0
VERTEX
8
CUT
10
76.7579
20
122.7250
0
VERTEX
8
CUT
10
77.2764
20
122.8915
0
SEQEND
0
POLYLINE
8
CUT
66
1
70
1
10
0.0
20
0.0
30
0.0
0
VERTEX
8
CUT
10
60.9536
20
51.7431
0
VERTEX
8
CUT
10
60.1085
20
50.0246
0
VERTEX
8
CUT
10
60.2974
20
49.6030
0
VERTEX
8
CUT
10
60.7560
20
49.6581
0
VERTEX
8
CUT
10
65.2600
20
55.1711
0
VERTEX
8
CUT
10
66.1019
20
56.8130
0
VERTEX
8
CUT
10
66.1482
20
57.5561
0
VERTEX
8
CUT
10
65.8436
20
58.0963
0
VERTEX
8
CUT
10
65.2696
20
57.9854
0
VERTEX
8
CUT
10
64.2822
20
56.3424
0
VERTEX
8
CUT
10
62.5062
20
54.1368
0
SEQEND
0
POLYLINE
8
CUT
66
1
70
1
10
0.0
20
0.0
30
0.0
0
VERTEX
8
CUT
10
58.9609
20
174.0801
0
VERTEX
8
CUT
10
59.2568
20
174.6778
0
VERTEX
8
CUT
10
58.8591
20
175.0872
0
VERTEX
8
CUT
10
58.0505
20
174.7207
0
VERTEX
8
CUT
10
57.1089
20
174.5824
0
VERTEX
8
CUT
10
48.8222
20
175.1118
0
VERTEX
8
CUT
10
46.7112
20
174.5129
0
VERTEX
8
CUT
10
45.2533
20
173.4563
0
VERTEX
8
CUT
10
45.2594
20
173.0502
0
VERTEX
8
CUT
10
45.5848
20
172.8687
0
VERTEX
8
CUT
10
46.8897
20
173.5393
0
VERTEX
8
CUT
10
48.3850
20
173.8485
0
VERTEX
8
CUT
10
50.1180
20
173.8137
0
VERTEX
8
CUT
10
54.1725
20
173.1545
0
VERTEX
8
CUT
10
56.3446
20
173.0585
0
VERTEX
8
CUT
10
57.4357
20
173.2470
0
VERTEX
8
CUT
10
58.3923
20
173.6612
0
SEQEND
0
POLYLINE
8
CUT
66
1
70
1
10
0.0
20
0.0
30
0.0
0
VERTEX
8
CUT
10
47.7238
20
187.9597
0
VERTEX
8
CUT
10
44.9060
20
188.7087
0
VERTEX
8
CUT
10
44.6232
20
188.4800
0
VERTEX
8
CUT
10
44.6742
20
188.0866
0
VERTEX
8
CUT
10
45.9429
20
187.4309
0
VERTEX
8
CUT
10
51.0866
20
185.4761
0
VERTEX
8
CUT
10
51.8305
20
185.3152
0
VERTEX
8
CUT
10
52.1625
20
185.5487
0
VERTEX
8
CUT
10
52.1297
20
185.9195
0
VERTEX
8
CUT
10
51.5418
20
186.5512
0
VERTEX
8
CUT
10
50.1938
20
187.5850
0
SEQEND
0
POLYLINE
8
CUT
66
1
70
1
10
0.0
20
0.0
30
0.0
0
VERTEX
8
CUT
10
40.9540
20
130.8658
0
VERTEX
8
CUT
10
41.1260
20
131.1199
0
VERTEX
8
CUT
10
41.1404
20
131.1270
0
VERTEX
8
CUT
10
41.1677
20
131.1817
0
VERTEX
8
CUT
10
41.3913
20
131.5122
0
VERTEX
8
CUT
10
41.3960
20
131.6387
0
VERTEX
8
CUT
10
41.4720
20
131.7909
0
VERTEX
8
CUT
10
41.4831
20
132.5962
0
VERTEX
8
CUT
10
41.4365
20
132.7392
0
VERTEX
8
CUT
10
41.4487
20
133.0702
0
VERTEX
8
CUT
10
40.6579
20
135.0662
0
VERTEX
8
CUT
10
39.9064
20
136.2472
0
VERTEX
8
CUT
10
39.3273
20
136.5292
0
VERTEX
8
CUT
10
38.4253
20
135.5209
0
VERTEX
8
CUT
10
37.8288
20
135.2002
0
VERTEX
8
CUT
10
33.5183
20
134.2641
0
VERTEX
8
CUT
10
32.3070
20
133.6164
0
VERTEX
8
CUT
10
30.9619
20
132.4030
0
VERTEX
8
CUT
10
29.8744
20
131.0267
0
VERTEX
8
CUT
10
29.4349
20
130.0501
0
VERTEX
8
CUT
10
29.1228
20
127.8939
0
VERTEX
8
CUT
10
29.3614
20
127.6086
0
VERTEX
8
CUT
10
29.7306
20
127.6535
0
VERTEX
8
CUT
10
31.4361
20
129.9117
0
VERTEX
8
CUT
10
33.1223
20
130.8511
0
VERTEX
8
CUT
10
34.9536
20
131.0507
0
VERTEX
8
CUT
10
35.0651
20
131.0406
0
VERTEX
8
CUT
10
35.3892
20
131.0113
0
VERTEX
8
CUT
10
35.5671
20
130.9952
0
VERTEX
8
CUT
10
35.9633
20
130.9593
0
VERTEX
8
CUT
10
39.7403
20
130.3264
0
SEQEND
0
ENDSEC
0
EOF
