0
SECTION
2
HEADER
9
$ACADVER
1
AC1009
9
$INSUNITS
70
4
0
ENDSEC
0
SECTION
2
TABLES
0
TABLE
2
LAYER
70
1
0
LAYER
2
CUT
70
0
62
7
6
CONTINUOUS
0
ENDTAB
0
ENDSEC
0
SECTION
2
ENTITIES
0
POLYLINE
8
CUT
66
1
70
1
10
0.0
20
0.0
30
0.0
0
VERTEX
8
CUT
10
43.7296
20
0.5519
0
VERTEX
8
CUT
10
41.1877
20
1.7645
0
VERTEX
8
CUT
10
39.0060
20
3.4855
0
VERTEX
8
CUT
10
37.0865
20
5.7810
0
VERTEX
8
CUT
10
35.4590
20
8.6789
0
VERTEX
8
CUT
10
34.1028
20
12.1596
0
VERTEX
8
CUT
10
33.0137
20
16.3223
0
VERTEX
8
CUT
10
32.1266
20
21.1520
0
VERTEX
8
CUT
10
31.4650
20
26.7681
0
VERTEX
8
CUT
10
31.1006
20
31.8389
0
VERTEX
8
CUT
10
31.1006
20
42.3469
0
VERTEX
8
CUT
10
31.4633
20
47.7938
0
VERTEX
8
CUT
10
32.0593
20
53.3224
0
VERTEX
8
CUT
10
32.9147
20
58.8497
0
VERTEX
8
CUT
10
33.9732
20
64.4393
0
VERTEX
8
CUT
10
35.7525
20
72.1203
0
VERTEX
8
CUT
10
36.0402
20
74.0981
0
VERTEX
8
CUT
10
36.0114
20
75.2891
0
VERTEX
8
CUT
10
35.6805
20
77.5033
0
VERTEX
8
CUT
10
35.1895
20
78.6749
0
VERTEX
8
CUT
10
34.7354
20
78.9648
0
VERTEX
8
CUT
10
33.9680
20
79.0521
0
VERTEX
8
CUT
10
32.6857
20
79.5454
0
VERTEX
8
CUT
10
31.8546
20
80.1257
0
VERTEX
8
CUT
10
31.1858
20
80.8392
0
VERTEX
8
CUT
10
30.7464
20
82.0225
0
VERTEX
8
CUT
10
30.6733
20
83.7493
0
VERTEX
8
CUT
10
30.9043
20
85.7624
0
VERTEX
8
CUT
10
32.1207
20
90.6644
0
VERTEX
8
CUT
10
32.0576
20
91.9217
0
VERTEX
8
CUT
10
31.6612
20
92.8665
0
VERTEX
8
CUT
10
31.1659
20
93.4184
0
VERTEX
8
CUT
10
30.4962
20
93.7041
0
VERTEX
8
CUT
10
26.4428
20
94.0296
0
VERTEX
8
CUT
10
24.5682
20
94.6586
0
VERTEX
8
CUT
10
23.7787
20
95.1472
0
VERTEX
8
CUT
10
22.5900
20
96.4347
0
VERTEX
8
CUT
10
21.6473
20
98.3246
0
VERTEX
8
CUT
10
21.4483
20
100.3818
0
VERTEX
8
CUT
10
21.9806
20
102.6252
0
VERTEX
8
CUT
10
23.2846
20
105.0456
0
VERTEX
8
CUT
10
25.5235
20
108.1102
0
VERTEX
8
CUT
10
26.3003
20
109.4966
0
VERTEX
8
CUT
10
26.7202
20
110.7800
0
VERTEX
8
CUT
10
26.8158
20
112.1807
0
VERTEX
8
CUT
10
26.5815
20
114.0161
0
VERTEX
8
CUT
10
25.3564
20
116.5270
0
VERTEX
8
CUT
10
23.8979
20
118.1236
0
VERTEX
8
CUT
10
20.5874
20
120.8410
0
VERTEX
8
CUT
10
18.0307
20
123.3345
0
VERTEX
8
CUT
10
16.6301
20
125.4031
0
VERTEX
8
CUT
10
15.9188
20
127.7902
0
VERTEX
8
CUT
10
15.9781
20
130.2250
0
VERTEX
8
CUT
10
16.7818
20
132.5619
0
VERTEX
8
CUT
10
17.4685
20
133.6993
0
VERTEX
8
CUT
10
19.5928
20
136.1635
0
VERTEX
8
CUT
10
20.4810
20
137.5618
0
VERTEX
8
CUT
10
21.0589
20
138.9434
0
VERTEX
8
CUT
10
21.3453
20
140.3633
0
VERTEX
8
CUT
10
21.2821
20
141.7170
0
VERTEX
8
CUT
10
20.9384
20
143.1615
0
VERTEX
8
CUT
10
19.2808
20
146.3649
0
VERTEX
8
CUT
10
17.9009
20
148.1373
0
VERTEX
8
CUT
10
8.9124
20
154.9223
0
VERTEX
8
CUT
10
4.8050
20
159.1255
0
VERTEX
8
CUT
10
3.2088
20
161.3163
0
VERTEX
8
CUT
10
1.9424
20
163.5440
0
VERTEX
8
CUT
10
0.9452
20
165.7992
0
VERTEX
8
CUT
10
0.2959
20
168.0896
0
VERTEX
8
CUT
10
0.0000
20
170.2988
0
VERTEX
8
CUT
10
0.0364
20
172.4614
0
VERTEX
8
CUT
10
0.3681
20
174.4464
0
VERTEX
8
CUT
10
0.9625
20
176.2654
0
VERTEX
8
CUT
10
1.8322
20
177.8816
0
VERTEX
8
CUT
10
2.9631
20
179.2582
0
VERTEX
8
CUT
10
4.2583
20
180.2570
0
VERTEX
8
CUT
10
7.5439
20
181.4978
0
VERTEX
8
CUT
10
8.0802
20
182.3226
0
VERTEX
8
CUT
10
8.2009
20
183.9756
0
VERTEX
8
CUT
10
8.0471
20
185.2724
0
VERTEX
8
CUT
10
5.9181
20
190.2828
0
VERTEX
8
CUT
10
4.9548
20
193.2330
0
VERTEX
8
CUT
10
4.3222
20
196.1856
0
VERTEX
8
CUT
10
4.0209
20
199.1412
0
VERTEX
8
CUT
10
4.0188
20
202.0270
0
VERTEX
8
CUT
10
4.3573
20
204.9010
0
VERTEX
8
CUT
10
5.0266
20
207.5967
0
VERTEX
8
CUT
10
6.0286
20
210.1251
0
VERTEX
8
CUT
10
7.3945
20
212.3527
0
VERTEX
8
CUT
10
9.1148
20
214.3375
0
VERTEX
8
CUT
10
11.0444
20
215.9601
0
VERTEX
8
CUT
10
12.9593
20
216.9642
0
VERTEX
8
CUT
10
14.7344
20
217.3379
0
VERTEX
8
CUT
10
16.5844
20
217.4010
0
VERTEX
8
CUT
10
18.3376
20
217.1596
0
VERTEX
8
CUT
10
21.0285
20
216.1180
0
VERTEX
8
CUT
10
23.0769
20
215.8880
0
VERTEX
8
CUT
10
23.9137
20
216.1091
0
VERTEX
8
CUT
10
25.0061
20
217.3078
0
VERTEX
8
CUT
10
25.8842
20
218.8734
0
VERTEX
8
CUT
10
26.3501
20
220.8033
0
VERTEX
8
CUT
10
25.4023
20
224.5482
0
VERTEX
8
CUT
10
25.0714
20
227.0136
0
VERTEX
8
CUT
10
25.2089
20
230.5858
0
VERTEX
8
CUT
10
26.1867
20
233.7496
0
VERTEX
8
CUT
10
25.0727
20
236.8768
0
VERTEX
8
CUT
10
25.1987
20
237.6278
0
VERTEX
8
CUT
10
25.6123
20
238.1795
0
VERTEX
8
CUT
10
26.3149
20
238.4547
0
VERTEX
8
CUT
10
27.1154
20
238.3824
0
VERTEX
8
CUT
10
28.0856
20
237.9678
0
VERTEX
8
CUT
10
30.6349
20
236.3262
0
VERTEX
8
CUT
10
36.1215
20
234.7738
0
VERTEX
8
CUT
10
36.9435
20
234.7024
0
VERTEX
8
CUT
10
38.2665
20
234.9359
0
VERTEX
8
CUT
10
38.9657
20
235.3240
0
VERTEX
8
CUT
10
40.4428
20
236.6066
0
VERTEX
8
CUT
10
41.6671
20
237.9866
0
VERTEX
8
CUT
10
42.4206
20
239.3928
0
VERTEX
8
CUT
10
43.3613
20
242.5682
0
VERTEX
8
CUT
10
43.3291
20
243.8278
0
VERTEX
8
CUT
10
42.5667
20
247.2553
0
VERTEX
8
CUT
10
42.2369
20
251.4104
0
VERTEX
8
CUT
10
42.5995
20
255.5280
0
VERTEX
8
CUT
10
43.0640
20
257.5274
0
VERTEX
8
CUT
10
44.4892
20
261.4134
0
VERTEX
8
CUT
10
45.4874
20
263.2151
0
VERTEX
8
CUT
10
46.6445
20
264.9146
0
VERTEX
8
CUT
10
49.3434
20
267.7451
0
VERTEX
8
CUT
10
52.4610
20
269.7776
0
VERTEX
8
CUT
10
54.0151
20
270.4046
0
VERTEX
8
CUT
10
56.7210
20
270.9433
0
VERTEX
8
CUT
10
58.9477
20
271.6636
0
VERTEX
8
CUT
10
59.8703
20
271.2601
0
VERTEX
8
CUT
10
60.8271
20
270.0751
0
VERTEX
8
CUT
10
63.4961
20
265.4290
0
VERTEX
8
CUT
10
66.8026
20
265.3695
0
VERTEX
8
CUT
10
69.0116
20
266.0973
0
VERTEX
8
CUT
10
71.2440
20
267.7024
0
VERTEX
8
CUT
10
73.6163
20
270.3379
0
VERTEX
8
CUT
10
76.0326
20
273.7989
0
VERTEX
8
CUT
10
78.8159
20
278.7318
0
VERTEX
8
CUT
10
80.3198
20
280.9222
0
VERTEX
8
CUT
10
82.0147
20
282.8542
0
VERTEX
8
CUT
10
83.8154
20
284.4839
0
VERTEX
8
CUT
10
85.7011
20
285.7400
0
VERTEX
8
CUT
10
87.6420
20
286.6434
0
VERTEX
8
CUT
10
89.7170
20
287.2168
0
VERTEX
8
CUT
10
93.1633
20
287.3109
0
VERTEX
8
CUT
10
95.5058
20
286.7385
0
VERTEX
8
CUT
10
97.4512
20
285.5017
0
VERTEX
8
CUT
10
99.1340
20
283.5815
0
VERTEX
8
CUT
10
100.4313
20
280.9509
0
VERTEX
8
CUT
10
100.7059
20
279.1922
0
VERTEX
8
CUT
10
100.9004
20
275.1712
0
VERTEX
8
CUT
10
101.2444
20
274.0666
0
VERTEX
8
CUT
10
102.0782
20
273.5735
0
VERTEX
8
CUT
10
104.1451
20
273.4781
0
VERTEX
8
CUT
10
105.9564
20
273.8271
0
VERTEX
8
CUT
10
107.4643
20
274.4832
0
VERTEX
8
CUT
10
109.5140
20
275.7577
0
VERTEX
8
CUT
10
111.2655
20
277.4786
0
VERTEX
8
CUT
10
112.1316
20
278.5787
0
VERTEX
8
CUT
10
113.7171
20
281.2329
0
VERTEX
8
CUT
10
117.8713
20
289.5080
0
VERTEX
8
CUT
10
120.2778
20
292.2205
0
VERTEX
8
CUT
10
122.6887
20
293.8387
0
VERTEX
8
CUT
10
125.3606
20
294.8788
0
VERTEX
8
CUT
10
127.9596
20
295.1565
0
VERTEX
8
CUT
10
129.6409
20
294.8567
0
VERTEX
8
CUT
10
130.4205
20
294.9168
0
VERTEX
8
CUT
10
130.7060
20
295.3211
0
VERTEX
8
CUT
10
130.8827
20
296.7183
0
VERTEX
8
CUT
10
131.7909
20
298.1337
0
VERTEX
8
CUT
10
132.7521
20
299.0529
0
VERTEX
8
CUT
10
134.0664
20
299.7758
0
VERTEX
8
CUT
10
134.8814
20
300.0000
0
VERTEX
8
CUT
10
137.4204
20
299.9329
0
VERTEX
8
CUT
10
142.2203
20
298.6342
0
VERTEX
8
CUT
10
143.9602
20
298.0282
0
VERTEX
8
CUT
10
147.1566
20
296.1829
0
VERTEX
8
CUT
10
148.7250
20
294.8541
0
VERTEX
8
CUT
10
151.5915
20
291.5592
0
VERTEX
8
CUT
10
154.8602
20
286.3150
0
VERTEX
8
CUT
10
156.1457
20
284.6314
0
VERTEX
8
CUT
10
157.4774
20
283.2708
0
VERTEX
8
CUT
10
159.2778
20
282.1626
0
VERTEX
8
CUT
10
160.0055
20
282.1130
0
VERTEX
8
CUT
10
160.9826
20
282.4491
0
VERTEX
8
CUT
10
161.6187
20
283.2756
0
VERTEX
8
CUT
10
160.8106
20
289.7859
0
VERTEX
8
CUT
10
160.9507
20
292.1088
0
VERTEX
8
CUT
10
161.8961
20
294.8919
0
VERTEX
8
CUT
10
163.3411
20
296.7730
0
VERTEX
8
CUT
10
165.1584
20
298.2536
0
VERTEX
8
CUT
10
167.2103
20
299.2297
0
VERTEX
8
CUT
10
169.4599
20
299.7670
0
VERTEX
8
CUT
10
171.8095
20
299.8340
0
VERTEX
8
CUT
10
174.1607
20
299.4052
0
VERTEX
8
CUT
10
176.5298
20
298.4442
0
VERTEX
8
CUT
10
178.6880
20
297.0140
0
VERTEX
8
CUT
10
179.8766
20
295.8914
0
VERTEX
8
CUT
10
181.4883
20
293.9452
0
VERTEX
8
CUT
10
183.6631
20
290.8171
0
VERTEX
8
CUT
10
184.9732
20
289.5779
0
VERTEX
8
CUT
10
186.0361
20
289.4632
0
VERTEX
8
CUT
10
189.9998
20
291.0001
0
VERTEX
8
CUT
10
192.5522
20
291.1676
0
VERTEX
8
CUT
10
195.5181
20
290.6731
0
VERTEX
8
CUT
10
197.3157
20
290.1418
0
VERTEX
8
CUT
10
201.0751
20
288.6262
0
VERTEX
8
CUT
10
202.6418
20
287.6228
0
VERTEX
8
CUT
10
205.5396
20
284.9836
0
VERTEX
8
CUT
10
207.8419
20
281.7274
0
VERTEX
8
CUT
10
208.7446
20
279.8950
0
VERTEX
8
CUT
10
209.5510
20
277.4878
0
VERTEX
8
CUT
10
209.7902
20
276.1669
0
VERTEX
8
CUT
10
210.6467
20
268.2294
0
VERTEX
8
CUT
10
211.4043
20
264.0850
0
VERTEX
8
CUT
10
212.1268
20
261.8935
0
VERTEX
8
CUT
10
213.2135
20
259.7208
0
VERTEX
8
CUT
10
214.0139
20
258.5197
0
VERTEX
8
CUT
10
215.8020
20
256.5396
0
VERTEX
8
CUT
10
216.7749
20
255.7689
0
VERTEX
8
CUT
10
218.5877
20
254.8319
0
VERTEX
8
CUT
10
219.4220
20
254.7047
0
VERTEX
8
CUT
10
220.2984
20
254.9496
0
VERTEX
8
CUT
10
220.6433
20
255.4973
0
VERTEX
8
CUT
10
220.6425
20
256.5267
0
VERTEX
8
CUT
10
219.5026
20
259.6822
0
VERTEX
8
CUT
10
219.2241
20
261.1184
0
VERTEX
8
CUT
10
219.2998
20
262.3609
0
VERTEX
8
CUT
10
220.0336
20
264.1968
0
VERTEX
8
CUT
10
220.8659
20
265.2394
0
VERTEX
8
CUT
10
222.5626
20
266.0625
0
VERTEX
8
CUT
10
224.0097
20
266.2280
0
VERTEX
8
CUT
10
225.2751
20
266.0933
0
VERTEX
8
CUT
10
226.5651
20
265.6862
0
VERTEX
8
CUT
10
227.8025
20
265.0302
0
VERTEX
8
CUT
10
230.1482
20
263.0118
0
VERTEX
8
CUT
10
232.1906
20
260.1783
0
VERTEX
8
CUT
10
233.7551
20
257.0877
0
VERTEX
8
CUT
10
234.7273
20
254.4064
0
VERTEX
8
CUT
10
235.3866
20
251.6702
0
VERTEX
8
CUT
10
236.2653
20
243.6817
0
VERTEX
8
CUT
10
237.1091
20
242.1512
0
VERTEX
8
CUT
10
237.6456
20
241.7207
0
VERTEX
8
CUT
10
238.1905
20
241.7189
0
VERTEX
8
CUT
10
241.1234
20
244.1370
0
VERTEX
8
CUT
10
243.0118
20
244.9649
0
VERTEX
8
CUT
10
244.0675
20
245.1108
0
VERTEX
8
CUT
10
246.0534
20
244.8785
0
VERTEX
8
CUT
10
247.0743
20
244.4610
0
VERTEX
8
CUT
10
248.2428
20
243.6026
0
VERTEX
8
CUT
10
249.2183
20
242.3621
0
VERTEX
8
CUT
10
250.0112
20
240.7456
0
VERTEX
8
CUT
10
250.5464
20
238.8940
0
VERTEX
8
CUT
10
250.7122
20
236.1075
0
VERTEX
8
CUT
10
250.4402
20
234.5634
0
VERTEX
8
CUT
10
250.0329
20
232.9831
0
VERTEX
8
CUT
10
248.6171
20
229.8885
0
VERTEX
8
CUT
10
245.0427
20
224.7280
0
VERTEX
8
CUT
10
245.2740
20
224.3578
0
VERTEX
8
CUT
10
248.0848
20
222.7083
0
VERTEX
8
CUT
10
248.6339
20
222.0869
0
VERTEX
8
CUT
10
249.5012
20
220.4234
0
VERTEX
8
CUT
10
249.7566
20
218.9009
0
VERTEX
8
CUT
10
249.6233
20
213.3494
0
VERTEX
8
CUT
10
250.0621
20
212.0504
0
VERTEX
8
CUT
10
250.4408
20
211.8964
0
VERTEX
8
CUT
10
250.8464
20
212.0664
0
VERTEX
8
CUT
10
252.7681
20
213.7269
0
VERTEX
8
CUT
10
265.3449
20
226.8643
0
VERTEX
8
CUT
10
266.5573
20
227.5164
0
VERTEX
8
CUT
10
267.2599
20
227.0754
0
VERTEX
8
CUT
10
267.3353
20
226.1764
0
VERTEX
8
CUT
10
266.0822
20
223.1753
0
VERTEX
8
CUT
10
263.3005
20
218.6999
0
VERTEX
8
CUT
10
259.4668
20
213.5756
0
VERTEX
8
CUT
10
254.6587
20
207.7333
0
VERTEX
8
CUT
10
254.6954
20
207.0003
0
VERTEX
8
CUT
10
255.3209
20
204.9406
0
VERTEX
8
CUT
10
255.4222
20
203.5114
0
VERTEX
8
CUT
10
254.8520
20
200.3899
0
VERTEX
8
CUT
10
253.3326
20
197.2256
0
VERTEX
8
CUT
10
252.2680
20
195.7649
0
VERTEX
8
CUT
10
249.8138
20
193.0804
0
VERTEX
8
CUT
10
249.2456
20
192.0170
0
VERTEX
8
CUT
10
249.3593
20
190.6221
0
VERTEX
8
CUT
10
250.4824
20
188.8165
0
VERTEX
8
CUT
10
251.1692
20
188.3451
0
VERTEX
8
CUT
10
252.0537
20
188.2824
0
VERTEX
8
CUT
10
256.8362
20
190.2024
0
VERTEX
8
CUT
10
264.8698
20
194.0544
0
VERTEX
8
CUT
10
273.9908
20
198.7630
0
VERTEX
8
CUT
10
289.9588
20
207.8171
0
VERTEX
8
CUT
10
291.0538
20
208.1362
0
VERTEX
8
CUT
10
291.7948
20
207.3291
0
VERTEX
8
CUT
10
291.7312
20
206.8359
0
VERTEX
8
CUT
10
291.0607
20
205.9298
0
VERTEX
8
CUT
10
288.7156
20
203.6507
0
VERTEX
8
CUT
10
286.1688
20
201.5680
0
VERTEX
8
CUT
10
279.4161
20
196.8906
0
VERTEX
8
CUT
10
271.2348
20
191.9089
0
VERTEX
8
CUT
10
258.7845
20
185.2883
0
VERTEX
8
CUT
10
257.3047
20
184.2932
0
VERTEX
8
CUT
10
257.3100
20
183.8929
0
VERTEX
8
CUT
10
258.1475
20
182.4359
0
VERTEX
8
CUT
10
258.4785
20
181.3438
0
VERTEX
8
CUT
10
258.7169
20
178.2925
0
VERTEX
8
CUT
10
258.4345
20
176.7445
0
VERTEX
8
CUT
10
256.6757
20
172.9024
0
VERTEX
8
CUT
10
256.9375
20
172.4206
0
VERTEX
8
CUT
10
261.1757
20
172.8904
0
VERTEX
8
CUT
10
268.0899
20
173.9768
0
VERTEX
8
CUT
10
286.6359
20
177.3371
0
VERTEX
8
CUT
10
287.8333
20
177.2152
0
VERTEX
8
CUT
10
288.1209
20
176.9188
0
VERTEX
8
CUT
10
288.1965
20
176.4805
0
VERTEX
8
CUT
10
287.9018
20
176.0176
0
VERTEX
8
CUT
10
286.4217
20
174.9906
0
VERTEX
8
CUT
10
283.8044
20
173.8656
0
VERTEX
8
CUT
10
280.1758
20
172.6454
0
VERTEX
8
CUT
10
270.8189
20
170.1086
0
VERTEX
8
CUT
10
265.5403
20
168.9536
0
VERTEX
8
CUT
10
251.7489
20
166.6088
0
VERTEX
8
CUT
10
250.4440
20
166.0348
0
VERTEX
8
CUT
10
249.0015
20
164.5880
0
VERTEX
8
CUT
10
248.0980
20
163.2487
0
VERTEX
8
CUT
10
247.5015
20
161.8232
0
VERTEX
8
CUT
10
247.2888
20
160.5596
0
VERTEX
8
CUT
10
247.5449
20
159.2158
0
VERTEX
8
CUT
10
247.8784
20
158.7714
0
VERTEX
8
CUT
10
248.3340
20
158.6327
0
VERTEX
8
CUT
10
249.9686
20
159.0557
0
VERTEX
8
CUT
10
251.7300
20
159.0422
0
VERTEX
8
CUT
10
253.3480
20
158.3970
0
VERTEX
8
CUT
10
254.6531
20
157.1964
0
VERTEX
8
CUT
10
255.4701
20
155.7383
0
VERTEX
8
CUT
10
255.6857
20
154.4875
0
VERTEX
8
CUT
10
255.5553
20
151.6886
0
VERTEX
8
CUT
10
255.0212
20
149.6976
0
VERTEX
8
CUT
10
253.8466
20
147.6702
0
VERTEX
8
CUT
10
252.9435
20
146.5298
0
VERTEX
8
CUT
10
248.6963
20
141.9192
0
VERTEX
8
CUT
10
247.3249
20
140.1579
0
VERTEX
8
CUT
10
245.4173
20
136.7649
0
VERTEX
8
CUT
10
244.9093
20
135.1739
0
VERTEX
8
CUT
10
244.6490
20
133.5622
0
VERTEX
8
CUT
10
244.6189
20
131.9763
0
VERTEX
8
CUT
10
245.2759
20
126.9154
0
VERTEX
8
CUT
10
245.2101
20
124.5779
0
VERTEX
8
CUT
10
244.8459
20
122.3457
0
VERTEX
8
CUT
10
243.8479
20
119.4393
0
VERTEX
8
CUT
10
242.9402
20
117.6874
0
VERTEX
8
CUT
10
241.8372
20
115.9184
0
VERTEX
8
CUT
10
238.9339
20
112.0865
0
VERTEX
8
CUT
10
237.5917
20
109.6953
0
VERTEX
8
CUT
10
237.4752
20
108.8492
0
VERTEX
8
CUT
10
238.1260
20
106.1734
0
VERTEX
8
CUT
10
238.0571
20
104.6476
0
VERTEX
8
CUT
10
237.6104
20
103.1398
0
VERTEX
8
CUT
10
236.7348
20
101.6919
0
VERTEX
8
CUT
10
235.5093
20
100.2990
0
VERTEX
8
CUT
10
233.9093
20
98.9608
0
VERTEX
8
CUT
10
231.8466
20
97.6399
0
VERTEX
8
CUT
10
227.0617
20
95.1169
0
VERTEX
8
CUT
10
225.4537
20
93.9992
0
VERTEX
8
CUT
10
224.3414
20
92.7526
0
VERTEX
8
CUT
10
223.0608
20
90.2818
0
VERTEX
8
CUT
10
222.6787
20
88.4775
0
VERTEX
8
CUT
10
222.6732
20
86.5768
0
VERTEX
8
CUT
10
223.4117
20
83.9239
0
VERTEX
8
CUT
10
225.4289
20
81.3568
0
VERTEX
8
CUT
10
229.6830
20
77.0349
0
VERTEX
8
CUT
10
230.4326
20
76.0044
0
VERTEX
8
CUT
10
230.8709
20
74.7574
0
VERTEX
8
CUT
10
230.7373
20
72.6318
0
VERTEX
8
CUT
10
229.7194
20
70.8198
0
VERTEX
8
CUT
10
228.0917
20
69.5903
0
VERTEX
8
CUT
10
227.1252
20
69.2587
0
VERTEX
8
CUT
10
224.5750
20
68.8600
0
VERTEX
8
CUT
10
224.3162
20
68.5977
0
VERTEX
8
CUT
10
224.2578
20
68.1595
0
VERTEX
8
CUT
10
224.7688
20
66.9450
0
VERTEX
8
CUT
10
225.7402
20
65.7598
0
VERTEX
8
CUT
10
230.7059
20
61.2515
0
VERTEX
8
CUT
10
231.4772
20
60.2084
0
VERTEX
8
CUT
10
232.0873
20
58.7852
0
VERTEX
8
CUT
10
232.3600
20
57.0328
0
VERTEX
8
CUT
10
231.9810
20
55.4108
0
VERTEX
8
CUT
10
230.9346
20
53.8836
0
VERTEX
8
CUT
10
229.4812
20
52.4038
0
VERTEX
8
CUT
10
229.3324
20
51.8626
0
VERTEX
8
CUT
10
232.1425
20
47.2491
0
VERTEX
8
CUT
10
233.7540
20
44.0263
0
VERTEX
8
CUT
10
234.3225
20
42.4594
0
VERTEX
8
CUT
10
234.7317
20
40.9569
0
VERTEX
8
CUT
10
235.0288
20
38.3493
0
VERTEX
8
CUT
10
234.5000
20
36.2673
0
VERTEX
8
CUT
10
234.0026
20
35.4686
0
VERTEX
8
CUT
10
232.5701
20
34.3358
0
VERTEX
8
CUT
10
230.6188
20
33.7422
0
VERTEX
8
CUT
10
228.3754
20
33.8690
0
VERTEX
8
CUT
10
225.4651
20
34.7814
0
VERTEX
8
CUT
10
223.9014
20
35.5150
0
VERTEX
8
CUT
10
220.2345
20
37.7621
0
VERTEX
8
CUT
10
205.1502
20
48.9931
0
VERTEX
8
CUT
10
199.5702
20
52.5715
0
VERTEX
8
CUT
10
194.5816
20
55.1325
0
VERTEX
8
CUT
10
192.1355
20
56.1575
0
VERTEX
8
CUT
10
187.4700
20
57.7239
0
VERTEX
8
CUT
10
184.6321
20
58.3169
0
VERTEX
8
CUT
10
183.8861
20
58.3108
0
VERTEX
8
CUT
10
183.6104
20
58.0465
0
VERTEX
8
CUT
10
183.4565
20
55.4219
0
VERTEX
8
CUT
10
182.5942
20
53.7754
0
VERTEX
8
CUT
10
180.9619
20
52.6115
0
VERTEX
8
CUT
10
179.4739
20
52.1531
0
VERTEX
8
CUT
10
176.8828
20
52.2584
0
VERTEX
8
CUT
10
168.5929
20
54.5614
0
VERTEX
8
CUT
10
164.8749
20
55.1861
0
VERTEX
8
CUT
10
159.7449
20
55.1213
0
VERTEX
8
CUT
10
155.7325
20
54.2119
0
VERTEX
8
CUT
10
153.4236
20
53.2558
0
VERTEX
8
CUT
10
150.9546
20
51.7820
0
VERTEX
8
CUT
10
150.4449
20
51.0414
0
VERTEX
8
CUT
10
149.5151
20
48.4224
0
VERTEX
8
CUT
10
148.6090
20
47.0078
0
VERTEX
8
CUT
10
146.7446
20
45.4384
0
VERTEX
8
CUT
10
145.2130
20
44.9053
0
VERTEX
8
CUT
10
142.6518
20
44.9715
0
VERTEX
8
CUT
10
140.7576
20
45.6078
0
VERTEX
8
CUT
10
133.6357
20
49.7092
0
VERTEX
8
CUT
10
131.7309
20
50.4399
0
VERTEX
8
CUT
10
129.7893
20
50.7678
0
VERTEX
8
CUT
10
126.4348
20
50.7710
0
VERTEX
8
CUT
10
124.7777
20
50.4697
0
VERTEX
8
CUT
10
123.5684
20
49.8425
0
VERTEX
8
CUT
10
121.2362
20
47.8381
0
VERTEX
8
CUT
10
118.9247
20
46.3852
0
VERTEX
8
CUT
10
117.6736
20
45.8653
0
VERTEX
8
CUT
10
115.2944
20
45.4353
0
VERTEX
8
CUT
10
114.1089
20
45.4680
0
VERTEX
8
CUT
10
112.4689
20
45.9784
0
VERTEX
8
CUT
10
111.4528
20
46.6791
0
VERTEX
8
CUT
10
109.7744
20
48.3551
0
VERTEX
8
CUT
10
108.9848
20
48.6102
0
VERTEX
8
CUT
10
107.6552
20
47.8631
0
VERTEX
8
CUT
10
105.8471
20
46.2142
0
VERTEX
8
CUT
10
103.5163
20
43.7515
0
VERTEX
8
CUT
10
98.2200
20
37.5009
0
VERTEX
8
CUT
10
94.9098
20
34.3617
0
VERTEX
8
CUT
10
93.0195
20
33.1869
0
VERTEX
8
CUT
10
91.1750
20
32.6190
0
VERTEX
8
CUT
10
90.2235
20
32.8360
0
VERTEX
8
CUT
10
88.4964
20
33.7503
0
VERTEX
8
CUT
10
88.0900
20
33.6772
0
VERTEX
8
CUT
10
79.5718
20
22.8722
0
VERTEX
8
CUT
10
75.4910
20
17.9357
0
VERTEX
8
CUT
10
71.6971
20
13.7124
0
VERTEX
8
CUT
10
68.1659
20
10.1475
0
VERTEX
8
CUT
10
64.8306
20
7.1745
0
VERTEX
8
CUT
10
61.6226
20
4.7584
0
VERTEX
8
CUT
10
58.4724
20
2.8156
0
VERTEX
8
CUT
10
54.4934
20
0.9741
0
VERTEX
8
CUT
10
52.3864
20
0.3366
0
VERTEX
8
CUT
10
47.1760
20
0.0000
0
VERTEX
8
CUT
10
45.2638
20
0.1369
0
SEQEND
0
POLYLINE
8
CUT
66
1
70
1
10
0.0
20
0.0
30
0.0
0
VERTEX
8
CUT
10
213.4377
20
108.8004
0
VERTEX
8
CUT
10
213.5365
20
109.1298
0
VERTEX
8
CUT
10
213.4047
20
109.2946
0
VERTEX
8
CUT
10
212.1857
20
109.8217
0
VERTEX
8
CUT
10
211.4609
20
109.6899
0
VERTEX
8
CUT
10
210.7690
20
108.8663
0
VERTEX
8
CUT
10
211.0985
20
108.5038
0
VERTEX
8
CUT
10
211.9880
20
108.2403
0
VERTEX
8
CUT
10
212.9105
20
108.3721
0
SEQEND
0
POLYLINE
8
CUT
66
1
70
1
10
0.0
20
0.0
30
0.0
0
VERTEX
8
CUT
10
206.3666
20
114.4235
0
VERTEX
8
CUT
10
206.6880
20
113.9170
0
VERTEX
8
CUT
10
207.9297
20
113.4323
0
VERTEX
8
CUT
10
209.1309
20
114.5791
0
VERTEX
8
CUT
10
209.4852
20
115.6280
0
VERTEX
8
CUT
10
208.8885
20
115.9028
0
VERTEX
8
CUT
10
207.5337
20
115.6056
0
VERTEX
8
CUT
10
206.7973
20
115.1051
0
SEQEND
0
ENDSEC
0
EOF
