0
SECTION
2
HEADER
9
$ACADVER
1
AC1009
9
$INSUNITS
70
4
0
ENDSEC
0
SECTION
2
TABLES
0
TABLE
2
LAYER
70
1
0
LAYER
2
CUT
70
0
62
7
6
CONTINUOUS
0
ENDTAB
0
ENDSEC
0
SECTION
2
ENTITIES
0
POLYLINE
8
CUT
66
1
70
1
10
0.0
20
0.0
30
0.0
0
VERTEX
8
CUT
10
71.4890
20
69.2602
0
VERTEX
8
CUT
10
72.0958
20
69.6252
0
VERTEX
8
CUT
10
72.3115
20
69.8037
0
VERTEX
8
CUT
10
72.5835
20
69.9835
0
VERTEX
8
CUT
10
74.8758
20
71.8476
0
VERTEX
8
CUT
10
75.3689
20
72.3329
0
VERTEX
8
CUT
10
76.0926
20
72.9316
0
VERTEX
8
CUT
10
77.9604
20
74.8631
0
VERTEX
8
CUT
10
84.1521
20
83.0291
0
VERTEX
8
CUT
10
85.8470
20
84.7931
0
VERTEX
8
CUT
10
88.4545
20
86.6553
0
VERTEX
8
CUT
10
91.4043
20
87.7495
0
VERTEX
8
CUT
10
93.3819
20
87.9572
0
VERTEX
8
CUT
10
95.0899
20
87.7173
0
VERTEX
8
CUT
10
96.5357
20
86.9944
0
VERTEX
8
CUT
10
97.5444
20
85.9164
0
VERTEX
8
CUT
10
98.1914
20
84.3592
0
VERTEX
8
CUT
10
98.3652
20
83.3032
0
VERTEX
8
CUT
10
98.7312
20
78.4666
0
VERTEX
8
CUT
10
99.0508
20
76.5441
0
VERTEX
8
CUT
10
99.8748
20
74.5697
0
VERTEX
8
CUT
10
99.9047
20
74.3385
0
VERTEX
8
CUT
10
100.6295
20
73.1854
0
VERTEX
8
CUT
10
101.1566
20
72.7571
0
VERTEX
8
CUT
10
101.6013
20
72.7571
0
VERTEX
8
CUT
10
102.9084
20
72.0004
0
VERTEX
8
CUT
10
104.2551
20
71.5876
0
VERTEX
8
CUT
10
109.2169
20
71.6820
0
VERTEX
8
CUT
10
110.8261
20
71.4013
0
VERTEX
8
CUT
10
111.4488
20
71.0643
0
VERTEX
8
CUT
10
112.3225
20
70.1235
0
VERTEX
8
CUT
10
113.2206
20
68.1951
0
VERTEX
8
CUT
10
113.3909
20
66.3162
0
VERTEX
8
CUT
10
112.9250
20
64.4046
0
VERTEX
8
CUT
10
111.4851
20
61.7786
0
VERTEX
8
CUT
10
110.3024
20
60.1581
0
VERTEX
8
CUT
10
108.5772
20
58.4991
0
VERTEX
8
CUT
10
104.6205
20
55.8052
0
VERTEX
8
CUT
10
103.5728
20
55.3209
0
VERTEX
8
CUT
10
101.7961
20
55.0212
0
VERTEX
8
CUT
10
100.9805
20
55.1827
0
VERTEX
8
CUT
10
99.7576
20
56.1341
0
VERTEX
8
CUT
10
99.3076
20
56.9506
0
VERTEX
8
CUT
10
99.0356
20
58.0311
0
VERTEX
8
CUT
10
99.2749
20
60.2962
0
VERTEX
8
CUT
10
100.9473
20
66.5837
0
VERTEX
8
CUT
10
101.0125
20
68.1192
0
VERTEX
8
CUT
10
100.6899
20
69.2556
0
VERTEX
8
CUT
10
100.3914
20
69.5915
0
VERTEX
8
CUT
10
100.3747
20
69.6295
0
VERTEX
8
CUT
10
100.3028
20
69.6930
0
VERTEX
8
CUT
10
100.0325
20
70.0242
0
VERTEX
8
CUT
10
99.9680
20
70.0681
0
VERTEX
8
CUT
10
99.5006
20
70.5941
0
VERTEX
8
CUT
10
98.7062
20
71.0074
0
VERTEX
8
CUT
10
98.0362
20
70.9986
0
VERTEX
8
CUT
10
96.9773
20
70.6279
0
VERTEX
8
CUT
10
96.8699
20
70.5700
0
VERTEX
8
CUT
10
96.7715
20
70.5568
0
VERTEX
8
CUT
10
95.5700
20
69.8998
0
VERTEX
8
CUT
10
95.5053
20
69.8344
0
VERTEX
8
CUT
10
95.4250
20
69.7911
0
VERTEX
8
CUT
10
93.7164
20
68.3792
0
VERTEX
8
CUT
10
91.7965
20
66.0985
0
VERTEX
8
CUT
10
82.8493
20
52.6108
0
VERTEX
8
CUT
10
80.3991
20
49.2336
0
VERTEX
8
CUT
10
77.1348
20
45.3756
0
VERTEX
8
CUT
10
75.0186
20
43.2912
0
VERTEX
8
CUT
10
74.7248
20
43.0477
0
VERTEX
8
CUT
10
72.4289
20
41.2149
0
VERTEX
8
CUT
10
70.8425
20
40.1385
0
VERTEX
8
CUT
10
68.8428
20
39.1347
0
VERTEX
8
CUT
10
66.8437
20
38.4484
0
VERTEX
8
CUT
10
65.0528
20
38.2179
0
VERTEX
8
CUT
10
63.3335
20
38.3521
0
VERTEX
8
CUT
10
61.6900
20
38.9201
0
VERTEX
8
CUT
10
60.3309
20
39.8832
0
VERTEX
8
CUT
10
59.3850
20
41.0920
0
VERTEX
8
CUT
10
58.8798
20
42.5992
0
VERTEX
8
CUT
10
58.8743
20
42.8576
0
VERTEX
8
CUT
10
58.8742
20
44.4168
0
VERTEX
8
CUT
10
59.2813
20
46.1378
0
VERTEX
8
CUT
10
60.1626
20
48.0999
0
VERTEX
8
CUT
10
61.4323
20
50.1982
0
VERTEX
8
CUT
10
64.3315
20
53.8821
0
VERTEX
8
CUT
10
64.3638
20
53.9222
0
VERTEX
8
CUT
10
64.3690
20
53.9299
0
VERTEX
8
CUT
10
65.6551
20
55.5641
0
VERTEX
8
CUT
10
66.3353
20
56.7626
0
VERTEX
8
CUT
10
66.5413
20
57.6474
0
VERTEX
8
CUT
10
66.0538
20
58.6231
0
VERTEX
8
CUT
10
65.4157
20
58.9175
0
VERTEX
8
CUT
10
65.0613
20
58.9242
0
VERTEX
8
CUT
10
64.4731
20
59.2281
0
VERTEX
8
CUT
10
63.2057
20
59.0747
0
VERTEX
8
CUT
10
62.8410
20
58.9661
0
VERTEX
8
CUT
10
55.4589
20
59.1052
0
VERTEX
8
CUT
10
54.1167
20
59.2711
0
VERTEX
8
CUT
10
53.3322
20
59.6034
0
VERTEX
8
CUT
10
52.8470
20
60.0829
0
VERTEX
8
CUT
10
52.4644
20
60.6561
0
VERTEX
8
CUT
10
52.4852
20
60.9288
0
VERTEX
8
CUT
10
53.2178
20
62.1456
0
VERTEX
8
CUT
10
54.7849
20
63.1977
0
VERTEX
8
CUT
10
64.5260
20
65.8895
0
VERTEX
8
CUT
10
64.8274
20
65.9654
0
VERTEX
8
CUT
10
64.8852
20
65.9888
0
VERTEX
8
CUT
10
65.7543
20
66.2289
0
VERTEX
8
CUT
10
67.9411
20
67.1253
0
VERTEX
8
CUT
10
69.3411
20
67.9677
0
VERTEX
8
CUT
10
70.1601
20
68.3819
0
SEQEND
0
POLYLINE
8
CUT
66
1
70
1
10
0.0
20
0.0
30
0.0
0
VERTEX
8
CUT
10
224.7382
20
73.0877
0
VERTEX
8
CUT
10
223.9366
20
72.6211
0
VERTEX
8
CUT
10
222.7253
20
72.7243
0
VERTEX
8
CUT
10
221.0961
20
73.4698
0
VERTEX
8
CUT
10
219.1713
20
73.1428
0
VERTEX
8
CUT
10
217.6060
20
73.1454
0
VERTEX
8
CUT
10
217.2733
20
72.7968
0
VERTEX
8
CUT
10
217.4368
20
71.8459
0
VERTEX
8
CUT
10
218.7510
20
69.3501
0
VERTEX
8
CUT
10
223.1177
20
63.1900
0
VERTEX
8
CUT
10
223.3981
20
62.2599
0
VERTEX
8
CUT
10
222.9844
20
61.5187
0
VERTEX
8
CUT
10
222.2131
20
61.2842
0
VERTEX
8
CUT
10
221.7186
20
61.3464
0
VERTEX
8
CUT
10
219.9912
20
62.1189
0
VERTEX
8
CUT
10
217.0383
20
64.6099
0
VERTEX
8
CUT
10
214.0918
20
67.9551
0
VERTEX
8
CUT
10
211.6515
20
71.4503
0
VERTEX
8
CUT
10
210.2000
20
74.5966
0
VERTEX
8
CUT
10
210.0655
20
75.1307
0
VERTEX
8
CUT
10
210.1988
20
75.5475
0
VERTEX
8
CUT
10
211.7747
20
76.2469
0
VERTEX
8
CUT
10
212.2715
20
77.3604
0
VERTEX
8
CUT
10
211.8693
20
77.8639
0
VERTEX
8
CUT
10
211.8921
20
78.0954
0
VERTEX
8
CUT
10
212.6732
20
78.5871
0
VERTEX
8
CUT
10
213.8032
20
78.6243
0
VERTEX
8
CUT
10
214.1285
20
78.7961
0
VERTEX
8
CUT
10
214.4018
20
79.1265
0
VERTEX
8
CUT
10
214.6672
20
80.1809
0
VERTEX
8
CUT
10
215.3020
20
80.7098
0
VERTEX
8
CUT
10
215.7121
20
80.7725
0
VERTEX
8
CUT
10
216.3134
20
80.6135
0
VERTEX
8
CUT
10
217.1390
20
79.9866
0
VERTEX
8
CUT
10
217.7102
20
77.7085
0
VERTEX
8
CUT
10
219.0777
20
77.7405
0
VERTEX
8
CUT
10
220.4217
20
77.3386
0
VERTEX
8
CUT
10
221.3715
20
76.5518
0
VERTEX
8
CUT
10
222.0109
20
75.2280
0
VERTEX
8
CUT
10
223.5368
20
75.4319
0
VERTEX
8
CUT
10
224.2351
20
75.2010
0
VERTEX
8
CUT
10
224.7444
20
74.7560
0
VERTEX
8
CUT
10
224.9698
20
73.5479
0
SEQEND
0
POLYLINE
8
CUT
66
1
70
1
10
0.0
20
0.0
30
0.0
0
VERTEX
8
CUT
10
112.4837
20
83.6062
0
VERTEX
8
CUT
10
111.9053
20
84.4305
0
VERTEX
8
CUT
10
111.6887
20
85.3361
0
VERTEX
8
CUT
10
112.0237
20
86.8133
0
VERTEX
8
CUT
10
112.3434
20
87.4277
0
VERTEX
8
CUT
10
113.2841
20
88.7198
0
VERTEX
8
CUT
10
114.4999
20
90.1527
0
VERTEX
8
CUT
10
116.2461
20
92.6896
0
VERTEX
8
CUT
10
116.4437
20
93.3156
0
VERTEX
8
CUT
10
116.3459
20
93.5220
0
VERTEX
8
CUT
10
116.4344
20
93.7809
0
VERTEX
8
CUT
10
116.5281
20
94.6761
0
VERTEX
8
CUT
10
116.2251
20
95.6209
0
VERTEX
8
CUT
10
115.4175
20
97.0404
0
VERTEX
8
CUT
10
114.5680
20
97.9206
0
VERTEX
8
CUT
10
113.5341
20
98.7229
0
VERTEX
8
CUT
10
110.8150
20
100.0774
0
VERTEX
8
CUT
10
107.3506
20
101.0479
0
VERTEX
8
CUT
10
104.2448
20
101.5397
0
VERTEX
8
CUT
10
101.1885
20
101.5714
0
VERTEX
8
CUT
10
93.7578
20
100.2555
0
VERTEX
8
CUT
10
91.8446
20
100.0912
0
VERTEX
8
CUT
10
90.4847
20
100.2569
0
VERTEX
8
CUT
10
89.5778
20
100.7438
0
VERTEX
8
CUT
10
89.0636
20
101.6861
0
VERTEX
8
CUT
10
89.0232
20
102.8032
0
VERTEX
8
CUT
10
89.4572
20
104.0170
0
VERTEX
8
CUT
10
91.3770
20
106.4311
0
VERTEX
8
CUT
10
94.4432
20
108.6732
0
VERTEX
8
CUT
10
96.3770
20
109.6761
0
VERTEX
8
CUT
10
100.2446
20
110.9795
0
VERTEX
8
CUT
10
104.2411
20
111.3732
0
VERTEX
8
CUT
10
104.6693
20
111.3482
0
VERTEX
8
CUT
10
107.5693
20
111.0583
0
VERTEX
8
CUT
10
109.2215
20
110.6088
0
VERTEX
8
CUT
10
110.6112
20
110.1531
0
VERTEX
8
CUT
10
118.9069
20
106.2181
0
VERTEX
8
CUT
10
120.9520
20
105.1996
0
VERTEX
8
CUT
10
124.7590
20
103.7023
0
VERTEX
8
CUT
10
125.8456
20
103.4203
0
VERTEX
8
CUT
10
126.1680
20
103.3000
0
VERTEX
8
CUT
10
129.1730
20
102.7143
0
VERTEX
8
CUT
10
132.6273
20
102.5531
0
VERTEX
8
CUT
10
134.6543
20
102.7192
0
VERTEX
8
CUT
10
138.6385
20
103.6052
0
VERTEX
8
CUT
10
139.6175
20
104.0272
0
VERTEX
8
CUT
10
140.2668
20
104.2581
0
VERTEX
8
CUT
10
140.7819
20
104.5292
0
VERTEX
8
CUT
10
141.4702
20
104.8260
0
VERTEX
8
CUT
10
141.8297
20
104.9600
0
VERTEX
8
CUT
10
141.9771
20
105.0445
0
VERTEX
8
CUT
10
142.3915
20
105.2232
0
VERTEX
8
CUT
10
144.1838
20
106.2644
0
VERTEX
8
CUT
10
145.4410
20
107.2923
0
VERTEX
8
CUT
10
145.7125
20
107.4919
0
VERTEX
8
CUT
10
145.9095
20
107.6754
0
VERTEX
8
CUT
10
148.3316
20
109.6557
0
VERTEX
8
CUT
10
150.3824
20
112.1329
0
VERTEX
8
CUT
10
151.5030
20
113.8864
0
VERTEX
8
CUT
10
151.5444
20
113.9425
0
VERTEX
8
CUT
10
151.6070
20
114.0491
0
VERTEX
8
CUT
10
152.3978
20
115.2865
0
VERTEX
8
CUT
10
153.0967
20
116.6916
0
VERTEX
8
CUT
10
153.6897
20
117.6713
0
VERTEX
8
CUT
10
156.6613
20
123.8245
0
VERTEX
8
CUT
10
157.6289
20
125.7546
0
VERTEX
8
CUT
10
157.6547
20
125.8061
0
VERTEX
8
CUT
10
157.7019
20
125.9001
0
VERTEX
8
CUT
10
158.5713
20
127.6343
0
VERTEX
8
CUT
10
159.8965
20
129.7953
0
VERTEX
8
CUT
10
159.9183
20
129.8237
0
VERTEX
8
CUT
10
159.9300
20
129.8390
0
VERTEX
8
CUT
10
159.9332
20
129.8431
0
VERTEX
8
CUT
10
159.9570
20
129.8740
0
VERTEX
8
CUT
10
160.7596
20
130.7766
0
VERTEX
8
CUT
10
162.4354
20
131.9293
0
VERTEX
8
CUT
10
164.0417
20
132.0947
0
VERTEX
8
CUT
10
164.1924
20
132.0383
0
VERTEX
8
CUT
10
165.0878
20
131.6730
0
VERTEX
8
CUT
10
165.3209
20
131.5078
0
VERTEX
8
CUT
10
166.1284
20
130.6386
0
VERTEX
8
CUT
10
166.2999
20
130.3672
0
VERTEX
8
CUT
10
166.6287
20
129.2680
0
VERTEX
8
CUT
10
166.7636
20
128.0168
0
VERTEX
8
CUT
10
166.4012
20
125.1494
0
VERTEX
8
CUT
10
165.9227
20
123.5066
0
VERTEX
8
CUT
10
162.7615
20
116.0315
0
VERTEX
8
CUT
10
161.3519
20
111.8630
0
VERTEX
8
CUT
10
160.6346
20
107.8114
0
VERTEX
8
CUT
10
159.9115
20
98.1764
0
VERTEX
8
CUT
10
159.4819
20
95.0665
0
VERTEX
8
CUT
10
158.5192
20
91.6726
0
VERTEX
8
CUT
10
157.5454
20
89.8511
0
VERTEX
8
CUT
10
156.2729
20
88.2727
0
VERTEX
8
CUT
10
154.9203
20
87.1852
0
VERTEX
8
CUT
10
153.6533
20
86.7521
0
VERTEX
8
CUT
10
153.0134
20
86.9276
0
VERTEX
8
CUT
10
152.6737
20
88.3518
0
VERTEX
8
CUT
10
152.3462
20
93.0464
0
VERTEX
8
CUT
10
152.3552
20
93.0520
0
VERTEX
8
CUT
10
152.3552
20
94.6005
0
VERTEX
8
CUT
10
152.1575
20
95.5230
0
VERTEX
8
CUT
10
151.9637
20
95.9106
0
VERTEX
8
CUT
10
151.9561
20
95.9564
0
VERTEX
8
CUT
10
150.5993
20
100.2637
0
VERTEX
8
CUT
10
150.3405
20
100.4826
0
VERTEX
8
CUT
10
150.0081
20
100.4158
0
VERTEX
8
CUT
10
149.3125
20
99.4238
0
VERTEX
8
CUT
10
149.2825
20
99.3994
0
VERTEX
8
CUT
10
148.6563
20
98.4881
0
VERTEX
8
CUT
10
141.9183
20
88.8792
0
VERTEX
8
CUT
10
134.7072
20
79.0013
0
VERTEX
8
CUT
10
126.4260
20
66.3338
0
VERTEX
8
CUT
10
124.6915
20
64.2758
0
VERTEX
8
CUT
10
123.4146
20
63.6366
0
VERTEX
8
CUT
10
122.0236
20
63.6045
0
VERTEX
8
CUT
10
121.3758
20
63.9711
0
VERTEX
8
CUT
10
120.9145
20
65.0200
0
VERTEX
8
CUT
10
120.9167
20
66.5415
0
VERTEX
8
CUT
10
121.5648
20
69.1370
0
VERTEX
8
CUT
10
124.0896
20
74.0871
0
VERTEX
8
CUT
10
125.6687
20
76.7107
0
VERTEX
8
CUT
10
134.3995
20
88.3407
0
VERTEX
8
CUT
10
135.2890
20
90.1527
0
VERTEX
8
CUT
10
135.2231
20
90.6140
0
VERTEX
8
CUT
10
134.9135
20
90.6803
0
VERTEX
8
CUT
10
134.8607
20
91.1496
0
VERTEX
8
CUT
10
134.5475
20
91.2938
0
VERTEX
8
CUT
10
133.3312
20
91.1583
0
VERTEX
8
CUT
10
130.7902
20
90.1558
0
VERTEX
8
CUT
10
122.6499
20
84.9999
0
VERTEX
8
CUT
10
119.3348
20
83.3413
0
VERTEX
8
CUT
10
116.5329
20
82.4716
0
VERTEX
8
CUT
10
115.3250
20
82.3329
0
VERTEX
8
CUT
10
114.2777
20
82.4396
0
VERTEX
8
CUT
10
113.3311
20
82.8613
0
SEQEND
0
POLYLINE
8
CUT
66
1
70
1
10
0.0
20
0.0
30
0.0
0
VERTEX
8
CUT
10
91.7136
20
110.1371
0
VERTEX
8
CUT
10
89.3190
20
107.9710
0
VERTEX
8
CUT
10
87.3624
20
106.7925
0
VERTEX
8
CUT
10
85.2318
20
105.8299
0
VERTEX
8
CUT
10
83.0124
20
105.1118
0
VERTEX
8
CUT
10
80.6708
20
104.6368
0
VERTEX
8
CUT
10
78.3869
20
104.4411
0
VERTEX
8
CUT
10
76.1517
20
104.5051
0
VERTEX
8
CUT
10
73.9647
20
104.9152
0
VERTEX
8
CUT
10
70.9328
20
106.2176
0
VERTEX
8
CUT
10
68.7282
20
108.1176
0
VERTEX
8
CUT
10
67.9434
20
109.3326
0
VERTEX
8
CUT
10
67.6396
20
110.1771
0
VERTEX
8
CUT
10
67.3867
20
111.8973
0
VERTEX
8
CUT
10
67.4067
20
112.0776
0
VERTEX
8
CUT
10
67.7447
20
113.7662
0
VERTEX
8
CUT
10
67.8602
20
114.0256
0
VERTEX
8
CUT
10
68.2762
20
114.8954
0
VERTEX
8
CUT
10
70.9316
20
117.7945
0
VERTEX
8
CUT
10
73.4759
20
119.2617
0
VERTEX
8
CUT
10
74.9836
20
119.8444
0
VERTEX
8
CUT
10
78.1469
20
120.5740
0
VERTEX
8
CUT
10
81.4458
20
120.7378
0
VERTEX
8
CUT
10
84.6460
20
120.3419
0
VERTEX
8
CUT
10
87.3857
20
119.4765
0
VERTEX
8
CUT
10
89.6068
20
118.2003
0
VERTEX
8
CUT
10
89.6179
20
118.1900
0
VERTEX
8
CUT
10
89.6404
20
118.1690
0
VERTEX
8
CUT
10
89.9246
20
117.9052
0
VERTEX
8
CUT
10
90.3055
20
117.5515
0
VERTEX
8
CUT
10
91.4867
20
116.3861
0
VERTEX
8
CUT
10
92.5962
20
114.5525
0
VERTEX
8
CUT
10
92.9284
20
113.0915
0
VERTEX
8
CUT
10
92.8975
20
112.7515
0
VERTEX
8
CUT
10
92.6456
20
111.5876
0
VERTEX
8
CUT
10
92.6351
20
111.5524
0
SEQEND
0
POLYLINE
8
CUT
66
1
70
1
10
0.0
20
0.0
30
0.0
0
VERTEX
8
CUT
10
153.8615
20
140.4875
0
VERTEX
8
CUT
10
153.8615
20
140.4874
0
VERTEX
8
CUT
10
154.4065
20
138.2933
0
VERTEX
8
CUT
10
154.2617
20
136.9533
0
VERTEX
8
CUT
10
153.7918
20
135.9797
0
VERTEX
8
CUT
10
153.3903
20
135.5699
0
VERTEX
8
CUT
10
153.3773
20
135.5610
0
VERTEX
8
CUT
10
153.3654
20
135.5529
0
VERTEX
8
CUT
10
153.3490
20
135.5417
0
VERTEX
8
CUT
10
153.2688
20
135.4869
0
VERTEX
8
CUT
10
151.8826
20
134.8388
0
VERTEX
8
CUT
10
151.6630
20
134.7939
0
VERTEX
8
CUT
10
149.7714
20
134.8870
0
VERTEX
8
CUT
10
142.1148
20
137.0234
0
VERTEX
8
CUT
10
138.2609
20
137.5174
0
VERTEX
8
CUT
10
134.5703
20
137.3879
0
VERTEX
8
CUT
10
132.6129
20
137.0896
0
VERTEX
8
CUT
10
131.1412
20
136.7099
0
VERTEX
8
CUT
10
130.8434
20
136.6621
0
VERTEX
8
CUT
10
130.4967
20
136.5436
0
VERTEX
8
CUT
10
128.5846
20
136.0502
0
VERTEX
8
CUT
10
126.6199
20
135.2985
0
VERTEX
8
CUT
10
122.8686
20
133.3570
0
VERTEX
8
CUT
10
121.2638
20
132.1801
0
VERTEX
8
CUT
10
120.9343
20
131.9782
0
VERTEX
8
CUT
10
120.5748
20
131.6747
0
VERTEX
8
CUT
10
119.4545
20
130.8531
0
VERTEX
8
CUT
10
117.7984
20
129.3616
0
VERTEX
8
CUT
10
117.6648
20
129.2189
0
VERTEX
8
CUT
10
117.6033
20
129.1669
0
VERTEX
8
CUT
10
116.3132
20
127.7747
0
VERTEX
8
CUT
10
112.5303
20
123.7326
0
VERTEX
8
CUT
10
110.0159
20
121.6480
0
VERTEX
8
CUT
10
108.5225
20
120.8856
0
VERTEX
8
CUT
10
106.6302
20
120.3557
0
VERTEX
8
CUT
10
104.6773
20
120.0577
0
VERTEX
8
CUT
10
104.6346
20
120.0577
0
VERTEX
8
CUT
10
104.5388
20
120.0577
0
VERTEX
8
CUT
10
104.3469
20
120.0577
0
VERTEX
8
CUT
10
103.8359
20
120.0577
0
VERTEX
8
CUT
10
102.6956
20
120.0577
0
VERTEX
8
CUT
10
100.8349
20
120.3536
0
VERTEX
8
CUT
10
99.2482
20
120.8890
0
VERTEX
8
CUT
10
98.6095
20
121.2312
0
VERTEX
8
CUT
10
97.8706
20
122.0209
0
VERTEX
8
CUT
10
97.6227
20
123.0266
0
VERTEX
8
CUT
10
97.6987
20
123.7339
0
VERTEX
8
CUT
10
98.2964
20
125.5554
0
VERTEX
8
CUT
10
98.9904
20
126.7936
0
VERTEX
8
CUT
10
100.5636
20
128.8647
0
VERTEX
8
CUT
10
103.9900
20
132.1593
0
VERTEX
8
CUT
10
107.7459
20
134.8609
0
VERTEX
8
CUT
10
111.7983
20
136.9365
0
VERTEX
8
CUT
10
116.0484
20
138.6168
0
VERTEX
8
CUT
10
118.3546
20
139.3086
0
VERTEX
8
CUT
10
123.6260
20
140.5936
0
VERTEX
8
CUT
10
135.9809
20
143.0645
0
VERTEX
8
CUT
10
137.8259
20
143.5917
0
VERTEX
8
CUT
10
137.9821
20
143.7041
0
VERTEX
8
CUT
10
141.2188
20
144.5236
0
VERTEX
8
CUT
10
143.9925
20
144.9199
0
VERTEX
8
CUT
10
145.3320
20
144.9530
0
VERTEX
8
CUT
10
147.7326
20
144.6571
0
VERTEX
8
CUT
10
150.0462
20
143.8441
0
VERTEX
8
CUT
10
151.6910
20
143.0015
0
VERTEX
8
CUT
10
152.8166
20
142.1405
0
VERTEX
8
CUT
10
153.8601
20
140.4909
0
VERTEX
8
CUT
10
153.8612
20
140.4881
0
SEQEND
0
POLYLINE
8
CUT
66
1
70
1
10
0.0
20
0.0
30
0.0
0
VERTEX
8
CUT
10
35.0499
20
224.1671
0
VERTEX
8
CUT
10
34.8828
20
224.3408
0
VERTEX
8
CUT
10
34.7054
20
224.5253
0
VERTEX
8
CUT
10
34.6092
20
224.6253
0
VERTEX
8
CUT
10
34.5536
20
224.6832
0
VERTEX
8
CUT
10
29.0611
20
230.7816
0
VERTEX
8
CUT
10
26.0109
20
235.1984
0
VERTEX
8
CUT
10
25.6716
20
236.0310
0
VERTEX
8
CUT
10
25.4822
20
236.7611
0
VERTEX
8
CUT
10
25.4821
20
237.3920
0
VERTEX
8
CUT
10
25.5465
20
237.6491
0
VERTEX
8
CUT
10
26.0079
20
238.1023
0
VERTEX
8
CUT
10
26.5247
20
238.1908
0
VERTEX
8
CUT
10
27.0671
20
238.0655
0
VERTEX
8
CUT
10
28.5168
20
237.1852
0
VERTEX
8
CUT
10
40.6463
20
226.0444
0
VERTEX
8
CUT
10
46.2030
20
221.2111
0
VERTEX
8
CUT
10
51.5643
20
216.9021
0
VERTEX
8
CUT
10
57.3876
20
212.6249
0
VERTEX
8
CUT
10
65.4657
20
207.1519
0
VERTEX
8
CUT
10
73.8250
20
202.0842
0
VERTEX
8
CUT
10
82.5308
20
197.3535
0
VERTEX
8
CUT
10
91.5982
20
192.9680
0
VERTEX
8
CUT
10
100.9971
20
188.8930
0
VERTEX
8
CUT
10
110.8395
20
185.1399
0
VERTEX
8
CUT
10
121.1583
20
181.7112
0
VERTEX
8
CUT
10
131.8820
20
178.5533
0
VERTEX
8
CUT
10
137.5831
20
177.1036
0
VERTEX
8
CUT
10
139.4176
20
176.7619
0
VERTEX
8
CUT
10
139.7237
20
176.8835
0
VERTEX
8
CUT
10
139.7386
20
177.4013
0
VERTEX
8
CUT
10
138.0713
20
178.6644
0
VERTEX
8
CUT
10
136.2479
20
180.6535
0
VERTEX
8
CUT
10
135.3038
20
182.9751
0
VERTEX
8
CUT
10
134.6212
20
183.3540
0
VERTEX
8
CUT
10
134.5831
20
183.3993
0
VERTEX
8
CUT
10
132.0390
20
184.7876
0
VERTEX
8
CUT
10
124.0895
20
189.2008
0
VERTEX
8
CUT
10
117.9721
20
192.9042
0
VERTEX
8
CUT
10
111.9493
20
196.8865
0
VERTEX
8
CUT
10
106.1117
20
201.0747
0
VERTEX
8
CUT
10
100.5023
20
205.4957
0
VERTEX
8
CUT
10
95.1273
20
210.0459
0
VERTEX
8
CUT
10
90.1116
20
214.7310
0
VERTEX
8
CUT
10
85.4917
20
219.4822
0
VERTEX
8
CUT
10
81.2023
20
224.3319
0
VERTEX
8
CUT
10
77.1630
20
229.4305
0
VERTEX
8
CUT
10
73.4456
20
234.6282
0
VERTEX
8
CUT
10
69.9804
20
240.0067
0
VERTEX
8
CUT
10
66.8452
20
245.4511
0
VERTEX
8
CUT
10
64.0625
20
250.9833
0
VERTEX
8
CUT
10
61.6528
20
256.4977
0
VERTEX
8
CUT
10
59.6410
20
261.9733
0
VERTEX
8
CUT
10
58.1900
20
266.8542
0
VERTEX
8
CUT
10
57.7902
20
269.0806
0
VERTEX
8
CUT
10
57.8604
20
270.5215
0
VERTEX
8
CUT
10
58.0011
20
270.8182
0
VERTEX
8
CUT
10
58.0591
20
270.8923
0
VERTEX
8
CUT
10
58.1004
20
270.9451
0
VERTEX
8
CUT
10
58.1497
20
271.0081
0
VERTEX
8
CUT
10
58.1803
20
271.0472
0
VERTEX
8
CUT
10
58.5547
20
271.3100
0
VERTEX
8
CUT
10
59.1000
20
271.3187
0
VERTEX
8
CUT
10
59.1732
20
271.3111
0
VERTEX
8
CUT
10
59.1827
20
271.3101
0
VERTEX
8
CUT
10
59.1925
20
271.3091
0
VERTEX
8
CUT
10
59.2174
20
271.3065
0
VERTEX
8
CUT
10
59.7770
20
270.9264
0
VERTEX
8
CUT
10
60.8537
20
269.4377
0
VERTEX
8
CUT
10
61.2218
20
268.7743
0
VERTEX
8
CUT
10
66.4594
20
257.5379
0
VERTEX
8
CUT
10
69.4780
20
251.7303
0
VERTEX
8
CUT
10
72.7014
20
246.1052
0
VERTEX
8
CUT
10
76.1656
20
240.6616
0
VERTEX
8
CUT
10
79.9151
20
235.3999
0
VERTEX
8
CUT
10
83.9510
20
230.2483
0
VERTEX
8
CUT
10
88.2723
20
225.2014
0
VERTEX
8
CUT
10
92.9334
20
220.2449
0
VERTEX
8
CUT
10
97.7154
20
215.5288
0
VERTEX
8
CUT
10
102.6522
20
211.0205
0
VERTEX
8
CUT
10
103.2610
20
210.5304
0
VERTEX
8
CUT
10
103.4384
20
210.3653
0
VERTEX
8
CUT
10
111.3597
20
203.9888
0
VERTEX
8
CUT
10
111.6630
20
203.7672
0
VERTEX
8
CUT
10
113.1162
20
202.5974
0
VERTEX
8
CUT
10
118.6442
20
198.6492
0
VERTEX
8
CUT
10
124.4360
20
194.8321
0
VERTEX
8
CUT
10
130.5136
20
191.1199
0
VERTEX
8
CUT
10
138.5867
20
186.6054
0
VERTEX
8
CUT
10
142.8989
20
184.5089
0
VERTEX
8
CUT
10
143.3930
20
184.6780
0
VERTEX
8
CUT
10
143.3330
20
185.1372
0
VERTEX
8
CUT
10
131.2541
20
197.4902
0
VERTEX
8
CUT
10
129.5416
20
199.3740
0
VERTEX
8
CUT
10
127.1490
20
202.1699
0
VERTEX
8
CUT
10
126.9825
20
202.3813
0
VERTEX
8
CUT
10
126.7298
20
202.7021
0
VERTEX
8
CUT
10
126.7160
20
202.7196
0
VERTEX
8
CUT
10
126.6215
20
202.8397
0
VERTEX
8
CUT
10
123.8220
20
206.6220
0
VERTEX
8
CUT
10
120.0532
20
212.5383
0
VERTEX
8
CUT
10
117.1709
20
218.0066
0
VERTEX
8
CUT
10
115.7759
20
221.7716
0
VERTEX
8
CUT
10
115.7478
20
223.1138
0
VERTEX
8
CUT
10
116.1804
20
223.4296
0
VERTEX
8
CUT
10
116.6599
20
223.2378
0
VERTEX
8
CUT
10
117.7918
20
221.9725
0
VERTEX
8
CUT
10
122.8047
20
214.6524
0
VERTEX
8
CUT
10
126.2267
20
210.0125
0
VERTEX
8
CUT
10
129.7456
20
205.5724
0
VERTEX
8
CUT
10
133.3737
20
201.3832
0
VERTEX
8
CUT
10
136.9815
20
197.4475
0
VERTEX
8
CUT
10
140.6449
20
193.8500
0
VERTEX
8
CUT
10
144.2624
20
190.6280
0
VERTEX
8
CUT
10
148.9552
20
187.0069
0
VERTEX
8
CUT
10
149.3889
20
187.0044
0
VERTEX
8
CUT
10
149.5469
20
187.4418
0
VERTEX
8
CUT
10
148.4376
20
189.1437
0
VERTEX
8
CUT
10
148.0286
20
190.4289
0
VERTEX
8
CUT
10
148.5089
20
190.9406
0
VERTEX
8
CUT
10
149.4062
20
191.3366
0
VERTEX
8
CUT
10
152.3892
20
191.6357
0
VERTEX
8
CUT
10
152.4962
20
191.6351
0
VERTEX
8
CUT
10
152.5492
20
191.6348
0
VERTEX
8
CUT
10
152.5547
20
191.6348
0
VERTEX
8
CUT
10
152.5765
20
191.6347
0
VERTEX
8
CUT
10
156.5137
20
191.5076
0
VERTEX
8
CUT
10
162.8810
20
190.4482
0
VERTEX
8
CUT
10
163.2438
20
190.3614
0
VERTEX
8
CUT
10
163.3091
20
190.3458
0
VERTEX
8
CUT
10
163.3184
20
190.3436
0
VERTEX
8
CUT
10
163.3204
20
190.3431
0
VERTEX
8
CUT
10
166.8102
20
189.3200
0
VERTEX
8
CUT
10
166.8114
20
189.3196
0
VERTEX
8
CUT
10
166.8188
20
189.3173
0
VERTEX
8
CUT
10
166.8298
20
189.3138
0
VERTEX
8
CUT
10
166.9603
20
189.2729
0
VERTEX
8
CUT
10
174.9579
20
186.0132
0
VERTEX
8
CUT
10
181.8454
20
182.2960
0
VERTEX
8
CUT
10
185.5048
20
179.9590
0
VERTEX
8
CUT
10
185.6738
20
179.8475
0
VERTEX
8
CUT
10
186.4840
20
179.2100
0
VERTEX
8
CUT
10
189.0598
20
176.9764
0
VERTEX
8
CUT
10
189.1941
20
176.8401
0
VERTEX
8
CUT
10
190.9400
20
174.8277
0
VERTEX
8
CUT
10
191.5134
20
174.0055
0
VERTEX
8
CUT
10
192.4707
20
172.2235
0
VERTEX
8
CUT
10
193.1067
20
170.3909
0
VERTEX
8
CUT
10
193.2342
20
169.6241
0
VERTEX
8
CUT
10
193.2771
20
169.1622
0
VERTEX
8
CUT
10
193.2982
20
168.9344
0
VERTEX
8
CUT
10
193.3184
20
168.7168
0
VERTEX
8
CUT
10
193.3935
20
167.9063
0
VERTEX
8
CUT
10
193.3470
20
166.5141
0
VERTEX
8
CUT
10
193.3083
20
166.2231
0
VERTEX
8
CUT
10
193.1843
20
165.8704
0
VERTEX
8
CUT
10
189.8480
20
158.4119
0
VERTEX
8
CUT
10
188.9087
20
156.8843
0
VERTEX
8
CUT
10
187.0618
20
155.3177
0
VERTEX
8
CUT
10
187.0084
20
155.2823
0
VERTEX
8
CUT
10
182.3530
20
153.3152
0
VERTEX
8
CUT
10
182.1968
20
153.2250
0
VERTEX
8
CUT
10
181.7595
20
153.0505
0
VERTEX
8
CUT
10
179.6977
20
151.7851
0
VERTEX
8
CUT
10
179.3541
20
151.3587
0
VERTEX
8
CUT
10
179.0657
20
151.0729
0
VERTEX
8
CUT
10
179.0852
20
150.9848
0
VERTEX
8
CUT
10
178.7643
20
150.3619
0
VERTEX
8
CUT
10
178.7479
20
149.6405
0
VERTEX
8
CUT
10
179.0494
20
149.1615
0
VERTEX
8
CUT
10
180.8096
20
148.6059
0
VERTEX
8
CUT
10
183.3063
20
146.1154
0
VERTEX
8
CUT
10
185.9147
20
144.3772
0
VERTEX
8
CUT
10
187.8183
20
143.5914
0
VERTEX
8
CUT
10
190.1039
20
143.2428
0
VERTEX
8
CUT
10
193.8237
20
143.5012
0
VERTEX
8
CUT
10
197.5187
20
144.1309
0
VERTEX
8
CUT
10
203.8523
20
144.0647
0
VERTEX
8
CUT
10
207.1545
20
145.2181
0
VERTEX
8
CUT
10
207.5769
20
144.9670
0
VERTEX
8
CUT
10
207.3394
20
143.7338
0
VERTEX
8
CUT
10
207.7702
20
143.3823
0
VERTEX
8
CUT
10
209.1775
20
145.1625
0
VERTEX
8
CUT
10
211.0743
20
146.2523
0
VERTEX
8
CUT
10
213.9227
20
147.0961
0
VERTEX
8
CUT
10
216.1164
20
146.9505
0
VERTEX
8
CUT
10
218.5727
20
146.0524
0
VERTEX
8
CUT
10
221.3202
20
144.5680
0
VERTEX
8
CUT
10
221.3448
20
144.5471
0
VERTEX
8
CUT
10
221.4428
20
144.5017
0
VERTEX
8
CUT
10
221.4522
20
144.4967
0
VERTEX
8
CUT
10
231.6131
20
137.4375
0
VERTEX
8
CUT
10
233.3527
20
135.7921
0
VERTEX
8
CUT
10
234.2385
20
133.4280
0
VERTEX
8
CUT
10
234.2682
20
131.2984
0
VERTEX
8
CUT
10
233.5645
20
129.7300
0
VERTEX
8
CUT
10
233.4252
20
129.5827
0
VERTEX
8
CUT
10
233.3624
20
129.5162
0
VERTEX
8
CUT
10
233.1844
20
129.3280
0
VERTEX
8
CUT
10
232.9816
20
129.1135
0
VERTEX
8
CUT
10
232.4717
20
128.6832
0
VERTEX
8
CUT
10
231.9166
20
128.2752
0
VERTEX
8
CUT
10
230.4917
20
127.4216
0
VERTEX
8
CUT
10
228.8321
20
126.7573
0
VERTEX
8
CUT
10
228.2578
20
126.7002
0
VERTEX
8
CUT
10
228.0384
20
126.6811
0
VERTEX
8
CUT
10
227.7842
20
126.6590
0
VERTEX
8
CUT
10
227.7198
20
126.6534
0
VERTEX
8
CUT
10
227.4521
20
126.6300
0
VERTEX
8
CUT
10
226.3152
20
127.0354
0
VERTEX
8
CUT
10
225.3927
20
127.7631
0
VERTEX
8
CUT
10
225.2896
20
127.8979
0
VERTEX
8
CUT
10
225.2865
20
127.9020
0
VERTEX
8
CUT
10
225.2750
20
127.9170
0
VERTEX
8
CUT
10
225.2640
20
127.9313
0
VERTEX
8
CUT
10
224.7275
20
128.7567
0
VERTEX
8
CUT
10
224.4453
20
129.4260
0
VERTEX
8
CUT
10
223.4504
20
132.1609
0
VERTEX
8
CUT
10
221.9462
20
135.2270
0
VERTEX
8
CUT
10
220.0886
20
137.6647
0
VERTEX
8
CUT
10
217.9216
20
139.4813
0
VERTEX
8
CUT
10
216.0391
20
140.5068
0
VERTEX
8
CUT
10
214.4453
20
140.9762
0
VERTEX
8
CUT
10
213.8389
20
140.9857
0
VERTEX
8
CUT
10
213.7411
20
141.0113
0
VERTEX
8
CUT
10
213.2453
20
141.0156
0
VERTEX
8
CUT
10
212.5431
20
141.1436
0
VERTEX
8
CUT
10
210.4346
20
141.1428
0
VERTEX
8
CUT
10
209.7508
20
141.0495
0
VERTEX
8
CUT
10
205.9677
20
141.1086
0
VERTEX
8
CUT
10
205.6742
20
140.9752
0
VERTEX
8
CUT
10
204.5598
20
139.6963
0
VERTEX
8
CUT
10
204.5092
20
139.6711
0
VERTEX
8
CUT
10
204.3578
20
139.4646
0
VERTEX
8
CUT
10
201.5949
20
136.2941
0
VERTEX
8
CUT
10
198.9988
20
132.9248
0
VERTEX
8
CUT
10
197.9268
20
128.2984
0
VERTEX
8
CUT
10
197.8970
20
128.2043
0
VERTEX
8
CUT
10
197.8888
20
128.1342
0
VERTEX
8
CUT
10
197.4082
20
126.0599
0
VERTEX
8
CUT
10
197.2428
20
123.8188
0
VERTEX
8
CUT
10
197.4045
20
121.5174
0
VERTEX
8
CUT
10
197.8139
20
119.8409
0
VERTEX
8
CUT
10
197.8842
20
119.2686
0
VERTEX
8
CUT
10
198.7316
20
117.3520
0
VERTEX
8
CUT
10
198.8455
20
117.0747
0
VERTEX
8
CUT
10
198.9531
20
116.8810
0
VERTEX
8
CUT
10
199.0375
20
116.6560
0
VERTEX
8
CUT
10
199.2704
20
116.3098
0
VERTEX
8
CUT
10
199.9578
20
115.0726
0
VERTEX
8
CUT
10
201.4197
20
113.2126
0
VERTEX
8
CUT
10
203.1279
20
111.5668
0
VERTEX
8
CUT
10
203.6179
20
111.2612
0
VERTEX
8
CUT
10
203.6964
20
111.1894
0
VERTEX
8
CUT
10
204.8971
20
110.4634
0
VERTEX
8
CUT
10
206.5313
20
109.4442
0
VERTEX
8
CUT
10
208.1183
20
108.8645
0
VERTEX
8
CUT
10
208.6142
20
108.7770
0
VERTEX
8
CUT
10
208.7143
20
108.7360
0
VERTEX
8
CUT
10
208.9031
20
108.7261
0
VERTEX
8
CUT
10
209.4109
20
108.6365
0
VERTEX
8
CUT
10
210.2526
20
108.4469
0
VERTEX
8
CUT
10
210.5157
20
108.4416
0
VERTEX
8
CUT
10
211.5946
20
108.2513
0
VERTEX
8
CUT
10
211.9401
20
108.2545
0
VERTEX
8
CUT
10
211.9880
20
108.2403
0
VERTEX
8
CUT
10
212.0976
20
108.2559
0
VERTEX
8
CUT
10
215.4780
20
108.2871
0
VERTEX
8
CUT
10
217.8383
20
108.7389
0
VERTEX
8
CUT
10
218.3865
20
108.8115
0
VERTEX
8
CUT
10
220.4198
20
109.2331
0
VERTEX
8
CUT
10
223.7136
20
109.8636
0
VERTEX
8
CUT
10
225.9155
20
109.8327
0
VERTEX
8
CUT
10
226.9791
20
109.3149
0
VERTEX
8
CUT
10
227.9773
20
108.4607
0
VERTEX
8
CUT
10
228.6364
20
106.9453
0
VERTEX
8
CUT
10
228.2331
20
105.1788
0
VERTEX
8
CUT
10
227.2155
20
103.5352
0
VERTEX
8
CUT
10
225.8266
20
102.1810
0
VERTEX
8
CUT
10
224.1391
20
101.0215
0
VERTEX
8
CUT
10
222.1414
20
100.1034
0
VERTEX
8
CUT
10
219.9460
20
99.4978
0
VERTEX
8
CUT
10
217.6440
20
99.1681
0
VERTEX
8
CUT
10
215.3353
20
99.2056
0
VERTEX
8
CUT
10
209.6008
20
100.2548
0
VERTEX
8
CUT
10
209.0577
20
100.1357
0
VERTEX
8
CUT
10
209.1296
20
98.7672
0
VERTEX
8
CUT
10
211.1393
20
93.9182
0
VERTEX
8
CUT
10
211.4375
20
92.3279
0
VERTEX
8
CUT
10
211.4352
20
90.7655
0
VERTEX
8
CUT
10
210.8084
20
88.2913
0
VERTEX
8
CUT
10
210.0894
20
86.5473
0
VERTEX
8
CUT
10
208.2548
20
83.5199
0
VERTEX
8
CUT
10
207.2923
20
82.3606
0
VERTEX
8
CUT
10
206.3963
20
81.6286
0
VERTEX
8
CUT
10
205.4838
20
81.3168
0
VERTEX
8
CUT
10
204.8691
20
81.6567
0
VERTEX
8
CUT
10
204.7331
20
81.9705
0
VERTEX
8
CUT
10
205.1340
20
83.9698
0
VERTEX
8
CUT
10
204.3663
20
90.1641
0
VERTEX
8
CUT
10
203.5140
20
95.5738
0
VERTEX
8
CUT
10
202.5244
20
99.5572
0
VERTEX
8
CUT
10
200.7362
20
102.9292
0
VERTEX
8
CUT
10
198.1346
20
106.3402
0
VERTEX
8
CUT
10
198.1261
20
106.3526
0
VERTEX
8
CUT
10
198.1221
20
106.3566
0
VERTEX
8
CUT
10
197.3801
20
107.3293
0
VERTEX
8
CUT
10
197.2281
20
107.6472
0
VERTEX
8
CUT
10
197.0819
20
107.7203
0
VERTEX
8
CUT
10
196.9515
20
107.8913
0
VERTEX
8
CUT
10
196.7076
20
107.9075
0
VERTEX
8
CUT
10
196.5033
20
108.0096
0
VERTEX
8
CUT
10
196.4804
20
107.7659
0
VERTEX
8
CUT
10
196.3555
20
107.5830
0
VERTEX
8
CUT
10
196.4233
20
107.1566
0
VERTEX
8
CUT
10
196.4044
20
106.9554
0
VERTEX
8
CUT
10
196.5920
20
106.0956
0
VERTEX
8
CUT
10
196.7226
20
105.2744
0
VERTEX
8
CUT
10
197.0163
20
100.5007
0
VERTEX
8
CUT
10
196.6464
20
96.2611
0
VERTEX
8
CUT
10
196.1170
20
93.9703
0
VERTEX
8
CUT
10
195.3880
20
91.8758
0
VERTEX
8
CUT
10
194.4403
20
90.0413
0
VERTEX
8
CUT
10
193.3308
20
88.5625
0
VERTEX
8
CUT
10
192.0908
20
87.6190
0
VERTEX
8
CUT
10
190.7117
20
87.3820
0
VERTEX
8
CUT
10
189.5672
20
87.8373
0
VERTEX
8
CUT
10
188.5519
20
88.8865
0
VERTEX
8
CUT
10
187.7746
20
90.4080
0
VERTEX
8
CUT
10
187.2698
20
92.3560
0
VERTEX
8
CUT
10
187.0359
20
94.6282
0
VERTEX
8
CUT
10
187.1733
20
97.1887
0
VERTEX
8
CUT
10
190.0710
20
109.2435
0
VERTEX
8
CUT
10
190.7017
20
119.8997
0
VERTEX
8
CUT
10
191.4277
20
122.2419
0
VERTEX
8
CUT
10
192.4569
20
124.4366
0
VERTEX
8
CUT
10
193.8610
20
126.8113
0
VERTEX
8
CUT
10
196.2993
20
130.2661
0
VERTEX
8
CUT
10
196.1542
20
130.7966
0
VERTEX
8
CUT
10
195.7544
20
130.7891
0
VERTEX
8
CUT
10
192.9910
20
128.8519
0
VERTEX
8
CUT
10
190.1844
20
127.2337
0
VERTEX
8
CUT
10
187.1514
20
125.8906
0
VERTEX
8
CUT
10
185.3836
20
125.6573
0
VERTEX
8
CUT
10
183.2768
20
125.6948
0
VERTEX
8
CUT
10
181.0613
20
126.2243
0
VERTEX
8
CUT
10
180.0817
20
126.7446
0
VERTEX
8
CUT
10
178.4660
20
128.2295
0
VERTEX
8
CUT
10
177.7955
20
129.2080
0
VERTEX
8
CUT
10
176.8364
20
131.3579
0
VERTEX
8
CUT
10
176.6245
20
133.0540
0
VERTEX
8
CUT
10
176.6946
20
139.8796
0
VERTEX
8
CUT
10
176.1955
20
141.5287
0
VERTEX
8
CUT
10
175.2097
20
142.9401
0
VERTEX
8
CUT
10
173.5662
20
144.3090
0
VERTEX
8
CUT
10
173.0872
20
144.4691
0
VERTEX
8
CUT
10
171.3117
20
144.4226
0
VERTEX
8
CUT
10
169.5887
20
145.9553
0
VERTEX
8
CUT
10
160.0976
20
149.1250
0
VERTEX
8
CUT
10
156.3064
20
151.1502
0
VERTEX
8
CUT
10
152.5723
20
153.9501
0
VERTEX
8
CUT
10
144.2233
20
161.8074
0
VERTEX
8
CUT
10
141.1837
20
163.8823
0
VERTEX
8
CUT
10
122.2889
20
164.6661
0
VERTEX
8
CUT
10
105.1204
20
166.4126
0
VERTEX
8
CUT
10
99.2748
20
167.2383
0
VERTEX
8
CUT
10
87.3174
20
169.3135
0
VERTEX
8
CUT
10
79.8186
20
170.8663
0
VERTEX
8
CUT
10
72.3015
20
172.7458
0
VERTEX
8
CUT
10
64.8483
20
174.8567
0
VERTEX
8
CUT
10
57.4606
20
177.2316
0
VERTEX
8
CUT
10
43.0973
20
182.7002
0
VERTEX
8
CUT
10
36.2360
20
185.7676
0
VERTEX
8
CUT
10
26.4715
20
190.6824
0
VERTEX
8
CUT
10
21.3091
20
193.6939
0
VERTEX
8
CUT
10
17.8196
20
196.0639
0
VERTEX
8
CUT
10
16.7500
20
196.9973
0
VERTEX
8
CUT
10
16.1625
20
197.8002
0
VERTEX
8
CUT
10
16.1794
20
198.3834
0
VERTEX
8
CUT
10
16.5776
20
198.7932
0
VERTEX
8
CUT
10
17.0706
20
198.9530
0
VERTEX
8
CUT
10
19.4367
20
198.4412
0
VERTEX
8
CUT
10
33.6045
20
192.2469
0
VERTEX
8
CUT
10
44.5920
20
187.7071
0
VERTEX
8
CUT
10
54.7131
20
183.9489
0
VERTEX
8
CUT
10
64.9507
20
180.6244
0
VERTEX
8
CUT
10
75.3391
20
177.6657
0
VERTEX
8
CUT
10
85.9218
20
175.1271
0
VERTEX
8
CUT
10
96.7205
20
172.9544
0
VERTEX
8
CUT
10
107.7364
20
171.1458
0
VERTEX
8
CUT
10
119.0640
20
169.6967
0
VERTEX
8
CUT
10
134.4477
20
168.5107
0
VERTEX
8
CUT
10
137.8689
20
168.3799
0
VERTEX
8
CUT
10
139.2020
20
168.5657
0
VERTEX
8
CUT
10
139.2875
20
168.8551
0
VERTEX
8
CUT
10
139.1092
20
169.1410
0
VERTEX
8
CUT
10
137.6868
20
169.6684
0
VERTEX
8
CUT
10
136.2421
20
170.5128
0
VERTEX
8
CUT
10
134.5246
20
172.6184
0
VERTEX
8
CUT
10
134.3784
20
172.8563
0
VERTEX
8
CUT
10
134.2834
20
172.9141
0
VERTEX
8
CUT
10
134.2092
20
173.0052
0
VERTEX
8
CUT
10
133.4319
20
173.5560
0
VERTEX
8
CUT
10
130.0296
20
174.2267
0
VERTEX
8
CUT
10
120.1376
20
176.8977
0
VERTEX
8
CUT
10
109.0353
20
180.3239
0
VERTEX
8
CUT
10
101.2747
20
183.0649
0
VERTEX
8
CUT
10
93.8018
20
185.9948
0
VERTEX
8
CUT
10
86.5810
20
189.0939
0
VERTEX
8
CUT
10
79.5886
20
192.4249
0
VERTEX
8
CUT
10
72.8283
20
195.9531
0
VERTEX
8
CUT
10
66.3293
20
199.7135
0
VERTEX
8
CUT
10
59.9834
20
203.7128
0
VERTEX
8
CUT
10
53.8622
20
207.9253
0
VERTEX
8
CUT
10
49.9330
20
210.8964
0
VERTEX
8
CUT
10
47.6533
20
212.7428
0
VERTEX
8
CUT
10
46.9512
20
213.3355
0
VERTEX
8
CUT
10
46.0818
20
214.0695
0
VERTEX
8
CUT
10
46.0252
20
214.1173
0
VERTEX
8
CUT
10
44.8004
20
215.1513
0
VERTEX
8
CUT
10
38.6473
20
220.6679
0
VERTEX
8
CUT
10
38.5209
20
220.7877
0
VERTEX
8
CUT
10
38.4927
20
220.8145
0
VERTEX
8
CUT
10
38.3211
20
220.9772
0
VERTEX
8
CUT
10
37.7208
20
221.5464
0
SEQEND
0
POLYLINE
8
CUT
66
1
70
1
10
0.0
20
0.0
30
0.0
0
VERTEX
8
CUT
10
168.5318
20
167.6754
0
VERTEX
8
CUT
10
169.1249
20
167.2801
0
VERTEX
8
CUT
10
169.6850
20
167.1812
0
VERTEX
8
CUT
10
169.6888
20
167.1829
0
VERTEX
8
CUT
10
169.8477
20
167.1512
0
VERTEX
8
CUT
10
170.0645
20
167.3473
0
VERTEX
8
CUT
10
170.2121
20
167.4118
0
VERTEX
8
CUT
10
170.4041
20
167.6544
0
VERTEX
8
CUT
10
170.4253
20
167.6735
0
VERTEX
8
CUT
10
170.4283
20
167.6747
0
VERTEX
8
CUT
10
170.4320
20
167.6796
0
VERTEX
8
CUT
10
171.0889
20
168.2736
0
VERTEX
8
CUT
10
171.2594
20
168.9831
0
VERTEX
8
CUT
10
170.3254
20
170.1932
0
VERTEX
8
CUT
10
169.7850
20
170.5031
0
VERTEX
8
CUT
10
169.2354
20
170.5307
0
VERTEX
8
CUT
10
168.1238
20
169.7089
0
VERTEX
8
CUT
10
167.8887
20
169.0502
0
VERTEX
8
CUT
10
167.8869
20
169.0474
0
VERTEX
8
CUT
10
167.8871
20
169.0459
0
VERTEX
8
CUT
10
167.8367
20
168.9045
0
VERTEX
8
CUT
10
167.9507
20
168.6849
0
VERTEX
8
CUT
10
167.9753
20
168.5453
0
VERTEX
8
CUT
10
168.1368
20
168.3266
0
VERTEX
8
CUT
10
168.2331
20
168.1412
0
VERTEX
8
CUT
10
168.2795
20
168.0959
0
SEQEND
0
POLYLINE
8
CUT
66
1
70
1
10
0.0
20
0.0
30
0.0
0
VERTEX
8
CUT
10
167.6888
20
161.1988
0
VERTEX
8
CUT
10
167.2533
20
161.4556
0
VERTEX
8
CUT
10
165.9972
20
161.5266
0
VERTEX
8
CUT
10
165.2144
20
160.9150
0
VERTEX
8
CUT
10
164.9155
20
160.2444
0
VERTEX
8
CUT
10
164.9698
20
159.8245
0
VERTEX
8
CUT
10
165.5570
20
159.2621
0
VERTEX
8
CUT
10
165.7686
20
159.0027
0
VERTEX
8
CUT
10
165.9279
20
158.9069
0
VERTEX
8
CUT
10
166.1201
20
158.7229
0
VERTEX
8
CUT
10
166.3619
20
158.6461
0
VERTEX
8
CUT
10
166.4193
20
158.6115
0
VERTEX
8
CUT
10
166.4572
20
158.6158
0
VERTEX
8
CUT
10
166.7119
20
158.5349
0
VERTEX
8
CUT
10
167.2796
20
158.6298
0
VERTEX
8
CUT
10
167.8635
20
159.0405
0
VERTEX
8
CUT
10
168.1580
20
159.5021
0
VERTEX
8
CUT
10
168.1895
20
160.4743
0
SEQEND
0
POLYLINE
8
CUT
66
1
70
1
10
0.0
20
0.0
30
0.0
0
VERTEX
8
CUT
10
160.7341
20
172.1822
0
VERTEX
8
CUT
10
160.1296
20
172.2067
0
VERTEX
8
CUT
10
159.5053
20
171.9012
0
VERTEX
8
CUT
10
158.7596
20
171.1626
0
VERTEX
8
CUT
10
158.5763
20
170.6761
0
VERTEX
8
CUT
10
158.6436
20
170.2307
0
VERTEX
8
CUT
10
159.3325
20
169.4658
0
VERTEX
8
CUT
10
159.3380
20
169.4646
0
VERTEX
8
CUT
10
159.4716
20
169.2898
0
VERTEX
8
CUT
10
160.2953
20
168.8944
0
VERTEX
8
CUT
10
160.8224
20
168.8615
0
VERTEX
8
CUT
10
161.8437
20
169.3227
0
VERTEX
8
CUT
10
161.9281
20
169.5759
0
VERTEX
8
CUT
10
161.9351
20
169.5789
0
VERTEX
8
CUT
10
162.3933
20
170.2358
0
VERTEX
8
CUT
10
162.3786
20
170.6196
0
VERTEX
8
CUT
10
161.3861
20
171.8557
0
SEQEND
0
POLYLINE
8
CUT
66
1
70
1
10
0.0
20
0.0
30
0.0
0
VERTEX
8
CUT
10
159.0381
20
182.0459
0
VERTEX
8
CUT
10
158.3546
20
182.0702
0
VERTEX
8
CUT
10
157.7571
20
181.7472
0
VERTEX
8
CUT
10
157.0875
20
180.9824
0
VERTEX
8
CUT
10
156.9296
20
180.5363
0
VERTEX
8
CUT
10
157.0557
20
180.0688
0
VERTEX
8
CUT
10
157.7699
20
179.4003
0
VERTEX
8
CUT
10
157.7584
20
179.2396
0
VERTEX
8
CUT
10
157.9561
20
179.0090
0
VERTEX
8
CUT
10
158.9774
20
178.7454
0
VERTEX
8
CUT
10
159.9988
20
179.2066
0
VERTEX
8
CUT
10
160.0280
20
179.2568
0
VERTEX
8
CUT
10
160.0463
20
179.2629
0
VERTEX
8
CUT
10
160.5498
20
179.9872
0
VERTEX
8
CUT
10
160.6380
20
180.4756
0
VERTEX
8
CUT
10
160.1651
20
181.3368
0
VERTEX
8
CUT
10
159.6121
20
181.7696
0
SEQEND
0
POLYLINE
8
CUT
66
1
70
1
10
0.0
20
0.0
30
0.0
0
VERTEX
8
CUT
10
159.4085
20
161.5511
0
VERTEX
8
CUT
10
159.0785
20
162.1689
0
VERTEX
8
CUT
10
158.2367
20
162.8411
0
VERTEX
8
CUT
10
157.2286
20
162.9884
0
VERTEX
8
CUT
10
155.9743
20
162.1959
0
VERTEX
8
CUT
10
155.6439
20
161.6081
0
VERTEX
8
CUT
10
155.6697
20
161.0423
0
VERTEX
8
CUT
10
156.3674
20
160.2408
0
VERTEX
8
CUT
10
156.7035
20
160.1628
0
VERTEX
8
CUT
10
156.9182
20
160.0005
0
VERTEX
8
CUT
10
157.3953
20
159.8892
0
VERTEX
8
CUT
10
157.4437
20
159.8990
0
VERTEX
8
CUT
10
157.5606
20
159.8463
0
VERTEX
8
CUT
10
157.8177
20
159.9040
0
VERTEX
8
CUT
10
157.9021
20
159.8844
0
VERTEX
8
CUT
10
158.5100
20
160.0409
0
VERTEX
8
CUT
10
159.1064
20
160.4904
0
VERTEX
8
CUT
10
159.4328
20
161.0808
0
SEQEND
0
POLYLINE
8
CUT
66
1
70
1
10
0.0
20
0.0
30
0.0
0
VERTEX
8
CUT
10
150.9938
20
170.7114
0
VERTEX
8
CUT
10
151.1841
20
170.7283
0
VERTEX
8
CUT
10
151.1953
20
170.7215
0
VERTEX
8
CUT
10
151.2606
20
170.7334
0
VERTEX
8
CUT
10
151.2954
20
170.7231
0
VERTEX
8
CUT
10
151.4646
20
170.7532
0
VERTEX
8
CUT
10
151.7679
20
170.7802
0
VERTEX
8
CUT
10
151.8181
20
170.8162
0
VERTEX
8
CUT
10
151.9459
20
170.8390
0
VERTEX
8
CUT
10
152.5780
20
171.2646
0
VERTEX
8
CUT
10
152.6793
20
171.4346
0
VERTEX
8
CUT
10
152.8346
20
171.5462
0
VERTEX
8
CUT
10
153.0595
20
172.0728
0
VERTEX
8
CUT
10
153.2232
20
172.3475
0
VERTEX
8
CUT
10
153.1879
20
172.4055
0
VERTEX
8
CUT
10
153.0238
20
173.0428
0
VERTEX
8
CUT
10
152.5946
20
173.5931
0
VERTEX
8
CUT
10
151.9336
20
174.0712
0
VERTEX
8
CUT
10
151.2680
20
174.2172
0
VERTEX
8
CUT
10
150.6023
20
174.0712
0
VERTEX
8
CUT
10
149.9643
20
173.6168
0
VERTEX
8
CUT
10
149.5122
20
173.0428
0
VERTEX
8
CUT
10
149.3461
20
172.4526
0
VERTEX
8
CUT
10
149.5122
20
171.8624
0
VERTEX
8
CUT
10
149.9413
20
171.3122
0
VERTEX
8
CUT
10
150.5873
20
170.9434
0
VERTEX
8
CUT
10
150.6083
20
170.9274
0
VERTEX
8
CUT
10
150.6233
20
170.9229
0
SEQEND
0
POLYLINE
8
CUT
66
1
70
1
10
0.0
20
0.0
30
0.0
0
VERTEX
8
CUT
10
209.1455
20
192.3922
0
VERTEX
8
CUT
10
209.2616
20
192.4328
0
VERTEX
8
CUT
10
209.2891
20
192.4424
0
VERTEX
8
CUT
10
209.7978
20
192.6201
0
VERTEX
8
CUT
10
210.2400
20
192.7008
0
VERTEX
8
CUT
10
210.4343
20
192.7128
0
VERTEX
8
CUT
10
210.4586
20
192.7143
0
VERTEX
8
CUT
10
210.5046
20
192.7172
0
VERTEX
8
CUT
10
210.5220
20
192.7182
0
VERTEX
8
CUT
10
211.9493
20
192.6316
0
VERTEX
8
CUT
10
212.0040
20
192.6227
0
VERTEX
8
CUT
10
212.0090
20
192.6219
0
VERTEX
8
CUT
10
212.0090
20
192.6218
0
VERTEX
8
CUT
10
212.9887
20
192.4619
0
VERTEX
8
CUT
10
214.7575
20
191.8419
0
VERTEX
8
CUT
10
214.7999
20
191.8227
0
VERTEX
8
CUT
10
215.4274
20
191.4456
0
VERTEX
8
CUT
10
216.3371
20
190.8042
0
VERTEX
8
CUT
10
216.3970
20
190.7505
0
VERTEX
8
CUT
10
218.2058
20
188.9557
0
VERTEX
8
CUT
10
217.9719
20
185.7613
0
VERTEX
8
CUT
10
218.1861
20
185.4549
0
VERTEX
8
CUT
10
218.5596
20
185.4698
0
VERTEX
8
CUT
10
225.3721
20
190.0177
0
VERTEX
8
CUT
10
231.6582
20
194.6251
0
VERTEX
8
CUT
10
235.5496
20
197.6592
0
VERTEX
8
CUT
10
242.8794
20
203.8715
0
VERTEX
8
CUT
10
245.5257
20
206.4080
0
VERTEX
8
CUT
10
246.6747
20
207.4356
0
VERTEX
8
CUT
10
247.9289
20
208.6583
0
VERTEX
8
CUT
10
249.5014
20
210.0979
0
VERTEX
8
CUT
10
252.0120
20
212.6225
0
VERTEX
8
CUT
10
252.9918
20
213.5555
0
VERTEX
8
CUT
10
253.0826
20
213.6515
0
VERTEX
8
CUT
10
254.0067
20
214.5373
0
VERTEX
8
CUT
10
264.2637
20
225.3872
0
VERTEX
8
CUT
10
265.4126
20
226.4151
0
VERTEX
8
CUT
10
265.4931
20
226.4718
0
VERTEX
8
CUT
10
265.5049
20
226.4801
0
VERTEX
8
CUT
10
265.5409
20
226.5054
0
VERTEX
8
CUT
10
265.7387
20
226.6448
0
VERTEX
8
CUT
10
266.2738
20
226.9174
0
VERTEX
8
CUT
10
266.8439
20
226.7062
0
VERTEX
8
CUT
10
266.9824
20
226.4520
0
VERTEX
8
CUT
10
266.9967
20
226.4256
0
VERTEX
8
CUT
10
266.9971
20
226.4250
0
VERTEX
8
CUT
10
266.9979
20
226.4236
0
VERTEX
8
CUT
10
266.9983
20
226.4162
0
VERTEX
8
CUT
10
267.0086
20
225.7655
0
VERTEX
8
CUT
10
264.9859
20
221.8060
0
VERTEX
8
CUT
10
262.1068
20
217.5822
0
VERTEX
8
CUT
10
262.0114
20
217.4505
0
VERTEX
8
CUT
10
261.8081
20
217.1701
0
VERTEX
8
CUT
10
261.1796
20
216.3027
0
VERTEX
8
CUT
10
260.3672
20
215.1817
0
VERTEX
8
CUT
10
256.6269
20
210.5710
0
VERTEX
8
CUT
10
255.1485
20
208.9395
0
VERTEX
8
CUT
10
249.2982
20
202.8014
0
VERTEX
8
CUT
10
248.1503
20
201.6999
0
VERTEX
8
CUT
10
240.7583
20
195.0622
0
VERTEX
8
CUT
10
232.0486
20
188.3642
0
VERTEX
8
CUT
10
226.2673
20
184.3928
0
VERTEX
8
CUT
10
223.4397
20
182.4719
0
VERTEX
8
CUT
10
223.4388
20
182.4498
0
VERTEX
8
CUT
10
223.4384
20
182.4495
0
VERTEX
8
CUT
10
223.0442
20
181.8335
0
VERTEX
8
CUT
10
223.2984
20
180.3013
0
VERTEX
8
CUT
10
222.5500
20
178.2294
0
VERTEX
8
CUT
10
222.6697
20
177.8525
0
VERTEX
8
CUT
10
222.9840
20
177.7568
0
VERTEX
8
CUT
10
225.4847
20
178.3581
0
VERTEX
8
CUT
10
235.0173
20
181.4485
0
VERTEX
8
CUT
10
238.3737
20
182.7004
0
VERTEX
8
CUT
10
242.1648
20
184.0507
0
VERTEX
8
CUT
10
244.0580
20
184.8205
0
VERTEX
8
CUT
10
247.2005
20
185.9926
0
VERTEX
8
CUT
10
258.6174
20
190.7634
0
VERTEX
8
CUT
10
270.9676
20
196.7575
0
VERTEX
8
CUT
10
283.3688
20
203.7821
0
VERTEX
8
CUT
10
289.3105
20
207.0653
0
VERTEX
8
CUT
10
290.4861
20
207.5467
0
VERTEX
8
CUT
10
291.0748
20
207.4530
0
VERTEX
8
CUT
10
291.2315
20
206.8406
0
VERTEX
8
CUT
10
290.6721
20
205.8843
0
VERTEX
8
CUT
10
290.5545
20
205.7615
0
VERTEX
8
CUT
10
286.9742
20
202.6003
0
VERTEX
8
CUT
10
281.2866
20
198.4494
0
VERTEX
8
CUT
10
281.2016
20
198.3894
0
VERTEX
8
CUT
10
272.8656
20
193.2187
0
VERTEX
8
CUT
10
269.9960
20
191.5707
0
VERTEX
8
CUT
10
261.8586
20
187.2423
0
VERTEX
8
CUT
10
259.1998
20
185.9378
0
VERTEX
8
CUT
10
249.3562
20
181.4479
0
VERTEX
8
CUT
10
242.9584
20
178.9567
0
VERTEX
8
CUT
10
240.0573
20
177.9167
0
VERTEX
8
CUT
10
237.6571
20
177.0979
0
VERTEX
8
CUT
10
225.5582
20
173.4151
0
VERTEX
8
CUT
10
224.9012
20
172.8279
0
VERTEX
8
CUT
10
224.6736
20
171.3660
0
VERTEX
8
CUT
10
223.7747
20
169.8029
0
VERTEX
8
CUT
10
223.8800
20
169.6765
0
VERTEX
8
CUT
10
223.8804
20
169.6556
0
VERTEX
8
CUT
10
223.9468
20
169.5964
0
VERTEX
8
CUT
10
224.0530
20
169.4689
0
VERTEX
8
CUT
10
224.0925
20
169.4663
0
VERTEX
8
CUT
10
224.1253
20
169.4371
0
VERTEX
8
CUT
10
224.4103
20
169.4452
0
VERTEX
8
CUT
10
225.0792
20
169.4007
0
VERTEX
8
CUT
10
232.1351
20
169.6637
0
VERTEX
8
CUT
10
241.0322
20
170.3228
0
VERTEX
8
CUT
10
252.3860
20
171.4746
0
VERTEX
8
CUT
10
259.7485
20
172.5201
0
VERTEX
8
CUT
10
260.9116
20
172.6597
0
VERTEX
8
CUT
10
262.4175
20
172.8991
0
VERTEX
8
CUT
10
262.7541
20
172.9469
0
VERTEX
8
CUT
10
265.7277
20
173.3524
0
VERTEX
8
CUT
10
266.1504
20
173.4292
0
VERTEX
8
CUT
10
269.0782
20
173.8450
0
VERTEX
8
CUT
10
285.4183
20
176.8641
0
VERTEX
8
CUT
10
286.0704
20
176.9404
0
VERTEX
8
CUT
10
286.8391
20
176.9954
0
VERTEX
8
CUT
10
287.0611
20
176.9803
0
VERTEX
8
CUT
10
287.4839
20
176.7385
0
VERTEX
8
CUT
10
287.5904
20
176.5975
0
VERTEX
8
CUT
10
287.6267
20
176.5494
0
VERTEX
8
CUT
10
287.6484
20
176.5206
0
VERTEX
8
CUT
10
287.6563
20
176.5102
0
VERTEX
8
CUT
10
287.6744
20
176.4037
0
VERTEX
8
CUT
10
287.6683
20
176.3966
0
VERTEX
8
CUT
10
287.6436
20
176.3682
0
VERTEX
8
CUT
10
287.6012
20
176.3195
0
VERTEX
8
CUT
10
287.5969
20
176.3145
0
VERTEX
8
CUT
10
287.4829
20
176.1833
0
VERTEX
8
CUT
10
287.4162
20
176.1065
0
VERTEX
8
CUT
10
287.0375
20
175.6706
0
VERTEX
8
CUT
10
286.9893
20
175.6150
0
VERTEX
8
CUT
10
286.9856
20
175.6108
0
VERTEX
8
CUT
10
286.9717
20
175.5948
0
VERTEX
8
CUT
10
286.8596
20
175.5365
0
VERTEX
8
CUT
10
285.3688
20
174.8543
0
VERTEX
8
CUT
10
284.1319
20
174.3204
0
VERTEX
8
CUT
10
283.0957
20
173.9371
0
VERTEX
8
CUT
10
276.4506
20
171.8871
0
VERTEX
8
CUT
10
268.3353
20
169.8750
0
VERTEX
8
CUT
10
259.6667
20
168.1940
0
VERTEX
8
CUT
10
249.7400
20
166.7757
0
VERTEX
8
CUT
10
239.5537
20
165.6878
0
VERTEX
8
CUT
10
230.3888
20
165.0612
0
VERTEX
8
CUT
10
225.1163
20
164.8969
0
VERTEX
8
CUT
10
224.7035
20
164.9869
0
VERTEX
8
CUT
10
224.2482
20
164.8699
0
VERTEX
8
CUT
10
224.1656
20
164.8673
0
VERTEX
8
CUT
10
224.0799
20
164.8267
0
VERTEX
8
CUT
10
223.9952
20
164.8049
0
VERTEX
8
CUT
10
223.9502
20
164.7651
0
VERTEX
8
CUT
10
223.5239
20
164.5629
0
VERTEX
8
CUT
10
223.2437
20
164.2094
0
VERTEX
8
CUT
10
222.4955
20
162.3743
0
VERTEX
8
CUT
10
221.9367
20
161.2720
0
VERTEX
8
CUT
10
220.3841
20
158.8082
0
VERTEX
8
CUT
10
217.8806
20
155.8765
0
VERTEX
8
CUT
10
216.4600
20
154.5245
0
VERTEX
8
CUT
10
213.6987
20
152.4861
0
VERTEX
8
CUT
10
211.8838
20
151.6607
0
VERTEX
8
CUT
10
210.2985
20
151.4543
0
VERTEX
8
CUT
10
208.7873
20
151.9271
0
VERTEX
8
CUT
10
204.1459
20
155.6199
0
VERTEX
8
CUT
10
202.9105
20
156.9292
0
VERTEX
8
CUT
10
201.0560
20
160.9284
0
VERTEX
8
CUT
10
199.7073
20
162.7909
0
VERTEX
8
CUT
10
198.1016
20
164.6130
0
VERTEX
8
CUT
10
197.0435
20
165.9973
0
VERTEX
8
CUT
10
196.8723
20
166.2214
0
VERTEX
8
CUT
10
196.8027
20
166.3125
0
VERTEX
8
CUT
10
196.5956
20
166.5834
0
VERTEX
8
CUT
10
195.7309
20
167.9284
0
VERTEX
8
CUT
10
194.8821
20
170.5324
0
VERTEX
8
CUT
10
194.8345
20
170.7332
0
VERTEX
8
CUT
10
194.5016
20
173.3635
0
VERTEX
8
CUT
10
194.5000
20
173.5127
0
VERTEX
8
CUT
10
194.5080
20
173.7193
0
VERTEX
8
CUT
10
194.6608
20
174.9862
0
VERTEX
8
CUT
10
194.9978
20
176.7972
0
VERTEX
8
CUT
10
195.1632
20
177.2239
0
VERTEX
8
CUT
10
196.1215
20
179.4345
0
VERTEX
8
CUT
10
196.6672
20
180.3241
0
VERTEX
8
CUT
10
200.2419
20
184.6587
0
VERTEX
8
CUT
10
203.4117
20
187.9600
0
VERTEX
8
CUT
10
207.4389
20
191.6468
0
VERTEX
8
CUT
10
208.4957
20
192.1651
0
SEQEND
0
POLYLINE
8
CUT
66
1
70
1
10
0.0
20
0.0
30
0.0
0
VERTEX
8
CUT
10
217.5067
20
174.0345
0
VERTEX
8
CUT
10
216.5979
20
173.4612
0
VERTEX
8
CUT
10
216.3397
20
172.2442
0
VERTEX
8
CUT
10
216.6662
20
171.5991
0
VERTEX
8
CUT
10
217.1248
20
171.1932
0
VERTEX
8
CUT
10
217.8469
20
171.1272
0
VERTEX
8
CUT
10
218.6062
20
171.9196
0
VERTEX
8
CUT
10
218.6984
20
172.8789
0
VERTEX
8
CUT
10
218.2409
20
173.7331
0
SEQEND
0
POLYLINE
8
CUT
66
1
70
1
10
0.0
20
0.0
30
0.0
0
VERTEX
8
CUT
10
218.2760
20
163.7106
0
VERTEX
8
CUT
10
217.8602
20
164.4973
0
VERTEX
8
CUT
10
217.1736
20
164.7447
0
VERTEX
8
CUT
10
216.8226
20
164.6259
0
VERTEX
8
CUT
10
216.4242
20
164.1665
0
VERTEX
8
CUT
10
216.2236
20
163.2247
0
VERTEX
8
CUT
10
216.7215
20
162.3147
0
VERTEX
8
CUT
10
217.1261
20
162.1525
0
VERTEX
8
CUT
10
217.5233
20
162.2815
0
VERTEX
8
CUT
10
218.1682
20
162.9557
0
SEQEND
0
POLYLINE
8
CUT
66
1
70
1
10
0.0
20
0.0
30
0.0
0
VERTEX
8
CUT
10
215.2990
20
180.9520
0
VERTEX
8
CUT
10
214.7314
20
181.7005
0
VERTEX
8
CUT
10
214.0327
20
182.0269
0
VERTEX
8
CUT
10
213.6299
20
182.0012
0
VERTEX
8
CUT
10
212.7551
20
181.2166
0
VERTEX
8
CUT
10
212.7092
20
180.4876
0
VERTEX
8
CUT
10
213.5129
20
179.4567
0
VERTEX
8
CUT
10
213.9795
20
179.2937
0
VERTEX
8
CUT
10
214.4448
20
179.3818
0
VERTEX
8
CUT
10
215.1935
20
180.0990
0
SEQEND
0
POLYLINE
8
CUT
66
1
70
1
10
0.0
20
0.0
30
0.0
0
VERTEX
8
CUT
10
211.7754
20
171.2473
0
VERTEX
8
CUT
10
210.8284
20
170.7615
0
VERTEX
8
CUT
10
210.3073
20
170.0342
0
VERTEX
8
CUT
10
210.6562
20
169.2666
0
VERTEX
8
CUT
10
211.6015
20
168.4336
0
VERTEX
8
CUT
10
212.5298
20
169.1594
0
VERTEX
8
CUT
10
212.7960
20
169.9903
0
VERTEX
8
CUT
10
212.4465
20
170.9589
0
SEQEND
0
POLYLINE
8
CUT
66
1
70
1
10
0.0
20
0.0
30
0.0
0
VERTEX
8
CUT
10
167.0797
20
215.7434
0
VERTEX
8
CUT
10
167.0860
20
215.7419
0
VERTEX
8
CUT
10
167.1270
20
215.7318
0
VERTEX
8
CUT
10
171.5895
20
214.4641
0
VERTEX
8
CUT
10
172.7419
20
214.3477
0
VERTEX
8
CUT
10
173.4176
20
214.1811
0
VERTEX
8
CUT
10
173.5714
20
214.2436
0
VERTEX
8
CUT
10
173.8264
20
214.2077
0
VERTEX
8
CUT
10
173.8641
20
214.2250
0
VERTEX
8
CUT
10
173.9305
20
214.2121
0
VERTEX
8
CUT
10
174.4834
20
214.4529
0
VERTEX
8
CUT
10
174.5160
20
214.4880
0
VERTEX
8
CUT
10
174.7384
20
214.5696
0
VERTEX
8
CUT
10
176.8147
20
216.1451
0
VERTEX
8
CUT
10
178.3059
20
216.4478
0
VERTEX
8
CUT
10
180.1435
20
216.3531
0
VERTEX
8
CUT
10
180.1907
20
216.3440
0
VERTEX
8
CUT
10
180.2387
20
216.3347
0
VERTEX
8
CUT
10
180.2659
20
216.3294
0
VERTEX
8
CUT
10
180.6940
20
216.2464
0
VERTEX
8
CUT
10
183.6830
20
215.4175
0
VERTEX
8
CUT
10
187.4816
20
213.6857
0
VERTEX
8
CUT
10
191.4251
20
211.3313
0
VERTEX
8
CUT
10
194.6012
20
208.8681
0
VERTEX
8
CUT
10
194.8510
20
208.6430
0
VERTEX
8
CUT
10
195.0412
20
208.4716
0
VERTEX
8
CUT
10
195.3306
20
208.2108
0
VERTEX
8
CUT
10
196.2477
20
207.3846
0
VERTEX
8
CUT
10
196.9889
20
206.6291
0
VERTEX
8
CUT
10
197.0870
20
206.5060
0
VERTEX
8
CUT
10
197.0948
20
206.4963
0
VERTEX
8
CUT
10
197.3494
20
206.1768
0
VERTEX
8
CUT
10
198.6482
20
204.5474
0
VERTEX
8
CUT
10
200.5814
20
201.0729
0
VERTEX
8
CUT
10
200.8644
20
199.4053
0
VERTEX
8
CUT
10
200.8972
20
197.0352
0
VERTEX
8
CUT
10
200.8245
20
195.6910
0
VERTEX
8
CUT
10
200.4808
20
194.2368
0
VERTEX
8
CUT
10
199.2920
20
191.9578
0
VERTEX
8
CUT
10
198.3233
20
190.7127
0
VERTEX
8
CUT
10
197.2440
20
189.6392
0
VERTEX
8
CUT
10
194.7730
20
188.0248
0
VERTEX
8
CUT
10
191.7682
20
187.0685
0
VERTEX
8
CUT
10
189.7367
20
186.8719
0
VERTEX
8
CUT
10
187.2961
20
186.9094
0
VERTEX
8
CUT
10
183.3893
20
188.1810
0
VERTEX
8
CUT
10
179.3232
20
190.1002
0
VERTEX
8
CUT
10
175.1853
20
192.5304
0
VERTEX
8
CUT
10
170.9990
20
195.3878
0
VERTEX
8
CUT
10
167.0560
20
198.5093
0
VERTEX
8
CUT
10
163.4557
20
201.7781
0
VERTEX
8
CUT
10
160.3823
20
205.1534
0
VERTEX
8
CUT
10
158.0658
20
208.3670
0
VERTEX
8
CUT
10
156.9790
20
210.4418
0
VERTEX
8
CUT
10
156.5323
20
212.0407
0
VERTEX
8
CUT
10
156.5970
20
212.8166
0
VERTEX
8
CUT
10
156.8654
20
213.5308
0
VERTEX
8
CUT
10
157.8232
20
214.7532
0
VERTEX
8
CUT
10
158.6993
20
215.4769
0
VERTEX
8
CUT
10
160.7864
20
216.2719
0
VERTEX
8
CUT
10
163.2150
20
216.3392
0
VERTEX
8
CUT
10
163.6778
20
216.2912
0
VERTEX
8
CUT
10
163.8266
20
216.2758
0
VERTEX
8
CUT
10
163.9553
20
216.2625
0
VERTEX
8
CUT
10
164.2924
20
216.2275
0
VERTEX
8
CUT
10
167.0118
20
215.7602
0
VERTEX
8
CUT
10
167.0706
20
215.7457
0
SEQEND
0
POLYLINE
8
CUT
66
1
70
1
10
0.0
20
0.0
30
0.0
0
VERTEX
8
CUT
10
158.5380
20
259.2285
0
VERTEX
8
CUT
10
158.5516
20
259.3995
0
VERTEX
8
CUT
10
158.7737
20
261.7552
0
VERTEX
8
CUT
10
159.6783
20
265.5164
0
VERTEX
8
CUT
10
159.6915
20
265.5481
0
VERTEX
8
CUT
10
159.7222
20
265.6216
0
VERTEX
8
CUT
10
159.7468
20
265.6804
0
VERTEX
8
CUT
10
159.9711
20
266.2170
0
VERTEX
8
CUT
10
161.1210
20
268.7195
0
VERTEX
8
CUT
10
162.2391
20
270.6326
0
VERTEX
8
CUT
10
164.2159
20
273.3342
0
VERTEX
8
CUT
10
170.0474
20
279.9235
0
VERTEX
8
CUT
10
171.3982
20
281.7356
0
VERTEX
8
CUT
10
171.7648
20
282.5146
0
VERTEX
8
CUT
10
172.3695
20
283.4883
0
VERTEX
8
CUT
10
173.3038
20
285.8122
0
VERTEX
8
CUT
10
173.3700
20
287.4107
0
VERTEX
8
CUT
10
173.5587
20
288.9482
0
VERTEX
8
CUT
10
173.4596
20
289.5740
0
VERTEX
8
CUT
10
173.4613
20
289.6138
0
VERTEX
8
CUT
10
173.1392
20
292.4487
0
VERTEX
8
CUT
10
172.4920
20
293.9702
0
VERTEX
8
CUT
10
171.3183
20
295.9563
0
VERTEX
8
CUT
10
170.1193
20
297.4096
0
VERTEX
8
CUT
10
169.0410
20
298.3701
0
VERTEX
8
CUT
10
169.1051
20
298.9678
0
VERTEX
8
CUT
10
169.5580
20
299.1997
0
VERTEX
8
CUT
10
172.3105
20
299.3410
0
VERTEX
8
CUT
10
174.0799
20
299.0954
0
VERTEX
8
CUT
10
176.3995
20
298.0347
0
VERTEX
8
CUT
10
178.3291
20
296.8054
0
VERTEX
8
CUT
10
180.7679
20
294.4661
0
VERTEX
8
CUT
10
182.5048
20
291.7232
0
VERTEX
8
CUT
10
183.3661
20
289.7824
0
VERTEX
8
CUT
10
183.5743
20
288.8550
0
VERTEX
8
CUT
10
183.7322
20
287.7555
0
VERTEX
8
CUT
10
183.6664
20
283.0118
0
VERTEX
8
CUT
10
183.0953
20
280.9108
0
VERTEX
8
CUT
10
180.9911
20
275.6797
0
VERTEX
8
CUT
10
180.9199
20
274.4788
0
VERTEX
8
CUT
10
180.8996
20
274.4015
0
VERTEX
8
CUT
10
180.7033
20
272.4188
0
VERTEX
8
CUT
10
180.9002
20
271.0547
0
VERTEX
8
CUT
10
181.0359
20
269.1588
0
VERTEX
8
CUT
10
181.1498
20
268.7467
0
VERTEX
8
CUT
10
181.1832
20
268.5241
0
VERTEX
8
CUT
10
181.2530
20
268.3738
0
VERTEX
8
CUT
10
181.4273
20
267.7432
0
VERTEX
8
CUT
10
182.4453
20
265.8037
0
VERTEX
8
CUT
10
182.6658
20
265.3283
0
VERTEX
8
CUT
10
182.8217
20
265.0865
0
VERTEX
8
CUT
10
183.1649
20
264.4326
0
VERTEX
8
CUT
10
183.7713
20
263.6134
0
VERTEX
8
CUT
10
185.2356
20
261.3418
0
VERTEX
8
CUT
10
190.8694
20
253.8959
0
VERTEX
8
CUT
10
193.4634
20
248.9645
0
VERTEX
8
CUT
10
194.7956
20
245.5470
0
VERTEX
8
CUT
10
195.4576
20
243.2268
0
VERTEX
8
CUT
10
196.2707
20
238.7721
0
VERTEX
8
CUT
10
196.2721
20
238.6943
0
VERTEX
8
CUT
10
196.2743
20
238.5789
0
VERTEX
8
CUT
10
196.2866
20
237.9266
0
VERTEX
8
CUT
10
196.3137
20
236.4918
0
VERTEX
8
CUT
10
196.0207
20
233.3856
0
VERTEX
8
CUT
10
195.0697
20
230.1992
0
VERTEX
8
CUT
10
194.3937
20
228.8900
0
VERTEX
8
CUT
10
192.7968
20
227.0937
0
VERTEX
8
CUT
10
191.5091
20
226.3891
0
VERTEX
8
CUT
10
190.6752
20
226.3499
0
VERTEX
8
CUT
10
187.8943
20
227.6235
0
VERTEX
8
CUT
10
187.0877
20
228.4060
0
VERTEX
8
CUT
10
186.4176
20
229.8199
0
VERTEX
8
CUT
10
185.8577
20
231.6977
0
VERTEX
8
CUT
10
185.2241
20
235.7846
0
VERTEX
8
CUT
10
184.5028
20
238.7903
0
VERTEX
8
CUT
10
183.5254
20
240.9068
0
VERTEX
8
CUT
10
182.1419
20
242.4266
0
VERTEX
8
CUT
10
180.3319
20
243.3279
0
VERTEX
8
CUT
10
179.5225
20
243.2957
0
VERTEX
8
CUT
10
178.5272
20
242.7103
0
VERTEX
8
CUT
10
175.5837
20
239.9951
0
VERTEX
8
CUT
10
174.0984
20
239.1346
0
VERTEX
8
CUT
10
172.2331
20
238.9147
0
VERTEX
8
CUT
10
171.6707
20
238.8885
0
VERTEX
8
CUT
10
169.3181
20
239.4801
0
VERTEX
8
CUT
10
166.8790
20
240.8645
0
VERTEX
8
CUT
10
165.6687
20
241.8693
0
VERTEX
8
CUT
10
162.9073
20
244.9579
0
VERTEX
8
CUT
10
161.5722
20
247.0883
0
VERTEX
8
CUT
10
160.4414
20
249.3787
0
VERTEX
8
CUT
10
159.5618
20
251.8139
0
VERTEX
8
CUT
10
158.6085
20
256.7448
0
VERTEX
8
CUT
10
158.6085
20
256.7449
0
VERTEX
8
CUT
10
158.6083
20
256.7472
0
VERTEX
8
CUT
10
158.6051
20
256.8125
0
SEQEND
0
POLYLINE
8
CUT
66
1
70
1
10
0.0
20
0.0
30
0.0
0
VERTEX
8
CUT
10
134.3829
20
287.0743
0
VERTEX
8
CUT
10
133.5080
20
290.0029
0
VERTEX
8
CUT
10
131.4091
20
294.0153
0
VERTEX
8
CUT
10
131.3632
20
294.1861
0
VERTEX
8
CUT
10
131.1949
20
294.9606
0
VERTEX
8
CUT
10
131.1932
20
295.9678
0
VERTEX
8
CUT
10
131.6161
20
297.3606
0
VERTEX
8
CUT
10
131.7424
20
297.6266
0
VERTEX
8
CUT
10
131.8231
20
297.7358
0
VERTEX
8
CUT
10
133.4188
20
299.1688
0
VERTEX
8
CUT
10
134.7722
20
299.6144
0
VERTEX
8
CUT
10
134.9924
20
299.6428
0
VERTEX
8
CUT
10
136.1422
20
299.6891
0
VERTEX
8
CUT
10
136.3277
20
299.6767
0
VERTEX
8
CUT
10
136.4739
20
299.6670
0
VERTEX
8
CUT
10
136.5935
20
299.6591
0
VERTEX
8
CUT
10
138.0335
20
299.3802
0
VERTEX
8
CUT
10
138.1378
20
299.3559
0
VERTEX
8
CUT
10
139.1514
20
298.9071
0
VERTEX
8
CUT
10
140.4521
20
298.2066
0
VERTEX
8
CUT
10
141.7692
20
297.1923
0
VERTEX
8
CUT
10
141.9759
20
296.9675
0
VERTEX
8
CUT
10
142.0678
20
296.8677
0
VERTEX
8
CUT
10
142.0827
20
296.8514
0
VERTEX
8
CUT
10
142.1107
20
296.8210
0
VERTEX
8
CUT
10
143.3134
20
295.4890
0
VERTEX
8
CUT
10
144.5885
20
293.4840
0
VERTEX
8
CUT
10
145.5898
20
291.2228
0
VERTEX
8
CUT
10
146.2680
20
288.7937
0
VERTEX
8
CUT
10
146.5218
20
286.6768
0
VERTEX
8
CUT
10
146.5386
20
285.7408
0
VERTEX
8
CUT
10
146.4316
20
283.7625
0
VERTEX
8
CUT
10
146.0969
20
281.8998
0
VERTEX
8
CUT
10
144.9783
20
278.4777
0
VERTEX
8
CUT
10
143.0479
20
275.1063
0
VERTEX
8
CUT
10
140.0969
20
271.3565
0
VERTEX
8
CUT
10
134.4270
20
264.9272
0
VERTEX
8
CUT
10
132.0943
20
261.4303
0
VERTEX
8
CUT
10
131.3439
20
259.7408
0
VERTEX
8
CUT
10
130.4920
20
256.2874
0
VERTEX
8
CUT
10
130.2793
20
252.8018
0
VERTEX
8
CUT
10
130.0835
20
252.5781
0
VERTEX
8
CUT
10
130.0835
20
251.8203
0
VERTEX
8
CUT
10
130.8413
20
247.7679
0
VERTEX
8
CUT
10
130.8931
20
247.5926
0
VERTEX
8
CUT
10
131.6403
20
243.5918
0
VERTEX
8
CUT
10
131.5737
20
241.0394
0
VERTEX
8
CUT
10
131.2427
20
240.0022
0
VERTEX
8
CUT
10
130.0135
20
238.5419
0
VERTEX
8
CUT
10
128.3992
20
237.6509
0
VERTEX
8
CUT
10
127.0385
20
237.6136
0
VERTEX
8
CUT
10
125.2775
20
238.1784
0
VERTEX
8
CUT
10
122.9656
20
240.1938
0
VERTEX
8
CUT
10
120.6690
20
243.3617
0
VERTEX
8
CUT
10
118.7557
20
247.3867
0
VERTEX
8
CUT
10
117.9556
20
249.9818
0
VERTEX
8
CUT
10
117.5539
20
252.7780
0
VERTEX
8
CUT
10
117.4530
20
257.7149
0
VERTEX
8
CUT
10
117.5904
20
260.6666
0
VERTEX
8
CUT
10
118.0561
20
262.6840
0
VERTEX
8
CUT
10
118.1159
20
262.8639
0
VERTEX
8
CUT
10
118.1495
20
262.9652
0
VERTEX
8
CUT
10
118.1650
20
263.0118
0
VERTEX
8
CUT
10
118.2082
20
263.1416
0
VERTEX
8
CUT
10
119.0222
20
265.3536
0
VERTEX
8
CUT
10
119.7215
20
266.9130
0
VERTEX
8
CUT
10
121.6076
20
269.7954
0
VERTEX
8
CUT
10
123.3767
20
271.7394
0
VERTEX
8
CUT
10
125.0144
20
273.4649
0
VERTEX
8
CUT
10
126.2425
20
274.5691
0
VERTEX
8
CUT
10
130.1164
20
278.0126
0
VERTEX
8
CUT
10
130.3254
20
278.2400
0
VERTEX
8
CUT
10
130.5019
20
278.3987
0
VERTEX
8
CUT
10
132.0114
20
280.0668
0
VERTEX
8
CUT
10
133.1938
20
282.0346
0
VERTEX
8
CUT
10
133.4411
20
282.6731
0
VERTEX
8
CUT
10
133.5322
20
282.8397
0
VERTEX
8
CUT
10
133.5693
20
283.0044
0
VERTEX
8
CUT
10
134.1025
20
284.3815
0
VERTEX
8
CUT
10
134.3896
20
285.8374
0
SEQEND
0
ENDSEC
0
EOF
