0
SECTION
2
HEADER
9
$ACADVER
1
AC1009
9
$INSUNITS
70
4
0
ENDSEC
0
SECTION
2
TABLES
0
TABLE
2
LAYER
70
1
0
LAYER
2
CUT
70
0
62
7
6
CONTINUOUS
0
ENDTAB
0
ENDSEC
0
SECTION
2
ENTITIES
0
POLYLINE
8
CUT
66
1
70
1
10
0.0
20
0.0
30
0.0
0
VERTEX
8
CUT
10
119.1266
20
127.6779
0
VERTEX
8
CUT
10
119.9179
20
128.6720
0
VERTEX
8
CUT
10
120.2079
20
129.0362
0
VERTEX
8
CUT
10
121.0101
20
129.8244
0
VERTEX
8
CUT
10
123.3863
20
131.8531
0
VERTEX
8
CUT
10
124.0754
20
132.3795
0
VERTEX
8
CUT
10
126.7414
20
133.8540
0
VERTEX
8
CUT
10
128.8058
20
134.6966
0
VERTEX
8
CUT
10
129.0748
20
134.7767
0
VERTEX
8
CUT
10
129.3352
20
134.8543
0
VERTEX
8
CUT
10
129.7537
20
134.9789
0
VERTEX
8
CUT
10
129.8149
20
134.9971
0
VERTEX
8
CUT
10
131.3680
20
135.4226
0
VERTEX
8
CUT
10
133.1225
20
135.6927
0
VERTEX
8
CUT
10
133.1367
20
135.6940
0
VERTEX
8
CUT
10
133.1941
20
135.6992
0
VERTEX
8
CUT
10
133.2390
20
135.7033
0
VERTEX
8
CUT
10
134.4220
20
135.8113
0
VERTEX
8
CUT
10
136.0621
20
135.8610
0
VERTEX
8
CUT
10
136.6597
20
135.8082
0
VERTEX
8
CUT
10
137.1269
20
135.7513
0
VERTEX
8
CUT
10
137.4235
20
135.7151
0
VERTEX
8
CUT
10
138.1945
20
135.6211
0
VERTEX
8
CUT
10
138.7620
20
135.5520
0
VERTEX
8
CUT
10
140.1639
20
135.2145
0
VERTEX
8
CUT
10
141.4221
20
134.7337
0
VERTEX
8
CUT
10
142.3359
20
134.3556
0
VERTEX
8
CUT
10
144.0341
20
133.3117
0
VERTEX
8
CUT
10
144.0570
20
133.2942
0
VERTEX
8
CUT
10
144.0632
20
133.2894
0
VERTEX
8
CUT
10
144.0690
20
133.2850
0
VERTEX
8
CUT
10
144.0843
20
133.2733
0
VERTEX
8
CUT
10
145.5982
20
131.9308
0
VERTEX
8
CUT
10
146.7723
20
130.5403
0
VERTEX
8
CUT
10
146.9399
20
130.2963
0
VERTEX
8
CUT
10
147.6253
20
129.1396
0
VERTEX
8
CUT
10
147.8535
20
128.4831
0
VERTEX
8
CUT
10
147.8782
20
127.3226
0
VERTEX
8
CUT
10
147.1579
20
124.1443
0
VERTEX
8
CUT
10
146.5815
20
123.0416
0
VERTEX
8
CUT
10
144.7463
20
120.5003
0
VERTEX
8
CUT
10
142.7292
20
118.2504
0
VERTEX
8
CUT
10
141.8293
20
117.5214
0
VERTEX
8
CUT
10
141.1492
20
117.2323
0
VERTEX
8
CUT
10
140.4305
20
117.6305
0
VERTEX
8
CUT
10
139.1779
20
123.3503
0
VERTEX
8
CUT
10
138.0128
20
126.1124
0
VERTEX
8
CUT
10
136.9601
20
127.6577
0
VERTEX
8
CUT
10
136.7429
20
127.8842
0
VERTEX
8
CUT
10
136.6549
20
128.0282
0
VERTEX
8
CUT
10
136.3412
20
128.3249
0
VERTEX
8
CUT
10
136.2205
20
128.4824
0
VERTEX
8
CUT
10
135.9831
20
128.6767
0
VERTEX
8
CUT
10
135.5613
20
129.1166
0
VERTEX
8
CUT
10
135.3335
20
129.2781
0
VERTEX
8
CUT
10
134.9187
20
129.6705
0
VERTEX
8
CUT
10
134.6162
20
129.7867
0
VERTEX
8
CUT
10
134.3665
20
129.9637
0
VERTEX
8
CUT
10
134.1370
20
129.9707
0
VERTEX
8
CUT
10
134.0498
20
130.0042
0
VERTEX
8
CUT
10
133.9862
20
129.9753
0
VERTEX
8
CUT
10
133.6624
20
129.9851
0
VERTEX
8
CUT
10
132.5710
20
129.3111
0
VERTEX
8
CUT
10
132.2752
20
128.9932
0
VERTEX
8
CUT
10
131.9157
20
128.7162
0
VERTEX
8
CUT
10
131.4432
20
128.1161
0
VERTEX
8
CUT
10
131.2907
20
127.9353
0
VERTEX
8
CUT
10
130.8570
20
127.4693
0
VERTEX
8
CUT
10
130.5209
20
126.9444
0
VERTEX
8
CUT
10
130.2803
20
126.6388
0
VERTEX
8
CUT
10
130.1158
20
126.3119
0
VERTEX
8
CUT
10
129.8869
20
125.9543
0
VERTEX
8
CUT
10
129.0653
20
124.1217
0
VERTEX
8
CUT
10
128.0178
20
120.3658
0
VERTEX
8
CUT
10
127.5318
20
116.0621
0
VERTEX
8
CUT
10
127.6789
20
115.7653
0
VERTEX
8
CUT
10
128.0013
20
115.6890
0
VERTEX
8
CUT
10
129.2566
20
116.4627
0
VERTEX
8
CUT
10
130.4154
20
116.7850
0
VERTEX
8
CUT
10
131.3795
20
116.6784
0
VERTEX
8
CUT
10
131.3808
20
116.6779
0
VERTEX
8
CUT
10
131.3842
20
116.6767
0
VERTEX
8
CUT
10
131.3928
20
116.6735
0
VERTEX
8
CUT
10
131.4250
20
116.6618
0
VERTEX
8
CUT
10
132.0318
20
116.3249
0
VERTEX
8
CUT
10
132.2420
20
116.1666
0
VERTEX
8
CUT
10
132.4069
20
116.0399
0
VERTEX
8
CUT
10
132.5870
20
115.8336
0
VERTEX
8
CUT
10
132.6702
20
115.6974
0
VERTEX
8
CUT
10
132.6744
20
115.6905
0
VERTEX
8
CUT
10
132.6966
20
115.6541
0
VERTEX
8
CUT
10
133.1827
20
114.8580
0
VERTEX
8
CUT
10
133.1867
20
114.8484
0
VERTEX
8
CUT
10
133.1931
20
114.8291
0
VERTEX
8
CUT
10
133.2076
20
114.7855
0
VERTEX
8
CUT
10
133.2469
20
114.6676
0
VERTEX
8
CUT
10
133.3656
20
114.3112
0
VERTEX
8
CUT
10
133.4495
20
113.4541
0
VERTEX
8
CUT
10
133.4165
20
113.2470
0
VERTEX
8
CUT
10
133.1736
20
112.3053
0
VERTEX
8
CUT
10
132.6700
20
111.5630
0
VERTEX
8
CUT
10
132.4988
20
111.3533
0
VERTEX
8
CUT
10
132.4502
20
111.2937
0
VERTEX
8
CUT
10
132.4323
20
111.2718
0
VERTEX
8
CUT
10
132.4066
20
111.2403
0
VERTEX
8
CUT
10
131.9539
20
110.8665
0
VERTEX
8
CUT
10
131.4806
20
110.6174
0
VERTEX
8
CUT
10
131.3695
20
110.5612
0
VERTEX
8
CUT
10
130.5677
20
110.3111
0
VERTEX
8
CUT
10
129.8301
20
110.3056
0
VERTEX
8
CUT
10
128.6825
20
110.6501
0
VERTEX
8
CUT
10
127.8803
20
111.3019
0
VERTEX
8
CUT
10
127.1377
20
112.2806
0
VERTEX
8
CUT
10
126.8480
20
113.1269
0
VERTEX
8
CUT
10
126.4273
20
113.3355
0
VERTEX
8
CUT
10
125.7815
20
112.7911
0
VERTEX
8
CUT
10
124.8574
20
112.7104
0
VERTEX
8
CUT
10
121.9806
20
113.5096
0
VERTEX
8
CUT
10
117.4219
20
115.1441
0
VERTEX
8
CUT
10
116.4605
20
115.6687
0
VERTEX
8
CUT
10
115.8598
20
116.2053
0
VERTEX
8
CUT
10
115.4929
20
116.8575
0
VERTEX
8
CUT
10
115.4158
20
118.6624
0
VERTEX
8
CUT
10
115.4433
20
118.8265
0
VERTEX
8
CUT
10
116.2212
20
122.3984
0
VERTEX
8
CUT
10
117.2250
20
124.7321
0
VERTEX
8
CUT
10
118.4969
20
126.8846
0
VERTEX
8
CUT
10
118.6413
20
127.0682
0
VERTEX
8
CUT
10
118.8879
20
127.3780
0
SEQEND
0
POLYLINE
8
CUT
66
1
70
1
10
0.0
20
0.0
30
0.0
0
VERTEX
8
CUT
10
27.4420
20
184.8209
0
VERTEX
8
CUT
10
21.2664
20
190.2220
0
VERTEX
8
CUT
10
19.0372
20
192.7377
0
VERTEX
8
CUT
10
17.9170
20
194.2904
0
VERTEX
8
CUT
10
16.1910
20
197.5139
0
VERTEX
8
CUT
10
15.5874
20
199.5594
0
VERTEX
8
CUT
10
15.3859
20
201.4470
0
VERTEX
8
CUT
10
15.5834
20
203.0758
0
VERTEX
8
CUT
10
16.1706
20
204.4316
0
VERTEX
8
CUT
10
16.2376
20
204.5257
0
VERTEX
8
CUT
10
16.3502
20
204.6837
0
VERTEX
8
CUT
10
16.3520
20
204.6864
0
VERTEX
8
CUT
10
16.4081
20
204.7651
0
VERTEX
8
CUT
10
17.0275
20
205.4773
0
VERTEX
8
CUT
10
17.4974
20
205.8928
0
VERTEX
8
CUT
10
18.5138
20
206.5166
0
VERTEX
8
CUT
10
18.6778
20
206.6054
0
VERTEX
8
CUT
10
20.4364
20
207.1133
0
VERTEX
8
CUT
10
20.8288
20
207.1339
0
VERTEX
8
CUT
10
21.2135
20
207.1434
0
VERTEX
8
CUT
10
21.7426
20
207.1563
0
VERTEX
8
CUT
10
21.9208
20
207.1607
0
VERTEX
8
CUT
10
22.0104
20
207.1629
0
VERTEX
8
CUT
10
24.8057
20
206.7116
0
VERTEX
8
CUT
10
28.3941
20
205.2298
0
VERTEX
8
CUT
10
30.5159
20
204.1034
0
VERTEX
8
CUT
10
40.3004
20
198.0426
0
VERTEX
8
CUT
10
42.2346
20
197.0043
0
VERTEX
8
CUT
10
44.4151
20
195.7703
0
VERTEX
8
CUT
10
48.2509
20
193.9664
0
VERTEX
8
CUT
10
52.0181
20
192.5897
0
VERTEX
8
CUT
10
52.1390
20
192.5638
0
VERTEX
8
CUT
10
52.5986
20
192.3969
0
VERTEX
8
CUT
10
55.8208
20
191.6455
0
VERTEX
8
CUT
10
58.5251
20
191.4785
0
VERTEX
8
CUT
10
60.6125
20
191.9173
0
VERTEX
8
CUT
10
62.0290
20
192.9959
0
VERTEX
8
CUT
10
62.5510
20
194.3310
0
VERTEX
8
CUT
10
62.5212
20
195.2624
0
VERTEX
8
CUT
10
62.2627
20
196.2007
0
VERTEX
8
CUT
10
61.1093
20
198.1393
0
VERTEX
8
CUT
10
59.1150
20
200.2288
0
VERTEX
8
CUT
10
55.0565
20
203.9248
0
VERTEX
8
CUT
10
53.0683
20
206.0774
0
VERTEX
8
CUT
10
49.8492
20
210.6455
0
VERTEX
8
CUT
10
43.8195
20
215.7547
0
VERTEX
8
CUT
10
37.2316
20
221.7827
0
VERTEX
8
CUT
10
31.4902
20
227.7213
0
VERTEX
8
CUT
10
29.1789
20
230.3952
0
VERTEX
8
CUT
10
27.3932
20
232.7418
0
VERTEX
8
CUT
10
26.1961
20
234.6671
0
VERTEX
8
CUT
10
25.4822
20
236.3551
0
VERTEX
8
CUT
10
25.4820
20
237.5989
0
VERTEX
8
CUT
10
25.9048
20
238.1436
0
VERTEX
8
CUT
10
26.3572
20
238.3521
0
VERTEX
8
CUT
10
26.7714
20
238.3522
0
VERTEX
8
CUT
10
26.8411
20
238.3416
0
VERTEX
8
CUT
10
26.8450
20
238.3410
0
VERTEX
8
CUT
10
26.8560
20
238.3393
0
VERTEX
8
CUT
10
26.9276
20
238.3284
0
VERTEX
8
CUT
10
27.5255
20
238.0664
0
VERTEX
8
CUT
10
29.3247
20
236.7364
0
VERTEX
8
CUT
10
39.6505
20
227.1055
0
VERTEX
8
CUT
10
45.0148
20
222.3991
0
VERTEX
8
CUT
10
50.4120
20
217.9889
0
VERTEX
8
CUT
10
55.8739
20
213.8428
0
VERTEX
8
CUT
10
61.5464
20
209.8852
0
VERTEX
8
CUT
10
67.4365
20
206.1013
0
VERTEX
8
CUT
10
73.6255
20
202.3816
0
VERTEX
8
CUT
10
80.1974
20
198.7342
0
VERTEX
8
CUT
10
84.3506
20
196.6803
0
VERTEX
8
CUT
10
85.7630
20
195.9018
0
VERTEX
8
CUT
10
88.1937
20
194.7799
0
VERTEX
8
CUT
10
92.1110
20
192.8427
0
VERTEX
8
CUT
10
95.2046
20
191.5439
0
VERTEX
8
CUT
10
96.4573
20
190.9657
0
VERTEX
8
CUT
10
98.7433
20
190.0579
0
VERTEX
8
CUT
10
99.6777
20
189.6513
0
VERTEX
8
CUT
10
100.0234
20
189.5208
0
VERTEX
8
CUT
10
105.0606
20
187.4059
0
VERTEX
8
CUT
10
118.6125
20
182.6364
0
VERTEX
8
CUT
10
125.4915
20
180.4969
0
VERTEX
8
CUT
10
134.7227
20
177.9966
0
VERTEX
8
CUT
10
135.1530
20
178.1729
0
VERTEX
8
CUT
10
135.1861
20
178.5051
0
VERTEX
8
CUT
10
134.7741
20
178.9779
0
VERTEX
8
CUT
10
134.5525
20
179.7649
0
VERTEX
8
CUT
10
135.2300
20
182.4402
0
VERTEX
8
CUT
10
135.0411
20
183.0320
0
VERTEX
8
CUT
10
134.4882
20
183.0558
0
VERTEX
8
CUT
10
132.3386
20
181.9020
0
VERTEX
8
CUT
10
131.5755
20
181.7985
0
VERTEX
8
CUT
10
130.7410
20
181.9884
0
VERTEX
8
CUT
10
130.2555
20
182.4801
0
VERTEX
8
CUT
10
130.2720
20
183.1307
0
VERTEX
8
CUT
10
131.3746
20
184.6350
0
VERTEX
8
CUT
10
131.1653
20
184.8237
0
VERTEX
8
CUT
10
131.0779
20
185.0546
0
VERTEX
8
CUT
10
130.5493
20
185.3791
0
VERTEX
8
CUT
10
130.4730
20
185.4479
0
VERTEX
8
CUT
10
130.0959
20
185.6575
0
VERTEX
8
CUT
10
129.8373
20
185.8162
0
VERTEX
8
CUT
10
129.6311
20
185.9158
0
VERTEX
8
CUT
10
122.7665
20
189.7307
0
VERTEX
8
CUT
10
115.9620
20
193.9917
0
VERTEX
8
CUT
10
109.0376
20
198.8060
0
VERTEX
8
CUT
10
100.1730
20
205.4611
0
VERTEX
8
CUT
10
98.9581
20
206.0848
0
VERTEX
8
CUT
10
94.7985
20
206.7810
0
VERTEX
8
CUT
10
91.0633
20
208.1527
0
VERTEX
8
CUT
10
87.1873
20
210.6389
0
VERTEX
8
CUT
10
80.2572
20
216.2234
0
VERTEX
8
CUT
10
77.5025
20
217.8481
0
VERTEX
8
CUT
10
75.0044
20
218.5978
0
VERTEX
8
CUT
10
73.4156
20
218.4729
0
VERTEX
8
CUT
10
72.1441
20
217.7540
0
VERTEX
8
CUT
10
71.6413
20
217.2043
0
VERTEX
8
CUT
10
71.0282
20
215.7345
0
VERTEX
8
CUT
10
70.9905
20
214.1091
0
VERTEX
8
CUT
10
71.6983
20
211.3473
0
VERTEX
8
CUT
10
72.5260
20
209.3287
0
VERTEX
8
CUT
10
74.7995
20
205.1076
0
VERTEX
8
CUT
10
74.6729
20
204.6146
0
VERTEX
8
CUT
10
74.1880
20
204.5315
0
VERTEX
8
CUT
10
72.6632
20
205.2441
0
VERTEX
8
CUT
10
64.1810
20
210.3592
0
VERTEX
8
CUT
10
50.5872
20
219.3352
0
VERTEX
8
CUT
10
50.3204
20
219.6288
0
VERTEX
8
CUT
10
50.2120
20
220.3227
0
VERTEX
8
CUT
10
50.3401
20
224.0656
0
VERTEX
8
CUT
10
50.2881
20
224.5079
0
VERTEX
8
CUT
10
50.2713
20
225.3729
0
VERTEX
8
CUT
10
49.9780
20
227.1515
0
VERTEX
8
CUT
10
49.9771
20
227.1544
0
VERTEX
8
CUT
10
49.8818
20
227.9653
0
VERTEX
8
CUT
10
48.9994
20
230.8035
0
VERTEX
8
CUT
10
44.0554
20
242.5091
0
VERTEX
8
CUT
10
43.3779
20
245.0793
0
VERTEX
8
CUT
10
42.8921
20
247.2293
0
VERTEX
8
CUT
10
42.6009
20
250.3978
0
VERTEX
8
CUT
10
42.5843
20
250.7918
0
VERTEX
8
CUT
10
42.5791
20
250.9169
0
VERTEX
8
CUT
10
42.5770
20
250.9668
0
VERTEX
8
CUT
10
42.5763
20
250.9843
0
VERTEX
8
CUT
10
42.7681
20
254.9278
0
VERTEX
8
CUT
10
43.5297
20
258.4314
0
VERTEX
8
CUT
10
43.7455
20
259.0960
0
VERTEX
8
CUT
10
44.4849
20
260.9133
0
VERTEX
8
CUT
10
45.1070
20
262.2521
0
VERTEX
8
CUT
10
45.7025
20
263.2198
0
VERTEX
8
CUT
10
46.7228
20
264.7508
0
VERTEX
8
CUT
10
46.7297
20
264.7592
0
VERTEX
8
CUT
10
46.8655
20
264.9244
0
VERTEX
8
CUT
10
46.9742
20
265.0567
0
VERTEX
8
CUT
10
47.7432
20
265.9923
0
VERTEX
8
CUT
10
48.1173
20
266.4061
0
VERTEX
8
CUT
10
48.6366
20
266.8862
0
VERTEX
8
CUT
10
49.9837
20
268.0553
0
VERTEX
8
CUT
10
52.6360
20
269.6072
0
VERTEX
8
CUT
10
52.6928
20
269.6318
0
VERTEX
8
CUT
10
52.8499
20
269.6999
0
VERTEX
8
CUT
10
52.8993
20
269.7214
0
VERTEX
8
CUT
10
52.9811
20
269.7568
0
VERTEX
8
CUT
10
54.0923
20
270.1107
0
VERTEX
8
CUT
10
54.3485
20
270.1678
0
VERTEX
8
CUT
10
54.6682
20
270.2391
0
VERTEX
8
CUT
10
54.7761
20
270.2632
0
VERTEX
8
CUT
10
55.6498
20
270.4580
0
VERTEX
8
CUT
10
57.0106
20
270.6787
0
VERTEX
8
CUT
10
57.2849
20
270.8226
0
VERTEX
8
CUT
10
57.3508
20
270.8373
0
VERTEX
8
CUT
10
57.6677
20
271.0234
0
VERTEX
8
CUT
10
58.3802
20
271.3972
0
VERTEX
8
CUT
10
58.9901
20
271.4645
0
VERTEX
8
CUT
10
59.6283
20
271.1364
0
VERTEX
8
CUT
10
60.2854
20
270.4774
0
VERTEX
8
CUT
10
61.7134
20
268.0835
0
VERTEX
8
CUT
10
66.2877
20
258.2766
0
VERTEX
8
CUT
10
69.0255
20
252.8672
0
VERTEX
8
CUT
10
70.2613
20
250.6625
0
VERTEX
8
CUT
10
71.2509
20
248.7759
0
VERTEX
8
CUT
10
71.6310
20
248.2188
0
VERTEX
8
CUT
10
71.9118
20
247.7178
0
VERTEX
8
CUT
10
75.0049
20
242.7483
0
VERTEX
8
CUT
10
78.2710
20
237.8991
0
VERTEX
8
CUT
10
81.8133
20
233.1432
0
VERTEX
8
CUT
10
89.7539
20
223.6870
0
VERTEX
8
CUT
10
94.3272
20
218.8841
0
VERTEX
8
CUT
10
99.3940
20
214.0482
0
VERTEX
8
CUT
10
104.8549
20
209.3113
0
VERTEX
8
CUT
10
106.8267
20
207.7227
0
VERTEX
8
CUT
10
109.0979
20
205.8249
0
VERTEX
8
CUT
10
109.8818
20
205.2611
0
VERTEX
8
CUT
10
110.6027
20
204.6803
0
VERTEX
8
CUT
10
110.8941
20
204.4641
0
VERTEX
8
CUT
10
111.0076
20
204.3447
0
VERTEX
8
CUT
10
112.2925
20
203.4222
0
VERTEX
8
CUT
10
112.3045
20
203.4178
0
VERTEX
8
CUT
10
116.5922
20
200.2371
0
VERTEX
8
CUT
10
122.7128
20
196.0576
0
VERTEX
8
CUT
10
128.9461
20
192.1660
0
VERTEX
8
CUT
10
131.8033
20
190.5691
0
VERTEX
8
CUT
10
132.0283
20
190.4284
0
VERTEX
8
CUT
10
132.5889
20
190.1300
0
VERTEX
8
CUT
10
136.4761
20
187.9574
0
VERTEX
8
CUT
10
138.3558
20
187.0836
0
VERTEX
8
CUT
10
139.4884
20
186.9770
0
VERTEX
8
CUT
10
139.7544
20
187.2801
0
VERTEX
8
CUT
10
139.8875
20
187.8956
0
VERTEX
8
CUT
10
139.6456
20
188.6949
0
VERTEX
8
CUT
10
139.4041
20
188.9373
0
VERTEX
8
CUT
10
139.3985
20
188.9597
0
VERTEX
8
CUT
10
139.3094
20
189.0323
0
VERTEX
8
CUT
10
131.9122
20
196.4537
0
VERTEX
8
CUT
10
126.7850
20
202.4407
0
VERTEX
8
CUT
10
122.5463
20
208.1902
0
VERTEX
8
CUT
10
122.2609
20
208.6335
0
VERTEX
8
CUT
10
117.9693
20
215.9297
0
VERTEX
8
CUT
10
117.9593
20
216.2712
0
VERTEX
8
CUT
10
117.2674
20
217.5232
0
VERTEX
8
CUT
10
116.8720
20
217.7868
0
VERTEX
8
CUT
10
116.7384
20
217.7746
0
VERTEX
8
CUT
10
116.1451
20
218.6474
0
VERTEX
8
CUT
10
112.5828
20
223.2331
0
VERTEX
8
CUT
10
109.9732
20
226.9662
0
VERTEX
8
CUT
10
108.1235
20
230.2027
0
VERTEX
8
CUT
10
106.7535
20
233.2129
0
VERTEX
8
CUT
10
105.8040
20
235.9959
0
VERTEX
8
CUT
10
105.1732
20
238.5788
0
VERTEX
8
CUT
10
104.9337
20
240.9773
0
VERTEX
8
CUT
10
105.0765
20
243.1255
0
VERTEX
8
CUT
10
105.6098
20
244.9507
0
VERTEX
8
CUT
10
106.4719
20
246.4472
0
VERTEX
8
CUT
10
107.8182
20
247.6600
0
VERTEX
8
CUT
10
109.4704
20
248.3446
0
VERTEX
8
CUT
10
110.9765
20
248.3976
0
VERTEX
8
CUT
10
112.8084
20
247.8922
0
VERTEX
8
CUT
10
115.0430
20
246.4284
0
VERTEX
8
CUT
10
117.5550
20
244.1723
0
VERTEX
8
CUT
10
117.9922
20
243.7065
0
VERTEX
8
CUT
10
118.2230
20
243.7525
0
VERTEX
8
CUT
10
118.2286
20
243.7496
0
VERTEX
8
CUT
10
118.2375
20
243.7554
0
VERTEX
8
CUT
10
118.4772
20
243.8032
0
VERTEX
8
CUT
10
118.5414
20
243.9529
0
VERTEX
8
CUT
10
118.6056
20
243.9946
0
VERTEX
8
CUT
10
118.6919
20
244.3038
0
VERTEX
8
CUT
10
118.8770
20
244.7352
0
VERTEX
8
CUT
10
118.8615
20
244.9108
0
VERTEX
8
CUT
10
119.1293
20
245.8695
0
VERTEX
8
CUT
10
118.1263
20
248.5145
0
VERTEX
8
CUT
10
117.5920
20
250.7766
0
VERTEX
8
CUT
10
117.1893
20
254.7195
0
VERTEX
8
CUT
10
117.2896
20
259.1252
0
VERTEX
8
CUT
10
117.9866
20
262.9095
0
VERTEX
8
CUT
10
119.5561
20
266.7831
0
VERTEX
8
CUT
10
121.3432
20
269.5966
0
VERTEX
8
CUT
10
125.0904
20
273.5451
0
VERTEX
8
CUT
10
130.1164
20
278.0126
0
VERTEX
8
CUT
10
131.2366
20
279.2316
0
VERTEX
8
CUT
10
131.2619
20
279.5853
0
VERTEX
8
CUT
10
132.1381
20
280.5550
0
VERTEX
8
CUT
10
132.4915
20
281.2020
0
VERTEX
8
CUT
10
133.0074
20
281.8624
0
VERTEX
8
CUT
10
133.4188
20
282.8997
0
VERTEX
8
CUT
10
133.4857
20
283.0222
0
VERTEX
8
CUT
10
133.5051
20
283.1173
0
VERTEX
8
CUT
10
133.7255
20
283.6732
0
VERTEX
8
CUT
10
133.9242
20
284.7099
0
VERTEX
8
CUT
10
133.9511
20
285.3031
0
VERTEX
8
CUT
10
133.9918
20
285.5027
0
VERTEX
8
CUT
10
133.9643
20
285.5940
0
VERTEX
8
CUT
10
134.0543
20
287.5790
0
VERTEX
8
CUT
10
133.5678
20
289.6541
0
VERTEX
8
CUT
10
131.5681
20
293.4231
0
VERTEX
8
CUT
10
131.1951
20
294.8118
0
VERTEX
8
CUT
10
131.1929
20
296.1525
0
VERTEX
8
CUT
10
131.5364
20
297.3636
0
VERTEX
8
CUT
10
132.2101
20
298.3908
0
VERTEX
8
CUT
10
133.2196
20
299.1870
0
VERTEX
8
CUT
10
134.4337
20
299.6338
0
VERTEX
8
CUT
10
134.5919
20
299.6676
0
VERTEX
8
CUT
10
135.7080
20
299.7179
0
VERTEX
8
CUT
10
136.3277
20
299.6767
0
VERTEX
8
CUT
10
136.4739
20
299.6670
0
VERTEX
8
CUT
10
136.7780
20
299.6468
0
VERTEX
8
CUT
10
137.3940
20
299.6059
0
VERTEX
8
CUT
10
137.4198
20
299.6014
0
VERTEX
8
CUT
10
138.6693
20
299.2358
0
VERTEX
8
CUT
10
140.5813
20
298.2493
0
VERTEX
8
CUT
10
142.2024
20
297.0585
0
VERTEX
8
CUT
10
143.4585
20
295.6386
0
VERTEX
8
CUT
10
144.5711
20
293.9182
0
VERTEX
8
CUT
10
145.5040
20
291.9818
0
VERTEX
8
CUT
10
146.4611
20
288.9429
0
VERTEX
8
CUT
10
146.7864
20
288.7195
0
VERTEX
8
CUT
10
147.2017
20
289.0706
0
VERTEX
8
CUT
10
147.0679
20
292.7731
0
VERTEX
8
CUT
10
146.6997
20
293.9935
0
VERTEX
8
CUT
10
145.4339
20
296.3256
0
VERTEX
8
CUT
10
145.6136
20
296.4732
0
VERTEX
8
CUT
10
146.0886
20
296.3999
0
VERTEX
8
CUT
10
147.4853
20
295.6232
0
VERTEX
8
CUT
10
148.5132
20
294.7041
0
VERTEX
8
CUT
10
149.2543
20
293.9006
0
VERTEX
8
CUT
10
149.3137
20
293.8362
0
VERTEX
8
CUT
10
149.3186
20
293.8309
0
VERTEX
8
CUT
10
150.4111
20
292.6463
0
VERTEX
8
CUT
10
150.8492
20
292.1318
0
VERTEX
8
CUT
10
151.2077
20
291.6292
0
VERTEX
8
CUT
10
153.5030
20
288.1201
0
VERTEX
8
CUT
10
154.7797
20
285.9563
0
VERTEX
8
CUT
10
156.5060
20
283.6204
0
VERTEX
8
CUT
10
157.6350
20
282.6884
0
VERTEX
8
CUT
10
157.8661
20
282.5827
0
VERTEX
8
CUT
10
157.9823
20
282.4784
0
VERTEX
8
CUT
10
158.8741
20
281.9459
0
VERTEX
8
CUT
10
159.6826
20
281.7637
0
VERTEX
8
CUT
10
160.0044
20
281.8379
0
VERTEX
8
CUT
10
160.3210
20
281.8201
0
VERTEX
8
CUT
10
161.0327
20
282.1556
0
VERTEX
8
CUT
10
161.8760
20
283.5594
0
VERTEX
8
CUT
10
161.8958
20
284.6281
0
VERTEX
8
CUT
10
160.9104
20
290.1128
0
VERTEX
8
CUT
10
160.9103
20
290.4486
0
VERTEX
8
CUT
10
160.9103
20
290.5266
0
VERTEX
8
CUT
10
160.9103
20
290.5456
0
VERTEX
8
CUT
10
160.9103
20
290.5469
0
VERTEX
8
CUT
10
161.0279
20
291.4479
0
VERTEX
8
CUT
10
161.0464
20
291.5528
0
VERTEX
8
CUT
10
161.0581
20
291.6191
0
VERTEX
8
CUT
10
161.0708
20
291.6907
0
VERTEX
8
CUT
10
161.1261
20
292.0044
0
VERTEX
8
CUT
10
161.8974
20
294.2391
0
VERTEX
8
CUT
10
162.2894
20
294.8589
0
VERTEX
8
CUT
10
162.3245
20
294.9143
0
VERTEX
8
CUT
10
162.3596
20
294.9699
0
VERTEX
8
CUT
10
162.3862
20
295.0120
0
VERTEX
8
CUT
10
163.2466
20
296.2895
0
VERTEX
8
CUT
10
163.4097
20
296.4643
0
VERTEX
8
CUT
10
164.9843
20
297.8208
0
VERTEX
8
CUT
10
165.0557
20
297.8718
0
VERTEX
8
CUT
10
165.3981
20
298.1166
0
VERTEX
8
CUT
10
166.3913
20
298.6722
0
VERTEX
8
CUT
10
168.4882
20
299.3843
0
VERTEX
8
CUT
10
169.6429
20
299.6329
0
VERTEX
8
CUT
10
169.6448
20
299.6331
0
VERTEX
8
CUT
10
169.6492
20
299.6335
0
VERTEX
8
CUT
10
169.6507
20
299.6336
0
VERTEX
8
CUT
10
169.6694
20
299.6353
0
VERTEX
8
CUT
10
170.8029
20
299.6354
0
VERTEX
8
CUT
10
172.6233
20
299.5505
0
VERTEX
8
CUT
10
173.9139
20
299.3035
0
VERTEX
8
CUT
10
175.6943
20
298.6169
0
VERTEX
8
CUT
10
178.8930
20
296.5068
0
VERTEX
8
CUT
10
179.7309
20
295.6889
0
VERTEX
8
CUT
10
180.7835
20
294.5029
0
VERTEX
8
CUT
10
181.7015
20
293.3579
0
VERTEX
8
CUT
10
182.5748
20
291.9371
0
VERTEX
8
CUT
10
183.1178
20
290.7364
0
VERTEX
8
CUT
10
183.2958
20
290.2400
0
VERTEX
8
CUT
10
183.3305
20
290.1430
0
VERTEX
8
CUT
10
183.3509
20
290.0861
0
VERTEX
8
CUT
10
183.4621
20
289.7760
0
VERTEX
8
CUT
10
183.9414
20
287.8033
0
VERTEX
8
CUT
10
184.1691
20
287.5494
0
VERTEX
8
CUT
10
184.5424
20
287.5933
0
VERTEX
8
CUT
10
186.5799
20
289.1984
0
VERTEX
8
CUT
10
188.1613
20
290.1208
0
VERTEX
8
CUT
10
190.8958
20
290.8409
0
VERTEX
8
CUT
10
192.9108
20
290.8739
0
VERTEX
8
CUT
10
194.5517
20
290.6433
0
VERTEX
8
CUT
10
195.5966
20
290.3286
0
VERTEX
8
CUT
10
196.0166
20
290.1970
0
VERTEX
8
CUT
10
196.0917
20
290.1571
0
VERTEX
8
CUT
10
196.0918
20
290.1571
0
VERTEX
8
CUT
10
196.0944
20
290.1557
0
VERTEX
8
CUT
10
196.1181
20
290.1431
0
VERTEX
8
CUT
10
198.0283
20
288.9412
0
VERTEX
8
CUT
10
200.1427
20
286.7856
0
VERTEX
8
CUT
10
201.4405
20
284.2565
0
VERTEX
8
CUT
10
201.8845
20
281.2002
0
VERTEX
8
CUT
10
201.6875
20
279.0171
0
VERTEX
8
CUT
10
201.4339
20
278.0147
0
VERTEX
8
CUT
10
200.3837
20
276.1276
0
VERTEX
8
CUT
10
194.9273
20
270.2778
0
VERTEX
8
CUT
10
193.5502
20
268.2727
0
VERTEX
8
CUT
10
192.8506
20
266.2519
0
VERTEX
8
CUT
10
192.7177
20
265.0812
0
VERTEX
8
CUT
10
192.6635
20
265.0140
0
VERTEX
8
CUT
10
192.4967
20
262.9488
0
VERTEX
8
CUT
10
192.5429
20
262.3443
0
VERTEX
8
CUT
10
192.5315
20
261.5291
0
VERTEX
8
CUT
10
192.9784
20
259.3370
0
VERTEX
8
CUT
10
194.0820
20
256.5414
0
VERTEX
8
CUT
10
195.2345
20
254.5632
0
VERTEX
8
CUT
10
196.5756
20
252.7348
0
VERTEX
8
CUT
10
197.6191
20
251.7237
0
VERTEX
8
CUT
10
197.9487
20
251.3316
0
VERTEX
8
CUT
10
198.2894
20
251.0742
0
VERTEX
8
CUT
10
198.7509
20
250.6271
0
VERTEX
8
CUT
10
199.3144
20
250.3001
0
VERTEX
8
CUT
10
200.0801
20
249.7217
0
VERTEX
8
CUT
10
200.5490
20
249.5835
0
VERTEX
8
CUT
10
200.6347
20
249.5338
0
VERTEX
8
CUT
10
200.6861
20
249.5432
0
VERTEX
8
CUT
10
200.8334
20
249.4997
0
VERTEX
8
CUT
10
203.1885
20
249.9731
0
VERTEX
8
CUT
10
204.9532
20
249.5093
0
VERTEX
8
CUT
10
206.8237
20
248.4187
0
VERTEX
8
CUT
10
208.1287
20
247.2622
0
VERTEX
8
CUT
10
208.2169
20
247.1759
0
VERTEX
8
CUT
10
208.2467
20
247.1467
0
VERTEX
8
CUT
10
208.4283
20
246.9688
0
VERTEX
8
CUT
10
208.6731
20
246.7291
0
VERTEX
8
CUT
10
209.3333
20
245.8647
0
VERTEX
8
CUT
10
210.2021
20
244.5378
0
VERTEX
8
CUT
10
210.8029
20
243.4870
0
VERTEX
8
CUT
10
212.1221
20
239.3980
0
VERTEX
8
CUT
10
212.4616
20
237.1252
0
VERTEX
8
CUT
10
212.5589
20
234.8265
0
VERTEX
8
CUT
10
212.3894
20
232.5283
0
VERTEX
8
CUT
10
211.5319
20
228.8360
0
VERTEX
8
CUT
10
210.5789
20
226.3642
0
VERTEX
8
CUT
10
209.1000
20
224.1297
0
VERTEX
8
CUT
10
208.0299
20
222.8897
0
VERTEX
8
CUT
10
202.1492
20
216.5784
0
VERTEX
8
CUT
10
201.5211
20
215.9218
0
VERTEX
8
CUT
10
201.4734
20
215.8531
0
VERTEX
8
CUT
10
200.8998
20
215.2375
0
VERTEX
8
CUT
10
199.7799
20
213.4257
0
VERTEX
8
CUT
10
198.6230
20
210.7864
0
VERTEX
8
CUT
10
198.0092
20
210.1393
0
VERTEX
8
CUT
10
197.2515
20
210.6142
0
VERTEX
8
CUT
10
193.9786
20
213.8528
0
VERTEX
8
CUT
10
191.6207
20
215.8479
0
VERTEX
8
CUT
10
188.9365
20
217.5619
0
VERTEX
8
CUT
10
185.5371
20
219.2130
0
VERTEX
8
CUT
10
180.8296
20
220.9367
0
VERTEX
8
CUT
10
176.0352
20
221.2670
0
VERTEX
8
CUT
10
174.0511
20
221.6680
0
VERTEX
8
CUT
10
165.7774
20
224.3828
0
VERTEX
8
CUT
10
164.5008
20
225.5469
0
VERTEX
8
CUT
10
160.8191
20
231.3333
0
VERTEX
8
CUT
10
159.0583
20
233.5951
0
VERTEX
8
CUT
10
158.9082
20
233.8044
0
VERTEX
8
CUT
10
158.8249
20
233.8950
0
VERTEX
8
CUT
10
157.9347
20
235.0386
0
VERTEX
8
CUT
10
156.5920
20
236.3229
0
VERTEX
8
CUT
10
156.3162
20
236.6227
0
VERTEX
8
CUT
10
156.1147
20
236.7794
0
VERTEX
8
CUT
10
151.1263
20
241.5509
0
VERTEX
8
CUT
10
149.5350
20
243.3725
0
VERTEX
8
CUT
10
147.1717
20
247.0267
0
VERTEX
8
CUT
10
146.3691
20
248.8592
0
VERTEX
8
CUT
10
145.4573
20
252.7346
0
VERTEX
8
CUT
10
145.3585
20
255.1700
0
VERTEX
8
CUT
10
145.4950
20
256.4117
0
VERTEX
8
CUT
10
146.0986
20
258.9828
0
VERTEX
8
CUT
10
148.6229
20
264.7024
0
VERTEX
8
CUT
10
148.9617
20
265.0977
0
VERTEX
8
CUT
10
149.8183
20
267.0085
0
VERTEX
8
CUT
10
150.1149
20
268.1617
0
VERTEX
8
CUT
10
149.7195
20
269.4136
0
VERTEX
8
CUT
10
148.8395
20
269.9479
0
VERTEX
8
CUT
10
148.8363
20
269.9506
0
VERTEX
8
CUT
10
148.8351
20
269.9506
0
VERTEX
8
CUT
10
148.7970
20
269.9737
0
VERTEX
8
CUT
10
148.5858
20
269.9435
0
VERTEX
8
CUT
10
147.8801
20
269.9236
0
VERTEX
8
CUT
10
147.0438
20
269.4397
0
VERTEX
8
CUT
10
143.0908
20
265.4869
0
VERTEX
8
CUT
10
139.5347
20
261.2683
0
VERTEX
8
CUT
10
138.3633
20
259.3744
0
VERTEX
8
CUT
10
137.4882
20
257.4235
0
VERTEX
8
CUT
10
136.8728
20
255.4663
0
VERTEX
8
CUT
10
136.5524
20
253.4540
0
VERTEX
8
CUT
10
136.5384
20
252.4703
0
VERTEX
8
CUT
10
136.4884
20
252.0760
0
VERTEX
8
CUT
10
136.5279
20
251.7313
0
VERTEX
8
CUT
10
136.5238
20
251.4419
0
VERTEX
8
CUT
10
136.7768
20
249.4496
0
VERTEX
8
CUT
10
136.7968
20
249.3864
0
VERTEX
8
CUT
10
136.8082
20
249.2871
0
VERTEX
8
CUT
10
137.2297
20
247.8175
0
VERTEX
8
CUT
10
137.5969
20
246.8581
0
VERTEX
8
CUT
10
138.0590
20
245.3976
0
VERTEX
8
CUT
10
139.5290
20
242.6598
0
VERTEX
8
CUT
10
140.3706
20
241.4562
0
VERTEX
8
CUT
10
140.3957
20
241.4093
0
VERTEX
8
CUT
10
142.9326
20
237.7193
0
VERTEX
8
CUT
10
143.0896
20
237.5673
0
VERTEX
8
CUT
10
143.7443
20
236.6309
0
VERTEX
8
CUT
10
145.0525
20
234.3417
0
VERTEX
8
CUT
10
145.6018
20
233.0185
0
VERTEX
8
CUT
10
146.0936
20
231.6696
0
VERTEX
8
CUT
10
146.4995
20
230.1433
0
VERTEX
8
CUT
10
146.6076
20
228.6276
0
VERTEX
8
CUT
10
146.5968
20
228.1899
0
VERTEX
8
CUT
10
146.5937
20
228.0673
0
VERTEX
8
CUT
10
146.5921
20
227.9990
0
VERTEX
8
CUT
10
146.5908
20
227.9471
0
VERTEX
8
CUT
10
146.3985
20
226.5700
0
VERTEX
8
CUT
10
145.7535
20
225.0032
0
VERTEX
8
CUT
10
144.6793
20
223.6530
0
VERTEX
8
CUT
10
142.8149
20
222.3537
0
VERTEX
8
CUT
10
141.2992
20
221.8600
0
VERTEX
8
CUT
10
139.7720
20
221.7629
0
VERTEX
8
CUT
10
138.1062
20
222.0248
0
VERTEX
8
CUT
10
136.7415
20
222.4626
0
VERTEX
8
CUT
10
130.1730
20
225.1334
0
VERTEX
8
CUT
10
129.2403
20
225.2810
0
VERTEX
8
CUT
10
128.7447
20
225.4218
0
VERTEX
8
CUT
10
128.0101
20
225.4757
0
VERTEX
8
CUT
10
127.5731
20
225.5448
0
VERTEX
8
CUT
10
126.4945
20
225.3669
0
VERTEX
8
CUT
10
125.5025
20
224.9491
0
VERTEX
8
CUT
10
124.0347
20
223.4369
0
VERTEX
8
CUT
10
123.5097
20
222.1485
0
VERTEX
8
CUT
10
123.4674
20
221.7651
0
VERTEX
8
CUT
10
123.4389
20
221.6982
0
VERTEX
8
CUT
10
123.4326
20
221.4490
0
VERTEX
8
CUT
10
123.3101
20
220.3389
0
VERTEX
8
CUT
10
123.3765
20
219.2478
0
VERTEX
8
CUT
10
123.3725
20
219.0891
0
VERTEX
8
CUT
10
123.3910
20
219.0104
0
VERTEX
8
CUT
10
123.4428
20
218.1581
0
VERTEX
8
CUT
10
124.7714
20
212.6802
0
VERTEX
8
CUT
10
124.9489
20
212.3802
0
VERTEX
8
CUT
10
124.9498
20
212.3767
0
VERTEX
8
CUT
10
125.5836
20
211.2428
0
VERTEX
8
CUT
10
125.7667
20
210.9986
0
VERTEX
8
CUT
10
126.1952
20
210.2748
0
VERTEX
8
CUT
10
129.5561
20
206.0236
0
VERTEX
8
CUT
10
130.5524
20
204.8786
0
VERTEX
8
CUT
10
130.5564
20
204.8701
0
VERTEX
8
CUT
10
130.5607
20
204.8691
0
VERTEX
8
CUT
10
133.9653
20
200.9567
0
VERTEX
8
CUT
10
136.4824
20
198.3390
0
VERTEX
8
CUT
10
136.6197
20
198.1384
0
VERTEX
8
CUT
10
137.3760
20
197.4096
0
VERTEX
8
CUT
10
139.7214
20
194.9706
0
VERTEX
8
CUT
10
142.5912
20
192.3563
0
VERTEX
8
CUT
10
143.3067
20
191.5803
0
VERTEX
8
CUT
10
143.6128
20
191.4003
0
VERTEX
8
CUT
10
143.8636
20
191.1587
0
VERTEX
8
CUT
10
144.0122
20
191.0617
0
VERTEX
8
CUT
10
144.7959
20
190.3477
0
VERTEX
8
CUT
10
145.7172
20
190.3184
0
VERTEX
8
CUT
10
148.7643
20
191.3167
0
VERTEX
8
CUT
10
149.1403
20
191.3958
0
VERTEX
8
CUT
10
149.9108
20
191.4757
0
VERTEX
8
CUT
10
151.8436
20
191.6388
0
VERTEX
8
CUT
10
155.4784
20
191.6183
0
VERTEX
8
CUT
10
157.2192
20
191.5321
0
VERTEX
8
CUT
10
160.0365
20
191.1357
0
VERTEX
8
CUT
10
160.0871
20
191.1275
0
VERTEX
8
CUT
10
160.1843
20
191.1118
0
VERTEX
8
CUT
10
160.2152
20
191.1067
0
VERTEX
8
CUT
10
160.6056
20
191.0434
0
VERTEX
8
CUT
10
164.3155
20
190.1790
0
VERTEX
8
CUT
10
170.1320
20
188.1953
0
VERTEX
8
CUT
10
176.2304
20
185.4592
0
VERTEX
8
CUT
10
180.5231
20
183.2141
0
VERTEX
8
CUT
10
183.0098
20
181.7176
0
VERTEX
8
CUT
10
184.0577
20
181.0521
0
VERTEX
8
CUT
10
184.1842
20
180.9718
0
VERTEX
8
CUT
10
184.2543
20
180.9273
0
VERTEX
8
CUT
10
184.2725
20
180.9157
0
VERTEX
8
CUT
10
185.6692
20
179.9053
0
VERTEX
8
CUT
10
186.2756
20
179.4292
0
VERTEX
8
CUT
10
186.6871
20
179.1063
0
VERTEX
8
CUT
10
186.7070
20
179.0907
0
VERTEX
8
CUT
10
187.1821
20
178.7177
0
VERTEX
8
CUT
10
188.8419
20
177.1973
0
VERTEX
8
CUT
10
189.1941
20
176.8401
0
VERTEX
8
CUT
10
190.9942
20
174.7654
0
VERTEX
8
CUT
10
191.1785
20
174.5028
0
VERTEX
8
CUT
10
191.2358
20
174.4211
0
VERTEX
8
CUT
10
191.4312
20
174.1427
0
VERTEX
8
CUT
10
191.7064
20
173.7506
0
VERTEX
8
CUT
10
192.4585
20
172.3684
0
VERTEX
8
CUT
10
192.7411
20
171.7163
0
VERTEX
8
CUT
10
192.7684
20
171.6533
0
VERTEX
8
CUT
10
192.9111
20
171.3242
0
VERTEX
8
CUT
10
193.1212
20
170.8394
0
VERTEX
8
CUT
10
193.2522
20
170.3806
0
VERTEX
8
CUT
10
193.2649
20
170.2983
0
VERTEX
8
CUT
10
193.2687
20
170.2742
0
VERTEX
8
CUT
10
193.2942
20
170.1096
0
VERTEX
8
CUT
10
193.3885
20
169.5009
0
VERTEX
8
CUT
10
193.5303
20
167.4194
0
VERTEX
8
CUT
10
193.4682
20
166.7381
0
VERTEX
8
CUT
10
193.4302
20
166.3223
0
VERTEX
8
CUT
10
193.4136
20
166.1409
0
VERTEX
8
CUT
10
193.3699
20
165.6619
0
VERTEX
8
CUT
10
193.2666
20
164.8216
0
VERTEX
8
CUT
10
193.2954
20
164.7989
0
VERTEX
8
CUT
10
193.2912
20
164.7564
0
VERTEX
8
CUT
10
193.5416
20
164.5280
0
VERTEX
8
CUT
10
194.7889
20
164.3362
0
VERTEX
8
CUT
10
195.2903
20
163.6445
0
VERTEX
8
CUT
10
195.7446
20
162.7183
0
VERTEX
8
CUT
10
196.0757
20
162.5717
0
VERTEX
8
CUT
10
196.4276
20
162.8648
0
VERTEX
8
CUT
10
196.2994
20
163.8713
0
VERTEX
8
CUT
10
196.8721
20
165.2380
0
VERTEX
8
CUT
10
196.7993
20
165.4090
0
VERTEX
8
CUT
10
196.8771
20
165.5455
0
VERTEX
8
CUT
10
196.0697
20
167.1239
0
VERTEX
8
CUT
10
195.2128
20
169.1379
0
VERTEX
8
CUT
10
194.5162
20
172.0755
0
VERTEX
8
CUT
10
194.5000
20
173.5127
0
VERTEX
8
CUT
10
194.5668
20
175.2384
0
VERTEX
8
CUT
10
194.9973
20
177.2085
0
VERTEX
8
CUT
10
195.4491
20
178.3313
0
VERTEX
8
CUT
10
195.7493
20
178.9092
0
VERTEX
8
CUT
10
196.8147
20
180.5663
0
VERTEX
8
CUT
10
198.6055
20
182.8459
0
VERTEX
8
CUT
10
199.4482
20
183.8305
0
VERTEX
8
CUT
10
199.7778
20
184.1921
0
VERTEX
8
CUT
10
200.1729
20
184.6253
0
VERTEX
8
CUT
10
200.4772
20
184.9590
0
VERTEX
8
CUT
10
201.2158
20
185.7689
0
VERTEX
8
CUT
10
205.3572
20
190.0701
0
VERTEX
8
CUT
10
206.9826
20
191.4535
0
VERTEX
8
CUT
10
207.4456
20
191.7582
0
VERTEX
8
CUT
10
207.6228
20
191.8748
0
VERTEX
8
CUT
10
207.9135
20
192.0661
0
VERTEX
8
CUT
10
208.1511
20
192.2224
0
VERTEX
8
CUT
10
209.2081
20
192.6649
0
VERTEX
8
CUT
10
209.2469
20
192.6795
0
VERTEX
8
CUT
10
211.0172
20
192.8910
0
VERTEX
8
CUT
10
212.8388
20
192.6923
0
VERTEX
8
CUT
10
214.6418
20
191.9995
0
VERTEX
8
CUT
10
216.3571
20
190.7901
0
VERTEX
8
CUT
10
218.6032
20
188.5614
0
VERTEX
8
CUT
10
219.7801
20
187.0175
0
VERTEX
8
CUT
10
220.1758
20
186.8736
0
VERTEX
8
CUT
10
220.3597
20
186.9466
0
VERTEX
8
CUT
10
220.3759
20
186.9365
0
VERTEX
8
CUT
10
220.7310
20
187.0436
0
VERTEX
8
CUT
10
224.7884
20
189.7608
0
VERTEX
8
CUT
10
225.2245
20
190.0822
0
VERTEX
8
CUT
10
226.8835
20
191.2008
0
VERTEX
8
CUT
10
232.4865
20
195.4193
0
VERTEX
8
CUT
10
237.9507
20
199.7645
0
VERTEX
8
CUT
10
244.0327
20
205.0246
0
VERTEX
8
CUT
10
244.8648
20
205.8170
0
VERTEX
8
CUT
10
246.6747
20
207.4356
0
VERTEX
8
CUT
10
251.2939
20
211.9388
0
VERTEX
8
CUT
10
252.9918
20
213.5555
0
VERTEX
8
CUT
10
265.2561
20
226.5304
0
VERTEX
8
CUT
10
265.3972
20
226.6607
0
VERTEX
8
CUT
10
265.6944
20
226.9122
0
VERTEX
8
CUT
10
265.8726
20
227.0286
0
VERTEX
8
CUT
10
265.9091
20
227.0525
0
VERTEX
8
CUT
10
265.9469
20
227.0772
0
VERTEX
8
CUT
10
265.9789
20
227.0981
0
VERTEX
8
CUT
10
266.0605
20
227.1114
0
VERTEX
8
CUT
10
266.4988
20
227.0394
0
VERTEX
8
CUT
10
266.7884
20
226.8080
0
VERTEX
8
CUT
10
266.9824
20
226.4520
0
VERTEX
8
CUT
10
266.9967
20
226.4256
0
VERTEX
8
CUT
10
266.9971
20
226.4250
0
VERTEX
8
CUT
10
266.9979
20
226.4236
0
VERTEX
8
CUT
10
267.0471
20
225.6112
0
VERTEX
8
CUT
10
267.0408
20
225.5897
0
VERTEX
8
CUT
10
267.0357
20
225.5721
0
VERTEX
8
CUT
10
267.0304
20
225.5541
0
VERTEX
8
CUT
10
267.0159
20
225.5045
0
VERTEX
8
CUT
10
266.6809
20
224.6748
0
VERTEX
8
CUT
10
266.4323
20
224.1847
0
VERTEX
8
CUT
10
266.1034
20
223.5364
0
VERTEX
8
CUT
10
266.0109
20
223.3541
0
VERTEX
8
CUT
10
265.8521
20
223.0411
0
VERTEX
8
CUT
10
263.3276
20
219.0145
0
VERTEX
8
CUT
10
262.8255
20
218.3138
0
VERTEX
8
CUT
10
262.6890
20
218.1233
0
VERTEX
8
CUT
10
262.6760
20
218.1051
0
VERTEX
8
CUT
10
262.5828
20
217.9750
0
VERTEX
8
CUT
10
257.8735
20
211.9468
0
VERTEX
8
CUT
10
251.5065
20
204.9205
0
VERTEX
8
CUT
10
243.3209
20
197.0658
0
VERTEX
8
CUT
10
234.7841
20
190.1771
0
VERTEX
8
CUT
10
223.5747
20
182.3872
0
VERTEX
8
CUT
10
223.5546
20
182.3432
0
VERTEX
8
CUT
10
223.2757
20
182.1461
0
VERTEX
8
CUT
10
223.3199
20
181.8299
0
VERTEX
8
CUT
10
223.2491
20
181.6750
0
VERTEX
8
CUT
10
224.0942
20
178.4597
0
VERTEX
8
CUT
10
224.5500
20
178.3467
0
VERTEX
8
CUT
10
226.7334
20
178.8515
0
VERTEX
8
CUT
10
235.4720
20
181.7427
0
VERTEX
8
CUT
10
242.8016
20
184.4522
0
VERTEX
8
CUT
10
243.6133
20
184.7421
0
VERTEX
8
CUT
10
243.9847
20
184.8896
0
VERTEX
8
CUT
10
247.8486
20
186.3179
0
VERTEX
8
CUT
10
252.7752
20
188.3794
0
VERTEX
8
CUT
10
254.4780
20
189.0554
0
VERTEX
8
CUT
10
256.9404
20
190.2030
0
VERTEX
8
CUT
10
259.9077
20
191.5236
0
VERTEX
8
CUT
10
262.3404
20
192.7197
0
VERTEX
8
CUT
10
264.6183
20
193.7814
0
VERTEX
8
CUT
10
264.6398
20
193.7912
0
VERTEX
8
CUT
10
264.6462
20
193.7944
0
VERTEX
8
CUT
10
264.6468
20
193.7947
0
VERTEX
8
CUT
10
264.6477
20
193.7951
0
VERTEX
8
CUT
10
269.8166
20
196.3632
0
VERTEX
8
CUT
10
270.4277
20
196.6960
0
VERTEX
8
CUT
10
271.7497
20
197.3460
0
VERTEX
8
CUT
10
274.9146
20
199.1176
0
VERTEX
8
CUT
10
276.2608
20
199.8155
0
VERTEX
8
CUT
10
279.5215
20
201.6486
0
VERTEX
8
CUT
10
280.5072
20
202.1855
0
VERTEX
8
CUT
10
281.4050
20
202.7075
0
VERTEX
8
CUT
10
289.6536
20
207.3449
0
VERTEX
8
CUT
10
290.9200
20
207.8453
0
VERTEX
8
CUT
10
290.9401
20
207.8460
0
VERTEX
8
CUT
10
291.0216
20
207.8288
0
VERTEX
8
CUT
10
291.4613
20
207.2226
0
VERTEX
8
CUT
10
291.4404
20
206.7796
0
VERTEX
8
CUT
10
291.3002
20
206.5611
0
VERTEX
8
CUT
10
290.6872
20
205.7007
0
VERTEX
8
CUT
10
289.4145
20
204.5051
0
VERTEX
8
CUT
10
289.2201
20
204.3317
0
VERTEX
8
CUT
10
285.9935
20
201.7761
0
VERTEX
8
CUT
10
283.0310
20
199.6823
0
VERTEX
8
CUT
10
282.1647
20
199.0700
0
VERTEX
8
CUT
10
281.1390
20
198.3451
0
VERTEX
8
CUT
10
280.0289
20
197.5605
0
VERTEX
8
CUT
10
274.8207
20
194.3132
0
VERTEX
8
CUT
10
274.7376
20
194.2621
0
VERTEX
8
CUT
10
274.2411
20
193.9569
0
VERTEX
8
CUT
10
273.7303
20
193.6428
0
VERTEX
8
CUT
10
272.6133
20
192.9560
0
VERTEX
8
CUT
10
268.8583
20
190.7842
0
VERTEX
8
CUT
10
266.8684
20
189.7129
0
VERTEX
8
CUT
10
262.1015
20
187.1934
0
VERTEX
8
CUT
10
255.5718
20
184.0272
0
VERTEX
8
CUT
10
249.0601
20
181.1516
0
VERTEX
8
CUT
10
242.7917
20
178.6776
0
VERTEX
8
CUT
10
234.8481
20
175.9511
0
VERTEX
8
CUT
10
234.2241
20
175.7888
0
VERTEX
8
CUT
10
233.9854
20
175.6550
0
VERTEX
8
CUT
10
233.4760
20
175.4801
0
VERTEX
8
CUT
10
232.9297
20
175.0518
0
VERTEX
8
CUT
10
232.5673
20
173.9700
0
VERTEX
8
CUT
10
232.2641
20
173.7088
0
VERTEX
8
CUT
10
229.2104
20
173.9213
0
VERTEX
8
CUT
10
226.3892
20
173.5373
0
VERTEX
8
CUT
10
225.4591
20
173.1339
0
VERTEX
8
CUT
10
224.8090
20
171.2040
0
VERTEX
8
CUT
10
224.6459
20
169.9836
0
VERTEX
8
CUT
10
224.8798
20
169.6313
0
VERTEX
8
CUT
10
232.9921
20
169.8615
0
VERTEX
8
CUT
10
246.9196
20
170.9808
0
VERTEX
8
CUT
10
260.9116
20
172.6597
0
VERTEX
8
CUT
10
270.2383
20
174.1427
0
VERTEX
8
CUT
10
286.1742
20
177.0405
0
VERTEX
8
CUT
10
287.3143
20
176.9632
0
VERTEX
8
CUT
10
287.7070
20
176.4431
0
VERTEX
8
CUT
10
287.6873
20
176.4185
0
VERTEX
8
CUT
10
287.5969
20
176.3145
0
VERTEX
8
CUT
10
287.4829
20
176.1833
0
VERTEX
8
CUT
10
287.4162
20
176.1065
0
VERTEX
8
CUT
10
286.9040
20
175.5169
0
VERTEX
8
CUT
10
282.8511
20
173.7676
0
VERTEX
8
CUT
10
275.8893
20
171.6232
0
VERTEX
8
CUT
10
269.2266
20
169.9963
0
VERTEX
8
CUT
10
266.6502
20
169.4064
0
VERTEX
8
CUT
10
259.4357
20
168.0292
0
VERTEX
8
CUT
10
252.5377
20
166.9401
0
VERTEX
8
CUT
10
246.4358
20
166.1486
0
VERTEX
8
CUT
10
239.2141
20
165.6225
0
VERTEX
8
CUT
10
238.1421
20
165.4055
0
VERTEX
8
CUT
10
237.5022
20
164.8025
0
VERTEX
8
CUT
10
237.9578
20
162.7750
0
VERTEX
8
CUT
10
237.9818
20
162.2423
0
VERTEX
8
CUT
10
237.6268
20
160.4774
0
VERTEX
8
CUT
10
236.6518
20
158.6138
0
VERTEX
8
CUT
10
235.9096
20
157.8615
0
VERTEX
8
CUT
10
235.1245
20
157.3166
0
VERTEX
8
CUT
10
235.1139
20
157.3097
0
VERTEX
8
CUT
10
233.9726
20
156.8898
0
VERTEX
8
CUT
10
232.7890
20
156.9567
0
VERTEX
8
CUT
10
229.4498
20
157.6806
0
VERTEX
8
CUT
10
228.6345
20
157.4450
0
VERTEX
8
CUT
10
227.6313
20
156.7886
0
VERTEX
8
CUT
10
226.8956
20
155.6721
0
VERTEX
8
CUT
10
226.8934
20
155.2118
0
VERTEX
8
CUT
10
226.8335
20
154.8752
0
VERTEX
8
CUT
10
226.8909
20
154.7043
0
VERTEX
8
CUT
10
226.8892
20
154.3531
0
VERTEX
8
CUT
10
227.2288
20
153.6985
0
VERTEX
8
CUT
10
227.3518
20
153.3324
0
VERTEX
8
CUT
10
227.5645
20
153.0514
0
VERTEX
8
CUT
10
227.6259
20
152.9329
0
VERTEX
8
CUT
10
227.7538
20
152.8012
0
VERTEX
8
CUT
10
228.2688
20
152.1210
0
VERTEX
8
CUT
10
229.3766
20
151.2011
0
VERTEX
8
CUT
10
229.9873
20
151.0194
0
VERTEX
8
CUT
10
230.3140
20
150.8413
0
VERTEX
8
CUT
10
232.0470
20
150.4606
0
VERTEX
8
CUT
10
234.1901
20
150.4556
0
VERTEX
8
CUT
10
236.6049
20
150.6961
0
VERTEX
8
CUT
10
238.2488
20
150.6544
0
VERTEX
8
CUT
10
239.5320
20
150.4718
0
VERTEX
8
CUT
10
239.6903
20
150.4152
0
VERTEX
8
CUT
10
240.8362
20
149.6950
0
VERTEX
8
CUT
10
241.3621
20
149.1298
0
VERTEX
8
CUT
10
242.3318
20
147.5471
0
VERTEX
8
CUT
10
242.7323
20
145.7537
0
VERTEX
8
CUT
10
242.6628
20
143.6243
0
VERTEX
8
CUT
10
242.0677
20
141.4457
0
VERTEX
8
CUT
10
240.9885
20
139.0238
0
VERTEX
8
CUT
10
239.4294
20
136.4733
0
VERTEX
8
CUT
10
237.4304
20
133.8187
0
VERTEX
8
CUT
10
232.8098
20
128.9318
0
VERTEX
8
CUT
10
230.5500
20
127.2705
0
VERTEX
8
CUT
10
227.8236
20
126.0503
0
VERTEX
8
CUT
10
225.9951
20
127.0831
0
VERTEX
8
CUT
10
225.0526
20
127.8668
0
VERTEX
8
CUT
10
221.4414
20
135.7510
0
VERTEX
8
CUT
10
220.8889
20
136.4826
0
VERTEX
8
CUT
10
220.6324
20
136.9144
0
VERTEX
8
CUT
10
220.5631
20
136.9763
0
VERTEX
8
CUT
10
220.5151
20
137.0724
0
VERTEX
8
CUT
10
219.3234
20
138.1981
0
VERTEX
8
CUT
10
219.0511
20
138.4697
0
VERTEX
8
CUT
10
218.9929
20
138.5103
0
VERTEX
8
CUT
10
218.6972
20
138.7896
0
VERTEX
8
CUT
10
218.0653
20
139.1574
0
VERTEX
8
CUT
10
217.4399
20
139.5938
0
VERTEX
8
CUT
10
216.9833
20
139.7873
0
VERTEX
8
CUT
10
216.5701
20
140.0278
0
VERTEX
8
CUT
10
215.3394
20
140.4843
0
VERTEX
8
CUT
10
215.3383
20
140.4846
0
VERTEX
8
CUT
10
214.7195
20
140.7469
0
VERTEX
8
CUT
10
212.5431
20
141.1436
0
VERTEX
8
CUT
10
210.4346
20
141.1428
0
VERTEX
8
CUT
10
208.0620
20
140.8191
0
VERTEX
8
CUT
10
205.9527
20
140.2057
0
VERTEX
8
CUT
10
205.7602
20
140.1089
0
VERTEX
8
CUT
10
204.9046
20
139.8687
0
VERTEX
8
CUT
10
204.5092
20
139.6711
0
VERTEX
8
CUT
10
204.1468
20
139.1769
0
VERTEX
8
CUT
10
204.4763
20
138.8803
0
VERTEX
8
CUT
10
205.0578
20
139.0285
0
VERTEX
8
CUT
10
205.1390
20
138.9735
0
VERTEX
8
CUT
10
207.4883
20
139.4518
0
VERTEX
8
CUT
10
209.0860
20
139.5829
0
VERTEX
8
CUT
10
209.6912
20
139.5835
0
VERTEX
8
CUT
10
212.3661
20
139.1176
0
VERTEX
8
CUT
10
214.3058
20
138.2348
0
VERTEX
8
CUT
10
216.1578
20
136.8800
0
VERTEX
8
CUT
10
217.7301
20
134.9769
0
VERTEX
8
CUT
10
218.9019
20
132.7681
0
VERTEX
8
CUT
10
219.6967
20
130.3213
0
VERTEX
8
CUT
10
219.9192
20
128.7087
0
VERTEX
8
CUT
10
219.9731
20
125.6436
0
VERTEX
8
CUT
10
219.5814
20
122.4604
0
VERTEX
8
CUT
10
219.5368
20
122.2192
0
VERTEX
8
CUT
10
218.5627
20
119.6357
0
VERTEX
8
CUT
10
218.0189
20
118.7870
0
VERTEX
8
CUT
10
217.4137
20
118.3828
0
VERTEX
8
CUT
10
215.8566
20
118.0183
0
VERTEX
8
CUT
10
213.0394
20
117.7495
0
VERTEX
8
CUT
10
211.3804
20
117.8185
0
VERTEX
8
CUT
10
211.3966
20
121.3665
0
VERTEX
8
CUT
10
211.4815
20
122.8768
0
VERTEX
8
CUT
10
211.4100
20
124.2795
0
VERTEX
8
CUT
10
211.4169
20
125.8005
0
VERTEX
8
CUT
10
210.9644
20
128.7925
0
VERTEX
8
CUT
10
210.1293
20
131.1523
0
VERTEX
8
CUT
10
209.5571
20
132.1448
0
VERTEX
8
CUT
10
209.4340
20
132.2712
0
VERTEX
8
CUT
10
209.3960
20
132.3433
0
VERTEX
8
CUT
10
209.3109
20
132.4283
0
VERTEX
8
CUT
10
209.3098
20
132.4303
0
VERTEX
8
CUT
10
209.2992
20
132.4401
0
VERTEX
8
CUT
10
209.0774
20
132.6617
0
VERTEX
8
CUT
10
208.7227
20
133.1163
0
VERTEX
8
CUT
10
208.4124
20
133.3195
0
VERTEX
8
CUT
10
208.1843
20
133.5535
0
VERTEX
8
CUT
10
208.0390
20
133.5640
0
VERTEX
8
CUT
10
207.8657
20
133.6774
0
VERTEX
8
CUT
10
207.7053
20
133.6167
0
VERTEX
8
CUT
10
207.6991
20
133.6188
0
VERTEX
8
CUT
10
207.6877
20
133.6100
0
VERTEX
8
CUT
10
207.6418
20
133.5926
0
VERTEX
8
CUT
10
207.6367
20
133.5930
0
VERTEX
8
CUT
10
207.6238
20
133.5858
0
VERTEX
8
CUT
10
207.1338
20
133.4001
0
VERTEX
8
CUT
10
206.2332
20
132.5340
0
VERTEX
8
CUT
10
206.0166
20
132.2095
0
VERTEX
8
CUT
10
205.6918
20
131.7897
0
VERTEX
8
CUT
10
205.5643
20
131.5562
0
VERTEX
8
CUT
10
204.9748
20
130.8464
0
VERTEX
8
CUT
10
203.6469
20
128.0529
0
VERTEX
8
CUT
10
202.2599
20
123.2048
0
VERTEX
8
CUT
10
201.9198
20
122.4289
0
VERTEX
8
CUT
10
201.4048
20
121.9414
0
VERTEX
8
CUT
10
200.7517
20
122.0805
0
VERTEX
8
CUT
10
199.4308
20
123.5022
0
VERTEX
8
CUT
10
198.7823
20
124.9250
0
VERTEX
8
CUT
10
198.2758
20
126.6743
0
VERTEX
8
CUT
10
197.9057
20
126.8160
0
VERTEX
8
CUT
10
197.6030
20
126.5603
0
VERTEX
8
CUT
10
197.4701
20
122.6622
0
VERTEX
8
CUT
10
197.7259
20
121.0169
0
VERTEX
8
CUT
10
197.7623
20
120.5838
0
VERTEX
8
CUT
10
197.8222
20
120.3973
0
VERTEX
8
CUT
10
197.9553
20
119.5415
0
VERTEX
8
CUT
10
199.0375
20
116.6560
0
VERTEX
8
CUT
10
200.7569
20
114.1006
0
VERTEX
8
CUT
10
201.4822
20
113.3762
0
VERTEX
8
CUT
10
201.4829
20
113.3753
0
VERTEX
8
CUT
10
201.4852
20
113.3733
0
VERTEX
8
CUT
10
201.5728
20
113.2858
0
VERTEX
8
CUT
10
201.6495
20
113.1810
0
VERTEX
8
CUT
10
201.9228
20
112.9362
0
VERTEX
8
CUT
10
202.5187
20
112.3411
0
VERTEX
8
CUT
10
202.8408
20
112.0877
0
VERTEX
8
CUT
10
203.0487
20
111.8741
0
VERTEX
8
CUT
10
203.7138
20
111.3660
0
VERTEX
8
CUT
10
203.8252
20
111.2656
0
VERTEX
8
CUT
10
203.9181
20
111.2099
0
VERTEX
8
CUT
10
204.4186
20
110.8275
0
VERTEX
8
CUT
10
205.8844
20
109.8965
0
VERTEX
8
CUT
10
206.1755
20
109.7771
0
VERTEX
8
CUT
10
206.4295
20
109.6244
0
VERTEX
8
CUT
10
207.7323
20
109.0685
0
VERTEX
8
CUT
10
208.1368
20
108.9728
0
VERTEX
8
CUT
10
208.7143
20
108.7360
0
VERTEX
8
CUT
10
209.2589
20
108.7074
0
VERTEX
8
CUT
10
209.5212
20
108.6454
0
VERTEX
8
CUT
10
209.6453
20
108.6405
0
VERTEX
8
CUT
10
209.8771
20
108.5812
0
VERTEX
8
CUT
10
210.5831
20
108.5454
0
VERTEX
8
CUT
10
210.7005
20
108.5196
0
VERTEX
8
CUT
10
211.0921
20
108.5108
0
VERTEX
8
CUT
10
211.0985
20
108.5038
0
VERTEX
8
CUT
10
211.9880
20
108.2403
0
VERTEX
8
CUT
10
212.9105
20
108.3721
0
VERTEX
8
CUT
10
213.0281
20
108.4676
0
VERTEX
8
CUT
10
213.6793
20
108.4531
0
VERTEX
8
CUT
10
213.7761
20
108.4774
0
VERTEX
8
CUT
10
214.4625
20
108.4503
0
VERTEX
8
CUT
10
217.7724
20
108.7747
0
VERTEX
8
CUT
10
223.5166
20
109.9296
0
VERTEX
8
CUT
10
226.3726
20
110.0355
0
VERTEX
8
CUT
10
226.5315
20
110.4405
0
VERTEX
8
CUT
10
226.2433
20
110.7455
0
VERTEX
8
CUT
10
221.7241
20
111.8908
0
VERTEX
8
CUT
10
221.2690
20
112.1707
0
VERTEX
8
CUT
10
221.2272
20
112.4278
0
VERTEX
8
CUT
10
221.7684
20
113.1772
0
VERTEX
8
CUT
10
223.1917
20
114.4672
0
VERTEX
8
CUT
10
227.2981
20
117.4461
0
VERTEX
8
CUT
10
227.4224
20
117.5050
0
VERTEX
8
CUT
10
227.4529
20
117.5194
0
VERTEX
8
CUT
10
227.4591
20
117.5223
0
VERTEX
8
CUT
10
227.4676
20
117.5263
0
VERTEX
8
CUT
10
229.6768
20
118.5529
0
VERTEX
8
CUT
10
235.8142
20
120.8825
0
VERTEX
8
CUT
10
237.7172
20
121.9014
0
VERTEX
8
CUT
10
239.6132
20
123.3477
0
VERTEX
8
CUT
10
241.4455
20
125.1124
0
VERTEX
8
CUT
10
242.7712
20
126.7254
0
VERTEX
8
CUT
10
243.7102
20
128.2234
0
VERTEX
8
CUT
10
244.2699
20
128.4451
0
VERTEX
8
CUT
10
244.6126
20
128.3365
0
VERTEX
8
CUT
10
244.8804
20
127.8969
0
VERTEX
8
CUT
10
245.0772
20
126.1537
0
VERTEX
8
CUT
10
245.0303
20
125.1607
0
VERTEX
8
CUT
10
244.8656
20
123.7483
0
VERTEX
8
CUT
10
244.0820
20
120.9330
0
VERTEX
8
CUT
10
243.3841
20
119.2679
0
VERTEX
8
CUT
10
241.5573
20
116.0085
0
VERTEX
8
CUT
10
239.2514
20
112.8333
0
VERTEX
8
CUT
10
238.5890
20
111.9504
0
VERTEX
8
CUT
10
238.4850
20
111.7781
0
VERTEX
8
CUT
10
238.4822
20
111.7743
0
VERTEX
8
CUT
10
238.4403
20
111.7040
0
VERTEX
8
CUT
10
237.6511
20
110.3973
0
VERTEX
8
CUT
10
237.6453
20
110.3731
0
VERTEX
8
CUT
10
236.8979
20
109.1217
0
VERTEX
8
CUT
10
236.8616
20
108.7085
0
VERTEX
8
CUT
10
237.4591
20
107.7732
0
VERTEX
8
CUT
10
237.7641
20
106.4869
0
VERTEX
8
CUT
10
237.7252
20
104.9281
0
VERTEX
8
CUT
10
237.0356
20
102.6519
0
VERTEX
8
CUT
10
235.2091
20
100.2944
0
VERTEX
8
CUT
10
233.2978
20
98.8140
0
VERTEX
8
CUT
10
227.2019
20
95.3954
0
VERTEX
8
CUT
10
226.4711
20
95.0196
0
VERTEX
8
CUT
10
226.3030
20
94.8913
0
VERTEX
8
CUT
10
224.6957
20
93.9900
0
VERTEX
8
CUT
10
223.6647
20
92.1803
0
VERTEX
8
CUT
10
222.7444
20
89.8618
0
VERTEX
8
CUT
10
222.6519
20
89.1177
0
VERTEX
8
CUT
10
222.4805
20
88.2576
0
VERTEX
8
CUT
10
222.4950
20
87.8546
0
VERTEX
8
CUT
10
222.3806
20
86.9343
0
VERTEX
8
CUT
10
222.9905
20
84.2387
0
VERTEX
8
CUT
10
224.5839
20
81.7471
0
VERTEX
8
CUT
10
227.3388
20
78.9521
0
VERTEX
8
CUT
10
227.4849
20
78.4326
0
VERTEX
8
CUT
10
227.3319
20
78.1179
0
VERTEX
8
CUT
10
226.2106
20
77.4643
0
VERTEX
8
CUT
10
224.8815
20
77.4579
0
VERTEX
8
CUT
10
223.3753
20
77.9329
0
VERTEX
8
CUT
10
221.7119
20
78.7507
0
VERTEX
8
CUT
10
218.4180
20
81.2212
0
VERTEX
8
CUT
10
216.9192
20
82.7831
0
VERTEX
8
CUT
10
214.0987
20
86.7532
0
VERTEX
8
CUT
10
213.2259
20
86.4531
0
VERTEX
8
CUT
10
212.2238
20
85.6979
0
VERTEX
8
CUT
10
211.7904
20
85.5403
0
VERTEX
8
CUT
10
211.8562
20
85.1449
0
VERTEX
8
CUT
10
212.3834
20
84.6837
0
VERTEX
8
CUT
10
212.7309
20
84.5399
0
VERTEX
8
CUT
10
214.3316
20
83.2289
0
VERTEX
8
CUT
10
218.0150
20
79.7431
0
VERTEX
8
CUT
10
220.8897
20
77.5017
0
VERTEX
8
CUT
10
223.2738
20
76.4654
0
VERTEX
8
CUT
10
224.5242
20
76.2627
0
VERTEX
8
CUT
10
229.1587
20
76.6858
0
VERTEX
8
CUT
10
229.6797
20
76.4782
0
VERTEX
8
CUT
10
230.0991
20
76.0003
0
VERTEX
8
CUT
10
230.1736
20
75.8575
0
VERTEX
8
CUT
10
230.1845
20
75.8367
0
VERTEX
8
CUT
10
230.2146
20
75.7790
0
VERTEX
8
CUT
10
230.2792
20
75.6553
0
VERTEX
8
CUT
10
230.5970
20
74.4433
0
VERTEX
8
CUT
10
230.6021
20
74.4077
0
VERTEX
8
CUT
10
230.6289
20
73.3045
0
VERTEX
8
CUT
10
230.6028
20
73.0820
0
VERTEX
8
CUT
10
229.9959
20
71.6122
0
VERTEX
8
CUT
10
229.3019
20
70.8313
0
VERTEX
8
CUT
10
228.6662
20
70.2276
0
VERTEX
8
CUT
10
227.8098
20
69.7937
0
VERTEX
8
CUT
10
225.1453
20
69.2940
0
VERTEX
8
CUT
10
225.0344
20
69.3103
0
VERTEX
8
CUT
10
224.5717
20
69.1883
0
VERTEX
8
CUT
10
224.5689
20
69.1859
0
VERTEX
8
CUT
10
224.2338
20
69.1230
0
VERTEX
8
CUT
10
223.8947
20
68.6991
0
VERTEX
8
CUT
10
223.7054
20
67.5880
0
VERTEX
8
CUT
10
223.2834
20
67.1536
0
VERTEX
8
CUT
10
222.4471
20
67.4106
0
VERTEX
8
CUT
10
221.7649
20
68.0916
0
VERTEX
8
CUT
10
221.2756
20
68.9071
0
VERTEX
8
CUT
10
220.9076
20
70.2599
0
VERTEX
8
CUT
10
219.9956
20
71.4346
0
VERTEX
8
CUT
10
218.1094
20
72.7544
0
VERTEX
8
CUT
10
217.7461
20
72.7095
0
VERTEX
8
CUT
10
217.5805
20
72.3831
0
VERTEX
8
CUT
10
218.1947
20
70.5025
0
VERTEX
8
CUT
10
219.4713
20
68.5323
0
VERTEX
8
CUT
10
222.2260
20
64.9900
0
VERTEX
8
CUT
10
224.6317
20
62.4188
0
VERTEX
8
CUT
10
225.9975
20
61.7203
0
VERTEX
8
CUT
10
229.9141
20
60.8964
0
VERTEX
8
CUT
10
231.0045
20
60.3203
0
VERTEX
8
CUT
10
231.1382
20
60.1675
0
VERTEX
8
CUT
10
231.5048
20
59.5320
0
VERTEX
8
CUT
10
231.5144
20
59.5154
0
VERTEX
8
CUT
10
231.9625
20
57.7716
0
VERTEX
8
CUT
10
231.8667
20
56.2035
0
VERTEX
8
CUT
10
231.3306
20
54.8067
0
VERTEX
8
CUT
10
230.3638
20
53.6761
0
VERTEX
8
CUT
10
228.9667
20
52.7447
0
VERTEX
8
CUT
10
227.6875
20
52.2254
0
VERTEX
8
CUT
10
225.3440
20
52.1600
0
VERTEX
8
CUT
10
222.2480
20
52.9506
0
VERTEX
8
CUT
10
220.5762
20
53.6834
0
VERTEX
8
CUT
10
217.1580
20
55.7932
0
VERTEX
8
CUT
10
213.8107
20
58.6124
0
VERTEX
8
CUT
10
209.9173
20
62.9679
0
VERTEX
8
CUT
10
205.9169
20
68.3566
0
VERTEX
8
CUT
10
201.2282
20
75.5186
0
VERTEX
8
CUT
10
200.0882
20
76.7913
0
VERTEX
8
CUT
10
199.4619
20
76.3791
0
VERTEX
8
CUT
10
199.2938
20
76.3073
0
VERTEX
8
CUT
10
199.1414
20
76.1682
0
VERTEX
8
CUT
10
198.6079
20
75.8170
0
VERTEX
8
CUT
10
198.1967
20
75.3059
0
VERTEX
8
CUT
10
198.1834
20
75.2937
0
VERTEX
8
CUT
10
198.1458
20
75.2425
0
VERTEX
8
CUT
10
196.8002
20
73.5696
0
VERTEX
8
CUT
10
196.7191
20
73.3015
0
VERTEX
8
CUT
10
196.7102
20
73.2894
0
VERTEX
8
CUT
10
196.6425
20
73.0484
0
VERTEX
8
CUT
10
196.2191
20
71.6489
0
VERTEX
8
CUT
10
195.6380
20
67.9209
0
VERTEX
8
CUT
10
195.0758
20
66.8158
0
VERTEX
8
CUT
10
193.6056
20
65.3902
0
VERTEX
8
CUT
10
191.7428
20
64.7396
0
VERTEX
8
CUT
10
186.1159
20
64.2817
0
VERTEX
8
CUT
10
184.8449
20
63.6021
0
VERTEX
8
CUT
10
183.0876
20
62.1385
0
VERTEX
8
CUT
10
182.0961
20
63.5660
0
VERTEX
8
CUT
10
181.5446
20
63.5071
0
VERTEX
8
CUT
10
181.5867
20
62.6520
0
VERTEX
8
CUT
10
183.0543
20
57.6459
0
VERTEX
8
CUT
10
183.1663
20
56.7625
0
VERTEX
8
CUT
10
183.1717
20
56.7051
0
VERTEX
8
CUT
10
183.1676
20
56.6056
0
VERTEX
8
CUT
10
183.1625
20
56.4829
0
VERTEX
8
CUT
10
183.1594
20
56.4098
0
VERTEX
8
CUT
10
183.1436
20
56.0292
0
VERTEX
8
CUT
10
182.8582
20
54.5208
0
VERTEX
8
CUT
10
182.5325
20
54.0202
0
VERTEX
8
CUT
10
182.3812
20
53.8631
0
VERTEX
8
CUT
10
182.3184
20
53.7979
0
VERTEX
8
CUT
10
182.2188
20
53.6945
0
VERTEX
8
CUT
10
181.9393
20
53.4043
0
VERTEX
8
CUT
10
181.7014
20
53.1948
0
VERTEX
8
CUT
10
180.8735
20
52.8259
0
VERTEX
8
CUT
10
180.0753
20
52.5993
0
VERTEX
8
CUT
10
179.5355
20
52.4997
0
VERTEX
8
CUT
10
178.2339
20
52.4660
0
VERTEX
8
CUT
10
177.9270
20
52.4771
0
VERTEX
8
CUT
10
177.8774
20
52.4789
0
VERTEX
8
CUT
10
177.8535
20
52.4798
0
VERTEX
8
CUT
10
177.3745
20
52.4972
0
VERTEX
8
CUT
10
175.8008
20
52.8018
0
VERTEX
8
CUT
10
171.9464
20
53.8454
0
VERTEX
8
CUT
10
168.8513
20
54.7274
0
VERTEX
8
CUT
10
166.0477
20
55.3151
0
VERTEX
8
CUT
10
164.4114
20
55.4586
0
VERTEX
8
CUT
10
164.2853
20
55.4789
0
VERTEX
8
CUT
10
164.1788
20
55.4790
0
VERTEX
8
CUT
10
163.4027
20
55.5470
0
VERTEX
8
CUT
10
157.6782
20
55.4646
0
VERTEX
8
CUT
10
157.4966
20
55.7995
0
VERTEX
8
CUT
10
158.1610
20
57.0211
0
VERTEX
8
CUT
10
157.9969
20
57.3140
0
VERTEX
8
CUT
10
157.4799
20
57.5261
0
VERTEX
8
CUT
10
157.1892
20
58.3888
0
VERTEX
8
CUT
10
157.3874
20
59.8153
0
VERTEX
8
CUT
10
158.0156
20
61.5219
0
VERTEX
8
CUT
10
157.9257
20
61.9575
0
VERTEX
8
CUT
10
157.5353
20
62.0855
0
VERTEX
8
CUT
10
156.1426
20
61.4861
0
VERTEX
8
CUT
10
155.1390
20
60.7853
0
VERTEX
8
CUT
10
153.9992
20
59.8387
0
VERTEX
8
CUT
10
152.7468
20
58.4205
0
VERTEX
8
CUT
10
151.1605
20
55.4967
0
VERTEX
8
CUT
10
150.4198
20
53.1445
0
VERTEX
8
CUT
10
149.4623
20
49.0190
0
VERTEX
8
CUT
10
149.3674
20
48.8110
0
VERTEX
8
CUT
10
148.8965
20
47.8519
0
VERTEX
8
CUT
10
147.5002
20
46.2606
0
VERTEX
8
CUT
10
147.1327
20
46.0122
0
VERTEX
8
CUT
10
146.6432
20
45.6822
0
VERTEX
8
CUT
10
145.5858
20
45.3074
0
VERTEX
8
CUT
10
144.7665
20
45.1913
0
VERTEX
8
CUT
10
144.7624
20
45.1914
0
VERTEX
8
CUT
10
144.7419
20
45.1919
0
VERTEX
8
CUT
10
144.6188
20
45.1947
0
VERTEX
8
CUT
10
143.9608
20
45.2099
0
VERTEX
8
CUT
10
141.7558
20
45.5839
0
VERTEX
8
CUT
10
138.7915
20
46.9346
0
VERTEX
8
CUT
10
134.5715
20
49.5710
0
VERTEX
8
CUT
10
132.5155
20
50.5378
0
VERTEX
8
CUT
10
130.3370
20
51.0037
0
VERTEX
8
CUT
10
129.8139
20
51.0414
0
VERTEX
8
CUT
10
128.9304
20
51.1313
0
VERTEX
8
CUT
10
128.7336
20
51.1191
0
VERTEX
8
CUT
10
127.6335
20
51.1983
0
VERTEX
8
CUT
10
124.2137
20
51.2171
0
VERTEX
8
CUT
10
121.7803
20
48.5944
0
VERTEX
8
CUT
10
121.6404
20
48.4834
0
VERTEX
8
CUT
10
121.6252
20
48.4713
0
VERTEX
8
CUT
10
121.3533
20
48.2557
0
VERTEX
8
CUT
10
120.8835
20
47.8830
0
VERTEX
8
CUT
10
120.6181
20
47.6725
0
VERTEX
8
CUT
10
120.6015
20
47.6594
0
VERTEX
8
CUT
10
120.4301
20
47.5234
0
VERTEX
8
CUT
10
119.8195
20
47.1752
0
VERTEX
8
CUT
10
117.5716
20
46.1300
0
VERTEX
8
CUT
10
117.3264
20
46.0723
0
VERTEX
8
CUT
10
117.0785
20
46.0139
0
VERTEX
8
CUT
10
116.7762
20
45.9427
0
VERTEX
8
CUT
10
115.8726
20
45.7299
0
VERTEX
8
CUT
10
115.5199
20
45.7210
0
VERTEX
8
CUT
10
113.2642
20
45.9764
0
VERTEX
8
CUT
10
113.0794
20
46.0474
0
VERTEX
8
CUT
10
112.1239
20
46.4811
0
VERTEX
8
CUT
10
111.2139
20
47.2182
0
VERTEX
8
CUT
10
109.9810
20
48.7943
0
VERTEX
8
CUT
10
109.8590
20
49.0430
0
VERTEX
8
CUT
10
109.6141
20
49.7481
0
VERTEX
8
CUT
10
109.5848
20
50.2155
0
VERTEX
8
CUT
10
109.5848
20
50.2156
0
VERTEX
8
CUT
10
109.5842
20
50.2250
0
VERTEX
8
CUT
10
109.5524
20
50.7325
0
VERTEX
8
CUT
10
109.5159
20
51.9579
0
VERTEX
8
CUT
10
109.5578
20
52.1479
0
VERTEX
8
CUT
10
110.7316
20
56.3762
0
VERTEX
8
CUT
10
110.8268
20
57.3507
0
VERTEX
8
CUT
10
110.5546
20
57.9652
0
VERTEX
8
CUT
10
110.1938
20
58.2654
0
VERTEX
8
CUT
10
109.9505
20
58.3442
0
VERTEX
8
CUT
10
109.7974
20
58.4311
0
VERTEX
8
CUT
10
109.6164
20
58.4524
0
VERTEX
8
CUT
10
109.5518
20
58.4734
0
VERTEX
8
CUT
10
109.5077
20
58.4652
0
VERTEX
8
CUT
10
109.2078
20
58.5006
0
VERTEX
8
CUT
10
108.8963
20
58.3525
0
VERTEX
8
CUT
10
108.8047
20
58.3356
0
VERTEX
8
CUT
10
108.1196
20
57.9835
0
VERTEX
8
CUT
10
108.0105
20
57.9316
0
VERTEX
8
CUT
10
107.9928
20
57.9183
0
VERTEX
8
CUT
10
107.7746
20
57.8061
0
VERTEX
8
CUT
10
105.7032
20
56.2523
0
VERTEX
8
CUT
10
103.2175
20
54.0606
0
VERTEX
8
CUT
10
78.6942
20
22.1823
0
VERTEX
8
CUT
10
78.5554
20
22.0093
0
VERTEX
8
CUT
10
73.8328
20
16.4076
0
VERTEX
8
CUT
10
67.5022
20
9.8791
0
VERTEX
8
CUT
10
65.3748
20
7.9515
0
VERTEX
8
CUT
10
61.3545
20
4.8209
0
VERTEX
8
CUT
10
58.8324
20
3.3447
0
VERTEX
8
CUT
10
56.8617
20
2.2999
0
VERTEX
8
CUT
10
53.7057
20
1.0440
0
VERTEX
8
CUT
10
53.7055
20
1.0439
0
VERTEX
8
CUT
10
53.7030
20
1.0430
0
VERTEX
8
CUT
10
53.6827
20
1.0360
0
VERTEX
8
CUT
10
53.4147
20
0.9430
0
VERTEX
8
CUT
10
51.2506
20
0.4976
0
VERTEX
8
CUT
10
48.6024
20
0.2961
0
VERTEX
8
CUT
10
44.9587
20
0.5345
0
VERTEX
8
CUT
10
43.2316
20
1.0662
0
VERTEX
8
CUT
10
41.5589
20
1.9220
0
VERTEX
8
CUT
10
39.9286
20
3.0560
0
VERTEX
8
CUT
10
38.2378
20
4.6897
0
VERTEX
8
CUT
10
37.7387
20
5.3878
0
VERTEX
8
CUT
10
37.7147
20
5.4214
0
VERTEX
8
CUT
10
37.6559
20
5.5037
0
VERTEX
8
CUT
10
37.5315
20
5.6776
0
VERTEX
8
CUT
10
36.0535
20
8.1123
0
VERTEX
8
CUT
10
35.7735
20
8.6719
0
VERTEX
8
CUT
10
34.1676
20
13.0216
0
VERTEX
8
CUT
10
32.8478
20
18.6047
0
VERTEX
8
CUT
10
31.9244
20
24.9773
0
VERTEX
8
CUT
10
31.5956
20
29.6315
0
VERTEX
8
CUT
10
31.4631
20
32.5964
0
VERTEX
8
CUT
10
31.5789
20
43.6850
0
VERTEX
8
CUT
10
31.7614
20
47.2847
0
VERTEX
8
CUT
10
32.6199
20
55.2364
0
VERTEX
8
CUT
10
34.3685
20
64.7686
0
VERTEX
8
CUT
10
36.8752
20
74.9593
0
VERTEX
8
CUT
10
39.4671
20
83.3810
0
VERTEX
8
CUT
10
40.1288
20
85.2911
0
VERTEX
8
CUT
10
40.3082
20
85.8091
0
VERTEX
8
CUT
10
40.3218
20
85.8482
0
VERTEX
8
CUT
10
40.3540
20
85.9412
0
VERTEX
8
CUT
10
41.2592
20
88.3752
0
VERTEX
8
CUT
10
42.7249
20
91.6729
0
VERTEX
8
CUT
10
43.6530
20
93.4336
0
VERTEX
8
CUT
10
43.6890
20
93.4995
0
VERTEX
8
CUT
10
43.7099
20
93.5376
0
VERTEX
8
CUT
10
43.7230
20
93.5616
0
VERTEX
8
CUT
10
43.7363
20
93.5859
0
VERTEX
8
CUT
10
45.0837
20
95.5674
0
VERTEX
8
CUT
10
45.6361
20
96.3548
0
VERTEX
8
CUT
10
45.7231
20
96.4789
0
VERTEX
8
CUT
10
45.8082
20
96.6001
0
VERTEX
8
CUT
10
46.0603
20
96.9595
0
VERTEX
8
CUT
10
48.0875
20
99.0397
0
VERTEX
8
CUT
10
48.6346
20
99.5482
0
VERTEX
8
CUT
10
51.1215
20
101.1819
0
VERTEX
8
CUT
10
53.7141
20
101.9187
0
VERTEX
8
CUT
10
53.9325
20
101.9482
0
VERTEX
8
CUT
10
54.1405
20
101.9764
0
VERTEX
8
CUT
10
54.2234
20
101.9876
0
VERTEX
8
CUT
10
54.2991
20
101.9979
0
VERTEX
8
CUT
10
55.2100
20
101.8775
0
VERTEX
8
CUT
10
55.8809
20
101.2116
0
VERTEX
8
CUT
10
56.0974
20
100.0893
0
VERTEX
8
CUT
10
55.9955
20
99.1090
0
VERTEX
8
CUT
10
54.7796
20
95.4568
0
VERTEX
8
CUT
10
54.2071
20
92.7809
0
VERTEX
8
CUT
10
53.6124
20
91.2607
0
VERTEX
8
CUT
10
52.7403
20
89.9694
0
VERTEX
8
CUT
10
49.8944
20
87.1893
0
VERTEX
8
CUT
10
48.2940
20
85.2976
0
VERTEX
8
CUT
10
46.7686
20
83.0449
0
VERTEX
8
CUT
10
46.4276
20
82.4061
0
VERTEX
8
CUT
10
46.3368
20
82.2768
0
VERTEX
8
CUT
10
45.9419
20
81.4961
0
VERTEX
8
CUT
10
43.9504
20
77.7652
0
VERTEX
8
CUT
10
41.4295
20
71.2825
0
VERTEX
8
CUT
10
40.2737
20
67.5504
0
VERTEX
8
CUT
10
38.7616
20
61.4663
0
VERTEX
8
CUT
10
37.5785
20
55.0549
0
VERTEX
8
CUT
10
36.7259
20
48.4634
0
VERTEX
8
CUT
10
36.1994
20
41.8545
0
VERTEX
8
CUT
10
36.0673
20
35.3207
0
VERTEX
8
CUT
10
36.2966
20
29.1637
0
VERTEX
8
CUT
10
36.8869
20
23.4492
0
VERTEX
8
CUT
10
37.8362
20
18.3355
0
VERTEX
8
CUT
10
38.6286
20
15.8538
0
VERTEX
8
CUT
10
39.6990
20
13.3564
0
VERTEX
8
CUT
10
39.9581
20
12.9134
0
VERTEX
8
CUT
10
40.9820
20
11.0530
0
VERTEX
8
CUT
10
41.2929
20
10.6318
0
VERTEX
8
CUT
10
41.5823
20
10.1370
0
VERTEX
8
CUT
10
41.8621
20
9.8604
0
VERTEX
8
CUT
10
42.2420
20
9.3456
0
VERTEX
8
CUT
10
42.9757
20
8.7596
0
VERTEX
8
CUT
10
43.6930
20
8.0506
0
VERTEX
8
CUT
10
45.3999
20
7.0586
0
VERTEX
8
CUT
10
47.2749
20
6.4390
0
VERTEX
8
CUT
10
49.2092
20
6.1869
0
VERTEX
8
CUT
10
51.2799
20
6.2809
0
VERTEX
8
CUT
10
53.5146
20
6.7791
0
VERTEX
8
CUT
10
55.7148
20
7.6082
0
VERTEX
8
CUT
10
58.0498
20
8.8231
0
VERTEX
8
CUT
10
58.5149
20
9.1651
0
VERTEX
8
CUT
10
58.6566
20
9.2379
0
VERTEX
8
CUT
10
58.9662
20
9.4968
0
VERTEX
8
CUT
10
61.9931
20
11.7221
0
VERTEX
8
CUT
10
66.2912
20
15.8197
0
VERTEX
8
CUT
10
70.8231
20
21.0098
0
VERTEX
8
CUT
10
75.5246
20
27.1916
0
VERTEX
8
CUT
10
80.3939
20
34.3319
0
VERTEX
8
CUT
10
85.3300
20
42.3617
0
VERTEX
8
CUT
10
90.3006
20
51.1842
0
VERTEX
8
CUT
10
95.6972
20
61.5827
0
VERTEX
8
CUT
10
96.7276
20
62.9348
0
VERTEX
8
CUT
10
97.0228
20
62.9154
0
VERTEX
8
CUT
10
97.2457
20
62.5764
0
VERTEX
8
CUT
10
97.3160
20
60.2286
0
VERTEX
8
CUT
10
97.5471
20
59.2315
0
VERTEX
8
CUT
10
98.1193
20
58.4428
0
VERTEX
8
CUT
10
98.6642
20
58.5593
0
VERTEX
8
CUT
10
100.5573
20
65.6618
0
VERTEX
8
CUT
10
100.8135
20
67.6851
0
VERTEX
8
CUT
10
100.6340
20
69.0386
0
VERTEX
8
CUT
10
100.3747
20
69.6295
0
VERTEX
8
CUT
10
99.3881
20
70.4992
0
VERTEX
8
CUT
10
98.6503
20
70.7353
0
VERTEX
8
CUT
10
98.3422
20
70.6928
0
VERTEX
8
CUT
10
98.1422
20
70.7295
0
VERTEX
8
CUT
10
97.3813
20
70.6310
0
VERTEX
8
CUT
10
97.1328
20
70.5262
0
VERTEX
8
CUT
10
97.0465
20
70.5143
0
VERTEX
8
CUT
10
96.9193
20
70.4361
0
VERTEX
8
CUT
10
95.9387
20
70.0224
0
VERTEX
8
CUT
10
95.1598
20
69.3544
0
VERTEX
8
CUT
10
95.0455
20
69.2841
0
VERTEX
8
CUT
10
94.9542
20
69.2009
0
VERTEX
8
CUT
10
94.8044
20
69.1010
0
VERTEX
8
CUT
10
94.6967
20
68.9662
0
VERTEX
8
CUT
10
93.9783
20
68.3112
0
VERTEX
8
CUT
10
91.9366
20
65.8795
0
VERTEX
8
CUT
10
89.6005
20
62.5893
0
VERTEX
8
CUT
10
86.5731
20
57.8163
0
VERTEX
8
CUT
10
86.5759
20
57.4820
0
VERTEX
8
CUT
10
86.8745
20
57.2660
0
VERTEX
8
CUT
10
87.6819
20
57.6358
0
VERTEX
8
CUT
10
88.1996
20
57.6429
0
VERTEX
8
CUT
10
88.3487
20
57.2968
0
VERTEX
8
CUT
10
88.0306
20
56.1502
0
VERTEX
8
CUT
10
83.7862
20
48.4502
0
VERTEX
8
CUT
10
83.1725
20
47.3746
0
VERTEX
8
CUT
10
80.0221
20
42.1439
0
VERTEX
8
CUT
10
79.8594
20
41.8965
0
VERTEX
8
CUT
10
77.6802
20
38.5974
0
VERTEX
8
CUT
10
77.1227
20
37.7535
0
VERTEX
8
CUT
10
76.7582
20
37.2016
0
VERTEX
8
CUT
10
76.6544
20
37.0445
0
VERTEX
8
CUT
10
73.6872
20
33.0033
0
VERTEX
8
CUT
10
70.7484
20
29.4688
0
VERTEX
8
CUT
10
67.9403
20
26.5625
0
VERTEX
8
CUT
10
65.2675
20
24.3528
0
VERTEX
8
CUT
10
62.6913
20
22.7995
0
VERTEX
8
CUT
10
60.5896
20
21.8621
0
VERTEX
8
CUT
10
59.4248
20
21.6169
0
VERTEX
8
CUT
10
55.9256
20
21.5135
0
VERTEX
8
CUT
10
53.9456
20
21.6554
0
VERTEX
8
CUT
10
52.0706
20
22.4461
0
VERTEX
8
CUT
10
50.6628
20
23.5607
0
VERTEX
8
CUT
10
50.2968
20
23.8801
0
VERTEX
8
CUT
10
50.1166
20
24.0373
0
VERTEX
8
CUT
10
50.1127
20
24.0407
0
VERTEX
8
CUT
10
49.8624
20
24.2591
0
VERTEX
8
CUT
10
49.1815
20
25.0804
0
VERTEX
8
CUT
10
49.1813
20
25.0806
0
VERTEX
8
CUT
10
47.8968
20
27.3863
0
VERTEX
8
CUT
10
47.0802
20
30.2388
0
VERTEX
8
CUT
10
46.9341
20
32.6184
0
VERTEX
8
CUT
10
47.0527
20
36.0399
0
VERTEX
8
CUT
10
47.6320
20
38.4565
0
VERTEX
8
CUT
10
48.3591
20
40.5084
0
VERTEX
8
CUT
10
50.7300
20
44.7560
0
VERTEX
8
CUT
10
52.3767
20
46.9411
0
VERTEX
8
CUT
10
56.3551
20
51.4470
0
VERTEX
8
CUT
10
56.4192
20
51.5410
0
VERTEX
8
CUT
10
56.6207
20
51.7675
0
VERTEX
8
CUT
10
56.7162
20
51.9770
0
VERTEX
8
CUT
10
57.1982
20
52.6845
0
VERTEX
8
CUT
10
57.6391
20
53.9756
0
VERTEX
8
CUT
10
56.9067
20
54.9993
0
VERTEX
8
CUT
10
56.7049
20
55.0891
0
VERTEX
8
CUT
10
56.5883
20
55.2741
0
VERTEX
8
CUT
10
55.5762
20
55.6118
0
VERTEX
8
CUT
10
55.5427
20
55.6062
0
VERTEX
8
CUT
10
55.5416
20
55.6066
0
VERTEX
8
CUT
10
50.0264
20
54.8225
0
VERTEX
8
CUT
10
47.9608
20
55.0601
0
VERTEX
8
CUT
10
46.7835
20
55.6082
0
VERTEX
8
CUT
10
45.6828
20
56.4554
0
VERTEX
8
CUT
10
45.5726
20
56.5923
0
VERTEX
8
CUT
10
44.7785
20
57.9834
0
VERTEX
8
CUT
10
44.5103
20
59.7910
0
VERTEX
8
CUT
10
44.7832
20
61.6153
0
VERTEX
8
CUT
10
44.7866
20
61.6245
0
VERTEX
8
CUT
10
45.3290
20
62.5948
0
VERTEX
8
CUT
10
45.5568
20
62.9530
0
VERTEX
8
CUT
10
45.8094
20
63.2341
0
VERTEX
8
CUT
10
46.4960
20
63.6732
0
VERTEX
8
CUT
10
47.7897
20
63.8078
0
VERTEX
8
CUT
10
54.1821
20
63.6760
0
VERTEX
8
CUT
10
56.3898
20
63.9382
0
VERTEX
8
CUT
10
63.1620
20
65.5416
0
VERTEX
8
CUT
10
66.7640
20
66.8647
0
VERTEX
8
CUT
10
66.8623
20
67.3460
0
VERTEX
8
CUT
10
66.4483
20
67.5493
0
VERTEX
8
CUT
10
64.3347
20
66.8194
0
VERTEX
8
CUT
10
60.7139
20
65.9637
0
VERTEX
8
CUT
10
51.9707
20
64.5441
0
VERTEX
8
CUT
10
50.0607
20
64.7811
0
VERTEX
8
CUT
10
49.5323
20
65.1790
0
VERTEX
8
CUT
10
49.4202
20
65.5225
0
VERTEX
8
CUT
10
49.7202
20
65.9628
0
VERTEX
8
CUT
10
50.5557
20
66.4018
0
VERTEX
8
CUT
10
52.4291
20
67.0928
0
VERTEX
8
CUT
10
56.4842
20
68.4657
0
VERTEX
8
CUT
10
57.9913
20
69.1443
0
VERTEX
8
CUT
10
58.9451
20
69.4961
0
VERTEX
8
CUT
10
61.2329
20
70.6884
0
VERTEX
8
CUT
10
63.2903
20
72.0483
0
VERTEX
8
CUT
10
65.0552
20
73.4603
0
VERTEX
8
CUT
10
66.5848
20
74.9865
0
VERTEX
8
CUT
10
67.4262
20
76.0767
0
VERTEX
8
CUT
10
67.5484
20
76.2134
0
VERTEX
8
CUT
10
67.6424
20
76.3569
0
VERTEX
8
CUT
10
67.8873
20
76.6743
0
VERTEX
8
CUT
10
68.0153
20
76.9264
0
VERTEX
8
CUT
10
68.7809
20
78.0955
0
VERTEX
8
CUT
10
69.2955
20
79.4474
0
VERTEX
8
CUT
10
69.5514
20
79.9512
0
VERTEX
8
CUT
10
69.5719
20
80.1735
0
VERTEX
8
CUT
10
69.7778
20
80.7144
0
VERTEX
8
CUT
10
69.7039
20
81.2879
0
VERTEX
8
CUT
10
69.6778
20
81.3198
0
VERTEX
8
CUT
10
69.6886
20
81.4358
0
VERTEX
8
CUT
10
69.2915
20
82.0799
0
VERTEX
8
CUT
10
68.6449
20
82.4770
0
VERTEX
8
CUT
10
68.5274
20
82.4680
0
VERTEX
8
CUT
10
68.4625
20
82.5209
0
VERTEX
8
CUT
10
68.3429
20
82.5164
0
VERTEX
8
CUT
10
68.2477
20
82.5554
0
VERTEX
8
CUT
10
68.1385
20
82.5089
0
VERTEX
8
CUT
10
68.0007
20
82.5038
0
VERTEX
8
CUT
10
67.8292
20
82.4140
0
VERTEX
8
CUT
10
67.4169
20
82.3822
0
VERTEX
8
CUT
10
65.5473
20
81.1961
0
VERTEX
8
CUT
10
61.9691
20
78.4945
0
VERTEX
8
CUT
10
61.9433
20
78.4790
0
VERTEX
8
CUT
10
61.9247
20
78.4678
0
VERTEX
8
CUT
10
61.8271
20
78.4091
0
VERTEX
8
CUT
10
61.4447
20
78.1790
0
VERTEX
8
CUT
10
61.2054
20
78.0701
0
VERTEX
8
CUT
10
59.7478
20
77.5599
0
VERTEX
8
CUT
10
58.4780
20
77.2320
0
VERTEX
8
CUT
10
57.0647
20
77.2635
0
VERTEX
8
CUT
10
55.8437
20
77.7346
0
VERTEX
8
CUT
10
55.8360
20
77.7395
0
VERTEX
8
CUT
10
54.8500
20
78.5440
0
VERTEX
8
CUT
10
54.8211
20
78.5729
0
VERTEX
8
CUT
10
54.4039
20
79.1528
0
VERTEX
8
CUT
10
53.7714
20
80.8258
0
VERTEX
8
CUT
10
53.8033
20
81.6705
0
VERTEX
8
CUT
10
53.8677
20
82.5308
0
VERTEX
8
CUT
10
53.8843
20
82.7527
0
VERTEX
8
CUT
10
53.8894
20
82.8210
0
VERTEX
8
CUT
10
53.8969
20
82.9207
0
VERTEX
8
CUT
10
54.6477
20
85.0105
0
VERTEX
8
CUT
10
57.3503
20
90.0237
0
VERTEX
8
CUT
10
58.0936
20
92.1624
0
VERTEX
8
CUT
10
58.4902
20
94.2676
0
VERTEX
8
CUT
10
58.6127
20
94.7836
0
VERTEX
8
CUT
10
58.6131
20
95.9888
0
VERTEX
8
CUT
10
58.5349
20
96.0518
0
VERTEX
8
CUT
10
58.5754
20
98.9520
0
VERTEX
8
CUT
10
58.2330
20
100.7291
0
VERTEX
8
CUT
10
58.2903
20
100.8963
0
VERTEX
8
CUT
10
58.1026
20
101.4062
0
VERTEX
8
CUT
10
57.8996
20
102.4600
0
VERTEX
8
CUT
10
57.2981
20
104.1268
0
VERTEX
8
CUT
10
55.5331
20
107.1425
0
VERTEX
8
CUT
10
55.3827
20
107.3259
0
VERTEX
8
CUT
10
55.2577
20
107.5525
0
VERTEX
8
CUT
10
54.9474
20
107.8567
0
VERTEX
8
CUT
10
54.3282
20
108.6117
0
VERTEX
8
CUT
10
50.9448
20
111.6681
0
VERTEX
8
CUT
10
47.5601
20
113.5196
0
VERTEX
8
CUT
10
40.4561
20
115.7554
0
VERTEX
8
CUT
10
36.1356
20
117.6022
0
VERTEX
8
CUT
10
34.3302
20
118.7280
0
VERTEX
8
CUT
10
32.8678
20
119.9304
0
VERTEX
8
CUT
10
31.6390
20
121.2577
0
VERTEX
8
CUT
10
30.7169
20
122.7003
0
VERTEX
8
CUT
10
29.8826
20
125.2854
0
VERTEX
8
CUT
10
29.8188
20
127.1521
0
VERTEX
8
CUT
10
30.2343
20
128.3205
0
VERTEX
8
CUT
10
30.9371
20
129.2511
0
VERTEX
8
CUT
10
31.0998
20
129.4665
0
VERTEX
8
CUT
10
31.1829
20
129.5765
0
VERTEX
8
CUT
10
31.2415
20
129.6541
0
VERTEX
8
CUT
10
32.2534
20
130.3670
0
VERTEX
8
CUT
10
32.3883
20
130.4422
0
VERTEX
8
CUT
10
32.4368
20
130.4692
0
VERTEX
8
CUT
10
32.4536
20
130.4786
0
VERTEX
8
CUT
10
32.4645
20
130.4846
0
VERTEX
8
CUT
10
33.6651
20
130.9103
0
VERTEX
8
CUT
10
34.8278
20
131.0370
0
VERTEX
8
CUT
10
35.1733
20
131.0308
0
VERTEX
8
CUT
10
35.3793
20
131.0122
0
VERTEX
8
CUT
10
35.3892
20
131.0113
0
VERTEX
8
CUT
10
35.5671
20
130.9952
0
VERTEX
8
CUT
10
35.9633
20
130.9593
0
VERTEX
8
CUT
10
36.6517
20
130.8440
0
VERTEX
8
CUT
10
39.4271
20
130.2277
0
VERTEX
8
CUT
10
40.4197
20
130.3525
0
VERTEX
8
CUT
10
40.8617
20
130.8247
0
VERTEX
8
CUT
10
40.9540
20
130.8658
0
VERTEX
8
CUT
10
41.0946
20
131.0736
0
VERTEX
8
CUT
10
41.2763
20
131.2677
0
VERTEX
8
CUT
10
41.3128
20
131.3961
0
VERTEX
8
CUT
10
41.3913
20
131.5122
0
VERTEX
8
CUT
10
41.3960
20
131.6387
0
VERTEX
8
CUT
10
41.4720
20
131.7909
0
VERTEX
8
CUT
10
41.4744
20
131.9645
0
VERTEX
8
CUT
10
41.4772
20
131.9744
0
VERTEX
8
CUT
10
41.4749
20
132.0001
0
VERTEX
8
CUT
10
41.4831
20
132.5962
0
VERTEX
8
CUT
10
41.4365
20
132.7392
0
VERTEX
8
CUT
10
41.4487
20
133.0702
0
VERTEX
8
CUT
10
41.3563
20
133.3032
0
VERTEX
8
CUT
10
41.3287
20
133.6070
0
VERTEX
8
CUT
10
40.9296
20
134.5903
0
VERTEX
8
CUT
10
40.4063
20
135.5624
0
VERTEX
8
CUT
10
40.1227
20
135.9074
0
VERTEX
8
CUT
10
39.9064
20
136.2472
0
VERTEX
8
CUT
10
39.8010
20
136.2986
0
VERTEX
8
CUT
10
38.7920
20
137.5257
0
VERTEX
8
CUT
10
35.2873
20
140.3475
0
VERTEX
8
CUT
10
32.0612
20
142.2570
0
VERTEX
8
CUT
10
21.7860
20
146.9664
0
VERTEX
8
CUT
10
15.0685
20
150.6214
0
VERTEX
8
CUT
10
13.8377
20
151.4415
0
VERTEX
8
CUT
10
13.7633
20
151.4945
0
VERTEX
8
CUT
10
13.4672
20
151.7056
0
VERTEX
8
CUT
10
12.9626
20
152.0653
0
VERTEX
8
CUT
10
11.0776
20
153.4091
0
VERTEX
8
CUT
10
10.5568
20
153.8164
0
VERTEX
8
CUT
10
7.6556
20
156.3756
0
VERTEX
8
CUT
10
5.0376
20
159.2223
0
VERTEX
8
CUT
10
3.2289
20
161.7442
0
VERTEX
8
CUT
10
2.3661
20
163.2345
0
VERTEX
8
CUT
10
2.3660
20
163.2347
0
VERTEX
8
CUT
10
2.3633
20
163.2398
0
VERTEX
8
CUT
10
2.3323
20
163.2985
0
VERTEX
8
CUT
10
2.1579
20
163.6281
0
VERTEX
8
CUT
10
1.1401
20
166.0685
0
VERTEX
8
CUT
10
0.4280
20
168.6163
0
VERTEX
8
CUT
10
0.1664
20
171.0442
0
VERTEX
8
CUT
10
0.1665
20
171.1100
0
VERTEX
8
CUT
10
0.2627
20
173.3415
0
VERTEX
8
CUT
10
0.7455
20
175.2961
0
VERTEX
8
CUT
10
0.8191
20
175.5338
0
VERTEX
8
CUT
10
0.8461
20
175.5986
0
VERTEX
8
CUT
10
1.7463
20
177.4417
0
VERTEX
8
CUT
10
3.0694
20
179.0655
0
VERTEX
8
CUT
10
4.1430
20
179.8824
0
VERTEX
8
CUT
10
4.4520
20
180.0562
0
VERTEX
8
CUT
10
4.6286
20
180.1555
0
VERTEX
8
CUT
10
4.7663
20
180.2330
0
VERTEX
8
CUT
10
4.9080
20
180.3126
0
VERTEX
8
CUT
10
5.0203
20
180.3758
0
VERTEX
8
CUT
10
5.0408
20
180.3874
0
VERTEX
8
CUT
10
5.0435
20
180.3889
0
VERTEX
8
CUT
10
5.8909
20
180.6997
0
VERTEX
8
CUT
10
7.2357
20
180.8647
0
VERTEX
8
CUT
10
9.0491
20
180.8588
0
VERTEX
8
CUT
10
9.0944
20
180.8518
0
VERTEX
8
CUT
10
9.2012
20
180.8352
0
VERTEX
8
CUT
10
9.2310
20
180.8306
0
VERTEX
8
CUT
10
9.3211
20
180.8166
0
VERTEX
8
CUT
10
10.8347
20
180.4181
0
VERTEX
8
CUT
10
11.0704
20
180.3280
0
VERTEX
8
CUT
10
11.1916
20
180.2816
0
VERTEX
8
CUT
10
11.2570
20
180.2566
0
VERTEX
8
CUT
10
11.3264
20
180.2301
0
VERTEX
8
CUT
10
12.1930
20
179.8243
0
VERTEX
8
CUT
10
14.1896
20
178.6027
0
VERTEX
8
CUT
10
17.5054
20
175.4835
0
VERTEX
8
CUT
10
17.6703
20
175.2898
0
VERTEX
8
CUT
10
24.4576
20
167.1470
0
VERTEX
8
CUT
10
25.4017
20
166.1375
0
VERTEX
8
CUT
10
25.5670
20
165.9403
0
VERTEX
8
CUT
10
27.0286
20
164.3979
0
VERTEX
8
CUT
10
28.7134
20
162.5963
0
VERTEX
8
CUT
10
28.8711
20
162.4534
0
VERTEX
8
CUT
10
29.1419
20
162.1677
0
VERTEX
8
CUT
10
29.8203
20
161.5933
0
VERTEX
8
CUT
10
30.8301
20
160.6783
0
VERTEX
8
CUT
10
31.4145
20
160.2436
0
VERTEX
8
CUT
10
32.5477
20
159.2842
0
VERTEX
8
CUT
10
34.1270
20
158.2262
0
VERTEX
8
CUT
10
35.0585
20
157.5333
0
VERTEX
8
CUT
10
35.6722
20
157.1909
0
VERTEX
8
CUT
10
36.2216
20
156.8228
0
VERTEX
8
CUT
10
38.6486
20
155.5302
0
VERTEX
8
CUT
10
39.5612
20
155.0210
0
VERTEX
8
CUT
10
39.7279
20
154.9553
0
VERTEX
8
CUT
10
39.7434
20
154.9471
0
VERTEX
8
CUT
10
39.7804
20
154.9331
0
VERTEX
8
CUT
10
39.8436
20
154.8923
0
VERTEX
8
CUT
10
42.7428
20
153.6073
0
VERTEX
8
CUT
10
45.7409
20
152.7178
0
VERTEX
8
CUT
10
45.8952
20
152.8624
0
VERTEX
8
CUT
10
48.0135
20
152.3323
0
VERTEX
8
CUT
10
53.9878
20
151.4076
0
VERTEX
8
CUT
10
57.8080
20
150.5844
0
VERTEX
8
CUT
10
60.6730
20
149.5211
0
VERTEX
8
CUT
10
62.7243
20
148.2155
0
VERTEX
8
CUT
10
63.8147
20
147.0538
0
VERTEX
8
CUT
10
64.3018
20
145.7895
0
VERTEX
8
CUT
10
64.0011
20
143.0222
0
VERTEX
8
CUT
10
62.4565
20
139.2725
0
VERTEX
8
CUT
10
62.1951
20
137.5465
0
VERTEX
8
CUT
10
62.3606
20
135.6706
0
VERTEX
8
CUT
10
63.6716
20
132.0012
0
VERTEX
8
CUT
10
63.5111
20
131.5202
0
VERTEX
8
CUT
10
62.8944
20
131.4277
0
VERTEX
8
CUT
10
61.4435
20
132.0475
0
VERTEX
8
CUT
10
59.3659
20
133.3666
0
VERTEX
8
CUT
10
56.8632
20
135.3025
0
VERTEX
8
CUT
10
54.8208
20
137.3850
0
VERTEX
8
CUT
10
53.7220
20
138.9547
0
VERTEX
8
CUT
10
52.6092
20
141.4165
0
VERTEX
8
CUT
10
52.1451
20
141.5779
0
VERTEX
8
CUT
10
51.8922
20
141.1565
0
VERTEX
8
CUT
10
52.4326
20
138.7496
0
VERTEX
8
CUT
10
53.2741
20
136.8082
0
VERTEX
8
CUT
10
54.4865
20
135.0185
0
VERTEX
8
CUT
10
56.1127
20
133.2874
0
VERTEX
8
CUT
10
58.0327
20
131.7211
0
VERTEX
8
CUT
10
60.3209
20
130.3115
0
VERTEX
8
CUT
10
61.8660
20
129.5682
0
VERTEX
8
CUT
10
62.2575
20
129.3575
0
VERTEX
8
CUT
10
62.4373
20
129.2934
0
VERTEX
8
CUT
10
62.9398
20
129.0516
0
VERTEX
8
CUT
10
71.9276
20
125.6938
0
VERTEX
8
CUT
10
71.9917
20
125.6644
0
VERTEX
8
CUT
10
72.0431
20
125.6407
0
VERTEX
8
CUT
10
72.0707
20
125.6280
0
VERTEX
8
CUT
10
72.0960
20
125.6164
0
VERTEX
8
CUT
10
75.6996
20
123.3193
0
VERTEX
8
CUT
10
76.9315
20
122.2184
0
VERTEX
8
CUT
10
77.5438
20
121.2370
0
VERTEX
8
CUT
10
84.5772
20
120.5332
0
VERTEX
8
CUT
10
87.2143
20
119.7620
0
VERTEX
8
CUT
10
89.1798
20
118.5967
0
VERTEX
8
CUT
10
95.7030
20
112.5400
0
VERTEX
8
CUT
10
96.1589
20
111.7905
0
VERTEX
8
CUT
10
96.0266
20
111.3796
0
VERTEX
8
CUT
10
95.3808
20
110.9822
0
VERTEX
8
CUT
10
92.7145
20
110.4325
0
VERTEX
8
CUT
10
90.7801
20
108.1755
0
VERTEX
8
CUT
10
90.6457
20
107.7383
0
VERTEX
8
CUT
10
90.9162
20
107.4527
0
VERTEX
8
CUT
10
92.0285
20
107.7473
0
VERTEX
8
CUT
10
95.4725
20
109.4074
0
VERTEX
8
CUT
10
95.5031
20
109.4202
0
VERTEX
8
CUT
10
95.5335
20
109.4329
0
VERTEX
8
CUT
10
95.5667
20
109.4468
0
VERTEX
8
CUT
10
95.9084
20
109.5895
0
VERTEX
8
CUT
10
99.1701
20
110.8179
0
VERTEX
8
CUT
10
102.2640
20
111.4179
0
VERTEX
8
CUT
10
102.3112
20
111.4214
0
VERTEX
8
CUT
10
102.3742
20
111.4261
0
VERTEX
8
CUT
10
102.4053
20
111.4284
0
VERTEX
8
CUT
10
102.6280
20
111.4449
0
VERTEX
8
CUT
10
105.6698
20
111.4484
0
VERTEX
8
CUT
10
109.3216
20
110.7220
0
VERTEX
8
CUT
10
111.6729
20
109.7672
0
VERTEX
8
CUT
10
118.0743
20
106.7242
0
VERTEX
8
CUT
10
118.9156
20
106.2835
0
VERTEX
8
CUT
10
120.7370
20
105.4584
0
VERTEX
8
CUT
10
121.2789
20
105.2008
0
VERTEX
8
CUT
10
121.7232
20
105.0117
0
VERTEX
8
CUT
10
122.7369
20
104.5525
0
VERTEX
8
CUT
10
123.0714
20
104.4377
0
VERTEX
8
CUT
10
123.2861
20
104.3463
0
VERTEX
8
CUT
10
123.8479
20
104.1714
0
VERTEX
8
CUT
10
125.0455
20
103.7606
0
VERTEX
8
CUT
10
125.1369
20
103.7393
0
VERTEX
8
CUT
10
125.6089
20
103.5626
0
VERTEX
8
CUT
10
126.4948
20
103.3472
0
VERTEX
8
CUT
10
126.7206
20
103.2768
0
VERTEX
8
CUT
10
126.9803
20
103.2291
0
VERTEX
8
CUT
10
127.2120
20
103.1728
0
VERTEX
8
CUT
10
127.3417
20
103.1627
0
VERTEX
8
CUT
10
128.3495
20
102.9774
0
VERTEX
8
CUT
10
131.6789
20
102.7508
0
VERTEX
8
CUT
10
133.7545
20
102.9079
0
VERTEX
8
CUT
10
134.0998
20
102.9163
0
VERTEX
8
CUT
10
134.3344
20
102.9517
0
VERTEX
8
CUT
10
135.9586
20
103.0746
0
VERTEX
8
CUT
10
138.0174
20
103.5389
0
VERTEX
8
CUT
10
140.6139
20
104.5068
0
VERTEX
8
CUT
10
141.0162
20
104.6508
0
VERTEX
8
CUT
10
141.0468
20
104.6682
0
VERTEX
8
CUT
10
141.8297
20
104.9600
0
VERTEX
8
CUT
10
143.6249
20
105.9894
0
VERTEX
8
CUT
10
144.5482
20
106.6977
0
VERTEX
8
CUT
10
144.8804
20
106.9418
0
VERTEX
8
CUT
10
144.9383
20
106.9781
0
VERTEX
8
CUT
10
144.9992
20
107.0291
0
VERTEX
8
CUT
10
145.9434
20
107.7229
0
VERTEX
8
CUT
10
146.1988
20
107.9639
0
VERTEX
8
CUT
10
146.9678
20
108.5539
0
VERTEX
8
CUT
10
148.5252
20
110.1526
0
VERTEX
8
CUT
10
148.5954
20
110.2143
0
VERTEX
8
CUT
10
148.6438
20
110.2718
0
VERTEX
8
CUT
10
148.8302
20
110.4478
0
VERTEX
8
CUT
10
148.9026
20
110.5400
0
VERTEX
8
CUT
10
149.4344
20
111.0859
0
VERTEX
8
CUT
10
151.1149
20
113.3609
0
VERTEX
8
CUT
10
151.3188
20
113.6209
0
VERTEX
8
CUT
10
151.3703
20
113.7067
0
VERTEX
8
CUT
10
151.5444
20
113.9425
0
VERTEX
8
CUT
10
152.6617
20
115.8466
0
VERTEX
8
CUT
10
153.5917
20
117.7018
0
VERTEX
8
CUT
10
154.3097
20
119.0760
0
VERTEX
8
CUT
10
154.6856
20
119.8837
0
VERTEX
8
CUT
10
159.0221
20
128.5335
0
VERTEX
8
CUT
10
159.4864
20
129.3322
0
VERTEX
8
CUT
10
159.7352
20
129.6224
0
VERTEX
8
CUT
10
160.2754
20
130.4258
0
VERTEX
8
CUT
10
161.0845
20
131.3939
0
VERTEX
8
CUT
10
161.1425
20
131.4313
0
VERTEX
8
CUT
10
161.1506
20
131.4365
0
VERTEX
8
CUT
10
161.1679
20
131.4476
0
VERTEX
8
CUT
10
161.1889
20
131.4612
0
VERTEX
8
CUT
10
162.5309
20
132.0687
0
VERTEX
8
CUT
10
164.0275
20
132.1056
0
VERTEX
8
CUT
10
165.2160
20
131.6207
0
VERTEX
8
CUT
10
166.7735
20
129.9441
0
VERTEX
8
CUT
10
167.2495
20
130.0549
0
VERTEX
8
CUT
10
167.3644
20
130.6430
0
VERTEX
8
CUT
10
167.1687
20
131.4513
0
VERTEX
8
CUT
10
166.4022
20
132.4242
0
VERTEX
8
CUT
10
164.9176
20
135.3193
0
VERTEX
8
CUT
10
164.3763
20
135.9052
0
VERTEX
8
CUT
10
163.2949
20
136.2900
0
VERTEX
8
CUT
10
162.9316
20
136.6739
0
VERTEX
8
CUT
10
161.6989
20
138.7348
0
VERTEX
8
CUT
10
160.2293
20
140.2013
0
VERTEX
8
CUT
10
159.2023
20
141.7489
0
VERTEX
8
CUT
10
156.3322
20
143.8072
0
VERTEX
8
CUT
10
152.5157
20
145.7319
0
VERTEX
8
CUT
10
151.5927
20
146.0319
0
VERTEX
8
CUT
10
151.3151
20
145.8428
0
VERTEX
8
CUT
10
151.2878
20
145.5079
0
VERTEX
8
CUT
10
153.9571
20
140.5936
0
VERTEX
8
CUT
10
154.5749
20
138.5839
0
VERTEX
8
CUT
10
154.4740
20
137.0714
0
VERTEX
8
CUT
10
154.1263
20
136.3852
0
VERTEX
8
CUT
10
153.5975
20
135.7113
0
VERTEX
8
CUT
10
152.5062
20
134.9663
0
VERTEX
8
CUT
10
151.1364
20
134.6863
0
VERTEX
8
CUT
10
149.4024
20
134.8496
0
VERTEX
8
CUT
10
142.7369
20
136.7612
0
VERTEX
8
CUT
10
139.4933
20
137.1718
0
VERTEX
8
CUT
10
139.3982
20
137.1900
0
VERTEX
8
CUT
10
139.3475
20
137.1903
0
VERTEX
8
CUT
10
138.8539
20
137.2528
0
VERTEX
8
CUT
10
138.4119
20
137.2398
0
VERTEX
8
CUT
10
138.2937
20
137.2528
0
VERTEX
8
CUT
10
137.8608
20
137.2237
0
VERTEX
8
CUT
10
137.2169
20
137.2049
0
VERTEX
8
CUT
10
134.6395
20
137.2225
0
VERTEX
8
CUT
10
133.5782
20
137.0170
0
VERTEX
8
CUT
10
131.6246
20
136.7604
0
VERTEX
8
CUT
10
129.2440
20
136.1816
0
VERTEX
8
CUT
10
127.7572
20
135.5207
0
VERTEX
8
CUT
10
127.7357
20
135.5137
0
VERTEX
8
CUT
10
127.2110
20
135.2864
0
VERTEX
8
CUT
10
125.6459
20
134.6966
0
VERTEX
8
CUT
10
124.4040
20
134.0303
0
VERTEX
8
CUT
10
123.8685
20
133.7923
0
VERTEX
8
CUT
10
120.0096
20
131.2437
0
VERTEX
8
CUT
10
117.5738
20
129.0719
0
VERTEX
8
CUT
10
112.4967
20
123.5671
0
VERTEX
8
CUT
10
110.9935
20
122.1290
0
VERTEX
8
CUT
10
109.8110
20
121.3271
0
VERTEX
8
CUT
10
108.1046
20
120.5595
0
VERTEX
8
CUT
10
106.5550
20
120.1550
0
VERTEX
8
CUT
10
105.7456
20
120.0381
0
VERTEX
8
CUT
10
103.0031
20
119.9240
0
VERTEX
8
CUT
10
100.6308
20
120.2887
0
VERTEX
8
CUT
10
96.7987
20
121.7988
0
VERTEX
8
CUT
10
88.2141
20
127.1279
0
VERTEX
8
CUT
10
80.6890
20
130.8256
0
VERTEX
8
CUT
10
77.2016
20
132.8653
0
VERTEX
8
CUT
10
75.9320
20
133.8316
0
VERTEX
8
CUT
10
74.0271
20
135.8721
0
VERTEX
8
CUT
10
73.2887
20
136.9853
0
VERTEX
8
CUT
10
72.6313
20
138.4970
0
VERTEX
8
CUT
10
72.3858
20
140.8961
0
VERTEX
8
CUT
10
72.4977
20
141.6312
0
VERTEX
8
CUT
10
73.0829
20
142.8595
0
VERTEX
8
CUT
10
73.9828
20
143.6147
0
VERTEX
8
CUT
10
75.3444
20
143.9327
0
VERTEX
8
CUT
10
77.1517
20
143.7305
0
VERTEX
8
CUT
10
82.4330
20
142.5116
0
VERTEX
8
CUT
10
85.0283
20
142.2233
0
VERTEX
8
CUT
10
87.5290
20
142.2846
0
VERTEX
8
CUT
10
89.9395
20
142.7355
0
VERTEX
8
CUT
10
92.2161
20
143.5118
0
VERTEX
8
CUT
10
94.4466
20
144.6764
0
VERTEX
8
CUT
10
96.5279
20
146.1763
0
VERTEX
8
CUT
10
103.2224
20
152.8396
0
VERTEX
8
CUT
10
105.8730
20
155.0595
0
VERTEX
8
CUT
10
109.8967
20
157.0590
0
VERTEX
8
CUT
10
111.1790
20
157.4156
0
VERTEX
8
CUT
10
115.1259
20
157.8574
0
VERTEX
8
CUT
10
119.0794
20
157.7256
0
VERTEX
8
CUT
10
122.0362
20
157.2158
0
VERTEX
8
CUT
10
123.9977
20
156.6366
0
VERTEX
8
CUT
10
131.5702
20
153.7063
0
VERTEX
8
CUT
10
134.2475
20
153.0925
0
VERTEX
8
CUT
10
138.6784
20
152.9639
0
VERTEX
8
CUT
10
139.5271
20
153.4331
0
VERTEX
8
CUT
10
139.7870
20
153.7973
0
VERTEX
8
CUT
10
139.7141
20
154.1544
0
VERTEX
8
CUT
10
138.9526
20
154.6495
0
VERTEX
8
CUT
10
135.3776
20
154.1553
0
VERTEX
8
CUT
10
133.3387
20
154.3656
0
VERTEX
8
CUT
10
125.0877
20
158.0617
0
VERTEX
8
CUT
10
122.1280
20
159.2977
0
VERTEX
8
CUT
10
120.7647
20
159.6637
0
VERTEX
8
CUT
10
115.4838
20
159.8216
0
VERTEX
8
CUT
10
111.9868
20
159.4336
0
VERTEX
8
CUT
10
108.7472
20
158.3214
0
VERTEX
8
CUT
10
106.5548
20
157.2073
0
VERTEX
8
CUT
10
104.6224
20
155.8866
0
VERTEX
8
CUT
10
102.0312
20
153.5261
0
VERTEX
8
CUT
10
98.9561
20
149.7268
0
VERTEX
8
CUT
10
96.8358
20
147.7405
0
VERTEX
8
CUT
10
94.0525
20
145.6869
0
VERTEX
8
CUT
10
91.6985
20
144.5776
0
VERTEX
8
CUT
10
88.6263
20
143.6856
0
VERTEX
8
CUT
10
86.4567
20
143.4807
0
VERTEX
8
CUT
10
83.7567
20
143.5466
0
VERTEX
8
CUT
10
82.4532
20
143.6857
0
VERTEX
8
CUT
10
80.2040
20
144.3145
0
VERTEX
8
CUT
10
78.5561
20
145.1194
0
VERTEX
8
CUT
10
78.0856
20
145.5991
0
VERTEX
8
CUT
10
78.7110
20
146.3080
0
VERTEX
8
CUT
10
81.5561
20
147.7138
0
VERTEX
8
CUT
10
83.0519
20
148.7785
0
VERTEX
8
CUT
10
83.5853
20
149.3642
0
VERTEX
8
CUT
10
84.1270
20
149.8899
0
VERTEX
8
CUT
10
84.2884
20
150.1361
0
VERTEX
8
CUT
10
84.6569
20
150.5407
0
VERTEX
8
CUT
10
85.4774
20
152.2608
0
VERTEX
8
CUT
10
85.5060
20
152.7467
0
VERTEX
8
CUT
10
85.5237
20
152.7945
0
VERTEX
8
CUT
10
85.5203
20
152.9889
0
VERTEX
8
CUT
10
85.5934
20
154.2285
0
VERTEX
8
CUT
10
85.3040
20
155.1824
0
VERTEX
8
CUT
10
84.7771
20
156.0491
0
VERTEX
8
CUT
10
83.0422
20
157.5992
0
VERTEX
8
CUT
10
81.1056
20
158.5881
0
VERTEX
8
CUT
10
79.4697
20
159.0935
0
VERTEX
8
CUT
10
77.9180
20
159.1961
0
VERTEX
8
CUT
10
61.0055
20
158.8678
0
VERTEX
8
CUT
10
56.6117
20
159.4953
0
VERTEX
8
CUT
10
51.6412
20
161.0077
0
VERTEX
8
CUT
10
50.4466
20
161.2030
0
VERTEX
8
CUT
10
49.7150
20
161.0511
0
VERTEX
8
CUT
10
48.5066
20
160.0954
0
VERTEX
8
CUT
10
46.5818
20
159.6737
0
VERTEX
8
CUT
10
45.4354
20
159.0467
0
VERTEX
8
CUT
10
44.7112
20
158.4139
0
VERTEX
8
CUT
10
43.6532
20
158.4713
0
VERTEX
8
CUT
10
40.4881
20
159.6574
0
VERTEX
8
CUT
10
38.4471
20
160.9413
0
VERTEX
8
CUT
10
36.5513
20
162.5022
0
VERTEX
8
CUT
10
34.2854
20
165.2092
0
VERTEX
8
CUT
10
33.2906
20
167.1680
0
VERTEX
8
CUT
10
32.9489
20
168.5606
0
VERTEX
8
CUT
10
32.9985
20
174.7722
0
VERTEX
8
CUT
10
33.0457
20
175.4098
0
VERTEX
8
CUT
10
33.0051
20
175.6070
0
VERTEX
8
CUT
10
33.0128
20
176.5665
0
VERTEX
8
CUT
10
32.5297
20
178.3746
0
VERTEX
8
CUT
10
31.1128
20
180.8219
0
VERTEX
8
CUT
10
29.5339
20
182.7626
0
SEQEND
0
POLYLINE
8
CUT
66
1
70
1
10
0.0
20
0.0
30
0.0
0
VERTEX
8
CUT
10
201.6451
20
157.7201
0
VERTEX
8
CUT
10
201.4922
20
156.6098
0
VERTEX
8
CUT
10
201.7121
20
155.0569
0
VERTEX
8
CUT
10
202.1313
20
153.7271
0
VERTEX
8
CUT
10
202.4453
20
153.1923
0
VERTEX
8
CUT
10
202.5353
20
152.9780
0
VERTEX
8
CUT
10
202.6530
20
152.8385
0
VERTEX
8
CUT
10
203.3160
20
151.7092
0
VERTEX
8
CUT
10
204.2035
20
151.0632
0
VERTEX
8
CUT
10
204.6169
20
150.9980
0
VERTEX
8
CUT
10
206.9980
20
152.4422
0
VERTEX
8
CUT
10
207.1276
20
152.8805
0
VERTEX
8
CUT
10
206.5280
20
153.5956
0
VERTEX
8
CUT
10
203.4131
20
156.1200
0
VERTEX
8
CUT
10
202.1683
20
157.8690
0
SEQEND
0
POLYLINE
8
CUT
66
1
70
1
10
0.0
20
0.0
30
0.0
0
VERTEX
8
CUT
10
196.4044
20
106.9554
0
VERTEX
8
CUT
10
196.7998
20
105.1433
0
VERTEX
8
CUT
10
196.9975
20
102.8371
0
VERTEX
8
CUT
10
197.4258
20
101.9805
0
VERTEX
8
CUT
10
197.8541
20
102.1782
0
VERTEX
8
CUT
10
198.1506
20
102.9689
0
VERTEX
8
CUT
10
198.2494
20
104.1879
0
VERTEX
8
CUT
10
197.9529
20
106.1317
0
VERTEX
8
CUT
10
197.2281
20
107.6472
0
VERTEX
8
CUT
10
196.5033
20
108.0096
0
SEQEND
0
POLYLINE
8
CUT
66
1
70
1
10
0.0
20
0.0
30
0.0
0
VERTEX
8
CUT
10
196.4374
20
243.2872
0
VERTEX
8
CUT
10
195.3501
20
247.5373
0
VERTEX
8
CUT
10
193.4393
20
251.9191
0
VERTEX
8
CUT
10
190.0128
20
257.3553
0
VERTEX
8
CUT
10
185.4004
20
262.8903
0
VERTEX
8
CUT
10
183.2588
20
266.1849
0
VERTEX
8
CUT
10
181.8092
20
269.3807
0
VERTEX
8
CUT
10
181.2821
20
269.9408
0
VERTEX
8
CUT
10
181.0844
20
269.1830
0
VERTEX
8
CUT
10
181.1832
20
268.5241
0
VERTEX
8
CUT
10
182.6658
20
265.3283
0
VERTEX
8
CUT
10
185.2356
20
261.3418
0
VERTEX
8
CUT
10
190.8694
20
253.8959
0
VERTEX
8
CUT
10
193.8676
20
248.1962
0
VERTEX
8
CUT
10
195.6796
20
243.3860
0
VERTEX
8
CUT
10
196.1079
20
242.9577
0
SEQEND
0
POLYLINE
8
CUT
66
1
70
1
10
0.0
20
0.0
30
0.0
0
VERTEX
8
CUT
10
190.7781
20
150.4066
0
VERTEX
8
CUT
10
190.8015
20
150.4068
0
VERTEX
8
CUT
10
190.8086
20
150.4116
0
VERTEX
8
CUT
10
190.8434
20
150.4174
0
VERTEX
8
CUT
10
191.7815
20
151.0657
0
VERTEX
8
CUT
10
192.4551
20
152.3066
0
VERTEX
8
CUT
10
192.5311
20
152.6886
0
VERTEX
8
CUT
10
192.7056
20
153.3635
0
VERTEX
8
CUT
10
192.6947
20
153.5107
0
VERTEX
8
CUT
10
192.7315
20
153.6956
0
VERTEX
8
CUT
10
192.6551
20
154.0468
0
VERTEX
8
CUT
10
192.6333
20
154.3424
0
VERTEX
8
CUT
10
192.5434
20
154.5608
0
VERTEX
8
CUT
10
192.4540
20
154.9715
0
VERTEX
8
CUT
10
191.8294
20
156.2945
0
VERTEX
8
CUT
10
191.6946
20
156.6218
0
VERTEX
8
CUT
10
191.6253
20
156.7268
0
VERTEX
8
CUT
10
190.9462
20
158.1651
0
VERTEX
8
CUT
10
190.6231
20
158.5277
0
VERTEX
8
CUT
10
190.2969
20
158.5721
0
VERTEX
8
CUT
10
190.1252
20
158.3297
0
VERTEX
8
CUT
10
189.8992
20
158.1600
0
VERTEX
8
CUT
10
189.7425
20
157.7893
0
VERTEX
8
CUT
10
188.9423
20
156.6595
0
VERTEX
8
CUT
10
187.9435
20
155.7317
0
VERTEX
8
CUT
10
187.7180
20
155.5969
0
VERTEX
8
CUT
10
181.2005
20
152.6731
0
VERTEX
8
CUT
10
179.7741
20
151.7749
0
VERTEX
8
CUT
10
179.0657
20
151.0729
0
VERTEX
8
CUT
10
179.1763
20
150.5736
0
VERTEX
8
CUT
10
180.7619
20
149.2928
0
VERTEX
8
CUT
10
181.0949
20
149.4482
0
VERTEX
8
CUT
10
181.3712
20
150.2639
0
VERTEX
8
CUT
10
182.3565
20
151.2473
0
VERTEX
8
CUT
10
183.1160
20
151.6053
0
VERTEX
8
CUT
10
184.5260
20
151.8642
0
VERTEX
8
CUT
10
184.7203
20
151.8725
0
VERTEX
8
CUT
10
186.4455
20
151.4702
0
VERTEX
8
CUT
10
188.1661
20
150.7023
0
VERTEX
8
CUT
10
188.8570
20
150.3907
0
VERTEX
8
CUT
10
188.8672
20
150.3894
0
VERTEX
8
CUT
10
188.8692
20
150.3886
0
VERTEX
8
CUT
10
188.8740
20
150.3886
0
VERTEX
8
CUT
10
189.9062
20
150.2615
0
SEQEND
0
POLYLINE
8
CUT
66
1
70
1
10
0.0
20
0.0
30
0.0
0
VERTEX
8
CUT
10
159.0763
20
264.0763
0
VERTEX
8
CUT
10
160.7565
20
268.0958
0
VERTEX
8
CUT
10
162.2391
20
270.6326
0
VERTEX
8
CUT
10
164.2159
20
273.3342
0
VERTEX
8
CUT
10
170.0474
20
279.9235
0
VERTEX
8
CUT
10
171.3982
20
281.7356
0
VERTEX
8
CUT
10
172.1889
20
283.4158
0
VERTEX
8
CUT
10
171.0028
20
282.5263
0
VERTEX
8
CUT
10
168.2353
20
279.7917
0
VERTEX
8
CUT
10
163.7217
20
274.8827
0
VERTEX
8
CUT
10
161.8767
20
272.5106
0
VERTEX
8
CUT
10
159.7352
20
268.6559
0
VERTEX
8
CUT
10
158.7468
20
266.1519
0
VERTEX
8
CUT
10
158.4503
20
265.1306
0
VERTEX
8
CUT
10
158.3844
20
263.9116
0
VERTEX
8
CUT
10
158.6480
20
263.6810
0
SEQEND
0
POLYLINE
8
CUT
66
1
70
1
10
0.0
20
0.0
30
0.0
0
VERTEX
8
CUT
10
168.7954
20
168.3014
0
VERTEX
8
CUT
10
168.2353
20
168.1696
0
VERTEX
8
CUT
10
168.5318
20
167.6754
0
VERTEX
8
CUT
10
169.1249
20
167.2801
0
VERTEX
8
CUT
10
169.6850
20
167.1812
0
VERTEX
8
CUT
10
170.2121
20
167.4118
0
VERTEX
8
CUT
10
170.8381
20
168.2026
0
SEQEND
0
POLYLINE
8
CUT
66
1
70
1
10
0.0
20
0.0
30
0.0
0
VERTEX
8
CUT
10
160.7572
20
103.5650
0
VERTEX
8
CUT
10
164.7065
20
94.8119
0
VERTEX
8
CUT
10
166.3990
20
90.3071
0
VERTEX
8
CUT
10
166.8666
20
90.0768
0
VERTEX
8
CUT
10
167.1494
20
90.4798
0
VERTEX
8
CUT
10
166.8090
20
92.0232
0
VERTEX
8
CUT
10
165.1108
20
96.8224
0
VERTEX
8
CUT
10
162.1099
20
103.8795
0
VERTEX
8
CUT
10
161.4895
20
107.4819
0
VERTEX
8
CUT
10
161.0832
20
107.7118
0
VERTEX
8
CUT
10
160.7481
20
107.3869
0
VERTEX
8
CUT
10
160.5717
20
105.3594
0
SEQEND
0
POLYLINE
8
CUT
66
1
70
1
10
0.0
20
0.0
30
0.0
0
VERTEX
8
CUT
10
159.4716
20
169.2898
0
VERTEX
8
CUT
10
160.2953
20
168.8944
0
VERTEX
8
CUT
10
160.8224
20
168.8615
0
VERTEX
8
CUT
10
161.8437
20
169.3227
0
VERTEX
8
CUT
10
161.9755
20
169.7181
0
VERTEX
8
CUT
10
161.6461
20
170.0805
0
VERTEX
8
CUT
10
160.0317
20
170.2452
0
VERTEX
8
CUT
10
159.3069
20
170.1134
0
VERTEX
8
CUT
10
159.0433
20
169.8499
0
SEQEND
0
POLYLINE
8
CUT
66
1
70
1
10
0.0
20
0.0
30
0.0
0
VERTEX
8
CUT
10
158.9774
20
178.7454
0
VERTEX
8
CUT
10
159.9988
20
179.2066
0
VERTEX
8
CUT
10
160.2294
20
179.6020
0
VERTEX
8
CUT
10
160.1964
20
179.9644
0
VERTEX
8
CUT
10
158.8456
20
180.0962
0
VERTEX
8
CUT
10
157.7913
20
179.7008
0
VERTEX
8
CUT
10
157.7584
20
179.2396
0
VERTEX
8
CUT
10
157.9561
20
179.0090
0
SEQEND
0
POLYLINE
8
CUT
66
1
70
1
10
0.0
20
0.0
30
0.0
0
VERTEX
8
CUT
10
158.9506
20
161.1358
0
VERTEX
8
CUT
10
158.6806
20
161.2643
0
VERTEX
8
CUT
10
156.5150
20
160.9382
0
VERTEX
8
CUT
10
156.3514
20
160.6490
0
VERTEX
8
CUT
10
156.4715
20
160.3370
0
VERTEX
8
CUT
10
157.5606
20
159.8463
0
VERTEX
8
CUT
10
158.4739
20
160.0513
0
VERTEX
8
CUT
10
158.9014
20
160.3990
0
VERTEX
8
CUT
10
159.0544
20
160.8310
0
SEQEND
0
POLYLINE
8
CUT
66
1
70
1
10
0.0
20
0.0
30
0.0
0
VERTEX
8
CUT
10
150.1901
20
171.3334
0
VERTEX
8
CUT
10
151.1953
20
170.7215
0
VERTEX
8
CUT
10
151.8996
20
170.8503
0
VERTEX
8
CUT
10
152.6586
20
171.6322
0
VERTEX
8
CUT
10
152.2984
20
172.0558
0
VERTEX
8
CUT
10
150.3506
20
171.9051
0
VERTEX
8
CUT
10
150.1381
20
171.6564
0
SEQEND
0
POLYLINE
8
CUT
66
1
70
1
10
0.0
20
0.0
30
0.0
0
VERTEX
8
CUT
10
152.3552
20
93.0520
0
VERTEX
8
CUT
10
152.3552
20
94.6005
0
VERTEX
8
CUT
10
152.1575
20
95.5230
0
VERTEX
8
CUT
10
151.8610
20
96.1160
0
VERTEX
8
CUT
10
151.3668
20
96.3467
0
VERTEX
8
CUT
10
151.1362
20
95.7207
0
VERTEX
8
CUT
10
151.4327
20
93.1838
0
VERTEX
8
CUT
10
151.8281
20
92.7226
0
SEQEND
0
POLYLINE
8
CUT
66
1
70
1
10
0.0
20
0.0
30
0.0
0
VERTEX
8
CUT
10
148.6977
20
78.8852
0
VERTEX
8
CUT
10
150.6238
20
82.2556
0
VERTEX
8
CUT
10
151.3788
20
84.3310
0
VERTEX
8
CUT
10
151.2082
20
84.7666
0
VERTEX
8
CUT
10
150.6904
20
84.6673
0
VERTEX
8
CUT
10
148.0516
20
80.0904
0
VERTEX
8
CUT
10
142.7385
20
73.2568
0
VERTEX
8
CUT
10
141.1813
20
70.5641
0
VERTEX
8
CUT
10
140.3606
20
68.5915
0
VERTEX
8
CUT
10
140.6246
20
68.2091
0
VERTEX
8
CUT
10
141.0431
20
68.3214
0
VERTEX
8
CUT
10
143.6474
20
72.5108
0
SEQEND
0
POLYLINE
8
CUT
66
1
70
1
10
0.0
20
0.0
30
0.0
0
VERTEX
8
CUT
10
109.3503
20
171.0470
0
VERTEX
8
CUT
10
111.8608
20
170.7601
0
VERTEX
8
CUT
10
112.7856
20
170.6174
0
VERTEX
8
CUT
10
120.9402
20
169.6968
0
VERTEX
8
CUT
10
121.7138
20
169.6340
0
VERTEX
8
CUT
10
125.4924
20
169.2021
0
VERTEX
8
CUT
10
131.8495
20
168.8491
0
VERTEX
8
CUT
10
134.3336
20
168.5320
0
VERTEX
8
CUT
10
136.0797
20
168.6638
0
VERTEX
8
CUT
10
136.4751
20
168.8615
0
VERTEX
8
CUT
10
136.5080
20
169.2239
0
VERTEX
8
CUT
10
136.0817
20
169.4310
0
VERTEX
8
CUT
10
135.9164
20
170.0019
0
VERTEX
8
CUT
10
134.7125
20
171.7706
0
VERTEX
8
CUT
10
131.0573
20
171.5514
0
VERTEX
8
CUT
10
127.4187
20
172.0222
0
VERTEX
8
CUT
10
126.7676
20
172.5214
0
VERTEX
8
CUT
10
126.3979
20
174.3753
0
VERTEX
8
CUT
10
125.9929
20
174.9359
0
VERTEX
8
CUT
10
108.3426
20
180.3571
0
VERTEX
8
CUT
10
97.2814
20
184.3480
0
VERTEX
8
CUT
10
96.8975
20
184.2172
0
VERTEX
8
CUT
10
96.8379
20
183.8161
0
VERTEX
8
CUT
10
98.6712
20
180.6928
0
VERTEX
8
CUT
10
99.4874
20
178.3071
0
VERTEX
8
CUT
10
99.5863
20
177.6018
0
VERTEX
8
CUT
10
99.4039
20
176.6174
0
VERTEX
8
CUT
10
98.5056
20
176.2683
0
VERTEX
8
CUT
10
95.5046
20
176.4607
0
VERTEX
8
CUT
10
92.4140
20
176.9590
0
VERTEX
8
CUT
10
75.3206
20
180.4501
0
VERTEX
8
CUT
10
72.0719
20
181.2786
0
VERTEX
8
CUT
10
51.5510
20
187.7465
0
VERTEX
8
CUT
10
50.0794
20
188.5077
0
VERTEX
8
CUT
10
48.0788
20
190.6027
0
VERTEX
8
CUT
10
46.6285
20
191.5595
0
VERTEX
8
CUT
10
39.7418
20
193.6365
0
VERTEX
8
CUT
10
22.2326
20
201.2196
0
VERTEX
8
CUT
10
19.3963
20
202.0914
0
VERTEX
8
CUT
10
18.6463
20
202.1882
0
VERTEX
8
CUT
10
17.8434
20
202.0434
0
VERTEX
8
CUT
10
17.6808
20
201.7086
0
VERTEX
8
CUT
10
17.8413
20
201.2493
0
VERTEX
8
CUT
10
19.6392
20
198.9423
0
VERTEX
8
CUT
10
22.8391
20
197.2838
0
VERTEX
8
CUT
10
34.1643
20
192.1811
0
VERTEX
8
CUT
10
46.0746
20
187.2457
0
VERTEX
8
CUT
10
54.5004
20
184.1518
0
VERTEX
8
CUT
10
63.2369
20
181.3164
0
VERTEX
8
CUT
10
72.1475
20
178.7188
0
VERTEX
8
CUT
10
81.2466
20
176.3782
0
VERTEX
8
CUT
10
90.5185
20
174.3397
0
VERTEX
8
CUT
10
94.5442
20
173.5768
0
VERTEX
8
CUT
10
94.8309
20
173.3422
0
VERTEX
8
CUT
10
95.9636
20
173.3079
0
VERTEX
8
CUT
10
99.9024
20
172.5615
0
SEQEND
0
POLYLINE
8
CUT
66
1
70
1
10
0.0
20
0.0
30
0.0
0
VERTEX
8
CUT
10
131.5661
20
73.9761
0
VERTEX
8
CUT
10
129.9847
20
69.8578
0
VERTEX
8
CUT
10
126.3276
20
54.9990
0
VERTEX
8
CUT
10
127.1842
20
55.9874
0
VERTEX
8
CUT
10
128.0079
20
57.8324
0
VERTEX
8
CUT
10
129.8199
20
63.9604
0
VERTEX
8
CUT
10
131.5002
20
72.2958
0
VERTEX
8
CUT
10
132.1591
20
73.5478
0
VERTEX
8
CUT
10
132.1921
20
74.0420
0
VERTEX
8
CUT
10
131.9944
20
74.2726
0
SEQEND
0
POLYLINE
8
CUT
66
1
70
1
10
0.0
20
0.0
30
0.0
0
VERTEX
8
CUT
10
60.7965
20
54.1751
0
VERTEX
8
CUT
10
58.8818
20
51.1253
0
VERTEX
8
CUT
10
58.2176
20
49.7222
0
VERTEX
8
CUT
10
57.6216
20
47.2805
0
VERTEX
8
CUT
10
57.6509
20
46.0308
0
VERTEX
8
CUT
10
57.9567
20
44.6352
0
VERTEX
8
CUT
10
58.2872
20
44.4714
0
VERTEX
8
CUT
10
58.5844
20
44.6251
0
VERTEX
8
CUT
10
58.9975
20
46.2018
0
VERTEX
8
CUT
10
60.6519
20
49.1790
0
VERTEX
8
CUT
10
64.1791
20
53.8480
0
VERTEX
8
CUT
10
65.2600
20
55.1711
0
VERTEX
8
CUT
10
65.4321
20
55.5066
0
VERTEX
8
CUT
10
65.9998
20
56.2581
0
VERTEX
8
CUT
10
66.1860
20
56.8682
0
VERTEX
8
CUT
10
66.1507
20
57.6723
0
VERTEX
8
CUT
10
65.8883
20
58.2809
0
VERTEX
8
CUT
10
65.4724
20
58.6681
0
VERTEX
8
CUT
10
64.5213
20
58.8719
0
VERTEX
8
CUT
10
63.7633
20
58.5817
0
VERTEX
8
CUT
10
62.4947
20
56.3766
0
SEQEND
0
POLYLINE
8
CUT
66
1
70
1
10
0.0
20
0.0
30
0.0
0
VERTEX
8
CUT
10
58.7508
20
173.8326
0
VERTEX
8
CUT
10
59.3331
20
174.5169
0
VERTEX
8
CUT
10
59.5613
20
175.5540
0
VERTEX
8
CUT
10
58.7704
20
176.4597
0
VERTEX
8
CUT
10
57.6617
20
176.8248
0
VERTEX
8
CUT
10
56.9686
20
176.7947
0
VERTEX
8
CUT
10
56.2242
20
176.3746
0
VERTEX
8
CUT
10
55.5172
20
176.2623
0
VERTEX
8
CUT
10
49.2778
20
176.7895
0
VERTEX
8
CUT
10
47.6070
20
176.5325
0
VERTEX
8
CUT
10
44.9619
20
175.3238
0
VERTEX
8
CUT
10
43.9103
20
174.3130
0
VERTEX
8
CUT
10
43.4074
20
172.9195
0
VERTEX
8
CUT
10
43.2802
20
170.3192
0
VERTEX
8
CUT
10
43.5608
20
170.0786
0
VERTEX
8
CUT
10
43.8872
20
170.1551
0
VERTEX
8
CUT
10
44.9001
20
172.0075
0
VERTEX
8
CUT
10
45.8035
20
172.8670
0
VERTEX
8
CUT
10
46.7459
20
173.3486
0
VERTEX
8
CUT
10
48.5885
20
173.5846
0
VERTEX
8
CUT
10
53.8922
20
173.2001
0
VERTEX
8
CUT
10
54.1725
20
173.1545
0
VERTEX
8
CUT
10
56.3446
20
173.0585
0
VERTEX
8
CUT
10
57.0528
20
173.1809
0
VERTEX
8
CUT
10
57.1901
20
173.1847
0
VERTEX
8
CUT
10
57.2723
20
173.2188
0
VERTEX
8
CUT
10
57.4357
20
173.2470
0
VERTEX
8
CUT
10
58.3923
20
173.6612
0
VERTEX
8
CUT
10
58.4624
20
173.7129
0
SEQEND
0
POLYLINE
8
CUT
66
1
70
1
10
0.0
20
0.0
30
0.0
0
VERTEX
8
CUT
10
156.6512
20
213.3939
0
VERTEX
8
CUT
10
157.0333
20
214.1608
0
VERTEX
8
CUT
10
157.9455
20
215.1075
0
VERTEX
8
CUT
10
159.3865
20
215.9688
0
VERTEX
8
CUT
10
160.6934
20
216.3797
0
VERTEX
8
CUT
10
162.5912
20
216.4140
0
VERTEX
8
CUT
10
165.6414
20
216.1474
0
VERTEX
8
CUT
10
172.1809
20
214.4396
0
VERTEX
8
CUT
10
173.8264
20
214.2077
0
VERTEX
8
CUT
10
173.8641
20
214.2250
0
VERTEX
8
CUT
10
173.9305
20
214.2121
0
VERTEX
8
CUT
10
174.4834
20
214.4529
0
VERTEX
8
CUT
10
174.7342
20
214.7227
0
VERTEX
8
CUT
10
176.0695
20
215.9481
0
VERTEX
8
CUT
10
176.5889
20
216.2555
0
VERTEX
8
CUT
10
176.9080
20
216.3946
0
VERTEX
8
CUT
10
178.3916
20
216.6787
0
VERTEX
8
CUT
10
180.2047
20
216.5425
0
VERTEX
8
CUT
10
183.1461
20
215.7827
0
VERTEX
8
CUT
10
185.1750
20
214.9861
0
VERTEX
8
CUT
10
189.2867
20
212.8659
0
VERTEX
8
CUT
10
193.2462
20
210.1049
0
VERTEX
8
CUT
10
196.6788
20
207.0355
0
VERTEX
8
CUT
10
198.8554
20
204.3903
0
VERTEX
8
CUT
10
201.8725
20
198.8135
0
VERTEX
8
CUT
10
202.8525
20
197.5835
0
VERTEX
8
CUT
10
203.2324
20
195.8942
0
VERTEX
8
CUT
10
203.3023
20
195.0459
0
VERTEX
8
CUT
10
203.2065
20
193.2928
0
VERTEX
8
CUT
10
202.1992
20
191.0642
0
VERTEX
8
CUT
10
195.7482
20
183.4609
0
VERTEX
8
CUT
10
193.0092
20
181.9196
0
VERTEX
8
CUT
10
190.2642
20
181.3169
0
VERTEX
8
CUT
10
190.2435
20
181.3172
0
VERTEX
8
CUT
10
190.1258
20
181.3189
0
VERTEX
8
CUT
10
190.0992
20
181.3193
0
VERTEX
8
CUT
10
189.6555
20
181.3259
0
VERTEX
8
CUT
10
188.9025
20
181.5534
0
VERTEX
8
CUT
10
182.6924
20
185.1858
0
VERTEX
8
CUT
10
174.0176
20
189.4574
0
VERTEX
8
CUT
10
169.0313
20
191.5902
0
VERTEX
8
CUT
10
164.4707
20
193.2763
0
VERTEX
8
CUT
10
155.9928
20
197.2536
0
VERTEX
8
CUT
10
154.9786
20
197.5524
0
VERTEX
8
CUT
10
152.9998
20
197.6120
0
VERTEX
8
CUT
10
146.7428
20
196.9350
0
VERTEX
8
CUT
10
143.3683
20
198.9699
0
VERTEX
8
CUT
10
142.4271
20
199.7762
0
VERTEX
8
CUT
10
141.9008
20
200.4083
0
VERTEX
8
CUT
10
141.8062
20
200.8018
0
VERTEX
8
CUT
10
142.1437
20
201.6841
0
VERTEX
8
CUT
10
141.9866
20
202.0558
0
VERTEX
8
CUT
10
139.8183
20
201.7638
0
VERTEX
8
CUT
10
138.4602
20
202.4263
0
VERTEX
8
CUT
10
138.2099
20
202.9068
0
VERTEX
8
CUT
10
138.5213
20
203.5227
0
VERTEX
8
CUT
10
139.1000
20
203.8806
0
VERTEX
8
CUT
10
139.9225
20
204.0204
0
VERTEX
8
CUT
10
140.1530
20
204.6059
0
VERTEX
8
CUT
10
139.8445
20
206.6881
0
VERTEX
8
CUT
10
139.8569
20
207.1850
0
VERTEX
8
CUT
10
139.9048
20
207.3948
0
VERTEX
8
CUT
10
139.9695
20
207.6319
0
VERTEX
8
CUT
10
139.9773
20
207.6520
0
VERTEX
8
CUT
10
139.9808
20
207.6609
0
VERTEX
8
CUT
10
139.9850
20
207.6720
0
VERTEX
8
CUT
10
139.9970
20
207.7028
0
VERTEX
8
CUT
10
140.8735
20
209.2609
0
VERTEX
8
CUT
10
142.2742
20
210.4605
0
VERTEX
8
CUT
10
145.0618
20
211.7877
0
VERTEX
8
CUT
10
153.1786
20
212.1312
0
VERTEX
8
CUT
10
154.7210
20
212.0342
0
VERTEX
8
CUT
10
155.9208
20
212.1362
0
VERTEX
8
CUT
10
156.3769
20
212.4397
0
VERTEX
8
CUT
10
156.4841
20
212.8290
0
SEQEND
0
POLYLINE
8
CUT
66
1
70
1
10
0.0
20
0.0
30
0.0
0
VERTEX
8
CUT
10
246.5197
20
244.4250
0
VERTEX
8
CUT
10
247.9677
20
243.4151
0
VERTEX
8
CUT
10
249.1241
20
242.0583
0
VERTEX
8
CUT
10
249.8514
20
240.5748
0
VERTEX
8
CUT
10
249.9665
20
240.1944
0
VERTEX
8
CUT
10
249.9848
20
240.1338
0
VERTEX
8
CUT
10
249.9867
20
240.1278
0
VERTEX
8
CUT
10
249.9870
20
240.1268
0
VERTEX
8
CUT
10
250.2159
20
239.1592
0
VERTEX
8
CUT
10
250.3607
20
238.2051
0
VERTEX
8
CUT
10
250.3895
20
237.3436
0
VERTEX
8
CUT
10
250.3138
20
235.8863
0
VERTEX
8
CUT
10
250.1071
20
234.4525
0
VERTEX
8
CUT
10
249.4705
20
232.2542
0
VERTEX
8
CUT
10
247.8548
20
229.0556
0
VERTEX
8
CUT
10
242.1430
20
221.7543
0
VERTEX
8
CUT
10
238.9682
20
216.6986
0
VERTEX
8
CUT
10
233.7013
20
210.0154
0
VERTEX
8
CUT
10
231.5629
20
207.7435
0
VERTEX
8
CUT
10
229.5901
20
206.0752
0
VERTEX
8
CUT
10
226.8305
20
204.6129
0
VERTEX
8
CUT
10
224.0587
20
204.0364
0
VERTEX
8
CUT
10
221.5155
20
204.1364
0
VERTEX
8
CUT
10
219.6243
20
204.8889
0
VERTEX
8
CUT
10
217.7468
20
206.4272
0
VERTEX
8
CUT
10
216.4508
20
208.5572
0
VERTEX
8
CUT
10
216.0303
20
209.8818
0
VERTEX
8
CUT
10
215.6996
20
212.6591
0
VERTEX
8
CUT
10
215.8336
20
214.5252
0
VERTEX
8
CUT
10
216.2793
20
216.2964
0
VERTEX
8
CUT
10
216.9632
20
217.9900
0
VERTEX
8
CUT
10
217.9630
20
219.6636
0
VERTEX
8
CUT
10
219.2917
20
221.3678
0
VERTEX
8
CUT
10
220.8852
20
222.9923
0
VERTEX
8
CUT
10
222.7432
20
224.5832
0
VERTEX
8
CUT
10
229.4891
20
229.5198
0
VERTEX
8
CUT
10
233.9297
20
233.5671
0
VERTEX
8
CUT
10
236.4466
20
237.1603
0
VERTEX
8
CUT
10
239.1666
20
241.8509
0
VERTEX
8
CUT
10
240.0063
20
242.9343
0
VERTEX
8
CUT
10
241.4085
20
243.9504
0
VERTEX
8
CUT
10
242.1032
20
244.3305
0
VERTEX
8
CUT
10
243.9597
20
244.7758
0
VERTEX
8
CUT
10
244.9440
20
244.8107
0
SEQEND
0
POLYLINE
8
CUT
66
1
70
1
10
0.0
20
0.0
30
0.0
0
VERTEX
8
CUT
10
77.9995
20
276.9957
0
VERTEX
8
CUT
10
79.3237
20
279.2612
0
VERTEX
8
CUT
10
79.3238
20
279.2613
0
VERTEX
8
CUT
10
79.3242
20
279.2619
0
VERTEX
8
CUT
10
79.3244
20
279.2621
0
VERTEX
8
CUT
10
79.3246
20
279.2625
0
VERTEX
8
CUT
10
80.8423
20
281.2591
0
VERTEX
8
CUT
10
81.3245
20
281.7688
0
VERTEX
8
CUT
10
81.6128
20
282.0736
0
VERTEX
8
CUT
10
81.8318
20
282.3051
0
VERTEX
8
CUT
10
82.1211
20
282.6109
0
VERTEX
8
CUT
10
82.6454
20
283.1566
0
VERTEX
8
CUT
10
84.5989
20
284.7094
0
VERTEX
8
CUT
10
86.6141
20
285.8666
0
VERTEX
8
CUT
10
88.8734
20
286.7668
0
VERTEX
8
CUT
10
89.3796
20
286.8777
0
VERTEX
8
CUT
10
89.6556
20
286.9382
0
VERTEX
8
CUT
10
89.6736
20
286.9421
0
VERTEX
8
CUT
10
89.8598
20
286.9829
0
VERTEX
8
CUT
10
91.0336
20
287.1163
0
VERTEX
8
CUT
10
91.0786
20
287.1164
0
VERTEX
8
CUT
10
93.7544
20
286.9862
0
VERTEX
8
CUT
10
96.1199
20
286.1618
0
VERTEX
8
CUT
10
96.1405
20
286.1512
0
VERTEX
8
CUT
10
96.1406
20
286.1511
0
VERTEX
8
CUT
10
96.1607
20
286.1407
0
VERTEX
8
CUT
10
96.1955
20
286.1228
0
VERTEX
8
CUT
10
97.5702
20
285.0577
0
VERTEX
8
CUT
10
98.8731
20
283.6241
0
VERTEX
8
CUT
10
99.8234
20
281.9714
0
VERTEX
8
CUT
10
100.1452
20
280.9771
0
VERTEX
8
CUT
10
100.4547
20
279.0456
0
VERTEX
8
CUT
10
100.4670
20
278.8305
0
VERTEX
8
CUT
10
100.4736
20
278.7145
0
VERTEX
8
CUT
10
100.4774
20
278.6484
0
VERTEX
8
CUT
10
100.4813
20
278.5804
0
VERTEX
8
CUT
10
100.5099
20
276.4325
0
VERTEX
8
CUT
10
100.0806
20
273.0483
0
VERTEX
8
CUT
10
99.6360
20
271.5045
0
VERTEX
8
CUT
10
99.0614
20
270.0268
0
VERTEX
8
CUT
10
97.3180
20
267.0995
0
VERTEX
8
CUT
10
93.4078
20
262.2561
0
VERTEX
8
CUT
10
91.5503
20
259.3149
0
VERTEX
8
CUT
10
90.4950
20
256.4044
0
VERTEX
8
CUT
10
90.1998
20
254.8110
0
VERTEX
8
CUT
10
90.1352
20
252.5658
0
VERTEX
8
CUT
10
90.0732
20
252.5092
0
VERTEX
8
CUT
10
90.1195
20
252.0216
0
VERTEX
8
CUT
10
90.1003
20
251.3553
0
VERTEX
8
CUT
10
90.3204
20
249.9036
0
VERTEX
8
CUT
10
90.3311
20
249.7918
0
VERTEX
8
CUT
10
90.3471
20
249.7280
0
VERTEX
8
CUT
10
90.6475
20
247.7468
0
VERTEX
8
CUT
10
91.2312
20
245.9861
0
VERTEX
8
CUT
10
93.1228
20
242.3254
0
VERTEX
8
CUT
10
96.1742
20
238.1227
0
VERTEX
8
CUT
10
100.5913
20
232.8148
0
VERTEX
8
CUT
10
102.6058
20
230.1075
0
VERTEX
8
CUT
10
103.6419
20
228.4923
0
VERTEX
8
CUT
10
105.3331
20
225.4863
0
VERTEX
8
CUT
10
106.5647
20
222.4053
0
VERTEX
8
CUT
10
107.1209
20
220.3922
0
VERTEX
8
CUT
10
107.4285
20
218.0705
0
VERTEX
8
CUT
10
107.4262
20
215.7770
0
VERTEX
8
CUT
10
107.1202
20
213.4993
0
VERTEX
8
CUT
10
106.6005
20
212.0999
0
VERTEX
8
CUT
10
106.2432
20
211.6795
0
VERTEX
8
CUT
10
105.7593
20
211.5156
0
VERTEX
8
CUT
10
105.2483
20
211.6559
0
VERTEX
8
CUT
10
102.8640
20
213.4770
0
VERTEX
8
CUT
10
99.8593
20
216.0530
0
VERTEX
8
CUT
10
92.3128
20
223.3688
0
VERTEX
8
CUT
10
87.7558
20
228.1569
0
VERTEX
8
CUT
10
82.9760
20
233.5630
0
VERTEX
8
CUT
10
80.7153
20
236.7515
0
VERTEX
8
CUT
10
78.0051
20
240.1143
0
VERTEX
8
CUT
10
74.3636
20
245.9485
0
VERTEX
8
CUT
10
75.4450
20
249.8617
0
VERTEX
8
CUT
10
75.6770
20
251.9472
0
VERTEX
8
CUT
10
75.5142
20
255.5432
0
VERTEX
8
CUT
10
74.8541
20
261.8182
0
VERTEX
8
CUT
10
74.9217
20
266.0855
0
VERTEX
8
CUT
10
75.2826
20
268.8092
0
VERTEX
8
CUT
10
75.9439
20
271.6922
0
VERTEX
8
CUT
10
76.8376
20
274.4117
0
VERTEX
8
CUT
10
77.9416
20
276.8846
0
VERTEX
8
CUT
10
77.9624
20
276.9246
0
VERTEX
8
CUT
10
77.9667
20
276.9327
0
VERTEX
8
CUT
10
77.9673
20
276.9339
0
SEQEND
0
ENDSEC
0
EOF
