0
SECTION
2
HEADER
9
$ACADVER
1
AC1009
9
$INSUNITS
70
4
0
ENDSEC
0
SECTION
2
TABLES
0
TABLE
2
LAYER
70
1
0
LAYER
2
CUT
70
0
62
7
6
CONTINUOUS
0
ENDTAB
0
ENDSEC
0
SECTION
2
ENTITIES
0
POLYLINE
8
CUT
66
1
70
1
10
0.0
20
0.0
30
0.0
0
VERTEX
8
CUT
10
142.5860
20
134.0806
0
VERTEX
8
CUT
10
143.6031
20
133.2675
0
VERTEX
8
CUT
10
144.2350
20
132.5601
0
VERTEX
8
CUT
10
144.6206
20
131.7385
0
VERTEX
8
CUT
10
144.3436
20
128.8799
0
VERTEX
8
CUT
10
142.5616
20
126.7807
0
VERTEX
8
CUT
10
139.8500
20
124.0918
0
VERTEX
8
CUT
10
139.6222
20
124.1367
0
VERTEX
8
CUT
10
138.9884
20
124.9016
0
VERTEX
8
CUT
10
136.5274
20
128.3502
0
VERTEX
8
CUT
10
135.3492
20
129.4380
0
VERTEX
8
CUT
10
134.9241
20
129.6654
0
VERTEX
8
CUT
10
134.9187
20
129.6705
0
VERTEX
8
CUT
10
134.9040
20
129.6761
0
VERTEX
8
CUT
10
134.3665
20
129.9637
0
VERTEX
8
CUT
10
133.8146
20
130.0445
0
VERTEX
8
CUT
10
133.6870
20
129.9844
0
VERTEX
8
CUT
10
133.6624
20
129.9851
0
VERTEX
8
CUT
10
133.5782
20
129.9331
0
VERTEX
8
CUT
10
132.9192
20
129.6225
0
VERTEX
8
CUT
10
131.1931
20
128.0975
0
VERTEX
8
CUT
10
130.3750
20
126.7591
0
VERTEX
8
CUT
10
130.2803
20
126.6388
0
VERTEX
8
CUT
10
130.1819
20
126.4431
0
VERTEX
8
CUT
10
129.6239
20
125.5302
0
VERTEX
8
CUT
10
128.9578
20
123.9350
0
VERTEX
8
CUT
10
127.9877
20
120.6378
0
VERTEX
8
CUT
10
127.5575
20
117.5069
0
VERTEX
8
CUT
10
127.2135
20
116.4630
0
VERTEX
8
CUT
10
125.5353
20
114.0717
0
VERTEX
8
CUT
10
124.9668
20
113.6394
0
VERTEX
8
CUT
10
124.3966
20
113.7155
0
VERTEX
8
CUT
10
123.7067
20
114.3541
0
VERTEX
8
CUT
10
122.5919
20
114.9945
0
VERTEX
8
CUT
10
115.8135
20
118.5304
0
VERTEX
8
CUT
10
115.9765
20
121.1728
0
VERTEX
8
CUT
10
116.9756
20
124.0052
0
VERTEX
8
CUT
10
118.3919
20
126.6284
0
VERTEX
8
CUT
10
121.0589
20
129.8549
0
VERTEX
8
CUT
10
124.4165
20
132.5204
0
VERTEX
8
CUT
10
126.3181
20
133.5582
0
VERTEX
8
CUT
10
128.3829
20
134.4380
0
VERTEX
8
CUT
10
132.4719
20
135.4985
0
VERTEX
8
CUT
10
136.3032
20
135.7296
0
VERTEX
8
CUT
10
139.7660
20
135.2666
0
VERTEX
8
CUT
10
141.3241
20
134.7463
0
SEQEND
0
POLYLINE
8
CUT
66
1
70
1
10
0.0
20
0.0
30
0.0
0
VERTEX
8
CUT
10
94.3272
20
218.8841
0
VERTEX
8
CUT
10
99.3940
20
214.0482
0
VERTEX
8
CUT
10
100.6710
20
212.9406
0
VERTEX
8
CUT
10
103.4384
20
210.3653
0
VERTEX
8
CUT
10
111.3597
20
203.9888
0
VERTEX
8
CUT
10
115.6470
20
200.8557
0
VERTEX
8
CUT
10
120.0244
20
197.8279
0
VERTEX
8
CUT
10
121.4643
20
196.9102
0
VERTEX
8
CUT
10
122.7128
20
196.0576
0
VERTEX
8
CUT
10
127.0893
20
193.3253
0
VERTEX
8
CUT
10
129.0104
20
192.1009
0
VERTEX
8
CUT
10
138.0508
20
187.0054
0
VERTEX
8
CUT
10
142.5833
20
184.9052
0
VERTEX
8
CUT
10
142.8445
20
185.1554
0
VERTEX
8
CUT
10
142.7635
20
185.5415
0
VERTEX
8
CUT
10
133.3880
20
195.1429
0
VERTEX
8
CUT
10
128.1171
20
200.9409
0
VERTEX
8
CUT
10
124.5807
20
205.4306
0
VERTEX
8
CUT
10
123.4851
20
206.9167
0
VERTEX
8
CUT
10
122.2025
20
208.8034
0
VERTEX
8
CUT
10
118.6163
20
214.8297
0
VERTEX
8
CUT
10
117.9693
20
215.9297
0
VERTEX
8
CUT
10
117.9593
20
216.2712
0
VERTEX
8
CUT
10
117.2674
20
217.5232
0
VERTEX
8
CUT
10
116.8720
20
217.7868
0
VERTEX
8
CUT
10
116.8574
20
217.7854
0
VERTEX
8
CUT
10
116.6336
20
218.1614
0
VERTEX
8
CUT
10
112.5125
20
223.4701
0
VERTEX
8
CUT
10
108.1239
20
230.4985
0
VERTEX
8
CUT
10
106.1256
20
235.1973
0
VERTEX
8
CUT
10
105.4288
20
237.9258
0
VERTEX
8
CUT
10
105.1314
20
240.5353
0
VERTEX
8
CUT
10
105.2669
20
242.9667
0
VERTEX
8
CUT
10
105.9613
20
245.5609
0
VERTEX
8
CUT
10
105.9955
20
245.6203
0
VERTEX
8
CUT
10
106.0292
20
245.6788
0
VERTEX
8
CUT
10
106.0345
20
245.6879
0
VERTEX
8
CUT
10
106.0668
20
245.7440
0
VERTEX
8
CUT
10
106.7893
20
246.7331
0
VERTEX
8
CUT
10
107.0585
20
246.9756
0
VERTEX
8
CUT
10
109.1595
20
248.1725
0
VERTEX
8
CUT
10
110.9164
20
248.3955
0
VERTEX
8
CUT
10
110.9765
20
248.3976
0
VERTEX
8
CUT
10
111.8843
20
248.1471
0
VERTEX
8
CUT
10
112.8391
20
247.8720
0
VERTEX
8
CUT
10
113.1182
20
247.6892
0
VERTEX
8
CUT
10
114.8869
20
246.4880
0
VERTEX
8
CUT
10
117.0083
20
244.6632
0
VERTEX
8
CUT
10
117.5550
20
244.1723
0
VERTEX
8
CUT
10
117.9922
20
243.7065
0
VERTEX
8
CUT
10
118.2151
20
243.7509
0
VERTEX
8
CUT
10
118.5415
20
243.6559
0
VERTEX
8
CUT
10
119.0120
20
244.0750
0
VERTEX
8
CUT
10
119.1295
20
245.4945
0
VERTEX
8
CUT
10
119.0769
20
245.6818
0
VERTEX
8
CUT
10
119.1293
20
245.8695
0
VERTEX
8
CUT
10
118.7232
20
246.9406
0
VERTEX
8
CUT
10
117.9165
20
249.8117
0
VERTEX
8
CUT
10
117.3135
20
253.5032
0
VERTEX
8
CUT
10
117.2988
20
253.6478
0
VERTEX
8
CUT
10
117.2854
20
253.7785
0
VERTEX
8
CUT
10
117.2742
20
253.8885
0
VERTEX
8
CUT
10
117.2512
20
254.1139
0
VERTEX
8
CUT
10
117.2204
20
256.0844
0
VERTEX
8
CUT
10
117.2345
20
256.7041
0
VERTEX
8
CUT
10
117.2602
20
257.8341
0
VERTEX
8
CUT
10
117.2633
20
257.9691
0
VERTEX
8
CUT
10
117.2758
20
258.5216
0
VERTEX
8
CUT
10
117.6549
20
261.1087
0
VERTEX
8
CUT
10
117.8072
20
261.9351
0
VERTEX
8
CUT
10
118.7901
20
264.8924
0
VERTEX
8
CUT
10
118.8094
20
264.9402
0
VERTEX
8
CUT
10
118.8204
20
264.9673
0
VERTEX
8
CUT
10
118.8762
20
265.1050
0
VERTEX
8
CUT
10
119.0910
20
265.6352
0
VERTEX
8
CUT
10
119.6447
20
266.7957
0
VERTEX
8
CUT
10
121.6076
20
269.7954
0
VERTEX
8
CUT
10
123.3767
20
271.7394
0
VERTEX
8
CUT
10
125.0904
20
273.5451
0
VERTEX
8
CUT
10
130.1164
20
278.0126
0
VERTEX
8
CUT
10
131.2366
20
279.2316
0
VERTEX
8
CUT
10
131.2505
20
279.4253
0
VERTEX
8
CUT
10
131.5921
20
279.7507
0
VERTEX
8
CUT
10
132.4262
20
280.8191
0
VERTEX
8
CUT
10
132.9735
20
281.8190
0
VERTEX
8
CUT
10
133.0074
20
281.8624
0
VERTEX
8
CUT
10
133.0341
20
281.9297
0
VERTEX
8
CUT
10
133.5322
20
282.8397
0
VERTEX
8
CUT
10
133.7124
20
283.6401
0
VERTEX
8
CUT
10
133.7255
20
283.6732
0
VERTEX
8
CUT
10
133.7580
20
283.8425
0
VERTEX
8
CUT
10
134.0267
20
285.0362
0
VERTEX
8
CUT
10
133.9978
20
286.3333
0
VERTEX
8
CUT
10
134.0543
20
287.5790
0
VERTEX
8
CUT
10
133.5678
20
289.6541
0
VERTEX
8
CUT
10
133.3859
20
289.9969
0
VERTEX
8
CUT
10
133.3553
20
290.1073
0
VERTEX
8
CUT
10
132.6746
20
291.3376
0
VERTEX
8
CUT
10
131.5681
20
293.4231
0
VERTEX
8
CUT
10
131.1951
20
294.8118
0
VERTEX
8
CUT
10
131.1932
20
295.9678
0
VERTEX
8
CUT
10
131.6652
20
297.5224
0
VERTEX
8
CUT
10
132.3044
20
298.3860
0
VERTEX
8
CUT
10
133.1322
20
299.0612
0
VERTEX
8
CUT
10
134.1721
20
299.5369
0
VERTEX
8
CUT
10
135.5024
20
299.7086
0
VERTEX
8
CUT
10
135.7080
20
299.7179
0
VERTEX
8
CUT
10
136.3277
20
299.6767
0
VERTEX
8
CUT
10
136.4739
20
299.6670
0
VERTEX
8
CUT
10
136.7780
20
299.6468
0
VERTEX
8
CUT
10
136.9160
20
299.6377
0
VERTEX
8
CUT
10
136.9290
20
299.6368
0
VERTEX
8
CUT
10
136.9294
20
299.6368
0
VERTEX
8
CUT
10
138.4548
20
299.2822
0
VERTEX
8
CUT
10
140.5934
20
298.1305
0
VERTEX
8
CUT
10
141.7056
20
297.2614
0
VERTEX
8
CUT
10
143.7075
20
295.0851
0
VERTEX
8
CUT
10
145.2397
20
292.4456
0
VERTEX
8
CUT
10
146.2280
20
289.5467
0
VERTEX
8
CUT
10
146.4985
20
287.9729
0
VERTEX
8
CUT
10
146.5855
20
283.1318
0
VERTEX
8
CUT
10
146.9200
20
282.8572
0
VERTEX
8
CUT
10
147.5196
20
283.0635
0
VERTEX
8
CUT
10
147.8748
20
282.9741
0
VERTEX
8
CUT
10
148.7076
20
281.9516
0
VERTEX
8
CUT
10
149.4977
20
279.6975
0
VERTEX
8
CUT
10
149.6001
20
277.8115
0
VERTEX
8
CUT
10
149.0037
20
274.5162
0
VERTEX
8
CUT
10
148.5477
20
273.2255
0
VERTEX
8
CUT
10
147.8887
20
272.5808
0
VERTEX
8
CUT
10
146.6907
20
272.5682
0
VERTEX
8
CUT
10
146.4114
20
272.3300
0
VERTEX
8
CUT
10
146.4389
20
269.2388
0
VERTEX
8
CUT
10
142.7892
20
265.2507
0
VERTEX
8
CUT
10
139.5900
20
261.3995
0
VERTEX
8
CUT
10
139.2183
20
260.7567
0
VERTEX
8
CUT
10
138.3633
20
259.3744
0
VERTEX
8
CUT
10
138.1706
20
258.9449
0
VERTEX
8
CUT
10
137.6322
20
258.0138
0
VERTEX
8
CUT
10
137.0085
20
256.3749
0
VERTEX
8
CUT
10
136.6866
20
254.7087
0
VERTEX
8
CUT
10
136.6679
20
254.1792
0
VERTEX
8
CUT
10
136.5524
20
253.4540
0
VERTEX
8
CUT
10
136.5384
20
252.4703
0
VERTEX
8
CUT
10
136.4884
20
252.0760
0
VERTEX
8
CUT
10
136.5279
20
251.7313
0
VERTEX
8
CUT
10
136.5238
20
251.4419
0
VERTEX
8
CUT
10
136.5606
20
251.1525
0
VERTEX
8
CUT
10
136.5549
20
250.9919
0
VERTEX
8
CUT
10
136.7215
20
249.8854
0
VERTEX
8
CUT
10
136.7768
20
249.4496
0
VERTEX
8
CUT
10
136.7964
20
249.3876
0
VERTEX
8
CUT
10
136.7975
20
249.3807
0
VERTEX
8
CUT
10
136.8082
20
249.2871
0
VERTEX
8
CUT
10
136.8153
20
249.2624
0
VERTEX
8
CUT
10
136.9811
20
248.1615
0
VERTEX
8
CUT
10
137.9269
20
245.4327
0
VERTEX
8
CUT
10
139.6467
20
242.3842
0
VERTEX
8
CUT
10
143.3418
20
237.0715
0
VERTEX
8
CUT
10
145.2841
20
233.7837
0
VERTEX
8
CUT
10
145.5406
20
233.1659
0
VERTEX
8
CUT
10
146.1242
20
231.5416
0
VERTEX
8
CUT
10
146.4306
20
229.9643
0
VERTEX
8
CUT
10
146.5024
20
228.4207
0
VERTEX
8
CUT
10
146.3338
20
227.0037
0
VERTEX
8
CUT
10
145.9465
20
225.6525
0
VERTEX
8
CUT
10
145.3469
20
224.5233
0
VERTEX
8
CUT
10
144.5561
20
223.5671
0
VERTEX
8
CUT
10
143.4071
20
222.7664
0
VERTEX
8
CUT
10
143.3861
20
222.7518
0
VERTEX
8
CUT
10
143.3731
20
222.7427
0
VERTEX
8
CUT
10
143.3711
20
222.7413
0
VERTEX
8
CUT
10
141.3540
20
222.0575
0
VERTEX
8
CUT
10
138.9083
20
222.0904
0
VERTEX
8
CUT
10
137.4859
20
222.3682
0
VERTEX
8
CUT
10
134.3637
20
223.4858
0
VERTEX
8
CUT
10
130.3462
20
225.2339
0
VERTEX
8
CUT
10
128.3471
20
225.5440
0
VERTEX
8
CUT
10
127.8611
20
225.4992
0
VERTEX
8
CUT
10
127.5731
20
225.5448
0
VERTEX
8
CUT
10
126.4945
20
225.3669
0
VERTEX
8
CUT
10
125.5025
20
224.9491
0
VERTEX
8
CUT
10
125.4301
20
224.8745
0
VERTEX
8
CUT
10
125.2583
20
224.8029
0
VERTEX
8
CUT
10
124.0956
20
223.6929
0
VERTEX
8
CUT
10
123.3987
20
222.2810
0
VERTEX
8
CUT
10
123.1199
20
220.5284
0
VERTEX
8
CUT
10
123.3076
20
218.2831
0
VERTEX
8
CUT
10
124.1318
20
213.9348
0
VERTEX
8
CUT
10
124.6506
20
212.5529
0
VERTEX
8
CUT
10
125.7465
20
210.7841
0
VERTEX
8
CUT
10
131.6299
20
203.4233
0
VERTEX
8
CUT
10
134.4583
20
200.2992
0
VERTEX
8
CUT
10
139.4434
20
195.2596
0
VERTEX
8
CUT
10
139.7214
20
194.9706
0
VERTEX
8
CUT
10
139.8021
20
194.8970
0
VERTEX
8
CUT
10
140.4720
20
194.2199
0
VERTEX
8
CUT
10
143.2440
20
191.6131
0
VERTEX
8
CUT
10
144.7655
20
190.3754
0
VERTEX
8
CUT
10
144.7959
20
190.3477
0
VERTEX
8
CUT
10
144.7997
20
190.3476
0
VERTEX
8
CUT
10
146.9802
20
188.5739
0
VERTEX
8
CUT
10
147.3439
20
188.5574
0
VERTEX
8
CUT
10
147.5624
20
188.8486
0
VERTEX
8
CUT
10
147.0401
20
190.0920
0
VERTEX
8
CUT
10
147.0628
20
190.4719
0
VERTEX
8
CUT
10
147.3578
20
190.7438
0
VERTEX
8
CUT
10
148.6024
20
191.2093
0
VERTEX
8
CUT
10
150.7080
20
191.5430
0
VERTEX
8
CUT
10
151.8436
20
191.6388
0
VERTEX
8
CUT
10
155.4784
20
191.6183
0
VERTEX
8
CUT
10
157.2120
20
191.5325
0
VERTEX
8
CUT
10
160.5491
20
191.0060
0
VERTEX
8
CUT
10
164.2851
20
190.1123
0
VERTEX
8
CUT
10
167.1120
20
189.2253
0
VERTEX
8
CUT
10
168.0460
20
188.9067
0
VERTEX
8
CUT
10
168.5539
20
188.7335
0
VERTEX
8
CUT
10
168.7007
20
188.6835
0
VERTEX
8
CUT
10
168.8252
20
188.6410
0
VERTEX
8
CUT
10
171.0970
20
187.7624
0
VERTEX
8
CUT
10
176.2304
20
185.4592
0
VERTEX
8
CUT
10
178.0987
20
184.4821
0
VERTEX
8
CUT
10
179.9913
20
183.4801
0
VERTEX
8
CUT
10
185.9430
20
179.6791
0
VERTEX
8
CUT
10
189.0598
20
176.9764
0
VERTEX
8
CUT
10
189.1941
20
176.8401
0
VERTEX
8
CUT
10
190.9942
20
174.7654
0
VERTEX
8
CUT
10
191.1785
20
174.5028
0
VERTEX
8
CUT
10
191.2358
20
174.4211
0
VERTEX
8
CUT
10
191.4312
20
174.1427
0
VERTEX
8
CUT
10
191.4457
20
174.1220
0
VERTEX
8
CUT
10
191.7593
20
173.6535
0
VERTEX
8
CUT
10
192.0842
20
173.0563
0
VERTEX
8
CUT
10
192.6457
20
171.9365
0
VERTEX
8
CUT
10
192.6890
20
171.8365
0
VERTEX
8
CUT
10
193.1764
20
170.2480
0
VERTEX
8
CUT
10
193.4505
20
167.2926
0
VERTEX
8
CUT
10
193.3083
20
166.2231
0
VERTEX
8
CUT
10
192.8775
20
164.9978
0
VERTEX
8
CUT
10
189.8038
20
158.2221
0
VERTEX
8
CUT
10
188.5646
20
156.3120
0
VERTEX
8
CUT
10
186.9907
20
155.2707
0
VERTEX
8
CUT
10
185.7611
20
154.7190
0
VERTEX
8
CUT
10
185.0568
20
154.4031
0
VERTEX
8
CUT
10
184.5784
20
154.1884
0
VERTEX
8
CUT
10
184.3199
20
154.0725
0
VERTEX
8
CUT
10
181.7595
20
153.0505
0
VERTEX
8
CUT
10
179.6977
20
151.7851
0
VERTEX
8
CUT
10
179.3541
20
151.3587
0
VERTEX
8
CUT
10
179.0657
20
151.0729
0
VERTEX
8
CUT
10
179.1763
20
150.5736
0
VERTEX
8
CUT
10
180.1179
20
149.8130
0
VERTEX
8
CUT
10
180.6241
20
149.0924
0
VERTEX
8
CUT
10
184.0101
20
145.8040
0
VERTEX
8
CUT
10
185.9369
20
144.4181
0
VERTEX
8
CUT
10
187.7357
20
143.7364
0
VERTEX
8
CUT
10
191.1456
20
143.3740
0
VERTEX
8
CUT
10
197.5238
20
144.1970
0
VERTEX
8
CUT
10
203.6331
20
144.1354
0
VERTEX
8
CUT
10
205.7784
20
144.8726
0
VERTEX
8
CUT
10
207.1063
20
145.8072
0
VERTEX
8
CUT
10
208.1746
20
145.2504
0
VERTEX
8
CUT
10
208.7789
20
145.3019
0
VERTEX
8
CUT
10
210.7869
20
146.2253
0
VERTEX
8
CUT
10
212.3961
20
147.2358
0
VERTEX
8
CUT
10
212.3338
20
147.6250
0
VERTEX
8
CUT
10
210.8488
20
149.0593
0
VERTEX
8
CUT
10
210.3663
20
150.8801
0
VERTEX
8
CUT
10
208.3197
20
151.8393
0
VERTEX
8
CUT
10
206.3689
20
153.7930
0
VERTEX
8
CUT
10
205.7074
20
154.2606
0
VERTEX
8
CUT
10
203.5411
20
156.0163
0
VERTEX
8
CUT
10
203.1712
20
156.4599
0
VERTEX
8
CUT
10
203.1378
20
156.5067
0
VERTEX
8
CUT
10
203.1161
20
156.5372
0
VERTEX
8
CUT
10
203.1001
20
156.5598
0
VERTEX
8
CUT
10
202.9169
20
156.8172
0
VERTEX
8
CUT
10
200.2848
20
161.7566
0
VERTEX
8
CUT
10
195.9281
20
167.4567
0
VERTEX
8
CUT
10
195.6970
20
167.9999
0
VERTEX
8
CUT
10
195.6658
20
168.0733
0
VERTEX
8
CUT
10
195.6348
20
168.1461
0
VERTEX
8
CUT
10
195.5959
20
168.2376
0
VERTEX
8
CUT
10
195.1312
20
169.4823
0
VERTEX
8
CUT
10
194.7507
20
171.0865
0
VERTEX
8
CUT
10
194.5176
20
172.5131
0
VERTEX
8
CUT
10
194.5044
20
173.1231
0
VERTEX
8
CUT
10
194.5000
20
173.5127
0
VERTEX
8
CUT
10
194.5298
20
174.2825
0
VERTEX
8
CUT
10
195.0126
20
176.8765
0
VERTEX
8
CUT
10
196.1927
20
179.5989
0
VERTEX
8
CUT
10
196.8147
20
180.5663
0
VERTEX
8
CUT
10
198.3528
20
182.5242
0
VERTEX
8
CUT
10
199.4655
20
183.8495
0
VERTEX
8
CUT
10
199.7778
20
184.1921
0
VERTEX
8
CUT
10
200.1729
20
184.6253
0
VERTEX
8
CUT
10
200.3957
20
184.8697
0
VERTEX
8
CUT
10
200.4772
20
184.9590
0
VERTEX
8
CUT
10
200.7669
20
185.2767
0
VERTEX
8
CUT
10
201.8329
20
186.4098
0
VERTEX
8
CUT
10
201.9958
20
186.5791
0
VERTEX
8
CUT
10
202.0451
20
186.6302
0
VERTEX
8
CUT
10
202.6021
20
187.2087
0
VERTEX
8
CUT
10
204.6201
20
189.3046
0
VERTEX
8
CUT
10
205.9624
20
190.5852
0
VERTEX
8
CUT
10
206.2927
20
190.8663
0
VERTEX
8
CUT
10
207.6691
20
191.8762
0
VERTEX
8
CUT
10
209.9828
20
192.6848
0
VERTEX
8
CUT
10
211.1717
20
192.7585
0
VERTEX
8
CUT
10
213.6116
20
192.3602
0
VERTEX
8
CUT
10
214.7999
20
191.8227
0
VERTEX
8
CUT
10
215.4274
20
191.4456
0
VERTEX
8
CUT
10
216.3371
20
190.8042
0
VERTEX
8
CUT
10
216.3970
20
190.7505
0
VERTEX
8
CUT
10
218.2897
20
188.8724
0
VERTEX
8
CUT
10
218.4576
20
188.4209
0
VERTEX
8
CUT
10
218.2989
20
185.9889
0
VERTEX
8
CUT
10
218.6009
20
185.7168
0
VERTEX
8
CUT
10
219.0959
20
185.8651
0
VERTEX
8
CUT
10
225.7978
20
190.3782
0
VERTEX
8
CUT
10
231.9216
20
194.9215
0
VERTEX
8
CUT
10
235.4082
20
197.7427
0
VERTEX
8
CUT
10
237.9507
20
199.7645
0
VERTEX
8
CUT
10
238.5869
20
200.3148
0
VERTEX
8
CUT
10
240.5504
20
201.9035
0
VERTEX
8
CUT
10
242.7120
20
203.8824
0
VERTEX
8
CUT
10
244.0327
20
205.0246
0
VERTEX
8
CUT
10
244.8648
20
205.8170
0
VERTEX
8
CUT
10
246.6747
20
207.4356
0
VERTEX
8
CUT
10
247.9289
20
208.6583
0
VERTEX
8
CUT
10
249.5014
20
210.0979
0
VERTEX
8
CUT
10
252.0120
20
212.6225
0
VERTEX
8
CUT
10
252.9918
20
213.5555
0
VERTEX
8
CUT
10
253.9918
20
214.6134
0
VERTEX
8
CUT
10
255.3930
20
216.0225
0
VERTEX
8
CUT
10
260.3428
20
221.3324
0
VERTEX
8
CUT
10
262.2337
20
223.3329
0
VERTEX
8
CUT
10
262.5331
20
223.6497
0
VERTEX
8
CUT
10
263.5923
20
224.7702
0
VERTEX
8
CUT
10
264.6177
20
225.8550
0
VERTEX
8
CUT
10
266.1767
20
226.9534
0
VERTEX
8
CUT
10
266.8439
20
226.7062
0
VERTEX
8
CUT
10
266.9824
20
226.4520
0
VERTEX
8
CUT
10
266.9967
20
226.4256
0
VERTEX
8
CUT
10
266.9971
20
226.4250
0
VERTEX
8
CUT
10
266.9979
20
226.4236
0
VERTEX
8
CUT
10
266.9983
20
226.4162
0
VERTEX
8
CUT
10
267.0117
20
225.5702
0
VERTEX
8
CUT
10
264.8167
20
221.3897
0
VERTEX
8
CUT
10
264.5010
20
220.8860
0
VERTEX
8
CUT
10
259.9389
20
214.5906
0
VERTEX
8
CUT
10
258.4843
20
212.7287
0
VERTEX
8
CUT
10
257.0528
20
211.0411
0
VERTEX
8
CUT
10
251.5065
20
204.9205
0
VERTEX
8
CUT
10
245.0062
20
198.6829
0
VERTEX
8
CUT
10
242.7259
20
196.6358
0
VERTEX
8
CUT
10
240.2773
20
194.6097
0
VERTEX
8
CUT
10
237.0979
20
192.0442
0
VERTEX
8
CUT
10
232.9389
20
188.9249
0
VERTEX
8
CUT
10
223.4397
20
182.4719
0
VERTEX
8
CUT
10
223.4313
20
182.2560
0
VERTEX
8
CUT
10
223.2757
20
182.1461
0
VERTEX
8
CUT
10
223.3199
20
181.8299
0
VERTEX
8
CUT
10
223.2491
20
181.6750
0
VERTEX
8
CUT
10
223.3880
20
181.1466
0
VERTEX
8
CUT
10
223.3338
20
179.7566
0
VERTEX
8
CUT
10
222.7696
20
178.4267
0
VERTEX
8
CUT
10
222.8948
20
178.0130
0
VERTEX
8
CUT
10
223.6103
20
177.9709
0
VERTEX
8
CUT
10
225.8373
20
178.5528
0
VERTEX
8
CUT
10
234.9544
20
181.4824
0
VERTEX
8
CUT
10
242.1648
20
184.0507
0
VERTEX
8
CUT
10
246.6591
20
185.8782
0
VERTEX
8
CUT
10
247.8486
20
186.3179
0
VERTEX
8
CUT
10
251.5669
20
187.8738
0
VERTEX
8
CUT
10
254.2604
20
188.9690
0
VERTEX
8
CUT
10
254.4780
20
189.0554
0
VERTEX
8
CUT
10
254.5132
20
189.0718
0
VERTEX
8
CUT
10
256.0779
20
189.7080
0
VERTEX
8
CUT
10
259.2845
20
191.2463
0
VERTEX
8
CUT
10
259.9077
20
191.5236
0
VERTEX
8
CUT
10
261.7140
20
192.4117
0
VERTEX
8
CUT
10
262.8888
20
192.9753
0
VERTEX
8
CUT
10
264.6183
20
193.7814
0
VERTEX
8
CUT
10
264.6398
20
193.7912
0
VERTEX
8
CUT
10
264.6462
20
193.7944
0
VERTEX
8
CUT
10
264.6468
20
193.7947
0
VERTEX
8
CUT
10
264.6477
20
193.7951
0
VERTEX
8
CUT
10
266.0483
20
194.4910
0
VERTEX
8
CUT
10
269.8830
20
196.3306
0
VERTEX
8
CUT
10
271.4868
20
197.2167
0
VERTEX
8
CUT
10
271.7497
20
197.3460
0
VERTEX
8
CUT
10
273.9685
20
198.5880
0
VERTEX
8
CUT
10
275.1145
20
199.2212
0
VERTEX
8
CUT
10
276.2608
20
199.8155
0
VERTEX
8
CUT
10
279.5215
20
201.6486
0
VERTEX
8
CUT
10
280.5072
20
202.1855
0
VERTEX
8
CUT
10
281.0430
20
202.4970
0
VERTEX
8
CUT
10
289.3105
20
207.0653
0
VERTEX
8
CUT
10
290.4861
20
207.5467
0
VERTEX
8
CUT
10
291.2329
20
207.4278
0
VERTEX
8
CUT
10
291.4332
20
207.0123
0
VERTEX
8
CUT
10
291.2362
20
206.4734
0
VERTEX
8
CUT
10
289.5659
20
204.7292
0
VERTEX
8
CUT
10
287.3177
20
202.8249
0
VERTEX
8
CUT
10
285.9935
20
201.7761
0
VERTEX
8
CUT
10
283.0310
20
199.6823
0
VERTEX
8
CUT
10
282.1647
20
199.0700
0
VERTEX
8
CUT
10
282.1465
20
199.0572
0
VERTEX
8
CUT
10
281.1390
20
198.3451
0
VERTEX
8
CUT
10
280.1593
20
197.6527
0
VERTEX
8
CUT
10
279.8604
20
197.4555
0
VERTEX
8
CUT
10
279.3622
20
197.1448
0
VERTEX
8
CUT
10
279.3322
20
197.1261
0
VERTEX
8
CUT
10
278.8032
20
196.7963
0
VERTEX
8
CUT
10
275.3941
20
194.6707
0
VERTEX
8
CUT
10
265.9798
20
189.2642
0
VERTEX
8
CUT
10
253.6922
20
183.2357
0
VERTEX
8
CUT
10
247.6104
20
180.6244
0
VERTEX
8
CUT
10
237.1271
20
176.8663
0
VERTEX
8
CUT
10
226.2233
20
173.5487
0
VERTEX
8
CUT
10
225.8562
20
173.3061
0
VERTEX
8
CUT
10
225.4591
20
173.1339
0
VERTEX
8
CUT
10
225.4200
20
173.0179
0
VERTEX
8
CUT
10
225.2864
20
172.9296
0
VERTEX
8
CUT
10
224.6253
20
170.9341
0
VERTEX
8
CUT
10
223.8743
20
169.9492
0
VERTEX
8
CUT
10
223.8804
20
169.6556
0
VERTEX
8
CUT
10
224.1253
20
169.4371
0
VERTEX
8
CUT
10
229.7965
20
169.5979
0
VERTEX
8
CUT
10
237.7688
20
170.1579
0
VERTEX
8
CUT
10
244.8038
20
170.8107
0
VERTEX
8
CUT
10
246.9196
20
170.9808
0
VERTEX
8
CUT
10
247.8873
20
171.0969
0
VERTEX
8
CUT
10
251.9575
20
171.4746
0
VERTEX
8
CUT
10
258.7143
20
172.3960
0
VERTEX
8
CUT
10
260.9116
20
172.6597
0
VERTEX
8
CUT
10
262.5013
20
172.9124
0
VERTEX
8
CUT
10
265.7277
20
173.3524
0
VERTEX
8
CUT
10
268.9533
20
173.9383
0
VERTEX
8
CUT
10
270.2383
20
174.1427
0
VERTEX
8
CUT
10
284.8170
20
176.7937
0
VERTEX
8
CUT
10
286.6498
20
177.0082
0
VERTEX
8
CUT
10
287.0611
20
176.9803
0
VERTEX
8
CUT
10
287.4839
20
176.7385
0
VERTEX
8
CUT
10
287.5904
20
176.5975
0
VERTEX
8
CUT
10
287.6267
20
176.5494
0
VERTEX
8
CUT
10
287.6484
20
176.5206
0
VERTEX
8
CUT
10
287.6804
20
176.4783
0
VERTEX
8
CUT
10
287.6821
20
176.4126
0
VERTEX
8
CUT
10
287.6683
20
176.3966
0
VERTEX
8
CUT
10
287.6436
20
176.3682
0
VERTEX
8
CUT
10
287.5969
20
176.3145
0
VERTEX
8
CUT
10
287.4829
20
176.1833
0
VERTEX
8
CUT
10
287.4162
20
176.1065
0
VERTEX
8
CUT
10
287.0375
20
175.6706
0
VERTEX
8
CUT
10
286.9893
20
175.6150
0
VERTEX
8
CUT
10
286.9703
20
175.5932
0
VERTEX
8
CUT
10
286.9615
20
175.5831
0
VERTEX
8
CUT
10
285.3688
20
174.8543
0
VERTEX
8
CUT
10
283.2390
20
173.9350
0
VERTEX
8
CUT
10
279.3600
20
172.6923
0
VERTEX
8
CUT
10
278.9662
20
172.5710
0
VERTEX
8
CUT
10
277.9442
20
172.2562
0
VERTEX
8
CUT
10
277.9393
20
172.2547
0
VERTEX
8
CUT
10
277.2452
20
172.0409
0
VERTEX
8
CUT
10
271.2993
20
170.5024
0
VERTEX
8
CUT
10
271.2095
20
170.4805
0
VERTEX
8
CUT
10
271.0820
20
170.4494
0
VERTEX
8
CUT
10
270.8778
20
170.3995
0
VERTEX
8
CUT
10
269.6974
20
170.1113
0
VERTEX
8
CUT
10
262.6673
20
168.6557
0
VERTEX
8
CUT
10
254.9455
20
167.3687
0
VERTEX
8
CUT
10
244.0042
20
165.9846
0
VERTEX
8
CUT
10
237.9268
20
165.5468
0
VERTEX
8
CUT
10
237.3864
20
165.3099
0
VERTEX
8
CUT
10
237.2439
20
164.9996
0
VERTEX
8
CUT
10
237.8901
20
162.8501
0
VERTEX
8
CUT
10
237.8392
20
161.5337
0
VERTEX
8
CUT
10
237.7405
20
161.0426
0
VERTEX
8
CUT
10
237.7110
20
160.8959
0
VERTEX
8
CUT
10
237.7053
20
160.8676
0
VERTEX
8
CUT
10
237.7034
20
160.8585
0
VERTEX
8
CUT
10
237.3624
20
159.9721
0
VERTEX
8
CUT
10
237.1887
20
159.6401
0
VERTEX
8
CUT
10
237.0574
20
159.3891
0
VERTEX
8
CUT
10
237.0563
20
159.3870
0
VERTEX
8
CUT
10
237.0107
20
159.2998
0
VERTEX
8
CUT
10
236.1693
20
158.1878
0
VERTEX
8
CUT
10
235.1852
20
157.6596
0
VERTEX
8
CUT
10
233.7989
20
157.3867
0
VERTEX
8
CUT
10
232.1136
20
157.3511
0
VERTEX
8
CUT
10
230.0087
20
157.5594
0
VERTEX
8
CUT
10
229.4498
20
157.6806
0
VERTEX
8
CUT
10
229.2800
20
157.6315
0
VERTEX
8
CUT
10
229.1319
20
157.6462
0
VERTEX
8
CUT
10
228.7196
20
157.4696
0
VERTEX
8
CUT
10
228.6345
20
157.4450
0
VERTEX
8
CUT
10
228.5820
20
157.4106
0
VERTEX
8
CUT
10
227.8150
20
157.0821
0
VERTEX
8
CUT
10
227.1498
20
156.2828
0
VERTEX
8
CUT
10
226.9140
20
155.7000
0
VERTEX
8
CUT
10
226.8956
20
155.6721
0
VERTEX
8
CUT
10
226.8955
20
155.6543
0
VERTEX
8
CUT
10
226.5404
20
154.7766
0
VERTEX
8
CUT
10
227.5155
20
152.3548
0
VERTEX
8
CUT
10
227.6492
20
151.3350
0
VERTEX
8
CUT
10
227.5532
20
149.3145
0
VERTEX
8
CUT
10
227.7095
20
148.9814
0
VERTEX
8
CUT
10
228.3933
20
148.9937
0
VERTEX
8
CUT
10
229.6828
20
150.0830
0
VERTEX
8
CUT
10
230.5182
20
150.4224
0
VERTEX
8
CUT
10
231.4049
20
150.3763
0
VERTEX
8
CUT
10
233.1233
20
149.6659
0
VERTEX
8
CUT
10
236.4302
20
150.3546
0
VERTEX
8
CUT
10
239.1283
20
150.4158
0
VERTEX
8
CUT
10
240.0307
20
150.0667
0
VERTEX
8
CUT
10
240.9479
20
149.2223
0
VERTEX
8
CUT
10
241.2272
20
148.2828
0
VERTEX
8
CUT
10
242.0346
20
147.2881
0
VERTEX
8
CUT
10
242.4671
20
145.9254
0
VERTEX
8
CUT
10
242.5053
20
144.0819
0
VERTEX
8
CUT
10
242.1421
20
142.1338
0
VERTEX
8
CUT
10
240.4658
20
138.2732
0
VERTEX
8
CUT
10
238.8067
20
135.6539
0
VERTEX
8
CUT
10
236.6025
20
133.0538
0
VERTEX
8
CUT
10
235.8846
20
132.7732
0
VERTEX
8
CUT
10
234.9120
20
133.1903
0
VERTEX
8
CUT
10
234.5275
20
133.0605
0
VERTEX
8
CUT
10
234.5146
20
131.0792
0
VERTEX
8
CUT
10
234.0652
20
130.2596
0
VERTEX
8
CUT
10
232.8098
20
128.9318
0
VERTEX
8
CUT
10
230.9914
20
127.5950
0
VERTEX
8
CUT
10
230.8280
20
127.4778
0
VERTEX
8
CUT
10
229.2460
20
126.7862
0
VERTEX
8
CUT
10
227.2447
20
126.6120
0
VERTEX
8
CUT
10
226.3052
20
126.9427
0
VERTEX
8
CUT
10
225.5436
20
127.5659
0
VERTEX
8
CUT
10
224.8442
20
128.4800
0
VERTEX
8
CUT
10
222.4501
20
134.1567
0
VERTEX
8
CUT
10
221.4860
20
135.6536
0
VERTEX
8
CUT
10
221.4414
20
135.7510
0
VERTEX
8
CUT
10
221.3183
20
135.9141
0
VERTEX
8
CUT
10
220.7960
20
136.7250
0
VERTEX
8
CUT
10
220.6701
20
136.8509
0
VERTEX
8
CUT
10
220.6324
20
136.9144
0
VERTEX
8
CUT
10
220.5631
20
136.9763
0
VERTEX
8
CUT
10
220.5151
20
137.0724
0
VERTEX
8
CUT
10
219.3234
20
138.1981
0
VERTEX
8
CUT
10
219.1964
20
138.3247
0
VERTEX
8
CUT
10
218.7615
20
138.7597
0
VERTEX
8
CUT
10
217.6744
20
139.5577
0
VERTEX
8
CUT
10
215.8382
20
140.4615
0
VERTEX
8
CUT
10
213.7411
20
141.0113
0
VERTEX
8
CUT
10
213.2453
20
141.0156
0
VERTEX
8
CUT
10
212.5431
20
141.1436
0
VERTEX
8
CUT
10
210.4346
20
141.1428
0
VERTEX
8
CUT
10
208.4327
20
140.8697
0
VERTEX
8
CUT
10
207.5960
20
140.7790
0
VERTEX
8
CUT
10
205.0281
20
139.9595
0
VERTEX
8
CUT
10
204.9298
20
139.8758
0
VERTEX
8
CUT
10
204.9046
20
139.8687
0
VERTEX
8
CUT
10
204.5092
20
139.6711
0
VERTEX
8
CUT
10
204.2092
20
139.2619
0
VERTEX
8
CUT
10
204.1581
20
139.2184
0
VERTEX
8
CUT
10
204.1636
20
139.1997
0
VERTEX
8
CUT
10
204.1468
20
139.1769
0
VERTEX
8
CUT
10
204.1784
20
139.1484
0
VERTEX
8
CUT
10
204.3126
20
138.6855
0
VERTEX
8
CUT
10
208.5051
20
139.4855
0
VERTEX
8
CUT
10
211.3188
20
139.3000
0
VERTEX
8
CUT
10
211.3509
20
139.2944
0
VERTEX
8
CUT
10
211.3876
20
139.2880
0
VERTEX
8
CUT
10
211.5095
20
139.2668
0
VERTEX
8
CUT
10
211.6597
20
139.2406
0
VERTEX
8
CUT
10
213.0863
20
138.7898
0
VERTEX
8
CUT
10
213.3172
20
138.6847
0
VERTEX
8
CUT
10
213.3793
20
138.6564
0
VERTEX
8
CUT
10
213.4095
20
138.6427
0
VERTEX
8
CUT
10
213.7099
20
138.5060
0
VERTEX
8
CUT
10
214.8201
20
137.8585
0
VERTEX
8
CUT
10
215.4680
20
137.3845
0
VERTEX
8
CUT
10
216.7706
20
136.1382
0
VERTEX
8
CUT
10
216.8190
20
136.0796
0
VERTEX
8
CUT
10
218.0993
20
134.2744
0
VERTEX
8
CUT
10
219.1033
20
132.1326
0
VERTEX
8
CUT
10
219.7427
20
129.7651
0
VERTEX
8
CUT
10
219.9282
20
128.1990
0
VERTEX
8
CUT
10
219.9591
20
126.4426
0
VERTEX
8
CUT
10
219.9627
20
126.2377
0
VERTEX
8
CUT
10
219.9685
20
125.9089
0
VERTEX
8
CUT
10
219.9728
20
125.6626
0
VERTEX
8
CUT
10
219.9715
20
125.6300
0
VERTEX
8
CUT
10
219.7428
20
123.7714
0
VERTEX
8
CUT
10
219.4446
20
122.2808
0
VERTEX
8
CUT
10
219.0380
20
121.2144
0
VERTEX
8
CUT
10
218.4111
20
120.4312
0
VERTEX
8
CUT
10
217.4512
20
119.8665
0
VERTEX
8
CUT
10
214.6129
20
119.0418
0
VERTEX
8
CUT
10
212.9576
20
118.9040
0
VERTEX
8
CUT
10
212.0257
20
119.3078
0
VERTEX
8
CUT
10
211.8520
20
119.8778
0
VERTEX
8
CUT
10
211.4508
20
126.3302
0
VERTEX
8
CUT
10
211.0159
20
128.4523
0
VERTEX
8
CUT
10
210.9644
20
128.7925
0
VERTEX
8
CUT
10
210.9210
20
128.9151
0
VERTEX
8
CUT
10
210.7395
20
129.8010
0
VERTEX
8
CUT
10
209.9116
20
131.7508
0
VERTEX
8
CUT
10
208.8010
20
133.2265
0
VERTEX
8
CUT
10
208.2749
20
133.5529
0
VERTEX
8
CUT
10
208.0133
20
133.5808
0
VERTEX
8
CUT
10
207.8657
20
133.6774
0
VERTEX
8
CUT
10
207.7053
20
133.6167
0
VERTEX
8
CUT
10
207.6991
20
133.6188
0
VERTEX
8
CUT
10
207.6940
20
133.6148
0
VERTEX
8
CUT
10
207.6644
20
133.6180
0
VERTEX
8
CUT
10
207.0310
20
133.4055
0
VERTEX
8
CUT
10
206.3419
20
132.8671
0
VERTEX
8
CUT
10
204.9975
20
130.9839
0
VERTEX
8
CUT
10
203.0415
20
126.9111
0
VERTEX
8
CUT
10
202.1407
20
125.6598
0
VERTEX
8
CUT
10
201.6831
20
125.6316
0
VERTEX
8
CUT
10
201.0419
20
126.3402
0
VERTEX
8
CUT
10
200.2581
20
127.9735
0
VERTEX
8
CUT
10
200.0514
20
129.0270
0
VERTEX
8
CUT
10
201.1100
20
133.2997
0
VERTEX
8
CUT
10
202.6961
20
135.9867
0
VERTEX
8
CUT
10
202.8734
20
136.5056
0
VERTEX
8
CUT
10
202.6983
20
136.8268
0
VERTEX
8
CUT
10
202.2084
20
136.7771
0
VERTEX
8
CUT
10
200.5958
20
134.8063
0
VERTEX
8
CUT
10
198.7435
20
130.8692
0
VERTEX
8
CUT
10
197.8970
20
128.2043
0
VERTEX
8
CUT
10
197.7167
20
126.6564
0
VERTEX
8
CUT
10
197.6030
20
126.5603
0
VERTEX
8
CUT
10
197.4701
20
122.6622
0
VERTEX
8
CUT
10
197.6355
20
121.5984
0
VERTEX
8
CUT
10
197.6355
20
121.2928
0
VERTEX
8
CUT
10
197.8842
20
119.2686
0
VERTEX
8
CUT
10
198.8034
20
117.1896
0
VERTEX
8
CUT
10
198.8921
20
117.0435
0
VERTEX
8
CUT
10
199.0375
20
116.6560
0
VERTEX
8
CUT
10
199.9538
20
115.2941
0
VERTEX
8
CUT
10
200.4513
20
114.4745
0
VERTEX
8
CUT
10
201.4509
20
113.2426
0
VERTEX
8
CUT
10
203.6964
20
111.1894
0
VERTEX
8
CUT
10
206.3669
20
109.5747
0
VERTEX
8
CUT
10
207.8251
20
108.9936
0
VERTEX
8
CUT
10
208.4039
20
108.8633
0
VERTEX
8
CUT
10
208.7143
20
108.7360
0
VERTEX
8
CUT
10
209.0466
20
108.7186
0
VERTEX
8
CUT
10
210.2526
20
108.4469
0
VERTEX
8
CUT
10
211.3667
20
108.4244
0
VERTEX
8
CUT
10
211.9880
20
108.2403
0
VERTEX
8
CUT
10
212.9105
20
108.3721
0
VERTEX
8
CUT
10
212.9358
20
108.3926
0
VERTEX
8
CUT
10
214.9187
20
108.3524
0
VERTEX
8
CUT
10
218.3865
20
108.8115
0
VERTEX
8
CUT
10
223.7734
20
109.9285
0
VERTEX
8
CUT
10
224.1388
20
109.9527
0
VERTEX
8
CUT
10
225.4147
20
110.0000
0
VERTEX
8
CUT
10
227.0023
20
109.5309
0
VERTEX
8
CUT
10
228.0766
20
108.6580
0
VERTEX
8
CUT
10
228.4540
20
108.0304
0
VERTEX
8
CUT
10
228.7658
20
106.7345
0
VERTEX
8
CUT
10
228.7002
20
105.9298
0
VERTEX
8
CUT
10
227.8173
20
103.6647
0
VERTEX
8
CUT
10
227.7354
20
103.0141
0
VERTEX
8
CUT
10
228.9326
20
101.3059
0
VERTEX
8
CUT
10
229.1718
20
100.5809
0
VERTEX
8
CUT
10
230.8552
20
98.7496
0
VERTEX
8
CUT
10
231.0424
20
98.2335
0
VERTEX
8
CUT
10
230.9105
20
97.9139
0
VERTEX
8
CUT
10
229.3838
20
96.8535
0
VERTEX
8
CUT
10
227.4178
20
96.2629
0
VERTEX
8
CUT
10
226.3842
20
95.6983
0
VERTEX
8
CUT
10
223.1414
20
93.1740
0
VERTEX
8
CUT
10
215.1294
20
87.7173
0
VERTEX
8
CUT
10
212.5715
20
86.7555
0
VERTEX
8
CUT
10
211.9965
20
86.8675
0
VERTEX
8
CUT
10
211.9837
20
87.3734
0
VERTEX
8
CUT
10
212.7402
20
89.3894
0
VERTEX
8
CUT
10
212.8695
20
91.2487
0
VERTEX
8
CUT
10
213.5075
20
94.7138
0
VERTEX
8
CUT
10
211.5794
20
97.6852
0
VERTEX
8
CUT
10
210.5915
20
99.7781
0
VERTEX
8
CUT
10
209.7155
20
99.9993
0
VERTEX
8
CUT
10
209.2638
20
99.7037
0
VERTEX
8
CUT
10
209.1667
20
99.2341
0
VERTEX
8
CUT
10
211.2622
20
93.6196
0
VERTEX
8
CUT
10
211.6030
20
91.7309
0
VERTEX
8
CUT
10
211.2679
20
89.0430
0
VERTEX
8
CUT
10
210.8009
20
87.1471
0
VERTEX
8
CUT
10
210.1360
20
85.4845
0
VERTEX
8
CUT
10
210.2278
20
85.1000
0
VERTEX
8
CUT
10
212.0512
20
84.9574
0
VERTEX
8
CUT
10
212.0999
20
84.9317
0
VERTEX
8
CUT
10
212.3834
20
84.6837
0
VERTEX
8
CUT
10
212.7309
20
84.5399
0
VERTEX
8
CUT
10
213.8275
20
83.6418
0
VERTEX
8
CUT
10
219.0285
20
78.6947
0
VERTEX
8
CUT
10
220.7080
20
77.6433
0
VERTEX
8
CUT
10
220.8897
20
77.5017
0
VERTEX
8
CUT
10
221.0356
20
77.4382
0
VERTEX
8
CUT
10
222.2759
20
76.6618
0
VERTEX
8
CUT
10
224.1619
20
76.0309
0
VERTEX
8
CUT
10
229.1622
20
76.6191
0
VERTEX
8
CUT
10
230.0540
20
76.0517
0
VERTEX
8
CUT
10
230.0991
20
76.0003
0
VERTEX
8
CUT
10
230.1736
20
75.8575
0
VERTEX
8
CUT
10
230.1845
20
75.8367
0
VERTEX
8
CUT
10
230.2146
20
75.7790
0
VERTEX
8
CUT
10
230.2792
20
75.6553
0
VERTEX
8
CUT
10
230.5970
20
74.4433
0
VERTEX
8
CUT
10
230.6021
20
74.4077
0
VERTEX
8
CUT
10
230.6032
20
74.3634
0
VERTEX
8
CUT
10
230.5328
20
72.9392
0
VERTEX
8
CUT
10
230.3919
20
72.5712
0
VERTEX
8
CUT
10
229.9959
20
71.6122
0
VERTEX
8
CUT
10
229.3019
20
70.8313
0
VERTEX
8
CUT
10
229.1627
20
70.6991
0
VERTEX
8
CUT
10
228.8341
20
70.5097
0
VERTEX
8
CUT
10
228.0752
20
70.5786
0
VERTEX
8
CUT
10
225.9592
20
71.2870
0
VERTEX
8
CUT
10
225.3331
20
71.0723
0
VERTEX
8
CUT
10
224.1624
20
70.1927
0
VERTEX
8
CUT
10
223.2770
20
70.0158
0
VERTEX
8
CUT
10
222.5699
20
70.4462
0
VERTEX
8
CUT
10
221.9227
20
71.9404
0
VERTEX
8
CUT
10
221.4178
20
72.2901
0
VERTEX
8
CUT
10
218.1099
20
72.9394
0
VERTEX
8
CUT
10
217.5756
20
72.8660
0
VERTEX
8
CUT
10
217.3883
20
72.5188
0
VERTEX
8
CUT
10
218.0960
20
70.6972
0
VERTEX
8
CUT
10
218.1702
20
70.5775
0
VERTEX
8
CUT
10
218.1947
20
70.5025
0
VERTEX
8
CUT
10
218.6908
20
69.7368
0
VERTEX
8
CUT
10
219.5482
20
68.3524
0
VERTEX
8
CUT
10
221.6108
20
65.6361
0
VERTEX
8
CUT
10
224.5674
20
62.3845
0
VERTEX
8
CUT
10
225.2155
20
61.8667
0
VERTEX
8
CUT
10
226.0934
20
61.5014
0
VERTEX
8
CUT
10
230.4306
20
60.6236
0
VERTEX
8
CUT
10
230.4352
20
60.6211
0
VERTEX
8
CUT
10
230.4475
20
60.6146
0
VERTEX
8
CUT
10
230.4827
20
60.5961
0
VERTEX
8
CUT
10
230.6171
20
60.5251
0
VERTEX
8
CUT
10
231.2895
20
59.9053
0
VERTEX
8
CUT
10
231.3212
20
59.8502
0
VERTEX
8
CUT
10
231.3392
20
59.8190
0
VERTEX
8
CUT
10
231.3922
20
59.7272
0
VERTEX
8
CUT
10
231.4540
20
59.6201
0
VERTEX
8
CUT
10
231.5904
20
59.2199
0
VERTEX
8
CUT
10
231.7271
20
58.6875
0
VERTEX
8
CUT
10
231.7635
20
58.5459
0
VERTEX
8
CUT
10
231.7791
20
58.4855
0
VERTEX
8
CUT
10
231.8461
20
58.2244
0
VERTEX
8
CUT
10
231.9067
20
56.8587
0
VERTEX
8
CUT
10
231.8667
20
56.2035
0
VERTEX
8
CUT
10
231.8167
20
56.0731
0
VERTEX
8
CUT
10
231.2714
20
54.7375
0
VERTEX
8
CUT
10
230.6913
20
54.0592
0
VERTEX
8
CUT
10
230.2518
20
53.6015
0
VERTEX
8
CUT
10
228.9667
20
52.7447
0
VERTEX
8
CUT
10
228.5360
20
52.5699
0
VERTEX
8
CUT
10
228.0976
20
52.4271
0
VERTEX
8
CUT
10
225.7865
20
52.3876
0
VERTEX
8
CUT
10
223.2064
20
52.7631
0
VERTEX
8
CUT
10
220.6968
20
53.6888
0
VERTEX
8
CUT
10
219.1975
20
54.5344
0
VERTEX
8
CUT
10
218.5739
20
54.9193
0
VERTEX
8
CUT
10
218.5402
20
54.9401
0
VERTEX
8
CUT
10
218.3985
20
55.0276
0
VERTEX
8
CUT
10
217.7511
20
55.4272
0
VERTEX
8
CUT
10
215.4581
20
57.2283
0
VERTEX
8
CUT
10
212.7469
20
59.8754
0
VERTEX
8
CUT
10
209.9231
20
63.1260
0
VERTEX
8
CUT
10
206.9361
20
67.0747
0
VERTEX
8
CUT
10
202.8428
20
73.0842
0
VERTEX
8
CUT
10
201.5366
20
75.7144
0
VERTEX
8
CUT
10
201.6097
20
76.3174
0
VERTEX
8
CUT
10
201.9155
20
76.7517
0
VERTEX
8
CUT
10
204.2332
20
77.9369
0
VERTEX
8
CUT
10
205.8348
20
78.1712
0
VERTEX
8
CUT
10
207.4912
20
77.9494
0
VERTEX
8
CUT
10
207.8242
20
78.3921
0
VERTEX
8
CUT
10
206.9432
20
80.5346
0
VERTEX
8
CUT
10
206.5154
20
81.1287
0
VERTEX
8
CUT
10
206.1963
20
81.2436
0
VERTEX
8
CUT
10
200.9248
20
77.8472
0
VERTEX
8
CUT
10
200.4775
20
77.6878
0
VERTEX
8
CUT
10
200.0988
20
77.9153
0
VERTEX
8
CUT
10
200.0164
20
78.8905
0
VERTEX
8
CUT
10
200.3505
20
80.6750
0
VERTEX
8
CUT
10
203.0877
20
89.8519
0
VERTEX
8
CUT
10
203.5399
20
93.6936
0
VERTEX
8
CUT
10
203.4754
20
95.4661
0
VERTEX
8
CUT
10
202.6035
20
98.8627
0
VERTEX
8
CUT
10
201.3361
20
101.6652
0
VERTEX
8
CUT
10
198.1261
20
106.3526
0
VERTEX
8
CUT
10
197.5938
20
106.8826
0
VERTEX
8
CUT
10
197.2281
20
107.6472
0
VERTEX
8
CUT
10
196.5033
20
108.0096
0
VERTEX
8
CUT
10
196.4044
20
106.9554
0
VERTEX
8
CUT
10
196.7035
20
105.5846
0
VERTEX
8
CUT
10
197.0424
20
100.0773
0
VERTEX
8
CUT
10
196.7119
20
95.6647
0
VERTEX
8
CUT
10
196.0020
20
93.1288
0
VERTEX
8
CUT
10
194.0295
20
88.7467
0
VERTEX
8
CUT
10
193.6089
20
84.8591
0
VERTEX
8
CUT
10
192.1895
20
80.1386
0
VERTEX
8
CUT
10
191.1570
20
78.1666
0
VERTEX
8
CUT
10
189.9569
20
76.6216
0
VERTEX
8
CUT
10
183.6318
20
70.7856
0
VERTEX
8
CUT
10
182.8286
20
69.7155
0
VERTEX
8
CUT
10
181.7832
20
67.2348
0
VERTEX
8
CUT
10
181.5228
20
65.7883
0
VERTEX
8
CUT
10
181.5515
20
63.5078
0
VERTEX
8
CUT
10
181.5446
20
63.5071
0
VERTEX
8
CUT
10
181.5539
20
63.3188
0
VERTEX
8
CUT
10
181.5611
20
62.7439
0
VERTEX
8
CUT
10
181.8556
20
61.2220
0
VERTEX
8
CUT
10
182.9711
20
57.9297
0
VERTEX
8
CUT
10
183.0474
20
57.6694
0
VERTEX
8
CUT
10
183.0775
20
57.4631
0
VERTEX
8
CUT
10
183.1663
20
56.7625
0
VERTEX
8
CUT
10
183.1717
20
56.7051
0
VERTEX
8
CUT
10
183.1676
20
56.6056
0
VERTEX
8
CUT
10
183.1625
20
56.4829
0
VERTEX
8
CUT
10
183.1594
20
56.4098
0
VERTEX
8
CUT
10
183.1436
20
56.0292
0
VERTEX
8
CUT
10
182.8582
20
54.5208
0
VERTEX
8
CUT
10
182.5800
20
54.0932
0
VERTEX
8
CUT
10
181.6163
20
53.1568
0
VERTEX
8
CUT
10
180.8735
20
52.8259
0
VERTEX
8
CUT
10
180.0927
20
52.6042
0
VERTEX
8
CUT
10
178.8166
20
52.4811
0
VERTEX
8
CUT
10
178.3836
20
52.4699
0
VERTEX
8
CUT
10
175.1489
20
53.0465
0
VERTEX
8
CUT
10
168.5720
20
54.9853
0
VERTEX
8
CUT
10
167.0736
20
55.2489
0
VERTEX
8
CUT
10
166.2237
20
55.2783
0
VERTEX
8
CUT
10
166.0477
20
55.3151
0
VERTEX
8
CUT
10
164.4114
20
55.4586
0
VERTEX
8
CUT
10
164.2853
20
55.4789
0
VERTEX
8
CUT
10
164.1788
20
55.4790
0
VERTEX
8
CUT
10
163.4027
20
55.5470
0
VERTEX
8
CUT
10
159.9063
20
55.4967
0
VERTEX
8
CUT
10
159.3933
20
55.5144
0
VERTEX
8
CUT
10
157.8682
20
55.7466
0
VERTEX
8
CUT
10
157.8263
20
55.9629
0
VERTEX
8
CUT
10
158.1524
20
56.4135
0
VERTEX
8
CUT
10
165.2706
20
62.4443
0
VERTEX
8
CUT
10
167.3478
20
64.3267
0
VERTEX
8
CUT
10
169.2459
20
66.4183
0
VERTEX
8
CUT
10
172.3900
20
71.0627
0
VERTEX
8
CUT
10
173.6168
20
73.5819
0
VERTEX
8
CUT
10
174.5518
20
76.0645
0
VERTEX
8
CUT
10
175.2386
20
78.6407
0
VERTEX
8
CUT
10
175.6048
20
81.2288
0
VERTEX
8
CUT
10
175.6689
20
85.9052
0
VERTEX
8
CUT
10
175.3400
20
93.5647
0
VERTEX
8
CUT
10
175.6083
20
96.8216
0
VERTEX
8
CUT
10
176.3331
20
99.9512
0
VERTEX
8
CUT
10
178.5168
20
105.8807
0
VERTEX
8
CUT
10
179.3973
20
109.1244
0
VERTEX
8
CUT
10
179.5207
20
110.3214
0
VERTEX
8
CUT
10
179.2724
20
111.7549
0
VERTEX
8
CUT
10
178.8370
20
112.1646
0
VERTEX
8
CUT
10
177.9957
20
112.2409
0
VERTEX
8
CUT
10
176.9141
20
111.3242
0
VERTEX
8
CUT
10
174.9752
20
108.0725
0
VERTEX
8
CUT
10
173.7112
20
106.3728
0
VERTEX
8
CUT
10
172.3555
20
105.1236
0
VERTEX
8
CUT
10
171.0912
20
104.4803
0
VERTEX
8
CUT
10
169.8616
20
104.4131
0
VERTEX
8
CUT
10
168.4894
20
104.9964
0
VERTEX
8
CUT
10
167.7923
20
105.7935
0
VERTEX
8
CUT
10
167.2086
20
107.5279
0
VERTEX
8
CUT
10
167.1387
20
109.0003
0
VERTEX
8
CUT
10
167.3734
20
110.8638
0
VERTEX
8
CUT
10
169.1459
20
118.4430
0
VERTEX
8
CUT
10
169.4415
20
121.2455
0
VERTEX
8
CUT
10
169.0449
20
124.5815
0
VERTEX
8
CUT
10
167.8816
20
127.1312
0
VERTEX
8
CUT
10
167.4707
20
127.4035
0
VERTEX
8
CUT
10
167.0726
20
127.0537
0
VERTEX
8
CUT
10
166.0254
20
123.5162
0
VERTEX
8
CUT
10
162.5691
20
115.3531
0
VERTEX
8
CUT
10
161.5228
20
112.2170
0
VERTEX
8
CUT
10
160.7024
20
107.2707
0
VERTEX
8
CUT
10
160.5852
20
105.5146
0
VERTEX
8
CUT
10
160.5717
20
105.3594
0
VERTEX
8
CUT
10
160.5736
20
105.3410
0
VERTEX
8
CUT
10
160.2551
20
100.5731
0
VERTEX
8
CUT
10
160.5801
20
100.1672
0
VERTEX
8
CUT
10
161.4533
20
100.4160
0
VERTEX
8
CUT
10
162.2283
20
99.5396
0
VERTEX
8
CUT
10
164.6368
20
94.6559
0
VERTEX
8
CUT
10
166.1926
20
90.5529
0
VERTEX
8
CUT
10
166.6659
20
88.2189
0
VERTEX
8
CUT
10
166.7975
20
85.9501
0
VERTEX
8
CUT
10
166.6638
20
83.6670
0
VERTEX
8
CUT
10
166.1868
20
81.4677
0
VERTEX
8
CUT
10
165.4277
20
79.4239
0
VERTEX
8
CUT
10
164.3107
20
77.3988
0
VERTEX
8
CUT
10
162.8794
20
75.4725
0
VERTEX
8
CUT
10
161.1144
20
73.5767
0
VERTEX
8
CUT
10
158.8985
20
71.6286
0
VERTEX
8
CUT
10
153.4646
20
67.4073
0
VERTEX
8
CUT
10
148.7771
20
62.1942
0
VERTEX
8
CUT
10
146.3280
20
60.1857
0
VERTEX
8
CUT
10
145.5500
20
59.8354
0
VERTEX
8
CUT
10
144.0882
20
59.5668
0
VERTEX
8
CUT
10
143.0945
20
59.6437
0
VERTEX
8
CUT
10
141.6226
20
60.2666
0
VERTEX
8
CUT
10
141.0939
20
60.8759
0
VERTEX
8
CUT
10
140.4918
20
62.4811
0
VERTEX
8
CUT
10
140.4189
20
64.9152
0
VERTEX
8
CUT
10
140.8587
20
67.2644
0
VERTEX
8
CUT
10
141.8293
20
69.5861
0
VERTEX
8
CUT
10
142.4170
20
70.5316
0
VERTEX
8
CUT
10
143.5940
20
72.3631
0
VERTEX
8
CUT
10
148.9292
20
79.0512
0
VERTEX
8
CUT
10
150.7392
20
82.2507
0
VERTEX
8
CUT
10
151.8814
20
85.5359
0
VERTEX
8
CUT
10
152.4426
20
89.2968
0
VERTEX
8
CUT
10
152.4733
20
90.8904
0
VERTEX
8
CUT
10
152.2591
20
92.9920
0
VERTEX
8
CUT
10
152.3552
20
93.0520
0
VERTEX
8
CUT
10
152.3552
20
94.6005
0
VERTEX
8
CUT
10
152.1575
20
95.5230
0
VERTEX
8
CUT
10
151.8610
20
96.1160
0
VERTEX
8
CUT
10
151.7711
20
96.1580
0
VERTEX
8
CUT
10
150.9239
20
98.8610
0
VERTEX
8
CUT
10
150.4431
20
99.6902
0
VERTEX
8
CUT
10
149.9749
20
99.9625
0
VERTEX
8
CUT
10
149.2825
20
99.3994
0
VERTEX
8
CUT
10
142.2817
20
89.2101
0
VERTEX
8
CUT
10
135.5946
20
80.1183
0
VERTEX
8
CUT
10
131.6296
20
74.0201
0
VERTEX
8
CUT
10
131.5661
20
73.9761
0
VERTEX
8
CUT
10
131.5157
20
73.8450
0
VERTEX
8
CUT
10
131.3293
20
73.5582
0
VERTEX
8
CUT
10
130.3499
20
71.5020
0
VERTEX
8
CUT
10
126.9266
20
57.5841
0
VERTEX
8
CUT
10
125.3666
20
53.5308
0
VERTEX
8
CUT
10
124.0234
20
51.3135
0
VERTEX
8
CUT
10
121.9398
20
48.7995
0
VERTEX
8
CUT
10
121.0356
20
48.0037
0
VERTEX
8
CUT
10
120.8835
20
47.8830
0
VERTEX
8
CUT
10
120.8229
20
47.8350
0
VERTEX
8
CUT
10
120.7797
20
47.8007
0
VERTEX
8
CUT
10
120.7355
20
47.7657
0
VERTEX
8
CUT
10
120.6637
20
47.7087
0
VERTEX
8
CUT
10
119.3002
20
46.9338
0
VERTEX
8
CUT
10
118.9541
20
46.7728
0
VERTEX
8
CUT
10
118.7652
20
46.6850
0
VERTEX
8
CUT
10
118.7461
20
46.6762
0
VERTEX
8
CUT
10
117.9501
20
46.3060
0
VERTEX
8
CUT
10
115.7678
20
45.7958
0
VERTEX
8
CUT
10
113.7120
20
45.9287
0
VERTEX
8
CUT
10
111.9366
20
46.6328
0
VERTEX
8
CUT
10
111.7885
20
46.7527
0
VERTEX
8
CUT
10
110.5451
20
48.1165
0
VERTEX
8
CUT
10
109.8152
20
49.5124
0
VERTEX
8
CUT
10
109.5534
20
50.7169
0
VERTEX
8
CUT
10
109.5524
20
50.7325
0
VERTEX
8
CUT
10
109.5414
20
51.1028
0
VERTEX
8
CUT
10
109.8081
20
53.0495
0
VERTEX
8
CUT
10
110.1515
20
54.2866
0
VERTEX
8
CUT
10
111.1806
20
57.5270
0
VERTEX
8
CUT
10
111.1332
20
57.9439
0
VERTEX
8
CUT
10
110.8357
20
58.2196
0
VERTEX
8
CUT
10
109.4730
20
58.5106
0
VERTEX
8
CUT
10
109.3290
20
58.4863
0
VERTEX
8
CUT
10
109.2078
20
58.5006
0
VERTEX
8
CUT
10
109.0942
20
58.4466
0
VERTEX
8
CUT
10
108.5857
20
58.3606
0
VERTEX
8
CUT
10
107.7894
20
57.8137
0
VERTEX
8
CUT
10
107.7746
20
57.8061
0
VERTEX
8
CUT
10
107.7342
20
57.7758
0
VERTEX
8
CUT
10
105.3392
20
56.1308
0
VERTEX
8
CUT
10
103.1026
20
55.0226
0
VERTEX
8
CUT
10
101.2704
20
54.8620
0
VERTEX
8
CUT
10
100.4922
20
55.1469
0
VERTEX
8
CUT
10
99.8441
20
55.6869
0
VERTEX
8
CUT
10
99.1092
20
56.9534
0
VERTEX
8
CUT
10
98.9041
20
58.6925
0
VERTEX
8
CUT
10
99.1786
20
60.3705
0
VERTEX
8
CUT
10
100.5571
20
65.3948
0
VERTEX
8
CUT
10
100.6116
20
66.0908
0
VERTEX
8
CUT
10
100.8135
20
67.6851
0
VERTEX
8
CUT
10
100.7650
20
68.0504
0
VERTEX
8
CUT
10
100.7839
20
68.2918
0
VERTEX
8
CUT
10
100.6870
20
68.6391
0
VERTEX
8
CUT
10
100.6340
20
69.0386
0
VERTEX
8
CUT
10
100.4730
20
69.4055
0
VERTEX
8
CUT
10
100.4396
20
69.5253
0
VERTEX
8
CUT
10
100.3982
20
69.5760
0
VERTEX
8
CUT
10
100.3747
20
69.6295
0
VERTEX
8
CUT
10
100.3028
20
69.6930
0
VERTEX
8
CUT
10
100.0325
20
70.0242
0
VERTEX
8
CUT
10
99.5702
20
70.3388
0
VERTEX
8
CUT
10
99.3881
20
70.4992
0
VERTEX
8
CUT
10
98.6503
20
70.7353
0
VERTEX
8
CUT
10
98.5226
20
70.7177
0
VERTEX
8
CUT
10
98.3366
20
70.7665
0
VERTEX
8
CUT
10
96.7715
20
70.5568
0
VERTEX
8
CUT
10
95.5700
20
69.8998
0
VERTEX
8
CUT
10
94.1786
20
68.4938
0
VERTEX
8
CUT
10
93.9783
20
68.3112
0
VERTEX
8
CUT
10
93.8687
20
68.1807
0
VERTEX
8
CUT
10
92.9111
20
67.2130
0
VERTEX
8
CUT
10
89.7029
20
62.8911
0
VERTEX
8
CUT
10
81.9176
20
51.1482
0
VERTEX
8
CUT
10
79.4798
20
47.9857
0
VERTEX
8
CUT
10
77.1342
20
45.3420
0
VERTEX
8
CUT
10
75.1294
20
43.3707
0
VERTEX
8
CUT
10
71.3729
20
40.3719
0
VERTEX
8
CUT
10
69.5799
20
39.3072
0
VERTEX
8
CUT
10
67.8289
20
38.5519
0
VERTEX
8
CUT
10
66.2037
20
38.1219
0
VERTEX
8
CUT
10
64.6799
20
37.9883
0
VERTEX
8
CUT
10
62.5798
20
38.3057
0
VERTEX
8
CUT
10
61.1851
20
39.0368
0
VERTEX
8
CUT
10
60.3083
20
39.7733
0
VERTEX
8
CUT
10
59.3344
20
40.9527
0
VERTEX
8
CUT
10
58.8744
20
42.3067
0
VERTEX
8
CUT
10
58.8742
20
44.7236
0
VERTEX
8
CUT
10
59.3259
20
46.7268
0
VERTEX
8
CUT
10
60.9100
20
49.5207
0
VERTEX
8
CUT
10
61.5259
20
50.3360
0
VERTEX
8
CUT
10
61.5491
20
50.3666
0
VERTEX
8
CUT
10
61.6417
20
50.4892
0
VERTEX
8
CUT
10
62.3624
20
51.4432
0
VERTEX
8
CUT
10
64.3638
20
53.9222
0
VERTEX
8
CUT
10
64.9805
20
54.8290
0
VERTEX
8
CUT
10
65.2600
20
55.1711
0
VERTEX
8
CUT
10
65.4035
20
55.4510
0
VERTEX
8
CUT
10
65.5254
20
55.6302
0
VERTEX
8
CUT
10
65.9998
20
56.2581
0
VERTEX
8
CUT
10
66.0383
20
56.3844
0
VERTEX
8
CUT
10
66.1346
20
56.5259
0
VERTEX
8
CUT
10
66.4735
20
57.7194
0
VERTEX
8
CUT
10
65.8351
20
58.5245
0
VERTEX
8
CUT
10
64.4731
20
59.2281
0
VERTEX
8
CUT
10
63.2057
20
59.0747
0
VERTEX
8
CUT
10
60.7958
20
58.3569
0
VERTEX
8
CUT
10
55.5390
20
56.0789
0
VERTEX
8
CUT
10
53.0606
20
55.3614
0
VERTEX
8
CUT
10
50.7218
20
55.0233
0
VERTEX
8
CUT
10
48.6377
20
55.1225
0
VERTEX
8
CUT
10
46.9757
20
55.6187
0
VERTEX
8
CUT
10
45.6104
20
56.5815
0
VERTEX
8
CUT
10
45.3629
20
56.9597
0
VERTEX
8
CUT
10
44.7785
20
57.9834
0
VERTEX
8
CUT
10
44.5103
20
59.7910
0
VERTEX
8
CUT
10
44.6649
20
60.8245
0
VERTEX
8
CUT
10
45.0801
20
61.9833
0
VERTEX
8
CUT
10
45.9194
20
63.3044
0
VERTEX
8
CUT
10
46.4960
20
63.6732
0
VERTEX
8
CUT
10
47.0031
20
63.7260
0
VERTEX
8
CUT
10
47.3160
20
63.7407
0
VERTEX
8
CUT
10
53.0670
20
63.4788
0
VERTEX
8
CUT
10
56.2525
20
63.8057
0
VERTEX
8
CUT
10
62.8714
20
65.4728
0
VERTEX
8
CUT
10
63.1620
20
65.5416
0
VERTEX
8
CUT
10
63.2000
20
65.5555
0
VERTEX
8
CUT
10
64.8274
20
65.9654
0
VERTEX
8
CUT
10
67.5811
20
67.0776
0
VERTEX
8
CUT
10
70.1601
20
68.3819
0
VERTEX
8
CUT
10
72.5835
20
69.9835
0
VERTEX
8
CUT
10
74.8758
20
71.8476
0
VERTEX
8
CUT
10
77.1040
20
74.0406
0
VERTEX
8
CUT
10
79.2881
20
76.6206
0
VERTEX
8
CUT
10
83.6211
20
82.4079
0
VERTEX
8
CUT
10
83.6642
20
82.7695
0
VERTEX
8
CUT
10
83.3524
20
83.0156
0
VERTEX
8
CUT
10
83.0107
20
82.8897
0
VERTEX
8
CUT
10
78.8591
20
77.6112
0
VERTEX
8
CUT
10
76.9765
20
75.6927
0
VERTEX
8
CUT
10
72.7259
20
72.1999
0
VERTEX
8
CUT
10
70.3470
20
70.6915
0
VERTEX
8
CUT
10
67.9544
20
69.3976
0
VERTEX
8
CUT
10
63.1319
20
67.6070
0
VERTEX
8
CUT
10
59.2959
20
67.2104
0
VERTEX
8
CUT
10
57.6859
20
67.3418
0
VERTEX
8
CUT
10
57.0691
20
67.5602
0
VERTEX
8
CUT
10
56.9023
20
67.8896
0
VERTEX
8
CUT
10
57.2029
20
68.2392
0
VERTEX
8
CUT
10
61.2199
20
70.6816
0
VERTEX
8
CUT
10
61.2329
20
70.6884
0
VERTEX
8
CUT
10
61.2543
20
70.7025
0
VERTEX
8
CUT
10
62.5972
20
71.5190
0
VERTEX
8
CUT
10
64.0400
20
72.5702
0
VERTEX
8
CUT
10
64.6818
20
73.1615
0
VERTEX
8
CUT
10
65.0552
20
73.4603
0
VERTEX
8
CUT
10
65.6482
20
74.0519
0
VERTEX
8
CUT
10
66.4873
20
74.8250
0
VERTEX
8
CUT
10
68.3186
20
77.1700
0
VERTEX
8
CUT
10
69.3315
20
79.0911
0
VERTEX
8
CUT
10
69.8069
20
80.7307
0
VERTEX
8
CUT
10
69.7300
20
81.0857
0
VERTEX
8
CUT
10
69.7039
20
81.2879
0
VERTEX
8
CUT
10
69.6797
20
81.3175
0
VERTEX
8
CUT
10
69.6783
20
81.3243
0
VERTEX
8
CUT
10
69.6886
20
81.4358
0
VERTEX
8
CUT
10
69.6354
20
81.5221
0
VERTEX
8
CUT
10
69.5724
20
81.8128
0
VERTEX
8
CUT
10
69.3622
20
81.9652
0
VERTEX
8
CUT
10
69.2915
20
82.0799
0
VERTEX
8
CUT
10
68.7219
20
82.4297
0
VERTEX
8
CUT
10
68.5657
20
82.5430
0
VERTEX
8
CUT
10
68.3382
20
82.5184
0
VERTEX
8
CUT
10
68.2477
20
82.5554
0
VERTEX
8
CUT
10
68.1385
20
82.5089
0
VERTEX
8
CUT
10
68.0007
20
82.5038
0
VERTEX
8
CUT
10
67.9478
20
82.4761
0
VERTEX
8
CUT
10
67.4861
20
82.4260
0
VERTEX
8
CUT
10
66.1408
20
81.7007
0
VERTEX
8
CUT
10
62.9457
20
79.2319
0
VERTEX
8
CUT
10
62.9141
20
79.2080
0
VERTEX
8
CUT
10
62.8837
20
79.1850
0
VERTEX
8
CUT
10
62.8678
20
79.1730
0
VERTEX
8
CUT
10
62.8385
20
79.1509
0
VERTEX
8
CUT
10
61.3375
20
78.2791
0
VERTEX
8
CUT
10
59.8004
20
77.6953
0
VERTEX
8
CUT
10
58.4429
20
77.4293
0
VERTEX
8
CUT
10
57.0839
20
77.4580
0
VERTEX
8
CUT
10
55.9063
20
77.8027
0
VERTEX
8
CUT
10
54.9255
20
78.4983
0
VERTEX
8
CUT
10
54.3576
20
79.2753
0
VERTEX
8
CUT
10
54.2918
20
79.4492
0
VERTEX
8
CUT
10
54.2901
20
79.4539
0
VERTEX
8
CUT
10
54.2699
20
79.5072
0
VERTEX
8
CUT
10
53.8870
20
80.5200
0
VERTEX
8
CUT
10
53.7893
20
81.2996
0
VERTEX
8
CUT
10
53.7998
20
81.5779
0
VERTEX
8
CUT
10
53.8003
20
81.5915
0
VERTEX
8
CUT
10
53.8013
20
81.6186
0
VERTEX
8
CUT
10
53.8020
20
81.6375
0
VERTEX
8
CUT
10
54.2275
20
83.8409
0
VERTEX
8
CUT
10
54.2284
20
83.8435
0
VERTEX
8
CUT
10
54.2336
20
83.8579
0
VERTEX
8
CUT
10
54.2398
20
83.8752
0
VERTEX
8
CUT
10
54.2523
20
83.9101
0
VERTEX
8
CUT
10
56.3343
20
88.1392
0
VERTEX
8
CUT
10
57.3503
20
90.0237
0
VERTEX
8
CUT
10
57.5620
20
90.6329
0
VERTEX
8
CUT
10
57.7643
20
91.0438
0
VERTEX
8
CUT
10
58.0426
20
92.0156
0
VERTEX
8
CUT
10
58.0936
20
92.1624
0
VERTEX
8
CUT
10
58.1109
20
92.2541
0
VERTEX
8
CUT
10
58.7129
20
94.3566
0
VERTEX
8
CUT
10
58.9053
20
97.0361
0
VERTEX
8
CUT
10
58.6451
20
99.7699
0
VERTEX
8
CUT
10
57.9613
20
102.4726
0
VERTEX
8
CUT
10
57.5486
20
103.4325
0
VERTEX
8
CUT
10
57.2981
20
104.1268
0
VERTEX
8
CUT
10
57.1177
20
104.4350
0
VERTEX
8
CUT
10
56.8654
20
105.0218
0
VERTEX
8
CUT
10
55.3870
20
107.4583
0
VERTEX
8
CUT
10
53.5828
20
109.6186
0
VERTEX
8
CUT
10
51.4209
20
111.5144
0
VERTEX
8
CUT
10
48.5047
20
113.2933
0
VERTEX
8
CUT
10
44.5610
20
114.7272
0
VERTEX
8
CUT
10
39.6194
20
116.1768
0
VERTEX
8
CUT
10
36.9095
20
117.2811
0
VERTEX
8
CUT
10
33.7952
20
119.2024
0
VERTEX
8
CUT
10
31.6610
20
121.4372
0
VERTEX
8
CUT
10
30.4283
20
123.6691
0
VERTEX
8
CUT
10
29.9819
20
126.0721
0
VERTEX
8
CUT
10
30.0833
20
127.4526
0
VERTEX
8
CUT
10
30.4022
20
128.5428
0
VERTEX
8
CUT
10
30.9371
20
129.2511
0
VERTEX
8
CUT
10
31.0998
20
129.4665
0
VERTEX
8
CUT
10
31.1829
20
129.5765
0
VERTEX
8
CUT
10
31.2415
20
129.6541
0
VERTEX
8
CUT
10
32.2534
20
130.3670
0
VERTEX
8
CUT
10
32.3883
20
130.4422
0
VERTEX
8
CUT
10
32.4368
20
130.4692
0
VERTEX
8
CUT
10
32.4536
20
130.4786
0
VERTEX
8
CUT
10
32.4645
20
130.4846
0
VERTEX
8
CUT
10
33.1177
20
130.7162
0
VERTEX
8
CUT
10
34.1290
20
130.8855
0
VERTEX
8
CUT
10
35.6008
20
130.8500
0
VERTEX
8
CUT
10
39.0344
20
130.3149
0
VERTEX
8
CUT
10
39.4271
20
130.2277
0
VERTEX
8
CUT
10
40.4197
20
130.3525
0
VERTEX
8
CUT
10
40.4860
20
130.4233
0
VERTEX
8
CUT
10
41.2700
20
131.0053
0
VERTEX
8
CUT
10
41.6694
20
131.8168
0
VERTEX
8
CUT
10
41.6994
20
132.8755
0
VERTEX
8
CUT
10
41.3282
20
134.0526
0
VERTEX
8
CUT
10
40.5890
20
135.4039
0
VERTEX
8
CUT
10
39.4715
20
136.8478
0
VERTEX
8
CUT
10
38.0048
20
138.3437
0
VERTEX
8
CUT
10
35.2698
20
140.4913
0
VERTEX
8
CUT
10
30.8963
20
143.0368
0
VERTEX
8
CUT
10
20.4844
20
147.7161
0
VERTEX
8
CUT
10
17.8840
20
149.0895
0
VERTEX
8
CUT
10
16.6177
20
149.7785
0
VERTEX
8
CUT
10
16.5454
20
149.8178
0
VERTEX
8
CUT
10
16.2418
20
149.9830
0
VERTEX
8
CUT
10
16.1497
20
150.0332
0
VERTEX
8
CUT
10
10.7056
20
153.7192
0
VERTEX
8
CUT
10
8.0829
20
156.0141
0
VERTEX
8
CUT
10
6.2974
20
157.8524
0
VERTEX
8
CUT
10
5.5923
20
158.6191
0
VERTEX
8
CUT
10
3.8705
20
160.8847
0
VERTEX
8
CUT
10
2.3169
20
163.4878
0
VERTEX
8
CUT
10
1.2297
20
166.0599
0
VERTEX
8
CUT
10
0.5596
20
168.6861
0
VERTEX
8
CUT
10
0.3617
20
172.4193
0
VERTEX
8
CUT
10
0.8607
20
175.3312
0
VERTEX
8
CUT
10
1.9551
20
177.6979
0
VERTEX
8
CUT
10
2.0123
20
177.7681
0
VERTEX
8
CUT
10
3.8103
20
179.6072
0
VERTEX
8
CUT
10
5.3446
20
180.4346
0
VERTEX
8
CUT
10
6.9730
20
180.7983
0
VERTEX
8
CUT
10
8.7303
20
180.7986
0
VERTEX
8
CUT
10
10.5490
20
180.4283
0
VERTEX
8
CUT
10
12.3391
20
179.7005
0
VERTEX
8
CUT
10
14.2028
20
178.5524
0
VERTEX
8
CUT
10
14.6182
20
178.1995
0
VERTEX
8
CUT
10
17.0203
20
175.9398
0
VERTEX
8
CUT
10
17.6207
20
175.3033
0
VERTEX
8
CUT
10
23.7000
20
168.0559
0
VERTEX
8
CUT
10
24.4576
20
167.1470
0
VERTEX
8
CUT
10
24.5042
20
167.0971
0
VERTEX
8
CUT
10
25.3309
20
166.1117
0
VERTEX
8
CUT
10
28.7994
20
162.4786
0
VERTEX
8
CUT
10
29.1085
20
162.2029
0
VERTEX
8
CUT
10
29.1419
20
162.1677
0
VERTEX
8
CUT
10
29.2613
20
162.0666
0
VERTEX
8
CUT
10
32.1180
20
159.5180
0
VERTEX
8
CUT
10
35.4546
20
157.1272
0
VERTEX
8
CUT
10
38.9582
20
155.2246
0
VERTEX
8
CUT
10
40.4665
20
154.6162
0
VERTEX
8
CUT
10
42.7428
20
153.6073
0
VERTEX
8
CUT
10
45.7409
20
152.7178
0
VERTEX
8
CUT
10
45.8837
20
152.8516
0
VERTEX
8
CUT
10
46.8284
20
152.5967
0
VERTEX
8
CUT
10
47.2746
20
152.5172
0
VERTEX
8
CUT
10
48.0135
20
152.3323
0
VERTEX
8
CUT
10
50.3060
20
151.9775
0
VERTEX
8
CUT
10
56.0854
20
150.9484
0
VERTEX
8
CUT
10
58.3264
20
150.2776
0
VERTEX
8
CUT
10
58.6667
20
149.8039
0
VERTEX
8
CUT
10
58.4182
20
149.2856
0
VERTEX
8
CUT
10
54.4445
20
146.7913
0
VERTEX
8
CUT
10
52.9235
20
145.0544
0
VERTEX
8
CUT
10
52.3827
20
144.0084
0
VERTEX
8
CUT
10
51.8852
20
141.9243
0
VERTEX
8
CUT
10
51.9263
20
141.2134
0
VERTEX
8
CUT
10
51.8922
20
141.1565
0
VERTEX
8
CUT
10
51.9426
20
140.9319
0
VERTEX
8
CUT
10
52.0064
20
139.8302
0
VERTEX
8
CUT
10
52.5251
20
138.0403
0
VERTEX
8
CUT
10
53.5055
20
136.2789
0
VERTEX
8
CUT
10
54.1362
20
135.5356
0
VERTEX
8
CUT
10
54.4865
20
135.0185
0
VERTEX
8
CUT
10
55.4014
20
134.0446
0
VERTEX
8
CUT
10
55.8462
20
133.5205
0
VERTEX
8
CUT
10
56.0255
20
133.3803
0
VERTEX
8
CUT
10
56.1127
20
133.2874
0
VERTEX
8
CUT
10
58.0327
20
131.7211
0
VERTEX
8
CUT
10
58.5759
20
131.3865
0
VERTEX
8
CUT
10
59.4155
20
130.7301
0
VERTEX
8
CUT
10
62.3777
20
129.1501
0
VERTEX
8
CUT
10
67.1259
20
127.4877
0
VERTEX
8
CUT
10
70.3007
20
126.3016
0
VERTEX
8
CUT
10
72.6859
20
125.2404
0
VERTEX
8
CUT
10
75.6996
20
123.3193
0
VERTEX
8
CUT
10
76.4106
20
122.6840
0
VERTEX
8
CUT
10
76.9280
20
122.0447
0
VERTEX
8
CUT
10
77.3150
20
120.9682
0
VERTEX
8
CUT
10
82.3331
20
120.7050
0
VERTEX
8
CUT
10
85.2911
20
120.3244
0
VERTEX
8
CUT
10
86.4398
20
119.9885
0
VERTEX
8
CUT
10
87.4338
20
119.6182
0
VERTEX
8
CUT
10
89.4874
20
118.3111
0
VERTEX
8
CUT
10
91.1169
20
116.7982
0
VERTEX
8
CUT
10
91.6832
20
116.2319
0
VERTEX
8
CUT
10
92.3653
20
115.2162
0
VERTEX
8
CUT
10
92.8233
20
114.1993
0
VERTEX
8
CUT
10
92.9977
20
113.2142
0
VERTEX
8
CUT
10
92.5295
20
111.0511
0
VERTEX
8
CUT
10
91.7556
20
109.6586
0
VERTEX
8
CUT
10
90.6719
20
108.4300
0
VERTEX
8
CUT
10
88.7785
20
106.9467
0
VERTEX
8
CUT
10
89.0077
20
104.8026
0
VERTEX
8
CUT
10
89.2848
20
104.5187
0
VERTEX
8
CUT
10
89.6671
20
104.6249
0
VERTEX
8
CUT
10
91.7102
20
106.8952
0
VERTEX
8
CUT
10
95.2466
20
109.2257
0
VERTEX
8
CUT
10
97.9780
20
110.3690
0
VERTEX
8
CUT
10
98.0180
20
110.3840
0
VERTEX
8
CUT
10
98.0353
20
110.3905
0
VERTEX
8
CUT
10
98.0727
20
110.4046
0
VERTEX
8
CUT
10
98.1403
20
110.4301
0
VERTEX
8
CUT
10
99.7867
20
110.9375
0
VERTEX
8
CUT
10
100.6922
20
111.1131
0
VERTEX
8
CUT
10
104.0867
20
111.3823
0
VERTEX
8
CUT
10
106.8000
20
111.2236
0
VERTEX
8
CUT
10
106.9082
20
111.2020
0
VERTEX
8
CUT
10
107.1772
20
111.1486
0
VERTEX
8
CUT
10
107.2792
20
111.1283
0
VERTEX
8
CUT
10
107.4017
20
111.1039
0
VERTEX
8
CUT
10
110.3696
20
110.2965
0
VERTEX
8
CUT
10
111.6729
20
109.7672
0
VERTEX
8
CUT
10
114.0298
20
108.6468
0
VERTEX
8
CUT
10
120.9520
20
105.1996
0
VERTEX
8
CUT
10
124.7590
20
103.7023
0
VERTEX
8
CUT
10
126.5510
20
103.2372
0
VERTEX
8
CUT
10
128.1101
20
103.0214
0
VERTEX
8
CUT
10
128.3495
20
102.9774
0
VERTEX
8
CUT
10
128.5043
20
102.9669
0
VERTEX
8
CUT
10
130.0747
20
102.7496
0
VERTEX
8
CUT
10
131.5287
20
102.7611
0
VERTEX
8
CUT
10
131.6789
20
102.7508
0
VERTEX
8
CUT
10
131.8472
20
102.7636
0
VERTEX
8
CUT
10
134.1640
20
102.7818
0
VERTEX
8
CUT
10
135.5606
20
103.0445
0
VERTEX
8
CUT
10
135.9586
20
103.0746
0
VERTEX
8
CUT
10
137.1527
20
103.3439
0
VERTEX
8
CUT
10
138.3058
20
103.5608
0
VERTEX
8
CUT
10
140.2668
20
104.2581
0
VERTEX
8
CUT
10
141.0055
20
104.6469
0
VERTEX
8
CUT
10
141.0162
20
104.6508
0
VERTEX
8
CUT
10
141.0468
20
104.6682
0
VERTEX
8
CUT
10
141.8297
20
104.9600
0
VERTEX
8
CUT
10
143.6249
20
105.9894
0
VERTEX
8
CUT
10
143.7747
20
106.1043
0
VERTEX
8
CUT
10
143.9529
20
106.1981
0
VERTEX
8
CUT
10
145.7125
20
107.4919
0
VERTEX
8
CUT
10
146.3160
20
108.0539
0
VERTEX
8
CUT
10
146.9678
20
108.5539
0
VERTEX
8
CUT
10
148.0870
20
109.7028
0
VERTEX
8
CUT
10
148.5388
20
110.1234
0
VERTEX
8
CUT
10
148.7316
20
110.3547
0
VERTEX
8
CUT
10
148.8302
20
110.4478
0
VERTEX
8
CUT
10
148.9026
20
110.5400
0
VERTEX
8
CUT
10
149.4344
20
111.0859
0
VERTEX
8
CUT
10
150.1556
20
112.0624
0
VERTEX
8
CUT
10
150.6624
20
112.6701
0
VERTEX
8
CUT
10
150.9251
20
113.1040
0
VERTEX
8
CUT
10
151.1149
20
113.3609
0
VERTEX
8
CUT
10
151.3188
20
113.6209
0
VERTEX
8
CUT
10
151.3703
20
113.7067
0
VERTEX
8
CUT
10
151.5444
20
113.9425
0
VERTEX
8
CUT
10
152.6617
20
115.8466
0
VERTEX
8
CUT
10
153.0304
20
116.5821
0
VERTEX
8
CUT
10
153.6897
20
117.6713
0
VERTEX
8
CUT
10
156.6613
20
123.8245
0
VERTEX
8
CUT
10
157.6289
20
125.7546
0
VERTEX
8
CUT
10
157.6547
20
125.8061
0
VERTEX
8
CUT
10
157.7019
20
125.9001
0
VERTEX
8
CUT
10
158.9553
20
128.4003
0
VERTEX
8
CUT
10
159.2195
20
128.8731
0
VERTEX
8
CUT
10
159.3174
20
129.0415
0
VERTEX
8
CUT
10
160.9463
20
131.1618
0
VERTEX
8
CUT
10
161.6838
20
131.6852
0
VERTEX
8
CUT
10
161.6982
20
131.6917
0
VERTEX
8
CUT
10
161.7202
20
131.7017
0
VERTEX
8
CUT
10
161.7953
20
131.7357
0
VERTEX
8
CUT
10
162.0684
20
131.8593
0
VERTEX
8
CUT
10
162.6128
20
132.0649
0
VERTEX
8
CUT
10
164.0243
20
132.1012
0
VERTEX
8
CUT
10
164.1924
20
132.0383
0
VERTEX
8
CUT
10
165.0878
20
131.6730
0
VERTEX
8
CUT
10
165.3209
20
131.5078
0
VERTEX
8
CUT
10
166.3030
20
130.4506
0
VERTEX
8
CUT
10
166.8383
20
129.6939
0
VERTEX
8
CUT
10
167.3577
20
129.7565
0
VERTEX
8
CUT
10
168.9327
20
135.2417
0
VERTEX
8
CUT
10
169.5724
20
136.7177
0
VERTEX
8
CUT
10
171.3842
20
139.8184
0
VERTEX
8
CUT
10
171.9754
20
141.9287
0
VERTEX
8
CUT
10
171.5828
20
142.8927
0
VERTEX
8
CUT
10
170.5711
20
142.7963
0
VERTEX
8
CUT
10
161.9277
20
138.8743
0
VERTEX
8
CUT
10
159.2076
20
141.7408
0
VERTEX
8
CUT
10
159.2023
20
141.7489
0
VERTEX
8
CUT
10
159.1950
20
141.7541
0
VERTEX
8
CUT
10
159.1072
20
141.8467
0
VERTEX
8
CUT
10
157.3303
20
143.2955
0
VERTEX
8
CUT
10
154.1283
20
145.1883
0
VERTEX
8
CUT
10
150.9749
20
146.4167
0
VERTEX
8
CUT
10
150.7073
20
146.0444
0
VERTEX
8
CUT
10
150.9785
20
145.0965
0
VERTEX
8
CUT
10
150.4297
20
144.5132
0
VERTEX
8
CUT
10
150.4043
20
144.1463
0
VERTEX
8
CUT
10
150.6218
20
143.9416
0
VERTEX
8
CUT
10
151.9644
20
143.6098
0
VERTEX
8
CUT
10
152.5214
20
143.1589
0
VERTEX
8
CUT
10
153.6325
20
141.0777
0
VERTEX
8
CUT
10
154.4792
20
138.8951
0
VERTEX
8
CUT
10
154.5020
20
138.8211
0
VERTEX
8
CUT
10
154.5104
20
138.7937
0
VERTEX
8
CUT
10
154.5145
20
138.7803
0
VERTEX
8
CUT
10
154.5428
20
138.6882
0
VERTEX
8
CUT
10
154.5571
20
138.3178
0
VERTEX
8
CUT
10
154.5119
20
137.6392
0
VERTEX
8
CUT
10
154.2848
20
136.8672
0
VERTEX
8
CUT
10
153.7976
20
135.9741
0
VERTEX
8
CUT
10
153.4192
20
135.5896
0
VERTEX
8
CUT
10
152.5062
20
134.9663
0
VERTEX
8
CUT
10
151.1527
20
134.6896
0
VERTEX
8
CUT
10
149.7646
20
134.8167
0
VERTEX
8
CUT
10
143.2293
20
136.6626
0
VERTEX
8
CUT
10
142.9254
20
136.7071
0
VERTEX
8
CUT
10
142.7369
20
136.7612
0
VERTEX
8
CUT
10
141.4143
20
136.9286
0
VERTEX
8
CUT
10
138.9794
20
137.2856
0
VERTEX
8
CUT
10
134.7281
20
137.2854
0
VERTEX
8
CUT
10
130.8434
20
136.6621
0
VERTEX
8
CUT
10
129.9153
20
136.3448
0
VERTEX
8
CUT
10
129.2440
20
136.1816
0
VERTEX
8
CUT
10
128.5977
20
135.8943
0
VERTEX
8
CUT
10
126.7255
20
135.2542
0
VERTEX
8
CUT
10
124.7316
20
134.3049
0
VERTEX
8
CUT
10
123.9652
20
133.8353
0
VERTEX
8
CUT
10
123.8685
20
133.7923
0
VERTEX
8
CUT
10
123.5277
20
133.5672
0
VERTEX
8
CUT
10
120.9343
20
131.9782
0
VERTEX
8
CUT
10
120.2600
20
131.4091
0
VERTEX
8
CUT
10
120.0096
20
131.2437
0
VERTEX
8
CUT
10
119.0458
20
130.3843
0
VERTEX
8
CUT
10
117.6033
20
129.1669
0
VERTEX
8
CUT
10
111.7888
20
122.8917
0
VERTEX
8
CUT
10
109.6469
20
121.3605
0
VERTEX
8
CUT
10
107.2208
20
120.3307
0
VERTEX
8
CUT
10
105.4674
20
120.0577
0
VERTEX
8
CUT
10
102.1333
20
120.0577
0
VERTEX
8
CUT
10
101.9727
20
120.0824
0
VERTEX
8
CUT
10
100.0997
20
120.4980
0
VERTEX
8
CUT
10
99.8920
20
120.5799
0
VERTEX
8
CUT
10
99.6587
20
120.6718
0
VERTEX
8
CUT
10
99.5148
20
120.7285
0
VERTEX
8
CUT
10
99.0586
20
120.9083
0
VERTEX
8
CUT
10
96.0043
20
122.4601
0
VERTEX
8
CUT
10
86.9251
20
127.9212
0
VERTEX
8
CUT
10
79.6493
20
131.5095
0
VERTEX
8
CUT
10
76.5002
20
133.5553
0
VERTEX
8
CUT
10
74.3239
20
135.6736
0
VERTEX
8
CUT
10
73.5528
20
136.7863
0
VERTEX
8
CUT
10
72.7603
20
138.5041
0
VERTEX
8
CUT
10
72.5152
20
139.7197
0
VERTEX
8
CUT
10
72.6136
20
141.4675
0
VERTEX
8
CUT
10
73.3219
20
143.0600
0
VERTEX
8
CUT
10
73.3329
20
143.0693
0
VERTEX
8
CUT
10
73.3576
20
143.0900
0
VERTEX
8
CUT
10
73.5329
20
143.2371
0
VERTEX
8
CUT
10
73.7783
20
143.4431
0
VERTEX
8
CUT
10
74.0277
20
143.6252
0
VERTEX
8
CUT
10
74.1059
20
143.6435
0
VERTEX
8
CUT
10
74.2953
20
143.6877
0
VERTEX
8
CUT
10
74.8798
20
143.8242
0
VERTEX
8
CUT
10
75.3269
20
143.9286
0
VERTEX
8
CUT
10
75.3599
20
143.9309
0
VERTEX
8
CUT
10
76.4795
20
143.8057
0
VERTEX
8
CUT
10
82.9481
20
142.3202
0
VERTEX
8
CUT
10
84.9701
20
142.2297
0
VERTEX
8
CUT
10
85.0283
20
142.2233
0
VERTEX
8
CUT
10
85.0841
20
142.2246
0
VERTEX
8
CUT
10
86.6606
20
142.1541
0
VERTEX
8
CUT
10
88.4920
20
142.3540
0
VERTEX
8
CUT
10
89.8101
20
142.7113
0
VERTEX
8
CUT
10
89.9395
20
142.7355
0
VERTEX
8
CUT
10
90.0950
20
142.7885
0
VERTEX
8
CUT
10
91.9388
20
143.2883
0
VERTEX
8
CUT
10
94.3508
20
144.3929
0
VERTEX
8
CUT
10
95.9223
20
145.5047
0
VERTEX
8
CUT
10
99.1248
20
148.4789
0
VERTEX
8
CUT
10
103.7356
20
153.2213
0
VERTEX
8
CUT
10
106.5634
20
155.3551
0
VERTEX
8
CUT
10
109.6656
20
156.8734
0
VERTEX
8
CUT
10
112.0649
20
157.5148
0
VERTEX
8
CUT
10
115.1259
20
157.8574
0
VERTEX
8
CUT
10
119.0794
20
157.7256
0
VERTEX
8
CUT
10
120.9867
20
157.3968
0
VERTEX
8
CUT
10
123.5009
20
156.6705
0
VERTEX
8
CUT
10
131.1470
20
153.8038
0
VERTEX
8
CUT
10
135.1736
20
152.7592
0
VERTEX
8
CUT
10
137.1764
20
152.6662
0
VERTEX
8
CUT
10
139.0727
20
153.0308
0
VERTEX
8
CUT
10
139.6456
20
153.3113
0
VERTEX
8
CUT
10
139.8978
20
153.6669
0
VERTEX
8
CUT
10
139.7166
20
154.1422
0
VERTEX
8
CUT
10
139.7141
20
154.1544
0
VERTEX
8
CUT
10
139.7113
20
154.1562
0
VERTEX
8
CUT
10
139.5035
20
154.7012
0
VERTEX
8
CUT
10
137.6362
20
156.5008
0
VERTEX
8
CUT
10
132.5714
20
160.6407
0
VERTEX
8
CUT
10
128.9514
20
164.3172
0
VERTEX
8
CUT
10
122.1014
20
164.5336
0
VERTEX
8
CUT
10
112.6033
20
165.3908
0
VERTEX
8
CUT
10
102.5428
20
166.6442
0
VERTEX
8
CUT
10
95.1349
20
167.8230
0
VERTEX
8
CUT
10
92.6247
20
167.4016
0
VERTEX
8
CUT
10
88.1669
20
166.1217
0
VERTEX
8
CUT
10
75.5415
20
160.6299
0
VERTEX
8
CUT
10
71.4670
20
159.4615
0
VERTEX
8
CUT
10
66.9344
20
158.9829
0
VERTEX
8
CUT
10
65.6770
20
158.9585
0
VERTEX
8
CUT
10
65.3868
20
158.9529
0
VERTEX
8
CUT
10
64.7346
20
158.9402
0
VERTEX
8
CUT
10
62.4281
20
158.8954
0
VERTEX
8
CUT
10
57.1141
20
159.5929
0
VERTEX
8
CUT
10
54.4894
20
160.2995
0
VERTEX
8
CUT
10
52.1016
20
161.1826
0
VERTEX
8
CUT
10
49.8445
20
162.2759
0
VERTEX
8
CUT
10
46.6981
20
164.5451
0
VERTEX
8
CUT
10
45.0765
20
166.6631
0
VERTEX
8
CUT
10
44.5218
20
167.8705
0
VERTEX
8
CUT
10
44.1814
20
170.0895
0
VERTEX
8
CUT
10
44.3258
20
170.9572
0
VERTEX
8
CUT
10
44.5290
20
171.3288
0
VERTEX
8
CUT
10
44.5695
20
171.4028
0
VERTEX
8
CUT
10
44.6410
20
171.5337
0
VERTEX
8
CUT
10
44.6685
20
171.5839
0
VERTEX
8
CUT
10
45.0746
20
172.1735
0
VERTEX
8
CUT
10
45.6445
20
172.7157
0
VERTEX
8
CUT
10
46.2354
20
173.0877
0
VERTEX
8
CUT
10
46.3459
20
173.1442
0
VERTEX
8
CUT
10
46.3538
20
173.1482
0
VERTEX
8
CUT
10
46.3546
20
173.1486
0
VERTEX
8
CUT
10
46.3548
20
173.1487
0
VERTEX
8
CUT
10
47.4980
20
173.4449
0
VERTEX
8
CUT
10
47.7598
20
173.4784
0
VERTEX
8
CUT
10
47.8042
20
173.4841
0
VERTEX
8
CUT
10
47.8800
20
173.4938
0
VERTEX
8
CUT
10
47.8972
20
173.4960
0
VERTEX
8
CUT
10
48.9331
20
173.5596
0
VERTEX
8
CUT
10
53.8922
20
173.2001
0
VERTEX
8
CUT
10
54.1725
20
173.1545
0
VERTEX
8
CUT
10
54.8987
20
173.1224
0
VERTEX
8
CUT
10
55.6797
20
173.0578
0
VERTEX
8
CUT
10
55.9103
20
173.0777
0
VERTEX
8
CUT
10
56.3446
20
173.0585
0
VERTEX
8
CUT
10
57.0004
20
173.1718
0
VERTEX
8
CUT
10
57.1299
20
173.1830
0
VERTEX
8
CUT
10
57.1901
20
173.1847
0
VERTEX
8
CUT
10
57.2008
20
173.1891
0
VERTEX
8
CUT
10
57.8570
20
173.2458
0
VERTEX
8
CUT
10
58.5332
20
173.7422
0
VERTEX
8
CUT
10
58.7508
20
173.8326
0
VERTEX
8
CUT
10
58.9083
20
174.0177
0
VERTEX
8
CUT
10
59.0002
20
174.0852
0
VERTEX
8
CUT
10
59.0998
20
174.2427
0
VERTEX
8
CUT
10
59.3331
20
174.5169
0
VERTEX
8
CUT
10
59.3652
20
174.6625
0
VERTEX
8
CUT
10
59.4919
20
174.8630
0
VERTEX
8
CUT
10
59.5264
20
175.3951
0
VERTEX
8
CUT
10
59.5613
20
175.5540
0
VERTEX
8
CUT
10
59.5384
20
175.5803
0
VERTEX
8
CUT
10
59.5484
20
175.7353
0
VERTEX
8
CUT
10
59.1241
20
176.3003
0
VERTEX
8
CUT
10
57.4639
20
177.0986
0
VERTEX
8
CUT
10
52.7130
20
178.7485
0
VERTEX
8
CUT
10
45.3265
20
181.6505
0
VERTEX
8
CUT
10
37.3143
20
185.1457
0
VERTEX
8
CUT
10
29.9030
20
188.7031
0
VERTEX
8
CUT
10
21.4818
20
193.4911
0
VERTEX
8
CUT
10
17.3864
20
196.2980
0
VERTEX
8
CUT
10
16.3196
20
197.2736
0
VERTEX
8
CUT
10
16.1910
20
197.5139
0
VERTEX
8
CUT
10
15.9932
20
198.1842
0
VERTEX
8
CUT
10
16.3077
20
198.9558
0
VERTEX
8
CUT
10
16.9025
20
199.3110
0
VERTEX
8
CUT
10
17.6540
20
199.2668
0
VERTEX
8
CUT
10
39.8536
20
189.6815
0
VERTEX
8
CUT
10
43.9985
20
188.1060
0
VERTEX
8
CUT
10
46.0746
20
187.2457
0
VERTEX
8
CUT
10
51.5890
20
185.2208
0
VERTEX
8
CUT
10
54.4046
20
184.1506
0
VERTEX
8
CUT
10
59.4099
20
182.5584
0
VERTEX
8
CUT
10
63.2369
20
181.3164
0
VERTEX
8
CUT
10
64.1641
20
181.0461
0
VERTEX
8
CUT
10
68.7910
20
179.5743
0
VERTEX
8
CUT
10
83.3082
20
175.8213
0
VERTEX
8
CUT
10
89.9875
20
174.4564
0
VERTEX
8
CUT
10
90.5185
20
174.3397
0
VERTEX
8
CUT
10
91.0729
20
174.2346
0
VERTEX
8
CUT
10
94.6282
20
173.5081
0
VERTEX
8
CUT
10
94.8309
20
173.3422
0
VERTEX
8
CUT
10
95.5461
20
173.3205
0
VERTEX
8
CUT
10
98.4648
20
172.7241
0
VERTEX
8
CUT
10
108.9851
20
171.1056
0
VERTEX
8
CUT
10
109.3503
20
171.0470
0
VERTEX
8
CUT
10
109.4098
20
171.0402
0
VERTEX
8
CUT
10
113.4330
20
170.4213
0
VERTEX
8
CUT
10
122.4818
20
169.5462
0
VERTEX
8
CUT
10
125.4924
20
169.2021
0
VERTEX
8
CUT
10
126.7776
20
169.1307
0
VERTEX
8
CUT
10
127.4005
20
169.0705
0
VERTEX
8
CUT
10
132.5549
20
168.7591
0
VERTEX
8
CUT
10
134.3336
20
168.5320
0
VERTEX
8
CUT
10
135.2137
20
168.5985
0
VERTEX
8
CUT
10
137.3217
20
168.4711
0
VERTEX
8
CUT
10
137.6760
20
168.6626
0
VERTEX
8
CUT
10
137.5973
20
169.1530
0
VERTEX
8
CUT
10
136.6945
20
169.5070
0
VERTEX
8
CUT
10
136.1373
20
169.9942
0
VERTEX
8
CUT
10
134.3784
20
172.8563
0
VERTEX
8
CUT
10
133.9630
20
173.1091
0
VERTEX
8
CUT
10
123.8704
20
175.7088
0
VERTEX
8
CUT
10
116.5613
20
177.8328
0
VERTEX
8
CUT
10
115.6582
20
178.1101
0
VERTEX
8
CUT
10
108.1368
20
180.5245
0
VERTEX
8
CUT
10
96.9462
20
184.5052
0
VERTEX
8
CUT
10
96.5603
20
184.3734
0
VERTEX
8
CUT
10
96.5033
20
183.9697
0
VERTEX
8
CUT
10
98.8271
20
180.0963
0
VERTEX
8
CUT
10
98.8105
20
179.3839
0
VERTEX
8
CUT
10
98.2431
20
178.9380
0
VERTEX
8
CUT
10
95.8393
20
178.9972
0
VERTEX
8
CUT
10
93.0432
20
179.4293
0
VERTEX
8
CUT
10
70.9178
20
183.8816
0
VERTEX
8
CUT
10
53.5426
20
189.4538
0
VERTEX
8
CUT
10
50.9110
20
190.4404
0
VERTEX
8
CUT
10
49.7879
20
191.1749
0
VERTEX
8
CUT
10
49.1315
20
192.5204
0
VERTEX
8
CUT
10
49.1879
20
192.8591
0
VERTEX
8
CUT
10
49.4173
20
192.9846
0
VERTEX
8
CUT
10
53.1886
20
192.0915
0
VERTEX
8
CUT
10
55.4319
20
191.7362
0
VERTEX
8
CUT
10
55.8208
20
191.6455
0
VERTEX
8
CUT
10
56.1218
20
191.6269
0
VERTEX
8
CUT
10
56.6748
20
191.5393
0
VERTEX
8
CUT
10
57.3120
20
191.5534
0
VERTEX
8
CUT
10
58.5251
20
191.4785
0
VERTEX
8
CUT
10
59.0664
20
191.5923
0
VERTEX
8
CUT
10
59.5325
20
191.6026
0
VERTEX
8
CUT
10
60.1897
20
191.8284
0
VERTEX
8
CUT
10
60.6125
20
191.9173
0
VERTEX
8
CUT
10
60.7473
20
192.0200
0
VERTEX
8
CUT
10
60.9651
20
192.0948
0
VERTEX
8
CUT
10
61.5868
20
192.6592
0
VERTEX
8
CUT
10
62.0290
20
192.9959
0
VERTEX
8
CUT
10
62.0682
20
193.0963
0
VERTEX
8
CUT
10
62.0986
20
193.1239
0
VERTEX
8
CUT
10
62.2558
20
193.5759
0
VERTEX
8
CUT
10
62.5510
20
194.3310
0
VERTEX
8
CUT
10
62.5483
20
194.4173
0
VERTEX
8
CUT
10
62.5530
20
194.4310
0
VERTEX
8
CUT
10
62.5459
20
194.4899
0
VERTEX
8
CUT
10
62.5212
20
195.2624
0
VERTEX
8
CUT
10
62.3995
20
195.7044
0
VERTEX
8
CUT
10
62.3509
20
196.1068
0
VERTEX
8
CUT
10
61.9527
20
197.0514
0
VERTEX
8
CUT
10
61.2403
20
197.9193
0
VERTEX
8
CUT
10
61.1093
20
198.1393
0
VERTEX
8
CUT
10
60.7542
20
198.5114
0
VERTEX
8
CUT
10
60.2469
20
199.1294
0
VERTEX
8
CUT
10
59.5005
20
199.8249
0
VERTEX
8
CUT
10
59.1150
20
200.2288
0
VERTEX
8
CUT
10
56.9932
20
202.1610
0
VERTEX
8
CUT
10
55.9021
20
203.1777
0
VERTEX
8
CUT
10
53.0347
20
206.2097
0
VERTEX
8
CUT
10
49.5667
20
211.1275
0
VERTEX
8
CUT
10
41.7418
20
217.7334
0
VERTEX
8
CUT
10
36.0100
20
223.1688
0
VERTEX
8
CUT
10
31.0165
20
228.3611
0
VERTEX
8
CUT
10
28.0086
20
231.9982
0
VERTEX
8
CUT
10
25.9598
20
235.2257
0
VERTEX
8
CUT
10
25.9240
20
235.3105
0
VERTEX
8
CUT
10
25.9079
20
235.3484
0
VERTEX
8
CUT
10
25.8404
20
235.5082
0
VERTEX
8
CUT
10
25.7546
20
235.7110
0
VERTEX
8
CUT
10
25.4822
20
236.7611
0
VERTEX
8
CUT
10
25.4821
20
237.3920
0
VERTEX
8
CUT
10
25.5536
20
237.6774
0
VERTEX
8
CUT
10
25.9423
20
238.1608
0
VERTEX
8
CUT
10
25.9850
20
238.1805
0
VERTEX
8
CUT
10
26.8377
20
238.3421
0
VERTEX
8
CUT
10
26.8411
20
238.3416
0
VERTEX
8
CUT
10
26.8446
20
238.3411
0
VERTEX
8
CUT
10
26.8450
20
238.3410
0
VERTEX
8
CUT
10
26.8560
20
238.3393
0
VERTEX
8
CUT
10
26.8649
20
238.3380
0
VERTEX
8
CUT
10
26.8807
20
238.3356
0
VERTEX
8
CUT
10
28.1191
20
237.6276
0
VERTEX
8
CUT
10
28.4300
20
237.3978
0
VERTEX
8
CUT
10
28.4471
20
237.3851
0
VERTEX
8
CUT
10
28.4958
20
237.3492
0
VERTEX
8
CUT
10
28.5112
20
237.3377
0
VERTEX
8
CUT
10
41.7971
20
225.0911
0
VERTEX
8
CUT
10
46.2740
20
221.2398
0
VERTEX
8
CUT
10
53.2184
20
215.7769
0
VERTEX
8
CUT
10
54.8793
20
214.5978
0
VERTEX
8
CUT
10
55.8739
20
213.8428
0
VERTEX
8
CUT
10
59.8567
20
211.0641
0
VERTEX
8
CUT
10
62.0764
20
209.4882
0
VERTEX
8
CUT
10
66.2584
20
206.8581
0
VERTEX
8
CUT
10
67.4365
20
206.1013
0
VERTEX
8
CUT
10
68.0076
20
205.7581
0
VERTEX
8
CUT
10
71.3903
20
203.6306
0
VERTEX
8
CUT
10
73.5545
20
202.4242
0
VERTEX
8
CUT
10
73.6255
20
202.3816
0
VERTEX
8
CUT
10
74.8979
20
201.6754
0
VERTEX
8
CUT
10
81.1155
20
198.2095
0
VERTEX
8
CUT
10
85.5186
20
196.0365
0
VERTEX
8
CUT
10
85.7630
20
195.9018
0
VERTEX
8
CUT
10
86.2045
20
195.6981
0
VERTEX
8
CUT
10
91.2710
20
193.1977
0
VERTEX
8
CUT
10
101.8194
20
188.6300
0
VERTEX
8
CUT
10
104.8963
20
187.4749
0
VERTEX
8
CUT
10
105.0606
20
187.4059
0
VERTEX
8
CUT
10
105.3713
20
187.2966
0
VERTEX
8
CUT
10
112.7811
20
184.5147
0
VERTEX
8
CUT
10
118.5445
20
182.6604
0
VERTEX
8
CUT
10
118.6125
20
182.6364
0
VERTEX
8
CUT
10
118.8040
20
182.5769
0
VERTEX
8
CUT
10
124.1553
20
180.8551
0
VERTEX
8
CUT
10
138.5560
20
176.9425
0
VERTEX
8
CUT
10
139.1230
20
176.8701
0
VERTEX
8
CUT
10
139.4015
20
177.1974
0
VERTEX
8
CUT
10
139.2710
20
177.5378
0
VERTEX
8
CUT
10
137.6439
20
178.8562
0
VERTEX
8
CUT
10
135.6072
20
179.8192
0
VERTEX
8
CUT
10
135.1930
20
180.2263
0
VERTEX
8
CUT
10
134.9490
20
180.9405
0
VERTEX
8
CUT
10
135.3140
20
182.5310
0
VERTEX
8
CUT
10
135.1320
20
182.7473
0
VERTEX
8
CUT
10
135.0411
20
183.0320
0
VERTEX
8
CUT
10
134.8867
20
183.0387
0
VERTEX
8
CUT
10
134.5831
20
183.3993
0
VERTEX
8
CUT
10
122.0765
20
190.2238
0
VERTEX
8
CUT
10
115.4108
20
194.4142
0
VERTEX
8
CUT
10
108.8434
20
199.0340
0
VERTEX
8
CUT
10
99.5113
20
205.9880
0
VERTEX
8
CUT
10
98.4711
20
206.4449
0
VERTEX
8
CUT
10
96.8649
20
206.5440
0
VERTEX
8
CUT
10
94.3292
20
207.0473
0
VERTEX
8
CUT
10
91.7977
20
207.9678
0
VERTEX
8
CUT
10
89.2665
20
209.3302
0
VERTEX
8
CUT
10
86.3297
20
211.4305
0
VERTEX
8
CUT
10
80.2573
20
216.3221
0
VERTEX
8
CUT
10
78.2435
20
217.5756
0
VERTEX
8
CUT
10
76.4604
20
218.3157
0
VERTEX
8
CUT
10
75.4972
20
218.4499
0
VERTEX
8
CUT
10
75.0044
20
218.5978
0
VERTEX
8
CUT
10
74.6411
20
218.5692
0
VERTEX
8
CUT
10
73.7488
20
218.6936
0
VERTEX
8
CUT
10
72.7118
20
218.3282
0
VERTEX
8
CUT
10
71.4059
20
217.0259
0
VERTEX
8
CUT
10
71.0138
20
216.1664
0
VERTEX
8
CUT
10
70.9279
20
214.4137
0
VERTEX
8
CUT
10
70.9910
20
214.1295
0
VERTEX
8
CUT
10
70.9905
20
214.1091
0
VERTEX
8
CUT
10
71.0274
20
213.9653
0
VERTEX
8
CUT
10
72.0113
20
209.5269
0
VERTEX
8
CUT
10
71.8508
20
209.0789
0
VERTEX
8
CUT
10
71.3055
20
209.0801
0
VERTEX
8
CUT
10
67.6858
20
210.7804
0
VERTEX
8
CUT
10
62.5993
20
213.8516
0
VERTEX
8
CUT
10
52.6756
20
220.6758
0
VERTEX
8
CUT
10
51.1141
20
222.0359
0
VERTEX
8
CUT
10
50.4773
20
223.3816
0
VERTEX
8
CUT
10
50.2408
20
226.4090
0
VERTEX
8
CUT
10
49.8908
20
227.8883
0
VERTEX
8
CUT
10
49.8818
20
227.9653
0
VERTEX
8
CUT
10
49.8434
20
228.0888
0
VERTEX
8
CUT
10
49.4249
20
229.8577
0
VERTEX
8
CUT
10
48.3123
20
232.8012
0
VERTEX
8
CUT
10
44.4622
20
241.5542
0
VERTEX
8
CUT
10
43.5226
20
244.5302
0
VERTEX
8
CUT
10
43.3779
20
245.0793
0
VERTEX
8
CUT
10
43.1946
20
245.8907
0
VERTEX
8
CUT
10
42.7756
20
248.4968
0
VERTEX
8
CUT
10
42.6122
20
250.2744
0
VERTEX
8
CUT
10
42.6487
20
252.4745
0
VERTEX
8
CUT
10
42.6917
20
253.3568
0
VERTEX
8
CUT
10
42.6997
20
253.5218
0
VERTEX
8
CUT
10
42.7132
20
253.8004
0
VERTEX
8
CUT
10
42.7183
20
253.9053
0
VERTEX
8
CUT
10
43.2848
20
257.3048
0
VERTEX
8
CUT
10
43.2850
20
257.3059
0
VERTEX
8
CUT
10
43.2851
20
257.3063
0
VERTEX
8
CUT
10
43.3603
20
257.6519
0
VERTEX
8
CUT
10
44.4786
20
260.8979
0
VERTEX
8
CUT
10
44.4849
20
260.9133
0
VERTEX
8
CUT
10
45.0899
20
262.2154
0
VERTEX
8
CUT
10
45.1143
20
262.2639
0
VERTEX
8
CUT
10
45.7025
20
263.2198
0
VERTEX
8
CUT
10
45.8562
20
263.4505
0
VERTEX
8
CUT
10
47.2769
20
265.3490
0
VERTEX
8
CUT
10
48.4435
20
266.5467
0
VERTEX
8
CUT
10
50.9471
20
268.5562
0
VERTEX
8
CUT
10
53.4620
20
269.9100
0
VERTEX
8
CUT
10
54.0923
20
270.1107
0
VERTEX
8
CUT
10
54.3485
20
270.1678
0
VERTEX
8
CUT
10
54.6682
20
270.2391
0
VERTEX
8
CUT
10
54.7761
20
270.2632
0
VERTEX
8
CUT
10
55.0373
20
270.3214
0
VERTEX
8
CUT
10
55.8467
20
270.3400
0
VERTEX
8
CUT
10
56.4269
20
269.9567
0
VERTEX
8
CUT
10
56.9957
20
268.9843
0
VERTEX
8
CUT
10
57.3019
20
268.8660
0
VERTEX
8
CUT
10
57.6106
20
269.0548
0
VERTEX
8
CUT
10
57.8319
20
270.6020
0
VERTEX
8
CUT
10
58.4462
20
271.3869
0
VERTEX
8
CUT
10
59.3179
20
271.2960
0
VERTEX
8
CUT
10
59.6063
20
271.1478
0
VERTEX
8
CUT
10
60.2976
20
270.4400
0
VERTEX
8
CUT
10
62.0363
20
267.3060
0
VERTEX
8
CUT
10
64.1738
20
262.8085
0
VERTEX
8
CUT
10
66.2877
20
258.2766
0
VERTEX
8
CUT
10
66.9452
20
256.9775
0
VERTEX
8
CUT
10
68.3661
20
253.9880
0
VERTEX
8
CUT
10
70.7358
20
249.6111
0
VERTEX
8
CUT
10
75.8028
20
241.3539
0
VERTEX
8
CUT
10
77.8442
20
238.5327
0
VERTEX
8
CUT
10
78.2710
20
237.8991
0
VERTEX
8
CUT
10
79.3836
20
236.4052
0
VERTEX
8
CUT
10
81.6510
20
233.2716
0
VERTEX
8
CUT
10
84.9501
20
229.0823
0
VERTEX
8
CUT
10
88.8001
20
224.8229
0
VERTEX
8
CUT
10
89.7539
20
223.6870
0
SEQEND
0
POLYLINE
8
CUT
66
1
70
1
10
0.0
20
0.0
30
0.0
0
VERTEX
8
CUT
10
220.4341
20
158.3077
0
VERTEX
8
CUT
10
220.5683
20
158.0032
0
VERTEX
8
CUT
10
220.8888
20
157.9135
0
VERTEX
8
CUT
10
222.7588
20
158.7286
0
VERTEX
8
CUT
10
223.6036
20
162.1181
0
VERTEX
8
CUT
10
224.4711
20
163.2227
0
VERTEX
8
CUT
10
226.0188
20
164.1540
0
VERTEX
8
CUT
10
225.9857
20
164.7075
0
VERTEX
8
CUT
10
224.7035
20
164.9869
0
VERTEX
8
CUT
10
223.9952
20
164.8049
0
VERTEX
8
CUT
10
223.5103
20
164.3762
0
SEQEND
0
POLYLINE
8
CUT
66
1
70
1
10
0.0
20
0.0
30
0.0
0
VERTEX
8
CUT
10
220.6859
20
145.1072
0
VERTEX
8
CUT
10
221.3448
20
144.5471
0
VERTEX
8
CUT
10
223.5522
20
143.5258
0
VERTEX
8
CUT
10
223.6510
20
143.6246
0
VERTEX
8
CUT
10
223.3216
20
144.1847
0
VERTEX
8
CUT
10
222.1684
20
145.2719
0
VERTEX
8
CUT
10
221.2459
20
145.7332
0
VERTEX
8
CUT
10
220.5211
20
145.6343
0
SEQEND
0
POLYLINE
8
CUT
66
1
70
1
10
0.0
20
0.0
30
0.0
0
VERTEX
8
CUT
10
168.5318
20
167.6754
0
VERTEX
8
CUT
10
169.1249
20
167.2801
0
VERTEX
8
CUT
10
169.6850
20
167.1812
0
VERTEX
8
CUT
10
170.2121
20
167.4118
0
VERTEX
8
CUT
10
170.4167
20
167.6703
0
VERTEX
8
CUT
10
170.4283
20
167.6747
0
VERTEX
8
CUT
10
170.5552
20
167.8452
0
VERTEX
8
CUT
10
170.8381
20
168.2026
0
VERTEX
8
CUT
10
170.8216
20
168.2034
0
VERTEX
8
CUT
10
170.9641
20
168.3948
0
VERTEX
8
CUT
10
170.9615
20
169.0164
0
VERTEX
8
CUT
10
170.6304
20
169.2697
0
VERTEX
8
CUT
10
168.0878
20
169.3515
0
VERTEX
8
CUT
10
167.8869
20
169.0474
0
VERTEX
8
CUT
10
167.9753
20
168.5453
0
VERTEX
8
CUT
10
168.2501
20
168.1731
0
VERTEX
8
CUT
10
168.2353
20
168.1696
0
SEQEND
0
POLYLINE
8
CUT
66
1
70
1
10
0.0
20
0.0
30
0.0
0
VERTEX
8
CUT
10
166.4193
20
158.6115
0
VERTEX
8
CUT
10
167.2917
20
158.7093
0
VERTEX
8
CUT
10
168.1545
20
159.6239
0
VERTEX
8
CUT
10
167.9470
20
160.1380
0
VERTEX
8
CUT
10
166.5611
20
160.2849
0
VERTEX
8
CUT
10
165.5939
20
160.6098
0
VERTEX
8
CUT
10
165.2024
20
160.3214
0
VERTEX
8
CUT
10
165.2797
20
159.6022
0
VERTEX
8
CUT
10
165.7686
20
159.0027
0
SEQEND
0
POLYLINE
8
CUT
66
1
70
1
10
0.0
20
0.0
30
0.0
0
VERTEX
8
CUT
10
161.8437
20
169.3227
0
VERTEX
8
CUT
10
161.9755
20
169.7181
0
VERTEX
8
CUT
10
161.8886
20
169.8137
0
VERTEX
8
CUT
10
162.0079
20
169.9362
0
VERTEX
8
CUT
10
162.0423
20
170.5347
0
VERTEX
8
CUT
10
161.7089
20
170.9562
0
VERTEX
8
CUT
10
159.0681
20
170.7696
0
VERTEX
8
CUT
10
158.8971
20
170.4394
0
VERTEX
8
CUT
10
159.1019
20
169.9293
0
VERTEX
8
CUT
10
159.1116
20
169.9182
0
VERTEX
8
CUT
10
159.0433
20
169.8499
0
VERTEX
8
CUT
10
159.4716
20
169.2898
0
VERTEX
8
CUT
10
160.2953
20
168.8944
0
VERTEX
8
CUT
10
160.8224
20
168.8615
0
SEQEND
0
POLYLINE
8
CUT
66
1
70
1
10
0.0
20
0.0
30
0.0
0
VERTEX
8
CUT
10
160.2294
20
179.6020
0
VERTEX
8
CUT
10
160.2152
20
179.7584
0
VERTEX
8
CUT
10
160.4405
20
180.4092
0
VERTEX
8
CUT
10
160.2769
20
180.8147
0
VERTEX
8
CUT
10
159.9065
20
180.9407
0
VERTEX
8
CUT
10
158.0072
20
180.8183
0
VERTEX
8
CUT
10
157.3690
20
180.5532
0
VERTEX
8
CUT
10
157.2996
20
180.1043
0
VERTEX
8
CUT
10
157.7374
20
179.4606
0
VERTEX
8
CUT
10
157.7722
20
179.4326
0
VERTEX
8
CUT
10
157.7584
20
179.2396
0
VERTEX
8
CUT
10
157.9561
20
179.0090
0
VERTEX
8
CUT
10
158.9774
20
178.7454
0
VERTEX
8
CUT
10
159.9988
20
179.2066
0
SEQEND
0
POLYLINE
8
CUT
66
1
70
1
10
0.0
20
0.0
30
0.0
0
VERTEX
8
CUT
10
156.9182
20
160.0005
0
VERTEX
8
CUT
10
157.3953
20
159.8892
0
VERTEX
8
CUT
10
157.4437
20
159.8990
0
VERTEX
8
CUT
10
157.5606
20
159.8463
0
VERTEX
8
CUT
10
158.4739
20
160.0513
0
VERTEX
8
CUT
10
158.9014
20
160.3990
0
VERTEX
8
CUT
10
158.9463
20
160.5258
0
VERTEX
8
CUT
10
159.1123
20
160.6630
0
VERTEX
8
CUT
10
159.4179
20
161.1809
0
VERTEX
8
CUT
10
159.0228
20
161.9513
0
VERTEX
8
CUT
10
158.5301
20
162.1703
0
VERTEX
8
CUT
10
156.5302
20
162.0034
0
VERTEX
8
CUT
10
155.9572
20
161.6835
0
VERTEX
8
CUT
10
156.2238
20
160.5253
0
VERTEX
8
CUT
10
156.4710
20
160.3385
0
VERTEX
8
CUT
10
156.4715
20
160.3370
0
VERTEX
8
CUT
10
156.4749
20
160.3355
0
SEQEND
0
POLYLINE
8
CUT
66
1
70
1
10
0.0
20
0.0
30
0.0
0
VERTEX
8
CUT
10
151.9459
20
170.8390
0
VERTEX
8
CUT
10
152.5780
20
171.2646
0
VERTEX
8
CUT
10
153.2232
20
172.3475
0
VERTEX
8
CUT
10
152.9329
20
172.8252
0
VERTEX
8
CUT
10
151.9761
20
173.0665
0
VERTEX
8
CUT
10
150.5502
20
172.9965
0
VERTEX
8
CUT
10
149.4756
20
172.4998
0
VERTEX
8
CUT
10
149.4778
20
172.1142
0
VERTEX
8
CUT
10
149.9555
20
171.4283
0
VERTEX
8
CUT
10
150.6083
20
170.9274
0
VERTEX
8
CUT
10
151.0946
20
170.7828
0
VERTEX
8
CUT
10
151.1953
20
170.7215
0
VERTEX
8
CUT
10
151.2606
20
170.7334
0
VERTEX
8
CUT
10
151.2954
20
170.7231
0
SEQEND
0
POLYLINE
8
CUT
66
1
70
1
10
0.0
20
0.0
30
0.0
0
VERTEX
8
CUT
10
97.4008
20
125.7348
0
VERTEX
8
CUT
10
97.5655
20
125.3394
0
VERTEX
8
CUT
10
97.9608
20
125.4382
0
VERTEX
8
CUT
10
100.5636
20
128.8647
0
VERTEX
8
CUT
10
103.9900
20
132.1593
0
VERTEX
8
CUT
10
107.7459
20
134.8609
0
VERTEX
8
CUT
10
111.7983
20
136.9365
0
VERTEX
8
CUT
10
116.0484
20
138.6168
0
VERTEX
8
CUT
10
118.3546
20
139.3086
0
VERTEX
8
CUT
10
123.6260
20
140.5936
0
VERTEX
8
CUT
10
135.9809
20
143.0645
0
VERTEX
8
CUT
10
137.8259
20
143.5917
0
VERTEX
8
CUT
10
138.6495
20
144.1847
0
VERTEX
8
CUT
10
138.0565
20
144.3165
0
VERTEX
8
CUT
10
136.5739
20
144.1518
0
VERTEX
8
CUT
10
130.1494
20
142.8998
0
VERTEX
8
CUT
10
120.2984
20
141.3513
0
VERTEX
8
CUT
10
115.9166
20
140.2311
0
VERTEX
8
CUT
10
111.9630
20
138.7156
0
VERTEX
8
CUT
10
107.1199
20
136.2117
0
VERTEX
8
CUT
10
104.6160
20
134.5314
0
VERTEX
8
CUT
10
102.4086
20
132.7194
0
VERTEX
8
CUT
10
100.5636
20
130.8085
0
VERTEX
8
CUT
10
98.3891
20
127.8433
0
SEQEND
0
POLYLINE
8
CUT
66
1
70
1
10
0.0
20
0.0
30
0.0
0
VERTEX
8
CUT
10
124.7462
20
77.1719
0
VERTEX
8
CUT
10
122.0117
20
72.1641
0
VERTEX
8
CUT
10
121.1221
20
69.9896
0
VERTEX
8
CUT
10
121.2209
20
69.6601
0
VERTEX
8
CUT
10
121.4845
20
69.7590
0
VERTEX
8
CUT
10
125.6687
20
76.7107
0
VERTEX
8
CUT
10
134.3995
20
88.3407
0
VERTEX
8
CUT
10
135.2890
20
90.1527
0
VERTEX
8
CUT
10
135.2231
20
90.6140
0
VERTEX
8
CUT
10
134.7619
20
90.7128
0
VERTEX
8
CUT
10
134.2677
20
90.1527
0
VERTEX
8
CUT
10
132.4227
20
87.2205
0
VERTEX
8
CUT
10
127.7773
20
81.3890
0
SEQEND
0
POLYLINE
8
CUT
66
1
70
1
10
0.0
20
0.0
30
0.0
0
VERTEX
8
CUT
10
131.0389
20
251.9850
0
VERTEX
8
CUT
10
130.8083
20
252.6440
0
VERTEX
8
CUT
10
130.3141
20
252.8416
0
VERTEX
8
CUT
10
130.0835
20
252.5781
0
VERTEX
8
CUT
10
130.0835
20
251.8203
0
VERTEX
8
CUT
10
130.8413
20
247.7679
0
VERTEX
8
CUT
10
131.5331
20
245.4287
0
VERTEX
8
CUT
10
131.8955
20
244.9345
0
VERTEX
8
CUT
10
132.1921
20
245.0334
0
VERTEX
8
CUT
10
132.3239
20
245.3628
0
SEQEND
0
POLYLINE
8
CUT
66
1
70
1
10
0.0
20
0.0
30
0.0
0
VERTEX
8
CUT
10
111.5677
20
87.7147
0
VERTEX
8
CUT
10
111.9630
20
87.4841
0
VERTEX
8
CUT
10
112.6549
20
87.9783
0
VERTEX
8
CUT
10
114.4999
20
90.1527
0
VERTEX
8
CUT
10
116.2461
20
92.6896
0
VERTEX
8
CUT
10
116.4437
20
93.3156
0
VERTEX
8
CUT
10
116.1472
20
93.9416
0
VERTEX
8
CUT
10
115.8836
20
94.0075
0
VERTEX
8
CUT
10
115.5542
20
93.7768
0
VERTEX
8
CUT
10
114.8294
20
92.5249
0
VERTEX
8
CUT
10
112.4243
20
89.5927
0
VERTEX
8
CUT
10
111.7324
20
88.4395
0
SEQEND
0
POLYLINE
8
CUT
66
1
70
1
10
0.0
20
0.0
30
0.0
0
VERTEX
8
CUT
10
99.7729
20
75.3599
0
VERTEX
8
CUT
10
99.9047
20
74.3385
0
VERTEX
8
CUT
10
100.6295
20
73.1854
0
VERTEX
8
CUT
10
101.1566
20
72.7571
0
VERTEX
8
CUT
10
101.6838
20
72.7571
0
VERTEX
8
CUT
10
103.1664
20
71.9993
0
VERTEX
8
CUT
10
103.2652
20
72.4935
0
VERTEX
8
CUT
10
102.4415
20
72.8889
0
VERTEX
8
CUT
10
100.4318
20
74.9645
0
SEQEND
0
POLYLINE
8
CUT
66
1
70
1
10
0.0
20
0.0
30
0.0
0
VERTEX
8
CUT
10
68.2762
20
114.8954
0
VERTEX
8
CUT
10
71.8674
20
118.8160
0
VERTEX
8
CUT
10
69.3634
20
117.3993
0
VERTEX
8
CUT
10
68.3421
20
116.4769
0
VERTEX
8
CUT
10
66.8925
20
114.2036
0
VERTEX
8
CUT
10
66.3653
20
111.6996
0
VERTEX
8
CUT
10
66.4971
20
110.4806
0
VERTEX
8
CUT
10
67.1890
20
108.8663
0
VERTEX
8
CUT
10
69.8576
20
106.0329
0
VERTEX
8
CUT
10
70.7142
20
105.4728
0
VERTEX
8
CUT
10
71.3402
20
105.3410
0
VERTEX
8
CUT
10
69.1987
20
106.9883
0
VERTEX
8
CUT
10
68.4410
20
108.0426
0
VERTEX
8
CUT
10
67.7161
20
109.6570
0
VERTEX
8
CUT
10
67.3867
20
111.8973
0
VERTEX
8
CUT
10
67.5514
20
113.3799
0
SEQEND
0
POLYLINE
8
CUT
66
1
70
1
10
0.0
20
0.0
30
0.0
0
VERTEX
8
CUT
10
154.7210
20
212.0342
0
VERTEX
8
CUT
10
155.2808
20
212.0818
0
VERTEX
8
CUT
10
156.1498
20
212.0691
0
VERTEX
8
CUT
10
156.2871
20
212.3799
0
VERTEX
8
CUT
10
156.3769
20
212.4397
0
VERTEX
8
CUT
10
156.4818
20
212.8206
0
VERTEX
8
CUT
10
156.9103
20
213.7905
0
VERTEX
8
CUT
10
157.4601
20
214.6038
0
VERTEX
8
CUT
10
157.9455
20
215.1075
0
VERTEX
8
CUT
10
159.1785
20
215.8445
0
VERTEX
8
CUT
10
161.0321
20
216.3427
0
VERTEX
8
CUT
10
162.4388
20
216.4112
0
VERTEX
8
CUT
10
162.5083
20
216.4125
0
VERTEX
8
CUT
10
165.7136
20
216.0802
0
VERTEX
8
CUT
10
169.0151
20
215.2664
0
VERTEX
8
CUT
10
172.1809
20
214.4396
0
VERTEX
8
CUT
10
172.6203
20
214.3777
0
VERTEX
8
CUT
10
173.4176
20
214.1811
0
VERTEX
8
CUT
10
173.5714
20
214.2436
0
VERTEX
8
CUT
10
173.8264
20
214.2077
0
VERTEX
8
CUT
10
173.8641
20
214.2250
0
VERTEX
8
CUT
10
173.9305
20
214.2121
0
VERTEX
8
CUT
10
174.4834
20
214.4529
0
VERTEX
8
CUT
10
174.7342
20
214.7227
0
VERTEX
8
CUT
10
174.9716
20
214.9406
0
VERTEX
8
CUT
10
176.8120
20
216.2642
0
VERTEX
8
CUT
10
178.0973
20
216.4800
0
VERTEX
8
CUT
10
179.6629
20
216.4463
0
VERTEX
8
CUT
10
182.6032
20
215.8763
0
VERTEX
8
CUT
10
185.9622
20
214.5445
0
VERTEX
8
CUT
10
189.4151
20
212.7029
0
VERTEX
8
CUT
10
190.8197
20
211.7969
0
VERTEX
8
CUT
10
191.8059
20
211.1093
0
VERTEX
8
CUT
10
191.9950
20
210.9775
0
VERTEX
8
CUT
10
192.1805
20
210.8481
0
VERTEX
8
CUT
10
192.2826
20
210.7769
0
VERTEX
8
CUT
10
193.4152
20
209.9366
0
VERTEX
8
CUT
10
196.7410
20
206.9402
0
VERTEX
8
CUT
10
199.0286
20
204.0702
0
VERTEX
8
CUT
10
200.2217
20
201.8649
0
VERTEX
8
CUT
10
200.2658
20
201.7834
0
VERTEX
8
CUT
10
200.3671
20
201.5961
0
VERTEX
8
CUT
10
200.4960
20
201.3578
0
VERTEX
8
CUT
10
200.9902
20
199.8489
0
VERTEX
8
CUT
10
201.0285
20
197.5766
0
VERTEX
8
CUT
10
200.6603
20
193.4542
0
VERTEX
8
CUT
10
200.3204
20
192.4010
0
VERTEX
8
CUT
10
198.6811
20
189.7224
0
VERTEX
8
CUT
10
196.6232
20
187.1019
0
VERTEX
8
CUT
10
194.2392
20
184.8251
0
VERTEX
8
CUT
10
192.5213
20
184.0079
0
VERTEX
8
CUT
10
190.3696
20
183.8068
0
VERTEX
8
CUT
10
186.6794
20
185.4164
0
VERTEX
8
CUT
10
181.3407
20
188.6128
0
VERTEX
8
CUT
10
177.1742
20
190.5859
0
VERTEX
8
CUT
10
173.6103
20
191.5585
0
VERTEX
8
CUT
10
166.8604
20
193.9606
0
VERTEX
8
CUT
10
160.8149
20
195.4172
0
VERTEX
8
CUT
10
153.3482
20
198.4439
0
VERTEX
8
CUT
10
145.5022
20
200.9827
0
VERTEX
8
CUT
10
143.3754
20
201.8463
0
VERTEX
8
CUT
10
141.4269
20
203.0862
0
VERTEX
8
CUT
10
140.4662
20
204.2617
0
VERTEX
8
CUT
10
140.0226
20
205.9335
0
VERTEX
8
CUT
10
140.2472
20
208.0749
0
VERTEX
8
CUT
10
140.9270
20
209.0921
0
VERTEX
8
CUT
10
142.0632
20
210.2555
0
VERTEX
8
CUT
10
142.5040
20
210.5699
0
VERTEX
8
CUT
10
144.2299
20
211.3916
0
VERTEX
8
CUT
10
144.9898
20
211.6971
0
VERTEX
8
CUT
10
146.4933
20
211.8483
0
VERTEX
8
CUT
10
152.8545
20
212.1175
0
VERTEX
8
CUT
10
153.5622
20
212.1071
0
SEQEND
0
POLYLINE
8
CUT
66
1
70
1
10
0.0
20
0.0
30
0.0
0
VERTEX
8
CUT
10
76.2194
20
272.3259
0
VERTEX
8
CUT
10
76.9845
20
274.4175
0
VERTEX
8
CUT
10
79.2224
20
278.8606
0
VERTEX
8
CUT
10
80.6832
20
280.9568
0
VERTEX
8
CUT
10
82.2779
20
282.7549
0
VERTEX
8
CUT
10
83.7753
20
284.0548
0
VERTEX
8
CUT
10
84.1451
20
284.3487
0
VERTEX
8
CUT
10
85.2120
20
285.0615
0
VERTEX
8
CUT
10
86.3272
20
285.7019
0
VERTEX
8
CUT
10
87.2021
20
286.1009
0
VERTEX
8
CUT
10
87.7074
20
286.3023
0
VERTEX
8
CUT
10
87.7669
20
286.3260
0
VERTEX
8
CUT
10
87.8755
20
286.3693
0
VERTEX
8
CUT
10
87.9802
20
286.4110
0
VERTEX
8
CUT
10
89.7277
20
286.8779
0
VERTEX
8
CUT
10
93.1327
20
287.0140
0
VERTEX
8
CUT
10
94.8034
20
286.6206
0
VERTEX
8
CUT
10
95.0042
20
286.5506
0
VERTEX
8
CUT
10
95.1549
20
286.4981
0
VERTEX
8
CUT
10
95.2966
20
286.4487
0
VERTEX
8
CUT
10
95.7755
20
286.2818
0
VERTEX
8
CUT
10
96.3908
20
285.9661
0
VERTEX
8
CUT
10
96.5246
20
285.8678
0
VERTEX
8
CUT
10
97.3775
20
285.2071
0
VERTEX
8
CUT
10
98.8096
20
283.5886
0
VERTEX
8
CUT
10
100.1461
20
280.9062
0
VERTEX
8
CUT
10
100.3780
20
279.1235
0
VERTEX
8
CUT
10
100.3123
20
275.3776
0
VERTEX
8
CUT
10
99.7363
20
272.1006
0
VERTEX
8
CUT
10
98.4287
20
269.0616
0
VERTEX
8
CUT
10
96.1875
20
265.8319
0
VERTEX
8
CUT
10
92.4448
20
261.0402
0
VERTEX
8
CUT
10
90.9835
20
258.3842
0
VERTEX
8
CUT
10
90.1924
20
255.6167
0
VERTEX
8
CUT
10
89.9677
20
252.5909
0
VERTEX
8
CUT
10
90.0365
20
250.4315
0
VERTEX
8
CUT
10
90.9221
20
246.4622
0
VERTEX
8
CUT
10
91.8000
20
244.4845
0
VERTEX
8
CUT
10
92.9923
20
242.4221
0
VERTEX
8
CUT
10
94.5805
20
240.0726
0
VERTEX
8
CUT
10
102.5433
20
230.1031
0
VERTEX
8
CUT
10
104.4092
20
227.1038
0
VERTEX
8
CUT
10
105.8243
20
224.2409
0
VERTEX
8
CUT
10
106.6350
20
221.9737
0
VERTEX
8
CUT
10
107.2964
20
218.0633
0
VERTEX
8
CUT
10
107.2919
20
215.8326
0
VERTEX
8
CUT
10
107.0314
20
215.1684
0
VERTEX
8
CUT
10
106.5805
20
214.7840
0
VERTEX
8
CUT
10
106.0504
20
214.8438
0
VERTEX
8
CUT
10
105.3697
20
215.5897
0
VERTEX
8
CUT
10
101.8106
20
217.9242
0
VERTEX
8
CUT
10
94.3067
20
224.6716
0
VERTEX
8
CUT
10
93.6781
20
225.6908
0
VERTEX
8
CUT
10
89.7641
20
229.8717
0
VERTEX
8
CUT
10
83.7519
20
237.1734
0
VERTEX
8
CUT
10
79.2460
20
243.5869
0
VERTEX
8
CUT
10
76.3734
20
248.0435
0
VERTEX
8
CUT
10
75.9437
20
248.9833
0
VERTEX
8
CUT
10
75.5936
20
253.7898
0
VERTEX
8
CUT
10
75.5142
20
255.5432
0
VERTEX
8
CUT
10
75.3572
20
257.0361
0
VERTEX
8
CUT
10
74.8866
20
263.4963
0
VERTEX
8
CUT
10
75.2202
20
268.0074
0
SEQEND
0
POLYLINE
8
CUT
66
1
70
1
10
0.0
20
0.0
30
0.0
0
VERTEX
8
CUT
10
158.6687
20
255.5401
0
VERTEX
8
CUT
10
158.5050
20
258.8147
0
VERTEX
8
CUT
10
158.7677
20
262.1091
0
VERTEX
8
CUT
10
159.4358
20
264.9363
0
VERTEX
8
CUT
10
160.7565
20
268.0958
0
VERTEX
8
CUT
10
162.2391
20
270.6326
0
VERTEX
8
CUT
10
164.2159
20
273.3342
0
VERTEX
8
CUT
10
170.0474
20
279.9235
0
VERTEX
8
CUT
10
171.3982
20
281.7356
0
VERTEX
8
CUT
10
172.1889
20
283.4158
0
VERTEX
8
CUT
10
172.0427
20
283.3061
0
VERTEX
8
CUT
10
172.4828
20
284.0444
0
VERTEX
8
CUT
10
173.2086
20
286.0951
0
VERTEX
8
CUT
10
173.5587
20
288.9482
0
VERTEX
8
CUT
10
173.1120
20
291.7708
0
VERTEX
8
CUT
10
171.9591
20
294.5347
0
VERTEX
8
CUT
10
171.1163
20
295.7935
0
VERTEX
8
CUT
10
168.8343
20
298.4544
0
VERTEX
8
CUT
10
168.8968
20
298.9999
0
VERTEX
8
CUT
10
169.7985
20
299.6307
0
VERTEX
8
CUT
10
169.8470
20
299.6353
0
VERTEX
8
CUT
10
170.8029
20
299.6354
0
VERTEX
8
CUT
10
172.2067
20
299.5699
0
VERTEX
8
CUT
10
174.0118
20
299.2048
0
VERTEX
8
CUT
10
176.7947
20
297.8910
0
VERTEX
8
CUT
10
177.4032
20
297.4896
0
VERTEX
8
CUT
10
177.8639
20
297.1857
0
VERTEX
8
CUT
10
178.1413
20
297.0027
0
VERTEX
8
CUT
10
178.4388
20
296.8064
0
VERTEX
8
CUT
10
179.4787
20
295.9351
0
VERTEX
8
CUT
10
179.7309
20
295.6889
0
VERTEX
8
CUT
10
180.7835
20
294.5029
0
VERTEX
8
CUT
10
181.4750
20
293.6404
0
VERTEX
8
CUT
10
182.0014
20
292.8575
0
VERTEX
8
CUT
10
183.3661
20
289.7824
0
VERTEX
8
CUT
10
183.9961
20
286.9763
0
VERTEX
8
CUT
10
183.9630
20
283.8693
0
VERTEX
8
CUT
10
183.4201
20
281.5897
0
VERTEX
8
CUT
10
181.4529
20
276.5093
0
VERTEX
8
CUT
10
180.8996
20
274.4015
0
VERTEX
8
CUT
10
180.7033
20
272.4188
0
VERTEX
8
CUT
10
181.1398
20
269.3953
0
VERTEX
8
CUT
10
181.0844
20
269.1830
0
VERTEX
8
CUT
10
181.1832
20
268.5241
0
VERTEX
8
CUT
10
182.6658
20
265.3283
0
VERTEX
8
CUT
10
185.2356
20
261.3418
0
VERTEX
8
CUT
10
190.8694
20
253.8959
0
VERTEX
8
CUT
10
193.8676
20
248.1962
0
VERTEX
8
CUT
10
195.3322
20
244.3083
0
VERTEX
8
CUT
10
195.8158
20
242.5205
0
VERTEX
8
CUT
10
196.2519
20
239.7663
0
VERTEX
8
CUT
10
196.3466
20
234.7445
0
VERTEX
8
CUT
10
196.0207
20
232.5610
0
VERTEX
8
CUT
10
195.4359
20
230.5028
0
VERTEX
8
CUT
10
194.6384
20
228.8781
0
VERTEX
8
CUT
10
193.6125
20
227.5481
0
VERTEX
8
CUT
10
192.3599
20
226.6173
0
VERTEX
8
CUT
10
190.9751
20
226.0569
0
VERTEX
8
CUT
10
190.1569
20
225.9798
0
VERTEX
8
CUT
10
189.4380
20
226.1597
0
VERTEX
8
CUT
10
188.1900
20
226.8902
0
VERTEX
8
CUT
10
187.4743
20
227.4767
0
VERTEX
8
CUT
10
186.4642
20
228.8966
0
VERTEX
8
CUT
10
185.7862
20
231.0639
0
VERTEX
8
CUT
10
184.5328
20
238.1424
0
VERTEX
8
CUT
10
183.3934
20
240.8700
0
VERTEX
8
CUT
10
182.6107
20
241.8840
0
VERTEX
8
CUT
10
181.8111
20
242.5334
0
VERTEX
8
CUT
10
180.9161
20
242.9283
0
VERTEX
8
CUT
10
179.4859
20
243.0699
0
VERTEX
8
CUT
10
178.3664
20
242.5505
0
VERTEX
8
CUT
10
175.8094
20
240.0241
0
VERTEX
8
CUT
10
174.1330
20
239.0032
0
VERTEX
8
CUT
10
171.0629
20
238.8602
0
VERTEX
8
CUT
10
168.9468
20
239.4362
0
VERTEX
8
CUT
10
165.9420
20
241.3349
0
VERTEX
8
CUT
10
164.0071
20
243.3371
0
VERTEX
8
CUT
10
161.9806
20
246.1350
0
VERTEX
8
CUT
10
160.4454
20
249.0748
0
VERTEX
8
CUT
10
159.3436
20
252.2334
0
SEQEND
0
POLYLINE
8
CUT
66
1
70
1
10
0.0
20
0.0
30
0.0
0
VERTEX
8
CUT
10
192.8782
20
284.7366
0
VERTEX
8
CUT
10
192.5804
20
285.1875
0
VERTEX
8
CUT
10
191.8884
20
285.3307
0
VERTEX
8
CUT
10
191.6575
20
285.6285
0
VERTEX
8
CUT
10
191.6481
20
286.1407
0
VERTEX
8
CUT
10
192.1498
20
288.3806
0
VERTEX
8
CUT
10
192.8701
20
289.9570
0
VERTEX
8
CUT
10
193.5333
20
290.5315
0
VERTEX
8
CUT
10
194.4775
20
290.4945
0
VERTEX
8
CUT
10
197.6856
20
288.8205
0
VERTEX
8
CUT
10
198.9977
20
287.7406
0
VERTEX
8
CUT
10
199.6437
20
286.7929
0
VERTEX
8
CUT
10
201.2636
20
283.9837
0
VERTEX
8
CUT
10
201.6148
20
282.9774
0
VERTEX
8
CUT
10
201.5786
20
281.9331
0
VERTEX
8
CUT
10
200.9202
20
280.2651
0
VERTEX
8
CUT
10
201.2820
20
279.6915
0
VERTEX
8
CUT
10
201.3506
20
278.9101
0
VERTEX
8
CUT
10
200.7829
20
277.3728
0
VERTEX
8
CUT
10
199.6088
20
275.6173
0
VERTEX
8
CUT
10
199.0535
20
275.2716
0
VERTEX
8
CUT
10
197.0887
20
275.1780
0
VERTEX
8
CUT
10
196.4769
20
274.8840
0
VERTEX
8
CUT
10
196.4212
20
274.4911
0
VERTEX
8
CUT
10
197.1030
20
273.4447
0
VERTEX
8
CUT
10
196.9732
20
272.9204
0
VERTEX
8
CUT
10
195.7301
20
271.7430
0
VERTEX
8
CUT
10
193.6861
20
270.6396
0
VERTEX
8
CUT
10
193.2503
20
268.5506
0
VERTEX
8
CUT
10
192.6902
20
267.2528
0
VERTEX
8
CUT
10
191.9668
20
266.3349
0
VERTEX
8
CUT
10
190.9370
20
265.9974
0
VERTEX
8
CUT
10
190.7218
20
265.0270
0
VERTEX
8
CUT
10
190.1663
20
264.5023
0
VERTEX
8
CUT
10
189.3838
20
263.0538
0
VERTEX
8
CUT
10
189.0773
20
262.9125
0
VERTEX
8
CUT
10
188.7354
20
262.9516
0
VERTEX
8
CUT
10
187.7595
20
263.7274
0
VERTEX
8
CUT
10
187.3045
20
264.7468
0
VERTEX
8
CUT
10
188.6485
20
266.4023
0
VERTEX
8
CUT
10
189.6319
20
267.0691
0
VERTEX
8
CUT
10
190.3243
20
267.2565
0
VERTEX
8
CUT
10
190.3344
20
268.1053
0
VERTEX
8
CUT
10
190.7413
20
269.7910
0
VERTEX
8
CUT
10
189.8377
20
270.7657
0
VERTEX
8
CUT
10
188.7007
20
270.8268
0
VERTEX
8
CUT
10
188.1648
20
271.1322
0
VERTEX
8
CUT
10
187.9250
20
272.4219
0
VERTEX
8
CUT
10
188.6281
20
274.0561
0
VERTEX
8
CUT
10
189.4044
20
274.2344
0
VERTEX
8
CUT
10
189.6165
20
275.2422
0
VERTEX
8
CUT
10
189.9024
20
275.2690
0
VERTEX
8
CUT
10
190.3593
20
274.9659
0
VERTEX
8
CUT
10
190.7053
20
275.3540
0
VERTEX
8
CUT
10
190.6020
20
275.6746
0
VERTEX
8
CUT
10
190.1043
20
276.0928
0
VERTEX
8
CUT
10
190.4871
20
276.8719
0
VERTEX
8
CUT
10
190.4155
20
277.2321
0
VERTEX
8
CUT
10
188.7736
20
277.4478
0
VERTEX
8
CUT
10
188.6487
20
277.7603
0
VERTEX
8
CUT
10
191.2797
20
278.3846
0
VERTEX
8
CUT
10
193.0853
20
279.4738
0
VERTEX
8
CUT
10
193.6278
20
280.1553
0
VERTEX
8
CUT
10
193.7002
20
280.8078
0
VERTEX
8
CUT
10
194.4562
20
282.4854
0
VERTEX
8
CUT
10
194.6072
20
283.1842
0
VERTEX
8
CUT
10
194.4459
20
283.6908
0
VERTEX
8
CUT
10
193.7019
20
284.1435
0
VERTEX
8
CUT
10
193.3819
20
284.6329
0
SEQEND
0
ENDSEC
0
EOF
